MFile 0 1 384
MTrk
0 Meta Copyright "(C) John Sankey 1998"
0 PrCh ch=1 p=6
0 Pb ch=1 v=8192
0 PrCh ch=2 p=6
0 Pb ch=2 v=7602
0 PrCh ch=3 p=6
0 Pb ch=3 v=7920
0 PrCh ch=4 p=6
0 Pb ch=4 v=7839
0 PrCh ch=5 p=6
0 Pb ch=5 v=7632
0 PrCh ch=6 p=6
0 Pb ch=6 v=8112
0 PrCh ch=7 p=6
0 Pb ch=7 v=7567
0 PrCh ch=8 p=6
0 Pb ch=8 v=8062
0 PrCh ch=9 p=6
0 Pb ch=9 v=7680
0 PrCh ch=11 p=6
0 Pb ch=11 v=7728
0 PrCh ch=12 p=6
0 Pb ch=12 v=7984
0 PrCh ch=13 p=6
0 Pb ch=13 v=7639
0 Tempo 500000
89 On ch=12 n=a#6 v=127
798 Off ch=12 n=a#6 v=127
798 On ch=11 n=a6 v=127
857 On ch=12 n=a#6 v=127
864 Off ch=11 n=a6 v=127
916 On ch=11 n=a6 v=127
923 Off ch=12 n=a#6 v=127
975 On ch=12 n=a#6 v=127
982 Off ch=11 n=a6 v=127
1034 On ch=11 n=a6 v=127
1041 Off ch=12 n=a#6 v=127
1093 On ch=12 n=a#6 v=127
1100 Off ch=11 n=a6 v=127
1152 On ch=11 n=a6 v=127
1159 Off ch=12 n=a#6 v=127
1329 Off ch=11 n=a6 v=127
1329 On ch=12 n=a#6 v=127
1506 Off ch=12 n=a#6 v=127
1506 On ch=12 n=a#5 v=127
1506 On ch=6 n=f6 v=127
2215 Off ch=12 n=a#5 v=127
2215 On ch=11 n=a5 v=127
2274 On ch=12 n=a#5 v=127
2281 Off ch=11 n=a5 v=127
2333 On ch=11 n=a5 v=127
2340 Off ch=12 n=a#5 v=127
2392 On ch=12 n=a#5 v=127
2399 Off ch=11 n=a5 v=127
2451 On ch=11 n=a5 v=127
2458 Off ch=12 n=a#5 v=127
2510 On ch=12 n=a#5 v=127
2517 Off ch=11 n=a5 v=127
2569 On ch=11 n=a5 v=127
2576 Off ch=12 n=a#5 v=127
2746 Off ch=11 n=a5 v=127
2746 Off ch=6 n=f6 v=127
2746 On ch=12 n=a#5 v=127
2746 On ch=6 n=f6 v=127
2923 Off ch=6 n=f6 v=127
2923 Off ch=12 n=a#5 v=127
2923 On ch=6 n=f5 v=127
2923 On ch=12 n=a#5 v=127
3100 Off ch=12 n=a#5 v=127
3100 On ch=11 n=a5 v=127
3277 Off ch=11 n=a5 v=127
3277 On ch=8 n=g6 v=127
3454 Off ch=8 n=g6 v=127
3454 On ch=6 n=f6 v=127
3631 Off ch=6 n=f6 v=127
3631 Off ch=6 n=f5 v=127
3631 On ch=3 n=d5 v=127
3631 On ch=1 n=c6 v=127
3808 Off ch=1 n=c6 v=127
3808 On ch=12 n=a#5 v=127
3985 Off ch=12 n=a#5 v=127
3985 On ch=8 n=g6 v=127
4162 Off ch=8 n=g6 v=127
4162 On ch=6 n=f6 v=127
4339 Off ch=6 n=f6 v=127
4339 Off ch=3 n=d5 v=127
4339 On ch=4 n=d#5 v=127
4339 On ch=9 n=g#5 v=127
4516 Off ch=9 n=g#5 v=127
4516 On ch=8 n=g5 v=127
4693 Off ch=8 n=g5 v=127
4693 On ch=8 n=g6 v=127
4870 Off ch=8 n=g6 v=127
4870 On ch=6 n=f6 v=127
5047 Off ch=6 n=f6 v=127
5047 Off ch=4 n=d#5 v=127
5047 On ch=5 n=e5 v=127
5047 On ch=1 n=c6 v=127
5224 Off ch=1 n=c6 v=127
5224 On ch=12 n=a#5 v=127
5401 Off ch=12 n=a#5 v=127
5401 On ch=8 n=g6 v=127
5578 Off ch=8 n=g6 v=127
5578 On ch=6 n=f6 v=127
5755 Off ch=6 n=f6 v=127
5755 Off ch=5 n=e5 v=127
5755 On ch=6 n=f5 v=127
5755 On ch=12 n=a#5 v=127
5932 Off ch=12 n=a#5 v=127
5932 On ch=11 n=a5 v=127
6109 Off ch=11 n=a5 v=127
6109 On ch=8 n=g6 v=127
6286 Off ch=8 n=g6 v=127
6286 On ch=6 n=f6 v=127
6463 Off ch=6 n=f6 v=127
6463 Off ch=6 n=f5 v=127
6463 On ch=11 n=a5 v=127
6463 On ch=4 n=d#6 v=127
6640 Off ch=4 n=d#6 v=127
6640 On ch=3 n=d6 v=127
6817 Off ch=3 n=d6 v=127
6817 On ch=1 n=c7 v=127
6994 On ch=4 n=d#6 v=127
7083 Off ch=1 n=c7 v=127
7172 Off ch=4 n=d#6 v=127
7172 Off ch=11 n=a5 v=127
7172 On ch=12 n=a#5 v=127
7172 On ch=6 n=f6 v=127
7261 Off ch=6 n=f6 v=127
7261 On ch=4 n=d#6 v=127
7350 Off ch=4 n=d#6 v=127
7350 On ch=3 n=d6 v=127
7439 Off ch=3 n=d6 v=127
7439 On ch=4 n=d#6 v=127
7528 Off ch=4 n=d#6 v=127
7528 Off ch=12 n=a#5 v=127
7528 On ch=12 n=a#4 v=127
7528 On ch=3 n=d6 v=127
7882 Off ch=3 n=d6 v=127
7882 On ch=12 n=a#3 v=127
8236 Off ch=12 n=a#4 v=127
8237 On ch=12 n=a#4 v=127
8591 Off ch=12 n=a#3 v=127
8591 On ch=12 n=a#5 v=127
8768 Off ch=12 n=a#5 v=127
8768 On ch=1 n=c6 v=127
8857 Off ch=1 n=c6 v=127
8857 On ch=3 n=d6 v=127
8946 Off ch=3 n=d6 v=127
8946 Off ch=12 n=a#4 v=127
8946 On ch=12 n=a#5 v=127
8946 On ch=4 n=d#6 v=127
9123 Off ch=4 n=d#6 v=127
9123 On ch=6 n=f6 v=127
9300 Off ch=6 n=f6 v=127
9300 Off ch=12 n=a#5 v=127
9300 On ch=4 n=d#6 v=127
9300 On ch=8 n=g6 v=127
9389 Off ch=8 n=g6 v=127
9389 On ch=6 n=f6 v=127
9478 Off ch=6 n=f6 v=127
9478 On ch=8 n=g6 v=127
9655 Off ch=8 n=g6 v=127
9655 Off ch=4 n=d#6 v=127
9655 On ch=1 n=c6 v=127
9655 On ch=11 n=a6 v=127
9744 Off ch=11 n=a6 v=127
9744 On ch=8 n=g6 v=127
9833 Off ch=8 n=g6 v=127
9833 On ch=11 n=a6 v=127
10010 Off ch=11 n=a6 v=127
10010 Off ch=1 n=c6 v=127
10010 On ch=12 n=a#5 v=127
10010 On ch=12 n=a#6 v=127
10364 Off ch=12 n=a#5 v=127
10364 On ch=12 n=a#4 v=127
10364 On ch=12 n=a#5 v=127
10718 Off ch=12 n=a#5 v=127
10718 Off ch=12 n=a#6 v=127
10718 On ch=12 n=a#3 v=127
10718 On ch=1 n=c6 v=127
10777 On ch=12 n=a#5 v=127
10784 Off ch=1 n=c6 v=127
10836 On ch=1 n=c6 v=127
10843 Off ch=12 n=a#5 v=127
10895 On ch=12 n=a#5 v=127
10902 Off ch=1 n=c6 v=127
10954 On ch=1 n=c6 v=127
10961 Off ch=12 n=a#5 v=127
11013 On ch=12 n=a#5 v=127
11020 Off ch=1 n=c6 v=127
11071 Off ch=12 n=a#4 v=127
11072 On ch=12 n=a#4 v=127
11072 On ch=1 n=c6 v=127
11079 Off ch=12 n=a#5 v=127
11131 On ch=12 n=a#5 v=127
11138 Off ch=1 n=c6 v=127
11190 On ch=1 n=c6 v=127
11197 Off ch=12 n=a#5 v=127
11249 On ch=12 n=a#5 v=127
11256 Off ch=1 n=c6 v=127
11308 On ch=11 n=a5 v=127
11315 Off ch=12 n=a#5 v=127
11367 On ch=12 n=a#5 v=127
11374 Off ch=11 n=a5 v=127
11426 Off ch=12 n=a#3 v=127
11603 Off ch=12 n=a#5 v=127
11603 On ch=1 n=c6 v=127
11692 Off ch=1 n=c6 v=127
11692 On ch=3 n=d6 v=127
11781 Off ch=3 n=d6 v=127
11781 Off ch=12 n=a#4 v=127
11781 On ch=12 n=a#5 v=127
11781 On ch=4 n=d#6 v=127
11958 Off ch=4 n=d#6 v=127
11958 On ch=6 n=f6 v=127
12135 Off ch=6 n=f6 v=127
12135 Off ch=12 n=a#5 v=127
12135 On ch=4 n=d#6 v=127
12135 On ch=8 n=g6 v=127
12224 Off ch=8 n=g6 v=127
12224 On ch=6 n=f6 v=127
12313 Off ch=6 n=f6 v=127
12313 On ch=8 n=g6 v=127
12490 Off ch=8 n=g6 v=127
12490 Off ch=4 n=d#6 v=127
12490 On ch=1 n=c6 v=127
12490 On ch=11 n=a6 v=127
12579 Off ch=11 n=a6 v=127
12579 On ch=8 n=g6 v=127
12668 Off ch=8 n=g6 v=127
12668 On ch=11 n=a6 v=127
12845 Off ch=11 n=a6 v=127
12845 Off ch=1 n=c6 v=127
12845 On ch=12 n=a#5 v=127
12845 On ch=12 n=a#6 v=127
13022 Off ch=12 n=a#5 v=127
13022 On ch=3 n=d6 v=127
13199 Off ch=3 n=d6 v=127
13199 On ch=8 n=g5 v=127
13376 Off ch=8 n=g5 v=127
13376 On ch=12 n=a#5 v=127
13553 Off ch=12 n=a#5 v=127
13553 On ch=4 n=d#5 v=127
13730 Off ch=4 n=d#5 v=127
13730 On ch=8 n=g5 v=127
13907 Off ch=8 n=g5 v=127
13907 Off ch=12 n=a#6 v=127
13907 On ch=1 n=c5 v=127
13907 On ch=4 n=d#6 v=127
13907 On ch=11 n=a5 v=127
14084 Off ch=1 n=c5 v=127
14084 On ch=6 n=f5 v=127
14261 Off ch=6 n=f5 v=127
14261 Off ch=11 n=a5 v=127
14261 Off ch=4 n=d#6 v=127
14261 On ch=12 n=a#4 v=127
14261 On ch=12 n=a#5 v=127
14261 On ch=4 n=d#6 v=127
14320 On ch=3 n=d6 v=127
14327 Off ch=4 n=d#6 v=127
14379 On ch=4 n=d#6 v=127
14386 Off ch=3 n=d6 v=127
14438 Off ch=12 n=a#4 v=127
14438 On ch=3 n=d5 v=127
14438 On ch=3 n=d6 v=127
14445 Off ch=4 n=d#6 v=127
14497 On ch=4 n=d#6 v=127
14504 Off ch=3 n=d6 v=127
14556 On ch=3 n=d6 v=127
14563 Off ch=4 n=d#6 v=127
14615 Off ch=3 n=d5 v=127
14615 On ch=8 n=g4 v=127
14615 On ch=4 n=d#6 v=127
14622 Off ch=3 n=d6 v=127
14674 On ch=3 n=d6 v=127
14681 Off ch=4 n=d#6 v=127
14733 On ch=4 n=d#6 v=127
14740 Off ch=3 n=d6 v=127
14792 Off ch=8 n=g4 v=127
14792 On ch=12 n=a#4 v=127
14792 On ch=3 n=d6 v=127
14799 Off ch=4 n=d#6 v=127
14851 On ch=1 n=c6 v=127
14858 Off ch=3 n=d6 v=127
14910 On ch=3 n=d6 v=127
14917 Off ch=1 n=c6 v=127
14969 Off ch=12 n=a#4 v=127
14969 On ch=4 n=d#4 v=127
14969 On ch=4 n=d#6 v=127
14976 Off ch=3 n=d6 v=127
15146 Off ch=4 n=d#4 v=127
15146 On ch=8 n=g4 v=127
15323 Off ch=8 n=g4 v=127
15323 Off ch=12 n=a#5 v=127
15323 On ch=1 n=c4 v=127
15323 On ch=11 n=a5 v=127
15500 Off ch=11 n=a5 v=127
15500 Off ch=1 n=c4 v=127
15500 On ch=6 n=f4 v=127
15677 Off ch=6 n=f4 v=127
15677 Off ch=4 n=d#6 v=127
15677 On ch=12 n=a#3 v=127
15677 On ch=12 n=a#5 v=127
15677 On ch=4 n=d#6 v=127
15736 On ch=3 n=d6 v=127
15743 Off ch=4 n=d#6 v=127
15795 On ch=4 n=d#6 v=127
15802 Off ch=3 n=d6 v=127
15854 Off ch=12 n=a#3 v=127
15854 On ch=3 n=d4 v=127
15854 On ch=3 n=d6 v=127
15861 Off ch=4 n=d#6 v=127
15913 On ch=4 n=d#6 v=127
15920 Off ch=3 n=d6 v=127
15972 On ch=3 n=d6 v=127
15979 Off ch=4 n=d#6 v=127
16031 Off ch=3 n=d4 v=127
16031 On ch=8 n=g3 v=127
16031 On ch=4 n=d#6 v=127
16038 Off ch=3 n=d6 v=127
16090 On ch=3 n=d6 v=127
16097 Off ch=4 n=d#6 v=127
16149 On ch=4 n=d#6 v=127
16156 Off ch=3 n=d6 v=127
16208 Off ch=8 n=g3 v=127
16208 On ch=12 n=a#3 v=127
16208 On ch=3 n=d6 v=127
16215 Off ch=4 n=d#6 v=127
16267 On ch=1 n=c6 v=127
16274 Off ch=3 n=d6 v=127
16326 On ch=3 n=d6 v=127
16333 Off ch=1 n=c6 v=127
16385 Off ch=12 n=a#3 v=127
16385 On ch=4 n=d#3 v=127
16385 On ch=4 n=d#6 v=127
16392 Off ch=3 n=d6 v=127
16562 Off ch=4 n=d#3 v=127
16562 On ch=8 n=g3 v=127
16739 Off ch=8 n=g3 v=127
16739 Off ch=12 n=a#5 v=127
16739 On ch=1 n=c3 v=127
16739 On ch=11 n=a5 v=127
16916 Off ch=11 n=a5 v=127
16916 On ch=6 n=f3 v=127
17005 Off ch=1 n=c3 v=127
17094 Off ch=6 n=f3 v=127
17094 Off ch=4 n=d#6 v=127
17094 On ch=12 n=a#2 v=127
17094 On ch=3 n=d6 v=127
17271 Off ch=3 n=d6 v=127
17271 On ch=1 n=c6 v=127
17448 Off ch=1 n=c6 v=127
17448 On ch=12 n=a#3 v=127
17448 On ch=12 n=a#5 v=127
17625 Off ch=12 n=a#5 v=127
17625 Off ch=12 n=a#2 v=127
17625 On ch=11 n=a5 v=127
17802 Off ch=11 n=a5 v=127
17802 On ch=12 n=a#4 v=127
17802 On ch=12 n=a#5 v=127
17891 Off ch=12 n=a#5 v=127
17891 On ch=11 n=a5 v=127
17980 Off ch=11 n=a5 v=127
17980 Off ch=12 n=a#3 v=127
17980 On ch=12 n=a#5 v=127
18069 Off ch=12 n=a#5 v=127
18069 On ch=11 n=a5 v=127
18158 Off ch=11 n=a5 v=127
18158 On ch=12 n=a#5 v=127
18247 Off ch=12 n=a#5 v=127
18247 On ch=11 n=a5 v=127
18336 Off ch=11 n=a5 v=127
18336 On ch=12 n=a#5 v=127
18513 Off ch=12 n=a#5 v=127
18513 Off ch=12 n=a#4 v=127
18513 On ch=12 n=a#3 v=127
18513 On ch=6 n=f5 v=127
18690 Off ch=6 n=f5 v=127
18690 On ch=8 n=g5 v=127
18779 Off ch=8 n=g5 v=127
18779 On ch=11 n=a5 v=127
18868 Off ch=11 n=a5 v=127
18868 On ch=12 n=a#4 v=127
18868 On ch=12 n=a#5 v=127
19045 Off ch=12 n=a#5 v=127
19045 On ch=1 n=c6 v=127
19222 Off ch=1 n=c6 v=127
19222 Off ch=12 n=a#4 v=127
19222 Off ch=12 n=a#3 v=127
19222 On ch=3 n=d5 v=127
19222 On ch=3 n=d6 v=127
19399 Off ch=3 n=d6 v=127
19399 On ch=12 n=a#5 v=127
19576 Off ch=12 n=a#5 v=127
19576 Off ch=3 n=d5 v=127
19576 On ch=12 n=a#4 v=127
19576 On ch=11 n=a5 v=127
19753 Off ch=11 n=a5 v=127
19753 On ch=12 n=a#5 v=127
19930 Off ch=12 n=a#5 v=127
19930 Off ch=12 n=a#4 v=127
19930 On ch=6 n=f3 v=127
19930 On ch=13 n=b5 v=127
20107 Off ch=13 n=b5 v=127
20107 On ch=1 n=c6 v=127
20284 Off ch=1 n=c6 v=127
20284 On ch=6 n=f4 v=127
20284 On ch=13 n=b5 v=127
20461 Off ch=13 n=b5 v=127
20461 On ch=1 n=c6 v=127
20638 Off ch=1 n=c6 v=127
20638 Off ch=6 n=f4 v=127
20638 Off ch=6 n=f3 v=127
20638 On ch=11 n=a4 v=127
20638 On ch=13 n=b5 v=127
20815 Off ch=13 n=b5 v=127
20815 On ch=1 n=c6 v=127
20992 Off ch=1 n=c6 v=127
20992 Off ch=11 n=a4 v=127
20992 On ch=6 n=f4 v=127
20992 On ch=13 n=b5 v=127
21169 Off ch=13 n=b5 v=127
21169 On ch=1 n=c6 v=127
21335 Off ch=1 n=c6 v=127
21346 Off ch=6 n=f4 v=127
21346 On ch=12 n=a#3 v=127
21346 On ch=6 n=f5 v=127
21523 Off ch=6 n=f5 v=127
21523 On ch=8 n=g5 v=127
21612 Off ch=8 n=g5 v=127
21612 On ch=11 n=a5 v=127
21701 Off ch=11 n=a5 v=127
21701 On ch=12 n=a#4 v=127
21701 On ch=12 n=a#5 v=127
21878 Off ch=12 n=a#5 v=127
21878 On ch=1 n=c6 v=127
22055 Off ch=1 n=c6 v=127
22055 Off ch=12 n=a#4 v=127
22055 Off ch=12 n=a#3 v=127
22055 On ch=3 n=d5 v=127
22055 On ch=3 n=d6 v=127
22232 Off ch=3 n=d6 v=127
22232 On ch=12 n=a#5 v=127
22409 Off ch=12 n=a#5 v=127
22409 Off ch=3 n=d5 v=127
22409 On ch=12 n=a#4 v=127
22409 On ch=11 n=a5 v=127
22586 Off ch=11 n=a5 v=127
22586 On ch=12 n=a#5 v=127
22763 Off ch=12 n=a#5 v=127
22763 Off ch=12 n=a#4 v=127
22763 On ch=6 n=f3 v=127
22763 On ch=13 n=b5 v=127
22940 Off ch=13 n=b5 v=127
22940 On ch=1 n=c6 v=127
23117 Off ch=1 n=c6 v=127
23117 On ch=6 n=f4 v=127
23117 On ch=13 n=b5 v=127
23294 Off ch=13 n=b5 v=127
23294 On ch=1 n=c6 v=127
23471 Off ch=1 n=c6 v=127
23471 Off ch=6 n=f4 v=127
23471 Off ch=6 n=f3 v=127
23471 On ch=11 n=a4 v=127
23471 On ch=13 n=b5 v=127
23648 Off ch=13 n=b5 v=127
23648 On ch=1 n=c6 v=127
23825 Off ch=1 n=c6 v=127
23825 Off ch=11 n=a4 v=127
23825 On ch=6 n=f4 v=127
23825 On ch=13 n=b5 v=127
24002 Off ch=13 n=b5 v=127
24002 On ch=1 n=c6 v=127
24135 Off ch=1 n=c6 v=127
24179 Off ch=6 n=f4 v=127
24179 On ch=6 n=f3 v=127
24179 On ch=1 n=c6 v=127
24356 Off ch=1 n=c6 v=127
24356 On ch=3 n=d6 v=127
24445 Off ch=3 n=d6 v=127
24445 On ch=5 n=e6 v=127
24534 Off ch=5 n=e6 v=127
24534 On ch=6 n=f4 v=127
24534 On ch=6 n=f6 v=127
24711 Off ch=6 n=f6 v=127
24711 On ch=8 n=g6 v=127
24888 Off ch=8 n=g6 v=127
24888 Off ch=6 n=f4 v=127
24888 Off ch=6 n=f3 v=127
24888 On ch=11 n=a4 v=127
24888 On ch=11 n=a6 v=127
25065 Off ch=11 n=a6 v=127
25065 On ch=6 n=f6 v=127
25242 Off ch=6 n=f6 v=127
25242 Off ch=11 n=a4 v=127
25242 On ch=6 n=f4 v=127
25242 On ch=5 n=e6 v=127
25419 Off ch=5 n=e6 v=127
25419 On ch=6 n=f6 v=127
25596 Off ch=6 n=f6 v=127
25596 Off ch=6 n=f4 v=127
25596 On ch=1 n=c4 v=127
25596 On ch=7 n=f#6 v=127
25773 Off ch=7 n=f#6 v=127
25773 On ch=8 n=g6 v=127
25950 Off ch=8 n=g6 v=127
25950 On ch=1 n=c5 v=127
25950 On ch=7 n=f#6 v=127
26127 Off ch=7 n=f#6 v=127
26127 On ch=8 n=g6 v=127
26304 Off ch=8 n=g6 v=127
26304 Off ch=1 n=c5 v=127
26304 Off ch=1 n=c4 v=127
26304 On ch=5 n=e5 v=127
26304 On ch=7 n=f#6 v=127
26481 Off ch=7 n=f#6 v=127
26481 On ch=8 n=g6 v=127
26658 Off ch=8 n=g6 v=127
26658 Off ch=5 n=e5 v=127
26658 On ch=1 n=c5 v=127
26658 On ch=7 n=f#6 v=127
26835 Off ch=7 n=f#6 v=127
26835 On ch=8 n=g6 v=127
26968 Off ch=8 n=g6 v=127
27012 Off ch=1 n=c5 v=127
27012 On ch=6 n=f3 v=127
27012 On ch=1 n=c6 v=127
27189 Off ch=1 n=c6 v=127
27189 On ch=3 n=d6 v=127
27278 Off ch=3 n=d6 v=127
27278 On ch=5 n=e6 v=127
27367 Off ch=5 n=e6 v=127
27367 On ch=6 n=f4 v=127
27367 On ch=6 n=f6 v=127
27544 Off ch=6 n=f6 v=127
27544 On ch=8 n=g6 v=127
27721 Off ch=8 n=g6 v=127
27721 Off ch=6 n=f4 v=127
27721 Off ch=6 n=f3 v=127
27721 On ch=11 n=a4 v=127
27721 On ch=11 n=a6 v=127
27898 Off ch=11 n=a6 v=127
27898 On ch=6 n=f6 v=127
28075 Off ch=6 n=f6 v=127
28075 Off ch=11 n=a4 v=127
28075 On ch=6 n=f4 v=127
28075 On ch=5 n=e6 v=127
28252 Off ch=5 n=e6 v=127
28252 On ch=6 n=f6 v=127
28429 Off ch=6 n=f6 v=127
28429 Off ch=6 n=f4 v=127
28429 On ch=1 n=c3 v=127
28429 On ch=7 n=f#6 v=127
28606 Off ch=7 n=f#6 v=127
28606 On ch=8 n=g6 v=127
28783 Off ch=8 n=g6 v=127
28783 On ch=1 n=c4 v=127
28783 On ch=7 n=f#6 v=127
28960 Off ch=7 n=f#6 v=127
28960 On ch=8 n=g6 v=127
29137 Off ch=8 n=g6 v=127
29137 Off ch=1 n=c4 v=127
29137 Off ch=1 n=c3 v=127
29137 On ch=5 n=e4 v=127
29137 On ch=7 n=f#6 v=127
29314 Off ch=7 n=f#6 v=127
29314 On ch=8 n=g6 v=127
29491 Off ch=8 n=g6 v=127
29491 Off ch=5 n=e4 v=127
29491 On ch=1 n=c4 v=127
29491 On ch=7 n=f#6 v=127
29668 Off ch=7 n=f#6 v=127
29668 On ch=8 n=g6 v=127
29845 Off ch=8 n=g6 v=127
29845 On ch=1 n=c7 v=127
30022 Off ch=1 n=c7 v=127
30022 On ch=8 n=g6 v=127
30199 Off ch=8 n=g6 v=127
30199 Off ch=1 n=c4 v=127
30199 On ch=1 n=c5 v=127
30199 On ch=5 n=e6 v=127
30376 Off ch=5 n=e6 v=127
30376 On ch=1 n=c6 v=127
30553 Off ch=1 n=c5 v=127
30553 On ch=3 n=d5 v=127
30612 On ch=12 n=a#5 v=127
30619 Off ch=1 n=c6 v=127
30671 On ch=1 n=c6 v=127
30678 Off ch=12 n=a#5 v=127
30730 On ch=12 n=a#5 v=127
30737 Off ch=1 n=c6 v=127
30789 On ch=1 n=c6 v=127
30796 Off ch=12 n=a#5 v=127
30848 On ch=12 n=a#5 v=127
30855 Off ch=1 n=c6 v=127
30907 Off ch=3 n=d5 v=127
30907 On ch=5 n=e5 v=127
30907 On ch=1 n=c6 v=127
30914 Off ch=12 n=a#5 v=127
30966 On ch=12 n=a#5 v=127
30973 Off ch=1 n=c6 v=127
31025 On ch=1 n=c6 v=127
31032 Off ch=12 n=a#5 v=127
31084 On ch=12 n=a#5 v=127
31091 Off ch=1 n=c6 v=127
31143 On ch=11 n=a5 v=127
31150 Off ch=12 n=a#5 v=127
31202 On ch=12 n=a#5 v=127
31209 Off ch=11 n=a5 v=127
31261 Off ch=12 n=a#5 v=127
31261 Off ch=5 n=e5 v=127
31261 On ch=6 n=f4 v=127
31261 On ch=1 n=c7 v=127
31438 Off ch=1 n=c7 v=127
31438 On ch=11 n=a6 v=127
31615 Off ch=11 n=a6 v=127
31615 On ch=6 n=f5 v=127
31615 On ch=6 n=f6 v=127
31792 Off ch=6 n=f6 v=127
31792 On ch=1 n=c6 v=127
31969 Off ch=1 n=c6 v=127
31969 Off ch=6 n=f5 v=127
31969 Off ch=6 n=f4 v=127
31969 On ch=11 n=a5 v=127
31969 On ch=3 n=d6 v=127
32028 On ch=1 n=c6 v=127
32035 Off ch=3 n=d6 v=127
32087 On ch=3 n=d6 v=127
32094 Off ch=1 n=c6 v=127
32146 On ch=1 n=c6 v=127
32153 Off ch=3 n=d6 v=127
32205 On ch=3 n=d6 v=127
32212 Off ch=1 n=c6 v=127
32264 On ch=1 n=c6 v=127
32271 Off ch=3 n=d6 v=127
32323 Off ch=11 n=a5 v=127
32323 On ch=6 n=f5 v=127
32323 On ch=3 n=d6 v=127
32330 Off ch=1 n=c6 v=127
32382 On ch=1 n=c6 v=127
32389 Off ch=3 n=d6 v=127
32441 On ch=3 n=d6 v=127
32448 Off ch=1 n=c6 v=127
32500 On ch=1 n=c6 v=127
32507 Off ch=3 n=d6 v=127
32559 On ch=12 n=a#5 v=127
32566 Off ch=1 n=c6 v=127
32618 On ch=1 n=c6 v=127
32625 Off ch=12 n=a#5 v=127
32677 Off ch=1 n=c6 v=127
32677 Off ch=6 n=f5 v=127
32677 On ch=1 n=c4 v=127
32677 On ch=1 n=c7 v=127
32854 Off ch=1 n=c7 v=127
32854 On ch=8 n=g6 v=127
33031 Off ch=8 n=g6 v=127
33031 On ch=1 n=c5 v=127
33031 On ch=5 n=e6 v=127
33208 Off ch=5 n=e6 v=127
33208 On ch=1 n=c6 v=127
33385 Off ch=1 n=c5 v=127
33385 Off ch=1 n=c4 v=127
33385 On ch=3 n=d5 v=127
33444 On ch=12 n=a#5 v=127
33451 Off ch=1 n=c6 v=127
33503 On ch=1 n=c6 v=127
33510 Off ch=12 n=a#5 v=127
33562 On ch=12 n=a#5 v=127
33569 Off ch=1 n=c6 v=127
33621 On ch=1 n=c6 v=127
33628 Off ch=12 n=a#5 v=127
33680 On ch=12 n=a#5 v=127
33687 Off ch=1 n=c6 v=127
33739 Off ch=3 n=d5 v=127
33739 On ch=5 n=e5 v=127
33739 On ch=1 n=c6 v=127
33746 Off ch=12 n=a#5 v=127
33798 On ch=12 n=a#5 v=127
33805 Off ch=1 n=c6 v=127
33857 On ch=1 n=c6 v=127
33864 Off ch=12 n=a#5 v=127
33916 On ch=12 n=a#5 v=127
33923 Off ch=1 n=c6 v=127
33975 On ch=11 n=a5 v=127
33982 Off ch=12 n=a#5 v=127
34034 On ch=12 n=a#5 v=127
34041 Off ch=11 n=a5 v=127
34093 Off ch=12 n=a#5 v=127
34093 Off ch=5 n=e5 v=127
34093 On ch=6 n=f3 v=127
34093 On ch=6 n=f6 v=127
34270 Off ch=6 n=f6 v=127
34270 On ch=1 n=c6 v=127
34447 Off ch=1 n=c6 v=127
34447 On ch=6 n=f4 v=127
34447 On ch=11 n=a5 v=127
34624 Off ch=11 n=a5 v=127
34624 On ch=6 n=f5 v=127
34801 Off ch=6 n=f4 v=127
34801 Off ch=6 n=f3 v=127
34801 On ch=8 n=g4 v=127
34860 On ch=4 n=d#5 v=127
34867 Off ch=6 n=f5 v=127
34919 On ch=6 n=f5 v=127
34926 Off ch=4 n=d#5 v=127
34978 On ch=4 n=d#5 v=127
34985 Off ch=6 n=f5 v=127
35037 On ch=6 n=f5 v=127
35044 Off ch=4 n=d#5 v=127
35096 On ch=4 n=d#5 v=127
35103 Off ch=6 n=f5 v=127
35155 Off ch=8 n=g4 v=127
35155 On ch=11 n=a4 v=127
35155 On ch=6 n=f5 v=127
35162 Off ch=4 n=d#5 v=127
35214 On ch=4 n=d#5 v=127
35221 Off ch=6 n=f5 v=127
35273 On ch=6 n=f5 v=127
35280 Off ch=4 n=d#5 v=127
35332 On ch=4 n=d#5 v=127
35339 Off ch=6 n=f5 v=127
35391 On ch=3 n=d5 v=127
35398 Off ch=4 n=d#5 v=127
35450 On ch=4 n=d#5 v=127
35457 Off ch=3 n=d5 v=127
35509 Off ch=4 n=d#5 v=127
35509 Off ch=11 n=a4 v=127
35509 On ch=12 n=a#3 v=127
35509 On ch=6 n=f6 v=127
35686 Off ch=6 n=f6 v=127
35686 On ch=3 n=d6 v=127
35863 Off ch=3 n=d6 v=127
35863 On ch=12 n=a#4 v=127
35863 On ch=12 n=a#5 v=127
36040 Off ch=12 n=a#5 v=127
36040 On ch=6 n=f5 v=127
36217 Off ch=6 n=f5 v=127
36217 Off ch=12 n=a#4 v=127
36217 Off ch=12 n=a#3 v=127
36217 On ch=3 n=d5 v=127
36217 On ch=8 n=g5 v=127
36276 On ch=6 n=f5 v=127
36283 Off ch=8 n=g5 v=127
36335 On ch=8 n=g5 v=127
36342 Off ch=6 n=f5 v=127
36394 On ch=6 n=f5 v=127
36401 Off ch=8 n=g5 v=127
36453 On ch=8 n=g5 v=127
36460 Off ch=6 n=f5 v=127
36512 On ch=6 n=f5 v=127
36519 Off ch=8 n=g5 v=127
36571 Off ch=3 n=d5 v=127
36571 On ch=12 n=a#4 v=127
36571 On ch=8 n=g5 v=127
36578 Off ch=6 n=f5 v=127
36630 On ch=6 n=f5 v=127
36637 Off ch=8 n=g5 v=127
36689 On ch=8 n=g5 v=127
36696 Off ch=6 n=f5 v=127
36748 On ch=6 n=f5 v=127
36755 Off ch=8 n=g5 v=127
36807 On ch=4 n=d#5 v=127
36814 Off ch=6 n=f5 v=127
36866 On ch=6 n=f5 v=127
36873 Off ch=4 n=d#5 v=127
36925 Off ch=6 n=f5 v=127
36925 Off ch=12 n=a#4 v=127
36925 On ch=6 n=f3 v=127
36925 On ch=6 n=f6 v=127
37102 Off ch=6 n=f6 v=127
37102 On ch=1 n=c6 v=127
37279 Off ch=1 n=c6 v=127
37279 On ch=6 n=f4 v=127
37279 On ch=11 n=a5 v=127
37456 Off ch=11 n=a5 v=127
37456 On ch=6 n=f5 v=127
37633 Off ch=6 n=f4 v=127
37633 Off ch=6 n=f3 v=127
37633 On ch=8 n=g4 v=127
37692 On ch=4 n=d#5 v=127
37699 Off ch=6 n=f5 v=127
37751 On ch=6 n=f5 v=127
37758 Off ch=4 n=d#5 v=127
37810 On ch=4 n=d#5 v=127
37817 Off ch=6 n=f5 v=127
37869 On ch=6 n=f5 v=127
37876 Off ch=4 n=d#5 v=127
37928 On ch=4 n=d#5 v=127
37935 Off ch=6 n=f5 v=127
37987 Off ch=8 n=g4 v=127
37987 On ch=11 n=a4 v=127
37987 On ch=6 n=f5 v=127
37994 Off ch=4 n=d#5 v=127
38046 On ch=4 n=d#5 v=127
38053 Off ch=6 n=f5 v=127
38105 On ch=6 n=f5 v=127
38112 Off ch=4 n=d#5 v=127
38164 On ch=4 n=d#5 v=127
38171 Off ch=6 n=f5 v=127
38223 On ch=3 n=d5 v=127
38230 Off ch=4 n=d#5 v=127
38282 On ch=4 n=d#5 v=127
38289 Off ch=3 n=d5 v=127
38341 Off ch=4 n=d#5 v=127
38341 Off ch=11 n=a4 v=127
38341 On ch=12 n=a#4 v=127
38341 On ch=3 n=d5 v=127
38518 On ch=12 n=a#5 v=127
38562 Off ch=3 n=d5 v=127
38695 Off ch=12 n=a#4 v=127
38695 On ch=8 n=g4 v=127
38695 On ch=5 n=e5 v=127
38739 Off ch=12 n=a#5 v=127
38872 On ch=1 n=c6 v=127
38916 Off ch=5 n=e5 v=127
39049 Off ch=8 n=g4 v=127
39049 On ch=11 n=a4 v=127
39049 On ch=6 n=f5 v=127
39093 Off ch=1 n=c6 v=127
39226 Off ch=6 n=f5 v=127
39226 On ch=3 n=d6 v=127
39403 Off ch=11 n=a4 v=127
39403 On ch=5 n=e4 v=127
39580 Off ch=3 n=d6 v=127
39580 On ch=1 n=c6 v=127
39669 Off ch=1 n=c6 v=127
39669 On ch=12 n=a#5 v=127
39758 Off ch=12 n=a#5 v=127
39758 Off ch=5 n=e4 v=127
39758 On ch=6 n=f4 v=127
39758 On ch=11 n=a5 v=127
39935 On ch=6 n=f6 v=127
39979 Off ch=11 n=a5 v=127
40112 Off ch=6 n=f4 v=127
40112 On ch=12 n=a#4 v=127
40112 On ch=3 n=d6 v=127
40156 Off ch=6 n=f6 v=127
40289 On ch=12 n=a#6 v=127
40333 Off ch=3 n=d6 v=127
40466 Off ch=12 n=a#6 v=127
40466 Off ch=12 n=a#4 v=127
40466 On ch=1 n=c5 v=127
40466 On ch=6 n=f6 v=127
40643 Off ch=6 n=f6 v=127
40643 On ch=5 n=e6 v=127
40702 On ch=6 n=f6 v=127
40709 Off ch=5 n=e6 v=127
40761 On ch=5 n=e6 v=127
40768 Off ch=6 n=f6 v=127
40820 On ch=1 n=c4 v=127
40820 On ch=6 n=f6 v=127
40827 Off ch=5 n=e6 v=127
40879 On ch=5 n=e6 v=127
40886 Off ch=6 n=f6 v=127
40938 On ch=6 n=f6 v=127
40945 Off ch=5 n=e6 v=127
40997 On ch=5 n=e6 v=127
41004 Off ch=6 n=f6 v=127
41056 On ch=3 n=d6 v=127
41063 Off ch=5 n=e6 v=127
41115 On ch=5 n=e6 v=127
41122 Off ch=3 n=d6 v=127
41173 Off ch=1 n=c5 v=127
41174 Off ch=1 n=c4 v=127
41174 On ch=3 n=d4 v=127
41174 On ch=6 n=f6 v=127
41181 Off ch=5 n=e6 v=127
41351 Off ch=6 n=f6 v=127
41351 On ch=6 n=f6 v=127
41528 Off ch=6 n=f6 v=127
41528 On ch=3 n=d5 v=127
41528 On ch=13 n=b5 v=127
41705 Off ch=13 n=b5 v=127
41705 On ch=1 n=c6 v=127
41882 Off ch=1 n=c6 v=127
41882 Off ch=3 n=d5 v=127
41882 Off ch=3 n=d4 v=127
41882 On ch=5 n=e5 v=127
41882 On ch=12 n=a#5 v=127
42059 Off ch=12 n=a#5 v=127
42059 On ch=8 n=g6 v=127
42236 Off ch=5 n=e5 v=127
42236 On ch=1 n=c5 v=127
42413 Off ch=8 n=g6 v=127
42413 On ch=12 n=a#5 v=127
42590 Off ch=12 n=a#5 v=127
42590 Off ch=1 n=c5 v=127
42590 On ch=6 n=f5 v=127
42590 On ch=11 n=a5 v=127
42767 Off ch=11 n=a5 v=127
42767 On ch=1 n=c6 v=127
42944 Off ch=1 n=c6 v=127
42944 Off ch=6 n=f5 v=127
42944 On ch=12 n=a#4 v=127
42944 On ch=3 n=d6 v=127
43121 On ch=6 n=f5 v=127
43165 Off ch=3 n=d6 v=127
43298 Off ch=6 n=f5 v=127
43298 Off ch=12 n=a#4 v=127
43298 On ch=1 n=c5 v=127
43298 On ch=11 n=a5 v=127
43475 Off ch=11 n=a5 v=127
43475 On ch=8 n=g5 v=127
43534 On ch=11 n=a5 v=127
43541 Off ch=8 n=g5 v=127
43593 On ch=8 n=g5 v=127
43600 Off ch=11 n=a5 v=127
43652 On ch=1 n=c4 v=127
43652 On ch=11 n=a5 v=127
43659 Off ch=8 n=g5 v=127
43711 On ch=8 n=g5 v=127
43718 Off ch=11 n=a5 v=127
43770 On ch=11 n=a5 v=127
43777 Off ch=8 n=g5 v=127
43829 On ch=8 n=g5 v=127
43836 Off ch=11 n=a5 v=127
43888 On ch=11 n=a5 v=127
43895 Off ch=8 n=g5 v=127
43947 On ch=8 n=g5 v=127
43954 Off ch=11 n=a5 v=127
44005 Off ch=1 n=c5 v=127
44006 Off ch=1 n=c4 v=127
44006 On ch=3 n=d4 v=127
44006 On ch=11 n=a5 v=127
44013 Off ch=8 n=g5 v=127
44094 Off ch=11 n=a5 v=127
44094 On ch=8 n=g5 v=127
44183 Off ch=8 n=g5 v=127
44183 On ch=6 n=f5 v=127
44360 Off ch=6 n=f5 v=127
44360 Off ch=3 n=d4 v=127
44360 On ch=3 n=d4 v=127
44360 On ch=13 n=b4 v=127
44537 Off ch=13 n=b4 v=127
44537 On ch=1 n=c5 v=127
44714 Off ch=1 n=c5 v=127
44714 Off ch=3 n=d4 v=127
44714 On ch=5 n=e4 v=127
44714 On ch=12 n=a#4 v=127
44891 Off ch=12 n=a#4 v=127
44891 On ch=8 n=g5 v=127
45068 Off ch=5 n=e4 v=127
45068 On ch=1 n=c4 v=127
45245 Off ch=8 n=g5 v=127
45245 On ch=12 n=a#4 v=127
45422 Off ch=12 n=a#4 v=127
45422 Off ch=1 n=c4 v=127
45422 On ch=6 n=f4 v=127
45422 On ch=11 n=a4 v=127
45599 Off ch=11 n=a4 v=127
45599 On ch=6 n=f5 v=127
45776 Off ch=6 n=f5 v=127
45776 Off ch=6 n=f4 v=127
45776 On ch=12 n=a#3 v=127
45776 On ch=3 n=d5 v=127
45953 On ch=12 n=a#5 v=127
45997 Off ch=3 n=d5 v=127
46130 Off ch=12 n=a#5 v=127
46130 Off ch=12 n=a#3 v=127
46130 On ch=1 n=c4 v=127
46130 On ch=6 n=f5 v=127
46130 On ch=11 n=a4 v=127
46484 Off ch=11 n=a4 v=127
46484 On ch=8 n=g4 v=127
46573 On ch=5 n=e5 v=127
46586 Off ch=6 n=f5 v=127
46662 Off ch=5 n=e5 v=127
46662 On ch=3 n=d5 v=127
46751 Off ch=3 n=d5 v=127
46751 On ch=5 n=e5 v=127
46840 Off ch=5 n=e5 v=127
46840 Off ch=8 n=g4 v=127
46840 Off ch=1 n=c4 v=127
46840 On ch=6 n=f4 v=127
46840 On ch=6 n=f5 v=127
47194 On ch=6 n=f6 v=127
47548 Off ch=6 n=f5 v=127
47549 Off ch=6 n=f6 v=127
47549 On ch=4 n=d#6 v=127
47638 Off ch=4 n=d#6 v=127
47638 On ch=2 n=c#6 v=127
47727 Off ch=2 n=c#6 v=127
47727 On ch=1 n=c6 v=127
47904 Off ch=1 n=c6 v=127
47904 Off ch=6 n=f4 v=127
47904 On ch=6 n=f5 v=127
47904 On ch=12 n=a#6 v=127
47904 On ch=2 n=c#6 v=127
48258 Off ch=2 n=c#6 v=127
48258 Off ch=6 n=f5 v=127
48258 On ch=5 n=e5 v=127
48258 On ch=1 n=c6 v=127
48612 Off ch=5 n=e5 v=127
48612 Off ch=12 n=a#6 v=127
48612 On ch=6 n=f5 v=127
48612 On ch=9 n=g#6 v=127
48966 Off ch=9 n=g#6 v=127
48966 Off ch=6 n=f5 v=127
48966 Off ch=1 n=c6 v=127
48966 On ch=12 n=a#4 v=127
48966 On ch=8 n=g6 v=127
48966 On ch=12 n=a#5 v=127
49320 Off ch=12 n=a#5 v=127
49320 Off ch=8 n=g6 v=127
49320 Off ch=12 n=a#4 v=127
49320 On ch=2 n=c#5 v=127
49320 On ch=6 n=f6 v=127
49320 On ch=9 n=g#5 v=127
49674 Off ch=9 n=g#5 v=127
49674 Off ch=6 n=f6 v=127
49674 Off ch=2 n=c#5 v=127
49674 On ch=1 n=c5 v=127
49674 On ch=5 n=e6 v=127
49674 On ch=8 n=g5 v=127
50028 Off ch=8 n=g5 v=127
50028 Off ch=5 n=e6 v=127
50028 Off ch=1 n=c5 v=127
50028 On ch=6 n=f4 v=127
50028 On ch=6 n=f6 v=127
50028 On ch=6 n=f5 v=127
50382 Off ch=6 n=f6 v=127
50382 On ch=4 n=d#6 v=127
50471 Off ch=4 n=d#6 v=127
50471 On ch=2 n=c#6 v=127
50560 Off ch=2 n=c#6 v=127
50560 On ch=1 n=c6 v=127
50737 Off ch=1 n=c6 v=127
50737 Off ch=6 n=f5 v=127
50737 Off ch=6 n=f4 v=127
50737 On ch=6 n=f5 v=127
50737 On ch=12 n=a#6 v=127
50737 On ch=2 n=c#6 v=127
51091 Off ch=2 n=c#6 v=127
51091 Off ch=6 n=f5 v=127
51091 On ch=5 n=e5 v=127
51091 On ch=1 n=c6 v=127
51445 Off ch=5 n=e5 v=127
51445 Off ch=12 n=a#6 v=127
51445 On ch=6 n=f5 v=127
51445 On ch=9 n=g#6 v=127
51799 Off ch=9 n=g#6 v=127
51799 Off ch=6 n=f5 v=127
51799 Off ch=1 n=c6 v=127
51799 On ch=12 n=a#4 v=127
51799 On ch=8 n=g6 v=127
51799 On ch=12 n=a#5 v=127
52153 Off ch=12 n=a#5 v=127
52153 Off ch=8 n=g6 v=127
52153 Off ch=12 n=a#4 v=127
52153 On ch=2 n=c#5 v=127
52153 On ch=9 n=g#5 v=127
52153 On ch=6 n=f6 v=127
52507 Off ch=6 n=f6 v=127
52507 Off ch=9 n=g#5 v=127
52507 Off ch=2 n=c#5 v=127
52507 On ch=1 n=c5 v=127
52507 On ch=5 n=e6 v=127
52507 On ch=8 n=g5 v=127
52861 Off ch=8 n=g5 v=127
52861 Off ch=5 n=e6 v=127
52861 On ch=1 n=c7 v=127
53215 Off ch=1 n=c7 v=127
53215 On ch=12 n=a#6 v=127
53304 Off ch=12 n=a#6 v=127
53304 On ch=9 n=g#6 v=127
53393 Off ch=9 n=g#6 v=127
53393 On ch=8 n=g6 v=127
53570 Off ch=8 n=g6 v=127
53570 Off ch=1 n=c5 v=127
53570 On ch=1 n=c6 v=127
53570 On ch=9 n=g#6 v=127
53924 Off ch=9 n=g#6 v=127
53924 Off ch=1 n=c6 v=127
53924 On ch=12 n=a#5 v=127
53924 On ch=8 n=g6 v=127
54013 Off ch=12 n=a#5 v=127
54013 On ch=9 n=g#5 v=127
54102 Off ch=9 n=g#5 v=127
54102 On ch=8 n=g5 v=127
54279 Off ch=8 n=g5 v=127
54279 Off ch=8 n=g6 v=127
54279 On ch=9 n=g#5 v=127
54279 On ch=6 n=f6 v=127
54633 Off ch=6 n=f6 v=127
54633 Off ch=9 n=g#5 v=127
54633 On ch=8 n=g5 v=127
54633 On ch=4 n=d#6 v=127
54722 Off ch=4 n=d#6 v=127
54722 On ch=2 n=c#6 v=127
54811 Off ch=2 n=c#6 v=127
54811 On ch=1 n=c6 v=127
54988 Off ch=1 n=c6 v=127
54988 Off ch=8 n=g5 v=127
54988 On ch=6 n=f5 v=127
54988 On ch=4 n=d#6 v=127
55047 On ch=2 n=c#6 v=127
55054 Off ch=4 n=d#6 v=127
55106 On ch=4 n=d#6 v=127
55113 Off ch=2 n=c#6 v=127
55165 On ch=2 n=c#6 v=127
55172 Off ch=4 n=d#6 v=127
55342 Off ch=2 n=c#6 v=127
55342 Off ch=6 n=f5 v=127
55342 On ch=5 n=e5 v=127
55342 On ch=1 n=c6 v=127
55431 Off ch=5 n=e5 v=127
55431 On ch=3 n=d5 v=127
55520 Off ch=3 n=d5 v=127
55520 On ch=1 n=c5 v=127
55697 Off ch=1 n=c6 v=127
55697 On ch=1 n=c6 v=127
56051 Off ch=1 n=c6 v=127
56051 On ch=12 n=a#5 v=127
56140 Off ch=12 n=a#5 v=127
56140 On ch=9 n=g#5 v=127
56229 Off ch=9 n=g#5 v=127
56229 On ch=8 n=g5 v=127
56406 Off ch=8 n=g5 v=127
56406 Off ch=1 n=c5 v=127
56406 On ch=1 n=c5 v=127
56406 On ch=9 n=g#5 v=127
56760 Off ch=9 n=g#5 v=127
56760 Off ch=1 n=c5 v=127
56760 On ch=12 n=a#4 v=127
56760 On ch=8 n=g5 v=127
56849 Off ch=12 n=a#4 v=127
56849 On ch=9 n=g#4 v=127
56938 Off ch=9 n=g#4 v=127
56938 On ch=8 n=g4 v=127
57115 Off ch=8 n=g4 v=127
57115 Off ch=8 n=g5 v=127
57115 On ch=9 n=g#4 v=127
57115 On ch=6 n=f5 v=127
57469 Off ch=6 n=f5 v=127
57469 Off ch=9 n=g#4 v=127
57469 On ch=8 n=g4 v=127
57469 On ch=4 n=d#5 v=127
57558 Off ch=4 n=d#5 v=127
57558 On ch=2 n=c#5 v=127
57647 Off ch=2 n=c#5 v=127
57647 On ch=1 n=c5 v=127
57824 Off ch=1 n=c5 v=127
57824 Off ch=8 n=g4 v=127
57824 On ch=6 n=f4 v=127
57824 On ch=4 n=d#5 v=127
57913 Off ch=4 n=d#5 v=127
57913 On ch=2 n=c#5 v=127
58002 Off ch=2 n=c#5 v=127
58002 On ch=1 n=c5 v=127
58091 Off ch=1 n=c5 v=127
58091 On ch=2 n=c#5 v=127
58180 Off ch=2 n=c#5 v=127
58180 Off ch=6 n=f4 v=127
58180 On ch=5 n=e4 v=127
58180 On ch=1 n=c5 v=127
58269 Off ch=5 n=e4 v=127
58269 On ch=3 n=d4 v=127
58358 Off ch=3 n=d4 v=127
58358 On ch=1 n=c4 v=127
58712 Off ch=1 n=c5 v=127
58712 On ch=1 n=c5 v=127
58889 Off ch=1 n=c5 v=127
58889 On ch=2 n=c#5 v=127
59066 On ch=1 n=c5 v=127
59110 Off ch=2 n=c#5 v=127
59243 Off ch=1 n=c5 v=127
59243 On ch=6 n=f5 v=127
59420 On ch=5 n=e5 v=127
59464 Off ch=6 n=f5 v=127
59597 Off ch=5 n=e5 v=127
59597 On ch=9 n=g#5 v=127
59774 On ch=8 n=g5 v=127
59818 Off ch=9 n=g#5 v=127
59951 Off ch=8 n=g5 v=127
59951 On ch=1 n=c6 v=127
60128 On ch=13 n=b5 v=127
60172 Off ch=1 n=c6 v=127
60305 Off ch=13 n=b5 v=127
60305 On ch=6 n=f6 v=127
60482 On ch=5 n=e6 v=127
60526 Off ch=6 n=f6 v=127
60659 Off ch=5 n=e6 v=127
60659 On ch=9 n=g#6 v=127
60836 On ch=8 n=g6 v=127
60880 Off ch=9 n=g#6 v=127
61013 Off ch=8 n=g6 v=127
61013 Off ch=1 n=c4 v=127
61013 On ch=1 n=c3 v=127
61013 On ch=1 n=c7 v=127
61190 On ch=1 n=c6 v=127
61367 Off ch=1 n=c6 v=127
61367 Off ch=1 n=c7 v=127
61367 On ch=2 n=c#6 v=127
61544 Off ch=2 n=c#6 v=127
61544 On ch=1 n=c6 v=127
61721 Off ch=1 n=c6 v=127
61721 On ch=2 n=c#5 v=127
61898 On ch=1 n=c5 v=127
61942 Off ch=2 n=c#5 v=127
62075 Off ch=1 n=c5 v=127
62075 On ch=6 n=f5 v=127
62252 On ch=5 n=e5 v=127
62296 Off ch=6 n=f5 v=127
62429 Off ch=5 n=e5 v=127
62429 On ch=9 n=g#5 v=127
62606 On ch=8 n=g5 v=127
62650 Off ch=9 n=g#5 v=127
62783 Off ch=8 n=g5 v=127
62783 On ch=1 n=c6 v=127
62960 On ch=13 n=b5 v=127
63004 Off ch=1 n=c6 v=127
63137 Off ch=13 n=b5 v=127
63137 On ch=6 n=f6 v=127
63314 On ch=5 n=e6 v=127
63358 Off ch=6 n=f6 v=127
63491 Off ch=5 n=e6 v=127
63491 On ch=9 n=g#6 v=127
63668 On ch=8 n=g6 v=127
63712 Off ch=9 n=g#6 v=127
63845 Off ch=8 n=g6 v=127
63845 Off ch=1 n=c3 v=127
63845 On ch=1 n=c3 v=127
63845 On ch=1 n=c7 v=127
64022 On ch=1 n=c6 v=127
64199 Off ch=1 n=c6 v=127
64199 Off ch=1 n=c7 v=127
64199 On ch=2 n=c#6 v=127
64376 Off ch=2 n=c#6 v=127
64376 On ch=1 n=c6 v=127
64553 Off ch=1 n=c6 v=127
64553 On ch=2 n=c#5 v=127
64730 On ch=1 n=c5 v=127
64774 Off ch=2 n=c#5 v=127
64907 Off ch=1 n=c5 v=127
64907 On ch=6 n=f5 v=127
65084 On ch=5 n=e5 v=127
65128 Off ch=6 n=f5 v=127
65261 Off ch=5 n=e5 v=127
65261 On ch=9 n=g#5 v=127
65438 On ch=8 n=g5 v=127
65482 Off ch=9 n=g#5 v=127
65615 Off ch=8 n=g5 v=127
65615 On ch=1 n=c6 v=127
65792 On ch=13 n=b5 v=127
65836 Off ch=1 n=c6 v=127
65969 Off ch=13 n=b5 v=127
65969 On ch=6 n=f6 v=127
66146 On ch=5 n=e6 v=127
66190 Off ch=6 n=f6 v=127
66323 Off ch=5 n=e6 v=127
66323 On ch=9 n=g#6 v=127
66500 On ch=8 n=g6 v=127
66544 Off ch=9 n=g#6 v=127
66677 Off ch=8 n=g6 v=127
66677 Off ch=1 n=c3 v=127
66677 On ch=1 n=c3 v=127
66677 On ch=1 n=c7 v=127
66854 Off ch=1 n=c7 v=127
66854 On ch=8 n=g6 v=127
67031 Off ch=8 n=g6 v=127
67031 Off ch=1 n=c3 v=127
67031 On ch=1 n=c5 v=127
67031 On ch=5 n=e6 v=127
67208 Off ch=5 n=e6 v=127
67208 On ch=1 n=c6 v=127
67385 Off ch=1 n=c5 v=127
67385 On ch=3 n=d5 v=127
67444 On ch=12 n=a#5 v=127
67451 Off ch=1 n=c6 v=127
67503 On ch=1 n=c6 v=127
67510 Off ch=12 n=a#5 v=127
67562 On ch=12 n=a#5 v=127
67569 Off ch=1 n=c6 v=127
67621 On ch=1 n=c6 v=127
67628 Off ch=12 n=a#5 v=127
67680 On ch=12 n=a#5 v=127
67687 Off ch=1 n=c6 v=127
67739 Off ch=3 n=d5 v=127
67739 On ch=1 n=c6 v=127
67739 On ch=5 n=e5 v=127
67746 Off ch=12 n=a#5 v=127
67798 On ch=12 n=a#5 v=127
67805 Off ch=1 n=c6 v=127
67857 On ch=1 n=c6 v=127
67864 Off ch=12 n=a#5 v=127
67916 On ch=12 n=a#5 v=127
67923 Off ch=1 n=c6 v=127
67975 On ch=11 n=a5 v=127
67982 Off ch=12 n=a#5 v=127
68034 On ch=12 n=a#5 v=127
68041 Off ch=11 n=a5 v=127
68093 Off ch=5 n=e5 v=127
68093 On ch=6 n=f5 v=127
68093 On ch=1 n=c7 v=127
68100 Off ch=12 n=a#5 v=127
68270 Off ch=1 n=c7 v=127
68270 On ch=11 n=a6 v=127
68447 Off ch=11 n=a6 v=127
68447 Off ch=6 n=f5 v=127
68447 On ch=11 n=a5 v=127
68447 On ch=6 n=f6 v=127
68624 Off ch=6 n=f6 v=127
68624 On ch=1 n=c6 v=127
68801 Off ch=11 n=a5 v=127
68801 On ch=8 n=g5 v=127
68860 On ch=12 n=a#5 v=127
68867 Off ch=1 n=c6 v=127
68919 On ch=1 n=c6 v=127
68926 Off ch=12 n=a#5 v=127
68978 On ch=12 n=a#5 v=127
68985 Off ch=1 n=c6 v=127
69037 On ch=1 n=c6 v=127
69044 Off ch=12 n=a#5 v=127
69096 On ch=12 n=a#5 v=127
69103 Off ch=1 n=c6 v=127
69155 Off ch=8 n=g5 v=127
69155 On ch=1 n=c5 v=127
69155 On ch=1 n=c6 v=127
69162 Off ch=12 n=a#5 v=127
69214 On ch=12 n=a#5 v=127
69221 Off ch=1 n=c6 v=127
69273 On ch=1 n=c6 v=127
69280 Off ch=12 n=a#5 v=127
69332 On ch=12 n=a#5 v=127
69339 Off ch=1 n=c6 v=127
69391 On ch=11 n=a5 v=127
69398 Off ch=12 n=a#5 v=127
69450 On ch=12 n=a#5 v=127
69457 Off ch=11 n=a5 v=127
69509 Off ch=1 n=c5 v=127
69509 On ch=6 n=f5 v=127
69509 On ch=11 n=a5 v=127
69516 Off ch=12 n=a#5 v=127
69686 Off ch=11 n=a5 v=127
69686 On ch=6 n=f6 v=127
69863 Off ch=6 n=f6 v=127
69863 Off ch=6 n=f5 v=127
69863 On ch=12 n=a#4 v=127
69863 On ch=3 n=d6 v=127
70040 Off ch=3 n=d6 v=127
70040 On ch=12 n=a#6 v=127
70217 Off ch=12 n=a#6 v=127
70217 Off ch=12 n=a#4 v=127
70217 On ch=1 n=c5 v=127
70217 On ch=6 n=f6 v=127
70394 Off ch=6 n=f6 v=127
70394 On ch=5 n=e6 v=127
70453 On ch=6 n=f6 v=127
70460 Off ch=5 n=e6 v=127
70512 On ch=5 n=e6 v=127
70519 Off ch=6 n=f6 v=127
70571 On ch=1 n=c4 v=127
70571 On ch=6 n=f6 v=127
70578 Off ch=5 n=e6 v=127
70630 On ch=5 n=e6 v=127
70637 Off ch=6 n=f6 v=127
70689 On ch=6 n=f6 v=127
70696 Off ch=5 n=e6 v=127
70747 Off ch=1 n=c5 v=127
70748 On ch=5 n=e6 v=127
70755 Off ch=6 n=f6 v=127
70807 On ch=3 n=d6 v=127
70814 Off ch=5 n=e6 v=127
70866 On ch=5 n=e6 v=127
70873 Off ch=3 n=d6 v=127
70925 Off ch=1 n=c4 v=127
70925 On ch=3 n=d4 v=127
70925 On ch=6 n=f6 v=127
70932 Off ch=5 n=e6 v=127
71013 Off ch=6 n=f6 v=127
71013 On ch=5 n=e6 v=127
71102 Off ch=5 n=e6 v=127
71102 On ch=6 n=f6 v=127
71279 Off ch=6 n=f6 v=127
71279 On ch=3 n=d5 v=127
71279 On ch=13 n=b5 v=127
71456 Off ch=13 n=b5 v=127
71456 Off ch=3 n=d4 v=127
71456 On ch=1 n=c6 v=127
71633 Off ch=1 n=c6 v=127
71633 Off ch=3 n=d5 v=127
71633 On ch=5 n=e5 v=127
71633 On ch=12 n=a#5 v=127
71810 Off ch=12 n=a#5 v=127
71810 On ch=8 n=g6 v=127
71987 Off ch=5 n=e5 v=127
71987 On ch=1 n=c5 v=127
72164 Off ch=8 n=g6 v=127
72164 On ch=12 n=a#5 v=127
72341 Off ch=12 n=a#5 v=127
72341 Off ch=1 n=c5 v=127
72341 On ch=6 n=f5 v=127
72341 On ch=11 n=a5 v=127
72518 Off ch=11 n=a5 v=127
72518 On ch=1 n=c6 v=127
72695 Off ch=1 n=c6 v=127
72695 Off ch=6 n=f5 v=127
72695 On ch=12 n=a#4 v=127
72695 On ch=3 n=d6 v=127
72872 Off ch=3 n=d6 v=127
72872 On ch=6 n=f5 v=127
73049 Off ch=6 n=f5 v=127
73049 Off ch=12 n=a#4 v=127
73049 On ch=1 n=c5 v=127
73049 On ch=11 n=a5 v=127
73226 Off ch=11 n=a5 v=127
73226 On ch=8 n=g5 v=127
73285 On ch=11 n=a5 v=127
73292 Off ch=8 n=g5 v=127
73344 On ch=8 n=g5 v=127
73351 Off ch=11 n=a5 v=127
73403 On ch=1 n=c4 v=127
73403 On ch=11 n=a5 v=127
73410 Off ch=8 n=g5 v=127
73462 On ch=8 n=g5 v=127
73469 Off ch=11 n=a5 v=127
73521 On ch=11 n=a5 v=127
73528 Off ch=8 n=g5 v=127
73579 Off ch=1 n=c5 v=127
73580 On ch=8 n=g5 v=127
73587 Off ch=11 n=a5 v=127
73639 On ch=6 n=f5 v=127
73646 Off ch=8 n=g5 v=127
73698 On ch=8 n=g5 v=127
73705 Off ch=6 n=f5 v=127
73757 Off ch=1 n=c4 v=127
73757 On ch=3 n=d4 v=127
73757 On ch=11 n=a5 v=127
73764 Off ch=8 n=g5 v=127
73845 Off ch=11 n=a5 v=127
73845 On ch=8 n=g5 v=127
73934 Off ch=8 n=g5 v=127
73934 On ch=6 n=f5 v=127
74111 Off ch=6 n=f5 v=127
74111 Off ch=3 n=d4 v=127
74111 On ch=3 n=d4 v=127
74111 On ch=13 n=b4 v=127
74288 Off ch=13 n=b4 v=127
74288 On ch=1 n=c5 v=127
74465 Off ch=1 n=c5 v=127
74465 Off ch=3 n=d4 v=127
74465 On ch=5 n=e4 v=127
74465 On ch=12 n=a#4 v=127
74642 Off ch=12 n=a#4 v=127
74642 On ch=8 n=g5 v=127
74819 Off ch=5 n=e4 v=127
74819 On ch=1 n=c4 v=127
74996 Off ch=8 n=g5 v=127
74996 On ch=12 n=a#4 v=127
75173 Off ch=12 n=a#4 v=127
75173 Off ch=1 n=c4 v=127
75173 On ch=6 n=f4 v=127
75173 On ch=11 n=a4 v=127
75350 Off ch=11 n=a4 v=127
75350 On ch=6 n=f5 v=127
75527 Off ch=6 n=f5 v=127
75527 Off ch=6 n=f4 v=127
75527 On ch=12 n=a#4 v=127
75527 On ch=3 n=d5 v=127
75704 Off ch=3 n=d5 v=127
75704 On ch=12 n=a#5 v=127
75881 Off ch=12 n=a#5 v=127
75881 Off ch=12 n=a#4 v=127
75881 On ch=1 n=c5 v=127
75881 On ch=6 n=f5 v=127
76235 On ch=1 n=c4 v=127
76324 Off ch=6 n=f5 v=127
76324 On ch=5 n=e5 v=127
76412 Off ch=1 n=c5 v=127
76413 Off ch=5 n=e5 v=127
76413 On ch=3 n=d5 v=127
76502 Off ch=3 n=d5 v=127
76502 On ch=5 n=e5 v=127
76591 Off ch=5 n=e5 v=127
76591 Off ch=1 n=c4 v=127
76591 On ch=6 n=f3 v=127
76768 On ch=11 n=a4 v=127
76945 Off ch=11 n=a4 v=127
76945 Off ch=6 n=f3 v=127
76945 On ch=6 n=f4 v=127
77122 On ch=1 n=c5 v=127
77166 Off ch=6 n=f4 v=127
77299 Off ch=1 n=c5 v=127
77299 On ch=11 n=a4 v=127
77476 On ch=6 n=f5 v=127
77520 Off ch=11 n=a4 v=127
77653 Off ch=6 n=f5 v=127
77653 On ch=1 n=c5 v=127
77830 On ch=11 n=a5 v=127
77874 Off ch=1 n=c5 v=127
78007 Off ch=11 n=a5 v=127
78007 On ch=6 n=f5 v=127
78184 On ch=1 n=c6 v=127
78228 Off ch=6 n=f5 v=127
78361 Off ch=1 n=c6 v=127
78361 On ch=11 n=a5 v=127
78538 On ch=6 n=f6 v=127
78582 Off ch=11 n=a5 v=127
78715 Off ch=6 n=f6 v=127
78715 On ch=1 n=c6 v=127
78892 On ch=11 n=a6 v=127
78936 Off ch=1 n=c6 v=127
79069 Off ch=11 n=a6 v=127
79069 On ch=6 n=f6 v=127
79246 On ch=1 n=c7 v=127
79290 Off ch=6 n=f6 v=127
79423 On ch=6 n=f4 v=127
79423 On ch=6 n=f3 v=127
79600 Off ch=1 n=c7 v=127
79600 On ch=12 n=a#6 v=127
79777 Off ch=12 n=a#6 v=127
79777 On ch=11 n=a6 v=127
79954 Off ch=11 n=a6 v=127
79954 On ch=8 n=g6 v=127
80131 Off ch=8 n=g6 v=127
80131 On ch=6 n=f6 v=127
80308 Off ch=6 n=f6 v=127
80308 On ch=5 n=e6 v=127
80485 Off ch=5 n=e6 v=127
80485 Off ch=6 n=f3 v=127
80485 Off ch=6 n=f4 v=127
80485 On ch=11 n=a4 v=127
80485 On ch=3 n=d6 v=127
80662 Off ch=3 n=d6 v=127
80662 On ch=1 n=c6 v=127
80839 Off ch=1 n=c6 v=127
80839 Off ch=11 n=a4 v=127
80839 On ch=12 n=a#4 v=127
80839 On ch=12 n=a#5 v=127
81016 Off ch=12 n=a#5 v=127
81016 On ch=11 n=a5 v=127
81105 Off ch=11 n=a5 v=127
81105 On ch=8 n=g5 v=127
81194 Off ch=8 n=g5 v=127
81194 Off ch=12 n=a#4 v=127
81194 On ch=6 n=f4 v=127
81194 On ch=6 n=f5 v=127
81283 Off ch=6 n=f5 v=127
81283 On ch=5 n=e5 v=127
81372 Off ch=5 n=e5 v=127
81372 On ch=3 n=d5 v=127
81461 Off ch=3 n=d5 v=127
81461 On ch=1 n=c5 v=127
81550 Off ch=1 n=c5 v=127
81550 Off ch=6 n=f4 v=127
81550 On ch=1 n=c4 v=127
81550 On ch=11 n=a5 v=127
81609 On ch=8 n=g5 v=127
81616 Off ch=11 n=a5 v=127
81668 On ch=11 n=a5 v=127
81675 Off ch=8 n=g5 v=127
81727 On ch=8 n=g5 v=127
81734 Off ch=11 n=a5 v=127
81786 On ch=11 n=a5 v=127
81793 Off ch=8 n=g5 v=127
81845 On ch=8 n=g5 v=127
81852 Off ch=11 n=a5 v=127
81904 On ch=1 n=c3 v=127
81904 On ch=11 n=a5 v=127
81911 Off ch=8 n=g5 v=127
81963 On ch=8 n=g5 v=127
81970 Off ch=11 n=a5 v=127
82022 On ch=11 n=a5 v=127
82029 Off ch=8 n=g5 v=127
82081 On ch=8 n=g5 v=127
82088 Off ch=11 n=a5 v=127
82140 On ch=6 n=f5 v=127
82147 Off ch=8 n=g5 v=127
82199 On ch=8 n=g5 v=127
82206 Off ch=6 n=f5 v=127
82258 Off ch=1 n=c3 v=127
82258 Off ch=1 n=c4 v=127
82258 On ch=6 n=f3 v=127
82258 On ch=6 n=f5 v=127
82265 Off ch=8 n=g5 v=127
83675 Off ch=6 n=f5 v=127
83675 Off ch=6 n=f3 v=127
83675 On ch=6 n=f6 v=127
84384 Off ch=6 n=f6 v=127
84384 On ch=5 n=e6 v=127
84443 On ch=6 n=f6 v=127
84450 Off ch=5 n=e6 v=127
84502 On ch=5 n=e6 v=127
84509 Off ch=6 n=f6 v=127
84561 On ch=6 n=f6 v=127
84568 Off ch=5 n=e6 v=127
84620 On ch=5 n=e6 v=127
84627 Off ch=6 n=f6 v=127
84679 On ch=6 n=f6 v=127
84686 Off ch=5 n=e6 v=127
84738 On ch=5 n=e6 v=127
84745 Off ch=6 n=f6 v=127
84915 Off ch=5 n=e6 v=127
84915 On ch=6 n=f6 v=127
85092 Off ch=6 n=f6 v=127
85092 On ch=6 n=f5 v=127
85092 On ch=1 n=c6 v=127
85801 Off ch=6 n=f5 v=127
85801 On ch=5 n=e5 v=127
85860 On ch=6 n=f5 v=127
85867 Off ch=5 n=e5 v=127
85919 On ch=5 n=e5 v=127
85926 Off ch=6 n=f5 v=127
85978 On ch=6 n=f5 v=127
85985 Off ch=5 n=e5 v=127
86037 On ch=5 n=e5 v=127
86044 Off ch=6 n=f5 v=127
86096 On ch=6 n=f5 v=127
86103 Off ch=5 n=e5 v=127
86155 On ch=5 n=e5 v=127
86162 Off ch=6 n=f5 v=127
86332 Off ch=5 n=e5 v=127
86332 Off ch=1 n=c6 v=127
86332 On ch=6 n=f5 v=127
86332 On ch=1 n=c6 v=127
86509 Off ch=1 n=c6 v=127
86509 Off ch=6 n=f5 v=127
86509 On ch=6 n=f5 v=127
86509 On ch=1 n=c5 v=127
86686 Off ch=6 n=f5 v=127
86686 On ch=5 n=e5 v=127
86863 Off ch=5 n=e5 v=127
86863 On ch=3 n=d6 v=127
87040 Off ch=3 n=d6 v=127
87040 On ch=1 n=c6 v=127
87217 Off ch=1 n=c6 v=127
87217 Off ch=1 n=c5 v=127
87217 On ch=3 n=d5 v=127
87217 On ch=8 n=g5 v=127
87394 Off ch=8 n=g5 v=127
87394 On ch=6 n=f5 v=127
87571 Off ch=6 n=f5 v=127
87571 On ch=3 n=d6 v=127
87748 Off ch=3 n=d6 v=127
87748 On ch=1 n=c6 v=127
87925 Off ch=1 n=c6 v=127
87925 Off ch=3 n=d5 v=127
87925 On ch=5 n=e5 v=127
87925 On ch=11 n=a5 v=127
88102 Off ch=11 n=a5 v=127
88102 On ch=8 n=g5 v=127
88279 Off ch=8 n=g5 v=127
88279 On ch=8 n=g6 v=127
88456 Off ch=8 n=g6 v=127
88456 On ch=6 n=f6 v=127
88633 Off ch=6 n=f6 v=127
88633 Off ch=5 n=e5 v=127
88633 On ch=1 n=c5 v=127
88633 On ch=5 n=e6 v=127
88810 Off ch=5 n=e6 v=127
88810 On ch=3 n=d6 v=127
88987 Off ch=3 n=d6 v=127
88987 On ch=1 n=c6 v=127
89164 Off ch=1 n=c6 v=127
89164 On ch=12 n=a#5 v=127
89341 Off ch=12 n=a#5 v=127
89341 Off ch=1 n=c5 v=127
89341 On ch=6 n=f5 v=127
89341 On ch=1 n=c6 v=127
89430 Off ch=1 n=c6 v=127
89430 On ch=12 n=a#5 v=127
89519 Off ch=12 n=a#5 v=127
89519 On ch=11 n=a5 v=127
89608 Off ch=11 n=a5 v=127
89608 On ch=12 n=a#5 v=127
89697 Off ch=12 n=a#5 v=127
89697 Off ch=6 n=f5 v=127
89697 On ch=6 n=f4 v=127
89697 On ch=11 n=a5 v=127
90051 On ch=6 n=f3 v=127
90405 Off ch=6 n=f4 v=127
90406 On ch=6 n=f4 v=127
90583 Off ch=6 n=f3 v=127
90760 Off ch=11 n=a5 v=127
90760 On ch=6 n=f5 v=127
90937 Off ch=6 n=f5 v=127
90937 On ch=8 n=g5 v=127
91026 Off ch=8 n=g5 v=127
91026 On ch=11 n=a5 v=127
91115 Off ch=11 n=a5 v=127
91115 Off ch=6 n=f4 v=127
91115 On ch=6 n=f5 v=127
91115 On ch=12 n=a#5 v=127
91292 Off ch=12 n=a#5 v=127
91292 On ch=1 n=c6 v=127
91469 Off ch=1 n=c6 v=127
91469 Off ch=6 n=f5 v=127
91469 On ch=12 n=a#5 v=127
91469 On ch=3 n=d6 v=127
91558 Off ch=3 n=d6 v=127
91558 On ch=1 n=c6 v=127
91647 Off ch=1 n=c6 v=127
91647 On ch=3 n=d6 v=127
91824 Off ch=3 n=d6 v=127
91824 Off ch=12 n=a#5 v=127
91824 On ch=8 n=g5 v=127
91824 On ch=5 n=e6 v=127
91913 Off ch=5 n=e6 v=127
91913 On ch=3 n=d6 v=127
92002 Off ch=3 n=d6 v=127
92002 On ch=5 n=e6 v=127
92179 Off ch=5 n=e6 v=127
92179 Off ch=8 n=g5 v=127
92179 On ch=6 n=f5 v=127
92179 On ch=6 n=f6 v=127
92533 Off ch=6 n=f6 v=127
92533 Off ch=6 n=f5 v=127
92533 On ch=6 n=f4 v=127
92533 On ch=6 n=f5 v=127
92887 Off ch=6 n=f5 v=127
92887 On ch=6 n=f3 v=127
92887 On ch=8 n=g5 v=127
92946 On ch=6 n=f5 v=127
92953 Off ch=8 n=g5 v=127
93005 On ch=8 n=g5 v=127
93012 Off ch=6 n=f5 v=127
93064 On ch=6 n=f5 v=127
93071 Off ch=8 n=g5 v=127
93123 On ch=8 n=g5 v=127
93130 Off ch=6 n=f5 v=127
93182 On ch=6 n=f5 v=127
93189 Off ch=8 n=g5 v=127
93240 Off ch=6 n=f4 v=127
93241 Off ch=6 n=f3 v=127
93241 On ch=6 n=f4 v=127
93241 On ch=8 n=g5 v=127
93248 Off ch=6 n=f5 v=127
93300 On ch=6 n=f5 v=127
93307 Off ch=8 n=g5 v=127
93359 On ch=8 n=g5 v=127
93366 Off ch=6 n=f5 v=127
93418 On ch=6 n=f5 v=127
93425 Off ch=8 n=g5 v=127
93477 On ch=5 n=e5 v=127
93484 Off ch=6 n=f5 v=127
93536 On ch=6 n=f5 v=127
93543 Off ch=5 n=e5 v=127
93772 Off ch=6 n=f5 v=127
93772 On ch=8 n=g5 v=127
93861 Off ch=8 n=g5 v=127
93861 On ch=11 n=a5 v=127
93950 Off ch=11 n=a5 v=127
93950 Off ch=6 n=f4 v=127
93950 On ch=6 n=f5 v=127
93950 On ch=12 n=a#5 v=127
94127 Off ch=12 n=a#5 v=127
94127 On ch=1 n=c6 v=127
94304 Off ch=1 n=c6 v=127
94304 Off ch=6 n=f5 v=127
94304 On ch=12 n=a#5 v=127
94304 On ch=3 n=d6 v=127
94393 Off ch=3 n=d6 v=127
94393 On ch=1 n=c6 v=127
94482 Off ch=1 n=c6 v=127
94482 On ch=3 n=d6 v=127
94659 Off ch=3 n=d6 v=127
94659 Off ch=12 n=a#5 v=127
94659 On ch=8 n=g5 v=127
94659 On ch=5 n=e6 v=127
94748 Off ch=5 n=e6 v=127
94748 On ch=3 n=d6 v=127
94837 Off ch=3 n=d6 v=127
94837 On ch=5 n=e6 v=127
95014 Off ch=5 n=e6 v=127
95014 Off ch=8 n=g5 v=127
95014 On ch=6 n=f5 v=127
95014 On ch=8 n=g6 v=127
95073 On ch=6 n=f6 v=127
95080 Off ch=8 n=g6 v=127
95132 On ch=5 n=e6 v=127
95139 Off ch=6 n=f6 v=127
95191 Off ch=6 n=f5 v=127
95191 On ch=9 n=g#5 v=127
95191 On ch=6 n=f6 v=127
95198 Off ch=5 n=e6 v=127
95250 On ch=8 n=g6 v=127
95257 Off ch=6 n=f6 v=127
95309 On ch=6 n=f6 v=127
95316 Off ch=8 n=g6 v=127
95368 Off ch=9 n=g#5 v=127
95368 On ch=3 n=d5 v=127
95368 On ch=8 n=g6 v=127
95375 Off ch=6 n=f6 v=127
95427 On ch=6 n=f6 v=127
95434 Off ch=8 n=g6 v=127
95486 On ch=8 n=g6 v=127
95493 Off ch=6 n=f6 v=127
95545 Off ch=3 n=d5 v=127
95545 On ch=6 n=f5 v=127
95545 On ch=6 n=f6 v=127
95552 Off ch=8 n=g6 v=127
95604 On ch=8 n=g6 v=127
95611 Off ch=6 n=f6 v=127
95663 On ch=6 n=f6 v=127
95670 Off ch=8 n=g6 v=127
95722 Off ch=6 n=f5 v=127
95722 On ch=13 n=b4 v=127
95722 On ch=8 n=g6 v=127
95729 Off ch=6 n=f6 v=127
95781 On ch=6 n=f6 v=127
95788 Off ch=8 n=g6 v=127
95840 On ch=8 n=g6 v=127
95847 Off ch=6 n=f6 v=127
95899 Off ch=13 n=b4 v=127
95899 On ch=3 n=d5 v=127
95899 On ch=6 n=f6 v=127
95906 Off ch=8 n=g6 v=127
95958 On ch=8 n=g6 v=127
95965 Off ch=6 n=f6 v=127
96017 On ch=6 n=f6 v=127
96024 Off ch=8 n=g6 v=127
96076 Off ch=3 n=d5 v=127
96076 On ch=6 n=f4 v=127
96076 On ch=8 n=g6 v=127
96083 Off ch=6 n=f6 v=127
96135 On ch=6 n=f6 v=127
96142 Off ch=8 n=g6 v=127
96194 On ch=8 n=g6 v=127
96201 Off ch=6 n=f6 v=127
96253 Off ch=6 n=f4 v=127
96253 On ch=9 n=g#4 v=127
96253 On ch=6 n=f6 v=127
96260 Off ch=8 n=g6 v=127
96312 On ch=8 n=g6 v=127
96319 Off ch=6 n=f6 v=127
96371 On ch=6 n=f6 v=127
96378 Off ch=8 n=g6 v=127
96430 Off ch=9 n=g#4 v=127
96430 On ch=3 n=d4 v=127
96430 On ch=8 n=g6 v=127
96437 Off ch=6 n=f6 v=127
96489 On ch=6 n=f6 v=127
96496 Off ch=8 n=g6 v=127
96548 On ch=8 n=g6 v=127
96555 Off ch=6 n=f6 v=127
96607 Off ch=3 n=d4 v=127
96607 On ch=6 n=f4 v=127
96607 On ch=6 n=f6 v=127
96614 Off ch=8 n=g6 v=127
96666 On ch=8 n=g6 v=127
96673 Off ch=6 n=f6 v=127
96725 On ch=6 n=f6 v=127
96732 Off ch=8 n=g6 v=127
96784 Off ch=6 n=f4 v=127
96784 On ch=13 n=b3 v=127
96784 On ch=8 n=g6 v=127
96791 Off ch=6 n=f6 v=127
96843 On ch=6 n=f6 v=127
96850 Off ch=8 n=g6 v=127
96902 On ch=8 n=g6 v=127
96909 Off ch=6 n=f6 v=127
96961 On ch=3 n=d4 v=127
96961 On ch=6 n=f6 v=127
96968 Off ch=8 n=g6 v=127
96986 Off ch=13 n=b3 v=127
97137 Off ch=3 n=d4 v=127
97137 On ch=8 n=g3 v=127
97314 Off ch=6 n=f6 v=127
97314 On ch=6 n=f6 v=127
97491 Off ch=6 n=f6 v=127
97491 Off ch=8 n=g3 v=127
97491 On ch=13 n=b3 v=127
97491 On ch=4 n=d#6 v=127
97668 Off ch=4 n=d#6 v=127
97668 On ch=3 n=d6 v=127
97845 Off ch=3 n=d6 v=127
97845 Off ch=13 n=b3 v=127
97845 On ch=1 n=c4 v=127
97845 On ch=4 n=d#6 v=127
98022 Off ch=4 n=d#6 v=127
98022 On ch=3 n=d6 v=127
98199 Off ch=3 n=d6 v=127
98199 On ch=1 n=c5 v=127
98199 On ch=9 n=g#5 v=127
98375 Off ch=1 n=c4 v=127
98376 Off ch=9 n=g#5 v=127
98376 On ch=8 n=g5 v=127
98553 Off ch=8 n=g5 v=127
98553 Off ch=1 n=c5 v=127
98553 On ch=6 n=f4 v=127
98553 On ch=6 n=f6 v=127
98730 Off ch=6 n=f6 v=127
98730 On ch=4 n=d#6 v=127
98907 Off ch=4 n=d#6 v=127
98907 Off ch=6 n=f4 v=127
98907 On ch=9 n=g#4 v=127
98907 On ch=3 n=d6 v=127
99084 Off ch=3 n=d6 v=127
99084 On ch=1 n=c6 v=127
99261 Off ch=1 n=c6 v=127
99261 Off ch=9 n=g#4 v=127
99261 On ch=8 n=g4 v=127
99261 On ch=13 n=b5 v=127
99438 Off ch=13 n=b5 v=127
99438 On ch=8 n=g5 v=127
99615 Off ch=8 n=g5 v=127
99615 On ch=8 n=g3 v=127
99615 On ch=9 n=g#5 v=127
99792 On ch=8 n=g5 v=127
99836 Off ch=9 n=g#5 v=127
99969 Off ch=8 n=g5 v=127
99969 On ch=1 n=c6 v=127
100146 On ch=13 n=b5 v=127
100190 Off ch=1 n=c6 v=127
100322 Off ch=8 n=g4 v=127
100323 Off ch=13 n=b5 v=127
100323 Off ch=8 n=g3 v=127
100323 On ch=8 n=g4 v=127
100323 On ch=4 n=d#6 v=127
100500 On ch=3 n=d6 v=127
100544 Off ch=4 n=d#6 v=127
100677 Off ch=8 n=g4 v=127
100677 On ch=6 n=f4 v=127
100677 On ch=9 n=g#6 v=127
100725 Off ch=3 n=d6 v=127
100854 Off ch=9 n=g#6 v=127
100854 On ch=8 n=g5 v=127
101031 Off ch=8 n=g5 v=127
101031 On ch=6 n=f3 v=127
101031 On ch=9 n=g#5 v=127
101208 On ch=8 n=g5 v=127
101252 Off ch=9 n=g#5 v=127
101385 Off ch=8 n=g5 v=127
101385 On ch=1 n=c6 v=127
101562 On ch=13 n=b5 v=127
101606 Off ch=1 n=c6 v=127
101737 Off ch=6 n=f4 v=127
101739 Off ch=13 n=b5 v=127
101739 Off ch=6 n=f3 v=127
101739 On ch=6 n=f4 v=127
101739 On ch=4 n=d#6 v=127
101916 On ch=3 n=d6 v=127
101960 Off ch=4 n=d#6 v=127
102093 Off ch=6 n=f4 v=127
102093 On ch=8 n=g4 v=127
102093 On ch=8 n=g6 v=127
102141 Off ch=3 n=d6 v=127
102270 Off ch=8 n=g6 v=127
102270 On ch=8 n=g5 v=127
102447 Off ch=8 n=g5 v=127
102447 On ch=8 n=g3 v=127
102447 On ch=9 n=g#5 v=127
102624 On ch=8 n=g5 v=127
102668 Off ch=9 n=g#5 v=127
102801 Off ch=8 n=g5 v=127
102801 On ch=1 n=c6 v=127
102978 On ch=13 n=b5 v=127
103022 Off ch=1 n=c6 v=127
103153 Off ch=8 n=g4 v=127
103155 Off ch=13 n=b5 v=127
103155 Off ch=8 n=g3 v=127
103155 On ch=8 n=g4 v=127
103155 On ch=4 n=d#6 v=127
103332 On ch=3 n=d6 v=127
103376 Off ch=4 n=d#6 v=127
103509 Off ch=8 n=g4 v=127
103509 On ch=6 n=f4 v=127
103509 On ch=9 n=g#6 v=127
103557 Off ch=3 n=d6 v=127
103686 Off ch=9 n=g#6 v=127
103686 On ch=8 n=g5 v=127
103863 Off ch=8 n=g5 v=127
103863 On ch=6 n=f3 v=127
103863 On ch=9 n=g#5 v=127
104040 On ch=8 n=g5 v=127
104084 Off ch=9 n=g#5 v=127
104217 Off ch=8 n=g5 v=127
104217 On ch=1 n=c6 v=127
104394 On ch=13 n=b5 v=127
104438 Off ch=1 n=c6 v=127
104569 Off ch=6 n=f4 v=127
104571 Off ch=13 n=b5 v=127
104571 Off ch=6 n=f3 v=127
104571 On ch=6 n=f4 v=127
104571 On ch=4 n=d#6 v=127
104748 On ch=3 n=d6 v=127
104792 Off ch=4 n=d#6 v=127
104925 Off ch=6 n=f4 v=127
104925 On ch=8 n=g3 v=127
104925 On ch=8 n=g6 v=127
104973 Off ch=3 n=d6 v=127
105102 Off ch=8 n=g6 v=127
105102 On ch=3 n=d6 v=127
105279 Off ch=3 n=d6 v=127
105279 On ch=8 n=g4 v=127
105279 On ch=13 n=b5 v=127
105455 Off ch=8 n=g3 v=127
105456 Off ch=13 n=b5 v=127
105456 On ch=8 n=g5 v=127
105633 Off ch=8 n=g4 v=127
105633 On ch=11 n=a4 v=127
105692 On ch=6 n=f5 v=127
105699 Off ch=8 n=g5 v=127
105751 On ch=8 n=g5 v=127
105758 Off ch=6 n=f5 v=127
105810 On ch=6 n=f5 v=127
105817 Off ch=8 n=g5 v=127
105869 On ch=8 n=g5 v=127
105876 Off ch=6 n=f5 v=127
105928 On ch=6 n=f5 v=127
105935 Off ch=8 n=g5 v=127
105987 Off ch=11 n=a4 v=127
105987 On ch=13 n=b4 v=127
105987 On ch=8 n=g5 v=127
105994 Off ch=6 n=f5 v=127
106046 On ch=6 n=f5 v=127
106053 Off ch=8 n=g5 v=127
106105 On ch=8 n=g5 v=127
106112 Off ch=6 n=f5 v=127
106164 On ch=6 n=f5 v=127
106171 Off ch=8 n=g5 v=127
106223 On ch=5 n=e5 v=127
106230 Off ch=6 n=f5 v=127
106282 On ch=6 n=f5 v=127
106289 Off ch=5 n=e5 v=127
106334 Off ch=6 n=f5 v=127
106341 Off ch=13 n=b4 v=127
106341 On ch=1 n=c4 v=127
106341 On ch=1 n=c7 v=127
106518 Off ch=1 n=c7 v=127
106518 On ch=8 n=g6 v=127
106695 Off ch=8 n=g6 v=127
106695 On ch=1 n=c5 v=127
106695 On ch=5 n=e6 v=127
106871 Off ch=1 n=c4 v=127
106872 Off ch=5 n=e6 v=127
106872 On ch=1 n=c6 v=127
107049 Off ch=1 n=c5 v=127
107049 On ch=3 n=d5 v=127
107108 On ch=12 n=a#5 v=127
107115 Off ch=1 n=c6 v=127
107167 On ch=1 n=c6 v=127
107174 Off ch=12 n=a#5 v=127
107226 On ch=12 n=a#5 v=127
107233 Off ch=1 n=c6 v=127
107285 On ch=1 n=c6 v=127
107292 Off ch=12 n=a#5 v=127
107344 On ch=12 n=a#5 v=127
107351 Off ch=1 n=c6 v=127
107403 Off ch=3 n=d5 v=127
107403 On ch=5 n=e5 v=127
107403 On ch=1 n=c6 v=127
107410 Off ch=12 n=a#5 v=127
107462 On ch=12 n=a#5 v=127
107469 Off ch=1 n=c6 v=127
107521 On ch=1 n=c6 v=127
107528 Off ch=12 n=a#5 v=127
107580 On ch=12 n=a#5 v=127
107587 Off ch=1 n=c6 v=127
107639 On ch=11 n=a5 v=127
107646 Off ch=12 n=a#5 v=127
107698 On ch=12 n=a#5 v=127
107705 Off ch=11 n=a5 v=127
107757 Off ch=5 n=e5 v=127
107757 On ch=6 n=f3 v=127
107757 On ch=6 n=f6 v=127
107764 Off ch=12 n=a#5 v=127
107934 Off ch=6 n=f6 v=127
107934 On ch=1 n=c6 v=127
108111 Off ch=1 n=c6 v=127
108111 On ch=6 n=f4 v=127
108111 On ch=11 n=a5 v=127
108287 Off ch=6 n=f3 v=127
108288 Off ch=11 n=a5 v=127
108288 On ch=6 n=f5 v=127
108465 Off ch=6 n=f4 v=127
108465 On ch=8 n=g4 v=127
108524 On ch=4 n=d#5 v=127
108531 Off ch=6 n=f5 v=127
108583 On ch=6 n=f5 v=127
108590 Off ch=4 n=d#5 v=127
108642 On ch=4 n=d#5 v=127
108649 Off ch=6 n=f5 v=127
108701 On ch=6 n=f5 v=127
108708 Off ch=4 n=d#5 v=127
108760 On ch=4 n=d#5 v=127
108767 Off ch=6 n=f5 v=127
108819 Off ch=8 n=g4 v=127
108819 On ch=11 n=a4 v=127
108819 On ch=6 n=f5 v=127
108826 Off ch=4 n=d#5 v=127
108878 On ch=4 n=d#5 v=127
108885 Off ch=6 n=f5 v=127
108937 On ch=6 n=f5 v=127
108944 Off ch=4 n=d#5 v=127
108996 On ch=4 n=d#5 v=127
109003 Off ch=6 n=f5 v=127
109055 On ch=3 n=d5 v=127
109062 Off ch=4 n=d#5 v=127
109114 On ch=4 n=d#5 v=127
109121 Off ch=3 n=d5 v=127
109166 Off ch=4 n=d#5 v=127
109173 Off ch=11 n=a4 v=127
109173 On ch=12 n=a#3 v=127
109173 On ch=12 n=a#6 v=127
109350 Off ch=12 n=a#6 v=127
109350 On ch=6 n=f6 v=127
109527 Off ch=6 n=f6 v=127
109527 On ch=12 n=a#4 v=127
109527 On ch=3 n=d6 v=127
109703 Off ch=12 n=a#3 v=127
109704 Off ch=3 n=d6 v=127
109704 On ch=12 n=a#5 v=127
109881 Off ch=12 n=a#4 v=127
109881 On ch=1 n=c5 v=127
109940 On ch=9 n=g#5 v=127
109947 Off ch=12 n=a#5 v=127
109999 On ch=12 n=a#5 v=127
110006 Off ch=9 n=g#5 v=127
110058 On ch=9 n=g#5 v=127
110065 Off ch=12 n=a#5 v=127
110117 On ch=12 n=a#5 v=127
110124 Off ch=9 n=g#5 v=127
110176 On ch=9 n=g#5 v=127
110183 Off ch=12 n=a#5 v=127
110235 Off ch=1 n=c5 v=127
110235 On ch=3 n=d5 v=127
110235 On ch=12 n=a#5 v=127
110242 Off ch=9 n=g#5 v=127
110294 On ch=9 n=g#5 v=127
110301 Off ch=12 n=a#5 v=127
110353 On ch=12 n=a#5 v=127
110360 Off ch=9 n=g#5 v=127
110412 On ch=9 n=g#5 v=127
110419 Off ch=12 n=a#5 v=127
110471 On ch=8 n=g5 v=127
110478 Off ch=9 n=g#5 v=127
110530 On ch=9 n=g#5 v=127
110537 Off ch=8 n=g5 v=127
110589 Off ch=3 n=d5 v=127
110589 On ch=4 n=d#5 v=127
110589 On ch=8 n=g5 v=127
110596 Off ch=9 n=g#5 v=127
110766 Off ch=8 n=g5 v=127
110766 On ch=4 n=d#6 v=127
110943 Off ch=4 n=d#6 v=127
110943 Off ch=4 n=d#5 v=127
110943 On ch=1 n=c5 v=127
110943 On ch=11 n=a5 v=127
111120 Off ch=11 n=a5 v=127
111120 On ch=6 n=f6 v=127
111297 Off ch=6 n=f6 v=127
111297 Off ch=1 n=c5 v=127
111297 On ch=3 n=d5 v=127
111297 On ch=12 n=a#5 v=127
111474 Off ch=12 n=a#5 v=127
111474 On ch=8 n=g6 v=127
111651 Off ch=3 n=d5 v=127
111651 On ch=11 n=a4 v=127
111828 Off ch=8 n=g6 v=127
111828 On ch=6 n=f6 v=127
111917 Off ch=6 n=f6 v=127
111917 On ch=4 n=d#6 v=127
112006 Off ch=4 n=d#6 v=127
112006 Off ch=11 n=a4 v=127
112006 On ch=12 n=a#4 v=127
112006 On ch=3 n=d6 v=127
112183 Off ch=3 n=d6 v=127
112183 On ch=1 n=c6 v=127
112360 Off ch=1 n=c6 v=127
112360 Off ch=12 n=a#4 v=127
112360 On ch=3 n=d5 v=127
112360 On ch=12 n=a#5 v=127
112537 Off ch=12 n=a#5 v=127
112537 On ch=11 n=a5 v=127
112714 Off ch=11 n=a5 v=127
112714 Off ch=3 n=d5 v=127
112714 On ch=4 n=d#5 v=127
112714 On ch=8 n=g5 v=127
112891 Off ch=8 n=g5 v=127
112891 On ch=6 n=f5 v=127
113068 Off ch=6 n=f5 v=127
113068 Off ch=4 n=d#5 v=127
113068 On ch=4 n=d#4 v=127
113068 On ch=4 n=d#5 v=127
113245 Off ch=4 n=d#5 v=127
113245 On ch=3 n=d5 v=127
113422 Off ch=3 n=d5 v=127
113422 Off ch=4 n=d#4 v=127
113422 On ch=6 n=f3 v=127
113422 On ch=1 n=c5 v=127
113599 Off ch=1 n=c5 v=127
113599 On ch=12 n=a#4 v=127
113776 Off ch=12 n=a#4 v=127
113776 On ch=11 n=a4 v=127
113953 Off ch=11 n=a4 v=127
113953 On ch=8 n=g4 v=127
114130 Off ch=8 n=g4 v=127
114130 On ch=6 n=f4 v=127
114307 Off ch=6 n=f3 v=127
114307 On ch=4 n=d#4 v=127
114484 Off ch=4 n=d#4 v=127
114484 On ch=3 n=d4 v=127
114661 Off ch=3 n=d4 v=127
114661 On ch=1 n=c4 v=127
114838 Off ch=1 n=c4 v=127
114838 On ch=12 n=a#3 v=127
115015 Off ch=6 n=f4 v=127
115015 On ch=9 n=g#5 v=127
115192 Off ch=9 n=g#5 v=127
115192 On ch=8 n=g5 v=127
115369 Off ch=8 n=g5 v=127
115369 On ch=6 n=f5 v=127
115546 Off ch=6 n=f5 v=127
115546 On ch=12 n=a#4 v=127
115546 On ch=6 n=f6 v=127
115546 On ch=9 n=g#5 v=127
115723 Off ch=6 n=f6 v=127
115723 On ch=3 n=d6 v=127
115898 Off ch=12 n=a#3 v=127
115900 Off ch=3 n=d6 v=127
115900 Off ch=9 n=g#5 v=127
115900 Off ch=12 n=a#4 v=127
115900 On ch=4 n=d#6 v=127
115900 On ch=8 n=g5 v=127
115900 On ch=12 n=a#4 v=127
116077 Off ch=4 n=d#6 v=127
116077 On ch=1 n=c6 v=127
116254 Off ch=1 n=c6 v=127
116254 Off ch=12 n=a#4 v=127
116254 Off ch=8 n=g5 v=127
116254 On ch=3 n=d6 v=127
116254 On ch=6 n=f5 v=127
116254 On ch=12 n=a#4 v=127
116431 Off ch=3 n=d6 v=127
116431 On ch=6 n=f6 v=127
116608 Off ch=6 n=f6 v=127
116608 On ch=4 n=d#6 v=127
116785 Off ch=4 n=d#6 v=127
116785 On ch=3 n=d6 v=127
116962 Off ch=3 n=d6 v=127
116962 Off ch=12 n=a#4 v=127
116962 Off ch=6 n=f5 v=127
116962 On ch=12 n=a#4 v=127
116962 On ch=9 n=g#6 v=127
116962 On ch=6 n=f5 v=127
117139 Off ch=9 n=g#6 v=127
117139 On ch=12 n=a#5 v=127
117316 Off ch=12 n=a#5 v=127
117316 Off ch=6 n=f5 v=127
117316 Off ch=12 n=a#4 v=127
117316 On ch=8 n=g6 v=127
117316 On ch=4 n=d#5 v=127
117316 On ch=12 n=a#4 v=127
117493 Off ch=8 n=g6 v=127
117493 On ch=12 n=a#5 v=127
117670 Off ch=12 n=a#5 v=127
117670 Off ch=12 n=a#4 v=127
117670 Off ch=4 n=d#5 v=127
117670 On ch=12 n=a#4 v=127
117670 On ch=6 n=f6 v=127
117670 On ch=3 n=d5 v=127
117670 On ch=6 n=f5 v=127
117847 Off ch=6 n=f6 v=127
117847 On ch=9 n=g#6 v=127
118024 Off ch=9 n=g#6 v=127
118024 On ch=8 n=g6 v=127
118201 Off ch=8 n=g6 v=127
118201 On ch=6 n=f6 v=127
118378 Off ch=6 n=f6 v=127
118378 Off ch=6 n=f5 v=127
118378 Off ch=3 n=d5 v=127
118378 Off ch=12 n=a#4 v=127
118378 On ch=12 n=a#4 v=127
118378 On ch=1 n=c7 v=127
118378 On ch=9 n=g#5 v=127
118555 Off ch=1 n=c7 v=127
118555 On ch=3 n=d6 v=127
118732 Off ch=3 n=d6 v=127
118732 Off ch=9 n=g#5 v=127
118732 Off ch=12 n=a#4 v=127
118732 On ch=12 n=a#4 v=127
118732 On ch=12 n=a#6 v=127
118732 On ch=8 n=g5 v=127
118909 Off ch=12 n=a#6 v=127
118909 On ch=4 n=d#6 v=127
119086 Off ch=4 n=d#6 v=127
119086 Off ch=8 n=g5 v=127
119086 Off ch=12 n=a#4 v=127
119086 On ch=12 n=a#4 v=127
119086 On ch=9 n=g#6 v=127
119086 On ch=6 n=f5 v=127
119263 Off ch=9 n=g#6 v=127
119263 On ch=6 n=f6 v=127
119440 Off ch=6 n=f6 v=127
119440 Off ch=6 n=f5 v=127
119440 Off ch=12 n=a#4 v=127
119440 On ch=12 n=a#4 v=127
119440 On ch=8 n=g6 v=127
119440 On ch=4 n=d#5 v=127
119617 Off ch=8 n=g6 v=127
119617 On ch=4 n=d#6 v=127
119794 Off ch=4 n=d#6 v=127
119794 Off ch=4 n=d#5 v=127
119794 Off ch=12 n=a#4 v=127
119794 On ch=3 n=d5 v=127
119794 On ch=6 n=f6 v=127
119971 Off ch=6 n=f6 v=127
119971 On ch=3 n=d6 v=127
120148 Off ch=3 n=d6 v=127
120148 Off ch=3 n=d5 v=127
120148 On ch=1 n=c5 v=127
120148 On ch=4 n=d#6 v=127
120325 Off ch=4 n=d#6 v=127
120325 On ch=1 n=c6 v=127
120502 Off ch=1 n=c6 v=127
120502 Off ch=1 n=c5 v=127
120502 On ch=12 n=a#4 v=127
120502 On ch=3 n=d6 v=127
120679 Off ch=3 n=d6 v=127
120679 On ch=12 n=a#5 v=127
120856 Off ch=12 n=a#5 v=127
120856 Off ch=12 n=a#4 v=127
120856 On ch=9 n=g#4 v=127
120856 On ch=1 n=c6 v=127
121033 Off ch=1 n=c6 v=127
121033 On ch=9 n=g#5 v=127
121210 Off ch=9 n=g#5 v=127
121210 Off ch=9 n=g#4 v=127
121210 On ch=8 n=g4 v=127
121210 On ch=12 n=a#5 v=127
121387 Off ch=12 n=a#5 v=127
121387 On ch=8 n=g5 v=127
121564 Off ch=8 n=g5 v=127
121564 Off ch=8 n=g4 v=127
121564 On ch=6 n=f4 v=127
121564 On ch=9 n=g#5 v=127
121741 Off ch=9 n=g#5 v=127
121741 On ch=6 n=f5 v=127
121918 Off ch=6 n=f5 v=127
121918 Off ch=6 n=f4 v=127
121918 On ch=4 n=d#4 v=127
121918 On ch=8 n=g5 v=127
122095 Off ch=8 n=g5 v=127
122095 On ch=4 n=d#6 v=127
122272 Off ch=4 n=d#6 v=127
122272 Off ch=4 n=d#4 v=127
122272 On ch=1 n=c5 v=127
122272 On ch=11 n=a5 v=127
122449 Off ch=11 n=a5 v=127
122449 On ch=6 n=f6 v=127
122626 Off ch=6 n=f6 v=127
122626 Off ch=1 n=c5 v=127
122626 On ch=3 n=d5 v=127
122626 On ch=12 n=a#5 v=127
122803 Off ch=12 n=a#5 v=127
122803 On ch=8 n=g6 v=127
122980 Off ch=3 n=d5 v=127
122980 On ch=11 n=a4 v=127
123157 Off ch=8 n=g6 v=127
123157 On ch=6 n=f6 v=127
123246 Off ch=6 n=f6 v=127
123246 On ch=4 n=d#6 v=127
123335 Off ch=4 n=d#6 v=127
123335 Off ch=11 n=a4 v=127
123335 On ch=12 n=a#4 v=127
123335 On ch=3 n=d6 v=127
123512 Off ch=3 n=d6 v=127
123512 On ch=6 n=f6 v=127
123689 Off ch=6 n=f6 v=127
123689 Off ch=12 n=a#4 v=127
123689 On ch=4 n=d#4 v=127
123689 On ch=8 n=g6 v=127
123866 Off ch=8 n=g6 v=127
123866 On ch=12 n=a#5 v=127
124043 Off ch=12 n=a#5 v=127
124043 Off ch=4 n=d#4 v=127
124043 On ch=6 n=f4 v=127
124043 On ch=3 n=d6 v=127
124397 On ch=6 n=f3 v=127
124486 Off ch=3 n=d6 v=127
124486 On ch=1 n=c6 v=127
124575 Off ch=1 n=c6 v=127
124575 On ch=12 n=a#5 v=127
124664 Off ch=12 n=a#5 v=127
124664 On ch=1 n=c6 v=127
124752 Off ch=6 n=f4 v=127
124753 Off ch=1 n=c6 v=127
124753 Off ch=6 n=f3 v=127
124753 On ch=8 n=g3 v=127
124753 On ch=12 n=a#5 v=127
124930 Off ch=12 n=a#5 v=127
124930 On ch=12 n=a#5 v=127
125107 Off ch=12 n=a#5 v=127
125107 On ch=8 n=g4 v=127
125107 On ch=5 n=e5 v=127
125283 Off ch=8 n=g3 v=127
125284 Off ch=5 n=e5 v=127
125284 On ch=6 n=f5 v=127
125461 Off ch=6 n=f5 v=127
125461 Off ch=8 n=g4 v=127
125461 On ch=11 n=a4 v=127
125461 On ch=4 n=d#5 v=127
125638 Off ch=4 n=d#5 v=127
125638 On ch=1 n=c6 v=127
125815 Off ch=11 n=a4 v=127
125815 On ch=6 n=f4 v=127
125992 Off ch=1 n=c6 v=127
125992 On ch=4 n=d#5 v=127
126169 Off ch=4 n=d#5 v=127
126169 Off ch=6 n=f4 v=127
126169 On ch=12 n=a#4 v=127
126169 On ch=3 n=d5 v=127
126346 Off ch=3 n=d5 v=127
126346 On ch=6 n=f5 v=127
126523 Off ch=6 n=f5 v=127
126523 Off ch=12 n=a#4 v=127
126523 On ch=4 n=d#4 v=127
126523 On ch=8 n=g5 v=127
126700 Off ch=8 n=g5 v=127
126700 On ch=12 n=a#4 v=127
126877 Off ch=12 n=a#4 v=127
126877 Off ch=4 n=d#4 v=127
126877 On ch=6 n=f4 v=127
126877 On ch=3 n=d5 v=127
127231 On ch=6 n=f3 v=127
127320 Off ch=3 n=d5 v=127
127320 On ch=1 n=c5 v=127
127409 Off ch=1 n=c5 v=127
127409 On ch=12 n=a#4 v=127
127498 Off ch=12 n=a#4 v=127
127498 On ch=1 n=c5 v=127
127586 Off ch=6 n=f4 v=127
127587 Off ch=1 n=c5 v=127
127587 Off ch=6 n=f3 v=127
127587 On ch=12 n=a#3 v=127
127587 On ch=12 n=a#4 v=127
127941 Off ch=12 n=a#4 v=127
127941 On ch=12 n=a#6 v=127
128295 Off ch=12 n=a#6 v=127
128295 On ch=9 n=g#6 v=127
128384 Off ch=9 n=g#6 v=127
128384 On ch=7 n=f#6 v=127
128473 Off ch=7 n=f#6 v=127
128473 On ch=6 n=f6 v=127
128650 Off ch=6 n=f6 v=127
128650 Off ch=12 n=a#3 v=127
128650 On ch=12 n=a#5 v=127
128650 On ch=7 n=f#6 v=127
128650 On ch=4 n=d#6 v=127
129004 Off ch=7 n=f#6 v=127
129004 Off ch=12 n=a#5 v=127
129004 On ch=11 n=a5 v=127
129004 On ch=6 n=f6 v=127
129181 Off ch=4 n=d#6 v=127
129181 On ch=1 n=c6 v=127
129358 Off ch=1 n=c6 v=127
129358 Off ch=6 n=f6 v=127
129358 Off ch=11 n=a5 v=127
129358 On ch=12 n=a#5 v=127
129358 On ch=2 n=c#6 v=127
129535 Off ch=2 n=c#6 v=127
129535 On ch=6 n=f6 v=127
129712 Off ch=6 n=f6 v=127
129712 Off ch=12 n=a#5 v=127
129712 On ch=4 n=d#5 v=127
129712 On ch=1 n=c6 v=127
130066 Off ch=1 n=c6 v=127
130066 Off ch=4 n=d#5 v=127
130066 On ch=7 n=f#5 v=127
130066 On ch=12 n=a#5 v=127
130420 Off ch=12 n=a#5 v=127
130420 Off ch=7 n=f#5 v=127
130420 On ch=6 n=f5 v=127
130420 On ch=11 n=a5 v=127
130774 Off ch=11 n=a5 v=127
130774 Off ch=6 n=f5 v=127
130774 On ch=12 n=a#4 v=127
130774 On ch=12 n=a#6 v=127
131128 Off ch=12 n=a#6 v=127
131128 On ch=9 n=g#6 v=127
131217 Off ch=9 n=g#6 v=127
131217 On ch=7 n=f#6 v=127
131306 Off ch=7 n=f#6 v=127
131306 On ch=6 n=f6 v=127
131483 Off ch=6 n=f6 v=127
131483 On ch=12 n=a#5 v=127
131483 On ch=7 n=f#6 v=127
131483 On ch=4 n=d#6 v=127
131660 Off ch=12 n=a#4 v=127
131837 Off ch=7 n=f#6 v=127
131837 Off ch=12 n=a#5 v=127
131837 On ch=11 n=a5 v=127
131837 On ch=6 n=f6 v=127
132014 Off ch=4 n=d#6 v=127
132014 On ch=1 n=c6 v=127
132191 Off ch=1 n=c6 v=127
132191 Off ch=6 n=f6 v=127
132191 Off ch=11 n=a5 v=127
132191 On ch=12 n=a#5 v=127
132191 On ch=2 n=c#6 v=127
132368 Off ch=2 n=c#6 v=127
132368 On ch=6 n=f6 v=127
132545 Off ch=6 n=f6 v=127
132545 Off ch=12 n=a#5 v=127
132545 On ch=4 n=d#5 v=127
132545 On ch=1 n=c6 v=127
132899 Off ch=4 n=d#5 v=127
132899 On ch=7 n=f#5 v=127
132988 Off ch=1 n=c6 v=127
132988 On ch=12 n=a#5 v=127
133077 Off ch=12 n=a#5 v=127
133077 On ch=11 n=a5 v=127
133166 Off ch=11 n=a5 v=127
133166 On ch=12 n=a#5 v=127
133255 Off ch=12 n=a#5 v=127
133255 Off ch=7 n=f#5 v=127
133255 On ch=6 n=f4 v=127
133255 On ch=11 n=a5 v=127
133609 Off ch=11 n=a5 v=127
133609 On ch=6 n=f5 v=127
133609 On ch=6 n=f6 v=127
133785 Off ch=6 n=f4 v=127
133963 Off ch=6 n=f6 v=127
133963 On ch=4 n=d#6 v=127
134052 On ch=2 n=c#6 v=127
134096 Off ch=4 n=d#6 v=127
134140 Off ch=2 n=c#6 v=127
134140 On ch=1 n=c6 v=127
134317 Off ch=1 n=c6 v=127
134317 Off ch=6 n=f5 v=127
134317 On ch=6 n=f5 v=127
134317 On ch=2 n=c#6 v=127
134671 Off ch=2 n=c#6 v=127
134671 Off ch=6 n=f5 v=127
134671 On ch=4 n=d#5 v=127
134671 On ch=1 n=c6 v=127
134760 On ch=2 n=c#5 v=127
134804 Off ch=4 n=d#5 v=127
134848 Off ch=2 n=c#5 v=127
134848 On ch=1 n=c5 v=127
135025 Off ch=1 n=c5 v=127
135025 On ch=2 n=c#5 v=127
135025 On ch=12 n=a#5 v=127
135069 Off ch=1 n=c6 v=127
135379 Off ch=12 n=a#5 v=127
135379 Off ch=2 n=c#5 v=127
135379 On ch=1 n=c5 v=127
135379 On ch=9 n=g#5 v=127
135468 On ch=7 n=f#5 v=127
135512 Off ch=9 n=g#5 v=127
135556 Off ch=7 n=f#5 v=127
135556 On ch=6 n=f5 v=127
135733 Off ch=6 n=f5 v=127
135733 Off ch=1 n=c5 v=127
135733 On ch=12 n=a#4 v=127
135733 On ch=9 n=g#5 v=127
135822 Off ch=9 n=g#5 v=127
135822 On ch=7 n=f#5 v=127
135911 Off ch=7 n=f#5 v=127
135911 On ch=6 n=f5 v=127
136000 Off ch=6 n=f5 v=127
136000 On ch=7 n=f#5 v=127
136089 Off ch=7 n=f#5 v=127
136089 Off ch=12 n=a#4 v=127
136089 On ch=11 n=a4 v=127
136089 On ch=6 n=f5 v=127
136266 Off ch=6 n=f5 v=127
136266 On ch=6 n=f5 v=127
136443 Off ch=6 n=f5 v=127
136443 Off ch=11 n=a4 v=127
136443 On ch=6 n=f3 v=127
136443 On ch=7 n=f#5 v=127
136620 On ch=6 n=f5 v=127
136664 Off ch=7 n=f#5 v=127
136797 Off ch=6 n=f5 v=127
136797 On ch=12 n=a#5 v=127
136974 On ch=11 n=a5 v=127
137018 Off ch=12 n=a#5 v=127
137151 Off ch=11 n=a5 v=127
137151 Off ch=6 n=f3 v=127
137151 On ch=6 n=f4 v=127
137151 On ch=2 n=c#6 v=127
137328 On ch=1 n=c6 v=127
137372 Off ch=2 n=c#6 v=127
137505 Off ch=6 n=f4 v=127
137505 On ch=4 n=d#4 v=127
137505 On ch=7 n=f#6 v=127
137549 Off ch=1 n=c6 v=127
137682 Off ch=7 n=f#6 v=127
137682 On ch=6 n=f5 v=127
137859 Off ch=6 n=f5 v=127
137859 On ch=4 n=d#3 v=127
137859 On ch=7 n=f#5 v=127
138036 On ch=6 n=f5 v=127
138080 Off ch=7 n=f#5 v=127
138212 Off ch=4 n=d#4 v=127
138213 Off ch=6 n=f5 v=127
138213 On ch=12 n=a#5 v=127
138390 On ch=11 n=a5 v=127
138434 Off ch=12 n=a#5 v=127
138567 Off ch=11 n=a5 v=127
138567 Off ch=4 n=d#3 v=127
138567 On ch=4 n=d#4 v=127
138567 On ch=2 n=c#6 v=127
138744 On ch=1 n=c6 v=127
138788 Off ch=2 n=c#6 v=127
138921 Off ch=4 n=d#4 v=127
138921 On ch=6 n=f4 v=127
138921 On ch=6 n=f6 v=127
138965 Off ch=1 n=c6 v=127
139098 Off ch=6 n=f6 v=127
139098 On ch=6 n=f5 v=127
139275 Off ch=6 n=f5 v=127
139275 On ch=6 n=f3 v=127
139275 On ch=7 n=f#5 v=127
139452 On ch=6 n=f5 v=127
139496 Off ch=7 n=f#5 v=127
139628 Off ch=6 n=f4 v=127
139629 Off ch=6 n=f5 v=127
139629 On ch=12 n=a#5 v=127
139806 On ch=11 n=a5 v=127
139850 Off ch=12 n=a#5 v=127
139983 Off ch=11 n=a5 v=127
139983 Off ch=6 n=f3 v=127
139983 On ch=6 n=f4 v=127
139983 On ch=2 n=c#6 v=127
140160 On ch=1 n=c6 v=127
140204 Off ch=2 n=c#6 v=127
140337 Off ch=6 n=f4 v=127
140337 On ch=4 n=d#4 v=127
140337 On ch=7 n=f#6 v=127
140381 Off ch=1 n=c6 v=127
140514 Off ch=7 n=f#6 v=127
140514 On ch=6 n=f5 v=127
140691 Off ch=6 n=f5 v=127
140691 On ch=4 n=d#3 v=127
140691 On ch=7 n=f#5 v=127
140868 On ch=6 n=f5 v=127
140912 Off ch=7 n=f#5 v=127
141044 Off ch=4 n=d#4 v=127
141045 Off ch=6 n=f5 v=127
141045 On ch=12 n=a#5 v=127
141222 On ch=11 n=a5 v=127
141266 Off ch=12 n=a#5 v=127
141399 Off ch=11 n=a5 v=127
141399 Off ch=4 n=d#3 v=127
141399 On ch=4 n=d#4 v=127
141399 On ch=2 n=c#6 v=127
141576 On ch=1 n=c6 v=127
141620 Off ch=2 n=c#6 v=127
141753 Off ch=4 n=d#4 v=127
141753 On ch=6 n=f3 v=127
141753 On ch=6 n=f6 v=127
141797 Off ch=1 n=c6 v=127
141930 Off ch=6 n=f6 v=127
141930 On ch=1 n=c6 v=127
142107 Off ch=1 n=c6 v=127
142107 On ch=6 n=f4 v=127
142107 On ch=11 n=a5 v=127
142283 Off ch=6 n=f3 v=127
142284 Off ch=11 n=a5 v=127
142284 On ch=6 n=f5 v=127
142461 Off ch=6 n=f4 v=127
142461 On ch=8 n=g4 v=127
142520 On ch=4 n=d#5 v=127
142527 Off ch=6 n=f5 v=127
142579 On ch=6 n=f5 v=127
142586 Off ch=4 n=d#5 v=127
142638 On ch=4 n=d#5 v=127
142645 Off ch=6 n=f5 v=127
142697 On ch=6 n=f5 v=127
142704 Off ch=4 n=d#5 v=127
142756 On ch=4 n=d#5 v=127
142763 Off ch=6 n=f5 v=127
142815 Off ch=8 n=g4 v=127
142815 On ch=11 n=a4 v=127
142815 On ch=6 n=f5 v=127
142822 Off ch=4 n=d#5 v=127
142874 On ch=4 n=d#5 v=127
142881 Off ch=6 n=f5 v=127
142933 On ch=6 n=f5 v=127
142940 Off ch=4 n=d#5 v=127
142992 On ch=4 n=d#5 v=127
142999 Off ch=6 n=f5 v=127
143051 On ch=3 n=d5 v=127
143058 Off ch=4 n=d#5 v=127
143110 On ch=4 n=d#5 v=127
143117 Off ch=3 n=d5 v=127
143169 Off ch=11 n=a4 v=127
143169 On ch=12 n=a#4 v=127
143169 On ch=6 n=f6 v=127
143176 Off ch=4 n=d#5 v=127
143346 Off ch=6 n=f6 v=127
143346 On ch=3 n=d6 v=127
143523 Off ch=3 n=d6 v=127
143523 Off ch=12 n=a#4 v=127
143523 On ch=3 n=d5 v=127
143523 On ch=12 n=a#5 v=127
143700 Off ch=12 n=a#5 v=127
143700 On ch=6 n=f5 v=127
143877 Off ch=3 n=d5 v=127
143877 On ch=1 n=c5 v=127
143936 On ch=4 n=d#5 v=127
143943 Off ch=6 n=f5 v=127
143995 On ch=6 n=f5 v=127
144002 Off ch=4 n=d#5 v=127
144054 On ch=4 n=d#5 v=127
144061 Off ch=6 n=f5 v=127
144113 On ch=6 n=f5 v=127
144120 Off ch=4 n=d#5 v=127
144172 On ch=4 n=d#5 v=127
144179 Off ch=6 n=f5 v=127
144231 Off ch=1 n=c5 v=127
144231 On ch=6 n=f4 v=127
144231 On ch=6 n=f5 v=127
144238 Off ch=4 n=d#5 v=127
144290 On ch=4 n=d#5 v=127
144297 Off ch=6 n=f5 v=127
144349 On ch=6 n=f5 v=127
144356 Off ch=4 n=d#5 v=127
144408 On ch=4 n=d#5 v=127
144415 Off ch=6 n=f5 v=127
144467 On ch=3 n=d5 v=127
144474 Off ch=4 n=d#5 v=127
144526 On ch=4 n=d#5 v=127
144533 Off ch=3 n=d5 v=127
144585 Off ch=6 n=f4 v=127
144585 On ch=12 n=a#4 v=127
144585 On ch=3 n=d5 v=127
144592 Off ch=4 n=d#5 v=127
144762 Off ch=3 n=d5 v=127
144762 On ch=12 n=a#5 v=127
144939 Off ch=12 n=a#5 v=127
144939 Off ch=12 n=a#4 v=127
144939 On ch=4 n=d#4 v=127
144939 On ch=8 n=g5 v=127
145116 Off ch=8 n=g5 v=127
145116 On ch=4 n=d#6 v=127
145293 Off ch=4 n=d#6 v=127
145293 Off ch=4 n=d#4 v=127
145293 On ch=6 n=f4 v=127
145293 On ch=12 n=a#5 v=127
145352 On ch=11 n=a5 v=127
145359 Off ch=12 n=a#5 v=127
145411 On ch=12 n=a#5 v=127
145418 Off ch=11 n=a5 v=127
145470 On ch=11 n=a5 v=127
145477 Off ch=12 n=a#5 v=127
145529 On ch=12 n=a#5 v=127
145536 Off ch=11 n=a5 v=127
145588 On ch=11 n=a5 v=127
145595 Off ch=12 n=a#5 v=127
145647 On ch=6 n=f3 v=127
145647 On ch=12 n=a#5 v=127
145654 Off ch=11 n=a5 v=127
145706 On ch=11 n=a5 v=127
145713 Off ch=12 n=a#5 v=127
145912 Off ch=11 n=a5 v=127
145912 On ch=12 n=a#5 v=127
146000 Off ch=6 n=f4 v=127
146001 Off ch=12 n=a#5 v=127
146001 Off ch=6 n=f3 v=127
146001 On ch=8 n=g3 v=127
146001 On ch=12 n=a#5 v=127
146178 Off ch=12 n=a#5 v=127
146178 On ch=6 n=f6 v=127
146355 Off ch=6 n=f6 v=127
146355 On ch=8 n=g4 v=127
146355 On ch=5 n=e6 v=127
146531 Off ch=8 n=g3 v=127
146532 Off ch=5 n=e6 v=127
146532 On ch=6 n=f6 v=127
146709 Off ch=6 n=f6 v=127
146709 Off ch=8 n=g4 v=127
146709 On ch=11 n=a4 v=127
146709 On ch=4 n=d#6 v=127
146886 Off ch=4 n=d#6 v=127
146886 On ch=1 n=c7 v=127
147063 Off ch=11 n=a4 v=127
147063 On ch=6 n=f4 v=127
147240 Off ch=1 n=c7 v=127
147240 On ch=4 n=d#6 v=127
147417 Off ch=4 n=d#6 v=127
147417 Off ch=6 n=f4 v=127
147417 On ch=12 n=a#4 v=127
147417 On ch=3 n=d6 v=127
147594 Off ch=3 n=d6 v=127
147594 On ch=6 n=f6 v=127
147771 Off ch=6 n=f6 v=127
147771 Off ch=12 n=a#4 v=127
147771 On ch=4 n=d#4 v=127
147771 On ch=8 n=g6 v=127
147948 Off ch=8 n=g6 v=127
147948 On ch=12 n=a#5 v=127
148125 Off ch=12 n=a#5 v=127
148125 Off ch=4 n=d#4 v=127
148125 On ch=6 n=f4 v=127
148125 On ch=3 n=d6 v=127
148479 On ch=6 n=f3 v=127
148538 On ch=1 n=c6 v=127
148545 Off ch=3 n=d6 v=127
148597 On ch=3 n=d6 v=127
148604 Off ch=1 n=c6 v=127
148656 On ch=1 n=c6 v=127
148663 Off ch=3 n=d6 v=127
148715 On ch=3 n=d6 v=127
148722 Off ch=1 n=c6 v=127
148774 On ch=1 n=c6 v=127
148781 Off ch=3 n=d6 v=127
148832 Off ch=6 n=f4 v=127
148833 Off ch=6 n=f3 v=127
148833 On ch=8 n=g3 v=127
148833 On ch=3 n=d6 v=127
148840 Off ch=1 n=c6 v=127
148921 Off ch=3 n=d6 v=127
148921 On ch=1 n=c6 v=127
149010 Off ch=1 n=c6 v=127
149010 On ch=12 n=a#5 v=127
149187 Off ch=12 n=a#5 v=127
149187 On ch=8 n=g4 v=127
149187 On ch=5 n=e5 v=127
149363 Off ch=8 n=g3 v=127
149364 Off ch=5 n=e5 v=127
149364 On ch=6 n=f5 v=127
149541 Off ch=6 n=f5 v=127
149541 Off ch=8 n=g4 v=127
149541 On ch=11 n=a4 v=127
149541 On ch=4 n=d#5 v=127
149718 Off ch=4 n=d#5 v=127
149718 On ch=1 n=c6 v=127
149895 Off ch=11 n=a4 v=127
149895 On ch=6 n=f4 v=127
150072 Off ch=1 n=c6 v=127
150072 On ch=4 n=d#5 v=127
150249 Off ch=4 n=d#5 v=127
150249 Off ch=6 n=f4 v=127
150249 On ch=12 n=a#4 v=127
150249 On ch=3 n=d5 v=127
150426 Off ch=3 n=d5 v=127
150426 On ch=6 n=f5 v=127
150603 Off ch=6 n=f5 v=127
150603 Off ch=12 n=a#4 v=127
150603 On ch=4 n=d#4 v=127
150603 On ch=8 n=g5 v=127
150780 Off ch=8 n=g5 v=127
150780 On ch=12 n=a#4 v=127
150957 Off ch=12 n=a#4 v=127
150957 Off ch=4 n=d#4 v=127
150957 On ch=6 n=f4 v=127
150957 On ch=3 n=d5 v=127
151311 On ch=6 n=f3 v=127
151400 Off ch=3 n=d5 v=127
151400 On ch=1 n=c5 v=127
151489 Off ch=1 n=c5 v=127
151489 On ch=12 n=a#4 v=127
151578 Off ch=12 n=a#4 v=127
151578 On ch=1 n=c5 v=127
151666 Off ch=6 n=f4 v=127
151667 Off ch=1 n=c5 v=127
151667 Off ch=6 n=f3 v=127
151667 On ch=12 n=a#3 v=127
151844 On ch=6 n=f4 v=127
152021 Off ch=6 n=f4 v=127
152021 On ch=3 n=d4 v=127
152198 Off ch=3 n=d4 v=127
152198 On ch=12 n=a#4 v=127
152375 Off ch=12 n=a#4 v=127
152375 On ch=6 n=f4 v=127
152552 Off ch=6 n=f4 v=127
152552 On ch=3 n=d5 v=127
152729 Off ch=3 n=d5 v=127
152729 On ch=12 n=a#4 v=127
152906 Off ch=12 n=a#4 v=127
152906 On ch=6 n=f5 v=127
153083 Off ch=6 n=f5 v=127
153083 Off ch=12 n=a#3 v=127
153083 On ch=12 n=a#3 v=127
153083 On ch=3 n=d5 v=127
153260 Off ch=3 n=d5 v=127
153260 On ch=12 n=a#5 v=127
153437 Off ch=12 n=a#5 v=127
153437 On ch=6 n=f5 v=127
153614 Off ch=6 n=f5 v=127
153614 On ch=3 n=d6 v=127
153791 Off ch=3 n=d6 v=127
153791 On ch=12 n=a#5 v=127
153968 Off ch=12 n=a#5 v=127
153968 On ch=6 n=f6 v=127
154145 Off ch=6 n=f6 v=127
154145 On ch=3 n=d6 v=127
154322 Off ch=3 n=d6 v=127
154322 On ch=12 n=a#6 v=127
154499 Off ch=12 n=a#6 v=127
154499 Off ch=12 n=a#3 v=127
154499 On ch=12 n=a#3 v=127
154499 On ch=6 n=f6 v=127
154676 Off ch=6 n=f6 v=127
154676 On ch=4 n=d#6 v=127
154853 Off ch=4 n=d#6 v=127
154853 On ch=3 n=d6 v=127
155030 Off ch=3 n=d6 v=127
155030 On ch=1 n=c6 v=127
155207 Off ch=1 n=c6 v=127
155207 On ch=12 n=a#5 v=127
155384 Off ch=12 n=a#5 v=127
155384 On ch=11 n=a5 v=127
155561 Off ch=11 n=a5 v=127
155561 Off ch=12 n=a#3 v=127
155561 On ch=3 n=d4 v=127
155561 On ch=8 n=g5 v=127
155738 Off ch=8 n=g5 v=127
155738 On ch=6 n=f5 v=127
155915 Off ch=6 n=f5 v=127
155915 Off ch=3 n=d4 v=127
155915 On ch=4 n=d#4 v=127
155915 On ch=4 n=d#5 v=127
156092 Off ch=4 n=d#5 v=127
156092 On ch=3 n=d5 v=127
156181 Off ch=3 n=d5 v=127
156181 On ch=1 n=c5 v=127
156270 Off ch=1 n=c5 v=127
156270 Off ch=4 n=d#4 v=127
156270 On ch=12 n=a#3 v=127
156270 On ch=12 n=a#4 v=127
156359 Off ch=12 n=a#4 v=127
156359 On ch=11 n=a4 v=127
156448 Off ch=11 n=a4 v=127
156448 On ch=8 n=g4 v=127
156537 Off ch=8 n=g4 v=127
156537 On ch=6 n=f4 v=127
156626 Off ch=6 n=f4 v=127
156626 Off ch=12 n=a#3 v=127
156626 On ch=6 n=f4 v=127
156626 On ch=3 n=d5 v=127
156685 On ch=1 n=c5 v=127
156692 Off ch=3 n=d5 v=127
156744 On ch=3 n=d5 v=127
156751 Off ch=1 n=c5 v=127
156803 On ch=1 n=c5 v=127
156810 Off ch=3 n=d5 v=127
156862 On ch=3 n=d5 v=127
156869 Off ch=1 n=c5 v=127
156921 On ch=1 n=c5 v=127
156928 Off ch=3 n=d5 v=127
156980 On ch=6 n=f3 v=127
156980 On ch=3 n=d5 v=127
156987 Off ch=1 n=c5 v=127
157039 On ch=1 n=c5 v=127
157046 Off ch=3 n=d5 v=127
157098 On ch=3 n=d5 v=127
157105 Off ch=1 n=c5 v=127
157157 On ch=1 n=c5 v=127
157164 Off ch=3 n=d5 v=127
157216 On ch=12 n=a#4 v=127
157223 Off ch=1 n=c5 v=127
157275 On ch=1 n=c5 v=127
157282 Off ch=12 n=a#4 v=127
157333 Off ch=6 n=f4 v=127
157334 Off ch=6 n=f3 v=127
157341 Off ch=1 n=c5 v=127
157343 On ch=12 n=a#3 v=127
157343 On ch=12 n=a#4 v=127
159097 Off ch=12 n=a#4 v=127
159097 Off ch=12 n=a#3 v=127
164352 Meta TrkEnd
TrkEnd
