MFile 0 1 384
MTrk
0 Meta Copyright "(C) John Sankey 1998"
0 PrCh ch=1 p=6
0 Pb ch=1 v=8192
0 PrCh ch=2 p=6
0 Pb ch=2 v=7602
0 PrCh ch=3 p=6
0 Pb ch=3 v=7920
0 PrCh ch=4 p=6
0 Pb ch=4 v=7839
0 PrCh ch=5 p=6
0 Pb ch=5 v=7632
0 PrCh ch=6 p=6
0 Pb ch=6 v=8112
0 PrCh ch=7 p=6
0 Pb ch=7 v=7567
0 PrCh ch=8 p=6
0 Pb ch=8 v=8062
0 PrCh ch=9 p=6
0 Pb ch=9 v=7680
0 PrCh ch=11 p=6
0 Pb ch=11 v=7728
0 PrCh ch=12 p=6
0 Pb ch=12 v=7984
0 PrCh ch=13 p=6
0 Pb ch=13 v=7639
0 Tempo 500000
115 On ch=6 n=f5 v=127
115 On ch=6 n=f6 v=127
342 Off ch=6 n=f6 v=127
342 Off ch=6 n=f5 v=127
346 On ch=1 n=c5 v=127
346 On ch=1 n=c6 v=127
573 Off ch=1 n=c6 v=127
573 Off ch=1 n=c5 v=127
577 On ch=6 n=f4 v=127
577 On ch=6 n=f5 v=127
804 Off ch=6 n=f5 v=127
804 Off ch=6 n=f4 v=127
808 On ch=1 n=c5 v=127
808 On ch=1 n=c6 v=127
1035 Off ch=1 n=c6 v=127
1035 Off ch=1 n=c5 v=127
1039 On ch=8 n=g4 v=127
1039 On ch=8 n=g5 v=127
1266 Off ch=8 n=g5 v=127
1266 Off ch=8 n=g4 v=127
1270 On ch=1 n=c4 v=127
1270 On ch=1 n=c5 v=127
1497 Off ch=1 n=c5 v=127
1497 Off ch=1 n=c4 v=127
1501 On ch=6 n=f4 v=127
1501 On ch=6 n=f5 v=127
1728 Off ch=6 n=f5 v=127
1728 Off ch=6 n=f4 v=127
1732 On ch=1 n=c4 v=127
1732 On ch=1 n=c5 v=127
1959 Off ch=1 n=c5 v=127
1959 Off ch=1 n=c4 v=127
1963 On ch=6 n=f3 v=127
1963 On ch=6 n=f4 v=127
2190 Off ch=6 n=f4 v=127
2190 Off ch=6 n=f3 v=127
2194 On ch=6 n=f5 v=127
2306 Off ch=6 n=f5 v=127
2310 On ch=6 n=f5 v=127
2422 Off ch=6 n=f5 v=127
2426 On ch=11 n=a5 v=127
2538 Off ch=11 n=a5 v=127
2542 On ch=11 n=a5 v=127
2654 Off ch=11 n=a5 v=127
2658 On ch=1 n=c6 v=127
2770 Off ch=1 n=c6 v=127
2774 On ch=1 n=c6 v=127
2886 Off ch=1 n=c6 v=127
2890 On ch=6 n=f6 v=127
3117 Off ch=6 n=f6 v=127
3121 On ch=5 n=e6 v=127
3233 Off ch=5 n=e6 v=127
3237 On ch=3 n=d6 v=127
3349 Off ch=3 n=d6 v=127
3353 On ch=1 n=c6 v=127
3465 Off ch=1 n=c6 v=127
3469 On ch=12 n=a#5 v=127
3581 Off ch=12 n=a#5 v=127
3585 On ch=6 n=f5 v=127
3585 On ch=11 n=a5 v=127
3697 Off ch=11 n=a5 v=127
3701 On ch=12 n=a#5 v=127
3813 Off ch=12 n=a#5 v=127
3813 Off ch=6 n=f5 v=127
3817 On ch=1 n=c5 v=127
3817 On ch=11 n=a5 v=127
3871 Off ch=11 n=a5 v=127
3875 On ch=8 n=g5 v=127
3929 Off ch=8 n=g5 v=127
3933 On ch=11 n=a5 v=127
3987 Off ch=11 n=a5 v=127
3991 On ch=8 n=g5 v=127
4045 Off ch=8 n=g5 v=127
4049 On ch=11 n=a5 v=127
4103 Off ch=11 n=a5 v=127
4107 On ch=8 n=g5 v=127
4161 Off ch=8 n=g5 v=127
4165 On ch=6 n=f5 v=127
4219 Off ch=6 n=f5 v=127
4223 On ch=8 n=g5 v=127
4277 Off ch=8 n=g5 v=127
4277 Off ch=1 n=c5 v=127
4281 On ch=6 n=f4 v=127
4281 On ch=6 n=f5 v=127
4508 Off ch=6 n=f5 v=127
4508 Off ch=6 n=f4 v=127
4512 On ch=1 n=c4 v=127
4512 On ch=1 n=c5 v=127
4739 Off ch=1 n=c5 v=127
4739 Off ch=1 n=c4 v=127
4743 On ch=6 n=f3 v=127
4743 On ch=6 n=f4 v=127
4970 Off ch=6 n=f4 v=127
4970 Off ch=6 n=f3 v=127
4974 On ch=6 n=f5 v=127
5086 Off ch=6 n=f5 v=127
5090 On ch=6 n=f5 v=127
5202 Off ch=6 n=f5 v=127
5206 On ch=11 n=a5 v=127
5318 Off ch=11 n=a5 v=127
5322 On ch=11 n=a5 v=127
5434 Off ch=11 n=a5 v=127
5438 On ch=1 n=c6 v=127
5550 Off ch=1 n=c6 v=127
5554 On ch=1 n=c6 v=127
5666 Off ch=1 n=c6 v=127
5670 On ch=6 n=f6 v=127
5897 Off ch=6 n=f6 v=127
5901 On ch=5 n=e6 v=127
6013 Off ch=5 n=e6 v=127
6017 On ch=3 n=d6 v=127
6129 Off ch=3 n=d6 v=127
6133 On ch=1 n=c6 v=127
6245 Off ch=1 n=c6 v=127
6249 On ch=12 n=a#5 v=127
6361 Off ch=12 n=a#5 v=127
6365 On ch=6 n=f5 v=127
6365 On ch=11 n=a5 v=127
6477 Off ch=11 n=a5 v=127
6481 On ch=12 n=a#5 v=127
6593 Off ch=12 n=a#5 v=127
6593 Off ch=6 n=f5 v=127
6597 On ch=1 n=c5 v=127
6597 On ch=11 n=a5 v=127
6651 Off ch=11 n=a5 v=127
6655 On ch=8 n=g5 v=127
6709 Off ch=8 n=g5 v=127
6713 On ch=11 n=a5 v=127
6767 Off ch=11 n=a5 v=127
6771 On ch=8 n=g5 v=127
6825 Off ch=8 n=g5 v=127
6829 On ch=11 n=a5 v=127
6883 Off ch=11 n=a5 v=127
6887 On ch=8 n=g5 v=127
6941 Off ch=8 n=g5 v=127
6945 On ch=6 n=f5 v=127
6999 Off ch=6 n=f5 v=127
7003 On ch=8 n=g5 v=127
7057 Off ch=8 n=g5 v=127
7057 Off ch=1 n=c5 v=127
7061 On ch=6 n=f4 v=127
7061 On ch=8 n=g5 v=127
7288 Off ch=8 n=g5 v=127
7292 On ch=12 n=a#5 v=127
7346 Off ch=12 n=a#5 v=127
7350 On ch=11 n=a5 v=127
7404 Off ch=11 n=a5 v=127
7408 On ch=12 n=a#5 v=127
7462 Off ch=12 n=a#5 v=127
7466 On ch=11 n=a5 v=127
7694 Off ch=11 n=a5 v=127
7750 Off ch=6 n=f4 v=127
7754 On ch=11 n=a4 v=127
7754 On ch=1 n=c5 v=127
7827 Off ch=1 n=c5 v=127
7831 On ch=3 n=d5 v=127
7904 Off ch=3 n=d5 v=127
7908 On ch=1 n=c5 v=127
7985 On ch=11 n=a5 v=127
7985 On ch=1 n=c6 v=127
8136 Off ch=1 n=c5 v=127
8212 Off ch=1 n=c6 v=127
8212 Off ch=11 n=a5 v=127
8212 Off ch=11 n=a4 v=127
8216 On ch=12 n=a#4 v=127
8216 On ch=3 n=d5 v=127
8443 Off ch=3 n=d5 v=127
8443 Off ch=12 n=a#4 v=127
8447 On ch=11 n=a4 v=127
8447 On ch=1 n=c5 v=127
8520 Off ch=1 n=c5 v=127
8524 On ch=3 n=d5 v=127
8597 Off ch=3 n=d5 v=127
8601 On ch=1 n=c5 v=127
8678 On ch=11 n=a5 v=127
8678 On ch=1 n=c6 v=127
8829 Off ch=1 n=c5 v=127
8905 Off ch=1 n=c6 v=127
8905 Off ch=11 n=a5 v=127
8905 Off ch=11 n=a4 v=127
8909 On ch=8 n=g4 v=127
8909 On ch=12 n=a#4 v=127
9136 Off ch=12 n=a#4 v=127
9136 Off ch=8 n=g4 v=127
9140 On ch=6 n=f4 v=127
9140 On ch=11 n=a4 v=127
9213 Off ch=11 n=a4 v=127
9217 On ch=12 n=a#4 v=127
9290 Off ch=12 n=a#4 v=127
9294 On ch=11 n=a4 v=127
9367 Off ch=11 n=a4 v=127
9371 On ch=11 n=a5 v=127
9371 On ch=1 n=c6 v=127
9598 Off ch=1 n=c6 v=127
9598 Off ch=11 n=a5 v=127
9598 Off ch=6 n=f4 v=127
9602 On ch=1 n=c4 v=127
9602 On ch=12 n=a#5 v=127
9602 On ch=8 n=g5 v=127
9829 Off ch=8 n=g5 v=127
9829 Off ch=12 n=a#5 v=127
9829 Off ch=1 n=c4 v=127
9833 On ch=6 n=f3 v=127
9833 On ch=11 n=a5 v=127
9833 On ch=1 n=c6 v=127
9887 Off ch=1 n=c6 v=127
9887 Off ch=11 n=a5 v=127
9891 On ch=8 n=g5 v=127
9891 On ch=12 n=a#5 v=127
9945 Off ch=12 n=a#5 v=127
9945 Off ch=8 n=g5 v=127
9949 On ch=11 n=a5 v=127
9949 On ch=1 n=c6 v=127
10003 Off ch=1 n=c6 v=127
10003 Off ch=11 n=a5 v=127
10007 On ch=8 n=g5 v=127
10007 On ch=12 n=a#5 v=127
10061 Off ch=12 n=a#5 v=127
10061 Off ch=8 n=g5 v=127
10065 On ch=11 n=a5 v=127
10065 On ch=6 n=f5 v=127
10501 Off ch=11 n=a5 v=127
10523 Off ch=6 n=f5 v=127
10523 Off ch=6 n=f3 v=127
10527 On ch=11 n=a4 v=127
10527 On ch=1 n=c5 v=127
10600 Off ch=1 n=c5 v=127
10604 On ch=3 n=d5 v=127
10677 Off ch=3 n=d5 v=127
10681 On ch=1 n=c5 v=127
10758 On ch=11 n=a5 v=127
10758 On ch=1 n=c6 v=127
10909 Off ch=1 n=c5 v=127
10985 Off ch=1 n=c6 v=127
10985 Off ch=11 n=a5 v=127
10985 Off ch=11 n=a4 v=127
10989 On ch=12 n=a#4 v=127
10989 On ch=3 n=d5 v=127
11216 Off ch=3 n=d5 v=127
11216 Off ch=12 n=a#4 v=127
11220 On ch=11 n=a4 v=127
11220 On ch=1 n=c5 v=127
11293 Off ch=1 n=c5 v=127
11297 On ch=3 n=d5 v=127
11370 Off ch=3 n=d5 v=127
11374 On ch=1 n=c5 v=127
11451 On ch=1 n=c6 v=127
11451 On ch=11 n=a5 v=127
11602 Off ch=1 n=c5 v=127
11678 Off ch=11 n=a5 v=127
11678 Off ch=1 n=c6 v=127
11678 Off ch=11 n=a4 v=127
11682 On ch=8 n=g4 v=127
11682 On ch=12 n=a#4 v=127
11909 Off ch=12 n=a#4 v=127
11909 Off ch=8 n=g4 v=127
11913 On ch=6 n=f4 v=127
11913 On ch=11 n=a4 v=127
11986 Off ch=11 n=a4 v=127
11990 On ch=12 n=a#4 v=127
12063 Off ch=12 n=a#4 v=127
12067 On ch=11 n=a4 v=127
12140 Off ch=11 n=a4 v=127
12144 On ch=1 n=c6 v=127
12144 On ch=11 n=a5 v=127
12371 Off ch=11 n=a5 v=127
12371 Off ch=1 n=c6 v=127
12371 Off ch=6 n=f4 v=127
12375 On ch=1 n=c4 v=127
12375 On ch=12 n=a#4 v=127
12375 On ch=8 n=g4 v=127
12602 Off ch=8 n=g4 v=127
12602 Off ch=12 n=a#4 v=127
12602 Off ch=1 n=c4 v=127
12606 On ch=6 n=f3 v=127
12606 On ch=11 n=a4 v=127
12606 On ch=1 n=c5 v=127
12660 Off ch=1 n=c5 v=127
12660 Off ch=11 n=a4 v=127
12664 On ch=8 n=g4 v=127
12664 On ch=12 n=a#4 v=127
12718 Off ch=12 n=a#4 v=127
12718 Off ch=8 n=g4 v=127
12722 On ch=11 n=a4 v=127
12722 On ch=1 n=c5 v=127
12776 Off ch=1 n=c5 v=127
12776 Off ch=11 n=a4 v=127
12780 On ch=8 n=g4 v=127
12780 On ch=12 n=a#4 v=127
12834 Off ch=12 n=a#4 v=127
12834 Off ch=8 n=g4 v=127
12838 On ch=11 n=a4 v=127
12838 On ch=6 n=f4 v=127
13184 Off ch=11 n=a4 v=127
13296 Off ch=6 n=f3 v=127
13300 On ch=11 n=a4 v=127
13373 Off ch=11 n=a4 v=127
13377 On ch=12 n=a#4 v=127
13450 Off ch=12 n=a#4 v=127
13454 On ch=1 n=c5 v=127
13527 Off ch=1 n=c5 v=127
13527 Off ch=6 n=f4 v=127
13531 On ch=12 n=a#4 v=127
13531 On ch=3 n=d5 v=127
13604 Off ch=3 n=d5 v=127
13608 On ch=5 n=e5 v=127
13681 Off ch=5 n=e5 v=127
13685 On ch=6 n=f5 v=127
13758 Off ch=6 n=f5 v=127
13758 Off ch=12 n=a#4 v=127
13762 On ch=5 n=e5 v=127
13762 On ch=8 n=g5 v=127
13835 Off ch=8 n=g5 v=127
13839 On ch=11 n=a5 v=127
13912 Off ch=11 n=a5 v=127
13916 On ch=12 n=a#5 v=127
13989 Off ch=12 n=a#5 v=127
13989 Off ch=5 n=e5 v=127
13993 On ch=11 n=a5 v=127
13993 On ch=1 n=c6 v=127
14220 Off ch=1 n=c6 v=127
14220 Off ch=11 n=a5 v=127
14224 On ch=8 n=g5 v=127
14224 On ch=12 n=a#5 v=127
14451 Off ch=12 n=a#5 v=127
14451 Off ch=8 n=g5 v=127
14455 On ch=6 n=f5 v=127
14455 On ch=11 n=a5 v=127
14682 Off ch=11 n=a5 v=127
14682 Off ch=6 n=f5 v=127
14686 On ch=8 n=g5 v=127
14686 On ch=12 n=a#5 v=127
14801 On ch=8 n=g6 v=127
14913 Off ch=8 n=g6 v=127
14913 Off ch=8 n=g5 v=127
14914 Off ch=12 n=a#5 v=127
14916 On ch=5 n=e5 v=127
14916 On ch=12 n=a#5 v=127
15143 Off ch=12 n=a#5 v=127
15143 Off ch=5 n=e5 v=127
15147 On ch=6 n=f5 v=127
15147 On ch=11 n=a5 v=127
15374 Off ch=11 n=a5 v=127
15374 Off ch=6 n=f5 v=127
15378 On ch=1 n=c5 v=127
15378 On ch=12 n=a#5 v=127
15432 Off ch=12 n=a#5 v=127
15436 On ch=11 n=a5 v=127
15490 Off ch=11 n=a5 v=127
15494 On ch=12 n=a#5 v=127
15548 Off ch=12 n=a#5 v=127
15552 On ch=11 n=a5 v=127
15606 Off ch=11 n=a5 v=127
15610 On ch=8 n=g5 v=127
15837 Off ch=1 n=c5 v=127
15841 On ch=1 n=c4 v=127
16068 Off ch=1 n=c4 v=127
16068 Off ch=8 n=g5 v=127
16072 On ch=6 n=f4 v=127
16072 On ch=11 n=a4 v=127
16145 Off ch=11 n=a4 v=127
16149 On ch=12 n=a#4 v=127
16222 Off ch=12 n=a#4 v=127
16226 On ch=1 n=c5 v=127
16299 Off ch=1 n=c5 v=127
16299 Off ch=6 n=f4 v=127
16303 On ch=12 n=a#4 v=127
16303 On ch=3 n=d5 v=127
16376 Off ch=3 n=d5 v=127
16380 On ch=5 n=e5 v=127
16453 Off ch=5 n=e5 v=127
16457 On ch=6 n=f5 v=127
16530 Off ch=6 n=f5 v=127
16530 Off ch=12 n=a#4 v=127
16534 On ch=5 n=e5 v=127
16534 On ch=8 n=g5 v=127
16607 Off ch=8 n=g5 v=127
16611 On ch=11 n=a5 v=127
16684 Off ch=11 n=a5 v=127
16688 On ch=12 n=a#5 v=127
16761 Off ch=12 n=a#5 v=127
16761 Off ch=5 n=e5 v=127
16765 On ch=11 n=a5 v=127
16765 On ch=1 n=c6 v=127
16992 Off ch=1 n=c6 v=127
16992 Off ch=11 n=a5 v=127
16996 On ch=8 n=g5 v=127
16996 On ch=12 n=a#5 v=127
17223 Off ch=12 n=a#5 v=127
17223 Off ch=8 n=g5 v=127
17227 On ch=6 n=f5 v=127
17227 On ch=11 n=a5 v=127
17454 Off ch=11 n=a5 v=127
17454 Off ch=6 n=f5 v=127
17458 On ch=8 n=g5 v=127
17458 On ch=12 n=a#5 v=127
17573 On ch=8 n=g6 v=127
17685 Off ch=8 n=g6 v=127
17685 Off ch=8 n=g5 v=127
17686 Off ch=12 n=a#5 v=127
17688 On ch=5 n=e5 v=127
17688 On ch=12 n=a#5 v=127
17915 Off ch=12 n=a#5 v=127
17915 Off ch=5 n=e5 v=127
17919 On ch=6 n=f5 v=127
17919 On ch=11 n=a5 v=127
18146 Off ch=11 n=a5 v=127
18146 Off ch=6 n=f5 v=127
18150 On ch=1 n=c5 v=127
18150 On ch=12 n=a#5 v=127
18204 Off ch=12 n=a#5 v=127
18208 On ch=11 n=a5 v=127
18262 Off ch=11 n=a5 v=127
18266 On ch=12 n=a#5 v=127
18320 Off ch=12 n=a#5 v=127
18324 On ch=11 n=a5 v=127
18378 Off ch=11 n=a5 v=127
18382 On ch=8 n=g5 v=127
18609 Off ch=1 n=c5 v=127
18613 On ch=1 n=c4 v=127
18806 Off ch=8 n=g5 v=127
18840 Off ch=1 n=c4 v=127
18844 On ch=1 n=c5 v=127
18844 On ch=8 n=g5 v=127
18844 On ch=6 n=f6 v=127
18844 On ch=4 n=d#6 v=127
18917 Off ch=4 n=d#6 v=127
18917 Off ch=6 n=f6 v=127
18921 On ch=3 n=d6 v=127
18994 Off ch=3 n=d6 v=127
18998 On ch=4 n=d#6 v=127
19071 Off ch=4 n=d#6 v=127
19071 Off ch=8 n=g5 v=127
19075 On ch=9 n=g#5 v=127
19075 On ch=6 n=f6 v=127
19302 Off ch=6 n=f6 v=127
19302 Off ch=9 n=g#5 v=127
19306 On ch=6 n=f5 v=127
19306 On ch=3 n=d6 v=127
19533 Off ch=3 n=d6 v=127
19533 Off ch=6 n=f5 v=127
19535 Off ch=1 n=c5 v=127
19536 On ch=1 n=c5 v=127
19536 On ch=8 n=g5 v=127
19536 On ch=4 n=d#6 v=127
19763 Off ch=4 n=d#6 v=127
19763 Off ch=8 n=g5 v=127
19767 On ch=3 n=d5 v=127
19767 On ch=13 n=b5 v=127
19994 Off ch=13 n=b5 v=127
19994 Off ch=3 n=d5 v=127
19998 On ch=4 n=d#5 v=127
19998 On ch=1 n=c6 v=127
20227 Off ch=1 n=c5 v=127
20228 On ch=6 n=f4 v=127
20228 On ch=3 n=d6 v=127
20295 Off ch=1 n=c6 v=127
20301 Off ch=3 n=d6 v=127
20305 On ch=13 n=b5 v=127
20378 Off ch=13 n=b5 v=127
20382 On ch=1 n=c6 v=127
20454 Off ch=4 n=d#5 v=127
20459 On ch=6 n=f5 v=127
20459 On ch=9 n=g#6 v=127
20610 Off ch=1 n=c6 v=127
20686 Off ch=9 n=g#6 v=127
20686 Off ch=6 n=f5 v=127
20690 On ch=4 n=d#5 v=127
20690 On ch=1 n=c6 v=127
20917 Off ch=1 n=c6 v=127
20917 Off ch=4 n=d#5 v=127
20919 Off ch=6 n=f4 v=127
20920 On ch=3 n=d5 v=127
20920 On ch=8 n=g4 v=127
20920 On ch=3 n=d6 v=127
20974 Off ch=3 n=d6 v=127
20978 On ch=1 n=c6 v=127
21032 Off ch=1 n=c6 v=127
21036 On ch=3 n=d6 v=127
21090 Off ch=3 n=d6 v=127
21094 On ch=1 n=c6 v=127
21148 Off ch=1 n=c6 v=127
21152 On ch=13 n=b5 v=127
21379 Off ch=3 n=d5 v=127
21383 On ch=6 n=f5 v=127
21498 Off ch=8 n=g4 v=127
21602 Off ch=6 n=f5 v=127
21609 Off ch=13 n=b5 v=127
21613 On ch=1 n=c5 v=127
21613 On ch=8 n=g5 v=127
21613 On ch=6 n=f6 v=127
21613 On ch=4 n=d#6 v=127
21686 Off ch=4 n=d#6 v=127
21686 Off ch=6 n=f6 v=127
21690 On ch=3 n=d6 v=127
21763 Off ch=3 n=d6 v=127
21767 On ch=4 n=d#6 v=127
21840 Off ch=4 n=d#6 v=127
21840 Off ch=8 n=g5 v=127
21844 On ch=9 n=g#5 v=127
21844 On ch=6 n=f6 v=127
22071 Off ch=6 n=f6 v=127
22071 Off ch=9 n=g#5 v=127
22075 On ch=6 n=f5 v=127
22075 On ch=3 n=d6 v=127
22302 Off ch=3 n=d6 v=127
22302 Off ch=6 n=f5 v=127
22304 Off ch=1 n=c5 v=127
22305 On ch=1 n=c5 v=127
22305 On ch=8 n=g5 v=127
22305 On ch=4 n=d#6 v=127
22532 Off ch=4 n=d#6 v=127
22532 Off ch=8 n=g5 v=127
22536 On ch=3 n=d5 v=127
22536 On ch=13 n=b5 v=127
22763 Off ch=13 n=b5 v=127
22763 Off ch=3 n=d5 v=127
22767 On ch=4 n=d#5 v=127
22767 On ch=1 n=c6 v=127
22996 Off ch=1 n=c5 v=127
22997 On ch=6 n=f4 v=127
22997 On ch=3 n=d6 v=127
23064 Off ch=1 n=c6 v=127
23070 Off ch=3 n=d6 v=127
23074 On ch=13 n=b5 v=127
23147 Off ch=13 n=b5 v=127
23151 On ch=1 n=c6 v=127
23223 Off ch=4 n=d#5 v=127
23228 On ch=6 n=f5 v=127
23228 On ch=9 n=g#6 v=127
23379 Off ch=1 n=c6 v=127
23455 Off ch=9 n=g#6 v=127
23455 Off ch=6 n=f5 v=127
23459 On ch=4 n=d#5 v=127
23459 On ch=1 n=c6 v=127
23686 Off ch=1 n=c6 v=127
23686 Off ch=4 n=d#5 v=127
23688 Off ch=6 n=f4 v=127
23689 On ch=8 n=g4 v=127
23689 On ch=3 n=d5 v=127
23689 On ch=3 n=d6 v=127
23743 Off ch=3 n=d6 v=127
23747 On ch=1 n=c6 v=127
23801 Off ch=1 n=c6 v=127
23805 On ch=3 n=d6 v=127
23859 Off ch=3 n=d6 v=127
23863 On ch=1 n=c6 v=127
23917 Off ch=1 n=c6 v=127
23921 On ch=13 n=b5 v=127
24329 Off ch=13 n=b5 v=127
24378 Off ch=3 n=d5 v=127
24378 Off ch=8 n=g4 v=127
24382 On ch=13 n=b4 v=127
24382 On ch=3 n=d5 v=127
24455 Off ch=3 n=d5 v=127
24459 On ch=4 n=d#5 v=127
24532 Off ch=4 n=d#5 v=127
24536 On ch=6 n=f5 v=127
24609 Off ch=6 n=f5 v=127
24609 Off ch=13 n=b4 v=127
24613 On ch=4 n=d#5 v=127
24613 On ch=8 n=g5 v=127
24686 Off ch=8 n=g5 v=127
24690 On ch=11 n=a5 v=127
24763 Off ch=11 n=a5 v=127
24767 On ch=13 n=b5 v=127
24840 Off ch=13 n=b5 v=127
24840 Off ch=4 n=d#5 v=127
24844 On ch=9 n=g#5 v=127
24844 On ch=1 n=c6 v=127
24917 Off ch=1 n=c6 v=127
24921 On ch=3 n=d6 v=127
24994 Off ch=3 n=d6 v=127
24998 On ch=4 n=d#6 v=127
25071 Off ch=4 n=d#6 v=127
25071 Off ch=9 n=g#5 v=127
25075 On ch=8 n=g5 v=127
25075 On ch=6 n=f6 v=127
25302 Off ch=6 n=f6 v=127
25302 Off ch=8 n=g5 v=127
25306 On ch=11 n=a5 v=127
25306 On ch=4 n=d#6 v=127
25533 Off ch=4 n=d#6 v=127
25533 Off ch=11 n=a5 v=127
25537 On ch=13 n=b5 v=127
25537 On ch=3 n=d6 v=127
25764 Off ch=3 n=d6 v=127
25764 Off ch=13 n=b5 v=127
25768 On ch=1 n=c6 v=127
25768 On ch=6 n=f6 v=127
25822 Off ch=6 n=f6 v=127
25826 On ch=4 n=d#6 v=127
25880 Off ch=4 n=d#6 v=127
25884 On ch=6 n=f6 v=127
25938 Off ch=6 n=f6 v=127
25942 On ch=4 n=d#6 v=127
25996 Off ch=4 n=d#6 v=127
25996 Off ch=1 n=c6 v=127
26000 On ch=12 n=a#5 v=127
26000 On ch=3 n=d6 v=127
26227 Off ch=3 n=d6 v=127
26227 Off ch=12 n=a#5 v=127
26231 On ch=9 n=g#5 v=127
26231 On ch=1 n=c6 v=127
26458 Off ch=1 n=c6 v=127
26458 Off ch=9 n=g#5 v=127
26462 On ch=8 n=g5 v=127
26462 On ch=8 n=g6 v=127
26689 Off ch=8 n=g6 v=127
26689 Off ch=8 n=g5 v=127
26693 On ch=3 n=d5 v=127
26693 On ch=3 n=d6 v=127
26920 Off ch=3 n=d6 v=127
26920 Off ch=3 n=d5 v=127
26924 On ch=8 n=g4 v=127
26924 On ch=8 n=g5 v=127
27151 Off ch=8 n=g5 v=127
27151 Off ch=8 n=g4 v=127
27155 On ch=13 n=b4 v=127
27155 On ch=3 n=d5 v=127
27228 Off ch=3 n=d5 v=127
27232 On ch=4 n=d#5 v=127
27305 Off ch=4 n=d#5 v=127
27309 On ch=6 n=f5 v=127
27382 Off ch=6 n=f5 v=127
27382 Off ch=13 n=b4 v=127
27386 On ch=4 n=d#5 v=127
27386 On ch=8 n=g5 v=127
27459 Off ch=8 n=g5 v=127
27463 On ch=11 n=a5 v=127
27536 Off ch=11 n=a5 v=127
27540 On ch=13 n=b5 v=127
27613 Off ch=13 n=b5 v=127
27613 Off ch=4 n=d#5 v=127
27617 On ch=9 n=g#5 v=127
27617 On ch=1 n=c6 v=127
27690 Off ch=1 n=c6 v=127
27694 On ch=3 n=d6 v=127
27767 Off ch=3 n=d6 v=127
27771 On ch=4 n=d#6 v=127
27844 Off ch=4 n=d#6 v=127
27844 Off ch=9 n=g#5 v=127
27848 On ch=8 n=g5 v=127
27848 On ch=6 n=f6 v=127
28075 Off ch=6 n=f6 v=127
28075 Off ch=8 n=g5 v=127
28079 On ch=11 n=a5 v=127
28079 On ch=4 n=d#6 v=127
28306 Off ch=4 n=d#6 v=127
28306 Off ch=11 n=a5 v=127
28310 On ch=13 n=b5 v=127
28310 On ch=3 n=d6 v=127
28537 Off ch=3 n=d6 v=127
28537 Off ch=13 n=b5 v=127
28541 On ch=1 n=c6 v=127
28541 On ch=6 n=f6 v=127
28595 Off ch=6 n=f6 v=127
28599 On ch=4 n=d#6 v=127
28653 Off ch=4 n=d#6 v=127
28657 On ch=6 n=f6 v=127
28711 Off ch=6 n=f6 v=127
28715 On ch=4 n=d#6 v=127
28769 Off ch=4 n=d#6 v=127
28769 Off ch=1 n=c6 v=127
28773 On ch=12 n=a#5 v=127
28773 On ch=3 n=d6 v=127
29000 Off ch=3 n=d6 v=127
29000 Off ch=12 n=a#5 v=127
29004 On ch=9 n=g#5 v=127
29004 On ch=1 n=c6 v=127
29231 Off ch=1 n=c6 v=127
29231 Off ch=9 n=g#5 v=127
29235 On ch=8 n=g5 v=127
29235 On ch=8 n=g6 v=127
29462 Off ch=8 n=g5 v=127
29466 On ch=6 n=f5 v=127
29578 Off ch=8 n=g6 v=127
29582 On ch=13 n=b5 v=127
29694 Off ch=13 n=b5 v=127
29694 Off ch=6 n=f5 v=127
29698 On ch=5 n=e5 v=127
29698 On ch=1 n=c6 v=127
29925 Off ch=5 n=e5 v=127
29929 On ch=6 n=f5 v=127
30002 Off ch=1 n=c6 v=127
30006 On ch=11 n=a5 v=127
30041 Off ch=11 n=a5 v=127
30045 On ch=13 n=b5 v=127
30080 Off ch=13 n=b5 v=127
30084 On ch=1 n=c6 v=127
30119 Off ch=1 n=c6 v=127
30123 On ch=3 n=d6 v=127
30158 Off ch=3 n=d6 v=127
30158 Off ch=6 n=f5 v=127
30162 On ch=8 n=g5 v=127
30162 On ch=5 n=e6 v=127
30216 Off ch=5 n=e6 v=127
30220 On ch=3 n=d6 v=127
30274 Off ch=3 n=d6 v=127
30278 On ch=5 n=e6 v=127
30332 Off ch=5 n=e6 v=127
30336 On ch=3 n=d6 v=127
30390 Off ch=3 n=d6 v=127
30390 Off ch=8 n=g5 v=127
30394 On ch=8 n=g4 v=127
30394 On ch=5 n=e6 v=127
30448 Off ch=5 n=e6 v=127
30452 On ch=3 n=d6 v=127
30506 Off ch=3 n=d6 v=127
30510 On ch=1 n=c6 v=127
30622 Off ch=1 n=c6 v=127
30622 Off ch=8 n=g4 v=127
30626 On ch=1 n=c5 v=127
30626 On ch=1 n=c7 v=127
30699 Off ch=1 n=c7 v=127
30703 On ch=13 n=b6 v=127
30776 Off ch=13 n=b6 v=127
30780 On ch=1 n=c7 v=127
30854 Off ch=1 n=c5 v=127
30856 On ch=8 n=g6 v=127
30929 Off ch=8 n=g6 v=127
30933 On ch=6 n=f6 v=127
31006 Off ch=6 n=f6 v=127
31007 Off ch=1 n=c7 v=127
31009 On ch=8 n=g6 v=127
31086 On ch=5 n=e6 v=127
31159 Off ch=5 n=e6 v=127
31163 On ch=3 n=d6 v=127
31236 Off ch=3 n=d6 v=127
31237 Off ch=8 n=g6 v=127
31239 On ch=5 n=e6 v=127
31316 On ch=1 n=c6 v=127
31389 Off ch=1 n=c6 v=127
31393 On ch=13 n=b5 v=127
31466 Off ch=13 n=b5 v=127
31467 Off ch=5 n=e6 v=127
31469 On ch=1 n=c6 v=127
31546 On ch=8 n=g5 v=127
31619 Off ch=8 n=g5 v=127
31623 On ch=6 n=f5 v=127
31696 Off ch=6 n=f5 v=127
31697 Off ch=1 n=c6 v=127
31699 On ch=8 n=g5 v=127
31776 On ch=5 n=e5 v=127
31849 Off ch=5 n=e5 v=127
31853 On ch=3 n=d5 v=127
31926 Off ch=3 n=d5 v=127
31927 Off ch=8 n=g5 v=127
31929 On ch=5 n=e5 v=127
32006 On ch=1 n=c5 v=127
32079 Off ch=1 n=c5 v=127
32083 On ch=13 n=b4 v=127
32156 Off ch=13 n=b4 v=127
32157 Off ch=5 n=e5 v=127
32159 On ch=1 n=c5 v=127
32236 On ch=8 n=g4 v=127
32309 Off ch=8 n=g4 v=127
32313 On ch=6 n=f4 v=127
32386 Off ch=6 n=f4 v=127
32387 Off ch=1 n=c5 v=127
32389 On ch=8 n=g4 v=127
32466 On ch=5 n=e4 v=127
32539 Off ch=5 n=e4 v=127
32543 On ch=3 n=d4 v=127
32616 Off ch=3 n=d4 v=127
32617 Off ch=8 n=g4 v=127
32619 On ch=5 n=e4 v=127
32696 On ch=1 n=c4 v=127
32769 Off ch=1 n=c4 v=127
32773 On ch=13 n=b3 v=127
32846 Off ch=13 n=b3 v=127
32847 Off ch=5 n=e4 v=127
32849 On ch=1 n=c4 v=127
32926 On ch=8 n=g3 v=127
32999 Off ch=8 n=g3 v=127
33003 On ch=6 n=f3 v=127
33076 Off ch=6 n=f3 v=127
33077 Off ch=1 n=c4 v=127
33079 On ch=8 n=g3 v=127
33156 On ch=5 n=e3 v=127
33229 Off ch=5 n=e3 v=127
33233 On ch=3 n=d3 v=127
33306 Off ch=3 n=d3 v=127
33307 Off ch=8 n=g3 v=127
33309 On ch=5 n=e3 v=127
33382 Off ch=5 n=e3 v=127
33386 On ch=1 n=c3 v=127
33578 On ch=1 n=c5 v=127
33613 Off ch=1 n=c5 v=127
33617 On ch=3 n=d5 v=127
33652 Off ch=3 n=d5 v=127
33656 On ch=5 n=e5 v=127
33691 Off ch=5 n=e5 v=127
33695 On ch=6 n=f5 v=127
33730 Off ch=6 n=f5 v=127
33734 On ch=8 n=g5 v=127
33769 Off ch=8 n=g5 v=127
33773 On ch=11 n=a5 v=127
33808 Off ch=11 n=a5 v=127
33812 On ch=13 n=b5 v=127
33847 Off ch=13 n=b5 v=127
33847 Off ch=1 n=c3 v=127
33851 On ch=5 n=e4 v=127
33851 On ch=1 n=c6 v=127
34078 Off ch=5 n=e4 v=127
34082 On ch=6 n=f4 v=127
34155 Off ch=1 n=c6 v=127
34159 On ch=11 n=a5 v=127
34194 Off ch=11 n=a5 v=127
34198 On ch=13 n=b5 v=127
34233 Off ch=13 n=b5 v=127
34237 On ch=1 n=c6 v=127
34272 Off ch=1 n=c6 v=127
34276 On ch=3 n=d6 v=127
34311 Off ch=3 n=d6 v=127
34311 Off ch=6 n=f4 v=127
34315 On ch=8 n=g4 v=127
34315 On ch=5 n=e6 v=127
34369 Off ch=5 n=e6 v=127
34373 On ch=3 n=d6 v=127
34427 Off ch=3 n=d6 v=127
34431 On ch=5 n=e6 v=127
34485 Off ch=5 n=e6 v=127
34489 On ch=3 n=d6 v=127
34543 Off ch=3 n=d6 v=127
34547 On ch=8 n=g3 v=127
34547 On ch=5 n=e6 v=127
34601 Off ch=5 n=e6 v=127
34605 On ch=3 n=d6 v=127
34659 Off ch=3 n=d6 v=127
34663 On ch=1 n=c6 v=127
34773 Off ch=8 n=g4 v=127
34774 Off ch=1 n=c6 v=127
34774 Off ch=8 n=g3 v=127
34778 On ch=1 n=c5 v=127
34778 On ch=1 n=c6 v=127
35005 Off ch=1 n=c6 v=127
35005 Off ch=1 n=c5 v=127
35009 On ch=8 n=g4 v=127
35009 On ch=8 n=g5 v=127
35236 Off ch=8 n=g5 v=127
35236 Off ch=8 n=g4 v=127
35240 On ch=1 n=c4 v=127
35240 On ch=1 n=c5 v=127
35467 Off ch=1 n=c5 v=127
35467 Off ch=1 n=c4 v=127
35471 On ch=8 n=g4 v=127
35471 On ch=8 n=g5 v=127
35698 Off ch=8 n=g5 v=127
35698 Off ch=8 n=g4 v=127
35702 On ch=3 n=d4 v=127
35702 On ch=3 n=d5 v=127
35929 Off ch=3 n=d5 v=127
35929 Off ch=3 n=d4 v=127
35933 On ch=8 n=g3 v=127
35933 On ch=8 n=g4 v=127
36160 Off ch=8 n=g4 v=127
36160 Off ch=8 n=g3 v=127
36164 On ch=1 n=c4 v=127
36164 On ch=1 n=c5 v=127
36391 Off ch=1 n=c5 v=127
36391 Off ch=1 n=c4 v=127
36395 On ch=8 n=g3 v=127
36395 On ch=8 n=g4 v=127
36622 Off ch=8 n=g4 v=127
36622 Off ch=8 n=g3 v=127
36626 On ch=1 n=c3 v=127
36626 On ch=1 n=c4 v=127
36853 Off ch=1 n=c4 v=127
36853 Off ch=1 n=c3 v=127
36857 On ch=6 n=f4 v=127
36857 On ch=6 n=f5 v=127
36930 Off ch=6 n=f5 v=127
36934 On ch=5 n=e5 v=127
37007 Off ch=5 n=e5 v=127
37011 On ch=3 n=d5 v=127
37084 Off ch=3 n=d5 v=127
37084 Off ch=6 n=f4 v=127
37088 On ch=8 n=g4 v=127
37088 On ch=8 n=g5 v=127
37315 Off ch=8 n=g5 v=127
37315 Off ch=8 n=g4 v=127
37319 On ch=8 n=g3 v=127
37319 On ch=8 n=g4 v=127
37546 Off ch=8 n=g4 v=127
37546 Off ch=8 n=g3 v=127
37550 On ch=1 n=c4 v=127
37550 On ch=1 n=c5 v=127
38238 Off ch=1 n=c5 v=127
38238 Off ch=1 n=c4 v=127
38242 On ch=1 n=c4 v=127
38354 Off ch=1 n=c4 v=127
38358 On ch=1 n=c4 v=127
38470 Off ch=1 n=c4 v=127
38474 On ch=5 n=e4 v=127
38586 Off ch=5 n=e4 v=127
38590 On ch=5 n=e4 v=127
38702 Off ch=5 n=e4 v=127
38706 On ch=8 n=g4 v=127
38818 Off ch=8 n=g4 v=127
38822 On ch=8 n=g4 v=127
38934 Off ch=8 n=g4 v=127
38938 On ch=1 n=c5 v=127
39050 Off ch=1 n=c5 v=127
39054 On ch=1 n=c5 v=127
39166 Off ch=1 n=c5 v=127
39170 On ch=5 n=e5 v=127
39282 Off ch=5 n=e5 v=127
39286 On ch=5 n=e5 v=127
39398 Off ch=5 n=e5 v=127
39402 On ch=8 n=g5 v=127
39514 Off ch=8 n=g5 v=127
39518 On ch=8 n=g5 v=127
39630 Off ch=8 n=g5 v=127
39634 On ch=1 n=c6 v=127
39861 Off ch=1 n=c6 v=127
39865 On ch=13 n=b5 v=127
39977 Off ch=13 n=b5 v=127
39981 On ch=11 n=a5 v=127
40093 Off ch=11 n=a5 v=127
40097 On ch=8 n=g5 v=127
40209 Off ch=8 n=g5 v=127
40213 On ch=6 n=f5 v=127
40325 Off ch=6 n=f5 v=127
40329 On ch=1 n=c5 v=127
40329 On ch=5 n=e5 v=127
40441 Off ch=5 n=e5 v=127
40445 On ch=6 n=f5 v=127
40557 Off ch=6 n=f5 v=127
40557 Off ch=1 n=c5 v=127
40561 On ch=8 n=g4 v=127
40561 On ch=5 n=e5 v=127
40615 Off ch=5 n=e5 v=127
40619 On ch=3 n=d5 v=127
40673 Off ch=3 n=d5 v=127
40677 On ch=5 n=e5 v=127
40731 Off ch=5 n=e5 v=127
40735 On ch=3 n=d5 v=127
40789 Off ch=3 n=d5 v=127
40789 Off ch=8 n=g4 v=127
40793 On ch=13 n=b4 v=127
40793 On ch=5 n=e5 v=127
40847 Off ch=5 n=e5 v=127
40851 On ch=3 n=d5 v=127
40905 Off ch=3 n=d5 v=127
40909 On ch=1 n=c5 v=127
40963 Off ch=1 n=c5 v=127
40967 On ch=3 n=d5 v=127
41021 Off ch=3 n=d5 v=127
41021 Off ch=13 n=b4 v=127
41025 On ch=1 n=c5 v=127
41137 Off ch=1 n=c5 v=127
41141 On ch=1 n=c5 v=127
41253 Off ch=1 n=c5 v=127
41257 On ch=5 n=e5 v=127
41369 Off ch=5 n=e5 v=127
41373 On ch=5 n=e5 v=127
41485 Off ch=5 n=e5 v=127
41489 On ch=8 n=g5 v=127
41601 Off ch=8 n=g5 v=127
41605 On ch=8 n=g5 v=127
41717 Off ch=8 n=g5 v=127
41721 On ch=1 n=c6 v=127
41833 Off ch=1 n=c6 v=127
41837 On ch=1 n=c6 v=127
41949 Off ch=1 n=c6 v=127
41953 On ch=5 n=e6 v=127
42065 Off ch=5 n=e6 v=127
42069 On ch=5 n=e6 v=127
42181 Off ch=5 n=e6 v=127
42185 On ch=8 n=g6 v=127
42297 Off ch=8 n=g6 v=127
42301 On ch=8 n=g6 v=127
42413 Off ch=8 n=g6 v=127
42417 On ch=1 n=c7 v=127
42644 Off ch=1 n=c7 v=127
42648 On ch=13 n=b6 v=127
42760 Off ch=13 n=b6 v=127
42764 On ch=11 n=a6 v=127
42876 Off ch=11 n=a6 v=127
42880 On ch=8 n=g6 v=127
42992 Off ch=8 n=g6 v=127
42996 On ch=6 n=f6 v=127
43108 Off ch=6 n=f6 v=127
43112 On ch=1 n=c6 v=127
43112 On ch=5 n=e6 v=127
43224 Off ch=5 n=e6 v=127
43228 On ch=6 n=f6 v=127
43340 Off ch=6 n=f6 v=127
43340 Off ch=1 n=c6 v=127
43344 On ch=8 n=g5 v=127
43344 On ch=5 n=e6 v=127
43398 Off ch=5 n=e6 v=127
43402 On ch=3 n=d6 v=127
43456 Off ch=3 n=d6 v=127
43460 On ch=5 n=e6 v=127
43514 Off ch=5 n=e6 v=127
43518 On ch=3 n=d6 v=127
43572 Off ch=3 n=d6 v=127
43576 On ch=5 n=e6 v=127
43630 Off ch=5 n=e6 v=127
43634 On ch=3 n=d6 v=127
43688 Off ch=3 n=d6 v=127
43692 On ch=1 n=c6 v=127
43746 Off ch=1 n=c6 v=127
43750 On ch=3 n=d6 v=127
43804 Off ch=3 n=d6 v=127
43804 Off ch=8 n=g5 v=127
43808 On ch=1 n=c5 v=127
43808 On ch=3 n=d6 v=127
44035 Off ch=3 n=d6 v=127
44039 On ch=6 n=f6 v=127
44093 Off ch=6 n=f6 v=127
44097 On ch=5 n=e6 v=127
44151 Off ch=5 n=e6 v=127
44155 On ch=6 n=f6 v=127
44209 Off ch=6 n=f6 v=127
44213 On ch=5 n=e6 v=127
44483 Off ch=5 n=e6 v=127
44497 Off ch=1 n=c5 v=127
44501 On ch=5 n=e5 v=127
44501 On ch=8 n=g5 v=127
44574 Off ch=8 n=g5 v=127
44578 On ch=11 n=a5 v=127
44651 Off ch=11 n=a5 v=127
44655 On ch=8 n=g5 v=127
44732 On ch=8 n=g6 v=127
44732 On ch=5 n=e6 v=127
44883 Off ch=8 n=g5 v=127
44959 Off ch=5 n=e6 v=127
44959 Off ch=8 n=g6 v=127
44959 Off ch=5 n=e5 v=127
44963 On ch=6 n=f5 v=127
44963 On ch=11 n=a5 v=127
45190 Off ch=11 n=a5 v=127
45190 Off ch=6 n=f5 v=127
45194 On ch=5 n=e5 v=127
45194 On ch=8 n=g5 v=127
45267 Off ch=8 n=g5 v=127
45271 On ch=11 n=a5 v=127
45344 Off ch=11 n=a5 v=127
45348 On ch=8 n=g5 v=127
45425 On ch=8 n=g6 v=127
45425 On ch=5 n=e6 v=127
45576 Off ch=8 n=g5 v=127
45652 Off ch=5 n=e6 v=127
45652 Off ch=8 n=g6 v=127
45652 Off ch=5 n=e5 v=127
45656 On ch=3 n=d5 v=127
45656 On ch=6 n=f5 v=127
45883 Off ch=6 n=f5 v=127
45883 Off ch=3 n=d5 v=127
45887 On ch=1 n=c5 v=127
45887 On ch=5 n=e5 v=127
45960 Off ch=5 n=e5 v=127
45964 On ch=6 n=f5 v=127
46037 Off ch=6 n=f5 v=127
46041 On ch=5 n=e5 v=127
46114 Off ch=5 n=e5 v=127
46118 On ch=5 n=e6 v=127
46118 On ch=8 n=g6 v=127
46345 Off ch=8 n=g6 v=127
46345 Off ch=5 n=e6 v=127
46345 Off ch=1 n=c5 v=127
46349 On ch=8 n=g4 v=127
46349 On ch=6 n=f5 v=127
46349 On ch=3 n=d5 v=127
46576 Off ch=3 n=d5 v=127
46576 Off ch=6 n=f5 v=127
46576 Off ch=8 n=g4 v=127
46580 On ch=1 n=c4 v=127
46580 On ch=5 n=e5 v=127
46580 On ch=8 n=g5 v=127
46634 Off ch=8 n=g5 v=127
46634 Off ch=5 n=e5 v=127
46638 On ch=3 n=d5 v=127
46638 On ch=6 n=f5 v=127
46692 Off ch=6 n=f5 v=127
46692 Off ch=3 n=d5 v=127
46696 On ch=5 n=e5 v=127
46696 On ch=8 n=g5 v=127
46750 Off ch=8 n=g5 v=127
46750 Off ch=5 n=e5 v=127
46754 On ch=3 n=d5 v=127
46754 On ch=6 n=f5 v=127
46808 Off ch=6 n=f5 v=127
46808 Off ch=3 n=d5 v=127
46812 On ch=5 n=e5 v=127
46812 On ch=1 n=c5 v=127
47269 Off ch=5 n=e5 v=127
47269 Off ch=1 n=c4 v=127
47273 On ch=5 n=e5 v=127
47346 Off ch=5 n=e5 v=127
47350 On ch=6 n=f5 v=127
47423 Off ch=6 n=f5 v=127
47427 On ch=5 n=e5 v=127
47504 On ch=5 n=e6 v=127
47504 On ch=1 n=c6 v=127
47655 Off ch=5 n=e5 v=127
47731 Off ch=1 n=c6 v=127
47731 Off ch=5 n=e6 v=127
47731 Off ch=1 n=c5 v=127
47735 On ch=3 n=d5 v=127
47735 On ch=6 n=f5 v=127
47962 Off ch=6 n=f5 v=127
47962 Off ch=3 n=d5 v=127
47966 On ch=1 n=c5 v=127
47966 On ch=5 n=e5 v=127
48039 Off ch=5 n=e5 v=127
48043 On ch=6 n=f5 v=127
48116 Off ch=6 n=f5 v=127
48120 On ch=5 n=e5 v=127
48197 On ch=5 n=e6 v=127
48197 On ch=1 n=c6 v=127
48348 Off ch=5 n=e5 v=127
48424 Off ch=1 n=c6 v=127
48424 Off ch=5 n=e6 v=127
48424 Off ch=1 n=c5 v=127
48428 On ch=13 n=b4 v=127
48428 On ch=3 n=d5 v=127
48655 Off ch=3 n=d5 v=127
48655 Off ch=13 n=b4 v=127
48659 On ch=11 n=a4 v=127
48659 On ch=1 n=c5 v=127
48732 Off ch=1 n=c5 v=127
48736 On ch=3 n=d5 v=127
48809 Off ch=3 n=d5 v=127
48813 On ch=1 n=c5 v=127
48886 Off ch=1 n=c5 v=127
48890 On ch=1 n=c6 v=127
48890 On ch=5 n=e6 v=127
49117 Off ch=5 n=e6 v=127
49117 Off ch=1 n=c6 v=127
49117 Off ch=11 n=a4 v=127
49121 On ch=5 n=e4 v=127
49121 On ch=13 n=b4 v=127
49121 On ch=3 n=d5 v=127
49348 Off ch=3 n=d5 v=127
49348 Off ch=13 n=b4 v=127
49348 Off ch=5 n=e4 v=127
49352 On ch=11 n=a3 v=127
49352 On ch=1 n=c5 v=127
49352 On ch=5 n=e5 v=127
49406 Off ch=5 n=e5 v=127
49406 Off ch=1 n=c5 v=127
49410 On ch=13 n=b4 v=127
49410 On ch=3 n=d5 v=127
49464 Off ch=3 n=d5 v=127
49464 Off ch=13 n=b4 v=127
49468 On ch=1 n=c5 v=127
49468 On ch=5 n=e5 v=127
49522 Off ch=5 n=e5 v=127
49522 Off ch=1 n=c5 v=127
49526 On ch=13 n=b4 v=127
49526 On ch=3 n=d5 v=127
49580 Off ch=3 n=d5 v=127
49580 Off ch=13 n=b4 v=127
49584 On ch=1 n=c5 v=127
49584 On ch=11 n=a4 v=127
50041 Off ch=11 n=a4 v=127
50041 Off ch=1 n=c5 v=127
50041 Off ch=11 n=a3 v=127
50045 On ch=11 n=a4 v=127
50045 On ch=5 n=e5 v=127
50045 On ch=1 n=c6 v=127
50045 On ch=3 n=d6 v=127
50118 Off ch=3 n=d6 v=127
50118 Off ch=1 n=c6 v=127
50122 On ch=13 n=b5 v=127
50195 Off ch=13 n=b5 v=127
50199 On ch=1 n=c6 v=127
50272 Off ch=1 n=c6 v=127
50272 Off ch=5 n=e5 v=127
50276 On ch=6 n=f5 v=127
50276 On ch=3 n=d6 v=127
50503 Off ch=3 n=d6 v=127
50503 Off ch=6 n=f5 v=127
50507 On ch=3 n=d5 v=127
50507 On ch=13 n=b5 v=127
50734 Off ch=13 n=b5 v=127
50734 Off ch=3 n=d5 v=127
50736 Off ch=11 n=a4 v=127
50737 On ch=11 n=a4 v=127
50737 On ch=5 n=e5 v=127
50737 On ch=1 n=c6 v=127
50964 Off ch=1 n=c6 v=127
50964 Off ch=5 n=e5 v=127
50968 On ch=13 n=b4 v=127
50968 On ch=9 n=g#5 v=127
51195 Off ch=9 n=g#5 v=127
51195 Off ch=13 n=b4 v=127
51199 On ch=1 n=c5 v=127
51199 On ch=11 n=a5 v=127
51428 Off ch=11 n=a4 v=127
51429 On ch=3 n=d4 v=127
51429 On ch=13 n=b5 v=127
51502 Off ch=13 n=b5 v=127
51502 Off ch=11 n=a5 v=127
51506 On ch=9 n=g#5 v=127
51579 Off ch=9 n=g#5 v=127
51583 On ch=11 n=a5 v=127
51655 Off ch=1 n=c5 v=127
51660 On ch=3 n=d5 v=127
51660 On ch=6 n=f6 v=127
51811 Off ch=11 n=a5 v=127
51887 Off ch=6 n=f6 v=127
51887 Off ch=3 n=d5 v=127
51891 On ch=1 n=c5 v=127
51891 On ch=11 n=a5 v=127
52118 Off ch=11 n=a5 v=127
52118 Off ch=1 n=c5 v=127
52120 Off ch=3 n=d4 v=127
52121 On ch=5 n=e4 v=127
52121 On ch=13 n=b4 v=127
52121 On ch=13 n=b5 v=127
52175 Off ch=13 n=b5 v=127
52179 On ch=11 n=a5 v=127
52233 Off ch=11 n=a5 v=127
52237 On ch=13 n=b5 v=127
52291 Off ch=13 n=b5 v=127
52295 On ch=11 n=a5 v=127
52349 Off ch=11 n=a5 v=127
52353 On ch=9 n=g#5 v=127
52580 Off ch=13 n=b4 v=127
52580 Off ch=5 n=e4 v=127
52584 On ch=3 n=d5 v=127
52811 Off ch=3 n=d5 v=127
52811 Off ch=9 n=g#5 v=127
52815 On ch=11 n=a4 v=127
52815 On ch=5 n=e5 v=127
52815 On ch=3 n=d6 v=127
52815 On ch=1 n=c6 v=127
52888 Off ch=1 n=c6 v=127
52888 Off ch=3 n=d6 v=127
52892 On ch=13 n=b5 v=127
52965 Off ch=13 n=b5 v=127
52969 On ch=1 n=c6 v=127
53042 Off ch=1 n=c6 v=127
53042 Off ch=5 n=e5 v=127
53046 On ch=6 n=f5 v=127
53046 On ch=3 n=d6 v=127
53273 Off ch=3 n=d6 v=127
53273 Off ch=6 n=f5 v=127
53277 On ch=3 n=d5 v=127
53277 On ch=13 n=b5 v=127
53504 Off ch=13 n=b5 v=127
53504 Off ch=3 n=d5 v=127
53506 Off ch=11 n=a4 v=127
53507 On ch=5 n=e5 v=127
53507 On ch=11 n=a4 v=127
53507 On ch=1 n=c6 v=127
53734 Off ch=1 n=c6 v=127
53734 Off ch=5 n=e5 v=127
53738 On ch=13 n=b4 v=127
53738 On ch=9 n=g#5 v=127
53965 Off ch=9 n=g#5 v=127
53965 Off ch=13 n=b4 v=127
53969 On ch=1 n=c5 v=127
53969 On ch=11 n=a5 v=127
54198 Off ch=11 n=a4 v=127
54199 On ch=3 n=d4 v=127
54199 On ch=13 n=b5 v=127
54272 Off ch=13 n=b5 v=127
54272 Off ch=11 n=a5 v=127
54276 On ch=9 n=g#5 v=127
54349 Off ch=9 n=g#5 v=127
54353 On ch=11 n=a5 v=127
54425 Off ch=1 n=c5 v=127
54430 On ch=3 n=d5 v=127
54430 On ch=6 n=f6 v=127
54581 Off ch=11 n=a5 v=127
54655 Off ch=3 n=d4 v=127
54656 Off ch=6 n=f6 v=127
54660 On ch=11 n=a5 v=127
54838 Off ch=3 n=d5 v=127
54839 Off ch=11 n=a5 v=127
54891 On ch=5 n=e5 v=127
54891 On ch=8 n=g5 v=127
54964 Off ch=8 n=g5 v=127
54968 On ch=11 n=a5 v=127
55041 Off ch=11 n=a5 v=127
55045 On ch=8 n=g5 v=127
55122 On ch=8 n=g6 v=127
55122 On ch=5 n=e6 v=127
55273 Off ch=8 n=g5 v=127
55349 Off ch=5 n=e6 v=127
55349 Off ch=8 n=g6 v=127
55349 Off ch=5 n=e5 v=127
55353 On ch=6 n=f5 v=127
55353 On ch=11 n=a5 v=127
55580 Off ch=11 n=a5 v=127
55580 Off ch=6 n=f5 v=127
55584 On ch=5 n=e5 v=127
55584 On ch=8 n=g5 v=127
55657 Off ch=8 n=g5 v=127
55661 On ch=11 n=a5 v=127
55734 Off ch=11 n=a5 v=127
55738 On ch=8 n=g5 v=127
55815 On ch=8 n=g6 v=127
55815 On ch=5 n=e6 v=127
55966 Off ch=8 n=g5 v=127
56042 Off ch=5 n=e6 v=127
56042 Off ch=8 n=g6 v=127
56042 Off ch=5 n=e5 v=127
56046 On ch=3 n=d5 v=127
56046 On ch=6 n=f5 v=127
56273 Off ch=6 n=f5 v=127
56273 Off ch=3 n=d5 v=127
56277 On ch=1 n=c5 v=127
56277 On ch=5 n=e5 v=127
56350 Off ch=5 n=e5 v=127
56354 On ch=6 n=f5 v=127
56427 Off ch=6 n=f5 v=127
56431 On ch=5 n=e5 v=127
56504 Off ch=5 n=e5 v=127
56508 On ch=8 n=g6 v=127
56508 On ch=5 n=e6 v=127
56735 Off ch=5 n=e6 v=127
56735 Off ch=8 n=g6 v=127
56735 Off ch=1 n=c5 v=127
56739 On ch=12 n=a#4 v=127
56739 On ch=3 n=d5 v=127
56966 Off ch=3 n=d5 v=127
56966 Off ch=12 n=a#4 v=127
56970 On ch=11 n=a4 v=127
56970 On ch=8 n=g6 v=127
56970 On ch=5 n=e6 v=127
57197 Off ch=5 n=e6 v=127
57197 Off ch=8 n=g6 v=127
57201 On ch=11 n=a3 v=127
57201 On ch=6 n=f6 v=127
57201 On ch=3 n=d6 v=127
57428 Off ch=3 n=d6 v=127
57428 Off ch=6 n=f6 v=127
57428 Off ch=11 n=a3 v=127
57432 On ch=11 n=a3 v=127
57432 On ch=5 n=e6 v=127
57432 On ch=2 n=c#6 v=127
57659 Off ch=2 n=c#6 v=127
57659 Off ch=5 n=e6 v=127
57659 Off ch=11 n=a3 v=127
57661 Off ch=11 n=a4 v=127
57662 On ch=3 n=d5 v=127
57662 On ch=6 n=f5 v=127
57735 Off ch=6 n=f5 v=127
57739 On ch=8 n=g5 v=127
57812 Off ch=8 n=g5 v=127
57816 On ch=6 n=f5 v=127
57893 On ch=3 n=d6 v=127
57893 On ch=6 n=f6 v=127
58044 Off ch=6 n=f5 v=127
58120 Off ch=6 n=f6 v=127
58120 Off ch=3 n=d6 v=127
58120 Off ch=3 n=d5 v=127
58124 On ch=4 n=d#5 v=127
58124 On ch=8 n=g5 v=127
58351 Off ch=8 n=g5 v=127
58351 Off ch=4 n=d#5 v=127
58355 On ch=3 n=d5 v=127
58355 On ch=6 n=f5 v=127
58428 Off ch=6 n=f5 v=127
58432 On ch=8 n=g5 v=127
58505 Off ch=8 n=g5 v=127
58509 On ch=6 n=f5 v=127
58586 On ch=3 n=d6 v=127
58586 On ch=6 n=f6 v=127
58737 Off ch=6 n=f5 v=127
58813 Off ch=6 n=f6 v=127
58813 Off ch=3 n=d6 v=127
58813 Off ch=3 n=d5 v=127
58817 On ch=1 n=c5 v=127
58817 On ch=4 n=d#5 v=127
59044 Off ch=4 n=d#5 v=127
59044 Off ch=1 n=c5 v=127
59048 On ch=12 n=a#4 v=127
59048 On ch=3 n=d5 v=127
59121 Off ch=3 n=d5 v=127
59125 On ch=4 n=d#5 v=127
59198 Off ch=4 n=d#5 v=127
59202 On ch=3 n=d5 v=127
59275 Off ch=3 n=d5 v=127
59279 On ch=3 n=d6 v=127
59279 On ch=6 n=f6 v=127
59506 Off ch=6 n=f6 v=127
59506 Off ch=3 n=d6 v=127
59506 Off ch=12 n=a#4 v=127
59510 On ch=9 n=g#4 v=127
59510 On ch=1 n=c5 v=127
59737 Off ch=1 n=c5 v=127
59737 Off ch=9 n=g#4 v=127
59741 On ch=8 n=g4 v=127
59741 On ch=3 n=d6 v=127
59741 On ch=6 n=f6 v=127
59968 Off ch=6 n=f6 v=127
59968 Off ch=3 n=d6 v=127
59972 On ch=8 n=g3 v=127
59972 On ch=1 n=c6 v=127
59972 On ch=4 n=d#6 v=127
60199 Off ch=4 n=d#6 v=127
60199 Off ch=1 n=c6 v=127
60199 Off ch=8 n=g3 v=127
60203 On ch=8 n=g3 v=127
60203 On ch=3 n=d6 v=127
60203 On ch=13 n=b5 v=127
60430 Off ch=13 n=b5 v=127
60430 Off ch=3 n=d6 v=127
60430 Off ch=8 n=g3 v=127
60432 Off ch=8 n=g4 v=127
60433 On ch=1 n=c5 v=127
60433 On ch=4 n=d#5 v=127
60506 Off ch=4 n=d#5 v=127
60510 On ch=6 n=f5 v=127
60583 Off ch=6 n=f5 v=127
60587 On ch=4 n=d#5 v=127
60664 On ch=1 n=c6 v=127
60664 On ch=4 n=d#6 v=127
60815 Off ch=4 n=d#5 v=127
60889 Off ch=1 n=c5 v=127
60890 Off ch=4 n=d#6 v=127
60890 Off ch=1 n=c6 v=127
60894 On ch=3 n=d5 v=127
60894 On ch=6 n=f5 v=127
61121 Off ch=6 n=f5 v=127
61121 Off ch=3 n=d5 v=127
61125 On ch=1 n=c5 v=127
61125 On ch=4 n=d#5 v=127
61198 Off ch=4 n=d#5 v=127
61202 On ch=6 n=f5 v=127
61275 Off ch=6 n=f5 v=127
61279 On ch=4 n=d#5 v=127
61356 On ch=1 n=c6 v=127
61356 On ch=4 n=d#6 v=127
61507 Off ch=4 n=d#5 v=127
61581 Off ch=1 n=c5 v=127
61582 Off ch=4 n=d#6 v=127
61582 Off ch=1 n=c6 v=127
61586 On ch=3 n=d5 v=127
61586 On ch=12 n=a#4 v=127
61813 Off ch=12 n=a#4 v=127
61813 Off ch=3 n=d5 v=127
61817 On ch=11 n=a4 v=127
61817 On ch=1 n=c5 v=127
61890 Off ch=1 n=c5 v=127
61894 On ch=3 n=d5 v=127
61967 Off ch=3 n=d5 v=127
61971 On ch=1 n=c5 v=127
62044 Off ch=1 n=c5 v=127
62048 On ch=1 n=c6 v=127
62048 On ch=4 n=d#6 v=127
62274 Off ch=11 n=a4 v=127
62275 Off ch=4 n=d#6 v=127
62275 Off ch=1 n=c6 v=127
62279 On ch=12 n=a#4 v=127
62279 On ch=8 n=g4 v=127
62506 Off ch=8 n=g4 v=127
62506 Off ch=12 n=a#4 v=127
62510 On ch=6 n=f4 v=127
62510 On ch=1 n=c6 v=127
62510 On ch=4 n=d#6 v=127
62737 Off ch=4 n=d#6 v=127
62737 Off ch=1 n=c6 v=127
62741 On ch=6 n=f3 v=127
62741 On ch=3 n=d6 v=127
62741 On ch=12 n=a#5 v=127
62968 Off ch=12 n=a#5 v=127
62968 Off ch=3 n=d6 v=127
62968 Off ch=6 n=f3 v=127
62972 On ch=6 n=f3 v=127
62972 On ch=1 n=c6 v=127
62972 On ch=11 n=a5 v=127
63199 Off ch=11 n=a5 v=127
63199 Off ch=1 n=c6 v=127
63199 Off ch=6 n=f3 v=127
63201 Off ch=6 n=f4 v=127
63202 On ch=12 n=a#4 v=127
63202 On ch=6 n=f5 v=127
63202 On ch=3 n=d6 v=127
63314 Off ch=12 n=a#4 v=127
63318 On ch=11 n=a4 v=127
63430 Off ch=11 n=a4 v=127
63430 Off ch=3 n=d6 v=127
63430 Off ch=6 n=f5 v=127
63434 On ch=8 n=g4 v=127
63434 On ch=8 n=g5 v=127
63434 On ch=5 n=e6 v=127
63661 Off ch=5 n=e6 v=127
63661 Off ch=8 n=g5 v=127
63661 Off ch=8 n=g4 v=127
63665 On ch=6 n=f4 v=127
63665 On ch=11 n=a5 v=127
63665 On ch=6 n=f6 v=127
63892 Off ch=6 n=f6 v=127
63892 Off ch=11 n=a5 v=127
63892 Off ch=6 n=f4 v=127
63896 On ch=5 n=e4 v=127
63896 On ch=12 n=a#5 v=127
63896 On ch=8 n=g6 v=127
64008 Off ch=8 n=g6 v=127
64008 Off ch=12 n=a#5 v=127
64012 On ch=1 n=c6 v=127
64012 On ch=11 n=a6 v=127
64124 Off ch=11 n=a6 v=127
64124 Off ch=1 n=c6 v=127
64128 On ch=3 n=d6 v=127
64128 On ch=12 n=a#6 v=127
64355 Off ch=12 n=a#6 v=127
64355 Off ch=3 n=d6 v=127
64355 Off ch=5 n=e4 v=127
64359 On ch=6 n=f4 v=127
64359 On ch=1 n=c6 v=127
64359 On ch=11 n=a6 v=127
64586 Off ch=11 n=a6 v=127
64586 Off ch=1 n=c6 v=127
64586 Off ch=6 n=f4 v=127
64590 On ch=8 n=g4 v=127
64590 On ch=8 n=g6 v=127
64590 On ch=12 n=a#5 v=127
64702 Off ch=12 n=a#5 v=127
64702 Off ch=8 n=g6 v=127
64706 On ch=1 n=c6 v=127
64706 On ch=11 n=a6 v=127
64818 Off ch=11 n=a6 v=127
64818 Off ch=1 n=c6 v=127
64818 Off ch=8 n=g4 v=127
64822 On ch=5 n=e4 v=127
64822 On ch=12 n=a#5 v=127
64822 On ch=8 n=g6 v=127
65049 Off ch=8 n=g6 v=127
65049 Off ch=12 n=a#5 v=127
65049 Off ch=5 n=e4 v=127
65053 On ch=6 n=f4 v=127
65053 On ch=11 n=a5 v=127
65053 On ch=6 n=f6 v=127
65280 Off ch=6 n=f6 v=127
65280 Off ch=11 n=a5 v=127
65280 Off ch=6 n=f4 v=127
65284 On ch=1 n=c3 v=127
65284 On ch=8 n=g6 v=127
65284 On ch=12 n=a#5 v=127
65338 Off ch=12 n=a#5 v=127
65338 Off ch=8 n=g6 v=127
65342 On ch=6 n=f6 v=127
65342 On ch=11 n=a5 v=127
65396 Off ch=11 n=a5 v=127
65396 Off ch=6 n=f6 v=127
65400 On ch=8 n=g6 v=127
65400 On ch=12 n=a#5 v=127
65454 Off ch=12 n=a#5 v=127
65454 Off ch=8 n=g6 v=127
65458 On ch=6 n=f6 v=127
65458 On ch=11 n=a5 v=127
65512 Off ch=11 n=a5 v=127
65512 Off ch=6 n=f6 v=127
65516 On ch=5 n=e6 v=127
65516 On ch=8 n=g5 v=127
65862 Off ch=5 n=e6 v=127
65974 Off ch=8 n=g5 v=127
65974 Off ch=1 n=c3 v=127
65978 On ch=6 n=f5 v=127
65978 On ch=1 n=c6 v=127
65978 On ch=12 n=a#6 v=127
65978 On ch=9 n=g#6 v=127
66051 Off ch=9 n=g#6 v=127
66051 Off ch=12 n=a#6 v=127
66055 On ch=8 n=g6 v=127
66128 Off ch=8 n=g6 v=127
66132 On ch=9 n=g#6 v=127
66205 Off ch=9 n=g#6 v=127
66205 Off ch=1 n=c6 v=127
66209 On ch=2 n=c#6 v=127
66209 On ch=12 n=a#6 v=127
66436 Off ch=12 n=a#6 v=127
66436 Off ch=2 n=c#6 v=127
66440 On ch=12 n=a#5 v=127
66440 On ch=8 n=g6 v=127
66667 Off ch=8 n=g6 v=127
66667 Off ch=12 n=a#5 v=127
66669 Off ch=6 n=f5 v=127
66670 On ch=1 n=c6 v=127
66670 On ch=6 n=f5 v=127
66670 On ch=9 n=g#6 v=127
66897 Off ch=9 n=g#6 v=127
66897 Off ch=1 n=c6 v=127
66901 On ch=8 n=g5 v=127
66901 On ch=5 n=e6 v=127
67128 Off ch=5 n=e6 v=127
67128 Off ch=8 n=g5 v=127
67132 On ch=9 n=g#5 v=127
67132 On ch=6 n=f6 v=127
67361 Off ch=6 n=f5 v=127
67362 On ch=12 n=a#4 v=127
67362 On ch=8 n=g6 v=127
67435 Off ch=8 n=g6 v=127
67435 Off ch=6 n=f6 v=127
67439 On ch=5 n=e6 v=127
67512 Off ch=5 n=e6 v=127
67516 On ch=6 n=f6 v=127
67588 Off ch=9 n=g#5 v=127
67589 Off ch=6 n=f6 v=127
67593 On ch=12 n=a#5 v=127
67593 On ch=8 n=g6 v=127
67820 Off ch=8 n=g6 v=127
67820 Off ch=12 n=a#5 v=127
67824 On ch=9 n=g#5 v=127
67824 On ch=6 n=f6 v=127
68051 Off ch=6 n=f6 v=127
68051 Off ch=9 n=g#5 v=127
68053 Off ch=12 n=a#4 v=127
68054 On ch=1 n=c5 v=127
68054 On ch=8 n=g5 v=127
68054 On ch=8 n=g6 v=127
68108 Off ch=8 n=g6 v=127
68112 On ch=6 n=f6 v=127
68166 Off ch=6 n=f6 v=127
68170 On ch=8 n=g6 v=127
68224 Off ch=8 n=g6 v=127
68228 On ch=6 n=f6 v=127
68282 Off ch=6 n=f6 v=127
68286 On ch=5 n=e6 v=127
68513 Off ch=8 n=g5 v=127
68517 On ch=12 n=a#5 v=127
68744 Off ch=12 n=a#5 v=127
68744 Off ch=5 n=e6 v=127
68746 Off ch=1 n=c5 v=127
68747 On ch=1 n=c6 v=127
68747 On ch=6 n=f5 v=127
68747 On ch=9 n=g#6 v=127
68747 On ch=12 n=a#6 v=127
68820 Off ch=12 n=a#6 v=127
68820 Off ch=9 n=g#6 v=127
68824 On ch=8 n=g6 v=127
68897 Off ch=8 n=g6 v=127
68901 On ch=9 n=g#6 v=127
68974 Off ch=9 n=g#6 v=127
68974 Off ch=1 n=c6 v=127
68978 On ch=2 n=c#6 v=127
68978 On ch=12 n=a#6 v=127
69205 Off ch=12 n=a#6 v=127
69205 Off ch=2 n=c#6 v=127
69209 On ch=12 n=a#5 v=127
69209 On ch=8 n=g6 v=127
69436 Off ch=8 n=g6 v=127
69436 Off ch=12 n=a#5 v=127
69438 Off ch=6 n=f5 v=127
69439 On ch=6 n=f5 v=127
69439 On ch=9 n=g#5 v=127
69439 On ch=1 n=c7 v=127
69666 Off ch=1 n=c7 v=127
69666 Off ch=9 n=g#5 v=127
69670 On ch=8 n=g5 v=127
69670 On ch=5 n=e6 v=127
69897 Off ch=5 n=e6 v=127
69897 Off ch=8 n=g5 v=127
69901 On ch=9 n=g#5 v=127
69901 On ch=6 n=f6 v=127
70130 Off ch=6 n=f5 v=127
70131 On ch=12 n=a#4 v=127
70131 On ch=8 n=g6 v=127
70204 Off ch=8 n=g6 v=127
70204 Off ch=6 n=f6 v=127
70208 On ch=5 n=e6 v=127
70281 Off ch=5 n=e6 v=127
70285 On ch=6 n=f6 v=127
70357 Off ch=9 n=g#5 v=127
70358 Off ch=6 n=f6 v=127
70362 On ch=12 n=a#5 v=127
70362 On ch=8 n=g6 v=127
70589 Off ch=8 n=g6 v=127
70589 Off ch=12 n=a#5 v=127
70593 On ch=9 n=g#5 v=127
70593 On ch=6 n=f6 v=127
70820 Off ch=6 n=f6 v=127
70820 Off ch=9 n=g#5 v=127
70822 Off ch=12 n=a#4 v=127
70823 On ch=8 n=g5 v=127
70823 On ch=1 n=c5 v=127
70823 On ch=8 n=g6 v=127
70877 Off ch=8 n=g6 v=127
70881 On ch=6 n=f6 v=127
70935 Off ch=6 n=f6 v=127
70939 On ch=8 n=g6 v=127
70993 Off ch=8 n=g6 v=127
70997 On ch=6 n=f6 v=127
71051 Off ch=6 n=f6 v=127
71055 On ch=5 n=e6 v=127
71491 Off ch=5 n=e6 v=127
71513 Off ch=1 n=c5 v=127
71513 Off ch=8 n=g5 v=127
71517 On ch=1 n=c5 v=127
71517 On ch=5 n=e5 v=127
71590 Off ch=5 n=e5 v=127
71594 On ch=6 n=f5 v=127
71667 Off ch=6 n=f5 v=127
71671 On ch=8 n=g5 v=127
71744 Off ch=8 n=g5 v=127
71744 Off ch=1 n=c5 v=127
71748 On ch=6 n=f5 v=127
71748 On ch=11 n=a5 v=127
71821 Off ch=11 n=a5 v=127
71825 On ch=12 n=a#5 v=127
71898 Off ch=12 n=a#5 v=127
71902 On ch=1 n=c6 v=127
71975 Off ch=1 n=c6 v=127
71975 Off ch=6 n=f5 v=127
71979 On ch=12 n=a#5 v=127
71979 On ch=3 n=d6 v=127
72052 Off ch=3 n=d6 v=127
72056 On ch=1 n=c6 v=127
72123 Off ch=12 n=a#5 v=127
72129 Off ch=1 n=c6 v=127
72133 On ch=12 n=a#5 v=127
72206 Off ch=12 n=a#5 v=127
72210 On ch=11 n=a5 v=127
72210 On ch=1 n=c6 v=127
72437 Off ch=1 n=c6 v=127
72437 Off ch=11 n=a5 v=127
72441 On ch=8 n=g5 v=127
72441 On ch=12 n=a#5 v=127
72668 Off ch=12 n=a#5 v=127
72668 Off ch=8 n=g5 v=127
72672 On ch=6 n=f5 v=127
72672 On ch=11 n=a5 v=127
72899 Off ch=11 n=a5 v=127
72899 Off ch=6 n=f5 v=127
72903 On ch=8 n=g5 v=127
72903 On ch=12 n=a#5 v=127
73018 On ch=8 n=g6 v=127
73130 Off ch=8 n=g6 v=127
73130 Off ch=8 n=g5 v=127
73131 Off ch=12 n=a#5 v=127
73133 On ch=5 n=e5 v=127
73133 On ch=12 n=a#5 v=127
73360 Off ch=12 n=a#5 v=127
73360 Off ch=5 n=e5 v=127
73364 On ch=6 n=f5 v=127
73364 On ch=11 n=a5 v=127
73591 Off ch=11 n=a5 v=127
73591 Off ch=6 n=f5 v=127
73595 On ch=1 n=c5 v=127
73595 On ch=12 n=a#5 v=127
73595 On ch=6 n=f5 v=127
73649 Off ch=12 n=a#5 v=127
73653 On ch=11 n=a5 v=127
73707 Off ch=11 n=a5 v=127
73711 On ch=12 n=a#5 v=127
73765 Off ch=12 n=a#5 v=127
73769 On ch=11 n=a5 v=127
73823 Off ch=11 n=a5 v=127
73823 Off ch=6 n=f5 v=127
73827 On ch=5 n=e5 v=127
73827 On ch=8 n=g5 v=127
74054 Off ch=1 n=c5 v=127
74058 On ch=1 n=c4 v=127
74285 Off ch=1 n=c4 v=127
74285 Off ch=8 n=g5 v=127
74285 Off ch=5 n=e5 v=127
74289 On ch=1 n=c5 v=127
74289 On ch=5 n=e5 v=127
74362 Off ch=5 n=e5 v=127
74366 On ch=6 n=f5 v=127
74439 Off ch=6 n=f5 v=127
74443 On ch=8 n=g5 v=127
74516 Off ch=8 n=g5 v=127
74516 Off ch=1 n=c5 v=127
74520 On ch=6 n=f5 v=127
74520 On ch=11 n=a5 v=127
74593 Off ch=11 n=a5 v=127
74597 On ch=12 n=a#5 v=127
74670 Off ch=12 n=a#5 v=127
74674 On ch=1 n=c6 v=127
74747 Off ch=1 n=c6 v=127
74747 Off ch=6 n=f5 v=127
74751 On ch=12 n=a#5 v=127
74751 On ch=3 n=d6 v=127
74824 Off ch=3 n=d6 v=127
74828 On ch=1 n=c6 v=127
74895 Off ch=12 n=a#5 v=127
74901 Off ch=1 n=c6 v=127
74905 On ch=12 n=a#5 v=127
74978 Off ch=12 n=a#5 v=127
74982 On ch=11 n=a5 v=127
74982 On ch=1 n=c6 v=127
75209 Off ch=1 n=c6 v=127
75209 Off ch=11 n=a5 v=127
75213 On ch=8 n=g5 v=127
75213 On ch=5 n=e6 v=127
75440 Off ch=5 n=e6 v=127
75440 Off ch=8 n=g5 v=127
75444 On ch=6 n=f5 v=127
75444 On ch=6 n=f6 v=127
75671 Off ch=6 n=f6 v=127
75671 Off ch=6 n=f5 v=127
75675 On ch=8 n=g5 v=127
75675 On ch=12 n=a#5 v=127
75790 On ch=8 n=g6 v=127
75902 Off ch=8 n=g6 v=127
75902 Off ch=8 n=g5 v=127
75903 Off ch=12 n=a#5 v=127
75905 On ch=5 n=e5 v=127
75905 On ch=12 n=a#5 v=127
76132 Off ch=12 n=a#5 v=127
76132 Off ch=5 n=e5 v=127
76136 On ch=6 n=f5 v=127
76136 On ch=11 n=a5 v=127
76363 Off ch=11 n=a5 v=127
76363 Off ch=6 n=f5 v=127
76367 On ch=1 n=c5 v=127
76367 On ch=6 n=f5 v=127
76367 On ch=12 n=a#5 v=127
76421 Off ch=12 n=a#5 v=127
76425 On ch=11 n=a5 v=127
76479 Off ch=11 n=a5 v=127
76483 On ch=12 n=a#5 v=127
76537 Off ch=12 n=a#5 v=127
76541 On ch=11 n=a5 v=127
76595 Off ch=11 n=a5 v=127
76595 Off ch=6 n=f5 v=127
76599 On ch=5 n=e5 v=127
76599 On ch=8 n=g5 v=127
76826 Off ch=1 n=c5 v=127
76830 On ch=1 n=c4 v=127
77038 Off ch=8 n=g5 v=127
77057 Off ch=1 n=c4 v=127
77057 Off ch=5 n=e5 v=127
77061 On ch=11 n=a4 v=127
77061 On ch=1 n=c5 v=127
77134 Off ch=1 n=c5 v=127
77138 On ch=3 n=d5 v=127
77211 Off ch=3 n=d5 v=127
77215 On ch=1 n=c5 v=127
77292 On ch=11 n=a5 v=127
77292 On ch=1 n=c6 v=127
77443 Off ch=1 n=c5 v=127
77519 Off ch=1 n=c6 v=127
77519 Off ch=11 n=a5 v=127
77519 Off ch=11 n=a4 v=127
77523 On ch=12 n=a#4 v=127
77523 On ch=3 n=d5 v=127
77750 Off ch=3 n=d5 v=127
77750 Off ch=12 n=a#4 v=127
77754 On ch=11 n=a4 v=127
77754 On ch=1 n=c5 v=127
77827 Off ch=1 n=c5 v=127
77831 On ch=3 n=d5 v=127
77904 Off ch=3 n=d5 v=127
77908 On ch=1 n=c5 v=127
77985 On ch=1 n=c6 v=127
77985 On ch=11 n=a5 v=127
78136 Off ch=1 n=c5 v=127
78212 Off ch=11 n=a5 v=127
78212 Off ch=1 n=c6 v=127
78212 Off ch=11 n=a4 v=127
78216 On ch=8 n=g4 v=127
78216 On ch=12 n=a#4 v=127
78443 Off ch=12 n=a#4 v=127
78443 Off ch=8 n=g4 v=127
78447 On ch=6 n=f4 v=127
78447 On ch=11 n=a4 v=127
78520 Off ch=11 n=a4 v=127
78524 On ch=12 n=a#4 v=127
78597 Off ch=12 n=a#4 v=127
78601 On ch=11 n=a4 v=127
78674 Off ch=11 n=a4 v=127
78678 On ch=11 n=a5 v=127
78678 On ch=1 n=c6 v=127
78905 Off ch=1 n=c6 v=127
78905 Off ch=11 n=a5 v=127
78905 Off ch=6 n=f4 v=127
78909 On ch=1 n=c4 v=127
78909 On ch=8 n=g5 v=127
78909 On ch=12 n=a#5 v=127
79136 Off ch=12 n=a#5 v=127
79136 Off ch=8 n=g5 v=127
79136 Off ch=1 n=c4 v=127
79140 On ch=6 n=f3 v=127
79140 On ch=11 n=a5 v=127
79140 On ch=1 n=c6 v=127
79194 Off ch=1 n=c6 v=127
79194 Off ch=11 n=a5 v=127
79198 On ch=8 n=g5 v=127
79198 On ch=12 n=a#5 v=127
79252 Off ch=12 n=a#5 v=127
79252 Off ch=8 n=g5 v=127
79256 On ch=11 n=a5 v=127
79256 On ch=1 n=c6 v=127
79310 Off ch=1 n=c6 v=127
79310 Off ch=11 n=a5 v=127
79314 On ch=8 n=g5 v=127
79314 On ch=12 n=a#5 v=127
79368 Off ch=12 n=a#5 v=127
79368 Off ch=8 n=g5 v=127
79372 On ch=11 n=a5 v=127
79372 On ch=6 n=f5 v=127
79599 Off ch=6 n=f3 v=127
79603 On ch=6 n=f4 v=127
79830 Off ch=6 n=f4 v=127
79830 Off ch=6 n=f5 v=127
79830 Off ch=11 n=a5 v=127
79834 On ch=11 n=a4 v=127
79834 On ch=1 n=c5 v=127
79907 Off ch=1 n=c5 v=127
79911 On ch=3 n=d5 v=127
79984 Off ch=3 n=d5 v=127
79988 On ch=1 n=c5 v=127
80065 On ch=1 n=c6 v=127
80065 On ch=11 n=a5 v=127
80216 Off ch=1 n=c5 v=127
80292 Off ch=11 n=a5 v=127
80292 Off ch=1 n=c6 v=127
80292 Off ch=11 n=a4 v=127
80296 On ch=12 n=a#4 v=127
80296 On ch=3 n=d5 v=127
80523 Off ch=3 n=d5 v=127
80523 Off ch=12 n=a#4 v=127
80527 On ch=11 n=a4 v=127
80527 On ch=1 n=c5 v=127
80600 Off ch=1 n=c5 v=127
80604 On ch=3 n=d5 v=127
80677 Off ch=3 n=d5 v=127
80681 On ch=1 n=c5 v=127
80754 Off ch=1 n=c5 v=127
80758 On ch=11 n=a5 v=127
80758 On ch=1 n=c6 v=127
80985 Off ch=1 n=c6 v=127
80985 Off ch=11 n=a5 v=127
80985 Off ch=11 n=a4 v=127
80989 On ch=5 n=e4 v=127
80989 On ch=12 n=a#5 v=127
80989 On ch=8 n=g5 v=127
81216 Off ch=8 n=g5 v=127
81216 Off ch=12 n=a#5 v=127
81216 Off ch=5 n=e4 v=127
81220 On ch=6 n=f4 v=127
81220 On ch=11 n=a5 v=127
81220 On ch=6 n=f5 v=127
81293 Off ch=11 n=a5 v=127
81297 On ch=8 n=g5 v=127
81364 Off ch=6 n=f5 v=127
81370 Off ch=8 n=g5 v=127
81374 On ch=6 n=f5 v=127
81447 Off ch=6 n=f4 v=127
81451 On ch=1 n=c5 v=127
81451 On ch=11 n=a5 v=127
81674 Off ch=6 n=f5 v=127
81678 Off ch=11 n=a5 v=127
81682 On ch=1 n=c4 v=127
81682 On ch=8 n=g5 v=127
81682 On ch=5 n=e5 v=127
81908 Off ch=1 n=c5 v=127
81909 Off ch=5 n=e5 v=127
81909 Off ch=8 n=g5 v=127
81909 Off ch=1 n=c4 v=127
81913 On ch=6 n=f4 v=127
81913 On ch=6 n=f6 v=127
81986 Off ch=6 n=f6 v=127
81990 On ch=5 n=e6 v=127
82063 Off ch=5 n=e6 v=127
82067 On ch=6 n=f6 v=127
82144 On ch=1 n=c6 v=127
82217 Off ch=1 n=c6 v=127
82221 On ch=12 n=a#5 v=127
82294 Off ch=12 n=a#5 v=127
82295 Off ch=6 n=f6 v=127
82297 On ch=1 n=c6 v=127
82369 Off ch=6 n=f4 v=127
82374 On ch=11 n=a5 v=127
82447 Off ch=11 n=a5 v=127
82451 On ch=8 n=g5 v=127
82524 Off ch=8 n=g5 v=127
82525 Off ch=1 n=c6 v=127
82527 On ch=11 n=a5 v=127
82604 On ch=6 n=f5 v=127
82677 Off ch=6 n=f5 v=127
82681 On ch=5 n=e5 v=127
82754 Off ch=5 n=e5 v=127
82755 Off ch=11 n=a5 v=127
82757 On ch=6 n=f5 v=127
82834 On ch=1 n=c5 v=127
82907 Off ch=1 n=c5 v=127
82911 On ch=12 n=a#4 v=127
82984 Off ch=12 n=a#4 v=127
82985 Off ch=6 n=f5 v=127
82987 On ch=1 n=c5 v=127
83064 On ch=11 n=a4 v=127
83137 Off ch=11 n=a4 v=127
83141 On ch=8 n=g4 v=127
83214 Off ch=8 n=g4 v=127
83215 Off ch=1 n=c5 v=127
83217 On ch=11 n=a4 v=127
83294 On ch=6 n=f4 v=127
83367 Off ch=6 n=f4 v=127
83371 On ch=5 n=e4 v=127
83444 Off ch=5 n=e4 v=127
83445 Off ch=11 n=a4 v=127
83447 On ch=6 n=f4 v=127
83524 On ch=1 n=c4 v=127
83597 Off ch=1 n=c4 v=127
83601 On ch=12 n=a#3 v=127
83674 Off ch=12 n=a#3 v=127
83675 Off ch=6 n=f4 v=127
83677 On ch=1 n=c4 v=127
83754 On ch=11 n=a3 v=127
83827 Off ch=11 n=a3 v=127
83831 On ch=8 n=g3 v=127
83904 Off ch=8 n=g3 v=127
83905 Off ch=1 n=c4 v=127
83907 On ch=11 n=a3 v=127
83980 Off ch=11 n=a3 v=127
83984 On ch=6 n=f3 v=127
84176 On ch=6 n=f5 v=127
84211 Off ch=6 n=f5 v=127
84215 On ch=8 n=g5 v=127
84250 Off ch=8 n=g5 v=127
84254 On ch=11 n=a5 v=127
84289 Off ch=11 n=a5 v=127
84293 On ch=12 n=a#5 v=127
84328 Off ch=12 n=a#5 v=127
84332 On ch=1 n=c6 v=127
84367 Off ch=1 n=c6 v=127
84371 On ch=3 n=d6 v=127
84406 Off ch=3 n=d6 v=127
84410 On ch=5 n=e6 v=127
84445 Off ch=5 n=e6 v=127
84445 Off ch=6 n=f3 v=127
84449 On ch=11 n=a4 v=127
84449 On ch=6 n=f6 v=127
84676 Off ch=11 n=a4 v=127
84680 On ch=12 n=a#4 v=127
84753 Off ch=6 n=f6 v=127
84757 On ch=3 n=d6 v=127
84792 Off ch=3 n=d6 v=127
84796 On ch=5 n=e6 v=127
84831 Off ch=5 n=e6 v=127
84835 On ch=6 n=f6 v=127
84870 Off ch=6 n=f6 v=127
84874 On ch=8 n=g6 v=127
84909 Off ch=8 n=g6 v=127
84909 Off ch=12 n=a#4 v=127
84913 On ch=1 n=c5 v=127
84913 On ch=11 n=a6 v=127
84967 Off ch=11 n=a6 v=127
84971 On ch=8 n=g6 v=127
85025 Off ch=8 n=g6 v=127
85029 On ch=11 n=a6 v=127
85083 Off ch=11 n=a6 v=127
85087 On ch=8 n=g6 v=127
85141 Off ch=8 n=g6 v=127
85145 On ch=1 n=c4 v=127
85145 On ch=11 n=a6 v=127
85199 Off ch=11 n=a6 v=127
85203 On ch=8 n=g6 v=127
85257 Off ch=8 n=g6 v=127
85261 On ch=6 n=f6 v=127
85371 Off ch=1 n=c5 v=127
85372 Off ch=6 n=f6 v=127
85372 Off ch=1 n=c4 v=127
85376 On ch=6 n=f5 v=127
85376 On ch=6 n=f6 v=127
85603 Off ch=6 n=f6 v=127
85603 Off ch=6 n=f5 v=127
85607 On ch=1 n=c5 v=127
85607 On ch=1 n=c6 v=127
85834 Off ch=1 n=c6 v=127
85834 Off ch=1 n=c5 v=127
85838 On ch=6 n=f4 v=127
85838 On ch=6 n=f5 v=127
86065 Off ch=6 n=f5 v=127
86065 Off ch=6 n=f4 v=127
86069 On ch=1 n=c5 v=127
86069 On ch=1 n=c6 v=127
86296 Off ch=1 n=c6 v=127
86296 Off ch=1 n=c5 v=127
86300 On ch=8 n=g4 v=127
86300 On ch=8 n=g5 v=127
86527 Off ch=8 n=g5 v=127
86527 Off ch=8 n=g4 v=127
86531 On ch=1 n=c4 v=127
86531 On ch=1 n=c5 v=127
86758 Off ch=1 n=c5 v=127
86758 Off ch=1 n=c4 v=127
86762 On ch=6 n=f4 v=127
86762 On ch=6 n=f5 v=127
86989 Off ch=6 n=f5 v=127
86989 Off ch=6 n=f4 v=127
86993 On ch=1 n=c4 v=127
86993 On ch=1 n=c5 v=127
87220 Off ch=1 n=c5 v=127
87220 Off ch=1 n=c4 v=127
87224 On ch=6 n=f3 v=127
87224 On ch=6 n=f4 v=127
87451 Off ch=6 n=f4 v=127
87451 Off ch=6 n=f3 v=127
87476 On ch=12 n=a#4 v=127
87476 On ch=12 n=a#5 v=127
87552 Off ch=12 n=a#5 v=127
87560 On ch=11 n=a5 v=127
87636 Off ch=11 n=a5 v=127
87643 On ch=8 n=g5 v=127
87715 Off ch=12 n=a#4 v=127
87719 Off ch=8 n=g5 v=127
87726 On ch=1 n=c5 v=127
87726 On ch=1 n=c6 v=127
87965 Off ch=1 n=c6 v=127
87965 Off ch=1 n=c5 v=127
87976 On ch=1 n=c4 v=127
87976 On ch=1 n=c5 v=127
88223 Off ch=1 n=c5 v=127
88223 Off ch=1 n=c4 v=127
88257 On ch=6 n=f4 v=127
88257 On ch=6 n=f5 v=127
88257 On ch=6 n=f3 v=127
90057 Off ch=6 n=f3 v=127
90057 Off ch=6 n=f5 v=127
90057 Off ch=6 n=f4 v=127
95232 Meta TrkEnd
TrkEnd
