MFile 0 1 384
MTrk
0 Meta Copyright "(C) John Sankey 1998"
0 PrCh ch=1 p=6
0 Pb ch=1 v=8192
0 PrCh ch=2 p=6
0 Pb ch=2 v=7602
0 PrCh ch=3 p=6
0 Pb ch=3 v=7920
0 PrCh ch=4 p=6
0 Pb ch=4 v=7839
0 PrCh ch=5 p=6
0 Pb ch=5 v=7632
0 PrCh ch=6 p=6
0 Pb ch=6 v=8112
0 PrCh ch=7 p=6
0 Pb ch=7 v=7567
0 PrCh ch=8 p=6
0 Pb ch=8 v=8062
0 PrCh ch=9 p=6
0 Pb ch=9 v=7680
0 PrCh ch=11 p=6
0 Pb ch=11 v=7728
0 PrCh ch=12 p=6
0 Pb ch=12 v=7984
0 PrCh ch=13 p=6
0 Pb ch=13 v=7639
0 Tempo 500000
115 On ch=3 n=d3 v=127
230 On ch=3 n=d5 v=127
345 Off ch=3 n=d5 v=127
345 On ch=6 n=f5 v=127
460 Off ch=6 n=f5 v=127
460 On ch=11 n=a5 v=127
570 Off ch=3 n=d3 v=127
575 Off ch=11 n=a5 v=127
575 On ch=6 n=f6 v=127
690 On ch=11 n=a3 v=127
805 Off ch=11 n=a3 v=127
805 On ch=3 n=d4 v=127
920 Off ch=3 n=d4 v=127
920 On ch=6 n=f4 v=127
1035 Off ch=6 n=f4 v=127
1035 On ch=11 n=a5 v=127
1035 On ch=11 n=a4 v=127
1150 Off ch=6 n=f6 v=127
1150 On ch=5 n=e6 v=127
1265 Off ch=5 n=e6 v=127
1265 On ch=6 n=f6 v=127
1380 Off ch=6 n=f6 v=127
1380 On ch=3 n=d6 v=127
1495 Off ch=3 n=d6 v=127
1495 Off ch=11 n=a4 v=127
1495 Off ch=11 n=a5 v=127
1495 On ch=12 n=a#5 v=127
1495 On ch=8 n=g4 v=127
1495 On ch=5 n=e6 v=127
1610 Off ch=5 n=e6 v=127
1610 On ch=3 n=d6 v=127
1725 Off ch=3 n=d6 v=127
1725 On ch=5 n=e6 v=127
1840 Off ch=5 n=e6 v=127
1840 On ch=2 n=c#6 v=127
1955 Off ch=2 n=c#6 v=127
1955 Off ch=12 n=a#5 v=127
1955 On ch=3 n=d6 v=127
2070 Off ch=8 n=g4 v=127
2070 On ch=6 n=f4 v=127
2185 Off ch=6 n=f4 v=127
2185 On ch=3 n=d5 v=127
2300 Off ch=3 n=d6 v=127
2300 On ch=11 n=a5 v=127
2415 Off ch=11 n=a5 v=127
2415 On ch=5 n=e6 v=127
2530 Off ch=3 n=d5 v=127
2530 On ch=5 n=e4 v=127
2645 Off ch=5 n=e4 v=127
2645 On ch=2 n=c#5 v=127
2760 Off ch=5 n=e6 v=127
2760 On ch=11 n=a5 v=127
2875 Off ch=11 n=a5 v=127
2875 Off ch=2 n=c#5 v=127
2875 On ch=3 n=d4 v=127
2875 On ch=6 n=f6 v=127
2990 On ch=11 n=a5 v=127
3105 Off ch=11 n=a5 v=127
3105 Off ch=3 n=d4 v=127
3105 On ch=8 n=g5 v=127
3105 On ch=12 n=a#5 v=127
3220 Off ch=6 n=f6 v=127
3220 On ch=5 n=e6 v=127
3335 Off ch=5 n=e6 v=127
3335 Off ch=12 n=a#5 v=127
3335 Off ch=8 n=g5 v=127
3335 On ch=6 n=f5 v=127
3335 On ch=3 n=d6 v=127
3450 On ch=11 n=a5 v=127
3565 Off ch=11 n=a5 v=127
3565 Off ch=6 n=f5 v=127
3565 On ch=5 n=e5 v=127
3565 On ch=8 n=g5 v=127
3680 Off ch=3 n=d6 v=127
3680 On ch=2 n=c#6 v=127
3795 Off ch=2 n=c#6 v=127
3795 Off ch=8 n=g5 v=127
3795 Off ch=5 n=e5 v=127
3795 On ch=3 n=d4 v=127
3795 On ch=6 n=f6 v=127
3910 Off ch=6 n=f6 v=127
3910 On ch=11 n=a5 v=127
4025 Off ch=11 n=a5 v=127
4025 Off ch=3 n=d4 v=127
4025 On ch=8 n=g4 v=127
4025 On ch=12 n=a#5 v=127
4140 On ch=5 n=e6 v=127
4255 Off ch=5 n=e6 v=127
4255 Off ch=12 n=a#5 v=127
4255 Off ch=8 n=g4 v=127
4255 On ch=6 n=f4 v=127
4255 On ch=3 n=d6 v=127
4370 Off ch=3 n=d6 v=127
4370 On ch=11 n=a5 v=127
4485 Off ch=11 n=a5 v=127
4485 Off ch=6 n=f4 v=127
4485 On ch=5 n=e4 v=127
4485 On ch=8 n=g5 v=127
4600 On ch=2 n=c#6 v=127
4715 Off ch=2 n=c#6 v=127
4715 Off ch=8 n=g5 v=127
4715 Off ch=5 n=e4 v=127
4715 On ch=3 n=d4 v=127
4715 On ch=6 n=f6 v=127
4830 On ch=11 n=a5 v=127
4945 Off ch=11 n=a5 v=127
4945 Off ch=3 n=d4 v=127
4945 On ch=8 n=g5 v=127
4945 On ch=12 n=a#5 v=127
5060 Off ch=6 n=f6 v=127
5060 On ch=5 n=e6 v=127
5175 Off ch=5 n=e6 v=127
5175 Off ch=12 n=a#5 v=127
5175 Off ch=8 n=g5 v=127
5175 On ch=6 n=f5 v=127
5175 On ch=3 n=d6 v=127
5290 On ch=11 n=a5 v=127
5405 Off ch=11 n=a5 v=127
5405 Off ch=6 n=f5 v=127
5405 On ch=5 n=e5 v=127
5405 On ch=8 n=g5 v=127
5520 Off ch=3 n=d6 v=127
5520 On ch=2 n=c#6 v=127
5635 Off ch=2 n=c#6 v=127
5635 Off ch=8 n=g5 v=127
5635 Off ch=5 n=e5 v=127
5635 On ch=3 n=d4 v=127
5635 On ch=6 n=f6 v=127
5750 Off ch=6 n=f6 v=127
5750 On ch=11 n=a5 v=127
5865 Off ch=11 n=a5 v=127
5865 Off ch=3 n=d4 v=127
5865 On ch=8 n=g4 v=127
5865 On ch=12 n=a#5 v=127
5980 On ch=5 n=e6 v=127
6095 Off ch=5 n=e6 v=127
6095 Off ch=12 n=a#5 v=127
6095 Off ch=8 n=g4 v=127
6095 On ch=6 n=f4 v=127
6095 On ch=3 n=d6 v=127
6210 Off ch=3 n=d6 v=127
6210 On ch=11 n=a5 v=127
6325 Off ch=11 n=a5 v=127
6325 Off ch=6 n=f4 v=127
6325 On ch=5 n=e4 v=127
6325 On ch=8 n=g5 v=127
6440 On ch=2 n=c#6 v=127
6555 Off ch=2 n=c#6 v=127
6555 Off ch=8 n=g5 v=127
6555 Off ch=5 n=e4 v=127
6555 On ch=6 n=f4 v=127
6555 On ch=11 n=a6 v=127
6670 On ch=11 n=a5 v=127
6785 Off ch=11 n=a5 v=127
6785 Off ch=6 n=f4 v=127
6785 On ch=8 n=g4 v=127
6785 On ch=12 n=a#5 v=127
6900 Off ch=12 n=a#5 v=127
6900 Off ch=11 n=a6 v=127
6900 On ch=8 n=g6 v=127
7015 Off ch=8 n=g6 v=127
7015 Off ch=8 n=g4 v=127
7015 On ch=11 n=a4 v=127
7015 On ch=6 n=f6 v=127
7130 On ch=3 n=d6 v=127
7245 Off ch=3 n=d6 v=127
7245 On ch=11 n=a3 v=127
7245 On ch=11 n=a5 v=127
7360 Off ch=11 n=a5 v=127
7360 Off ch=6 n=f6 v=127
7360 On ch=2 n=c#6 v=127
7360 On ch=5 n=e6 v=127
7470 Off ch=11 n=a4 v=127
7475 Off ch=5 n=e6 v=127
7475 Off ch=2 n=c#6 v=127
7475 Off ch=11 n=a3 v=127
7475 On ch=3 n=d6 v=127
7475 On ch=3 n=d4 v=127
7475 On ch=6 n=f6 v=127
7590 Off ch=3 n=d6 v=127
7590 On ch=11 n=a5 v=127
7705 Off ch=6 n=f6 v=127
7705 Off ch=3 n=d4 v=127
7705 On ch=12 n=a#5 v=127
7705 On ch=3 n=d5 v=127
7743 Off ch=11 n=a5 v=127
7820 On ch=11 n=a5 v=127
7858 Off ch=12 n=a#5 v=127
7920 Off ch=3 n=d5 v=127
7934 On ch=2 n=c#6 v=127
7934 On ch=8 n=g5 v=127
7934 On ch=3 n=d5 v=127
7972 Off ch=11 n=a5 v=127
8049 On ch=13 n=b5 v=127
8087 Off ch=2 n=c#6 v=127
8149 Off ch=3 n=d5 v=127
8149 Off ch=8 n=g5 v=127
8163 On ch=3 n=d6 v=127
8163 On ch=8 n=g5 v=127
8163 On ch=3 n=d5 v=127
8201 Off ch=13 n=b5 v=127
8278 On ch=13 n=b5 v=127
8316 Off ch=3 n=d6 v=127
8378 Off ch=3 n=d5 v=127
8378 Off ch=8 n=g5 v=127
8392 On ch=5 n=e6 v=127
8392 On ch=2 n=c#5 v=127
8430 Off ch=13 n=b5 v=127
8507 On ch=11 n=a5 v=127
8545 Off ch=5 n=e6 v=127
8607 Off ch=2 n=c#5 v=127
8621 On ch=9 n=g#5 v=127
8621 On ch=5 n=e5 v=127
8621 On ch=1 n=c5 v=127
8659 Off ch=11 n=a5 v=127
8736 On ch=11 n=a5 v=127
8774 Off ch=9 n=g#5 v=127
8836 Off ch=1 n=c5 v=127
8836 Off ch=5 n=e5 v=127
8850 On ch=13 n=b5 v=127
8850 On ch=5 n=e5 v=127
8850 On ch=1 n=c5 v=127
8888 Off ch=11 n=a5 v=127
8965 On ch=11 n=a5 v=127
9003 Off ch=13 n=b5 v=127
9065 Off ch=1 n=c5 v=127
9065 Off ch=5 n=e5 v=127
9079 On ch=1 n=c6 v=127
9079 On ch=5 n=e5 v=127
9079 On ch=1 n=c5 v=127
9117 Off ch=11 n=a5 v=127
9194 On ch=11 n=a5 v=127
9232 Off ch=1 n=c6 v=127
9294 Off ch=1 n=c5 v=127
9294 Off ch=5 n=e5 v=127
9308 On ch=3 n=d5 v=127
9308 On ch=13 n=b4 v=127
9308 On ch=3 n=d6 v=127
9346 Off ch=11 n=a5 v=127
9423 Off ch=3 n=d6 v=127
9423 On ch=8 n=g5 v=127
9524 Off ch=13 n=b4 v=127
9524 Off ch=3 n=d5 v=127
9538 On ch=7 n=f#5 v=127
9538 On ch=3 n=d5 v=127
9538 On ch=12 n=a#4 v=127
9576 Off ch=8 n=g5 v=127
9653 On ch=8 n=g5 v=127
9691 Off ch=7 n=f#5 v=127
9753 Off ch=12 n=a#4 v=127
9753 Off ch=3 n=d5 v=127
9767 On ch=11 n=a5 v=127
9767 On ch=3 n=d5 v=127
9767 On ch=12 n=a#4 v=127
9805 Off ch=8 n=g5 v=127
9882 On ch=8 n=g5 v=127
9920 Off ch=11 n=a5 v=127
9982 Off ch=12 n=a#4 v=127
9982 Off ch=3 n=d5 v=127
9996 On ch=12 n=a#5 v=127
9996 On ch=3 n=d5 v=127
9996 On ch=12 n=a#4 v=127
10034 Off ch=8 n=g5 v=127
10111 On ch=8 n=g5 v=127
10149 Off ch=12 n=a#5 v=127
10211 Off ch=12 n=a#4 v=127
10211 Off ch=3 n=d5 v=127
10225 Off ch=8 n=g5 v=127
10225 On ch=1 n=c5 v=127
10225 On ch=11 n=a4 v=127
10225 On ch=1 n=c6 v=127
10340 On ch=5 n=e5 v=127
10455 Off ch=5 n=e5 v=127
10455 Off ch=11 n=a4 v=127
10455 Off ch=1 n=c5 v=127
10455 On ch=3 n=d5 v=127
10455 On ch=12 n=a#4 v=127
10455 On ch=6 n=f5 v=127
10570 Off ch=1 n=c6 v=127
10570 On ch=3 n=d6 v=127
10685 Off ch=3 n=d6 v=127
10685 Off ch=6 n=f5 v=127
10685 Off ch=12 n=a#4 v=127
10685 Off ch=3 n=d5 v=127
10685 On ch=1 n=c5 v=127
10685 On ch=11 n=a4 v=127
10685 On ch=1 n=c6 v=127
10800 On ch=6 n=f5 v=127
10915 Off ch=6 n=f5 v=127
10915 Off ch=11 n=a4 v=127
10915 Off ch=1 n=c5 v=127
10915 On ch=12 n=a#4 v=127
10915 On ch=8 n=g4 v=127
10915 On ch=5 n=e5 v=127
11030 Off ch=1 n=c6 v=127
11030 On ch=12 n=a#5 v=127
11145 Off ch=12 n=a#5 v=127
11145 Off ch=5 n=e5 v=127
11145 Off ch=8 n=g4 v=127
11145 Off ch=12 n=a#4 v=127
11145 On ch=11 n=a5 v=127
11145 On ch=6 n=f6 v=127
11260 Off ch=6 n=f6 v=127
11260 On ch=1 n=c6 v=127
11375 Off ch=1 n=c6 v=127
11375 Off ch=11 n=a5 v=127
11375 On ch=12 n=a#5 v=127
11375 On ch=3 n=d6 v=127
11490 On ch=8 n=g6 v=127
11605 Off ch=8 n=g6 v=127
11605 Off ch=3 n=d6 v=127
11605 Off ch=12 n=a#5 v=127
11605 On ch=11 n=a5 v=127
11605 On ch=6 n=f6 v=127
11720 Off ch=6 n=f6 v=127
11720 On ch=1 n=c6 v=127
11835 Off ch=1 n=c6 v=127
11835 Off ch=11 n=a5 v=127
11835 On ch=8 n=g5 v=127
11835 On ch=12 n=a#5 v=127
11950 On ch=5 n=e6 v=127
12065 Off ch=5 n=e6 v=127
12065 Off ch=12 n=a#5 v=127
12065 Off ch=8 n=g5 v=127
12065 On ch=1 n=c5 v=127
12065 On ch=11 n=a4 v=127
12065 On ch=1 n=c6 v=127
12180 On ch=5 n=e5 v=127
12295 Off ch=5 n=e5 v=127
12295 Off ch=11 n=a4 v=127
12295 Off ch=1 n=c5 v=127
12295 On ch=3 n=d5 v=127
12295 On ch=12 n=a#4 v=127
12295 On ch=6 n=f5 v=127
12410 Off ch=1 n=c6 v=127
12410 On ch=3 n=d6 v=127
12525 Off ch=3 n=d6 v=127
12525 Off ch=6 n=f5 v=127
12525 Off ch=12 n=a#4 v=127
12525 Off ch=3 n=d5 v=127
12525 On ch=1 n=c5 v=127
12525 On ch=11 n=a4 v=127
12525 On ch=1 n=c6 v=127
12640 On ch=6 n=f5 v=127
12755 Off ch=6 n=f5 v=127
12755 Off ch=11 n=a4 v=127
12755 Off ch=1 n=c5 v=127
12755 On ch=12 n=a#4 v=127
12755 On ch=8 n=g4 v=127
12755 On ch=5 n=e5 v=127
12870 Off ch=1 n=c6 v=127
12870 On ch=12 n=a#5 v=127
12985 Off ch=12 n=a#5 v=127
12985 Off ch=5 n=e5 v=127
12985 Off ch=8 n=g4 v=127
12985 Off ch=12 n=a#4 v=127
12985 On ch=11 n=a5 v=127
12985 On ch=6 n=f6 v=127
13100 Off ch=6 n=f6 v=127
13100 On ch=1 n=c6 v=127
13215 Off ch=1 n=c6 v=127
13215 Off ch=11 n=a5 v=127
13215 On ch=12 n=a#5 v=127
13215 On ch=3 n=d6 v=127
13330 Off ch=3 n=d6 v=127
13330 On ch=8 n=g6 v=127
13445 Off ch=8 n=g6 v=127
13445 Off ch=12 n=a#5 v=127
13445 On ch=11 n=a5 v=127
13445 On ch=6 n=f6 v=127
13560 Off ch=6 n=f6 v=127
13560 On ch=1 n=c6 v=127
13675 Off ch=1 n=c6 v=127
13675 Off ch=11 n=a5 v=127
13675 On ch=8 n=g5 v=127
13675 On ch=12 n=a#5 v=127
13790 Off ch=12 n=a#5 v=127
13790 On ch=5 n=e6 v=127
13905 Off ch=5 n=e6 v=127
13905 Off ch=8 n=g5 v=127
13905 On ch=6 n=f4 v=127
13905 On ch=11 n=a6 v=127
14020 On ch=11 n=a5 v=127
14135 Off ch=11 n=a6 v=127
14135 Off ch=6 n=f4 v=127
14135 On ch=12 n=a#5 v=127
14135 On ch=6 n=f5 v=127
14173 Off ch=11 n=a5 v=127
14250 On ch=11 n=a5 v=127
14288 Off ch=12 n=a#5 v=127
14365 Off ch=6 n=f5 v=127
14365 On ch=12 n=a#5 v=127
14365 On ch=6 n=f5 v=127
14403 Off ch=11 n=a5 v=127
14480 On ch=11 n=a5 v=127
14518 Off ch=12 n=a#5 v=127
14595 Off ch=6 n=f5 v=127
14595 On ch=13 n=b5 v=127
14595 On ch=6 n=f5 v=127
14633 Off ch=11 n=a5 v=127
14710 On ch=11 n=a5 v=127
14748 Off ch=13 n=b5 v=127
14824 On ch=5 n=e5 v=127
14825 Off ch=6 n=f5 v=127
14825 On ch=1 n=c6 v=127
14825 On ch=8 n=g5 v=127
14863 Off ch=11 n=a5 v=127
14940 On ch=13 n=b5 v=127
14978 Off ch=1 n=c6 v=127
15039 Off ch=5 n=e5 v=127
15040 Off ch=8 n=g5 v=127
15054 On ch=1 n=c6 v=127
15054 On ch=8 n=g5 v=127
15054 On ch=5 n=e5 v=127
15092 Off ch=13 n=b5 v=127
15169 On ch=13 n=b5 v=127
15207 Off ch=1 n=c6 v=127
15269 Off ch=5 n=e5 v=127
15269 Off ch=8 n=g5 v=127
15283 On ch=1 n=c6 v=127
15283 On ch=8 n=g5 v=127
15283 On ch=5 n=e5 v=127
15321 Off ch=13 n=b5 v=127
15398 On ch=13 n=b5 v=127
15436 Off ch=1 n=c6 v=127
15498 Off ch=5 n=e5 v=127
15498 Off ch=8 n=g5 v=127
15512 On ch=2 n=c#6 v=127
15512 On ch=8 n=g5 v=127
15512 On ch=5 n=e5 v=127
15550 Off ch=13 n=b5 v=127
15627 On ch=13 n=b5 v=127
15665 Off ch=2 n=c#6 v=127
15727 Off ch=5 n=e5 v=127
15727 Off ch=8 n=g5 v=127
15741 On ch=3 n=d6 v=127
15741 On ch=11 n=a5 v=127
15741 On ch=6 n=f5 v=127
15779 Off ch=13 n=b5 v=127
15856 On ch=2 n=c#6 v=127
15894 Off ch=3 n=d6 v=127
15956 Off ch=6 n=f5 v=127
15956 Off ch=11 n=a5 v=127
15970 On ch=5 n=e6 v=127
15970 On ch=5 n=e5 v=127
15970 On ch=2 n=c#5 v=127
16008 Off ch=2 n=c#6 v=127
16085 On ch=3 n=d6 v=127
16123 Off ch=5 n=e6 v=127
16185 Off ch=2 n=c#5 v=127
16185 Off ch=5 n=e5 v=127
16199 On ch=6 n=f5 v=127
16199 On ch=3 n=d5 v=127
16199 On ch=6 n=f6 v=127
16237 Off ch=3 n=d6 v=127
16314 On ch=11 n=a5 v=127
16429 Off ch=11 n=a5 v=127
16429 Off ch=6 n=f6 v=127
16429 Off ch=3 n=d5 v=127
16429 Off ch=6 n=f5 v=127
16429 On ch=8 n=g4 v=127
16429 On ch=12 n=a#5 v=127
16429 On ch=5 n=e6 v=127
16544 Off ch=5 n=e6 v=127
16544 On ch=3 n=d6 v=127
16659 Off ch=3 n=d6 v=127
16659 Off ch=12 n=a#5 v=127
16659 Off ch=8 n=g4 v=127
16659 On ch=11 n=a4 v=127
16659 On ch=2 n=c#6 v=127
16774 Off ch=2 n=c#6 v=127
16774 On ch=11 n=a5 v=127
16889 On ch=12 n=a#5 v=127
16927 Off ch=11 n=a5 v=127
17004 On ch=11 n=a5 v=127
17042 Off ch=12 n=a#5 v=127
17119 Off ch=11 n=a4 v=127
17119 On ch=12 n=a#5 v=127
17119 On ch=8 n=g5 v=127
17157 Off ch=11 n=a5 v=127
17234 On ch=11 n=a5 v=127
17272 Off ch=12 n=a#5 v=127
17349 Off ch=8 n=g5 v=127
17349 On ch=13 n=b5 v=127
17349 On ch=6 n=f5 v=127
17387 Off ch=11 n=a5 v=127
17464 On ch=11 n=a5 v=127
17502 Off ch=13 n=b5 v=127
17579 Off ch=6 n=f5 v=127
17579 On ch=1 n=c6 v=127
17579 On ch=5 n=e5 v=127
17617 Off ch=11 n=a5 v=127
17694 On ch=13 n=b5 v=127
17732 Off ch=1 n=c6 v=127
17809 Off ch=5 n=e5 v=127
17809 On ch=2 n=c#6 v=127
17809 On ch=8 n=g5 v=127
17847 Off ch=13 n=b5 v=127
17924 On ch=13 n=b5 v=127
17962 Off ch=2 n=c#6 v=127
18039 Off ch=8 n=g5 v=127
18039 On ch=3 n=d6 v=127
18039 On ch=6 n=f5 v=127
18077 Off ch=13 n=b5 v=127
18154 On ch=2 n=c#6 v=127
18192 Off ch=3 n=d6 v=127
18269 Off ch=6 n=f5 v=127
18269 On ch=5 n=e6 v=127
18269 On ch=5 n=e5 v=127
18307 Off ch=2 n=c#6 v=127
18384 On ch=3 n=d6 v=127
18422 Off ch=5 n=e6 v=127
18499 Off ch=5 n=e5 v=127
18499 On ch=6 n=f6 v=127
18499 On ch=3 n=d5 v=127
18537 Off ch=3 n=d6 v=127
18614 On ch=5 n=e6 v=127
18652 Off ch=6 n=f6 v=127
18729 Off ch=3 n=d5 v=127
18729 On ch=7 n=f#6 v=127
18729 On ch=1 n=c6 v=127
18767 Off ch=5 n=e6 v=127
18844 On ch=5 n=e6 v=127
18882 Off ch=7 n=f#6 v=127
18959 Off ch=1 n=c6 v=127
18959 On ch=8 n=g6 v=127
18959 On ch=13 n=b5 v=127
18997 Off ch=5 n=e6 v=127
19074 On ch=7 n=f#6 v=127
19112 Off ch=8 n=g6 v=127
19189 Off ch=13 n=b5 v=127
19189 On ch=9 n=g#6 v=127
19189 On ch=3 n=d6 v=127
19227 Off ch=7 n=f#6 v=127
19304 On ch=7 n=f#6 v=127
19342 Off ch=9 n=g#6 v=127
19419 Off ch=3 n=d6 v=127
19419 On ch=11 n=a6 v=127
19419 On ch=1 n=c6 v=127
19457 Off ch=7 n=f#6 v=127
19534 On ch=9 n=g#6 v=127
19572 Off ch=11 n=a6 v=127
19649 Off ch=1 n=c6 v=127
19649 On ch=13 n=b6 v=127
19649 On ch=9 n=g#5 v=127
19687 Off ch=9 n=g#6 v=127
19764 On ch=11 n=a6 v=127
19802 Off ch=13 n=b6 v=127
19879 Off ch=9 n=g#5 v=127
19879 On ch=1 n=c6 v=127
19879 On ch=11 n=a5 v=127
19879 On ch=1 n=c7 v=127
19917 Off ch=11 n=a6 v=127
19994 On ch=5 n=e6 v=127
20109 Off ch=5 n=e6 v=127
20109 Off ch=1 n=c7 v=127
20109 Off ch=11 n=a5 v=127
20109 Off ch=1 n=c6 v=127
20109 On ch=3 n=d5 v=127
20109 On ch=6 n=f6 v=127
20109 On ch=13 n=b6 v=127
20224 Off ch=13 n=b6 v=127
20224 On ch=11 n=a6 v=127
20339 Off ch=11 n=a6 v=127
20339 Off ch=6 n=f6 v=127
20339 Off ch=3 n=d5 v=127
20339 On ch=5 n=e5 v=127
20339 On ch=9 n=g#6 v=127
20454 Off ch=9 n=g#6 v=127
20454 On ch=5 n=e6 v=127
20569 On ch=6 n=f6 v=127
20607 Off ch=5 n=e6 v=127
20684 On ch=5 n=e6 v=127
20722 Off ch=6 n=f6 v=127
20799 Off ch=5 n=e5 v=127
20799 On ch=6 n=f6 v=127
20799 On ch=3 n=d6 v=127
20837 Off ch=5 n=e6 v=127
20914 On ch=5 n=e6 v=127
20952 Off ch=6 n=f6 v=127
21029 Off ch=3 n=d6 v=127
21029 On ch=7 n=f#6 v=127
21029 On ch=1 n=c6 v=127
21067 Off ch=5 n=e6 v=127
21144 On ch=5 n=e6 v=127
21182 Off ch=7 n=f#6 v=127
21259 Off ch=1 n=c6 v=127
21259 On ch=8 n=g6 v=127
21259 On ch=13 n=b5 v=127
21297 Off ch=5 n=e6 v=127
21374 On ch=7 n=f#6 v=127
21412 Off ch=8 n=g6 v=127
21489 Off ch=13 n=b5 v=127
21489 On ch=9 n=g#6 v=127
21489 On ch=3 n=d6 v=127
21527 Off ch=7 n=f#6 v=127
21604 On ch=7 n=f#6 v=127
21642 Off ch=9 n=g#6 v=127
21719 Off ch=3 n=d6 v=127
21719 On ch=11 n=a6 v=127
21719 On ch=1 n=c6 v=127
21757 Off ch=7 n=f#6 v=127
21834 On ch=9 n=g#6 v=127
21872 Off ch=11 n=a6 v=127
21949 Off ch=1 n=c6 v=127
21949 On ch=13 n=b6 v=127
21949 On ch=9 n=g#5 v=127
21987 Off ch=9 n=g#6 v=127
22064 On ch=11 n=a6 v=127
22102 Off ch=13 n=b6 v=127
22179 Off ch=9 n=g#5 v=127
22179 On ch=11 n=a5 v=127
22179 On ch=1 n=c7 v=127
22217 Off ch=11 n=a6 v=127
22294 On ch=5 n=e6 v=127
22409 Off ch=5 n=e6 v=127
22409 Off ch=11 n=a5 v=127
22409 On ch=3 n=d6 v=127
22409 On ch=6 n=f6 v=127
22524 Off ch=6 n=f6 v=127
22524 Off ch=1 n=c7 v=127
22524 On ch=13 n=b6 v=127
22639 Off ch=13 n=b6 v=127
22639 Off ch=3 n=d6 v=127
22639 On ch=1 n=c6 v=127
22639 On ch=11 n=a6 v=127
22754 On ch=5 n=e6 v=127
22869 Off ch=5 n=e6 v=127
22869 Off ch=1 n=c6 v=127
22869 On ch=13 n=b5 v=127
22869 On ch=3 n=d6 v=127
22984 Off ch=3 n=d6 v=127
22984 Off ch=11 n=a6 v=127
22984 On ch=9 n=g#6 v=127
23099 Off ch=9 n=g#6 v=127
23099 Off ch=13 n=b5 v=127
23099 On ch=5 n=e5 v=127
23099 On ch=1 n=c5 v=127
23099 On ch=5 n=e6 v=127
23214 Off ch=5 n=e6 v=127
23214 On ch=9 n=g#5 v=127
23329 Off ch=9 n=g#5 v=127
23329 Off ch=1 n=c5 v=127
23329 Off ch=5 n=e5 v=127
23329 On ch=6 n=f5 v=127
23329 On ch=3 n=d5 v=127
23329 On ch=11 n=a5 v=127
23444 On ch=6 n=f6 v=127
23559 Off ch=6 n=f6 v=127
23559 Off ch=11 n=a5 v=127
23559 Off ch=3 n=d5 v=127
23559 Off ch=6 n=f5 v=127
23559 On ch=5 n=e5 v=127
23559 On ch=1 n=c5 v=127
23559 On ch=5 n=e6 v=127
23674 Off ch=5 n=e6 v=127
23674 On ch=11 n=a5 v=127
23789 Off ch=11 n=a5 v=127
23789 Off ch=1 n=c5 v=127
23789 Off ch=5 n=e5 v=127
23789 On ch=3 n=d5 v=127
23789 On ch=13 n=b4 v=127
23789 On ch=9 n=g#5 v=127
23904 On ch=3 n=d6 v=127
24019 Off ch=3 n=d6 v=127
24019 Off ch=9 n=g#5 v=127
24019 Off ch=13 n=b4 v=127
24019 Off ch=3 n=d5 v=127
24019 On ch=11 n=a5 v=127
24019 On ch=1 n=c7 v=127
24134 On ch=5 n=e6 v=127
24249 Off ch=5 n=e6 v=127
24249 Off ch=11 n=a5 v=127
24249 On ch=3 n=d6 v=127
24249 On ch=6 n=f6 v=127
24364 Off ch=6 n=f6 v=127
24364 Off ch=1 n=c7 v=127
24364 On ch=13 n=b6 v=127
24479 Off ch=13 n=b6 v=127
24479 Off ch=3 n=d6 v=127
24479 On ch=1 n=c6 v=127
24479 On ch=11 n=a6 v=127
24594 On ch=5 n=e6 v=127
24709 Off ch=5 n=e6 v=127
24709 Off ch=1 n=c6 v=127
24709 On ch=13 n=b5 v=127
24709 On ch=3 n=d6 v=127
24824 Off ch=3 n=d6 v=127
24824 Off ch=11 n=a6 v=127
24824 On ch=9 n=g#6 v=127
24939 Off ch=9 n=g#6 v=127
24939 Off ch=13 n=b5 v=127
24939 On ch=5 n=e5 v=127
24939 On ch=1 n=c5 v=127
24939 On ch=5 n=e6 v=127
25054 Off ch=5 n=e6 v=127
25054 On ch=9 n=g#5 v=127
25169 Off ch=9 n=g#5 v=127
25169 Off ch=1 n=c5 v=127
25169 Off ch=5 n=e5 v=127
25169 On ch=6 n=f5 v=127
25169 On ch=3 n=d5 v=127
25169 On ch=11 n=a5 v=127
25284 On ch=6 n=f6 v=127
25399 Off ch=6 n=f6 v=127
25399 Off ch=11 n=a5 v=127
25399 Off ch=3 n=d5 v=127
25399 Off ch=6 n=f5 v=127
25399 On ch=5 n=e5 v=127
25399 On ch=1 n=c5 v=127
25399 On ch=5 n=e6 v=127
25514 Off ch=5 n=e6 v=127
25514 On ch=11 n=a5 v=127
25629 Off ch=11 n=a5 v=127
25629 Off ch=1 n=c5 v=127
25629 Off ch=5 n=e5 v=127
25629 On ch=3 n=d5 v=127
25629 On ch=13 n=b4 v=127
25629 On ch=9 n=g#5 v=127
25744 On ch=3 n=d6 v=127
25859 Off ch=3 n=d6 v=127
25859 Off ch=9 n=g#5 v=127
25859 Off ch=13 n=b4 v=127
25859 Off ch=3 n=d5 v=127
25859 On ch=1 n=c7 v=127
25859 On ch=11 n=a4 v=127
25859 On ch=11 n=a6 v=127
25974 Off ch=11 n=a6 v=127
25974 On ch=5 n=e6 v=127
26089 Off ch=5 n=e6 v=127
26089 Off ch=11 n=a4 v=127
26089 Off ch=1 n=c7 v=127
26089 On ch=3 n=d6 v=127
26089 On ch=11 n=a5 v=127
26089 On ch=6 n=f6 v=127
26204 Off ch=6 n=f6 v=127
26204 On ch=5 n=e6 v=127
26319 Off ch=5 n=e6 v=127
26319 Off ch=11 n=a5 v=127
26319 Off ch=3 n=d6 v=127
26319 On ch=3 n=d6 v=127
26319 On ch=11 n=a5 v=127
26319 On ch=9 n=g#6 v=127
26434 On ch=7 n=f#6 v=127
26472 Off ch=9 n=g#6 v=127
26549 Off ch=7 n=f#6 v=127
26549 Off ch=11 n=a5 v=127
26549 Off ch=3 n=d6 v=127
26549 On ch=3 n=d6 v=127
26549 On ch=11 n=a5 v=127
26549 On ch=11 n=a6 v=127
26664 On ch=7 n=f#6 v=127
26702 Off ch=11 n=a6 v=127
26779 Off ch=7 n=f#6 v=127
26779 Off ch=11 n=a5 v=127
26779 Off ch=3 n=d6 v=127
26779 On ch=3 n=d6 v=127
26779 On ch=9 n=g#5 v=127
26779 On ch=13 n=b6 v=127
26894 On ch=5 n=e6 v=127
26932 Off ch=13 n=b6 v=127
27009 Off ch=5 n=e6 v=127
27009 Off ch=9 n=g#5 v=127
27009 Off ch=3 n=d6 v=127
27009 On ch=13 n=b5 v=127
27009 On ch=8 n=g5 v=127
27009 On ch=4 n=d#6 v=127
27124 Off ch=4 n=d#6 v=127
27124 On ch=5 n=e6 v=127
27239 Off ch=5 n=e6 v=127
27239 Off ch=8 n=g5 v=127
27239 Off ch=13 n=b5 v=127
27239 On ch=13 n=b5 v=127
27239 On ch=8 n=g5 v=127
27239 On ch=7 n=f#6 v=127
27354 On ch=5 n=e6 v=127
27392 Off ch=7 n=f#6 v=127
27469 Off ch=5 n=e6 v=127
27469 Off ch=8 n=g5 v=127
27469 Off ch=13 n=b5 v=127
27469 On ch=13 n=b5 v=127
27469 On ch=8 n=g5 v=127
27469 On ch=8 n=g6 v=127
27584 On ch=5 n=e6 v=127
27622 Off ch=8 n=g6 v=127
27699 Off ch=5 n=e6 v=127
27699 Off ch=8 n=g5 v=127
27699 Off ch=13 n=b5 v=127
27699 On ch=11 n=a5 v=127
27699 On ch=7 n=f#5 v=127
27699 On ch=11 n=a6 v=127
27814 On ch=3 n=d6 v=127
27852 Off ch=11 n=a6 v=127
27929 Off ch=3 n=d6 v=127
27929 Off ch=7 n=f#5 v=127
27929 Off ch=11 n=a5 v=127
27929 On ch=11 n=a5 v=127
27929 On ch=6 n=f5 v=127
27929 On ch=2 n=c#6 v=127
28044 Off ch=2 n=c#6 v=127
28044 On ch=3 n=d6 v=127
28159 Off ch=3 n=d6 v=127
28159 Off ch=6 n=f5 v=127
28159 Off ch=11 n=a5 v=127
28159 On ch=11 n=a5 v=127
28159 On ch=6 n=f5 v=127
28159 On ch=5 n=e6 v=127
28274 On ch=3 n=d6 v=127
28312 Off ch=5 n=e6 v=127
28389 Off ch=3 n=d6 v=127
28389 Off ch=6 n=f5 v=127
28389 Off ch=11 n=a5 v=127
28389 On ch=11 n=a5 v=127
28389 On ch=6 n=f5 v=127
28389 On ch=6 n=f6 v=127
28504 On ch=3 n=d6 v=127
28542 Off ch=6 n=f6 v=127
28619 Off ch=3 n=d6 v=127
28619 Off ch=6 n=f5 v=127
28619 Off ch=11 n=a5 v=127
28619 On ch=8 n=g5 v=127
28619 On ch=5 n=e5 v=127
28619 On ch=8 n=g6 v=127
28734 On ch=1 n=c6 v=127
28792 Off ch=8 n=g6 v=127
28850 Off ch=1 n=c6 v=127
28850 Off ch=5 n=e5 v=127
28850 Off ch=8 n=g5 v=127
28850 On ch=6 n=f5 v=127
28850 On ch=3 n=d5 v=127
28850 On ch=6 n=f6 v=127
28965 On ch=13 n=b5 v=127
29023 Off ch=6 n=f6 v=127
29081 Off ch=13 n=b5 v=127
29081 Off ch=3 n=d5 v=127
29081 Off ch=6 n=f5 v=127
29081 On ch=5 n=e5 v=127
29081 On ch=1 n=c5 v=127
29081 On ch=5 n=e6 v=127
29196 On ch=11 n=a5 v=127
29254 Off ch=5 n=e6 v=127
29312 Off ch=11 n=a5 v=127
29312 Off ch=1 n=c5 v=127
29312 Off ch=5 n=e5 v=127
29312 On ch=3 n=d5 v=127
29312 On ch=13 n=b4 v=127
29312 On ch=3 n=d6 v=127
29427 On ch=9 n=g#5 v=127
29485 Off ch=3 n=d6 v=127
29543 Off ch=9 n=g#5 v=127
29543 Off ch=13 n=b4 v=127
29543 Off ch=3 n=d5 v=127
29543 On ch=1 n=c5 v=127
29543 On ch=11 n=a4 v=127
29543 On ch=1 n=c6 v=127
29658 On ch=6 n=f5 v=127
29716 Off ch=1 n=c6 v=127
29774 Off ch=6 n=f5 v=127
29774 Off ch=11 n=a4 v=127
29774 Off ch=1 n=c5 v=127
29774 On ch=13 n=b4 v=127
29774 On ch=8 n=g4 v=127
29774 On ch=13 n=b5 v=127
29889 On ch=5 n=e5 v=127
29947 Off ch=13 n=b5 v=127
30005 Off ch=5 n=e5 v=127
30005 Off ch=8 n=g4 v=127
30005 Off ch=13 n=b4 v=127
30005 On ch=11 n=a4 v=127
30005 On ch=6 n=f4 v=127
30005 On ch=11 n=a5 v=127
30120 On ch=3 n=d5 v=127
30178 Off ch=11 n=a5 v=127
30236 Off ch=3 n=d5 v=127
30236 Off ch=6 n=f4 v=127
30236 Off ch=11 n=a4 v=127
30236 On ch=8 n=g4 v=127
30236 On ch=5 n=e4 v=127
30236 On ch=8 n=g5 v=127
30351 On ch=1 n=c5 v=127
30409 Off ch=8 n=g5 v=127
30467 Off ch=1 n=c5 v=127
30467 Off ch=5 n=e4 v=127
30467 Off ch=8 n=g4 v=127
30467 On ch=6 n=f4 v=127
30467 On ch=3 n=d4 v=127
30467 On ch=6 n=f5 v=127
30582 On ch=13 n=b4 v=127
30640 Off ch=6 n=f5 v=127
30698 Off ch=13 n=b4 v=127
30698 Off ch=3 n=d4 v=127
30698 Off ch=6 n=f4 v=127
30698 On ch=5 n=e4 v=127
30698 On ch=1 n=c4 v=127
30698 On ch=5 n=e5 v=127
30813 On ch=11 n=a4 v=127
30871 Off ch=5 n=e5 v=127
30929 Off ch=11 n=a4 v=127
30929 Off ch=1 n=c4 v=127
30929 Off ch=5 n=e4 v=127
30929 On ch=3 n=d4 v=127
30929 On ch=13 n=b3 v=127
30929 On ch=3 n=d5 v=127
31044 On ch=9 n=g#4 v=127
31102 Off ch=3 n=d5 v=127
31160 Off ch=9 n=g#4 v=127
31160 Off ch=13 n=b3 v=127
31160 Off ch=3 n=d4 v=127
31160 On ch=5 n=e4 v=127
31160 On ch=11 n=a3 v=127
31160 On ch=11 n=a4 v=127
31275 On ch=1 n=c5 v=127
31390 Off ch=1 n=c5 v=127
31390 Off ch=11 n=a4 v=127
31390 Off ch=11 n=a3 v=127
31390 Off ch=5 n=e4 v=127
31390 On ch=9 n=g#4 v=127
31390 On ch=5 n=e3 v=127
31390 On ch=13 n=b4 v=127
31505 On ch=5 n=e4 v=127
31563 Off ch=5 n=e3 v=127
31621 Off ch=13 n=b4 v=127
31621 Off ch=9 n=g#4 v=127
31621 On ch=11 n=a4 v=127
31621 On ch=1 n=c5 v=127
31621 On ch=4 n=d#4 v=127
31679 Off ch=5 n=e4 v=127
31737 On ch=5 n=e4 v=127
31795 Off ch=4 n=d#4 v=127
31853 Off ch=1 n=c5 v=127
31853 Off ch=11 n=a4 v=127
31853 On ch=13 n=b4 v=127
31853 On ch=3 n=d5 v=127
31853 On ch=4 n=d#4 v=127
31911 Off ch=5 n=e4 v=127
31969 On ch=5 n=e4 v=127
32027 Off ch=4 n=d#4 v=127
32085 Off ch=3 n=d5 v=127
32085 Off ch=13 n=b4 v=127
32085 On ch=1 n=c5 v=127
32085 On ch=5 n=e5 v=127
32085 On ch=4 n=d#4 v=127
32143 Off ch=5 n=e4 v=127
32201 On ch=5 n=e4 v=127
32259 Off ch=4 n=d#4 v=127
32317 Off ch=5 n=e5 v=127
32317 Off ch=1 n=c5 v=127
32317 On ch=13 n=b4 v=127
32317 On ch=6 n=f3 v=127
32317 On ch=3 n=d5 v=127
32375 Off ch=5 n=e4 v=127
32433 On ch=5 n=e4 v=127
32491 Off ch=6 n=f3 v=127
32549 Off ch=3 n=d5 v=127
32549 Off ch=13 n=b4 v=127
32549 On ch=11 n=a4 v=127
32549 On ch=1 n=c5 v=127
32549 On ch=4 n=d#4 v=127
32607 Off ch=5 n=e4 v=127
32665 On ch=5 n=e4 v=127
32723 Off ch=4 n=d#4 v=127
32781 Off ch=1 n=c5 v=127
32781 Off ch=11 n=a4 v=127
32781 On ch=9 n=g#4 v=127
32781 On ch=13 n=b4 v=127
32781 On ch=4 n=d#4 v=127
32839 Off ch=5 n=e4 v=127
32897 On ch=5 n=e4 v=127
32955 Off ch=4 n=d#4 v=127
33013 Off ch=13 n=b4 v=127
33013 Off ch=9 n=g#4 v=127
33013 On ch=11 n=a4 v=127
33013 On ch=4 n=d#4 v=127
33071 Off ch=5 n=e4 v=127
33129 On ch=5 n=e4 v=127
33187 Off ch=4 n=d#4 v=127
33245 Off ch=11 n=a4 v=127
33245 On ch=9 n=g#4 v=127
33245 On ch=5 n=e3 v=127
33245 On ch=13 n=b4 v=127
33303 Off ch=5 n=e4 v=127
33361 On ch=5 n=e4 v=127
33419 Off ch=5 n=e3 v=127
33477 Off ch=13 n=b4 v=127
33477 Off ch=9 n=g#4 v=127
33477 On ch=11 n=a4 v=127
33477 On ch=1 n=c5 v=127
33477 On ch=4 n=d#4 v=127
33535 Off ch=5 n=e4 v=127
33593 On ch=5 n=e4 v=127
33651 Off ch=4 n=d#4 v=127
33709 Off ch=1 n=c5 v=127
33709 Off ch=11 n=a4 v=127
33709 On ch=13 n=b4 v=127
33709 On ch=3 n=d5 v=127
33709 On ch=4 n=d#4 v=127
33767 Off ch=5 n=e4 v=127
33825 On ch=5 n=e4 v=127
33883 Off ch=4 n=d#4 v=127
33941 Off ch=3 n=d5 v=127
33941 Off ch=13 n=b4 v=127
33941 On ch=1 n=c5 v=127
33941 On ch=5 n=e5 v=127
33941 On ch=4 n=d#4 v=127
33999 Off ch=5 n=e4 v=127
34057 On ch=5 n=e4 v=127
34115 Off ch=4 n=d#4 v=127
34173 Off ch=5 n=e5 v=127
34173 Off ch=1 n=c5 v=127
34173 On ch=3 n=d5 v=127
34173 On ch=3 n=d3 v=127
34173 On ch=6 n=f5 v=127
34231 Off ch=5 n=e4 v=127
34289 On ch=5 n=e4 v=127
34347 Off ch=3 n=d3 v=127
34405 Off ch=6 n=f5 v=127
34405 Off ch=3 n=d5 v=127
34405 On ch=1 n=c5 v=127
34405 On ch=5 n=e5 v=127
34405 On ch=4 n=d#4 v=127
34463 Off ch=5 n=e4 v=127
34521 On ch=5 n=e4 v=127
34579 Off ch=4 n=d#4 v=127
34637 Off ch=5 n=e5 v=127
34637 Off ch=1 n=c5 v=127
34637 On ch=13 n=b4 v=127
34637 On ch=3 n=d5 v=127
34637 On ch=4 n=d#4 v=127
34695 Off ch=5 n=e4 v=127
34753 On ch=5 n=e4 v=127
34811 Off ch=4 n=d#4 v=127
34869 Off ch=3 n=d5 v=127
34869 Off ch=13 n=b4 v=127
34869 On ch=11 n=a4 v=127
34869 On ch=1 n=c5 v=127
34869 On ch=4 n=d#4 v=127
34927 Off ch=5 n=e4 v=127
34985 On ch=5 n=e4 v=127
35043 Off ch=4 n=d#4 v=127
35101 Off ch=1 n=c5 v=127
35101 Off ch=11 n=a4 v=127
35101 On ch=9 n=g#4 v=127
35101 On ch=5 n=e3 v=127
35101 On ch=13 n=b4 v=127
35159 Off ch=5 n=e4 v=127
35217 On ch=5 n=e4 v=127
35275 Off ch=5 n=e3 v=127
35333 Off ch=13 n=b4 v=127
35333 Off ch=9 n=g#4 v=127
35333 On ch=11 n=a4 v=127
35333 On ch=1 n=c5 v=127
35333 On ch=4 n=d#4 v=127
35391 Off ch=5 n=e4 v=127
35449 On ch=5 n=e4 v=127
35507 Off ch=4 n=d#4 v=127
35565 Off ch=1 n=c5 v=127
35565 Off ch=11 n=a4 v=127
35565 On ch=13 n=b4 v=127
35565 On ch=3 n=d5 v=127
35565 On ch=4 n=d#4 v=127
35623 Off ch=5 n=e4 v=127
35681 On ch=5 n=e4 v=127
35739 Off ch=4 n=d#4 v=127
35797 Off ch=3 n=d5 v=127
35797 Off ch=13 n=b4 v=127
35797 On ch=1 n=c5 v=127
35797 On ch=5 n=e5 v=127
35797 On ch=4 n=d#4 v=127
35855 Off ch=5 n=e4 v=127
35913 On ch=5 n=e4 v=127
35971 Off ch=4 n=d#4 v=127
36029 Off ch=5 n=e5 v=127
36029 Off ch=1 n=c5 v=127
36029 On ch=13 n=b4 v=127
36029 On ch=6 n=f3 v=127
36029 On ch=3 n=d5 v=127
36087 Off ch=5 n=e4 v=127
36145 On ch=5 n=e4 v=127
36203 Off ch=6 n=f3 v=127
36261 Off ch=3 n=d5 v=127
36261 Off ch=13 n=b4 v=127
36261 On ch=11 n=a4 v=127
36261 On ch=1 n=c5 v=127
36261 On ch=4 n=d#4 v=127
36319 Off ch=5 n=e4 v=127
36377 On ch=5 n=e4 v=127
36435 Off ch=4 n=d#4 v=127
36493 Off ch=1 n=c5 v=127
36493 Off ch=11 n=a4 v=127
36493 On ch=9 n=g#4 v=127
36493 On ch=13 n=b4 v=127
36493 On ch=4 n=d#4 v=127
36551 Off ch=5 n=e4 v=127
36609 On ch=5 n=e4 v=127
36667 Off ch=4 n=d#4 v=127
36725 Off ch=13 n=b4 v=127
36725 Off ch=9 n=g#4 v=127
36725 On ch=11 n=a4 v=127
36725 On ch=4 n=d#4 v=127
36783 Off ch=5 n=e4 v=127
36841 On ch=5 n=e4 v=127
36899 Off ch=4 n=d#4 v=127
36957 Off ch=11 n=a4 v=127
36957 On ch=9 n=g#4 v=127
36957 On ch=5 n=e3 v=127
36957 On ch=13 n=b4 v=127
37015 Off ch=5 n=e4 v=127
37073 Off ch=13 n=b4 v=127
37073 Off ch=9 n=g#4 v=127
37073 On ch=5 n=e4 v=127
37188 On ch=6 n=f4 v=127
37226 Off ch=5 n=e4 v=127
37303 On ch=5 n=e4 v=127
37341 Off ch=6 n=f4 v=127
37418 Off ch=5 n=e3 v=127
37418 On ch=6 n=f4 v=127
37418 On ch=3 n=d4 v=127
37456 Off ch=5 n=e4 v=127
37533 On ch=5 n=e4 v=127
37571 Off ch=6 n=f4 v=127
37648 Off ch=3 n=d4 v=127
37648 On ch=7 n=f#4 v=127
37648 On ch=1 n=c4 v=127
37686 Off ch=5 n=e4 v=127
37763 On ch=5 n=e4 v=127
37801 Off ch=7 n=f#4 v=127
37878 Off ch=1 n=c4 v=127
37878 On ch=8 n=g4 v=127
37878 On ch=13 n=b3 v=127
37916 Off ch=5 n=e4 v=127
37993 On ch=7 n=f#4 v=127
38031 Off ch=8 n=g4 v=127
38108 Off ch=13 n=b3 v=127
38108 On ch=9 n=g#4 v=127
38108 On ch=3 n=d4 v=127
38146 Off ch=7 n=f#4 v=127
38223 On ch=7 n=f#4 v=127
38261 Off ch=9 n=g#4 v=127
38338 Off ch=3 n=d4 v=127
38338 On ch=11 n=a4 v=127
38338 On ch=1 n=c4 v=127
38376 Off ch=7 n=f#4 v=127
38453 On ch=9 n=g#4 v=127
38491 Off ch=11 n=a4 v=127
38568 Off ch=1 n=c4 v=127
38568 On ch=13 n=b4 v=127
38568 On ch=13 n=b3 v=127
38606 Off ch=9 n=g#4 v=127
38683 On ch=11 n=a4 v=127
38721 Off ch=13 n=b4 v=127
38798 Off ch=13 n=b3 v=127
38798 On ch=1 n=c5 v=127
38798 On ch=11 n=a3 v=127
38836 Off ch=11 n=a4 v=127
38913 On ch=13 n=b4 v=127
38951 Off ch=1 n=c5 v=127
39028 Off ch=11 n=a3 v=127
39028 On ch=2 n=c#5 v=127
39028 On ch=8 n=g4 v=127
39066 Off ch=13 n=b4 v=127
39143 On ch=13 n=b4 v=127
39181 Off ch=2 n=c#5 v=127
39258 Off ch=8 n=g4 v=127
39258 On ch=3 n=d5 v=127
39258 On ch=6 n=f4 v=127
39296 Off ch=13 n=b4 v=127
39373 On ch=2 n=c#5 v=127
39411 Off ch=3 n=d5 v=127
39488 Off ch=6 n=f4 v=127
39488 On ch=5 n=e5 v=127
39488 On ch=5 n=e4 v=127
39526 Off ch=2 n=c#5 v=127
39603 On ch=3 n=d5 v=127
39641 Off ch=5 n=e5 v=127
39718 Off ch=5 n=e4 v=127
39718 On ch=6 n=f5 v=127
39718 On ch=3 n=d4 v=127
39756 Off ch=3 n=d5 v=127
39833 On ch=5 n=e5 v=127
39871 Off ch=6 n=f5 v=127
39948 Off ch=3 n=d4 v=127
39948 On ch=7 n=f#5 v=127
39948 On ch=1 n=c5 v=127
39986 Off ch=5 n=e5 v=127
40063 On ch=5 n=e5 v=127
40101 Off ch=7 n=f#5 v=127
40178 Off ch=1 n=c5 v=127
40178 On ch=9 n=g#5 v=127
40178 On ch=13 n=b4 v=127
40216 Off ch=5 n=e5 v=127
40293 On ch=7 n=f#5 v=127
40331 Off ch=9 n=g#5 v=127
40408 Off ch=13 n=b4 v=127
40408 On ch=11 n=a5 v=127
40408 On ch=11 n=a4 v=127
40446 Off ch=7 n=f#5 v=127
40523 On ch=9 n=g#5 v=127
40561 Off ch=11 n=a5 v=127
40638 Off ch=11 n=a4 v=127
40638 On ch=13 n=b5 v=127
40638 On ch=9 n=g#4 v=127
40676 Off ch=9 n=g#5 v=127
40753 On ch=11 n=a5 v=127
40791 Off ch=13 n=b5 v=127
40868 Off ch=9 n=g#4 v=127
40868 On ch=1 n=c6 v=127
40868 On ch=11 n=a4 v=127
40906 Off ch=11 n=a5 v=127
40983 On ch=13 n=b5 v=127
41021 Off ch=1 n=c6 v=127
41098 Off ch=11 n=a4 v=127
41098 On ch=3 n=d6 v=127
41098 On ch=6 n=f4 v=127
41136 Off ch=13 n=b5 v=127
41213 On ch=1 n=c6 v=127
41251 Off ch=3 n=d6 v=127
41328 Off ch=6 n=f4 v=127
41328 On ch=5 n=e6 v=127
41328 On ch=5 n=e4 v=127
41366 Off ch=1 n=c6 v=127
41443 On ch=3 n=d6 v=127
41481 Off ch=5 n=e6 v=127
41558 Off ch=5 n=e4 v=127
41558 On ch=6 n=f6 v=127
41558 On ch=3 n=d4 v=127
41596 Off ch=3 n=d6 v=127
41673 On ch=3 n=d6 v=127
41711 Off ch=6 n=f6 v=127
41788 On ch=5 n=e6 v=127
41788 On ch=3 n=d5 v=127
41826 Off ch=3 n=d6 v=127
41903 On ch=1 n=c6 v=127
41941 Off ch=5 n=e6 v=127
42013 Off ch=3 n=d4 v=127
42018 On ch=3 n=d6 v=127
42056 Off ch=1 n=c6 v=127
42133 On ch=13 n=b5 v=127
42171 Off ch=3 n=d6 v=127
42248 Off ch=3 n=d5 v=127
42248 On ch=1 n=c6 v=127
42248 On ch=5 n=e5 v=127
42286 Off ch=13 n=b5 v=127
42363 On ch=9 n=g#5 v=127
42401 Off ch=1 n=c6 v=127
42478 Off ch=5 n=e5 v=127
42478 On ch=6 n=f5 v=127
42478 On ch=11 n=a5 v=127
42516 Off ch=9 n=g#5 v=127
42593 Off ch=11 n=a5 v=127
42593 On ch=3 n=d6 v=127
42708 Off ch=3 n=d6 v=127
42708 Off ch=6 n=f5 v=127
42708 On ch=3 n=d5 v=127
42708 On ch=1 n=c6 v=127
42766 Off ch=1 n=c6 v=127
42766 On ch=3 n=d6 v=127
42824 Off ch=3 n=d6 v=127
42824 On ch=1 n=c6 v=127
42882 Off ch=1 n=c6 v=127
42882 On ch=13 n=b5 v=127
42940 Off ch=13 n=b5 v=127
42940 Off ch=3 n=d5 v=127
42940 On ch=5 n=e5 v=127
42940 On ch=1 n=c6 v=127
43055 Off ch=1 n=c6 v=127
43055 On ch=3 n=d6 v=127
43170 Off ch=3 n=d6 v=127
43170 Off ch=5 n=e5 v=127
43170 On ch=5 n=e4 v=127
43170 On ch=5 n=e6 v=127
43285 Off ch=5 n=e6 v=127
43285 On ch=9 n=g#5 v=127
43400 Off ch=9 n=g#5 v=127
43400 Off ch=5 n=e4 v=127
43400 On ch=6 n=f4 v=127
43400 On ch=11 n=a5 v=127
43515 Off ch=11 n=a5 v=127
43515 On ch=3 n=d6 v=127
43630 Off ch=3 n=d6 v=127
43630 Off ch=6 n=f4 v=127
43630 On ch=3 n=d4 v=127
43630 On ch=1 n=c6 v=127
43688 Off ch=1 n=c6 v=127
43688 On ch=3 n=d6 v=127
43746 Off ch=3 n=d6 v=127
43746 On ch=1 n=c6 v=127
43804 Off ch=1 n=c6 v=127
43804 On ch=13 n=b5 v=127
43862 Off ch=13 n=b5 v=127
43862 Off ch=3 n=d4 v=127
43862 On ch=5 n=e4 v=127
43862 On ch=1 n=c6 v=127
43977 Off ch=1 n=c6 v=127
43977 On ch=3 n=d6 v=127
44092 Off ch=3 n=d6 v=127
44092 On ch=5 n=e5 v=127
44092 On ch=5 n=e6 v=127
44207 Off ch=5 n=e6 v=127
44207 Off ch=5 n=e4 v=127
44207 On ch=9 n=g#5 v=127
44322 Off ch=9 n=g#5 v=127
44322 Off ch=5 n=e5 v=127
44322 On ch=6 n=f5 v=127
44322 On ch=11 n=a5 v=127
44437 Off ch=11 n=a5 v=127
44437 On ch=3 n=d6 v=127
44552 Off ch=3 n=d6 v=127
44552 Off ch=6 n=f5 v=127
44552 On ch=3 n=d5 v=127
44552 On ch=1 n=c6 v=127
44610 Off ch=1 n=c6 v=127
44610 On ch=3 n=d6 v=127
44668 Off ch=3 n=d6 v=127
44668 On ch=1 n=c6 v=127
44726 Off ch=1 n=c6 v=127
44726 On ch=13 n=b5 v=127
44784 Off ch=13 n=b5 v=127
44784 Off ch=3 n=d5 v=127
44784 On ch=5 n=e5 v=127
44784 On ch=1 n=c6 v=127
44899 Off ch=1 n=c6 v=127
44899 On ch=11 n=a6 v=127
45014 On ch=5 n=e4 v=127
45014 On ch=13 n=b5 v=127
45072 Off ch=11 n=a6 v=127
45130 Off ch=13 n=b5 v=127
45130 Off ch=5 n=e5 v=127
45130 On ch=9 n=g#6 v=127
45245 Off ch=9 n=g#6 v=127
45245 Off ch=5 n=e4 v=127
45245 On ch=11 n=a3 v=127
45245 On ch=11 n=a6 v=127
45360 On ch=5 n=e6 v=127
45398 Off ch=11 n=a6 v=127
45475 On ch=6 n=f6 v=127
45513 Off ch=5 n=e6 v=127
45590 On ch=3 n=d6 v=127
45628 Off ch=6 n=f6 v=127
45705 On ch=5 n=e6 v=127
45743 Off ch=3 n=d6 v=127
45820 On ch=2 n=c#6 v=127
45858 Off ch=5 n=e6 v=127
45935 On ch=3 n=d6 v=127
45973 Off ch=2 n=c#6 v=127
46050 On ch=13 n=b5 v=127
46088 Off ch=3 n=d6 v=127
46160 Off ch=13 n=b5 v=127
46165 Off ch=11 n=a3 v=127
46165 On ch=2 n=c#6 v=127
46165 On ch=11 n=a3 v=127
46165 On ch=5 n=e6 v=127
46280 Off ch=2 n=c#6 v=127
46280 On ch=11 n=a5 v=127
46338 Off ch=5 n=e6 v=127
46396 On ch=13 n=b5 v=127
46396 On ch=3 n=d6 v=127
46434 Off ch=11 n=a5 v=127
46511 Off ch=13 n=b5 v=127
46511 On ch=9 n=g#5 v=127
46569 Off ch=3 n=d6 v=127
46627 Off ch=11 n=a3 v=127
46627 On ch=11 n=a5 v=127
46627 On ch=11 n=a3 v=127
46627 On ch=2 n=c#6 v=127
46665 Off ch=9 n=g#5 v=127
46742 Off ch=11 n=a5 v=127
46742 On ch=5 n=e5 v=127
46800 Off ch=2 n=c#6 v=127
46858 On ch=9 n=g#5 v=127
46858 On ch=13 n=b5 v=127
46896 Off ch=5 n=e5 v=127
46973 Off ch=9 n=g#5 v=127
46973 On ch=3 n=d5 v=127
47031 Off ch=13 n=b5 v=127
47089 Off ch=11 n=a3 v=127
47089 On ch=11 n=a3 v=127
47089 On ch=11 n=a5 v=127
47127 Off ch=3 n=d5 v=127
47204 On ch=5 n=e5 v=127
47319 Off ch=5 n=e5 v=127
47319 Off ch=11 n=a5 v=127
47319 On ch=2 n=c#5 v=127
47434 Off ch=2 n=c#5 v=127
47434 On ch=5 n=e5 v=127
47549 Off ch=5 n=e5 v=127
47549 On ch=11 n=a4 v=127
47664 Off ch=11 n=a3 v=127
47664 On ch=2 n=c#4 v=127
47779 Off ch=2 n=c#4 v=127
47779 On ch=5 n=e4 v=127
47894 Off ch=5 n=e4 v=127
47894 Off ch=11 n=a4 v=127
47894 On ch=11 n=a4 v=127
48009 On ch=11 n=a3 v=127
48124 Off ch=11 n=a4 v=127
48124 On ch=11 n=a5 v=127
48239 Off ch=11 n=a5 v=127
48239 On ch=12 n=a#5 v=127
48354 Off ch=12 n=a#5 v=127
48354 On ch=11 n=a5 v=127
48469 Off ch=11 n=a5 v=127
48469 On ch=5 n=e6 v=127
48584 Off ch=5 n=e6 v=127
48584 On ch=2 n=c#6 v=127
48699 Off ch=2 n=c#6 v=127
48699 On ch=3 n=d6 v=127
48814 Off ch=3 n=d6 v=127
48814 On ch=13 n=b5 v=127
48929 Off ch=13 n=b5 v=127
48929 Off ch=11 n=a3 v=127
48929 On ch=11 n=a3 v=127
48929 On ch=2 n=c#6 v=127
49044 On ch=11 n=a5 v=127
49102 Off ch=2 n=c#6 v=127
49160 Off ch=11 n=a5 v=127
49160 On ch=12 n=a#5 v=127
49275 Off ch=12 n=a#5 v=127
49275 On ch=11 n=a5 v=127
49390 Off ch=11 n=a5 v=127
49390 On ch=8 n=g6 v=127
49505 Off ch=8 n=g6 v=127
49505 On ch=5 n=e6 v=127
49620 Off ch=5 n=e6 v=127
49620 On ch=6 n=f6 v=127
49735 Off ch=6 n=f6 v=127
49735 On ch=3 n=d6 v=127
49850 Off ch=3 n=d6 v=127
49850 Off ch=11 n=a3 v=127
49850 On ch=11 n=a3 v=127
49850 On ch=5 n=e6 v=127
49965 On ch=11 n=a5 v=127
50023 Off ch=5 n=e6 v=127
50081 Off ch=11 n=a5 v=127
50081 On ch=12 n=a#5 v=127
50196 Off ch=12 n=a#5 v=127
50196 On ch=11 n=a5 v=127
50311 Off ch=11 n=a5 v=127
50311 On ch=12 n=a#6 v=127
50426 On ch=8 n=g6 v=127
50464 Off ch=12 n=a#6 v=127
50541 Off ch=11 n=a3 v=127
50541 On ch=11 n=a5 v=127
50541 On ch=11 n=a6 v=127
50579 Off ch=8 n=g6 v=127
50656 On ch=6 n=f6 v=127
50694 Off ch=11 n=a6 v=127
50771 Off ch=11 n=a5 v=127
50771 On ch=12 n=a#5 v=127
50771 On ch=8 n=g6 v=127
50809 Off ch=6 n=f6 v=127
50886 On ch=5 n=e6 v=127
50924 Off ch=8 n=g6 v=127
51001 Off ch=12 n=a#5 v=127
51001 On ch=11 n=a5 v=127
51001 On ch=6 n=f6 v=127
51039 Off ch=5 n=e6 v=127
51116 On ch=3 n=d6 v=127
51154 Off ch=6 n=f6 v=127
51231 Off ch=11 n=a5 v=127
51231 On ch=8 n=g5 v=127
51231 On ch=5 n=e6 v=127
51269 Off ch=3 n=d6 v=127
51346 On ch=2 n=c#6 v=127
51384 Off ch=5 n=e6 v=127
51461 Off ch=8 n=g5 v=127
51461 On ch=6 n=f5 v=127
51461 On ch=3 n=d6 v=127
51499 Off ch=2 n=c#6 v=127
51576 On ch=13 n=b5 v=127
51614 Off ch=3 n=d6 v=127
51691 Off ch=6 n=f5 v=127
51691 On ch=8 n=g5 v=127
51691 On ch=5 n=e5 v=127
51691 On ch=2 n=c#6 v=127
51729 Off ch=13 n=b5 v=127
51806 On ch=11 n=a5 v=127
51844 Off ch=2 n=c#6 v=127
51921 Off ch=5 n=e5 v=127
51921 Off ch=8 n=g5 v=127
51921 On ch=8 n=g5 v=127
51921 On ch=3 n=d5 v=127
51921 On ch=12 n=a#5 v=127
51959 Off ch=11 n=a5 v=127
52036 Off ch=8 n=g5 v=127
52036 On ch=8 n=g5 v=127
52074 Off ch=12 n=a#5 v=127
52151 Off ch=3 n=d5 v=127
52151 On ch=2 n=c#5 v=127
52151 On ch=11 n=a5 v=127
52189 Off ch=8 n=g5 v=127
52266 On ch=6 n=f5 v=127
52304 Off ch=11 n=a5 v=127
52381 Off ch=2 n=c#5 v=127
52381 On ch=11 n=a4 v=127
52381 On ch=8 n=g5 v=127
52419 Off ch=6 n=f5 v=127
52496 On ch=5 n=e5 v=127
52534 Off ch=8 n=g5 v=127
52611 Off ch=11 n=a4 v=127
52611 On ch=3 n=d4 v=127
52611 On ch=6 n=f5 v=127
52649 Off ch=5 n=e5 v=127
52726 Off ch=6 n=f5 v=127
52726 On ch=3 n=d5 v=127
52841 On ch=4 n=d#5 v=127
52879 Off ch=3 n=d5 v=127
52956 On ch=3 n=d5 v=127
52994 Off ch=4 n=d#5 v=127
53071 On ch=4 n=d#5 v=127
53109 Off ch=3 n=d5 v=127
53186 On ch=3 n=d5 v=127
53224 Off ch=4 n=d#5 v=127
53300 Off ch=3 n=d4 v=127
53301 On ch=5 n=e5 v=127
53339 Off ch=3 n=d5 v=127
53416 On ch=3 n=d5 v=127
53454 Off ch=5 n=e5 v=127
53531 On ch=7 n=f#5 v=127
53531 On ch=1 n=c5 v=127
53569 Off ch=3 n=d5 v=127
53646 On ch=3 n=d5 v=127
53684 Off ch=7 n=f#5 v=127
53761 Off ch=1 n=c5 v=127
53761 On ch=5 n=e5 v=127
53761 On ch=1 n=c5 v=127
53799 Off ch=3 n=d5 v=127
53876 On ch=3 n=d5 v=127
53914 Off ch=5 n=e5 v=127
53991 Off ch=1 n=c5 v=127
53991 On ch=7 n=f#5 v=127
53991 On ch=1 n=c5 v=127
54029 Off ch=3 n=d5 v=127
54106 On ch=3 n=d5 v=127
54144 Off ch=7 n=f#5 v=127
54221 Off ch=1 n=c5 v=127
54221 On ch=11 n=a5 v=127
54221 On ch=1 n=c5 v=127
54259 Off ch=3 n=d5 v=127
54336 On ch=7 n=f#5 v=127
54374 Off ch=11 n=a5 v=127
54451 Off ch=7 n=f#5 v=127
54451 Off ch=1 n=c5 v=127
54451 On ch=12 n=a#4 v=127
54451 On ch=3 n=d5 v=127
54451 On ch=3 n=d6 v=127
54566 On ch=7 n=f#5 v=127
54681 Off ch=7 n=f#5 v=127
54681 Off ch=3 n=d5 v=127
54681 Off ch=12 n=a#4 v=127
54681 On ch=4 n=d#5 v=127
54681 On ch=1 n=c5 v=127
54681 On ch=8 n=g5 v=127
54796 Off ch=3 n=d6 v=127
54796 On ch=4 n=d#6 v=127
54911 Off ch=4 n=d#6 v=127
54911 Off ch=8 n=g5 v=127
54911 Off ch=1 n=c5 v=127
54911 Off ch=4 n=d#5 v=127
54911 On ch=3 n=d5 v=127
54911 On ch=12 n=a#4 v=127
54911 On ch=3 n=d6 v=127
55026 On ch=8 n=g5 v=127
55141 Off ch=8 n=g5 v=127
55141 Off ch=12 n=a#4 v=127
55141 Off ch=3 n=d5 v=127
55141 On ch=11 n=a4 v=127
55141 On ch=1 n=c5 v=127
55141 On ch=7 n=f#5 v=127
55256 Off ch=3 n=d6 v=127
55256 On ch=1 n=c6 v=127
55371 Off ch=1 n=c6 v=127
55371 Off ch=7 n=f#5 v=127
55371 Off ch=1 n=c5 v=127
55371 Off ch=11 n=a4 v=127
55371 On ch=12 n=a#5 v=127
55371 On ch=8 n=g6 v=127
55486 Off ch=8 n=g6 v=127
55486 On ch=3 n=d6 v=127
55601 Off ch=3 n=d6 v=127
55601 Off ch=12 n=a#5 v=127
55601 On ch=1 n=c6 v=127
55601 On ch=4 n=d#6 v=127
55716 Off ch=4 n=d#6 v=127
55716 On ch=11 n=a6 v=127
55831 Off ch=11 n=a6 v=127
55831 Off ch=1 n=c6 v=127
55831 On ch=12 n=a#5 v=127
55831 On ch=8 n=g6 v=127
55946 Off ch=8 n=g6 v=127
55946 On ch=3 n=d6 v=127
56061 Off ch=3 n=d6 v=127
56061 Off ch=12 n=a#5 v=127
56061 On ch=11 n=a5 v=127
56061 On ch=1 n=c6 v=127
56176 Off ch=1 n=c6 v=127
56176 On ch=7 n=f#6 v=127
56291 Off ch=7 n=f#6 v=127
56291 Off ch=11 n=a5 v=127
56291 On ch=12 n=a#4 v=127
56291 On ch=3 n=d5 v=127
56291 On ch=3 n=d6 v=127
56406 On ch=7 n=f#5 v=127
56521 Off ch=7 n=f#5 v=127
56521 Off ch=3 n=d5 v=127
56521 Off ch=12 n=a#4 v=127
56521 On ch=4 n=d#5 v=127
56521 On ch=1 n=c5 v=127
56521 On ch=8 n=g5 v=127
56636 Off ch=3 n=d6 v=127
56636 On ch=4 n=d#6 v=127
56751 Off ch=4 n=d#6 v=127
56751 Off ch=8 n=g5 v=127
56751 Off ch=1 n=c5 v=127
56751 Off ch=4 n=d#5 v=127
56751 On ch=3 n=d5 v=127
56751 On ch=12 n=a#4 v=127
56751 On ch=3 n=d6 v=127
56866 On ch=8 n=g5 v=127
56981 Off ch=8 n=g5 v=127
56981 Off ch=12 n=a#4 v=127
56981 Off ch=3 n=d5 v=127
56981 On ch=1 n=c5 v=127
56981 On ch=11 n=a4 v=127
56981 On ch=7 n=f#5 v=127
57096 Off ch=3 n=d6 v=127
57096 On ch=1 n=c6 v=127
57211 Off ch=1 n=c6 v=127
57211 Off ch=7 n=f#5 v=127
57211 Off ch=11 n=a4 v=127
57211 Off ch=1 n=c5 v=127
57211 On ch=12 n=a#5 v=127
57211 On ch=8 n=g6 v=127
57321 Off ch=8 n=g6 v=127
57326 On ch=3 n=d6 v=127
57441 Off ch=3 n=d6 v=127
57441 Off ch=12 n=a#5 v=127
57441 On ch=1 n=c6 v=127
57441 On ch=4 n=d#6 v=127
57556 Off ch=4 n=d#6 v=127
57556 On ch=11 n=a6 v=127
57671 Off ch=11 n=a6 v=127
57671 Off ch=1 n=c6 v=127
57671 On ch=12 n=a#5 v=127
57671 On ch=8 n=g6 v=127
57781 Off ch=8 n=g6 v=127
57786 On ch=3 n=d6 v=127
57901 Off ch=3 n=d6 v=127
57901 Off ch=12 n=a#5 v=127
57901 On ch=11 n=a5 v=127
57901 On ch=1 n=c6 v=127
58016 Off ch=1 n=c6 v=127
58016 On ch=7 n=f#6 v=127
58131 Off ch=7 n=f#6 v=127
58131 Off ch=11 n=a5 v=127
58131 On ch=8 n=g5 v=127
58131 On ch=12 n=a#6 v=127
58246 Off ch=12 n=a#6 v=127
58246 On ch=8 n=g6 v=127
58361 Off ch=8 n=g6 v=127
58361 Off ch=8 n=g5 v=127
58361 On ch=8 n=g5 v=127
58361 On ch=11 n=a6 v=127
58476 Off ch=11 n=a6 v=127
58476 On ch=6 n=f6 v=127
58591 Off ch=6 n=f6 v=127
58591 Off ch=8 n=g5 v=127
58591 On ch=8 n=g5 v=127
58591 On ch=8 n=g6 v=127
58706 Off ch=8 n=g6 v=127
58706 On ch=5 n=e6 v=127
58821 Off ch=5 n=e6 v=127
58821 Off ch=8 n=g5 v=127
58821 On ch=8 n=g5 v=127
58821 On ch=6 n=f6 v=127
58936 Off ch=6 n=f6 v=127
58936 On ch=3 n=d6 v=127
59051 Off ch=3 n=d6 v=127
59051 Off ch=8 n=g5 v=127
59051 On ch=8 n=g5 v=127
59051 On ch=11 n=a4 v=127
59051 On ch=5 n=e6 v=127
59166 Off ch=5 n=e6 v=127
59166 On ch=2 n=c#6 v=127
59281 Off ch=2 n=c#6 v=127
59281 Off ch=11 n=a4 v=127
59281 Off ch=8 n=g5 v=127
59281 On ch=8 n=g5 v=127
59281 On ch=11 n=a4 v=127
59281 On ch=3 n=d6 v=127
59396 Off ch=3 n=d6 v=127
59396 On ch=13 n=b5 v=127
59511 Off ch=13 n=b5 v=127
59511 Off ch=11 n=a4 v=127
59511 Off ch=8 n=g5 v=127
59511 On ch=8 n=g5 v=127
59511 On ch=11 n=a4 v=127
59511 On ch=2 n=c#6 v=127
59626 Off ch=2 n=c#6 v=127
59626 On ch=11 n=a5 v=127
59741 Off ch=11 n=a5 v=127
59741 Off ch=11 n=a4 v=127
59741 Off ch=8 n=g5 v=127
59741 On ch=11 n=a4 v=127
59741 On ch=8 n=g5 v=127
59741 On ch=12 n=a#5 v=127
59856 Off ch=12 n=a#5 v=127
59856 Off ch=8 n=g5 v=127
59856 On ch=8 n=g5 v=127
59971 Off ch=8 n=g5 v=127
59971 Off ch=11 n=a4 v=127
59971 On ch=6 n=f5 v=127
59971 On ch=11 n=a6 v=127
60086 Off ch=11 n=a6 v=127
60086 On ch=6 n=f6 v=127
60201 Off ch=6 n=f6 v=127
60201 Off ch=6 n=f5 v=127
60201 On ch=6 n=f5 v=127
60201 On ch=8 n=g6 v=127
60316 Off ch=8 n=g6 v=127
60316 On ch=5 n=e6 v=127
60431 Off ch=5 n=e6 v=127
60431 Off ch=6 n=f5 v=127
60431 On ch=6 n=f5 v=127
60431 On ch=6 n=f6 v=127
60546 Off ch=6 n=f6 v=127
60546 On ch=3 n=d6 v=127
60661 Off ch=3 n=d6 v=127
60661 Off ch=6 n=f5 v=127
60661 On ch=6 n=f5 v=127
60661 On ch=4 n=d#6 v=127
60776 Off ch=4 n=d#6 v=127
60776 On ch=1 n=c6 v=127
60891 Off ch=1 n=c6 v=127
60891 Off ch=6 n=f5 v=127
60891 On ch=8 n=g4 v=127
60891 On ch=6 n=f5 v=127
60891 On ch=3 n=d6 v=127
61006 Off ch=3 n=d6 v=127
61006 On ch=13 n=b5 v=127
61121 Off ch=13 n=b5 v=127
61121 Off ch=6 n=f5 v=127
61121 Off ch=8 n=g4 v=127
61121 On ch=6 n=f5 v=127
61121 On ch=8 n=g4 v=127
61121 On ch=1 n=c6 v=127
61236 Off ch=1 n=c6 v=127
61236 On ch=11 n=a5 v=127
61351 Off ch=11 n=a5 v=127
61351 Off ch=8 n=g4 v=127
61351 Off ch=6 n=f5 v=127
61351 On ch=6 n=f5 v=127
61351 On ch=8 n=g4 v=127
61351 On ch=13 n=b5 v=127
61466 Off ch=13 n=b5 v=127
61466 On ch=8 n=g5 v=127
61581 Off ch=8 n=g5 v=127
61581 Off ch=8 n=g4 v=127
61581 Off ch=6 n=f5 v=127
61581 On ch=6 n=f5 v=127
61581 On ch=8 n=g4 v=127
61581 On ch=9 n=g#5 v=127
61696 Off ch=9 n=g#5 v=127
61696 Off ch=6 n=f5 v=127
61696 On ch=6 n=f5 v=127
61811 Off ch=6 n=f5 v=127
61811 Off ch=8 n=g4 v=127
61811 On ch=4 n=d#5 v=127
61811 On ch=8 n=g6 v=127
61926 On ch=8 n=g5 v=127
62041 Off ch=8 n=g6 v=127
62041 Off ch=4 n=d#5 v=127
62041 On ch=9 n=g#5 v=127
62041 On ch=4 n=d#5 v=127
62079 Off ch=8 n=g5 v=127
62156 On ch=8 n=g5 v=127
62194 Off ch=9 n=g#5 v=127
62271 Off ch=4 n=d#5 v=127
62271 On ch=9 n=g#5 v=127
62271 On ch=4 n=d#5 v=127
62309 Off ch=8 n=g5 v=127
62386 On ch=8 n=g5 v=127
62424 Off ch=9 n=g#5 v=127
62501 Off ch=4 n=d#5 v=127
62501 On ch=11 n=a5 v=127
62501 On ch=4 n=d#5 v=127
62539 Off ch=8 n=g5 v=127
62616 On ch=8 n=g5 v=127
62654 Off ch=11 n=a5 v=127
62731 Off ch=4 n=d#5 v=127
62731 On ch=12 n=a#5 v=127
62731 On ch=6 n=f5 v=127
62731 On ch=3 n=d5 v=127
62769 Off ch=8 n=g5 v=127
62846 On ch=11 n=a5 v=127
62884 Off ch=12 n=a#5 v=127
62961 Off ch=3 n=d5 v=127
62961 Off ch=6 n=f5 v=127
62961 On ch=12 n=a#5 v=127
62961 On ch=6 n=f5 v=127
62961 On ch=3 n=d5 v=127
62999 Off ch=11 n=a5 v=127
63076 On ch=11 n=a5 v=127
63114 Off ch=12 n=a#5 v=127
63191 Off ch=3 n=d5 v=127
63191 Off ch=6 n=f5 v=127
63191 On ch=12 n=a#5 v=127
63191 On ch=6 n=f5 v=127
63191 On ch=3 n=d5 v=127
63229 Off ch=11 n=a5 v=127
63306 On ch=11 n=a5 v=127
63344 Off ch=12 n=a#5 v=127
63421 Off ch=3 n=d5 v=127
63421 Off ch=6 n=f5 v=127
63421 On ch=13 n=b5 v=127
63421 On ch=6 n=f5 v=127
63421 On ch=3 n=d5 v=127
63459 Off ch=11 n=a5 v=127
63536 On ch=11 n=a5 v=127
63574 Off ch=13 n=b5 v=127
63651 Off ch=3 n=d5 v=127
63651 Off ch=6 n=f5 v=127
63651 On ch=1 n=c6 v=127
63651 On ch=4 n=d#5 v=127
63651 On ch=8 n=g5 v=127
63689 Off ch=11 n=a5 v=127
63766 On ch=13 n=b5 v=127
63804 Off ch=1 n=c6 v=127
63881 Off ch=8 n=g5 v=127
63881 Off ch=4 n=d#5 v=127
63881 On ch=3 n=d6 v=127
63881 On ch=6 n=f5 v=127
63881 On ch=3 n=d5 v=127
63919 Off ch=13 n=b5 v=127
63996 On ch=1 n=c6 v=127
64034 Off ch=3 n=d6 v=127
64111 Off ch=3 n=d5 v=127
64111 Off ch=6 n=f5 v=127
64111 On ch=1 n=c5 v=127
64111 On ch=8 n=g5 v=127
64111 On ch=4 n=d#6 v=127
64149 Off ch=1 n=c6 v=127
64226 Off ch=8 n=g5 v=127
64226 On ch=8 n=g5 v=127
64341 Off ch=8 n=g5 v=127
64341 Off ch=4 n=d#6 v=127
64341 Off ch=1 n=c5 v=127
64341 On ch=6 n=f4 v=127
64341 On ch=9 n=g#5 v=127
64341 On ch=3 n=d6 v=127
64456 Off ch=3 n=d6 v=127
64456 On ch=1 n=c6 v=127
64571 Off ch=1 n=c6 v=127
64571 Off ch=9 n=g#5 v=127
64571 Off ch=6 n=f4 v=127
64571 On ch=8 n=g4 v=127
64571 On ch=13 n=b5 v=127
64686 Off ch=13 n=b5 v=127
64686 On ch=8 n=g5 v=127
64801 On ch=9 n=g#5 v=127
64839 Off ch=8 n=g5 v=127
64916 On ch=8 n=g5 v=127
64954 Off ch=9 n=g#5 v=127
65031 On ch=9 n=g#5 v=127
65031 On ch=6 n=f5 v=127
65069 Off ch=8 n=g5 v=127
65146 On ch=8 n=g5 v=127
65184 Off ch=9 n=g#5 v=127
65260 Off ch=8 n=g4 v=127
65261 Off ch=6 n=f5 v=127
65261 On ch=11 n=a5 v=127
65261 On ch=4 n=d#5 v=127
65299 Off ch=8 n=g5 v=127
65376 On ch=8 n=g5 v=127
65414 Off ch=11 n=a5 v=127
65491 Off ch=4 n=d#5 v=127
65491 On ch=12 n=a#5 v=127
65491 On ch=3 n=d5 v=127
65529 Off ch=8 n=g5 v=127
65606 On ch=11 n=a5 v=127
65644 Off ch=12 n=a#5 v=127
65721 Off ch=3 n=d5 v=127
65721 On ch=13 n=b5 v=127
65721 On ch=6 n=f5 v=127
65759 Off ch=11 n=a5 v=127
65836 On ch=11 n=a5 v=127
65874 Off ch=13 n=b5 v=127
65951 Off ch=6 n=f5 v=127
65951 On ch=1 n=c6 v=127
65951 On ch=4 n=d#5 v=127
65989 Off ch=11 n=a5 v=127
66066 On ch=13 n=b5 v=127
66104 Off ch=1 n=c6 v=127
66181 Off ch=4 n=d#5 v=127
66181 On ch=3 n=d6 v=127
66181 On ch=3 n=d5 v=127
66219 Off ch=13 n=b5 v=127
66296 On ch=1 n=c6 v=127
66334 Off ch=3 n=d6 v=127
66411 Off ch=3 n=d5 v=127
66411 On ch=4 n=d#6 v=127
66411 On ch=1 n=c5 v=127
66449 Off ch=1 n=c6 v=127
66526 On ch=3 n=d6 v=127
66564 Off ch=4 n=d#6 v=127
66641 Off ch=1 n=c5 v=127
66641 On ch=5 n=e6 v=127
66641 On ch=12 n=a#5 v=127
66679 Off ch=3 n=d6 v=127
66756 On ch=3 n=d6 v=127
66794 Off ch=5 n=e6 v=127
66871 Off ch=12 n=a#5 v=127
66871 On ch=6 n=f6 v=127
66871 On ch=11 n=a5 v=127
66909 Off ch=3 n=d6 v=127
66986 On ch=5 n=e6 v=127
67024 Off ch=6 n=f6 v=127
67101 Off ch=11 n=a5 v=127
67101 On ch=7 n=f#6 v=127
67101 On ch=1 n=c6 v=127
67139 Off ch=5 n=e6 v=127
67216 On ch=5 n=e6 v=127
67254 Off ch=7 n=f#6 v=127
67331 Off ch=1 n=c6 v=127
67331 On ch=8 n=g6 v=127
67331 On ch=12 n=a#5 v=127
67369 Off ch=5 n=e6 v=127
67446 On ch=7 n=f#6 v=127
67484 Off ch=8 n=g6 v=127
67561 Off ch=12 n=a#5 v=127
67561 On ch=11 n=a6 v=127
67561 On ch=11 n=a5 v=127
67561 On ch=7 n=f#5 v=127
67599 Off ch=7 n=f#6 v=127
67676 On ch=8 n=g6 v=127
67714 Off ch=11 n=a6 v=127
67791 Off ch=7 n=f#5 v=127
67791 Off ch=11 n=a5 v=127
67791 On ch=12 n=a#5 v=127
67791 On ch=8 n=g5 v=127
67791 On ch=12 n=a#6 v=127
67829 Off ch=8 n=g6 v=127
67906 On ch=3 n=d6 v=127
68021 Off ch=3 n=d6 v=127
68021 Off ch=12 n=a#6 v=127
68021 Off ch=8 n=g5 v=127
68021 Off ch=12 n=a#5 v=127
68021 On ch=1 n=c5 v=127
68021 On ch=4 n=d#6 v=127
68021 On ch=11 n=a6 v=127
68136 Off ch=11 n=a6 v=127
68136 On ch=8 n=g6 v=127
68251 Off ch=8 n=g6 v=127
68251 Off ch=4 n=d#6 v=127
68251 Off ch=1 n=c5 v=127
68251 On ch=3 n=d5 v=127
68251 On ch=7 n=f#6 v=127
68366 Off ch=7 n=f#6 v=127
68366 On ch=3 n=d6 v=127
68481 On ch=4 n=d#6 v=127
68519 Off ch=3 n=d6 v=127
68596 On ch=3 n=d6 v=127
68634 Off ch=4 n=d#6 v=127
68711 Off ch=3 n=d5 v=127
68711 On ch=4 n=d#6 v=127
68711 On ch=1 n=c6 v=127
68749 Off ch=3 n=d6 v=127
68826 On ch=3 n=d6 v=127
68864 Off ch=4 n=d#6 v=127
68941 Off ch=1 n=c6 v=127
68941 On ch=5 n=e6 v=127
68941 On ch=12 n=a#5 v=127
68979 Off ch=3 n=d6 v=127
69056 On ch=3 n=d6 v=127
69094 Off ch=5 n=e6 v=127
69171 Off ch=12 n=a#5 v=127
69171 On ch=6 n=f6 v=127
69171 On ch=11 n=a5 v=127
69209 Off ch=3 n=d6 v=127
69286 On ch=5 n=e6 v=127
69324 Off ch=6 n=f6 v=127
69401 Off ch=11 n=a5 v=127
69401 On ch=7 n=f#6 v=127
69401 On ch=1 n=c6 v=127
69439 Off ch=5 n=e6 v=127
69516 On ch=5 n=e6 v=127
69554 Off ch=7 n=f#6 v=127
69631 Off ch=1 n=c6 v=127
69631 On ch=8 n=g6 v=127
69631 On ch=12 n=a#5 v=127
69669 Off ch=5 n=e6 v=127
69746 On ch=7 n=f#6 v=127
69784 Off ch=8 n=g6 v=127
69861 Off ch=12 n=a#5 v=127
69861 On ch=11 n=a6 v=127
69861 On ch=11 n=a5 v=127
69899 Off ch=7 n=f#6 v=127
69976 On ch=8 n=g6 v=127
70014 Off ch=11 n=a6 v=127
70091 Off ch=11 n=a5 v=127
70091 On ch=8 n=g5 v=127
70091 On ch=12 n=a#6 v=127
70129 Off ch=8 n=g6 v=127
70206 On ch=2 n=c#6 v=127
70321 Off ch=2 n=c#6 v=127
70321 Off ch=8 n=g5 v=127
70321 On ch=6 n=f5 v=127
70321 On ch=11 n=a5 v=127
70321 On ch=3 n=d6 v=127
70436 Off ch=3 n=d6 v=127
70436 On ch=11 n=a6 v=127
70437 Off ch=12 n=a#6 v=127
70551 Off ch=11 n=a5 v=127
70551 Off ch=6 n=f5 v=127
70551 On ch=8 n=g5 v=127
70551 On ch=5 n=e5 v=127
70551 On ch=8 n=g6 v=127
70552 Off ch=11 n=a6 v=127
70666 On ch=2 n=c#6 v=127
70781 Off ch=2 n=c#6 v=127
70781 Off ch=5 n=e5 v=127
70781 Off ch=8 n=g5 v=127
70781 On ch=6 n=f5 v=127
70781 On ch=3 n=d5 v=127
70781 On ch=11 n=a5 v=127
70781 On ch=3 n=d6 v=127
70896 Off ch=3 n=d6 v=127
70896 On ch=6 n=f6 v=127
70897 Off ch=8 n=g6 v=127
71011 Off ch=11 n=a5 v=127
71011 Off ch=3 n=d5 v=127
71011 Off ch=6 n=f5 v=127
71011 On ch=8 n=g5 v=127
71011 On ch=12 n=a#6 v=127
71012 Off ch=6 n=f6 v=127
71126 On ch=2 n=c#6 v=127
71184 Off ch=12 n=a#6 v=127
71242 Off ch=2 n=c#6 v=127
71242 Off ch=8 n=g5 v=127
71242 On ch=11 n=a5 v=127
71242 On ch=6 n=f5 v=127
71242 On ch=3 n=d6 v=127
71357 On ch=11 n=a6 v=127
71415 Off ch=3 n=d6 v=127
71473 Off ch=11 n=a6 v=127
71473 Off ch=6 n=f5 v=127
71473 Off ch=11 n=a5 v=127
71473 On ch=8 n=g5 v=127
71473 On ch=5 n=e5 v=127
71473 On ch=8 n=g6 v=127
71588 On ch=2 n=c#6 v=127
71646 Off ch=8 n=g6 v=127
71704 Off ch=2 n=c#6 v=127
71704 Off ch=5 n=e5 v=127
71704 Off ch=8 n=g5 v=127
71704 On ch=6 n=f5 v=127
71704 On ch=3 n=d5 v=127
71704 On ch=11 n=a5 v=127
71704 On ch=3 n=d6 v=127
71819 On ch=6 n=f6 v=127
71877 Off ch=3 n=d6 v=127
71935 Off ch=6 n=f6 v=127
71935 Off ch=11 n=a5 v=127
71935 Off ch=3 n=d5 v=127
71935 Off ch=6 n=f5 v=127
71935 On ch=8 n=g5 v=127
71935 On ch=12 n=a#6 v=127
72031 Off ch=12 n=a#6 v=127
72050 On ch=2 n=c#6 v=127
72165 Off ch=2 n=c#6 v=127
72165 Off ch=8 n=g5 v=127
72165 On ch=6 n=f5 v=127
72165 On ch=11 n=a5 v=127
72165 On ch=3 n=d6 v=127
72280 On ch=11 n=a6 v=127
72386 Off ch=11 n=a6 v=127
72396 Off ch=3 n=d6 v=127
72396 Off ch=11 n=a5 v=127
72396 Off ch=6 n=f5 v=127
72396 On ch=8 n=g5 v=127
72396 On ch=5 n=e5 v=127
72396 On ch=8 n=g6 v=127
72492 Off ch=8 n=g6 v=127
72511 On ch=2 n=c#6 v=127
72626 Off ch=2 n=c#6 v=127
72626 Off ch=5 n=e5 v=127
72626 Off ch=8 n=g5 v=127
72626 On ch=6 n=f5 v=127
72626 On ch=3 n=d5 v=127
72626 On ch=3 n=d6 v=127
72741 On ch=6 n=f6 v=127
72856 Off ch=6 n=f6 v=127
72856 Off ch=3 n=d6 v=127
72856 Off ch=3 n=d5 v=127
72856 Off ch=6 n=f5 v=127
72856 On ch=2 n=c#5 v=127
72856 On ch=8 n=g5 v=127
72856 On ch=8 n=g6 v=127
72971 On ch=11 n=a5 v=127
73086 Off ch=8 n=g5 v=127
73086 Off ch=2 n=c#5 v=127
73086 On ch=3 n=d5 v=127
73086 On ch=8 n=g5 v=127
73086 On ch=12 n=a#5 v=127
73087 Off ch=11 n=a5 v=127
73201 On ch=6 n=f6 v=127
73202 Off ch=12 n=a#5 v=127
73202 Off ch=8 n=g6 v=127
73316 Off ch=8 n=g5 v=127
73316 Off ch=3 n=d5 v=127
73316 On ch=2 n=c#5 v=127
73316 On ch=8 n=g5 v=127
73316 On ch=5 n=e6 v=127
73317 Off ch=6 n=f6 v=127
73431 On ch=11 n=a5 v=127
73546 Off ch=8 n=g5 v=127
73546 Off ch=2 n=c#5 v=127
73546 On ch=3 n=d5 v=127
73546 On ch=8 n=g5 v=127
73546 On ch=12 n=a#5 v=127
73547 Off ch=11 n=a5 v=127
73661 On ch=3 n=d6 v=127
73662 Off ch=12 n=a#5 v=127
73662 Off ch=5 n=e6 v=127
73776 Off ch=8 n=g5 v=127
73776 Off ch=3 n=d5 v=127
73776 On ch=8 n=g5 v=127
73776 On ch=2 n=c#5 v=127
73776 On ch=8 n=g6 v=127
73777 Off ch=3 n=d6 v=127
73891 On ch=11 n=a5 v=127
74006 Off ch=11 n=a5 v=127
74006 Off ch=8 n=g6 v=127
74006 Off ch=2 n=c#5 v=127
74006 Off ch=8 n=g5 v=127
74006 On ch=8 n=g5 v=127
74006 On ch=3 n=d5 v=127
74006 On ch=12 n=a#5 v=127
74121 On ch=6 n=f6 v=127
74236 Off ch=6 n=f6 v=127
74236 Off ch=12 n=a#5 v=127
74236 Off ch=3 n=d5 v=127
74236 Off ch=8 n=g5 v=127
74236 On ch=8 n=g5 v=127
74236 On ch=2 n=c#5 v=127
74236 On ch=5 n=e6 v=127
74351 On ch=11 n=a5 v=127
74466 Off ch=11 n=a5 v=127
74466 Off ch=5 n=e6 v=127
74466 Off ch=2 n=c#5 v=127
74466 Off ch=8 n=g5 v=127
74466 On ch=8 n=g5 v=127
74466 On ch=3 n=d5 v=127
74466 On ch=12 n=a#5 v=127
74581 On ch=3 n=d6 v=127
74696 Off ch=3 n=d6 v=127
74696 Off ch=12 n=a#5 v=127
74696 Off ch=3 n=d5 v=127
74696 Off ch=8 n=g5 v=127
74696 On ch=8 n=g5 v=127
74696 On ch=2 n=c#5 v=127
74696 On ch=8 n=g6 v=127
74811 Off ch=8 n=g6 v=127
74811 On ch=11 n=a5 v=127
74926 Off ch=11 n=a5 v=127
74926 Off ch=2 n=c#5 v=127
74926 Off ch=8 n=g5 v=127
74926 On ch=8 n=g5 v=127
74926 On ch=3 n=d5 v=127
74926 On ch=12 n=a#5 v=127
75041 On ch=6 n=f6 v=127
75156 Off ch=6 n=f6 v=127
75156 Off ch=3 n=d5 v=127
75156 Off ch=8 n=g5 v=127
75156 On ch=2 n=c#5 v=127
75156 On ch=8 n=g5 v=127
75156 On ch=5 n=e6 v=127
75271 Off ch=5 n=e6 v=127
75271 Off ch=12 n=a#5 v=127
75271 On ch=11 n=a5 v=127
75386 Off ch=11 n=a5 v=127
75386 Off ch=8 n=g5 v=127
75386 Off ch=2 n=c#5 v=127
75386 On ch=8 n=g5 v=127
75386 On ch=3 n=d5 v=127
75386 On ch=12 n=a#5 v=127
75501 On ch=3 n=d6 v=127
75616 Off ch=3 n=d6 v=127
75616 Off ch=3 n=d5 v=127
75616 Off ch=8 n=g5 v=127
75616 On ch=12 n=a#4 v=127
75616 On ch=3 n=d5 v=127
75616 On ch=8 n=g6 v=127
75712 Off ch=8 n=g6 v=127
75731 Off ch=12 n=a#5 v=127
75731 On ch=11 n=a5 v=127
75827 Off ch=11 n=a5 v=127
75846 Off ch=3 n=d5 v=127
75846 Off ch=12 n=a#4 v=127
75846 On ch=11 n=a4 v=127
75846 On ch=12 n=a#5 v=127
75942 Off ch=12 n=a#5 v=127
75961 On ch=6 n=f6 v=127
76057 Off ch=6 n=f6 v=127
76076 Off ch=11 n=a4 v=127
76076 On ch=8 n=g4 v=127
76076 On ch=5 n=e6 v=127
76172 Off ch=5 n=e6 v=127
76191 On ch=11 n=a5 v=127
76287 Off ch=11 n=a5 v=127
76306 On ch=8 n=g3 v=127
76306 On ch=12 n=a#5 v=127
76402 Off ch=12 n=a#5 v=127
76421 On ch=3 n=d6 v=127
76517 Off ch=3 n=d6 v=127
76536 Off ch=8 n=g3 v=127
76536 Off ch=8 n=g4 v=127
76536 On ch=11 n=a3 v=127
76536 On ch=2 n=c#6 v=127
76536 On ch=5 n=e6 v=127
76651 On ch=11 n=a4 v=127
76709 Off ch=11 n=a3 v=127
76767 Off ch=5 n=e6 v=127
76767 Off ch=2 n=c#6 v=127
76767 On ch=6 n=f6 v=127
76767 On ch=3 n=d6 v=127
76767 On ch=9 n=g#4 v=127
76825 Off ch=11 n=a4 v=127
76883 On ch=11 n=a4 v=127
76941 Off ch=9 n=g#4 v=127
76999 Off ch=3 n=d6 v=127
76999 Off ch=6 n=f6 v=127
76999 On ch=8 n=g6 v=127
76999 On ch=5 n=e6 v=127
76999 On ch=9 n=g#4 v=127
77057 Off ch=11 n=a4 v=127
77115 On ch=11 n=a4 v=127
77173 Off ch=9 n=g#4 v=127
77231 Off ch=5 n=e6 v=127
77231 Off ch=8 n=g6 v=127
77231 On ch=6 n=f6 v=127
77231 On ch=11 n=a6 v=127
77231 On ch=9 n=g#4 v=127
77289 Off ch=11 n=a4 v=127
77347 On ch=11 n=a4 v=127
77405 Off ch=9 n=g#4 v=127
77463 Off ch=11 n=a6 v=127
77463 Off ch=6 n=f6 v=127
77463 On ch=12 n=a#3 v=127
77463 On ch=8 n=g6 v=127
77463 On ch=5 n=e6 v=127
77521 Off ch=11 n=a4 v=127
77579 On ch=11 n=a4 v=127
77637 Off ch=12 n=a#3 v=127
77695 Off ch=5 n=e6 v=127
77695 Off ch=8 n=g6 v=127
77695 On ch=6 n=f6 v=127
77695 On ch=3 n=d6 v=127
77695 On ch=9 n=g#4 v=127
77753 Off ch=11 n=a4 v=127
77811 On ch=11 n=a4 v=127
77869 Off ch=9 n=g#4 v=127
77927 Off ch=3 n=d6 v=127
77927 Off ch=6 n=f6 v=127
77927 On ch=2 n=c#6 v=127
77927 On ch=5 n=e6 v=127
77927 On ch=9 n=g#4 v=127
77985 Off ch=11 n=a4 v=127
78043 On ch=11 n=a4 v=127
78101 Off ch=9 n=g#4 v=127
78159 Off ch=5 n=e6 v=127
78159 Off ch=2 n=c#6 v=127
78159 On ch=3 n=d6 v=127
78159 On ch=9 n=g#4 v=127
78217 Off ch=11 n=a4 v=127
78275 On ch=11 n=a4 v=127
78333 Off ch=9 n=g#4 v=127
78391 Off ch=3 n=d6 v=127
78391 On ch=11 n=a3 v=127
78391 On ch=2 n=c#6 v=127
78391 On ch=5 n=e6 v=127
78449 Off ch=11 n=a4 v=127
78507 On ch=11 n=a4 v=127
78565 Off ch=11 n=a3 v=127
78623 Off ch=5 n=e6 v=127
78623 Off ch=2 n=c#6 v=127
78623 On ch=6 n=f6 v=127
78623 On ch=3 n=d6 v=127
78623 On ch=9 n=g#4 v=127
78681 Off ch=11 n=a4 v=127
78739 On ch=11 n=a4 v=127
78797 Off ch=9 n=g#4 v=127
78855 Off ch=3 n=d6 v=127
78855 Off ch=6 n=f6 v=127
78855 On ch=8 n=g6 v=127
78855 On ch=5 n=e6 v=127
78855 On ch=9 n=g#4 v=127
78913 Off ch=11 n=a4 v=127
78971 On ch=11 n=a4 v=127
79029 Off ch=9 n=g#4 v=127
79087 Off ch=5 n=e6 v=127
79087 Off ch=8 n=g6 v=127
79087 On ch=6 n=f6 v=127
79087 On ch=11 n=a6 v=127
79087 On ch=9 n=g#4 v=127
79145 Off ch=11 n=a4 v=127
79203 On ch=11 n=a4 v=127
79261 Off ch=9 n=g#4 v=127
79319 Off ch=11 n=a6 v=127
79319 Off ch=6 n=f6 v=127
79319 On ch=8 n=g3 v=127
79319 On ch=12 n=a#6 v=127
79319 On ch=8 n=g6 v=127
79377 Off ch=11 n=a4 v=127
79435 On ch=11 n=a4 v=127
79493 Off ch=8 n=g3 v=127
79551 Off ch=8 n=g6 v=127
79551 Off ch=12 n=a#6 v=127
79551 On ch=6 n=f6 v=127
79551 On ch=11 n=a6 v=127
79551 On ch=9 n=g#4 v=127
79609 Off ch=11 n=a4 v=127
79667 On ch=11 n=a4 v=127
79725 Off ch=9 n=g#4 v=127
79783 Off ch=11 n=a6 v=127
79783 Off ch=6 n=f6 v=127
79783 On ch=5 n=e6 v=127
79783 On ch=8 n=g6 v=127
79783 On ch=9 n=g#4 v=127
79841 Off ch=11 n=a4 v=127
79899 On ch=11 n=a4 v=127
79957 Off ch=9 n=g#4 v=127
80015 Off ch=8 n=g6 v=127
80015 Off ch=5 n=e6 v=127
80015 On ch=6 n=f6 v=127
80015 On ch=3 n=d6 v=127
80015 On ch=9 n=g#4 v=127
80073 Off ch=11 n=a4 v=127
80131 On ch=11 n=a4 v=127
80189 Off ch=9 n=g#4 v=127
80247 Off ch=3 n=d6 v=127
80247 Off ch=6 n=f6 v=127
80247 On ch=11 n=a3 v=127
80247 On ch=5 n=e6 v=127
80247 On ch=2 n=c#6 v=127
80305 Off ch=11 n=a4 v=127
80363 On ch=11 n=a4 v=127
80421 Off ch=11 n=a3 v=127
80479 Off ch=2 n=c#6 v=127
80479 Off ch=5 n=e6 v=127
80479 On ch=3 n=d6 v=127
80479 On ch=6 n=f6 v=127
80479 On ch=9 n=g#4 v=127
80537 Off ch=11 n=a4 v=127
80595 On ch=11 n=a4 v=127
80653 Off ch=9 n=g#4 v=127
80711 Off ch=6 n=f6 v=127
80711 Off ch=3 n=d6 v=127
80711 On ch=5 n=e6 v=127
80711 On ch=8 n=g6 v=127
80711 On ch=9 n=g#4 v=127
80769 Off ch=11 n=a4 v=127
80827 On ch=11 n=a4 v=127
80885 Off ch=9 n=g#4 v=127
80943 Off ch=8 n=g6 v=127
80943 Off ch=5 n=e6 v=127
80943 On ch=11 n=a6 v=127
80943 On ch=6 n=f6 v=127
80943 On ch=9 n=g#4 v=127
81001 Off ch=11 n=a4 v=127
81059 On ch=11 n=a4 v=127
81117 Off ch=9 n=g#4 v=127
81175 Off ch=6 n=f6 v=127
81175 Off ch=11 n=a6 v=127
81175 On ch=12 n=a#3 v=127
81175 On ch=5 n=e6 v=127
81175 On ch=8 n=g6 v=127
81233 Off ch=11 n=a4 v=127
81291 On ch=11 n=a4 v=127
81349 Off ch=12 n=a#3 v=127
81407 Off ch=8 n=g6 v=127
81407 Off ch=5 n=e6 v=127
81407 On ch=6 n=f6 v=127
81407 On ch=3 n=d6 v=127
81407 On ch=9 n=g#4 v=127
81465 Off ch=11 n=a4 v=127
81523 On ch=11 n=a4 v=127
81581 Off ch=9 n=g#4 v=127
81639 Off ch=3 n=d6 v=127
81639 Off ch=6 n=f6 v=127
81639 On ch=5 n=e6 v=127
81639 On ch=2 n=c#6 v=127
81639 On ch=9 n=g#4 v=127
81697 Off ch=11 n=a4 v=127
81755 On ch=11 n=a4 v=127
81813 Off ch=9 n=g#4 v=127
81871 Off ch=2 n=c#6 v=127
81871 Off ch=5 n=e6 v=127
81871 On ch=3 n=d6 v=127
81871 On ch=9 n=g#4 v=127
81929 Off ch=11 n=a4 v=127
81987 On ch=11 n=a4 v=127
82045 Off ch=9 n=g#4 v=127
82045 Off ch=3 n=d6 v=127
82103 On ch=11 n=a3 v=127
82161 Off ch=11 n=a4 v=127
82219 On ch=11 n=a4 v=127
82334 On ch=12 n=a#4 v=127
82372 Off ch=11 n=a4 v=127
82449 On ch=11 n=a4 v=127
82487 Off ch=12 n=a#4 v=127
82564 Off ch=11 n=a3 v=127
82564 On ch=12 n=a#4 v=127
82564 On ch=8 n=g4 v=127
82602 Off ch=11 n=a4 v=127
82679 On ch=11 n=a4 v=127
82717 Off ch=12 n=a#4 v=127
82794 Off ch=8 n=g4 v=127
82794 On ch=13 n=b4 v=127
82794 On ch=6 n=f4 v=127
82832 Off ch=11 n=a4 v=127
82909 On ch=11 n=a4 v=127
82947 Off ch=13 n=b4 v=127
83024 Off ch=6 n=f4 v=127
83024 On ch=1 n=c5 v=127
83024 On ch=5 n=e4 v=127
83062 Off ch=11 n=a4 v=127
83139 On ch=13 n=b4 v=127
83177 Off ch=1 n=c5 v=127
83254 Off ch=5 n=e4 v=127
83254 On ch=2 n=c#5 v=127
83254 On ch=8 n=g4 v=127
83292 Off ch=13 n=b4 v=127
83369 On ch=13 n=b4 v=127
83407 Off ch=2 n=c#5 v=127
83484 Off ch=8 n=g4 v=127
83484 On ch=3 n=d5 v=127
83484 On ch=6 n=f4 v=127
83522 Off ch=13 n=b4 v=127
83599 On ch=2 n=c#5 v=127
83637 Off ch=3 n=d5 v=127
83714 Off ch=6 n=f4 v=127
83714 On ch=5 n=e5 v=127
83714 On ch=5 n=e4 v=127
83752 Off ch=2 n=c#5 v=127
83829 On ch=3 n=d5 v=127
83867 Off ch=5 n=e5 v=127
83944 Off ch=5 n=e4 v=127
83944 On ch=6 n=f5 v=127
83944 On ch=3 n=d4 v=127
83982 Off ch=3 n=d5 v=127
84059 On ch=5 n=e5 v=127
84097 Off ch=6 n=f5 v=127
84174 Off ch=3 n=d4 v=127
84174 On ch=7 n=f#5 v=127
84174 On ch=1 n=c5 v=127
84212 Off ch=5 n=e5 v=127
84289 On ch=5 n=e5 v=127
84327 Off ch=7 n=f#5 v=127
84404 Off ch=1 n=c5 v=127
84404 On ch=8 n=g5 v=127
84404 On ch=12 n=a#4 v=127
84442 Off ch=5 n=e5 v=127
84519 On ch=7 n=f#5 v=127
84557 Off ch=8 n=g5 v=127
84634 Off ch=12 n=a#4 v=127
84634 On ch=11 n=a5 v=127
84634 On ch=11 n=a4 v=127
84672 Off ch=7 n=f#5 v=127
84749 On ch=8 n=g5 v=127
84787 Off ch=11 n=a5 v=127
84864 Off ch=11 n=a4 v=127
84864 On ch=12 n=a#5 v=127
84864 On ch=8 n=g4 v=127
84902 Off ch=8 n=g5 v=127
84979 On ch=11 n=a5 v=127
85017 Off ch=12 n=a#5 v=127
85094 Off ch=8 n=g4 v=127
85094 On ch=13 n=b5 v=127
85094 On ch=6 n=f5 v=127
85132 Off ch=11 n=a5 v=127
85209 On ch=11 n=a5 v=127
85247 Off ch=13 n=b5 v=127
85324 Off ch=6 n=f5 v=127
85324 On ch=2 n=c#6 v=127
85324 On ch=5 n=e5 v=127
85362 Off ch=11 n=a5 v=127
85439 On ch=13 n=b5 v=127
85477 Off ch=2 n=c#6 v=127
85554 Off ch=5 n=e5 v=127
85554 On ch=3 n=d6 v=127
85554 On ch=3 n=d5 v=127
85592 Off ch=13 n=b5 v=127
85669 On ch=2 n=c#6 v=127
85707 Off ch=3 n=d6 v=127
85784 Off ch=3 n=d5 v=127
85784 On ch=5 n=e6 v=127
85784 On ch=2 n=c#5 v=127
85822 Off ch=2 n=c#6 v=127
85899 On ch=3 n=d6 v=127
85937 Off ch=5 n=e6 v=127
86014 Off ch=2 n=c#5 v=127
86014 On ch=6 n=f6 v=127
86014 On ch=3 n=d5 v=127
86052 Off ch=3 n=d6 v=127
86129 On ch=5 n=e6 v=127
86167 Off ch=6 n=f6 v=127
86244 Off ch=3 n=d5 v=127
86244 On ch=8 n=g6 v=127
86244 On ch=12 n=a#4 v=127
86282 Off ch=5 n=e6 v=127
86359 On ch=6 n=f6 v=127
86397 Off ch=8 n=g6 v=127
86474 Off ch=12 n=a#4 v=127
86474 On ch=11 n=a6 v=127
86474 On ch=11 n=a4 v=127
86512 Off ch=6 n=f6 v=127
86589 On ch=8 n=g6 v=127
86627 Off ch=11 n=a6 v=127
86704 Off ch=11 n=a4 v=127
86704 On ch=8 n=g4 v=127
86704 On ch=12 n=a#6 v=127
86742 Off ch=8 n=g6 v=127
86819 Off ch=12 n=a#6 v=127
86819 On ch=8 n=g6 v=127
86934 Off ch=8 n=g6 v=127
86934 Off ch=8 n=g4 v=127
86934 On ch=8 n=g5 v=127
86934 On ch=11 n=a6 v=127
87049 Off ch=11 n=a6 v=127
87049 On ch=6 n=f6 v=127
87164 Off ch=6 n=f6 v=127
87164 On ch=8 n=g6 v=127
87279 Off ch=8 n=g6 v=127
87279 On ch=5 n=e6 v=127
87394 Off ch=5 n=e6 v=127
87394 Off ch=8 n=g5 v=127
87394 On ch=11 n=a5 v=127
87394 On ch=6 n=f6 v=127
87509 Off ch=6 n=f6 v=127
87509 On ch=2 n=c#6 v=127
87624 Off ch=2 n=c#6 v=127
87624 Off ch=11 n=a5 v=127
87624 On ch=12 n=a#5 v=127
87624 On ch=3 n=d6 v=127
87739 On ch=8 n=g6 v=127
87852 Off ch=3 n=d6 v=127
87854 Off ch=8 n=g6 v=127
87854 Off ch=12 n=a#5 v=127
87854 On ch=8 n=g5 v=127
87854 On ch=6 n=f6 v=127
87912 Off ch=6 n=f6 v=127
87912 On ch=8 n=g6 v=127
87970 Off ch=8 n=g6 v=127
87970 On ch=6 n=f6 v=127
88028 Off ch=6 n=f6 v=127
88028 On ch=5 n=e6 v=127
88086 Off ch=5 n=e6 v=127
88086 Off ch=8 n=g5 v=127
88086 On ch=11 n=a5 v=127
88086 On ch=6 n=f6 v=127
88201 Off ch=6 n=f6 v=127
88201 On ch=8 n=g6 v=127
88316 Off ch=8 n=g6 v=127
88316 Off ch=11 n=a5 v=127
88316 On ch=11 n=a4 v=127
88316 On ch=11 n=a6 v=127
88431 On ch=2 n=c#6 v=127
88489 Off ch=11 n=a6 v=127
88547 Off ch=2 n=c#6 v=127
88547 Off ch=11 n=a4 v=127
88547 On ch=12 n=a#4 v=127
88547 On ch=3 n=d6 v=127
88662 On ch=8 n=g6 v=127
88775 Off ch=3 n=d6 v=127
88777 Off ch=8 n=g6 v=127
88777 Off ch=12 n=a#4 v=127
88777 On ch=8 n=g4 v=127
88777 On ch=6 n=f6 v=127
88835 Off ch=6 n=f6 v=127
88835 On ch=8 n=g6 v=127
88893 Off ch=8 n=g6 v=127
88893 On ch=6 n=f6 v=127
88951 Off ch=6 n=f6 v=127
88951 On ch=5 n=e6 v=127
89009 Off ch=5 n=e6 v=127
89009 Off ch=8 n=g4 v=127
89009 On ch=11 n=a4 v=127
89009 On ch=6 n=f6 v=127
89124 Off ch=6 n=f6 v=127
89124 On ch=8 n=g6 v=127
89239 Off ch=8 n=g6 v=127
89239 Off ch=11 n=a4 v=127
89239 On ch=11 n=a5 v=127
89239 On ch=11 n=a6 v=127
89354 On ch=2 n=c#6 v=127
89412 Off ch=11 n=a6 v=127
89470 Off ch=2 n=c#6 v=127
89470 Off ch=11 n=a5 v=127
89470 On ch=12 n=a#5 v=127
89470 On ch=3 n=d6 v=127
89585 On ch=8 n=g6 v=127
89698 Off ch=3 n=d6 v=127
89700 Off ch=8 n=g6 v=127
89700 Off ch=12 n=a#5 v=127
89700 On ch=8 n=g5 v=127
89700 On ch=6 n=f6 v=127
89758 Off ch=6 n=f6 v=127
89758 On ch=8 n=g6 v=127
89816 Off ch=8 n=g6 v=127
89816 On ch=6 n=f6 v=127
89874 Off ch=6 n=f6 v=127
89874 On ch=5 n=e6 v=127
89932 Off ch=5 n=e6 v=127
89932 Off ch=8 n=g5 v=127
89932 On ch=11 n=a5 v=127
89932 On ch=6 n=f6 v=127
89932 On ch=11 n=a6 v=127
90047 Off ch=6 n=f6 v=127
90047 On ch=3 n=d6 v=127
90162 Off ch=3 n=d6 v=127
90162 Off ch=11 n=a6 v=127
90162 Off ch=11 n=a5 v=127
90162 On ch=11 n=a4 v=127
90162 On ch=8 n=g6 v=127
90162 On ch=5 n=e6 v=127
90277 Off ch=5 n=e6 v=127
90277 On ch=2 n=c#6 v=127
90392 Off ch=2 n=c#6 v=127
90392 Off ch=8 n=g6 v=127
90392 Off ch=11 n=a4 v=127
90392 On ch=6 n=f6 v=127
90392 On ch=3 n=d5 v=127
90508 On ch=11 n=a5 v=127
90564 Off ch=6 n=f6 v=127
90622 Off ch=3 n=d5 v=127
90623 Off ch=11 n=a5 v=127
90624 On ch=8 n=g5 v=127
90624 On ch=12 n=a#5 v=127
90624 On ch=8 n=g4 v=127
90740 On ch=5 n=e6 v=127
90854 Off ch=8 n=g4 v=127
90854 Off ch=12 n=a#5 v=127
90854 Off ch=8 n=g5 v=127
90856 On ch=6 n=f5 v=127
90856 On ch=11 n=a5 v=127
90856 On ch=11 n=a4 v=127
90912 Off ch=5 n=e6 v=127
90972 On ch=3 n=d6 v=127
91086 Off ch=11 n=a4 v=127
91086 Off ch=11 n=a5 v=127
91086 Off ch=6 n=f5 v=127
91088 On ch=5 n=e5 v=127
91088 On ch=8 n=g5 v=127
91088 On ch=11 n=a3 v=127
91144 Off ch=3 n=d6 v=127
91204 On ch=2 n=c#6 v=127
91318 Off ch=11 n=a3 v=127
91318 Off ch=8 n=g5 v=127
91318 Off ch=5 n=e5 v=127
91319 Off ch=2 n=c#6 v=127
91320 On ch=6 n=f5 v=127
91320 On ch=3 n=d6 v=127
91320 On ch=3 n=d4 v=127
91436 On ch=11 n=a5 v=127
91492 Off ch=3 n=d6 v=127
91550 Off ch=3 n=d4 v=127
91551 Off ch=11 n=a5 v=127
91552 On ch=12 n=a#5 v=127
91552 On ch=8 n=g3 v=127
91665 Off ch=6 n=f5 v=127
91669 On ch=5 n=e5 v=127
91669 On ch=8 n=g5 v=127
91725 Off ch=12 n=a#5 v=127
91783 Off ch=8 n=g3 v=127
91784 Off ch=8 n=g5 v=127
91785 On ch=11 n=a5 v=127
91785 On ch=11 n=a3 v=127
91899 Off ch=5 n=e5 v=127
91901 On ch=3 n=d5 v=127
91901 On ch=6 n=f5 v=127
91957 Off ch=11 n=a5 v=127
92015 Off ch=11 n=a3 v=127
92016 Off ch=6 n=f5 v=127
92017 On ch=8 n=g5 v=127
92017 On ch=11 n=a4 v=127
92131 Off ch=3 n=d5 v=127
92133 On ch=5 n=e5 v=127
92133 On ch=2 n=c#5 v=127
92189 Off ch=8 n=g5 v=127
92247 Off ch=11 n=a4 v=127
92248 Off ch=2 n=c#5 v=127
92248 Off ch=5 n=e5 v=127
92250 On ch=3 n=d4 v=127
92250 On ch=6 n=f5 v=127
92370 On ch=11 n=a4 v=127
92483 Off ch=3 n=d4 v=127
92485 Off ch=11 n=a4 v=127
92489 On ch=8 n=g3 v=127
92489 On ch=12 n=a#4 v=127
92601 Off ch=6 n=f5 v=127
92609 On ch=8 n=g5 v=127
92722 Off ch=12 n=a#4 v=127
92722 Off ch=8 n=g3 v=127
92724 Off ch=8 n=g5 v=127
92729 On ch=11 n=a3 v=127
92729 On ch=6 n=f5 v=127
92729 On ch=11 n=a4 v=127
92844 Off ch=6 n=f5 v=127
92849 On ch=5 n=e5 v=127
92962 Off ch=11 n=a4 v=127
92962 Off ch=11 n=a3 v=127
92964 Off ch=5 n=e5 v=127
92968 On ch=11 n=a3 v=127
92968 On ch=3 n=d5 v=127
92968 On ch=8 n=g4 v=127
93083 Off ch=3 n=d5 v=127
93088 On ch=2 n=c#5 v=127
93201 Off ch=8 n=g4 v=127
93201 Off ch=11 n=a3 v=127
93203 Off ch=2 n=c#5 v=127
93226 On ch=3 n=d3 v=127
93226 On ch=2 n=c#5 v=127
93958 Off ch=2 n=c#5 v=127
93958 On ch=3 n=d5 v=127
95801 Off ch=3 n=d5 v=127
95801 Off ch=3 n=d3 v=127
99840 Meta TrkEnd
TrkEnd
