MFile 0 1 384
MTrk
0 Meta Copyright "(C) John Sankey 1998"
0 PrCh ch=1 p=6
0 Pb ch=1 v=8192
0 PrCh ch=2 p=6
0 Pb ch=2 v=7602
0 PrCh ch=3 p=6
0 Pb ch=3 v=7920
0 PrCh ch=4 p=6
0 Pb ch=4 v=7839
0 PrCh ch=5 p=6
0 Pb ch=5 v=7632
0 PrCh ch=6 p=6
0 Pb ch=6 v=8112
0 PrCh ch=7 p=6
0 Pb ch=7 v=7567
0 PrCh ch=8 p=6
0 Pb ch=8 v=8062
0 PrCh ch=9 p=6
0 Pb ch=9 v=7680
0 PrCh ch=11 p=6
0 Pb ch=11 v=7728
0 PrCh ch=12 p=6
0 Pb ch=12 v=7984
0 PrCh ch=13 p=6
0 Pb ch=13 v=7639
0 Tempo 500000
134 On ch=1 n=c6 v=127
134 On ch=9 n=g#5 v=127
134 On ch=6 n=f5 v=127
134 On ch=6 n=f6 v=127
200 Off ch=6 n=f6 v=127
201 On ch=8 n=g6 v=127
267 Off ch=8 n=g6 v=127
268 On ch=9 n=g#6 v=127
668 Off ch=9 n=g#6 v=127
668 Off ch=6 n=f5 v=127
668 Off ch=9 n=g#5 v=127
668 Off ch=1 n=c6 v=127
669 On ch=8 n=g5 v=127
669 On ch=12 n=a#5 v=127
669 On ch=8 n=g6 v=127
936 Off ch=8 n=g6 v=127
937 On ch=6 n=f6 v=127
1070 Off ch=6 n=f6 v=127
1071 On ch=5 n=e6 v=127
1204 Off ch=5 n=e6 v=127
1204 Off ch=12 n=a#5 v=127
1204 Off ch=8 n=g5 v=127
1205 On ch=9 n=g#5 v=127
1205 On ch=1 n=c6 v=127
1205 On ch=5 n=e6 v=127
1472 Off ch=1 n=c6 v=127
1472 Off ch=9 n=g#5 v=127
1473 On ch=12 n=a#5 v=127
1473 On ch=8 n=g5 v=127
1740 Off ch=8 n=g5 v=127
1740 Off ch=12 n=a#5 v=127
1740 Off ch=5 n=e6 v=127
1741 On ch=1 n=c6 v=127
1741 On ch=9 n=g#5 v=127
1741 On ch=6 n=f6 v=127
2008 Off ch=6 n=f6 v=127
2008 Off ch=9 n=g#5 v=127
2009 On ch=6 n=f5 v=127
2009 On ch=9 n=g#6 v=127
2276 Off ch=6 n=f5 v=127
2276 Off ch=1 n=c6 v=127
2277 On ch=12 n=a#5 v=127
2277 On ch=2 n=c#6 v=127
2411 Off ch=9 n=g#6 v=127
2411 On ch=8 n=g6 v=127
2544 Off ch=8 n=g6 v=127
2544 Off ch=2 n=c#6 v=127
2544 Off ch=12 n=a#5 v=127
2545 On ch=9 n=g#5 v=127
2545 On ch=1 n=c6 v=127
2545 On ch=8 n=g6 v=127
2678 Off ch=8 n=g6 v=127
2679 On ch=6 n=f6 v=127
2812 Off ch=6 n=f6 v=127
2812 Off ch=1 n=c6 v=127
2812 Off ch=9 n=g#5 v=127
2813 On ch=12 n=a#5 v=127
2813 On ch=8 n=g5 v=127
2813 On ch=6 n=f6 v=127
2946 Off ch=6 n=f6 v=127
2947 On ch=5 n=e6 v=127
3080 Off ch=5 n=e6 v=127
3080 Off ch=8 n=g5 v=127
3080 Off ch=12 n=a#5 v=127
3081 On ch=9 n=g#5 v=127
3081 On ch=6 n=f5 v=127
3081 On ch=5 n=e6 v=127
3214 Off ch=5 n=e6 v=127
3215 On ch=6 n=f6 v=127
3348 Off ch=6 n=f6 v=127
3348 Off ch=6 n=f5 v=127
3348 Off ch=9 n=g#5 v=127
3349 On ch=1 n=c5 v=127
3349 On ch=6 n=f6 v=127
3616 Off ch=6 n=f6 v=127
3617 On ch=1 n=c6 v=127
3617 On ch=8 n=g6 v=127
3879 Off ch=1 n=c5 v=127
3883 Off ch=8 n=g6 v=127
3883 Off ch=1 n=c6 v=127
3884 On ch=1 n=c6 v=127
4018 On ch=12 n=a#5 v=127
4151 Off ch=12 n=a#5 v=127
4152 On ch=9 n=g#5 v=127
4285 Off ch=9 n=g#5 v=127
4286 Off ch=1 n=c6 v=127
4286 On ch=8 n=g5 v=127
4419 Off ch=8 n=g5 v=127
4420 On ch=9 n=g#5 v=127
4420 On ch=1 n=c6 v=127
4420 On ch=6 n=f5 v=127
4420 On ch=6 n=f6 v=127
4486 Off ch=6 n=f6 v=127
4487 On ch=8 n=g6 v=127
4553 Off ch=8 n=g6 v=127
4554 On ch=9 n=g#6 v=127
4954 Off ch=9 n=g#6 v=127
4954 Off ch=6 n=f5 v=127
4954 Off ch=1 n=c6 v=127
4954 Off ch=9 n=g#5 v=127
4955 On ch=8 n=g5 v=127
4955 On ch=12 n=a#5 v=127
4955 On ch=8 n=g6 v=127
5222 Off ch=8 n=g6 v=127
5223 On ch=6 n=f6 v=127
5356 Off ch=6 n=f6 v=127
5357 On ch=5 n=e6 v=127
5490 Off ch=5 n=e6 v=127
5490 Off ch=12 n=a#5 v=127
5490 Off ch=8 n=g5 v=127
5491 On ch=9 n=g#5 v=127
5491 On ch=1 n=c6 v=127
5491 On ch=5 n=e6 v=127
5758 Off ch=1 n=c6 v=127
5758 Off ch=9 n=g#5 v=127
5759 On ch=8 n=g5 v=127
5759 On ch=12 n=a#5 v=127
6026 Off ch=12 n=a#5 v=127
6026 Off ch=8 n=g5 v=127
6026 Off ch=5 n=e6 v=127
6027 On ch=1 n=c6 v=127
6027 On ch=9 n=g#5 v=127
6027 On ch=6 n=f6 v=127
6294 Off ch=6 n=f6 v=127
6294 Off ch=9 n=g#5 v=127
6295 On ch=6 n=f5 v=127
6295 On ch=9 n=g#6 v=127
6562 Off ch=9 n=g#6 v=127
6562 Off ch=6 n=f5 v=127
6562 Off ch=1 n=c6 v=127
6563 On ch=12 n=a#5 v=127
6563 On ch=2 n=c#6 v=127
6563 On ch=8 n=g6 v=127
6696 Off ch=8 n=g6 v=127
6697 On ch=12 n=a#6 v=127
6830 Off ch=12 n=a#6 v=127
6830 Off ch=2 n=c#6 v=127
6830 Off ch=12 n=a#5 v=127
6831 On ch=8 n=g5 v=127
6831 On ch=9 n=g#6 v=127
6964 Off ch=9 n=g#6 v=127
6965 On ch=8 n=g6 v=127
7098 Off ch=8 n=g6 v=127
7098 Off ch=8 n=g5 v=127
7099 On ch=1 n=c6 v=127
7099 On ch=9 n=g#6 v=127
7232 Off ch=9 n=g#6 v=127
7233 On ch=6 n=f6 v=127
7366 Off ch=6 n=f6 v=127
7367 On ch=1 n=c5 v=127
7367 On ch=8 n=g6 v=127
7500 Off ch=8 n=g6 v=127
7501 Off ch=1 n=c6 v=127
7501 On ch=5 n=e6 v=127
7634 Off ch=5 n=e6 v=127
7634 Off ch=1 n=c5 v=127
7635 On ch=6 n=f4 v=127
7635 On ch=5 n=e6 v=127
8169 Off ch=5 n=e6 v=127
8170 On ch=6 n=f5 v=127
8170 On ch=6 n=f6 v=127
8425 Off ch=6 n=f6 v=127
8436 Off ch=6 n=f4 v=127
8437 On ch=1 n=c6 v=127
8704 Off ch=1 n=c6 v=127
8704 Off ch=6 n=f5 v=127
8705 On ch=2 n=c#6 v=127
8838 Off ch=2 n=c#6 v=127
8839 On ch=1 n=c6 v=127
8972 Off ch=1 n=c6 v=127
8973 On ch=6 n=f5 v=127
8973 On ch=2 n=c#6 v=127
9106 Off ch=2 n=c#6 v=127
9107 On ch=5 n=e6 v=127
9240 Off ch=5 n=e6 v=127
9240 Off ch=6 n=f5 v=127
9241 On ch=6 n=f5 v=127
9241 On ch=6 n=f6 v=127
9374 Off ch=6 n=f6 v=127
9375 On ch=5 n=e6 v=127
9508 Off ch=5 n=e6 v=127
9508 Off ch=6 n=f5 v=127
9509 On ch=12 n=a#6 v=127
9509 On ch=6 n=f6 v=127
9642 Off ch=6 n=f6 v=127
9643 On ch=2 n=c#6 v=127
9776 Off ch=2 n=c#6 v=127
9776 Off ch=12 n=a#6 v=127
9777 On ch=12 n=a#6 v=127
9777 On ch=2 n=c#6 v=127
10044 Off ch=2 n=c#6 v=127
10044 Off ch=12 n=a#6 v=127
10045 On ch=9 n=g#6 v=127
10045 On ch=1 n=c6 v=127
10312 Off ch=9 n=g#6 v=127
10313 On ch=9 n=g#6 v=127
10580 Off ch=9 n=g#6 v=127
10580 Off ch=1 n=c6 v=127
10581 On ch=6 n=f5 v=127
10581 On ch=1 n=c6 v=127
10848 Off ch=1 n=c6 v=127
10849 On ch=2 n=c#6 v=127
10982 Off ch=2 n=c#6 v=127
10983 On ch=1 n=c6 v=127
11116 Off ch=1 n=c6 v=127
11116 Off ch=6 n=f5 v=127
11117 On ch=6 n=f5 v=127
11117 On ch=2 n=c#6 v=127
11250 Off ch=2 n=c#6 v=127
11251 On ch=5 n=e6 v=127
11384 Off ch=5 n=e6 v=127
11384 Off ch=6 n=f5 v=127
11385 On ch=6 n=f5 v=127
11385 On ch=6 n=f6 v=127
11518 Off ch=6 n=f6 v=127
11519 On ch=5 n=e6 v=127
11652 Off ch=5 n=e6 v=127
11652 Off ch=6 n=f5 v=127
11653 On ch=12 n=a#6 v=127
11653 On ch=6 n=f6 v=127
11786 Off ch=6 n=f6 v=127
11787 On ch=2 n=c#6 v=127
11920 Off ch=2 n=c#6 v=127
11920 Off ch=12 n=a#6 v=127
11921 On ch=12 n=a#6 v=127
11921 On ch=2 n=c#6 v=127
12188 Off ch=2 n=c#6 v=127
12188 Off ch=12 n=a#6 v=127
12189 On ch=9 n=g#6 v=127
12189 On ch=1 n=c6 v=127
12456 Off ch=9 n=g#6 v=127
12457 On ch=9 n=g#6 v=127
12590 Off ch=1 n=c6 v=127
12591 On ch=1 n=c6 v=127
12724 Off ch=1 n=c6 v=127
12724 Off ch=9 n=g#6 v=127
12725 On ch=9 n=g#6 v=127
12725 On ch=2 n=c#6 v=127
12858 Off ch=2 n=c#6 v=127
12859 On ch=4 n=d#6 v=127
12992 Off ch=4 n=d#6 v=127
12992 Off ch=9 n=g#6 v=127
12993 On ch=12 n=a#6 v=127
12993 On ch=2 n=c#6 v=127
13126 Off ch=2 n=c#6 v=127
13127 On ch=4 n=d#6 v=127
13260 Off ch=4 n=d#6 v=127
13260 Off ch=12 n=a#6 v=127
13261 On ch=9 n=g#6 v=127
13261 On ch=1 n=c6 v=127
13394 Off ch=1 n=c6 v=127
13395 On ch=2 n=c#6 v=127
13528 Off ch=2 n=c#6 v=127
13528 Off ch=9 n=g#6 v=127
13529 On ch=8 n=g6 v=127
13529 On ch=12 n=a#5 v=127
13662 Off ch=12 n=a#5 v=127
13663 On ch=1 n=c6 v=127
13796 Off ch=1 n=c6 v=127
13796 Off ch=8 n=g6 v=127
13797 On ch=6 n=f6 v=127
13797 On ch=9 n=g#5 v=127
13930 Off ch=9 n=g#5 v=127
13931 On ch=12 n=a#5 v=127
14064 Off ch=12 n=a#5 v=127
14064 Off ch=6 n=f6 v=127
14065 On ch=4 n=d#6 v=127
14065 On ch=8 n=g5 v=127
14198 Off ch=8 n=g5 v=127
14199 On ch=9 n=g#5 v=127
14332 Off ch=9 n=g#5 v=127
14332 Off ch=4 n=d#6 v=127
14333 On ch=2 n=c#6 v=127
14333 On ch=6 n=f5 v=127
14466 Off ch=6 n=f5 v=127
14467 On ch=8 n=g5 v=127
14600 Off ch=8 n=g5 v=127
14600 Off ch=2 n=c#6 v=127
14601 On ch=1 n=c6 v=127
14601 On ch=4 n=d#5 v=127
14734 Off ch=4 n=d#5 v=127
14735 On ch=6 n=f5 v=127
14868 Off ch=6 n=f5 v=127
14868 Off ch=1 n=c6 v=127
14869 On ch=12 n=a#5 v=127
14869 On ch=2 n=c#5 v=127
15002 Off ch=2 n=c#5 v=127
15003 On ch=4 n=d#5 v=127
15136 Off ch=4 n=d#5 v=127
15136 Off ch=12 n=a#5 v=127
15137 On ch=9 n=g#5 v=127
15137 On ch=1 n=c5 v=127
15270 Off ch=1 n=c5 v=127
15271 On ch=4 n=d#5 v=127
15404 Off ch=4 n=d#5 v=127
15404 Off ch=9 n=g#5 v=127
15405 On ch=1 n=c6 v=127
15405 On ch=2 n=c#5 v=127
15538 Off ch=2 n=c#5 v=127
15539 On ch=1 n=c5 v=127
15672 Off ch=1 n=c5 v=127
15672 Off ch=1 n=c6 v=127
15673 On ch=12 n=a#5 v=127
15673 On ch=2 n=c#5 v=127
15806 Off ch=2 n=c#5 v=127
15807 On ch=6 n=f5 v=127
15940 Off ch=6 n=f5 v=127
15940 Off ch=12 n=a#5 v=127
15941 On ch=9 n=g#5 v=127
15941 On ch=4 n=d#5 v=127
16074 Off ch=4 n=d#5 v=127
16075 On ch=3 n=d5 v=127
16208 Off ch=3 n=d5 v=127
16208 Off ch=9 n=g#5 v=127
16209 On ch=8 n=g5 v=127
16209 On ch=4 n=d#5 v=127
16342 Off ch=4 n=d#5 v=127
16343 On ch=6 n=f5 v=127
16476 Off ch=6 n=f5 v=127
16476 Off ch=8 n=g5 v=127
16477 On ch=8 n=g5 v=127
16610 Off ch=8 n=g5 v=127
16611 On ch=9 n=g#5 v=127
16744 Off ch=9 n=g#5 v=127
16745 On ch=12 n=a#5 v=127
16878 Off ch=12 n=a#5 v=127
16879 On ch=1 n=c6 v=127
17012 Off ch=1 n=c6 v=127
17013 On ch=2 n=c#6 v=127
17146 Off ch=2 n=c#6 v=127
17147 On ch=12 n=a#5 v=127
17280 Off ch=12 n=a#5 v=127
17281 On ch=1 n=c6 v=127
17414 Off ch=1 n=c6 v=127
17415 On ch=2 n=c#6 v=127
17548 Off ch=2 n=c#6 v=127
17549 On ch=4 n=d#6 v=127
17682 Off ch=4 n=d#6 v=127
17683 On ch=6 n=f6 v=127
17816 Off ch=6 n=f6 v=127
17817 On ch=8 n=g6 v=127
17950 Off ch=8 n=g6 v=127
17951 On ch=9 n=g#6 v=127
18084 Off ch=9 n=g#6 v=127
18085 On ch=12 n=a#6 v=127
18218 Off ch=12 n=a#6 v=127
18219 On ch=1 n=c7 v=127
18353 On ch=1 n=c6 v=127
18353 On ch=4 n=d#6 v=127
18484 Off ch=1 n=c7 v=127
18487 On ch=1 n=c7 v=127
18520 Off ch=4 n=d#6 v=127
18619 Off ch=1 n=c6 v=127
18620 On ch=8 n=g5 v=127
18620 On ch=2 n=c#6 v=127
18653 Off ch=1 n=c7 v=127
18753 On ch=12 n=a#6 v=127
18786 Off ch=2 n=c#6 v=127
18885 Off ch=8 n=g5 v=127
18886 On ch=9 n=g#5 v=127
18886 On ch=1 n=c6 v=127
18919 Off ch=12 n=a#6 v=127
19019 On ch=9 n=g#6 v=127
19052 Off ch=1 n=c6 v=127
19151 Off ch=9 n=g#5 v=127
19152 On ch=4 n=d#5 v=127
19152 On ch=12 n=a#5 v=127
19185 Off ch=9 n=g#6 v=127
19285 On ch=8 n=g6 v=127
19318 Off ch=12 n=a#5 v=127
19417 Off ch=4 n=d#5 v=127
19418 On ch=6 n=f5 v=127
19418 On ch=9 n=g#5 v=127
19451 Off ch=8 n=g6 v=127
19551 On ch=6 n=f6 v=127
19584 Off ch=9 n=g#5 v=127
19683 Off ch=6 n=f5 v=127
19684 On ch=1 n=c5 v=127
19684 On ch=8 n=g5 v=127
19717 Off ch=6 n=f6 v=127
19817 On ch=4 n=d#6 v=127
19850 Off ch=8 n=g5 v=127
19949 Off ch=1 n=c5 v=127
19950 On ch=2 n=c#5 v=127
19950 On ch=6 n=f5 v=127
19983 Off ch=4 n=d#6 v=127
20083 On ch=2 n=c#6 v=127
20116 Off ch=6 n=f5 v=127
20215 Off ch=2 n=c#5 v=127
20216 On ch=9 n=g#4 v=127
20216 On ch=4 n=d#5 v=127
20249 Off ch=2 n=c#6 v=127
20349 On ch=1 n=c6 v=127
20382 Off ch=4 n=d#5 v=127
20481 Off ch=1 n=c6 v=127
20481 Off ch=9 n=g#4 v=127
20482 On ch=4 n=d#4 v=127
20482 On ch=12 n=a#5 v=127
20615 Off ch=12 n=a#5 v=127
20616 On ch=9 n=g#5 v=127
20749 Off ch=9 n=g#5 v=127
20750 On ch=4 n=d#5 v=127
20750 On ch=8 n=g5 v=127
20883 Off ch=8 n=g5 v=127
20884 On ch=6 n=f5 v=127
21012 Off ch=4 n=d#4 v=127
21016 Off ch=6 n=f5 v=127
21016 Off ch=4 n=d#5 v=127
21017 On ch=4 n=d#5 v=127
21151 On ch=2 n=c#5 v=127
21284 Off ch=2 n=c#5 v=127
21285 On ch=1 n=c5 v=127
21418 Off ch=1 n=c5 v=127
21419 On ch=12 n=a#4 v=127
21552 Off ch=12 n=a#4 v=127
21552 Off ch=4 n=d#5 v=127
21553 On ch=9 n=g#4 v=127
21553 On ch=4 n=d#6 v=127
21686 Off ch=4 n=d#6 v=127
21687 On ch=1 n=c7 v=127
21820 Off ch=1 n=c7 v=127
21820 Off ch=9 n=g#4 v=127
21821 On ch=8 n=g5 v=127
21821 On ch=2 n=c#6 v=127
21954 Off ch=2 n=c#6 v=127
21955 On ch=12 n=a#6 v=127
22088 Off ch=12 n=a#6 v=127
22088 Off ch=8 n=g5 v=127
22089 On ch=9 n=g#5 v=127
22089 On ch=1 n=c6 v=127
22222 Off ch=1 n=c6 v=127
22223 On ch=9 n=g#6 v=127
22356 Off ch=9 n=g#6 v=127
22356 Off ch=9 n=g#5 v=127
22357 On ch=4 n=d#5 v=127
22357 On ch=12 n=a#5 v=127
22490 Off ch=12 n=a#5 v=127
22491 On ch=8 n=g6 v=127
22624 Off ch=8 n=g6 v=127
22624 Off ch=4 n=d#5 v=127
22625 On ch=6 n=f5 v=127
22625 On ch=9 n=g#5 v=127
22758 Off ch=9 n=g#5 v=127
22759 On ch=6 n=f6 v=127
22892 Off ch=6 n=f6 v=127
22892 Off ch=6 n=f5 v=127
22893 On ch=1 n=c5 v=127
22893 On ch=8 n=g5 v=127
23026 Off ch=8 n=g5 v=127
23027 On ch=4 n=d#6 v=127
23160 Off ch=4 n=d#6 v=127
23160 Off ch=1 n=c5 v=127
23161 On ch=2 n=c#5 v=127
23161 On ch=6 n=f5 v=127
23294 Off ch=6 n=f5 v=127
23295 On ch=2 n=c#6 v=127
23428 Off ch=2 n=c#6 v=127
23428 Off ch=2 n=c#5 v=127
23429 On ch=9 n=g#4 v=127
23429 On ch=4 n=d#5 v=127
23562 Off ch=4 n=d#5 v=127
23563 On ch=1 n=c6 v=127
23696 Off ch=1 n=c6 v=127
23696 Off ch=9 n=g#4 v=127
23697 On ch=4 n=d#4 v=127
23697 On ch=12 n=a#5 v=127
23830 Off ch=12 n=a#5 v=127
23831 On ch=9 n=g#5 v=127
23964 Off ch=9 n=g#5 v=127
23965 On ch=4 n=d#3 v=127
23965 On ch=8 n=g5 v=127
24098 Off ch=8 n=g5 v=127
24099 On ch=6 n=f5 v=127
24232 Off ch=6 n=f5 v=127
24233 On ch=4 n=d#5 v=127
24366 Off ch=4 n=d#5 v=127
24367 On ch=2 n=c#5 v=127
24500 Off ch=2 n=c#5 v=127
24500 Off ch=4 n=d#3 v=127
24500 Off ch=4 n=d#4 v=127
24501 On ch=8 n=g4 v=127
24501 On ch=1 n=c5 v=127
24634 Off ch=1 n=c5 v=127
24635 On ch=12 n=a#4 v=127
24768 Off ch=12 n=a#4 v=127
24768 Off ch=8 n=g4 v=127
24769 On ch=9 n=g#4 v=127
24769 On ch=1 n=c5 v=127
24902 Off ch=1 n=c5 v=127
24903 On ch=2 n=c#5 v=127
25036 Off ch=2 n=c#5 v=127
25036 Off ch=9 n=g#4 v=127
25037 On ch=2 n=c#4 v=127
25037 On ch=4 n=d#5 v=127
25170 Off ch=4 n=d#5 v=127
25171 On ch=2 n=c#5 v=127
25304 Off ch=2 n=c#5 v=127
25304 Off ch=2 n=c#4 v=127
25305 On ch=4 n=d#4 v=127
25305 On ch=1 n=c5 v=127
25438 Off ch=1 n=c5 v=127
25439 On ch=12 n=a#4 v=127
25572 Off ch=12 n=a#4 v=127
25573 On ch=4 n=d#3 v=127
25573 On ch=9 n=g#4 v=127
25706 Off ch=9 n=g#4 v=127
25707 On ch=8 n=g4 v=127
25835 Off ch=4 n=d#4 v=127
25839 Off ch=8 n=g4 v=127
25839 Off ch=4 n=d#3 v=127
25840 On ch=9 n=g#3 v=127
25840 On ch=9 n=g#4 v=127
26002 On ch=1 n=c5 v=127
26105 Off ch=9 n=g#4 v=127
26106 Off ch=9 n=g#3 v=127
26134 Off ch=1 n=c5 v=127
26135 On ch=12 n=a#4 v=127
26268 Off ch=12 n=a#4 v=127
26269 On ch=9 n=g#4 v=127
26402 Off ch=9 n=g#4 v=127
26403 On ch=3 n=d5 v=127
26536 Off ch=3 n=d5 v=127
26537 On ch=3 n=d5 v=127
26670 Off ch=3 n=d5 v=127
26671 On ch=4 n=d#5 v=127
26671 On ch=6 n=f4 v=127
26671 On ch=9 n=g#4 v=127
26804 Off ch=4 n=d#5 v=127
26805 On ch=6 n=f5 v=127
26938 Off ch=6 n=f5 v=127
26938 Off ch=9 n=g#4 v=127
26938 Off ch=6 n=f4 v=127
26939 On ch=4 n=d#5 v=127
26939 On ch=8 n=g4 v=127
26939 On ch=12 n=a#4 v=127
27072 Off ch=4 n=d#5 v=127
27073 On ch=4 n=d#5 v=127
27206 Off ch=4 n=d#5 v=127
27206 Off ch=12 n=a#4 v=127
27206 Off ch=8 n=g4 v=127
27207 On ch=6 n=f5 v=127
27207 On ch=8 n=g4 v=127
27207 On ch=12 n=a#4 v=127
27340 Off ch=6 n=f5 v=127
27341 On ch=8 n=g5 v=127
27474 Off ch=8 n=g5 v=127
27474 Off ch=12 n=a#4 v=127
27474 Off ch=8 n=g4 v=127
27475 On ch=6 n=f5 v=127
27475 On ch=3 n=d4 v=127
27475 On ch=12 n=a#4 v=127
27608 Off ch=6 n=f5 v=127
27609 On ch=6 n=f5 v=127
27742 Off ch=6 n=f5 v=127
27742 Off ch=12 n=a#4 v=127
27742 Off ch=3 n=d4 v=127
27743 On ch=8 n=g5 v=127
27743 On ch=3 n=d4 v=127
27743 On ch=12 n=a#4 v=127
27876 Off ch=8 n=g5 v=127
27877 On ch=9 n=g#5 v=127
28010 Off ch=9 n=g#5 v=127
28010 Off ch=12 n=a#4 v=127
28010 Off ch=3 n=d4 v=127
28011 On ch=8 n=g5 v=127
28011 On ch=2 n=c#4 v=127
28011 On ch=12 n=a#4 v=127
28144 Off ch=8 n=g5 v=127
28145 On ch=8 n=g5 v=127
28278 Off ch=8 n=g5 v=127
28278 Off ch=12 n=a#4 v=127
28278 Off ch=2 n=c#4 v=127
28279 On ch=9 n=g#5 v=127
28279 On ch=2 n=c#4 v=127
28279 On ch=12 n=a#4 v=127
28412 Off ch=9 n=g#5 v=127
28413 On ch=12 n=a#5 v=127
28546 Off ch=12 n=a#5 v=127
28546 Off ch=12 n=a#4 v=127
28546 Off ch=2 n=c#4 v=127
28547 On ch=9 n=g#5 v=127
28547 On ch=1 n=c5 v=127
28547 On ch=1 n=c4 v=127
28680 Off ch=9 n=g#5 v=127
28681 On ch=1 n=c6 v=127
28814 Off ch=1 n=c6 v=127
28814 Off ch=1 n=c4 v=127
28814 Off ch=1 n=c5 v=127
28815 On ch=12 n=a#5 v=127
28815 On ch=8 n=g4 v=127
28815 On ch=12 n=a#4 v=127
28948 Off ch=12 n=a#5 v=127
28949 On ch=2 n=c#6 v=127
29082 Off ch=2 n=c#6 v=127
29082 Off ch=12 n=a#4 v=127
29082 Off ch=8 n=g4 v=127
29083 On ch=1 n=c6 v=127
29083 On ch=9 n=g#4 v=127
29083 On ch=1 n=c5 v=127
29216 Off ch=1 n=c6 v=127
29217 On ch=4 n=d#6 v=127
29350 Off ch=4 n=d#6 v=127
29350 Off ch=1 n=c5 v=127
29350 Off ch=9 n=g#4 v=127
29351 On ch=2 n=c#6 v=127
29351 On ch=12 n=a#4 v=127
29351 On ch=2 n=c#5 v=127
29484 Off ch=2 n=c#6 v=127
29485 On ch=6 n=f6 v=127
29618 Off ch=6 n=f6 v=127
29618 Off ch=2 n=c#5 v=127
29618 Off ch=12 n=a#4 v=127
29619 On ch=4 n=d#6 v=127
29619 On ch=1 n=c5 v=127
29619 On ch=4 n=d#5 v=127
29752 Off ch=4 n=d#6 v=127
29753 On ch=8 n=g6 v=127
29886 Off ch=8 n=g6 v=127
29886 Off ch=4 n=d#5 v=127
29886 Off ch=1 n=c5 v=127
29887 On ch=6 n=f6 v=127
29887 On ch=6 n=f5 v=127
29887 On ch=2 n=c#5 v=127
30020 Off ch=6 n=f6 v=127
30021 On ch=9 n=g#6 v=127
30154 Off ch=9 n=g#6 v=127
30154 Off ch=2 n=c#5 v=127
30154 Off ch=6 n=f5 v=127
30155 On ch=8 n=g6 v=127
30155 On ch=4 n=d#5 v=127
30155 On ch=8 n=g5 v=127
30288 Off ch=8 n=g6 v=127
30289 On ch=9 n=g#6 v=127
30422 Off ch=9 n=g#6 v=127
30422 Off ch=8 n=g5 v=127
30422 Off ch=4 n=d#5 v=127
30423 On ch=8 n=g6 v=127
30423 On ch=9 n=g#5 v=127
30423 On ch=6 n=f5 v=127
30556 Off ch=8 n=g6 v=127
30557 On ch=6 n=f6 v=127
30690 Off ch=6 n=f6 v=127
30690 Off ch=6 n=f5 v=127
30690 Off ch=9 n=g#5 v=127
30691 On ch=4 n=d#6 v=127
30691 On ch=12 n=a#5 v=127
30691 On ch=8 n=g5 v=127
30824 Off ch=4 n=d#6 v=127
30825 On ch=2 n=c#6 v=127
30958 Off ch=2 n=c#6 v=127
30958 Off ch=8 n=g5 v=127
30958 Off ch=12 n=a#5 v=127
30959 On ch=1 n=c6 v=127
30959 On ch=4 n=d#5 v=127
30959 On ch=8 n=g5 v=127
31092 Off ch=1 n=c6 v=127
31093 On ch=12 n=a#5 v=127
31226 Off ch=12 n=a#5 v=127
31226 Off ch=8 n=g5 v=127
31226 Off ch=4 n=d#5 v=127
31227 On ch=1 n=c6 v=127
31227 On ch=9 n=g#5 v=127
31360 Off ch=1 n=c6 v=127
31361 On ch=2 n=c#6 v=127
31494 Off ch=2 n=c#6 v=127
31494 Off ch=9 n=g#5 v=127
31495 On ch=4 n=d#6 v=127
31495 On ch=2 n=c#5 v=127
31628 Off ch=4 n=d#6 v=127
31629 On ch=2 n=c#6 v=127
31762 Off ch=2 n=c#6 v=127
31762 Off ch=2 n=c#5 v=127
31763 On ch=1 n=c6 v=127
31763 On ch=4 n=d#5 v=127
31896 Off ch=1 n=c6 v=127
31897 On ch=12 n=a#5 v=127
32030 Off ch=12 n=a#5 v=127
32031 On ch=9 n=g#5 v=127
32031 On ch=4 n=d#4 v=127
32164 Off ch=9 n=g#5 v=127
32165 On ch=8 n=g5 v=127
32260 Off ch=4 n=d#5 v=127
32263 Off ch=8 n=g5 v=127
32287 Off ch=4 n=d#4 v=127
32300 On ch=9 n=g#6 v=127
32300 On ch=9 n=g#4 v=127
32433 Off ch=9 n=g#6 v=127
32434 On ch=1 n=c7 v=127
32567 Off ch=1 n=c7 v=127
32567 Off ch=9 n=g#4 v=127
32568 On ch=12 n=a#6 v=127
32568 On ch=9 n=g#5 v=127
32701 Off ch=12 n=a#6 v=127
32702 On ch=9 n=g#6 v=127
32835 Off ch=9 n=g#6 v=127
32836 On ch=8 n=g6 v=127
32969 Off ch=8 n=g6 v=127
32970 On ch=6 n=f6 v=127
33103 Off ch=6 n=f6 v=127
33103 Off ch=9 n=g#5 v=127
33104 On ch=4 n=d#6 v=127
33104 On ch=8 n=g5 v=127
33237 Off ch=4 n=d#6 v=127
33238 On ch=2 n=c#6 v=127
33371 Off ch=2 n=c#6 v=127
33371 Off ch=8 n=g5 v=127
33372 On ch=1 n=c6 v=127
33372 On ch=9 n=g#5 v=127
33505 Off ch=1 n=c6 v=127
33506 On ch=9 n=g#6 v=127
33639 Off ch=9 n=g#6 v=127
33639 Off ch=9 n=g#5 v=127
33640 On ch=8 n=g6 v=127
33640 On ch=9 n=g#5 v=127
33773 Off ch=8 n=g6 v=127
33774 On ch=6 n=f6 v=127
33907 Off ch=6 n=f6 v=127
33908 On ch=4 n=d#6 v=127
34041 Off ch=4 n=d#6 v=127
34042 On ch=2 n=c#6 v=127
34175 Off ch=2 n=c#6 v=127
34175 Off ch=9 n=g#5 v=127
34176 On ch=1 n=c6 v=127
34176 On ch=8 n=g5 v=127
34309 Off ch=1 n=c6 v=127
34310 On ch=12 n=a#5 v=127
34443 Off ch=12 n=a#5 v=127
34443 Off ch=8 n=g5 v=127
34444 On ch=1 n=c6 v=127
34444 On ch=9 n=g#5 v=127
34577 Off ch=1 n=c6 v=127
34578 On ch=6 n=f6 v=127
34711 Off ch=6 n=f6 v=127
34711 Off ch=9 n=g#5 v=127
34712 On ch=4 n=d#6 v=127
34712 On ch=2 n=c#5 v=127
34845 Off ch=4 n=d#6 v=127
34846 On ch=2 n=c#6 v=127
34979 Off ch=2 n=c#6 v=127
34979 Off ch=2 n=c#5 v=127
34980 On ch=1 n=c6 v=127
34980 On ch=4 n=d#5 v=127
35113 Off ch=1 n=c6 v=127
35114 On ch=12 n=a#5 v=127
35247 Off ch=12 n=a#5 v=127
35248 On ch=9 n=g#5 v=127
35248 On ch=4 n=d#4 v=127
35381 Off ch=9 n=g#5 v=127
35382 On ch=8 n=g5 v=127
35510 Off ch=4 n=d#5 v=127
35514 Off ch=8 n=g5 v=127
35514 Off ch=4 n=d#4 v=127
35515 On ch=9 n=g#5 v=127
35515 On ch=1 n=c5 v=127
35515 On ch=9 n=g#4 v=127
35648 Off ch=9 n=g#5 v=127
35649 On ch=1 n=c6 v=127
35782 Off ch=1 n=c6 v=127
35782 Off ch=9 n=g#4 v=127
35782 Off ch=1 n=c5 v=127
35783 On ch=12 n=a#5 v=127
35783 On ch=9 n=g#4 v=127
35783 On ch=1 n=c5 v=127
35916 Off ch=12 n=a#5 v=127
35917 On ch=9 n=g#5 v=127
36050 Off ch=9 n=g#5 v=127
36051 On ch=8 n=g5 v=127
36184 Off ch=8 n=g5 v=127
36185 On ch=6 n=f5 v=127
36318 Off ch=6 n=f5 v=127
36318 Off ch=1 n=c5 v=127
36318 Off ch=9 n=g#4 v=127
36319 On ch=4 n=d#5 v=127
36319 On ch=12 n=a#4 v=127
36319 On ch=8 n=g4 v=127
36452 Off ch=4 n=d#5 v=127
36453 On ch=2 n=c#5 v=127
36586 Off ch=2 n=c#5 v=127
36586 Off ch=8 n=g4 v=127
36586 Off ch=12 n=a#4 v=127
36587 On ch=9 n=g#4 v=127
36587 On ch=1 n=c5 v=127
36721 On ch=6 n=f5 v=127
36854 Off ch=6 n=f5 v=127
36854 Off ch=1 n=c5 v=127
36854 Off ch=9 n=g#4 v=127
36855 On ch=4 n=d#5 v=127
36855 On ch=2 n=c#4 v=127
36988 Off ch=4 n=d#5 v=127
36989 On ch=2 n=c#5 v=127
37122 Off ch=2 n=c#5 v=127
37122 Off ch=2 n=c#4 v=127
37123 On ch=1 n=c5 v=127
37123 On ch=4 n=d#4 v=127
37256 Off ch=1 n=c5 v=127
37257 On ch=12 n=a#4 v=127
37390 Off ch=12 n=a#4 v=127
37391 On ch=9 n=g#4 v=127
37391 On ch=4 n=d#3 v=127
37524 Off ch=9 n=g#4 v=127
37525 On ch=8 n=g4 v=127
37653 Off ch=4 n=d#4 v=127
37657 Off ch=8 n=g4 v=127
37657 Off ch=4 n=d#3 v=127
37658 On ch=9 n=g#4 v=127
37658 On ch=9 n=g#3 v=127
37791 Off ch=9 n=g#4 v=127
37792 On ch=1 n=c5 v=127
37925 Off ch=1 n=c5 v=127
37926 On ch=12 n=a#4 v=127
38059 Off ch=12 n=a#4 v=127
38060 On ch=9 n=g#4 v=127
38193 Off ch=9 n=g#4 v=127
38194 On ch=4 n=d#5 v=127
38327 Off ch=4 n=d#5 v=127
38328 On ch=1 n=c5 v=127
38461 Off ch=1 n=c5 v=127
38462 On ch=9 n=g#5 v=127
38595 Off ch=9 n=g#5 v=127
38596 On ch=4 n=d#5 v=127
38729 Off ch=4 n=d#5 v=127
38729 Off ch=9 n=g#3 v=127
38730 On ch=1 n=c6 v=127
38730 On ch=9 n=g#4 v=127
38730 On ch=9 n=g#3 v=127
38863 Off ch=1 n=c6 v=127
38864 On ch=9 n=g#5 v=127
38997 Off ch=9 n=g#5 v=127
38998 On ch=4 n=d#6 v=127
39131 Off ch=4 n=d#6 v=127
39132 On ch=1 n=c6 v=127
39265 Off ch=1 n=c6 v=127
39266 On ch=9 n=g#6 v=127
39399 Off ch=9 n=g#6 v=127
39400 On ch=4 n=d#6 v=127
39533 Off ch=4 n=d#6 v=127
39534 On ch=1 n=c6 v=127
39667 Off ch=1 n=c6 v=127
39668 On ch=4 n=d#6 v=127
39801 Off ch=4 n=d#6 v=127
39801 Off ch=9 n=g#3 v=127
39801 Off ch=9 n=g#4 v=127
39802 On ch=9 n=g#5 v=127
39802 On ch=9 n=g#4 v=127
39802 On ch=9 n=g#3 v=127
40405 Off ch=9 n=g#5 v=127
40472 Off ch=9 n=g#3 v=127
40472 Off ch=9 n=g#4 v=127
40472 On ch=9 n=g#6 v=127
40605 Off ch=9 n=g#6 v=127
40606 On ch=12 n=a#6 v=127
40739 Off ch=12 n=a#6 v=127
40740 On ch=1 n=c7 v=127
40873 Off ch=1 n=c7 v=127
40874 On ch=6 n=f6 v=127
41007 Off ch=6 n=f6 v=127
41008 On ch=6 n=f6 v=127
41141 Off ch=6 n=f6 v=127
41142 On ch=8 n=g6 v=127
41142 On ch=9 n=g#5 v=127
41142 On ch=1 n=c6 v=127
41275 Off ch=8 n=g6 v=127
41276 On ch=9 n=g#6 v=127
41409 Off ch=9 n=g#6 v=127
41409 Off ch=1 n=c6 v=127
41409 Off ch=9 n=g#5 v=127
41410 On ch=3 n=d6 v=127
41410 On ch=9 n=g#5 v=127
41410 On ch=12 n=a#5 v=127
41543 Off ch=3 n=d6 v=127
41544 On ch=3 n=d6 v=127
41677 Off ch=3 n=d6 v=127
41677 Off ch=12 n=a#5 v=127
41677 Off ch=9 n=g#5 v=127
41678 On ch=4 n=d#6 v=127
41678 On ch=12 n=a#5 v=127
41678 On ch=9 n=g#5 v=127
41811 Off ch=4 n=d#6 v=127
41812 On ch=6 n=f6 v=127
41945 Off ch=6 n=f6 v=127
41945 Off ch=9 n=g#5 v=127
41945 Off ch=12 n=a#5 v=127
41946 On ch=6 n=f6 v=127
41946 On ch=8 n=g5 v=127
41946 On ch=12 n=a#5 v=127
42213 Off ch=12 n=a#5 v=127
42213 Off ch=8 n=g5 v=127
42213 Off ch=6 n=f6 v=127
42214 On ch=4 n=d#6 v=127
42214 On ch=8 n=g5 v=127
42214 On ch=12 n=a#5 v=127
42481 Off ch=12 n=a#5 v=127
42481 Off ch=8 n=g5 v=127
42482 On ch=8 n=g5 v=127
42482 On ch=12 n=a#5 v=127
42615 Off ch=4 n=d#6 v=127
42616 On ch=9 n=g#6 v=127
42683 Off ch=12 n=a#5 v=127
42683 Off ch=8 n=g5 v=127
42749 Off ch=9 n=g#6 v=127
42750 On ch=12 n=a#6 v=127
42883 Off ch=12 n=a#6 v=127
42884 On ch=1 n=c7 v=127
43017 Off ch=1 n=c7 v=127
43018 On ch=6 n=f6 v=127
43151 Off ch=6 n=f6 v=127
43152 On ch=6 n=f6 v=127
43285 Off ch=6 n=f6 v=127
43286 On ch=8 n=g6 v=127
43286 On ch=9 n=g#5 v=127
43286 On ch=1 n=c6 v=127
43419 Off ch=8 n=g6 v=127
43420 On ch=9 n=g#6 v=127
43553 Off ch=9 n=g#6 v=127
43553 Off ch=1 n=c6 v=127
43553 Off ch=9 n=g#5 v=127
43554 On ch=3 n=d6 v=127
43554 On ch=9 n=g#5 v=127
43554 On ch=12 n=a#5 v=127
43687 Off ch=3 n=d6 v=127
43688 On ch=3 n=d6 v=127
43821 Off ch=3 n=d6 v=127
43821 Off ch=12 n=a#5 v=127
43821 Off ch=9 n=g#5 v=127
43822 On ch=4 n=d#6 v=127
43822 On ch=12 n=a#5 v=127
43822 On ch=9 n=g#5 v=127
43955 Off ch=4 n=d#6 v=127
43956 On ch=6 n=f6 v=127
44089 Off ch=6 n=f6 v=127
44089 Off ch=9 n=g#5 v=127
44089 Off ch=12 n=a#5 v=127
44090 On ch=6 n=f6 v=127
44090 On ch=8 n=g5 v=127
44090 On ch=12 n=a#5 v=127
44357 Off ch=12 n=a#5 v=127
44357 Off ch=8 n=g5 v=127
44357 Off ch=6 n=f6 v=127
44358 On ch=4 n=d#6 v=127
44358 On ch=8 n=g5 v=127
44358 On ch=12 n=a#5 v=127
44625 Off ch=12 n=a#5 v=127
44625 Off ch=8 n=g5 v=127
44626 On ch=8 n=g5 v=127
44626 On ch=12 n=a#5 v=127
44759 Off ch=4 n=d#6 v=127
44760 On ch=8 n=g6 v=127
44893 Off ch=8 n=g6 v=127
44893 Off ch=12 n=a#5 v=127
44893 Off ch=8 n=g5 v=127
44894 On ch=9 n=g#6 v=127
44894 On ch=8 n=g5 v=127
44894 On ch=12 n=a#5 v=127
45027 Off ch=9 n=g#6 v=127
45028 On ch=12 n=a#6 v=127
45161 Off ch=12 n=a#6 v=127
45161 Off ch=12 n=a#5 v=127
45161 Off ch=8 n=g5 v=127
45162 On ch=5 n=e6 v=127
45162 On ch=8 n=g5 v=127
45162 On ch=12 n=a#5 v=127
45295 Off ch=5 n=e6 v=127
45296 On ch=5 n=e6 v=127
45429 Off ch=5 n=e6 v=127
45429 Off ch=12 n=a#5 v=127
45429 Off ch=8 n=g5 v=127
45430 On ch=6 n=f6 v=127
45430 On ch=8 n=g5 v=127
45430 On ch=12 n=a#5 v=127
45563 Off ch=6 n=f6 v=127
45564 On ch=8 n=g6 v=127
45697 Off ch=8 n=g6 v=127
45697 Off ch=12 n=a#5 v=127
45697 Off ch=8 n=g5 v=127
45698 On ch=12 n=a#5 v=127
45698 On ch=8 n=g5 v=127
45831 Off ch=12 n=a#5 v=127
45832 On ch=12 n=a#5 v=127
45965 Off ch=12 n=a#5 v=127
45965 Off ch=8 n=g5 v=127
45966 On ch=1 n=c6 v=127
45966 On ch=8 n=g5 v=127
46099 Off ch=1 n=c6 v=127
46100 On ch=2 n=c#6 v=127
46233 Off ch=2 n=c#6 v=127
46233 Off ch=8 n=g5 v=127
46234 On ch=2 n=c#6 v=127
46234 On ch=9 n=g#5 v=127
46501 Off ch=9 n=g#5 v=127
46501 Off ch=2 n=c#6 v=127
46502 On ch=1 n=c6 v=127
46502 On ch=9 n=g#5 v=127
46769 Off ch=9 n=g#5 v=127
46770 On ch=9 n=g#5 v=127
46903 Off ch=1 n=c6 v=127
46904 On ch=8 n=g6 v=127
47037 Off ch=8 n=g6 v=127
47037 Off ch=9 n=g#5 v=127
47038 On ch=9 n=g#6 v=127
47038 On ch=1 n=c6 v=127
47038 On ch=9 n=g#5 v=127
47171 Off ch=9 n=g#6 v=127
47172 On ch=12 n=a#6 v=127
47305 Off ch=12 n=a#6 v=127
47305 Off ch=9 n=g#5 v=127
47305 Off ch=1 n=c6 v=127
47306 On ch=5 n=e6 v=127
47306 On ch=8 n=g5 v=127
47306 On ch=12 n=a#5 v=127
47439 Off ch=5 n=e6 v=127
47440 On ch=5 n=e6 v=127
47573 Off ch=5 n=e6 v=127
47573 Off ch=12 n=a#5 v=127
47573 Off ch=8 n=g5 v=127
47574 On ch=6 n=f6 v=127
47574 On ch=8 n=g5 v=127
47574 On ch=12 n=a#5 v=127
47707 Off ch=6 n=f6 v=127
47708 On ch=8 n=g6 v=127
47841 Off ch=8 n=g6 v=127
47841 Off ch=12 n=a#5 v=127
47841 Off ch=8 n=g5 v=127
47842 On ch=12 n=a#5 v=127
47842 On ch=8 n=g5 v=127
47975 Off ch=12 n=a#5 v=127
47976 On ch=12 n=a#5 v=127
48109 Off ch=12 n=a#5 v=127
48109 Off ch=8 n=g5 v=127
48110 On ch=1 n=c6 v=127
48110 On ch=8 n=g5 v=127
48243 Off ch=1 n=c6 v=127
48244 On ch=2 n=c#6 v=127
48377 Off ch=2 n=c#6 v=127
48377 Off ch=8 n=g5 v=127
48378 On ch=2 n=c#6 v=127
48378 On ch=9 n=g#5 v=127
48645 Off ch=9 n=g#5 v=127
48645 Off ch=2 n=c#6 v=127
48646 On ch=1 n=c6 v=127
48646 On ch=9 n=g#5 v=127
48913 Off ch=9 n=g#5 v=127
48914 On ch=9 n=g#5 v=127
48981 Off ch=1 n=c6 v=127
49048 On ch=6 n=f6 v=127
49181 Off ch=6 n=f6 v=127
49181 Off ch=9 n=g#5 v=127
49182 On ch=8 n=g6 v=127
49182 On ch=1 n=c6 v=127
49182 On ch=9 n=g#5 v=127
49315 Off ch=8 n=g6 v=127
49316 On ch=9 n=g#6 v=127
49449 Off ch=9 n=g#6 v=127
49449 Off ch=9 n=g#5 v=127
49449 Off ch=1 n=c6 v=127
49450 On ch=4 n=d#6 v=127
49450 On ch=12 n=a#5 v=127
49450 On ch=8 n=g5 v=127
49583 Off ch=4 n=d#6 v=127
49584 On ch=4 n=d#6 v=127
49717 Off ch=4 n=d#6 v=127
49717 Off ch=8 n=g5 v=127
49717 Off ch=12 n=a#5 v=127
49718 On ch=6 n=f6 v=127
49718 On ch=8 n=g5 v=127
49718 On ch=12 n=a#5 v=127
49851 Off ch=6 n=f6 v=127
49852 On ch=8 n=g6 v=127
49985 Off ch=8 n=g6 v=127
49985 Off ch=12 n=a#5 v=127
49985 Off ch=8 n=g5 v=127
49986 On ch=3 n=d6 v=127
49986 On ch=6 n=f5 v=127
49986 On ch=9 n=g#5 v=127
50119 Off ch=3 n=d6 v=127
50120 On ch=3 n=d6 v=127
50253 Off ch=3 n=d6 v=127
50253 Off ch=9 n=g#5 v=127
50253 Off ch=6 n=f5 v=127
50254 On ch=4 n=d#6 v=127
50254 On ch=6 n=f5 v=127
50254 On ch=9 n=g#5 v=127
50387 Off ch=4 n=d#6 v=127
50388 On ch=6 n=f6 v=127
50521 Off ch=6 n=f6 v=127
50521 Off ch=9 n=g#5 v=127
50521 Off ch=6 n=f5 v=127
50522 On ch=1 n=c6 v=127
50522 On ch=8 n=g5 v=127
50522 On ch=4 n=d#5 v=127
50655 Off ch=1 n=c6 v=127
50656 On ch=1 n=c6 v=127
50789 Off ch=1 n=c6 v=127
50789 Off ch=4 n=d#5 v=127
50789 Off ch=8 n=g5 v=127
50790 On ch=3 n=d6 v=127
50790 On ch=4 n=d#5 v=127
50790 On ch=8 n=g5 v=127
50923 Off ch=3 n=d6 v=127
50924 On ch=4 n=d#6 v=127
51057 Off ch=4 n=d#6 v=127
51057 Off ch=8 n=g5 v=127
51057 Off ch=4 n=d#5 v=127
51058 On ch=13 n=b5 v=127
51058 On ch=3 n=d5 v=127
51058 On ch=6 n=f5 v=127
51191 Off ch=13 n=b5 v=127
51192 On ch=13 n=b5 v=127
51325 Off ch=13 n=b5 v=127
51325 Off ch=6 n=f5 v=127
51325 Off ch=3 n=d5 v=127
51326 On ch=1 n=c6 v=127
51326 On ch=3 n=d5 v=127
51326 On ch=6 n=f5 v=127
51459 Off ch=1 n=c6 v=127
51460 On ch=3 n=d6 v=127
51593 Off ch=3 n=d6 v=127
51593 Off ch=6 n=f5 v=127
51593 Off ch=3 n=d5 v=127
51594 On ch=1 n=c6 v=127
51594 On ch=8 n=g5 v=127
51594 On ch=4 n=d#5 v=127
51727 Off ch=1 n=c6 v=127
51728 On ch=8 n=g6 v=127
51861 Off ch=8 n=g6 v=127
51861 Off ch=4 n=d#5 v=127
51861 Off ch=8 n=g5 v=127
51862 On ch=6 n=f6 v=127
51862 On ch=8 n=g5 v=127
51862 On ch=4 n=d#5 v=127
51995 Off ch=6 n=f6 v=127
51996 On ch=4 n=d#6 v=127
52129 Off ch=4 n=d#6 v=127
52129 Off ch=4 n=d#5 v=127
52129 Off ch=8 n=g5 v=127
52130 On ch=3 n=d6 v=127
52130 On ch=6 n=f5 v=127
52130 On ch=9 n=g#5 v=127
52263 Off ch=3 n=d6 v=127
52264 On ch=1 n=c6 v=127
52397 Off ch=1 n=c6 v=127
52397 Off ch=9 n=g#5 v=127
52397 Off ch=6 n=f5 v=127
52398 On ch=13 n=b5 v=127
52398 On ch=6 n=f5 v=127
52398 On ch=9 n=g#5 v=127
52531 Off ch=13 n=b5 v=127
52532 On ch=1 n=c6 v=127
52665 Off ch=1 n=c6 v=127
52665 Off ch=9 n=g#5 v=127
52665 Off ch=6 n=f5 v=127
52666 On ch=1 n=c6 v=127
52666 On ch=8 n=g5 v=127
52934 On ch=8 n=g4 v=127
53201 Off ch=8 n=g4 v=127
53201 Off ch=1 n=c6 v=127
53202 On ch=13 n=b5 v=127
53202 On ch=8 n=g4 v=127
53403 Off ch=13 n=b5 v=127
53411 Off ch=8 n=g5 v=127
53468 Off ch=8 n=g4 v=127
53469 On ch=8 n=g5 v=127
53469 On ch=8 n=g4 v=127
53736 Off ch=8 n=g4 v=127
53736 Off ch=8 n=g5 v=127
53737 On ch=9 n=g#5 v=127
53870 Off ch=9 n=g#5 v=127
53871 On ch=8 n=g5 v=127
54004 Off ch=8 n=g5 v=127
54005 On ch=9 n=g#5 v=127
54005 On ch=1 n=c5 v=127
54138 Off ch=9 n=g#5 v=127
54139 On ch=13 n=b5 v=127
54272 Off ch=13 n=b5 v=127
54272 Off ch=1 n=c5 v=127
54273 On ch=1 n=c6 v=127
54273 On ch=1 n=c5 v=127
54406 Off ch=1 n=c6 v=127
54407 On ch=13 n=b5 v=127
54540 Off ch=13 n=b5 v=127
54540 Off ch=1 n=c5 v=127
54541 On ch=1 n=c6 v=127
54541 On ch=9 n=g#6 v=127
54541 On ch=6 n=f6 v=127
54674 Off ch=1 n=c6 v=127
54675 On ch=9 n=g#5 v=127
54808 Off ch=9 n=g#5 v=127
54808 Off ch=6 n=f6 v=127
54808 Off ch=9 n=g#6 v=127
54809 On ch=9 n=g#5 v=127
54809 On ch=9 n=g#6 v=127
54809 On ch=6 n=f6 v=127
55076 Off ch=6 n=f6 v=127
55076 Off ch=9 n=g#6 v=127
55076 Off ch=9 n=g#5 v=127
55077 On ch=8 n=g5 v=127
55077 On ch=4 n=d#6 v=127
55077 On ch=8 n=g6 v=127
55344 Off ch=8 n=g6 v=127
55344 Off ch=4 n=d#6 v=127
55345 On ch=8 n=g6 v=127
55345 On ch=4 n=d#6 v=127
55612 Off ch=4 n=d#6 v=127
55612 Off ch=8 n=g6 v=127
55612 Off ch=8 n=g5 v=127
55613 On ch=8 n=g5 v=127
55613 On ch=1 n=c5 v=127
55880 Off ch=8 n=g5 v=127
55881 On ch=9 n=g#5 v=127
56014 Off ch=9 n=g#5 v=127
56015 On ch=8 n=g5 v=127
56148 Off ch=8 n=g5 v=127
56148 Off ch=1 n=c5 v=127
56149 On ch=9 n=g#5 v=127
56149 On ch=1 n=c5 v=127
56282 Off ch=9 n=g#5 v=127
56283 On ch=13 n=b5 v=127
56416 Off ch=13 n=b5 v=127
56416 Off ch=1 n=c5 v=127
56417 On ch=1 n=c6 v=127
56417 On ch=1 n=c5 v=127
56550 Off ch=1 n=c6 v=127
56551 On ch=13 n=b5 v=127
56684 Off ch=13 n=b5 v=127
56684 Off ch=1 n=c5 v=127
56685 On ch=1 n=c6 v=127
56685 On ch=6 n=f6 v=127
56685 On ch=9 n=g#6 v=127
56818 Off ch=1 n=c6 v=127
56819 On ch=9 n=g#5 v=127
56952 Off ch=9 n=g#5 v=127
56952 Off ch=9 n=g#6 v=127
56952 Off ch=6 n=f6 v=127
56953 On ch=9 n=g#5 v=127
56953 On ch=6 n=f6 v=127
56953 On ch=9 n=g#6 v=127
57220 Off ch=9 n=g#6 v=127
57220 Off ch=6 n=f6 v=127
57220 Off ch=9 n=g#5 v=127
57221 On ch=8 n=g5 v=127
57221 On ch=8 n=g6 v=127
57221 On ch=4 n=d#6 v=127
57488 Off ch=4 n=d#6 v=127
57488 Off ch=8 n=g6 v=127
57489 On ch=4 n=d#6 v=127
57489 On ch=8 n=g6 v=127
57622 Off ch=8 n=g5 v=127
57623 On ch=8 n=g5 v=127
57756 Off ch=8 n=g5 v=127
57756 Off ch=8 n=g6 v=127
57756 Off ch=4 n=d#6 v=127
57757 On ch=9 n=g#5 v=127
57757 On ch=4 n=d#6 v=127
57890 Off ch=9 n=g#5 v=127
57891 On ch=12 n=a#5 v=127
58024 Off ch=12 n=a#5 v=127
58024 Off ch=4 n=d#6 v=127
58025 On ch=9 n=g#5 v=127
58025 On ch=6 n=f6 v=127
58158 Off ch=9 n=g#5 v=127
58159 On ch=12 n=a#5 v=127
58292 Off ch=12 n=a#5 v=127
58292 Off ch=6 n=f6 v=127
58293 On ch=8 n=g5 v=127
58293 On ch=4 n=d#6 v=127
58426 Off ch=8 n=g5 v=127
58427 On ch=9 n=g#5 v=127
58560 Off ch=9 n=g#5 v=127
58560 Off ch=4 n=d#6 v=127
58561 On ch=6 n=f5 v=127
58561 On ch=3 n=d6 v=127
58694 Off ch=6 n=f5 v=127
58695 On ch=8 n=g5 v=127
58828 Off ch=8 n=g5 v=127
58828 Off ch=3 n=d6 v=127
58829 On ch=4 n=d#5 v=127
58829 On ch=1 n=c6 v=127
58962 Off ch=4 n=d#5 v=127
58963 On ch=6 n=f5 v=127
59096 Off ch=6 n=f5 v=127
59096 Off ch=1 n=c6 v=127
59097 On ch=3 n=d5 v=127
59097 On ch=13 n=b5 v=127
59230 Off ch=3 n=d5 v=127
59231 On ch=4 n=d#5 v=127
59364 Off ch=4 n=d#5 v=127
59364 Off ch=13 n=b5 v=127
59365 On ch=1 n=c5 v=127
59365 On ch=11 n=a5 v=127
59498 Off ch=1 n=c5 v=127
59499 On ch=3 n=d5 v=127
59632 Off ch=3 n=d5 v=127
59632 Off ch=11 n=a5 v=127
59633 On ch=13 n=b4 v=127
59633 On ch=8 n=g5 v=127
59766 Off ch=13 n=b4 v=127
59767 On ch=8 n=g4 v=127
59900 Off ch=8 n=g4 v=127
59900 Off ch=8 n=g5 v=127
59901 On ch=11 n=a4 v=127
59901 On ch=6 n=f5 v=127
60034 Off ch=11 n=a4 v=127
60035 On ch=13 n=b4 v=127
60168 Off ch=13 n=b4 v=127
60168 Off ch=6 n=f5 v=127
60169 On ch=1 n=c5 v=127
60169 On ch=4 n=d#5 v=127
60302 Off ch=1 n=c5 v=127
60303 On ch=3 n=d5 v=127
60436 Off ch=3 n=d5 v=127
60436 Off ch=4 n=d#5 v=127
60437 On ch=4 n=d#5 v=127
60570 Off ch=4 n=d#5 v=127
60571 On ch=6 n=f5 v=127
60704 Off ch=6 n=f5 v=127
60705 On ch=8 n=g5 v=127
60838 Off ch=8 n=g5 v=127
60839 On ch=11 n=a5 v=127
60972 Off ch=11 n=a5 v=127
60973 On ch=13 n=b5 v=127
61106 Off ch=13 n=b5 v=127
61107 On ch=8 n=g5 v=127
61240 Off ch=8 n=g5 v=127
61241 On ch=1 n=c6 v=127
61374 Off ch=1 n=c6 v=127
61375 On ch=3 n=d6 v=127
61508 Off ch=3 n=d6 v=127
61509 On ch=4 n=d#6 v=127
61642 Off ch=4 n=d#6 v=127
61643 On ch=6 n=f6 v=127
61776 Off ch=6 n=f6 v=127
61777 On ch=8 n=g6 v=127
61910 Off ch=8 n=g6 v=127
61911 On ch=11 n=a6 v=127
62044 Off ch=11 n=a6 v=127
62045 On ch=13 n=b6 v=127
62178 Off ch=13 n=b6 v=127
62179 On ch=8 n=g6 v=127
62312 Off ch=8 n=g6 v=127
62313 On ch=4 n=d#6 v=127
62313 On ch=1 n=c6 v=127
62447 On ch=1 n=c7 v=127
62480 Off ch=4 n=d#6 v=127
62579 Off ch=1 n=c6 v=127
62580 On ch=3 n=d6 v=127
62580 On ch=8 n=g5 v=127
62613 Off ch=1 n=c7 v=127
62713 On ch=12 n=a#6 v=127
62746 Off ch=3 n=d6 v=127
62845 Off ch=8 n=g5 v=127
62846 On ch=1 n=c6 v=127
62846 On ch=9 n=g#5 v=127
62879 Off ch=12 n=a#6 v=127
62979 On ch=9 n=g#6 v=127
63012 Off ch=1 n=c6 v=127
63111 Off ch=9 n=g#5 v=127
63112 On ch=12 n=a#5 v=127
63112 On ch=4 n=d#5 v=127
63145 Off ch=9 n=g#6 v=127
63245 On ch=8 n=g6 v=127
63278 Off ch=12 n=a#5 v=127
63377 Off ch=4 n=d#5 v=127
63378 On ch=9 n=g#5 v=127
63378 On ch=6 n=f5 v=127
63411 Off ch=8 n=g6 v=127
63511 On ch=6 n=f6 v=127
63544 Off ch=9 n=g#5 v=127
63643 Off ch=6 n=f5 v=127
63644 On ch=8 n=g5 v=127
63644 On ch=1 n=c5 v=127
63677 Off ch=6 n=f6 v=127
63777 On ch=4 n=d#6 v=127
63810 Off ch=8 n=g5 v=127
63909 Off ch=1 n=c5 v=127
63910 On ch=6 n=f5 v=127
63910 On ch=13 n=b4 v=127
63943 Off ch=4 n=d#6 v=127
64043 On ch=3 n=d6 v=127
64076 Off ch=6 n=f5 v=127
64175 Off ch=13 n=b4 v=127
64176 On ch=4 n=d#5 v=127
64176 On ch=1 n=c5 v=127
64209 Off ch=3 n=d6 v=127
64309 On ch=1 n=c6 v=127
64342 Off ch=4 n=d#5 v=127
64441 Off ch=1 n=c5 v=127
64442 On ch=3 n=d5 v=127
64442 On ch=8 n=g4 v=127
64573 Off ch=1 n=c6 v=127
64576 On ch=13 n=b5 v=127
64707 Off ch=3 n=d5 v=127
64708 Off ch=13 n=b5 v=127
64708 Off ch=8 n=g4 v=127
64709 On ch=1 n=c6 v=127
64709 On ch=6 n=f5 v=127
64709 On ch=6 n=f4 v=127
64842 Off ch=1 n=c6 v=127
64843 On ch=3 n=d6 v=127
64976 Off ch=3 n=d6 v=127
64976 Off ch=6 n=f4 v=127
64976 Off ch=6 n=f5 v=127
64977 On ch=4 n=d#6 v=127
64977 On ch=8 n=g4 v=127
64977 On ch=4 n=d#5 v=127
65110 Off ch=4 n=d#6 v=127
65111 On ch=1 n=c6 v=127
65244 Off ch=1 n=c6 v=127
65244 Off ch=4 n=d#5 v=127
65244 Off ch=8 n=g4 v=127
65245 On ch=3 n=d6 v=127
65245 On ch=8 n=g4 v=127
65245 On ch=3 n=d5 v=127
65378 Off ch=3 n=d6 v=127
65379 On ch=13 n=b5 v=127
65484 Off ch=13 n=b5 v=127
65484 Off ch=3 n=d5 v=127
65484 Off ch=8 n=g4 v=127
65513 On ch=4 n=d#6 v=127
65513 On ch=1 n=c6 v=127
65646 Off ch=4 n=d#6 v=127
65647 On ch=1 n=c7 v=127
65780 Off ch=1 n=c7 v=127
65780 Off ch=1 n=c6 v=127
65781 On ch=3 n=d6 v=127
65781 On ch=8 n=g5 v=127
65914 Off ch=3 n=d6 v=127
65915 On ch=12 n=a#6 v=127
66048 Off ch=12 n=a#6 v=127
66048 Off ch=8 n=g5 v=127
66049 On ch=1 n=c6 v=127
66049 On ch=9 n=g#5 v=127
66182 Off ch=1 n=c6 v=127
66183 On ch=9 n=g#6 v=127
66316 Off ch=9 n=g#6 v=127
66316 Off ch=9 n=g#5 v=127
66317 On ch=12 n=a#5 v=127
66317 On ch=4 n=d#5 v=127
66450 Off ch=12 n=a#5 v=127
66451 On ch=8 n=g6 v=127
66584 Off ch=8 n=g6 v=127
66584 Off ch=4 n=d#5 v=127
66585 On ch=9 n=g#5 v=127
66585 On ch=6 n=f5 v=127
66718 Off ch=9 n=g#5 v=127
66719 On ch=6 n=f6 v=127
66852 Off ch=6 n=f6 v=127
66852 Off ch=6 n=f5 v=127
66853 On ch=8 n=g5 v=127
66853 On ch=1 n=c5 v=127
66986 Off ch=8 n=g5 v=127
66987 On ch=4 n=d#6 v=127
67120 Off ch=4 n=d#6 v=127
67120 Off ch=1 n=c5 v=127
67121 On ch=6 n=f5 v=127
67121 On ch=13 n=b4 v=127
67254 Off ch=6 n=f5 v=127
67255 On ch=3 n=d6 v=127
67388 Off ch=3 n=d6 v=127
67388 Off ch=13 n=b4 v=127
67389 On ch=4 n=d#5 v=127
67389 On ch=1 n=c5 v=127
67522 Off ch=4 n=d#5 v=127
67523 On ch=1 n=c6 v=127
67656 Off ch=1 n=c6 v=127
67656 Off ch=1 n=c5 v=127
67657 On ch=3 n=d5 v=127
67657 On ch=8 n=g4 v=127
67790 Off ch=3 n=d5 v=127
67791 On ch=13 n=b5 v=127
67924 Off ch=13 n=b5 v=127
67924 Off ch=8 n=g4 v=127
67925 On ch=1 n=c6 v=127
67925 On ch=6 n=f4 v=127
68058 Off ch=1 n=c6 v=127
68059 On ch=3 n=d6 v=127
68192 Off ch=3 n=d6 v=127
68192 Off ch=6 n=f4 v=127
68193 On ch=4 n=d#6 v=127
68193 On ch=8 n=g4 v=127
68326 Off ch=4 n=d#6 v=127
68327 On ch=1 n=c6 v=127
68460 Off ch=1 n=c6 v=127
68461 On ch=3 n=d6 v=127
68461 On ch=8 n=g3 v=127
68594 Off ch=3 n=d6 v=127
68595 Off ch=8 n=g4 v=127
68595 On ch=13 n=b5 v=127
68728 Off ch=13 n=b5 v=127
68728 Off ch=8 n=g3 v=127
68729 On ch=1 n=c6 v=127
68729 On ch=1 n=c3 v=127
68863 On ch=3 n=d6 v=127
68930 Off ch=1 n=c6 v=127
68996 Off ch=3 n=d6 v=127
68996 Off ch=1 n=c3 v=127
68997 On ch=5 n=e6 v=127
68997 On ch=5 n=e5 v=127
68997 On ch=1 n=c5 v=127
69130 Off ch=5 n=e6 v=127
69131 On ch=6 n=f6 v=127
69264 Off ch=6 n=f6 v=127
69264 Off ch=1 n=c5 v=127
69264 Off ch=5 n=e5 v=127
69265 On ch=8 n=g6 v=127
69265 On ch=5 n=e5 v=127
69265 On ch=1 n=c5 v=127
69398 Off ch=8 n=g6 v=127
69399 On ch=12 n=a#5 v=127
69532 Off ch=12 n=a#5 v=127
69532 Off ch=1 n=c5 v=127
69532 Off ch=5 n=e5 v=127
69533 On ch=9 n=g#5 v=127
69533 On ch=1 n=c5 v=127
69533 On ch=5 n=e5 v=127
69666 Off ch=9 n=g#5 v=127
69667 On ch=8 n=g5 v=127
69800 Off ch=8 n=g5 v=127
69800 Off ch=5 n=e5 v=127
69800 Off ch=1 n=c5 v=127
69801 On ch=9 n=g#5 v=127
69801 On ch=1 n=c5 v=127
69801 On ch=6 n=f5 v=127
69934 Off ch=9 n=g#5 v=127
69935 On ch=8 n=g6 v=127
70068 Off ch=8 n=g6 v=127
70068 Off ch=6 n=f5 v=127
70068 Off ch=1 n=c5 v=127
70069 On ch=6 n=f6 v=127
70069 On ch=1 n=c5 v=127
70069 On ch=6 n=f5 v=127
70069 On ch=9 n=g#5 v=127
70202 Off ch=6 n=f6 v=127
70203 On ch=8 n=g6 v=127
70336 Off ch=8 n=g6 v=127
70336 Off ch=9 n=g#5 v=127
70336 Off ch=6 n=f5 v=127
70336 Off ch=1 n=c5 v=127
70337 On ch=9 n=g#6 v=127
70337 On ch=1 n=c5 v=127
70337 On ch=6 n=f5 v=127
70337 On ch=9 n=g#5 v=127
70470 Off ch=9 n=g#6 v=127
70471 On ch=1 n=c6 v=127
70604 Off ch=1 n=c6 v=127
70604 Off ch=9 n=g#5 v=127
70604 Off ch=6 n=f5 v=127
70604 Off ch=1 n=c5 v=127
70605 On ch=2 n=c#6 v=127
70605 On ch=1 n=c5 v=127
70605 On ch=6 n=f5 v=127
70605 On ch=9 n=g#5 v=127
70738 Off ch=2 n=c#6 v=127
70739 On ch=1 n=c6 v=127
70872 Off ch=1 n=c6 v=127
70872 Off ch=9 n=g#5 v=127
70872 Off ch=6 n=f5 v=127
70872 Off ch=1 n=c5 v=127
70873 On ch=2 n=c#6 v=127
70873 On ch=8 n=g5 v=127
70873 On ch=1 n=c5 v=127
70873 On ch=12 n=a#5 v=127
71006 Off ch=2 n=c#6 v=127
71007 On ch=9 n=g#6 v=127
71140 Off ch=9 n=g#6 v=127
71140 Off ch=12 n=a#5 v=127
71140 Off ch=1 n=c5 v=127
71140 Off ch=8 n=g5 v=127
71141 On ch=8 n=g6 v=127
71141 On ch=8 n=g5 v=127
71141 On ch=1 n=c5 v=127
71141 On ch=12 n=a#5 v=127
71274 Off ch=8 n=g6 v=127
71275 On ch=9 n=g#6 v=127
71408 Off ch=9 n=g#6 v=127
71408 Off ch=12 n=a#5 v=127
71408 Off ch=1 n=c5 v=127
71408 Off ch=8 n=g5 v=127
71409 On ch=12 n=a#6 v=127
71409 On ch=8 n=g5 v=127
71409 On ch=1 n=c5 v=127
71409 On ch=12 n=a#5 v=127
71542 Off ch=12 n=a#6 v=127
71543 On ch=9 n=g#6 v=127
71676 Off ch=9 n=g#6 v=127
71676 Off ch=12 n=a#5 v=127
71676 Off ch=1 n=c5 v=127
71676 Off ch=8 n=g5 v=127
71677 On ch=8 n=g6 v=127
71677 On ch=8 n=g5 v=127
71677 On ch=12 n=a#5 v=127
71677 On ch=1 n=c5 v=127
71810 Off ch=8 n=g6 v=127
71811 On ch=6 n=f6 v=127
71944 Off ch=6 n=f6 v=127
71944 Off ch=1 n=c5 v=127
71944 Off ch=12 n=a#5 v=127
71944 Off ch=8 n=g5 v=127
71945 On ch=5 n=e6 v=127
71945 On ch=8 n=g5 v=127
71945 On ch=12 n=a#5 v=127
71945 On ch=1 n=c5 v=127
72078 Off ch=5 n=e6 v=127
72079 On ch=6 n=f6 v=127
72212 Off ch=6 n=f6 v=127
72212 Off ch=1 n=c5 v=127
72212 Off ch=12 n=a#5 v=127
72212 Off ch=8 n=g5 v=127
72213 On ch=5 n=e6 v=127
72213 On ch=1 n=c5 v=127
72213 On ch=8 n=g5 v=127
72213 On ch=12 n=a#5 v=127
72346 Off ch=5 n=e6 v=127
72347 On ch=3 n=d6 v=127
72480 Off ch=3 n=d6 v=127
72480 Off ch=12 n=a#5 v=127
72480 Off ch=8 n=g5 v=127
72480 Off ch=1 n=c5 v=127
72481 On ch=1 n=c6 v=127
72481 On ch=1 n=c5 v=127
72481 On ch=5 n=e5 v=127
72481 On ch=8 n=g5 v=127
72614 Off ch=1 n=c6 v=127
72615 On ch=12 n=a#5 v=127
72748 Off ch=12 n=a#5 v=127
72748 Off ch=8 n=g5 v=127
72748 Off ch=5 n=e5 v=127
72748 Off ch=1 n=c5 v=127
72749 On ch=9 n=g#5 v=127
72749 On ch=5 n=e5 v=127
72749 On ch=1 n=c5 v=127
72882 Off ch=9 n=g#5 v=127
72883 On ch=8 n=g5 v=127
73016 Off ch=8 n=g5 v=127
73016 Off ch=1 n=c5 v=127
73016 Off ch=5 n=e5 v=127
73017 On ch=9 n=g#5 v=127
73017 On ch=6 n=f4 v=127
73150 Off ch=9 n=g#5 v=127
73151 On ch=1 n=c6 v=127
73284 Off ch=1 n=c6 v=127
73285 On ch=12 n=a#5 v=127
73285 On ch=6 n=f5 v=127
73418 Off ch=12 n=a#5 v=127
73419 Off ch=6 n=f4 v=127
73419 On ch=9 n=g#5 v=127
73552 Off ch=9 n=g#5 v=127
73552 Off ch=6 n=f5 v=127
73553 On ch=8 n=g5 v=127
73553 On ch=12 n=a#4 v=127
73686 Off ch=8 n=g5 v=127
73687 On ch=6 n=f5 v=127
73820 Off ch=6 n=f5 v=127
73820 Off ch=12 n=a#4 v=127
73821 On ch=5 n=e5 v=127
73821 On ch=2 n=c#5 v=127
73954 Off ch=5 n=e5 v=127
73955 On ch=6 n=f5 v=127
74088 Off ch=6 n=f5 v=127
74088 Off ch=2 n=c#5 v=127
74089 On ch=6 n=f5 v=127
74089 On ch=1 n=c5 v=127
74357 On ch=1 n=c4 v=127
74423 Off ch=6 n=f5 v=127
74424 On ch=5 n=e5 v=127
74490 Off ch=5 n=e5 v=127
74491 On ch=6 n=f5 v=127
74557 Off ch=6 n=f5 v=127
74558 On ch=5 n=e5 v=127
74624 Off ch=1 n=c4 v=127
74625 On ch=1 n=c4 v=127
74759 Off ch=1 n=c5 v=127
74825 Off ch=5 n=e5 v=127
74892 Off ch=1 n=c4 v=127
74893 On ch=1 n=c5 v=127
74893 On ch=1 n=c4 v=127
75160 Off ch=1 n=c5 v=127
75161 Off ch=1 n=c4 v=127
75161 On ch=2 n=c#5 v=127
75294 Off ch=2 n=c#5 v=127
75295 On ch=1 n=c5 v=127
75428 Off ch=1 n=c5 v=127
75429 On ch=2 n=c#5 v=127
75429 On ch=6 n=f4 v=127
75562 Off ch=2 n=c#5 v=127
75563 On ch=5 n=e5 v=127
75696 Off ch=5 n=e5 v=127
75696 Off ch=6 n=f4 v=127
75697 On ch=6 n=f5 v=127
75697 On ch=6 n=f4 v=127
75830 Off ch=6 n=f5 v=127
75831 On ch=5 n=e5 v=127
75964 Off ch=5 n=e5 v=127
75964 Off ch=6 n=f4 v=127
75965 On ch=6 n=f5 v=127
75965 On ch=2 n=c#6 v=127
75965 On ch=12 n=a#5 v=127
76098 Off ch=6 n=f5 v=127
76099 On ch=2 n=c#5 v=127
76232 Off ch=2 n=c#5 v=127
76232 Off ch=12 n=a#5 v=127
76232 Off ch=2 n=c#6 v=127
76233 On ch=2 n=c#5 v=127
76233 On ch=12 n=a#5 v=127
76233 On ch=2 n=c#6 v=127
76500 Off ch=2 n=c#6 v=127
76500 Off ch=12 n=a#5 v=127
76500 Off ch=2 n=c#5 v=127
76501 On ch=1 n=c5 v=127
76501 On ch=9 n=g#5 v=127
76501 On ch=1 n=c6 v=127
76768 Off ch=1 n=c6 v=127
76768 Off ch=9 n=g#5 v=127
76769 On ch=9 n=g#5 v=127
76769 On ch=1 n=c6 v=127
77036 Off ch=1 n=c6 v=127
77036 Off ch=9 n=g#5 v=127
77036 Off ch=1 n=c5 v=127
77037 On ch=1 n=c5 v=127
77037 On ch=6 n=f4 v=127
77304 Off ch=1 n=c5 v=127
77305 On ch=2 n=c#5 v=127
77438 Off ch=2 n=c#5 v=127
77439 On ch=1 n=c5 v=127
77572 Off ch=1 n=c5 v=127
77572 Off ch=6 n=f4 v=127
77573 On ch=2 n=c#5 v=127
77573 On ch=6 n=f4 v=127
77706 Off ch=2 n=c#5 v=127
77707 On ch=5 n=e5 v=127
77840 Off ch=5 n=e5 v=127
77840 Off ch=6 n=f4 v=127
77841 On ch=6 n=f5 v=127
77841 On ch=6 n=f4 v=127
77974 Off ch=6 n=f5 v=127
77975 On ch=5 n=e5 v=127
78108 Off ch=5 n=e5 v=127
78108 Off ch=6 n=f4 v=127
78109 On ch=6 n=f5 v=127
78109 On ch=2 n=c#6 v=127
78109 On ch=12 n=a#5 v=127
78242 Off ch=6 n=f5 v=127
78243 On ch=2 n=c#5 v=127
78376 Off ch=2 n=c#5 v=127
78376 Off ch=12 n=a#5 v=127
78376 Off ch=2 n=c#6 v=127
78377 On ch=2 n=c#5 v=127
78377 On ch=12 n=a#5 v=127
78377 On ch=2 n=c#6 v=127
78644 Off ch=2 n=c#6 v=127
78644 Off ch=12 n=a#5 v=127
78644 Off ch=2 n=c#5 v=127
78645 On ch=1 n=c5 v=127
78645 On ch=1 n=c6 v=127
78645 On ch=9 n=g#5 v=127
78912 Off ch=9 n=g#5 v=127
78912 Off ch=1 n=c6 v=127
78913 On ch=9 n=g#5 v=127
78913 On ch=1 n=c6 v=127
79046 Off ch=1 n=c5 v=127
79047 On ch=1 n=c5 v=127
79180 Off ch=1 n=c5 v=127
79180 Off ch=1 n=c6 v=127
79180 Off ch=9 n=g#5 v=127
79181 On ch=3 n=d5 v=127
79181 On ch=1 n=c6 v=127
79181 On ch=9 n=g#5 v=127
79314 Off ch=3 n=d5 v=127
79315 On ch=4 n=d#5 v=127
79448 Off ch=4 n=d#5 v=127
79448 Off ch=9 n=g#5 v=127
79448 Off ch=1 n=c6 v=127
79449 On ch=3 n=d5 v=127
79449 On ch=12 n=a#5 v=127
79582 Off ch=3 n=d5 v=127
79583 On ch=3 n=d5 v=127
79716 Off ch=3 n=d5 v=127
79716 Off ch=12 n=a#5 v=127
79717 On ch=5 n=e5 v=127
79717 On ch=8 n=g5 v=127
79850 Off ch=5 n=e5 v=127
79851 On ch=6 n=f5 v=127
79984 Off ch=6 n=f5 v=127
79984 Off ch=8 n=g5 v=127
79985 On ch=5 n=e5 v=127
79985 On ch=1 n=c6 v=127
80118 Off ch=5 n=e5 v=127
80119 On ch=5 n=e5 v=127
80252 Off ch=5 n=e5 v=127
80252 Off ch=1 n=c6 v=127
80253 On ch=6 n=f5 v=127
80253 On ch=9 n=g#5 v=127
80386 Off ch=6 n=f5 v=127
80387 On ch=8 n=g5 v=127
80520 Off ch=8 n=g5 v=127
80520 Off ch=9 n=g#5 v=127
80521 On ch=6 n=f5 v=127
80521 On ch=2 n=c#6 v=127
80654 Off ch=6 n=f5 v=127
80655 On ch=6 n=f5 v=127
80788 Off ch=6 n=f5 v=127
80788 Off ch=2 n=c#6 v=127
80789 On ch=8 n=g5 v=127
80789 On ch=12 n=a#5 v=127
80922 Off ch=8 n=g5 v=127
80923 On ch=9 n=g#5 v=127
81056 Off ch=9 n=g#5 v=127
81056 Off ch=12 n=a#5 v=127
81057 On ch=8 n=g5 v=127
81057 On ch=5 n=e6 v=127
81190 Off ch=8 n=g5 v=127
81191 On ch=8 n=g5 v=127
81324 Off ch=8 n=g5 v=127
81324 Off ch=5 n=e6 v=127
81325 On ch=9 n=g#5 v=127
81325 On ch=1 n=c6 v=127
81458 Off ch=9 n=g#5 v=127
81459 On ch=12 n=a#5 v=127
81592 Off ch=12 n=a#5 v=127
81592 Off ch=1 n=c6 v=127
81593 On ch=9 n=g#5 v=127
81593 On ch=6 n=f6 v=127
81726 Off ch=9 n=g#5 v=127
81727 On ch=9 n=g#5 v=127
81860 Off ch=9 n=g#5 v=127
81860 Off ch=6 n=f6 v=127
81861 On ch=12 n=a#5 v=127
81861 On ch=3 n=d6 v=127
81994 Off ch=12 n=a#5 v=127
81995 On ch=1 n=c6 v=127
82128 Off ch=1 n=c6 v=127
82128 Off ch=3 n=d6 v=127
82129 On ch=12 n=a#5 v=127
82129 On ch=8 n=g6 v=127
82262 Off ch=12 n=a#5 v=127
82263 On ch=12 n=a#5 v=127
82396 Off ch=12 n=a#5 v=127
82396 Off ch=8 n=g6 v=127
82397 On ch=1 n=c6 v=127
82397 On ch=5 n=e6 v=127
82530 Off ch=1 n=c6 v=127
82531 On ch=2 n=c#6 v=127
82664 Off ch=2 n=c#6 v=127
82664 Off ch=5 n=e6 v=127
82665 On ch=1 n=c6 v=127
82665 On ch=9 n=g#6 v=127
82798 Off ch=1 n=c6 v=127
82799 On ch=1 n=c6 v=127
82932 Off ch=1 n=c6 v=127
82932 Off ch=9 n=g#6 v=127
82933 On ch=3 n=d6 v=127
82933 On ch=6 n=f6 v=127
83066 Off ch=3 n=d6 v=127
83067 On ch=4 n=d#6 v=127
83200 Off ch=4 n=d#6 v=127
83200 Off ch=6 n=f6 v=127
83201 On ch=3 n=d6 v=127
83201 On ch=12 n=a#6 v=127
83334 Off ch=3 n=d6 v=127
83335 On ch=3 n=d6 v=127
83468 Off ch=3 n=d6 v=127
83468 Off ch=12 n=a#6 v=127
83469 On ch=5 n=e6 v=127
83469 On ch=8 n=g6 v=127
83602 Off ch=5 n=e6 v=127
83603 On ch=6 n=f6 v=127
83736 Off ch=6 n=f6 v=127
83736 Off ch=8 n=g6 v=127
83737 On ch=5 n=e6 v=127
83737 On ch=1 n=c7 v=127
83870 Off ch=5 n=e6 v=127
83871 On ch=6 n=f6 v=127
84004 Off ch=6 n=f6 v=127
84004 Off ch=1 n=c7 v=127
84005 On ch=5 n=e6 v=127
84005 On ch=1 n=c5 v=127
84138 Off ch=5 n=e6 v=127
84139 On ch=3 n=d6 v=127
84272 Off ch=3 n=d6 v=127
84272 Off ch=1 n=c5 v=127
84273 On ch=1 n=c6 v=127
84273 On ch=1 n=c5 v=127
84406 Off ch=1 n=c6 v=127
84407 On ch=12 n=a#5 v=127
84540 Off ch=12 n=a#5 v=127
84540 Off ch=1 n=c5 v=127
84541 On ch=9 n=g#5 v=127
84541 On ch=1 n=c5 v=127
84674 Off ch=9 n=g#5 v=127
84675 On ch=8 n=g5 v=127
84808 Off ch=8 n=g5 v=127
84808 Off ch=1 n=c5 v=127
84809 On ch=9 n=g#5 v=127
84809 On ch=6 n=f5 v=127
84943 On ch=6 n=f6 v=127
84976 Off ch=9 n=g#5 v=127
85075 Off ch=6 n=f5 v=127
85076 On ch=8 n=g5 v=127
85076 On ch=1 n=c5 v=127
85109 Off ch=6 n=f6 v=127
85209 On ch=4 n=d#6 v=127
85242 Off ch=8 n=g5 v=127
85341 Off ch=1 n=c5 v=127
85342 On ch=6 n=f5 v=127
85342 On ch=2 n=c#5 v=127
85375 Off ch=4 n=d#6 v=127
85475 On ch=2 n=c#6 v=127
85508 Off ch=6 n=f5 v=127
85607 Off ch=2 n=c#5 v=127
85608 On ch=4 n=d#5 v=127
85608 On ch=9 n=g#4 v=127
85641 Off ch=2 n=c#6 v=127
85741 On ch=1 n=c6 v=127
85774 Off ch=4 n=d#5 v=127
85873 Off ch=9 n=g#4 v=127
85874 On ch=2 n=c#5 v=127
85874 On ch=12 n=a#4 v=127
85907 Off ch=1 n=c6 v=127
86007 On ch=12 n=a#5 v=127
86040 Off ch=2 n=c#5 v=127
86139 Off ch=12 n=a#4 v=127
86140 On ch=1 n=c5 v=127
86140 On ch=6 n=f4 v=127
86173 Off ch=12 n=a#5 v=127
86273 On ch=9 n=g#5 v=127
86306 Off ch=1 n=c5 v=127
86405 Off ch=6 n=f4 v=127
86406 On ch=12 n=a#4 v=127
86406 On ch=5 n=e4 v=127
86439 Off ch=9 n=g#5 v=127
86539 On ch=8 n=g5 v=127
86572 Off ch=12 n=a#4 v=127
86671 Off ch=5 n=e4 v=127
86672 On ch=9 n=g#4 v=127
86672 On ch=6 n=f4 v=127
86705 Off ch=8 n=g5 v=127
86805 On ch=6 n=f5 v=127
86838 Off ch=9 n=g#4 v=127
86937 Off ch=6 n=f5 v=127
86937 Off ch=6 n=f4 v=127
86938 On ch=1 n=c5 v=127
86938 On ch=1 n=c4 v=127
87071 Off ch=1 n=c5 v=127
87072 On ch=5 n=e5 v=127
87205 Off ch=5 n=e5 v=127
87205 Off ch=1 n=c4 v=127
87206 On ch=6 n=f5 v=127
87206 On ch=12 n=a#3 v=127
87206 On ch=12 n=a#4 v=127
87339 Off ch=6 n=f5 v=127
87340 On ch=8 n=g5 v=127
87473 Off ch=8 n=g5 v=127
87473 Off ch=12 n=a#4 v=127
87473 Off ch=12 n=a#3 v=127
87474 On ch=9 n=g#5 v=127
87474 On ch=1 n=c4 v=127
87474 On ch=9 n=g#4 v=127
87607 Off ch=9 n=g#5 v=127
87608 On ch=6 n=f5 v=127
87741 Off ch=6 n=f5 v=127
87741 Off ch=9 n=g#4 v=127
87741 Off ch=1 n=c4 v=127
87742 On ch=8 n=g5 v=127
87742 On ch=1 n=c4 v=127
87742 On ch=8 n=g4 v=127
87875 Off ch=8 n=g5 v=127
87876 On ch=5 n=e5 v=127
87981 Off ch=5 n=e5 v=127
87981 Off ch=8 n=g4 v=127
87981 Off ch=1 n=c4 v=127
88010 On ch=9 n=g#5 v=127
88010 On ch=6 n=f5 v=127
88143 Off ch=9 n=g#5 v=127
88144 On ch=6 n=f6 v=127
88277 Off ch=6 n=f6 v=127
88277 Off ch=6 n=f5 v=127
88278 On ch=8 n=g5 v=127
88278 On ch=1 n=c5 v=127
88411 Off ch=8 n=g5 v=127
88412 On ch=4 n=d#6 v=127
88545 Off ch=4 n=d#6 v=127
88545 Off ch=1 n=c5 v=127
88546 On ch=6 n=f5 v=127
88546 On ch=2 n=c#5 v=127
88679 Off ch=6 n=f5 v=127
88680 On ch=2 n=c#6 v=127
88813 Off ch=2 n=c#6 v=127
88813 Off ch=2 n=c#5 v=127
88814 On ch=4 n=d#5 v=127
88814 On ch=9 n=g#4 v=127
88947 Off ch=4 n=d#5 v=127
88948 On ch=1 n=c6 v=127
89081 Off ch=1 n=c6 v=127
89081 Off ch=9 n=g#4 v=127
89082 On ch=2 n=c#5 v=127
89082 On ch=12 n=a#4 v=127
89215 Off ch=2 n=c#5 v=127
89216 On ch=12 n=a#5 v=127
89349 Off ch=12 n=a#5 v=127
89349 Off ch=12 n=a#4 v=127
89350 On ch=1 n=c5 v=127
89350 On ch=6 n=f4 v=127
89483 Off ch=1 n=c5 v=127
89484 On ch=9 n=g#5 v=127
89617 Off ch=9 n=g#5 v=127
89617 Off ch=6 n=f4 v=127
89618 On ch=12 n=a#4 v=127
89618 On ch=5 n=e4 v=127
89751 Off ch=12 n=a#4 v=127
89752 On ch=8 n=g5 v=127
89885 Off ch=8 n=g5 v=127
89885 Off ch=5 n=e4 v=127
89886 On ch=9 n=g#4 v=127
89886 On ch=6 n=f4 v=127
90019 Off ch=9 n=g#4 v=127
90020 On ch=6 n=f5 v=127
90153 Off ch=6 n=f4 v=127
90154 On ch=1 n=c5 v=127
90154 On ch=1 n=c4 v=127
90285 Off ch=6 n=f5 v=127
90288 On ch=5 n=e5 v=127
90419 Off ch=1 n=c5 v=127
90420 Off ch=5 n=e5 v=127
90420 Off ch=1 n=c4 v=127
90421 On ch=6 n=f5 v=127
90421 On ch=12 n=a#4 v=127
90421 On ch=12 n=a#3 v=127
90554 Off ch=6 n=f5 v=127
90555 On ch=8 n=g5 v=127
90688 Off ch=8 n=g5 v=127
90688 Off ch=12 n=a#3 v=127
90688 Off ch=12 n=a#4 v=127
90689 On ch=9 n=g#5 v=127
90689 On ch=1 n=c4 v=127
90689 On ch=9 n=g#4 v=127
90822 Off ch=9 n=g#5 v=127
90823 On ch=6 n=f5 v=127
90956 Off ch=6 n=f5 v=127
90956 Off ch=9 n=g#4 v=127
90956 Off ch=1 n=c4 v=127
90957 On ch=8 n=g5 v=127
90957 On ch=1 n=c4 v=127
90957 On ch=8 n=g4 v=127
91090 Off ch=8 n=g5 v=127
91091 On ch=5 n=e5 v=127
91210 Off ch=5 n=e5 v=127
91210 Off ch=8 n=g4 v=127
91210 Off ch=1 n=c4 v=127
91225 On ch=6 n=f6 v=127
91225 On ch=6 n=f4 v=127
91358 Off ch=6 n=f6 v=127
91359 On ch=9 n=g#6 v=127
91492 Off ch=9 n=g#6 v=127
91493 On ch=8 n=g6 v=127
91493 On ch=6 n=f5 v=127
91626 Off ch=8 n=g6 v=127
91627 On ch=6 n=f6 v=127
91755 Off ch=6 n=f4 v=127
91759 Off ch=6 n=f6 v=127
91760 On ch=5 n=e6 v=127
91893 Off ch=5 n=e6 v=127
91894 On ch=3 n=d6 v=127
92027 Off ch=3 n=d6 v=127
92027 Off ch=6 n=f5 v=127
92028 On ch=1 n=c6 v=127
92028 On ch=5 n=e5 v=127
92161 Off ch=1 n=c6 v=127
92162 On ch=12 n=a#5 v=127
92295 Off ch=12 n=a#5 v=127
92295 Off ch=5 n=e5 v=127
92296 On ch=9 n=g#5 v=127
92296 On ch=6 n=f5 v=127
92429 Off ch=9 n=g#5 v=127
92430 On ch=2 n=c#6 v=127
92563 Off ch=2 n=c#6 v=127
92563 Off ch=6 n=f5 v=127
92564 On ch=1 n=c6 v=127
92564 On ch=12 n=a#4 v=127
92697 Off ch=1 n=c6 v=127
92698 On ch=12 n=a#5 v=127
92831 Off ch=12 n=a#5 v=127
92831 Off ch=12 n=a#4 v=127
92832 On ch=9 n=g#5 v=127
92832 On ch=1 n=c5 v=127
92965 Off ch=9 n=g#5 v=127
92966 On ch=8 n=g5 v=127
93099 Off ch=8 n=g5 v=127
93100 On ch=6 n=f5 v=127
93100 On ch=1 n=c4 v=127
93233 Off ch=6 n=f5 v=127
93234 Off ch=1 n=c5 v=127
93234 On ch=5 n=e5 v=127
93367 Off ch=5 n=e5 v=127
93367 Off ch=1 n=c4 v=127
93368 On ch=6 n=f5 v=127
93368 On ch=6 n=f3 v=127
93501 Off ch=6 n=f5 v=127
93502 On ch=9 n=g#5 v=127
93635 Off ch=9 n=g#5 v=127
93636 On ch=8 n=g5 v=127
93636 On ch=6 n=f4 v=127
93769 Off ch=8 n=g5 v=127
93770 Off ch=6 n=f3 v=127
93770 On ch=6 n=f5 v=127
93903 Off ch=6 n=f5 v=127
93904 On ch=5 n=e5 v=127
94037 Off ch=5 n=e5 v=127
94038 On ch=3 n=d5 v=127
94171 Off ch=3 n=d5 v=127
94171 Off ch=6 n=f4 v=127
94172 On ch=1 n=c5 v=127
94172 On ch=5 n=e4 v=127
94305 Off ch=1 n=c5 v=127
94306 On ch=12 n=a#4 v=127
94439 Off ch=12 n=a#4 v=127
94439 Off ch=5 n=e4 v=127
94440 On ch=9 n=g#4 v=127
94440 On ch=6 n=f4 v=127
94573 Off ch=9 n=g#4 v=127
94574 On ch=2 n=c#5 v=127
94707 Off ch=2 n=c#5 v=127
94707 Off ch=6 n=f4 v=127
94708 On ch=1 n=c5 v=127
94708 On ch=12 n=a#3 v=127
94841 Off ch=1 n=c5 v=127
94842 On ch=12 n=a#4 v=127
94975 Off ch=12 n=a#4 v=127
94975 Off ch=12 n=a#3 v=127
94976 On ch=9 n=g#4 v=127
94976 On ch=1 n=c4 v=127
95109 Off ch=9 n=g#4 v=127
95110 On ch=8 n=g4 v=127
95243 Off ch=8 n=g4 v=127
95244 On ch=6 n=f4 v=127
95244 On ch=1 n=c3 v=127
95377 Off ch=6 n=f4 v=127
95378 On ch=5 n=e4 v=127
95506 Off ch=1 n=c4 v=127
95510 Off ch=5 n=e4 v=127
95510 Off ch=1 n=c3 v=127
95511 On ch=6 n=f4 v=127
95511 On ch=6 n=f3 v=127
95644 Off ch=6 n=f4 v=127
95645 On ch=9 n=g#4 v=127
95778 Off ch=9 n=g#4 v=127
95779 On ch=8 n=g4 v=127
95912 Off ch=8 n=g4 v=127
95913 On ch=6 n=f4 v=127
96046 Off ch=6 n=f4 v=127
96047 On ch=1 n=c5 v=127
96180 Off ch=1 n=c5 v=127
96181 On ch=9 n=g#4 v=127
96314 Off ch=9 n=g#4 v=127
96315 On ch=6 n=f5 v=127
96448 Off ch=6 n=f5 v=127
96449 On ch=1 n=c5 v=127
96582 Off ch=1 n=c5 v=127
96582 Off ch=6 n=f3 v=127
96583 On ch=9 n=g#5 v=127
96583 On ch=6 n=f4 v=127
96583 On ch=6 n=f3 v=127
96716 Off ch=9 n=g#5 v=127
96717 On ch=6 n=f5 v=127
96850 Off ch=6 n=f5 v=127
96851 On ch=1 n=c6 v=127
96984 Off ch=1 n=c6 v=127
96985 On ch=9 n=g#5 v=127
97118 Off ch=9 n=g#5 v=127
97119 On ch=6 n=f6 v=127
97252 Off ch=6 n=f6 v=127
97253 On ch=1 n=c6 v=127
97386 Off ch=1 n=c6 v=127
97387 On ch=9 n=g#5 v=127
97520 Off ch=9 n=g#5 v=127
97521 On ch=1 n=c6 v=127
97654 Off ch=1 n=c6 v=127
97654 Off ch=6 n=f3 v=127
97654 Off ch=6 n=f4 v=127
97669 On ch=6 n=f5 v=127
97669 On ch=6 n=f4 v=127
97669 On ch=6 n=f3 v=127
99762 Off ch=6 n=f3 v=127
99762 Off ch=6 n=f4 v=127
99762 Off ch=6 n=f5 v=127
102912 Meta TrkEnd
TrkEnd
