MFile 0 1 384
MTrk
0 Meta Copyright "(C) John Sankey 1998"
0 PrCh ch=1 p=6
0 Pb ch=1 v=8192
0 PrCh ch=2 p=6
0 Pb ch=2 v=7602
0 PrCh ch=3 p=6
0 Pb ch=3 v=7920
0 PrCh ch=4 p=6
0 Pb ch=4 v=7839
0 PrCh ch=5 p=6
0 Pb ch=5 v=7632
0 PrCh ch=6 p=6
0 Pb ch=6 v=8112
0 PrCh ch=7 p=6
0 Pb ch=7 v=7567
0 PrCh ch=8 p=6
0 Pb ch=8 v=8062
0 PrCh ch=9 p=6
0 Pb ch=9 v=7680
0 PrCh ch=11 p=6
0 Pb ch=11 v=7728
0 PrCh ch=12 p=6
0 Pb ch=12 v=7984
0 PrCh ch=13 p=6
0 Pb ch=13 v=7639
0 Tempo 500000
100 On ch=9 n=g#6 v=127
100 On ch=13 n=b6 v=127
494 Off ch=13 n=b6 v=127
494 Off ch=9 n=g#6 v=127
500 On ch=13 n=b6 v=127
500 On ch=9 n=g#6 v=127
544 Off ch=9 n=g#6 v=127
544 Off ch=13 n=b6 v=127
550 On ch=7 n=f#6 v=127
550 On ch=11 n=a6 v=127
594 Off ch=11 n=a6 v=127
594 Off ch=7 n=f#6 v=127
600 On ch=13 n=b6 v=127
600 On ch=9 n=g#6 v=127
644 Off ch=9 n=g#6 v=127
644 Off ch=13 n=b6 v=127
650 On ch=7 n=f#6 v=127
650 On ch=11 n=a6 v=127
694 Off ch=11 n=a6 v=127
694 Off ch=7 n=f#6 v=127
700 On ch=9 n=g#6 v=127
700 On ch=13 n=b6 v=127
744 Off ch=13 n=b6 v=127
744 Off ch=9 n=g#6 v=127
750 On ch=7 n=f#6 v=127
750 On ch=11 n=a6 v=127
794 Off ch=11 n=a6 v=127
794 Off ch=7 n=f#6 v=127
800 On ch=13 n=b6 v=127
800 On ch=9 n=g#6 v=127
844 Off ch=9 n=g#6 v=127
844 Off ch=13 n=b6 v=127
850 On ch=11 n=a6 v=127
850 On ch=7 n=f#6 v=127
900 On ch=5 n=e5 v=127
1094 Off ch=5 n=e5 v=127
1094 Off ch=7 n=f#6 v=127
1094 Off ch=11 n=a6 v=127
1100 On ch=13 n=b4 v=127
1100 On ch=9 n=g#6 v=127
1100 On ch=5 n=e6 v=127
1294 Off ch=13 n=b4 v=127
1300 On ch=5 n=e4 v=127
1500 On ch=5 n=e3 v=127
1694 Off ch=5 n=e6 v=127
1694 Off ch=9 n=g#6 v=127
1696 Off ch=5 n=e4 v=127
1700 On ch=9 n=g#6 v=127
1700 On ch=13 n=b5 v=127
2094 Off ch=13 n=b5 v=127
2094 Off ch=9 n=g#6 v=127
2100 On ch=13 n=b5 v=127
2100 On ch=9 n=g#6 v=127
2144 Off ch=9 n=g#6 v=127
2144 Off ch=13 n=b5 v=127
2150 On ch=11 n=a5 v=127
2150 On ch=7 n=f#6 v=127
2194 Off ch=7 n=f#6 v=127
2194 Off ch=11 n=a5 v=127
2200 On ch=13 n=b5 v=127
2200 On ch=9 n=g#6 v=127
2244 Off ch=9 n=g#6 v=127
2244 Off ch=13 n=b5 v=127
2250 On ch=11 n=a5 v=127
2250 On ch=7 n=f#6 v=127
2294 Off ch=7 n=f#6 v=127
2294 Off ch=11 n=a5 v=127
2300 On ch=9 n=g#6 v=127
2300 On ch=13 n=b5 v=127
2344 Off ch=13 n=b5 v=127
2344 Off ch=9 n=g#6 v=127
2350 On ch=11 n=a5 v=127
2350 On ch=7 n=f#6 v=127
2394 Off ch=7 n=f#6 v=127
2394 Off ch=11 n=a5 v=127
2400 On ch=13 n=b5 v=127
2400 On ch=9 n=g#6 v=127
2438 Off ch=5 n=e3 v=127
2444 Off ch=9 n=g#6 v=127
2444 Off ch=13 n=b5 v=127
2450 On ch=11 n=a5 v=127
2450 On ch=7 n=f#6 v=127
2500 On ch=5 n=e5 v=127
2694 Off ch=5 n=e5 v=127
2694 Off ch=7 n=f#6 v=127
2694 Off ch=11 n=a5 v=127
2700 On ch=13 n=b4 v=127
2700 On ch=5 n=e6 v=127
2700 On ch=9 n=g#5 v=127
2894 Off ch=13 n=b4 v=127
2900 On ch=5 n=e4 v=127
3100 On ch=5 n=e3 v=127
3294 Off ch=9 n=g#5 v=127
3294 Off ch=5 n=e6 v=127
3296 Off ch=5 n=e4 v=127
3300 On ch=13 n=b6 v=127
3300 On ch=9 n=g#6 v=127
3694 Off ch=9 n=g#6 v=127
3694 Off ch=13 n=b6 v=127
3700 On ch=13 n=b6 v=127
3700 On ch=9 n=g#6 v=127
3744 Off ch=9 n=g#6 v=127
3744 Off ch=13 n=b6 v=127
3750 On ch=11 n=a6 v=127
3750 On ch=7 n=f#6 v=127
3794 Off ch=7 n=f#6 v=127
3794 Off ch=11 n=a6 v=127
3800 On ch=13 n=b6 v=127
3800 On ch=9 n=g#6 v=127
3844 Off ch=9 n=g#6 v=127
3844 Off ch=13 n=b6 v=127
3850 On ch=7 n=f#6 v=127
3850 On ch=11 n=a6 v=127
3894 Off ch=11 n=a6 v=127
3894 Off ch=7 n=f#6 v=127
3900 On ch=9 n=g#6 v=127
3900 On ch=13 n=b6 v=127
3944 Off ch=13 n=b6 v=127
3944 Off ch=9 n=g#6 v=127
3950 On ch=11 n=a6 v=127
3950 On ch=7 n=f#6 v=127
3994 Off ch=7 n=f#6 v=127
3994 Off ch=11 n=a6 v=127
4000 On ch=13 n=b6 v=127
4000 On ch=9 n=g#6 v=127
4038 Off ch=5 n=e3 v=127
4044 Off ch=9 n=g#6 v=127
4044 Off ch=13 n=b6 v=127
4050 On ch=11 n=a6 v=127
4050 On ch=7 n=f#6 v=127
4100 On ch=5 n=e5 v=127
4294 Off ch=5 n=e5 v=127
4294 Off ch=7 n=f#6 v=127
4294 Off ch=11 n=a6 v=127
4300 On ch=13 n=b4 v=127
4300 On ch=9 n=g#6 v=127
4300 On ch=5 n=e6 v=127
4494 Off ch=13 n=b4 v=127
4500 On ch=5 n=e4 v=127
4700 On ch=5 n=e3 v=127
4894 Off ch=5 n=e6 v=127
4894 Off ch=9 n=g#6 v=127
4896 Off ch=5 n=e4 v=127
4900 On ch=9 n=g#6 v=127
4900 On ch=13 n=b5 v=127
5294 Off ch=13 n=b5 v=127
5294 Off ch=9 n=g#6 v=127
5300 On ch=13 n=b5 v=127
5300 On ch=9 n=g#6 v=127
5344 Off ch=9 n=g#6 v=127
5344 Off ch=13 n=b5 v=127
5350 On ch=7 n=f#6 v=127
5350 On ch=11 n=a5 v=127
5394 Off ch=11 n=a5 v=127
5394 Off ch=7 n=f#6 v=127
5400 On ch=9 n=g#6 v=127
5400 On ch=13 n=b5 v=127
5444 Off ch=13 n=b5 v=127
5444 Off ch=9 n=g#6 v=127
5450 On ch=11 n=a5 v=127
5450 On ch=7 n=f#6 v=127
5494 Off ch=7 n=f#6 v=127
5494 Off ch=11 n=a5 v=127
5500 On ch=9 n=g#6 v=127
5500 On ch=13 n=b5 v=127
5544 Off ch=13 n=b5 v=127
5544 Off ch=9 n=g#6 v=127
5550 On ch=7 n=f#6 v=127
5550 On ch=11 n=a5 v=127
5594 Off ch=11 n=a5 v=127
5594 Off ch=7 n=f#6 v=127
5600 On ch=9 n=g#6 v=127
5600 On ch=13 n=b5 v=127
5638 Off ch=5 n=e3 v=127
5644 Off ch=13 n=b5 v=127
5644 Off ch=9 n=g#6 v=127
5650 On ch=7 n=f#6 v=127
5650 On ch=11 n=a5 v=127
5700 On ch=5 n=e5 v=127
5894 Off ch=5 n=e5 v=127
5894 Off ch=11 n=a5 v=127
5894 Off ch=7 n=f#6 v=127
5900 On ch=13 n=b4 v=127
5900 On ch=5 n=e6 v=127
5900 On ch=9 n=g#5 v=127
6094 Off ch=13 n=b4 v=127
6100 On ch=5 n=e4 v=127
6300 On ch=5 n=e3 v=127
6494 Off ch=5 n=e3 v=127
6494 Off ch=9 n=g#5 v=127
6494 Off ch=5 n=e6 v=127
6496 Off ch=5 n=e4 v=127
6500 On ch=5 n=e5 v=127
6500 On ch=9 n=g#6 v=127
6544 Off ch=9 n=g#6 v=127
6550 On ch=11 n=a6 v=127
6594 Off ch=11 n=a6 v=127
6600 On ch=13 n=b6 v=127
6700 On ch=9 n=g#5 v=127
6800 Off ch=5 n=e5 v=127
6894 Off ch=9 n=g#5 v=127
6900 On ch=7 n=f#5 v=127
7094 Off ch=7 n=f#5 v=127
7100 On ch=5 n=e5 v=127
7100 On ch=3 n=d6 v=127
7294 Off ch=3 n=d6 v=127
7294 Off ch=5 n=e5 v=127
7300 On ch=11 n=a5 v=127
7300 On ch=2 n=c#6 v=127
7494 Off ch=2 n=c#6 v=127
7494 Off ch=11 n=a5 v=127
7494 Off ch=13 n=b6 v=127
7500 On ch=2 n=c#6 v=127
7500 On ch=11 n=a6 v=127
7694 Off ch=11 n=a6 v=127
7694 Off ch=2 n=c#6 v=127
7700 On ch=13 n=b5 v=127
7700 On ch=9 n=g#6 v=127
7894 Off ch=9 n=g#6 v=127
7894 Off ch=13 n=b5 v=127
7900 On ch=11 n=a5 v=127
7900 On ch=7 n=f#6 v=127
8094 Off ch=7 n=f#6 v=127
8094 Off ch=11 n=a5 v=127
8100 On ch=5 n=e5 v=127
8100 On ch=9 n=g#6 v=127
8144 Off ch=9 n=g#6 v=127
8150 On ch=11 n=a6 v=127
8194 Off ch=11 n=a6 v=127
8200 On ch=13 n=b6 v=127
8300 On ch=9 n=g#5 v=127
8400 Off ch=5 n=e5 v=127
8494 Off ch=9 n=g#5 v=127
8500 On ch=7 n=f#5 v=127
8694 Off ch=7 n=f#5 v=127
8700 On ch=5 n=e5 v=127
8700 On ch=3 n=d6 v=127
8894 Off ch=3 n=d6 v=127
8894 Off ch=5 n=e5 v=127
8900 On ch=11 n=a5 v=127
8900 On ch=2 n=c#6 v=127
9094 Off ch=2 n=c#6 v=127
9094 Off ch=11 n=a5 v=127
9094 Off ch=13 n=b6 v=127
9100 On ch=2 n=c#6 v=127
9100 On ch=11 n=a6 v=127
9294 Off ch=11 n=a6 v=127
9294 Off ch=2 n=c#6 v=127
9300 On ch=13 n=b5 v=127
9300 On ch=9 n=g#6 v=127
9494 Off ch=9 n=g#6 v=127
9494 Off ch=13 n=b5 v=127
9500 On ch=11 n=a5 v=127
9500 On ch=7 n=f#6 v=127
9694 Off ch=7 n=f#6 v=127
9694 Off ch=11 n=a5 v=127
9700 On ch=5 n=e5 v=127
9700 On ch=9 n=g#6 v=127
9744 Off ch=9 n=g#6 v=127
9750 On ch=11 n=a6 v=127
9794 Off ch=11 n=a6 v=127
9800 On ch=13 n=b6 v=127
9900 On ch=9 n=g#5 v=127
10000 Off ch=5 n=e5 v=127
10094 Off ch=9 n=g#5 v=127
10100 On ch=7 n=f#5 v=127
10294 Off ch=7 n=f#5 v=127
10300 On ch=5 n=e5 v=127
10300 On ch=5 n=e6 v=127
10494 Off ch=5 n=e6 v=127
10494 Off ch=5 n=e5 v=127
10500 On ch=13 n=b5 v=127
10500 On ch=4 n=d#6 v=127
10694 Off ch=4 n=d#6 v=127
10694 Off ch=13 n=b6 v=127
10700 On ch=11 n=a6 v=127
10894 Off ch=11 n=a6 v=127
10894 Off ch=13 n=b5 v=127
10900 On ch=13 n=b4 v=127
10900 On ch=9 n=g#6 v=127
11094 Off ch=9 n=g#6 v=127
11100 On ch=7 n=f#6 v=127
11294 Off ch=7 n=f#6 v=127
11294 Off ch=13 n=b4 v=127
11300 On ch=5 n=e5 v=127
11300 On ch=9 n=g#6 v=127
11394 Off ch=9 n=g#6 v=127
11400 On ch=7 n=f#6 v=127
11494 Off ch=7 n=f#6 v=127
11500 On ch=5 n=e6 v=127
11694 Off ch=5 n=e5 v=127
11700 On ch=5 n=e4 v=127
11894 Off ch=5 n=e6 v=127
11900 On ch=4 n=d#6 v=127
12094 Off ch=5 n=e4 v=127
12100 On ch=5 n=e3 v=127
12294 Off ch=4 n=d#6 v=127
12300 On ch=5 n=e6 v=127
12801 Off ch=5 n=e6 v=127
12895 Off ch=5 n=e3 v=127
12901 On ch=5 n=e5 v=127
12901 On ch=5 n=e6 v=127
12945 Off ch=5 n=e6 v=127
12951 On ch=7 n=f#6 v=127
12995 Off ch=7 n=f#6 v=127
13001 On ch=8 n=g6 v=127
13101 On ch=8 n=g5 v=127
13201 Off ch=5 n=e5 v=127
13295 Off ch=8 n=g5 v=127
13301 On ch=7 n=f#5 v=127
13495 Off ch=7 n=f#5 v=127
13501 On ch=5 n=e5 v=127
13501 On ch=13 n=b5 v=127
13695 Off ch=13 n=b5 v=127
13695 Off ch=5 n=e5 v=127
13701 On ch=11 n=a5 v=127
13701 On ch=1 n=c6 v=127
13895 Off ch=1 n=c6 v=127
13895 Off ch=11 n=a5 v=127
13895 Off ch=8 n=g6 v=127
13901 On ch=1 n=c6 v=127
13901 On ch=7 n=f#6 v=127
14095 Off ch=7 n=f#6 v=127
14095 Off ch=1 n=c6 v=127
14101 On ch=13 n=b5 v=127
14101 On ch=5 n=e6 v=127
14295 Off ch=5 n=e6 v=127
14295 Off ch=13 n=b5 v=127
14301 On ch=11 n=a5 v=127
14301 On ch=4 n=d#6 v=127
14495 Off ch=4 n=d#6 v=127
14495 Off ch=11 n=a5 v=127
14501 On ch=5 n=e5 v=127
14501 On ch=5 n=e6 v=127
14545 Off ch=5 n=e6 v=127
14551 On ch=7 n=f#6 v=127
14595 Off ch=7 n=f#6 v=127
14601 On ch=8 n=g6 v=127
14701 On ch=8 n=g5 v=127
14801 Off ch=5 n=e5 v=127
14895 Off ch=8 n=g5 v=127
14901 On ch=7 n=f#5 v=127
15095 Off ch=7 n=f#5 v=127
15101 On ch=5 n=e5 v=127
15101 On ch=13 n=b5 v=127
15295 Off ch=13 n=b5 v=127
15295 Off ch=5 n=e5 v=127
15301 On ch=11 n=a5 v=127
15301 On ch=1 n=c6 v=127
15495 Off ch=1 n=c6 v=127
15495 Off ch=11 n=a5 v=127
15495 Off ch=8 n=g6 v=127
15501 On ch=1 n=c6 v=127
15501 On ch=7 n=f#6 v=127
15695 Off ch=7 n=f#6 v=127
15695 Off ch=1 n=c6 v=127
15701 On ch=13 n=b5 v=127
15701 On ch=5 n=e6 v=127
15895 Off ch=5 n=e6 v=127
15895 Off ch=13 n=b5 v=127
15901 On ch=11 n=a5 v=127
15901 On ch=4 n=d#6 v=127
16095 Off ch=4 n=d#6 v=127
16095 Off ch=11 n=a5 v=127
16101 On ch=5 n=e5 v=127
16101 On ch=8 n=g6 v=127
16145 Off ch=8 n=g6 v=127
16151 On ch=11 n=a6 v=127
16195 Off ch=11 n=a6 v=127
16201 On ch=13 n=b6 v=127
16301 On ch=8 n=g5 v=127
16401 Off ch=5 n=e5 v=127
16495 Off ch=8 n=g5 v=127
16501 On ch=7 n=f#5 v=127
16695 Off ch=7 n=f#5 v=127
16701 On ch=5 n=e5 v=127
16701 On ch=13 n=b5 v=127
16895 Off ch=13 n=b5 v=127
16895 Off ch=5 n=e5 v=127
16901 On ch=11 n=a5 v=127
16901 On ch=1 n=c6 v=127
17095 Off ch=1 n=c6 v=127
17095 Off ch=13 n=b6 v=127
17101 On ch=7 n=f#6 v=127
17101 On ch=11 n=a6 v=127
17295 Off ch=11 n=a5 v=127
17301 On ch=11 n=a4 v=127
17495 Off ch=11 n=a6 v=127
17495 Off ch=7 n=f#6 v=127
17501 On ch=8 n=g6 v=127
17501 On ch=5 n=e6 v=127
17695 Off ch=5 n=e6 v=127
17695 Off ch=8 n=g6 v=127
17695 Off ch=11 n=a4 v=127
17701 On ch=13 n=b4 v=127
17701 On ch=13 n=b5 v=127
17701 On ch=8 n=g6 v=127
17701 On ch=5 n=e6 v=127
17795 Off ch=8 n=g6 v=127
17801 On ch=7 n=f#6 v=127
17893 Off ch=5 n=e6 v=127
17895 Off ch=7 n=f#6 v=127
17901 On ch=5 n=e6 v=127
18095 Off ch=13 n=b5 v=127
18101 On ch=13 n=b3 v=127
18300 Off ch=13 n=b4 v=127
18501 On ch=13 n=b2 v=127
18695 Off ch=5 n=e6 v=127
18701 On ch=7 n=f#6 v=127
18900 Off ch=13 n=b3 v=127
19252 Off ch=7 n=f#6 v=127
19296 Off ch=13 n=b2 v=127
19302 On ch=13 n=b5 v=127
19302 On ch=13 n=b6 v=127
19302 On ch=3 n=d6 v=127
19496 Off ch=3 n=d6 v=127
19496 Off ch=13 n=b5 v=127
19502 On ch=3 n=d6 v=127
19502 On ch=7 n=f#6 v=127
19696 Off ch=7 n=f#6 v=127
19696 Off ch=3 n=d6 v=127
19702 On ch=2 n=c#6 v=127
19702 On ch=5 n=e6 v=127
19896 Off ch=5 n=e6 v=127
19896 Off ch=2 n=c#6 v=127
19902 On ch=13 n=b5 v=127
19902 On ch=3 n=d6 v=127
20096 Off ch=3 n=d6 v=127
20096 Off ch=13 n=b5 v=127
20102 On ch=7 n=f#5 v=127
20102 On ch=2 n=c#6 v=127
20296 Off ch=2 n=c#6 v=127
20296 Off ch=7 n=f#5 v=127
20296 Off ch=13 n=b6 v=127
20302 On ch=5 n=e6 v=127
20302 On ch=8 n=g6 v=127
20302 On ch=12 n=a#6 v=127
20496 Off ch=12 n=a#6 v=127
20496 Off ch=8 n=g6 v=127
20496 Off ch=5 n=e6 v=127
20502 On ch=3 n=d6 v=127
20502 On ch=7 n=f#6 v=127
20502 On ch=13 n=b6 v=127
20696 Off ch=13 n=b6 v=127
20696 Off ch=7 n=f#6 v=127
20696 Off ch=3 n=d6 v=127
20702 On ch=2 n=c#6 v=127
20702 On ch=5 n=e6 v=127
20702 On ch=12 n=a#6 v=127
20896 Off ch=12 n=a#6 v=127
20896 Off ch=5 n=e6 v=127
20896 Off ch=2 n=c#6 v=127
20902 On ch=13 n=b5 v=127
20902 On ch=3 n=d6 v=127
20902 On ch=13 n=b6 v=127
21096 Off ch=3 n=d6 v=127
21096 Off ch=13 n=b5 v=127
21102 On ch=3 n=d6 v=127
21102 On ch=7 n=f#6 v=127
21296 Off ch=7 n=f#6 v=127
21296 Off ch=3 n=d6 v=127
21302 On ch=2 n=c#6 v=127
21302 On ch=5 n=e6 v=127
21496 Off ch=5 n=e6 v=127
21496 Off ch=2 n=c#6 v=127
21502 On ch=13 n=b5 v=127
21502 On ch=3 n=d6 v=127
21696 Off ch=3 n=d6 v=127
21696 Off ch=13 n=b5 v=127
21702 On ch=7 n=f#5 v=127
21702 On ch=2 n=c#6 v=127
21896 Off ch=2 n=c#6 v=127
21896 Off ch=7 n=f#5 v=127
21896 Off ch=13 n=b6 v=127
21902 On ch=5 n=e6 v=127
21902 On ch=8 n=g6 v=127
21902 On ch=12 n=a#6 v=127
22096 Off ch=12 n=a#6 v=127
22096 Off ch=8 n=g6 v=127
22096 Off ch=5 n=e6 v=127
22102 On ch=3 n=d6 v=127
22102 On ch=13 n=b6 v=127
22102 On ch=7 n=f#6 v=127
22296 Off ch=7 n=f#6 v=127
22296 Off ch=13 n=b6 v=127
22296 Off ch=3 n=d6 v=127
22302 On ch=2 n=c#6 v=127
22302 On ch=5 n=e6 v=127
22302 On ch=12 n=a#6 v=127
22496 Off ch=12 n=a#6 v=127
22496 Off ch=5 n=e6 v=127
22496 Off ch=2 n=c#6 v=127
22502 On ch=13 n=b5 v=127
22502 On ch=3 n=d6 v=127
22502 On ch=13 n=b6 v=127
22696 Off ch=3 n=d6 v=127
22696 Off ch=13 n=b5 v=127
22702 On ch=3 n=d6 v=127
22702 On ch=6 n=f6 v=127
22875 Off ch=13 n=b6 v=127
22896 Off ch=6 n=f6 v=127
22896 Off ch=3 n=d6 v=127
22902 On ch=1 n=c6 v=127
22902 On ch=11 n=a6 v=127
22902 On ch=5 n=e6 v=127
23096 Off ch=5 n=e6 v=127
23096 Off ch=1 n=c6 v=127
23102 On ch=13 n=b5 v=127
23102 On ch=3 n=d6 v=127
23296 Off ch=3 n=d6 v=127
23296 Off ch=13 n=b5 v=127
23302 On ch=5 n=e5 v=127
23302 On ch=13 n=b5 v=127
23496 Off ch=13 n=b5 v=127
23496 Off ch=5 n=e5 v=127
23496 Off ch=11 n=a6 v=127
23502 On ch=3 n=d6 v=127
23502 On ch=6 n=f6 v=127
23502 On ch=9 n=g#6 v=127
23696 Off ch=9 n=g#6 v=127
23696 Off ch=6 n=f6 v=127
23696 Off ch=3 n=d6 v=127
23702 On ch=1 n=c6 v=127
23702 On ch=11 n=a6 v=127
23702 On ch=5 n=e6 v=127
23896 Off ch=5 n=e6 v=127
23896 Off ch=11 n=a6 v=127
23896 Off ch=1 n=c6 v=127
23902 On ch=13 n=b5 v=127
23902 On ch=9 n=g#6 v=127
23902 On ch=3 n=d6 v=127
24096 Off ch=3 n=d6 v=127
24096 Off ch=9 n=g#6 v=127
24096 Off ch=13 n=b5 v=127
24102 On ch=11 n=a5 v=127
24102 On ch=11 n=a6 v=127
24102 On ch=1 n=c6 v=127
24296 Off ch=1 n=c6 v=127
24296 Off ch=11 n=a5 v=127
24302 On ch=1 n=c6 v=127
24302 On ch=5 n=e6 v=127
24496 Off ch=5 n=e6 v=127
24496 Off ch=1 n=c6 v=127
24502 On ch=13 n=b5 v=127
24502 On ch=3 n=d6 v=127
24696 Off ch=3 n=d6 v=127
24696 Off ch=13 n=b5 v=127
24702 On ch=11 n=a5 v=127
24702 On ch=1 n=c6 v=127
24896 Off ch=1 n=c6 v=127
24896 Off ch=11 n=a5 v=127
24902 On ch=5 n=e5 v=127
24902 On ch=13 n=b5 v=127
25096 Off ch=13 n=b5 v=127
25096 Off ch=5 n=e5 v=127
25096 Off ch=11 n=a6 v=127
25102 On ch=3 n=d6 v=127
25102 On ch=9 n=g#6 v=127
25102 On ch=6 n=f6 v=127
25296 Off ch=6 n=f6 v=127
25296 Off ch=9 n=g#6 v=127
25296 Off ch=3 n=d6 v=127
25302 On ch=1 n=c6 v=127
25302 On ch=5 n=e6 v=127
25302 On ch=11 n=a6 v=127
25496 Off ch=11 n=a6 v=127
25496 Off ch=5 n=e6 v=127
25496 Off ch=1 n=c6 v=127
25502 On ch=13 n=b5 v=127
25502 On ch=9 n=g#6 v=127
25502 On ch=3 n=d6 v=127
25696 Off ch=3 n=d6 v=127
25696 Off ch=9 n=g#6 v=127
25696 Off ch=13 n=b5 v=127
25702 On ch=11 n=a5 v=127
25702 On ch=11 n=a6 v=127
25702 On ch=1 n=c6 v=127
25896 Off ch=1 n=c6 v=127
25896 Off ch=11 n=a5 v=127
25902 On ch=1 n=c6 v=127
25902 On ch=5 n=e6 v=127
26096 Off ch=5 n=e6 v=127
26096 Off ch=1 n=c6 v=127
26102 On ch=13 n=b5 v=127
26102 On ch=3 n=d6 v=127
26296 Off ch=3 n=d6 v=127
26296 Off ch=13 n=b5 v=127
26302 On ch=11 n=a5 v=127
26302 On ch=1 n=c6 v=127
26496 Off ch=1 n=c6 v=127
26496 Off ch=11 n=a5 v=127
26502 On ch=5 n=e5 v=127
26502 On ch=13 n=b5 v=127
26696 Off ch=13 n=b5 v=127
26696 Off ch=5 n=e5 v=127
26696 Off ch=11 n=a6 v=127
26702 On ch=3 n=d6 v=127
26702 On ch=6 n=f6 v=127
26702 On ch=9 n=g#6 v=127
26896 Off ch=9 n=g#6 v=127
26896 Off ch=6 n=f6 v=127
26896 Off ch=3 n=d6 v=127
26902 On ch=1 n=c6 v=127
26902 On ch=11 n=a6 v=127
26902 On ch=5 n=e6 v=127
27096 Off ch=5 n=e6 v=127
27096 Off ch=11 n=a6 v=127
27096 Off ch=1 n=c6 v=127
27102 On ch=13 n=b5 v=127
27102 On ch=13 n=b6 v=127
27102 On ch=3 n=d6 v=127
27296 Off ch=3 n=d6 v=127
27296 Off ch=13 n=b6 v=127
27296 Off ch=13 n=b5 v=127
27302 On ch=11 n=a5 v=127
27302 On ch=1 n=c7 v=127
27502 On ch=5 n=e6 v=127
27696 Off ch=5 n=e6 v=127
27702 On ch=4 n=d#6 v=127
27896 Off ch=4 n=d#6 v=127
27902 On ch=5 n=e6 v=127
28096 Off ch=11 n=a5 v=127
28101 Off ch=1 n=c7 v=127
28102 On ch=11 n=a4 v=127
28102 On ch=1 n=c7 v=127
28196 Off ch=1 n=c7 v=127
28202 Off ch=5 n=e6 v=127
28202 On ch=13 n=b6 v=127
28296 Off ch=13 n=b6 v=127
28302 On ch=11 n=a6 v=127
28396 Off ch=11 n=a6 v=127
28402 On ch=8 n=g6 v=127
28496 Off ch=8 n=g6 v=127
28496 Off ch=11 n=a4 v=127
28502 On ch=11 n=a5 v=127
28502 On ch=7 n=f#6 v=127
28696 Off ch=7 n=f#6 v=127
28702 On ch=5 n=e6 v=127
28896 Off ch=5 n=e6 v=127
28896 Off ch=11 n=a5 v=127
28902 On ch=13 n=b4 v=127
28902 On ch=13 n=b6 v=127
29096 Off ch=13 n=b6 v=127
29102 On ch=4 n=d#6 v=127
29102 On ch=13 n=b5 v=127
29296 Off ch=13 n=b5 v=127
29296 Off ch=4 n=d#6 v=127
29302 On ch=4 n=d#6 v=127
29302 On ch=13 n=b5 v=127
29346 Off ch=13 n=b5 v=127
29346 Off ch=4 n=d#6 v=127
29352 On ch=2 n=c#6 v=127
29352 On ch=11 n=a5 v=127
29396 Off ch=11 n=a5 v=127
29396 Off ch=2 n=c#6 v=127
29402 On ch=13 n=b5 v=127
29402 On ch=4 n=d#6 v=127
29446 Off ch=4 n=d#6 v=127
29446 Off ch=13 n=b5 v=127
29452 On ch=11 n=a5 v=127
29452 On ch=2 n=c#6 v=127
29496 Off ch=2 n=c#6 v=127
29496 Off ch=11 n=a5 v=127
29502 On ch=9 n=g#5 v=127
29502 On ch=13 n=b5 v=127
29696 Off ch=13 n=b5 v=127
29696 Off ch=9 n=g#5 v=127
29696 Off ch=13 n=b4 v=127
29702 On ch=13 n=b4 v=127
29702 On ch=11 n=a6 v=127
29896 Off ch=11 n=a6 v=127
29902 On ch=2 n=c#6 v=127
29902 On ch=11 n=a5 v=127
30096 Off ch=11 n=a5 v=127
30096 Off ch=2 n=c#6 v=127
30102 On ch=2 n=c#6 v=127
30102 On ch=11 n=a5 v=127
30146 Off ch=11 n=a5 v=127
30146 Off ch=2 n=c#6 v=127
30152 On ch=9 n=g#5 v=127
30152 On ch=13 n=b5 v=127
30196 Off ch=13 n=b5 v=127
30196 Off ch=9 n=g#5 v=127
30202 On ch=2 n=c#6 v=127
30202 On ch=11 n=a5 v=127
30246 Off ch=11 n=a5 v=127
30246 Off ch=2 n=c#6 v=127
30252 On ch=9 n=g#5 v=127
30252 On ch=13 n=b5 v=127
30296 Off ch=13 n=b5 v=127
30296 Off ch=9 n=g#5 v=127
30302 On ch=11 n=a5 v=127
30302 On ch=7 n=f#5 v=127
30496 Off ch=7 n=f#5 v=127
30496 Off ch=11 n=a5 v=127
30496 Off ch=13 n=b4 v=127
30502 On ch=13 n=b4 v=127
30502 On ch=9 n=g#6 v=127
30696 Off ch=9 n=g#6 v=127
30702 On ch=13 n=b5 v=127
30702 On ch=9 n=g#5 v=127
30896 Off ch=9 n=g#5 v=127
30896 Off ch=13 n=b5 v=127
30902 On ch=13 n=b5 v=127
30902 On ch=9 n=g#5 v=127
30946 Off ch=9 n=g#5 v=127
30946 Off ch=13 n=b5 v=127
30952 On ch=7 n=f#5 v=127
30952 On ch=11 n=a5 v=127
30996 Off ch=11 n=a5 v=127
30996 Off ch=7 n=f#5 v=127
31002 On ch=9 n=g#5 v=127
31002 On ch=13 n=b5 v=127
31046 Off ch=13 n=b5 v=127
31046 Off ch=9 n=g#5 v=127
31052 On ch=11 n=a5 v=127
31052 On ch=7 n=f#5 v=127
31096 Off ch=7 n=f#5 v=127
31096 Off ch=11 n=a5 v=127
31102 On ch=9 n=g#5 v=127
31102 On ch=5 n=e5 v=127
31296 Off ch=5 n=e5 v=127
31296 Off ch=9 n=g#5 v=127
31296 Off ch=13 n=b4 v=127
31302 On ch=13 n=b4 v=127
31302 On ch=7 n=f#6 v=127
31496 Off ch=7 n=f#6 v=127
31502 On ch=11 n=a5 v=127
31502 On ch=7 n=f#5 v=127
31696 Off ch=7 n=f#5 v=127
31696 Off ch=11 n=a5 v=127
31702 On ch=7 n=f#5 v=127
31702 On ch=11 n=a5 v=127
31746 Off ch=11 n=a5 v=127
31746 Off ch=7 n=f#5 v=127
31752 On ch=9 n=g#5 v=127
31752 On ch=5 n=e5 v=127
31796 Off ch=5 n=e5 v=127
31796 Off ch=9 n=g#5 v=127
31802 On ch=7 n=f#5 v=127
31802 On ch=11 n=a5 v=127
31846 Off ch=11 n=a5 v=127
31846 Off ch=7 n=f#5 v=127
31852 On ch=9 n=g#5 v=127
31852 On ch=5 n=e5 v=127
31896 Off ch=5 n=e5 v=127
31896 Off ch=9 n=g#5 v=127
31902 On ch=4 n=d#5 v=127
31902 On ch=7 n=f#5 v=127
32096 Off ch=7 n=f#5 v=127
32096 Off ch=4 n=d#5 v=127
32096 Off ch=13 n=b4 v=127
32102 On ch=5 n=e5 v=127
32102 On ch=9 n=g#5 v=127
32196 Off ch=9 n=g#5 v=127
32196 Off ch=5 n=e5 v=127
32202 On ch=7 n=f#5 v=127
32202 On ch=11 n=a5 v=127
32296 Off ch=11 n=a5 v=127
32296 Off ch=7 n=f#5 v=127
32302 On ch=13 n=b5 v=127
32302 On ch=9 n=g#5 v=127
32396 Off ch=9 n=g#5 v=127
32396 Off ch=13 n=b5 v=127
32402 On ch=2 n=c#6 v=127
32402 On ch=11 n=a5 v=127
32496 Off ch=11 n=a5 v=127
32496 Off ch=2 n=c#6 v=127
32502 On ch=13 n=b5 v=127
32502 On ch=4 n=d#6 v=127
32596 Off ch=4 n=d#6 v=127
32596 Off ch=13 n=b5 v=127
32602 On ch=11 n=a5 v=127
32602 On ch=2 n=c#6 v=127
32696 Off ch=2 n=c#6 v=127
32696 Off ch=11 n=a5 v=127
32702 On ch=13 n=b5 v=127
32702 On ch=9 n=g#5 v=127
32796 Off ch=9 n=g#5 v=127
32796 Off ch=13 n=b5 v=127
32802 On ch=7 n=f#5 v=127
32802 On ch=11 n=a5 v=127
32896 Off ch=11 n=a5 v=127
32896 Off ch=7 n=f#5 v=127
32902 On ch=9 n=g#5 v=127
32902 On ch=13 n=b5 v=127
32996 Off ch=13 n=b5 v=127
32996 Off ch=9 n=g#5 v=127
33002 On ch=2 n=c#6 v=127
33002 On ch=11 n=a5 v=127
33096 Off ch=11 n=a5 v=127
33096 Off ch=2 n=c#6 v=127
33102 On ch=4 n=d#6 v=127
33102 On ch=13 n=b5 v=127
33196 Off ch=13 n=b5 v=127
33196 Off ch=4 n=d#6 v=127
33202 On ch=2 n=c#6 v=127
33202 On ch=5 n=e6 v=127
33296 Off ch=5 n=e6 v=127
33296 Off ch=2 n=c#6 v=127
33302 On ch=7 n=f#6 v=127
33302 On ch=4 n=d#6 v=127
33396 Off ch=4 n=d#6 v=127
33396 Off ch=7 n=f#6 v=127
33402 On ch=2 n=c#6 v=127
33402 On ch=5 n=e6 v=127
33496 Off ch=5 n=e6 v=127
33496 Off ch=2 n=c#6 v=127
33502 On ch=4 n=d#6 v=127
33502 On ch=13 n=b5 v=127
33596 Off ch=13 n=b5 v=127
33596 Off ch=4 n=d#6 v=127
33602 On ch=2 n=c#6 v=127
33602 On ch=11 n=a5 v=127
33696 Off ch=11 n=a5 v=127
33696 Off ch=2 n=c#6 v=127
33702 On ch=13 n=b5 v=127
33702 On ch=4 n=d#6 v=127
33796 Off ch=4 n=d#6 v=127
33796 Off ch=13 n=b5 v=127
33802 On ch=5 n=e6 v=127
33802 On ch=2 n=c#6 v=127
33896 Off ch=2 n=c#6 v=127
33896 Off ch=5 n=e6 v=127
33902 On ch=7 n=f#6 v=127
33902 On ch=4 n=d#6 v=127
33996 Off ch=4 n=d#6 v=127
33996 Off ch=7 n=f#6 v=127
34002 On ch=9 n=g#6 v=127
34002 On ch=5 n=e6 v=127
34096 Off ch=5 n=e6 v=127
34096 Off ch=9 n=g#6 v=127
34102 On ch=11 n=a6 v=127
34102 On ch=7 n=f#6 v=127
34196 Off ch=7 n=f#6 v=127
34196 Off ch=11 n=a6 v=127
34202 On ch=5 n=e6 v=127
34202 On ch=9 n=g#6 v=127
34296 Off ch=9 n=g#6 v=127
34296 Off ch=5 n=e6 v=127
34302 On ch=7 n=f#6 v=127
34302 On ch=4 n=d#6 v=127
34396 Off ch=4 n=d#6 v=127
34396 Off ch=7 n=f#6 v=127
34402 On ch=5 n=e6 v=127
34402 On ch=2 n=c#6 v=127
34496 Off ch=2 n=c#6 v=127
34496 Off ch=5 n=e6 v=127
34502 On ch=7 n=f#6 v=127
34502 On ch=4 n=d#6 v=127
34596 Off ch=4 n=d#6 v=127
34596 Off ch=7 n=f#6 v=127
34602 On ch=2 n=c#6 v=127
34602 On ch=5 n=e6 v=127
34696 Off ch=5 n=e6 v=127
34696 Off ch=2 n=c#6 v=127
34702 On ch=4 n=d#6 v=127
34702 On ch=7 n=f#6 v=127
34796 Off ch=7 n=f#6 v=127
34796 Off ch=4 n=d#6 v=127
34802 On ch=9 n=g#6 v=127
34802 On ch=13 n=b5 v=127
34896 Off ch=13 n=b5 v=127
34896 Off ch=9 n=g#6 v=127
34902 On ch=2 n=c#6 v=127
34902 On ch=5 n=e6 v=127
34996 Off ch=5 n=e6 v=127
34996 Off ch=2 n=c#6 v=127
35002 On ch=4 n=d#6 v=127
35002 On ch=13 n=b5 v=127
35096 Off ch=13 n=b5 v=127
35096 Off ch=4 n=d#6 v=127
35102 On ch=5 n=e6 v=127
35102 On ch=2 n=c#6 v=127
35196 Off ch=2 n=c#6 v=127
35196 Off ch=5 n=e6 v=127
35202 On ch=7 n=f#5 v=127
35202 On ch=7 n=f#6 v=127
35296 Off ch=7 n=f#6 v=127
35296 Off ch=7 n=f#5 v=127
35302 On ch=4 n=d#6 v=127
35302 On ch=13 n=b5 v=127
35396 Off ch=13 n=b5 v=127
35396 Off ch=4 n=d#6 v=127
35402 On ch=5 n=e6 v=127
35402 On ch=2 n=c#6 v=127
35496 Off ch=2 n=c#6 v=127
35496 Off ch=5 n=e6 v=127
35502 On ch=7 n=f#6 v=127
35502 On ch=4 n=d#6 v=127
35596 Off ch=4 n=d#6 v=127
35596 Off ch=7 n=f#6 v=127
35602 On ch=4 n=d#6 v=127
35602 On ch=13 n=b5 v=127
35696 Off ch=13 n=b5 v=127
35696 Off ch=4 n=d#6 v=127
35702 On ch=5 n=e6 v=127
35702 On ch=2 n=c#6 v=127
35796 Off ch=2 n=c#6 v=127
35796 Off ch=5 n=e6 v=127
35802 On ch=4 n=d#6 v=127
35802 On ch=13 n=b5 v=127
35896 Off ch=13 n=b5 v=127
35896 Off ch=4 n=d#6 v=127
35902 On ch=2 n=c#6 v=127
35902 On ch=5 n=e6 v=127
35996 Off ch=5 n=e6 v=127
35996 Off ch=2 n=c#6 v=127
36002 On ch=7 n=f#6 v=127
36002 On ch=7 n=f#5 v=127
36096 Off ch=7 n=f#5 v=127
36096 Off ch=7 n=f#6 v=127
36102 On ch=4 n=d#6 v=127
36102 On ch=13 n=b5 v=127
36196 Off ch=13 n=b5 v=127
36196 Off ch=4 n=d#6 v=127
36202 On ch=2 n=c#6 v=127
36202 On ch=5 n=e6 v=127
36296 Off ch=5 n=e6 v=127
36296 Off ch=2 n=c#6 v=127
36302 On ch=4 n=d#6 v=127
36302 On ch=7 n=f#6 v=127
36396 Off ch=7 n=f#6 v=127
36396 Off ch=4 n=d#6 v=127
36402 On ch=4 n=d#6 v=127
36402 On ch=13 n=b5 v=127
36496 Off ch=13 n=b5 v=127
36496 Off ch=4 n=d#6 v=127
36502 On ch=2 n=c#6 v=127
36502 On ch=5 n=e6 v=127
36596 Off ch=5 n=e6 v=127
36596 Off ch=2 n=c#6 v=127
36602 On ch=4 n=d#6 v=127
36602 On ch=13 n=b5 v=127
36696 Off ch=13 n=b5 v=127
36696 Off ch=4 n=d#6 v=127
36702 On ch=5 n=e6 v=127
36702 On ch=2 n=c#6 v=127
36796 Off ch=2 n=c#6 v=127
36796 Off ch=5 n=e6 v=127
36802 On ch=7 n=f#5 v=127
36802 On ch=7 n=f#6 v=127
36896 Off ch=7 n=f#6 v=127
36896 Off ch=7 n=f#5 v=127
36902 On ch=13 n=b5 v=127
36902 On ch=13 n=b6 v=127
37096 Off ch=13 n=b5 v=127
37102 On ch=13 n=b5 v=127
37296 Off ch=13 n=b5 v=127
37302 On ch=13 n=b5 v=127
37496 Off ch=13 n=b5 v=127
37496 Off ch=13 n=b6 v=127
37502 On ch=13 n=b5 v=127
37502 On ch=11 n=a6 v=127
37696 Off ch=11 n=a6 v=127
37696 Off ch=13 n=b5 v=127
37702 On ch=13 n=b5 v=127
37702 On ch=9 n=g#6 v=127
37896 Off ch=9 n=g#6 v=127
37896 Off ch=13 n=b5 v=127
37902 On ch=13 n=b5 v=127
37902 On ch=6 n=f6 v=127
38096 Off ch=6 n=f6 v=127
38096 Off ch=13 n=b5 v=127
38102 On ch=13 n=b5 v=127
38102 On ch=5 n=e6 v=127
38296 Off ch=5 n=e6 v=127
38296 Off ch=13 n=b5 v=127
38302 On ch=13 n=b5 v=127
38302 On ch=3 n=d6 v=127
38496 Off ch=3 n=d6 v=127
38496 Off ch=13 n=b5 v=127
38502 On ch=13 n=b5 v=127
38502 On ch=1 n=c6 v=127
38502 On ch=13 n=b6 v=127
38696 Off ch=13 n=b6 v=127
38696 Off ch=1 n=c6 v=127
38696 Off ch=13 n=b5 v=127
38702 On ch=1 n=c6 v=127
38702 On ch=11 n=a5 v=127
38702 On ch=1 n=c7 v=127
38896 Off ch=1 n=c7 v=127
38896 Off ch=11 n=a5 v=127
38896 Off ch=1 n=c6 v=127
38902 On ch=11 n=a5 v=127
38902 On ch=1 n=c6 v=127
38902 On ch=9 n=g#6 v=127
39096 Off ch=9 n=g#6 v=127
39096 Off ch=1 n=c6 v=127
39096 Off ch=11 n=a5 v=127
39102 On ch=11 n=a5 v=127
39102 On ch=1 n=c6 v=127
39102 On ch=11 n=a6 v=127
39296 Off ch=11 n=a6 v=127
39296 Off ch=1 n=c6 v=127
39296 Off ch=11 n=a5 v=127
39302 On ch=11 n=a5 v=127
39302 On ch=1 n=c6 v=127
39302 On ch=5 n=e6 v=127
39496 Off ch=5 n=e6 v=127
39496 Off ch=1 n=c6 v=127
39496 Off ch=11 n=a5 v=127
39502 On ch=11 n=a5 v=127
39502 On ch=1 n=c6 v=127
39502 On ch=6 n=f6 v=127
39696 Off ch=6 n=f6 v=127
39696 Off ch=1 n=c6 v=127
39696 Off ch=11 n=a5 v=127
39702 On ch=11 n=a5 v=127
39702 On ch=1 n=c6 v=127
39702 On ch=4 n=d#6 v=127
39896 Off ch=4 n=d#6 v=127
39896 Off ch=1 n=c6 v=127
39896 Off ch=11 n=a5 v=127
39902 On ch=1 n=c6 v=127
39902 On ch=11 n=a5 v=127
39902 On ch=5 n=e6 v=127
40096 Off ch=5 n=e6 v=127
40096 Off ch=11 n=a5 v=127
40096 Off ch=1 n=c6 v=127
40102 On ch=11 n=a5 v=127
40102 On ch=13 n=b5 v=127
40102 On ch=12 n=a#6 v=127
40296 Off ch=12 n=a#6 v=127
40296 Off ch=13 n=b5 v=127
40296 Off ch=11 n=a5 v=127
40302 On ch=8 n=g5 v=127
40302 On ch=13 n=b5 v=127
40302 On ch=13 n=b6 v=127
40496 Off ch=13 n=b6 v=127
40496 Off ch=13 n=b5 v=127
40496 Off ch=8 n=g5 v=127
40502 On ch=13 n=b5 v=127
40502 On ch=8 n=g5 v=127
40502 On ch=7 n=f#6 v=127
40696 Off ch=7 n=f#6 v=127
40696 Off ch=8 n=g5 v=127
40696 Off ch=13 n=b5 v=127
40702 On ch=8 n=g5 v=127
40702 On ch=13 n=b5 v=127
40702 On ch=8 n=g6 v=127
40896 Off ch=8 n=g6 v=127
40896 Off ch=13 n=b5 v=127
40896 Off ch=8 n=g5 v=127
40902 On ch=8 n=g5 v=127
40902 On ch=13 n=b5 v=127
40902 On ch=4 n=d#6 v=127
41096 Off ch=4 n=d#6 v=127
41096 Off ch=13 n=b5 v=127
41096 Off ch=8 n=g5 v=127
41102 On ch=8 n=g5 v=127
41102 On ch=13 n=b5 v=127
41102 On ch=5 n=e6 v=127
41296 Off ch=5 n=e6 v=127
41296 Off ch=13 n=b5 v=127
41296 Off ch=8 n=g5 v=127
41302 On ch=8 n=g5 v=127
41302 On ch=13 n=b5 v=127
41496 Off ch=13 n=b5 v=127
41496 Off ch=8 n=g5 v=127
41502 On ch=8 n=g5 v=127
41502 On ch=1 n=c6 v=127
41696 Off ch=1 n=c6 v=127
41696 Off ch=8 n=g5 v=127
41702 On ch=8 n=g5 v=127
41702 On ch=11 n=a5 v=127
41702 On ch=9 n=g#6 v=127
41896 Off ch=9 n=g#6 v=127
41896 Off ch=11 n=a5 v=127
41896 Off ch=8 n=g5 v=127
41902 On ch=7 n=f#5 v=127
41902 On ch=11 n=a5 v=127
41902 On ch=11 n=a6 v=127
42096 Off ch=11 n=a6 v=127
42096 Off ch=11 n=a5 v=127
42096 Off ch=7 n=f#5 v=127
42102 On ch=7 n=f#5 v=127
42102 On ch=11 n=a5 v=127
42102 On ch=5 n=e6 v=127
42296 Off ch=5 n=e6 v=127
42296 Off ch=11 n=a5 v=127
42296 Off ch=7 n=f#5 v=127
42302 On ch=7 n=f#5 v=127
42302 On ch=11 n=a5 v=127
42302 On ch=7 n=f#6 v=127
42496 Off ch=7 n=f#6 v=127
42496 Off ch=11 n=a5 v=127
42496 Off ch=7 n=f#5 v=127
42502 On ch=7 n=f#5 v=127
42502 On ch=11 n=a5 v=127
42502 On ch=2 n=c#6 v=127
42696 Off ch=2 n=c#6 v=127
42696 Off ch=11 n=a5 v=127
42696 Off ch=7 n=f#5 v=127
42702 On ch=7 n=f#5 v=127
42702 On ch=11 n=a5 v=127
42702 On ch=5 n=e6 v=127
42896 Off ch=5 n=e6 v=127
42896 Off ch=11 n=a5 v=127
42896 Off ch=7 n=f#5 v=127
42902 On ch=11 n=a5 v=127
42902 On ch=7 n=f#5 v=127
42902 On ch=4 n=d#6 v=127
43096 Off ch=4 n=d#6 v=127
43096 Off ch=7 n=f#5 v=127
43096 Off ch=11 n=a5 v=127
43102 On ch=7 n=f#5 v=127
43102 On ch=11 n=a5 v=127
43102 On ch=7 n=f#6 v=127
43296 Off ch=7 n=f#6 v=127
43296 Off ch=11 n=a5 v=127
43296 Off ch=7 n=f#5 v=127
43302 On ch=5 n=e5 v=127
43302 On ch=8 n=g6 v=127
43396 Off ch=8 n=g6 v=127
43402 On ch=13 n=b5 v=127
43496 Off ch=13 n=b5 v=127
43496 Off ch=5 n=e5 v=127
43502 On ch=4 n=d#5 v=127
43502 On ch=1 n=c6 v=127
43596 Off ch=1 n=c6 v=127
43602 On ch=3 n=d6 v=127
43696 Off ch=4 n=d#5 v=127
43702 On ch=5 n=e5 v=127
43765 Off ch=3 n=d6 v=127
43769 On ch=1 n=c6 v=127
43832 Off ch=1 n=c6 v=127
43836 On ch=3 n=d6 v=127
43897 Off ch=5 n=e5 v=127
43899 Off ch=3 n=d6 v=127
43903 On ch=7 n=f#5 v=127
43903 On ch=1 n=c6 v=127
43966 Off ch=1 n=c6 v=127
43970 On ch=13 n=b5 v=127
44033 Off ch=13 n=b5 v=127
44037 On ch=12 n=a#5 v=127
44098 Off ch=7 n=f#5 v=127
44100 Off ch=12 n=a#5 v=127
44104 On ch=8 n=g5 v=127
44104 On ch=13 n=b5 v=127
44167 Off ch=13 n=b5 v=127
44171 On ch=2 n=c#6 v=127
44234 Off ch=2 n=c#6 v=127
44238 On ch=3 n=d6 v=127
44299 Off ch=8 n=g5 v=127
44301 Off ch=3 n=d6 v=127
44305 On ch=7 n=f#5 v=127
44305 On ch=5 n=e6 v=127
44399 Off ch=5 n=e6 v=127
44405 On ch=7 n=f#6 v=127
44499 Off ch=7 n=f#5 v=127
44505 On ch=8 n=g5 v=127
44572 Off ch=7 n=f#6 v=127
44572 On ch=5 n=e6 v=127
44635 Off ch=5 n=e6 v=127
44639 On ch=7 n=f#6 v=127
44700 Off ch=8 n=g5 v=127
44702 Off ch=7 n=f#6 v=127
44706 On ch=11 n=a5 v=127
44706 On ch=5 n=e6 v=127
44769 Off ch=5 n=e6 v=127
44773 On ch=3 n=d6 v=127
44836 Off ch=3 n=d6 v=127
44840 On ch=2 n=c#6 v=127
44901 Off ch=11 n=a5 v=127
44903 Off ch=2 n=c#6 v=127
44907 On ch=13 n=b5 v=127
44907 On ch=3 n=d6 v=127
44970 Off ch=3 n=d6 v=127
44974 On ch=5 n=e6 v=127
45037 Off ch=5 n=e6 v=127
45041 On ch=7 n=f#6 v=127
45102 Off ch=13 n=b5 v=127
45104 Off ch=7 n=f#6 v=127
45108 On ch=11 n=a5 v=127
45108 On ch=8 n=g6 v=127
45202 Off ch=8 n=g6 v=127
45208 On ch=11 n=a6 v=127
45302 Off ch=11 n=a5 v=127
45308 On ch=13 n=b5 v=127
45375 Off ch=11 n=a6 v=127
45375 On ch=8 n=g6 v=127
45438 Off ch=8 n=g6 v=127
45442 On ch=11 n=a6 v=127
45503 Off ch=13 n=b5 v=127
45505 Off ch=11 n=a6 v=127
45509 On ch=2 n=c#6 v=127
45509 On ch=8 n=g6 v=127
45572 Off ch=8 n=g6 v=127
45576 On ch=7 n=f#6 v=127
45639 Off ch=7 n=f#6 v=127
45643 On ch=5 n=e6 v=127
45704 Off ch=2 n=c#6 v=127
45706 Off ch=5 n=e6 v=127
45710 On ch=3 n=d6 v=127
45710 On ch=7 n=f#6 v=127
45804 Off ch=7 n=f#6 v=127
45810 On ch=9 n=g#6 v=127
45904 Off ch=9 n=g#6 v=127
45904 Off ch=3 n=d6 v=127
45910 On ch=2 n=c#6 v=127
45910 On ch=12 n=a#6 v=127
46004 Off ch=12 n=a#6 v=127
46010 On ch=13 n=b6 v=127
46104 Off ch=2 n=c#6 v=127
46110 On ch=3 n=d6 v=127
46177 Off ch=13 n=b6 v=127
46177 On ch=12 n=a#6 v=127
46240 Off ch=12 n=a#6 v=127
46244 On ch=13 n=b6 v=127
46305 Off ch=3 n=d6 v=127
46307 Off ch=13 n=b6 v=127
46311 On ch=5 n=e6 v=127
46311 On ch=12 n=a#6 v=127
46405 Off ch=12 n=a#6 v=127
46411 On ch=9 n=g#6 v=127
46505 Off ch=9 n=g#6 v=127
46505 Off ch=5 n=e6 v=127
46511 On ch=7 n=f#6 v=127
46511 On ch=12 n=a#6 v=127
46605 Off ch=12 n=a#6 v=127
46605 Off ch=7 n=f#6 v=127
46611 On ch=5 n=e6 v=127
46611 On ch=9 n=g#6 v=127
46705 Off ch=9 n=g#6 v=127
46705 Off ch=5 n=e6 v=127
46711 On ch=4 n=d#6 v=127
46711 On ch=7 n=f#6 v=127
46805 Off ch=7 n=f#6 v=127
46805 Off ch=4 n=d#6 v=127
46811 On ch=2 n=c#6 v=127
46811 On ch=5 n=e6 v=127
46905 Off ch=5 n=e6 v=127
46905 Off ch=2 n=c#6 v=127
46911 On ch=13 n=b5 v=127
46911 On ch=4 n=d#6 v=127
47005 Off ch=4 n=d#6 v=127
47005 Off ch=13 n=b5 v=127
47011 On ch=12 n=a#5 v=127
47011 On ch=2 n=c#6 v=127
47105 Off ch=2 n=c#6 v=127
47105 Off ch=12 n=a#5 v=127
47111 On ch=9 n=g#5 v=127
47111 On ch=13 n=b5 v=127
47205 Off ch=13 n=b5 v=127
47205 Off ch=9 n=g#5 v=127
47211 On ch=7 n=f#5 v=127
47211 On ch=12 n=a#5 v=127
47305 Off ch=12 n=a#5 v=127
47305 Off ch=7 n=f#5 v=127
47311 On ch=9 n=g#5 v=127
47311 On ch=13 n=b5 v=127
47405 Off ch=13 n=b5 v=127
47411 On ch=2 n=c#6 v=127
47505 Off ch=2 n=c#6 v=127
47505 Off ch=9 n=g#5 v=127
47511 On ch=9 n=g#5 v=127
47511 On ch=4 n=d#6 v=127
47605 Off ch=4 n=d#6 v=127
47611 On ch=5 n=e6 v=127
47705 Off ch=5 n=e6 v=127
47705 Off ch=9 n=g#5 v=127
47711 On ch=12 n=a#5 v=127
47711 On ch=7 n=f#6 v=127
47805 Off ch=7 n=f#6 v=127
47811 On ch=4 n=d#6 v=127
47905 Off ch=4 n=d#6 v=127
47905 Off ch=12 n=a#5 v=127
47911 On ch=7 n=f#5 v=127
47911 On ch=5 n=e6 v=127
48005 Off ch=5 n=e6 v=127
48011 On ch=2 n=c#6 v=127
48105 Off ch=2 n=c#6 v=127
48105 Off ch=7 n=f#5 v=127
48111 On ch=13 n=b5 v=127
48111 On ch=4 n=d#6 v=127
48205 Off ch=4 n=d#6 v=127
48205 Off ch=13 n=b5 v=127
48211 On ch=13 n=b5 v=127
48305 Off ch=13 n=b5 v=127
48311 On ch=5 n=e5 v=127
48311 On ch=5 n=e6 v=127
48405 Off ch=5 n=e6 v=127
48411 On ch=2 n=c#6 v=127
48505 Off ch=2 n=c#6 v=127
48505 Off ch=5 n=e5 v=127
48511 On ch=7 n=f#5 v=127
48511 On ch=4 n=d#6 v=127
48605 Off ch=4 n=d#6 v=127
48611 On ch=13 n=b5 v=127
48705 Off ch=13 n=b5 v=127
48705 Off ch=7 n=f#5 v=127
48711 On ch=7 n=f#4 v=127
48711 On ch=2 n=c#6 v=127
48805 Off ch=2 n=c#6 v=127
48811 On ch=12 n=a#5 v=127
48905 Off ch=12 n=a#5 v=127
48905 Off ch=7 n=f#4 v=127
48911 On ch=13 n=b3 v=127
48911 On ch=13 n=b6 v=127
49005 Off ch=13 n=b6 v=127
49011 On ch=7 n=f#6 v=127
49105 Off ch=7 n=f#6 v=127
49111 On ch=4 n=d#6 v=127
49205 Off ch=4 n=d#6 v=127
49211 On ch=13 n=b5 v=127
49305 Off ch=13 n=b5 v=127
49305 Off ch=13 n=b3 v=127
49311 On ch=13 n=b3 v=127
49311 On ch=7 n=f#6 v=127
49405 Off ch=7 n=f#6 v=127
49411 On ch=4 n=d#6 v=127
49505 Off ch=4 n=d#6 v=127
49511 On ch=13 n=b5 v=127
49605 Off ch=13 n=b5 v=127
49611 On ch=7 n=f#5 v=127
49705 Off ch=7 n=f#5 v=127
49705 Off ch=13 n=b3 v=127
49711 On ch=13 n=b3 v=127
49711 On ch=4 n=d#6 v=127
49805 Off ch=4 n=d#6 v=127
49811 On ch=13 n=b5 v=127
49905 Off ch=13 n=b5 v=127
49911 On ch=7 n=f#5 v=127
50005 Off ch=7 n=f#5 v=127
50011 On ch=4 n=d#5 v=127
50105 Off ch=4 n=d#5 v=127
50105 Off ch=13 n=b3 v=127
50111 On ch=13 n=b3 v=127
50111 On ch=13 n=b5 v=127
50205 Off ch=13 n=b5 v=127
50211 On ch=7 n=f#5 v=127
50305 Off ch=7 n=f#5 v=127
50311 On ch=4 n=d#5 v=127
50405 Off ch=4 n=d#5 v=127
50411 On ch=13 n=b4 v=127
50505 Off ch=13 n=b4 v=127
50505 Off ch=13 n=b3 v=127
50511 On ch=13 n=b3 v=127
50511 On ch=2 n=c#5 v=127
50555 Off ch=2 n=c#5 v=127
50561 On ch=13 n=b4 v=127
50605 Off ch=13 n=b4 v=127
50611 On ch=2 n=c#5 v=127
50655 Off ch=2 n=c#5 v=127
50661 On ch=13 n=b4 v=127
51212 Off ch=13 n=b4 v=127
51212 Off ch=13 n=b3 v=127
51312 On ch=4 n=d#6 v=127
51312 On ch=13 n=b5 v=127
51312 On ch=7 n=f#6 v=127
51706 Off ch=7 n=f#6 v=127
51706 Off ch=13 n=b5 v=127
51706 Off ch=4 n=d#6 v=127
51712 On ch=9 n=g#6 v=127
51712 On ch=13 n=b5 v=127
51712 On ch=5 n=e6 v=127
52106 Off ch=5 n=e6 v=127
52106 Off ch=13 n=b5 v=127
52106 Off ch=9 n=g#6 v=127
52112 On ch=13 n=b4 v=127
52112 On ch=4 n=d#6 v=127
52112 On ch=13 n=b5 v=127
52112 On ch=7 n=f#6 v=127
52312 On ch=13 n=b3 v=127
52506 Off ch=13 n=b3 v=127
52508 Off ch=13 n=b4 v=127
52512 On ch=13 n=b3 v=127
52706 Off ch=13 n=b3 v=127
52712 On ch=13 n=b3 v=127
52906 Off ch=7 n=f#6 v=127
52906 Off ch=13 n=b5 v=127
52906 Off ch=4 n=d#6 v=127
52912 On ch=13 n=b5 v=127
52912 On ch=4 n=d#6 v=127
52912 On ch=11 n=a6 v=127
52912 On ch=7 n=f#6 v=127
53306 Off ch=7 n=f#6 v=127
53306 Off ch=11 n=a6 v=127
53306 Off ch=4 n=d#6 v=127
53306 Off ch=13 n=b5 v=127
53312 On ch=9 n=g#6 v=127
53312 On ch=13 n=b5 v=127
53312 On ch=5 n=e6 v=127
53706 Off ch=5 n=e6 v=127
53706 Off ch=13 n=b5 v=127
53706 Off ch=9 n=g#6 v=127
53706 Off ch=13 n=b3 v=127
53712 On ch=13 n=b3 v=127
53712 On ch=13 n=b5 v=127
53712 On ch=7 n=f#6 v=127
53712 On ch=4 n=d#6 v=127
53912 On ch=13 n=b2 v=127
54106 Off ch=13 n=b2 v=127
54108 Off ch=13 n=b3 v=127
54112 On ch=13 n=b2 v=127
54306 Off ch=13 n=b2 v=127
54312 On ch=13 n=b2 v=127
54506 Off ch=4 n=d#6 v=127
54506 Off ch=7 n=f#6 v=127
54506 Off ch=13 n=b5 v=127
54512 On ch=7 n=f#6 v=127
54512 On ch=13 n=b5 v=127
54512 On ch=13 n=b6 v=127
54512 On ch=4 n=d#6 v=127
54906 Off ch=4 n=d#6 v=127
54906 Off ch=13 n=b6 v=127
54906 Off ch=13 n=b5 v=127
54906 Off ch=7 n=f#6 v=127
54912 On ch=11 n=a6 v=127
54912 On ch=7 n=f#6 v=127
54912 On ch=4 n=d#6 v=127
54912 On ch=13 n=b5 v=127
55306 Off ch=13 n=b5 v=127
55306 Off ch=4 n=d#6 v=127
55306 Off ch=7 n=f#6 v=127
55306 Off ch=11 n=a6 v=127
55306 Off ch=13 n=b2 v=127
55312 On ch=5 n=e5 v=127
55312 On ch=9 n=g#6 v=127
55312 On ch=13 n=b5 v=127
55312 On ch=5 n=e6 v=127
55512 On ch=5 n=e4 v=127
55706 Off ch=5 n=e4 v=127
55708 Off ch=5 n=e5 v=127
55712 On ch=5 n=e4 v=127
55906 Off ch=5 n=e4 v=127
55912 On ch=5 n=e4 v=127
56106 Off ch=5 n=e6 v=127
56106 Off ch=13 n=b5 v=127
56106 Off ch=9 n=g#6 v=127
56112 On ch=3 n=d6 v=127
56112 On ch=13 n=b6 v=127
56506 Off ch=13 n=b6 v=127
56506 Off ch=3 n=d6 v=127
56512 On ch=13 n=b6 v=127
56512 On ch=3 n=d6 v=127
56556 Off ch=3 n=d6 v=127
56556 Off ch=13 n=b6 v=127
56562 On ch=11 n=a6 v=127
56562 On ch=1 n=c6 v=127
56606 Off ch=1 n=c6 v=127
56606 Off ch=11 n=a6 v=127
56612 On ch=13 n=b6 v=127
56612 On ch=3 n=d6 v=127
56656 Off ch=3 n=d6 v=127
56656 Off ch=13 n=b6 v=127
56662 On ch=11 n=a6 v=127
56662 On ch=1 n=c6 v=127
56706 Off ch=1 n=c6 v=127
56706 Off ch=11 n=a6 v=127
56712 On ch=13 n=b6 v=127
56712 On ch=3 n=d6 v=127
56756 Off ch=3 n=d6 v=127
56756 Off ch=13 n=b6 v=127
56762 On ch=11 n=a6 v=127
56762 On ch=1 n=c6 v=127
56806 Off ch=1 n=c6 v=127
56806 Off ch=11 n=a6 v=127
56812 On ch=13 n=b6 v=127
56812 On ch=3 n=d6 v=127
56856 Off ch=3 n=d6 v=127
56856 Off ch=13 n=b6 v=127
56862 On ch=11 n=a6 v=127
56862 On ch=1 n=c6 v=127
56906 Off ch=5 n=e4 v=127
56912 On ch=5 n=e4 v=127
57106 Off ch=1 n=c6 v=127
57106 Off ch=11 n=a6 v=127
57112 On ch=5 n=e3 v=127
57112 On ch=9 n=g#6 v=127
57112 On ch=13 n=b5 v=127
57306 Off ch=5 n=e3 v=127
57308 Off ch=5 n=e4 v=127
57312 On ch=5 n=e3 v=127
57506 Off ch=5 n=e3 v=127
57512 On ch=5 n=e3 v=127
57706 Off ch=5 n=e3 v=127
57706 Off ch=13 n=b5 v=127
57706 Off ch=9 n=g#6 v=127
57712 On ch=13 n=b6 v=127
57712 On ch=5 n=e5 v=127
57906 Off ch=13 n=b6 v=127
57912 On ch=13 n=b5 v=127
57912 On ch=3 n=d6 v=127
58106 Off ch=3 n=d6 v=127
58106 Off ch=13 n=b5 v=127
58112 On ch=3 n=d6 v=127
58112 On ch=13 n=b5 v=127
58156 Off ch=13 n=b5 v=127
58156 Off ch=3 n=d6 v=127
58162 On ch=11 n=a5 v=127
58162 On ch=1 n=c6 v=127
58206 Off ch=1 n=c6 v=127
58206 Off ch=11 n=a5 v=127
58212 On ch=13 n=b5 v=127
58212 On ch=3 n=d6 v=127
58256 Off ch=3 n=d6 v=127
58256 Off ch=13 n=b5 v=127
58262 On ch=11 n=a5 v=127
58262 On ch=1 n=c6 v=127
58306 Off ch=1 n=c6 v=127
58306 Off ch=11 n=a5 v=127
58312 On ch=13 n=b5 v=127
58312 On ch=9 n=g#5 v=127
58506 Off ch=9 n=g#5 v=127
58506 Off ch=13 n=b5 v=127
58511 Off ch=5 n=e5 v=127
58512 On ch=5 n=e5 v=127
58512 On ch=1 n=c7 v=127
58706 Off ch=1 n=c7 v=127
58712 On ch=5 n=e6 v=127
58712 On ch=1 n=c6 v=127
58906 Off ch=1 n=c6 v=127
58906 Off ch=5 n=e6 v=127
58912 On ch=1 n=c6 v=127
58912 On ch=5 n=e6 v=127
58956 Off ch=5 n=e6 v=127
58956 Off ch=1 n=c6 v=127
58962 On ch=13 n=b5 v=127
58962 On ch=3 n=d6 v=127
59006 Off ch=3 n=d6 v=127
59006 Off ch=13 n=b5 v=127
59012 On ch=1 n=c6 v=127
59012 On ch=5 n=e6 v=127
59056 Off ch=5 n=e6 v=127
59056 Off ch=1 n=c6 v=127
59062 On ch=13 n=b5 v=127
59062 On ch=3 n=d6 v=127
59106 Off ch=3 n=d6 v=127
59106 Off ch=13 n=b5 v=127
59112 On ch=1 n=c6 v=127
59112 On ch=11 n=a5 v=127
59306 Off ch=11 n=a5 v=127
59306 Off ch=1 n=c6 v=127
59311 Off ch=5 n=e5 v=127
59312 On ch=5 n=e5 v=127
59312 On ch=13 n=b6 v=127
59506 Off ch=13 n=b6 v=127
59512 On ch=6 n=f6 v=127
59512 On ch=3 n=d6 v=127
59706 Off ch=3 n=d6 v=127
59706 Off ch=6 n=f6 v=127
59712 On ch=3 n=d6 v=127
59712 On ch=6 n=f6 v=127
59756 Off ch=6 n=f6 v=127
59756 Off ch=3 n=d6 v=127
59762 On ch=1 n=c6 v=127
59762 On ch=5 n=e6 v=127
59806 Off ch=5 n=e6 v=127
59806 Off ch=1 n=c6 v=127
59812 On ch=3 n=d6 v=127
59812 On ch=6 n=f6 v=127
59856 Off ch=6 n=f6 v=127
59856 Off ch=3 n=d6 v=127
59862 On ch=1 n=c6 v=127
59862 On ch=5 n=e6 v=127
59906 Off ch=5 n=e6 v=127
59906 Off ch=1 n=c6 v=127
59912 On ch=3 n=d6 v=127
59912 On ch=13 n=b5 v=127
60106 Off ch=13 n=b5 v=127
60106 Off ch=3 n=d6 v=127
60111 Off ch=5 n=e5 v=127
60112 On ch=11 n=a6 v=127
60112 On ch=5 n=e5 v=127
60306 Off ch=11 n=a6 v=127
60312 On ch=1 n=c6 v=127
60312 On ch=5 n=e6 v=127
60506 Off ch=5 n=e6 v=127
60506 Off ch=1 n=c6 v=127
60512 On ch=1 n=c6 v=127
60512 On ch=5 n=e6 v=127
60556 Off ch=5 n=e6 v=127
60556 Off ch=1 n=c6 v=127
60562 On ch=13 n=b5 v=127
60562 On ch=3 n=d6 v=127
60606 Off ch=3 n=d6 v=127
60606 Off ch=13 n=b5 v=127
60612 On ch=1 n=c6 v=127
60612 On ch=5 n=e6 v=127
60656 Off ch=5 n=e6 v=127
60656 Off ch=1 n=c6 v=127
60662 On ch=13 n=b5 v=127
60662 On ch=3 n=d6 v=127
60706 Off ch=3 n=d6 v=127
60706 Off ch=13 n=b5 v=127
60712 On ch=1 n=c6 v=127
60712 On ch=11 n=a5 v=127
60906 Off ch=11 n=a5 v=127
60906 Off ch=1 n=c6 v=127
60911 Off ch=5 n=e5 v=127
60912 On ch=5 n=e5 v=127
60912 On ch=13 n=b6 v=127
61006 Off ch=13 n=b6 v=127
61012 On ch=11 n=a6 v=127
61106 Off ch=11 n=a6 v=127
61112 On ch=9 n=g#6 v=127
61206 Off ch=9 n=g#6 v=127
61212 On ch=6 n=f6 v=127
61306 Off ch=6 n=f6 v=127
61306 Off ch=5 n=e5 v=127
61312 On ch=9 n=g#4 v=127
61312 On ch=5 n=e6 v=127
61406 Off ch=5 n=e6 v=127
61412 On ch=3 n=d6 v=127
61506 Off ch=3 n=d6 v=127
61512 On ch=1 n=c6 v=127
61606 Off ch=1 n=c6 v=127
61612 On ch=13 n=b5 v=127
61706 Off ch=13 n=b5 v=127
61706 Off ch=9 n=g#4 v=127
61712 On ch=11 n=a3 v=127
61712 On ch=13 n=b5 v=127
61906 Off ch=11 n=a3 v=127
61912 On ch=5 n=e4 v=127
62106 Off ch=5 n=e4 v=127
62112 On ch=11 n=a4 v=127
62306 Off ch=13 n=b5 v=127
62312 On ch=1 n=c6 v=127
62506 Off ch=1 n=c6 v=127
62508 Off ch=11 n=a4 v=127
62512 On ch=11 n=a6 v=127
62606 Off ch=11 n=a6 v=127
62612 On ch=13 n=b6 v=127
62706 Off ch=13 n=b6 v=127
62712 On ch=1 n=c6 v=127
62712 On ch=1 n=c7 v=127
62712 On ch=5 n=e6 v=127
62906 Off ch=5 n=e6 v=127
62906 Off ch=1 n=c6 v=127
62912 On ch=13 n=b5 v=127
62912 On ch=4 n=d#6 v=127
63106 Off ch=4 n=d#6 v=127
63106 Off ch=13 n=b5 v=127
63112 On ch=11 n=a5 v=127
63112 On ch=5 n=e6 v=127
63306 Off ch=5 n=e6 v=127
63306 Off ch=1 n=c7 v=127
63312 On ch=7 n=f#6 v=127
63406 Off ch=7 n=f#6 v=127
63412 On ch=8 n=g6 v=127
63506 Off ch=8 n=g6 v=127
63506 Off ch=11 n=a5 v=127
63512 On ch=11 n=a5 v=127
63512 On ch=11 n=a6 v=127
63512 On ch=1 n=c6 v=127
63706 Off ch=1 n=c6 v=127
63706 Off ch=11 n=a5 v=127
63712 On ch=8 n=g5 v=127
63712 On ch=13 n=b5 v=127
63906 Off ch=13 n=b5 v=127
63906 Off ch=8 n=g5 v=127
63912 On ch=7 n=f#5 v=127
63912 On ch=1 n=c6 v=127
64106 Off ch=1 n=c6 v=127
64106 Off ch=11 n=a6 v=127
64112 On ch=4 n=d#6 v=127
64206 Off ch=4 n=d#6 v=127
64212 On ch=5 n=e6 v=127
64306 Off ch=5 n=e6 v=127
64306 Off ch=7 n=f#5 v=127
64312 On ch=7 n=f#5 v=127
64312 On ch=7 n=f#6 v=127
64312 On ch=11 n=a5 v=127
64506 Off ch=11 n=a5 v=127
64506 Off ch=7 n=f#5 v=127
64512 On ch=5 n=e5 v=127
64512 On ch=8 n=g5 v=127
64706 Off ch=8 n=g5 v=127
64706 Off ch=5 n=e5 v=127
64708 Off ch=7 n=f#6 v=127
64712 On ch=4 n=d#5 v=127
64712 On ch=7 n=f#5 v=127
64712 On ch=11 n=a5 v=127
64906 Off ch=11 n=a5 v=127
64906 Off ch=7 n=f#5 v=127
64906 Off ch=4 n=d#5 v=127
64912 On ch=5 n=e5 v=127
64912 On ch=8 n=g5 v=127
65006 Off ch=8 n=g5 v=127
65012 On ch=12 n=a#5 v=127
65106 Off ch=12 n=a#5 v=127
65106 Off ch=5 n=e5 v=127
65112 On ch=5 n=e5 v=127
65112 On ch=8 n=g5 v=127
65112 On ch=13 n=b5 v=127
65306 Off ch=8 n=g5 v=127
65306 Off ch=5 n=e5 v=127
65312 On ch=8 n=g5 v=127
65312 On ch=5 n=e5 v=127
65406 Off ch=13 n=b5 v=127
65412 On ch=4 n=d#6 v=127
65506 Off ch=4 n=d#6 v=127
65506 Off ch=5 n=e5 v=127
65506 Off ch=8 n=g5 v=127
65512 On ch=8 n=g5 v=127
65512 On ch=5 n=e5 v=127
65512 On ch=5 n=e6 v=127
65706 Off ch=5 n=e5 v=127
65706 Off ch=8 n=g5 v=127
65712 On ch=8 n=g5 v=127
65712 On ch=5 n=e5 v=127
65806 Off ch=5 n=e6 v=127
65812 On ch=7 n=f#6 v=127
65906 Off ch=7 n=f#6 v=127
65906 Off ch=5 n=e5 v=127
65906 Off ch=8 n=g5 v=127
65912 On ch=8 n=g5 v=127
65912 On ch=5 n=e5 v=127
65912 On ch=8 n=g6 v=127
66106 Off ch=5 n=e5 v=127
66106 Off ch=8 n=g5 v=127
66112 On ch=5 n=e5 v=127
66112 On ch=8 n=g5 v=127
66206 Off ch=8 n=g6 v=127
66212 On ch=12 n=a#6 v=127
66306 Off ch=12 n=a#6 v=127
66306 Off ch=8 n=g5 v=127
66306 Off ch=5 n=e5 v=127
66312 On ch=5 n=e5 v=127
66312 On ch=8 n=g5 v=127
66312 On ch=13 n=b6 v=127
66506 Off ch=8 n=g5 v=127
66506 Off ch=5 n=e5 v=127
66512 On ch=7 n=f#5 v=127
66512 On ch=3 n=d5 v=127
66562 Off ch=13 n=b6 v=127
66612 On ch=12 n=a#5 v=127
66706 Off ch=12 n=a#5 v=127
66706 Off ch=3 n=d5 v=127
66706 Off ch=7 n=f#5 v=127
66712 On ch=7 n=f#5 v=127
66712 On ch=3 n=d5 v=127
66712 On ch=13 n=b5 v=127
66906 Off ch=3 n=d5 v=127
66906 Off ch=7 n=f#5 v=127
66912 On ch=7 n=f#5 v=127
66912 On ch=3 n=d5 v=127
67006 Off ch=13 n=b5 v=127
67012 On ch=2 n=c#6 v=127
67106 Off ch=2 n=c#6 v=127
67106 Off ch=3 n=d5 v=127
67106 Off ch=7 n=f#5 v=127
67112 On ch=7 n=f#5 v=127
67112 On ch=3 n=d5 v=127
67112 On ch=3 n=d6 v=127
67306 Off ch=3 n=d5 v=127
67306 Off ch=7 n=f#5 v=127
67312 On ch=7 n=f#5 v=127
67312 On ch=3 n=d5 v=127
67406 Off ch=3 n=d6 v=127
67412 On ch=6 n=f6 v=127
67506 Off ch=6 n=f6 v=127
67506 Off ch=3 n=d5 v=127
67506 Off ch=7 n=f#5 v=127
67512 On ch=7 n=f#5 v=127
67512 On ch=3 n=d5 v=127
67512 On ch=7 n=f#6 v=127
67706 Off ch=3 n=d5 v=127
67706 Off ch=7 n=f#5 v=127
67712 On ch=7 n=f#5 v=127
67712 On ch=3 n=d5 v=127
67806 Off ch=7 n=f#6 v=127
67812 On ch=12 n=a#6 v=127
67906 Off ch=12 n=a#6 v=127
67906 Off ch=3 n=d5 v=127
67906 Off ch=7 n=f#5 v=127
67912 On ch=7 n=f#5 v=127
67912 On ch=3 n=d5 v=127
67912 On ch=13 n=b6 v=127
68106 Off ch=13 n=b6 v=127
68106 Off ch=3 n=d5 v=127
68106 Off ch=7 n=f#5 v=127
68112 On ch=5 n=e5 v=127
68112 On ch=1 n=c5 v=127
68212 On ch=9 n=g#5 v=127
68306 Off ch=9 n=g#5 v=127
68306 Off ch=1 n=c5 v=127
68306 Off ch=5 n=e5 v=127
68312 On ch=1 n=c5 v=127
68312 On ch=5 n=e5 v=127
68312 On ch=11 n=a5 v=127
68506 Off ch=5 n=e5 v=127
68506 Off ch=1 n=c5 v=127
68512 On ch=1 n=c5 v=127
68512 On ch=5 n=e5 v=127
68606 Off ch=11 n=a5 v=127
68612 On ch=13 n=b5 v=127
68706 Off ch=13 n=b5 v=127
68706 Off ch=5 n=e5 v=127
68706 Off ch=1 n=c5 v=127
68712 On ch=1 n=c5 v=127
68712 On ch=5 n=e5 v=127
68712 On ch=1 n=c6 v=127
68906 Off ch=5 n=e5 v=127
68906 Off ch=1 n=c5 v=127
68912 On ch=1 n=c5 v=127
68912 On ch=5 n=e5 v=127
69006 Off ch=1 n=c6 v=127
69012 On ch=4 n=d#6 v=127
69106 Off ch=4 n=d#6 v=127
69106 Off ch=5 n=e5 v=127
69106 Off ch=1 n=c5 v=127
69112 On ch=1 n=c5 v=127
69112 On ch=5 n=e5 v=127
69112 On ch=5 n=e6 v=127
69306 Off ch=5 n=e5 v=127
69306 Off ch=1 n=c5 v=127
69312 On ch=1 n=c5 v=127
69312 On ch=5 n=e5 v=127
69406 Off ch=5 n=e6 v=127
69412 On ch=9 n=g#6 v=127
69506 Off ch=9 n=g#6 v=127
69506 Off ch=5 n=e5 v=127
69506 Off ch=1 n=c5 v=127
69512 On ch=1 n=c5 v=127
69512 On ch=5 n=e5 v=127
69512 On ch=11 n=a6 v=127
69706 Off ch=5 n=e5 v=127
69706 Off ch=1 n=c5 v=127
69712 On ch=13 n=b4 v=127
69906 Off ch=11 n=a6 v=127
69912 On ch=2 n=c#6 v=127
69912 On ch=11 n=a5 v=127
70106 Off ch=11 n=a5 v=127
70106 Off ch=2 n=c#6 v=127
70112 On ch=11 n=a5 v=127
70112 On ch=2 n=c#6 v=127
70156 Off ch=2 n=c#6 v=127
70156 Off ch=11 n=a5 v=127
70162 On ch=9 n=g#5 v=127
70162 On ch=13 n=b5 v=127
70206 Off ch=13 n=b5 v=127
70206 Off ch=9 n=g#5 v=127
70212 On ch=11 n=a5 v=127
70212 On ch=2 n=c#6 v=127
70256 Off ch=2 n=c#6 v=127
70256 Off ch=11 n=a5 v=127
70262 On ch=9 n=g#5 v=127
70262 On ch=13 n=b5 v=127
70306 Off ch=13 n=b5 v=127
70306 Off ch=9 n=g#5 v=127
70312 On ch=11 n=a5 v=127
70312 On ch=7 n=f#5 v=127
70506 Off ch=7 n=f#5 v=127
70506 Off ch=11 n=a5 v=127
70506 Off ch=13 n=b4 v=127
70512 On ch=13 n=b4 v=127
70512 On ch=9 n=g#6 v=127
70706 Off ch=9 n=g#6 v=127
70712 On ch=9 n=g#5 v=127
70712 On ch=13 n=b5 v=127
70906 Off ch=13 n=b5 v=127
70906 Off ch=9 n=g#5 v=127
70912 On ch=9 n=g#5 v=127
70912 On ch=13 n=b5 v=127
70956 Off ch=13 n=b5 v=127
70956 Off ch=9 n=g#5 v=127
70962 On ch=7 n=f#5 v=127
70962 On ch=11 n=a5 v=127
71006 Off ch=11 n=a5 v=127
71006 Off ch=7 n=f#5 v=127
71012 On ch=9 n=g#5 v=127
71012 On ch=13 n=b5 v=127
71056 Off ch=13 n=b5 v=127
71056 Off ch=9 n=g#5 v=127
71062 On ch=7 n=f#5 v=127
71062 On ch=11 n=a5 v=127
71106 Off ch=11 n=a5 v=127
71106 Off ch=7 n=f#5 v=127
71112 On ch=9 n=g#5 v=127
71112 On ch=5 n=e5 v=127
71306 Off ch=5 n=e5 v=127
71306 Off ch=9 n=g#5 v=127
71306 Off ch=13 n=b4 v=127
71312 On ch=13 n=b4 v=127
71312 On ch=7 n=f#6 v=127
71506 Off ch=7 n=f#6 v=127
71512 On ch=11 n=a5 v=127
71512 On ch=7 n=f#5 v=127
71706 Off ch=7 n=f#5 v=127
71706 Off ch=11 n=a5 v=127
71712 On ch=7 n=f#5 v=127
71712 On ch=11 n=a5 v=127
71756 Off ch=11 n=a5 v=127
71756 Off ch=7 n=f#5 v=127
71762 On ch=5 n=e5 v=127
71762 On ch=9 n=g#5 v=127
71806 Off ch=9 n=g#5 v=127
71806 Off ch=5 n=e5 v=127
71812 On ch=7 n=f#5 v=127
71812 On ch=11 n=a5 v=127
71856 Off ch=11 n=a5 v=127
71856 Off ch=7 n=f#5 v=127
71862 On ch=5 n=e5 v=127
71862 On ch=9 n=g#5 v=127
71906 Off ch=9 n=g#5 v=127
71906 Off ch=5 n=e5 v=127
71912 On ch=4 n=d#5 v=127
71912 On ch=7 n=f#5 v=127
72106 Off ch=7 n=f#5 v=127
72106 Off ch=4 n=d#5 v=127
72106 Off ch=13 n=b4 v=127
72112 On ch=13 n=b4 v=127
72112 On ch=5 n=e6 v=127
72306 Off ch=5 n=e6 v=127
72312 On ch=5 n=e5 v=127
72312 On ch=9 n=g#5 v=127
72506 Off ch=9 n=g#5 v=127
72506 Off ch=5 n=e5 v=127
72512 On ch=5 n=e5 v=127
72512 On ch=9 n=g#5 v=127
72556 Off ch=9 n=g#5 v=127
72556 Off ch=5 n=e5 v=127
72562 On ch=4 n=d#5 v=127
72562 On ch=7 n=f#5 v=127
72606 Off ch=7 n=f#5 v=127
72606 Off ch=4 n=d#5 v=127
72612 On ch=5 n=e5 v=127
72612 On ch=9 n=g#5 v=127
72656 Off ch=9 n=g#5 v=127
72656 Off ch=5 n=e5 v=127
72662 On ch=4 n=d#5 v=127
72662 On ch=7 n=f#5 v=127
72706 Off ch=7 n=f#5 v=127
72706 Off ch=4 n=d#5 v=127
72712 On ch=2 n=c#5 v=127
72712 On ch=5 n=e5 v=127
72906 Off ch=5 n=e5 v=127
72906 Off ch=2 n=c#5 v=127
72906 Off ch=13 n=b4 v=127
72912 On ch=13 n=b4 v=127
72912 On ch=4 n=d#5 v=127
73006 Off ch=4 n=d#5 v=127
73006 Off ch=13 n=b4 v=127
73012 On ch=2 n=c#5 v=127
73012 On ch=5 n=e5 v=127
73106 Off ch=5 n=e5 v=127
73106 Off ch=2 n=c#5 v=127
73112 On ch=4 n=d#5 v=127
73112 On ch=7 n=f#5 v=127
73206 Off ch=7 n=f#5 v=127
73206 Off ch=4 n=d#5 v=127
73212 On ch=9 n=g#5 v=127
73212 On ch=5 n=e5 v=127
73306 Off ch=5 n=e5 v=127
73306 Off ch=9 n=g#5 v=127
73312 On ch=11 n=a5 v=127
73312 On ch=7 n=f#5 v=127
73406 Off ch=7 n=f#5 v=127
73406 Off ch=11 n=a5 v=127
73412 On ch=9 n=g#5 v=127
73412 On ch=13 n=b5 v=127
73506 Off ch=13 n=b5 v=127
73506 Off ch=9 n=g#5 v=127
73512 On ch=2 n=c#6 v=127
73512 On ch=11 n=a5 v=127
73606 Off ch=11 n=a5 v=127
73606 Off ch=2 n=c#6 v=127
73612 On ch=4 n=d#6 v=127
73612 On ch=13 n=b5 v=127
73706 Off ch=13 n=b5 v=127
73706 Off ch=4 n=d#6 v=127
73712 On ch=5 n=e6 v=127
73712 On ch=2 n=c#6 v=127
73806 Off ch=2 n=c#6 v=127
73806 Off ch=5 n=e6 v=127
73812 On ch=4 n=d#6 v=127
73812 On ch=13 n=b5 v=127
73906 Off ch=13 n=b5 v=127
73906 Off ch=4 n=d#6 v=127
73912 On ch=2 n=c#6 v=127
73912 On ch=11 n=a5 v=127
74006 Off ch=11 n=a5 v=127
74006 Off ch=2 n=c#6 v=127
74012 On ch=9 n=g#5 v=127
74012 On ch=13 n=b5 v=127
74106 Off ch=13 n=b5 v=127
74106 Off ch=9 n=g#5 v=127
74112 On ch=11 n=a5 v=127
74112 On ch=7 n=f#5 v=127
74206 Off ch=7 n=f#5 v=127
74206 Off ch=11 n=a5 v=127
74212 On ch=9 n=g#5 v=127
74212 On ch=5 n=e5 v=127
74306 Off ch=5 n=e5 v=127
74306 Off ch=9 n=g#5 v=127
74312 On ch=4 n=d#5 v=127
74312 On ch=7 n=f#5 v=127
74406 Off ch=7 n=f#5 v=127
74406 Off ch=4 n=d#5 v=127
74412 On ch=5 n=e5 v=127
74412 On ch=2 n=c#5 v=127
74506 Off ch=2 n=c#5 v=127
74506 Off ch=5 n=e5 v=127
74512 On ch=13 n=b4 v=127
74512 On ch=4 n=d#5 v=127
74606 Off ch=4 n=d#5 v=127
74606 Off ch=13 n=b4 v=127
74612 On ch=2 n=c#5 v=127
74612 On ch=5 n=e5 v=127
74706 Off ch=5 n=e5 v=127
74706 Off ch=2 n=c#5 v=127
74712 On ch=7 n=f#5 v=127
74712 On ch=4 n=d#5 v=127
74806 Off ch=4 n=d#5 v=127
74806 Off ch=7 n=f#5 v=127
74812 On ch=5 n=e5 v=127
74812 On ch=9 n=g#5 v=127
74906 Off ch=9 n=g#5 v=127
74906 Off ch=5 n=e5 v=127
74912 On ch=11 n=a5 v=127
74912 On ch=7 n=f#5 v=127
75006 Off ch=7 n=f#5 v=127
75006 Off ch=11 n=a5 v=127
75012 On ch=13 n=b5 v=127
75012 On ch=9 n=g#5 v=127
75106 Off ch=9 n=g#5 v=127
75106 Off ch=13 n=b5 v=127
75112 On ch=2 n=c#6 v=127
75112 On ch=11 n=a5 v=127
75206 Off ch=11 n=a5 v=127
75206 Off ch=2 n=c#6 v=127
75212 On ch=4 n=d#6 v=127
75212 On ch=13 n=b5 v=127
75306 Off ch=13 n=b5 v=127
75306 Off ch=4 n=d#6 v=127
75312 On ch=2 n=c#6 v=127
75312 On ch=5 n=e6 v=127
75406 Off ch=5 n=e6 v=127
75406 Off ch=2 n=c#6 v=127
75412 On ch=4 n=d#6 v=127
75412 On ch=13 n=b5 v=127
75506 Off ch=13 n=b5 v=127
75506 Off ch=4 n=d#6 v=127
75512 On ch=2 n=c#6 v=127
75512 On ch=11 n=a5 v=127
75606 Off ch=11 n=a5 v=127
75606 Off ch=2 n=c#6 v=127
75612 On ch=13 n=b5 v=127
75612 On ch=9 n=g#5 v=127
75706 Off ch=9 n=g#5 v=127
75706 Off ch=13 n=b5 v=127
75712 On ch=7 n=f#5 v=127
75712 On ch=11 n=a5 v=127
75806 Off ch=11 n=a5 v=127
75806 Off ch=7 n=f#5 v=127
75812 On ch=5 n=e5 v=127
75812 On ch=9 n=g#5 v=127
75906 Off ch=9 n=g#5 v=127
75906 Off ch=5 n=e5 v=127
75912 On ch=4 n=d#5 v=127
75912 On ch=7 n=f#5 v=127
76006 Off ch=7 n=f#5 v=127
76006 Off ch=4 n=d#5 v=127
76012 On ch=2 n=c#5 v=127
76012 On ch=5 n=e5 v=127
76106 Off ch=5 n=e5 v=127
76106 Off ch=2 n=c#5 v=127
76112 On ch=4 n=d#5 v=127
76112 On ch=13 n=b4 v=127
76206 Off ch=13 n=b4 v=127
76206 Off ch=4 n=d#5 v=127
76212 On ch=2 n=c#5 v=127
76212 On ch=5 n=e5 v=127
76306 Off ch=5 n=e5 v=127
76306 Off ch=2 n=c#5 v=127
76312 On ch=7 n=f#5 v=127
76312 On ch=4 n=d#5 v=127
76406 Off ch=4 n=d#5 v=127
76406 Off ch=7 n=f#5 v=127
76412 On ch=5 n=e5 v=127
76412 On ch=9 n=g#5 v=127
76506 Off ch=9 n=g#5 v=127
76506 Off ch=5 n=e5 v=127
76512 On ch=11 n=a5 v=127
76512 On ch=7 n=f#5 v=127
76606 Off ch=7 n=f#5 v=127
76606 Off ch=11 n=a5 v=127
76612 On ch=13 n=b5 v=127
76612 On ch=9 n=g#5 v=127
76706 Off ch=9 n=g#5 v=127
76706 Off ch=13 n=b5 v=127
76712 On ch=11 n=a5 v=127
76712 On ch=2 n=c#6 v=127
76806 Off ch=2 n=c#6 v=127
76806 Off ch=11 n=a5 v=127
76812 On ch=4 n=d#6 v=127
76812 On ch=13 n=b5 v=127
76906 Off ch=13 n=b5 v=127
76906 Off ch=4 n=d#6 v=127
76912 On ch=2 n=c#6 v=127
76912 On ch=5 n=e6 v=127
77006 Off ch=5 n=e6 v=127
77006 Off ch=2 n=c#6 v=127
77012 On ch=4 n=d#6 v=127
77012 On ch=13 n=b5 v=127
77106 Off ch=13 n=b5 v=127
77106 Off ch=4 n=d#6 v=127
77112 On ch=2 n=c#6 v=127
77112 On ch=11 n=a5 v=127
77206 Off ch=11 n=a5 v=127
77206 Off ch=2 n=c#6 v=127
77212 On ch=9 n=g#5 v=127
77212 On ch=13 n=b5 v=127
77306 Off ch=13 n=b5 v=127
77306 Off ch=9 n=g#5 v=127
77312 On ch=11 n=a5 v=127
77312 On ch=7 n=f#5 v=127
77406 Off ch=7 n=f#5 v=127
77406 Off ch=11 n=a5 v=127
77412 On ch=9 n=g#5 v=127
77412 On ch=5 n=e5 v=127
77506 Off ch=5 n=e5 v=127
77506 Off ch=9 n=g#5 v=127
77512 On ch=7 n=f#5 v=127
77512 On ch=4 n=d#5 v=127
77606 Off ch=4 n=d#5 v=127
77606 Off ch=7 n=f#5 v=127
77612 On ch=2 n=c#5 v=127
77612 On ch=5 n=e5 v=127
77706 Off ch=5 n=e5 v=127
77706 Off ch=2 n=c#5 v=127
77712 On ch=13 n=b4 v=127
77712 On ch=4 n=d#5 v=127
77806 Off ch=4 n=d#5 v=127
77812 On ch=7 n=f#5 v=127
77906 Off ch=7 n=f#5 v=127
77906 Off ch=13 n=b4 v=127
77912 On ch=11 n=a4 v=127
77912 On ch=13 n=b5 v=127
78006 Off ch=13 n=b5 v=127
78012 On ch=4 n=d#5 v=127
78106 Off ch=4 n=d#5 v=127
78106 Off ch=11 n=a4 v=127
78112 On ch=9 n=g#4 v=127
78112 On ch=5 n=e5 v=127
78206 Off ch=5 n=e5 v=127
78212 On ch=7 n=f#5 v=127
78306 Off ch=7 n=f#5 v=127
78306 Off ch=9 n=g#4 v=127
78312 On ch=11 n=a4 v=127
78312 On ch=9 n=g#5 v=127
78406 Off ch=9 n=g#5 v=127
78412 On ch=11 n=a5 v=127
78506 Off ch=11 n=a5 v=127
78506 Off ch=11 n=a4 v=127
78512 On ch=13 n=b4 v=127
78512 On ch=9 n=g#5 v=127
78606 Off ch=9 n=g#5 v=127
78612 On ch=11 n=a5 v=127
78706 Off ch=11 n=a5 v=127
78712 On ch=13 n=b5 v=127
78806 Off ch=13 n=b5 v=127
78812 On ch=11 n=a5 v=127
78906 Off ch=11 n=a5 v=127
78906 Off ch=13 n=b4 v=127
78912 On ch=13 n=b3 v=127
78912 On ch=9 n=g#5 v=127
79006 Off ch=9 n=g#5 v=127
79012 On ch=7 n=f#5 v=127
79106 Off ch=7 n=f#5 v=127
79112 On ch=5 n=e5 v=127
79206 Off ch=5 n=e5 v=127
79212 On ch=4 n=d#5 v=127
79306 Off ch=4 n=d#5 v=127
79306 Off ch=13 n=b3 v=127
79312 On ch=5 n=e4 v=127
79312 On ch=5 n=e5 v=127
79406 Off ch=5 n=e5 v=127
79412 On ch=9 n=g#5 v=127
79506 Off ch=9 n=g#5 v=127
79512 On ch=13 n=b5 v=127
79606 Off ch=13 n=b5 v=127
79612 On ch=5 n=e6 v=127
79706 Off ch=5 n=e6 v=127
79712 On ch=13 n=b5 v=127
79806 Off ch=13 n=b5 v=127
79812 On ch=9 n=g#5 v=127
79906 Off ch=9 n=g#5 v=127
79912 On ch=5 n=e5 v=127
80006 Off ch=5 n=e5 v=127
80012 On ch=13 n=b4 v=127
80106 Off ch=13 n=b4 v=127
80106 Off ch=5 n=e4 v=127
80112 On ch=5 n=e3 v=127
80112 On ch=5 n=e5 v=127
80206 Off ch=5 n=e5 v=127
80212 On ch=9 n=g#5 v=127
80306 Off ch=9 n=g#5 v=127
80312 On ch=5 n=e5 v=127
80406 Off ch=5 n=e5 v=127
80412 On ch=13 n=b4 v=127
80506 Off ch=13 n=b4 v=127
80506 Off ch=5 n=e3 v=127
80512 On ch=5 n=e3 v=127
80512 On ch=5 n=e5 v=127
80606 Off ch=5 n=e5 v=127
80612 On ch=13 n=b4 v=127
80706 Off ch=13 n=b4 v=127
80712 On ch=9 n=g#4 v=127
80806 Off ch=9 n=g#4 v=127
80812 On ch=5 n=e4 v=127
80918 Off ch=5 n=e3 v=127
80926 Off ch=5 n=e4 v=127
80952 On ch=5 n=e3 v=127
82830 Off ch=5 n=e3 v=127
87552 Meta TrkEnd
TrkEnd
