MFile 1 5 240
MTrk
0 TimeSig 3/4 24 8
0 Tempo 487805
74400 Tempo 560748
74640 Tempo 659341
74880 Tempo 800000
74880 Meta TrkEnd
TrkEnd
MTrk
0 Meta TrkName "RH"
480 On ch=1 n=a4 v=80
588 Off ch=1 n=a4 v=64
720 On ch=1 n=d5 v=64
912 Off ch=1 n=d5 v=64
960 On ch=1 n=c#5 v=64
1056 Off ch=1 n=c#5 v=64
1080 On ch=1 n=d5 v=64
1134 Off ch=1 n=d5 v=64
1200 On ch=1 n=e5 v=64
1296 Off ch=1 n=e5 v=64
1320 On ch=1 n=f#5 v=64
1374 Off ch=1 n=f#5 v=64
1440 On ch=1 n=g5 v=64
1632 Off ch=1 n=g5 v=64
1920 On ch=1 n=e5 v=64
2028 Off ch=1 n=e5 v=64
2160 On ch=1 n=f#5 v=64
2352 Off ch=1 n=f#5 v=64
2400 On ch=1 n=e5 v=64
2496 Off ch=1 n=e5 v=64
2520 On ch=1 n=f#5 v=64
2574 Off ch=1 n=f#5 v=64
2640 On ch=1 n=g5 v=64
2736 Off ch=1 n=g5 v=64
2760 On ch=1 n=a5 v=64
2814 Off ch=1 n=a5 v=64
2880 On ch=1 n=b5 v=64
3072 Off ch=1 n=b5 v=64
3600 On ch=1 n=a5 v=64
3708 Off ch=1 n=a5 v=64
3840 On ch=1 n=a6 v=64
3948 Off ch=1 n=a6 v=64
4080 On ch=1 n=a6 v=64
4188 Off ch=1 n=a6 v=64
4320 On ch=1 n=a6 v=64
4368 Off ch=1 n=a6 v=64
4380 On ch=1 n=g6 v=64
4524 Off ch=1 n=g6 v=64
4560 On ch=1 n=f#6 v=64
4656 Off ch=1 n=f#6 v=64
4680 On ch=1 n=e6 v=64
4734 Off ch=1 n=e6 v=64
4800 On ch=1 n=d6 v=64
4896 Off ch=1 n=d6 v=64
4920 On ch=1 n=c#6 v=64
4974 Off ch=1 n=c#6 v=64
5040 On ch=1 n=d6 v=64
5148 Off ch=1 n=d6 v=64
5280 On ch=1 n=a5 v=64
5376 Off ch=1 n=a5 v=64
5400 On ch=1 n=d6 v=64
5454 Off ch=1 n=d6 v=64
5520 On ch=1 n=f#6 v=64
5616 Off ch=1 n=f#6 v=64
5640 On ch=1 n=a6 v=64
5694 Off ch=1 n=a6 v=64
5760 On ch=1 n=a6 v=64
5808 Off ch=1 n=a6 v=64
5820 On ch=1 n=g6 v=64
5964 Off ch=1 n=g6 v=64
6000 On ch=1 n=f#6 v=64
6096 Off ch=1 n=f#6 v=64
6120 On ch=1 n=e6 v=64
6174 Off ch=1 n=e6 v=64
6240 On ch=1 n=d6 v=64
6336 Off ch=1 n=d6 v=64
6360 On ch=1 n=c#6 v=64
6414 Off ch=1 n=c#6 v=64
6480 On ch=1 n=d6 v=64
6672 Off ch=1 n=d6 v=64
6720 On ch=1 n=d7 v=64
6828 Off ch=1 n=d7 v=64
7200 On ch=1 n=d7 v=64
7308 Off ch=1 n=d7 v=64
7440 On ch=1 n=d7 v=64
7548 Off ch=1 n=d7 v=64
7680 On ch=1 n=d7 v=64
7788 Off ch=1 n=d7 v=64
7920 On ch=1 n=a6 v=64
7920 On ch=1 n=c#7 v=64
8028 Off ch=1 n=c#7 v=64
8028 Off ch=1 n=a6 v=64
8160 On ch=1 n=e6 v=64
8160 On ch=1 n=c#6 v=64
8256 Off ch=1 n=c#6 v=64
8256 Off ch=1 n=e6 v=64
8280 On ch=1 n=c#6 v=64
8280 On ch=1 n=a5 v=64
8334 Off ch=1 n=a5 v=64
8334 Off ch=1 n=c#6 v=64
8400 On ch=1 n=d6 v=64
8400 On ch=1 n=b5 v=64
8496 Off ch=1 n=b5 v=64
8496 Off ch=1 n=d6 v=64
8520 On ch=1 n=b5 v=64
8520 On ch=1 n=g#5 v=64
8574 Off ch=1 n=g#5 v=64
8574 Off ch=1 n=b5 v=64
8640 On ch=1 n=a5 v=64
8640 On ch=1 n=e5 v=64
8640 On ch=1 n=c#5 v=64
8856 Off ch=1 n=c#5 v=64
8856 Off ch=1 n=e5 v=64
8856 Off ch=1 n=a5 v=64
9120 On ch=1 n=a4 v=64
9228 Off ch=1 n=a4 v=64
9360 On ch=1 n=d5 v=64
9552 Off ch=1 n=d5 v=64
9600 On ch=1 n=c#5 v=64
9696 Off ch=1 n=c#5 v=64
9720 On ch=1 n=d5 v=64
9774 Off ch=1 n=d5 v=64
9840 On ch=1 n=e5 v=64
9936 Off ch=1 n=e5 v=64
9960 On ch=1 n=f#5 v=64
10014 Off ch=1 n=f#5 v=64
10080 On ch=1 n=g5 v=64
10272 Off ch=1 n=g5 v=64
10560 On ch=1 n=e5 v=64
10668 Off ch=1 n=e5 v=64
10800 On ch=1 n=f#5 v=64
10992 Off ch=1 n=f#5 v=64
11040 On ch=1 n=e5 v=64
11136 Off ch=1 n=e5 v=64
11160 On ch=1 n=f#5 v=64
11214 Off ch=1 n=f#5 v=64
11280 On ch=1 n=g5 v=64
11376 Off ch=1 n=g5 v=64
11400 On ch=1 n=a5 v=64
11454 Off ch=1 n=a5 v=64
11520 On ch=1 n=b5 v=64
11712 Off ch=1 n=b5 v=64
12240 On ch=1 n=a5 v=64
12348 Off ch=1 n=a5 v=64
12480 On ch=1 n=a6 v=64
12588 Off ch=1 n=a6 v=64
12720 On ch=1 n=a6 v=64
12828 Off ch=1 n=a6 v=64
12960 On ch=1 n=a6 v=64
13008 Off ch=1 n=a6 v=64
13020 On ch=1 n=g6 v=64
13164 Off ch=1 n=g6 v=64
13200 On ch=1 n=f#6 v=64
13296 Off ch=1 n=f#6 v=64
13320 On ch=1 n=e6 v=64
13374 Off ch=1 n=e6 v=64
13440 On ch=1 n=d6 v=64
13536 Off ch=1 n=d6 v=64
13560 On ch=1 n=c#6 v=64
13614 Off ch=1 n=c#6 v=64
13680 On ch=1 n=d6 v=64
13788 Off ch=1 n=d6 v=64
13920 On ch=1 n=a5 v=64
14016 Off ch=1 n=a5 v=64
14040 On ch=1 n=d6 v=64
14094 Off ch=1 n=d6 v=64
14160 On ch=1 n=f#6 v=64
14256 Off ch=1 n=f#6 v=64
14280 On ch=1 n=a6 v=64
14334 Off ch=1 n=a6 v=64
14400 On ch=1 n=a6 v=64
14448 Off ch=1 n=a6 v=64
14460 On ch=1 n=g6 v=64
14604 Off ch=1 n=g6 v=64
14640 On ch=1 n=f#6 v=64
14736 Off ch=1 n=f#6 v=64
14760 On ch=1 n=e6 v=64
14814 Off ch=1 n=e6 v=64
14880 On ch=1 n=d6 v=64
14976 Off ch=1 n=d6 v=64
15000 On ch=1 n=c#6 v=64
15054 Off ch=1 n=c#6 v=64
15120 On ch=1 n=d6 v=64
15312 Off ch=1 n=d6 v=64
15360 On ch=1 n=d7 v=64
15468 Off ch=1 n=d7 v=64
15840 On ch=1 n=d7 v=64
15948 Off ch=1 n=d7 v=64
16080 On ch=1 n=d7 v=64
16188 Off ch=1 n=d7 v=64
16320 On ch=1 n=d7 v=64
16428 Off ch=1 n=d7 v=64
16560 On ch=1 n=c#7 v=64
16560 On ch=1 n=a6 v=64
16668 Off ch=1 n=a6 v=64
16668 Off ch=1 n=c#7 v=64
16800 On ch=1 n=c#6 v=64
16800 On ch=1 n=e6 v=64
16896 Off ch=1 n=e6 v=64
16896 Off ch=1 n=c#6 v=64
16920 On ch=1 n=a5 v=64
16920 On ch=1 n=c#6 v=64
16974 Off ch=1 n=c#6 v=64
16974 Off ch=1 n=a5 v=64
17040 On ch=1 n=b5 v=64
17040 On ch=1 n=d6 v=64
17136 Off ch=1 n=d6 v=64
17136 Off ch=1 n=b5 v=64
17160 On ch=1 n=g#5 v=64
17160 On ch=1 n=b5 v=64
17214 Off ch=1 n=b5 v=64
17214 Off ch=1 n=g#5 v=64
17280 On ch=1 n=c#5 v=64
17280 On ch=1 n=e5 v=64
17280 On ch=1 n=a5 v=64
17496 Off ch=1 n=a5 v=64
17496 Off ch=1 n=e5 v=64
17496 Off ch=1 n=c#5 v=64
17760 On ch=1 n=a5 v=64
17868 Off ch=1 n=a5 v=64
18000 On ch=1 n=a5 v=64
18108 Off ch=1 n=a5 v=64
18240 On ch=1 n=f#6 v=64
18294 Off ch=1 n=f#6 v=64
18360 On ch=1 n=e6 v=64
18414 Off ch=1 n=e6 v=64
18480 On ch=1 n=f#6 v=64
18534 Off ch=1 n=f#6 v=64
18600 On ch=1 n=g6 v=64
18654 Off ch=1 n=g6 v=64
18720 On ch=1 n=e6 v=64
18912 Off ch=1 n=e6 v=64
18960 On ch=1 n=a5 v=64
19068 Off ch=1 n=a5 v=64
19200 On ch=1 n=a5 v=64
19308 Off ch=1 n=a5 v=64
19440 On ch=1 n=a5 v=64
19548 Off ch=1 n=a5 v=64
19680 On ch=1 n=a6 v=64
19734 Off ch=1 n=a6 v=64
19800 On ch=1 n=g6 v=64
19854 Off ch=1 n=g6 v=64
19920 On ch=1 n=a6 v=64
19974 Off ch=1 n=a6 v=64
20040 On ch=1 n=b6 v=64
20094 Off ch=1 n=b6 v=64
20160 On ch=1 n=g6 v=64
20352 Off ch=1 n=g6 v=64
20400 On ch=1 n=a5 v=64
20508 Off ch=1 n=a5 v=64
20640 On ch=1 n=a5 v=64
20748 Off ch=1 n=a5 v=64
20880 On ch=1 n=a5 v=64
21072 Off ch=1 n=a5 v=64
21120 On ch=1 n=d6 v=64
21120 On ch=1 n=f#5 v=64
21174 Off ch=1 n=f#5 v=64
21174 Off ch=1 n=d6 v=64
21240 On ch=1 n=e5 v=64
21240 On ch=1 n=c#6 v=64
21294 Off ch=1 n=c#6 v=64
21294 Off ch=1 n=e5 v=64
21360 On ch=1 n=d6 v=64
21360 On ch=1 n=f#5 v=64
21414 Off ch=1 n=f#5 v=64
21414 Off ch=1 n=d6 v=64
21480 On ch=1 n=e6 v=64
21480 On ch=1 n=g5 v=64
21534 Off ch=1 n=g5 v=64
21534 Off ch=1 n=e6 v=64
21600 On ch=1 n=e5 v=64
21600 On ch=1 n=c#6 v=64
21792 Off ch=1 n=c#6 v=64
21792 Off ch=1 n=e5 v=64
21840 On ch=1 n=e6 v=64
21840 On ch=1 n=c#6 v=64
21894 Off ch=1 n=c#6 v=64
21894 Off ch=1 n=e6 v=64
21960 On ch=1 n=d6 v=64
21960 On ch=1 n=b5 v=64
22014 Off ch=1 n=b5 v=64
22014 Off ch=1 n=d6 v=64
22080 On ch=1 n=e6 v=64
22080 On ch=1 n=c#6 v=64
22134 Off ch=1 n=c#6 v=64
22134 Off ch=1 n=e6 v=64
22200 On ch=1 n=d6 v=64
22200 On ch=1 n=f#6 v=64
22254 Off ch=1 n=f#6 v=64
22254 Off ch=1 n=d6 v=64
22320 On ch=1 n=d6 v=64
22320 On ch=1 n=a5 v=64
22512 Off ch=1 n=a5 v=64
22512 Off ch=1 n=d6 v=64
22560 On ch=1 n=d6 v=64
22560 On ch=1 n=f#6 v=64
22614 Off ch=1 n=f#6 v=64
22614 Off ch=1 n=d6 v=64
22680 On ch=1 n=e6 v=64
22680 On ch=1 n=c#6 v=64
22734 Off ch=1 n=c#6 v=64
22734 Off ch=1 n=e6 v=64
22800 On ch=1 n=f#6 v=64
22800 On ch=1 n=d6 v=64
22854 Off ch=1 n=d6 v=64
22854 Off ch=1 n=f#6 v=64
22920 On ch=1 n=a6 v=64
22920 On ch=1 n=f#6 v=64
22974 Off ch=1 n=f#6 v=64
22974 Off ch=1 n=a6 v=64
23040 On ch=1 n=e6 v=64
23040 On ch=1 n=c#6 v=64
23232 Off ch=1 n=c#6 v=64
23232 Off ch=1 n=e6 v=64
23520 On ch=1 n=a6 v=64
23520 On ch=1 n=d6 v=64
23628 Off ch=1 n=d6 v=64
23628 Off ch=1 n=a6 v=64
23760 On ch=1 n=d7 v=64
23760 On ch=1 n=d6 v=64
23952 Off ch=1 n=d6 v=64
23952 Off ch=1 n=d7 v=64
24000 On ch=1 n=d7 v=64
24000 On ch=1 n=d6 v=64
24108 Off ch=1 n=d6 v=64
24108 Off ch=1 n=d7 v=64
24240 On ch=1 n=d6 v=64
24240 On ch=1 n=d7 v=64
24348 Off ch=1 n=d7 v=64
24348 Off ch=1 n=d6 v=64
24480 On ch=1 n=d6 v=64
24480 On ch=1 n=d7 v=64
24588 Off ch=1 n=d7 v=64
24588 Off ch=1 n=d6 v=64
24720 On ch=1 n=d7 v=64
24720 On ch=1 n=d6 v=64
24828 Off ch=1 n=d6 v=64
24828 Off ch=1 n=d7 v=64
24960 On ch=1 n=d7 v=64
24960 On ch=1 n=d6 v=64
25068 Off ch=1 n=d6 v=64
25068 Off ch=1 n=d7 v=64
25200 On ch=1 n=b6 v=64
25392 Off ch=1 n=b6 v=64
25440 On ch=1 n=a6 v=64
25440 On ch=1 n=f#6 v=64
25536 Off ch=1 n=f#6 v=64
25536 Off ch=1 n=a6 v=64
25560 On ch=1 n=g6 v=64
25560 On ch=1 n=e6 v=64
25614 Off ch=1 n=e6 v=64
25614 Off ch=1 n=g6 v=64
25680 On ch=1 n=d6 v=64
25680 On ch=1 n=f#6 v=64
25776 Off ch=1 n=f#6 v=64
25776 Off ch=1 n=d6 v=64
25800 On ch=1 n=e6 v=64
25800 On ch=1 n=c#6 v=64
25854 Off ch=1 n=c#6 v=64
25854 Off ch=1 n=e6 v=64
25920 On ch=1 n=a5 v=64
25920 On ch=1 n=f#5 v=64
25920 On ch=1 n=d6 v=64
26136 Off ch=1 n=d6 v=64
26136 Off ch=1 n=f#5 v=64
26136 Off ch=1 n=a5 v=64
26400 On ch=1 n=a5 v=64
26508 Off ch=1 n=a5 v=64
26640 On ch=1 n=a5 v=64
26748 Off ch=1 n=a5 v=64
26880 On ch=1 n=f#6 v=64
26934 Off ch=1 n=f#6 v=64
27000 On ch=1 n=e6 v=64
27054 Off ch=1 n=e6 v=64
27120 On ch=1 n=f#6 v=64
27174 Off ch=1 n=f#6 v=64
27240 On ch=1 n=g6 v=64
27294 Off ch=1 n=g6 v=64
27360 On ch=1 n=e6 v=64
27552 Off ch=1 n=e6 v=64
27600 On ch=1 n=a5 v=64
27708 Off ch=1 n=a5 v=64
27840 On ch=1 n=a5 v=64
27948 Off ch=1 n=a5 v=64
28080 On ch=1 n=a5 v=64
28188 Off ch=1 n=a5 v=64
28320 On ch=1 n=a6 v=64
28374 Off ch=1 n=a6 v=64
28440 On ch=1 n=g6 v=64
28494 Off ch=1 n=g6 v=64
28560 On ch=1 n=a6 v=64
28614 Off ch=1 n=a6 v=64
28680 On ch=1 n=b6 v=64
28734 Off ch=1 n=b6 v=64
28800 On ch=1 n=g6 v=64
28992 Off ch=1 n=g6 v=64
29040 On ch=1 n=a5 v=64
29148 Off ch=1 n=a5 v=64
29280 On ch=1 n=a5 v=64
29388 Off ch=1 n=a5 v=64
29520 On ch=1 n=a5 v=64
29712 Off ch=1 n=a5 v=64
29760 On ch=1 n=f#5 v=64
29760 On ch=1 n=d6 v=64
29814 Off ch=1 n=d6 v=64
29814 Off ch=1 n=f#5 v=64
29880 On ch=1 n=c#6 v=64
29880 On ch=1 n=e5 v=64
29934 Off ch=1 n=e5 v=64
29934 Off ch=1 n=c#6 v=64
30000 On ch=1 n=f#5 v=64
30000 On ch=1 n=d6 v=64
30054 Off ch=1 n=d6 v=64
30054 Off ch=1 n=f#5 v=64
30120 On ch=1 n=g5 v=64
30120 On ch=1 n=e6 v=64
30174 Off ch=1 n=e6 v=64
30174 Off ch=1 n=g5 v=64
30240 On ch=1 n=c#6 v=64
30240 On ch=1 n=e5 v=64
30432 Off ch=1 n=e5 v=64
30432 Off ch=1 n=c#6 v=64
30480 On ch=1 n=c#6 v=64
30480 On ch=1 n=e6 v=64
30534 Off ch=1 n=e6 v=64
30534 Off ch=1 n=c#6 v=64
30600 On ch=1 n=b5 v=64
30600 On ch=1 n=d6 v=64
30654 Off ch=1 n=d6 v=64
30654 Off ch=1 n=b5 v=64
30720 On ch=1 n=c#6 v=64
30720 On ch=1 n=e6 v=64
30774 Off ch=1 n=e6 v=64
30774 Off ch=1 n=c#6 v=64
30840 On ch=1 n=f#6 v=64
30840 On ch=1 n=d6 v=64
30894 Off ch=1 n=d6 v=64
30894 Off ch=1 n=f#6 v=64
30960 On ch=1 n=a5 v=64
30960 On ch=1 n=d6 v=64
31152 Off ch=1 n=d6 v=64
31152 Off ch=1 n=a5 v=64
31200 On ch=1 n=f#6 v=64
31200 On ch=1 n=d6 v=64
31254 Off ch=1 n=d6 v=64
31254 Off ch=1 n=f#6 v=64
31320 On ch=1 n=c#6 v=64
31320 On ch=1 n=e6 v=64
31374 Off ch=1 n=e6 v=64
31374 Off ch=1 n=c#6 v=64
31440 On ch=1 n=d6 v=64
31440 On ch=1 n=f#6 v=64
31494 Off ch=1 n=f#6 v=64
31494 Off ch=1 n=d6 v=64
31560 On ch=1 n=f#6 v=64
31560 On ch=1 n=a6 v=64
31614 Off ch=1 n=a6 v=64
31614 Off ch=1 n=f#6 v=64
31680 On ch=1 n=c#6 v=64
31680 On ch=1 n=e6 v=64
31872 Off ch=1 n=e6 v=64
31872 Off ch=1 n=c#6 v=64
32160 On ch=1 n=d6 v=64
32160 On ch=1 n=a6 v=64
32268 Off ch=1 n=a6 v=64
32268 Off ch=1 n=d6 v=64
32400 On ch=1 n=d6 v=64
32400 On ch=1 n=d7 v=64
32592 Off ch=1 n=d7 v=64
32592 Off ch=1 n=d6 v=64
32640 On ch=1 n=d6 v=64
32640 On ch=1 n=d7 v=64
32748 Off ch=1 n=d7 v=64
32748 Off ch=1 n=d6 v=64
32880 On ch=1 n=d7 v=64
32880 On ch=1 n=d6 v=64
32988 Off ch=1 n=d6 v=64
32988 Off ch=1 n=d7 v=64
33120 On ch=1 n=d7 v=64
33120 On ch=1 n=d6 v=64
33228 Off ch=1 n=d6 v=64
33228 Off ch=1 n=d7 v=64
33360 On ch=1 n=d6 v=64
33360 On ch=1 n=d7 v=64
33468 Off ch=1 n=d7 v=64
33468 Off ch=1 n=d6 v=64
33600 On ch=1 n=d6 v=64
33600 On ch=1 n=d7 v=64
33708 Off ch=1 n=d7 v=64
33708 Off ch=1 n=d6 v=64
33840 On ch=1 n=b6 v=64
34032 Off ch=1 n=b6 v=64
34080 On ch=1 n=f#6 v=64
34080 On ch=1 n=a6 v=64
34176 Off ch=1 n=a6 v=64
34176 Off ch=1 n=f#6 v=64
34200 On ch=1 n=e6 v=64
34200 On ch=1 n=g6 v=64
34254 Off ch=1 n=g6 v=64
34254 Off ch=1 n=e6 v=64
34320 On ch=1 n=f#6 v=64
34320 On ch=1 n=d6 v=64
34416 Off ch=1 n=d6 v=64
34416 Off ch=1 n=f#6 v=64
34440 On ch=1 n=c#6 v=64
34440 On ch=1 n=e6 v=64
34494 Off ch=1 n=e6 v=64
34494 Off ch=1 n=c#6 v=64
34560 On ch=1 n=d6 v=64
34560 On ch=1 n=f#5 v=64
34560 On ch=1 n=a5 v=64
34776 Off ch=1 n=a5 v=64
34776 Off ch=1 n=f#5 v=64
34776 Off ch=1 n=d6 v=64
35040 On ch=1 n=a5 v=64
35148 Off ch=1 n=a5 v=64
35280 On ch=1 n=c#6 v=64
35664 Off ch=1 n=c#6 v=64
35760 On ch=1 n=a5 v=64
35868 Off ch=1 n=a5 v=64
36000 On ch=1 n=d6 v=64
36384 Off ch=1 n=d6 v=64
36480 On ch=1 n=b5 v=64
36588 Off ch=1 n=b5 v=64
36720 On ch=1 n=a5 v=64
36774 Off ch=1 n=a5 v=64
36840 On ch=1 n=g#5 v=64
36894 Off ch=1 n=g#5 v=64
36960 On ch=1 n=a5 v=64
37014 Off ch=1 n=a5 v=64
37080 On ch=1 n=b5 v=64
37134 Off ch=1 n=b5 v=64
37200 On ch=1 n=c#6 v=64
37254 Off ch=1 n=c#6 v=64
37320 On ch=1 n=d6 v=64
37374 Off ch=1 n=d6 v=64
37440 On ch=1 n=c#6 v=64
37632 Off ch=1 n=c#6 v=64
37680 On ch=1 n=b5 v=64
37788 Off ch=1 n=b5 v=64
37920 On ch=1 n=e5 v=64
38028 Off ch=1 n=e5 v=64
38160 On ch=1 n=c#6 v=64
38544 Off ch=1 n=c#6 v=64
38640 On ch=1 n=a5 v=64
38748 Off ch=1 n=a5 v=64
38880 On ch=1 n=d6 v=64
39264 Off ch=1 n=d6 v=64
39360 On ch=1 n=b5 v=64
39468 Off ch=1 n=b5 v=64
39600 On ch=1 n=e5 v=64
39600 On ch=1 n=a5 v=64
39792 Off ch=1 n=a5 v=64
39792 Off ch=1 n=e5 v=64
39840 On ch=1 n=c#6 v=64
39840 On ch=1 n=d5 v=64
39936 Off ch=1 n=c#6 v=64
39960 On ch=1 n=b5 v=64
40014 Off ch=1 n=b5 v=64
40056 Off ch=1 n=d5 v=64
40080 On ch=1 n=a5 v=64
40080 On ch=1 n=c#5 v=64
40176 Off ch=1 n=c#5 v=64
40176 Off ch=1 n=a5 v=64
40200 On ch=1 n=b4 v=64
40200 On ch=1 n=g#5 v=64
40254 Off ch=1 n=g#5 v=64
40254 Off ch=1 n=b4 v=64
40320 On ch=1 n=a5 v=64
40320 On ch=1 n=c#5 v=64
40536 Off ch=1 n=c#5 v=64
40536 Off ch=1 n=a5 v=64
40800 On ch=1 n=a5 v=64
40908 Off ch=1 n=a5 v=64
41040 On ch=1 n=c#6 v=64
41424 Off ch=1 n=c#6 v=64
41520 On ch=1 n=a5 v=64
41628 Off ch=1 n=a5 v=64
41760 On ch=1 n=d6 v=64
42144 Off ch=1 n=d6 v=64
42240 On ch=1 n=b5 v=64
42348 Off ch=1 n=b5 v=64
42480 On ch=1 n=a5 v=64
42534 Off ch=1 n=a5 v=64
42600 On ch=1 n=g#5 v=64
42654 Off ch=1 n=g#5 v=64
42720 On ch=1 n=a5 v=64
42774 Off ch=1 n=a5 v=64
42840 On ch=1 n=b5 v=64
42894 Off ch=1 n=b5 v=64
42960 On ch=1 n=c#6 v=64
43014 Off ch=1 n=c#6 v=64
43080 On ch=1 n=d6 v=64
43134 Off ch=1 n=d6 v=64
43200 On ch=1 n=c#6 v=64
43392 Off ch=1 n=c#6 v=64
43440 On ch=1 n=b5 v=64
43548 Off ch=1 n=b5 v=64
43680 On ch=1 n=e5 v=64
43788 Off ch=1 n=e5 v=64
43920 On ch=1 n=c#6 v=64
44304 Off ch=1 n=c#6 v=64
44400 On ch=1 n=a5 v=64
44508 Off ch=1 n=a5 v=64
44640 On ch=1 n=d6 v=64
45024 Off ch=1 n=d6 v=64
45120 On ch=1 n=b5 v=64
45228 Off ch=1 n=b5 v=64
45360 On ch=1 n=a5 v=64
45360 On ch=1 n=e5 v=64
45552 Off ch=1 n=e5 v=64
45552 Off ch=1 n=a5 v=64
45600 On ch=1 n=d5 v=64
45600 On ch=1 n=c#6 v=64
45696 Off ch=1 n=c#6 v=64
45720 On ch=1 n=b5 v=64
45774 Off ch=1 n=b5 v=64
45816 Off ch=1 n=d5 v=64
45840 On ch=1 n=c#5 v=64
45840 On ch=1 n=a5 v=64
45936 Off ch=1 n=a5 v=64
45936 Off ch=1 n=c#5 v=64
45960 On ch=1 n=g#5 v=64
45960 On ch=1 n=b4 v=64
46014 Off ch=1 n=b4 v=64
46014 Off ch=1 n=g#5 v=64
46080 On ch=1 n=c#5 v=64
46080 On ch=1 n=a5 v=64
46296 Off ch=1 n=a5 v=64
46296 Off ch=1 n=c#5 v=64
46560 On ch=1 n=e5 v=64
46668 Off ch=1 n=e5 v=64
46800 On ch=1 n=e6 v=64
47184 Off ch=1 n=e6 v=64
47280 On ch=1 n=f#6 v=64
47388 Off ch=1 n=f#6 v=64
47520 On ch=1 n=e6 v=64
47712 Off ch=1 n=e6 v=64
47760 On ch=1 n=d6 v=64
47868 Off ch=1 n=d6 v=64
48000 On ch=1 n=b5 v=64
48108 Off ch=1 n=b5 v=64
48240 On ch=1 n=d6 v=64
48528 Off ch=1 n=d6 v=64
48600 On ch=1 n=e6 v=64
48696 Off ch=1 n=e6 v=64
48720 On ch=1 n=c#6 v=64
48816 Off ch=1 n=c#6 v=64
48840 On ch=1 n=d6 v=64
48936 Off ch=1 n=d6 v=64
48960 On ch=1 n=c#6 v=64
48960 On ch=1 n=a5 v=64
49152 Off ch=1 n=a5 v=64
49152 Off ch=1 n=c#6 v=64
49200 On ch=1 n=g#5 v=64
49200 On ch=1 n=b5 v=64
49308 Off ch=1 n=b5 v=64
49308 Off ch=1 n=g#5 v=64
49440 On ch=1 n=e5 v=64
49548 Off ch=1 n=e5 v=64
49680 On ch=1 n=c#6 v=64
50064 Off ch=1 n=c#6 v=64
50160 On ch=1 n=a5 v=64
50268 Off ch=1 n=a5 v=64
50400 On ch=1 n=d6 v=64
50784 Off ch=1 n=d6 v=64
50880 On ch=1 n=b5 v=64
50988 Off ch=1 n=b5 v=64
51120 On ch=1 n=e5 v=64
51120 On ch=1 n=a5 v=64
51312 Off ch=1 n=a5 v=64
51312 Off ch=1 n=e5 v=64
51360 On ch=1 n=c#6 v=64
51360 On ch=1 n=d5 v=64
51456 Off ch=1 n=c#6 v=64
51480 On ch=1 n=b5 v=64
51534 Off ch=1 n=b5 v=64
51576 Off ch=1 n=d5 v=64
51600 On ch=1 n=a5 v=64
51600 On ch=1 n=c#5 v=64
51696 Off ch=1 n=c#5 v=64
51696 Off ch=1 n=a5 v=64
51720 On ch=1 n=b4 v=64
51720 On ch=1 n=g#5 v=64
51774 Off ch=1 n=g#5 v=64
51774 Off ch=1 n=b4 v=64
51840 On ch=1 n=a5 v=64
51840 On ch=1 n=c#5 v=64
52056 Off ch=1 n=c#5 v=64
52056 Off ch=1 n=a5 v=64
52320 On ch=1 n=e5 v=64
52428 Off ch=1 n=e5 v=64
52560 On ch=1 n=e6 v=64
52944 Off ch=1 n=e6 v=64
53040 On ch=1 n=f#6 v=64
53148 Off ch=1 n=f#6 v=64
53280 On ch=1 n=e6 v=64
53472 Off ch=1 n=e6 v=64
53520 On ch=1 n=d6 v=64
53628 Off ch=1 n=d6 v=64
53760 On ch=1 n=b5 v=64
53868 Off ch=1 n=b5 v=64
54000 On ch=1 n=d6 v=64
54288 Off ch=1 n=d6 v=64
54360 On ch=1 n=e6 v=64
54456 Off ch=1 n=e6 v=64
54480 On ch=1 n=c#6 v=64
54576 Off ch=1 n=c#6 v=64
54600 On ch=1 n=d6 v=64
54696 Off ch=1 n=d6 v=64
54720 On ch=1 n=a5 v=64
54720 On ch=1 n=c#6 v=64
54912 Off ch=1 n=c#6 v=64
54912 Off ch=1 n=a5 v=64
54960 On ch=1 n=b5 v=64
54960 On ch=1 n=g#5 v=64
55068 Off ch=1 n=g#5 v=64
55068 Off ch=1 n=b5 v=64
55200 On ch=1 n=e5 v=64
55308 Off ch=1 n=e5 v=64
55440 On ch=1 n=c#6 v=64
55824 Off ch=1 n=c#6 v=64
55920 On ch=1 n=a5 v=64
56028 Off ch=1 n=a5 v=64
56160 On ch=1 n=d6 v=64
56544 Off ch=1 n=d6 v=64
56640 On ch=1 n=b5 v=64
56748 Off ch=1 n=b5 v=64
56880 On ch=1 n=a5 v=64
56880 On ch=1 n=e5 v=64
57072 Off ch=1 n=e5 v=64
57072 Off ch=1 n=a5 v=64
57120 On ch=1 n=d5 v=64
57120 On ch=1 n=c#6 v=64
57216 Off ch=1 n=c#6 v=64
57240 On ch=1 n=b5 v=64
57294 Off ch=1 n=b5 v=64
57336 Off ch=1 n=d5 v=64
57360 On ch=1 n=c#5 v=64
57360 On ch=1 n=a5 v=64
57456 Off ch=1 n=a5 v=64
57456 Off ch=1 n=c#5 v=64
57480 On ch=1 n=g#5 v=64
57480 On ch=1 n=b4 v=64
57534 Off ch=1 n=b4 v=64
57534 Off ch=1 n=g#5 v=64
57600 On ch=1 n=c#5 v=64
57600 On ch=1 n=a5 v=64
57816 Off ch=1 n=a5 v=64
57816 Off ch=1 n=c#5 v=64
58080 On ch=1 n=a4 v=64
58188 Off ch=1 n=a4 v=64
58320 On ch=1 n=d5 v=64
58512 Off ch=1 n=d5 v=64
58560 On ch=1 n=c#5 v=64
58656 Off ch=1 n=c#5 v=64
58680 On ch=1 n=d5 v=64
58734 Off ch=1 n=d5 v=64
58800 On ch=1 n=e5 v=64
58896 Off ch=1 n=e5 v=64
58920 On ch=1 n=f#5 v=64
58974 Off ch=1 n=f#5 v=64
59040 On ch=1 n=g5 v=64
59232 Off ch=1 n=g5 v=64
59520 On ch=1 n=e5 v=64
59628 Off ch=1 n=e5 v=64
59760 On ch=1 n=f#5 v=64
59952 Off ch=1 n=f#5 v=64
60000 On ch=1 n=e5 v=64
60096 Off ch=1 n=e5 v=64
60120 On ch=1 n=f#5 v=64
60174 Off ch=1 n=f#5 v=64
60240 On ch=1 n=g5 v=64
60336 Off ch=1 n=g5 v=64
60360 On ch=1 n=a5 v=64
60414 Off ch=1 n=a5 v=64
60480 On ch=1 n=b5 v=64
60672 Off ch=1 n=b5 v=64
61200 On ch=1 n=a5 v=64
61308 Off ch=1 n=a5 v=64
61440 On ch=1 n=a6 v=64
61548 Off ch=1 n=a6 v=64
61680 On ch=1 n=a6 v=64
61788 Off ch=1 n=a6 v=64
61920 On ch=1 n=a6 v=64
61968 Off ch=1 n=a6 v=64
61980 On ch=1 n=g6 v=64
62124 Off ch=1 n=g6 v=64
62160 On ch=1 n=f#6 v=64
62256 Off ch=1 n=f#6 v=64
62280 On ch=1 n=e6 v=64
62334 Off ch=1 n=e6 v=64
62400 On ch=1 n=d6 v=64
62496 Off ch=1 n=d6 v=64
62520 On ch=1 n=c#6 v=64
62574 Off ch=1 n=c#6 v=64
62640 On ch=1 n=d6 v=64
62748 Off ch=1 n=d6 v=64
62880 On ch=1 n=a5 v=64
62976 Off ch=1 n=a5 v=64
63000 On ch=1 n=d6 v=64
63054 Off ch=1 n=d6 v=64
63120 On ch=1 n=f#6 v=64
63216 Off ch=1 n=f#6 v=64
63240 On ch=1 n=a6 v=64
63294 Off ch=1 n=a6 v=64
63360 On ch=1 n=a6 v=64
63408 Off ch=1 n=a6 v=64
63420 On ch=1 n=g6 v=64
63564 Off ch=1 n=g6 v=64
63600 On ch=1 n=f#6 v=64
63696 Off ch=1 n=f#6 v=64
63720 On ch=1 n=e6 v=64
63774 Off ch=1 n=e6 v=64
63840 On ch=1 n=d6 v=64
63936 Off ch=1 n=d6 v=64
63960 On ch=1 n=c#6 v=64
64014 Off ch=1 n=c#6 v=64
64080 On ch=1 n=d6 v=64
64272 Off ch=1 n=d6 v=64
64320 On ch=1 n=d7 v=64
64428 Off ch=1 n=d7 v=64
64800 On ch=1 n=d7 v=64
64908 Off ch=1 n=d7 v=64
65040 On ch=1 n=d7 v=64
65148 Off ch=1 n=d7 v=64
65280 On ch=1 n=d7 v=64
65388 Off ch=1 n=d7 v=64
65520 On ch=1 n=a6 v=64
65520 On ch=1 n=c#7 v=64
65628 Off ch=1 n=c#7 v=64
65628 Off ch=1 n=a6 v=64
65760 On ch=1 n=e6 v=64
65760 On ch=1 n=c#6 v=64
65856 Off ch=1 n=c#6 v=64
65856 Off ch=1 n=e6 v=64
65880 On ch=1 n=c#6 v=64
65880 On ch=1 n=a5 v=64
65934 Off ch=1 n=a5 v=64
65934 Off ch=1 n=c#6 v=64
66000 On ch=1 n=d6 v=64
66000 On ch=1 n=b5 v=64
66096 Off ch=1 n=b5 v=64
66096 Off ch=1 n=d6 v=64
66120 On ch=1 n=b5 v=64
66120 On ch=1 n=g#5 v=64
66174 Off ch=1 n=g#5 v=64
66174 Off ch=1 n=b5 v=64
66240 On ch=1 n=a5 v=64
66240 On ch=1 n=e5 v=64
66240 On ch=1 n=c#5 v=64
66456 Off ch=1 n=c#5 v=64
66456 Off ch=1 n=e5 v=64
66456 Off ch=1 n=a5 v=64
66720 On ch=1 n=a5 v=64
66828 Off ch=1 n=a5 v=64
66960 On ch=1 n=a5 v=64
67068 Off ch=1 n=a5 v=64
67200 On ch=1 n=f#6 v=64
67254 Off ch=1 n=f#6 v=64
67320 On ch=1 n=e6 v=64
67374 Off ch=1 n=e6 v=64
67440 On ch=1 n=f#6 v=64
67494 Off ch=1 n=f#6 v=64
67560 On ch=1 n=g6 v=64
67614 Off ch=1 n=g6 v=64
67680 On ch=1 n=e6 v=64
67872 Off ch=1 n=e6 v=64
67920 On ch=1 n=a5 v=64
68028 Off ch=1 n=a5 v=64
68160 On ch=1 n=a5 v=64
68268 Off ch=1 n=a5 v=64
68400 On ch=1 n=a5 v=64
68508 Off ch=1 n=a5 v=64
68640 On ch=1 n=a6 v=64
68694 Off ch=1 n=a6 v=64
68760 On ch=1 n=g6 v=64
68814 Off ch=1 n=g6 v=64
68880 On ch=1 n=a6 v=64
68934 Off ch=1 n=a6 v=64
69000 On ch=1 n=b6 v=64
69054 Off ch=1 n=b6 v=64
69120 On ch=1 n=g6 v=64
69312 Off ch=1 n=g6 v=64
69360 On ch=1 n=a5 v=64
69468 Off ch=1 n=a5 v=64
69600 On ch=1 n=a5 v=64
69708 Off ch=1 n=a5 v=64
69840 On ch=1 n=a5 v=64
70032 Off ch=1 n=a5 v=64
70080 On ch=1 n=f#5 v=64
70080 On ch=1 n=d6 v=64
70134 Off ch=1 n=d6 v=64
70134 Off ch=1 n=f#5 v=64
70200 On ch=1 n=c#6 v=64
70200 On ch=1 n=e5 v=64
70254 Off ch=1 n=e5 v=64
70254 Off ch=1 n=c#6 v=64
70320 On ch=1 n=f#5 v=64
70320 On ch=1 n=d6 v=64
70374 Off ch=1 n=d6 v=64
70374 Off ch=1 n=f#5 v=64
70440 On ch=1 n=g5 v=64
70440 On ch=1 n=e6 v=64
70494 Off ch=1 n=e6 v=64
70494 Off ch=1 n=g5 v=64
70560 On ch=1 n=c#6 v=64
70560 On ch=1 n=e5 v=64
70752 Off ch=1 n=e5 v=64
70752 Off ch=1 n=c#6 v=64
70800 On ch=1 n=c#6 v=64
70800 On ch=1 n=e6 v=64
70854 Off ch=1 n=e6 v=64
70854 Off ch=1 n=c#6 v=64
70920 On ch=1 n=b5 v=64
70920 On ch=1 n=d6 v=64
70974 Off ch=1 n=d6 v=64
70974 Off ch=1 n=b5 v=64
71040 On ch=1 n=c#6 v=64
71040 On ch=1 n=e6 v=64
71094 Off ch=1 n=e6 v=64
71094 Off ch=1 n=c#6 v=64
71160 On ch=1 n=f#6 v=64
71160 On ch=1 n=d6 v=64
71214 Off ch=1 n=d6 v=64
71214 Off ch=1 n=f#6 v=64
71280 On ch=1 n=a5 v=64
71280 On ch=1 n=d6 v=64
71472 Off ch=1 n=d6 v=64
71472 Off ch=1 n=a5 v=64
71520 On ch=1 n=f#6 v=64
71520 On ch=1 n=d6 v=64
71574 Off ch=1 n=d6 v=64
71574 Off ch=1 n=f#6 v=64
71640 On ch=1 n=c#6 v=64
71640 On ch=1 n=e6 v=64
71694 Off ch=1 n=e6 v=64
71694 Off ch=1 n=c#6 v=64
71760 On ch=1 n=d6 v=64
71760 On ch=1 n=f#6 v=64
71814 Off ch=1 n=f#6 v=64
71814 Off ch=1 n=d6 v=64
71880 On ch=1 n=f#6 v=64
71880 On ch=1 n=a6 v=64
71934 Off ch=1 n=a6 v=64
71934 Off ch=1 n=f#6 v=64
72000 On ch=1 n=c#6 v=64
72000 On ch=1 n=e6 v=64
72192 Off ch=1 n=e6 v=64
72192 Off ch=1 n=c#6 v=64
72480 On ch=1 n=d6 v=64
72480 On ch=1 n=a6 v=64
72588 Off ch=1 n=a6 v=64
72588 Off ch=1 n=d6 v=64
72720 On ch=1 n=d6 v=64
72720 On ch=1 n=d7 v=64
72912 Off ch=1 n=d7 v=64
72912 Off ch=1 n=d6 v=64
72960 On ch=1 n=d6 v=64
72960 On ch=1 n=d7 v=64
73068 Off ch=1 n=d7 v=64
73068 Off ch=1 n=d6 v=64
73200 On ch=1 n=d7 v=64
73200 On ch=1 n=d6 v=64
73308 Off ch=1 n=d6 v=64
73308 Off ch=1 n=d7 v=64
73440 On ch=1 n=d7 v=64
73440 On ch=1 n=d6 v=64
73548 Off ch=1 n=d6 v=64
73548 Off ch=1 n=d7 v=64
73680 On ch=1 n=d6 v=64
73680 On ch=1 n=d7 v=64
73788 Off ch=1 n=d7 v=64
73788 Off ch=1 n=d6 v=64
73920 On ch=1 n=d6 v=64
73920 On ch=1 n=d7 v=64
74028 Off ch=1 n=d7 v=64
74028 Off ch=1 n=d6 v=64
74160 On ch=1 n=b6 v=64
74352 Off ch=1 n=b6 v=64
74400 On ch=1 n=f#6 v=64
74400 On ch=1 n=a6 v=64
74496 Off ch=1 n=a6 v=64
74496 Off ch=1 n=f#6 v=64
74520 On ch=1 n=e6 v=64
74520 On ch=1 n=g6 v=64
74574 Off ch=1 n=g6 v=64
74574 Off ch=1 n=e6 v=64
74640 On ch=1 n=f#6 v=64
74640 On ch=1 n=d6 v=64
74736 Off ch=1 n=d6 v=64
74736 Off ch=1 n=f#6 v=64
74760 On ch=1 n=c#6 v=64
74760 On ch=1 n=e6 v=64
74814 Off ch=1 n=e6 v=64
74814 Off ch=1 n=c#6 v=64
74880 On ch=1 n=d6 v=64
74880 On ch=1 n=f#5 v=64
74880 On ch=1 n=a5 v=64
75096 Off ch=1 n=a5 v=64
75096 Off ch=1 n=f#5 v=64
75096 Off ch=1 n=d6 v=64
75096 Meta TrkEnd
TrkEnd
MTrk
0 Meta TrkName "RH/LH"
6480 On ch=1 n=d6 v=64
6672 Off ch=1 n=d6 v=64
6720 On ch=1 n=f#6 v=64
6828 Off ch=1 n=f#6 v=64
6960 On ch=1 n=g6 v=64
6984 Off ch=1 n=g6 v=64
6990 On ch=1 n=f#6 v=64
7014 Off ch=1 n=f#6 v=64
7020 On ch=1 n=g6 v=64
7044 Off ch=1 n=g6 v=64
7050 On ch=1 n=f#6 v=64
7074 Off ch=1 n=f#6 v=64
7080 On ch=1 n=g6 v=64
7104 Off ch=1 n=g6 v=64
7110 On ch=1 n=f#6 v=64
7134 Off ch=1 n=f#6 v=64
7140 On ch=1 n=e6 v=64
7164 Off ch=1 n=e6 v=64
7170 On ch=1 n=f#6 v=64
7194 Off ch=1 n=f#6 v=64
7200 On ch=1 n=g#6 v=64
7296 Off ch=1 n=g#6 v=64
7320 On ch=1 n=e6 v=64
7374 Off ch=1 n=e6 v=64
7440 On ch=1 n=a6 v=64
7536 Off ch=1 n=a6 v=64
7560 On ch=1 n=e6 v=64
7614 Off ch=1 n=e6 v=64
7680 On ch=1 n=b6 v=64
7776 Off ch=1 n=b6 v=64
7800 On ch=1 n=e6 v=64
7854 Off ch=1 n=e6 v=64
15120 On ch=1 n=d6 v=64
15312 Off ch=1 n=d6 v=64
15360 On ch=1 n=f#6 v=64
15468 Off ch=1 n=f#6 v=64
15600 On ch=1 n=g6 v=64
15624 Off ch=1 n=g6 v=64
15630 On ch=1 n=f#6 v=64
15654 Off ch=1 n=f#6 v=64
15660 On ch=1 n=g6 v=64
15684 Off ch=1 n=g6 v=64
15690 On ch=1 n=f#6 v=64
15714 Off ch=1 n=f#6 v=64
15720 On ch=1 n=g6 v=64
15744 Off ch=1 n=g6 v=64
15750 On ch=1 n=f#6 v=64
15774 Off ch=1 n=f#6 v=64
15780 On ch=1 n=e6 v=64
15804 Off ch=1 n=e6 v=64
15810 On ch=1 n=f#6 v=64
15834 Off ch=1 n=f#6 v=64
15840 On ch=1 n=g#6 v=64
15936 Off ch=1 n=g#6 v=64
15960 On ch=1 n=e6 v=64
16014 Off ch=1 n=e6 v=64
16080 On ch=1 n=a6 v=64
16176 Off ch=1 n=a6 v=64
16200 On ch=1 n=e6 v=64
16254 Off ch=1 n=e6 v=64
16320 On ch=1 n=b6 v=64
16416 Off ch=1 n=b6 v=64
16440 On ch=1 n=e6 v=64
16494 Off ch=1 n=e6 v=64
25200 On ch=1 n=d6 v=64
25296 Off ch=1 n=d6 v=64
25320 On ch=1 n=g6 v=64
25374 Off ch=1 n=g6 v=64
33840 On ch=1 n=d6 v=64
33936 Off ch=1 n=d6 v=64
33960 On ch=1 n=g6 v=64
34014 Off ch=1 n=g6 v=64
46800 On ch=1 n=c#6 v=64
46896 Off ch=1 n=c#6 v=64
46920 On ch=1 n=b5 v=64
46974 Off ch=1 n=b5 v=64
47040 On ch=1 n=a#5 v=64
47136 Off ch=1 n=a#5 v=64
47160 On ch=1 n=b5 v=64
47214 Off ch=1 n=b5 v=64
47280 On ch=1 n=c#6 v=64
47376 Off ch=1 n=c#6 v=64
47400 On ch=1 n=a#5 v=64
47454 Off ch=1 n=a#5 v=64
47520 On ch=1 n=b5 v=64
47574 Off ch=1 n=b5 v=64
47640 On ch=1 n=f#5 v=64
47736 Off ch=1 n=f#5 v=64
47760 On ch=1 n=b5 v=64
47856 Off ch=1 n=b5 v=64
47880 On ch=1 n=a5 v=64
47976 Off ch=1 n=a5 v=64
48000 On ch=1 n=g#5 v=64
48096 Off ch=1 n=g#5 v=64
48120 On ch=1 n=f#5 v=64
48216 Off ch=1 n=f#5 v=64
48240 On ch=1 n=g#5 v=64
48336 Off ch=1 n=g#5 v=64
48360 On ch=1 n=a5 v=64
48414 Off ch=1 n=a5 v=64
48480 On ch=1 n=b5 v=64
48576 Off ch=1 n=b5 v=64
48600 On ch=1 n=c#6 v=64
48654 Off ch=1 n=c#6 v=64
48720 On ch=1 n=a5 v=64
48816 Off ch=1 n=a5 v=64
48840 On ch=1 n=b5 v=64
48894 Off ch=1 n=b5 v=64
52560 On ch=1 n=c#6 v=64
52656 Off ch=1 n=c#6 v=64
52680 On ch=1 n=b5 v=64
52734 Off ch=1 n=b5 v=64
52800 On ch=1 n=a#5 v=64
52896 Off ch=1 n=a#5 v=64
52920 On ch=1 n=b5 v=64
52974 Off ch=1 n=b5 v=64
53040 On ch=1 n=c#6 v=64
53136 Off ch=1 n=c#6 v=64
53160 On ch=1 n=a#5 v=64
53214 Off ch=1 n=a#5 v=64
53280 On ch=1 n=b5 v=64
53334 Off ch=1 n=b5 v=64
53400 On ch=1 n=f#5 v=64
53496 Off ch=1 n=f#5 v=64
53520 On ch=1 n=b5 v=64
53616 Off ch=1 n=b5 v=64
53640 On ch=1 n=a5 v=64
53736 Off ch=1 n=a5 v=64
53760 On ch=1 n=g#5 v=64
53856 Off ch=1 n=g#5 v=64
53880 On ch=1 n=f#5 v=64
53976 Off ch=1 n=f#5 v=64
54000 On ch=1 n=g#5 v=64
54096 Off ch=1 n=g#5 v=64
54120 On ch=1 n=a5 v=64
54174 Off ch=1 n=a5 v=64
54240 On ch=1 n=b5 v=64
54336 Off ch=1 n=b5 v=64
54360 On ch=1 n=c#6 v=64
54414 Off ch=1 n=c#6 v=64
54480 On ch=1 n=a5 v=64
54576 Off ch=1 n=a5 v=64
54600 On ch=1 n=b5 v=64
54654 Off ch=1 n=b5 v=64
64080 On ch=1 n=d6 v=64
64272 Off ch=1 n=d6 v=64
64320 On ch=1 n=f#6 v=64
64428 Off ch=1 n=f#6 v=64
64560 On ch=1 n=g6 v=64
64584 Off ch=1 n=g6 v=64
64590 On ch=1 n=f#6 v=64
64614 Off ch=1 n=f#6 v=64
64620 On ch=1 n=g6 v=64
64644 Off ch=1 n=g6 v=64
64650 On ch=1 n=f#6 v=64
64674 Off ch=1 n=f#6 v=64
64680 On ch=1 n=g6 v=64
64704 Off ch=1 n=g6 v=64
64710 On ch=1 n=f#6 v=64
64734 Off ch=1 n=f#6 v=64
64740 On ch=1 n=e6 v=64
64764 Off ch=1 n=e6 v=64
64770 On ch=1 n=f#6 v=64
64794 Off ch=1 n=f#6 v=64
64800 On ch=1 n=g#6 v=64
64896 Off ch=1 n=g#6 v=64
64920 On ch=1 n=e6 v=64
64974 Off ch=1 n=e6 v=64
65040 On ch=1 n=a6 v=64
65136 Off ch=1 n=a6 v=64
65160 On ch=1 n=e6 v=64
65214 Off ch=1 n=e6 v=64
65280 On ch=1 n=b6 v=64
65376 Off ch=1 n=b6 v=64
65400 On ch=1 n=e6 v=64
65454 Off ch=1 n=e6 v=64
74160 On ch=1 n=d6 v=64
74256 Off ch=1 n=d6 v=64
74280 On ch=1 n=g6 v=64
74334 Off ch=1 n=g6 v=64
74334 Meta TrkEnd
TrkEnd
MTrk
0 Meta TrkName "RH/LH"
720 On ch=1 n=a4 v=64
774 Off ch=1 n=a4 v=64
840 On ch=1 n=a4 v=64
894 Off ch=1 n=a4 v=64
960 On ch=1 n=a4 v=64
1014 Off ch=1 n=a4 v=64
1080 On ch=1 n=a4 v=64
1134 Off ch=1 n=a4 v=64
1200 On ch=1 n=a4 v=64
1254 Off ch=1 n=a4 v=64
1320 On ch=1 n=a4 v=64
1374 Off ch=1 n=a4 v=64
1440 On ch=1 n=a4 v=64
1494 Off ch=1 n=a4 v=64
1560 On ch=1 n=a4 v=64
1614 Off ch=1 n=a4 v=64
1680 On ch=1 n=a4 v=64
1734 Off ch=1 n=a4 v=64
1800 On ch=1 n=a4 v=64
1854 Off ch=1 n=a4 v=64
1920 On ch=1 n=a4 v=64
1974 Off ch=1 n=a4 v=64
2040 On ch=1 n=a4 v=64
2094 Off ch=1 n=a4 v=64
2160 On ch=1 n=a4 v=64
2214 Off ch=1 n=a4 v=64
2280 On ch=1 n=d5 v=64
2334 Off ch=1 n=d5 v=64
2400 On ch=1 n=d5 v=64
2454 Off ch=1 n=d5 v=64
2520 On ch=1 n=d5 v=64
2574 Off ch=1 n=d5 v=64
2640 On ch=1 n=d5 v=64
2694 Off ch=1 n=d5 v=64
2760 On ch=1 n=d5 v=64
2814 Off ch=1 n=d5 v=64
2880 On ch=1 n=d5 v=64
2934 Off ch=1 n=d5 v=64
3000 On ch=1 n=d5 v=64
3054 Off ch=1 n=d5 v=64
3120 On ch=1 n=d5 v=64
3174 Off ch=1 n=d5 v=64
3240 On ch=1 n=d5 v=64
3294 Off ch=1 n=d5 v=64
3360 On ch=1 n=d5 v=64
3414 Off ch=1 n=d5 v=64
3480 On ch=1 n=d5 v=64
3534 Off ch=1 n=d5 v=64
3600 On ch=1 n=d5 v=64
3600 On ch=1 n=f#4 v=64
3792 Off ch=1 n=f#4 v=64
3792 Off ch=1 n=d5 v=64
4080 On ch=1 n=d4 v=64
4188 Off ch=1 n=d4 v=64
4320 On ch=1 n=c#4 v=64
4512 Off ch=1 n=c#4 v=64
4560 On ch=1 n=e4 v=64
4668 Off ch=1 n=e4 v=64
4800 On ch=1 n=g4 v=64
4908 Off ch=1 n=g4 v=64
5040 On ch=1 n=f#4 v=64
5232 Off ch=1 n=f#4 v=64
5520 On ch=1 n=d4 v=64
5628 Off ch=1 n=d4 v=64
5760 On ch=1 n=c#4 v=64
5952 Off ch=1 n=c#4 v=64
6000 On ch=1 n=e4 v=64
6108 Off ch=1 n=e4 v=64
6240 On ch=1 n=g4 v=64
6348 Off ch=1 n=g4 v=64
6480 On ch=1 n=f#4 v=64
6672 Off ch=1 n=f#4 v=64
6720 On ch=1 n=d5 v=64
6828 Off ch=1 n=d5 v=64
6960 On ch=1 n=c#5 v=64
7068 Off ch=1 n=c#5 v=64
7200 On ch=1 n=b4 v=64
7392 Off ch=1 n=b4 v=64
7440 On ch=1 n=a4 v=64
7548 Off ch=1 n=a4 v=64
7680 On ch=1 n=g#4 v=64
7788 Off ch=1 n=g#4 v=64
7920 On ch=1 n=a4 v=64
8028 Off ch=1 n=a4 v=64
8160 On ch=1 n=e5 v=64
8268 Off ch=1 n=e5 v=64
8400 On ch=1 n=e4 v=64
8508 Off ch=1 n=e4 v=64
8640 On ch=1 n=a4 v=64
8748 Off ch=1 n=a4 v=64
8880 On ch=1 n=a3 v=64
8988 Off ch=1 n=a3 v=64
9360 On ch=1 n=a4 v=64
9414 Off ch=1 n=a4 v=64
9480 On ch=1 n=a4 v=64
9534 Off ch=1 n=a4 v=64
9600 On ch=1 n=a4 v=64
9654 Off ch=1 n=a4 v=64
9720 On ch=1 n=a4 v=64
9774 Off ch=1 n=a4 v=64
9840 On ch=1 n=a4 v=64
9894 Off ch=1 n=a4 v=64
9960 On ch=1 n=a4 v=64
10014 Off ch=1 n=a4 v=64
10080 On ch=1 n=a4 v=64
10134 Off ch=1 n=a4 v=64
10200 On ch=1 n=a4 v=64
10254 Off ch=1 n=a4 v=64
10320 On ch=1 n=a4 v=64
10374 Off ch=1 n=a4 v=64
10440 On ch=1 n=a4 v=64
10494 Off ch=1 n=a4 v=64
10560 On ch=1 n=a4 v=64
10614 Off ch=1 n=a4 v=64
10680 On ch=1 n=a4 v=64
10734 Off ch=1 n=a4 v=64
10800 On ch=1 n=a4 v=64
10854 Off ch=1 n=a4 v=64
10920 On ch=1 n=d5 v=64
10974 Off ch=1 n=d5 v=64
11040 On ch=1 n=d5 v=64
11094 Off ch=1 n=d5 v=64
11160 On ch=1 n=d5 v=64
11214 Off ch=1 n=d5 v=64
11280 On ch=1 n=d5 v=64
11334 Off ch=1 n=d5 v=64
11400 On ch=1 n=d5 v=64
11454 Off ch=1 n=d5 v=64
11520 On ch=1 n=d5 v=64
11574 Off ch=1 n=d5 v=64
11640 On ch=1 n=d5 v=64
11736 Off ch=1 n=d5 v=64
11760 On ch=1 n=d5 v=64
11814 Off ch=1 n=d5 v=64
11880 On ch=1 n=d5 v=64
11934 Off ch=1 n=d5 v=64
12000 On ch=1 n=d5 v=64
12054 Off ch=1 n=d5 v=64
12120 On ch=1 n=d5 v=64
12174 Off ch=1 n=d5 v=64
12240 On ch=1 n=f#4 v=64
12240 On ch=1 n=d5 v=64
12432 Off ch=1 n=d5 v=64
12432 Off ch=1 n=f#4 v=64
12720 On ch=1 n=d4 v=64
12828 Off ch=1 n=d4 v=64
12960 On ch=1 n=c#4 v=64
13152 Off ch=1 n=c#4 v=64
13200 On ch=1 n=e4 v=64
13308 Off ch=1 n=e4 v=64
13440 On ch=1 n=g4 v=64
13548 Off ch=1 n=g4 v=64
13680 On ch=1 n=f#4 v=64
13872 Off ch=1 n=f#4 v=64
14160 On ch=1 n=d4 v=64
14268 Off ch=1 n=d4 v=64
14400 On ch=1 n=c#4 v=64
14592 Off ch=1 n=c#4 v=64
14640 On ch=1 n=e4 v=64
14748 Off ch=1 n=e4 v=64
14880 On ch=1 n=g4 v=64
14988 Off ch=1 n=g4 v=64
15120 On ch=1 n=f#4 v=64
15312 Off ch=1 n=f#4 v=64
15360 On ch=1 n=d5 v=64
15468 Off ch=1 n=d5 v=64
15600 On ch=1 n=c#5 v=64
15708 Off ch=1 n=c#5 v=64
15840 On ch=1 n=b4 v=64
16032 Off ch=1 n=b4 v=64
16080 On ch=1 n=a4 v=64
16188 Off ch=1 n=a4 v=64
16320 On ch=1 n=g#4 v=64
16428 Off ch=1 n=g#4 v=64
16560 On ch=1 n=a4 v=64
16668 Off ch=1 n=a4 v=64
16800 On ch=1 n=e5 v=64
16908 Off ch=1 n=e5 v=64
17040 On ch=1 n=e4 v=64
17148 Off ch=1 n=e4 v=64
17280 On ch=1 n=a4 v=64
17388 Off ch=1 n=a4 v=64
17520 On ch=1 n=a3 v=64
17628 Off ch=1 n=a3 v=64
17760 On ch=1 n=a4 v=64
17760 On ch=1 n=a3 v=64
17868 Off ch=1 n=a3 v=64
17868 Off ch=1 n=a4 v=64
18000 On ch=1 n=a4 v=64
18000 On ch=1 n=a3 v=64
18108 Off ch=1 n=a3 v=64
18108 Off ch=1 n=a4 v=64
18240 On ch=1 n=d5 v=64
18294 Off ch=1 n=d5 v=64
18360 On ch=1 n=c#5 v=64
18414 Off ch=1 n=c#5 v=64
18480 On ch=1 n=d5 v=64
18534 Off ch=1 n=d5 v=64
18600 On ch=1 n=e5 v=64
18654 Off ch=1 n=e5 v=64
18720 On ch=1 n=c#5 v=64
18912 Off ch=1 n=c#5 v=64
18960 On ch=1 n=a3 v=64
18960 On ch=1 n=a4 v=64
19068 Off ch=1 n=a4 v=64
19068 Off ch=1 n=a3 v=64
19200 On ch=1 n=a3 v=64
19200 On ch=1 n=a4 v=64
19308 Off ch=1 n=a4 v=64
19308 Off ch=1 n=a3 v=64
19440 On ch=1 n=a3 v=64
19440 On ch=1 n=a4 v=64
19548 Off ch=1 n=a4 v=64
19548 Off ch=1 n=a3 v=64
19680 On ch=1 n=f#5 v=64
19734 Off ch=1 n=f#5 v=64
19800 On ch=1 n=e5 v=64
19854 Off ch=1 n=e5 v=64
19920 On ch=1 n=f#5 v=64
19974 Off ch=1 n=f#5 v=64
20040 On ch=1 n=g5 v=64
20094 Off ch=1 n=g5 v=64
20160 On ch=1 n=e5 v=64
20352 Off ch=1 n=e5 v=64
20400 On ch=1 n=a4 v=64
20400 On ch=1 n=a3 v=64
20508 Off ch=1 n=a3 v=64
20508 Off ch=1 n=a4 v=64
20640 On ch=1 n=a4 v=64
20640 On ch=1 n=a3 v=64
20748 Off ch=1 n=a3 v=64
20748 Off ch=1 n=a4 v=64
20880 On ch=1 n=a4 v=64
20880 On ch=1 n=a3 v=64
21072 Off ch=1 n=a3 v=64
21072 Off ch=1 n=a4 v=64
21600 On ch=1 n=a4 v=64
21600 On ch=1 n=g4 v=64
21792 Off ch=1 n=g4 v=64
21792 Off ch=1 n=a4 v=64
22320 On ch=1 n=a4 v=64
22320 On ch=1 n=f#4 v=64
22512 Off ch=1 n=f#4 v=64
22512 Off ch=1 n=a4 v=64
22800 On ch=1 n=d4 v=64
22908 Off ch=1 n=d4 v=64
23040 On ch=1 n=a4 v=64
23232 Off ch=1 n=a4 v=64
23280 On ch=1 n=g4 v=64
23472 Off ch=1 n=g4 v=64
23520 On ch=1 n=f#4 v=64
23628 Off ch=1 n=f#4 v=64
23760 On ch=1 n=b4 v=64
23760 On ch=1 n=d5 v=64
23952 Off ch=1 n=d5 v=64
23952 Off ch=1 n=b4 v=64
24000 On ch=1 n=a4 v=64
24000 On ch=1 n=c#5 v=64
24108 Off ch=1 n=c#5 v=64
24108 Off ch=1 n=a4 v=64
24240 On ch=1 n=b4 v=64
24240 On ch=1 n=g4 v=64
24348 Off ch=1 n=g4 v=64
24348 Off ch=1 n=b4 v=64
24480 On ch=1 n=a4 v=64
24480 On ch=1 n=f#4 v=64
24672 Off ch=1 n=f#4 v=64
24672 Off ch=1 n=a4 v=64
24720 On ch=1 n=g4 v=64
24720 On ch=1 n=e4 v=64
24828 Off ch=1 n=e4 v=64
24828 Off ch=1 n=g4 v=64
24960 On ch=1 n=f#4 v=64
24960 On ch=1 n=d4 v=64
25068 Off ch=1 n=d4 v=64
25068 Off ch=1 n=f#4 v=64
25200 On ch=1 n=g4 v=64
25392 Off ch=1 n=g4 v=64
25440 On ch=1 n=a4 v=64
25548 Off ch=1 n=a4 v=64
25680 On ch=1 n=a3 v=64
25788 Off ch=1 n=a3 v=64
25920 On ch=1 n=d4 v=64
26028 Off ch=1 n=d4 v=64
26160 On ch=1 n=d5 v=64
26268 Off ch=1 n=d5 v=64
26400 On ch=1 n=a3 v=64
26400 On ch=1 n=a4 v=64
26508 Off ch=1 n=a4 v=64
26508 Off ch=1 n=a3 v=64
26640 On ch=1 n=a3 v=64
26640 On ch=1 n=a4 v=64
26748 Off ch=1 n=a4 v=64
26748 Off ch=1 n=a3 v=64
26880 On ch=1 n=d5 v=64
26934 Off ch=1 n=d5 v=64
27000 On ch=1 n=c#5 v=64
27054 Off ch=1 n=c#5 v=64
27120 On ch=1 n=d5 v=64
27174 Off ch=1 n=d5 v=64
27240 On ch=1 n=e5 v=64
27294 Off ch=1 n=e5 v=64
27360 On ch=1 n=c#5 v=64
27552 Off ch=1 n=c#5 v=64
27600 On ch=1 n=a4 v=64
27600 On ch=1 n=a3 v=64
27708 Off ch=1 n=a3 v=64
27708 Off ch=1 n=a4 v=64
27840 On ch=1 n=a4 v=64
27840 On ch=1 n=a3 v=64
27948 Off ch=1 n=a3 v=64
27948 Off ch=1 n=a4 v=64
28080 On ch=1 n=a4 v=64
28080 On ch=1 n=a3 v=64
28188 Off ch=1 n=a3 v=64
28188 Off ch=1 n=a4 v=64
28320 On ch=1 n=f#5 v=64
28374 Off ch=1 n=f#5 v=64
28440 On ch=1 n=e5 v=64
28494 Off ch=1 n=e5 v=64
28560 On ch=1 n=f#5 v=64
28614 Off ch=1 n=f#5 v=64
28680 On ch=1 n=g5 v=64
28734 Off ch=1 n=g5 v=64
28800 On ch=1 n=e5 v=64
28992 Off ch=1 n=e5 v=64
29040 On ch=1 n=a3 v=64
29040 On ch=1 n=a4 v=64
29148 Off ch=1 n=a4 v=64
29148 Off ch=1 n=a3 v=64
29280 On ch=1 n=a3 v=64
29280 On ch=1 n=a4 v=64
29388 Off ch=1 n=a4 v=64
29388 Off ch=1 n=a3 v=64
29520 On ch=1 n=a3 v=64
29520 On ch=1 n=a4 v=64
29712 Off ch=1 n=a4 v=64
29712 Off ch=1 n=a3 v=64
30240 On ch=1 n=g4 v=64
30240 On ch=1 n=a4 v=64
30432 Off ch=1 n=a4 v=64
30432 Off ch=1 n=g4 v=64
30960 On ch=1 n=f#4 v=64
30960 On ch=1 n=a4 v=64
31152 Off ch=1 n=a4 v=64
31152 Off ch=1 n=f#4 v=64
31440 On ch=1 n=d4 v=64
31548 Off ch=1 n=d4 v=64
31680 On ch=1 n=a4 v=64
31872 Off ch=1 n=a4 v=64
31920 On ch=1 n=g4 v=64
32112 Off ch=1 n=g4 v=64
32160 On ch=1 n=f#4 v=64
32268 Off ch=1 n=f#4 v=64
32400 On ch=1 n=d5 v=64
32400 On ch=1 n=b4 v=64
32592 Off ch=1 n=b4 v=64
32592 Off ch=1 n=d5 v=64
32640 On ch=1 n=c#5 v=64
32640 On ch=1 n=a4 v=64
32748 Off ch=1 n=a4 v=64
32748 Off ch=1 n=c#5 v=64
32880 On ch=1 n=g4 v=64
32880 On ch=1 n=b4 v=64
32988 Off ch=1 n=b4 v=64
32988 Off ch=1 n=g4 v=64
33120 On ch=1 n=f#4 v=64
33120 On ch=1 n=a4 v=64
33312 Off ch=1 n=a4 v=64
33312 Off ch=1 n=f#4 v=64
33360 On ch=1 n=e4 v=64
33360 On ch=1 n=g4 v=64
33468 Off ch=1 n=g4 v=64
33468 Off ch=1 n=e4 v=64
33600 On ch=1 n=d4 v=64
33600 On ch=1 n=f#4 v=64
33708 Off ch=1 n=f#4 v=64
33708 Off ch=1 n=d4 v=64
33840 On ch=1 n=g4 v=64
34032 Off ch=1 n=g4 v=64
34080 On ch=1 n=a4 v=64
34188 Off ch=1 n=a4 v=64
34320 On ch=1 n=a3 v=64
34428 Off ch=1 n=a3 v=64
34560 On ch=1 n=d4 v=64
34668 Off ch=1 n=d4 v=64
34800 On ch=1 n=d5 v=64
34908 Off ch=1 n=d5 v=64
35040 On ch=1 n=a4 v=64
35040 On ch=1 n=a3 v=64
35148 Off ch=1 n=a3 v=64
35148 Off ch=1 n=a4 v=64
35280 On ch=1 n=a4 v=64
35376 Off ch=1 n=a4 v=64
35400 On ch=1 n=e5 v=64
35496 Off ch=1 n=e5 v=64
35520 On ch=1 n=a4 v=64
35616 Off ch=1 n=a4 v=64
35640 On ch=1 n=e5 v=64
35736 Off ch=1 n=e5 v=64
35760 On ch=1 n=c#5 v=64
35856 Off ch=1 n=c#5 v=64
35880 On ch=1 n=e5 v=64
35976 Off ch=1 n=e5 v=64
36000 On ch=1 n=b4 v=64
36096 Off ch=1 n=b4 v=64
36120 On ch=1 n=e5 v=64
36216 Off ch=1 n=e5 v=64
36240 On ch=1 n=b4 v=64
36336 Off ch=1 n=b4 v=64
36360 On ch=1 n=e5 v=64
36456 Off ch=1 n=e5 v=64
36480 On ch=1 n=g#4 v=64
36576 Off ch=1 n=g#4 v=64
36600 On ch=1 n=d5 v=64
36696 Off ch=1 n=d5 v=64
36720 On ch=1 n=c#5 v=64
36774 Off ch=1 n=c#5 v=64
36840 On ch=1 n=d5 v=64
36894 Off ch=1 n=d5 v=64
36960 On ch=1 n=c#5 v=64
37014 Off ch=1 n=c#5 v=64
37080 On ch=1 n=g#4 v=64
37134 Off ch=1 n=g#4 v=64
37200 On ch=1 n=a4 v=64
37254 Off ch=1 n=a4 v=64
37320 On ch=1 n=f#4 v=64
37374 Off ch=1 n=f#4 v=64
37440 On ch=1 n=a4 v=64
37440 On ch=1 n=e4 v=64
37632 Off ch=1 n=e4 v=64
37632 Off ch=1 n=a4 v=64
37680 On ch=1 n=e4 v=64
37680 On ch=1 n=g#4 v=64
37788 Off ch=1 n=g#4 v=64
37788 Off ch=1 n=e4 v=64
38160 On ch=1 n=a4 v=64
38256 Off ch=1 n=a4 v=64
38280 On ch=1 n=e5 v=64
38376 Off ch=1 n=e5 v=64
38400 On ch=1 n=a4 v=64
38496 Off ch=1 n=a4 v=64
38520 On ch=1 n=e5 v=64
38616 Off ch=1 n=e5 v=64
38640 On ch=1 n=c#5 v=64
38736 Off ch=1 n=c#5 v=64
38760 On ch=1 n=e5 v=64
38856 Off ch=1 n=e5 v=64
38880 On ch=1 n=g#4 v=64
38976 Off ch=1 n=g#4 v=64
39000 On ch=1 n=e5 v=64
39096 Off ch=1 n=e5 v=64
39120 On ch=1 n=b4 v=64
39216 Off ch=1 n=b4 v=64
39240 On ch=1 n=e5 v=64
39336 Off ch=1 n=e5 v=64
39360 On ch=1 n=d5 v=64
39456 Off ch=1 n=d5 v=64
39480 On ch=1 n=e5 v=64
39576 Off ch=1 n=e5 v=64
39600 On ch=1 n=c#5 v=64
39792 Off ch=1 n=c#5 v=64
39840 On ch=1 n=d4 v=64
39948 Off ch=1 n=d4 v=64
40080 On ch=1 n=e4 v=64
40188 Off ch=1 n=e4 v=64
40320 On ch=1 n=a3 v=64
40428 Off ch=1 n=a3 v=64
40560 On ch=1 n=a4 v=64
40668 Off ch=1 n=a4 v=64
41040 On ch=1 n=a4 v=64
41136 Off ch=1 n=a4 v=64
41160 On ch=1 n=e5 v=64
41256 Off ch=1 n=e5 v=64
41280 On ch=1 n=a4 v=64
41376 Off ch=1 n=a4 v=64
41400 On ch=1 n=e5 v=64
41496 Off ch=1 n=e5 v=64
41520 On ch=1 n=c#5 v=64
41616 Off ch=1 n=c#5 v=64
41640 On ch=1 n=e5 v=64
41736 Off ch=1 n=e5 v=64
41760 On ch=1 n=b4 v=64
41856 Off ch=1 n=b4 v=64
41880 On ch=1 n=e5 v=64
41976 Off ch=1 n=e5 v=64
42000 On ch=1 n=b4 v=64
42096 Off ch=1 n=b4 v=64
42120 On ch=1 n=e5 v=64
42216 Off ch=1 n=e5 v=64
42240 On ch=1 n=g#4 v=64
42336 Off ch=1 n=g#4 v=64
42360 On ch=1 n=d5 v=64
42456 Off ch=1 n=d5 v=64
42480 On ch=1 n=c#5 v=64
42534 Off ch=1 n=c#5 v=64
42600 On ch=1 n=d5 v=64
42654 Off ch=1 n=d5 v=64
42720 On ch=1 n=c#5 v=64
42774 Off ch=1 n=c#5 v=64
42840 On ch=1 n=g#4 v=64
42894 Off ch=1 n=g#4 v=64
42960 On ch=1 n=a4 v=64
43014 Off ch=1 n=a4 v=64
43080 On ch=1 n=f#4 v=64
43134 Off ch=1 n=f#4 v=64
43200 On ch=1 n=e4 v=64
43200 On ch=1 n=a4 v=64
43392 Off ch=1 n=a4 v=64
43392 Off ch=1 n=e4 v=64
43440 On ch=1 n=g#4 v=64
43440 On ch=1 n=e4 v=64
43548 Off ch=1 n=e4 v=64
43548 Off ch=1 n=g#4 v=64
43920 On ch=1 n=a4 v=64
44016 Off ch=1 n=a4 v=64
44040 On ch=1 n=e5 v=64
44136 Off ch=1 n=e5 v=64
44160 On ch=1 n=a4 v=64
44256 Off ch=1 n=a4 v=64
44280 On ch=1 n=e5 v=64
44376 Off ch=1 n=e5 v=64
44400 On ch=1 n=c#5 v=64
44496 Off ch=1 n=c#5 v=64
44520 On ch=1 n=e5 v=64
44616 Off ch=1 n=e5 v=64
44640 On ch=1 n=g#4 v=64
44736 Off ch=1 n=g#4 v=64
44760 On ch=1 n=e5 v=64
44856 Off ch=1 n=e5 v=64
44880 On ch=1 n=b4 v=64
44976 Off ch=1 n=b4 v=64
45000 On ch=1 n=e5 v=64
45096 Off ch=1 n=e5 v=64
45120 On ch=1 n=d5 v=64
45216 Off ch=1 n=d5 v=64
45240 On ch=1 n=e5 v=64
45336 Off ch=1 n=e5 v=64
45360 On ch=1 n=c#5 v=64
45552 Off ch=1 n=c#5 v=64
45600 On ch=1 n=d4 v=64
45708 Off ch=1 n=d4 v=64
45840 On ch=1 n=e4 v=64
45948 Off ch=1 n=e4 v=64
46080 On ch=1 n=a3 v=64
46188 Off ch=1 n=a3 v=64
46320 On ch=1 n=a4 v=64
46428 Off ch=1 n=a4 v=64
47040 On ch=1 n=c#5 v=64
47232 Off ch=1 n=c#5 v=64
47280 On ch=1 n=a#4 v=64
47388 Off ch=1 n=a#4 v=64
47520 On ch=1 n=b4 v=64
47712 Off ch=1 n=b4 v=64
47760 On ch=1 n=b3 v=64
47868 Off ch=1 n=b3 v=64
48480 On ch=1 n=g#4 v=64
48672 Off ch=1 n=g#4 v=64
48720 On ch=1 n=a4 v=64
48912 Off ch=1 n=a4 v=64
48960 On ch=1 n=e4 v=64
49152 Off ch=1 n=e4 v=64
49200 On ch=1 n=e5 v=64
49308 Off ch=1 n=e5 v=64
49680 On ch=1 n=a4 v=64
49776 Off ch=1 n=a4 v=64
49800 On ch=1 n=e5 v=64
49896 Off ch=1 n=e5 v=64
49920 On ch=1 n=a4 v=64
50016 Off ch=1 n=a4 v=64
50040 On ch=1 n=e5 v=64
50136 Off ch=1 n=e5 v=64
50160 On ch=1 n=c#5 v=64
50256 Off ch=1 n=c#5 v=64
50280 On ch=1 n=e5 v=64
50376 Off ch=1 n=e5 v=64
50400 On ch=1 n=g#4 v=64
50496 Off ch=1 n=g#4 v=64
50520 On ch=1 n=e5 v=64
50616 Off ch=1 n=e5 v=64
50640 On ch=1 n=b4 v=64
50736 Off ch=1 n=b4 v=64
50760 On ch=1 n=e5 v=64
50856 Off ch=1 n=e5 v=64
50880 On ch=1 n=d5 v=64
50976 Off ch=1 n=d5 v=64
51000 On ch=1 n=e5 v=64
51096 Off ch=1 n=e5 v=64
51120 On ch=1 n=c#5 v=64
51312 Off ch=1 n=c#5 v=64
51360 On ch=1 n=d4 v=64
51468 Off ch=1 n=d4 v=64
51600 On ch=1 n=e4 v=64
51708 Off ch=1 n=e4 v=64
51840 On ch=1 n=a3 v=64
51948 Off ch=1 n=a3 v=64
52080 On ch=1 n=a4 v=64
52188 Off ch=1 n=a4 v=64
52800 On ch=1 n=c#5 v=64
52992 Off ch=1 n=c#5 v=64
53040 On ch=1 n=a#4 v=64
53148 Off ch=1 n=a#4 v=64
53280 On ch=1 n=b4 v=64
53472 Off ch=1 n=b4 v=64
53520 On ch=1 n=b3 v=64
53628 Off ch=1 n=b3 v=64
54240 On ch=1 n=g#4 v=64
54432 Off ch=1 n=g#4 v=64
54480 On ch=1 n=a4 v=64
54672 Off ch=1 n=a4 v=64
54720 On ch=1 n=e4 v=64
54912 Off ch=1 n=e4 v=64
54960 On ch=1 n=e5 v=64
55068 Off ch=1 n=e5 v=64
55440 On ch=1 n=a4 v=64
55536 Off ch=1 n=a4 v=64
55560 On ch=1 n=e5 v=64
55656 Off ch=1 n=e5 v=64
55680 On ch=1 n=a4 v=64
55776 Off ch=1 n=a4 v=64
55800 On ch=1 n=e5 v=64
55896 Off ch=1 n=e5 v=64
55920 On ch=1 n=c#5 v=64
56016 Off ch=1 n=c#5 v=64
56040 On ch=1 n=e5 v=64
56136 Off ch=1 n=e5 v=64
56160 On ch=1 n=g#4 v=64
56256 Off ch=1 n=g#4 v=64
56280 On ch=1 n=e5 v=64
56376 Off ch=1 n=e5 v=64
56400 On ch=1 n=b4 v=64
56496 Off ch=1 n=b4 v=64
56520 On ch=1 n=e5 v=64
56616 Off ch=1 n=e5 v=64
56640 On ch=1 n=d5 v=64
56736 Off ch=1 n=d5 v=64
56760 On ch=1 n=e5 v=64
56856 Off ch=1 n=e5 v=64
56880 On ch=1 n=c#5 v=64
57072 Off ch=1 n=c#5 v=64
57120 On ch=1 n=d4 v=64
57228 Off ch=1 n=d4 v=64
57360 On ch=1 n=e4 v=64
57468 Off ch=1 n=e4 v=64
57600 On ch=1 n=a3 v=64
57708 Off ch=1 n=a3 v=64
57840 On ch=1 n=a4 v=64
57948 Off ch=1 n=a4 v=64
58320 On ch=1 n=a4 v=64
58374 Off ch=1 n=a4 v=64
58440 On ch=1 n=a4 v=64
58494 Off ch=1 n=a4 v=64
58560 On ch=1 n=a4 v=64
58614 Off ch=1 n=a4 v=64
58680 On ch=1 n=a4 v=64
58734 Off ch=1 n=a4 v=64
58800 On ch=1 n=a4 v=64
58854 Off ch=1 n=a4 v=64
58920 On ch=1 n=a4 v=64
58974 Off ch=1 n=a4 v=64
59040 On ch=1 n=a4 v=64
59094 Off ch=1 n=a4 v=64
59160 On ch=1 n=a4 v=64
59214 Off ch=1 n=a4 v=64
TrkEnd
