MFile 1 4 240
MTrk
0 TimeSig 3/4 24 8
0 Tempo 500000
74400 Tempo 521739
74640 Tempo 545455
74880 Tempo 571429
75120 Tempo 600000
75360 Tempo 631579
75360 Meta TrkEnd
TrkEnd
MTrk
0 Meta TrkName "RH"
480 On ch=1 n=g5 v=80
588 Off ch=1 n=g5 v=64
720 On ch=1 n=c5 v=64
720 On ch=1 n=c6 v=64
912 Off ch=1 n=c6 v=64
912 Off ch=1 n=c5 v=64
960 On ch=1 n=d6 v=64
960 On ch=1 n=d5 v=64
1152 Off ch=1 n=d5 v=64
1152 Off ch=1 n=d6 v=64
1200 On ch=1 n=e6 v=64
1200 On ch=1 n=e5 v=64
1392 Off ch=1 n=e5 v=64
1392 Off ch=1 n=e6 v=64
1440 On ch=1 n=f5 v=64
1440 On ch=1 n=f6 v=64
1632 Off ch=1 n=f6 v=64
1632 Off ch=1 n=f5 v=64
1680 On ch=1 n=g5 v=64
1680 On ch=1 n=g6 v=64
1872 Off ch=1 n=g6 v=64
1872 Off ch=1 n=g5 v=64
1920 On ch=1 n=a5 v=64
1920 On ch=1 n=a6 v=64
2112 Off ch=1 n=a6 v=64
2112 Off ch=1 n=a5 v=64
2160 On ch=1 n=g6 v=64
2448 Off ch=1 n=g6 v=64
2520 On ch=1 n=c7 v=64
2616 Off ch=1 n=c7 v=64
2640 On ch=1 n=e6 v=64
2832 Off ch=1 n=e6 v=64
2880 On ch=1 n=g6 v=64
2976 Off ch=1 n=g6 v=64
3000 On ch=1 n=f6 v=64
3096 Off ch=1 n=f6 v=64
3120 On ch=1 n=f6 v=64
3216 Off ch=1 n=f6 v=64
3240 On ch=1 n=d6 v=64
3336 Off ch=1 n=d6 v=64
3360 On ch=1 n=e6 v=64
3360 On ch=1 n=c6 v=64
3468 Off ch=1 n=c6 v=64
3468 Off ch=1 n=e6 v=64
3600 On ch=1 n=g5 v=64
3888 Off ch=1 n=g5 v=64
3960 On ch=1 n=c6 v=64
4056 Off ch=1 n=c6 v=64
4080 On ch=1 n=e5 v=64
4272 Off ch=1 n=e5 v=64
4320 On ch=1 n=g5 v=64
4416 Off ch=1 n=g5 v=64
4440 On ch=1 n=f5 v=64
4536 Off ch=1 n=f5 v=64
4560 On ch=1 n=f5 v=64
4656 Off ch=1 n=f5 v=64
4680 On ch=1 n=d5 v=64
4776 Off ch=1 n=d5 v=64
4800 On ch=1 n=e5 v=64
4908 Off ch=1 n=e5 v=64
5040 On ch=1 n=d5 v=64
5616 Off ch=1 n=d5 v=64
5760 On ch=1 n=d7 v=64
5784 Off ch=1 n=d7 v=64
5790 On ch=1 n=c7 v=64
5814 Off ch=1 n=c7 v=64
5820 On ch=1 n=d7 v=64
5844 Off ch=1 n=d7 v=64
5850 On ch=1 n=c7 v=64
5874 Off ch=1 n=c7 v=64
5880 On ch=1 n=d7 v=64
5904 Off ch=1 n=d7 v=64
5910 On ch=1 n=c7 v=64
5934 Off ch=1 n=c7 v=64
5940 On ch=1 n=d7 v=64
5964 Off ch=1 n=d7 v=64
5970 On ch=1 n=c7 v=64
5994 Off ch=1 n=c7 v=64
6000 On ch=1 n=d7 v=64
6024 Off ch=1 n=d7 v=64
6030 On ch=1 n=c7 v=64
6054 Off ch=1 n=c7 v=64
6060 On ch=1 n=d7 v=64
6084 Off ch=1 n=d7 v=64
6090 On ch=1 n=c7 v=64
6114 Off ch=1 n=c7 v=64
6120 On ch=1 n=d7 v=64
6144 Off ch=1 n=d7 v=64
6150 On ch=1 n=c7 v=64
6174 Off ch=1 n=c7 v=64
6180 On ch=1 n=d7 v=64
6204 Off ch=1 n=d7 v=64
6210 On ch=1 n=c7 v=64
6234 Off ch=1 n=c7 v=64
6240 On ch=1 n=d7 v=64
6264 Off ch=1 n=d7 v=64
6270 On ch=1 n=c7 v=64
6294 Off ch=1 n=c7 v=64
6300 On ch=1 n=d7 v=64
6324 Off ch=1 n=d7 v=64
6330 On ch=1 n=c7 v=64
6354 Off ch=1 n=c7 v=64
6360 On ch=1 n=d7 v=64
6384 Off ch=1 n=d7 v=64
6390 On ch=1 n=c7 v=64
6414 Off ch=1 n=c7 v=64
6420 On ch=1 n=b6 v=64
6444 Off ch=1 n=b6 v=64
6450 On ch=1 n=a6 v=64
6474 Off ch=1 n=a6 v=64
6480 On ch=1 n=b6 v=64
6588 Off ch=1 n=b6 v=64
6720 On ch=1 n=b5 v=64
6720 On ch=1 n=d6 v=64
6816 Off ch=1 n=d6 v=64
6816 Off ch=1 n=b5 v=64
6840 On ch=1 n=b5 v=64
6840 On ch=1 n=g5 v=64
6936 Off ch=1 n=g5 v=64
6936 Off ch=1 n=b5 v=64
6960 On ch=1 n=c6 v=64
6960 On ch=1 n=a5 v=64
7056 Off ch=1 n=a5 v=64
7056 Off ch=1 n=c6 v=64
7080 On ch=1 n=a5 v=64
7080 On ch=1 n=f#5 v=64
7176 Off ch=1 n=f#5 v=64
7176 Off ch=1 n=a5 v=64
7200 On ch=1 n=g5 v=64
7416 Off ch=1 n=g5 v=64
7680 On ch=1 n=g5 v=80
7788 Off ch=1 n=g5 v=64
7920 On ch=1 n=c6 v=64
7920 On ch=1 n=c5 v=64
8112 Off ch=1 n=c5 v=64
8112 Off ch=1 n=c6 v=64
8160 On ch=1 n=d5 v=64
8160 On ch=1 n=d6 v=64
8352 Off ch=1 n=d6 v=64
8352 Off ch=1 n=d5 v=64
8400 On ch=1 n=e5 v=64
8400 On ch=1 n=e6 v=64
8592 Off ch=1 n=e6 v=64
8592 Off ch=1 n=e5 v=64
8640 On ch=1 n=f6 v=64
8640 On ch=1 n=f5 v=64
8832 Off ch=1 n=f5 v=64
8832 Off ch=1 n=f6 v=64
8880 On ch=1 n=g6 v=64
8880 On ch=1 n=g5 v=64
9072 Off ch=1 n=g5 v=64
9072 Off ch=1 n=g6 v=64
9120 On ch=1 n=a6 v=64
9120 On ch=1 n=a5 v=64
9312 Off ch=1 n=a5 v=64
9312 Off ch=1 n=a6 v=64
9360 On ch=1 n=g6 v=64
9648 Off ch=1 n=g6 v=64
9720 On ch=1 n=c7 v=64
9816 Off ch=1 n=c7 v=64
9840 On ch=1 n=e6 v=64
10032 Off ch=1 n=e6 v=64
10080 On ch=1 n=g6 v=64
10176 Off ch=1 n=g6 v=64
10200 On ch=1 n=f6 v=64
10296 Off ch=1 n=f6 v=64
10320 On ch=1 n=f6 v=64
10416 Off ch=1 n=f6 v=64
10440 On ch=1 n=d6 v=64
10536 Off ch=1 n=d6 v=64
10560 On ch=1 n=c6 v=64
10560 On ch=1 n=e6 v=64
10668 Off ch=1 n=e6 v=64
10668 Off ch=1 n=c6 v=64
10800 On ch=1 n=g5 v=64
11088 Off ch=1 n=g5 v=64
11160 On ch=1 n=c6 v=64
11256 Off ch=1 n=c6 v=64
11280 On ch=1 n=e5 v=64
11472 Off ch=1 n=e5 v=64
11520 On ch=1 n=g5 v=64
11616 Off ch=1 n=g5 v=64
11640 On ch=1 n=f5 v=64
11736 Off ch=1 n=f5 v=64
11760 On ch=1 n=f5 v=64
11856 Off ch=1 n=f5 v=64
11880 On ch=1 n=d5 v=64
11976 Off ch=1 n=d5 v=64
12000 On ch=1 n=e5 v=64
12108 Off ch=1 n=e5 v=64
12240 On ch=1 n=d5 v=64
12816 Off ch=1 n=d5 v=64
12960 On ch=1 n=d7 v=64
12984 Off ch=1 n=d7 v=64
12990 On ch=1 n=c7 v=64
13014 Off ch=1 n=c7 v=64
13020 On ch=1 n=d7 v=64
13044 Off ch=1 n=d7 v=64
13050 On ch=1 n=c7 v=64
13074 Off ch=1 n=c7 v=64
13080 On ch=1 n=d7 v=64
13104 Off ch=1 n=d7 v=64
13110 On ch=1 n=c7 v=64
13134 Off ch=1 n=c7 v=64
13140 On ch=1 n=d7 v=64
13164 Off ch=1 n=d7 v=64
13170 On ch=1 n=c7 v=64
13194 Off ch=1 n=c7 v=64
13200 On ch=1 n=d7 v=64
13224 Off ch=1 n=d7 v=64
13230 On ch=1 n=c7 v=64
13254 Off ch=1 n=c7 v=64
13260 On ch=1 n=d7 v=64
13284 Off ch=1 n=d7 v=64
13290 On ch=1 n=c7 v=64
13314 Off ch=1 n=c7 v=64
13320 On ch=1 n=d7 v=64
13344 Off ch=1 n=d7 v=64
13350 On ch=1 n=c7 v=64
13374 Off ch=1 n=c7 v=64
13380 On ch=1 n=d7 v=64
13404 Off ch=1 n=d7 v=64
13410 On ch=1 n=c7 v=64
13434 Off ch=1 n=c7 v=64
13440 On ch=1 n=d7 v=64
13464 Off ch=1 n=d7 v=64
13470 On ch=1 n=c7 v=64
13494 Off ch=1 n=c7 v=64
13500 On ch=1 n=d7 v=64
13524 Off ch=1 n=d7 v=64
13530 On ch=1 n=c7 v=64
13554 Off ch=1 n=c7 v=64
13560 On ch=1 n=d7 v=64
13584 Off ch=1 n=d7 v=64
13590 On ch=1 n=c7 v=64
13614 Off ch=1 n=c7 v=64
13620 On ch=1 n=b6 v=64
13644 Off ch=1 n=b6 v=64
13650 On ch=1 n=a6 v=64
13674 Off ch=1 n=a6 v=64
13680 On ch=1 n=b6 v=64
13788 Off ch=1 n=b6 v=64
13920 On ch=1 n=d6 v=64
13920 On ch=1 n=b5 v=64
14016 Off ch=1 n=b5 v=64
14016 Off ch=1 n=d6 v=64
14040 On ch=1 n=g5 v=64
14040 On ch=1 n=b5 v=64
14136 Off ch=1 n=b5 v=64
14136 Off ch=1 n=g5 v=64
14160 On ch=1 n=a5 v=64
14160 On ch=1 n=c6 v=64
14256 Off ch=1 n=c6 v=64
14256 Off ch=1 n=a5 v=64
14280 On ch=1 n=f#5 v=64
14280 On ch=1 n=a5 v=64
14376 Off ch=1 n=a5 v=64
14376 Off ch=1 n=f#5 v=64
14400 On ch=1 n=g5 v=64
14784 Off ch=1 n=g5 v=64
14880 On ch=1 n=g5 v=64
15072 Off ch=1 n=g5 v=64
15120 On ch=1 n=e5 v=64
15312 Off ch=1 n=e5 v=64
15360 On ch=1 n=c5 v=64
15468 Off ch=1 n=c5 v=64
15600 On ch=1 n=g5 v=64
15696 Off ch=1 n=g5 v=64
15720 On ch=1 n=c6 v=64
15816 Off ch=1 n=c6 v=64
15840 On ch=1 n=c6 v=64
16032 Off ch=1 n=c6 v=64
16080 On ch=1 n=b5 v=64
16188 Off ch=1 n=b5 v=64
16320 On ch=1 n=g5 v=64
16428 Off ch=1 n=g5 v=64
16560 On ch=1 n=e5 v=64
16752 Off ch=1 n=e5 v=64
16800 On ch=1 n=c5 v=64
16908 Off ch=1 n=c5 v=64
17040 On ch=1 n=g5 v=64
17136 Off ch=1 n=g5 v=64
17160 On ch=1 n=e6 v=64
17256 Off ch=1 n=e6 v=64
17280 On ch=1 n=e6 v=64
17472 Off ch=1 n=e6 v=64
17520 On ch=1 n=d6 v=64
17628 Off ch=1 n=d6 v=64
17760 On ch=1 n=g6 v=64
17868 Off ch=1 n=g6 v=64
18000 On ch=1 n=f#6 v=64
18192 Off ch=1 n=f#6 v=64
18240 On ch=1 n=d6 v=64
18348 Off ch=1 n=d6 v=64
18480 On ch=1 n=f6 v=64
18588 Off ch=1 n=f6 v=64
18720 On ch=1 n=e6 v=64
18912 Off ch=1 n=e6 v=64
18960 On ch=1 n=c6 v=64
19068 Off ch=1 n=c6 v=64
19200 On ch=1 n=a#6 v=64
19308 Off ch=1 n=a#6 v=64
19440 On ch=1 n=a6 v=64
19440 On ch=1 n=a5 v=64
19548 Off ch=1 n=a5 v=64
19548 Off ch=1 n=a6 v=64
19680 On ch=1 n=g6 v=64
19680 On ch=1 n=g5 v=64
19788 Off ch=1 n=g5 v=64
19788 Off ch=1 n=g6 v=64
19920 On ch=1 n=f#6 v=64
19920 On ch=1 n=f#5 v=64
20028 Off ch=1 n=f#5 v=64
20028 Off ch=1 n=f#6 v=64
20160 On ch=1 n=g6 v=64
20160 On ch=1 n=g5 v=64
20256 Off ch=1 n=g5 v=64
20256 Off ch=1 n=g6 v=64
20280 On ch=1 n=f#6 v=64
20280 On ch=1 n=f#5 v=64
20334 Off ch=1 n=f#5 v=64
20334 Off ch=1 n=f#6 v=64
20400 On ch=1 n=g6 v=64
20400 On ch=1 n=g5 v=64
20496 Off ch=1 n=g5 v=64
20496 Off ch=1 n=g6 v=64
20520 On ch=1 n=f#5 v=64
20520 On ch=1 n=f#6 v=64
20574 Off ch=1 n=f#6 v=64
20574 Off ch=1 n=f#5 v=64
20640 On ch=1 n=g6 v=64
20640 On ch=1 n=g5 v=64
20736 Off ch=1 n=g5 v=64
20736 Off ch=1 n=g6 v=64
20760 On ch=1 n=f#6 v=64
20760 On ch=1 n=f#5 v=64
20814 Off ch=1 n=f#5 v=64
20814 Off ch=1 n=f#6 v=64
20880 On ch=1 n=g6 v=64
21168 Off ch=1 n=g6 v=64
21240 On ch=1 n=c7 v=64
21336 Off ch=1 n=c7 v=64
21360 On ch=1 n=e6 v=64
21552 Off ch=1 n=e6 v=64
21600 On ch=1 n=g6 v=64
21696 Off ch=1 n=g6 v=64
21720 On ch=1 n=f6 v=64
21816 Off ch=1 n=f6 v=64
21840 On ch=1 n=f6 v=64
21936 Off ch=1 n=f6 v=64
21960 On ch=1 n=d6 v=64
22056 Off ch=1 n=d6 v=64
22080 On ch=1 n=e6 v=64
22188 Off ch=1 n=e6 v=64
22320 On ch=1 n=g5 v=64
22608 Off ch=1 n=g5 v=64
22680 On ch=1 n=c6 v=64
22776 Off ch=1 n=c6 v=64
22800 On ch=1 n=e5 v=64
22908 Off ch=1 n=e5 v=64
23040 On ch=1 n=g5 v=64
23136 Off ch=1 n=g5 v=64
23160 On ch=1 n=f5 v=64
23256 Off ch=1 n=f5 v=64
23280 On ch=1 n=f5 v=64
23376 Off ch=1 n=f5 v=64
23400 On ch=1 n=d5 v=64
23496 Off ch=1 n=d5 v=64
23520 On ch=1 n=e5 v=64
23628 Off ch=1 n=e5 v=64
23760 On ch=1 n=g6 v=64
23952 Off ch=1 n=g6 v=64
24000 On ch=1 n=e6 v=64
24000 On ch=1 n=g5 v=64
24096 Off ch=1 n=g5 v=64
24096 Off ch=1 n=e6 v=64
24120 On ch=1 n=c6 v=64
24120 On ch=1 n=e5 v=64
24174 Off ch=1 n=e5 v=64
24174 Off ch=1 n=c6 v=64
24240 On ch=1 n=f5 v=64
24240 On ch=1 n=d6 v=64
24336 Off ch=1 n=d6 v=64
24336 Off ch=1 n=f5 v=64
24360 On ch=1 n=b5 v=64
24360 On ch=1 n=d5 v=64
24414 Off ch=1 n=d5 v=64
24414 Off ch=1 n=b5 v=64
24480 On ch=1 n=g5 v=64
24480 On ch=1 n=e5 v=64
24480 On ch=1 n=c6 v=64
24864 Off ch=1 n=c6 v=64
24864 Off ch=1 n=e5 v=64
24864 Off ch=1 n=g5 v=64
24960 On ch=1 n=g5 v=64
25068 Off ch=1 n=g5 v=64
25200 On ch=1 n=e5 v=64
25392 Off ch=1 n=e5 v=64
25440 On ch=1 n=c5 v=64
25548 Off ch=1 n=c5 v=64
25680 On ch=1 n=g5 v=64
25776 Off ch=1 n=g5 v=64
25800 On ch=1 n=c6 v=64
25896 Off ch=1 n=c6 v=64
25920 On ch=1 n=c6 v=64
26112 Off ch=1 n=c6 v=64
26160 On ch=1 n=b5 v=64
26268 Off ch=1 n=b5 v=64
26400 On ch=1 n=g5 v=64
26508 Off ch=1 n=g5 v=64
26640 On ch=1 n=e5 v=64
26832 Off ch=1 n=e5 v=64
26880 On ch=1 n=c5 v=64
26988 Off ch=1 n=c5 v=64
27120 On ch=1 n=g5 v=64
27216 Off ch=1 n=g5 v=64
27240 On ch=1 n=e6 v=64
27336 Off ch=1 n=e6 v=64
27360 On ch=1 n=e6 v=64
27552 Off ch=1 n=e6 v=64
27600 On ch=1 n=d6 v=64
27708 Off ch=1 n=d6 v=64
27840 On ch=1 n=g6 v=64
27948 Off ch=1 n=g6 v=64
28080 On ch=1 n=f#6 v=64
28272 Off ch=1 n=f#6 v=64
28320 On ch=1 n=d6 v=64
28428 Off ch=1 n=d6 v=64
28560 On ch=1 n=f6 v=64
28668 Off ch=1 n=f6 v=64
28800 On ch=1 n=e6 v=64
28992 Off ch=1 n=e6 v=64
29040 On ch=1 n=c6 v=64
29148 Off ch=1 n=c6 v=64
29280 On ch=1 n=a#6 v=64
29388 Off ch=1 n=a#6 v=64
29520 On ch=1 n=a5 v=64
29520 On ch=1 n=a6 v=64
29628 Off ch=1 n=a6 v=64
29628 Off ch=1 n=a5 v=64
29760 On ch=1 n=g5 v=64
29760 On ch=1 n=g6 v=64
29868 Off ch=1 n=g6 v=64
29868 Off ch=1 n=g5 v=64
30000 On ch=1 n=f#5 v=64
30000 On ch=1 n=f#6 v=64
30108 Off ch=1 n=f#6 v=64
30108 Off ch=1 n=f#5 v=64
30240 On ch=1 n=g5 v=64
30240 On ch=1 n=g6 v=64
30336 Off ch=1 n=g6 v=64
30336 Off ch=1 n=g5 v=64
30360 On ch=1 n=f#5 v=64
30360 On ch=1 n=f#6 v=64
30414 Off ch=1 n=f#6 v=64
30414 Off ch=1 n=f#5 v=64
30480 On ch=1 n=g5 v=64
30480 On ch=1 n=g6 v=64
30576 Off ch=1 n=g6 v=64
30576 Off ch=1 n=g5 v=64
30600 On ch=1 n=f#6 v=64
30600 On ch=1 n=f#5 v=64
30654 Off ch=1 n=f#5 v=64
30654 Off ch=1 n=f#6 v=64
30720 On ch=1 n=g5 v=64
30720 On ch=1 n=g6 v=64
30816 Off ch=1 n=g6 v=64
30816 Off ch=1 n=g5 v=64
30840 On ch=1 n=f#5 v=64
30840 On ch=1 n=f#6 v=64
30894 Off ch=1 n=f#6 v=64
30894 Off ch=1 n=f#5 v=64
30960 On ch=1 n=g6 v=64
31248 Off ch=1 n=g6 v=64
31320 On ch=1 n=c7 v=64
31416 Off ch=1 n=c7 v=64
31440 On ch=1 n=e6 v=64
31632 Off ch=1 n=e6 v=64
31680 On ch=1 n=g6 v=64
31776 Off ch=1 n=g6 v=64
31800 On ch=1 n=f6 v=64
31896 Off ch=1 n=f6 v=64
31920 On ch=1 n=f6 v=64
32016 Off ch=1 n=f6 v=64
32040 On ch=1 n=d6 v=64
32136 Off ch=1 n=d6 v=64
32160 On ch=1 n=e6 v=64
32268 Off ch=1 n=e6 v=64
32400 On ch=1 n=g5 v=64
32688 Off ch=1 n=g5 v=64
32760 On ch=1 n=c6 v=64
32856 Off ch=1 n=c6 v=64
32880 On ch=1 n=e5 v=64
32988 Off ch=1 n=e5 v=64
33120 On ch=1 n=g5 v=64
33216 Off ch=1 n=g5 v=64
33240 On ch=1 n=f5 v=64
33336 Off ch=1 n=f5 v=64
33360 On ch=1 n=f5 v=64
33456 Off ch=1 n=f5 v=64
33480 On ch=1 n=d5 v=64
33576 Off ch=1 n=d5 v=64
33600 On ch=1 n=e5 v=64
33708 Off ch=1 n=e5 v=64
33840 On ch=1 n=g6 v=64
34032 Off ch=1 n=g6 v=64
34080 On ch=1 n=g5 v=64
34080 On ch=1 n=e6 v=64
34176 Off ch=1 n=e6 v=64
34176 Off ch=1 n=g5 v=64
34200 On ch=1 n=e5 v=64
34200 On ch=1 n=c6 v=64
34254 Off ch=1 n=c6 v=64
34254 Off ch=1 n=e5 v=64
34320 On ch=1 n=d6 v=64
34320 On ch=1 n=f5 v=64
34416 Off ch=1 n=f5 v=64
34416 Off ch=1 n=d6 v=64
34440 On ch=1 n=d5 v=64
34440 On ch=1 n=b5 v=64
34494 Off ch=1 n=b5 v=64
34494 Off ch=1 n=d5 v=64
34560 On ch=1 n=c6 v=64
34560 On ch=1 n=e5 v=64
34560 On ch=1 n=g5 v=64
34944 Off ch=1 n=g5 v=64
34944 Off ch=1 n=e5 v=64
34944 Off ch=1 n=c6 v=64
35040 On ch=1 n=g5 v=64
35148 Off ch=1 n=g5 v=64
35280 On ch=1 n=e5 v=64
35388 Off ch=1 n=e5 v=64
35400 On ch=1 n=c5 v=64
35508 Off ch=1 n=c5 v=64
35520 On ch=1 n=e5 v=64
35628 Off ch=1 n=e5 v=64
35640 On ch=1 n=g4 v=64
35694 Off ch=1 n=g4 v=64
35760 On ch=1 n=g5 v=64
35868 Off ch=1 n=g5 v=64
36000 On ch=1 n=f5 v=64
36108 Off ch=1 n=f5 v=64
36120 On ch=1 n=d5 v=64
36228 Off ch=1 n=d5 v=64
36240 On ch=1 n=f5 v=64
36348 Off ch=1 n=f5 v=64
36360 On ch=1 n=g4 v=64
36414 Off ch=1 n=g4 v=64
36480 On ch=1 n=g5 v=64
36588 Off ch=1 n=g5 v=64
36720 On ch=1 n=e5 v=64
36828 Off ch=1 n=e5 v=64
36840 On ch=1 n=c5 v=64
36948 Off ch=1 n=c5 v=64
36960 On ch=1 n=e5 v=64
37068 Off ch=1 n=e5 v=64
37080 On ch=1 n=g4 v=64
37134 Off ch=1 n=g4 v=64
37200 On ch=1 n=g5 v=64
37392 Off ch=1 n=g5 v=64
37440 On ch=1 n=b4 v=64
37440 On ch=1 n=d5 v=64
37656 Off ch=1 n=d5 v=64
37656 Off ch=1 n=b4 v=64
37920 On ch=1 n=g5 v=64
38028 Off ch=1 n=g5 v=64
38160 On ch=1 n=e5 v=64
38268 Off ch=1 n=e5 v=64
38280 On ch=1 n=c5 v=64
38388 Off ch=1 n=c5 v=64
38400 On ch=1 n=e5 v=64
38508 Off ch=1 n=e5 v=64
38520 On ch=1 n=g4 v=64
38574 Off ch=1 n=g4 v=64
38640 On ch=1 n=g5 v=64
38748 Off ch=1 n=g5 v=64
38880 On ch=1 n=f5 v=64
38988 Off ch=1 n=f5 v=64
39000 On ch=1 n=d5 v=64
39108 Off ch=1 n=d5 v=64
39120 On ch=1 n=f5 v=64
39228 Off ch=1 n=f5 v=64
39240 On ch=1 n=g4 v=64
39294 Off ch=1 n=g4 v=64
39360 On ch=1 n=g5 v=64
39468 Off ch=1 n=g5 v=64
39600 On ch=1 n=e5 v=64
39600 On ch=1 n=c5 v=64
39708 Off ch=1 n=c5 v=64
39708 Off ch=1 n=e5 v=64
39840 On ch=1 n=e5 v=64
39840 On ch=1 n=g5 v=64
39936 Off ch=1 n=g5 v=64
39936 Off ch=1 n=e5 v=64
39960 On ch=1 n=f5 v=64
39960 On ch=1 n=d5 v=64
40014 Off ch=1 n=d5 v=64
40014 Off ch=1 n=f5 v=64
40080 On ch=1 n=e5 v=64
40080 On ch=1 n=c5 v=64
40176 Off ch=1 n=c5 v=64
40176 Off ch=1 n=e5 v=64
40200 On ch=1 n=d5 v=64
40200 On ch=1 n=b4 v=64
40254 Off ch=1 n=b4 v=64
40254 Off ch=1 n=d5 v=64
40320 On ch=1 n=c5 v=64
40704 Off ch=1 n=c5 v=64
40800 On ch=1 n=g5 v=64
40908 Off ch=1 n=g5 v=64
41040 On ch=1 n=e5 v=64
41148 Off ch=1 n=e5 v=64
41160 On ch=1 n=c5 v=64
41268 Off ch=1 n=c5 v=64
41280 On ch=1 n=e5 v=64
41388 Off ch=1 n=e5 v=64
41400 On ch=1 n=g4 v=64
41454 Off ch=1 n=g4 v=64
41520 On ch=1 n=g5 v=64
41712 Off ch=1 n=g5 v=64
41760 On ch=1 n=f5 v=64
41868 Off ch=1 n=f5 v=64
41880 On ch=1 n=d5 v=64
41988 Off ch=1 n=d5 v=64
42000 On ch=1 n=f5 v=64
42108 Off ch=1 n=f5 v=64
42120 On ch=1 n=g4 v=64
42174 Off ch=1 n=g4 v=64
42240 On ch=1 n=g5 v=64
42348 Off ch=1 n=g5 v=64
42480 On ch=1 n=e5 v=64
42588 Off ch=1 n=e5 v=64
42600 On ch=1 n=c5 v=64
42708 Off ch=1 n=c5 v=64
42720 On ch=1 n=e5 v=64
42828 Off ch=1 n=e5 v=64
42840 On ch=1 n=g4 v=64
42894 Off ch=1 n=g4 v=64
42960 On ch=1 n=g5 v=64
43152 Off ch=1 n=g5 v=64
43200 On ch=1 n=d5 v=64
43200 On ch=1 n=b4 v=64
43416 Off ch=1 n=b4 v=64
43416 Off ch=1 n=d5 v=64
43680 On ch=1 n=g5 v=64
43788 Off ch=1 n=g5 v=64
43920 On ch=1 n=e5 v=64
44028 Off ch=1 n=e5 v=64
44040 On ch=1 n=c5 v=64
44148 Off ch=1 n=c5 v=64
44160 On ch=1 n=e5 v=64
44268 Off ch=1 n=e5 v=64
44280 On ch=1 n=g4 v=64
44334 Off ch=1 n=g4 v=64
44400 On ch=1 n=g5 v=64
44508 Off ch=1 n=g5 v=64
44640 On ch=1 n=f5 v=64
44748 Off ch=1 n=f5 v=64
44760 On ch=1 n=d5 v=64
44868 Off ch=1 n=d5 v=64
44880 On ch=1 n=f5 v=64
44988 Off ch=1 n=f5 v=64
45000 On ch=1 n=g4 v=64
45054 Off ch=1 n=g4 v=64
45120 On ch=1 n=g5 v=64
45228 Off ch=1 n=g5 v=64
45360 On ch=1 n=c5 v=64
45360 On ch=1 n=e5 v=64
45468 Off ch=1 n=e5 v=64
45468 Off ch=1 n=c5 v=64
45600 On ch=1 n=g5 v=64
45600 On ch=1 n=e5 v=64
45696 Off ch=1 n=e5 v=64
45696 Off ch=1 n=g5 v=64
45720 On ch=1 n=d5 v=64
45720 On ch=1 n=f5 v=64
45774 Off ch=1 n=f5 v=64
45774 Off ch=1 n=d5 v=64
45840 On ch=1 n=c5 v=64
45840 On ch=1 n=e5 v=64
45936 Off ch=1 n=e5 v=64
45936 Off ch=1 n=c5 v=64
45960 On ch=1 n=b4 v=64
45960 On ch=1 n=d5 v=64
46014 Off ch=1 n=d5 v=64
46014 Off ch=1 n=b4 v=64
46080 On ch=1 n=c5 v=64
46464 Off ch=1 n=c5 v=64
46560 On ch=1 n=e6 v=64
46560 On ch=1 n=a5 v=64
46560 On ch=1 n=f#5 v=64
46668 Off ch=1 n=f#5 v=64
46668 Off ch=1 n=a5 v=64
46668 Off ch=1 n=e6 v=64
46800 On ch=1 n=d6 v=64
46896 Off ch=1 n=d6 v=64
46920 On ch=1 n=f#6 v=64
46974 Off ch=1 n=f#6 v=64
47040 On ch=1 n=g6 v=64
47136 Off ch=1 n=g6 v=64
47160 On ch=1 n=d6 v=64
47214 Off ch=1 n=d6 v=64
47280 On ch=1 n=c6 v=64
47376 Off ch=1 n=c6 v=64
47400 On ch=1 n=d6 v=64
47454 Off ch=1 n=d6 v=64
47520 On ch=1 n=c6 v=64
47712 Off ch=1 n=c6 v=64
47760 On ch=1 n=b5 v=64
47868 Off ch=1 n=b5 v=64
48000 On ch=1 n=a5 v=64
48108 Off ch=1 n=a5 v=64
48240 On ch=1 n=g5 v=64
48336 Off ch=1 n=g5 v=64
48360 On ch=1 n=b5 v=64
48414 Off ch=1 n=b5 v=64
48480 On ch=1 n=c6 v=64
48576 Off ch=1 n=c6 v=64
48600 On ch=1 n=g5 v=64
48654 Off ch=1 n=g5 v=64
48720 On ch=1 n=f5 v=64
48816 Off ch=1 n=f5 v=64
48840 On ch=1 n=g5 v=64
48894 Off ch=1 n=g5 v=64
48960 On ch=1 n=f5 v=64
49152 Off ch=1 n=f5 v=64
49200 On ch=1 n=e5 v=64
49308 Off ch=1 n=e5 v=64
49440 On ch=1 n=g5 v=64
49548 Off ch=1 n=g5 v=64
49680 On ch=1 n=e5 v=64
49788 Off ch=1 n=e5 v=64
49800 On ch=1 n=c5 v=64
49908 Off ch=1 n=c5 v=64
49920 On ch=1 n=e5 v=64
50028 Off ch=1 n=e5 v=64
50040 On ch=1 n=g4 v=64
50094 Off ch=1 n=g4 v=64
50160 On ch=1 n=g5 v=64
50268 Off ch=1 n=g5 v=64
50400 On ch=1 n=f5 v=64
50508 Off ch=1 n=f5 v=64
50520 On ch=1 n=d5 v=64
50628 Off ch=1 n=d5 v=64
50640 On ch=1 n=f5 v=64
50748 Off ch=1 n=f5 v=64
50760 On ch=1 n=g4 v=64
50814 Off ch=1 n=g4 v=64
50880 On ch=1 n=g5 v=64
50988 Off ch=1 n=g5 v=64
51120 On ch=1 n=e5 v=64
51120 On ch=1 n=c5 v=64
51228 Off ch=1 n=c5 v=64
51228 Off ch=1 n=e5 v=64
51360 On ch=1 n=e5 v=64
51360 On ch=1 n=g5 v=64
51456 Off ch=1 n=g5 v=64
51456 Off ch=1 n=e5 v=64
51480 On ch=1 n=f5 v=64
51480 On ch=1 n=d5 v=64
51534 Off ch=1 n=d5 v=64
51534 Off ch=1 n=f5 v=64
51600 On ch=1 n=e5 v=64
51600 On ch=1 n=c5 v=64
51696 Off ch=1 n=c5 v=64
51696 Off ch=1 n=e5 v=64
51720 On ch=1 n=d5 v=64
51720 On ch=1 n=b4 v=64
51774 Off ch=1 n=b4 v=64
51774 Off ch=1 n=d5 v=64
51840 On ch=1 n=c5 v=64
52224 Off ch=1 n=c5 v=64
52320 On ch=1 n=f#5 v=64
52320 On ch=1 n=a5 v=64
52320 On ch=1 n=e6 v=64
52428 Off ch=1 n=e6 v=64
52428 Off ch=1 n=a5 v=64
52428 Off ch=1 n=f#5 v=64
52560 On ch=1 n=d6 v=64
52656 Off ch=1 n=d6 v=64
52680 On ch=1 n=f#6 v=64
52734 Off ch=1 n=f#6 v=64
52800 On ch=1 n=g6 v=64
52896 Off ch=1 n=g6 v=64
52920 On ch=1 n=d6 v=64
52974 Off ch=1 n=d6 v=64
53040 On ch=1 n=c6 v=64
53136 Off ch=1 n=c6 v=64
53160 On ch=1 n=d6 v=64
53214 Off ch=1 n=d6 v=64
53280 On ch=1 n=c6 v=64
53472 Off ch=1 n=c6 v=64
53520 On ch=1 n=b5 v=64
53628 Off ch=1 n=b5 v=64
53760 On ch=1 n=a5 v=64
53868 Off ch=1 n=a5 v=64
54000 On ch=1 n=g5 v=64
54096 Off ch=1 n=g5 v=64
54120 On ch=1 n=b5 v=64
54174 Off ch=1 n=b5 v=64
54240 On ch=1 n=c6 v=64
54336 Off ch=1 n=c6 v=64
54360 On ch=1 n=g5 v=64
54414 Off ch=1 n=g5 v=64
54480 On ch=1 n=f5 v=64
54576 Off ch=1 n=f5 v=64
54600 On ch=1 n=g5 v=64
54654 Off ch=1 n=g5 v=64
54720 On ch=1 n=f5 v=64
54912 Off ch=1 n=f5 v=64
54960 On ch=1 n=e5 v=64
55068 Off ch=1 n=e5 v=64
55200 On ch=1 n=g5 v=64
55308 Off ch=1 n=g5 v=64
55440 On ch=1 n=e5 v=64
55548 Off ch=1 n=e5 v=64
55560 On ch=1 n=c5 v=64
55668 Off ch=1 n=c5 v=64
55680 On ch=1 n=e5 v=64
55788 Off ch=1 n=e5 v=64
55800 On ch=1 n=g4 v=64
55854 Off ch=1 n=g4 v=64
55920 On ch=1 n=g5 v=64
56028 Off ch=1 n=g5 v=64
56160 On ch=1 n=f5 v=64
56268 Off ch=1 n=f5 v=64
56280 On ch=1 n=d5 v=64
56388 Off ch=1 n=d5 v=64
56400 On ch=1 n=f5 v=64
56508 Off ch=1 n=f5 v=64
56520 On ch=1 n=g4 v=64
56574 Off ch=1 n=g4 v=64
56640 On ch=1 n=g5 v=64
56748 Off ch=1 n=g5 v=64
56880 On ch=1 n=c5 v=64
56880 On ch=1 n=e5 v=64
56988 Off ch=1 n=e5 v=64
56988 Off ch=1 n=c5 v=64
57120 On ch=1 n=g5 v=64
57120 On ch=1 n=e5 v=64
57216 Off ch=1 n=e5 v=64
57216 Off ch=1 n=g5 v=64
57240 On ch=1 n=d5 v=64
57240 On ch=1 n=f5 v=64
57294 Off ch=1 n=f5 v=64
57294 Off ch=1 n=d5 v=64
57360 On ch=1 n=c5 v=64
57360 On ch=1 n=e5 v=64
57456 Off ch=1 n=e5 v=64
57456 Off ch=1 n=c5 v=64
57480 On ch=1 n=b4 v=64
57480 On ch=1 n=d5 v=64
57534 Off ch=1 n=d5 v=64
57534 Off ch=1 n=b4 v=64
57600 On ch=1 n=c5 v=64
57984 Off ch=1 n=c5 v=64
58080 On ch=1 n=g5 v=80
58272 Off ch=1 n=g5 v=64
58320 On ch=1 n=c6 v=64
58320 On ch=1 n=c5 v=64
58512 Off ch=1 n=c5 v=64
58512 Off ch=1 n=c6 v=64
58560 On ch=1 n=d5 v=64
58560 On ch=1 n=d6 v=64
58752 Off ch=1 n=d6 v=64
58752 Off ch=1 n=d5 v=64
58800 On ch=1 n=e5 v=64
58800 On ch=1 n=e6 v=64
58992 Off ch=1 n=e6 v=64
58992 Off ch=1 n=e5 v=64
59040 On ch=1 n=f6 v=64
59040 On ch=1 n=f5 v=64
59232 Off ch=1 n=f5 v=64
59232 Off ch=1 n=f6 v=64
59280 On ch=1 n=g6 v=64
59280 On ch=1 n=g5 v=64
59472 Off ch=1 n=g5 v=64
59472 Off ch=1 n=g6 v=64
59520 On ch=1 n=a6 v=64
59520 On ch=1 n=a5 v=64
59712 Off ch=1 n=a5 v=64
59712 Off ch=1 n=a6 v=64
59760 On ch=1 n=g6 v=64
60048 Off ch=1 n=g6 v=64
60120 On ch=1 n=c7 v=64
60216 Off ch=1 n=c7 v=64
60240 On ch=1 n=e6 v=64
60432 Off ch=1 n=e6 v=64
60480 On ch=1 n=g6 v=64
60576 Off ch=1 n=g6 v=64
60600 On ch=1 n=f6 v=64
60696 Off ch=1 n=f6 v=64
60720 On ch=1 n=f6 v=64
60816 Off ch=1 n=f6 v=64
60840 On ch=1 n=d6 v=64
60936 Off ch=1 n=d6 v=64
60960 On ch=1 n=c6 v=64
60960 On ch=1 n=e6 v=64
61068 Off ch=1 n=e6 v=64
61068 Off ch=1 n=c6 v=64
61200 On ch=1 n=g5 v=64
61488 Off ch=1 n=g5 v=64
61560 On ch=1 n=c6 v=64
61656 Off ch=1 n=c6 v=64
61680 On ch=1 n=e5 v=64
61872 Off ch=1 n=e5 v=64
61920 On ch=1 n=g5 v=64
62016 Off ch=1 n=g5 v=64
62040 On ch=1 n=f5 v=64
62136 Off ch=1 n=f5 v=64
62160 On ch=1 n=f5 v=64
62256 Off ch=1 n=f5 v=64
62280 On ch=1 n=d5 v=64
62376 Off ch=1 n=d5 v=64
62400 On ch=1 n=e5 v=64
62508 Off ch=1 n=e5 v=64
62640 On ch=1 n=d5 v=64
63216 Off ch=1 n=d5 v=64
63360 On ch=1 n=d7 v=64
63384 Off ch=1 n=d7 v=64
63390 On ch=1 n=c7 v=64
63414 Off ch=1 n=c7 v=64
63420 On ch=1 n=d7 v=64
63444 Off ch=1 n=d7 v=64
63450 On ch=1 n=c7 v=64
63474 Off ch=1 n=c7 v=64
63480 On ch=1 n=d7 v=64
63504 Off ch=1 n=d7 v=64
63510 On ch=1 n=c7 v=64
63534 Off ch=1 n=c7 v=64
63540 On ch=1 n=d7 v=64
63564 Off ch=1 n=d7 v=64
63570 On ch=1 n=c7 v=64
63594 Off ch=1 n=c7 v=64
63600 On ch=1 n=d7 v=64
63624 Off ch=1 n=d7 v=64
63630 On ch=1 n=c7 v=64
63654 Off ch=1 n=c7 v=64
63660 On ch=1 n=d7 v=64
63684 Off ch=1 n=d7 v=64
63690 On ch=1 n=c7 v=64
63714 Off ch=1 n=c7 v=64
63720 On ch=1 n=d7 v=64
63744 Off ch=1 n=d7 v=64
63750 On ch=1 n=c7 v=64
63774 Off ch=1 n=c7 v=64
63780 On ch=1 n=d7 v=64
63804 Off ch=1 n=d7 v=64
63810 On ch=1 n=c7 v=64
63834 Off ch=1 n=c7 v=64
63840 On ch=1 n=d7 v=64
63864 Off ch=1 n=d7 v=64
63870 On ch=1 n=c7 v=64
63894 Off ch=1 n=c7 v=64
63900 On ch=1 n=d7 v=64
63924 Off ch=1 n=d7 v=64
63930 On ch=1 n=c7 v=64
63954 Off ch=1 n=c7 v=64
63960 On ch=1 n=d7 v=64
63984 Off ch=1 n=d7 v=64
63990 On ch=1 n=c7 v=64
64014 Off ch=1 n=c7 v=64
64020 On ch=1 n=b6 v=64
64044 Off ch=1 n=b6 v=64
64050 On ch=1 n=a6 v=64
64074 Off ch=1 n=a6 v=64
64080 On ch=1 n=b6 v=64
64188 Off ch=1 n=b6 v=64
64320 On ch=1 n=d6 v=64
64320 On ch=1 n=b5 v=64
64416 Off ch=1 n=b5 v=64
64416 Off ch=1 n=d6 v=64
64440 On ch=1 n=g5 v=64
64440 On ch=1 n=b5 v=64
64536 Off ch=1 n=b5 v=64
64536 Off ch=1 n=g5 v=64
64560 On ch=1 n=a5 v=64
64560 On ch=1 n=c6 v=64
64656 Off ch=1 n=c6 v=64
64656 Off ch=1 n=a5 v=64
64680 On ch=1 n=f#5 v=64
64680 On ch=1 n=a5 v=64
64776 Off ch=1 n=a5 v=64
64776 Off ch=1 n=f#5 v=64
64800 On ch=1 n=g5 v=64
65016 Off ch=1 n=g5 v=64
65280 On ch=1 n=g5 v=80
65472 Off ch=1 n=g5 v=64
65520 On ch=1 n=e5 v=64
65712 Off ch=1 n=e5 v=64
65760 On ch=1 n=c5 v=64
65868 Off ch=1 n=c5 v=64
66000 On ch=1 n=g5 v=64
66096 Off ch=1 n=g5 v=64
66120 On ch=1 n=c6 v=64
66216 Off ch=1 n=c6 v=64
66240 On ch=1 n=c6 v=64
66432 Off ch=1 n=c6 v=64
66480 On ch=1 n=b5 v=64
66588 Off ch=1 n=b5 v=64
66720 On ch=1 n=g5 v=64
66828 Off ch=1 n=g5 v=64
66960 On ch=1 n=e5 v=64
67152 Off ch=1 n=e5 v=64
67200 On ch=1 n=c5 v=64
67308 Off ch=1 n=c5 v=64
67440 On ch=1 n=g5 v=64
67536 Off ch=1 n=g5 v=64
67560 On ch=1 n=e6 v=64
67656 Off ch=1 n=e6 v=64
67680 On ch=1 n=e6 v=64
67872 Off ch=1 n=e6 v=64
67920 On ch=1 n=d6 v=64
68028 Off ch=1 n=d6 v=64
68160 On ch=1 n=g6 v=64
68268 Off ch=1 n=g6 v=64
68400 On ch=1 n=f#6 v=64
68592 Off ch=1 n=f#6 v=64
68640 On ch=1 n=d6 v=64
68748 Off ch=1 n=d6 v=64
68880 On ch=1 n=f6 v=64
68988 Off ch=1 n=f6 v=64
69120 On ch=1 n=e6 v=64
69312 Off ch=1 n=e6 v=64
69360 On ch=1 n=c6 v=64
69468 Off ch=1 n=c6 v=64
69600 On ch=1 n=a#6 v=64
69708 Off ch=1 n=a#6 v=64
69840 On ch=1 n=a6 v=64
69840 On ch=1 n=a5 v=64
69948 Off ch=1 n=a5 v=64
69948 Off ch=1 n=a6 v=64
70080 On ch=1 n=g6 v=64
70080 On ch=1 n=g5 v=64
70188 Off ch=1 n=g5 v=64
70188 Off ch=1 n=g6 v=64
70320 On ch=1 n=f#6 v=64
70320 On ch=1 n=f#5 v=64
70428 Off ch=1 n=f#5 v=64
70428 Off ch=1 n=f#6 v=64
70560 On ch=1 n=g6 v=64
70560 On ch=1 n=g5 v=64
70656 Off ch=1 n=g5 v=64
70656 Off ch=1 n=g6 v=64
70680 On ch=1 n=f#6 v=64
70680 On ch=1 n=f#5 v=64
70734 Off ch=1 n=f#5 v=64
70734 Off ch=1 n=f#6 v=64
70800 On ch=1 n=g6 v=64
70800 On ch=1 n=g5 v=64
70896 Off ch=1 n=g5 v=64
70896 Off ch=1 n=g6 v=64
70920 On ch=1 n=f#5 v=64
70920 On ch=1 n=f#6 v=64
70974 Off ch=1 n=f#6 v=64
70974 Off ch=1 n=f#5 v=64
71040 On ch=1 n=g6 v=64
71040 On ch=1 n=g5 v=64
71136 Off ch=1 n=g5 v=64
71136 Off ch=1 n=g6 v=64
71160 On ch=1 n=f#6 v=64
71160 On ch=1 n=f#5 v=64
71214 Off ch=1 n=f#5 v=64
71214 Off ch=1 n=f#6 v=64
71280 On ch=1 n=g6 v=64
71568 Off ch=1 n=g6 v=64
71640 On ch=1 n=c7 v=64
71736 Off ch=1 n=c7 v=64
71760 On ch=1 n=e6 v=64
71952 Off ch=1 n=e6 v=64
72000 On ch=1 n=g6 v=64
72096 Off ch=1 n=g6 v=64
72120 On ch=1 n=f6 v=64
72216 Off ch=1 n=f6 v=64
72240 On ch=1 n=f6 v=64
72336 Off ch=1 n=f6 v=64
72360 On ch=1 n=d6 v=64
72456 Off ch=1 n=d6 v=64
72480 On ch=1 n=e6 v=64
72588 Off ch=1 n=e6 v=64
72720 On ch=1 n=g5 v=64
73008 Off ch=1 n=g5 v=64
73080 On ch=1 n=c6 v=64
73176 Off ch=1 n=c6 v=64
73200 On ch=1 n=e5 v=64
73308 Off ch=1 n=e5 v=64
73440 On ch=1 n=g5 v=64
73536 Off ch=1 n=g5 v=64
73560 On ch=1 n=f5 v=64
73656 Off ch=1 n=f5 v=64
73680 On ch=1 n=f5 v=64
73776 Off ch=1 n=f5 v=64
73800 On ch=1 n=d5 v=64
73896 Off ch=1 n=d5 v=64
73920 On ch=1 n=e5 v=64
74028 Off ch=1 n=e5 v=64
74160 On ch=1 n=g6 v=64
74352 Off ch=1 n=g6 v=64
74400 On ch=1 n=e6 v=64
74400 On ch=1 n=g5 v=64
74496 Off ch=1 n=g5 v=64
74496 Off ch=1 n=e6 v=64
74520 On ch=1 n=c6 v=64
74520 On ch=1 n=e5 v=64
74574 Off ch=1 n=e5 v=64
74574 Off ch=1 n=c6 v=64
74640 On ch=1 n=f5 v=64
74640 On ch=1 n=d6 v=64
74736 Off ch=1 n=d6 v=64
74736 Off ch=1 n=f5 v=64
74760 On ch=1 n=b5 v=64
74760 On ch=1 n=d5 v=64
74814 Off ch=1 n=d5 v=64
74814 Off ch=1 n=b5 v=64
74880 On ch=1 n=g5 v=64
74880 On ch=1 n=e5 v=64
74880 On ch=1 n=c6 v=64
75264 Off ch=1 n=c6 v=64
75264 Off ch=1 n=e5 v=64
75264 Off ch=1 n=g5 v=64
75264 Meta TrkEnd
TrkEnd
MTrk
0 Meta TrkName "RH/LH"
2160 On ch=1 n=g5 v=64
2352 Off ch=1 n=g5 v=64
2640 On ch=1 n=c6 v=64
3072 Off ch=1 n=c6 v=64
3120 On ch=1 n=b5 v=64
3312 Off ch=1 n=b5 v=64
3360 On ch=1 n=c6 v=64
3468 Off ch=1 n=c6 v=64
9360 On ch=1 n=g5 v=64
9552 Off ch=1 n=g5 v=64
9840 On ch=1 n=c6 v=64
10272 Off ch=1 n=c6 v=64
10320 On ch=1 n=b5 v=64
10512 Off ch=1 n=b5 v=64
10560 On ch=1 n=c6 v=64
10668 Off ch=1 n=c6 v=64
17760 On ch=1 n=g5 v=64
17868 Off ch=1 n=g5 v=64
18000 On ch=1 n=f#5 v=64
18384 Off ch=1 n=f#5 v=64
18480 On ch=1 n=f5 v=64
18588 Off ch=1 n=f5 v=64
18720 On ch=1 n=e5 v=64
19104 Off ch=1 n=e5 v=64
19200 On ch=1 n=a#5 v=64
19308 Off ch=1 n=a#5 v=64
27840 On ch=1 n=g5 v=64
27948 Off ch=1 n=g5 v=64
28080 On ch=1 n=f#5 v=64
28464 Off ch=1 n=f#5 v=64
28560 On ch=1 n=f5 v=64
28668 Off ch=1 n=f5 v=64
28800 On ch=1 n=e5 v=64
29184 Off ch=1 n=e5 v=64
29280 On ch=1 n=a#5 v=64
29388 Off ch=1 n=a#5 v=64
46800 On ch=1 n=g5 v=64
46992 Off ch=1 n=g5 v=64
48000 On ch=1 n=d5 v=64
48000 On ch=1 n=b4 v=64
48108 Off ch=1 n=b4 v=64
48108 Off ch=1 n=d5 v=64
48240 On ch=1 n=c5 v=64
48432 Off ch=1 n=c5 v=64
52560 On ch=1 n=g5 v=64
52752 Off ch=1 n=g5 v=64
53760 On ch=1 n=b4 v=64
53760 On ch=1 n=d5 v=64
53868 Off ch=1 n=d5 v=64
53868 Off ch=1 n=b4 v=64
54000 On ch=1 n=c5 v=64
54192 Off ch=1 n=c5 v=64
59760 On ch=1 n=g5 v=64
59952 Off ch=1 n=g5 v=64
60240 On ch=1 n=c6 v=64
60672 Off ch=1 n=c6 v=64
60720 On ch=1 n=b5 v=64
60912 Off ch=1 n=b5 v=64
60960 On ch=1 n=c6 v=64
61068 Off ch=1 n=c6 v=64
68160 On ch=1 n=g5 v=64
68268 Off ch=1 n=g5 v=64
68400 On ch=1 n=f#5 v=64
68784 Off ch=1 n=f#5 v=64
68880 On ch=1 n=f5 v=64
68988 Off ch=1 n=f5 v=64
69120 On ch=1 n=e5 v=64
69504 Off ch=1 n=e5 v=64
69600 On ch=1 n=a#5 v=64
69708 Off ch=1 n=a#5 v=64
69708 Meta TrkEnd
TrkEnd
MTrk
0 Meta TrkName "LH"
960 On ch=1 n=b4 v=64
1152 Off ch=1 n=b4 v=64
1200 On ch=1 n=a#4 v=64
1200 On ch=1 n=c5 v=64
1392 Off ch=1 n=c5 v=64
1392 Off ch=1 n=a#4 v=64
1440 On ch=1 n=a4 v=64
1440 On ch=1 n=c5 v=64
1632 Off ch=1 n=c5 v=64
1632 Off ch=1 n=a4 v=64
1680 On ch=1 n=c5 v=64
1680 On ch=1 n=g4 v=64
1872 Off ch=1 n=g4 v=64
1872 Off ch=1 n=c5 v=64
1920 On ch=1 n=c5 v=64
1920 On ch=1 n=f4 v=64
2112 Off ch=1 n=f4 v=64
2112 Off ch=1 n=c5 v=64
2160 On ch=1 n=b4 v=64
2352 Off ch=1 n=b4 v=64
2400 On ch=1 n=g4 v=64
2592 Off ch=1 n=g4 v=64
2640 On ch=1 n=c5 v=64
2832 Off ch=1 n=c5 v=64
2880 On ch=1 n=d5 v=64
3072 Off ch=1 n=d5 v=64
3120 On ch=1 n=g4 v=64
3312 Off ch=1 n=g4 v=64
3360 On ch=1 n=c5 v=64
3468 Off ch=1 n=c5 v=64
3840 On ch=1 n=g4 v=64
3840 On ch=1 n=e4 v=64
4032 Off ch=1 n=e4 v=64
4032 Off ch=1 n=g4 v=64
4080 On ch=1 n=c5 v=64
4080 On ch=1 n=c4 v=64
4272 Off ch=1 n=c4 v=64
4320 On ch=1 n=d4 v=64
4512 Off ch=1 n=d4 v=64
4512 Off ch=1 n=c5 v=64
4560 On ch=1 n=g4 v=64
4560 On ch=1 n=b4 v=64
4752 Off ch=1 n=b4 v=64
4752 Off ch=1 n=g4 v=64
4800 On ch=1 n=c5 v=64
4800 On ch=1 n=c4 v=64
4908 Off ch=1 n=c4 v=64
4908 Off ch=1 n=c5 v=64
5040 On ch=1 n=b4 v=64
5136 Off ch=1 n=b4 v=64
5160 On ch=1 n=d5 v=64
5256 Off ch=1 n=d5 v=64
5280 On ch=1 n=a4 v=64
5376 Off ch=1 n=a4 v=64
5400 On ch=1 n=c5 v=64
5496 Off ch=1 n=c5 v=64
5520 On ch=1 n=g4 v=64
5616 Off ch=1 n=g4 v=64
5640 On ch=1 n=b4 v=64
5736 Off ch=1 n=b4 v=64
5760 On ch=1 n=f#4 v=64
5856 Off ch=1 n=f#4 v=64
5880 On ch=1 n=a4 v=64
5976 Off ch=1 n=a4 v=64
6000 On ch=1 n=e4 v=64
6096 Off ch=1 n=e4 v=64
6120 On ch=1 n=g4 v=64
6216 Off ch=1 n=g4 v=64
6240 On ch=1 n=d4 v=64
6336 Off ch=1 n=d4 v=64
6360 On ch=1 n=f#4 v=64
6456 Off ch=1 n=f#4 v=64
6480 On ch=1 n=g4 v=64
6588 Off ch=1 n=g4 v=64
6720 On ch=1 n=b4 v=64
6912 Off ch=1 n=b4 v=64
6960 On ch=1 n=d5 v=64
7152 Off ch=1 n=d5 v=64
7200 On ch=1 n=g4 v=64
7308 Off ch=1 n=g4 v=64
7440 On ch=1 n=g3 v=64
7548 Off ch=1 n=g3 v=64
8160 On ch=1 n=b4 v=64
8352 Off ch=1 n=b4 v=64
8400 On ch=1 n=c5 v=64
8400 On ch=1 n=a#4 v=64
8592 Off ch=1 n=a#4 v=64
8592 Off ch=1 n=c5 v=64
8640 On ch=1 n=c5 v=64
8640 On ch=1 n=a4 v=64
8832 Off ch=1 n=a4 v=64
8832 Off ch=1 n=c5 v=64
8880 On ch=1 n=g4 v=64
8880 On ch=1 n=c5 v=64
9072 Off ch=1 n=c5 v=64
9072 Off ch=1 n=g4 v=64
9120 On ch=1 n=f4 v=64
9120 On ch=1 n=c5 v=64
9312 Off ch=1 n=c5 v=64
9312 Off ch=1 n=f4 v=64
9360 On ch=1 n=b4 v=64
9552 Off ch=1 n=b4 v=64
9600 On ch=1 n=g4 v=64
9792 Off ch=1 n=g4 v=64
9840 On ch=1 n=c5 v=64
10032 Off ch=1 n=c5 v=64
10080 On ch=1 n=d5 v=64
10272 Off ch=1 n=d5 v=64
10320 On ch=1 n=g4 v=64
10512 Off ch=1 n=g4 v=64
10560 On ch=1 n=c5 v=64
10668 Off ch=1 n=c5 v=64
11040 On ch=1 n=e4 v=64
11040 On ch=1 n=g4 v=64
11232 Off ch=1 n=g4 v=64
11232 Off ch=1 n=e4 v=64
11280 On ch=1 n=c4 v=64
11280 On ch=1 n=c5 v=64
11472 Off ch=1 n=c4 v=64
11520 On ch=1 n=d4 v=64
11712 Off ch=1 n=c5 v=64
11712 Off ch=1 n=d4 v=64
11760 On ch=1 n=b4 v=64
11760 On ch=1 n=g4 v=64
11952 Off ch=1 n=g4 v=64
11952 Off ch=1 n=b4 v=64
12000 On ch=1 n=c4 v=64
12000 On ch=1 n=c5 v=64
12108 Off ch=1 n=c5 v=64
12108 Off ch=1 n=c4 v=64
12240 On ch=1 n=b4 v=64
12336 Off ch=1 n=b4 v=64
12360 On ch=1 n=d5 v=64
12456 Off ch=1 n=d5 v=64
12480 On ch=1 n=a4 v=64
12576 Off ch=1 n=a4 v=64
12600 On ch=1 n=c5 v=64
12696 Off ch=1 n=c5 v=64
12720 On ch=1 n=g4 v=64
12816 Off ch=1 n=g4 v=64
12840 On ch=1 n=b4 v=64
12936 Off ch=1 n=b4 v=64
12960 On ch=1 n=f#4 v=64
13056 Off ch=1 n=f#4 v=64
13080 On ch=1 n=a4 v=64
13176 Off ch=1 n=a4 v=64
13200 On ch=1 n=e4 v=64
13296 Off ch=1 n=e4 v=64
13320 On ch=1 n=g4 v=64
13416 Off ch=1 n=g4 v=64
13440 On ch=1 n=d4 v=64
13536 Off ch=1 n=d4 v=64
13560 On ch=1 n=f#4 v=64
13656 Off ch=1 n=f#4 v=64
13680 On ch=1 n=g4 v=64
13788 Off ch=1 n=g4 v=64
13920 On ch=1 n=b4 v=64
14112 Off ch=1 n=b4 v=64
14160 On ch=1 n=d5 v=64
14352 Off ch=1 n=d5 v=64
14400 On ch=1 n=g4 v=64
14508 Off ch=1 n=g4 v=64
14640 On ch=1 n=g3 v=64
14748 Off ch=1 n=g3 v=64
14880 On ch=1 n=g4 v=80
15072 Off ch=1 n=g4 v=64
15120 On ch=1 n=e4 v=64
15312 Off ch=1 n=e4 v=64
15360 On ch=1 n=c4 v=64
15468 Off ch=1 n=c4 v=64
15600 On ch=1 n=e5 v=64
15600 On ch=1 n=g4 v=64
15792 Off ch=1 n=g4 v=64
15792 Off ch=1 n=e5 v=64
15840 On ch=1 n=g4 v=64
15840 On ch=1 n=f5 v=64
16224 Off ch=1 n=f5 v=64
16224 Off ch=1 n=g4 v=64
16320 On ch=1 n=g4 v=64
16428 Off ch=1 n=g4 v=64
16560 On ch=1 n=e4 v=64
16752 Off ch=1 n=e4 v=64
16800 On ch=1 n=c4 v=64
16908 Off ch=1 n=c4 v=64
17040 On ch=1 n=c5 v=64
17040 On ch=1 n=g4 v=64
17232 Off ch=1 n=g4 v=64
17232 Off ch=1 n=c5 v=64
17280 On ch=1 n=g4 v=80
17280 On ch=1 n=c5 v=64
17472 Off ch=1 n=c5 v=64
17520 On ch=1 n=b4 v=64
17628 Off ch=1 n=b4 v=64
17664 Off ch=1 n=g4 v=64
17760 On ch=1 n=b4 v=64
17760 On ch=1 n=g4 v=64
17868 Off ch=1 n=g4 v=64
17868 Off ch=1 n=b4 v=64
18000 On ch=1 n=a4 v=64
18000 On ch=1 n=c5 v=64
18384 Off ch=1 n=c5 v=64
18384 Off ch=1 n=a4 v=64
18480 On ch=1 n=b4 v=64
18480 On ch=1 n=d5 v=64
18588 Off ch=1 n=d5 v=64
18588 Off ch=1 n=b4 v=64
18720 On ch=1 n=c5 v=64
19104 Off ch=1 n=c5 v=64
19200 On ch=1 n=e4 v=64
19308 Off ch=1 n=e4 v=64
19440 On ch=1 n=f4 v=64
19548 Off ch=1 n=f4 v=64
19680 On ch=1 n=g4 v=64
19788 Off ch=1 n=g4 v=64
19920 On ch=1 n=a4 v=64
20028 Off ch=1 n=a4 v=64
20160 On ch=1 n=g4 v=64
20256 Off ch=1 n=g4 v=64
20280 On ch=1 n=f#4 v=64
20334 Off ch=1 n=f#4 v=64
20400 On ch=1 n=g4 v=64
20496 Off ch=1 n=g4 v=64
20520 On ch=1 n=f#4 v=64
20574 Off ch=1 n=f#4 v=64
20640 On ch=1 n=g4 v=64
20736 Off ch=1 n=g4 v=64
20760 On ch=1 n=f#4 v=64
20814 Off ch=1 n=f#4 v=64
20880 On ch=1 n=g4 v=64
21072 Off ch=1 n=g4 v=64
21120 On ch=1 n=e4 v=64
21312 Off ch=1 n=e4 v=64
21360 On ch=1 n=c4 v=64
21552 Off ch=1 n=c4 v=64
21600 On ch=1 n=d4 v=64
21792 Off ch=1 n=d4 v=64
21840 On ch=1 n=g4 v=64
22032 Off ch=1 n=g4 v=64
22080 On ch=1 n=c5 v=64
22188 Off ch=1 n=c5 v=64
22560 On ch=1 n=e4 v=64
22560 On ch=1 n=g4 v=64
22752 Off ch=1 n=g4 v=64
22752 Off ch=1 n=e4 v=64
22800 On ch=1 n=c4 v=64
22800 On ch=1 n=c5 v=64
22908 Off ch=1 n=c5 v=64
22908 Off ch=1 n=c4 v=64
23040 On ch=1 n=d4 v=64
23040 On ch=1 n=c5 v=64
23232 Off ch=1 n=c5 v=64
23232 Off ch=1 n=d4 v=64
23280 On ch=1 n=g4 v=64
23280 On ch=1 n=b4 v=64
23472 Off ch=1 n=b4 v=64
23472 Off ch=1 n=g4 v=64
23520 On ch=1 n=c5 v=64
23520 On ch=1 n=c4 v=64
23628 Off ch=1 n=c4 v=64
23628 Off ch=1 n=c5 v=64
23760 On ch=1 n=e4 v=64
23952 Off ch=1 n=e4 v=64
24000 On ch=1 n=g4 v=64
24108 Off ch=1 n=g4 v=64
24240 On ch=1 n=g3 v=64
24348 Off ch=1 n=g3 v=64
24480 On ch=1 n=c4 v=64
24672 Off ch=1 n=c4 v=64
24720 On ch=1 n=c5 v=64
24828 Off ch=1 n=c5 v=64
24960 On ch=1 n=g4 v=64
25068 Off ch=1 n=g4 v=64
25200 On ch=1 n=e4 v=64
25392 Off ch=1 n=e4 v=64
25440 On ch=1 n=c4 v=64
25548 Off ch=1 n=c4 v=64
25680 On ch=1 n=g4 v=64
25680 On ch=1 n=e5 v=64
25872 Off ch=1 n=e5 v=64
25872 Off ch=1 n=g4 v=64
25920 On ch=1 n=f5 v=64
25920 On ch=1 n=g4 v=64
26304 Off ch=1 n=g4 v=64
26304 Off ch=1 n=f5 v=64
26400 On ch=1 n=g4 v=64
26508 Off ch=1 n=g4 v=64
26640 On ch=1 n=e4 v=64
26832 Off ch=1 n=e4 v=64
26880 On ch=1 n=c4 v=64
26988 Off ch=1 n=c4 v=64
27120 On ch=1 n=g4 v=64
27120 On ch=1 n=c5 v=64
27312 Off ch=1 n=c5 v=64
27312 Off ch=1 n=g4 v=64
27360 On ch=1 n=c5 v=64
27360 On ch=1 n=g4 v=80
27552 Off ch=1 n=c5 v=64
27600 On ch=1 n=b4 v=64
27708 Off ch=1 n=b4 v=64
27744 Off ch=1 n=g4 v=64
27840 On ch=1 n=g4 v=64
27840 On ch=1 n=b4 v=64
27948 Off ch=1 n=b4 v=64
27948 Off ch=1 n=g4 v=64
28080 On ch=1 n=c5 v=64
28080 On ch=1 n=a4 v=64
28464 Off ch=1 n=a4 v=64
28464 Off ch=1 n=c5 v=64
28560 On ch=1 n=d5 v=64
28560 On ch=1 n=b4 v=64
28668 Off ch=1 n=b4 v=64
28668 Off ch=1 n=d5 v=64
28800 On ch=1 n=c5 v=64
29184 Off ch=1 n=c5 v=64
29280 On ch=1 n=e4 v=64
29388 Off ch=1 n=e4 v=64
29520 On ch=1 n=f4 v=64
29628 Off ch=1 n=f4 v=64
29760 On ch=1 n=g4 v=64
29868 Off ch=1 n=g4 v=64
30000 On ch=1 n=a4 v=64
30108 Off ch=1 n=a4 v=64
30240 On ch=1 n=g4 v=64
30336 Off ch=1 n=g4 v=64
30360 On ch=1 n=f#4 v=64
30414 Off ch=1 n=f#4 v=64
30480 On ch=1 n=g4 v=64
30576 Off ch=1 n=g4 v=64
30600 On ch=1 n=f#4 v=64
30654 Off ch=1 n=f#4 v=64
30720 On ch=1 n=g4 v=64
30816 Off ch=1 n=g4 v=64
30840 On ch=1 n=f#4 v=64
30894 Off ch=1 n=f#4 v=64
30960 On ch=1 n=g4 v=64
31152 Off ch=1 n=g4 v=64
31200 On ch=1 n=e4 v=64
31392 Off ch=1 n=e4 v=64
31440 On ch=1 n=c4 v=64
31632 Off ch=1 n=c4 v=64
31680 On ch=1 n=d4 v=64
31872 Off ch=1 n=d4 v=64
31920 On ch=1 n=g4 v=64
32112 Off ch=1 n=g4 v=64
32160 On ch=1 n=c5 v=64
32268 Off ch=1 n=c5 v=64
32640 On ch=1 n=g4 v=64
32640 On ch=1 n=e4 v=64
32832 Off ch=1 n=e4 v=64
32832 Off ch=1 n=g4 v=64
32880 On ch=1 n=c5 v=64
32880 On ch=1 n=c4 v=64
32988 Off ch=1 n=c4 v=64
32988 Off ch=1 n=c5 v=64
33120 On ch=1 n=c5 v=64
33120 On ch=1 n=d4 v=64
33312 Off ch=1 n=d4 v=64
33312 Off ch=1 n=c5 v=64
33360 On ch=1 n=b4 v=64
33360 On ch=1 n=g4 v=64
33552 Off ch=1 n=g4 v=64
33552 Off ch=1 n=b4 v=64
33600 On ch=1 n=c4 v=64
33600 On ch=1 n=c5 v=64
33708 Off ch=1 n=c5 v=64
33708 Off ch=1 n=c4 v=64
33840 On ch=1 n=e4 v=64
34032 Off ch=1 n=e4 v=64
34080 On ch=1 n=g4 v=64
34188 Off ch=1 n=g4 v=64
34320 On ch=1 n=g3 v=64
34428 Off ch=1 n=g3 v=64
34560 On ch=1 n=c4 v=64
34752 Off ch=1 n=c4 v=64
34800 On ch=1 n=c5 v=64
34908 Off ch=1 n=c5 v=64
35280 On ch=1 n=e4 v=64
35280 On ch=1 n=g4 v=64
35280 On ch=1 n=c4 v=64
35472 Off ch=1 n=c4 v=64
35472 Off ch=1 n=g4 v=64
35472 Off ch=1 n=e4 v=64
36000 On ch=1 n=b3 v=64
36000 On ch=1 n=d4 v=64
36000 On ch=1 n=g4 v=64
36192 Off ch=1 n=g4 v=64
36192 Off ch=1 n=d4 v=64
36192 Off ch=1 n=b3 v=64
36720 On ch=1 n=g4 v=64
36720 On ch=1 n=c4 v=64
36720 On ch=1 n=e4 v=64
36912 Off ch=1 n=e4 v=64
36912 Off ch=1 n=c4 v=64
36912 Off ch=1 n=g4 v=64
37440 On ch=1 n=g4 v=64
37494 Off ch=1 n=g4 v=64
37560 On ch=1 n=a4 v=64
37656 Off ch=1 n=a4 v=64
37680 On ch=1 n=g4 v=64
37776 Off ch=1 n=g4 v=64
37800 On ch=1 n=f4 v=64
37896 Off ch=1 n=f4 v=64
37920 On ch=1 n=e4 v=64
38016 Off ch=1 n=e4 v=64
38040 On ch=1 n=d4 v=64
38136 Off ch=1 n=d4 v=64
38160 On ch=1 n=g4 v=64
38160 On ch=1 n=e4 v=64
38160 On ch=1 n=c4 v=64
38352 Off ch=1 n=c4 v=64
38352 Off ch=1 n=e4 v=64
38352 Off ch=1 n=g4 v=64
38880 On ch=1 n=d4 v=64
38880 On ch=1 n=b3 v=64
38880 On ch=1 n=g4 v=64
39072 Off ch=1 n=g4 v=64
39072 Off ch=1 n=b3 v=64
39072 Off ch=1 n=d4 v=64
39600 On ch=1 n=c4 v=64
39708 Off ch=1 n=c4 v=64
39840 On ch=1 n=f4 v=64
40032 Off ch=1 n=f4 v=64
40080 On ch=1 n=g4 v=64
40272 Off ch=1 n=g4 v=64
40320 On ch=1 n=c4 v=64
40428 Off ch=1 n=c4 v=64
40560 On ch=1 n=c3 v=64
40668 Off ch=1 n=c3 v=64
41040 On ch=1 n=e4 v=64
41040 On ch=1 n=c4 v=64
41040 On ch=1 n=g4 v=64
41232 Off ch=1 n=g4 v=64
41232 Off ch=1 n=c4 v=64
41232 Off ch=1 n=e4 v=64
41760 On ch=1 n=g4 v=64
41760 On ch=1 n=d4 v=64
41760 On ch=1 n=b3 v=64
41952 Off ch=1 n=b3 v=64
41952 Off ch=1 n=d4 v=64
41952 Off ch=1 n=g4 v=64
42480 On ch=1 n=e4 v=64
42480 On ch=1 n=c4 v=64
42480 On ch=1 n=g4 v=64
42672 Off ch=1 n=g4 v=64
42672 Off ch=1 n=c4 v=64
42672 Off ch=1 n=e4 v=64
43200 On ch=1 n=g4 v=64
43254 Off ch=1 n=g4 v=64
43320 On ch=1 n=a4 v=64
43416 Off ch=1 n=a4 v=64
43440 On ch=1 n=g4 v=64
43536 Off ch=1 n=g4 v=64
43560 On ch=1 n=f4 v=64
43656 Off ch=1 n=f4 v=64
43680 On ch=1 n=e4 v=64
43776 Off ch=1 n=e4 v=64
43800 On ch=1 n=d4 v=64
43896 Off ch=1 n=d4 v=64
43920 On ch=1 n=c4 v=64
43920 On ch=1 n=e4 v=64
43920 On ch=1 n=g4 v=64
44112 Off ch=1 n=g4 v=64
44112 Off ch=1 n=e4 v=64
44112 Off ch=1 n=c4 v=64
44640 On ch=1 n=g4 v=64
44640 On ch=1 n=b3 v=64
44640 On ch=1 n=d4 v=64
44832 Off ch=1 n=d4 v=64
44832 Off ch=1 n=b3 v=64
44832 Off ch=1 n=g4 v=64
45360 On ch=1 n=c4 v=64
45468 Off ch=1 n=c4 v=64
45600 On ch=1 n=f4 v=64
45792 Off ch=1 n=f4 v=64
45840 On ch=1 n=g4 v=64
46032 Off ch=1 n=g4 v=64
46080 On ch=1 n=c4 v=64
46188 Off ch=1 n=c4 v=64
46320 On ch=1 n=c3 v=64
46428 Off ch=1 n=c3 v=64
46560 On ch=1 n=c5 v=80
46752 Off ch=1 n=c5 v=64
46800 On ch=1 n=b4 v=64
47184 Off ch=1 n=b4 v=64
47280 On ch=1 n=a4 v=64
47472 Off ch=1 n=a4 v=64
47520 On ch=1 n=g4 v=64
47904 Off ch=1 n=g4 v=64
48000 On ch=1 n=f4 v=80
48108 Off ch=1 n=f4 v=64
48240 On ch=1 n=e4 v=64
48624 Off ch=1 n=e4 v=64
48720 On ch=1 n=d4 v=64
48912 Off ch=1 n=d4 v=64
48960 On ch=1 n=c4 v=64
49344 Off ch=1 n=c4 v=64
49680 On ch=1 n=g4 v=64
49680 On ch=1 n=e4 v=64
49680 On ch=1 n=c4 v=64
49872 Off ch=1 n=c4 v=64
49872 Off ch=1 n=e4 v=64
49872 Off ch=1 n=g4 v=64
50400 On ch=1 n=d4 v=64
50400 On ch=1 n=b3 v=64
50400 On ch=1 n=g4 v=64
50592 Off ch=1 n=g4 v=64
50592 Off ch=1 n=b3 v=64
50592 Off ch=1 n=d4 v=64
51120 On ch=1 n=c4 v=64
51228 Off ch=1 n=c4 v=64
51360 On ch=1 n=f4 v=64
51552 Off ch=1 n=f4 v=64
51600 On ch=1 n=g4 v=64
51792 Off ch=1 n=g4 v=64
51840 On ch=1 n=c4 v=64
51948 Off ch=1 n=c4 v=64
52080 On ch=1 n=c3 v=64
52188 Off ch=1 n=c3 v=64
52320 On ch=1 n=c5 v=80
52512 Off ch=1 n=c5 v=64
52560 On ch=1 n=b4 v=64
52944 Off ch=1 n=b4 v=64
53040 On ch=1 n=a4 v=64
53232 Off ch=1 n=a4 v=64
53280 On ch=1 n=g4 v=64
53664 Off ch=1 n=g4 v=64
53760 On ch=1 n=f4 v=80
53868 Off ch=1 n=f4 v=64
54000 On ch=1 n=e4 v=64
54384 Off ch=1 n=e4 v=64
54480 On ch=1 n=d4 v=64
54672 Off ch=1 n=d4 v=64
54720 On ch=1 n=c4 v=64
55104 Off ch=1 n=c4 v=64
55440 On ch=1 n=c4 v=64
55440 On ch=1 n=e4 v=64
55440 On ch=1 n=g4 v=64
55632 Off ch=1 n=g4 v=64
55632 Off ch=1 n=e4 v=64
55632 Off ch=1 n=c4 v=64
56160 On ch=1 n=g4 v=64
56160 On ch=1 n=b3 v=64
56160 On ch=1 n=d4 v=64
56352 Off ch=1 n=d4 v=64
56352 Off ch=1 n=b3 v=64
56352 Off ch=1 n=g4 v=64
56880 On ch=1 n=c4 v=64
56988 Off ch=1 n=c4 v=64
57120 On ch=1 n=f4 v=64
57312 Off ch=1 n=f4 v=64
57360 On ch=1 n=g4 v=64
57552 Off ch=1 n=g4 v=64
57600 On ch=1 n=c4 v=64
57708 Off ch=1 n=c4 v=64
57840 On ch=1 n=c3 v=64
57948 Off ch=1 n=c3 v=64
58560 On ch=1 n=b4 v=64
58752 Off ch=1 n=b4 v=64
58800 On ch=1 n=c5 v=64
58800 On ch=1 n=a#4 v=64
58992 Off ch=1 n=a#4 v=64
58992 Off ch=1 n=c5 v=64
59040 On ch=1 n=c5 v=64
59040 On ch=1 n=a4 v=64
59232 Off ch=1 n=a4 v=64
59232 Off ch=1 n=c5 v=64
59280 On ch=1 n=g4 v=64
59280 On ch=1 n=c5 v=64
59472 Off ch=1 n=c5 v=64
59472 Off ch=1 n=g4 v=64
59520 On ch=1 n=f4 v=64
59520 On ch=1 n=c5 v=64
59712 Off ch=1 n=c5 v=64
59712 Off ch=1 n=f4 v=64
59760 On ch=1 n=b4 v=64
59952 Off ch=1 n=b4 v=64
60000 On ch=1 n=g4 v=64
60192 Off ch=1 n=g4 v=64
60240 On ch=1 n=c5 v=64
60432 Off ch=1 n=c5 v=64
60480 On ch=1 n=d5 v=64
60672 Off ch=1 n=d5 v=64
60720 On ch=1 n=g4 v=64
60912 Off ch=1 n=g4 v=64
60960 On ch=1 n=c5 v=64
61068 Off ch=1 n=c5 v=64
61440 On ch=1 n=e4 v=64
61440 On ch=1 n=g4 v=64
61632 Off ch=1 n=g4 v=64
61632 Off ch=1 n=e4 v=64
61680 On ch=1 n=c4 v=64
61680 On ch=1 n=c5 v=64
61872 Off ch=1 n=c4 v=64
61920 On ch=1 n=d4 v=64
62112 Off ch=1 n=c5 v=64
62112 Off ch=1 n=d4 v=64
62160 On ch=1 n=b4 v=64
62160 On ch=1 n=g4 v=64
62352 Off ch=1 n=g4 v=64
62352 Off ch=1 n=b4 v=64
62400 On ch=1 n=c4 v=64
62400 On ch=1 n=c5 v=64
62508 Off ch=1 n=c5 v=64
62508 Off ch=1 n=c4 v=64
62640 On ch=1 n=b4 v=64
62736 Off ch=1 n=b4 v=64
62760 On ch=1 n=d5 v=64
62856 Off ch=1 n=d5 v=64
62880 On ch=1 n=a4 v=64
62976 Off ch=1 n=a4 v=64
63000 On ch=1 n=c5 v=64
63096 Off ch=1 n=c5 v=64
63120 On ch=1 n=g4 v=64
63216 Off ch=1 n=g4 v=64
63240 On ch=1 n=b4 v=64
63336 Off ch=1 n=b4 v=64
63360 On ch=1 n=f#4 v=64
63456 Off ch=1 n=f#4 v=64
63480 On ch=1 n=a4 v=64
63576 Off ch=1 n=a4 v=64
63600 On ch=1 n=e4 v=64
63696 Off ch=1 n=e4 v=64
63720 On ch=1 n=g4 v=64
63816 Off ch=1 n=g4 v=64
63840 On ch=1 n=d4 v=64
63936 Off ch=1 n=d4 v=64
63960 On ch=1 n=f#4 v=64
64056 Off ch=1 n=f#4 v=64
64080 On ch=1 n=g4 v=64
64188 Off ch=1 n=g4 v=64
64320 On ch=1 n=b4 v=64
64512 Off ch=1 n=b4 v=64
64560 On ch=1 n=d5 v=64
64752 Off ch=1 n=d5 v=64
64800 On ch=1 n=g4 v=64
64908 Off ch=1 n=g4 v=64
65040 On ch=1 n=g3 v=64
65148 Off ch=1 n=g3 v=64
65520 On ch=1 n=e4 v=64
65712 Off ch=1 n=e4 v=64
65760 On ch=1 n=c4 v=64
65868 Off ch=1 n=c4 v=64
66000 On ch=1 n=e5 v=64
66000 On ch=1 n=g4 v=64
66192 Off ch=1 n=g4 v=64
66192 Off ch=1 n=e5 v=64
66240 On ch=1 n=g4 v=64
66240 On ch=1 n=f5 v=64
66624 Off ch=1 n=f5 v=64
66624 Off ch=1 n=g4 v=64
66720 On ch=1 n=g4 v=64
66828 Off ch=1 n=g4 v=64
66960 On ch=1 n=e4 v=64
67152 Off ch=1 n=e4 v=64
67200 On ch=1 n=c4 v=64
67308 Off ch=1 n=c4 v=64
67440 On ch=1 n=c5 v=64
67440 On ch=1 n=g4 v=64
67632 Off ch=1 n=g4 v=64
67632 Off ch=1 n=c5 v=64
67680 On ch=1 n=g4 v=80
67680 On ch=1 n=c5 v=64
67872 Off ch=1 n=c5 v=64
67920 On ch=1 n=b4 v=64
68028 Off ch=1 n=b4 v=64
68064 Off ch=1 n=g4 v=64
68160 On ch=1 n=b4 v=64
68160 On ch=1 n=g4 v=64
68268 Off ch=1 n=g4 v=64
68268 Off ch=1 n=b4 v=64
68400 On ch=1 n=a4 v=64
68400 On ch=1 n=c5 v=64
68784 Off ch=1 n=c5 v=64
68784 Off ch=1 n=a4 v=64
68880 On ch=1 n=b4 v=64
68880 On ch=1 n=d5 v=64
68988 Off ch=1 n=d5 v=64
68988 Off ch=1 n=b4 v=64
69120 On ch=1 n=c5 v=64
69504 Off ch=1 n=c5 v=64
69600 On ch=1 n=e4 v=64
69708 Off ch=1 n=e4 v=64
69840 On ch=1 n=f4 v=64
69948 Off ch=1 n=f4 v=64
70080 On ch=1 n=g4 v=64
70188 Off ch=1 n=g4 v=64
70320 On ch=1 n=a4 v=64
70428 Off ch=1 n=a4 v=64
70560 On ch=1 n=g4 v=64
70656 Off ch=1 n=g4 v=64
70680 On ch=1 n=f#4 v=64
70734 Off ch=1 n=f#4 v=64
70800 On ch=1 n=g4 v=64
70896 Off ch=1 n=g4 v=64
70920 On ch=1 n=f#4 v=64
70974 Off ch=1 n=f#4 v=64
71040 On ch=1 n=g4 v=64
71136 Off ch=1 n=g4 v=64
71160 On ch=1 n=f#4 v=64
71214 Off ch=1 n=f#4 v=64
71280 On ch=1 n=g4 v=64
71472 Off ch=1 n=g4 v=64
71520 On ch=1 n=e4 v=64
71712 Off ch=1 n=e4 v=64
71760 On ch=1 n=c4 v=64
71952 Off ch=1 n=c4 v=64
72000 On ch=1 n=d4 v=64
72192 Off ch=1 n=d4 v=64
72240 On ch=1 n=g4 v=64
72432 Off ch=1 n=g4 v=64
72480 On ch=1 n=c5 v=64
72588 Off ch=1 n=c5 v=64
72960 On ch=1 n=e4 v=64
72960 On ch=1 n=g4 v=64
73152 Off ch=1 n=g4 v=64
73152 Off ch=1 n=e4 v=64
73200 On ch=1 n=c4 v=64
73200 On ch=1 n=c5 v=64
73308 Off ch=1 n=c5 v=64
73308 Off ch=1 n=c4 v=64
73440 On ch=1 n=d4 v=64
73440 On ch=1 n=c5 v=64
73632 Off ch=1 n=c5 v=64
73632 Off ch=1 n=d4 v=64
73680 On ch=1 n=g4 v=64
73680 On ch=1 n=b4 v=64
73872 Off ch=1 n=b4 v=64
73872 Off ch=1 n=g4 v=64
73920 On ch=1 n=c5 v=64
73920 On ch=1 n=c4 v=64
74028 Off ch=1 n=c4 v=64
74028 Off ch=1 n=c5 v=64
74160 On ch=1 n=e4 v=64
74352 Off ch=1 n=e4 v=64
74400 On ch=1 n=g4 v=64
74508 Off ch=1 n=g4 v=64
74640 On ch=1 n=g3 v=64
74748 Off ch=1 n=g3 v=64
74880 On ch=1 n=c4 v=64
75072 Off ch=1 n=c4 v=64
75120 On ch=1 n=c5 v=64
75228 Off ch=1 n=c5 v=64
75228 Meta TrkEnd
TrkEnd
