MFile 1 3 240
MTrk
0 TimeSig 3/4 24 8
0 Tempo 416667
57120 Tempo 476190
57360 Tempo 555556
57600 Tempo 666667
57600 Meta TrkEnd
TrkEnd
MTrk
480 On ch=1 n=a6 v=64
588 Off ch=1 n=a6 v=64
720 On ch=1 n=a6 v=64
768 Off ch=1 n=a6 v=64
780 On ch=1 n=g6 v=64
828 Off ch=1 n=g6 v=64
840 On ch=1 n=e6 v=64
894 Off ch=1 n=e6 v=64
960 On ch=1 n=c#6 v=64
1056 Off ch=1 n=c#6 v=64
1080 On ch=1 n=a5 v=64
1134 Off ch=1 n=a5 v=64
1200 On ch=1 n=b5 v=64
1254 Off ch=1 n=b5 v=64
1320 On ch=1 n=c#6 v=64
1374 Off ch=1 n=c#6 v=64
1440 On ch=1 n=d6 v=64
1632 Off ch=1 n=d6 v=64
1680 On ch=1 n=e6 v=64
1788 Off ch=1 n=e6 v=64
1920 On ch=1 n=f#6 v=64
2028 Off ch=1 n=f#6 v=64
2160 On ch=1 n=a6 v=64
2208 Off ch=1 n=a6 v=64
2220 On ch=1 n=g6 v=64
2268 Off ch=1 n=g6 v=64
2280 On ch=1 n=e6 v=64
2334 Off ch=1 n=e6 v=64
2400 On ch=1 n=c#6 v=64
2496 Off ch=1 n=c#6 v=64
2520 On ch=1 n=a5 v=64
2574 Off ch=1 n=a5 v=64
2640 On ch=1 n=b5 v=64
2694 Off ch=1 n=b5 v=64
2760 On ch=1 n=c#6 v=64
2814 Off ch=1 n=c#6 v=64
2880 On ch=1 n=d6 v=64
3264 Off ch=1 n=d6 v=64
3360 On ch=1 n=f#6 v=64
3468 Off ch=1 n=f#6 v=64
3600 On ch=1 n=a6 v=64
3648 Off ch=1 n=a6 v=64
3660 On ch=1 n=g6 v=64
3708 Off ch=1 n=g6 v=64
3720 On ch=1 n=e6 v=64
3774 Off ch=1 n=e6 v=64
3840 On ch=1 n=c#6 v=64
3936 Off ch=1 n=c#6 v=64
3960 On ch=1 n=a5 v=64
4014 Off ch=1 n=a5 v=64
4080 On ch=1 n=b5 v=64
4134 Off ch=1 n=b5 v=64
4200 On ch=1 n=c#6 v=64
4254 Off ch=1 n=c#6 v=64
4320 On ch=1 n=d6 v=64
4512 Off ch=1 n=d6 v=64
4560 On ch=1 n=e6 v=64
4668 Off ch=1 n=e6 v=64
4800 On ch=1 n=f#6 v=64
4908 Off ch=1 n=f#6 v=64
5040 On ch=1 n=a6 v=64
5088 Off ch=1 n=a6 v=64
5100 On ch=1 n=g6 v=64
5148 Off ch=1 n=g6 v=64
5160 On ch=1 n=e6 v=64
5214 Off ch=1 n=e6 v=64
5280 On ch=1 n=c#6 v=64
5376 Off ch=1 n=c#6 v=64
5400 On ch=1 n=a5 v=64
5454 Off ch=1 n=a5 v=64
5520 On ch=1 n=b5 v=64
5574 Off ch=1 n=b5 v=64
5640 On ch=1 n=c#6 v=64
5694 Off ch=1 n=c#6 v=64
5760 On ch=1 n=f#5 v=64
5760 On ch=1 n=a5 v=64
5760 On ch=1 n=d6 v=64
5976 Off ch=1 n=d6 v=64
5976 Off ch=1 n=a5 v=64
5976 Off ch=1 n=f#5 v=64
6240 On ch=1 n=a6 v=64
6348 Off ch=1 n=a6 v=64
6480 On ch=1 n=a6 v=64
6528 Off ch=1 n=a6 v=64
6540 On ch=1 n=g6 v=64
6588 Off ch=1 n=g6 v=64
6600 On ch=1 n=e6 v=64
6654 Off ch=1 n=e6 v=64
6720 On ch=1 n=c#6 v=64
6816 Off ch=1 n=c#6 v=64
6840 On ch=1 n=a5 v=64
6894 Off ch=1 n=a5 v=64
6960 On ch=1 n=b5 v=64
7014 Off ch=1 n=b5 v=64
7080 On ch=1 n=c#6 v=64
7134 Off ch=1 n=c#6 v=64
7200 On ch=1 n=d6 v=64
7392 Off ch=1 n=d6 v=64
7440 On ch=1 n=e6 v=64
7548 Off ch=1 n=e6 v=64
7680 On ch=1 n=f#6 v=64
7788 Off ch=1 n=f#6 v=64
7920 On ch=1 n=a6 v=64
7968 Off ch=1 n=a6 v=64
7980 On ch=1 n=g6 v=64
8028 Off ch=1 n=g6 v=64
8040 On ch=1 n=e6 v=64
8094 Off ch=1 n=e6 v=64
8160 On ch=1 n=c#6 v=64
8256 Off ch=1 n=c#6 v=64
8280 On ch=1 n=a5 v=64
8334 Off ch=1 n=a5 v=64
8400 On ch=1 n=b5 v=64
8454 Off ch=1 n=b5 v=64
8520 On ch=1 n=c#6 v=64
8574 Off ch=1 n=c#6 v=64
8640 On ch=1 n=d6 v=64
9024 Off ch=1 n=d6 v=64
9120 On ch=1 n=f#6 v=64
9228 Off ch=1 n=f#6 v=64
9360 On ch=1 n=a6 v=64
9408 Off ch=1 n=a6 v=64
9420 On ch=1 n=g6 v=64
9468 Off ch=1 n=g6 v=64
9480 On ch=1 n=e6 v=64
9534 Off ch=1 n=e6 v=64
9600 On ch=1 n=c#6 v=64
9696 Off ch=1 n=c#6 v=64
9720 On ch=1 n=a5 v=64
9774 Off ch=1 n=a5 v=64
9840 On ch=1 n=b5 v=64
9894 Off ch=1 n=b5 v=64
9960 On ch=1 n=c#6 v=64
10014 Off ch=1 n=c#6 v=64
10080 On ch=1 n=d6 v=64
10272 Off ch=1 n=d6 v=64
10320 On ch=1 n=e6 v=64
10428 Off ch=1 n=e6 v=64
10560 On ch=1 n=f#6 v=64
10668 Off ch=1 n=f#6 v=64
10800 On ch=1 n=a6 v=64
10848 Off ch=1 n=a6 v=64
10860 On ch=1 n=g6 v=64
10908 Off ch=1 n=g6 v=64
10920 On ch=1 n=e6 v=64
10974 Off ch=1 n=e6 v=64
11040 On ch=1 n=c#6 v=64
11136 Off ch=1 n=c#6 v=64
11160 On ch=1 n=a5 v=64
11214 Off ch=1 n=a5 v=64
11280 On ch=1 n=b5 v=64
11334 Off ch=1 n=b5 v=64
11400 On ch=1 n=c#6 v=64
11454 Off ch=1 n=c#6 v=64
11520 On ch=1 n=d6 v=64
11520 On ch=1 n=a5 v=64
11520 On ch=1 n=f#5 v=64
11736 Off ch=1 n=f#5 v=64
11736 Off ch=1 n=a5 v=64
11736 Off ch=1 n=d6 v=64
12000 On ch=1 n=a4 v=64
12108 Off ch=1 n=a4 v=64
12240 On ch=1 n=a5 v=64
12288 Off ch=1 n=a5 v=64
12300 On ch=1 n=g5 v=64
12444 Off ch=1 n=g5 v=64
12480 On ch=1 n=f#5 v=64
12576 Off ch=1 n=f#5 v=64
12600 On ch=1 n=e5 v=64
12696 Off ch=1 n=e5 v=64
12720 On ch=1 n=d5 v=64
12816 Off ch=1 n=d5 v=64
12840 On ch=1 n=c#5 v=64
12894 Off ch=1 n=c#5 v=64
12960 On ch=1 n=b5 v=64
13008 Off ch=1 n=b5 v=64
13020 On ch=1 n=a5 v=64
13164 Off ch=1 n=a5 v=64
13200 On ch=1 n=g5 v=64
13296 Off ch=1 n=g5 v=64
13320 On ch=1 n=f#5 v=64
13416 Off ch=1 n=f#5 v=64
13440 On ch=1 n=e5 v=64
13536 Off ch=1 n=e5 v=64
13560 On ch=1 n=d5 v=64
13614 Off ch=1 n=d5 v=64
13680 On ch=1 n=c#6 v=64
13728 Off ch=1 n=c#6 v=64
13740 On ch=1 n=b5 v=64
13884 Off ch=1 n=b5 v=64
13920 On ch=1 n=a5 v=64
14016 Off ch=1 n=a5 v=64
14040 On ch=1 n=g5 v=64
14136 Off ch=1 n=g5 v=64
14160 On ch=1 n=f#5 v=64
14256 Off ch=1 n=f#5 v=64
14280 On ch=1 n=e5 v=64
14334 Off ch=1 n=e5 v=64
14400 On ch=1 n=d5 v=64
14592 Off ch=1 n=d5 v=64
14640 On ch=1 n=c#5 v=64
14748 Off ch=1 n=c#5 v=64
14880 On ch=1 n=f#6 v=64
14988 Off ch=1 n=f#6 v=64
15120 On ch=1 n=a6 v=64
15168 Off ch=1 n=a6 v=64
15180 On ch=1 n=g6 v=64
15228 Off ch=1 n=g6 v=64
15240 On ch=1 n=e6 v=64
15294 Off ch=1 n=e6 v=64
15360 On ch=1 n=c#6 v=64
15456 Off ch=1 n=c#6 v=64
15480 On ch=1 n=a5 v=64
15534 Off ch=1 n=a5 v=64
15600 On ch=1 n=b5 v=64
15654 Off ch=1 n=b5 v=64
15720 On ch=1 n=c#6 v=64
15774 Off ch=1 n=c#6 v=64
15840 On ch=1 n=d6 v=64
16032 Off ch=1 n=d6 v=64
16080 On ch=1 n=e6 v=64
16188 Off ch=1 n=e6 v=64
16320 On ch=1 n=f#6 v=64
16428 Off ch=1 n=f#6 v=64
16560 On ch=1 n=a6 v=64
16608 Off ch=1 n=a6 v=64
16620 On ch=1 n=g6 v=64
16668 Off ch=1 n=g6 v=64
16680 On ch=1 n=e6 v=64
16734 Off ch=1 n=e6 v=64
16800 On ch=1 n=c#6 v=64
16896 Off ch=1 n=c#6 v=64
16920 On ch=1 n=a5 v=64
16974 Off ch=1 n=a5 v=64
17040 On ch=1 n=b5 v=64
17094 Off ch=1 n=b5 v=64
17160 On ch=1 n=c#6 v=64
17214 Off ch=1 n=c#6 v=64
17280 On ch=1 n=f#5 v=64
17280 On ch=1 n=a5 v=64
17280 On ch=1 n=d6 v=64
17496 Off ch=1 n=d6 v=64
17496 Off ch=1 n=a5 v=64
17496 Off ch=1 n=f#5 v=64
17760 On ch=1 n=a4 v=80
17952 Off ch=1 n=a4 v=64
18000 On ch=1 n=a5 v=64
18048 Off ch=1 n=a5 v=64
18060 On ch=1 n=g5 v=64
18204 Off ch=1 n=g5 v=64
18240 On ch=1 n=f#5 v=64
18336 Off ch=1 n=f#5 v=64
18360 On ch=1 n=e5 v=64
18456 Off ch=1 n=e5 v=64
18480 On ch=1 n=d5 v=64
18576 Off ch=1 n=d5 v=64
18600 On ch=1 n=c#5 v=64
18654 Off ch=1 n=c#5 v=64
18720 On ch=1 n=b5 v=64
18768 Off ch=1 n=b5 v=64
18780 On ch=1 n=a5 v=64
18924 Off ch=1 n=a5 v=64
18960 On ch=1 n=g5 v=64
19056 Off ch=1 n=g5 v=64
19080 On ch=1 n=f#5 v=64
19176 Off ch=1 n=f#5 v=64
19200 On ch=1 n=e5 v=64
19296 Off ch=1 n=e5 v=64
19320 On ch=1 n=d5 v=64
19374 Off ch=1 n=d5 v=64
19440 On ch=1 n=c#6 v=64
19488 Off ch=1 n=c#6 v=64
19500 On ch=1 n=b5 v=64
19644 Off ch=1 n=b5 v=64
19680 On ch=1 n=a5 v=64
19776 Off ch=1 n=a5 v=64
19800 On ch=1 n=g5 v=64
19896 Off ch=1 n=g5 v=64
19920 On ch=1 n=f#5 v=64
20016 Off ch=1 n=f#5 v=64
20040 On ch=1 n=e5 v=64
20094 Off ch=1 n=e5 v=64
20160 On ch=1 n=d5 v=64
20352 Off ch=1 n=d5 v=64
20400 On ch=1 n=c#5 v=64
20508 Off ch=1 n=c#5 v=64
20640 On ch=1 n=f#6 v=64
20748 Off ch=1 n=f#6 v=64
20880 On ch=1 n=a6 v=64
20928 Off ch=1 n=a6 v=64
20940 On ch=1 n=g6 v=64
20988 Off ch=1 n=g6 v=64
21000 On ch=1 n=e6 v=64
21054 Off ch=1 n=e6 v=64
21120 On ch=1 n=c#6 v=64
21216 Off ch=1 n=c#6 v=64
21240 On ch=1 n=a5 v=64
21294 Off ch=1 n=a5 v=64
21360 On ch=1 n=b5 v=64
21414 Off ch=1 n=b5 v=64
21480 On ch=1 n=c#6 v=64
21534 Off ch=1 n=c#6 v=64
21600 On ch=1 n=d6 v=64
21792 Off ch=1 n=d6 v=64
21840 On ch=1 n=e6 v=64
21948 Off ch=1 n=e6 v=64
22080 On ch=1 n=f#6 v=64
22188 Off ch=1 n=f#6 v=64
22320 On ch=1 n=a6 v=64
22368 Off ch=1 n=a6 v=64
22380 On ch=1 n=g6 v=64
22428 Off ch=1 n=g6 v=64
22440 On ch=1 n=e6 v=64
22494 Off ch=1 n=e6 v=64
22560 On ch=1 n=c#6 v=64
22656 Off ch=1 n=c#6 v=64
22680 On ch=1 n=a5 v=64
22734 Off ch=1 n=a5 v=64
22800 On ch=1 n=b5 v=64
22854 Off ch=1 n=b5 v=64
22920 On ch=1 n=c#6 v=64
22974 Off ch=1 n=c#6 v=64
23040 On ch=1 n=d6 v=64
23040 On ch=1 n=a5 v=64
23040 On ch=1 n=f#5 v=64
23256 Off ch=1 n=f#5 v=64
23256 Off ch=1 n=a5 v=64
23256 Off ch=1 n=d6 v=64
23520 On ch=1 n=a4 v=64
23584 Off ch=1 n=a4 v=64
23600 On ch=1 n=b4 v=64
23664 Off ch=1 n=b4 v=64
23680 On ch=1 n=c#5 v=64
23744 Off ch=1 n=c#5 v=64
23760 On ch=1 n=d5 v=64
23952 Off ch=1 n=d5 v=64
24000 On ch=1 n=f#6 v=64
24000 On ch=1 n=f#5 v=64
24108 Off ch=1 n=f#5 v=64
24108 Off ch=1 n=f#6 v=64
24240 On ch=1 n=e5 v=64
24240 On ch=1 n=e6 v=64
24348 Off ch=1 n=e6 v=64
24348 Off ch=1 n=e5 v=64
24480 On ch=1 n=e5 v=64
24480 On ch=1 n=e6 v=64
24672 Off ch=1 n=e6 v=64
24672 Off ch=1 n=e5 v=64
24720 On ch=1 n=f#6 v=64
24720 On ch=1 n=f#5 v=64
24828 Off ch=1 n=f#5 v=64
24828 Off ch=1 n=f#6 v=64
24960 On ch=1 n=a4 v=64
24960 On ch=1 n=a5 v=64
25392 Off ch=1 n=a5 v=64
25392 Off ch=1 n=a4 v=64
25440 On ch=1 n=b4 v=64
25440 On ch=1 n=b5 v=64
25548 Off ch=1 n=b5 v=64
25548 Off ch=1 n=b4 v=64
25680 On ch=1 n=c#5 v=64
25680 On ch=1 n=c#6 v=64
25788 Off ch=1 n=c#6 v=64
25788 Off ch=1 n=c#5 v=64
25920 On ch=1 n=d5 v=64
25920 On ch=1 n=d6 v=64
26016 Off ch=1 n=d6 v=64
26016 Off ch=1 n=d5 v=64
26040 On ch=1 n=c#5 v=64
26040 On ch=1 n=c#6 v=64
26094 Off ch=1 n=c#6 v=64
26094 Off ch=1 n=c#5 v=64
26160 On ch=1 n=d6 v=64
26160 On ch=1 n=d5 v=64
26256 Off ch=1 n=d5 v=64
26256 Off ch=1 n=d6 v=64
26280 On ch=1 n=e5 v=64
26280 On ch=1 n=e6 v=64
26334 Off ch=1 n=e6 v=64
26334 Off ch=1 n=e5 v=64
26400 On ch=1 n=d5 v=64
26400 On ch=1 n=d6 v=64
26592 Off ch=1 n=d6 v=64
26592 Off ch=1 n=d5 v=64
26880 On ch=1 n=f#5 v=64
26880 On ch=1 n=f#6 v=64
26988 Off ch=1 n=f#6 v=64
26988 Off ch=1 n=f#5 v=64
27120 On ch=1 n=e5 v=64
27120 On ch=1 n=e6 v=64
27228 Off ch=1 n=e6 v=64
27228 Off ch=1 n=e5 v=64
27360 On ch=1 n=e5 v=64
27360 On ch=1 n=e6 v=64
27552 Off ch=1 n=e6 v=64
27552 Off ch=1 n=e5 v=64
27600 On ch=1 n=f#6 v=64
27600 On ch=1 n=f#5 v=64
27708 Off ch=1 n=f#5 v=64
27708 Off ch=1 n=f#6 v=64
27840 On ch=1 n=a5 v=64
27840 On ch=1 n=a4 v=64
28272 Off ch=1 n=a4 v=64
28272 Off ch=1 n=a5 v=64
28320 On ch=1 n=b4 v=64
28320 On ch=1 n=b5 v=64
28428 Off ch=1 n=b5 v=64
28428 Off ch=1 n=b4 v=64
28560 On ch=1 n=c#5 v=64
28560 On ch=1 n=c#6 v=64
28668 Off ch=1 n=c#6 v=64
28668 Off ch=1 n=c#5 v=64
28800 On ch=1 n=d6 v=64
28800 On ch=1 n=d5 v=64
29016 Off ch=1 n=d5 v=64
29016 Off ch=1 n=d6 v=64
29280 On ch=1 n=a4 v=64
29344 Off ch=1 n=a4 v=64
29360 On ch=1 n=b4 v=64
29424 Off ch=1 n=b4 v=64
29440 On ch=1 n=c#5 v=64
29504 Off ch=1 n=c#5 v=64
29520 On ch=1 n=d5 v=64
29712 Off ch=1 n=d5 v=64
29760 On ch=1 n=f#5 v=64
29760 On ch=1 n=f#6 v=64
29868 Off ch=1 n=f#6 v=64
29868 Off ch=1 n=f#5 v=64
30000 On ch=1 n=e6 v=64
30000 On ch=1 n=e5 v=64
30108 Off ch=1 n=e5 v=64
30108 Off ch=1 n=e6 v=64
30240 On ch=1 n=e6 v=64
30240 On ch=1 n=e5 v=64
30432 Off ch=1 n=e5 v=64
30432 Off ch=1 n=e6 v=64
30480 On ch=1 n=f#5 v=64
30480 On ch=1 n=f#6 v=64
30588 Off ch=1 n=f#6 v=64
30588 Off ch=1 n=f#5 v=64
30720 On ch=1 n=a5 v=64
30720 On ch=1 n=a4 v=64
31152 Off ch=1 n=a4 v=64
31152 Off ch=1 n=a5 v=64
31200 On ch=1 n=b5 v=64
31200 On ch=1 n=b4 v=64
31308 Off ch=1 n=b4 v=64
31308 Off ch=1 n=b5 v=64
31440 On ch=1 n=c#6 v=64
31440 On ch=1 n=c#5 v=64
31548 Off ch=1 n=c#5 v=64
31548 Off ch=1 n=c#6 v=64
31680 On ch=1 n=d6 v=64
31680 On ch=1 n=d5 v=64
31776 Off ch=1 n=d5 v=64
31776 Off ch=1 n=d6 v=64
31800 On ch=1 n=c#6 v=64
31800 On ch=1 n=c#5 v=64
31854 Off ch=1 n=c#5 v=64
31854 Off ch=1 n=c#6 v=64
31920 On ch=1 n=d5 v=64
31920 On ch=1 n=d6 v=64
32016 Off ch=1 n=d6 v=64
32016 Off ch=1 n=d5 v=64
32040 On ch=1 n=e6 v=64
32040 On ch=1 n=e5 v=64
32094 Off ch=1 n=e5 v=64
32094 Off ch=1 n=e6 v=64
32160 On ch=1 n=d6 v=64
32160 On ch=1 n=d5 v=64
32352 Off ch=1 n=d5 v=64
32352 Off ch=1 n=d6 v=64
32640 On ch=1 n=f#6 v=64
32640 On ch=1 n=f#5 v=64
32748 Off ch=1 n=f#5 v=64
32748 Off ch=1 n=f#6 v=64
32880 On ch=1 n=e6 v=64
32880 On ch=1 n=e5 v=64
32988 Off ch=1 n=e5 v=64
32988 Off ch=1 n=e6 v=64
33120 On ch=1 n=e6 v=64
33120 On ch=1 n=e5 v=64
33312 Off ch=1 n=e5 v=64
33312 Off ch=1 n=e6 v=64
33360 On ch=1 n=f#5 v=64
33360 On ch=1 n=f#6 v=64
33468 Off ch=1 n=f#6 v=64
33468 Off ch=1 n=f#5 v=64
33600 On ch=1 n=a4 v=64
33600 On ch=1 n=a5 v=64
34032 Off ch=1 n=a5 v=64
34032 Off ch=1 n=a4 v=64
34080 On ch=1 n=b5 v=64
34080 On ch=1 n=b4 v=64
34188 Off ch=1 n=b4 v=64
34188 Off ch=1 n=b5 v=64
34320 On ch=1 n=c#6 v=64
34320 On ch=1 n=c#5 v=64
34428 Off ch=1 n=c#5 v=64
34428 Off ch=1 n=c#6 v=64
34560 On ch=1 n=d6 v=64
34560 On ch=1 n=d5 v=64
34944 Off ch=1 n=d5 v=64
34944 Off ch=1 n=d6 v=64
35040 On ch=1 n=a4 v=64
35040 On ch=1 n=a5 v=64
35232 Off ch=1 n=a5 v=64
35232 Off ch=1 n=a4 v=64
35280 On ch=1 n=g#4 v=64
35280 On ch=1 n=g#5 v=64
35472 Off ch=1 n=g#5 v=64
35472 Off ch=1 n=g#4 v=64
35520 On ch=1 n=g#4 v=64
35520 On ch=1 n=g#5 v=64
35628 Off ch=1 n=g#5 v=64
35628 Off ch=1 n=g#4 v=64
35760 On ch=1 n=g#4 v=64
35760 On ch=1 n=g#5 v=64
35868 Off ch=1 n=g#5 v=64
35868 Off ch=1 n=g#4 v=64
36000 On ch=1 n=a4 v=64
36000 On ch=1 n=a5 v=64
36192 Off ch=1 n=a5 v=64
36192 Off ch=1 n=a4 v=64
36240 On ch=1 n=c#6 v=64
36240 On ch=1 n=c#5 v=64
36348 Off ch=1 n=c#5 v=64
36348 Off ch=1 n=c#6 v=64
36480 On ch=1 n=e5 v=64
36480 On ch=1 n=e6 v=64
36588 Off ch=1 n=e6 v=64
36588 Off ch=1 n=e5 v=64
36720 On ch=1 n=g#4 v=64
36720 On ch=1 n=g#5 v=64
36912 Off ch=1 n=g#5 v=64
36912 Off ch=1 n=g#4 v=64
36960 On ch=1 n=g#5 v=64
36960 On ch=1 n=g#4 v=64
37068 Off ch=1 n=g#4 v=64
37068 Off ch=1 n=g#5 v=64
37200 On ch=1 n=g#4 v=64
37200 On ch=1 n=g#5 v=64
37308 Off ch=1 n=g#5 v=64
37308 Off ch=1 n=g#4 v=64
37440 On ch=1 n=a5 v=64
37440 On ch=1 n=a4 v=64
37656 Off ch=1 n=a4 v=64
37656 Off ch=1 n=a5 v=64
37920 On ch=1 n=a4 v=64
37984 Off ch=1 n=a4 v=64
38000 On ch=1 n=b4 v=64
38064 Off ch=1 n=b4 v=64
38080 On ch=1 n=c#5 v=64
38144 Off ch=1 n=c#5 v=64
38160 On ch=1 n=d5 v=64
38352 Off ch=1 n=d5 v=64
38400 On ch=1 n=f#6 v=64
38400 On ch=1 n=f#5 v=64
38508 Off ch=1 n=f#5 v=64
38508 Off ch=1 n=f#6 v=64
38640 On ch=1 n=e5 v=64
38640 On ch=1 n=e6 v=64
38748 Off ch=1 n=e6 v=64
38748 Off ch=1 n=e5 v=64
38880 On ch=1 n=e5 v=64
38880 On ch=1 n=e6 v=64
39072 Off ch=1 n=e6 v=64
39072 Off ch=1 n=e5 v=64
39120 On ch=1 n=f#5 v=64
39120 On ch=1 n=f#6 v=64
39228 Off ch=1 n=f#6 v=64
39228 Off ch=1 n=f#5 v=64
39360 On ch=1 n=a5 v=64
39360 On ch=1 n=a4 v=64
39468 Off ch=1 n=a4 v=64
39468 Off ch=1 n=a5 v=64
39600 On ch=1 n=a4 v=64
39600 On ch=1 n=a5 v=64
39792 Off ch=1 n=a5 v=64
39792 Off ch=1 n=a4 v=64
39840 On ch=1 n=b4 v=64
39840 On ch=1 n=b5 v=64
39948 Off ch=1 n=b5 v=64
39948 Off ch=1 n=b4 v=64
40080 On ch=1 n=c#6 v=64
40080 On ch=1 n=c#5 v=64
40188 Off ch=1 n=c#5 v=64
40188 Off ch=1 n=c#6 v=64
40320 On ch=1 n=d5 v=64
40320 On ch=1 n=d6 v=64
40536 Off ch=1 n=d6 v=64
40536 Off ch=1 n=d5 v=64
40800 On ch=1 n=a5 v=64
40800 On ch=1 n=a4 v=64
40908 Off ch=1 n=a4 v=64
40908 Off ch=1 n=a5 v=64
41040 On ch=1 n=g#5 v=64
41040 On ch=1 n=g#4 v=64
41232 Off ch=1 n=g#4 v=64
41232 Off ch=1 n=g#5 v=64
41280 On ch=1 n=g#5 v=64
41280 On ch=1 n=g#4 v=64
41388 Off ch=1 n=g#4 v=64
41388 Off ch=1 n=g#5 v=64
41520 On ch=1 n=g#5 v=64
41520 On ch=1 n=g#4 v=64
41628 Off ch=1 n=g#4 v=64
41628 Off ch=1 n=g#5 v=64
41760 On ch=1 n=a5 v=64
41760 On ch=1 n=a4 v=64
41952 Off ch=1 n=a4 v=64
41952 Off ch=1 n=a5 v=64
42000 On ch=1 n=c#5 v=64
42000 On ch=1 n=c#6 v=64
42108 Off ch=1 n=c#6 v=64
42108 Off ch=1 n=c#5 v=64
42240 On ch=1 n=e6 v=64
42240 On ch=1 n=e5 v=64
42348 Off ch=1 n=e5 v=64
42348 Off ch=1 n=e6 v=64
42480 On ch=1 n=g#5 v=64
42480 On ch=1 n=g#4 v=64
42672 Off ch=1 n=g#4 v=64
42672 Off ch=1 n=g#5 v=64
42720 On ch=1 n=g#4 v=64
42720 On ch=1 n=g#5 v=64
42828 Off ch=1 n=g#5 v=64
42828 Off ch=1 n=g#4 v=64
42960 On ch=1 n=g#5 v=64
42960 On ch=1 n=g#4 v=64
43068 Off ch=1 n=g#4 v=64
43068 Off ch=1 n=g#5 v=64
43200 On ch=1 n=a4 v=64
43200 On ch=1 n=a5 v=64
43416 Off ch=1 n=a5 v=64
43416 Off ch=1 n=a4 v=64
43680 On ch=1 n=a4 v=64
43744 Off ch=1 n=a4 v=64
43760 On ch=1 n=b4 v=64
43824 Off ch=1 n=b4 v=64
43840 On ch=1 n=c#5 v=64
43904 Off ch=1 n=c#5 v=64
43920 On ch=1 n=d5 v=64
44112 Off ch=1 n=d5 v=64
44160 On ch=1 n=f#5 v=64
44160 On ch=1 n=f#6 v=64
44268 Off ch=1 n=f#6 v=64
44268 Off ch=1 n=f#5 v=64
44400 On ch=1 n=e6 v=64
44400 On ch=1 n=e5 v=64
44508 Off ch=1 n=e5 v=64
44508 Off ch=1 n=e6 v=64
44640 On ch=1 n=e6 v=64
44640 On ch=1 n=e5 v=64
44832 Off ch=1 n=e5 v=64
44832 Off ch=1 n=e6 v=64
44880 On ch=1 n=f#6 v=64
44880 On ch=1 n=f#5 v=64
TrkEnd
