MFile 1 3 240
MTrk
0 TimeSig 3/4 24 8
0 Tempo 540541
56400 Tempo 606061
56640 Tempo 689655
56880 Tempo 800000
56880 Meta TrkEnd
TrkEnd
MTrk
0 On ch=1 n=d6 v=64
96 Off ch=1 n=d6 v=64
120 On ch=1 n=a5 v=64
174 Off ch=1 n=a5 v=64
240 On ch=1 n=f#5 v=64
294 Off ch=1 n=f#5 v=64
360 On ch=1 n=a5 v=64
414 Off ch=1 n=a5 v=64
480 On ch=1 n=d6 v=64
534 Off ch=1 n=d6 v=64
600 On ch=1 n=f#6 v=64
654 Off ch=1 n=f#6 v=64
720 On ch=1 n=f#6 v=64
816 Off ch=1 n=f#6 v=64
840 On ch=1 n=g6 v=64
894 Off ch=1 n=g6 v=64
960 On ch=1 n=c#6 v=64
960 On ch=1 n=a5 v=64
960 On ch=1 n=e6 v=64
1068 Off ch=1 n=e6 v=64
1068 Off ch=1 n=a5 v=64
1068 Off ch=1 n=c#6 v=64
1200 On ch=1 n=c#6 v=64
1200 On ch=1 n=a5 v=64
1200 On ch=1 n=e6 v=64
1308 Off ch=1 n=e6 v=64
1308 Off ch=1 n=a5 v=64
1308 Off ch=1 n=c#6 v=64
1440 On ch=1 n=d6 v=64
1536 Off ch=1 n=d6 v=64
1560 On ch=1 n=a5 v=64
1614 Off ch=1 n=a5 v=64
1680 On ch=1 n=f#5 v=64
1734 Off ch=1 n=f#5 v=64
1800 On ch=1 n=a5 v=64
1854 Off ch=1 n=a5 v=64
1920 On ch=1 n=d6 v=64
1974 Off ch=1 n=d6 v=64
2040 On ch=1 n=f#6 v=64
2094 Off ch=1 n=f#6 v=64
2160 On ch=1 n=f#6 v=64
2256 Off ch=1 n=f#6 v=64
2280 On ch=1 n=g6 v=64
2334 Off ch=1 n=g6 v=64
2400 On ch=1 n=c#6 v=64
2400 On ch=1 n=e6 v=64
2400 On ch=1 n=a5 v=64
2616 Off ch=1 n=a5 v=64
2616 Off ch=1 n=e6 v=64
2616 Off ch=1 n=c#6 v=64
2880 On ch=1 n=e6 v=64
2976 Off ch=1 n=e6 v=64
3000 On ch=1 n=c#6 v=64
3054 Off ch=1 n=c#6 v=64
3120 On ch=1 n=a5 v=64
3174 Off ch=1 n=a5 v=64
3240 On ch=1 n=c#6 v=64
3294 Off ch=1 n=c#6 v=64
3360 On ch=1 n=e6 v=64
3414 Off ch=1 n=e6 v=64
3480 On ch=1 n=f#6 v=64
3534 Off ch=1 n=f#6 v=64
3600 On ch=1 n=f#6 v=64
3696 Off ch=1 n=f#6 v=64
3720 On ch=1 n=g6 v=64
3816 Off ch=1 n=g6 v=64
3840 On ch=1 n=c#6 v=64
3840 On ch=1 n=a5 v=64
3840 On ch=1 n=e6 v=64
3948 Off ch=1 n=e6 v=64
3948 Off ch=1 n=a5 v=64
3948 Off ch=1 n=c#6 v=64
4080 On ch=1 n=c#6 v=64
4080 On ch=1 n=a5 v=64
4080 On ch=1 n=e6 v=64
4188 Off ch=1 n=e6 v=64
4188 Off ch=1 n=a5 v=64
4188 Off ch=1 n=c#6 v=64
4320 On ch=1 n=a6 v=64
4416 Off ch=1 n=a6 v=64
4440 On ch=1 n=f#6 v=64
4494 Off ch=1 n=f#6 v=64
4560 On ch=1 n=d6 v=64
4656 Off ch=1 n=d6 v=64
4680 On ch=1 n=f#6 v=64
4734 Off ch=1 n=f#6 v=64
4800 On ch=1 n=e6 v=64
4896 Off ch=1 n=e6 v=64
4920 On ch=1 n=c#6 v=64
4974 Off ch=1 n=c#6 v=64
5040 On ch=1 n=c#6 v=64
5088 Off ch=1 n=c#6 v=64
5100 On ch=1 n=d6 v=64
5181 Off ch=1 n=d6 v=64
5280 On ch=1 n=d5 v=64
5664 Off ch=1 n=d5 v=64
5760 On ch=1 n=d6 v=64
5856 Off ch=1 n=d6 v=64
5880 On ch=1 n=a5 v=64
5934 Off ch=1 n=a5 v=64
6000 On ch=1 n=f#5 v=64
6054 Off ch=1 n=f#5 v=64
6120 On ch=1 n=a5 v=64
6174 Off ch=1 n=a5 v=64
6240 On ch=1 n=d6 v=64
6294 Off ch=1 n=d6 v=64
6360 On ch=1 n=f#6 v=64
6414 Off ch=1 n=f#6 v=64
6480 On ch=1 n=f#6 v=64
6576 Off ch=1 n=f#6 v=64
6600 On ch=1 n=g6 v=64
6654 Off ch=1 n=g6 v=64
6720 On ch=1 n=e6 v=64
6720 On ch=1 n=a5 v=64
6720 On ch=1 n=c#6 v=64
6828 Off ch=1 n=c#6 v=64
6828 Off ch=1 n=a5 v=64
6828 Off ch=1 n=e6 v=64
6960 On ch=1 n=e6 v=64
6960 On ch=1 n=a5 v=64
6960 On ch=1 n=c#6 v=64
7068 Off ch=1 n=c#6 v=64
7068 Off ch=1 n=a5 v=64
7068 Off ch=1 n=e6 v=64
7200 On ch=1 n=d6 v=64
7296 Off ch=1 n=d6 v=64
7320 On ch=1 n=a5 v=64
7374 Off ch=1 n=a5 v=64
7440 On ch=1 n=f#5 v=64
7494 Off ch=1 n=f#5 v=64
7560 On ch=1 n=a5 v=64
7614 Off ch=1 n=a5 v=64
7680 On ch=1 n=d6 v=64
7734 Off ch=1 n=d6 v=64
7800 On ch=1 n=f#6 v=64
7854 Off ch=1 n=f#6 v=64
7920 On ch=1 n=f#6 v=64
8016 Off ch=1 n=f#6 v=64
8040 On ch=1 n=g6 v=64
8094 Off ch=1 n=g6 v=64
8160 On ch=1 n=a5 v=64
8160 On ch=1 n=e6 v=64
8160 On ch=1 n=c#6 v=64
8376 Off ch=1 n=c#6 v=64
8376 Off ch=1 n=e6 v=64
8376 Off ch=1 n=a5 v=64
8640 On ch=1 n=e6 v=64
8736 Off ch=1 n=e6 v=64
8760 On ch=1 n=c#6 v=64
8814 Off ch=1 n=c#6 v=64
8880 On ch=1 n=a5 v=64
8934 Off ch=1 n=a5 v=64
9000 On ch=1 n=c#6 v=64
9054 Off ch=1 n=c#6 v=64
9120 On ch=1 n=e6 v=64
9174 Off ch=1 n=e6 v=64
9240 On ch=1 n=f#6 v=64
9294 Off ch=1 n=f#6 v=64
9360 On ch=1 n=f#6 v=64
9456 Off ch=1 n=f#6 v=64
9480 On ch=1 n=g6 v=64
9576 Off ch=1 n=g6 v=64
9600 On ch=1 n=e6 v=64
9600 On ch=1 n=a5 v=64
9600 On ch=1 n=c#6 v=64
9708 Off ch=1 n=c#6 v=64
9708 Off ch=1 n=a5 v=64
9708 Off ch=1 n=e6 v=64
9840 On ch=1 n=e6 v=64
9840 On ch=1 n=a5 v=64
9840 On ch=1 n=c#6 v=64
9948 Off ch=1 n=c#6 v=64
9948 Off ch=1 n=a5 v=64
9948 Off ch=1 n=e6 v=64
10080 On ch=1 n=a6 v=64
10176 Off ch=1 n=a6 v=64
10200 On ch=1 n=f#6 v=64
10254 Off ch=1 n=f#6 v=64
10320 On ch=1 n=d6 v=64
10416 Off ch=1 n=d6 v=64
10440 On ch=1 n=f#6 v=64
10494 Off ch=1 n=f#6 v=64
10560 On ch=1 n=e6 v=64
10656 Off ch=1 n=e6 v=64
10680 On ch=1 n=c#6 v=64
10734 Off ch=1 n=c#6 v=64
10800 On ch=1 n=f#5 v=80
10800 On ch=1 n=c#6 v=64
10848 Off ch=1 n=c#6 v=64
10860 On ch=1 n=d6 v=64
10941 Off ch=1 n=d6 v=64
10992 Off ch=1 n=f#5 v=64
11040 On ch=1 n=d5 v=64
11424 Off ch=1 n=d5 v=64
11520 On ch=1 n=d6 v=64
11616 Off ch=1 n=d6 v=64
11640 On ch=1 n=f#6 v=64
11694 Off ch=1 n=f#6 v=64
11760 On ch=1 n=b6 v=64
11814 Off ch=1 n=b6 v=64
11880 On ch=1 n=d7 v=64
11934 Off ch=1 n=d7 v=64
12000 On ch=1 n=c#7 v=64
12108 Off ch=1 n=c#7 v=64
12240 On ch=1 n=b5 v=64
12336 Off ch=1 n=b5 v=64
12360 On ch=1 n=d6 v=64
12414 Off ch=1 n=d6 v=64
12480 On ch=1 n=g6 v=64
12534 Off ch=1 n=g6 v=64
12600 On ch=1 n=b6 v=64
12654 Off ch=1 n=b6 v=64
12720 On ch=1 n=a6 v=64
12828 Off ch=1 n=a6 v=64
12960 On ch=1 n=a5 v=64
13056 Off ch=1 n=a5 v=64
13080 On ch=1 n=c#6 v=64
13176 Off ch=1 n=c#6 v=64
13200 On ch=1 n=e6 v=64
13254 Off ch=1 n=e6 v=64
13320 On ch=1 n=g6 v=64
13374 Off ch=1 n=g6 v=64
13440 On ch=1 n=f#6 v=64
13536 Off ch=1 n=f#6 v=64
13560 On ch=1 n=a6 v=64
13614 Off ch=1 n=a6 v=64
13680 On ch=1 n=d6 v=64
13680 On ch=1 n=f#6 v=64
14064 Off ch=1 n=f#6 v=64
14064 Off ch=1 n=d6 v=64
14160 On ch=1 n=c#6 v=64
14160 On ch=1 n=e6 v=64
14268 Off ch=1 n=e6 v=64
14268 Off ch=1 n=c#6 v=64
14400 On ch=1 n=d6 v=64
14496 Off ch=1 n=d6 v=64
14520 On ch=1 n=a5 v=64
14574 Off ch=1 n=a5 v=64
14640 On ch=1 n=f#5 v=64
14694 Off ch=1 n=f#5 v=64
14760 On ch=1 n=a5 v=64
14814 Off ch=1 n=a5 v=64
14880 On ch=1 n=d6 v=64
14934 Off ch=1 n=d6 v=64
15000 On ch=1 n=f#6 v=64
15054 Off ch=1 n=f#6 v=64
15120 On ch=1 n=f#6 v=64
15216 Off ch=1 n=f#6 v=64
15240 On ch=1 n=g6 v=64
15294 Off ch=1 n=g6 v=64
15360 On ch=1 n=e6 v=64
15360 On ch=1 n=a5 v=64
15360 On ch=1 n=c#6 v=64
15468 Off ch=1 n=c#6 v=64
15468 Off ch=1 n=a5 v=64
15468 Off ch=1 n=e6 v=64
15600 On ch=1 n=e6 v=64
15600 On ch=1 n=a5 v=64
15600 On ch=1 n=c#6 v=64
15708 Off ch=1 n=c#6 v=64
15708 Off ch=1 n=a5 v=64
15708 Off ch=1 n=e6 v=64
15840 On ch=1 n=a6 v=64
15936 Off ch=1 n=a6 v=64
15960 On ch=1 n=f#6 v=64
16014 Off ch=1 n=f#6 v=64
16080 On ch=1 n=d6 v=64
16080 On ch=1 n=f#5 v=64
16176 Off ch=1 n=f#5 v=64
16176 Off ch=1 n=d6 v=64
16200 On ch=1 n=f#6 v=64
16200 On ch=1 n=a5 v=64
16254 Off ch=1 n=a5 v=64
16254 Off ch=1 n=f#6 v=64
16320 On ch=1 n=g5 v=64
16320 On ch=1 n=e6 v=64
16416 Off ch=1 n=e6 v=64
16416 Off ch=1 n=g5 v=64
16440 On ch=1 n=c#6 v=64
16440 On ch=1 n=e5 v=64
16494 Off ch=1 n=e5 v=64
16494 Off ch=1 n=c#6 v=64
16560 On ch=1 n=f#5 v=80
16560 On ch=1 n=c#6 v=64
16608 Off ch=1 n=c#6 v=64
16620 On ch=1 n=d6 v=64
16944 Off ch=1 n=f#5 v=64
16992 Off ch=1 n=d6 v=64
17280 On ch=1 n=d6 v=64
17376 Off ch=1 n=d6 v=64
17400 On ch=1 n=f#6 v=64
17454 Off ch=1 n=f#6 v=64
17520 On ch=1 n=b6 v=64
17574 Off ch=1 n=b6 v=64
17640 On ch=1 n=d7 v=64
17694 Off ch=1 n=d7 v=64
17760 On ch=1 n=c#7 v=64
17868 Off ch=1 n=c#7 v=64
18000 On ch=1 n=b5 v=64
18096 Off ch=1 n=b5 v=64
18120 On ch=1 n=d6 v=64
18174 Off ch=1 n=d6 v=64
18240 On ch=1 n=g6 v=64
18294 Off ch=1 n=g6 v=64
18360 On ch=1 n=b6 v=64
18414 Off ch=1 n=b6 v=64
18480 On ch=1 n=a6 v=64
18588 Off ch=1 n=a6 v=64
18720 On ch=1 n=a5 v=64
18816 Off ch=1 n=a5 v=64
18840 On ch=1 n=c#6 v=64
18936 Off ch=1 n=c#6 v=64
18960 On ch=1 n=e6 v=64
19014 Off ch=1 n=e6 v=64
19080 On ch=1 n=g6 v=64
19134 Off ch=1 n=g6 v=64
19200 On ch=1 n=f#6 v=64
19296 Off ch=1 n=f#6 v=64
19320 On ch=1 n=a6 v=64
19374 Off ch=1 n=a6 v=64
19440 On ch=1 n=f#6 v=64
19440 On ch=1 n=d6 v=64
19824 Off ch=1 n=d6 v=64
19824 Off ch=1 n=f#6 v=64
19920 On ch=1 n=e6 v=64
19920 On ch=1 n=c#6 v=64
20028 Off ch=1 n=c#6 v=64
20028 Off ch=1 n=e6 v=64
20160 On ch=1 n=d6 v=64
20256 Off ch=1 n=d6 v=64
20280 On ch=1 n=a5 v=64
20334 Off ch=1 n=a5 v=64
20400 On ch=1 n=f#5 v=64
20454 Off ch=1 n=f#5 v=64
20520 On ch=1 n=a5 v=64
20574 Off ch=1 n=a5 v=64
20640 On ch=1 n=d6 v=64
20694 Off ch=1 n=d6 v=64
20760 On ch=1 n=f#6 v=64
20814 Off ch=1 n=f#6 v=64
20880 On ch=1 n=f#6 v=64
20976 Off ch=1 n=f#6 v=64
21000 On ch=1 n=g6 v=64
21054 Off ch=1 n=g6 v=64
21120 On ch=1 n=c#6 v=64
21120 On ch=1 n=a5 v=64
21120 On ch=1 n=e6 v=64
21228 Off ch=1 n=e6 v=64
21228 Off ch=1 n=a5 v=64
21228 Off ch=1 n=c#6 v=64
21360 On ch=1 n=c#6 v=64
21360 On ch=1 n=a5 v=64
21360 On ch=1 n=e6 v=64
21468 Off ch=1 n=e6 v=64
21468 Off ch=1 n=a5 v=64
21468 Off ch=1 n=c#6 v=64
21600 On ch=1 n=a6 v=64
21696 Off ch=1 n=a6 v=64
21720 On ch=1 n=f#6 v=64
21774 Off ch=1 n=f#6 v=64
21840 On ch=1 n=f#5 v=64
21840 On ch=1 n=d6 v=64
21936 Off ch=1 n=d6 v=64
21936 Off ch=1 n=f#5 v=64
21960 On ch=1 n=a5 v=64
21960 On ch=1 n=f#6 v=64
22014 Off ch=1 n=f#6 v=64
22014 Off ch=1 n=a5 v=64
22080 On ch=1 n=e6 v=64
22080 On ch=1 n=g5 v=64
22176 Off ch=1 n=g5 v=64
22176 Off ch=1 n=e6 v=64
22200 On ch=1 n=e5 v=64
22200 On ch=1 n=c#6 v=64
22254 Off ch=1 n=c#6 v=64
22254 Off ch=1 n=e5 v=64
22320 On ch=1 n=f#5 v=80
22320 On ch=1 n=c#6 v=64
22368 Off ch=1 n=c#6 v=64
22380 On ch=1 n=d6 v=64
22704 Off ch=1 n=f#5 v=64
22752 Off ch=1 n=d6 v=64
23280 On ch=1 n=d6 v=64
23424 Off ch=1 n=d6 v=64
23460 On ch=1 n=e6 v=64
23508 Off ch=1 n=e6 v=64
23520 On ch=1 n=f#6 v=64
23574 Off ch=1 n=f#6 v=64
23640 On ch=1 n=g6 v=64
23694 Off ch=1 n=g6 v=64
23760 On ch=1 n=a6 v=64
23904 Off ch=1 n=a6 v=64
23940 On ch=1 n=b6 v=64
23988 Off ch=1 n=b6 v=64
24000 On ch=1 n=a6 v=64
24096 Off ch=1 n=a6 v=64
24120 On ch=1 n=g6 v=64
24174 Off ch=1 n=g6 v=64
24240 On ch=1 n=f#6 v=64
24336 Off ch=1 n=f#6 v=64
24360 On ch=1 n=e6 v=64
24414 Off ch=1 n=e6 v=64
24480 On ch=1 n=d6 v=64
24504 Off ch=1 n=d6 v=64
24510 On ch=1 n=e6 v=64
24534 Off ch=1 n=e6 v=64
24540 On ch=1 n=d6 v=64
24564 Off ch=1 n=d6 v=64
24570 On ch=1 n=e6 v=64
24594 Off ch=1 n=e6 v=64
24600 On ch=1 n=d6 v=64
24648 Off ch=1 n=d6 v=64
24660 On ch=1 n=c#6 v=64
24708 Off ch=1 n=c#6 v=64
24720 On ch=1 n=d6 v=64
24816 Off ch=1 n=d6 v=64
24840 On ch=1 n=e6 v=64
24936 Off ch=1 n=e6 v=64
24960 On ch=1 n=f#6 v=64
25014 Off ch=1 n=f#6 v=64
25080 On ch=1 n=g6 v=64
25134 Off ch=1 n=g6 v=64
25200 On ch=1 n=g#6 v=64
25248 Off ch=1 n=g#6 v=64
25260 On ch=1 n=a6 v=64
25404 Off ch=1 n=a6 v=64
25440 On ch=1 n=e6 v=64
25494 Off ch=1 n=e6 v=64
25560 On ch=1 n=c#6 v=64
25614 Off ch=1 n=c#6 v=64
25680 On ch=1 n=a5 v=64
25872 Off ch=1 n=a5 v=64
26160 On ch=1 n=d6 v=64
26304 Off ch=1 n=d6 v=64
26340 On ch=1 n=e6 v=64
26388 Off ch=1 n=e6 v=64
26400 On ch=1 n=f#6 v=64
26454 Off ch=1 n=f#6 v=64
26520 On ch=1 n=g6 v=64
26574 Off ch=1 n=g6 v=64
26640 On ch=1 n=a6 v=64
26784 Off ch=1 n=a6 v=64
26820 On ch=1 n=b6 v=64
26868 Off ch=1 n=b6 v=64
26880 On ch=1 n=a6 v=64
26976 Off ch=1 n=a6 v=64
27000 On ch=1 n=g6 v=64
27054 Off ch=1 n=g6 v=64
27120 On ch=1 n=f#6 v=64
27216 Off ch=1 n=f#6 v=64
27240 On ch=1 n=e6 v=64
27294 Off ch=1 n=e6 v=64
27360 On ch=1 n=d6 v=64
27384 Off ch=1 n=d6 v=64
27390 On ch=1 n=e6 v=64
27414 Off ch=1 n=e6 v=64
27420 On ch=1 n=d6 v=64
27444 Off ch=1 n=d6 v=64
27450 On ch=1 n=e6 v=64
27474 Off ch=1 n=e6 v=64
27480 On ch=1 n=d6 v=64
27528 Off ch=1 n=d6 v=64
27540 On ch=1 n=c#6 v=64
27588 Off ch=1 n=c#6 v=64
27600 On ch=1 n=d6 v=64
27696 Off ch=1 n=d6 v=64
27720 On ch=1 n=f#6 v=64
27774 Off ch=1 n=f#6 v=64
27840 On ch=1 n=e6 v=64
27936 Off ch=1 n=e6 v=64
27960 On ch=1 n=c#6 v=64
28014 Off ch=1 n=c#6 v=64
28080 On ch=1 n=a5 v=64
28080 On ch=1 n=f#5 v=64
28080 On ch=1 n=d6 v=64
28272 Off ch=1 n=d6 v=64
28272 Off ch=1 n=f#5 v=64
28272 Off ch=1 n=a5 v=64
29040 On ch=1 n=d6 v=64
29184 Off ch=1 n=d6 v=64
29220 On ch=1 n=e6 v=64
29268 Off ch=1 n=e6 v=64
29280 On ch=1 n=f#6 v=64
29334 Off ch=1 n=f#6 v=64
29400 On ch=1 n=g6 v=64
29454 Off ch=1 n=g6 v=64
29520 On ch=1 n=a6 v=64
29664 Off ch=1 n=a6 v=64
29700 On ch=1 n=b6 v=64
29748 Off ch=1 n=b6 v=64
29760 On ch=1 n=a6 v=64
29856 Off ch=1 n=a6 v=64
29880 On ch=1 n=g6 v=64
29934 Off ch=1 n=g6 v=64
30000 On ch=1 n=f#6 v=64
30096 Off ch=1 n=f#6 v=64
30120 On ch=1 n=e6 v=64
30174 Off ch=1 n=e6 v=64
30240 On ch=1 n=d6 v=64
30264 Off ch=1 n=d6 v=64
30270 On ch=1 n=e6 v=64
30294 Off ch=1 n=e6 v=64
30300 On ch=1 n=d6 v=64
30324 Off ch=1 n=d6 v=64
30330 On ch=1 n=e6 v=64
30354 Off ch=1 n=e6 v=64
30360 On ch=1 n=d6 v=64
30408 Off ch=1 n=d6 v=64
30420 On ch=1 n=c#6 v=64
30468 Off ch=1 n=c#6 v=64
30480 On ch=1 n=d6 v=64
30576 Off ch=1 n=d6 v=64
30600 On ch=1 n=e6 v=64
30696 Off ch=1 n=e6 v=64
30720 On ch=1 n=f#6 v=64
30774 Off ch=1 n=f#6 v=64
30840 On ch=1 n=g6 v=64
30894 Off ch=1 n=g6 v=64
30960 On ch=1 n=g#6 v=64
31008 Off ch=1 n=g#6 v=64
31020 On ch=1 n=a6 v=64
31164 Off ch=1 n=a6 v=64
31200 On ch=1 n=e6 v=64
31254 Off ch=1 n=e6 v=64
31320 On ch=1 n=c#6 v=64
31374 Off ch=1 n=c#6 v=64
31440 On ch=1 n=a5 v=64
31632 Off ch=1 n=a5 v=64
31920 On ch=1 n=d6 v=64
32064 Off ch=1 n=d6 v=64
32100 On ch=1 n=e6 v=64
32148 Off ch=1 n=e6 v=64
32160 On ch=1 n=f#6 v=64
32214 Off ch=1 n=f#6 v=64
32280 On ch=1 n=g6 v=64
32334 Off ch=1 n=g6 v=64
32400 On ch=1 n=a6 v=64
32544 Off ch=1 n=a6 v=64
32580 On ch=1 n=b6 v=64
32628 Off ch=1 n=b6 v=64
32640 On ch=1 n=a6 v=64
32736 Off ch=1 n=a6 v=64
32760 On ch=1 n=g6 v=64
32814 Off ch=1 n=g6 v=64
32880 On ch=1 n=f#6 v=64
32976 Off ch=1 n=f#6 v=64
33000 On ch=1 n=e6 v=64
33054 Off ch=1 n=e6 v=64
33120 On ch=1 n=d6 v=64
33144 Off ch=1 n=d6 v=64
33150 On ch=1 n=e6 v=64
33174 Off ch=1 n=e6 v=64
33180 On ch=1 n=d6 v=64
33204 Off ch=1 n=d6 v=64
33210 On ch=1 n=e6 v=64
33234 Off ch=1 n=e6 v=64
33240 On ch=1 n=d6 v=64
33288 Off ch=1 n=d6 v=64
33300 On ch=1 n=c#6 v=64
33348 Off ch=1 n=c#6 v=64
33360 On ch=1 n=d6 v=64
33456 Off ch=1 n=d6 v=64
33480 On ch=1 n=f#6 v=64
33534 Off ch=1 n=f#6 v=64
33600 On ch=1 n=e6 v=64
33696 Off ch=1 n=e6 v=64
33720 On ch=1 n=c#6 v=64
33774 Off ch=1 n=c#6 v=64
33840 On ch=1 n=d6 v=64
33840 On ch=1 n=f#5 v=64
33840 On ch=1 n=a5 v=64
34032 Off ch=1 n=a5 v=64
34032 Off ch=1 n=f#5 v=64
34032 Off ch=1 n=d6 v=64
34800 On ch=1 n=d7 v=64
34944 Off ch=1 n=d7 v=64
34980 On ch=1 n=a6 v=64
35028 Off ch=1 n=a6 v=64
35040 On ch=1 n=f#6 v=64
35094 Off ch=1 n=f#6 v=64
35160 On ch=1 n=a6 v=64
35214 Off ch=1 n=a6 v=64
35280 On ch=1 n=a6 v=64
35328 Off ch=1 n=a6 v=64
35340 On ch=1 n=g6 v=64
35484 Off ch=1 n=g6 v=64
35520 On ch=1 n=e6 v=64
35574 Off ch=1 n=e6 v=64
35640 On ch=1 n=c#6 v=64
35694 Off ch=1 n=c#6 v=64
35760 On ch=1 n=a5 v=64
35868 Off ch=1 n=a5 v=64
36240 On ch=1 n=d6 v=64
36384 Off ch=1 n=d6 v=64
36420 On ch=1 n=a5 v=64
36468 Off ch=1 n=a5 v=64
36480 On ch=1 n=f#5 v=64
36576 Off ch=1 n=f#5 v=64
36600 On ch=1 n=a5 v=64
36696 Off ch=1 n=a5 v=64
36720 On ch=1 n=a5 v=64
36768 Off ch=1 n=a5 v=64
36780 On ch=1 n=g5 v=64
36924 Off ch=1 n=g5 v=64
36960 On ch=1 n=e5 v=64
37014 Off ch=1 n=e5 v=64
37080 On ch=1 n=c#5 v=64
37134 Off ch=1 n=c#5 v=64
37200 On ch=1 n=a4 v=64
37308 Off ch=1 n=a4 v=64
37680 On ch=1 n=d6 v=64
37824 Off ch=1 n=d6 v=64
37860 On ch=1 n=e6 v=64
37908 Off ch=1 n=e6 v=64
37920 On ch=1 n=f#6 v=64
37974 Off ch=1 n=f#6 v=64
38040 On ch=1 n=g6 v=64
38094 Off ch=1 n=g6 v=64
38160 On ch=1 n=a6 v=64
38304 Off ch=1 n=a6 v=64
38340 On ch=1 n=b6 v=64
38388 Off ch=1 n=b6 v=64
38400 On ch=1 n=a6 v=64
38496 Off ch=1 n=a6 v=64
38520 On ch=1 n=g6 v=64
38574 Off ch=1 n=g6 v=64
38640 On ch=1 n=f#6 v=64
38736 Off ch=1 n=f#6 v=64
38760 On ch=1 n=e6 v=64
38814 Off ch=1 n=e6 v=64
38880 On ch=1 n=d6 v=64
38904 Off ch=1 n=d6 v=64
38910 On ch=1 n=e6 v=64
38934 Off ch=1 n=e6 v=64
38940 On ch=1 n=d6 v=64
38964 Off ch=1 n=d6 v=64
38970 On ch=1 n=e6 v=64
38994 Off ch=1 n=e6 v=64
39000 On ch=1 n=d6 v=64
39048 Off ch=1 n=d6 v=64
39060 On ch=1 n=c#6 v=64
39108 Off ch=1 n=c#6 v=64
39120 On ch=1 n=d6 v=64
39216 Off ch=1 n=d6 v=64
39240 On ch=1 n=f#6 v=64
39294 Off ch=1 n=f#6 v=64
39360 On ch=1 n=e6 v=64
39456 Off ch=1 n=e6 v=64
39480 On ch=1 n=c#6 v=64
39534 Off ch=1 n=c#6 v=64
39600 On ch=1 n=a5 v=64
39600 On ch=1 n=f#5 v=64
39600 On ch=1 n=d6 v=64
39792 Off ch=1 n=d6 v=64
39792 Off ch=1 n=f#5 v=64
39792 Off ch=1 n=a5 v=64
40560 On ch=1 n=d7 v=64
40704 Off ch=1 n=d7 v=64
40740 On ch=1 n=a6 v=64
40788 Off ch=1 n=a6 v=64
40800 On ch=1 n=f#6 v=64
40854 Off ch=1 n=f#6 v=64
40920 On ch=1 n=a6 v=64
40974 Off ch=1 n=a6 v=64
41040 On ch=1 n=a6 v=64
41088 Off ch=1 n=a6 v=64
41100 On ch=1 n=g6 v=64
41244 Off ch=1 n=g6 v=64
41280 On ch=1 n=e6 v=64
41334 Off ch=1 n=e6 v=64
41400 On ch=1 n=c#6 v=64
41454 Off ch=1 n=c#6 v=64
41520 On ch=1 n=a5 v=64
41628 Off ch=1 n=a5 v=64
42000 On ch=1 n=d6 v=64
42144 Off ch=1 n=d6 v=64
42180 On ch=1 n=a5 v=64
42228 Off ch=1 n=a5 v=64
42240 On ch=1 n=f#5 v=64
42294 Off ch=1 n=f#5 v=64
42360 On ch=1 n=a5 v=64
42414 Off ch=1 n=a5 v=64
42480 On ch=1 n=a5 v=64
42528 Off ch=1 n=a5 v=64
42540 On ch=1 n=g5 v=64
42684 Off ch=1 n=g5 v=64
42720 On ch=1 n=e5 v=64
42774 Off ch=1 n=e5 v=64
42840 On ch=1 n=c#5 v=64
42894 Off ch=1 n=c#5 v=64
42960 On ch=1 n=a4 v=64
43068 Off ch=1 n=a4 v=64
43440 On ch=1 n=d6 v=64
43584 Off ch=1 n=d6 v=64
43620 On ch=1 n=e6 v=64
43668 Off ch=1 n=e6 v=64
43680 On ch=1 n=f#6 v=64
43734 Off ch=1 n=f#6 v=64
43800 On ch=1 n=g6 v=64
43854 Off ch=1 n=g6 v=64
43920 On ch=1 n=a6 v=64
44064 Off ch=1 n=a6 v=64
44100 On ch=1 n=b6 v=64
44148 Off ch=1 n=b6 v=64
44160 On ch=1 n=a6 v=64
44256 Off ch=1 n=a6 v=64
44280 On ch=1 n=g6 v=64
44334 Off ch=1 n=g6 v=64
44400 On ch=1 n=f#6 v=64
44496 Off ch=1 n=f#6 v=64
44520 On ch=1 n=e6 v=64
44574 Off ch=1 n=e6 v=64
44640 On ch=1 n=d6 v=64
44664 Off ch=1 n=d6 v=64
44670 On ch=1 n=e6 v=64
44694 Off ch=1 n=e6 v=64
44700 On ch=1 n=d6 v=64
44724 Off ch=1 n=d6 v=64
44730 On ch=1 n=e6 v=64
44754 Off ch=1 n=e6 v=64
44760 On ch=1 n=d6 v=64
44808 Off ch=1 n=d6 v=64
44820 On ch=1 n=c#6 v=64
44868 Off ch=1 n=c#6 v=64
44880 On ch=1 n=d6 v=64
44976 Off ch=1 n=d6 v=64
45000 On ch=1 n=f#6 v=64
45054 Off ch=1 n=f#6 v=64
45120 On ch=1 n=e6 v=64
45216 Off ch=1 n=e6 v=64
45240 On ch=1 n=c#6 v=64
45294 Off ch=1 n=c#6 v=64
45360 On ch=1 n=d6 v=64
45360 On ch=1 n=f#5 v=64
45360 On ch=1 n=a5 v=64
45552 Off ch=1 n=a5 v=64
45552 Off ch=1 n=f#5 v=64
45552 Off ch=1 n=d6 v=64
46080 On ch=1 n=d6 v=64
46176 Off ch=1 n=d6 v=64
46200 On ch=1 n=a5 v=64
46254 Off ch=1 n=a5 v=64
46320 On ch=1 n=f#5 v=64
46374 Off ch=1 n=f#5 v=64
46440 On ch=1 n=a5 v=64
46494 Off ch=1 n=a5 v=64
46560 On ch=1 n=d6 v=64
46614 Off ch=1 n=d6 v=64
46680 On ch=1 n=f#6 v=64
46734 Off ch=1 n=f#6 v=64
46800 On ch=1 n=f#6 v=64
46896 Off ch=1 n=f#6 v=64
46920 On ch=1 n=g6 v=64
46974 Off ch=1 n=g6 v=64
47040 On ch=1 n=c#6 v=64
47040 On ch=1 n=a5 v=64
47040 On ch=1 n=e6 v=64
47148 Off ch=1 n=e6 v=64
47148 Off ch=1 n=a5 v=64
47148 Off ch=1 n=c#6 v=64
47280 On ch=1 n=c#6 v=64
47280 On ch=1 n=a5 v=64
47280 On ch=1 n=e6 v=64
47388 Off ch=1 n=e6 v=64
47388 Off ch=1 n=a5 v=64
47388 Off ch=1 n=c#6 v=64
47520 On ch=1 n=d6 v=64
47616 Off ch=1 n=d6 v=64
47640 On ch=1 n=a5 v=64
47694 Off ch=1 n=a5 v=64
47760 On ch=1 n=f#5 v=64
47814 Off ch=1 n=f#5 v=64
47880 On ch=1 n=a5 v=64
47934 Off ch=1 n=a5 v=64
48000 On ch=1 n=d6 v=64
48054 Off ch=1 n=d6 v=64
48120 On ch=1 n=f#6 v=64
48174 Off ch=1 n=f#6 v=64
48240 On ch=1 n=f#6 v=64
48336 Off ch=1 n=f#6 v=64
48360 On ch=1 n=g6 v=64
48414 Off ch=1 n=g6 v=64
48480 On ch=1 n=c#6 v=64
48480 On ch=1 n=e6 v=64
48480 On ch=1 n=a5 v=64
48696 Off ch=1 n=a5 v=64
48696 Off ch=1 n=e6 v=64
48696 Off ch=1 n=c#6 v=64
48960 On ch=1 n=e6 v=64
49056 Off ch=1 n=e6 v=64
49080 On ch=1 n=c#6 v=64
49134 Off ch=1 n=c#6 v=64
49200 On ch=1 n=a5 v=64
49254 Off ch=1 n=a5 v=64
49320 On ch=1 n=c#6 v=64
49374 Off ch=1 n=c#6 v=64
49440 On ch=1 n=e6 v=64
49494 Off ch=1 n=e6 v=64
49560 On ch=1 n=f#6 v=64
49614 Off ch=1 n=f#6 v=64
49680 On ch=1 n=f#6 v=64
49776 Off ch=1 n=f#6 v=64
49800 On ch=1 n=g6 v=64
49896 Off ch=1 n=g6 v=64
49920 On ch=1 n=c#6 v=64
49920 On ch=1 n=a5 v=64
49920 On ch=1 n=e6 v=64
50028 Off ch=1 n=e6 v=64
50028 Off ch=1 n=a5 v=64
50028 Off ch=1 n=c#6 v=64
50160 On ch=1 n=c#6 v=64
50160 On ch=1 n=a5 v=64
50160 On ch=1 n=e6 v=64
50268 Off ch=1 n=e6 v=64
50268 Off ch=1 n=a5 v=64
50268 Off ch=1 n=c#6 v=64
50400 On ch=1 n=a6 v=64
50496 Off ch=1 n=a6 v=64
50520 On ch=1 n=f#6 v=64
50574 Off ch=1 n=f#6 v=64
50640 On ch=1 n=d6 v=64
50736 Off ch=1 n=d6 v=64
50760 On ch=1 n=f#6 v=64
50814 Off ch=1 n=f#6 v=64
50880 On ch=1 n=e6 v=64
50976 Off ch=1 n=e6 v=64
51000 On ch=1 n=c#6 v=64
51054 Off ch=1 n=c#6 v=64
51120 On ch=1 n=c#6 v=64
51168 Off ch=1 n=c#6 v=64
51180 On ch=1 n=d6 v=64
51261 Off ch=1 n=d6 v=64
51360 On ch=1 n=d5 v=64
51744 Off ch=1 n=d5 v=64
51840 On ch=1 n=d6 v=64
51936 Off ch=1 n=d6 v=64
51960 On ch=1 n=f#6 v=64
52014 Off ch=1 n=f#6 v=64
52080 On ch=1 n=b6 v=64
52134 Off ch=1 n=b6 v=64
52200 On ch=1 n=d7 v=64
52254 Off ch=1 n=d7 v=64
52320 On ch=1 n=c#7 v=64
52428 Off ch=1 n=c#7 v=64
52560 On ch=1 n=b5 v=64
52656 Off ch=1 n=b5 v=64
52680 On ch=1 n=d6 v=64
52734 Off ch=1 n=d6 v=64
52800 On ch=1 n=g6 v=64
52854 Off ch=1 n=g6 v=64
52920 On ch=1 n=b6 v=64
52974 Off ch=1 n=b6 v=64
53040 On ch=1 n=a6 v=64
53148 Off ch=1 n=a6 v=64
53280 On ch=1 n=a5 v=64
53376 Off ch=1 n=a5 v=64
53400 On ch=1 n=c#6 v=64
53496 Off ch=1 n=c#6 v=64
53520 On ch=1 n=e6 v=64
53574 Off ch=1 n=e6 v=64
53640 On ch=1 n=g6 v=64
53694 Off ch=1 n=g6 v=64
53760 On ch=1 n=f#6 v=64
53856 Off ch=1 n=f#6 v=64
53880 On ch=1 n=a6 v=64
53934 Off ch=1 n=a6 v=64
54000 On ch=1 n=f#6 v=64
54000 On ch=1 n=d6 v=64
54384 Off ch=1 n=d6 v=64
54384 Off ch=1 n=f#6 v=64
54480 On ch=1 n=e6 v=64
54480 On ch=1 n=c#6 v=64
54588 Off ch=1 n=c#6 v=64
54588 Off ch=1 n=e6 v=64
54720 On ch=1 n=d6 v=64
54816 Off ch=1 n=d6 v=64
54840 On ch=1 n=a5 v=64
54894 Off ch=1 n=a5 v=64
54960 On ch=1 n=f#5 v=64
55014 Off ch=1 n=f#5 v=64
55080 On ch=1 n=a5 v=64
55134 Off ch=1 n=a5 v=64
55200 On ch=1 n=d6 v=64
55254 Off ch=1 n=d6 v=64
55320 On ch=1 n=f#6 v=64
55374 Off ch=1 n=f#6 v=64
55440 On ch=1 n=f#6 v=64
55536 Off ch=1 n=f#6 v=64
55560 On ch=1 n=g6 v=64
55614 Off ch=1 n=g6 v=64
55680 On ch=1 n=c#6 v=64
55680 On ch=1 n=a5 v=64
55680 On ch=1 n=e6 v=64
55788 Off ch=1 n=e6 v=64
55788 Off ch=1 n=a5 v=64
55788 Off ch=1 n=c#6 v=64
55920 On ch=1 n=c#6 v=64
55920 On ch=1 n=a5 v=64
55920 On ch=1 n=e6 v=64
56028 Off ch=1 n=e6 v=64
56028 Off ch=1 n=a5 v=64
56028 Off ch=1 n=c#6 v=64
56160 On ch=1 n=a6 v=64
56256 Off ch=1 n=a6 v=64
56280 On ch=1 n=f#6 v=64
56334 Off ch=1 n=f#6 v=64
56400 On ch=1 n=f#5 v=64
56400 On ch=1 n=d6 v=64
56496 Off ch=1 n=d6 v=64
56496 Off ch=1 n=f#5 v=64
56520 On ch=1 n=a5 v=64
56520 On ch=1 n=f#6 v=64
56574 Off ch=1 n=f#6 v=64
56574 Off ch=1 n=a5 v=64
56640 On ch=1 n=e6 v=64
56640 On ch=1 n=g5 v=64
56736 Off ch=1 n=g5 v=64
56736 Off ch=1 n=e6 v=64
56760 On ch=1 n=e5 v=64
56760 On ch=1 n=c#6 v=64
56814 Off ch=1 n=c#6 v=64
56814 Off ch=1 n=e5 v=64
56880 On ch=1 n=f#5 v=80
56880 On ch=1 n=c#6 v=64
56928 Off ch=1 n=c#6 v=64
56940 On ch=1 n=d6 v=64
57264 Off ch=1 n=f#5 v=64
57312 Off ch=1 n=d6 v=64
57312 Meta TrkEnd
TrkEnd
MTrk
0 On ch=1 n=d3 v=64
0 On ch=1 n=d4 v=64
192 Off ch=1 n=d4 v=64
192 Off ch=1 n=d3 v=64
240 On ch=1 n=f#4 v=64
348 Off ch=1 n=f#4 v=64
480 On ch=1 n=d4 v=64
588 Off ch=1 n=d4 v=64
720 On ch=1 n=a3 v=64
912 Off ch=1 n=a3 v=64
960 On ch=1 n=a4 v=64
1068 Off ch=1 n=a4 v=64
1200 On ch=1 n=g4 v=64
1308 Off ch=1 n=g4 v=64
1440 On ch=1 n=f#4 v=64
1632 Off ch=1 n=f#4 v=64
1680 On ch=1 n=d4 v=64
1788 Off ch=1 n=d4 v=64
1920 On ch=1 n=f#4 v=64
2028 Off ch=1 n=f#4 v=64
2160 On ch=1 n=a4 v=64
2352 Off ch=1 n=a4 v=64
2400 On ch=1 n=e4 v=64
2508 Off ch=1 n=e4 v=64
2640 On ch=1 n=c#4 v=64
2748 Off ch=1 n=c#4 v=64
2880 On ch=1 n=a3 v=64
3072 Off ch=1 n=a3 v=64
3120 On ch=1 n=a4 v=64
3228 Off ch=1 n=a4 v=64
3360 On ch=1 n=a3 v=64
3468 Off ch=1 n=a3 v=64
3600 On ch=1 n=a4 v=64
3792 Off ch=1 n=a4 v=64
3840 On ch=1 n=a3 v=64
3948 Off ch=1 n=a3 v=64
4080 On ch=1 n=g4 v=64
4188 Off ch=1 n=g4 v=64
4320 On ch=1 n=f#4 v=64
4512 Off ch=1 n=f#4 v=64
4560 On ch=1 n=a4 v=64
4668 Off ch=1 n=a4 v=64
4800 On ch=1 n=a3 v=64
4908 Off ch=1 n=a3 v=64
5040 On ch=1 n=d4 v=64
5232 Off ch=1 n=d4 v=64
5280 On ch=1 n=a3 v=64
5388 Off ch=1 n=a3 v=64
5520 On ch=1 n=d3 v=64
5628 Off ch=1 n=d3 v=64
5760 On ch=1 n=d4 v=64
5760 On ch=1 n=d3 v=64
5952 Off ch=1 n=d3 v=64
5952 Off ch=1 n=d4 v=64
6000 On ch=1 n=f#4 v=64
6108 Off ch=1 n=f#4 v=64
6240 On ch=1 n=d4 v=64
6348 Off ch=1 n=d4 v=64
6480 On ch=1 n=a3 v=64
6672 Off ch=1 n=a3 v=64
6720 On ch=1 n=a4 v=64
6828 Off ch=1 n=a4 v=64
6960 On ch=1 n=g4 v=64
7068 Off ch=1 n=g4 v=64
7200 On ch=1 n=f#4 v=64
7392 Off ch=1 n=f#4 v=64
7440 On ch=1 n=d4 v=64
7548 Off ch=1 n=d4 v=64
7680 On ch=1 n=f#4 v=64
7788 Off ch=1 n=f#4 v=64
7920 On ch=1 n=a4 v=64
8112 Off ch=1 n=a4 v=64
8160 On ch=1 n=e4 v=64
8268 Off ch=1 n=e4 v=64
8400 On ch=1 n=c#4 v=64
8508 Off ch=1 n=c#4 v=64
8640 On ch=1 n=a3 v=64
8832 Off ch=1 n=a3 v=64
8880 On ch=1 n=a4 v=64
8988 Off ch=1 n=a4 v=64
9120 On ch=1 n=a3 v=64
9228 Off ch=1 n=a3 v=64
9360 On ch=1 n=a4 v=64
9552 Off ch=1 n=a4 v=64
9600 On ch=1 n=a3 v=64
9708 Off ch=1 n=a3 v=64
9840 On ch=1 n=g4 v=64
9948 Off ch=1 n=g4 v=64
10080 On ch=1 n=f#4 v=64
10272 Off ch=1 n=f#4 v=64
10320 On ch=1 n=a4 v=64
10428 Off ch=1 n=a4 v=64
10560 On ch=1 n=a3 v=64
10668 Off ch=1 n=a3 v=64
10800 On ch=1 n=d4 v=64
10992 Off ch=1 n=d4 v=64
11040 On ch=1 n=a3 v=64
11148 Off ch=1 n=a3 v=64
11280 On ch=1 n=d3 v=64
11388 Off ch=1 n=d3 v=64
11760 On ch=1 n=g#5 v=64
11760 On ch=1 n=d5 v=64
11760 On ch=1 n=b4 v=64
11952 Off ch=1 n=b4 v=64
11952 Off ch=1 n=d5 v=64
11952 Off ch=1 n=g#5 v=64
12000 On ch=1 n=a4 v=64
12000 On ch=1 n=e5 v=64
12000 On ch=1 n=a5 v=64
12108 Off ch=1 n=a5 v=64
12108 Off ch=1 n=e5 v=64
12108 Off ch=1 n=a4 v=64
12480 On ch=1 n=c#5 v=64
12480 On ch=1 n=g4 v=64
12480 On ch=1 n=e5 v=64
12672 Off ch=1 n=e5 v=64
12672 Off ch=1 n=g4 v=64
12672 Off ch=1 n=c#5 v=64
12720 On ch=1 n=f#4 v=64
12720 On ch=1 n=a4 v=64
12720 On ch=1 n=d5 v=64
12828 Off ch=1 n=d5 v=64
12828 Off ch=1 n=a4 v=64
12828 Off ch=1 n=f#4 v=64
13200 On ch=1 n=c#4 v=64
13200 On ch=1 n=a4 v=64
13200 On ch=1 n=e4 v=64
13392 Off ch=1 n=e4 v=64
13392 Off ch=1 n=a4 v=64
13392 Off ch=1 n=c#4 v=64
13440 On ch=1 n=f#4 v=64
13440 On ch=1 n=d4 v=64
13440 On ch=1 n=a4 v=64
13548 Off ch=1 n=a4 v=64
13548 Off ch=1 n=d4 v=64
13548 Off ch=1 n=f#4 v=64
13680 On ch=1 n=a3 v=64
13872 Off ch=1 n=a3 v=64
13920 On ch=1 n=a4 v=64
14028 Off ch=1 n=a4 v=64
14160 On ch=1 n=a3 v=64
14268 Off ch=1 n=a3 v=64
14400 On ch=1 n=d4 v=64
14400 On ch=1 n=d3 v=64
14592 Off ch=1 n=d3 v=64
14592 Off ch=1 n=d4 v=64
14640 On ch=1 n=f#4 v=64
14748 Off ch=1 n=f#4 v=64
14880 On ch=1 n=d4 v=64
14988 Off ch=1 n=d4 v=64
15120 On ch=1 n=a3 v=64
15312 Off ch=1 n=a3 v=64
15360 On ch=1 n=a4 v=64
15468 Off ch=1 n=a4 v=64
15600 On ch=1 n=g4 v=64
15708 Off ch=1 n=g4 v=64
15840 On ch=1 n=f#4 v=64
16032 Off ch=1 n=f#4 v=64
16080 On ch=1 n=a4 v=64
16188 Off ch=1 n=a4 v=64
16320 On ch=1 n=a3 v=64
16428 Off ch=1 n=a3 v=64
16560 On ch=1 n=d4 v=64
16752 Off ch=1 n=d4 v=64
16800 On ch=1 n=a3 v=64
16908 Off ch=1 n=a3 v=64
17040 On ch=1 n=d3 v=64
17148 Off ch=1 n=d3 v=64
17520 On ch=1 n=b4 v=64
17520 On ch=1 n=d5 v=64
17520 On ch=1 n=g#5 v=64
17712 Off ch=1 n=g#5 v=64
17712 Off ch=1 n=d5 v=64
17712 Off ch=1 n=b4 v=64
17760 On ch=1 n=a5 v=64
17760 On ch=1 n=e5 v=64
17760 On ch=1 n=a4 v=64
17868 Off ch=1 n=a4 v=64
17868 Off ch=1 n=e5 v=64
17868 Off ch=1 n=a5 v=64
18240 On ch=1 n=e5 v=64
18240 On ch=1 n=g4 v=64
18240 On ch=1 n=c#5 v=64
18432 Off ch=1 n=c#5 v=64
18432 Off ch=1 n=g4 v=64
18432 Off ch=1 n=e5 v=64
18480 On ch=1 n=d5 v=64
18480 On ch=1 n=a4 v=64
18480 On ch=1 n=f#4 v=64
18588 Off ch=1 n=f#4 v=64
18588 Off ch=1 n=a4 v=64
18588 Off ch=1 n=d5 v=64
18960 On ch=1 n=e4 v=64
18960 On ch=1 n=a4 v=64
18960 On ch=1 n=c#4 v=64
19152 Off ch=1 n=c#4 v=64
19152 Off ch=1 n=a4 v=64
19152 Off ch=1 n=e4 v=64
19200 On ch=1 n=a4 v=64
19200 On ch=1 n=d4 v=64
19200 On ch=1 n=f#4 v=64
19308 Off ch=1 n=f#4 v=64
19308 Off ch=1 n=d4 v=64
19308 Off ch=1 n=a4 v=64
19440 On ch=1 n=a3 v=64
19632 Off ch=1 n=a3 v=64
19680 On ch=1 n=a4 v=64
19788 Off ch=1 n=a4 v=64
19920 On ch=1 n=a3 v=64
20028 Off ch=1 n=a3 v=64
20160 On ch=1 n=d3 v=64
20160 On ch=1 n=d4 v=64
20352 Off ch=1 n=d4 v=64
20352 Off ch=1 n=d3 v=64
20400 On ch=1 n=f#4 v=64
20508 Off ch=1 n=f#4 v=64
20640 On ch=1 n=d4 v=64
20748 Off ch=1 n=d4 v=64
20880 On ch=1 n=a3 v=64
21072 Off ch=1 n=a3 v=64
21120 On ch=1 n=a4 v=64
21228 Off ch=1 n=a4 v=64
21360 On ch=1 n=g4 v=64
21468 Off ch=1 n=g4 v=64
21600 On ch=1 n=f#4 v=64
21792 Off ch=1 n=f#4 v=64
21840 On ch=1 n=a4 v=64
21948 Off ch=1 n=a4 v=64
22080 On ch=1 n=a3 v=64
22188 Off ch=1 n=a3 v=64
22320 On ch=1 n=d4 v=64
22512 Off ch=1 n=d4 v=64
22560 On ch=1 n=a3 v=64
22668 Off ch=1 n=a3 v=64
22800 On ch=1 n=d3 v=64
22908 Off ch=1 n=d3 v=64
23040 On ch=1 n=d3 v=64
23040 On ch=1 n=d4 v=64
23136 Off ch=1 n=d4 v=64
23136 Off ch=1 n=d3 v=64
23160 On ch=1 n=f#5 v=64
23160 On ch=1 n=a5 v=64
23160 On ch=1 n=d5 v=64
23256 Off ch=1 n=d5 v=64
23256 Off ch=1 n=a5 v=64
23256 Off ch=1 n=f#5 v=64
23280 On ch=1 n=f#5 v=64
23280 On ch=1 n=a5 v=64
23280 On ch=1 n=d5 v=64
23376 Off ch=1 n=d5 v=64
23376 Off ch=1 n=a5 v=64
23376 Off ch=1 n=f#5 v=64
23400 On ch=1 n=f#5 v=64
23400 On ch=1 n=d5 v=64
23400 On ch=1 n=a5 v=64
23496 Off ch=1 n=a5 v=64
23496 Off ch=1 n=d5 v=64
23496 Off ch=1 n=f#5 v=64
23520 On ch=1 n=f#5 v=64
23520 On ch=1 n=d5 v=64
23520 On ch=1 n=a5 v=64
23616 Off ch=1 n=a5 v=64
23616 Off ch=1 n=d5 v=64
23616 Off ch=1 n=f#5 v=64
23640 On ch=1 n=f#5 v=64
23640 On ch=1 n=d5 v=64
23640 On ch=1 n=a5 v=64
23694 Off ch=1 n=a5 v=64
23694 Off ch=1 n=d5 v=64
23694 Off ch=1 n=f#5 v=64
23760 On ch=1 n=c#5 v=64
23760 On ch=1 n=e5 v=64
23760 On ch=1 n=g5 v=64
23760 On ch=1 n=a5 v=64
23856 Off ch=1 n=a5 v=64
23856 Off ch=1 n=g5 v=64
23856 Off ch=1 n=e5 v=64
23856 Off ch=1 n=c#5 v=64
23880 On ch=1 n=c#5 v=64
23880 On ch=1 n=e5 v=64
23880 On ch=1 n=g5 v=64
23880 On ch=1 n=a5 v=64
23976 Off ch=1 n=a5 v=64
23976 Off ch=1 n=g5 v=64
23976 Off ch=1 n=e5 v=64
23976 Off ch=1 n=c#5 v=64
24000 On ch=1 n=c#5 v=64
24000 On ch=1 n=e5 v=64
24000 On ch=1 n=g5 v=64
24000 On ch=1 n=a5 v=64
24096 Off ch=1 n=a5 v=64
24096 Off ch=1 n=g5 v=64
24096 Off ch=1 n=e5 v=64
24096 Off ch=1 n=c#5 v=64
24120 On ch=1 n=g5 v=64
24120 On ch=1 n=c#5 v=64
24120 On ch=1 n=e5 v=64
24120 On ch=1 n=a5 v=64
24216 Off ch=1 n=a5 v=64
24216 Off ch=1 n=e5 v=64
24216 Off ch=1 n=c#5 v=64
24216 Off ch=1 n=g5 v=64
24240 On ch=1 n=e5 v=64
24240 On ch=1 n=g5 v=64
24240 On ch=1 n=a5 v=64
24240 On ch=1 n=c#5 v=64
24294 Off ch=1 n=a5 v=64
24336 Off ch=1 n=c#5 v=64
24336 Off ch=1 n=g5 v=64
24336 Off ch=1 n=e5 v=64
24360 On ch=1 n=c#5 v=64
24360 On ch=1 n=e5 v=64
24360 On ch=1 n=a5 v=64
24360 On ch=1 n=g5 v=64
24414 Off ch=1 n=a5 v=64
24414 Off ch=1 n=e5 v=64
24414 Off ch=1 n=c#5 v=64
24456 Off ch=1 n=g5 v=64
24480 On ch=1 n=f#5 v=64
24480 On ch=1 n=d5 v=64
24480 On ch=1 n=a5 v=64
24576 Off ch=1 n=a5 v=64
24576 Off ch=1 n=d5 v=64
24576 Off ch=1 n=f#5 v=64
24600 On ch=1 n=f#5 v=64
24600 On ch=1 n=d5 v=64
24600 On ch=1 n=a5 v=64
24696 Off ch=1 n=a5 v=64
24696 Off ch=1 n=d5 v=64
24696 Off ch=1 n=f#5 v=64
24720 On ch=1 n=f#5 v=64
24720 On ch=1 n=d5 v=64
24720 On ch=1 n=a5 v=64
24816 Off ch=1 n=a5 v=64
24816 Off ch=1 n=d5 v=64
24816 Off ch=1 n=f#5 v=64
24840 On ch=1 n=f#5 v=64
24840 On ch=1 n=a5 v=64
24840 On ch=1 n=d5 v=64
24936 Off ch=1 n=d5 v=64
24936 Off ch=1 n=a5 v=64
24936 Off ch=1 n=f#5 v=64
24960 On ch=1 n=d5 v=64
24960 On ch=1 n=f#5 v=64
24960 On ch=1 n=a5 v=64
25056 Off ch=1 n=a5 v=64
25056 Off ch=1 n=f#5 v=64
25056 Off ch=1 n=d5 v=64
25080 On ch=1 n=f#5 v=64
25080 On ch=1 n=d5 v=64
25080 On ch=1 n=a5 v=64
25134 Off ch=1 n=a5 v=64
25134 Off ch=1 n=d5 v=64
25134 Off ch=1 n=f#5 v=64
25200 On ch=1 n=a4 v=64
25200 On ch=1 n=e5 v=64
25200 On ch=1 n=a5 v=64
25200 On ch=1 n=c#5 v=64
25296 Off ch=1 n=c#5 v=64
25296 Off ch=1 n=a5 v=64
25296 Off ch=1 n=e5 v=64
25296 Off ch=1 n=a4 v=64
25320 On ch=1 n=e5 v=64
25320 On ch=1 n=a5 v=64
25320 On ch=1 n=a4 v=64
25320 On ch=1 n=c#5 v=64
25416 Off ch=1 n=c#5 v=64
25416 Off ch=1 n=a4 v=64
25416 Off ch=1 n=a5 v=64
25416 Off ch=1 n=e5 v=64
25440 On ch=1 n=a4 v=64
25440 On ch=1 n=c#5 v=64
25440 On ch=1 n=e5 v=64
25440 On ch=1 n=a5 v=64
25536 Off ch=1 n=a5 v=64
25536 Off ch=1 n=e5 v=64
25536 Off ch=1 n=c#5 v=64
25536 Off ch=1 n=a4 v=64
25560 On ch=1 n=a5 v=64
25560 On ch=1 n=c#5 v=64
25560 On ch=1 n=e5 v=64
25560 On ch=1 n=a4 v=64
25656 Off ch=1 n=a4 v=64
25656 Off ch=1 n=e5 v=64
25656 Off ch=1 n=c#5 v=64
25656 Off ch=1 n=a5 v=64
25680 On ch=1 n=c#5 v=64
25680 On ch=1 n=g5 v=64
25680 On ch=1 n=a4 v=64
25680 On ch=1 n=e5 v=64
25776 Off ch=1 n=e5 v=64
25776 Off ch=1 n=a4 v=64
25776 Off ch=1 n=g5 v=64
25776 Off ch=1 n=c#5 v=64
25800 On ch=1 n=a4 v=64
25800 On ch=1 n=c#5 v=64
25800 On ch=1 n=e5 v=64
25800 On ch=1 n=g5 v=64
25854 Off ch=1 n=g5 v=64
25854 Off ch=1 n=e5 v=64
25854 Off ch=1 n=c#5 v=64
25854 Off ch=1 n=a4 v=64
25920 On ch=1 n=f#5 v=64
25920 On ch=1 n=a5 v=64
25920 On ch=1 n=d5 v=64
26016 Off ch=1 n=d5 v=64
26016 Off ch=1 n=a5 v=64
26016 Off ch=1 n=f#5 v=64
26040 On ch=1 n=f#5 v=64
26040 On ch=1 n=a5 v=64
26040 On ch=1 n=d5 v=64
26136 Off ch=1 n=d5 v=64
26136 Off ch=1 n=a5 v=64
26136 Off ch=1 n=f#5 v=64
26160 On ch=1 n=f#5 v=64
26160 On ch=1 n=d5 v=64
26160 On ch=1 n=a5 v=64
26256 Off ch=1 n=a5 v=64
26256 Off ch=1 n=d5 v=64
26256 Off ch=1 n=f#5 v=64
26280 On ch=1 n=f#5 v=64
26280 On ch=1 n=a5 v=64
26280 On ch=1 n=d5 v=64
26376 Off ch=1 n=d5 v=64
26376 Off ch=1 n=a5 v=64
26376 Off ch=1 n=f#5 v=64
26400 On ch=1 n=f#5 v=64
26400 On ch=1 n=a5 v=64
26400 On ch=1 n=d5 v=64
26496 Off ch=1 n=d5 v=64
26496 Off ch=1 n=a5 v=64
26496 Off ch=1 n=f#5 v=64
26520 On ch=1 n=f#5 v=64
26520 On ch=1 n=d5 v=64
26520 On ch=1 n=a5 v=64
26574 Off ch=1 n=a5 v=64
26574 Off ch=1 n=d5 v=64
26574 Off ch=1 n=f#5 v=64
26640 On ch=1 n=e5 v=64
26640 On ch=1 n=c#5 v=64
26640 On ch=1 n=g5 v=64
26640 On ch=1 n=a5 v=64
26736 Off ch=1 n=a5 v=64
26736 Off ch=1 n=g5 v=64
26736 Off ch=1 n=c#5 v=64
26736 Off ch=1 n=e5 v=64
26760 On ch=1 n=c#5 v=64
26760 On ch=1 n=e5 v=64
26760 On ch=1 n=g5 v=64
26760 On ch=1 n=a5 v=64
26856 Off ch=1 n=a5 v=64
26856 Off ch=1 n=g5 v=64
26856 Off ch=1 n=e5 v=64
26856 Off ch=1 n=c#5 v=64
26880 On ch=1 n=c#5 v=64
26880 On ch=1 n=g5 v=64
26880 On ch=1 n=a5 v=64
26880 On ch=1 n=e5 v=64
26976 Off ch=1 n=e5 v=64
26976 Off ch=1 n=a5 v=64
26976 Off ch=1 n=g5 v=64
26976 Off ch=1 n=c#5 v=64
27000 On ch=1 n=c#5 v=64
27000 On ch=1 n=e5 v=64
27000 On ch=1 n=g5 v=64
27000 On ch=1 n=a5 v=64
27096 Off ch=1 n=a5 v=64
27096 Off ch=1 n=g5 v=64
27096 Off ch=1 n=e5 v=64
27096 Off ch=1 n=c#5 v=64
27120 On ch=1 n=c#5 v=64
27120 On ch=1 n=e5 v=64
27120 On ch=1 n=g5 v=64
27120 On ch=1 n=a5 v=64
27216 Off ch=1 n=a5 v=64
27216 Off ch=1 n=g5 v=64
27216 Off ch=1 n=e5 v=64
27216 Off ch=1 n=c#5 v=64
27240 On ch=1 n=c#5 v=64
27240 On ch=1 n=e5 v=64
27240 On ch=1 n=g5 v=64
27240 On ch=1 n=a5 v=64
27294 Off ch=1 n=a5 v=64
27294 Off ch=1 n=g5 v=64
27294 Off ch=1 n=e5 v=64
27294 Off ch=1 n=c#5 v=64
27360 On ch=1 n=f#5 v=64
27360 On ch=1 n=a5 v=64
27360 On ch=1 n=d5 v=64
27456 Off ch=1 n=d5 v=64
27456 Off ch=1 n=a5 v=64
27456 Off ch=1 n=f#5 v=64
27480 On ch=1 n=f#5 v=64
27480 On ch=1 n=d5 v=64
27480 On ch=1 n=a5 v=64
27576 Off ch=1 n=a5 v=64
27576 Off ch=1 n=d5 v=64
27576 Off ch=1 n=f#5 v=64
27600 On ch=1 n=d5 v=64
27600 On ch=1 n=f#5 v=64
27600 On ch=1 n=a5 v=64
27696 Off ch=1 n=a5 v=64
27696 Off ch=1 n=f#5 v=64
27696 Off ch=1 n=d5 v=64
27720 On ch=1 n=f#5 v=64
27720 On ch=1 n=d5 v=64
27720 On ch=1 n=a5 v=64
27774 Off ch=1 n=a5 v=64
27774 Off ch=1 n=d5 v=64
27774 Off ch=1 n=f#5 v=64
27840 On ch=1 n=a4 v=64
27840 On ch=1 n=c#5 v=64
27840 On ch=1 n=g5 v=64
27936 Off ch=1 n=g5 v=64
27936 Off ch=1 n=c#5 v=64
27936 Off ch=1 n=a4 v=64
27960 On ch=1 n=c#5 v=64
27960 On ch=1 n=a4 v=64
27960 On ch=1 n=g5 v=64
28014 Off ch=1 n=g5 v=64
28014 Off ch=1 n=a4 v=64
28014 Off ch=1 n=c#5 v=64
28080 On ch=1 n=d4 v=64
28080 On ch=1 n=d5 v=64
28272 Off ch=1 n=d5 v=64
28272 Off ch=1 n=d4 v=64
28320 On ch=1 n=a3 v=64
28320 On ch=1 n=a4 v=64
28428 Off ch=1 n=a4 v=64
28428 Off ch=1 n=a3 v=64
28560 On ch=1 n=f#3 v=64
28560 On ch=1 n=f#4 v=64
28668 Off ch=1 n=f#4 v=64
28668 Off ch=1 n=f#3 v=64
28800 On ch=1 n=d4 v=64
28800 On ch=1 n=d3 v=64
28896 Off ch=1 n=d3 v=64
28896 Off ch=1 n=d4 v=64
28920 On ch=1 n=d5 v=64
28920 On ch=1 n=a5 v=64
28920 On ch=1 n=f#5 v=64
29016 Off ch=1 n=f#5 v=64
29016 Off ch=1 n=a5 v=64
29016 Off ch=1 n=d5 v=64
29040 On ch=1 n=d5 v=64
29040 On ch=1 n=a5 v=64
29040 On ch=1 n=f#5 v=64
29136 Off ch=1 n=f#5 v=64
29136 Off ch=1 n=a5 v=64
29136 Off ch=1 n=d5 v=64
29160 On ch=1 n=a5 v=64
29160 On ch=1 n=d5 v=64
29160 On ch=1 n=f#5 v=64
29256 Off ch=1 n=f#5 v=64
29256 Off ch=1 n=d5 v=64
29256 Off ch=1 n=a5 v=64
29280 On ch=1 n=a5 v=64
29280 On ch=1 n=d5 v=64
29280 On ch=1 n=f#5 v=64
29376 Off ch=1 n=f#5 v=64
29376 Off ch=1 n=d5 v=64
29376 Off ch=1 n=a5 v=64
29400 On ch=1 n=a5 v=64
29400 On ch=1 n=d5 v=64
29400 On ch=1 n=f#5 v=64
29454 Off ch=1 n=f#5 v=64
29454 Off ch=1 n=d5 v=64
29454 Off ch=1 n=a5 v=64
29520 On ch=1 n=a5 v=64
29520 On ch=1 n=g5 v=64
29520 On ch=1 n=e5 v=64
29520 On ch=1 n=c#5 v=64
29616 Off ch=1 n=c#5 v=64
29616 Off ch=1 n=e5 v=64
29616 Off ch=1 n=g5 v=64
29616 Off ch=1 n=a5 v=64
29640 On ch=1 n=a5 v=64
29640 On ch=1 n=g5 v=64
29640 On ch=1 n=e5 v=64
29640 On ch=1 n=c#5 v=64
29736 Off ch=1 n=c#5 v=64
29736 Off ch=1 n=e5 v=64
29736 Off ch=1 n=g5 v=64
29736 Off ch=1 n=a5 v=64
29760 On ch=1 n=a5 v=64
29760 On ch=1 n=g5 v=64
29760 On ch=1 n=e5 v=64
29760 On ch=1 n=c#5 v=64
29856 Off ch=1 n=c#5 v=64
29856 Off ch=1 n=e5 v=64
29856 Off ch=1 n=g5 v=64
29856 Off ch=1 n=a5 v=64
29880 On ch=1 n=a5 v=64
29880 On ch=1 n=e5 v=64
29880 On ch=1 n=c#5 v=64
29880 On ch=1 n=g5 v=64
29976 Off ch=1 n=g5 v=64
29976 Off ch=1 n=c#5 v=64
29976 Off ch=1 n=e5 v=64
29976 Off ch=1 n=a5 v=64
30000 On ch=1 n=c#5 v=64
30000 On ch=1 n=a5 v=64
30000 On ch=1 n=g5 v=64
30000 On ch=1 n=e5 v=64
30054 Off ch=1 n=a5 v=64
30096 Off ch=1 n=e5 v=64
30096 Off ch=1 n=g5 v=64
30096 Off ch=1 n=c#5 v=64
30120 On ch=1 n=g5 v=64
30120 On ch=1 n=a5 v=64
30120 On ch=1 n=e5 v=64
30120 On ch=1 n=c#5 v=64
30174 Off ch=1 n=c#5 v=64
30174 Off ch=1 n=e5 v=64
30174 Off ch=1 n=a5 v=64
30216 Off ch=1 n=g5 v=64
30240 On ch=1 n=a5 v=64
30240 On ch=1 n=d5 v=64
30240 On ch=1 n=f#5 v=64
30336 Off ch=1 n=f#5 v=64
30336 Off ch=1 n=d5 v=64
30336 Off ch=1 n=a5 v=64
30360 On ch=1 n=a5 v=64
30360 On ch=1 n=d5 v=64
30360 On ch=1 n=f#5 v=64
30456 Off ch=1 n=f#5 v=64
30456 Off ch=1 n=d5 v=64
30456 Off ch=1 n=a5 v=64
30480 On ch=1 n=a5 v=64
30480 On ch=1 n=d5 v=64
30480 On ch=1 n=f#5 v=64
30576 Off ch=1 n=f#5 v=64
30576 Off ch=1 n=d5 v=64
30576 Off ch=1 n=a5 v=64
30600 On ch=1 n=d5 v=64
30600 On ch=1 n=a5 v=64
30600 On ch=1 n=f#5 v=64
30696 Off ch=1 n=f#5 v=64
30696 Off ch=1 n=a5 v=64
30696 Off ch=1 n=d5 v=64
30720 On ch=1 n=a5 v=64
30720 On ch=1 n=f#5 v=64
30720 On ch=1 n=d5 v=64
30816 Off ch=1 n=d5 v=64
30816 Off ch=1 n=f#5 v=64
30816 Off ch=1 n=a5 v=64
30840 On ch=1 n=a5 v=64
30840 On ch=1 n=d5 v=64
30840 On ch=1 n=f#5 v=64
30894 Off ch=1 n=f#5 v=64
30894 Off ch=1 n=d5 v=64
30894 Off ch=1 n=a5 v=64
30960 On ch=1 n=c#5 v=64
30960 On ch=1 n=a5 v=64
30960 On ch=1 n=e5 v=64
30960 On ch=1 n=a4 v=64
31056 Off ch=1 n=a4 v=64
31056 Off ch=1 n=e5 v=64
31056 Off ch=1 n=a5 v=64
31056 Off ch=1 n=c#5 v=64
31080 On ch=1 n=c#5 v=64
31080 On ch=1 n=a4 v=64
31080 On ch=1 n=a5 v=64
31080 On ch=1 n=e5 v=64
31176 Off ch=1 n=e5 v=64
31176 Off ch=1 n=a5 v=64
31176 Off ch=1 n=a4 v=64
31176 Off ch=1 n=c#5 v=64
31200 On ch=1 n=a5 v=64
31200 On ch=1 n=e5 v=64
31200 On ch=1 n=c#5 v=64
31200 On ch=1 n=a4 v=64
31296 Off ch=1 n=a4 v=64
31296 Off ch=1 n=c#5 v=64
31296 Off ch=1 n=e5 v=64
31296 Off ch=1 n=a5 v=64
31320 On ch=1 n=a4 v=64
31320 On ch=1 n=e5 v=64
31320 On ch=1 n=c#5 v=64
31320 On ch=1 n=a5 v=64
31416 Off ch=1 n=a5 v=64
31416 Off ch=1 n=c#5 v=64
31416 Off ch=1 n=e5 v=64
31416 Off ch=1 n=a4 v=64
31440 On ch=1 n=e5 v=64
31440 On ch=1 n=a4 v=64
31440 On ch=1 n=g5 v=64
31440 On ch=1 n=c#5 v=64
31536 Off ch=1 n=c#5 v=64
31536 Off ch=1 n=g5 v=64
31536 Off ch=1 n=a4 v=64
31536 Off ch=1 n=e5 v=64
31560 On ch=1 n=g5 v=64
31560 On ch=1 n=e5 v=64
31560 On ch=1 n=c#5 v=64
31560 On ch=1 n=a4 v=64
31614 Off ch=1 n=a4 v=64
31614 Off ch=1 n=c#5 v=64
31614 Off ch=1 n=e5 v=64
31614 Off ch=1 n=g5 v=64
31680 On ch=1 n=d5 v=64
31680 On ch=1 n=a5 v=64
31680 On ch=1 n=f#5 v=64
31776 Off ch=1 n=f#5 v=64
31776 Off ch=1 n=a5 v=64
31776 Off ch=1 n=d5 v=64
31800 On ch=1 n=d5 v=64
31800 On ch=1 n=a5 v=64
31800 On ch=1 n=f#5 v=64
31896 Off ch=1 n=f#5 v=64
31896 Off ch=1 n=a5 v=64
31896 Off ch=1 n=d5 v=64
31920 On ch=1 n=a5 v=64
31920 On ch=1 n=d5 v=64
31920 On ch=1 n=f#5 v=64
32016 Off ch=1 n=f#5 v=64
32016 Off ch=1 n=d5 v=64
32016 Off ch=1 n=a5 v=64
32040 On ch=1 n=d5 v=64
32040 On ch=1 n=a5 v=64
32040 On ch=1 n=f#5 v=64
32136 Off ch=1 n=f#5 v=64
32136 Off ch=1 n=a5 v=64
32136 Off ch=1 n=d5 v=64
32160 On ch=1 n=d5 v=64
32160 On ch=1 n=a5 v=64
32160 On ch=1 n=f#5 v=64
32256 Off ch=1 n=f#5 v=64
32256 Off ch=1 n=a5 v=64
32256 Off ch=1 n=d5 v=64
32280 On ch=1 n=a5 v=64
32280 On ch=1 n=d5 v=64
32280 On ch=1 n=f#5 v=64
32334 Off ch=1 n=f#5 v=64
32334 Off ch=1 n=d5 v=64
32334 Off ch=1 n=a5 v=64
32400 On ch=1 n=a5 v=64
32400 On ch=1 n=g5 v=64
32400 On ch=1 n=c#5 v=64
32400 On ch=1 n=e5 v=64
32496 Off ch=1 n=e5 v=64
32496 Off ch=1 n=c#5 v=64
32496 Off ch=1 n=g5 v=64
32496 Off ch=1 n=a5 v=64
32520 On ch=1 n=a5 v=64
32520 On ch=1 n=g5 v=64
32520 On ch=1 n=e5 v=64
32520 On ch=1 n=c#5 v=64
32616 Off ch=1 n=c#5 v=64
32616 Off ch=1 n=e5 v=64
32616 Off ch=1 n=g5 v=64
32616 Off ch=1 n=a5 v=64
32640 On ch=1 n=e5 v=64
32640 On ch=1 n=a5 v=64
32640 On ch=1 n=g5 v=64
32640 On ch=1 n=c#5 v=64
32736 Off ch=1 n=c#5 v=64
32736 Off ch=1 n=g5 v=64
32736 Off ch=1 n=a5 v=64
32736 Off ch=1 n=e5 v=64
32760 On ch=1 n=a5 v=64
32760 On ch=1 n=g5 v=64
32760 On ch=1 n=e5 v=64
32760 On ch=1 n=c#5 v=64
32856 Off ch=1 n=c#5 v=64
32856 Off ch=1 n=e5 v=64
32856 Off ch=1 n=g5 v=64
32856 Off ch=1 n=a5 v=64
32880 On ch=1 n=a5 v=64
32880 On ch=1 n=g5 v=64
32880 On ch=1 n=e5 v=64
32880 On ch=1 n=c#5 v=64
32976 Off ch=1 n=c#5 v=64
32976 Off ch=1 n=e5 v=64
32976 Off ch=1 n=g5 v=64
32976 Off ch=1 n=a5 v=64
33000 On ch=1 n=a5 v=64
33000 On ch=1 n=g5 v=64
33000 On ch=1 n=e5 v=64
33000 On ch=1 n=c#5 v=64
33054 Off ch=1 n=c#5 v=64
33054 Off ch=1 n=e5 v=64
33054 Off ch=1 n=g5 v=64
33054 Off ch=1 n=a5 v=64
33120 On ch=1 n=d5 v=64
33120 On ch=1 n=a5 v=64
33120 On ch=1 n=f#5 v=64
33216 Off ch=1 n=f#5 v=64
33216 Off ch=1 n=a5 v=64
33216 Off ch=1 n=d5 v=64
33240 On ch=1 n=a5 v=64
33240 On ch=1 n=d5 v=64
33240 On ch=1 n=f#5 v=64
33336 Off ch=1 n=f#5 v=64
33336 Off ch=1 n=d5 v=64
33336 Off ch=1 n=a5 v=64
33360 On ch=1 n=a5 v=64
33360 On ch=1 n=f#5 v=64
33360 On ch=1 n=d5 v=64
33456 Off ch=1 n=d5 v=64
33456 Off ch=1 n=f#5 v=64
33456 Off ch=1 n=a5 v=64
33480 On ch=1 n=a5 v=64
33480 On ch=1 n=d5 v=64
33480 On ch=1 n=f#5 v=64
33534 Off ch=1 n=f#5 v=64
33534 Off ch=1 n=d5 v=64
33534 Off ch=1 n=a5 v=64
33600 On ch=1 n=g5 v=64
33600 On ch=1 n=c#5 v=64
33600 On ch=1 n=a4 v=64
33696 Off ch=1 n=a4 v=64
33696 Off ch=1 n=c#5 v=64
33696 Off ch=1 n=g5 v=64
33720 On ch=1 n=g5 v=64
33720 On ch=1 n=a4 v=64
33720 On ch=1 n=c#5 v=64
33774 Off ch=1 n=c#5 v=64
33774 Off ch=1 n=a4 v=64
33774 Off ch=1 n=g5 v=64
33840 On ch=1 n=d5 v=64
33840 On ch=1 n=d4 v=64
34032 Off ch=1 n=d4 v=64
34032 Off ch=1 n=d5 v=64
34080 On ch=1 n=a4 v=64
34080 On ch=1 n=a3 v=64
34188 Off ch=1 n=a3 v=64
34188 Off ch=1 n=a4 v=64
34320 On ch=1 n=f#4 v=64
34320 On ch=1 n=f#3 v=64
34428 Off ch=1 n=f#3 v=64
34428 Off ch=1 n=f#4 v=64
34560 On ch=1 n=d3 v=64
34560 On ch=1 n=d4 v=64
34656 Off ch=1 n=d4 v=64
34656 Off ch=1 n=d3 v=64
34680 On ch=1 n=f#5 v=64
34680 On ch=1 n=a5 v=64
34680 On ch=1 n=d5 v=64
34776 Off ch=1 n=d5 v=64
34776 Off ch=1 n=a5 v=64
34776 Off ch=1 n=f#5 v=64
34800 On ch=1 n=f#5 v=64
34800 On ch=1 n=a5 v=64
34800 On ch=1 n=d5 v=64
34896 Off ch=1 n=d5 v=64
34896 Off ch=1 n=a5 v=64
34896 Off ch=1 n=f#5 v=64
34920 On ch=1 n=d5 v=64
34920 On ch=1 n=f#5 v=64
34920 On ch=1 n=a5 v=64
35016 Off ch=1 n=a5 v=64
35016 Off ch=1 n=f#5 v=64
35016 Off ch=1 n=d5 v=64
35040 On ch=1 n=f#5 v=64
35040 On ch=1 n=d5 v=64
35040 On ch=1 n=a5 v=64
35136 Off ch=1 n=a5 v=64
35136 Off ch=1 n=d5 v=64
35136 Off ch=1 n=f#5 v=64
35160 On ch=1 n=d5 v=64
35160 On ch=1 n=f#5 v=64
35160 On ch=1 n=a5 v=64
35214 Off ch=1 n=a5 v=64
35214 Off ch=1 n=f#5 v=64
35214 Off ch=1 n=d5 v=64
35280 On ch=1 n=a4 v=64
35280 On ch=1 n=c#5 v=64
35280 On ch=1 n=g5 v=64
35280 On ch=1 n=e5 v=64
35376 Off ch=1 n=e5 v=64
35376 Off ch=1 n=g5 v=64
35376 Off ch=1 n=c#5 v=64
35376 Off ch=1 n=a4 v=64
35400 On ch=1 n=a4 v=64
35400 On ch=1 n=c#5 v=64
35400 On ch=1 n=e5 v=64
35400 On ch=1 n=g5 v=64
35496 Off ch=1 n=g5 v=64
35496 Off ch=1 n=e5 v=64
35496 Off ch=1 n=c#5 v=64
35496 Off ch=1 n=a4 v=64
35520 On ch=1 n=c#5 v=64
35520 On ch=1 n=a4 v=64
35520 On ch=1 n=e5 v=64
35520 On ch=1 n=g5 v=64
35616 Off ch=1 n=g5 v=64
35616 Off ch=1 n=e5 v=64
35616 Off ch=1 n=a4 v=64
35616 Off ch=1 n=c#5 v=64
35640 On ch=1 n=a4 v=64
35640 On ch=1 n=c#5 v=64
35640 On ch=1 n=e5 v=64
35640 On ch=1 n=g5 v=64
35736 Off ch=1 n=g5 v=64
35736 Off ch=1 n=e5 v=64
35736 Off ch=1 n=c#5 v=64
35736 Off ch=1 n=a4 v=64
35760 On ch=1 n=c#5 v=64
35760 On ch=1 n=a4 v=64
35760 On ch=1 n=e5 v=64
35760 On ch=1 n=g5 v=64
35856 Off ch=1 n=g5 v=64
35856 Off ch=1 n=e5 v=64
35856 Off ch=1 n=a4 v=64
35856 Off ch=1 n=c#5 v=64
35880 On ch=1 n=a4 v=64
35880 On ch=1 n=c#5 v=64
35880 On ch=1 n=e5 v=64
35880 On ch=1 n=g5 v=64
35934 Off ch=1 n=g5 v=64
35934 Off ch=1 n=e5 v=64
35934 Off ch=1 n=c#5 v=64
35934 Off ch=1 n=a4 v=64
36000 On ch=1 n=f#4 v=64
36000 On ch=1 n=d4 v=64
36000 On ch=1 n=a4 v=64
36096 Off ch=1 n=a4 v=64
36096 Off ch=1 n=d4 v=64
36096 Off ch=1 n=f#4 v=64
36120 On ch=1 n=f#4 v=64
36120 On ch=1 n=a4 v=64
36120 On ch=1 n=d4 v=64
36216 Off ch=1 n=d4 v=64
36216 Off ch=1 n=a4 v=64
36216 Off ch=1 n=f#4 v=64
36240 On ch=1 n=f#4 v=64
36240 On ch=1 n=d4 v=64
36240 On ch=1 n=a4 v=64
36336 Off ch=1 n=a4 v=64
36336 Off ch=1 n=d4 v=64
36336 Off ch=1 n=f#4 v=64
36360 On ch=1 n=d4 v=64
36360 On ch=1 n=f#4 v=64
36360 On ch=1 n=a4 v=64
36456 Off ch=1 n=a4 v=64
36456 Off ch=1 n=f#4 v=64
36456 Off ch=1 n=d4 v=64
36480 On ch=1 n=f#4 v=64
36480 On ch=1 n=d4 v=64
36480 On ch=1 n=a4 v=64
36576 Off ch=1 n=a4 v=64
36576 Off ch=1 n=d4 v=64
36576 Off ch=1 n=f#4 v=64
36600 On ch=1 n=f#4 v=64
36600 On ch=1 n=a4 v=64
36600 On ch=1 n=d4 v=64
36654 Off ch=1 n=d4 v=64
36654 Off ch=1 n=a4 v=64
36654 Off ch=1 n=f#4 v=64
36720 On ch=1 n=c#4 v=64
36720 On ch=1 n=e4 v=64
36720 On ch=1 n=a3 v=64
36720 On ch=1 n=g4 v=64
36816 Off ch=1 n=g4 v=64
36816 Off ch=1 n=a3 v=64
36816 Off ch=1 n=e4 v=64
36816 Off ch=1 n=c#4 v=64
36840 On ch=1 n=a3 v=64
36840 On ch=1 n=c#4 v=64
36840 On ch=1 n=e4 v=64
36840 On ch=1 n=g4 v=64
36936 Off ch=1 n=g4 v=64
36936 Off ch=1 n=e4 v=64
36936 Off ch=1 n=c#4 v=64
36936 Off ch=1 n=a3 v=64
36960 On ch=1 n=c#4 v=64
36960 On ch=1 n=e4 v=64
36960 On ch=1 n=a3 v=64
36960 On ch=1 n=g4 v=64
37056 Off ch=1 n=g4 v=64
37056 Off ch=1 n=a3 v=64
37056 Off ch=1 n=e4 v=64
37056 Off ch=1 n=c#4 v=64
37080 On ch=1 n=a3 v=64
37080 On ch=1 n=c#4 v=64
37080 On ch=1 n=e4 v=64
37080 On ch=1 n=g4 v=64
37176 Off ch=1 n=g4 v=64
37176 Off ch=1 n=e4 v=64
37176 Off ch=1 n=c#4 v=64
37176 Off ch=1 n=a3 v=64
37200 On ch=1 n=c#4 v=64
37200 On ch=1 n=a3 v=64
37200 On ch=1 n=e4 v=64
37200 On ch=1 n=g4 v=64
37296 Off ch=1 n=g4 v=64
37296 Off ch=1 n=e4 v=64
37296 Off ch=1 n=a3 v=64
37296 Off ch=1 n=c#4 v=64
37320 On ch=1 n=c#4 v=64
37320 On ch=1 n=e4 v=64
37320 On ch=1 n=g4 v=64
37320 On ch=1 n=a3 v=64
37374 Off ch=1 n=a3 v=64
37374 Off ch=1 n=g4 v=64
37374 Off ch=1 n=e4 v=64
37374 Off ch=1 n=c#4 v=64
37440 On ch=1 n=f#5 v=64
37440 On ch=1 n=a5 v=64
37440 On ch=1 n=d5 v=64
37536 Off ch=1 n=d5 v=64
37536 Off ch=1 n=a5 v=64
37536 Off ch=1 n=f#5 v=64
37560 On ch=1 n=f#5 v=64
37560 On ch=1 n=a5 v=64
37560 On ch=1 n=d5 v=64
37656 Off ch=1 n=d5 v=64
37656 Off ch=1 n=a5 v=64
37656 Off ch=1 n=f#5 v=64
37680 On ch=1 n=f#5 v=64
37680 On ch=1 n=d5 v=64
37680 On ch=1 n=a5 v=64
37776 Off ch=1 n=a5 v=64
37776 Off ch=1 n=d5 v=64
37776 Off ch=1 n=f#5 v=64
37800 On ch=1 n=f#5 v=64
37800 On ch=1 n=a5 v=64
37800 On ch=1 n=d5 v=64
37896 Off ch=1 n=d5 v=64
37896 Off ch=1 n=a5 v=64
37896 Off ch=1 n=f#5 v=64
37920 On ch=1 n=f#5 v=64
37920 On ch=1 n=a5 v=64
37920 On ch=1 n=d5 v=64
38016 Off ch=1 n=d5 v=64
38016 Off ch=1 n=a5 v=64
38016 Off ch=1 n=f#5 v=64
38040 On ch=1 n=f#5 v=64
38040 On ch=1 n=d5 v=64
38040 On ch=1 n=a5 v=64
38094 Off ch=1 n=a5 v=64
38094 Off ch=1 n=d5 v=64
38094 Off ch=1 n=f#5 v=64
38160 On ch=1 n=e5 v=64
38160 On ch=1 n=c#5 v=64
38160 On ch=1 n=g5 v=64
38160 On ch=1 n=a5 v=64
38256 Off ch=1 n=a5 v=64
38256 Off ch=1 n=g5 v=64
38256 Off ch=1 n=c#5 v=64
38256 Off ch=1 n=e5 v=64
38280 On ch=1 n=c#5 v=64
38280 On ch=1 n=e5 v=64
38280 On ch=1 n=g5 v=64
38280 On ch=1 n=a5 v=64
38376 Off ch=1 n=a5 v=64
38376 Off ch=1 n=g5 v=64
38376 Off ch=1 n=e5 v=64
38376 Off ch=1 n=c#5 v=64
38400 On ch=1 n=c#5 v=64
38400 On ch=1 n=g5 v=64
38400 On ch=1 n=a5 v=64
38400 On ch=1 n=e5 v=64
38496 Off ch=1 n=e5 v=64
38496 Off ch=1 n=a5 v=64
38496 Off ch=1 n=g5 v=64
38496 Off ch=1 n=c#5 v=64
38520 On ch=1 n=c#5 v=64
38520 On ch=1 n=e5 v=64
38520 On ch=1 n=g5 v=64
38520 On ch=1 n=a5 v=64
38616 Off ch=1 n=a5 v=64
38616 Off ch=1 n=g5 v=64
38616 Off ch=1 n=e5 v=64
38616 Off ch=1 n=c#5 v=64
38640 On ch=1 n=c#5 v=64
38640 On ch=1 n=e5 v=64
38640 On ch=1 n=g5 v=64
38640 On ch=1 n=a5 v=64
38736 Off ch=1 n=a5 v=64
38736 Off ch=1 n=g5 v=64
38736 Off ch=1 n=e5 v=64
38736 Off ch=1 n=c#5 v=64
38760 On ch=1 n=c#5 v=64
38760 On ch=1 n=e5 v=64
38760 On ch=1 n=g5 v=64
38760 On ch=1 n=a5 v=64
38814 Off ch=1 n=a5 v=64
38814 Off ch=1 n=g5 v=64
38814 Off ch=1 n=e5 v=64
38814 Off ch=1 n=c#5 v=64
38880 On ch=1 n=f#5 v=64
38880 On ch=1 n=a5 v=64
38880 On ch=1 n=d5 v=64
38976 Off ch=1 n=d5 v=64
38976 Off ch=1 n=a5 v=64
38976 Off ch=1 n=f#5 v=64
39000 On ch=1 n=f#5 v=64
39000 On ch=1 n=d5 v=64
39000 On ch=1 n=a5 v=64
39096 Off ch=1 n=a5 v=64
39096 Off ch=1 n=d5 v=64
39096 Off ch=1 n=f#5 v=64
39120 On ch=1 n=d5 v=64
39120 On ch=1 n=f#5 v=64
39120 On ch=1 n=a5 v=64
39216 Off ch=1 n=a5 v=64
39216 Off ch=1 n=f#5 v=64
39216 Off ch=1 n=d5 v=64
39240 On ch=1 n=f#5 v=64
39240 On ch=1 n=d5 v=64
39240 On ch=1 n=a5 v=64
39294 Off ch=1 n=a5 v=64
39294 Off ch=1 n=d5 v=64
39294 Off ch=1 n=f#5 v=64
39360 On ch=1 n=a4 v=64
39360 On ch=1 n=c#5 v=64
39360 On ch=1 n=g5 v=64
39456 Off ch=1 n=g5 v=64
39456 Off ch=1 n=c#5 v=64
39456 Off ch=1 n=a4 v=64
39480 On ch=1 n=c#5 v=64
39480 On ch=1 n=a4 v=64
39480 On ch=1 n=g5 v=64
39534 Off ch=1 n=g5 v=64
39534 Off ch=1 n=a4 v=64
39534 Off ch=1 n=c#5 v=64
39600 On ch=1 n=d4 v=64
39600 On ch=1 n=d5 v=64
39792 Off ch=1 n=d5 v=64
39792 Off ch=1 n=d4 v=64
39840 On ch=1 n=a3 v=64
39840 On ch=1 n=a4 v=64
39948 Off ch=1 n=a4 v=64
39948 Off ch=1 n=a3 v=64
40080 On ch=1 n=f#3 v=64
40080 On ch=1 n=f#4 v=64
40188 Off ch=1 n=f#4 v=64
40188 Off ch=1 n=f#3 v=64
40320 On ch=1 n=d4 v=64
40320 On ch=1 n=d3 v=64
40416 Off ch=1 n=d3 v=64
40416 Off ch=1 n=d4 v=64
40440 On ch=1 n=d5 v=64
40440 On ch=1 n=a5 v=64
40440 On ch=1 n=f#5 v=64
40536 Off ch=1 n=f#5 v=64
40536 Off ch=1 n=a5 v=64
40536 Off ch=1 n=d5 v=64
40560 On ch=1 n=d5 v=64
40560 On ch=1 n=a5 v=64
40560 On ch=1 n=f#5 v=64
40656 Off ch=1 n=f#5 v=64
40656 Off ch=1 n=a5 v=64
40656 Off ch=1 n=d5 v=64
40680 On ch=1 n=a5 v=64
40680 On ch=1 n=f#5 v=64
40680 On ch=1 n=d5 v=64
40776 Off ch=1 n=d5 v=64
40776 Off ch=1 n=f#5 v=64
40776 Off ch=1 n=a5 v=64
40800 On ch=1 n=a5 v=64
40800 On ch=1 n=d5 v=64
40800 On ch=1 n=f#5 v=64
40896 Off ch=1 n=f#5 v=64
40896 Off ch=1 n=d5 v=64
40896 Off ch=1 n=a5 v=64
40920 On ch=1 n=a5 v=64
40920 On ch=1 n=f#5 v=64
40920 On ch=1 n=d5 v=64
40974 Off ch=1 n=d5 v=64
40974 Off ch=1 n=f#5 v=64
40974 Off ch=1 n=a5 v=64
41040 On ch=1 n=e5 v=64
41040 On ch=1 n=g5 v=64
41040 On ch=1 n=c#5 v=64
41040 On ch=1 n=a4 v=64
41136 Off ch=1 n=a4 v=64
41136 Off ch=1 n=c#5 v=64
41136 Off ch=1 n=g5 v=64
41136 Off ch=1 n=e5 v=64
41160 On ch=1 n=g5 v=64
41160 On ch=1 n=e5 v=64
41160 On ch=1 n=c#5 v=64
41160 On ch=1 n=a4 v=64
41256 Off ch=1 n=a4 v=64
41256 Off ch=1 n=c#5 v=64
41256 Off ch=1 n=e5 v=64
41256 Off ch=1 n=g5 v=64
41280 On ch=1 n=g5 v=64
41280 On ch=1 n=e5 v=64
41280 On ch=1 n=a4 v=64
41280 On ch=1 n=c#5 v=64
41376 Off ch=1 n=c#5 v=64
41376 Off ch=1 n=a4 v=64
41376 Off ch=1 n=e5 v=64
41376 Off ch=1 n=g5 v=64
41400 On ch=1 n=g5 v=64
41400 On ch=1 n=e5 v=64
41400 On ch=1 n=c#5 v=64
41400 On ch=1 n=a4 v=64
41496 Off ch=1 n=a4 v=64
41496 Off ch=1 n=c#5 v=64
41496 Off ch=1 n=e5 v=64
41496 Off ch=1 n=g5 v=64
41520 On ch=1 n=g5 v=64
41520 On ch=1 n=e5 v=64
41520 On ch=1 n=a4 v=64
41520 On ch=1 n=c#5 v=64
41616 Off ch=1 n=c#5 v=64
41616 Off ch=1 n=a4 v=64
41616 Off ch=1 n=e5 v=64
41616 Off ch=1 n=g5 v=64
41640 On ch=1 n=g5 v=64
41640 On ch=1 n=e5 v=64
41640 On ch=1 n=c#5 v=64
41640 On ch=1 n=a4 v=64
41694 Off ch=1 n=a4 v=64
41694 Off ch=1 n=c#5 v=64
41694 Off ch=1 n=e5 v=64
41694 Off ch=1 n=g5 v=64
41760 On ch=1 n=a4 v=64
41760 On ch=1 n=d4 v=64
41760 On ch=1 n=f#4 v=64
41856 Off ch=1 n=f#4 v=64
41856 Off ch=1 n=d4 v=64
41856 Off ch=1 n=a4 v=64
41880 On ch=1 n=d4 v=64
41880 On ch=1 n=a4 v=64
41880 On ch=1 n=f#4 v=64
41976 Off ch=1 n=f#4 v=64
41976 Off ch=1 n=a4 v=64
41976 Off ch=1 n=d4 v=64
42000 On ch=1 n=a4 v=64
42000 On ch=1 n=d4 v=64
42000 On ch=1 n=f#4 v=64
42096 Off ch=1 n=f#4 v=64
42096 Off ch=1 n=d4 v=64
42096 Off ch=1 n=a4 v=64
42120 On ch=1 n=a4 v=64
42120 On ch=1 n=f#4 v=64
42120 On ch=1 n=d4 v=64
42216 Off ch=1 n=d4 v=64
42216 Off ch=1 n=f#4 v=64
42216 Off ch=1 n=a4 v=64
42240 On ch=1 n=a4 v=64
42240 On ch=1 n=d4 v=64
42240 On ch=1 n=f#4 v=64
42336 Off ch=1 n=f#4 v=64
42336 Off ch=1 n=d4 v=64
42336 Off ch=1 n=a4 v=64
42360 On ch=1 n=d4 v=64
42360 On ch=1 n=a4 v=64
42360 On ch=1 n=f#4 v=64
42414 Off ch=1 n=f#4 v=64
42414 Off ch=1 n=a4 v=64
42414 Off ch=1 n=d4 v=64
42480 On ch=1 n=g4 v=64
42480 On ch=1 n=a3 v=64
42480 On ch=1 n=e4 v=64
42480 On ch=1 n=c#4 v=64
42576 Off ch=1 n=c#4 v=64
42576 Off ch=1 n=e4 v=64
42576 Off ch=1 n=a3 v=64
42576 Off ch=1 n=g4 v=64
42600 On ch=1 n=g4 v=64
42600 On ch=1 n=e4 v=64
42600 On ch=1 n=c#4 v=64
42600 On ch=1 n=a3 v=64
42696 Off ch=1 n=a3 v=64
42696 Off ch=1 n=c#4 v=64
42696 Off ch=1 n=e4 v=64
42696 Off ch=1 n=g4 v=64
42720 On ch=1 n=g4 v=64
42720 On ch=1 n=a3 v=64
42720 On ch=1 n=e4 v=64
42720 On ch=1 n=c#4 v=64
42816 Off ch=1 n=c#4 v=64
42816 Off ch=1 n=e4 v=64
42816 Off ch=1 n=a3 v=64
42816 Off ch=1 n=g4 v=64
42840 On ch=1 n=g4 v=64
42840 On ch=1 n=e4 v=64
42840 On ch=1 n=c#4 v=64
42840 On ch=1 n=a3 v=64
42936 Off ch=1 n=a3 v=64
42936 Off ch=1 n=c#4 v=64
42936 Off ch=1 n=e4 v=64
42936 Off ch=1 n=g4 v=64
42960 On ch=1 n=g4 v=64
42960 On ch=1 n=e4 v=64
42960 On ch=1 n=a3 v=64
42960 On ch=1 n=c#4 v=64
43056 Off ch=1 n=c#4 v=64
43056 Off ch=1 n=a3 v=64
43056 Off ch=1 n=e4 v=64
43056 Off ch=1 n=g4 v=64
43080 On ch=1 n=a3 v=64
43080 On ch=1 n=g4 v=64
43080 On ch=1 n=e4 v=64
43080 On ch=1 n=c#4 v=64
43134 Off ch=1 n=c#4 v=64
43134 Off ch=1 n=e4 v=64
43134 Off ch=1 n=g4 v=64
43134 Off ch=1 n=a3 v=64
43200 On ch=1 n=d5 v=64
43200 On ch=1 n=a5 v=64
43200 On ch=1 n=f#5 v=64
43296 Off ch=1 n=f#5 v=64
43296 Off ch=1 n=a5 v=64
43296 Off ch=1 n=d5 v=64
43320 On ch=1 n=d5 v=64
43320 On ch=1 n=a5 v=64
43320 On ch=1 n=f#5 v=64
43416 Off ch=1 n=f#5 v=64
43416 Off ch=1 n=a5 v=64
43416 Off ch=1 n=d5 v=64
43440 On ch=1 n=a5 v=64
43440 On ch=1 n=d5 v=64
43440 On ch=1 n=f#5 v=64
43536 Off ch=1 n=f#5 v=64
43536 Off ch=1 n=d5 v=64
43536 Off ch=1 n=a5 v=64
43560 On ch=1 n=d5 v=64
43560 On ch=1 n=a5 v=64
43560 On ch=1 n=f#5 v=64
43656 Off ch=1 n=f#5 v=64
43656 Off ch=1 n=a5 v=64
43656 Off ch=1 n=d5 v=64
43680 On ch=1 n=d5 v=64
43680 On ch=1 n=a5 v=64
43680 On ch=1 n=f#5 v=64
43776 Off ch=1 n=f#5 v=64
43776 Off ch=1 n=a5 v=64
43776 Off ch=1 n=d5 v=64
43800 On ch=1 n=a5 v=64
43800 On ch=1 n=d5 v=64
43800 On ch=1 n=f#5 v=64
43854 Off ch=1 n=f#5 v=64
43854 Off ch=1 n=d5 v=64
43854 Off ch=1 n=a5 v=64
43920 On ch=1 n=a5 v=64
43920 On ch=1 n=g5 v=64
43920 On ch=1 n=c#5 v=64
43920 On ch=1 n=e5 v=64
44016 Off ch=1 n=e5 v=64
44016 Off ch=1 n=c#5 v=64
44016 Off ch=1 n=g5 v=64
44016 Off ch=1 n=a5 v=64
44040 On ch=1 n=a5 v=64
44040 On ch=1 n=g5 v=64
44040 On ch=1 n=e5 v=64
44040 On ch=1 n=c#5 v=64
44136 Off ch=1 n=c#5 v=64
44136 Off ch=1 n=e5 v=64
44136 Off ch=1 n=g5 v=64
44136 Off ch=1 n=a5 v=64
44160 On ch=1 n=e5 v=64
44160 On ch=1 n=a5 v=64
44160 On ch=1 n=g5 v=64
44160 On ch=1 n=c#5 v=64
44256 Off ch=1 n=c#5 v=64
44256 Off ch=1 n=g5 v=64
44256 Off ch=1 n=a5 v=64
44256 Off ch=1 n=e5 v=64
44280 On ch=1 n=a5 v=64
44280 On ch=1 n=g5 v=64
44280 On ch=1 n=e5 v=64
44280 On ch=1 n=c#5 v=64
44376 Off ch=1 n=c#5 v=64
44376 Off ch=1 n=e5 v=64
44376 Off ch=1 n=g5 v=64
44376 Off ch=1 n=a5 v=64
44400 On ch=1 n=a5 v=64
44400 On ch=1 n=g5 v=64
44400 On ch=1 n=e5 v=64
44400 On ch=1 n=c#5 v=64
44496 Off ch=1 n=c#5 v=64
44496 Off ch=1 n=e5 v=64
44496 Off ch=1 n=g5 v=64
44496 Off ch=1 n=a5 v=64
44520 On ch=1 n=a5 v=64
44520 On ch=1 n=g5 v=64
44520 On ch=1 n=e5 v=64
44520 On ch=1 n=c#5 v=64
44574 Off ch=1 n=c#5 v=64
44574 Off ch=1 n=e5 v=64
44574 Off ch=1 n=g5 v=64
44574 Off ch=1 n=a5 v=64
44640 On ch=1 n=d5 v=64
44640 On ch=1 n=a5 v=64
44640 On ch=1 n=f#5 v=64
44736 Off ch=1 n=f#5 v=64
44736 Off ch=1 n=a5 v=64
44736 Off ch=1 n=d5 v=64
44760 On ch=1 n=a5 v=64
44760 On ch=1 n=d5 v=64
44760 On ch=1 n=f#5 v=64
44856 Off ch=1 n=f#5 v=64
44856 Off ch=1 n=d5 v=64
44856 Off ch=1 n=a5 v=64
44880 On ch=1 n=a5 v=64
44880 On ch=1 n=f#5 v=64
44880 On ch=1 n=d5 v=64
44976 Off ch=1 n=d5 v=64
44976 Off ch=1 n=f#5 v=64
44976 Off ch=1 n=a5 v=64
45000 On ch=1 n=a5 v=64
45000 On ch=1 n=d5 v=64
45000 On ch=1 n=f#5 v=64
45054 Off ch=1 n=f#5 v=64
45054 Off ch=1 n=d5 v=64
45054 Off ch=1 n=a5 v=64
45120 On ch=1 n=g5 v=64
45120 On ch=1 n=c#5 v=64
45120 On ch=1 n=a4 v=64
45216 Off ch=1 n=a4 v=64
45216 Off ch=1 n=c#5 v=64
45216 Off ch=1 n=g5 v=64
45240 On ch=1 n=g5 v=64
45240 On ch=1 n=a4 v=64
45240 On ch=1 n=c#5 v=64
45294 Off ch=1 n=c#5 v=64
45294 Off ch=1 n=a4 v=64
45294 Off ch=1 n=g5 v=64
45360 On ch=1 n=d5 v=64
45360 On ch=1 n=d4 v=64
45552 Off ch=1 n=d4 v=64
45552 Off ch=1 n=d5 v=64
45600 On ch=1 n=a4 v=64
45600 On ch=1 n=a3 v=64
45708 Off ch=1 n=a3 v=64
45708 Off ch=1 n=a4 v=64
45840 On ch=1 n=f#4 v=64
45840 On ch=1 n=f#3 v=64
45948 Off ch=1 n=f#3 v=64
45948 Off ch=1 n=f#4 v=64
46080 On ch=1 n=d3 v=64
46080 On ch=1 n=d4 v=64
46272 Off ch=1 n=d4 v=64
46272 Off ch=1 n=d3 v=64
46320 On ch=1 n=f#4 v=64
46428 Off ch=1 n=f#4 v=64
46560 On ch=1 n=d4 v=64
46668 Off ch=1 n=d4 v=64
46800 On ch=1 n=a3 v=64
46992 Off ch=1 n=a3 v=64
47040 On ch=1 n=a4 v=64
47148 Off ch=1 n=a4 v=64
47280 On ch=1 n=g4 v=64
47388 Off ch=1 n=g4 v=64
47520 On ch=1 n=f#4 v=64
47712 Off ch=1 n=f#4 v=64
47760 On ch=1 n=d4 v=64
47868 Off ch=1 n=d4 v=64
48000 On ch=1 n=f#4 v=64
48108 Off ch=1 n=f#4 v=64
48240 On ch=1 n=a4 v=64
48432 Off ch=1 n=a4 v=64
48480 On ch=1 n=e4 v=64
48588 Off ch=1 n=e4 v=64
48720 On ch=1 n=c#4 v=64
48828 Off ch=1 n=c#4 v=64
48960 On ch=1 n=a3 v=64
49152 Off ch=1 n=a3 v=64
49200 On ch=1 n=a4 v=64
49308 Off ch=1 n=a4 v=64
49440 On ch=1 n=a3 v=64
49548 Off ch=1 n=a3 v=64
49680 On ch=1 n=a4 v=64
49872 Off ch=1 n=a4 v=64
49920 On ch=1 n=a3 v=64
50028 Off ch=1 n=a3 v=64
50160 On ch=1 n=g4 v=64
50268 Off ch=1 n=g4 v=64
50400 On ch=1 n=f#4 v=64
50592 Off ch=1 n=f#4 v=64
50640 On ch=1 n=a4 v=64
50748 Off ch=1 n=a4 v=64
50880 On ch=1 n=a3 v=64
50988 Off ch=1 n=a3 v=64
51120 On ch=1 n=d4 v=64
51312 Off ch=1 n=d4 v=64
51360 On ch=1 n=a3 v=64
51468 Off ch=1 n=a3 v=64
51600 On ch=1 n=d3 v=64
51708 Off ch=1 n=d3 v=64
52080 On ch=1 n=b4 v=64
52080 On ch=1 n=d5 v=64
52080 On ch=1 n=g#5 v=64
52272 Off ch=1 n=g#5 v=64
52272 Off ch=1 n=d5 v=64
52272 Off ch=1 n=b4 v=64
52320 On ch=1 n=a5 v=64
52320 On ch=1 n=e5 v=64
52320 On ch=1 n=a4 v=64
52428 Off ch=1 n=a4 v=64
52428 Off ch=1 n=e5 v=64
52428 Off ch=1 n=a5 v=64
52800 On ch=1 n=e5 v=64
52800 On ch=1 n=g4 v=64
52800 On ch=1 n=c#5 v=64
52992 Off ch=1 n=c#5 v=64
52992 Off ch=1 n=g4 v=64
52992 Off ch=1 n=e5 v=64
53040 On ch=1 n=d5 v=64
53040 On ch=1 n=a4 v=64
53040 On ch=1 n=f#4 v=64
53148 Off ch=1 n=f#4 v=64
53148 Off ch=1 n=a4 v=64
53148 Off ch=1 n=d5 v=64
53520 On ch=1 n=e4 v=64
53520 On ch=1 n=a4 v=64
53520 On ch=1 n=c#4 v=64
53712 Off ch=1 n=c#4 v=64
53712 Off ch=1 n=a4 v=64
53712 Off ch=1 n=e4 v=64
53760 On ch=1 n=a4 v=64
53760 On ch=1 n=d4 v=64
53760 On ch=1 n=f#4 v=64
53868 Off ch=1 n=f#4 v=64
53868 Off ch=1 n=d4 v=64
53868 Off ch=1 n=a4 v=64
54000 On ch=1 n=a3 v=64
54192 Off ch=1 n=a3 v=64
54240 On ch=1 n=a4 v=64
54348 Off ch=1 n=a4 v=64
54480 On ch=1 n=a3 v=64
54588 Off ch=1 n=a3 v=64
54720 On ch=1 n=d3 v=64
54720 On ch=1 n=d4 v=64
54912 Off ch=1 n=d4 v=64
54912 Off ch=1 n=d3 v=64
54960 On ch=1 n=f#4 v=64
55068 Off ch=1 n=f#4 v=64
55200 On ch=1 n=d4 v=64
55308 Off ch=1 n=d4 v=64
55440 On ch=1 n=a3 v=64
55632 Off ch=1 n=a3 v=64
55680 On ch=1 n=a4 v=64
55788 Off ch=1 n=a4 v=64
55920 On ch=1 n=g4 v=64
56028 Off ch=1 n=g4 v=64
56160 On ch=1 n=f#4 v=64
56352 Off ch=1 n=f#4 v=64
56400 On ch=1 n=a4 v=64
56508 Off ch=1 n=a4 v=64
56640 On ch=1 n=a3 v=64
56748 Off ch=1 n=a3 v=64
56880 On ch=1 n=d4 v=64
57072 Off ch=1 n=d4 v=64
57120 On ch=1 n=a3 v=64
57228 Off ch=1 n=a3 v=64
57360 On ch=1 n=d3 v=64
57468 Off ch=1 n=d3 v=64
57468 Meta TrkEnd
TrkEnd
