MFile 1 4 240
MTrk
0 TimeSig 3/4 24 8
0 Tempo 434783
70080 Tempo 483871
70320 Tempo 545455
70560 Tempo 625000
70560 Meta TrkEnd
TrkEnd
MTrk
480 On ch=1 n=c6 v=64
588 Off ch=1 n=c6 v=64
720 On ch=1 n=c6 v=64
720 On ch=1 n=f6 v=64
720 On ch=1 n=a5 v=64
1104 Off ch=1 n=a5 v=64
1104 Off ch=1 n=f6 v=64
1104 Off ch=1 n=c6 v=64
1200 On ch=1 n=a6 v=64
1308 Off ch=1 n=a6 v=64
1440 On ch=1 n=c7 v=64
1632 Off ch=1 n=c7 v=64
1680 On ch=1 n=c7 v=64
1788 Off ch=1 n=c7 v=64
1920 On ch=1 n=c7 v=64
2028 Off ch=1 n=c7 v=64
2160 On ch=1 n=g6 v=64
2544 Off ch=1 n=g6 v=64
2640 On ch=1 n=a#6 v=64
2748 Off ch=1 n=a#6 v=64
2880 On ch=1 n=a6 v=64
3072 Off ch=1 n=a6 v=64
3360 On ch=1 n=c6 v=64
3468 Off ch=1 n=c6 v=64
3600 On ch=1 n=g5 v=64
3984 Off ch=1 n=g5 v=64
4080 On ch=1 n=a#5 v=64
4188 Off ch=1 n=a#5 v=64
4320 On ch=1 n=a5 v=64
4512 Off ch=1 n=a5 v=64
4800 On ch=1 n=a6 v=64
4848 Off ch=1 n=a6 v=64
4860 On ch=1 n=g6 v=64
4908 Off ch=1 n=g6 v=64
4920 On ch=1 n=f6 v=64
4968 Off ch=1 n=f6 v=64
4980 On ch=1 n=e6 v=64
5028 Off ch=1 n=e6 v=64
5040 On ch=1 n=d6 v=64
5232 Off ch=1 n=d6 v=64
5280 On ch=1 n=d6 v=64
5388 Off ch=1 n=d6 v=64
5520 On ch=1 n=g6 v=64
5568 Off ch=1 n=g6 v=64
5580 On ch=1 n=f6 v=64
5628 Off ch=1 n=f6 v=64
5640 On ch=1 n=e6 v=64
5688 Off ch=1 n=e6 v=64
5700 On ch=1 n=d6 v=64
5748 Off ch=1 n=d6 v=64
5760 On ch=1 n=c6 v=64
5952 Off ch=1 n=c6 v=64
6000 On ch=1 n=c6 v=64
6108 Off ch=1 n=c6 v=64
6240 On ch=1 n=a5 v=64
6288 Off ch=1 n=a5 v=64
6300 On ch=1 n=g5 v=64
6348 Off ch=1 n=g5 v=64
6360 On ch=1 n=f5 v=64
6408 Off ch=1 n=f5 v=64
6420 On ch=1 n=e5 v=64
6468 Off ch=1 n=e5 v=64
6480 On ch=1 n=b4 v=64
6480 On ch=1 n=d5 v=64
6672 Off ch=1 n=d5 v=64
6672 Off ch=1 n=b4 v=64
6720 On ch=1 n=d5 v=64
6720 On ch=1 n=b4 v=64
6828 Off ch=1 n=b4 v=64
6828 Off ch=1 n=d5 v=64
6960 On ch=1 n=g5 v=64
7008 Off ch=1 n=g5 v=64
7020 On ch=1 n=f5 v=64
7068 Off ch=1 n=f5 v=64
7080 On ch=1 n=e5 v=64
7128 Off ch=1 n=e5 v=64
7140 On ch=1 n=d5 v=64
7188 Off ch=1 n=d5 v=64
7200 On ch=1 n=c5 v=64
7416 Off ch=1 n=c5 v=64
7680 On ch=1 n=c6 v=64
7788 Off ch=1 n=c6 v=64
7920 On ch=1 n=a5 v=64
7920 On ch=1 n=f6 v=64
7920 On ch=1 n=c6 v=64
8304 Off ch=1 n=c6 v=64
8304 Off ch=1 n=f6 v=64
8304 Off ch=1 n=a5 v=64
8400 On ch=1 n=a6 v=64
8508 Off ch=1 n=a6 v=64
8640 On ch=1 n=c7 v=64
8832 Off ch=1 n=c7 v=64
8880 On ch=1 n=c7 v=64
8988 Off ch=1 n=c7 v=64
9120 On ch=1 n=c7 v=64
9228 Off ch=1 n=c7 v=64
9360 On ch=1 n=g6 v=64
9744 Off ch=1 n=g6 v=64
9840 On ch=1 n=a#6 v=64
9948 Off ch=1 n=a#6 v=64
10080 On ch=1 n=a6 v=64
10272 Off ch=1 n=a6 v=64
10560 On ch=1 n=c6 v=64
10668 Off ch=1 n=c6 v=64
10800 On ch=1 n=g5 v=64
11184 Off ch=1 n=g5 v=64
11280 On ch=1 n=a#5 v=64
11388 Off ch=1 n=a#5 v=64
11520 On ch=1 n=a5 v=64
11712 Off ch=1 n=a5 v=64
12000 On ch=1 n=a6 v=64
12048 Off ch=1 n=a6 v=64
12060 On ch=1 n=g6 v=64
12108 Off ch=1 n=g6 v=64
12120 On ch=1 n=f6 v=64
12168 Off ch=1 n=f6 v=64
12180 On ch=1 n=e6 v=64
12228 Off ch=1 n=e6 v=64
12240 On ch=1 n=d6 v=64
12432 Off ch=1 n=d6 v=64
12480 On ch=1 n=d6 v=64
12588 Off ch=1 n=d6 v=64
12720 On ch=1 n=g6 v=64
12768 Off ch=1 n=g6 v=64
12780 On ch=1 n=f6 v=64
12828 Off ch=1 n=f6 v=64
12840 On ch=1 n=e6 v=64
12888 Off ch=1 n=e6 v=64
12900 On ch=1 n=d6 v=64
12948 Off ch=1 n=d6 v=64
12960 On ch=1 n=c6 v=64
13152 Off ch=1 n=c6 v=64
13200 On ch=1 n=c6 v=64
13308 Off ch=1 n=c6 v=64
13440 On ch=1 n=a5 v=64
13488 Off ch=1 n=a5 v=64
13500 On ch=1 n=g5 v=64
13548 Off ch=1 n=g5 v=64
13560 On ch=1 n=f5 v=64
13608 Off ch=1 n=f5 v=64
13620 On ch=1 n=e5 v=64
13668 Off ch=1 n=e5 v=64
13680 On ch=1 n=d5 v=64
13680 On ch=1 n=b4 v=64
13872 Off ch=1 n=b4 v=64
13872 Off ch=1 n=d5 v=64
13920 On ch=1 n=b4 v=64
13920 On ch=1 n=d5 v=64
14028 Off ch=1 n=d5 v=64
14028 Off ch=1 n=b4 v=64
14160 On ch=1 n=g5 v=64
14208 Off ch=1 n=g5 v=64
14220 On ch=1 n=f5 v=64
14268 Off ch=1 n=f5 v=64
14280 On ch=1 n=e5 v=64
14328 Off ch=1 n=e5 v=64
14340 On ch=1 n=d5 v=64
14388 Off ch=1 n=d5 v=64
14400 On ch=1 n=c5 v=64
14616 Off ch=1 n=c5 v=64
14880 On ch=1 n=c6 v=64
14988 Off ch=1 n=c6 v=64
15120 On ch=1 n=d5 v=64
15120 On ch=1 n=d6 v=64
15228 Off ch=1 n=d6 v=64
15228 Off ch=1 n=d5 v=64
15360 On ch=1 n=g6 v=64
15360 On ch=1 n=g5 v=64
15456 Off ch=1 n=g5 v=64
15456 Off ch=1 n=g6 v=64
15480 On ch=1 n=f5 v=64
15480 On ch=1 n=f6 v=64
15576 Off ch=1 n=f6 v=64
15576 Off ch=1 n=f5 v=64
15600 On ch=1 n=e6 v=64
15600 On ch=1 n=e5 v=64
15708 Off ch=1 n=e5 v=64
15708 Off ch=1 n=e6 v=64
15840 On ch=1 n=f5 v=64
15840 On ch=1 n=f6 v=64
15948 Off ch=1 n=f6 v=64
15948 Off ch=1 n=f5 v=64
16080 On ch=1 n=a#6 v=64
16080 On ch=1 n=a#5 v=64
16176 Off ch=1 n=a#5 v=64
16176 Off ch=1 n=a#6 v=64
16200 On ch=1 n=a6 v=64
16200 On ch=1 n=a5 v=64
16296 Off ch=1 n=a5 v=64
16296 Off ch=1 n=a6 v=64
16320 On ch=1 n=g5 v=64
16320 On ch=1 n=g6 v=64
16428 Off ch=1 n=g6 v=64
16428 Off ch=1 n=g5 v=64
16560 On ch=1 n=a5 v=64
16560 On ch=1 n=a6 v=64
16668 Off ch=1 n=a6 v=64
16668 Off ch=1 n=a5 v=64
16800 On ch=1 n=d7 v=64
16800 On ch=1 n=d6 v=64
16896 Off ch=1 n=d6 v=64
16896 Off ch=1 n=d7 v=64
16920 On ch=1 n=c7 v=64
16920 On ch=1 n=c6 v=64
17016 Off ch=1 n=c6 v=64
17016 Off ch=1 n=c7 v=64
17040 On ch=1 n=b5 v=64
17040 On ch=1 n=b6 v=64
17232 Off ch=1 n=b6 v=64
17232 Off ch=1 n=b5 v=64
17280 On ch=1 n=c6 v=64
17280 On ch=1 n=c7 v=64
17496 Off ch=1 n=c7 v=64
17496 Off ch=1 n=c6 v=64
17760 On ch=1 n=d6 v=64
17808 Off ch=1 n=d6 v=64
17820 On ch=1 n=c6 v=64
17868 Off ch=1 n=c6 v=64
17880 On ch=1 n=a#5 v=64
17928 Off ch=1 n=a#5 v=64
17940 On ch=1 n=a5 v=64
17988 Off ch=1 n=a5 v=64
18000 On ch=1 n=g5 v=64
18192 Off ch=1 n=g5 v=64
18240 On ch=1 n=g5 v=64
18348 Off ch=1 n=g5 v=64
18480 On ch=1 n=c6 v=64
18528 Off ch=1 n=c6 v=64
18540 On ch=1 n=a#5 v=64
18588 Off ch=1 n=a#5 v=64
18600 On ch=1 n=a5 v=64
18648 Off ch=1 n=a5 v=64
18660 On ch=1 n=g5 v=64
18708 Off ch=1 n=g5 v=64
18720 On ch=1 n=f5 v=64
18912 Off ch=1 n=f5 v=64
18960 On ch=1 n=f5 v=64
19068 Off ch=1 n=f5 v=64
19200 On ch=1 n=d6 v=64
19248 Off ch=1 n=d6 v=64
19260 On ch=1 n=c6 v=64
19308 Off ch=1 n=c6 v=64
19320 On ch=1 n=a#5 v=64
19368 Off ch=1 n=a#5 v=64
19380 On ch=1 n=a5 v=64
19428 Off ch=1 n=a5 v=64
19440 On ch=1 n=g5 v=64
19632 Off ch=1 n=g5 v=64
19680 On ch=1 n=g5 v=64
19788 Off ch=1 n=g5 v=64
19920 On ch=1 n=c6 v=64
19968 Off ch=1 n=c6 v=64
19980 On ch=1 n=a#5 v=64
20028 Off ch=1 n=a#5 v=64
20040 On ch=1 n=a5 v=64
20088 Off ch=1 n=a5 v=64
20100 On ch=1 n=g5 v=64
20148 Off ch=1 n=g5 v=64
20160 On ch=1 n=f5 v=64
20544 Off ch=1 n=f5 v=64
20640 On ch=1 n=c6 v=64
20748 Off ch=1 n=c6 v=64
20880 On ch=1 n=c6 v=64
20880 On ch=1 n=f6 v=64
20880 On ch=1 n=a5 v=64
21264 Off ch=1 n=a5 v=64
21264 Off ch=1 n=f6 v=64
21264 Off ch=1 n=c6 v=64
21360 On ch=1 n=a6 v=64
21468 Off ch=1 n=a6 v=64
21600 On ch=1 n=c7 v=64
21792 Off ch=1 n=c7 v=64
21840 On ch=1 n=c7 v=64
21948 Off ch=1 n=c7 v=64
22080 On ch=1 n=c7 v=64
22188 Off ch=1 n=c7 v=64
22320 On ch=1 n=a#6 v=64
22416 Off ch=1 n=a#6 v=64
22440 On ch=1 n=c7 v=64
22494 Off ch=1 n=c7 v=64
22560 On ch=1 n=d7 v=64
22656 Off ch=1 n=d7 v=64
22680 On ch=1 n=a#6 v=64
22734 Off ch=1 n=a#6 v=64
22800 On ch=1 n=a#5 v=64
22800 On ch=1 n=g6 v=64
22896 Off ch=1 n=g6 v=64
22908 Off ch=1 n=a#5 v=64
22920 On ch=1 n=e6 v=64
22974 Off ch=1 n=e6 v=64
23040 On ch=1 n=a5 v=64
23040 On ch=1 n=f6 v=64
23256 Off ch=1 n=f6 v=64
23256 Off ch=1 n=a5 v=64
23520 On ch=1 n=c6 v=64
23628 Off ch=1 n=c6 v=64
23760 On ch=1 n=d6 v=64
23760 On ch=1 n=d5 v=64
23868 Off ch=1 n=d5 v=64
23868 Off ch=1 n=d6 v=64
24000 On ch=1 n=g5 v=64
24000 On ch=1 n=g6 v=64
24096 Off ch=1 n=g6 v=64
24096 Off ch=1 n=g5 v=64
24120 On ch=1 n=f6 v=64
24120 On ch=1 n=f5 v=64
24216 Off ch=1 n=f5 v=64
24216 Off ch=1 n=f6 v=64
24240 On ch=1 n=e5 v=64
24240 On ch=1 n=e6 v=64
24348 Off ch=1 n=e6 v=64
24348 Off ch=1 n=e5 v=64
24480 On ch=1 n=f6 v=64
24480 On ch=1 n=f5 v=64
24588 Off ch=1 n=f5 v=64
24588 Off ch=1 n=f6 v=64
24720 On ch=1 n=a#5 v=64
24720 On ch=1 n=a#6 v=64
24816 Off ch=1 n=a#6 v=64
24816 Off ch=1 n=a#5 v=64
24840 On ch=1 n=a5 v=64
24840 On ch=1 n=a6 v=64
24936 Off ch=1 n=a6 v=64
24936 Off ch=1 n=a5 v=64
24960 On ch=1 n=g6 v=64
24960 On ch=1 n=g5 v=64
25068 Off ch=1 n=g5 v=64
25068 Off ch=1 n=g6 v=64
25200 On ch=1 n=a6 v=64
25200 On ch=1 n=a5 v=64
25308 Off ch=1 n=a5 v=64
25308 Off ch=1 n=a6 v=64
25440 On ch=1 n=d6 v=64
25536 Off ch=1 n=d6 v=64
25560 On ch=1 n=c6 v=64
25560 On ch=1 n=c7 v=64
25656 Off ch=1 n=c7 v=64
25656 Off ch=1 n=c6 v=64
25680 On ch=1 n=b6 v=64
25680 On ch=1 n=b5 v=64
25872 Off ch=1 n=b5 v=64
25872 Off ch=1 n=b6 v=64
25920 On ch=1 n=c7 v=64
25920 On ch=1 n=c6 v=64
26136 Off ch=1 n=c6 v=64
26136 Off ch=1 n=c7 v=64
26400 On ch=1 n=d6 v=64
26448 Off ch=1 n=d6 v=64
26460 On ch=1 n=c6 v=64
26508 Off ch=1 n=c6 v=64
26520 On ch=1 n=a#5 v=64
26568 Off ch=1 n=a#5 v=64
26580 On ch=1 n=a5 v=64
26628 Off ch=1 n=a5 v=64
26640 On ch=1 n=g5 v=64
26832 Off ch=1 n=g5 v=64
26880 On ch=1 n=g5 v=64
26988 Off ch=1 n=g5 v=64
27120 On ch=1 n=c6 v=64
27168 Off ch=1 n=c6 v=64
27180 On ch=1 n=a#5 v=64
27228 Off ch=1 n=a#5 v=64
27240 On ch=1 n=a5 v=64
27288 Off ch=1 n=a5 v=64
27300 On ch=1 n=g5 v=64
27348 Off ch=1 n=g5 v=64
27360 On ch=1 n=f5 v=64
27552 Off ch=1 n=f5 v=64
27600 On ch=1 n=f5 v=64
27708 Off ch=1 n=f5 v=64
27840 On ch=1 n=d6 v=64
27888 Off ch=1 n=d6 v=64
27900 On ch=1 n=c6 v=64
27948 Off ch=1 n=c6 v=64
27960 On ch=1 n=a#5 v=64
28008 Off ch=1 n=a#5 v=64
28020 On ch=1 n=a5 v=64
28068 Off ch=1 n=a5 v=64
28080 On ch=1 n=g5 v=64
28272 Off ch=1 n=g5 v=64
28320 On ch=1 n=g5 v=64
28428 Off ch=1 n=g5 v=64
28560 On ch=1 n=c6 v=64
28608 Off ch=1 n=c6 v=64
28620 On ch=1 n=a#5 v=64
28668 Off ch=1 n=a#5 v=64
28680 On ch=1 n=a5 v=64
28728 Off ch=1 n=a5 v=64
28740 On ch=1 n=g5 v=64
28788 Off ch=1 n=g5 v=64
28800 On ch=1 n=f5 v=64
29184 Off ch=1 n=f5 v=64
29280 On ch=1 n=c6 v=64
29388 Off ch=1 n=c6 v=64
29520 On ch=1 n=a5 v=64
29520 On ch=1 n=f6 v=64
29520 On ch=1 n=c6 v=64
29904 Off ch=1 n=c6 v=64
29904 Off ch=1 n=f6 v=64
29904 Off ch=1 n=a5 v=64
30000 On ch=1 n=a6 v=64
30108 Off ch=1 n=a6 v=64
30240 On ch=1 n=c7 v=64
30432 Off ch=1 n=c7 v=64
30480 On ch=1 n=c7 v=64
30588 Off ch=1 n=c7 v=64
30720 On ch=1 n=c7 v=64
30828 Off ch=1 n=c7 v=64
30960 On ch=1 n=a#6 v=64
31056 Off ch=1 n=a#6 v=64
31080 On ch=1 n=c7 v=64
31134 Off ch=1 n=c7 v=64
31200 On ch=1 n=d7 v=64
31296 Off ch=1 n=d7 v=64
31320 On ch=1 n=a#6 v=64
31374 Off ch=1 n=a#6 v=64
31440 On ch=1 n=g6 v=64
31440 On ch=1 n=a#5 v=64
31536 Off ch=1 n=g6 v=64
31548 Off ch=1 n=a#5 v=64
31560 On ch=1 n=e6 v=64
31614 Off ch=1 n=e6 v=64
31680 On ch=1 n=f6 v=64
31680 On ch=1 n=a5 v=64
31896 Off ch=1 n=a5 v=64
31896 Off ch=1 n=f6 v=64
32160 On ch=1 n=f5 v=64
32160 On ch=1 n=f6 v=64
32214 Off ch=1 n=f6 v=64
32214 Off ch=1 n=f5 v=64
32280 On ch=1 n=f5 v=64
32280 On ch=1 n=f6 v=64
32334 Off ch=1 n=f6 v=64
32334 Off ch=1 n=f5 v=64
32400 On ch=1 n=f5 v=64
32400 On ch=1 n=d6 v=64
32454 Off ch=1 n=d6 v=64
32454 Off ch=1 n=f5 v=64
32520 On ch=1 n=f5 v=64
32520 On ch=1 n=d6 v=64
32574 Off ch=1 n=d6 v=64
32574 Off ch=1 n=f5 v=64
32640 On ch=1 n=d5 v=64
32640 On ch=1 n=a#5 v=64
32694 Off ch=1 n=a#5 v=64
32694 Off ch=1 n=d5 v=64
32760 On ch=1 n=d5 v=64
32760 On ch=1 n=a#5 v=64
32814 Off ch=1 n=a#5 v=64
32814 Off ch=1 n=d5 v=64
32880 On ch=1 n=a#4 v=64
32880 On ch=1 n=g5 v=64
32934 Off ch=1 n=g5 v=64
32934 Off ch=1 n=a#4 v=64
33000 On ch=1 n=a#4 v=64
33000 On ch=1 n=g5 v=64
33054 Off ch=1 n=g5 v=64
33054 Off ch=1 n=a#4 v=64
33120 On ch=1 n=g4 v=64
33120 On ch=1 n=e5 v=64
33174 Off ch=1 n=e5 v=64
33174 Off ch=1 n=g4 v=64
33240 On ch=1 n=g4 v=64
33240 On ch=1 n=e5 v=64
33294 Off ch=1 n=e5 v=64
33294 Off ch=1 n=g4 v=64
33360 On ch=1 n=c6 v=64
33360 On ch=1 n=e5 v=64
33414 Off ch=1 n=e5 v=64
33414 Off ch=1 n=c6 v=64
33480 On ch=1 n=e5 v=64
33480 On ch=1 n=c6 v=64
33534 Off ch=1 n=c6 v=64
33534 Off ch=1 n=e5 v=64
33600 On ch=1 n=g5 v=64
33600 On ch=1 n=a#5 v=64
33654 Off ch=1 n=a#5 v=64
33654 Off ch=1 n=g5 v=64
33720 On ch=1 n=g5 v=64
33720 On ch=1 n=a#5 v=64
33774 Off ch=1 n=a#5 v=64
33774 Off ch=1 n=g5 v=64
33840 On ch=1 n=g#5 v=64
33840 On ch=1 n=e5 v=64
33888 Off ch=1 n=e5 v=64
33888 Off ch=1 n=g#5 v=64
33900 On ch=1 n=a5 v=64
33900 On ch=1 n=f5 v=64
34044 Off ch=1 n=f5 v=64
34044 Off ch=1 n=a5 v=64
34080 On ch=1 n=a5 v=64
34080 On ch=1 n=f5 v=64
34176 Off ch=1 n=f5 v=64
34176 Off ch=1 n=a5 v=64
34200 On ch=1 n=f5 v=64
34200 On ch=1 n=a5 v=64
34296 Off ch=1 n=a5 v=64
34296 Off ch=1 n=f5 v=64
34320 On ch=1 n=f5 v=64
34320 On ch=1 n=a5 v=64
34416 Off ch=1 n=a5 v=64
34416 Off ch=1 n=f5 v=64
34440 On ch=1 n=f5 v=64
34440 On ch=1 n=a5 v=64
34536 Off ch=1 n=a5 v=64
34536 Off ch=1 n=f5 v=64
34560 On ch=1 n=a5 v=64
34560 On ch=1 n=f5 v=64
34944 Off ch=1 n=f5 v=64
34944 Off ch=1 n=a5 v=64
35040 On ch=1 n=c6 v=64
35040 On ch=1 n=f6 v=64
35094 Off ch=1 n=f6 v=64
35094 Off ch=1 n=c6 v=64
35160 On ch=1 n=c6 v=64
35160 On ch=1 n=f6 v=64
35214 Off ch=1 n=f6 v=64
35214 Off ch=1 n=c6 v=64
35280 On ch=1 n=d6 v=64
35280 On ch=1 n=f5 v=64
35334 Off ch=1 n=f5 v=64
35334 Off ch=1 n=d6 v=64
35400 On ch=1 n=d6 v=64
35400 On ch=1 n=f5 v=64
35454 Off ch=1 n=f5 v=64
35454 Off ch=1 n=d6 v=64
35520 On ch=1 n=d5 v=64
35520 On ch=1 n=a#5 v=64
35574 Off ch=1 n=a#5 v=64
35574 Off ch=1 n=d5 v=64
35640 On ch=1 n=a#5 v=64
35640 On ch=1 n=d5 v=64
35694 Off ch=1 n=d5 v=64
35694 Off ch=1 n=a#5 v=64
35760 On ch=1 n=a#4 v=64
35760 On ch=1 n=g5 v=64
35814 Off ch=1 n=g5 v=64
35814 Off ch=1 n=a#4 v=64
35880 On ch=1 n=g5 v=64
35880 On ch=1 n=a#4 v=64
35934 Off ch=1 n=a#4 v=64
35934 Off ch=1 n=g5 v=64
36000 On ch=1 n=g4 v=64
36000 On ch=1 n=e5 v=64
36054 Off ch=1 n=e5 v=64
36054 Off ch=1 n=g4 v=64
36120 On ch=1 n=g4 v=64
36120 On ch=1 n=e5 v=64
36174 Off ch=1 n=e5 v=64
36174 Off ch=1 n=g4 v=64
36240 On ch=1 n=c6 v=64
36240 On ch=1 n=g5 v=64
36294 Off ch=1 n=g5 v=64
36294 Off ch=1 n=c6 v=64
36360 On ch=1 n=c6 v=64
36360 On ch=1 n=g5 v=64
36414 Off ch=1 n=g5 v=64
36414 Off ch=1 n=c6 v=64
36480 On ch=1 n=a#5 v=64
36480 On ch=1 n=e5 v=64
36534 Off ch=1 n=e5 v=64
36534 Off ch=1 n=a#5 v=64
36600 On ch=1 n=a#5 v=64
36600 On ch=1 n=e5 v=64
36654 Off ch=1 n=e5 v=64
36654 Off ch=1 n=a#5 v=64
36720 On ch=1 n=a5 v=64
36720 On ch=1 n=f5 v=64
36912 Off ch=1 n=f5 v=64
36912 Off ch=1 n=a5 v=64
36960 On ch=1 n=a5 v=64
36960 On ch=1 n=c6 v=64
37056 Off ch=1 n=c6 v=64
37056 Off ch=1 n=a5 v=64
37080 On ch=1 n=a#5 v=64
37080 On ch=1 n=g5 v=64
37134 Off ch=1 n=g5 v=64
37134 Off ch=1 n=a#5 v=64
37200 On ch=1 n=f5 v=64
37200 On ch=1 n=a5 v=64
37296 Off ch=1 n=a5 v=64
37296 Off ch=1 n=f5 v=64
37320 On ch=1 n=g5 v=64
37320 On ch=1 n=e5 v=64
37374 Off ch=1 n=e5 v=64
37374 Off ch=1 n=g5 v=64
37440 On ch=1 n=f5 v=64
37824 Off ch=1 n=f5 v=64
37920 On ch=1 n=f5 v=64
37920 On ch=1 n=f6 v=64
37974 Off ch=1 n=f6 v=64
37974 Off ch=1 n=f5 v=64
38040 On ch=1 n=f5 v=64
38040 On ch=1 n=f6 v=64
38094 Off ch=1 n=f6 v=64
38094 Off ch=1 n=f5 v=64
38160 On ch=1 n=d6 v=64
38160 On ch=1 n=f5 v=64
38214 Off ch=1 n=f5 v=64
38214 Off ch=1 n=d6 v=64
38280 On ch=1 n=d6 v=64
38280 On ch=1 n=f5 v=64
38334 Off ch=1 n=f5 v=64
38334 Off ch=1 n=d6 v=64
38400 On ch=1 n=a#5 v=64
38400 On ch=1 n=d5 v=64
38454 Off ch=1 n=d5 v=64
38454 Off ch=1 n=a#5 v=64
38520 On ch=1 n=a#5 v=64
38520 On ch=1 n=d5 v=64
38574 Off ch=1 n=d5 v=64
38574 Off ch=1 n=a#5 v=64
38640 On ch=1 n=g5 v=64
38640 On ch=1 n=a#4 v=64
38694 Off ch=1 n=a#4 v=64
38694 Off ch=1 n=g5 v=64
38760 On ch=1 n=g5 v=64
38760 On ch=1 n=a#4 v=64
38814 Off ch=1 n=a#4 v=64
38814 Off ch=1 n=g5 v=64
38880 On ch=1 n=e5 v=64
38880 On ch=1 n=g4 v=64
38934 Off ch=1 n=g4 v=64
38934 Off ch=1 n=e5 v=64
39000 On ch=1 n=e5 v=64
39000 On ch=1 n=g4 v=64
39054 Off ch=1 n=g4 v=64
39054 Off ch=1 n=e5 v=64
39120 On ch=1 n=e5 v=64
39120 On ch=1 n=c6 v=64
39174 Off ch=1 n=c6 v=64
39174 Off ch=1 n=e5 v=64
39240 On ch=1 n=c6 v=64
39240 On ch=1 n=e5 v=64
39294 Off ch=1 n=e5 v=64
39294 Off ch=1 n=c6 v=64
39360 On ch=1 n=a#5 v=64
39360 On ch=1 n=g5 v=64
39414 Off ch=1 n=g5 v=64
39414 Off ch=1 n=a#5 v=64
39480 On ch=1 n=a#5 v=64
39480 On ch=1 n=g5 v=64
39534 Off ch=1 n=g5 v=64
39534 Off ch=1 n=a#5 v=64
39600 On ch=1 n=e5 v=64
39600 On ch=1 n=g#5 v=64
39648 Off ch=1 n=g#5 v=64
39648 Off ch=1 n=e5 v=64
39660 On ch=1 n=f5 v=64
39660 On ch=1 n=a5 v=64
39804 Off ch=1 n=a5 v=64
39804 Off ch=1 n=f5 v=64
39840 On ch=1 n=f5 v=64
39840 On ch=1 n=a5 v=64
39936 Off ch=1 n=a5 v=64
39936 Off ch=1 n=f5 v=64
39960 On ch=1 n=a5 v=64
39960 On ch=1 n=f5 v=64
40056 Off ch=1 n=f5 v=64
40056 Off ch=1 n=a5 v=64
40080 On ch=1 n=a5 v=64
40080 On ch=1 n=f5 v=64
40176 Off ch=1 n=f5 v=64
40176 Off ch=1 n=a5 v=64
40200 On ch=1 n=a5 v=64
40200 On ch=1 n=f5 v=64
40296 Off ch=1 n=f5 v=64
40296 Off ch=1 n=a5 v=64
40320 On ch=1 n=f5 v=64
40320 On ch=1 n=a5 v=64
40704 Off ch=1 n=a5 v=64
40704 Off ch=1 n=f5 v=64
40800 On ch=1 n=f6 v=64
40800 On ch=1 n=c6 v=64
40854 Off ch=1 n=c6 v=64
40854 Off ch=1 n=f6 v=64
40920 On ch=1 n=f6 v=64
40920 On ch=1 n=c6 v=64
40974 Off ch=1 n=c6 v=64
40974 Off ch=1 n=f6 v=64
41040 On ch=1 n=f5 v=64
41040 On ch=1 n=d6 v=64
41094 Off ch=1 n=d6 v=64
41094 Off ch=1 n=f5 v=64
41160 On ch=1 n=f5 v=64
41160 On ch=1 n=d6 v=64
41214 Off ch=1 n=d6 v=64
41214 Off ch=1 n=f5 v=64
41280 On ch=1 n=a#5 v=64
41280 On ch=1 n=d5 v=64
41334 Off ch=1 n=d5 v=64
41334 Off ch=1 n=a#5 v=64
41400 On ch=1 n=d5 v=64
41400 On ch=1 n=a#5 v=64
41454 Off ch=1 n=a#5 v=64
41454 Off ch=1 n=d5 v=64
41520 On ch=1 n=g5 v=64
41520 On ch=1 n=a#4 v=64
41574 Off ch=1 n=a#4 v=64
41574 Off ch=1 n=g5 v=64
41640 On ch=1 n=a#4 v=64
41640 On ch=1 n=g5 v=64
41694 Off ch=1 n=g5 v=64
41694 Off ch=1 n=a#4 v=64
41760 On ch=1 n=e5 v=64
41760 On ch=1 n=g4 v=64
41814 Off ch=1 n=g4 v=64
41814 Off ch=1 n=e5 v=64
41880 On ch=1 n=e5 v=64
41880 On ch=1 n=g4 v=64
41934 Off ch=1 n=g4 v=64
41934 Off ch=1 n=e5 v=64
42000 On ch=1 n=g5 v=64
42000 On ch=1 n=c6 v=64
42054 Off ch=1 n=c6 v=64
42054 Off ch=1 n=g5 v=64
42120 On ch=1 n=g5 v=64
42120 On ch=1 n=c6 v=64
42174 Off ch=1 n=c6 v=64
42174 Off ch=1 n=g5 v=64
42240 On ch=1 n=e5 v=64
42240 On ch=1 n=a#5 v=64
42294 Off ch=1 n=a#5 v=64
42294 Off ch=1 n=e5 v=64
42360 On ch=1 n=e5 v=64
42360 On ch=1 n=a#5 v=64
42414 Off ch=1 n=a#5 v=64
42414 Off ch=1 n=e5 v=64
42480 On ch=1 n=a5 v=64
42480 On ch=1 n=f5 v=64
42672 Off ch=1 n=f5 v=64
42672 Off ch=1 n=a5 v=64
42720 On ch=1 n=a5 v=64
42720 On ch=1 n=c6 v=64
42816 Off ch=1 n=c6 v=64
42816 Off ch=1 n=a5 v=64
42840 On ch=1 n=a#5 v=64
42840 On ch=1 n=g5 v=64
42894 Off ch=1 n=g5 v=64
42894 Off ch=1 n=a#5 v=64
42960 On ch=1 n=f5 v=64
42960 On ch=1 n=a5 v=64
43056 Off ch=1 n=a5 v=64
43056 Off ch=1 n=f5 v=64
43080 On ch=1 n=g5 v=64
43080 On ch=1 n=e5 v=64
43134 Off ch=1 n=e5 v=64
43134 Off ch=1 n=g5 v=64
43200 On ch=1 n=f5 v=64
43584 Off ch=1 n=f5 v=64
43680 On ch=1 n=c5 v=64
43872 Off ch=1 n=c5 v=64
43920 On ch=1 n=g5 v=64
43944 Off ch=1 n=g5 v=64
43950 On ch=1 n=f5 v=64
43974 Off ch=1 n=f5 v=64
43980 On ch=1 n=g5 v=64
44004 Off ch=1 n=g5 v=64
44010 On ch=1 n=f5 v=64
44034 Off ch=1 n=f5 v=64
44040 On ch=1 n=g5 v=64
44064 Off ch=1 n=g5 v=64
44070 On ch=1 n=f5 v=64
44094 Off ch=1 n=f5 v=64
44100 On ch=1 n=g5 v=64
44124 Off ch=1 n=g5 v=64
44130 On ch=1 n=f5 v=64
44154 Off ch=1 n=f5 v=64
44160 On ch=1 n=g5 v=64
44208 Off ch=1 n=g5 v=64
44220 On ch=1 n=f5 v=64
44268 Off ch=1 n=f5 v=64
44280 On ch=1 n=e5 v=64
44376 Off ch=1 n=e5 v=64
44400 On ch=1 n=f5 v=64
44508 Off ch=1 n=f5 v=64
44640 On ch=1 n=a5 v=64
44664 Off ch=1 n=a5 v=64
44670 On ch=1 n=g5 v=64
44694 Off ch=1 n=g5 v=64
44700 On ch=1 n=a5 v=64
44724 Off ch=1 n=a5 v=64
44730 On ch=1 n=g5 v=64
44754 Off ch=1 n=g5 v=64
44760 On ch=1 n=a5 v=64
44784 Off ch=1 n=a5 v=64
44790 On ch=1 n=g5 v=64
44814 Off ch=1 n=g5 v=64
44820 On ch=1 n=a5 v=64
44844 Off ch=1 n=a5 v=64
44850 On ch=1 n=g5 v=64
44874 Off ch=1 n=g5 v=64
44880 On ch=1 n=a5 v=64
44928 Off ch=1 n=a5 v=64
44940 On ch=1 n=g5 v=64
44988 Off ch=1 n=g5 v=64
45000 On ch=1 n=f5 v=64
45096 Off ch=1 n=f5 v=64
45120 On ch=1 n=g5 v=64
45228 Off ch=1 n=g5 v=64
45360 On ch=1 n=a#5 v=64
45384 Off ch=1 n=a#5 v=64
45390 On ch=1 n=g#5 v=64
45414 Off ch=1 n=g#5 v=64
45420 On ch=1 n=a#5 v=64
45444 Off ch=1 n=a#5 v=64
45450 On ch=1 n=g#5 v=64
45474 Off ch=1 n=g#5 v=64
45480 On ch=1 n=a#5 v=64
45504 Off ch=1 n=a#5 v=64
45510 On ch=1 n=g#5 v=64
45534 Off ch=1 n=g#5 v=64
45540 On ch=1 n=a#5 v=64
45564 Off ch=1 n=a#5 v=64
45570 On ch=1 n=g#5 v=64
45594 Off ch=1 n=g#5 v=64
45600 On ch=1 n=a#5 v=64
45648 Off ch=1 n=a#5 v=64
45660 On ch=1 n=g#5 v=64
45708 Off ch=1 n=g#5 v=64
45720 On ch=1 n=g5 v=64
45816 Off ch=1 n=g5 v=64
45840 On ch=1 n=f5 v=64
45948 Off ch=1 n=f5 v=64
46080 On ch=1 n=e5 v=64
46464 Off ch=1 n=e5 v=64
46560 On ch=1 n=c6 v=64
46560 On ch=1 n=f6 v=64
46614 Off ch=1 n=f6 v=64
46614 Off ch=1 n=c6 v=64
46680 On ch=1 n=c6 v=64
46680 On ch=1 n=f6 v=64
46734 Off ch=1 n=f6 v=64
46734 Off ch=1 n=c6 v=64
46800 On ch=1 n=f5 v=64
46800 On ch=1 n=d6 v=64
46854 Off ch=1 n=d6 v=64
46854 Off ch=1 n=f5 v=64
46920 On ch=1 n=d6 v=64
46920 On ch=1 n=f5 v=64
46974 Off ch=1 n=f5 v=64
46974 Off ch=1 n=d6 v=64
47040 On ch=1 n=a#5 v=64
47040 On ch=1 n=d5 v=64
47094 Off ch=1 n=d5 v=64
47094 Off ch=1 n=a#5 v=64
47160 On ch=1 n=a#5 v=64
47160 On ch=1 n=d5 v=64
47214 Off ch=1 n=d5 v=64
47214 Off ch=1 n=a#5 v=64
47280 On ch=1 n=a#4 v=64
47280 On ch=1 n=g5 v=64
47334 Off ch=1 n=g5 v=64
47334 Off ch=1 n=a#4 v=64
47400 On ch=1 n=a#4 v=64
47400 On ch=1 n=g5 v=64
47454 Off ch=1 n=g5 v=64
47454 Off ch=1 n=a#4 v=64
47520 On ch=1 n=g4 v=64
47520 On ch=1 n=e5 v=64
47574 Off ch=1 n=e5 v=64
47574 Off ch=1 n=g4 v=64
47640 On ch=1 n=g4 v=64
47640 On ch=1 n=e5 v=64
47694 Off ch=1 n=e5 v=64
47694 Off ch=1 n=g4 v=64
47760 On ch=1 n=g5 v=64
47760 On ch=1 n=c6 v=64
47814 Off ch=1 n=c6 v=64
47814 Off ch=1 n=g5 v=64
47880 On ch=1 n=c6 v=64
47880 On ch=1 n=g5 v=64
47934 Off ch=1 n=g5 v=64
47934 Off ch=1 n=c6 v=64
48000 On ch=1 n=a#5 v=64
48000 On ch=1 n=e5 v=64
48054 Off ch=1 n=e5 v=64
48054 Off ch=1 n=a#5 v=64
48120 On ch=1 n=a#5 v=64
48120 On ch=1 n=e5 v=64
48174 Off ch=1 n=e5 v=64
48174 Off ch=1 n=a#5 v=64
48240 On ch=1 n=f5 v=64
48240 On ch=1 n=a5 v=64
48432 Off ch=1 n=a5 v=64
48432 Off ch=1 n=f5 v=64
48480 On ch=1 n=c6 v=64
48480 On ch=1 n=a5 v=64
48576 Off ch=1 n=a5 v=64
48576 Off ch=1 n=c6 v=64
48600 On ch=1 n=g5 v=64
48600 On ch=1 n=a#5 v=64
48654 Off ch=1 n=a#5 v=64
48654 Off ch=1 n=g5 v=64
48720 On ch=1 n=a5 v=64
48720 On ch=1 n=f5 v=64
48816 Off ch=1 n=f5 v=64
48816 Off ch=1 n=a5 v=64
48840 On ch=1 n=e5 v=64
48840 On ch=1 n=g5 v=64
48894 Off ch=1 n=g5 v=64
48894 Off ch=1 n=e5 v=64
48960 On ch=1 n=f5 v=64
49344 Off ch=1 n=f5 v=64
49440 On ch=1 n=c5 v=64
49548 Off ch=1 n=c5 v=64
49680 On ch=1 n=g5 v=64
49704 Off ch=1 n=g5 v=64
49710 On ch=1 n=f5 v=64
49734 Off ch=1 n=f5 v=64
49740 On ch=1 n=g5 v=64
49764 Off ch=1 n=g5 v=64
49770 On ch=1 n=f5 v=64
49794 Off ch=1 n=f5 v=64
49800 On ch=1 n=g5 v=64
49824 Off ch=1 n=g5 v=64
49830 On ch=1 n=f5 v=64
49854 Off ch=1 n=f5 v=64
49860 On ch=1 n=g5 v=64
49884 Off ch=1 n=g5 v=64
49890 On ch=1 n=f5 v=64
49914 Off ch=1 n=f5 v=64
49920 On ch=1 n=g5 v=64
49968 Off ch=1 n=g5 v=64
49980 On ch=1 n=f5 v=64
50028 Off ch=1 n=f5 v=64
50040 On ch=1 n=e5 v=64
50136 Off ch=1 n=e5 v=64
50160 On ch=1 n=f5 v=64
50268 Off ch=1 n=f5 v=64
50400 On ch=1 n=a5 v=64
50424 Off ch=1 n=a5 v=64
50430 On ch=1 n=g5 v=64
50454 Off ch=1 n=g5 v=64
50460 On ch=1 n=a5 v=64
50484 Off ch=1 n=a5 v=64
50490 On ch=1 n=g5 v=64
50514 Off ch=1 n=g5 v=64
50520 On ch=1 n=a5 v=64
50544 Off ch=1 n=a5 v=64
50550 On ch=1 n=g5 v=64
50574 Off ch=1 n=g5 v=64
50580 On ch=1 n=a5 v=64
50604 Off ch=1 n=a5 v=64
50610 On ch=1 n=g5 v=64
50634 Off ch=1 n=g5 v=64
50640 On ch=1 n=a5 v=64
50688 Off ch=1 n=a5 v=64
50700 On ch=1 n=g5 v=64
50748 Off ch=1 n=g5 v=64
50760 On ch=1 n=f5 v=64
50856 Off ch=1 n=f5 v=64
50880 On ch=1 n=g5 v=64
50988 Off ch=1 n=g5 v=64
51120 On ch=1 n=a#5 v=64
51144 Off ch=1 n=a#5 v=64
51150 On ch=1 n=g#5 v=64
51174 Off ch=1 n=g#5 v=64
51180 On ch=1 n=a#5 v=64
51204 Off ch=1 n=a#5 v=64
51210 On ch=1 n=g#5 v=64
51234 Off ch=1 n=g#5 v=64
51240 On ch=1 n=a#5 v=64
51264 Off ch=1 n=a#5 v=64
51270 On ch=1 n=g#5 v=64
51294 Off ch=1 n=g#5 v=64
51300 On ch=1 n=a#5 v=64
51324 Off ch=1 n=a#5 v=64
51330 On ch=1 n=g#5 v=64
51354 Off ch=1 n=g#5 v=64
51360 On ch=1 n=a#5 v=64
51408 Off ch=1 n=a#5 v=64
51420 On ch=1 n=g#5 v=64
51468 Off ch=1 n=g#5 v=64
51480 On ch=1 n=g5 v=64
51576 Off ch=1 n=g5 v=64
51600 On ch=1 n=f5 v=64
51708 Off ch=1 n=f5 v=64
51840 On ch=1 n=e5 v=64
52224 Off ch=1 n=e5 v=64
52320 On ch=1 n=f6 v=64
52320 On ch=1 n=c6 v=64
52374 Off ch=1 n=c6 v=64
52374 Off ch=1 n=f6 v=64
52440 On ch=1 n=f6 v=64
52440 On ch=1 n=c6 v=64
52494 Off ch=1 n=c6 v=64
52494 Off ch=1 n=f6 v=64
52560 On ch=1 n=d6 v=64
52560 On ch=1 n=f5 v=64
52614 Off ch=1 n=f5 v=64
52614 Off ch=1 n=d6 v=64
52680 On ch=1 n=f5 v=64
52680 On ch=1 n=d6 v=64
52734 Off ch=1 n=d6 v=64
52734 Off ch=1 n=f5 v=64
52800 On ch=1 n=d5 v=64
52800 On ch=1 n=a#5 v=64
52854 Off ch=1 n=a#5 v=64
52854 Off ch=1 n=d5 v=64
52920 On ch=1 n=d5 v=64
52920 On ch=1 n=a#5 v=64
52974 Off ch=1 n=a#5 v=64
52974 Off ch=1 n=d5 v=64
53040 On ch=1 n=g5 v=64
53040 On ch=1 n=a#4 v=64
53094 Off ch=1 n=a#4 v=64
53094 Off ch=1 n=g5 v=64
53160 On ch=1 n=g5 v=64
53160 On ch=1 n=a#4 v=64
53214 Off ch=1 n=a#4 v=64
53214 Off ch=1 n=g5 v=64
53280 On ch=1 n=e5 v=64
53280 On ch=1 n=g4 v=64
53334 Off ch=1 n=g4 v=64
53334 Off ch=1 n=e5 v=64
53400 On ch=1 n=e5 v=64
53400 On ch=1 n=g4 v=64
53454 Off ch=1 n=g4 v=64
53454 Off ch=1 n=e5 v=64
53520 On ch=1 n=c6 v=64
53520 On ch=1 n=g5 v=64
53574 Off ch=1 n=g5 v=64
53574 Off ch=1 n=c6 v=64
53640 On ch=1 n=g5 v=64
53640 On ch=1 n=c6 v=64
53694 Off ch=1 n=c6 v=64
53694 Off ch=1 n=g5 v=64
53760 On ch=1 n=e5 v=64
53760 On ch=1 n=a#5 v=64
53814 Off ch=1 n=a#5 v=64
53814 Off ch=1 n=e5 v=64
53880 On ch=1 n=e5 v=64
53880 On ch=1 n=a#5 v=64
53934 Off ch=1 n=a#5 v=64
53934 Off ch=1 n=e5 v=64
54000 On ch=1 n=a5 v=64
54000 On ch=1 n=f5 v=64
54192 Off ch=1 n=f5 v=64
54192 Off ch=1 n=a5 v=64
54240 On ch=1 n=a5 v=64
54240 On ch=1 n=c6 v=64
54336 Off ch=1 n=c6 v=64
54336 Off ch=1 n=a5 v=64
54360 On ch=1 n=a#5 v=64
54360 On ch=1 n=g5 v=64
54414 Off ch=1 n=g5 v=64
54414 Off ch=1 n=a#5 v=64
54480 On ch=1 n=f5 v=64
54480 On ch=1 n=a5 v=64
54576 Off ch=1 n=a5 v=64
54576 Off ch=1 n=f5 v=64
54600 On ch=1 n=g5 v=64
54600 On ch=1 n=e5 v=64
54654 Off ch=1 n=e5 v=64
54654 Off ch=1 n=g5 v=64
54720 On ch=1 n=f5 v=64
55104 Off ch=1 n=f5 v=64
55200 On ch=1 n=c6 v=64
55308 Off ch=1 n=c6 v=64
55440 On ch=1 n=c6 v=64
55440 On ch=1 n=f6 v=64
55440 On ch=1 n=a5 v=64
55824 Off ch=1 n=a5 v=64
55824 Off ch=1 n=f6 v=64
55824 Off ch=1 n=c6 v=64
55920 On ch=1 n=a6 v=64
56028 Off ch=1 n=a6 v=64
56160 On ch=1 n=c7 v=64
56352 Off ch=1 n=c7 v=64
56400 On ch=1 n=c7 v=64
56508 Off ch=1 n=c7 v=64
56640 On ch=1 n=c7 v=64
56748 Off ch=1 n=c7 v=64
56880 On ch=1 n=g6 v=64
57264 Off ch=1 n=g6 v=64
57360 On ch=1 n=a#6 v=64
57468 Off ch=1 n=a#6 v=64
57600 On ch=1 n=a6 v=64
57792 Off ch=1 n=a6 v=64
58080 On ch=1 n=c6 v=64
58188 Off ch=1 n=c6 v=64
58320 On ch=1 n=g5 v=64
58704 Off ch=1 n=g5 v=64
58800 On ch=1 n=a#5 v=64
58908 Off ch=1 n=a#5 v=64
59040 On ch=1 n=a5 v=64
59232 Off ch=1 n=a5 v=64
59520 On ch=1 n=a6 v=64
59568 Off ch=1 n=a6 v=64
59580 On ch=1 n=g6 v=64
59628 Off ch=1 n=g6 v=64
59640 On ch=1 n=f6 v=64
59688 Off ch=1 n=f6 v=64
59700 On ch=1 n=e6 v=64
59748 Off ch=1 n=e6 v=64
59760 On ch=1 n=d6 v=64
59952 Off ch=1 n=d6 v=64
60000 On ch=1 n=d6 v=64
60108 Off ch=1 n=d6 v=64
60240 On ch=1 n=g6 v=64
60288 Off ch=1 n=g6 v=64
60300 On ch=1 n=f6 v=64
60348 Off ch=1 n=f6 v=64
60360 On ch=1 n=e6 v=64
60408 Off ch=1 n=e6 v=64
60420 On ch=1 n=d6 v=64
60468 Off ch=1 n=d6 v=64
60480 On ch=1 n=c6 v=64
60672 Off ch=1 n=c6 v=64
60720 On ch=1 n=c6 v=64
60828 Off ch=1 n=c6 v=64
60960 On ch=1 n=a5 v=64
61008 Off ch=1 n=a5 v=64
61020 On ch=1 n=g5 v=64
61068 Off ch=1 n=g5 v=64
61080 On ch=1 n=f5 v=64
61128 Off ch=1 n=f5 v=64
61140 On ch=1 n=e5 v=64
61188 Off ch=1 n=e5 v=64
61200 On ch=1 n=b4 v=64
61200 On ch=1 n=d5 v=64
61392 Off ch=1 n=d5 v=64
61392 Off ch=1 n=b4 v=64
61440 On ch=1 n=d5 v=64
61440 On ch=1 n=b4 v=64
61548 Off ch=1 n=b4 v=64
61548 Off ch=1 n=d5 v=64
61680 On ch=1 n=g5 v=64
61728 Off ch=1 n=g5 v=64
61740 On ch=1 n=f5 v=64
61788 Off ch=1 n=f5 v=64
61800 On ch=1 n=e5 v=64
61848 Off ch=1 n=e5 v=64
61860 On ch=1 n=d5 v=64
61908 Off ch=1 n=d5 v=64
61920 On ch=1 n=c5 v=64
62136 Off ch=1 n=c5 v=64
62400 On ch=1 n=c6 v=64
62508 Off ch=1 n=c6 v=64
62640 On ch=1 n=d6 v=64
62640 On ch=1 n=d5 v=64
62748 Off ch=1 n=d5 v=64
62748 Off ch=1 n=d6 v=64
62880 On ch=1 n=g5 v=64
62880 On ch=1 n=g6 v=64
62976 Off ch=1 n=g6 v=64
62976 Off ch=1 n=g5 v=64
63000 On ch=1 n=f6 v=64
63000 On ch=1 n=f5 v=64
63096 Off ch=1 n=f5 v=64
63096 Off ch=1 n=f6 v=64
63120 On ch=1 n=e5 v=64
63120 On ch=1 n=e6 v=64
63228 Off ch=1 n=e6 v=64
63228 Off ch=1 n=e5 v=64
63360 On ch=1 n=f6 v=64
63360 On ch=1 n=f5 v=64
63468 Off ch=1 n=f5 v=64
63468 Off ch=1 n=f6 v=64
63600 On ch=1 n=a#5 v=64
63600 On ch=1 n=a#6 v=64
63696 Off ch=1 n=a#6 v=64
63696 Off ch=1 n=a#5 v=64
63720 On ch=1 n=a5 v=64
63720 On ch=1 n=a6 v=64
63816 Off ch=1 n=a6 v=64
63816 Off ch=1 n=a5 v=64
63840 On ch=1 n=g6 v=64
63840 On ch=1 n=g5 v=64
63948 Off ch=1 n=g5 v=64
63948 Off ch=1 n=g6 v=64
64080 On ch=1 n=a6 v=64
64080 On ch=1 n=a5 v=64
64188 Off ch=1 n=a5 v=64
64188 Off ch=1 n=a6 v=64
64320 On ch=1 n=d6 v=64
64320 On ch=1 n=d7 v=64
64416 Off ch=1 n=d7 v=64
64416 Off ch=1 n=d6 v=64
64440 On ch=1 n=c6 v=64
64440 On ch=1 n=c7 v=64
64536 Off ch=1 n=c7 v=64
64536 Off ch=1 n=c6 v=64
64560 On ch=1 n=b6 v=64
64560 On ch=1 n=b5 v=64
64752 Off ch=1 n=b5 v=64
64752 Off ch=1 n=b6 v=64
64800 On ch=1 n=c7 v=64
64800 On ch=1 n=c6 v=64
65016 Off ch=1 n=c6 v=64
65016 Off ch=1 n=c7 v=64
65280 On ch=1 n=d6 v=64
65328 Off ch=1 n=d6 v=64
65340 On ch=1 n=c6 v=64
65388 Off ch=1 n=c6 v=64
65400 On ch=1 n=a#5 v=64
65448 Off ch=1 n=a#5 v=64
65460 On ch=1 n=a5 v=64
65508 Off ch=1 n=a5 v=64
65520 On ch=1 n=g5 v=64
65712 Off ch=1 n=g5 v=64
65760 On ch=1 n=g5 v=64
65868 Off ch=1 n=g5 v=64
66000 On ch=1 n=c6 v=64
66048 Off ch=1 n=c6 v=64
66060 On ch=1 n=a#5 v=64
66108 Off ch=1 n=a#5 v=64
66120 On ch=1 n=a5 v=64
66168 Off ch=1 n=a5 v=64
66180 On ch=1 n=g5 v=64
66228 Off ch=1 n=g5 v=64
66240 On ch=1 n=f5 v=64
66432 Off ch=1 n=f5 v=64
66480 On ch=1 n=f5 v=64
66588 Off ch=1 n=f5 v=64
66720 On ch=1 n=d6 v=64
66768 Off ch=1 n=d6 v=64
66780 On ch=1 n=c6 v=64
66828 Off ch=1 n=c6 v=64
66840 On ch=1 n=a#5 v=64
66888 Off ch=1 n=a#5 v=64
66900 On ch=1 n=a5 v=64
66948 Off ch=1 n=a5 v=64
66960 On ch=1 n=g5 v=64
67152 Off ch=1 n=g5 v=64
67200 On ch=1 n=g5 v=64
67308 Off ch=1 n=g5 v=64
67440 On ch=1 n=c6 v=64
67488 Off ch=1 n=c6 v=64
67500 On ch=1 n=a#5 v=64
67548 Off ch=1 n=a#5 v=64
67560 On ch=1 n=a5 v=64
67608 Off ch=1 n=a5 v=64
67620 On ch=1 n=g5 v=64
67668 Off ch=1 n=g5 v=64
67680 On ch=1 n=f5 v=64
68064 Off ch=1 n=f5 v=64
68160 On ch=1 n=c6 v=64
68268 Off ch=1 n=c6 v=64
68400 On ch=1 n=a5 v=64
68400 On ch=1 n=f6 v=64
68400 On ch=1 n=c6 v=64
68784 Off ch=1 n=c6 v=64
68784 Off ch=1 n=f6 v=64
68784 Off ch=1 n=a5 v=64
68880 On ch=1 n=a6 v=64
68988 Off ch=1 n=a6 v=64
69120 On ch=1 n=c7 v=64
69312 Off ch=1 n=c7 v=64
69360 On ch=1 n=c7 v=64
69468 Off ch=1 n=c7 v=64
69600 On ch=1 n=c7 v=64
69708 Off ch=1 n=c7 v=64
69840 On ch=1 n=a#6 v=64
69936 Off ch=1 n=a#6 v=64
69960 On ch=1 n=c7 v=64
70014 Off ch=1 n=c7 v=64
70080 On ch=1 n=d7 v=64
70176 Off ch=1 n=d7 v=64
70200 On ch=1 n=a#6 v=64
70254 Off ch=1 n=a#6 v=64
70320 On ch=1 n=g6 v=64
70320 On ch=1 n=a#5 v=64
70416 Off ch=1 n=g6 v=64
70428 Off ch=1 n=a#5 v=64
70440 On ch=1 n=e6 v=64
70494 Off ch=1 n=e6 v=64
70560 On ch=1 n=f6 v=64
70560 On ch=1 n=a5 v=64
70776 Off ch=1 n=a5 v=64
70776 Off ch=1 n=f6 v=64
70776 Meta TrkEnd
TrkEnd
MTrk
720 On ch=1 n=f4 v=64
828 Off ch=1 n=f4 v=64
840 On ch=1 n=a4 v=64
948 Off ch=1 n=a4 v=64
960 On ch=1 n=c5 v=64
1068 Off ch=1 n=c5 v=64
1080 On ch=1 n=a4 v=64
1188 Off ch=1 n=a4 v=64
1200 On ch=1 n=c5 v=64
1308 Off ch=1 n=c5 v=64
1320 On ch=1 n=a4 v=64
1428 Off ch=1 n=a4 v=64
1440 On ch=1 n=f4 v=64
1548 Off ch=1 n=f4 v=64
1560 On ch=1 n=a4 v=64
1668 Off ch=1 n=a4 v=64
1680 On ch=1 n=c5 v=64
1788 Off ch=1 n=c5 v=64
1800 On ch=1 n=a4 v=64
1908 Off ch=1 n=a4 v=64
1920 On ch=1 n=g4 v=64
2028 Off ch=1 n=g4 v=64
2040 On ch=1 n=f4 v=64
2148 Off ch=1 n=f4 v=64
2160 On ch=1 n=e4 v=64
2268 Off ch=1 n=e4 v=64
2280 On ch=1 n=g4 v=64
2388 Off ch=1 n=g4 v=64
2400 On ch=1 n=c5 v=64
2508 Off ch=1 n=c5 v=64
2520 On ch=1 n=g4 v=64
2628 Off ch=1 n=g4 v=64
2640 On ch=1 n=e4 v=64
2748 Off ch=1 n=e4 v=64
2760 On ch=1 n=c4 v=64
2868 Off ch=1 n=c4 v=64
2880 On ch=1 n=f4 v=64
2988 Off ch=1 n=f4 v=64
3000 On ch=1 n=a4 v=64
3108 Off ch=1 n=a4 v=64
3120 On ch=1 n=c5 v=64
3228 Off ch=1 n=c5 v=64
3240 On ch=1 n=a4 v=64
3348 Off ch=1 n=a4 v=64
3360 On ch=1 n=f4 v=64
3468 Off ch=1 n=f4 v=64
3480 On ch=1 n=c4 v=64
3588 Off ch=1 n=c4 v=64
3600 On ch=1 n=e4 v=64
3708 Off ch=1 n=e4 v=64
3720 On ch=1 n=g4 v=64
3828 Off ch=1 n=g4 v=64
3840 On ch=1 n=c5 v=64
3948 Off ch=1 n=c5 v=64
3960 On ch=1 n=g4 v=64
4068 Off ch=1 n=g4 v=64
4080 On ch=1 n=e4 v=64
4188 Off ch=1 n=e4 v=64
4200 On ch=1 n=c4 v=64
4308 Off ch=1 n=c4 v=64
4320 On ch=1 n=f4 v=64
4512 Off ch=1 n=f4 v=64
4560 On ch=1 n=f3 v=64
4668 Off ch=1 n=f3 v=64
5040 On ch=1 n=f5 v=64
5040 On ch=1 n=g4 v=64
5040 On ch=1 n=b4 v=64
5232 Off ch=1 n=b4 v=64
5232 Off ch=1 n=g4 v=64
5232 Off ch=1 n=f5 v=64
5280 On ch=1 n=b4 v=64
5280 On ch=1 n=f5 v=64
5280 On ch=1 n=g4 v=64
5388 Off ch=1 n=g4 v=64
5388 Off ch=1 n=f5 v=64
5388 Off ch=1 n=b4 v=64
5760 On ch=1 n=e5 v=64
5760 On ch=1 n=c5 v=64
5952 Off ch=1 n=c5 v=64
5952 Off ch=1 n=e5 v=64
6000 On ch=1 n=c5 v=64
6000 On ch=1 n=e5 v=64
6108 Off ch=1 n=e5 v=64
6108 Off ch=1 n=c5 v=64
6480 On ch=1 n=b3 v=64
6480 On ch=1 n=f4 v=64
6480 On ch=1 n=g3 v=64
6672 Off ch=1 n=g3 v=64
6672 Off ch=1 n=f4 v=64
6672 Off ch=1 n=b3 v=64
6720 On ch=1 n=f4 v=64
6720 On ch=1 n=b3 v=64
6720 On ch=1 n=g3 v=64
6828 Off ch=1 n=g3 v=64
6828 Off ch=1 n=b3 v=64
6828 Off ch=1 n=f4 v=64
6960 On ch=1 n=f4 v=64
6960 On ch=1 n=b3 v=64
6960 On ch=1 n=g3 v=64
7068 Off ch=1 n=g3 v=64
7068 Off ch=1 n=b3 v=64
7068 Off ch=1 n=f4 v=64
7200 On ch=1 n=e4 v=64
7200 On ch=1 n=c4 v=64
7416 Off ch=1 n=c4 v=64
7416 Off ch=1 n=e4 v=64
7920 On ch=1 n=f4 v=64
8028 Off ch=1 n=f4 v=64
8040 On ch=1 n=a4 v=64
8148 Off ch=1 n=a4 v=64
8160 On ch=1 n=c5 v=64
8268 Off ch=1 n=c5 v=64
8280 On ch=1 n=a4 v=64
8388 Off ch=1 n=a4 v=64
8400 On ch=1 n=c5 v=64
8508 Off ch=1 n=c5 v=64
8520 On ch=1 n=a4 v=64
8628 Off ch=1 n=a4 v=64
8640 On ch=1 n=f4 v=64
8748 Off ch=1 n=f4 v=64
8760 On ch=1 n=a4 v=64
8868 Off ch=1 n=a4 v=64
8880 On ch=1 n=c5 v=64
8988 Off ch=1 n=c5 v=64
9000 On ch=1 n=a4 v=64
9108 Off ch=1 n=a4 v=64
9120 On ch=1 n=g4 v=64
9228 Off ch=1 n=g4 v=64
9240 On ch=1 n=f4 v=64
9348 Off ch=1 n=f4 v=64
9360 On ch=1 n=e4 v=64
9468 Off ch=1 n=e4 v=64
9480 On ch=1 n=g4 v=64
9588 Off ch=1 n=g4 v=64
9600 On ch=1 n=c5 v=64
9708 Off ch=1 n=c5 v=64
9720 On ch=1 n=g4 v=64
9828 Off ch=1 n=g4 v=64
9840 On ch=1 n=e4 v=64
9948 Off ch=1 n=e4 v=64
9960 On ch=1 n=c4 v=64
10068 Off ch=1 n=c4 v=64
10080 On ch=1 n=f4 v=64
10188 Off ch=1 n=f4 v=64
10200 On ch=1 n=a4 v=64
10308 Off ch=1 n=a4 v=64
10320 On ch=1 n=c5 v=64
10428 Off ch=1 n=c5 v=64
10440 On ch=1 n=a4 v=64
10548 Off ch=1 n=a4 v=64
10560 On ch=1 n=f4 v=64
10668 Off ch=1 n=f4 v=64
10680 On ch=1 n=c4 v=64
10788 Off ch=1 n=c4 v=64
10800 On ch=1 n=e4 v=64
10908 Off ch=1 n=e4 v=64
10920 On ch=1 n=g4 v=64
11028 Off ch=1 n=g4 v=64
11040 On ch=1 n=c5 v=64
11148 Off ch=1 n=c5 v=64
11160 On ch=1 n=g4 v=64
11268 Off ch=1 n=g4 v=64
11280 On ch=1 n=e4 v=64
11388 Off ch=1 n=e4 v=64
11400 On ch=1 n=c4 v=64
11508 Off ch=1 n=c4 v=64
11520 On ch=1 n=f4 v=64
11712 Off ch=1 n=f4 v=64
11760 On ch=1 n=f3 v=64
11868 Off ch=1 n=f3 v=64
12240 On ch=1 n=b4 v=64
12240 On ch=1 n=g4 v=64
12240 On ch=1 n=f5 v=64
12432 Off ch=1 n=f5 v=64
12432 Off ch=1 n=g4 v=64
12432 Off ch=1 n=b4 v=64
12480 On ch=1 n=g4 v=64
12480 On ch=1 n=f5 v=64
12480 On ch=1 n=b4 v=64
12588 Off ch=1 n=b4 v=64
12588 Off ch=1 n=f5 v=64
12588 Off ch=1 n=g4 v=64
12960 On ch=1 n=c5 v=64
12960 On ch=1 n=e5 v=64
13152 Off ch=1 n=e5 v=64
13152 Off ch=1 n=c5 v=64
13200 On ch=1 n=e5 v=64
13200 On ch=1 n=c5 v=64
13308 Off ch=1 n=c5 v=64
13308 Off ch=1 n=e5 v=64
13680 On ch=1 n=g3 v=64
13680 On ch=1 n=f4 v=64
13680 On ch=1 n=b3 v=64
13872 Off ch=1 n=b3 v=64
13872 Off ch=1 n=f4 v=64
13872 Off ch=1 n=g3 v=64
13920 On ch=1 n=g3 v=64
13920 On ch=1 n=b3 v=64
13920 On ch=1 n=f4 v=64
14028 Off ch=1 n=f4 v=64
14028 Off ch=1 n=b3 v=64
14028 Off ch=1 n=g3 v=64
14160 On ch=1 n=g3 v=64
14160 On ch=1 n=b3 v=64
14160 On ch=1 n=f4 v=64
14268 Off ch=1 n=f4 v=64
14268 Off ch=1 n=b3 v=64
14268 Off ch=1 n=g3 v=64
14400 On ch=1 n=c4 v=64
14400 On ch=1 n=e4 v=64
14616 Off ch=1 n=e4 v=64
14616 Off ch=1 n=c4 v=64
14880 On ch=1 n=c4 v=64
14880 On ch=1 n=c5 v=64
15072 Off ch=1 n=c5 v=64
15072 Off ch=1 n=c4 v=64
15120 On ch=1 n=b3 v=64
15120 On ch=1 n=b4 v=64
15504 Off ch=1 n=b4 v=64
15504 Off ch=1 n=b3 v=64
15600 On ch=1 n=a#4 v=64
15600 On ch=1 n=a#3 v=64
15708 Off ch=1 n=a#3 v=64
15708 Off ch=1 n=a#4 v=64
15840 On ch=1 n=a4 v=64
15840 On ch=1 n=a3 v=64
15948 Off ch=1 n=a3 v=64
15948 Off ch=1 n=a4 v=64
16080 On ch=1 n=g3 v=64
16080 On ch=1 n=g4 v=64
16176 Off ch=1 n=g4 v=64
16176 Off ch=1 n=g3 v=64
16200 On ch=1 n=f3 v=64
16200 On ch=1 n=f4 v=64
16296 Off ch=1 n=f4 v=64
16296 Off ch=1 n=f3 v=64
16320 On ch=1 n=e3 v=64
16320 On ch=1 n=e4 v=64
16428 Off ch=1 n=e4 v=64
16428 Off ch=1 n=e3 v=64
16560 On ch=1 n=f3 v=64
16560 On ch=1 n=f4 v=64
16668 Off ch=1 n=f4 v=64
16668 Off ch=1 n=f3 v=64
16800 On ch=1 n=d4 v=64
16800 On ch=1 n=d3 v=64
16908 Off ch=1 n=d3 v=64
16908 Off ch=1 n=d4 v=64
17040 On ch=1 n=g4 v=64
17040 On ch=1 n=g3 v=64
17148 Off ch=1 n=g3 v=64
17148 Off ch=1 n=g4 v=64
17280 On ch=1 n=e4 v=64
17280 On ch=1 n=e3 v=64
17472 Off ch=1 n=e3 v=64
17472 Off ch=1 n=e4 v=64
17520 On ch=1 n=c4 v=64
17520 On ch=1 n=c3 v=64
17628 Off ch=1 n=c3 v=64
17628 Off ch=1 n=c4 v=64
18000 On ch=1 n=a#4 v=64
18192 Off ch=1 n=a#4 v=64
18240 On ch=1 n=a#4 v=64
18348 Off ch=1 n=a#4 v=64
18480 On ch=1 n=a#4 v=64
18588 Off ch=1 n=a#4 v=64
18720 On ch=1 n=a4 v=64
18912 Off ch=1 n=a4 v=64
18960 On ch=1 n=a4 v=64
19068 Off ch=1 n=a4 v=64
19200 On ch=1 n=a4 v=64
19308 Off ch=1 n=a4 v=64
19440 On ch=1 n=a#4 v=64
19632 Off ch=1 n=a#4 v=64
19680 On ch=1 n=a#4 v=64
19788 Off ch=1 n=a#4 v=64
19920 On ch=1 n=a#4 v=64
20028 Off ch=1 n=a#4 v=64
20160 On ch=1 n=f4 v=64
20256 Off ch=1 n=f4 v=64
20280 On ch=1 n=a4 v=64
20376 Off ch=1 n=a4 v=64
20400 On ch=1 n=c5 v=64
20496 Off ch=1 n=c5 v=64
20520 On ch=1 n=a4 v=64
20616 Off ch=1 n=a4 v=64
20640 On ch=1 n=c5 v=64
20736 Off ch=1 n=c5 v=64
20760 On ch=1 n=a4 v=64
20856 Off ch=1 n=a4 v=64
20880 On ch=1 n=f4 v=64
20976 Off ch=1 n=f4 v=64
21000 On ch=1 n=a4 v=64
21096 Off ch=1 n=a4 v=64
21120 On ch=1 n=c5 v=64
21216 Off ch=1 n=c5 v=64
21240 On ch=1 n=a4 v=64
21336 Off ch=1 n=a4 v=64
21360 On ch=1 n=c5 v=64
21456 Off ch=1 n=c5 v=64
21480 On ch=1 n=a4 v=64
21576 Off ch=1 n=a4 v=64
21600 On ch=1 n=f4 v=64
21696 Off ch=1 n=f4 v=64
21720 On ch=1 n=a4 v=64
21816 Off ch=1 n=a4 v=64
21840 On ch=1 n=c5 v=64
21936 Off ch=1 n=c5 v=64
21960 On ch=1 n=f5 v=64
22056 Off ch=1 n=f5 v=64
22080 On ch=1 n=c5 v=64
22176 Off ch=1 n=c5 v=64
22200 On ch=1 n=a4 v=64
22296 Off ch=1 n=a4 v=64
22320 On ch=1 n=g4 v=64
22512 Off ch=1 n=g4 v=64
22560 On ch=1 n=a#4 v=64
22752 Off ch=1 n=a#4 v=64
22800 On ch=1 n=c5 v=64
22992 Off ch=1 n=c5 v=64
23040 On ch=1 n=f4 v=64
23232 Off ch=1 n=f4 v=64
23280 On ch=1 n=f3 v=64
23388 Off ch=1 n=f3 v=64
23520 On ch=1 n=c5 v=64
23520 On ch=1 n=c4 v=64
23628 Off ch=1 n=c4 v=64
23628 Off ch=1 n=c5 v=64
23760 On ch=1 n=b4 v=64
23760 On ch=1 n=b3 v=64
24144 Off ch=1 n=b3 v=64
24144 Off ch=1 n=b4 v=64
24240 On ch=1 n=a#3 v=64
24240 On ch=1 n=a#4 v=64
24348 Off ch=1 n=a#4 v=64
24348 Off ch=1 n=a#3 v=64
24480 On ch=1 n=a3 v=64
24480 On ch=1 n=a4 v=64
24588 Off ch=1 n=a4 v=64
24588 Off ch=1 n=a3 v=64
24720 On ch=1 n=g4 v=64
24720 On ch=1 n=g3 v=64
24816 Off ch=1 n=g3 v=64
24816 Off ch=1 n=g4 v=64
24840 On ch=1 n=f4 v=64
24840 On ch=1 n=f3 v=64
24936 Off ch=1 n=f3 v=64
24936 Off ch=1 n=f4 v=64
24960 On ch=1 n=e4 v=64
24960 On ch=1 n=e3 v=64
25068 Off ch=1 n=e3 v=64
25068 Off ch=1 n=e4 v=64
25200 On ch=1 n=f4 v=64
25200 On ch=1 n=f3 v=64
25308 Off ch=1 n=f3 v=64
25308 Off ch=1 n=f4 v=64
25440 On ch=1 n=d3 v=64
25440 On ch=1 n=d4 v=64
25548 Off ch=1 n=d4 v=64
25548 Off ch=1 n=d3 v=64
25680 On ch=1 n=g3 v=64
25680 On ch=1 n=g4 v=64
25788 Off ch=1 n=g4 v=64
25788 Off ch=1 n=g3 v=64
25920 On ch=1 n=e3 v=64
25920 On ch=1 n=e4 v=64
26112 Off ch=1 n=e4 v=64
26112 Off ch=1 n=e3 v=64
26160 On ch=1 n=c3 v=64
26160 On ch=1 n=c4 v=64
26268 Off ch=1 n=c4 v=64
26268 Off ch=1 n=c3 v=64
26640 On ch=1 n=a#4 v=64
26832 Off ch=1 n=a#4 v=64
26880 On ch=1 n=a#4 v=64
26988 Off ch=1 n=a#4 v=64
27120 On ch=1 n=a#4 v=64
27228 Off ch=1 n=a#4 v=64
27360 On ch=1 n=a4 v=64
27552 Off ch=1 n=a4 v=64
27600 On ch=1 n=a4 v=64
27708 Off ch=1 n=a4 v=64
27840 On ch=1 n=a4 v=64
27948 Off ch=1 n=a4 v=64
28080 On ch=1 n=a#4 v=64
28272 Off ch=1 n=a#4 v=64
28320 On ch=1 n=a#4 v=64
28428 Off ch=1 n=a#4 v=64
28560 On ch=1 n=a#4 v=64
28668 Off ch=1 n=a#4 v=64
28800 On ch=1 n=f4 v=64
28896 Off ch=1 n=f4 v=64
28920 On ch=1 n=a4 v=64
29016 Off ch=1 n=a4 v=64
29040 On ch=1 n=c5 v=64
29136 Off ch=1 n=c5 v=64
29160 On ch=1 n=a4 v=64
29256 Off ch=1 n=a4 v=64
29280 On ch=1 n=c5 v=64
29376 Off ch=1 n=c5 v=64
29400 On ch=1 n=a4 v=64
29496 Off ch=1 n=a4 v=64
29520 On ch=1 n=f4 v=64
29616 Off ch=1 n=f4 v=64
29640 On ch=1 n=a4 v=64
29736 Off ch=1 n=a4 v=64
29760 On ch=1 n=c5 v=64
29856 Off ch=1 n=c5 v=64
29880 On ch=1 n=a4 v=64
29976 Off ch=1 n=a4 v=64
30000 On ch=1 n=c5 v=64
30096 Off ch=1 n=c5 v=64
30120 On ch=1 n=a4 v=64
30216 Off ch=1 n=a4 v=64
30240 On ch=1 n=f4 v=64
30336 Off ch=1 n=f4 v=64
30360 On ch=1 n=a4 v=64
30456 Off ch=1 n=a4 v=64
30480 On ch=1 n=c5 v=64
30576 Off ch=1 n=c5 v=64
30600 On ch=1 n=f5 v=64
30696 Off ch=1 n=f5 v=64
30720 On ch=1 n=c5 v=64
30816 Off ch=1 n=c5 v=64
30840 On ch=1 n=a4 v=64
30936 Off ch=1 n=a4 v=64
30960 On ch=1 n=g4 v=64
31152 Off ch=1 n=g4 v=64
31200 On ch=1 n=a#4 v=64
31392 Off ch=1 n=a#4 v=64
31440 On ch=1 n=c5 v=64
31632 Off ch=1 n=c5 v=64
31680 On ch=1 n=f4 v=64
31872 Off ch=1 n=f4 v=64
31920 On ch=1 n=f3 v=64
32028 Off ch=1 n=f3 v=64
32400 On ch=1 n=a#3 v=64
32592 Off ch=1 n=a#3 v=64
33120 On ch=1 n=c4 v=64
33312 Off ch=1 n=c4 v=64
33600 On ch=1 n=c4 v=64
33600 On ch=1 n=c3 v=64
33708 Off ch=1 n=c3 v=64
33708 Off ch=1 n=c4 v=64
33840 On ch=1 n=f4 v=64
33840 On ch=1 n=f3 v=64
34032 Off ch=1 n=f3 v=64
34032 Off ch=1 n=f4 v=64
34080 On ch=1 n=c5 v=64
34080 On ch=1 n=c4 v=64
34188 Off ch=1 n=c4 v=64
34188 Off ch=1 n=c5 v=64
34320 On ch=1 n=a4 v=64
34320 On ch=1 n=a3 v=64
34428 Off ch=1 n=a3 v=64
34428 Off ch=1 n=a4 v=64
34560 On ch=1 n=f4 v=64
34560 On ch=1 n=f3 v=64
34752 Off ch=1 n=f3 v=64
34752 Off ch=1 n=f4 v=64
34800 On ch=1 n=c4 v=64
34800 On ch=1 n=c3 v=64
34908 Off ch=1 n=c3 v=64
34908 Off ch=1 n=c4 v=64
35040 On ch=1 n=a3 v=64
35040 On ch=1 n=a2 v=64
35148 Off ch=1 n=a2 v=64
35148 Off ch=1 n=a3 v=64
35280 On ch=1 n=a#3 v=64
35280 On ch=1 n=a#2 v=64
35472 Off ch=1 n=a#2 v=64
35472 Off ch=1 n=a#3 v=64
36000 On ch=1 n=c4 v=64
36000 On ch=1 n=c3 v=64
36192 Off ch=1 n=c3 v=64
36192 Off ch=1 n=c4 v=64
36240 On ch=1 n=e4 v=64
36348 Off ch=1 n=e4 v=64
36480 On ch=1 n=c4 v=64
36588 Off ch=1 n=c4 v=64
36720 On ch=1 n=d4 v=64
36912 Off ch=1 n=d4 v=64
36960 On ch=1 n=a#3 v=64
37068 Off ch=1 n=a#3 v=64
37200 On ch=1 n=c4 v=64
37308 Off ch=1 n=c4 v=64
37440 On ch=1 n=f4 v=64
37632 Off ch=1 n=f4 v=64
37680 On ch=1 n=f3 v=64
37788 Off ch=1 n=f3 v=64
38160 On ch=1 n=a#3 v=64
38352 Off ch=1 n=a#3 v=64
38880 On ch=1 n=c4 v=64
39072 Off ch=1 n=c4 v=64
39360 On ch=1 n=c3 v=64
39360 On ch=1 n=c4 v=64
39552 Off ch=1 n=c4 v=64
39552 Off ch=1 n=c3 v=64
39600 On ch=1 n=f3 v=64
39600 On ch=1 n=f4 v=64
39792 Off ch=1 n=f4 v=64
39792 Off ch=1 n=f3 v=64
39840 On ch=1 n=c4 v=64
39840 On ch=1 n=c5 v=64
39948 Off ch=1 n=c5 v=64
39948 Off ch=1 n=c4 v=64
40080 On ch=1 n=a3 v=64
40080 On ch=1 n=a4 v=64
40188 Off ch=1 n=a4 v=64
40188 Off ch=1 n=a3 v=64
40320 On ch=1 n=f3 v=64
40320 On ch=1 n=f4 v=64
40512 Off ch=1 n=f4 v=64
40512 Off ch=1 n=f3 v=64
40560 On ch=1 n=c3 v=64
40560 On ch=1 n=c4 v=64
40668 Off ch=1 n=c4 v=64
40668 Off ch=1 n=c3 v=64
40800 On ch=1 n=a2 v=64
40800 On ch=1 n=a3 v=64
40908 Off ch=1 n=a3 v=64
40908 Off ch=1 n=a2 v=64
41040 On ch=1 n=a#2 v=64
41040 On ch=1 n=a#3 v=64
41232 Off ch=1 n=a#3 v=64
41232 Off ch=1 n=a#2 v=64
41760 On ch=1 n=c3 v=64
41760 On ch=1 n=c4 v=64
41952 Off ch=1 n=c4 v=64
41952 Off ch=1 n=c3 v=64
42000 On ch=1 n=e4 v=64
42108 Off ch=1 n=e4 v=64
42240 On ch=1 n=c4 v=64
42348 Off ch=1 n=c4 v=64
42480 On ch=1 n=d4 v=64
42672 Off ch=1 n=d4 v=64
42720 On ch=1 n=a#3 v=64
42828 Off ch=1 n=a#3 v=64
42960 On ch=1 n=c4 v=64
43068 Off ch=1 n=c4 v=64
43200 On ch=1 n=f4 v=64
43392 Off ch=1 n=f4 v=64
43440 On ch=1 n=f3 v=64
43548 Off ch=1 n=f3 v=64
43920 On ch=1 n=c#4 v=64
44016 Off ch=1 n=c#4 v=64
44040 On ch=1 n=f4 v=64
44136 Off ch=1 n=f4 v=64
44160 On ch=1 n=b4 v=64
44256 Off ch=1 n=b4 v=64
44280 On ch=1 n=f4 v=64
44376 Off ch=1 n=f4 v=64
44400 On ch=1 n=c#4 v=64
44496 Off ch=1 n=c#4 v=64
44520 On ch=1 n=f4 v=64
44616 Off ch=1 n=f4 v=64
44640 On ch=1 n=c4 v=64
44736 Off ch=1 n=c4 v=64
44760 On ch=1 n=e4 v=64
44856 Off ch=1 n=e4 v=64
44880 On ch=1 n=c5 v=64
44976 Off ch=1 n=c5 v=64
45000 On ch=1 n=e4 v=64
45096 Off ch=1 n=e4 v=64
45120 On ch=1 n=c4 v=64
45216 Off ch=1 n=c4 v=64
45240 On ch=1 n=e4 v=64
45336 Off ch=1 n=e4 v=64
45360 On ch=1 n=b3 v=64
45456 Off ch=1 n=b3 v=64
45480 On ch=1 n=d4 v=64
45576 Off ch=1 n=d4 v=64
45600 On ch=1 n=f4 v=64
45696 Off ch=1 n=f4 v=64
45720 On ch=1 n=d4 v=64
45816 Off ch=1 n=d4 v=64
45840 On ch=1 n=b3 v=64
45936 Off ch=1 n=b3 v=64
45960 On ch=1 n=d4 v=64
46056 Off ch=1 n=d4 v=64
46080 On ch=1 n=c5 v=64
46080 On ch=1 n=c4 v=64
46272 Off ch=1 n=c4 v=64
46272 Off ch=1 n=c5 v=64
46320 On ch=1 n=a#4 v=64
46320 On ch=1 n=a#3 v=64
46428 Off ch=1 n=a#3 v=64
46428 Off ch=1 n=a#4 v=64
46560 On ch=1 n=a4 v=64
46560 On ch=1 n=a3 v=64
46668 Off ch=1 n=a3 v=64
46668 Off ch=1 n=a4 v=64
46800 On ch=1 n=a#3 v=64
46800 On ch=1 n=a#4 v=64
46992 Off ch=1 n=a#4 v=64
46992 Off ch=1 n=a#3 v=64
47520 On ch=1 n=c4 v=64
47712 Off ch=1 n=c4 v=64
47760 On ch=1 n=e4 v=64
47868 Off ch=1 n=e4 v=64
48000 On ch=1 n=c4 v=64
48108 Off ch=1 n=c4 v=64
48240 On ch=1 n=d4 v=64
48432 Off ch=1 n=d4 v=64
48480 On ch=1 n=a#3 v=64
48588 Off ch=1 n=a#3 v=64
48720 On ch=1 n=c4 v=64
48828 Off ch=1 n=c4 v=64
48960 On ch=1 n=f3 v=64
49152 Off ch=1 n=f3 v=64
49200 On ch=1 n=f4 v=64
49308 Off ch=1 n=f4 v=64
49680 On ch=1 n=c#4 v=64
49776 Off ch=1 n=c#4 v=64
49800 On ch=1 n=f4 v=64
49896 Off ch=1 n=f4 v=64
49920 On ch=1 n=b4 v=64
50016 Off ch=1 n=b4 v=64
50040 On ch=1 n=f4 v=64
50136 Off ch=1 n=f4 v=64
50160 On ch=1 n=c#4 v=64
50256 Off ch=1 n=c#4 v=64
50280 On ch=1 n=f4 v=64
50376 Off ch=1 n=f4 v=64
50400 On ch=1 n=c4 v=64
50496 Off ch=1 n=c4 v=64
50520 On ch=1 n=e4 v=64
50616 Off ch=1 n=e4 v=64
50640 On ch=1 n=c5 v=64
50736 Off ch=1 n=c5 v=64
50760 On ch=1 n=e4 v=64
50856 Off ch=1 n=e4 v=64
50880 On ch=1 n=c4 v=64
50976 Off ch=1 n=c4 v=64
51000 On ch=1 n=e4 v=64
51096 Off ch=1 n=e4 v=64
51120 On ch=1 n=b3 v=64
51216 Off ch=1 n=b3 v=64
51240 On ch=1 n=d4 v=64
51336 Off ch=1 n=d4 v=64
51360 On ch=1 n=f4 v=64
51456 Off ch=1 n=f4 v=64
51480 On ch=1 n=d4 v=64
51576 Off ch=1 n=d4 v=64
51600 On ch=1 n=b3 v=64
51696 Off ch=1 n=b3 v=64
51720 On ch=1 n=d4 v=64
51816 Off ch=1 n=d4 v=64
51840 On ch=1 n=c4 v=64
51840 On ch=1 n=c5 v=64
52032 Off ch=1 n=c5 v=64
52032 Off ch=1 n=c4 v=64
52080 On ch=1 n=a#3 v=64
52080 On ch=1 n=a#4 v=64
52188 Off ch=1 n=a#4 v=64
52188 Off ch=1 n=a#3 v=64
52320 On ch=1 n=a3 v=64
52320 On ch=1 n=a4 v=64
52428 Off ch=1 n=a4 v=64
52428 Off ch=1 n=a3 v=64
52560 On ch=1 n=a#4 v=64
52560 On ch=1 n=a#3 v=64
52752 Off ch=1 n=a#3 v=64
52752 Off ch=1 n=a#4 v=64
53280 On ch=1 n=c4 v=64
53472 Off ch=1 n=c4 v=64
53520 On ch=1 n=e4 v=64
53628 Off ch=1 n=e4 v=64
53760 On ch=1 n=c4 v=64
53868 Off ch=1 n=c4 v=64
54000 On ch=1 n=d4 v=64
54192 Off ch=1 n=d4 v=64
54240 On ch=1 n=a#3 v=64
54348 Off ch=1 n=a#3 v=64
54480 On ch=1 n=c4 v=64
54588 Off ch=1 n=c4 v=64
54720 On ch=1 n=f3 v=64
54912 Off ch=1 n=f3 v=64
54960 On ch=1 n=f4 v=64
55068 Off ch=1 n=f4 v=64
55440 On ch=1 n=f4 v=64
55548 Off ch=1 n=f4 v=64
55560 On ch=1 n=a4 v=64
55668 Off ch=1 n=a4 v=64
55680 On ch=1 n=c5 v=64
55788 Off ch=1 n=c5 v=64
55800 On ch=1 n=a4 v=64
55908 Off ch=1 n=a4 v=64
55920 On ch=1 n=c5 v=64
56028 Off ch=1 n=c5 v=64
56040 On ch=1 n=a4 v=64
56148 Off ch=1 n=a4 v=64
56160 On ch=1 n=f4 v=64
56268 Off ch=1 n=f4 v=64
56280 On ch=1 n=a4 v=64
56388 Off ch=1 n=a4 v=64
56400 On ch=1 n=c5 v=64
56508 Off ch=1 n=c5 v=64
56520 On ch=1 n=a4 v=64
56628 Off ch=1 n=a4 v=64
56640 On ch=1 n=g4 v=64
56748 Off ch=1 n=g4 v=64
56760 On ch=1 n=f4 v=64
56868 Off ch=1 n=f4 v=64
56880 On ch=1 n=e4 v=64
56988 Off ch=1 n=e4 v=64
57000 On ch=1 n=g4 v=64
57108 Off ch=1 n=g4 v=64
57120 On ch=1 n=c5 v=64
57228 Off ch=1 n=c5 v=64
57240 On ch=1 n=g4 v=64
57348 Off ch=1 n=g4 v=64
57360 On ch=1 n=e4 v=64
57468 Off ch=1 n=e4 v=64
57480 On ch=1 n=c4 v=64
57588 Off ch=1 n=c4 v=64
57600 On ch=1 n=f4 v=64
57708 Off ch=1 n=f4 v=64
57720 On ch=1 n=a4 v=64
57828 Off ch=1 n=a4 v=64
57840 On ch=1 n=c5 v=64
57948 Off ch=1 n=c5 v=64
57960 On ch=1 n=a4 v=64
58068 Off ch=1 n=a4 v=64
58080 On ch=1 n=f4 v=64
58188 Off ch=1 n=f4 v=64
58200 On ch=1 n=c4 v=64
58308 Off ch=1 n=c4 v=64
58320 On ch=1 n=e4 v=64
58428 Off ch=1 n=e4 v=64
58440 On ch=1 n=g4 v=64
58548 Off ch=1 n=g4 v=64
58560 On ch=1 n=c5 v=64
58668 Off ch=1 n=c5 v=64
58680 On ch=1 n=g4 v=64
58788 Off ch=1 n=g4 v=64
58800 On ch=1 n=e4 v=64
58908 Off ch=1 n=e4 v=64
58920 On ch=1 n=c4 v=64
59028 Off ch=1 n=c4 v=64
59040 On ch=1 n=f4 v=64
59232 Off ch=1 n=f4 v=64
59280 On ch=1 n=f3 v=64
59388 Off ch=1 n=f3 v=64
59760 On ch=1 n=f5 v=64
59760 On ch=1 n=g4 v=64
59760 On ch=1 n=b4 v=64
59952 Off ch=1 n=b4 v=64
59952 Off ch=1 n=g4 v=64
59952 Off ch=1 n=f5 v=64
60000 On ch=1 n=b4 v=64
60000 On ch=1 n=f5 v=64
60000 On ch=1 n=g4 v=64
60108 Off ch=1 n=g4 v=64
60108 Off ch=1 n=f5 v=64
60108 Off ch=1 n=b4 v=64
60480 On ch=1 n=e5 v=64
60480 On ch=1 n=c5 v=64
60672 Off ch=1 n=c5 v=64
60672 Off ch=1 n=e5 v=64
60720 On ch=1 n=c5 v=64
60720 On ch=1 n=e5 v=64
60828 Off ch=1 n=e5 v=64
60828 Off ch=1 n=c5 v=64
61200 On ch=1 n=b3 v=64
61200 On ch=1 n=f4 v=64
61200 On ch=1 n=g3 v=64
61392 Off ch=1 n=g3 v=64
61392 Off ch=1 n=f4 v=64
61392 Off ch=1 n=b3 v=64
61440 On ch=1 n=f4 v=64
61440 On ch=1 n=b3 v=64
61440 On ch=1 n=g3 v=64
61548 Off ch=1 n=g3 v=64
61548 Off ch=1 n=b3 v=64
61548 Off ch=1 n=f4 v=64
61680 On ch=1 n=f4 v=64
61680 On ch=1 n=b3 v=64
61680 On ch=1 n=g3 v=64
61788 Off ch=1 n=g3 v=64
61788 Off ch=1 n=b3 v=64
61788 Off ch=1 n=f4 v=64
61920 On ch=1 n=e4 v=64
61920 On ch=1 n=c4 v=64
62136 Off ch=1 n=c4 v=64
62136 Off ch=1 n=e4 v=64
62400 On ch=1 n=c5 v=64
62400 On ch=1 n=c4 v=64
62592 Off ch=1 n=c4 v=64
62592 Off ch=1 n=c5 v=64
62640 On ch=1 n=b4 v=64
62640 On ch=1 n=b3 v=64
63024 Off ch=1 n=b3 v=64
63024 Off ch=1 n=b4 v=64
63120 On ch=1 n=a#3 v=64
63120 On ch=1 n=a#4 v=64
63228 Off ch=1 n=a#4 v=64
63228 Off ch=1 n=a#3 v=64
63360 On ch=1 n=a3 v=64
63360 On ch=1 n=a4 v=64
63468 Off ch=1 n=a4 v=64
63468 Off ch=1 n=a3 v=64
63600 On ch=1 n=g4 v=64
63600 On ch=1 n=g3 v=64
63696 Off ch=1 n=g3 v=64
63696 Off ch=1 n=g4 v=64
63720 On ch=1 n=f4 v=64
63720 On ch=1 n=f3 v=64
63816 Off ch=1 n=f3 v=64
63816 Off ch=1 n=f4 v=64
63840 On ch=1 n=e4 v=64
63840 On ch=1 n=e3 v=64
63948 Off ch=1 n=e3 v=64
63948 Off ch=1 n=e4 v=64
64080 On ch=1 n=f4 v=64
64080 On ch=1 n=f3 v=64
64188 Off ch=1 n=f3 v=64
64188 Off ch=1 n=f4 v=64
64320 On ch=1 n=d3 v=64
64320 On ch=1 n=d4 v=64
64428 Off ch=1 n=d4 v=64
64428 Off ch=1 n=d3 v=64
64560 On ch=1 n=g3 v=64
64560 On ch=1 n=g4 v=64
64668 Off ch=1 n=g4 v=64
64668 Off ch=1 n=g3 v=64
64800 On ch=1 n=e3 v=64
64800 On ch=1 n=e4 v=64
64992 Off ch=1 n=e4 v=64
64992 Off ch=1 n=e3 v=64
65040 On ch=1 n=c3 v=64
65040 On ch=1 n=c4 v=64
65148 Off ch=1 n=c4 v=64
65148 Off ch=1 n=c3 v=64
65520 On ch=1 n=a#4 v=64
65712 Off ch=1 n=a#4 v=64
65760 On ch=1 n=a#4 v=64
65868 Off ch=1 n=a#4 v=64
66000 On ch=1 n=a#4 v=64
66108 Off ch=1 n=a#4 v=64
66240 On ch=1 n=a4 v=64
66432 Off ch=1 n=a4 v=64
66480 On ch=1 n=a4 v=64
66588 Off ch=1 n=a4 v=64
66720 On ch=1 n=a4 v=64
66828 Off ch=1 n=a4 v=64
66960 On ch=1 n=a#4 v=64
67152 Off ch=1 n=a#4 v=64
67200 On ch=1 n=a#4 v=64
67308 Off ch=1 n=a#4 v=64
67440 On ch=1 n=a#4 v=64
67548 Off ch=1 n=a#4 v=64
67680 On ch=1 n=f4 v=64
67776 Off ch=1 n=f4 v=64
67800 On ch=1 n=a4 v=64
67896 Off ch=1 n=a4 v=64
67920 On ch=1 n=c5 v=64
68016 Off ch=1 n=c5 v=64
68040 On ch=1 n=a4 v=64
68136 Off ch=1 n=a4 v=64
68160 On ch=1 n=c5 v=64
68256 Off ch=1 n=c5 v=64
68280 On ch=1 n=a4 v=64
68376 Off ch=1 n=a4 v=64
68400 On ch=1 n=f4 v=64
68496 Off ch=1 n=f4 v=64
68520 On ch=1 n=a4 v=64
68616 Off ch=1 n=a4 v=64
68640 On ch=1 n=c5 v=64
68736 Off ch=1 n=c5 v=64
68760 On ch=1 n=a4 v=64
68856 Off ch=1 n=a4 v=64
68880 On ch=1 n=c5 v=64
68976 Off ch=1 n=c5 v=64
69000 On ch=1 n=a4 v=64
69096 Off ch=1 n=a4 v=64
69120 On ch=1 n=f4 v=64
69216 Off ch=1 n=f4 v=64
69240 On ch=1 n=a4 v=64
69336 Off ch=1 n=a4 v=64
69360 On ch=1 n=c5 v=64
69456 Off ch=1 n=c5 v=64
69480 On ch=1 n=f5 v=64
69576 Off ch=1 n=f5 v=64
69600 On ch=1 n=c5 v=64
69696 Off ch=1 n=c5 v=64
69720 On ch=1 n=a4 v=64
69816 Off ch=1 n=a4 v=64
69840 On ch=1 n=g4 v=64
70032 Off ch=1 n=g4 v=64
70080 On ch=1 n=a#4 v=64
70272 Off ch=1 n=a#4 v=64
70320 On ch=1 n=c5 v=64
70512 Off ch=1 n=c5 v=64
70560 On ch=1 n=f4 v=64
70752 Off ch=1 n=f4 v=64
70800 On ch=1 n=f3 v=64
70908 Off ch=1 n=f3 v=64
70908 Meta TrkEnd
TrkEnd
MTrk
18000 On ch=1 n=e4 v=64
18096 Off ch=1 n=e4 v=64
18120 On ch=1 n=c4 v=64
18216 Off ch=1 n=c4 v=64
18240 On ch=1 n=e4 v=64
18336 Off ch=1 n=e4 v=64
18360 On ch=1 n=c4 v=64
18456 Off ch=1 n=c4 v=64
18480 On ch=1 n=e4 v=64
18576 Off ch=1 n=e4 v=64
18600 On ch=1 n=c4 v=64
18696 Off ch=1 n=c4 v=64
18720 On ch=1 n=f4 v=64
18816 Off ch=1 n=f4 v=64
18840 On ch=1 n=c4 v=64
18936 Off ch=1 n=c4 v=64
18960 On ch=1 n=f4 v=64
19056 Off ch=1 n=f4 v=64
19080 On ch=1 n=c4 v=64
19176 Off ch=1 n=c4 v=64
19200 On ch=1 n=f4 v=64
19296 Off ch=1 n=f4 v=64
19320 On ch=1 n=c4 v=64
19416 Off ch=1 n=c4 v=64
19440 On ch=1 n=e4 v=64
19536 Off ch=1 n=e4 v=64
19560 On ch=1 n=c4 v=64
19656 Off ch=1 n=c4 v=64
19680 On ch=1 n=e4 v=64
19776 Off ch=1 n=e4 v=64
19800 On ch=1 n=c4 v=64
19896 Off ch=1 n=c4 v=64
19920 On ch=1 n=e4 v=64
20016 Off ch=1 n=e4 v=64
20040 On ch=1 n=c4 v=64
20136 Off ch=1 n=c4 v=64
26640 On ch=1 n=e4 v=64
26736 Off ch=1 n=e4 v=64
26760 On ch=1 n=c4 v=64
26856 Off ch=1 n=c4 v=64
26880 On ch=1 n=e4 v=64
26976 Off ch=1 n=e4 v=64
27000 On ch=1 n=c4 v=64
27096 Off ch=1 n=c4 v=64
27120 On ch=1 n=e4 v=64
27216 Off ch=1 n=e4 v=64
27240 On ch=1 n=c4 v=64
27336 Off ch=1 n=c4 v=64
27360 On ch=1 n=f4 v=64
27456 Off ch=1 n=f4 v=64
27480 On ch=1 n=c4 v=64
27576 Off ch=1 n=c4 v=64
27600 On ch=1 n=f4 v=64
27696 Off ch=1 n=f4 v=64
27720 On ch=1 n=c4 v=64
27816 Off ch=1 n=c4 v=64
27840 On ch=1 n=f4 v=64
27936 Off ch=1 n=f4 v=64
27960 On ch=1 n=c4 v=64
28056 Off ch=1 n=c4 v=64
28080 On ch=1 n=e4 v=64
28176 Off ch=1 n=e4 v=64
28200 On ch=1 n=c4 v=64
28296 Off ch=1 n=c4 v=64
28320 On ch=1 n=e4 v=64
28416 Off ch=1 n=e4 v=64
28440 On ch=1 n=c4 v=64
28536 Off ch=1 n=c4 v=64
28560 On ch=1 n=e4 v=64
28656 Off ch=1 n=e4 v=64
28680 On ch=1 n=c4 v=64
28776 Off ch=1 n=c4 v=64
65520 On ch=1 n=e4 v=64
65616 Off ch=1 n=e4 v=64
65640 On ch=1 n=c4 v=64
65736 Off ch=1 n=c4 v=64
65760 On ch=1 n=e4 v=64
65856 Off ch=1 n=e4 v=64
65880 On ch=1 n=c4 v=64
65976 Off ch=1 n=c4 v=64
66000 On ch=1 n=e4 v=64
66096 Off ch=1 n=e4 v=64
66120 On ch=1 n=c4 v=64
66216 Off ch=1 n=c4 v=64
66240 On ch=1 n=f4 v=64
66336 Off ch=1 n=f4 v=64
66360 On ch=1 n=c4 v=64
66456 Off ch=1 n=c4 v=64
66480 On ch=1 n=f4 v=64
66576 Off ch=1 n=f4 v=64
66600 On ch=1 n=c4 v=64
66696 Off ch=1 n=c4 v=64
66720 On ch=1 n=f4 v=64
66816 Off ch=1 n=f4 v=64
66840 On ch=1 n=c4 v=64
66936 Off ch=1 n=c4 v=64
66960 On ch=1 n=e4 v=64
67056 Off ch=1 n=e4 v=64
67080 On ch=1 n=c4 v=64
67176 Off ch=1 n=c4 v=64
67200 On ch=1 n=e4 v=64
67296 Off ch=1 n=e4 v=64
67320 On ch=1 n=c4 v=64
67416 Off ch=1 n=c4 v=64
67440 On ch=1 n=e4 v=64
67536 Off ch=1 n=e4 v=64
67560 On ch=1 n=c4 v=64
67656 Off ch=1 n=c4 v=64
67656 Meta TrkEnd
TrkEnd
