MFile 1 18 480
MTrk
0 Tempo 500000
0 TimeSig 4/4 24 8
0 Meta TrkEnd
TrkEnd
MTrk
0 SeqSpec 43 00 01 00
0 Meta TrkName "PIANO                               "
0 TimeSig 4/4 24 8
0 SysEx f0 41 10 42 12 40 00 7f 00 41 f7
0 SysEx f0 41 10 42 12 40 00 04 64 58 f7
340 SysEx f0 41 10 42 12 40 01 30 03 0c f7
340 SysEx f0 41 10 42 12 40 01 33 50 3c f7
340 SysEx f0 41 10 42 12 40 01 34 3c 4f f7
744 Par ch=1 c=0 v=0
748 Par ch=1 c=32 v=1
752 PrCh ch=1 p=0
756 Par ch=1 c=7 v=100
948 Par ch=1 c=11 v=100
1140 Par ch=1 c=10 v=64
1332 Par ch=1 c=1 v=0
1332 Par ch=1 c=91 v=80
1350 Par ch=1 c=99 v=1
1354 Par ch=1 c=98 v=32
1358 Par ch=1 c=6 v=62
1362 Par ch=1 c=99 v=1
1366 Par ch=1 c=98 v=33
1370 Par ch=1 c=6 v=54
1374 Par ch=1 c=99 v=1
1378 Par ch=1 c=98 v=99
1382 Par ch=1 c=6 v=62
1386 Par ch=1 c=99 v=1
1390 Par ch=1 c=98 v=100
1394 Par ch=1 c=6 v=60
1398 Par ch=1 c=99 v=1
1402 Par ch=1 c=98 v=102
1406 Par ch=1 c=6 v=70
3086 On ch=1 n=f5 v=39
3136 Par ch=1 c=64 v=63
3274 Par ch=1 c=64 v=127
3516 On ch=1 n=a5 v=51
3732 On ch=1 n=f5 v=0
3812 On ch=1 n=c6 v=60
4110 On ch=1 n=a5 v=0
4114 On ch=1 n=f6 v=76
4238 On ch=1 n=c6 v=0
4402 On ch=1 n=f4 v=63
4416 On ch=1 n=f3 v=59
4418 On ch=1 n=f6 v=0
4490 On ch=1 n=c6 v=70
4668 On ch=1 n=a6 v=76
4946 On ch=1 n=c6 v=0
5538 On ch=1 n=f3 v=0
5724 On ch=1 n=a6 v=0
5730 On ch=1 n=f6 v=79
5754 On ch=1 n=f4 v=0
6114 On ch=1 n=a4 v=35
6116 On ch=1 n=f6 v=0
6120 On ch=1 n=c6 v=69
6128 On ch=1 n=a3 v=38
6248 Par ch=1 c=64 v=63
6268 Par ch=1 c=64 v=0
6354 Par ch=1 c=64 v=63
6384 Par ch=1 c=64 v=127
6480 On ch=1 n=c6 v=0
6854 On ch=1 n=a3 v=0
6896 On ch=1 n=c6 v=76
6902 On ch=1 n=a5 v=51
6952 On ch=1 n=a4 v=0
7616 On ch=1 n=c5 v=63
7626 On ch=1 n=c4 v=44
7722 Par ch=1 c=64 v=63
7796 Par ch=1 c=64 v=0
7814 Par ch=1 c=64 v=63
7876 Par ch=1 c=64 v=127
7972 On ch=1 n=a5 v=0
7982 On ch=1 n=a#5 v=70
7990 On ch=1 n=c6 v=0
8020 On ch=1 n=g5 v=42
8312 On ch=1 n=a#5 v=0
8318 On ch=1 n=g5 v=0
8346 On ch=1 n=a5 v=56
8348 On ch=1 n=f5 v=50
8662 On ch=1 n=c4 v=0
8684 On ch=1 n=f5 v=0
8692 On ch=1 n=a#5 v=69
8720 On ch=1 n=g5 v=50
8730 On ch=1 n=a5 v=0
8734 On ch=1 n=c5 v=0
9012 On ch=1 n=g5 v=0
9058 On ch=1 n=a#5 v=0
9146 On ch=1 n=d5 v=46
9150 On ch=1 n=a#5 v=70
9158 On ch=1 n=d4 v=49
9172 On ch=1 n=g5 v=47
9332 Par ch=1 c=64 v=63
9380 Par ch=1 c=64 v=0
9816 Par ch=1 c=64 v=63
9826 Par ch=1 c=64 v=127
10454 On ch=1 n=a#5 v=0
10484 On ch=1 n=c6 v=46
10658 On ch=1 n=a#5 v=47
10702 On ch=1 n=c6 v=0
10730 On ch=1 n=g5 v=0
10872 On ch=1 n=a5 v=55
10880 On ch=1 n=a#5 v=0
10882 On ch=1 n=f5 v=38
11072 Par ch=1 c=64 v=63
11098 Par ch=1 c=64 v=0
11342 Par ch=1 c=64 v=63
11364 Par ch=1 c=64 v=127
11672 On ch=1 n=f5 v=0
11714 On ch=1 n=d5 v=0
11744 On ch=1 n=a5 v=0
11808 On ch=1 n=d4 v=0
12434 On ch=1 n=c5 v=47
12440 Par ch=1 c=64 v=63
12502 Par ch=1 c=64 v=127
12588 On ch=1 n=c5 v=0
12590 On ch=1 n=f5 v=49
12844 On ch=1 n=a3 v=33
12900 On ch=1 n=d6 v=70
13372 On ch=1 n=c6 v=72
13496 On ch=1 n=d6 v=0
13718 On ch=1 n=a#5 v=80
13792 On ch=1 n=c6 v=0
14018 On ch=1 n=a5 v=86
14034 On ch=1 n=a3 v=0
14074 On ch=1 n=a#5 v=0
14096 On ch=1 n=a5 v=0
14112 On ch=1 n=f5 v=0
14342 On ch=1 n=a#3 v=72
14352 On ch=1 n=a5 v=80
14356 On ch=1 n=d5 v=70
14358 On ch=1 n=f5 v=68
14662 Par ch=1 c=64 v=63
14694 Par ch=1 c=64 v=0
14716 On ch=1 n=g5 v=88
14824 Par ch=1 c=64 v=63
14850 Par ch=1 c=64 v=127
14998 On ch=1 n=a5 v=0
15000 On ch=1 n=d5 v=0
15026 On ch=1 n=f5 v=0
15052 On ch=1 n=g5 v=0
15150 On ch=1 n=g5 v=71
15174 On ch=1 n=f5 v=57
15174 On ch=1 n=d5 v=51
15460 On ch=1 n=a#3 v=0
15876 On ch=1 n=g3 v=63
15892 On ch=1 n=g2 v=56
16050 Par ch=1 c=64 v=63
16110 Par ch=1 c=64 v=127
16248 On ch=1 n=d5 v=0
16270 On ch=1 n=g5 v=0
16274 On ch=1 n=f5 v=0
16624 On ch=1 n=a#4 v=60
16722 On ch=1 n=f5 v=50
16826 On ch=1 n=g5 v=76
16956 On ch=1 n=g2 v=0
17014 On ch=1 n=g3 v=0
17336 On ch=1 n=a#4 v=0
17562 On ch=1 n=a#3 v=50
17592 On ch=1 n=a#2 v=55
17892 On ch=1 n=f5 v=0
17930 On ch=1 n=g5 v=0
18108 On ch=1 n=a#5 v=59
18260 On ch=1 n=a#2 v=0
18274 On ch=1 n=a5 v=60
18298 On ch=1 n=a#5 v=0
18382 On ch=1 n=a#3 v=0
18440 On ch=1 n=c6 v=63
18450 On ch=1 n=a5 v=0
18604 On ch=1 n=a#5 v=79
18632 On ch=1 n=c6 v=0
18760 On ch=1 n=a5 v=73
18834 On ch=1 n=a#5 v=0
18906 On ch=1 n=g5 v=75
18914 On ch=1 n=a5 v=0
18914 On ch=1 n=a#4 v=66
19054 On ch=1 n=a#4 v=0
19110 On ch=1 n=g5 v=0
19146 On ch=1 n=a4 v=55
19154 On ch=1 n=f5 v=67
19168 On ch=1 n=c4 v=58
19428 Par ch=1 c=64 v=63
19466 Par ch=1 c=64 v=0
20054 Par ch=1 c=64 v=63
20064 Par ch=1 c=64 v=127
20594 On ch=1 n=g5 v=42
20622 On ch=1 n=f5 v=0
20782 On ch=1 n=f5 v=48
20844 On ch=1 n=g5 v=0
20992 On ch=1 n=e5 v=49
21008 On ch=1 n=g4 v=30
21010 On ch=1 n=a4 v=0
21012 On ch=1 n=f5 v=0
21094 Par ch=1 c=64 v=63
21146 Par ch=1 c=64 v=0
21340 Par ch=1 c=64 v=63
21362 Par ch=1 c=64 v=127
22192 On ch=1 n=e5 v=0
22352 On ch=1 n=g4 v=0
22380 On ch=1 n=c4 v=0
22460 Par ch=1 c=64 v=63
22596 Par ch=1 c=64 v=0
22918 On ch=1 n=f5 v=35
23058 On ch=1 n=f5 v=0
23136 On ch=1 n=a5 v=42
23246 On ch=1 n=a5 v=0
23304 On ch=1 n=a#5 v=43
23390 On ch=1 n=a#5 v=0
23454 On ch=1 n=c6 v=55
23568 On ch=1 n=c6 v=0
23600 On ch=1 n=d6 v=61
23704 On ch=1 n=d6 v=0
23736 On ch=1 n=e6 v=65
23786 On ch=1 n=e6 v=0
23860 On ch=1 n=f6 v=71
23972 On ch=1 n=f6 v=0
24004 On ch=1 n=g6 v=84
24110 On ch=1 n=g6 v=0
24172 On ch=1 n=f3 v=33
24186 On ch=1 n=a6 v=93
24188 On ch=1 n=f4 v=21
24400 Par ch=1 c=64 v=63
24430 Par ch=1 c=64 v=127
24642 On ch=1 n=a6 v=0
24896 On ch=1 n=f3 v=0
25104 On ch=1 n=f4 v=0
25354 On ch=1 n=f6 v=64
25510 On ch=1 n=f6 v=0
25510 On ch=1 n=a6 v=50
25630 On ch=1 n=f6 v=65
25686 On ch=1 n=a6 v=0
25730 On ch=1 n=a4 v=34
25732 On ch=1 n=a3 v=37
25782 On ch=1 n=c6 v=69
25806 On ch=1 n=f6 v=0
25808 Par ch=1 c=64 v=63
25836 Par ch=1 c=64 v=0
25942 Par ch=1 c=64 v=63
25968 Par ch=1 c=64 v=127
26224 On ch=1 n=c6 v=0
26506 On ch=1 n=c6 v=81
26524 On ch=1 n=a5 v=68
26570 On ch=1 n=a3 v=0
26818 On ch=1 n=a4 v=0
27178 On ch=1 n=c5 v=68
27182 On ch=1 n=c4 v=56
27304 Par ch=1 c=64 v=63
27348 Par ch=1 c=64 v=0
27470 Par ch=1 c=64 v=63
27498 Par ch=1 c=64 v=127
27568 On ch=1 n=d6 v=60
27626 On ch=1 n=c6 v=0
27738 On ch=1 n=c6 v=83
27790 On ch=1 n=d6 v=0
27790 On ch=1 n=a5 v=0
27848 On ch=1 n=c6 v=0
27916 On ch=1 n=c6 v=62
27928 On ch=1 n=g5 v=56
28068 On ch=1 n=a#5 v=85
28106 On ch=1 n=c6 v=0
28196 On ch=1 n=c4 v=0
28254 On ch=1 n=a5 v=76
28298 On ch=1 n=a#5 v=0
28324 On ch=1 n=c5 v=0
28398 On ch=1 n=a#5 v=92
28472 On ch=1 n=a5 v=0
28484 On ch=1 n=g5 v=0
28662 On ch=1 n=d5 v=49
28688 On ch=1 n=d4 v=45
28692 On ch=1 n=c6 v=78
28706 On ch=1 n=g5 v=31
28774 On ch=1 n=a#5 v=0
28892 Par ch=1 c=64 v=63
28920 Par ch=1 c=64 v=0
28994 Par ch=1 c=64 v=63
29026 Par ch=1 c=64 v=127
29314 On ch=1 n=g5 v=0
29400 On ch=1 n=c6 v=0
29438 On ch=1 n=a#5 v=60
29608 On ch=1 n=a#5 v=0
29648 On ch=1 n=c6 v=57
29738 On ch=1 n=a#5 v=56
29756 On ch=1 n=c6 v=0
29824 On ch=1 n=a#5 v=0
29828 On ch=1 n=c6 v=70
29894 On ch=1 n=a#5 v=65
29898 On ch=1 n=c6 v=0
29976 On ch=1 n=a5 v=55
29984 On ch=1 n=a#5 v=0
30062 On ch=1 n=a#5 v=63
30080 On ch=1 n=a5 v=0
30190 On ch=1 n=a#5 v=0
30232 On ch=1 n=a5 v=51
30248 On ch=1 n=f5 v=63
30356 Par ch=1 c=64 v=63
30434 Par ch=1 c=64 v=127
30674 On ch=1 n=f5 v=0
30770 On ch=1 n=a5 v=0
30790 On ch=1 n=f6 v=49
30982 On ch=1 n=d4 v=0
31182 On ch=1 n=e6 v=81
31198 On ch=1 n=f6 v=0
31254 On ch=1 n=d5 v=0
31526 On ch=1 n=f6 v=92
31594 On ch=1 n=e6 v=0
31890 On ch=1 n=d5 v=63
31892 On ch=1 n=a#4 v=53
31894 On ch=1 n=g6 v=82
32030 On ch=1 n=f6 v=0
32080 Par ch=1 c=64 v=63
32116 Par ch=1 c=64 v=0
32268 On ch=1 n=f6 v=93
32342 On ch=1 n=g6 v=0
32594 On ch=1 n=e5 v=86
32604 On ch=1 n=e6 v=87
32626 Par ch=1 c=64 v=63
32646 Par ch=1 c=64 v=127
32670 On ch=1 n=d5 v=0
32706 On ch=1 n=f6 v=0
32924 On ch=1 n=d6 v=86
33020 On ch=1 n=e6 v=0
33214 On ch=1 n=a#4 v=0
33272 On ch=1 n=f5 v=68
33272 On ch=1 n=c6 v=76
33292 On ch=1 n=d6 v=0
33296 On ch=1 n=a4 v=31
33348 Par ch=1 c=64 v=63
33350 On ch=1 n=e5 v=0
33386 Par ch=1 c=64 v=0
33464 On ch=1 n=c#6 v=89
33498 On ch=1 n=c6 v=0
33534 Par ch=1 c=64 v=63
33562 Par ch=1 c=64 v=127
33634 On ch=1 n=d6 v=92
33684 On ch=1 n=c#6 v=0
33768 On ch=1 n=c#6 v=95
33836 On ch=1 n=f5 v=0
33858 On ch=1 n=d6 v=0
33944 On ch=1 n=a4 v=0
33978 On ch=1 n=a#4 v=65
33978 On ch=1 n=f5 v=68
33996 On ch=1 n=e6 v=78
34030 On ch=1 n=c#6 v=0
34122 Par ch=1 c=64 v=63
34164 On ch=1 n=d6 v=84
34182 Par ch=1 c=64 v=0
34218 On ch=1 n=e6 v=0
34338 On ch=1 n=c6 v=84
34390 On ch=1 n=d6 v=0
34470 On ch=1 n=a#5 v=88
34520 On ch=1 n=c6 v=0
34666 On ch=1 n=c5 v=68
34674 On ch=1 n=a5 v=71
34692 On ch=1 n=a#5 v=0
34714 On ch=1 n=a#4 v=0
34818 Par ch=1 c=64 v=63
34828 Par ch=1 c=64 v=127
35184 On ch=1 n=a5 v=0
35200 On ch=1 n=a#5 v=78
35282 On ch=1 n=a5 v=59
35298 On ch=1 n=a#5 v=0
35368 On ch=1 n=g5 v=68
35370 On ch=1 n=a5 v=0
35478 On ch=1 n=a5 v=62
35488 On ch=1 n=g5 v=0
35646 Par ch=1 c=64 v=63
35702 Par ch=1 c=64 v=127
35876 On ch=1 n=a#5 v=67
35930 On ch=1 n=a5 v=0
35936 On ch=1 n=c5 v=0
36114 On ch=1 n=f5 v=0
36228 On ch=1 n=a5 v=52
36234 On ch=1 n=c5 v=48
36250 On ch=1 n=e5 v=43
36298 On ch=1 n=a#5 v=0
36514 On ch=1 n=g5 v=50
36526 On ch=1 n=a5 v=0
36670 On ch=1 n=g5 v=0
36688 On ch=1 n=a5 v=49
36770 On ch=1 n=a5 v=0
36792 On ch=1 n=g5 v=49
36890 On ch=1 n=g5 v=0
36980 On ch=1 n=g5 v=50
37042 On ch=1 n=a5 v=57
37046 On ch=1 n=g5 v=0
37100 On ch=1 n=a5 v=0
37126 On ch=1 n=g5 v=60
37188 On ch=1 n=a5 v=58
37204 On ch=1 n=g5 v=0
37310 On ch=1 n=g5 v=55
37326 On ch=1 n=a5 v=0
37386 On ch=1 n=a5 v=56
37402 On ch=1 n=g5 v=0
37402 On ch=1 n=e5 v=0
37460 On ch=1 n=g5 v=49
37462 On ch=1 n=a5 v=0
37510 On ch=1 n=c5 v=0
37576 On ch=1 n=f5 v=39
37600 On ch=1 n=g5 v=0
37748 On ch=1 n=g5 v=47
37832 On ch=1 n=f5 v=0
38012 On ch=1 n=f4 v=29
38018 On ch=1 n=f5 v=49
38064 On ch=1 n=g5 v=0
38264 Par ch=1 c=64 v=63
38312 Par ch=1 c=64 v=0
38386 On ch=1 n=a4 v=47
38544 Par ch=1 c=64 v=63
38570 Par ch=1 c=64 v=127
38740 On ch=1 n=f4 v=0
38744 On ch=1 n=c5 v=44
38798 On ch=1 n=a4 v=0
39050 On ch=1 n=c5 v=0
39058 On ch=1 n=a4 v=34
39374 On ch=1 n=f4 v=36
39390 On ch=1 n=a4 v=0
39418 Par ch=1 c=64 v=63
39448 Par ch=1 c=64 v=0
39490 On ch=1 n=f5 v=0
39496 Par ch=1 c=64 v=63
39562 Par ch=1 c=64 v=127
39722 On ch=1 n=a4 v=32
39770 On ch=1 n=g5 v=44
39812 On ch=1 n=f5 v=50
39818 On ch=1 n=g5 v=0
39912 On ch=1 n=f5 v=0
39916 On ch=1 n=e5 v=52
39986 On ch=1 n=e5 v=0
39990 On ch=1 n=f5 v=50
40044 On ch=1 n=f5 v=0
40072 On ch=1 n=a4 v=0
40080 On ch=1 n=c5 v=39
40110 On ch=1 n=a5 v=62
40228 On ch=1 n=a5 v=0
40422 On ch=1 n=c5 v=0
40424 On ch=1 n=c6 v=66
40444 On ch=1 n=a4 v=44
40480 On ch=1 n=f4 v=0
40532 On ch=1 n=c6 v=0
40742 On ch=1 n=f6 v=77
40752 On ch=1 n=f4 v=67
40826 On ch=1 n=a4 v=0
40934 On ch=1 n=f6 v=0
41046 On ch=1 n=a4 v=51
41070 On ch=1 n=a6 v=93
41370 On ch=1 n=a6 v=0
41418 On ch=1 n=c5 v=38
41464 On ch=1 n=c7 v=84
41486 On ch=1 n=a4 v=0
41744 On ch=1 n=c7 v=0
41810 On ch=1 n=a4 v=43
41832 On ch=1 n=c7 v=94
41840 On ch=1 n=c5 v=0
42070 On ch=1 n=f4 v=0
42136 On ch=1 n=c7 v=0
42184 On ch=1 n=g4 v=48
42274 On ch=1 n=c7 v=87
42296 On ch=1 n=a4 v=0
42370 Par ch=1 c=64 v=63
42384 Par ch=1 c=64 v=0
42626 Par ch=1 c=64 v=63
42644 Par ch=1 c=64 v=127
42670 On ch=1 n=a#4 v=57
42762 On ch=1 n=c7 v=0
42838 On ch=1 n=e6 v=72
42948 On ch=1 n=g4 v=0
43016 On ch=1 n=c5 v=39
43020 On ch=1 n=a#4 v=0
43022 On ch=1 n=e6 v=0
43044 On ch=1 n=a#6 v=80
43350 On ch=1 n=a#4 v=55
43412 On ch=1 n=c5 v=0
43664 On ch=1 n=a#6 v=0
43692 On ch=1 n=g4 v=45
43738 On ch=1 n=a#4 v=0
44102 On ch=1 n=a#4 v=40
44150 On ch=1 n=c7 v=65
44214 Par ch=1 c=64 v=63
44340 Par ch=1 c=64 v=127
44344 On ch=1 n=a#6 v=74
44370 On ch=1 n=c7 v=0
44478 On ch=1 n=a#6 v=0
44552 On ch=1 n=a6 v=78
44578 On ch=1 n=c5 v=34
44604 On ch=1 n=a#4 v=0
44664 On ch=1 n=a6 v=0
44718 On ch=1 n=g6 v=71
44808 On ch=1 n=g6 v=0
44882 On ch=1 n=a#4 v=49
44888 On ch=1 n=f6 v=85
44918 On ch=1 n=c5 v=0
44944 On ch=1 n=g4 v=0
45016 On ch=1 n=f6 v=0
45040 On ch=1 n=e6 v=65
45166 On ch=1 n=a#4 v=0
45222 On ch=1 n=d6 v=75
45224 Par ch=1 c=64 v=63
45230 On ch=1 n=e4 v=39
45266 On ch=1 n=e6 v=0
45278 Par ch=1 c=64 v=0
45320 Par ch=1 c=64 v=63
45376 Par ch=1 c=64 v=127
45408 On ch=1 n=d6 v=0
45420 On ch=1 n=c6 v=74
45558 On ch=1 n=c6 v=0
45618 On ch=1 n=a6 v=71
45620 On ch=1 n=g4 v=44
45804 On ch=1 n=g6 v=65
45816 On ch=1 n=a6 v=0
45892 On ch=1 n=g6 v=0
45974 On ch=1 n=f6 v=78
45976 On ch=1 n=g4 v=0
45994 On ch=1 n=c5 v=19
46106 On ch=1 n=f6 v=0
46116 On ch=1 n=e6 v=80
46242 On ch=1 n=e6 v=0
46274 On ch=1 n=g4 v=46
46278 On ch=1 n=d6 v=78
46356 On ch=1 n=c5 v=0
46402 On ch=1 n=e4 v=0
46404 On ch=1 n=d6 v=0
46420 On ch=1 n=c6 v=76
46602 On ch=1 n=f4 v=53
46604 On ch=1 n=c6 v=0
46618 On ch=1 n=a#5 v=72
46642 On ch=1 n=g4 v=0
46704 Par ch=1 c=64 v=63
46734 Par ch=1 c=64 v=0
46948 Par ch=1 c=64 v=63
46976 Par ch=1 c=64 v=127
46998 On ch=1 n=a4 v=47
47060 On ch=1 n=f4 v=0
47104 On ch=1 n=a#5 v=0
47132 On ch=1 n=g5 v=67
47312 On ch=1 n=g5 v=0
47332 On ch=1 n=a5 v=57
47342 On ch=1 n=c5 v=36
47400 On ch=1 n=a4 v=0
47566 Par ch=1 c=64 v=63
47600 Par ch=1 c=64 v=0
47692 On ch=1 n=a4 v=38
47704 Par ch=1 c=64 v=63
47732 On ch=1 n=c5 v=0
47746 Par ch=1 c=64 v=127
47856 On ch=1 n=a5 v=0
47994 On ch=1 n=f4 v=36
48058 On ch=1 n=a4 v=0
48150 On ch=1 n=f5 v=57
48188 Par ch=1 c=64 v=63
48216 Par ch=1 c=64 v=0
48268 On ch=1 n=f5 v=0
48322 On ch=1 n=g5 v=68
48354 On ch=1 n=a4 v=38
48448 On ch=1 n=g5 v=0
48454 On ch=1 n=a5 v=63
48548 On ch=1 n=a5 v=0
48604 On ch=1 n=a#5 v=68
48628 On ch=1 n=c5 v=31
48656 On ch=1 n=a4 v=0
48676 On ch=1 n=a#5 v=0
48766 On ch=1 n=c6 v=77
48870 On ch=1 n=c6 v=0
48912 On ch=1 n=d6 v=78
48932 On ch=1 n=a4 v=44
48956 On ch=1 n=c5 v=0
48976 On ch=1 n=f4 v=0
49030 On ch=1 n=d6 v=0
49052 On ch=1 n=e6 v=93
49130 On ch=1 n=e6 v=0
49216 On ch=1 n=f6 v=83
49230 On ch=1 n=f4 v=58
49250 On ch=1 n=a4 v=0
49312 On ch=1 n=f6 v=0
49358 On ch=1 n=g6 v=90
49458 On ch=1 n=g6 v=0
49508 On ch=1 n=a6 v=83
49532 On ch=1 n=a4 v=60
49620 On ch=1 n=a6 v=0
49634 On ch=1 n=a#6 v=103
49740 On ch=1 n=a#6 v=0
49826 On ch=1 n=c7 v=103
49846 On ch=1 n=c5 v=54
49890 On ch=1 n=a4 v=0
49912 Par ch=1 c=64 v=63
49936 On ch=1 n=f4 v=0
49940 Par ch=1 c=64 v=127
50106 On ch=1 n=c7 v=0
50184 On ch=1 n=a4 v=66
50192 On ch=1 n=c7 v=103
50248 On ch=1 n=c5 v=0
50452 On ch=1 n=c7 v=0
50572 On ch=1 n=g4 v=69
50614 On ch=1 n=c7 v=93
50618 On ch=1 n=a4 v=0
50812 Par ch=1 c=64 v=63
50860 Par ch=1 c=64 v=0
50932 Par ch=1 c=64 v=63
50976 Par ch=1 c=64 v=127
51048 On ch=1 n=a#4 v=78
51182 On ch=1 n=c7 v=0
51200 On ch=1 n=e6 v=78
51312 On ch=1 n=g4 v=0
51404 On ch=1 n=c5 v=40
51416 On ch=1 n=a#6 v=88
51472 On ch=1 n=e6 v=0
51504 On ch=1 n=a#4 v=0
51726 On ch=1 n=a#4 v=70
51758 On ch=1 n=c5 v=0
51862 On ch=1 n=a#6 v=0
52032 On ch=1 n=a#4 v=0
52050 On ch=1 n=g4 v=59
52218 Par ch=1 c=64 v=63
52238 On ch=1 n=g6 v=86
52260 Par ch=1 c=64 v=0
52356 Par ch=1 c=64 v=63
52408 Par ch=1 c=64 v=127
52480 On ch=1 n=a#6 v=85
52484 On ch=1 n=a#4 v=65
52562 On ch=1 n=g6 v=0
52688 On ch=1 n=a6 v=82
52770 On ch=1 n=a#6 v=0
52856 On ch=1 n=g6 v=80
52872 On ch=1 n=c5 v=56
52922 On ch=1 n=a6 v=0
52930 On ch=1 n=a#4 v=0
53022 On ch=1 n=f6 v=84
53038 On ch=1 n=g6 v=0
53164 On ch=1 n=f6 v=0
53164 On ch=1 n=a#4 v=72
53176 On ch=1 n=e6 v=74
53202 On ch=1 n=g4 v=0
53220 On ch=1 n=c5 v=0
53294 On ch=1 n=d6 v=78
53358 On ch=1 n=e6 v=0
53404 On ch=1 n=a#4 v=0
53478 On ch=1 n=e4 v=72
53478 On ch=1 n=c6 v=85
53490 On ch=1 n=d6 v=0
53560 Par ch=1 c=64 v=63
53608 On ch=1 n=c6 v=0
53618 On ch=1 n=e6 v=86
53640 Par ch=1 c=64 v=0
53818 On ch=1 n=g6 v=78
53834 Par ch=1 c=64 v=63
53854 Par ch=1 c=64 v=127
53866 On ch=1 n=g4 v=58
53902 On ch=1 n=e6 v=0
54012 On ch=1 n=f6 v=85
54100 On ch=1 n=g6 v=0
54168 On ch=1 n=e6 v=89
54178 On ch=1 n=c5 v=55
54238 On ch=1 n=f6 v=0
54242 On ch=1 n=g4 v=0
54296 On ch=1 n=d6 v=84
54368 On ch=1 n=e6 v=0
54468 On ch=1 n=d6 v=0
54468 On ch=1 n=g4 v=59
54478 On ch=1 n=c6 v=72
54496 On ch=1 n=c5 v=0
54604 On ch=1 n=a#5 v=95
54646 On ch=1 n=c6 v=0
54650 On ch=1 n=e4 v=0
54796 Par ch=1 c=64 v=63
54814 On ch=1 n=f4 v=41
54820 On ch=1 n=a5 v=72
54826 Par ch=1 c=64 v=0
54834 On ch=1 n=g4 v=0
54918 On ch=1 n=a#5 v=0
54960 Par ch=1 c=64 v=63
55002 Par ch=1 c=64 v=127
55064 On ch=1 n=c6 v=75
55080 On ch=1 n=a5 v=0
55200 On ch=1 n=c6 v=0
55242 On ch=1 n=a#5 v=89
55270 On ch=1 n=c5 v=36
55298 On ch=1 n=c6 v=70
55304 On ch=1 n=a#5 v=0
55362 On ch=1 n=c6 v=0
55366 On ch=1 n=a#5 v=73
55462 On ch=1 n=a5 v=71
55464 On ch=1 n=a#5 v=0
55562 Par ch=1 c=64 v=63
55576 On ch=1 n=a#5 v=87
55598 On ch=1 n=g4 v=76
55602 Par ch=1 c=64 v=0
55620 On ch=1 n=a5 v=0
55642 On ch=1 n=f4 v=0
55646 On ch=1 n=c5 v=0
55684 Par ch=1 c=64 v=63
55726 Par ch=1 c=64 v=127
55772 On ch=1 n=c6 v=94
55780 On ch=1 n=a#5 v=0
55932 On ch=1 n=d6 v=98
55932 On ch=1 n=c5 v=59
55954 Par ch=1 c=64 v=63
55972 On ch=1 n=c6 v=0
56036 Par ch=1 c=64 v=127
56080 On ch=1 n=e6 v=102
56122 On ch=1 n=d6 v=0
56184 On ch=1 n=e6 v=0
56234 On ch=1 n=g4 v=0
56242 On ch=1 n=a4 v=76
56264 On ch=1 n=f6 v=94
56272 On ch=1 n=c5 v=0
56332 Par ch=1 c=64 v=63
56400 Par ch=1 c=64 v=127
56408 On ch=1 n=g6 v=83
56416 On ch=1 n=f6 v=0
56460 On ch=1 n=g6 v=0
56470 On ch=1 n=f6 v=71
56556 On ch=1 n=e6 v=81
56560 On ch=1 n=f6 v=0
56630 On ch=1 n=c5 v=64
56646 On ch=1 n=a4 v=0
56646 On ch=1 n=f6 v=84
56680 On ch=1 n=e6 v=0
56822 On ch=1 n=g6 v=92
56878 On ch=1 n=f6 v=0
56958 On ch=1 n=g6 v=0
57014 On ch=1 n=f4 v=71
57026 On ch=1 n=a6 v=100
57036 On ch=1 n=c5 v=0
57164 On ch=1 n=a6 v=0
57190 On ch=1 n=a#6 v=89
57250 On ch=1 n=a#6 v=0
57254 On ch=1 n=a6 v=81
57322 On ch=1 n=g6 v=84
57330 On ch=1 n=a6 v=0
57380 On ch=1 n=f4 v=0
57380 On ch=1 n=a4 v=76
57390 On ch=1 n=a6 v=76
57412 On ch=1 n=g6 v=0
57536 On ch=1 n=a#6 v=106
57596 On ch=1 n=a6 v=0
57700 On ch=1 n=c4 v=61
57718 On ch=1 n=a4 v=0
57720 On ch=1 n=c7 v=104
57770 On ch=1 n=a#6 v=0
58124 On ch=1 n=f4 v=85
58152 Par ch=1 c=64 v=63
58268 Par ch=1 c=64 v=127
58320 On ch=1 n=a6 v=97
58348 On ch=1 n=c7 v=0
58386 On ch=1 n=c4 v=0
58554 On ch=1 n=a3 v=81
58622 On ch=1 n=f7 v=92
58692 On ch=1 n=f4 v=0
58708 On ch=1 n=a6 v=0
58712 Par ch=1 c=64 v=63
58846 Par ch=1 c=64 v=127
58964 On ch=1 n=f7 v=0
59120 On ch=1 n=c4 v=57
59320 On ch=1 n=a3 v=0
59334 On ch=1 n=a5 v=73
59560 On ch=1 n=a#3 v=70
59594 On ch=1 n=g5 v=73
59654 On ch=1 n=c4 v=0
59660 On ch=1 n=a5 v=0
59788 Par ch=1 c=64 v=63
59824 Par ch=1 c=64 v=0
60042 On ch=1 n=d4 v=66
60048 On ch=1 n=a5 v=78
60088 On ch=1 n=g5 v=0
60096 Par ch=1 c=64 v=63
60114 Par ch=1 c=64 v=127
60216 On ch=1 n=a#5 v=97
60294 On ch=1 n=a5 v=0
60414 On ch=1 n=g4 v=79
60418 On ch=1 n=a#5 v=0
60494 On ch=1 n=d4 v=0
60752 On ch=1 n=c#6 v=99
60758 On ch=1 n=d4 v=61
60774 On ch=1 n=a#3 v=0
60912 On ch=1 n=d6 v=96
60942 On ch=1 n=c#6 v=0
61092 Par ch=1 c=64 v=63
61110 On ch=1 n=a#3 v=92
61152 Par ch=1 c=64 v=127
61200 On ch=1 n=d4 v=0
61308 On ch=1 n=d6 v=0
61506 On ch=1 n=f#6 v=96
61508 On ch=1 n=d4 v=67
61518 On ch=1 n=g4 v=0
61658 On ch=1 n=f#6 v=0
61658 On ch=1 n=g6 v=94
61826 On ch=1 n=g4 v=85
61880 On ch=1 n=d4 v=0
61892 On ch=1 n=g6 v=0
62182 On ch=1 n=d4 v=69
62186 On ch=1 n=a6 v=103
62198 On ch=1 n=g4 v=0
62222 On ch=1 n=a#3 v=0
62342 On ch=1 n=a#6 v=109
62406 On ch=1 n=a6 v=0
62518 On ch=1 n=d4 v=0
62532 On ch=1 n=g3 v=93
62638 Par ch=1 c=64 v=63
62718 Par ch=1 c=64 v=0
62772 Par ch=1 c=64 v=63
62834 Par ch=1 c=64 v=127
62904 On ch=1 n=a#3 v=76
62916 On ch=1 n=c#7 v=101
62936 On ch=1 n=a#6 v=0
63098 On ch=1 n=d7 v=89
63152 On ch=1 n=c#7 v=0
63238 Par ch=1 c=64 v=63
63270 Par ch=1 c=64 v=0
63298 On ch=1 n=d4 v=72
63300 On ch=1 n=c7 v=93
63366 On ch=1 n=d7 v=0
63380 On ch=1 n=a#3 v=0
63460 On ch=1 n=a#6 v=99
63516 On ch=1 n=c7 v=0
63662 On ch=1 n=a6 v=94
63662 On ch=1 n=a#3 v=69
63688 Par ch=1 c=64 v=63
63698 Par ch=1 c=64 v=127
63726 On ch=1 n=a#6 v=0
63804 On ch=1 n=g3 v=0
63830 On ch=1 n=a#3 v=0
63836 On ch=1 n=g6 v=87
63838 On ch=1 n=d4 v=0
63878 On ch=1 n=a6 v=0
64098 On ch=1 n=g6 v=0
64114 On ch=1 n=a4 v=68
64120 On ch=1 n=f6 v=93
64132 On ch=1 n=c4 v=66
64136 On ch=1 n=f4 v=65
64324 Par ch=1 c=64 v=63
64362 Par ch=1 c=64 v=0
64968 Par ch=1 c=64 v=63
64976 Par ch=1 c=64 v=127
65358 On ch=1 n=f6 v=0
65628 On ch=1 n=e6 v=63
65746 On ch=1 n=f6 v=61
65768 On ch=1 n=e6 v=0
65856 On ch=1 n=a4 v=0
65868 On ch=1 n=f6 v=0
65868 On ch=1 n=g6 v=47
65974 On ch=1 n=f6 v=63
66018 On ch=1 n=g6 v=0
66112 On ch=1 n=f4 v=0
66130 On ch=1 n=g4 v=34
66142 On ch=1 n=e6 v=50
66144 On ch=1 n=e4 v=42
66162 Par ch=1 c=64 v=63
66174 On ch=1 n=f6 v=0
66184 Par ch=1 c=64 v=0
66352 Par ch=1 c=64 v=63
66374 Par ch=1 c=64 v=127
66460 On ch=1 n=g4 v=0
66468 On ch=1 n=c4 v=0
66492 On ch=1 n=e4 v=0
66720 On ch=1 n=c5 v=58
67122 On ch=1 n=e6 v=0
67142 On ch=1 n=b4 v=70
67198 On ch=1 n=c5 v=0
67468 On ch=1 n=c5 v=76
67514 On ch=1 n=b4 v=0
67764 Par ch=1 c=64 v=63
67824 On ch=1 n=g4 v=69
67840 On ch=1 n=c5 v=0
67878 Par ch=1 c=64 v=0
67930 On ch=1 n=g4 v=0
68174 On ch=1 n=c5 v=58
68286 On ch=1 n=c5 v=0
68492 On ch=1 n=e4 v=60
68654 On ch=1 n=e4 v=0
68870 On ch=1 n=g4 v=49
69038 On ch=1 n=g4 v=0
69270 On ch=1 n=c4 v=44
69584 Par ch=1 c=64 v=63
69668 Par ch=1 c=64 v=127
69712 On ch=1 n=g6 v=51
69964 On ch=1 n=c4 v=0
70004 On ch=1 n=g6 v=0
70114 On ch=1 n=g6 v=57
70306 On ch=1 n=g6 v=0
70446 On ch=1 n=g6 v=76
70618 On ch=1 n=g6 v=0
70776 On ch=1 n=g6 v=79
70786 On ch=1 n=e5 v=55
70794 On ch=1 n=c5 v=54
70876 Par ch=1 c=64 v=63
70980 Par ch=1 c=64 v=127
71052 On ch=1 n=g6 v=0
71128 On ch=1 n=g6 v=75
71376 On ch=1 n=g6 v=0
71462 On ch=1 n=f5 v=73
71464 On ch=1 n=d5 v=57
71466 On ch=1 n=g6 v=84
71556 On ch=1 n=c5 v=0
71562 On ch=1 n=e5 v=0
71696 On ch=1 n=g6 v=0
71796 On ch=1 n=g6 v=92
72042 On ch=1 n=g6 v=0
72132 On ch=1 n=d5 v=0
72142 On ch=1 n=g6 v=89
72148 On ch=1 n=g5 v=53
72150 On ch=1 n=e5 v=62
72184 On ch=1 n=f5 v=0
72278 Par ch=1 c=64 v=63
72340 Par ch=1 c=64 v=127
72532 On ch=1 n=a6 v=89
72536 On ch=1 n=g6 v=0
72594 On ch=1 n=e5 v=0
72680 On ch=1 n=b6 v=84
72710 On ch=1 n=a6 v=0
72842 On ch=1 n=c7 v=78
72854 On ch=1 n=e5 v=57
72862 On ch=1 n=c5 v=49
72866 On ch=1 n=b6 v=0
72884 On ch=1 n=g5 v=0
73004 On ch=1 n=b6 v=76
73050 Par ch=1 c=64 v=63
73064 On ch=1 n=c7 v=0
73122 Par ch=1 c=64 v=0
73180 On ch=1 n=a6 v=82
73228 On ch=1 n=b6 v=0
73342 On ch=1 n=g6 v=67
73356 On ch=1 n=a6 v=0
73538 On ch=1 n=d5 v=40
73552 On ch=1 n=f5 v=47
73556 On ch=1 n=f6 v=68
73564 On ch=1 n=c5 v=0
73592 On ch=1 n=g6 v=0
73650 On ch=1 n=e5 v=0
73740 Par ch=1 c=64 v=63
73772 Par ch=1 c=64 v=127
73912 On ch=1 n=f6 v=0
73992 On ch=1 n=f6 v=69
74216 On ch=1 n=f6 v=0
74312 On ch=1 n=f5 v=0
74314 On ch=1 n=f6 v=71
74376 On ch=1 n=d5 v=0
74462 On ch=1 n=f6 v=0
74638 On ch=1 n=f6 v=83
74852 On ch=1 n=f6 v=0
74978 On ch=1 n=f6 v=84
74986 On ch=1 n=d5 v=52
74988 On ch=1 n=b4 v=65
75030 Par ch=1 c=64 v=63
75138 Par ch=1 c=64 v=127
75202 On ch=1 n=f6 v=0
75304 On ch=1 n=f6 v=85
75528 On ch=1 n=f6 v=0
75614 On ch=1 n=f6 v=68
75616 On ch=1 n=a4 v=63
75618 On ch=1 n=c5 v=74
75644 On ch=1 n=d5 v=0
75648 On ch=1 n=b4 v=0
75746 Par ch=1 c=64 v=63
75816 Par ch=1 c=64 v=127
75840 On ch=1 n=f6 v=0
75964 On ch=1 n=f6 v=92
76258 On ch=1 n=f6 v=0
76286 On ch=1 n=a4 v=0
76286 On ch=1 n=b4 v=60
76306 On ch=1 n=g4 v=54
76324 On ch=1 n=f6 v=84
76388 On ch=1 n=c5 v=0
76486 Par ch=1 c=64 v=63
76546 Par ch=1 c=64 v=127
76732 On ch=1 n=e6 v=68
76756 On ch=1 n=f6 v=0
76758 On ch=1 n=g4 v=0
76868 On ch=1 n=d6 v=71
76922 On ch=1 n=e6 v=0
77044 On ch=1 n=f4 v=33
77046 On ch=1 n=d5 v=59
77050 On ch=1 n=d6 v=0
77050 On ch=1 n=c6 v=75
77144 Par ch=1 c=64 v=63
77146 On ch=1 n=b4 v=0
77196 Par ch=1 c=64 v=127
77204 On ch=1 n=c6 v=0
77224 On ch=1 n=b5 v=71
77382 On ch=1 n=f4 v=0
77400 On ch=1 n=a5 v=71
77414 On ch=1 n=b5 v=0
77526 On ch=1 n=a5 v=0
77560 On ch=1 n=g5 v=66
77730 On ch=1 n=e4 v=49
77778 On ch=1 n=g5 v=0
77856 On ch=1 n=d5 v=0
77858 On ch=1 n=c5 v=58
77894 On ch=1 n=g6 v=59
77902 Par ch=1 c=64 v=63
78000 Par ch=1 c=64 v=127
78150 On ch=1 n=a6 v=57
78166 On ch=1 n=e4 v=0
78170 On ch=1 n=g6 v=0
78254 On ch=1 n=a6 v=0
78298 On ch=1 n=g6 v=55
78398 On ch=1 n=g6 v=0
78410 On ch=1 n=a6 v=65
78516 On ch=1 n=a6 v=0
78534 On ch=1 n=g5 v=54
78536 On ch=1 n=g6 v=61
78630 On ch=1 n=g6 v=0
78648 On ch=1 n=a6 v=63
78658 On ch=1 n=g5 v=0
78736 On ch=1 n=g6 v=72
78738 On ch=1 n=a6 v=0
78840 On ch=1 n=a6 v=71
78842 On ch=1 n=g6 v=0
78880 On ch=1 n=g5 v=51
78930 On ch=1 n=g6 v=69
78932 On ch=1 n=a6 v=0
78978 On ch=1 n=c5 v=0
78984 On ch=1 n=g5 v=0
79010 On ch=1 n=a6 v=71
79024 On ch=1 n=g6 v=0
79094 On ch=1 n=a6 v=0
79100 On ch=1 n=g6 v=69
79182 On ch=1 n=a6 v=65
79198 On ch=1 n=g6 v=0
79264 On ch=1 n=a6 v=0
79272 On ch=1 n=g6 v=69
79298 On ch=1 n=g5 v=63
79372 On ch=1 n=a6 v=70
79374 On ch=1 n=g5 v=0
79384 On ch=1 n=g6 v=0
79466 On ch=1 n=g6 v=71
79468 On ch=1 n=a6 v=0
79564 On ch=1 n=a6 v=70
79574 On ch=1 n=g6 v=0
79618 On ch=1 n=g5 v=75
79660 On ch=1 n=g6 v=74
79664 On ch=1 n=a6 v=0
79702 On ch=1 n=g5 v=0
79756 On ch=1 n=a6 v=81
79770 On ch=1 n=g6 v=0
79844 On ch=1 n=g6 v=76
79848 On ch=1 n=a6 v=0
79944 On ch=1 n=a6 v=86
79960 On ch=1 n=g6 v=0
79976 On ch=1 n=g5 v=68
80038 On ch=1 n=g6 v=73
80040 On ch=1 n=a6 v=0
80088 On ch=1 n=g5 v=0
80122 On ch=1 n=a6 v=78
80146 On ch=1 n=g6 v=0
80220 On ch=1 n=a6 v=0
80220 On ch=1 n=g6 v=71
80298 On ch=1 n=g5 v=81
80302 On ch=1 n=a6 v=75
80306 On ch=1 n=f5 v=76
80324 On ch=1 n=g6 v=0
80398 Par ch=1 c=64 v=63
80402 On ch=1 n=g6 v=65
80406 On ch=1 n=a6 v=0
80460 Par ch=1 c=64 v=127
80494 On ch=1 n=a6 v=67
80508 On ch=1 n=g5 v=0
80512 On ch=1 n=g6 v=0
80588 On ch=1 n=g6 v=64
80590 On ch=1 n=a6 v=0
80596 On ch=1 n=g5 v=93
80672 On ch=1 n=a6 v=62
80690 On ch=1 n=g6 v=0
80762 On ch=1 n=a6 v=0
80764 On ch=1 n=g6 v=67
80842 On ch=1 n=a6 v=60
80852 On ch=1 n=g5 v=0
80866 On ch=1 n=g6 v=0
80884 On ch=1 n=f5 v=0
80948 On ch=1 n=a6 v=0
80948 On ch=1 n=g6 v=67
80968 On ch=1 n=g5 v=84
80978 On ch=1 n=e5 v=84
81014 Par ch=1 c=64 v=63
81018 On ch=1 n=a6 v=68
81052 On ch=1 n=g6 v=0
81070 Par ch=1 c=64 v=127
81132 On ch=1 n=a6 v=0
81134 On ch=1 n=g6 v=60
81228 On ch=1 n=a6 v=65
81238 On ch=1 n=g6 v=0
81300 On ch=1 n=g5 v=0
81308 On ch=1 n=e5 v=0
81320 On ch=1 n=a5 v=86
81334 On ch=1 n=a6 v=0
81350 On ch=1 n=g6 v=65
81444 On ch=1 n=a6 v=57
81446 On ch=1 n=b5 v=84
81450 On ch=1 n=g6 v=0
81522 On ch=1 n=b5 v=0
81554 On ch=1 n=g6 v=47
81568 On ch=1 n=a6 v=0
81568 On ch=1 n=c5 v=81
81636 On ch=1 n=a5 v=0
81658 On ch=1 n=a6 v=22
81678 On ch=1 n=c6 v=89
81700 On ch=1 n=g6 v=0
81738 On ch=1 n=c5 v=0
81746 On ch=1 n=a6 v=0
81756 On ch=1 n=g6 v=25
81844 On ch=1 n=b5 v=87
81856 On ch=1 n=g6 v=0
81856 On ch=1 n=c6 v=0
81862 On ch=1 n=a6 v=52
81934 On ch=1 n=a6 v=0
81970 On ch=1 n=g6 v=39
82004 On ch=1 n=a5 v=81
82020 On ch=1 n=b5 v=0
82066 On ch=1 n=g6 v=0
82076 On ch=1 n=a6 v=50
82134 On ch=1 n=g5 v=84
82146 On ch=1 n=a5 v=0
82168 On ch=1 n=a6 v=0
82176 On ch=1 n=g6 v=49
82280 On ch=1 n=g6 v=0
82292 On ch=1 n=a6 v=50
82340 On ch=1 n=d5 v=83
82348 On ch=1 n=f5 v=84
82350 On ch=1 n=g5 v=0
82378 On ch=1 n=a6 v=0
82388 On ch=1 n=g6 v=41
82410 Par ch=1 c=64 v=63
82488 On ch=1 n=g6 v=0
82492 On ch=1 n=a6 v=46
82522 Par ch=1 c=64 v=127
82562 On ch=1 n=a6 v=0
82576 On ch=1 n=g6 v=42
82682 On ch=1 n=g6 v=0
82696 On ch=1 n=a6 v=41
82704 On ch=1 n=f5 v=0
82768 On ch=1 n=a6 v=0
82774 On ch=1 n=g6 v=44
82802 On ch=1 n=f5 v=72
82878 On ch=1 n=g6 v=0
82880 On ch=1 n=a6 v=44
82954 On ch=1 n=f5 v=0
82958 On ch=1 n=a6 v=0
82972 On ch=1 n=g6 v=40
83068 On ch=1 n=g6 v=0
83076 On ch=1 n=a6 v=39
83102 On ch=1 n=d5 v=0
83130 On ch=1 n=f5 v=75
83140 On ch=1 n=a6 v=0
83140 On ch=1 n=g6 v=48
83232 On ch=1 n=f5 v=0
83238 On ch=1 n=a6 v=52
83244 On ch=1 n=g6 v=0
83322 On ch=1 n=a6 v=0
83326 On ch=1 n=g6 v=46
83422 On ch=1 n=a6 v=51
83432 On ch=1 n=g6 v=0
83466 On ch=1 n=f5 v=77
83498 On ch=1 n=a6 v=0
83502 On ch=1 n=g6 v=56
83582 On ch=1 n=f5 v=0
83608 On ch=1 n=a6 v=66
83620 On ch=1 n=g6 v=0
83700 On ch=1 n=g6 v=63
83708 On ch=1 n=a6 v=0
83800 On ch=1 n=a6 v=67
83816 On ch=1 n=g6 v=0
83816 On ch=1 n=f5 v=82
83824 On ch=1 n=d5 v=77
83836 Par ch=1 c=64 v=63
83888 On ch=1 n=g6 v=71
83894 On ch=1 n=a6 v=0
83900 Par ch=1 c=64 v=127
83984 On ch=1 n=a6 v=68
84002 On ch=1 n=g6 v=0
84024 On ch=1 n=f5 v=0
84076 On ch=1 n=g6 v=65
84086 On ch=1 n=a6 v=0
84168 On ch=1 n=a6 v=66
84178 On ch=1 n=f5 v=91
84192 On ch=1 n=g6 v=0
84260 On ch=1 n=g6 v=74
84268 On ch=1 n=a6 v=0
84340 On ch=1 n=f5 v=0
84342 On ch=1 n=a6 v=68
84372 On ch=1 n=g6 v=0
84442 On ch=1 n=g6 v=68
84446 On ch=1 n=a6 v=0
84506 On ch=1 n=b4 v=77
84508 On ch=1 n=f5 v=93
84524 On ch=1 n=a6 v=70
84552 On ch=1 n=g6 v=0
84560 On ch=1 n=d5 v=0
84628 On ch=1 n=g6 v=71
84634 On ch=1 n=a6 v=0
84700 On ch=1 n=f5 v=0
84724 On ch=1 n=a6 v=77
84742 On ch=1 n=g6 v=0
84820 On ch=1 n=g6 v=74
84830 On ch=1 n=a6 v=0
84886 On ch=1 n=f5 v=87
84916 On ch=1 n=a6 v=85
84936 On ch=1 n=g6 v=0
84942 On ch=1 n=b4 v=0
85006 On ch=1 n=g6 v=74
85022 On ch=1 n=a6 v=0
85058 On ch=1 n=f5 v=0
85100 On ch=1 n=a6 v=84
85126 On ch=1 n=g6 v=0
85194 On ch=1 n=g6 v=76
85220 On ch=1 n=a6 v=0
85228 On ch=1 n=g4 v=80
85228 On ch=1 n=f5 v=97
85260 Par ch=1 c=64 v=63
85282 On ch=1 n=a6 v=83
85318 On ch=1 n=g6 v=0
85382 On ch=1 n=g6 v=80
85388 Par ch=1 c=64 v=127
85394 On ch=1 n=a6 v=0
85474 On ch=1 n=a6 v=83
85498 On ch=1 n=g6 v=0
85498 On ch=1 n=g4 v=0
85568 On ch=1 n=g6 v=67
85580 On ch=1 n=a6 v=0
85592 On ch=1 n=e5 v=96
85644 On ch=1 n=f5 v=0
85670 On ch=1 n=a6 v=77
85686 On ch=1 n=g6 v=0
85740 On ch=1 n=d5 v=103
85774 On ch=1 n=e5 v=0
85794 On ch=1 n=g6 v=74
85808 On ch=1 n=a6 v=0
85822 On ch=1 n=d5 v=0
85904 On ch=1 n=c5 v=101
85912 On ch=1 n=a6 v=73
85916 On ch=1 n=f4 v=77
85926 On ch=1 n=g6 v=0
86020 On ch=1 n=g6 v=53
86034 On ch=1 n=a6 v=0
86058 On ch=1 n=b4 v=100
86096 On ch=1 n=c5 v=0
86120 On ch=1 n=a6 v=62
86134 On ch=1 n=g6 v=0
86216 On ch=1 n=a6 v=0
86220 On ch=1 n=g6 v=57
86236 On ch=1 n=a4 v=83
86292 On ch=1 n=b4 v=0
86322 On ch=1 n=g6 v=0
86322 On ch=1 n=a6 v=59
86338 On ch=1 n=f4 v=0
86414 On ch=1 n=g4 v=81
86432 On ch=1 n=a6 v=0
86438 On ch=1 n=g6 v=59
86488 On ch=1 n=a4 v=0
86514 On ch=1 n=a6 v=49
86562 On ch=1 n=g6 v=0
86698 On ch=1 n=e4 v=83
86700 On ch=1 n=a6 v=0
86704 On ch=1 n=c5 v=96
86746 On ch=1 n=g4 v=0
87038 Par ch=1 c=64 v=63
87096 Par ch=1 c=64 v=0
87292 On ch=1 n=g6 v=72
87328 Par ch=1 c=64 v=63
87354 Par ch=1 c=64 v=127
87370 On ch=1 n=g6 v=0
87374 On ch=1 n=a6 v=67
87438 On ch=1 n=g6 v=61
87460 On ch=1 n=a6 v=0
87520 On ch=1 n=f#6 v=94
87530 On ch=1 n=g6 v=0
87594 On ch=1 n=g6 v=74
87626 On ch=1 n=f#6 v=0
87672 Par ch=1 c=64 v=63
87716 On ch=1 n=c7 v=88
87754 On ch=1 n=g6 v=0
87792 Par ch=1 c=64 v=127
88008 On ch=1 n=c5 v=0
88014 On ch=1 n=c7 v=0
88062 On ch=1 n=e4 v=0
88150 On ch=1 n=c6 v=97
88334 On ch=1 n=c6 v=0
88646 On ch=1 n=f4 v=85
88652 On ch=1 n=f3 v=85
88662 On ch=1 n=c6 v=88
88662 On ch=1 n=e6 v=94
89032 Par ch=1 c=64 v=63
89086 Par ch=1 c=64 v=0
89174 On ch=1 n=d6 v=90
89230 Par ch=1 c=64 v=63
89254 Par ch=1 c=64 v=127
89260 On ch=1 n=e6 v=0
89524 On ch=1 n=c#6 v=105
89604 On ch=1 n=d6 v=0
89862 On ch=1 n=d6 v=102
89894 On ch=1 n=f3 v=0
89916 On ch=1 n=c#6 v=0
89966 On ch=1 n=c6 v=0
89994 On ch=1 n=f4 v=0
90190 On ch=1 n=g4 v=84
90194 On ch=1 n=g3 v=88
90210 On ch=1 n=c6 v=86
90212 On ch=1 n=f6 v=94
90284 On ch=1 n=d6 v=0
90316 Par ch=1 c=64 v=63
90332 Par ch=1 c=64 v=0
90546 Par ch=1 c=64 v=63
90554 Par ch=1 c=64 v=127
90596 On ch=1 n=e6 v=98
90670 On ch=1 n=f6 v=0
90874 On ch=1 n=d#6 v=110
90948 On ch=1 n=e6 v=0
91044 On ch=1 n=g3 v=0
91148 On ch=1 n=c6 v=0
91170 On ch=1 n=e6 v=107
91178 On ch=1 n=g4 v=0
91282 On ch=1 n=d#6 v=0
91484 On ch=1 n=e6 v=0
91486 On ch=1 n=a4 v=88
91492 On ch=1 n=a3 v=84
91510 On ch=1 n=g6 v=98
91522 On ch=1 n=c6 v=88
91814 Par ch=1 c=64 v=63
91860 Par ch=1 c=64 v=0
91912 On ch=1 n=f6 v=98
91998 On ch=1 n=g6 v=0
92252 On ch=1 n=e6 v=98
92256 Par ch=1 c=64 v=63
92264 Par ch=1 c=64 v=127
92352 On ch=1 n=f6 v=0
92568 On ch=1 n=f6 v=91
92668 On ch=1 n=e6 v=0
92762 On ch=1 n=c6 v=0
92878 On ch=1 n=f6 v=0
92978 On ch=1 n=f6 v=84
93014 On ch=1 n=c6 v=41
93052 Par ch=1 c=64 v=63
93072 Par ch=1 c=64 v=0
93148 Par ch=1 c=64 v=63
93192 On ch=1 n=a3 v=0
93196 Par ch=1 c=64 v=127
93232 On ch=1 n=a4 v=0
93468 On ch=1 n=f6 v=0
93494 On ch=1 n=g6 v=62
93588 On ch=1 n=f6 v=68
93612 On ch=1 n=g6 v=0
93692 On ch=1 n=c6 v=0
93696 On ch=1 n=f6 v=0
93698 On ch=1 n=e6 v=57
93784 On ch=1 n=f6 v=60
93806 On ch=1 n=a4 v=52
93824 On ch=1 n=e6 v=0
93848 Par ch=1 c=64 v=63
93866 Par ch=1 c=64 v=0
94132 Par ch=1 c=64 v=63
94156 Par ch=1 c=64 v=127
94182 On ch=1 n=f6 v=0
94196 On ch=1 n=g6 v=56
94204 On ch=1 n=g4 v=48
94222 On ch=1 n=e6 v=45
94266 On ch=1 n=a4 v=0
94474 Par ch=1 c=64 v=63
94518 Par ch=1 c=64 v=0
94548 On ch=1 n=f4 v=45
94548 On ch=1 n=f6 v=67
94548 On ch=1 n=a6 v=70
94558 On ch=1 n=e6 v=0
94578 On ch=1 n=g6 v=0
94672 Par ch=1 c=64 v=63
94682 On ch=1 n=g4 v=0
94708 Par ch=1 c=64 v=127
94830 On ch=1 n=f6 v=0
94842 On ch=1 n=a6 v=0
94912 On ch=1 n=g4 v=81
94924 On ch=1 n=a6 v=81
94942 On ch=1 n=f6 v=56
95000 On ch=1 n=f4 v=0
95050 Par ch=1 c=64 v=63
95100 Par ch=1 c=64 v=0
95174 On ch=1 n=f6 v=0
95186 On ch=1 n=a6 v=0
95266 On ch=1 n=a4 v=77
95276 On ch=1 n=a6 v=92
95280 Par ch=1 c=64 v=63
95286 On ch=1 n=f6 v=78
95310 Par ch=1 c=64 v=127
95334 On ch=1 n=g4 v=0
95516 On ch=1 n=a6 v=0
95518 On ch=1 n=f6 v=0
95580 Par ch=1 c=64 v=63
95610 On ch=1 n=b4 v=83
95616 On ch=1 n=a6 v=94
95622 Par ch=1 c=64 v=0
95632 On ch=1 n=f6 v=84
95656 On ch=1 n=a4 v=0
95698 Par ch=1 c=64 v=63
95768 Par ch=1 c=64 v=127
95884 On ch=1 n=f6 v=0
95890 On ch=1 n=a6 v=0
95940 Par ch=1 c=64 v=63
95962 On ch=1 n=c5 v=77
95972 On ch=1 n=a6 v=80
95974 On ch=1 n=f6 v=76
95984 Par ch=1 c=64 v=0
96012 On ch=1 n=b4 v=0
96188 Par ch=1 c=64 v=63
96216 Par ch=1 c=64 v=127
96290 On ch=1 n=g6 v=76
96302 On ch=1 n=e6 v=76
96334 On ch=1 n=f6 v=0
96350 On ch=1 n=a6 v=0
96514 On ch=1 n=c5 v=0
96614 On ch=1 n=e6 v=0
96640 Par ch=1 c=64 v=63
96652 On ch=1 n=f4 v=54
96656 On ch=1 n=g6 v=0
96668 On ch=1 n=a6 v=81
96668 On ch=1 n=f6 v=68
96670 Par ch=1 c=64 v=0
96874 Par ch=1 c=64 v=63
96900 Par ch=1 c=64 v=127
96982 On ch=1 n=f6 v=0
97088 On ch=1 n=f6 v=70
97106 On ch=1 n=f4 v=0
97108 On ch=1 n=d6 v=64
97174 On ch=1 n=a6 v=0
97216 On ch=1 n=d6 v=0
97536 On ch=1 n=e6 v=63
97538 On ch=1 n=g4 v=37
97540 On ch=1 n=c6 v=34
97574 On ch=1 n=f6 v=0
97610 Par ch=1 c=64 v=63
97634 Par ch=1 c=64 v=0
97748 Par ch=1 c=64 v=63
97802 Par ch=1 c=64 v=127
97910 On ch=1 n=g6 v=47
98006 On ch=1 n=e6 v=0
98150 On ch=1 n=f#6 v=72
98242 On ch=1 n=c6 v=0
98250 On ch=1 n=g6 v=0
98314 On ch=1 n=f#6 v=0
98328 On ch=1 n=f6 v=71
98534 On ch=1 n=e6 v=71
98598 On ch=1 n=f6 v=0
98622 Par ch=1 c=64 v=63
98668 Par ch=1 c=64 v=0
98802 On ch=1 n=f6 v=57
98830 Par ch=1 c=64 v=63
98878 On ch=1 n=e6 v=0
98880 Par ch=1 c=64 v=127
99026 On ch=1 n=g4 v=0
99080 On ch=1 n=d6 v=64
99142 On ch=1 n=f6 v=0
99308 On ch=1 n=g3 v=42
99378 On ch=1 n=d6 v=0
99408 On ch=1 n=e6 v=47
99424 Par ch=1 c=64 v=63
99434 On ch=1 n=b5 v=27
99546 Par ch=1 c=64 v=127
99660 On ch=1 n=b5 v=0
99668 On ch=1 n=d6 v=57
99716 On ch=1 n=e6 v=0
99806 On ch=1 n=d6 v=0
99828 On ch=1 n=e6 v=35
99918 On ch=1 n=e6 v=0
99918 On ch=1 n=d6 v=49
100018 On ch=1 n=d6 v=0
100034 On ch=1 n=e6 v=55
100102 On ch=1 n=e6 v=0
100114 On ch=1 n=d6 v=51
100190 On ch=1 n=g3 v=0
100196 On ch=1 n=e6 v=56
100200 On ch=1 n=d6 v=0
100260 On ch=1 n=e6 v=0
100284 On ch=1 n=d6 v=61
100360 On ch=1 n=e6 v=53
100368 On ch=1 n=d6 v=0
100472 On ch=1 n=e6 v=0
100472 On ch=1 n=d6 v=71
100538 On ch=1 n=e6 v=81
100540 On ch=1 n=d6 v=0
100584 On ch=1 n=e6 v=0
100614 On ch=1 n=d6 v=60
100714 On ch=1 n=d6 v=0
100714 On ch=1 n=c6 v=52
100822 On ch=1 n=d6 v=59
100856 On ch=1 n=c6 v=0
101070 On ch=1 n=d6 v=0
101072 Par ch=1 c=64 v=63
101086 On ch=1 n=c4 v=51
101122 Par ch=1 c=64 v=0
101598 On ch=1 n=c6 v=90
101664 Par ch=1 c=64 v=63
101668 Par ch=1 c=64 v=127
101986 On ch=1 n=c4 v=0
102106 On ch=1 n=c6 v=0
102168 On ch=1 n=c7 v=83
102652 On ch=1 n=b6 v=67
102698 On ch=1 n=c7 v=0
103018 On ch=1 n=a6 v=66
103080 Par ch=1 c=64 v=63
103100 Par ch=1 c=64 v=0
103142 Par ch=1 c=64 v=63
103172 On ch=1 n=b6 v=0
103196 Par ch=1 c=64 v=127
103226 On ch=1 n=a6 v=0
103410 On ch=1 n=c4 v=79
103434 On ch=1 n=a5 v=92
103546 Par ch=1 c=64 v=63
103642 Par ch=1 c=64 v=127
103860 On ch=1 n=c4 v=0
103860 On ch=1 n=c5 v=71
103868 On ch=1 n=a6 v=87
103932 On ch=1 n=a5 v=0
104206 On ch=1 n=b4 v=74
104244 On ch=1 n=g6 v=89
104276 On ch=1 n=c5 v=0
104312 On ch=1 n=a6 v=0
104468 Par ch=1 c=64 v=63
104498 Par ch=1 c=64 v=0
104548 On ch=1 n=f6 v=85
104566 On ch=1 n=a4 v=66
104574 Par ch=1 c=64 v=63
104598 On ch=1 n=b4 v=0
104608 Par ch=1 c=64 v=127
104646 On ch=1 n=g6 v=0
104658 On ch=1 n=a4 v=0
104688 On ch=1 n=f6 v=0
104940 On ch=1 n=a3 v=80
104944 On ch=1 n=f5 v=88
104946 Par ch=1 c=64 v=63
104954 Par ch=1 c=64 v=0
105138 Par ch=1 c=64 v=63
105148 Par ch=1 c=64 v=127
105378 On ch=1 n=a4 v=73
105380 On ch=1 n=f6 v=87
105424 On ch=1 n=f5 v=0
105444 On ch=1 n=a3 v=0
105720 On ch=1 n=g4 v=83
105734 On ch=1 n=e6 v=97
105800 On ch=1 n=a4 v=0
105816 On ch=1 n=f6 v=0
106014 On ch=1 n=d6 v=97
106034 On ch=1 n=f4 v=97
106064 On ch=1 n=g4 v=0
106072 On ch=1 n=e6 v=0
106102 On ch=1 n=d6 v=0
106106 On ch=1 n=f4 v=0
106350 On ch=1 n=f3 v=99
106358 On ch=1 n=d5 v=94
106484 Par ch=1 c=64 v=63
106498 Par ch=1 c=64 v=0
106586 Par ch=1 c=64 v=63
106624 Par ch=1 c=64 v=127
106704 On ch=1 n=f4 v=93
106716 On ch=1 n=d6 v=100
106734 On ch=1 n=d5 v=0
106982 On ch=1 n=f3 v=0
107038 On ch=1 n=e4 v=98
107050 On ch=1 n=c#6 v=107
107088 On ch=1 n=f4 v=0
107100 On ch=1 n=d6 v=0
107382 On ch=1 n=c#6 v=0
107388 On ch=1 n=e4 v=0
107434 On ch=1 n=d6 v=102
107438 On ch=1 n=f4 v=78
107472 Par ch=1 c=64 v=63
107580 Par ch=1 c=64 v=127
107584 On ch=1 n=f4 v=0
107768 On ch=1 n=d6 v=0
107880 On ch=1 n=e6 v=84
107888 On ch=1 n=a5 v=81
107896 On ch=1 n=c#4 v=73
107904 On ch=1 n=c#3 v=76
107958 Par ch=1 c=64 v=63
107980 Par ch=1 c=64 v=0
108032 Par ch=1 c=64 v=63
108072 Par ch=1 c=64 v=127
108168 On ch=1 n=c#3 v=0
108188 On ch=1 n=c#4 v=0
108250 On ch=1 n=a5 v=0
108334 On ch=1 n=e6 v=0
108350 On ch=1 n=f6 v=92
108362 On ch=1 n=a5 v=74
108368 On ch=1 n=d4 v=80
108378 On ch=1 n=d3 v=76
108564 On ch=1 n=d3 v=0
108584 On ch=1 n=f6 v=0
108606 On ch=1 n=d4 v=0
108692 On ch=1 n=a5 v=0
108716 On ch=1 n=g6 v=89
108726 On ch=1 n=c6 v=89
108734 On ch=1 n=e4 v=84
108738 On ch=1 n=e3 v=85
108854 On ch=1 n=c6 v=0
108880 On ch=1 n=e3 v=0
108930 On ch=1 n=e4 v=0
108940 On ch=1 n=g6 v=0
109046 On ch=1 n=a6 v=100
109060 On ch=1 n=f4 v=84
109064 On ch=1 n=f6 v=83
109068 On ch=1 n=f3 v=82
109098 Par ch=1 c=64 v=63
109152 Par ch=1 c=64 v=127
109284 On ch=1 n=f4 v=0
109330 On ch=1 n=f6 v=0
109336 On ch=1 n=f3 v=0
109344 On ch=1 n=a6 v=0
109426 On ch=1 n=b6 v=102
109436 On ch=1 n=d4 v=102
109436 On ch=1 n=f6 v=94
109438 On ch=1 n=d3 v=100
109726 On ch=1 n=f6 v=0
109736 On ch=1 n=d3 v=0
109748 On ch=1 n=d4 v=0
109776 On ch=1 n=b6 v=0
109866 On ch=1 n=g6 v=93
109872 On ch=1 n=c7 v=98
109872 On ch=1 n=e4 v=93
109884 On ch=1 n=e3 v=85
109948 Par ch=1 c=64 v=63
110028 Par ch=1 c=64 v=127
110138 On ch=1 n=e4 v=0
110192 On ch=1 n=g6 v=0
110204 On ch=1 n=e3 v=0
110232 On ch=1 n=c7 v=0
110312 On ch=1 n=d7 v=108
110314 On ch=1 n=g6 v=96
110316 On ch=1 n=b3 v=86
110330 On ch=1 n=b2 v=87
110346 Par ch=1 c=64 v=63
110416 Par ch=1 c=64 v=127
110772 On ch=1 n=b2 v=0
110784 On ch=1 n=b3 v=0
110796 On ch=1 n=g6 v=0
110900 On ch=1 n=e7 v=102
110904 On ch=1 n=g6 v=84
110904 On ch=1 n=c4 v=92
110912 On ch=1 n=c3 v=86
110968 On ch=1 n=d7 v=0
111108 Par ch=1 c=64 v=63
111132 Par ch=1 c=64 v=0
111240 Par ch=1 c=64 v=63
111260 Par ch=1 c=64 v=127
111570 On ch=1 n=c3 v=0
111624 On ch=1 n=e7 v=0
111702 On ch=1 n=c4 v=0
111734 On ch=1 n=c7 v=90
111840 On ch=1 n=g6 v=0
111958 On ch=1 n=a6 v=90
111958 On ch=1 n=f4 v=74
111960 On ch=1 n=f3 v=78
111972 On ch=1 n=f6 v=71
112002 Par ch=1 c=64 v=63
112006 On ch=1 n=c7 v=0
112098 Par ch=1 c=64 v=127
112290 On ch=1 n=f6 v=0
112542 On ch=1 n=f3 v=0
112594 On ch=1 n=f6 v=76
112604 On ch=1 n=f4 v=0
112606 On ch=1 n=d6 v=67
112616 On ch=1 n=a6 v=0
112714 On ch=1 n=d6 v=0
112718 On ch=1 n=f6 v=0
112826 On ch=1 n=e6 v=87
112840 On ch=1 n=g4 v=54
112856 On ch=1 n=g3 v=52
112862 On ch=1 n=c6 v=46
113006 Par ch=1 c=64 v=63
113018 Par ch=1 c=64 v=0
113286 Par ch=1 c=64 v=63
113298 Par ch=1 c=64 v=127
113396 On ch=1 n=e6 v=0
113416 On ch=1 n=f6 v=65
113512 On ch=1 n=e6 v=70
113532 On ch=1 n=f6 v=0
113586 On ch=1 n=d6 v=73
113612 On ch=1 n=e6 v=0
113704 On ch=1 n=e6 v=71
113730 On ch=1 n=d6 v=0
113808 Par ch=1 c=64 v=63
113848 Par ch=1 c=64 v=0
113924 Par ch=1 c=64 v=63
113972 Par ch=1 c=64 v=127
114122 On ch=1 n=f6 v=76
114218 On ch=1 n=e6 v=0
114226 On ch=1 n=g3 v=0
114260 On ch=1 n=c6 v=0
114296 On ch=1 n=g4 v=0
114558 On ch=1 n=g4 v=29
114560 On ch=1 n=f6 v=0
114564 On ch=1 n=g3 v=40
114594 On ch=1 n=e6 v=55
114634 On ch=1 n=b5 v=41
114650 Par ch=1 c=64 v=63
114770 Par ch=1 c=64 v=127
114868 On ch=1 n=d6 v=68
114882 On ch=1 n=b5 v=0
114952 On ch=1 n=e6 v=0
115060 On ch=1 n=d6 v=0
115072 On ch=1 n=e6 v=62
115192 On ch=1 n=e6 v=0
115198 On ch=1 n=d6 v=51
115310 On ch=1 n=d6 v=0
115316 On ch=1 n=e6 v=57
115402 On ch=1 n=e6 v=0
115414 On ch=1 n=d6 v=56
115502 On ch=1 n=d6 v=0
115508 On ch=1 n=e6 v=57
115570 On ch=1 n=e6 v=0
115600 On ch=1 n=d6 v=59
115656 On ch=1 n=e6 v=62
115660 On ch=1 n=d6 v=0
115730 On ch=1 n=e6 v=0
115736 On ch=1 n=d6 v=64
115786 On ch=1 n=e6 v=34
115824 On ch=1 n=d6 v=0
115886 On ch=1 n=e6 v=0
115886 On ch=1 n=d6 v=56
115954 On ch=1 n=e6 v=51
115956 On ch=1 n=d6 v=0
115960 On ch=1 n=g3 v=0
115994 On ch=1 n=g4 v=0
116010 On ch=1 n=e6 v=0
116036 On ch=1 n=d6 v=65
116132 On ch=1 n=d6 v=0
116132 On ch=1 n=c6 v=58
116266 On ch=1 n=d6 v=61
116304 On ch=1 n=c6 v=0
116540 On ch=1 n=d6 v=0
116554 On ch=1 n=c4 v=40
116564 Par ch=1 c=64 v=63
116566 On ch=1 n=c3 v=49
116592 Par ch=1 c=64 v=0
117056 Par ch=1 c=64 v=63
117058 On ch=1 n=d6 v=66
117072 Par ch=1 c=64 v=127
117144 On ch=1 n=c6 v=77
117146 On ch=1 n=d6 v=0
117208 On ch=1 n=b5 v=76
117246 On ch=1 n=c6 v=0
117288 On ch=1 n=b5 v=0
117304 On ch=1 n=c6 v=63
117398 Par ch=1 c=64 v=63
117430 Par ch=1 c=64 v=0
117508 Par ch=1 c=64 v=63
117546 Par ch=1 c=64 v=127
117550 On ch=1 n=c7 v=74
117592 On ch=1 n=c6 v=0
117658 On ch=1 n=c4 v=0
117668 On ch=1 n=c3 v=0
117968 On ch=1 n=b6 v=76
118004 On ch=1 n=c7 v=0
118360 On ch=1 n=b6 v=0
118360 On ch=1 n=a6 v=74
118406 On ch=1 n=a6 v=0
118700 On ch=1 n=d4 v=66
118730 On ch=1 n=b5 v=82
118740 Par ch=1 c=64 v=63
118792 On ch=1 n=c4 v=83
118800 On ch=1 n=d4 v=0
118806 On ch=1 n=a5 v=71
118812 On ch=1 n=b5 v=0
118880 Par ch=1 c=64 v=0
118884 On ch=1 n=a5 v=0
118894 On ch=1 n=b3 v=83
118896 On ch=1 n=g#5 v=77
118902 On ch=1 n=c4 v=0
118920 Par ch=1 c=64 v=63
118972 Par ch=1 c=64 v=127
118982 On ch=1 n=g#5 v=0
118984 On ch=1 n=c4 v=77
118992 On ch=1 n=a5 v=73
119006 On ch=1 n=b3 v=0
119058 On ch=1 n=c4 v=0
119122 On ch=1 n=a5 v=0
119160 On ch=1 n=a6 v=89
119170 On ch=1 n=c5 v=71
119538 Par ch=1 c=64 v=63
119554 Par ch=1 c=64 v=0
119590 On ch=1 n=b4 v=58
119592 On ch=1 n=a6 v=0
119608 On ch=1 n=g6 v=55
119638 On ch=1 n=c5 v=0
119844 Par ch=1 c=64 v=63
119862 Par ch=1 c=64 v=127
119968 On ch=1 n=f6 v=70
119970 On ch=1 n=a4 v=65
120004 On ch=1 n=b4 v=0
120008 On ch=1 n=g6 v=0
120022 On ch=1 n=f6 v=0
120038 On ch=1 n=a4 v=0
120412 Par ch=1 c=64 v=63
120420 On ch=1 n=b3 v=68
120448 On ch=1 n=g5 v=78
120490 On ch=1 n=a3 v=63
120494 Par ch=1 c=64 v=127
120496 On ch=1 n=f5 v=71
120524 On ch=1 n=g5 v=0
120524 On ch=1 n=b3 v=0
120578 Par ch=1 c=64 v=63
120590 On ch=1 n=a3 v=0
120592 On ch=1 n=g#3 v=84
120596 Par ch=1 c=64 v=0
120598 On ch=1 n=f5 v=0
120602 On ch=1 n=e5 v=73
120660 Par ch=1 c=64 v=63
120676 On ch=1 n=e5 v=0
120678 On ch=1 n=a3 v=83
120686 Par ch=1 c=64 v=127
120694 On ch=1 n=f5 v=81
120704 On ch=1 n=g#3 v=0
120748 On ch=1 n=a3 v=0
120806 On ch=1 n=f5 v=0
120838 On ch=1 n=a4 v=77
120846 On ch=1 n=f6 v=79
121312 Par ch=1 c=64 v=63
121318 On ch=1 n=e6 v=71
121326 On ch=1 n=g4 v=45
121344 On ch=1 n=f6 v=0
121366 Par ch=1 c=64 v=0
121370 On ch=1 n=a4 v=0
121466 Par ch=1 c=64 v=63
121496 Par ch=1 c=64 v=127
121906 On ch=1 n=f4 v=45
121916 Par ch=1 c=64 v=63
121924 On ch=1 n=d6 v=61
121932 On ch=1 n=e6 v=0
122006 On ch=1 n=g4 v=0
122032 Par ch=1 c=64 v=127
122094 On ch=1 n=d6 v=0
122314 On ch=1 n=d5 v=70
122450 On ch=1 n=d5 v=0
122580 On ch=1 n=e5 v=63
122682 On ch=1 n=e5 v=0
122806 On ch=1 n=f5 v=65
122822 Par ch=1 c=64 v=63
122866 On ch=1 n=f5 v=0
122914 Par ch=1 c=64 v=0
122976 On ch=1 n=g5 v=63
123072 On ch=1 n=g5 v=0
123144 On ch=1 n=a5 v=68
123250 On ch=1 n=f4 v=0
123252 On ch=1 n=a5 v=0
123304 On ch=1 n=b5 v=82
123392 On ch=1 n=b5 v=0
123474 On ch=1 n=c#6 v=87
123588 On ch=1 n=c#6 v=0
123620 On ch=1 n=f4 v=65
123626 On ch=1 n=a4 v=52
123628 On ch=1 n=d6 v=73
123706 On ch=1 n=d6 v=0
123808 On ch=1 n=d6 v=68
123922 On ch=1 n=d6 v=0
123968 On ch=1 n=e6 v=81
124088 On ch=1 n=e6 v=0
124120 On ch=1 n=f6 v=90
124210 On ch=1 n=f6 v=0
124286 On ch=1 n=g6 v=86
124430 On ch=1 n=g6 v=0
124450 On ch=1 n=a6 v=96
124610 On ch=1 n=b6 v=96
124618 On ch=1 n=a6 v=0
124634 On ch=1 n=a4 v=0
124658 On ch=1 n=f4 v=0
124764 On ch=1 n=c#7 v=104
124778 On ch=1 n=b6 v=0
124896 On ch=1 n=c#7 v=0
124922 On ch=1 n=a4 v=76
124944 On ch=1 n=f4 v=74
124960 On ch=1 n=d7 v=92
125116 On ch=1 n=e7 v=100
125142 On ch=1 n=d7 v=0
125294 On ch=1 n=f7 v=104
125326 On ch=1 n=e7 v=0
125444 On ch=1 n=e7 v=99
125526 On ch=1 n=f7 v=0
125632 On ch=1 n=d7 v=97
125660 On ch=1 n=e7 v=0
125822 On ch=1 n=d7 v=0
125828 On ch=1 n=c7 v=101
125856 On ch=1 n=f4 v=0
125976 On ch=1 n=a4 v=0
126008 On ch=1 n=b6 v=98
126086 On ch=1 n=c7 v=0
126214 On ch=1 n=a6 v=94
126218 Par ch=1 c=64 v=63
126238 Par ch=1 c=64 v=127
126280 On ch=1 n=b6 v=0
126326 On ch=1 n=a6 v=0
126546 On ch=1 n=g5 v=84
126578 On ch=1 n=g6 v=94
126580 On ch=1 n=e6 v=90
126594 On ch=1 n=c6 v=77
126606 Par ch=1 c=64 v=63
126624 Par ch=1 c=64 v=0
126636 Par ch=1 c=64 v=63
126670 Par ch=1 c=64 v=127
126736 On ch=1 n=g5 v=0
127048 On ch=1 n=g2 v=73
127358 On ch=1 n=a2 v=84
127478 On ch=1 n=g2 v=0
127564 On ch=1 n=b2 v=90
127668 On ch=1 n=a2 v=0
127766 On ch=1 n=c3 v=94
127832 On ch=1 n=b2 v=0
127938 On ch=1 n=d3 v=88
127986 On ch=1 n=c3 v=0
128116 On ch=1 n=e3 v=98
128166 On ch=1 n=d3 v=0
128276 On ch=1 n=f3 v=100
128324 On ch=1 n=e3 v=0
128448 On ch=1 n=g3 v=93
128472 On ch=1 n=f3 v=0
128504 On ch=1 n=g5 v=12
128560 Par ch=1 c=64 v=63
128580 On ch=1 n=g3 v=0
128632 On ch=1 n=g3 v=93
128656 Par ch=1 c=64 v=0
128812 On ch=1 n=a3 v=87
128890 On ch=1 n=g3 v=0
128980 On ch=1 n=b3 v=97
129056 On ch=1 n=a3 v=0
129162 On ch=1 n=c4 v=101
129236 On ch=1 n=b3 v=0
129328 On ch=1 n=d4 v=91
129386 On ch=1 n=c4 v=0
129510 On ch=1 n=e4 v=85
129542 On ch=1 n=d4 v=0
129658 On ch=1 n=f4 v=91
129694 On ch=1 n=e4 v=0
129868 On ch=1 n=g4 v=86
129880 On ch=1 n=f4 v=0
129886 On ch=1 n=g5 v=0
130038 On ch=1 n=g4 v=0
130084 On ch=1 n=g4 v=77
130286 On ch=1 n=c6 v=0
130292 On ch=1 n=a4 v=71
130346 On ch=1 n=g4 v=0
130494 On ch=1 n=b4 v=71
130564 On ch=1 n=a4 v=0
130696 On ch=1 n=c5 v=79
130762 On ch=1 n=b4 v=0
130908 On ch=1 n=d5 v=76
130920 On ch=1 n=c5 v=0
131184 On ch=1 n=e5 v=66
131238 On ch=1 n=d5 v=0
131462 On ch=1 n=f5 v=66
131520 On ch=1 n=e5 v=0
131904 On ch=1 n=g5 v=52
131940 On ch=1 n=f5 v=0
132098 Par ch=1 c=64 v=63
132106 Par ch=1 c=64 v=127
132360 On ch=1 n=g6 v=0
132476 On ch=1 n=e6 v=0
132742 On ch=1 n=a6 v=55
132746 On ch=1 n=d#6 v=63
132758 On ch=1 n=f#6 v=58
132878 On ch=1 n=d#6 v=0
132906 On ch=1 n=f#6 v=0
133062 On ch=1 n=a6 v=0
133436 On ch=1 n=d6 v=45
133438 On ch=1 n=b6 v=51
133440 On ch=1 n=f6 v=64
133616 Par ch=1 c=64 v=63
133710 Par ch=1 c=64 v=127
133842 On ch=1 n=f6 v=0
133950 On ch=1 n=c6 v=52
133964 On ch=1 n=e6 v=63
133976 On ch=1 n=c7 v=76
134008 On ch=1 n=d6 v=0
134018 Par ch=1 c=64 v=63
134020 On ch=1 n=b6 v=0
134052 Par ch=1 c=64 v=127
134228 On ch=1 n=c6 v=0
134232 On ch=1 n=c7 v=0
134278 On ch=1 n=g5 v=0
134280 On ch=1 n=e6 v=0
134648 On ch=1 n=g4 v=39
134738 On ch=1 n=d6 v=72
134762 On ch=1 n=c6 v=47
134874 Par ch=1 c=64 v=63
134890 Par ch=1 c=64 v=127
135128 On ch=1 n=e6 v=64
135180 On ch=1 n=d6 v=0
135192 On ch=1 n=c6 v=0
135342 On ch=1 n=e6 v=0
135358 On ch=1 n=d6 v=66
135510 On ch=1 n=d6 v=0
135524 On ch=1 n=e6 v=55
135632 On ch=1 n=e6 v=0
135638 On ch=1 n=d6 v=55
135748 On ch=1 n=d6 v=0
135758 On ch=1 n=e6 v=52
135828 On ch=1 n=e6 v=0
135842 On ch=1 n=d6 v=51
135894 On ch=1 n=g4 v=0
135940 On ch=1 n=d6 v=0
135946 On ch=1 n=e6 v=50
136002 On ch=1 n=e6 v=0
136026 On ch=1 n=d6 v=55
136118 On ch=1 n=d6 v=0
136118 On ch=1 n=e6 v=62
136176 On ch=1 n=e6 v=0
136206 On ch=1 n=d6 v=55
136286 On ch=1 n=e6 v=68
136290 On ch=1 n=d6 v=0
136336 On ch=1 n=e6 v=0
136366 On ch=1 n=d6 v=63
136444 On ch=1 n=e6 v=74
136456 On ch=1 n=d6 v=0
136512 On ch=1 n=e6 v=0
136530 On ch=1 n=d6 v=63
136602 On ch=1 n=e6 v=64
136610 On ch=1 n=d6 v=0
136670 On ch=1 n=e6 v=0
136682 On ch=1 n=d6 v=65
136762 On ch=1 n=e6 v=71
136770 On ch=1 n=d6 v=0
136854 On ch=1 n=e6 v=0
136854 On ch=1 n=d6 v=59
136940 On ch=1 n=e6 v=71
136946 On ch=1 n=d6 v=0
137008 On ch=1 n=g4 v=81
137078 Par ch=1 c=64 v=63
137086 On ch=1 n=d6 v=82
137100 On ch=1 n=b5 v=76
137126 On ch=1 n=e6 v=0
137136 Par ch=1 c=64 v=127
137166 On ch=1 n=f5 v=76
137216 On ch=1 n=g4 v=0
137322 On ch=1 n=f5 v=0
137356 On ch=1 n=b5 v=0
137406 On ch=1 n=e6 v=71
137416 On ch=1 n=d6 v=0
137424 On ch=1 n=g5 v=53
137530 On ch=1 n=e6 v=0
137550 On ch=1 n=g5 v=0
137560 On ch=1 n=d6 v=54
137564 On ch=1 n=f5 v=52
137648 On ch=1 n=d6 v=0
137658 On ch=1 n=f5 v=0
137664 On ch=1 n=g5 v=53
137664 On ch=1 n=e6 v=54
137726 On ch=1 n=e6 v=0
137754 On ch=1 n=d6 v=58
137778 On ch=1 n=g5 v=0
137794 On ch=1 n=f5 v=33
137836 On ch=1 n=d6 v=0
137846 On ch=1 n=f5 v=0
137846 On ch=1 n=e6 v=57
137856 On ch=1 n=g5 v=55
137898 On ch=1 n=e6 v=0
137920 On ch=1 n=d6 v=58
137952 On ch=1 n=g5 v=0
137958 On ch=1 n=f5 v=62
137996 On ch=1 n=e6 v=65
137998 On ch=1 n=d6 v=0
138008 On ch=1 n=f5 v=0
138022 On ch=1 n=g5 v=59
138048 On ch=1 n=e6 v=0
138080 On ch=1 n=d6 v=59
138120 On ch=1 n=g5 v=0
138130 On ch=1 n=f5 v=63
138156 On ch=1 n=e6 v=71
138158 On ch=1 n=d6 v=0
138178 On ch=1 n=f5 v=0
138190 On ch=1 n=g5 v=60
138204 On ch=1 n=e6 v=0
138236 On ch=1 n=d6 v=63
138290 On ch=1 n=g5 v=0
138292 On ch=1 n=f5 v=70
138310 On ch=1 n=d6 v=0
138312 On ch=1 n=e6 v=69
138352 On ch=1 n=f5 v=0
138362 On ch=1 n=g5 v=64
138364 On ch=1 n=e6 v=0
138384 On ch=1 n=d6 v=66
138448 On ch=1 n=f5 v=68
138450 On ch=1 n=g5 v=0
138476 On ch=1 n=d6 v=0
138500 On ch=1 n=f5 v=0
138520 On ch=1 n=g5 v=65
138532 On ch=1 n=d6 v=81
138568 On ch=1 n=f5 v=73
138588 On ch=1 n=e6 v=66
138590 On ch=1 n=d6 v=0
138594 On ch=1 n=g5 v=0
138634 On ch=1 n=e6 v=0
138652 On ch=1 n=d6 v=83
138758 On ch=1 n=e5 v=66
138768 On ch=1 n=f5 v=0
138776 On ch=1 n=c6 v=79
138782 On ch=1 n=d6 v=0
138978 On ch=1 n=f5 v=76
138984 On ch=1 n=d6 v=81
139036 On ch=1 n=c6 v=0
139038 On ch=1 n=e5 v=0
139260 On ch=1 n=c6 v=84
139268 On ch=1 n=e5 v=67
139290 On ch=1 n=c5 v=63
139326 Par ch=1 c=64 v=63
139352 On ch=1 n=d6 v=0
139360 Par ch=1 c=64 v=0
139366 On ch=1 n=f5 v=0
139536 Par ch=1 c=64 v=63
139560 Par ch=1 c=64 v=127
139690 On ch=1 n=c6 v=0
139928 On ch=1 n=d6 v=62
139970 On ch=1 n=e5 v=0
140000 On ch=1 n=d6 v=0
140004 On ch=1 n=c6 v=43
140082 On ch=1 n=b5 v=66
140086 On ch=1 n=c6 v=0
140178 On ch=1 n=b5 v=0
140196 On ch=1 n=c6 v=65
140312 On ch=1 n=d6 v=75
140314 On ch=1 n=a#5 v=83
140324 On ch=1 n=c6 v=0
140434 Par ch=1 c=64 v=63
140470 Par ch=1 c=64 v=0
140628 Par ch=1 c=64 v=63
140654 Par ch=1 c=64 v=127
140710 On ch=1 n=e6 v=94
140778 On ch=1 n=d6 v=0
141034 On ch=1 n=e6 v=0
141116 On ch=1 n=f6 v=86
141134 On ch=1 n=a5 v=70
141158 On ch=1 n=a#5 v=0
141350 Par ch=1 c=64 v=63
141392 Par ch=1 c=64 v=0
141636 On ch=1 n=f6 v=0
141638 On ch=1 n=g6 v=70
141846 On ch=1 n=a6 v=71
141898 On ch=1 n=g6 v=0
141914 Par ch=1 c=64 v=63
141932 Par ch=1 c=64 v=127
142052 On ch=1 n=g6 v=71
142106 On ch=1 n=a6 v=0
142210 On ch=1 n=f6 v=79
142284 On ch=1 n=g6 v=0
142376 On ch=1 n=e6 v=81
142436 On ch=1 n=f6 v=0
142454 On ch=1 n=c5 v=0
142542 On ch=1 n=d6 v=83
142588 On ch=1 n=e6 v=0
142690 On ch=1 n=a5 v=0
142752 On ch=1 n=f5 v=50
142764 On ch=1 n=c6 v=86
142770 On ch=1 n=d5 v=50
142792 On ch=1 n=d6 v=0
142798 On ch=1 n=c5 v=41
142882 Par ch=1 c=64 v=63
142912 Par ch=1 c=64 v=0
143246 Par ch=1 c=64 v=63
143258 Par ch=1 c=64 v=127
143598 On ch=1 n=c6 v=0
143682 On ch=1 n=b5 v=66
143866 On ch=1 n=b5 v=0
143890 On ch=1 n=c6 v=61
143966 On ch=1 n=c6 v=0
144008 On ch=1 n=b5 v=40
144082 On ch=1 n=b5 v=0
144084 On ch=1 n=c6 v=60
144170 On ch=1 n=c6 v=0
144182 On ch=1 n=b5 v=59
144228 On ch=1 n=b5 v=0
144230 On ch=1 n=c6 v=56
144276 On ch=1 n=c6 v=0
144308 On ch=1 n=b5 v=57
144396 On ch=1 n=b5 v=0
144404 On ch=1 n=a5 v=65
144510 On ch=1 n=b5 v=64
144530 On ch=1 n=a5 v=0
144580 On ch=1 n=f5 v=0
144642 On ch=1 n=c5 v=0
144664 On ch=1 n=d5 v=0
144770 On ch=1 n=c5 v=47
144772 On ch=1 n=e5 v=28
144772 On ch=1 n=c6 v=63
144780 On ch=1 n=b5 v=0
144900 Par ch=1 c=64 v=63
144920 Par ch=1 c=64 v=0
145028 Par ch=1 c=64 v=63
145052 Par ch=1 c=64 v=127
145136 On ch=1 n=c6 v=0
145184 On ch=1 n=e5 v=0
145234 On ch=1 n=c5 v=0
145380 On ch=1 n=c5 v=55
145672 On ch=1 n=e5 v=62
145812 On ch=1 n=c5 v=0
145912 On ch=1 n=a#4 v=65
145922 On ch=1 n=c4 v=50
145930 On ch=1 n=d5 v=55
146028 Par ch=1 c=64 v=63
146048 Par ch=1 c=64 v=127
146068 On ch=1 n=e5 v=0
146122 On ch=1 n=f5 v=76
146170 On ch=1 n=d5 v=0
146306 Par ch=1 c=64 v=63
146318 Par ch=1 c=64 v=0
146330 On ch=1 n=e5 v=73
146360 Par ch=1 c=64 v=63
146392 Par ch=1 c=64 v=127
146402 On ch=1 n=f5 v=0
146504 On ch=1 n=g5 v=72
146532 On ch=1 n=e5 v=0
146660 Par ch=1 c=64 v=63
146666 Par ch=1 c=64 v=0
146682 On ch=1 n=a#4 v=0
146720 On ch=1 n=g5 v=0
146720 On ch=1 n=f5 v=70
146728 On ch=1 n=a4 v=51
146758 Par ch=1 c=64 v=63
146772 Par ch=1 c=64 v=127
146948 On ch=1 n=f5 v=0
146956 On ch=1 n=g5 v=68
147040 On ch=1 n=f5 v=54
147054 On ch=1 n=g5 v=0
147116 On ch=1 n=f5 v=0
147122 On ch=1 n=e5 v=65
147196 On ch=1 n=f5 v=74
147234 On ch=1 n=e5 v=0
147312 On ch=1 n=g5 v=69
147324 On ch=1 n=f5 v=0
147432 Par ch=1 c=64 v=63
147454 Par ch=1 c=64 v=0
147482 Par ch=1 c=64 v=63
147484 On ch=1 n=a5 v=69
147486 On ch=1 n=g5 v=0
147544 Par ch=1 c=64 v=127
147672 On ch=1 n=g5 v=67
147708 On ch=1 n=a5 v=0
147856 On ch=1 n=f5 v=76
147902 On ch=1 n=g5 v=0
148064 On ch=1 n=e5 v=74
148112 On ch=1 n=f5 v=0
148188 On ch=1 n=c4 v=0
148248 On ch=1 n=d5 v=78
148258 On ch=1 n=e5 v=0
148286 On ch=1 n=a4 v=0
148536 On ch=1 n=d5 v=0
148548 On ch=1 n=c5 v=71
148570 On ch=1 n=d4 v=46
148582 On ch=1 n=c4 v=29
148584 On ch=1 n=f4 v=54
148720 Par ch=1 c=64 v=63
148734 Par ch=1 c=64 v=0
148940 Par ch=1 c=64 v=63
148958 Par ch=1 c=64 v=127
149066 On ch=1 n=c5 v=0
149142 On ch=1 n=f4 v=0
149162 On ch=1 n=d4 v=0
149208 On ch=1 n=c4 v=0
149646 On ch=1 n=d4 v=54
149650 On ch=1 n=g4 v=41
149650 On ch=1 n=b4 v=56
149668 On ch=1 n=f4 v=38
149824 Par ch=1 c=64 v=63
149936 Par ch=1 c=64 v=127
150158 On ch=1 n=d4 v=0
150160 On ch=1 n=b4 v=0
150164 On ch=1 n=f4 v=0
150202 On ch=1 n=g4 v=0
151080 On ch=1 n=b4 v=60
151088 On ch=1 n=d4 v=50
151088 On ch=1 n=g4 v=51
151088 On ch=1 n=c4 v=44
151100 On ch=1 n=f4 v=59
151112 On ch=1 n=c3 v=43
151298 Par ch=1 c=64 v=63
151344 Par ch=1 c=64 v=0
152138 Par ch=1 c=64 v=63
152154 Par ch=1 c=64 v=127
152936 On ch=1 n=d4 v=0
153720 On ch=1 n=b4 v=0
153766 On ch=1 n=f4 v=0
153798 On ch=1 n=e4 v=38
153810 On ch=1 n=c5 v=45
154048 Par ch=1 c=64 v=63
154078 Par ch=1 c=64 v=0
154242 Par ch=1 c=64 v=63
154264 Par ch=1 c=64 v=127
154546 On ch=1 n=c3 v=0
154590 On ch=1 n=c4 v=0
154792 On ch=1 n=e4 v=0
155044 On ch=1 n=c5 v=0
155046 On ch=1 n=g4 v=0
156094 Par ch=1 c=64 v=63
156320 On ch=1 n=e4 v=38
156366 Par ch=1 c=64 v=0
156710 Par ch=1 c=64 v=63
156822 Par ch=1 c=64 v=127
156848 On ch=1 n=g4 v=48
157046 On ch=1 n=e4 v=0
157232 On ch=1 n=c5 v=63
157370 On ch=1 n=g4 v=0
157594 On ch=1 n=e5 v=69
157660 On ch=1 n=c5 v=0
157782 On ch=1 n=e5 v=0
158022 On ch=1 n=g5 v=82
158354 Par ch=1 c=64 v=63
158448 Par ch=1 c=64 v=127
158740 On ch=1 n=g5 v=0
158804 On ch=1 n=g5 v=71
158816 On ch=1 n=c4 v=32
158840 On ch=1 n=g3 v=52
158842 On ch=1 n=e3 v=53
158870 On ch=1 n=c3 v=34
158992 Par ch=1 c=64 v=63
159052 Par ch=1 c=64 v=127
159488 On ch=1 n=c3 v=0
159500 On ch=1 n=e3 v=0
159506 On ch=1 n=g3 v=0
159510 On ch=1 n=c4 v=0
159542 On ch=1 n=g5 v=0
159632 On ch=1 n=g5 v=70
159636 On ch=1 n=c4 v=59
159650 On ch=1 n=g3 v=57
159658 On ch=1 n=e3 v=56
159676 On ch=1 n=c3 v=44
159876 Par ch=1 c=64 v=63
159978 Par ch=1 c=64 v=127
160216 On ch=1 n=c3 v=0
160220 On ch=1 n=e3 v=0
160222 On ch=1 n=g3 v=0
160222 On ch=1 n=c4 v=0
160394 On ch=1 n=c4 v=54
160410 On ch=1 n=g3 v=53
160420 On ch=1 n=e3 v=52
160446 On ch=1 n=c3 v=26
160478 On ch=1 n=g5 v=0
160528 On ch=1 n=c3 v=0
160542 On ch=1 n=e3 v=0
160548 On ch=1 n=g3 v=0
160568 On ch=1 n=c4 v=0
161142 On ch=1 n=a5 v=65
161148 On ch=1 n=c4 v=21
161162 On ch=1 n=g3 v=37
161162 On ch=1 n=e3 v=42
161172 On ch=1 n=c3 v=32
161336 Par ch=1 c=64 v=63
161470 Par ch=1 c=64 v=127
161602 On ch=1 n=g5 v=76
161676 On ch=1 n=a5 v=0
161774 On ch=1 n=c3 v=0
161780 On ch=1 n=e3 v=0
161796 On ch=1 n=g3 v=0
161812 On ch=1 n=c4 v=0
161932 On ch=1 n=f5 v=84
161950 On ch=1 n=c4 v=43
161970 On ch=1 n=g3 v=49
161976 On ch=1 n=e3 v=50
161996 On ch=1 n=c3 v=42
162058 On ch=1 n=g5 v=0
162136 Par ch=1 c=64 v=63
162278 On ch=1 n=e5 v=85
162298 Par ch=1 c=64 v=127
162398 On ch=1 n=f5 v=0
162552 On ch=1 n=e5 v=0
162596 On ch=1 n=c3 v=0
162600 On ch=1 n=e3 v=0
162626 On ch=1 n=e5 v=79
162644 On ch=1 n=g3 v=0
162722 On ch=1 n=c4 v=0
162728 Par ch=1 c=64 v=63
162800 Par ch=1 c=64 v=0
163376 On ch=1 n=d5 v=76
163386 On ch=1 n=f4 v=43
163388 On ch=1 n=d4 v=57
163416 On ch=1 n=a3 v=54
163416 On ch=1 n=f3 v=50
163458 On ch=1 n=e5 v=0
163520 Par ch=1 c=64 v=63
163528 Par ch=1 c=64 v=127
163830 On ch=1 n=f3 v=0
163874 On ch=1 n=d4 v=0
163892 On ch=1 n=a3 v=0
163898 On ch=1 n=f4 v=0
163946 On ch=1 n=d5 v=0
164112 On ch=1 n=d5 v=81
164116 On ch=1 n=f4 v=32
164116 On ch=1 n=d4 v=50
164142 On ch=1 n=a3 v=36
164152 On ch=1 n=f3 v=43
164302 On ch=1 n=f3 v=0
164326 On ch=1 n=d4 v=0
164338 On ch=1 n=a3 v=0
164344 On ch=1 n=f4 v=0
164798 On ch=1 n=d5 v=0
164860 On ch=1 n=d4 v=53
164864 On ch=1 n=f4 v=39
164882 On ch=1 n=f3 v=39
164882 On ch=1 n=a3 v=45
165048 On ch=1 n=f3 v=0
165062 On ch=1 n=d4 v=0
165070 On ch=1 n=f4 v=0
165078 On ch=1 n=a3 v=0
165558 On ch=1 n=d4 v=41
165564 On ch=1 n=g5 v=61
165566 On ch=1 n=f4 v=25
165578 On ch=1 n=f3 v=28
165584 On ch=1 n=a3 v=43
166002 On ch=1 n=f5 v=72
166074 On ch=1 n=a3 v=0
166092 On ch=1 n=d4 v=0
166094 On ch=1 n=f3 v=0
166096 On ch=1 n=g5 v=0
166112 On ch=1 n=f4 v=0
166310 On ch=1 n=e5 v=83
166342 On ch=1 n=f4 v=24
166344 On ch=1 n=d4 v=49
166352 On ch=1 n=f3 v=35
166360 On ch=1 n=a3 v=46
166414 On ch=1 n=f5 v=0
166668 On ch=1 n=d5 v=88
166736 On ch=1 n=e5 v=0
166898 On ch=1 n=f3 v=0
166938 On ch=1 n=d5 v=0
166958 On ch=1 n=a3 v=0
167002 On ch=1 n=d5 v=90
167016 On ch=1 n=d4 v=0
167064 On ch=1 n=f4 v=0
167270 Par ch=1 c=64 v=63
167360 On ch=1 n=c5 v=92
167390 Par ch=1 c=64 v=127
167498 On ch=1 n=d5 v=0
167672 On ch=1 n=c5 v=0
167722 On ch=1 n=g4 v=34
167734 On ch=1 n=e4 v=54
167738 On ch=1 n=c5 v=94
167746 On ch=1 n=g3 v=41
167748 On ch=1 n=c4 v=43
167834 Par ch=1 c=64 v=63
167874 Par ch=1 c=64 v=0
167974 Par ch=1 c=64 v=63
168008 Par ch=1 c=64 v=127
168252 On ch=1 n=g3 v=0
168284 On ch=1 n=g4 v=0
168286 On ch=1 n=e4 v=0
168294 On ch=1 n=c4 v=0
168474 On ch=1 n=g4 v=39
168484 On ch=1 n=e4 v=59
168492 On ch=1 n=c4 v=49
168508 On ch=1 n=g3 v=40
168758 On ch=1 n=c5 v=0
168894 On ch=1 n=d5 v=71
168898 On ch=1 n=g3 v=0
168934 On ch=1 n=c4 v=0
168944 On ch=1 n=e4 v=0
168954 On ch=1 n=g4 v=0
169010 On ch=1 n=c5 v=84
169058 On ch=1 n=d5 v=0
169164 On ch=1 n=b4 v=82
169194 On ch=1 n=g4 v=54
169206 On ch=1 n=e4 v=63
169210 On ch=1 n=c4 v=56
169222 On ch=1 n=g3 v=47
169224 On ch=1 n=c5 v=0
169340 Par ch=1 c=64 v=63
169472 Par ch=1 c=64 v=127
169518 On ch=1 n=c5 v=100
169586 On ch=1 n=b4 v=0
169626 On ch=1 n=g3 v=0
169678 On ch=1 n=g4 v=0
169716 On ch=1 n=c4 v=0
169732 On ch=1 n=e4 v=0
169828 On ch=1 n=e5 v=83
169854 On ch=1 n=g4 v=52
169860 On ch=1 n=g3 v=50
169860 On ch=1 n=f4 v=59
169872 On ch=1 n=b3 v=67
169910 On ch=1 n=c5 v=0
169980 Par ch=1 c=64 v=63
170042 Par ch=1 c=64 v=0
170088 Par ch=1 c=64 v=63
170138 Par ch=1 c=64 v=127
170230 On ch=1 n=d5 v=100
170284 On ch=1 n=e5 v=0
170470 On ch=1 n=b3 v=0
170470 On ch=1 n=f4 v=0
170474 On ch=1 n=g3 v=0
170476 On ch=1 n=g4 v=0
170584 On ch=1 n=c5 v=88
170594 On ch=1 n=g4 v=49
170596 On ch=1 n=d4 v=71
170598 On ch=1 n=g3 v=55
170598 On ch=1 n=f4 v=56
170666 On ch=1 n=d5 v=0
170690 Par ch=1 c=64 v=63
170822 Par ch=1 c=64 v=127
170932 On ch=1 n=b4 v=91
171020 On ch=1 n=c5 v=0
171140 On ch=1 n=g3 v=0
171178 On ch=1 n=f4 v=0
171178 On ch=1 n=d4 v=0
171186 On ch=1 n=g4 v=0
171316 On ch=1 n=c5 v=82
171370 Par ch=1 c=64 v=63
171376 On ch=1 n=b4 v=0
171378 Par ch=1 c=64 v=0
171554 Par ch=1 c=64 v=63
171564 Par ch=1 c=64 v=127
171816 On ch=1 n=c5 v=0
171824 On ch=1 n=d5 v=65
171954 On ch=1 n=c5 v=52
171978 On ch=1 n=d5 v=0
172054 On ch=1 n=b4 v=64
172084 On ch=1 n=c5 v=0
172164 On ch=1 n=e3 v=49
172166 On ch=1 n=g3 v=44
172184 On ch=1 n=c4 v=51
172194 On ch=1 n=c5 v=84
172196 On ch=1 n=e4 v=62
172240 On ch=1 n=b4 v=0
172342 On ch=1 n=c5 v=0
172656 On ch=1 n=g6 v=89
172778 On ch=1 n=g3 v=0
172784 On ch=1 n=e3 v=0
172838 On ch=1 n=c4 v=0
172868 On ch=1 n=e4 v=0
173070 On ch=1 n=g6 v=0
173118 On ch=1 n=e4 v=57
173124 On ch=1 n=c4 v=59
173128 On ch=1 n=e3 v=35
173134 On ch=1 n=g3 v=55
173154 On ch=1 n=g6 v=101
173642 On ch=1 n=e3 v=0
173656 On ch=1 n=c4 v=0
173664 On ch=1 n=g3 v=0
173666 On ch=1 n=e4 v=0
173874 On ch=1 n=e3 v=59
173880 On ch=1 n=c4 v=67
173882 On ch=1 n=g3 v=57
173882 On ch=1 n=e4 v=70
174276 On ch=1 n=f#6 v=105
174330 On ch=1 n=g6 v=0
174394 On ch=1 n=g6 v=91
174416 On ch=1 n=e3 v=0
174442 On ch=1 n=g3 v=0
174446 On ch=1 n=c4 v=0
174450 On ch=1 n=e4 v=0
174468 On ch=1 n=f#6 v=0
174594 On ch=1 n=e4 v=66
174598 On ch=1 n=a6 v=92
174600 On ch=1 n=c4 v=72
174606 On ch=1 n=e3 v=63
174610 On ch=1 n=g3 v=63
174678 On ch=1 n=g6 v=0
174712 Par ch=1 c=64 v=63
174722 Par ch=1 c=64 v=0
174900 Par ch=1 c=64 v=63
174920 Par ch=1 c=64 v=127
174972 On ch=1 n=g6 v=99
175046 On ch=1 n=a6 v=0
175234 On ch=1 n=e3 v=0
175262 On ch=1 n=c4 v=0
175264 On ch=1 n=g3 v=0
175270 On ch=1 n=e4 v=0
175348 On ch=1 n=e4 v=79
175354 On ch=1 n=f6 v=93
175354 On ch=1 n=c4 v=76
175360 On ch=1 n=e3 v=67
175362 On ch=1 n=g3 v=58
175460 On ch=1 n=g6 v=0
175490 Par ch=1 c=64 v=63
175600 Par ch=1 c=64 v=127
175754 On ch=1 n=e6 v=98
175816 On ch=1 n=e3 v=0
175838 On ch=1 n=f6 v=0
175854 On ch=1 n=g3 v=0
175900 On ch=1 n=c4 v=0
175996 On ch=1 n=e4 v=0
176196 On ch=1 n=f3 v=42
176208 On ch=1 n=d4 v=68
176210 On ch=1 n=a3 v=55
176218 On ch=1 n=f4 v=76
176242 On ch=1 n=d6 v=84
176296 On ch=1 n=e6 v=0
176308 Par ch=1 c=64 v=63
176338 Par ch=1 c=64 v=0
176464 Par ch=1 c=64 v=63
176482 Par ch=1 c=64 v=127
176646 On ch=1 n=d6 v=0
176880 On ch=1 n=g#6 v=72
177136 On ch=1 n=a6 v=65
177158 On ch=1 n=g#6 v=0
177290 On ch=1 n=a6 v=0
177374 On ch=1 n=g6 v=76
177432 Par ch=1 c=64 v=63
177540 Par ch=1 c=64 v=127
177546 On ch=1 n=f6 v=78
177624 On ch=1 n=g6 v=0
177654 On ch=1 n=f6 v=0
177706 On ch=1 n=f3 v=0
177732 On ch=1 n=a3 v=0
177738 On ch=1 n=e6 v=88
177754 On ch=1 n=d4 v=0
177796 On ch=1 n=f4 v=0
177900 On ch=1 n=d6 v=91
177986 On ch=1 n=e6 v=0
178022 On ch=1 n=d6 v=0
178086 Par ch=1 c=64 v=63
178100 Par ch=1 c=64 v=0
178108 On ch=1 n=e5 v=77
178110 On ch=1 n=c6 v=87
178118 On ch=1 n=c5 v=73
178120 On ch=1 n=g4 v=70
178686 On ch=1 n=c6 v=0
178694 On ch=1 n=d6 v=77
178744 Par ch=1 c=64 v=63
178752 Par ch=1 c=64 v=127
178764 On ch=1 n=c6 v=71
178808 On ch=1 n=d6 v=0
178840 On ch=1 n=b5 v=76
178870 On ch=1 n=c6 v=0
178934 On ch=1 n=c6 v=91
178982 Par ch=1 c=64 v=63
178994 Par ch=1 c=64 v=0
179068 On ch=1 n=b5 v=0
179236 Par ch=1 c=64 v=63
179250 Par ch=1 c=64 v=127
179310 On ch=1 n=e6 v=91
179416 On ch=1 n=g4 v=0
179438 On ch=1 n=e5 v=0
179454 On ch=1 n=c5 v=0
179478 On ch=1 n=c6 v=0
179674 On ch=1 n=e6 v=0
179802 On ch=1 n=f5 v=41
179812 On ch=1 n=d5 v=52
179814 On ch=1 n=e6 v=70
179824 On ch=1 n=g4 v=39
180070 Par ch=1 c=64 v=63
180096 Par ch=1 c=64 v=0
180346 On ch=1 n=d6 v=68
180412 Par ch=1 c=64 v=63
180422 On ch=1 n=e6 v=0
180428 Par ch=1 c=64 v=127
180772 On ch=1 n=c6 v=61
180794 On ch=1 n=d6 v=0
180868 Par ch=1 c=64 v=63
180952 Par ch=1 c=64 v=127
181150 On ch=1 n=f5 v=0
181220 On ch=1 n=d5 v=0
181260 On ch=1 n=g4 v=0
181274 On ch=1 n=b5 v=59
181392 On ch=1 n=c6 v=0
181922 On ch=1 n=b5 v=0
181938 On ch=1 n=c3 v=36
181958 On ch=1 n=c6 v=59
182040 Par ch=1 c=64 v=63
182076 Par ch=1 c=64 v=127
182294 On ch=1 n=d#3 v=51
182454 On ch=1 n=c3 v=0
182518 On ch=1 n=g3 v=49
182566 On ch=1 n=d#3 v=0
182708 On ch=1 n=c6 v=0
182750 On ch=1 n=c4 v=36
182768 On ch=1 n=g3 v=0
182972 On ch=1 n=g3 v=49
182986 On ch=1 n=c4 v=0
183164 On ch=1 n=d#3 v=64
183174 On ch=1 n=g3 v=0
183378 On ch=1 n=d#3 v=0
183382 On ch=1 n=c3 v=54
183606 On ch=1 n=d#3 v=70
183622 On ch=1 n=c3 v=0
183794 On ch=1 n=g3 v=62
183806 On ch=1 n=d#3 v=0
184004 On ch=1 n=c4 v=50
184008 On ch=1 n=g3 v=0
184036 On ch=1 n=c5 v=71
184146 On ch=1 n=c5 v=0
184198 On ch=1 n=d5 v=52
184204 On ch=1 n=g3 v=54
184212 On ch=1 n=c4 v=0
184256 On ch=1 n=d5 v=0
184288 On ch=1 n=c5 v=68
184350 On ch=1 n=c5 v=0
184366 On ch=1 n=d5 v=55
184416 On ch=1 n=d5 v=0
184432 On ch=1 n=c5 v=68
184436 On ch=1 n=d#3 v=54
184444 On ch=1 n=g3 v=0
184476 On ch=1 n=d5 v=83
184488 On ch=1 n=c5 v=0
184542 On ch=1 n=d5 v=0
184568 On ch=1 n=c5 v=52
184618 On ch=1 n=c5 v=0
184620 On ch=1 n=b4 v=82
184690 On ch=1 n=c5 v=70
184702 On ch=1 n=b4 v=0
184716 On ch=1 n=d#3 v=0
184728 On ch=1 n=c3 v=52
184792 On ch=1 n=d#5 v=99
184816 On ch=1 n=c5 v=0
184932 Par ch=1 c=64 v=63
185026 On ch=1 n=d#3 v=78
185034 Par ch=1 c=64 v=127
185212 On ch=1 n=g3 v=80
185224 On ch=1 n=c3 v=0
185298 On ch=1 n=d#5 v=0
185334 On ch=1 n=d#3 v=0
185420 On ch=1 n=g5 v=97
185432 On ch=1 n=c4 v=77
185468 On ch=1 n=g3 v=0
185658 On ch=1 n=g3 v=89
185728 On ch=1 n=c4 v=0
185754 On ch=1 n=g5 v=0
185850 On ch=1 n=d#3 v=97
185928 On ch=1 n=g3 v=0
186064 On ch=1 n=d3 v=89
186066 On ch=1 n=g5 v=100
186082 On ch=1 n=a4 v=77
186084 On ch=1 n=c5 v=97
186120 On ch=1 n=d#3 v=0
186208 Par ch=1 c=64 v=63
186334 Par ch=1 c=64 v=127
186350 On ch=1 n=f#3 v=82
186552 On ch=1 n=a3 v=77
186690 On ch=1 n=f#3 v=0
186760 On ch=1 n=f#5 v=88
186778 On ch=1 n=d4 v=62
186788 On ch=1 n=g5 v=0
186788 Par ch=1 c=64 v=63
186816 On ch=1 n=a3 v=0
186902 Par ch=1 c=64 v=127
186992 On ch=1 n=a3 v=57
187020 On ch=1 n=d4 v=0
187084 On ch=1 n=d3 v=0
187174 On ch=1 n=a4 v=0
187192 On ch=1 n=f#3 v=72
187222 On ch=1 n=c5 v=0
187236 On ch=1 n=a3 v=0
187344 On ch=1 n=f#5 v=0
187404 On ch=1 n=d3 v=46
187410 On ch=1 n=f#3 v=0
187606 On ch=1 n=f#3 v=73
187780 On ch=1 n=a3 v=58
187854 On ch=1 n=f#3 v=0
187854 On ch=1 n=d3 v=0
188004 On ch=1 n=a6 v=84
188006 On ch=1 n=a3 v=0
188012 On ch=1 n=d4 v=46
188016 On ch=1 n=f#6 v=71
188126 On ch=1 n=f#6 v=0
188234 On ch=1 n=d4 v=0
188244 On ch=1 n=a3 v=51
188296 On ch=1 n=a6 v=0
188414 On ch=1 n=f#3 v=69
188446 On ch=1 n=a3 v=0
188636 On ch=1 n=f#3 v=0
188642 On ch=1 n=d3 v=51
188660 On ch=1 n=c7 v=71
188666 On ch=1 n=a6 v=38
188868 On ch=1 n=c7 v=0
188874 On ch=1 n=f#3 v=63
188904 On ch=1 n=a6 v=0
189064 On ch=1 n=d3 v=0
189072 On ch=1 n=a3 v=55
189152 On ch=1 n=f#3 v=0
189296 On ch=1 n=a3 v=0
189298 On ch=1 n=c6 v=62
189304 On ch=1 n=d4 v=50
189312 On ch=1 n=a5 v=50
189526 On ch=1 n=a5 v=0
189532 On ch=1 n=a3 v=50
189542 On ch=1 n=d4 v=0
189582 On ch=1 n=c6 v=0
189704 On ch=1 n=f#3 v=78
189750 On ch=1 n=a3 v=0
189814 On ch=1 n=f#3 v=0
189940 On ch=1 n=g3 v=64
189942 On ch=1 n=a5 v=47
189946 On ch=1 n=d6 v=65
190058 Par ch=1 c=64 v=63
190148 On ch=1 n=c6 v=68
190182 Par ch=1 c=64 v=127
190188 On ch=1 n=a#3 v=60
190196 On ch=1 n=d6 v=0
190368 On ch=1 n=d4 v=76
190370 On ch=1 n=a5 v=0
190558 On ch=1 n=a#5 v=79
190574 On ch=1 n=g5 v=49
190578 On ch=1 n=g4 v=51
190620 On ch=1 n=d4 v=0
190620 On ch=1 n=c6 v=0
190684 On ch=1 n=a#3 v=0
190698 Par ch=1 c=64 v=63
190706 Par ch=1 c=64 v=127
190780 On ch=1 n=d4 v=73
190878 On ch=1 n=g4 v=0
190936 On ch=1 n=g5 v=0
190972 On ch=1 n=a#3 v=89
191020 On ch=1 n=g3 v=0
191028 On ch=1 n=a#5 v=0
191056 On ch=1 n=d4 v=0
191176 On ch=1 n=g3 v=80
191236 On ch=1 n=a#3 v=0
191412 On ch=1 n=a#3 v=80
191586 On ch=1 n=d4 v=76
191752 On ch=1 n=a#3 v=0
191778 On ch=1 n=g4 v=61
191786 On ch=1 n=d5 v=88
191792 On ch=1 n=d4 v=0
191880 On ch=1 n=d5 v=0
191904 On ch=1 n=e5 v=62
191952 On ch=1 n=d4 v=72
191960 On ch=1 n=e5 v=0
191966 On ch=1 n=g4 v=0
191988 On ch=1 n=d5 v=77
192030 On ch=1 n=g3 v=0
192054 On ch=1 n=e5 v=39
192056 On ch=1 n=d5 v=0
192108 On ch=1 n=e5 v=0
192116 On ch=1 n=d5 v=75
192160 On ch=1 n=e5 v=96
192166 On ch=1 n=a#3 v=49
192182 On ch=1 n=d5 v=0
192204 On ch=1 n=d4 v=0
192236 On ch=1 n=e5 v=0
192246 On ch=1 n=d5 v=97
192326 On ch=1 n=d5 v=0
192330 On ch=1 n=c#5 v=90
192384 On ch=1 n=d5 v=87
192396 On ch=1 n=c#5 v=0
192412 On ch=1 n=g3 v=80
192418 On ch=1 n=a#3 v=0
192482 On ch=1 n=g5 v=101
192528 On ch=1 n=d5 v=0
192530 Par ch=1 c=64 v=63
192634 Par ch=1 c=64 v=127
192698 On ch=1 n=a#3 v=89
192804 On ch=1 n=g5 v=0
192898 On ch=1 n=d4 v=102
193078 On ch=1 n=g4 v=85
193110 On ch=1 n=a#5 v=116
193136 On ch=1 n=d4 v=0
193158 On ch=1 n=a#3 v=0
193330 On ch=1 n=d4 v=103
193340 On ch=1 n=a#5 v=0
193398 On ch=1 n=g4 v=0
193472 On ch=1 n=g3 v=0
193492 On ch=1 n=a#3 v=96
193586 On ch=1 n=d4 v=0
193694 On ch=1 n=a3 v=87
193708 On ch=1 n=d6 v=104
193714 On ch=1 n=g5 v=89
193720 On ch=1 n=e5 v=87
193760 Par ch=1 c=64 v=63
193772 On ch=1 n=a#3 v=0
193782 Par ch=1 c=64 v=0
193896 Par ch=1 c=64 v=63
193948 Par ch=1 c=64 v=127
193958 On ch=1 n=c#4 v=87
194152 On ch=1 n=e4 v=91
194272 On ch=1 n=d6 v=0
194326 On ch=1 n=c#4 v=0
194352 On ch=1 n=c#6 v=98
194376 On ch=1 n=a4 v=60
194396 On ch=1 n=e4 v=0
194474 On ch=1 n=a3 v=0
194566 On ch=1 n=e4 v=68
194576 On ch=1 n=a4 v=0
194584 On ch=1 n=e5 v=0
194640 On ch=1 n=g5 v=0
194770 On ch=1 n=c#4 v=81
194792 On ch=1 n=e4 v=0
194834 On ch=1 n=c#6 v=0
194974 On ch=1 n=a3 v=76
195020 On ch=1 n=c#4 v=0
195196 On ch=1 n=c#4 v=78
195332 Par ch=1 c=64 v=63
195372 On ch=1 n=e4 v=76
195386 Par ch=1 c=64 v=127
195586 On ch=1 n=e6 v=99
195588 On ch=1 n=a4 v=50
195616 On ch=1 n=c#6 v=70
195650 On ch=1 n=e4 v=0
195766 On ch=1 n=c#4 v=0
195816 On ch=1 n=e4 v=63
195840 On ch=1 n=a4 v=0
195848 On ch=1 n=c#6 v=0
195964 On ch=1 n=e6 v=0
195964 On ch=1 n=a3 v=0
195990 On ch=1 n=c#4 v=74
196068 On ch=1 n=e4 v=0
196220 On ch=1 n=a3 v=55
196222 On ch=1 n=e6 v=64
196230 On ch=1 n=g6 v=80
196262 On ch=1 n=c#4 v=0
196276 Par ch=1 c=64 v=63
196334 Par ch=1 c=64 v=127
196444 On ch=1 n=g6 v=0
196446 On ch=1 n=c#4 v=72
196478 On ch=1 n=e6 v=0
196638 On ch=1 n=e4 v=75
196830 On ch=1 n=g5 v=72
196834 On ch=1 n=a4 v=63
196842 On ch=1 n=e5 v=71
196866 On ch=1 n=e4 v=0
196888 On ch=1 n=a3 v=0
196938 On ch=1 n=c#4 v=0
197088 On ch=1 n=a4 v=0
197088 On ch=1 n=e4 v=62
197098 On ch=1 n=e5 v=0
197146 On ch=1 n=g5 v=0
197246 On ch=1 n=c#4 v=64
197300 On ch=1 n=e4 v=0
197462 On ch=1 n=a#3 v=69
197480 On ch=1 n=c#4 v=0
197480 Par ch=1 c=64 v=63
197500 On ch=1 n=g5 v=78
197508 Par ch=1 c=64 v=127
197510 On ch=1 n=e5 v=65
197662 On ch=1 n=g5 v=0
197680 On ch=1 n=e5 v=0
197680 On ch=1 n=a5 v=75
197716 On ch=1 n=d4 v=69
197788 On ch=1 n=a5 v=0
197794 On ch=1 n=g5 v=62
197860 On ch=1 n=f4 v=65
197872 On ch=1 n=a5 v=67
197882 On ch=1 n=g5 v=0
197954 On ch=1 n=a5 v=0
197984 On ch=1 n=d4 v=0
198018 On ch=1 n=a5 v=79
198048 On ch=1 n=a#4 v=72
198076 On ch=1 n=f4 v=0
198100 On ch=1 n=g5 v=66
198122 On ch=1 n=a5 v=0
198214 On ch=1 n=f5 v=86
198238 On ch=1 n=d5 v=76
198264 On ch=1 n=g5 v=0
198320 Par ch=1 c=64 v=63
198440 Par ch=1 c=64 v=127
198456 On ch=1 n=f4 v=65
198462 On ch=1 n=a#4 v=0
198602 On ch=1 n=a#3 v=0
198608 On ch=1 n=d4 v=85
198648 On ch=1 n=d5 v=0
198668 On ch=1 n=f4 v=0
198746 On ch=1 n=f5 v=0
198792 On ch=1 n=a#3 v=89
198870 On ch=1 n=d4 v=0
199034 On ch=1 n=d4 v=89
199230 On ch=1 n=f4 v=87
199400 On ch=1 n=d4 v=0
199440 On ch=1 n=a#4 v=81
199458 On ch=1 n=d6 v=83
199492 On ch=1 n=f4 v=0
199576 On ch=1 n=d6 v=0
199602 On ch=1 n=e6 v=74
199660 On ch=1 n=f4 v=65
199672 On ch=1 n=a#4 v=0
199682 On ch=1 n=d6 v=80
199690 On ch=1 n=e6 v=0
199738 On ch=1 n=a#3 v=0
199770 On ch=1 n=d6 v=0
199804 On ch=1 n=d4 v=75
199822 On ch=1 n=c#6 v=81
199840 On ch=1 n=f4 v=0
199912 On ch=1 n=d6 v=88
199928 On ch=1 n=c#6 v=0
200036 On ch=1 n=a#3 v=90
200036 On ch=1 n=f6 v=98
200066 On ch=1 n=d6 v=0
200124 On ch=1 n=d4 v=0
200152 Par ch=1 c=64 v=63
200238 Par ch=1 c=64 v=127
200334 On ch=1 n=d4 v=80
200442 On ch=1 n=f6 v=0
200524 On ch=1 n=f4 v=84
200738 On ch=1 n=a#4 v=84
200746 On ch=1 n=a#5 v=98
200754 On ch=1 n=d4 v=0
200796 On ch=1 n=f4 v=0
200822 On ch=1 n=a#5 v=0
200976 On ch=1 n=f4 v=72
200978 On ch=1 n=a#4 v=0
201006 On ch=1 n=a#3 v=0
201164 On ch=1 n=d4 v=90
201234 On ch=1 n=f4 v=0
201358 On ch=1 n=a5 v=101
201374 On ch=1 n=d5 v=84
201374 On ch=1 n=a#3 v=88
201376 On ch=1 n=f5 v=89
201482 On ch=1 n=d4 v=0
201508 Par ch=1 c=64 v=63
201530 Par ch=1 c=64 v=0
201584 Par ch=1 c=64 v=63
201638 Par ch=1 c=64 v=127
201648 On ch=1 n=d4 v=74
201812 On ch=1 n=f4 v=82
201960 Par ch=1 c=64 v=63
202012 On ch=1 n=g#5 v=105
202018 On ch=1 n=a#4 v=80
202050 Par ch=1 c=64 v=127
202092 On ch=1 n=f4 v=0
202098 On ch=1 n=d4 v=0
202104 On ch=1 n=a5 v=0
202234 On ch=1 n=f4 v=84
202298 On ch=1 n=a#4 v=0
202334 On ch=1 n=a#3 v=0
202354 On ch=1 n=d5 v=0
202402 On ch=1 n=f5 v=0
202414 On ch=1 n=d4 v=93
202478 On ch=1 n=f4 v=0
202492 On ch=1 n=g#5 v=0
202604 On ch=1 n=a#3 v=99
202672 On ch=1 n=d4 v=0
202836 On ch=1 n=d4 v=89
202984 On ch=1 n=f4 v=90
203134 On ch=1 n=d4 v=0
203204 On ch=1 n=a#4 v=86
203204 On ch=1 n=d6 v=107
203248 On ch=1 n=f4 v=0
203304 On ch=1 n=d6 v=0
203340 On ch=1 n=e6 v=76
203396 On ch=1 n=f4 v=74
203398 On ch=1 n=a#4 v=0
203420 On ch=1 n=d6 v=76
203422 On ch=1 n=e6 v=0
203448 On ch=1 n=a#3 v=0
203500 On ch=1 n=e6 v=84
203502 On ch=1 n=d6 v=0
203564 On ch=1 n=d4 v=74
203584 On ch=1 n=d6 v=82
203598 On ch=1 n=e6 v=0
203600 On ch=1 n=f4 v=0
203648 On ch=1 n=c#6 v=103
203666 On ch=1 n=d6 v=0
203730 On ch=1 n=d6 v=68
203758 On ch=1 n=c#6 v=0
203810 On ch=1 n=a#3 v=88
203818 On ch=1 n=f6 v=109
203822 Par ch=1 c=64 v=63
203846 Par ch=1 c=64 v=0
203860 On ch=1 n=d6 v=0
203866 On ch=1 n=d4 v=0
203874 Par ch=1 c=64 v=63
203934 Par ch=1 c=64 v=127
204054 On ch=1 n=d4 v=87
204166 On ch=1 n=f6 v=0
204238 On ch=1 n=f4 v=99
204368 On ch=1 n=d4 v=0
204444 On ch=1 n=a#4 v=93
204452 On ch=1 n=g#5 v=116
204488 On ch=1 n=f4 v=0
204580 On ch=1 n=g#5 v=0
204622 On ch=1 n=a#3 v=0
204678 On ch=1 n=f4 v=76
204680 On ch=1 n=a#4 v=0
204874 On ch=1 n=d4 v=97
204944 On ch=1 n=f4 v=0
205018 On ch=1 n=d4 v=0
205154 On ch=1 n=c#4 v=106
205162 On ch=1 n=a3 v=92
205178 On ch=1 n=a5 v=101
205194 Par ch=1 c=64 v=127
205370 Par ch=1 c=64 v=63
205374 Par ch=1 c=64 v=0
205520 Par ch=1 c=64 v=63
205520 Par ch=1 c=64 v=127
205540 On ch=1 n=a6 v=88
205588 On ch=1 n=a5 v=0
205716 On ch=1 n=a6 v=0
205772 On ch=1 n=a5 v=90
205878 On ch=1 n=a5 v=0
205956 On ch=1 n=a5 v=100
206042 On ch=1 n=a5 v=0
206126 On ch=1 n=a5 v=98
206200 On ch=1 n=a3 v=0
206214 On ch=1 n=a5 v=0
206254 On ch=1 n=c#4 v=0
206314 On ch=1 n=a5 v=102
206410 On ch=1 n=a5 v=0
206496 On ch=1 n=a5 v=107
206528 Par ch=1 c=64 v=63
206572 Par ch=1 c=64 v=127
206700 On ch=1 n=a5 v=0
206720 On ch=1 n=a6 v=99
206832 On ch=1 n=a6 v=0
206900 On ch=1 n=a5 v=96
207016 On ch=1 n=a5 v=0
207094 On ch=1 n=a4 v=108
207096 On ch=1 n=a5 v=103
207178 On ch=1 n=a5 v=0
207286 On ch=1 n=a5 v=100
207376 On ch=1 n=a5 v=0
207468 On ch=1 n=a5 v=109
207578 On ch=1 n=a5 v=0
207652 On ch=1 n=a4 v=0
207676 On ch=1 n=f4 v=120
207690 On ch=1 n=a5 v=102
207730 Par ch=1 c=64 v=63
207786 Par ch=1 c=64 v=127
207876 On ch=1 n=a5 v=0
207902 On ch=1 n=a6 v=94
208012 On ch=1 n=a6 v=0
208068 On ch=1 n=a5 v=101
208198 On ch=1 n=a5 v=0
208242 On ch=1 n=f4 v=0
208262 On ch=1 n=a5 v=101
208274 On ch=1 n=d4 v=118
208364 On ch=1 n=a5 v=0
208436 On ch=1 n=a5 v=89
208536 On ch=1 n=a5 v=0
208620 On ch=1 n=a5 v=112
208740 On ch=1 n=a5 v=0
208794 Par ch=1 c=64 v=63
208806 Par ch=1 c=64 v=0
208822 On ch=1 n=a#5 v=109
208838 On ch=1 n=a5 v=94
208840 On ch=1 n=g4 v=104
208852 Par ch=1 c=64 v=63
208874 Par ch=1 c=64 v=127
208888 On ch=1 n=d4 v=0
208966 On ch=1 n=a5 v=0
208988 On ch=1 n=a#5 v=0
209084 On ch=1 n=a#6 v=114
209174 On ch=1 n=a#6 v=0
209264 On ch=1 n=g4 v=0
209300 On ch=1 n=a5 v=88
209304 On ch=1 n=a#5 v=107
209374 On ch=1 n=a5 v=0
209402 On ch=1 n=a#5 v=0
209488 On ch=1 n=a#5 v=97
209490 On ch=1 n=g3 v=114
209506 On ch=1 n=a5 v=75
209566 On ch=1 n=g3 v=0
209586 On ch=1 n=a5 v=0
209588 On ch=1 n=a#5 v=0
209678 On ch=1 n=a#5 v=94
209688 On ch=1 n=a5 v=71
209746 On ch=1 n=a5 v=0
209754 On ch=1 n=a#5 v=0
209838 On ch=1 n=a#5 v=110
209840 On ch=1 n=a5 v=85
209914 On ch=1 n=a5 v=0
209942 On ch=1 n=a#5 v=0
209984 Par ch=1 c=64 v=63
209992 Par ch=1 c=64 v=0
210032 On ch=1 n=g5 v=99
210034 On ch=1 n=a#5 v=113
210054 Par ch=1 c=64 v=63
210076 Par ch=1 c=64 v=127
210116 On ch=1 n=g5 v=0
210154 On ch=1 n=a#5 v=0
210240 On ch=1 n=a#6 v=104
210322 On ch=1 n=a#6 v=0
210424 On ch=1 n=a#5 v=110
210426 On ch=1 n=g5 v=88
210498 On ch=1 n=g5 v=0
210518 On ch=1 n=a#5 v=0
210600 On ch=1 n=g4 v=111
210610 On ch=1 n=a#5 v=96
210614 On ch=1 n=g5 v=76
210704 On ch=1 n=g5 v=0
210714 On ch=1 n=a#5 v=0
210812 On ch=1 n=a#5 v=98
210820 On ch=1 n=g5 v=82
210852 On ch=1 n=g4 v=0
210908 On ch=1 n=g5 v=0
210908 On ch=1 n=a#5 v=0
211014 On ch=1 n=a#5 v=108
211018 On ch=1 n=g5 v=93
211128 On ch=1 n=g5 v=0
211138 On ch=1 n=a#5 v=0
211140 Par ch=1 c=64 v=63
211152 Par ch=1 c=64 v=0
211200 Par ch=1 c=64 v=63
211214 On ch=1 n=e4 v=121
211214 On ch=1 n=g5 v=90
211218 On ch=1 n=a#5 v=96
211230 Par ch=1 c=64 v=127
211350 On ch=1 n=g5 v=0
211402 On ch=1 n=a#5 v=0
211512 On ch=1 n=f4 v=94
211514 On ch=1 n=a#6 v=99
211518 On ch=1 n=e4 v=0
211582 On ch=1 n=a#6 v=0
211614 On ch=1 n=e4 v=100
211630 On ch=1 n=f4 v=0
211694 On ch=1 n=f4 v=98
211698 On ch=1 n=e4 v=0
211708 On ch=1 n=a#5 v=104
211712 On ch=1 n=g5 v=78
211762 On ch=1 n=e4 v=91
211774 On ch=1 n=g5 v=0
211796 On ch=1 n=f4 v=0
211800 On ch=1 n=a#5 v=0
211864 On ch=1 n=f4 v=97
211868 On ch=1 n=e4 v=0
211902 On ch=1 n=a#5 v=107
211906 On ch=1 n=g5 v=90
211950 On ch=1 n=e4 v=57
211996 On ch=1 n=g5 v=0
211998 On ch=1 n=e4 v=0
211998 On ch=1 n=a#5 v=0
212054 On ch=1 n=e4 v=90
212096 On ch=1 n=f4 v=0
212110 On ch=1 n=a#5 v=109
212116 On ch=1 n=g5 v=92
212188 On ch=1 n=d4 v=96
212192 On ch=1 n=g5 v=0
212194 On ch=1 n=a#5 v=0
212250 On ch=1 n=e4 v=0
212292 On ch=1 n=g5 v=96
212292 On ch=1 n=a#5 v=105
212356 On ch=1 n=c4 v=103
212406 On ch=1 n=g5 v=0
212406 Par ch=1 c=64 v=63
212408 On ch=1 n=d4 v=0
212416 Par ch=1 c=64 v=0
212458 On ch=1 n=a#5 v=0
212504 On ch=1 n=f4 v=116
212506 On ch=1 n=g5 v=86
212508 On ch=1 n=a5 v=89
212510 Par ch=1 c=64 v=63
212522 On ch=1 n=c4 v=0
212532 Par ch=1 c=64 v=127
212704 On ch=1 n=g5 v=0
212716 On ch=1 n=a5 v=0
212778 On ch=1 n=a6 v=88
212888 On ch=1 n=a6 v=0
212962 On ch=1 n=a5 v=88
212962 On ch=1 n=g5 v=91
212994 On ch=1 n=f4 v=0
213074 On ch=1 n=g5 v=0
213076 On ch=1 n=a5 v=0
213154 On ch=1 n=f3 v=118
213158 On ch=1 n=a5 v=81
213162 On ch=1 n=g5 v=82
213222 On ch=1 n=f3 v=0
213262 On ch=1 n=g5 v=0
213264 On ch=1 n=a5 v=0
213358 On ch=1 n=a5 v=76
213360 On ch=1 n=g5 v=76
213440 On ch=1 n=g5 v=0
213444 On ch=1 n=a5 v=0
213546 On ch=1 n=a5 v=81
213548 On ch=1 n=g5 v=80
213630 On ch=1 n=a5 v=0
213636 On ch=1 n=g5 v=0
213720 Par ch=1 c=64 v=63
213728 Par ch=1 c=64 v=0
213728 On ch=1 n=a5 v=104
213738 On ch=1 n=f5 v=97
213802 Par ch=1 c=64 v=63
213822 Par ch=1 c=64 v=127
213864 On ch=1 n=f5 v=0
213894 On ch=1 n=a5 v=0
213982 On ch=1 n=a6 v=88
214054 On ch=1 n=a6 v=0
214184 On ch=1 n=a5 v=99
214196 On ch=1 n=f5 v=82
214274 On ch=1 n=f5 v=0
214282 On ch=1 n=a5 v=0
214384 On ch=1 n=f4 v=111
214390 On ch=1 n=a5 v=83
214390 On ch=1 n=f5 v=83
214478 On ch=1 n=a5 v=0
214486 On ch=1 n=f5 v=0
214580 On ch=1 n=a5 v=89
214586 On ch=1 n=f5 v=85
214666 On ch=1 n=f5 v=0
214674 On ch=1 n=a5 v=0
214762 On ch=1 n=a5 v=90
214764 On ch=1 n=f5 v=84
214860 On ch=1 n=f5 v=0
214870 Par ch=1 c=64 v=63
214872 On ch=1 n=a5 v=0
214902 Par ch=1 c=64 v=127
214940 On ch=1 n=a4 v=114
214946 On ch=1 n=a5 v=72
214950 On ch=1 n=f5 v=74
214996 On ch=1 n=f4 v=0
215054 On ch=1 n=f5 v=0
215072 On ch=1 n=a5 v=0
215206 On ch=1 n=a6 v=90
215252 On ch=1 n=a6 v=0
215368 On ch=1 n=a5 v=93
215378 On ch=1 n=f5 v=79
215422 On ch=1 n=a4 v=0
215476 On ch=1 n=f5 v=0
215496 On ch=1 n=a5 v=0
215558 On ch=1 n=d4 v=114
215570 On ch=1 n=a5 v=82
215576 On ch=1 n=f5 v=83
215672 On ch=1 n=f5 v=0
215678 On ch=1 n=a5 v=0
215756 On ch=1 n=a5 v=85
215758 On ch=1 n=f5 v=79
215860 On ch=1 n=f5 v=0
215864 On ch=1 n=a5 v=0
215960 On ch=1 n=f5 v=87
215960 On ch=1 n=a5 v=91
216018 On ch=1 n=d4 v=0
216154 On ch=1 n=f5 v=0
216232 On ch=1 n=a5 v=0
216242 On ch=1 n=b3 v=116
216252 On ch=1 n=f5 v=84
216254 On ch=1 n=g5 v=93
216410 Par ch=1 c=64 v=63
216458 Par ch=1 c=64 v=127
216536 On ch=1 n=f5 v=0
216590 On ch=1 n=g6 v=78
216598 On ch=1 n=g5 v=0
216736 On ch=1 n=g6 v=0
216810 On ch=1 n=g5 v=65
216812 On ch=1 n=f5 v=67
216914 On ch=1 n=f5 v=0
216920 On ch=1 n=g5 v=0
217014 On ch=1 n=g5 v=63
217018 On ch=1 n=f5 v=66
217086 On ch=1 n=b3 v=0
217112 On ch=1 n=f5 v=0
217118 On ch=1 n=g5 v=0
217200 On ch=1 n=g5 v=68
217202 On ch=1 n=f5 v=76
217324 On ch=1 n=f5 v=0
217330 On ch=1 n=g5 v=0
217384 On ch=1 n=b3 v=106
217406 On ch=1 n=g5 v=62
217408 On ch=1 n=f5 v=68
217506 On ch=1 n=f5 v=0
217510 On ch=1 n=g5 v=0
217522 On ch=1 n=b3 v=0
217620 On ch=1 n=g5 v=75
217624 On ch=1 n=f5 v=80
217638 On ch=1 n=b3 v=106
217818 On ch=1 n=b3 v=0
217830 On ch=1 n=f5 v=0
217840 On ch=1 n=g5 v=0
217840 On ch=1 n=c4 v=80
217906 On ch=1 n=g6 v=87
217952 On ch=1 n=b3 v=86
217960 On ch=1 n=c4 v=0
218004 On ch=1 n=g6 v=0
218032 On ch=1 n=b3 v=0
218036 On ch=1 n=c4 v=84
218098 On ch=1 n=f5 v=82
218100 On ch=1 n=g5 v=81
218128 On ch=1 n=b3 v=91
218148 On ch=1 n=c4 v=0
218190 On ch=1 n=g5 v=0
218192 On ch=1 n=f5 v=0
218222 On ch=1 n=b3 v=0
218222 On ch=1 n=c4 v=92
218278 On ch=1 n=b3 v=88
218294 On ch=1 n=f5 v=87
218294 On ch=1 n=g5 v=84
218318 On ch=1 n=c4 v=0
218388 On ch=1 n=g5 v=0
218388 On ch=1 n=f5 v=0
218396 On ch=1 n=c4 v=86
218406 On ch=1 n=b3 v=0
218480 On ch=1 n=b3 v=88
218496 On ch=1 n=f5 v=85
218496 On ch=1 n=g5 v=82
218552 On ch=1 n=c4 v=0
218576 On ch=1 n=g5 v=0
218578 On ch=1 n=f5 v=0
218620 On ch=1 n=a3 v=90
218630 On ch=1 n=b3 v=0
218676 On ch=1 n=f5 v=84
218678 On ch=1 n=g5 v=81
218726 On ch=1 n=b3 v=107
218762 On ch=1 n=g5 v=0
218774 On ch=1 n=f5 v=0
218776 On ch=1 n=a3 v=0
218830 On ch=1 n=b3 v=0
218842 Par ch=1 c=64 v=63
218854 Par ch=1 c=64 v=0
218876 On ch=1 n=c#4 v=115
218884 On ch=1 n=g5 v=106
218892 Par ch=1 c=64 v=63
218896 On ch=1 n=e5 v=94
218928 Par ch=1 c=64 v=127
219020 On ch=1 n=e5 v=0
219054 On ch=1 n=g5 v=0
219080 On ch=1 n=d4 v=90
219118 On ch=1 n=c#4 v=0
219118 On ch=1 n=g6 v=93
219200 On ch=1 n=d4 v=0
219224 On ch=1 n=c#4 v=100
219292 On ch=1 n=c#4 v=0
219314 On ch=1 n=d4 v=93
219322 On ch=1 n=g6 v=0
219328 On ch=1 n=g5 v=76
219330 On ch=1 n=e5 v=62
219392 On ch=1 n=c#4 v=112
219416 On ch=1 n=e5 v=0
219422 On ch=1 n=d4 v=0
219454 On ch=1 n=g5 v=0
219474 On ch=1 n=c#4 v=0
219494 On ch=1 n=d4 v=88
219552 On ch=1 n=c#4 v=90
219566 On ch=1 n=g5 v=99
219574 On ch=1 n=e5 v=90
219590 On ch=1 n=d4 v=0
219650 On ch=1 n=d4 v=86
219658 On ch=1 n=c#4 v=0
219678 On ch=1 n=e5 v=0
219696 On ch=1 n=g5 v=0
219748 On ch=1 n=c#4 v=104
219798 On ch=1 n=d4 v=0
219802 On ch=1 n=g5 v=106
219806 On ch=1 n=e5 v=98
219872 On ch=1 n=d4 v=60
219894 On ch=1 n=e5 v=0
219900 On ch=1 n=g5 v=0
219940 On ch=1 n=c#4 v=0
219994 On ch=1 n=d4 v=0
219998 On ch=1 n=g5 v=98
220000 On ch=1 n=e5 v=94
220006 On ch=1 n=b3 v=77
220088 On ch=1 n=c#4 v=108
220132 On ch=1 n=e5 v=0
220160 On ch=1 n=g5 v=0
220196 On ch=1 n=b3 v=0
220270 On ch=1 n=d4 v=107
220298 On ch=1 n=e5 v=91
220300 On ch=1 n=f5 v=108
220322 On ch=1 n=c#4 v=0
220358 Par ch=1 c=64 v=63
220426 Par ch=1 c=64 v=127
220570 On ch=1 n=e5 v=0
220598 On ch=1 n=f5 v=0
220612 On ch=1 n=f6 v=84
220740 On ch=1 n=f6 v=0
220822 On ch=1 n=e5 v=89
220822 On ch=1 n=f5 v=86
220930 On ch=1 n=f5 v=0
220930 On ch=1 n=e5 v=0
220986 On ch=1 n=d4 v=0
221000 On ch=1 n=d3 v=117
221016 On ch=1 n=e5 v=72
221018 On ch=1 n=f5 v=71
221074 On ch=1 n=d3 v=0
221124 On ch=1 n=f5 v=0
221124 On ch=1 n=e5 v=0
221208 On ch=1 n=e5 v=63
221210 On ch=1 n=f5 v=63
221294 On ch=1 n=e5 v=0
221296 On ch=1 n=f5 v=0
221408 On ch=1 n=f5 v=69
221410 On ch=1 n=e5 v=74
221488 On ch=1 n=f5 v=0
221496 On ch=1 n=e5 v=0
221594 On ch=1 n=f5 v=101
221604 On ch=1 n=d5 v=94
221618 Par ch=1 c=64 v=63
221658 Par ch=1 c=64 v=127
221736 On ch=1 n=d5 v=0
221760 On ch=1 n=f5 v=0
221836 On ch=1 n=f6 v=101
221924 On ch=1 n=f6 v=0
222032 On ch=1 n=f5 v=103
222052 On ch=1 n=d5 v=77
222146 On ch=1 n=d5 v=0
222156 On ch=1 n=f5 v=0
222250 On ch=1 n=d4 v=113
222256 On ch=1 n=f5 v=99
222260 On ch=1 n=d5 v=94
222384 On ch=1 n=d5 v=0
222384 Par ch=1 c=64 v=63
222392 On ch=1 n=f5 v=0
222402 Par ch=1 c=64 v=127
222466 On ch=1 n=f5 v=84
222470 On ch=1 n=d5 v=73
222560 On ch=1 n=d5 v=0
222564 On ch=1 n=f5 v=0
222658 On ch=1 n=f5 v=93
222662 On ch=1 n=d5 v=78
222784 On ch=1 n=d5 v=0
222802 On ch=1 n=f5 v=0
222872 On ch=1 n=d4 v=0
222872 On ch=1 n=f5 v=86
222874 On ch=1 n=b3 v=114
222874 On ch=1 n=d5 v=86
222970 On ch=1 n=d5 v=0
223018 On ch=1 n=f5 v=0
223092 On ch=1 n=f6 v=85
223166 On ch=1 n=f6 v=0
223282 On ch=1 n=f5 v=94
223300 On ch=1 n=d5 v=65
223378 On ch=1 n=d5 v=0
223382 On ch=1 n=f5 v=0
223414 On ch=1 n=b3 v=0
223480 On ch=1 n=g3 v=112
223482 On ch=1 n=d5 v=80
223482 On ch=1 n=f5 v=84
223576 On ch=1 n=d5 v=0
223586 On ch=1 n=f5 v=0
223676 On ch=1 n=f5 v=78
223692 On ch=1 n=d5 v=66
223754 On ch=1 n=d5 v=0
223764 On ch=1 n=f5 v=0
223862 On ch=1 n=f5 v=76
223874 On ch=1 n=d5 v=65
223978 On ch=1 n=f5 v=0
224002 On ch=1 n=d5 v=0
224098 On ch=1 n=c4 v=103
224102 On ch=1 n=d5 v=83
224104 On ch=1 n=d#5 v=104
224104 Par ch=1 c=64 v=63
224152 Par ch=1 c=64 v=127
224160 On ch=1 n=g3 v=0
224224 On ch=1 n=d5 v=0
224262 On ch=1 n=d#5 v=0
224364 On ch=1 n=d#6 v=96
224456 On ch=1 n=d#6 v=0
224556 On ch=1 n=c4 v=0
224556 On ch=1 n=d#5 v=105
224566 On ch=1 n=d5 v=83
224650 On ch=1 n=d5 v=0
224680 On ch=1 n=d#5 v=0
224750 On ch=1 n=d#5 v=73
224770 On ch=1 n=c3 v=116
224772 On ch=1 n=d5 v=66
224854 On ch=1 n=d5 v=0
224882 On ch=1 n=d#5 v=0
224962 On ch=1 n=d#5 v=64
224978 On ch=1 n=d5 v=65
225008 Par ch=1 c=64 v=63
225024 Par ch=1 c=64 v=0
225054 On ch=1 n=d5 v=0
225072 On ch=1 n=d#5 v=0
225158 On ch=1 n=d#5 v=75
225170 On ch=1 n=d5 v=68
225246 On ch=1 n=d5 v=0
225282 On ch=1 n=d#5 v=0
225342 On ch=1 n=c3 v=0
225344 On ch=1 n=d#5 v=81
225362 On ch=1 n=c5 v=80
225366 Par ch=1 c=64 v=63
225368 Par ch=1 c=64 v=127
225428 On ch=1 n=c5 v=0
225482 On ch=1 n=d#5 v=0
225578 On ch=1 n=d#6 v=95
225658 On ch=1 n=d#6 v=0
225772 On ch=1 n=d#5 v=98
225788 On ch=1 n=c5 v=73
225864 On ch=1 n=c5 v=0
225888 On ch=1 n=d#5 v=0
225970 On ch=1 n=c4 v=112
225992 On ch=1 n=d#5 v=80
226002 On ch=1 n=c5 v=68
226066 On ch=1 n=c4 v=0
226104 On ch=1 n=c5 v=0
226110 On ch=1 n=d#5 v=0
226198 On ch=1 n=d#5 v=72
226210 On ch=1 n=c5 v=63
226264 On ch=1 n=c5 v=0
226286 On ch=1 n=d#5 v=0
226386 On ch=1 n=d#5 v=89
226394 On ch=1 n=c5 v=74
226478 On ch=1 n=c5 v=0
226512 On ch=1 n=d#5 v=0
226640 On ch=1 n=a3 v=108
226642 On ch=1 n=d#5 v=95
226646 On ch=1 n=c5 v=81
226722 Par ch=1 c=64 v=63
226730 Par ch=1 c=64 v=127
226838 On ch=1 n=c5 v=0
226900 On ch=1 n=d#5 v=0
226988 On ch=1 n=d#6 v=100
227008 On ch=1 n=a#3 v=89
227012 On ch=1 n=a3 v=0
227068 On ch=1 n=d#6 v=0
227146 On ch=1 n=a3 v=61
227154 On ch=1 n=a#3 v=0
227204 On ch=1 n=a3 v=0
227206 On ch=1 n=d#5 v=103
227212 On ch=1 n=a#3 v=86
227216 On ch=1 n=c5 v=78
227290 On ch=1 n=c5 v=0
227306 On ch=1 n=a3 v=81
227310 On ch=1 n=a#3 v=0
227310 On ch=1 n=d#5 v=0
227398 On ch=1 n=a#3 v=89
227412 On ch=1 n=a3 v=0
227414 On ch=1 n=d#5 v=97
227422 On ch=1 n=c5 v=84
227456 On ch=1 n=a3 v=59
227480 On ch=1 n=a#3 v=0
227510 On ch=1 n=c5 v=0
227530 On ch=1 n=d#5 v=0
227566 On ch=1 n=a#3 v=90
227570 On ch=1 n=a3 v=0
227626 On ch=1 n=d#5 v=100
227630 On ch=1 n=a3 v=76
227634 On ch=1 n=c5 v=86
227664 On ch=1 n=a#3 v=0
227714 On ch=1 n=c5 v=0
227726 On ch=1 n=d#5 v=0
227746 On ch=1 n=g3 v=83
227756 On ch=1 n=a3 v=0
227838 On ch=1 n=d#5 v=101
227840 On ch=1 n=c5 v=93
227844 On ch=1 n=a3 v=92
227904 On ch=1 n=g3 v=0
227956 On ch=1 n=c5 v=0
228012 On ch=1 n=d#5 v=0
228050 On ch=1 n=f#3 v=101
228078 On ch=1 n=c5 v=89
228078 On ch=1 n=d5 v=90
228104 On ch=1 n=a3 v=0
228166 Par ch=1 c=64 v=63
228202 Par ch=1 c=64 v=0
228226 Par ch=1 c=64 v=63
228286 Par ch=1 c=64 v=127
228350 On ch=1 n=c5 v=0
228404 On ch=1 n=d6 v=83
228452 On ch=1 n=d5 v=0
228600 On ch=1 n=d6 v=0
228656 On ch=1 n=d5 v=72
228656 On ch=1 n=c5 v=73
228746 On ch=1 n=c5 v=0
228748 On ch=1 n=d5 v=0
228870 On ch=1 n=d5 v=69
228872 On ch=1 n=c5 v=71
228886 On ch=1 n=f#3 v=0
228952 On ch=1 n=c5 v=0
228958 On ch=1 n=d5 v=0
229072 On ch=1 n=d5 v=74
229072 On ch=1 n=c5 v=76
229150 On ch=1 n=c5 v=0
229156 On ch=1 n=d5 v=0
229274 On ch=1 n=d5 v=67
229278 On ch=1 n=c5 v=71
229370 On ch=1 n=f#3 v=109
229404 On ch=1 n=c5 v=0
229414 On ch=1 n=d5 v=0
229462 On ch=1 n=f#3 v=0
229542 On ch=1 n=d5 v=71
229544 On ch=1 n=c5 v=76
229556 On ch=1 n=f#3 v=104
229730 On ch=1 n=c5 v=0
229740 On ch=1 n=d5 v=0
229766 On ch=1 n=f#3 v=0
229772 On ch=1 n=g3 v=83
229810 On ch=1 n=d6 v=89
229874 On ch=1 n=f#3 v=89
229892 On ch=1 n=g3 v=0
229918 On ch=1 n=d6 v=0
229946 On ch=1 n=f#3 v=0
229960 On ch=1 n=g3 v=76
230012 On ch=1 n=d5 v=75
230016 On ch=1 n=c5 v=77
230046 On ch=1 n=f#3 v=98
230068 On ch=1 n=g3 v=0
230100 On ch=1 n=c5 v=0
230106 On ch=1 n=d5 v=0
230116 On ch=1 n=f#3 v=0
230126 On ch=1 n=g3 v=84
230200 On ch=1 n=f#3 v=91
230216 On ch=1 n=d5 v=84
230218 On ch=1 n=c5 v=85
230230 On ch=1 n=g3 v=0
230290 On ch=1 n=f#3 v=0
230304 On ch=1 n=g3 v=66
230306 On ch=1 n=c5 v=0
230310 On ch=1 n=d5 v=0
230366 On ch=1 n=f#3 v=63
230404 On ch=1 n=g3 v=0
230412 On ch=1 n=c5 v=86
230412 On ch=1 n=d5 v=86
230476 On ch=1 n=g3 v=65
230486 On ch=1 n=c5 v=0
230490 On ch=1 n=d5 v=0
230502 On ch=1 n=f#3 v=0
230570 On ch=1 n=f#3 v=71
230606 On ch=1 n=d5 v=82
230608 On ch=1 n=c5 v=84
230614 On ch=1 n=g3 v=0
230674 On ch=1 n=e3 v=76
230690 On ch=1 n=d5 v=0
230702 On ch=1 n=c5 v=0
230708 On ch=1 n=f#3 v=0
230774 On ch=1 n=f#3 v=85
230828 On ch=1 n=e3 v=0
230838 Par ch=1 c=64 v=63
230846 Par ch=1 c=64 v=0
230866 On ch=1 n=d5 v=100
230868 On ch=1 n=a#4 v=100
230872 On ch=1 n=g3 v=106
230914 On ch=1 n=f#3 v=0
230926 Par ch=1 c=64 v=63
230950 Par ch=1 c=64 v=127
231036 On ch=1 n=a#4 v=0
231042 On ch=1 n=d5 v=0
231086 On ch=1 n=a3 v=81
231130 On ch=1 n=g3 v=0
231142 On ch=1 n=d6 v=100
231210 On ch=1 n=d6 v=0
231248 On ch=1 n=a3 v=0
231254 On ch=1 n=g3 v=87
231344 On ch=1 n=g3 v=0
231346 On ch=1 n=a3 v=74
231352 On ch=1 n=d5 v=102
231360 On ch=1 n=a#4 v=88
231410 On ch=1 n=a#4 v=0
231424 On ch=1 n=d5 v=0
231446 On ch=1 n=g3 v=90
231454 On ch=1 n=a3 v=0
231518 On ch=1 n=a3 v=74
231528 On ch=1 n=g3 v=0
231544 On ch=1 n=a#4 v=87
231550 On ch=1 n=d5 v=91
231606 On ch=1 n=g3 v=75
231634 On ch=1 n=a3 v=0
231640 On ch=1 n=a#4 v=0
231654 On ch=1 n=d5 v=0
231724 On ch=1 n=a3 v=69
231730 On ch=1 n=g3 v=0
231776 On ch=1 n=a#4 v=90
231776 On ch=1 n=d5 v=101
231810 On ch=1 n=g3 v=63
231852 On ch=1 n=a3 v=0
231872 On ch=1 n=a#4 v=0
231880 On ch=1 n=d5 v=0
231970 On ch=1 n=f#3 v=80
231982 On ch=1 n=g3 v=0
232032 On ch=1 n=d5 v=94
232034 On ch=1 n=a#4 v=80
232126 On ch=1 n=g3 v=92
232166 On ch=1 n=d5 v=0
232190 On ch=1 n=f#3 v=0
232222 On ch=1 n=a#4 v=0
232334 On ch=1 n=a#4 v=88
232342 On ch=1 n=c5 v=103
232346 On ch=1 n=e3 v=103
232368 Par ch=1 c=64 v=63
232382 Par ch=1 c=64 v=0
232408 On ch=1 n=g3 v=0
232436 Par ch=1 c=64 v=63
232482 Par ch=1 c=64 v=127
232550 On ch=1 n=c5 v=0
232598 On ch=1 n=a#4 v=0
232754 On ch=1 n=c6 v=82
232770 On ch=1 n=a#5 v=70
232816 On ch=1 n=a#5 v=0
232864 On ch=1 n=c6 v=0
232902 On ch=1 n=e3 v=0
233022 On ch=1 n=c6 v=102
233036 On ch=1 n=a#5 v=91
233186 On ch=1 n=a#5 v=0
233190 On ch=1 n=c6 v=0
233272 On ch=1 n=f3 v=100
233288 On ch=1 n=c6 v=89
233294 On ch=1 n=a5 v=85
233432 Par ch=1 c=64 v=63
233460 Par ch=1 c=64 v=127
233480 On ch=1 n=c6 v=0
233484 On ch=1 n=a5 v=0
233540 On ch=1 n=c6 v=87
233544 On ch=1 n=a5 v=76
233648 On ch=1 n=a5 v=0
233664 On ch=1 n=c6 v=0
233694 On ch=1 n=f3 v=0
233736 On ch=1 n=c6 v=92
233748 On ch=1 n=a5 v=87
233866 On ch=1 n=a5 v=0
233896 On ch=1 n=c6 v=0
233964 On ch=1 n=a5 v=91
233974 On ch=1 n=c6 v=94
233984 On ch=1 n=a#3 v=105
233986 On ch=1 n=a#2 v=97
234146 Par ch=1 c=64 v=63
234164 Par ch=1 c=64 v=0
234208 On ch=1 n=a#5 v=94
234226 On ch=1 n=g5 v=50
234252 On ch=1 n=a5 v=0
234384 On ch=1 n=c6 v=0
234392 Par ch=1 c=64 v=63
234400 Par ch=1 c=64 v=127
234404 On ch=1 n=a#5 v=0
234476 On ch=1 n=a#5 v=72
234484 On ch=1 n=d6 v=78
234522 On ch=1 n=g5 v=0
234632 On ch=1 n=a#5 v=0
234640 On ch=1 n=d6 v=0
234732 On ch=1 n=d6 v=87
234734 On ch=1 n=a#5 v=87
234940 On ch=1 n=c6 v=69
234944 On ch=1 n=a#5 v=0
234948 On ch=1 n=a5 v=60
235004 On ch=1 n=d6 v=0
235048 On ch=1 n=a5 v=0
235070 On ch=1 n=c6 v=0
235140 On ch=1 n=c6 v=71
235142 On ch=1 n=a5 v=77
235228 On ch=1 n=a5 v=0
235248 On ch=1 n=c6 v=0
235326 On ch=1 n=a5 v=75
235330 On ch=1 n=c6 v=71
235528 On ch=1 n=a#5 v=94
235544 On ch=1 n=g5 v=61
235558 On ch=1 n=a5 v=0
235578 On ch=1 n=c6 v=0
235626 On ch=1 n=a#2 v=0
235656 On ch=1 n=a#5 v=0
235664 On ch=1 n=a#3 v=0
235666 On ch=1 n=g5 v=0
235740 On ch=1 n=a#5 v=97
235742 On ch=1 n=g5 v=82
235852 On ch=1 n=g5 v=0
235864 On ch=1 n=a#5 v=0
235930 On ch=1 n=b3 v=101
235936 On ch=1 n=a#5 v=71
235944 On ch=1 n=b2 v=96
235946 On ch=1 n=g5 v=69
236048 Par ch=1 c=64 v=63
236118 Par ch=1 c=64 v=127
236146 On ch=1 n=a5 v=86
236152 On ch=1 n=f5 v=77
236178 On ch=1 n=g5 v=0
236242 On ch=1 n=a#5 v=0
236280 On ch=1 n=a5 v=0
236306 On ch=1 n=f5 v=0
236372 On ch=1 n=a5 v=99
236382 On ch=1 n=f5 v=89
236478 On ch=1 n=f5 v=0
236492 On ch=1 n=b2 v=0
236542 On ch=1 n=a5 v=0
236622 On ch=1 n=a5 v=101
236632 On ch=1 n=c3 v=97
236634 On ch=1 n=f5 v=78
236682 On ch=1 n=b3 v=0
236714 Par ch=1 c=64 v=63
236750 Par ch=1 c=64 v=127
236888 On ch=1 n=a#5 v=83
236902 On ch=1 n=c4 v=63
236904 On ch=1 n=a5 v=0
237010 On ch=1 n=c4 v=0
237014 On ch=1 n=a5 v=71
237034 On ch=1 n=a#5 v=0
237082 On ch=1 n=c4 v=63
237112 On ch=1 n=a#5 v=78
237118 On ch=1 n=a5 v=0
237200 On ch=1 n=c4 v=0
237220 On ch=1 n=a5 v=72
237250 On ch=1 n=f5 v=0
237286 On ch=1 n=a#5 v=0
237298 On ch=1 n=c4 v=50
237346 On ch=1 n=g5 v=103
237360 On ch=1 n=e5 v=91
237414 On ch=1 n=a5 v=0
237424 On ch=1 n=c4 v=0
237556 On ch=1 n=c4 v=71
237672 On ch=1 n=c4 v=0
237736 On ch=1 n=e5 v=0
237762 On ch=1 n=c4 v=80
237830 On ch=1 n=g5 v=0
237862 On ch=1 n=c3 v=0
237974 On ch=1 n=c3 v=96
238142 On ch=1 n=c4 v=0
238152 Par ch=1 c=64 v=63
238170 Par ch=1 c=64 v=0
238216 Par ch=1 c=64 v=63
238244 On ch=1 n=c4 v=100
238260 Par ch=1 c=64 v=127
238352 On ch=1 n=c4 v=0
238452 On ch=1 n=c4 v=106
238646 On ch=1 n=c4 v=0
238686 On ch=1 n=c4 v=33
238736 On ch=1 n=e6 v=116
238752 On ch=1 n=g5 v=97
238804 On ch=1 n=g5 v=0
238878 On ch=1 n=c4 v=0
238934 On ch=1 n=c4 v=52
239018 On ch=1 n=e6 v=0
239096 On ch=1 n=c4 v=0
239200 On ch=1 n=c4 v=86
239294 On ch=1 n=c3 v=0
239482 On ch=1 n=b2 v=91
239484 On ch=1 n=c4 v=0
239566 On ch=1 n=f6 v=109
239586 On ch=1 n=g#5 v=93
239710 Par ch=1 c=64 v=63
239728 Par ch=1 c=64 v=0
239842 Par ch=1 c=64 v=63
239854 Par ch=1 c=64 v=127
239946 On ch=1 n=b3 v=80
240074 On ch=1 n=b3 v=0
240166 On ch=1 n=g#5 v=0
240178 On ch=1 n=f6 v=0
240206 On ch=1 n=b3 v=82
240344 On ch=1 n=b3 v=0
240450 On ch=1 n=b3 v=78
240462 On ch=1 n=b2 v=0
240556 On ch=1 n=b3 v=0
240646 On ch=1 n=b3 v=53
240750 On ch=1 n=b3 v=0
240760 On ch=1 n=g#5 v=101
240772 On ch=1 n=f5 v=79
240946 On ch=1 n=b3 v=80
241010 On ch=1 n=f5 v=0
241122 On ch=1 n=g#5 v=0
241206 On ch=1 n=b3 v=0
241252 On ch=1 n=c3 v=65
241266 On ch=1 n=a#5 v=85
241286 On ch=1 n=f5 v=57
241446 Par ch=1 c=64 v=63
241448 Par ch=1 c=64 v=127
241594 On ch=1 n=c4 v=52
241630 Par ch=1 c=64 v=63
241692 Par ch=1 c=64 v=127
241714 On ch=1 n=g#5 v=94
241804 On ch=1 n=c4 v=0
241806 On ch=1 n=a#5 v=0
241900 On ch=1 n=c4 v=57
241988 On ch=1 n=f5 v=0
242020 On ch=1 n=c4 v=0
242124 On ch=1 n=g5 v=84
242126 On ch=1 n=c4 v=44
242140 On ch=1 n=e5 v=75
242186 On ch=1 n=g#5 v=0
242244 On ch=1 n=c4 v=0
242334 On ch=1 n=c4 v=68
242448 On ch=1 n=c4 v=0
242554 On ch=1 n=c4 v=71
242562 On ch=1 n=e5 v=0
242562 On ch=1 n=c3 v=0
242628 On ch=1 n=g5 v=0
242754 On ch=1 n=c4 v=0
242770 On ch=1 n=c3 v=92
242868 Par ch=1 c=64 v=63
242896 Par ch=1 c=64 v=127
243028 On ch=1 n=c4 v=83
243138 On ch=1 n=c4 v=0
243240 On ch=1 n=c4 v=76
243398 On ch=1 n=c4 v=0
243480 On ch=1 n=c4 v=71
243498 On ch=1 n=c7 v=93
243524 On ch=1 n=e6 v=48
243638 On ch=1 n=c4 v=0
243728 On ch=1 n=c4 v=32
243870 On ch=1 n=c4 v=0
243966 On ch=1 n=e6 v=0
244012 On ch=1 n=c4 v=73
244086 On ch=1 n=c3 v=0
244264 On ch=1 n=c4 v=0
244306 On ch=1 n=c7 v=0
244330 On ch=1 n=c#3 v=60
244336 On ch=1 n=b6 v=77
244362 On ch=1 n=f6 v=43
244416 Par ch=1 c=64 v=63
244486 Par ch=1 c=64 v=127
244692 On ch=1 n=c#4 v=75
244800 On ch=1 n=c#4 v=0
244832 On ch=1 n=f6 v=0
244916 On ch=1 n=b6 v=0
244982 On ch=1 n=c#4 v=66
245074 On ch=1 n=c#4 v=0
245274 On ch=1 n=c#4 v=52
245352 On ch=1 n=c#4 v=0
245642 On ch=1 n=c#4 v=58
245734 On ch=1 n=c#4 v=0
245816 On ch=1 n=f5 v=49
245816 On ch=1 n=b5 v=66
246026 On ch=1 n=f5 v=0
246066 On ch=1 n=c#4 v=55
246128 On ch=1 n=b5 v=0
246262 On ch=1 n=c#4 v=0
246380 On ch=1 n=c#3 v=0
246760 On ch=1 n=b5 v=71
246768 On ch=1 n=c4 v=31
246768 On ch=1 n=f5 v=49
246782 On ch=1 n=c3 v=40
247028 Par ch=1 c=64 v=63
247074 Par ch=1 c=64 v=0
247830 Par ch=1 c=64 v=63
247838 Par ch=1 c=64 v=127
248982 On ch=1 n=b5 v=0
249008 On ch=1 n=f5 v=0
249062 On ch=1 n=c6 v=32
249076 On ch=1 n=e5 v=29
249178 Par ch=1 c=64 v=63
249200 Par ch=1 c=64 v=0
249456 Par ch=1 c=64 v=63
249508 Par ch=1 c=64 v=127
250358 On ch=1 n=e5 v=0
250372 On ch=1 n=c6 v=0
250514 On ch=1 n=c3 v=0
250544 On ch=1 n=c4 v=0
250564 Par ch=1 c=64 v=63
250664 Par ch=1 c=64 v=0
251706 Par ch=1 c=64 v=63
251722 On ch=1 n=f5 v=52
251764 Par ch=1 c=64 v=127
252206 On ch=1 n=a5 v=62
252394 On ch=1 n=f5 v=0
252514 On ch=1 n=c6 v=86
252594 On ch=1 n=a5 v=0
252818 On ch=1 n=f6 v=90
252874 On ch=1 n=c6 v=0
253168 On ch=1 n=f3 v=68
253208 On ch=1 n=f4 v=47
253272 On ch=1 n=c6 v=57
253434 On ch=1 n=a6 v=89
253436 On ch=1 n=f6 v=0
253552 Par ch=1 c=64 v=63
253582 Par ch=1 c=64 v=0
253758 Par ch=1 c=64 v=63
253780 Par ch=1 c=64 v=127
253960 On ch=1 n=c6 v=0
254418 On ch=1 n=f3 v=0
254600 On ch=1 n=f6 v=65
254608 On ch=1 n=a6 v=0
254648 On ch=1 n=f4 v=0
254962 On ch=1 n=c6 v=62
254972 On ch=1 n=a3 v=41
254972 On ch=1 n=a4 v=31
254986 On ch=1 n=f6 v=0
255044 Par ch=1 c=64 v=63
255066 Par ch=1 c=64 v=0
255108 Par ch=1 c=64 v=63
255168 Par ch=1 c=64 v=127
255318 On ch=1 n=c6 v=0
255680 On ch=1 n=c6 v=78
255696 On ch=1 n=a5 v=53
255734 On ch=1 n=a3 v=0
255856 On ch=1 n=a4 v=0
256380 On ch=1 n=c5 v=51
256388 On ch=1 n=c4 v=39
256444 Par ch=1 c=64 v=63
256486 Par ch=1 c=64 v=0
256552 Par ch=1 c=64 v=63
256604 Par ch=1 c=64 v=127
256724 On ch=1 n=a5 v=0
256728 On ch=1 n=a#5 v=70
256754 On ch=1 n=c6 v=0
256756 On ch=1 n=g5 v=47
257068 On ch=1 n=a5 v=79
257076 On ch=1 n=g5 v=0
257082 On ch=1 n=f5 v=44
257084 On ch=1 n=a#5 v=0
257350 On ch=1 n=c4 v=0
257404 On ch=1 n=a#5 v=82
257418 On ch=1 n=f5 v=0
257436 On ch=1 n=g5 v=56
257468 On ch=1 n=a5 v=0
257522 On ch=1 n=c5 v=0
257692 On ch=1 n=g5 v=0
257778 On ch=1 n=a#5 v=0
257886 On ch=1 n=a#5 v=80
257898 On ch=1 n=d5 v=50
257916 On ch=1 n=d4 v=52
257918 On ch=1 n=g5 v=53
258096 Par ch=1 c=64 v=63
258144 Par ch=1 c=64 v=0
258694 Par ch=1 c=64 v=63
258704 Par ch=1 c=64 v=127
259240 On ch=1 n=c6 v=54
259242 On ch=1 n=a#5 v=0
259418 On ch=1 n=a#5 v=65
259474 On ch=1 n=c6 v=0
259474 On ch=1 n=g5 v=0
259648 On ch=1 n=a5 v=51
259664 On ch=1 n=a#5 v=0
259666 On ch=1 n=f5 v=38
259812 Par ch=1 c=64 v=63
259852 Par ch=1 c=64 v=0
260024 Par ch=1 c=64 v=63
260050 Par ch=1 c=64 v=127
260434 On ch=1 n=f5 v=0
260472 On ch=1 n=d4 v=0
260506 On ch=1 n=a5 v=0
260528 On ch=1 n=d5 v=0
261216 Par ch=1 c=64 v=63
261288 On ch=1 n=c5 v=51
261330 Par ch=1 c=64 v=127
261458 On ch=1 n=f5 v=45
261484 On ch=1 n=c5 v=0
261702 On ch=1 n=a3 v=48
261828 On ch=1 n=d6 v=70
261882 On ch=1 n=a3 v=0
262308 On ch=1 n=c6 v=74
262364 On ch=1 n=d6 v=0
262646 On ch=1 n=a#5 v=84
262702 On ch=1 n=c6 v=0
262966 On ch=1 n=a5 v=85
263016 On ch=1 n=a#5 v=0
263048 On ch=1 n=a5 v=0
263056 On ch=1 n=f5 v=0
263288 On ch=1 n=a#3 v=67
263306 On ch=1 n=a5 v=71
263314 On ch=1 n=f5 v=53
263328 On ch=1 n=d5 v=50
263568 Par ch=1 c=64 v=63
263584 Par ch=1 c=64 v=0
263648 On ch=1 n=g5 v=87
263720 Par ch=1 c=64 v=63
263748 Par ch=1 c=64 v=127
263800 On ch=1 n=a5 v=0
263928 On ch=1 n=d5 v=0
263960 On ch=1 n=f5 v=0
263972 On ch=1 n=g5 v=0
264036 On ch=1 n=g5 v=77
264052 On ch=1 n=f5 v=64
264062 On ch=1 n=d5 v=67
264118 On ch=1 n=a#3 v=0
264748 On ch=1 n=g3 v=73
264756 On ch=1 n=g2 v=65
264908 Par ch=1 c=64 v=63
264972 Par ch=1 c=64 v=127
265130 On ch=1 n=d5 v=0
265148 On ch=1 n=f5 v=0
265158 On ch=1 n=g5 v=0
265540 On ch=1 n=a#4 v=61
265650 On ch=1 n=f5 v=61
265772 On ch=1 n=g5 v=78
265836 Par ch=1 c=64 v=63
265960 Par ch=1 c=64 v=127
266066 On ch=1 n=g2 v=0
266120 On ch=1 n=g3 v=0
266352 On ch=1 n=a#4 v=0
266464 On ch=1 n=a#3 v=71
266470 On ch=1 n=a#2 v=72
266604 On ch=1 n=f5 v=0
266658 On ch=1 n=g5 v=0
266974 On ch=1 n=a#5 v=80
267052 On ch=1 n=a#2 v=0
267152 On ch=1 n=a5 v=69
267186 On ch=1 n=a#3 v=0
267194 On ch=1 n=a#5 v=0
267332 On ch=1 n=c6 v=87
267364 On ch=1 n=a5 v=0
267502 On ch=1 n=a#5 v=93
267566 On ch=1 n=c6 v=0
267664 On ch=1 n=a5 v=77
267738 On ch=1 n=a#5 v=0
267818 On ch=1 n=a#4 v=87
267820 On ch=1 n=g5 v=78
267834 On ch=1 n=a5 v=0
267896 On ch=1 n=a#4 v=0
268000 On ch=1 n=g5 v=0
268070 On ch=1 n=f5 v=81
268094 On ch=1 n=a4 v=51
268094 On ch=1 n=c4 v=61
268210 Par ch=1 c=64 v=63
268282 Par ch=1 c=64 v=127
268336 On ch=1 n=f5 v=0
268340 On ch=1 n=g5 v=70
268438 On ch=1 n=g5 v=0
268478 On ch=1 n=f5 v=56
268576 On ch=1 n=f5 v=0
268586 On ch=1 n=g5 v=46
268650 On ch=1 n=g5 v=0
268668 On ch=1 n=f5 v=66
268740 On ch=1 n=g5 v=59
268754 On ch=1 n=f5 v=0
268852 On ch=1 n=g5 v=0
268856 On ch=1 n=f5 v=41
268914 On ch=1 n=f5 v=0
268966 On ch=1 n=g5 v=36
269028 On ch=1 n=f5 v=32
269032 On ch=1 n=g5 v=0
269086 On ch=1 n=g5 v=34
269116 On ch=1 n=f5 v=0
269178 On ch=1 n=g5 v=0
269184 On ch=1 n=f5 v=36
269246 On ch=1 n=f5 v=0
269252 On ch=1 n=e5 v=53
269344 On ch=1 n=f5 v=41
269356 On ch=1 n=e5 v=0
269490 On ch=1 n=g5 v=47
269508 On ch=1 n=f5 v=0
269626 On ch=1 n=f5 v=38
269656 On ch=1 n=g5 v=0
269794 On ch=1 n=f5 v=0
269816 On ch=1 n=e5 v=40
269864 On ch=1 n=g4 v=38
269882 On ch=1 n=a4 v=0
269902 Par ch=1 c=64 v=63
269968 Par ch=1 c=64 v=0
270166 Par ch=1 c=64 v=63
270190 Par ch=1 c=64 v=127
270330 On ch=1 n=c4 v=0
270360 On ch=1 n=g4 v=0
270382 On ch=1 n=e5 v=0
271242 Par ch=1 c=64 v=63
271410 Par ch=1 c=64 v=127
271852 Par ch=1 c=64 v=63
271880 On ch=1 n=f5 v=35
271900 Par ch=1 c=64 v=0
272040 On ch=1 n=f5 v=0
272106 On ch=1 n=a5 v=43
272216 On ch=1 n=a5 v=0
272274 On ch=1 n=a#5 v=59
272352 On ch=1 n=a#5 v=0
272446 On ch=1 n=c6 v=69
272562 On ch=1 n=c6 v=0
272584 On ch=1 n=d6 v=80
272700 On ch=1 n=d6 v=0
272724 On ch=1 n=e6 v=85
272774 On ch=1 n=e6 v=0
272868 On ch=1 n=f6 v=87
272978 On ch=1 n=f6 v=0
273004 On ch=1 n=g6 v=99
273112 On ch=1 n=g6 v=0
273190 On ch=1 n=a6 v=100
273202 On ch=1 n=f4 v=58
273212 On ch=1 n=f3 v=60
273336 Par ch=1 c=64 v=63
273354 Par ch=1 c=64 v=127
273636 On ch=1 n=a6 v=0
274328 On ch=1 n=f3 v=0
274376 On ch=1 n=f6 v=69
274444 On ch=1 n=f4 v=0
274490 On ch=1 n=a6 v=71
274508 On ch=1 n=f6 v=0
274584 On ch=1 n=f6 v=74
274648 On ch=1 n=a6 v=0
274712 On ch=1 n=a4 v=57
274722 On ch=1 n=c6 v=87
274722 On ch=1 n=a3 v=53
274772 On ch=1 n=f6 v=0
274800 Par ch=1 c=64 v=63
274816 Par ch=1 c=64 v=0
274934 Par ch=1 c=64 v=63
274958 Par ch=1 c=64 v=127
275184 On ch=1 n=c6 v=0
275438 On ch=1 n=c6 v=91
275456 On ch=1 n=a5 v=71
275470 On ch=1 n=a3 v=0
275620 On ch=1 n=a4 v=0
276142 On ch=1 n=c5 v=74
276158 On ch=1 n=c4 v=60
276356 Par ch=1 c=64 v=63
276426 Par ch=1 c=64 v=0
276440 Par ch=1 c=64 v=63
276514 Par ch=1 c=64 v=127
276624 On ch=1 n=d6 v=65
276654 On ch=1 n=c6 v=0
276794 On ch=1 n=c6 v=81
276852 On ch=1 n=d6 v=0
276908 On ch=1 n=a5 v=0
276910 On ch=1 n=c6 v=0
276970 On ch=1 n=c6 v=84
276980 On ch=1 n=g5 v=60
277110 On ch=1 n=a#5 v=92
277164 On ch=1 n=c6 v=0
277290 On ch=1 n=a5 v=83
277330 On ch=1 n=a#5 v=0
277356 On ch=1 n=c4 v=0
277408 On ch=1 n=a#5 v=85
277440 On ch=1 n=c5 v=0
277474 On ch=1 n=g5 v=0
277484 On ch=1 n=a5 v=0
277676 On ch=1 n=d5 v=63
277686 On ch=1 n=d4 v=54
277702 On ch=1 n=c6 v=76
277712 On ch=1 n=g5 v=48
277754 On ch=1 n=a#5 v=0
277808 Par ch=1 c=64 v=63
277818 Par ch=1 c=64 v=0
277976 Par ch=1 c=64 v=63
277992 Par ch=1 c=64 v=127
278374 On ch=1 n=c6 v=0
278390 On ch=1 n=a#5 v=72
278434 On ch=1 n=g5 v=0
278558 On ch=1 n=a#5 v=0
278574 On ch=1 n=c6 v=56
278686 On ch=1 n=a#5 v=84
278694 On ch=1 n=c6 v=0
278756 On ch=1 n=a#5 v=0
278766 On ch=1 n=c6 v=71
278828 On ch=1 n=c6 v=0
278840 On ch=1 n=a#5 v=74
278918 On ch=1 n=a#5 v=0
278918 On ch=1 n=a5 v=71
279008 On ch=1 n=a#5 v=80
279020 On ch=1 n=a5 v=0
279110 On ch=1 n=a#5 v=0
279154 On ch=1 n=a5 v=60
279174 On ch=1 n=f5 v=78
279236 Par ch=1 c=64 v=63
279256 Par ch=1 c=64 v=0
279280 Par ch=1 c=64 v=63
279330 Par ch=1 c=64 v=127
279530 On ch=1 n=f5 v=0
279622 On ch=1 n=a5 v=0
279664 On ch=1 n=f6 v=67
279744 On ch=1 n=d4 v=0
280044 On ch=1 n=d5 v=0
280066 On ch=1 n=e6 v=89
280108 On ch=1 n=f6 v=0
280406 On ch=1 n=f6 v=97
280488 On ch=1 n=e6 v=0
280618 Par ch=1 c=64 v=63
280632 Par ch=1 c=64 v=0
280756 On ch=1 n=d5 v=80
280756 On ch=1 n=g6 v=83
280762 On ch=1 n=a#4 v=72
280904 On ch=1 n=f6 v=0
281068 Par ch=1 c=64 v=63
281078 Par ch=1 c=64 v=127
281098 On ch=1 n=f6 v=96
281174 On ch=1 n=g6 v=0
281430 On ch=1 n=e6 v=84
281442 On ch=1 n=e5 v=87
281516 On ch=1 n=f6 v=0
281528 On ch=1 n=d5 v=0
281586 Par ch=1 c=64 v=63
281716 Par ch=1 c=64 v=127
281774 On ch=1 n=d6 v=88
281862 On ch=1 n=e6 v=0
282116 On ch=1 n=f5 v=89
282124 On ch=1 n=c6 v=83
282128 On ch=1 n=d6 v=0
282130 On ch=1 n=a4 v=51
282204 On ch=1 n=a#4 v=0
282230 On ch=1 n=e5 v=0
282234 Par ch=1 c=64 v=63
282264 Par ch=1 c=64 v=127
282280 On ch=1 n=c6 v=0
282342 On ch=1 n=c#6 v=90
282436 On ch=1 n=c#6 v=0
282534 On ch=1 n=d6 v=92
282666 On ch=1 n=c#6 v=99
282712 On ch=1 n=f5 v=0
282734 On ch=1 n=d6 v=0
282864 On ch=1 n=a4 v=0
282876 On ch=1 n=c#6 v=0
282876 On ch=1 n=e6 v=84
282880 On ch=1 n=f5 v=89
282884 On ch=1 n=a#4 v=67
283094 Par ch=1 c=64 v=63
283104 On ch=1 n=d6 v=85
283132 Par ch=1 c=64 v=0
283144 On ch=1 n=e6 v=0
283252 On ch=1 n=c6 v=79
283304 On ch=1 n=d6 v=0
283396 On ch=1 n=a#5 v=94
283458 On ch=1 n=c6 v=0
283574 On ch=1 n=a#4 v=0
283584 On ch=1 n=c5 v=65
283600 On ch=1 n=a5 v=82
283648 On ch=1 n=a#5 v=0
283718 Par ch=1 c=64 v=63
283728 Par ch=1 c=64 v=127
283946 On ch=1 n=a5 v=0
284128 On ch=1 n=a#5 v=76
284200 On ch=1 n=a5 v=63
284222 On ch=1 n=a#5 v=0
284272 On ch=1 n=g5 v=72
284290 On ch=1 n=a5 v=0
284356 On ch=1 n=a5 v=80
284392 On ch=1 n=g5 v=0
284446 Par ch=1 c=64 v=63
284540 Par ch=1 c=64 v=127
284726 On ch=1 n=a#5 v=80
284738 On ch=1 n=a5 v=0
284848 On ch=1 n=c5 v=0
285000 On ch=1 n=f5 v=0
285078 On ch=1 n=a#5 v=0
285104 On ch=1 n=a5 v=70
285116 On ch=1 n=c5 v=55
285118 On ch=1 n=e5 v=58
285180 Par ch=1 c=64 v=63
285226 Par ch=1 c=64 v=127
285378 On ch=1 n=a5 v=0
285382 On ch=1 n=g5 v=66
285494 On ch=1 n=g5 v=0
285514 On ch=1 n=a5 v=49
285608 On ch=1 n=a5 v=0
285632 On ch=1 n=g5 v=57
285706 On ch=1 n=g5 v=0
285720 On ch=1 n=a5 v=63
285786 On ch=1 n=a5 v=0
285822 On ch=1 n=g5 v=60
285874 On ch=1 n=g5 v=0
285876 On ch=1 n=a5 v=62
285940 On ch=1 n=a5 v=0
285960 On ch=1 n=g5 v=63
286010 On ch=1 n=a5 v=63
286036 On ch=1 n=g5 v=0
286122 On ch=1 n=g5 v=42
286126 On ch=1 n=a5 v=0
286190 On ch=1 n=a5 v=58
286200 On ch=1 n=g5 v=0
286262 On ch=1 n=a5 v=0
286278 On ch=1 n=g5 v=54
286376 On ch=1 n=g5 v=0
286386 On ch=1 n=f5 v=67
286518 On ch=1 n=g5 v=61
286526 On ch=1 n=f5 v=0
286534 On ch=1 n=e5 v=0
286558 On ch=1 n=c5 v=0
286560 Par ch=1 c=64 v=63
286616 Par ch=1 c=64 v=127
286824 On ch=1 n=f5 v=67
286846 On ch=1 n=f4 v=68
286860 On ch=1 n=g5 v=0
287306 On ch=1 n=a4 v=41
287656 On ch=1 n=c5 v=52
287712 On ch=1 n=f5 v=0
287736 On ch=1 n=a4 v=0
287948 On ch=1 n=a4 v=55
287966 On ch=1 n=c5 v=0
288056 On ch=1 n=f4 v=0
288276 On ch=1 n=f4 v=57
288320 On ch=1 n=a4 v=0
288406 Par ch=1 c=64 v=63
288436 Par ch=1 c=64 v=0
288472 Par ch=1 c=64 v=63
288548 Par ch=1 c=64 v=127
288614 On ch=1 n=g5 v=78
288618 On ch=1 n=a4 v=44
288704 On ch=1 n=f5 v=64
288718 On ch=1 n=g5 v=0
288764 On ch=1 n=f5 v=0
288766 On ch=1 n=e5 v=68
288818 On ch=1 n=f5 v=75
288820 On ch=1 n=e5 v=0
288864 On ch=1 n=f5 v=0
288902 On ch=1 n=c5 v=63
288934 On ch=1 n=a5 v=92
288940 On ch=1 n=a4 v=0
289026 On ch=1 n=a5 v=0
289210 On ch=1 n=c5 v=0
289216 On ch=1 n=a4 v=74
289224 On ch=1 n=c6 v=104
289340 On ch=1 n=f4 v=0
289366 On ch=1 n=c6 v=0
289534 Par ch=1 c=64 v=63
289540 On ch=1 n=f6 v=104
289544 On ch=1 n=f4 v=73
289646 Par ch=1 c=64 v=127
289700 On ch=1 n=a4 v=0
289720 On ch=1 n=f6 v=0
289888 On ch=1 n=a4 v=72
289900 On ch=1 n=a6 v=104
290090 On ch=1 n=a6 v=0
290224 On ch=1 n=c7 v=107
290228 On ch=1 n=c5 v=69
290294 On ch=1 n=a4 v=0
290410 On ch=1 n=c7 v=0
290568 On ch=1 n=c7 v=109
290578 On ch=1 n=a4 v=52
290580 On ch=1 n=c5 v=0
290668 On ch=1 n=f4 v=0
290722 On ch=1 n=a4 v=0
291004 On ch=1 n=c7 v=0
291066 On ch=1 n=d#4 v=89
291068 On ch=1 n=a#6 v=97
291256 Par ch=1 c=64 v=63
291268 Par ch=1 c=64 v=0
291466 Par ch=1 c=64 v=63
291478 Par ch=1 c=64 v=127
291536 On ch=1 n=f4 v=41
291834 On ch=1 n=a#6 v=0
291890 On ch=1 n=c5 v=48
291894 On ch=1 n=a6 v=87
292060 On ch=1 n=f4 v=0
292170 On ch=1 n=d#4 v=0
292194 On ch=1 n=f4 v=65
292224 On ch=1 n=c5 v=0
292392 On ch=1 n=a6 v=0
292506 On ch=1 n=d#4 v=90
292618 On ch=1 n=f4 v=0
292836 On ch=1 n=f4 v=58
292856 On ch=1 n=c7 v=98
293044 On ch=1 n=a#6 v=96
293100 On ch=1 n=c7 v=0
293154 On ch=1 n=a#6 v=0
293174 Par ch=1 c=64 v=63
293200 Par ch=1 c=64 v=127
293200 On ch=1 n=c5 v=70
293208 On ch=1 n=d7 v=94
293306 On ch=1 n=f4 v=0
293316 On ch=1 n=d7 v=0
293358 On ch=1 n=c7 v=94
293506 On ch=1 n=d#7 v=110
293512 On ch=1 n=f4 v=78
293536 On ch=1 n=c7 v=0
293586 On ch=1 n=d#4 v=0
293634 On ch=1 n=d7 v=104
293714 On ch=1 n=d#7 v=0
293764 On ch=1 n=d#4 v=88
293814 Par ch=1 c=64 v=63
293832 Par ch=1 c=64 v=127
293848 On ch=1 n=f7 v=92
293888 On ch=1 n=d7 v=0
293932 On ch=1 n=f4 v=0
294092 On ch=1 n=c5 v=0
294098 On ch=1 n=d#7 v=88
294128 On ch=1 n=f7 v=0
294176 On ch=1 n=d#7 v=0
294300 On ch=1 n=f4 v=60
294310 On ch=1 n=g6 v=86
294476 On ch=1 n=f6 v=90
294504 On ch=1 n=g6 v=0
294614 On ch=1 n=f6 v=0
294620 On ch=1 n=c5 v=66
294636 On ch=1 n=a6 v=87
294682 Par ch=1 c=64 v=63
294732 On ch=1 n=f4 v=0
294736 Par ch=1 c=64 v=127
294766 On ch=1 n=g6 v=97
294810 On ch=1 n=a6 v=0
294914 On ch=1 n=a#6 v=105
294940 On ch=1 n=f4 v=63
294950 On ch=1 n=g6 v=0
295014 On ch=1 n=c5 v=0
295034 On ch=1 n=a6 v=104
295112 On ch=1 n=a#6 v=0
295170 On ch=1 n=d#4 v=0
295208 On ch=1 n=d4 v=71
295252 On ch=1 n=c7 v=96
295352 On ch=1 n=a6 v=0
295366 Par ch=1 c=64 v=63
295380 On ch=1 n=f4 v=0
295382 Par ch=1 c=64 v=0
295492 Par ch=1 c=64 v=63
295514 Par ch=1 c=64 v=127
295734 On ch=1 n=f4 v=43
296002 On ch=1 n=d4 v=0
296062 On ch=1 n=c7 v=0
296070 On ch=1 n=a#6 v=75
296076 On ch=1 n=a#4 v=44
296138 On ch=1 n=f4 v=0
296410 On ch=1 n=a#6 v=0
296410 On ch=1 n=f4 v=62
296454 On ch=1 n=a#4 v=0
296734 On ch=1 n=d4 v=65
296840 On ch=1 n=f4 v=0
296938 On ch=1 n=f5 v=76
296946 Par ch=1 c=64 v=63
296970 Par ch=1 c=64 v=0
297080 On ch=1 n=f5 v=0
297122 On ch=1 n=g5 v=81
297152 On ch=1 n=f4 v=64
297182 Par ch=1 c=64 v=63
297200 Par ch=1 c=64 v=127
297262 On ch=1 n=g5 v=0
297264 On ch=1 n=a5 v=84
297288 On ch=1 n=d4 v=0
297376 On ch=1 n=a5 v=0
297408 On ch=1 n=a#4 v=72
297424 On ch=1 n=a#5 v=95
297460 On ch=1 n=f4 v=0
297498 On ch=1 n=a#5 v=0
297566 On ch=1 n=c6 v=96
297690 On ch=1 n=c6 v=0
297722 On ch=1 n=d6 v=98
297756 On ch=1 n=f4 v=65
297774 On ch=1 n=a#4 v=0
297850 On ch=1 n=d#6 v=108
297856 Par ch=1 c=64 v=63
297876 On ch=1 n=d6 v=0
297950 On ch=1 n=d#6 v=0
297956 Par ch=1 c=64 v=127
298004 On ch=1 n=f6 v=99
298004 On ch=1 n=d4 v=83
298084 On ch=1 n=f4 v=0
298106 On ch=1 n=f6 v=0
298140 On ch=1 n=d6 v=89
298314 On ch=1 n=d6 v=0
298320 On ch=1 n=a#6 v=106
298326 On ch=1 n=f4 v=82
298472 On ch=1 n=f6 v=87
298516 Par ch=1 c=64 v=63
298532 Par ch=1 c=64 v=0
298534 On ch=1 n=a#6 v=0
298708 On ch=1 n=a#4 v=63
298708 On ch=1 n=d7 v=98
298742 Par ch=1 c=64 v=63
298754 Par ch=1 c=64 v=127
298784 On ch=1 n=f4 v=0
298866 On ch=1 n=f6 v=0
298972 On ch=1 n=d7 v=0
299074 On ch=1 n=d7 v=103
299090 On ch=1 n=f4 v=55
299096 On ch=1 n=a#4 v=0
299270 On ch=1 n=d4 v=0
299494 On ch=1 n=d7 v=0
299528 On ch=1 n=c4 v=91
299612 On ch=1 n=d7 v=93
299652 On ch=1 n=f4 v=0
299822 Par ch=1 c=64 v=63
299860 Par ch=1 c=64 v=0
299946 Par ch=1 c=64 v=63
299972 Par ch=1 c=64 v=127
300042 On ch=1 n=f#4 v=86
300140 On ch=1 n=c4 v=0
300384 On ch=1 n=d7 v=0
300404 On ch=1 n=f#6 v=101
300424 On ch=1 n=a4 v=41
300460 On ch=1 n=f#4 v=0
300548 On ch=1 n=f#6 v=0
300716 On ch=1 n=a4 v=0
300718 On ch=1 n=f#4 v=74
300818 On ch=1 n=f#4 v=0
301016 On ch=1 n=c4 v=71
301276 On ch=1 n=c4 v=0
301354 On ch=1 n=f#4 v=55
301358 On ch=1 n=d7 v=81
301612 On ch=1 n=d7 v=0
301708 On ch=1 n=d7 v=100
301710 On ch=1 n=a4 v=50
301738 On ch=1 n=f#4 v=0
301918 On ch=1 n=d7 v=0
302002 On ch=1 n=f#4 v=82
302008 On ch=1 n=d7 v=106
302056 On ch=1 n=a4 v=0
302204 On ch=1 n=d7 v=0
302300 On ch=1 n=c4 v=75
302302 On ch=1 n=d7 v=101
302348 On ch=1 n=f#4 v=0
302374 Par ch=1 c=64 v=63
302428 Par ch=1 c=64 v=127
302538 On ch=1 n=d7 v=0
302618 On ch=1 n=f#4 v=80
302624 On ch=1 n=d7 v=104
302700 On ch=1 n=c4 v=0
302904 On ch=1 n=d7 v=0
302956 On ch=1 n=a4 v=56
302956 On ch=1 n=d7 v=97
302994 On ch=1 n=f#4 v=0
303200 On ch=1 n=d7 v=0
303322 On ch=1 n=d7 v=89
303324 On ch=1 n=f#4 v=63
303332 On ch=1 n=a4 v=0
303566 On ch=1 n=d7 v=0
303654 On ch=1 n=f#4 v=0
303750 On ch=1 n=a#3 v=59
303752 On ch=1 n=d7 v=85
303972 Par ch=1 c=64 v=63
304136 Par ch=1 c=64 v=127
304218 On ch=1 n=d4 v=63
304404 On ch=1 n=a#3 v=0
304572 On ch=1 n=g6 v=60
304584 On ch=1 n=d7 v=0
304598 On ch=1 n=g4 v=45
304646 On ch=1 n=d4 v=0
304806 On ch=1 n=g6 v=0
304902 On ch=1 n=d4 v=58
304938 On ch=1 n=g4 v=0
305196 On ch=1 n=a#3 v=80
305240 On ch=1 n=d4 v=0
305564 On ch=1 n=d4 v=63
305564 On ch=1 n=d5 v=84
305672 On ch=1 n=a#3 v=0
305704 On ch=1 n=f#5 v=95
305766 On ch=1 n=d5 v=0
305874 On ch=1 n=e5 v=86
305882 On ch=1 n=f#5 v=0
305896 On ch=1 n=g4 v=46
305952 On ch=1 n=d4 v=0
305994 On ch=1 n=g5 v=90
306024 On ch=1 n=e5 v=0
306120 On ch=1 n=f#5 v=100
306146 On ch=1 n=g5 v=0
306166 On ch=1 n=d4 v=74
306200 Par ch=1 c=64 v=63
306204 On ch=1 n=g4 v=0
306248 On ch=1 n=a5 v=83
306264 On ch=1 n=f#5 v=0
306316 Par ch=1 c=64 v=127
306368 On ch=1 n=a5 v=0
306394 On ch=1 n=a#3 v=75
306394 On ch=1 n=g5 v=80
306456 On ch=1 n=d4 v=0
306516 On ch=1 n=a#5 v=96
306538 On ch=1 n=g5 v=0
306594 Par ch=1 c=64 v=63
306656 On ch=1 n=a#5 v=0
306664 On ch=1 n=a5 v=90
306678 Par ch=1 c=64 v=127
306698 On ch=1 n=d4 v=74
306780 On ch=1 n=c6 v=94
306824 On ch=1 n=a5 v=0
306928 On ch=1 n=a#5 v=110
306944 On ch=1 n=g4 v=59
306976 On ch=1 n=c6 v=0
307004 On ch=1 n=d4 v=0
307064 On ch=1 n=d6 v=88
307094 On ch=1 n=a#5 v=0
307172 On ch=1 n=d6 v=0
307206 On ch=1 n=d4 v=77
307212 On ch=1 n=c6 v=91
307242 On ch=1 n=a#3 v=0
307336 On ch=1 n=d#6 v=106
307374 On ch=1 n=c6 v=0
307510 On ch=1 n=d6 v=92
307520 On ch=1 n=d#6 v=0
307528 On ch=1 n=a#3 v=89
307588 On ch=1 n=g4 v=0
307596 Par ch=1 c=64 v=63
307610 On ch=1 n=d4 v=0
307624 Par ch=1 c=64 v=0
307808 Par ch=1 c=64 v=63
307826 Par ch=1 c=64 v=127
307894 On ch=1 n=e6 v=94
307922 On ch=1 n=d6 v=0
308030 On ch=1 n=f#6 v=101
308058 On ch=1 n=a#3 v=0
308074 On ch=1 n=e6 v=0
308174 On ch=1 n=g6 v=97
308202 On ch=1 n=f#6 v=0
308326 On ch=1 n=a6 v=107
308376 On ch=1 n=g6 v=0
308460 On ch=1 n=a#6 v=108
308524 On ch=1 n=a6 v=0
308594 On ch=1 n=c7 v=103
308694 On ch=1 n=a#6 v=0
308740 Par ch=1 c=64 v=63
308824 Par ch=1 c=64 v=0
308848 On ch=1 n=d7 v=99
308952 On ch=1 n=c7 v=0
309292 On ch=1 n=a6 v=83
309414 On ch=1 n=d7 v=0
309608 On ch=1 n=a#6 v=88
309654 On ch=1 n=a6 v=0
309682 Par ch=1 c=64 v=63
309686 Par ch=1 c=64 v=127
309900 On ch=1 n=a#6 v=0
309942 On ch=1 n=f#6 v=93
310060 On ch=1 n=f#6 v=0
310268 On ch=1 n=a6 v=80
310310 On ch=1 n=g6 v=83
310330 On ch=1 n=a6 v=0
310376 On ch=1 n=f#6 v=83
310400 On ch=1 n=g6 v=0
310460 On ch=1 n=g6 v=68
310470 On ch=1 n=f#6 v=0
310604 On ch=1 n=a#6 v=92
310664 Par ch=1 c=64 v=63
310674 On ch=1 n=g6 v=0
310746 Par ch=1 c=64 v=127
310948 On ch=1 n=a#4 v=64
310972 On ch=1 n=d6 v=82
310986 On ch=1 n=a#6 v=0
311098 Par ch=1 c=64 v=63
311136 Par ch=1 c=64 v=127
311384 On ch=1 n=d6 v=0
311412 On ch=1 n=g6 v=82
311428 On ch=1 n=a#5 v=64
311716 On ch=1 n=a#5 v=0
311782 On ch=1 n=a#4 v=0
311926 On ch=1 n=f6 v=87
311930 On ch=1 n=c5 v=62
311934 On ch=1 n=a5 v=48
311972 On ch=1 n=g6 v=0
312148 Par ch=1 c=64 v=63
312174 Par ch=1 c=64 v=0
312766 Par ch=1 c=64 v=63
312770 Par ch=1 c=64 v=127
313140 On ch=1 n=f6 v=0
313394 On ch=1 n=e6 v=42
313488 On ch=1 n=f6 v=56
313492 On ch=1 n=e6 v=0
313542 On ch=1 n=a5 v=0
313602 On ch=1 n=f6 v=0
313604 On ch=1 n=g6 v=57
313686 On ch=1 n=f6 v=61
313716 On ch=1 n=g6 v=0
313808 On ch=1 n=f6 v=0
313824 On ch=1 n=e6 v=62
313866 On ch=1 n=g5 v=35
313876 Par ch=1 c=64 v=63
313908 Par ch=1 c=64 v=0
314050 Par ch=1 c=64 v=63
314074 Par ch=1 c=64 v=127
314272 On ch=1 n=g5 v=0
314296 On ch=1 n=c5 v=0
314432 On ch=1 n=b4 v=57
314886 On ch=1 n=c5 v=65
315000 On ch=1 n=b4 v=0
315218 On ch=1 n=b4 v=75
315296 On ch=1 n=c5 v=0
315324 On ch=1 n=e6 v=0
315580 On ch=1 n=c5 v=60
315642 On ch=1 n=b4 v=0
315838 Par ch=1 c=64 v=63
315882 On ch=1 n=c5 v=0
315918 Par ch=1 c=64 v=0
315954 On ch=1 n=a#4 v=63
316044 On ch=1 n=a#4 v=0
316306 On ch=1 n=a4 v=53
316424 On ch=1 n=a4 v=0
316672 On ch=1 n=g4 v=45
316802 On ch=1 n=g4 v=0
317164 On ch=1 n=f4 v=35
317736 On ch=1 n=c6 v=35
317834 Par ch=1 c=64 v=63
317838 Par ch=1 c=64 v=127
318006 On ch=1 n=c6 v=0
318018 On ch=1 n=f4 v=0
318126 On ch=1 n=c6 v=55
318248 On ch=1 n=c6 v=0
318448 On ch=1 n=c6 v=67
318618 On ch=1 n=c6 v=0
318768 On ch=1 n=c6 v=77
318772 On ch=1 n=a4 v=44
318780 On ch=1 n=f4 v=45
318864 Par ch=1 c=64 v=63
318866 Par ch=1 c=64 v=127
319004 On ch=1 n=c6 v=0
319106 On ch=1 n=c6 v=84
319334 On ch=1 n=c6 v=0
319414 On ch=1 n=a#4 v=73
319420 On ch=1 n=c6 v=79
319434 On ch=1 n=g4 v=42
319460 On ch=1 n=f4 v=0
319502 Par ch=1 c=64 v=63
319520 Par ch=1 c=64 v=127
319538 On ch=1 n=a4 v=0
319630 On ch=1 n=c6 v=0
319742 On ch=1 n=c6 v=87
319906 On ch=1 n=c6 v=0
320024 On ch=1 n=a#4 v=0
320054 On ch=1 n=g4 v=0
320068 On ch=1 n=c6 v=74
320082 On ch=1 n=a4 v=60
320084 On ch=1 n=c5 v=73
320194 Par ch=1 c=64 v=63
320244 Par ch=1 c=64 v=127
320422 On ch=1 n=c6 v=0
320442 On ch=1 n=d6 v=80
320448 On ch=1 n=a4 v=0
320580 On ch=1 n=e6 v=92
320606 On ch=1 n=d6 v=0
320640 On ch=1 n=c5 v=0
320736 On ch=1 n=f6 v=77
320744 On ch=1 n=e6 v=0
320760 On ch=1 n=a4 v=38
320768 On ch=1 n=f4 v=40
320860 Par ch=1 c=64 v=63
320898 On ch=1 n=e6 v=73
320942 On ch=1 n=f6 v=0
321008 Par ch=1 c=64 v=127
321074 On ch=1 n=d6 v=76
321096 On ch=1 n=e6 v=0
321204 On ch=1 n=d6 v=0
321234 On ch=1 n=c6 v=63
321386 On ch=1 n=c6 v=0
321408 On ch=1 n=a#4 v=42
321422 On ch=1 n=f4 v=0
321438 On ch=1 n=g4 v=23
321452 On ch=1 n=a#5 v=67
321456 Par ch=1 c=64 v=63
321516 On ch=1 n=a4 v=0
321516 Par ch=1 c=64 v=0
321608 Par ch=1 c=64 v=63
321658 Par ch=1 c=64 v=127
321780 On ch=1 n=a#5 v=0
321884 On ch=1 n=a#5 v=67
322020 On ch=1 n=a#5 v=0
322196 On ch=1 n=a#5 v=79
322206 On ch=1 n=a#4 v=0
322240 On ch=1 n=g4 v=0
322318 On ch=1 n=a#5 v=0
322502 On ch=1 n=a#5 v=84
322682 On ch=1 n=a#5 v=0
322842 On ch=1 n=g4 v=57
322854 On ch=1 n=a#5 v=71
322858 On ch=1 n=e4 v=65
322982 Par ch=1 c=64 v=63
323088 On ch=1 n=a#5 v=0
323142 Par ch=1 c=64 v=127
323204 On ch=1 n=a#5 v=82
323334 On ch=1 n=a#5 v=0
323498 On ch=1 n=a#5 v=86
323508 On ch=1 n=d4 v=62
323514 On ch=1 n=f4 v=60
323552 On ch=1 n=e4 v=0
323566 On ch=1 n=g4 v=0
323572 Par ch=1 c=64 v=63
323652 Par ch=1 c=64 v=127
323696 On ch=1 n=a#5 v=0
323830 On ch=1 n=a#5 v=90
324022 On ch=1 n=a#5 v=0
324080 On ch=1 n=d4 v=0
324142 On ch=1 n=f4 v=0
324148 On ch=1 n=e4 v=63
324150 On ch=1 n=a#5 v=86
324166 On ch=1 n=c4 v=64
324256 Par ch=1 c=64 v=63
324320 Par ch=1 c=64 v=127
324508 On ch=1 n=e4 v=0
324518 On ch=1 n=a5 v=67
324520 On ch=1 n=a#5 v=0
324564 On ch=1 n=c4 v=0
324654 On ch=1 n=a#5 v=76
324676 On ch=1 n=a5 v=0
324846 On ch=1 n=a#5 v=0
324856 On ch=1 n=e4 v=57
324860 On ch=1 n=c6 v=68
324864 On ch=1 n=a#3 v=55
324988 Par ch=1 c=64 v=63
325020 Par ch=1 c=64 v=127
325022 On ch=1 n=a#5 v=79
325064 On ch=1 n=c6 v=0
325214 On ch=1 n=a5 v=62
325262 On ch=1 n=a#5 v=0
325290 On ch=1 n=a#3 v=0
325360 On ch=1 n=a5 v=0
325386 On ch=1 n=g5 v=68
325564 On ch=1 n=a3 v=38
325624 On ch=1 n=g5 v=0
325680 On ch=1 n=f6 v=68
325682 Par ch=1 c=64 v=63
325702 On ch=1 n=f4 v=48
325726 On ch=1 n=e4 v=0
325790 Par ch=1 c=64 v=127
325912 On ch=1 n=a3 v=0
325972 On ch=1 n=f4 v=0
325978 On ch=1 n=g6 v=50
325980 On ch=1 n=f6 v=0
326090 On ch=1 n=g6 v=0
326142 On ch=1 n=f6 v=52
326244 On ch=1 n=f6 v=0
326248 On ch=1 n=g6 v=66
326358 On ch=1 n=g6 v=0
326370 On ch=1 n=f6 v=55
326396 On ch=1 n=f5 v=52
326458 On ch=1 n=g6 v=57
326460 On ch=1 n=f6 v=0
326532 On ch=1 n=g6 v=0
326552 On ch=1 n=f6 v=71
326634 On ch=1 n=f5 v=0
326636 On ch=1 n=g6 v=72
326644 On ch=1 n=f6 v=0
326710 On ch=1 n=g6 v=0
326724 On ch=1 n=f6 v=70
326770 On ch=1 n=f5 v=56
326800 On ch=1 n=g6 v=70
326818 On ch=1 n=f6 v=0
326884 On ch=1 n=g6 v=0
326892 On ch=1 n=f6 v=70
326948 On ch=1 n=f5 v=0
326970 On ch=1 n=g6 v=68
326990 On ch=1 n=f6 v=0
327052 On ch=1 n=g6 v=0
327062 On ch=1 n=f6 v=72
327066 On ch=1 n=f5 v=69
327138 On ch=1 n=g6 v=76
327158 On ch=1 n=f6 v=0
327214 On ch=1 n=g6 v=0
327222 On ch=1 n=f5 v=0
327224 On ch=1 n=f6 v=80
327306 On ch=1 n=g6 v=77
327324 On ch=1 n=f6 v=0
327396 On ch=1 n=g6 v=0
327406 On ch=1 n=f6 v=84
327426 On ch=1 n=f5 v=78
327486 On ch=1 n=g6 v=75
327500 On ch=1 n=f6 v=0
327520 On ch=1 n=f5 v=0
327572 On ch=1 n=g6 v=0
327576 On ch=1 n=f6 v=82
327662 On ch=1 n=g6 v=78
327678 On ch=1 n=f6 v=0
327728 On ch=1 n=f5 v=76
327754 On ch=1 n=g6 v=0
327756 On ch=1 n=f6 v=80
327814 On ch=1 n=f5 v=0
327852 On ch=1 n=g6 v=85
327866 On ch=1 n=f6 v=0
327952 On ch=1 n=f6 v=88
327960 On ch=1 n=g6 v=0
328046 On ch=1 n=g6 v=89
328066 On ch=1 n=f6 v=0
328076 On ch=1 n=f5 v=92
328078 On ch=1 n=d#5 v=88
328116 Par ch=1 c=64 v=63
328140 On ch=1 n=f6 v=81
328150 On ch=1 n=g6 v=0
328176 Par ch=1 c=64 v=127
328224 On ch=1 n=g6 v=79
328250 On ch=1 n=f6 v=0
328276 On ch=1 n=f5 v=0
328320 On ch=1 n=f6 v=84
328322 On ch=1 n=g6 v=0
328388 On ch=1 n=g6 v=77
328418 On ch=1 n=f6 v=0
328422 On ch=1 n=f5 v=98
328478 On ch=1 n=g6 v=0
328480 On ch=1 n=f6 v=80
328548 On ch=1 n=g6 v=79
328558 On ch=1 n=f5 v=0
328574 On ch=1 n=f6 v=0
328638 On ch=1 n=g6 v=0
328638 On ch=1 n=f6 v=82
328662 On ch=1 n=d#5 v=0
328708 On ch=1 n=g6 v=79
328730 On ch=1 n=f5 v=101
328734 On ch=1 n=d5 v=97
328736 On ch=1 n=f6 v=0
328762 Par ch=1 c=64 v=63
328798 On ch=1 n=f6 v=79
328800 Par ch=1 c=64 v=127
328808 On ch=1 n=g6 v=0
328876 On ch=1 n=g6 v=73
328902 On ch=1 n=f6 v=0
329000 On ch=1 n=f6 v=78
329004 On ch=1 n=g6 v=0
329062 On ch=1 n=d5 v=0
329072 On ch=1 n=f5 v=0
329082 On ch=1 n=g5 v=92
329086 On ch=1 n=g6 v=69
329102 On ch=1 n=f6 v=0
329188 On ch=1 n=a5 v=97
329188 On ch=1 n=f6 v=75
329194 On ch=1 n=g6 v=0
329204 On ch=1 n=g5 v=0
329256 On ch=1 n=a5 v=0
329274 On ch=1 n=g6 v=65
329294 On ch=1 n=f6 v=0
329370 On ch=1 n=a#4 v=86
329374 On ch=1 n=a#5 v=83
329376 On ch=1 n=f6 v=60
329388 On ch=1 n=g6 v=0
329436 On ch=1 n=a#4 v=0
329454 On ch=1 n=a#5 v=0
329484 On ch=1 n=g6 v=45
329492 On ch=1 n=f6 v=0
329512 On ch=1 n=a5 v=94
329574 On ch=1 n=g6 v=0
329578 On ch=1 n=f6 v=58
329666 On ch=1 n=g5 v=91
329672 On ch=1 n=g6 v=60
329674 On ch=1 n=f6 v=0
329682 On ch=1 n=a5 v=0
329752 On ch=1 n=g6 v=0
329774 On ch=1 n=f6 v=59
329802 On ch=1 n=f5 v=74
329812 On ch=1 n=g5 v=0
329864 On ch=1 n=g6 v=55
329872 On ch=1 n=f6 v=0
329912 On ch=1 n=f5 v=0
329998 On ch=1 n=g6 v=0
330006 On ch=1 n=f6 v=52
330028 On ch=1 n=d#5 v=93
330028 On ch=1 n=c5 v=40
330096 Par ch=1 c=64 v=63
330110 On ch=1 n=f6 v=0
330116 On ch=1 n=g6 v=45
330128 Par ch=1 c=64 v=0
330174 Par ch=1 c=64 v=63
330210 On ch=1 n=g6 v=0
330224 On ch=1 n=f6 v=48
330228 Par ch=1 c=64 v=127
330314 On ch=1 n=f6 v=0
330326 On ch=1 n=g6 v=44
330374 On ch=1 n=d#5 v=0
330414 On ch=1 n=g6 v=0
330434 On ch=1 n=f6 v=50
330466 On ch=1 n=d#5 v=70
330482 On ch=1 n=c5 v=0
330524 On ch=1 n=f6 v=0
330542 On ch=1 n=g6 v=35
330580 On ch=1 n=d#5 v=0
330608 On ch=1 n=g6 v=0
330628 On ch=1 n=f6 v=46
330696 On ch=1 n=f6 v=0
330698 On ch=1 n=g6 v=47
330762 On ch=1 n=g6 v=0
330788 On ch=1 n=f6 v=48
330812 On ch=1 n=d#5 v=81
330864 On ch=1 n=g6 v=54
330870 On ch=1 n=f6 v=0
330924 On ch=1 n=d#5 v=0
330926 On ch=1 n=g6 v=0
330958 On ch=1 n=f6 v=49
331036 On ch=1 n=f6 v=0
331042 On ch=1 n=g6 v=50
331098 On ch=1 n=g6 v=0
331122 On ch=1 n=f6 v=59
331144 On ch=1 n=d#5 v=90
331214 On ch=1 n=g6 v=61
331216 On ch=1 n=f6 v=0
331278 On ch=1 n=d#5 v=0
331290 On ch=1 n=g6 v=0
331302 On ch=1 n=f6 v=60
331380 On ch=1 n=g6 v=60
331392 On ch=1 n=f6 v=0
331450 On ch=1 n=d#5 v=94
331458 On ch=1 n=c5 v=81
331472 On ch=1 n=g6 v=0
331478 On ch=1 n=f6 v=54
331560 On ch=1 n=g6 v=57
331566 On ch=1 n=f6 v=0
331598 On ch=1 n=d#5 v=0
331634 On ch=1 n=g6 v=0
331650 On ch=1 n=f6 v=57
331734 On ch=1 n=g6 v=57
331738 On ch=1 n=f6 v=0
331760 On ch=1 n=d#5 v=105
331818 On ch=1 n=g6 v=0
331824 On ch=1 n=f6 v=56
331850 On ch=1 n=c5 v=0
331904 On ch=1 n=g6 v=59
331914 On ch=1 n=f6 v=0
331970 On ch=1 n=d#5 v=0
332010 On ch=1 n=f6 v=48
332022 On ch=1 n=g6 v=0
332096 On ch=1 n=g6 v=65
332096 On ch=1 n=d#5 v=104
332102 On ch=1 n=f6 v=0
332106 On ch=1 n=a4 v=81
332190 On ch=1 n=f6 v=59
332198 On ch=1 n=g6 v=0
332252 On ch=1 n=d#5 v=0
332274 On ch=1 n=g6 v=58
332286 On ch=1 n=f6 v=0
332358 On ch=1 n=g6 v=0
332370 On ch=1 n=f6 v=59
332420 On ch=1 n=d#5 v=108
332438 On ch=1 n=g6 v=56
332454 On ch=1 n=a4 v=0
332456 On ch=1 n=f6 v=0
332510 On ch=1 n=d#5 v=0
332520 On ch=1 n=g6 v=0
332530 On ch=1 n=f6 v=72
332600 On ch=1 n=g6 v=54
332624 On ch=1 n=f6 v=0
332696 On ch=1 n=g6 v=0
332696 On ch=1 n=f6 v=64
332774 On ch=1 n=g6 v=63
332790 On ch=1 n=f6 v=0
332800 On ch=1 n=d#5 v=106
332810 On ch=1 n=f4 v=87
332852 Par ch=1 c=64 v=63
332872 On ch=1 n=g6 v=0
332874 On ch=1 n=f6 v=61
332896 Par ch=1 c=64 v=127
332972 On ch=1 n=g6 v=51
332980 On ch=1 n=f6 v=0
333094 On ch=1 n=d#5 v=0
333120 On ch=1 n=f4 v=0
333132 On ch=1 n=g6 v=0
333144 On ch=1 n=f6 v=62
333180 On ch=1 n=d5 v=90
333240 On ch=1 n=g6 v=47
333244 On ch=1 n=f6 v=0
333330 On ch=1 n=c5 v=91
333354 On ch=1 n=d5 v=0
333370 On ch=1 n=g6 v=0
333374 On ch=1 n=f6 v=50
333400 On ch=1 n=c5 v=0
333466 On ch=1 n=f6 v=0
333488 On ch=1 n=g6 v=42
333516 On ch=1 n=a#4 v=92
333536 On ch=1 n=d#4 v=75
333568 Par ch=1 c=64 v=63
333606 On ch=1 n=g6 v=0
333610 On ch=1 n=f6 v=42
333672 On ch=1 n=a4 v=76
333674 Par ch=1 c=64 v=127
333692 On ch=1 n=a#4 v=0
333702 On ch=1 n=f6 v=0
333702 On ch=1 n=g6 v=44
333792 On ch=1 n=d#4 v=0
333824 On ch=1 n=g6 v=0
333840 On ch=1 n=f6 v=42
333858 On ch=1 n=g4 v=76
333904 On ch=1 n=a4 v=0
333922 On ch=1 n=f6 v=0
333952 On ch=1 n=g6 v=21
334036 On ch=1 n=f4 v=73
334040 On ch=1 n=g6 v=0
334046 On ch=1 n=f6 v=29
334050 On ch=1 n=g4 v=0
334130 On ch=1 n=f6 v=0
334144 On ch=1 n=g6 v=36
334358 On ch=1 n=g6 v=0
334360 On ch=1 n=d4 v=60
334360 On ch=1 n=a#4 v=82
334378 On ch=1 n=f4 v=0
334606 Par ch=1 c=64 v=63
334658 Par ch=1 c=64 v=0
334940 On ch=1 n=f6 v=89
335392 On ch=1 n=a#6 v=88
335582 On ch=1 n=f6 v=0
335610 Par ch=1 c=64 v=63
335612 Par ch=1 c=64 v=127
335768 On ch=1 n=a#6 v=0
335770 On ch=1 n=d4 v=0
335828 On ch=1 n=a#4 v=0
335838 On ch=1 n=a#6 v=112
336248 On ch=1 n=d5 v=84
336256 On ch=1 n=c7 v=101
336258 On ch=1 n=d4 v=77
336260 On ch=1 n=f6 v=88
336330 On ch=1 n=a#6 v=0
336496 Par ch=1 c=64 v=63
336532 Par ch=1 c=64 v=0
336620 Par ch=1 c=64 v=63
336650 Par ch=1 c=64 v=127
336736 On ch=1 n=a#6 v=104
336804 On ch=1 n=c7 v=0
337042 On ch=1 n=a6 v=100
337130 On ch=1 n=a#6 v=0
337378 On ch=1 n=a#6 v=109
337410 On ch=1 n=d5 v=0
337458 On ch=1 n=a6 v=0
337626 On ch=1 n=f6 v=0
337664 On ch=1 n=a#6 v=0
337724 On ch=1 n=c5 v=91
337726 On ch=1 n=c4 v=91
337730 On ch=1 n=a#6 v=96
337742 On ch=1 n=f6 v=80
337804 On ch=1 n=d4 v=0
337870 Par ch=1 c=64 v=63
337910 Par ch=1 c=64 v=0
337996 Par ch=1 c=64 v=63
338024 Par ch=1 c=64 v=127
338076 On ch=1 n=a6 v=101
338146 On ch=1 n=a#6 v=0
338316 Par ch=1 c=64 v=63
338350 Par ch=1 c=64 v=0
338364 Par ch=1 c=64 v=63
338414 Par ch=1 c=64 v=127
338446 On ch=1 n=g#6 v=96
338526 On ch=1 n=a6 v=0
338628 On ch=1 n=c5 v=0
338796 On ch=1 n=a6 v=80
338808 On ch=1 n=c4 v=0
338876 On ch=1 n=g#6 v=0
339010 On ch=1 n=f6 v=0
339178 On ch=1 n=a#4 v=53
339186 On ch=1 n=g6 v=65
339194 On ch=1 n=a#3 v=53
339208 On ch=1 n=f6 v=45
339220 Par ch=1 c=64 v=63
339244 Par ch=1 c=64 v=0
339250 On ch=1 n=a6 v=0
339292 Par ch=1 c=64 v=63
339332 Par ch=1 c=64 v=127
339448 On ch=1 n=f6 v=0
339480 On ch=1 n=g6 v=0
339778 On ch=1 n=g5 v=59
339788 On ch=1 n=f5 v=38
339918 On ch=1 n=a#4 v=0
340004 On ch=1 n=f5 v=0
340032 On ch=1 n=g5 v=0
340110 On ch=1 n=a#3 v=0
340156 On ch=1 n=g5 v=75
340170 On ch=1 n=f5 v=59
340370 On ch=1 n=f5 v=0
340378 On ch=1 n=g5 v=0
340494 On ch=1 n=g5 v=76
340512 On ch=1 n=f5 v=65
340740 On ch=1 n=f5 v=0
340814 On ch=1 n=g5 v=0
340832 On ch=1 n=a#3 v=57
340836 On ch=1 n=f5 v=61
340842 On ch=1 n=a#2 v=67
340848 On ch=1 n=a5 v=83
340996 Par ch=1 c=64 v=63
341040 Par ch=1 c=64 v=0
341160 Par ch=1 c=64 v=63
341192 Par ch=1 c=64 v=127
341208 On ch=1 n=g5 v=84
341312 On ch=1 n=a5 v=0
341510 On ch=1 n=f#5 v=100
341592 On ch=1 n=g5 v=0
341714 On ch=1 n=a#2 v=0
341800 On ch=1 n=a#3 v=0
341822 On ch=1 n=g5 v=100
341884 On ch=1 n=f#5 v=0
341912 On ch=1 n=f5 v=0
342058 On ch=1 n=g5 v=0
342140 On ch=1 n=c4 v=59
342144 On ch=1 n=c3 v=73
342146 On ch=1 n=a#5 v=95
342172 On ch=1 n=f5 v=48
342476 On ch=1 n=a5 v=83
342522 Par ch=1 c=64 v=63
342558 On ch=1 n=a#5 v=0
342582 Par ch=1 c=64 v=0
342766 Par ch=1 c=64 v=63
342792 Par ch=1 c=64 v=127
342840 On ch=1 n=g#5 v=79
342894 On ch=1 n=a5 v=0
343060 On ch=1 n=c3 v=0
343198 On ch=1 n=g#5 v=0
343200 On ch=1 n=a5 v=54
343244 On ch=1 n=c4 v=0
343318 On ch=1 n=f5 v=0
343594 On ch=1 n=a#5 v=73
343600 On ch=1 n=d4 v=45
343622 On ch=1 n=d3 v=37
343630 On ch=1 n=a5 v=0
343646 On ch=1 n=f5 v=28
343646 Par ch=1 c=64 v=63
343772 Par ch=1 c=64 v=127
343886 On ch=1 n=f5 v=0
343928 On ch=1 n=a#5 v=0
344174 On ch=1 n=g6 v=60
344242 On ch=1 n=f6 v=59
344268 On ch=1 n=g6 v=0
344320 On ch=1 n=e6 v=62
344330 On ch=1 n=f6 v=0
344386 On ch=1 n=f6 v=80
344402 On ch=1 n=e6 v=0
344530 On ch=1 n=a#6 v=82
344554 On ch=1 n=f6 v=0
344614 Par ch=1 c=64 v=63
344748 Par ch=1 c=64 v=127
344860 On ch=1 n=d3 v=0
344966 On ch=1 n=d4 v=0
344984 On ch=1 n=a#6 v=0
345054 On ch=1 n=a#6 v=95
345522 On ch=1 n=c7 v=91
345530 On ch=1 n=d5 v=84
345536 On ch=1 n=f6 v=65
345544 On ch=1 n=a#6 v=0
345546 On ch=1 n=d4 v=75
345868 Par ch=1 c=64 v=63
345908 Par ch=1 c=64 v=0
345930 On ch=1 n=a#6 v=99
346006 On ch=1 n=c7 v=0
346018 Par ch=1 c=64 v=63
346042 Par ch=1 c=64 v=127
346260 On ch=1 n=a6 v=99
346348 On ch=1 n=a#6 v=0
346566 On ch=1 n=a#6 v=105
346592 On ch=1 n=d5 v=0
346670 On ch=1 n=a6 v=0
346782 On ch=1 n=f6 v=0
346814 On ch=1 n=a#6 v=0
346882 On ch=1 n=a#6 v=88
346884 On ch=1 n=c5 v=85
346898 On ch=1 n=f6 v=74
346902 On ch=1 n=c4 v=71
346998 On ch=1 n=d4 v=0
347008 Par ch=1 c=64 v=63
347046 Par ch=1 c=64 v=0
347214 On ch=1 n=a6 v=96
347302 Par ch=1 c=64 v=63
347306 On ch=1 n=a#6 v=0
347324 Par ch=1 c=64 v=127
347546 On ch=1 n=g#6 v=98
347612 On ch=1 n=a6 v=0
347652 On ch=1 n=c5 v=0
347746 On ch=1 n=c4 v=0
347852 On ch=1 n=a6 v=88
347892 On ch=1 n=g#6 v=0
347964 On ch=1 n=f6 v=0
348180 On ch=1 n=g6 v=82
348192 On ch=1 n=f6 v=64
348198 On ch=1 n=a#3 v=55
348206 On ch=1 n=a#4 v=37
348260 On ch=1 n=a6 v=0
348328 Par ch=1 c=64 v=63
348372 Par ch=1 c=64 v=0
348412 Par ch=1 c=64 v=63
348468 Par ch=1 c=64 v=127
348598 On ch=1 n=g6 v=0
348650 On ch=1 n=a6 v=65
348738 On ch=1 n=g6 v=77
348752 On ch=1 n=a6 v=0
348808 On ch=1 n=f#6 v=86
348824 On ch=1 n=g6 v=0
348896 On ch=1 n=g6 v=85
348930 Par ch=1 c=64 v=63
348944 On ch=1 n=f#6 v=0
348980 Par ch=1 c=64 v=0
349018 Par ch=1 c=64 v=63
349072 Par ch=1 c=64 v=127
349234 On ch=1 n=a6 v=92
349292 On ch=1 n=g6 v=0
349386 On ch=1 n=a6 v=0
349474 On ch=1 n=f6 v=0
349596 On ch=1 n=a#6 v=89
349622 On ch=1 n=f6 v=66
349654 Par ch=1 c=64 v=63
349734 Par ch=1 c=64 v=127
349832 On ch=1 n=a#3 v=0
349894 On ch=1 n=a#4 v=0
350006 On ch=1 n=a#6 v=0
350064 On ch=1 n=c7 v=65
350132 On ch=1 n=a#6 v=89
350162 On ch=1 n=c7 v=0
350224 On ch=1 n=a6 v=63
350230 On ch=1 n=a#6 v=0
350300 On ch=1 n=d5 v=78
350308 On ch=1 n=a#6 v=98
350358 On ch=1 n=a6 v=0
350436 Par ch=1 c=64 v=63
350466 Par ch=1 c=64 v=127
350590 On ch=1 n=f6 v=0
350634 On ch=1 n=c7 v=94
350634 On ch=1 n=a6 v=71
350636 On ch=1 n=c5 v=92
350714 On ch=1 n=d5 v=0
350718 On ch=1 n=a#6 v=0
350962 On ch=1 n=a6 v=0
350962 On ch=1 n=a#4 v=81
350974 On ch=1 n=d7 v=87
350986 On ch=1 n=a#6 v=68
351006 Par ch=1 c=64 v=63
351026 On ch=1 n=c7 v=0
351028 On ch=1 n=c5 v=0
351044 Par ch=1 c=64 v=0
351118 Par ch=1 c=64 v=63
351156 Par ch=1 c=64 v=127
351230 On ch=1 n=a#6 v=0
351230 On ch=1 n=d7 v=0
351302 On ch=1 n=c5 v=99
351320 On ch=1 n=d7 v=91
351324 On ch=1 n=a#6 v=75
351352 Par ch=1 c=64 v=63
351382 On ch=1 n=a#4 v=0
351382 Par ch=1 c=64 v=0
351544 On ch=1 n=d7 v=0
351556 On ch=1 n=a#6 v=0
351640 Par ch=1 c=64 v=63
351640 On ch=1 n=d7 v=94
351642 On ch=1 n=d5 v=94
351650 On ch=1 n=a#6 v=78
351656 Par ch=1 c=64 v=127
351658 On ch=1 n=c5 v=0
351804 On ch=1 n=a#6 v=0
351818 On ch=1 n=d7 v=0
351940 On ch=1 n=d5 v=0
352000 On ch=1 n=e5 v=65
352006 On ch=1 n=d7 v=107
352018 On ch=1 n=a#6 v=95
352064 Par ch=1 c=64 v=63
352140 Par ch=1 c=64 v=127
352284 On ch=1 n=d7 v=0
352302 On ch=1 n=a#6 v=0
352434 On ch=1 n=e5 v=0
352436 On ch=1 n=f5 v=67
352454 On ch=1 n=a#6 v=76
352468 On ch=1 n=d7 v=80
352552 Par ch=1 c=64 v=63
352586 Par ch=1 c=64 v=0
352656 Par ch=1 c=64 v=63
352696 Par ch=1 c=64 v=127
352814 On ch=1 n=a#6 v=0
352846 On ch=1 n=c7 v=86
352866 On ch=1 n=a6 v=71
352868 On ch=1 n=d7 v=0
353132 On ch=1 n=f5 v=0
353176 On ch=1 n=a#4 v=65
353180 On ch=1 n=a#6 v=83
353188 Par ch=1 c=64 v=63
353194 On ch=1 n=d7 v=86
353228 Par ch=1 c=64 v=0
353244 On ch=1 n=c7 v=0
353264 Par ch=1 c=64 v=63
353272 On ch=1 n=a6 v=0
353316 Par ch=1 c=64 v=127
353436 On ch=1 n=a#6 v=0
353540 On ch=1 n=a#6 v=100
353562 On ch=1 n=g6 v=65
353636 On ch=1 n=d7 v=0
353710 On ch=1 n=g6 v=0
353804 On ch=1 n=a#4 v=0
353896 On ch=1 n=a6 v=82
353900 On ch=1 n=c5 v=55
353904 On ch=1 n=f6 v=60
353990 On ch=1 n=a#6 v=0
354090 Par ch=1 c=64 v=63
354228 On ch=1 n=c7 v=72
354242 Par ch=1 c=64 v=127
354320 On ch=1 n=a6 v=0
354474 On ch=1 n=b6 v=73
354534 On ch=1 n=c7 v=0
354662 On ch=1 n=a#6 v=88
354736 On ch=1 n=b6 v=0
354802 On ch=1 n=f6 v=0
354862 On ch=1 n=a6 v=79
354922 On ch=1 n=a#6 v=0
354988 Par ch=1 c=64 v=63
355096 Par ch=1 c=64 v=127
355128 On ch=1 n=a#6 v=68
355180 On ch=1 n=a6 v=0
355204 On ch=1 n=c5 v=0
355396 On ch=1 n=g6 v=73
355456 On ch=1 n=a#6 v=0
355650 On ch=1 n=c4 v=46
355704 On ch=1 n=a6 v=61
355712 On ch=1 n=g6 v=0
355722 Par ch=1 c=64 v=63
355734 On ch=1 n=e6 v=39
355772 Par ch=1 c=64 v=127
355954 On ch=1 n=e6 v=0
355964 On ch=1 n=g6 v=68
356016 On ch=1 n=a6 v=0
356106 On ch=1 n=g6 v=0
356134 On ch=1 n=a6 v=38
356186 On ch=1 n=g6 v=54
356206 On ch=1 n=a6 v=0
356296 On ch=1 n=g6 v=0
356306 On ch=1 n=a6 v=49
356372 On ch=1 n=a6 v=0
356388 On ch=1 n=g6 v=55
356464 On ch=1 n=g6 v=0
356464 On ch=1 n=a6 v=65
356522 On ch=1 n=a6 v=0
356546 On ch=1 n=g6 v=57
356600 On ch=1 n=a6 v=65
356606 On ch=1 n=g6 v=0
356664 On ch=1 n=a6 v=0
356682 On ch=1 n=g6 v=68
356738 On ch=1 n=a6 v=54
356778 On ch=1 n=g6 v=0
356838 On ch=1 n=g6 v=83
356844 On ch=1 n=a6 v=0
356900 On ch=1 n=a6 v=85
356904 On ch=1 n=g6 v=0
356964 On ch=1 n=a6 v=0
356980 On ch=1 n=g6 v=73
357086 On ch=1 n=f6 v=66
357090 On ch=1 n=g6 v=0
357210 On ch=1 n=c4 v=0
357222 On ch=1 n=g6 v=79
357256 On ch=1 n=f6 v=0
357374 On ch=1 n=g6 v=0
357488 On ch=1 n=f4 v=76
357650 Par ch=1 c=64 v=63
357668 Par ch=1 c=64 v=0
357958 On ch=1 n=f5 v=85
358052 Par ch=1 c=64 v=63
358064 Par ch=1 c=64 v=127
358324 On ch=1 n=f4 v=0
358420 On ch=1 n=f5 v=0
358426 On ch=1 n=f6 v=69
358854 On ch=1 n=e6 v=71
358904 On ch=1 n=f6 v=0
359206 On ch=1 n=d6 v=66
359218 Par ch=1 c=64 v=63
359268 On ch=1 n=e6 v=0
359330 Par ch=1 c=64 v=127
359366 On ch=1 n=d6 v=0
359558 On ch=1 n=f3 v=90
359572 On ch=1 n=d5 v=85
359956 On ch=1 n=d6 v=83
359960 On ch=1 n=f4 v=73
360060 On ch=1 n=d5 v=0
360138 On ch=1 n=f3 v=0
360296 On ch=1 n=c6 v=83
360310 On ch=1 n=e4 v=69
360348 On ch=1 n=d6 v=0
360414 On ch=1 n=f4 v=0
360414 Par ch=1 c=64 v=63
360546 Par ch=1 c=64 v=127
360636 On ch=1 n=a#5 v=71
360648 On ch=1 n=d4 v=71
360676 On ch=1 n=c6 v=0
360692 On ch=1 n=e4 v=0
360726 On ch=1 n=d4 v=0
360756 On ch=1 n=a#5 v=0
360986 On ch=1 n=d3 v=85
360998 On ch=1 n=a#4 v=91
361006 Par ch=1 c=64 v=63
361032 Par ch=1 c=64 v=0
361094 Par ch=1 c=64 v=63
361136 Par ch=1 c=64 v=127
361364 On ch=1 n=d4 v=77
361370 On ch=1 n=a#5 v=88
361414 On ch=1 n=a#4 v=0
361418 On ch=1 n=d3 v=0
361660 On ch=1 n=a#5 v=0
361672 On ch=1 n=c4 v=88
361696 On ch=1 n=a5 v=82
361746 On ch=1 n=d4 v=0
361920 Par ch=1 c=64 v=63
362002 On ch=1 n=g5 v=76
362024 On ch=1 n=a#3 v=80
362030 Par ch=1 c=64 v=127
362066 On ch=1 n=c4 v=0
362068 On ch=1 n=a5 v=0
362110 On ch=1 n=g5 v=0
362118 On ch=1 n=a#3 v=0
362322 On ch=1 n=g4 v=84
362344 On ch=1 n=a#2 v=95
362402 Par ch=1 c=64 v=63
362510 Par ch=1 c=64 v=127
362630 On ch=1 n=g4 v=0
362658 On ch=1 n=g5 v=83
362662 On ch=1 n=a#3 v=84
362738 On ch=1 n=a#2 v=0
363036 On ch=1 n=a3 v=65
363036 On ch=1 n=f#5 v=90
363042 On ch=1 n=a#3 v=0
363074 On ch=1 n=g5 v=0
363126 Par ch=1 c=64 v=63
363148 Par ch=1 c=64 v=0
363276 Par ch=1 c=64 v=63
363298 Par ch=1 c=64 v=127
363394 Par ch=1 c=64 v=63
363408 Par ch=1 c=64 v=0
363426 On ch=1 n=a#3 v=70
363434 On ch=1 n=g5 v=68
363444 On ch=1 n=a3 v=0
363460 On ch=1 n=f#5 v=0
363494 Par ch=1 c=64 v=63
363516 Par ch=1 c=64 v=127
363614 On ch=1 n=a#3 v=0
363754 On ch=1 n=g5 v=0
363866 Par ch=1 c=64 v=63
363894 On ch=1 n=a5 v=59
363908 On ch=1 n=d#5 v=60
363914 On ch=1 n=f#4 v=50
363922 On ch=1 n=f#3 v=53
363942 Par ch=1 c=64 v=127
364082 On ch=1 n=f#3 v=0
364090 On ch=1 n=a5 v=0
364096 On ch=1 n=f#4 v=0
364264 On ch=1 n=d#5 v=0
364290 Par ch=1 c=64 v=63
364292 On ch=1 n=a#5 v=81
364294 Par ch=1 c=64 v=127
364312 On ch=1 n=d5 v=64
364322 On ch=1 n=g4 v=61
364338 On ch=1 n=g3 v=63
364536 On ch=1 n=g3 v=0
364544 On ch=1 n=g4 v=0
364566 On ch=1 n=a#5 v=0
364618 On ch=1 n=d5 v=0
364644 On ch=1 n=b5 v=85
364650 On ch=1 n=g#5 v=76
364658 On ch=1 n=f4 v=82
364662 On ch=1 n=f3 v=84
364838 On ch=1 n=f4 v=0
364872 On ch=1 n=f3 v=0
364876 On ch=1 n=b5 v=0
364910 On ch=1 n=g#5 v=0
364972 On ch=1 n=c6 v=87
364980 On ch=1 n=g5 v=65
364986 On ch=1 n=e3 v=90
364990 On ch=1 n=e4 v=81
365110 On ch=1 n=e3 v=0
365168 On ch=1 n=e4 v=0
365206 On ch=1 n=c6 v=0
365236 On ch=1 n=g5 v=0
365318 On ch=1 n=c#6 v=105
365320 On ch=1 n=g5 v=76
365322 On ch=1 n=a3 v=83
365330 On ch=1 n=a4 v=59
365356 Par ch=1 c=64 v=63
365358 On ch=1 n=g4 v=40
365394 Par ch=1 c=64 v=127
365438 On ch=1 n=g4 v=0
365450 On ch=1 n=a3 v=0
365522 On ch=1 n=a4 v=0
365568 On ch=1 n=g5 v=0
365662 On ch=1 n=c#6 v=0
365686 On ch=1 n=d6 v=91
365696 On ch=1 n=f5 v=78
365700 On ch=1 n=a#4 v=88
365704 On ch=1 n=a#3 v=85
365798 On ch=1 n=a#3 v=0
365804 On ch=1 n=a#4 v=0
365862 On ch=1 n=d6 v=0
365954 On ch=1 n=f5 v=0
366072 On ch=1 n=e6 v=90
366078 On ch=1 n=a#5 v=87
366086 On ch=1 n=g4 v=86
366094 On ch=1 n=g3 v=82
366130 Par ch=1 c=64 v=63
366240 Par ch=1 c=64 v=127
366374 On ch=1 n=g3 v=0
366412 On ch=1 n=a#5 v=0
366426 On ch=1 n=g4 v=0
366504 On ch=1 n=e6 v=0
366574 On ch=1 n=a4 v=82
366580 On ch=1 n=f6 v=98
366580 On ch=1 n=a3 v=79
366586 On ch=1 n=c6 v=80
366744 Par ch=1 c=64 v=63
366768 Par ch=1 c=64 v=0
366878 Par ch=1 c=64 v=63
366896 Par ch=1 c=64 v=127
367172 On ch=1 n=c6 v=0
367176 On ch=1 n=a3 v=0
367236 On ch=1 n=a4 v=0
367272 On ch=1 n=f6 v=0
367294 On ch=1 n=c6 v=90
367496 On ch=1 n=a#5 v=79
367496 On ch=1 n=a#4 v=72
367504 On ch=1 n=d6 v=83
367514 On ch=1 n=a#3 v=60
367518 On ch=1 n=c6 v=0
367608 Par ch=1 c=64 v=63
367638 Par ch=1 c=64 v=0
367726 Par ch=1 c=64 v=63
367750 Par ch=1 c=64 v=127
367904 On ch=1 n=d6 v=0
367980 On ch=1 n=a#5 v=0
367990 On ch=1 n=a#3 v=0
368072 On ch=1 n=a#4 v=0
368168 On ch=1 n=a#5 v=88
368194 On ch=1 n=g5 v=55
368296 On ch=1 n=g5 v=0
368416 On ch=1 n=a5 v=72
368420 On ch=1 n=f5 v=56
368428 On ch=1 n=c4 v=48
368432 On ch=1 n=c5 v=38
368468 On ch=1 n=a#5 v=0
368524 Par ch=1 c=64 v=63
368542 Par ch=1 c=64 v=0
368940 Par ch=1 c=64 v=63
368948 Par ch=1 c=64 v=127
369156 On ch=1 n=a5 v=0
369164 On ch=1 n=a#5 v=68
369262 On ch=1 n=a5 v=60
369268 On ch=1 n=a#5 v=0
369350 On ch=1 n=g5 v=67
369356 On ch=1 n=a5 v=0
369440 On ch=1 n=a5 v=55
369450 On ch=1 n=g5 v=0
369486 Par ch=1 c=64 v=63
369502 Par ch=1 c=64 v=0
369698 Par ch=1 c=64 v=63
369710 Par ch=1 c=64 v=127
369790 On ch=1 n=c5 v=0
369830 On ch=1 n=a#5 v=63
369864 On ch=1 n=f5 v=0
369880 On ch=1 n=a5 v=0
369922 On ch=1 n=c4 v=0
370036 On ch=1 n=a#5 v=0
370398 On ch=1 n=c3 v=38
370404 On ch=1 n=c4 v=32
370406 On ch=1 n=a5 v=38
370428 On ch=1 n=e5 v=35
370438 Par ch=1 c=64 v=63
370518 Par ch=1 c=64 v=127
370708 On ch=1 n=g5 v=55
370714 On ch=1 n=e5 v=0
370772 On ch=1 n=a5 v=0
370900 On ch=1 n=g5 v=0
370912 On ch=1 n=a5 v=58
371038 On ch=1 n=a5 v=0
371044 On ch=1 n=g5 v=48
371144 On ch=1 n=a5 v=63
371146 On ch=1 n=g5 v=0
371226 On ch=1 n=a5 v=0
371248 On ch=1 n=g5 v=47
371304 On ch=1 n=a5 v=59
371314 On ch=1 n=g5 v=0
371378 On ch=1 n=a5 v=0
371406 On ch=1 n=g5 v=47
371446 On ch=1 n=a5 v=62
371470 On ch=1 n=g5 v=0
371548 On ch=1 n=g5 v=70
371556 On ch=1 n=a5 v=0
371620 On ch=1 n=a5 v=67
371628 On ch=1 n=g5 v=0
371680 On ch=1 n=a5 v=0
371688 On ch=1 n=c3 v=0
371710 On ch=1 n=g5 v=52
371794 On ch=1 n=g5 v=0
371794 On ch=1 n=f5 v=48
371798 On ch=1 n=c4 v=0
371924 On ch=1 n=f5 v=0
371932 On ch=1 n=g5 v=60
372166 On ch=1 n=g5 v=0
372200 Par ch=1 c=64 v=63
372220 Par ch=1 c=64 v=127
372222 On ch=1 n=f3 v=57
372232 On ch=1 n=f4 v=46
372466 Par ch=1 c=64 v=63
372476 Par ch=1 c=64 v=0
372582 Par ch=1 c=64 v=63
372600 Par ch=1 c=64 v=127
372734 On ch=1 n=g6 v=59
372816 On ch=1 n=g6 v=0
372818 On ch=1 n=f6 v=53
372876 On ch=1 n=f6 v=0
372898 On ch=1 n=e6 v=46
372956 On ch=1 n=e6 v=0
372970 On ch=1 n=f6 v=81
373146 On ch=1 n=f7 v=71
373152 Par ch=1 c=64 v=63
373160 On ch=1 n=f6 v=0
373218 Par ch=1 c=64 v=127
373262 On ch=1 n=f3 v=0
373270 On ch=1 n=f4 v=0
373582 On ch=1 n=e7 v=83
373614 On ch=1 n=f7 v=0
373940 On ch=1 n=d7 v=87
373984 On ch=1 n=e7 v=0
373994 On ch=1 n=d7 v=0
374320 On ch=1 n=g4 v=53
374326 Par ch=1 c=64 v=63
374354 On ch=1 n=e6 v=63
374368 Par ch=1 c=64 v=127
374400 On ch=1 n=e6 v=0
374402 On ch=1 n=g4 v=0
374402 On ch=1 n=f4 v=69
374406 On ch=1 n=d6 v=67
374492 On ch=1 n=d6 v=0
374494 On ch=1 n=c#6 v=83
374496 On ch=1 n=f4 v=0
374502 On ch=1 n=e4 v=77
374578 On ch=1 n=c#6 v=0
374580 On ch=1 n=f4 v=76
374594 On ch=1 n=d6 v=70
374596 On ch=1 n=e4 v=0
374636 On ch=1 n=f4 v=0
374694 On ch=1 n=d6 v=0
374718 On ch=1 n=d7 v=88
374736 On ch=1 n=f5 v=72
375096 On ch=1 n=e5 v=79
375098 On ch=1 n=c7 v=85
375122 On ch=1 n=f5 v=0
375126 On ch=1 n=d7 v=0
375138 Par ch=1 c=64 v=63
375170 Par ch=1 c=64 v=0
375222 Par ch=1 c=64 v=63
375280 Par ch=1 c=64 v=127
375470 On ch=1 n=a#6 v=85
375476 On ch=1 n=d5 v=75
375484 On ch=1 n=c7 v=0
375498 On ch=1 n=e5 v=0
375524 On ch=1 n=d5 v=0
375536 On ch=1 n=a#6 v=0
375970 Par ch=1 c=64 v=63
375990 On ch=1 n=e4 v=67
376008 On ch=1 n=c6 v=83
376074 On ch=1 n=a#5 v=86
376082 Par ch=1 c=64 v=127
376088 On ch=1 n=d4 v=69
376092 On ch=1 n=e4 v=0
376104 On ch=1 n=c6 v=0
376154 On ch=1 n=a#5 v=0
376170 On ch=1 n=a5 v=57
376190 On ch=1 n=d4 v=0
376202 On ch=1 n=c#4 v=84
376256 On ch=1 n=a#5 v=87
376260 On ch=1 n=a5 v=0
376296 On ch=1 n=a#5 v=0
376296 On ch=1 n=d4 v=84
376312 On ch=1 n=c#4 v=0
376334 On ch=1 n=d4 v=0
376414 On ch=1 n=a#6 v=96
376432 On ch=1 n=d5 v=89
376864 On ch=1 n=a#6 v=0
376900 On ch=1 n=c5 v=84
376908 On ch=1 n=a6 v=92
376984 On ch=1 n=d5 v=0
377096 On ch=1 n=a6 v=0
377410 On ch=1 n=a#4 v=57
377448 On ch=1 n=g6 v=68
377480 On ch=1 n=c5 v=0
377538 Par ch=1 c=64 v=63
377556 Par ch=1 c=64 v=0
377710 Par ch=1 c=64 v=63
377730 Par ch=1 c=64 v=127
377750 On ch=1 n=g6 v=0
377820 On ch=1 n=g5 v=58
377974 On ch=1 n=g5 v=0
378062 On ch=1 n=a5 v=65
378188 On ch=1 n=a5 v=0
378242 On ch=1 n=a#5 v=81
378342 On ch=1 n=a#5 v=0
378350 Par ch=1 c=64 v=63
378384 Par ch=1 c=64 v=0
378434 On ch=1 n=c6 v=80
378552 On ch=1 n=c6 v=0
378592 On ch=1 n=d6 v=86
378594 Par ch=1 c=64 v=63
378626 Par ch=1 c=64 v=127
378700 On ch=1 n=d6 v=0
378702 On ch=1 n=a#4 v=0
378772 On ch=1 n=e6 v=76
378870 On ch=1 n=e6 v=0
378916 On ch=1 n=f#6 v=99
379034 On ch=1 n=f#6 v=0
379066 On ch=1 n=d5 v=79
379076 On ch=1 n=a#4 v=72
379078 On ch=1 n=g6 v=87
379142 Par ch=1 c=64 v=63
379196 Par ch=1 c=64 v=0
379240 On ch=1 n=a6 v=98
379270 On ch=1 n=g6 v=0
379384 Par ch=1 c=64 v=63
379396 On ch=1 n=a#6 v=107
379428 Par ch=1 c=64 v=127
379438 On ch=1 n=a6 v=0
379552 On ch=1 n=a#6 v=0
379558 On ch=1 n=c7 v=100
379688 On ch=1 n=c7 v=0
379722 On ch=1 n=d7 v=113
379804 Par ch=1 c=64 v=63
379836 Par ch=1 c=64 v=0
379868 On ch=1 n=e7 v=107
379912 On ch=1 n=d7 v=0
380002 Par ch=1 c=64 v=63
380032 On ch=1 n=f7 v=104
380096 On ch=1 n=e7 v=0
380132 Par ch=1 c=64 v=127
380170 On ch=1 n=e7 v=107
380176 On ch=1 n=a#4 v=0
380210 On ch=1 n=d5 v=0
380260 On ch=1 n=f7 v=0
380330 On ch=1 n=d7 v=103
380338 On ch=1 n=a#4 v=95
380346 On ch=1 n=d5 v=93
380390 On ch=1 n=e7 v=0
380392 Par ch=1 c=64 v=63
380424 Par ch=1 c=64 v=0
380494 On ch=1 n=c7 v=91
380504 On ch=1 n=d7 v=0
380634 Par ch=1 c=64 v=63
380666 Par ch=1 c=64 v=127
380670 On ch=1 n=a#6 v=109
380710 On ch=1 n=c7 v=0
380820 On ch=1 n=a6 v=99
380870 On ch=1 n=a#6 v=0
380978 On ch=1 n=g6 v=98
381046 On ch=1 n=a6 v=0
381062 Par ch=1 c=64 v=63
381084 Par ch=1 c=64 v=127
381148 On ch=1 n=f6 v=97
381180 On ch=1 n=g6 v=0
381218 On ch=1 n=d5 v=0
381232 On ch=1 n=a#4 v=0
381348 On ch=1 n=e6 v=103
381380 On ch=1 n=f6 v=0
381514 On ch=1 n=d6 v=101
381574 On ch=1 n=e6 v=0
381602 On ch=1 n=d6 v=0
381778 On ch=1 n=c6 v=91
381788 Par ch=1 c=64 v=63
381798 Par ch=1 c=64 v=0
381808 On ch=1 n=c7 v=102
381816 On ch=1 n=a6 v=90
381816 On ch=1 n=f6 v=89
381880 Par ch=1 c=64 v=63
381896 Par ch=1 c=64 v=127
381942 On ch=1 n=c6 v=0
382198 On ch=1 n=c3 v=89
382482 On ch=1 n=d3 v=98
382574 On ch=1 n=c3 v=0
382674 On ch=1 n=e3 v=94
382750 On ch=1 n=d3 v=0
382858 On ch=1 n=f3 v=99
382926 On ch=1 n=e3 v=0
383028 On ch=1 n=g3 v=92
383068 On ch=1 n=f3 v=0
383210 On ch=1 n=a3 v=96
383260 On ch=1 n=g3 v=0
383300 Par ch=1 c=64 v=63
383318 Par ch=1 c=64 v=0
383374 On ch=1 n=a#3 v=99
383414 Par ch=1 c=64 v=63
383432 On ch=1 n=a3 v=0
383442 Par ch=1 c=64 v=127
383572 On ch=1 n=c4 v=93
383580 On ch=1 n=a#3 v=0
383696 On ch=1 n=c4 v=0
383802 On ch=1 n=c4 v=78
383952 Par ch=1 c=64 v=63
383986 On ch=1 n=d4 v=87
384004 Par ch=1 c=64 v=0
384064 On ch=1 n=c4 v=0
384158 On ch=1 n=e4 v=89
384242 On ch=1 n=d4 v=0
384322 On ch=1 n=f4 v=90
384384 On ch=1 n=e4 v=0
384470 On ch=1 n=g4 v=79
384508 On ch=1 n=f4 v=0
384644 On ch=1 n=a4 v=72
384690 On ch=1 n=g4 v=0
384822 On ch=1 n=a#4 v=79
384868 On ch=1 n=a4 v=0
385034 On ch=1 n=c5 v=77
385050 On ch=1 n=a#4 v=0
385104 Par ch=1 c=64 v=63
385142 Par ch=1 c=64 v=127
385234 On ch=1 n=d5 v=69
385266 On ch=1 n=c5 v=0
385424 On ch=1 n=e5 v=66
385492 On ch=1 n=d5 v=0
385582 Par ch=1 c=64 v=63
385620 Par ch=1 c=64 v=0
385632 On ch=1 n=f5 v=67
385678 On ch=1 n=e5 v=0
385728 Par ch=1 c=64 v=63
385868 On ch=1 n=g5 v=69
385882 On ch=1 n=f5 v=0
385962 Par ch=1 c=64 v=0
386038 Par ch=1 c=64 v=63
386118 On ch=1 n=a5 v=43
386148 On ch=1 n=g5 v=0
386162 Par ch=1 c=64 v=127
386412 On ch=1 n=a#5 v=52
386432 Par ch=1 c=64 v=63
386474 On ch=1 n=a5 v=0
386506 Par ch=1 c=64 v=127
386594 On ch=1 n=f6 v=0
386610 On ch=1 n=c7 v=0
386682 On ch=1 n=a6 v=0
386744 On ch=1 n=c6 v=28
386788 On ch=1 n=a#5 v=0
387326 On ch=1 n=d7 v=76
387334 On ch=1 n=g#6 v=63
387336 On ch=1 n=f6 v=49
387342 On ch=1 n=b5 v=43
387418 On ch=1 n=c6 v=0
387516 Par ch=1 c=64 v=63
387540 Par ch=1 c=64 v=0
387656 Par ch=1 c=64 v=63
387692 Par ch=1 c=64 v=127
388400 On ch=1 n=f6 v=0
388460 On ch=1 n=g#6 v=0
388486 On ch=1 n=d7 v=0
388762 On ch=1 n=b5 v=0
388910 On ch=1 n=e7 v=57
389170 On ch=1 n=f7 v=65
389180 On ch=1 n=e7 v=0
389334 On ch=1 n=f7 v=0
389444 On ch=1 n=c5 v=30
389546 On ch=1 n=g6 v=63
389562 On ch=1 n=f6 v=43
389580 On ch=1 n=a#5 v=54
389632 Par ch=1 c=64 v=63
389688 Par ch=1 c=64 v=127
389888 On ch=1 n=f6 v=0
389892 On ch=1 n=a6 v=63
389908 On ch=1 n=g6 v=0
390066 On ch=1 n=a6 v=0
390096 On ch=1 n=g6 v=44
390220 On ch=1 n=g6 v=0
390228 On ch=1 n=a6 v=48
390342 On ch=1 n=a6 v=0
390350 On ch=1 n=g6 v=41
390466 On ch=1 n=g6 v=0
390476 On ch=1 n=a6 v=46
390564 On ch=1 n=a6 v=0
390578 On ch=1 n=g6 v=47
390682 On ch=1 n=g6 v=0
390692 On ch=1 n=a6 v=43
390760 On ch=1 n=a6 v=0
390776 On ch=1 n=g6 v=51
390868 On ch=1 n=g6 v=0
390870 On ch=1 n=a6 v=55
390930 On ch=1 n=a6 v=0
390954 On ch=1 n=g6 v=55
391036 On ch=1 n=a6 v=65
391038 On ch=1 n=g6 v=0
391088 On ch=1 n=a6 v=0
391118 On ch=1 n=g6 v=60
391132 On ch=1 n=c5 v=0
391156 On ch=1 n=a#5 v=0
391172 On ch=1 n=a6 v=63
391180 On ch=1 n=g6 v=0
391242 On ch=1 n=a6 v=0
391266 On ch=1 n=g6 v=64
391340 On ch=1 n=g6 v=0
391346 On ch=1 n=a6 v=41
391414 On ch=1 n=a6 v=0
391422 On ch=1 n=g6 v=53
391492 On ch=1 n=a6 v=71
391508 On ch=1 n=g6 v=0
391586 On ch=1 n=c5 v=60
391598 On ch=1 n=a6 v=0
391618 On ch=1 n=g6 v=38
391670 On ch=1 n=g6 v=0
391674 On ch=1 n=a6 v=48
391702 Par ch=1 c=64 v=63
391744 Par ch=1 c=64 v=127
391802 On ch=1 n=a#5 v=64
391806 On ch=1 n=g6 v=70
391822 On ch=1 n=e6 v=58
391842 On ch=1 n=a6 v=0
391902 On ch=1 n=c5 v=0
391996 On ch=1 n=a#5 v=0
392042 On ch=1 n=e6 v=0
392084 On ch=1 n=c6 v=64
392100 On ch=1 n=a6 v=66
392128 On ch=1 n=g6 v=0
392228 On ch=1 n=c6 v=0
392238 On ch=1 n=a#5 v=68
392244 On ch=1 n=a6 v=0
392262 On ch=1 n=g6 v=60
392334 On ch=1 n=a#5 v=0
392352 On ch=1 n=c6 v=59
392358 On ch=1 n=g6 v=0
392370 On ch=1 n=a6 v=56
392444 On ch=1 n=a6 v=0
392450 On ch=1 n=a#5 v=64
392468 On ch=1 n=g6 v=68
392470 On ch=1 n=c6 v=0
392502 On ch=1 n=a#5 v=0
392524 On ch=1 n=c6 v=40
392548 On ch=1 n=g6 v=0
392558 On ch=1 n=a6 v=61
392614 On ch=1 n=a6 v=0
392616 On ch=1 n=a#5 v=75
392634 On ch=1 n=c6 v=0
392634 On ch=1 n=g6 v=63
392672 On ch=1 n=a#5 v=0
392702 On ch=1 n=c6 v=60
392714 On ch=1 n=g6 v=0
392716 On ch=1 n=a6 v=74
392766 On ch=1 n=a6 v=0
392778 On ch=1 n=a#5 v=76
392788 On ch=1 n=g6 v=67
392790 On ch=1 n=c6 v=0
392840 On ch=1 n=a#5 v=0
392856 On ch=1 n=a6 v=77
392864 On ch=1 n=c6 v=67
392868 On ch=1 n=g6 v=0
392914 On ch=1 n=a6 v=0
392928 On ch=1 n=a#5 v=60
392932 On ch=1 n=g6 v=75
392946 On ch=1 n=c6 v=0
392992 On ch=1 n=a#5 v=0
393012 On ch=1 n=c6 v=67
393020 On ch=1 n=g6 v=0
393024 On ch=1 n=a6 v=47
393066 On ch=1 n=g6 v=54
393068 On ch=1 n=a#5 v=58
393106 On ch=1 n=c6 v=0
393114 On ch=1 n=g6 v=0
393148 On ch=1 n=g6 v=57
393150 On ch=1 n=a6 v=0
393210 On ch=1 n=a6 v=59
393254 On ch=1 n=a6 v=0
393256 On ch=1 n=a#5 v=0
393260 On ch=1 n=a5 v=71
393320 On ch=1 n=f6 v=71
393344 On ch=1 n=g6 v=0
393544 On ch=1 n=g6 v=84
393560 On ch=1 n=a#5 v=81
393590 On ch=1 n=f6 v=0
393614 On ch=1 n=a5 v=0
393908 On ch=1 n=a5 v=60
393930 On ch=1 n=f6 v=76
393938 On ch=1 n=f5 v=65
393992 On ch=1 n=a#5 v=0
393994 On ch=1 n=g6 v=0
394024 Par ch=1 c=64 v=63
394186 Par ch=1 c=64 v=127
394362 On ch=1 n=f6 v=0
394486 On ch=1 n=g6 v=68
394534 On ch=1 n=f6 v=65
394556 On ch=1 n=g6 v=0
394632 On ch=1 n=f6 v=0
394636 On ch=1 n=e6 v=60
394720 On ch=1 n=f6 v=72
394730 On ch=1 n=e6 v=0
394840 On ch=1 n=a5 v=0
394850 On ch=1 n=d#6 v=73
394854 On ch=1 n=g6 v=85
394862 On ch=1 n=f6 v=0
394998 Par ch=1 c=64 v=63
395158 Par ch=1 c=64 v=127
395232 On ch=1 n=a6 v=93
395288 On ch=1 n=g6 v=0
395356 On ch=1 n=a6 v=0
395626 On ch=1 n=d#6 v=0
395712 On ch=1 n=a#6 v=76
395742 On ch=1 n=d6 v=71
395856 Par ch=1 c=64 v=63
395902 Par ch=1 c=64 v=0
396036 Par ch=1 c=64 v=63
396080 Par ch=1 c=64 v=127
396242 On ch=1 n=a#6 v=0
396258 On ch=1 n=c7 v=68
396466 On ch=1 n=d7 v=79
396484 On ch=1 n=c7 v=0
396674 On ch=1 n=c7 v=81
396724 On ch=1 n=d7 v=0
396832 On ch=1 n=a#6 v=93
396902 On ch=1 n=c7 v=0
397014 On ch=1 n=a6 v=94
397100 On ch=1 n=a#6 v=0
397126 On ch=1 n=f5 v=0
397176 On ch=1 n=g6 v=90
397230 On ch=1 n=a6 v=0
397398 On ch=1 n=f6 v=91
397408 On ch=1 n=a#5 v=53
397426 On ch=1 n=g5 v=42
397446 On ch=1 n=d6 v=0
397448 On ch=1 n=g6 v=0
397450 On ch=1 n=f5 v=41
397528 Par ch=1 c=64 v=63
397566 Par ch=1 c=64 v=0
397810 On ch=1 n=e6 v=70
397842 On ch=1 n=f6 v=0
397890 Par ch=1 c=64 v=63
397936 Par ch=1 c=64 v=127
398282 On ch=1 n=a#6 v=65
398298 On ch=1 n=e6 v=0
398298 Par ch=1 c=64 v=63
398432 Par ch=1 c=64 v=127
398798 On ch=1 n=e6 v=48
398800 On ch=1 n=a#6 v=0
398922 On ch=1 n=f5 v=0
399260 On ch=1 n=e6 v=0
399366 On ch=1 n=f6 v=52
399398 On ch=1 n=g5 v=0
399406 On ch=1 n=f5 v=45
399436 On ch=1 n=a5 v=35
399446 Par ch=1 c=64 v=63
399502 Par ch=1 c=64 v=127
399504 On ch=1 n=a#5 v=0
399686 On ch=1 n=f5 v=0
399888 On ch=1 n=f5 v=63
399908 On ch=1 n=a5 v=0
399920 On ch=1 n=f6 v=0
400212 On ch=1 n=e5 v=73
400230 On ch=1 n=f5 v=0
400422 On ch=1 n=e5 v=0
400450 On ch=1 n=f5 v=78
400612 On ch=1 n=f5 v=0
400652 On ch=1 n=f4 v=68
400764 On ch=1 n=f#5 v=67
400836 On ch=1 n=d#5 v=58
401020 Par ch=1 c=64 v=63
401034 On ch=1 n=g5 v=66
401052 On ch=1 n=f#5 v=0
401134 Par ch=1 c=64 v=127
401242 On ch=1 n=g#5 v=82
401266 On ch=1 n=g5 v=0
401420 On ch=1 n=a5 v=87
401434 On ch=1 n=g#5 v=0
401572 On ch=1 n=d5 v=68
401586 On ch=1 n=d#5 v=0
401630 On ch=1 n=a#5 v=87
401686 On ch=1 n=a5 v=0
401712 Par ch=1 c=64 v=63
401832 Par ch=1 c=64 v=127
401840 On ch=1 n=a#5 v=0
401880 On ch=1 n=c6 v=70
401924 On ch=1 n=a#5 v=70
401948 On ch=1 n=c6 v=0
401988 On ch=1 n=a5 v=69
402002 On ch=1 n=a#5 v=0
402064 On ch=1 n=a#5 v=91
402114 On ch=1 n=a5 v=0
402122 Par ch=1 c=64 v=63
402138 On ch=1 n=c6 v=90
402198 On ch=1 n=a#5 v=0
402232 Par ch=1 c=64 v=0
402302 Par ch=1 c=64 v=63
402364 On ch=1 n=d6 v=86
402430 On ch=1 n=c6 v=0
402432 Par ch=1 c=64 v=127
402570 On ch=1 n=c6 v=90
402620 On ch=1 n=d6 v=0
402762 On ch=1 n=a#5 v=99
402858 On ch=1 n=c6 v=0
402964 On ch=1 n=a5 v=91
403096 On ch=1 n=a#5 v=0
403112 On ch=1 n=f4 v=0
403154 On ch=1 n=g5 v=89
403218 On ch=1 n=a5 v=0
403390 On ch=1 n=f5 v=90
403394 On ch=1 n=a#4 v=63
403404 On ch=1 n=g4 v=50
403424 On ch=1 n=f4 v=38
403458 On ch=1 n=g5 v=0
403460 On ch=1 n=d5 v=0
403552 Par ch=1 c=64 v=63
403642 On ch=1 n=e5 v=84
403678 Par ch=1 c=64 v=0
403760 On ch=1 n=f5 v=0
403900 On ch=1 n=g5 v=71
403942 On ch=1 n=e5 v=0
404148 On ch=1 n=f5 v=65
404226 On ch=1 n=g5 v=0
404430 On ch=1 n=e5 v=51
404496 On ch=1 n=f5 v=0
404752 On ch=1 n=d5 v=51
404796 On ch=1 n=e5 v=0
405042 Par ch=1 c=64 v=63
405050 Par ch=1 c=64 v=127
405132 On ch=1 n=d5 v=0
405152 On ch=1 n=c5 v=50
405276 On ch=1 n=a#4 v=0
405486 On ch=1 n=g4 v=0
405528 On ch=1 n=f4 v=0
405576 On ch=1 n=a#4 v=54
405630 On ch=1 n=c5 v=0
405826 On ch=1 n=a#4 v=0
406278 On ch=1 n=a#4 v=81
406296 On ch=1 n=c4 v=49
406296 On ch=1 n=g4 v=46
406304 On ch=1 n=e4 v=59
406308 On ch=1 n=f3 v=44
408048 On ch=1 n=f3 v=0
408512 On ch=1 n=c3 v=36
408600 Par ch=1 c=64 v=63
408730 Par ch=1 c=64 v=0
410362 Par ch=1 c=64 v=63
410412 Par ch=1 c=64 v=127
410676 On ch=1 n=e4 v=0
410692 On ch=1 n=a#4 v=0
410730 On ch=1 n=c3 v=0
410744 On ch=1 n=g4 v=0
412142 On ch=1 n=a4 v=15
412154 On ch=1 n=f2 v=14
412168 On ch=1 n=f4 v=12
412452 Par ch=1 c=64 v=63
412708 Par ch=1 c=64 v=0
415646 On ch=1 n=c4 v=0
415662 On ch=1 n=f4 v=0
415694 On ch=1 n=a4 v=0
415764 On ch=1 n=f2 v=0
416140 Par ch=1 c=67 v=127
417472 Par ch=1 c=67 v=0
417472 Meta TrkEnd
TrkEnd
MTrk
0 SeqSpec 43 00 01 00
0 Meta TrkName "                                    "
0 TimeSig 4/4 24 8
0 Meta TrkEnd
TrkEnd
MTrk
0 SeqSpec 43 00 01 00
0 Meta TrkName "                                    "
0 TimeSig 4/4 24 8
0 Meta TrkEnd
TrkEnd
MTrk
0 SeqSpec 43 00 01 00
0 Meta TrkName "                                    "
0 TimeSig 4/4 24 8
0 Meta TrkEnd
TrkEnd
MTrk
0 SeqSpec 43 00 01 00
0 Meta TrkName "                                    "
0 TimeSig 4/4 24 8
0 Meta TrkEnd
TrkEnd
MTrk
0 SeqSpec 43 00 01 00
0 Meta TrkName "                                    "
0 TimeSig 4/4 24 8
0 Meta TrkEnd
TrkEnd
MTrk
0 SeqSpec 43 00 01 00
0 Meta TrkName "                                    "
0 TimeSig 4/4 24 8
0 Meta TrkEnd
TrkEnd
MTrk
0 SeqSpec 43 00 01 00
0 Meta TrkName "                                    "
0 TimeSig 4/4 24 8
0 Meta TrkEnd
TrkEnd
MTrk
0 SeqSpec 43 00 01 00
0 Meta TrkName "                                    "
0 TimeSig 4/4 24 8
0 Meta TrkEnd
TrkEnd
MTrk
0 SeqSpec 43 00 01 00
0 Meta TrkName "                                    "
0 TimeSig 4/4 24 8
0 Meta TrkEnd
TrkEnd
MTrk
0 SeqSpec 43 00 01 00
0 Meta TrkName "                                    "
0 TimeSig 4/4 24 8
0 Meta TrkEnd
TrkEnd
MTrk
0 SeqSpec 43 00 01 00
0 Meta TrkName "                                    "
0 TimeSig 4/4 24 8
0 Meta TrkEnd
TrkEnd
MTrk
0 SeqSpec 43 00 01 00
0 Meta TrkName "                                    "
0 TimeSig 4/4 24 8
0 Meta TrkEnd
TrkEnd
MTrk
0 SeqSpec 43 00 01 00
0 Meta TrkName "                                    "
0 TimeSig 4/4 24 8
0 Meta TrkEnd
TrkEnd
MTrk
0 SeqSpec 43 00 01 00
0 Meta TrkName "                                    "
0 TimeSig 4/4 24 8
0 Meta TrkEnd
TrkEnd
MTrk
0 SeqSpec 43 00 01 00
0 Meta TrkName "                                    "
0 TimeSig 4/4 24 8
0 Meta TrkEnd
TrkEnd
MTrk
0 SeqSpec 43 00 01 00
0 Meta TrkName "                                    "
0 TimeSig 4/4 24 8
0 Meta TrkEnd
TrkEnd
