MFile 1 18 480
MTrk
0 Tempo 491803
0 TimeSig 4/4 24 8
0 Meta TrkEnd
TrkEnd
MTrk
0 SeqSpec 43 00 01 00
0 Meta TrkName "PIANO                               "
0 TimeSig 4/4 24 8
0 SysEx f0 41 10 42 12 40 00 7f 00 41 f7
0 SysEx f0 41 10 42 12 40 00 04 64 58 f7
340 SysEx f0 41 10 42 12 40 01 30 03 0c f7
340 SysEx f0 41 10 42 12 40 01 33 50 3c f7
340 SysEx f0 41 10 42 12 40 01 34 3c 4f f7
744 Par ch=1 c=0 v=0
748 Par ch=1 c=32 v=1
752 PrCh ch=1 p=0
756 Par ch=1 c=7 v=100
948 Par ch=1 c=11 v=100
1140 Par ch=1 c=10 v=64
1332 Par ch=1 c=1 v=0
1332 Par ch=1 c=91 v=80
1350 Par ch=1 c=99 v=1
1354 Par ch=1 c=98 v=32
1358 Par ch=1 c=6 v=62
1362 Par ch=1 c=99 v=1
1366 Par ch=1 c=98 v=33
1370 Par ch=1 c=6 v=54
1374 Par ch=1 c=99 v=1
1378 Par ch=1 c=98 v=99
1382 Par ch=1 c=6 v=62
1386 Par ch=1 c=99 v=1
1390 Par ch=1 c=98 v=100
1394 Par ch=1 c=6 v=60
1398 Par ch=1 c=99 v=1
1402 Par ch=1 c=98 v=102
1406 Par ch=1 c=6 v=70
2600 Par ch=1 c=64 v=63
2610 Par ch=1 c=64 v=127
2654 On ch=1 n=d#6 v=101
2678 On ch=1 n=e5 v=86
2684 On ch=1 n=a4 v=76
2684 On ch=1 n=c5 v=85
2726 On ch=1 n=e6 v=100
2744 On ch=1 n=d#6 v=0
2802 On ch=1 n=e5 v=0
2808 On ch=1 n=c5 v=0
2824 On ch=1 n=a4 v=0
2960 On ch=1 n=a4 v=59
2960 On ch=1 n=e5 v=63
2966 On ch=1 n=c5 v=70
3068 On ch=1 n=c5 v=0
3072 On ch=1 n=e5 v=0
3088 On ch=1 n=a4 v=0
3128 On ch=1 n=e6 v=0
3190 On ch=1 n=e5 v=68
3194 On ch=1 n=e6 v=108
3198 On ch=1 n=a4 v=57
3200 On ch=1 n=c5 v=69
3272 On ch=1 n=c5 v=0
3276 On ch=1 n=e5 v=0
3292 On ch=1 n=a4 v=0
3318 On ch=1 n=e6 v=0
3398 On ch=1 n=e5 v=68
3400 On ch=1 n=a4 v=59
3408 On ch=1 n=c5 v=70
3488 On ch=1 n=c5 v=0
3492 On ch=1 n=e5 v=0
3516 On ch=1 n=a4 v=0
3530 On ch=1 n=e6 v=100
3588 On ch=1 n=e6 v=0
3638 On ch=1 n=e6 v=109
3650 On ch=1 n=e5 v=70
3652 On ch=1 n=a4 v=62
3660 On ch=1 n=c5 v=68
3704 On ch=1 n=c5 v=0
3710 On ch=1 n=e6 v=0
3716 On ch=1 n=e5 v=0
3724 On ch=1 n=a4 v=0
3848 On ch=1 n=e5 v=75
3854 On ch=1 n=a4 v=59
3858 On ch=1 n=c5 v=71
3922 On ch=1 n=c5 v=0
3946 On ch=1 n=e5 v=0
3952 On ch=1 n=a4 v=0
4076 On ch=1 n=c6 v=109
4086 On ch=1 n=a4 v=61
4086 On ch=1 n=e5 v=67
4094 On ch=1 n=c5 v=68
4148 On ch=1 n=c5 v=0
4148 On ch=1 n=c6 v=0
4162 On ch=1 n=e5 v=0
4178 On ch=1 n=a4 v=0
4284 On ch=1 n=a4 v=68
4298 On ch=1 n=c5 v=71
4302 On ch=1 n=e5 v=63
4398 On ch=1 n=c5 v=0
4400 On ch=1 n=a4 v=0
4414 On ch=1 n=e5 v=0
4422 On ch=1 n=a5 v=79
4470 On ch=1 n=a5 v=0
4506 Par ch=1 c=64 v=63
4512 On ch=1 n=a5 v=93
4518 Par ch=1 c=64 v=0
4542 On ch=1 n=e5 v=75
4544 On ch=1 n=d5 v=77
4554 On ch=1 n=a4 v=55
4554 On ch=1 n=b4 v=59
4644 On ch=1 n=e5 v=0
4648 On ch=1 n=b4 v=0
4648 Par ch=1 c=64 v=63
4650 On ch=1 n=d5 v=0
4662 Par ch=1 c=64 v=127
4676 On ch=1 n=a4 v=0
4748 On ch=1 n=a4 v=55
4756 On ch=1 n=d5 v=65
4758 On ch=1 n=e5 v=58
4764 On ch=1 n=g#5 v=100
4768 On ch=1 n=b4 v=60
4794 On ch=1 n=a5 v=0
4848 On ch=1 n=d5 v=0
4852 On ch=1 n=e5 v=0
4858 On ch=1 n=b4 v=0
4866 On ch=1 n=g#5 v=0
4878 On ch=1 n=a4 v=0
4966 On ch=1 n=g#5 v=95
4972 On ch=1 n=e5 v=61
4972 On ch=1 n=d5 v=68
4974 On ch=1 n=b4 v=55
4976 On ch=1 n=a4 v=36
4980 Par ch=1 c=64 v=63
4986 Par ch=1 c=64 v=0
5052 On ch=1 n=d5 v=0
5052 On ch=1 n=e5 v=0
5058 On ch=1 n=b4 v=0
5078 On ch=1 n=a4 v=0
5178 On ch=1 n=e5 v=66
5180 On ch=1 n=d5 v=71
5186 On ch=1 n=a4 v=34
5188 On ch=1 n=b4 v=57
5252 On ch=1 n=b4 v=0
5256 On ch=1 n=d5 v=0
5262 On ch=1 n=e5 v=0
5266 On ch=1 n=a4 v=0
5394 On ch=1 n=e5 v=66
5394 On ch=1 n=a4 v=54
5400 On ch=1 n=d5 v=69
5410 On ch=1 n=b4 v=51
5416 Par ch=1 c=64 v=127
5460 On ch=1 n=b4 v=0
5460 On ch=1 n=d5 v=0
5470 On ch=1 n=e5 v=0
5484 On ch=1 n=a4 v=0
5590 On ch=1 n=g#5 v=0
5602 On ch=1 n=a4 v=51
5604 On ch=1 n=e5 v=64
5612 On ch=1 n=d5 v=68
5614 On ch=1 n=b4 v=60
5684 On ch=1 n=d5 v=0
5690 On ch=1 n=e5 v=0
5696 On ch=1 n=b4 v=0
5706 On ch=1 n=a4 v=0
5720 Par ch=1 c=64 v=63
5730 Par ch=1 c=64 v=0
5830 Par ch=1 c=64 v=63
5836 On ch=1 n=d6 v=104
5842 On ch=1 n=e5 v=70
5844 On ch=1 n=d5 v=72
5846 On ch=1 n=a4 v=53
5846 On ch=1 n=b4 v=65
5850 Par ch=1 c=64 v=127
5912 On ch=1 n=d5 v=0
5912 On ch=1 n=e5 v=0
5914 On ch=1 n=d6 v=0
5926 On ch=1 n=b4 v=0
5932 On ch=1 n=a4 v=0
6054 On ch=1 n=b4 v=68
6054 On ch=1 n=e5 v=71
6060 On ch=1 n=a4 v=50
6060 On ch=1 n=d5 v=71
6140 On ch=1 n=e5 v=0
6144 On ch=1 n=d5 v=0
6150 On ch=1 n=b4 v=0
6158 On ch=1 n=a4 v=0
6160 On ch=1 n=b5 v=100
6164 Par ch=1 c=64 v=63
6172 Par ch=1 c=64 v=0
6236 On ch=1 n=b5 v=0
6256 On ch=1 n=e6 v=103
6280 On ch=1 n=a4 v=74
6280 On ch=1 n=e5 v=83
6284 On ch=1 n=c5 v=81
6340 Par ch=1 c=64 v=63
6346 Par ch=1 c=64 v=127
6372 On ch=1 n=c5 v=0
6372 On ch=1 n=e5 v=0
6390 On ch=1 n=a4 v=0
6512 On ch=1 n=a4 v=43
6514 On ch=1 n=c5 v=66
6514 On ch=1 n=e5 v=60
6594 On ch=1 n=c5 v=0
6594 On ch=1 n=e6 v=0
6602 On ch=1 n=e5 v=0
6618 On ch=1 n=a4 v=0
6718 On ch=1 n=e6 v=106
6728 On ch=1 n=c5 v=76
6734 On ch=1 n=a4 v=43
6736 On ch=1 n=e5 v=64
6796 On ch=1 n=e6 v=0
6808 On ch=1 n=c5 v=0
6810 On ch=1 n=e5 v=0
6818 On ch=1 n=a4 v=0
6956 On ch=1 n=c5 v=93
6956 On ch=1 n=a4 v=78
6964 On ch=1 n=e5 v=82
7036 On ch=1 n=e6 v=108
7044 On ch=1 n=c5 v=0
7046 On ch=1 n=e5 v=0
7056 On ch=1 n=a4 v=0
7084 On ch=1 n=e6 v=0
7138 On ch=1 n=e6 v=104
7172 On ch=1 n=c5 v=88
7176 On ch=1 n=e5 v=82
7178 On ch=1 n=a4 v=60
7208 On ch=1 n=e6 v=0
7242 On ch=1 n=c5 v=0
7246 On ch=1 n=e5 v=0
7252 On ch=1 n=a4 v=0
7380 On ch=1 n=a4 v=60
7380 On ch=1 n=c5 v=84
7384 On ch=1 n=e5 v=71
7392 On ch=1 n=f6 v=99
7434 Par ch=1 c=64 v=63
7442 On ch=1 n=e5 v=0
7446 Par ch=1 c=64 v=0
7450 On ch=1 n=c5 v=0
7460 On ch=1 n=a4 v=0
7476 On ch=1 n=e6 v=102
7492 On ch=1 n=f6 v=0
7574 On ch=1 n=a4 v=51
7576 On ch=1 n=c5 v=76
7578 On ch=1 n=e6 v=0
7578 On ch=1 n=d6 v=92
7580 On ch=1 n=e5 v=65
7640 On ch=1 n=e5 v=0
7646 On ch=1 n=c5 v=0
7648 On ch=1 n=a4 v=0
7666 On ch=1 n=d6 v=0
7688 On ch=1 n=c6 v=88
7762 On ch=1 n=c5 v=63
7766 On ch=1 n=a4 v=44
7766 On ch=1 n=b5 v=88
7772 On ch=1 n=e5 v=61
7790 On ch=1 n=c6 v=0
7844 On ch=1 n=c5 v=0
7848 On ch=1 n=e5 v=0
7856 On ch=1 n=a5 v=84
7862 On ch=1 n=b5 v=0
7872 On ch=1 n=a4 v=0
7924 On ch=1 n=a5 v=0
7966 On ch=1 n=a5 v=101
7972 On ch=1 n=a4 v=59
7976 On ch=1 n=b4 v=76
7980 On ch=1 n=d5 v=82
7980 On ch=1 n=e5 v=73
7990 Par ch=1 c=64 v=63
7992 Par ch=1 c=64 v=127
8054 On ch=1 n=d5 v=0
8066 On ch=1 n=e5 v=0
8078 On ch=1 n=b4 v=0
8088 On ch=1 n=a4 v=0
8160 On ch=1 n=a5 v=0
8202 On ch=1 n=g#5 v=96
8216 On ch=1 n=d5 v=68
8220 On ch=1 n=b4 v=59
8220 On ch=1 n=a4 v=44
8222 On ch=1 n=e5 v=53
8262 Par ch=1 c=64 v=63
8276 Par ch=1 c=64 v=0
8280 On ch=1 n=g#5 v=0
8288 On ch=1 n=d5 v=0
8290 On ch=1 n=e5 v=0
8300 On ch=1 n=b4 v=0
8308 On ch=1 n=a4 v=0
8416 On ch=1 n=g#5 v=89
8440 On ch=1 n=d5 v=65
8442 On ch=1 n=e5 v=60
8444 On ch=1 n=a4 v=42
8450 On ch=1 n=b4 v=64
8518 On ch=1 n=d5 v=0
8520 On ch=1 n=e5 v=0
8524 On ch=1 n=b4 v=0
8540 On ch=1 n=a4 v=0
8650 On ch=1 n=e5 v=54
8654 On ch=1 n=d5 v=61
8654 On ch=1 n=a4 v=36
8658 On ch=1 n=b4 v=60
8722 On ch=1 n=d5 v=0
8730 On ch=1 n=e5 v=0
8734 On ch=1 n=b4 v=0
8742 On ch=1 n=a4 v=0
8874 On ch=1 n=e5 v=71
8880 On ch=1 n=d5 v=68
8882 On ch=1 n=a4 v=48
8884 On ch=1 n=b4 v=57
8934 On ch=1 n=d5 v=0
8942 On ch=1 n=e5 v=0
8944 On ch=1 n=b4 v=0
8952 On ch=1 n=a4 v=0
9074 On ch=1 n=e5 v=57
9076 On ch=1 n=d5 v=65
9076 On ch=1 n=a4 v=35
9082 On ch=1 n=b4 v=53
9104 On ch=1 n=g#5 v=0
9148 On ch=1 n=b4 v=0
9148 On ch=1 n=d5 v=0
9154 On ch=1 n=e5 v=0
9158 On ch=1 n=a4 v=0
9292 On ch=1 n=d6 v=103
9302 On ch=1 n=e5 v=62
9308 Par ch=1 c=64 v=63
9308 On ch=1 n=d5 v=68
9310 Par ch=1 c=64 v=127
9312 On ch=1 n=b4 v=51
9314 On ch=1 n=a4 v=40
9358 On ch=1 n=d6 v=0
9368 On ch=1 n=d5 v=0
9372 On ch=1 n=e5 v=0
9384 On ch=1 n=b4 v=0
9388 On ch=1 n=a4 v=0
9508 On ch=1 n=e5 v=63
9514 On ch=1 n=b4 v=51
9516 On ch=1 n=d5 v=64
9526 On ch=1 n=a4 v=36
9610 On ch=1 n=e5 v=0
9614 On ch=1 n=a4 v=0
9616 On ch=1 n=d5 v=0
9620 On ch=1 n=b4 v=0
9620 On ch=1 n=b5 v=94
9638 Par ch=1 c=64 v=63
9658 Par ch=1 c=64 v=0
9684 On ch=1 n=b5 v=0
9724 Par ch=1 c=64 v=63
9732 On ch=1 n=c5 v=76
9734 On ch=1 n=e6 v=94
9736 On ch=1 n=c6 v=96
9738 On ch=1 n=a4 v=53
9756 Par ch=1 c=64 v=127
9778 On ch=1 n=c5 v=0
9834 On ch=1 n=a4 v=0
9950 On ch=1 n=c6 v=0
9966 On ch=1 n=a4 v=86
9972 On ch=1 n=e6 v=0
10060 On ch=1 n=a4 v=0
10088 On ch=1 n=c6 v=89
10096 On ch=1 n=a5 v=72
10132 On ch=1 n=c6 v=0
10138 On ch=1 n=a5 v=0
10158 Par ch=1 c=64 v=63
10170 Par ch=1 c=64 v=0
10178 On ch=1 n=e4 v=81
10192 On ch=1 n=c6 v=84
10198 On ch=1 n=e6 v=97
10254 On ch=1 n=e4 v=0
10384 On ch=1 n=c4 v=59
10496 Par ch=1 c=64 v=63
10504 Par ch=1 c=64 v=127
10542 On ch=1 n=c4 v=0
10634 On ch=1 n=c6 v=0
10636 On ch=1 n=a3 v=59
10684 On ch=1 n=e6 v=0
10736 On ch=1 n=a3 v=0
10848 On ch=1 n=c6 v=80
10854 On ch=1 n=a5 v=60
10910 On ch=1 n=a5 v=0
10926 On ch=1 n=c6 v=0
10998 Par ch=1 c=64 v=63
11016 Par ch=1 c=64 v=0
11060 On ch=1 n=d6 v=78
11078 On ch=1 n=b5 v=57
11128 On ch=1 n=b5 v=0
11146 On ch=1 n=d6 v=0
11252 On ch=1 n=c6 v=82
11256 On ch=1 n=e6 v=83
11312 On ch=1 n=c6 v=0
11364 On ch=1 n=e6 v=0
11538 On ch=1 n=e6 v=81
11546 On ch=1 n=c#6 v=79
11556 Par ch=1 c=64 v=63
11560 Par ch=1 c=64 v=127
11708 On ch=1 n=c#6 v=0
11992 On ch=1 n=e6 v=0
12016 On ch=1 n=f6 v=66
12016 On ch=1 n=d5 v=41
12018 On ch=1 n=d6 v=54
12018 On ch=1 n=a4 v=35
12018 On ch=1 n=c5 v=48
12040 On ch=1 n=f4 v=34
12162 Par ch=1 c=64 v=63
12232 Par ch=1 c=64 v=127
12320 On ch=1 n=c5 v=0
12360 On ch=1 n=f6 v=0
12366 On ch=1 n=d5 v=0
12374 On ch=1 n=d6 v=0
12414 On ch=1 n=a4 v=0
12472 On ch=1 n=f4 v=0
12484 On ch=1 n=d5 v=64
12488 On ch=1 n=b4 v=67
12494 On ch=1 n=g4 v=57
12582 Par ch=1 c=64 v=63
12594 Par ch=1 c=64 v=0
12690 On ch=1 n=b5 v=84
12702 On ch=1 n=g5 v=60
12756 On ch=1 n=g5 v=0
12778 On ch=1 n=b5 v=0
12902 On ch=1 n=c6 v=87
12912 On ch=1 n=a5 v=71
12936 On ch=1 n=d5 v=0
12958 On ch=1 n=a5 v=0
12964 On ch=1 n=b4 v=0
12978 On ch=1 n=g4 v=0
12986 On ch=1 n=c6 v=0
13102 On ch=1 n=d6 v=87
13106 On ch=1 n=b5 v=85
13154 On ch=1 n=b5 v=0
13204 On ch=1 n=d6 v=0
13384 On ch=1 n=d#6 v=83
13390 On ch=1 n=b5 v=65
13396 Par ch=1 c=64 v=63
13400 Par ch=1 c=64 v=127
13648 On ch=1 n=b5 v=0
13668 On ch=1 n=d#6 v=0
13860 On ch=1 n=c5 v=31
13860 On ch=1 n=c6 v=55
13870 On ch=1 n=e6 v=56
13870 On ch=1 n=b4 v=35
13876 On ch=1 n=g4 v=37
13886 On ch=1 n=e4 v=40
13970 Par ch=1 c=64 v=63
13978 Par ch=1 c=64 v=0
14080 Par ch=1 c=64 v=63
14098 Par ch=1 c=64 v=127
14188 On ch=1 n=b4 v=0
14228 On ch=1 n=c5 v=0
14250 On ch=1 n=e6 v=0
14258 On ch=1 n=g4 v=0
14258 On ch=1 n=c6 v=0
14348 On ch=1 n=e4 v=0
14348 On ch=1 n=a4 v=48
14354 On ch=1 n=c5 v=50
14366 On ch=1 n=f4 v=46
14500 Par ch=1 c=64 v=63
14510 Par ch=1 c=64 v=0
14556 On ch=1 n=a5 v=69
14562 On ch=1 n=f5 v=59
14618 On ch=1 n=f5 v=0
14634 On ch=1 n=a5 v=0
14684 On ch=1 n=c5 v=0
14698 On ch=1 n=a4 v=0
14714 On ch=1 n=f4 v=0
14770 On ch=1 n=g#5 v=84
14770 On ch=1 n=b5 v=83
14832 On ch=1 n=g#5 v=0
14860 On ch=1 n=b5 v=0
14994 On ch=1 n=a5 v=64
15002 On ch=1 n=c6 v=75
15044 On ch=1 n=a5 v=0
15088 Par ch=1 c=64 v=63
15094 Par ch=1 c=64 v=127
15108 On ch=1 n=c6 v=0
15236 On ch=1 n=c6 v=98
15314 On ch=1 n=c6 v=0
15612 On ch=1 n=b5 v=82
15702 On ch=1 n=b4 v=39
15706 On ch=1 n=f4 v=41
15708 On ch=1 n=d4 v=48
15712 On ch=1 n=f6 v=94
15720 On ch=1 n=b5 v=0
15808 Par ch=1 c=64 v=63
15824 Par ch=1 c=64 v=0
15912 Par ch=1 c=64 v=63
15944 Par ch=1 c=64 v=127
16044 On ch=1 n=b4 v=0
16086 On ch=1 n=d6 v=85
16122 On ch=1 n=f6 v=0
16134 On ch=1 n=f4 v=0
16176 On ch=1 n=a4 v=70
16180 On ch=1 n=d4 v=0
16182 On ch=1 n=e4 v=59
16186 On ch=1 n=c6 v=98
16198 On ch=1 n=c5 v=70
16230 On ch=1 n=d6 v=0
16254 Par ch=1 c=64 v=63
16274 Par ch=1 c=64 v=0
16314 Par ch=1 c=64 v=63
16358 Par ch=1 c=64 v=127
16526 On ch=1 n=e4 v=0
16536 On ch=1 n=c5 v=0
16538 On ch=1 n=e6 v=98
16562 On ch=1 n=c6 v=0
16650 On ch=1 n=d6 v=99
16672 On ch=1 n=g#4 v=89
16678 On ch=1 n=b4 v=85
16680 Par ch=1 c=64 v=63
16698 Par ch=1 c=64 v=0
16702 On ch=1 n=e4 v=63
16706 On ch=1 n=a4 v=0
16724 On ch=1 n=e6 v=0
16798 Par ch=1 c=64 v=63
16824 Par ch=1 c=64 v=127
17006 On ch=1 n=g#4 v=0
17018 On ch=1 n=b4 v=0
17032 On ch=1 n=d6 v=0
17070 On ch=1 n=b5 v=86
17106 On ch=1 n=e4 v=0
17168 On ch=1 n=b5 v=0
17242 On ch=1 n=d#6 v=105
17280 On ch=1 n=c5 v=75
17282 On ch=1 n=e5 v=76
17284 On ch=1 n=a4 v=59
17308 Par ch=1 c=64 v=63
17312 On ch=1 n=e6 v=104
17326 Par ch=1 c=64 v=0
17356 On ch=1 n=d#6 v=0
17390 Par ch=1 c=64 v=63
17426 Par ch=1 c=64 v=127
17488 On ch=1 n=c5 v=0
17496 On ch=1 n=e5 v=0
17500 On ch=1 n=a4 v=0
17590 On ch=1 n=e5 v=69
17594 On ch=1 n=c5 v=71
17596 On ch=1 n=a4 v=44
17710 On ch=1 n=e6 v=0
17714 On ch=1 n=e5 v=0
17716 On ch=1 n=c5 v=0
17730 On ch=1 n=a4 v=0
17790 On ch=1 n=e6 v=112
17806 On ch=1 n=e5 v=68
17814 On ch=1 n=a4 v=35
17818 On ch=1 n=c5 v=60
17868 On ch=1 n=c5 v=0
17888 On ch=1 n=e5 v=0
17888 On ch=1 n=e6 v=0
17890 On ch=1 n=a4 v=0
17988 On ch=1 n=e5 v=83
17998 On ch=1 n=a4 v=64
18000 On ch=1 n=c5 v=81
18078 On ch=1 n=c5 v=0
18082 On ch=1 n=e5 v=0
18094 On ch=1 n=e6 v=103
18100 On ch=1 n=a4 v=0
18160 On ch=1 n=e6 v=0
18188 On ch=1 n=e6 v=104
18214 On ch=1 n=e5 v=72
18220 On ch=1 n=a4 v=50
18222 On ch=1 n=c5 v=69
18254 On ch=1 n=e6 v=0
18284 On ch=1 n=c5 v=0
18294 On ch=1 n=e5 v=0
18302 On ch=1 n=a4 v=0
18428 On ch=1 n=e5 v=72
18440 On ch=1 n=c5 v=66
18442 On ch=1 n=a4 v=46
18452 On ch=1 n=f6 v=101
18502 On ch=1 n=c5 v=0
18512 On ch=1 n=e5 v=0
18518 On ch=1 n=a4 v=0
18544 On ch=1 n=e6 v=93
18558 On ch=1 n=f6 v=0
18644 On ch=1 n=d6 v=91
18644 On ch=1 n=e5 v=67
18648 On ch=1 n=e6 v=0
18656 On ch=1 n=c5 v=61
18660 On ch=1 n=a4 v=41
18712 On ch=1 n=c5 v=0
18714 On ch=1 n=e5 v=0
18730 On ch=1 n=a4 v=0
18742 On ch=1 n=c6 v=89
18744 On ch=1 n=d6 v=0
18814 On ch=1 n=a4 v=40
18818 On ch=1 n=e5 v=70
18822 On ch=1 n=b5 v=100
18828 On ch=1 n=c5 v=68
18856 On ch=1 n=c6 v=0
18890 On ch=1 n=a4 v=0
18906 On ch=1 n=c5 v=0
18920 On ch=1 n=e5 v=0
18920 On ch=1 n=a5 v=86
18924 On ch=1 n=b5 v=0
18996 On ch=1 n=a5 v=0
19040 On ch=1 n=a5 v=97
19062 Par ch=1 c=64 v=63
19062 On ch=1 n=d5 v=78
19064 On ch=1 n=f5 v=79
19072 On ch=1 n=b4 v=66
19076 Par ch=1 c=64 v=0
19082 On ch=1 n=a4 v=41
19162 On ch=1 n=d5 v=0
19170 On ch=1 n=f5 v=0
19176 On ch=1 n=b4 v=0
19190 On ch=1 n=a4 v=0
19280 On ch=1 n=g#5 v=100
19282 On ch=1 n=a4 v=48
19286 On ch=1 n=b4 v=68
19290 On ch=1 n=f5 v=61
19290 On ch=1 n=d5 v=70
19304 On ch=1 n=a5 v=0
19358 On ch=1 n=g#5 v=0
19366 On ch=1 n=d5 v=0
19370 On ch=1 n=f5 v=0
19378 On ch=1 n=b4 v=0
19394 On ch=1 n=a4 v=0
19510 On ch=1 n=g#5 v=97
19512 On ch=1 n=f5 v=72
19520 On ch=1 n=a4 v=49
19520 On ch=1 n=b4 v=55
19522 On ch=1 n=d5 v=63
19592 On ch=1 n=d5 v=0
19592 Par ch=1 c=64 v=63
19594 Par ch=1 c=64 v=127
19604 On ch=1 n=b4 v=0
19606 On ch=1 n=f5 v=0
19620 On ch=1 n=a4 v=0
19730 On ch=1 n=f5 v=67
19738 On ch=1 n=a4 v=46
19740 On ch=1 n=b4 v=59
19742 On ch=1 n=d5 v=65
19808 On ch=1 n=d5 v=0
19824 On ch=1 n=b4 v=0
19824 On ch=1 n=f5 v=0
19838 On ch=1 n=a4 v=0
19890 On ch=1 n=g#5 v=0
19956 On ch=1 n=f5 v=70
19964 On ch=1 n=a4 v=42
19966 On ch=1 n=b4 v=51
19968 On ch=1 n=d5 v=61
20022 On ch=1 n=d5 v=0
20026 On ch=1 n=b4 v=0
20028 On ch=1 n=f5 v=0
20036 On ch=1 n=a4 v=0
20166 On ch=1 n=f5 v=59
20180 On ch=1 n=d5 v=41
20182 On ch=1 n=b4 v=43
20182 On ch=1 n=a4 v=27
20250 On ch=1 n=b4 v=0
20250 On ch=1 n=d5 v=0
20250 On ch=1 n=f5 v=0
20258 On ch=1 n=a4 v=0
20274 On ch=1 n=g#5 v=95
20378 On ch=1 n=g#5 v=0
20380 Par ch=1 c=64 v=63
20382 On ch=1 n=d6 v=94
20392 Par ch=1 c=64 v=0
20394 On ch=1 n=f5 v=65
20394 On ch=1 n=b4 v=65
20396 On ch=1 n=d5 v=75
20400 On ch=1 n=a4 v=46
20472 On ch=1 n=f5 v=0
20478 On ch=1 n=a4 v=0
20478 On ch=1 n=d5 v=0
20486 On ch=1 n=b4 v=0
20618 On ch=1 n=f5 v=73
20624 On ch=1 n=a4 v=54
20628 On ch=1 n=b4 v=57
20630 On ch=1 n=d5 v=68
20708 On ch=1 n=d6 v=0
20712 On ch=1 n=f5 v=0
20720 On ch=1 n=b5 v=94
20732 On ch=1 n=b4 v=0
20738 On ch=1 n=a4 v=0
20748 On ch=1 n=d5 v=0
20796 On ch=1 n=b5 v=0
20828 On ch=1 n=e6 v=111
20840 On ch=1 n=c5 v=85
20848 On ch=1 n=a4 v=54
20862 On ch=1 n=e5 v=48
20876 Par ch=1 c=64 v=63
20878 Par ch=1 c=64 v=127
20930 On ch=1 n=e5 v=0
20930 On ch=1 n=c5 v=0
20952 On ch=1 n=a4 v=0
21064 On ch=1 n=c5 v=82
21068 On ch=1 n=a4 v=58
21072 On ch=1 n=e5 v=71
21104 On ch=1 n=e6 v=0
21144 On ch=1 n=c5 v=0
21148 On ch=1 n=e5 v=0
21172 On ch=1 n=a4 v=0
21270 On ch=1 n=c5 v=84
21272 On ch=1 n=e6 v=101
21282 On ch=1 n=a4 v=52
21284 On ch=1 n=e5 v=66
21340 On ch=1 n=e6 v=0
21342 On ch=1 n=e5 v=0
21350 On ch=1 n=c5 v=0
21358 On ch=1 n=a4 v=0
21500 On ch=1 n=c5 v=72
21506 On ch=1 n=e5 v=73
21512 On ch=1 n=a4 v=50
21578 On ch=1 n=e5 v=0
21580 On ch=1 n=c5 v=0
21590 On ch=1 n=e6 v=88
21592 On ch=1 n=a4 v=0
21690 On ch=1 n=c5 v=88
21700 On ch=1 n=a4 v=65
21704 On ch=1 n=e5 v=75
21712 On ch=1 n=d#6 v=114
21714 On ch=1 n=e6 v=0
21730 Par ch=1 c=64 v=63
21742 Par ch=1 c=64 v=0
21764 On ch=1 n=e5 v=0
21772 On ch=1 n=c5 v=0
21798 On ch=1 n=a4 v=0
21812 On ch=1 n=e6 v=97
21830 On ch=1 n=d#6 v=0
21892 On ch=1 n=c5 v=73
21892 On ch=1 n=a4 v=39
21910 On ch=1 n=e5 v=57
21934 On ch=1 n=f6 v=98
21968 On ch=1 n=e5 v=0
21972 On ch=1 n=c5 v=0
21972 On ch=1 n=e6 v=0
22000 On ch=1 n=a4 v=0
22014 On ch=1 n=e6 v=84
22098 On ch=1 n=a4 v=58
22100 On ch=1 n=c5 v=73
22108 On ch=1 n=e5 v=62
22112 On ch=1 n=f6 v=0
22120 On ch=1 n=d6 v=96
22160 On ch=1 n=c5 v=0
22164 On ch=1 n=e5 v=0
22184 On ch=1 n=a4 v=0
22184 On ch=1 n=e6 v=0
22218 On ch=1 n=c6 v=94
22258 On ch=1 n=d6 v=0
22284 On ch=1 n=a4 v=83
22290 On ch=1 n=c5 v=83
22298 On ch=1 n=e5 v=71
22314 On ch=1 n=b5 v=92
22330 On ch=1 n=c6 v=0
22364 On ch=1 n=c5 v=0
22390 On ch=1 n=e5 v=0
22402 On ch=1 n=b5 v=0
22404 On ch=1 n=a4 v=0
22414 On ch=1 n=a5 v=103
22518 On ch=1 n=c6 v=102
22550 On ch=1 n=a#4 v=71
22552 On ch=1 n=e5 v=68
22554 On ch=1 n=a5 v=0
22554 On ch=1 n=c5 v=70
22562 On ch=1 n=g4 v=49
22636 On ch=1 n=c5 v=0
22640 On ch=1 n=e5 v=0
22646 On ch=1 n=a#4 v=0
22648 On ch=1 n=g4 v=0
22650 Par ch=1 c=64 v=63
22654 Par ch=1 c=64 v=127
22760 On ch=1 n=a#5 v=94
22778 On ch=1 n=e5 v=57
22782 On ch=1 n=g4 v=39
22782 On ch=1 n=a#4 v=61
22786 On ch=1 n=c5 v=57
22794 On ch=1 n=c6 v=0
22842 On ch=1 n=c5 v=0
22844 On ch=1 n=a#5 v=0
22848 On ch=1 n=e5 v=0
22858 On ch=1 n=g4 v=0
22862 On ch=1 n=a#4 v=0
22894 Par ch=1 c=64 v=63
22904 Par ch=1 c=64 v=0
22980 On ch=1 n=a#5 v=98
22990 On ch=1 n=e5 v=68
22998 On ch=1 n=a#4 v=56
23002 On ch=1 n=g4 v=37
23006 On ch=1 n=c5 v=59
23062 On ch=1 n=c5 v=0
23072 Par ch=1 c=64 v=63
23074 On ch=1 n=e5 v=0
23080 On ch=1 n=g4 v=0
23088 Par ch=1 c=64 v=127
23090 On ch=1 n=a#4 v=0
23206 On ch=1 n=e5 v=55
23208 On ch=1 n=a#4 v=64
23208 On ch=1 n=g4 v=36
23214 On ch=1 n=a#5 v=0
23216 On ch=1 n=c5 v=57
23266 On ch=1 n=c5 v=0
23270 On ch=1 n=e5 v=0
23286 On ch=1 n=g4 v=0
23290 On ch=1 n=a#4 v=0
23428 On ch=1 n=a#4 v=76
23428 On ch=1 n=e5 v=84
23428 On ch=1 n=g4 v=70
23438 On ch=1 n=c5 v=72
23484 On ch=1 n=c5 v=0
23500 On ch=1 n=e5 v=0
23512 On ch=1 n=a#4 v=0
23516 On ch=1 n=g4 v=0
23646 On ch=1 n=g4 v=81
23646 On ch=1 n=e5 v=89
23650 On ch=1 n=a#4 v=76
23658 On ch=1 n=c5 v=78
23720 On ch=1 n=c5 v=0
23726 On ch=1 n=e5 v=0
23736 On ch=1 n=e6 v=86
23748 On ch=1 n=g4 v=0
23750 On ch=1 n=a#4 v=0
23770 Par ch=1 c=64 v=63
23790 Par ch=1 c=64 v=0
23828 On ch=1 n=g6 v=109
23862 Par ch=1 c=64 v=63
23864 On ch=1 n=g4 v=60
23866 On ch=1 n=a#4 v=69
23868 On ch=1 n=e5 v=67
23870 On ch=1 n=e6 v=0
23880 On ch=1 n=c5 v=69
23908 Par ch=1 c=64 v=127
23932 On ch=1 n=c5 v=0
23946 On ch=1 n=e5 v=0
23954 On ch=1 n=g4 v=0
23956 On ch=1 n=a#4 v=0
24062 On ch=1 n=g4 v=78
24068 On ch=1 n=a#4 v=78
24070 On ch=1 n=e5 v=83
24080 On ch=1 n=c5 v=81
24100 On ch=1 n=g6 v=0
24166 On ch=1 n=e5 v=0
24176 On ch=1 n=g4 v=0
24192 On ch=1 n=a#6 v=87
24198 On ch=1 n=c5 v=0
24224 On ch=1 n=a#6 v=0
24234 On ch=1 n=a#4 v=0
24262 Par ch=1 c=64 v=63
24270 On ch=1 n=a#6 v=104
24272 Par ch=1 c=64 v=0
24286 On ch=1 n=c5 v=82
24296 On ch=1 n=f4 v=81
24298 On ch=1 n=f5 v=77
24372 On ch=1 n=c5 v=0
24378 On ch=1 n=f5 v=0
24402 On ch=1 n=f4 v=0
24502 On ch=1 n=f5 v=71
24502 On ch=1 n=a6 v=96
24510 On ch=1 n=c5 v=69
24514 On ch=1 n=f4 v=44
24540 On ch=1 n=a#6 v=0
24554 On ch=1 n=f5 v=0
24570 On ch=1 n=c5 v=0
24592 On ch=1 n=a6 v=0
24604 On ch=1 n=f4 v=0
24696 On ch=1 n=f6 v=93
24722 On ch=1 n=d5 v=74
24732 On ch=1 n=a4 v=45
24740 On ch=1 n=f4 v=36
24772 On ch=1 n=d5 v=0
24774 On ch=1 n=f6 v=0
24794 On ch=1 n=a4 v=0
24798 On ch=1 n=f4 v=0
24928 On ch=1 n=a4 v=65
24932 On ch=1 n=d5 v=77
24934 On ch=1 n=d6 v=87
24938 On ch=1 n=f4 v=57
24996 On ch=1 n=d5 v=0
25006 On ch=1 n=a4 v=0
25012 On ch=1 n=d6 v=0
25014 On ch=1 n=f4 v=0
25138 On ch=1 n=d6 v=91
25146 On ch=1 n=g4 v=62
25150 On ch=1 n=a4 v=65
25160 On ch=1 n=e4 v=59
25180 Par ch=1 c=64 v=63
25192 Par ch=1 c=64 v=127
25234 On ch=1 n=a4 v=0
25234 On ch=1 n=g4 v=0
25260 On ch=1 n=e4 v=0
25288 On ch=1 n=d6 v=0
25356 On ch=1 n=g4 v=55
25360 On ch=1 n=c#6 v=99
25364 On ch=1 n=a4 v=68
25364 On ch=1 n=e4 v=45
25416 On ch=1 n=g4 v=0
25418 Par ch=1 c=64 v=63
25426 On ch=1 n=c#6 v=0
25434 Par ch=1 c=64 v=0
25464 On ch=1 n=e4 v=0
25472 On ch=1 n=a4 v=0
25564 On ch=1 n=a4 v=73
25570 On ch=1 n=e6 v=106
25586 On ch=1 n=e4 v=48
25592 On ch=1 n=c#5 v=65
25626 On ch=1 n=c#5 v=0
25634 On ch=1 n=e4 v=0
25644 On ch=1 n=e6 v=0
25654 On ch=1 n=a4 v=0
25764 On ch=1 n=c#5 v=87
25766 On ch=1 n=e4 v=71
25780 On ch=1 n=g6 v=102
25786 On ch=1 n=a4 v=54
25816 On ch=1 n=c#5 v=0
25844 On ch=1 n=a4 v=0
25848 On ch=1 n=e4 v=0
25870 On ch=1 n=g6 v=0
25998 On ch=1 n=d5 v=85
26002 On ch=1 n=a4 v=60
26004 On ch=1 n=g6 v=93
26016 On ch=1 n=d4 v=63
26022 Par ch=1 c=64 v=63
26030 Par ch=1 c=64 v=127
26056 On ch=1 n=a4 v=0
26066 On ch=1 n=d5 v=0
26088 On ch=1 n=d4 v=0
26134 On ch=1 n=g6 v=0
26210 Par ch=1 c=64 v=63
26230 Par ch=1 c=64 v=0
26246 On ch=1 n=f#6 v=94
26350 On ch=1 n=f#6 v=0
26462 On ch=1 n=g4 v=60
26474 On ch=1 n=b3 v=60
26488 Par ch=1 c=64 v=63
26510 Par ch=1 c=64 v=127
26632 On ch=1 n=g4 v=0
26666 On ch=1 n=b3 v=0
26690 On ch=1 n=f6 v=87
26788 On ch=1 n=f6 v=0
26842 Par ch=1 c=64 v=63
26878 Par ch=1 c=64 v=0
26888 On ch=1 n=c4 v=66
26890 On ch=1 n=g4 v=62
27008 Par ch=1 c=64 v=63
27054 Par ch=1 c=64 v=127
27078 On ch=1 n=g4 v=0
27124 On ch=1 n=d#6 v=99
27200 On ch=1 n=c4 v=0
27210 On ch=1 n=d#6 v=0
27324 On ch=1 n=c5 v=84
27328 On ch=1 n=a4 v=68
27384 Par ch=1 c=64 v=63
27428 Par ch=1 c=64 v=0
27524 Par ch=1 c=64 v=63
27538 On ch=1 n=e6 v=97
27568 On ch=1 n=a4 v=0
27592 On ch=1 n=c5 v=0
27592 Par ch=1 c=64 v=127
27660 On ch=1 n=e6 v=0
27782 On ch=1 n=f4 v=59
27792 On ch=1 n=e6 v=80
27820 Par ch=1 c=64 v=63
27850 Par ch=1 c=64 v=0
27976 Par ch=1 c=64 v=63
28006 On ch=1 n=a4 v=43
28014 On ch=1 n=d6 v=79
28016 Par ch=1 c=64 v=127
28116 On ch=1 n=e6 v=0
28148 On ch=1 n=d6 v=0
28154 On ch=1 n=f4 v=0
28242 On ch=1 n=a4 v=0
28242 On ch=1 n=d6 v=96
28250 On ch=1 n=f4 v=76
28450 On ch=1 n=a4 v=63
28478 On ch=1 n=f4 v=0
28636 On ch=1 n=d6 v=0
28638 On ch=1 n=a4 v=0
28650 On ch=1 n=f4 v=90
28814 On ch=1 n=f4 v=0
28870 On ch=1 n=a4 v=60
28894 On ch=1 n=e6 v=92
28972 On ch=1 n=d6 v=100
29024 On ch=1 n=e6 v=0
29056 On ch=1 n=d6 v=0
29088 On ch=1 n=f#4 v=90
29094 On ch=1 n=a4 v=0
29102 On ch=1 n=d6 v=99
29162 Par ch=1 c=64 v=63
29204 On ch=1 n=c6 v=100
29254 Par ch=1 c=64 v=127
29258 On ch=1 n=d6 v=0
29278 On ch=1 n=f#4 v=0
29286 On ch=1 n=a4 v=63
29290 On ch=1 n=b5 v=92
29312 On ch=1 n=c6 v=0
29382 On ch=1 n=c6 v=98
29418 On ch=1 n=b5 v=0
29424 On ch=1 n=a4 v=0
29448 Par ch=1 c=64 v=63
29466 Par ch=1 c=64 v=0
29496 On ch=1 n=g4 v=66
29500 On ch=1 n=b5 v=104
29578 On ch=1 n=c6 v=0
29622 On ch=1 n=d5 v=78
29628 Par ch=1 c=64 v=63
29642 On ch=1 n=g4 v=0
29648 Par ch=1 c=64 v=127
29694 On ch=1 n=b5 v=0
29740 On ch=1 n=b4 v=83
29744 On ch=1 n=d5 v=0
29830 On ch=1 n=d5 v=84
29846 On ch=1 n=b4 v=0
29920 Par ch=1 c=64 v=63
29934 Par ch=1 c=64 v=0
29968 On ch=1 n=g4 v=84
29968 On ch=1 n=g6 v=109
29972 On ch=1 n=d5 v=0
30008 Par ch=1 c=64 v=63
30044 Par ch=1 c=64 v=127
30082 On ch=1 n=d5 v=74
30098 On ch=1 n=g4 v=0
30158 On ch=1 n=g6 v=0
30198 On ch=1 n=d5 v=0
30200 On ch=1 n=b4 v=73
30278 On ch=1 n=g6 v=96
30292 On ch=1 n=b4 v=0
30300 On ch=1 n=d5 v=76
30342 On ch=1 n=g6 v=0
30380 On ch=1 n=d5 v=0
30380 Par ch=1 c=64 v=63
30382 On ch=1 n=g6 v=114
30396 Par ch=1 c=64 v=0
30404 On ch=1 n=g4 v=83
30456 Par ch=1 c=64 v=63
30494 Par ch=1 c=64 v=127
30506 On ch=1 n=d#5 v=92
30552 On ch=1 n=g4 v=0
30608 On ch=1 n=d#5 v=0
30610 On ch=1 n=c5 v=87
30692 On ch=1 n=d#5 v=88
30714 On ch=1 n=c5 v=0
30736 On ch=1 n=g6 v=0
30784 On ch=1 n=d#5 v=0
30820 On ch=1 n=g4 v=84
30826 On ch=1 n=g6 v=116
30914 On ch=1 n=f5 v=86
30926 On ch=1 n=g4 v=0
30934 Par ch=1 c=64 v=63
30990 Par ch=1 c=64 v=127
31016 On ch=1 n=g6 v=0
31018 On ch=1 n=d5 v=102
31042 On ch=1 n=f5 v=0
31116 On ch=1 n=f5 v=96
31122 On ch=1 n=d5 v=0
31244 On ch=1 n=f5 v=0
31264 On ch=1 n=g4 v=82
31270 On ch=1 n=c6 v=107
31272 On ch=1 n=c7 v=108
31306 Par ch=1 c=64 v=63
31314 Par ch=1 c=64 v=0
31404 On ch=1 n=d#5 v=88
31430 Par ch=1 c=64 v=63
31446 Par ch=1 c=64 v=127
31482 On ch=1 n=g4 v=0
31512 On ch=1 n=c5 v=81
31518 On ch=1 n=d#5 v=0
31602 On ch=1 n=d#5 v=84
31620 On ch=1 n=c5 v=0
31716 On ch=1 n=g4 v=77
31724 On ch=1 n=d#5 v=0
31796 On ch=1 n=d#5 v=69
31822 On ch=1 n=c7 v=0
31846 On ch=1 n=g4 v=0
31936 On ch=1 n=d#5 v=0
31954 On ch=1 n=c5 v=64
31966 On ch=1 n=a#6 v=84
32030 On ch=1 n=d#5 v=78
32034 On ch=1 n=g#6 v=96
32042 On ch=1 n=c5 v=0
32060 On ch=1 n=a#6 v=0
32106 On ch=1 n=g#6 v=0
32154 On ch=1 n=d#5 v=0
32154 On ch=1 n=g6 v=94
32162 On ch=1 n=g4 v=65
32242 On ch=1 n=d#5 v=69
32280 On ch=1 n=g4 v=0
32372 On ch=1 n=d#5 v=0
32390 Par ch=1 c=64 v=63
32392 On ch=1 n=c5 v=51
32424 Par ch=1 c=64 v=0
32458 On ch=1 n=d#5 v=70
32492 On ch=1 n=c5 v=0
32526 Par ch=1 c=64 v=63
32564 Par ch=1 c=64 v=127
32572 On ch=1 n=g4 v=54
32588 On ch=1 n=d#5 v=0
32592 On ch=1 n=f#6 v=94
32654 On ch=1 n=g6 v=0
32656 On ch=1 n=d#5 v=73
32694 On ch=1 n=g4 v=0
32742 On ch=1 n=c6 v=0
32782 On ch=1 n=f#6 v=0
32786 On ch=1 n=d#5 v=0
32804 On ch=1 n=c5 v=51
32876 On ch=1 n=d#5 v=67
32906 On ch=1 n=c5 v=0
32976 On ch=1 n=d#5 v=0
33004 On ch=1 n=g4 v=54
33030 On ch=1 n=g6 v=76
33034 On ch=1 n=b5 v=63
33056 Par ch=1 c=64 v=63
33084 Par ch=1 c=64 v=0
33110 On ch=1 n=d5 v=60
33156 On ch=1 n=g4 v=0
33182 Par ch=1 c=64 v=63
33222 Par ch=1 c=64 v=127
33270 On ch=1 n=d5 v=0
33274 On ch=1 n=b4 v=59
33310 On ch=1 n=b5 v=0
33340 On ch=1 n=g6 v=0
33352 On ch=1 n=d5 v=62
33374 On ch=1 n=b4 v=0
33386 Par ch=1 c=64 v=63
33428 Par ch=1 c=64 v=0
33446 Par ch=1 c=64 v=63
33480 On ch=1 n=g6 v=85
33484 On ch=1 n=g4 v=61
33488 On ch=1 n=d5 v=0
33510 Par ch=1 c=64 v=127
33582 On ch=1 n=d5 v=50
33642 On ch=1 n=g6 v=0
33644 On ch=1 n=g4 v=0
33698 On ch=1 n=d5 v=0
33698 On ch=1 n=b4 v=63
33770 On ch=1 n=b4 v=0
33784 On ch=1 n=d5 v=34
33798 On ch=1 n=g6 v=82
33862 On ch=1 n=d5 v=0
33868 On ch=1 n=g6 v=0
33878 Par ch=1 c=64 v=63
33890 On ch=1 n=g4 v=48
33906 On ch=1 n=g6 v=87
33966 Par ch=1 c=64 v=127
34018 On ch=1 n=d#5 v=72
34054 On ch=1 n=g4 v=0
34132 On ch=1 n=d#5 v=0
34142 On ch=1 n=c5 v=68
34210 On ch=1 n=d#5 v=76
34252 On ch=1 n=c5 v=0
34254 On ch=1 n=g6 v=0
34296 On ch=1 n=d#5 v=0
34318 On ch=1 n=g4 v=75
34326 On ch=1 n=g6 v=98
34342 Par ch=1 c=64 v=63
34374 Par ch=1 c=64 v=127
34414 On ch=1 n=g4 v=0
34418 On ch=1 n=f5 v=61
34490 On ch=1 n=g6 v=0
34532 On ch=1 n=d5 v=72
34538 On ch=1 n=f5 v=0
34618 On ch=1 n=d5 v=0
34642 On ch=1 n=f5 v=56
34756 On ch=1 n=f5 v=0
34778 On ch=1 n=g4 v=64
34784 On ch=1 n=c6 v=59
34788 On ch=1 n=c7 v=72
34806 Par ch=1 c=64 v=63
34936 Par ch=1 c=64 v=127
34942 On ch=1 n=d#5 v=74
34974 On ch=1 n=g4 v=0
35050 On ch=1 n=d#5 v=0
35052 On ch=1 n=c5 v=68
35140 On ch=1 n=d#5 v=59
35192 On ch=1 n=c5 v=0
35230 On ch=1 n=g4 v=66
35256 On ch=1 n=d#5 v=0
35338 On ch=1 n=d#5 v=63
35372 On ch=1 n=c7 v=0
35376 On ch=1 n=g4 v=0
35452 On ch=1 n=d#5 v=0
35462 On ch=1 n=c5 v=63
35484 On ch=1 n=a#6 v=81
35546 On ch=1 n=d#5 v=61
35562 On ch=1 n=g#6 v=84
35568 On ch=1 n=c5 v=0
35582 On ch=1 n=a#6 v=0
35620 On ch=1 n=g#6 v=0
35658 On ch=1 n=g4 v=68
35670 On ch=1 n=d#5 v=0
35680 On ch=1 n=g6 v=93
35756 On ch=1 n=d#5 v=55
35798 On ch=1 n=g4 v=0
35900 On ch=1 n=d#5 v=0
35902 On ch=1 n=c5 v=68
35938 Par ch=1 c=64 v=63
35990 On ch=1 n=d#5 v=70
36016 On ch=1 n=c5 v=0
36076 On ch=1 n=g4 v=64
36086 Par ch=1 c=64 v=127
36100 On ch=1 n=f#6 v=100
36116 On ch=1 n=d#5 v=0
36170 On ch=1 n=g6 v=0
36196 On ch=1 n=d#5 v=60
36212 On ch=1 n=c6 v=0
36232 On ch=1 n=f#6 v=0
36238 On ch=1 n=g4 v=0
36290 On ch=1 n=c5 v=81
36306 On ch=1 n=d#5 v=0
36402 On ch=1 n=d#5 v=87
36432 On ch=1 n=c5 v=0
36474 On ch=1 n=d#5 v=0
36484 Par ch=1 c=64 v=63
36496 Par ch=1 c=64 v=0
36518 On ch=1 n=g6 v=116
36520 On ch=1 n=d5 v=93
36520 On ch=1 n=b4 v=98
36540 On ch=1 n=g4 v=86
36574 Par ch=1 c=64 v=63
36606 Par ch=1 c=64 v=127
36622 On ch=1 n=d6 v=100
36684 On ch=1 n=b4 v=0
36686 On ch=1 n=d5 v=0
36708 On ch=1 n=g4 v=0
36724 On ch=1 n=g6 v=0
36732 On ch=1 n=b5 v=84
36748 On ch=1 n=d6 v=0
36828 On ch=1 n=d6 v=89
36846 On ch=1 n=b5 v=0
36894 Par ch=1 c=64 v=63
36902 Par ch=1 c=64 v=0
36926 On ch=1 n=g6 v=114
36932 On ch=1 n=d6 v=0
37028 On ch=1 n=d#6 v=107
37102 On ch=1 n=g6 v=0
37138 On ch=1 n=c6 v=93
37146 On ch=1 n=c5 v=106
37148 On ch=1 n=d#6 v=0
37156 On ch=1 n=c4 v=94
37202 On ch=1 n=c5 v=0
37214 On ch=1 n=c4 v=0
37238 On ch=1 n=d#6 v=106
37264 On ch=1 n=c6 v=0
37320 On ch=1 n=d#6 v=0
37392 On ch=1 n=g6 v=118
37398 On ch=1 n=g4 v=103
37406 On ch=1 n=g3 v=85
37408 Par ch=1 c=64 v=63
37410 Par ch=1 c=64 v=127
37430 On ch=1 n=g4 v=0
37442 On ch=1 n=g3 v=0
37500 On ch=1 n=d6 v=96
37554 On ch=1 n=g6 v=0
37608 On ch=1 n=d6 v=0
37618 On ch=1 n=b5 v=75
37706 On ch=1 n=d6 v=86
37716 On ch=1 n=b5 v=0
37780 On ch=1 n=d6 v=0
37824 Par ch=1 c=64 v=63
37824 On ch=1 n=g6 v=111
37830 Par ch=1 c=64 v=0
37930 On ch=1 n=d#6 v=105
37974 On ch=1 n=g6 v=0
38040 On ch=1 n=d#6 v=0
38050 On ch=1 n=c6 v=89
38050 On ch=1 n=c5 v=112
38054 On ch=1 n=c4 v=108
38112 On ch=1 n=c5 v=0
38120 On ch=1 n=c4 v=0
38142 On ch=1 n=d#6 v=105
38160 On ch=1 n=c6 v=0
38210 On ch=1 n=d#6 v=0
38284 On ch=1 n=g4 v=106
38288 On ch=1 n=g3 v=114
38294 On ch=1 n=g6 v=117
38310 Par ch=1 c=64 v=63
38312 Par ch=1 c=64 v=127
38316 On ch=1 n=g3 v=0
38318 On ch=1 n=g4 v=0
38410 On ch=1 n=d6 v=94
38468 On ch=1 n=g6 v=0
38516 On ch=1 n=b5 v=71
38518 On ch=1 n=d6 v=0
38610 On ch=1 n=d6 v=84
38628 On ch=1 n=b5 v=0
38718 On ch=1 n=d6 v=0
38724 On ch=1 n=g6 v=97
38766 Par ch=1 c=64 v=63
38778 Par ch=1 c=64 v=0
38822 On ch=1 n=d#6 v=107
38904 On ch=1 n=g6 v=0
38928 On ch=1 n=c6 v=90
38942 On ch=1 n=c5 v=97
38942 On ch=1 n=c4 v=97
38944 On ch=1 n=d#6 v=0
38972 On ch=1 n=c5 v=0
39018 On ch=1 n=d#6 v=98
39020 On ch=1 n=c4 v=0
39036 On ch=1 n=c6 v=0
39142 On ch=1 n=d6 v=98
39144 On ch=1 n=b5 v=88
39148 On ch=1 n=g4 v=98
39150 On ch=1 n=g3 v=98
39182 On ch=1 n=g3 v=0
39190 On ch=1 n=d#6 v=0
39192 On ch=1 n=g4 v=0
39200 On ch=1 n=b5 v=0
39238 On ch=1 n=g6 v=96
39288 On ch=1 n=d6 v=0
39352 On ch=1 n=d#6 v=112
39358 On ch=1 n=c5 v=106
39360 On ch=1 n=c4 v=103
39366 On ch=1 n=c6 v=91
39398 On ch=1 n=c5 v=0
39408 On ch=1 n=g6 v=0
39422 On ch=1 n=c4 v=0
39458 On ch=1 n=g6 v=90
39460 On ch=1 n=c6 v=0
39518 On ch=1 n=d#6 v=0
39572 On ch=1 n=g4 v=93
39572 On ch=1 n=d6 v=104
39584 On ch=1 n=b5 v=92
39584 On ch=1 n=g3 v=84
39618 On ch=1 n=g6 v=0
39620 On ch=1 n=g3 v=0
39632 On ch=1 n=g4 v=0
39658 On ch=1 n=b5 v=0
39670 On ch=1 n=g6 v=89
39724 On ch=1 n=d6 v=0
39790 On ch=1 n=d#6 v=108
39792 On ch=1 n=c4 v=112
39792 On ch=1 n=c5 v=109
39796 On ch=1 n=c6 v=96
39846 On ch=1 n=g6 v=0
39848 On ch=1 n=c5 v=0
39858 On ch=1 n=c4 v=0
39884 On ch=1 n=c6 v=0
39900 On ch=1 n=g6 v=84
39974 On ch=1 n=d#6 v=0
39992 On ch=1 n=d6 v=106
40008 On ch=1 n=b5 v=103
40008 On ch=1 n=g4 v=107
40012 On ch=1 n=g3 v=120
40048 On ch=1 n=g4 v=0
40048 On ch=1 n=g6 v=0
40064 On ch=1 n=g3 v=0
40066 On ch=1 n=d6 v=0
40072 On ch=1 n=b5 v=0
40414 On ch=1 n=g5 v=68
40432 On ch=1 n=b5 v=93
40452 On ch=1 n=d6 v=104
40464 On ch=1 n=g5 v=0
40480 On ch=1 n=g6 v=108
40482 On ch=1 n=g3 v=118
40484 On ch=1 n=g2 v=116
40490 Par ch=1 c=64 v=63
40492 Par ch=1 c=64 v=127
40500 On ch=1 n=b5 v=0
40528 On ch=1 n=d6 v=0
40546 On ch=1 n=g6 v=0
40568 On ch=1 n=g3 v=0
40582 On ch=1 n=g2 v=0
40930 On ch=1 n=g2 v=89
40946 On ch=1 n=g3 v=116
40980 Par ch=1 c=64 v=63
40986 Par ch=1 c=64 v=0
41000 On ch=1 n=g2 v=0
41018 On ch=1 n=g3 v=0
41168 On ch=1 n=g6 v=83
41228 On ch=1 n=g6 v=0
41378 On ch=1 n=a6 v=89
41436 On ch=1 n=a6 v=0
41574 On ch=1 n=b6 v=86
41640 On ch=1 n=b6 v=0
41820 On ch=1 n=c7 v=89
41830 On ch=1 n=g5 v=73
41848 On ch=1 n=e5 v=66
41908 On ch=1 n=g5 v=0
41914 On ch=1 n=e5 v=0
41932 On ch=1 n=c7 v=0
41934 On ch=1 n=d7 v=78
42034 On ch=1 n=d7 v=0
42048 On ch=1 n=b6 v=78
42064 On ch=1 n=g5 v=55
42070 On ch=1 n=e5 v=45
42136 On ch=1 n=g5 v=0
42138 On ch=1 n=d7 v=89
42144 On ch=1 n=e5 v=0
42154 On ch=1 n=b6 v=0
42256 On ch=1 n=c7 v=83
42268 On ch=1 n=d7 v=0
42276 On ch=1 n=g5 v=59
42290 On ch=1 n=e5 v=40
42348 On ch=1 n=g5 v=0
42350 On ch=1 n=d7 v=80
42356 On ch=1 n=e5 v=0
42362 On ch=1 n=c7 v=0
42476 On ch=1 n=d7 v=0
42488 On ch=1 n=b6 v=83
42494 On ch=1 n=e5 v=43
42494 On ch=1 n=g5 v=50
42552 On ch=1 n=d7 v=71
42558 On ch=1 n=g5 v=0
42568 On ch=1 n=e5 v=0
42576 On ch=1 n=b6 v=0
42692 On ch=1 n=g5 v=65
42702 On ch=1 n=c7 v=83
42704 On ch=1 n=e5 v=54
42718 On ch=1 n=d7 v=0
42808 On ch=1 n=d7 v=76
42828 On ch=1 n=c7 v=0
42914 On ch=1 n=b6 v=84
42928 On ch=1 n=d7 v=0
43030 On ch=1 n=c7 v=83
43034 On ch=1 n=b6 v=0
43118 On ch=1 n=c7 v=0
43132 On ch=1 n=a6 v=83
43202 On ch=1 n=g5 v=0
43222 On ch=1 n=e5 v=0
43236 On ch=1 n=b6 v=89
43240 On ch=1 n=a6 v=0
43340 On ch=1 n=g6 v=86
43350 On ch=1 n=b6 v=0
43446 On ch=1 n=a6 v=92
43456 On ch=1 n=g6 v=0
43536 On ch=1 n=a6 v=0
43548 On ch=1 n=a5 v=77
43552 On ch=1 n=f6 v=84
43552 On ch=1 n=d5 v=82
43598 On ch=1 n=d5 v=0
43604 On ch=1 n=a5 v=0
43638 On ch=1 n=f6 v=0
43666 On ch=1 n=g6 v=80
43768 On ch=1 n=g6 v=0
43772 On ch=1 n=a5 v=79
43772 On ch=1 n=e6 v=84
43778 On ch=1 n=d5 v=76
43830 On ch=1 n=d5 v=0
43836 On ch=1 n=a5 v=0
43862 On ch=1 n=g6 v=90
43870 On ch=1 n=e6 v=0
43974 On ch=1 n=f6 v=79
43984 On ch=1 n=g6 v=0
44002 On ch=1 n=a5 v=51
44010 On ch=1 n=d5 v=51
44058 On ch=1 n=a5 v=0
44062 On ch=1 n=d5 v=0
44070 On ch=1 n=f6 v=0
44072 On ch=1 n=g6 v=74
44174 On ch=1 n=g6 v=0
44184 On ch=1 n=e6 v=75
44194 On ch=1 n=a5 v=60
44210 On ch=1 n=d5 v=34
44252 On ch=1 n=g6 v=83
44268 On ch=1 n=d5 v=0
44270 On ch=1 n=a5 v=0
44272 On ch=1 n=e6 v=0
44388 On ch=1 n=f6 v=83
44398 On ch=1 n=a5 v=73
44400 On ch=1 n=d5 v=80
44404 On ch=1 n=g6 v=0
44476 On ch=1 n=g6 v=68
44494 On ch=1 n=f6 v=0
44602 On ch=1 n=e6 v=82
44608 On ch=1 n=g6 v=0
44690 On ch=1 n=f6 v=84
44704 On ch=1 n=e6 v=0
44790 On ch=1 n=f6 v=0
44798 On ch=1 n=d6 v=84
44830 On ch=1 n=a5 v=0
44882 On ch=1 n=d5 v=0
44902 On ch=1 n=d6 v=0
44910 On ch=1 n=e6 v=89
45004 On ch=1 n=c6 v=86
45020 On ch=1 n=e6 v=0
45124 On ch=1 n=c6 v=0
45124 On ch=1 n=d6 v=79
45200 On ch=1 n=d6 v=0
45212 On ch=1 n=b5 v=77
45236 On ch=1 n=f5 v=77
45236 On ch=1 n=d5 v=76
45240 On ch=1 n=g4 v=66
45286 On ch=1 n=d5 v=0
45294 On ch=1 n=f5 v=0
45298 On ch=1 n=b5 v=0
45316 On ch=1 n=g4 v=0
45322 On ch=1 n=c6 v=84
45432 On ch=1 n=c6 v=0
45434 On ch=1 n=a5 v=83
45440 On ch=1 n=f5 v=78
45448 On ch=1 n=g4 v=56
45452 On ch=1 n=d5 v=65
45510 On ch=1 n=d5 v=0
45516 On ch=1 n=c6 v=88
45518 On ch=1 n=f5 v=0
45520 On ch=1 n=g4 v=0
45530 On ch=1 n=a5 v=0
45630 On ch=1 n=b5 v=80
45644 On ch=1 n=c6 v=0
45660 On ch=1 n=f5 v=77
45666 On ch=1 n=g4 v=58
45672 On ch=1 n=d5 v=64
45726 On ch=1 n=d5 v=0
45726 On ch=1 n=b5 v=0
45732 On ch=1 n=c6 v=82
45738 On ch=1 n=g4 v=0
45738 On ch=1 n=f5 v=0
45838 On ch=1 n=c6 v=0
45858 On ch=1 n=a5 v=73
45858 On ch=1 n=f5 v=65
45864 On ch=1 n=g4 v=45
45870 On ch=1 n=d5 v=54
45924 On ch=1 n=d5 v=0
45930 On ch=1 n=f5 v=0
45936 On ch=1 n=c6 v=87
45938 On ch=1 n=g4 v=0
45950 On ch=1 n=a5 v=0
46064 On ch=1 n=b5 v=78
46076 On ch=1 n=c6 v=0
46076 On ch=1 n=f5 v=68
46078 On ch=1 n=g4 v=51
46084 On ch=1 n=d5 v=67
46150 On ch=1 n=c6 v=73
46174 On ch=1 n=b5 v=0
46274 On ch=1 n=a5 v=80
46286 On ch=1 n=c6 v=0
46368 On ch=1 n=b5 v=79
46382 On ch=1 n=a5 v=0
46414 On ch=1 n=f5 v=0
46466 On ch=1 n=b5 v=0
46482 On ch=1 n=g5 v=71
46566 On ch=1 n=d5 v=0
46582 On ch=1 n=a5 v=83
46586 On ch=1 n=g5 v=0
46598 On ch=1 n=g4 v=0
46700 On ch=1 n=f5 v=74
46702 On ch=1 n=a5 v=0
46784 On ch=1 n=g5 v=74
46794 On ch=1 n=f5 v=0
46904 On ch=1 n=g5 v=0
46930 On ch=1 n=e5 v=81
46932 On ch=1 n=c5 v=84
47028 On ch=1 n=g5 v=67
47038 On ch=1 n=e5 v=0
47148 On ch=1 n=f5 v=74
47150 On ch=1 n=g5 v=0
47240 On ch=1 n=f5 v=0
47252 On ch=1 n=e5 v=76
47356 On ch=1 n=f5 v=73
47364 On ch=1 n=e5 v=0
47454 On ch=1 n=g5 v=87
47468 On ch=1 n=f5 v=0
47530 On ch=1 n=g5 v=0
47560 On ch=1 n=a5 v=85
47664 On ch=1 n=b5 v=89
47678 On ch=1 n=a5 v=0
47742 On ch=1 n=c5 v=0
47756 On ch=1 n=c6 v=96
47776 On ch=1 n=b5 v=0
47874 On ch=1 n=d6 v=94
47884 On ch=1 n=c6 v=0
47974 On ch=1 n=c6 v=92
47998 On ch=1 n=d6 v=0
48066 On ch=1 n=b5 v=92
48078 On ch=1 n=c6 v=0
48160 On ch=1 n=b5 v=0
48168 On ch=1 n=c6 v=84
48276 On ch=1 n=d6 v=97
48302 On ch=1 n=c6 v=0
48370 On ch=1 n=e6 v=100
48390 On ch=1 n=d6 v=0
48460 On ch=1 n=e6 v=0
48474 On ch=1 n=f6 v=99
48586 On ch=1 n=g6 v=100
48592 On ch=1 n=f6 v=0
48594 On ch=1 n=e4 v=101
48594 On ch=1 n=c5 v=96
48644 On ch=1 n=c5 v=0
48662 On ch=1 n=e4 v=0
48696 On ch=1 n=g6 v=0
48702 On ch=1 n=a6 v=93
48802 On ch=1 n=c5 v=98
48802 On ch=1 n=e4 v=97
48808 On ch=1 n=f#6 v=96
48812 On ch=1 n=a6 v=0
48854 On ch=1 n=c5 v=0
48864 On ch=1 n=e4 v=0
48904 On ch=1 n=a6 v=97
48918 On ch=1 n=f#6 v=0
49010 On ch=1 n=e4 v=100
49010 On ch=1 n=g6 v=91
49014 On ch=1 n=c5 v=93
49038 On ch=1 n=a6 v=0
49068 On ch=1 n=c5 v=0
49080 On ch=1 n=e4 v=0
49104 On ch=1 n=a6 v=87
49128 On ch=1 n=g6 v=0
49210 On ch=1 n=e4 v=102
49214 On ch=1 n=c5 v=98
49224 On ch=1 n=f#6 v=100
49232 On ch=1 n=a6 v=0
49268 On ch=1 n=c5 v=0
49280 On ch=1 n=e4 v=0
49320 On ch=1 n=a6 v=100
49344 On ch=1 n=f#6 v=0
49414 On ch=1 n=a6 v=0
49448 On ch=1 n=c5 v=107
49452 On ch=1 n=e4 v=106
49476 On ch=1 n=g6 v=88
49586 On ch=1 n=c7 v=101
49600 On ch=1 n=g6 v=0
49704 On ch=1 n=c7 v=0
49710 On ch=1 n=b6 v=94
49798 On ch=1 n=c7 v=101
49822 On ch=1 n=b6 v=0
49902 On ch=1 n=d7 v=104
49928 On ch=1 n=c7 v=0
50024 On ch=1 n=c7 v=102
50080 On ch=1 n=d7 v=0
50130 On ch=1 n=b6 v=101
50150 On ch=1 n=c7 v=0
50220 On ch=1 n=c7 v=106
50250 On ch=1 n=e4 v=0
50256 On ch=1 n=b6 v=0
50310 On ch=1 n=c5 v=0
50354 On ch=1 n=b6 v=101
50364 On ch=1 n=f4 v=93
50400 On ch=1 n=c7 v=0
50498 On ch=1 n=a6 v=94
50506 On ch=1 n=b6 v=0
50602 On ch=1 n=a6 v=0
50612 On ch=1 n=g#6 v=107
50714 On ch=1 n=a6 v=92
50716 On ch=1 n=g#6 v=0
50830 On ch=1 n=a4 v=96
50832 On ch=1 n=g6 v=90
50874 On ch=1 n=a6 v=0
50928 On ch=1 n=a4 v=0
50938 On ch=1 n=f6 v=87
50960 On ch=1 n=g6 v=0
51046 On ch=1 n=f6 v=0
51050 On ch=1 n=e6 v=90
51162 On ch=1 n=e6 v=0
51164 On ch=1 n=f6 v=92
51254 On ch=1 n=d5 v=101
51268 On ch=1 n=f6 v=0
51268 On ch=1 n=e6 v=87
51382 On ch=1 n=e6 v=0
51386 On ch=1 n=d6 v=89
51492 On ch=1 n=d6 v=0
51496 On ch=1 n=c#6 v=94
51552 On ch=1 n=f4 v=0
51598 On ch=1 n=d6 v=80
51600 On ch=1 n=c#6 v=0
51704 On ch=1 n=c#6 v=99
51714 On ch=1 n=f4 v=98
51718 On ch=1 n=d6 v=0
51804 On ch=1 n=c#6 v=0
51822 On ch=1 n=d6 v=84
51934 On ch=1 n=e6 v=90
51950 On ch=1 n=d6 v=0
52016 On ch=1 n=f6 v=97
52044 On ch=1 n=e6 v=0
52162 On ch=1 n=e4 v=81
52162 On ch=1 n=a6 v=93
52170 On ch=1 n=f6 v=0
52224 On ch=1 n=f4 v=0
52296 On ch=1 n=g6 v=77
52360 On ch=1 n=a6 v=0
52370 On ch=1 n=f#6 v=93
52400 On ch=1 n=g6 v=0
52486 On ch=1 n=g6 v=84
52492 On ch=1 n=f#6 v=0
52590 On ch=1 n=g4 v=93
52596 On ch=1 n=d5 v=0
52600 On ch=1 n=f6 v=77
52632 On ch=1 n=g6 v=0
52682 On ch=1 n=g4 v=0
52692 On ch=1 n=e6 v=88
52724 On ch=1 n=f6 v=0
52806 On ch=1 n=e6 v=0
52806 On ch=1 n=d6 v=80
52910 On ch=1 n=e6 v=87
52922 On ch=1 n=d6 v=0
53016 On ch=1 n=e6 v=0
53018 On ch=1 n=d6 v=82
53024 On ch=1 n=c5 v=99
53130 On ch=1 n=d6 v=0
53144 On ch=1 n=c6 v=83
53250 On ch=1 n=b5 v=83
53266 On ch=1 n=c6 v=0
53292 On ch=1 n=e4 v=0
53352 On ch=1 n=c6 v=85
53360 On ch=1 n=b5 v=0
53454 On ch=1 n=b5 v=83
53462 On ch=1 n=e4 v=86
53464 On ch=1 n=c6 v=0
53556 On ch=1 n=b5 v=0
53564 On ch=1 n=c6 v=84
53684 On ch=1 n=d6 v=81
53700 On ch=1 n=c6 v=0
53780 On ch=1 n=e6 v=86
53812 On ch=1 n=d6 v=0
53892 On ch=1 n=f6 v=84
53900 On ch=1 n=d4 v=75
53946 On ch=1 n=e6 v=0
54014 On ch=1 n=g6 v=83
54046 On ch=1 n=f6 v=0
54122 On ch=1 n=e4 v=0
54140 On ch=1 n=e6 v=73
54164 On ch=1 n=g6 v=0
54218 On ch=1 n=f6 v=87
54248 On ch=1 n=e6 v=0
54334 On ch=1 n=d6 v=89
54342 On ch=1 n=a4 v=76
54342 On ch=1 n=f4 v=78
54348 On ch=1 n=f6 v=0
54350 On ch=1 n=c5 v=0
54354 On ch=1 n=d4 v=0
54446 On ch=1 n=e6 v=76
54458 On ch=1 n=d6 v=0
54554 On ch=1 n=e6 v=0
54556 On ch=1 n=c6 v=84
54658 On ch=1 n=d6 v=94
54674 On ch=1 n=c6 v=0
54772 On ch=1 n=b5 v=93
54790 On ch=1 n=d6 v=0
54790 On ch=1 n=g4 v=84
54794 On ch=1 n=a4 v=0
54826 On ch=1 n=f4 v=0
54892 On ch=1 n=c6 v=83
54904 On ch=1 n=b5 v=0
54996 On ch=1 n=c6 v=0
54998 On ch=1 n=a5 v=80
55110 On ch=1 n=b5 v=86
55122 On ch=1 n=a5 v=0
55216 On ch=1 n=b3 v=89
55218 On ch=1 n=g5 v=87
55238 On ch=1 n=b5 v=0
55318 On ch=1 n=a5 v=79
55330 On ch=1 n=g5 v=0
55436 On ch=1 n=a5 v=0
55438 On ch=1 n=f5 v=74
55526 On ch=1 n=g5 v=72
55528 On ch=1 n=f5 v=0
55626 On ch=1 n=c4 v=89
55646 On ch=1 n=g5 v=0
55652 On ch=1 n=e5 v=81
55654 On ch=1 n=b3 v=0
55758 On ch=1 n=g5 v=69
55770 On ch=1 n=e5 v=0
55876 On ch=1 n=f5 v=77
55888 On ch=1 n=g5 v=0
55950 On ch=1 n=g4 v=0
55976 On ch=1 n=c4 v=0
55982 On ch=1 n=e5 v=80
55984 On ch=1 n=f5 v=0
56092 On ch=1 n=f5 v=86
56104 On ch=1 n=e5 v=0
56106 On ch=1 n=g4 v=88
56116 On ch=1 n=d4 v=88
56196 On ch=1 n=g5 v=87
56212 On ch=1 n=f5 v=0
56290 On ch=1 n=g5 v=0
56306 On ch=1 n=a5 v=83
56418 On ch=1 n=b5 v=98
56444 On ch=1 n=a5 v=0
56498 On ch=1 n=e4 v=96
56516 On ch=1 n=c6 v=100
56548 On ch=1 n=d4 v=0
56564 On ch=1 n=b5 v=0
56612 On ch=1 n=d6 v=87
56672 On ch=1 n=c6 v=0
56710 On ch=1 n=e6 v=96
56738 On ch=1 n=d6 v=0
56818 On ch=1 n=d6 v=91
56870 On ch=1 n=e6 v=0
56914 On ch=1 n=c6 v=87
56950 On ch=1 n=c5 v=92
56952 On ch=1 n=d6 v=0
56996 On ch=1 n=g4 v=0
57020 On ch=1 n=a#5 v=101
57050 On ch=1 n=c6 v=0
57144 On ch=1 n=a#5 v=0
57144 On ch=1 n=a5 v=86
57244 On ch=1 n=g#5 v=108
57268 On ch=1 n=a5 v=0
57338 On ch=1 n=c5 v=0
57378 On ch=1 n=g#5 v=0
57390 On ch=1 n=a5 v=96
57396 On ch=1 n=c5 v=102
57408 On ch=1 n=f4 v=89
57440 On ch=1 n=e4 v=0
57512 On ch=1 n=b5 v=96
57524 On ch=1 n=a5 v=0
57634 On ch=1 n=c6 v=99
57654 On ch=1 n=b5 v=0
57734 On ch=1 n=b5 v=88
57766 On ch=1 n=c6 v=0
57834 On ch=1 n=b5 v=0
57834 On ch=1 n=c6 v=97
57946 On ch=1 n=c#6 v=93
57980 On ch=1 n=c6 v=0
58040 On ch=1 n=d6 v=94
58042 On ch=1 n=c#6 v=0
58106 On ch=1 n=f4 v=0
58140 On ch=1 n=c5 v=0
58148 On ch=1 n=c#6 v=106
58182 On ch=1 n=d6 v=0
58252 On ch=1 n=c#6 v=0
58260 On ch=1 n=d6 v=103
58372 On ch=1 n=e6 v=103
58386 On ch=1 n=d6 v=0
58464 On ch=1 n=f6 v=107
58484 On ch=1 n=e6 v=0
58568 On ch=1 n=e6 v=109
58584 On ch=1 n=f6 v=0
58646 On ch=1 n=e6 v=0
58672 On ch=1 n=f6 v=111
58784 On ch=1 n=g#6 v=114
58820 On ch=1 n=f6 v=0
58876 On ch=1 n=a6 v=100
58894 On ch=1 n=g#6 v=0
58984 On ch=1 n=g#6 v=114
59022 On ch=1 n=a6 v=0
59072 On ch=1 n=g#6 v=0
59080 On ch=1 n=f4 v=121
59102 On ch=1 n=a6 v=98
59192 On ch=1 n=d5 v=101
59210 On ch=1 n=b6 v=103
59218 On ch=1 n=a6 v=0
59230 On ch=1 n=f4 v=0
59302 On ch=1 n=d5 v=0
59306 On ch=1 n=a4 v=89
59314 On ch=1 n=c7 v=108
59318 On ch=1 n=b6 v=0
59386 On ch=1 n=a4 v=0
59388 On ch=1 n=d5 v=96
59404 On ch=1 n=b6 v=106
59430 On ch=1 n=c7 v=0
59506 On ch=1 n=c7 v=107
59508 On ch=1 n=d5 v=0
59526 On ch=1 n=b6 v=0
59526 On ch=1 n=f4 v=109
59608 On ch=1 n=d5 v=91
59608 On ch=1 n=b6 v=101
59630 On ch=1 n=f4 v=0
59634 On ch=1 n=c7 v=0
59720 On ch=1 n=c7 v=100
59720 On ch=1 n=a4 v=94
59722 On ch=1 n=d5 v=0
59732 On ch=1 n=b6 v=0
59794 On ch=1 n=d5 v=84
59808 On ch=1 n=a4 v=0
59818 On ch=1 n=b6 v=94
59850 On ch=1 n=c7 v=0
59914 On ch=1 n=d5 v=0
59920 On ch=1 n=f4 v=109
59924 On ch=1 n=d7 v=111
59934 On ch=1 n=b6 v=0
60004 On ch=1 n=d5 v=90
60034 On ch=1 n=c7 v=104
60038 On ch=1 n=f4 v=0
60092 On ch=1 n=d7 v=0
60126 On ch=1 n=d5 v=0
60134 On ch=1 n=b6 v=98
60136 On ch=1 n=a4 v=89
60188 On ch=1 n=c7 v=0
60220 On ch=1 n=d5 v=87
60240 On ch=1 n=a4 v=0
60246 On ch=1 n=a6 v=100
60268 On ch=1 n=b6 v=0
60344 On ch=1 n=d5 v=0
60344 On ch=1 n=f4 v=109
60348 On ch=1 n=a6 v=0
60360 On ch=1 n=b6 v=100
60444 On ch=1 n=d5 v=94
60462 On ch=1 n=a6 v=103
60508 On ch=1 n=b6 v=0
60520 On ch=1 n=f4 v=0
60554 On ch=1 n=a4 v=98
60560 On ch=1 n=g6 v=90
60566 On ch=1 n=d5 v=0
60592 On ch=1 n=a6 v=0
60642 On ch=1 n=f6 v=96
60656 On ch=1 n=d5 v=86
60660 On ch=1 n=g6 v=0
60662 On ch=1 n=a4 v=0
60736 On ch=1 n=f6 v=0
60744 On ch=1 n=d5 v=0
60770 On ch=1 n=g4 v=89
60772 On ch=1 n=e6 v=116
60872 On ch=1 n=e5 v=91
60872 On ch=1 n=g6 v=104
60900 On ch=1 n=g4 v=0
60910 On ch=1 n=e6 v=0
60984 On ch=1 n=c5 v=94
60986 On ch=1 n=e5 v=0
60992 On ch=1 n=a6 v=101
61012 On ch=1 n=g6 v=0
61062 On ch=1 n=e5 v=84
61068 On ch=1 n=c5 v=0
61106 On ch=1 n=g6 v=96
61166 On ch=1 n=a6 v=0
61182 On ch=1 n=e5 v=0
61194 On ch=1 n=g4 v=104
61210 On ch=1 n=f6 v=103
61256 On ch=1 n=g6 v=0
61286 On ch=1 n=e5 v=83
61304 On ch=1 n=g4 v=0
61312 On ch=1 n=e6 v=93
61328 On ch=1 n=f6 v=0
61384 On ch=1 n=e5 v=0
61410 On ch=1 n=c5 v=78
61416 On ch=1 n=d6 v=91
61418 On ch=1 n=e6 v=0
61472 On ch=1 n=c5 v=0
61486 On ch=1 n=e5 v=78
61512 On ch=1 n=c6 v=91
61522 On ch=1 n=d6 v=0
61582 On ch=1 n=c6 v=0
61604 On ch=1 n=e5 v=0
61644 On ch=1 n=g4 v=91
61650 On ch=1 n=d6 v=108
61670 Par ch=1 c=64 v=63
61672 Par ch=1 c=64 v=127
61728 On ch=1 n=e6 v=88
61732 On ch=1 n=g4 v=0
61736 On ch=1 n=d6 v=0
61736 On ch=1 n=f5 v=66
61762 On ch=1 n=e6 v=0
61804 On ch=1 n=d6 v=70
61830 On ch=1 n=f5 v=0
61848 On ch=1 n=d6 v=0
61864 On ch=1 n=e6 v=84
61864 On ch=1 n=b4 v=62
61902 On ch=1 n=e6 v=0
61918 On ch=1 n=d6 v=78
61920 On ch=1 n=b4 v=0
61928 On ch=1 n=f5 v=79
61988 On ch=1 n=e6 v=81
61996 On ch=1 n=d6 v=0
62034 On ch=1 n=g4 v=83
62036 On ch=1 n=e6 v=0
62042 On ch=1 n=d6 v=83
62060 On ch=1 n=f5 v=0
62104 On ch=1 n=e6 v=77
62112 On ch=1 n=d6 v=0
62150 On ch=1 n=b4 v=79
62172 On ch=1 n=g4 v=0
62176 On ch=1 n=e6 v=0
62178 On ch=1 n=d6 v=96
62248 On ch=1 n=b4 v=0
62260 On ch=1 n=f5 v=68
62280 On ch=1 n=c6 v=92
62282 On ch=1 n=d6 v=0
62342 On ch=1 n=d6 v=87
62376 On ch=1 n=f5 v=0
62378 On ch=1 n=c6 v=0
62436 On ch=1 n=d6 v=0
62448 Par ch=1 c=64 v=63
62458 Par ch=1 c=64 v=0
62482 On ch=1 n=c5 v=84
62502 On ch=1 n=e5 v=57
62642 On ch=1 n=c7 v=83
62754 On ch=1 n=b6 v=65
62768 On ch=1 n=c7 v=0
62818 On ch=1 n=c5 v=0
62820 On ch=1 n=e5 v=0
62838 On ch=1 n=a6 v=83
62868 On ch=1 n=b6 v=0
62944 On ch=1 n=a6 v=0
62958 On ch=1 n=g6 v=74
63046 On ch=1 n=a6 v=79
63050 On ch=1 n=g6 v=0
63146 On ch=1 n=a6 v=0
63174 On ch=1 n=f#6 v=86
63260 On ch=1 n=a6 v=66
63274 On ch=1 n=f#6 v=0
63374 On ch=1 n=g6 v=65
63386 On ch=1 n=a6 v=0
63488 On ch=1 n=a6 v=64
63490 On ch=1 n=g6 v=0
63588 On ch=1 n=a6 v=0
63608 On ch=1 n=f#6 v=71
63700 On ch=1 n=a6 v=69
63708 On ch=1 n=f#6 v=0
63816 On ch=1 n=g6 v=60
63824 On ch=1 n=a6 v=0
63826 On ch=1 n=b5 v=88
63892 On ch=1 n=b5 v=0
63894 On ch=1 n=a6 v=74
63930 On ch=1 n=g6 v=0
64018 On ch=1 n=a6 v=0
64028 On ch=1 n=f6 v=82
64046 On ch=1 n=g5 v=71
64116 On ch=1 n=g5 v=0
64128 On ch=1 n=g6 v=76
64130 On ch=1 n=f6 v=0
64204 On ch=1 n=g6 v=0
64240 On ch=1 n=e6 v=76
64274 On ch=1 n=c6 v=78
64316 On ch=1 n=e6 v=0
64398 On ch=1 n=c7 v=82
64466 On ch=1 n=c7 v=0
64482 On ch=1 n=b6 v=71
64586 On ch=1 n=a6 v=83
64588 On ch=1 n=b6 v=0
64678 On ch=1 n=a6 v=0
64690 On ch=1 n=g6 v=80
64786 On ch=1 n=g6 v=0
64798 On ch=1 n=a6 v=77
64898 On ch=1 n=a6 v=0
64904 On ch=1 n=f#6 v=93
64906 On ch=1 n=c6 v=0
64996 On ch=1 n=a6 v=79
65006 On ch=1 n=f#6 v=0
65092 On ch=1 n=g6 v=75
65122 On ch=1 n=a6 v=0
65216 On ch=1 n=a6 v=72
65224 On ch=1 n=g6 v=0
65328 On ch=1 n=a6 v=0
65334 On ch=1 n=f#6 v=82
65430 On ch=1 n=a6 v=78
65438 On ch=1 n=f#6 v=0
65552 On ch=1 n=g6 v=63
65564 On ch=1 n=a6 v=0
65584 On ch=1 n=b5 v=84
65630 On ch=1 n=b5 v=0
65644 On ch=1 n=a6 v=63
65672 On ch=1 n=g6 v=0
65782 On ch=1 n=a6 v=0
65792 On ch=1 n=f6 v=76
65800 On ch=1 n=g5 v=70
65868 On ch=1 n=g5 v=0
65876 On ch=1 n=g6 v=69
65882 On ch=1 n=f6 v=0
65982 On ch=1 n=g6 v=0
66008 On ch=1 n=e6 v=71
66020 On ch=1 n=c6 v=72
66096 On ch=1 n=e6 v=0
66128 On ch=1 n=f6 v=68
66218 On ch=1 n=c6 v=0
66234 On ch=1 n=d6 v=80
66242 On ch=1 n=f6 v=0
66328 On ch=1 n=e6 v=77
66338 On ch=1 n=d6 v=0
66430 On ch=1 n=e6 v=0
66438 On ch=1 n=c6 v=75
66538 On ch=1 n=c6 v=0
66544 On ch=1 n=d6 v=88
66652 On ch=1 n=b5 v=79
66672 On ch=1 n=d6 v=0
66754 On ch=1 n=c6 v=77
66774 On ch=1 n=b5 v=0
66858 On ch=1 n=c6 v=0
66864 On ch=1 n=a5 v=70
66868 On ch=1 n=c5 v=91
66888 On ch=1 n=e4 v=75
66948 On ch=1 n=a5 v=0
66978 On ch=1 n=b5 v=88
67100 On ch=1 n=g5 v=76
67112 On ch=1 n=b5 v=0
67172 On ch=1 n=a5 v=89
67204 On ch=1 n=g5 v=0
67286 On ch=1 n=a5 v=0
67290 On ch=1 n=g4 v=90
67294 On ch=1 n=f5 v=89
67398 On ch=1 n=f5 v=0
67400 On ch=1 n=g5 v=87
67508 On ch=1 n=e5 v=80
67528 On ch=1 n=g5 v=0
67574 On ch=1 n=c5 v=0
67594 On ch=1 n=f5 v=96
67624 On ch=1 n=e5 v=0
67724 On ch=1 n=e4 v=0
67726 On ch=1 n=f5 v=0
67728 On ch=1 n=d5 v=102
67740 On ch=1 n=a4 v=90
67748 On ch=1 n=f4 v=75
67790 On ch=1 n=g4 v=0
67992 On ch=1 n=d5 v=0
68014 On ch=1 n=e5 v=86
68100 On ch=1 n=f5 v=89
68120 On ch=1 n=e5 v=0
68176 On ch=1 n=f5 v=0
68202 On ch=1 n=g5 v=90
68318 On ch=1 n=a5 v=96
68342 On ch=1 n=g5 v=0
68406 On ch=1 n=b5 v=97
68452 On ch=1 n=a5 v=0
68472 On ch=1 n=f4 v=0
68488 On ch=1 n=a4 v=0
68506 On ch=1 n=c6 v=96
68544 On ch=1 n=b5 v=0
68594 On ch=1 n=c6 v=0
68620 On ch=1 n=b4 v=104
68624 On ch=1 n=d6 v=97
68624 On ch=1 n=g4 v=94
68628 On ch=1 n=f4 v=92
68750 On ch=1 n=e6 v=100
68768 On ch=1 n=d6 v=0
68852 On ch=1 n=f6 v=101
68870 On ch=1 n=e6 v=0
68944 On ch=1 n=f6 v=0
68944 On ch=1 n=g6 v=101
69060 On ch=1 n=a6 v=104
69090 On ch=1 n=g6 v=0
69152 On ch=1 n=b6 v=101
69174 On ch=1 n=a6 v=0
69250 On ch=1 n=c7 v=101
69268 On ch=1 n=b6 v=0
69296 On ch=1 n=g4 v=0
69350 On ch=1 n=b4 v=0
69362 On ch=1 n=d7 v=113
69394 On ch=1 n=c7 v=0
69478 On ch=1 n=f4 v=0
69482 On ch=1 n=d7 v=0
69502 On ch=1 n=e7 v=111
69502 On ch=1 n=g4 v=100
69508 On ch=1 n=c5 v=114
69520 On ch=1 n=e4 v=89
69608 On ch=1 n=e7 v=0
69622 On ch=1 n=g4 v=0
69626 On ch=1 n=c7 v=98
69722 On ch=1 n=c7 v=0
69734 On ch=1 n=b6 v=104
69862 On ch=1 n=c7 v=92
69868 On ch=1 n=b6 v=0
69980 On ch=1 n=b6 v=106
69994 On ch=1 n=f4 v=104
70026 On ch=1 n=e4 v=0
70034 On ch=1 n=c7 v=0
70094 On ch=1 n=a6 v=102
70152 On ch=1 n=b6 v=0
70214 On ch=1 n=g6 v=94
70228 On ch=1 n=a6 v=0
70290 On ch=1 n=g6 v=0
70296 On ch=1 n=f6 v=107
70404 On ch=1 n=f4 v=0
70428 On ch=1 n=e6 v=116
70432 On ch=1 n=g4 v=102
70492 On ch=1 n=f6 v=0
70748 On ch=1 n=e6 v=0
70846 On ch=1 n=c5 v=0
70874 On ch=1 n=b4 v=111
70896 On ch=1 n=d6 v=114
70940 On ch=1 n=e6 v=103
70966 On ch=1 n=d6 v=0
71000 On ch=1 n=e6 v=0
71016 On ch=1 n=d6 v=93
71118 On ch=1 n=c6 v=92
71122 On ch=1 n=d6 v=0
71158 On ch=1 n=b4 v=0
71162 On ch=1 n=g4 v=0
71186 On ch=1 n=d6 v=73
71232 On ch=1 n=c6 v=0
71322 On ch=1 n=c6 v=106
71348 On ch=1 n=d6 v=0
71386 On ch=1 n=c6 v=0
71438 On ch=1 n=c6 v=97
71556 On ch=1 n=b5 v=88
71600 On ch=1 n=c6 v=0
71652 On ch=1 n=a5 v=84
71696 On ch=1 n=b5 v=0
71748 On ch=1 n=g5 v=92
71790 On ch=1 n=a5 v=0
71858 On ch=1 n=a5 v=83
71864 On ch=1 n=g5 v=0
71982 On ch=1 n=f#5 v=105
71998 On ch=1 n=a5 v=0
72084 On ch=1 n=f#5 v=0
72088 On ch=1 n=a5 v=82
72202 On ch=1 n=g5 v=94
72222 On ch=1 n=a5 v=0
72294 On ch=1 n=a5 v=65
72302 On ch=1 n=g5 v=0
72422 On ch=1 n=f#5 v=97
72442 On ch=1 n=a5 v=0
72516 On ch=1 n=a5 v=65
72530 On ch=1 n=f#5 v=0
72628 On ch=1 n=d6 v=89
72628 On ch=1 n=b6 v=96
72642 On ch=1 n=g5 v=75
72660 On ch=1 n=a5 v=0
72688 On ch=1 n=d6 v=0
72708 On ch=1 n=b6 v=0
72722 On ch=1 n=a5 v=78
72734 On ch=1 n=g5 v=0
72830 On ch=1 n=a5 v=0
72834 On ch=1 n=f5 v=86
72856 On ch=1 n=g6 v=94
72918 On ch=1 n=g6 v=0
72920 On ch=1 n=f5 v=0
72948 On ch=1 n=g5 v=68
73066 On ch=1 n=g5 v=0
73078 On ch=1 n=c7 v=111
73080 On ch=1 n=e5 v=89
73084 On ch=1 n=e6 v=106
73162 On ch=1 n=e5 v=0
73206 On ch=1 n=c6 v=90
73332 On ch=1 n=b5 v=96
73348 On ch=1 n=c6 v=0
73410 On ch=1 n=a5 v=91
73460 On ch=1 n=b5 v=0
73512 On ch=1 n=g5 v=91
73562 On ch=1 n=a5 v=0
73620 On ch=1 n=a5 v=80
73630 On ch=1 n=g5 v=0
73716 On ch=1 n=e6 v=0
73734 On ch=1 n=c7 v=0
73742 On ch=1 n=f#5 v=106
73758 On ch=1 n=a5 v=0
73840 On ch=1 n=a5 v=84
73852 On ch=1 n=f#5 v=0
73966 On ch=1 n=g5 v=97
73978 On ch=1 n=a5 v=0
74064 On ch=1 n=a5 v=77
74076 On ch=1 n=g5 v=0
74158 On ch=1 n=f#5 v=105
74188 On ch=1 n=a5 v=0
74266 On ch=1 n=f#5 v=0
74270 On ch=1 n=a5 v=70
74380 On ch=1 n=g5 v=88
74404 On ch=1 n=a5 v=0
74416 On ch=1 n=d6 v=96
74418 On ch=1 n=b6 v=98
74476 On ch=1 n=a5 v=64
74490 On ch=1 n=g5 v=0
74492 On ch=1 n=b6 v=0
74614 On ch=1 n=f5 v=87
74632 On ch=1 n=a5 v=0
74634 On ch=1 n=g6 v=97
74700 On ch=1 n=g5 v=70
74710 On ch=1 n=f5 v=0
74756 On ch=1 n=d6 v=0
74776 On ch=1 n=g6 v=0
74820 On ch=1 n=g5 v=0
74828 On ch=1 n=e5 v=97
74852 On ch=1 n=c7 v=116
74854 On ch=1 n=e6 v=117
74932 On ch=1 n=e5 v=0
74946 On ch=1 n=f5 v=83
75042 On ch=1 n=d5 v=99
75048 On ch=1 n=f5 v=0
75064 On ch=1 n=c7 v=0
75130 On ch=1 n=d5 v=0
75150 On ch=1 n=e5 v=86
75212 On ch=1 n=e6 v=0
75264 On ch=1 n=c5 v=101
75268 On ch=1 n=e5 v=0
75306 On ch=1 n=g6 v=104
75346 On ch=1 n=c5 v=0
75348 On ch=1 n=a6 v=93
75388 On ch=1 n=d5 v=87
75394 On ch=1 n=g6 v=0
75446 On ch=1 n=g6 v=85
75462 On ch=1 n=a6 v=0
75482 On ch=1 n=b4 v=92
75488 On ch=1 n=d5 v=0
75512 On ch=1 n=f#6 v=98
75532 On ch=1 n=g6 v=0
75582 On ch=1 n=b4 v=0
75604 On ch=1 n=g6 v=82
75610 On ch=1 n=c5 v=61
75634 On ch=1 n=b4 v=51
75640 On ch=1 n=f#6 v=0
75706 On ch=1 n=b4 v=0
75710 On ch=1 n=a4 v=99
75712 On ch=1 n=c5 v=0
75712 On ch=1 n=g6 v=0
75734 On ch=1 n=c7 v=121
75816 On ch=1 n=a4 v=0
75830 On ch=1 n=b4 v=86
75922 On ch=1 n=g4 v=100
75926 On ch=1 n=b4 v=0
76026 On ch=1 n=a4 v=86
76040 On ch=1 n=g4 v=0
76134 On ch=1 n=f4 v=97
76144 On ch=1 n=a4 v=0
76166 On ch=1 n=e6 v=117
76224 On ch=1 n=f6 v=99
76254 On ch=1 n=f4 v=0
76256 On ch=1 n=a4 v=65
76260 On ch=1 n=g4 v=60
76332 On ch=1 n=f6 v=0
76348 On ch=1 n=a4 v=0
76350 On ch=1 n=g4 v=0
76358 On ch=1 n=e4 v=89
76384 On ch=1 n=d6 v=101
76388 On ch=1 n=e6 v=0
76454 On ch=1 n=e6 v=87
76480 On ch=1 n=f4 v=82
76490 On ch=1 n=d6 v=0
76494 On ch=1 n=e4 v=0
76534 On ch=1 n=e6 v=0
76578 On ch=1 n=c7 v=0
76588 On ch=1 n=d4 v=108
76590 On ch=1 n=f6 v=118
76596 On ch=1 n=f4 v=0
76702 On ch=1 n=e4 v=99
76706 On ch=1 n=d4 v=0
76796 On ch=1 n=c4 v=104
76806 On ch=1 n=e4 v=0
76906 On ch=1 n=c4 v=0
76906 On ch=1 n=d4 v=89
77006 On ch=1 n=d4 v=0
77008 On ch=1 n=b3 v=111
77048 On ch=1 n=d7 v=118
77120 On ch=1 n=c4 v=98
77126 On ch=1 n=b3 v=0
77222 On ch=1 n=a3 v=99
77234 On ch=1 n=c4 v=0
77332 On ch=1 n=b3 v=88
77334 On ch=1 n=a3 v=0
77346 On ch=1 n=e7 v=106
77398 On ch=1 n=d7 v=0
77448 On ch=1 n=f7 v=117
77450 On ch=1 n=g3 v=112
77454 On ch=1 n=b3 v=0
77508 On ch=1 n=e7 v=0
77560 On ch=1 n=a3 v=98
77578 On ch=1 n=g3 v=0
77656 On ch=1 n=f3 v=107
77670 On ch=1 n=a3 v=0
77686 On ch=1 n=f7 v=0
77718 On ch=1 n=f6 v=0
77756 On ch=1 n=g3 v=98
77774 On ch=1 n=f3 v=0
77866 On ch=1 n=g3 v=0
77884 On ch=1 n=e3 v=117
77904 On ch=1 n=b6 v=121
77916 On ch=1 n=g6 v=108
77974 On ch=1 n=c7 v=94
77990 On ch=1 n=e3 v=0
77996 On ch=1 n=f3 v=101
78002 On ch=1 n=b6 v=0
78096 On ch=1 n=b6 v=76
78100 On ch=1 n=d3 v=117
78114 On ch=1 n=c7 v=0
78130 On ch=1 n=f3 v=0
78144 On ch=1 n=a6 v=98
78172 On ch=1 n=b6 v=0
78182 On ch=1 n=g6 v=0
78202 On ch=1 n=f3 v=101
78220 On ch=1 n=b6 v=91
78250 On ch=1 n=d3 v=0
78270 On ch=1 n=a6 v=0
78300 On ch=1 n=b6 v=0
78352 On ch=1 n=e3 v=121
78378 On ch=1 n=c7 v=124
78390 On ch=1 n=g6 v=106
78406 On ch=1 n=f3 v=0
78434 Par ch=1 c=64 v=63
78438 Par ch=1 c=64 v=127
78446 On ch=1 n=g6 v=0
78494 On ch=1 n=e3 v=0
78500 On ch=1 n=b6 v=106
78504 On ch=1 n=g6 v=48
78550 On ch=1 n=c7 v=0
78554 On ch=1 n=g6 v=0
78606 On ch=1 n=c7 v=100
78644 On ch=1 n=b6 v=0
78680 On ch=1 n=g6 v=107
78724 On ch=1 n=c7 v=0
78762 Par ch=1 c=64 v=63
78768 Par ch=1 c=64 v=0
78774 On ch=1 n=g6 v=0
78816 On ch=1 n=f3 v=120
78818 On ch=1 n=b6 v=109
78820 On ch=1 n=d6 v=111
78924 On ch=1 n=a6 v=102
79018 On ch=1 n=b6 v=0
79036 On ch=1 n=f3 v=0
79046 On ch=1 n=g6 v=101
79112 On ch=1 n=a6 v=0
79128 On ch=1 n=f6 v=100
79178 On ch=1 n=g6 v=0
79196 On ch=1 n=d6 v=0
79202 On ch=1 n=f6 v=0
79240 On ch=1 n=g3 v=122
79262 On ch=1 n=e6 v=121
79268 On ch=1 n=c6 v=113
79336 On ch=1 n=g3 v=0
79374 On ch=1 n=f6 v=103
79488 On ch=1 n=e6 v=0
79488 On ch=1 n=g6 v=102
79552 On ch=1 n=f6 v=0
79578 On ch=1 n=e6 v=101
79612 On ch=1 n=c6 v=0
79640 On ch=1 n=g6 v=0
79684 On ch=1 n=g2 v=126
79692 On ch=1 n=d6 v=117
79692 On ch=1 n=b5 v=112
79718 Par ch=1 c=64 v=63
79728 Par ch=1 c=64 v=127
79746 On ch=1 n=e6 v=0
79766 On ch=1 n=g2 v=0
79796 On ch=1 n=e6 v=102
79884 On ch=1 n=d6 v=0
79914 On ch=1 n=f6 v=102
80008 On ch=1 n=e6 v=0
80008 Par ch=1 c=64 v=63
80016 Par ch=1 c=64 v=0
80040 On ch=1 n=d6 v=107
80094 On ch=1 n=b5 v=0
80104 On ch=1 n=f6 v=0
80218 On ch=1 n=d6 v=0
80218 On ch=1 n=c6 v=82
80232 On ch=1 n=c5 v=76
80346 Par ch=1 c=64 v=127
80384 On ch=1 n=c5 v=0
80384 On ch=1 n=d5 v=70
80484 On ch=1 n=d5 v=0
80490 On ch=1 n=e5 v=72
80566 On ch=1 n=c6 v=0
80586 On ch=1 n=d5 v=68
80598 On ch=1 n=e5 v=0
80692 On ch=1 n=c5 v=84
80702 On ch=1 n=e6 v=94
80708 On ch=1 n=c6 v=86
80726 On ch=1 n=d5 v=0
80784 On ch=1 n=c5 v=0
80820 On ch=1 n=b4 v=87
80864 On ch=1 n=c6 v=0
80890 On ch=1 n=e6 v=0
80914 On ch=1 n=a4 v=84
80926 On ch=1 n=b4 v=0
81024 On ch=1 n=g#4 v=95
81036 On ch=1 n=a4 v=0
81056 On ch=1 n=e6 v=92
81062 On ch=1 n=c6 v=83
81108 On ch=1 n=e6 v=0
81110 On ch=1 n=c6 v=0
81142 On ch=1 n=a4 v=76
81152 On ch=1 n=g#4 v=0
81156 On ch=1 n=c6 v=80
81156 On ch=1 n=e6 v=98
81164 Par ch=1 c=64 v=63
81178 Par ch=1 c=64 v=0
81204 Par ch=1 c=64 v=63
81238 Par ch=1 c=64 v=127
81268 On ch=1 n=a4 v=0
81274 On ch=1 n=b4 v=83
81384 On ch=1 n=c5 v=86
81390 On ch=1 n=b4 v=0
81462 On ch=1 n=c5 v=0
81476 On ch=1 n=c6 v=0
81476 On ch=1 n=b4 v=83
81510 On ch=1 n=e6 v=0
81550 On ch=1 n=a4 v=79
81576 On ch=1 n=b4 v=0
81624 On ch=1 n=e6 v=103
81628 On ch=1 n=c6 v=96
81644 On ch=1 n=g4 v=91
81670 On ch=1 n=a4 v=0
81780 On ch=1 n=f4 v=83
81790 On ch=1 n=g4 v=0
81824 On ch=1 n=c6 v=0
81840 On ch=1 n=e6 v=0
81900 On ch=1 n=e4 v=84
81912 On ch=1 n=f4 v=0
81968 On ch=1 n=e6 v=96
81980 On ch=1 n=c6 v=80
82030 On ch=1 n=c6 v=0
82040 On ch=1 n=f4 v=68
82044 On ch=1 n=e6 v=0
82064 On ch=1 n=e4 v=0
82064 Par ch=1 c=64 v=63
82072 Par ch=1 c=64 v=0
82080 On ch=1 n=d6 v=108
82084 On ch=1 n=c6 v=99
82178 On ch=1 n=g4 v=78
82198 Par ch=1 c=64 v=63
82212 Par ch=1 c=64 v=127
82238 On ch=1 n=f4 v=0
82308 On ch=1 n=a4 v=86
82310 On ch=1 n=g4 v=0
82386 On ch=1 n=g4 v=86
82412 On ch=1 n=c6 v=0
82418 On ch=1 n=a4 v=0
82450 On ch=1 n=d6 v=0
82508 On ch=1 n=f4 v=94
82528 On ch=1 n=d6 v=107
82530 On ch=1 n=g4 v=0
82534 On ch=1 n=c6 v=94
82650 On ch=1 n=d4 v=96
82660 On ch=1 n=f4 v=0
82722 On ch=1 n=c6 v=0
82730 On ch=1 n=d6 v=0
82760 On ch=1 n=e4 v=83
82808 On ch=1 n=d4 v=0
82846 On ch=1 n=f4 v=99
82864 On ch=1 n=d6 v=97
82868 On ch=1 n=c6 v=91
82918 On ch=1 n=e4 v=0
82930 On ch=1 n=c6 v=0
82930 On ch=1 n=d6 v=0
82954 On ch=1 n=g4 v=98
82960 On ch=1 n=f4 v=0
82972 On ch=1 n=d6 v=113
82984 On ch=1 n=b5 v=102
83004 Par ch=1 c=64 v=63
83012 Par ch=1 c=64 v=0
83104 On ch=1 n=f#4 v=98
83124 On ch=1 n=g4 v=0
83132 Par ch=1 c=64 v=63
83150 Par ch=1 c=64 v=127
83184 On ch=1 n=g4 v=82
83200 On ch=1 n=f#4 v=0
83270 On ch=1 n=b5 v=0
83286 On ch=1 n=f#4 v=109
83310 On ch=1 n=d6 v=0
83334 On ch=1 n=g4 v=0
83374 Par ch=1 c=64 v=63
83382 Par ch=1 c=64 v=0
83400 On ch=1 n=g4 v=92
83410 On ch=1 n=f#4 v=0
83414 On ch=1 n=g6 v=118
83416 On ch=1 n=b5 v=117
83448 Par ch=1 c=64 v=63
83468 Par ch=1 c=64 v=127
83526 On ch=1 n=f4 v=100
83562 On ch=1 n=g4 v=0
83632 On ch=1 n=b5 v=0
83632 On ch=1 n=e4 v=98
83654 On ch=1 n=g6 v=0
83664 On ch=1 n=f4 v=0
83732 On ch=1 n=d4 v=88
83744 On ch=1 n=g6 v=103
83752 On ch=1 n=b5 v=86
83782 On ch=1 n=e4 v=0
83792 On ch=1 n=b5 v=0
83822 Par ch=1 c=64 v=63
83824 On ch=1 n=g6 v=0
83834 Par ch=1 c=64 v=0
83856 On ch=1 n=c4 v=106
83860 On ch=1 n=c6 v=114
83860 On ch=1 n=e6 v=118
83870 On ch=1 n=d4 v=0
83884 Par ch=1 c=64 v=63
83908 Par ch=1 c=64 v=127
83976 On ch=1 n=d4 v=101
84030 On ch=1 n=c4 v=0
84032 On ch=1 n=e6 v=0
84054 On ch=1 n=c6 v=0
84100 On ch=1 n=e4 v=109
84108 On ch=1 n=d4 v=0
84210 On ch=1 n=d4 v=104
84240 On ch=1 n=e4 v=0
84308 On ch=1 n=e6 v=109
84310 On ch=1 n=c4 v=109
84310 Par ch=1 c=64 v=63
84312 On ch=1 n=c7 v=111
84316 On ch=1 n=c6 v=106
84328 Par ch=1 c=64 v=0
84348 On ch=1 n=d4 v=0
84354 Par ch=1 c=64 v=63
84386 Par ch=1 c=64 v=127
84418 On ch=1 n=b3 v=99
84434 On ch=1 n=c4 v=0
84454 On ch=1 n=e6 v=0
84476 On ch=1 n=c6 v=0
84500 On ch=1 n=c7 v=0
84522 On ch=1 n=a3 v=100
84548 On ch=1 n=b3 v=0
84638 On ch=1 n=g#3 v=118
84670 On ch=1 n=a3 v=0
84670 On ch=1 n=e6 v=111
84672 On ch=1 n=c6 v=111
84674 On ch=1 n=c7 v=108
84718 On ch=1 n=c6 v=0
84732 On ch=1 n=c7 v=0
84738 On ch=1 n=e6 v=0
84766 On ch=1 n=a3 v=117
84766 On ch=1 n=c7 v=100
84768 On ch=1 n=c6 v=101
84774 On ch=1 n=e6 v=108
84776 Par ch=1 c=64 v=63
84786 Par ch=1 c=64 v=0
84822 On ch=1 n=g#3 v=0
84830 Par ch=1 c=64 v=63
84854 Par ch=1 c=64 v=127
84874 On ch=1 n=b3 v=104
84910 On ch=1 n=a3 v=0
85008 On ch=1 n=c4 v=112
85038 On ch=1 n=b3 v=0
85062 On ch=1 n=c6 v=0
85070 On ch=1 n=c7 v=0
85092 On ch=1 n=e6 v=0
85108 On ch=1 n=b3 v=98
85114 On ch=1 n=c4 v=0
85196 On ch=1 n=a3 v=103
85228 On ch=1 n=e6 v=125
85230 On ch=1 n=c7 v=118
85230 On ch=1 n=c6 v=122
85232 On ch=1 n=b3 v=0
85240 Par ch=1 c=64 v=63
85286 Par ch=1 c=64 v=127
85304 On ch=1 n=g3 v=104
85350 On ch=1 n=a3 v=0
85418 On ch=1 n=f3 v=99
85440 On ch=1 n=c6 v=0
85454 On ch=1 n=c7 v=0
85458 On ch=1 n=e6 v=0
85474 On ch=1 n=g3 v=0
85548 On ch=1 n=e3 v=106
85552 On ch=1 n=c7 v=102
85552 On ch=1 n=e6 v=102
85558 On ch=1 n=c6 v=92
85594 On ch=1 n=c6 v=0
85598 On ch=1 n=f3 v=0
85612 On ch=1 n=e6 v=0
85628 On ch=1 n=c7 v=0
85658 On ch=1 n=a6 v=113
85658 On ch=1 n=c7 v=107
85662 On ch=1 n=d6 v=120
85672 On ch=1 n=f3 v=102
85684 Par ch=1 c=64 v=63
85692 Par ch=1 c=64 v=0
85748 Par ch=1 c=64 v=63
85752 On ch=1 n=e3 v=0
85768 Par ch=1 c=64 v=127
85790 On ch=1 n=g3 v=102
85868 On ch=1 n=f3 v=0
85898 On ch=1 n=a3 v=99
85926 On ch=1 n=g3 v=0
85974 On ch=1 n=c7 v=0
85980 On ch=1 n=d6 v=0
85996 On ch=1 n=g3 v=98
86014 On ch=1 n=a6 v=0
86024 On ch=1 n=a3 v=0
86112 On ch=1 n=f3 v=103
86134 Par ch=1 c=64 v=63
86136 On ch=1 n=a6 v=120
86138 On ch=1 n=d6 v=125
86140 On ch=1 n=c7 v=118
86142 On ch=1 n=g3 v=0
86172 Par ch=1 c=64 v=127
86212 On ch=1 n=e3 v=61
86278 On ch=1 n=f3 v=0
86280 On ch=1 n=d3 v=99
86298 On ch=1 n=d6 v=0
86314 On ch=1 n=a6 v=0
86318 On ch=1 n=e3 v=0
86318 On ch=1 n=c7 v=0
86414 On ch=1 n=e3 v=84
86464 On ch=1 n=d3 v=0
86490 On ch=1 n=c7 v=112
86492 On ch=1 n=f3 v=98
86498 On ch=1 n=d6 v=108
86518 On ch=1 n=a6 v=61
86546 On ch=1 n=d6 v=0
86554 On ch=1 n=e3 v=0
86560 On ch=1 n=c7 v=0
86566 On ch=1 n=a6 v=0
86582 On ch=1 n=g3 v=109
86606 On ch=1 n=f3 v=0
86606 On ch=1 n=d6 v=114
86608 On ch=1 n=b6 v=109
86612 On ch=1 n=g6 v=112
86614 Par ch=1 c=64 v=63
86624 Par ch=1 c=64 v=0
86670 Par ch=1 c=64 v=63
86694 Par ch=1 c=64 v=127
86716 On ch=1 n=f#3 v=110
86760 On ch=1 n=g3 v=0
86824 On ch=1 n=g3 v=96
86828 On ch=1 n=f#3 v=0
86914 On ch=1 n=f#3 v=112
86916 On ch=1 n=d6 v=0
86940 On ch=1 n=g6 v=0
86958 On ch=1 n=b6 v=0
86972 On ch=1 n=g3 v=0
87046 On ch=1 n=g3 v=109
87064 Par ch=1 c=64 v=63
87066 On ch=1 n=b6 v=122
87074 On ch=1 n=f#3 v=0
87074 On ch=1 n=d6 v=124
87076 On ch=1 n=g6 v=117
87104 Par ch=1 c=64 v=127
87130 On ch=1 n=d6 v=0
87132 On ch=1 n=g6 v=0
87162 On ch=1 n=b6 v=0
87162 On ch=1 n=f3 v=107
87190 On ch=1 n=g3 v=0
87282 On ch=1 n=e3 v=98
87318 On ch=1 n=f3 v=0
87376 On ch=1 n=d3 v=90
87430 On ch=1 n=e3 v=0
87434 On ch=1 n=b6 v=114
87436 On ch=1 n=d6 v=111
87440 On ch=1 n=g6 v=103
87472 On ch=1 n=g6 v=0
87478 On ch=1 n=d6 v=0
87500 On ch=1 n=b6 v=0
87514 Par ch=1 c=64 v=63
87516 On ch=1 n=c6 v=103
87516 On ch=1 n=c3 v=126
87518 On ch=1 n=g6 v=108
87520 On ch=1 n=c7 v=121
87522 On ch=1 n=e6 v=116
87530 Par ch=1 c=64 v=0
87578 On ch=1 n=d3 v=0
87638 On ch=1 n=g6 v=0
87640 On ch=1 n=e6 v=0
87644 On ch=1 n=c7 v=0
87692 On ch=1 n=c3 v=0
87692 On ch=1 n=c6 v=0
87970 On ch=1 n=c3 v=87
87994 On ch=1 n=c6 v=103
88004 On ch=1 n=e6 v=117
88012 On ch=1 n=g6 v=118
88014 On ch=1 n=c4 v=125
88040 Par ch=1 c=64 v=127
88068 On ch=1 n=c6 v=0
88076 On ch=1 n=e6 v=0
88094 On ch=1 n=c4 v=0
88096 On ch=1 n=g6 v=0
88098 On ch=1 n=c3 v=0
88136 Par ch=1 c=64 v=63
88154 Par ch=1 c=64 v=0
88486 On ch=1 n=g5 v=101
88500 On ch=1 n=c6 v=113
88506 On ch=1 n=c3 v=81
88508 On ch=1 n=e6 v=118
88510 Par ch=1 c=64 v=63
88510 Par ch=1 c=64 v=127
88514 On ch=1 n=c4 v=101
88552 On ch=1 n=g5 v=0
88560 On ch=1 n=c4 v=0
88564 On ch=1 n=c6 v=0
88570 On ch=1 n=c3 v=0
88594 On ch=1 n=e6 v=0
89048 Par ch=1 c=64 v=63
89058 Par ch=1 c=64 v=0
89592 On ch=1 n=f#6 v=103
89608 Par ch=1 c=64 v=63
89610 Par ch=1 c=64 v=127
89628 On ch=1 n=g5 v=86
89632 On ch=1 n=c5 v=90
89634 On ch=1 n=e5 v=85
89668 On ch=1 n=g6 v=97
89686 On ch=1 n=f#6 v=0
89902 On ch=1 n=g5 v=0
89906 On ch=1 n=e5 v=0
89928 On ch=1 n=c5 v=0
89992 On ch=1 n=g5 v=71
89994 On ch=1 n=e5 v=73
89996 On ch=1 n=c5 v=76
90110 On ch=1 n=g5 v=0
90114 On ch=1 n=e5 v=0
90124 On ch=1 n=c5 v=0
90152 On ch=1 n=g6 v=0
90224 On ch=1 n=g5 v=66
90232 On ch=1 n=e5 v=66
90236 On ch=1 n=c5 v=63
90240 On ch=1 n=g6 v=113
90322 On ch=1 n=g5 v=0
90324 On ch=1 n=e5 v=0
90326 On ch=1 n=c5 v=0
90374 On ch=1 n=g6 v=0
90470 On ch=1 n=g5 v=71
90486 On ch=1 n=e5 v=64
90488 On ch=1 n=c5 v=63
90572 On ch=1 n=g6 v=99
90592 On ch=1 n=e5 v=0
90594 On ch=1 n=g5 v=0
90606 On ch=1 n=c5 v=0
90628 On ch=1 n=g6 v=0
90676 On ch=1 n=g6 v=109
90708 On ch=1 n=g5 v=74
90714 On ch=1 n=e5 v=75
90718 On ch=1 n=c5 v=76
90776 On ch=1 n=g6 v=0
90790 On ch=1 n=e5 v=0
90794 On ch=1 n=g5 v=0
90810 On ch=1 n=c5 v=0
90928 On ch=1 n=c5 v=70
90934 On ch=1 n=g5 v=63
90946 On ch=1 n=e5 v=60
91008 On ch=1 n=e5 v=0
91024 On ch=1 n=g5 v=0
91030 On ch=1 n=c5 v=0
91154 On ch=1 n=e6 v=112
91162 On ch=1 n=g5 v=68
91174 On ch=1 n=c5 v=56
91180 On ch=1 n=e5 v=49
91222 On ch=1 n=e6 v=0
91228 On ch=1 n=c5 v=0
91230 On ch=1 n=e5 v=0
91236 On ch=1 n=g5 v=0
91360 On ch=1 n=c5 v=73
91362 On ch=1 n=g5 v=68
91366 On ch=1 n=e5 v=70
91466 On ch=1 n=c5 v=0
91476 On ch=1 n=g5 v=0
91484 On ch=1 n=e5 v=0
91488 On ch=1 n=c6 v=88
91526 On ch=1 n=c6 v=0
91578 On ch=1 n=c6 v=99
91610 On ch=1 n=g5 v=71
91614 Par ch=1 c=64 v=63
91614 On ch=1 n=c5 v=60
91618 On ch=1 n=f5 v=71
91622 Par ch=1 c=64 v=0
91624 On ch=1 n=d5 v=65
91704 Par ch=1 c=64 v=63
91732 Par ch=1 c=64 v=127
91736 On ch=1 n=g5 v=0
91738 On ch=1 n=f5 v=0
91746 On ch=1 n=d5 v=0
91758 On ch=1 n=c5 v=0
91844 On ch=1 n=b5 v=98
91852 On ch=1 n=g5 v=54
91860 On ch=1 n=f5 v=64
91862 On ch=1 n=d5 v=63
91864 On ch=1 n=c5 v=35
91902 On ch=1 n=c6 v=0
91946 On ch=1 n=b5 v=0
91966 On ch=1 n=g5 v=0
91968 On ch=1 n=f5 v=0
91976 On ch=1 n=c5 v=0
91976 On ch=1 n=d5 v=0
92064 On ch=1 n=b5 v=94
92072 On ch=1 n=g5 v=57
92080 On ch=1 n=f5 v=60
92092 On ch=1 n=d5 v=48
92108 On ch=1 n=c5 v=33
92166 Par ch=1 c=64 v=63
92170 On ch=1 n=c5 v=0
92188 On ch=1 n=f5 v=0
92188 Par ch=1 c=64 v=0
92190 On ch=1 n=d5 v=0
92194 On ch=1 n=g5 v=0
92214 Par ch=1 c=64 v=63
92272 Par ch=1 c=64 v=127
92282 On ch=1 n=g5 v=57
92286 On ch=1 n=f5 v=64
92296 On ch=1 n=d5 v=47
92314 On ch=1 n=c5 v=44
92376 On ch=1 n=c5 v=0
92386 On ch=1 n=g5 v=0
92388 On ch=1 n=f5 v=0
92398 On ch=1 n=d5 v=0
92468 On ch=1 n=b5 v=0
92518 On ch=1 n=g5 v=49
92520 On ch=1 n=d5 v=53
92524 On ch=1 n=f5 v=55
92538 On ch=1 n=c5 v=47
92600 On ch=1 n=c5 v=0
92608 On ch=1 n=f5 v=0
92612 On ch=1 n=g5 v=0
92620 On ch=1 n=d5 v=0
92728 On ch=1 n=g5 v=58
92742 On ch=1 n=d5 v=54
92742 On ch=1 n=f5 v=58
92758 On ch=1 n=c5 v=46
92832 On ch=1 n=c5 v=0
92834 On ch=1 n=f5 v=0
92848 On ch=1 n=d5 v=0
92848 On ch=1 n=g5 v=0
92958 On ch=1 n=f6 v=109
92970 On ch=1 n=g5 v=51
92976 On ch=1 n=d5 v=57
92978 On ch=1 n=f5 v=62
92990 On ch=1 n=c5 v=48
93026 Par ch=1 c=64 v=63
93056 On ch=1 n=c5 v=0
93070 On ch=1 n=f5 v=0
93072 On ch=1 n=g5 v=0
93082 On ch=1 n=d5 v=0
93086 Par ch=1 c=64 v=127
93192 On ch=1 n=g5 v=78
93196 On ch=1 n=d5 v=74
93196 On ch=1 n=f5 v=80
93222 On ch=1 n=c5 v=68
93264 On ch=1 n=f6 v=0
93310 On ch=1 n=c5 v=0
93310 On ch=1 n=d6 v=97
93316 On ch=1 n=g5 v=0
93344 On ch=1 n=d5 v=0
93346 On ch=1 n=f5 v=0
93382 Par ch=1 c=64 v=63
93390 Par ch=1 c=64 v=0
93404 On ch=1 n=d6 v=0
93412 On ch=1 n=g6 v=108
93436 On ch=1 n=g5 v=84
93446 On ch=1 n=e5 v=74
93456 On ch=1 n=c5 v=53
93460 Par ch=1 c=64 v=63
93478 Par ch=1 c=64 v=127
93552 On ch=1 n=e5 v=0
93562 On ch=1 n=c5 v=0
93562 On ch=1 n=g5 v=0
93666 On ch=1 n=g5 v=68
93676 On ch=1 n=c5 v=49
93678 On ch=1 n=e5 v=62
93778 On ch=1 n=e5 v=0
93788 On ch=1 n=g5 v=0
93790 On ch=1 n=c5 v=0
93790 On ch=1 n=g6 v=0
93898 On ch=1 n=g6 v=113
93908 On ch=1 n=e5 v=71
93910 On ch=1 n=g5 v=68
93924 On ch=1 n=c5 v=46
93990 On ch=1 n=c5 v=0
94006 On ch=1 n=e5 v=0
94008 On ch=1 n=g5 v=0
94010 On ch=1 n=g6 v=0
94126 On ch=1 n=e5 v=72
94130 On ch=1 n=g5 v=70
94134 On ch=1 n=c5 v=61
94226 On ch=1 n=g5 v=0
94232 On ch=1 n=e5 v=0
94234 On ch=1 n=c5 v=0
94234 On ch=1 n=g6 v=107
94288 On ch=1 n=g6 v=0
94324 On ch=1 n=g6 v=103
94366 On ch=1 n=g5 v=74
94366 On ch=1 n=e5 v=73
94372 On ch=1 n=c5 v=54
94386 On ch=1 n=g6 v=0
94446 On ch=1 n=c5 v=0
94454 On ch=1 n=e5 v=0
94462 On ch=1 n=g5 v=0
94582 On ch=1 n=g5 v=60
94586 On ch=1 n=a6 v=97
94588 On ch=1 n=e5 v=63
94594 On ch=1 n=c5 v=45
94658 On ch=1 n=c5 v=0
94668 On ch=1 n=g6 v=93
94670 On ch=1 n=e5 v=0
94676 On ch=1 n=g5 v=0
94688 On ch=1 n=a6 v=0
94784 On ch=1 n=g6 v=0
94784 On ch=1 n=f6 v=97
94794 On ch=1 n=g5 v=64
94800 On ch=1 n=e5 v=63
94876 On ch=1 n=f6 v=0
94880 On ch=1 n=e5 v=0
94884 On ch=1 n=g5 v=0
94888 On ch=1 n=e6 v=99
94974 On ch=1 n=c5 v=59
94976 On ch=1 n=e5 v=57
94984 On ch=1 n=g5 v=52
94988 On ch=1 n=d6 v=99
95014 On ch=1 n=e6 v=0
95062 On ch=1 n=e5 v=0
95076 On ch=1 n=c6 v=96
95078 On ch=1 n=d6 v=0
95086 On ch=1 n=g5 v=0
95098 On ch=1 n=c5 v=0
95148 On ch=1 n=c6 v=0
95198 On ch=1 n=c6 v=99
95208 On ch=1 n=g5 v=79
95214 On ch=1 n=e5 v=74
95214 On ch=1 n=c#5 v=80
95220 Par ch=1 c=64 v=63
95300 Par ch=1 c=64 v=127
95328 On ch=1 n=e5 v=0
95340 On ch=1 n=c#5 v=0
95354 On ch=1 n=g5 v=0
95412 On ch=1 n=c6 v=0
95452 On ch=1 n=a#5 v=92
95456 On ch=1 n=c#5 v=66
95462 On ch=1 n=g5 v=42
95482 On ch=1 n=e5 v=41
95554 On ch=1 n=a#5 v=0
95556 On ch=1 n=e5 v=0
95568 On ch=1 n=g5 v=0
95568 On ch=1 n=c#5 v=0
95666 On ch=1 n=a#5 v=90
95668 On ch=1 n=c#5 v=54
95668 On ch=1 n=g5 v=53
95680 On ch=1 n=e5 v=55
95704 Par ch=1 c=64 v=63
95718 Par ch=1 c=64 v=0
95782 On ch=1 n=e5 v=0
95788 On ch=1 n=c#5 v=0
95794 On ch=1 n=g5 v=0
95798 Par ch=1 c=64 v=63
95826 Par ch=1 c=64 v=127
95882 On ch=1 n=c#5 v=50
95886 On ch=1 n=g5 v=49
95902 On ch=1 n=e5 v=48
95974 On ch=1 n=e5 v=0
95982 On ch=1 n=c#5 v=0
95984 On ch=1 n=g5 v=0
95996 On ch=1 n=a#5 v=0
96120 On ch=1 n=g5 v=52
96122 On ch=1 n=c#5 v=48
96128 On ch=1 n=e5 v=49
96216 On ch=1 n=e5 v=0
96224 On ch=1 n=c#5 v=0
96228 On ch=1 n=g5 v=0
96362 On ch=1 n=g5 v=42
96364 On ch=1 n=c#5 v=42
96364 On ch=1 n=c#6 v=69
96380 On ch=1 n=e5 v=38
96490 On ch=1 n=e5 v=0
96500 On ch=1 n=c#5 v=0
96500 On ch=1 n=g5 v=0
96620 On ch=1 n=e6 v=81
96632 On ch=1 n=c#5 v=53
96634 On ch=1 n=g5 v=56
96648 On ch=1 n=e5 v=54
96656 On ch=1 n=c#6 v=0
96724 On ch=1 n=e5 v=0
96734 On ch=1 n=g5 v=0
96830 On ch=1 n=g6 v=98
96844 On ch=1 n=g5 v=60
96858 On ch=1 n=e5 v=46
96898 On ch=1 n=e6 v=0
96928 On ch=1 n=e5 v=0
96946 On ch=1 n=g5 v=0
97058 On ch=1 n=c5 v=76
97072 On ch=1 n=a#6 v=101
97072 On ch=1 n=g5 v=71
97076 On ch=1 n=e5 v=74
97106 On ch=1 n=c#5 v=0
97130 Par ch=1 c=64 v=63
97164 On ch=1 n=g6 v=0
97186 Par ch=1 c=64 v=127
97266 On ch=1 n=e5 v=0
97268 On ch=1 n=g5 v=0
97284 On ch=1 n=c5 v=0
97330 On ch=1 n=g6 v=84
97350 On ch=1 n=e5 v=68
97350 On ch=1 n=c5 v=49
97358 On ch=1 n=g5 v=58
97376 On ch=1 n=a#6 v=0
97442 On ch=1 n=c5 v=0
97446 On ch=1 n=g5 v=0
97452 On ch=1 n=e5 v=0
97538 On ch=1 n=e6 v=88
97552 On ch=1 n=g5 v=57
97558 On ch=1 n=e5 v=51
97562 On ch=1 n=c5 v=41
97572 On ch=1 n=g6 v=0
97624 On ch=1 n=c5 v=0
97634 On ch=1 n=e5 v=0
97636 On ch=1 n=g5 v=0
97724 On ch=1 n=c5 v=75
97748 On ch=1 n=g5 v=53
97750 On ch=1 n=e6 v=0
97752 On ch=1 n=c6 v=89
97770 On ch=1 n=e5 v=34
97820 On ch=1 n=e5 v=0
97840 On ch=1 n=g5 v=0
97934 On ch=1 n=c5 v=0
97940 Par ch=1 c=64 v=63
97948 On ch=1 n=c#5 v=80
97960 On ch=1 n=g5 v=60
97970 On ch=1 n=a#5 v=76
97974 On ch=1 n=e5 v=60
97998 On ch=1 n=c6 v=0
98010 Par ch=1 c=64 v=127
98100 On ch=1 n=e5 v=0
98128 On ch=1 n=g5 v=0
98128 On ch=1 n=c#5 v=0
98176 On ch=1 n=c#6 v=86
98204 On ch=1 n=a#5 v=0
98204 On ch=1 n=g5 v=63
98206 On ch=1 n=c#5 v=65
98214 On ch=1 n=e5 v=72
98308 On ch=1 n=e5 v=0
98318 On ch=1 n=c#5 v=0
98318 On ch=1 n=g5 v=0
98352 On ch=1 n=c#6 v=0
98396 On ch=1 n=c#5 v=70
98398 On ch=1 n=e6 v=89
98404 On ch=1 n=g5 v=68
98416 On ch=1 n=e5 v=76
98508 On ch=1 n=e5 v=0
98510 On ch=1 n=g5 v=0
98546 On ch=1 n=c#5 v=0
98610 On ch=1 n=c#5 v=84
98612 On ch=1 n=g6 v=96
98622 On ch=1 n=e6 v=0
98636 On ch=1 n=g5 v=82
98640 On ch=1 n=e5 v=84
98770 On ch=1 n=g5 v=0
98772 On ch=1 n=e5 v=0
98856 On ch=1 n=e5 v=86
98856 On ch=1 n=g5 v=88
98862 On ch=1 n=a#6 v=107
98864 On ch=1 n=c5 v=91
98886 Par ch=1 c=64 v=63
98904 Par ch=1 c=64 v=0
98918 On ch=1 n=c#5 v=0
98924 On ch=1 n=g6 v=0
98946 Par ch=1 c=64 v=63
98982 Par ch=1 c=64 v=127
99006 On ch=1 n=e5 v=0
99010 On ch=1 n=g5 v=0
99040 On ch=1 n=c5 v=0
99110 On ch=1 n=g5 v=83
99112 On ch=1 n=c5 v=71
99116 On ch=1 n=g6 v=87
99122 On ch=1 n=e5 v=73
99128 On ch=1 n=a#6 v=0
99188 On ch=1 n=e5 v=0
99210 On ch=1 n=g5 v=0
99224 On ch=1 n=c5 v=0
99330 On ch=1 n=g5 v=53
99336 On ch=1 n=e6 v=83
99340 On ch=1 n=c5 v=38
99342 On ch=1 n=e5 v=47
99352 On ch=1 n=g6 v=0
99410 On ch=1 n=e5 v=0
99410 On ch=1 n=c5 v=0
99418 On ch=1 n=g5 v=0
99518 On ch=1 n=c5 v=80
99528 On ch=1 n=e6 v=0
99534 On ch=1 n=g5 v=58
99534 On ch=1 n=c6 v=93
99540 On ch=1 n=e5 v=48
99612 On ch=1 n=e5 v=0
99630 On ch=1 n=g5 v=0
99748 On ch=1 n=a#5 v=93
99750 Par ch=1 c=64 v=63
99756 On ch=1 n=c5 v=0
99756 On ch=1 n=c#5 v=76
99764 On ch=1 n=g5 v=57
99768 Par ch=1 c=64 v=0
99774 On ch=1 n=c6 v=0
99780 On ch=1 n=e5 v=50
99802 Par ch=1 c=64 v=63
99848 Par ch=1 c=64 v=127
99890 On ch=1 n=e5 v=0
99916 On ch=1 n=g5 v=0
99918 On ch=1 n=c#5 v=0
99972 On ch=1 n=c#6 v=89
99992 On ch=1 n=c#5 v=72
99994 On ch=1 n=a#5 v=0
99998 On ch=1 n=g5 v=63
100002 On ch=1 n=e5 v=76
100114 On ch=1 n=c#6 v=0
100126 On ch=1 n=e5 v=0
100128 On ch=1 n=g5 v=0
100138 On ch=1 n=c#5 v=0
100204 On ch=1 n=e6 v=87
100210 On ch=1 n=c#5 v=88
100210 On ch=1 n=g5 v=88
100216 On ch=1 n=e5 v=90
100316 On ch=1 n=g5 v=0
100320 On ch=1 n=e5 v=0
100340 On ch=1 n=e6 v=0
100350 On ch=1 n=c#5 v=0
100394 On ch=1 n=g6 v=108
100402 On ch=1 n=c#5 v=99
100416 On ch=1 n=g5 v=81
100422 On ch=1 n=e5 v=88
100526 On ch=1 n=g5 v=0
100538 On ch=1 n=e5 v=0
100598 Par ch=1 c=64 v=63
100610 On ch=1 n=g6 v=0
100612 Par ch=1 c=64 v=0
100614 On ch=1 n=c5 v=94
100618 On ch=1 n=g5 v=96
100624 On ch=1 n=e5 v=90
100632 On ch=1 n=a#6 v=103
100654 Par ch=1 c=64 v=63
100676 On ch=1 n=c#5 v=0
100684 Par ch=1 c=64 v=127
100744 On ch=1 n=g6 v=90
100762 On ch=1 n=a#6 v=0
100858 On ch=1 n=e6 v=94
100884 On ch=1 n=g6 v=0
100952 On ch=1 n=c6 v=84
100962 On ch=1 n=e6 v=0
101034 On ch=1 n=c6 v=0
101052 On ch=1 n=g6 v=103
101060 On ch=1 n=g5 v=0
101072 On ch=1 n=e5 v=0
101114 On ch=1 n=c5 v=0
101128 On ch=1 n=e6 v=108
101166 On ch=1 n=g6 v=0
101234 On ch=1 n=e6 v=0
101236 On ch=1 n=c6 v=96
101342 On ch=1 n=a#5 v=101
101348 On ch=1 n=c6 v=0
101404 On ch=1 n=a#5 v=0
101464 On ch=1 n=e6 v=113
101564 On ch=1 n=c6 v=97
101616 On ch=1 n=e6 v=0
101670 On ch=1 n=a#5 v=105
101702 On ch=1 n=c6 v=0
101766 On ch=1 n=a#5 v=0
101766 On ch=1 n=g5 v=82
101844 On ch=1 n=g5 v=0
101874 On ch=1 n=c6 v=100
101972 On ch=1 n=a#5 v=108
102016 On ch=1 n=c6 v=0
102092 On ch=1 n=g5 v=102
102116 On ch=1 n=a#5 v=0
102184 On ch=1 n=e5 v=96
102198 On ch=1 n=g5 v=0
102284 On ch=1 n=e5 v=0
102288 On ch=1 n=c3 v=77
102288 On ch=1 n=g3 v=101
102288 On ch=1 n=a#3 v=112
102296 On ch=1 n=e3 v=91
102310 On ch=1 n=a#5 v=109
102404 Par ch=1 c=64 v=63
102410 On ch=1 n=g5 v=94
102412 Par ch=1 c=64 v=0
102442 On ch=1 n=a#5 v=0
102518 On ch=1 n=e5 v=99
102560 On ch=1 n=g5 v=0
102620 On ch=1 n=c5 v=96
102634 On ch=1 n=e5 v=0
102720 On ch=1 n=c5 v=0
102732 On ch=1 n=g5 v=99
102816 On ch=1 n=e5 v=101
102860 On ch=1 n=g5 v=0
102864 Par ch=1 c=64 v=63
102866 Par ch=1 c=64 v=127
102926 On ch=1 n=c5 v=102
102944 On ch=1 n=e5 v=0
103016 On ch=1 n=c5 v=0
103042 On ch=1 n=b4 v=89
103134 On ch=1 n=a#4 v=105
103146 On ch=1 n=b4 v=0
103194 On ch=1 n=a#4 v=0
103252 On ch=1 n=g5 v=92
103358 On ch=1 n=f#5 v=107
103372 On ch=1 n=g5 v=0
103468 On ch=1 n=g5 v=102
103506 On ch=1 n=f#5 v=0
103574 Par ch=1 c=64 v=127
103584 Par ch=1 c=64 v=63
103592 Par ch=1 c=64 v=0
103608 On ch=1 n=a5 v=107
103644 On ch=1 n=g5 v=0
103716 On ch=1 n=g5 v=93
103740 Par ch=1 c=64 v=63
103750 Par ch=1 c=64 v=127
103788 On ch=1 n=a5 v=0
103842 On ch=1 n=g3 v=0
103854 On ch=1 n=e3 v=0
103856 On ch=1 n=a#3 v=0
103864 On ch=1 n=c3 v=0
103864 On ch=1 n=f#5 v=110
103916 On ch=1 n=g5 v=0
103980 On ch=1 n=e5 v=101
104042 On ch=1 n=f#5 v=0
104104 On ch=1 n=e5 v=0
104146 Par ch=1 c=64 v=63
104152 Par ch=1 c=64 v=0
104162 On ch=1 n=b2 v=120
104164 On ch=1 n=b5 v=116
104172 On ch=1 n=d#5 v=112
104232 Par ch=1 c=64 v=63
104240 Par ch=1 c=64 v=127
104296 On ch=1 n=b2 v=0
104348 On ch=1 n=b3 v=86
104470 On ch=1 n=d#5 v=0
104472 On ch=1 n=b5 v=0
104474 On ch=1 n=b3 v=0
104476 On ch=1 n=a#3 v=93
104564 On ch=1 n=b3 v=75
104566 On ch=1 n=a#3 v=0
104688 On ch=1 n=b5 v=120
104694 On ch=1 n=d#5 v=118
104698 On ch=1 n=a#3 v=88
104724 On ch=1 n=b3 v=0
104744 On ch=1 n=d#5 v=0
104766 On ch=1 n=b5 v=0
104780 On ch=1 n=a#3 v=0
104790 On ch=1 n=b3 v=70
104900 On ch=1 n=a#3 v=89
104914 On ch=1 n=b3 v=0
105002 On ch=1 n=a#3 v=0
105018 On ch=1 n=b3 v=90
105036 On ch=1 n=b5 v=113
105044 On ch=1 n=d#5 v=108
105080 On ch=1 n=d#5 v=0
105094 On ch=1 n=b5 v=0
105104 Par ch=1 c=64 v=63
105112 Par ch=1 c=64 v=0
105118 On ch=1 n=b3 v=0
105138 On ch=1 n=b5 v=109
105144 On ch=1 n=d#5 v=109
105148 On ch=1 n=b2 v=106
105188 Par ch=1 c=64 v=63
105202 Par ch=1 c=64 v=127
105228 On ch=1 n=b2 v=0
105254 On ch=1 n=b3 v=83
105388 On ch=1 n=a#3 v=94
105392 On ch=1 n=b3 v=0
105414 On ch=1 n=d#5 v=0
105422 On ch=1 n=b5 v=0
105456 On ch=1 n=a#3 v=0
105498 On ch=1 n=b3 v=75
105608 On ch=1 n=b5 v=116
105614 On ch=1 n=d#5 v=109
105616 On ch=1 n=a#3 v=85
105634 On ch=1 n=b3 v=0
105692 On ch=1 n=a#3 v=0
105702 On ch=1 n=b3 v=76
105708 On ch=1 n=d#5 v=0
105816 On ch=1 n=a#3 v=94
105830 On ch=1 n=b3 v=0
105902 On ch=1 n=a#3 v=0
105922 On ch=1 n=b3 v=88
106032 On ch=1 n=b3 v=0
106032 Par ch=1 c=64 v=63
106042 Par ch=1 c=64 v=0
106064 On ch=1 n=c6 v=112
106066 On ch=1 n=b2 v=104
106074 On ch=1 n=e5 v=106
106110 Par ch=1 c=64 v=63
106116 On ch=1 n=b5 v=0
106132 Par ch=1 c=64 v=127
106144 On ch=1 n=b2 v=0
106160 On ch=1 n=b3 v=87
106310 On ch=1 n=a#3 v=78
106322 On ch=1 n=b3 v=0
106394 On ch=1 n=a#3 v=0
106418 On ch=1 n=b3 v=60
106460 On ch=1 n=b5 v=98
106534 On ch=1 n=e5 v=0
106534 On ch=1 n=a#3 v=83
106544 On ch=1 n=a5 v=102
106548 On ch=1 n=b3 v=0
106614 On ch=1 n=a#3 v=0
106626 On ch=1 n=b3 v=70
106650 On ch=1 n=b5 v=0
106726 On ch=1 n=a#3 v=92
106750 On ch=1 n=b3 v=0
106758 On ch=1 n=a5 v=0
106816 On ch=1 n=a#3 v=0
106824 On ch=1 n=b3 v=74
106874 On ch=1 n=g#5 v=101
106926 On ch=1 n=c6 v=0
106930 On ch=1 n=b3 v=0
106946 On ch=1 n=g#5 v=0
106960 On ch=1 n=b2 v=111
106972 Par ch=1 c=64 v=63
106972 On ch=1 n=a5 v=98
106976 On ch=1 n=f#5 v=106
107032 Par ch=1 c=64 v=127
107038 On ch=1 n=b2 v=0
107040 On ch=1 n=b3 v=100
107192 On ch=1 n=a#3 v=88
107196 On ch=1 n=b3 v=0
107268 On ch=1 n=f#5 v=0
107286 On ch=1 n=a#3 v=0
107300 On ch=1 n=b3 v=68
107344 On ch=1 n=d#6 v=105
107406 On ch=1 n=a5 v=0
107422 On ch=1 n=a#3 v=88
107434 On ch=1 n=b3 v=0
107444 On ch=1 n=e6 v=107
107482 On ch=1 n=d#6 v=0
107504 On ch=1 n=a#3 v=0
107510 On ch=1 n=b3 v=63
107522 On ch=1 n=e6 v=0
107616 On ch=1 n=a#3 v=85
107634 On ch=1 n=b3 v=0
107704 On ch=1 n=a#3 v=0
107718 On ch=1 n=b3 v=61
107780 On ch=1 n=c6 v=78
107826 On ch=1 n=b3 v=0
107852 On ch=1 n=c6 v=0
107868 On ch=1 n=b2 v=106
107876 On ch=1 n=b5 v=89
107882 On ch=1 n=d#5 v=107
107920 Par ch=1 c=64 v=63
107936 Par ch=1 c=64 v=0
107954 Par ch=1 c=64 v=63
107966 On ch=1 n=b2 v=0
107976 On ch=1 n=b3 v=96
107986 Par ch=1 c=64 v=127
108106 On ch=1 n=d#5 v=0
108140 On ch=1 n=a#3 v=76
108154 On ch=1 n=b3 v=0
108238 On ch=1 n=b3 v=63
108244 On ch=1 n=a5 v=82
108246 On ch=1 n=a#3 v=0
108330 On ch=1 n=g5 v=100
108340 On ch=1 n=a#3 v=85
108362 On ch=1 n=b3 v=0
108388 On ch=1 n=a5 v=0
108424 On ch=1 n=a#3 v=0
108432 On ch=1 n=b3 v=65
108538 On ch=1 n=a#3 v=88
108562 On ch=1 n=b3 v=0
108632 On ch=1 n=a#3 v=0
108638 On ch=1 n=b3 v=73
108658 On ch=1 n=f#5 v=97
108678 On ch=1 n=g5 v=0
108724 On ch=1 n=f#5 v=0
108746 Par ch=1 c=64 v=63
108748 On ch=1 n=b3 v=0
108750 On ch=1 n=b5 v=0
108758 Par ch=1 c=64 v=0
108764 On ch=1 n=g5 v=101
108772 On ch=1 n=b2 v=113
108782 On ch=1 n=e5 v=101
108810 Par ch=1 c=64 v=63
108826 Par ch=1 c=64 v=127
108842 On ch=1 n=b2 v=0
108856 On ch=1 n=b3 v=88
108866 On ch=1 n=g5 v=0
108992 On ch=1 n=b3 v=0
108992 On ch=1 n=a#3 v=79
109080 On ch=1 n=a#3 v=0
109088 On ch=1 n=b3 v=66
109138 On ch=1 n=e5 v=0
109148 On ch=1 n=d#6 v=103
109196 On ch=1 n=a#3 v=84
109216 On ch=1 n=b3 v=0
109240 On ch=1 n=e6 v=106
109260 On ch=1 n=d#6 v=0
109292 On ch=1 n=b3 v=65
109294 On ch=1 n=a#3 v=0
109316 On ch=1 n=e6 v=0
109394 On ch=1 n=a#3 v=86
109420 On ch=1 n=b3 v=0
109486 On ch=1 n=a#3 v=0
109498 On ch=1 n=b3 v=65
109578 On ch=1 n=b5 v=101
109640 On ch=1 n=b3 v=0
109668 On ch=1 n=a5 v=102
109672 On ch=1 n=b2 v=109
109674 On ch=1 n=c#5 v=105
109700 Par ch=1 c=64 v=63
109716 Par ch=1 c=64 v=0
109730 On ch=1 n=b5 v=0
109752 Par ch=1 c=64 v=63
109756 On ch=1 n=b2 v=0
109772 On ch=1 n=c#5 v=0
109780 Par ch=1 c=64 v=127
109786 On ch=1 n=b3 v=86
109928 On ch=1 n=a#3 v=83
109936 On ch=1 n=b3 v=0
110018 On ch=1 n=a#3 v=0
110022 On ch=1 n=g5 v=91
110036 On ch=1 n=b3 v=60
110122 On ch=1 n=f#5 v=114
110138 On ch=1 n=a#3 v=85
110160 On ch=1 n=b3 v=0
110182 On ch=1 n=g5 v=0
110214 On ch=1 n=a#3 v=0
110230 On ch=1 n=b3 v=64
110326 On ch=1 n=a#3 v=87
110356 On ch=1 n=b3 v=0
110424 On ch=1 n=a#3 v=0
110434 On ch=1 n=b3 v=76
110436 On ch=1 n=e5 v=73
110458 On ch=1 n=f#5 v=0
110480 On ch=1 n=e5 v=0
110538 On ch=1 n=b3 v=0
110540 Par ch=1 c=64 v=63
110558 On ch=1 n=f#5 v=114
110566 On ch=1 n=d#5 v=107
110570 On ch=1 n=b2 v=104
110586 On ch=1 n=a5 v=0
110598 Par ch=1 c=64 v=127
110634 On ch=1 n=b2 v=0
110654 On ch=1 n=b3 v=89
110726 On ch=1 n=d#5 v=0
110770 On ch=1 n=b3 v=0
110804 On ch=1 n=a#3 v=66
110858 On ch=1 n=a#3 v=0
110872 On ch=1 n=f#5 v=0
110898 On ch=1 n=b3 v=52
110930 On ch=1 n=b5 v=90
111010 On ch=1 n=a#3 v=77
111028 On ch=1 n=b3 v=0
111030 On ch=1 n=c6 v=102
111050 On ch=1 n=b5 v=0
111094 On ch=1 n=a#3 v=0
111118 On ch=1 n=b3 v=50
111246 On ch=1 n=a#3 v=62
111256 On ch=1 n=b3 v=0
111372 On ch=1 n=a#3 v=0
111390 On ch=1 n=b3 v=51
111398 On ch=1 n=a5 v=77
111406 On ch=1 n=c6 v=0
111498 Par ch=1 c=64 v=63
111508 Par ch=1 c=64 v=0
111516 On ch=1 n=a5 v=0
111524 On ch=1 n=g#5 v=87
111536 On ch=1 n=e5 v=52
111546 On ch=1 n=e3 v=71
111548 On ch=1 n=b3 v=0
111616 Par ch=1 c=64 v=63
111636 Par ch=1 c=64 v=127
111682 On ch=1 n=e3 v=0
111706 On ch=1 n=e5 v=0
111730 On ch=1 n=g#5 v=0
111738 On ch=1 n=e4 v=59
111840 On ch=1 n=d#4 v=59
111842 On ch=1 n=e4 v=0
111858 On ch=1 n=d#4 v=0
111952 On ch=1 n=e4 v=44
112068 On ch=1 n=e6 v=78
112086 On ch=1 n=d#4 v=58
112088 On ch=1 n=e4 v=0
112094 On ch=1 n=g#5 v=57
112136 On ch=1 n=d#4 v=0
112162 On ch=1 n=g#5 v=0
112168 On ch=1 n=e6 v=0
112186 On ch=1 n=e4 v=57
112280 On ch=1 n=d#4 v=76
112298 On ch=1 n=e4 v=0
112354 On ch=1 n=d#4 v=0
112382 On ch=1 n=e4 v=68
112388 On ch=1 n=e6 v=70
112402 On ch=1 n=g#5 v=49
112448 On ch=1 n=g#5 v=0
112476 On ch=1 n=e4 v=0
112506 On ch=1 n=g#5 v=56
112508 On ch=1 n=e3 v=68
112538 Par ch=1 c=64 v=63
112580 On ch=1 n=e3 v=0
112606 Par ch=1 c=64 v=127
112628 On ch=1 n=e4 v=45
112748 On ch=1 n=d#4 v=68
112758 On ch=1 n=e4 v=0
112808 On ch=1 n=g#5 v=0
112810 On ch=1 n=d#4 v=0
112820 On ch=1 n=e6 v=0
112850 On ch=1 n=e4 v=40
112972 On ch=1 n=d#4 v=52
112980 On ch=1 n=e4 v=0
112994 On ch=1 n=e6 v=87
113002 On ch=1 n=g#5 v=75
113026 On ch=1 n=d#4 v=0
113046 On ch=1 n=e4 v=57
113122 On ch=1 n=g#5 v=0
113182 On ch=1 n=d#4 v=74
113210 On ch=1 n=e4 v=0
113272 On ch=1 n=e4 v=72
113280 On ch=1 n=d#4 v=0
113384 On ch=1 n=e4 v=0
113420 On ch=1 n=e3 v=77
113430 Par ch=1 c=64 v=63
113432 On ch=1 n=f6 v=82
113436 On ch=1 n=a5 v=58
113506 On ch=1 n=e3 v=0
113510 Par ch=1 c=64 v=127
113518 On ch=1 n=e6 v=0
113534 On ch=1 n=e4 v=57
113688 On ch=1 n=d#4 v=48
113700 On ch=1 n=e4 v=0
113766 On ch=1 n=d#4 v=0
113784 On ch=1 n=e4 v=31
113808 On ch=1 n=e6 v=70
113910 On ch=1 n=d#4 v=52
113918 On ch=1 n=d6 v=77
113920 On ch=1 n=e4 v=0
113964 On ch=1 n=d#4 v=0
114004 On ch=1 n=e6 v=0
114006 On ch=1 n=e4 v=36
114090 On ch=1 n=a5 v=0
114100 On ch=1 n=d#4 v=62
114122 On ch=1 n=e4 v=0
114170 On ch=1 n=d6 v=0
114188 On ch=1 n=d#4 v=0
114204 On ch=1 n=e4 v=46
114224 On ch=1 n=c#6 v=63
114274 On ch=1 n=f6 v=0
114300 On ch=1 n=c#6 v=0
114302 On ch=1 n=e4 v=0
114322 On ch=1 n=e3 v=81
114332 On ch=1 n=d6 v=79
114346 On ch=1 n=b5 v=66
114348 Par ch=1 c=64 v=63
114402 On ch=1 n=e3 v=0
114418 Par ch=1 c=64 v=127
114434 On ch=1 n=e4 v=56
114564 On ch=1 n=d#4 v=59
114580 On ch=1 n=e4 v=0
114640 On ch=1 n=d#4 v=0
114656 On ch=1 n=g#6 v=78
114666 On ch=1 n=e4 v=39
114682 On ch=1 n=b5 v=0
114764 On ch=1 n=a6 v=73
114788 On ch=1 n=d#4 v=66
114790 On ch=1 n=d6 v=0
114798 On ch=1 n=e4 v=0
114806 On ch=1 n=g#6 v=0
114834 On ch=1 n=a6 v=0
114878 On ch=1 n=d#4 v=0
114894 On ch=1 n=e4 v=37
114994 On ch=1 n=d#4 v=59
115014 On ch=1 n=e4 v=0
115064 On ch=1 n=d#4 v=0
115082 On ch=1 n=f6 v=72
115096 On ch=1 n=e4 v=50
115188 On ch=1 n=f6 v=0
115200 On ch=1 n=e4 v=0
115210 On ch=1 n=e6 v=78
115216 On ch=1 n=g#5 v=76
115226 On ch=1 n=e3 v=80
115266 Par ch=1 c=64 v=63
115290 Par ch=1 c=64 v=0
115308 Par ch=1 c=64 v=63
115314 On ch=1 n=e3 v=0
115340 On ch=1 n=e4 v=59
115342 Par ch=1 c=64 v=127
115496 On ch=1 n=g#5 v=0
115502 On ch=1 n=d#4 v=57
115512 On ch=1 n=e4 v=0
115602 On ch=1 n=d6 v=57
115604 On ch=1 n=d#4 v=0
115610 On ch=1 n=e4 v=39
115698 On ch=1 n=c6 v=83
115714 On ch=1 n=d#4 v=62
115742 On ch=1 n=e4 v=0
115758 On ch=1 n=d6 v=0
115824 On ch=1 n=d#4 v=0
115834 On ch=1 n=e4 v=45
115902 On ch=1 n=d#4 v=63
115944 On ch=1 n=e4 v=0
116002 On ch=1 n=d#4 v=0
116004 On ch=1 n=e4 v=71
116014 On ch=1 n=b5 v=61
116042 On ch=1 n=c6 v=0
116080 On ch=1 n=b5 v=0
116110 On ch=1 n=e4 v=0
116112 On ch=1 n=e6 v=0
116124 Par ch=1 c=64 v=63
116126 On ch=1 n=c6 v=86
116128 On ch=1 n=e3 v=83
116140 On ch=1 n=a5 v=80
116192 Par ch=1 c=64 v=127
116204 On ch=1 n=e3 v=0
116216 On ch=1 n=c6 v=0
116216 On ch=1 n=e4 v=59
116352 On ch=1 n=d#4 v=65
116376 On ch=1 n=e4 v=0
116432 On ch=1 n=d#4 v=0
116444 On ch=1 n=e4 v=56
116458 On ch=1 n=a5 v=0
116470 On ch=1 n=g#6 v=81
116568 On ch=1 n=a6 v=66
116572 On ch=1 n=d#4 v=72
116580 On ch=1 n=g#6 v=0
116600 On ch=1 n=e4 v=0
116614 On ch=1 n=a6 v=0
116654 On ch=1 n=d#4 v=0
116672 On ch=1 n=e4 v=60
116748 On ch=1 n=d#4 v=75
116790 On ch=1 n=e4 v=0
116844 On ch=1 n=d#4 v=0
116856 On ch=1 n=e4 v=64
116912 On ch=1 n=e6 v=82
116966 On ch=1 n=e4 v=0
116988 On ch=1 n=e6 v=0
117006 On ch=1 n=f#5 v=78
117012 On ch=1 n=d6 v=81
117014 On ch=1 n=e3 v=82
117034 Par ch=1 c=64 v=63
117050 Par ch=1 c=64 v=0
117080 Par ch=1 c=64 v=63
117108 Par ch=1 c=64 v=127
117116 On ch=1 n=e3 v=0
117124 On ch=1 n=f#5 v=0
117126 On ch=1 n=e4 v=77
117270 On ch=1 n=d#4 v=69
117296 On ch=1 n=e4 v=0
117354 On ch=1 n=d#4 v=0
117364 On ch=1 n=e4 v=56
117364 On ch=1 n=c6 v=83
117468 On ch=1 n=d#4 v=69
117470 On ch=1 n=b5 v=89
117496 On ch=1 n=e4 v=0
117540 On ch=1 n=c6 v=0
117556 On ch=1 n=d#4 v=0
117558 On ch=1 n=e4 v=54
117682 On ch=1 n=d#4 v=73
117716 On ch=1 n=e4 v=0
117782 On ch=1 n=d#4 v=0
117782 On ch=1 n=e4 v=64
117794 On ch=1 n=a5 v=70
117844 On ch=1 n=b5 v=0
117856 On ch=1 n=a5 v=0
117876 On ch=1 n=e4 v=0
117894 Par ch=1 c=64 v=63
117898 On ch=1 n=d6 v=0
117902 On ch=1 n=e3 v=94
117910 Par ch=1 c=64 v=0
117912 On ch=1 n=b5 v=84
117918 On ch=1 n=g#5 v=93
117932 Par ch=1 c=64 v=63
117958 Par ch=1 c=64 v=127
117976 On ch=1 n=e3 v=0
118002 On ch=1 n=g#5 v=0
118034 On ch=1 n=e4 v=67
118050 On ch=1 n=b5 v=0
118138 On ch=1 n=d#4 v=72
118154 On ch=1 n=e4 v=0
118218 On ch=1 n=d#4 v=0
118228 On ch=1 n=e4 v=53
118246 On ch=1 n=e6 v=89
118336 On ch=1 n=f6 v=98
118346 On ch=1 n=d#4 v=71
118372 On ch=1 n=e4 v=0
118400 On ch=1 n=e6 v=0
118420 On ch=1 n=d#4 v=0
118440 On ch=1 n=e4 v=58
118540 On ch=1 n=d#4 v=85
118552 On ch=1 n=e4 v=0
118640 On ch=1 n=e4 v=69
118656 On ch=1 n=d#4 v=0
118684 On ch=1 n=d6 v=78
118706 On ch=1 n=f6 v=0
118758 On ch=1 n=e4 v=0
118842 On ch=1 n=d6 v=0
118846 Par ch=1 c=64 v=127
118862 On ch=1 n=a3 v=122
118870 On ch=1 n=c#6 v=121
118870 On ch=1 n=a5 v=106
118998 Par ch=1 c=64 v=63
119014 On ch=1 n=a3 v=0
119014 Par ch=1 c=64 v=127
119040 On ch=1 n=a4 v=102
119110 On ch=1 n=a5 v=0
119134 On ch=1 n=c#6 v=0
119146 On ch=1 n=a4 v=0
119158 On ch=1 n=g#4 v=103
119238 On ch=1 n=a4 v=89
119244 On ch=1 n=g#4 v=0
119332 On ch=1 n=g#4 v=98
119360 On ch=1 n=a4 v=0
119360 On ch=1 n=a6 v=120
119364 On ch=1 n=c#6 v=123
119378 Par ch=1 c=64 v=63
119408 On ch=1 n=g#4 v=0
119410 On ch=1 n=a4 v=78
119426 Par ch=1 c=64 v=127
119536 On ch=1 n=g#4 v=97
119564 On ch=1 n=a4 v=0
119584 On ch=1 n=c#6 v=0
119592 On ch=1 n=a6 v=0
119640 On ch=1 n=g#4 v=0
119664 On ch=1 n=a4 v=84
119724 On ch=1 n=a6 v=113
119728 On ch=1 n=c#6 v=112
119778 On ch=1 n=c#6 v=0
119778 On ch=1 n=a4 v=0
119782 On ch=1 n=a6 v=0
119814 On ch=1 n=a6 v=112
119822 On ch=1 n=c#6 v=104
119826 Par ch=1 c=64 v=63
119830 On ch=1 n=a3 v=114
119842 Par ch=1 c=64 v=127
119924 On ch=1 n=a3 v=0
119976 On ch=1 n=a4 v=100
120094 On ch=1 n=g#4 v=100
120098 On ch=1 n=c#6 v=0
120110 On ch=1 n=a6 v=0
120114 On ch=1 n=a4 v=0
120166 On ch=1 n=g#4 v=0
120178 On ch=1 n=a4 v=82
120284 On ch=1 n=a6 v=122
120290 On ch=1 n=c#6 v=116
120290 On ch=1 n=g#4 v=99
120312 On ch=1 n=a4 v=0
120358 On ch=1 n=g#4 v=0
120366 On ch=1 n=a4 v=79
120422 On ch=1 n=c#6 v=0
120476 On ch=1 n=g#4 v=105
120504 On ch=1 n=a4 v=0
120568 On ch=1 n=g#4 v=0
120572 On ch=1 n=a4 v=96
120686 On ch=1 n=a4 v=0
120702 Par ch=1 c=64 v=63
120712 Par ch=1 c=64 v=0
120726 On ch=1 n=a#6 v=118
120728 On ch=1 n=a3 v=114
120732 On ch=1 n=d6 v=109
120776 Par ch=1 c=64 v=63
120794 Par ch=1 c=64 v=127
120824 On ch=1 n=a3 v=0
120830 On ch=1 n=a6 v=0
120860 On ch=1 n=a4 v=102
120940 On ch=1 n=d6 v=0
120994 On ch=1 n=g#4 v=86
121008 On ch=1 n=a#6 v=0
121012 On ch=1 n=a4 v=0
121058 On ch=1 n=g#4 v=0
121086 On ch=1 n=a4 v=63
121092 On ch=1 n=a6 v=104
121196 On ch=1 n=g6 v=109
121198 On ch=1 n=g#4 v=89
121208 On ch=1 n=a4 v=0
121252 On ch=1 n=a6 v=0
121266 On ch=1 n=g#4 v=0
121272 On ch=1 n=a4 v=73
121376 On ch=1 n=g#4 v=92
121396 On ch=1 n=a4 v=0
121412 On ch=1 n=g6 v=0
121458 On ch=1 n=g#4 v=0
121476 On ch=1 n=a4 v=84
121518 On ch=1 n=f#6 v=99
121580 On ch=1 n=f#6 v=0
121582 On ch=1 n=a4 v=0
121624 On ch=1 n=a3 v=118
121626 On ch=1 n=g6 v=112
121632 On ch=1 n=e6 v=111
121642 Par ch=1 c=64 v=63
121654 Par ch=1 c=64 v=0
121686 Par ch=1 c=64 v=63
121710 On ch=1 n=a3 v=0
121710 Par ch=1 c=64 v=127
121752 On ch=1 n=a4 v=98
121876 On ch=1 n=g#4 v=97
121894 On ch=1 n=a4 v=0
121920 On ch=1 n=e6 v=0
121962 On ch=1 n=a4 v=74
121964 On ch=1 n=g#4 v=0
121990 On ch=1 n=c#7 v=101
122070 On ch=1 n=g#4 v=97
122074 On ch=1 n=g6 v=0
122088 On ch=1 n=d7 v=109
122096 On ch=1 n=a4 v=0
122134 On ch=1 n=c#7 v=0
122150 On ch=1 n=g#4 v=0
122158 On ch=1 n=a4 v=75
122172 On ch=1 n=d7 v=0
122268 On ch=1 n=g#4 v=88
122300 On ch=1 n=a4 v=0
122358 On ch=1 n=g#4 v=0
122368 On ch=1 n=a4 v=72
122436 On ch=1 n=a#6 v=105
122478 On ch=1 n=a4 v=0
122530 On ch=1 n=a3 v=102
122538 On ch=1 n=a6 v=108
122552 On ch=1 n=c#6 v=103
122574 Par ch=1 c=64 v=63
122584 Par ch=1 c=64 v=0
122596 On ch=1 n=a#6 v=0
122634 On ch=1 n=a3 v=0
122636 Par ch=1 c=64 v=63
122658 Par ch=1 c=64 v=127
122662 On ch=1 n=a4 v=103
122758 On ch=1 n=c#6 v=0
122804 On ch=1 n=a4 v=0
122808 On ch=1 n=g#4 v=88
122886 On ch=1 n=a4 v=67
122888 On ch=1 n=g#4 v=0
122902 On ch=1 n=g6 v=108
122994 On ch=1 n=g#4 v=94
123006 On ch=1 n=a4 v=0
123014 On ch=1 n=f6 v=111
123068 On ch=1 n=g#4 v=0
123070 On ch=1 n=a4 v=62
123100 On ch=1 n=g6 v=0
123172 On ch=1 n=g#4 v=95
123196 On ch=1 n=a4 v=0
123264 On ch=1 n=a4 v=79
123266 On ch=1 n=g#4 v=0
123334 On ch=1 n=e6 v=89
123368 On ch=1 n=f6 v=0
123392 On ch=1 n=e6 v=0
123392 On ch=1 n=a4 v=0
123418 Par ch=1 c=64 v=63
123426 On ch=1 n=a6 v=0
123426 Par ch=1 c=64 v=0
123434 On ch=1 n=a3 v=114
123454 On ch=1 n=d6 v=109
123454 On ch=1 n=f6 v=98
123480 On ch=1 n=e6 v=52
123484 Par ch=1 c=64 v=63
123504 Par ch=1 c=64 v=127
123526 On ch=1 n=a3 v=0
123530 On ch=1 n=e6 v=0
123538 On ch=1 n=f6 v=0
123570 On ch=1 n=a4 v=92
123664 On ch=1 n=d6 v=0
123682 On ch=1 n=g#4 v=87
123706 On ch=1 n=a4 v=0
123762 On ch=1 n=a4 v=76
123766 On ch=1 n=g#4 v=0
123806 On ch=1 n=c#7 v=112
123884 On ch=1 n=g#4 v=94
123884 On ch=1 n=d7 v=114
123894 On ch=1 n=a4 v=0
123926 On ch=1 n=c#7 v=0
123962 On ch=1 n=g#4 v=0
123964 On ch=1 n=a4 v=71
123976 On ch=1 n=d7 v=0
124062 On ch=1 n=g#4 v=100
124102 On ch=1 n=a4 v=0
124152 On ch=1 n=a4 v=98
124170 On ch=1 n=g#4 v=0
124226 On ch=1 n=a6 v=104
124294 On ch=1 n=a4 v=0
124322 On ch=1 n=a6 v=0
124332 On ch=1 n=a3 v=112
124338 On ch=1 n=g6 v=111
124342 On ch=1 n=b5 v=112
124360 On ch=1 n=a6 v=38
124366 Par ch=1 c=64 v=63
124374 Par ch=1 c=64 v=0
124412 On ch=1 n=a6 v=0
124426 Par ch=1 c=64 v=63
124444 Par ch=1 c=64 v=127
124462 On ch=1 n=a3 v=0
124486 On ch=1 n=a4 v=106
124612 On ch=1 n=b5 v=0
124618 On ch=1 n=g#4 v=90
124636 On ch=1 n=a4 v=0
124684 On ch=1 n=f6 v=107
124704 On ch=1 n=a4 v=65
124710 On ch=1 n=g#4 v=0
124796 On ch=1 n=e6 v=118
124804 On ch=1 n=g#4 v=90
124828 On ch=1 n=a4 v=0
124870 On ch=1 n=f6 v=0
124878 On ch=1 n=g#4 v=0
124886 On ch=1 n=a4 v=76
124986 On ch=1 n=g#4 v=94
125022 On ch=1 n=a4 v=0
125096 On ch=1 n=g#4 v=0
125102 On ch=1 n=a4 v=87
125112 On ch=1 n=d6 v=94
125176 On ch=1 n=d6 v=0
125184 On ch=1 n=g6 v=0
125188 On ch=1 n=e6 v=0
125220 On ch=1 n=a4 v=0
125238 On ch=1 n=e6 v=107
125244 On ch=1 n=a3 v=117
125248 On ch=1 n=c#6 v=105
125250 Par ch=1 c=64 v=63
125296 Par ch=1 c=64 v=127
125334 On ch=1 n=a3 v=0
125364 On ch=1 n=a4 v=99
125476 On ch=1 n=c#6 v=0
125494 On ch=1 n=g#4 v=97
125516 On ch=1 n=a4 v=0
125586 On ch=1 n=g#4 v=0
125592 On ch=1 n=a4 v=69
125602 On ch=1 n=a6 v=87
125642 On ch=1 n=e6 v=0
125688 On ch=1 n=a#6 v=116
125698 On ch=1 n=g#4 v=99
125722 On ch=1 n=a4 v=0
125740 On ch=1 n=a6 v=0
125802 On ch=1 n=g#4 v=0
125814 On ch=1 n=a4 v=80
125856 On ch=1 n=a#6 v=0
125880 On ch=1 n=g#4 v=88
125916 On ch=1 n=a4 v=0
126000 On ch=1 n=a4 v=74
126044 On ch=1 n=g6 v=103
126048 On ch=1 n=g#4 v=0
126130 On ch=1 n=a4 v=0
126142 On ch=1 n=d4 v=125
126144 On ch=1 n=d6 v=116
126144 On ch=1 n=f6 v=120
126170 Par ch=1 c=64 v=127
126206 On ch=1 n=g6 v=0
126226 On ch=1 n=f4 v=91
126290 On ch=1 n=d4 v=0
126350 On ch=1 n=a4 v=98
126402 On ch=1 n=f4 v=0
126466 On ch=1 n=d5 v=104
126476 On ch=1 n=a4 v=0
126564 On ch=1 n=d5 v=0
126566 Par ch=1 c=64 v=63
126570 Par ch=1 c=64 v=0
126580 On ch=1 n=f5 v=113
126606 On ch=1 n=f6 v=0
126620 On ch=1 n=d6 v=0
126686 On ch=1 n=e5 v=103
126724 On ch=1 n=f5 v=0
126800 On ch=1 n=d5 v=101
126812 On ch=1 n=e5 v=0
126914 On ch=1 n=d6 v=112
126918 On ch=1 n=f6 v=107
126918 On ch=1 n=c5 v=107
126922 On ch=1 n=d5 v=0
126972 On ch=1 n=d6 v=0
126974 On ch=1 n=f6 v=0
126976 Par ch=1 c=64 v=63
126980 Par ch=1 c=64 v=127
127016 On ch=1 n=b4 v=109
127024 On ch=1 n=c5 v=0
127036 On ch=1 n=f6 v=117
127036 On ch=1 n=d7 v=120
127072 On ch=1 n=f6 v=0
127084 On ch=1 n=d7 v=0
127138 On ch=1 n=c5 v=102
127160 On ch=1 n=b4 v=0
127242 On ch=1 n=c5 v=0
127270 On ch=1 n=d5 v=84
127358 On ch=1 n=c5 v=80
127378 On ch=1 n=d5 v=0
127442 On ch=1 n=b4 v=101
127470 On ch=1 n=c5 v=0
127474 On ch=1 n=f6 v=122
127482 On ch=1 n=d6 v=108
127512 Par ch=1 c=64 v=63
127520 Par ch=1 c=64 v=0
127566 On ch=1 n=g6 v=92
127568 On ch=1 n=f6 v=0
127574 On ch=1 n=g4 v=83
127614 On ch=1 n=b4 v=0
127644 On ch=1 n=f6 v=99
127674 On ch=1 n=a4 v=73
127682 On ch=1 n=g6 v=0
127708 On ch=1 n=g4 v=0
127712 On ch=1 n=d6 v=0
127734 On ch=1 n=e6 v=99
127746 On ch=1 n=f6 v=0
127782 On ch=1 n=b4 v=96
127800 On ch=1 n=f6 v=103
127842 On ch=1 n=e6 v=0
127844 On ch=1 n=a4 v=0
127888 On ch=1 n=f6 v=0
127906 On ch=1 n=e6 v=125
127908 On ch=1 n=f6 v=54
127914 On ch=1 n=c6 v=117
127918 On ch=1 n=c5 v=104
127938 On ch=1 n=b4 v=0
127944 Par ch=1 c=64 v=127
127956 On ch=1 n=f6 v=0
128034 On ch=1 n=c5 v=0
128040 On ch=1 n=b4 v=101
128142 On ch=1 n=c5 v=104
128196 On ch=1 n=b4 v=0
128258 On ch=1 n=d5 v=100
128270 On ch=1 n=c5 v=0
128330 Par ch=1 c=64 v=63
128338 Par ch=1 c=64 v=0
128348 On ch=1 n=c6 v=0
128350 On ch=1 n=e6 v=0
128352 On ch=1 n=e5 v=99
128368 On ch=1 n=d5 v=0
128442 On ch=1 n=e5 v=0
128448 On ch=1 n=d5 v=101
128552 On ch=1 n=c5 v=98
128566 On ch=1 n=d5 v=0
128634 On ch=1 n=b4 v=103
128656 On ch=1 n=c5 v=0
128664 On ch=1 n=c6 v=109
128670 On ch=1 n=e6 v=107
128714 On ch=1 n=e6 v=0
128722 Par ch=1 c=64 v=63
128724 Par ch=1 c=64 v=127
128728 On ch=1 n=c6 v=0
128766 On ch=1 n=e6 v=113
128766 On ch=1 n=c7 v=120
128768 On ch=1 n=a4 v=98
128802 On ch=1 n=b4 v=0
128816 On ch=1 n=c7 v=0
128818 On ch=1 n=e6 v=0
128876 On ch=1 n=b4 v=94
128938 On ch=1 n=a4 v=0
128994 On ch=1 n=b4 v=0
128998 On ch=1 n=c5 v=92
129112 On ch=1 n=b4 v=86
129118 On ch=1 n=c5 v=0
129196 On ch=1 n=a4 v=98
129214 Par ch=1 c=64 v=63
129218 On ch=1 n=e6 v=109
129222 On ch=1 n=c6 v=107
129222 Par ch=1 c=64 v=0
129226 On ch=1 n=b4 v=0
129302 On ch=1 n=f6 v=96
129318 On ch=1 n=e6 v=0
129322 On ch=1 n=f4 v=65
129356 On ch=1 n=a4 v=0
129380 On ch=1 n=e6 v=89
129402 On ch=1 n=g4 v=87
129412 On ch=1 n=f6 v=0
129422 On ch=1 n=f4 v=0
129458 On ch=1 n=d6 v=96
129468 On ch=1 n=e6 v=0
129510 On ch=1 n=a4 v=82
129514 On ch=1 n=c6 v=0
129528 On ch=1 n=e6 v=101
129564 On ch=1 n=d6 v=0
129568 On ch=1 n=g4 v=0
129620 On ch=1 n=b4 v=96
129628 On ch=1 n=d6 v=121
129634 On ch=1 n=b5 v=114
129636 On ch=1 n=a4 v=0
129666 Par ch=1 c=64 v=63
129668 Par ch=1 c=64 v=127
129680 On ch=1 n=e6 v=0
129726 On ch=1 n=a4 v=92
129742 On ch=1 n=b4 v=0
129842 On ch=1 n=b4 v=94
129904 On ch=1 n=a4 v=0
129990 On ch=1 n=c5 v=99
129998 On ch=1 n=b4 v=0
130072 On ch=1 n=d5 v=102
130088 On ch=1 n=c5 v=0
130104 On ch=1 n=b5 v=0
130104 Par ch=1 c=64 v=63
130108 On ch=1 n=d6 v=0
130116 Par ch=1 c=64 v=0
130164 On ch=1 n=d5 v=0
130168 On ch=1 n=c5 v=98
130272 On ch=1 n=b4 v=92
130282 On ch=1 n=c5 v=0
130366 On ch=1 n=a4 v=94
130386 On ch=1 n=b4 v=0
130418 On ch=1 n=b5 v=103
130424 On ch=1 n=d6 v=100
130462 On ch=1 n=d6 v=0
130468 Par ch=1 c=64 v=63
130472 Par ch=1 c=64 v=127
130482 On ch=1 n=b5 v=0
130510 On ch=1 n=g#4 v=105
130512 On ch=1 n=a4 v=0
130532 On ch=1 n=b6 v=117
130532 On ch=1 n=d6 v=111
130580 On ch=1 n=d6 v=0
130586 On ch=1 n=b6 v=0
130608 On ch=1 n=a4 v=94
130692 On ch=1 n=g#4 v=0
130740 On ch=1 n=b4 v=83
130748 On ch=1 n=a4 v=0
130844 On ch=1 n=a4 v=79
130866 On ch=1 n=b4 v=0
130948 On ch=1 n=g#4 v=101
130968 On ch=1 n=a4 v=0
130988 On ch=1 n=d6 v=117
130990 On ch=1 n=b5 v=112
131006 Par ch=1 c=64 v=63
131014 Par ch=1 c=64 v=0
131064 On ch=1 n=e4 v=73
131072 On ch=1 n=d6 v=0
131072 On ch=1 n=e6 v=100
131098 On ch=1 n=g#4 v=0
131158 On ch=1 n=d6 v=93
131164 On ch=1 n=f#4 v=70
131198 On ch=1 n=e6 v=0
131216 On ch=1 n=e4 v=0
131238 On ch=1 n=c6 v=96
131250 On ch=1 n=d6 v=0
131266 On ch=1 n=g#4 v=103
131284 On ch=1 n=b5 v=0
131314 On ch=1 n=d6 v=92
131332 On ch=1 n=c6 v=0
131364 On ch=1 n=f#4 v=0
131396 On ch=1 n=c6 v=99
131398 On ch=1 n=a4 v=116
131426 Par ch=1 c=64 v=63
131428 Par ch=1 c=64 v=127
131440 On ch=1 n=d6 v=0
131440 On ch=1 n=g#4 v=0
131490 On ch=1 n=a5 v=96
131498 On ch=1 n=c6 v=0
131506 On ch=1 n=a4 v=0
131594 On ch=1 n=c6 v=96
131596 On ch=1 n=a5 v=0
131658 Par ch=1 c=64 v=63
131672 Par ch=1 c=64 v=0
131698 On ch=1 n=c6 v=0
131706 On ch=1 n=e6 v=103
131782 On ch=1 n=e6 v=0
131844 On ch=1 n=e5 v=109
131848 On ch=1 n=g4 v=118
131848 Par ch=1 c=64 v=63
131852 Par ch=1 c=64 v=127
131856 On ch=1 n=g3 v=109
131920 On ch=1 n=g3 v=0
131920 On ch=1 n=g4 v=0
131956 On ch=1 n=g5 v=103
131998 On ch=1 n=e5 v=0
132052 On ch=1 n=b5 v=96
132090 On ch=1 n=g5 v=0
132162 On ch=1 n=e6 v=101
132172 On ch=1 n=b5 v=0
132244 On ch=1 n=e6 v=0
132292 On ch=1 n=e5 v=108
132300 On ch=1 n=f#4 v=127
132306 On ch=1 n=f#3 v=121
132346 Par ch=1 c=64 v=63
132400 On ch=1 n=a5 v=104
132408 Par ch=1 c=64 v=127
132466 On ch=1 n=e5 v=0
132474 On ch=1 n=f#3 v=0
132488 On ch=1 n=f#4 v=0
132524 On ch=1 n=c6 v=91
132566 On ch=1 n=a5 v=0
132596 On ch=1 n=e6 v=97
132640 On ch=1 n=c6 v=0
132682 On ch=1 n=e6 v=0
132762 On ch=1 n=d#5 v=121
132768 On ch=1 n=f4 v=120
132772 On ch=1 n=f3 v=117
132788 Par ch=1 c=64 v=63
132852 Par ch=1 c=64 v=127
132880 On ch=1 n=a5 v=87
132982 On ch=1 n=c6 v=81
133002 On ch=1 n=f3 v=0
133004 On ch=1 n=d#5 v=0
133010 On ch=1 n=f4 v=0
133092 On ch=1 n=a5 v=0
133124 On ch=1 n=d#6 v=105
133162 On ch=1 n=c6 v=0
133214 On ch=1 n=d#6 v=0
133320 On ch=1 n=e3 v=104
133328 On ch=1 n=e4 v=122
133330 Par ch=1 c=64 v=63
133334 On ch=1 n=e6 v=116
133342 Par ch=1 c=64 v=0
133448 Par ch=1 c=64 v=63
133456 Par ch=1 c=64 v=127
133472 On ch=1 n=e6 v=0
133556 On ch=1 n=e5 v=88
133650 On ch=1 n=e3 v=0
133678 On ch=1 n=g#5 v=94
133682 On ch=1 n=e5 v=0
133712 On ch=1 n=e4 v=0
133770 On ch=1 n=b5 v=88
133774 On ch=1 n=g#5 v=0
133812 On ch=1 n=b5 v=0
133850 On ch=1 n=e6 v=106
133946 On ch=1 n=e6 v=0
133962 On ch=1 n=g#5 v=109
134056 On ch=1 n=b5 v=87
134064 On ch=1 n=g#5 v=0
134126 On ch=1 n=e4 v=94
134164 On ch=1 n=e6 v=89
134174 On ch=1 n=b5 v=0
134256 On ch=1 n=e6 v=0
134260 On ch=1 n=e5 v=121
134264 On ch=1 n=g#6 v=112
134328 On ch=1 n=e4 v=0
134336 On ch=1 n=e5 v=0
134384 On ch=1 n=g#6 v=0
134398 On ch=1 n=b5 v=85
134494 On ch=1 n=b5 v=0
134502 On ch=1 n=e6 v=94
134598 On ch=1 n=g#6 v=103
134626 On ch=1 n=e6 v=0
134676 On ch=1 n=g#4 v=106
134686 On ch=1 n=b6 v=96
134694 On ch=1 n=g#6 v=0
134760 On ch=1 n=g#4 v=0
134766 On ch=1 n=g#6 v=97
134768 On ch=1 n=a4 v=90
134822 On ch=1 n=b6 v=0
134836 On ch=1 n=g#4 v=80
134868 On ch=1 n=a4 v=0
134870 On ch=1 n=e6 v=96
134888 On ch=1 n=g#6 v=0
134930 On ch=1 n=f#4 v=104
134932 On ch=1 n=g#4 v=0
134984 On ch=1 n=e6 v=0
134984 On ch=1 n=d6 v=98
135006 On ch=1 n=g#4 v=101
135052 On ch=1 n=f#4 v=0
135062 On ch=1 n=d6 v=0
135114 On ch=1 n=a4 v=122
135134 On ch=1 n=c6 v=116
135174 On ch=1 n=g#4 v=0
135184 Par ch=1 c=64 v=63
135194 Par ch=1 c=64 v=0
135228 On ch=1 n=c6 v=0
135246 Par ch=1 c=64 v=63
135254 On ch=1 n=a5 v=87
135270 Par ch=1 c=64 v=127
135346 On ch=1 n=c6 v=92
135364 On ch=1 n=a5 v=0
135440 On ch=1 n=e6 v=93
135452 On ch=1 n=c6 v=0
135484 On ch=1 n=e6 v=0
135534 On ch=1 n=a4 v=0
135558 On ch=1 n=a6 v=113
135666 On ch=1 n=a6 v=0
135672 On ch=1 n=c6 v=96
135782 On ch=1 n=e6 v=104
135786 On ch=1 n=c6 v=0
135848 On ch=1 n=a3 v=91
135874 On ch=1 n=a6 v=106
135900 On ch=1 n=e6 v=0
135950 Par ch=1 c=64 v=63
135962 Par ch=1 c=64 v=0
135980 On ch=1 n=a6 v=0
135986 On ch=1 n=a4 v=124
135992 On ch=1 n=c7 v=113
135994 Par ch=1 c=64 v=63
136020 Par ch=1 c=64 v=127
136094 On ch=1 n=a6 v=107
136112 On ch=1 n=c7 v=0
136120 On ch=1 n=a3 v=0
136132 On ch=1 n=a4 v=0
136192 On ch=1 n=a6 v=0
136198 On ch=1 n=e6 v=100
136292 On ch=1 n=e6 v=0
136310 On ch=1 n=c6 v=91
136392 On ch=1 n=c6 v=0
136422 On ch=1 n=a6 v=101
136430 On ch=1 n=d#4 v=115
136494 On ch=1 n=f#6 v=104
136510 On ch=1 n=d#4 v=0
136522 On ch=1 n=e4 v=101
136526 On ch=1 n=a6 v=0
136592 On ch=1 n=f#6 v=0
136594 On ch=1 n=d#4 v=91
136604 On ch=1 n=c6 v=94
136632 On ch=1 n=e4 v=0
136682 On ch=1 n=c6 v=0
136684 On ch=1 n=c#4 v=107
136694 On ch=1 n=d#4 v=0
136700 On ch=1 n=a5 v=70
136754 On ch=1 n=d#4 v=99
136774 On ch=1 n=a5 v=0
136804 On ch=1 n=c#4 v=0
136828 On ch=1 n=g#5 v=103
136842 On ch=1 n=e4 v=124
136886 Par ch=1 c=64 v=63
136896 On ch=1 n=d#4 v=0
136896 Par ch=1 c=64 v=0
136954 On ch=1 n=g#5 v=0
136974 On ch=1 n=e5 v=88
137074 On ch=1 n=e5 v=0
137084 On ch=1 n=g#5 v=91
137180 On ch=1 n=b5 v=93
137192 On ch=1 n=g#5 v=0
137266 On ch=1 n=b5 v=0
137292 On ch=1 n=e6 v=107
137336 Par ch=1 c=64 v=127
137380 On ch=1 n=e4 v=0
137408 On ch=1 n=e6 v=0
137412 On ch=1 n=g#5 v=100
137492 On ch=1 n=g#5 v=0
137506 On ch=1 n=b5 v=79
137566 On ch=1 n=e4 v=91
137608 On ch=1 n=e6 v=83
137612 On ch=1 n=b5 v=0
137698 On ch=1 n=g#6 v=107
137702 On ch=1 n=e5 v=121
137722 On ch=1 n=e6 v=0
137766 On ch=1 n=e5 v=0
137768 On ch=1 n=e4 v=0
137810 On ch=1 n=b5 v=88
137812 On ch=1 n=g#6 v=0
137922 On ch=1 n=b5 v=0
137936 On ch=1 n=e6 v=87
138044 On ch=1 n=g#6 v=107
138090 On ch=1 n=e6 v=0
138128 On ch=1 n=g#4 v=106
138136 On ch=1 n=b6 v=106
138154 On ch=1 n=g#6 v=0
138200 Par ch=1 c=64 v=63
138220 On ch=1 n=a4 v=86
138222 Par ch=1 c=64 v=127
138226 On ch=1 n=g#6 v=97
138232 On ch=1 n=g#4 v=0
138288 On ch=1 n=b6 v=0
138312 On ch=1 n=g#4 v=85
138340 On ch=1 n=e6 v=102
138344 On ch=1 n=a4 v=0
138384 On ch=1 n=g#6 v=0
138406 On ch=1 n=f#4 v=103
138430 On ch=1 n=g#4 v=0
138446 On ch=1 n=d6 v=99
138466 On ch=1 n=e6 v=0
138482 On ch=1 n=g#4 v=88
138524 On ch=1 n=d6 v=0
138562 On ch=1 n=a4 v=118
138564 On ch=1 n=f#4 v=0
138572 On ch=1 n=c6 v=114
138580 Par ch=1 c=64 v=63
138600 Par ch=1 c=64 v=0
138624 Par ch=1 c=64 v=63
138626 On ch=1 n=g#4 v=0
138654 Par ch=1 c=64 v=127
138674 On ch=1 n=c6 v=0
138684 On ch=1 n=a5 v=97
138782 On ch=1 n=c6 v=96
138804 On ch=1 n=a5 v=0
138882 On ch=1 n=e6 v=85
138898 On ch=1 n=c6 v=0
138932 On ch=1 n=e6 v=0
138992 On ch=1 n=a4 v=0
138998 On ch=1 n=a6 v=121
139086 Par ch=1 c=64 v=63
139096 Par ch=1 c=64 v=0
139116 On ch=1 n=c6 v=102
139150 On ch=1 n=a6 v=0
139230 On ch=1 n=e6 v=101
139240 On ch=1 n=c6 v=0
139272 On ch=1 n=a3 v=89
139320 On ch=1 n=a6 v=103
139354 On ch=1 n=e6 v=0
139422 On ch=1 n=a4 v=122
139426 On ch=1 n=c7 v=114
139438 Par ch=1 c=64 v=63
139440 Par ch=1 c=64 v=127
139444 On ch=1 n=a6 v=0
139484 On ch=1 n=a3 v=0
139514 On ch=1 n=a4 v=0
139524 On ch=1 n=a6 v=91
139574 On ch=1 n=c7 v=0
139642 On ch=1 n=e6 v=97
139676 On ch=1 n=a6 v=0
139750 On ch=1 n=c6 v=85
139754 On ch=1 n=e6 v=0
139824 On ch=1 n=c6 v=0
139848 On ch=1 n=d#4 v=114
139858 On ch=1 n=a6 v=112
139932 On ch=1 n=f#6 v=104
139954 On ch=1 n=e4 v=103
139958 On ch=1 n=d#4 v=0
139986 On ch=1 n=a6 v=0
140050 On ch=1 n=d#4 v=87
140050 On ch=1 n=c6 v=98
140072 On ch=1 n=f#6 v=0
140078 On ch=1 n=e4 v=0
140138 On ch=1 n=c#4 v=112
140152 On ch=1 n=c6 v=0
140154 On ch=1 n=a5 v=85
140160 On ch=1 n=d#4 v=0
140224 On ch=1 n=d#4 v=98
140244 On ch=1 n=a5 v=0
140286 On ch=1 n=c#4 v=0
140288 On ch=1 n=e4 v=122
140290 On ch=1 n=g#5 v=105
140324 Par ch=1 c=64 v=63
140334 Par ch=1 c=64 v=0
140350 On ch=1 n=d#4 v=0
140390 On ch=1 n=b5 v=99
140408 On ch=1 n=g#5 v=0
140440 On ch=1 n=e4 v=0
140518 On ch=1 n=e6 v=103
140540 On ch=1 n=b5 v=0
140618 On ch=1 n=g#5 v=95
140646 On ch=1 n=e6 v=0
140760 On ch=1 n=a5 v=92
140766 On ch=1 n=f4 v=121
140774 On ch=1 n=g#5 v=0
140776 On ch=1 n=f3 v=112
140834 Par ch=1 c=64 v=63
140836 Par ch=1 c=64 v=127
140850 On ch=1 n=b5 v=60
140906 On ch=1 n=a5 v=0
141002 On ch=1 n=d#6 v=97
141042 On ch=1 n=b5 v=0
141044 On ch=1 n=f4 v=0
141104 On ch=1 n=a5 v=75
141118 On ch=1 n=f3 v=0
141150 On ch=1 n=d#6 v=0
141210 On ch=1 n=e4 v=116
141214 On ch=1 n=g#5 v=107
141220 On ch=1 n=e3 v=114
141268 On ch=1 n=a5 v=0
141302 Par ch=1 c=64 v=63
141316 On ch=1 n=b5 v=93
141354 On ch=1 n=g#5 v=0
141356 Par ch=1 c=64 v=127
141434 On ch=1 n=e6 v=107
141462 On ch=1 n=e3 v=0
141476 On ch=1 n=b5 v=0
141516 On ch=1 n=e4 v=0
141534 On ch=1 n=g#5 v=107
141590 On ch=1 n=e6 v=0
141664 On ch=1 n=f4 v=118
141666 On ch=1 n=a5 v=101
141674 On ch=1 n=f3 v=113
141726 On ch=1 n=g#5 v=0
141730 Par ch=1 c=64 v=63
141756 Par ch=1 c=64 v=127
141790 On ch=1 n=b5 v=78
141796 On ch=1 n=c6 v=80
141848 On ch=1 n=a5 v=0
141856 On ch=1 n=c6 v=0
141918 On ch=1 n=d#6 v=104
141920 On ch=1 n=f3 v=0
141926 On ch=1 n=f4 v=0
141968 On ch=1 n=b5 v=0
142010 On ch=1 n=a5 v=71
142074 On ch=1 n=d#6 v=0
142114 On ch=1 n=a5 v=0
142136 On ch=1 n=e4 v=122
142140 On ch=1 n=b5 v=103
142140 On ch=1 n=g#5 v=108
142142 On ch=1 n=e3 v=117
142158 On ch=1 n=e6 v=100
142164 Par ch=1 c=64 v=63
142214 Par ch=1 c=64 v=127
142290 On ch=1 n=e6 v=0
142298 On ch=1 n=g#5 v=0
142306 On ch=1 n=b5 v=0
142406 On ch=1 n=e3 v=0
142410 On ch=1 n=e4 v=0
142528 On ch=1 n=e5 v=97
142648 On ch=1 n=e5 v=0
142666 On ch=1 n=d#5 v=97
142776 On ch=1 n=d#5 v=0
142788 On ch=1 n=e5 v=83
142902 On ch=1 n=f5 v=92
142924 On ch=1 n=e5 v=0
142984 On ch=1 n=f#5 v=109
143014 On ch=1 n=f5 v=0
143090 On ch=1 n=g5 v=99
143102 On ch=1 n=f#5 v=0
143180 On ch=1 n=g#5 v=109
143204 On ch=1 n=g5 v=0
143286 Par ch=1 c=64 v=63
143298 On ch=1 n=g#5 v=0
143300 On ch=1 n=a5 v=106
143352 Par ch=1 c=64 v=0
143396 On ch=1 n=a#5 v=112
143420 On ch=1 n=a5 v=0
143496 On ch=1 n=b5 v=100
143512 On ch=1 n=a#5 v=0
143600 On ch=1 n=c6 v=106
143644 On ch=1 n=b5 v=0
143692 On ch=1 n=c#6 v=112
143728 On ch=1 n=c6 v=0
143800 On ch=1 n=d6 v=98
143808 On ch=1 n=c#6 v=0
143888 On ch=1 n=d#6 v=113
143892 Par ch=1 c=64 v=63
143936 On ch=1 n=d6 v=0
143984 Par ch=1 c=64 v=127
144012 On ch=1 n=d#6 v=0
144068 On ch=1 n=d#6 v=108
144100 On ch=1 n=e5 v=100
144104 On ch=1 n=c5 v=101
144110 On ch=1 n=a4 v=89
144124 On ch=1 n=e6 v=106
144130 Par ch=1 c=64 v=63
144202 On ch=1 n=d#6 v=0
144204 Par ch=1 c=64 v=127
144404 On ch=1 n=e5 v=0
144406 On ch=1 n=c5 v=0
144430 On ch=1 n=a4 v=0
144464 On ch=1 n=e5 v=90
144470 On ch=1 n=c5 v=84
144476 On ch=1 n=a4 v=84
144600 On ch=1 n=c5 v=0
144604 On ch=1 n=e5 v=0
144618 On ch=1 n=e6 v=0
144620 On ch=1 n=a4 v=0
144716 On ch=1 n=a4 v=65
144718 On ch=1 n=c5 v=76
144726 On ch=1 n=e5 v=65
144734 On ch=1 n=e6 v=116
144812 On ch=1 n=c5 v=0
144814 On ch=1 n=e5 v=0
144840 On ch=1 n=a4 v=0
144940 On ch=1 n=e6 v=0
144952 On ch=1 n=a4 v=69
144954 On ch=1 n=e5 v=76
144954 On ch=1 n=c5 v=84
145058 On ch=1 n=e6 v=88
145062 On ch=1 n=c5 v=0
145062 On ch=1 n=e5 v=0
145084 On ch=1 n=a4 v=0
145104 On ch=1 n=e6 v=0
145152 On ch=1 n=e6 v=114
145194 On ch=1 n=c5 v=86
145194 On ch=1 n=a4 v=70
145198 On ch=1 n=e5 v=73
145238 On ch=1 n=e6 v=0
145266 On ch=1 n=e5 v=0
145268 On ch=1 n=c5 v=0
145278 On ch=1 n=a4 v=0
145412 On ch=1 n=a4 v=68
145416 On ch=1 n=e5 v=68
145418 On ch=1 n=c5 v=74
145498 On ch=1 n=c5 v=0
145506 On ch=1 n=e5 v=0
145524 On ch=1 n=a4 v=0
145632 On ch=1 n=c6 v=113
145648 On ch=1 n=a4 v=70
145654 On ch=1 n=e5 v=65
145654 On ch=1 n=c5 v=73
145708 On ch=1 n=c6 v=0
145718 On ch=1 n=e5 v=0
145720 On ch=1 n=c5 v=0
145750 On ch=1 n=a4 v=0
145838 On ch=1 n=a4 v=65
145848 On ch=1 n=c5 v=75
145862 On ch=1 n=e5 v=57
145952 On ch=1 n=a5 v=100
145958 On ch=1 n=c5 v=0
145960 On ch=1 n=a4 v=0
145964 On ch=1 n=e5 v=0
146018 On ch=1 n=a5 v=0
146056 On ch=1 n=a5 v=111
146078 On ch=1 n=a4 v=78
146088 On ch=1 n=e5 v=74
146088 On ch=1 n=d5 v=76
146092 On ch=1 n=b4 v=70
146118 Par ch=1 c=64 v=63
146180 On ch=1 n=d5 v=0
146184 On ch=1 n=e5 v=0
146186 Par ch=1 c=64 v=127
146204 On ch=1 n=b4 v=0
146214 On ch=1 n=a4 v=0
146296 On ch=1 n=a4 v=42
146298 On ch=1 n=d5 v=72
146302 On ch=1 n=e5 v=62
146302 On ch=1 n=b4 v=63
146320 On ch=1 n=g#5 v=109
146366 On ch=1 n=a5 v=0
146398 On ch=1 n=e5 v=0
146404 On ch=1 n=d5 v=0
146414 On ch=1 n=g#5 v=0
146426 On ch=1 n=a4 v=0
146428 On ch=1 n=b4 v=0
146550 On ch=1 n=b4 v=59
146552 On ch=1 n=d5 v=60
146552 On ch=1 n=e5 v=55
146554 On ch=1 n=a4 v=41
146562 On ch=1 n=g#5 v=110
146568 Par ch=1 c=64 v=63
146582 Par ch=1 c=64 v=0
146628 On ch=1 n=d5 v=0
146632 On ch=1 n=e5 v=0
146654 On ch=1 n=a4 v=0
146654 On ch=1 n=b4 v=0
146750 On ch=1 n=e5 v=67
146752 On ch=1 n=b4 v=65
146754 On ch=1 n=a4 v=45
146754 On ch=1 n=d5 v=74
146820 On ch=1 n=d5 v=0
146828 On ch=1 n=e5 v=0
146844 On ch=1 n=b4 v=0
146846 On ch=1 n=a4 v=0
146970 On ch=1 n=a4 v=69
146972 On ch=1 n=e5 v=81
146974 On ch=1 n=b4 v=76
146980 On ch=1 n=d5 v=75
147036 On ch=1 n=d5 v=0
147044 Par ch=1 c=64 v=127
147052 On ch=1 n=e5 v=0
147062 On ch=1 n=b4 v=0
147070 On ch=1 n=a4 v=0
147182 On ch=1 n=a4 v=65
147182 On ch=1 n=b4 v=69
147190 On ch=1 n=e5 v=65
147192 On ch=1 n=d5 v=71
147256 On ch=1 n=d5 v=0
147260 On ch=1 n=e5 v=0
147286 On ch=1 n=b4 v=0
147288 On ch=1 n=a4 v=0
147302 On ch=1 n=g#5 v=0
147436 On ch=1 n=b4 v=69
147440 Par ch=1 c=64 v=63
147442 On ch=1 n=e5 v=68
147444 On ch=1 n=d5 v=71
147444 On ch=1 n=d6 v=112
147446 On ch=1 n=a4 v=54
147468 Par ch=1 c=64 v=127
147506 On ch=1 n=d5 v=0
147506 On ch=1 n=e5 v=0
147528 On ch=1 n=a4 v=0
147530 On ch=1 n=b4 v=0
147654 On ch=1 n=b4 v=65
147662 On ch=1 n=d5 v=74
147664 On ch=1 n=e5 v=66
147674 On ch=1 n=a4 v=45
147704 On ch=1 n=d6 v=0
147774 On ch=1 n=e5 v=0
147784 On ch=1 n=b5 v=99
147790 On ch=1 n=d5 v=0
147798 On ch=1 n=a4 v=0
147810 On ch=1 n=b4 v=0
147816 Par ch=1 c=64 v=63
147826 Par ch=1 c=64 v=0
147882 On ch=1 n=e6 v=107
147912 On ch=1 n=a4 v=71
147918 On ch=1 n=c5 v=78
147922 On ch=1 n=b5 v=0
147922 On ch=1 n=e5 v=73
147948 Par ch=1 c=64 v=63
147964 Par ch=1 c=64 v=127
148016 On ch=1 n=e5 v=0
148020 On ch=1 n=c5 v=0
148034 On ch=1 n=a4 v=0
148134 On ch=1 n=a4 v=68
148136 On ch=1 n=c5 v=81
148140 On ch=1 n=e5 v=72
148246 On ch=1 n=e5 v=0
148250 On ch=1 n=c5 v=0
148256 On ch=1 n=a4 v=0
148258 On ch=1 n=e6 v=0
148364 On ch=1 n=e6 v=116
148364 On ch=1 n=a4 v=67
148364 On ch=1 n=c5 v=80
148372 On ch=1 n=e5 v=72
148450 On ch=1 n=e5 v=0
148452 On ch=1 n=c5 v=0
148460 On ch=1 n=e6 v=0
148470 On ch=1 n=a4 v=0
148586 On ch=1 n=c5 v=76
148588 On ch=1 n=a4 v=63
148594 On ch=1 n=e5 v=71
148674 On ch=1 n=e5 v=0
148678 On ch=1 n=c5 v=0
148690 On ch=1 n=a4 v=0
148698 On ch=1 n=e6 v=112
148754 On ch=1 n=e6 v=0
148792 On ch=1 n=e6 v=114
148826 On ch=1 n=a4 v=72
148826 On ch=1 n=c5 v=82
148830 On ch=1 n=e5 v=76
148854 On ch=1 n=e6 v=0
148896 On ch=1 n=c5 v=0
148900 On ch=1 n=e5 v=0
148918 On ch=1 n=a4 v=0
149042 On ch=1 n=c5 v=78
149042 On ch=1 n=a4 v=60
149044 On ch=1 n=f6 v=106
149048 On ch=1 n=e5 v=66
149112 On ch=1 n=e5 v=0
149118 On ch=1 n=c5 v=0
149122 On ch=1 n=a4 v=0
149124 On ch=1 n=e6 v=102
149146 On ch=1 n=f6 v=0
149210 Par ch=1 c=64 v=63
149224 Par ch=1 c=64 v=0
149230 On ch=1 n=d6 v=97
149244 On ch=1 n=e6 v=0
149248 On ch=1 n=c5 v=77
149248 On ch=1 n=a4 v=67
149254 On ch=1 n=e5 v=71
149262 Par ch=1 c=64 v=63
149298 Par ch=1 c=64 v=127
149330 On ch=1 n=e5 v=0
149332 On ch=1 n=c5 v=0
149336 On ch=1 n=a4 v=0
149340 On ch=1 n=d6 v=0
149346 On ch=1 n=c6 v=87
149432 On ch=1 n=b5 v=101
149446 On ch=1 n=c5 v=71
149448 On ch=1 n=a4 v=56
149452 On ch=1 n=e5 v=57
149472 On ch=1 n=c6 v=0
149536 On ch=1 n=a5 v=88
149544 On ch=1 n=b5 v=0
149546 On ch=1 n=c5 v=0
149548 On ch=1 n=e5 v=0
149568 On ch=1 n=a4 v=0
149608 On ch=1 n=a5 v=0
149642 Par ch=1 c=64 v=63
149650 On ch=1 n=a5 v=103
149664 On ch=1 n=d5 v=82
149668 On ch=1 n=e5 v=70
149674 On ch=1 n=b4 v=66
149674 On ch=1 n=a4 v=41
149724 Par ch=1 c=64 v=127
149760 On ch=1 n=d5 v=0
149762 On ch=1 n=e5 v=0
149768 On ch=1 n=a4 v=0
149780 On ch=1 n=b4 v=0
149890 On ch=1 n=g#5 v=98
149898 On ch=1 n=b4 v=63
149898 On ch=1 n=d5 v=70
149904 On ch=1 n=e5 v=59
149910 On ch=1 n=a4 v=48
149914 On ch=1 n=a5 v=0
149964 Par ch=1 c=64 v=63
149974 On ch=1 n=g#5 v=0
149980 Par ch=1 c=64 v=0
149988 On ch=1 n=d5 v=0
149990 On ch=1 n=e5 v=0
150004 On ch=1 n=a4 v=0
150008 On ch=1 n=b4 v=0
150112 On ch=1 n=g#5 v=103
150122 On ch=1 n=b4 v=64
150126 On ch=1 n=d5 v=73
150130 On ch=1 n=e5 v=68
150132 On ch=1 n=a4 v=45
150202 On ch=1 n=e5 v=0
150204 On ch=1 n=d5 v=0
150218 On ch=1 n=a4 v=0
150220 On ch=1 n=b4 v=0
150336 On ch=1 n=b4 v=72
150350 On ch=1 n=d5 v=70
150350 On ch=1 n=e5 v=65
150356 On ch=1 n=a4 v=49
150358 Par ch=1 c=64 v=63
150362 Par ch=1 c=64 v=127
150402 On ch=1 n=e5 v=0
150402 On ch=1 n=d5 v=0
150420 On ch=1 n=a4 v=0
150428 On ch=1 n=b4 v=0
150572 On ch=1 n=b4 v=76
150578 On ch=1 n=e5 v=74
150582 On ch=1 n=a4 v=54
150584 On ch=1 n=d5 v=70
150594 On ch=1 n=g#5 v=0
150628 On ch=1 n=d5 v=0
150630 On ch=1 n=e5 v=0
150644 On ch=1 n=a4 v=0
150652 On ch=1 n=b4 v=0
150786 On ch=1 n=b4 v=69
150792 On ch=1 n=d5 v=76
150792 On ch=1 n=e5 v=72
150798 On ch=1 n=a4 v=51
150858 On ch=1 n=e5 v=0
150860 On ch=1 n=d5 v=0
150866 On ch=1 n=a4 v=0
150874 On ch=1 n=b4 v=0
150980 Par ch=1 c=64 v=63
151030 On ch=1 n=d6 v=109
151036 On ch=1 n=b4 v=65
151038 On ch=1 n=e5 v=68
151042 On ch=1 n=d5 v=66
151054 On ch=1 n=a4 v=36
151062 Par ch=1 c=64 v=127
151092 On ch=1 n=e5 v=0
151094 On ch=1 n=d5 v=0
151110 On ch=1 n=a4 v=0
151122 On ch=1 n=b4 v=0
151168 On ch=1 n=d6 v=0
151248 On ch=1 n=d5 v=76
151250 On ch=1 n=b4 v=54
151258 On ch=1 n=e5 v=64
151262 On ch=1 n=a4 v=52
151342 On ch=1 n=b5 v=97
151360 On ch=1 n=e5 v=0
151386 On ch=1 n=a4 v=0
151386 Par ch=1 c=64 v=63
151390 On ch=1 n=d5 v=0
151394 On ch=1 n=b4 v=0
151414 On ch=1 n=b5 v=0
151462 On ch=1 n=e6 v=109
151468 On ch=1 n=c6 v=107
151470 Par ch=1 c=64 v=127
151472 On ch=1 n=c5 v=84
151476 On ch=1 n=e5 v=68
151476 On ch=1 n=a4 v=62
151522 On ch=1 n=e5 v=0
151540 On ch=1 n=c5 v=0
151590 On ch=1 n=a4 v=0
151664 On ch=1 n=c6 v=0
151704 On ch=1 n=e6 v=0
151720 On ch=1 n=a4 v=88
151812 On ch=1 n=a4 v=0
151826 On ch=1 n=c6 v=103
151834 On ch=1 n=a5 v=89
151876 On ch=1 n=a5 v=0
151882 On ch=1 n=c6 v=0
151894 Par ch=1 c=64 v=63
151916 Par ch=1 c=64 v=0
151926 On ch=1 n=e4 v=87
151936 On ch=1 n=c6 v=98
151948 On ch=1 n=e6 v=102
152032 On ch=1 n=e4 v=0
152140 On ch=1 n=c4 v=70
152392 Par ch=1 c=64 v=63
152394 On ch=1 n=a3 v=80
152396 On ch=1 n=c4 v=0
152398 Par ch=1 c=64 v=127
152462 On ch=1 n=c6 v=0
152490 On ch=1 n=e6 v=0
152554 On ch=1 n=a3 v=0
152628 On ch=1 n=c6 v=85
152640 On ch=1 n=a5 v=59
152698 On ch=1 n=a5 v=0
152722 On ch=1 n=c6 v=0
152840 Par ch=1 c=64 v=63
152854 Par ch=1 c=64 v=0
152860 On ch=1 n=b5 v=77
152864 On ch=1 n=d6 v=73
152912 On ch=1 n=b5 v=0
152936 On ch=1 n=d6 v=0
153076 On ch=1 n=e6 v=96
153080 On ch=1 n=c6 v=91
153130 On ch=1 n=c6 v=0
153160 On ch=1 n=e6 v=0
153364 On ch=1 n=e6 v=93
153370 On ch=1 n=c#6 v=91
153372 Par ch=1 c=64 v=63
153376 Par ch=1 c=64 v=127
153422 On ch=1 n=c#6 v=0
153488 On ch=1 n=e6 v=0
153850 On ch=1 n=d6 v=65
153856 On ch=1 n=f6 v=82
153868 On ch=1 n=f4 v=35
153870 On ch=1 n=a4 v=44
153874 On ch=1 n=c5 v=53
153876 On ch=1 n=d5 v=48
153970 Par ch=1 c=64 v=63
154074 Par ch=1 c=64 v=127
154152 On ch=1 n=c5 v=0
154172 On ch=1 n=f6 v=0
154198 On ch=1 n=d5 v=0
154200 On ch=1 n=d6 v=0
154236 On ch=1 n=a4 v=0
154310 On ch=1 n=f4 v=0
154310 On ch=1 n=b4 v=72
154316 On ch=1 n=d5 v=67
154326 On ch=1 n=g4 v=63
154410 Par ch=1 c=64 v=63
154424 Par ch=1 c=64 v=0
154536 On ch=1 n=b5 v=84
154546 On ch=1 n=g5 v=70
154596 On ch=1 n=g5 v=0
154618 On ch=1 n=b5 v=0
154656 On ch=1 n=d5 v=0
154680 On ch=1 n=b4 v=0
154700 On ch=1 n=g4 v=0
154760 On ch=1 n=c6 v=90
154762 On ch=1 n=a5 v=84
154810 On ch=1 n=a5 v=0
154846 On ch=1 n=c6 v=0
154972 On ch=1 n=d6 v=96
154976 On ch=1 n=b5 v=92
155028 On ch=1 n=b5 v=0
155056 On ch=1 n=d6 v=0
155226 Par ch=1 c=64 v=63
155228 Par ch=1 c=64 v=127
155240 On ch=1 n=d#6 v=101
155250 On ch=1 n=b5 v=85
155296 On ch=1 n=b5 v=0
155316 On ch=1 n=d#6 v=0
155716 On ch=1 n=c6 v=69
155716 On ch=1 n=e6 v=78
155726 On ch=1 n=e4 v=41
155728 On ch=1 n=b4 v=57
155734 On ch=1 n=c5 v=53
155738 On ch=1 n=g4 v=59
155776 Par ch=1 c=64 v=63
155796 Par ch=1 c=64 v=0
155844 Par ch=1 c=64 v=63
155882 Par ch=1 c=64 v=127
155986 On ch=1 n=b4 v=0
155996 On ch=1 n=e6 v=0
156014 On ch=1 n=c6 v=0
156020 On ch=1 n=c5 v=0
156062 On ch=1 n=g4 v=0
156122 On ch=1 n=e4 v=0
156210 On ch=1 n=c5 v=79
156216 On ch=1 n=f4 v=68
156220 On ch=1 n=a4 v=58
156272 On ch=1 n=a4 v=0
156278 On ch=1 n=c5 v=0
156308 On ch=1 n=f4 v=0
156428 On ch=1 n=a5 v=79
156452 On ch=1 n=f5 v=57
156506 On ch=1 n=f5 v=0
156530 On ch=1 n=a5 v=0
156630 Par ch=1 c=64 v=63
156662 On ch=1 n=g#5 v=88
156672 Par ch=1 c=64 v=0
156674 On ch=1 n=b5 v=72
156748 On ch=1 n=g#5 v=0
156772 On ch=1 n=b5 v=0
156862 On ch=1 n=a5 v=79
156868 On ch=1 n=c6 v=79
156908 On ch=1 n=a5 v=0
156956 On ch=1 n=c6 v=0
157118 On ch=1 n=c6 v=94
157478 On ch=1 n=b5 v=81
157504 On ch=1 n=c6 v=0
157586 On ch=1 n=f6 v=90
157612 On ch=1 n=b5 v=0
157614 On ch=1 n=b4 v=67
157620 On ch=1 n=f4 v=65
157624 On ch=1 n=d4 v=55
157964 On ch=1 n=d6 v=83
157980 On ch=1 n=b4 v=0
157990 On ch=1 n=f6 v=0
158060 On ch=1 n=f4 v=0
158064 On ch=1 n=a4 v=71
158070 On ch=1 n=c6 v=96
158074 On ch=1 n=e4 v=61
158078 On ch=1 n=d4 v=0
158084 On ch=1 n=c5 v=84
158124 On ch=1 n=d6 v=0
158400 On ch=1 n=e4 v=0
158432 On ch=1 n=c5 v=0
158454 On ch=1 n=e6 v=94
158472 On ch=1 n=c6 v=0
158550 On ch=1 n=b4 v=86
158556 On ch=1 n=g#4 v=85
158562 On ch=1 n=d6 v=93
158566 On ch=1 n=a4 v=0
158574 On ch=1 n=e4 v=64
158642 On ch=1 n=e6 v=0
158798 Par ch=1 c=64 v=63
158802 Par ch=1 c=64 v=127
158866 On ch=1 n=g#4 v=0
158874 On ch=1 n=b4 v=0
158888 On ch=1 n=e4 v=0
158978 On ch=1 n=b5 v=100
158992 On ch=1 n=d6 v=0
159068 On ch=1 n=b5 v=0
159174 On ch=1 n=c6 v=108
159186 On ch=1 n=a4 v=116
159190 On ch=1 n=a3 v=107
159210 Par ch=1 c=64 v=127
159348 On ch=1 n=a6 v=97
159404 On ch=1 n=c6 v=0
159472 On ch=1 n=c6 v=91
159514 On ch=1 n=a6 v=0
159556 On ch=1 n=a4 v=0
159592 On ch=1 n=a6 v=107
159606 On ch=1 n=c6 v=0
159704 On ch=1 n=c6 v=98
159710 On ch=1 n=a4 v=116
159738 On ch=1 n=a6 v=0
159806 On ch=1 n=a4 v=0
159818 On ch=1 n=c6 v=0
159822 On ch=1 n=a6 v=92
159956 On ch=1 n=c6 v=89
159964 On ch=1 n=a6 v=0
160060 On ch=1 n=c6 v=0
160066 On ch=1 n=a6 v=78
160072 On ch=1 n=a4 v=109
160136 On ch=1 n=a4 v=0
160166 On ch=1 n=c6 v=87
160174 On ch=1 n=a6 v=0
160180 On ch=1 n=a4 v=112
160270 On ch=1 n=c6 v=0
160272 On ch=1 n=a6 v=83
160312 On ch=1 n=a4 v=0
160338 On ch=1 n=a3 v=0
160374 On ch=1 n=c6 v=84
160394 On ch=1 n=a6 v=0
160468 On ch=1 n=a6 v=72
160478 On ch=1 n=c6 v=0
160572 On ch=1 n=c6 v=94
160582 On ch=1 n=a6 v=0
160604 On ch=1 n=f4 v=114
160684 On ch=1 n=a6 v=93
160690 On ch=1 n=c6 v=0
160756 On ch=1 n=f4 v=0
160800 On ch=1 n=c6 v=69
160826 On ch=1 n=a6 v=0
160924 On ch=1 n=c6 v=0
160926 On ch=1 n=d#4 v=109
160926 On ch=1 n=a6 v=84
161026 On ch=1 n=f4 v=117
161032 On ch=1 n=a6 v=0
161042 On ch=1 n=b5 v=93
161070 On ch=1 n=d#4 v=0
161100 Par ch=1 c=64 v=63
161130 On ch=1 n=b5 v=0
161140 Par ch=1 c=64 v=127
161148 On ch=1 n=a6 v=94
161250 On ch=1 n=b5 v=90
161272 On ch=1 n=a6 v=0
161274 On ch=1 n=e4 v=114
161314 On ch=1 n=f4 v=0
161358 On ch=1 n=e4 v=0
161358 On ch=1 n=b5 v=0
161360 On ch=1 n=a6 v=92
161436 Par ch=1 c=64 v=63
161446 Par ch=1 c=64 v=0
161460 On ch=1 n=b5 v=80
161470 On ch=1 n=a6 v=0
161490 On ch=1 n=e4 v=111
161560 On ch=1 n=b5 v=0
161576 On ch=1 n=a6 v=92
161672 On ch=1 n=b5 v=86
161682 On ch=1 n=a6 v=0
161776 On ch=1 n=b5 v=0
161788 On ch=1 n=a6 v=92
161898 On ch=1 n=b5 v=94
161904 On ch=1 n=a6 v=0
161920 Par ch=1 c=64 v=63
161924 Par ch=1 c=64 v=127
162004 On ch=1 n=b5 v=0
162026 On ch=1 n=g6 v=99
162118 On ch=1 n=b5 v=85
162142 On ch=1 n=g6 v=0
162208 On ch=1 n=e4 v=0
162220 On ch=1 n=b5 v=0
162226 On ch=1 n=g6 v=93
162286 Par ch=1 c=64 v=63
162292 Par ch=1 c=64 v=0
162306 On ch=1 n=g6 v=0
162336 On ch=1 n=a#5 v=115
162336 On ch=1 n=g4 v=104
162358 Par ch=1 c=64 v=63
162374 Par ch=1 c=64 v=127
162428 On ch=1 n=a#5 v=0
162456 On ch=1 n=g6 v=88
162542 On ch=1 n=g4 v=0
162574 On ch=1 n=a#5 v=93
162580 On ch=1 n=g6 v=0
162658 On ch=1 n=e4 v=113
162660 On ch=1 n=a#5 v=0
162686 On ch=1 n=g6 v=87
162748 Par ch=1 c=64 v=63
162760 On ch=1 n=f4 v=116
162760 Par ch=1 c=64 v=0
162784 On ch=1 n=g6 v=0
162788 On ch=1 n=a5 v=91
162808 On ch=1 n=e4 v=0
162836 Par ch=1 c=64 v=63
162868 Par ch=1 c=64 v=127
162882 On ch=1 n=a5 v=0
162892 On ch=1 n=g6 v=94
162996 On ch=1 n=a5 v=88
163000 On ch=1 n=g6 v=0
163070 On ch=1 n=f4 v=0
163094 On ch=1 n=a5 v=0
163104 On ch=1 n=g6 v=91
163206 On ch=1 n=a5 v=90
163212 On ch=1 n=g6 v=0
163224 On ch=1 n=f4 v=113
163294 On ch=1 n=f4 v=0
163300 On ch=1 n=a5 v=0
163312 On ch=1 n=g6 v=84
163454 On ch=1 n=g6 v=0
163456 On ch=1 n=a5 v=85
163550 On ch=1 n=f4 v=100
163560 On ch=1 n=a5 v=0
163562 On ch=1 n=g6 v=72
163594 On ch=1 n=f4 v=0
163652 On ch=1 n=g6 v=0
163658 On ch=1 n=f4 v=121
163660 On ch=1 n=a5 v=77
163748 On ch=1 n=f4 v=0
163760 On ch=1 n=f6 v=71
163764 On ch=1 n=a5 v=0
163878 On ch=1 n=f6 v=0
163878 On ch=1 n=a5 v=68
163936 On ch=1 n=g4 v=103
163984 On ch=1 n=a5 v=0
163994 On ch=1 n=f6 v=80
164014 On ch=1 n=f4 v=93
164058 On ch=1 n=g4 v=0
164072 On ch=1 n=a5 v=75
164110 On ch=1 n=f6 v=0
164120 On ch=1 n=e4 v=103
164168 On ch=1 n=f4 v=0
164188 On ch=1 n=f6 v=96
164194 On ch=1 n=a5 v=0
164218 On ch=1 n=d4 v=103
164244 On ch=1 n=e4 v=0
164272 On ch=1 n=a5 v=84
164326 On ch=1 n=f6 v=0
164334 On ch=1 n=c4 v=100
164336 On ch=1 n=d4 v=0
164390 On ch=1 n=f6 v=90
164402 On ch=1 n=a5 v=0
164414 On ch=1 n=b3 v=104
164474 On ch=1 n=c4 v=0
164506 On ch=1 n=g5 v=96
164508 On ch=1 n=f6 v=0
164514 On ch=1 n=d4 v=116
164572 On ch=1 n=b3 v=0
164608 Par ch=1 c=64 v=63
164614 On ch=1 n=g5 v=0
164628 On ch=1 n=f6 v=102
164718 Par ch=1 c=64 v=127
164724 On ch=1 n=g5 v=86
164738 On ch=1 n=c4 v=112
164760 On ch=1 n=f6 v=0
164770 On ch=1 n=d4 v=0
164770 Par ch=1 c=64 v=63
164804 Par ch=1 c=64 v=0
164826 On ch=1 n=c4 v=0
164830 On ch=1 n=f6 v=88
164838 On ch=1 n=g5 v=0
164934 On ch=1 n=g5 v=87
164956 On ch=1 n=c4 v=103
164962 On ch=1 n=f6 v=0
165044 On ch=1 n=g5 v=0
165058 On ch=1 n=f6 v=101
165150 On ch=1 n=g5 v=86
165178 On ch=1 n=f6 v=0
165262 On ch=1 n=g5 v=0
165268 On ch=1 n=f6 v=100
165364 On ch=1 n=g5 v=98
165370 On ch=1 n=f6 v=0
165432 Par ch=1 c=64 v=63
165434 Par ch=1 c=64 v=127
165460 On ch=1 n=g5 v=0
165464 On ch=1 n=c4 v=0
165480 On ch=1 n=e6 v=98
165576 On ch=1 n=g5 v=81
165602 On ch=1 n=e6 v=0
165690 On ch=1 n=g5 v=0
165702 On ch=1 n=e6 v=93
165728 On ch=1 n=g4 v=106
165784 On ch=1 n=g5 v=80
165784 Par ch=1 c=64 v=63
165798 On ch=1 n=e4 v=99
165804 Par ch=1 c=64 v=0
165812 On ch=1 n=e6 v=0
165842 On ch=1 n=g4 v=0
165854 Par ch=1 c=64 v=63
165886 Par ch=1 c=64 v=127
165924 On ch=1 n=g5 v=0
165924 On ch=1 n=e6 v=79
166038 On ch=1 n=e6 v=0
166040 On ch=1 n=g5 v=77
166110 On ch=1 n=c#4 v=108
166122 On ch=1 n=e6 v=83
166128 On ch=1 n=g5 v=0
166132 Par ch=1 c=64 v=63
166142 On ch=1 n=e4 v=0
166192 On ch=1 n=e6 v=0
166198 On ch=1 n=e4 v=104
166222 Par ch=1 c=64 v=127
166230 On ch=1 n=f5 v=92
166240 On ch=1 n=c#4 v=0
166336 On ch=1 n=f5 v=0
166338 On ch=1 n=e6 v=85
166424 Par ch=1 c=64 v=63
166432 On ch=1 n=d4 v=108
166438 On ch=1 n=e4 v=0
166446 On ch=1 n=f5 v=76
166450 On ch=1 n=e6 v=0
166454 Par ch=1 c=64 v=0
166514 On ch=1 n=d4 v=0
166538 On ch=1 n=f5 v=0
166550 On ch=1 n=e6 v=88
166634 On ch=1 n=d4 v=108
166638 On ch=1 n=f5 v=85
166654 On ch=1 n=e6 v=0
166706 On ch=1 n=d4 v=0
166742 On ch=1 n=f5 v=0
166762 On ch=1 n=e6 v=90
166848 On ch=1 n=f5 v=78
166856 On ch=1 n=d4 v=96
166868 On ch=1 n=e6 v=0
166922 On ch=1 n=d4 v=0
166950 On ch=1 n=f5 v=0
166970 On ch=1 n=e6 v=81
167042 On ch=1 n=e6 v=0
167084 On ch=1 n=f5 v=108
167100 On ch=1 n=d4 v=94
167198 On ch=1 n=f5 v=0
167222 On ch=1 n=d6 v=101
167296 On ch=1 n=e4 v=76
167306 On ch=1 n=d4 v=0
167330 On ch=1 n=f5 v=98
167350 On ch=1 n=d6 v=0
167370 On ch=1 n=d4 v=89
167372 On ch=1 n=e4 v=0
167416 On ch=1 n=d6 v=93
167440 On ch=1 n=f5 v=0
167486 On ch=1 n=c4 v=79
167494 On ch=1 n=d4 v=0
167522 On ch=1 n=f5 v=96
167562 On ch=1 n=d6 v=0
167592 On ch=1 n=b3 v=76
167620 On ch=1 n=c4 v=0
167620 On ch=1 n=d6 v=87
167642 On ch=1 n=f5 v=0
167694 On ch=1 n=a3 v=70
167722 On ch=1 n=b3 v=0
167728 On ch=1 n=f5 v=93
167760 On ch=1 n=d6 v=0
167822 On ch=1 n=g#3 v=88
167832 On ch=1 n=d6 v=87
167836 On ch=1 n=f5 v=0
167842 On ch=1 n=a3 v=0
167942 On ch=1 n=e5 v=100
167946 On ch=1 n=d6 v=0
167956 On ch=1 n=b3 v=83
167988 On ch=1 n=g#3 v=0
168054 On ch=1 n=d6 v=97
168060 On ch=1 n=e5 v=0
168148 On ch=1 n=e5 v=88
168148 On ch=1 n=a3 v=84
168164 On ch=1 n=b3 v=0
168176 On ch=1 n=d6 v=0
168248 On ch=1 n=a3 v=0
168258 On ch=1 n=d6 v=92
168266 On ch=1 n=e5 v=0
168356 On ch=1 n=e5 v=94
168360 On ch=1 n=a3 v=81
168388 On ch=1 n=d6 v=0
168462 On ch=1 n=a3 v=0
168478 On ch=1 n=c6 v=106
168496 On ch=1 n=e5 v=0
168576 On ch=1 n=e5 v=87
168586 On ch=1 n=a3 v=83
168614 On ch=1 n=c6 v=0
168678 On ch=1 n=a3 v=0
168698 On ch=1 n=c6 v=107
168726 On ch=1 n=e5 v=0
168800 On ch=1 n=a3 v=93
168800 On ch=1 n=e5 v=98
168842 On ch=1 n=c6 v=0
168930 On ch=1 n=b5 v=112
168952 On ch=1 n=a3 v=0
168982 On ch=1 n=e5 v=0
169024 On ch=1 n=g3 v=91
169032 On ch=1 n=e5 v=94
169058 On ch=1 n=b5 v=0
169132 On ch=1 n=b5 v=104
169176 On ch=1 n=g3 v=0
169186 On ch=1 n=e5 v=0
169224 On ch=1 n=b5 v=0
169236 On ch=1 n=g3 v=84
169254 On ch=1 n=e5 v=89
169256 On ch=1 n=b5 v=107
169360 On ch=1 n=e6 v=108
169370 On ch=1 n=e5 v=0
169408 On ch=1 n=b5 v=0
169428 On ch=1 n=g3 v=0
169476 On ch=1 n=b5 v=97
169486 On ch=1 n=e5 v=91
169506 On ch=1 n=e6 v=0
169516 On ch=1 n=g4 v=41
169576 On ch=1 n=e5 v=0
169584 On ch=1 n=e6 v=106
169654 On ch=1 n=b5 v=0
169712 On ch=1 n=e6 v=0
169746 On ch=1 n=g4 v=0
169776 On ch=1 n=f#4 v=63
169778 On ch=1 n=e6 v=97
169806 On ch=1 n=a5 v=48
170048 On ch=1 n=f#4 v=0
170050 On ch=1 n=d#6 v=85
170110 On ch=1 n=e6 v=0
170118 On ch=1 n=a5 v=0
170162 On ch=1 n=d#6 v=0
170240 On ch=1 n=f4 v=74
170460 On ch=1 n=a5 v=47
170468 On ch=1 n=f4 v=0
170468 On ch=1 n=d6 v=70
170556 On ch=1 n=a5 v=0
170568 On ch=1 n=d6 v=0
170684 On ch=1 n=e4 v=68
170702 On ch=1 n=d6 v=58
170712 On ch=1 n=a5 v=40
170924 On ch=1 n=d6 v=0
170924 On ch=1 n=c#6 v=75
170966 On ch=1 n=e4 v=0
170982 On ch=1 n=c#6 v=0
170996 On ch=1 n=a5 v=0
171134 On ch=1 n=e4 v=78
171346 On ch=1 n=c6 v=76
171352 On ch=1 n=a5 v=65
171426 On ch=1 n=e4 v=0
171454 On ch=1 n=a5 v=0
171478 On ch=1 n=c6 v=0
171566 On ch=1 n=d4 v=75
171574 On ch=1 n=a5 v=68
171576 On ch=1 n=a#5 v=85
171792 On ch=1 n=b5 v=93
171842 On ch=1 n=a#5 v=0
171876 On ch=1 n=a5 v=0
171882 On ch=1 n=d4 v=0
171892 On ch=1 n=b5 v=0
172014 On ch=1 n=e4 v=84
172238 On ch=1 n=c#6 v=107
172250 On ch=1 n=a5 v=78
172322 On ch=1 n=a5 v=0
172340 On ch=1 n=c#6 v=0
172420 On ch=1 n=e4 v=0
172480 On ch=1 n=f4 v=107
172676 On ch=1 n=d6 v=109
172688 On ch=1 n=a5 v=99
172776 On ch=1 n=d6 v=0
172788 On ch=1 n=a5 v=0
172798 On ch=1 n=f4 v=0
172874 On ch=1 n=c#4 v=115
173096 On ch=1 n=e6 v=109
173108 On ch=1 n=a5 v=100
173238 On ch=1 n=a5 v=0
173262 On ch=1 n=e6 v=0
173320 On ch=1 n=d4 v=102
173340 On ch=1 n=g6 v=102
173344 On ch=1 n=a5 v=87
173382 On ch=1 n=c#4 v=0
173634 On ch=1 n=f6 v=98
173704 On ch=1 n=g6 v=0
173832 On ch=1 n=e4 v=107
173896 On ch=1 n=d4 v=0
174048 On ch=1 n=e6 v=108
174140 On ch=1 n=f6 v=0
174260 On ch=1 n=f4 v=103
174270 On ch=1 n=d6 v=103
174310 On ch=1 n=e4 v=0
174362 On ch=1 n=e6 v=0
174398 Par ch=1 c=64 v=63
174410 On ch=1 n=d6 v=0
174430 Par ch=1 c=64 v=127
174482 On ch=1 n=c6 v=101
174534 On ch=1 n=a5 v=0
174574 On ch=1 n=c6 v=0
174704 On ch=1 n=f#5 v=110
174706 On ch=1 n=b5 v=102
174710 On ch=1 n=d#4 v=108
174738 On ch=1 n=f4 v=0
174742 Par ch=1 c=64 v=63
174750 Par ch=1 c=64 v=0
174898 Par ch=1 c=64 v=63
174914 Par ch=1 c=64 v=127
174916 On ch=1 n=a5 v=104
174970 On ch=1 n=f#5 v=0
174972 On ch=1 n=b5 v=0
175002 On ch=1 n=a5 v=0
175008 On ch=1 n=d#4 v=0
175208 On ch=1 n=g#5 v=84
175226 On ch=1 n=e4 v=101
175228 Par ch=1 c=64 v=63
175228 On ch=1 n=b5 v=91
175236 Par ch=1 c=64 v=0
175244 On ch=1 n=e6 v=102
175302 Par ch=1 c=64 v=63
175318 Par ch=1 c=64 v=127
175440 On ch=1 n=b4 v=76
175510 On ch=1 n=g#5 v=0
175516 On ch=1 n=e4 v=0
175566 On ch=1 n=b5 v=0
175568 On ch=1 n=b4 v=0
175570 On ch=1 n=g#4 v=71
175584 On ch=1 n=e6 v=0
175634 On ch=1 n=b4 v=80
175652 On ch=1 n=g#4 v=0
175756 On ch=1 n=e6 v=114
175760 On ch=1 n=b4 v=0
175770 On ch=1 n=e4 v=64
175838 On ch=1 n=b4 v=68
175860 On ch=1 n=e4 v=0
175928 On ch=1 n=e6 v=0
175954 On ch=1 n=g#4 v=88
175964 On ch=1 n=b4 v=0
176042 On ch=1 n=b4 v=71
176060 On ch=1 n=g#4 v=0
176116 On ch=1 n=e6 v=103
176182 On ch=1 n=e6 v=0
176188 On ch=1 n=b4 v=0
176218 On ch=1 n=e4 v=90
176222 On ch=1 n=e6 v=118
176286 Par ch=1 c=64 v=63
176340 Par ch=1 c=64 v=127
176354 On ch=1 n=c5 v=74
176466 On ch=1 n=a4 v=87
176468 On ch=1 n=c5 v=0
176490 On ch=1 n=e4 v=0
176544 On ch=1 n=c5 v=84
176592 On ch=1 n=e6 v=0
176602 On ch=1 n=a4 v=0
176664 On ch=1 n=e6 v=117
176664 On ch=1 n=e4 v=94
176682 On ch=1 n=c5 v=0
176780 On ch=1 n=d5 v=85
176816 On ch=1 n=e6 v=0
176880 On ch=1 n=b4 v=103
176908 On ch=1 n=d5 v=0
176966 On ch=1 n=d5 v=90
176972 On ch=1 n=e4 v=0
177104 On ch=1 n=e4 v=73
177110 On ch=1 n=a6 v=107
177110 On ch=1 n=a5 v=97
177134 On ch=1 n=d5 v=0
177194 On ch=1 n=b4 v=0
177222 Par ch=1 c=64 v=63
177234 Par ch=1 c=64 v=0
177258 On ch=1 n=c5 v=82
177348 Par ch=1 c=64 v=63
177372 On ch=1 n=a4 v=82
177380 On ch=1 n=c5 v=0
177386 Par ch=1 c=64 v=127
177392 On ch=1 n=e4 v=0
177448 On ch=1 n=c5 v=83
177480 On ch=1 n=a4 v=0
177566 On ch=1 n=e4 v=87
177574 On ch=1 n=c5 v=0
177646 On ch=1 n=c5 v=71
177708 On ch=1 n=a5 v=0
177724 On ch=1 n=e4 v=0
177778 On ch=1 n=c5 v=0
177786 On ch=1 n=a4 v=68
177790 On ch=1 n=g6 v=84
177812 On ch=1 n=a6 v=0
177860 On ch=1 n=c5 v=74
177882 On ch=1 n=f6 v=99
177884 On ch=1 n=a4 v=0
177946 On ch=1 n=g6 v=0
177974 On ch=1 n=c5 v=0
177974 On ch=1 n=e4 v=81
177980 On ch=1 n=e6 v=102
178010 On ch=1 n=f6 v=0
178048 On ch=1 n=c5 v=73
178094 On ch=1 n=e4 v=0
178136 On ch=1 n=e6 v=0
178188 On ch=1 n=c5 v=0
178190 On ch=1 n=a4 v=71
178280 On ch=1 n=c5 v=84
178292 On ch=1 n=a4 v=0
178404 On ch=1 n=c5 v=0
178406 On ch=1 n=e4 v=75
178440 On ch=1 n=d#6 v=108
178494 On ch=1 n=c5 v=76
178532 On ch=1 n=e4 v=0
178544 On ch=1 n=d#6 v=0
178618 On ch=1 n=c5 v=0
178640 On ch=1 n=a4 v=53
178710 On ch=1 n=c5 v=64
178724 On ch=1 n=a4 v=0
178828 On ch=1 n=g#5 v=66
178878 On ch=1 n=c5 v=0
178880 Par ch=1 c=64 v=63
178890 On ch=1 n=e4 v=63
178890 On ch=1 n=b5 v=68
178898 Par ch=1 c=64 v=0
178934 On ch=1 n=e6 v=80
179040 On ch=1 n=b4 v=64
179068 Par ch=1 c=64 v=63
179092 Par ch=1 c=64 v=127
179094 On ch=1 n=e4 v=0
179168 On ch=1 n=b4 v=0
179170 On ch=1 n=g#4 v=61
179176 On ch=1 n=b5 v=0
179216 On ch=1 n=g#5 v=0
179242 On ch=1 n=e6 v=0
179246 On ch=1 n=g#4 v=0
179246 On ch=1 n=b4 v=60
179354 On ch=1 n=e4 v=72
179366 On ch=1 n=b4 v=0
179370 On ch=1 n=e6 v=92
179444 On ch=1 n=b4 v=55
179470 On ch=1 n=e4 v=0
179496 On ch=1 n=e6 v=0
179552 On ch=1 n=g#4 v=76
179560 On ch=1 n=b4 v=0
179644 On ch=1 n=b4 v=52
179672 On ch=1 n=g#4 v=0
179678 On ch=1 n=e6 v=97
179738 On ch=1 n=e6 v=0
179756 On ch=1 n=b4 v=0
179768 On ch=1 n=e6 v=89
179772 Par ch=1 c=64 v=63
179772 On ch=1 n=e4 v=73
179786 Par ch=1 c=64 v=0
179866 On ch=1 n=c5 v=79
179904 Par ch=1 c=64 v=63
179906 On ch=1 n=e4 v=0
179946 Par ch=1 c=64 v=127
179998 On ch=1 n=c5 v=0
180004 On ch=1 n=a4 v=67
180070 On ch=1 n=c5 v=73
180102 On ch=1 n=e6 v=0
180110 On ch=1 n=a4 v=0
180176 On ch=1 n=e6 v=92
180182 Par ch=1 c=64 v=63
180186 On ch=1 n=c5 v=0
180188 On ch=1 n=e4 v=79
180274 Par ch=1 c=64 v=127
180286 On ch=1 n=e6 v=0
180290 On ch=1 n=d5 v=76
180304 On ch=1 n=e4 v=0
180412 On ch=1 n=d5 v=0
180414 On ch=1 n=b4 v=76
180498 On ch=1 n=d5 v=66
180514 On ch=1 n=b4 v=0
180620 Par ch=1 c=64 v=63
180640 On ch=1 n=e4 v=75
180646 On ch=1 n=d5 v=0
180650 On ch=1 n=a6 v=94
180656 On ch=1 n=a5 v=70
180770 Par ch=1 c=64 v=127
180774 On ch=1 n=c5 v=70
180802 On ch=1 n=e4 v=0
180890 On ch=1 n=c5 v=0
180894 On ch=1 n=a4 v=60
180972 On ch=1 n=c5 v=71
180984 On ch=1 n=a4 v=0
181056 On ch=1 n=a5 v=0
181088 On ch=1 n=c5 v=0
181090 On ch=1 n=e4 v=77
181186 On ch=1 n=c5 v=57
181216 On ch=1 n=e4 v=0
181280 On ch=1 n=a6 v=0
181314 On ch=1 n=c5 v=0
181334 On ch=1 n=a4 v=52
181336 On ch=1 n=g6 v=75
181410 On ch=1 n=f6 v=83
181412 On ch=1 n=c5 v=63
181422 On ch=1 n=a4 v=0
181466 Par ch=1 c=64 v=63
181480 On ch=1 n=g6 v=0
181508 On ch=1 n=e6 v=87
181524 On ch=1 n=c5 v=0
181526 On ch=1 n=e4 v=70
181528 Par ch=1 c=64 v=127
181548 On ch=1 n=f6 v=0
181612 On ch=1 n=c5 v=56
181636 On ch=1 n=e4 v=0
181752 On ch=1 n=c5 v=0
181758 On ch=1 n=a4 v=55
181838 On ch=1 n=c5 v=69
181844 On ch=1 n=a4 v=0
181854 On ch=1 n=e6 v=0
181938 On ch=1 n=e4 v=75
181948 On ch=1 n=c5 v=0
181962 On ch=1 n=d#6 v=97
182036 On ch=1 n=c5 v=70
182042 On ch=1 n=d#6 v=0
182058 On ch=1 n=e4 v=0
182146 On ch=1 n=c5 v=0
182156 On ch=1 n=a4 v=71
182234 On ch=1 n=c5 v=81
182262 On ch=1 n=a4 v=0
182314 On ch=1 n=c5 v=0
182340 Par ch=1 c=64 v=63
182350 Par ch=1 c=64 v=0
182364 On ch=1 n=e6 v=104
182374 On ch=1 n=b4 v=117
182376 On ch=1 n=e4 v=112
182386 On ch=1 n=g#4 v=110
182412 Par ch=1 c=64 v=63
182438 Par ch=1 c=64 v=127
182466 On ch=1 n=g#4 v=0
182472 On ch=1 n=b4 v=0
182476 On ch=1 n=e4 v=0
182490 On ch=1 n=b5 v=71
182496 On ch=1 n=e6 v=0
182594 On ch=1 n=b5 v=0
182594 On ch=1 n=g#5 v=82
182676 On ch=1 n=g#5 v=0
182692 On ch=1 n=b5 v=68
182776 On ch=1 n=b5 v=0
182798 Par ch=1 c=64 v=63
182806 Par ch=1 c=64 v=0
182816 On ch=1 n=e6 v=116
182918 On ch=1 n=c6 v=100
182982 On ch=1 n=e6 v=0
183022 On ch=1 n=a5 v=84
183024 On ch=1 n=a4 v=107
183026 On ch=1 n=c6 v=0
183030 On ch=1 n=a3 v=108
183090 On ch=1 n=a4 v=0
183096 On ch=1 n=a3 v=0
183134 On ch=1 n=c6 v=84
183146 On ch=1 n=a5 v=0
183180 On ch=1 n=c6 v=0
183248 On ch=1 n=e6 v=111
183254 On ch=1 n=e4 v=116
183258 On ch=1 n=e3 v=121
183278 Par ch=1 c=64 v=63
183282 Par ch=1 c=64 v=127
183312 On ch=1 n=e4 v=0
183314 On ch=1 n=e3 v=0
183374 On ch=1 n=e6 v=0
183376 On ch=1 n=b5 v=90
183478 On ch=1 n=g#5 v=90
183482 On ch=1 n=b5 v=0
183570 On ch=1 n=g#5 v=0
183578 On ch=1 n=b5 v=86
183662 On ch=1 n=b5 v=0
183686 Par ch=1 c=64 v=63
183694 Par ch=1 c=64 v=0
183706 On ch=1 n=e6 v=117
183826 On ch=1 n=c6 v=102
183890 On ch=1 n=a4 v=111
183896 On ch=1 n=a3 v=107
183908 On ch=1 n=e6 v=0
183924 On ch=1 n=a5 v=86
183928 On ch=1 n=c6 v=0
183954 On ch=1 n=a4 v=0
183960 On ch=1 n=a3 v=0
184024 On ch=1 n=c6 v=90
184048 On ch=1 n=a5 v=0
184104 On ch=1 n=c6 v=0
184146 On ch=1 n=e6 v=102
184150 On ch=1 n=e4 v=120
184154 On ch=1 n=e3 v=120
184176 Par ch=1 c=64 v=63
184180 Par ch=1 c=64 v=127
184188 On ch=1 n=e3 v=0
184202 On ch=1 n=e4 v=0
184248 On ch=1 n=e6 v=0
184250 On ch=1 n=b5 v=90
184354 On ch=1 n=b5 v=0
184370 On ch=1 n=g#5 v=87
184468 On ch=1 n=b5 v=70
184474 On ch=1 n=g#5 v=0
184554 On ch=1 n=b5 v=0
184588 On ch=1 n=e6 v=111
184604 Par ch=1 c=64 v=63
184612 Par ch=1 c=64 v=0
184704 On ch=1 n=c6 v=106
184798 On ch=1 n=e6 v=0
184800 On ch=1 n=a5 v=83
184806 On ch=1 n=a4 v=99
184814 On ch=1 n=a3 v=100
184818 On ch=1 n=c6 v=0
184876 On ch=1 n=a4 v=0
184880 On ch=1 n=c6 v=94
184884 On ch=1 n=a3 v=0
184922 On ch=1 n=a5 v=0
184988 On ch=1 n=c6 v=0
185018 On ch=1 n=e4 v=114
185018 On ch=1 n=b5 v=92
185020 On ch=1 n=e3 v=117
185028 On ch=1 n=g#5 v=89
185080 On ch=1 n=e4 v=0
185084 On ch=1 n=e3 v=0
185112 On ch=1 n=g#5 v=0
185126 On ch=1 n=e6 v=97
185178 On ch=1 n=b5 v=0
185228 On ch=1 n=a4 v=108
185232 On ch=1 n=c6 v=97
185234 On ch=1 n=a3 v=96
185246 On ch=1 n=a5 v=76
185272 On ch=1 n=a4 v=0
185272 On ch=1 n=e6 v=0
185286 On ch=1 n=a3 v=0
185334 On ch=1 n=e6 v=93
185336 On ch=1 n=a5 v=0
185366 On ch=1 n=c6 v=0
185448 On ch=1 n=b5 v=94
185448 On ch=1 n=e4 v=113
185454 On ch=1 n=e3 v=106
185456 On ch=1 n=e6 v=0
185456 On ch=1 n=g#5 v=90
185484 On ch=1 n=e3 v=0
185502 On ch=1 n=e4 v=0
185510 On ch=1 n=g#5 v=0
185564 On ch=1 n=e6 v=90
185594 On ch=1 n=b5 v=0
185666 On ch=1 n=a4 v=111
185668 On ch=1 n=c6 v=92
185672 On ch=1 n=a3 v=107
185672 On ch=1 n=a5 v=83
185704 On ch=1 n=e6 v=0
185710 On ch=1 n=a4 v=0
185714 On ch=1 n=a3 v=0
185746 On ch=1 n=a5 v=0
185774 On ch=1 n=e6 v=79
185818 On ch=1 n=c6 v=0
185874 On ch=1 n=b5 v=96
185884 On ch=1 n=e4 v=111
185884 On ch=1 n=g#5 v=101
185894 On ch=1 n=e3 v=106
185920 On ch=1 n=e3 v=0
185922 On ch=1 n=e6 v=0
185930 On ch=1 n=e4 v=0
185948 On ch=1 n=g#5 v=0
185952 On ch=1 n=b5 v=0
186306 On ch=1 n=e5 v=67
186318 On ch=1 n=g#5 v=97
186332 On ch=1 n=b5 v=104
186354 On ch=1 n=e6 v=108
186360 On ch=1 n=e5 v=0
186362 Par ch=1 c=64 v=63
186368 Par ch=1 c=64 v=127
186370 On ch=1 n=e4 v=112
186380 On ch=1 n=e3 v=98
186388 On ch=1 n=g#5 v=0
186398 On ch=1 n=b5 v=0
186426 On ch=1 n=e6 v=0
186462 On ch=1 n=e3 v=0
186494 On ch=1 n=e4 v=0
186842 On ch=1 n=e4 v=76
186842 On ch=1 n=e3 v=82
186934 Par ch=1 c=64 v=63
187080 On ch=1 n=e3 v=0
187086 On ch=1 n=e6 v=71
187090 Par ch=1 c=64 v=0
187134 On ch=1 n=e4 v=0
187154 On ch=1 n=e6 v=0
187352 On ch=1 n=f#6 v=59
187394 On ch=1 n=f#6 v=0
187584 On ch=1 n=g#6 v=76
187660 On ch=1 n=g#6 v=0
187790 Par ch=1 c=64 v=63
187838 On ch=1 n=a6 v=52
187838 Par ch=1 c=64 v=127
187840 On ch=1 n=e5 v=51
187856 On ch=1 n=c5 v=38
187948 On ch=1 n=a6 v=0
187960 On ch=1 n=b6 v=56
188074 On ch=1 n=c5 v=0
188074 On ch=1 n=g#6 v=72
188076 On ch=1 n=b6 v=0
188076 On ch=1 n=d5 v=50
188096 On ch=1 n=e5 v=0
188102 On ch=1 n=f5 v=42
188158 On ch=1 n=b6 v=61
188196 On ch=1 n=g#6 v=0
188260 On ch=1 n=a6 v=82
188280 On ch=1 n=d5 v=0
188300 On ch=1 n=b6 v=0
188302 On ch=1 n=e5 v=63
188304 On ch=1 n=c5 v=52
188314 On ch=1 n=f5 v=0
188370 On ch=1 n=b6 v=81
188414 On ch=1 n=a6 v=0
188486 On ch=1 n=g#6 v=93
188506 On ch=1 n=b6 v=0
188528 On ch=1 n=c5 v=0
188530 On ch=1 n=f5 v=49
188530 On ch=1 n=d5 v=50
188554 On ch=1 n=e5 v=0
188572 On ch=1 n=b6 v=73
188604 On ch=1 n=g#6 v=0
188664 Par ch=1 c=64 v=63
188692 Par ch=1 c=64 v=0
188702 On ch=1 n=a6 v=78
188714 On ch=1 n=c5 v=56
188718 On ch=1 n=d5 v=0
188732 On ch=1 n=e5 v=65
188742 On ch=1 n=f5 v=0
188744 On ch=1 n=b6 v=0
188816 On ch=1 n=b6 v=63
188848 On ch=1 n=a6 v=0
188942 On ch=1 n=g6 v=71
188970 On ch=1 n=b6 v=0
189028 On ch=1 n=a6 v=85
189052 On ch=1 n=g6 v=0
189128 On ch=1 n=a6 v=0
189138 On ch=1 n=f6 v=88
189224 On ch=1 n=c5 v=0
189228 On ch=1 n=e5 v=0
189252 On ch=1 n=f6 v=0
189252 On ch=1 n=g6 v=75
189334 On ch=1 n=e6 v=71
189370 On ch=1 n=g6 v=0
189448 On ch=1 n=f6 v=79
189468 On ch=1 n=e6 v=0
189538 On ch=1 n=f6 v=0
189546 On ch=1 n=d6 v=74
189552 Par ch=1 c=64 v=63
189582 On ch=1 n=a5 v=55
189590 On ch=1 n=f5 v=33
189596 Par ch=1 c=64 v=127
189644 On ch=1 n=d6 v=0
189658 On ch=1 n=e6 v=79
189774 On ch=1 n=e6 v=0
189780 On ch=1 n=c#6 v=83
189814 On ch=1 n=g5 v=65
189816 On ch=1 n=a#5 v=78
189824 On ch=1 n=f5 v=0
189828 On ch=1 n=a5 v=0
189868 On ch=1 n=e6 v=76
189888 On ch=1 n=c#6 v=0
189962 Par ch=1 c=64 v=63
189982 On ch=1 n=d6 v=78
190012 On ch=1 n=a5 v=76
190018 On ch=1 n=a#5 v=0
190024 On ch=1 n=e6 v=0
190044 On ch=1 n=f5 v=40
190056 On ch=1 n=g5 v=0
190106 On ch=1 n=e6 v=71
190120 On ch=1 n=d6 v=0
190142 Par ch=1 c=64 v=127
190204 On ch=1 n=c#6 v=88
190206 On ch=1 n=a#5 v=75
190216 On ch=1 n=g5 v=61
190228 On ch=1 n=e6 v=0
190238 On ch=1 n=a5 v=0
190242 On ch=1 n=f5 v=0
190306 On ch=1 n=e6 v=67
190320 Par ch=1 c=64 v=63
190332 On ch=1 n=c#6 v=0
190372 On ch=1 n=a#5 v=0
190378 Par ch=1 c=64 v=0
190414 On ch=1 n=g5 v=0
190428 On ch=1 n=a5 v=48
190442 On ch=1 n=d6 v=71
190452 On ch=1 n=f5 v=50
190470 On ch=1 n=e6 v=0
190558 On ch=1 n=e6 v=57
190580 Par ch=1 c=64 v=63
190592 On ch=1 n=d6 v=0
190618 Par ch=1 c=64 v=127
190686 On ch=1 n=c6 v=58
190700 On ch=1 n=e6 v=0
190776 On ch=1 n=d6 v=75
190790 On ch=1 n=a5 v=0
190812 On ch=1 n=c6 v=0
190826 On ch=1 n=f5 v=0
190864 On ch=1 n=d6 v=0
190868 On ch=1 n=b5 v=81
190878 Par ch=1 c=64 v=63
190950 Par ch=1 c=64 v=0
190978 On ch=1 n=c6 v=85
190984 On ch=1 n=b5 v=0
191080 On ch=1 n=a5 v=69
191102 Par ch=1 c=64 v=63
191106 On ch=1 n=c6 v=0
191168 On ch=1 n=b5 v=84
191196 On ch=1 n=a5 v=0
191270 Par ch=1 c=64 v=127
191278 On ch=1 n=b5 v=0
191304 On ch=1 n=d5 v=32
191308 On ch=1 n=e4 v=43
191316 On ch=1 n=b4 v=45
191318 On ch=1 n=g#5 v=81
191322 Par ch=1 c=64 v=63
191406 On ch=1 n=d5 v=0
191410 On ch=1 n=b4 v=0
191410 On ch=1 n=b5 v=84
191422 On ch=1 n=g#5 v=0
191470 Par ch=1 c=64 v=127
191538 On ch=1 n=a5 v=77
191540 On ch=1 n=e4 v=0
191544 On ch=1 n=d5 v=63
191556 On ch=1 n=b4 v=49
191564 On ch=1 n=b5 v=0
191566 On ch=1 n=f4 v=53
191628 On ch=1 n=b5 v=76
191642 On ch=1 n=d5 v=0
191654 On ch=1 n=b4 v=0
191660 On ch=1 n=a5 v=0
191732 On ch=1 n=g#5 v=91
191734 On ch=1 n=f4 v=0
191746 On ch=1 n=d5 v=61
191748 On ch=1 n=b5 v=0
191750 On ch=1 n=e4 v=73
191752 On ch=1 n=b4 v=42
191810 On ch=1 n=b5 v=74
191836 On ch=1 n=d5 v=0
191838 On ch=1 n=b4 v=0
191850 On ch=1 n=g#5 v=0
191890 Par ch=1 c=64 v=63
191932 On ch=1 n=a5 v=75
191958 On ch=1 n=b5 v=0
191968 On ch=1 n=e4 v=0
191968 On ch=1 n=b4 v=47
191980 On ch=1 n=d5 v=29
191990 On ch=1 n=f4 v=52
192010 Par ch=1 c=64 v=0
192038 On ch=1 n=d5 v=0
192040 On ch=1 n=b5 v=67
192058 On ch=1 n=b4 v=0
192068 On ch=1 n=a5 v=0
192162 On ch=1 n=d5 v=54
192166 On ch=1 n=g#5 v=83
192176 On ch=1 n=b5 v=0
192178 On ch=1 n=f4 v=0
192182 On ch=1 n=b4 v=45
192184 Par ch=1 c=64 v=63
192194 On ch=1 n=e4 v=54
192240 Par ch=1 c=64 v=127
192248 On ch=1 n=b5 v=73
192278 On ch=1 n=g#5 v=0
192344 On ch=1 n=b5 v=0
192358 On ch=1 n=f5 v=80
192440 On ch=1 n=f5 v=0
192452 On ch=1 n=b5 v=82
192472 On ch=1 n=d5 v=0
192472 Par ch=1 c=64 v=63
192554 On ch=1 n=b4 v=0
192558 Par ch=1 c=64 v=0
192564 On ch=1 n=e5 v=79
192568 On ch=1 n=b5 v=0
192624 On ch=1 n=e4 v=0
192654 On ch=1 n=e5 v=0
192656 On ch=1 n=b5 v=83
192770 On ch=1 n=b5 v=0
192774 On ch=1 n=d5 v=77
192866 On ch=1 n=d5 v=0
192870 On ch=1 n=b5 v=82
192952 On ch=1 n=b5 v=0
192976 Par ch=1 c=64 v=63
192982 On ch=1 n=c5 v=76
193032 On ch=1 n=a4 v=34
193044 Par ch=1 c=64 v=127
193046 On ch=1 n=a3 v=43
193106 On ch=1 n=c5 v=0
193128 On ch=1 n=e5 v=65
193256 On ch=1 n=e5 v=0
193260 On ch=1 n=d#5 v=75
193318 Par ch=1 c=64 v=63
193354 On ch=1 n=d#5 v=0
193360 On ch=1 n=e5 v=78
193438 Par ch=1 c=64 v=0
193472 On ch=1 n=f5 v=74
193474 On ch=1 n=e5 v=0
193538 On ch=1 n=a4 v=0
193562 On ch=1 n=a3 v=0
193564 On ch=1 n=f5 v=0
193574 On ch=1 n=e5 v=68
193670 On ch=1 n=e5 v=0
193682 On ch=1 n=g#5 v=71
193742 On ch=1 n=g#5 v=0
193768 On ch=1 n=e5 v=57
193878 On ch=1 n=e5 v=0
193878 On ch=1 n=a5 v=81
193976 On ch=1 n=a5 v=0
193990 On ch=1 n=e5 v=65
194082 On ch=1 n=e5 v=0
194098 On ch=1 n=b5 v=92
194198 On ch=1 n=e5 v=69
194200 On ch=1 n=b5 v=0
194294 On ch=1 n=e5 v=0
194306 On ch=1 n=c6 v=92
194402 On ch=1 n=e5 v=79
194418 On ch=1 n=c6 v=0
194500 On ch=1 n=e5 v=0
194510 On ch=1 n=d6 v=92
194608 On ch=1 n=e5 v=74
194608 Par ch=1 c=64 v=63
194620 On ch=1 n=d6 v=0
194630 Par ch=1 c=64 v=127
194672 On ch=1 n=e5 v=0
194758 On ch=1 n=e6 v=96
194768 On ch=1 n=a5 v=62
194780 On ch=1 n=c5 v=59
194832 On ch=1 n=c5 v=0
194834 Par ch=1 c=64 v=63
194852 On ch=1 n=a5 v=0
194854 On ch=1 n=e6 v=0
194898 On ch=1 n=f6 v=82
194910 Par ch=1 c=64 v=127
194982 On ch=1 n=a5 v=69
195004 On ch=1 n=c5 v=59
195006 On ch=1 n=f6 v=0
195010 On ch=1 n=d#6 v=85
195070 On ch=1 n=c5 v=0
195078 On ch=1 n=a5 v=0
195080 On ch=1 n=f6 v=88
195110 On ch=1 n=d#6 v=0
195186 On ch=1 n=e6 v=89
195208 On ch=1 n=a5 v=76
195210 Par ch=1 c=64 v=63
195224 On ch=1 n=c5 v=68
195228 On ch=1 n=f6 v=0
195230 Par ch=1 c=64 v=0
195282 On ch=1 n=c5 v=0
195284 On ch=1 n=a5 v=0
195292 On ch=1 n=f6 v=89
195342 On ch=1 n=e6 v=0
195410 On ch=1 n=a5 v=74
195412 On ch=1 n=d#6 v=99
195430 On ch=1 n=c5 v=55
195432 On ch=1 n=f6 v=0
195482 On ch=1 n=c5 v=0
195494 On ch=1 n=a5 v=0
195520 On ch=1 n=f6 v=89
195542 On ch=1 n=d#6 v=0
195608 On ch=1 n=f6 v=0
195634 On ch=1 n=a5 v=65
195646 On ch=1 n=c5 v=62
195664 On ch=1 n=e6 v=84
195694 Par ch=1 c=64 v=63
195702 Par ch=1 c=64 v=127
195776 On ch=1 n=e6 v=0
195802 On ch=1 n=a6 v=79
195924 On ch=1 n=a6 v=0
195934 On ch=1 n=g#6 v=76
195986 On ch=1 n=a5 v=0
196038 On ch=1 n=a6 v=78
196050 On ch=1 n=g#6 v=0
196056 On ch=1 n=c5 v=0
196142 On ch=1 n=b6 v=91
196146 Par ch=1 c=64 v=63
196158 Par ch=1 c=64 v=127
196170 On ch=1 n=a6 v=0
196264 On ch=1 n=a6 v=81
196318 On ch=1 n=b6 v=0
196384 On ch=1 n=g#6 v=91
196396 On ch=1 n=a6 v=0
196456 On ch=1 n=a6 v=80
196486 On ch=1 n=g#6 v=0
196580 On ch=1 n=a6 v=0
196604 On ch=1 n=g6 v=88
196614 On ch=1 n=d4 v=75
196702 Par ch=1 c=64 v=63
196742 On ch=1 n=f6 v=85
196748 Par ch=1 c=64 v=127
196810 On ch=1 n=g6 v=0
196858 On ch=1 n=e6 v=76
196882 On ch=1 n=f6 v=0
196964 On ch=1 n=f6 v=82
196978 On ch=1 n=e6 v=0
197022 Par ch=1 c=64 v=63
197078 On ch=1 n=e6 v=88
197080 On ch=1 n=f4 v=85
197122 On ch=1 n=f6 v=0
197134 Par ch=1 c=64 v=127
197184 On ch=1 n=e6 v=0
197186 On ch=1 n=d6 v=84
197204 On ch=1 n=f4 v=0
197292 On ch=1 n=c#6 v=86
197298 On ch=1 n=d6 v=0
197392 On ch=1 n=c#6 v=0
197404 On ch=1 n=d6 v=87
197510 On ch=1 n=c6 v=90
197514 On ch=1 n=a#4 v=91
197532 Par ch=1 c=64 v=63
197538 On ch=1 n=d6 v=0
197556 On ch=1 n=d4 v=0
197622 On ch=1 n=a#5 v=101
197648 On ch=1 n=c6 v=0
197678 Par ch=1 c=64 v=127
197736 On ch=1 n=a#5 v=0
197736 On ch=1 n=a5 v=81
197858 On ch=1 n=a#5 v=104
197870 On ch=1 n=a5 v=0
197896 Par ch=1 c=64 v=63
197916 On ch=1 n=d4 v=76
197950 On ch=1 n=a#5 v=0
197968 Par ch=1 c=64 v=127
197970 On ch=1 n=a5 v=80
198070 On ch=1 n=a#5 v=90
198074 On ch=1 n=a5 v=0
198124 On ch=1 n=a#5 v=0
198180 On ch=1 n=c6 v=82
198276 On ch=1 n=d6 v=88
198296 On ch=1 n=c6 v=0
198370 On ch=1 n=c4 v=54
198374 On ch=1 n=f6 v=84
198394 On ch=1 n=d6 v=0
198470 On ch=1 n=d4 v=0
198470 Par ch=1 c=64 v=63
198500 On ch=1 n=e6 v=84
198514 On ch=1 n=f6 v=0
198556 Par ch=1 c=64 v=0
198588 On ch=1 n=d#6 v=93
198614 On ch=1 n=e6 v=0
198694 On ch=1 n=e6 v=87
198708 On ch=1 n=d#6 v=0
198806 On ch=1 n=g#4 v=95
198808 On ch=1 n=d6 v=96
198830 On ch=1 n=a#4 v=0
198848 On ch=1 n=e6 v=0
198910 On ch=1 n=c6 v=89
198932 On ch=1 n=g#4 v=0
198940 On ch=1 n=d6 v=0
199008 On ch=1 n=b5 v=79
199018 On ch=1 n=c6 v=0
199116 On ch=1 n=c6 v=85
199122 On ch=1 n=b5 v=0
199208 On ch=1 n=b5 v=82
199220 On ch=1 n=c6 v=0
199220 On ch=1 n=a4 v=84
199276 Par ch=1 c=64 v=63
199296 Par ch=1 c=64 v=127
199318 On ch=1 n=b5 v=0
199340 On ch=1 n=a5 v=83
199450 On ch=1 n=a5 v=0
199450 On ch=1 n=g#5 v=87
199554 On ch=1 n=c4 v=0
199554 On ch=1 n=a5 v=74
199562 On ch=1 n=g#5 v=0
199660 Par ch=1 c=64 v=63
199672 On ch=1 n=g#5 v=94
199680 On ch=1 n=a5 v=0
199680 On ch=1 n=c4 v=81
199730 Par ch=1 c=64 v=0
199774 On ch=1 n=g#5 v=0
199794 On ch=1 n=a5 v=77
199912 On ch=1 n=b5 v=83
199918 On ch=1 n=a5 v=0
200020 On ch=1 n=c6 v=77
200050 On ch=1 n=b5 v=0
200062 On ch=1 n=b3 v=60
200098 On ch=1 n=c4 v=0
200142 On ch=1 n=d6 v=84
200174 On ch=1 n=c6 v=0
200190 Par ch=1 c=64 v=63
200204 Par ch=1 c=64 v=127
200210 On ch=1 n=f6 v=81
200236 On ch=1 n=b3 v=0
200266 On ch=1 n=d6 v=0
200310 On ch=1 n=a4 v=0
200330 On ch=1 n=c6 v=88
200348 On ch=1 n=f6 v=0
200422 On ch=1 n=f6 v=85
200440 On ch=1 n=c6 v=0
200536 On ch=1 n=b5 v=91
200552 On ch=1 n=f6 v=0
200554 On ch=1 n=d5 v=86
200556 On ch=1 n=f4 v=74
200624 On ch=1 n=f6 v=86
200634 On ch=1 n=b5 v=0
200672 Par ch=1 c=64 v=63
200746 On ch=1 n=f6 v=0
200760 On ch=1 n=a5 v=82
200794 Par ch=1 c=64 v=127
200846 On ch=1 n=f6 v=73
200874 On ch=1 n=a5 v=0
200874 On ch=1 n=f4 v=0
200900 On ch=1 n=f6 v=0
200958 On ch=1 n=e4 v=84
201008 On ch=1 n=g#5 v=96
201068 On ch=1 n=d5 v=0
201130 On ch=1 n=b5 v=82
201134 On ch=1 n=g#5 v=0
201228 On ch=1 n=f5 v=86
201254 On ch=1 n=b5 v=0
201312 On ch=1 n=b5 v=82
201326 On ch=1 n=f5 v=0
201418 On ch=1 n=e5 v=93
201436 On ch=1 n=b5 v=0
201440 On ch=1 n=g#4 v=71
201442 On ch=1 n=b4 v=81
201462 Par ch=1 c=64 v=63
201488 Par ch=1 c=64 v=0
201526 On ch=1 n=e5 v=0
201544 On ch=1 n=b5 v=87
201566 Par ch=1 c=64 v=63
201622 Par ch=1 c=64 v=127
201650 On ch=1 n=d5 v=81
201662 On ch=1 n=b5 v=0
201748 On ch=1 n=d5 v=0
201766 On ch=1 n=b5 v=84
201822 On ch=1 n=b4 v=0
201830 On ch=1 n=e4 v=0
201854 On ch=1 n=b5 v=0
201876 On ch=1 n=g#4 v=0
201876 On ch=1 n=a4 v=65
201906 On ch=1 n=c5 v=88
201920 Par ch=1 c=64 v=63
201942 Par ch=1 c=64 v=0
201952 On ch=1 n=c5 v=0
202002 On ch=1 n=c6 v=84
202106 On ch=1 n=b5 v=97
202108 On ch=1 n=c6 v=0
202134 On ch=1 n=a4 v=0
202200 On ch=1 n=c6 v=99
202216 Par ch=1 c=64 v=63
202234 On ch=1 n=b5 v=0
202264 Par ch=1 c=64 v=127
202304 On ch=1 n=d6 v=99
202330 On ch=1 n=c6 v=0
202330 On ch=1 n=e4 v=86
202342 On ch=1 n=a3 v=72
202428 On ch=1 n=c6 v=90
202484 On ch=1 n=d6 v=0
202528 On ch=1 n=b5 v=96
202586 On ch=1 n=c6 v=0
202636 On ch=1 n=a5 v=96
202640 On ch=1 n=b5 v=0
202688 Par ch=1 c=64 v=63
202716 On ch=1 n=a3 v=0
202716 Par ch=1 c=64 v=0
202732 On ch=1 n=b3 v=84
202734 On ch=1 n=g#5 v=107
202754 On ch=1 n=a5 v=0
202820 On ch=1 n=g#5 v=0
202846 On ch=1 n=d6 v=100
202956 On ch=1 n=c#6 v=113
202984 On ch=1 n=e4 v=0
202988 On ch=1 n=d6 v=0
203058 On ch=1 n=d6 v=94
203082 On ch=1 n=b3 v=0
203106 On ch=1 n=c#6 v=0
203162 On ch=1 n=e6 v=99
203176 On ch=1 n=g#4 v=106
203186 On ch=1 n=d4 v=74
203192 On ch=1 n=e4 v=77
203196 On ch=1 n=d6 v=0
203288 On ch=1 n=d6 v=98
203330 Par ch=1 c=64 v=63
203342 Par ch=1 c=64 v=127
203348 On ch=1 n=e6 v=0
203398 On ch=1 n=c6 v=101
203400 On ch=1 n=e4 v=0
203440 On ch=1 n=d6 v=0
203462 On ch=1 n=g#4 v=0
203474 On ch=1 n=d4 v=0
203490 On ch=1 n=b5 v=102
203520 On ch=1 n=c6 v=0
203600 On ch=1 n=b5 v=0
203606 On ch=1 n=a5 v=97
203628 On ch=1 n=a4 v=96
203628 On ch=1 n=c4 v=89
203630 On ch=1 n=e4 v=92
203632 Par ch=1 c=64 v=63
203644 Par ch=1 c=64 v=0
203700 On ch=1 n=a5 v=0
203716 On ch=1 n=b5 v=102
203828 On ch=1 n=c6 v=98
203842 On ch=1 n=b5 v=0
203938 On ch=1 n=b5 v=87
203950 On ch=1 n=c6 v=0
203982 Par ch=1 c=64 v=63
203986 Par ch=1 c=64 v=127
204022 On ch=1 n=b5 v=0
204030 On ch=1 n=c6 v=97
204096 On ch=1 n=a4 v=0
204140 Par ch=1 c=64 v=63
204142 On ch=1 n=e4 v=0
204150 On ch=1 n=c6 v=0
204150 Par ch=1 c=64 v=0
204152 On ch=1 n=d#6 v=108
204154 On ch=1 n=c4 v=0
204248 On ch=1 n=e6 v=96
204250 On ch=1 n=d#6 v=0
204376 On ch=1 n=d#6 v=107
204388 On ch=1 n=e6 v=0
204424 Par ch=1 c=64 v=63
204424 Par ch=1 c=64 v=127
204458 On ch=1 n=d#6 v=0
204486 On ch=1 n=e6 v=92
204560 Par ch=1 c=64 v=63
204570 Par ch=1 c=64 v=0
204586 On ch=1 n=g#6 v=106
204590 On ch=1 n=e6 v=0
204688 On ch=1 n=a6 v=94
204712 On ch=1 n=g#6 v=0
204782 On ch=1 n=g#6 v=101
204830 On ch=1 n=a6 v=0
204900 On ch=1 n=a6 v=103
204914 On ch=1 n=a4 v=103
204914 On ch=1 n=e4 v=108
204920 On ch=1 n=g#6 v=0
204922 On ch=1 n=c#4 v=101
204922 Par ch=1 c=64 v=127
205028 On ch=1 n=g6 v=102
205088 On ch=1 n=a6 v=0
205134 On ch=1 n=f6 v=103
205188 On ch=1 n=g6 v=0
205218 On ch=1 n=e4 v=0
205240 On ch=1 n=e6 v=94
205250 On ch=1 n=c#4 v=0
205260 On ch=1 n=f6 v=0
205278 On ch=1 n=a4 v=0
205346 Par ch=1 c=64 v=63
205354 On ch=1 n=e6 v=0
205354 Par ch=1 c=64 v=0
205372 On ch=1 n=d4 v=117
205380 On ch=1 n=f6 v=104
205432 Par ch=1 c=64 v=63
205450 Par ch=1 c=64 v=127
205474 On ch=1 n=a4 v=79
205484 On ch=1 n=g6 v=101
205524 On ch=1 n=d4 v=0
205534 On ch=1 n=f6 v=0
205598 On ch=1 n=a4 v=0
205600 On ch=1 n=f4 v=84
205614 On ch=1 n=a6 v=97
205648 On ch=1 n=g6 v=0
205662 On ch=1 n=f4 v=0
205672 On ch=1 n=a4 v=81
205720 On ch=1 n=f6 v=99
205742 On ch=1 n=a6 v=0
205752 Par ch=1 c=64 v=63
205770 Par ch=1 c=64 v=0
205778 On ch=1 n=a4 v=0
205790 On ch=1 n=d4 v=114
205794 Par ch=1 c=64 v=63
205822 On ch=1 n=d6 v=92
205826 On ch=1 n=f6 v=0
205828 Par ch=1 c=64 v=127
205872 On ch=1 n=a4 v=85
205892 On ch=1 n=d4 v=0
205918 On ch=1 n=e6 v=100
205940 On ch=1 n=d6 v=0
205996 On ch=1 n=a4 v=0
205996 On ch=1 n=f4 v=82
206024 On ch=1 n=f6 v=104
206056 On ch=1 n=e6 v=0
206076 On ch=1 n=a4 v=67
206082 On ch=1 n=f4 v=0
206120 On ch=1 n=f6 v=0
206128 On ch=1 n=d6 v=91
206198 On ch=1 n=a4 v=0
206200 Par ch=1 c=64 v=63
206206 On ch=1 n=d6 v=0
206222 On ch=1 n=d4 v=101
206250 On ch=1 n=b5 v=100
206302 Par ch=1 c=64 v=127
206312 On ch=1 n=b4 v=85
206354 On ch=1 n=c6 v=98
206358 On ch=1 n=d4 v=0
206394 On ch=1 n=b5 v=0
206442 On ch=1 n=b4 v=0
206446 On ch=1 n=f4 v=89
206464 On ch=1 n=d6 v=90
206494 On ch=1 n=c6 v=0
206532 On ch=1 n=b4 v=74
206540 On ch=1 n=f4 v=0
206544 On ch=1 n=b5 v=99
206562 On ch=1 n=d6 v=0
206596 Par ch=1 c=64 v=63
206626 Par ch=1 c=64 v=0
206650 On ch=1 n=b5 v=0
206652 On ch=1 n=e6 v=107
206654 On ch=1 n=d4 v=107
206660 On ch=1 n=b4 v=0
206680 Par ch=1 c=64 v=63
206728 Par ch=1 c=64 v=127
206746 On ch=1 n=b4 v=77
206772 On ch=1 n=f6 v=107
206802 On ch=1 n=d4 v=0
206808 On ch=1 n=e6 v=0
206854 Par ch=1 c=64 v=63
206866 On ch=1 n=f4 v=88
206870 On ch=1 n=b4 v=0
206874 Par ch=1 c=64 v=0
206882 On ch=1 n=d6 v=98
206928 On ch=1 n=f6 v=0
206952 On ch=1 n=b4 v=68
206966 On ch=1 n=f4 v=0
206980 On ch=1 n=b5 v=97
206986 On ch=1 n=d6 v=0
207068 On ch=1 n=b4 v=0
207076 Par ch=1 c=64 v=63
207084 On ch=1 n=e4 v=102
207088 On ch=1 n=d#6 v=112
207088 Par ch=1 c=64 v=127
207090 On ch=1 n=b5 v=0
207176 On ch=1 n=c5 v=92
207180 On ch=1 n=e6 v=89
207208 On ch=1 n=e4 v=0
207222 On ch=1 n=d#6 v=0
207272 On ch=1 n=f6 v=99
207294 On ch=1 n=c5 v=0
207298 On ch=1 n=e6 v=0
207302 On ch=1 n=a4 v=78
207386 On ch=1 n=a4 v=0
207386 On ch=1 n=c5 v=78
207392 On ch=1 n=e6 v=97
207442 On ch=1 n=f6 v=0
207460 Par ch=1 c=64 v=63
207482 Par ch=1 c=64 v=0
207494 On ch=1 n=c5 v=0
207496 On ch=1 n=d6 v=101
207518 On ch=1 n=e4 v=97
207536 On ch=1 n=e6 v=0
207542 Par ch=1 c=64 v=63
207586 Par ch=1 c=64 v=127
207600 On ch=1 n=c5 v=82
207610 On ch=1 n=c6 v=101
207626 On ch=1 n=d6 v=0
207640 On ch=1 n=e4 v=0
207706 On ch=1 n=c6 v=0
207708 On ch=1 n=b5 v=92
207710 On ch=1 n=c5 v=0
207728 On ch=1 n=a4 v=62
207798 On ch=1 n=a4 v=0
207802 On ch=1 n=c5 v=80
207812 On ch=1 n=a5 v=94
207826 On ch=1 n=b5 v=0
207864 Par ch=1 c=64 v=63
207880 On ch=1 n=a5 v=0
207882 Par ch=1 c=64 v=0
207910 On ch=1 n=c5 v=0
207936 On ch=1 n=e4 v=91
207940 On ch=1 n=b5 v=109
207986 Par ch=1 c=64 v=63
208016 Par ch=1 c=64 v=127
208036 On ch=1 n=b5 v=0
208036 On ch=1 n=d5 v=65
208042 On ch=1 n=e4 v=0
208062 On ch=1 n=c6 v=84
208112 On ch=1 n=c6 v=0
208148 On ch=1 n=b5 v=76
208150 On ch=1 n=d5 v=0
208170 On ch=1 n=g#4 v=73
208208 On ch=1 n=c6 v=89
208212 On ch=1 n=b5 v=0
208226 On ch=1 n=g#4 v=0
208242 On ch=1 n=d5 v=78
208258 On ch=1 n=c6 v=0
208280 On ch=1 n=b5 v=76
208332 On ch=1 n=c6 v=89
208342 On ch=1 n=b5 v=0
208368 On ch=1 n=d5 v=0
208376 On ch=1 n=e4 v=84
208392 On ch=1 n=c6 v=0
208400 On ch=1 n=b5 v=88
208458 On ch=1 n=c6 v=83
208458 On ch=1 n=d5 v=65
208470 On ch=1 n=b5 v=0
208506 On ch=1 n=e4 v=0
208544 On ch=1 n=b5 v=90
208552 On ch=1 n=c6 v=0
208562 On ch=1 n=g#4 v=67
208576 On ch=1 n=d5 v=0
208636 On ch=1 n=b5 v=0
208638 On ch=1 n=a5 v=91
208658 On ch=1 n=g#4 v=0
208678 On ch=1 n=d5 v=60
208716 On ch=1 n=b5 v=89
208738 On ch=1 n=a5 v=0
208774 On ch=1 n=d5 v=0
208774 Par ch=1 c=64 v=63
208798 Par ch=1 c=64 v=0
208802 On ch=1 n=b5 v=0
208886 On ch=1 n=a4 v=51
208894 On ch=1 n=c5 v=50
209038 On ch=1 n=a6 v=68
209152 On ch=1 n=g6 v=61
209184 On ch=1 n=a6 v=0
209248 On ch=1 n=f6 v=76
209274 On ch=1 n=g6 v=0
209350 On ch=1 n=f6 v=0
209352 On ch=1 n=e6 v=74
209360 On ch=1 n=c5 v=0
209366 On ch=1 n=a4 v=0
209448 On ch=1 n=e6 v=0
209456 On ch=1 n=f6 v=75
209578 On ch=1 n=f6 v=0
209578 On ch=1 n=d#6 v=85
209662 On ch=1 n=f6 v=77
209672 On ch=1 n=d#6 v=0
209786 On ch=1 n=e6 v=72
209802 On ch=1 n=f6 v=0
209890 On ch=1 n=f6 v=78
209916 On ch=1 n=e6 v=0
210010 On ch=1 n=f6 v=0
210016 On ch=1 n=d#6 v=81
210122 On ch=1 n=d#6 v=0
210124 On ch=1 n=f6 v=77
210208 On ch=1 n=g#5 v=81
210232 On ch=1 n=e6 v=80
210250 On ch=1 n=f6 v=0
210256 On ch=1 n=g#5 v=0
210316 On ch=1 n=f6 v=76
210348 On ch=1 n=e6 v=0
210440 On ch=1 n=f6 v=0
210444 On ch=1 n=d6 v=82
210448 On ch=1 n=e5 v=78
210546 On ch=1 n=e6 v=65
210554 On ch=1 n=e5 v=0
210556 On ch=1 n=d6 v=0
210644 On ch=1 n=e6 v=0
210676 On ch=1 n=a5 v=65
210682 On ch=1 n=c6 v=57
210772 On ch=1 n=c6 v=0
210792 On ch=1 n=a6 v=77
210922 On ch=1 n=g6 v=61
210942 On ch=1 n=a6 v=0
211016 On ch=1 n=f6 v=77
211042 On ch=1 n=g6 v=0
211128 On ch=1 n=f6 v=0
211130 On ch=1 n=e6 v=71
211172 On ch=1 n=a5 v=0
211222 On ch=1 n=e6 v=0
211226 On ch=1 n=f6 v=84
211336 On ch=1 n=f6 v=0
211352 On ch=1 n=d#6 v=88
211446 On ch=1 n=f6 v=82
211458 On ch=1 n=d#6 v=0
211548 On ch=1 n=e6 v=79
211586 On ch=1 n=f6 v=0
211650 On ch=1 n=f6 v=79
211682 On ch=1 n=e6 v=0
211780 On ch=1 n=f6 v=0
211784 On ch=1 n=d#6 v=83
211858 On ch=1 n=f6 v=65
211886 On ch=1 n=d#6 v=0
211990 On ch=1 n=e6 v=70
212000 On ch=1 n=g#5 v=83
212010 On ch=1 n=f6 v=0
212068 On ch=1 n=g#5 v=0
212076 On ch=1 n=f6 v=82
212110 On ch=1 n=e6 v=0
212218 On ch=1 n=f6 v=0
212226 On ch=1 n=e5 v=61
212232 On ch=1 n=d6 v=72
212316 On ch=1 n=e5 v=0
212322 On ch=1 n=d6 v=0
212322 On ch=1 n=e6 v=71
212432 On ch=1 n=e6 v=0
212448 On ch=1 n=a5 v=68
212456 On ch=1 n=c6 v=73
212560 On ch=1 n=d6 v=78
212574 On ch=1 n=c6 v=0
212660 On ch=1 n=e6 v=81
212666 On ch=1 n=d6 v=0
212766 On ch=1 n=d6 v=84
212772 Par ch=1 c=64 v=63
212798 Par ch=1 c=64 v=127
212802 On ch=1 n=e6 v=0
212814 On ch=1 n=a5 v=0
212862 On ch=1 n=c6 v=89
212864 On ch=1 n=d6 v=0
212952 On ch=1 n=c6 v=0
212982 On ch=1 n=b5 v=89
213076 On ch=1 n=a5 v=78
213094 On ch=1 n=b5 v=0
213118 Par ch=1 c=64 v=63
213128 Par ch=1 c=64 v=0
213180 On ch=1 n=g#5 v=89
213186 On ch=1 n=a5 v=0
213306 On ch=1 n=a5 v=84
213310 On ch=1 n=e4 v=92
213312 On ch=1 n=a4 v=85
213316 On ch=1 n=c4 v=78
213318 On ch=1 n=g#5 v=0
213412 On ch=1 n=b5 v=85
213464 On ch=1 n=a5 v=0
213498 Par ch=1 c=64 v=63
213506 Par ch=1 c=64 v=127
213542 On ch=1 n=b5 v=0
213544 On ch=1 n=c6 v=84
213654 On ch=1 n=b5 v=88
213708 On ch=1 n=c6 v=0
213760 On ch=1 n=a5 v=88
213802 On ch=1 n=b5 v=0
213866 On ch=1 n=g5 v=91
213900 On ch=1 n=a5 v=0
213976 On ch=1 n=g5 v=0
213976 On ch=1 n=f5 v=89
214000 On ch=1 n=a4 v=0
214056 On ch=1 n=e4 v=0
214066 On ch=1 n=f5 v=0
214090 On ch=1 n=e5 v=89
214160 On ch=1 n=c4 v=0
214182 Par ch=1 c=64 v=63
214206 On ch=1 n=e5 v=0
214224 On ch=1 n=f4 v=66
214228 On ch=1 n=d5 v=93
214232 On ch=1 n=d4 v=61
214262 Par ch=1 c=64 v=63
214270 Par ch=1 c=64 v=127
214338 On ch=1 n=a#4 v=96
214346 On ch=1 n=d5 v=0
214414 On ch=1 n=a#4 v=0
214460 On ch=1 n=f5 v=77
214500 On ch=1 n=f5 v=0
214552 On ch=1 n=d5 v=90
214652 On ch=1 n=d5 v=0
214666 On ch=1 n=a#5 v=109
214744 On ch=1 n=a#5 v=0
214782 On ch=1 n=f5 v=85
214832 On ch=1 n=d4 v=0
214846 On ch=1 n=f4 v=0
214874 On ch=1 n=d6 v=101
214878 On ch=1 n=f5 v=0
214978 On ch=1 n=a#5 v=114
214998 On ch=1 n=d6 v=0
215076 On ch=1 n=a#5 v=0
215076 On ch=1 n=f6 v=111
215106 On ch=1 n=b4 v=103
215108 On ch=1 n=g#4 v=99
215112 On ch=1 n=f4 v=93
215116 On ch=1 n=d4 v=84
215156 On ch=1 n=f6 v=0
215204 On ch=1 n=d6 v=96
215224 Par ch=1 c=64 v=63
215238 Par ch=1 c=64 v=127
215296 On ch=1 n=d6 v=0
215320 On ch=1 n=g#6 v=103
215390 On ch=1 n=g#6 v=0
215418 On ch=1 n=f6 v=97
215518 On ch=1 n=f6 v=0
215528 On ch=1 n=b6 v=100
215634 On ch=1 n=g#6 v=115
215648 On ch=1 n=g#4 v=0
215650 On ch=1 n=d4 v=0
215656 On ch=1 n=b4 v=0
215660 On ch=1 n=f4 v=0
215672 On ch=1 n=b6 v=0
215730 On ch=1 n=g#6 v=0
215738 On ch=1 n=d7 v=113
215830 On ch=1 n=b6 v=108
215900 On ch=1 n=d7 v=0
215962 On ch=1 n=e7 v=114
215972 On ch=1 n=a4 v=109
215978 On ch=1 n=e4 v=103
215980 On ch=1 n=c4 v=102
215994 On ch=1 n=b6 v=0
216032 Par ch=1 c=64 v=63
216052 Par ch=1 c=64 v=0
216088 On ch=1 n=c7 v=98
216104 On ch=1 n=e7 v=0
216160 Par ch=1 c=64 v=63
216164 On ch=1 n=e4 v=0
216182 Par ch=1 c=64 v=127
216190 On ch=1 n=a6 v=103
216210 On ch=1 n=c7 v=0
216298 On ch=1 n=e6 v=91
216304 On ch=1 n=a6 v=0
216328 On ch=1 n=a4 v=0
216402 On ch=1 n=e6 v=0
216436 On ch=1 n=g6 v=100
216440 On ch=1 n=a4 v=108
216450 On ch=1 n=d4 v=97
216492 On ch=1 n=c4 v=0
216562 On ch=1 n=f6 v=106
216572 Par ch=1 c=64 v=63
216600 Par ch=1 c=64 v=0
216612 On ch=1 n=g6 v=0
216662 On ch=1 n=e6 v=109
216712 On ch=1 n=f6 v=0
216738 On ch=1 n=d6 v=103
216784 On ch=1 n=e6 v=0
216850 On ch=1 n=e4 v=92
216852 On ch=1 n=d6 v=0
216872 On ch=1 n=c6 v=114
216900 On ch=1 n=d4 v=0
216952 Par ch=1 c=64 v=63
216958 Par ch=1 c=64 v=127
217178 On ch=1 n=c6 v=0
217314 On ch=1 n=g#4 v=78
217330 On ch=1 n=b5 v=109
217352 On ch=1 n=a4 v=0
217378 On ch=1 n=c6 v=88
217402 On ch=1 n=b5 v=0
217462 On ch=1 n=c6 v=0
217462 On ch=1 n=b5 v=91
217508 On ch=1 n=c6 v=93
217522 On ch=1 n=e4 v=0
217528 On ch=1 n=b5 v=0
217546 On ch=1 n=g#4 v=0
217572 On ch=1 n=c6 v=0
217574 On ch=1 n=b5 v=85
217638 On ch=1 n=a5 v=94
217650 On ch=1 n=b5 v=0
217684 Par ch=1 c=64 v=63
217702 On ch=1 n=b5 v=84
217708 On ch=1 n=a5 v=0
217728 Par ch=1 c=64 v=127
217754 On ch=1 n=a5 v=103
217778 On ch=1 n=b5 v=0
217824 On ch=1 n=a5 v=0
217870 On ch=1 n=a5 v=91
217892 Par ch=1 c=64 v=63
217938 Par ch=1 c=64 v=0
217966 On ch=1 n=g5 v=84
217990 On ch=1 n=a5 v=0
218066 On ch=1 n=f5 v=78
218090 On ch=1 n=g5 v=0
218164 On ch=1 n=e5 v=81
218194 On ch=1 n=f5 v=0
218300 On ch=1 n=f5 v=68
218306 On ch=1 n=e5 v=0
218414 On ch=1 n=d#5 v=88
218434 On ch=1 n=f5 v=0
218528 On ch=1 n=f5 v=72
218538 On ch=1 n=d#5 v=0
218646 On ch=1 n=e5 v=82
218664 On ch=1 n=f5 v=0
218740 On ch=1 n=f5 v=76
218760 On ch=1 n=e5 v=0
218848 On ch=1 n=d#5 v=94
218878 On ch=1 n=f5 v=0
218956 On ch=1 n=f5 v=71
218968 On ch=1 n=d#5 v=0
219058 On ch=1 n=g#6 v=106
219062 On ch=1 n=b5 v=99
219078 On ch=1 n=e5 v=83
219092 On ch=1 n=f5 v=0
219156 On ch=1 n=f5 v=79
219162 On ch=1 n=g#6 v=0
219166 On ch=1 n=e5 v=0
219252 On ch=1 n=b5 v=0
219262 On ch=1 n=f5 v=0
219264 On ch=1 n=d5 v=94
219290 On ch=1 n=e6 v=107
219360 On ch=1 n=e6 v=0
219366 On ch=1 n=d5 v=0
219378 On ch=1 n=e5 v=78
219494 On ch=1 n=e5 v=0
219502 On ch=1 n=a6 v=106
219522 On ch=1 n=c6 v=84
219522 On ch=1 n=c5 v=85
219560 Par ch=1 c=64 v=63
219608 On ch=1 n=c5 v=0
219662 On ch=1 n=a5 v=70
219762 On ch=1 n=g5 v=88
219770 On ch=1 n=a5 v=0
219804 Par ch=1 c=64 v=0
219842 On ch=1 n=f5 v=89
219874 On ch=1 n=g5 v=0
219938 On ch=1 n=e5 v=85
219946 On ch=1 n=c6 v=0
219982 On ch=1 n=f5 v=0
219982 On ch=1 n=a6 v=0
220044 On ch=1 n=f5 v=84
220050 On ch=1 n=e5 v=0
220172 On ch=1 n=d#5 v=93
220174 On ch=1 n=f5 v=0
220252 On ch=1 n=f5 v=73
220266 On ch=1 n=d#5 v=0
220392 On ch=1 n=f5 v=0
220392 On ch=1 n=e5 v=81
220498 On ch=1 n=e5 v=0
220498 On ch=1 n=f5 v=79
220600 On ch=1 n=d#5 v=94
220616 On ch=1 n=f5 v=0
220700 On ch=1 n=f5 v=65
220704 On ch=1 n=d#5 v=0
220828 On ch=1 n=f5 v=0
220830 On ch=1 n=e5 v=77
220856 On ch=1 n=g#6 v=103
220862 On ch=1 n=b5 v=91
220908 On ch=1 n=f5 v=65
220914 On ch=1 n=b5 v=0
220916 On ch=1 n=e5 v=0
220940 On ch=1 n=g#6 v=0
221038 On ch=1 n=f5 v=0
221038 On ch=1 n=d5 v=77
221074 On ch=1 n=e6 v=85
221124 On ch=1 n=e6 v=0
221132 On ch=1 n=d5 v=0
221146 On ch=1 n=e5 v=72
221278 On ch=1 n=e5 v=0
221290 On ch=1 n=c5 v=75
221308 On ch=1 n=a6 v=102
221324 On ch=1 n=c6 v=89
221356 Par ch=1 c=64 v=63
221372 On ch=1 n=c5 v=0
221380 Par ch=1 c=64 v=127
221412 On ch=1 n=c6 v=0
221416 On ch=1 n=a6 v=0
221438 On ch=1 n=d5 v=66
221502 On ch=1 n=d5 v=0
221510 On ch=1 n=b4 v=84
221598 On ch=1 n=b4 v=0
221620 On ch=1 n=c5 v=73
221716 On ch=1 n=c5 v=0
221726 On ch=1 n=a4 v=88
221752 Par ch=1 c=64 v=63
221756 On ch=1 n=e6 v=113
221762 Par ch=1 c=64 v=0
221792 On ch=1 n=f6 v=104
221810 On ch=1 n=a4 v=0
221824 On ch=1 n=e6 v=0
221830 On ch=1 n=b4 v=74
221850 On ch=1 n=f6 v=0
221888 On ch=1 n=e6 v=68
221936 On ch=1 n=d6 v=97
221938 On ch=1 n=e6 v=0
221944 On ch=1 n=g4 v=76
221954 On ch=1 n=b4 v=0
222020 On ch=1 n=e6 v=94
222052 On ch=1 n=d6 v=0
222052 On ch=1 n=a4 v=77
222054 On ch=1 n=g4 v=0
222148 On ch=1 n=e6 v=0
222162 On ch=1 n=f4 v=99
222170 On ch=1 n=a4 v=0
222172 On ch=1 n=a6 v=120
222188 Par ch=1 c=64 v=63
222198 Par ch=1 c=64 v=127
222260 On ch=1 n=f4 v=0
222274 On ch=1 n=g4 v=90
222376 On ch=1 n=e4 v=100
222386 On ch=1 n=g4 v=0
222476 On ch=1 n=f4 v=97
222480 On ch=1 n=e4 v=0
222590 On ch=1 n=d4 v=103
222594 On ch=1 n=f4 v=0
222618 On ch=1 n=c6 v=114
222680 On ch=1 n=d6 v=101
222694 On ch=1 n=d4 v=0
222698 On ch=1 n=c6 v=0
222706 On ch=1 n=e4 v=90
222752 On ch=1 n=c6 v=94
222772 On ch=1 n=d6 v=0
222804 On ch=1 n=c4 v=98
222808 On ch=1 n=e4 v=0
222822 On ch=1 n=b5 v=104
222838 On ch=1 n=c6 v=0
222894 On ch=1 n=c6 v=61
222904 On ch=1 n=d4 v=97
222908 On ch=1 n=c4 v=0
222928 On ch=1 n=b5 v=0
222980 On ch=1 n=c6 v=0
223014 On ch=1 n=a6 v=0
223018 Par ch=1 c=64 v=63
223022 On ch=1 n=d4 v=0
223032 On ch=1 n=b3 v=113
223046 On ch=1 n=d6 v=109
223058 On ch=1 n=a3 v=60
223124 Par ch=1 c=64 v=127
223132 On ch=1 n=b3 v=0
223140 On ch=1 n=c4 v=99
223146 On ch=1 n=a3 v=0
223156 On ch=1 n=b3 v=67
223244 On ch=1 n=b3 v=0
223250 On ch=1 n=a3 v=90
223252 On ch=1 n=c4 v=0
223274 On ch=1 n=g3 v=66
223334 On ch=1 n=g3 v=0
223340 On ch=1 n=a3 v=0
223356 On ch=1 n=a3 v=57
223476 On ch=1 n=g#3 v=112
223476 On ch=1 n=b6 v=113
223486 On ch=1 n=a3 v=0
223510 Par ch=1 c=64 v=63
223568 On ch=1 n=a3 v=75
223570 On ch=1 n=g#3 v=0
223586 Par ch=1 c=64 v=127
223668 On ch=1 n=f#3 v=115
223682 On ch=1 n=a3 v=0
223726 On ch=1 n=d6 v=0
223778 On ch=1 n=g#3 v=108
223828 On ch=1 n=c7 v=113
223830 On ch=1 n=f#3 v=0
223862 Par ch=1 c=64 v=63
223876 On ch=1 n=b6 v=0
223902 On ch=1 n=g#3 v=0
223906 On ch=1 n=e3 v=104
223908 On ch=1 n=d7 v=121
223912 Par ch=1 c=64 v=127
223966 On ch=1 n=c7 v=0
224022 On ch=1 n=f3 v=70
224028 On ch=1 n=e3 v=0
224046 On ch=1 n=d7 v=0
224100 On ch=1 n=f3 v=0
224124 On ch=1 n=d3 v=116
224216 On ch=1 n=e3 v=98
224224 On ch=1 n=d3 v=0
224324 On ch=1 n=e3 v=0
224338 On ch=1 n=c3 v=109
224364 On ch=1 n=g#6 v=125
224372 On ch=1 n=e6 v=112
224426 On ch=1 n=c3 v=0
224434 On ch=1 n=d3 v=102
224472 On ch=1 n=a6 v=84
224488 On ch=1 n=g#6 v=0
224538 On ch=1 n=g#6 v=99
224544 On ch=1 n=b2 v=112
224558 On ch=1 n=d3 v=0
224586 On ch=1 n=a6 v=0
224624 On ch=1 n=f#6 v=105
224638 On ch=1 n=g#6 v=0
224638 On ch=1 n=d3 v=96
224668 On ch=1 n=b2 v=0
224700 On ch=1 n=g#6 v=94
224708 On ch=1 n=e6 v=0
224742 On ch=1 n=f#6 v=0
224752 Par ch=1 c=64 v=63
224764 Par ch=1 c=64 v=0
224772 On ch=1 n=g#6 v=0
224808 On ch=1 n=c3 v=122
224816 On ch=1 n=a6 v=114
224822 On ch=1 n=e6 v=111
224834 Par ch=1 c=64 v=63
224842 On ch=1 n=d3 v=0
224862 Par ch=1 c=64 v=127
224890 On ch=1 n=c3 v=0
224928 On ch=1 n=g#6 v=112
224962 On ch=1 n=a6 v=0
224986 On ch=1 n=e6 v=0
225020 Par ch=1 c=64 v=63
225028 Par ch=1 c=64 v=0
225038 On ch=1 n=a6 v=107
225074 On ch=1 n=g#6 v=0
225118 On ch=1 n=e6 v=109
225166 On ch=1 n=a6 v=0
225216 On ch=1 n=e6 v=0
225222 Par ch=1 c=64 v=63
225232 Par ch=1 c=64 v=127
225244 On ch=1 n=d3 v=127
225250 On ch=1 n=g6 v=109
225258 On ch=1 n=b5 v=100
225350 On ch=1 n=d3 v=0
225358 On ch=1 n=f6 v=104
225476 On ch=1 n=e6 v=109
225478 On ch=1 n=g6 v=0
225550 On ch=1 n=f6 v=0
225570 On ch=1 n=b5 v=0
225578 On ch=1 n=d6 v=72
225606 On ch=1 n=e6 v=0
225620 On ch=1 n=d6 v=0
225628 Par ch=1 c=64 v=63
225636 Par ch=1 c=64 v=0
225686 On ch=1 n=e3 v=122
225688 On ch=1 n=c6 v=122
225702 On ch=1 n=a5 v=107
225760 Par ch=1 c=64 v=63
225778 Par ch=1 c=64 v=127
225780 On ch=1 n=e3 v=0
225804 On ch=1 n=d6 v=107
225860 On ch=1 n=c6 v=0
225894 On ch=1 n=e6 v=106
225950 On ch=1 n=d6 v=0
225994 On ch=1 n=c6 v=102
226000 On ch=1 n=a5 v=0
226046 On ch=1 n=e6 v=0
226068 Par ch=1 c=64 v=63
226082 Par ch=1 c=64 v=0
226118 On ch=1 n=c6 v=0
226140 On ch=1 n=e3 v=125
226140 On ch=1 n=b5 v=103
226146 Par ch=1 c=64 v=63
226160 On ch=1 n=g#5 v=94
226166 Par ch=1 c=64 v=127
226262 On ch=1 n=g#5 v=0
226262 On ch=1 n=e3 v=0
226272 On ch=1 n=c6 v=100
226326 On ch=1 n=b5 v=0
226380 On ch=1 n=d6 v=101
226456 On ch=1 n=c6 v=0
226490 On ch=1 n=b5 v=116
226560 On ch=1 n=d6 v=0
226570 On ch=1 n=b5 v=0
226652 Par ch=1 c=64 v=63
226660 Par ch=1 c=64 v=0
226706 On ch=1 n=g#4 v=115
226706 On ch=1 n=b4 v=121
226710 On ch=1 n=f4 v=104
226710 On ch=1 n=d7 v=125
226710 On ch=1 n=d4 v=107
226770 Par ch=1 c=64 v=127
226914 On ch=1 n=f7 v=108
226958 On ch=1 n=d7 v=0
227068 On ch=1 n=b6 v=103
227094 On ch=1 n=f7 v=0
227152 On ch=1 n=b6 v=0
227200 On ch=1 n=d7 v=109
227310 On ch=1 n=d7 v=0
227338 On ch=1 n=g#6 v=110
227410 On ch=1 n=g#6 v=0
227438 On ch=1 n=b6 v=102
227540 On ch=1 n=b6 v=0
227568 On ch=1 n=f6 v=100
227652 On ch=1 n=f6 v=0
227674 On ch=1 n=g#6 v=113
227768 On ch=1 n=g#6 v=0
227776 On ch=1 n=d6 v=98
227852 On ch=1 n=d6 v=0
227886 On ch=1 n=f6 v=109
227978 On ch=1 n=b5 v=109
227994 On ch=1 n=f6 v=0
228060 On ch=1 n=b5 v=0
228074 On ch=1 n=d6 v=103
228146 On ch=1 n=d6 v=0
228184 On ch=1 n=g#5 v=114
228264 On ch=1 n=g#5 v=0
228272 On ch=1 n=b5 v=99
228384 On ch=1 n=b5 v=0
228396 On ch=1 n=f5 v=99
228418 On ch=1 n=f4 v=0
228424 On ch=1 n=d4 v=0
228452 On ch=1 n=g#4 v=0
228492 On ch=1 n=b4 v=0
228504 On ch=1 n=g#5 v=118
228516 On ch=1 n=f5 v=0
228568 On ch=1 n=g#5 v=0
228826 On ch=1 n=c5 v=117
228884 On ch=1 n=f#6 v=125
228886 On ch=1 n=c7 v=122
228888 On ch=1 n=c6 v=116
228890 On ch=1 n=a6 v=106
228892 On ch=1 n=d#6 v=114
228926 On ch=1 n=a6 v=0
228942 Par ch=1 c=64 v=63
228954 Par ch=1 c=64 v=0
229028 Par ch=1 c=64 v=63
229054 Par ch=1 c=64 v=127
229082 On ch=1 n=a6 v=65
229176 On ch=1 n=d#5 v=104
229224 On ch=1 n=c5 v=0
229310 On ch=1 n=d#5 v=0
229310 On ch=1 n=a4 v=96
229424 On ch=1 n=c5 v=97
229430 On ch=1 n=a4 v=0
229522 On ch=1 n=f#4 v=114
229526 On ch=1 n=c5 v=0
229598 On ch=1 n=f#4 v=0
229622 On ch=1 n=a4 v=96
229708 On ch=1 n=d#4 v=116
229728 On ch=1 n=a4 v=0
229794 On ch=1 n=f#4 v=107
229814 On ch=1 n=d#4 v=0
229906 On ch=1 n=c4 v=107
229954 On ch=1 n=f#4 v=0
229996 On ch=1 n=d#4 v=105
230052 On ch=1 n=c4 v=0
230086 On ch=1 n=d#4 v=0
230136 On ch=1 n=a3 v=98
230240 On ch=1 n=a3 v=0
230256 On ch=1 n=c4 v=103
230356 On ch=1 n=f#3 v=114
230382 On ch=1 n=c4 v=0
230458 On ch=1 n=f#3 v=0
230458 On ch=1 n=a3 v=99
230552 On ch=1 n=d#3 v=118
230572 On ch=1 n=c7 v=0
230592 On ch=1 n=a3 v=0
230600 On ch=1 n=a6 v=0
230600 On ch=1 n=f#6 v=0
230640 On ch=1 n=d#6 v=0
230650 On ch=1 n=f#3 v=112
230652 On ch=1 n=c6 v=0
230704 On ch=1 n=d#3 v=0
230768 On ch=1 n=f#3 v=0
230770 On ch=1 n=e3 v=122
230930 On ch=1 n=a6 v=112
230960 Par ch=1 c=64 v=63
230972 Par ch=1 c=64 v=0
231018 On ch=1 n=e6 v=108
231062 On ch=1 n=a6 v=0
231104 Par ch=1 c=64 v=63
231122 Par ch=1 c=64 v=127
231128 On ch=1 n=c6 v=108
231164 On ch=1 n=e6 v=0
231194 On ch=1 n=e3 v=0
231226 On ch=1 n=a5 v=91
231228 On ch=1 n=c6 v=0
231296 On ch=1 n=a5 v=0
231334 On ch=1 n=e5 v=106
231382 On ch=1 n=e4 v=98
231424 On ch=1 n=c5 v=111
231442 On ch=1 n=e5 v=0
231466 On ch=1 n=c4 v=100
231502 On ch=1 n=e4 v=0
231516 On ch=1 n=c5 v=0
231524 On ch=1 n=a4 v=104
231552 On ch=1 n=a4 v=0
231552 On ch=1 n=a3 v=100
231610 On ch=1 n=c4 v=0
231658 On ch=1 n=e5 v=117
231662 On ch=1 n=e3 v=121
231688 Par ch=1 c=64 v=63
231696 Par ch=1 c=64 v=0
231712 On ch=1 n=a3 v=0
231752 On ch=1 n=e5 v=0
231764 On ch=1 n=e3 v=0
232196 On ch=1 n=e6 v=108
232202 On ch=1 n=b5 v=104
232202 On ch=1 n=g#5 v=108
232204 On ch=1 n=e4 v=117
232204 On ch=1 n=e5 v=108
232250 Par ch=1 c=64 v=127
232298 On ch=1 n=e4 v=0
232362 On ch=1 n=e5 v=0
232364 On ch=1 n=g#5 v=0
232388 On ch=1 n=e6 v=0
232408 On ch=1 n=b5 v=0
232736 Par ch=1 c=64 v=63
232742 Par ch=1 c=64 v=0
232888 On ch=1 n=a5 v=84
232908 On ch=1 n=a4 v=59
232924 Par ch=1 c=64 v=127
233034 On ch=1 n=b4 v=71
233046 On ch=1 n=a4 v=0
233128 On ch=1 n=b4 v=0
233144 On ch=1 n=c5 v=84
233168 On ch=1 n=a5 v=0
233238 On ch=1 n=c5 v=0
233242 On ch=1 n=b4 v=68
233336 On ch=1 n=c6 v=90
233340 On ch=1 n=a5 v=82
233340 On ch=1 n=a4 v=84
233372 On ch=1 n=b4 v=0
233430 On ch=1 n=a5 v=0
233434 On ch=1 n=a4 v=0
233438 On ch=1 n=c6 v=0
233446 On ch=1 n=g4 v=82
233564 On ch=1 n=g4 v=0
233566 On ch=1 n=f4 v=81
233662 On ch=1 n=f4 v=0
233668 On ch=1 n=e4 v=89
233710 On ch=1 n=c6 v=97
233718 On ch=1 n=a5 v=74
233760 On ch=1 n=a5 v=0
233766 On ch=1 n=f4 v=96
233770 On ch=1 n=c6 v=0
233792 On ch=1 n=e4 v=0
233808 On ch=1 n=c6 v=99
233810 On ch=1 n=a5 v=92
233918 On ch=1 n=f4 v=0
233932 On ch=1 n=a5 v=0
233936 On ch=1 n=g4 v=78
233956 On ch=1 n=c6 v=0
234036 On ch=1 n=a4 v=87
234050 On ch=1 n=g4 v=0
234132 On ch=1 n=g4 v=89
234136 On ch=1 n=a4 v=0
234232 On ch=1 n=c6 v=109
234236 On ch=1 n=a5 v=94
234238 On ch=1 n=f4 v=84
234252 On ch=1 n=g4 v=0
234308 On ch=1 n=a5 v=0
234322 On ch=1 n=c6 v=0
234346 On ch=1 n=e4 v=94
234362 On ch=1 n=f4 v=0
234446 On ch=1 n=d4 v=91
234462 On ch=1 n=e4 v=0
234540 On ch=1 n=c4 v=102
234560 On ch=1 n=d4 v=0
234586 On ch=1 n=c6 v=107
234598 On ch=1 n=a5 v=83
234608 Par ch=1 c=64 v=63
234618 Par ch=1 c=64 v=0
234636 On ch=1 n=a5 v=0
234656 On ch=1 n=c6 v=0
234672 On ch=1 n=d4 v=90
234684 On ch=1 n=a5 v=93
234688 On ch=1 n=b5 v=111
234700 On ch=1 n=c4 v=0
234770 Par ch=1 c=64 v=63
234780 Par ch=1 c=64 v=127
234782 On ch=1 n=e4 v=90
234822 On ch=1 n=d4 v=0
234888 On ch=1 n=e4 v=0
234896 On ch=1 n=f4 v=96
234970 On ch=1 n=b5 v=0
234970 On ch=1 n=a5 v=0
235006 On ch=1 n=e4 v=93
235028 On ch=1 n=f4 v=0
235086 On ch=1 n=d4 v=106
235116 On ch=1 n=e4 v=0
235138 On ch=1 n=a5 v=100
235138 On ch=1 n=b5 v=107
235214 On ch=1 n=b3 v=106
235228 On ch=1 n=d4 v=0
235276 On ch=1 n=b5 v=0
235296 On ch=1 n=a5 v=0
235348 On ch=1 n=c4 v=92
235368 On ch=1 n=d4 v=102
235388 On ch=1 n=b3 v=0
235444 On ch=1 n=a5 v=86
235444 On ch=1 n=b5 v=96
235478 On ch=1 n=c4 v=0
235502 On ch=1 n=e4 v=107
235510 On ch=1 n=d4 v=0
235514 On ch=1 n=a5 v=0
235536 On ch=1 n=b5 v=0
235568 On ch=1 n=b5 v=100
235570 On ch=1 n=e6 v=108
235576 On ch=1 n=g#5 v=112
235596 Par ch=1 c=64 v=63
235612 Par ch=1 c=64 v=0
235668 On ch=1 n=d#4 v=104
235710 On ch=1 n=e4 v=0
235730 Par ch=1 c=64 v=63
235746 Par ch=1 c=64 v=127
235770 On ch=1 n=d#4 v=0
235772 On ch=1 n=e4 v=85
235826 On ch=1 n=g#5 v=0
235846 On ch=1 n=e6 v=0
235872 On ch=1 n=b5 v=0
235882 On ch=1 n=d#4 v=105
235920 On ch=1 n=e4 v=0
235984 On ch=1 n=d#4 v=0
235998 On ch=1 n=e6 v=118
236000 On ch=1 n=b5 v=114
236002 On ch=1 n=g#5 v=116
236004 On ch=1 n=e4 v=100
236090 On ch=1 n=g#5 v=0
236104 On ch=1 n=b5 v=0
236112 On ch=1 n=d4 v=96
236118 On ch=1 n=e6 v=0
236128 On ch=1 n=e4 v=0
236216 On ch=1 n=c4 v=98
236238 On ch=1 n=d4 v=0
236288 On ch=1 n=b3 v=97
236316 On ch=1 n=e6 v=92
236322 On ch=1 n=b5 v=83
236324 On ch=1 n=g#5 v=85
236330 On ch=1 n=c4 v=0
236360 On ch=1 n=g#5 v=0
236364 On ch=1 n=b5 v=0
236390 On ch=1 n=e6 v=0
236398 On ch=1 n=b3 v=0
236406 On ch=1 n=a3 v=108
236408 Par ch=1 c=64 v=63
236418 Par ch=1 c=64 v=0
236430 On ch=1 n=c6 v=122
236432 On ch=1 n=a5 v=117
236502 Par ch=1 c=64 v=63
236516 On ch=1 n=b3 v=104
236524 Par ch=1 c=64 v=127
236578 On ch=1 n=a3 v=0
236618 On ch=1 n=a5 v=0
236626 On ch=1 n=c6 v=0
236638 On ch=1 n=b3 v=0
236640 On ch=1 n=c4 v=108
236738 On ch=1 n=b3 v=99
236778 On ch=1 n=c4 v=0
236836 On ch=1 n=a3 v=104
236878 On ch=1 n=c6 v=118
236880 On ch=1 n=a6 v=117
236882 On ch=1 n=b3 v=0
236884 On ch=1 n=a5 v=113
236940 On ch=1 n=g3 v=103
236944 On ch=1 n=a3 v=0
236954 On ch=1 n=c6 v=0
236966 On ch=1 n=a5 v=0
236996 On ch=1 n=a6 v=0
237064 On ch=1 n=f3 v=106
237088 On ch=1 n=g3 v=0
237196 On ch=1 n=f3 v=0
237196 On ch=1 n=e3 v=108
237242 On ch=1 n=c6 v=96
237242 On ch=1 n=a6 v=99
237248 On ch=1 n=a5 v=80
237276 On ch=1 n=c6 v=0
237278 On ch=1 n=a6 v=0
237294 On ch=1 n=a5 v=0
237316 On ch=1 n=f3 v=111
237316 On ch=1 n=a6 v=106
237322 On ch=1 n=c6 v=104
237326 On ch=1 n=a5 v=99
237366 On ch=1 n=e3 v=0
237432 On ch=1 n=f3 v=0
237436 On ch=1 n=g3 v=104
237534 On ch=1 n=a3 v=102
237536 On ch=1 n=a5 v=0
237546 On ch=1 n=c6 v=0
237556 On ch=1 n=g3 v=0
237560 On ch=1 n=a6 v=0
237638 On ch=1 n=g3 v=99
237640 On ch=1 n=a3 v=0
237740 On ch=1 n=f3 v=107
237762 On ch=1 n=g3 v=0
237766 On ch=1 n=a6 v=118
237768 On ch=1 n=c6 v=117
237770 On ch=1 n=a5 v=114
237830 On ch=1 n=a5 v=0
237832 On ch=1 n=c6 v=0
237846 On ch=1 n=e3 v=104
237866 On ch=1 n=f3 v=0
237876 On ch=1 n=a6 v=0
237938 On ch=1 n=d3 v=92
237960 On ch=1 n=e3 v=0
238048 On ch=1 n=c3 v=100
238084 On ch=1 n=d3 v=0
238112 On ch=1 n=a6 v=111
238114 On ch=1 n=c6 v=111
238120 On ch=1 n=a5 v=98
238152 On ch=1 n=a5 v=0
238176 On ch=1 n=c6 v=0
238194 On ch=1 n=d3 v=100
238220 On ch=1 n=f6 v=118
238224 On ch=1 n=b5 v=120
238230 Par ch=1 c=64 v=63
238238 Par ch=1 c=64 v=0
238248 On ch=1 n=c3 v=0
238300 On ch=1 n=e3 v=101
238372 Par ch=1 c=64 v=63
238376 On ch=1 n=d3 v=0
238390 Par ch=1 c=64 v=127
238418 On ch=1 n=f3 v=108
238434 On ch=1 n=e3 v=0
238510 On ch=1 n=a6 v=0
238522 On ch=1 n=b5 v=0
238532 On ch=1 n=e3 v=103
238548 On ch=1 n=f6 v=0
238554 On ch=1 n=f3 v=0
238624 On ch=1 n=d3 v=106
238650 On ch=1 n=e3 v=0
238664 On ch=1 n=f6 v=114
238670 On ch=1 n=a6 v=112
238672 On ch=1 n=b5 v=120
238744 On ch=1 n=b2 v=112
238768 On ch=1 n=d3 v=0
238824 On ch=1 n=b5 v=0
238844 On ch=1 n=a6 v=0
238864 On ch=1 n=f6 v=0
238888 On ch=1 n=c3 v=103
238944 On ch=1 n=d3 v=103
238948 On ch=1 n=b2 v=0
238998 On ch=1 n=a6 v=106
239010 On ch=1 n=b5 v=100
239054 On ch=1 n=b5 v=0
239068 On ch=1 n=c3 v=0
239070 On ch=1 n=e3 v=116
239076 On ch=1 n=a6 v=0
239098 On ch=1 n=d3 v=0
239114 On ch=1 n=b5 v=84
239118 On ch=1 n=g#6 v=118
239124 Par ch=1 c=64 v=63
239126 On ch=1 n=f6 v=96
239128 On ch=1 n=e6 v=108
239136 Par ch=1 c=64 v=0
239138 On ch=1 n=c6 v=61
239142 On ch=1 n=a6 v=80
239178 On ch=1 n=f6 v=0
239208 On ch=1 n=c6 v=0
239210 On ch=1 n=d#3 v=115
239212 Par ch=1 c=64 v=63
239228 On ch=1 n=a6 v=0
239232 Par ch=1 c=64 v=127
239262 On ch=1 n=e3 v=0
239318 On ch=1 n=e3 v=108
239332 On ch=1 n=d#3 v=0
239396 On ch=1 n=b5 v=0
239422 On ch=1 n=g#6 v=0
239426 On ch=1 n=e6 v=0
239440 On ch=1 n=d#3 v=118
239490 On ch=1 n=e3 v=0
239552 On ch=1 n=b5 v=124
239552 On ch=1 n=g#6 v=125
239552 On ch=1 n=e6 v=122
239560 On ch=1 n=e3 v=109
239576 On ch=1 n=d#3 v=0
239604 On ch=1 n=b5 v=0
239612 On ch=1 n=e6 v=0
239632 On ch=1 n=g#6 v=0
239678 On ch=1 n=d3 v=107
239716 On ch=1 n=e3 v=0
239796 On ch=1 n=c3 v=102
239822 On ch=1 n=d3 v=0
239876 On ch=1 n=b2 v=99
239914 On ch=1 n=b5 v=114
239916 On ch=1 n=e6 v=120
239924 On ch=1 n=c3 v=0
239936 On ch=1 n=g#6 v=63
239970 On ch=1 n=b5 v=0
239972 On ch=1 n=e6 v=0
239980 On ch=1 n=g#6 v=0
240010 On ch=1 n=a2 v=125
240020 On ch=1 n=a6 v=118
240020 On ch=1 n=c6 v=121
240022 On ch=1 n=e6 v=117
240038 Par ch=1 c=64 v=63
240048 Par ch=1 c=64 v=0
240078 On ch=1 n=b2 v=0
240148 On ch=1 n=e6 v=0
240152 On ch=1 n=c6 v=0
240158 On ch=1 n=a6 v=0
240218 On ch=1 n=a2 v=0
240510 On ch=1 n=e6 v=127
240514 On ch=1 n=c6 v=124
240514 On ch=1 n=a3 v=122
240516 On ch=1 n=a5 v=124
240518 On ch=1 n=a2 v=122
240580 On ch=1 n=a5 v=0
240582 On ch=1 n=c6 v=0
240602 On ch=1 n=e6 v=0
240652 On ch=1 n=a2 v=0
240660 On ch=1 n=a3 v=0
241044 On ch=1 n=e5 v=124
241046 On ch=1 n=c6 v=125
241048 On ch=1 n=a5 v=113
241050 On ch=1 n=a2 v=99
241054 On ch=1 n=a3 v=117
241062 Par ch=1 c=64 v=63
241064 Par ch=1 c=64 v=127
241092 On ch=1 n=e5 v=0
241124 On ch=1 n=a2 v=0
241128 On ch=1 n=a3 v=0
241130 On ch=1 n=c6 v=0
241136 On ch=1 n=a5 v=0
241404 Par ch=1 c=64 v=63
241434 Par ch=1 c=64 v=0
242676 Par ch=1 c=67 v=127
243192 Par ch=1 c=67 v=0
243192 Meta TrkEnd
TrkEnd
MTrk
0 SeqSpec 43 00 01 00
0 Meta TrkName "                                    "
0 TimeSig 4/4 24 8
0 Meta TrkEnd
TrkEnd
MTrk
0 SeqSpec 43 00 01 00
0 Meta TrkName "                                    "
0 TimeSig 4/4 24 8
0 Meta TrkEnd
TrkEnd
MTrk
0 SeqSpec 43 00 01 00
0 Meta TrkName "                                    "
0 TimeSig 4/4 24 8
0 Meta TrkEnd
TrkEnd
MTrk
0 SeqSpec 43 00 01 00
0 Meta TrkName "                                    "
0 TimeSig 4/4 24 8
0 Meta TrkEnd
TrkEnd
MTrk
0 SeqSpec 43 00 01 00
0 Meta TrkName "                                    "
0 TimeSig 4/4 24 8
0 Meta TrkEnd
TrkEnd
MTrk
0 SeqSpec 43 00 01 00
0 Meta TrkName "                                    "
0 TimeSig 4/4 24 8
0 Meta TrkEnd
TrkEnd
MTrk
0 SeqSpec 43 00 01 00
0 Meta TrkName "                                    "
0 TimeSig 4/4 24 8
0 Meta TrkEnd
TrkEnd
MTrk
0 SeqSpec 43 00 01 00
0 Meta TrkName "                                    "
0 TimeSig 4/4 24 8
0 Meta TrkEnd
TrkEnd
MTrk
0 SeqSpec 43 00 01 00
0 Meta TrkName "                                    "
0 TimeSig 4/4 24 8
0 Meta TrkEnd
TrkEnd
MTrk
0 SeqSpec 43 00 01 00
0 Meta TrkName "                                    "
0 TimeSig 4/4 24 8
0 Meta TrkEnd
TrkEnd
MTrk
0 SeqSpec 43 00 01 00
0 Meta TrkName "                                    "
0 TimeSig 4/4 24 8
0 Meta TrkEnd
TrkEnd
MTrk
0 SeqSpec 43 00 01 00
0 Meta TrkName "                                    "
0 TimeSig 4/4 24 8
0 Meta TrkEnd
TrkEnd
MTrk
0 SeqSpec 43 00 01 00
0 Meta TrkName "                                    "
0 TimeSig 4/4 24 8
0 Meta TrkEnd
TrkEnd
MTrk
0 SeqSpec 43 00 01 00
0 Meta TrkName "                                    "
0 TimeSig 4/4 24 8
0 Meta TrkEnd
TrkEnd
MTrk
0 SeqSpec 43 00 01 00
0 Meta TrkName "                                    "
0 TimeSig 4/4 24 8
0 Meta TrkEnd
TrkEnd
MTrk
0 SeqSpec 43 00 01 00
0 Meta TrkName "                                    "
0 TimeSig 4/4 24 8
0 Meta TrkEnd
TrkEnd
