MFile 1 18 480
MTrk
0 Tempo 500000
0 TimeSig 2/4 24 8
0 Meta TrkEnd
TrkEnd
MTrk
0 SeqSpec 43 00 01 00
0 Meta TrkName "PIANO                               "
0 TimeSig 2/4 24 8
0 SysEx f0 41 10 42 12 40 00 7f 00 41 f7
0 SysEx f0 41 10 42 12 40 00 04 64 58 f7
340 SysEx f0 41 10 42 12 40 01 30 03 0c f7
340 SysEx f0 41 10 42 12 40 01 33 50 3c f7
340 SysEx f0 41 10 42 12 40 01 34 3c 4f f7
744 Par ch=1 c=0 v=0
748 Par ch=1 c=32 v=1
752 PrCh ch=1 p=0
756 Par ch=1 c=7 v=100
948 Par ch=1 c=11 v=100
1140 Par ch=1 c=10 v=64
1332 Par ch=1 c=1 v=0
1332 Par ch=1 c=91 v=80
1350 Par ch=1 c=99 v=1
1354 Par ch=1 c=98 v=32
1358 Par ch=1 c=6 v=62
1362 Par ch=1 c=99 v=1
1366 Par ch=1 c=98 v=33
1370 Par ch=1 c=6 v=54
1374 Par ch=1 c=99 v=1
1378 Par ch=1 c=98 v=99
1382 Par ch=1 c=6 v=62
1386 Par ch=1 c=99 v=1
1390 Par ch=1 c=98 v=100
1394 Par ch=1 c=6 v=60
1398 Par ch=1 c=99 v=1
1402 Par ch=1 c=98 v=102
1406 Par ch=1 c=6 v=70
2386 Par ch=1 c=64 v=63
2392 On ch=1 n=a5 v=36
2394 On ch=1 n=c6 v=60
2408 Par ch=1 c=64 v=127
2512 On ch=1 n=a4 v=48
2550 On ch=1 n=a5 v=0
2596 On ch=1 n=c6 v=0
2672 On ch=1 n=a4 v=0
2674 On ch=1 n=e5 v=46
2784 On ch=1 n=g#5 v=63
2790 On ch=1 n=b5 v=65
2794 On ch=1 n=e5 v=0
2806 On ch=1 n=d5 v=52
2850 On ch=1 n=d5 v=0
2864 On ch=1 n=g#5 v=0
2892 On ch=1 n=b5 v=0
2922 Par ch=1 c=64 v=63
2926 On ch=1 n=a5 v=75
2952 On ch=1 n=e5 v=46
3068 Par ch=1 c=64 v=127
3074 On ch=1 n=a4 v=56
3188 On ch=1 n=e5 v=0
3216 On ch=1 n=c5 v=60
3226 On ch=1 n=a4 v=0
3278 On ch=1 n=a5 v=0
3320 On ch=1 n=c5 v=0
3320 On ch=1 n=b4 v=64
3348 On ch=1 n=g#5 v=74
3380 On ch=1 n=b4 v=0
3398 Par ch=1 c=64 v=63
3456 On ch=1 n=g#5 v=0
3496 On ch=1 n=a5 v=67
3506 On ch=1 n=e5 v=60
3570 Par ch=1 c=64 v=127
3634 On ch=1 n=a4 v=49
3684 On ch=1 n=a5 v=0
3756 On ch=1 n=a4 v=0
3772 On ch=1 n=c5 v=60
3792 On ch=1 n=e5 v=0
3868 On ch=1 n=c5 v=0
3876 On ch=1 n=g#4 v=72
3902 On ch=1 n=b5 v=75
3976 On ch=1 n=b5 v=0
3986 On ch=1 n=g#4 v=0
4022 Par ch=1 c=64 v=63
4044 On ch=1 n=d6 v=92
4050 On ch=1 n=a5 v=79
4086 Par ch=1 c=64 v=0
4168 On ch=1 n=d6 v=0
4174 On ch=1 n=c6 v=82
4180 On ch=1 n=a4 v=55
4254 On ch=1 n=a5 v=0
4284 On ch=1 n=a4 v=0
4304 On ch=1 n=g#5 v=90
4314 On ch=1 n=c6 v=0
4322 On ch=1 n=b5 v=89
4340 On ch=1 n=e5 v=41
4360 Par ch=1 c=64 v=63
4414 Par ch=1 c=64 v=127
4420 On ch=1 n=g#5 v=0
4426 On ch=1 n=e5 v=0
4438 On ch=1 n=b5 v=0
4452 On ch=1 n=e4 v=91
4488 Par ch=1 c=64 v=63
4518 Par ch=1 c=64 v=0
4528 On ch=1 n=e4 v=0
4584 On ch=1 n=d6 v=102
4592 On ch=1 n=a5 v=84
4642 Par ch=1 c=64 v=63
4674 Par ch=1 c=64 v=127
4714 On ch=1 n=f4 v=76
4782 On ch=1 n=d6 v=0
4806 On ch=1 n=f4 v=0
4872 On ch=1 n=f5 v=82
4906 On ch=1 n=a5 v=0
4996 On ch=1 n=e5 v=92
5002 On ch=1 n=c6 v=103
5010 On ch=1 n=f5 v=0
5052 On ch=1 n=e5 v=0
5100 On ch=1 n=c6 v=0
5132 On ch=1 n=f6 v=104
5160 On ch=1 n=a5 v=74
5218 Par ch=1 c=64 v=63
5272 On ch=1 n=d4 v=84
5274 Par ch=1 c=64 v=127
5374 On ch=1 n=d4 v=0
5426 On ch=1 n=d5 v=78
5544 On ch=1 n=f6 v=0
5544 On ch=1 n=e6 v=90
5550 On ch=1 n=c5 v=97
5568 On ch=1 n=d5 v=0
5606 On ch=1 n=c5 v=0
5608 On ch=1 n=e6 v=0
5634 On ch=1 n=a5 v=0
5694 On ch=1 n=d6 v=91
5696 On ch=1 n=g#5 v=100
5726 Par ch=1 c=64 v=63
5750 Par ch=1 c=64 v=0
5796 On ch=1 n=b3 v=85
5818 Par ch=1 c=64 v=63
5856 Par ch=1 c=64 v=127
5886 On ch=1 n=b3 v=0
5956 On ch=1 n=b4 v=70
6032 On ch=1 n=g#5 v=0
6052 On ch=1 n=d6 v=0
6068 On ch=1 n=b4 v=0
6092 On ch=1 n=c6 v=87
6092 On ch=1 n=a4 v=43
6096 On ch=1 n=a5 v=70
6166 On ch=1 n=c6 v=0
6172 On ch=1 n=a4 v=0
6176 On ch=1 n=a5 v=0
6220 Par ch=1 c=64 v=63
6226 On ch=1 n=e4 v=75
6230 On ch=1 n=c6 v=97
6232 Par ch=1 c=64 v=0
6234 On ch=1 n=e5 v=80
6246 On ch=1 n=g#5 v=93
6294 On ch=1 n=e5 v=0
6306 On ch=1 n=e4 v=0
6314 On ch=1 n=c6 v=0
6322 On ch=1 n=g#5 v=0
6382 On ch=1 n=b5 v=86
6478 On ch=1 n=b5 v=0
6500 On ch=1 n=e4 v=83
6528 On ch=1 n=g#5 v=96
6572 On ch=1 n=e4 v=0
6590 On ch=1 n=g#5 v=0
6660 On ch=1 n=e5 v=71
6752 On ch=1 n=e5 v=0
6816 On ch=1 n=a5 v=68
6816 On ch=1 n=c6 v=72
6954 Par ch=1 c=64 v=63
6956 On ch=1 n=a4 v=57
6962 Par ch=1 c=64 v=127
7076 On ch=1 n=a5 v=0
7122 On ch=1 n=e5 v=64
7164 On ch=1 n=c6 v=0
7186 On ch=1 n=a4 v=0
7212 On ch=1 n=d5 v=66
7222 On ch=1 n=e5 v=0
7234 On ch=1 n=g#5 v=67
7236 On ch=1 n=b5 v=69
7262 On ch=1 n=d5 v=0
7308 On ch=1 n=g#5 v=0
7320 On ch=1 n=b5 v=0
7360 Par ch=1 c=64 v=63
7372 On ch=1 n=a5 v=76
7394 Par ch=1 c=64 v=0
7394 On ch=1 n=e5 v=68
7470 Par ch=1 c=64 v=63
7510 Par ch=1 c=64 v=127
7524 On ch=1 n=a4 v=63
7612 On ch=1 n=e5 v=0
7656 On ch=1 n=c5 v=64
7700 On ch=1 n=a5 v=0
7754 On ch=1 n=a4 v=0
7768 On ch=1 n=b4 v=78
7782 On ch=1 n=c5 v=0
7794 On ch=1 n=g#5 v=89
7842 On ch=1 n=b4 v=0
7882 On ch=1 n=g#5 v=0
7930 On ch=1 n=a5 v=82
7938 On ch=1 n=e5 v=76
7940 Par ch=1 c=64 v=63
8062 Par ch=1 c=64 v=127
8064 On ch=1 n=a4 v=47
8184 On ch=1 n=a4 v=0
8194 On ch=1 n=c5 v=77
8270 On ch=1 n=e5 v=0
8288 On ch=1 n=c5 v=0
8298 On ch=1 n=g#4 v=80
8324 On ch=1 n=b5 v=79
8336 On ch=1 n=a5 v=0
8386 On ch=1 n=g#4 v=0
8392 On ch=1 n=b5 v=0
8440 Par ch=1 c=64 v=63
8452 Par ch=1 c=64 v=0
8458 On ch=1 n=d6 v=97
8466 On ch=1 n=a5 v=87
8568 On ch=1 n=a4 v=76
8578 On ch=1 n=c6 v=87
8592 On ch=1 n=d6 v=0
8674 On ch=1 n=a4 v=0
8680 On ch=1 n=a5 v=0
8702 On ch=1 n=e5 v=63
8714 On ch=1 n=g#5 v=93
8716 On ch=1 n=c6 v=0
8718 On ch=1 n=b5 v=89
8814 On ch=1 n=g#5 v=0
8822 On ch=1 n=e5 v=0
8826 On ch=1 n=b5 v=0
8848 On ch=1 n=e4 v=93
8932 On ch=1 n=e4 v=0
8996 On ch=1 n=f6 v=107
9008 On ch=1 n=a5 v=86
9112 Par ch=1 c=64 v=63
9114 Par ch=1 c=64 v=127
9158 On ch=1 n=d4 v=76
9244 On ch=1 n=d4 v=0
9310 On ch=1 n=d5 v=82
9406 On ch=1 n=e6 v=89
9410 On ch=1 n=d5 v=0
9412 On ch=1 n=c5 v=91
9450 On ch=1 n=f6 v=0
9470 On ch=1 n=c5 v=0
9474 On ch=1 n=a5 v=0
9488 On ch=1 n=e6 v=0
9548 On ch=1 n=d6 v=108
9560 On ch=1 n=a5 v=86
9586 Par ch=1 c=64 v=63
9608 Par ch=1 c=64 v=0
9664 Par ch=1 c=64 v=63
9688 On ch=1 n=f4 v=98
9698 Par ch=1 c=64 v=127
9776 On ch=1 n=f4 v=0
9818 On ch=1 n=f5 v=86
9936 On ch=1 n=c6 v=96
9938 On ch=1 n=e5 v=98
9952 On ch=1 n=f5 v=0
9978 On ch=1 n=a5 v=0
9998 On ch=1 n=d6 v=0
10026 On ch=1 n=c6 v=0
10078 On ch=1 n=c6 v=94
10078 On ch=1 n=d5 v=112
10090 Par ch=1 c=64 v=63
10098 Par ch=1 c=64 v=0
10108 On ch=1 n=e5 v=0
10148 On ch=1 n=d5 v=0
10202 On ch=1 n=c6 v=0
10202 On ch=1 n=b5 v=89
10268 On ch=1 n=b5 v=0
10350 On ch=1 n=e5 v=82
10354 On ch=1 n=a5 v=78
10398 On ch=1 n=e5 v=0
10418 On ch=1 n=a5 v=0
10480 On ch=1 n=g#5 v=88
10528 On ch=1 n=g#5 v=0
10632 On ch=1 n=a5 v=75
10634 On ch=1 n=f5 v=53
10702 On ch=1 n=a5 v=0
10758 On ch=1 n=c#6 v=88
10770 On ch=1 n=f5 v=0
10830 On ch=1 n=c#6 v=0
10902 On ch=1 n=d6 v=96
10974 On ch=1 n=d6 v=0
11020 On ch=1 n=e6 v=91
11090 On ch=1 n=e6 v=0
11168 On ch=1 n=f6 v=112
11182 On ch=1 n=a5 v=93
11198 Par ch=1 c=64 v=127
11262 On ch=1 n=a5 v=0
11306 On ch=1 n=d4 v=104
11418 On ch=1 n=d4 v=0
11454 On ch=1 n=d5 v=100
11478 On ch=1 n=f6 v=0
11570 On ch=1 n=c5 v=104
11576 On ch=1 n=e6 v=98
11586 On ch=1 n=d5 v=0
11622 On ch=1 n=c5 v=0
11652 Par ch=1 c=64 v=63
11658 Par ch=1 c=64 v=0
11680 On ch=1 n=e6 v=0
11716 On ch=1 n=g#6 v=115
11724 On ch=1 n=d6 v=107
11750 Par ch=1 c=64 v=63
11762 Par ch=1 c=64 v=127
11852 On ch=1 n=b3 v=101
11924 On ch=1 n=g#6 v=0
11960 On ch=1 n=b3 v=0
11984 On ch=1 n=b4 v=90
12002 On ch=1 n=d6 v=0
12100 On ch=1 n=a4 v=90
12104 On ch=1 n=b4 v=0
12124 On ch=1 n=a6 v=89
12130 On ch=1 n=c6 v=90
12164 On ch=1 n=a4 v=0
12170 On ch=1 n=a6 v=0
12190 On ch=1 n=c6 v=0
12264 On ch=1 n=d5 v=93
12272 On ch=1 n=e6 v=98
12276 On ch=1 n=c6 v=97
12280 Par ch=1 c=64 v=63
12288 Par ch=1 c=64 v=0
12384 On ch=1 n=c6 v=0
12390 On ch=1 n=b5 v=85
12398 On ch=1 n=d6 v=85
12434 On ch=1 n=e6 v=0
12494 On ch=1 n=d6 v=0
12496 On ch=1 n=b5 v=0
12504 On ch=1 n=d5 v=0
12540 On ch=1 n=a5 v=78
12544 On ch=1 n=c6 v=54
12546 On ch=1 n=e5 v=68
12590 On ch=1 n=c6 v=0
12604 On ch=1 n=e5 v=0
12606 On ch=1 n=a5 v=0
12654 On ch=1 n=b5 v=92
12662 On ch=1 n=g#5 v=95
12728 On ch=1 n=b5 v=0
12734 On ch=1 n=g#5 v=0
12804 On ch=1 n=a4 v=63
12822 On ch=1 n=a5 v=82
12870 Par ch=1 c=64 v=63
12878 Par ch=1 c=64 v=127
12910 On ch=1 n=a5 v=0
12958 On ch=1 n=c6 v=81
13028 On ch=1 n=a4 v=0
13036 On ch=1 n=c6 v=0
13096 On ch=1 n=d6 v=78
13102 Par ch=1 c=64 v=63
13182 On ch=1 n=d6 v=0
13190 Par ch=1 c=64 v=127
13252 On ch=1 n=e6 v=69
13414 On ch=1 n=e6 v=0
13482 On ch=1 n=f6 v=77
13540 Par ch=1 c=64 v=63
13616 Par ch=1 c=64 v=127
13668 On ch=1 n=a4 v=49
13828 On ch=1 n=c5 v=71
13976 On ch=1 n=a6 v=77
13990 On ch=1 n=f5 v=45
14006 On ch=1 n=c5 v=0
14036 On ch=1 n=f6 v=0
14054 On ch=1 n=f5 v=0
14122 On ch=1 n=f6 v=93
14126 On ch=1 n=a6 v=0
14126 On ch=1 n=a4 v=0
14200 Par ch=1 c=64 v=63
14240 On ch=1 n=g4 v=55
14260 On ch=1 n=e6 v=90
14294 Par ch=1 c=64 v=127
14314 On ch=1 n=f6 v=0
14392 On ch=1 n=d#6 v=93
14406 On ch=1 n=c5 v=67
14446 On ch=1 n=e6 v=0
14524 On ch=1 n=e6 v=92
14542 On ch=1 n=e5 v=69
14544 On ch=1 n=d#6 v=0
14562 On ch=1 n=c5 v=0
14592 On ch=1 n=e6 v=0
14600 On ch=1 n=g4 v=0
14634 On ch=1 n=e5 v=0
14690 On ch=1 n=a6 v=101
14774 Par ch=1 c=64 v=63
14838 On ch=1 n=f4 v=76
14880 Par ch=1 c=64 v=127
14988 On ch=1 n=a4 v=81
15106 On ch=1 n=c5 v=86
15130 On ch=1 n=c7 v=96
15172 On ch=1 n=a4 v=0
15172 On ch=1 n=a6 v=0
15214 On ch=1 n=c5 v=0
15234 On ch=1 n=f4 v=0
15266 On ch=1 n=c7 v=0
15274 On ch=1 n=a6 v=100
15388 On ch=1 n=e4 v=80
15406 Par ch=1 c=64 v=63
15408 On ch=1 n=g6 v=102
15466 On ch=1 n=a6 v=0
15514 Par ch=1 c=64 v=127
15536 On ch=1 n=f#6 v=96
15540 On ch=1 n=g4 v=79
15562 On ch=1 n=g6 v=0
15638 On ch=1 n=g6 v=94
15640 On ch=1 n=c5 v=94
15658 On ch=1 n=g4 v=0
15660 On ch=1 n=e4 v=0
15670 On ch=1 n=f#6 v=0
15712 On ch=1 n=c5 v=0
15740 On ch=1 n=c6 v=93
15748 On ch=1 n=g6 v=0
15764 Par ch=1 c=64 v=63
15790 Par ch=1 c=64 v=127
15878 On ch=1 n=c7 v=108
15902 On ch=1 n=c6 v=0
16062 On ch=1 n=e5 v=69
16190 On ch=1 n=g5 v=85
16322 On ch=1 n=b6 v=97
16326 On ch=1 n=c6 v=90
16352 On ch=1 n=c7 v=0
16404 On ch=1 n=b6 v=0
16432 On ch=1 n=g5 v=0
16454 On ch=1 n=b6 v=100
16470 On ch=1 n=f5 v=82
16482 On ch=1 n=e5 v=0
16488 Par ch=1 c=64 v=63
16494 On ch=1 n=c6 v=0
16542 Par ch=1 c=64 v=127
16586 On ch=1 n=a6 v=92
16602 On ch=1 n=c6 v=73
16652 On ch=1 n=b6 v=0
16670 On ch=1 n=a6 v=0
16692 Par ch=1 c=64 v=63
16732 On ch=1 n=c6 v=0
16738 On ch=1 n=e5 v=75
16740 On ch=1 n=a6 v=102
16766 Par ch=1 c=64 v=127
16802 On ch=1 n=f5 v=0
16858 On ch=1 n=c6 v=70
16860 On ch=1 n=e5 v=0
16868 On ch=1 n=g6 v=85
16894 On ch=1 n=a6 v=0
16922 On ch=1 n=g6 v=0
16958 On ch=1 n=c6 v=0
17000 Par ch=1 c=64 v=63
17004 On ch=1 n=d5 v=72
17018 On ch=1 n=g6 v=92
17080 On ch=1 n=a6 v=82
17114 On ch=1 n=a6 v=0
17146 On ch=1 n=b5 v=71
17150 On ch=1 n=d5 v=0
17158 On ch=1 n=f6 v=86
17160 On ch=1 n=g6 v=0
17224 On ch=1 n=f6 v=0
17260 On ch=1 n=b5 v=0
17276 On ch=1 n=f6 v=93
17292 On ch=1 n=c5 v=80
17322 On ch=1 n=g6 v=97
17338 On ch=1 n=f6 v=0
17354 On ch=1 n=g6 v=0
17382 On ch=1 n=f6 v=84
17416 On ch=1 n=c5 v=0
17418 On ch=1 n=c6 v=69
17444 On ch=1 n=e6 v=86
17448 On ch=1 n=f6 v=0
17506 On ch=1 n=c6 v=0
17508 On ch=1 n=e6 v=0
17584 On ch=1 n=e6 v=98
17584 On ch=1 n=c6 v=100
17592 Par ch=1 c=64 v=127
17600 On ch=1 n=g5 v=82
17640 On ch=1 n=c6 v=0
17642 On ch=1 n=e6 v=0
17660 On ch=1 n=g5 v=0
17910 On ch=1 n=d6 v=71
17912 On ch=1 n=g4 v=43
17928 On ch=1 n=b5 v=31
17958 Par ch=1 c=64 v=63
18008 Par ch=1 c=64 v=0
18040 On ch=1 n=d6 v=0
18056 On ch=1 n=b5 v=0
18104 On ch=1 n=g4 v=0
18228 On ch=1 n=d#6 v=76
18244 On ch=1 n=c6 v=60
18256 Par ch=1 c=64 v=63
18292 Par ch=1 c=64 v=127
18374 On ch=1 n=c5 v=55
18536 On ch=1 n=g5 v=26
18548 On ch=1 n=c5 v=0
18576 On ch=1 n=c6 v=0
18608 On ch=1 n=d#6 v=0
18634 On ch=1 n=f5 v=59
18654 On ch=1 n=g5 v=0
18654 On ch=1 n=b5 v=46
18658 On ch=1 n=d6 v=61
18710 On ch=1 n=f5 v=0
18766 On ch=1 n=b5 v=0
18814 On ch=1 n=c6 v=82
18822 Par ch=1 c=64 v=63
18902 On ch=1 n=d6 v=0
18964 On ch=1 n=c5 v=59
18980 Par ch=1 c=64 v=127
19118 On ch=1 n=d#5 v=80
19146 On ch=1 n=c5 v=0
19242 On ch=1 n=d6 v=87
19244 On ch=1 n=c6 v=0
19246 On ch=1 n=d#5 v=0
19260 On ch=1 n=d5 v=59
19326 On ch=1 n=d5 v=0
19338 On ch=1 n=d6 v=0
19382 On ch=1 n=d#6 v=100
19412 On ch=1 n=c6 v=64
19460 Par ch=1 c=64 v=63
19508 On ch=1 n=c5 v=67
19572 Par ch=1 c=64 v=127
19638 On ch=1 n=c5 v=0
19664 On ch=1 n=d#5 v=95
19770 On ch=1 n=d#5 v=0
19786 On ch=1 n=d#6 v=0
19788 On ch=1 n=g#4 v=78
19802 On ch=1 n=f6 v=96
19842 On ch=1 n=c6 v=0
19870 On ch=1 n=g#4 v=0
19928 On ch=1 n=d#6 v=106
19938 On ch=1 n=c6 v=85
19974 On ch=1 n=f6 v=0
19978 Par ch=1 c=64 v=63
20082 On ch=1 n=g4 v=67
20102 Par ch=1 c=64 v=127
20104 On ch=1 n=c6 v=0
20230 On ch=1 n=f#4 v=95
20232 On ch=1 n=d6 v=87
20236 Par ch=1 c=64 v=63
20242 On ch=1 n=b5 v=68
20256 On ch=1 n=g4 v=0
20284 On ch=1 n=d#6 v=0
20338 On ch=1 n=f#4 v=0
20346 Par ch=1 c=64 v=127
20352 On ch=1 n=g4 v=76
20412 On ch=1 n=d6 v=0
20456 On ch=1 n=g4 v=0
20476 Par ch=1 c=64 v=63
20478 On ch=1 n=b5 v=0
20500 On ch=1 n=f6 v=89
20502 On ch=1 n=d6 v=82
20526 Par ch=1 c=64 v=0
20580 Par ch=1 c=64 v=63
20634 On ch=1 n=g4 v=62
20636 Par ch=1 c=64 v=127
20800 On ch=1 n=b4 v=68
20880 On ch=1 n=d6 v=0
20910 On ch=1 n=f6 v=0
20930 On ch=1 n=e6 v=76
20936 On ch=1 n=c6 v=69
20940 On ch=1 n=c5 v=71
20968 On ch=1 n=g4 v=0
20988 On ch=1 n=b4 v=0
21034 On ch=1 n=c5 v=0
21048 On ch=1 n=c6 v=0
21064 On ch=1 n=d6 v=87
21066 On ch=1 n=b5 v=78
21114 On ch=1 n=e6 v=0
21122 Par ch=1 c=64 v=63
21194 On ch=1 n=g4 v=71
21206 Par ch=1 c=64 v=127
21298 On ch=1 n=g4 v=0
21342 On ch=1 n=f5 v=75
21488 On ch=1 n=f5 v=0
21488 On ch=1 n=e5 v=80
21492 On ch=1 n=e6 v=89
21498 On ch=1 n=b5 v=0
21498 On ch=1 n=c6 v=73
21540 On ch=1 n=d6 v=0
21546 On ch=1 n=c6 v=0
21556 On ch=1 n=e5 v=0
21568 On ch=1 n=e6 v=0
21618 On ch=1 n=f6 v=90
21624 On ch=1 n=d6 v=85
21666 Par ch=1 c=64 v=63
21754 Par ch=1 c=64 v=127
21760 On ch=1 n=d5 v=88
21900 On ch=1 n=b4 v=98
21952 On ch=1 n=d5 v=0
22002 On ch=1 n=d6 v=0
22006 On ch=1 n=f6 v=0
22012 On ch=1 n=g4 v=68
22026 On ch=1 n=g6 v=88
22026 On ch=1 n=e6 v=89
22058 On ch=1 n=b4 v=0
22114 On ch=1 n=e6 v=0
22130 Par ch=1 c=64 v=63
22132 On ch=1 n=g4 v=0
22136 On ch=1 n=g6 v=0
22152 Par ch=1 c=64 v=0
22164 On ch=1 n=f6 v=107
22174 On ch=1 n=d6 v=99
22208 Par ch=1 c=64 v=63
22242 Par ch=1 c=64 v=127
22322 On ch=1 n=b4 v=92
22420 On ch=1 n=b4 v=0
22456 On ch=1 n=c5 v=89
22456 On ch=1 n=e6 v=93
22462 On ch=1 n=c6 v=87
22468 On ch=1 n=d6 v=0
22514 On ch=1 n=f6 v=0
22540 On ch=1 n=e6 v=0
22542 On ch=1 n=c5 v=0
22556 On ch=1 n=c6 v=0
22576 On ch=1 n=c4 v=91
22642 On ch=1 n=c4 v=0
22644 Par ch=1 c=64 v=63
22658 Par ch=1 c=64 v=0
22776 On ch=1 n=e4 v=116
22776 On ch=1 n=c7 v=116
22778 Par ch=1 c=64 v=63
22780 On ch=1 n=g6 v=107
22790 Par ch=1 c=64 v=127
22828 On ch=1 n=g6 v=0
22834 On ch=1 n=e4 v=0
22848 On ch=1 n=c7 v=0
22924 On ch=1 n=e5 v=101
23002 On ch=1 n=e5 v=0
23056 On ch=1 n=g5 v=87
23176 On ch=1 n=g5 v=0
23182 On ch=1 n=d5 v=102
23186 On ch=1 n=f6 v=98
23188 On ch=1 n=b6 v=86
23236 On ch=1 n=d5 v=0
23242 Par ch=1 c=64 v=63
23256 On ch=1 n=b6 v=0
23256 On ch=1 n=f6 v=0
23262 Par ch=1 c=64 v=0
23344 On ch=1 n=c4 v=109
23346 On ch=1 n=a6 v=118
23350 Par ch=1 c=64 v=63
23352 On ch=1 n=e6 v=114
23370 Par ch=1 c=64 v=127
23400 On ch=1 n=e6 v=0
23400 On ch=1 n=c4 v=0
23424 On ch=1 n=a6 v=0
23482 On ch=1 n=c5 v=106
23588 On ch=1 n=c5 v=0
23630 On ch=1 n=e5 v=88
23742 Par ch=1 c=64 v=63
23744 On ch=1 n=g6 v=101
23748 On ch=1 n=b4 v=101
23750 On ch=1 n=d6 v=96
23756 On ch=1 n=e5 v=0
23758 Par ch=1 c=64 v=0
23804 On ch=1 n=b4 v=0
23814 On ch=1 n=g6 v=0
23822 On ch=1 n=d6 v=0
23878 Par ch=1 c=64 v=63
23900 Par ch=1 c=64 v=127
23900 On ch=1 n=a3 v=111
23902 On ch=1 n=f6 v=113
23908 On ch=1 n=c6 v=116
23962 On ch=1 n=c6 v=0
23968 On ch=1 n=a3 v=0
23992 On ch=1 n=f6 v=0
24048 On ch=1 n=a4 v=78
24158 On ch=1 n=a4 v=0
24190 On ch=1 n=c5 v=87
24306 On ch=1 n=e6 v=100
24306 On ch=1 n=g4 v=99
24308 Par ch=1 c=64 v=63
24310 On ch=1 n=c5 v=0
24310 On ch=1 n=b5 v=97
24328 Par ch=1 c=64 v=0
24366 On ch=1 n=e6 v=0
24368 On ch=1 n=g4 v=0
24384 On ch=1 n=b5 v=0
24446 Par ch=1 c=64 v=63
24456 On ch=1 n=d6 v=117
24458 On ch=1 n=f3 v=113
24458 On ch=1 n=a5 v=120
24468 Par ch=1 c=64 v=127
24520 On ch=1 n=a5 v=0
24522 On ch=1 n=f3 v=0
24554 On ch=1 n=d6 v=0
24600 On ch=1 n=f4 v=98
24700 On ch=1 n=f4 v=0
24732 On ch=1 n=a4 v=71
24850 On ch=1 n=e4 v=92
24868 On ch=1 n=a4 v=0
24886 On ch=1 n=c#6 v=99
24900 On ch=1 n=g5 v=63
24938 On ch=1 n=g5 v=0
24958 On ch=1 n=c#6 v=0
24970 On ch=1 n=e4 v=0
25002 Par ch=1 c=64 v=63
25012 Par ch=1 c=64 v=0
25012 On ch=1 n=f4 v=84
25026 On ch=1 n=d6 v=99
25060 On ch=1 n=f4 v=0
25126 On ch=1 n=d6 v=0
25160 On ch=1 n=a5 v=58
25266 On ch=1 n=a5 v=0
25304 On ch=1 n=c#4 v=78
25316 On ch=1 n=e6 v=94
25350 On ch=1 n=c#4 v=0
25402 On ch=1 n=e6 v=0
25440 On ch=1 n=a5 v=91
25540 On ch=1 n=a5 v=0
25554 On ch=1 n=d4 v=107
25562 On ch=1 n=f6 v=104
25600 Par ch=1 c=64 v=63
25604 Par ch=1 c=64 v=127
25698 On ch=1 n=a6 v=94
25718 On ch=1 n=f6 v=0
25772 On ch=1 n=d4 v=0
25814 On ch=1 n=a6 v=0
25838 On ch=1 n=f6 v=96
25854 Par ch=1 c=64 v=63
25868 Par ch=1 c=64 v=0
25934 On ch=1 n=f4 v=84
25944 On ch=1 n=d6 v=98
25966 On ch=1 n=f6 v=0
26002 On ch=1 n=d6 v=0
26004 On ch=1 n=f4 v=0
26044 Par ch=1 c=64 v=63
26052 Par ch=1 c=64 v=127
26084 On ch=1 n=g4 v=78
26084 On ch=1 n=c6 v=106
26090 On ch=1 n=g5 v=90
26092 On ch=1 n=e5 v=87
26122 On ch=1 n=g5 v=0
26128 On ch=1 n=e5 v=0
26144 On ch=1 n=g4 v=0
26152 On ch=1 n=c6 v=0
26196 Par ch=1 c=64 v=63
26206 Par ch=1 c=64 v=0
26392 On ch=1 n=g3 v=92
26396 On ch=1 n=d6 v=114
26416 On ch=1 n=b5 v=88
26418 On ch=1 n=g5 v=81
26462 On ch=1 n=g5 v=0
26464 On ch=1 n=g3 v=0
26474 On ch=1 n=b5 v=0
26690 Par ch=1 c=64 v=127
26690 On ch=1 n=c4 v=108
26712 On ch=1 n=d6 v=0
26712 On ch=1 n=g5 v=70
26740 On ch=1 n=c4 v=0
26798 On ch=1 n=g5 v=0
26816 On ch=1 n=d#6 v=105
26940 On ch=1 n=d#6 v=0
26966 On ch=1 n=e6 v=102
27060 On ch=1 n=e6 v=0
27080 On ch=1 n=g6 v=97
27150 On ch=1 n=g6 v=0
27174 Par ch=1 c=64 v=63
27180 Par ch=1 c=64 v=0
27248 Par ch=1 c=64 v=63
27252 On ch=1 n=c7 v=114
27258 On ch=1 n=e4 v=117
27264 On ch=1 n=g6 v=92
27266 Par ch=1 c=64 v=127
27296 On ch=1 n=g6 v=0
27318 On ch=1 n=e4 v=0
27322 On ch=1 n=c7 v=0
27400 On ch=1 n=e5 v=100
27494 On ch=1 n=e5 v=0
27558 On ch=1 n=g5 v=55
27654 On ch=1 n=g5 v=0
27660 On ch=1 n=d5 v=104
27670 On ch=1 n=b6 v=98
27674 On ch=1 n=f6 v=96
27716 On ch=1 n=d5 v=0
27732 On ch=1 n=b6 v=0
27748 On ch=1 n=f6 v=0
27782 Par ch=1 c=64 v=63
27816 On ch=1 n=c4 v=116
27820 On ch=1 n=a6 v=109
27822 On ch=1 n=e6 v=116
27848 Par ch=1 c=64 v=127
27872 On ch=1 n=c4 v=0
27882 On ch=1 n=e6 v=0
27910 On ch=1 n=a6 v=0
27946 On ch=1 n=c5 v=108
28032 On ch=1 n=c5 v=0
28092 On ch=1 n=e5 v=88
28200 On ch=1 n=e5 v=0
28216 On ch=1 n=b4 v=100
28224 On ch=1 n=g6 v=99
28234 On ch=1 n=d6 v=92
28274 On ch=1 n=b4 v=0
28294 On ch=1 n=g6 v=0
28300 On ch=1 n=d6 v=0
28348 Par ch=1 c=64 v=63
28358 On ch=1 n=a3 v=117
28364 On ch=1 n=f6 v=112
28376 On ch=1 n=c6 v=112
28406 Par ch=1 c=64 v=127
28430 On ch=1 n=a3 v=0
28496 On ch=1 n=a4 v=99
28622 On ch=1 n=a4 v=0
28656 On ch=1 n=c5 v=93
28710 On ch=1 n=c6 v=0
28730 On ch=1 n=f6 v=0
28762 On ch=1 n=c5 v=0
28772 On ch=1 n=g4 v=96
28774 On ch=1 n=e6 v=97
28780 On ch=1 n=b5 v=86
28832 On ch=1 n=g4 v=0
28838 On ch=1 n=e6 v=0
28846 On ch=1 n=b5 v=0
28888 Par ch=1 c=64 v=63
28918 On ch=1 n=f3 v=116
28920 On ch=1 n=d6 v=114
28926 On ch=1 n=a5 v=113
28948 Par ch=1 c=64 v=127
28984 On ch=1 n=f3 v=0
29060 On ch=1 n=d6 v=0
29074 On ch=1 n=g4 v=76
29080 On ch=1 n=a5 v=0
29086 On ch=1 n=f4 v=54
29132 On ch=1 n=f4 v=0
29162 On ch=1 n=g4 v=0
29226 On ch=1 n=a4 v=41
29230 On ch=1 n=b4 v=43
29286 On ch=1 n=b4 v=0
29312 On ch=1 n=a4 v=0
29318 On ch=1 n=e4 v=90
29350 On ch=1 n=c#6 v=98
29370 On ch=1 n=g5 v=65
29424 On ch=1 n=g5 v=0
29434 On ch=1 n=c#6 v=0
29484 On ch=1 n=f4 v=102
29502 Par ch=1 c=64 v=63
29506 On ch=1 n=d6 v=106
29508 Par ch=1 c=64 v=0
29516 On ch=1 n=e4 v=0
29546 On ch=1 n=f4 v=0
29596 On ch=1 n=d6 v=0
29626 On ch=1 n=a5 v=63
29728 On ch=1 n=a5 v=0
29770 On ch=1 n=c#4 v=75
29782 On ch=1 n=e6 v=91
29832 On ch=1 n=c#4 v=0
29884 On ch=1 n=e6 v=0
29910 On ch=1 n=a5 v=66
30024 On ch=1 n=a5 v=0
30034 On ch=1 n=d4 v=71
30042 On ch=1 n=f6 v=93
30108 Par ch=1 c=64 v=63
30112 Par ch=1 c=64 v=127
30162 On ch=1 n=e4 v=92
30172 On ch=1 n=g6 v=99
30246 On ch=1 n=d4 v=0
30254 On ch=1 n=f6 v=0
30300 On ch=1 n=f4 v=96
30306 On ch=1 n=a6 v=102
30352 On ch=1 n=e4 v=0
30364 On ch=1 n=g6 v=0
30422 On ch=1 n=f6 v=98
30434 On ch=1 n=d4 v=80
30444 On ch=1 n=a6 v=0
30458 On ch=1 n=f4 v=0
30482 On ch=1 n=f6 v=0
30522 On ch=1 n=d4 v=0
30580 On ch=1 n=e6 v=101
30588 Par ch=1 c=64 v=63
30588 On ch=1 n=c6 v=92
30588 On ch=1 n=g5 v=89
30592 On ch=1 n=g4 v=63
30608 Par ch=1 c=64 v=0
30718 On ch=1 n=f#4 v=83
30730 On ch=1 n=g4 v=0
30840 On ch=1 n=f#4 v=0
30860 On ch=1 n=g4 v=75
30866 On ch=1 n=d6 v=84
30886 On ch=1 n=b5 v=69
30912 On ch=1 n=c6 v=0
30914 On ch=1 n=e6 v=0
30962 On ch=1 n=g4 v=0
30986 On ch=1 n=d6 v=0
30988 On ch=1 n=g3 v=80
31026 On ch=1 n=b5 v=0
31072 On ch=1 n=g5 v=0
31168 On ch=1 n=g3 v=0
31170 On ch=1 n=c#6 v=84
31196 Par ch=1 c=64 v=63
31196 Par ch=1 c=64 v=127
31314 On ch=1 n=g5 v=57
31322 On ch=1 n=a#4 v=49
31324 On ch=1 n=c#6 v=0
31472 On ch=1 n=a4 v=58
31480 On ch=1 n=a5 v=65
31482 On ch=1 n=a#4 v=0
31488 On ch=1 n=g5 v=0
31598 On ch=1 n=a#5 v=72
31612 On ch=1 n=a5 v=0
31622 On ch=1 n=a4 v=0
31624 On ch=1 n=g4 v=62
31666 On ch=1 n=a#5 v=0
31746 On ch=1 n=d6 v=93
31754 Par ch=1 c=64 v=63
31758 On ch=1 n=f4 v=83
31760 Par ch=1 c=64 v=0
31794 On ch=1 n=g4 v=0
31830 On ch=1 n=f4 v=0
31886 On ch=1 n=a5 v=58
31934 On ch=1 n=d6 v=0
31988 On ch=1 n=a5 v=0
32026 On ch=1 n=c#4 v=98
32034 On ch=1 n=e6 v=101
32112 On ch=1 n=c#4 v=0
32138 On ch=1 n=e6 v=0
32154 On ch=1 n=a5 v=84
32270 On ch=1 n=a5 v=0
32284 On ch=1 n=f6 v=106
32294 On ch=1 n=d4 v=94
32334 Par ch=1 c=64 v=63
32340 Par ch=1 c=64 v=127
32400 On ch=1 n=e4 v=89
32410 On ch=1 n=g6 v=94
32468 On ch=1 n=d4 v=0
32480 On ch=1 n=f6 v=0
32544 On ch=1 n=a6 v=100
32546 On ch=1 n=f4 v=85
32570 On ch=1 n=e4 v=0
32598 On ch=1 n=g6 v=0
32658 On ch=1 n=d4 v=94
32660 On ch=1 n=f6 v=104
32684 On ch=1 n=a6 v=0
32690 On ch=1 n=f4 v=0
32720 On ch=1 n=f6 v=0
32748 On ch=1 n=d4 v=0
32812 On ch=1 n=e6 v=102
32822 On ch=1 n=c6 v=88
32826 On ch=1 n=g5 v=63
32828 On ch=1 n=g4 v=69
32834 Par ch=1 c=64 v=63
32846 Par ch=1 c=64 v=0
32948 On ch=1 n=f#4 v=85
32964 On ch=1 n=g4 v=0
33056 On ch=1 n=f#4 v=0
33082 On ch=1 n=d6 v=82
33084 On ch=1 n=g4 v=62
33086 On ch=1 n=c6 v=0
33104 On ch=1 n=b5 v=68
33128 On ch=1 n=e6 v=0
33194 On ch=1 n=d6 v=0
33204 On ch=1 n=g4 v=0
33214 On ch=1 n=b5 v=0
33214 On ch=1 n=g3 v=80
33282 On ch=1 n=g5 v=0
33336 On ch=1 n=g3 v=0
33382 Par ch=1 c=64 v=63
33394 Par ch=1 c=64 v=127
33422 On ch=1 n=c#6 v=110
33592 On ch=1 n=c#6 v=0
33606 On ch=1 n=a#4 v=67
33606 On ch=1 n=g5 v=67
33746 On ch=1 n=a#4 v=0
33756 On ch=1 n=a4 v=66
33780 On ch=1 n=a5 v=80
33810 On ch=1 n=g5 v=0
33886 On ch=1 n=g4 v=71
33896 On ch=1 n=a4 v=0
33904 On ch=1 n=a#5 v=70
33920 On ch=1 n=a5 v=0
33938 On ch=1 n=a#5 v=0
34034 On ch=1 n=d6 v=98
34038 On ch=1 n=f4 v=88
34044 On ch=1 n=a5 v=79
34048 On ch=1 n=g4 v=0
34130 Par ch=1 c=64 v=63
34166 On ch=1 n=e6 v=104
34172 On ch=1 n=e4 v=89
34200 Par ch=1 c=64 v=127
34218 On ch=1 n=f4 v=0
34226 On ch=1 n=d6 v=0
34304 On ch=1 n=f6 v=103
34316 On ch=1 n=d4 v=87
34356 On ch=1 n=e4 v=0
34360 On ch=1 n=e6 v=0
34360 Par ch=1 c=64 v=63
34376 Par ch=1 c=64 v=0
34412 On ch=1 n=d6 v=100
34428 On ch=1 n=f4 v=94
34458 On ch=1 n=f6 v=0
34464 On ch=1 n=d4 v=0
34464 On ch=1 n=a5 v=0
34500 On ch=1 n=f4 v=0
34502 On ch=1 n=d6 v=0
34574 On ch=1 n=d#6 v=118
34598 Par ch=1 c=64 v=63
34602 Par ch=1 c=64 v=127
34718 On ch=1 n=a5 v=82
34740 On ch=1 n=d#6 v=0
34740 On ch=1 n=c5 v=76
34838 On ch=1 n=b4 v=87
34850 On ch=1 n=b5 v=104
34858 On ch=1 n=c5 v=0
34898 On ch=1 n=a5 v=0
34956 On ch=1 n=a4 v=94
34968 On ch=1 n=c6 v=100
34996 On ch=1 n=b4 v=0
35004 On ch=1 n=b5 v=0
35030 On ch=1 n=c6 v=0
35040 On ch=1 n=a4 v=0
35100 On ch=1 n=e6 v=103
35106 On ch=1 n=g4 v=84
35110 On ch=1 n=b5 v=90
35154 Par ch=1 c=64 v=63
35164 Par ch=1 c=64 v=0
35236 On ch=1 n=f#4 v=101
35236 On ch=1 n=f#6 v=108
35280 On ch=1 n=g4 v=0
35322 On ch=1 n=e6 v=0
35368 On ch=1 n=e4 v=85
35378 On ch=1 n=g6 v=103
35424 On ch=1 n=f#4 v=0
35438 Par ch=1 c=64 v=63
35442 Par ch=1 c=64 v=127
35466 On ch=1 n=f#6 v=0
35486 On ch=1 n=e6 v=106
35500 On ch=1 n=b5 v=0
35504 On ch=1 n=g4 v=94
35530 On ch=1 n=e4 v=0
35540 On ch=1 n=g6 v=0
35558 On ch=1 n=e6 v=0
35590 Par ch=1 c=64 v=63
35596 On ch=1 n=g4 v=0
35602 Par ch=1 c=64 v=0
35678 Par ch=1 c=64 v=63
35680 On ch=1 n=a4 v=86
35684 On ch=1 n=c7 v=117
35688 On ch=1 n=e6 v=113
35692 Par ch=1 c=64 v=127
35864 On ch=1 n=a3 v=96
35900 On ch=1 n=a4 v=0
36016 On ch=1 n=a4 v=106
36030 On ch=1 n=a3 v=0
36124 On ch=1 n=b6 v=106
36142 On ch=1 n=a4 v=0
36146 On ch=1 n=b4 v=108
36170 On ch=1 n=c7 v=0
36192 On ch=1 n=e6 v=0
36204 On ch=1 n=b6 v=0
36258 On ch=1 n=b4 v=0
36264 On ch=1 n=a6 v=117
36274 On ch=1 n=e6 v=108
36276 On ch=1 n=c5 v=101
36302 Par ch=1 c=64 v=63
36384 Par ch=1 c=64 v=127
36398 On ch=1 n=c5 v=0
36410 On ch=1 n=c4 v=102
36494 On ch=1 n=c4 v=0
36544 On ch=1 n=c5 v=98
36664 On ch=1 n=g6 v=94
36674 On ch=1 n=b4 v=98
36686 On ch=1 n=c5 v=0
36702 On ch=1 n=a6 v=0
36714 On ch=1 n=e6 v=0
36734 On ch=1 n=g6 v=0
36738 On ch=1 n=b4 v=0
36760 Par ch=1 c=64 v=63
36780 Par ch=1 c=64 v=0
36810 Par ch=1 c=64 v=63
36820 On ch=1 n=f#6 v=116
36824 On ch=1 n=c6 v=101
36826 On ch=1 n=a4 v=76
36862 Par ch=1 c=64 v=127
36944 On ch=1 n=a4 v=0
36958 On ch=1 n=a3 v=92
36992 On ch=1 n=f#6 v=0
37050 On ch=1 n=a3 v=0
37096 On ch=1 n=a4 v=67
37114 On ch=1 n=c6 v=0
37234 On ch=1 n=e6 v=84
37240 On ch=1 n=a4 v=0
37242 On ch=1 n=c#6 v=77
37242 On ch=1 n=a#4 v=72
37308 On ch=1 n=c#6 v=0
37310 On ch=1 n=e6 v=0
37328 On ch=1 n=a#4 v=0
37356 Par ch=1 c=64 v=63
37384 On ch=1 n=b4 v=73
37390 On ch=1 n=e6 v=75
37398 On ch=1 n=b5 v=64
37408 Par ch=1 c=64 v=0
37482 On ch=1 n=b4 v=0
37518 On ch=1 n=d#6 v=80
37520 On ch=1 n=e6 v=0
37604 On ch=1 n=b5 v=0
37622 On ch=1 n=d#6 v=0
37704 On ch=1 n=c#6 v=77
37838 On ch=1 n=c#6 v=0
37850 On ch=1 n=b5 v=75
37950 On ch=1 n=b5 v=0
38064 On ch=1 n=g4 v=62
38074 On ch=1 n=g3 v=57
38120 Par ch=1 c=64 v=63
38142 Par ch=1 c=64 v=127
38264 On ch=1 n=b5 v=51
38314 On ch=1 n=g4 v=0
38338 On ch=1 n=g3 v=0
38436 On ch=1 n=e6 v=77
38490 On ch=1 n=b5 v=0
38574 On ch=1 n=f#4 v=74
38578 On ch=1 n=f#3 v=72
38584 On ch=1 n=d#6 v=81
38596 On ch=1 n=e6 v=0
38642 On ch=1 n=f#4 v=0
38648 On ch=1 n=f#3 v=0
38666 On ch=1 n=d#6 v=0
38708 On ch=1 n=e4 v=80
38720 On ch=1 n=e3 v=59
38816 Par ch=1 c=64 v=63
38870 On ch=1 n=b5 v=76
38874 Par ch=1 c=64 v=127
39004 On ch=1 n=g6 v=77
39012 On ch=1 n=e4 v=0
39014 On ch=1 n=e3 v=0
39082 On ch=1 n=b5 v=0
39120 On ch=1 n=f#6 v=95
39148 On ch=1 n=d#3 v=75
39148 On ch=1 n=d#4 v=74
39154 On ch=1 n=g6 v=0
39188 On ch=1 n=d#4 v=0
39196 On ch=1 n=d#3 v=0
39196 On ch=1 n=f#6 v=0
39274 On ch=1 n=e4 v=84
39288 On ch=1 n=e3 v=55
39294 Par ch=1 c=64 v=63
39328 Par ch=1 c=64 v=127
39416 On ch=1 n=b5 v=81
39468 On ch=1 n=e3 v=0
39510 On ch=1 n=e4 v=0
39546 On ch=1 n=g6 v=96
39668 On ch=1 n=f#3 v=73
39680 On ch=1 n=f#4 v=79
39686 On ch=1 n=a6 v=92
39718 On ch=1 n=f#4 v=0
39722 On ch=1 n=b5 v=0
39728 On ch=1 n=g6 v=0
39732 On ch=1 n=f#3 v=0
39776 On ch=1 n=a6 v=0
39822 On ch=1 n=e4 v=83
39826 On ch=1 n=e3 v=83
39868 Par ch=1 c=64 v=63
39930 Par ch=1 c=64 v=127
39962 On ch=1 n=b5 v=79
40006 On ch=1 n=e3 v=0
40024 On ch=1 n=e4 v=0
40106 On ch=1 n=g6 v=81
40124 On ch=1 n=d#3 v=98
40132 On ch=1 n=d#4 v=77
40166 On ch=1 n=d#3 v=0
40176 On ch=1 n=d#4 v=0
40238 On ch=1 n=f#6 v=88
40274 On ch=1 n=g6 v=0
40290 On ch=1 n=b5 v=0
40318 Par ch=1 c=64 v=63
40334 On ch=1 n=f#6 v=0
40340 Par ch=1 c=64 v=0
40394 Par ch=1 c=64 v=63
40422 On ch=1 n=f#4 v=82
40424 On ch=1 n=f#3 v=86
40436 Par ch=1 c=64 v=127
40568 On ch=1 n=b5 v=78
40674 On ch=1 n=f#4 v=0
40678 On ch=1 n=f#3 v=0
40706 On ch=1 n=a6 v=71
40832 On ch=1 n=g6 v=84
40842 On ch=1 n=e3 v=84
40852 On ch=1 n=e4 v=75
40864 On ch=1 n=a6 v=0
40888 On ch=1 n=e4 v=0
40892 On ch=1 n=b5 v=0
40898 On ch=1 n=e3 v=0
40936 On ch=1 n=g6 v=0
40992 On ch=1 n=d#4 v=91
40996 On ch=1 n=d#3 v=88
41042 Par ch=1 c=64 v=63
41088 Par ch=1 c=64 v=127
41120 On ch=1 n=b5 v=84
41260 On ch=1 n=f#6 v=101
41270 On ch=1 n=d#3 v=0
41278 On ch=1 n=d#4 v=0
41388 On ch=1 n=e3 v=68
41394 On ch=1 n=g6 v=94
41394 On ch=1 n=e4 v=84
41406 On ch=1 n=b5 v=0
41436 On ch=1 n=e4 v=0
41446 On ch=1 n=f#6 v=0
41448 On ch=1 n=e3 v=0
41502 On ch=1 n=g6 v=0
41540 On ch=1 n=f#3 v=91
41542 On ch=1 n=f#4 v=108
41596 Par ch=1 c=64 v=63
41652 Par ch=1 c=64 v=127
41674 On ch=1 n=b5 v=88
41794 On ch=1 n=f#3 v=0
41808 On ch=1 n=f#4 v=0
41816 On ch=1 n=a6 v=104
41838 On ch=1 n=b5 v=0
41948 On ch=1 n=b6 v=106
41952 On ch=1 n=g3 v=82
41956 On ch=1 n=g4 v=81
41972 On ch=1 n=a6 v=0
42010 On ch=1 n=g4 v=0
42012 On ch=1 n=g3 v=0
42026 On ch=1 n=b6 v=0
42086 On ch=1 n=f#4 v=115
42092 On ch=1 n=f#3 v=109
42096 Par ch=1 c=64 v=63
42116 Par ch=1 c=64 v=0
42128 Par ch=1 c=64 v=63
42164 Par ch=1 c=64 v=127
42218 On ch=1 n=b5 v=96
42220 On ch=1 n=f#3 v=0
42226 On ch=1 n=f#4 v=0
42372 On ch=1 n=a6 v=96
42382 On ch=1 n=e3 v=87
42396 On ch=1 n=e4 v=87
42408 On ch=1 n=b5 v=0
42438 On ch=1 n=e3 v=0
42440 Par ch=1 c=64 v=63
42448 Par ch=1 c=64 v=0
42476 On ch=1 n=e4 v=0
42496 On ch=1 n=g6 v=93
42534 On ch=1 n=a6 v=0
42630 On ch=1 n=g6 v=0
42652 On ch=1 n=b5 v=103
42656 On ch=1 n=g4 v=109
42658 On ch=1 n=b4 v=113
42678 Par ch=1 c=64 v=127
42722 On ch=1 n=b5 v=0
42804 On ch=1 n=b6 v=101
42860 On ch=1 n=b6 v=0
42900 On ch=1 n=b4 v=0
42938 On ch=1 n=e7 v=116
42970 On ch=1 n=g4 v=0
43044 Par ch=1 c=64 v=63
43050 Par ch=1 c=64 v=0
43064 On ch=1 n=d7 v=104
43072 On ch=1 n=a4 v=83
43084 On ch=1 n=f#4 v=87
43096 On ch=1 n=e7 v=0
43124 On ch=1 n=d7 v=0
43146 On ch=1 n=a4 v=0
43156 On ch=1 n=f#4 v=0
43208 On ch=1 n=e4 v=117
43210 On ch=1 n=g4 v=113
43230 On ch=1 n=g5 v=100
43234 Par ch=1 c=64 v=63
43236 Par ch=1 c=64 v=127
43290 On ch=1 n=g5 v=0
43354 On ch=1 n=g6 v=104
43420 On ch=1 n=g6 v=0
43478 On ch=1 n=g4 v=0
43482 On ch=1 n=c7 v=113
43504 On ch=1 n=e4 v=0
43604 On ch=1 n=b6 v=102
43630 On ch=1 n=f#4 v=91
43634 On ch=1 n=d4 v=86
43638 On ch=1 n=c7 v=0
43638 Par ch=1 c=64 v=63
43644 Par ch=1 c=64 v=0
43670 On ch=1 n=b6 v=0
43684 On ch=1 n=f#4 v=0
43696 On ch=1 n=d4 v=0
43760 On ch=1 n=c4 v=111
43764 On ch=1 n=e4 v=111
43766 Par ch=1 c=64 v=63
43772 Par ch=1 c=64 v=127
43784 On ch=1 n=e5 v=108
43846 On ch=1 n=e5 v=0
43912 On ch=1 n=e6 v=112
43984 On ch=1 n=e6 v=0
43984 On ch=1 n=c4 v=0
44036 On ch=1 n=e4 v=0
44044 On ch=1 n=a6 v=112
44116 Par ch=1 c=64 v=63
44124 Par ch=1 c=64 v=0
44156 On ch=1 n=g6 v=99
44170 On ch=1 n=b3 v=80
44172 On ch=1 n=d4 v=84
44180 On ch=1 n=a6 v=0
44218 On ch=1 n=g6 v=0
44242 On ch=1 n=d4 v=0
44248 On ch=1 n=b3 v=0
44304 Par ch=1 c=64 v=63
44304 On ch=1 n=a3 v=113
44308 Par ch=1 c=64 v=127
44308 On ch=1 n=c4 v=111
44330 On ch=1 n=c5 v=98
44342 On ch=1 n=b3 v=46
44382 On ch=1 n=b3 v=0
44384 On ch=1 n=c5 v=0
44458 On ch=1 n=c4 v=0
44458 On ch=1 n=c6 v=99
44496 On ch=1 n=a3 v=0
44524 On ch=1 n=c6 v=0
44592 On ch=1 n=f6 v=103
44700 On ch=1 n=e6 v=107
44720 On ch=1 n=b3 v=84
44722 On ch=1 n=g3 v=87
44742 On ch=1 n=f6 v=0
44792 On ch=1 n=e6 v=0
44808 On ch=1 n=g3 v=0
44838 Par ch=1 c=64 v=63
44860 On ch=1 n=f#3 v=86
44862 On ch=1 n=b3 v=0
44868 On ch=1 n=a3 v=78
44868 On ch=1 n=d#6 v=105
44908 On ch=1 n=a3 v=0
44920 On ch=1 n=f#3 v=0
44968 On ch=1 n=d#6 v=0
44990 On ch=1 n=f#6 v=98
45064 On ch=1 n=f#6 v=0
45140 On ch=1 n=b5 v=100
45144 On ch=1 n=d#3 v=107
45146 On ch=1 n=b3 v=102
45246 On ch=1 n=b5 v=0
45274 On ch=1 n=a6 v=100
45320 On ch=1 n=d#3 v=0
45404 On ch=1 n=e3 v=96
45410 On ch=1 n=g6 v=100
45430 On ch=1 n=a6 v=0
45514 On ch=1 n=g6 v=0
45530 On ch=1 n=e6 v=88
45550 On ch=1 n=e3 v=0
45614 On ch=1 n=b3 v=0
45628 On ch=1 n=e6 v=0
45680 On ch=1 n=c7 v=107
45688 On ch=1 n=a3 v=106
45808 On ch=1 n=a6 v=98
45850 On ch=1 n=c7 v=0
45934 On ch=1 n=a3 v=0
45940 On ch=1 n=b3 v=108
45944 On ch=1 n=g6 v=100
45960 On ch=1 n=a6 v=0
46050 On ch=1 n=g6 v=0
46062 On ch=1 n=b3 v=0
46064 On ch=1 n=b6 v=93
46134 On ch=1 n=b6 v=0
46208 On ch=1 n=b2 v=98
46212 On ch=1 n=d#6 v=100
46284 On ch=1 n=b2 v=0
46286 On ch=1 n=d#6 v=0
46328 On ch=1 n=f#6 v=93
46372 On ch=1 n=f#6 v=0
46462 On ch=1 n=e3 v=102
46478 On ch=1 n=e6 v=111
46494 Par ch=1 c=64 v=63
46494 Par ch=1 c=64 v=127
46514 On ch=1 n=e3 v=0
46578 On ch=1 n=e6 v=0
46586 On ch=1 n=b5 v=94
46680 On ch=1 n=b5 v=0
46744 On ch=1 n=g5 v=85
46806 On ch=1 n=g5 v=0
46864 On ch=1 n=e5 v=90
46918 On ch=1 n=e5 v=0
46988 Par ch=1 c=64 v=63
47000 Par ch=1 c=64 v=0
47042 On ch=1 n=b4 v=61
47048 On ch=1 n=b5 v=82
47054 On ch=1 n=g4 v=52
47082 Par ch=1 c=64 v=63
47086 Par ch=1 c=64 v=127
47118 On ch=1 n=b5 v=0
47208 On ch=1 n=b6 v=90
47272 On ch=1 n=b6 v=0
47296 Par ch=1 c=64 v=63
47304 Par ch=1 c=64 v=0
47344 On ch=1 n=e7 v=90
47456 On ch=1 n=f#4 v=76
47458 On ch=1 n=g4 v=0
47464 On ch=1 n=d7 v=99
47478 On ch=1 n=e7 v=0
47478 On ch=1 n=a4 v=54
47500 On ch=1 n=b4 v=0
47524 On ch=1 n=d7 v=0
47604 On ch=1 n=f#4 v=0
47628 On ch=1 n=g5 v=87
47630 On ch=1 n=a4 v=0
47630 Par ch=1 c=64 v=63
47632 On ch=1 n=g4 v=61
47634 Par ch=1 c=64 v=127
47640 On ch=1 n=e4 v=52
47686 On ch=1 n=g5 v=0
47744 On ch=1 n=g4 v=0
47768 On ch=1 n=g6 v=67
47782 On ch=1 n=e4 v=0
47816 On ch=1 n=g6 v=0
47902 On ch=1 n=c7 v=70
47904 Par ch=1 c=64 v=63
47914 Par ch=1 c=64 v=0
48006 On ch=1 n=f#4 v=72
48020 On ch=1 n=d4 v=65
48028 On ch=1 n=b6 v=83
48034 On ch=1 n=c7 v=0
48064 On ch=1 n=b6 v=0
48078 On ch=1 n=d4 v=0
48080 On ch=1 n=f#4 v=0
48152 Par ch=1 c=64 v=63
48158 Par ch=1 c=64 v=127
48170 On ch=1 n=e4 v=64
48176 On ch=1 n=c4 v=65
48182 On ch=1 n=e5 v=75
48254 On ch=1 n=e5 v=0
48350 On ch=1 n=e6 v=35
48358 On ch=1 n=c4 v=0
48386 On ch=1 n=e6 v=0
48400 On ch=1 n=e4 v=0
48462 On ch=1 n=a6 v=76
48522 Par ch=1 c=64 v=63
48534 Par ch=1 c=64 v=0
48574 On ch=1 n=g6 v=76
48576 On ch=1 n=b3 v=60
48578 On ch=1 n=a6 v=0
48582 On ch=1 n=d4 v=59
48614 On ch=1 n=g6 v=0
48706 On ch=1 n=b3 v=0
48708 Par ch=1 c=64 v=63
48720 On ch=1 n=c4 v=62
48722 Par ch=1 c=64 v=127
48730 On ch=1 n=d4 v=0
48732 On ch=1 n=c5 v=83
48736 On ch=1 n=a3 v=54
48776 On ch=1 n=c5 v=0
48840 On ch=1 n=c4 v=0
48862 On ch=1 n=c6 v=91
48878 On ch=1 n=a3 v=0
48924 On ch=1 n=c6 v=0
49004 On ch=1 n=f6 v=73
49092 Par ch=1 c=64 v=63
49110 On ch=1 n=e6 v=96
49128 Par ch=1 c=64 v=0
49132 On ch=1 n=f6 v=0
49158 On ch=1 n=b3 v=47
49164 On ch=1 n=g3 v=48
49206 On ch=1 n=e6 v=0
49240 Par ch=1 c=64 v=63
49264 On ch=1 n=d#6 v=101
49266 On ch=1 n=f#3 v=80
49266 Par ch=1 c=64 v=127
49268 On ch=1 n=a3 v=62
49270 On ch=1 n=g3 v=0
49274 On ch=1 n=b3 v=0
49314 Par ch=1 c=64 v=63
49320 On ch=1 n=a3 v=0
49330 Par ch=1 c=64 v=0
49334 On ch=1 n=d#6 v=0
49344 On ch=1 n=f#3 v=0
49372 On ch=1 n=f#6 v=89
49464 On ch=1 n=f#6 v=0
49530 On ch=1 n=d#3 v=76
49536 On ch=1 n=b5 v=76
49542 On ch=1 n=b3 v=64
49628 On ch=1 n=b5 v=0
49670 On ch=1 n=a6 v=80
49686 On ch=1 n=d#3 v=0
49824 On ch=1 n=e3 v=74
49828 On ch=1 n=g6 v=78
49832 On ch=1 n=a6 v=0
49886 Par ch=1 c=64 v=63
49894 Par ch=1 c=64 v=127
49926 On ch=1 n=e3 v=0
49938 On ch=1 n=g6 v=0
49960 On ch=1 n=e6 v=75
49976 On ch=1 n=b3 v=0
50010 Par ch=1 c=64 v=63
50020 Par ch=1 c=64 v=0
50038 On ch=1 n=e6 v=0
50090 On ch=1 n=c7 v=91
50104 On ch=1 n=a3 v=78
50186 On ch=1 n=a3 v=0
50214 On ch=1 n=a6 v=84
50224 On ch=1 n=c7 v=0
50358 On ch=1 n=g6 v=79
50360 On ch=1 n=b3 v=65
50368 On ch=1 n=a6 v=0
50382 Par ch=1 c=64 v=63
50388 Par ch=1 c=64 v=127
50468 On ch=1 n=g6 v=0
50488 On ch=1 n=b6 v=59
50490 On ch=1 n=b3 v=0
50586 On ch=1 n=b6 v=0
50620 Par ch=1 c=64 v=63
50630 On ch=1 n=b2 v=57
50634 Par ch=1 c=64 v=0
50654 On ch=1 n=d#6 v=69
50682 Par ch=1 c=64 v=63
50714 Par ch=1 c=64 v=127
50752 On ch=1 n=b2 v=0
50768 On ch=1 n=d#6 v=0
50788 On ch=1 n=f#6 v=83
50828 On ch=1 n=f#6 v=0
51040 On ch=1 n=e6 v=89
51202 Par ch=1 c=64 v=63
51206 On ch=1 n=e4 v=54
51306 Par ch=1 c=64 v=127
51388 On ch=1 n=f#4 v=74
51442 On ch=1 n=e4 v=0
51512 On ch=1 n=d6 v=76
51542 On ch=1 n=g#4 v=74
51570 On ch=1 n=f#4 v=0
51648 On ch=1 n=c6 v=93
51666 On ch=1 n=a4 v=71
51704 On ch=1 n=d6 v=0
51716 On ch=1 n=g#4 v=0
51720 On ch=1 n=e6 v=0
51778 On ch=1 n=b5 v=94
51792 On ch=1 n=b4 v=82
51798 On ch=1 n=a4 v=0
51812 Par ch=1 c=64 v=63
51822 On ch=1 n=c6 v=0
51932 On ch=1 n=c5 v=81
51934 On ch=1 n=a5 v=86
51940 On ch=1 n=b5 v=0
51946 Par ch=1 c=64 v=127
51952 On ch=1 n=b4 v=0
52046 On ch=1 n=a4 v=75
52058 On ch=1 n=c6 v=99
52074 On ch=1 n=a5 v=0
52080 On ch=1 n=c5 v=0
52126 On ch=1 n=a4 v=0
52144 Par ch=1 c=64 v=63
52168 Par ch=1 c=64 v=0
52220 On ch=1 n=c6 v=0
52222 On ch=1 n=f6 v=100
52226 On ch=1 n=d6 v=87
52308 Par ch=1 c=64 v=63
52338 Par ch=1 c=64 v=127
52366 On ch=1 n=d4 v=71
52532 On ch=1 n=e4 v=76
52540 Par ch=1 c=64 v=63
52574 Par ch=1 c=64 v=0
52582 On ch=1 n=d4 v=0
52608 Par ch=1 c=64 v=63
52656 On ch=1 n=f4 v=84
52658 On ch=1 n=c6 v=89
52668 Par ch=1 c=64 v=127
52674 On ch=1 n=d6 v=0
52740 On ch=1 n=e4 v=0
52790 On ch=1 n=g4 v=83
52798 On ch=1 n=b5 v=93
52814 On ch=1 n=c6 v=0
52838 On ch=1 n=f4 v=0
52906 On ch=1 n=a4 v=85
52910 On ch=1 n=g4 v=0
52916 On ch=1 n=a5 v=97
52946 Par ch=1 c=64 v=63
52952 On ch=1 n=b5 v=0
53040 On ch=1 n=f6 v=0
53052 On ch=1 n=b4 v=84
53064 On ch=1 n=a4 v=0
53064 On ch=1 n=g5 v=87
53066 On ch=1 n=a5 v=0
53168 Par ch=1 c=64 v=0
53172 On ch=1 n=g5 v=0
53182 On ch=1 n=g4 v=84
53190 On ch=1 n=b5 v=102
53218 On ch=1 n=b4 v=0
53260 On ch=1 n=g4 v=0
53318 On ch=1 n=b5 v=0
53344 On ch=1 n=e6 v=100
53352 On ch=1 n=c6 v=86
53358 Par ch=1 c=64 v=63
53400 Par ch=1 c=64 v=127
53492 On ch=1 n=c4 v=72
53596 Par ch=1 c=64 v=63
53624 Par ch=1 c=64 v=0
53644 On ch=1 n=d4 v=71
53666 Par ch=1 c=64 v=63
53718 On ch=1 n=c4 v=0
53730 Par ch=1 c=64 v=127
53764 On ch=1 n=e4 v=84
53782 On ch=1 n=b5 v=78
53816 On ch=1 n=c6 v=0
53832 On ch=1 n=d4 v=0
53894 On ch=1 n=f4 v=84
53918 On ch=1 n=a5 v=89
53928 On ch=1 n=b5 v=0
53940 Par ch=1 c=64 v=63
53950 On ch=1 n=e4 v=0
54024 On ch=1 n=g4 v=79
54032 On ch=1 n=g5 v=87
54036 On ch=1 n=f4 v=0
54050 Par ch=1 c=64 v=127
54066 On ch=1 n=a5 v=0
54146 On ch=1 n=e6 v=0
54158 On ch=1 n=a4 v=76
54170 On ch=1 n=g5 v=0
54176 On ch=1 n=g4 v=0
54178 On ch=1 n=f5 v=88
54270 Par ch=1 c=64 v=63
54282 On ch=1 n=f5 v=0
54296 On ch=1 n=f4 v=77
54302 On ch=1 n=a5 v=84
54330 On ch=1 n=a4 v=0
54336 Par ch=1 c=64 v=0
54386 On ch=1 n=f4 v=0
54448 On ch=1 n=a5 v=0
54464 On ch=1 n=d6 v=79
54488 On ch=1 n=b5 v=72
54552 Par ch=1 c=64 v=63
54588 On ch=1 n=b3 v=57
54610 Par ch=1 c=64 v=127
54764 On ch=1 n=c4 v=53
54800 On ch=1 n=b3 v=0
54860 Par ch=1 c=64 v=63
54864 On ch=1 n=d4 v=68
54884 On ch=1 n=a5 v=74
54894 On ch=1 n=b5 v=0
54900 Par ch=1 c=64 v=0
54946 On ch=1 n=c4 v=0
54950 On ch=1 n=d6 v=0
55002 On ch=1 n=d4 v=0
55018 On ch=1 n=g#5 v=95
55024 On ch=1 n=e4 v=77
55038 On ch=1 n=a5 v=0
55070 Par ch=1 c=64 v=63
55144 On ch=1 n=a5 v=91
55144 On ch=1 n=f#4 v=88
55146 On ch=1 n=g#5 v=0
55162 On ch=1 n=e4 v=0
55270 On ch=1 n=b5 v=94
55278 On ch=1 n=g#4 v=80
55290 On ch=1 n=f#4 v=0
55306 On ch=1 n=a5 v=0
55390 On ch=1 n=g#5 v=104
55390 On ch=1 n=e4 v=76
55434 On ch=1 n=b5 v=0
55452 On ch=1 n=g#4 v=0
55518 On ch=1 n=g#5 v=0
55524 On ch=1 n=a4 v=85
55530 On ch=1 n=c6 v=87
55546 Par ch=1 c=64 v=0
55558 On ch=1 n=e4 v=0
55612 On ch=1 n=a4 v=0
55630 On ch=1 n=c6 v=0
55654 On ch=1 n=a5 v=71
55750 On ch=1 n=a5 v=0
55820 On ch=1 n=e6 v=92
55856 Par ch=1 c=64 v=63
55864 Par ch=1 c=64 v=127
55976 On ch=1 n=g4 v=48
55978 On ch=1 n=b5 v=70
56106 Par ch=1 c=64 v=63
56118 On ch=1 n=f4 v=68
56134 On ch=1 n=a5 v=76
56146 On ch=1 n=e6 v=0
56154 On ch=1 n=b5 v=0
56154 On ch=1 n=g4 v=0
56156 Par ch=1 c=64 v=127
56272 On ch=1 n=f6 v=79
56300 On ch=1 n=a5 v=0
56322 On ch=1 n=f4 v=0
56404 On ch=1 n=f6 v=0
56404 On ch=1 n=d6 v=90
56422 Par ch=1 c=64 v=63
56430 Par ch=1 c=64 v=0
56522 On ch=1 n=d4 v=56
56538 On ch=1 n=b5 v=82
56642 Par ch=1 c=64 v=63
56662 Par ch=1 c=64 v=127
56682 On ch=1 n=g#5 v=75
56688 On ch=1 n=e4 v=68
56698 On ch=1 n=d4 v=0
56708 On ch=1 n=b5 v=0
56762 On ch=1 n=g#5 v=0
56802 On ch=1 n=d6 v=0
56808 On ch=1 n=e6 v=99
56816 On ch=1 n=e4 v=0
56944 On ch=1 n=c6 v=90
56960 On ch=1 n=e6 v=0
56994 Par ch=1 c=64 v=63
57004 Par ch=1 c=64 v=0
57094 On ch=1 n=a5 v=68
57102 On ch=1 n=c4 v=54
57140 Par ch=1 c=64 v=63
57158 Par ch=1 c=64 v=127
57234 On ch=1 n=d4 v=67
57242 On ch=1 n=f5 v=56
57250 On ch=1 n=a5 v=0
57294 On ch=1 n=c4 v=0
57366 On ch=1 n=d6 v=93
57380 On ch=1 n=c6 v=0
57422 On ch=1 n=f5 v=0
57428 On ch=1 n=d4 v=0
57486 On ch=1 n=d6 v=0
57496 On ch=1 n=b5 v=91
57604 On ch=1 n=b5 v=0
57632 On ch=1 n=d#4 v=80
57634 On ch=1 n=a5 v=92
57668 On ch=1 n=f#5 v=64
57704 On ch=1 n=f#5 v=0
57794 On ch=1 n=e4 v=58
57798 On ch=1 n=d#4 v=0
57798 On ch=1 n=g#5 v=99
57800 On ch=1 n=a5 v=0
57818 On ch=1 n=e5 v=79
57842 Par ch=1 c=64 v=63
57858 Par ch=1 c=64 v=0
57946 On ch=1 n=b5 v=86
57956 Par ch=1 c=64 v=63
57974 Par ch=1 c=64 v=127
57976 On ch=1 n=g#5 v=0
57996 On ch=1 n=e5 v=0
58082 On ch=1 n=e4 v=0
58096 On ch=1 n=e6 v=90
58112 On ch=1 n=b5 v=0
58212 On ch=1 n=e6 v=0
58242 On ch=1 n=g#5 v=85
58422 On ch=1 n=g#5 v=0
58424 On ch=1 n=a5 v=79
58434 On ch=1 n=a4 v=87
58440 On ch=1 n=f4 v=76
58572 Par ch=1 c=64 v=63
58580 On ch=1 n=e6 v=72
58628 On ch=1 n=a5 v=0
58674 Par ch=1 c=64 v=127
58732 On ch=1 n=d#6 v=86
58736 On ch=1 n=e6 v=0
58848 On ch=1 n=d#6 v=0
58870 On ch=1 n=a5 v=77
58996 On ch=1 n=g#5 v=88
59002 On ch=1 n=b4 v=67
59012 On ch=1 n=e4 v=50
59018 On ch=1 n=a5 v=0
59074 On ch=1 n=f4 v=0
59104 On ch=1 n=a4 v=0
59126 On ch=1 n=b5 v=86
59164 On ch=1 n=g#5 v=0
59224 Par ch=1 c=64 v=63
59266 On ch=1 n=e6 v=96
59304 On ch=1 n=b5 v=0
59336 Par ch=1 c=64 v=127
59384 On ch=1 n=g#5 v=101
59398 On ch=1 n=e4 v=0
59426 On ch=1 n=e6 v=0
59430 On ch=1 n=b4 v=0
59524 On ch=1 n=a4 v=91
59534 On ch=1 n=f4 v=83
59548 On ch=1 n=a5 v=84
59590 On ch=1 n=g#5 v=0
59638 Par ch=1 c=64 v=63
59680 On ch=1 n=e6 v=63
59752 On ch=1 n=a5 v=0
59768 Par ch=1 c=64 v=127
59828 On ch=1 n=d#6 v=80
59850 On ch=1 n=e6 v=0
59946 On ch=1 n=d#6 v=0
59958 On ch=1 n=a5 v=68
60098 On ch=1 n=b4 v=63
60102 On ch=1 n=e4 v=59
60106 On ch=1 n=g#5 v=87
60140 On ch=1 n=a5 v=0
60142 Par ch=1 c=64 v=63
60152 On ch=1 n=f4 v=0
60160 On ch=1 n=a4 v=0
60164 Par ch=1 c=64 v=0
60242 On ch=1 n=b5 v=82
60268 On ch=1 n=g#5 v=0
60284 Par ch=1 c=64 v=63
60316 Par ch=1 c=64 v=127
60374 On ch=1 n=e4 v=0
60376 On ch=1 n=b4 v=0
60384 On ch=1 n=e6 v=100
60422 On ch=1 n=b5 v=0
60502 On ch=1 n=g#5 v=103
60544 On ch=1 n=e6 v=0
60632 On ch=1 n=a4 v=85
60642 On ch=1 n=f4 v=83
60648 On ch=1 n=a5 v=92
60698 On ch=1 n=g#5 v=0
60776 Par ch=1 c=64 v=63
60792 On ch=1 n=e6 v=90
60848 On ch=1 n=a5 v=0
60916 Par ch=1 c=64 v=127
60938 On ch=1 n=d#6 v=85
60978 On ch=1 n=e6 v=0
61060 On ch=1 n=d#6 v=0
61066 On ch=1 n=a5 v=72
61218 On ch=1 n=b4 v=45
61234 On ch=1 n=g#5 v=82
61244 On ch=1 n=e4 v=38
61280 On ch=1 n=a5 v=0
61302 On ch=1 n=f4 v=0
61324 On ch=1 n=a4 v=0
61338 Par ch=1 c=64 v=63
61386 On ch=1 n=b5 v=71
61406 On ch=1 n=g#5 v=0
61508 Par ch=1 c=64 v=127
61538 On ch=1 n=b5 v=0
61546 On ch=1 n=e6 v=67
61684 On ch=1 n=d#6 v=86
61698 On ch=1 n=e6 v=0
61786 On ch=1 n=d#6 v=0
61798 On ch=1 n=e4 v=0
61850 On ch=1 n=d6 v=67
61860 On ch=1 n=b4 v=0
62006 On ch=1 n=c#6 v=74
62020 On ch=1 n=d6 v=0
62114 Par ch=1 c=64 v=63
62154 On ch=1 n=c#6 v=0
62176 On ch=1 n=d6 v=64
62308 Par ch=1 c=64 v=0
62364 On ch=1 n=b5 v=61
62376 On ch=1 n=d6 v=0
62534 On ch=1 n=b5 v=0
62610 On ch=1 n=c6 v=61
62648 On ch=1 n=a5 v=19
62686 Par ch=1 c=64 v=63
62706 Par ch=1 c=64 v=127
62776 On ch=1 n=a4 v=43
62784 On ch=1 n=c6 v=0
62812 On ch=1 n=a5 v=0
62950 On ch=1 n=a4 v=0
62952 On ch=1 n=e5 v=41
63056 On ch=1 n=g#5 v=60
63074 On ch=1 n=b5 v=55
63084 On ch=1 n=e5 v=0
63084 On ch=1 n=d5 v=60
63118 Par ch=1 c=64 v=63
63138 On ch=1 n=g#5 v=0
63140 Par ch=1 c=64 v=0
63148 On ch=1 n=d5 v=0
63180 On ch=1 n=b5 v=0
63212 On ch=1 n=a5 v=61
63236 On ch=1 n=e5 v=48
63288 Par ch=1 c=64 v=63
63316 Par ch=1 c=64 v=127
63356 On ch=1 n=a4 v=47
63430 On ch=1 n=e5 v=0
63512 On ch=1 n=c5 v=55
63528 On ch=1 n=a4 v=0
63566 On ch=1 n=a5 v=0
63610 Par ch=1 c=64 v=63
63616 On ch=1 n=b4 v=60
63620 On ch=1 n=c5 v=0
63630 On ch=1 n=g#5 v=72
63646 Par ch=1 c=64 v=0
63696 On ch=1 n=b4 v=0
63762 On ch=1 n=g#5 v=0
63788 On ch=1 n=a5 v=65
63798 Par ch=1 c=64 v=63
63804 On ch=1 n=e5 v=42
63834 Par ch=1 c=64 v=127
63920 On ch=1 n=a4 v=50
63994 On ch=1 n=e5 v=0
64068 On ch=1 n=a4 v=0
64070 On ch=1 n=c5 v=71
64156 On ch=1 n=a5 v=0
64180 On ch=1 n=c5 v=0
64192 On ch=1 n=g#4 v=67
64196 On ch=1 n=b5 v=85
64276 On ch=1 n=b5 v=0
64280 On ch=1 n=g#4 v=0
64300 Par ch=1 c=64 v=63
64328 Par ch=1 c=64 v=0
64346 On ch=1 n=d6 v=88
64360 On ch=1 n=a5 v=69
64468 On ch=1 n=a4 v=69
64474 On ch=1 n=c6 v=84
64476 On ch=1 n=d6 v=0
64578 On ch=1 n=a5 v=0
64600 On ch=1 n=a4 v=0
64616 On ch=1 n=g#5 v=93
64628 On ch=1 n=b5 v=86
64630 On ch=1 n=e5 v=42
64660 On ch=1 n=c6 v=0
64724 On ch=1 n=e5 v=0
64742 On ch=1 n=e4 v=91
64756 On ch=1 n=b5 v=0
64762 On ch=1 n=g#5 v=0
64834 On ch=1 n=e4 v=0
64902 On ch=1 n=d6 v=100
64912 On ch=1 n=a5 v=84
64976 Par ch=1 c=64 v=63
64988 Par ch=1 c=64 v=127
65030 On ch=1 n=f4 v=74
65134 On ch=1 n=f4 v=0
65190 On ch=1 n=f5 v=89
65268 On ch=1 n=d6 v=0
65296 On ch=1 n=a5 v=0
65320 On ch=1 n=c6 v=101
65330 On ch=1 n=e5 v=86
65340 On ch=1 n=f5 v=0
65366 On ch=1 n=e5 v=0
65408 Par ch=1 c=64 v=63
65424 Par ch=1 c=64 v=0
65428 On ch=1 n=c6 v=0
65462 On ch=1 n=f6 v=107
65482 On ch=1 n=a5 v=90
65562 Par ch=1 c=64 v=63
65582 Par ch=1 c=64 v=127
65610 On ch=1 n=d4 v=86
65696 On ch=1 n=d4 v=0
65746 On ch=1 n=d5 v=92
65868 On ch=1 n=e6 v=93
65880 On ch=1 n=c5 v=94
65884 On ch=1 n=f6 v=0
65894 On ch=1 n=d5 v=0
65922 On ch=1 n=c5 v=0
65938 On ch=1 n=e6 v=0
65952 On ch=1 n=a5 v=0
66016 On ch=1 n=d6 v=102
66018 On ch=1 n=g#5 v=109
66040 Par ch=1 c=64 v=63
66050 Par ch=1 c=64 v=0
66148 On ch=1 n=b3 v=96
66196 Par ch=1 c=64 v=63
66216 Par ch=1 c=64 v=127
66274 On ch=1 n=b3 v=0
66288 On ch=1 n=b4 v=96
66348 On ch=1 n=g#5 v=0
66364 On ch=1 n=d6 v=0
66408 On ch=1 n=a4 v=91
66412 On ch=1 n=b4 v=0
66414 On ch=1 n=c6 v=89
66414 On ch=1 n=a5 v=81
66492 On ch=1 n=c6 v=0
66498 On ch=1 n=a5 v=0
66514 On ch=1 n=a4 v=0
66540 Par ch=1 c=64 v=63
66550 On ch=1 n=c6 v=98
66550 Par ch=1 c=64 v=0
66552 On ch=1 n=e4 v=77
66564 On ch=1 n=e5 v=77
66568 On ch=1 n=g#5 v=97
66624 On ch=1 n=e5 v=0
66626 On ch=1 n=e4 v=0
66640 On ch=1 n=c6 v=0
66666 On ch=1 n=g#5 v=0
66692 On ch=1 n=b5 v=79
66796 On ch=1 n=b5 v=0
66826 On ch=1 n=e4 v=83
66844 On ch=1 n=g#5 v=90
66906 On ch=1 n=e4 v=0
66914 On ch=1 n=g#5 v=0
66984 On ch=1 n=e5 v=61
67086 On ch=1 n=e5 v=0
67144 On ch=1 n=a5 v=60
67150 On ch=1 n=c6 v=66
67208 Par ch=1 c=64 v=63
67222 Par ch=1 c=64 v=127
67264 On ch=1 n=a4 v=48
67394 On ch=1 n=a5 v=0
67428 On ch=1 n=e5 v=63
67448 On ch=1 n=c6 v=0
67538 On ch=1 n=a4 v=0
67560 On ch=1 n=b5 v=76
67560 On ch=1 n=d5 v=52
67562 On ch=1 n=e5 v=0
67562 On ch=1 n=g#5 v=65
67616 On ch=1 n=d5 v=0
67640 On ch=1 n=g#5 v=0
67666 On ch=1 n=b5 v=0
67708 On ch=1 n=a5 v=67
67714 Par ch=1 c=64 v=63
67730 Par ch=1 c=64 v=0
67732 On ch=1 n=e5 v=52
67842 Par ch=1 c=64 v=63
67846 On ch=1 n=a4 v=60
67870 Par ch=1 c=64 v=127
67974 On ch=1 n=e5 v=0
67992 On ch=1 n=c5 v=69
68068 On ch=1 n=a5 v=0
68084 On ch=1 n=a4 v=0
68108 On ch=1 n=b4 v=63
68122 On ch=1 n=c5 v=0
68126 On ch=1 n=g#5 v=91
68182 On ch=1 n=b4 v=0
68230 On ch=1 n=g#5 v=0
68262 On ch=1 n=a5 v=84
68274 On ch=1 n=e5 v=76
68284 Par ch=1 c=64 v=63
68306 Par ch=1 c=64 v=0
68378 Par ch=1 c=64 v=63
68390 On ch=1 n=a4 v=62
68420 Par ch=1 c=64 v=127
68510 On ch=1 n=a4 v=0
68516 On ch=1 n=c5 v=73
68598 On ch=1 n=e5 v=0
68630 On ch=1 n=c5 v=0
68634 On ch=1 n=a5 v=0
68636 On ch=1 n=g#4 v=76
68664 On ch=1 n=b5 v=86
68730 On ch=1 n=b5 v=0
68754 On ch=1 n=g#4 v=0
68786 Par ch=1 c=64 v=63
68794 On ch=1 n=d6 v=98
68808 Par ch=1 c=64 v=0
68810 On ch=1 n=a5 v=84
68862 Par ch=1 c=64 v=63
68908 Par ch=1 c=64 v=127
68912 On ch=1 n=a4 v=76
68920 On ch=1 n=c6 v=93
68942 On ch=1 n=d6 v=0
69010 On ch=1 n=a5 v=0
69032 On ch=1 n=a4 v=0
69060 On ch=1 n=g#5 v=96
69062 On ch=1 n=c6 v=0
69062 On ch=1 n=b5 v=88
69068 On ch=1 n=e5 v=66
69082 Par ch=1 c=64 v=63
69174 On ch=1 n=g#5 v=0
69184 On ch=1 n=b5 v=0
69184 Par ch=1 c=64 v=127
69200 On ch=1 n=e5 v=0
69202 On ch=1 n=e4 v=98
69218 Par ch=1 c=64 v=63
69254 Par ch=1 c=64 v=0
69290 On ch=1 n=e4 v=0
69338 On ch=1 n=f6 v=103
69348 On ch=1 n=a5 v=89
69408 Par ch=1 c=64 v=63
69432 Par ch=1 c=64 v=127
69492 On ch=1 n=d4 v=94
69624 On ch=1 n=d4 v=0
69644 On ch=1 n=d5 v=100
69728 On ch=1 n=a5 v=0
69762 On ch=1 n=e6 v=98
69772 On ch=1 n=c5 v=90
69788 On ch=1 n=d5 v=0
69796 On ch=1 n=f6 v=0
69834 On ch=1 n=e6 v=0
69844 On ch=1 n=c5 v=0
69900 On ch=1 n=d6 v=111
69914 On ch=1 n=a5 v=92
69936 Par ch=1 c=64 v=63
69962 Par ch=1 c=64 v=0
69982 Par ch=1 c=64 v=63
70028 On ch=1 n=f4 v=104
70038 Par ch=1 c=64 v=127
70130 On ch=1 n=f4 v=0
70160 On ch=1 n=f5 v=98
70280 On ch=1 n=e5 v=99
70298 On ch=1 n=c6 v=99
70324 On ch=1 n=f5 v=0
70364 On ch=1 n=d6 v=0
70370 On ch=1 n=a5 v=0
70396 On ch=1 n=c6 v=0
70430 Par ch=1 c=64 v=63
70436 Par ch=1 c=64 v=0
70438 On ch=1 n=d5 v=104
70438 On ch=1 n=c6 v=103
70450 On ch=1 n=a5 v=89
70452 On ch=1 n=e5 v=0
70500 On ch=1 n=d5 v=0
70568 On ch=1 n=a5 v=0
70572 On ch=1 n=b5 v=97
70590 On ch=1 n=c6 v=0
70644 On ch=1 n=b5 v=0
70714 On ch=1 n=e5 v=97
70722 On ch=1 n=a5 v=94
70772 On ch=1 n=e5 v=0
70802 On ch=1 n=a5 v=0
70834 On ch=1 n=g#5 v=103
70912 On ch=1 n=g#5 v=0
70978 On ch=1 n=f5 v=102
70986 On ch=1 n=a5 v=99
71012 Par ch=1 c=64 v=63
71016 Par ch=1 c=64 v=127
71046 Par ch=1 c=64 v=63
71052 On ch=1 n=f5 v=0
71056 Par ch=1 c=64 v=0
71062 On ch=1 n=a5 v=0
71106 On ch=1 n=c#6 v=107
71168 On ch=1 n=c#6 v=0
71240 On ch=1 n=d6 v=107
71310 On ch=1 n=d6 v=0
71356 On ch=1 n=e6 v=108
71434 On ch=1 n=e6 v=0
71518 On ch=1 n=f6 v=118
71526 On ch=1 n=a5 v=109
71540 Par ch=1 c=64 v=63
71542 Par ch=1 c=64 v=127
71656 On ch=1 n=d4 v=112
71680 On ch=1 n=a5 v=0
71754 On ch=1 n=d4 v=0
71790 On ch=1 n=d5 v=107
71860 On ch=1 n=f6 v=0
71920 On ch=1 n=e6 v=96
71926 On ch=1 n=c5 v=97
71934 On ch=1 n=d5 v=0
71962 On ch=1 n=c5 v=0
72024 On ch=1 n=e6 v=0
72046 Par ch=1 c=64 v=63
72060 Par ch=1 c=64 v=0
72070 On ch=1 n=g#6 v=113
72076 On ch=1 n=d6 v=106
72096 Par ch=1 c=64 v=63
72136 Par ch=1 c=64 v=127
72182 On ch=1 n=b3 v=106
72270 On ch=1 n=g#6 v=0
72272 On ch=1 n=d6 v=0
72302 On ch=1 n=b3 v=0
72328 On ch=1 n=b4 v=107
72446 On ch=1 n=a4 v=101
72460 On ch=1 n=b4 v=0
72476 On ch=1 n=a6 v=108
72480 On ch=1 n=c6 v=108
72500 On ch=1 n=a4 v=0
72556 On ch=1 n=c6 v=0
72574 On ch=1 n=a6 v=0
72604 Par ch=1 c=64 v=63
72636 On ch=1 n=b6 v=122
72640 On ch=1 n=e6 v=121
72668 Par ch=1 c=64 v=127
72762 On ch=1 n=g#3 v=113
72844 On ch=1 n=b6 v=0
72860 On ch=1 n=g#3 v=0
72918 On ch=1 n=g#4 v=116
73006 On ch=1 n=g#4 v=0
73042 On ch=1 n=c7 v=116
73048 On ch=1 n=a6 v=109
73056 On ch=1 n=e6 v=0
73058 On ch=1 n=f#4 v=107
73114 On ch=1 n=f#4 v=0
73154 On ch=1 n=c7 v=0
73158 On ch=1 n=a6 v=0
73184 Par ch=1 c=64 v=63
73190 Par ch=1 c=64 v=0
73208 On ch=1 n=e4 v=106
73212 On ch=1 n=g#6 v=124
73216 On ch=1 n=d7 v=118
73242 Par ch=1 c=64 v=63
73256 Par ch=1 c=64 v=127
73324 On ch=1 n=e4 v=0
73328 On ch=1 n=e3 v=112
73502 On ch=1 n=e3 v=0
73502 On ch=1 n=f#3 v=97
73518 On ch=1 n=a6 v=106
73562 On ch=1 n=g#6 v=0
73632 On ch=1 n=b6 v=101
73640 On ch=1 n=g#3 v=98
73652 On ch=1 n=a6 v=0
73664 On ch=1 n=f#3 v=0
73684 On ch=1 n=d7 v=0
73706 On ch=1 n=g#3 v=0
73776 Par ch=1 c=64 v=63
73780 On ch=1 n=b6 v=0
73784 Par ch=1 c=64 v=0
73816 On ch=1 n=a3 v=122
73828 On ch=1 n=c7 v=121
73834 On ch=1 n=a6 v=113
73856 Par ch=1 c=64 v=63
73876 Par ch=1 c=64 v=127
73922 On ch=1 n=a3 v=0
74014 On ch=1 n=a6 v=0
74028 On ch=1 n=c7 v=0
74030 On ch=1 n=a4 v=99
74164 On ch=1 n=c5 v=99
74220 On ch=1 n=a4 v=0
74278 On ch=1 n=e5 v=97
74280 On ch=1 n=b6 v=107
74284 On ch=1 n=g6 v=96
74288 On ch=1 n=c5 v=0
74332 On ch=1 n=e5 v=0
74348 On ch=1 n=g6 v=0
74356 On ch=1 n=b6 v=0
74362 Par ch=1 c=64 v=63
74372 Par ch=1 c=64 v=0
74418 On ch=1 n=f3 v=117
74418 On ch=1 n=a6 v=117
74418 Par ch=1 c=64 v=63
74426 On ch=1 n=f6 v=112
74438 Par ch=1 c=64 v=127
74468 On ch=1 n=f3 v=0
74482 On ch=1 n=f6 v=0
74498 On ch=1 n=a6 v=0
74572 On ch=1 n=f4 v=98
74712 On ch=1 n=a4 v=89
74754 On ch=1 n=f4 v=0
74822 On ch=1 n=g6 v=107
74830 On ch=1 n=e6 v=98
74834 On ch=1 n=c5 v=100
74848 On ch=1 n=a4 v=0
74878 On ch=1 n=c5 v=0
74892 On ch=1 n=e6 v=0
74906 On ch=1 n=g6 v=0
74920 Par ch=1 c=64 v=63
74928 Par ch=1 c=64 v=0
74972 On ch=1 n=d3 v=126
74974 On ch=1 n=f6 v=120
74978 Par ch=1 c=64 v=63
74980 On ch=1 n=d6 v=113
75002 Par ch=1 c=64 v=127
75026 On ch=1 n=d3 v=0
75034 On ch=1 n=d6 v=0
75042 On ch=1 n=f6 v=0
75126 On ch=1 n=d4 v=116
75252 On ch=1 n=f4 v=99
75300 On ch=1 n=d4 v=0
75364 On ch=1 n=a4 v=96
75376 On ch=1 n=e6 v=112
75380 On ch=1 n=c6 v=103
75382 On ch=1 n=f4 v=0
75424 On ch=1 n=a4 v=0
75442 On ch=1 n=c6 v=0
75446 On ch=1 n=e6 v=0
75470 Par ch=1 c=64 v=63
75482 Par ch=1 c=64 v=0
75508 On ch=1 n=b2 v=124
75510 On ch=1 n=d6 v=125
75514 Par ch=1 c=64 v=63
75516 On ch=1 n=b5 v=117
75540 Par ch=1 c=64 v=127
75562 On ch=1 n=b2 v=0
75566 On ch=1 n=b5 v=0
75584 On ch=1 n=d6 v=0
75672 On ch=1 n=b3 v=97
75792 On ch=1 n=d4 v=94
75862 On ch=1 n=b3 v=0
75914 On ch=1 n=d4 v=0
75914 On ch=1 n=f4 v=91
75940 On ch=1 n=c6 v=109
75952 On ch=1 n=a5 v=86
75976 On ch=1 n=f4 v=0
75998 On ch=1 n=a5 v=0
76024 Par ch=1 c=64 v=63
76032 On ch=1 n=c6 v=0
76038 Par ch=1 c=64 v=0
76076 Par ch=1 c=64 v=63
76090 On ch=1 n=b5 v=104
76092 On ch=1 n=d3 v=88
76100 On ch=1 n=f5 v=96
76100 On ch=1 n=g#5 v=99
76110 Par ch=1 c=64 v=127
76140 On ch=1 n=f5 v=0
76140 On ch=1 n=d3 v=0
76158 On ch=1 n=g#5 v=0
76158 On ch=1 n=b5 v=0
76226 On ch=1 n=d4 v=92
76336 On ch=1 n=d4 v=0
76356 On ch=1 n=f4 v=75
76386 On ch=1 n=d6 v=106
76392 Par ch=1 c=64 v=63
76400 Par ch=1 c=64 v=0
76466 On ch=1 n=d6 v=0
76476 On ch=1 n=f4 v=0
76476 On ch=1 n=d4 v=84
76490 On ch=1 n=f6 v=93
76546 On ch=1 n=f6 v=0
76564 On ch=1 n=d4 v=0
76634 On ch=1 n=c4 v=86
76642 On ch=1 n=f6 v=101
76652 On ch=1 n=a5 v=81
76674 On ch=1 n=c4 v=0
76718 On ch=1 n=a5 v=0
76742 On ch=1 n=f6 v=0
76768 On ch=1 n=e6 v=72
76826 On ch=1 n=e6 v=0
76916 On ch=1 n=d6 v=88
76928 On ch=1 n=f4 v=63
76984 On ch=1 n=f4 v=0
76998 On ch=1 n=d6 v=0
77054 On ch=1 n=c6 v=77
77098 On ch=1 n=c6 v=0
77176 On ch=1 n=d4 v=76
77190 On ch=1 n=c6 v=88
77212 On ch=1 n=d4 v=0
77268 On ch=1 n=c6 v=0
77306 On ch=1 n=b5 v=76
77378 On ch=1 n=b5 v=0
77470 On ch=1 n=e4 v=66
77470 On ch=1 n=a5 v=77
77536 On ch=1 n=e4 v=0
77590 On ch=1 n=a5 v=0
77602 On ch=1 n=g#5 v=76
77682 On ch=1 n=g#5 v=0
77726 On ch=1 n=a3 v=74
77752 On ch=1 n=a5 v=76
77776 Par ch=1 c=64 v=63
77780 Par ch=1 c=64 v=127
77872 On ch=1 n=a5 v=0
77888 On ch=1 n=c6 v=96
77954 On ch=1 n=a3 v=0
77980 On ch=1 n=c6 v=0
77996 Par ch=1 c=64 v=63
78000 Par ch=1 c=64 v=0
78006 On ch=1 n=e6 v=97
78062 On ch=1 n=e6 v=0
78158 On ch=1 n=b6 v=112
78162 On ch=1 n=g#6 v=113
78212 On ch=1 n=g#6 v=0
78216 On ch=1 n=b6 v=0
78348 Par ch=1 c=64 v=63
78348 Par ch=1 c=64 v=127
78358 On ch=1 n=c7 v=122
78360 On ch=1 n=a6 v=112
78362 On ch=1 n=a3 v=119
78410 On ch=1 n=a6 v=0
78420 On ch=1 n=a3 v=0
78432 On ch=1 n=c7 v=0
78562 On ch=1 n=a4 v=99
78712 On ch=1 n=c5 v=100
78768 On ch=1 n=a4 v=0
78794 On ch=1 n=b6 v=116
78804 On ch=1 n=g6 v=94
78832 On ch=1 n=e5 v=101
78848 On ch=1 n=c5 v=0
78880 On ch=1 n=e5 v=0
78894 On ch=1 n=g6 v=0
78912 On ch=1 n=b6 v=0
78924 Par ch=1 c=64 v=63
78932 Par ch=1 c=64 v=0
78964 On ch=1 n=f3 v=120
78966 On ch=1 n=a6 v=122
78972 On ch=1 n=f6 v=120
78980 Par ch=1 c=64 v=63
78998 Par ch=1 c=64 v=127
79016 On ch=1 n=f3 v=0
79022 On ch=1 n=f6 v=0
79044 On ch=1 n=a6 v=0
79124 On ch=1 n=f4 v=106
79250 On ch=1 n=a4 v=92
79302 On ch=1 n=f4 v=0
79376 On ch=1 n=c5 v=94
79378 On ch=1 n=g6 v=111
79386 On ch=1 n=e6 v=108
79388 On ch=1 n=a4 v=0
79420 On ch=1 n=c5 v=0
79442 On ch=1 n=e6 v=0
79460 On ch=1 n=g6 v=0
79462 Par ch=1 c=64 v=63
79472 Par ch=1 c=64 v=0
79510 Par ch=1 c=64 v=63
79512 On ch=1 n=d3 v=113
79520 On ch=1 n=f6 v=125
79528 On ch=1 n=d6 v=113
79534 Par ch=1 c=64 v=127
79568 On ch=1 n=d3 v=0
79586 On ch=1 n=f6 v=0
79588 On ch=1 n=d6 v=0
79668 On ch=1 n=d4 v=107
79800 On ch=1 n=f4 v=92
79854 On ch=1 n=d4 v=0
79920 On ch=1 n=a4 v=92
79928 On ch=1 n=e6 v=106
79938 On ch=1 n=c6 v=101
79942 On ch=1 n=f4 v=0
79980 On ch=1 n=a4 v=0
80000 On ch=1 n=c6 v=0
80006 Par ch=1 c=64 v=63
80010 On ch=1 n=e6 v=0
80016 Par ch=1 c=64 v=0
80058 Par ch=1 c=64 v=63
80062 On ch=1 n=b2 v=120
80066 On ch=1 n=d6 v=124
80074 On ch=1 n=b5 v=113
80078 Par ch=1 c=64 v=127
80120 On ch=1 n=b2 v=0
80130 On ch=1 n=d6 v=0
80134 On ch=1 n=b5 v=0
80228 On ch=1 n=b3 v=104
80354 On ch=1 n=d4 v=94
80466 On ch=1 n=f4 v=96
80486 On ch=1 n=c6 v=98
80490 On ch=1 n=a5 v=100
80506 On ch=1 n=b3 v=0
80508 On ch=1 n=d4 v=0
80538 On ch=1 n=f4 v=0
80548 On ch=1 n=a5 v=0
80550 Par ch=1 c=64 v=63
80558 On ch=1 n=c6 v=0
80560 Par ch=1 c=64 v=0
80596 Par ch=1 c=64 v=63
80602 On ch=1 n=b5 v=111
80606 On ch=1 n=d3 v=112
80612 On ch=1 n=g#5 v=106
80614 On ch=1 n=f5 v=94
80616 Par ch=1 c=64 v=127
80636 On ch=1 n=d3 v=0
80650 On ch=1 n=f5 v=0
80666 On ch=1 n=g#5 v=0
80676 On ch=1 n=b5 v=0
80742 On ch=1 n=d4 v=103
80844 On ch=1 n=d4 v=0
80878 On ch=1 n=f4 v=80
80906 On ch=1 n=d6 v=96
80924 Par ch=1 c=64 v=63
80930 Par ch=1 c=64 v=0
80996 On ch=1 n=d4 v=96
81002 On ch=1 n=d6 v=0
81002 On ch=1 n=f4 v=0
81012 On ch=1 n=f6 v=102
81080 On ch=1 n=f6 v=0
81120 On ch=1 n=d4 v=0
81156 On ch=1 n=c4 v=100
81168 On ch=1 n=f6 v=108
81184 On ch=1 n=a5 v=91
81214 On ch=1 n=c4 v=0
81238 On ch=1 n=a5 v=0
81284 On ch=1 n=e6 v=94
81292 On ch=1 n=f6 v=0
81354 On ch=1 n=e6 v=0
81444 On ch=1 n=d6 v=107
81458 On ch=1 n=f4 v=98
81460 On ch=1 n=f3 v=97
81510 On ch=1 n=f4 v=0
81520 On ch=1 n=f3 v=0
81524 On ch=1 n=d6 v=0
81578 On ch=1 n=c6 v=85
81614 On ch=1 n=c6 v=0
81726 On ch=1 n=d3 v=81
81736 On ch=1 n=d4 v=77
81738 On ch=1 n=c6 v=101
81744 On ch=1 n=f5 v=84
81770 On ch=1 n=d3 v=0
81780 On ch=1 n=d4 v=0
81796 On ch=1 n=f5 v=0
81816 On ch=1 n=c6 v=0
81866 On ch=1 n=b5 v=75
81916 On ch=1 n=b5 v=0
82032 On ch=1 n=a5 v=75
82042 On ch=1 n=e4 v=67
82042 On ch=1 n=e3 v=76
82052 On ch=1 n=d5 v=48
82076 On ch=1 n=e4 v=0
82086 On ch=1 n=e3 v=0
82106 On ch=1 n=d5 v=0
82124 On ch=1 n=a5 v=0
82170 On ch=1 n=g#5 v=91
82244 On ch=1 n=g#5 v=0
82358 On ch=1 n=a2 v=81
82364 On ch=1 n=a3 v=74
82372 On ch=1 n=a5 v=78
82382 On ch=1 n=c5 v=71
82406 On ch=1 n=a2 v=0
82408 Par ch=1 c=64 v=63
82414 Par ch=1 c=64 v=127
82424 On ch=1 n=a3 v=0
82472 On ch=1 n=c5 v=0
82492 On ch=1 n=a5 v=0
82560 On ch=1 n=e5 v=47
82610 On ch=1 n=e5 v=0
82744 On ch=1 n=a5 v=57
82884 On ch=1 n=a5 v=0
82940 On ch=1 n=b5 v=68
82998 On ch=1 n=b5 v=0
83208 On ch=1 n=a4 v=37
83238 On ch=1 n=c#6 v=71
83254 On ch=1 n=a5 v=38
83306 Par ch=1 c=64 v=63
83322 Par ch=1 c=64 v=127
83498 On ch=1 n=c#5 v=59
83602 On ch=1 n=a5 v=0
83650 On ch=1 n=c#6 v=0
83660 On ch=1 n=c#5 v=0
83670 On ch=1 n=e5 v=49
83750 On ch=1 n=a4 v=0
83772 On ch=1 n=c#6 v=85
83776 On ch=1 n=e6 v=83
83810 On ch=1 n=c#5 v=66
83826 On ch=1 n=e5 v=0
83856 On ch=1 n=c#6 v=0
83860 On ch=1 n=e6 v=0
83934 On ch=1 n=c#6 v=61
83938 On ch=1 n=e6 v=74
83938 On ch=1 n=a4 v=60
83944 On ch=1 n=c#5 v=0
83964 Par ch=1 c=64 v=63
84006 Par ch=1 c=64 v=127
84060 On ch=1 n=c#6 v=0
84088 On ch=1 n=b5 v=81
84094 On ch=1 n=d6 v=84
84104 On ch=1 n=e6 v=0
84110 On ch=1 n=d5 v=61
84156 On ch=1 n=b5 v=0
84168 On ch=1 n=d6 v=0
84186 On ch=1 n=d5 v=0
84208 On ch=1 n=a4 v=0
84226 On ch=1 n=d6 v=64
84230 On ch=1 n=b5 v=76
84234 On ch=1 n=f#5 v=67
84308 On ch=1 n=f#5 v=0
84328 On ch=1 n=d6 v=0
84358 On ch=1 n=d5 v=65
84364 On ch=1 n=c#6 v=80
84368 On ch=1 n=b5 v=0
84370 On ch=1 n=a5 v=76
84436 On ch=1 n=c#6 v=0
84448 On ch=1 n=a5 v=0
84476 On ch=1 n=d5 v=0
84488 On ch=1 n=a4 v=65
84498 On ch=1 n=c#6 v=77
84498 On ch=1 n=a5 v=82
84540 Par ch=1 c=64 v=63
84594 Par ch=1 c=64 v=127
84602 On ch=1 n=c#6 v=0
84630 On ch=1 n=b5 v=76
84634 On ch=1 n=a5 v=0
84638 On ch=1 n=g#5 v=78
84654 On ch=1 n=b4 v=79
84686 On ch=1 n=a4 v=0
84706 On ch=1 n=g#5 v=0
84714 On ch=1 n=b5 v=0
84754 Par ch=1 c=64 v=63
84780 On ch=1 n=g#5 v=74
84782 On ch=1 n=d5 v=67
84786 On ch=1 n=b5 v=71
84790 On ch=1 n=b4 v=0
84812 Par ch=1 c=64 v=127
84870 On ch=1 n=b5 v=0
84880 On ch=1 n=g#5 v=0
84910 On ch=1 n=d5 v=0
84910 On ch=1 n=b5 v=63
84914 On ch=1 n=d6 v=85
84914 On ch=1 n=b4 v=61
84998 On ch=1 n=b5 v=0
85016 On ch=1 n=d6 v=0
85032 Par ch=1 c=64 v=63
85062 On ch=1 n=b4 v=0
85064 On ch=1 n=a4 v=51
85072 On ch=1 n=d6 v=70
85080 On ch=1 n=b5 v=87
85122 Par ch=1 c=64 v=127
85194 On ch=1 n=b5 v=0
85196 On ch=1 n=d6 v=0
85216 On ch=1 n=c#6 v=82
85228 On ch=1 n=a5 v=55
85234 On ch=1 n=c#5 v=70
85270 Par ch=1 c=64 v=63
85282 On ch=1 n=a5 v=0
85298 On ch=1 n=c#6 v=0
85338 Par ch=1 c=64 v=127
85360 On ch=1 n=c#6 v=83
85364 On ch=1 n=a5 v=63
85372 On ch=1 n=c#5 v=0
85386 On ch=1 n=e5 v=48
85414 On ch=1 n=a5 v=0
85444 On ch=1 n=c#6 v=0
85504 On ch=1 n=c#5 v=76
85522 On ch=1 n=e5 v=0
85524 On ch=1 n=a4 v=0
85594 Par ch=1 c=64 v=63
85620 Par ch=1 c=64 v=0
85664 On ch=1 n=c#5 v=0
85676 Par ch=1 c=64 v=63
85684 On ch=1 n=a6 v=87
85688 On ch=1 n=a4 v=49
85702 On ch=1 n=c#6 v=65
85714 Par ch=1 c=64 v=127
85868 On ch=1 n=c#5 v=71
85880 On ch=1 n=c#6 v=0
85910 On ch=1 n=a6 v=0
85996 On ch=1 n=c#5 v=0
86008 On ch=1 n=e5 v=69
86126 On ch=1 n=c#5 v=74
86138 On ch=1 n=a4 v=0
86142 On ch=1 n=e6 v=86
86146 On ch=1 n=g#6 v=83
86158 On ch=1 n=e5 v=0
86200 On ch=1 n=g#6 v=0
86202 On ch=1 n=e6 v=0
86264 On ch=1 n=c#5 v=0
86270 On ch=1 n=g#6 v=76
86272 On ch=1 n=e6 v=77
86278 On ch=1 n=a4 v=62
86284 Par ch=1 c=64 v=63
86316 Par ch=1 c=64 v=127
86402 On ch=1 n=f#6 v=93
86420 On ch=1 n=e6 v=0
86424 On ch=1 n=g#6 v=0
86424 On ch=1 n=d6 v=73
86428 On ch=1 n=d5 v=76
86430 On ch=1 n=a4 v=0
86484 On ch=1 n=f#6 v=0
86494 On ch=1 n=d6 v=0
86542 On ch=1 n=d5 v=0
86552 On ch=1 n=f#6 v=81
86556 On ch=1 n=d6 v=89
86566 On ch=1 n=f#5 v=88
86658 On ch=1 n=f#5 v=0
86658 On ch=1 n=f#6 v=0
86672 On ch=1 n=d6 v=0
86676 On ch=1 n=e6 v=87
86692 On ch=1 n=c#6 v=81
86702 On ch=1 n=e5 v=68
86746 On ch=1 n=e6 v=0
86750 On ch=1 n=c#6 v=0
86812 On ch=1 n=e5 v=0
86822 On ch=1 n=a4 v=70
86830 On ch=1 n=e6 v=83
86838 On ch=1 n=c#6 v=91
86852 Par ch=1 c=64 v=63
86904 Par ch=1 c=64 v=127
86978 On ch=1 n=d6 v=87
86984 On ch=1 n=b5 v=76
86988 On ch=1 n=c#6 v=0
86990 On ch=1 n=b4 v=80
87002 On ch=1 n=e6 v=0
87016 On ch=1 n=a4 v=0
87054 On ch=1 n=d6 v=0
87062 On ch=1 n=b5 v=0
87112 On ch=1 n=d5 v=64
87120 On ch=1 n=b4 v=0
87132 On ch=1 n=d6 v=96
87142 On ch=1 n=b5 v=98
87240 On ch=1 n=d6 v=0
87240 On ch=1 n=c#5 v=88
87258 On ch=1 n=c#6 v=86
87262 On ch=1 n=d5 v=0
87270 On ch=1 n=a5 v=59
87274 On ch=1 n=b5 v=0
87332 On ch=1 n=c#6 v=0
87342 On ch=1 n=a5 v=0
87344 On ch=1 n=c#5 v=0
87394 Par ch=1 c=64 v=63
87404 On ch=1 n=c#6 v=94
87408 On ch=1 n=a5 v=97
87416 On ch=1 n=d5 v=75
87418 On ch=1 n=a4 v=55
87420 Par ch=1 c=64 v=0
87438 Par ch=1 c=64 v=63
87486 Par ch=1 c=64 v=127
87530 On ch=1 n=e5 v=69
87536 On ch=1 n=a5 v=0
87536 On ch=1 n=b5 v=77
87538 On ch=1 n=d5 v=0
87540 On ch=1 n=c#6 v=0
87558 On ch=1 n=g#5 v=88
87632 On ch=1 n=b5 v=0
87648 On ch=1 n=g#5 v=0
87652 On ch=1 n=a4 v=0
87688 Par ch=1 c=64 v=63
87696 On ch=1 n=e5 v=0
87706 On ch=1 n=c#5 v=80
87706 On ch=1 n=a5 v=72
87712 Par ch=1 c=64 v=0
87804 Par ch=1 c=64 v=63
87832 Par ch=1 c=64 v=127
87840 On ch=1 n=a4 v=67
87876 On ch=1 n=c#5 v=0
87896 On ch=1 n=a5 v=0
87940 On ch=1 n=a4 v=0
88034 On ch=1 n=a4 v=46
88046 On ch=1 n=c#6 v=94
88060 On ch=1 n=a5 v=58
88114 Par ch=1 c=64 v=63
88200 On ch=1 n=c#5 v=73
88206 Par ch=1 c=64 v=127
88320 On ch=1 n=a5 v=0
88348 On ch=1 n=c#5 v=0
88352 On ch=1 n=e5 v=69
88364 On ch=1 n=c#6 v=0
88466 On ch=1 n=a4 v=0
88480 On ch=1 n=c#5 v=67
88490 On ch=1 n=e6 v=60
88492 On ch=1 n=c#6 v=63
88502 On ch=1 n=e5 v=0
88538 On ch=1 n=c#6 v=0
88542 On ch=1 n=e6 v=0
88622 Par ch=1 c=64 v=63
88630 On ch=1 n=a4 v=57
88634 On ch=1 n=c#5 v=0
88636 On ch=1 n=c#6 v=74
88638 On ch=1 n=e6 v=68
88686 Par ch=1 c=64 v=127
88740 On ch=1 n=c#6 v=0
88774 On ch=1 n=b5 v=83
88780 On ch=1 n=d6 v=79
88794 On ch=1 n=d5 v=60
88798 On ch=1 n=e6 v=0
88846 On ch=1 n=b5 v=0
88854 On ch=1 n=d6 v=0
88888 On ch=1 n=d5 v=0
88900 On ch=1 n=a4 v=0
88906 On ch=1 n=f#5 v=86
88918 On ch=1 n=d6 v=79
88918 On ch=1 n=b5 v=88
88980 On ch=1 n=f#5 v=0
89040 On ch=1 n=c#6 v=93
89044 On ch=1 n=d5 v=78
89050 On ch=1 n=a5 v=73
89052 On ch=1 n=b5 v=0
89054 On ch=1 n=d6 v=0
89116 On ch=1 n=c#6 v=0
89126 On ch=1 n=a5 v=0
89170 On ch=1 n=c#6 v=76
89180 On ch=1 n=d5 v=0
89180 On ch=1 n=a5 v=75
89188 On ch=1 n=a4 v=69
89206 Par ch=1 c=64 v=63
89286 Par ch=1 c=64 v=127
89290 On ch=1 n=c#6 v=0
89310 On ch=1 n=b5 v=80
89310 On ch=1 n=g#5 v=81
89320 On ch=1 n=a5 v=0
89338 On ch=1 n=b4 v=78
89388 On ch=1 n=g#5 v=0
89390 On ch=1 n=b5 v=0
89436 On ch=1 n=a4 v=0
89442 Par ch=1 c=64 v=63
89460 On ch=1 n=g#5 v=86
89472 On ch=1 n=d5 v=51
89480 On ch=1 n=b4 v=0
89480 On ch=1 n=b5 v=80
89502 Par ch=1 c=64 v=127
89554 On ch=1 n=b5 v=0
89564 On ch=1 n=g#5 v=0
89588 On ch=1 n=b4 v=78
89596 On ch=1 n=d6 v=85
89600 On ch=1 n=d5 v=0
89602 On ch=1 n=b5 v=86
89684 On ch=1 n=b5 v=0
89696 On ch=1 n=d6 v=0
89732 On ch=1 n=a4 v=64
89734 On ch=1 n=b4 v=0
89740 Par ch=1 c=64 v=63
89750 On ch=1 n=d6 v=74
89754 On ch=1 n=b5 v=76
89812 Par ch=1 c=64 v=127
89854 On ch=1 n=b5 v=0
89870 On ch=1 n=d6 v=0
89892 On ch=1 n=c#6 v=74
89894 On ch=1 n=c#5 v=73
89898 On ch=1 n=a5 v=61
89958 On ch=1 n=a5 v=0
89968 On ch=1 n=c#6 v=0
89996 Par ch=1 c=64 v=63
90024 Par ch=1 c=64 v=0
90038 Par ch=1 c=64 v=63
90046 On ch=1 n=c#5 v=0
90048 On ch=1 n=c#6 v=88
90050 On ch=1 n=e5 v=54
90052 On ch=1 n=a5 v=65
90084 Par ch=1 c=64 v=127
90140 On ch=1 n=a5 v=0
90160 On ch=1 n=c#6 v=0
90172 On ch=1 n=c#5 v=75
90182 On ch=1 n=e5 v=0
90212 On ch=1 n=a4 v=0
90304 Par ch=1 c=64 v=63
90320 Par ch=1 c=64 v=0
90330 On ch=1 n=c#5 v=0
90344 On ch=1 n=b4 v=69
90354 On ch=1 n=c#6 v=94
90362 Par ch=1 c=64 v=63
90366 On ch=1 n=a5 v=70
90404 Par ch=1 c=64 v=127
90502 On ch=1 n=b5 v=84
90520 On ch=1 n=d#5 v=70
90560 On ch=1 n=c#6 v=0
90576 On ch=1 n=a5 v=0
90582 On ch=1 n=b5 v=0
90654 On ch=1 n=d#5 v=0
90664 On ch=1 n=f#5 v=76
90788 On ch=1 n=d#5 v=80
90792 On ch=1 n=f#5 v=0
90796 On ch=1 n=b5 v=93
90796 On ch=1 n=a5 v=83
90856 On ch=1 n=a5 v=0
90882 On ch=1 n=b5 v=0
90916 Par ch=1 c=64 v=63
90918 On ch=1 n=b4 v=0
90926 On ch=1 n=b5 v=85
90932 On ch=1 n=g#5 v=80
90932 Par ch=1 c=64 v=0
90944 On ch=1 n=e5 v=75
90960 On ch=1 n=d#5 v=0
90966 Par ch=1 c=64 v=63
91004 Par ch=1 c=64 v=127
91060 On ch=1 n=e5 v=0
91068 On ch=1 n=g#5 v=0
91072 On ch=1 n=e6 v=84
91128 On ch=1 n=b5 v=0
91128 Par ch=1 c=64 v=63
91144 Par ch=1 c=64 v=0
91200 On ch=1 n=e6 v=0
91216 On ch=1 n=a4 v=73
91220 On ch=1 n=c#6 v=97
91236 On ch=1 n=a5 v=65
91248 Par ch=1 c=64 v=63
91266 Par ch=1 c=64 v=127
91292 On ch=1 n=a4 v=0
91314 On ch=1 n=a5 v=0
91338 On ch=1 n=f#6 v=95
91380 On ch=1 n=c#6 v=0
91424 On ch=1 n=f#6 v=0
91496 Par ch=1 c=64 v=63
91534 On ch=1 n=e6 v=90
91534 On ch=1 n=b5 v=90
91534 On ch=1 n=g#5 v=72
91544 On ch=1 n=b4 v=60
91562 Par ch=1 c=64 v=127
91728 On ch=1 n=b5 v=0
91730 On ch=1 n=e6 v=0
91830 On ch=1 n=g#5 v=0
91848 On ch=1 n=f#5 v=76
91856 On ch=1 n=d#6 v=94
91890 On ch=1 n=e6 v=85
91894 On ch=1 n=d#6 v=0
91960 On ch=1 n=d#6 v=83
91978 On ch=1 n=e6 v=0
92012 On ch=1 n=f#5 v=0
92020 On ch=1 n=d#6 v=0
92020 On ch=1 n=c#6 v=94
92066 On ch=1 n=d#6 v=88
92080 On ch=1 n=c#6 v=0
92116 On ch=1 n=d#6 v=0
92178 On ch=1 n=e5 v=52
92200 On ch=1 n=b4 v=0
92210 On ch=1 n=g#5 v=57
92212 On ch=1 n=b5 v=52
92232 On ch=1 n=e6 v=92
92292 Par ch=1 c=64 v=63
92308 Par ch=1 c=64 v=0
92370 On ch=1 n=e5 v=0
92428 Par ch=1 c=64 v=63
92444 Par ch=1 c=64 v=127
92548 On ch=1 n=g#5 v=0
92612 On ch=1 n=e4 v=68
92622 On ch=1 n=b5 v=0
92636 On ch=1 n=e6 v=0
92690 On ch=1 n=e4 v=0
93114 On ch=1 n=a4 v=45
93134 On ch=1 n=c#6 v=71
93152 On ch=1 n=a5 v=33
93206 Par ch=1 c=64 v=63
93224 Par ch=1 c=64 v=0
93320 Par ch=1 c=64 v=63
93340 Par ch=1 c=64 v=127
93366 On ch=1 n=c#5 v=65
93412 On ch=1 n=a5 v=0
93484 On ch=1 n=c#6 v=0
93508 On ch=1 n=c#5 v=0
93548 On ch=1 n=e5 v=29
93618 On ch=1 n=a4 v=0
93660 On ch=1 n=c#5 v=61
93660 On ch=1 n=e6 v=66
93672 On ch=1 n=c#6 v=51
93676 On ch=1 n=e5 v=0
93714 On ch=1 n=c#6 v=0
93720 On ch=1 n=e6 v=0
93774 On ch=1 n=c#5 v=0
93816 On ch=1 n=e6 v=66
93820 On ch=1 n=a4 v=46
93820 On ch=1 n=c#6 v=68
93834 Par ch=1 c=64 v=63
93898 Par ch=1 c=64 v=127
93916 On ch=1 n=c#6 v=0
93946 On ch=1 n=a4 v=0
93958 On ch=1 n=b5 v=72
93968 On ch=1 n=d6 v=70
93976 On ch=1 n=e6 v=0
93978 On ch=1 n=d5 v=60
94018 On ch=1 n=d6 v=0
94018 On ch=1 n=b5 v=0
94084 On ch=1 n=d5 v=0
94114 On ch=1 n=d6 v=72
94116 On ch=1 n=b5 v=77
94144 On ch=1 n=f#5 v=67
94202 On ch=1 n=d6 v=0
94212 On ch=1 n=f#5 v=0
94246 On ch=1 n=c#6 v=82
94254 On ch=1 n=a5 v=68
94256 On ch=1 n=b5 v=0
94256 On ch=1 n=d5 v=63
94312 On ch=1 n=c#6 v=0
94330 On ch=1 n=a5 v=0
94378 On ch=1 n=d5 v=0
94382 On ch=1 n=c#6 v=73
94384 On ch=1 n=a5 v=76
94384 On ch=1 n=a4 v=63
94438 Par ch=1 c=64 v=63
94488 On ch=1 n=c#6 v=0
94496 On ch=1 n=a5 v=0
94512 On ch=1 n=b5 v=79
94516 Par ch=1 c=64 v=127
94520 On ch=1 n=g#5 v=79
94546 On ch=1 n=b4 v=74
94584 On ch=1 n=a4 v=0
94592 On ch=1 n=g#5 v=0
94596 On ch=1 n=b5 v=0
94674 On ch=1 n=d5 v=61
94680 On ch=1 n=g#5 v=80
94684 On ch=1 n=b5 v=77
94686 On ch=1 n=b4 v=0
94766 On ch=1 n=b5 v=0
94768 On ch=1 n=g#5 v=0
94806 On ch=1 n=b4 v=79
94812 On ch=1 n=d5 v=0
94816 On ch=1 n=d6 v=84
94822 On ch=1 n=b5 v=73
94904 On ch=1 n=b5 v=0
94904 On ch=1 n=b4 v=0
94912 On ch=1 n=d6 v=0
94964 Par ch=1 c=64 v=63
94966 On ch=1 n=a4 v=63
94976 On ch=1 n=d6 v=65
94978 On ch=1 n=b5 v=84
95034 Par ch=1 c=64 v=127
95070 On ch=1 n=b5 v=0
95084 On ch=1 n=d6 v=0
95112 On ch=1 n=c#6 v=87
95120 On ch=1 n=c#5 v=80
95124 On ch=1 n=a5 v=59
95182 On ch=1 n=a5 v=0
95196 On ch=1 n=c#6 v=0
95238 Par ch=1 c=64 v=63
95262 On ch=1 n=c#5 v=0
95270 On ch=1 n=c#6 v=88
95272 On ch=1 n=a5 v=68
95278 On ch=1 n=e5 v=54
95302 Par ch=1 c=64 v=127
95346 On ch=1 n=a5 v=0
95364 On ch=1 n=c#6 v=0
95406 On ch=1 n=c#5 v=81
95422 On ch=1 n=e5 v=0
95422 On ch=1 n=a4 v=0
95572 On ch=1 n=c#5 v=0
95578 Par ch=1 c=64 v=63
95584 On ch=1 n=a4 v=39
95602 On ch=1 n=a6 v=89
95606 Par ch=1 c=64 v=0
95612 On ch=1 n=c#6 v=71
95634 Par ch=1 c=64 v=63
95682 Par ch=1 c=64 v=127
95766 On ch=1 n=c#5 v=73
95852 On ch=1 n=c#6 v=0
95900 On ch=1 n=c#5 v=0
95914 On ch=1 n=e5 v=71
95952 On ch=1 n=a6 v=0
96030 On ch=1 n=c#5 v=79
96042 On ch=1 n=g#6 v=86
96044 On ch=1 n=e6 v=80
96048 On ch=1 n=a4 v=0
96078 On ch=1 n=e5 v=0
96092 On ch=1 n=e6 v=0
96108 On ch=1 n=g#6 v=0
96166 Par ch=1 c=64 v=63
96174 On ch=1 n=c#5 v=0
96178 On ch=1 n=e6 v=90
96182 On ch=1 n=g#6 v=84
96184 On ch=1 n=a4 v=60
96246 Par ch=1 c=64 v=127
96320 On ch=1 n=f#6 v=92
96322 On ch=1 n=e6 v=0
96328 On ch=1 n=d5 v=76
96334 On ch=1 n=a4 v=0
96336 On ch=1 n=d6 v=75
96354 On ch=1 n=g#6 v=0
96396 On ch=1 n=f#6 v=0
96410 On ch=1 n=d6 v=0
96446 On ch=1 n=d5 v=0
96470 On ch=1 n=d6 v=85
96474 On ch=1 n=f#6 v=73
96486 On ch=1 n=f#5 v=86
96562 On ch=1 n=f#5 v=0
96568 On ch=1 n=d6 v=0
96574 On ch=1 n=f#6 v=0
96596 On ch=1 n=e6 v=72
96604 On ch=1 n=c#6 v=77
96612 On ch=1 n=e5 v=69
96658 On ch=1 n=e6 v=0
96684 On ch=1 n=c#6 v=0
96746 On ch=1 n=e5 v=0
96748 On ch=1 n=a4 v=69
96752 Par ch=1 c=64 v=63
96752 On ch=1 n=e6 v=90
96754 On ch=1 n=c#6 v=83
96838 Par ch=1 c=64 v=127
96870 On ch=1 n=c#6 v=0
96894 On ch=1 n=d6 v=87
96896 On ch=1 n=b5 v=80
96908 On ch=1 n=b4 v=81
96940 On ch=1 n=e6 v=0
96952 On ch=1 n=a4 v=0
96974 On ch=1 n=d6 v=0
96986 On ch=1 n=b5 v=0
97032 On ch=1 n=d5 v=64
97040 On ch=1 n=d6 v=86
97050 On ch=1 n=b4 v=0
97052 On ch=1 n=b5 v=90
97134 On ch=1 n=d6 v=0
97158 On ch=1 n=c#5 v=77
97166 On ch=1 n=c#6 v=93
97174 On ch=1 n=a5 v=70
97180 On ch=1 n=b5 v=0
97188 On ch=1 n=d5 v=0
97248 On ch=1 n=c#6 v=0
97258 On ch=1 n=a5 v=0
97304 On ch=1 n=c#5 v=0
97316 On ch=1 n=c#6 v=80
97320 Par ch=1 c=64 v=63
97320 On ch=1 n=a5 v=84
97326 On ch=1 n=d5 v=71
97328 On ch=1 n=a4 v=50
97390 Par ch=1 c=64 v=127
97428 On ch=1 n=a5 v=0
97438 On ch=1 n=c#6 v=0
97446 On ch=1 n=b5 v=76
97448 On ch=1 n=e5 v=68
97450 On ch=1 n=d5 v=0
97464 On ch=1 n=g#5 v=87
97542 On ch=1 n=g#5 v=0
97568 On ch=1 n=a4 v=0
97570 On ch=1 n=b5 v=0
97606 On ch=1 n=c#5 v=77
97616 On ch=1 n=e5 v=0
97620 Par ch=1 c=64 v=63
97626 On ch=1 n=a5 v=77
97654 Par ch=1 c=64 v=0
97682 Par ch=1 c=64 v=63
97728 Par ch=1 c=64 v=127
97750 On ch=1 n=a4 v=66
97780 On ch=1 n=c#5 v=0
97798 On ch=1 n=a5 v=0
97870 On ch=1 n=a4 v=0
97942 On ch=1 n=a4 v=47
97960 On ch=1 n=c#6 v=81
97966 On ch=1 n=a5 v=55
97968 Par ch=1 c=64 v=63
98048 Par ch=1 c=64 v=127
98114 On ch=1 n=c#5 v=76
98150 On ch=1 n=c#6 v=0
98202 On ch=1 n=a5 v=0
98254 On ch=1 n=c#5 v=0
98256 On ch=1 n=e5 v=65
98364 On ch=1 n=a4 v=0
98368 On ch=1 n=c#5 v=76
98378 On ch=1 n=c#6 v=88
98392 On ch=1 n=e6 v=61
98402 On ch=1 n=e5 v=0
98434 On ch=1 n=e6 v=0
98446 On ch=1 n=c#6 v=0
98480 On ch=1 n=c#5 v=0
98516 On ch=1 n=a4 v=58
98520 On ch=1 n=e6 v=81
98524 Par ch=1 c=64 v=63
98534 On ch=1 n=c#6 v=78
98588 Par ch=1 c=64 v=127
98610 On ch=1 n=c#6 v=0
98658 On ch=1 n=b5 v=84
98664 On ch=1 n=d5 v=70
98666 On ch=1 n=d6 v=80
98676 On ch=1 n=a4 v=0
98704 On ch=1 n=e6 v=0
98728 On ch=1 n=b5 v=0
98744 On ch=1 n=d6 v=0
98792 On ch=1 n=d5 v=0
98800 On ch=1 n=d6 v=71
98808 On ch=1 n=b5 v=82
98810 On ch=1 n=f#5 v=81
98904 On ch=1 n=f#5 v=0
98924 On ch=1 n=b5 v=0
98930 On ch=1 n=d6 v=0
98946 On ch=1 n=c#6 v=83
98948 On ch=1 n=a5 v=72
98950 On ch=1 n=d5 v=79
99018 On ch=1 n=c#6 v=0
99022 On ch=1 n=a5 v=0
99072 On ch=1 n=a4 v=68
99078 On ch=1 n=c#6 v=72
99080 Par ch=1 c=64 v=63
99084 On ch=1 n=d5 v=0
99084 On ch=1 n=a5 v=69
99140 Par ch=1 c=64 v=127
99202 On ch=1 n=a5 v=0
99206 On ch=1 n=c#6 v=0
99212 On ch=1 n=b5 v=77
99218 On ch=1 n=g#5 v=78
99230 On ch=1 n=b4 v=81
99286 On ch=1 n=g#5 v=0
99296 On ch=1 n=a4 v=0
99298 On ch=1 n=b5 v=0
99354 Par ch=1 c=64 v=63
99362 On ch=1 n=g#5 v=88
99366 On ch=1 n=d5 v=68
99372 On ch=1 n=b4 v=0
99374 On ch=1 n=b5 v=80
99406 Par ch=1 c=64 v=127
99454 On ch=1 n=b5 v=0
99456 On ch=1 n=g#5 v=0
99484 On ch=1 n=b4 v=68
99492 On ch=1 n=d5 v=0
99494 On ch=1 n=d6 v=87
99504 On ch=1 n=b5 v=86
99574 On ch=1 n=b5 v=0
99590 On ch=1 n=d6 v=0
99614 Par ch=1 c=64 v=63
99620 On ch=1 n=b4 v=0
99628 On ch=1 n=a4 v=51
99638 On ch=1 n=b5 v=68
99640 On ch=1 n=d6 v=85
99694 Par ch=1 c=64 v=127
99746 On ch=1 n=b5 v=0
99774 On ch=1 n=d6 v=0
99774 On ch=1 n=c#5 v=72
99778 On ch=1 n=c#6 v=80
99792 On ch=1 n=a5 v=62
99856 On ch=1 n=a5 v=0
99860 On ch=1 n=c#6 v=0
99900 Par ch=1 c=64 v=63
99918 On ch=1 n=c#5 v=0
99924 On ch=1 n=e5 v=56
99932 On ch=1 n=a5 v=64
99938 On ch=1 n=c#6 v=87
99980 Par ch=1 c=64 v=127
100006 On ch=1 n=a5 v=0
100026 On ch=1 n=c#6 v=0
100036 On ch=1 n=c#5 v=61
100054 On ch=1 n=e5 v=0
100066 On ch=1 n=a4 v=0
100186 Par ch=1 c=64 v=63
100230 On ch=1 n=c#6 v=88
100232 On ch=1 n=b4 v=63
100236 On ch=1 n=c#5 v=0
100246 On ch=1 n=a5 v=67
100272 Par ch=1 c=64 v=127
100388 On ch=1 n=b5 v=86
100412 On ch=1 n=d#5 v=68
100428 On ch=1 n=c#6 v=0
100454 On ch=1 n=a5 v=0
100462 On ch=1 n=b5 v=0
100532 On ch=1 n=d#5 v=0
100542 On ch=1 n=f#5 v=76
100656 On ch=1 n=f#5 v=0
100658 On ch=1 n=a5 v=76
100658 On ch=1 n=d#5 v=79
100666 On ch=1 n=b5 v=74
100714 On ch=1 n=a5 v=0
100742 On ch=1 n=b5 v=0
100774 Par ch=1 c=64 v=63
100786 On ch=1 n=b5 v=83
100790 Par ch=1 c=64 v=0
100798 On ch=1 n=g#5 v=85
100806 On ch=1 n=d#5 v=0
100808 On ch=1 n=e5 v=69
100818 On ch=1 n=b4 v=0
100844 Par ch=1 c=64 v=63
100878 Par ch=1 c=64 v=127
100926 On ch=1 n=e6 v=89
100938 On ch=1 n=g#5 v=0
100944 On ch=1 n=e5 v=0
100970 On ch=1 n=b5 v=0
101030 Par ch=1 c=64 v=63
101048 Par ch=1 c=64 v=0
101072 On ch=1 n=a4 v=76
101078 On ch=1 n=c#6 v=99
101080 On ch=1 n=e6 v=0
101092 Par ch=1 c=64 v=63
101094 On ch=1 n=a5 v=75
101122 Par ch=1 c=64 v=127
101150 On ch=1 n=a4 v=0
101174 On ch=1 n=a5 v=0
101192 On ch=1 n=f#6 v=99
101226 On ch=1 n=c#6 v=0
101276 On ch=1 n=f#6 v=0
101332 Par ch=1 c=64 v=63
101366 On ch=1 n=e6 v=96
101372 On ch=1 n=b5 v=94
101374 On ch=1 n=g#5 v=81
101384 On ch=1 n=b4 v=68
101402 Par ch=1 c=64 v=127
101548 On ch=1 n=b5 v=0
101554 On ch=1 n=e6 v=0
101632 On ch=1 n=g#5 v=0
101682 On ch=1 n=f#5 v=70
101684 On ch=1 n=d#6 v=100
101710 On ch=1 n=e6 v=87
101734 On ch=1 n=d#6 v=0
101782 On ch=1 n=d#6 v=88
101802 On ch=1 n=e6 v=0
101844 On ch=1 n=c#6 v=94
101848 On ch=1 n=d#6 v=0
101878 On ch=1 n=f#5 v=0
101896 On ch=1 n=d#6 v=85
101914 On ch=1 n=c#6 v=0
101970 On ch=1 n=d#6 v=0
102010 On ch=1 n=e5 v=50
102024 On ch=1 n=b4 v=0
102030 On ch=1 n=g#5 v=57
102034 On ch=1 n=e6 v=91
102038 On ch=1 n=b5 v=65
102128 Par ch=1 c=64 v=63
102142 Par ch=1 c=64 v=0
102232 On ch=1 n=e5 v=0
102290 Par ch=1 c=64 v=63
102304 Par ch=1 c=64 v=127
102416 On ch=1 n=g#5 v=0
102422 On ch=1 n=e4 v=63
102426 On ch=1 n=b5 v=0
102484 On ch=1 n=e6 v=0
102496 On ch=1 n=e4 v=0
102908 On ch=1 n=e6 v=68
102930 Par ch=1 c=64 v=63
102948 Par ch=1 c=64 v=0
103102 On ch=1 n=d#6 v=78
103140 On ch=1 n=e6 v=0
103260 On ch=1 n=e6 v=90
103296 On ch=1 n=d#6 v=0
103408 On ch=1 n=f#6 v=94
103466 On ch=1 n=e6 v=0
103556 On ch=1 n=e6 v=91
103592 On ch=1 n=f#6 v=0
103688 On ch=1 n=d6 v=98
103762 On ch=1 n=e6 v=0
103832 On ch=1 n=c#6 v=103
103884 On ch=1 n=d6 v=0
103958 On ch=1 n=b5 v=90
104006 On ch=1 n=c#6 v=0
104112 On ch=1 n=a#5 v=105
104114 On ch=1 n=e5 v=65
104114 On ch=1 n=g5 v=61
104148 On ch=1 n=b5 v=0
104200 On ch=1 n=e5 v=0
104210 On ch=1 n=g5 v=0
104236 On ch=1 n=b5 v=96
104250 On ch=1 n=a#5 v=0
104388 On ch=1 n=c#6 v=92
104400 On ch=1 n=e5 v=65
104408 On ch=1 n=g5 v=54
104434 On ch=1 n=b5 v=0
104496 On ch=1 n=g5 v=0
104502 On ch=1 n=e5 v=0
104522 On ch=1 n=a#5 v=91
104564 On ch=1 n=c#6 v=0
104678 On ch=1 n=b5 v=80
104680 On ch=1 n=d5 v=61
104688 On ch=1 n=a#5 v=0
104690 On ch=1 n=f#5 v=70
104784 Par ch=1 c=64 v=63
104792 Par ch=1 c=64 v=127
104828 On ch=1 n=a#5 v=88
104854 On ch=1 n=b5 v=0
104984 On ch=1 n=a#5 v=0
105000 On ch=1 n=b5 v=76
105130 On ch=1 n=b5 v=0
105156 On ch=1 n=c#6 v=73
105220 On ch=1 n=d6 v=78
105226 On ch=1 n=c#6 v=0
105306 On ch=1 n=d6 v=0
105306 On ch=1 n=e6 v=82
105370 On ch=1 n=d6 v=77
105414 On ch=1 n=e6 v=0
105532 On ch=1 n=c#6 v=92
105560 On ch=1 n=d6 v=0
105668 On ch=1 n=d6 v=84
105672 On ch=1 n=c#6 v=0
105712 On ch=1 n=f#5 v=0
105726 On ch=1 n=d5 v=0
105802 On ch=1 n=e6 v=93
105856 On ch=1 n=d6 v=0
105954 On ch=1 n=d6 v=99
106032 Par ch=1 c=64 v=63
106038 On ch=1 n=e6 v=0
106072 Par ch=1 c=64 v=0
106090 On ch=1 n=c6 v=98
106162 On ch=1 n=d6 v=0
106222 On ch=1 n=b5 v=88
106252 On ch=1 n=c6 v=0
106344 On ch=1 n=a5 v=96
106362 On ch=1 n=b5 v=0
106494 On ch=1 n=f5 v=59
106496 On ch=1 n=g#5 v=81
106504 On ch=1 n=d5 v=50
106508 On ch=1 n=a5 v=0
106558 On ch=1 n=d5 v=0
106574 On ch=1 n=f5 v=0
106620 On ch=1 n=a5 v=68
106626 On ch=1 n=g#5 v=0
106784 On ch=1 n=b5 v=74
106800 On ch=1 n=d5 v=44
106802 On ch=1 n=a5 v=0
106810 On ch=1 n=f5 v=28
106920 On ch=1 n=b5 v=0
106922 On ch=1 n=g#5 v=65
106962 On ch=1 n=f5 v=0
106962 On ch=1 n=d5 v=0
107076 On ch=1 n=g#5 v=0
107084 On ch=1 n=c#5 v=66
107102 On ch=1 n=a5 v=54
107106 On ch=1 n=e5 v=46
107158 Par ch=1 c=64 v=63
107182 Par ch=1 c=64 v=127
107244 On ch=1 n=a5 v=0
107268 On ch=1 n=c#6 v=72
107348 On ch=1 n=e5 v=0
107382 On ch=1 n=c#6 v=0
107388 On ch=1 n=c#5 v=0
107404 On ch=1 n=e6 v=63
107588 On ch=1 n=c#6 v=70
107604 On ch=1 n=e6 v=0
107664 On ch=1 n=c#6 v=0
107798 On ch=1 n=a4 v=42
107900 On ch=1 n=a6 v=75
107918 On ch=1 n=c#6 v=46
107944 Par ch=1 c=64 v=63
108030 Par ch=1 c=64 v=127
108126 On ch=1 n=c#6 v=0
108154 On ch=1 n=c#5 v=67
108172 On ch=1 n=a6 v=0
108302 On ch=1 n=c#5 v=0
108314 On ch=1 n=a4 v=0
108332 On ch=1 n=e5 v=53
108430 On ch=1 n=g#6 v=87
108440 On ch=1 n=e6 v=68
108462 On ch=1 n=c#5 v=61
108486 On ch=1 n=e6 v=0
108490 On ch=1 n=e5 v=0
108502 On ch=1 n=g#6 v=0
108572 On ch=1 n=e6 v=66
108574 On ch=1 n=g#6 v=55
108580 Par ch=1 c=64 v=63
108590 On ch=1 n=c#5 v=0
108590 On ch=1 n=a4 v=53
108662 Par ch=1 c=64 v=127
108704 On ch=1 n=f#6 v=86
108712 On ch=1 n=e6 v=0
108718 On ch=1 n=d6 v=75
108726 On ch=1 n=g#6 v=0
108744 On ch=1 n=d5 v=67
108754 On ch=1 n=a4 v=0
108784 On ch=1 n=f#6 v=0
108798 On ch=1 n=d6 v=0
108832 On ch=1 n=d5 v=0
108856 On ch=1 n=f#6 v=75
108860 On ch=1 n=d6 v=71
108880 On ch=1 n=f#5 v=66
108924 On ch=1 n=f#5 v=0
108954 On ch=1 n=d6 v=0
108960 On ch=1 n=f#6 v=0
108992 On ch=1 n=e6 v=60
109006 On ch=1 n=c#6 v=72
109006 On ch=1 n=e5 v=60
109048 On ch=1 n=e6 v=0
109078 On ch=1 n=c#6 v=0
109118 On ch=1 n=e5 v=0
109134 On ch=1 n=a4 v=68
109144 On ch=1 n=e6 v=83
109146 On ch=1 n=c#6 v=76
109172 Par ch=1 c=64 v=63
109274 Par ch=1 c=64 v=127
109284 On ch=1 n=c#6 v=0
109294 On ch=1 n=d6 v=85
109294 On ch=1 n=b4 v=84
109300 On ch=1 n=b5 v=75
109310 On ch=1 n=e6 v=0
109328 On ch=1 n=a4 v=0
109368 On ch=1 n=d6 v=0
109380 On ch=1 n=b5 v=0
109428 On ch=1 n=b4 v=0
109428 On ch=1 n=d5 v=62
109446 On ch=1 n=d6 v=90
109460 On ch=1 n=b5 v=96
109540 On ch=1 n=d6 v=0
109552 On ch=1 n=b5 v=0
109556 On ch=1 n=c#6 v=88
109556 On ch=1 n=c#5 v=81
109568 On ch=1 n=d5 v=0
109574 On ch=1 n=a5 v=57
109636 On ch=1 n=c#6 v=0
109642 On ch=1 n=a5 v=0
109678 On ch=1 n=c#5 v=0
109714 On ch=1 n=c#6 v=90
109718 On ch=1 n=d5 v=72
109718 On ch=1 n=a5 v=87
109724 Par ch=1 c=64 v=63
109740 On ch=1 n=a4 v=41
109810 Par ch=1 c=64 v=127
109832 On ch=1 n=c#6 v=0
109836 On ch=1 n=b5 v=80
109842 On ch=1 n=a5 v=0
109842 On ch=1 n=e5 v=62
109850 On ch=1 n=d5 v=0
109850 On ch=1 n=g#5 v=90
109932 On ch=1 n=g#5 v=0
109954 On ch=1 n=b5 v=0
109966 On ch=1 n=a4 v=0
109966 Par ch=1 c=64 v=63
109992 Par ch=1 c=64 v=0
110002 On ch=1 n=c#5 v=74
110012 On ch=1 n=a5 v=76
110018 On ch=1 n=e5 v=0
110130 On ch=1 n=a4 v=65
110144 Par ch=1 c=64 v=63
110156 On ch=1 n=c#5 v=0
110158 Par ch=1 c=64 v=127
110166 On ch=1 n=a5 v=0
110250 On ch=1 n=a4 v=0
110324 On ch=1 n=b5 v=81
110348 On ch=1 n=d5 v=59
110348 On ch=1 n=a4 v=52
110372 Par ch=1 c=64 v=63
110378 On ch=1 n=g#5 v=77
110448 Par ch=1 c=64 v=127
110506 On ch=1 n=e5 v=63
110510 On ch=1 n=d5 v=0
110516 On ch=1 n=a4 v=0
110660 On ch=1 n=e5 v=0
110666 On ch=1 n=d5 v=69
110678 On ch=1 n=a4 v=42
110770 On ch=1 n=b5 v=0
110784 On ch=1 n=d5 v=0
110786 On ch=1 n=e5 v=67
110790 On ch=1 n=c#6 v=83
110792 On ch=1 n=a4 v=0
110934 Par ch=1 c=64 v=63
110950 On ch=1 n=b5 v=72
110954 Par ch=1 c=64 v=0
110958 On ch=1 n=a4 v=47
110960 On ch=1 n=e5 v=0
110960 On ch=1 n=c#5 v=76
110984 On ch=1 n=c#6 v=0
110998 Par ch=1 c=64 v=63
111008 On ch=1 n=g#5 v=0
111054 Par ch=1 c=64 v=127
111082 On ch=1 n=a4 v=0
111084 On ch=1 n=c#5 v=0
111092 On ch=1 n=e5 v=58
111094 On ch=1 n=a5 v=68
111108 On ch=1 n=b5 v=0
111186 On ch=1 n=a5 v=0
111190 Par ch=1 c=64 v=63
111214 Par ch=1 c=64 v=0
111246 On ch=1 n=a5 v=63
111258 On ch=1 n=e5 v=0
111258 On ch=1 n=c#5 v=72
111266 On ch=1 n=a4 v=48
111350 On ch=1 n=a5 v=0
111368 On ch=1 n=e5 v=64
111370 On ch=1 n=a4 v=0
111390 On ch=1 n=c#5 v=0
111560 On ch=1 n=g#5 v=64
111560 On ch=1 n=b5 v=68
111568 On ch=1 n=a4 v=41
111570 On ch=1 n=e5 v=0
111578 On ch=1 n=d5 v=60
111588 Par ch=1 c=64 v=63
111596 Par ch=1 c=64 v=127
111692 On ch=1 n=d5 v=0
111692 On ch=1 n=a4 v=0
111700 On ch=1 n=e5 v=50
111878 On ch=1 n=e5 v=0
111888 On ch=1 n=d5 v=57
111902 On ch=1 n=a4 v=29
111978 On ch=1 n=a4 v=0
111998 On ch=1 n=d5 v=0
111998 On ch=1 n=b5 v=0
112014 On ch=1 n=e5 v=47
112016 On ch=1 n=c#6 v=71
112048 On ch=1 n=g#5 v=0
112122 Par ch=1 c=64 v=63
112142 Par ch=1 c=64 v=0
112180 On ch=1 n=c#6 v=0
112206 On ch=1 n=e5 v=0
112206 On ch=1 n=a4 v=39
112208 On ch=1 n=c#5 v=72
112208 On ch=1 n=a5 v=57
112226 Par ch=1 c=64 v=63
112252 Par ch=1 c=64 v=127
112270 On ch=1 n=c#5 v=0
112296 On ch=1 n=a4 v=0
112474 Par ch=1 c=64 v=63
112494 Par ch=1 c=64 v=0
112558 Par ch=1 c=64 v=63
112564 On ch=1 n=a3 v=60
112592 Par ch=1 c=64 v=127
112622 On ch=1 n=a5 v=0
112652 On ch=1 n=a3 v=0
113070 Par ch=1 c=64 v=63
113090 On ch=1 n=e6 v=59
113156 Par ch=1 c=64 v=0
113254 On ch=1 n=d#6 v=76
113264 On ch=1 n=e6 v=0
113408 On ch=1 n=e6 v=85
113464 On ch=1 n=d#6 v=0
113548 On ch=1 n=f#6 v=95
113598 On ch=1 n=e6 v=0
113706 On ch=1 n=e6 v=93
113726 On ch=1 n=f#6 v=0
113844 On ch=1 n=d6 v=99
113928 On ch=1 n=e6 v=0
113992 On ch=1 n=c#6 v=99
114048 On ch=1 n=d6 v=0
114124 On ch=1 n=b5 v=88
114160 On ch=1 n=c#6 v=0
114276 On ch=1 n=g5 v=63
114280 On ch=1 n=a#5 v=104
114284 On ch=1 n=e5 v=60
114314 On ch=1 n=b5 v=0
114334 On ch=1 n=e5 v=0
114344 On ch=1 n=g5 v=0
114414 On ch=1 n=b5 v=94
114432 On ch=1 n=a#5 v=0
114560 On ch=1 n=g5 v=43
114566 On ch=1 n=c#6 v=92
114578 On ch=1 n=e5 v=32
114608 On ch=1 n=b5 v=0
114666 On ch=1 n=g5 v=0
114684 On ch=1 n=a#5 v=86
114692 On ch=1 n=e5 v=0
114730 On ch=1 n=c#6 v=0
114834 On ch=1 n=f#5 v=67
114836 On ch=1 n=b5 v=70
114840 On ch=1 n=a#5 v=0
114840 On ch=1 n=d5 v=60
114922 Par ch=1 c=64 v=63
114938 Par ch=1 c=64 v=127
114984 On ch=1 n=a#5 v=84
115004 On ch=1 n=b5 v=0
115068 Par ch=1 c=64 v=63
115090 Par ch=1 c=64 v=0
115110 On ch=1 n=a#5 v=0
115136 On ch=1 n=b5 v=65
115144 Par ch=1 c=64 v=63
115170 Par ch=1 c=64 v=127
115280 On ch=1 n=b5 v=0
115298 On ch=1 n=c#6 v=77
115386 On ch=1 n=c#6 v=0
115404 On ch=1 n=d6 v=74
115484 On ch=1 n=d6 v=0
115490 On ch=1 n=e6 v=77
115538 On ch=1 n=d6 v=81
115566 On ch=1 n=e6 v=0
115696 On ch=1 n=c#6 v=95
115734 On ch=1 n=d6 v=0
115746 Par ch=1 c=64 v=63
115794 Par ch=1 c=64 v=127
115832 On ch=1 n=d6 v=81
115842 On ch=1 n=f#5 v=0
115844 On ch=1 n=c#6 v=0
115856 On ch=1 n=d5 v=0
115970 On ch=1 n=e6 v=94
116040 On ch=1 n=d6 v=0
116132 On ch=1 n=d6 v=98
116184 Par ch=1 c=64 v=63
116216 On ch=1 n=e6 v=0
116218 Par ch=1 c=64 v=0
116270 On ch=1 n=c6 v=103
116348 On ch=1 n=d6 v=0
116404 On ch=1 n=b5 v=92
116448 On ch=1 n=c6 v=0
116532 On ch=1 n=a5 v=100
116556 On ch=1 n=b5 v=0
116680 On ch=1 n=g#5 v=90
116680 On ch=1 n=f5 v=62
116688 On ch=1 n=d5 v=65
116702 On ch=1 n=a5 v=0
116758 On ch=1 n=d5 v=0
116772 On ch=1 n=f5 v=0
116798 On ch=1 n=a5 v=71
116820 On ch=1 n=g#5 v=0
116958 On ch=1 n=b5 v=76
116972 On ch=1 n=d5 v=50
116976 On ch=1 n=f5 v=34
116988 On ch=1 n=a5 v=0
117090 On ch=1 n=g#5 v=76
117100 On ch=1 n=b5 v=0
117122 On ch=1 n=f5 v=0
117134 On ch=1 n=d5 v=0
117244 On ch=1 n=g#5 v=0
117260 On ch=1 n=c#5 v=62
117266 On ch=1 n=a5 v=55
117284 On ch=1 n=e5 v=38
117344 Par ch=1 c=64 v=63
117372 Par ch=1 c=64 v=127
117426 On ch=1 n=c#6 v=70
117434 On ch=1 n=a5 v=0
117562 On ch=1 n=c#6 v=0
117566 On ch=1 n=e5 v=0
117576 On ch=1 n=e6 v=68
117598 On ch=1 n=c#5 v=0
117734 On ch=1 n=c#6 v=79
117738 On ch=1 n=e6 v=0
117794 On ch=1 n=c#6 v=0
117936 On ch=1 n=a4 v=38
118042 On ch=1 n=a6 v=68
118064 On ch=1 n=c#6 v=37
118084 Par ch=1 c=64 v=63
118176 Par ch=1 c=64 v=127
118296 On ch=1 n=c#6 v=0
118302 On ch=1 n=c#5 v=53
118348 On ch=1 n=a6 v=0
118460 On ch=1 n=c#5 v=0
118472 On ch=1 n=a4 v=0
118492 On ch=1 n=e5 v=41
118584 On ch=1 n=g#6 v=79
118594 On ch=1 n=e6 v=53
118624 On ch=1 n=c#5 v=55
118648 On ch=1 n=e5 v=0
118650 On ch=1 n=e6 v=0
118660 On ch=1 n=g#6 v=0
118728 Par ch=1 c=64 v=63
118736 Par ch=1 c=64 v=127
118742 On ch=1 n=e6 v=71
118744 On ch=1 n=c#5 v=0
118744 On ch=1 n=g#6 v=67
118762 On ch=1 n=a4 v=49
118850 On ch=1 n=e6 v=0
118858 On ch=1 n=g#6 v=0
118870 On ch=1 n=f#6 v=80
118880 On ch=1 n=a4 v=0
118898 On ch=1 n=d6 v=60
118912 On ch=1 n=d5 v=63
118950 On ch=1 n=f#6 v=0
118958 On ch=1 n=d6 v=0
119002 On ch=1 n=d5 v=0
119018 On ch=1 n=d6 v=75
119022 On ch=1 n=f#6 v=61
119058 On ch=1 n=f#5 v=77
119102 On ch=1 n=d6 v=0
119120 On ch=1 n=f#6 v=0
119148 On ch=1 n=e6 v=66
119150 On ch=1 n=f#5 v=0
119162 On ch=1 n=c#6 v=74
119178 On ch=1 n=e5 v=60
119200 On ch=1 n=e6 v=0
119218 On ch=1 n=c#6 v=0
119292 On ch=1 n=e5 v=0
119292 On ch=1 n=a4 v=64
119300 On ch=1 n=e6 v=84
119306 On ch=1 n=c#6 v=91
119336 Par ch=1 c=64 v=63
119424 On ch=1 n=c#6 v=0
119428 Par ch=1 c=64 v=127
119436 On ch=1 n=d6 v=85
119440 On ch=1 n=b5 v=71
119446 On ch=1 n=b4 v=77
119450 On ch=1 n=a4 v=0
119478 On ch=1 n=e6 v=0
119510 On ch=1 n=d6 v=0
119524 On ch=1 n=b5 v=0
119552 Par ch=1 c=64 v=63
119570 On ch=1 n=b4 v=0
119574 On ch=1 n=d5 v=59
119586 On ch=1 n=d6 v=79
119598 On ch=1 n=b5 v=86
119636 Par ch=1 c=64 v=127
119678 On ch=1 n=b5 v=0
119686 On ch=1 n=d6 v=0
119700 On ch=1 n=c#5 v=76
119708 On ch=1 n=c#6 v=92
119714 On ch=1 n=a5 v=65
119720 On ch=1 n=d5 v=0
119788 On ch=1 n=c#6 v=0
119792 On ch=1 n=a5 v=0
119820 On ch=1 n=c#5 v=0
119848 Par ch=1 c=64 v=63
119850 On ch=1 n=c#6 v=75
119856 On ch=1 n=a5 v=76
119862 On ch=1 n=d5 v=68
119866 On ch=1 n=a4 v=47
119920 Par ch=1 c=64 v=127
119970 On ch=1 n=a5 v=0
119972 On ch=1 n=c#6 v=0
119974 On ch=1 n=b5 v=81
119984 On ch=1 n=e5 v=66
119986 On ch=1 n=d5 v=0
120010 On ch=1 n=g#5 v=53
120052 On ch=1 n=a4 v=0
120056 On ch=1 n=g#5 v=0
120082 Par ch=1 c=64 v=63
120104 On ch=1 n=b5 v=0
120118 Par ch=1 c=64 v=0
120146 On ch=1 n=e5 v=0
120148 On ch=1 n=c#5 v=68
120150 On ch=1 n=a5 v=79
120178 Par ch=1 c=64 v=63
120224 Par ch=1 c=64 v=127
120268 On ch=1 n=a4 v=63
120278 On ch=1 n=c#5 v=0
120300 On ch=1 n=a5 v=0
120366 On ch=1 n=a4 v=0
120448 On ch=1 n=b5 v=76
120450 On ch=1 n=g#5 v=65
120456 Par ch=1 c=64 v=63
120482 On ch=1 n=d5 v=39
120484 On ch=1 n=a4 v=31
120488 Par ch=1 c=64 v=0
120520 Par ch=1 c=64 v=63
120580 Par ch=1 c=64 v=127
120592 On ch=1 n=e5 v=63
120594 On ch=1 n=d5 v=0
120612 On ch=1 n=a4 v=0
120746 On ch=1 n=e5 v=0
120746 Par ch=1 c=64 v=63
120776 Par ch=1 c=64 v=0
120778 On ch=1 n=d5 v=73
120784 On ch=1 n=a4 v=50
120880 On ch=1 n=a4 v=0
120882 On ch=1 n=d5 v=0
120896 On ch=1 n=e5 v=61
120904 On ch=1 n=c#6 v=80
120906 On ch=1 n=b5 v=0
120968 On ch=1 n=g#5 v=0
121058 On ch=1 n=c#6 v=0
121058 On ch=1 n=b5 v=69
121064 On ch=1 n=a4 v=45
121064 On ch=1 n=c#5 v=72
121066 On ch=1 n=e5 v=0
121106 Par ch=1 c=64 v=63
121116 Par ch=1 c=64 v=127
121180 On ch=1 n=c#5 v=0
121188 On ch=1 n=a4 v=0
121190 On ch=1 n=a5 v=54
121198 On ch=1 n=e5 v=48
121208 On ch=1 n=b5 v=0
121258 On ch=1 n=a5 v=0
121306 Par ch=1 c=64 v=63
121322 Par ch=1 c=64 v=0
121342 On ch=1 n=e5 v=0
121348 On ch=1 n=c#5 v=69
121348 On ch=1 n=a5 v=68
121356 On ch=1 n=a4 v=44
121416 On ch=1 n=a5 v=0
121434 On ch=1 n=a4 v=0
121458 On ch=1 n=c#5 v=0
121464 On ch=1 n=e5 v=57
121646 On ch=1 n=b5 v=66
121650 On ch=1 n=e5 v=0
121652 On ch=1 n=g#5 v=50
121660 On ch=1 n=a4 v=33
121662 On ch=1 n=d5 v=52
121664 Par ch=1 c=64 v=63
121670 Par ch=1 c=64 v=127
121770 On ch=1 n=d5 v=0
121802 On ch=1 n=e5 v=50
121812 On ch=1 n=a4 v=0
121960 On ch=1 n=e5 v=0
121964 On ch=1 n=d5 v=67
122066 On ch=1 n=d5 v=0
122066 On ch=1 n=e5 v=61
122088 On ch=1 n=c#6 v=72
122100 On ch=1 n=g#5 v=0
122112 Par ch=1 c=64 v=63
122126 On ch=1 n=b5 v=0
122128 Par ch=1 c=64 v=0
122236 Par ch=1 c=64 v=63
122236 On ch=1 n=a4 v=63
122238 On ch=1 n=c#6 v=0
122244 On ch=1 n=c#5 v=79
122244 On ch=1 n=a5 v=65
122246 On ch=1 n=e5 v=0
122254 Par ch=1 c=64 v=127
122276 On ch=1 n=c#5 v=0
122288 On ch=1 n=a4 v=0
122356 On ch=1 n=a5 v=0
122430 On ch=1 n=e5 v=59
122486 On ch=1 n=e5 v=0
122502 Par ch=1 c=64 v=63
122540 Par ch=1 c=64 v=0
122638 On ch=1 n=a5 v=74
122698 On ch=1 n=a5 v=0
122852 On ch=1 n=b5 v=76
122922 On ch=1 n=b5 v=0
123174 On ch=1 n=c6 v=66
123190 On ch=1 n=a5 v=52
123278 Par ch=1 c=64 v=63
123288 Par ch=1 c=64 v=127
123298 On ch=1 n=a4 v=54
123354 On ch=1 n=c6 v=0
123362 On ch=1 n=a5 v=0
123462 On ch=1 n=e5 v=49
123484 On ch=1 n=a4 v=0
123584 On ch=1 n=g#5 v=65
123588 On ch=1 n=b5 v=61
123600 On ch=1 n=e5 v=0
123602 On ch=1 n=d5 v=55
123610 Par ch=1 c=64 v=63
123630 Par ch=1 c=64 v=0
123646 On ch=1 n=d5 v=0
123656 On ch=1 n=g#5 v=0
123664 On ch=1 n=b5 v=0
123738 On ch=1 n=a5 v=77
123756 On ch=1 n=e5 v=59
123772 Par ch=1 c=64 v=63
123794 Par ch=1 c=64 v=127
123880 On ch=1 n=a4 v=49
123948 On ch=1 n=e5 v=0
123996 On ch=1 n=a5 v=0
124022 On ch=1 n=c5 v=39
124048 On ch=1 n=a4 v=0
124098 Par ch=1 c=64 v=63
124118 Par ch=1 c=64 v=0
124132 On ch=1 n=b4 v=68
124142 On ch=1 n=c5 v=0
124146 On ch=1 n=g#5 v=80
124198 On ch=1 n=b4 v=0
124258 On ch=1 n=g#5 v=0
124296 On ch=1 n=a5 v=72
124310 On ch=1 n=e5 v=64
124338 Par ch=1 c=64 v=63
124356 Par ch=1 c=64 v=127
124418 On ch=1 n=a4 v=64
124504 On ch=1 n=a5 v=0
124506 On ch=1 n=e5 v=0
124536 On ch=1 n=a4 v=0
124568 On ch=1 n=c5 v=73
124662 On ch=1 n=c5 v=0
124670 Par ch=1 c=64 v=63
124686 Par ch=1 c=64 v=0
124686 On ch=1 n=g#4 v=61
124690 On ch=1 n=b5 v=87
124732 On ch=1 n=g#4 v=0
124764 On ch=1 n=b5 v=0
124840 On ch=1 n=d6 v=84
124842 On ch=1 n=a5 v=74
124860 Par ch=1 c=64 v=63
124880 Par ch=1 c=64 v=127
124954 On ch=1 n=d6 v=0
124962 On ch=1 n=c6 v=80
124970 On ch=1 n=a4 v=62
124998 On ch=1 n=a5 v=0
125074 On ch=1 n=a4 v=0
125082 On ch=1 n=c6 v=0
125090 On ch=1 n=g#5 v=63
125092 Par ch=1 c=64 v=63
125106 Par ch=1 c=64 v=0
125120 On ch=1 n=e5 v=58
125130 On ch=1 n=b5 v=77
125212 On ch=1 n=e5 v=0
125234 On ch=1 n=b5 v=0
125238 On ch=1 n=e4 v=90
125310 On ch=1 n=g#5 v=0
125316 On ch=1 n=e4 v=0
125392 On ch=1 n=d6 v=92
125406 On ch=1 n=a5 v=73
125460 Par ch=1 c=64 v=63
125464 Par ch=1 c=64 v=127
125534 On ch=1 n=f4 v=82
125608 On ch=1 n=f4 v=0
125682 On ch=1 n=a5 v=0
125694 On ch=1 n=d6 v=0
125700 On ch=1 n=f5 v=74
125814 On ch=1 n=e5 v=87
125816 Par ch=1 c=64 v=63
125824 On ch=1 n=c6 v=99
125826 On ch=1 n=f5 v=0
125828 Par ch=1 c=64 v=0
125876 On ch=1 n=e5 v=0
125902 On ch=1 n=c6 v=0
125968 On ch=1 n=f6 v=103
125980 On ch=1 n=a5 v=84
126086 Par ch=1 c=64 v=63
126090 Par ch=1 c=64 v=127
126102 On ch=1 n=d4 v=88
126202 On ch=1 n=d4 v=0
126248 On ch=1 n=d5 v=82
126354 On ch=1 n=e6 v=90
126362 On ch=1 n=f6 v=0
126370 On ch=1 n=c5 v=92
126386 On ch=1 n=d5 v=0
126422 On ch=1 n=e6 v=0
126426 On ch=1 n=c5 v=0
126436 On ch=1 n=a5 v=0
126468 Par ch=1 c=64 v=63
126478 Par ch=1 c=64 v=0
126512 On ch=1 n=d6 v=99
126516 On ch=1 n=g#5 v=106
126590 Par ch=1 c=64 v=63
126610 Par ch=1 c=64 v=127
126624 On ch=1 n=b3 v=83
126750 On ch=1 n=b3 v=0
126790 On ch=1 n=b4 v=84
126814 On ch=1 n=g#5 v=0
126826 On ch=1 n=d6 v=0
126896 On ch=1 n=a4 v=86
126904 On ch=1 n=a5 v=84
126908 On ch=1 n=c6 v=84
126910 On ch=1 n=b4 v=0
126980 On ch=1 n=c6 v=0
126990 On ch=1 n=a5 v=0
126996 On ch=1 n=a4 v=0
127038 Par ch=1 c=64 v=63
127048 Par ch=1 c=64 v=0
127050 On ch=1 n=e4 v=85
127054 On ch=1 n=c6 v=94
127054 On ch=1 n=e5 v=79
127066 On ch=1 n=g#5 v=92
127120 On ch=1 n=e5 v=0
127120 On ch=1 n=e4 v=0
127146 On ch=1 n=g#5 v=0
127216 On ch=1 n=b5 v=87
127234 On ch=1 n=c6 v=0
127300 On ch=1 n=b5 v=0
127342 On ch=1 n=e4 v=74
127362 On ch=1 n=g#5 v=93
127410 On ch=1 n=e4 v=0
127432 On ch=1 n=g#5 v=0
127496 On ch=1 n=e5 v=57
127590 On ch=1 n=e5 v=0
127662 On ch=1 n=c6 v=64
127664 On ch=1 n=a5 v=58
127794 On ch=1 n=a4 v=57
127844 Par ch=1 c=64 v=63
127854 Par ch=1 c=64 v=127
127958 On ch=1 n=a5 v=0
127962 On ch=1 n=e5 v=49
128012 On ch=1 n=c6 v=0
128082 On ch=1 n=d5 v=71
128084 On ch=1 n=g#5 v=73
128088 On ch=1 n=b5 v=71
128090 On ch=1 n=e5 v=0
128090 On ch=1 n=a4 v=0
128152 On ch=1 n=d5 v=0
128160 On ch=1 n=g#5 v=0
128176 On ch=1 n=b5 v=0
128226 On ch=1 n=a5 v=80
128236 On ch=1 n=e5 v=70
128264 Par ch=1 c=64 v=63
128278 Par ch=1 c=64 v=0
128374 On ch=1 n=a4 v=63
128406 Par ch=1 c=64 v=63
128424 Par ch=1 c=64 v=127
128504 On ch=1 n=e5 v=0
128542 On ch=1 n=c5 v=68
128600 On ch=1 n=a5 v=0
128620 On ch=1 n=a4 v=0
128638 On ch=1 n=b4 v=74
128664 On ch=1 n=c5 v=0
128676 On ch=1 n=g#5 v=97
128722 On ch=1 n=b4 v=0
128772 On ch=1 n=g#5 v=0
128790 Par ch=1 c=64 v=63
128804 Par ch=1 c=64 v=0
128814 On ch=1 n=a5 v=93
128826 On ch=1 n=e5 v=85
128932 On ch=1 n=a4 v=68
128936 Par ch=1 c=64 v=63
128960 Par ch=1 c=64 v=127
129072 On ch=1 n=e5 v=0
129076 On ch=1 n=a4 v=0
129078 On ch=1 n=c5 v=89
129172 On ch=1 n=a5 v=0
129210 On ch=1 n=g#4 v=81
129224 On ch=1 n=c5 v=0
129232 On ch=1 n=b5 v=97
129236 On ch=1 n=g#5 v=94
129300 On ch=1 n=g#5 v=0
129304 On ch=1 n=g#4 v=0
129308 On ch=1 n=b5 v=0
129350 Par ch=1 c=64 v=63
129364 Par ch=1 c=64 v=0
129370 On ch=1 n=d6 v=97
129376 On ch=1 n=a5 v=84
129482 On ch=1 n=a4 v=72
129508 On ch=1 n=c6 v=94
129540 On ch=1 n=d6 v=0
129602 On ch=1 n=a5 v=0
129604 On ch=1 n=a4 v=0
129630 On ch=1 n=e5 v=60
129640 On ch=1 n=c6 v=0
129650 On ch=1 n=b5 v=79
129650 On ch=1 n=g#5 v=88
129734 On ch=1 n=e5 v=0
129746 Par ch=1 c=64 v=63
129752 Par ch=1 c=64 v=127
129756 On ch=1 n=g#5 v=0
129762 On ch=1 n=b5 v=0
129786 On ch=1 n=e4 v=92
129868 On ch=1 n=e4 v=0
129900 Par ch=1 c=64 v=63
129908 Par ch=1 c=64 v=0
129928 On ch=1 n=f6 v=107
129940 On ch=1 n=a5 v=86
129986 Par ch=1 c=64 v=63
130002 Par ch=1 c=64 v=127
130062 On ch=1 n=d4 v=96
130164 On ch=1 n=d4 v=0
130226 On ch=1 n=d5 v=92
130286 On ch=1 n=a5 v=0
130324 On ch=1 n=f6 v=0
130338 On ch=1 n=c5 v=92
130342 On ch=1 n=d5 v=0
130346 On ch=1 n=e6 v=100
130408 On ch=1 n=c5 v=0
130424 On ch=1 n=e6 v=0
130486 Par ch=1 c=64 v=63
130494 On ch=1 n=d6 v=113
130502 On ch=1 n=a5 v=101
130504 Par ch=1 c=64 v=0
130618 Par ch=1 c=64 v=63
130624 On ch=1 n=f4 v=96
130638 Par ch=1 c=64 v=127
130714 On ch=1 n=f4 v=0
130770 On ch=1 n=f5 v=92
130872 On ch=1 n=a5 v=0
130878 On ch=1 n=f5 v=0
130884 On ch=1 n=e5 v=101
130896 On ch=1 n=c6 v=99
130960 On ch=1 n=d6 v=0
130990 On ch=1 n=c6 v=0
131022 Par ch=1 c=64 v=63
131028 Par ch=1 c=64 v=0
131048 On ch=1 n=c6 v=102
131048 On ch=1 n=d5 v=102
131072 On ch=1 n=e5 v=0
131122 On ch=1 n=d5 v=0
131172 On ch=1 n=b5 v=94
131196 On ch=1 n=c6 v=0
131248 On ch=1 n=b5 v=0
131322 On ch=1 n=a5 v=86
131332 On ch=1 n=e5 v=88
131390 On ch=1 n=e5 v=0
131402 On ch=1 n=a5 v=0
131452 On ch=1 n=g#5 v=101
131524 On ch=1 n=g#5 v=0
131590 On ch=1 n=f5 v=76
131608 On ch=1 n=a5 v=77
131638 Par ch=1 c=64 v=63
131642 Par ch=1 c=64 v=127
131678 On ch=1 n=a5 v=0
131728 On ch=1 n=c#6 v=99
131750 On ch=1 n=f5 v=0
131798 On ch=1 n=c#6 v=0
131810 Par ch=1 c=64 v=63
131820 Par ch=1 c=64 v=0
131872 On ch=1 n=d6 v=109
131944 On ch=1 n=d6 v=0
131988 On ch=1 n=e6 v=111
132066 On ch=1 n=e6 v=0
132142 On ch=1 n=f6 v=117
132152 On ch=1 n=a5 v=107
132188 Par ch=1 c=64 v=63
132192 Par ch=1 c=64 v=127
132286 On ch=1 n=a5 v=0
132286 On ch=1 n=d4 v=113
132380 On ch=1 n=d4 v=0
132430 On ch=1 n=d5 v=107
132460 On ch=1 n=f6 v=0
132550 On ch=1 n=e6 v=106
132552 On ch=1 n=c5 v=107
132572 On ch=1 n=d5 v=0
132602 On ch=1 n=c5 v=0
132618 Par ch=1 c=64 v=63
132628 Par ch=1 c=64 v=0
132656 On ch=1 n=e6 v=0
132698 On ch=1 n=g#6 v=116
132704 On ch=1 n=d6 v=114
132716 Par ch=1 c=64 v=63
132730 Par ch=1 c=64 v=127
132830 On ch=1 n=b3 v=117
132892 On ch=1 n=g#6 v=0
132898 On ch=1 n=d6 v=0
132946 On ch=1 n=b3 v=0
132966 On ch=1 n=b4 v=108
133082 On ch=1 n=b4 v=0
133086 On ch=1 n=a4 v=100
133108 On ch=1 n=a6 v=83
133112 On ch=1 n=c6 v=90
133144 On ch=1 n=a4 v=0
133148 On ch=1 n=a6 v=0
133172 On ch=1 n=c6 v=0
133220 Par ch=1 c=64 v=63
133228 Par ch=1 c=64 v=0
133236 On ch=1 n=d5 v=114
133246 On ch=1 n=e6 v=109
133250 On ch=1 n=c6 v=106
133366 On ch=1 n=d6 v=92
133370 On ch=1 n=b5 v=96
133414 On ch=1 n=c6 v=0
133446 On ch=1 n=e6 v=0
133460 On ch=1 n=b5 v=0
133468 On ch=1 n=d5 v=0
133470 On ch=1 n=d6 v=0
133510 On ch=1 n=c6 v=96
133520 On ch=1 n=a5 v=87
133528 On ch=1 n=e5 v=89
133564 On ch=1 n=c6 v=0
133582 On ch=1 n=a5 v=0
133602 On ch=1 n=e5 v=0
133644 On ch=1 n=b5 v=79
133650 On ch=1 n=g#5 v=99
133652 On ch=1 n=c6 v=77
133692 On ch=1 n=c6 v=0
133718 On ch=1 n=b5 v=0
133728 On ch=1 n=g#5 v=0
133804 On ch=1 n=a4 v=107
133806 On ch=1 n=a5 v=94
133856 Par ch=1 c=64 v=63
133858 Par ch=1 c=64 v=127
133924 On ch=1 n=a5 v=0
133946 On ch=1 n=c6 v=101
134036 On ch=1 n=a4 v=0
134050 On ch=1 n=c6 v=0
134080 On ch=1 n=e6 v=96
134174 On ch=1 n=e6 v=0
134232 On ch=1 n=a6 v=92
134306 On ch=1 n=a6 v=0
134498 On ch=1 n=a#6 v=101
134644 Par ch=1 c=64 v=63
134698 On ch=1 n=c#5 v=79
134752 Par ch=1 c=64 v=127
134882 On ch=1 n=g5 v=83
134986 On ch=1 n=a#6 v=0
135008 On ch=1 n=g6 v=100
135010 On ch=1 n=a#5 v=90
135092 On ch=1 n=g6 v=0
135106 On ch=1 n=g5 v=0
135124 On ch=1 n=a#5 v=0
135128 On ch=1 n=c#5 v=0
135152 On ch=1 n=g6 v=97
135268 On ch=1 n=d5 v=88
135280 On ch=1 n=f6 v=99
135300 Par ch=1 c=64 v=63
135328 Par ch=1 c=64 v=0
135384 On ch=1 n=g6 v=0
135400 Par ch=1 c=64 v=63
135428 On ch=1 n=f5 v=92
135434 On ch=1 n=e6 v=104
135436 Par ch=1 c=64 v=127
135494 On ch=1 n=f6 v=0
135540 On ch=1 n=a5 v=96
135552 On ch=1 n=d6 v=99
135560 On ch=1 n=e6 v=0
135602 On ch=1 n=f5 v=0
135642 On ch=1 n=d5 v=0
135702 On ch=1 n=d6 v=0
135704 On ch=1 n=a5 v=0
135746 On ch=1 n=c7 v=112
135850 Par ch=1 c=64 v=63
135918 On ch=1 n=d#5 v=100
135958 Par ch=1 c=64 v=127
136064 On ch=1 n=a5 v=87
136194 On ch=1 n=c6 v=96
136206 On ch=1 n=a6 v=101
136230 On ch=1 n=c7 v=0
136288 On ch=1 n=a5 v=0
136294 On ch=1 n=a6 v=0
136308 On ch=1 n=c6 v=0
136334 On ch=1 n=d#5 v=0
136350 On ch=1 n=a6 v=108
136444 Par ch=1 c=64 v=63
136454 Par ch=1 c=64 v=0
136470 On ch=1 n=e5 v=90
136476 On ch=1 n=g#6 v=109
136540 On ch=1 n=a6 v=0
136610 On ch=1 n=f#6 v=108
136620 Par ch=1 c=64 v=63
136622 On ch=1 n=g#5 v=97
136642 Par ch=1 c=64 v=127
136676 On ch=1 n=g#6 v=0
136730 On ch=1 n=e6 v=98
136742 On ch=1 n=b5 v=96
136762 On ch=1 n=g#5 v=0
136782 On ch=1 n=e5 v=0
136784 On ch=1 n=f#6 v=0
136806 On ch=1 n=b5 v=0
136940 On ch=1 n=e6 v=0
136944 On ch=1 n=d7 v=108
136944 Par ch=1 c=64 v=63
136946 On ch=1 n=a6 v=103
136962 Par ch=1 c=64 v=0
137030 Par ch=1 c=64 v=63
137054 Par ch=1 c=64 v=127
137146 On ch=1 n=f4 v=103
137286 On ch=1 n=f4 v=0
137322 On ch=1 n=f5 v=86
137462 On ch=1 n=g#6 v=93
137484 On ch=1 n=e5 v=69
137494 On ch=1 n=f5 v=0
137494 On ch=1 n=a6 v=0
137500 On ch=1 n=d7 v=0
137522 On ch=1 n=e5 v=0
137552 On ch=1 n=g#6 v=0
137612 On ch=1 n=d7 v=107
137614 On ch=1 n=a6 v=108
137692 Par ch=1 c=64 v=63
137724 On ch=1 n=f4 v=93
137748 Par ch=1 c=64 v=127
137908 On ch=1 n=f5 v=90
137942 On ch=1 n=f4 v=0
138042 On ch=1 n=g#6 v=92
138054 On ch=1 n=e5 v=87
138068 On ch=1 n=f5 v=0
138088 On ch=1 n=a6 v=0
138108 On ch=1 n=d7 v=0
138110 On ch=1 n=e5 v=0
138188 On ch=1 n=g#6 v=0
138210 On ch=1 n=d7 v=94
138212 On ch=1 n=a6 v=92
138240 Par ch=1 c=64 v=63
138310 Par ch=1 c=64 v=127
138320 On ch=1 n=f4 v=70
138498 On ch=1 n=f5 v=69
138500 On ch=1 n=f4 v=0
138636 On ch=1 n=a6 v=0
138640 On ch=1 n=e5 v=71
138650 On ch=1 n=f5 v=0
138654 On ch=1 n=g#6 v=60
138686 On ch=1 n=e5 v=0
138692 On ch=1 n=d7 v=0
138822 On ch=1 n=g#6 v=0
138836 On ch=1 n=a6 v=72
138846 On ch=1 n=d7 v=71
138892 Par ch=1 c=64 v=63
138912 Par ch=1 c=64 v=127
138990 On ch=1 n=f4 v=75
139160 On ch=1 n=f4 v=0
139204 On ch=1 n=f5 v=50
139238 On ch=1 n=a6 v=0
139394 On ch=1 n=d7 v=0
139416 On ch=1 n=g#6 v=51
139418 On ch=1 n=f5 v=0
139420 On ch=1 n=e5 v=62
139476 On ch=1 n=e5 v=0
139518 On ch=1 n=g#6 v=0
139810 On ch=1 n=c4 v=68
139852 On ch=1 n=c3 v=50
139940 Par ch=1 c=64 v=63
139960 Par ch=1 c=64 v=127
140030 On ch=1 n=e5 v=58
140154 On ch=1 n=c4 v=0
140156 On ch=1 n=e6 v=76
140160 On ch=1 n=e5 v=0
140306 On ch=1 n=c3 v=0
140306 On ch=1 n=d6 v=80
140308 On ch=1 n=b2 v=65
140318 On ch=1 n=e6 v=0
140318 On ch=1 n=b3 v=38
140346 On ch=1 n=b2 v=0
140360 On ch=1 n=b3 v=0
140418 On ch=1 n=d6 v=0
140446 On ch=1 n=a3 v=66
140452 On ch=1 n=a2 v=57
140582 On ch=1 n=e5 v=65
140606 Par ch=1 c=64 v=63
140618 Par ch=1 c=64 v=127
140732 On ch=1 n=c6 v=84
140744 On ch=1 n=a2 v=0
140792 On ch=1 n=a3 v=0
140876 On ch=1 n=b5 v=90
140888 On ch=1 n=b2 v=73
140894 On ch=1 n=b3 v=64
140926 On ch=1 n=c6 v=0
140942 On ch=1 n=e5 v=0
140956 On ch=1 n=b2 v=0
140958 On ch=1 n=b3 v=0
140962 On ch=1 n=b5 v=0
141034 On ch=1 n=c4 v=83
141040 On ch=1 n=c3 v=82
141124 Par ch=1 c=64 v=63
141160 Par ch=1 c=64 v=127
141180 On ch=1 n=e5 v=70
141292 On ch=1 n=c3 v=0
141324 On ch=1 n=a5 v=80
141336 On ch=1 n=c4 v=0
141440 On ch=1 n=d4 v=84
141446 On ch=1 n=d3 v=76
141458 On ch=1 n=b5 v=82
141478 On ch=1 n=e5 v=0
141500 On ch=1 n=a5 v=0
141502 On ch=1 n=d3 v=0
141502 On ch=1 n=d4 v=0
141556 On ch=1 n=b5 v=0
141592 On ch=1 n=c4 v=88
141602 On ch=1 n=c3 v=84
141604 Par ch=1 c=64 v=63
141622 Par ch=1 c=64 v=0
141728 Par ch=1 c=64 v=63
141746 On ch=1 n=e5 v=74
141748 Par ch=1 c=64 v=127
141782 On ch=1 n=c3 v=0
141798 On ch=1 n=c4 v=0
141888 On ch=1 n=b2 v=93
141890 On ch=1 n=a5 v=76
141892 On ch=1 n=b3 v=80
141892 Par ch=1 c=64 v=63
141938 Par ch=1 c=64 v=127
141986 On ch=1 n=b2 v=0
141988 On ch=1 n=e5 v=0
142002 On ch=1 n=g#5 v=89
142024 On ch=1 n=a5 v=0
142038 On ch=1 n=b3 v=0
142070 On ch=1 n=g#5 v=0
142212 Par ch=1 c=64 v=63
142228 On ch=1 n=d6 v=92
142242 On ch=1 n=d5 v=50
142274 Par ch=1 c=64 v=127
142384 On ch=1 n=e4 v=59
142418 On ch=1 n=d6 v=0
142470 On ch=1 n=d5 v=0
142552 On ch=1 n=b4 v=63
142670 On ch=1 n=b4 v=0
142676 On ch=1 n=a4 v=53
142688 On ch=1 n=e4 v=0
142694 On ch=1 n=c6 v=87
142694 On ch=1 n=c5 v=76
142746 On ch=1 n=c5 v=0
142762 On ch=1 n=c6 v=0
142770 On ch=1 n=a4 v=0
142844 On ch=1 n=b5 v=100
142856 On ch=1 n=b4 v=78
142948 Par ch=1 c=64 v=63
142994 Par ch=1 c=64 v=127
143000 On ch=1 n=e4 v=69
143084 On ch=1 n=b5 v=0
143090 On ch=1 n=b4 v=0
143154 On ch=1 n=g#4 v=97
143278 On ch=1 n=e4 v=0
143286 On ch=1 n=a4 v=78
143290 On ch=1 n=c5 v=94
143290 On ch=1 n=c6 v=99
143332 On ch=1 n=g#4 v=0
143358 On ch=1 n=c5 v=0
143386 On ch=1 n=c6 v=0
143396 On ch=1 n=a4 v=0
143446 On ch=1 n=d6 v=104
143452 On ch=1 n=d5 v=93
143520 Par ch=1 c=64 v=63
143586 Par ch=1 c=64 v=127
143598 On ch=1 n=e4 v=85
143710 On ch=1 n=d5 v=0
143714 On ch=1 n=d6 v=0
143762 On ch=1 n=b4 v=101
143896 On ch=1 n=e6 v=101
143902 On ch=1 n=e5 v=87
143902 On ch=1 n=c5 v=85
143940 On ch=1 n=b4 v=0
143970 On ch=1 n=e5 v=0
143982 On ch=1 n=e6 v=0
144000 On ch=1 n=c5 v=0
144020 On ch=1 n=e4 v=0
144038 On ch=1 n=d6 v=96
144052 On ch=1 n=d5 v=84
144122 Par ch=1 c=64 v=63
144164 Par ch=1 c=64 v=127
144182 On ch=1 n=e4 v=98
144202 On ch=1 n=d6 v=0
144228 On ch=1 n=d5 v=0
144328 On ch=1 n=c6 v=103
144334 On ch=1 n=b4 v=75
144340 On ch=1 n=c5 v=67
144362 On ch=1 n=d5 v=47
144378 On ch=1 n=c5 v=0
144398 On ch=1 n=d5 v=0
144422 On ch=1 n=c6 v=0
144424 On ch=1 n=e4 v=0
144458 On ch=1 n=a4 v=79
144486 On ch=1 n=b4 v=0
144542 On ch=1 n=a4 v=0
144594 Par ch=1 c=64 v=63
144602 Par ch=1 c=64 v=0
144672 On ch=1 n=c4 v=118
144676 On ch=1 n=a6 v=118
144682 On ch=1 n=e6 v=108
144704 Par ch=1 c=64 v=63
144718 Par ch=1 c=64 v=127
144752 On ch=1 n=c4 v=0
144758 On ch=1 n=e6 v=0
144778 On ch=1 n=a6 v=0
144848 On ch=1 n=c5 v=82
144938 On ch=1 n=c5 v=0
144982 On ch=1 n=e5 v=97
145104 On ch=1 n=e5 v=0
145104 On ch=1 n=b4 v=88
145106 On ch=1 n=g6 v=104
145110 On ch=1 n=d6 v=100
145156 On ch=1 n=b4 v=0
145174 Par ch=1 c=64 v=63
145182 On ch=1 n=g6 v=0
145182 Par ch=1 c=64 v=0
145188 On ch=1 n=d6 v=0
145252 On ch=1 n=a3 v=109
145254 On ch=1 n=f6 v=121
145258 On ch=1 n=c6 v=116
145274 Par ch=1 c=64 v=63
145292 Par ch=1 c=64 v=127
145320 On ch=1 n=a3 v=0
145324 On ch=1 n=c6 v=0
145356 On ch=1 n=f6 v=0
145396 On ch=1 n=a4 v=96
145508 On ch=1 n=a4 v=0
145542 On ch=1 n=c5 v=93
145662 On ch=1 n=g4 v=92
145670 On ch=1 n=e6 v=106
145672 On ch=1 n=c5 v=0
145672 On ch=1 n=b5 v=99
145728 On ch=1 n=g4 v=0
145744 Par ch=1 c=64 v=63
145748 On ch=1 n=b5 v=0
145748 On ch=1 n=e6 v=0
145760 Par ch=1 c=64 v=0
145816 Par ch=1 c=64 v=63
145818 On ch=1 n=f3 v=118
145820 On ch=1 n=d6 v=120
145826 On ch=1 n=a5 v=114
145850 Par ch=1 c=64 v=127
145900 On ch=1 n=f3 v=0
145916 On ch=1 n=a5 v=0
145946 On ch=1 n=d6 v=0
145974 On ch=1 n=f4 v=101
146096 On ch=1 n=f4 v=0
146100 On ch=1 n=a4 v=88
146226 On ch=1 n=e4 v=100
146234 On ch=1 n=a4 v=0
146242 On ch=1 n=c6 v=107
146242 On ch=1 n=g5 v=99
146286 On ch=1 n=e4 v=0
146312 Par ch=1 c=64 v=63
146314 On ch=1 n=g5 v=0
146316 On ch=1 n=c6 v=0
146330 Par ch=1 c=64 v=0
146370 Par ch=1 c=64 v=63
146390 On ch=1 n=b5 v=120
146390 On ch=1 n=d3 v=112
146400 On ch=1 n=f5 v=116
146414 Par ch=1 c=64 v=127
146462 On ch=1 n=d3 v=0
146484 On ch=1 n=f5 v=0
146510 On ch=1 n=b5 v=0
146540 On ch=1 n=d4 v=98
146660 On ch=1 n=f4 v=85
146674 On ch=1 n=d4 v=0
146798 On ch=1 n=c4 v=107
146806 On ch=1 n=a5 v=100
146818 On ch=1 n=e5 v=90
146838 On ch=1 n=f4 v=0
146880 On ch=1 n=e5 v=0
146890 On ch=1 n=a5 v=0
146944 On ch=1 n=b3 v=102
146952 On ch=1 n=g#5 v=112
146954 Par ch=1 c=64 v=63
146960 Par ch=1 c=64 v=0
146982 On ch=1 n=c4 v=0
147008 On ch=1 n=b3 v=0
147082 On ch=1 n=g#5 v=0
147086 On ch=1 n=b5 v=91
147160 On ch=1 n=b5 v=0
147236 On ch=1 n=g#3 v=95
147244 On ch=1 n=e5 v=90
147366 On ch=1 n=d6 v=97
147378 On ch=1 n=e5 v=0
147378 On ch=1 n=g#3 v=0
147470 On ch=1 n=d6 v=0
147516 On ch=1 n=c6 v=103
147518 On ch=1 n=a3 v=106
147536 Par ch=1 c=64 v=63
147540 Par ch=1 c=64 v=127
147628 On ch=1 n=a3 v=0
147634 On ch=1 n=c6 v=0
147640 On ch=1 n=a5 v=90
147656 Par ch=1 c=64 v=63
147662 Par ch=1 c=64 v=0
147768 On ch=1 n=a5 v=0
147798 On ch=1 n=d4 v=94
147798 On ch=1 n=f6 v=104
147804 Par ch=1 c=64 v=63
147806 Par ch=1 c=64 v=127
147908 On ch=1 n=d6 v=103
147926 On ch=1 n=d4 v=0
147938 On ch=1 n=f6 v=0
147966 Par ch=1 c=64 v=63
147968 On ch=1 n=d6 v=0
147970 Par ch=1 c=64 v=0
148066 On ch=1 n=c6 v=114
148070 On ch=1 n=e4 v=104
148070 On ch=1 n=a5 v=106
148070 On ch=1 n=e5 v=111
148072 Par ch=1 c=64 v=63
148080 Par ch=1 c=64 v=127
148130 On ch=1 n=e5 v=0
148130 On ch=1 n=a5 v=0
148150 On ch=1 n=e4 v=0
148162 On ch=1 n=c6 v=0
148278 Par ch=1 c=64 v=63
148282 Par ch=1 c=64 v=0
148386 On ch=1 n=e3 v=102
148388 On ch=1 n=b5 v=101
148394 Par ch=1 c=64 v=63
148400 On ch=1 n=g#5 v=94
148404 On ch=1 n=e5 v=79
148404 Par ch=1 c=64 v=127
148448 On ch=1 n=e3 v=0
148452 On ch=1 n=e5 v=0
148472 On ch=1 n=g#5 v=0
148522 On ch=1 n=b5 v=0
148692 On ch=1 n=a2 v=111
148694 Par ch=1 c=64 v=63
148696 On ch=1 n=a5 v=107
148706 Par ch=1 c=64 v=0
148784 Par ch=1 c=64 v=63
148804 Par ch=1 c=64 v=127
148838 On ch=1 n=c3 v=96
148862 On ch=1 n=a2 v=0
148976 On ch=1 n=a5 v=0
148982 On ch=1 n=e3 v=102
149044 On ch=1 n=c3 v=0
149074 Par ch=1 c=64 v=63
149080 Par ch=1 c=64 v=0
149106 On ch=1 n=a3 v=102
149114 On ch=1 n=e3 v=0
149190 On ch=1 n=a3 v=0
149288 On ch=1 n=c4 v=118
149292 On ch=1 n=e4 v=116
149292 On ch=1 n=e5 v=88
149306 Par ch=1 c=64 v=63
149308 Par ch=1 c=64 v=127
149346 On ch=1 n=e5 v=0
149448 On ch=1 n=e6 v=97
149522 On ch=1 n=e4 v=0
149542 On ch=1 n=e6 v=0
149550 On ch=1 n=c4 v=0
149580 On ch=1 n=a6 v=96
149702 On ch=1 n=g6 v=99
149718 On ch=1 n=a6 v=0
149722 On ch=1 n=b3 v=101
149722 On ch=1 n=d4 v=101
149762 On ch=1 n=g6 v=0
149812 On ch=1 n=d4 v=0
149814 Par ch=1 c=64 v=63
149820 On ch=1 n=b3 v=0
149822 Par ch=1 c=64 v=0
149862 On ch=1 n=a3 v=116
149862 On ch=1 n=c4 v=103
149886 On ch=1 n=c5 v=100
149898 Par ch=1 c=64 v=63
149924 Par ch=1 c=64 v=127
149938 On ch=1 n=c5 v=0
150020 On ch=1 n=c6 v=99
150054 On ch=1 n=c4 v=0
150096 On ch=1 n=a3 v=0
150110 On ch=1 n=c6 v=0
150142 On ch=1 n=f6 v=101
150256 On ch=1 n=e6 v=100
150276 On ch=1 n=f6 v=0
150286 On ch=1 n=g3 v=100
150286 On ch=1 n=b3 v=98
150312 On ch=1 n=e6 v=0
150340 Par ch=1 c=64 v=63
150358 Par ch=1 c=64 v=0
150380 On ch=1 n=b3 v=0
150384 On ch=1 n=g3 v=0
150414 On ch=1 n=a3 v=106
150416 On ch=1 n=f3 v=104
150430 Par ch=1 c=64 v=63
150432 On ch=1 n=a4 v=98
150458 Par ch=1 c=64 v=127
150500 On ch=1 n=a4 v=0
150562 On ch=1 n=a5 v=98
150614 On ch=1 n=a3 v=0
150642 On ch=1 n=a5 v=0
150644 On ch=1 n=f3 v=0
150700 On ch=1 n=d6 v=85
150810 On ch=1 n=c6 v=100
150826 On ch=1 n=e3 v=90
150830 On ch=1 n=d6 v=0
150840 On ch=1 n=g3 v=71
150864 Par ch=1 c=64 v=63
150870 On ch=1 n=c6 v=0
150882 Par ch=1 c=64 v=0
150924 On ch=1 n=g3 v=0
150942 On ch=1 n=e3 v=0
150974 Par ch=1 c=64 v=63
150976 On ch=1 n=f3 v=108
150984 On ch=1 n=d3 v=101
150984 On ch=1 n=f4 v=100
150996 Par ch=1 c=64 v=127
151062 On ch=1 n=f4 v=0
151116 On ch=1 n=f5 v=107
151126 On ch=1 n=f3 v=0
151168 On ch=1 n=d3 v=0
151204 On ch=1 n=f5 v=0
151246 On ch=1 n=b5 v=103
151370 On ch=1 n=e3 v=85
151374 On ch=1 n=a5 v=103
151380 On ch=1 n=c3 v=78
151422 On ch=1 n=b5 v=0
151462 Par ch=1 c=64 v=63
151474 On ch=1 n=e3 v=0
151474 Par ch=1 c=64 v=0
151480 On ch=1 n=c3 v=0
151490 On ch=1 n=a5 v=0
151520 On ch=1 n=b2 v=109
151522 On ch=1 n=d3 v=109
151532 On ch=1 n=g#5 v=112
151598 On ch=1 n=d3 v=0
151610 On ch=1 n=b2 v=0
151624 On ch=1 n=g#5 v=0
151674 On ch=1 n=b5 v=84
151760 On ch=1 n=b5 v=0
151832 On ch=1 n=g#3 v=99
151838 On ch=1 n=e4 v=98
151842 On ch=1 n=e5 v=91
151948 On ch=1 n=e5 v=0
151974 On ch=1 n=d6 v=88
152036 On ch=1 n=g#3 v=0
152126 On ch=1 n=a3 v=102
152128 On ch=1 n=c6 v=101
152172 On ch=1 n=d6 v=0
152182 Par ch=1 c=64 v=63
152186 Par ch=1 c=64 v=127
152254 On ch=1 n=a3 v=0
152256 On ch=1 n=a5 v=104
152288 On ch=1 n=c6 v=0
152346 On ch=1 n=e4 v=0
152366 On ch=1 n=a5 v=0
152398 On ch=1 n=f6 v=114
152402 On ch=1 n=d4 v=112
152406 Par ch=1 c=64 v=63
152470 Par ch=1 c=64 v=127
152516 On ch=1 n=d6 v=106
152564 On ch=1 n=f6 v=0
152586 On ch=1 n=d6 v=0
152640 On ch=1 n=d4 v=0
152646 Par ch=1 c=64 v=63
152660 Par ch=1 c=64 v=0
152672 On ch=1 n=c6 v=113
152674 On ch=1 n=e4 v=93
152680 On ch=1 n=a5 v=101
152682 On ch=1 n=e5 v=108
152734 Par ch=1 c=64 v=63
152756 Par ch=1 c=64 v=127
152820 On ch=1 n=d#4 v=106
152852 On ch=1 n=e4 v=0
152920 On ch=1 n=d#4 v=0
152924 On ch=1 n=a5 v=0
152958 On ch=1 n=e4 v=85
152982 On ch=1 n=b5 v=90
152992 On ch=1 n=g#5 v=78
153028 On ch=1 n=c6 v=0
153042 On ch=1 n=e4 v=0
153084 Par ch=1 c=64 v=63
153092 Par ch=1 c=64 v=0
153116 On ch=1 n=e3 v=69
153124 On ch=1 n=b5 v=0
153160 On ch=1 n=g#5 v=0
153202 On ch=1 n=e5 v=0
153314 On ch=1 n=e3 v=0
153362 Par ch=1 c=64 v=127
153382 On ch=1 n=c#6 v=109
153562 On ch=1 n=g5 v=84
153564 On ch=1 n=a#4 v=76
153622 On ch=1 n=c#6 v=0
153706 On ch=1 n=a4 v=84
153716 On ch=1 n=a5 v=91
153718 On ch=1 n=a#4 v=0
153762 On ch=1 n=g5 v=0
153828 On ch=1 n=a#5 v=98
153830 On ch=1 n=g4 v=85
153848 On ch=1 n=a4 v=0
153862 On ch=1 n=a5 v=0
153896 On ch=1 n=a#5 v=0
153962 On ch=1 n=f4 v=102
153978 On ch=1 n=d6 v=111
153982 On ch=1 n=g4 v=0
153984 On ch=1 n=a5 v=98
154008 Par ch=1 c=64 v=63
154018 Par ch=1 c=64 v=0
154078 On ch=1 n=e4 v=92
154110 On ch=1 n=e6 v=106
154122 On ch=1 n=f4 v=0
154158 On ch=1 n=d6 v=0
154214 On ch=1 n=d4 v=101
154228 On ch=1 n=f6 v=103
154258 On ch=1 n=e4 v=0
154294 On ch=1 n=e6 v=0
154346 On ch=1 n=f4 v=104
154356 On ch=1 n=d6 v=106
154390 On ch=1 n=d4 v=0
154402 On ch=1 n=f6 v=0
154416 On ch=1 n=a5 v=0
154436 On ch=1 n=f4 v=0
154450 On ch=1 n=d6 v=0
154516 Par ch=1 c=64 v=127
154520 On ch=1 n=d#6 v=120
154666 On ch=1 n=a5 v=80
154678 On ch=1 n=c5 v=88
154694 On ch=1 n=d#6 v=0
154810 On ch=1 n=b4 v=79
154812 On ch=1 n=b5 v=101
154834 On ch=1 n=c5 v=0
154846 On ch=1 n=a5 v=0
154930 On ch=1 n=a4 v=90
154940 On ch=1 n=c6 v=99
154966 On ch=1 n=b5 v=0
154968 On ch=1 n=b4 v=0
154996 On ch=1 n=c6 v=0
154998 On ch=1 n=a4 v=0
155068 On ch=1 n=e6 v=108
155078 On ch=1 n=b5 v=94
155086 On ch=1 n=g#4 v=99
155184 Par ch=1 c=64 v=63
155192 Par ch=1 c=64 v=0
155198 On ch=1 n=f#4 v=105
155200 On ch=1 n=f#6 v=108
155224 On ch=1 n=g#4 v=0
155250 On ch=1 n=e6 v=0
155344 On ch=1 n=f#4 v=0
155348 On ch=1 n=g#6 v=108
155356 On ch=1 n=e4 v=85
155412 On ch=1 n=f#6 v=0
155434 On ch=1 n=b5 v=0
155458 On ch=1 n=e6 v=100
155476 On ch=1 n=g#4 v=99
155520 On ch=1 n=g#6 v=0
155544 On ch=1 n=e4 v=0
155592 On ch=1 n=g#4 v=0
155592 On ch=1 n=e6 v=0
155626 On ch=1 n=g#6 v=120
155632 Par ch=1 c=64 v=127
155772 On ch=1 n=f5 v=87
155784 On ch=1 n=d6 v=90
155862 On ch=1 n=g#6 v=0
155908 On ch=1 n=d6 v=0
155926 On ch=1 n=e6 v=101
155928 On ch=1 n=e5 v=91
155936 On ch=1 n=f5 v=0
156032 On ch=1 n=d5 v=106
156044 On ch=1 n=f6 v=109
156074 On ch=1 n=e5 v=0
156098 On ch=1 n=e6 v=0
156150 On ch=1 n=f6 v=0
156176 On ch=1 n=c5 v=99
156194 On ch=1 n=a6 v=116
156198 On ch=1 n=e6 v=113
156224 On ch=1 n=d5 v=0
156236 Par ch=1 c=64 v=63
156260 On ch=1 n=e6 v=0
156262 Par ch=1 c=64 v=0
156274 On ch=1 n=c5 v=0
156282 On ch=1 n=a6 v=0
156310 On ch=1 n=e6 v=115
156460 On ch=1 n=f6 v=110
156470 On ch=1 n=d5 v=105
156498 On ch=1 n=e6 v=0
156570 On ch=1 n=d5 v=0
156590 On ch=1 n=d6 v=100
156634 On ch=1 n=f6 v=0
156724 On ch=1 n=d6 v=0
156748 On ch=1 n=c6 v=104
156750 On ch=1 n=e5 v=89
156862 On ch=1 n=a5 v=97
156878 On ch=1 n=e5 v=0
156938 On ch=1 n=c6 v=0
157026 On ch=1 n=e4 v=108
157032 On ch=1 n=e6 v=96
157082 On ch=1 n=a5 v=0
157132 On ch=1 n=e4 v=0
157162 On ch=1 n=g#5 v=107
157186 On ch=1 n=e6 v=0
157288 On ch=1 n=g#5 v=0
157566 On ch=1 n=c7 v=78
157712 On ch=1 n=e6 v=70
157854 On ch=1 n=e6 v=0
157866 On ch=1 n=a6 v=42
157964 On ch=1 n=c7 v=0
157986 On ch=1 n=b6 v=68
157998 On ch=1 n=a6 v=0
158016 On ch=1 n=g6 v=55
158062 On ch=1 n=g6 v=0
158080 On ch=1 n=b6 v=0
158134 On ch=1 n=a6 v=77
158244 On ch=1 n=c6 v=68
158404 On ch=1 n=c6 v=0
158408 On ch=1 n=f6 v=69
158418 On ch=1 n=a6 v=0
158522 On ch=1 n=g6 v=74
158526 On ch=1 n=f6 v=0
158526 On ch=1 n=e6 v=64
158588 On ch=1 n=e6 v=0
158628 On ch=1 n=g6 v=0
158672 On ch=1 n=f6 v=84
158788 On ch=1 n=a5 v=64
158934 On ch=1 n=d6 v=63
158942 On ch=1 n=a5 v=0
158954 On ch=1 n=f6 v=0
159064 On ch=1 n=e6 v=77
159066 On ch=1 n=c6 v=76
159070 On ch=1 n=d6 v=0
159132 On ch=1 n=c6 v=0
159192 On ch=1 n=e6 v=0
159216 On ch=1 n=d6 v=77
159332 On ch=1 n=f5 v=65
159472 On ch=1 n=b5 v=68
159482 On ch=1 n=f5 v=0
159576 On ch=1 n=d6 v=0
159594 On ch=1 n=b5 v=0
159604 On ch=1 n=c6 v=69
159606 On ch=1 n=a5 v=78
159674 On ch=1 n=a5 v=0
159696 On ch=1 n=c6 v=0
159740 On ch=1 n=b5 v=86
159810 On ch=1 n=b5 v=0
160022 On ch=1 n=f6 v=109
160024 On ch=1 n=b5 v=108
160030 On ch=1 n=f5 v=86
160040 On ch=1 n=b4 v=114
160042 On ch=1 n=d4 v=114
160044 On ch=1 n=f4 v=108
160062 On ch=1 n=f5 v=0
160072 On ch=1 n=b5 v=0
160074 On ch=1 n=f4 v=0
160082 On ch=1 n=f6 v=0
160086 On ch=1 n=b4 v=0
160096 On ch=1 n=d4 v=0
160316 On ch=1 n=e6 v=120
160318 On ch=1 n=e4 v=122
160320 On ch=1 n=c6 v=116
160320 On ch=1 n=c5 v=124
160322 On ch=1 n=a5 v=103
160324 On ch=1 n=a4 v=114
160360 On ch=1 n=a5 v=0
160360 On ch=1 n=c5 v=0
160364 On ch=1 n=c6 v=0
160370 On ch=1 n=a4 v=0
160374 On ch=1 n=e6 v=0
160386 On ch=1 n=e4 v=0
160604 On ch=1 n=e3 v=101
160606 On ch=1 n=e5 v=106
160608 On ch=1 n=g#5 v=112
160610 On ch=1 n=e4 v=120
160612 On ch=1 n=b4 v=104
160624 Par ch=1 c=64 v=63
160630 Par ch=1 c=64 v=127
160664 On ch=1 n=b4 v=0
160672 On ch=1 n=e5 v=0
160688 On ch=1 n=g#5 v=0
160690 On ch=1 n=e4 v=0
160692 On ch=1 n=e3 v=0
160760 Par ch=1 c=64 v=63
160776 Par ch=1 c=64 v=0
161038 On ch=1 n=c7 v=97
161108 Par ch=1 c=64 v=63
161136 Par ch=1 c=64 v=127
161212 On ch=1 n=e6 v=74
161332 On ch=1 n=e6 v=0
161364 On ch=1 n=a6 v=72
161382 On ch=1 n=c7 v=0
161470 On ch=1 n=a6 v=0
161490 On ch=1 n=b6 v=90
161500 On ch=1 n=g6 v=68
161538 On ch=1 n=g6 v=0
161572 On ch=1 n=b6 v=0
161614 Par ch=1 c=64 v=63
161628 On ch=1 n=a6 v=82
161646 Par ch=1 c=64 v=0
161760 On ch=1 n=c6 v=63
161802 Par ch=1 c=64 v=63
161868 Par ch=1 c=64 v=127
161896 On ch=1 n=c6 v=0
161910 On ch=1 n=f6 v=59
162012 On ch=1 n=a6 v=0
162036 On ch=1 n=f6 v=0
162036 On ch=1 n=g6 v=68
162036 On ch=1 n=e6 v=65
162104 On ch=1 n=e6 v=0
162154 On ch=1 n=g6 v=0
162174 Par ch=1 c=64 v=63
162184 On ch=1 n=f6 v=80
162196 Par ch=1 c=64 v=0
162294 Par ch=1 c=64 v=63
162294 On ch=1 n=a5 v=50
162344 Par ch=1 c=64 v=127
162444 On ch=1 n=d6 v=63
162450 On ch=1 n=a5 v=0
162476 On ch=1 n=f6 v=0
162578 On ch=1 n=e6 v=74
162592 On ch=1 n=c6 v=58
162594 On ch=1 n=d6 v=0
162640 On ch=1 n=c6 v=0
162700 On ch=1 n=e6 v=0
162704 Par ch=1 c=64 v=63
162710 On ch=1 n=d6 v=74
162728 Par ch=1 c=64 v=0
162832 On ch=1 n=f5 v=58
162876 Par ch=1 c=64 v=63
162954 Par ch=1 c=64 v=127
162982 On ch=1 n=f5 v=0
162984 On ch=1 n=b5 v=37
163092 On ch=1 n=d6 v=0
163104 On ch=1 n=c6 v=71
163114 On ch=1 n=b5 v=0
163124 On ch=1 n=a5 v=67
163206 On ch=1 n=a5 v=0
163208 On ch=1 n=c6 v=0
163230 Par ch=1 c=64 v=63
163244 On ch=1 n=b5 v=83
163246 Par ch=1 c=64 v=0
163298 On ch=1 n=b5 v=0
163540 On ch=1 n=f6 v=92
163548 On ch=1 n=b5 v=84
163556 On ch=1 n=d4 v=65
163556 On ch=1 n=b4 v=62
163560 On ch=1 n=f5 v=41
163582 On ch=1 n=b5 v=0
163596 On ch=1 n=d4 v=0
163602 On ch=1 n=f5 v=0
163604 On ch=1 n=f6 v=0
163614 On ch=1 n=b4 v=0
163832 On ch=1 n=e6 v=92
163834 On ch=1 n=c5 v=84
163836 On ch=1 n=c6 v=83
163840 On ch=1 n=a5 v=71
163844 On ch=1 n=e4 v=43
163844 On ch=1 n=a4 v=51
163864 On ch=1 n=c5 v=0
163870 On ch=1 n=c6 v=0
163878 On ch=1 n=a5 v=0
163882 On ch=1 n=e6 v=0
163886 On ch=1 n=e4 v=0
163888 On ch=1 n=a4 v=0
164112 On ch=1 n=g#5 v=95
164116 On ch=1 n=e3 v=86
164122 On ch=1 n=b4 v=78
164132 On ch=1 n=e4 v=71
164134 On ch=1 n=e5 v=57
164154 On ch=1 n=b4 v=0
164160 On ch=1 n=e3 v=0
164164 On ch=1 n=e4 v=0
164172 On ch=1 n=e5 v=0
164178 On ch=1 n=g#5 v=0
164406 On ch=1 n=a4 v=94
164406 On ch=1 n=a3 v=91
164422 On ch=1 n=a5 v=76
164434 Par ch=1 c=64 v=63
164458 On ch=1 n=a4 v=0
164460 On ch=1 n=a3 v=0
164460 Par ch=1 c=64 v=127
164500 On ch=1 n=a5 v=0
164568 On ch=1 n=e5 v=65
164612 On ch=1 n=e5 v=0
164714 On ch=1 n=c6 v=84
164818 On ch=1 n=a5 v=76
164898 On ch=1 n=c6 v=0
164964 On ch=1 n=a5 v=0
164970 Par ch=1 c=64 v=63
164978 On ch=1 n=e6 v=96
164984 Par ch=1 c=64 v=0
165124 On ch=1 n=c6 v=92
165134 On ch=1 n=e6 v=0
165264 On ch=1 n=b5 v=86
165318 On ch=1 n=c6 v=0
165386 On ch=1 n=g#5 v=90
165396 On ch=1 n=b5 v=0
165456 On ch=1 n=g#5 v=0
165526 On ch=1 n=a5 v=85
165548 On ch=1 n=a3 v=58
165594 On ch=1 n=a5 v=0
165604 Par ch=1 c=64 v=63
165606 On ch=1 n=a3 v=0
165644 On ch=1 n=e3 v=71
165650 On ch=1 n=e6 v=93
165652 Par ch=1 c=64 v=127
165674 On ch=1 n=e5 v=42
165714 On ch=1 n=e6 v=0
165716 On ch=1 n=e5 v=0
165738 On ch=1 n=e3 v=0
165802 On ch=1 n=c4 v=64
165802 On ch=1 n=e5 v=97
165804 On ch=1 n=e6 v=98
165858 On ch=1 n=e5 v=0
165864 On ch=1 n=e6 v=0
165878 On ch=1 n=c4 v=0
165918 On ch=1 n=a3 v=83
165928 On ch=1 n=e6 v=103
165934 On ch=1 n=e5 v=94
165982 On ch=1 n=e5 v=0
166000 On ch=1 n=e6 v=0
166000 On ch=1 n=a3 v=0
166066 On ch=1 n=e4 v=92
166070 On ch=1 n=e5 v=107
166070 On ch=1 n=e6 v=109
166126 On ch=1 n=e5 v=0
166136 On ch=1 n=e6 v=0
166172 On ch=1 n=e4 v=0
166198 On ch=1 n=e6 v=108
166200 On ch=1 n=e5 v=109
166206 On ch=1 n=c4 v=104
166258 On ch=1 n=e5 v=0
166274 On ch=1 n=e6 v=0
166326 On ch=1 n=c4 v=0
166336 On ch=1 n=b3 v=104
166346 On ch=1 n=e6 v=112
166346 On ch=1 n=e5 v=111
166400 On ch=1 n=e5 v=0
166414 On ch=1 n=b3 v=0
166416 On ch=1 n=e6 v=0
166468 On ch=1 n=e6 v=99
166472 On ch=1 n=e5 v=104
166472 On ch=1 n=g#3 v=109
166538 On ch=1 n=e5 v=0
166544 On ch=1 n=g#3 v=0
166552 On ch=1 n=e6 v=0
166592 Par ch=1 c=64 v=63
166612 Par ch=1 c=64 v=0
166616 On ch=1 n=e6 v=109
166620 On ch=1 n=a3 v=117
166622 On ch=1 n=e5 v=107
166660 On ch=1 n=e5 v=0
166694 On ch=1 n=a3 v=0
166698 On ch=1 n=e6 v=0
166760 On ch=1 n=e4 v=114
166760 On ch=1 n=e3 v=114
166818 On ch=1 n=e4 v=0
166830 On ch=1 n=e3 v=0
166904 On ch=1 n=e4 v=117
166906 On ch=1 n=e6 v=121
166906 On ch=1 n=a6 v=107
166906 On ch=1 n=e3 v=117
166908 On ch=1 n=c6 v=116
166942 Par ch=1 c=64 v=63
166944 Par ch=1 c=64 v=127
166954 On ch=1 n=c6 v=0
166958 On ch=1 n=e6 v=0
166964 On ch=1 n=e4 v=0
166970 On ch=1 n=e3 v=0
166986 On ch=1 n=a6 v=0
167034 On ch=1 n=e4 v=117
167036 On ch=1 n=e3 v=113
167132 On ch=1 n=e4 v=0
167136 On ch=1 n=e3 v=0
167186 On ch=1 n=c7 v=122
167188 On ch=1 n=a6 v=120
167190 On ch=1 n=e4 v=118
167192 On ch=1 n=e3 v=114
167192 On ch=1 n=e6 v=121
167260 On ch=1 n=e4 v=0
167260 On ch=1 n=a6 v=0
167272 On ch=1 n=e6 v=0
167280 On ch=1 n=e3 v=0
167282 On ch=1 n=c7 v=0
167322 On ch=1 n=e3 v=106
167324 On ch=1 n=e4 v=114
167394 On ch=1 n=e4 v=0
167412 On ch=1 n=e3 v=0
167478 On ch=1 n=e4 v=121
167478 On ch=1 n=b6 v=120
167480 On ch=1 n=e3 v=118
167482 On ch=1 n=g#6 v=121
167482 On ch=1 n=e6 v=121
167534 On ch=1 n=e6 v=0
167540 On ch=1 n=e4 v=0
167564 On ch=1 n=g#6 v=0
167566 On ch=1 n=b6 v=0
167606 On ch=1 n=e4 v=103
167704 On ch=1 n=e4 v=0
167744 On ch=1 n=e3 v=0
167770 Par ch=1 c=64 v=63
167778 Par ch=1 c=64 v=0
167782 On ch=1 n=a3 v=125
167786 On ch=1 n=a6 v=122
167816 Par ch=1 c=64 v=63
167834 Par ch=1 c=64 v=127
167854 On ch=1 n=a6 v=0
167866 On ch=1 n=a3 v=0
168138 Par ch=1 c=64 v=63
168142 Par ch=1 c=64 v=0
168144 On ch=1 n=a3 v=120
168148 On ch=1 n=a2 v=124
168148 On ch=1 n=c5 v=126
168150 On ch=1 n=e5 v=126
168150 On ch=1 n=a5 v=125
168192 On ch=1 n=c5 v=0
168194 On ch=1 n=e5 v=0
168198 On ch=1 n=a5 v=0
168296 On ch=1 n=a2 v=0
168312 On ch=1 n=a3 v=0
168556 On ch=1 n=a2 v=118
168558 On ch=1 n=e5 v=125
168558 On ch=1 n=a5 v=124
168558 On ch=1 n=c5 v=124
168558 On ch=1 n=a3 v=121
168582 Par ch=1 c=64 v=63
168584 Par ch=1 c=64 v=127
168604 On ch=1 n=c5 v=0
168606 On ch=1 n=e5 v=0
168620 On ch=1 n=a3 v=0
168622 On ch=1 n=a2 v=0
168626 On ch=1 n=a5 v=0
168746 Par ch=1 c=64 v=63
168758 Par ch=1 c=64 v=0
170018 Par ch=1 c=64 v=63
170198 Par ch=1 c=64 v=127
170380 Par ch=1 c=64 v=63
170386 Par ch=1 c=64 v=0
170386 Meta TrkEnd
TrkEnd
MTrk
0 SeqSpec 43 00 01 00
0 Meta TrkName "                                    "
0 TimeSig 2/4 24 8
0 Meta TrkEnd
TrkEnd
MTrk
0 SeqSpec 43 00 01 00
0 Meta TrkName "                                    "
0 TimeSig 2/4 24 8
0 Meta TrkEnd
TrkEnd
MTrk
0 SeqSpec 43 00 01 00
0 Meta TrkName "                                    "
0 TimeSig 2/4 24 8
0 Meta TrkEnd
TrkEnd
MTrk
0 SeqSpec 43 00 01 00
0 Meta TrkName "                                    "
0 TimeSig 2/4 24 8
0 Meta TrkEnd
TrkEnd
MTrk
0 SeqSpec 43 00 01 00
0 Meta TrkName "                                    "
0 TimeSig 2/4 24 8
0 Meta TrkEnd
TrkEnd
MTrk
0 SeqSpec 43 00 01 00
0 Meta TrkName "                                    "
0 TimeSig 2/4 24 8
0 Meta TrkEnd
TrkEnd
MTrk
0 SeqSpec 43 00 01 00
0 Meta TrkName "                                    "
0 TimeSig 2/4 24 8
0 Meta TrkEnd
TrkEnd
MTrk
0 SeqSpec 43 00 01 00
0 Meta TrkName "                                    "
0 TimeSig 2/4 24 8
0 Meta TrkEnd
TrkEnd
MTrk
0 SeqSpec 43 00 01 00
0 Meta TrkName "                                    "
0 TimeSig 2/4 24 8
0 Meta TrkEnd
TrkEnd
MTrk
0 SeqSpec 43 00 01 00
0 Meta TrkName "                                    "
0 TimeSig 2/4 24 8
0 Meta TrkEnd
TrkEnd
MTrk
0 SeqSpec 43 00 01 00
0 Meta TrkName "                                    "
0 TimeSig 2/4 24 8
0 Meta TrkEnd
TrkEnd
MTrk
0 SeqSpec 43 00 01 00
0 Meta TrkName "                                    "
0 TimeSig 2/4 24 8
0 Meta TrkEnd
TrkEnd
MTrk
0 SeqSpec 43 00 01 00
0 Meta TrkName "                                    "
0 TimeSig 2/4 24 8
0 Meta TrkEnd
TrkEnd
MTrk
0 SeqSpec 43 00 01 00
0 Meta TrkName "                                    "
0 TimeSig 2/4 24 8
0 Meta TrkEnd
TrkEnd
MTrk
0 SeqSpec 43 00 01 00
0 Meta TrkName "                                    "
0 TimeSig 2/4 24 8
0 Meta TrkEnd
TrkEnd
MTrk
0 SeqSpec 43 00 01 00
0 Meta TrkName "                                    "
0 TimeSig 2/4 24 8
0 Meta TrkEnd
TrkEnd
