MFile 1 18 480
MTrk
0 Tempo 500000
0 TimeSig 2/4 24 8
0 Meta TrkEnd
TrkEnd
MTrk
0 SeqSpec 43 00 01 00
0 Meta TrkName "PIANO                               "
0 TimeSig 2/4 24 8
0 SysEx f0 41 10 42 12 40 00 7f 00 41 f7
0 SysEx f0 41 10 42 12 40 00 04 64 58 f7
340 SysEx f0 41 10 42 12 40 01 30 03 0c f7
340 SysEx f0 41 10 42 12 40 01 33 50 3c f7
340 SysEx f0 41 10 42 12 40 01 34 3c 4f f7
744 Par ch=1 c=0 v=0
748 Par ch=1 c=32 v=1
752 PrCh ch=1 p=0
756 Par ch=1 c=7 v=100
948 Par ch=1 c=11 v=100
1140 Par ch=1 c=10 v=64
1332 Par ch=1 c=1 v=0
1332 Par ch=1 c=91 v=80
1350 Par ch=1 c=99 v=1
1354 Par ch=1 c=98 v=32
1358 Par ch=1 c=6 v=62
1362 Par ch=1 c=99 v=1
1366 Par ch=1 c=98 v=33
1370 Par ch=1 c=6 v=54
1374 Par ch=1 c=99 v=1
1378 Par ch=1 c=98 v=99
1382 Par ch=1 c=6 v=62
1386 Par ch=1 c=99 v=1
1390 Par ch=1 c=98 v=100
1394 Par ch=1 c=6 v=60
1398 Par ch=1 c=99 v=1
1402 Par ch=1 c=98 v=102
1406 Par ch=1 c=6 v=70
2454 On ch=1 n=g6 v=107
2478 On ch=1 n=e5 v=73
2516 On ch=1 n=g6 v=0
2674 On ch=1 n=c5 v=76
2704 On ch=1 n=e5 v=0
2878 On ch=1 n=g6 v=118
2898 On ch=1 n=e5 v=76
2914 On ch=1 n=c5 v=0
2916 Par ch=1 c=64 v=63
2920 Par ch=1 c=64 v=127
3098 On ch=1 n=c5 v=62
3102 On ch=1 n=e5 v=0
3156 On ch=1 n=g6 v=0
3300 On ch=1 n=c5 v=0
3312 On ch=1 n=e5 v=77
3514 On ch=1 n=e5 v=0
3528 On ch=1 n=f6 v=90
3544 On ch=1 n=c5 v=65
3618 On ch=1 n=e6 v=91
3638 On ch=1 n=f6 v=0
3652 On ch=1 n=e6 v=0
3708 On ch=1 n=c5 v=0
3712 On ch=1 n=e6 v=97
3720 On ch=1 n=f5 v=79
3764 Par ch=1 c=64 v=63
3806 On ch=1 n=d6 v=87
3822 On ch=1 n=e6 v=0
3896 On ch=1 n=c6 v=89
3900 Par ch=1 c=64 v=127
3912 On ch=1 n=d6 v=0
3932 On ch=1 n=f5 v=0
3934 On ch=1 n=c5 v=68
3986 On ch=1 n=c6 v=0
3988 Par ch=1 c=64 v=63
4012 Par ch=1 c=64 v=0
4016 On ch=1 n=b5 v=80
4066 On ch=1 n=b5 v=0
4108 On ch=1 n=c6 v=91
4120 Par ch=1 c=64 v=63
4144 On ch=1 n=c5 v=0
4144 Par ch=1 c=64 v=127
4150 On ch=1 n=e5 v=63
4214 On ch=1 n=c6 v=0
4232 On ch=1 n=d6 v=84
4276 On ch=1 n=d6 v=0
4304 On ch=1 n=c6 v=82
4350 On ch=1 n=c5 v=64
4352 On ch=1 n=e5 v=0
4378 On ch=1 n=c6 v=0
4382 On ch=1 n=d6 v=84
4438 On ch=1 n=d6 v=0
4470 On ch=1 n=c6 v=83
4526 On ch=1 n=c6 v=0
4534 On ch=1 n=d6 v=67
4548 On ch=1 n=e5 v=67
4558 On ch=1 n=c5 v=0
4576 On ch=1 n=d6 v=0
4604 On ch=1 n=c6 v=81
4664 On ch=1 n=d6 v=76
4670 On ch=1 n=c6 v=0
4714 On ch=1 n=d6 v=0
4730 On ch=1 n=c6 v=84
4770 On ch=1 n=c5 v=63
4774 On ch=1 n=d6 v=88
4778 On ch=1 n=e5 v=0
4792 On ch=1 n=c6 v=0
4848 On ch=1 n=e6 v=100
4864 Par ch=1 c=64 v=63
4866 On ch=1 n=d6 v=0
4886 Par ch=1 c=64 v=0
4948 On ch=1 n=e6 v=0
4954 On ch=1 n=g5 v=99
4964 Par ch=1 c=64 v=63
4994 On ch=1 n=e5 v=74
5000 On ch=1 n=c5 v=0
5000 Par ch=1 c=64 v=127
5198 On ch=1 n=c5 v=76
5206 On ch=1 n=e5 v=0
5316 On ch=1 n=g5 v=0
5404 Par ch=1 c=64 v=63
5412 On ch=1 n=e5 v=78
5416 On ch=1 n=c5 v=0
5430 Par ch=1 c=64 v=0
5606 On ch=1 n=c5 v=66
5626 On ch=1 n=e5 v=0
5808 On ch=1 n=c5 v=0
5828 On ch=1 n=e5 v=63
5830 On ch=1 n=g6 v=94
5868 On ch=1 n=g6 v=0
6032 On ch=1 n=g6 v=108
6044 On ch=1 n=c5 v=70
6066 On ch=1 n=e5 v=0
6092 On ch=1 n=g6 v=0
6262 On ch=1 n=g6 v=118
6274 On ch=1 n=e5 v=72
6276 Par ch=1 c=64 v=63
6280 On ch=1 n=c5 v=0
6280 Par ch=1 c=64 v=127
6342 On ch=1 n=g6 v=0
6488 On ch=1 n=c5 v=71
6496 On ch=1 n=e5 v=0
6676 On ch=1 n=c5 v=0
6686 On ch=1 n=e5 v=84
6902 On ch=1 n=f6 v=91
6906 On ch=1 n=e5 v=0
6908 On ch=1 n=c5 v=71
6982 On ch=1 n=e6 v=85
7006 On ch=1 n=f6 v=0
7018 On ch=1 n=e6 v=0
7070 On ch=1 n=c5 v=0
7076 On ch=1 n=e6 v=92
7082 On ch=1 n=f5 v=82
7110 Par ch=1 c=64 v=63
7128 Par ch=1 c=64 v=0
7182 On ch=1 n=d6 v=83
7198 On ch=1 n=e6 v=0
7272 On ch=1 n=c6 v=93
7286 On ch=1 n=c5 v=69
7292 On ch=1 n=f5 v=0
7300 On ch=1 n=d6 v=0
7366 On ch=1 n=c6 v=0
7394 On ch=1 n=b5 v=86
7484 On ch=1 n=b5 v=0
7484 On ch=1 n=c6 v=97
7488 Par ch=1 c=64 v=63
7492 On ch=1 n=c5 v=0
7496 On ch=1 n=e5 v=68
7496 Par ch=1 c=64 v=127
7590 On ch=1 n=d6 v=88
7596 On ch=1 n=c6 v=0
7646 On ch=1 n=d6 v=0
7664 On ch=1 n=c6 v=75
7690 On ch=1 n=e5 v=0
7694 On ch=1 n=c5 v=57
7734 On ch=1 n=d6 v=90
7740 On ch=1 n=c6 v=0
7796 On ch=1 n=d6 v=0
7832 On ch=1 n=c6 v=86
7856 On ch=1 n=e5 v=70
7858 On ch=1 n=c5 v=0
7876 On ch=1 n=d6 v=85
7888 On ch=1 n=c6 v=0
7934 On ch=1 n=d6 v=0
7982 On ch=1 n=c6 v=57
8018 On ch=1 n=d6 v=82
8034 On ch=1 n=c6 v=0
8054 On ch=1 n=c5 v=80
8062 On ch=1 n=e5 v=0
8064 On ch=1 n=d6 v=0
8088 On ch=1 n=c6 v=93
8146 On ch=1 n=d6 v=90
8162 On ch=1 n=c6 v=0
8206 On ch=1 n=e6 v=93
8228 On ch=1 n=d6 v=0
8254 Par ch=1 c=64 v=63
8272 Par ch=1 c=64 v=0
8296 On ch=1 n=g5 v=100
8300 On ch=1 n=e6 v=0
8316 On ch=1 n=e5 v=77
8332 Par ch=1 c=64 v=63
8334 On ch=1 n=c5 v=0
8370 Par ch=1 c=64 v=127
8546 On ch=1 n=c5 v=75
8558 On ch=1 n=e5 v=0
8584 On ch=1 n=g5 v=0
8740 On ch=1 n=c5 v=0
8758 On ch=1 n=e5 v=76
8842 Par ch=1 c=64 v=63
8944 Par ch=1 c=64 v=0
8964 On ch=1 n=e5 v=0
8968 On ch=1 n=c5 v=57
9156 On ch=1 n=a5 v=68
9164 On ch=1 n=c5 v=0
9166 On ch=1 n=f5 v=60
9240 On ch=1 n=a5 v=0
9364 On ch=1 n=f5 v=0
9370 On ch=1 n=c6 v=70
9370 On ch=1 n=c5 v=63
9490 On ch=1 n=c6 v=0
9578 On ch=1 n=f5 v=75
9580 On ch=1 n=c5 v=0
9582 On ch=1 n=f6 v=82
9674 On ch=1 n=f6 v=0
9758 On ch=1 n=c5 v=74
9762 On ch=1 n=f5 v=0
9770 On ch=1 n=a6 v=89
9842 On ch=1 n=a6 v=0
9996 On ch=1 n=c5 v=0
9996 Par ch=1 c=64 v=63
10000 On ch=1 n=c7 v=79
10000 On ch=1 n=f5 v=63
10004 Par ch=1 c=64 v=127
10184 On ch=1 n=c7 v=0
10194 On ch=1 n=f5 v=0
10204 On ch=1 n=c5 v=55
10398 On ch=1 n=c5 v=0
10420 On ch=1 n=f5 v=52
10610 On ch=1 n=f5 v=0
10624 On ch=1 n=c5 v=60
10806 Par ch=1 c=64 v=63
10810 On ch=1 n=c5 v=0
10818 On ch=1 n=g5 v=78
10824 On ch=1 n=e5 v=68
10824 Par ch=1 c=64 v=0
10878 On ch=1 n=g5 v=0
11024 On ch=1 n=c6 v=84
11040 On ch=1 n=c5 v=59
11046 On ch=1 n=e5 v=0
11088 On ch=1 n=c6 v=0
11220 On ch=1 n=c5 v=0
11220 On ch=1 n=e6 v=90
11232 On ch=1 n=e5 v=65
11298 On ch=1 n=e6 v=0
11400 On ch=1 n=g6 v=97
11408 On ch=1 n=c5 v=68
11416 On ch=1 n=e5 v=0
11490 On ch=1 n=g6 v=0
11606 On ch=1 n=c5 v=0
11626 Par ch=1 c=64 v=63
11628 On ch=1 n=c7 v=101
11634 Par ch=1 c=64 v=127
11638 On ch=1 n=e5 v=60
11708 On ch=1 n=c7 v=0
11840 On ch=1 n=c5 v=59
11856 On ch=1 n=e5 v=0
12012 On ch=1 n=c5 v=0
12058 On ch=1 n=e5 v=62
12246 On ch=1 n=c5 v=84
12280 On ch=1 n=e5 v=0
12340 On ch=1 n=c5 v=0
12360 On ch=1 n=g5 v=108
12442 Par ch=1 c=64 v=63
12466 On ch=1 n=e5 v=65
12468 On ch=1 n=c5 v=79
12502 On ch=1 n=g6 v=111
12528 Par ch=1 c=64 v=127
12554 On ch=1 n=g5 v=0
12684 On ch=1 n=g4 v=81
12780 On ch=1 n=c5 v=0
12794 On ch=1 n=e5 v=0
12900 On ch=1 n=c5 v=84
12900 On ch=1 n=e5 v=89
12944 On ch=1 n=g4 v=0
13066 On ch=1 n=g4 v=76
13108 On ch=1 n=e5 v=0
13170 On ch=1 n=c5 v=0
13232 Par ch=1 c=64 v=63
13288 On ch=1 n=b4 v=99
13288 On ch=1 n=d5 v=98
13302 On ch=1 n=g4 v=0
13318 Par ch=1 c=64 v=127
13474 On ch=1 n=g4 v=74
13492 On ch=1 n=b4 v=0
13522 On ch=1 n=d5 v=0
13552 On ch=1 n=g6 v=0
13668 On ch=1 n=b4 v=88
13672 On ch=1 n=f6 v=106
13674 On ch=1 n=g4 v=0
13674 On ch=1 n=d5 v=80
13738 On ch=1 n=g6 v=101
13754 On ch=1 n=f6 v=0
13780 On ch=1 n=g6 v=0
13802 On ch=1 n=f6 v=94
13806 On ch=1 n=b4 v=0
13816 On ch=1 n=d5 v=0
13828 On ch=1 n=g4 v=52
13868 On ch=1 n=e6 v=94
13874 On ch=1 n=f6 v=0
13940 On ch=1 n=f6 v=98
13964 On ch=1 n=e6 v=0
13980 Par ch=1 c=64 v=63
13994 Par ch=1 c=64 v=0
14068 Par ch=1 c=64 v=63
14076 On ch=1 n=f6 v=0
14082 On ch=1 n=g4 v=0
14082 On ch=1 n=c5 v=88
14088 On ch=1 n=d#6 v=107
14094 Par ch=1 c=64 v=127
14282 On ch=1 n=c5 v=0
14290 On ch=1 n=d#6 v=0
14302 On ch=1 n=c4 v=97
14532 On ch=1 n=e4 v=84
14534 On ch=1 n=e6 v=108
14600 On ch=1 n=c4 v=0
14718 On ch=1 n=g4 v=85
14754 On ch=1 n=e4 v=0
14848 On ch=1 n=e6 v=0
14898 On ch=1 n=g4 v=0
14914 On ch=1 n=c5 v=92
15022 On ch=1 n=c5 v=0
15092 On ch=1 n=e5 v=82
15210 On ch=1 n=e5 v=0
15304 On ch=1 n=g5 v=75
15412 Par ch=1 c=64 v=63
15440 Par ch=1 c=64 v=0
15452 On ch=1 n=g5 v=0
15470 On ch=1 n=e5 v=72
15662 Par ch=1 c=64 v=63
15680 On ch=1 n=e5 v=0
15684 Par ch=1 c=64 v=127
15686 On ch=1 n=a5 v=84
15694 On ch=1 n=f5 v=57
15766 On ch=1 n=a5 v=0
15852 On ch=1 n=f5 v=0
15896 On ch=1 n=c5 v=63
15896 On ch=1 n=c6 v=88
15962 On ch=1 n=c6 v=0
15972 On ch=1 n=a5 v=79
16044 On ch=1 n=a5 v=0
16048 On ch=1 n=c5 v=0
16060 On ch=1 n=f6 v=99
16070 Par ch=1 c=64 v=63
16080 On ch=1 n=f5 v=63
16130 On ch=1 n=f6 v=0
16158 On ch=1 n=c6 v=85
16192 Par ch=1 c=64 v=0
16242 On ch=1 n=c6 v=0
16246 On ch=1 n=a6 v=84
16250 On ch=1 n=f5 v=0
16250 On ch=1 n=c5 v=51
16326 On ch=1 n=a6 v=0
16336 On ch=1 n=f6 v=93
16430 On ch=1 n=f6 v=0
16440 On ch=1 n=c5 v=0
16472 On ch=1 n=f5 v=48
16482 On ch=1 n=c7 v=91
16482 Par ch=1 c=64 v=63
16508 Par ch=1 c=64 v=127
16680 On ch=1 n=c7 v=0
16680 On ch=1 n=f5 v=0
16682 On ch=1 n=c5 v=65
16870 On ch=1 n=c5 v=0
16912 On ch=1 n=f5 v=67
17068 On ch=1 n=f5 v=0
17072 On ch=1 n=c5 v=59
17118 Par ch=1 c=64 v=63
17162 Par ch=1 c=64 v=0
17234 On ch=1 n=g5 v=85
17242 On ch=1 n=c5 v=0
17258 On ch=1 n=e5 v=74
17260 Par ch=1 c=64 v=63
17306 Par ch=1 c=64 v=127
17314 On ch=1 n=g5 v=0
17354 On ch=1 n=e5 v=0
17454 On ch=1 n=c6 v=92
17466 On ch=1 n=c5 v=59
17526 On ch=1 n=g5 v=86
17530 On ch=1 n=c6 v=0
17596 On ch=1 n=g5 v=0
17610 On ch=1 n=c5 v=0
17628 On ch=1 n=e6 v=84
17650 On ch=1 n=e5 v=72
17680 On ch=1 n=e6 v=0
17720 On ch=1 n=c6 v=91
17818 On ch=1 n=c6 v=0
17822 On ch=1 n=g6 v=91
17834 On ch=1 n=c5 v=71
17842 On ch=1 n=e5 v=0
17904 On ch=1 n=g6 v=0
17910 On ch=1 n=e6 v=100
18002 On ch=1 n=e6 v=0
18008 On ch=1 n=c5 v=0
18034 Par ch=1 c=64 v=63
18050 On ch=1 n=c7 v=98
18092 Par ch=1 c=64 v=0
18094 On ch=1 n=e5 v=76
18166 Par ch=1 c=64 v=63
18226 Par ch=1 c=64 v=127
18280 On ch=1 n=c5 v=72
18308 On ch=1 n=e5 v=0
18332 On ch=1 n=c7 v=0
18468 On ch=1 n=c5 v=0
18492 On ch=1 n=e5 v=87
18682 On ch=1 n=c5 v=86
18704 On ch=1 n=e5 v=0
18764 On ch=1 n=c5 v=0
18866 On ch=1 n=a6 v=109
18878 On ch=1 n=e5 v=86
18882 Par ch=1 c=64 v=63
18884 On ch=1 n=c5 v=84
18898 Par ch=1 c=64 v=0
19072 On ch=1 n=a6 v=0
19084 On ch=1 n=g4 v=84
19090 On ch=1 n=g6 v=87
19104 On ch=1 n=c5 v=0
19128 On ch=1 n=g6 v=0
19146 On ch=1 n=e5 v=0
19260 On ch=1 n=g4 v=0
19296 On ch=1 n=e5 v=76
19298 On ch=1 n=f6 v=89
19302 On ch=1 n=c5 v=76
19346 On ch=1 n=f6 v=0
19416 On ch=1 n=c5 v=0
19434 On ch=1 n=e5 v=0
19464 On ch=1 n=g4 v=83
19472 On ch=1 n=e6 v=92
19540 On ch=1 n=e6 v=0
19664 On ch=1 n=g4 v=0
19672 On ch=1 n=e6 v=108
19688 On ch=1 n=f5 v=94
19694 On ch=1 n=d5 v=84
19700 Par ch=1 c=64 v=63
19710 Par ch=1 c=64 v=127
19828 On ch=1 n=d5 v=0
19852 On ch=1 n=e6 v=0
19876 On ch=1 n=g4 v=75
19882 On ch=1 n=f5 v=0
19892 On ch=1 n=d6 v=80
19900 Par ch=1 c=64 v=63
19920 Par ch=1 c=64 v=0
19930 On ch=1 n=d6 v=0
20082 On ch=1 n=g4 v=0
20084 On ch=1 n=c6 v=93
20090 On ch=1 n=f5 v=76
20108 On ch=1 n=d5 v=69
20140 On ch=1 n=c6 v=0
20234 On ch=1 n=f5 v=0
20238 On ch=1 n=d5 v=0
20244 On ch=1 n=g4 v=65
20280 On ch=1 n=b5 v=93
20342 On ch=1 n=b5 v=0
20430 On ch=1 n=g4 v=0
20460 On ch=1 n=c6 v=107
20466 On ch=1 n=c5 v=86
20466 On ch=1 n=e5 v=80
20494 Par ch=1 c=64 v=63
20504 Par ch=1 c=64 v=127
20562 On ch=1 n=c6 v=0
20588 On ch=1 n=g5 v=77
20658 On ch=1 n=a5 v=84
20660 On ch=1 n=g5 v=0
20762 On ch=1 n=b5 v=94
20764 On ch=1 n=a5 v=0
20774 On ch=1 n=e5 v=0
20780 On ch=1 n=c5 v=0
20804 On ch=1 n=b5 v=0
20848 On ch=1 n=c6 v=100
20944 Par ch=1 c=64 v=63
20944 On ch=1 n=d6 v=94
20948 On ch=1 n=c6 v=0
21018 Par ch=1 c=64 v=0
21030 On ch=1 n=e6 v=98
21036 On ch=1 n=d6 v=0
21094 On ch=1 n=e6 v=0
21110 On ch=1 n=f6 v=102
21206 On ch=1 n=g6 v=106
21220 On ch=1 n=f6 v=0
21286 On ch=1 n=a6 v=94
21336 On ch=1 n=g6 v=0
21372 On ch=1 n=b6 v=93
21410 On ch=1 n=a6 v=0
21474 On ch=1 n=c7 v=94
21516 On ch=1 n=b6 v=0
21576 On ch=1 n=g6 v=98
21588 On ch=1 n=c7 v=0
21652 On ch=1 n=g6 v=0
21790 On ch=1 n=g6 v=100
21838 On ch=1 n=g6 v=0
21982 On ch=1 n=g4 v=96
21984 On ch=1 n=e5 v=98
22038 On ch=1 n=e5 v=0
22048 On ch=1 n=g4 v=0
22092 On ch=1 n=g6 v=99
22202 On ch=1 n=a6 v=92
22214 On ch=1 n=g6 v=0
22278 On ch=1 n=g6 v=77
22302 On ch=1 n=a6 v=0
22356 On ch=1 n=g6 v=0
22388 On ch=1 n=d5 v=86
22394 On ch=1 n=g4 v=77
22432 On ch=1 n=d5 v=0
22438 On ch=1 n=g4 v=0
22482 On ch=1 n=f6 v=93
22576 On ch=1 n=g6 v=74
22584 On ch=1 n=f6 v=0
22648 On ch=1 n=f6 v=79
22688 On ch=1 n=g6 v=0
22734 On ch=1 n=f6 v=0
22772 On ch=1 n=c5 v=104
22774 On ch=1 n=g4 v=90
22832 On ch=1 n=c5 v=0
22846 On ch=1 n=g4 v=0
22860 On ch=1 n=e6 v=89
22952 On ch=1 n=f6 v=77
22960 On ch=1 n=e6 v=0
23034 On ch=1 n=e6 v=81
23060 On ch=1 n=f6 v=0
23120 On ch=1 n=e6 v=0
23160 On ch=1 n=b4 v=97
23162 On ch=1 n=g4 v=88
23206 On ch=1 n=b4 v=0
23232 On ch=1 n=g4 v=0
23254 On ch=1 n=d6 v=86
23336 On ch=1 n=d6 v=0
23338 On ch=1 n=e6 v=71
23418 On ch=1 n=d6 v=88
23438 On ch=1 n=e6 v=0
23490 On ch=1 n=d6 v=0
23510 Par ch=1 c=64 v=63
23532 Par ch=1 c=64 v=127
23540 On ch=1 n=c5 v=106
23554 On ch=1 n=c6 v=83
23566 On ch=1 n=d6 v=65
23610 On ch=1 n=c5 v=0
23614 On ch=1 n=d6 v=0
23650 On ch=1 n=c6 v=0
23658 On ch=1 n=g5 v=75
23758 On ch=1 n=a5 v=84
23772 On ch=1 n=g5 v=0
23854 On ch=1 n=b5 v=100
23866 On ch=1 n=a5 v=0
23912 On ch=1 n=b5 v=0
23938 On ch=1 n=c6 v=108
24016 Par ch=1 c=64 v=63
24034 Par ch=1 c=64 v=0
24036 On ch=1 n=d6 v=103
24056 On ch=1 n=c6 v=0
24118 On ch=1 n=e6 v=101
24138 On ch=1 n=d6 v=0
24202 On ch=1 n=f6 v=101
24204 On ch=1 n=e6 v=0
24298 On ch=1 n=g6 v=103
24326 On ch=1 n=f6 v=0
24380 On ch=1 n=a6 v=98
24438 On ch=1 n=g6 v=0
24474 On ch=1 n=b6 v=91
24522 On ch=1 n=a6 v=0
24576 On ch=1 n=c7 v=85
24628 On ch=1 n=b6 v=0
24672 On ch=1 n=g6 v=97
24686 On ch=1 n=c7 v=0
24758 On ch=1 n=g6 v=0
24892 On ch=1 n=g6 v=102
24946 On ch=1 n=g6 v=0
25082 On ch=1 n=e5 v=102
25084 On ch=1 n=g4 v=96
25116 Par ch=1 c=64 v=63
25122 Par ch=1 c=64 v=127
25136 On ch=1 n=g4 v=0
25144 On ch=1 n=e5 v=0
25210 On ch=1 n=g6 v=91
25228 Par ch=1 c=64 v=63
25280 Par ch=1 c=64 v=0
25314 On ch=1 n=a6 v=81
25316 On ch=1 n=g6 v=0
25358 Par ch=1 c=64 v=63
25396 On ch=1 n=g6 v=79
25400 Par ch=1 c=64 v=127
25422 On ch=1 n=a6 v=0
25480 On ch=1 n=g6 v=0
25500 On ch=1 n=d5 v=93
25504 On ch=1 n=g4 v=77
25540 Par ch=1 c=64 v=63
25566 On ch=1 n=g4 v=0
25568 On ch=1 n=d5 v=0
25586 Par ch=1 c=64 v=0
25592 On ch=1 n=f6 v=82
25676 On ch=1 n=g6 v=77
25678 On ch=1 n=f6 v=0
25770 On ch=1 n=f6 v=90
25782 On ch=1 n=g6 v=0
25868 On ch=1 n=f6 v=0
25872 On ch=1 n=g4 v=72
25878 On ch=1 n=c5 v=85
25932 On ch=1 n=c5 v=0
25962 On ch=1 n=g4 v=0
25978 On ch=1 n=e6 v=97
26068 On ch=1 n=f6 v=85
26076 On ch=1 n=e6 v=0
26164 On ch=1 n=e6 v=83
26180 On ch=1 n=f6 v=0
26236 On ch=1 n=e6 v=0
26254 On ch=1 n=b4 v=88
26256 On ch=1 n=g4 v=76
26308 On ch=1 n=b4 v=0
26350 On ch=1 n=g4 v=0
26362 On ch=1 n=d6 v=88
26434 On ch=1 n=e6 v=79
26442 On ch=1 n=d6 v=0
26518 On ch=1 n=d6 v=73
26520 On ch=1 n=e6 v=0
26636 On ch=1 n=c4 v=75
26650 On ch=1 n=c6 v=78
26652 On ch=1 n=d6 v=0
26720 Par ch=1 c=64 v=63
26754 Par ch=1 c=64 v=127
26872 On ch=1 n=c5 v=84
26890 On ch=1 n=c4 v=0
27076 On ch=1 n=b4 v=94
27112 On ch=1 n=c5 v=0
27262 On ch=1 n=c6 v=0
27278 On ch=1 n=a#4 v=95
27294 On ch=1 n=d6 v=92
27310 On ch=1 n=b4 v=0
27368 On ch=1 n=e6 v=101
27414 On ch=1 n=d6 v=0
27446 Par ch=1 c=64 v=63
27464 On ch=1 n=f6 v=103
27478 Par ch=1 c=64 v=0
27480 On ch=1 n=a4 v=85
27494 On ch=1 n=a#4 v=0
27512 On ch=1 n=e6 v=0
27564 On ch=1 n=f6 v=0
27572 On ch=1 n=a4 v=0
27688 On ch=1 n=a4 v=86
27698 On ch=1 n=f6 v=106
27702 Par ch=1 c=64 v=63
27720 Par ch=1 c=64 v=127
27892 On ch=1 n=g4 v=103
27916 On ch=1 n=a4 v=0
28110 Par ch=1 c=64 v=63
28124 On ch=1 n=f4 v=98
28130 On ch=1 n=g6 v=97
28132 On ch=1 n=f6 v=0
28148 On ch=1 n=g4 v=0
28152 Par ch=1 c=64 v=0
28214 On ch=1 n=a6 v=107
28238 On ch=1 n=g6 v=0
28312 On ch=1 n=g6 v=103
28314 On ch=1 n=e4 v=98
28356 On ch=1 n=a6 v=0
28370 On ch=1 n=f4 v=0
28380 Par ch=1 c=64 v=63
28388 Par ch=1 c=64 v=127
28516 On ch=1 n=e4 v=0
28520 On ch=1 n=e6 v=100
28550 On ch=1 n=g6 v=0
28742 On ch=1 n=c7 v=98
28746 On ch=1 n=c4 v=79
28750 On ch=1 n=e6 v=0
28788 Par ch=1 c=64 v=63
28806 Par ch=1 c=64 v=0
28824 On ch=1 n=c7 v=0
28952 On ch=1 n=c7 v=96
29026 On ch=1 n=c7 v=0
29060 On ch=1 n=c4 v=0
29138 Par ch=1 c=64 v=63
29142 Par ch=1 c=64 v=127
29174 On ch=1 n=d7 v=109
29274 On ch=1 n=c7 v=93
29324 On ch=1 n=d7 v=0
29356 On ch=1 n=b6 v=84
29416 On ch=1 n=c7 v=0
29450 On ch=1 n=a6 v=88
29474 On ch=1 n=b6 v=0
29506 On ch=1 n=a6 v=0
29526 Par ch=1 c=64 v=63
29542 Par ch=1 c=64 v=0
29562 On ch=1 n=a6 v=102
29566 On ch=1 n=c4 v=76
29578 Par ch=1 c=64 v=63
29582 On ch=1 n=c5 v=56
29616 Par ch=1 c=64 v=127
29670 On ch=1 n=g6 v=94
29672 On ch=1 n=c4 v=0
29710 On ch=1 n=c5 v=0
29714 On ch=1 n=a6 v=0
29758 On ch=1 n=f6 v=100
29802 On ch=1 n=g6 v=0
29858 On ch=1 n=e6 v=98
29918 On ch=1 n=f6 v=0
29956 On ch=1 n=e6 v=0
30000 On ch=1 n=e5 v=80
30006 On ch=1 n=g4 v=76
30008 On ch=1 n=g6 v=87
30112 Par ch=1 c=64 v=63
30138 Par ch=1 c=64 v=0
30646 On ch=1 n=e5 v=0
30656 On ch=1 n=e6 v=77
30662 On ch=1 n=c5 v=52
30692 On ch=1 n=g6 v=0
30862 On ch=1 n=d6 v=76
30876 On ch=1 n=e6 v=0
30882 On ch=1 n=g4 v=0
30882 On ch=1 n=b4 v=65
30896 On ch=1 n=c5 v=0
30898 Par ch=1 c=64 v=63
30906 Par ch=1 c=64 v=127
30924 On ch=1 n=b4 v=0
31084 On ch=1 n=g3 v=100
31090 Par ch=1 c=64 v=63
31178 Par ch=1 c=64 v=127
31296 On ch=1 n=b3 v=92
31330 On ch=1 n=d6 v=0
31360 On ch=1 n=g3 v=0
31456 On ch=1 n=b3 v=0
31486 On ch=1 n=d4 v=103
31562 On ch=1 n=d4 v=0
31692 On ch=1 n=c#6 v=96
31706 On ch=1 n=g4 v=82
31762 On ch=1 n=d6 v=90
31774 Par ch=1 c=64 v=63
31800 On ch=1 n=c#6 v=0
31822 Par ch=1 c=64 v=0
31940 On ch=1 n=b4 v=58
32144 On ch=1 n=d5 v=65
32178 On ch=1 n=c6 v=86
32180 Par ch=1 c=64 v=63
32198 Par ch=1 c=64 v=127
32212 On ch=1 n=d6 v=0
32264 On ch=1 n=b5 v=70
32276 On ch=1 n=g4 v=0
32280 On ch=1 n=b4 v=0
32288 On ch=1 n=d5 v=0
32310 On ch=1 n=c6 v=0
32348 On ch=1 n=a5 v=63
32388 On ch=1 n=b5 v=0
32398 Par ch=1 c=64 v=63
32430 Par ch=1 c=64 v=0
32446 On ch=1 n=g5 v=68
32450 On ch=1 n=a5 v=0
32550 On ch=1 n=g5 v=0
32552 On ch=1 n=g4 v=60
32578 On ch=1 n=c#6 v=86
32580 Par ch=1 c=64 v=63
32604 Par ch=1 c=64 v=127
32762 On ch=1 n=b4 v=55
32780 On ch=1 n=d6 v=82
32782 On ch=1 n=c#6 v=0
32790 Par ch=1 c=64 v=63
32836 Par ch=1 c=64 v=0
32960 On ch=1 n=d6 v=0
32994 On ch=1 n=d5 v=58
33008 On ch=1 n=c6 v=80
33080 On ch=1 n=b5 v=83
33114 On ch=1 n=c6 v=0
33122 On ch=1 n=g4 v=0
33144 On ch=1 n=b4 v=0
33170 On ch=1 n=a5 v=63
33172 On ch=1 n=b5 v=0
33182 On ch=1 n=d5 v=0
33252 On ch=1 n=g5 v=80
33254 On ch=1 n=a5 v=0
33360 On ch=1 n=g5 v=0
33384 On ch=1 n=d#6 v=103
33404 On ch=1 n=g4 v=62
33552 On ch=1 n=d#6 v=0
33596 On ch=1 n=e6 v=80
33618 On ch=1 n=c5 v=55
33624 On ch=1 n=g4 v=0
33636 On ch=1 n=e6 v=0
33806 On ch=1 n=e6 v=99
33836 On ch=1 n=c5 v=0
33838 On ch=1 n=e5 v=39
33878 On ch=1 n=e6 v=0
34014 On ch=1 n=e6 v=98
34016 On ch=1 n=e5 v=0
34018 On ch=1 n=c5 v=60
34088 On ch=1 n=e6 v=0
34212 On ch=1 n=c5 v=0
34238 On ch=1 n=e6 v=92
34248 On ch=1 n=g4 v=54
34272 Par ch=1 c=64 v=63
34280 Par ch=1 c=64 v=127
34452 On ch=1 n=c5 v=66
34462 On ch=1 n=g4 v=0
34476 On ch=1 n=e6 v=0
34650 On ch=1 n=c5 v=0
34692 On ch=1 n=e5 v=56
34870 On ch=1 n=e5 v=0
34874 On ch=1 n=c5 v=74
34936 On ch=1 n=a5 v=84
35028 Par ch=1 c=64 v=63
35040 On ch=1 n=c5 v=0
35048 On ch=1 n=a5 v=0
35052 Par ch=1 c=64 v=0
35052 On ch=1 n=a6 v=109
35078 On ch=1 n=f#4 v=73
35144 Par ch=1 c=64 v=63
35176 Par ch=1 c=64 v=127
35294 On ch=1 n=a4 v=76
35488 Par ch=1 c=64 v=63
35490 On ch=1 n=f#4 v=0
35512 On ch=1 n=c5 v=86
35534 On ch=1 n=a4 v=0
35538 Par ch=1 c=64 v=127
35590 On ch=1 n=c5 v=0
35622 On ch=1 n=a6 v=0
35692 On ch=1 n=g6 v=85
35698 Par ch=1 c=64 v=63
35720 Par ch=1 c=64 v=0
35772 On ch=1 n=f#6 v=103
35800 On ch=1 n=g6 v=0
35822 On ch=1 n=e6 v=76
35868 On ch=1 n=f#6 v=0
35888 On ch=1 n=d6 v=101
35892 On ch=1 n=f#4 v=72
35912 On ch=1 n=e6 v=0
35922 Par ch=1 c=64 v=63
35928 Par ch=1 c=64 v=127
36100 On ch=1 n=d6 v=0
36132 On ch=1 n=d7 v=93
36136 On ch=1 n=a4 v=66
36214 On ch=1 n=d7 v=0
36354 On ch=1 n=c5 v=76
36356 On ch=1 n=d7 v=100
36366 On ch=1 n=a4 v=0
36382 On ch=1 n=f#4 v=0
36430 On ch=1 n=d7 v=0
36480 On ch=1 n=c5 v=0
36554 On ch=1 n=d7 v=114
36644 On ch=1 n=d7 v=0
36772 On ch=1 n=d7 v=112
36782 On ch=1 n=g4 v=58
36914 Par ch=1 c=64 v=63
36934 Par ch=1 c=64 v=0
36998 On ch=1 n=b4 v=79
37088 Par ch=1 c=64 v=63
37108 Par ch=1 c=64 v=127
37196 On ch=1 n=b4 v=0
37210 On ch=1 n=d5 v=84
37278 On ch=1 n=d5 v=0
37284 On ch=1 n=d7 v=0
37306 On ch=1 n=b6 v=92
37388 On ch=1 n=d7 v=97
37406 On ch=1 n=b6 v=0
37424 On ch=1 n=d5 v=72
37426 On ch=1 n=g4 v=0
37426 Par ch=1 c=64 v=63
37444 Par ch=1 c=64 v=0
37474 On ch=1 n=d5 v=0
37480 On ch=1 n=b6 v=88
37528 On ch=1 n=d7 v=0
37612 On ch=1 n=g6 v=91
37616 On ch=1 n=g4 v=75
37624 On ch=1 n=b6 v=0
37632 Par ch=1 c=64 v=63
37650 Par ch=1 c=64 v=127
37838 On ch=1 n=b4 v=71
37842 On ch=1 n=g4 v=0
37932 On ch=1 n=g6 v=0
37934 On ch=1 n=b4 v=0
38052 On ch=1 n=d5 v=60
38104 On ch=1 n=d5 v=0
38202 Par ch=1 c=64 v=63
38236 Par ch=1 c=64 v=0
38250 On ch=1 n=d5 v=80
38328 On ch=1 n=d5 v=0
38446 On ch=1 n=g4 v=56
38448 Par ch=1 c=64 v=63
38458 On ch=1 n=c#6 v=88
38474 Par ch=1 c=64 v=127
38660 On ch=1 n=g4 v=0
38672 On ch=1 n=b4 v=59
38672 On ch=1 n=d6 v=86
38722 On ch=1 n=c#6 v=0
38784 Par ch=1 c=64 v=63
38828 On ch=1 n=d6 v=0
38832 On ch=1 n=b4 v=0
38842 Par ch=1 c=64 v=0
38894 On ch=1 n=c6 v=88
38898 On ch=1 n=d5 v=63
38984 On ch=1 n=b5 v=76
39002 On ch=1 n=c6 v=0
39080 On ch=1 n=d5 v=0
39080 On ch=1 n=a5 v=68
39094 On ch=1 n=b5 v=0
39154 On ch=1 n=a5 v=0
39172 On ch=1 n=g5 v=84
39258 On ch=1 n=g5 v=0
39280 On ch=1 n=c#6 v=87
39282 Par ch=1 c=64 v=63
39296 Par ch=1 c=64 v=127
39302 On ch=1 n=g4 v=65
39378 On ch=1 n=d6 v=83
39400 On ch=1 n=c#6 v=0
39490 On ch=1 n=d6 v=0
39490 On ch=1 n=e6 v=83
39492 On ch=1 n=g4 v=0
39496 On ch=1 n=b4 v=62
39560 Par ch=1 c=64 v=63
39580 On ch=1 n=d6 v=71
39610 Par ch=1 c=64 v=0
39630 On ch=1 n=e6 v=0
39684 On ch=1 n=c6 v=86
39686 On ch=1 n=b4 v=0
39706 On ch=1 n=d6 v=0
39714 Par ch=1 c=64 v=63
39724 On ch=1 n=d5 v=55
39746 Par ch=1 c=64 v=127
39778 On ch=1 n=b5 v=79
39784 On ch=1 n=c6 v=0
39802 On ch=1 n=d5 v=0
39860 On ch=1 n=b5 v=0
39874 On ch=1 n=a5 v=71
39926 Par ch=1 c=64 v=63
39962 Par ch=1 c=64 v=0
39966 On ch=1 n=g5 v=84
39978 On ch=1 n=a5 v=0
40010 On ch=1 n=g5 v=0
40096 On ch=1 n=g4 v=69
40096 Par ch=1 c=64 v=63
40122 On ch=1 n=d#6 v=101
40126 Par ch=1 c=64 v=127
40284 On ch=1 n=d#6 v=0
40310 On ch=1 n=e6 v=93
40312 Par ch=1 c=64 v=63
40322 On ch=1 n=c5 v=63
40330 Par ch=1 c=64 v=0
40336 On ch=1 n=g4 v=0
40360 On ch=1 n=e6 v=0
40528 On ch=1 n=e6 v=102
40530 On ch=1 n=c5 v=0
40536 On ch=1 n=e5 v=68
40596 On ch=1 n=e6 v=0
40724 On ch=1 n=c5 v=68
40730 On ch=1 n=e5 v=0
40732 On ch=1 n=e6 v=100
40806 On ch=1 n=e6 v=0
40912 On ch=1 n=c5 v=0
40942 On ch=1 n=g4 v=70
40946 On ch=1 n=e6 v=112
40988 Par ch=1 c=64 v=63
40990 Par ch=1 c=64 v=127
41140 On ch=1 n=e6 v=0
41142 On ch=1 n=g4 v=0
41148 On ch=1 n=c5 v=76
41354 On ch=1 n=c5 v=0
41366 On ch=1 n=e5 v=78
41566 On ch=1 n=c5 v=92
41580 On ch=1 n=e5 v=0
41676 Par ch=1 c=64 v=63
41688 Par ch=1 c=64 v=0
41700 On ch=1 n=c5 v=0
41774 On ch=1 n=a4 v=77
41776 On ch=1 n=c5 v=92
41786 On ch=1 n=d5 v=108
41794 On ch=1 n=a6 v=117
41808 On ch=1 n=f#4 v=77
41872 Par ch=1 c=64 v=63
41884 Par ch=1 c=64 v=127
41900 On ch=1 n=b6 v=93
41912 On ch=1 n=a6 v=0
42008 On ch=1 n=c7 v=94
42024 On ch=1 n=b6 v=0
42104 On ch=1 n=b6 v=83
42146 On ch=1 n=c7 v=0
42196 On ch=1 n=a6 v=96
42224 On ch=1 n=b6 v=0
42278 On ch=1 n=a6 v=0
42290 On ch=1 n=g6 v=88
42372 On ch=1 n=g6 v=0
42378 On ch=1 n=f#6 v=100
42478 On ch=1 n=e6 v=94
42502 On ch=1 n=f#6 v=0
42564 On ch=1 n=d6 v=89
42570 On ch=1 n=e6 v=0
42652 Par ch=1 c=64 v=63
42660 On ch=1 n=f#6 v=105
42664 On ch=1 n=d6 v=0
42696 Par ch=1 c=64 v=0
42740 Par ch=1 c=64 v=63
42754 On ch=1 n=a6 v=87
42766 On ch=1 n=f#6 v=0
42796 Par ch=1 c=64 v=127
42838 On ch=1 n=a4 v=0
42862 On ch=1 n=g6 v=92
42872 On ch=1 n=f#4 v=0
42886 On ch=1 n=c5 v=0
42908 On ch=1 n=a6 v=0
42944 On ch=1 n=d5 v=0
42946 On ch=1 n=f#6 v=98
42992 On ch=1 n=g6 v=0
43032 On ch=1 n=e6 v=98
43082 On ch=1 n=f#6 v=0
43134 On ch=1 n=e6 v=0
43134 On ch=1 n=d6 v=81
43162 Par ch=1 c=64 v=63
43210 On ch=1 n=d6 v=0
43216 On ch=1 n=c6 v=97
43216 Par ch=1 c=64 v=0
43326 On ch=1 n=b5 v=90
43350 On ch=1 n=c6 v=0
43350 On ch=1 n=g4 v=73
43380 Par ch=1 c=64 v=63
43406 Par ch=1 c=64 v=127
43468 On ch=1 n=b5 v=0
43482 On ch=1 n=b4 v=78
43520 On ch=1 n=g4 v=0
43610 On ch=1 n=b4 v=0
43622 On ch=1 n=g5 v=63
43624 Par ch=1 c=64 v=63
43670 Par ch=1 c=64 v=0
43702 Par ch=1 c=64 v=63
43730 On ch=1 n=c6 v=106
43732 On ch=1 n=g5 v=0
43740 On ch=1 n=a4 v=74
43768 Par ch=1 c=64 v=127
43788 On ch=1 n=d6 v=80
43800 On ch=1 n=c6 v=0
43834 On ch=1 n=d6 v=0
43868 On ch=1 n=c6 v=92
43874 On ch=1 n=c5 v=60
43902 On ch=1 n=a4 v=0
43902 On ch=1 n=d6 v=101
43930 On ch=1 n=c6 v=0
43938 On ch=1 n=c5 v=0
43956 On ch=1 n=d6 v=0
43966 On ch=1 n=c6 v=77
43990 On ch=1 n=g5 v=25
44024 On ch=1 n=b5 v=99
44030 On ch=1 n=c6 v=0
44034 Par ch=1 c=64 v=63
44060 Par ch=1 c=64 v=0
44074 On ch=1 n=g5 v=0
44080 On ch=1 n=c6 v=96
44092 On ch=1 n=b5 v=0
44146 On ch=1 n=b4 v=68
44154 On ch=1 n=d6 v=109
44190 On ch=1 n=c6 v=0
44214 Par ch=1 c=64 v=63
44238 Par ch=1 c=64 v=127
44300 On ch=1 n=d5 v=73
44314 On ch=1 n=b4 v=0
44392 On ch=1 n=g5 v=71
44420 On ch=1 n=d5 v=0
44424 Par ch=1 c=64 v=63
44510 On ch=1 n=d6 v=0
44512 Par ch=1 c=64 v=0
44532 On ch=1 n=g5 v=0
44538 On ch=1 n=g4 v=87
44658 On ch=1 n=b4 v=86
44684 On ch=1 n=g4 v=0
44770 On ch=1 n=b4 v=0
44800 On ch=1 n=g5 v=57
44864 On ch=1 n=e6 v=88
44904 On ch=1 n=f#6 v=93
44930 On ch=1 n=c5 v=72
44944 On ch=1 n=e6 v=0
44946 Par ch=1 c=64 v=63
44952 On ch=1 n=g5 v=0
44976 On ch=1 n=g6 v=73
45006 On ch=1 n=f#6 v=0
45050 Par ch=1 c=64 v=127
45106 On ch=1 n=c5 v=0
45116 Par ch=1 c=64 v=63
45120 On ch=1 n=e5 v=52
45170 Par ch=1 c=64 v=0
45250 On ch=1 n=g5 v=50
45278 On ch=1 n=e5 v=0
45288 Par ch=1 c=64 v=63
45314 On ch=1 n=g6 v=0
45316 Par ch=1 c=64 v=127
45388 On ch=1 n=g6 v=86
45398 On ch=1 n=c5 v=60
45408 On ch=1 n=g5 v=0
45494 On ch=1 n=g6 v=0
45536 On ch=1 n=c5 v=0
45536 On ch=1 n=e5 v=47
45680 On ch=1 n=g5 v=37
45682 On ch=1 n=g6 v=101
45688 On ch=1 n=e5 v=0
45752 On ch=1 n=g6 v=0
45794 On ch=1 n=g6 v=102
45814 On ch=1 n=g5 v=0
45818 On ch=1 n=c5 v=72
45922 On ch=1 n=g6 v=0
45962 On ch=1 n=c5 v=0
45968 On ch=1 n=e5 v=51
46084 On ch=1 n=g5 v=53
46110 On ch=1 n=e5 v=0
46204 On ch=1 n=f#6 v=101
46222 On ch=1 n=g5 v=0
46230 On ch=1 n=c5 v=81
46298 On ch=1 n=e6 v=87
46308 On ch=1 n=f#6 v=0
46372 On ch=1 n=c5 v=0
46376 On ch=1 n=e5 v=55
46378 On ch=1 n=d6 v=87
46392 On ch=1 n=e6 v=0
46454 Par ch=1 c=64 v=63
46466 On ch=1 n=e5 v=0
46466 Par ch=1 c=64 v=0
46470 On ch=1 n=g5 v=67
46472 On ch=1 n=c6 v=99
46480 On ch=1 n=d6 v=0
46558 On ch=1 n=c6 v=0
46596 On ch=1 n=g5 v=0
46598 On ch=1 n=b5 v=112
46612 On ch=1 n=g4 v=57
46626 Par ch=1 c=64 v=63
46642 Par ch=1 c=64 v=127
46692 On ch=1 n=b5 v=0
46734 On ch=1 n=b4 v=85
46772 On ch=1 n=g4 v=0
46832 Par ch=1 c=64 v=63
46842 Par ch=1 c=64 v=0
46856 On ch=1 n=b4 v=0
46884 On ch=1 n=g5 v=64
46970 Par ch=1 c=64 v=63
46986 Par ch=1 c=64 v=127
46986 On ch=1 n=c6 v=104
46996 On ch=1 n=g5 v=0
47012 On ch=1 n=a4 v=73
47048 On ch=1 n=d6 v=84
47054 On ch=1 n=c6 v=0
47088 On ch=1 n=d6 v=0
47134 On ch=1 n=c6 v=85
47138 On ch=1 n=c5 v=63
47152 On ch=1 n=d6 v=99
47158 On ch=1 n=a4 v=0
47170 On ch=1 n=c6 v=0
47194 On ch=1 n=d6 v=0
47204 On ch=1 n=c5 v=0
47204 On ch=1 n=c6 v=68
47236 On ch=1 n=g5 v=48
47264 Par ch=1 c=64 v=63
47270 On ch=1 n=b5 v=86
47270 Par ch=1 c=64 v=0
47280 On ch=1 n=c6 v=0
47336 On ch=1 n=g5 v=0
47338 On ch=1 n=c6 v=94
47348 On ch=1 n=b5 v=0
47400 On ch=1 n=d6 v=108
47416 On ch=1 n=b4 v=74
47418 Par ch=1 c=64 v=63
47430 Par ch=1 c=64 v=127
47442 On ch=1 n=c6 v=0
47568 On ch=1 n=d5 v=81
47588 On ch=1 n=b4 v=0
47682 On ch=1 n=g5 v=76
47684 On ch=1 n=d5 v=0
47734 On ch=1 n=d6 v=0
47792 On ch=1 n=g5 v=0
47806 On ch=1 n=g4 v=89
47846 Par ch=1 c=64 v=63
47862 Par ch=1 c=64 v=0
47932 On ch=1 n=b4 v=93
47958 On ch=1 n=g4 v=0
48036 On ch=1 n=b4 v=0
48062 On ch=1 n=g5 v=78
48110 On ch=1 n=e6 v=98
48152 On ch=1 n=f#6 v=93
48172 On ch=1 n=g5 v=0
48186 On ch=1 n=e6 v=0
48206 Par ch=1 c=64 v=63
48214 On ch=1 n=c5 v=85
48216 Par ch=1 c=64 v=127
48218 On ch=1 n=g6 v=97
48258 On ch=1 n=f#6 v=0
48382 On ch=1 n=c5 v=0
48396 On ch=1 n=e5 v=62
48508 On ch=1 n=g5 v=52
48518 On ch=1 n=e5 v=0
48564 On ch=1 n=g6 v=0
48634 On ch=1 n=g5 v=0
48654 On ch=1 n=c5 v=66
48654 On ch=1 n=g6 v=93
48718 On ch=1 n=g6 v=0
48794 On ch=1 n=e5 v=44
48796 On ch=1 n=c5 v=0
48944 On ch=1 n=g5 v=55
48950 On ch=1 n=e5 v=0
48950 On ch=1 n=g6 v=94
49010 On ch=1 n=g6 v=0
49078 On ch=1 n=g5 v=0
49080 On ch=1 n=g6 v=80
49094 On ch=1 n=c5 v=68
49210 On ch=1 n=g6 v=0
49232 On ch=1 n=c5 v=0
49266 On ch=1 n=e5 v=29
49354 On ch=1 n=g5 v=33
49370 On ch=1 n=e5 v=0
49478 On ch=1 n=g5 v=0
49480 On ch=1 n=f#6 v=91
49500 On ch=1 n=c5 v=71
49596 On ch=1 n=e6 v=72
49600 On ch=1 n=f#6 v=0
49626 On ch=1 n=e5 v=42
49632 On ch=1 n=c5 v=0
49672 On ch=1 n=d6 v=86
49700 On ch=1 n=e6 v=0
49710 On ch=1 n=e5 v=0
49718 Par ch=1 c=64 v=63
49728 On ch=1 n=g5 v=50
49740 Par ch=1 c=64 v=0
49776 On ch=1 n=d6 v=0
49778 On ch=1 n=c6 v=85
49834 On ch=1 n=g5 v=0
49866 Par ch=1 c=64 v=63
49870 On ch=1 n=g4 v=77
49882 On ch=1 n=c6 v=0
49882 On ch=1 n=b5 v=86
49890 Par ch=1 c=64 v=127
49918 On ch=1 n=b5 v=0
49952 On ch=1 n=g4 v=0
50026 Par ch=1 c=64 v=63
50062 Par ch=1 c=64 v=0
50112 On ch=1 n=g6 v=90
50202 On ch=1 n=a6 v=93
50228 On ch=1 n=g6 v=0
50306 On ch=1 n=b6 v=90
50318 On ch=1 n=a6 v=0
50394 On ch=1 n=a6 v=91
50454 On ch=1 n=b6 v=0
50496 On ch=1 n=g6 v=99
50544 On ch=1 n=a6 v=0
50590 On ch=1 n=f#6 v=104
50642 On ch=1 n=g6 v=0
50706 On ch=1 n=f#6 v=0
50706 On ch=1 n=c4 v=106
50712 On ch=1 n=e6 v=85
50780 On ch=1 n=e6 v=0
50818 On ch=1 n=d6 v=96
50922 On ch=1 n=c6 v=84
50950 On ch=1 n=d6 v=0
50976 On ch=1 n=c4 v=0
51014 On ch=1 n=b5 v=93
51044 On ch=1 n=c6 v=0
51108 On ch=1 n=b5 v=0
51114 On ch=1 n=a5 v=78
51204 On ch=1 n=g5 v=98
51208 On ch=1 n=a5 v=0
51316 On ch=1 n=f#5 v=101
51338 On ch=1 n=g5 v=0
51390 On ch=1 n=e5 v=96
51428 On ch=1 n=f#5 v=0
51514 On ch=1 n=d5 v=103
51520 On ch=1 n=d4 v=108
51550 On ch=1 n=e5 v=0
51602 On ch=1 n=d5 v=0
51620 On ch=1 n=d4 v=0
51992 On ch=1 n=c5 v=112
51998 On ch=1 n=a4 v=91
51998 On ch=1 n=d#4 v=97
52008 On ch=1 n=f#4 v=92
52334 Par ch=1 c=64 v=63
52354 Par ch=1 c=64 v=127
52582 On ch=1 n=c5 v=0
52586 On ch=1 n=d#4 v=0
52606 On ch=1 n=f#4 v=0
52660 On ch=1 n=a4 v=0
52922 On ch=1 n=b4 v=70
52930 On ch=1 n=g4 v=59
52944 On ch=1 n=e4 v=59
53008 Par ch=1 c=64 v=63
53032 Par ch=1 c=64 v=0
53142 Par ch=1 c=64 v=63
53152 On ch=1 n=e4 v=0
53176 Par ch=1 c=64 v=127
53192 On ch=1 n=g4 v=0
53222 Par ch=1 c=64 v=63
53234 On ch=1 n=b4 v=0
53314 Par ch=1 c=64 v=0
53378 On ch=1 n=e4 v=69
53382 On ch=1 n=c4 v=45
53592 On ch=1 n=a4 v=72
53654 On ch=1 n=a4 v=0
53814 On ch=1 n=c5 v=77
53904 On ch=1 n=c5 v=0
54010 On ch=1 n=e5 v=91
54086 On ch=1 n=e5 v=0
54144 On ch=1 n=c4 v=0
54230 On ch=1 n=e4 v=0
54236 On ch=1 n=g#5 v=84
54414 On ch=1 n=a5 v=86
54440 On ch=1 n=g#5 v=0
54634 On ch=1 n=c6 v=94
54706 On ch=1 n=a5 v=0
54824 On ch=1 n=e6 v=96
54922 On ch=1 n=c6 v=0
54984 On ch=1 n=e6 v=0
55062 On ch=1 n=e6 v=89
55274 On ch=1 n=g5 v=86
55320 On ch=1 n=e6 v=0
55434 On ch=1 n=g5 v=0
55502 On ch=1 n=b4 v=71
55510 On ch=1 n=g5 v=79
55518 On ch=1 n=d4 v=62
55568 Par ch=1 c=64 v=63
55598 Par ch=1 c=64 v=127
55802 On ch=1 n=b4 v=0
55840 On ch=1 n=d4 v=0
55924 On ch=1 n=d4 v=17
55950 On ch=1 n=c5 v=81
56212 Par ch=1 c=64 v=63
56236 Par ch=1 c=64 v=0
56342 Par ch=1 c=64 v=63
56370 Par ch=1 c=64 v=127
56412 On ch=1 n=b5 v=71
56420 On ch=1 n=f#5 v=74
56444 On ch=1 n=g5 v=0
56494 On ch=1 n=d4 v=0
56586 On ch=1 n=f#5 v=0
56616 On ch=1 n=a5 v=71
56658 On ch=1 n=b5 v=0
56658 On ch=1 n=c5 v=0
56778 Par ch=1 c=64 v=63
56800 Par ch=1 c=64 v=0
56852 On ch=1 n=g5 v=64
56854 On ch=1 n=a5 v=0
56874 On ch=1 n=b4 v=53
56882 On ch=1 n=g4 v=53
56934 Par ch=1 c=64 v=63
56948 On ch=1 n=b4 v=0
56956 Par ch=1 c=64 v=127
56966 On ch=1 n=g4 v=0
57292 On ch=1 n=g3 v=54
57298 On ch=1 n=g5 v=0
57312 Par ch=1 c=64 v=63
57332 Par ch=1 c=64 v=0
57398 Par ch=1 c=64 v=63
57438 Par ch=1 c=64 v=127
57558 On ch=1 n=g3 v=0
57766 Par ch=1 c=64 v=63
57796 On ch=1 n=d6 v=64
57838 Par ch=1 c=64 v=0
58012 On ch=1 n=b5 v=83
58060 On ch=1 n=d6 v=0
58232 On ch=1 n=b5 v=0
58238 On ch=1 n=g6 v=82
58302 On ch=1 n=g6 v=0
58446 On ch=1 n=f#6 v=83
58526 On ch=1 n=f#6 v=0
58658 On ch=1 n=e6 v=85
58744 On ch=1 n=e6 v=0
58856 On ch=1 n=d6 v=84
58944 On ch=1 n=d6 v=0
59066 On ch=1 n=c6 v=81
59154 On ch=1 n=c6 v=0
59264 On ch=1 n=b5 v=63
59342 On ch=1 n=b5 v=0
59492 On ch=1 n=a5 v=81
59540 On ch=1 n=a5 v=0
59932 On ch=1 n=b5 v=78
59984 On ch=1 n=b5 v=0
60374 On ch=1 n=d6 v=66
60558 On ch=1 n=c#6 v=73
60572 On ch=1 n=d6 v=0
60744 On ch=1 n=c#6 v=0
60790 On ch=1 n=c6 v=72
60802 On ch=1 n=f#4 v=42
60818 On ch=1 n=d5 v=31
61192 On ch=1 n=f#4 v=0
61210 On ch=1 n=g4 v=52
61218 On ch=1 n=b5 v=72
61250 On ch=1 n=c6 v=0
61360 On ch=1 n=b5 v=0
61426 On ch=1 n=c6 v=84
61544 On ch=1 n=c6 v=0
61554 On ch=1 n=d5 v=0
61622 On ch=1 n=g4 v=0
61622 On ch=1 n=d6 v=86
61696 On ch=1 n=d6 v=0
61824 On ch=1 n=d#6 v=101
61898 On ch=1 n=d#6 v=0
62008 Par ch=1 c=64 v=63
62022 On ch=1 n=g4 v=67
62032 On ch=1 n=c4 v=59
62036 On ch=1 n=e6 v=98
62062 Par ch=1 c=64 v=127
62098 On ch=1 n=f#6 v=92
62104 On ch=1 n=e6 v=0
62174 Par ch=1 c=64 v=63
62186 On ch=1 n=f#6 v=0
62190 On ch=1 n=e6 v=84
62216 Par ch=1 c=64 v=0
62264 On ch=1 n=d#6 v=87
62270 On ch=1 n=e6 v=0
62340 On ch=1 n=e6 v=88
62344 On ch=1 n=d#6 v=0
62410 On ch=1 n=f#6 v=99
62418 On ch=1 n=e6 v=0
62474 On ch=1 n=g6 v=92
62506 On ch=1 n=f#6 v=0
62576 On ch=1 n=g6 v=0
62672 On ch=1 n=g4 v=0
62698 On ch=1 n=f#6 v=101
62770 On ch=1 n=f#6 v=0
62810 On ch=1 n=c4 v=0
62898 On ch=1 n=e6 v=103
62960 On ch=1 n=e6 v=0
63088 On ch=1 n=d6 v=103
63158 On ch=1 n=d6 v=0
63294 On ch=1 n=c6 v=92
63300 On ch=1 n=e4 v=91
63316 On ch=1 n=c#4 v=70
63356 On ch=1 n=c#4 v=0
63368 On ch=1 n=e4 v=0
63374 On ch=1 n=c6 v=0
63484 On ch=1 n=b5 v=101
63570 On ch=1 n=b5 v=0
63712 On ch=1 n=d6 v=111
63714 On ch=1 n=d4 v=94
63714 On ch=1 n=g4 v=86
63742 Par ch=1 c=64 v=63
63748 Par ch=1 c=64 v=127
63968 On ch=1 n=g4 v=0
64042 On ch=1 n=d6 v=0
64068 On ch=1 n=b5 v=82
64092 Par ch=1 c=64 v=63
64100 Par ch=1 c=64 v=0
64146 On ch=1 n=f#4 v=81
64154 On ch=1 n=a5 v=99
64182 On ch=1 n=b5 v=0
64202 Par ch=1 c=64 v=63
64212 Par ch=1 c=64 v=127
64264 On ch=1 n=d4 v=0
64266 On ch=1 n=a5 v=0
64270 On ch=1 n=f#4 v=0
64316 Par ch=1 c=64 v=63
64326 Par ch=1 c=64 v=0
64582 On ch=1 n=d5 v=120
64584 On ch=1 n=d6 v=111
64592 Par ch=1 c=64 v=63
64594 Par ch=1 c=64 v=127
64644 On ch=1 n=d5 v=0
64646 On ch=1 n=d6 v=0
64910 On ch=1 n=e5 v=93
64936 On ch=1 n=e6 v=96
64974 On ch=1 n=f#6 v=95
65000 On ch=1 n=e5 v=0
65002 On ch=1 n=f#5 v=104
65008 On ch=1 n=e6 v=0
65030 On ch=1 n=g6 v=103
65032 Par ch=1 c=64 v=63
65038 Par ch=1 c=64 v=0
65062 On ch=1 n=g5 v=91
65070 On ch=1 n=f#6 v=0
65080 On ch=1 n=f#5 v=0
65104 On ch=1 n=g6 v=0
65134 On ch=1 n=g5 v=0
65274 On ch=1 n=f#5 v=96
65280 On ch=1 n=f#6 v=101
65324 On ch=1 n=f#5 v=0
65350 On ch=1 n=f#6 v=0
65452 On ch=1 n=e5 v=49
65472 On ch=1 n=e6 v=91
65518 On ch=1 n=e6 v=0
65542 On ch=1 n=e5 v=0
65662 On ch=1 n=d5 v=84
65672 On ch=1 n=d6 v=84
65748 On ch=1 n=d6 v=0
65748 On ch=1 n=d5 v=0
65866 On ch=1 n=c6 v=91
65870 On ch=1 n=c5 v=85
65930 On ch=1 n=c6 v=0
65950 On ch=1 n=c5 v=0
66066 On ch=1 n=b5 v=92
66070 On ch=1 n=b4 v=74
66138 On ch=1 n=b5 v=0
66162 On ch=1 n=b4 v=0
66274 On ch=1 n=a4 v=81
66288 On ch=1 n=a5 v=83
66352 On ch=1 n=a5 v=0
66370 On ch=1 n=a4 v=0
66712 On ch=1 n=b5 v=84
66714 On ch=1 n=b4 v=69
66768 On ch=1 n=b5 v=0
66808 On ch=1 n=b4 v=0
67146 On ch=1 n=c5 v=100
67146 On ch=1 n=c6 v=84
67212 On ch=1 n=c5 v=0
67214 On ch=1 n=c6 v=0
67578 On ch=1 n=c#6 v=99
67584 On ch=1 n=c#5 v=106
67644 On ch=1 n=c#6 v=0
67648 On ch=1 n=c#5 v=0
68012 On ch=1 n=d5 v=109
68014 On ch=1 n=d6 v=98
68076 On ch=1 n=d6 v=0
68084 On ch=1 n=d5 v=0
68448 On ch=1 n=d#6 v=115
68450 On ch=1 n=d#5 v=124
68512 On ch=1 n=d#6 v=0
68514 On ch=1 n=d#5 v=0
68870 On ch=1 n=e6 v=106
68886 On ch=1 n=e5 v=106
68900 Par ch=1 c=64 v=63
68904 Par ch=1 c=64 v=127
68942 On ch=1 n=e6 v=0
68964 On ch=1 n=e5 v=0
69220 On ch=1 n=e5 v=90
69304 On ch=1 n=e5 v=0
69320 On ch=1 n=c4 v=89
69320 On ch=1 n=c6 v=106
69322 On ch=1 n=a4 v=68
69368 Par ch=1 c=64 v=63
69442 Par ch=1 c=64 v=127
69628 On ch=1 n=a4 v=0
69630 On ch=1 n=c6 v=0
69644 On ch=1 n=a5 v=99
69744 On ch=1 n=g5 v=103
69754 Par ch=1 c=64 v=63
69764 On ch=1 n=c4 v=0
69768 On ch=1 n=b4 v=76
69770 On ch=1 n=d4 v=75
69778 Par ch=1 c=64 v=0
69806 On ch=1 n=a5 v=0
69862 Par ch=1 c=64 v=63
69890 Par ch=1 c=64 v=127
70008 On ch=1 n=g5 v=0
70020 On ch=1 n=b4 v=0
70180 On ch=1 n=f#5 v=78
70182 On ch=1 n=b5 v=75
70186 On ch=1 n=c5 v=71
70200 Par ch=1 c=64 v=63
70226 Par ch=1 c=64 v=0
70312 Par ch=1 c=64 v=63
70322 On ch=1 n=d4 v=0
70348 Par ch=1 c=64 v=127
70376 On ch=1 n=b5 v=0
70386 On ch=1 n=a5 v=77
70512 On ch=1 n=f#5 v=0
70582 Par ch=1 c=64 v=63
70600 On ch=1 n=c5 v=0
70602 Par ch=1 c=64 v=0
70610 On ch=1 n=a5 v=0
70610 On ch=1 n=g4 v=55
70612 On ch=1 n=g5 v=79
70732 Par ch=1 c=64 v=63
70750 Par ch=1 c=64 v=127
70820 On ch=1 n=b4 v=60
70844 On ch=1 n=g5 v=0
71040 On ch=1 n=d5 v=65
71058 On ch=1 n=b4 v=0
71154 On ch=1 n=g6 v=90
71228 Par ch=1 c=64 v=63
71246 On ch=1 n=g6 v=0
71250 Par ch=1 c=64 v=0
71252 On ch=1 n=d5 v=0
71254 On ch=1 n=a6 v=80
71272 On ch=1 n=b4 v=57
71320 On ch=1 n=g6 v=72
71332 On ch=1 n=a6 v=0
71336 On ch=1 n=g4 v=0
71422 On ch=1 n=g6 v=0
71430 On ch=1 n=e6 v=88
71434 On ch=1 n=g4 v=70
71452 On ch=1 n=b4 v=0
71514 On ch=1 n=e6 v=0
71524 On ch=1 n=g6 v=85
71618 On ch=1 n=a6 v=97
71626 On ch=1 n=g6 v=0
71648 On ch=1 n=c5 v=58
71714 On ch=1 n=a6 v=0
71718 On ch=1 n=g6 v=84
71804 On ch=1 n=g6 v=0
71818 On ch=1 n=c7 v=84
71856 On ch=1 n=c5 v=0
71876 On ch=1 n=e5 v=49
71912 On ch=1 n=c7 v=0
71916 On ch=1 n=g6 v=71
71980 On ch=1 n=g6 v=0
72014 On ch=1 n=e6 v=90
72032 On ch=1 n=e5 v=0
72068 On ch=1 n=c5 v=43
72082 On ch=1 n=e6 v=0
72104 On ch=1 n=g4 v=0
72108 On ch=1 n=c6 v=85
72196 On ch=1 n=c6 v=0
72214 On ch=1 n=c5 v=0
72214 On ch=1 n=g4 v=45
72226 On ch=1 n=g6 v=93
72270 On ch=1 n=g6 v=0
72444 On ch=1 n=b4 v=63
72458 On ch=1 n=g6 v=101
72510 On ch=1 n=g6 v=0
72650 On ch=1 n=b4 v=0
72656 On ch=1 n=d5 v=74
72742 On ch=1 n=g6 v=104
72822 On ch=1 n=a6 v=101
72832 On ch=1 n=g6 v=0
72864 On ch=1 n=d5 v=0
72876 On ch=1 n=b4 v=57
72906 On ch=1 n=g4 v=0
72924 On ch=1 n=g6 v=92
72930 On ch=1 n=a6 v=0
73018 On ch=1 n=g6 v=0
73018 On ch=1 n=e6 v=81
73022 On ch=1 n=b4 v=0
73028 On ch=1 n=g4 v=62
73108 On ch=1 n=e6 v=0
73112 On ch=1 n=g6 v=91
73200 On ch=1 n=a6 v=97
73212 On ch=1 n=g6 v=0
73248 On ch=1 n=c5 v=61
73278 On ch=1 n=g6 v=86
73318 On ch=1 n=a6 v=0
73394 On ch=1 n=g6 v=0
73394 On ch=1 n=c7 v=94
73430 On ch=1 n=e5 v=79
73436 On ch=1 n=c5 v=0
73488 On ch=1 n=g6 v=88
73494 On ch=1 n=c7 v=0
73586 On ch=1 n=g6 v=0
73586 On ch=1 n=e6 v=92
73606 On ch=1 n=e5 v=0
73632 On ch=1 n=c5 v=79
73666 On ch=1 n=g4 v=0
73670 On ch=1 n=e6 v=0
73676 On ch=1 n=c6 v=91
73758 On ch=1 n=c5 v=0
73768 On ch=1 n=c6 v=0
73804 On ch=1 n=g6 v=99
73804 On ch=1 n=b4 v=85
73806 On ch=1 n=d5 v=93
73806 On ch=1 n=g4 v=75
73856 On ch=1 n=g6 v=0
73864 On ch=1 n=b4 v=0
73864 Par ch=1 c=64 v=63
73868 On ch=1 n=g4 v=0
73872 On ch=1 n=d5 v=0
73934 Par ch=1 c=64 v=0
74030 On ch=1 n=g6 v=107
74100 On ch=1 n=g6 v=0
74238 On ch=1 n=c6 v=106
74332 On ch=1 n=d6 v=83
74422 On ch=1 n=d6 v=0
74434 On ch=1 n=f#6 v=84
74506 On ch=1 n=d6 v=68
74530 On ch=1 n=f#6 v=0
74616 On ch=1 n=d6 v=0
74632 On ch=1 n=b5 v=77
74636 On ch=1 n=g6 v=86
74660 On ch=1 n=c6 v=0
74682 On ch=1 n=g6 v=0
74786 On ch=1 n=b5 v=0
74850 On ch=1 n=g6 v=101
74918 On ch=1 n=g6 v=0
75038 On ch=1 n=c6 v=99
75144 On ch=1 n=d6 v=90
75240 On ch=1 n=d6 v=0
75242 On ch=1 n=f#6 v=95
75324 On ch=1 n=d6 v=77
75328 On ch=1 n=f#6 v=0
75414 On ch=1 n=d6 v=0
75440 On ch=1 n=g6 v=91
75464 On ch=1 n=b5 v=70
75492 On ch=1 n=g6 v=0
75492 On ch=1 n=c6 v=0
75590 On ch=1 n=b5 v=0
75664 On ch=1 n=g6 v=94
75734 On ch=1 n=g6 v=0
75866 On ch=1 n=f#5 v=80
75928 On ch=1 n=f#5 v=0
75948 On ch=1 n=d6 v=74
76026 On ch=1 n=d6 v=0
76052 On ch=1 n=a6 v=79
76074 On ch=1 n=f#5 v=85
76126 On ch=1 n=a6 v=0
76140 On ch=1 n=d6 v=76
76144 On ch=1 n=f#5 v=0
76218 On ch=1 n=d6 v=0
76248 On ch=1 n=b6 v=93
76264 On ch=1 n=g5 v=70
76314 On ch=1 n=g5 v=0
76328 On ch=1 n=d6 v=88
76350 On ch=1 n=b6 v=0
76428 On ch=1 n=d6 v=0
76442 On ch=1 n=b6 v=94
76464 On ch=1 n=g5 v=88
76520 On ch=1 n=d6 v=92
76532 On ch=1 n=g5 v=0
76534 On ch=1 n=b6 v=0
76624 On ch=1 n=d6 v=0
76652 On ch=1 n=c7 v=109
76666 On ch=1 n=a5 v=92
76750 On ch=1 n=a5 v=0
76750 On ch=1 n=d6 v=90
76752 On ch=1 n=c7 v=0
76840 On ch=1 n=d6 v=0
76860 On ch=1 n=c7 v=109
76862 On ch=1 n=a5 v=92
76940 On ch=1 n=d6 v=101
76950 On ch=1 n=a5 v=0
76950 On ch=1 n=c7 v=0
77078 On ch=1 n=d7 v=111
77088 On ch=1 n=b5 v=98
77178 Par ch=1 c=64 v=63
77190 On ch=1 n=d6 v=0
77208 Par ch=1 c=64 v=127
77296 On ch=1 n=d7 v=0
77318 On ch=1 n=b6 v=87
77398 On ch=1 n=b5 v=0
77420 On ch=1 n=b6 v=0
77508 Par ch=1 c=64 v=63
77538 Par ch=1 c=64 v=0
77540 On ch=1 n=g6 v=91
77642 Par ch=1 c=64 v=63
77678 Par ch=1 c=64 v=127
77738 On ch=1 n=b6 v=91
77742 On ch=1 n=g6 v=0
77826 On ch=1 n=b6 v=0
77926 Par ch=1 c=64 v=63
77956 Par ch=1 c=64 v=0
77958 On ch=1 n=d6 v=84
78028 Par ch=1 c=64 v=63
78086 Par ch=1 c=64 v=127
78142 On ch=1 n=g6 v=80
78158 On ch=1 n=d6 v=0
78196 Par ch=1 c=64 v=63
78228 Par ch=1 c=64 v=0
78238 On ch=1 n=g6 v=0
78368 On ch=1 n=b5 v=78
78392 Par ch=1 c=64 v=63
78434 Par ch=1 c=64 v=127
78550 On ch=1 n=d6 v=84
78570 On ch=1 n=b5 v=0
78598 Par ch=1 c=64 v=63
78638 On ch=1 n=d6 v=0
78696 Par ch=1 c=64 v=0
78772 On ch=1 n=a5 v=85
78986 On ch=1 n=a5 v=0
78988 On ch=1 n=e6 v=83
79070 On ch=1 n=e6 v=0
79200 On ch=1 n=d6 v=86
79202 On ch=1 n=a4 v=67
79208 On ch=1 n=c4 v=64
79214 On ch=1 n=e4 v=81
79260 On ch=1 n=e4 v=0
79278 On ch=1 n=a4 v=0
79290 On ch=1 n=c4 v=0
79314 On ch=1 n=d6 v=0
79322 On ch=1 n=c6 v=86
79398 On ch=1 n=b5 v=86
79408 On ch=1 n=c6 v=0
79486 On ch=1 n=a5 v=76
79506 On ch=1 n=b5 v=0
79582 On ch=1 n=a5 v=0
79604 On ch=1 n=g5 v=91
79618 Par ch=1 c=64 v=63
79620 On ch=1 n=b4 v=59
79628 On ch=1 n=d4 v=52
79630 On ch=1 n=g4 v=57
79632 Par ch=1 c=64 v=127
79744 On ch=1 n=g5 v=0
79764 On ch=1 n=g4 v=0
79802 On ch=1 n=b4 v=0
79996 Par ch=1 c=64 v=63
80066 On ch=1 n=f#5 v=81
80070 On ch=1 n=c5 v=58
80074 On ch=1 n=a4 v=41
80082 Par ch=1 c=64 v=127
80134 On ch=1 n=f#5 v=0
80146 On ch=1 n=g5 v=81
80148 On ch=1 n=c5 v=0
80168 On ch=1 n=a4 v=0
80202 On ch=1 n=d4 v=0
80266 On ch=1 n=f#5 v=68
80308 On ch=1 n=g5 v=0
80360 On ch=1 n=f#5 v=0
80364 On ch=1 n=e5 v=71
80424 Par ch=1 c=64 v=63
80446 On ch=1 n=f#5 v=86
80448 Par ch=1 c=64 v=0
80452 On ch=1 n=e5 v=0
80528 On ch=1 n=g5 v=85
80536 On ch=1 n=g4 v=73
80552 On ch=1 n=f#5 v=0
80554 Par ch=1 c=64 v=63
80580 Par ch=1 c=64 v=127
80728 On ch=1 n=b4 v=55
80816 On ch=1 n=g5 v=0
80938 On ch=1 n=b4 v=0
80940 On ch=1 n=d5 v=77
81048 On ch=1 n=g6 v=101
81100 On ch=1 n=d5 v=0
81112 Par ch=1 c=64 v=63
81140 On ch=1 n=g6 v=0
81148 Par ch=1 c=64 v=0
81150 On ch=1 n=a6 v=89
81156 On ch=1 n=b4 v=60
81164 On ch=1 n=g4 v=0
81220 On ch=1 n=g6 v=89
81240 Par ch=1 c=64 v=63
81244 On ch=1 n=a6 v=0
81276 Par ch=1 c=64 v=127
81324 On ch=1 n=g6 v=0
81326 On ch=1 n=g4 v=61
81328 On ch=1 n=b4 v=0
81334 On ch=1 n=e6 v=93
81382 Par ch=1 c=64 v=63
81424 On ch=1 n=e6 v=0
81428 On ch=1 n=g6 v=93
81438 Par ch=1 c=64 v=0
81512 On ch=1 n=a6 v=101
81530 On ch=1 n=g6 v=0
81546 On ch=1 n=c5 v=72
81602 On ch=1 n=g6 v=90
81640 On ch=1 n=a6 v=0
81716 On ch=1 n=g6 v=0
81720 On ch=1 n=c5 v=0
81722 On ch=1 n=c7 v=101
81738 On ch=1 n=e5 v=72
81814 On ch=1 n=g6 v=94
81816 On ch=1 n=c7 v=0
81910 On ch=1 n=e6 v=94
81916 On ch=1 n=g6 v=0
81918 On ch=1 n=e5 v=0
81948 On ch=1 n=c5 v=50
81950 On ch=1 n=g4 v=0
81988 On ch=1 n=e6 v=0
81992 On ch=1 n=c6 v=87
82078 On ch=1 n=c6 v=0
82116 On ch=1 n=g6 v=90
82132 On ch=1 n=c5 v=0
82150 On ch=1 n=g4 v=42
82158 On ch=1 n=g6 v=0
82362 On ch=1 n=g6 v=98
82366 On ch=1 n=b4 v=68
82408 On ch=1 n=g6 v=0
82570 On ch=1 n=d5 v=73
82582 On ch=1 n=b4 v=0
82650 On ch=1 n=g6 v=97
82742 On ch=1 n=a6 v=92
82748 On ch=1 n=g6 v=0
82770 On ch=1 n=d5 v=0
82772 On ch=1 n=b4 v=71
82816 On ch=1 n=g6 v=83
82820 On ch=1 n=g4 v=0
82854 On ch=1 n=a6 v=0
82938 On ch=1 n=g6 v=0
82946 On ch=1 n=e6 v=91
82954 On ch=1 n=g4 v=58
82958 On ch=1 n=b4 v=0
83044 On ch=1 n=g6 v=92
83046 On ch=1 n=e6 v=0
83128 On ch=1 n=a6 v=89
83146 On ch=1 n=g6 v=0
83196 On ch=1 n=c5 v=49
83218 On ch=1 n=g6 v=79
83254 On ch=1 n=a6 v=0
83334 On ch=1 n=g6 v=0
83340 On ch=1 n=c7 v=90
83364 On ch=1 n=c5 v=0
83364 On ch=1 n=e5 v=59
83422 On ch=1 n=g6 v=78
83434 On ch=1 n=c7 v=0
83530 On ch=1 n=e6 v=83
83538 On ch=1 n=e5 v=0
83544 On ch=1 n=g6 v=0
83564 On ch=1 n=c5 v=53
83574 On ch=1 n=g4 v=0
83610 On ch=1 n=e6 v=0
83614 On ch=1 n=c6 v=84
83706 On ch=1 n=c6 v=0
83710 On ch=1 n=c5 v=0
83736 On ch=1 n=g6 v=84
83744 On ch=1 n=d5 v=71
83748 On ch=1 n=g4 v=51
83750 On ch=1 n=b4 v=67
83782 On ch=1 n=g6 v=0
83900 On ch=1 n=b4 v=0
83916 On ch=1 n=g4 v=0
83924 On ch=1 n=d5 v=0
83992 On ch=1 n=g6 v=75
84034 On ch=1 n=g6 v=0
84192 On ch=1 n=c6 v=99
84238 Par ch=1 c=64 v=63
84268 Par ch=1 c=64 v=127
84294 On ch=1 n=d6 v=92
84388 On ch=1 n=d6 v=0
84396 On ch=1 n=f#6 v=93
84474 On ch=1 n=d6 v=80
84498 On ch=1 n=f#6 v=0
84582 On ch=1 n=d6 v=0
84594 Par ch=1 c=64 v=63
84594 On ch=1 n=g6 v=86
84616 On ch=1 n=b5 v=51
84630 On ch=1 n=c6 v=0
84642 Par ch=1 c=64 v=0
84660 On ch=1 n=g6 v=0
84830 On ch=1 n=g6 v=93
84834 On ch=1 n=b5 v=0
84906 On ch=1 n=g6 v=0
85020 On ch=1 n=c6 v=108
85072 Par ch=1 c=64 v=63
85096 Par ch=1 c=64 v=127
85114 On ch=1 n=d6 v=91
85214 On ch=1 n=d6 v=0
85222 On ch=1 n=f#6 v=87
85296 On ch=1 n=d6 v=76
85316 On ch=1 n=f#6 v=0
85380 Par ch=1 c=64 v=63
85408 On ch=1 n=d6 v=0
85410 On ch=1 n=g6 v=89
85412 On ch=1 n=c6 v=0
85422 On ch=1 n=b5 v=86
85424 Par ch=1 c=64 v=0
85478 On ch=1 n=g6 v=0
85578 On ch=1 n=b5 v=0
85634 On ch=1 n=g6 v=97
85708 On ch=1 n=g6 v=0
85836 On ch=1 n=f#5 v=106
85900 On ch=1 n=f#5 v=0
85926 On ch=1 n=d6 v=77
86012 On ch=1 n=d6 v=0
86026 On ch=1 n=f#5 v=94
86032 On ch=1 n=a6 v=84
86092 On ch=1 n=f#5 v=0
86120 On ch=1 n=a6 v=0
86124 On ch=1 n=d6 v=84
86212 On ch=1 n=d6 v=0
86226 On ch=1 n=b6 v=101
86238 On ch=1 n=g5 v=93
86298 On ch=1 n=g5 v=0
86318 On ch=1 n=d6 v=94
86336 On ch=1 n=b6 v=0
86422 On ch=1 n=b6 v=100
86424 On ch=1 n=d6 v=0
86440 On ch=1 n=g5 v=102
86516 On ch=1 n=d6 v=98
86522 On ch=1 n=g5 v=0
86522 On ch=1 n=b6 v=0
86612 On ch=1 n=d6 v=0
86638 On ch=1 n=c7 v=111
86646 On ch=1 n=a5 v=98
86720 On ch=1 n=d6 v=96
86722 On ch=1 n=a5 v=0
86736 On ch=1 n=c7 v=0
86818 On ch=1 n=d6 v=0
86838 On ch=1 n=c7 v=106
86864 On ch=1 n=a5 v=79
86926 On ch=1 n=a5 v=0
86928 On ch=1 n=d6 v=88
86930 On ch=1 n=c7 v=0
87000 On ch=1 n=d6 v=0
87066 Par ch=1 c=64 v=63
87066 On ch=1 n=d7 v=111
87076 On ch=1 n=b5 v=114
87090 Par ch=1 c=64 v=127
87162 On ch=1 n=b6 v=99
87200 On ch=1 n=d7 v=0
87268 On ch=1 n=d7 v=97
87282 On ch=1 n=b6 v=0
87366 On ch=1 n=b6 v=93
87410 On ch=1 n=d7 v=0
87464 On ch=1 n=b6 v=0
87476 On ch=1 n=g6 v=89
87556 On ch=1 n=g6 v=0
87574 On ch=1 n=b6 v=98
87662 On ch=1 n=g6 v=87
87668 On ch=1 n=b6 v=0
87724 On ch=1 n=b5 v=0
87746 On ch=1 n=b6 v=94
87756 On ch=1 n=g6 v=0
87802 On ch=1 n=b6 v=0
87870 On ch=1 n=d6 v=93
87950 On ch=1 n=d6 v=0
87980 On ch=1 n=g6 v=96
88082 On ch=1 n=d6 v=81
88090 On ch=1 n=g6 v=0
88168 On ch=1 n=d6 v=0
88168 On ch=1 n=g6 v=84
88252 On ch=1 n=g6 v=0
88264 On ch=1 n=b5 v=92
88344 On ch=1 n=b5 v=0
88370 On ch=1 n=d6 v=94
88426 Par ch=1 c=64 v=63
88458 On ch=1 n=d6 v=0
88468 Par ch=1 c=64 v=0
88494 On ch=1 n=b5 v=84
88558 On ch=1 n=d6 v=84
88584 On ch=1 n=b5 v=0
88674 On ch=1 n=d6 v=0
88684 On ch=1 n=a5 v=84
88768 On ch=1 n=a5 v=0
88798 On ch=1 n=e6 v=91
88910 On ch=1 n=d#6 v=85
88920 On ch=1 n=e6 v=0
88994 On ch=1 n=e6 v=79
89012 On ch=1 n=d#6 v=0
89094 On ch=1 n=a4 v=85
89102 On ch=1 n=d6 v=91
89120 On ch=1 n=e4 v=80
89138 On ch=1 n=c4 v=85
89144 On ch=1 n=e6 v=0
89204 On ch=1 n=e4 v=0
89210 On ch=1 n=c6 v=75
89212 On ch=1 n=d6 v=0
89232 On ch=1 n=a4 v=0
89240 On ch=1 n=c4 v=0
89294 On ch=1 n=b5 v=85
89302 On ch=1 n=c6 v=0
89390 On ch=1 n=b5 v=0
89402 On ch=1 n=a5 v=79
89480 On ch=1 n=a5 v=0
89516 On ch=1 n=g5 v=100
89524 On ch=1 n=b4 v=62
89532 On ch=1 n=g4 v=60
89538 On ch=1 n=d4 v=92
89552 Par ch=1 c=64 v=63
89558 Par ch=1 c=64 v=127
89582 On ch=1 n=g5 v=0
89622 On ch=1 n=g4 v=0
89632 On ch=1 n=b4 v=0
89926 Par ch=1 c=64 v=63
89958 On ch=1 n=c5 v=65
89958 On ch=1 n=f#5 v=105
89970 Par ch=1 c=64 v=127
89976 On ch=1 n=a4 v=46
90006 On ch=1 n=c5 v=0
90020 On ch=1 n=f#5 v=0
90024 On ch=1 n=g5 v=57
90040 On ch=1 n=a4 v=0
90078 On ch=1 n=g5 v=0
90108 On ch=1 n=f#5 v=87
90148 On ch=1 n=g5 v=71
90158 On ch=1 n=f#5 v=0
90212 On ch=1 n=f#5 v=92
90216 On ch=1 n=g5 v=0
90216 Par ch=1 c=64 v=63
90236 Par ch=1 c=64 v=0
90256 On ch=1 n=d4 v=0
90286 On ch=1 n=e5 v=86
90292 On ch=1 n=f#5 v=0
90340 On ch=1 n=f#5 v=87
90364 On ch=1 n=e5 v=0
90396 On ch=1 n=g5 v=99
90410 Par ch=1 c=64 v=63
90412 On ch=1 n=g4 v=97
90424 Par ch=1 c=64 v=127
90438 On ch=1 n=f#5 v=0
90760 On ch=1 n=g5 v=0
90768 On ch=1 n=d4 v=86
90778 On ch=1 n=d5 v=91
90782 On ch=1 n=g4 v=0
90808 Par ch=1 c=64 v=63
90830 Par ch=1 c=64 v=0
90832 On ch=1 n=d5 v=0
90866 On ch=1 n=d4 v=0
90866 On ch=1 n=b5 v=108
90868 On ch=1 n=b4 v=109
90882 Par ch=1 c=64 v=63
90930 Par ch=1 c=64 v=127
91200 On ch=1 n=g4 v=98
91202 On ch=1 n=b5 v=0
91232 On ch=1 n=g5 v=85
91238 Par ch=1 c=64 v=63
91252 On ch=1 n=b4 v=0
91268 Par ch=1 c=64 v=0
91308 On ch=1 n=d6 v=111
91310 Par ch=1 c=64 v=63
91322 On ch=1 n=d5 v=108
91346 On ch=1 n=g5 v=0
91366 Par ch=1 c=64 v=127
91386 On ch=1 n=g4 v=0
91510 On ch=1 n=d6 v=0
91550 On ch=1 n=d5 v=0
91664 Par ch=1 c=64 v=63
91814 On ch=1 n=a6 v=83
91832 Par ch=1 c=64 v=0
91908 On ch=1 n=g6 v=68
91916 On ch=1 n=a6 v=0
92012 On ch=1 n=f#6 v=73
92022 On ch=1 n=g6 v=0
92106 On ch=1 n=e6 v=79
92130 On ch=1 n=f#6 v=0
92226 On ch=1 n=d6 v=86
92232 On ch=1 n=e6 v=0
92254 On ch=1 n=b4 v=88
92256 On ch=1 n=d4 v=89
92262 On ch=1 n=g4 v=76
92300 On ch=1 n=g4 v=0
92300 On ch=1 n=d6 v=0
92328 On ch=1 n=d4 v=0
92328 On ch=1 n=b4 v=0
92724 On ch=1 n=e6 v=77
92818 On ch=1 n=d6 v=69
92842 On ch=1 n=e6 v=0
92926 On ch=1 n=c6 v=60
92950 On ch=1 n=d6 v=0
93010 On ch=1 n=b5 v=68
93048 On ch=1 n=c6 v=0
93126 On ch=1 n=a5 v=79
93130 On ch=1 n=b5 v=0
93148 On ch=1 n=c5 v=78
93156 On ch=1 n=f#4 v=81
93156 On ch=1 n=d4 v=65
93192 On ch=1 n=a5 v=0
93206 On ch=1 n=f#4 v=0
93206 On ch=1 n=c5 v=0
93212 On ch=1 n=d4 v=0
93622 On ch=1 n=d6 v=84
93716 Par ch=1 c=64 v=63
93724 On ch=1 n=c6 v=70
93730 Par ch=1 c=64 v=127
93756 On ch=1 n=d6 v=0
93814 On ch=1 n=b5 v=57
93844 On ch=1 n=c6 v=0
93890 On ch=1 n=a5 v=84
93896 On ch=1 n=b5 v=0
93958 On ch=1 n=a5 v=0
94028 On ch=1 n=g4 v=84
94030 On ch=1 n=g5 v=98
94044 Par ch=1 c=64 v=63
94054 Par ch=1 c=64 v=0
94114 On ch=1 n=d4 v=99
94120 On ch=1 n=g5 v=0
94128 On ch=1 n=d5 v=86
94130 On ch=1 n=g4 v=0
94200 On ch=1 n=d5 v=0
94232 On ch=1 n=g4 v=84
94238 On ch=1 n=d4 v=0
94238 On ch=1 n=g5 v=94
94316 On ch=1 n=d4 v=94
94328 On ch=1 n=g5 v=0
94328 On ch=1 n=d5 v=96
94332 On ch=1 n=g4 v=0
94396 On ch=1 n=d5 v=0
94430 On ch=1 n=d4 v=0
94442 On ch=1 n=b5 v=100
94450 On ch=1 n=b4 v=109
94518 On ch=1 n=b5 v=0
94542 On ch=1 n=g5 v=91
94546 On ch=1 n=b4 v=0
94560 On ch=1 n=g4 v=96
94630 On ch=1 n=g5 v=0
94634 On ch=1 n=b5 v=86
94686 On ch=1 n=b4 v=88
94690 On ch=1 n=g4 v=0
94708 On ch=1 n=b5 v=0
94732 On ch=1 n=g4 v=83
94732 On ch=1 n=g5 v=86
94744 On ch=1 n=b4 v=0
94826 On ch=1 n=g5 v=0
94852 On ch=1 n=g4 v=0
94860 On ch=1 n=d6 v=113
94866 On ch=1 n=d5 v=109
94892 Par ch=1 c=64 v=63
94896 Par ch=1 c=64 v=127
94930 On ch=1 n=d6 v=0
94932 On ch=1 n=d5 v=0
95316 Par ch=1 c=64 v=63
95342 On ch=1 n=a6 v=91
95356 Par ch=1 c=64 v=0
95430 On ch=1 n=g6 v=84
95454 On ch=1 n=a6 v=0
95530 On ch=1 n=f#6 v=83
95550 On ch=1 n=g6 v=0
95626 On ch=1 n=e6 v=85
95644 On ch=1 n=f#6 v=0
95750 On ch=1 n=e6 v=0
95752 On ch=1 n=b4 v=85
95756 On ch=1 n=d6 v=85
95762 On ch=1 n=d4 v=79
95764 On ch=1 n=g4 v=68
95806 On ch=1 n=g4 v=0
95806 On ch=1 n=d6 v=0
95806 On ch=1 n=b4 v=0
95824 On ch=1 n=d4 v=0
95968 On ch=1 n=d6 v=89
96026 On ch=1 n=d6 v=0
96194 On ch=1 n=e6 v=84
96288 On ch=1 n=d6 v=78
96306 On ch=1 n=e6 v=0
96400 On ch=1 n=c6 v=60
96402 On ch=1 n=d6 v=0
96478 On ch=1 n=b5 v=75
96488 On ch=1 n=c6 v=0
96572 On ch=1 n=b5 v=0
96588 On ch=1 n=a5 v=84
96632 On ch=1 n=c5 v=83
96638 On ch=1 n=f#4 v=76
96644 On ch=1 n=d4 v=59
96666 On ch=1 n=a5 v=0
96706 On ch=1 n=f#4 v=0
96708 On ch=1 n=c5 v=0
96712 On ch=1 n=d4 v=0
96844 On ch=1 n=a5 v=76
96900 On ch=1 n=a5 v=0
97056 On ch=1 n=d6 v=75
97174 On ch=1 n=c6 v=76
97176 On ch=1 n=d6 v=0
97258 On ch=1 n=b5 v=63
97276 On ch=1 n=c6 v=0
97348 On ch=1 n=a5 v=53
97374 On ch=1 n=b5 v=0
97456 On ch=1 n=g5 v=67
97464 On ch=1 n=b4 v=60
97470 On ch=1 n=a5 v=0
97478 On ch=1 n=g4 v=51
97518 On ch=1 n=g5 v=0
97526 On ch=1 n=b4 v=0
97532 On ch=1 n=g4 v=0
97950 On ch=1 n=b5 v=71
97966 On ch=1 n=d5 v=60
97970 On ch=1 n=g4 v=58
98006 On ch=1 n=b5 v=0
98028 On ch=1 n=d5 v=0
98038 On ch=1 n=g4 v=0
98386 Par ch=1 c=64 v=63
98418 Par ch=1 c=64 v=127
98474 On ch=1 n=b4 v=40
98482 On ch=1 n=g5 v=51
98490 On ch=1 n=g3 v=73
98546 On ch=1 n=g3 v=0
98580 On ch=1 n=b4 v=0
98658 On ch=1 n=g5 v=0
99190 Par ch=1 c=64 v=63
99246 Par ch=1 c=64 v=0
99632 Par ch=1 c=64 v=63
99636 On ch=1 n=d6 v=52
99666 On ch=1 n=g5 v=28
99674 Par ch=1 c=64 v=127
99956 On ch=1 n=b5 v=42
100046 On ch=1 n=g5 v=0
100208 On ch=1 n=g5 v=33
100216 On ch=1 n=b5 v=0
100372 On ch=1 n=d#6 v=70
100402 On ch=1 n=b5 v=42
100404 On ch=1 n=d6 v=0
100460 On ch=1 n=g5 v=0
100598 On ch=1 n=e6 v=76
100632 On ch=1 n=b5 v=0
100632 On ch=1 n=d#6 v=0
100632 On ch=1 n=g5 v=42
100810 On ch=1 n=f#6 v=96
100820 On ch=1 n=b5 v=54
100854 On ch=1 n=e6 v=0
100856 On ch=1 n=g5 v=0
101010 On ch=1 n=b5 v=0
101024 On ch=1 n=g6 v=85
101036 On ch=1 n=f5 v=49
101066 On ch=1 n=f#6 v=0
101224 On ch=1 n=b5 v=85
101228 On ch=1 n=g#5 v=66
101246 On ch=1 n=g6 v=0
101294 On ch=1 n=f5 v=0
101440 On ch=1 n=d6 v=83
101452 On ch=1 n=e5 v=47
101476 On ch=1 n=b5 v=0
101570 Par ch=1 c=64 v=63
101644 On ch=1 n=g#5 v=0
101670 On ch=1 n=c6 v=63
101674 On ch=1 n=g5 v=49
101686 On ch=1 n=e5 v=0
101724 On ch=1 n=d6 v=0
101800 Par ch=1 c=64 v=127
101876 On ch=1 n=e5 v=66
101928 On ch=1 n=g5 v=0
102002 On ch=1 n=c6 v=0
102086 On ch=1 n=b5 v=76
102088 On ch=1 n=g5 v=63
102098 Par ch=1 c=64 v=63
102160 On ch=1 n=e5 v=0
102230 Par ch=1 c=64 v=127
102290 On ch=1 n=c6 v=92
102304 On ch=1 n=e5 v=63
102320 On ch=1 n=g5 v=0
102340 On ch=1 n=b5 v=0
102492 On ch=1 n=g5 v=60
102494 On ch=1 n=d6 v=103
102540 On ch=1 n=c6 v=0
102546 On ch=1 n=e5 v=0
102578 Par ch=1 c=64 v=63
102706 On ch=1 n=d6 v=0
102706 On ch=1 n=d5 v=76
102718 On ch=1 n=g5 v=0
102720 Par ch=1 c=64 v=127
102722 On ch=1 n=e6 v=87
102868 On ch=1 n=e6 v=0
102910 On ch=1 n=d5 v=0
102912 On ch=1 n=f5 v=61
102914 On ch=1 n=g#5 v=88
103128 On ch=1 n=b5 v=87
103138 On ch=1 n=g#5 v=0
103140 On ch=1 n=c5 v=67
103158 On ch=1 n=f5 v=0
103194 Par ch=1 c=64 v=63
103264 Par ch=1 c=64 v=0
103368 On ch=1 n=a5 v=60
103390 On ch=1 n=e5 v=43
103416 On ch=1 n=c5 v=0
103426 Par ch=1 c=64 v=63
103442 On ch=1 n=b5 v=0
103458 Par ch=1 c=64 v=127
103618 On ch=1 n=c5 v=64
103640 On ch=1 n=e5 v=0
103650 On ch=1 n=a5 v=0
103814 On ch=1 n=g#5 v=89
103828 On ch=1 n=e5 v=58
103838 On ch=1 n=c5 v=0
103886 Par ch=1 c=64 v=63
104016 Par ch=1 c=64 v=127
104032 On ch=1 n=c5 v=65
104032 On ch=1 n=a5 v=86
104038 On ch=1 n=e5 v=0
104076 On ch=1 n=g#5 v=0
104214 On ch=1 n=c5 v=0
104224 On ch=1 n=e5 v=63
104224 On ch=1 n=b5 v=99
104252 Par ch=1 c=64 v=63
104256 On ch=1 n=a5 v=0
104340 Par ch=1 c=64 v=0
104430 On ch=1 n=c5 v=70
104434 On ch=1 n=c6 v=88
104436 On ch=1 n=b5 v=0
104448 On ch=1 n=e5 v=0
104616 On ch=1 n=f#5 v=91
104626 On ch=1 n=d#5 v=74
104640 On ch=1 n=c6 v=0
104648 Par ch=1 c=64 v=63
104670 Par ch=1 c=64 v=127
104674 On ch=1 n=c5 v=0
104798 Par ch=1 c=64 v=63
104824 On ch=1 n=b4 v=71
104830 On ch=1 n=a5 v=84
104832 On ch=1 n=f#5 v=0
104852 On ch=1 n=d#5 v=0
104924 Par ch=1 c=64 v=127
105040 On ch=1 n=d5 v=77
105042 On ch=1 n=a5 v=0
105044 On ch=1 n=g5 v=82
105064 On ch=1 n=b4 v=0
105274 On ch=1 n=c5 v=71
105288 On ch=1 n=e6 v=92
105306 On ch=1 n=g5 v=0
105334 On ch=1 n=d5 v=0
105344 Par ch=1 c=64 v=63
105458 Par ch=1 c=64 v=127
105538 On ch=1 n=f#5 v=82
105576 On ch=1 n=d5 v=78
105590 On ch=1 n=e6 v=0
105598 On ch=1 n=c5 v=0
105758 On ch=1 n=b4 v=66
105766 On ch=1 n=f#5 v=0
105776 On ch=1 n=a5 v=71
105780 On ch=1 n=d5 v=0
105886 Par ch=1 c=64 v=63
105966 On ch=1 n=d5 v=71
105968 Par ch=1 c=64 v=0
105972 On ch=1 n=g5 v=92
105978 On ch=1 n=b4 v=0
105982 Par ch=1 c=64 v=63
106036 On ch=1 n=a5 v=0
106038 Par ch=1 c=64 v=127
106194 On ch=1 n=c5 v=79
106196 On ch=1 n=e6 v=96
106200 On ch=1 n=g5 v=0
106226 On ch=1 n=d5 v=0
106230 Par ch=1 c=64 v=63
106346 Par ch=1 c=64 v=127
106398 On ch=1 n=f#5 v=89
106414 On ch=1 n=d5 v=59
106420 On ch=1 n=c5 v=0
106428 On ch=1 n=e6 v=0
106568 Par ch=1 c=64 v=63
106600 On ch=1 n=f#5 v=0
106614 On ch=1 n=b4 v=57
106616 Par ch=1 c=64 v=0
106618 On ch=1 n=a5 v=63
106656 On ch=1 n=d5 v=0
106770 Par ch=1 c=64 v=63
106806 On ch=1 n=d5 v=55
106812 Par ch=1 c=64 v=127
106814 On ch=1 n=g5 v=68
106820 On ch=1 n=b4 v=0
106860 On ch=1 n=a5 v=0
107058 On ch=1 n=g5 v=0
107058 On ch=1 n=c5 v=53
107074 On ch=1 n=d#6 v=61
107098 On ch=1 n=d5 v=0
107204 Par ch=1 c=64 v=63
107288 Par ch=1 c=64 v=127
107342 On ch=1 n=f#5 v=59
107348 On ch=1 n=d#5 v=44
107404 On ch=1 n=d#6 v=0
107404 On ch=1 n=c5 v=0
107552 On ch=1 n=b4 v=52
107554 On ch=1 n=a5 v=57
107580 On ch=1 n=f#5 v=0
107666 On ch=1 n=d#5 v=0
107702 Par ch=1 c=64 v=63
107744 On ch=1 n=g5 v=68
107748 On ch=1 n=d5 v=56
107774 On ch=1 n=a5 v=0
107832 On ch=1 n=b4 v=0
107872 Par ch=1 c=64 v=127
107930 On ch=1 n=g5 v=0
107950 On ch=1 n=c5 v=55
107980 On ch=1 n=d5 v=0
107982 On ch=1 n=d#6 v=63
108026 Par ch=1 c=64 v=63
108136 On ch=1 n=d#6 v=0
108144 Par ch=1 c=64 v=127
108162 On ch=1 n=f#5 v=66
108198 On ch=1 n=d#5 v=40
108280 On ch=1 n=c5 v=0
108364 On ch=1 n=f#5 v=0
108436 On ch=1 n=g5 v=64
108444 On ch=1 n=b4 v=24
108452 On ch=1 n=d5 v=38
108458 On ch=1 n=d#5 v=0
108490 Par ch=1 c=64 v=63
108554 Par ch=1 c=64 v=127
108694 On ch=1 n=g5 v=0
108710 On ch=1 n=a5 v=65
108804 On ch=1 n=a5 v=0
108812 On ch=1 n=b5 v=62
108860 On ch=1 n=b5 v=0
108896 On ch=1 n=c6 v=78
108980 On ch=1 n=d6 v=92
109004 On ch=1 n=c6 v=0
109062 On ch=1 n=e6 v=67
109074 On ch=1 n=d6 v=0
109148 On ch=1 n=f#6 v=84
109154 On ch=1 n=e6 v=0
109216 On ch=1 n=f#6 v=0
109236 On ch=1 n=d5 v=0
109240 On ch=1 n=g6 v=78
109266 On ch=1 n=b4 v=0
109328 On ch=1 n=a6 v=97
109336 On ch=1 n=g6 v=0
109420 On ch=1 n=b6 v=86
109430 On ch=1 n=a6 v=0
109520 On ch=1 n=f#6 v=83
109544 On ch=1 n=b6 v=0
109576 Par ch=1 c=64 v=63
109616 On ch=1 n=g6 v=94
109638 On ch=1 n=f#6 v=0
109710 On ch=1 n=d6 v=90
109716 On ch=1 n=g6 v=0
109718 Par ch=1 c=64 v=0
109806 On ch=1 n=d6 v=0
109818 On ch=1 n=e6 v=96
109916 On ch=1 n=b5 v=97
109924 On ch=1 n=e6 v=0
110034 On ch=1 n=d4 v=83
110062 On ch=1 n=d6 v=104
110090 On ch=1 n=b5 v=0
110220 Par ch=1 c=64 v=63
110252 Par ch=1 c=64 v=127
110316 On ch=1 n=b4 v=76
110530 On ch=1 n=g4 v=84
110564 On ch=1 n=b4 v=0
110602 On ch=1 n=d6 v=0
110690 On ch=1 n=d4 v=0
110702 On ch=1 n=b4 v=78
110748 On ch=1 n=g4 v=0
110910 On ch=1 n=b4 v=0
110922 On ch=1 n=d4 v=66
110944 On ch=1 n=c6 v=93
110978 Par ch=1 c=64 v=63
111056 Par ch=1 c=64 v=127
111132 On ch=1 n=a4 v=60
111142 On ch=1 n=c6 v=0
111144 On ch=1 n=d6 v=76
111206 On ch=1 n=d6 v=0
111244 On ch=1 n=c6 v=78
111312 On ch=1 n=d6 v=88
111332 On ch=1 n=c6 v=0
111340 On ch=1 n=a4 v=0
111350 On ch=1 n=f#4 v=66
111370 On ch=1 n=d6 v=0
111388 On ch=1 n=c6 v=84
111450 On ch=1 n=d6 v=91
111456 On ch=1 n=c6 v=0
111506 On ch=1 n=d4 v=0
111506 On ch=1 n=a4 v=65
111514 On ch=1 n=f#4 v=0
111520 On ch=1 n=d6 v=0
111520 On ch=1 n=c6 v=98
111586 On ch=1 n=b5 v=77
111598 On ch=1 n=c6 v=0
111652 On ch=1 n=c6 v=84
111664 On ch=1 n=b5 v=0
111688 On ch=1 n=a4 v=0
111760 On ch=1 n=g4 v=72
111762 On ch=1 n=b5 v=98
111802 Par ch=1 c=64 v=63
111804 On ch=1 n=c6 v=0
111842 Par ch=1 c=64 v=0
111976 Par ch=1 c=64 v=63
112006 Par ch=1 c=64 v=127
112008 On ch=1 n=b4 v=71
112190 On ch=1 n=b5 v=0
112234 On ch=1 n=d5 v=76
112276 On ch=1 n=b4 v=0
112434 On ch=1 n=b4 v=70
112450 On ch=1 n=d5 v=0
112474 On ch=1 n=g4 v=0
112630 On ch=1 n=g4 v=65
112654 On ch=1 n=b4 v=0
112662 Par ch=1 c=64 v=63
112842 Par ch=1 c=64 v=127
112852 On ch=1 n=a5 v=70
112924 On ch=1 n=g5 v=82
112934 On ch=1 n=a5 v=0
112948 Par ch=1 c=64 v=63
112980 On ch=1 n=f#5 v=91
113000 On ch=1 n=g5 v=0
113016 On ch=1 n=g4 v=0
113016 Par ch=1 c=64 v=0
113060 On ch=1 n=f#5 v=0
113084 On ch=1 n=g5 v=85
113140 On ch=1 n=g5 v=0
113288 On ch=1 n=b5 v=97
113374 On ch=1 n=b5 v=0
113512 On ch=1 n=g4 v=59
113568 On ch=1 n=e6 v=96
113618 Par ch=1 c=64 v=63
113638 Par ch=1 c=64 v=127
113780 On ch=1 n=b4 v=70
114012 On ch=1 n=d6 v=88
114016 On ch=1 n=d5 v=48
114044 On ch=1 n=b4 v=0
114140 On ch=1 n=e6 v=0
114208 On ch=1 n=b4 v=76
114246 On ch=1 n=d5 v=0
114260 On ch=1 n=g4 v=0
114336 On ch=1 n=d6 v=0
114416 On ch=1 n=g4 v=87
114430 Par ch=1 c=64 v=63
114456 On ch=1 n=b4 v=0
114468 Par ch=1 c=64 v=0
114620 Par ch=1 c=64 v=63
114632 On ch=1 n=c6 v=84
114660 Par ch=1 c=64 v=127
114684 On ch=1 n=b5 v=84
114714 On ch=1 n=c6 v=0
114756 On ch=1 n=a5 v=76
114766 On ch=1 n=b5 v=0
114778 Par ch=1 c=64 v=63
114800 On ch=1 n=g4 v=0
114820 Par ch=1 c=64 v=0
114822 On ch=1 n=b5 v=94
114840 On ch=1 n=a5 v=0
114910 On ch=1 n=b5 v=0
115044 On ch=1 n=d6 v=102
115112 On ch=1 n=d6 v=0
115250 On ch=1 n=g4 v=57
115276 On ch=1 n=g6 v=108
115348 Par ch=1 c=64 v=63
115370 Par ch=1 c=64 v=127
115466 On ch=1 n=b4 v=92
115690 On ch=1 n=f6 v=112
115704 On ch=1 n=d5 v=81
115734 On ch=1 n=b4 v=0
115760 On ch=1 n=g6 v=0
115896 On ch=1 n=b4 v=76
115936 On ch=1 n=g4 v=0
115944 On ch=1 n=d5 v=0
115990 On ch=1 n=f6 v=0
116098 On ch=1 n=g4 v=90
116132 On ch=1 n=b4 v=0
116258 Par ch=1 c=64 v=63
116302 On ch=1 n=e6 v=92
116350 On ch=1 n=d6 v=92
116374 On ch=1 n=e6 v=0
116390 On ch=1 n=g4 v=0
116390 Par ch=1 c=64 v=127
116400 On ch=1 n=c#6 v=100
116434 On ch=1 n=d6 v=0
116478 On ch=1 n=d6 v=108
116498 Par ch=1 c=64 v=63
116504 On ch=1 n=c#6 v=0
116532 Par ch=1 c=64 v=0
116668 On ch=1 n=d6 v=0
116702 Par ch=1 c=64 v=63
116718 Par ch=1 c=64 v=127
116728 On ch=1 n=f6 v=111
116958 On ch=1 n=g#4 v=100
117012 On ch=1 n=f6 v=0
117018 On ch=1 n=c7 v=108
117136 Par ch=1 c=64 v=63
117192 Par ch=1 c=64 v=0
117298 Par ch=1 c=64 v=63
117328 On ch=1 n=b6 v=109
117344 Par ch=1 c=64 v=127
117374 On ch=1 n=c7 v=0
117528 On ch=1 n=b4 v=98
117710 On ch=1 n=g#4 v=0
117732 On ch=1 n=d7 v=113
117774 On ch=1 n=b6 v=0
117950 On ch=1 n=d5 v=112
118030 On ch=1 n=b4 v=0
118136 On ch=1 n=g#6 v=115
118152 On ch=1 n=d7 v=0
118358 On ch=1 n=f5 v=102
118422 On ch=1 n=d5 v=0
118478 On ch=1 n=g#6 v=0
118546 On ch=1 n=b6 v=102
118660 On ch=1 n=f5 v=0
118770 On ch=1 n=b4 v=103
118992 On ch=1 n=d6 v=102
119032 On ch=1 n=b6 v=0
119230 On ch=1 n=a4 v=96
119290 On ch=1 n=b4 v=0
119448 On ch=1 n=f6 v=101
119488 Par ch=1 c=64 v=63
119522 On ch=1 n=d6 v=0
119604 Par ch=1 c=64 v=0
119672 On ch=1 n=g#4 v=95
119748 On ch=1 n=a4 v=0
119932 On ch=1 n=e6 v=90
120002 On ch=1 n=f6 v=0
120154 On ch=1 n=e5 v=68
120210 Par ch=1 c=64 v=63
120242 Par ch=1 c=64 v=127
120340 On ch=1 n=g#4 v=0
120352 On ch=1 n=d6 v=82
120426 On ch=1 n=e6 v=0
120628 On ch=1 n=a4 v=47
120666 On ch=1 n=c6 v=76
120714 On ch=1 n=d6 v=0
120762 On ch=1 n=e5 v=0
120894 Par ch=1 c=64 v=63
120956 On ch=1 n=c5 v=58
121048 Par ch=1 c=64 v=127
121190 On ch=1 n=e5 v=54
121234 On ch=1 n=c5 v=0
121366 On ch=1 n=a4 v=0
121396 On ch=1 n=c5 v=52
121458 On ch=1 n=e5 v=0
121562 On ch=1 n=a4 v=58
121576 On ch=1 n=c5 v=0
121674 On ch=1 n=c6 v=0
121782 On ch=1 n=d6 v=53
121806 On ch=1 n=c5 v=60
121822 On ch=1 n=c6 v=74
121840 On ch=1 n=d6 v=0
121912 On ch=1 n=b5 v=72
121914 On ch=1 n=c6 v=0
121986 On ch=1 n=c6 v=75
122004 On ch=1 n=c5 v=0
122012 On ch=1 n=f5 v=51
122018 On ch=1 n=b5 v=0
122106 Par ch=1 c=64 v=63
122144 Par ch=1 c=64 v=127
122234 On ch=1 n=d6 v=87
122252 On ch=1 n=c5 v=59
122264 On ch=1 n=c6 v=0
122302 On ch=1 n=f5 v=0
122378 On ch=1 n=d6 v=0
122470 On ch=1 n=c5 v=0
122472 On ch=1 n=g4 v=50
122508 On ch=1 n=a4 v=0
122508 On ch=1 n=c6 v=88
122638 Par ch=1 c=64 v=63
122748 Par ch=1 c=64 v=127
122754 On ch=1 n=d5 v=61
122956 On ch=1 n=f5 v=60
122982 On ch=1 n=d5 v=0
122986 On ch=1 n=c6 v=0
123154 On ch=1 n=f5 v=0
123158 On ch=1 n=d5 v=68
123192 On ch=1 n=g4 v=0
123338 On ch=1 n=g4 v=41
123344 On ch=1 n=a#5 v=88
123352 On ch=1 n=d5 v=0
123530 On ch=1 n=a#5 v=0
123560 On ch=1 n=c6 v=63
123588 On ch=1 n=c5 v=50
123652 On ch=1 n=c6 v=0
123670 On ch=1 n=a#5 v=74
123726 On ch=1 n=a#5 v=0
123726 On ch=1 n=c6 v=65
123768 On ch=1 n=c5 v=0
123774 On ch=1 n=e5 v=55
123814 On ch=1 n=a#5 v=86
123820 On ch=1 n=c6 v=0
123872 On ch=1 n=a#5 v=0
123878 On ch=1 n=c6 v=79
123944 On ch=1 n=c6 v=0
123946 On ch=1 n=c5 v=70
123946 On ch=1 n=a#5 v=101
123952 On ch=1 n=e5 v=0
124014 On ch=1 n=g4 v=0
124018 On ch=1 n=a5 v=42
124028 On ch=1 n=a#5 v=0
124088 On ch=1 n=a#5 v=84
124116 On ch=1 n=a5 v=0
124198 Par ch=1 c=64 v=63
124200 On ch=1 n=a5 v=98
124208 On ch=1 n=f4 v=71
124222 On ch=1 n=a#5 v=0
124234 On ch=1 n=c5 v=0
124270 Par ch=1 c=64 v=0
124296 Par ch=1 c=64 v=63
124356 Par ch=1 c=64 v=127
124462 On ch=1 n=c5 v=80
124464 On ch=1 n=c6 v=100
124540 On ch=1 n=a5 v=0
124696 On ch=1 n=f5 v=93
124738 On ch=1 n=c5 v=0
124876 On ch=1 n=c6 v=0
124902 On ch=1 n=f6 v=112
124916 On ch=1 n=c5 v=87
124956 On ch=1 n=f5 v=0
125004 On ch=1 n=f4 v=0
125104 On ch=1 n=f4 v=98
125110 On ch=1 n=f6 v=0
125186 On ch=1 n=c5 v=0
125314 On ch=1 n=a6 v=112
125324 On ch=1 n=a4 v=91
125484 Par ch=1 c=64 v=63
125540 On ch=1 n=d5 v=101
125582 Par ch=1 c=64 v=127
125624 On ch=1 n=a4 v=0
125690 On ch=1 n=a6 v=0
125752 On ch=1 n=a#6 v=112
125766 On ch=1 n=a4 v=76
125818 On ch=1 n=f4 v=0
125922 On ch=1 n=a4 v=0
125996 On ch=1 n=a#6 v=0
126010 On ch=1 n=e4 v=84
126012 On ch=1 n=a6 v=108
126056 On ch=1 n=d5 v=0
126152 Par ch=1 c=64 v=63
126206 Par ch=1 c=64 v=0
126284 On ch=1 n=a4 v=65
126322 Par ch=1 c=64 v=63
126352 Par ch=1 c=64 v=127
126526 On ch=1 n=c#5 v=72
126566 On ch=1 n=a4 v=0
126730 On ch=1 n=a4 v=65
126748 On ch=1 n=c#5 v=0
126812 On ch=1 n=e4 v=0
126928 On ch=1 n=e4 v=77
126932 On ch=1 n=g6 v=80
126992 On ch=1 n=a4 v=0
126992 On ch=1 n=a6 v=0
127050 Par ch=1 c=64 v=63
127110 Par ch=1 c=64 v=0
127152 On ch=1 n=a4 v=65
127200 Par ch=1 c=64 v=63
127246 Par ch=1 c=64 v=127
127402 On ch=1 n=c#5 v=61
127414 On ch=1 n=g6 v=0
127416 On ch=1 n=a4 v=0
127512 On ch=1 n=e4 v=0
127578 On ch=1 n=c#5 v=0
127608 On ch=1 n=a4 v=48
127840 On ch=1 n=d4 v=63
127844 Par ch=1 c=64 v=63
127850 On ch=1 n=g6 v=82
127898 Par ch=1 c=64 v=0
127900 On ch=1 n=a4 v=0
128002 Par ch=1 c=64 v=63
128042 Par ch=1 c=64 v=127
128072 On ch=1 n=a4 v=57
128236 On ch=1 n=g6 v=0
128286 On ch=1 n=c5 v=65
128292 On ch=1 n=a4 v=0
128472 On ch=1 n=c5 v=0
128488 On ch=1 n=d4 v=0
128496 On ch=1 n=a4 v=46
128498 On ch=1 n=f#6 v=80
128670 On ch=1 n=a4 v=0
128706 On ch=1 n=d4 v=48
128720 On ch=1 n=f6 v=77
128726 On ch=1 n=f#6 v=0
128760 Par ch=1 c=64 v=63
128808 Par ch=1 c=64 v=0
128938 On ch=1 n=g4 v=49
129064 On ch=1 n=d4 v=0
129116 On ch=1 n=f6 v=0
129150 On ch=1 n=b4 v=63
129194 On ch=1 n=g4 v=0
129356 On ch=1 n=g4 v=60
129372 On ch=1 n=b4 v=0
129578 On ch=1 n=f6 v=87
129580 On ch=1 n=c4 v=65
129582 Par ch=1 c=64 v=63
129604 Par ch=1 c=64 v=127
129652 On ch=1 n=g4 v=0
129794 On ch=1 n=g4 v=54
129998 On ch=1 n=c5 v=53
130008 On ch=1 n=g4 v=0
130160 On ch=1 n=c4 v=0
130208 On ch=1 n=c5 v=0
130212 On ch=1 n=e6 v=73
130218 On ch=1 n=g4 v=40
130232 On ch=1 n=f6 v=0
130432 On ch=1 n=c4 v=48
130440 On ch=1 n=g4 v=0
130450 On ch=1 n=d#6 v=60
130488 Par ch=1 c=64 v=63
130492 On ch=1 n=e6 v=0
130544 Par ch=1 c=64 v=0
130662 On ch=1 n=g4 v=40
130810 On ch=1 n=d#6 v=0
130886 On ch=1 n=c5 v=51
130896 On ch=1 n=g4 v=0
131028 Par ch=1 c=64 v=63
131046 On ch=1 n=c4 v=0
131074 Par ch=1 c=64 v=127
131088 On ch=1 n=g4 v=45
131154 On ch=1 n=c5 v=0
131350 On ch=1 n=d#6 v=72
131366 On ch=1 n=g4 v=0
131376 On ch=1 n=f4 v=36
131606 On ch=1 n=d6 v=72
131650 On ch=1 n=g#4 v=43
131652 On ch=1 n=d#6 v=0
131722 On ch=1 n=d6 v=0
131798 On ch=1 n=g#4 v=0
131830 On ch=1 n=c5 v=47
131834 On ch=1 n=d6 v=79
131942 On ch=1 n=d6 v=0
131958 On ch=1 n=f4 v=0
132006 On ch=1 n=g#4 v=63
132020 On ch=1 n=d6 v=83
132022 On ch=1 n=c5 v=0
132124 On ch=1 n=d6 v=0
132202 On ch=1 n=f4 v=62
132214 On ch=1 n=g#4 v=0
132222 On ch=1 n=d6 v=96
132264 Par ch=1 c=64 v=63
132412 Par ch=1 c=64 v=127
132412 On ch=1 n=g#4 v=77
132520 On ch=1 n=d6 v=0
132630 On ch=1 n=d6 v=108
132632 On ch=1 n=c5 v=78
132652 On ch=1 n=g#4 v=0
132814 On ch=1 n=g#4 v=78
132878 On ch=1 n=f4 v=0
132892 On ch=1 n=d6 v=0
132926 On ch=1 n=c5 v=0
133022 On ch=1 n=d6 v=101
133048 On ch=1 n=f#4 v=94
133072 Par ch=1 c=64 v=63
133104 On ch=1 n=g#4 v=0
133184 Par ch=1 c=64 v=127
133272 On ch=1 n=a4 v=83
133388 On ch=1 n=d6 v=0
133506 On ch=1 n=c5 v=70
133510 On ch=1 n=f6 v=98
133536 On ch=1 n=a4 v=0
133600 Par ch=1 c=64 v=63
133704 Par ch=1 c=64 v=127
133776 On ch=1 n=d#6 v=91
133778 On ch=1 n=a4 v=51
133862 On ch=1 n=f#4 v=0
133872 On ch=1 n=f6 v=0
133996 Par ch=1 c=64 v=63
134000 On ch=1 n=f#4 v=71
134056 Par ch=1 c=64 v=127
134084 On ch=1 n=a4 v=0
134142 On ch=1 n=c5 v=0
134212 On ch=1 n=a4 v=79
134346 On ch=1 n=d#6 v=0
134352 Par ch=1 c=64 v=63
134428 On ch=1 n=d6 v=83
134436 On ch=1 n=c5 v=68
134454 On ch=1 n=a4 v=0
134466 Par ch=1 c=64 v=127
134594 On ch=1 n=c5 v=0
134598 On ch=1 n=a4 v=59
134600 On ch=1 n=d6 v=0
134600 On ch=1 n=c6 v=82
134662 Par ch=1 c=64 v=63
134672 On ch=1 n=f#4 v=0
134718 Par ch=1 c=64 v=0
134820 On ch=1 n=b5 v=84
134820 On ch=1 n=g4 v=64
134830 Par ch=1 c=64 v=63
134842 On ch=1 n=a4 v=0
134846 On ch=1 n=c6 v=0
134866 Par ch=1 c=64 v=127
135028 Par ch=1 c=64 v=63
135044 On ch=1 n=b5 v=0
135048 On ch=1 n=g4 v=0
135060 On ch=1 n=g6 v=65
135096 Par ch=1 c=64 v=0
135152 On ch=1 n=g6 v=0
135266 On ch=1 n=g4 v=65
135396 Par ch=1 c=64 v=63
135428 Par ch=1 c=64 v=127
135456 On ch=1 n=g6 v=82
135492 Par ch=1 c=64 v=63
135532 On ch=1 n=g4 v=0
135570 On ch=1 n=g6 v=0
135622 Par ch=1 c=64 v=0
135676 On ch=1 n=a4 v=68
135680 On ch=1 n=g4 v=64
135866 On ch=1 n=f#6 v=93
135936 On ch=1 n=a4 v=0
135956 On ch=1 n=g4 v=0
135998 On ch=1 n=f#6 v=0
136076 On ch=1 n=b4 v=99
136088 On ch=1 n=g4 v=75
136274 On ch=1 n=f6 v=98
136348 On ch=1 n=g4 v=0
136366 On ch=1 n=b4 v=0
136404 On ch=1 n=f6 v=0
136492 On ch=1 n=c5 v=99
136492 On ch=1 n=g4 v=86
136506 On ch=1 n=f6 v=100
136586 Par ch=1 c=64 v=63
136604 Par ch=1 c=64 v=127
136670 On ch=1 n=g4 v=0
136696 On ch=1 n=c5 v=0
136700 On ch=1 n=e6 v=99
136766 On ch=1 n=f6 v=0
136816 On ch=1 n=e6 v=0
136912 Par ch=1 c=64 v=63
136936 On ch=1 n=g5 v=91
136956 On ch=1 n=g4 v=38
136962 Par ch=1 c=64 v=0
137088 Par ch=1 c=64 v=63
137134 Par ch=1 c=64 v=127
137158 On ch=1 n=d#6 v=88
137210 On ch=1 n=g4 v=0
137222 On ch=1 n=g5 v=0
137252 On ch=1 n=d#6 v=0
137378 On ch=1 n=f5 v=81
137386 On ch=1 n=g4 v=72
137392 Par ch=1 c=64 v=63
137460 Par ch=1 c=64 v=0
137504 Par ch=1 c=64 v=63
137578 On ch=1 n=d6 v=84
137590 Par ch=1 c=64 v=127
137624 On ch=1 n=g4 v=0
137694 On ch=1 n=d6 v=0
137706 On ch=1 n=f5 v=0
137762 Par ch=1 c=64 v=63
137784 On ch=1 n=d#5 v=81
137800 On ch=1 n=g4 v=49
137822 Par ch=1 c=64 v=0
137970 Par ch=1 c=64 v=63
137980 On ch=1 n=c6 v=78
138002 Par ch=1 c=64 v=127
138038 On ch=1 n=g4 v=0
138076 On ch=1 n=c6 v=0
138078 On ch=1 n=d#5 v=0
138152 Par ch=1 c=64 v=63
138184 On ch=1 n=c6 v=84
138190 On ch=1 n=d5 v=68
138196 On ch=1 n=g4 v=55
138328 Par ch=1 c=64 v=127
138380 On ch=1 n=g4 v=0
138390 On ch=1 n=b5 v=79
138398 On ch=1 n=c6 v=0
138440 On ch=1 n=d5 v=0
138464 On ch=1 n=b5 v=0
138472 Par ch=1 c=64 v=63
138580 On ch=1 n=b4 v=72
138582 On ch=1 n=g4 v=48
138598 Par ch=1 c=64 v=0
138692 On ch=1 n=g6 v=63
138730 On ch=1 n=b4 v=0
138740 Par ch=1 c=64 v=63
138772 On ch=1 n=g4 v=0
138788 On ch=1 n=g6 v=0
138794 On ch=1 n=a6 v=66
138890 On ch=1 n=g6 v=69
138908 On ch=1 n=a6 v=0
138958 On ch=1 n=g6 v=0
138962 On ch=1 n=a4 v=64
138970 On ch=1 n=g4 v=63
139088 On ch=1 n=f#6 v=94
139130 On ch=1 n=g4 v=0
139162 On ch=1 n=a4 v=0
139188 On ch=1 n=f#6 v=0
139194 On ch=1 n=g6 v=70
139266 On ch=1 n=f#6 v=82
139312 On ch=1 n=g6 v=0
139346 On ch=1 n=b4 v=83
139360 On ch=1 n=f#6 v=0
139360 On ch=1 n=g4 v=66
139440 Par ch=1 c=64 v=0
139474 On ch=1 n=f6 v=98
139524 On ch=1 n=b4 v=0
139550 On ch=1 n=g4 v=0
139562 On ch=1 n=g6 v=88
139578 On ch=1 n=f6 v=0
139650 On ch=1 n=f6 v=92
139698 On ch=1 n=g6 v=0
139738 On ch=1 n=c5 v=97
139742 On ch=1 n=g4 v=78
139750 On ch=1 n=f6 v=0
139848 On ch=1 n=e6 v=96
139890 On ch=1 n=c5 v=0
139938 On ch=1 n=g4 v=0
139950 On ch=1 n=e6 v=0
139950 On ch=1 n=f6 v=96
140028 On ch=1 n=e6 v=94
140046 On ch=1 n=f6 v=0
140124 On ch=1 n=e6 v=0
140138 On ch=1 n=g4 v=85
140142 On ch=1 n=g5 v=97
140252 On ch=1 n=d#6 v=106
140342 On ch=1 n=f6 v=91
140354 On ch=1 n=d#6 v=0
140414 On ch=1 n=g4 v=0
140424 On ch=1 n=g5 v=0
140428 On ch=1 n=d#6 v=98
140466 On ch=1 n=f6 v=0
140522 On ch=1 n=d#6 v=0
140540 On ch=1 n=f5 v=107
140542 On ch=1 n=g4 v=96
140652 On ch=1 n=d6 v=100
140694 On ch=1 n=f5 v=0
140722 On ch=1 n=g4 v=0
140748 On ch=1 n=d#6 v=106
140752 On ch=1 n=d6 v=0
140834 On ch=1 n=d6 v=99
140848 On ch=1 n=d#6 v=0
140926 On ch=1 n=d6 v=0
140936 On ch=1 n=d#5 v=110
140942 On ch=1 n=f#4 v=99
141046 On ch=1 n=c6 v=107
141068 On ch=1 n=f#4 v=0
141070 On ch=1 n=d#5 v=0
141138 On ch=1 n=d6 v=85
141144 On ch=1 n=c6 v=0
141224 On ch=1 n=c6 v=102
141280 On ch=1 n=d6 v=0
141318 On ch=1 n=d5 v=104
141322 On ch=1 n=g4 v=96
141324 On ch=1 n=b5 v=111
141356 Par ch=1 c=64 v=63
141364 On ch=1 n=c6 v=0
141390 Par ch=1 c=64 v=127
141398 On ch=1 n=b5 v=0
141432 Par ch=1 c=64 v=63
141498 Par ch=1 c=64 v=0
141558 On ch=1 n=c6 v=94
141602 On ch=1 n=b5 v=94
141632 On ch=1 n=c6 v=0
141668 On ch=1 n=a5 v=94
141684 On ch=1 n=b5 v=0
141728 On ch=1 n=b5 v=101
141754 On ch=1 n=a5 v=0
141800 On ch=1 n=b5 v=0
141954 On ch=1 n=c6 v=109
142028 On ch=1 n=c6 v=0
142040 On ch=1 n=d5 v=0
142050 On ch=1 n=g4 v=0
142160 On ch=1 n=d6 v=113
142242 On ch=1 n=d6 v=0
142380 On ch=1 n=e6 v=99
142418 On ch=1 n=d6 v=96
142448 On ch=1 n=e6 v=0
142494 On ch=1 n=d6 v=0
142496 On ch=1 n=c#6 v=95
142554 On ch=1 n=d6 v=100
142564 On ch=1 n=c#6 v=0
142632 On ch=1 n=d6 v=0
142790 On ch=1 n=e6 v=118
142864 On ch=1 n=e6 v=0
143018 On ch=1 n=f6 v=125
143018 On ch=1 n=d5 v=108
143020 On ch=1 n=g4 v=101
143048 Par ch=1 c=64 v=63
143052 Par ch=1 c=64 v=127
143088 On ch=1 n=f6 v=0
143280 On ch=1 n=d5 v=0
143454 On ch=1 n=g4 v=0
143616 On ch=1 n=g6 v=93
143652 Par ch=1 c=64 v=63
143664 Par ch=1 c=64 v=0
143722 On ch=1 n=g6 v=0
143724 On ch=1 n=e6 v=97
143750 On ch=1 n=c#5 v=98
143800 On ch=1 n=g6 v=100
143828 On ch=1 n=e6 v=0
143834 On ch=1 n=c#5 v=0
143914 On ch=1 n=f6 v=113
143950 On ch=1 n=d5 v=98
143954 On ch=1 n=g4 v=88
143960 On ch=1 n=g6 v=0
143984 Par ch=1 c=64 v=63
143990 Par ch=1 c=64 v=127
144174 On ch=1 n=f6 v=0
144254 On ch=1 n=d5 v=0
144260 On ch=1 n=g4 v=0
144506 On ch=1 n=g6 v=97
144546 Par ch=1 c=64 v=63
144562 Par ch=1 c=64 v=0
144618 On ch=1 n=e6 v=96
144634 On ch=1 n=g6 v=0
144634 On ch=1 n=c#5 v=96
144700 On ch=1 n=g6 v=94
144718 On ch=1 n=c#5 v=0
144730 On ch=1 n=e6 v=0
144828 On ch=1 n=f6 v=107
144840 On ch=1 n=d5 v=97
144840 On ch=1 n=g4 v=88
144876 On ch=1 n=g6 v=0
144914 Par ch=1 c=64 v=63
144920 Par ch=1 c=64 v=127
145054 On ch=1 n=f6 v=0
145082 On ch=1 n=g4 v=0
145082 On ch=1 n=d5 v=0
145412 On ch=1 n=g6 v=78
145522 On ch=1 n=g6 v=0
145532 On ch=1 n=e6 v=72
145544 On ch=1 n=c#5 v=72
145562 Par ch=1 c=64 v=63
145562 Par ch=1 c=64 v=127
145582 Par ch=1 c=64 v=63
145602 Par ch=1 c=64 v=127
145624 On ch=1 n=g6 v=76
145628 On ch=1 n=e6 v=0
145630 Par ch=1 c=64 v=63
145684 On ch=1 n=c#5 v=0
145728 On ch=1 n=g4 v=60
145740 On ch=1 n=f6 v=87
145742 On ch=1 n=d5 v=48
145776 On ch=1 n=g6 v=0
145836 On ch=1 n=g6 v=86
145872 Par ch=1 c=64 v=127
145888 On ch=1 n=f6 v=0
145934 On ch=1 n=c#5 v=87
145944 On ch=1 n=e6 v=100
145962 On ch=1 n=g6 v=0
145970 On ch=1 n=d5 v=0
146024 On ch=1 n=g6 v=91
146056 On ch=1 n=g4 v=0
146066 On ch=1 n=e6 v=0
146122 On ch=1 n=f6 v=102
146124 On ch=1 n=c#5 v=0
146130 On ch=1 n=g4 v=77
146134 On ch=1 n=d5 v=96
146178 On ch=1 n=g6 v=0
146222 On ch=1 n=g6 v=100
146282 On ch=1 n=f6 v=0
146332 On ch=1 n=e6 v=103
146340 On ch=1 n=c#5 v=103
146368 On ch=1 n=g6 v=0
146408 On ch=1 n=d5 v=0
146430 On ch=1 n=g6 v=71
146440 Par ch=1 c=64 v=63
146458 On ch=1 n=g4 v=0
146460 On ch=1 n=e6 v=0
146524 On ch=1 n=g4 v=84
146530 On ch=1 n=d5 v=102
146534 On ch=1 n=f6 v=108
146546 On ch=1 n=c#5 v=0
146574 Par ch=1 c=64 v=127
146594 On ch=1 n=g6 v=0
146710 On ch=1 n=f6 v=0
146758 On ch=1 n=e6 v=101
146812 Par ch=1 c=64 v=63
146826 On ch=1 n=e6 v=0
146838 On ch=1 n=d5 v=0
146840 On ch=1 n=g4 v=0
146872 Par ch=1 c=64 v=0
146964 On ch=1 n=d6 v=94
147040 On ch=1 n=d6 v=0
147156 On ch=1 n=c6 v=103
147228 On ch=1 n=c6 v=0
147372 On ch=1 n=b5 v=89
147438 On ch=1 n=b5 v=0
147548 On ch=1 n=a4 v=76
147574 On ch=1 n=c6 v=85
147634 On ch=1 n=c6 v=0
147654 On ch=1 n=a4 v=0
147766 On ch=1 n=d6 v=97
147782 On ch=1 n=b4 v=97
147844 On ch=1 n=d6 v=0
147858 On ch=1 n=b4 v=0
147974 On ch=1 n=e6 v=97
147986 On ch=1 n=c5 v=102
148070 On ch=1 n=c5 v=0
148070 On ch=1 n=e6 v=0
148186 On ch=1 n=d5 v=102
148194 On ch=1 n=f6 v=103
148282 On ch=1 n=d5 v=0
148290 On ch=1 n=f6 v=0
148380 On ch=1 n=e6 v=106
148392 On ch=1 n=c5 v=107
148458 On ch=1 n=e6 v=0
148462 On ch=1 n=c5 v=0
148576 On ch=1 n=b4 v=108
148586 On ch=1 n=d6 v=100
148658 On ch=1 n=d6 v=0
148658 On ch=1 n=b4 v=0
148770 On ch=1 n=e6 v=113
148790 On ch=1 n=c5 v=109
148842 On ch=1 n=e6 v=0
148852 On ch=1 n=c5 v=0
148986 On ch=1 n=d5 v=109
148994 On ch=1 n=f6 v=113
149064 On ch=1 n=f6 v=0
149072 On ch=1 n=d5 v=0
149194 On ch=1 n=c#5 v=118
149198 On ch=1 n=e6 v=112
149274 On ch=1 n=e6 v=0
149280 On ch=1 n=c#5 v=0
149418 On ch=1 n=f6 v=118
149426 On ch=1 n=d5 v=113
149486 On ch=1 n=f6 v=0
149506 On ch=1 n=d5 v=0
149658 On ch=1 n=d#5 v=116
149660 On ch=1 n=f#6 v=118
149720 On ch=1 n=d#5 v=0
149732 On ch=1 n=f#6 v=0
149940 On ch=1 n=e5 v=107
149956 On ch=1 n=g6 v=118
150018 Par ch=1 c=64 v=63
150022 Par ch=1 c=64 v=127
150036 On ch=1 n=g6 v=0
150062 On ch=1 n=e5 v=0
150232 On ch=1 n=c5 v=99
150300 On ch=1 n=c5 v=0
150462 On ch=1 n=g6 v=114
150478 On ch=1 n=e5 v=81
150570 Par ch=1 c=64 v=63
150594 Par ch=1 c=64 v=127
150696 On ch=1 n=c5 v=85
150708 On ch=1 n=e5 v=0
150810 On ch=1 n=g6 v=0
150878 On ch=1 n=c5 v=0
150916 On ch=1 n=e5 v=92
151086 On ch=1 n=e5 v=0
151132 On ch=1 n=c5 v=70
151138 On ch=1 n=f6 v=90
151218 On ch=1 n=e6 v=90
151252 On ch=1 n=f6 v=0
151268 On ch=1 n=e6 v=0
151286 On ch=1 n=c5 v=0
151316 On ch=1 n=f5 v=84
151332 On ch=1 n=e6 v=91
151364 Par ch=1 c=64 v=63
151402 On ch=1 n=d6 v=87
151432 On ch=1 n=e6 v=0
151458 Par ch=1 c=64 v=127
151490 On ch=1 n=c6 v=89
151504 On ch=1 n=d6 v=0
151522 On ch=1 n=f5 v=0
151522 On ch=1 n=c5 v=68
151586 On ch=1 n=c6 v=0
151590 On ch=1 n=b5 v=92
151690 Par ch=1 c=64 v=63
151694 On ch=1 n=c6 v=98
151696 On ch=1 n=b5 v=0
151724 On ch=1 n=e5 v=77
151726 On ch=1 n=c5 v=0
151770 Par ch=1 c=64 v=127
151834 On ch=1 n=c6 v=0
151836 On ch=1 n=d6 v=85
151904 On ch=1 n=d6 v=0
151916 On ch=1 n=c6 v=72
151932 On ch=1 n=c5 v=65
151946 On ch=1 n=e5 v=0
151990 On ch=1 n=d6 v=86
151998 On ch=1 n=c6 v=0
152050 On ch=1 n=d6 v=0
152078 On ch=1 n=c6 v=78
152116 On ch=1 n=e5 v=79
152120 On ch=1 n=d6 v=87
152122 On ch=1 n=c5 v=0
152134 On ch=1 n=c6 v=0
152176 On ch=1 n=d6 v=0
152212 On ch=1 n=c6 v=74
152256 On ch=1 n=d6 v=86
152270 On ch=1 n=c6 v=0
152302 On ch=1 n=d6 v=0
152314 On ch=1 n=c5 v=71
152316 On ch=1 n=e5 v=0
152328 On ch=1 n=c6 v=78
152378 On ch=1 n=d6 v=85
152398 On ch=1 n=c6 v=0
152438 On ch=1 n=e6 v=99
152456 On ch=1 n=d6 v=0
152474 Par ch=1 c=64 v=63
152496 Par ch=1 c=64 v=0
152536 On ch=1 n=g5 v=98
152538 On ch=1 n=e5 v=81
152552 On ch=1 n=c5 v=0
152558 On ch=1 n=e6 v=0
152580 Par ch=1 c=64 v=63
152622 Par ch=1 c=64 v=127
152760 On ch=1 n=c5 v=76
152792 On ch=1 n=e5 v=0
152836 On ch=1 n=g5 v=0
152980 On ch=1 n=c5 v=0
152984 On ch=1 n=e5 v=81
153132 Par ch=1 c=64 v=63
153182 Par ch=1 c=64 v=0
153184 On ch=1 n=c5 v=73
153204 On ch=1 n=e5 v=0
153404 On ch=1 n=c5 v=0
153410 On ch=1 n=g6 v=98
153410 On ch=1 n=e5 v=75
153458 On ch=1 n=g6 v=0
153620 On ch=1 n=g6 v=113
153628 On ch=1 n=c5 v=74
153646 On ch=1 n=e5 v=0
153678 On ch=1 n=g6 v=0
153848 On ch=1 n=g6 v=117
153862 On ch=1 n=e5 v=84
153872 Par ch=1 c=64 v=63
153876 Par ch=1 c=64 v=127
153878 On ch=1 n=c5 v=0
153934 On ch=1 n=g6 v=0
154064 On ch=1 n=c5 v=68
154080 On ch=1 n=e5 v=0
154234 On ch=1 n=c5 v=0
154260 On ch=1 n=e5 v=78
154482 On ch=1 n=e5 v=0
154492 On ch=1 n=f6 v=99
154494 On ch=1 n=c5 v=67
154578 On ch=1 n=e6 v=80
154600 On ch=1 n=f6 v=0
154616 On ch=1 n=e6 v=0
154646 On ch=1 n=c5 v=0
154668 On ch=1 n=e6 v=96
154674 On ch=1 n=f5 v=76
154708 Par ch=1 c=64 v=63
154728 Par ch=1 c=64 v=0
154768 On ch=1 n=d6 v=80
154784 On ch=1 n=e6 v=0
154854 On ch=1 n=c6 v=92
154862 On ch=1 n=c5 v=60
154870 On ch=1 n=d6 v=0
154872 On ch=1 n=f5 v=0
154942 On ch=1 n=c6 v=0
154972 On ch=1 n=b5 v=90
155062 On ch=1 n=c5 v=0
155066 On ch=1 n=b5 v=0
155068 On ch=1 n=e5 v=68
155068 On ch=1 n=c6 v=92
155080 Par ch=1 c=64 v=63
155086 Par ch=1 c=64 v=127
155186 On ch=1 n=c6 v=0
155186 On ch=1 n=d6 v=84
155232 On ch=1 n=d6 v=0
155256 On ch=1 n=c6 v=71
155266 On ch=1 n=c5 v=58
155278 On ch=1 n=e5 v=0
155336 On ch=1 n=d6 v=89
155338 On ch=1 n=c6 v=0
155392 On ch=1 n=d6 v=0
155428 On ch=1 n=c6 v=84
155444 On ch=1 n=e5 v=71
155446 On ch=1 n=c5 v=0
155486 On ch=1 n=d6 v=84
155488 On ch=1 n=c6 v=0
155530 On ch=1 n=d6 v=0
155570 On ch=1 n=c6 v=80
155614 On ch=1 n=d6 v=87
155626 On ch=1 n=c6 v=0
155638 On ch=1 n=c5 v=71
155652 On ch=1 n=e5 v=0
155660 On ch=1 n=d6 v=0
155690 On ch=1 n=c6 v=73
155730 On ch=1 n=d6 v=89
155744 On ch=1 n=c6 v=0
155794 On ch=1 n=e6 v=97
155810 On ch=1 n=d6 v=0
155826 Par ch=1 c=64 v=63
155844 Par ch=1 c=64 v=0
155886 On ch=1 n=g5 v=99
155892 On ch=1 n=e5 v=74
155904 On ch=1 n=c5 v=0
155912 On ch=1 n=e6 v=0
155944 Par ch=1 c=64 v=63
155974 Par ch=1 c=64 v=127
156114 On ch=1 n=c5 v=80
156142 On ch=1 n=e5 v=0
156158 On ch=1 n=g5 v=0
156308 On ch=1 n=c5 v=0
156326 On ch=1 n=e5 v=77
156362 Par ch=1 c=64 v=63
156400 Par ch=1 c=64 v=0
156506 On ch=1 n=e5 v=0
156510 On ch=1 n=c5 v=72
156678 On ch=1 n=c5 v=0
156716 On ch=1 n=a5 v=76
156738 On ch=1 n=f5 v=60
156778 On ch=1 n=a5 v=0
156920 On ch=1 n=c6 v=91
156922 On ch=1 n=f5 v=0
156924 On ch=1 n=c5 v=68
156986 On ch=1 n=c6 v=0
157108 On ch=1 n=c5 v=0
157116 On ch=1 n=f6 v=102
157134 On ch=1 n=f5 v=80
157184 On ch=1 n=f6 v=0
157306 On ch=1 n=a6 v=104
157310 On ch=1 n=f5 v=0
157320 On ch=1 n=c5 v=79
157378 On ch=1 n=a6 v=0
157506 On ch=1 n=c5 v=0
157530 On ch=1 n=c7 v=101
157534 On ch=1 n=f5 v=71
157584 On ch=1 n=c7 v=0
157734 On ch=1 n=f5 v=0
157750 On ch=1 n=f7 v=106
157756 On ch=1 n=c5 v=57
157822 On ch=1 n=f7 v=0
157944 On ch=1 n=c5 v=0
157968 On ch=1 n=f5 v=36
158176 On ch=1 n=f5 v=0
158178 On ch=1 n=c5 v=65
158382 On ch=1 n=g5 v=65
158388 On ch=1 n=e5 v=72
158392 On ch=1 n=c5 v=0
158482 On ch=1 n=g5 v=0
158582 On ch=1 n=c5 v=73
158592 On ch=1 n=e5 v=0
158594 On ch=1 n=c6 v=68
158662 On ch=1 n=c6 v=0
158782 On ch=1 n=c5 v=0
158786 On ch=1 n=e5 v=82
158790 On ch=1 n=e6 v=97
158860 On ch=1 n=e6 v=0
158978 On ch=1 n=c5 v=87
158984 On ch=1 n=g6 v=100
159020 On ch=1 n=e5 v=0
159066 On ch=1 n=g6 v=0
159178 On ch=1 n=c5 v=0
159190 On ch=1 n=e5 v=76
159202 On ch=1 n=c7 v=102
159266 On ch=1 n=c7 v=0
159420 On ch=1 n=e5 v=0
159422 On ch=1 n=c5 v=66
159436 On ch=1 n=e7 v=82
159492 On ch=1 n=e7 v=0
159508 Par ch=1 c=64 v=63
159520 Par ch=1 c=64 v=127
159572 On ch=1 n=c5 v=0
159624 On ch=1 n=e5 v=35
159796 On ch=1 n=e5 v=0
159828 On ch=1 n=c5 v=67
159898 On ch=1 n=c5 v=0
159928 On ch=1 n=g5 v=93
160052 On ch=1 n=g5 v=0
160054 On ch=1 n=e5 v=81
160056 On ch=1 n=c5 v=92
160062 On ch=1 n=g6 v=112
160116 Par ch=1 c=64 v=63
160140 Par ch=1 c=64 v=127
160272 On ch=1 n=g4 v=82
160412 On ch=1 n=c5 v=0
160420 On ch=1 n=e5 v=0
160514 On ch=1 n=e5 v=74
160522 On ch=1 n=c5 v=85
160596 On ch=1 n=g4 v=0
160694 On ch=1 n=g4 v=79
160752 On ch=1 n=e5 v=0
160780 On ch=1 n=c5 v=0
160928 On ch=1 n=b4 v=92
160930 On ch=1 n=d5 v=92
160934 On ch=1 n=g4 v=0
160936 Par ch=1 c=64 v=63
160958 Par ch=1 c=64 v=127
161076 On ch=1 n=b4 v=0
161112 On ch=1 n=g4 v=73
161146 On ch=1 n=d5 v=0
161196 On ch=1 n=g6 v=0
161318 On ch=1 n=d5 v=81
161320 On ch=1 n=g4 v=0
161328 On ch=1 n=b4 v=73
161328 On ch=1 n=f6 v=106
161390 On ch=1 n=g6 v=98
161408 On ch=1 n=f6 v=0
161426 On ch=1 n=b4 v=0
161446 On ch=1 n=d5 v=0
161448 On ch=1 n=g6 v=0
161458 On ch=1 n=f6 v=88
161482 On ch=1 n=g4 v=45
161524 On ch=1 n=e6 v=91
161532 On ch=1 n=f6 v=0
161594 On ch=1 n=f6 v=93
161618 On ch=1 n=e6 v=0
161634 Par ch=1 c=64 v=63
161662 Par ch=1 c=64 v=0
161722 Par ch=1 c=64 v=63
161726 On ch=1 n=g4 v=0
161734 On ch=1 n=c5 v=84
161738 On ch=1 n=f6 v=0
161740 On ch=1 n=d#6 v=114
161760 Par ch=1 c=64 v=127
161968 On ch=1 n=c4 v=89
162020 On ch=1 n=c5 v=0
162042 Par ch=1 c=64 v=63
162082 Par ch=1 c=64 v=0
162108 On ch=1 n=d#6 v=0
162168 Par ch=1 c=64 v=63
162174 On ch=1 n=e4 v=89
162182 On ch=1 n=e6 v=98
162200 Par ch=1 c=64 v=127
162246 On ch=1 n=c4 v=0
162370 On ch=1 n=g4 v=89
162414 On ch=1 n=e4 v=0
162538 On ch=1 n=e6 v=0
162554 On ch=1 n=g4 v=0
162572 On ch=1 n=c5 v=89
162712 On ch=1 n=c5 v=0
162766 On ch=1 n=e5 v=84
162934 Par ch=1 c=64 v=63
162960 On ch=1 n=e5 v=0
162970 On ch=1 n=g5 v=74
163026 Par ch=1 c=64 v=0
163154 On ch=1 n=e5 v=64
163178 On ch=1 n=g5 v=0
163332 Par ch=1 c=64 v=63
163360 On ch=1 n=e5 v=0
163368 On ch=1 n=f5 v=55
163376 On ch=1 n=a5 v=63
163384 Par ch=1 c=64 v=127
163498 On ch=1 n=a5 v=0
163500 On ch=1 n=c6 v=78
163574 On ch=1 n=c5 v=67
163590 On ch=1 n=d6 v=84
163598 On ch=1 n=f5 v=0
163602 On ch=1 n=c6 v=0
163648 On ch=1 n=d6 v=0
163690 On ch=1 n=e6 v=89
163790 On ch=1 n=f6 v=88
163802 On ch=1 n=e6 v=0
163810 On ch=1 n=f5 v=67
163816 On ch=1 n=c5 v=0
163876 On ch=1 n=g6 v=85
163890 On ch=1 n=f6 v=0
163902 Par ch=1 c=64 v=63
163934 On ch=1 n=g6 v=0
163954 On ch=1 n=a6 v=92
163974 On ch=1 n=c5 v=76
163998 On ch=1 n=f5 v=0
164014 Par ch=1 c=64 v=0
164046 On ch=1 n=b6 v=94
164058 On ch=1 n=a6 v=0
164152 On ch=1 n=c7 v=90
164168 On ch=1 n=b6 v=0
164176 On ch=1 n=c5 v=0
164192 On ch=1 n=f5 v=57
164256 Par ch=1 c=64 v=63
164356 Par ch=1 c=64 v=127
164400 On ch=1 n=c5 v=54
164406 On ch=1 n=f5 v=0
164482 On ch=1 n=c7 v=0
164590 Par ch=1 c=64 v=63
164606 On ch=1 n=c5 v=0
164622 On ch=1 n=f5 v=68
164696 Par ch=1 c=64 v=0
164794 On ch=1 n=c5 v=65
164804 On ch=1 n=f5 v=0
164964 Par ch=1 c=64 v=63
164976 On ch=1 n=c5 v=0
164988 On ch=1 n=g5 v=73
165014 On ch=1 n=e5 v=54
165020 Par ch=1 c=64 v=127
165102 On ch=1 n=c6 v=84
165104 On ch=1 n=g5 v=0
165188 On ch=1 n=d6 v=84
165196 On ch=1 n=c5 v=68
165198 On ch=1 n=e5 v=0
165212 Par ch=1 c=64 v=63
165228 On ch=1 n=c6 v=0
165284 On ch=1 n=e6 v=92
165304 On ch=1 n=d6 v=0
165348 On ch=1 n=e6 v=0
165374 On ch=1 n=e5 v=80
165380 On ch=1 n=c5 v=0
165384 On ch=1 n=f6 v=91
165482 Par ch=1 c=64 v=0
165486 On ch=1 n=g6 v=96
165496 On ch=1 n=f6 v=0
165564 On ch=1 n=e5 v=0
165568 On ch=1 n=a6 v=90
165576 On ch=1 n=c5 v=66
165582 On ch=1 n=g6 v=0
165638 On ch=1 n=a6 v=0
165668 On ch=1 n=b6 v=86
165774 On ch=1 n=c7 v=81
165776 Par ch=1 c=64 v=63
165782 On ch=1 n=b6 v=0
165782 On ch=1 n=c5 v=0
165798 On ch=1 n=e5 v=54
165860 Par ch=1 c=64 v=127
166008 On ch=1 n=c5 v=71
166016 On ch=1 n=e5 v=0
166070 On ch=1 n=c7 v=0
166216 On ch=1 n=c5 v=0
166226 On ch=1 n=e5 v=71
166424 On ch=1 n=c5 v=78
166440 On ch=1 n=e5 v=0
166502 On ch=1 n=c5 v=0
166626 On ch=1 n=a6 v=109
166634 Par ch=1 c=64 v=63
166636 On ch=1 n=e5 v=85
166638 On ch=1 n=c5 v=97
166678 Par ch=1 c=64 v=0
166844 On ch=1 n=g6 v=90
166848 On ch=1 n=g4 v=73
166858 On ch=1 n=a6 v=0
166870 On ch=1 n=c5 v=0
166906 On ch=1 n=g6 v=0
166934 On ch=1 n=e5 v=0
167022 On ch=1 n=g4 v=0
167052 On ch=1 n=f6 v=96
167060 On ch=1 n=e5 v=73
167070 On ch=1 n=c5 v=70
167114 On ch=1 n=f6 v=0
167184 On ch=1 n=c5 v=0
167238 On ch=1 n=e5 v=0
167256 On ch=1 n=g4 v=69
167256 On ch=1 n=e6 v=106
167320 On ch=1 n=e6 v=0
167440 On ch=1 n=g4 v=0
167450 On ch=1 n=e6 v=112
167454 On ch=1 n=f5 v=88
167466 On ch=1 n=d5 v=77
167488 Par ch=1 c=64 v=63
167500 Par ch=1 c=64 v=127
167576 Par ch=1 c=64 v=63
167602 Par ch=1 c=64 v=0
167628 On ch=1 n=d5 v=0
167636 On ch=1 n=e6 v=0
167640 On ch=1 n=g4 v=68
167640 On ch=1 n=d6 v=93
167666 On ch=1 n=f5 v=0
167704 On ch=1 n=d6 v=0
167840 On ch=1 n=g4 v=0
167850 On ch=1 n=c6 v=99
167868 On ch=1 n=f5 v=69
167886 On ch=1 n=d5 v=64
167922 On ch=1 n=c6 v=0
168004 On ch=1 n=f5 v=0
168014 On ch=1 n=d5 v=0
168026 On ch=1 n=g4 v=57
168054 On ch=1 n=b5 v=87
168122 On ch=1 n=b5 v=0
168218 On ch=1 n=g4 v=0
168240 On ch=1 n=e5 v=84
168240 On ch=1 n=c5 v=84
168242 On ch=1 n=c6 v=106
168276 Par ch=1 c=64 v=63
168286 Par ch=1 c=64 v=127
168338 On ch=1 n=g5 v=75
168342 On ch=1 n=c6 v=0
168454 On ch=1 n=a5 v=89
168456 On ch=1 n=g5 v=0
168498 On ch=1 n=e5 v=0
168518 On ch=1 n=c5 v=0
168542 On ch=1 n=b5 v=96
168556 On ch=1 n=a5 v=0
168604 Par ch=1 c=64 v=63
168606 On ch=1 n=b5 v=0
168632 On ch=1 n=c6 v=99
168634 Par ch=1 c=64 v=0
168726 On ch=1 n=d6 v=99
168788 On ch=1 n=c6 v=0
168820 On ch=1 n=e6 v=102
168826 On ch=1 n=d6 v=0
168892 On ch=1 n=e6 v=0
168912 On ch=1 n=f6 v=101
169006 On ch=1 n=g6 v=100
169028 On ch=1 n=f6 v=0
169090 On ch=1 n=a6 v=91
169144 On ch=1 n=g6 v=0
169196 On ch=1 n=b6 v=89
169234 On ch=1 n=a6 v=0
169282 On ch=1 n=c7 v=92
169330 On ch=1 n=b6 v=0
169386 On ch=1 n=g6 v=98
169392 On ch=1 n=c7 v=0
169458 On ch=1 n=g6 v=0
169584 On ch=1 n=g6 v=104
169650 On ch=1 n=g6 v=0
169788 On ch=1 n=e5 v=101
169788 On ch=1 n=g4 v=100
169840 On ch=1 n=e5 v=0
169842 On ch=1 n=g4 v=0
169892 On ch=1 n=g6 v=97
169988 On ch=1 n=a6 v=74
169990 On ch=1 n=g6 v=0
170080 On ch=1 n=g6 v=82
170092 On ch=1 n=a6 v=0
170144 On ch=1 n=g6 v=0
170190 On ch=1 n=d5 v=92
170200 On ch=1 n=g4 v=78
170226 On ch=1 n=d5 v=0
170240 On ch=1 n=g4 v=0
170284 On ch=1 n=f6 v=77
170380 On ch=1 n=f6 v=0
170380 On ch=1 n=g6 v=68
170468 On ch=1 n=g6 v=0
170480 On ch=1 n=f6 v=82
170574 On ch=1 n=f6 v=0
170604 On ch=1 n=c5 v=101
170610 On ch=1 n=g4 v=65
170642 On ch=1 n=c5 v=0
170660 On ch=1 n=g4 v=0
170712 On ch=1 n=e6 v=91
170800 On ch=1 n=e6 v=0
170802 On ch=1 n=f6 v=65
170882 On ch=1 n=e6 v=94
170896 On ch=1 n=f6 v=0
170960 On ch=1 n=e6 v=0
171014 On ch=1 n=b4 v=107
171018 On ch=1 n=g4 v=93
171078 On ch=1 n=g4 v=0
171078 On ch=1 n=b4 v=0
171100 On ch=1 n=d6 v=88
171176 On ch=1 n=d6 v=0
171180 On ch=1 n=e6 v=57
171266 On ch=1 n=e6 v=0
171266 On ch=1 n=d6 v=82
171322 On ch=1 n=d6 v=0
171410 On ch=1 n=c6 v=92
171418 On ch=1 n=c5 v=82
171488 Par ch=1 c=64 v=63
171512 On ch=1 n=g5 v=65
171516 Par ch=1 c=64 v=127
171558 On ch=1 n=c6 v=0
171640 On ch=1 n=a5 v=79
171648 On ch=1 n=g5 v=0
171736 On ch=1 n=b5 v=92
171752 On ch=1 n=a5 v=0
171804 On ch=1 n=b5 v=0
171814 On ch=1 n=c5 v=0
171832 On ch=1 n=c6 v=92
171926 On ch=1 n=d6 v=97
171948 On ch=1 n=c6 v=0
172014 On ch=1 n=e6 v=104
172036 On ch=1 n=d6 v=0
172098 On ch=1 n=e6 v=0
172110 On ch=1 n=f6 v=107
172138 Par ch=1 c=64 v=63
172180 Par ch=1 c=64 v=0
172206 On ch=1 n=g6 v=102
172224 On ch=1 n=f6 v=0
172296 On ch=1 n=a6 v=97
172350 On ch=1 n=g6 v=0
172388 On ch=1 n=b6 v=93
172428 On ch=1 n=a6 v=0
172476 On ch=1 n=c7 v=85
172510 On ch=1 n=b6 v=0
172570 On ch=1 n=g6 v=102
172594 On ch=1 n=c7 v=0
172650 On ch=1 n=g6 v=0
172786 On ch=1 n=g6 v=98
172844 On ch=1 n=g6 v=0
172998 On ch=1 n=e5 v=85
173000 On ch=1 n=g4 v=83
173048 On ch=1 n=e5 v=0
173060 On ch=1 n=g4 v=0
173110 On ch=1 n=g6 v=92
173212 On ch=1 n=a6 v=83
173222 On ch=1 n=g6 v=0
173302 On ch=1 n=g6 v=70
173310 On ch=1 n=a6 v=0
173364 On ch=1 n=g6 v=0
173412 On ch=1 n=d5 v=82
173414 On ch=1 n=g4 v=74
173462 On ch=1 n=d5 v=0
173478 On ch=1 n=g4 v=0
173498 On ch=1 n=f6 v=85
173596 On ch=1 n=f6 v=0
173610 On ch=1 n=g6 v=72
173694 On ch=1 n=f6 v=84
173700 On ch=1 n=g6 v=0
173786 On ch=1 n=f6 v=0
173800 On ch=1 n=g4 v=76
173804 On ch=1 n=c5 v=82
173860 On ch=1 n=c5 v=0
173884 On ch=1 n=g4 v=0
173918 On ch=1 n=e6 v=92
173996 On ch=1 n=f6 v=86
174012 On ch=1 n=e6 v=0
174096 On ch=1 n=e6 v=84
174106 On ch=1 n=f6 v=0
174176 On ch=1 n=e6 v=0
174192 On ch=1 n=b4 v=84
174202 On ch=1 n=g4 v=70
174244 On ch=1 n=b4 v=0
174290 On ch=1 n=d6 v=85
174292 On ch=1 n=g4 v=0
174382 On ch=1 n=d6 v=0
174398 On ch=1 n=e6 v=75
174470 On ch=1 n=d6 v=69
174482 On ch=1 n=e6 v=0
174600 On ch=1 n=d6 v=0
174610 On ch=1 n=c4 v=68
174626 On ch=1 n=c6 v=81
174688 Par ch=1 c=64 v=63
174722 Par ch=1 c=64 v=127
174784 On ch=1 n=c6 v=0
174886 On ch=1 n=c6 v=90
174902 On ch=1 n=c5 v=69
174904 On ch=1 n=c4 v=0
175082 On ch=1 n=c6 v=0
175112 On ch=1 n=b4 v=88
175148 On ch=1 n=c5 v=0
175304 On ch=1 n=d6 v=96
175316 On ch=1 n=a#4 v=98
175338 On ch=1 n=b4 v=0
175412 On ch=1 n=e6 v=100
175420 On ch=1 n=d6 v=0
175508 On ch=1 n=f6 v=98
175526 On ch=1 n=a4 v=75
175536 On ch=1 n=e6 v=0
175540 On ch=1 n=a#4 v=0
175586 Par ch=1 c=64 v=63
175656 Par ch=1 c=64 v=0
175666 On ch=1 n=a4 v=0
175686 On ch=1 n=f6 v=0
175706 Par ch=1 c=64 v=63
175736 On ch=1 n=f6 v=104
175742 On ch=1 n=a4 v=85
175778 Par ch=1 c=64 v=127
175944 On ch=1 n=g4 v=99
175972 On ch=1 n=a4 v=0
176120 On ch=1 n=f6 v=0
176184 On ch=1 n=f4 v=89
176188 On ch=1 n=g6 v=102
176208 On ch=1 n=g4 v=0
176272 On ch=1 n=a6 v=98
176300 On ch=1 n=g6 v=0
176374 Par ch=1 c=64 v=63
176376 On ch=1 n=g6 v=98
176388 On ch=1 n=e4 v=91
176406 Par ch=1 c=64 v=0
176428 On ch=1 n=a6 v=0
176440 On ch=1 n=f4 v=0
176474 On ch=1 n=g6 v=0
176596 Par ch=1 c=64 v=63
176598 On ch=1 n=e6 v=107
176610 Par ch=1 c=64 v=127
176650 On ch=1 n=e4 v=0
176806 On ch=1 n=e6 v=0
176818 On ch=1 n=c7 v=102
176828 On ch=1 n=c4 v=55
176894 On ch=1 n=c7 v=0
176938 Par ch=1 c=64 v=63
176950 Par ch=1 c=64 v=0
177016 On ch=1 n=c7 v=103
177106 On ch=1 n=c4 v=0
177108 On ch=1 n=c7 v=0
177266 On ch=1 n=d7 v=98
177362 On ch=1 n=c7 v=94
177398 On ch=1 n=d7 v=0
177460 On ch=1 n=b6 v=72
177504 On ch=1 n=c7 v=0
177546 On ch=1 n=a6 v=87
177582 On ch=1 n=b6 v=0
177622 On ch=1 n=a6 v=0
177668 On ch=1 n=c5 v=83
177672 On ch=1 n=c4 v=77
177686 On ch=1 n=a6 v=86
177740 On ch=1 n=c4 v=0
177742 On ch=1 n=c5 v=0
177796 On ch=1 n=g6 v=84
177866 On ch=1 n=a6 v=0
177898 On ch=1 n=f6 v=92
177916 On ch=1 n=g6 v=0
177996 On ch=1 n=e6 v=91
178000 On ch=1 n=f6 v=0
178096 On ch=1 n=e6 v=0
178136 On ch=1 n=g6 v=98
178144 On ch=1 n=e5 v=71
178146 On ch=1 n=g4 v=70
178206 Par ch=1 c=64 v=63
178226 Par ch=1 c=64 v=127
178512 On ch=1 n=e5 v=0
178804 On ch=1 n=g6 v=0
178808 On ch=1 n=e6 v=83
178818 On ch=1 n=c5 v=50
178900 Par ch=1 c=64 v=63
178926 Par ch=1 c=64 v=0
179006 On ch=1 n=d6 v=71
179012 On ch=1 n=g4 v=0
179016 On ch=1 n=c5 v=0
179024 Par ch=1 c=64 v=63
179036 On ch=1 n=b4 v=62
179046 On ch=1 n=e6 v=0
179060 Par ch=1 c=64 v=127
179082 On ch=1 n=b4 v=0
179274 On ch=1 n=g3 v=78
179320 Par ch=1 c=64 v=63
179430 On ch=1 n=d6 v=0
179436 Par ch=1 c=64 v=127
179496 On ch=1 n=b3 v=84
179630 On ch=1 n=g3 v=0
179668 On ch=1 n=b3 v=0
179686 On ch=1 n=d4 v=97
179760 On ch=1 n=d4 v=0
179846 On ch=1 n=c#6 v=89
179870 On ch=1 n=g4 v=82
179914 On ch=1 n=d6 v=86
179976 On ch=1 n=c#6 v=0
180006 Par ch=1 c=64 v=63
180052 Par ch=1 c=64 v=0
180132 Par ch=1 c=64 v=63
180132 On ch=1 n=b4 v=57
180172 Par ch=1 c=64 v=127
180356 On ch=1 n=d6 v=0
180362 On ch=1 n=d5 v=52
180368 On ch=1 n=c6 v=68
180432 On ch=1 n=b4 v=0
180448 On ch=1 n=g4 v=0
180450 On ch=1 n=b5 v=69
180486 On ch=1 n=c6 v=0
180542 On ch=1 n=d5 v=0
180548 On ch=1 n=a5 v=54
180576 On ch=1 n=b5 v=0
180636 On ch=1 n=a5 v=0
180640 On ch=1 n=g5 v=68
180668 Par ch=1 c=64 v=63
180704 Par ch=1 c=64 v=0
180732 On ch=1 n=g4 v=57
180742 On ch=1 n=g5 v=0
180760 On ch=1 n=c#6 v=91
180878 Par ch=1 c=64 v=63
180910 Par ch=1 c=64 v=127
180956 On ch=1 n=b4 v=54
180974 On ch=1 n=d6 v=87
181032 On ch=1 n=c#6 v=0
181090 Par ch=1 c=64 v=63
181128 Par ch=1 c=64 v=0
181178 Par ch=1 c=64 v=63
181196 On ch=1 n=d5 v=60
181204 On ch=1 n=c6 v=84
181214 On ch=1 n=g4 v=0
181222 On ch=1 n=d6 v=0
181230 Par ch=1 c=64 v=127
181242 On ch=1 n=b4 v=0
181282 On ch=1 n=b5 v=72
181320 On ch=1 n=d5 v=0
181330 On ch=1 n=c6 v=0
181376 On ch=1 n=a5 v=64
181394 Par ch=1 c=64 v=63
181408 On ch=1 n=b5 v=0
181432 Par ch=1 c=64 v=0
181460 On ch=1 n=g5 v=85
181468 On ch=1 n=a5 v=0
181588 Par ch=1 c=64 v=63
181596 On ch=1 n=g5 v=0
181608 On ch=1 n=d#6 v=99
181612 Par ch=1 c=64 v=127
181626 On ch=1 n=g4 v=40
181772 On ch=1 n=d#6 v=0
181804 On ch=1 n=e6 v=87
181844 On ch=1 n=c5 v=52
181878 On ch=1 n=e6 v=0
181898 Par ch=1 c=64 v=63
181916 Par ch=1 c=64 v=0
182026 On ch=1 n=e6 v=86
182034 On ch=1 n=c5 v=0
182042 On ch=1 n=e5 v=57
182078 On ch=1 n=e6 v=0
182230 On ch=1 n=c5 v=68
182236 On ch=1 n=e5 v=0
182236 On ch=1 n=e6 v=102
182310 On ch=1 n=e6 v=0
182316 On ch=1 n=g4 v=0
182426 On ch=1 n=c5 v=0
182460 On ch=1 n=g4 v=48
182468 On ch=1 n=e6 v=91
182510 Par ch=1 c=64 v=63
182518 Par ch=1 c=64 v=127
182700 On ch=1 n=c5 v=57
182760 On ch=1 n=e6 v=0
182898 On ch=1 n=c5 v=0
182928 On ch=1 n=e5 v=63
183006 On ch=1 n=g4 v=0
183124 On ch=1 n=c5 v=69
183138 On ch=1 n=e5 v=0
183202 On ch=1 n=a5 v=91
183352 On ch=1 n=c5 v=0
183398 On ch=1 n=f#4 v=52
183404 On ch=1 n=a6 v=99
183500 On ch=1 n=a5 v=0
183536 Par ch=1 c=64 v=63
183562 Par ch=1 c=64 v=0
183654 On ch=1 n=a4 v=66
183698 Par ch=1 c=64 v=63
183722 Par ch=1 c=64 v=127
183862 On ch=1 n=c5 v=79
183912 On ch=1 n=f#4 v=0
183922 On ch=1 n=a4 v=0
183962 On ch=1 n=c5 v=0
183994 On ch=1 n=a6 v=0
184040 On ch=1 n=g6 v=81
184134 On ch=1 n=f#6 v=93
184162 On ch=1 n=g6 v=0
184192 On ch=1 n=e6 v=96
184234 Par ch=1 c=64 v=63
184250 On ch=1 n=f#4 v=86
184258 On ch=1 n=f#6 v=0
184258 Par ch=1 c=64 v=0
184290 On ch=1 n=d6 v=101
184312 On ch=1 n=e6 v=0
184362 Par ch=1 c=64 v=63
184394 Par ch=1 c=64 v=127
184544 On ch=1 n=a4 v=55
184554 On ch=1 n=d7 v=102
184572 On ch=1 n=d6 v=0
184718 On ch=1 n=d7 v=0
184784 On ch=1 n=c5 v=86
184794 On ch=1 n=d7 v=107
184798 On ch=1 n=f#4 v=0
184800 On ch=1 n=a4 v=0
184878 On ch=1 n=c5 v=0
184896 On ch=1 n=d7 v=0
184990 On ch=1 n=d7 v=114
185118 On ch=1 n=d7 v=0
185218 On ch=1 n=d7 v=114
185238 On ch=1 n=f4 v=76
185368 Par ch=1 c=64 v=63
185392 Par ch=1 c=64 v=0
185460 On ch=1 n=g4 v=93
185488 Par ch=1 c=64 v=63
185510 Par ch=1 c=64 v=127
185672 On ch=1 n=b4 v=98
185722 On ch=1 n=d7 v=0
185764 On ch=1 n=f4 v=0
185806 On ch=1 n=b6 v=88
185810 On ch=1 n=g4 v=0
185878 On ch=1 n=b4 v=0
185878 On ch=1 n=d7 v=91
185894 On ch=1 n=d5 v=83
185898 On ch=1 n=b6 v=0
185958 On ch=1 n=b6 v=74
186014 Par ch=1 c=64 v=63
186034 Par ch=1 c=64 v=0
186046 On ch=1 n=d7 v=0
186070 Par ch=1 c=64 v=63
186076 On ch=1 n=g6 v=83
186088 On ch=1 n=f5 v=68
186098 On ch=1 n=d5 v=0
186116 Par ch=1 c=64 v=127
186118 On ch=1 n=b6 v=0
186168 On ch=1 n=g6 v=0
186334 On ch=1 n=d6 v=94
186338 On ch=1 n=b5 v=87
186586 On ch=1 n=e5 v=71
186594 On ch=1 n=e6 v=98
186596 On ch=1 n=c6 v=92
186602 On ch=1 n=b5 v=0
186612 On ch=1 n=f5 v=0
186648 On ch=1 n=d6 v=0
186692 Par ch=1 c=64 v=63
186728 Par ch=1 c=64 v=0
186818 On ch=1 n=d6 v=89
186824 On ch=1 n=f6 v=89
186834 On ch=1 n=d5 v=63
186840 Par ch=1 c=64 v=63
186858 On ch=1 n=c6 v=0
186860 Par ch=1 c=64 v=127
186862 On ch=1 n=e5 v=0
186878 On ch=1 n=e6 v=0
186940 On ch=1 n=d6 v=0
187006 On ch=1 n=f6 v=0
187116 On ch=1 n=f#6 v=85
187122 On ch=1 n=d5 v=0
187126 On ch=1 n=c5 v=48
187262 Par ch=1 c=64 v=63
187322 Par ch=1 c=64 v=0
187388 On ch=1 n=g6 v=89
187390 Par ch=1 c=64 v=63
187400 On ch=1 n=e5 v=57
187404 On ch=1 n=f#6 v=0
187440 Par ch=1 c=64 v=0
187610 On ch=1 n=g5 v=54
187632 On ch=1 n=f6 v=86
187644 On ch=1 n=g6 v=0
187718 On ch=1 n=e6 v=74
187724 Par ch=1 c=64 v=63
187740 Par ch=1 c=64 v=127
187746 On ch=1 n=c5 v=0
187754 On ch=1 n=f6 v=0
187770 On ch=1 n=e5 v=0
187794 On ch=1 n=g5 v=0
187816 On ch=1 n=d6 v=75
187854 On ch=1 n=e6 v=0
187904 On ch=1 n=d6 v=0
187914 On ch=1 n=c6 v=83
187996 On ch=1 n=c6 v=0
188012 On ch=1 n=f#6 v=101
188022 On ch=1 n=c5 v=66
188052 Par ch=1 c=64 v=63
188108 On ch=1 n=g6 v=80
188114 Par ch=1 c=64 v=0
188122 On ch=1 n=f#6 v=0
188216 On ch=1 n=g6 v=0
188216 On ch=1 n=a6 v=74
188242 On ch=1 n=e5 v=52
188316 On ch=1 n=g6 v=77
188340 On ch=1 n=a6 v=0
188406 On ch=1 n=f6 v=89
188432 On ch=1 n=g6 v=0
188462 On ch=1 n=g5 v=55
188500 On ch=1 n=f6 v=0
188510 On ch=1 n=e6 v=79
188590 On ch=1 n=e6 v=0
188592 On ch=1 n=d6 v=71
188600 On ch=1 n=c5 v=0
188610 On ch=1 n=e5 v=0
188624 On ch=1 n=g5 v=0
188698 On ch=1 n=d6 v=0
188700 On ch=1 n=c6 v=92
188770 On ch=1 n=c6 v=0
188842 Par ch=1 c=64 v=63
188848 On ch=1 n=c5 v=72
188854 Par ch=1 c=64 v=127
188860 On ch=1 n=g#6 v=100
189022 On ch=1 n=g#6 v=0
189044 Par ch=1 c=64 v=63
189064 Par ch=1 c=64 v=0
189066 On ch=1 n=a6 v=91
189086 On ch=1 n=f5 v=65
189126 On ch=1 n=a6 v=0
189290 On ch=1 n=c5 v=0
189298 On ch=1 n=a6 v=96
189306 On ch=1 n=a5 v=52
189314 On ch=1 n=f5 v=0
189354 On ch=1 n=a6 v=0
189504 On ch=1 n=f5 v=57
189508 On ch=1 n=a6 v=98
189512 On ch=1 n=a5 v=0
189574 On ch=1 n=a6 v=0
189720 On ch=1 n=f5 v=0
189736 On ch=1 n=c5 v=60
189742 On ch=1 n=a6 v=102
189790 Par ch=1 c=64 v=63
189800 Par ch=1 c=64 v=127
189938 On ch=1 n=c5 v=0
189940 On ch=1 n=f5 v=59
189966 On ch=1 n=a6 v=0
190172 On ch=1 n=a5 v=71
190182 On ch=1 n=f5 v=0
190366 On ch=1 n=a5 v=0
190382 On ch=1 n=f5 v=62
190498 On ch=1 n=f5 v=0
190506 Par ch=1 c=64 v=63
190524 Par ch=1 c=64 v=0
190598 On ch=1 n=f5 v=102
190600 On ch=1 n=g5 v=106
190600 On ch=1 n=d5 v=96
190606 On ch=1 n=d7 v=116
190616 On ch=1 n=b4 v=58
190666 Par ch=1 c=64 v=63
190688 Par ch=1 c=64 v=127
190728 On ch=1 n=e7 v=98
190752 On ch=1 n=d7 v=0
190832 On ch=1 n=f7 v=100
190856 On ch=1 n=e7 v=0
190930 On ch=1 n=e7 v=93
190980 On ch=1 n=f7 v=0
191016 On ch=1 n=d7 v=107
191076 On ch=1 n=e7 v=0
191116 On ch=1 n=d7 v=0
191124 On ch=1 n=c7 v=96
191206 On ch=1 n=c7 v=0
191218 On ch=1 n=b6 v=83
191312 On ch=1 n=a6 v=101
191346 On ch=1 n=b6 v=0
191410 On ch=1 n=a6 v=0
191414 On ch=1 n=g6 v=92
191438 Par ch=1 c=64 v=63
191456 Par ch=1 c=64 v=0
191504 On ch=1 n=b6 v=93
191524 On ch=1 n=g6 v=0
191588 On ch=1 n=d7 v=104
191620 On ch=1 n=b6 v=0
191690 On ch=1 n=c7 v=94
191744 On ch=1 n=b4 v=0
191746 On ch=1 n=d7 v=0
191768 On ch=1 n=b6 v=97
191792 On ch=1 n=d5 v=0
191828 On ch=1 n=c7 v=0
191864 On ch=1 n=f5 v=0
191870 On ch=1 n=a6 v=97
191900 On ch=1 n=g5 v=0
191908 On ch=1 n=b6 v=0
191958 On ch=1 n=g6 v=91
191964 On ch=1 n=a6 v=0
192058 On ch=1 n=f6 v=101
192062 On ch=1 n=g6 v=0
192158 On ch=1 n=e6 v=111
192168 On ch=1 n=c5 v=84
192216 Par ch=1 c=64 v=63
192220 On ch=1 n=f6 v=0
192226 Par ch=1 c=64 v=127
192316 On ch=1 n=e5 v=78
192322 On ch=1 n=e6 v=0
192368 On ch=1 n=c5 v=0
192442 On ch=1 n=g#6 v=50
192456 On ch=1 n=e5 v=0
192464 On ch=1 n=c6 v=69
192492 On ch=1 n=g#6 v=0
192504 Par ch=1 c=64 v=63
192600 On ch=1 n=f6 v=94
192608 On ch=1 n=c6 v=0
192620 On ch=1 n=d5 v=81
192630 Par ch=1 c=64 v=127
192662 On ch=1 n=g6 v=71
192678 On ch=1 n=f6 v=0
192706 On ch=1 n=g6 v=0
192744 On ch=1 n=f5 v=69
192744 On ch=1 n=f6 v=88
192774 On ch=1 n=g6 v=97
192788 On ch=1 n=d5 v=0
192800 On ch=1 n=f6 v=0
192830 On ch=1 n=g6 v=0
192832 On ch=1 n=f6 v=83
192858 On ch=1 n=f5 v=0
192862 On ch=1 n=c6 v=36
192890 On ch=1 n=e6 v=94
192902 On ch=1 n=f6 v=0
192912 Par ch=1 c=64 v=63
192930 Par ch=1 c=64 v=0
192948 On ch=1 n=f6 v=97
192956 On ch=1 n=e6 v=0
193002 On ch=1 n=c6 v=0
193006 On ch=1 n=g6 v=103
193026 On ch=1 n=e5 v=84
193054 On ch=1 n=f6 v=0
193088 Par ch=1 c=64 v=63
193110 Par ch=1 c=64 v=127
193194 On ch=1 n=g5 v=69
193218 On ch=1 n=e5 v=0
193298 On ch=1 n=c6 v=64
193314 On ch=1 n=g5 v=0
193322 Par ch=1 c=64 v=63
193374 Par ch=1 c=64 v=0
193392 On ch=1 n=g6 v=0
193436 On ch=1 n=c6 v=0
193438 On ch=1 n=c5 v=92
193550 On ch=1 n=e5 v=85
193562 On ch=1 n=c5 v=0
193656 On ch=1 n=e5 v=0
193704 On ch=1 n=c6 v=56
193790 On ch=1 n=a6 v=71
193842 On ch=1 n=b6 v=72
193860 On ch=1 n=f5 v=50
193872 On ch=1 n=c6 v=0
193874 On ch=1 n=a6 v=0
193888 Par ch=1 c=64 v=63
193912 On ch=1 n=c7 v=89
193928 Par ch=1 c=64 v=127
193934 On ch=1 n=b6 v=0
194062 On ch=1 n=a5 v=36
194132 On ch=1 n=f5 v=0
194224 On ch=1 n=c6 v=59
194266 On ch=1 n=c7 v=0
194294 On ch=1 n=a5 v=0
194350 On ch=1 n=c7 v=107
194384 On ch=1 n=f5 v=55
194388 On ch=1 n=c6 v=0
194442 On ch=1 n=c7 v=0
194550 On ch=1 n=a5 v=42
194554 On ch=1 n=f5 v=0
194674 On ch=1 n=c7 v=100
194690 On ch=1 n=c6 v=43
194692 On ch=1 n=a5 v=0
194722 On ch=1 n=c7 v=0
194750 Par ch=1 c=64 v=63
194780 On ch=1 n=c7 v=84
194814 On ch=1 n=f5 v=65
194820 On ch=1 n=c6 v=0
194892 Par ch=1 c=64 v=127
194972 On ch=1 n=a5 v=34
195010 On ch=1 n=f5 v=0
195064 On ch=1 n=c7 v=0
195098 On ch=1 n=c6 v=58
195130 On ch=1 n=a5 v=0
195198 Par ch=1 c=64 v=63
195230 Par ch=1 c=64 v=0
195232 On ch=1 n=b6 v=88
195252 On ch=1 n=f5 v=63
195256 On ch=1 n=c6 v=0
195264 Par ch=1 c=64 v=63
195330 Par ch=1 c=64 v=127
195336 On ch=1 n=a6 v=65
195346 On ch=1 n=b6 v=0
195394 On ch=1 n=a5 v=41
195418 On ch=1 n=g6 v=81
195422 On ch=1 n=f5 v=0
195424 On ch=1 n=a6 v=0
195486 Par ch=1 c=64 v=63
195504 On ch=1 n=a5 v=0
195512 Par ch=1 c=64 v=0
195522 On ch=1 n=g6 v=0
195524 On ch=1 n=c6 v=55
195528 On ch=1 n=f6 v=82
195616 On ch=1 n=f6 v=0
195640 On ch=1 n=e6 v=100
195650 On ch=1 n=c5 v=63
195652 On ch=1 n=c6 v=0
195686 Par ch=1 c=64 v=63
195710 Par ch=1 c=64 v=127
195776 On ch=1 n=e6 v=0
195780 On ch=1 n=e5 v=82
195808 On ch=1 n=c5 v=0
195906 On ch=1 n=e5 v=0
195924 On ch=1 n=c6 v=71
195988 Par ch=1 c=64 v=63
196048 On ch=1 n=f6 v=99
196058 On ch=1 n=c6 v=0
196062 On ch=1 n=d5 v=81
196098 Par ch=1 c=64 v=127
196100 On ch=1 n=g6 v=84
196114 On ch=1 n=f6 v=0
196152 On ch=1 n=g6 v=0
196176 On ch=1 n=f5 v=78
196190 On ch=1 n=g6 v=73
196208 On ch=1 n=d5 v=0
196210 On ch=1 n=f6 v=46
196226 On ch=1 n=g6 v=0
196276 On ch=1 n=f5 v=0
196292 On ch=1 n=c6 v=56
196308 On ch=1 n=e6 v=97
196314 On ch=1 n=f6 v=0
196370 On ch=1 n=f6 v=91
196386 Par ch=1 c=64 v=63
196394 On ch=1 n=e6 v=0
196412 Par ch=1 c=64 v=0
196444 On ch=1 n=c6 v=0
196456 On ch=1 n=g6 v=108
196470 On ch=1 n=e5 v=70
196498 On ch=1 n=f6 v=0
196588 Par ch=1 c=64 v=63
196606 Par ch=1 c=64 v=127
196642 On ch=1 n=g5 v=62
196746 On ch=1 n=e5 v=0
196750 On ch=1 n=c6 v=77
196798 On ch=1 n=g5 v=0
196870 On ch=1 n=g6 v=0
196902 On ch=1 n=c5 v=93
196906 On ch=1 n=c6 v=0
196974 Par ch=1 c=64 v=63
197034 On ch=1 n=e5 v=90
197038 Par ch=1 c=64 v=0
197058 On ch=1 n=c5 v=0
197146 On ch=1 n=e5 v=0
197166 On ch=1 n=c6 v=74
197230 On ch=1 n=a6 v=86
197292 On ch=1 n=b6 v=76
197308 On ch=1 n=a6 v=0
197312 On ch=1 n=f5 v=68
197332 On ch=1 n=c6 v=0
197360 On ch=1 n=c7 v=92
197372 On ch=1 n=b6 v=0
197408 Par ch=1 c=64 v=63
197440 Par ch=1 c=64 v=127
197502 On ch=1 n=a5 v=49
197606 On ch=1 n=f5 v=0
197666 On ch=1 n=c6 v=52
197702 On ch=1 n=c7 v=0
197730 On ch=1 n=a5 v=0
197808 On ch=1 n=c7 v=99
197826 On ch=1 n=c6 v=0
197830 On ch=1 n=f5 v=52
197906 On ch=1 n=c7 v=0
197996 On ch=1 n=a5 v=41
197998 On ch=1 n=f5 v=0
198124 On ch=1 n=c6 v=57
198126 On ch=1 n=c7 v=98
198150 On ch=1 n=a5 v=0
198198 On ch=1 n=c7 v=0
198248 On ch=1 n=c7 v=93
198268 On ch=1 n=c6 v=0
198274 On ch=1 n=f5 v=63
198410 On ch=1 n=c7 v=0
198416 On ch=1 n=a5 v=38
198442 On ch=1 n=f5 v=0
198542 On ch=1 n=c6 v=50
198552 On ch=1 n=a5 v=0
198670 On ch=1 n=c6 v=0
198686 On ch=1 n=b6 v=84
198706 On ch=1 n=f5 v=60
198790 On ch=1 n=a6 v=71
198798 On ch=1 n=b6 v=0
198824 On ch=1 n=a5 v=43
198844 On ch=1 n=f5 v=0
198888 On ch=1 n=g6 v=69
198896 On ch=1 n=a6 v=0
198904 On ch=1 n=a5 v=0
198938 On ch=1 n=c6 v=54
198964 Par ch=1 c=64 v=63
198980 On ch=1 n=g6 v=0
198982 On ch=1 n=f6 v=76
198994 Par ch=1 c=64 v=0
199084 On ch=1 n=c6 v=0
199086 On ch=1 n=f6 v=0
199090 On ch=1 n=e6 v=92
199120 On ch=1 n=c5 v=47
199140 Par ch=1 c=64 v=63
199168 Par ch=1 c=64 v=127
199172 On ch=1 n=e6 v=0
199344 On ch=1 n=c7 v=97
199370 Par ch=1 c=64 v=63
199384 On ch=1 n=c5 v=0
199420 Par ch=1 c=64 v=0
199428 On ch=1 n=d7 v=93
199444 On ch=1 n=c7 v=0
199534 On ch=1 n=e7 v=97
199550 On ch=1 n=d7 v=0
199632 On ch=1 n=d7 v=94
199688 On ch=1 n=e7 v=0
199714 On ch=1 n=c7 v=103
199766 On ch=1 n=d7 v=0
199806 On ch=1 n=b6 v=100
199854 On ch=1 n=c7 v=0
199924 On ch=1 n=a6 v=90
199928 On ch=1 n=b6 v=0
199928 On ch=1 n=f4 v=106
200018 On ch=1 n=a6 v=0
200042 On ch=1 n=g6 v=94
200148 On ch=1 n=f6 v=86
200192 On ch=1 n=g6 v=0
200232 On ch=1 n=e6 v=103
200276 On ch=1 n=f6 v=0
200286 On ch=1 n=f4 v=0
200332 On ch=1 n=d6 v=98
200340 On ch=1 n=e6 v=0
200422 On ch=1 n=d6 v=0
200434 On ch=1 n=c6 v=94
200528 On ch=1 n=b5 v=101
200572 On ch=1 n=c6 v=0
200622 On ch=1 n=a5 v=87
200630 On ch=1 n=b5 v=0
200720 On ch=1 n=a5 v=0
200750 On ch=1 n=g5 v=103
200754 On ch=1 n=g4 v=109
200878 On ch=1 n=g5 v=0
200892 On ch=1 n=g4 v=0
201256 On ch=1 n=b4 v=84
201260 On ch=1 n=d5 v=88
201262 On ch=1 n=f5 v=112
201264 On ch=1 n=g#4 v=88
201518 Par ch=1 c=64 v=63
201540 Par ch=1 c=64 v=127
201786 On ch=1 n=d5 v=0
201848 On ch=1 n=g#4 v=0
201876 On ch=1 n=b4 v=0
202032 On ch=1 n=f5 v=0
202172 On ch=1 n=e5 v=68
202178 On ch=1 n=c5 v=49
202180 On ch=1 n=a4 v=52
202232 Par ch=1 c=64 v=63
202262 Par ch=1 c=64 v=0
202364 Par ch=1 c=64 v=63
202406 Par ch=1 c=64 v=127
202450 On ch=1 n=c5 v=0
202462 On ch=1 n=a4 v=0
202484 Par ch=1 c=64 v=63
202498 On ch=1 n=e5 v=0
202590 Par ch=1 c=64 v=0
202652 On ch=1 n=a4 v=60
202666 On ch=1 n=f4 v=59
202886 On ch=1 n=d5 v=74
202970 On ch=1 n=d5 v=0
203114 On ch=1 n=f5 v=64
203158 On ch=1 n=f4 v=0
203208 On ch=1 n=f5 v=0
203222 On ch=1 n=a4 v=0
203310 On ch=1 n=a5 v=80
203322 Par ch=1 c=64 v=63
203350 Par ch=1 c=64 v=127
203402 On ch=1 n=a5 v=0
203538 On ch=1 n=c#6 v=90
203712 Par ch=1 c=64 v=63
203740 On ch=1 n=c#6 v=0
203746 On ch=1 n=d6 v=93
203774 Par ch=1 c=64 v=0
203948 On ch=1 n=f6 v=93
204034 On ch=1 n=d6 v=0
204146 On ch=1 n=a6 v=88
204252 On ch=1 n=f6 v=0
204252 Par ch=1 c=64 v=63
204278 Par ch=1 c=64 v=127
204298 On ch=1 n=a6 v=0
204386 On ch=1 n=a6 v=92
204574 Par ch=1 c=64 v=63
204592 On ch=1 n=c6 v=79
204654 On ch=1 n=a6 v=0
204708 Par ch=1 c=64 v=127
204788 On ch=1 n=c6 v=0
204834 On ch=1 n=e5 v=71
204840 On ch=1 n=g4 v=58
204846 On ch=1 n=c6 v=86
204890 Par ch=1 c=64 v=63
205000 Par ch=1 c=64 v=127
205158 On ch=1 n=e5 v=0
205296 On ch=1 n=f5 v=84
205394 Par ch=1 c=64 v=63
205540 Par ch=1 c=64 v=127
205722 On ch=1 n=e6 v=78
205746 On ch=1 n=b5 v=61
205762 On ch=1 n=c6 v=0
205858 On ch=1 n=f5 v=0
205924 On ch=1 n=d6 v=77
205950 On ch=1 n=e6 v=0
206076 On ch=1 n=b5 v=0
206088 Par ch=1 c=64 v=63
206124 Par ch=1 c=64 v=0
206154 On ch=1 n=c5 v=50
206158 On ch=1 n=e5 v=46
206160 On ch=1 n=c6 v=57
206162 On ch=1 n=d6 v=0
206170 On ch=1 n=g4 v=0
206240 Par ch=1 c=64 v=63
206242 On ch=1 n=c5 v=0
206268 Par ch=1 c=64 v=127
206296 On ch=1 n=e5 v=0
206298 Par ch=1 c=64 v=63
206396 Par ch=1 c=64 v=0
206606 Par ch=1 c=64 v=63
206624 On ch=1 n=c4 v=42
206636 Par ch=1 c=64 v=0
206762 On ch=1 n=c6 v=0
206908 On ch=1 n=c4 v=0
207136 Par ch=1 c=64 v=63
207156 On ch=1 n=g6 v=78
207160 Par ch=1 c=64 v=127
207388 On ch=1 n=e6 v=92
207416 On ch=1 n=g6 v=0
207614 On ch=1 n=e6 v=0
207618 Par ch=1 c=64 v=63
207624 On ch=1 n=c7 v=82
207668 Par ch=1 c=64 v=0
207708 On ch=1 n=c7 v=0
207836 On ch=1 n=b6 v=76
207918 On ch=1 n=b6 v=0
208056 On ch=1 n=a6 v=69
208138 On ch=1 n=a6 v=0
208266 On ch=1 n=g6 v=73
208362 On ch=1 n=g6 v=0
208490 On ch=1 n=f6 v=76
208592 On ch=1 n=f6 v=0
208668 On ch=1 n=e6 v=79
208754 On ch=1 n=e6 v=0
208900 On ch=1 n=d6 v=74
208972 On ch=1 n=d6 v=0
209348 On ch=1 n=e6 v=87
209416 On ch=1 n=e6 v=0
209784 On ch=1 n=g6 v=57
209990 On ch=1 n=g6 v=0
209992 On ch=1 n=f#6 v=79
210232 On ch=1 n=f6 v=84
210248 On ch=1 n=g5 v=59
210278 On ch=1 n=b4 v=28
210284 On ch=1 n=f#6 v=0
210346 Par ch=1 c=64 v=63
210372 Par ch=1 c=64 v=127
210658 On ch=1 n=b4 v=0
210708 On ch=1 n=f6 v=0
210708 On ch=1 n=c5 v=49
210722 On ch=1 n=e6 v=68
210864 Par ch=1 c=64 v=63
210900 On ch=1 n=e6 v=0
210938 On ch=1 n=f6 v=83
210944 Par ch=1 c=64 v=0
210990 On ch=1 n=g5 v=0
211006 On ch=1 n=c5 v=0
211050 On ch=1 n=f6 v=0
211142 On ch=1 n=g6 v=84
211202 On ch=1 n=g6 v=0
211334 On ch=1 n=g#6 v=94
211418 On ch=1 n=g#6 v=0
211434 Par ch=1 c=64 v=63
211470 Par ch=1 c=64 v=127
211532 On ch=1 n=a6 v=101
211542 On ch=1 n=c5 v=75
211552 On ch=1 n=f4 v=60
211614 On ch=1 n=b6 v=83
211616 On ch=1 n=a6 v=0
211692 On ch=1 n=a6 v=87
211710 On ch=1 n=b6 v=0
211756 On ch=1 n=g#6 v=94
211772 On ch=1 n=a6 v=0
211820 On ch=1 n=a6 v=89
211864 Par ch=1 c=64 v=63
211866 On ch=1 n=g#6 v=0
211896 On ch=1 n=b6 v=96
211912 Par ch=1 c=64 v=0
211930 On ch=1 n=a6 v=0
211960 On ch=1 n=c7 v=103
211986 On ch=1 n=b6 v=0
212022 On ch=1 n=c5 v=0
212034 On ch=1 n=c7 v=0
212040 On ch=1 n=f4 v=0
212170 On ch=1 n=b6 v=107
212250 On ch=1 n=b6 v=0
212384 On ch=1 n=a6 v=108
212446 On ch=1 n=a6 v=0
212574 On ch=1 n=g6 v=102
212642 On ch=1 n=g6 v=0
212780 On ch=1 n=f6 v=101
212782 On ch=1 n=a4 v=93
212792 On ch=1 n=f#4 v=91
212838 On ch=1 n=a4 v=0
212846 On ch=1 n=f#4 v=0
212852 On ch=1 n=f6 v=0
212968 On ch=1 n=e6 v=106
213066 On ch=1 n=e6 v=0
213202 On ch=1 n=g6 v=107
213206 On ch=1 n=g4 v=86
213208 On ch=1 n=c5 v=93
213224 Par ch=1 c=64 v=63
213240 Par ch=1 c=64 v=127
213418 On ch=1 n=c5 v=0
213584 On ch=1 n=g6 v=0
213584 On ch=1 n=e6 v=74
213598 Par ch=1 c=64 v=63
213622 Par ch=1 c=64 v=0
213668 On ch=1 n=b4 v=63
213680 On ch=1 n=d6 v=78
213694 On ch=1 n=e6 v=0
213730 Par ch=1 c=64 v=63
213750 Par ch=1 c=64 v=127
213792 On ch=1 n=g4 v=0
213800 On ch=1 n=b4 v=0
213810 On ch=1 n=d6 v=0
214016 Par ch=1 c=64 v=63
214036 Par ch=1 c=64 v=0
214152 On ch=1 n=g6 v=108
214158 On ch=1 n=g5 v=102
214196 Par ch=1 c=64 v=63
214204 Par ch=1 c=64 v=127
214406 On ch=1 n=g6 v=0
214476 On ch=1 n=g5 v=0
214476 On ch=1 n=a5 v=94
214486 On ch=1 n=a6 v=99
214534 On ch=1 n=b6 v=100
214540 On ch=1 n=b5 v=104
214550 Par ch=1 c=64 v=63
214564 On ch=1 n=a5 v=0
214566 Par ch=1 c=64 v=0
214580 On ch=1 n=a6 v=0
214596 On ch=1 n=c7 v=91
214598 On ch=1 n=c6 v=99
214632 On ch=1 n=b6 v=0
214636 On ch=1 n=b5 v=0
214662 On ch=1 n=c7 v=0
214676 On ch=1 n=c6 v=0
214844 On ch=1 n=b6 v=86
214856 On ch=1 n=b5 v=96
214904 On ch=1 n=b6 v=0
214936 On ch=1 n=b5 v=0
215052 On ch=1 n=a5 v=90
215060 On ch=1 n=a6 v=102
215128 On ch=1 n=a6 v=0
215134 On ch=1 n=a5 v=0
215270 On ch=1 n=g6 v=93
215274 On ch=1 n=g5 v=92
215358 On ch=1 n=g6 v=0
215360 On ch=1 n=g5 v=0
215478 On ch=1 n=f6 v=103
215486 On ch=1 n=f5 v=83
215550 On ch=1 n=f6 v=0
215568 On ch=1 n=f5 v=0
215692 On ch=1 n=e5 v=87
215704 On ch=1 n=e6 v=99
215774 On ch=1 n=e6 v=0
215776 On ch=1 n=e5 v=0
215914 On ch=1 n=d5 v=90
215930 On ch=1 n=d6 v=93
215990 On ch=1 n=d5 v=0
215998 On ch=1 n=d6 v=0
216356 On ch=1 n=e6 v=89
216366 On ch=1 n=e5 v=60
216426 On ch=1 n=e6 v=0
216446 On ch=1 n=e5 v=0
216790 On ch=1 n=f5 v=97
216796 On ch=1 n=f6 v=88
216866 On ch=1 n=f5 v=0
216874 On ch=1 n=f6 v=0
217240 On ch=1 n=f#5 v=110
217242 On ch=1 n=f#6 v=99
217308 On ch=1 n=f#5 v=0
217316 On ch=1 n=f#6 v=0
217666 On ch=1 n=g5 v=108
217682 On ch=1 n=g6 v=100
217752 On ch=1 n=g6 v=0
217754 On ch=1 n=g5 v=0
218128 On ch=1 n=g#6 v=115
218132 On ch=1 n=g#5 v=119
218204 On ch=1 n=g#5 v=0
218218 On ch=1 n=g#6 v=0
218584 On ch=1 n=a6 v=106
218588 On ch=1 n=a5 v=107
218606 Par ch=1 c=64 v=63
218610 Par ch=1 c=64 v=127
218658 On ch=1 n=a6 v=0
218664 On ch=1 n=a5 v=0
218934 On ch=1 n=a5 v=92
219022 On ch=1 n=f6 v=106
219032 On ch=1 n=d5 v=94
219042 On ch=1 n=a5 v=0
219044 On ch=1 n=f4 v=79
219104 Par ch=1 c=64 v=63
219120 Par ch=1 c=64 v=0
219168 Par ch=1 c=64 v=63
219202 Par ch=1 c=64 v=127
219340 On ch=1 n=d5 v=0
219344 On ch=1 n=d6 v=101
219358 On ch=1 n=f6 v=0
219442 On ch=1 n=f4 v=0
219464 On ch=1 n=e5 v=87
219466 On ch=1 n=c6 v=108
219476 Par ch=1 c=64 v=63
219478 On ch=1 n=g4 v=64
219524 Par ch=1 c=64 v=0
219530 On ch=1 n=d6 v=0
219554 Par ch=1 c=64 v=63
219604 Par ch=1 c=64 v=127
219764 On ch=1 n=e5 v=0
219902 On ch=1 n=c6 v=0
219920 On ch=1 n=e6 v=90
219926 Par ch=1 c=64 v=63
219930 On ch=1 n=b5 v=82
219932 On ch=1 n=f5 v=66
219988 Par ch=1 c=64 v=0
220006 Par ch=1 c=64 v=63
220054 Par ch=1 c=64 v=127
220102 On ch=1 n=g4 v=0
220124 On ch=1 n=d6 v=97
220152 On ch=1 n=e6 v=0
220164 On ch=1 n=b5 v=0
220320 On ch=1 n=d6 v=0
220328 Par ch=1 c=64 v=63
220342 On ch=1 n=f5 v=0
220346 On ch=1 n=c5 v=62
220352 On ch=1 n=c6 v=88
220354 Par ch=1 c=64 v=0
220524 Par ch=1 c=64 v=63
220540 Par ch=1 c=64 v=127
220574 On ch=1 n=e5 v=67
220600 On ch=1 n=c6 v=0
220784 On ch=1 n=e5 v=0
220784 On ch=1 n=g5 v=60
220898 On ch=1 n=c6 v=84
220980 On ch=1 n=g5 v=0
220988 On ch=1 n=d6 v=84
221006 On ch=1 n=c6 v=0
221022 On ch=1 n=e5 v=54
221032 On ch=1 n=c5 v=0
221086 On ch=1 n=e6 v=92
221104 On ch=1 n=d6 v=0
221146 On ch=1 n=e6 v=0
221180 On ch=1 n=e5 v=0
221194 On ch=1 n=c5 v=75
221228 On ch=1 n=f6 v=98
221234 Par ch=1 c=64 v=63
221272 Par ch=1 c=64 v=0
221286 On ch=1 n=g6 v=89
221298 On ch=1 n=f6 v=0
221322 On ch=1 n=g6 v=0
221354 On ch=1 n=f6 v=84
221406 Par ch=1 c=64 v=63
221416 On ch=1 n=e6 v=94
221422 On ch=1 n=f6 v=0
221426 Par ch=1 c=64 v=127
221484 On ch=1 n=f5 v=51
221486 On ch=1 n=f6 v=78
221510 On ch=1 n=e6 v=0
221552 On ch=1 n=g6 v=88
221568 On ch=1 n=f6 v=0
221590 On ch=1 n=g6 v=0
221656 On ch=1 n=a6 v=100
221660 On ch=1 n=a5 v=73
221670 On ch=1 n=f5 v=0
221694 On ch=1 n=b6 v=99
221718 On ch=1 n=a6 v=0
221750 On ch=1 n=b6 v=0
221766 On ch=1 n=a6 v=86
221790 Par ch=1 c=64 v=63
221838 On ch=1 n=g6 v=88
221842 On ch=1 n=a6 v=0
221854 On ch=1 n=a5 v=0
221856 Par ch=1 c=64 v=0
221862 On ch=1 n=f5 v=54
221908 On ch=1 n=c5 v=0
221922 On ch=1 n=a6 v=85
221926 On ch=1 n=g6 v=0
221984 On ch=1 n=b6 v=76
222028 On ch=1 n=a6 v=0
222050 On ch=1 n=c7 v=112
222064 On ch=1 n=c5 v=77
222068 On ch=1 n=b6 v=0
222072 On ch=1 n=f5 v=0
222112 On ch=1 n=c7 v=0
222290 On ch=1 n=c7 v=111
222322 On ch=1 n=e5 v=63
222348 On ch=1 n=c7 v=0
222506 On ch=1 n=g5 v=76
222516 On ch=1 n=e5 v=0
222622 On ch=1 n=c6 v=92
222638 Par ch=1 c=64 v=63
222654 Par ch=1 c=64 v=127
222708 On ch=1 n=d6 v=94
222714 On ch=1 n=c6 v=0
222720 On ch=1 n=g5 v=0
222736 On ch=1 n=e5 v=50
222746 On ch=1 n=c5 v=0
222806 On ch=1 n=e6 v=88
222814 On ch=1 n=d6 v=0
222844 On ch=1 n=e6 v=0
222882 On ch=1 n=e5 v=0
222900 On ch=1 n=c5 v=73
222928 Par ch=1 c=64 v=63
222932 On ch=1 n=f6 v=104
222962 Par ch=1 c=64 v=0
222988 On ch=1 n=g6 v=94
223002 On ch=1 n=f6 v=0
223028 On ch=1 n=g6 v=0
223064 On ch=1 n=f6 v=89
223088 Par ch=1 c=64 v=63
223106 Par ch=1 c=64 v=127
223134 On ch=1 n=f6 v=0
223142 On ch=1 n=e6 v=88
223160 On ch=1 n=f5 v=31
223200 On ch=1 n=f6 v=88
223228 On ch=1 n=e6 v=0
223262 On ch=1 n=g6 v=71
223272 On ch=1 n=f6 v=0
223296 Par ch=1 c=64 v=63
223306 On ch=1 n=g6 v=0
223336 Par ch=1 c=64 v=0
223338 On ch=1 n=a5 v=71
223352 On ch=1 n=f5 v=0
223354 On ch=1 n=a6 v=106
223414 On ch=1 n=b6 v=100
223424 On ch=1 n=a6 v=0
223446 On ch=1 n=b6 v=0
223474 On ch=1 n=a6 v=86
223528 On ch=1 n=a5 v=0
223548 On ch=1 n=a6 v=0
223548 On ch=1 n=f5 v=50
223552 On ch=1 n=g6 v=85
223626 On ch=1 n=a6 v=78
223634 On ch=1 n=c5 v=0
223638 On ch=1 n=g6 v=0
223682 On ch=1 n=b6 v=86
223726 On ch=1 n=a6 v=0
223742 On ch=1 n=f5 v=0
223752 On ch=1 n=c7 v=117
223772 On ch=1 n=b6 v=0
223780 On ch=1 n=g5 v=83
223802 On ch=1 n=e5 v=69
223804 On ch=1 n=c5 v=60
223814 On ch=1 n=c7 v=0
223868 Par ch=1 c=64 v=63
223894 Par ch=1 c=64 v=127
223916 On ch=1 n=g5 v=0
223964 On ch=1 n=e5 v=0
223988 On ch=1 n=c5 v=0
223988 On ch=1 n=c7 v=116
224000 Par ch=1 c=64 v=63
224042 On ch=1 n=c7 v=0
224054 Par ch=1 c=64 v=0
224194 On ch=1 n=g5 v=87
224200 On ch=1 n=f5 v=89
224302 On ch=1 n=g6 v=88
224386 On ch=1 n=g6 v=0
224388 On ch=1 n=b6 v=82
224470 On ch=1 n=g6 v=71
224480 On ch=1 n=b6 v=0
224568 On ch=1 n=g6 v=0
224588 On ch=1 n=c7 v=92
224598 On ch=1 n=e5 v=68
224636 On ch=1 n=c7 v=0
224642 On ch=1 n=f5 v=0
224794 On ch=1 n=e5 v=0
224818 On ch=1 n=g5 v=0
224826 On ch=1 n=c7 v=106
224888 On ch=1 n=c7 v=0
225038 On ch=1 n=g5 v=90
225042 On ch=1 n=f5 v=97
225148 On ch=1 n=g6 v=94
225220 On ch=1 n=b6 v=96
225238 On ch=1 n=g6 v=0
225298 On ch=1 n=g6 v=80
225308 On ch=1 n=b6 v=0
225398 On ch=1 n=g6 v=0
225400 On ch=1 n=e5 v=99
225412 On ch=1 n=c7 v=109
225426 On ch=1 n=f5 v=0
225466 On ch=1 n=g5 v=0
225480 On ch=1 n=e5 v=0
225482 On ch=1 n=c7 v=0
225632 On ch=1 n=c7 v=118
225700 On ch=1 n=c7 v=0
225850 On ch=1 n=g5 v=94
225856 On ch=1 n=f5 v=93
225908 On ch=1 n=f5 v=0
225924 On ch=1 n=g5 v=0
225936 On ch=1 n=g6 v=100
226026 On ch=1 n=b6 v=100
226034 On ch=1 n=g6 v=0
226066 On ch=1 n=g5 v=85
226072 On ch=1 n=f5 v=89
226114 On ch=1 n=g6 v=92
226124 On ch=1 n=b6 v=0
226128 On ch=1 n=f5 v=0
226132 On ch=1 n=g5 v=0
226216 On ch=1 n=g6 v=0
226232 On ch=1 n=c7 v=114
226248 On ch=1 n=g5 v=92
226260 On ch=1 n=e5 v=98
226312 On ch=1 n=e5 v=0
226328 On ch=1 n=c7 v=0
226328 On ch=1 n=g6 v=98
226334 On ch=1 n=g5 v=0
226438 On ch=1 n=g6 v=0
226438 On ch=1 n=c7 v=108
226462 On ch=1 n=g5 v=85
226470 On ch=1 n=e5 v=79
226512 On ch=1 n=e5 v=0
226524 On ch=1 n=g6 v=104
226538 On ch=1 n=c7 v=0
226558 On ch=1 n=g5 v=0
226628 On ch=1 n=g6 v=0
226648 On ch=1 n=d7 v=117
226670 On ch=1 n=b4 v=104
226672 On ch=1 n=g5 v=98
226746 On ch=1 n=g6 v=100
226748 On ch=1 n=g5 v=0
226762 On ch=1 n=b4 v=0
226776 On ch=1 n=d7 v=0
226840 On ch=1 n=d7 v=103
226858 On ch=1 n=b4 v=94
226862 On ch=1 n=g6 v=0
226864 On ch=1 n=g5 v=88
226942 On ch=1 n=g6 v=103
226948 On ch=1 n=g5 v=0
226950 On ch=1 n=b4 v=0
226976 On ch=1 n=d7 v=0
227082 On ch=1 n=g5 v=96
227090 On ch=1 n=c5 v=101
227102 On ch=1 n=e7 v=104
227184 Par ch=1 c=64 v=63
227204 Par ch=1 c=64 v=127
227296 On ch=1 n=g6 v=0
227360 On ch=1 n=c7 v=108
227428 On ch=1 n=e7 v=0
227534 On ch=1 n=c7 v=0
227590 On ch=1 n=g6 v=98
227618 Par ch=1 c=64 v=63
227636 Par ch=1 c=64 v=0
227702 Par ch=1 c=64 v=63
227730 Par ch=1 c=64 v=127
227794 On ch=1 n=c7 v=99
227814 On ch=1 n=g6 v=0
227878 On ch=1 n=c7 v=0
227936 Par ch=1 c=64 v=63
227946 Par ch=1 c=64 v=0
228008 On ch=1 n=g5 v=0
228012 On ch=1 n=e6 v=101
228036 On ch=1 n=c5 v=0
228040 Par ch=1 c=64 v=63
228060 Par ch=1 c=64 v=127
228196 On ch=1 n=e6 v=0
228206 On ch=1 n=g6 v=83
228272 On ch=1 n=g6 v=0
228278 Par ch=1 c=64 v=63
228292 Par ch=1 c=64 v=0
228414 Par ch=1 c=64 v=63
228432 On ch=1 n=c6 v=85
228432 Par ch=1 c=64 v=127
228604 On ch=1 n=c6 v=0
228612 On ch=1 n=e6 v=85
228700 On ch=1 n=e6 v=0
228754 Par ch=1 c=64 v=63
228776 Par ch=1 c=64 v=0
228834 Par ch=1 c=64 v=63
228834 On ch=1 n=a5 v=84
228872 Par ch=1 c=64 v=127
229000 On ch=1 n=a5 v=0
229044 On ch=1 n=a6 v=81
229146 Par ch=1 c=64 v=63
229152 On ch=1 n=a6 v=0
229170 Par ch=1 c=64 v=0
229268 On ch=1 n=g6 v=89
229270 On ch=1 n=a4 v=68
229276 On ch=1 n=d5 v=60
229282 On ch=1 n=f4 v=60
229300 Par ch=1 c=64 v=63
229320 Par ch=1 c=64 v=127
229340 On ch=1 n=a4 v=0
229354 On ch=1 n=d5 v=0
229360 On ch=1 n=f4 v=0
229366 On ch=1 n=f6 v=74
229378 On ch=1 n=g6 v=0
229412 Par ch=1 c=64 v=63
229452 Par ch=1 c=64 v=0
229458 On ch=1 n=e6 v=90
229474 On ch=1 n=f6 v=0
229558 On ch=1 n=e6 v=0
229560 On ch=1 n=d6 v=83
229640 Par ch=1 c=64 v=63
229644 On ch=1 n=d6 v=0
229654 Par ch=1 c=64 v=127
229672 On ch=1 n=c6 v=101
229694 On ch=1 n=e5 v=63
229696 On ch=1 n=c5 v=72
229700 On ch=1 n=g4 v=55
229750 On ch=1 n=c6 v=0
229840 On ch=1 n=c5 v=0
229872 On ch=1 n=e5 v=0
230060 Par ch=1 c=64 v=63
230130 On ch=1 n=f5 v=72
230140 On ch=1 n=d5 v=68
230146 On ch=1 n=b5 v=98
230162 Par ch=1 c=64 v=127
230208 On ch=1 n=c6 v=95
230214 On ch=1 n=b5 v=0
230258 On ch=1 n=c6 v=0
230274 On ch=1 n=g4 v=0
230280 On ch=1 n=d5 v=0
230282 On ch=1 n=f5 v=0
230288 On ch=1 n=b5 v=65
230312 On ch=1 n=c6 v=99
230334 On ch=1 n=b5 v=0
230372 On ch=1 n=c6 v=0
230380 On ch=1 n=b5 v=70
230446 On ch=1 n=a5 v=90
230450 On ch=1 n=b5 v=0
230488 Par ch=1 c=64 v=63
230500 On ch=1 n=b5 v=88
230510 Par ch=1 c=64 v=0
230530 On ch=1 n=a5 v=0
230600 On ch=1 n=c6 v=99
230602 On ch=1 n=c5 v=72
230648 On ch=1 n=b5 v=0
230650 Par ch=1 c=64 v=63
230668 Par ch=1 c=64 v=127
230854 On ch=1 n=e5 v=62
230910 On ch=1 n=c6 v=0
231056 On ch=1 n=e5 v=0
231062 On ch=1 n=g5 v=65
231112 Par ch=1 c=64 v=63
231140 Par ch=1 c=64 v=0
231170 On ch=1 n=c6 v=74
231198 On ch=1 n=g5 v=0
231202 Par ch=1 c=64 v=63
231228 On ch=1 n=c5 v=0
231240 Par ch=1 c=64 v=127
231254 On ch=1 n=e5 v=52
231266 On ch=1 n=d6 v=91
231274 On ch=1 n=c6 v=0
231362 On ch=1 n=e6 v=93
231372 On ch=1 n=d6 v=0
231406 On ch=1 n=e6 v=0
231416 On ch=1 n=e5 v=0
231420 Par ch=1 c=64 v=63
231430 On ch=1 n=c5 v=71
231490 On ch=1 n=f6 v=98
231512 Par ch=1 c=64 v=127
231556 On ch=1 n=g6 v=84
231562 On ch=1 n=f6 v=0
231598 On ch=1 n=g6 v=0
231626 On ch=1 n=f6 v=85
231670 On ch=1 n=f5 v=56
231694 On ch=1 n=e6 v=96
231696 On ch=1 n=f6 v=0
231754 On ch=1 n=f6 v=80
231780 On ch=1 n=e6 v=0
231812 On ch=1 n=g6 v=97
231836 On ch=1 n=f6 v=0
231870 Par ch=1 c=64 v=63
231876 On ch=1 n=g6 v=0
231894 Par ch=1 c=64 v=0
231908 On ch=1 n=f5 v=0
231910 On ch=1 n=a5 v=65
231930 On ch=1 n=a6 v=106
231932 Par ch=1 c=64 v=63
231970 Par ch=1 c=64 v=127
231976 On ch=1 n=b6 v=102
231998 On ch=1 n=a6 v=0
232008 On ch=1 n=b6 v=0
232034 On ch=1 n=a6 v=94
232080 On ch=1 n=a5 v=0
232110 On ch=1 n=g6 v=98
232112 On ch=1 n=a6 v=0
232118 On ch=1 n=f5 v=47
232156 On ch=1 n=c5 v=0
232174 Par ch=1 c=64 v=63
232182 On ch=1 n=a6 v=76
232206 Par ch=1 c=64 v=0
232212 On ch=1 n=g6 v=0
232242 On ch=1 n=b6 v=89
232296 On ch=1 n=a6 v=0
232304 On ch=1 n=c7 v=116
232314 On ch=1 n=c5 v=76
232320 On ch=1 n=b6 v=0
232352 On ch=1 n=f5 v=0
232364 On ch=1 n=c7 v=0
232528 On ch=1 n=c7 v=111
232574 On ch=1 n=e5 v=61
232586 On ch=1 n=c7 v=0
232768 On ch=1 n=g5 v=76
232782 On ch=1 n=e5 v=0
232866 Par ch=1 c=64 v=63
232878 On ch=1 n=c6 v=93
232880 Par ch=1 c=64 v=127
232968 On ch=1 n=d6 v=94
232978 On ch=1 n=g5 v=0
232982 On ch=1 n=c6 v=0
232988 On ch=1 n=e5 v=55
233006 On ch=1 n=c5 v=0
233064 On ch=1 n=e6 v=84
233078 On ch=1 n=d6 v=0
233108 On ch=1 n=e6 v=0
233126 Par ch=1 c=64 v=63
233128 On ch=1 n=e5 v=0
233142 Par ch=1 c=64 v=0
233152 On ch=1 n=c5 v=75
233194 On ch=1 n=f6 v=108
233212 Par ch=1 c=64 v=63
233234 Par ch=1 c=64 v=127
233250 On ch=1 n=g6 v=94
233264 On ch=1 n=f6 v=0
233296 On ch=1 n=g6 v=0
233318 On ch=1 n=f6 v=91
233380 On ch=1 n=e6 v=90
233388 On ch=1 n=f6 v=0
233414 On ch=1 n=f5 v=42
233448 On ch=1 n=f6 v=82
233472 On ch=1 n=e6 v=0
233506 On ch=1 n=g6 v=97
233510 Par ch=1 c=64 v=63
233528 On ch=1 n=f6 v=0
233528 Par ch=1 c=64 v=0
233550 On ch=1 n=g6 v=0
233588 On ch=1 n=a5 v=72
233604 On ch=1 n=f5 v=0
233610 Par ch=1 c=64 v=63
233616 On ch=1 n=a6 v=107
233634 Par ch=1 c=64 v=127
233672 On ch=1 n=b6 v=97
233684 Par ch=1 c=64 v=63
233688 On ch=1 n=a6 v=0
233704 On ch=1 n=b6 v=0
233732 On ch=1 n=a6 v=94
233748 Par ch=1 c=64 v=0
233762 On ch=1 n=a5 v=0
233770 On ch=1 n=f5 v=58
233810 On ch=1 n=a6 v=0
233820 On ch=1 n=g6 v=91
233840 On ch=1 n=c5 v=0
233886 On ch=1 n=a6 v=71
233914 On ch=1 n=g6 v=0
233940 On ch=1 n=b6 v=87
233988 On ch=1 n=a6 v=0
233990 On ch=1 n=f5 v=0
234000 On ch=1 n=c7 v=113
234018 On ch=1 n=b6 v=0
234020 On ch=1 n=g5 v=81
234024 On ch=1 n=c5 v=75
234026 On ch=1 n=e5 v=78
234028 Par ch=1 c=64 v=63
234044 Par ch=1 c=64 v=127
234058 On ch=1 n=c7 v=0
234222 On ch=1 n=e5 v=0
234234 On ch=1 n=g5 v=0
234256 On ch=1 n=c7 v=93
234270 On ch=1 n=c5 v=0
234314 On ch=1 n=c7 v=0
234424 Par ch=1 c=64 v=63
234448 Par ch=1 c=64 v=0
234480 On ch=1 n=g5 v=97
234484 On ch=1 n=f5 v=102
234574 On ch=1 n=g6 v=86
234678 On ch=1 n=g6 v=0
234678 On ch=1 n=b6 v=100
234760 On ch=1 n=g6 v=86
234780 On ch=1 n=b6 v=0
234860 On ch=1 n=g6 v=0
234884 On ch=1 n=c7 v=101
234892 On ch=1 n=e5 v=75
234948 On ch=1 n=c7 v=0
234962 On ch=1 n=f5 v=0
235086 On ch=1 n=e5 v=0
235102 On ch=1 n=g5 v=0
235112 On ch=1 n=c7 v=114
235168 On ch=1 n=c7 v=0
235324 On ch=1 n=g5 v=97
235330 On ch=1 n=f5 v=100
235432 On ch=1 n=g6 v=93
235512 On ch=1 n=b6 v=96
235538 On ch=1 n=g6 v=0
235596 On ch=1 n=g6 v=84
235620 On ch=1 n=b6 v=0
235710 On ch=1 n=e5 v=80
235714 On ch=1 n=g6 v=0
235726 On ch=1 n=c7 v=101
235764 On ch=1 n=f5 v=0
235788 On ch=1 n=c7 v=0
235908 On ch=1 n=e5 v=0
235924 On ch=1 n=g5 v=0
235950 On ch=1 n=c7 v=111
236014 On ch=1 n=c7 v=0
236148 On ch=1 n=g5 v=69
236158 On ch=1 n=f5 v=69
236212 On ch=1 n=f5 v=0
236226 On ch=1 n=g5 v=0
236246 On ch=1 n=g6 v=66
236326 On ch=1 n=g6 v=0
236350 On ch=1 n=b6 v=70
236390 On ch=1 n=g5 v=70
236392 On ch=1 n=f5 v=80
236412 On ch=1 n=b6 v=0
236422 On ch=1 n=g6 v=72
236450 On ch=1 n=f5 v=0
236454 On ch=1 n=g5 v=0
236528 On ch=1 n=g6 v=0
236562 On ch=1 n=c7 v=89
236580 On ch=1 n=g5 v=68
236610 On ch=1 n=e5 v=47
236646 On ch=1 n=g6 v=68
236654 On ch=1 n=c7 v=0
236656 On ch=1 n=g5 v=0
236662 On ch=1 n=e5 v=0
236758 On ch=1 n=c7 v=96
236762 On ch=1 n=g6 v=0
236784 On ch=1 n=g5 v=74
236788 On ch=1 n=e5 v=83
236846 On ch=1 n=g6 v=81
236856 On ch=1 n=e5 v=0
236874 On ch=1 n=c7 v=0
236878 On ch=1 n=g5 v=0
236958 On ch=1 n=g6 v=0
236974 On ch=1 n=d7 v=112
236984 On ch=1 n=g5 v=91
236996 On ch=1 n=b4 v=97
237066 On ch=1 n=g5 v=0
237072 On ch=1 n=b4 v=0
237082 On ch=1 n=g6 v=94
237100 On ch=1 n=d7 v=0
237174 On ch=1 n=d7 v=103
237184 On ch=1 n=b4 v=98
237186 On ch=1 n=g6 v=0
237192 On ch=1 n=g5 v=88
237262 On ch=1 n=g6 v=91
237264 On ch=1 n=g5 v=0
237274 On ch=1 n=b4 v=0
237292 On ch=1 n=d7 v=0
237370 On ch=1 n=g6 v=0
237394 On ch=1 n=g5 v=102
237396 On ch=1 n=c5 v=112
237400 On ch=1 n=e7 v=113
237496 Par ch=1 c=64 v=63
237508 On ch=1 n=c7 v=109
237510 Par ch=1 c=64 v=127
237542 On ch=1 n=e7 v=0
237596 On ch=1 n=e7 v=97
237636 On ch=1 n=c7 v=0
237690 On ch=1 n=c7 v=94
237752 On ch=1 n=e7 v=0
237790 On ch=1 n=c7 v=0
237792 On ch=1 n=g6 v=90
237894 On ch=1 n=g6 v=0
237898 On ch=1 n=c7 v=108
237996 On ch=1 n=c7 v=0
238010 On ch=1 n=g6 v=79
238066 On ch=1 n=c7 v=99
238092 On ch=1 n=g6 v=0
238138 On ch=1 n=c7 v=0
238208 On ch=1 n=e6 v=103
238256 On ch=1 n=g5 v=0
238306 On ch=1 n=g6 v=79
238320 On ch=1 n=e6 v=0
238358 On ch=1 n=c5 v=0
238410 On ch=1 n=e6 v=96
238432 On ch=1 n=g6 v=0
238498 On ch=1 n=g6 v=83
238528 On ch=1 n=e6 v=0
238602 On ch=1 n=g6 v=0
238602 On ch=1 n=c6 v=85
238682 On ch=1 n=c6 v=0
238694 On ch=1 n=e6 v=98
238800 On ch=1 n=e6 v=0
238810 On ch=1 n=c6 v=79
238900 On ch=1 n=e6 v=97
238906 On ch=1 n=c6 v=0
238982 On ch=1 n=e6 v=0
239012 On ch=1 n=a5 v=86
239116 Par ch=1 c=64 v=63
239128 Par ch=1 c=64 v=127
239240 On ch=1 n=a5 v=0
239242 On ch=1 n=a6 v=96
239398 Par ch=1 c=64 v=63
239402 Par ch=1 c=64 v=0
239428 On ch=1 n=a6 v=0
239476 On ch=1 n=d5 v=62
239480 On ch=1 n=g6 v=86
239480 On ch=1 n=a4 v=58
239490 On ch=1 n=f4 v=50
239500 Par ch=1 c=64 v=63
239512 Par ch=1 c=64 v=127
239590 On ch=1 n=f6 v=89
239606 On ch=1 n=g6 v=0
239646 On ch=1 n=a4 v=0
239666 On ch=1 n=d5 v=0
239678 On ch=1 n=f4 v=0
239682 On ch=1 n=e6 v=92
239692 On ch=1 n=f6 v=0
239772 On ch=1 n=e6 v=0
239772 On ch=1 n=d6 v=89
239854 On ch=1 n=d6 v=0
239866 Par ch=1 c=64 v=63
239882 Par ch=1 c=64 v=0
239886 On ch=1 n=c6 v=104
239906 On ch=1 n=e5 v=65
239906 On ch=1 n=g4 v=60
239908 On ch=1 n=c5 v=65
239946 Par ch=1 c=64 v=63
239972 Par ch=1 c=64 v=127
240034 On ch=1 n=c6 v=0
240088 On ch=1 n=c5 v=0
240100 On ch=1 n=e5 v=0
240256 Par ch=1 c=64 v=63
240278 Par ch=1 c=64 v=0
240308 Par ch=1 c=64 v=63
240334 On ch=1 n=f5 v=75
240342 Par ch=1 c=64 v=127
240348 On ch=1 n=d5 v=64
240352 On ch=1 n=b5 v=104
240416 On ch=1 n=c6 v=81
240418 On ch=1 n=f5 v=0
240422 On ch=1 n=b5 v=0
240440 On ch=1 n=d5 v=0
240458 On ch=1 n=c6 v=0
240488 On ch=1 n=b5 v=84
240526 On ch=1 n=c6 v=94
240546 On ch=1 n=b5 v=0
240590 On ch=1 n=c6 v=0
240600 On ch=1 n=b5 v=78
240648 On ch=1 n=a5 v=97
240658 On ch=1 n=b5 v=0
240670 On ch=1 n=g4 v=0
240686 Par ch=1 c=64 v=63
240694 Par ch=1 c=64 v=0
240726 On ch=1 n=b5 v=81
240742 On ch=1 n=a5 v=0
240784 On ch=1 n=c6 v=114
240822 On ch=1 n=c5 v=104
240830 On ch=1 n=b5 v=0
240844 Par ch=1 c=64 v=63
240848 Par ch=1 c=64 v=127
241106 On ch=1 n=c5 v=0
241112 On ch=1 n=c6 v=0
241172 On ch=1 n=g4 v=84
241182 On ch=1 n=g5 v=84
241262 On ch=1 n=g5 v=0
241270 On ch=1 n=e6 v=114
241276 On ch=1 n=g4 v=0
241282 On ch=1 n=e5 v=112
241284 Par ch=1 c=64 v=63
241292 Par ch=1 c=64 v=0
241362 Par ch=1 c=64 v=63
241384 Par ch=1 c=64 v=127
241602 On ch=1 n=e6 v=0
241638 On ch=1 n=c5 v=97
241654 On ch=1 n=c6 v=88
241656 On ch=1 n=e5 v=0
241692 Par ch=1 c=64 v=63
241698 Par ch=1 c=64 v=0
241732 On ch=1 n=g6 v=112
241742 On ch=1 n=c5 v=0
241744 On ch=1 n=g5 v=100
241746 On ch=1 n=c6 v=0
241762 Par ch=1 c=64 v=63
241784 Par ch=1 c=64 v=127
241838 On ch=1 n=g6 v=0
241850 On ch=1 n=g5 v=0
242136 Par ch=1 c=64 v=63
242176 Par ch=1 c=64 v=0
242236 On ch=1 n=d7 v=92
242332 On ch=1 n=c7 v=87
242370 On ch=1 n=d7 v=0
242424 On ch=1 n=b6 v=60
242444 On ch=1 n=c7 v=0
242504 On ch=1 n=a6 v=81
242566 On ch=1 n=b6 v=0
242650 On ch=1 n=g6 v=82
242658 On ch=1 n=a6 v=0
242662 On ch=1 n=g4 v=64
242662 On ch=1 n=e5 v=70
242668 On ch=1 n=c5 v=75
242728 On ch=1 n=g6 v=0
242756 On ch=1 n=c5 v=0
242760 On ch=1 n=e5 v=0
242766 On ch=1 n=g4 v=0
243090 On ch=1 n=a6 v=86
243200 On ch=1 n=g6 v=84
243228 On ch=1 n=a6 v=0
243302 On ch=1 n=f6 v=51
243308 On ch=1 n=g6 v=0
243378 On ch=1 n=e6 v=76
243406 On ch=1 n=f6 v=0
243508 On ch=1 n=e6 v=0
243514 On ch=1 n=d6 v=80
243532 On ch=1 n=g4 v=69
243534 On ch=1 n=f5 v=70
243540 On ch=1 n=b4 v=69
243586 On ch=1 n=d6 v=0
243590 On ch=1 n=b4 v=0
243604 On ch=1 n=f5 v=0
243610 On ch=1 n=g4 v=0
243996 On ch=1 n=g6 v=87
244090 On ch=1 n=f6 v=82
244120 On ch=1 n=g6 v=0
244186 On ch=1 n=e6 v=60
244210 On ch=1 n=f6 v=0
244264 On ch=1 n=d6 v=89
244284 On ch=1 n=e6 v=0
244340 On ch=1 n=d6 v=0
244364 Par ch=1 c=64 v=63
244366 Par ch=1 c=64 v=127
244410 On ch=1 n=c6 v=106
244420 On ch=1 n=c5 v=107
244492 On ch=1 n=c6 v=0
244494 On ch=1 n=g5 v=89
244508 On ch=1 n=c5 v=0
244522 On ch=1 n=g4 v=82
244568 On ch=1 n=g5 v=0
244594 Par ch=1 c=64 v=63
244600 Par ch=1 c=64 v=0
244618 On ch=1 n=c5 v=96
244620 On ch=1 n=c6 v=90
244640 On ch=1 n=g4 v=0
244658 Par ch=1 c=64 v=63
244672 Par ch=1 c=64 v=127
244696 On ch=1 n=c6 v=0
244696 On ch=1 n=g5 v=94
244698 On ch=1 n=g4 v=81
244716 On ch=1 n=c5 v=0
244762 Par ch=1 c=64 v=63
244764 On ch=1 n=g5 v=0
244770 Par ch=1 c=64 v=0
244800 On ch=1 n=g4 v=0
244804 On ch=1 n=e5 v=100
244814 On ch=1 n=e6 v=106
244886 On ch=1 n=e5 v=0
244888 On ch=1 n=e6 v=0
244904 On ch=1 n=c6 v=94
244914 On ch=1 n=c5 v=98
244984 On ch=1 n=c6 v=0
244988 On ch=1 n=c5 v=0
245014 On ch=1 n=e6 v=61
245056 On ch=1 n=c5 v=76
245060 On ch=1 n=e6 v=0
245092 On ch=1 n=c6 v=92
245190 On ch=1 n=c6 v=0
245204 On ch=1 n=c5 v=0
245226 On ch=1 n=g6 v=113
245234 On ch=1 n=g5 v=103
245242 Par ch=1 c=64 v=127
245294 On ch=1 n=g5 v=0
245300 On ch=1 n=g6 v=0
245690 Par ch=1 c=64 v=63
245706 Par ch=1 c=64 v=0
245714 On ch=1 n=d7 v=86
245816 On ch=1 n=c7 v=82
245836 On ch=1 n=d7 v=0
245914 On ch=1 n=b6 v=52
245928 On ch=1 n=c7 v=0
246002 On ch=1 n=a6 v=76
246034 On ch=1 n=b6 v=0
246120 On ch=1 n=g6 v=82
246122 On ch=1 n=a6 v=0
246128 On ch=1 n=g4 v=64
246134 On ch=1 n=e5 v=60
246140 On ch=1 n=c5 v=63
246192 On ch=1 n=g6 v=0
246194 On ch=1 n=c5 v=0
246220 On ch=1 n=e5 v=0
246226 On ch=1 n=g4 v=0
246340 On ch=1 n=g6 v=83
246406 On ch=1 n=g6 v=0
246560 On ch=1 n=a6 v=87
246670 On ch=1 n=g6 v=68
246684 On ch=1 n=a6 v=0
246774 On ch=1 n=f6 v=61
246784 On ch=1 n=g6 v=0
246850 On ch=1 n=e6 v=67
246854 On ch=1 n=f6 v=0
246964 On ch=1 n=e6 v=0
246970 On ch=1 n=d6 v=72
246992 On ch=1 n=b4 v=56
246996 On ch=1 n=g4 v=45
247000 On ch=1 n=f5 v=39
247036 On ch=1 n=d6 v=0
247096 On ch=1 n=b4 v=0
247112 On ch=1 n=g4 v=0
247120 On ch=1 n=f5 v=0
247216 On ch=1 n=d6 v=84
247304 On ch=1 n=d6 v=0
247452 On ch=1 n=g6 v=63
247578 On ch=1 n=f6 v=72
247600 On ch=1 n=g6 v=0
247680 On ch=1 n=e6 v=68
247724 On ch=1 n=f6 v=0
247796 On ch=1 n=d6 v=54
247804 On ch=1 n=e6 v=0
247894 Par ch=1 c=64 v=63
247920 On ch=1 n=e5 v=49
247936 On ch=1 n=d6 v=0
247952 On ch=1 n=c6 v=68
248014 Par ch=1 c=64 v=127
248200 On ch=1 n=c5 v=49
248276 On ch=1 n=e5 v=0
248326 On ch=1 n=c6 v=0
248446 On ch=1 n=e5 v=59
248464 On ch=1 n=c5 v=0
248640 On ch=1 n=g#6 v=78
248664 On ch=1 n=c5 v=55
248674 On ch=1 n=e5 v=0
248850 On ch=1 n=a6 v=81
248878 On ch=1 n=f5 v=71
248896 On ch=1 n=g#6 v=0
248920 On ch=1 n=c5 v=0
249072 On ch=1 n=b6 v=88
249104 On ch=1 n=c5 v=73
249120 On ch=1 n=a6 v=0
249148 On ch=1 n=f5 v=0
249298 On ch=1 n=c7 v=90
249316 On ch=1 n=g5 v=74
249338 On ch=1 n=c5 v=0
249356 On ch=1 n=b6 v=0
249496 On ch=1 n=e6 v=87
249512 On ch=1 n=c5 v=82
249532 On ch=1 n=g5 v=0
249542 On ch=1 n=c7 v=0
249720 On ch=1 n=g6 v=94
249728 On ch=1 n=c5 v=0
249744 On ch=1 n=a5 v=60
249768 On ch=1 n=e6 v=0
249808 Par ch=1 c=64 v=63
249862 Par ch=1 c=64 v=0
249912 Par ch=1 c=64 v=63
249948 On ch=1 n=f6 v=84
249954 Par ch=1 c=64 v=127
249966 On ch=1 n=a5 v=0
249970 On ch=1 n=c5 v=63
249996 On ch=1 n=g6 v=0
250188 On ch=1 n=c5 v=0
250212 On ch=1 n=a#5 v=80
250242 On ch=1 n=f6 v=0
250392 Par ch=1 c=64 v=63
250402 On ch=1 n=c5 v=77
250404 On ch=1 n=e6 v=87
250426 Par ch=1 c=64 v=0
250436 On ch=1 n=a#5 v=0
250548 Par ch=1 c=64 v=63
250570 Par ch=1 c=64 v=127
250610 On ch=1 n=f6 v=94
250632 On ch=1 n=a5 v=68
250640 On ch=1 n=c5 v=0
250654 On ch=1 n=e6 v=0
250744 Par ch=1 c=64 v=63
250772 Par ch=1 c=64 v=0
250824 On ch=1 n=c5 v=74
250828 On ch=1 n=g6 v=91
250836 On ch=1 n=a5 v=0
250844 On ch=1 n=f6 v=0
250956 Par ch=1 c=64 v=63
250976 Par ch=1 c=64 v=127
251012 On ch=1 n=g6 v=0
251036 On ch=1 n=c5 v=0
251042 On ch=1 n=a6 v=80
251056 On ch=1 n=g5 v=52
251188 On ch=1 n=a6 v=0
251226 On ch=1 n=g5 v=0
251252 On ch=1 n=c5 v=51
251276 On ch=1 n=c#6 v=79
251394 Par ch=1 c=64 v=63
251430 Par ch=1 c=64 v=0
251470 On ch=1 n=c#6 v=0
251490 On ch=1 n=e6 v=76
251504 On ch=1 n=c5 v=0
251524 On ch=1 n=f5 v=44
251556 Par ch=1 c=64 v=63
251584 Par ch=1 c=64 v=127
251712 On ch=1 n=d6 v=72
251718 On ch=1 n=c5 v=49
251728 On ch=1 n=f5 v=0
251742 On ch=1 n=e6 v=0
251782 Par ch=1 c=64 v=63
251922 Par ch=1 c=64 v=127
251934 On ch=1 n=d6 v=0
251948 On ch=1 n=c5 v=0
251958 On ch=1 n=e5 v=69
252112 On ch=1 n=e5 v=0
252134 On ch=1 n=c5 v=68
252174 On ch=1 n=c#6 v=84
252332 Par ch=1 c=64 v=63
252362 On ch=1 n=d6 v=93
252372 On ch=1 n=c#6 v=0
252372 On ch=1 n=c5 v=0
252376 Par ch=1 c=64 v=0
252378 On ch=1 n=f5 v=74
252524 Par ch=1 c=64 v=63
252548 On ch=1 n=c5 v=73
252548 Par ch=1 c=64 v=127
252558 On ch=1 n=f5 v=0
252562 On ch=1 n=e6 v=100
252616 On ch=1 n=d6 v=0
252772 On ch=1 n=c5 v=0
252772 On ch=1 n=f6 v=90
252778 Par ch=1 c=64 v=63
252790 On ch=1 n=d5 v=68
252800 On ch=1 n=e6 v=0
252816 Par ch=1 c=64 v=0
252928 Par ch=1 c=64 v=63
252962 On ch=1 n=c5 v=76
252966 Par ch=1 c=64 v=127
252970 On ch=1 n=b5 v=84
252974 On ch=1 n=d5 v=0
252988 On ch=1 n=f6 v=0
253190 Par ch=1 c=64 v=63
253194 On ch=1 n=c5 v=0
253196 On ch=1 n=b5 v=0
253198 On ch=1 n=e5 v=78
253198 On ch=1 n=d6 v=91
253226 Par ch=1 c=64 v=0
253294 Par ch=1 c=64 v=63
253342 Par ch=1 c=64 v=127
253398 On ch=1 n=c5 v=87
253422 On ch=1 n=c6 v=93
253438 On ch=1 n=d6 v=0
253448 On ch=1 n=e5 v=0
253652 On ch=1 n=f5 v=67
253660 On ch=1 n=a6 v=96
253672 On ch=1 n=c6 v=0
253714 On ch=1 n=c5 v=0
253752 Par ch=1 c=64 v=63
253788 Par ch=1 c=64 v=0
253868 On ch=1 n=a6 v=0
253880 On ch=1 n=b5 v=88
253882 On ch=1 n=c5 v=72
253894 Par ch=1 c=64 v=63
253924 Par ch=1 c=64 v=127
253940 On ch=1 n=f5 v=0
254090 On ch=1 n=b5 v=0
254104 On ch=1 n=d6 v=72
254110 On ch=1 n=c5 v=0
254118 Par ch=1 c=64 v=63
254118 On ch=1 n=e5 v=62
254144 Par ch=1 c=64 v=0
254274 On ch=1 n=c5 v=81
254290 On ch=1 n=c6 v=90
254304 On ch=1 n=e5 v=0
254304 On ch=1 n=d6 v=0
254314 Par ch=1 c=64 v=63
254336 Par ch=1 c=64 v=127
254518 On ch=1 n=a6 v=82
254522 On ch=1 n=f5 v=68
254544 On ch=1 n=c6 v=0
254560 On ch=1 n=c5 v=0
254664 Par ch=1 c=64 v=63
254708 On ch=1 n=a6 v=0
254716 Par ch=1 c=64 v=0
254754 On ch=1 n=b5 v=66
254766 On ch=1 n=c5 v=56
254806 On ch=1 n=f5 v=0
254924 On ch=1 n=b5 v=0
254984 On ch=1 n=e5 v=62
254994 On ch=1 n=c5 v=0
255088 Par ch=1 c=64 v=63
255108 Par ch=1 c=64 v=127
255204 On ch=1 n=c5 v=70
255216 On ch=1 n=e5 v=0
255232 On ch=1 n=d6 v=57
255304 Par ch=1 c=64 v=63
255326 Par ch=1 c=64 v=0
255336 On ch=1 n=c6 v=66
255340 On ch=1 n=d6 v=0
255430 On ch=1 n=c6 v=0
255452 On ch=1 n=c5 v=0
255460 On ch=1 n=f5 v=63
255628 Par ch=1 c=64 v=63
255644 Par ch=1 c=64 v=127
255690 On ch=1 n=c5 v=65
255700 On ch=1 n=g#6 v=78
255714 On ch=1 n=f5 v=0
255784 On ch=1 n=b5 v=62
255832 On ch=1 n=g#6 v=0
255900 On ch=1 n=b5 v=0
255932 On ch=1 n=c5 v=0
255932 Par ch=1 c=64 v=63
255942 On ch=1 n=e5 v=53
256006 Par ch=1 c=64 v=0
256198 On ch=1 n=c5 v=64
256210 On ch=1 n=d6 v=68
256226 On ch=1 n=e5 v=0
256278 Par ch=1 c=64 v=63
256306 Par ch=1 c=64 v=127
256328 On ch=1 n=c6 v=55
256342 On ch=1 n=d6 v=0
256410 Par ch=1 c=64 v=63
256448 On ch=1 n=c6 v=0
256470 Par ch=1 c=64 v=0
256482 On ch=1 n=f5 v=47
256484 On ch=1 n=c5 v=0
256696 Par ch=1 c=64 v=63
256776 Par ch=1 c=64 v=127
256838 On ch=1 n=g#6 v=70
256858 On ch=1 n=c5 v=55
256896 On ch=1 n=f5 v=0
256984 On ch=1 n=c5 v=0
257042 On ch=1 n=b5 v=67
257048 On ch=1 n=g#6 v=0
257138 On ch=1 n=b5 v=0
257396 On ch=1 n=c5 v=52
257408 On ch=1 n=d6 v=81
257408 On ch=1 n=c4 v=58
257412 On ch=1 n=f5 v=35
257424 On ch=1 n=b5 v=59
257428 On ch=1 n=g5 v=41
257502 Par ch=1 c=64 v=63
257540 Par ch=1 c=64 v=0
258342 Par ch=1 c=64 v=63
258348 Par ch=1 c=64 v=127
258530 On ch=1 n=d6 v=0
258592 On ch=1 n=f5 v=0
259286 On ch=1 n=e5 v=31
259296 On ch=1 n=c6 v=59
259338 On ch=1 n=b5 v=0
259482 Par ch=1 c=64 v=63
259572 Par ch=1 c=64 v=0
259922 Par ch=1 c=64 v=63
260296 Par ch=1 c=64 v=127
260450 On ch=1 n=c6 v=0
260452 On ch=1 n=e5 v=0
260458 On ch=1 n=g5 v=0
260472 On ch=1 n=c5 v=0
260488 On ch=1 n=c4 v=0
260522 Par ch=1 c=64 v=63
260682 Par ch=1 c=64 v=0
261464 Par ch=1 c=64 v=63
261494 Par ch=1 c=64 v=127
261770 Par ch=1 c=64 v=63
261856 Par ch=1 c=64 v=0
261856 Meta TrkEnd
TrkEnd
MTrk
0 SeqSpec 43 00 01 00
0 Meta TrkName "                                    "
0 TimeSig 2/4 24 8
0 Meta TrkEnd
TrkEnd
MTrk
0 SeqSpec 43 00 01 00
0 Meta TrkName "                                    "
0 TimeSig 2/4 24 8
0 Meta TrkEnd
TrkEnd
MTrk
0 SeqSpec 43 00 01 00
0 Meta TrkName "                                    "
0 TimeSig 2/4 24 8
0 Meta TrkEnd
TrkEnd
MTrk
0 SeqSpec 43 00 01 00
0 Meta TrkName "                                    "
0 TimeSig 2/4 24 8
0 Meta TrkEnd
TrkEnd
MTrk
0 SeqSpec 43 00 01 00
0 Meta TrkName "                                    "
0 TimeSig 2/4 24 8
0 Meta TrkEnd
TrkEnd
MTrk
0 SeqSpec 43 00 01 00
0 Meta TrkName "                                    "
0 TimeSig 2/4 24 8
0 Meta TrkEnd
TrkEnd
MTrk
0 SeqSpec 43 00 01 00
0 Meta TrkName "                                    "
0 TimeSig 2/4 24 8
0 Meta TrkEnd
TrkEnd
MTrk
0 SeqSpec 43 00 01 00
0 Meta TrkName "                                    "
0 TimeSig 2/4 24 8
0 Meta TrkEnd
TrkEnd
MTrk
0 SeqSpec 43 00 01 00
0 Meta TrkName "                                    "
0 TimeSig 2/4 24 8
0 Meta TrkEnd
TrkEnd
MTrk
0 SeqSpec 43 00 01 00
0 Meta TrkName "                                    "
0 TimeSig 2/4 24 8
0 Meta TrkEnd
TrkEnd
MTrk
0 SeqSpec 43 00 01 00
0 Meta TrkName "                                    "
0 TimeSig 2/4 24 8
0 Meta TrkEnd
TrkEnd
MTrk
0 SeqSpec 43 00 01 00
0 Meta TrkName "                                    "
0 TimeSig 2/4 24 8
0 Meta TrkEnd
TrkEnd
MTrk
0 SeqSpec 43 00 01 00
0 Meta TrkName "                                    "
0 TimeSig 2/4 24 8
0 Meta TrkEnd
TrkEnd
MTrk
0 SeqSpec 43 00 01 00
0 Meta TrkName "                                    "
0 TimeSig 2/4 24 8
0 Meta TrkEnd
TrkEnd
MTrk
0 SeqSpec 43 00 01 00
0 Meta TrkName "                                    "
0 TimeSig 2/4 24 8
0 Meta TrkEnd
TrkEnd
MTrk
0 SeqSpec 43 00 01 00
0 Meta TrkName "                                    "
0 TimeSig 2/4 24 8
0 Meta TrkEnd
TrkEnd
