MFile 1 18 480
MTrk
0 Tempo 500000
0 TimeSig 3/4 24 8
0 Meta TrkEnd
TrkEnd
MTrk
0 SeqSpec 43 00 01 00
0 Meta TrkName "PIANO                               "
0 TimeSig 3/4 24 8
0 SysEx f0 41 10 42 12 40 00 7f 00 41 f7
0 SysEx f0 41 10 42 12 40 00 04 64 58 f7
340 SysEx f0 41 10 42 12 40 01 30 03 0c f7
340 SysEx f0 41 10 42 12 40 01 33 50 3c f7
340 SysEx f0 41 10 42 12 40 01 34 3c 4f f7
744 Par ch=1 c=0 v=0
748 Par ch=1 c=32 v=1
752 PrCh ch=1 p=0
756 Par ch=1 c=7 v=100
948 Par ch=1 c=11 v=100
1140 Par ch=1 c=10 v=64
1332 Par ch=1 c=1 v=0
1332 Par ch=1 c=91 v=80
1350 Par ch=1 c=99 v=1
1354 Par ch=1 c=98 v=32
1358 Par ch=1 c=6 v=62
1362 Par ch=1 c=99 v=1
1366 Par ch=1 c=98 v=33
1370 Par ch=1 c=6 v=54
1374 Par ch=1 c=99 v=1
1378 Par ch=1 c=98 v=99
1382 Par ch=1 c=6 v=62
1386 Par ch=1 c=99 v=1
1390 Par ch=1 c=98 v=100
1394 Par ch=1 c=6 v=60
1398 Par ch=1 c=99 v=1
1402 Par ch=1 c=98 v=102
1406 Par ch=1 c=6 v=70
2660 On ch=1 n=c6 v=45
2876 Par ch=1 c=64 v=63
2924 Par ch=1 c=64 v=127
3170 On ch=1 n=c6 v=0
3332 On ch=1 n=c6 v=60
3844 On ch=1 n=c6 v=0
3978 On ch=1 n=c6 v=74
4424 On ch=1 n=c6 v=0
4664 On ch=1 n=a4 v=41
4664 On ch=1 n=c5 v=38
4676 On ch=1 n=f4 v=43
4700 On ch=1 n=c6 v=74
4830 Par ch=1 c=64 v=63
4904 Par ch=1 c=64 v=127
5146 On ch=1 n=c6 v=0
5178 On ch=1 n=d6 v=52
5254 On ch=1 n=d6 v=0
5260 On ch=1 n=c6 v=57
5374 On ch=1 n=c6 v=0
5380 On ch=1 n=b5 v=58
5496 On ch=1 n=b5 v=0
5504 On ch=1 n=c6 v=54
5690 Par ch=1 c=64 v=63
5762 Par ch=1 c=64 v=0
5872 On ch=1 n=f6 v=57
5908 Par ch=1 c=64 v=63
6018 On ch=1 n=c6 v=0
6094 Par ch=1 c=64 v=0
6276 On ch=1 n=c6 v=43
6388 On ch=1 n=f6 v=0
6456 Par ch=1 c=64 v=63
6482 Par ch=1 c=64 v=127
6714 On ch=1 n=c6 v=0
6730 On ch=1 n=c5 v=0
6768 On ch=1 n=a4 v=0
6838 On ch=1 n=f4 v=0
7034 On ch=1 n=a5 v=55
7186 Par ch=1 c=64 v=63
7242 Par ch=1 c=64 v=127
7708 On ch=1 n=c6 v=59
7718 On ch=1 n=a5 v=0
7740 On ch=1 n=a#4 v=36
7750 On ch=1 n=g4 v=33
7752 On ch=1 n=c4 v=40
7986 Par ch=1 c=64 v=63
8106 Par ch=1 c=64 v=127
8422 On ch=1 n=e5 v=68
8474 On ch=1 n=c6 v=0
8764 On ch=1 n=c4 v=0
8816 On ch=1 n=a#4 v=0
8824 On ch=1 n=g4 v=0
9218 On ch=1 n=g5 v=60
9228 On ch=1 n=a#4 v=35
9242 On ch=1 n=d4 v=54
9324 On ch=1 n=e5 v=0
9544 Par ch=1 c=64 v=63
9636 Par ch=1 c=64 v=0
9704 Par ch=1 c=64 v=63
9772 Par ch=1 c=64 v=127
10250 On ch=1 n=a#4 v=0
10966 On ch=1 n=f5 v=41
10968 On ch=1 n=a4 v=22
11044 On ch=1 n=g5 v=0
11160 Par ch=1 c=64 v=63
11216 Par ch=1 c=64 v=0
11328 Par ch=1 c=64 v=63
11360 Par ch=1 c=64 v=127
11408 On ch=1 n=d4 v=0
11444 On ch=1 n=f5 v=0
11478 On ch=1 n=a4 v=0
11792 On ch=1 n=a4 v=59
11802 On ch=1 n=f5 v=69
11812 On ch=1 n=a3 v=51
11816 On ch=1 n=c5 v=63
11874 Par ch=1 c=64 v=63
11922 Par ch=1 c=64 v=0
12024 Par ch=1 c=64 v=63
12056 Par ch=1 c=64 v=127
12224 On ch=1 n=a4 v=0
12492 On ch=1 n=f5 v=0
12514 On ch=1 n=g4 v=46
12516 On ch=1 n=g5 v=84
12522 On ch=1 n=e5 v=71
12538 On ch=1 n=g3 v=67
12560 On ch=1 n=a3 v=0
12686 Par ch=1 c=64 v=63
12796 Par ch=1 c=64 v=127
12954 On ch=1 n=g4 v=0
13012 On ch=1 n=c5 v=0
13128 On ch=1 n=e5 v=0
13224 On ch=1 n=a5 v=96
13234 On ch=1 n=f3 v=71
13240 On ch=1 n=f5 v=77
13242 On ch=1 n=f4 v=51
13252 On ch=1 n=g5 v=0
13252 On ch=1 n=c5 v=63
13268 On ch=1 n=g3 v=0
13328 Par ch=1 c=64 v=63
13404 Par ch=1 c=64 v=127
13480 On ch=1 n=f3 v=0
13548 On ch=1 n=c5 v=0
13576 On ch=1 n=f4 v=0
13576 On ch=1 n=f5 v=0
13620 On ch=1 n=a5 v=0
13942 On ch=1 n=a#5 v=103
13950 On ch=1 n=d5 v=69
13956 On ch=1 n=f5 v=74
13956 On ch=1 n=d4 v=68
14092 Par ch=1 c=64 v=63
14184 Par ch=1 c=64 v=127
14326 On ch=1 n=d5 v=0
14394 On ch=1 n=d4 v=0
14656 On ch=1 n=a#3 v=79
14658 On ch=1 n=a#4 v=67
14946 On ch=1 n=a#4 v=0
15004 On ch=1 n=a#3 v=0
15044 On ch=1 n=c6 v=82
15206 On ch=1 n=d6 v=86
15266 On ch=1 n=c6 v=0
15314 On ch=1 n=a#5 v=0
15406 On ch=1 n=a4 v=42
15418 On ch=1 n=a3 v=41
15428 On ch=1 n=c6 v=87
15462 On ch=1 n=d6 v=0
15526 Par ch=1 c=64 v=63
15560 Par ch=1 c=64 v=0
15668 Par ch=1 c=64 v=63
15688 Par ch=1 c=64 v=127
15742 On ch=1 n=c6 v=0
15796 On ch=1 n=f5 v=0
16058 On ch=1 n=a3 v=0
16064 On ch=1 n=a4 v=0
16174 On ch=1 n=f5 v=71
16884 On ch=1 n=f5 v=0
16896 On ch=1 n=e5 v=53
16900 On ch=1 n=b4 v=41
16906 On ch=1 n=d4 v=49
17002 Par ch=1 c=64 v=63
17066 Par ch=1 c=64 v=0
17694 On ch=1 n=f5 v=51
17700 Par ch=1 c=64 v=63
17726 Par ch=1 c=64 v=127
17834 On ch=1 n=e5 v=0
18004 On ch=1 n=d4 v=0
18084 On ch=1 n=b4 v=0
18140 On ch=1 n=f5 v=0
18552 On ch=1 n=a5 v=47
18560 On ch=1 n=c4 v=35
18562 On ch=1 n=f5 v=47
18580 On ch=1 n=c5 v=30
18842 Par ch=1 c=64 v=63
18932 Par ch=1 c=64 v=0
19128 Par ch=1 c=64 v=63
19152 Par ch=1 c=64 v=127
19740 On ch=1 n=f5 v=0
20188 On ch=1 n=a5 v=0
20254 On ch=1 n=g5 v=36
20286 On ch=1 n=e5 v=25
20442 Par ch=1 c=64 v=63
20512 Par ch=1 c=64 v=0
20546 Par ch=1 c=64 v=63
20604 Par ch=1 c=64 v=127
20944 On ch=1 n=c5 v=0
20982 On ch=1 n=c4 v=0
21030 On ch=1 n=g5 v=0
21034 On ch=1 n=e5 v=0
21184 On ch=1 n=g5 v=45
21732 On ch=1 n=g5 v=0
21836 On ch=1 n=g5 v=64
21846 On ch=1 n=c5 v=45
21848 On ch=1 n=e5 v=43
22002 Par ch=1 c=64 v=63
22124 Par ch=1 c=64 v=127
22378 On ch=1 n=g5 v=0
22498 On ch=1 n=g5 v=72
22540 On ch=1 n=e5 v=0
22612 On ch=1 n=c5 v=0
22976 On ch=1 n=g5 v=0
23060 On ch=1 n=g5 v=78
23274 On ch=1 n=f5 v=59
23282 On ch=1 n=b4 v=44
23284 On ch=1 n=d5 v=65
23374 On ch=1 n=g6 v=88
23490 On ch=1 n=g5 v=0
23634 Par ch=1 c=64 v=63
23716 Par ch=1 c=64 v=0
24012 Par ch=1 c=64 v=63
24028 Par ch=1 c=64 v=127
24360 On ch=1 n=g6 v=0
24568 On ch=1 n=d6 v=51
24702 On ch=1 n=b5 v=53
24740 On ch=1 n=d6 v=0
24866 On ch=1 n=g5 v=63
24888 On ch=1 n=b5 v=0
24964 Par ch=1 c=64 v=63
25022 Par ch=1 c=64 v=0
25330 On ch=1 n=g5 v=0
25390 Par ch=1 c=64 v=63
25410 Par ch=1 c=64 v=127
25522 On ch=1 n=g5 v=78
25850 On ch=1 n=f5 v=0
26118 On ch=1 n=g5 v=0
26178 On ch=1 n=c5 v=60
26184 On ch=1 n=e5 v=61
26186 On ch=1 n=g5 v=84
26212 On ch=1 n=d5 v=0
26216 On ch=1 n=b4 v=0
26434 Par ch=1 c=64 v=63
26536 Par ch=1 c=64 v=127
26828 On ch=1 n=g5 v=0
26880 On ch=1 n=e5 v=0
26918 On ch=1 n=c5 v=0
26926 On ch=1 n=g5 v=94
27388 On ch=1 n=g5 v=0
27492 On ch=1 n=g5 v=102
27674 On ch=1 n=b4 v=73
27676 On ch=1 n=d4 v=64
27678 On ch=1 n=f4 v=77
27744 On ch=1 n=g6 v=91
27866 Par ch=1 c=64 v=63
27892 On ch=1 n=g5 v=0
27938 Par ch=1 c=64 v=0
28242 Par ch=1 c=64 v=63
28258 Par ch=1 c=64 v=127
28734 On ch=1 n=b4 v=0
28810 On ch=1 n=f4 v=0
29122 On ch=1 n=g4 v=65
29136 On ch=1 n=c5 v=66
29140 On ch=1 n=e4 v=68
29144 On ch=1 n=d4 v=0
29256 Par ch=1 c=64 v=63
29300 Par ch=1 c=64 v=0
29412 Par ch=1 c=64 v=63
29432 Par ch=1 c=64 v=127
29758 On ch=1 n=g6 v=0
29758 On ch=1 n=a6 v=55
29838 On ch=1 n=a6 v=0
29842 On ch=1 n=b6 v=63
29930 On ch=1 n=c7 v=81
29972 On ch=1 n=b6 v=0
29996 Par ch=1 c=64 v=63
30166 On ch=1 n=c7 v=0
30234 Par ch=1 c=64 v=0
30272 On ch=1 n=b6 v=75
30422 On ch=1 n=b6 v=0
30608 On ch=1 n=a6 v=68
30736 On ch=1 n=a6 v=0
30918 On ch=1 n=e4 v=0
30920 On ch=1 n=c5 v=0
30926 On ch=1 n=g4 v=0
30930 On ch=1 n=g6 v=63
31068 On ch=1 n=g6 v=0
31242 On ch=1 n=f6 v=71
31406 On ch=1 n=f6 v=0
31572 On ch=1 n=e6 v=71
31792 On ch=1 n=e6 v=0
31928 On ch=1 n=c#6 v=71
32258 On ch=1 n=d6 v=82
32296 On ch=1 n=c#6 v=0
32584 On ch=1 n=f6 v=83
32594 On ch=1 n=a4 v=55
32594 On ch=1 n=d5 v=59
32604 On ch=1 n=f4 v=41
32676 On ch=1 n=d6 v=0
32812 Par ch=1 c=64 v=63
32840 Par ch=1 c=64 v=127
32896 On ch=1 n=a6 v=82
33018 On ch=1 n=f6 v=0
33096 On ch=1 n=f4 v=0
33136 On ch=1 n=a4 v=0
33184 On ch=1 n=d5 v=0
33352 On ch=1 n=c6 v=84
33384 On ch=1 n=c5 v=51
33388 On ch=1 n=e5 v=38
33390 On ch=1 n=g4 v=36
33428 On ch=1 n=a6 v=0
33612 Par ch=1 c=64 v=63
33696 Par ch=1 c=64 v=0
34484 Par ch=1 c=64 v=63
34500 Par ch=1 c=64 v=127
34662 On ch=1 n=e5 v=0
34868 On ch=1 n=c5 v=0
34928 On ch=1 n=f5 v=47
34936 On ch=1 n=d5 v=38
35134 Par ch=1 c=64 v=63
35198 Par ch=1 c=64 v=0
35270 Par ch=1 c=64 v=63
35318 Par ch=1 c=64 v=127
35644 On ch=1 n=c6 v=0
35650 On ch=1 n=e6 v=48
35664 On ch=1 n=b5 v=33
35868 Par ch=1 c=64 v=63
35990 Par ch=1 c=64 v=127
36050 On ch=1 n=d6 v=51
36094 On ch=1 n=f5 v=0
36122 On ch=1 n=e6 v=0
36390 On ch=1 n=d5 v=0
36440 On ch=1 n=c6 v=52
36444 On ch=1 n=b5 v=0
36462 On ch=1 n=d6 v=0
36470 On ch=1 n=c5 v=34
36480 On ch=1 n=e5 v=27
36498 On ch=1 n=g4 v=0
36668 Par ch=1 c=64 v=63
36738 Par ch=1 c=64 v=0
37054 Par ch=1 c=64 v=63
37076 Par ch=1 c=64 v=127
37314 On ch=1 n=e5 v=0
37370 On ch=1 n=c5 v=0
38032 On ch=1 n=c4 v=32
38534 On ch=1 n=c6 v=0
38628 On ch=1 n=c4 v=0
39086 On ch=1 n=c6 v=45
39234 Par ch=1 c=64 v=63
39376 Par ch=1 c=64 v=0
39898 On ch=1 n=c6 v=0
39976 On ch=1 n=d6 v=54
40348 On ch=1 n=c6 v=64
40444 On ch=1 n=d6 v=0
40686 On ch=1 n=a#5 v=70
40700 On ch=1 n=c6 v=0
40998 On ch=1 n=a5 v=77
41062 On ch=1 n=a#5 v=0
41274 Par ch=1 c=64 v=63
41396 On ch=1 n=a5 v=0
41440 On ch=1 n=g5 v=75
41452 On ch=1 n=d#5 v=64
41454 On ch=1 n=c5 v=68
41650 Par ch=1 c=64 v=127
43022 On ch=1 n=f#5 v=52
43090 On ch=1 n=g5 v=0
43464 On ch=1 n=c5 v=0
43482 On ch=1 n=d#5 v=0
43556 On ch=1 n=f#5 v=0
43706 On ch=1 n=f#5 v=77
43712 On ch=1 n=d#5 v=62
43722 On ch=1 n=c5 v=63
43828 Par ch=1 c=64 v=63
43920 Par ch=1 c=64 v=127
44264 On ch=1 n=d#5 v=0
44360 On ch=1 n=g5 v=85
44364 On ch=1 n=f#5 v=0
44380 On ch=1 n=d5 v=71
44386 On ch=1 n=a#4 v=70
44406 On ch=1 n=c5 v=0
44606 Par ch=1 c=64 v=63
44636 Par ch=1 c=64 v=0
44766 Par ch=1 c=64 v=63
44788 Par ch=1 c=64 v=127
44926 On ch=1 n=d5 v=0
44940 On ch=1 n=g5 v=0
44960 On ch=1 n=a#4 v=0
45108 On ch=1 n=a5 v=82
45112 On ch=1 n=d5 v=50
45118 On ch=1 n=f#5 v=76
45128 On ch=1 n=c5 v=48
45134 On ch=1 n=a4 v=34
45242 Par ch=1 c=64 v=63
45288 Par ch=1 c=64 v=0
45418 Par ch=1 c=64 v=63
45442 Par ch=1 c=64 v=127
45684 On ch=1 n=d5 v=0
45686 On ch=1 n=f#5 v=0
45688 On ch=1 n=c5 v=0
45690 On ch=1 n=a5 v=0
45700 On ch=1 n=a4 v=0
45984 On ch=1 n=a5 v=86
45992 On ch=1 n=f#5 v=88
45994 On ch=1 n=g4 v=55
45998 On ch=1 n=c5 v=62
45998 On ch=1 n=d5 v=61
46160 Par ch=1 c=64 v=63
46240 Par ch=1 c=64 v=0
46858 Par ch=1 c=64 v=63
46866 Par ch=1 c=64 v=127
47396 On ch=1 n=f#5 v=0
47520 On ch=1 n=a5 v=0
47650 On ch=1 n=g5 v=34
47650 On ch=1 n=a#4 v=51
47662 On ch=1 n=c5 v=0
47668 On ch=1 n=a#5 v=63
47792 Par ch=1 c=64 v=63
47862 Par ch=1 c=64 v=0
47890 Par ch=1 c=64 v=63
47962 Par ch=1 c=64 v=127
48026 On ch=1 n=g5 v=0
48066 On ch=1 n=a#5 v=0
48068 On ch=1 n=a#4 v=0
48072 On ch=1 n=g4 v=0
48078 On ch=1 n=d5 v=0
48318 Par ch=1 c=64 v=63
48396 On ch=1 n=a#4 v=63
48404 On ch=1 n=c#5 v=67
48412 On ch=1 n=e5 v=81
48522 Par ch=1 c=64 v=0
48670 Par ch=1 c=64 v=63
48700 Par ch=1 c=64 v=127
49070 On ch=1 n=a4 v=59
49072 On ch=1 n=f5 v=85
49082 On ch=1 n=e5 v=0
49082 On ch=1 n=c5 v=55
49118 On ch=1 n=a#4 v=0
49144 On ch=1 n=c#5 v=0
49224 Par ch=1 c=64 v=63
49378 Par ch=1 c=64 v=127
49618 On ch=1 n=c5 v=0
49718 On ch=1 n=f5 v=0
49762 On ch=1 n=g5 v=89
49766 On ch=1 n=g4 v=66
49776 On ch=1 n=c5 v=51
49780 On ch=1 n=a#4 v=32
49780 On ch=1 n=e5 v=65
49842 On ch=1 n=a4 v=0
49892 Par ch=1 c=64 v=63
50024 Par ch=1 c=64 v=127
50198 On ch=1 n=e5 v=0
50232 On ch=1 n=g4 v=0
50302 On ch=1 n=c5 v=0
50390 On ch=1 n=a#4 v=0
50458 On ch=1 n=a4 v=64
50462 On ch=1 n=a5 v=88
50464 On ch=1 n=f5 v=84
50466 On ch=1 n=c5 v=66
50470 On ch=1 n=g5 v=0
50480 On ch=1 n=f4 v=65
50590 Par ch=1 c=64 v=63
50660 Par ch=1 c=64 v=127
50830 On ch=1 n=a4 v=0
50836 On ch=1 n=c5 v=0
50886 On ch=1 n=f4 v=0
51174 On ch=1 n=a5 v=0
51220 On ch=1 n=a#5 v=94
51224 On ch=1 n=d4 v=84
51924 On ch=1 n=c6 v=92
51934 On ch=1 n=a3 v=84
52066 On ch=1 n=a#5 v=0
52188 Par ch=1 c=64 v=63
52198 On ch=1 n=d4 v=0
52208 Par ch=1 c=64 v=0
52334 Par ch=1 c=64 v=63
52356 Par ch=1 c=64 v=127
52606 On ch=1 n=c#6 v=106
52670 On ch=1 n=c6 v=0
53200 On ch=1 n=a3 v=0
53348 On ch=1 n=c#6 v=0
53362 On ch=1 n=a#3 v=82
53380 On ch=1 n=e6 v=85
53560 Par ch=1 c=64 v=63
53618 Par ch=1 c=64 v=0
53646 Par ch=1 c=64 v=63
53706 Par ch=1 c=64 v=127
53804 On ch=1 n=d6 v=97
53876 On ch=1 n=a#3 v=0
53928 On ch=1 n=e6 v=0
54002 On ch=1 n=f5 v=0
54018 On ch=1 n=d6 v=0
54138 On ch=1 n=c6 v=83
54140 On ch=1 n=g3 v=68
54146 On ch=1 n=g5 v=74
54302 Par ch=1 c=64 v=63
54342 Par ch=1 c=64 v=0
54454 On ch=1 n=a#5 v=90
54482 Par ch=1 c=64 v=63
54508 Par ch=1 c=64 v=127
54540 On ch=1 n=c6 v=0
54618 On ch=1 n=g3 v=0
54710 On ch=1 n=g5 v=0
54776 On ch=1 n=a#5 v=0
54832 On ch=1 n=c4 v=57
54832 On ch=1 n=f5 v=72
54834 On ch=1 n=a5 v=70
55074 Par ch=1 c=64 v=63
55142 Par ch=1 c=64 v=0
55528 Par ch=1 c=64 v=63
55540 Par ch=1 c=64 v=127
55992 On ch=1 n=f5 v=0
56252 On ch=1 n=a5 v=0
56418 On ch=1 n=g5 v=33
56424 On ch=1 n=e5 v=36
56584 Par ch=1 c=64 v=63
56630 Par ch=1 c=64 v=0
56774 Par ch=1 c=64 v=63
56802 Par ch=1 c=64 v=127
57006 On ch=1 n=e5 v=0
57084 On ch=1 n=g5 v=0
57138 On ch=1 n=c4 v=0
57296 On ch=1 n=c6 v=59
57470 Par ch=1 c=64 v=63
57514 Par ch=1 c=64 v=0
57614 Par ch=1 c=64 v=63
57646 Par ch=1 c=64 v=127
57952 On ch=1 n=c6 v=0
58014 On ch=1 n=c6 v=88
58760 On ch=1 n=c6 v=0
58836 On ch=1 n=c6 v=102
59736 On ch=1 n=c6 v=0
59860 On ch=1 n=a#6 v=100
59874 On ch=1 n=c6 v=66
59876 On ch=1 n=c4 v=71
59900 On ch=1 n=c3 v=56
60216 Par ch=1 c=64 v=63
60280 Par ch=1 c=64 v=0
60450 Par ch=1 c=64 v=63
60466 Par ch=1 c=64 v=127
60776 On ch=1 n=c3 v=0
60900 On ch=1 n=c4 v=0
61124 On ch=1 n=d4 v=70
61142 On ch=1 n=d3 v=61
61370 On ch=1 n=d3 v=0
61400 On ch=1 n=d4 v=0
61504 On ch=1 n=e4 v=85
61524 On ch=1 n=e3 v=71
61656 Par ch=1 c=64 v=63
61710 Par ch=1 c=64 v=127
62030 On ch=1 n=e3 v=0
62054 On ch=1 n=e4 v=0
62126 On ch=1 n=a#6 v=0
62176 On ch=1 n=a6 v=97
62178 On ch=1 n=f4 v=76
62190 On ch=1 n=f3 v=73
62308 Par ch=1 c=64 v=63
62340 Par ch=1 c=64 v=127
62556 On ch=1 n=a6 v=0
62584 On ch=1 n=f3 v=0
62652 On ch=1 n=f4 v=0
62906 On ch=1 n=g6 v=76
62916 On ch=1 n=g4 v=51
62920 On ch=1 n=a#5 v=75
62924 On ch=1 n=g3 v=53
63366 On ch=1 n=g3 v=0
63434 On ch=1 n=g6 v=0
63508 On ch=1 n=a#5 v=0
63508 On ch=1 n=g4 v=0
63522 On ch=1 n=c6 v=0
63724 On ch=1 n=f6 v=84
63730 On ch=1 n=a4 v=49
63736 On ch=1 n=c6 v=55
63740 On ch=1 n=a5 v=48
63746 On ch=1 n=a3 v=43
64000 Par ch=1 c=64 v=63
64128 Par ch=1 c=64 v=127
64310 On ch=1 n=a3 v=0
64378 On ch=1 n=a4 v=0
64542 On ch=1 n=a5 v=0
64570 On ch=1 n=c6 v=0
64570 On ch=1 n=f6 v=0
64720 On ch=1 n=a#4 v=62
64724 On ch=1 n=f6 v=82
64728 On ch=1 n=a#3 v=56
64742 On ch=1 n=g5 v=49
64742 On ch=1 n=c6 v=63
65002 Par ch=1 c=64 v=63
65088 Par ch=1 c=64 v=0
65624 Par ch=1 c=64 v=63
65650 Par ch=1 c=64 v=127
66652 On ch=1 n=e6 v=50
66828 On ch=1 n=f6 v=0
67400 On ch=1 n=e6 v=0
67502 On ch=1 n=c6 v=0
67600 On ch=1 n=g5 v=0
67662 On ch=1 n=a#4 v=0
67664 On ch=1 n=a#3 v=0
67746 Par ch=1 c=64 v=63
67750 On ch=1 n=d#6 v=46
67818 Par ch=1 c=64 v=0
68086 Par ch=1 c=64 v=63
68120 Par ch=1 c=64 v=127
68384 On ch=1 n=d#6 v=0
68526 On ch=1 n=d#6 v=55
69054 On ch=1 n=d#6 v=0
69216 On ch=1 n=d#6 v=62
69596 On ch=1 n=d#6 v=0
69910 On ch=1 n=f5 v=25
69928 On ch=1 n=d#6 v=68
69930 On ch=1 n=c5 v=41
69944 On ch=1 n=a4 v=31
69978 Par ch=1 c=64 v=63
70058 Par ch=1 c=64 v=127
70218 On ch=1 n=d#6 v=0
70244 On ch=1 n=f6 v=40
70358 On ch=1 n=f6 v=0
70366 On ch=1 n=d#6 v=72
70444 On ch=1 n=d#6 v=0
70446 On ch=1 n=f6 v=53
70544 On ch=1 n=d#6 v=74
70550 On ch=1 n=f6 v=0
70622 On ch=1 n=d#6 v=0
70636 On ch=1 n=f6 v=42
70710 On ch=1 n=d#6 v=62
70716 On ch=1 n=f6 v=0
70786 On ch=1 n=d#6 v=0
70810 On ch=1 n=f6 v=51
70864 On ch=1 n=d#6 v=54
70876 On ch=1 n=f6 v=0
70974 On ch=1 n=d#6 v=0
70980 On ch=1 n=d6 v=59
71010 On ch=1 n=c5 v=0
71022 On ch=1 n=f5 v=0
71024 On ch=1 n=a4 v=0
71088 On ch=1 n=d#6 v=68
71094 On ch=1 n=d6 v=0
71230 On ch=1 n=f6 v=77
71236 On ch=1 n=d#6 v=0
71360 On ch=1 n=c5 v=28
71360 On ch=1 n=f5 v=21
71372 On ch=1 n=g6 v=73
71374 On ch=1 n=a4 v=25
71386 On ch=1 n=f6 v=0
71442 Par ch=1 c=64 v=63
71510 Par ch=1 c=64 v=0
71708 Par ch=1 c=64 v=63
71744 Par ch=1 c=64 v=127
72228 Par ch=1 c=64 v=63
72244 On ch=1 n=f6 v=56
72316 On ch=1 n=g6 v=0
72356 Par ch=1 c=64 v=127
72602 On ch=1 n=d#6 v=66
72632 On ch=1 n=a4 v=0
72644 On ch=1 n=c5 v=0
72694 On ch=1 n=f5 v=0
72700 On ch=1 n=f6 v=0
72840 On ch=1 n=d#6 v=0
72952 On ch=1 n=d#6 v=76
72972 On ch=1 n=f5 v=36
72974 On ch=1 n=d#5 v=53
72992 On ch=1 n=a4 v=29
73216 Par ch=1 c=64 v=63
73296 On ch=1 n=d6 v=74
73382 On ch=1 n=d#6 v=0
73398 Par ch=1 c=64 v=127
73552 On ch=1 n=d6 v=0
73620 On ch=1 n=d6 v=82
73792 Par ch=1 c=64 v=63
73886 Par ch=1 c=64 v=127
73928 On ch=1 n=c#6 v=74
74052 On ch=1 n=d6 v=0
74056 On ch=1 n=d#5 v=0
74082 On ch=1 n=f5 v=0
74242 On ch=1 n=a4 v=0
74272 On ch=1 n=c#6 v=0
74340 On ch=1 n=c#6 v=76
74360 On ch=1 n=f5 v=43
74364 On ch=1 n=a#4 v=52
74372 On ch=1 n=d5 v=54
74578 Par ch=1 c=64 v=63
74676 Par ch=1 c=64 v=0
75416 Par ch=1 c=64 v=63
75440 Par ch=1 c=64 v=127
75958 On ch=1 n=c#6 v=0
75960 On ch=1 n=d6 v=49
76224 Par ch=1 c=64 v=63
76414 Par ch=1 c=64 v=127
76482 On ch=1 n=d6 v=0
76804 On ch=1 n=f6 v=53
77080 On ch=1 n=f5 v=0
77164 On ch=1 n=d5 v=0
77166 On ch=1 n=e6 v=76
77184 On ch=1 n=a#4 v=0
77242 On ch=1 n=f6 v=0
77480 On ch=1 n=g6 v=70
77578 On ch=1 n=e6 v=0
77726 Par ch=1 c=64 v=63
77756 Par ch=1 c=64 v=127
77794 Par ch=1 c=64 v=63
77820 On ch=1 n=f6 v=82
77908 On ch=1 n=g6 v=0
78118 On ch=1 n=e6 v=85
78160 Par ch=1 c=64 v=0
78240 On ch=1 n=f6 v=0
78396 Par ch=1 c=64 v=63
78424 Par ch=1 c=64 v=127
78446 On ch=1 n=d6 v=84
78580 On ch=1 n=e6 v=0
78730 On ch=1 n=d6 v=0
78810 On ch=1 n=d6 v=84
78812 On ch=1 n=d5 v=66
78814 On ch=1 n=a#4 v=61
78836 On ch=1 n=f4 v=49
79134 Par ch=1 c=64 v=63
79186 Par ch=1 c=64 v=0
79562 Par ch=1 c=64 v=63
79578 Par ch=1 c=64 v=127
79956 On ch=1 n=d5 v=0
80028 On ch=1 n=a#4 v=0
80340 On ch=1 n=d6 v=0
80352 On ch=1 n=c6 v=44
80358 On ch=1 n=c5 v=23
80364 On ch=1 n=a4 v=31
80570 Par ch=1 c=64 v=63
80696 Par ch=1 c=64 v=127
80916 On ch=1 n=c6 v=0
81086 On ch=1 n=f6 v=90
81242 Par ch=1 c=64 v=63
81368 Par ch=1 c=64 v=127
81632 On ch=1 n=c6 v=93
81714 On ch=1 n=f6 v=0
81736 On ch=1 n=c5 v=0
81758 On ch=1 n=f4 v=0
81814 On ch=1 n=a4 v=0
81816 On ch=1 n=a6 v=84
81866 On ch=1 n=c6 v=0
82100 Par ch=1 c=64 v=63
82216 Par ch=1 c=64 v=0
82384 On ch=1 n=f6 v=79
82414 On ch=1 n=a6 v=0
82558 On ch=1 n=c6 v=70
82612 On ch=1 n=f6 v=0
83000 Par ch=1 c=64 v=63
83066 Par ch=1 c=64 v=127
83162 On ch=1 n=a5 v=74
83174 On ch=1 n=c6 v=0
83384 On ch=1 n=e4 v=41
83386 On ch=1 n=c6 v=75
83388 On ch=1 n=g4 v=52
83390 On ch=1 n=c5 v=37
83414 On ch=1 n=a5 v=0
83436 Par ch=1 c=64 v=63
83470 Par ch=1 c=64 v=0
83848 Par ch=1 c=64 v=63
83890 Par ch=1 c=64 v=127
84498 On ch=1 n=b5 v=71
84556 On ch=1 n=c6 v=0
84900 On ch=1 n=a#5 v=59
84940 On ch=1 n=b5 v=0
85076 Par ch=1 c=64 v=63
85116 Par ch=1 c=64 v=127
85228 On ch=1 n=c5 v=0
85270 On ch=1 n=e4 v=0
85288 On ch=1 n=g4 v=0
85300 On ch=1 n=a#5 v=0
85720 On ch=1 n=g5 v=81
85720 On ch=1 n=e5 v=77
85746 On ch=1 n=a#3 v=63
85756 On ch=1 n=a#4 v=50
85860 Par ch=1 c=64 v=63
85958 Par ch=1 c=64 v=127
86204 On ch=1 n=a#4 v=0
86252 On ch=1 n=a#3 v=0
86292 On ch=1 n=c5 v=85
86368 On ch=1 n=e5 v=0
86388 On ch=1 n=g5 v=0
86440 On ch=1 n=f5 v=97
86442 On ch=1 n=a5 v=94
86454 On ch=1 n=a4 v=81
86466 On ch=1 n=a3 v=74
86472 On ch=1 n=c5 v=0
86570 Par ch=1 c=64 v=63
86590 Par ch=1 c=64 v=127
86838 On ch=1 n=a4 v=0
86896 On ch=1 n=f5 v=0
86930 On ch=1 n=a5 v=0
87004 On ch=1 n=c5 v=87
87140 On ch=1 n=a#5 v=104
87146 On ch=1 n=g5 v=85
87148 On ch=1 n=g4 v=79
87148 On ch=1 n=g3 v=87
87164 On ch=1 n=c5 v=0
87200 On ch=1 n=a3 v=0
87242 Par ch=1 c=64 v=63
87342 Par ch=1 c=64 v=127
87554 On ch=1 n=g4 v=0
87624 On ch=1 n=c5 v=92
87692 On ch=1 n=g5 v=0
87698 On ch=1 n=c5 v=0
87708 On ch=1 n=a#5 v=0
87826 On ch=1 n=f3 v=81
87904 On ch=1 n=f4 v=73
87912 On ch=1 n=c6 v=86
87922 On ch=1 n=g3 v=0
87926 On ch=1 n=a5 v=65
88066 Par ch=1 c=64 v=63
88098 Par ch=1 c=64 v=0
88244 Par ch=1 c=64 v=63
88264 Par ch=1 c=64 v=127
88300 On ch=1 n=a5 v=0
88314 On ch=1 n=f3 v=0
88330 On ch=1 n=f4 v=0
88350 On ch=1 n=c6 v=0
88352 On ch=1 n=d6 v=85
88442 On ch=1 n=d6 v=0
88680 On ch=1 n=e6 v=99
88782 Par ch=1 c=64 v=63
88800 On ch=1 n=e6 v=0
88958 Par ch=1 c=64 v=0
88982 Par ch=1 c=64 v=63
89014 On ch=1 n=f6 v=88
89056 Par ch=1 c=64 v=127
89116 On ch=1 n=f6 v=0
89448 On ch=1 n=f5 v=71
89460 On ch=1 n=a4 v=28
89460 On ch=1 n=c5 v=60
89470 On ch=1 n=c4 v=26
89684 Par ch=1 c=64 v=63
89768 Par ch=1 c=64 v=0
90264 Par ch=1 c=64 v=63
90274 Par ch=1 c=64 v=127
90854 On ch=1 n=a4 v=0
91152 On ch=1 n=a#4 v=53
91342 Par ch=1 c=64 v=63
91388 Par ch=1 c=64 v=127
91696 On ch=1 n=c5 v=0
91712 On ch=1 n=f5 v=0
91962 On ch=1 n=a5 v=47
91966 On ch=1 n=e5 v=40
92178 Par ch=1 c=64 v=63
92292 Par ch=1 c=64 v=127
92340 On ch=1 n=g5 v=57
92372 On ch=1 n=a5 v=0
92390 On ch=1 n=a#4 v=0
92488 On ch=1 n=c4 v=0
92660 On ch=1 n=e5 v=0
92756 On ch=1 n=f5 v=54
92760 On ch=1 n=g5 v=0
92762 On ch=1 n=a4 v=31
92764 On ch=1 n=f4 v=40
92936 Par ch=1 c=64 v=63
93164 Par ch=1 c=64 v=127
93580 On ch=1 n=a4 v=0
93600 On ch=1 n=f4 v=0
94468 On ch=1 n=f3 v=31
94732 On ch=1 n=f5 v=0
95420 On ch=1 n=f3 v=0
95554 On ch=1 n=g#5 v=39
95582 On ch=1 n=c5 v=30
95624 Par ch=1 c=64 v=63
95708 Par ch=1 c=64 v=0
95822 Par ch=1 c=64 v=63
95880 Par ch=1 c=64 v=127
96144 On ch=1 n=g#5 v=0
96166 On ch=1 n=c5 v=0
96382 On ch=1 n=g#5 v=54
96384 On ch=1 n=c5 v=38
96822 On ch=1 n=c5 v=0
96872 On ch=1 n=g#5 v=0
97146 On ch=1 n=g#5 v=61
97152 On ch=1 n=c5 v=44
97840 On ch=1 n=c5 v=0
97866 On ch=1 n=g#5 v=0
98126 On ch=1 n=f3 v=30
98168 On ch=1 n=g#5 v=51
98180 On ch=1 n=c5 v=34
98458 Par ch=1 c=64 v=63
98548 Par ch=1 c=64 v=127
98728 On ch=1 n=f4 v=27
98998 On ch=1 n=f4 v=0
99140 On ch=1 n=f4 v=29
99322 On ch=1 n=f4 v=0
99460 On ch=1 n=f4 v=33
99618 On ch=1 n=f4 v=0
99782 On ch=1 n=f4 v=39
99820 On ch=1 n=c5 v=0
99820 On ch=1 n=g#5 v=0
99946 On ch=1 n=f4 v=0
100082 On ch=1 n=f4 v=33
100246 On ch=1 n=f4 v=0
100404 On ch=1 n=g5 v=66
100404 On ch=1 n=a#4 v=44
100408 On ch=1 n=f4 v=31
100568 On ch=1 n=f4 v=0
100724 On ch=1 n=f4 v=45
100800 On ch=1 n=a#4 v=0
100898 On ch=1 n=f4 v=0
101038 On ch=1 n=a#5 v=79
101052 On ch=1 n=f4 v=41
101056 On ch=1 n=c#5 v=47
101058 On ch=1 n=g5 v=0
101214 On ch=1 n=f4 v=0
101302 On ch=1 n=a#5 v=0
101342 On ch=1 n=c#5 v=0
101370 On ch=1 n=f4 v=45
101518 On ch=1 n=f4 v=0
101690 On ch=1 n=e5 v=77
101692 On ch=1 n=f4 v=35
101696 On ch=1 n=g4 v=55
101810 On ch=1 n=f4 v=0
101958 On ch=1 n=g4 v=0
101964 On ch=1 n=f4 v=41
102008 On ch=1 n=e5 v=0
102144 On ch=1 n=f3 v=0
102316 On ch=1 n=f4 v=0
102328 On ch=1 n=f3 v=48
102350 On ch=1 n=f5 v=68
102352 On ch=1 n=g#4 v=43
102626 Par ch=1 c=64 v=63
102688 Par ch=1 c=64 v=0
102732 On ch=1 n=f4 v=38
102752 Par ch=1 c=64 v=63
102804 Par ch=1 c=64 v=127
102890 On ch=1 n=f4 v=0
103068 On ch=1 n=f4 v=41
103200 On ch=1 n=f4 v=0
103310 On ch=1 n=g#4 v=0
103380 On ch=1 n=f4 v=45
103438 On ch=1 n=f5 v=0
103522 On ch=1 n=f4 v=0
103618 On ch=1 n=f3 v=0
103678 On ch=1 n=f4 v=40
103814 On ch=1 n=f4 v=0
103966 On ch=1 n=f4 v=41
104102 On ch=1 n=f4 v=0
104262 On ch=1 n=c6 v=75
104270 On ch=1 n=g#5 v=50
104290 On ch=1 n=f4 v=45
104402 On ch=1 n=f4 v=0
104578 On ch=1 n=f4 v=58
104724 On ch=1 n=g#5 v=0
104744 On ch=1 n=c6 v=0
104754 On ch=1 n=f4 v=0
104858 On ch=1 n=c6 v=89
104872 On ch=1 n=g#5 v=76
104886 On ch=1 n=f4 v=55
105062 On ch=1 n=f4 v=0
105208 On ch=1 n=f4 v=65
105292 On ch=1 n=g#5 v=0
105342 On ch=1 n=c6 v=0
105368 On ch=1 n=f4 v=0
105522 On ch=1 n=c6 v=91
105526 On ch=1 n=f4 v=60
105530 On ch=1 n=g#5 v=88
105690 On ch=1 n=f4 v=0
105854 On ch=1 n=f4 v=63
106040 On ch=1 n=g#5 v=0
106076 On ch=1 n=c6 v=0
106128 On ch=1 n=f4 v=0
106282 On ch=1 n=e3 v=85
106316 On ch=1 n=c6 v=94
106322 On ch=1 n=g5 v=76
106536 Par ch=1 c=64 v=63
106606 Par ch=1 c=64 v=0
106792 On ch=1 n=e4 v=59
106806 Par ch=1 c=64 v=63
106838 Par ch=1 c=64 v=127
107056 On ch=1 n=e4 v=0
107160 On ch=1 n=e4 v=61
107254 On ch=1 n=e3 v=0
107288 On ch=1 n=e4 v=0
107450 On ch=1 n=e4 v=69
107566 On ch=1 n=e4 v=0
107732 On ch=1 n=e4 v=71
107842 On ch=1 n=e4 v=0
108020 On ch=1 n=e4 v=77
108110 On ch=1 n=e4 v=0
108310 On ch=1 n=c#6 v=100
108312 On ch=1 n=e4 v=57
108374 On ch=1 n=c6 v=0
108406 On ch=1 n=e4 v=0
108596 On ch=1 n=e4 v=66
108706 On ch=1 n=e4 v=0
108898 On ch=1 n=c#6 v=0
108922 On ch=1 n=c6 v=98
108946 On ch=1 n=e4 v=60
109054 On ch=1 n=e4 v=0
109196 On ch=1 n=e4 v=65
109290 On ch=1 n=e4 v=0
109468 On ch=1 n=e4 v=40
109486 On ch=1 n=a#5 v=108
109640 On ch=1 n=c6 v=0
109644 On ch=1 n=e4 v=0
109814 On ch=1 n=e4 v=76
109824 On ch=1 n=g5 v=0
109926 On ch=1 n=a#5 v=0
110058 On ch=1 n=e4 v=0
110120 On ch=1 n=c6 v=71
110126 On ch=1 n=f3 v=51
110134 On ch=1 n=g5 v=59
110270 Par ch=1 c=64 v=63
110406 Par ch=1 c=64 v=127
110508 On ch=1 n=a#5 v=81
110546 On ch=1 n=f4 v=46
110556 On ch=1 n=c6 v=0
110696 On ch=1 n=g5 v=0
110712 On ch=1 n=f4 v=0
110904 On ch=1 n=g#5 v=63
110908 On ch=1 n=f4 v=46
110910 On ch=1 n=a#5 v=0
110914 On ch=1 n=f5 v=37
111054 Par ch=1 c=64 v=63
111128 On ch=1 n=f4 v=0
111170 Par ch=1 c=64 v=127
111218 On ch=1 n=f4 v=55
111344 On ch=1 n=f4 v=0
111592 On ch=1 n=f4 v=29
111672 On ch=1 n=f5 v=0
111922 On ch=1 n=g#5 v=0
112168 On ch=1 n=f4 v=0
112180 On ch=1 n=f3 v=0
112458 On ch=1 n=g#5 v=51
112660 Par ch=1 c=64 v=63
112752 Par ch=1 c=64 v=0
112968 Par ch=1 c=64 v=63
113022 Par ch=1 c=64 v=127
113130 On ch=1 n=a#5 v=61
113220 On ch=1 n=g#5 v=0
113796 On ch=1 n=c6 v=64
113906 Par ch=1 c=64 v=63
113912 On ch=1 n=a#5 v=0
114048 Par ch=1 c=64 v=127
114576 On ch=1 n=d#6 v=60
114752 Par ch=1 c=64 v=63
114904 Par ch=1 c=64 v=127
114930 On ch=1 n=c6 v=0
115386 On ch=1 n=c#6 v=68
115418 On ch=1 n=c#5 v=26
115420 On ch=1 n=g#4 v=40
115428 On ch=1 n=d#6 v=0
115450 On ch=1 n=f4 v=16
115570 Par ch=1 c=64 v=63
115650 Par ch=1 c=64 v=127
115860 On ch=1 n=c#5 v=0
115866 On ch=1 n=g#4 v=0
115894 On ch=1 n=f4 v=0
116120 On ch=1 n=c#5 v=51
116122 On ch=1 n=g#4 v=55
116138 On ch=1 n=f4 v=49
116492 On ch=1 n=c#6 v=0
116598 On ch=1 n=g#4 v=0
116602 On ch=1 n=c#5 v=0
116624 On ch=1 n=f4 v=0
116800 On ch=1 n=c6 v=52
116820 On ch=1 n=c#5 v=58
116822 On ch=1 n=g#4 v=52
116834 On ch=1 n=f4 v=58
116958 On ch=1 n=c#6 v=67
117046 On ch=1 n=c6 v=0
117304 On ch=1 n=c#5 v=0
117310 On ch=1 n=g#4 v=0
117336 On ch=1 n=c#6 v=0
117342 On ch=1 n=f4 v=0
117504 On ch=1 n=c#5 v=74
117506 On ch=1 n=c6 v=81
117508 On ch=1 n=g#4 v=67
117524 On ch=1 n=f4 v=69
117652 On ch=1 n=c#6 v=92
117662 Par ch=1 c=64 v=63
117708 Par ch=1 c=64 v=127
117770 On ch=1 n=c6 v=0
118024 On ch=1 n=c#5 v=0
118026 On ch=1 n=c#6 v=0
118026 On ch=1 n=g#4 v=0
118062 On ch=1 n=f4 v=0
118176 On ch=1 n=c6 v=94
118178 On ch=1 n=c#5 v=94
118182 On ch=1 n=g#4 v=80
118190 On ch=1 n=f4 v=69
118330 Par ch=1 c=64 v=63
118354 On ch=1 n=c#6 v=95
118398 Par ch=1 c=64 v=0
118432 On ch=1 n=c6 v=0
118450 Par ch=1 c=64 v=63
118496 Par ch=1 c=64 v=127
118712 On ch=1 n=f4 v=0
118754 On ch=1 n=g#4 v=0
118842 On ch=1 n=c#6 v=0
118846 On ch=1 n=c#5 v=0
119086 On ch=1 n=c#5 v=72
119090 On ch=1 n=d#5 v=80
119094 On ch=1 n=g4 v=61
119100 On ch=1 n=c#6 v=100
119102 On ch=1 n=a#4 v=76
119256 Par ch=1 c=64 v=63
119370 Par ch=1 c=64 v=127
119706 On ch=1 n=c#6 v=0
119720 On ch=1 n=d#6 v=83
119786 On ch=1 n=c#6 v=61
119802 On ch=1 n=d#6 v=0
119884 On ch=1 n=c6 v=75
119904 On ch=1 n=c#6 v=0
119990 On ch=1 n=c#6 v=77
120010 On ch=1 n=c6 v=0
120130 Par ch=1 c=64 v=63
120184 Par ch=1 c=64 v=0
120288 Par ch=1 c=64 v=63
120318 Par ch=1 c=64 v=127
120380 On ch=1 n=d#6 v=81
120488 On ch=1 n=c#6 v=0
120526 Par ch=1 c=64 v=63
120610 Par ch=1 c=64 v=127
120828 On ch=1 n=f6 v=76
120984 On ch=1 n=d#6 v=0
121068 Par ch=1 c=64 v=63
121130 Par ch=1 c=64 v=0
122204 Par ch=1 c=64 v=63
122224 Par ch=1 c=64 v=127
122490 On ch=1 n=a#4 v=0
122532 On ch=1 n=d#5 v=0
122542 On ch=1 n=c#5 v=0
122620 On ch=1 n=g4 v=0
123070 Par ch=1 c=64 v=63
123120 On ch=1 n=d#6 v=56
123286 Par ch=1 c=64 v=0
123384 Par ch=1 c=64 v=63
123398 On ch=1 n=f6 v=0
123444 Par ch=1 c=64 v=127
123520 On ch=1 n=c#6 v=58
123638 On ch=1 n=d#6 v=0
123832 On ch=1 n=c6 v=74
123838 On ch=1 n=g#4 v=68
123856 Par ch=1 c=64 v=63
123878 On ch=1 n=c#6 v=0
124014 Par ch=1 c=64 v=127
124160 On ch=1 n=d#6 v=81
124214 On ch=1 n=c6 v=0
124450 On ch=1 n=a#4 v=66
124454 On ch=1 n=c#4 v=61
124472 On ch=1 n=c#6 v=87
124510 On ch=1 n=g#4 v=0
124520 Par ch=1 c=64 v=63
124548 On ch=1 n=d#6 v=0
124586 Par ch=1 c=64 v=0
124668 Par ch=1 c=64 v=63
124706 Par ch=1 c=64 v=127
124794 On ch=1 n=a#5 v=93
124852 On ch=1 n=c#6 v=0
124982 On ch=1 n=a#4 v=0
125146 On ch=1 n=g#5 v=90
125174 On ch=1 n=c#4 v=0
125184 On ch=1 n=c5 v=55
125188 On ch=1 n=d#4 v=60
125216 On ch=1 n=a#5 v=0
125312 Par ch=1 c=64 v=63
125392 Par ch=1 c=64 v=0
125940 Par ch=1 c=64 v=63
125952 Par ch=1 c=64 v=127
126180 On ch=1 n=c5 v=0
126522 On ch=1 n=c#5 v=64
126680 Par ch=1 c=64 v=63
126722 Par ch=1 c=64 v=0
126780 Par ch=1 c=64 v=63
126820 Par ch=1 c=64 v=127
126956 On ch=1 n=g#5 v=0
127194 On ch=1 n=g5 v=41
127198 On ch=1 n=c6 v=55
127310 Par ch=1 c=64 v=63
127442 Par ch=1 c=64 v=127
127528 On ch=1 n=a#5 v=73
127592 On ch=1 n=c#5 v=0
127594 On ch=1 n=c6 v=0
127750 On ch=1 n=d#4 v=0
127782 On ch=1 n=g5 v=0
127904 On ch=1 n=g#5 v=61
127916 On ch=1 n=a#5 v=0
127916 On ch=1 n=g#4 v=42
127930 On ch=1 n=c5 v=35
128036 Par ch=1 c=64 v=63
128088 Par ch=1 c=64 v=0
128280 Par ch=1 c=64 v=63
128306 Par ch=1 c=64 v=127
128612 On ch=1 n=c5 v=0
128688 On ch=1 n=g#4 v=0
129420 On ch=1 n=g#3 v=36
129754 On ch=1 n=g#5 v=0
129836 On ch=1 n=g#3 v=0
130312 On ch=1 n=d#5 v=52
130380 Par ch=1 c=64 v=63
130578 Par ch=1 c=64 v=0
131008 On ch=1 n=g#5 v=74
131166 Par ch=1 c=64 v=63
131198 Par ch=1 c=64 v=127
131268 On ch=1 n=d#5 v=0
131720 On ch=1 n=c6 v=88
131842 Par ch=1 c=64 v=63
131922 Par ch=1 c=64 v=127
132130 On ch=1 n=g#5 v=0
132444 On ch=1 n=d#6 v=76
132564 Par ch=1 c=64 v=63
132584 On ch=1 n=c6 v=0
132636 Par ch=1 c=64 v=0
132690 Par ch=1 c=64 v=63
132738 Par ch=1 c=64 v=127
133160 On ch=1 n=g#4 v=68
133844 On ch=1 n=c5 v=76
133928 Par ch=1 c=64 v=63
134060 Par ch=1 c=64 v=127
134264 On ch=1 n=g#4 v=0
134518 On ch=1 n=d#5 v=63
134520 On ch=1 n=c#6 v=82
134588 Par ch=1 c=64 v=63
134614 On ch=1 n=c5 v=0
134646 Par ch=1 c=64 v=127
134788 On ch=1 n=d#6 v=0
134830 On ch=1 n=c#6 v=0
134830 On ch=1 n=c6 v=88
135140 On ch=1 n=f4 v=48
135160 On ch=1 n=a#5 v=83
135214 On ch=1 n=d#5 v=0
135264 Par ch=1 c=64 v=63
135268 On ch=1 n=c6 v=0
135338 Par ch=1 c=64 v=0
135790 On ch=1 n=g#5 v=68
135822 On ch=1 n=d5 v=38
135902 On ch=1 n=a#5 v=0
136096 On ch=1 n=f4 v=0
136162 Par ch=1 c=64 v=63
136186 Par ch=1 c=64 v=127
136456 On ch=1 n=c6 v=60
136468 On ch=1 n=d5 v=0
136550 On ch=1 n=g#5 v=0
136646 Par ch=1 c=64 v=63
136760 Par ch=1 c=64 v=0
137110 On ch=1 n=d#4 v=55
137164 Par ch=1 c=64 v=63
137200 Par ch=1 c=64 v=127
137802 On ch=1 n=a#5 v=63
137820 On ch=1 n=g4 v=35
137856 On ch=1 n=c6 v=0
138028 On ch=1 n=d#4 v=0
138374 On ch=1 n=a#5 v=0
138586 On ch=1 n=a#4 v=55
138596 On ch=1 n=e4 v=60
138610 On ch=1 n=c5 v=70
138684 On ch=1 n=g4 v=0
138722 Par ch=1 c=64 v=63
138766 Par ch=1 c=64 v=0
138920 Par ch=1 c=64 v=63
138940 Par ch=1 c=64 v=127
139266 On ch=1 n=f5 v=85
139282 On ch=1 n=f4 v=64
139294 On ch=1 n=g#4 v=72
139316 On ch=1 n=c5 v=0
139328 On ch=1 n=e4 v=0
139382 On ch=1 n=a#4 v=0
139512 Par ch=1 c=64 v=63
139570 Par ch=1 c=64 v=0
139736 Par ch=1 c=64 v=63
139756 Par ch=1 c=64 v=127
139928 On ch=1 n=g#5 v=95
139992 Par ch=1 c=64 v=63
140056 On ch=1 n=f5 v=0
140092 On ch=1 n=g#4 v=0
140118 Par ch=1 c=64 v=127
140140 On ch=1 n=f4 v=0
140642 On ch=1 n=c6 v=90
140674 Par ch=1 c=64 v=63
140738 Par ch=1 c=64 v=0
140880 On ch=1 n=g#5 v=0
141342 On ch=1 n=c#4 v=71
141604 Par ch=1 c=64 v=63
141622 Par ch=1 c=64 v=127
142024 On ch=1 n=f4 v=76
142678 On ch=1 n=g#4 v=79
142700 On ch=1 n=a#5 v=87
142764 On ch=1 n=c6 v=0
143012 On ch=1 n=g#5 v=93
143106 On ch=1 n=a#5 v=0
143336 On ch=1 n=g5 v=90
143356 On ch=1 n=a#4 v=85
143404 On ch=1 n=g#5 v=0
143474 Par ch=1 c=64 v=63
143504 Par ch=1 c=64 v=0
143560 On ch=1 n=g#4 v=0
143632 Par ch=1 c=64 v=63
143634 On ch=1 n=f4 v=0
143650 Par ch=1 c=64 v=127
144046 On ch=1 n=f5 v=82
144080 On ch=1 n=b4 v=84
144110 On ch=1 n=g5 v=0
144132 On ch=1 n=a#4 v=0
144210 Par ch=1 c=64 v=63
144326 Par ch=1 c=64 v=127
144574 On ch=1 n=c#4 v=0
144600 On ch=1 n=f5 v=0
144888 On ch=1 n=b4 v=0
144990 On ch=1 n=g#5 v=91
144992 On ch=1 n=c5 v=83
144998 On ch=1 n=f5 v=83
145014 On ch=1 n=c4 v=53
145318 Par ch=1 c=64 v=63
145378 Par ch=1 c=64 v=0
145638 Par ch=1 c=64 v=63
145654 Par ch=1 c=64 v=127
146406 On ch=1 n=g#5 v=0
146434 On ch=1 n=f5 v=0
146862 On ch=1 n=e5 v=53
146870 On ch=1 n=g5 v=67
146988 Par ch=1 c=64 v=63
147020 Par ch=1 c=64 v=0
147126 Par ch=1 c=64 v=63
147144 Par ch=1 c=64 v=127
147396 On ch=1 n=e5 v=0
147484 On ch=1 n=g5 v=0
147576 On ch=1 n=c5 v=0
147790 On ch=1 n=c6 v=60
147860 On ch=1 n=c4 v=0
148038 Par ch=1 c=64 v=63
148102 Par ch=1 c=64 v=0
148318 Par ch=1 c=64 v=63
148338 Par ch=1 c=64 v=127
148442 On ch=1 n=f6 v=76
148574 On ch=1 n=c6 v=0
149154 On ch=1 n=g#6 v=76
149162 On ch=1 n=g#3 v=59
149208 Par ch=1 c=64 v=63
149256 Par ch=1 c=64 v=0
149262 On ch=1 n=f6 v=0
149346 Par ch=1 c=64 v=63
149372 Par ch=1 c=64 v=127
149834 On ch=1 n=a#3 v=88
149854 On ch=1 n=g6 v=78
149910 On ch=1 n=g#6 v=0
149916 On ch=1 n=g#3 v=0
149940 Par ch=1 c=64 v=63
149982 Par ch=1 c=64 v=0
150104 Par ch=1 c=64 v=63
150126 Par ch=1 c=64 v=127
150496 On ch=1 n=f6 v=84
150498 On ch=1 n=a#4 v=86
150560 On ch=1 n=g6 v=0
150582 Par ch=1 c=64 v=63
150674 Par ch=1 c=64 v=127
150722 On ch=1 n=a#3 v=0
151038 On ch=1 n=f6 v=0
151088 On ch=1 n=a#4 v=0
151118 On ch=1 n=b4 v=88
151412 Par ch=1 c=64 v=63
151462 Par ch=1 c=64 v=0
151736 Par ch=1 c=64 v=63
151738 On ch=1 n=c6 v=89
151744 On ch=1 n=c5 v=84
151760 Par ch=1 c=64 v=127
151830 On ch=1 n=b4 v=0
151902 Par ch=1 c=64 v=63
151954 Par ch=1 c=64 v=0
152396 Par ch=1 c=64 v=63
152400 On ch=1 n=c5 v=0
152410 Par ch=1 c=64 v=127
152430 On ch=1 n=f6 v=88
152502 On ch=1 n=c6 v=0
153040 Par ch=1 c=64 v=63
153078 Par ch=1 c=64 v=0
153110 On ch=1 n=c4 v=90
153132 On ch=1 n=g#6 v=95
153204 On ch=1 n=f6 v=0
153238 Par ch=1 c=64 v=63
153254 Par ch=1 c=64 v=127
153742 On ch=1 n=g#6 v=0
153842 On ch=1 n=g6 v=89
153848 On ch=1 n=c#4 v=86
153960 On ch=1 n=c4 v=0
153986 Par ch=1 c=64 v=63
154022 Par ch=1 c=64 v=0
154136 Par ch=1 c=64 v=63
154158 Par ch=1 c=64 v=127
154522 On ch=1 n=c#5 v=98
154526 On ch=1 n=f6 v=96
154562 Par ch=1 c=64 v=63
154602 On ch=1 n=g6 v=0
154614 On ch=1 n=c#4 v=0
154658 Par ch=1 c=64 v=127
155042 On ch=1 n=c#5 v=0
155104 On ch=1 n=f6 v=0
155306 On ch=1 n=d#5 v=98
155388 On ch=1 n=d#5 v=0
156114 On ch=1 n=c5 v=98
156114 On ch=1 n=f6 v=93
156120 On ch=1 n=d#6 v=78
156128 On ch=1 n=a5 v=64
156128 On ch=1 n=c4 v=80
156138 On ch=1 n=c6 v=79
156190 Par ch=1 c=64 v=63
156214 Par ch=1 c=64 v=0
156348 Par ch=1 c=64 v=63
156368 Par ch=1 c=64 v=127
156510 On ch=1 n=c5 v=0
156564 On ch=1 n=c4 v=0
156594 On ch=1 n=d#6 v=0
156608 On ch=1 n=c6 v=0
156612 On ch=1 n=a5 v=0
156638 On ch=1 n=f6 v=0
156894 On ch=1 n=f6 v=109
156902 On ch=1 n=a4 v=89
156908 On ch=1 n=a3 v=90
156910 On ch=1 n=a5 v=77
156910 On ch=1 n=d#6 v=88
156912 On ch=1 n=c6 v=85
157018 Par ch=1 c=64 v=63
157048 Par ch=1 c=64 v=0
157130 Par ch=1 c=64 v=63
157154 Par ch=1 c=64 v=127
157252 On ch=1 n=a4 v=0
157278 On ch=1 n=a3 v=0
157376 On ch=1 n=d#6 v=0
157388 On ch=1 n=c6 v=0
157406 On ch=1 n=f6 v=0
157414 On ch=1 n=a5 v=0
157568 On ch=1 n=f6 v=113
157580 On ch=1 n=f4 v=94
157582 On ch=1 n=a5 v=90
157584 On ch=1 n=f3 v=94
157586 On ch=1 n=d#6 v=92
157590 On ch=1 n=c6 v=89
157680 Par ch=1 c=64 v=63
157712 Par ch=1 c=64 v=0
157812 Par ch=1 c=64 v=63
157832 Par ch=1 c=64 v=127
157950 On ch=1 n=f3 v=0
158036 On ch=1 n=c6 v=0
158040 On ch=1 n=f4 v=0
158052 On ch=1 n=d#6 v=0
158068 On ch=1 n=f6 v=0
158216 On ch=1 n=a5 v=0
158298 On ch=1 n=a#3 v=84
158298 On ch=1 n=a#4 v=81
158300 On ch=1 n=f6 v=97
158318 On ch=1 n=c#6 v=88
158348 Par ch=1 c=64 v=63
158384 Par ch=1 c=64 v=0
158476 Par ch=1 c=64 v=63
158498 Par ch=1 c=64 v=127
158652 On ch=1 n=c#6 v=0
158778 On ch=1 n=c#6 v=85
158792 On ch=1 n=a#5 v=81
158848 On ch=1 n=f6 v=0
158904 On ch=1 n=c#6 v=0
158912 On ch=1 n=a#5 v=0
159128 On ch=1 n=c#6 v=90
159136 On ch=1 n=a#5 v=87
159174 Par ch=1 c=64 v=63
159278 Par ch=1 c=64 v=127
159348 On ch=1 n=a#5 v=0
159432 On ch=1 n=a#5 v=94
159450 On ch=1 n=a#4 v=0
159452 On ch=1 n=a#3 v=0
159454 On ch=1 n=g5 v=44
159482 On ch=1 n=c#6 v=0
159650 On ch=1 n=g5 v=0
159792 On ch=1 n=c5 v=63
159798 On ch=1 n=g#5 v=85
159802 On ch=1 n=f5 v=54
159804 On ch=1 n=c4 v=41
159874 On ch=1 n=a#5 v=0
159944 Par ch=1 c=64 v=63
159972 Par ch=1 c=64 v=0
160622 Par ch=1 c=64 v=63
160630 Par ch=1 c=64 v=127
160794 On ch=1 n=f5 v=0
160818 On ch=1 n=c4 v=0
160818 On ch=1 n=c5 v=0
160848 On ch=1 n=g#5 v=0
161266 On ch=1 n=g#5 v=70
161288 On ch=1 n=a#4 v=52
161290 On ch=1 n=e5 v=59
161298 On ch=1 n=c4 v=46
161444 Par ch=1 c=64 v=63
161506 Par ch=1 c=64 v=0
161584 Par ch=1 c=64 v=63
161634 On ch=1 n=g5 v=65
161638 Par ch=1 c=64 v=127
161676 On ch=1 n=g#5 v=0
161928 Par ch=1 c=64 v=63
161970 Par ch=1 c=64 v=0
161984 On ch=1 n=f5 v=57
162044 On ch=1 n=g5 v=0
162054 Par ch=1 c=64 v=63
162100 Par ch=1 c=64 v=127
162324 On ch=1 n=g5 v=51
162380 On ch=1 n=a#4 v=0
162404 On ch=1 n=f5 v=0
162472 On ch=1 n=c4 v=0
162736 On ch=1 n=f5 v=51
162738 On ch=1 n=e5 v=0
162756 On ch=1 n=g#4 v=32
162780 On ch=1 n=g5 v=0
162782 On ch=1 n=f4 v=32
162918 Par ch=1 c=64 v=63
162970 Par ch=1 c=64 v=0
163126 Par ch=1 c=64 v=63
163158 Par ch=1 c=64 v=127
163462 Par ch=1 c=64 v=63
163520 Par ch=1 c=64 v=127
163754 On ch=1 n=g#4 v=0
163764 On ch=1 n=f4 v=0
164316 On ch=1 n=f3 v=34
164434 On ch=1 n=f5 v=0
165332 On ch=1 n=g#5 v=31
165338 On ch=1 n=c5 v=36
165342 Par ch=1 c=64 v=63
165374 On ch=1 n=f3 v=0
165380 Par ch=1 c=64 v=0
165448 Par ch=1 c=64 v=63
165498 Par ch=1 c=64 v=127
165906 On ch=1 n=c5 v=0
165918 On ch=1 n=g#5 v=0
166138 On ch=1 n=g#5 v=43
166160 On ch=1 n=c5 v=36
166310 On ch=1 n=c5 v=0
166328 On ch=1 n=g#5 v=0
166842 On ch=1 n=g#5 v=48
166864 On ch=1 n=c5 v=43
167156 On ch=1 n=c5 v=0
167168 On ch=1 n=g#5 v=0
167800 On ch=1 n=f3 v=35
167834 On ch=1 n=g#5 v=40
167862 On ch=1 n=c5 v=32
168134 Par ch=1 c=64 v=63
168276 Par ch=1 c=64 v=127
168396 On ch=1 n=f4 v=36
168614 On ch=1 n=f4 v=0
168798 On ch=1 n=f4 v=26
168934 On ch=1 n=f4 v=0
169040 On ch=1 n=c5 v=0
169132 On ch=1 n=f4 v=34
169236 On ch=1 n=g#5 v=0
169246 On ch=1 n=f4 v=0
169470 On ch=1 n=f4 v=21
169574 On ch=1 n=f4 v=0
169786 On ch=1 n=f4 v=30
169914 On ch=1 n=f4 v=0
170078 On ch=1 n=g5 v=60
170080 On ch=1 n=a#4 v=35
170112 On ch=1 n=f4 v=17
170230 On ch=1 n=f4 v=0
170410 On ch=1 n=a#4 v=0
170410 On ch=1 n=f4 v=43
170526 On ch=1 n=f4 v=0
170688 On ch=1 n=g5 v=0
170690 On ch=1 n=a#5 v=78
170698 On ch=1 n=c#5 v=59
170714 On ch=1 n=f4 v=30
170842 On ch=1 n=f4 v=0
170942 On ch=1 n=a#5 v=0
170994 On ch=1 n=c#5 v=0
171024 On ch=1 n=f4 v=49
171140 On ch=1 n=f4 v=0
171336 On ch=1 n=e5 v=74
171348 On ch=1 n=g4 v=40
171352 On ch=1 n=f4 v=38
171456 On ch=1 n=f4 v=0
171568 On ch=1 n=e5 v=0
171598 On ch=1 n=g4 v=0
171652 On ch=1 n=f4 v=31
171698 On ch=1 n=f3 v=0
171988 On ch=1 n=f3 v=47
171996 On ch=1 n=g#4 v=51
172002 On ch=1 n=f4 v=0
172008 On ch=1 n=f5 v=65
172164 Par ch=1 c=64 v=63
172230 Par ch=1 c=64 v=0
172248 Par ch=1 c=64 v=63
172302 Par ch=1 c=64 v=127
172308 On ch=1 n=f4 v=45
172446 On ch=1 n=f4 v=0
172626 On ch=1 n=f4 v=27
172762 On ch=1 n=f4 v=0
172844 On ch=1 n=g#4 v=0
172948 On ch=1 n=f5 v=0
172948 On ch=1 n=f4 v=41
173074 On ch=1 n=f4 v=0
173288 On ch=1 n=f4 v=28
173396 On ch=1 n=f4 v=0
173582 On ch=1 n=f4 v=32
173698 On ch=1 n=f4 v=0
173886 On ch=1 n=g#5 v=52
173888 On ch=1 n=c6 v=63
173910 On ch=1 n=f4 v=20
174028 On ch=1 n=f4 v=0
174216 On ch=1 n=f4 v=53
174250 On ch=1 n=g#5 v=0
174280 On ch=1 n=c6 v=0
174364 On ch=1 n=f4 v=0
174540 On ch=1 n=g#5 v=70
174540 On ch=1 n=c6 v=83
174566 On ch=1 n=f4 v=44
174692 On ch=1 n=f4 v=0
174832 On ch=1 n=g#5 v=0
174864 On ch=1 n=f4 v=52
174866 On ch=1 n=c6 v=0
174984 On ch=1 n=f4 v=0
175174 On ch=1 n=g#5 v=84
175176 On ch=1 n=c6 v=87
175196 On ch=1 n=f4 v=46
175346 On ch=1 n=f4 v=0
175542 On ch=1 n=f4 v=65
175574 On ch=1 n=c6 v=0
175574 On ch=1 n=g#5 v=0
175632 On ch=1 n=f3 v=0
176030 On ch=1 n=c6 v=80
176032 On ch=1 n=f3 v=43
176050 On ch=1 n=f4 v=0
176052 On ch=1 n=g#5 v=67
176060 On ch=1 n=e5 v=67
176198 Par ch=1 c=64 v=63
176272 Par ch=1 c=64 v=0
176474 Par ch=1 c=64 v=63
176494 Par ch=1 c=64 v=127
176542 On ch=1 n=f4 v=28
176736 On ch=1 n=f4 v=0
176888 On ch=1 n=f4 v=40
177044 On ch=1 n=f4 v=0
177194 On ch=1 n=f4 v=54
177314 On ch=1 n=f4 v=0
177520 On ch=1 n=f4 v=49
177554 On ch=1 n=g#5 v=0
177632 On ch=1 n=f4 v=0
177674 On ch=1 n=c6 v=0
177720 On ch=1 n=f3 v=0
177818 On ch=1 n=e5 v=0
177854 On ch=1 n=f4 v=38
177948 On ch=1 n=f4 v=0
178168 On ch=1 n=a#5 v=71
178190 On ch=1 n=g5 v=44
178190 On ch=1 n=f4 v=28
178318 On ch=1 n=f4 v=0
178528 On ch=1 n=f4 v=48
178630 On ch=1 n=f4 v=0
178842 On ch=1 n=a#5 v=0
178846 On ch=1 n=g5 v=0
178930 On ch=1 n=c#6 v=72
178938 On ch=1 n=f4 v=39
178946 On ch=1 n=a#5 v=38
179024 On ch=1 n=f4 v=0
179278 On ch=1 n=c#6 v=0
179308 On ch=1 n=a#5 v=0
179380 On ch=1 n=f4 v=38
179454 On ch=1 n=f4 v=0
179838 On ch=1 n=a#4 v=20
179840 On ch=1 n=e5 v=58
179852 On ch=1 n=c5 v=52
179854 On ch=1 n=f4 v=18
179952 On ch=1 n=f4 v=0
180380 On ch=1 n=f4 v=22
180502 On ch=1 n=c5 v=0
180512 On ch=1 n=f4 v=0
180520 On ch=1 n=a#4 v=0
180628 On ch=1 n=e5 v=0
181350 On ch=1 n=f5 v=38
181352 On ch=1 n=f4 v=24
181358 On ch=1 n=g#4 v=28
181366 On ch=1 n=c5 v=42
181568 Par ch=1 c=64 v=63
181676 Par ch=1 c=64 v=0
183404 On ch=1 n=c5 v=0
183522 On ch=1 n=g#4 v=0
183530 On ch=1 n=f5 v=0
183690 On ch=1 n=f4 v=0
184616 On ch=1 n=c6 v=46
184792 Par ch=1 c=64 v=63
184868 Par ch=1 c=64 v=127
185206 On ch=1 n=c6 v=0
185328 On ch=1 n=c6 v=58
185802 On ch=1 n=c6 v=0
185984 On ch=1 n=c6 v=66
186442 On ch=1 n=c6 v=0
186648 On ch=1 n=f4 v=33
186656 On ch=1 n=c5 v=33
186658 On ch=1 n=a4 v=45
186664 On ch=1 n=c6 v=75
186790 Par ch=1 c=64 v=63
186866 Par ch=1 c=64 v=127
187210 On ch=1 n=c6 v=0
187216 On ch=1 n=d6 v=63
187308 On ch=1 n=d6 v=0
187326 On ch=1 n=c6 v=41
187446 On ch=1 n=c6 v=0
187446 On ch=1 n=b5 v=59
187558 On ch=1 n=b5 v=0
187564 On ch=1 n=c6 v=50
187594 Par ch=1 c=64 v=63
187658 Par ch=1 c=64 v=0
187748 Par ch=1 c=64 v=63
187782 Par ch=1 c=64 v=127
187928 On ch=1 n=f6 v=64
188012 On ch=1 n=c6 v=0
188064 Par ch=1 c=64 v=63
188134 Par ch=1 c=64 v=0
188278 On ch=1 n=c6 v=57
188378 On ch=1 n=f6 v=0
188614 Par ch=1 c=64 v=63
188632 Par ch=1 c=64 v=127
188834 On ch=1 n=c6 v=0
188952 Par ch=1 c=64 v=63
188974 On ch=1 n=a5 v=74
188988 Par ch=1 c=64 v=0
189070 Par ch=1 c=64 v=63
189098 Par ch=1 c=64 v=127
189212 On ch=1 n=c5 v=0
189222 On ch=1 n=a4 v=0
189244 On ch=1 n=f4 v=0
189494 On ch=1 n=a5 v=0
189636 On ch=1 n=c6 v=76
189640 On ch=1 n=a#4 v=53
189652 On ch=1 n=c4 v=41
189656 On ch=1 n=g4 v=50
189792 Par ch=1 c=64 v=63
189844 Par ch=1 c=64 v=0
190038 Par ch=1 c=64 v=63
190070 Par ch=1 c=64 v=127
190330 On ch=1 n=c6 v=0
190332 On ch=1 n=e5 v=81
190588 On ch=1 n=a#4 v=0
190736 On ch=1 n=g4 v=0
190832 On ch=1 n=c4 v=0
191004 On ch=1 n=e5 v=0
191098 On ch=1 n=g5 v=70
191118 On ch=1 n=a#4 v=47
191134 On ch=1 n=d4 v=55
191344 Par ch=1 c=64 v=63
191424 Par ch=1 c=64 v=0
191872 Par ch=1 c=64 v=63
191884 Par ch=1 c=64 v=127
192424 On ch=1 n=a#4 v=0
192748 On ch=1 n=f5 v=37
192762 On ch=1 n=a4 v=22
192842 On ch=1 n=g5 v=0
192898 Par ch=1 c=64 v=63
192950 Par ch=1 c=64 v=0
192986 Par ch=1 c=64 v=63
193032 Par ch=1 c=64 v=127
193222 On ch=1 n=d4 v=0
193230 On ch=1 n=f5 v=0
193322 On ch=1 n=a4 v=0
193600 On ch=1 n=a4 v=48
193602 On ch=1 n=f5 v=68
193610 On ch=1 n=c5 v=60
193622 On ch=1 n=a3 v=45
193686 Par ch=1 c=64 v=63
193716 Par ch=1 c=64 v=0
193856 Par ch=1 c=64 v=63
193872 Par ch=1 c=64 v=127
194078 On ch=1 n=a4 v=0
194288 On ch=1 n=g5 v=79
194290 On ch=1 n=f5 v=0
194292 On ch=1 n=g4 v=50
194300 On ch=1 n=e5 v=71
194302 On ch=1 n=g3 v=60
194318 On ch=1 n=a3 v=0
194408 Par ch=1 c=64 v=63
194496 Par ch=1 c=64 v=127
194712 On ch=1 n=g4 v=0
194884 On ch=1 n=c5 v=0
194958 On ch=1 n=e5 v=0
194974 On ch=1 n=g5 v=0
194992 On ch=1 n=a5 v=87
194996 On ch=1 n=f4 v=59
194996 On ch=1 n=f3 v=71
195004 On ch=1 n=f5 v=71
195010 On ch=1 n=c5 v=57
195076 On ch=1 n=g3 v=0
195082 Par ch=1 c=64 v=63
195168 Par ch=1 c=64 v=127
195294 On ch=1 n=f3 v=0
195314 On ch=1 n=c5 v=0
195356 On ch=1 n=f5 v=0
195374 On ch=1 n=f4 v=0
195392 On ch=1 n=a5 v=0
195676 On ch=1 n=a#5 v=98
195688 On ch=1 n=f5 v=75
195688 On ch=1 n=d5 v=76
195696 On ch=1 n=d4 v=69
195802 Par ch=1 c=64 v=63
195828 Par ch=1 c=64 v=0
195930 Par ch=1 c=64 v=63
195950 Par ch=1 c=64 v=127
196074 On ch=1 n=d5 v=0
196124 On ch=1 n=d4 v=0
196376 On ch=1 n=a#4 v=77
196390 On ch=1 n=a#3 v=67
196662 On ch=1 n=a#4 v=0
196668 On ch=1 n=a#5 v=0
196758 On ch=1 n=a#3 v=0
196800 On ch=1 n=c6 v=60
196924 On ch=1 n=d6 v=66
196962 On ch=1 n=c6 v=0
197092 On ch=1 n=c6 v=71
197098 On ch=1 n=a4 v=39
197102 On ch=1 n=a3 v=58
197112 On ch=1 n=d6 v=0
197128 Par ch=1 c=64 v=63
197158 Par ch=1 c=64 v=0
197288 Par ch=1 c=64 v=63
197304 Par ch=1 c=64 v=127
197566 On ch=1 n=c6 v=0
197700 On ch=1 n=f5 v=0
197748 On ch=1 n=a4 v=0
197790 On ch=1 n=a3 v=0
197824 On ch=1 n=f5 v=67
198570 On ch=1 n=e5 v=65
198578 On ch=1 n=b4 v=47
198582 On ch=1 n=d4 v=46
198642 On ch=1 n=f5 v=0
198840 Par ch=1 c=64 v=63
198894 Par ch=1 c=64 v=0
199292 On ch=1 n=f5 v=62
199310 Par ch=1 c=64 v=63
199334 Par ch=1 c=64 v=127
199382 On ch=1 n=e5 v=0
199680 On ch=1 n=b4 v=0
199770 On ch=1 n=d4 v=0
199804 On ch=1 n=f5 v=0
200174 On ch=1 n=a5 v=62
200182 On ch=1 n=c4 v=27
200184 On ch=1 n=f5 v=35
200188 On ch=1 n=c5 v=37
200406 Par ch=1 c=64 v=63
200462 Par ch=1 c=64 v=0
200824 Par ch=1 c=64 v=63
200850 Par ch=1 c=64 v=127
201284 On ch=1 n=f5 v=0
201652 On ch=1 n=a5 v=0
201900 On ch=1 n=g5 v=38
201918 On ch=1 n=e5 v=16
202064 Par ch=1 c=64 v=63
202110 Par ch=1 c=64 v=0
202214 Par ch=1 c=64 v=63
202252 Par ch=1 c=64 v=127
202374 On ch=1 n=c5 v=0
202464 On ch=1 n=e5 v=0
202498 On ch=1 n=g5 v=0
202524 On ch=1 n=c4 v=0
202784 On ch=1 n=g5 v=57
202838 Par ch=1 c=64 v=63
202872 Par ch=1 c=64 v=0
203026 Par ch=1 c=64 v=63
203046 Par ch=1 c=64 v=127
203358 On ch=1 n=g5 v=0
203440 On ch=1 n=e5 v=64
203442 On ch=1 n=g5 v=69
203442 On ch=1 n=c5 v=71
203956 On ch=1 n=g5 v=0
204104 On ch=1 n=g5 v=76
204486 On ch=1 n=c5 v=0
204556 On ch=1 n=g5 v=0
204568 On ch=1 n=e5 v=0
204666 On ch=1 n=g5 v=89
204746 On ch=1 n=b4 v=56
204766 On ch=1 n=d5 v=73
204836 On ch=1 n=f5 v=68
204942 On ch=1 n=g6 v=93
204974 Par ch=1 c=64 v=63
204994 On ch=1 n=g5 v=0
205022 Par ch=1 c=64 v=0
205208 Par ch=1 c=64 v=63
205226 Par ch=1 c=64 v=127
205768 On ch=1 n=g6 v=0
206108 On ch=1 n=d6 v=53
206256 On ch=1 n=b5 v=48
206260 On ch=1 n=d6 v=0
206450 On ch=1 n=g5 v=44
206488 On ch=1 n=b5 v=0
206498 Par ch=1 c=64 v=63
206536 Par ch=1 c=64 v=0
206746 Par ch=1 c=64 v=63
206764 Par ch=1 c=64 v=127
206980 On ch=1 n=g5 v=0
207140 On ch=1 n=g5 v=67
207182 On ch=1 n=b4 v=0
207228 On ch=1 n=f5 v=0
207244 On ch=1 n=d5 v=0
207628 On ch=1 n=g5 v=0
207766 On ch=1 n=c5 v=63
207768 On ch=1 n=e5 v=68
207770 On ch=1 n=g5 v=71
207838 Par ch=1 c=64 v=63
207884 Par ch=1 c=64 v=0
207932 Par ch=1 c=64 v=63
207978 Par ch=1 c=64 v=127
208264 On ch=1 n=g5 v=0
208336 On ch=1 n=e5 v=0
208378 On ch=1 n=c5 v=0
208416 On ch=1 n=g5 v=87
208780 On ch=1 n=g5 v=0
208880 On ch=1 n=g5 v=96
209080 On ch=1 n=f4 v=76
209088 On ch=1 n=d4 v=69
209090 On ch=1 n=b4 v=81
209174 On ch=1 n=g6 v=99
209220 On ch=1 n=g5 v=0
209288 Par ch=1 c=64 v=63
209344 Par ch=1 c=64 v=0
209548 Par ch=1 c=64 v=63
209576 Par ch=1 c=64 v=127
210314 On ch=1 n=f4 v=0
210316 On ch=1 n=b4 v=0
210606 On ch=1 n=d4 v=0
210616 On ch=1 n=c5 v=63
210620 On ch=1 n=g4 v=58
210640 On ch=1 n=e4 v=57
210742 Par ch=1 c=64 v=63
210818 Par ch=1 c=64 v=0
210842 Par ch=1 c=64 v=63
210890 Par ch=1 c=64 v=127
211298 On ch=1 n=g6 v=0
211298 On ch=1 n=a6 v=62
211384 On ch=1 n=b6 v=68
211398 On ch=1 n=a6 v=0
211456 On ch=1 n=c7 v=65
211504 On ch=1 n=b6 v=0
211622 Par ch=1 c=64 v=63
211702 Par ch=1 c=64 v=0
211824 On ch=1 n=c7 v=0
211828 On ch=1 n=b6 v=76
212032 On ch=1 n=b6 v=0
212168 On ch=1 n=a6 v=57
212302 On ch=1 n=a6 v=0
212478 On ch=1 n=g6 v=67
212540 On ch=1 n=c5 v=0
212548 On ch=1 n=e4 v=0
212564 On ch=1 n=g4 v=0
212612 On ch=1 n=g6 v=0
212772 On ch=1 n=f6 v=80
212940 On ch=1 n=f6 v=0
213066 On ch=1 n=e6 v=81
213246 On ch=1 n=e6 v=0
213356 On ch=1 n=c#6 v=88
213636 On ch=1 n=d6 v=79
213664 On ch=1 n=c#6 v=0
213948 On ch=1 n=d5 v=66
213948 On ch=1 n=f4 v=55
213950 On ch=1 n=a4 v=61
213950 On ch=1 n=f6 v=86
214020 On ch=1 n=d6 v=0
214054 Par ch=1 c=64 v=63
214074 Par ch=1 c=64 v=127
214290 On ch=1 n=a6 v=83
214354 On ch=1 n=f6 v=0
214360 On ch=1 n=a4 v=0
214386 On ch=1 n=f4 v=0
214446 On ch=1 n=d5 v=0
214690 On ch=1 n=c6 v=82
214690 On ch=1 n=g4 v=54
214698 On ch=1 n=c5 v=58
214700 On ch=1 n=e5 v=54
214706 On ch=1 n=a6 v=0
214922 Par ch=1 c=64 v=63
215038 Par ch=1 c=64 v=0
215344 Par ch=1 c=64 v=63
215368 Par ch=1 c=64 v=127
215866 On ch=1 n=e5 v=0
216074 On ch=1 n=c5 v=0
216104 On ch=1 n=d5 v=49
216112 On ch=1 n=f5 v=50
216262 Par ch=1 c=64 v=63
216298 Par ch=1 c=64 v=0
216436 Par ch=1 c=64 v=63
216462 Par ch=1 c=64 v=127
216762 On ch=1 n=c6 v=0
216774 On ch=1 n=e6 v=58
216782 On ch=1 n=b5 v=41
216952 Par ch=1 c=64 v=63
217090 Par ch=1 c=64 v=127
217118 On ch=1 n=d6 v=67
217174 On ch=1 n=e6 v=0
217186 On ch=1 n=f5 v=0
217442 On ch=1 n=b5 v=0
217508 On ch=1 n=d5 v=0
217538 On ch=1 n=c6 v=56
217542 On ch=1 n=d6 v=0
217546 On ch=1 n=c5 v=32
217566 On ch=1 n=e5 v=34
217646 On ch=1 n=g4 v=0
217710 Par ch=1 c=64 v=63
217768 Par ch=1 c=64 v=0
218066 Par ch=1 c=64 v=63
218082 Par ch=1 c=64 v=127
218382 On ch=1 n=e5 v=0
218410 On ch=1 n=c5 v=0
219184 On ch=1 n=c4 v=26
219486 Par ch=1 c=64 v=63
219582 On ch=1 n=c6 v=0
219622 Par ch=1 c=64 v=127
220028 On ch=1 n=c4 v=0
220084 On ch=1 n=c6 v=60
220454 On ch=1 n=c6 v=0
220904 On ch=1 n=d6 v=71
221028 Par ch=1 c=64 v=63
221122 Par ch=1 c=64 v=0
221286 Par ch=1 c=64 v=63
221316 On ch=1 n=c6 v=76
221360 Par ch=1 c=64 v=127
221370 On ch=1 n=d6 v=0
221506 On ch=1 n=c6 v=0
221658 On ch=1 n=a#5 v=79
221688 Par ch=1 c=64 v=63
221780 Par ch=1 c=64 v=0
221996 On ch=1 n=a5 v=89
222048 Par ch=1 c=64 v=63
222062 On ch=1 n=a#5 v=0
222082 Par ch=1 c=64 v=127
222298 On ch=1 n=a5 v=0
222448 On ch=1 n=g5 v=85
222456 On ch=1 n=d#5 v=86
222468 On ch=1 n=c5 v=79
222528 Par ch=1 c=64 v=63
222532 Par ch=1 c=64 v=127
222780 Par ch=1 c=64 v=63
222800 Par ch=1 c=64 v=0
222936 Par ch=1 c=64 v=63
222950 Par ch=1 c=64 v=127
223194 Par ch=1 c=64 v=63
223252 Par ch=1 c=64 v=127
223908 On ch=1 n=f#5 v=59
224136 On ch=1 n=g5 v=0
224426 On ch=1 n=c5 v=0
224442 On ch=1 n=d#5 v=0
224450 On ch=1 n=f#5 v=0
224662 On ch=1 n=f#5 v=91
224678 On ch=1 n=d#5 v=70
224686 On ch=1 n=c5 v=71
224762 Par ch=1 c=64 v=63
224870 Par ch=1 c=64 v=127
225044 On ch=1 n=d#5 v=0
225328 On ch=1 n=a#4 v=72
225334 On ch=1 n=c5 v=0
225338 On ch=1 n=g5 v=85
225338 On ch=1 n=d5 v=61
225388 On ch=1 n=f#5 v=0
225516 Par ch=1 c=64 v=63
225574 Par ch=1 c=64 v=127
225826 On ch=1 n=a#4 v=0
225832 On ch=1 n=d5 v=0
225834 On ch=1 n=g5 v=0
225994 On ch=1 n=a5 v=80
226002 On ch=1 n=f#5 v=78
226020 On ch=1 n=d5 v=38
226030 On ch=1 n=c5 v=44
226032 On ch=1 n=a4 v=43
226180 Par ch=1 c=64 v=63
226278 Par ch=1 c=64 v=127
226506 On ch=1 n=f#5 v=0
226518 On ch=1 n=a5 v=0
226620 On ch=1 n=c5 v=0
226640 On ch=1 n=d5 v=0
226680 On ch=1 n=a4 v=0
226802 On ch=1 n=a5 v=85
226816 On ch=1 n=f#5 v=79
226826 On ch=1 n=c5 v=48
226828 On ch=1 n=d5 v=43
226832 On ch=1 n=g4 v=45
227206 Par ch=1 c=64 v=63
227250 Par ch=1 c=64 v=0
227504 Par ch=1 c=64 v=63
227524 Par ch=1 c=64 v=127
227918 On ch=1 n=a5 v=0
228002 On ch=1 n=f#5 v=0
228032 On ch=1 n=c5 v=0
228422 On ch=1 n=a#4 v=53
228434 On ch=1 n=g5 v=31
228436 On ch=1 n=a#5 v=57
228566 Par ch=1 c=64 v=63
228724 Par ch=1 c=64 v=127
228810 On ch=1 n=g5 v=0
228840 On ch=1 n=a#5 v=0
228856 On ch=1 n=g4 v=0
228878 On ch=1 n=d5 v=0
228880 On ch=1 n=a#4 v=0
229320 On ch=1 n=a#4 v=43
229340 On ch=1 n=c#5 v=55
229348 On ch=1 n=e5 v=60
229420 Par ch=1 c=64 v=63
229470 Par ch=1 c=64 v=0
229574 Par ch=1 c=64 v=63
229614 Par ch=1 c=64 v=127
230034 On ch=1 n=f5 v=78
230044 On ch=1 n=c5 v=35
230058 On ch=1 n=a4 v=47
230064 On ch=1 n=e5 v=0
230072 On ch=1 n=a#4 v=0
230142 On ch=1 n=c#5 v=0
230226 Par ch=1 c=64 v=63
230270 Par ch=1 c=64 v=127
230560 On ch=1 n=c5 v=0
230720 On ch=1 n=a#4 v=46
230730 On ch=1 n=f5 v=0
230730 On ch=1 n=g4 v=49
230732 On ch=1 n=g5 v=78
230738 On ch=1 n=e5 v=61
230760 On ch=1 n=c5 v=38
230784 On ch=1 n=a4 v=0
230934 Par ch=1 c=64 v=63
231022 Par ch=1 c=64 v=127
231290 On ch=1 n=g4 v=0
231336 On ch=1 n=c5 v=0
231378 On ch=1 n=a#4 v=0
231434 On ch=1 n=g5 v=0
231444 On ch=1 n=e5 v=0
231500 On ch=1 n=a4 v=44
231502 On ch=1 n=a5 v=76
231506 On ch=1 n=f5 v=67
231516 On ch=1 n=c5 v=41
231536 On ch=1 n=f4 v=41
231668 Par ch=1 c=64 v=63
231744 Par ch=1 c=64 v=127
231902 On ch=1 n=a4 v=0
231934 On ch=1 n=c5 v=0
231958 On ch=1 n=f4 v=0
232220 On ch=1 n=a5 v=0
232240 On ch=1 n=d4 v=60
232242 On ch=1 n=a#5 v=70
233006 On ch=1 n=c6 v=77
233018 On ch=1 n=a3 v=47
233206 Par ch=1 c=64 v=63
233208 On ch=1 n=d4 v=0
233240 On ch=1 n=a#5 v=0
233260 Par ch=1 c=64 v=0
233298 Par ch=1 c=64 v=63
233344 Par ch=1 c=64 v=127
233730 On ch=1 n=c#6 v=85
233842 On ch=1 n=c6 v=0
234456 On ch=1 n=a3 v=0
234510 On ch=1 n=e6 v=90
234514 On ch=1 n=a#3 v=47
234650 Par ch=1 c=64 v=63
234652 On ch=1 n=c#6 v=0
234794 Par ch=1 c=64 v=127
234968 On ch=1 n=d6 v=88
235070 On ch=1 n=a#3 v=0
235112 On ch=1 n=f5 v=0
235168 On ch=1 n=d6 v=0
235186 On ch=1 n=e6 v=0
235304 On ch=1 n=c6 v=91
235314 On ch=1 n=g5 v=73
235316 On ch=1 n=g3 v=67
235486 Par ch=1 c=64 v=63
235546 Par ch=1 c=64 v=0
235612 Par ch=1 c=64 v=63
235634 On ch=1 n=a#5 v=94
235660 Par ch=1 c=64 v=127
235718 On ch=1 n=c6 v=0
235762 On ch=1 n=g3 v=0
235884 On ch=1 n=g5 v=0
235974 On ch=1 n=a#5 v=0
236014 On ch=1 n=a5 v=77
236016 On ch=1 n=f5 v=57
236028 On ch=1 n=c4 v=62
236294 Par ch=1 c=64 v=63
236362 Par ch=1 c=64 v=0
236682 Par ch=1 c=64 v=63
236698 Par ch=1 c=64 v=127
237040 On ch=1 n=f5 v=0
237526 On ch=1 n=a5 v=0
237650 On ch=1 n=g5 v=51
237652 On ch=1 n=e5 v=42
237848 Par ch=1 c=64 v=63
237992 Par ch=1 c=64 v=127
238278 On ch=1 n=e5 v=0
238392 On ch=1 n=g5 v=0
238490 On ch=1 n=c4 v=0
238572 On ch=1 n=c6 v=61
238674 Par ch=1 c=64 v=63
238804 Par ch=1 c=64 v=127
239222 On ch=1 n=c6 v=0
239292 On ch=1 n=c6 v=85
239960 On ch=1 n=c6 v=0
240088 On ch=1 n=c6 v=100
240968 On ch=1 n=c6 v=0
241126 On ch=1 n=c4 v=76
241136 On ch=1 n=a#6 v=107
241152 On ch=1 n=c6 v=79
241158 On ch=1 n=c3 v=65
241522 Par ch=1 c=64 v=63
241570 Par ch=1 c=64 v=0
241708 Par ch=1 c=64 v=63
241726 Par ch=1 c=64 v=127
242010 On ch=1 n=c3 v=0
242098 On ch=1 n=c4 v=0
242320 On ch=1 n=d4 v=84
242330 On ch=1 n=d3 v=74
242390 Par ch=1 c=64 v=63
242400 Par ch=1 c=64 v=127
242556 On ch=1 n=d3 v=0
242580 On ch=1 n=d4 v=0
242696 On ch=1 n=e4 v=90
242702 On ch=1 n=e3 v=79
242898 Par ch=1 c=64 v=63
242958 Par ch=1 c=64 v=127
243246 On ch=1 n=e3 v=0
243286 On ch=1 n=e4 v=0
243352 On ch=1 n=a#6 v=0
243424 On ch=1 n=f4 v=79
243426 On ch=1 n=a6 v=107
243432 On ch=1 n=f3 v=71
243752 On ch=1 n=a6 v=0
243818 On ch=1 n=f3 v=0
243886 On ch=1 n=f4 v=0
244212 On ch=1 n=g6 v=85
244226 On ch=1 n=g4 v=65
244234 On ch=1 n=a#5 v=54
244242 On ch=1 n=g3 v=63
244342 Par ch=1 c=64 v=63
244430 Par ch=1 c=64 v=127
244704 On ch=1 n=g3 v=0
244716 On ch=1 n=a#5 v=0
244784 On ch=1 n=g4 v=0
244866 On ch=1 n=g6 v=0
244964 On ch=1 n=f6 v=86
244972 On ch=1 n=a4 v=58
244978 On ch=1 n=a5 v=63
244980 On ch=1 n=a3 v=51
245088 Par ch=1 c=64 v=63
245192 Par ch=1 c=64 v=127
245516 On ch=1 n=a3 v=0
245528 On ch=1 n=a4 v=0
245542 On ch=1 n=a5 v=0
245640 On ch=1 n=f6 v=0
246028 On ch=1 n=f6 v=64
246036 On ch=1 n=a#3 v=52
246040 On ch=1 n=a#4 v=40
246054 On ch=1 n=g5 v=45
246372 Par ch=1 c=64 v=63
246454 Par ch=1 c=64 v=0
246642 Par ch=1 c=64 v=63
246692 Par ch=1 c=64 v=0
247074 Par ch=1 c=64 v=63
247096 Par ch=1 c=64 v=127
247730 On ch=1 n=e6 v=52
247826 On ch=1 n=f6 v=0
248358 On ch=1 n=g5 v=0
248432 On ch=1 n=c6 v=0
248528 On ch=1 n=e6 v=0
248646 On ch=1 n=a#4 v=0
248674 On ch=1 n=a#3 v=0
248724 On ch=1 n=d#6 v=58
248852 Par ch=1 c=64 v=63
248924 Par ch=1 c=64 v=0
249032 Par ch=1 c=64 v=63
249104 Par ch=1 c=64 v=127
249356 On ch=1 n=d#6 v=0
249476 On ch=1 n=d#6 v=66
249916 On ch=1 n=d#6 v=0
250194 On ch=1 n=d#6 v=77
250570 On ch=1 n=d#6 v=0
250946 On ch=1 n=f5 v=27
250950 On ch=1 n=c5 v=41
250956 On ch=1 n=a4 v=30
250966 On ch=1 n=d#6 v=69
251234 On ch=1 n=d#6 v=0
251246 On ch=1 n=f6 v=49
251382 On ch=1 n=f6 v=0
251388 On ch=1 n=d#6 v=72
251480 On ch=1 n=f6 v=62
251482 On ch=1 n=d#6 v=0
251574 On ch=1 n=f6 v=0
251584 On ch=1 n=d#6 v=80
251650 On ch=1 n=f6 v=45
251656 On ch=1 n=d#6 v=0
251746 On ch=1 n=d#6 v=73
251756 On ch=1 n=c5 v=0
251758 On ch=1 n=f6 v=0
251762 On ch=1 n=f5 v=0
251782 On ch=1 n=a4 v=0
251820 On ch=1 n=f6 v=71
251826 On ch=1 n=d#6 v=0
251912 On ch=1 n=d#6 v=81
251926 On ch=1 n=f6 v=0
251978 On ch=1 n=d#6 v=0
251990 On ch=1 n=f6 v=63
252036 On ch=1 n=d#6 v=80
252040 On ch=1 n=f6 v=0
252130 On ch=1 n=d#6 v=0
252134 On ch=1 n=d6 v=77
252206 On ch=1 n=d#6 v=80
252240 On ch=1 n=d6 v=0
252314 On ch=1 n=f6 v=91
252326 Par ch=1 c=64 v=63
252354 On ch=1 n=d#6 v=0
252424 Par ch=1 c=64 v=0
252426 On ch=1 n=f5 v=47
252430 On ch=1 n=c5 v=52
252436 On ch=1 n=a4 v=42
252452 On ch=1 n=g6 v=89
252530 On ch=1 n=f6 v=0
253128 Par ch=1 c=64 v=63
253160 Par ch=1 c=64 v=127
253170 On ch=1 n=f6 v=75
253238 On ch=1 n=g6 v=0
253418 On ch=1 n=c5 v=0
253466 On ch=1 n=a4 v=0
253488 On ch=1 n=d#6 v=88
253496 On ch=1 n=f5 v=0
253558 On ch=1 n=f6 v=0
253692 On ch=1 n=d#6 v=0
253804 On ch=1 n=d#6 v=88
253818 On ch=1 n=a4 v=44
253824 On ch=1 n=d#5 v=61
253826 On ch=1 n=f5 v=43
254072 Par ch=1 c=64 v=63
254122 On ch=1 n=d6 v=73
254132 Par ch=1 c=64 v=0
254180 On ch=1 n=d#6 v=0
254238 Par ch=1 c=64 v=63
254280 Par ch=1 c=64 v=127
254354 On ch=1 n=d6 v=0
254454 On ch=1 n=d6 v=71
254616 Par ch=1 c=64 v=63
254758 Par ch=1 c=64 v=127
254784 On ch=1 n=c#6 v=77
254848 On ch=1 n=d6 v=0
254894 On ch=1 n=d#5 v=0
254902 On ch=1 n=f5 v=0
254912 On ch=1 n=a4 v=0
255092 On ch=1 n=c#6 v=0
255224 On ch=1 n=c#6 v=69
255256 On ch=1 n=a#4 v=34
255258 On ch=1 n=f5 v=21
255264 On ch=1 n=d5 v=46
255474 Par ch=1 c=64 v=63
255564 Par ch=1 c=64 v=0
256118 Par ch=1 c=64 v=63
256142 Par ch=1 c=64 v=127
256746 On ch=1 n=d6 v=42
256830 On ch=1 n=c#6 v=0
257286 On ch=1 n=d6 v=0
257744 On ch=1 n=f6 v=50
257924 On ch=1 n=f5 v=0
257962 On ch=1 n=a#4 v=0
257976 On ch=1 n=d5 v=0
258116 On ch=1 n=e6 v=70
258190 On ch=1 n=f6 v=0
258360 Par ch=1 c=64 v=63
258454 On ch=1 n=g6 v=66
258500 Par ch=1 c=64 v=0
258576 On ch=1 n=e6 v=0
258770 On ch=1 n=f6 v=85
258908 On ch=1 n=g6 v=0
259084 On ch=1 n=e6 v=85
259204 On ch=1 n=f6 v=0
259396 Par ch=1 c=64 v=63
259396 On ch=1 n=d6 v=86
259412 Par ch=1 c=64 v=127
259530 On ch=1 n=e6 v=0
259722 On ch=1 n=d6 v=0
259786 On ch=1 n=d6 v=76
259794 On ch=1 n=a#4 v=57
259800 On ch=1 n=d5 v=50
259816 On ch=1 n=f4 v=47
260072 Par ch=1 c=64 v=63
260120 Par ch=1 c=64 v=0
260418 Par ch=1 c=64 v=63
260442 Par ch=1 c=64 v=127
260960 On ch=1 n=a#4 v=0
260986 On ch=1 n=d5 v=0
261420 On ch=1 n=d6 v=0
261420 On ch=1 n=c6 v=48
261438 On ch=1 n=c5 v=24
261440 On ch=1 n=a4 v=25
261626 Par ch=1 c=64 v=63
261700 Par ch=1 c=64 v=0
261758 Par ch=1 c=64 v=63
261820 Par ch=1 c=64 v=127
261882 On ch=1 n=c6 v=0
262258 On ch=1 n=f6 v=85
262318 On ch=1 n=c5 v=0
262354 On ch=1 n=a4 v=0
262462 On ch=1 n=f4 v=0
262504 Par ch=1 c=64 v=63
262588 Par ch=1 c=64 v=127
262844 On ch=1 n=c6 v=87
262912 On ch=1 n=f6 v=0
263024 On ch=1 n=a6 v=83
263084 On ch=1 n=c6 v=0
263388 Par ch=1 c=64 v=63
263436 Par ch=1 c=64 v=0
263564 On ch=1 n=f6 v=78
263592 On ch=1 n=a6 v=0
263740 On ch=1 n=c6 v=88
263804 On ch=1 n=f6 v=0
264336 On ch=1 n=a5 v=82
264382 On ch=1 n=c6 v=0
264530 On ch=1 n=c6 v=84
264546 On ch=1 n=c5 v=48
264554 On ch=1 n=g4 v=44
264560 On ch=1 n=e4 v=49
264608 On ch=1 n=a5 v=0
265016 Par ch=1 c=64 v=63
265198 Par ch=1 c=64 v=0
265472 Par ch=1 c=64 v=63
265482 Par ch=1 c=64 v=127
265764 On ch=1 n=b5 v=60
265856 On ch=1 n=c6 v=0
266158 On ch=1 n=a#5 v=62
266258 On ch=1 n=b5 v=0
266406 On ch=1 n=c5 v=0
266476 On ch=1 n=g4 v=0
266490 On ch=1 n=a#5 v=0
266522 On ch=1 n=e4 v=0
266866 Par ch=1 c=64 v=63
266898 Par ch=1 c=64 v=0
266956 On ch=1 n=g5 v=74
266964 On ch=1 n=e5 v=71
266976 On ch=1 n=a#3 v=57
266978 On ch=1 n=a#4 v=52
267048 Par ch=1 c=64 v=63
267068 Par ch=1 c=64 v=127
267354 On ch=1 n=a#4 v=0
267420 On ch=1 n=a#3 v=0
267510 On ch=1 n=c5 v=91
267586 On ch=1 n=e5 v=0
267602 On ch=1 n=g5 v=0
267662 On ch=1 n=f5 v=97
267670 On ch=1 n=a4 v=73
267676 On ch=1 n=a5 v=90
267688 On ch=1 n=a3 v=64
267702 On ch=1 n=c5 v=0
267814 Par ch=1 c=64 v=63
267914 Par ch=1 c=64 v=127
268110 On ch=1 n=a4 v=0
268138 On ch=1 n=a3 v=0
268150 On ch=1 n=f5 v=0
268168 On ch=1 n=a5 v=0
268206 On ch=1 n=c5 v=92
268364 On ch=1 n=c5 v=0
268368 On ch=1 n=g4 v=79
268372 On ch=1 n=g3 v=75
268380 On ch=1 n=a#5 v=101
268388 On ch=1 n=g5 v=74
268486 Par ch=1 c=64 v=63
268586 Par ch=1 c=64 v=127
268786 On ch=1 n=g4 v=0
268908 On ch=1 n=a#5 v=0
268922 On ch=1 n=g5 v=0
268940 On ch=1 n=c5 v=101
269070 On ch=1 n=f3 v=85
269148 On ch=1 n=f4 v=76
269162 On ch=1 n=g3 v=0
269200 Par ch=1 c=64 v=63
269228 On ch=1 n=c6 v=96
269230 On ch=1 n=a5 v=78
269232 On ch=1 n=c5 v=0
269258 Par ch=1 c=64 v=0
269330 Par ch=1 c=64 v=63
269360 Par ch=1 c=64 v=127
269504 On ch=1 n=a5 v=0
269578 On ch=1 n=c6 v=0
269634 On ch=1 n=f4 v=0
269690 On ch=1 n=f3 v=0
269692 On ch=1 n=d6 v=75
269884 On ch=1 n=d6 v=0
270058 On ch=1 n=e6 v=70
270134 Par ch=1 c=64 v=63
270152 On ch=1 n=e6 v=0
270198 Par ch=1 c=64 v=0
270414 On ch=1 n=f6 v=80
270556 Par ch=1 c=64 v=63
270572 On ch=1 n=f6 v=0
270578 Par ch=1 c=64 v=127
270916 On ch=1 n=a4 v=34
270918 On ch=1 n=f5 v=68
270936 On ch=1 n=c5 v=61
270938 On ch=1 n=c4 v=33
271092 Par ch=1 c=64 v=63
271160 Par ch=1 c=64 v=0
271648 Par ch=1 c=64 v=63
271658 Par ch=1 c=64 v=127
271974 On ch=1 n=a4 v=0
272628 On ch=1 n=a#4 v=48
273088 On ch=1 n=f5 v=0
273132 On ch=1 n=c5 v=0
273494 On ch=1 n=a5 v=48
273522 On ch=1 n=e5 v=36
273728 Par ch=1 c=64 v=63
273772 Par ch=1 c=64 v=127
273908 On ch=1 n=g5 v=54
273944 On ch=1 n=a5 v=0
273994 On ch=1 n=a#4 v=0
273994 On ch=1 n=c4 v=0
274270 On ch=1 n=e5 v=0
274304 On ch=1 n=f5 v=47
274318 On ch=1 n=g5 v=0
274332 On ch=1 n=a4 v=23
274344 On ch=1 n=f4 v=33
274516 Par ch=1 c=64 v=63
274596 Par ch=1 c=64 v=0
274644 Par ch=1 c=64 v=63
274700 Par ch=1 c=64 v=127
275126 On ch=1 n=a4 v=0
275208 On ch=1 n=f4 v=0
276068 On ch=1 n=f3 v=43
276156 On ch=1 n=f5 v=0
276252 On ch=1 n=f3 v=0
277214 On ch=1 n=a5 v=41
277224 On ch=1 n=c5 v=20
277410 Par ch=1 c=64 v=63
277474 Par ch=1 c=64 v=0
277802 Par ch=1 c=64 v=63
277816 Par ch=1 c=64 v=127
278020 On ch=1 n=a5 v=0
278030 On ch=1 n=c5 v=0
278168 On ch=1 n=a5 v=57
278170 On ch=1 n=c5 v=46
278620 On ch=1 n=c5 v=0
278622 On ch=1 n=a5 v=0
278956 On ch=1 n=a5 v=64
278978 On ch=1 n=c5 v=30
279706 On ch=1 n=c5 v=0
279764 On ch=1 n=a5 v=0
279916 On ch=1 n=f3 v=39
279984 On ch=1 n=a5 v=72
280016 On ch=1 n=c5 v=28
280542 On ch=1 n=f4 v=33
280844 On ch=1 n=f4 v=0
280964 On ch=1 n=f4 v=38
281168 On ch=1 n=f4 v=0
281306 On ch=1 n=f4 v=39
281412 On ch=1 n=c5 v=0
281478 On ch=1 n=f4 v=0
281534 On ch=1 n=a5 v=0
281636 On ch=1 n=f4 v=51
281780 On ch=1 n=f4 v=0
281936 On ch=1 n=f4 v=50
282088 On ch=1 n=f4 v=0
282246 On ch=1 n=f5 v=72
282260 On ch=1 n=f4 v=40
282262 On ch=1 n=a4 v=37
282452 On ch=1 n=f4 v=0
282512 On ch=1 n=a4 v=0
282584 On ch=1 n=f4 v=60
282664 On ch=1 n=f5 v=0
282722 On ch=1 n=f4 v=0
282890 On ch=1 n=f4 v=41
282892 On ch=1 n=a#5 v=80
282902 On ch=1 n=g5 v=50
283046 On ch=1 n=f4 v=0
283182 On ch=1 n=f4 v=54
283344 On ch=1 n=g5 v=0
283348 On ch=1 n=f4 v=0
283498 On ch=1 n=g5 v=91
283506 On ch=1 n=f4 v=57
283528 On ch=1 n=a#5 v=0
283530 On ch=1 n=e5 v=65
283680 On ch=1 n=f4 v=0
283804 On ch=1 n=f4 v=62
283830 On ch=1 n=f3 v=0
283954 On ch=1 n=e5 v=0
284098 On ch=1 n=g5 v=0
284140 On ch=1 n=f4 v=0
284148 On ch=1 n=f3 v=59
284156 On ch=1 n=c6 v=87
284170 On ch=1 n=a5 v=57
284444 Par ch=1 c=64 v=63
284484 Par ch=1 c=64 v=0
284512 On ch=1 n=f4 v=74
284620 Par ch=1 c=64 v=63
284638 Par ch=1 c=64 v=127
284760 On ch=1 n=f4 v=0
284878 On ch=1 n=f4 v=76
285032 On ch=1 n=a5 v=0
285068 On ch=1 n=f4 v=0
285072 On ch=1 n=c6 v=0
285198 On ch=1 n=f4 v=77
285284 On ch=1 n=f3 v=0
285338 On ch=1 n=f4 v=0
285512 On ch=1 n=d3 v=94
285822 Par ch=1 c=64 v=63
285862 On ch=1 n=d4 v=86
285950 Par ch=1 c=64 v=127
286194 On ch=1 n=d4 v=0
286252 On ch=1 n=f6 v=94
286260 On ch=1 n=a5 v=58
286264 On ch=1 n=d4 v=84
286428 On ch=1 n=d4 v=0
286584 On ch=1 n=d4 v=90
286716 On ch=1 n=d4 v=0
286744 On ch=1 n=d3 v=0
286750 On ch=1 n=a5 v=0
286836 On ch=1 n=f6 v=0
286922 On ch=1 n=b2 v=93
286938 On ch=1 n=f6 v=111
286952 On ch=1 n=a5 v=84
287196 Par ch=1 c=64 v=63
287248 Par ch=1 c=64 v=0
287326 On ch=1 n=b3 v=85
287346 Par ch=1 c=64 v=63
287380 Par ch=1 c=64 v=127
287662 On ch=1 n=a5 v=0
287672 On ch=1 n=f6 v=0
287692 On ch=1 n=b3 v=0
287756 On ch=1 n=f6 v=106
287766 On ch=1 n=a5 v=77
287766 On ch=1 n=b3 v=50
287962 On ch=1 n=b3 v=0
288180 On ch=1 n=a5 v=0
288248 On ch=1 n=b3 v=75
288306 On ch=1 n=f6 v=0
288530 On ch=1 n=b2 v=0
288740 On ch=1 n=c3 v=54
288786 On ch=1 n=a5 v=83
288786 On ch=1 n=f5 v=74
288810 On ch=1 n=b3 v=0
289108 Par ch=1 c=64 v=63
289200 Par ch=1 c=64 v=0
289284 On ch=1 n=c4 v=51
289576 Par ch=1 c=64 v=63
289582 Par ch=1 c=64 v=127
289634 On ch=1 n=c4 v=0
289704 On ch=1 n=c4 v=56
289906 On ch=1 n=c4 v=0
290026 On ch=1 n=c4 v=41
290174 On ch=1 n=c4 v=0
290382 On ch=1 n=c4 v=37
290506 On ch=1 n=c3 v=0
290544 On ch=1 n=a5 v=0
290556 On ch=1 n=c4 v=0
290728 On ch=1 n=c4 v=41
290738 On ch=1 n=f5 v=0
290904 On ch=1 n=c4 v=0
291106 On ch=1 n=c4 v=36
291112 On ch=1 n=c6 v=66
291114 On ch=1 n=a5 v=54
291310 On ch=1 n=c4 v=0
291514 On ch=1 n=c4 v=25
291528 On ch=1 n=a5 v=0
291644 On ch=1 n=c6 v=0
291650 On ch=1 n=c4 v=0
291892 On ch=1 n=a#5 v=65
291894 On ch=1 n=c4 v=30
291900 On ch=1 n=g5 v=51
292056 On ch=1 n=c4 v=0
292158 On ch=1 n=g5 v=0
292178 On ch=1 n=a#5 v=0
292382 On ch=1 n=c4 v=28
292516 On ch=1 n=c4 v=0
292878 On ch=1 n=g5 v=50
292890 On ch=1 n=a#4 v=35
292900 On ch=1 n=c4 v=37
292900 On ch=1 n=e5 v=48
293120 On ch=1 n=c4 v=0
293524 On ch=1 n=c4 v=44
293598 On ch=1 n=a#4 v=0
293602 On ch=1 n=e5 v=0
293624 On ch=1 n=g5 v=0
293682 On ch=1 n=c4 v=0
294830 On ch=1 n=f5 v=47
294834 On ch=1 n=a4 v=25
294844 On ch=1 n=f3 v=27
295226 Par ch=1 c=64 v=63
295366 Par ch=1 c=64 v=0
297096 Par ch=1 c=64 v=63
297308 Par ch=1 c=64 v=127
297822 On ch=1 n=f3 v=0
297846 On ch=1 n=a4 v=0
297896 On ch=1 n=f5 v=0
298402 Par ch=1 c=64 v=63
299102 Par ch=1 c=64 v=0
299460 Par ch=1 c=64 v=63
299512 Par ch=1 c=64 v=127
300240 Par ch=1 c=64 v=63
300302 Par ch=1 c=64 v=0
300302 Meta TrkEnd
TrkEnd
MTrk
0 SeqSpec 43 00 01 00
0 Meta TrkName "                                    "
0 TimeSig 3/4 24 8
0 Meta TrkEnd
TrkEnd
MTrk
0 SeqSpec 43 00 01 00
0 Meta TrkName "                                    "
0 TimeSig 3/4 24 8
0 Meta TrkEnd
TrkEnd
MTrk
0 SeqSpec 43 00 01 00
0 Meta TrkName "                                    "
0 TimeSig 3/4 24 8
0 Meta TrkEnd
TrkEnd
MTrk
0 SeqSpec 43 00 01 00
0 Meta TrkName "                                    "
0 TimeSig 3/4 24 8
0 Meta TrkEnd
TrkEnd
MTrk
0 SeqSpec 43 00 01 00
0 Meta TrkName "                                    "
0 TimeSig 3/4 24 8
0 Meta TrkEnd
TrkEnd
MTrk
0 SeqSpec 43 00 01 00
0 Meta TrkName "                                    "
0 TimeSig 3/4 24 8
0 Meta TrkEnd
TrkEnd
MTrk
0 SeqSpec 43 00 01 00
0 Meta TrkName "                                    "
0 TimeSig 3/4 24 8
0 Meta TrkEnd
TrkEnd
MTrk
0 SeqSpec 43 00 01 00
0 Meta TrkName "                                    "
0 TimeSig 3/4 24 8
0 Meta TrkEnd
TrkEnd
MTrk
0 SeqSpec 43 00 01 00
0 Meta TrkName "                                    "
0 TimeSig 3/4 24 8
0 Meta TrkEnd
TrkEnd
MTrk
0 SeqSpec 43 00 01 00
0 Meta TrkName "                                    "
0 TimeSig 3/4 24 8
0 Meta TrkEnd
TrkEnd
MTrk
0 SeqSpec 43 00 01 00
0 Meta TrkName "                                    "
0 TimeSig 3/4 24 8
0 Meta TrkEnd
TrkEnd
MTrk
0 SeqSpec 43 00 01 00
0 Meta TrkName "                                    "
0 TimeSig 3/4 24 8
0 Meta TrkEnd
TrkEnd
MTrk
0 SeqSpec 43 00 01 00
0 Meta TrkName "                                    "
0 TimeSig 3/4 24 8
0 Meta TrkEnd
TrkEnd
MTrk
0 SeqSpec 43 00 01 00
0 Meta TrkName "                                    "
0 TimeSig 3/4 24 8
0 Meta TrkEnd
TrkEnd
MTrk
0 SeqSpec 43 00 01 00
0 Meta TrkName "                                    "
0 TimeSig 3/4 24 8
0 Meta TrkEnd
TrkEnd
MTrk
0 SeqSpec 43 00 01 00
0 Meta TrkName "                                    "
0 TimeSig 3/4 24 8
0 Meta TrkEnd
TrkEnd
