MFile 1 2 480
MTrk
0 Tempo 500000
0 TimeSig 4/4 24 8
0 Meta TrkEnd
TrkEnd
MTrk
0 SeqSpec 43 00 01 00
0 Meta TrkName "<Master Volume>"
0 Meta 0x21 00
0 SysEx f0 41 10 42 12 40 00 7f 00 41 f7
0 SysEx f0 41 10 42 12 40 00 04 64 58 f7
192 Meta Text "<Master Reverve>"
192 SysEx f0 41 10 42 12 40 01 30 03 0c f7
192 SysEx f0 41 10 42 12 40 01 33 3c 50 f7
192 SysEx f0 41 10 42 12 40 01 34 3c 4f f7
576 Par ch=1 c=0 v=0
580 Par ch=1 c=32 v=1
584 PrCh ch=1 p=0
780 Par ch=1 c=7 v=100
972 Par ch=1 c=11 v=127
1164 Par ch=1 c=10 v=64
1356 Par ch=1 c=1 v=0
1356 Meta Text "<part reverve>"
1356 Par ch=1 c=91 v=90
1452 Par ch=1 c=99 v=1
1456 Par ch=1 c=98 v=32
1460 Par ch=1 c=6 v=62
1464 Par ch=1 c=99 v=1
1468 Par ch=1 c=98 v=33
1472 Par ch=1 c=6 v=54
1476 Par ch=1 c=99 v=1
1480 Par ch=1 c=98 v=99
1484 Par ch=1 c=6 v=62
1488 Par ch=1 c=99 v=1
1492 Par ch=1 c=98 v=100
1496 Par ch=1 c=6 v=60
1500 Par ch=1 c=99 v=1
1504 Par ch=1 c=98 v=102
1508 Par ch=1 c=6 v=70
2350 Par ch=1 c=67 v=0
2818 Par ch=1 c=67 v=0
3740 On ch=1 n=b5 v=85
3838 On ch=1 n=a5 v=82
3842 On ch=1 n=b5 v=0
3932 On ch=1 n=g#5 v=92
3944 On ch=1 n=a5 v=0
4030 On ch=1 n=g#5 v=0
4030 On ch=1 n=a5 v=78
4140 On ch=1 n=a5 v=0
4142 On ch=1 n=c6 v=85
4146 On ch=1 n=a4 v=76
4182 On ch=1 n=c6 v=0
4200 On ch=1 n=a4 v=0
4366 On ch=1 n=c5 v=82
4368 On ch=1 n=e5 v=60
4414 On ch=1 n=c5 v=0
4430 On ch=1 n=e5 v=0
4594 On ch=1 n=e5 v=60
4600 On ch=1 n=d6 v=93
4616 On ch=1 n=c5 v=48
4650 On ch=1 n=e5 v=0
4660 On ch=1 n=c5 v=0
4676 On ch=1 n=c6 v=94
4692 On ch=1 n=d6 v=0
4786 On ch=1 n=c6 v=0
4794 On ch=1 n=c5 v=76
4796 On ch=1 n=e5 v=61
4802 On ch=1 n=b5 v=85
4844 On ch=1 n=c5 v=0
4860 On ch=1 n=e5 v=0
4882 On ch=1 n=b5 v=0
4890 On ch=1 n=c6 v=82
4998 On ch=1 n=c6 v=0
5000 On ch=1 n=a4 v=91
5002 On ch=1 n=e6 v=96
5046 On ch=1 n=e6 v=0
5046 On ch=1 n=a4 v=0
5218 On ch=1 n=e5 v=79
5224 On ch=1 n=c5 v=81
5260 On ch=1 n=c5 v=0
5276 On ch=1 n=e5 v=0
5438 On ch=1 n=f6 v=100
5442 On ch=1 n=e5 v=66
5444 On ch=1 n=c5 v=80
5478 On ch=1 n=c5 v=0
5488 On ch=1 n=e5 v=0
5522 On ch=1 n=e6 v=96
5530 On ch=1 n=f6 v=0
5632 On ch=1 n=d#6 v=96
5636 On ch=1 n=e5 v=77
5638 On ch=1 n=e6 v=0
5638 On ch=1 n=c5 v=92
5674 On ch=1 n=c5 v=0
5684 On ch=1 n=e5 v=0
5726 On ch=1 n=d#6 v=0
5730 On ch=1 n=e6 v=78
5834 On ch=1 n=a4 v=108
5842 On ch=1 n=e6 v=0
5848 On ch=1 n=b6 v=84
5904 On ch=1 n=a4 v=0
5946 On ch=1 n=a6 v=80
5952 On ch=1 n=b6 v=0
6054 On ch=1 n=e5 v=73
6058 On ch=1 n=c5 v=82
6062 On ch=1 n=a6 v=0
6076 On ch=1 n=g#6 v=71
6096 On ch=1 n=c5 v=0
6122 On ch=1 n=e5 v=0
6140 On ch=1 n=a6 v=76
6162 On ch=1 n=g#6 v=0
6260 On ch=1 n=a6 v=0
6272 On ch=1 n=a4 v=98
6276 On ch=1 n=b6 v=89
6340 On ch=1 n=a4 v=0
6356 On ch=1 n=a6 v=92
6380 On ch=1 n=b6 v=0
6474 On ch=1 n=a6 v=0
6482 On ch=1 n=e5 v=73
6484 On ch=1 n=c5 v=86
6488 On ch=1 n=g#6 v=74
6520 On ch=1 n=c5 v=0
6530 On ch=1 n=e5 v=0
6572 On ch=1 n=a6 v=89
6596 On ch=1 n=g#6 v=0
6670 On ch=1 n=a6 v=0
6700 On ch=1 n=a4 v=106
6704 On ch=1 n=c7 v=120
6730 Par ch=1 c=64 v=127
6806 On ch=1 n=a4 v=0
6908 On ch=1 n=c7 v=0
6936 On ch=1 n=c5 v=83
6938 On ch=1 n=e5 v=70
6980 On ch=1 n=c5 v=0
6990 On ch=1 n=e5 v=0
7148 Par ch=1 c=64 v=0
7154 On ch=1 n=a6 v=107
7156 On ch=1 n=e5 v=66
7168 On ch=1 n=c5 v=58
7200 On ch=1 n=e5 v=0
7214 On ch=1 n=c5 v=0
7214 On ch=1 n=a6 v=0
7362 On ch=1 n=c7 v=111
7366 On ch=1 n=e5 v=89
7376 On ch=1 n=c5 v=91
7406 On ch=1 n=c5 v=0
7418 On ch=1 n=e5 v=0
7424 On ch=1 n=c7 v=0
7538 Par ch=1 c=64 v=127
7548 On ch=1 n=g6 v=109
7554 On ch=1 n=e4 v=111
7568 On ch=1 n=a6 v=103
7580 On ch=1 n=b6 v=107
7608 On ch=1 n=g6 v=0
7634 On ch=1 n=a6 v=0
7640 On ch=1 n=e4 v=0
7654 On ch=1 n=b6 v=0
7774 On ch=1 n=a6 v=96
7776 On ch=1 n=b4 v=96
7780 On ch=1 n=e5 v=79
7786 On ch=1 n=f#6 v=86
7794 Par ch=1 c=64 v=63
7796 Par ch=1 c=64 v=0
7818 On ch=1 n=f#6 v=0
7822 On ch=1 n=e5 v=0
7822 On ch=1 n=b4 v=0
7838 On ch=1 n=a6 v=0
7994 On ch=1 n=g6 v=101
8004 On ch=1 n=e6 v=80
8008 On ch=1 n=e5 v=82
8014 On ch=1 n=b4 v=80
8040 On ch=1 n=e6 v=0
8048 On ch=1 n=e5 v=0
8050 On ch=1 n=b4 v=0
8054 On ch=1 n=g6 v=0
8212 On ch=1 n=e5 v=86
8212 On ch=1 n=f#6 v=108
8212 On ch=1 n=b4 v=92
8216 On ch=1 n=a6 v=93
8250 On ch=1 n=b4 v=0
8254 On ch=1 n=e5 v=0
8260 On ch=1 n=f#6 v=0
8262 On ch=1 n=a6 v=0
8390 On ch=1 n=g6 v=101
8404 Par ch=1 c=64 v=127
8408 On ch=1 n=e4 v=111
8410 On ch=1 n=a6 v=101
8446 On ch=1 n=b6 v=97
8458 On ch=1 n=g6 v=0
8490 On ch=1 n=a6 v=0
8492 On ch=1 n=e4 v=0
8538 On ch=1 n=b6 v=0
8630 On ch=1 n=a6 v=94
8634 On ch=1 n=b4 v=94
8634 On ch=1 n=e5 v=82
8638 On ch=1 n=f#6 v=90
8658 Par ch=1 c=64 v=63
8664 Par ch=1 c=64 v=0
8670 On ch=1 n=b4 v=0
8676 On ch=1 n=f#6 v=0
8676 On ch=1 n=e5 v=0
8696 On ch=1 n=a6 v=0
8850 On ch=1 n=e5 v=90
8852 On ch=1 n=g6 v=83
8856 On ch=1 n=b4 v=89
8870 On ch=1 n=e6 v=46
8892 On ch=1 n=b4 v=0
8894 On ch=1 n=g6 v=0
8898 On ch=1 n=e5 v=0
8920 On ch=1 n=e6 v=0
9056 On ch=1 n=f#6 v=106
9064 On ch=1 n=b4 v=97
9068 On ch=1 n=a6 v=87
9068 On ch=1 n=e5 v=83
9102 On ch=1 n=f#6 v=0
9108 On ch=1 n=e5 v=0
9114 On ch=1 n=a6 v=0
9116 On ch=1 n=b4 v=0
9248 On ch=1 n=g6 v=99
9250 On ch=1 n=e4 v=111
9258 On ch=1 n=a6 v=99
9280 On ch=1 n=b6 v=99
9318 On ch=1 n=g6 v=0
9340 On ch=1 n=a6 v=0
9344 On ch=1 n=e4 v=0
9388 On ch=1 n=b6 v=0
9474 On ch=1 n=a6 v=92
9480 On ch=1 n=e5 v=93
9482 On ch=1 n=b4 v=92
9486 On ch=1 n=f#6 v=91
9522 On ch=1 n=b4 v=0
9526 On ch=1 n=f#6 v=0
9530 On ch=1 n=e5 v=0
9544 On ch=1 n=a6 v=0
9684 On ch=1 n=g6 v=100
9684 On ch=1 n=b3 v=91
9696 On ch=1 n=e6 v=80
9730 On ch=1 n=b3 v=0
9732 On ch=1 n=e6 v=0
9738 On ch=1 n=g6 v=0
9884 On ch=1 n=b4 v=88
9890 On ch=1 n=f#6 v=110
9910 On ch=1 n=d#6 v=95
9936 On ch=1 n=d#6 v=0
9960 On ch=1 n=b4 v=0
9964 On ch=1 n=f#6 v=0
10134 On ch=1 n=e6 v=107
10142 On ch=1 n=e4 v=102
10156 Par ch=1 c=64 v=127
10182 On ch=1 n=e6 v=0
10206 On ch=1 n=e4 v=0
10576 Par ch=1 c=64 v=63
10578 Par ch=1 c=64 v=0
10604 On ch=1 n=b5 v=100
10694 On ch=1 n=a5 v=76
10700 On ch=1 n=b5 v=0
10792 On ch=1 n=g#5 v=92
10808 On ch=1 n=a5 v=0
10890 On ch=1 n=a5 v=72
10892 On ch=1 n=g#5 v=0
11012 On ch=1 n=a5 v=0
11012 On ch=1 n=a4 v=102
11014 On ch=1 n=c6 v=96
11064 On ch=1 n=c6 v=0
11084 On ch=1 n=a4 v=0
11228 On ch=1 n=e5 v=68
11230 On ch=1 n=c5 v=75
11270 On ch=1 n=c5 v=0
11284 On ch=1 n=e5 v=0
11466 On ch=1 n=d6 v=93
11472 On ch=1 n=c5 v=63
11474 On ch=1 n=e5 v=45
11512 On ch=1 n=c5 v=0
11526 On ch=1 n=e5 v=0
11544 On ch=1 n=c6 v=84
11562 On ch=1 n=d6 v=0
11652 On ch=1 n=b5 v=83
11660 On ch=1 n=c6 v=0
11664 On ch=1 n=c5 v=78
11666 On ch=1 n=e5 v=59
11708 On ch=1 n=c5 v=0
11720 On ch=1 n=e5 v=0
11740 On ch=1 n=b5 v=0
11750 On ch=1 n=c6 v=81
11856 On ch=1 n=c6 v=0
11870 On ch=1 n=e6 v=93
11886 On ch=1 n=a4 v=92
11916 On ch=1 n=e6 v=0
11942 On ch=1 n=a4 v=0
12088 On ch=1 n=e5 v=72
12100 On ch=1 n=c5 v=65
12138 On ch=1 n=c5 v=0
12144 On ch=1 n=e5 v=0
12310 On ch=1 n=f6 v=102
12328 On ch=1 n=c5 v=57
12330 On ch=1 n=e5 v=45
12370 On ch=1 n=c5 v=0
12378 On ch=1 n=e5 v=0
12390 On ch=1 n=e6 v=90
12404 On ch=1 n=f6 v=0
12496 On ch=1 n=d#6 v=92
12504 On ch=1 n=c5 v=64
12506 On ch=1 n=e6 v=0
12520 On ch=1 n=e5 v=31
12546 On ch=1 n=c5 v=0
12570 On ch=1 n=e5 v=0
12584 On ch=1 n=e6 v=78
12592 On ch=1 n=d#6 v=0
12696 On ch=1 n=a4 v=106
12704 On ch=1 n=e6 v=0
12714 On ch=1 n=b6 v=67
12772 On ch=1 n=a4 v=0
12794 On ch=1 n=a6 v=82
12804 On ch=1 n=b6 v=0
12896 On ch=1 n=a6 v=0
12924 On ch=1 n=c5 v=74
12924 On ch=1 n=e5 v=59
12928 On ch=1 n=g#6 v=72
12964 On ch=1 n=c5 v=0
12982 On ch=1 n=e5 v=0
12994 On ch=1 n=a6 v=87
13018 On ch=1 n=g#6 v=0
13104 On ch=1 n=a6 v=0
13118 On ch=1 n=a4 v=106
13132 On ch=1 n=b6 v=92
13192 On ch=1 n=a4 v=0
13224 On ch=1 n=a6 v=90
13246 On ch=1 n=b6 v=0
13328 On ch=1 n=g#6 v=95
13330 On ch=1 n=a6 v=0
13332 On ch=1 n=e5 v=72
13340 On ch=1 n=c5 v=75
13374 On ch=1 n=c5 v=0
13396 On ch=1 n=e5 v=0
13400 On ch=1 n=a6 v=90
13432 On ch=1 n=g#6 v=0
13498 On ch=1 n=a6 v=0
13542 On ch=1 n=c7 v=120
13554 On ch=1 n=a4 v=99
13572 Par ch=1 c=64 v=127
13654 On ch=1 n=a4 v=0
13672 On ch=1 n=c7 v=0
13782 On ch=1 n=e5 v=68
13800 On ch=1 n=c5 v=59
13840 On ch=1 n=c5 v=0
13848 On ch=1 n=e5 v=0
13994 On ch=1 n=a6 v=106
14010 Par ch=1 c=64 v=63
14012 On ch=1 n=e5 v=59
14014 On ch=1 n=c5 v=75
14014 Par ch=1 c=64 v=0
14048 On ch=1 n=c5 v=0
14056 On ch=1 n=a6 v=0
14058 On ch=1 n=e5 v=0
14208 On ch=1 n=c7 v=108
14224 On ch=1 n=e5 v=67
14236 On ch=1 n=c5 v=59
14268 On ch=1 n=e5 v=0
14276 On ch=1 n=c7 v=0
14282 On ch=1 n=c5 v=0
14404 On ch=1 n=g6 v=112
14414 On ch=1 n=e4 v=118
14420 On ch=1 n=a6 v=106
14422 Par ch=1 c=64 v=127
14436 On ch=1 n=b6 v=106
14466 On ch=1 n=g6 v=0
14480 On ch=1 n=a6 v=0
14512 On ch=1 n=e4 v=0
14516 On ch=1 n=b6 v=0
14632 On ch=1 n=e5 v=86
14634 On ch=1 n=b4 v=91
14636 On ch=1 n=f#6 v=103
14642 On ch=1 n=a6 v=88
14674 On ch=1 n=b4 v=0
14680 On ch=1 n=e5 v=0
14692 On ch=1 n=a6 v=0
14704 On ch=1 n=f#6 v=0
14732 Par ch=1 c=64 v=63
14734 Par ch=1 c=64 v=0
14852 On ch=1 n=e5 v=86
14852 On ch=1 n=g6 v=97
14854 On ch=1 n=b4 v=90
14862 On ch=1 n=e6 v=79
14888 On ch=1 n=b4 v=0
14898 On ch=1 n=e6 v=0
14898 On ch=1 n=e5 v=0
14912 On ch=1 n=g6 v=0
15062 On ch=1 n=e5 v=89
15062 On ch=1 n=a6 v=107
15066 On ch=1 n=b4 v=91
15070 On ch=1 n=f#6 v=100
15106 On ch=1 n=b4 v=0
15108 On ch=1 n=e5 v=0
15110 On ch=1 n=f#6 v=0
15130 On ch=1 n=a6 v=0
15232 On ch=1 n=g6 v=92
15246 On ch=1 n=a6 v=104
15248 On ch=1 n=e4 v=112
15254 Par ch=1 c=64 v=127
15278 On ch=1 n=b6 v=112
15298 On ch=1 n=g6 v=0
15318 On ch=1 n=a6 v=0
15340 On ch=1 n=e4 v=0
15366 On ch=1 n=b6 v=0
15478 On ch=1 n=b4 v=92
15480 On ch=1 n=e5 v=79
15482 On ch=1 n=a6 v=100
15494 On ch=1 n=f#6 v=87
15520 On ch=1 n=b4 v=0
15526 On ch=1 n=e5 v=0
15528 On ch=1 n=f#6 v=0
15536 Par ch=1 c=64 v=63
15546 Par ch=1 c=64 v=0
15554 On ch=1 n=a6 v=0
15690 On ch=1 n=g6 v=99
15696 On ch=1 n=e5 v=79
15704 On ch=1 n=b4 v=73
15706 On ch=1 n=e6 v=67
15740 On ch=1 n=e5 v=0
15742 On ch=1 n=b4 v=0
15744 On ch=1 n=g6 v=0
15748 On ch=1 n=e6 v=0
15912 On ch=1 n=a6 v=100
15916 On ch=1 n=e5 v=94
15918 On ch=1 n=f#6 v=97
15922 On ch=1 n=b4 v=87
15956 On ch=1 n=b4 v=0
15956 On ch=1 n=f#6 v=0
15966 On ch=1 n=e5 v=0
15986 On ch=1 n=a6 v=0
16096 On ch=1 n=a6 v=101
16100 On ch=1 n=e4 v=117
16102 On ch=1 n=g6 v=79
16108 Par ch=1 c=64 v=127
16122 On ch=1 n=b6 v=106
16154 On ch=1 n=g6 v=0
16178 On ch=1 n=a6 v=0
16206 On ch=1 n=e4 v=0
16234 On ch=1 n=b6 v=0
16332 On ch=1 n=e5 v=91
16336 On ch=1 n=a6 v=96
16340 On ch=1 n=b4 v=88
16344 On ch=1 n=f#6 v=96
16370 On ch=1 n=e5 v=0
16376 On ch=1 n=b4 v=0
16390 Par ch=1 c=64 v=63
16398 Par ch=1 c=64 v=0
16400 On ch=1 n=f#6 v=0
16410 On ch=1 n=a6 v=0
16550 On ch=1 n=g6 v=100
16554 On ch=1 n=b3 v=87
16568 On ch=1 n=e6 v=72
16604 On ch=1 n=g6 v=0
16606 On ch=1 n=e6 v=0
16606 On ch=1 n=b3 v=0
16758 On ch=1 n=b4 v=86
16764 On ch=1 n=f#6 v=110
16778 On ch=1 n=d#6 v=100
16804 On ch=1 n=d#6 v=0
16820 On ch=1 n=b4 v=0
16832 On ch=1 n=f#6 v=0
17000 On ch=1 n=e6 v=103
17006 Par ch=1 c=64 v=127
17006 On ch=1 n=e4 v=108
17030 On ch=1 n=e6 v=0
17064 On ch=1 n=e4 v=0
17442 Par ch=1 c=64 v=63
17446 Par ch=1 c=64 v=0
17462 On ch=1 n=e6 v=112
17466 On ch=1 n=c6 v=99
17506 On ch=1 n=c6 v=0
17522 On ch=1 n=e6 v=0
17686 On ch=1 n=f6 v=108
17694 On ch=1 n=d6 v=93
17728 On ch=1 n=d6 v=0
17758 On ch=1 n=f6 v=0
17884 On ch=1 n=c4 v=107
17906 On ch=1 n=g6 v=99
17908 On ch=1 n=e6 v=106
17946 On ch=1 n=e6 v=0
17958 On ch=1 n=c4 v=0
17978 On ch=1 n=g6 v=0
18102 On ch=1 n=c5 v=98
18114 On ch=1 n=g6 v=96
18122 On ch=1 n=e6 v=87
18156 On ch=1 n=e6 v=0
18166 On ch=1 n=c5 v=0
18182 On ch=1 n=g6 v=0
18308 On ch=1 n=e4 v=113
18322 On ch=1 n=a6 v=113
18390 On ch=1 n=e4 v=0
18426 On ch=1 n=g6 v=86
18472 On ch=1 n=a6 v=0
18502 On ch=1 n=f6 v=81
18524 On ch=1 n=e5 v=85
18562 On ch=1 n=g6 v=0
18592 On ch=1 n=e6 v=84
18604 On ch=1 n=e5 v=0
18612 On ch=1 n=f6 v=0
18640 On ch=1 n=e6 v=0
18746 On ch=1 n=g4 v=109
18750 On ch=1 n=d6 v=100
18754 Par ch=1 c=64 v=127
18762 On ch=1 n=b5 v=89
18798 On ch=1 n=g4 v=0
18802 On ch=1 n=b5 v=0
18818 On ch=1 n=d6 v=0
18982 On ch=1 n=g5 v=83
19030 On ch=1 n=g5 v=0
19148 Par ch=1 c=64 v=63
19154 Par ch=1 c=64 v=0
19190 On ch=1 n=e6 v=98
19194 On ch=1 n=c6 v=85
19234 On ch=1 n=c6 v=0
19254 On ch=1 n=e6 v=0
19400 On ch=1 n=f6 v=100
19406 On ch=1 n=d6 v=88
19444 On ch=1 n=d6 v=0
19468 On ch=1 n=f6 v=0
19598 On ch=1 n=c4 v=104
19620 On ch=1 n=g6 v=96
19624 On ch=1 n=e6 v=101
19658 On ch=1 n=e6 v=0
19668 On ch=1 n=c4 v=0
19690 On ch=1 n=g6 v=0
19820 On ch=1 n=c5 v=87
19828 On ch=1 n=g6 v=94
19838 On ch=1 n=e6 v=84
19872 On ch=1 n=e6 v=0
19878 On ch=1 n=c5 v=0
19888 On ch=1 n=g6 v=0
20036 On ch=1 n=e4 v=103
20048 On ch=1 n=a6 v=114
20104 On ch=1 n=e4 v=0
20156 On ch=1 n=g6 v=84
20194 On ch=1 n=a6 v=0
20218 On ch=1 n=f6 v=86
20222 On ch=1 n=e5 v=77
20288 On ch=1 n=g6 v=0
20308 On ch=1 n=e5 v=0
20324 On ch=1 n=e6 v=82
20336 On ch=1 n=f6 v=0
20374 On ch=1 n=e6 v=0
20458 Par ch=1 c=64 v=127
20466 On ch=1 n=g4 v=99
20466 On ch=1 n=d6 v=107
20476 On ch=1 n=b5 v=102
20508 On ch=1 n=b5 v=0
20524 On ch=1 n=d6 v=0
20532 On ch=1 n=g4 v=0
20916 Par ch=1 c=64 v=63
20920 Par ch=1 c=64 v=0
20928 On ch=1 n=c6 v=100
20934 On ch=1 n=a5 v=76
20974 On ch=1 n=a5 v=0
21000 On ch=1 n=c6 v=0
21134 On ch=1 n=d6 v=91
21136 On ch=1 n=b5 v=80
21176 On ch=1 n=b5 v=0
21180 On ch=1 n=d6 v=0
21344 On ch=1 n=a3 v=89
21354 On ch=1 n=e6 v=93
21360 On ch=1 n=c6 v=89
21396 On ch=1 n=c6 v=0
21406 On ch=1 n=a3 v=0
21430 On ch=1 n=e6 v=0
21560 On ch=1 n=e6 v=93
21562 On ch=1 n=a4 v=75
21572 On ch=1 n=c6 v=71
21616 On ch=1 n=c6 v=0
21622 On ch=1 n=e6 v=0
21628 On ch=1 n=a4 v=0
21776 On ch=1 n=c4 v=90
21780 On ch=1 n=f6 v=104
21848 On ch=1 n=c4 v=0
21880 On ch=1 n=e6 v=85
21920 On ch=1 n=f6 v=0
21960 On ch=1 n=d6 v=83
21982 On ch=1 n=c5 v=60
22004 On ch=1 n=e6 v=0
22044 On ch=1 n=c5 v=0
22048 On ch=1 n=c6 v=93
22058 On ch=1 n=d6 v=0
22094 On ch=1 n=c6 v=0
22186 On ch=1 n=b5 v=99
22186 On ch=1 n=e4 v=90
22188 Par ch=1 c=64 v=63
22190 Par ch=1 c=64 v=127
22196 On ch=1 n=g#5 v=103
22242 On ch=1 n=b5 v=0
22248 On ch=1 n=g#5 v=0
22250 On ch=1 n=e4 v=0
22406 On ch=1 n=e5 v=86
22464 On ch=1 n=e5 v=0
22622 Par ch=1 c=64 v=63
22626 Par ch=1 c=64 v=0
22630 On ch=1 n=c6 v=98
22638 On ch=1 n=a5 v=67
22682 On ch=1 n=a5 v=0
22684 On ch=1 n=c6 v=0
22836 On ch=1 n=d6 v=97
22840 On ch=1 n=b5 v=83
22878 On ch=1 n=b5 v=0
22900 On ch=1 n=d6 v=0
23044 On ch=1 n=a3 v=77
23056 On ch=1 n=e6 v=87
23058 On ch=1 n=c6 v=90
23092 On ch=1 n=a3 v=0
23094 On ch=1 n=c6 v=0
23110 On ch=1 n=e6 v=0
23268 On ch=1 n=a4 v=72
23270 On ch=1 n=e6 v=86
23282 On ch=1 n=c6 v=67
23326 On ch=1 n=e6 v=0
23328 On ch=1 n=c6 v=0
23330 On ch=1 n=a4 v=0
23480 On ch=1 n=f6 v=102
23486 On ch=1 n=c4 v=85
23548 On ch=1 n=c4 v=0
23584 On ch=1 n=e6 v=85
23628 On ch=1 n=f6 v=0
23662 On ch=1 n=d6 v=77
23686 On ch=1 n=c5 v=59
23714 On ch=1 n=e6 v=0
23750 On ch=1 n=c5 v=0
23756 On ch=1 n=c6 v=84
23766 On ch=1 n=d6 v=0
23798 On ch=1 n=c6 v=0
23892 On ch=1 n=b5 v=101
23898 Par ch=1 c=64 v=127
23900 On ch=1 n=e4 v=80
23906 On ch=1 n=g#5 v=92
23936 On ch=1 n=g#5 v=0
23954 On ch=1 n=b5 v=0
23970 On ch=1 n=e4 v=0
24384 Par ch=1 c=64 v=63
24388 On ch=1 n=b5 v=94
24388 Par ch=1 c=64 v=0
24490 On ch=1 n=a5 v=60
24492 On ch=1 n=b5 v=0
24584 On ch=1 n=g#5 v=87
24592 On ch=1 n=a5 v=0
24678 On ch=1 n=g#5 v=0
24692 On ch=1 n=a5 v=66
24778 On ch=1 n=a5 v=0
24798 On ch=1 n=c6 v=97
24804 On ch=1 n=a4 v=69
24858 On ch=1 n=a4 v=0
24866 On ch=1 n=c6 v=0
25022 On ch=1 n=e5 v=64
25026 On ch=1 n=c5 v=70
25066 On ch=1 n=c5 v=0
25082 On ch=1 n=e5 v=0
25260 On ch=1 n=c5 v=62
25260 On ch=1 n=d6 v=97
25262 On ch=1 n=e5 v=38
25300 On ch=1 n=c5 v=0
25312 On ch=1 n=e5 v=0
25352 On ch=1 n=c6 v=84
25366 On ch=1 n=d6 v=0
25452 On ch=1 n=e5 v=57
25458 On ch=1 n=b5 v=88
25460 On ch=1 n=c5 v=62
25478 On ch=1 n=c6 v=0
25502 On ch=1 n=c5 v=0
25512 On ch=1 n=e5 v=0
25546 On ch=1 n=b5 v=0
25558 On ch=1 n=c6 v=76
25668 On ch=1 n=a4 v=89
25670 On ch=1 n=c6 v=0
25688 On ch=1 n=e6 v=85
25734 On ch=1 n=e6 v=0
25734 On ch=1 n=a4 v=0
25896 On ch=1 n=e5 v=58
25902 On ch=1 n=c5 v=60
25944 On ch=1 n=c5 v=0
25950 On ch=1 n=e5 v=0
26112 On ch=1 n=f6 v=112
26116 On ch=1 n=e5 v=52
26122 On ch=1 n=c5 v=64
26160 On ch=1 n=c5 v=0
26168 On ch=1 n=e5 v=0
26204 On ch=1 n=e6 v=98
26222 On ch=1 n=f6 v=0
26298 On ch=1 n=d#6 v=105
26302 On ch=1 n=c5 v=68
26312 On ch=1 n=e5 v=40
26326 On ch=1 n=e6 v=0
26348 On ch=1 n=c5 v=0
26366 On ch=1 n=e5 v=0
26388 On ch=1 n=e6 v=73
26394 On ch=1 n=d#6 v=0
26510 On ch=1 n=b6 v=92
26514 On ch=1 n=a4 v=102
26532 On ch=1 n=e6 v=0
26598 On ch=1 n=a4 v=0
26600 On ch=1 n=a6 v=94
26628 On ch=1 n=b6 v=0
26714 On ch=1 n=a6 v=0
26718 On ch=1 n=g#6 v=91
26742 On ch=1 n=e5 v=57
26742 On ch=1 n=c5 v=71
26784 On ch=1 n=c5 v=0
26800 On ch=1 n=e5 v=0
26812 On ch=1 n=a6 v=94
26834 On ch=1 n=g#6 v=0
26934 On ch=1 n=a6 v=0
26938 On ch=1 n=a4 v=106
26940 On ch=1 n=b6 v=98
27018 On ch=1 n=a4 v=0
27044 On ch=1 n=a6 v=101
27080 On ch=1 n=b6 v=0
27158 On ch=1 n=g#6 v=100
27166 On ch=1 n=e5 v=85
27170 On ch=1 n=a6 v=0
27174 On ch=1 n=c5 v=92
27224 On ch=1 n=c5 v=0
27228 On ch=1 n=e5 v=0
27234 On ch=1 n=a6 v=96
27280 On ch=1 n=g#6 v=0
27332 On ch=1 n=a6 v=0
27362 On ch=1 n=c7 v=124
27364 On ch=1 n=f4 v=104
27382 Par ch=1 c=64 v=127
27490 On ch=1 n=f4 v=0
27584 On ch=1 n=c7 v=0
27594 On ch=1 n=a4 v=75
27602 On ch=1 n=d#5 v=78
27644 On ch=1 n=d#5 v=0
27666 On ch=1 n=a4 v=0
27814 On ch=1 n=d#5 v=73
27822 Par ch=1 c=64 v=63
27824 On ch=1 n=a4 v=52
27824 Par ch=1 c=64 v=0
27826 On ch=1 n=a6 v=114
27850 On ch=1 n=d#5 v=0
27880 On ch=1 n=a4 v=0
27884 On ch=1 n=a6 v=0
28024 On ch=1 n=d#5 v=93
28030 On ch=1 n=b6 v=113
28032 On ch=1 n=a4 v=63
28080 On ch=1 n=d#5 v=0
28084 On ch=1 n=a4 v=0
28096 On ch=1 n=b6 v=0
28234 On ch=1 n=c7 v=114
28242 On ch=1 n=e4 v=104
28310 On ch=1 n=e4 v=0
28314 On ch=1 n=c7 v=0
28450 On ch=1 n=a4 v=93
28454 On ch=1 n=e5 v=84
28458 On ch=1 n=b6 v=103
28494 On ch=1 n=e5 v=0
28500 On ch=1 n=a4 v=0
28522 On ch=1 n=b6 v=0
28662 On ch=1 n=d4 v=96
28670 On ch=1 n=a6 v=106
28728 On ch=1 n=d4 v=0
28736 On ch=1 n=a6 v=0
28870 On ch=1 n=g#6 v=108
28872 On ch=1 n=b4 v=85
28872 On ch=1 n=f4 v=94
28912 On ch=1 n=b4 v=0
28922 On ch=1 n=f4 v=0
28936 On ch=1 n=g#6 v=0
29072 On ch=1 n=a6 v=103
29076 On ch=1 n=c4 v=94
29144 On ch=1 n=a6 v=0
29152 On ch=1 n=c4 v=0
29282 On ch=1 n=e6 v=106
29290 On ch=1 n=a4 v=71
29298 On ch=1 n=e4 v=79
29336 On ch=1 n=e4 v=0
29348 On ch=1 n=e6 v=0
29352 On ch=1 n=a4 v=0
29496 On ch=1 n=f6 v=102
29498 On ch=1 n=d4 v=80
29556 On ch=1 n=d4 v=0
29562 On ch=1 n=f6 v=0
29702 On ch=1 n=b4 v=76
29702 On ch=1 n=d6 v=104
29710 On ch=1 n=f4 v=71
29754 On ch=1 n=f4 v=0
29766 On ch=1 n=d6 v=0
29770 On ch=1 n=b4 v=0
29922 On ch=1 n=c6 v=109
29938 On ch=1 n=e4 v=84
29942 On ch=1 n=a4 v=65
29962 Par ch=1 c=64 v=127
29988 On ch=1 n=e4 v=0
29990 On ch=1 n=c6 v=0
29994 On ch=1 n=a4 v=0
30168 On ch=1 n=a4 v=51
30180 On ch=1 n=e4 v=51
30228 On ch=1 n=a4 v=0
30236 On ch=1 n=e4 v=0
30362 On ch=1 n=b5 v=111
30378 On ch=1 n=e4 v=79
30378 On ch=1 n=g#4 v=94
30412 On ch=1 n=c6 v=66
30420 On ch=1 n=g#4 v=0
30426 On ch=1 n=b5 v=0
30436 On ch=1 n=e4 v=0
30456 On ch=1 n=c6 v=0
30476 On ch=1 n=b5 v=94
30532 On ch=1 n=g#4 v=75
30538 On ch=1 n=c6 v=86
30544 On ch=1 n=e4 v=43
30550 On ch=1 n=b5 v=0
30568 On ch=1 n=g#4 v=0
30592 On ch=1 n=c6 v=0
30594 On ch=1 n=e4 v=0
30620 On ch=1 n=b5 v=84
30632 Par ch=1 c=64 v=63
30638 Par ch=1 c=64 v=0
30668 On ch=1 n=a5 v=66
30692 On ch=1 n=b5 v=0
30742 On ch=1 n=b5 v=72
30758 On ch=1 n=a5 v=0
30818 On ch=1 n=a5 v=100
30822 Par ch=1 c=64 v=127
30840 On ch=1 n=a4 v=109
30846 On ch=1 n=a3 v=103
30852 On ch=1 n=b5 v=0
30884 On ch=1 n=a5 v=0
30898 On ch=1 n=a4 v=0
30900 On ch=1 n=a3 v=0
31282 Par ch=1 c=64 v=63
31284 Par ch=1 c=64 v=0
31322 On ch=1 n=e6 v=113
31324 On ch=1 n=c6 v=103
31360 On ch=1 n=c6 v=0
31382 On ch=1 n=e6 v=0
31534 On ch=1 n=f6 v=108
31536 On ch=1 n=d6 v=106
31578 On ch=1 n=d6 v=0
31596 On ch=1 n=f6 v=0
31734 On ch=1 n=c4 v=114
31756 On ch=1 n=g6 v=116
31764 On ch=1 n=e6 v=111
31802 On ch=1 n=e6 v=0
31808 On ch=1 n=c4 v=0
31830 On ch=1 n=g6 v=0
31962 On ch=1 n=g6 v=106
31964 On ch=1 n=c5 v=91
31976 On ch=1 n=e6 v=90
32010 On ch=1 n=e6 v=0
32016 On ch=1 n=c5 v=0
32030 On ch=1 n=g6 v=0
32178 On ch=1 n=a6 v=116
32180 On ch=1 n=e4 v=106
32244 On ch=1 n=e4 v=0
32288 On ch=1 n=g6 v=91
32344 On ch=1 n=a6 v=0
32364 On ch=1 n=f6 v=91
32382 On ch=1 n=e5 v=74
32436 On ch=1 n=g6 v=0
32454 On ch=1 n=e6 v=101
32472 On ch=1 n=e5 v=0
32486 On ch=1 n=f6 v=0
32518 On ch=1 n=e6 v=0
32592 On ch=1 n=g4 v=112
32594 Par ch=1 c=64 v=63
32596 Par ch=1 c=64 v=127
32600 On ch=1 n=d6 v=107
32614 On ch=1 n=b5 v=102
32656 On ch=1 n=g4 v=0
32666 On ch=1 n=d6 v=0
32672 On ch=1 n=b5 v=0
32812 On ch=1 n=g5 v=83
32856 On ch=1 n=g5 v=0
33026 On ch=1 n=e6 v=91
33028 On ch=1 n=c6 v=92
33028 Par ch=1 c=64 v=63
33036 Par ch=1 c=64 v=0
33068 On ch=1 n=c6 v=0
33092 On ch=1 n=e6 v=0
33236 On ch=1 n=f6 v=101
33246 On ch=1 n=d6 v=79
33282 On ch=1 n=d6 v=0
33304 On ch=1 n=f6 v=0
33436 On ch=1 n=c4 v=108
33454 On ch=1 n=g6 v=99
33458 On ch=1 n=e6 v=101
33500 On ch=1 n=e6 v=0
33502 On ch=1 n=c4 v=0
33524 On ch=1 n=g6 v=0
33664 On ch=1 n=g6 v=94
33670 On ch=1 n=c5 v=77
33680 On ch=1 n=e6 v=75
33720 On ch=1 n=e6 v=0
33724 On ch=1 n=c5 v=0
33736 On ch=1 n=g6 v=0
33876 On ch=1 n=e4 v=100
33884 On ch=1 n=a6 v=112
33940 On ch=1 n=e4 v=0
33984 On ch=1 n=g6 v=85
34028 On ch=1 n=a6 v=0
34068 On ch=1 n=f6 v=85
34076 On ch=1 n=e5 v=78
34130 On ch=1 n=g6 v=0
34160 On ch=1 n=e6 v=93
34170 On ch=1 n=e5 v=0
34182 On ch=1 n=f6 v=0
34224 On ch=1 n=e6 v=0
34306 Par ch=1 c=64 v=127
34314 On ch=1 n=d6 v=103
34314 On ch=1 n=g4 v=107
34322 On ch=1 n=b5 v=93
34356 On ch=1 n=b5 v=0
34368 On ch=1 n=g4 v=0
34372 On ch=1 n=d6 v=0
34770 Par ch=1 c=64 v=63
34776 Par ch=1 c=64 v=0
34784 On ch=1 n=c6 v=97
34798 On ch=1 n=a5 v=71
34836 On ch=1 n=a5 v=0
34842 On ch=1 n=c6 v=0
34996 On ch=1 n=b5 v=89
34996 On ch=1 n=d6 v=93
35040 On ch=1 n=b5 v=0
35052 On ch=1 n=d6 v=0
35208 On ch=1 n=a3 v=99
35216 On ch=1 n=e6 v=99
35222 On ch=1 n=c6 v=96
35258 On ch=1 n=c6 v=0
35274 On ch=1 n=a3 v=0
35286 On ch=1 n=e6 v=0
35432 On ch=1 n=e6 v=97
35436 On ch=1 n=a4 v=79
35444 On ch=1 n=c6 v=84
35478 On ch=1 n=c6 v=0
35506 On ch=1 n=a4 v=0
35508 On ch=1 n=e6 v=0
35648 On ch=1 n=c4 v=103
35658 On ch=1 n=f6 v=107
35716 On ch=1 n=c4 v=0
35766 On ch=1 n=e6 v=81
35808 On ch=1 n=f6 v=0
35836 On ch=1 n=d6 v=86
35856 On ch=1 n=c5 v=84
35900 On ch=1 n=e6 v=0
35926 On ch=1 n=c5 v=0
35942 On ch=1 n=c6 v=73
35948 On ch=1 n=d6 v=0
35982 On ch=1 n=c6 v=0
36070 Par ch=1 c=64 v=127
36074 On ch=1 n=e4 v=111
36078 On ch=1 n=b5 v=88
36092 On ch=1 n=g#5 v=100
36130 On ch=1 n=e4 v=0
36132 On ch=1 n=b5 v=0
36146 On ch=1 n=g#5 v=0
36286 On ch=1 n=e5 v=80
36338 On ch=1 n=e5 v=0
36516 On ch=1 n=c6 v=82
36520 On ch=1 n=a5 v=63
36542 Par ch=1 c=64 v=63
36548 Par ch=1 c=64 v=0
36566 On ch=1 n=a5 v=0
36582 On ch=1 n=c6 v=0
36732 On ch=1 n=d6 v=92
36742 On ch=1 n=b5 v=81
36786 On ch=1 n=b5 v=0
36808 On ch=1 n=d6 v=0
36952 On ch=1 n=a3 v=92
36956 On ch=1 n=e6 v=90
36968 On ch=1 n=c6 v=78
37006 On ch=1 n=c6 v=0
37018 On ch=1 n=a3 v=0
37032 On ch=1 n=e6 v=0
37164 On ch=1 n=a4 v=73
37166 On ch=1 n=e6 v=87
37172 On ch=1 n=c6 v=80
37212 On ch=1 n=c6 v=0
37230 On ch=1 n=a4 v=0
37240 On ch=1 n=e6 v=0
37372 On ch=1 n=c4 v=92
37382 On ch=1 n=f6 v=99
37438 On ch=1 n=c4 v=0
37484 On ch=1 n=e6 v=74
37514 On ch=1 n=f6 v=0
37562 On ch=1 n=d6 v=79
37618 On ch=1 n=e6 v=0
37660 On ch=1 n=c6 v=78
37666 On ch=1 n=d6 v=0
37714 On ch=1 n=c6 v=0
37784 Par ch=1 c=64 v=127
37808 On ch=1 n=e4 v=55
37814 On ch=1 n=b5 v=81
37816 On ch=1 n=g#5 v=95
37852 On ch=1 n=b5 v=0
37860 On ch=1 n=g#5 v=0
37890 On ch=1 n=e4 v=0
38276 Par ch=1 c=64 v=63
38282 Par ch=1 c=64 v=0
38290 On ch=1 n=b5 v=96
38388 On ch=1 n=b5 v=0
38390 On ch=1 n=a5 v=67
38472 On ch=1 n=g#5 v=91
38492 On ch=1 n=a5 v=0
38570 On ch=1 n=g#5 v=0
38578 On ch=1 n=a5 v=61
38674 On ch=1 n=a5 v=0
38686 On ch=1 n=c6 v=87
38694 On ch=1 n=a4 v=66
38744 On ch=1 n=c6 v=0
38754 On ch=1 n=a4 v=0
38908 On ch=1 n=e5 v=71
38914 On ch=1 n=c5 v=73
38952 On ch=1 n=c5 v=0
38964 On ch=1 n=e5 v=0
39134 On ch=1 n=d6 v=92
39158 On ch=1 n=c5 v=41
39158 On ch=1 n=e5 v=41
39200 On ch=1 n=e5 v=0
39200 On ch=1 n=c5 v=0
39226 On ch=1 n=c6 v=81
39240 On ch=1 n=d6 v=0
39324 On ch=1 n=b5 v=85
39338 On ch=1 n=e5 v=45
39342 On ch=1 n=c5 v=60
39346 On ch=1 n=c6 v=0
39384 On ch=1 n=c5 v=0
39398 On ch=1 n=e5 v=0
39420 On ch=1 n=b5 v=0
39420 On ch=1 n=c6 v=73
39540 On ch=1 n=c6 v=0
39544 On ch=1 n=a4 v=89
39548 On ch=1 n=e6 v=90
39602 On ch=1 n=a4 v=0
39618 On ch=1 n=e6 v=0
39758 On ch=1 n=e5 v=60
39760 On ch=1 n=c5 v=78
39802 On ch=1 n=c5 v=0
39820 On ch=1 n=e5 v=0
39978 On ch=1 n=e5 v=68
39984 On ch=1 n=c5 v=77
39984 On ch=1 n=f6 v=96
40028 On ch=1 n=c5 v=0
40032 On ch=1 n=e5 v=0
40058 On ch=1 n=e6 v=98
40080 On ch=1 n=f6 v=0
40156 On ch=1 n=d#6 v=100
40172 On ch=1 n=e6 v=0
40186 On ch=1 n=c5 v=72
40192 On ch=1 n=e5 v=51
40234 On ch=1 n=c5 v=0
40254 On ch=1 n=e5 v=0
40260 On ch=1 n=d#6 v=0
40264 On ch=1 n=e6 v=80
40384 On ch=1 n=e6 v=0
40396 On ch=1 n=a4 v=88
40400 On ch=1 n=b6 v=82
40458 On ch=1 n=a4 v=0
40494 On ch=1 n=a6 v=72
40502 On ch=1 n=b6 v=0
40598 On ch=1 n=a6 v=0
40610 On ch=1 n=g#6 v=80
40628 On ch=1 n=e5 v=56
40632 On ch=1 n=c5 v=60
40672 On ch=1 n=c5 v=0
40684 On ch=1 n=e5 v=0
40694 On ch=1 n=a6 v=91
40716 On ch=1 n=g#6 v=0
40804 On ch=1 n=a4 v=99
40806 On ch=1 n=a6 v=0
40820 On ch=1 n=b6 v=94
40888 On ch=1 n=a4 v=0
40922 On ch=1 n=a6 v=92
40944 On ch=1 n=b6 v=0
41018 On ch=1 n=g#6 v=96
41022 On ch=1 n=a6 v=0
41022 On ch=1 n=c5 v=85
41024 On ch=1 n=e5 v=69
41078 On ch=1 n=c5 v=0
41082 On ch=1 n=e5 v=0
41084 On ch=1 n=a6 v=86
41128 On ch=1 n=g#6 v=0
41176 On ch=1 n=a6 v=0
41212 On ch=1 n=f4 v=103
41224 On ch=1 n=c7 v=124
41266 Par ch=1 c=64 v=127
41342 On ch=1 n=f4 v=0
41428 On ch=1 n=c7 v=0
41450 On ch=1 n=a4 v=68
41452 On ch=1 n=d#5 v=80
41498 On ch=1 n=d#5 v=0
41518 On ch=1 n=a4 v=0
41646 Par ch=1 c=64 v=63
41648 Par ch=1 c=64 v=0
41660 On ch=1 n=a6 v=118
41666 On ch=1 n=d#5 v=75
41672 On ch=1 n=a4 v=56
41706 On ch=1 n=d#5 v=0
41722 On ch=1 n=a6 v=0
41730 On ch=1 n=a4 v=0
41862 On ch=1 n=d#5 v=89
41868 On ch=1 n=b6 v=111
41918 On ch=1 n=d#5 v=0
41936 On ch=1 n=b6 v=0
42066 On ch=1 n=e4 v=96
42078 On ch=1 n=c7 v=114
42138 On ch=1 n=e4 v=0
42170 On ch=1 n=c7 v=0
42272 On ch=1 n=a4 v=97
42276 On ch=1 n=e5 v=89
42286 On ch=1 n=b6 v=104
42316 On ch=1 n=e5 v=0
42326 On ch=1 n=a4 v=0
42366 On ch=1 n=b6 v=0
42492 On ch=1 n=d4 v=103
42506 On ch=1 n=a6 v=102
42556 On ch=1 n=d4 v=0
42566 On ch=1 n=a6 v=0
42710 On ch=1 n=g#6 v=107
42714 On ch=1 n=f4 v=96
42714 On ch=1 n=b4 v=89
42752 On ch=1 n=b4 v=0
42752 On ch=1 n=f4 v=0
42772 On ch=1 n=g#6 v=0
42906 On ch=1 n=a6 v=107
42914 On ch=1 n=c4 v=94
42978 On ch=1 n=a6 v=0
42986 On ch=1 n=c4 v=0
43118 On ch=1 n=a4 v=90
43126 On ch=1 n=e6 v=98
43126 On ch=1 n=e4 v=91
43166 On ch=1 n=e4 v=0
43168 On ch=1 n=e6 v=0
43180 On ch=1 n=a4 v=0
43324 On ch=1 n=d4 v=91
43330 On ch=1 n=f6 v=102
43382 On ch=1 n=d4 v=0
43398 On ch=1 n=f6 v=0
43528 On ch=1 n=b4 v=88
43532 On ch=1 n=d6 v=113
43538 On ch=1 n=f4 v=83
43578 On ch=1 n=f4 v=0
43590 On ch=1 n=b4 v=0
43598 On ch=1 n=d6 v=0
43760 On ch=1 n=a4 v=85
43764 On ch=1 n=c6 v=113
43764 On ch=1 n=e4 v=97
43782 Par ch=1 c=64 v=127
43818 On ch=1 n=e4 v=0
43822 On ch=1 n=a4 v=0
43828 On ch=1 n=c6 v=0
43982 On ch=1 n=a4 v=80
44002 On ch=1 n=e4 v=63
44046 On ch=1 n=e4 v=0
44048 On ch=1 n=a4 v=0
44188 On ch=1 n=b5 v=113
44200 On ch=1 n=g#4 v=100
44204 On ch=1 n=e4 v=84
44218 Par ch=1 c=64 v=63
44224 Par ch=1 c=64 v=0
44226 On ch=1 n=c6 v=77
44240 On ch=1 n=g#4 v=0
44252 On ch=1 n=e4 v=0
44256 On ch=1 n=b5 v=0
44282 On ch=1 n=c6 v=0
44304 On ch=1 n=b5 v=91
44358 On ch=1 n=g#4 v=65
44360 On ch=1 n=c6 v=88
44368 On ch=1 n=e4 v=50
44382 On ch=1 n=b5 v=0
44400 On ch=1 n=g#4 v=0
44416 On ch=1 n=e4 v=0
44432 On ch=1 n=c6 v=0
44458 On ch=1 n=b5 v=77
44516 On ch=1 n=c6 v=97
44540 On ch=1 n=b5 v=0
44576 On ch=1 n=c6 v=0
44586 On ch=1 n=b5 v=77
44604 Par ch=1 c=64 v=127
44608 On ch=1 n=a5 v=114
44618 On ch=1 n=b5 v=0
44632 On ch=1 n=a4 v=113
44636 On ch=1 n=a3 v=112
44674 On ch=1 n=a5 v=0
44696 On ch=1 n=a4 v=0
44704 On ch=1 n=a3 v=0
45110 On ch=1 n=a6 v=112
45114 Par ch=1 c=64 v=63
45116 Par ch=1 c=64 v=0
45116 On ch=1 n=a5 v=83
45156 On ch=1 n=a6 v=0
45158 On ch=1 n=a5 v=0
45354 On ch=1 n=b5 v=102
45356 On ch=1 n=b6 v=97
45386 On ch=1 n=b5 v=0
45388 On ch=1 n=b6 v=0
45510 On ch=1 n=a3 v=85
45550 On ch=1 n=c#4 v=83
45606 On ch=1 n=e4 v=74
45622 Par ch=1 c=64 v=127
45642 On ch=1 n=a4 v=121
45652 On ch=1 n=c#7 v=119
45652 On ch=1 n=c#6 v=124
45728 On ch=1 n=c#6 v=0
45732 On ch=1 n=c#7 v=0
45774 On ch=1 n=a4 v=0
45818 On ch=1 n=e4 v=0
45828 On ch=1 n=c#4 v=0
45872 On ch=1 n=a4 v=85
45906 On ch=1 n=a3 v=0
45954 On ch=1 n=a4 v=0
46116 On ch=1 n=a6 v=104
46120 On ch=1 n=a5 v=93
46128 On ch=1 n=a4 v=84
46142 Par ch=1 c=64 v=63
46148 Par ch=1 c=64 v=0
46162 On ch=1 n=a5 v=0
46174 On ch=1 n=a6 v=0
46208 On ch=1 n=a4 v=0
46326 On ch=1 n=a4 v=74
46330 On ch=1 n=b5 v=106
46332 On ch=1 n=b6 v=108
46362 On ch=1 n=b5 v=0
46368 On ch=1 n=b6 v=0
46444 On ch=1 n=a4 v=0
46458 On ch=1 n=a3 v=84
46496 On ch=1 n=c#4 v=77
46526 Par ch=1 c=64 v=127
46534 On ch=1 n=e4 v=77
46558 On ch=1 n=c#7 v=118
46560 On ch=1 n=c#6 v=118
46578 On ch=1 n=a4 v=113
46608 On ch=1 n=c#6 v=0
46626 On ch=1 n=c#7 v=0
46634 On ch=1 n=a3 v=0
46684 On ch=1 n=c#4 v=0
46686 On ch=1 n=e4 v=0
46694 On ch=1 n=a4 v=0
46802 On ch=1 n=b6 v=110
46804 On ch=1 n=a4 v=73
46812 On ch=1 n=b5 v=100
46846 On ch=1 n=b6 v=0
46870 On ch=1 n=b5 v=0
46872 On ch=1 n=a4 v=0
46956 Par ch=1 c=64 v=63
46968 Par ch=1 c=64 v=0
47022 On ch=1 n=a6 v=111
47028 On ch=1 n=a4 v=80
47030 On ch=1 n=a5 v=93
47066 On ch=1 n=a5 v=0
47078 On ch=1 n=a6 v=0
47120 On ch=1 n=a4 v=0
47216 On ch=1 n=a4 v=89
47232 On ch=1 n=g#6 v=108
47236 On ch=1 n=g#5 v=106
47284 On ch=1 n=g#5 v=0
47288 On ch=1 n=a4 v=0
47302 On ch=1 n=g#6 v=0
47400 Par ch=1 c=64 v=127
47422 On ch=1 n=d3 v=108
47428 On ch=1 n=a3 v=102
47434 On ch=1 n=f#3 v=99
47446 On ch=1 n=f#5 v=124
47448 On ch=1 n=f#6 v=119
47472 On ch=1 n=d4 v=74
47496 On ch=1 n=d3 v=0
47508 On ch=1 n=f#5 v=0
47518 On ch=1 n=f#3 v=0
47520 On ch=1 n=f#6 v=0
47522 On ch=1 n=a3 v=0
47580 On ch=1 n=d4 v=0
47662 On ch=1 n=g#6 v=107
47668 Par ch=1 c=64 v=63
47670 On ch=1 n=g#5 v=94
47672 On ch=1 n=d4 v=86
47680 Par ch=1 c=64 v=0
47710 On ch=1 n=g#5 v=0
47740 On ch=1 n=g#6 v=0
47758 On ch=1 n=d4 v=0
47802 On ch=1 n=d#3 v=94
47834 On ch=1 n=f#3 v=54
47858 Par ch=1 c=64 v=127
47864 On ch=1 n=a5 v=109
47866 On ch=1 n=a6 v=116
47874 On ch=1 n=d#4 v=120
47874 On ch=1 n=a3 v=71
47890 On ch=1 n=d#6 v=61
47922 On ch=1 n=a5 v=0
47926 On ch=1 n=d#6 v=0
47930 On ch=1 n=a6 v=0
47930 On ch=1 n=f#3 v=0
47936 On ch=1 n=a3 v=0
47938 On ch=1 n=d#3 v=0
47976 On ch=1 n=d#4 v=0
48060 On ch=1 n=d#4 v=88
48072 On ch=1 n=b6 v=99
48074 On ch=1 n=b5 v=102
48104 Par ch=1 c=64 v=63
48106 On ch=1 n=b5 v=0
48108 On ch=1 n=b6 v=0
48110 Par ch=1 c=64 v=0
48130 On ch=1 n=d#4 v=0
48202 On ch=1 n=e3 v=90
48270 Par ch=1 c=64 v=63
48272 Par ch=1 c=64 v=127
48276 On ch=1 n=g#3 v=80
48280 On ch=1 n=b3 v=101
48296 On ch=1 n=g#6 v=113
48300 On ch=1 n=e4 v=120
48302 On ch=1 n=g#5 v=114
48312 On ch=1 n=e3 v=0
48350 On ch=1 n=g#5 v=0
48362 On ch=1 n=g#3 v=0
48364 On ch=1 n=g#6 v=0
48388 On ch=1 n=b3 v=0
48426 On ch=1 n=e4 v=0
48512 On ch=1 n=e5 v=98
48516 On ch=1 n=e6 v=99
48522 On ch=1 n=e4 v=69
48548 On ch=1 n=e5 v=0
48550 On ch=1 n=e6 v=0
48584 On ch=1 n=e4 v=0
48696 Par ch=1 c=64 v=63
48704 Par ch=1 c=64 v=0
48728 On ch=1 n=a6 v=113
48730 On ch=1 n=e4 v=91
48732 On ch=1 n=a5 v=99
48766 On ch=1 n=a5 v=0
48772 On ch=1 n=a6 v=0
48812 On ch=1 n=e4 v=0
48932 On ch=1 n=e4 v=77
48946 On ch=1 n=b6 v=104
48948 On ch=1 n=b5 v=96
48980 On ch=1 n=b5 v=0
48986 On ch=1 n=b6 v=0
49028 On ch=1 n=a3 v=71
49032 On ch=1 n=e4 v=0
49112 On ch=1 n=c#4 v=72
49164 On ch=1 n=e4 v=71
49176 Par ch=1 c=64 v=127
49186 On ch=1 n=a3 v=0
49190 On ch=1 n=c#7 v=120
49194 On ch=1 n=c#6 v=121
49194 On ch=1 n=a4 v=109
49242 On ch=1 n=c#6 v=0
49248 On ch=1 n=c#7 v=0
49270 On ch=1 n=c#4 v=0
49288 On ch=1 n=e4 v=0
49296 On ch=1 n=a4 v=0
49412 On ch=1 n=a4 v=79
49500 On ch=1 n=a4 v=0
49640 On ch=1 n=a6 v=102
49642 On ch=1 n=a5 v=90
49642 Par ch=1 c=64 v=63
49648 On ch=1 n=a4 v=84
49654 Par ch=1 c=64 v=0
49674 On ch=1 n=a6 v=0
49710 On ch=1 n=a5 v=0
49724 On ch=1 n=a4 v=0
49840 On ch=1 n=a4 v=81
49856 On ch=1 n=b6 v=104
49856 On ch=1 n=b5 v=108
49884 On ch=1 n=a6 v=51
49892 On ch=1 n=b5 v=0
49918 On ch=1 n=b6 v=0
49928 On ch=1 n=a6 v=0
49946 On ch=1 n=a4 v=0
49972 On ch=1 n=a3 v=84
50006 On ch=1 n=c#4 v=70
50042 On ch=1 n=e4 v=71
50044 Par ch=1 c=64 v=127
50076 On ch=1 n=c#7 v=119
50080 On ch=1 n=c#6 v=118
50094 On ch=1 n=a4 v=107
50096 On ch=1 n=a3 v=0
50128 On ch=1 n=c#6 v=0
50150 On ch=1 n=c#7 v=0
50170 On ch=1 n=c#4 v=0
50182 On ch=1 n=e4 v=0
50194 On ch=1 n=a4 v=0
50302 On ch=1 n=b6 v=102
50306 On ch=1 n=a4 v=81
50308 On ch=1 n=b5 v=93
50344 On ch=1 n=b5 v=0
50348 On ch=1 n=b6 v=0
50382 On ch=1 n=a4 v=0
50406 Par ch=1 c=64 v=63
50418 Par ch=1 c=64 v=0
50524 On ch=1 n=a4 v=80
50526 On ch=1 n=a6 v=109
50532 On ch=1 n=a5 v=89
50572 On ch=1 n=a5 v=0
50572 On ch=1 n=a6 v=0
50610 On ch=1 n=a4 v=0
50710 On ch=1 n=a4 v=82
50724 On ch=1 n=g#6 v=105
50730 On ch=1 n=g#5 v=94
50764 On ch=1 n=g#5 v=0
50770 On ch=1 n=a4 v=0
50798 On ch=1 n=g#6 v=0
50890 Par ch=1 c=64 v=127
50900 On ch=1 n=d3 v=111
50910 On ch=1 n=a3 v=99
50916 On ch=1 n=f#3 v=98
50936 On ch=1 n=f#5 v=125
50936 On ch=1 n=f#6 v=116
50980 On ch=1 n=d3 v=0
50986 On ch=1 n=f#5 v=0
50986 On ch=1 n=d4 v=104
51000 On ch=1 n=f#3 v=0
51002 On ch=1 n=f#6 v=0
51016 On ch=1 n=a3 v=0
51074 On ch=1 n=d4 v=0
51106 Par ch=1 c=64 v=63
51112 Par ch=1 c=64 v=0
51138 On ch=1 n=b6 v=108
51140 On ch=1 n=b5 v=100
51152 On ch=1 n=d4 v=91
51174 On ch=1 n=b5 v=0
51178 On ch=1 n=b6 v=0
51232 On ch=1 n=d4 v=0
51282 On ch=1 n=e3 v=92
51338 On ch=1 n=g#3 v=80
51350 Par ch=1 c=64 v=127
51352 On ch=1 n=b3 v=94
51370 On ch=1 n=g#6 v=108
51374 On ch=1 n=g#5 v=109
51392 On ch=1 n=e4 v=106
51394 On ch=1 n=e3 v=0
51412 On ch=1 n=g#5 v=0
51426 On ch=1 n=g#6 v=0
51456 On ch=1 n=g#3 v=0
51476 On ch=1 n=b3 v=0
51480 On ch=1 n=e4 v=0
51536 Par ch=1 c=64 v=63
51544 Par ch=1 c=64 v=0
51572 On ch=1 n=e6 v=101
51574 On ch=1 n=e5 v=99
51574 On ch=1 n=e4 v=97
51606 On ch=1 n=e5 v=0
51610 On ch=1 n=e6 v=0
51656 On ch=1 n=e4 v=0
51692 On ch=1 n=a3 v=72
51768 On ch=1 n=c#4 v=93
51790 On ch=1 n=e4 v=97
51796 On ch=1 n=a6 v=120
51800 On ch=1 n=a5 v=116
51816 Par ch=1 c=64 v=127
51822 On ch=1 n=a4 v=114
51838 On ch=1 n=a3 v=0
51848 On ch=1 n=a5 v=0
51852 On ch=1 n=a6 v=0
51892 On ch=1 n=c#4 v=0
51908 On ch=1 n=e4 v=0
51960 On ch=1 n=a4 v=0
52238 Par ch=1 c=64 v=63
52246 Par ch=1 c=64 v=0
52264 On ch=1 n=a5 v=107
52268 On ch=1 n=a6 v=108
52302 On ch=1 n=a5 v=0
52304 On ch=1 n=a6 v=0
52504 On ch=1 n=b6 v=108
52512 On ch=1 n=b5 v=91
52548 On ch=1 n=b5 v=0
52560 On ch=1 n=b6 v=0
52604 On ch=1 n=a3 v=63
52658 On ch=1 n=c#4 v=59
52720 On ch=1 n=e4 v=100
52724 Par ch=1 c=64 v=127
52738 On ch=1 n=a4 v=117
52748 On ch=1 n=c#7 v=118
52752 On ch=1 n=c#6 v=121
52770 On ch=1 n=a3 v=0
52798 On ch=1 n=c#6 v=0
52812 On ch=1 n=c#7 v=0
52852 On ch=1 n=a4 v=0
52872 On ch=1 n=e4 v=0
52888 On ch=1 n=c#4 v=0
52958 On ch=1 n=a4 v=76
53028 On ch=1 n=a4 v=0
53180 On ch=1 n=a5 v=97
53180 On ch=1 n=a6 v=108
53182 On ch=1 n=a4 v=76
53186 Par ch=1 c=64 v=63
53188 Par ch=1 c=64 v=0
53214 On ch=1 n=a6 v=0
53216 On ch=1 n=a5 v=0
53244 On ch=1 n=a4 v=0
53380 On ch=1 n=a4 v=85
53396 On ch=1 n=b6 v=104
53398 On ch=1 n=b5 v=100
53430 On ch=1 n=b5 v=0
53440 On ch=1 n=b6 v=0
53474 On ch=1 n=a4 v=0
53480 On ch=1 n=a3 v=89
53520 On ch=1 n=c#4 v=80
53558 Par ch=1 c=64 v=127
53562 On ch=1 n=e4 v=76
53608 On ch=1 n=a3 v=0
53610 On ch=1 n=a4 v=118
53612 On ch=1 n=c#7 v=114
53616 On ch=1 n=c#6 v=110
53664 On ch=1 n=c#6 v=0
53666 On ch=1 n=c#4 v=0
53678 On ch=1 n=c#7 v=0
53688 On ch=1 n=e4 v=0
53724 On ch=1 n=a4 v=0
53840 On ch=1 n=b6 v=80
53844 On ch=1 n=b5 v=90
53854 On ch=1 n=a4 v=62
53880 On ch=1 n=b5 v=0
53884 On ch=1 n=b6 v=0
53906 On ch=1 n=a4 v=0
53952 Par ch=1 c=64 v=63
53962 Par ch=1 c=64 v=0
54064 On ch=1 n=a4 v=83
54064 On ch=1 n=a6 v=96
54066 On ch=1 n=a5 v=78
54096 On ch=1 n=a6 v=0
54114 On ch=1 n=a5 v=0
54146 On ch=1 n=a4 v=0
54248 On ch=1 n=a4 v=88
54262 On ch=1 n=g#6 v=105
54266 On ch=1 n=g#5 v=101
54300 On ch=1 n=a4 v=0
54308 On ch=1 n=g#5 v=0
54326 On ch=1 n=g#6 v=0
54420 Par ch=1 c=64 v=127
54424 On ch=1 n=d3 v=114
54434 On ch=1 n=a3 v=101
54440 On ch=1 n=f#3 v=104
54480 On ch=1 n=f#6 v=110
54480 On ch=1 n=f#5 v=115
54498 On ch=1 n=d3 v=0
54502 On ch=1 n=d4 v=114
54522 On ch=1 n=f#5 v=0
54536 On ch=1 n=f#3 v=0
54542 On ch=1 n=f#6 v=0
54550 On ch=1 n=a3 v=0
54590 On ch=1 n=d4 v=0
54614 Par ch=1 c=64 v=63
54622 Par ch=1 c=64 v=0
54686 On ch=1 n=d4 v=92
54690 On ch=1 n=g#6 v=105
54692 On ch=1 n=g#5 v=99
54736 On ch=1 n=g#5 v=0
54764 On ch=1 n=g#6 v=0
54772 On ch=1 n=d4 v=0
54800 On ch=1 n=d#3 v=103
54824 On ch=1 n=f#3 v=78
54862 On ch=1 n=a3 v=60
54866 Par ch=1 c=64 v=127
54892 On ch=1 n=d#4 v=126
54898 On ch=1 n=a5 v=99
54900 On ch=1 n=a6 v=113
54922 On ch=1 n=d#3 v=0
54952 On ch=1 n=f#3 v=0
54954 On ch=1 n=a6 v=0
54972 On ch=1 n=a5 v=0
54984 On ch=1 n=a3 v=0
54998 On ch=1 n=d#4 v=0
55076 On ch=1 n=d#4 v=88
55094 On ch=1 n=b6 v=102
55100 On ch=1 n=b5 v=91
55124 On ch=1 n=b6 v=0
55124 Par ch=1 c=64 v=63
55128 Par ch=1 c=64 v=0
55134 On ch=1 n=b5 v=0
55148 On ch=1 n=d#4 v=0
55198 On ch=1 n=e3 v=88
55246 On ch=1 n=g#3 v=76
55264 Par ch=1 c=64 v=63
55264 Par ch=1 c=64 v=127
55280 On ch=1 n=b3 v=82
55308 On ch=1 n=e3 v=0
55316 On ch=1 n=e4 v=122
55334 On ch=1 n=g#6 v=107
55338 On ch=1 n=g#5 v=109
55368 On ch=1 n=g#3 v=0
55384 On ch=1 n=b3 v=0
55388 On ch=1 n=g#5 v=0
55400 On ch=1 n=g#6 v=0
55440 On ch=1 n=e4 v=0
55538 On ch=1 n=e4 v=92
55546 On ch=1 n=e6 v=94
55548 On ch=1 n=e5 v=80
55580 On ch=1 n=e6 v=0
55586 On ch=1 n=e5 v=0
55634 On ch=1 n=e4 v=0
55680 Par ch=1 c=64 v=63
55688 Par ch=1 c=64 v=0
55748 On ch=1 n=a6 v=111
55750 On ch=1 n=a5 v=90
55760 On ch=1 n=e4 v=84
55782 On ch=1 n=a6 v=0
55800 On ch=1 n=a5 v=0
55850 On ch=1 n=e4 v=0
55960 On ch=1 n=e4 v=80
55980 On ch=1 n=b6 v=106
55982 On ch=1 n=b5 v=97
56016 On ch=1 n=b5 v=0
56028 On ch=1 n=b6 v=0
56034 On ch=1 n=a3 v=75
56054 On ch=1 n=e4 v=0
56096 On ch=1 n=c#4 v=79
56174 On ch=1 n=e4 v=36
56174 Par ch=1 c=64 v=127
56198 On ch=1 n=a3 v=0
56204 On ch=1 n=c#7 v=119
56210 On ch=1 n=c#6 v=119
56210 On ch=1 n=a4 v=109
56254 On ch=1 n=c#6 v=0
56266 On ch=1 n=c#7 v=0
56288 On ch=1 n=c#4 v=0
56300 On ch=1 n=a4 v=0
56302 On ch=1 n=e4 v=0
56422 On ch=1 n=a4 v=83
56506 On ch=1 n=a4 v=0
56652 Par ch=1 c=64 v=63
56654 On ch=1 n=a6 v=108
56656 On ch=1 n=a5 v=108
56662 Par ch=1 c=64 v=0
56662 On ch=1 n=a4 v=75
56684 On ch=1 n=a5 v=0
56688 On ch=1 n=a6 v=0
56734 On ch=1 n=a4 v=0
56850 On ch=1 n=a4 v=73
56880 On ch=1 n=b6 v=107
56884 On ch=1 n=b5 v=102
56916 On ch=1 n=b5 v=0
56928 On ch=1 n=b6 v=0
56950 On ch=1 n=a4 v=0
56962 On ch=1 n=a3 v=82
57004 On ch=1 n=c#4 v=68
57042 Par ch=1 c=64 v=127
57050 On ch=1 n=e4 v=63
57088 On ch=1 n=c#7 v=116
57090 On ch=1 n=a3 v=0
57094 On ch=1 n=c#6 v=115
57094 On ch=1 n=a4 v=108
57140 On ch=1 n=c#6 v=0
57156 On ch=1 n=c#7 v=0
57156 On ch=1 n=c#4 v=0
57164 On ch=1 n=e4 v=0
57182 On ch=1 n=a4 v=0
57300 On ch=1 n=b6 v=102
57304 On ch=1 n=a4 v=76
57304 On ch=1 n=b5 v=102
57336 On ch=1 n=b5 v=0
57344 On ch=1 n=b6 v=0
57372 On ch=1 n=a4 v=0
57452 Par ch=1 c=64 v=63
57462 Par ch=1 c=64 v=0
57518 On ch=1 n=a4 v=82
57522 On ch=1 n=a6 v=112
57524 On ch=1 n=a5 v=97
57560 On ch=1 n=a6 v=0
57562 On ch=1 n=a5 v=0
57598 On ch=1 n=a4 v=0
57712 On ch=1 n=a4 v=85
57734 On ch=1 n=g#6 v=103
57744 On ch=1 n=g#5 v=88
57776 On ch=1 n=g#5 v=0
57786 On ch=1 n=g#6 v=0
57788 On ch=1 n=a4 v=0
57894 Par ch=1 c=64 v=127
57908 On ch=1 n=d3 v=107
57914 On ch=1 n=a3 v=102
57920 On ch=1 n=f#3 v=98
57944 On ch=1 n=f#6 v=113
57946 On ch=1 n=f#5 v=121
57986 On ch=1 n=d3 v=0
57994 On ch=1 n=f#5 v=0
57996 On ch=1 n=f#3 v=0
57998 On ch=1 n=a3 v=0
57998 On ch=1 n=d4 v=97
58008 On ch=1 n=f#6 v=0
58084 On ch=1 n=d4 v=0
58136 On ch=1 n=b6 v=109
58138 On ch=1 n=b5 v=104
58146 On ch=1 n=d4 v=86
58156 Par ch=1 c=64 v=63
58164 Par ch=1 c=64 v=0
58174 On ch=1 n=b5 v=0
58194 On ch=1 n=b6 v=0
58228 On ch=1 n=d4 v=0
58270 On ch=1 n=e3 v=89
58306 Par ch=1 c=64 v=63
58306 Par ch=1 c=64 v=127
58330 On ch=1 n=g#3 v=84
58340 On ch=1 n=b3 v=99
58354 On ch=1 n=g#6 v=108
58362 On ch=1 n=g#5 v=106
58386 On ch=1 n=e3 v=0
58390 On ch=1 n=e4 v=98
58394 On ch=1 n=g#5 v=0
58400 On ch=1 n=g#6 v=0
58458 On ch=1 n=g#3 v=0
58474 On ch=1 n=e4 v=0
58482 On ch=1 n=b3 v=0
58490 Par ch=1 c=64 v=63
58498 Par ch=1 c=64 v=0
58560 On ch=1 n=e6 v=107
58562 On ch=1 n=e4 v=85
58562 On ch=1 n=e5 v=98
58594 On ch=1 n=e5 v=0
58604 On ch=1 n=e6 v=0
58636 On ch=1 n=e4 v=0
58660 On ch=1 n=a3 v=79
58746 On ch=1 n=c#4 v=91
58766 On ch=1 n=e4 v=99
58786 Par ch=1 c=64 v=127
58788 On ch=1 n=a6 v=114
58792 On ch=1 n=a5 v=108
58794 On ch=1 n=a4 v=114
58802 On ch=1 n=a3 v=0
58824 On ch=1 n=a5 v=0
58844 On ch=1 n=a6 v=0
58846 On ch=1 n=c#4 v=0
58872 On ch=1 n=e4 v=0
58876 On ch=1 n=a4 v=0
59214 Par ch=1 c=64 v=127
59242 On ch=1 n=c#7 v=101
59344 On ch=1 n=c#7 v=0
59352 On ch=1 n=d7 v=81
59392 Par ch=1 c=64 v=63
59396 Par ch=1 c=64 v=0
59462 On ch=1 n=c#7 v=92
59478 On ch=1 n=d7 v=0
59566 On ch=1 n=b6 v=82
59600 On ch=1 n=c#7 v=0
59676 On ch=1 n=f#4 v=65
59684 On ch=1 n=b6 v=0
59688 On ch=1 n=a6 v=87
59702 Par ch=1 c=64 v=127
59790 On ch=1 n=a6 v=0
59816 On ch=1 n=b6 v=83
59930 On ch=1 n=f#4 v=0
59930 On ch=1 n=a6 v=85
59948 On ch=1 n=b6 v=0
59948 On ch=1 n=c#5 v=65
59958 On ch=1 n=a4 v=53
59998 On ch=1 n=c#5 v=0
60020 On ch=1 n=g#6 v=97
60026 On ch=1 n=a4 v=0
60034 On ch=1 n=a6 v=0
60112 On ch=1 n=g#6 v=0
60124 On ch=1 n=f#6 v=92
60124 Par ch=1 c=64 v=63
60134 Par ch=1 c=64 v=0
60162 On ch=1 n=a4 v=53
60166 On ch=1 n=c#5 v=56
60204 On ch=1 n=f#6 v=0
60210 On ch=1 n=c#5 v=0
60220 On ch=1 n=a4 v=0
60234 On ch=1 n=a6 v=87
60340 On ch=1 n=g#6 v=90
60364 On ch=1 n=a6 v=0
60370 On ch=1 n=a4 v=66
60394 On ch=1 n=c#5 v=47
60438 On ch=1 n=f#6 v=88
60450 On ch=1 n=c#5 v=0
60458 On ch=1 n=a4 v=0
60472 On ch=1 n=g#6 v=0
60540 On ch=1 n=f#6 v=0
60554 On ch=1 n=f6 v=82
60570 On ch=1 n=g#4 v=88
60626 Par ch=1 c=64 v=63
60642 Par ch=1 c=64 v=127
60660 On ch=1 n=f#6 v=93
60662 On ch=1 n=f6 v=0
60760 On ch=1 n=g#4 v=0
60768 Par ch=1 c=64 v=63
60770 On ch=1 n=c#5 v=72
60782 On ch=1 n=g#6 v=86
60786 On ch=1 n=b4 v=56
60816 On ch=1 n=f#6 v=0
60842 Par ch=1 c=64 v=0
60848 On ch=1 n=b4 v=0
60852 On ch=1 n=c#5 v=0
60896 On ch=1 n=f6 v=83
60910 On ch=1 n=g#6 v=0
60988 On ch=1 n=f6 v=0
60998 On ch=1 n=b4 v=72
61000 On ch=1 n=c#5 v=65
61006 On ch=1 n=c#6 v=90
61060 On ch=1 n=c#5 v=0
61084 On ch=1 n=b4 v=0
61106 On ch=1 n=c#6 v=0
61106 On ch=1 n=d#6 v=90
61216 On ch=1 n=f6 v=74
61218 On ch=1 n=b4 v=51
61222 On ch=1 n=d#6 v=0
61234 On ch=1 n=c#5 v=50
61286 On ch=1 n=c#5 v=0
61300 On ch=1 n=b4 v=0
61314 On ch=1 n=c#6 v=83
61326 On ch=1 n=f6 v=0
61346 Par ch=1 c=64 v=63
61384 Par ch=1 c=64 v=127
61406 On ch=1 n=c#6 v=0
61422 On ch=1 n=f#4 v=92
61436 On ch=1 n=f#6 v=88
61544 On ch=1 n=f#6 v=0
61544 On ch=1 n=f6 v=86
61574 Par ch=1 c=64 v=63
61594 On ch=1 n=f#4 v=0
61646 Par ch=1 c=64 v=0
61648 On ch=1 n=f6 v=0
61650 On ch=1 n=c#5 v=71
61654 On ch=1 n=f#6 v=96
61666 On ch=1 n=a4 v=47
61718 On ch=1 n=c#5 v=0
61740 On ch=1 n=a4 v=0
61748 On ch=1 n=g#6 v=98
61760 On ch=1 n=f#6 v=0
61852 On ch=1 n=g#6 v=0
61860 On ch=1 n=a6 v=81
61868 On ch=1 n=a4 v=65
61872 On ch=1 n=c#5 v=58
61914 On ch=1 n=c#5 v=0
61952 On ch=1 n=a4 v=0
61962 On ch=1 n=a6 v=0
61972 On ch=1 n=g#6 v=93
62070 On ch=1 n=g#6 v=0
62082 On ch=1 n=a4 v=55
62084 On ch=1 n=a6 v=86
62088 On ch=1 n=c#5 v=67
62192 On ch=1 n=b6 v=87
62200 On ch=1 n=a6 v=0
62236 On ch=1 n=a4 v=0
62238 Par ch=1 c=64 v=63
62268 Par ch=1 c=64 v=127
62298 On ch=1 n=f4 v=87
62310 On ch=1 n=c#7 v=99
62320 On ch=1 n=b6 v=0
62378 On ch=1 n=c#5 v=0
62424 Par ch=1 c=64 v=63
62440 On ch=1 n=c7 v=92
62442 On ch=1 n=c#7 v=0
62484 Par ch=1 c=64 v=0
62500 On ch=1 n=c#5 v=65
62508 On ch=1 n=g#4 v=69
62518 On ch=1 n=f4 v=0
62526 On ch=1 n=c#7 v=88
62530 On ch=1 n=c7 v=0
62562 On ch=1 n=g#4 v=0
62564 On ch=1 n=c#5 v=0
62640 On ch=1 n=c7 v=96
62646 On ch=1 n=c#7 v=0
62734 On ch=1 n=c#5 v=83
62736 On ch=1 n=g#4 v=84
62748 On ch=1 n=c#7 v=109
62764 On ch=1 n=c7 v=0
62784 On ch=1 n=c#5 v=0
62786 On ch=1 n=g#4 v=0
62860 On ch=1 n=d7 v=101
62876 On ch=1 n=c#7 v=0
62972 On ch=1 n=c#7 v=107
62984 On ch=1 n=g#4 v=78
62986 On ch=1 n=c#5 v=65
63002 On ch=1 n=d7 v=0
63034 On ch=1 n=c#5 v=0
63034 On ch=1 n=g#4 v=0
63068 On ch=1 n=b6 v=80
63116 On ch=1 n=c#7 v=0
63166 Par ch=1 c=64 v=63
63168 On ch=1 n=a6 v=89
63174 On ch=1 n=b6 v=0
63192 On ch=1 n=f#4 v=106
63206 Par ch=1 c=64 v=127
63268 On ch=1 n=a6 v=0
63294 On ch=1 n=b6 v=86
63378 On ch=1 n=f#4 v=0
63392 Par ch=1 c=64 v=63
63406 On ch=1 n=a6 v=86
63420 On ch=1 n=c#5 v=78
63428 On ch=1 n=b6 v=0
63428 On ch=1 n=a4 v=67
63462 Par ch=1 c=64 v=0
63480 On ch=1 n=c#5 v=0
63486 On ch=1 n=a4 v=0
63514 On ch=1 n=g#6 v=88
63532 On ch=1 n=a6 v=0
63616 On ch=1 n=g#6 v=0
63620 On ch=1 n=f#6 v=95
63636 On ch=1 n=a4 v=73
63646 On ch=1 n=c#5 v=65
63686 On ch=1 n=c#5 v=0
63702 On ch=1 n=a4 v=0
63706 On ch=1 n=f#6 v=0
63724 On ch=1 n=a6 v=84
63830 On ch=1 n=g#6 v=93
63844 On ch=1 n=a6 v=0
63854 On ch=1 n=c#5 v=72
63862 On ch=1 n=a4 v=57
63918 On ch=1 n=a4 v=0
63932 On ch=1 n=c#5 v=0
63948 On ch=1 n=f#6 v=95
63980 On ch=1 n=g#6 v=0
64026 Par ch=1 c=64 v=63
64040 On ch=1 n=f#6 v=0
64050 On ch=1 n=e6 v=85
64052 On ch=1 n=g#4 v=110
64062 Par ch=1 c=64 v=127
64152 On ch=1 n=f#6 v=92
64162 On ch=1 n=e6 v=0
64272 On ch=1 n=g#4 v=0
64274 On ch=1 n=g#6 v=95
64288 On ch=1 n=c#5 v=67
64292 On ch=1 n=f#6 v=0
64298 On ch=1 n=e5 v=43
64322 Par ch=1 c=64 v=63
64334 On ch=1 n=c#5 v=0
64350 On ch=1 n=e5 v=0
64364 Par ch=1 c=64 v=0
64370 On ch=1 n=e6 v=63
64372 On ch=1 n=g#6 v=0
64488 On ch=1 n=e6 v=0
64494 On ch=1 n=c#6 v=103
64498 On ch=1 n=c#5 v=90
64508 On ch=1 n=e5 v=54
64554 On ch=1 n=e5 v=0
64562 On ch=1 n=c#5 v=0
64590 On ch=1 n=d#6 v=89
64614 On ch=1 n=c#6 v=0
64706 On ch=1 n=e6 v=89
64708 On ch=1 n=d#6 v=0
64740 On ch=1 n=c#5 v=55
64784 On ch=1 n=c#5 v=0
64828 On ch=1 n=c#6 v=89
64834 On ch=1 n=e6 v=0
64848 Par ch=1 c=64 v=63
64880 Par ch=1 c=64 v=127
64900 On ch=1 n=g#4 v=98
64916 On ch=1 n=d#6 v=91
64938 On ch=1 n=c#6 v=0
65002 On ch=1 n=g#4 v=0
65016 On ch=1 n=e6 v=80
65040 On ch=1 n=d#6 v=0
65058 Par ch=1 c=64 v=63
65106 Par ch=1 c=64 v=0
65116 On ch=1 n=d#5 v=68
65120 On ch=1 n=f#5 v=51
65130 On ch=1 n=f#6 v=88
65142 On ch=1 n=e6 v=0
65152 On ch=1 n=d#5 v=0
65164 On ch=1 n=f#5 v=0
65202 On ch=1 n=d#6 v=97
65230 On ch=1 n=f#6 v=0
65302 On ch=1 n=d#6 v=0
65322 On ch=1 n=f#5 v=80
65332 On ch=1 n=c6 v=76
65334 On ch=1 n=d#5 v=72
65370 On ch=1 n=d#5 v=0
65372 On ch=1 n=f#5 v=0
65426 On ch=1 n=c#6 v=97
65438 On ch=1 n=c6 v=0
65516 On ch=1 n=c#6 v=0
65538 On ch=1 n=f#5 v=86
65544 On ch=1 n=d#6 v=93
65570 On ch=1 n=d#5 v=51
65608 On ch=1 n=f#5 v=0
65610 On ch=1 n=d#5 v=0
65630 On ch=1 n=d#6 v=0
65644 On ch=1 n=c6 v=65
65748 On ch=1 n=c6 v=0
65796 On ch=1 n=c#6 v=91
65814 Par ch=1 c=64 v=63
65816 Par ch=1 c=64 v=127
65816 On ch=1 n=c#5 v=73
65830 On ch=1 n=e5 v=61
65858 On ch=1 n=c#6 v=0
65906 On ch=1 n=c#5 v=0
65946 On ch=1 n=e5 v=0
66218 Par ch=1 c=64 v=63
66232 Par ch=1 c=64 v=0
66328 On ch=1 n=c#7 v=97
66432 On ch=1 n=c#7 v=0
66448 On ch=1 n=d7 v=66
66552 On ch=1 n=c#7 v=79
66576 On ch=1 n=d7 v=0
66656 On ch=1 n=b6 v=74
66688 On ch=1 n=c#7 v=0
66766 On ch=1 n=b6 v=0
66766 On ch=1 n=f#4 v=70
66770 On ch=1 n=a6 v=77
66814 Par ch=1 c=64 v=63
66816 Par ch=1 c=64 v=127
66870 On ch=1 n=a6 v=0
66882 On ch=1 n=b6 v=79
66896 On ch=1 n=f#4 v=0
66974 On ch=1 n=c#5 v=63
66982 On ch=1 n=a4 v=48
66994 On ch=1 n=a6 v=75
67008 On ch=1 n=b6 v=0
67028 On ch=1 n=c#5 v=0
67044 On ch=1 n=a4 v=0
67092 On ch=1 n=g#6 v=89
67098 On ch=1 n=a6 v=0
67168 Par ch=1 c=64 v=63
67178 Par ch=1 c=64 v=0
67186 On ch=1 n=g#6 v=0
67194 On ch=1 n=a4 v=58
67196 On ch=1 n=f#6 v=86
67202 On ch=1 n=c#5 v=57
67244 On ch=1 n=c#5 v=0
67254 On ch=1 n=a4 v=0
67272 On ch=1 n=f#6 v=0
67312 On ch=1 n=a6 v=76
67416 On ch=1 n=a4 v=65
67418 On ch=1 n=g#6 v=87
67434 On ch=1 n=c#5 v=57
67438 On ch=1 n=a6 v=0
67484 On ch=1 n=c#5 v=0
67492 On ch=1 n=a4 v=0
67508 On ch=1 n=f#6 v=88
67552 On ch=1 n=g#6 v=0
67614 On ch=1 n=f#6 v=0
67616 On ch=1 n=f6 v=84
67630 Par ch=1 c=64 v=63
67632 Par ch=1 c=64 v=127
67640 On ch=1 n=g#4 v=89
67722 On ch=1 n=f#6 v=97
67730 On ch=1 n=f6 v=0
67786 On ch=1 n=g#4 v=0
67842 On ch=1 n=c#5 v=74
67842 On ch=1 n=g#6 v=91
67860 On ch=1 n=b4 v=56
67874 On ch=1 n=f#6 v=0
67892 On ch=1 n=c#5 v=0
67910 On ch=1 n=b4 v=0
67916 Par ch=1 c=64 v=63
67924 Par ch=1 c=64 v=0
67960 On ch=1 n=f6 v=84
67970 On ch=1 n=g#6 v=0
68048 On ch=1 n=f6 v=0
68058 On ch=1 n=b4 v=74
68066 On ch=1 n=c#6 v=94
68068 On ch=1 n=c#5 v=67
68112 On ch=1 n=c#5 v=0
68136 On ch=1 n=b4 v=0
68156 On ch=1 n=d#6 v=97
68162 On ch=1 n=c#6 v=0
68274 On ch=1 n=d#6 v=0
68276 On ch=1 n=f6 v=80
68286 On ch=1 n=b4 v=66
68298 On ch=1 n=c#5 v=53
68348 On ch=1 n=c#5 v=0
68352 On ch=1 n=b4 v=0
68370 On ch=1 n=c#6 v=84
68380 On ch=1 n=f6 v=0
68464 On ch=1 n=c#6 v=0
68482 Par ch=1 c=64 v=63
68484 Par ch=1 c=64 v=127
68488 On ch=1 n=f#4 v=93
68504 On ch=1 n=f#6 v=82
68600 On ch=1 n=f#6 v=0
68612 On ch=1 n=f6 v=83
68616 On ch=1 n=f#4 v=0
68706 On ch=1 n=f6 v=0
68712 On ch=1 n=f#6 v=96
68714 On ch=1 n=c#5 v=75
68730 On ch=1 n=a4 v=49
68742 Par ch=1 c=64 v=63
68752 Par ch=1 c=64 v=0
68776 On ch=1 n=c#5 v=0
68796 On ch=1 n=a4 v=0
68806 On ch=1 n=g#6 v=103
68816 On ch=1 n=f#6 v=0
68912 On ch=1 n=g#6 v=0
68920 On ch=1 n=a6 v=89
68934 On ch=1 n=a4 v=69
68936 On ch=1 n=c#5 v=70
68978 On ch=1 n=c#5 v=0
69014 On ch=1 n=a4 v=0
69028 On ch=1 n=a6 v=0
69042 On ch=1 n=g#6 v=98
69138 On ch=1 n=g#6 v=0
69156 On ch=1 n=a6 v=88
69158 On ch=1 n=a4 v=52
69160 On ch=1 n=c#5 v=67
69254 On ch=1 n=b6 v=94
69278 On ch=1 n=a6 v=0
69290 On ch=1 n=a4 v=0
69348 Par ch=1 c=64 v=63
69348 Par ch=1 c=64 v=127
69360 On ch=1 n=f4 v=82
69368 On ch=1 n=c#7 v=109
69396 On ch=1 n=b6 v=0
69416 On ch=1 n=c#5 v=0
69490 On ch=1 n=c#7 v=0
69494 On ch=1 n=c7 v=101
69580 On ch=1 n=c7 v=0
69580 Par ch=1 c=64 v=63
69584 On ch=1 n=f4 v=0
69584 On ch=1 n=g#4 v=74
69586 Par ch=1 c=64 v=0
69586 On ch=1 n=c#7 v=101
69588 On ch=1 n=c#5 v=74
69634 On ch=1 n=g#4 v=0
69640 On ch=1 n=c#5 v=0
69700 On ch=1 n=c#7 v=0
69700 On ch=1 n=c7 v=90
69804 On ch=1 n=c#7 v=107
69808 On ch=1 n=c#5 v=86
69808 On ch=1 n=g#4 v=89
69818 On ch=1 n=c7 v=0
69848 On ch=1 n=g#4 v=0
69852 On ch=1 n=c#5 v=0
69908 On ch=1 n=c#7 v=0
69910 On ch=1 n=d7 v=90
70018 On ch=1 n=c#7 v=94
70042 On ch=1 n=d7 v=0
70046 On ch=1 n=g#4 v=86
70048 On ch=1 n=c#5 v=76
70084 On ch=1 n=g#4 v=0
70086 On ch=1 n=c#5 v=0
70122 On ch=1 n=b6 v=90
70166 On ch=1 n=c#7 v=0
70228 On ch=1 n=a6 v=87
70230 On ch=1 n=b6 v=0
70240 On ch=1 n=f#4 v=110
70286 Par ch=1 c=64 v=63
70288 Par ch=1 c=64 v=127
70330 On ch=1 n=a6 v=0
70346 On ch=1 n=b6 v=74
70436 On ch=1 n=f#4 v=0
70468 On ch=1 n=c#5 v=74
70472 On ch=1 n=a6 v=80
70474 On ch=1 n=a4 v=57
70488 On ch=1 n=b6 v=0
70520 On ch=1 n=c#5 v=0
70532 On ch=1 n=a4 v=0
70564 Par ch=1 c=64 v=63
70570 Par ch=1 c=64 v=0
70574 On ch=1 n=g#6 v=74
70582 On ch=1 n=a6 v=0
70670 On ch=1 n=g#6 v=0
70676 On ch=1 n=a4 v=79
70676 On ch=1 n=f#6 v=86
70682 On ch=1 n=c#5 v=75
70724 On ch=1 n=c#5 v=0
70730 On ch=1 n=a4 v=0
70752 On ch=1 n=f#6 v=0
70792 On ch=1 n=a6 v=74
70882 On ch=1 n=g#6 v=89
70896 On ch=1 n=c#5 v=87
70902 On ch=1 n=a4 v=63
70904 On ch=1 n=a6 v=0
70938 On ch=1 n=c#5 v=0
70946 On ch=1 n=a4 v=0
70998 On ch=1 n=f#6 v=88
71030 On ch=1 n=g#6 v=0
71094 On ch=1 n=f#6 v=0
71104 On ch=1 n=e6 v=82
71110 On ch=1 n=g#4 v=110
71160 Par ch=1 c=64 v=63
71162 Par ch=1 c=64 v=127
71218 On ch=1 n=f#6 v=75
71222 On ch=1 n=e6 v=0
71324 On ch=1 n=g#4 v=0
71328 On ch=1 n=e5 v=88
71328 On ch=1 n=c#5 v=96
71330 On ch=1 n=g#6 v=95
71352 On ch=1 n=f#6 v=0
71374 On ch=1 n=e5 v=0
71378 On ch=1 n=c#5 v=0
71384 Par ch=1 c=64 v=63
71392 Par ch=1 c=64 v=0
71430 On ch=1 n=g#6 v=0
71444 On ch=1 n=e6 v=54
71544 On ch=1 n=e5 v=81
71550 On ch=1 n=e6 v=0
71556 On ch=1 n=c#5 v=80
71556 On ch=1 n=c#6 v=99
71588 On ch=1 n=c#5 v=0
71588 On ch=1 n=e5 v=0
71658 On ch=1 n=d#6 v=80
71680 On ch=1 n=c#6 v=0
71766 On ch=1 n=e6 v=85
71772 On ch=1 n=d#6 v=0
71772 On ch=1 n=c#5 v=96
71786 On ch=1 n=e5 v=45
71812 On ch=1 n=c#5 v=0
71834 On ch=1 n=e5 v=0
71880 On ch=1 n=c#6 v=84
71894 On ch=1 n=e6 v=0
71976 On ch=1 n=d#6 v=88
71982 On ch=1 n=g#4 v=113
71996 Par ch=1 c=64 v=63
71996 Par ch=1 c=64 v=127
72006 On ch=1 n=c#6 v=0
72086 On ch=1 n=e6 v=68
72100 On ch=1 n=g#4 v=0
72194 On ch=1 n=d#5 v=95
72198 On ch=1 n=f#5 v=92
72212 On ch=1 n=d#6 v=0
72230 On ch=1 n=f#6 v=87
72240 On ch=1 n=e6 v=0
72254 On ch=1 n=f#5 v=0
72254 On ch=1 n=d#5 v=0
72300 Par ch=1 c=64 v=63
72302 Par ch=1 c=64 v=0
72320 On ch=1 n=d#6 v=99
72332 On ch=1 n=f#6 v=0
72424 On ch=1 n=f#5 v=89
72434 On ch=1 n=d#6 v=0
72434 On ch=1 n=d#5 v=80
72450 On ch=1 n=c6 v=77
72468 On ch=1 n=d#5 v=0
72470 On ch=1 n=f#5 v=0
72538 On ch=1 n=c#6 v=91
72546 On ch=1 n=c6 v=0
72628 On ch=1 n=c#6 v=0
72636 On ch=1 n=f#5 v=95
72652 On ch=1 n=d#6 v=98
72664 On ch=1 n=d#5 v=69
72704 On ch=1 n=d#5 v=0
72718 On ch=1 n=f#5 v=0
72740 On ch=1 n=d#6 v=0
72756 On ch=1 n=c6 v=75
72840 On ch=1 n=c6 v=0
72872 On ch=1 n=c#6 v=106
72874 Par ch=1 c=64 v=63
72876 Par ch=1 c=64 v=127
72898 On ch=1 n=e5 v=76
72902 On ch=1 n=c#5 v=88
72932 On ch=1 n=c#6 v=0
72990 On ch=1 n=c#5 v=0
73008 On ch=1 n=e5 v=0
73344 Par ch=1 c=64 v=63
73350 Par ch=1 c=64 v=0
73376 On ch=1 n=e6 v=120
73472 On ch=1 n=d6 v=98
73530 On ch=1 n=e6 v=0
73578 On ch=1 n=c#6 v=101
73616 On ch=1 n=d6 v=0
73674 On ch=1 n=b5 v=102
73732 On ch=1 n=c#6 v=0
73774 On ch=1 n=b5 v=0
73774 On ch=1 n=a4 v=118
73776 Par ch=1 c=64 v=127
73784 On ch=1 n=a5 v=98
73876 On ch=1 n=a5 v=0
73894 On ch=1 n=b5 v=91
73994 On ch=1 n=c#6 v=104
74016 On ch=1 n=b5 v=0
74016 On ch=1 n=c#5 v=75
74016 On ch=1 n=e5 v=69
74030 On ch=1 n=a4 v=0
74056 On ch=1 n=c#5 v=0
74060 On ch=1 n=e5 v=0
74078 On ch=1 n=c#6 v=0
74104 Par ch=1 c=64 v=63
74104 On ch=1 n=d6 v=94
74108 Par ch=1 c=64 v=0
74204 On ch=1 n=e6 v=98
74206 On ch=1 n=d6 v=0
74216 On ch=1 n=c#5 v=87
74224 On ch=1 n=e5 v=60
74250 On ch=1 n=c#5 v=0
74268 On ch=1 n=e5 v=0
74298 On ch=1 n=f#6 v=103
74336 On ch=1 n=e6 v=0
74410 On ch=1 n=g#6 v=89
74446 On ch=1 n=c#5 v=87
74452 On ch=1 n=e5 v=60
74484 On ch=1 n=f#6 v=0
74492 On ch=1 n=c#5 v=0
74512 On ch=1 n=e5 v=0
74520 On ch=1 n=a6 v=91
74572 On ch=1 n=g#6 v=0
74596 On ch=1 n=a6 v=0
74638 On ch=1 n=b4 v=118
74648 On ch=1 n=a6 v=101
74648 Par ch=1 c=64 v=127
74750 On ch=1 n=g#6 v=95
74754 On ch=1 n=b4 v=0
74774 On ch=1 n=a6 v=0
74850 On ch=1 n=f#6 v=96
74872 On ch=1 n=d5 v=73
74878 On ch=1 n=e5 v=50
74906 On ch=1 n=g#6 v=0
74944 On ch=1 n=e6 v=87
74948 On ch=1 n=e5 v=0
74948 On ch=1 n=d5 v=0
74956 On ch=1 n=f#6 v=0
74984 Par ch=1 c=64 v=63
74994 Par ch=1 c=64 v=0
75016 On ch=1 n=e6 v=0
75052 On ch=1 n=g#4 v=113
75082 On ch=1 n=e6 v=98
75084 Par ch=1 c=64 v=63
75094 Par ch=1 c=64 v=127
75184 On ch=1 n=d6 v=82
75186 On ch=1 n=g#4 v=0
75224 On ch=1 n=e6 v=0
75276 On ch=1 n=e5 v=76
75278 On ch=1 n=c#6 v=88
75278 On ch=1 n=d5 v=80
75292 On ch=1 n=d6 v=0
75326 On ch=1 n=d5 v=0
75342 On ch=1 n=e5 v=0
75344 Par ch=1 c=64 v=63
75352 Par ch=1 c=64 v=0
75392 On ch=1 n=b5 v=91
75422 On ch=1 n=c#6 v=0
75486 On ch=1 n=a5 v=86
75490 On ch=1 n=a4 v=116
75492 On ch=1 n=b5 v=0
75492 Par ch=1 c=64 v=63
75498 Par ch=1 c=64 v=127
75584 On ch=1 n=a5 v=0
75586 On ch=1 n=b5 v=89
75644 On ch=1 n=a4 v=0
75686 On ch=1 n=c#6 v=96
75706 On ch=1 n=b5 v=0
75712 On ch=1 n=c#5 v=96
75722 On ch=1 n=e5 v=60
75756 On ch=1 n=c#5 v=0
75770 On ch=1 n=e5 v=0
75780 On ch=1 n=c#6 v=0
75798 On ch=1 n=d6 v=81
75890 Par ch=1 c=64 v=63
75896 On ch=1 n=e6 v=97
75900 Par ch=1 c=64 v=0
75906 On ch=1 n=d6 v=0
75916 On ch=1 n=e5 v=84
75918 On ch=1 n=c#5 v=97
75974 On ch=1 n=e5 v=0
75992 On ch=1 n=c#5 v=0
76006 On ch=1 n=f#6 v=104
76038 On ch=1 n=e6 v=0
76112 On ch=1 n=e5 v=89
76114 On ch=1 n=g#6 v=98
76120 On ch=1 n=c#5 v=88
76152 On ch=1 n=f#6 v=0
76158 On ch=1 n=c#5 v=0
76182 On ch=1 n=e5 v=0
76226 On ch=1 n=g#6 v=0
76228 On ch=1 n=a6 v=89
76320 On ch=1 n=a6 v=0
76344 On ch=1 n=e4 v=114
76346 On ch=1 n=a#6 v=116
76370 Par ch=1 c=64 v=63
76372 Par ch=1 c=64 v=127
76580 On ch=1 n=a#6 v=0
76584 On ch=1 n=d5 v=75
76586 On ch=1 n=b6 v=98
76588 On ch=1 n=g#4 v=72
76610 On ch=1 n=e4 v=0
76640 On ch=1 n=d5 v=0
76654 On ch=1 n=g#4 v=0
76676 On ch=1 n=b6 v=0
76768 Par ch=1 c=64 v=63
76776 Par ch=1 c=64 v=0
76798 On ch=1 n=d5 v=81
76802 On ch=1 n=g#4 v=82
76820 On ch=1 n=e6 v=100
76856 On ch=1 n=d5 v=0
76868 On ch=1 n=g#4 v=0
76920 On ch=1 n=d6 v=89
76968 On ch=1 n=e6 v=0
77024 On ch=1 n=c#6 v=91
77034 On ch=1 n=g#4 v=83
77042 On ch=1 n=d6 v=0
77052 On ch=1 n=d5 v=47
77074 On ch=1 n=g#4 v=0
77100 On ch=1 n=d5 v=0
77126 On ch=1 n=b5 v=94
77190 On ch=1 n=c#6 v=0
77230 On ch=1 n=b5 v=0
77242 On ch=1 n=a5 v=91
77252 On ch=1 n=a4 v=118
77268 Par ch=1 c=64 v=63
77270 Par ch=1 c=64 v=127
77344 On ch=1 n=b5 v=88
77348 On ch=1 n=a5 v=0
77456 On ch=1 n=c#6 v=97
77470 On ch=1 n=a4 v=0
77478 On ch=1 n=b5 v=0
77480 On ch=1 n=c#5 v=76
77482 On ch=1 n=e5 v=67
77534 On ch=1 n=c#5 v=0
77538 On ch=1 n=e5 v=0
77550 On ch=1 n=c#6 v=0
77568 On ch=1 n=d6 v=88
77608 Par ch=1 c=64 v=63
77616 Par ch=1 c=64 v=0
77662 On ch=1 n=e6 v=94
77676 On ch=1 n=d6 v=0
77684 On ch=1 n=c#5 v=96
77696 On ch=1 n=e5 v=60
77742 On ch=1 n=e5 v=0
77742 On ch=1 n=c#5 v=0
77768 On ch=1 n=f#6 v=99
77810 On ch=1 n=e6 v=0
77884 On ch=1 n=g#6 v=87
77904 On ch=1 n=c#5 v=80
77920 On ch=1 n=e5 v=46
77952 On ch=1 n=f#6 v=0
77956 On ch=1 n=c#5 v=0
77982 On ch=1 n=e5 v=0
77988 On ch=1 n=a6 v=88
78038 On ch=1 n=g#6 v=0
78068 On ch=1 n=a6 v=0
78102 On ch=1 n=b4 v=109
78116 On ch=1 n=a6 v=101
78132 Par ch=1 c=64 v=63
78136 Par ch=1 c=64 v=127
78202 On ch=1 n=b4 v=0
78212 On ch=1 n=g#6 v=95
78238 On ch=1 n=a6 v=0
78272 Par ch=1 c=64 v=63
78278 Par ch=1 c=64 v=0
78316 On ch=1 n=f#6 v=95
78334 On ch=1 n=d5 v=71
78334 On ch=1 n=e5 v=52
78370 On ch=1 n=g#6 v=0
78400 On ch=1 n=d5 v=0
78408 On ch=1 n=e6 v=84
78412 On ch=1 n=e5 v=0
78422 On ch=1 n=f#6 v=0
78488 On ch=1 n=e6 v=0
78500 Par ch=1 c=64 v=63
78502 Par ch=1 c=64 v=127
78518 On ch=1 n=g#4 v=105
78540 On ch=1 n=e6 v=92
78632 On ch=1 n=d6 v=92
78650 On ch=1 n=g#4 v=0
78662 On ch=1 n=e6 v=0
78738 On ch=1 n=e5 v=31
78748 On ch=1 n=c#6 v=69
78752 On ch=1 n=d6 v=0
78784 On ch=1 n=e5 v=0
78816 On ch=1 n=c#6 v=0
78818 On ch=1 n=b5 v=73
78902 Par ch=1 c=64 v=63
78912 Par ch=1 c=64 v=0
78934 On ch=1 n=b5 v=0
78936 On ch=1 n=a4 v=103
78940 On ch=1 n=c#6 v=96
79008 On ch=1 n=a4 v=0
79050 On ch=1 n=e6 v=85
79060 On ch=1 n=c#6 v=0
79144 On ch=1 n=e6 v=0
79146 On ch=1 n=a5 v=68
79150 On ch=1 n=f#4 v=98
79222 On ch=1 n=f#4 v=0
79228 On ch=1 n=c#6 v=89
79252 On ch=1 n=a5 v=0
79354 On ch=1 n=b5 v=85
79356 On ch=1 n=d4 v=100
79358 On ch=1 n=c#6 v=0
79432 On ch=1 n=d6 v=58
79440 On ch=1 n=d4 v=0
79486 On ch=1 n=b5 v=0
79548 On ch=1 n=g#5 v=86
79556 On ch=1 n=d6 v=0
79556 On ch=1 n=e4 v=89
79602 On ch=1 n=e4 v=0
79644 On ch=1 n=g#5 v=0
79652 On ch=1 n=b5 v=64
79788 On ch=1 n=b5 v=0
79798 On ch=1 n=a3 v=88
79810 On ch=1 n=a5 v=81
79828 Par ch=1 c=64 v=63
79830 Par ch=1 c=64 v=127
79870 On ch=1 n=a5 v=0
79892 On ch=1 n=a3 v=0
80048 On ch=1 n=a4 v=69
80106 On ch=1 n=a4 v=0
80302 Par ch=1 c=64 v=63
80354 On ch=1 n=c#7 v=88
80374 Par ch=1 c=64 v=0
80452 On ch=1 n=c#7 v=0
80472 On ch=1 n=d7 v=72
80566 On ch=1 n=c#7 v=80
80600 On ch=1 n=d7 v=0
80680 On ch=1 n=b6 v=68
80716 On ch=1 n=c#7 v=0
80774 On ch=1 n=a6 v=70
80774 Par ch=1 c=64 v=63
80780 On ch=1 n=b6 v=0
80796 On ch=1 n=f#4 v=57
80822 Par ch=1 c=64 v=127
80876 On ch=1 n=a6 v=0
80916 On ch=1 n=b6 v=52
80986 On ch=1 n=f#4 v=0
81024 On ch=1 n=a6 v=67
81038 On ch=1 n=b6 v=0
81042 On ch=1 n=a4 v=38
81048 On ch=1 n=c#5 v=47
81096 On ch=1 n=c#5 v=0
81108 On ch=1 n=a4 v=0
81114 On ch=1 n=g#6 v=86
81130 On ch=1 n=a6 v=0
81222 On ch=1 n=g#6 v=0
81230 On ch=1 n=f#6 v=83
81234 On ch=1 n=a4 v=59
81250 On ch=1 n=c#5 v=55
81280 Par ch=1 c=64 v=63
81290 On ch=1 n=c#5 v=0
81296 On ch=1 n=a4 v=0
81324 On ch=1 n=f#6 v=0
81330 Par ch=1 c=64 v=0
81348 On ch=1 n=a6 v=57
81440 On ch=1 n=g#6 v=76
81462 On ch=1 n=a4 v=55
81470 On ch=1 n=c#5 v=52
81474 On ch=1 n=a6 v=0
81524 On ch=1 n=c#5 v=0
81530 On ch=1 n=a4 v=0
81540 On ch=1 n=f#6 v=82
81580 On ch=1 n=g#6 v=0
81618 Par ch=1 c=64 v=63
81642 Par ch=1 c=64 v=127
81650 On ch=1 n=f#6 v=0
81652 On ch=1 n=f6 v=71
81668 On ch=1 n=g#4 v=88
81770 On ch=1 n=f#6 v=76
81778 On ch=1 n=g#4 v=0
81778 On ch=1 n=f6 v=0
81864 On ch=1 n=g#6 v=89
81882 On ch=1 n=c#5 v=67
81884 On ch=1 n=b4 v=60
81906 On ch=1 n=f#6 v=0
81940 On ch=1 n=c#5 v=0
81942 On ch=1 n=b4 v=0
81956 Par ch=1 c=64 v=63
81992 On ch=1 n=f6 v=82
81996 On ch=1 n=g#6 v=0
82002 Par ch=1 c=64 v=0
82084 On ch=1 n=f6 v=0
82098 On ch=1 n=c#6 v=93
82100 On ch=1 n=b4 v=66
82112 On ch=1 n=c#5 v=60
82152 On ch=1 n=c#5 v=0
82174 On ch=1 n=b4 v=0
82202 On ch=1 n=d#6 v=87
82204 On ch=1 n=c#6 v=0
82312 On ch=1 n=f6 v=68
82316 On ch=1 n=d#6 v=0
82322 On ch=1 n=b4 v=54
82326 On ch=1 n=c#5 v=58
82386 On ch=1 n=b4 v=0
82396 On ch=1 n=c#5 v=0
82402 On ch=1 n=c#6 v=81
82414 Par ch=1 c=64 v=63
82416 On ch=1 n=f6 v=0
82492 On ch=1 n=c#6 v=0
82516 On ch=1 n=f#4 v=97
82518 Par ch=1 c=64 v=127
82530 On ch=1 n=f#6 v=82
82628 On ch=1 n=f#6 v=0
82640 On ch=1 n=f6 v=79
82646 On ch=1 n=f#4 v=0
82738 On ch=1 n=f6 v=0
82746 On ch=1 n=f#6 v=90
82748 On ch=1 n=c#5 v=75
82762 On ch=1 n=a4 v=50
82792 Par ch=1 c=64 v=63
82812 On ch=1 n=c#5 v=0
82812 Par ch=1 c=64 v=0
82826 On ch=1 n=a4 v=0
82840 On ch=1 n=g#6 v=95
82852 On ch=1 n=f#6 v=0
82946 On ch=1 n=a6 v=82
82948 On ch=1 n=g#6 v=0
82966 On ch=1 n=a4 v=72
82974 On ch=1 n=c#5 v=71
83014 On ch=1 n=c#5 v=0
83044 On ch=1 n=a4 v=0
83056 On ch=1 n=a6 v=0
83064 On ch=1 n=g#6 v=98
83160 On ch=1 n=g#6 v=0
83176 On ch=1 n=a4 v=67
83180 On ch=1 n=a6 v=89
83188 On ch=1 n=c#5 v=63
83250 On ch=1 n=a4 v=0
83284 On ch=1 n=b6 v=89
83308 On ch=1 n=a6 v=0
83350 On ch=1 n=c#5 v=0
83396 On ch=1 n=c#7 v=96
83398 Par ch=1 c=64 v=63
83400 Par ch=1 c=64 v=127
83402 On ch=1 n=c#4 v=93
83408 On ch=1 n=b6 v=0
83496 On ch=1 n=c#4 v=0
83516 On ch=1 n=c#7 v=0
83526 On ch=1 n=c7 v=93
83610 On ch=1 n=c7 v=0
83614 On ch=1 n=c#5 v=71
83616 On ch=1 n=g#4 v=80
83622 On ch=1 n=c#7 v=98
83650 Par ch=1 c=64 v=63
83654 On ch=1 n=c#5 v=0
83658 On ch=1 n=g#4 v=0
83660 Par ch=1 c=64 v=0
83738 On ch=1 n=c#7 v=0
83738 On ch=1 n=c7 v=94
83828 On ch=1 n=c7 v=0
83832 On ch=1 n=c#7 v=99
83836 On ch=1 n=g4 v=71
83852 On ch=1 n=c#5 v=67
83884 On ch=1 n=c#5 v=0
83900 On ch=1 n=g4 v=0
83938 On ch=1 n=c7 v=96
83952 On ch=1 n=c#7 v=0
84042 On ch=1 n=c7 v=0
84048 On ch=1 n=c#7 v=103
84052 On ch=1 n=f#4 v=98
84056 On ch=1 n=c#5 v=88
84090 On ch=1 n=c#5 v=0
84090 On ch=1 n=f#4 v=0
84152 On ch=1 n=c#7 v=0
84154 On ch=1 n=a#6 v=101
84230 On ch=1 n=a#6 v=0
84270 On ch=1 n=b3 v=104
84288 On ch=1 n=d7 v=109
84296 Par ch=1 c=64 v=63
84298 Par ch=1 c=64 v=127
84342 On ch=1 n=b3 v=0
84388 On ch=1 n=c#7 v=99
84398 On ch=1 n=d7 v=0
84494 On ch=1 n=d7 v=101
84494 On ch=1 n=b4 v=80
84498 On ch=1 n=c#7 v=0
84500 On ch=1 n=f#4 v=95
84540 On ch=1 n=f#4 v=0
84542 On ch=1 n=b4 v=0
84582 Par ch=1 c=64 v=63
84588 Par ch=1 c=64 v=0
84598 On ch=1 n=c#7 v=109
84624 On ch=1 n=d7 v=0
84704 On ch=1 n=d7 v=96
84714 On ch=1 n=c#7 v=0
84724 On ch=1 n=b4 v=76
84726 On ch=1 n=f#4 v=87
84766 On ch=1 n=f#4 v=0
84768 On ch=1 n=b4 v=0
84816 On ch=1 n=c#7 v=109
84840 On ch=1 n=d7 v=0
84914 On ch=1 n=d7 v=97
84936 On ch=1 n=c#7 v=0
84938 On ch=1 n=f#4 v=98
84940 On ch=1 n=b4 v=80
84986 On ch=1 n=b4 v=0
85004 On ch=1 n=f#4 v=0
85036 On ch=1 n=c#7 v=108
85072 On ch=1 n=d7 v=0
85126 On ch=1 n=b3 v=113
85128 Par ch=1 c=64 v=63
85128 Par ch=1 c=64 v=127
85138 On ch=1 n=d7 v=96
85162 On ch=1 n=c#7 v=0
85202 On ch=1 n=b3 v=0
85260 On ch=1 n=c#7 v=107
85296 On ch=1 n=d7 v=0
85352 On ch=1 n=b4 v=70
85352 On ch=1 n=g#4 v=89
85360 On ch=1 n=b6 v=94
85388 On ch=1 n=g#4 v=0
85394 On ch=1 n=b4 v=0
85398 On ch=1 n=c#7 v=0
85446 Par ch=1 c=64 v=63
85454 Par ch=1 c=64 v=0
85460 On ch=1 n=a6 v=85
85464 On ch=1 n=b6 v=0
85536 On ch=1 n=a6 v=0
85570 On ch=1 n=b4 v=79
85570 On ch=1 n=g#6 v=105
85576 On ch=1 n=g#4 v=84
85620 On ch=1 n=g#4 v=0
85622 On ch=1 n=b4 v=0
85664 On ch=1 n=a6 v=89
85684 On ch=1 n=g#6 v=0
85778 On ch=1 n=b6 v=84
85792 On ch=1 n=b4 v=76
85794 On ch=1 n=g#4 v=86
85810 On ch=1 n=a6 v=0
85848 On ch=1 n=b4 v=0
85862 On ch=1 n=g#4 v=0
85888 On ch=1 n=g#6 v=98
85906 On ch=1 n=b6 v=0
85970 Par ch=1 c=64 v=63
85970 Par ch=1 c=64 v=127
85974 On ch=1 n=c#4 v=114
85978 On ch=1 n=a6 v=91
86018 On ch=1 n=g#6 v=0
86072 On ch=1 n=b6 v=80
86100 On ch=1 n=a6 v=0
86102 On ch=1 n=c#4 v=0
86138 Par ch=1 c=64 v=63
86146 Par ch=1 c=64 v=0
86194 On ch=1 n=c#7 v=95
86196 On ch=1 n=a4 v=76
86202 On ch=1 n=f#4 v=91
86206 On ch=1 n=b6 v=0
86244 On ch=1 n=f#4 v=0
86254 On ch=1 n=a4 v=0
86278 On ch=1 n=f#6 v=106
86280 On ch=1 n=c#7 v=0
86372 On ch=1 n=f#6 v=0
86400 On ch=1 n=f6 v=94
86404 On ch=1 n=c#4 v=108
86488 On ch=1 n=c#4 v=0
86494 On ch=1 n=f6 v=0
86510 On ch=1 n=f#6 v=89
86606 On ch=1 n=b4 v=87
86612 On ch=1 n=g#4 v=94
86612 On ch=1 n=g#6 v=101
86630 On ch=1 n=f#6 v=0
86660 On ch=1 n=b4 v=0
86662 On ch=1 n=g#4 v=0
86730 On ch=1 n=g#6 v=0
86738 On ch=1 n=f6 v=78
86826 On ch=1 n=f6 v=0
86856 On ch=1 n=f#6 v=112
86858 On ch=1 n=a4 v=93
86872 On ch=1 n=f#4 v=101
86900 Par ch=1 c=64 v=63
86900 Par ch=1 c=64 v=127
86906 On ch=1 n=f#4 v=0
86924 On ch=1 n=f#6 v=0
86932 On ch=1 n=a4 v=0
87276 Par ch=1 c=64 v=63
87282 Par ch=1 c=64 v=0
87334 On ch=1 n=e6 v=116
87440 On ch=1 n=d6 v=98
87498 On ch=1 n=e6 v=0
87542 On ch=1 n=c#6 v=100
87586 On ch=1 n=d6 v=0
87656 On ch=1 n=b5 v=94
87706 On ch=1 n=c#6 v=0
87750 On ch=1 n=b5 v=0
87754 On ch=1 n=a4 v=114
87760 On ch=1 n=a5 v=91
87776 Par ch=1 c=64 v=63
87778 Par ch=1 c=64 v=127
87860 On ch=1 n=a5 v=0
87880 On ch=1 n=b5 v=87
87968 On ch=1 n=c#6 v=99
87990 On ch=1 n=b5 v=0
87990 On ch=1 n=a4 v=0
87996 On ch=1 n=c#5 v=76
88004 On ch=1 n=e5 v=65
88046 On ch=1 n=c#5 v=0
88050 On ch=1 n=e5 v=0
88052 On ch=1 n=c#6 v=0
88052 Par ch=1 c=64 v=63
88060 Par ch=1 c=64 v=0
88080 On ch=1 n=d6 v=92
88178 On ch=1 n=d6 v=0
88182 On ch=1 n=e6 v=96
88206 On ch=1 n=c#5 v=94
88220 On ch=1 n=e5 v=62
88256 On ch=1 n=c#5 v=0
88266 On ch=1 n=e5 v=0
88284 On ch=1 n=f#6 v=99
88332 On ch=1 n=e6 v=0
88396 On ch=1 n=g#6 v=94
88442 On ch=1 n=c#5 v=98
88446 On ch=1 n=e5 v=71
88474 On ch=1 n=f#6 v=0
88490 On ch=1 n=c#5 v=0
88500 On ch=1 n=a6 v=88
88502 On ch=1 n=e5 v=0
88558 On ch=1 n=g#6 v=0
88588 On ch=1 n=a6 v=0
88638 On ch=1 n=b4 v=120
88648 On ch=1 n=a6 v=97
88664 Par ch=1 c=64 v=63
88670 Par ch=1 c=64 v=127
88744 On ch=1 n=g#6 v=88
88770 On ch=1 n=a6 v=0
88770 On ch=1 n=b4 v=0
88856 On ch=1 n=f#6 v=92
88882 On ch=1 n=d5 v=64
88914 On ch=1 n=g#6 v=0
88952 On ch=1 n=e6 v=82
88960 On ch=1 n=d5 v=0
88970 On ch=1 n=f#6 v=0
89028 On ch=1 n=e6 v=0
89052 Par ch=1 c=64 v=63
89062 Par ch=1 c=64 v=0
89072 On ch=1 n=g#4 v=112
89090 On ch=1 n=e6 v=92
89198 On ch=1 n=d6 v=81
89232 On ch=1 n=e6 v=0
89240 On ch=1 n=g#4 v=0
89286 On ch=1 n=d5 v=73
89292 On ch=1 n=c#6 v=88
89302 On ch=1 n=e5 v=63
89316 On ch=1 n=d6 v=0
89378 On ch=1 n=d5 v=0
89396 On ch=1 n=e5 v=0
89400 On ch=1 n=b5 v=90
89450 On ch=1 n=c#6 v=0
89480 On ch=1 n=b5 v=0
89496 On ch=1 n=a5 v=88
89498 On ch=1 n=a4 v=113
89514 Par ch=1 c=64 v=63
89520 Par ch=1 c=64 v=127
89598 On ch=1 n=b5 v=87
89600 On ch=1 n=a5 v=0
89660 On ch=1 n=a4 v=0
89706 On ch=1 n=c#6 v=96
89720 On ch=1 n=c#5 v=78
89726 On ch=1 n=b5 v=0
89744 On ch=1 n=e5 v=29
89764 On ch=1 n=c#5 v=0
89790 On ch=1 n=c#6 v=0
89792 On ch=1 n=e5 v=0
89820 On ch=1 n=d6 v=87
89894 Par ch=1 c=64 v=63
89902 Par ch=1 c=64 v=0
89918 On ch=1 n=d6 v=0
89924 On ch=1 n=e6 v=98
89936 On ch=1 n=c#5 v=96
89938 On ch=1 n=e5 v=78
89986 On ch=1 n=e5 v=0
90010 On ch=1 n=c#5 v=0
90036 On ch=1 n=f#6 v=101
90062 On ch=1 n=e6 v=0
90148 On ch=1 n=g#6 v=97
90152 On ch=1 n=e5 v=74
90182 On ch=1 n=f#6 v=0
90228 On ch=1 n=e5 v=0
90262 On ch=1 n=a6 v=89
90266 On ch=1 n=g#6 v=0
90354 On ch=1 n=a6 v=0
90364 On ch=1 n=e4 v=112
90384 On ch=1 n=a#6 v=109
90386 Par ch=1 c=64 v=63
90394 Par ch=1 c=64 v=127
90568 On ch=1 n=a#6 v=0
90598 On ch=1 n=g#4 v=80
90600 On ch=1 n=d5 v=80
90604 On ch=1 n=e4 v=0
90606 On ch=1 n=b6 v=85
90658 On ch=1 n=d5 v=0
90666 On ch=1 n=g#4 v=0
90672 On ch=1 n=b6 v=0
90816 Par ch=1 c=64 v=63
90822 On ch=1 n=g#4 v=90
90824 On ch=1 n=d5 v=81
90828 Par ch=1 c=64 v=0
90834 On ch=1 n=e6 v=104
90872 On ch=1 n=d5 v=0
90894 On ch=1 n=g#4 v=0
90926 On ch=1 n=d6 v=94
90974 On ch=1 n=e6 v=0
91032 On ch=1 n=c#6 v=88
91044 On ch=1 n=g#4 v=85
91056 On ch=1 n=d5 v=64
91060 On ch=1 n=d6 v=0
91090 On ch=1 n=g#4 v=0
91102 On ch=1 n=d5 v=0
91128 On ch=1 n=b5 v=91
91188 On ch=1 n=c#6 v=0
91216 On ch=1 n=b5 v=0
91238 On ch=1 n=a5 v=86
91252 On ch=1 n=a4 v=114
91306 Par ch=1 c=64 v=63
91314 Par ch=1 c=64 v=127
91340 On ch=1 n=a5 v=0
91350 On ch=1 n=b5 v=77
91448 On ch=1 n=c#6 v=95
91464 On ch=1 n=c#5 v=88
91466 On ch=1 n=a4 v=0
91472 On ch=1 n=b5 v=0
91478 On ch=1 n=e5 v=63
91518 Par ch=1 c=64 v=63
91526 On ch=1 n=e5 v=0
91528 Par ch=1 c=64 v=0
91534 On ch=1 n=c#6 v=0
91544 On ch=1 n=c#5 v=0
91568 On ch=1 n=d6 v=86
91670 On ch=1 n=d6 v=0
91676 On ch=1 n=c#5 v=97
91678 On ch=1 n=e6 v=93
91682 On ch=1 n=e5 v=71
91732 On ch=1 n=e5 v=0
91738 On ch=1 n=c#5 v=0
91778 On ch=1 n=f#6 v=92
91824 On ch=1 n=e6 v=0
91882 On ch=1 n=g#6 v=88
91894 On ch=1 n=c#5 v=95
91918 On ch=1 n=e5 v=45
91962 On ch=1 n=c#5 v=0
91966 On ch=1 n=f#6 v=0
91974 On ch=1 n=e5 v=0
91978 On ch=1 n=a6 v=88
92040 On ch=1 n=g#6 v=0
92058 Par ch=1 c=64 v=63
92064 On ch=1 n=a6 v=0
92068 Par ch=1 c=64 v=127
92106 On ch=1 n=b4 v=111
92116 On ch=1 n=a6 v=101
92212 On ch=1 n=g#6 v=91
92224 On ch=1 n=b4 v=0
92242 On ch=1 n=a6 v=0
92248 Par ch=1 c=64 v=63
92262 Par ch=1 c=64 v=0
92316 On ch=1 n=f#6 v=95
92336 On ch=1 n=d5 v=71
92344 On ch=1 n=e5 v=44
92374 On ch=1 n=g#6 v=0
92404 On ch=1 n=d5 v=0
92412 On ch=1 n=e5 v=0
92412 On ch=1 n=e6 v=84
92430 On ch=1 n=f#6 v=0
92480 Par ch=1 c=64 v=63
92490 On ch=1 n=e6 v=0
92494 Par ch=1 c=64 v=127
92510 On ch=1 n=g#4 v=105
92544 On ch=1 n=e6 v=91
92640 On ch=1 n=g#4 v=0
92644 On ch=1 n=d6 v=83
92674 On ch=1 n=e6 v=0
92720 On ch=1 n=e5 v=60
92734 On ch=1 n=c#6 v=78
92738 On ch=1 n=d5 v=36
92754 On ch=1 n=d6 v=0
92790 On ch=1 n=d5 v=0
92818 On ch=1 n=e5 v=0
92830 On ch=1 n=c#6 v=0
92834 On ch=1 n=b5 v=76
92918 On ch=1 n=a4 v=104
92950 On ch=1 n=c#6 v=95
92972 On ch=1 n=b5 v=0
92994 On ch=1 n=a4 v=0
93002 Par ch=1 c=64 v=63
93012 Par ch=1 c=64 v=0
93062 On ch=1 n=e6 v=84
93084 On ch=1 n=c#6 v=0
93130 On ch=1 n=f#4 v=98
93164 On ch=1 n=e6 v=0
93168 On ch=1 n=a5 v=82
93200 On ch=1 n=f#4 v=0
93242 On ch=1 n=c#6 v=100
93274 On ch=1 n=a5 v=0
93322 On ch=1 n=d4 v=97
93360 On ch=1 n=b5 v=88
93396 On ch=1 n=c#6 v=0
93400 On ch=1 n=d4 v=0
93410 On ch=1 n=d6 v=68
93464 On ch=1 n=b5 v=0
93524 On ch=1 n=e4 v=87
93548 On ch=1 n=g#5 v=92
93558 On ch=1 n=d6 v=0
93574 On ch=1 n=e4 v=0
93654 On ch=1 n=b5 v=64
93658 On ch=1 n=g#5 v=0
93780 On ch=1 n=a3 v=76
93788 On ch=1 n=b5 v=0
93796 On ch=1 n=a5 v=84
93866 Par ch=1 c=64 v=63
93922 On ch=1 n=a5 v=0
93928 Par ch=1 c=64 v=127
93948 On ch=1 n=a3 v=0
94050 On ch=1 n=a4 v=81
94132 On ch=1 n=a4 v=0
94168 Par ch=1 c=64 v=63
94236 Par ch=1 c=64 v=0
94358 On ch=1 n=c#7 v=80
94378 Par ch=1 c=64 v=63
94422 Par ch=1 c=64 v=127
94460 On ch=1 n=d7 v=68
94462 On ch=1 n=c#7 v=0
94576 On ch=1 n=c#7 v=73
94594 On ch=1 n=d7 v=0
94678 On ch=1 n=b6 v=70
94730 On ch=1 n=c#7 v=0
94784 On ch=1 n=a6 v=58
94786 On ch=1 n=b6 v=0
94814 On ch=1 n=f#4 v=63
94868 Par ch=1 c=64 v=63
94884 On ch=1 n=a6 v=0
94904 On ch=1 n=b6 v=71
94912 Par ch=1 c=64 v=0
94932 Par ch=1 c=64 v=63
95002 Par ch=1 c=64 v=127
95026 On ch=1 n=a6 v=70
95038 On ch=1 n=b6 v=0
95040 On ch=1 n=f#4 v=0
95044 On ch=1 n=a4 v=59
95054 On ch=1 n=c#5 v=59
95104 On ch=1 n=c#5 v=0
95120 On ch=1 n=a4 v=0
95124 On ch=1 n=g#6 v=75
95138 On ch=1 n=a6 v=0
95228 On ch=1 n=f#6 v=79
95230 On ch=1 n=g#6 v=0
95252 On ch=1 n=a4 v=72
95266 On ch=1 n=c#5 v=57
95278 Par ch=1 c=64 v=63
95304 On ch=1 n=c#5 v=0
95310 On ch=1 n=a4 v=0
95312 On ch=1 n=f#6 v=0
95334 On ch=1 n=a6 v=69
95338 Par ch=1 c=64 v=0
95440 On ch=1 n=g#6 v=80
95462 On ch=1 n=a6 v=0
95474 On ch=1 n=a4 v=69
95480 On ch=1 n=c#5 v=70
95522 On ch=1 n=a4 v=0
95526 On ch=1 n=c#5 v=0
95536 On ch=1 n=f#6 v=81
95590 On ch=1 n=g#6 v=0
95668 Par ch=1 c=64 v=63
95670 On ch=1 n=f6 v=75
95676 On ch=1 n=f#6 v=0
95678 On ch=1 n=g#4 v=96
95684 Par ch=1 c=64 v=127
95792 On ch=1 n=f#6 v=72
95802 On ch=1 n=g#4 v=0
95810 On ch=1 n=f6 v=0
95892 On ch=1 n=c#5 v=76
95892 On ch=1 n=b4 v=70
95906 On ch=1 n=g#6 v=80
95944 On ch=1 n=f#6 v=0
95950 On ch=1 n=c#5 v=0
95956 On ch=1 n=b4 v=0
95998 Par ch=1 c=64 v=63
96020 On ch=1 n=f6 v=80
96030 On ch=1 n=g#6 v=0
96038 Par ch=1 c=64 v=0
96108 On ch=1 n=f6 v=0
96116 On ch=1 n=c#6 v=92
96120 On ch=1 n=b4 v=76
96124 On ch=1 n=c#5 v=74
96174 On ch=1 n=c#5 v=0
96194 On ch=1 n=b4 v=0
96220 On ch=1 n=c#6 v=0
96220 On ch=1 n=d#6 v=87
96330 On ch=1 n=f6 v=69
96342 On ch=1 n=c#5 v=75
96342 On ch=1 n=b4 v=74
96344 On ch=1 n=d#6 v=0
96392 On ch=1 n=b4 v=0
96392 On ch=1 n=c#5 v=0
96426 On ch=1 n=c#6 v=78
96440 On ch=1 n=f6 v=0
96512 On ch=1 n=c#6 v=0
96544 On ch=1 n=f#4 v=100
96552 On ch=1 n=f#6 v=81
96580 Par ch=1 c=64 v=63
96590 Par ch=1 c=64 v=127
96656 On ch=1 n=f#6 v=0
96670 On ch=1 n=f6 v=63
96690 On ch=1 n=f#4 v=0
96764 On ch=1 n=f6 v=0
96768 On ch=1 n=c#5 v=77
96770 On ch=1 n=f#6 v=91
96776 On ch=1 n=a4 v=69
96834 On ch=1 n=c#5 v=0
96854 On ch=1 n=a4 v=0
96864 On ch=1 n=g#6 v=98
96880 On ch=1 n=f#6 v=0
96890 Par ch=1 c=64 v=63
96902 Par ch=1 c=64 v=0
96962 On ch=1 n=a6 v=81
96968 On ch=1 n=g#6 v=0
96996 On ch=1 n=a4 v=70
97000 On ch=1 n=c#5 v=70
97044 On ch=1 n=c#5 v=0
97078 On ch=1 n=a4 v=0
97082 On ch=1 n=g#6 v=100
97086 On ch=1 n=a6 v=0
97184 On ch=1 n=g#6 v=0
97196 On ch=1 n=a4 v=67
97198 On ch=1 n=a6 v=87
97210 On ch=1 n=c#5 v=67
97278 On ch=1 n=a4 v=0
97302 On ch=1 n=b6 v=91
97326 On ch=1 n=a6 v=0
97386 On ch=1 n=c#5 v=0
97422 On ch=1 n=c#7 v=98
97430 On ch=1 n=c#4 v=98
97434 On ch=1 n=b6 v=0
97454 Par ch=1 c=64 v=63
97460 Par ch=1 c=64 v=127
97534 On ch=1 n=c#4 v=0
97546 On ch=1 n=c#7 v=0
97552 On ch=1 n=c7 v=94
97638 On ch=1 n=c7 v=0
97640 On ch=1 n=c#7 v=88
97644 On ch=1 n=c#5 v=76
97648 On ch=1 n=g#4 v=77
97676 Par ch=1 c=64 v=63
97686 Par ch=1 c=64 v=0
97692 On ch=1 n=c#5 v=0
97694 On ch=1 n=g#4 v=0
97754 On ch=1 n=c#7 v=0
97754 On ch=1 n=c7 v=99
97840 On ch=1 n=c7 v=0
97858 On ch=1 n=c#7 v=100
97872 On ch=1 n=g4 v=78
97882 On ch=1 n=c#5 v=65
97920 On ch=1 n=c#5 v=0
97928 On ch=1 n=g4 v=0
97958 On ch=1 n=c7 v=94
97976 On ch=1 n=c#7 v=0
98064 On ch=1 n=c7 v=0
98074 On ch=1 n=f#4 v=106
98078 On ch=1 n=c#7 v=105
98084 On ch=1 n=c#5 v=80
98118 On ch=1 n=c#5 v=0
98140 On ch=1 n=f#4 v=0
98176 On ch=1 n=a#6 v=104
98200 On ch=1 n=c#7 v=0
98286 On ch=1 n=d7 v=99
98288 On ch=1 n=b3 v=101
98294 Par ch=1 c=64 v=63
98296 Par ch=1 c=64 v=127
98298 On ch=1 n=a#6 v=0
98356 On ch=1 n=b3 v=0
98398 On ch=1 n=c#7 v=99
98416 On ch=1 n=d7 v=0
98498 On ch=1 n=b4 v=82
98504 On ch=1 n=d7 v=92
98508 On ch=1 n=f#4 v=89
98514 On ch=1 n=c#7 v=0
98540 On ch=1 n=f#4 v=0
98542 Par ch=1 c=64 v=63
98546 On ch=1 n=b4 v=0
98548 Par ch=1 c=64 v=0
98612 On ch=1 n=c#7 v=108
98628 On ch=1 n=d7 v=0
98706 On ch=1 n=d7 v=92
98714 On ch=1 n=b4 v=81
98716 On ch=1 n=f#4 v=91
98718 On ch=1 n=c#7 v=0
98758 On ch=1 n=f#4 v=0
98760 On ch=1 n=b4 v=0
98820 On ch=1 n=c#7 v=107
98850 On ch=1 n=d7 v=0
98918 On ch=1 n=d7 v=91
98930 On ch=1 n=b4 v=89
98932 On ch=1 n=f#4 v=99
98934 On ch=1 n=c#7 v=0
98986 On ch=1 n=b4 v=0
99000 On ch=1 n=f#4 v=0
99040 On ch=1 n=c#7 v=103
99076 On ch=1 n=d7 v=0
99128 On ch=1 n=b3 v=117
99136 Par ch=1 c=64 v=63
99136 On ch=1 n=d7 v=91
99138 Par ch=1 c=64 v=127
99150 On ch=1 n=c#7 v=0
99202 On ch=1 n=b3 v=0
99248 On ch=1 n=c#7 v=103
99280 On ch=1 n=d7 v=0
99342 On ch=1 n=b4 v=77
99348 On ch=1 n=g#4 v=92
99352 On ch=1 n=b6 v=96
99378 Par ch=1 c=64 v=63
99386 Par ch=1 c=64 v=0
99388 On ch=1 n=b4 v=0
99390 On ch=1 n=g#4 v=0
99396 On ch=1 n=c#7 v=0
99448 On ch=1 n=b6 v=0
99448 On ch=1 n=a6 v=97
99548 On ch=1 n=a6 v=0
99552 On ch=1 n=g#6 v=104
99566 On ch=1 n=b4 v=81
99570 On ch=1 n=g#4 v=87
99618 On ch=1 n=b4 v=0
99620 On ch=1 n=g#4 v=0
99652 On ch=1 n=a6 v=89
99680 On ch=1 n=g#6 v=0
99770 On ch=1 n=b6 v=81
99782 On ch=1 n=b4 v=79
99784 On ch=1 n=g#4 v=90
99804 On ch=1 n=a6 v=0
99838 On ch=1 n=b4 v=0
99864 On ch=1 n=g#4 v=0
99864 On ch=1 n=g#6 v=94
99892 On ch=1 n=b6 v=0
99958 On ch=1 n=c#4 v=115
99958 Par ch=1 c=64 v=63
99958 Par ch=1 c=64 v=127
99958 On ch=1 n=a6 v=91
100004 On ch=1 n=g#6 v=0
100058 On ch=1 n=b6 v=72
100070 Par ch=1 c=64 v=63
100072 On ch=1 n=c#4 v=0
100076 Par ch=1 c=64 v=0
100084 On ch=1 n=a6 v=0
100158 On ch=1 n=a4 v=76
100160 On ch=1 n=c#7 v=98
100160 On ch=1 n=f#4 v=94
100178 On ch=1 n=b6 v=0
100206 On ch=1 n=f#4 v=0
100216 On ch=1 n=a4 v=0
100248 On ch=1 n=f#6 v=100
100258 On ch=1 n=c#7 v=0
100338 On ch=1 n=f#6 v=0
100346 On ch=1 n=f6 v=97
100350 Par ch=1 c=64 v=63
100352 Par ch=1 c=64 v=127
100360 On ch=1 n=c#4 v=112
100442 On ch=1 n=f6 v=0
100450 On ch=1 n=c#4 v=0
100462 On ch=1 n=f#6 v=94
100466 Par ch=1 c=64 v=63
100476 Par ch=1 c=64 v=0
100554 On ch=1 n=b4 v=89
100564 On ch=1 n=g#6 v=108
100566 On ch=1 n=g#4 v=91
100588 On ch=1 n=f#6 v=0
100602 On ch=1 n=g#4 v=0
100608 On ch=1 n=b4 v=0
100686 On ch=1 n=g#6 v=0
100686 On ch=1 n=f6 v=98
100776 On ch=1 n=f6 v=0
100802 On ch=1 n=a4 v=107
100804 On ch=1 n=f#6 v=114
100806 On ch=1 n=f#4 v=120
100816 Par ch=1 c=64 v=127
100856 On ch=1 n=f#4 v=0
100858 On ch=1 n=a4 v=0
100888 On ch=1 n=f#6 v=0
101310 On ch=1 n=a5 v=107
101310 On ch=1 n=a6 v=106
101368 Par ch=1 c=64 v=63
101372 On ch=1 n=a5 v=0
101378 Par ch=1 c=64 v=0
101384 On ch=1 n=a6 v=0
101620 On ch=1 n=b5 v=106
101624 On ch=1 n=b6 v=96
101652 On ch=1 n=b5 v=0
101656 On ch=1 n=b6 v=0
101802 On ch=1 n=a3 v=92
101834 On ch=1 n=c#4 v=89
101914 On ch=1 n=e4 v=70
101960 Par ch=1 c=64 v=127
101968 On ch=1 n=a4 v=112
101974 On ch=1 n=c#7 v=114
101974 On ch=1 n=c#6 v=116
102128 On ch=1 n=c#7 v=0
102136 On ch=1 n=c#6 v=0
102150 On ch=1 n=a4 v=0
102222 On ch=1 n=e4 v=0
102234 On ch=1 n=c#4 v=0
102276 On ch=1 n=a4 v=84
102382 On ch=1 n=a4 v=0
102514 On ch=1 n=a3 v=0
102514 On ch=1 n=a5 v=96
102514 On ch=1 n=a6 v=101
102526 On ch=1 n=a4 v=85
102538 Par ch=1 c=64 v=63
102544 Par ch=1 c=64 v=0
102580 On ch=1 n=a5 v=0
102600 On ch=1 n=a6 v=0
102604 On ch=1 n=a4 v=0
102746 On ch=1 n=b6 v=104
102746 On ch=1 n=a4 v=83
102748 On ch=1 n=b5 v=109
102786 On ch=1 n=b5 v=0
102802 On ch=1 n=b6 v=0
102888 On ch=1 n=a3 v=88
102904 On ch=1 n=a4 v=0
102922 On ch=1 n=c#4 v=81
102966 Par ch=1 c=64 v=127
102968 On ch=1 n=e4 v=68
102990 On ch=1 n=c#7 v=118
102994 On ch=1 n=c#6 v=115
103020 On ch=1 n=a4 v=107
103042 On ch=1 n=c#6 v=0
103072 On ch=1 n=c#7 v=0
103084 On ch=1 n=a3 v=0
103138 On ch=1 n=a4 v=0
103144 On ch=1 n=e4 v=0
103150 On ch=1 n=c#4 v=0
103228 On ch=1 n=b6 v=103
103232 On ch=1 n=b5 v=101
103246 On ch=1 n=a4 v=71
103270 On ch=1 n=b5 v=0
103290 On ch=1 n=b6 v=0
103316 On ch=1 n=a4 v=0
103342 Par ch=1 c=64 v=63
103354 Par ch=1 c=64 v=0
103460 On ch=1 n=a6 v=109
103464 On ch=1 n=a5 v=100
103470 On ch=1 n=a4 v=79
103498 On ch=1 n=a5 v=0
103500 On ch=1 n=a6 v=0
103564 On ch=1 n=a4 v=0
103666 On ch=1 n=a4 v=80
103692 On ch=1 n=g#6 v=110
103696 On ch=1 n=g#5 v=104
103742 On ch=1 n=g#5 v=0
103744 On ch=1 n=a4 v=0
103764 On ch=1 n=g#6 v=0
103880 On ch=1 n=d3 v=112
103884 On ch=1 n=a3 v=101
103888 On ch=1 n=f#3 v=101
103900 Par ch=1 c=64 v=127
103908 On ch=1 n=f#6 v=115
103910 On ch=1 n=f#5 v=118
103960 On ch=1 n=f#5 v=0
103966 On ch=1 n=d3 v=0
103976 On ch=1 n=d4 v=102
103980 On ch=1 n=f#6 v=0
104004 On ch=1 n=f#3 v=0
104032 On ch=1 n=a3 v=0
104064 On ch=1 n=d4 v=0
104128 On ch=1 n=g#6 v=107
104132 On ch=1 n=g#5 v=98
104132 Par ch=1 c=64 v=63
104142 Par ch=1 c=64 v=0
104160 On ch=1 n=d4 v=80
104176 On ch=1 n=g#5 v=0
104212 On ch=1 n=g#6 v=0
104244 On ch=1 n=d4 v=0
104274 On ch=1 n=d#3 v=100
104288 On ch=1 n=f#3 v=76
104326 Par ch=1 c=64 v=63
104328 Par ch=1 c=64 v=127
104338 On ch=1 n=a3 v=76
104340 On ch=1 n=a6 v=112
104342 On ch=1 n=a5 v=98
104348 On ch=1 n=d#4 v=121
104378 On ch=1 n=a5 v=0
104398 On ch=1 n=a6 v=0
104464 On ch=1 n=d#4 v=0
104478 On ch=1 n=d#3 v=0
104484 On ch=1 n=f#3 v=0
104486 On ch=1 n=a3 v=0
104536 On ch=1 n=d#4 v=70
104542 On ch=1 n=b5 v=101
104548 On ch=1 n=b6 v=84
104576 On ch=1 n=b5 v=0
104582 On ch=1 n=d#4 v=0
104586 On ch=1 n=b6 v=0
104644 Par ch=1 c=64 v=63
104648 On ch=1 n=e3 v=89
104656 Par ch=1 c=64 v=0
104744 Par ch=1 c=64 v=63
104746 On ch=1 n=g#3 v=94
104756 On ch=1 n=b3 v=109
104758 Par ch=1 c=64 v=127
104776 On ch=1 n=e4 v=121
104778 On ch=1 n=e3 v=0
104788 On ch=1 n=g#6 v=107
104798 On ch=1 n=g#5 v=100
104844 On ch=1 n=g#5 v=0
104864 On ch=1 n=g#6 v=0
104878 On ch=1 n=g#3 v=0
104898 On ch=1 n=b3 v=0
104938 On ch=1 n=e4 v=0
105004 On ch=1 n=e5 v=100
105004 On ch=1 n=e6 v=102
105008 On ch=1 n=e4 v=85
105036 On ch=1 n=e5 v=0
105058 On ch=1 n=e6 v=0
105112 On ch=1 n=e4 v=0
105188 Par ch=1 c=64 v=63
105196 Par ch=1 c=64 v=0
105214 On ch=1 n=e4 v=92
105226 On ch=1 n=a6 v=99
105228 On ch=1 n=a5 v=94
105262 On ch=1 n=a6 v=0
105264 On ch=1 n=a5 v=0
105314 On ch=1 n=e4 v=0
105434 On ch=1 n=e4 v=84
105442 On ch=1 n=b5 v=108
105442 On ch=1 n=b6 v=109
105472 On ch=1 n=b5 v=0
105504 On ch=1 n=b6 v=0
105524 On ch=1 n=a3 v=76
105548 On ch=1 n=e4 v=0
105602 On ch=1 n=c#4 v=78
105660 On ch=1 n=e4 v=84
105686 Par ch=1 c=64 v=127
105686 On ch=1 n=c#7 v=120
105692 On ch=1 n=c#6 v=121
105696 On ch=1 n=a4 v=108
105698 On ch=1 n=a3 v=0
105738 On ch=1 n=c#6 v=0
105754 On ch=1 n=c#7 v=0
105808 On ch=1 n=a4 v=0
105814 On ch=1 n=e4 v=0
105828 On ch=1 n=c#4 v=0
105910 On ch=1 n=a4 v=79
105996 On ch=1 n=a4 v=0
106134 On ch=1 n=a6 v=106
106136 On ch=1 n=a5 v=91
106138 On ch=1 n=a4 v=86
106140 Par ch=1 c=64 v=63
106142 Par ch=1 c=64 v=0
106172 On ch=1 n=a6 v=0
106176 On ch=1 n=a5 v=0
106218 On ch=1 n=a4 v=0
106328 On ch=1 n=a4 v=80
106354 On ch=1 n=b5 v=106
106358 On ch=1 n=b6 v=92
106384 On ch=1 n=b5 v=0
106428 On ch=1 n=b6 v=0
106450 On ch=1 n=a4 v=0
106464 On ch=1 n=a3 v=86
106490 On ch=1 n=c#4 v=85
106530 On ch=1 n=e4 v=76
106542 Par ch=1 c=64 v=127
106570 On ch=1 n=a4 v=113
106572 On ch=1 n=a3 v=0
106576 On ch=1 n=c#7 v=118
106580 On ch=1 n=c#6 v=118
106628 On ch=1 n=c#6 v=0
106652 On ch=1 n=c#7 v=0
106678 On ch=1 n=c#4 v=0
106680 On ch=1 n=e4 v=0
106688 On ch=1 n=a4 v=0
106796 On ch=1 n=a4 v=76
106812 On ch=1 n=b6 v=97
106820 On ch=1 n=b5 v=69
106844 On ch=1 n=b6 v=0
106870 On ch=1 n=b5 v=0
106872 On ch=1 n=a4 v=0
106938 Par ch=1 c=64 v=63
106948 Par ch=1 c=64 v=0
107012 On ch=1 n=a6 v=108
107020 On ch=1 n=a5 v=86
107024 On ch=1 n=a4 v=75
107060 On ch=1 n=a5 v=0
107066 On ch=1 n=a6 v=0
107110 On ch=1 n=a4 v=0
107210 On ch=1 n=a4 v=84
107230 On ch=1 n=g#6 v=108
107238 On ch=1 n=g#5 v=104
107282 On ch=1 n=g#5 v=0
107284 On ch=1 n=a4 v=0
107306 On ch=1 n=g#6 v=0
107408 On ch=1 n=d3 v=106
107416 On ch=1 n=a3 v=94
107420 Par ch=1 c=64 v=127
107424 On ch=1 n=f#3 v=95
107450 On ch=1 n=f#6 v=115
107452 On ch=1 n=f#5 v=120
107498 On ch=1 n=d4 v=102
107504 On ch=1 n=f#5 v=0
107518 On ch=1 n=d3 v=0
107532 On ch=1 n=f#6 v=0
107552 On ch=1 n=f#3 v=0
107560 On ch=1 n=a3 v=0
107594 On ch=1 n=d4 v=0
107648 Par ch=1 c=64 v=63
107654 On ch=1 n=b6 v=107
107654 On ch=1 n=b5 v=100
107664 On ch=1 n=d4 v=84
107668 Par ch=1 c=64 v=0
107686 On ch=1 n=b5 v=0
107692 On ch=1 n=b6 v=0
107756 On ch=1 n=d4 v=0
107782 Par ch=1 c=64 v=63
107784 On ch=1 n=e3 v=85
107810 Par ch=1 c=64 v=127
107854 On ch=1 n=g#3 v=88
107866 On ch=1 n=g#6 v=105
107870 On ch=1 n=b3 v=94
107874 On ch=1 n=g#5 v=101
107910 On ch=1 n=g#5 v=0
107916 On ch=1 n=e4 v=102
107918 On ch=1 n=e3 v=0
107932 On ch=1 n=g#6 v=0
108012 Par ch=1 c=64 v=63
108014 On ch=1 n=e4 v=0
108018 On ch=1 n=g#3 v=0
108024 Par ch=1 c=64 v=0
108058 On ch=1 n=b3 v=0
108072 On ch=1 n=e6 v=101
108074 On ch=1 n=e5 v=107
108076 On ch=1 n=e4 v=96
108108 On ch=1 n=e5 v=0
108140 On ch=1 n=e6 v=0
108166 On ch=1 n=e4 v=0
108194 On ch=1 n=a3 v=83
108272 On ch=1 n=c#4 v=92
108292 On ch=1 n=e4 v=100
108300 On ch=1 n=a6 v=104
108302 On ch=1 n=a5 v=108
108322 On ch=1 n=a4 v=117
108328 Par ch=1 c=64 v=63
108330 Par ch=1 c=64 v=127
108336 On ch=1 n=a5 v=0
108350 On ch=1 n=a3 v=0
108360 On ch=1 n=a6 v=0
108410 On ch=1 n=c#4 v=0
108438 On ch=1 n=a4 v=0
108446 On ch=1 n=e4 v=0
108758 On ch=1 n=a6 v=108
108760 On ch=1 n=a5 v=100
108768 Par ch=1 c=64 v=63
108776 Par ch=1 c=64 v=0
108794 On ch=1 n=a5 v=0
108800 On ch=1 n=a6 v=0
108988 On ch=1 n=b6 v=107
108994 On ch=1 n=b5 v=98
109028 On ch=1 n=b5 v=0
109046 On ch=1 n=b6 v=0
109108 On ch=1 n=a3 v=76
109146 On ch=1 n=c#4 v=68
109200 On ch=1 n=e4 v=98
109218 Par ch=1 c=64 v=127
109224 On ch=1 n=a4 v=117
109234 On ch=1 n=c#7 v=116
109240 On ch=1 n=c#6 v=118
109282 On ch=1 n=c#6 v=0
109296 On ch=1 n=c#7 v=0
109334 On ch=1 n=a4 v=0
109364 On ch=1 n=a3 v=0
109366 On ch=1 n=e4 v=0
109376 On ch=1 n=c#4 v=0
109448 On ch=1 n=a4 v=76
109528 On ch=1 n=a4 v=0
109670 On ch=1 n=a6 v=104
109672 Par ch=1 c=64 v=63
109676 On ch=1 n=a5 v=86
109678 On ch=1 n=a4 v=78
109684 Par ch=1 c=64 v=0
109716 On ch=1 n=a5 v=0
109718 On ch=1 n=a6 v=0
109752 On ch=1 n=a4 v=0
109862 On ch=1 n=a4 v=76
109890 On ch=1 n=b6 v=102
109896 On ch=1 n=b5 v=85
109936 On ch=1 n=b5 v=0
109938 On ch=1 n=b6 v=0
109984 On ch=1 n=a4 v=0
110018 On ch=1 n=a3 v=84
110044 On ch=1 n=c#4 v=76
110080 On ch=1 n=e4 v=68
110116 Par ch=1 c=64 v=127
110116 On ch=1 n=c#7 v=116
110120 On ch=1 n=c#6 v=116
110126 On ch=1 n=a3 v=0
110126 On ch=1 n=a4 v=107
110168 On ch=1 n=c#6 v=0
110192 On ch=1 n=c#7 v=0
110220 On ch=1 n=c#4 v=0
110230 On ch=1 n=e4 v=0
110238 On ch=1 n=a4 v=0
110340 On ch=1 n=b6 v=99
110342 On ch=1 n=a4 v=71
110356 On ch=1 n=b5 v=70
110402 On ch=1 n=b5 v=0
110404 On ch=1 n=b6 v=0
110428 On ch=1 n=a4 v=0
110486 Par ch=1 c=64 v=63
110496 Par ch=1 c=64 v=0
110566 On ch=1 n=a6 v=106
110572 On ch=1 n=a5 v=88
110572 On ch=1 n=a4 v=75
110612 On ch=1 n=a5 v=0
110616 On ch=1 n=a6 v=0
110658 On ch=1 n=a4 v=0
110750 On ch=1 n=a4 v=77
110778 On ch=1 n=g#6 v=103
110786 On ch=1 n=g#5 v=97
110824 On ch=1 n=a4 v=0
110830 On ch=1 n=g#5 v=0
110848 On ch=1 n=g#6 v=0
110946 On ch=1 n=d3 v=113
110952 On ch=1 n=a3 v=106
110956 On ch=1 n=f#3 v=104
110962 Par ch=1 c=64 v=127
110990 On ch=1 n=f#5 v=118
110992 On ch=1 n=f#6 v=112
111014 On ch=1 n=d4 v=108
111036 On ch=1 n=d3 v=0
111044 On ch=1 n=f#5 v=0
111054 On ch=1 n=f#6 v=0
111058 On ch=1 n=f#3 v=0
111068 On ch=1 n=a3 v=0
111120 On ch=1 n=d4 v=0
111204 On ch=1 n=g#6 v=107
111206 On ch=1 n=g#5 v=99
111212 Par ch=1 c=64 v=63
111214 On ch=1 n=d4 v=65
111222 Par ch=1 c=64 v=0
111248 On ch=1 n=g#5 v=0
111268 On ch=1 n=g#6 v=0
111290 On ch=1 n=d4 v=0
111326 On ch=1 n=d#3 v=93
111358 On ch=1 n=f#3 v=75
111396 Par ch=1 c=64 v=63
111398 Par ch=1 c=64 v=127
111400 On ch=1 n=a3 v=55
111412 On ch=1 n=d#4 v=123
111420 On ch=1 n=a6 v=107
111422 On ch=1 n=a5 v=91
111456 On ch=1 n=d#3 v=0
111460 On ch=1 n=a5 v=0
111462 On ch=1 n=a6 v=0
111496 On ch=1 n=f#3 v=0
111530 On ch=1 n=d#4 v=0
111570 On ch=1 n=a3 v=0
111610 On ch=1 n=d#4 v=82
111616 On ch=1 n=b6 v=99
111622 On ch=1 n=b5 v=90
111650 On ch=1 n=d#4 v=0
111658 On ch=1 n=b5 v=0
111660 Par ch=1 c=64 v=63
111664 On ch=1 n=b6 v=0
111670 Par ch=1 c=64 v=0
111726 On ch=1 n=e3 v=94
111784 Par ch=1 c=64 v=63
111796 Par ch=1 c=64 v=127
111808 On ch=1 n=g#3 v=90
111824 On ch=1 n=b3 v=106
111848 On ch=1 n=e4 v=121
111852 On ch=1 n=e3 v=0
111878 On ch=1 n=g#6 v=90
111880 On ch=1 n=g#5 v=89
111910 On ch=1 n=g#5 v=0
111910 On ch=1 n=g#3 v=0
111930 On ch=1 n=b3 v=0
111936 On ch=1 n=g#6 v=0
111998 On ch=1 n=e4 v=0
112082 On ch=1 n=e4 v=87
112084 On ch=1 n=e6 v=89
112086 On ch=1 n=e5 v=87
112120 On ch=1 n=e5 v=0
112144 On ch=1 n=e6 v=0
112182 On ch=1 n=e4 v=0
112264 Par ch=1 c=64 v=63
112274 Par ch=1 c=64 v=0
112286 On ch=1 n=e4 v=96
112294 On ch=1 n=a6 v=101
112294 On ch=1 n=a5 v=104
112324 On ch=1 n=a5 v=0
112368 On ch=1 n=a6 v=0
112378 On ch=1 n=e4 v=0
112504 On ch=1 n=e4 v=81
112520 On ch=1 n=b6 v=106
112524 On ch=1 n=b5 v=98
112558 On ch=1 n=b5 v=0
112578 On ch=1 n=b6 v=0
112600 On ch=1 n=a3 v=76
112608 On ch=1 n=e4 v=0
112666 On ch=1 n=c#4 v=79
112718 On ch=1 n=e4 v=41
112754 On ch=1 n=a3 v=0
112758 On ch=1 n=a4 v=112
112760 On ch=1 n=c#7 v=114
112764 On ch=1 n=c#6 v=119
112768 Par ch=1 c=64 v=127
112810 On ch=1 n=c#6 v=0
112822 On ch=1 n=c#7 v=0
112866 On ch=1 n=a4 v=0
112866 On ch=1 n=e4 v=0
112872 On ch=1 n=c#4 v=0
112974 On ch=1 n=a4 v=80
113066 On ch=1 n=a4 v=0
113198 Par ch=1 c=64 v=63
113206 Par ch=1 c=64 v=0
113210 On ch=1 n=a4 v=76
113218 On ch=1 n=a6 v=90
113230 On ch=1 n=a5 v=52
113252 On ch=1 n=a6 v=0
113278 On ch=1 n=a5 v=0
113296 On ch=1 n=a4 v=0
113402 On ch=1 n=a4 v=75
113424 On ch=1 n=b5 v=104
113426 On ch=1 n=b6 v=87
113452 On ch=1 n=b5 v=0
113484 On ch=1 n=b6 v=0
113528 On ch=1 n=a4 v=0
113562 On ch=1 n=a3 v=85
113588 On ch=1 n=c#4 v=75
113612 On ch=1 n=e4 v=74
113624 Par ch=1 c=64 v=127
113642 On ch=1 n=c#7 v=114
113648 On ch=1 n=c#6 v=113
113674 On ch=1 n=a3 v=0
113680 On ch=1 n=a4 v=90
113698 On ch=1 n=c#6 v=0
113720 On ch=1 n=c#7 v=0
113748 On ch=1 n=c#4 v=0
113758 On ch=1 n=e4 v=0
113770 On ch=1 n=a4 v=0
113878 On ch=1 n=a4 v=76
113880 On ch=1 n=b6 v=89
113880 On ch=1 n=b5 v=89
113912 On ch=1 n=b5 v=0
113912 On ch=1 n=b6 v=0
113954 On ch=1 n=a4 v=0
113970 Par ch=1 c=64 v=63
113980 Par ch=1 c=64 v=0
114088 On ch=1 n=a6 v=100
114102 On ch=1 n=a5 v=58
114102 On ch=1 n=a4 v=71
114130 On ch=1 n=a6 v=0
114154 On ch=1 n=a5 v=0
114176 On ch=1 n=a4 v=0
114276 On ch=1 n=a4 v=77
114308 On ch=1 n=g#6 v=101
114320 On ch=1 n=g#5 v=83
114350 On ch=1 n=a4 v=0
114354 On ch=1 n=g#5 v=0
114368 On ch=1 n=g#6 v=0
114476 On ch=1 n=d3 v=101
114488 On ch=1 n=a3 v=93
114490 On ch=1 n=f#3 v=97
114496 Par ch=1 c=64 v=127
114524 On ch=1 n=f#6 v=109
114524 On ch=1 n=f#5 v=114
114556 On ch=1 n=d4 v=108
114568 On ch=1 n=d3 v=0
114572 On ch=1 n=f#5 v=0
114586 On ch=1 n=f#6 v=0
114612 On ch=1 n=f#3 v=0
114630 On ch=1 n=a3 v=0
114654 On ch=1 n=d4 v=0
114724 On ch=1 n=b5 v=91
114724 On ch=1 n=b6 v=101
114732 On ch=1 n=d4 v=80
114754 On ch=1 n=b6 v=0
114756 Par ch=1 c=64 v=63
114758 On ch=1 n=b5 v=0
114768 Par ch=1 c=64 v=0
114816 On ch=1 n=d4 v=0
114862 On ch=1 n=e3 v=89
114884 Par ch=1 c=64 v=63
114898 Par ch=1 c=64 v=127
114926 On ch=1 n=g#3 v=86
114940 On ch=1 n=b3 v=97
114952 On ch=1 n=g#6 v=96
114962 On ch=1 n=g#5 v=87
114980 On ch=1 n=g#6 v=0
114994 On ch=1 n=g#5 v=0
114998 On ch=1 n=e3 v=0
115018 On ch=1 n=e4 v=77
115064 On ch=1 n=e4 v=0
115122 On ch=1 n=g#3 v=0
115140 On ch=1 n=b3 v=0
115144 Par ch=1 c=64 v=63
115158 On ch=1 n=e4 v=99
115166 On ch=1 n=e5 v=106
115170 On ch=1 n=e6 v=83
115182 Par ch=1 c=64 v=0
115204 On ch=1 n=e5 v=0
115232 On ch=1 n=e6 v=0
115248 On ch=1 n=e4 v=0
115274 On ch=1 n=a3 v=82
115356 On ch=1 n=c#4 v=89
115362 Par ch=1 c=64 v=63
115372 On ch=1 n=e4 v=99
115382 Par ch=1 c=64 v=127
115394 On ch=1 n=a6 v=106
115404 On ch=1 n=a4 v=114
115404 On ch=1 n=a5 v=85
115410 On ch=1 n=a3 v=0
115430 On ch=1 n=a6 v=0
115448 On ch=1 n=a5 v=0
115458 On ch=1 n=c#4 v=0
115484 On ch=1 n=e4 v=0
115528 On ch=1 n=a4 v=0
115870 Par ch=1 c=64 v=63
115882 On ch=1 n=b5 v=87
115908 Par ch=1 c=64 v=0
115980 On ch=1 n=a5 v=79
115990 On ch=1 n=b5 v=0
116092 On ch=1 n=g#5 v=84
116112 On ch=1 n=a5 v=0
116180 On ch=1 n=a5 v=69
116194 On ch=1 n=g#5 v=0
116310 On ch=1 n=a5 v=0
116318 On ch=1 n=c6 v=84
116320 On ch=1 n=a4 v=48
116392 On ch=1 n=c6 v=0
116486 On ch=1 n=a4 v=0
116522 On ch=1 n=e5 v=71
116540 On ch=1 n=c5 v=46
116574 On ch=1 n=e5 v=0
116584 On ch=1 n=c5 v=0
116740 On ch=1 n=d6 v=89
116760 On ch=1 n=c5 v=63
116800 On ch=1 n=c5 v=0
116836 On ch=1 n=c6 v=76
116846 On ch=1 n=d6 v=0
116938 On ch=1 n=b5 v=84
116970 On ch=1 n=c6 v=0
116972 On ch=1 n=c5 v=55
116974 On ch=1 n=e5 v=38
117020 On ch=1 n=c5 v=0
117042 On ch=1 n=b5 v=0
117044 On ch=1 n=e5 v=0
117048 On ch=1 n=c6 v=71
117178 On ch=1 n=c6 v=0
117186 On ch=1 n=e6 v=82
117188 On ch=1 n=a4 v=68
117244 On ch=1 n=e6 v=0
117272 On ch=1 n=a4 v=0
117398 On ch=1 n=c5 v=60
117400 On ch=1 n=e5 v=48
117444 On ch=1 n=c5 v=0
117452 On ch=1 n=e5 v=0
117624 On ch=1 n=f6 v=107
117632 On ch=1 n=c5 v=70
117638 On ch=1 n=e5 v=43
117674 On ch=1 n=c5 v=0
117690 On ch=1 n=e5 v=0
117716 On ch=1 n=e6 v=91
117748 On ch=1 n=f6 v=0
117814 On ch=1 n=d#6 v=104
117830 On ch=1 n=c5 v=66
117836 On ch=1 n=e5 v=47
117848 On ch=1 n=e6 v=0
117874 On ch=1 n=c5 v=0
117898 On ch=1 n=e5 v=0
117912 On ch=1 n=e6 v=85
117926 On ch=1 n=d#6 v=0
118044 On ch=1 n=a4 v=90
118050 On ch=1 n=b6 v=92
118086 On ch=1 n=e6 v=0
118114 On ch=1 n=a4 v=0
118158 On ch=1 n=a6 v=89
118188 On ch=1 n=b6 v=0
118256 On ch=1 n=g#6 v=98
118258 On ch=1 n=e5 v=59
118264 On ch=1 n=c5 v=62
118274 On ch=1 n=a6 v=0
118304 On ch=1 n=c5 v=0
118312 On ch=1 n=e5 v=0
118360 On ch=1 n=a6 v=89
118380 On ch=1 n=g#6 v=0
118456 On ch=1 n=a4 v=94
118476 On ch=1 n=b6 v=92
118494 On ch=1 n=a6 v=0
118508 On ch=1 n=a4 v=0
118576 On ch=1 n=a6 v=77
118598 On ch=1 n=b6 v=0
118684 On ch=1 n=e5 v=68
118688 On ch=1 n=g#6 v=94
118692 On ch=1 n=a6 v=0
118696 On ch=1 n=c5 v=60
118736 On ch=1 n=c5 v=0
118744 On ch=1 n=e5 v=0
118774 On ch=1 n=a6 v=94
118814 On ch=1 n=g#6 v=0
118876 On ch=1 n=a6 v=0
118904 On ch=1 n=a4 v=103
118908 On ch=1 n=c7 v=118
118920 Par ch=1 c=64 v=63
118924 Par ch=1 c=64 v=127
119028 On ch=1 n=a4 v=0
119138 On ch=1 n=c5 v=68
119148 On ch=1 n=e5 v=40
119152 On ch=1 n=c7 v=0
119180 On ch=1 n=c5 v=0
119200 On ch=1 n=e5 v=0
119310 Par ch=1 c=64 v=63
119318 Par ch=1 c=64 v=0
119356 On ch=1 n=a6 v=103
119362 On ch=1 n=c5 v=70
119400 On ch=1 n=c5 v=0
119416 On ch=1 n=a6 v=0
119570 On ch=1 n=c7 v=107
119578 On ch=1 n=e5 v=63
119594 On ch=1 n=c5 v=51
119630 On ch=1 n=e5 v=0
119640 On ch=1 n=c5 v=0
119640 On ch=1 n=c7 v=0
119750 Par ch=1 c=64 v=63
119750 On ch=1 n=g6 v=100
119754 Par ch=1 c=64 v=127
119760 On ch=1 n=e4 v=113
119770 On ch=1 n=a6 v=107
119794 On ch=1 n=g6 v=0
119796 On ch=1 n=b6 v=107
119840 On ch=1 n=a6 v=0
119876 On ch=1 n=b6 v=0
119880 On ch=1 n=e4 v=0
119976 Par ch=1 c=64 v=63
119982 On ch=1 n=b4 v=78
119986 On ch=1 n=e5 v=68
119988 Par ch=1 c=64 v=0
120000 On ch=1 n=f#6 v=98
120004 On ch=1 n=a6 v=82
120026 On ch=1 n=b4 v=0
120034 On ch=1 n=e5 v=0
120052 On ch=1 n=a6 v=0
120062 On ch=1 n=f#6 v=0
120214 On ch=1 n=g6 v=94
120216 On ch=1 n=e5 v=77
120218 On ch=1 n=b4 v=81
120226 On ch=1 n=e6 v=77
120260 On ch=1 n=b4 v=0
120260 On ch=1 n=e5 v=0
120262 On ch=1 n=e6 v=0
120282 On ch=1 n=g6 v=0
120426 On ch=1 n=f#6 v=101
120428 On ch=1 n=a6 v=92
120432 On ch=1 n=e5 v=65
120434 On ch=1 n=b4 v=73
120474 On ch=1 n=b4 v=0
120474 On ch=1 n=f#6 v=0
120476 On ch=1 n=e5 v=0
120480 On ch=1 n=a6 v=0
120588 On ch=1 n=g6 v=97
120598 On ch=1 n=e4 v=112
120600 Par ch=1 c=64 v=63
120604 On ch=1 n=a6 v=106
120604 Par ch=1 c=64 v=127
120634 On ch=1 n=b6 v=111
120662 On ch=1 n=g6 v=0
120678 On ch=1 n=a6 v=0
120704 On ch=1 n=e4 v=0
120714 On ch=1 n=b6 v=0
120840 On ch=1 n=b4 v=87
120842 On ch=1 n=a6 v=88
120842 On ch=1 n=f#6 v=96
120850 On ch=1 n=e5 v=54
120882 On ch=1 n=b4 v=0
120896 On ch=1 n=f#6 v=0
120900 On ch=1 n=e5 v=0
120908 Par ch=1 c=64 v=63
120912 On ch=1 n=a6 v=0
120924 Par ch=1 c=64 v=0
121050 On ch=1 n=g6 v=97
121064 On ch=1 n=e5 v=81
121066 On ch=1 n=e6 v=68
121074 On ch=1 n=b4 v=74
121104 On ch=1 n=e5 v=0
121106 On ch=1 n=e6 v=0
121114 On ch=1 n=b4 v=0
121120 On ch=1 n=g6 v=0
121270 On ch=1 n=a6 v=99
121274 On ch=1 n=f#6 v=99
121282 On ch=1 n=e5 v=71
121288 On ch=1 n=b4 v=71
121312 On ch=1 n=f#6 v=0
121324 On ch=1 n=e5 v=0
121326 On ch=1 n=b4 v=0
121338 On ch=1 n=a6 v=0
121454 On ch=1 n=e4 v=120
121460 On ch=1 n=g6 v=92
121462 Par ch=1 c=64 v=63
121464 On ch=1 n=a6 v=103
121466 Par ch=1 c=64 v=127
121476 On ch=1 n=b6 v=111
121530 On ch=1 n=g6 v=0
121554 On ch=1 n=a6 v=0
121568 On ch=1 n=e4 v=0
121580 On ch=1 n=b6 v=0
121684 On ch=1 n=e5 v=58
121688 On ch=1 n=b4 v=71
121698 On ch=1 n=a6 v=83
121698 On ch=1 n=f#6 v=88
121728 On ch=1 n=b4 v=0
121730 On ch=1 n=e5 v=0
121746 On ch=1 n=f#6 v=0
121760 On ch=1 n=a6 v=0
121784 Par ch=1 c=64 v=63
121794 Par ch=1 c=64 v=0
121892 On ch=1 n=b3 v=103
121900 On ch=1 n=g6 v=97
121916 On ch=1 n=e6 v=81
121956 On ch=1 n=e6 v=0
121964 On ch=1 n=g6 v=0
121968 On ch=1 n=b3 v=0
122114 On ch=1 n=b4 v=86
122118 On ch=1 n=f#6 v=106
122128 On ch=1 n=d#6 v=100
122154 On ch=1 n=d#6 v=0
122180 On ch=1 n=b4 v=0
122182 On ch=1 n=f#6 v=0
122358 On ch=1 n=e4 v=113
122358 Par ch=1 c=64 v=63
122360 On ch=1 n=e6 v=109
122364 Par ch=1 c=64 v=127
122422 On ch=1 n=e6 v=0
122446 On ch=1 n=e4 v=0
122756 Par ch=1 c=64 v=63
122768 Par ch=1 c=64 v=0
122820 On ch=1 n=b5 v=97
122910 On ch=1 n=a5 v=68
122924 On ch=1 n=b5 v=0
123008 On ch=1 n=g#5 v=87
123032 On ch=1 n=a5 v=0
123104 On ch=1 n=a5 v=57
123110 On ch=1 n=g#5 v=0
123236 On ch=1 n=a5 v=0
123236 On ch=1 n=c6 v=84
123240 On ch=1 n=a4 v=64
123286 On ch=1 n=c6 v=0
123314 On ch=1 n=a4 v=0
123454 On ch=1 n=c5 v=68
123458 On ch=1 n=e5 v=55
123496 On ch=1 n=c5 v=0
123512 On ch=1 n=e5 v=0
123686 On ch=1 n=d6 v=96
123698 On ch=1 n=c5 v=60
123738 On ch=1 n=c5 v=0
123772 On ch=1 n=c6 v=74
123786 On ch=1 n=d6 v=0
123876 On ch=1 n=b5 v=71
123890 On ch=1 n=c6 v=0
123902 On ch=1 n=c5 v=57
123912 On ch=1 n=e5 v=32
123946 On ch=1 n=c5 v=0
123964 On ch=1 n=c6 v=66
123972 On ch=1 n=e5 v=0
123972 On ch=1 n=b5 v=0
124088 On ch=1 n=c6 v=0
124104 On ch=1 n=e6 v=75
124116 On ch=1 n=a4 v=84
124148 On ch=1 n=e6 v=0
124164 On ch=1 n=a4 v=0
124322 On ch=1 n=e5 v=68
124326 On ch=1 n=c5 v=74
124364 On ch=1 n=c5 v=0
124376 On ch=1 n=e5 v=0
124550 On ch=1 n=f6 v=107
124562 On ch=1 n=c5 v=76
124566 On ch=1 n=e5 v=54
124600 On ch=1 n=c5 v=0
124616 On ch=1 n=e5 v=0
124644 On ch=1 n=e6 v=80
124660 On ch=1 n=f6 v=0
124740 On ch=1 n=d#6 v=91
124766 On ch=1 n=e5 v=46
124774 On ch=1 n=e6 v=0
124776 On ch=1 n=c5 v=55
124818 On ch=1 n=c5 v=0
124836 On ch=1 n=e5 v=0
124842 On ch=1 n=e6 v=75
124856 On ch=1 n=d#6 v=0
124964 On ch=1 n=a4 v=86
124974 On ch=1 n=b6 v=75
124982 On ch=1 n=e6 v=0
125020 On ch=1 n=a4 v=0
125068 On ch=1 n=a6 v=74
125088 On ch=1 n=b6 v=0
125182 On ch=1 n=a6 v=0
125184 On ch=1 n=e5 v=59
125186 On ch=1 n=g#6 v=84
125192 On ch=1 n=c5 v=65
125230 On ch=1 n=c5 v=0
125242 On ch=1 n=e5 v=0
125274 On ch=1 n=a6 v=91
125300 On ch=1 n=g#6 v=0
125380 On ch=1 n=a4 v=99
125394 On ch=1 n=b6 v=93
125412 On ch=1 n=a6 v=0
125454 On ch=1 n=a4 v=0
125494 On ch=1 n=a6 v=87
125522 On ch=1 n=b6 v=0
125586 On ch=1 n=g#6 v=98
125600 On ch=1 n=c5 v=72
125600 On ch=1 n=e5 v=56
125602 On ch=1 n=a6 v=0
125636 On ch=1 n=c5 v=0
125652 On ch=1 n=e5 v=0
125664 On ch=1 n=a6 v=87
125714 On ch=1 n=g#6 v=0
125770 On ch=1 n=a6 v=0
125814 On ch=1 n=a4 v=108
125816 On ch=1 n=c7 v=121
125832 Par ch=1 c=64 v=127
125924 On ch=1 n=c7 v=0
125926 On ch=1 n=a4 v=0
126042 On ch=1 n=e5 v=53
126042 On ch=1 n=c5 v=64
126086 On ch=1 n=c5 v=0
126106 On ch=1 n=e5 v=0
126252 Par ch=1 c=64 v=63
126256 On ch=1 n=a6 v=109
126262 Par ch=1 c=64 v=0
126284 On ch=1 n=c5 v=66
126322 On ch=1 n=c5 v=0
126322 On ch=1 n=a6 v=0
126478 On ch=1 n=c7 v=108
126488 On ch=1 n=e5 v=65
126496 On ch=1 n=c5 v=68
126534 On ch=1 n=c5 v=0
126536 On ch=1 n=e5 v=0
126544 On ch=1 n=c7 v=0
126664 On ch=1 n=g6 v=108
126680 On ch=1 n=e4 v=120
126688 On ch=1 n=a6 v=103
126690 Par ch=1 c=64 v=63
126692 Par ch=1 c=64 v=127
126712 On ch=1 n=b6 v=108
126736 On ch=1 n=g6 v=0
126758 On ch=1 n=a6 v=0
126792 On ch=1 n=b6 v=0
126798 On ch=1 n=e4 v=0
126904 On ch=1 n=e5 v=84
126910 On ch=1 n=b4 v=83
126922 On ch=1 n=a6 v=87
126930 On ch=1 n=f#6 v=79
126944 Par ch=1 c=64 v=63
126946 On ch=1 n=b4 v=0
126952 Par ch=1 c=64 v=0
126954 On ch=1 n=e5 v=0
126968 On ch=1 n=f#6 v=0
126972 On ch=1 n=a6 v=0
127132 On ch=1 n=g6 v=100
127136 On ch=1 n=e5 v=80
127138 On ch=1 n=b4 v=90
127156 On ch=1 n=e6 v=54
127170 On ch=1 n=b4 v=0
127178 On ch=1 n=e5 v=0
127198 On ch=1 n=g6 v=0
127208 On ch=1 n=e6 v=0
127336 On ch=1 n=e5 v=89
127336 On ch=1 n=a6 v=107
127340 On ch=1 n=b4 v=94
127346 On ch=1 n=f#6 v=93
127374 On ch=1 n=b4 v=0
127380 On ch=1 n=f#6 v=0
127386 On ch=1 n=e5 v=0
127404 On ch=1 n=a6 v=0
127526 On ch=1 n=g6 v=90
127530 On ch=1 n=a6 v=103
127536 On ch=1 n=e4 v=122
127540 Par ch=1 c=64 v=127
127556 On ch=1 n=b6 v=108
127582 On ch=1 n=g6 v=0
127602 On ch=1 n=a6 v=0
127640 On ch=1 n=e4 v=0
127642 On ch=1 n=b6 v=0
127764 On ch=1 n=b4 v=87
127770 On ch=1 n=a6 v=86
127776 On ch=1 n=e5 v=55
127780 On ch=1 n=f#6 v=76
127798 On ch=1 n=b4 v=0
127816 On ch=1 n=f#6 v=0
127822 On ch=1 n=a6 v=0
127826 On ch=1 n=e5 v=0
127852 Par ch=1 c=64 v=63
127864 Par ch=1 c=64 v=0
127978 On ch=1 n=g6 v=93
127988 On ch=1 n=e6 v=71
127990 On ch=1 n=e5 v=80
127992 On ch=1 n=b4 v=86
128026 On ch=1 n=b4 v=0
128028 On ch=1 n=e6 v=0
128030 On ch=1 n=e5 v=0
128034 On ch=1 n=g6 v=0
128190 On ch=1 n=a6 v=103
128198 On ch=1 n=b4 v=91
128198 On ch=1 n=f#6 v=98
128200 On ch=1 n=e5 v=73
128238 On ch=1 n=f#6 v=0
128238 On ch=1 n=b4 v=0
128244 On ch=1 n=e5 v=0
128260 On ch=1 n=a6 v=0
128374 On ch=1 n=g6 v=94
128380 On ch=1 n=e4 v=120
128382 Par ch=1 c=64 v=63
128384 On ch=1 n=a6 v=98
128386 Par ch=1 c=64 v=127
128404 On ch=1 n=b6 v=107
128454 On ch=1 n=g6 v=0
128470 On ch=1 n=a6 v=0
128482 On ch=1 n=e4 v=0
128498 On ch=1 n=b6 v=0
128604 On ch=1 n=b4 v=83
128608 On ch=1 n=e5 v=66
128612 On ch=1 n=a6 v=94
128624 On ch=1 n=f#6 v=85
128638 On ch=1 n=b4 v=0
128642 Par ch=1 c=64 v=63
128650 On ch=1 n=e5 v=0
128650 Par ch=1 c=64 v=0
128658 On ch=1 n=f#6 v=0
128686 On ch=1 n=a6 v=0
128824 On ch=1 n=b3 v=107
128830 On ch=1 n=g6 v=101
128840 On ch=1 n=e6 v=90
128890 On ch=1 n=e6 v=0
128900 On ch=1 n=g6 v=0
128902 On ch=1 n=b3 v=0
129022 On ch=1 n=b4 v=93
129040 On ch=1 n=f#6 v=106
129052 On ch=1 n=d#6 v=99
129078 On ch=1 n=d#6 v=0
129094 On ch=1 n=b4 v=0
129114 On ch=1 n=f#6 v=0
129266 Par ch=1 c=64 v=63
129268 On ch=1 n=e4 v=117
129270 Par ch=1 c=64 v=127
129276 On ch=1 n=e6 v=111
129334 On ch=1 n=e6 v=0
129352 On ch=1 n=e4 v=0
129718 Par ch=1 c=64 v=63
129722 Par ch=1 c=64 v=0
129736 On ch=1 n=e6 v=114
129742 On ch=1 n=c6 v=99
129778 On ch=1 n=c6 v=0
129796 On ch=1 n=e6 v=0
129968 On ch=1 n=f6 v=107
129982 On ch=1 n=d6 v=82
130018 On ch=1 n=d6 v=0
130030 On ch=1 n=f6 v=0
130164 On ch=1 n=c4 v=112
130184 On ch=1 n=g6 v=107
130188 On ch=1 n=e6 v=109
130250 On ch=1 n=e6 v=0
130252 On ch=1 n=c4 v=0
130254 On ch=1 n=g6 v=0
130390 On ch=1 n=c5 v=91
130396 On ch=1 n=g6 v=104
130408 On ch=1 n=e6 v=92
130440 On ch=1 n=e6 v=0
130460 On ch=1 n=c5 v=0
130466 On ch=1 n=g6 v=0
130606 On ch=1 n=e4 v=101
130618 On ch=1 n=a6 v=118
130686 On ch=1 n=e4 v=0
130712 On ch=1 n=g6 v=89
130774 On ch=1 n=a6 v=0
130808 On ch=1 n=f6 v=86
130808 On ch=1 n=e5 v=70
130872 On ch=1 n=g6 v=0
130896 On ch=1 n=e6 v=97
130932 On ch=1 n=f6 v=0
130940 On ch=1 n=e5 v=0
130964 On ch=1 n=e6 v=0
131038 Par ch=1 c=64 v=63
131040 On ch=1 n=g4 v=106
131042 Par ch=1 c=64 v=127
131050 On ch=1 n=d6 v=106
131060 On ch=1 n=b5 v=106
131116 On ch=1 n=g4 v=0
131118 On ch=1 n=d6 v=0
131126 On ch=1 n=b5 v=0
131252 On ch=1 n=g5 v=86
131296 On ch=1 n=g5 v=0
131450 Par ch=1 c=64 v=63
131456 Par ch=1 c=64 v=0
131458 On ch=1 n=e6 v=103
131462 On ch=1 n=c6 v=90
131502 On ch=1 n=c6 v=0
131524 On ch=1 n=e6 v=0
131670 On ch=1 n=f6 v=99
131674 On ch=1 n=d6 v=88
131712 On ch=1 n=d6 v=0
131728 On ch=1 n=f6 v=0
131876 On ch=1 n=c4 v=103
131882 On ch=1 n=g6 v=100
131886 On ch=1 n=e6 v=100
131926 On ch=1 n=e6 v=0
131946 On ch=1 n=c4 v=0
131952 On ch=1 n=g6 v=0
132096 On ch=1 n=g6 v=96
132096 On ch=1 n=c5 v=91
132098 On ch=1 n=e6 v=102
132136 On ch=1 n=e6 v=0
132158 On ch=1 n=c5 v=0
132160 On ch=1 n=g6 v=0
132300 On ch=1 n=e4 v=101
132324 On ch=1 n=a6 v=116
132380 On ch=1 n=e4 v=0
132414 On ch=1 n=g6 v=87
132466 On ch=1 n=a6 v=0
132502 On ch=1 n=f6 v=76
132518 On ch=1 n=e5 v=68
132558 On ch=1 n=g6 v=0
132594 On ch=1 n=e6 v=97
132618 On ch=1 n=f6 v=0
132640 On ch=1 n=e5 v=0
132646 On ch=1 n=e6 v=0
132734 On ch=1 n=d6 v=107
132744 On ch=1 n=g4 v=98
132746 On ch=1 n=b5 v=94
132746 Par ch=1 c=64 v=63
132750 Par ch=1 c=64 v=127
132778 On ch=1 n=b5 v=0
132796 On ch=1 n=d6 v=0
132808 On ch=1 n=g4 v=0
133174 Par ch=1 c=64 v=63
133188 Par ch=1 c=64 v=0
133198 On ch=1 n=c6 v=94
133206 On ch=1 n=a5 v=65
133250 On ch=1 n=a5 v=0
133252 On ch=1 n=c6 v=0
133406 On ch=1 n=d6 v=83
133410 On ch=1 n=b5 v=67
133452 On ch=1 n=b5 v=0
133454 On ch=1 n=d6 v=0
133616 On ch=1 n=a3 v=87
133620 On ch=1 n=e6 v=85
133624 On ch=1 n=c6 v=84
133666 On ch=1 n=c6 v=0
133688 On ch=1 n=a3 v=0
133690 On ch=1 n=e6 v=0
133826 On ch=1 n=e6 v=91
133834 On ch=1 n=a4 v=81
133836 On ch=1 n=c6 v=83
133872 On ch=1 n=c6 v=0
133906 On ch=1 n=e6 v=0
133910 On ch=1 n=a4 v=0
134042 On ch=1 n=c4 v=101
134054 On ch=1 n=f6 v=106
134114 On ch=1 n=c4 v=0
134166 On ch=1 n=e6 v=77
134208 On ch=1 n=f6 v=0
134238 On ch=1 n=d6 v=80
134250 On ch=1 n=c5 v=73
134304 On ch=1 n=e6 v=0
134322 On ch=1 n=c5 v=0
134336 On ch=1 n=c6 v=77
134348 On ch=1 n=d6 v=0
134382 On ch=1 n=c6 v=0
134440 Par ch=1 c=64 v=63
134462 Par ch=1 c=64 v=127
134472 On ch=1 n=e4 v=98
134488 On ch=1 n=b5 v=74
134506 On ch=1 n=g#5 v=90
134536 On ch=1 n=e4 v=0
134550 On ch=1 n=b5 v=0
134634 On ch=1 n=g#5 v=0
134694 On ch=1 n=e5 v=50
134752 On ch=1 n=e5 v=0
134910 Par ch=1 c=64 v=63
134916 Par ch=1 c=64 v=0
134924 On ch=1 n=c6 v=82
134936 On ch=1 n=a5 v=55
134968 On ch=1 n=c6 v=0
134988 On ch=1 n=a5 v=0
135136 On ch=1 n=d6 v=91
135140 On ch=1 n=b5 v=83
135182 On ch=1 n=b5 v=0
135208 On ch=1 n=d6 v=0
135360 On ch=1 n=a3 v=78
135360 On ch=1 n=e6 v=86
135364 On ch=1 n=c6 v=81
135402 On ch=1 n=a3 v=0
135406 On ch=1 n=c6 v=0
135436 On ch=1 n=e6 v=0
135576 On ch=1 n=a4 v=73
135576 On ch=1 n=e6 v=87
135580 On ch=1 n=c6 v=87
135618 On ch=1 n=c6 v=0
135640 On ch=1 n=a4 v=0
135648 On ch=1 n=e6 v=0
135796 On ch=1 n=f6 v=101
135800 On ch=1 n=c4 v=91
135858 On ch=1 n=c4 v=0
135896 On ch=1 n=e6 v=80
135938 On ch=1 n=f6 v=0
135976 On ch=1 n=d6 v=75
136002 On ch=1 n=c5 v=70
136034 On ch=1 n=e6 v=0
136074 On ch=1 n=c5 v=0
136076 On ch=1 n=c6 v=83
136088 On ch=1 n=d6 v=0
136122 On ch=1 n=c6 v=0
136222 On ch=1 n=e4 v=88
136232 On ch=1 n=b5 v=84
136240 On ch=1 n=g#5 v=88
136246 Par ch=1 c=64 v=63
136252 Par ch=1 c=64 v=127
136276 On ch=1 n=g#5 v=0
136276 On ch=1 n=b5 v=0
136308 On ch=1 n=e4 v=0
136680 Par ch=1 c=64 v=63
136688 Par ch=1 c=64 v=0
136710 On ch=1 n=b5 v=93
136808 On ch=1 n=b5 v=0
136810 On ch=1 n=a5 v=65
136910 On ch=1 n=g#5 v=87
136920 On ch=1 n=a5 v=0
137002 On ch=1 n=g#5 v=0
137008 On ch=1 n=a5 v=74
137122 On ch=1 n=a5 v=0
137126 On ch=1 n=a4 v=63
137130 On ch=1 n=c6 v=85
137174 On ch=1 n=c6 v=0
137182 On ch=1 n=a4 v=0
137348 On ch=1 n=e5 v=54
137352 On ch=1 n=c5 v=60
137396 On ch=1 n=c5 v=0
137404 On ch=1 n=e5 v=0
137584 On ch=1 n=d6 v=87
137586 On ch=1 n=c5 v=76
137598 On ch=1 n=e5 v=43
137626 On ch=1 n=c5 v=0
137648 On ch=1 n=e5 v=0
137684 On ch=1 n=c6 v=64
137688 On ch=1 n=d6 v=0
137790 On ch=1 n=b5 v=81
137806 On ch=1 n=c6 v=0
137806 On ch=1 n=c5 v=66
137814 On ch=1 n=e5 v=36
137850 On ch=1 n=c5 v=0
137880 On ch=1 n=e5 v=0
137884 On ch=1 n=c6 v=63
137888 On ch=1 n=b5 v=0
138000 On ch=1 n=c6 v=0
138004 On ch=1 n=e6 v=89
138006 On ch=1 n=a4 v=87
138048 On ch=1 n=e6 v=0
138056 On ch=1 n=a4 v=0
138226 On ch=1 n=c5 v=78
138228 On ch=1 n=e5 v=61
138266 On ch=1 n=c5 v=0
138280 On ch=1 n=e5 v=0
138448 On ch=1 n=f6 v=112
138462 On ch=1 n=c5 v=75
138464 On ch=1 n=e5 v=54
138500 On ch=1 n=c5 v=0
138514 On ch=1 n=e5 v=0
138540 On ch=1 n=e6 v=93
138586 On ch=1 n=f6 v=0
138646 On ch=1 n=d#6 v=105
138658 On ch=1 n=e5 v=41
138662 On ch=1 n=c5 v=52
138678 On ch=1 n=e6 v=0
138706 On ch=1 n=c5 v=0
138720 On ch=1 n=e5 v=0
138740 On ch=1 n=e6 v=83
138754 On ch=1 n=d#6 v=0
138854 On ch=1 n=a4 v=104
138868 On ch=1 n=e6 v=0
138878 On ch=1 n=b6 v=98
138940 On ch=1 n=a4 v=0
138976 On ch=1 n=a6 v=89
138996 On ch=1 n=b6 v=0
139076 On ch=1 n=e5 v=73
139080 On ch=1 n=g#6 v=95
139090 On ch=1 n=a6 v=0
139090 On ch=1 n=c5 v=65
139128 On ch=1 n=c5 v=0
139144 On ch=1 n=e5 v=0
139176 On ch=1 n=a6 v=97
139194 On ch=1 n=g#6 v=0
139284 On ch=1 n=a4 v=114
139294 On ch=1 n=b6 v=99
139312 On ch=1 n=a6 v=0
139368 On ch=1 n=a4 v=0
139400 On ch=1 n=a6 v=93
139426 On ch=1 n=b6 v=0
139502 On ch=1 n=g#6 v=94
139508 On ch=1 n=a6 v=0
139532 On ch=1 n=e5 v=77
139534 On ch=1 n=c5 v=88
139582 On ch=1 n=a6 v=94
139590 On ch=1 n=c5 v=0
139596 On ch=1 n=e5 v=0
139626 On ch=1 n=g#6 v=0
139676 On ch=1 n=a6 v=0
139724 On ch=1 n=f4 v=116
139736 On ch=1 n=c7 v=125
139756 Par ch=1 c=64 v=127
139866 On ch=1 n=f4 v=0
139918 On ch=1 n=c7 v=0
139984 On ch=1 n=d#5 v=80
139984 On ch=1 n=a4 v=50
140040 On ch=1 n=d#5 v=0
140048 On ch=1 n=a4 v=0
140156 Par ch=1 c=64 v=63
140168 Par ch=1 c=64 v=0
140180 On ch=1 n=a6 v=117
140200 On ch=1 n=a4 v=71
140206 On ch=1 n=d#5 v=70
140238 On ch=1 n=a6 v=0
140240 On ch=1 n=d#5 v=0
140258 On ch=1 n=a4 v=0
140396 On ch=1 n=d#5 v=90
140400 On ch=1 n=b6 v=111
140404 On ch=1 n=a4 v=68
140440 On ch=1 n=d#5 v=0
140456 On ch=1 n=a4 v=0
140468 On ch=1 n=b6 v=0
140604 On ch=1 n=e4 v=97
140612 On ch=1 n=c7 v=116
140674 On ch=1 n=e4 v=0
140694 On ch=1 n=c7 v=0
140820 On ch=1 n=a4 v=88
140826 On ch=1 n=e5 v=68
140830 On ch=1 n=b6 v=103
140860 On ch=1 n=a4 v=0
140870 On ch=1 n=e5 v=0
140894 On ch=1 n=b6 v=0
141036 On ch=1 n=a6 v=107
141038 On ch=1 n=d4 v=94
141098 On ch=1 n=a6 v=0
141104 On ch=1 n=d4 v=0
141242 On ch=1 n=g#6 v=106
141244 On ch=1 n=b4 v=86
141252 On ch=1 n=f4 v=84
141288 On ch=1 n=b4 v=0
141294 On ch=1 n=f4 v=0
141310 On ch=1 n=g#6 v=0
141458 On ch=1 n=a6 v=108
141460 On ch=1 n=c4 v=93
141534 On ch=1 n=c4 v=0
141544 On ch=1 n=a6 v=0
141668 On ch=1 n=e6 v=106
141670 On ch=1 n=a4 v=80
141684 On ch=1 n=e4 v=73
141722 On ch=1 n=e4 v=0
141732 On ch=1 n=a4 v=0
141736 On ch=1 n=e6 v=0
141886 On ch=1 n=f6 v=104
141888 On ch=1 n=d4 v=86
141940 On ch=1 n=d4 v=0
141950 On ch=1 n=f6 v=0
142092 On ch=1 n=b4 v=77
142094 On ch=1 n=d6 v=107
142102 On ch=1 n=f4 v=74
142142 On ch=1 n=f4 v=0
142148 On ch=1 n=b4 v=0
142152 On ch=1 n=d6 v=0
142318 On ch=1 n=c6 v=113
142320 On ch=1 n=e4 v=90
142330 On ch=1 n=a4 v=53
142342 Par ch=1 c=64 v=127
142372 On ch=1 n=e4 v=0
142380 On ch=1 n=a4 v=0
142380 On ch=1 n=c6 v=0
142548 On ch=1 n=a4 v=70
142556 On ch=1 n=e4 v=67
142604 On ch=1 n=e4 v=0
142608 On ch=1 n=a4 v=0
142746 Par ch=1 c=64 v=63
142760 Par ch=1 c=64 v=0
142766 On ch=1 n=e4 v=85
142768 On ch=1 n=b5 v=109
142768 On ch=1 n=g#4 v=97
142792 Par ch=1 c=64 v=63
142810 On ch=1 n=g#4 v=0
142814 Par ch=1 c=64 v=127
142820 On ch=1 n=c6 v=75
142826 On ch=1 n=e4 v=0
142828 On ch=1 n=b5 v=0
142862 On ch=1 n=c6 v=0
142884 On ch=1 n=b5 v=92
142900 On ch=1 n=e4 v=74
142924 On ch=1 n=g#4 v=44
142942 On ch=1 n=c6 v=76
142954 On ch=1 n=b5 v=0
142960 On ch=1 n=e4 v=0
142962 On ch=1 n=g#4 v=0
143010 Par ch=1 c=64 v=63
143018 Par ch=1 c=64 v=0
143026 On ch=1 n=b5 v=86
143028 On ch=1 n=c6 v=0
143098 On ch=1 n=a5 v=48
143100 On ch=1 n=b5 v=0
143148 On ch=1 n=b5 v=86
143170 On ch=1 n=a5 v=0
143190 Par ch=1 c=64 v=63
143190 Par ch=1 c=64 v=127
143216 On ch=1 n=a5 v=100
143234 On ch=1 n=a4 v=107
143236 On ch=1 n=a3 v=107
143258 On ch=1 n=b5 v=0
143284 On ch=1 n=a5 v=0
143294 On ch=1 n=a4 v=0
143298 On ch=1 n=a3 v=0
143670 Par ch=1 c=64 v=63
143676 Par ch=1 c=64 v=0
143680 On ch=1 n=e6 v=112
143688 On ch=1 n=c6 v=99
143722 On ch=1 n=c6 v=0
143740 On ch=1 n=e6 v=0
143900 On ch=1 n=f6 v=108
143904 On ch=1 n=d6 v=101
143934 On ch=1 n=d6 v=0
143970 On ch=1 n=f6 v=0
144102 On ch=1 n=c4 v=117
144116 On ch=1 n=g6 v=113
144122 On ch=1 n=e6 v=108
144178 On ch=1 n=c4 v=0
144184 On ch=1 n=e6 v=0
144200 On ch=1 n=g6 v=0
144332 On ch=1 n=g6 v=106
144334 On ch=1 n=c5 v=92
144342 On ch=1 n=e6 v=98
144372 On ch=1 n=e6 v=0
144388 On ch=1 n=c5 v=0
144404 On ch=1 n=g6 v=0
144542 On ch=1 n=e4 v=102
144556 On ch=1 n=a6 v=118
144620 On ch=1 n=e4 v=0
144658 On ch=1 n=g6 v=87
144738 On ch=1 n=f6 v=85
144748 On ch=1 n=a6 v=0
144750 On ch=1 n=e5 v=71
144822 On ch=1 n=e6 v=101
144828 On ch=1 n=g6 v=0
144854 On ch=1 n=e5 v=0
144856 On ch=1 n=f6 v=0
144888 On ch=1 n=e6 v=0
144970 On ch=1 n=g4 v=109
144974 On ch=1 n=d6 v=108
144984 Par ch=1 c=64 v=63
144986 Par ch=1 c=64 v=127
144988 On ch=1 n=b5 v=92
145022 On ch=1 n=b5 v=0
145032 On ch=1 n=g4 v=0
145042 On ch=1 n=d6 v=0
145204 On ch=1 n=g5 v=91
145254 On ch=1 n=g5 v=0
145408 Par ch=1 c=64 v=63
145414 Par ch=1 c=64 v=0
145418 On ch=1 n=e6 v=106
145422 On ch=1 n=c6 v=96
145462 On ch=1 n=c6 v=0
145480 On ch=1 n=e6 v=0
145634 On ch=1 n=f6 v=107
145640 On ch=1 n=d6 v=93
145674 On ch=1 n=d6 v=0
145694 On ch=1 n=f6 v=0
145832 On ch=1 n=c4 v=108
145840 On ch=1 n=g6 v=100
145844 On ch=1 n=e6 v=107
145892 On ch=1 n=e6 v=0
145900 On ch=1 n=c4 v=0
145908 On ch=1 n=g6 v=0
146052 On ch=1 n=g6 v=97
146054 On ch=1 n=c5 v=96
146056 On ch=1 n=e6 v=101
146092 On ch=1 n=e6 v=0
146112 On ch=1 n=c5 v=0
146124 On ch=1 n=g6 v=0
146256 On ch=1 n=e4 v=111
146272 On ch=1 n=a6 v=118
146342 On ch=1 n=e4 v=0
146376 On ch=1 n=g6 v=86
146424 On ch=1 n=a6 v=0
146462 On ch=1 n=f6 v=81
146486 On ch=1 n=e5 v=76
146522 On ch=1 n=g6 v=0
146542 On ch=1 n=e6 v=98
146568 On ch=1 n=f6 v=0
146590 On ch=1 n=e5 v=0
146610 On ch=1 n=e6 v=0
146694 On ch=1 n=g4 v=108
146696 On ch=1 n=d6 v=107
146704 Par ch=1 c=64 v=63
146706 Par ch=1 c=64 v=127
146710 On ch=1 n=b5 v=94
146742 On ch=1 n=b5 v=0
146752 On ch=1 n=g4 v=0
146758 On ch=1 n=d6 v=0
147158 Par ch=1 c=64 v=63
147162 Par ch=1 c=64 v=0
147166 On ch=1 n=c6 v=98
147196 On ch=1 n=a5 v=30
147218 On ch=1 n=c6 v=0
147234 On ch=1 n=a5 v=0
147374 On ch=1 n=b5 v=86
147378 On ch=1 n=d6 v=87
147420 On ch=1 n=b5 v=0
147424 On ch=1 n=d6 v=0
147592 On ch=1 n=e6 v=87
147594 On ch=1 n=a3 v=84
147604 On ch=1 n=c6 v=71
147646 On ch=1 n=c6 v=0
147650 On ch=1 n=a3 v=0
147654 On ch=1 n=e6 v=0
147806 On ch=1 n=e6 v=90
147810 On ch=1 n=c6 v=88
147818 On ch=1 n=a4 v=73
147846 On ch=1 n=c6 v=0
147880 On ch=1 n=e6 v=0
147882 On ch=1 n=a4 v=0
148022 On ch=1 n=c4 v=96
148038 On ch=1 n=f6 v=104
148092 On ch=1 n=c4 v=0
148140 On ch=1 n=e6 v=84
148178 On ch=1 n=f6 v=0
148220 On ch=1 n=d6 v=77
148242 On ch=1 n=c5 v=71
148284 On ch=1 n=e6 v=0
148314 On ch=1 n=c6 v=80
148322 On ch=1 n=d6 v=0
148334 On ch=1 n=c5 v=0
148354 On ch=1 n=c6 v=0
148442 Par ch=1 c=64 v=63
148444 Par ch=1 c=64 v=127
148450 On ch=1 n=b5 v=86
148462 On ch=1 n=e4 v=80
148466 On ch=1 n=g#5 v=93
148496 On ch=1 n=b5 v=0
148514 On ch=1 n=e4 v=0
148518 On ch=1 n=g#5 v=0
148672 On ch=1 n=e5 v=59
148718 On ch=1 n=e5 v=0
148874 Par ch=1 c=64 v=63
148880 Par ch=1 c=64 v=0
148890 On ch=1 n=c6 v=84
148894 On ch=1 n=a5 v=64
148942 On ch=1 n=a5 v=0
148944 On ch=1 n=c6 v=0
149108 On ch=1 n=d6 v=87
149110 On ch=1 n=b5 v=80
149156 On ch=1 n=b5 v=0
149172 On ch=1 n=d6 v=0
149322 On ch=1 n=a3 v=85
149328 On ch=1 n=e6 v=88
149330 On ch=1 n=c6 v=87
149372 On ch=1 n=c6 v=0
149376 On ch=1 n=a3 v=0
149404 On ch=1 n=e6 v=0
149544 On ch=1 n=a4 v=72
149548 On ch=1 n=e6 v=80
149554 On ch=1 n=c6 v=72
149596 On ch=1 n=c6 v=0
149602 On ch=1 n=e6 v=0
149614 On ch=1 n=a4 v=0
149762 On ch=1 n=c4 v=89
149766 On ch=1 n=f6 v=100
149828 On ch=1 n=c4 v=0
149872 On ch=1 n=e6 v=79
149910 On ch=1 n=f6 v=0
149962 On ch=1 n=d6 v=67
149980 On ch=1 n=c5 v=62
150018 On ch=1 n=e6 v=0
150058 On ch=1 n=c6 v=81
150062 On ch=1 n=c5 v=0
150076 On ch=1 n=d6 v=0
150122 On ch=1 n=c6 v=0
150204 On ch=1 n=e4 v=73
150204 Par ch=1 c=64 v=63
150208 On ch=1 n=b5 v=84
150210 Par ch=1 c=64 v=127
150226 On ch=1 n=g#5 v=85
150258 On ch=1 n=g#5 v=0
150258 On ch=1 n=b5 v=0
150288 On ch=1 n=e4 v=0
150726 On ch=1 n=b5 v=91
150822 On ch=1 n=a5 v=67
150836 On ch=1 n=b5 v=0
150904 On ch=1 n=g#5 v=90
150930 On ch=1 n=a5 v=0
151000 On ch=1 n=g#5 v=0
151012 On ch=1 n=a5 v=73
151072 Par ch=1 c=64 v=63
151080 Par ch=1 c=64 v=0
151116 On ch=1 n=a5 v=0
151122 On ch=1 n=a4 v=77
151124 On ch=1 n=c6 v=88
151172 On ch=1 n=c6 v=0
151180 On ch=1 n=a4 v=0
151340 On ch=1 n=c5 v=84
151356 On ch=1 n=e5 v=51
151386 On ch=1 n=c5 v=0
151408 On ch=1 n=e5 v=0
151564 On ch=1 n=d6 v=93
151570 On ch=1 n=c5 v=71
151578 On ch=1 n=e5 v=46
151610 On ch=1 n=c5 v=0
151628 On ch=1 n=e5 v=0
151666 On ch=1 n=c6 v=79
151676 On ch=1 n=d6 v=0
151760 On ch=1 n=b5 v=91
151766 On ch=1 n=e5 v=58
151772 On ch=1 n=c5 v=65
151790 On ch=1 n=c6 v=0
151816 On ch=1 n=c5 v=0
151830 On ch=1 n=e5 v=0
151856 On ch=1 n=b5 v=0
151858 On ch=1 n=c6 v=82
151974 On ch=1 n=e6 v=96
151980 On ch=1 n=c6 v=0
151982 On ch=1 n=a4 v=96
152042 On ch=1 n=e6 v=0
152052 On ch=1 n=a4 v=0
152196 On ch=1 n=e5 v=88
152204 On ch=1 n=c5 v=85
152240 On ch=1 n=c5 v=0
152264 On ch=1 n=e5 v=0
152414 On ch=1 n=f6 v=114
152426 On ch=1 n=e5 v=83
152440 On ch=1 n=c5 v=74
152474 On ch=1 n=c5 v=0
152476 On ch=1 n=e5 v=0
152504 On ch=1 n=e6 v=96
152530 On ch=1 n=f6 v=0
152594 On ch=1 n=d#6 v=112
152632 On ch=1 n=e5 v=78
152634 On ch=1 n=e6 v=0
152642 On ch=1 n=c5 v=81
152676 On ch=1 n=c5 v=0
152684 On ch=1 n=e5 v=0
152704 On ch=1 n=e6 v=88
152714 On ch=1 n=d#6 v=0
152828 On ch=1 n=e6 v=0
152830 On ch=1 n=a4 v=111
152838 On ch=1 n=b6 v=101
152914 On ch=1 n=a4 v=0
152938 On ch=1 n=a6 v=94
152966 On ch=1 n=b6 v=0
153044 On ch=1 n=g#6 v=96
153050 On ch=1 n=e5 v=67
153056 On ch=1 n=a6 v=0
153058 On ch=1 n=c5 v=67
153096 On ch=1 n=c5 v=0
153108 On ch=1 n=e5 v=0
153136 On ch=1 n=a6 v=96
153162 On ch=1 n=g#6 v=0
153262 On ch=1 n=b6 v=106
153264 On ch=1 n=a4 v=118
153276 On ch=1 n=a6 v=0
153356 On ch=1 n=a4 v=0
153376 On ch=1 n=a6 v=101
153406 On ch=1 n=b6 v=0
153466 On ch=1 n=g#6 v=100
153480 On ch=1 n=e5 v=83
153482 On ch=1 n=a6 v=0
153486 On ch=1 n=c5 v=89
153526 On ch=1 n=c5 v=0
153546 On ch=1 n=e5 v=0
153546 On ch=1 n=a6 v=92
153600 On ch=1 n=g#6 v=0
153652 On ch=1 n=a6 v=0
153684 On ch=1 n=f4 v=120
153696 On ch=1 n=c7 v=125
153706 Par ch=1 c=64 v=127
153854 On ch=1 n=f4 v=0
153944 On ch=1 n=c7 v=0
153954 On ch=1 n=a4 v=44
153962 On ch=1 n=d#5 v=76
154014 On ch=1 n=d#5 v=0
154048 On ch=1 n=a4 v=0
154148 On ch=1 n=a6 v=116
154148 Par ch=1 c=64 v=63
154156 Par ch=1 c=64 v=0
154162 On ch=1 n=a4 v=69
154190 On ch=1 n=d#5 v=48
154218 On ch=1 n=a6 v=0
154230 On ch=1 n=d#5 v=0
154236 On ch=1 n=a4 v=0
154356 On ch=1 n=d#5 v=91
154362 On ch=1 n=b6 v=117
154374 On ch=1 n=a4 v=59
154422 On ch=1 n=a4 v=0
154432 On ch=1 n=b6 v=0
154434 On ch=1 n=d#5 v=0
154566 On ch=1 n=e4 v=112
154580 On ch=1 n=c7 v=117
154658 On ch=1 n=e4 v=0
154662 On ch=1 n=c7 v=0
154788 On ch=1 n=a4 v=98
154798 On ch=1 n=e5 v=76
154802 On ch=1 n=b6 v=109
154836 On ch=1 n=e5 v=0
154836 On ch=1 n=a4 v=0
154870 On ch=1 n=b6 v=0
155008 On ch=1 n=d4 v=94
155014 On ch=1 n=a6 v=112
155056 On ch=1 n=d4 v=0
155076 On ch=1 n=a6 v=0
155204 On ch=1 n=g#6 v=113
155214 On ch=1 n=b4 v=88
155216 On ch=1 n=f4 v=94
155258 On ch=1 n=b4 v=0
155260 On ch=1 n=f4 v=0
155268 On ch=1 n=g#6 v=0
155416 On ch=1 n=c4 v=97
155420 On ch=1 n=a6 v=116
155486 On ch=1 n=c4 v=0
155506 On ch=1 n=a6 v=0
155632 On ch=1 n=a4 v=85
155632 On ch=1 n=e6 v=109
155634 On ch=1 n=e4 v=98
155682 On ch=1 n=e4 v=0
155688 On ch=1 n=a4 v=0
155692 On ch=1 n=e6 v=0
155844 On ch=1 n=d4 v=98
155850 On ch=1 n=f6 v=108
155912 On ch=1 n=f6 v=0
155914 On ch=1 n=d4 v=0
156050 On ch=1 n=d6 v=113
156052 On ch=1 n=b4 v=89
156060 On ch=1 n=f4 v=83
156102 On ch=1 n=f4 v=0
156110 On ch=1 n=d6 v=0
156114 On ch=1 n=b4 v=0
156274 On ch=1 n=a4 v=98
156274 On ch=1 n=e4 v=109
156276 On ch=1 n=c6 v=121
156292 Par ch=1 c=64 v=127
156342 On ch=1 n=c6 v=0
156342 On ch=1 n=e4 v=0
156344 On ch=1 n=a4 v=0
156488 On ch=1 n=a4 v=81
156498 On ch=1 n=e4 v=86
156554 On ch=1 n=a4 v=0
156558 On ch=1 n=e4 v=0
156704 On ch=1 n=g#4 v=108
156708 On ch=1 n=e4 v=92
156708 On ch=1 n=b5 v=117
156744 On ch=1 n=c6 v=86
156746 Par ch=1 c=64 v=63
156750 Par ch=1 c=64 v=0
156760 On ch=1 n=g#4 v=0
156764 On ch=1 n=e4 v=0
156774 On ch=1 n=b5 v=0
156818 On ch=1 n=c6 v=0
156822 On ch=1 n=b5 v=98
156862 On ch=1 n=e4 v=84
156898 On ch=1 n=c6 v=70
156902 On ch=1 n=b5 v=0
156914 On ch=1 n=e4 v=0
156948 On ch=1 n=c6 v=0
156966 On ch=1 n=b5 v=86
157020 On ch=1 n=c6 v=98
157078 On ch=1 n=c6 v=0
157112 On ch=1 n=a5 v=113
157130 Par ch=1 c=64 v=127
157150 On ch=1 n=a4 v=118
157152 On ch=1 n=b5 v=0
157152 On ch=1 n=a3 v=111
157194 On ch=1 n=a5 v=0
157218 On ch=1 n=a4 v=0
157230 On ch=1 n=a3 v=0
157580 On ch=1 n=a5 v=120
157638 Par ch=1 c=64 v=63
157654 Par ch=1 c=64 v=0
157664 On ch=1 n=a5 v=0
157704 On ch=1 n=a6 v=114
157716 Par ch=1 c=64 v=63
157730 Par ch=1 c=64 v=127
157796 On ch=1 n=a6 v=0
157824 On ch=1 n=b5 v=97
157888 On ch=1 n=a3 v=89
157894 On ch=1 n=b5 v=0
157910 On ch=1 n=b6 v=97
157974 On ch=1 n=c#4 v=85
157996 On ch=1 n=b6 v=0
158012 Par ch=1 c=64 v=63
158020 Par ch=1 c=64 v=0
158030 On ch=1 n=e4 v=106
158040 On ch=1 n=c#6 v=113
158056 On ch=1 n=a4 v=120
158060 Par ch=1 c=64 v=63
158070 Par ch=1 c=64 v=127
158118 On ch=1 n=c#6 v=0
158130 On ch=1 n=c#7 v=114
158188 On ch=1 n=a4 v=0
158196 On ch=1 n=c#7 v=0
158202 On ch=1 n=e4 v=0
158206 On ch=1 n=c#4 v=0
158268 On ch=1 n=a3 v=0
158284 On ch=1 n=a4 v=98
158364 On ch=1 n=a4 v=0
158488 On ch=1 n=a4 v=86
158496 On ch=1 n=a5 v=114
158566 On ch=1 n=a4 v=0
158570 On ch=1 n=a5 v=0
158610 On ch=1 n=a6 v=102
158668 On ch=1 n=a4 v=74
158680 Par ch=1 c=64 v=63
158694 On ch=1 n=a6 v=0
158700 On ch=1 n=b5 v=91
158706 Par ch=1 c=64 v=0
158770 On ch=1 n=b5 v=0
158788 On ch=1 n=b6 v=98
158796 On ch=1 n=a4 v=0
158810 On ch=1 n=a3 v=88
158824 Par ch=1 c=64 v=63
158836 Par ch=1 c=64 v=127
158844 On ch=1 n=c#4 v=85
158860 On ch=1 n=b6 v=0
158870 On ch=1 n=e4 v=78
158908 On ch=1 n=c#6 v=109
158922 On ch=1 n=a4 v=103
158946 On ch=1 n=a3 v=0
158976 On ch=1 n=c#6 v=0
158978 On ch=1 n=c#4 v=0
158988 On ch=1 n=e4 v=0
159000 On ch=1 n=c#7 v=105
159006 On ch=1 n=a4 v=0
159072 On ch=1 n=c#7 v=0
159112 On ch=1 n=a4 v=84
159124 On ch=1 n=b5 v=91
159192 On ch=1 n=a4 v=0
159194 On ch=1 n=b5 v=0
159218 On ch=1 n=b6 v=99
159280 On ch=1 n=b6 v=0
159296 On ch=1 n=a4 v=76
159328 On ch=1 n=a5 v=93
159372 On ch=1 n=a4 v=0
159398 On ch=1 n=a5 v=0
159424 On ch=1 n=a6 v=89
159484 On ch=1 n=a4 v=76
159502 On ch=1 n=a6 v=0
159522 On ch=1 n=a4 v=0
159540 On ch=1 n=g#5 v=101
159594 On ch=1 n=g#5 v=0
159630 Par ch=1 c=64 v=63
159640 On ch=1 n=g#6 v=97
159644 Par ch=1 c=64 v=0
159690 On ch=1 n=d3 v=106
159698 On ch=1 n=a3 v=103
159700 On ch=1 n=g#6 v=0
159710 On ch=1 n=f#3 v=101
159730 On ch=1 n=f#5 v=119
159734 Par ch=1 c=64 v=63
159744 Par ch=1 c=64 v=127
159786 On ch=1 n=d3 v=0
159786 On ch=1 n=d4 v=106
159798 On ch=1 n=f#5 v=0
159818 On ch=1 n=f#3 v=0
159834 On ch=1 n=a3 v=0
159834 On ch=1 n=f#6 v=104
159878 On ch=1 n=d4 v=0
159898 On ch=1 n=f#6 v=0
159946 On ch=1 n=g#5 v=108
159974 On ch=1 n=d4 v=84
160006 On ch=1 n=g#5 v=0
160030 On ch=1 n=g#6 v=103
160034 On ch=1 n=d4 v=0
160040 Par ch=1 c=64 v=63
160048 Par ch=1 c=64 v=0
160080 On ch=1 n=d#3 v=101
160104 On ch=1 n=f#3 v=79
160120 On ch=1 n=g#6 v=0
160142 On ch=1 n=a3 v=63
160142 On ch=1 n=a5 v=113
160150 On ch=1 n=d#4 v=121
160162 Par ch=1 c=64 v=63
160166 Par ch=1 c=64 v=127
160194 On ch=1 n=d#3 v=0
160198 On ch=1 n=f#3 v=0
160218 On ch=1 n=a5 v=0
160224 On ch=1 n=a3 v=0
160250 On ch=1 n=d#4 v=0
160262 On ch=1 n=a6 v=89
160338 On ch=1 n=d#4 v=95
160350 On ch=1 n=a6 v=0
160362 On ch=1 n=b5 v=99
160402 On ch=1 n=d#4 v=0
160412 Par ch=1 c=64 v=63
160420 Par ch=1 c=64 v=0
160424 On ch=1 n=b5 v=0
160464 On ch=1 n=e3 v=98
160472 On ch=1 n=b6 v=99
160514 On ch=1 n=g#3 v=80
160526 Par ch=1 c=64 v=63
160532 Par ch=1 c=64 v=127
160536 On ch=1 n=b6 v=0
160544 On ch=1 n=b3 v=87
160576 On ch=1 n=e4 v=126
160580 On ch=1 n=e3 v=0
160598 On ch=1 n=g#5 v=105
160626 On ch=1 n=g#3 v=0
160644 On ch=1 n=b3 v=0
160672 On ch=1 n=g#5 v=0
160682 On ch=1 n=e4 v=0
160692 On ch=1 n=g#6 v=98
160758 On ch=1 n=g#6 v=0
160778 On ch=1 n=e4 v=96
160816 On ch=1 n=e5 v=98
160868 On ch=1 n=e4 v=0
160882 On ch=1 n=e5 v=0
160916 On ch=1 n=e6 v=89
160952 Par ch=1 c=64 v=63
160962 Par ch=1 c=64 v=0
160974 On ch=1 n=e6 v=0
161022 On ch=1 n=e4 v=99
161038 On ch=1 n=a5 v=97
161108 On ch=1 n=a5 v=0
161116 On ch=1 n=e4 v=0
161134 On ch=1 n=a6 v=102
161210 On ch=1 n=a6 v=0
161210 On ch=1 n=e4 v=84
161248 On ch=1 n=b5 v=81
161294 On ch=1 n=a3 v=83
161302 On ch=1 n=b5 v=0
161302 On ch=1 n=e4 v=0
161324 On ch=1 n=b6 v=98
161366 On ch=1 n=c#4 v=95
161396 On ch=1 n=b6 v=0
161418 On ch=1 n=e4 v=78
161454 On ch=1 n=a3 v=0
161456 On ch=1 n=a4 v=116
161458 On ch=1 n=c#6 v=123
161460 Par ch=1 c=64 v=127
161512 On ch=1 n=c#4 v=0
161522 On ch=1 n=c#7 v=112
161526 On ch=1 n=c#6 v=0
161546 On ch=1 n=e4 v=0
161586 On ch=1 n=a4 v=0
161594 On ch=1 n=c#7 v=0
161698 On ch=1 n=a4 v=87
161782 On ch=1 n=a4 v=0
161906 On ch=1 n=a4 v=81
161908 Par ch=1 c=64 v=63
161914 Par ch=1 c=64 v=0
161918 On ch=1 n=a5 v=109
161984 On ch=1 n=a5 v=0
161990 On ch=1 n=a4 v=0
162030 On ch=1 n=a6 v=91
162102 On ch=1 n=a4 v=77
162114 On ch=1 n=a6 v=0
162126 On ch=1 n=b5 v=90
162192 On ch=1 n=b5 v=0
162200 On ch=1 n=a4 v=0
162228 On ch=1 n=b6 v=90
162252 On ch=1 n=a3 v=92
162280 On ch=1 n=c#4 v=89
162282 On ch=1 n=b6 v=0
162294 On ch=1 n=e4 v=78
162310 Par ch=1 c=64 v=127
162332 On ch=1 n=c#6 v=109
162348 On ch=1 n=a3 v=0
162362 On ch=1 n=a4 v=100
162386 On ch=1 n=c#4 v=0
162396 On ch=1 n=c#6 v=0
162400 On ch=1 n=e4 v=0
162420 On ch=1 n=c#7 v=105
162440 On ch=1 n=a4 v=0
162496 On ch=1 n=c#7 v=0
162552 On ch=1 n=b5 v=98
162554 On ch=1 n=a4 v=87
162620 On ch=1 n=b5 v=0
162630 On ch=1 n=a4 v=0
162644 On ch=1 n=b6 v=99
162714 On ch=1 n=b6 v=0
162750 On ch=1 n=a4 v=77
162756 On ch=1 n=a5 v=93
162768 Par ch=1 c=64 v=63
162778 Par ch=1 c=64 v=0
162824 On ch=1 n=a5 v=0
162838 On ch=1 n=a4 v=0
162858 On ch=1 n=a6 v=100
162920 On ch=1 n=a6 v=0
162948 On ch=1 n=a4 v=84
162972 On ch=1 n=g#5 v=104
163012 On ch=1 n=a4 v=0
163024 On ch=1 n=g#5 v=0
163062 On ch=1 n=g#6 v=101
163140 On ch=1 n=g#6 v=0
163142 Par ch=1 c=64 v=127
163144 On ch=1 n=d3 v=107
163152 On ch=1 n=a3 v=103
163162 On ch=1 n=f#3 v=97
163174 On ch=1 n=f#5 v=114
163214 On ch=1 n=d3 v=0
163226 On ch=1 n=f#3 v=0
163234 On ch=1 n=d4 v=100
163240 On ch=1 n=f#5 v=0
163250 On ch=1 n=a3 v=0
163266 On ch=1 n=f#6 v=109
163308 On ch=1 n=d4 v=0
163330 On ch=1 n=f#6 v=0
163344 Par ch=1 c=64 v=63
163352 Par ch=1 c=64 v=0
163378 On ch=1 n=b5 v=99
163404 On ch=1 n=d4 v=71
163426 On ch=1 n=c4 v=42
163436 On ch=1 n=b5 v=0
163468 On ch=1 n=d4 v=0
163468 On ch=1 n=b6 v=94
163470 On ch=1 n=c4 v=0
163516 On ch=1 n=e3 v=81
163520 On ch=1 n=b6 v=0
163574 On ch=1 n=g#3 v=95
163586 On ch=1 n=g#5 v=113
163590 On ch=1 n=b3 v=93
163592 Par ch=1 c=64 v=127
163626 On ch=1 n=e3 v=0
163654 On ch=1 n=e4 v=80
163656 On ch=1 n=g#5 v=0
163668 On ch=1 n=g#3 v=0
163682 On ch=1 n=b3 v=0
163692 On ch=1 n=g#6 v=96
163726 On ch=1 n=g#6 v=0
163734 On ch=1 n=e4 v=0
163750 Par ch=1 c=64 v=63
163758 Par ch=1 c=64 v=0
163810 On ch=1 n=e5 v=80
163810 On ch=1 n=e4 v=92
163872 On ch=1 n=e5 v=0
163888 On ch=1 n=e4 v=0
163916 On ch=1 n=a3 v=79
163922 On ch=1 n=e6 v=74
163966 On ch=1 n=e6 v=0
163992 On ch=1 n=c#4 v=92
164022 On ch=1 n=e4 v=87
164032 On ch=1 n=a5 v=109
164060 On ch=1 n=a4 v=118
164062 On ch=1 n=a3 v=0
164074 Par ch=1 c=64 v=127
164090 On ch=1 n=a6 v=97
164104 On ch=1 n=a5 v=0
164124 On ch=1 n=c#4 v=0
164148 On ch=1 n=a6 v=0
164152 On ch=1 n=e4 v=0
164180 On ch=1 n=a4 v=0
164470 Par ch=1 c=64 v=63
164476 Par ch=1 c=64 v=0
164490 On ch=1 n=a5 v=117
164562 On ch=1 n=a5 v=0
164604 On ch=1 n=a6 v=108
164678 On ch=1 n=a6 v=0
164712 On ch=1 n=b5 v=90
164774 On ch=1 n=b5 v=0
164804 On ch=1 n=a3 v=84
164806 On ch=1 n=b6 v=93
164864 On ch=1 n=c#4 v=77
164886 On ch=1 n=b6 v=0
164916 On ch=1 n=e4 v=76
164942 On ch=1 n=a3 v=0
164946 On ch=1 n=c#6 v=120
164948 On ch=1 n=a4 v=112
164948 Par ch=1 c=64 v=127
165006 On ch=1 n=c#4 v=0
165018 On ch=1 n=c#6 v=0
165026 On ch=1 n=e4 v=0
165040 On ch=1 n=a4 v=0
165052 On ch=1 n=c#7 v=88
165100 On ch=1 n=c#7 v=0
165186 On ch=1 n=a4 v=82
165250 On ch=1 n=a4 v=0
165390 Par ch=1 c=64 v=63
165396 On ch=1 n=a4 v=86
165398 Par ch=1 c=64 v=0
165404 On ch=1 n=a5 v=112
165472 On ch=1 n=a4 v=0
165474 On ch=1 n=a5 v=0
165518 On ch=1 n=a6 v=100
165596 On ch=1 n=a4 v=75
165598 On ch=1 n=a6 v=0
165610 On ch=1 n=b5 v=98
165680 On ch=1 n=b5 v=0
165688 On ch=1 n=a4 v=0
165710 On ch=1 n=b6 v=97
165740 On ch=1 n=a3 v=89
165764 On ch=1 n=c#4 v=90
165780 On ch=1 n=e4 v=75
165780 Par ch=1 c=64 v=127
165788 On ch=1 n=b6 v=0
165832 On ch=1 n=c#6 v=108
165850 On ch=1 n=a4 v=99
165856 On ch=1 n=a3 v=0
165878 On ch=1 n=c#4 v=0
165898 On ch=1 n=c#6 v=0
165900 On ch=1 n=e4 v=0
165922 On ch=1 n=c#7 v=105
165928 On ch=1 n=a4 v=0
165994 On ch=1 n=c#7 v=0
166050 On ch=1 n=a4 v=78
166052 On ch=1 n=b5 v=94
166110 On ch=1 n=a4 v=0
166118 On ch=1 n=b5 v=0
166148 On ch=1 n=b6 v=90
166216 On ch=1 n=b6 v=0
166220 Par ch=1 c=64 v=63
166232 Par ch=1 c=64 v=0
166256 On ch=1 n=a4 v=79
166266 On ch=1 n=a5 v=89
166330 On ch=1 n=a5 v=0
166334 On ch=1 n=a4 v=0
166374 On ch=1 n=a6 v=71
166420 On ch=1 n=a6 v=0
166448 On ch=1 n=a4 v=82
166476 On ch=1 n=g#5 v=103
166508 On ch=1 n=a4 v=0
166532 On ch=1 n=g#5 v=0
166586 On ch=1 n=g#6 v=79
166608 Par ch=1 c=64 v=127
166628 On ch=1 n=g#6 v=0
166634 On ch=1 n=d3 v=104
166642 On ch=1 n=a3 v=100
166648 On ch=1 n=f#3 v=96
166674 On ch=1 n=f#5 v=115
166714 On ch=1 n=d3 v=0
166718 On ch=1 n=d4 v=101
166730 On ch=1 n=f#3 v=0
166742 On ch=1 n=f#5 v=0
166750 On ch=1 n=a3 v=0
166784 On ch=1 n=f#6 v=98
166800 On ch=1 n=d4 v=0
166832 On ch=1 n=f#6 v=0
166860 Par ch=1 c=64 v=63
166870 Par ch=1 c=64 v=0
166884 On ch=1 n=d4 v=91
166886 On ch=1 n=g#5 v=103
166946 On ch=1 n=g#5 v=0
166970 On ch=1 n=d4 v=0
166982 On ch=1 n=g#6 v=103
167038 On ch=1 n=d#3 v=100
167054 On ch=1 n=f#3 v=82
167060 On ch=1 n=g#6 v=0
167074 On ch=1 n=a3 v=65
167090 On ch=1 n=a5 v=104
167106 Par ch=1 c=64 v=127
167114 On ch=1 n=d#4 v=109
167144 On ch=1 n=d#3 v=0
167162 On ch=1 n=a5 v=0
167162 On ch=1 n=f#3 v=0
167178 On ch=1 n=a3 v=0
167204 On ch=1 n=d#4 v=0
167212 On ch=1 n=a6 v=60
167264 On ch=1 n=a6 v=0
167286 On ch=1 n=b5 v=98
167292 On ch=1 n=d#4 v=90
167314 Par ch=1 c=64 v=63
167322 Par ch=1 c=64 v=0
167352 On ch=1 n=b5 v=0
167362 On ch=1 n=d#4 v=0
167410 On ch=1 n=b6 v=95
167432 On ch=1 n=e3 v=96
167468 On ch=1 n=b6 v=0
167474 On ch=1 n=g#3 v=90
167494 On ch=1 n=b3 v=93
167498 Par ch=1 c=64 v=127
167530 On ch=1 n=e3 v=0
167538 On ch=1 n=e4 v=107
167538 On ch=1 n=g#5 v=98
167572 On ch=1 n=g#3 v=0
167590 On ch=1 n=b3 v=0
167596 On ch=1 n=g#5 v=0
167616 On ch=1 n=g#6 v=104
167622 On ch=1 n=e4 v=0
167680 On ch=1 n=g#6 v=0
167716 On ch=1 n=e4 v=99
167744 On ch=1 n=e5 v=94
167782 Par ch=1 c=64 v=63
167788 Par ch=1 c=64 v=0
167804 On ch=1 n=e5 v=0
167804 On ch=1 n=e4 v=0
167832 On ch=1 n=e6 v=94
167890 On ch=1 n=e6 v=0
167944 On ch=1 n=a5 v=106
167946 On ch=1 n=e4 v=90
168020 On ch=1 n=a5 v=0
168024 On ch=1 n=e4 v=0
168066 On ch=1 n=a6 v=59
168120 On ch=1 n=e4 v=76
168134 On ch=1 n=a6 v=0
168150 On ch=1 n=b5 v=102
168214 On ch=1 n=e4 v=0
168220 On ch=1 n=b5 v=0
168226 On ch=1 n=a3 v=79
168282 On ch=1 n=b6 v=79
168310 On ch=1 n=c#4 v=79
168332 On ch=1 n=b6 v=0
168340 On ch=1 n=e4 v=69
168378 On ch=1 n=a3 v=0
168388 On ch=1 n=c#6 v=112
168390 On ch=1 n=a4 v=109
168392 Par ch=1 c=64 v=127
168434 On ch=1 n=c#4 v=0
168458 On ch=1 n=c#6 v=0
168460 On ch=1 n=e4 v=0
168478 On ch=1 n=c#7 v=113
168480 On ch=1 n=a4 v=0
168540 On ch=1 n=c#7 v=0
168610 On ch=1 n=a4 v=87
168688 On ch=1 n=a4 v=0
168824 On ch=1 n=a4 v=84
168828 Par ch=1 c=64 v=63
168836 Par ch=1 c=64 v=0
168848 On ch=1 n=a5 v=114
168902 On ch=1 n=a4 v=0
168920 On ch=1 n=a5 v=0
168966 On ch=1 n=a6 v=97
169018 On ch=1 n=a4 v=70
169048 On ch=1 n=a6 v=0
169064 On ch=1 n=b5 v=91
169116 On ch=1 n=a4 v=0
169132 On ch=1 n=b5 v=0
169168 On ch=1 n=b6 v=90
169182 On ch=1 n=a3 v=91
169214 On ch=1 n=c#4 v=79
169220 On ch=1 n=b6 v=0
169222 On ch=1 n=e4 v=63
169236 Par ch=1 c=64 v=127
169280 On ch=1 n=a3 v=0
169286 On ch=1 n=c#6 v=106
169302 On ch=1 n=a4 v=92
169306 On ch=1 n=c#4 v=0
169330 On ch=1 n=e4 v=0
169352 On ch=1 n=c#6 v=0
169372 On ch=1 n=c#7 v=108
169374 On ch=1 n=a4 v=0
169450 On ch=1 n=c#7 v=0
169488 On ch=1 n=a4 v=82
169496 On ch=1 n=b5 v=98
169562 On ch=1 n=b5 v=0
169566 On ch=1 n=a4 v=0
169594 On ch=1 n=b6 v=96
169662 On ch=1 n=b6 v=0
169688 Par ch=1 c=64 v=63
169688 On ch=1 n=a4 v=76
169696 Par ch=1 c=64 v=0
169708 On ch=1 n=a5 v=84
169732 On ch=1 n=b5 v=60
169772 On ch=1 n=a4 v=0
169774 On ch=1 n=a5 v=0
169784 On ch=1 n=b5 v=0
169808 On ch=1 n=a6 v=100
169878 On ch=1 n=a6 v=0
169878 On ch=1 n=a4 v=82
169926 On ch=1 n=g#5 v=89
169956 On ch=1 n=a4 v=0
169982 On ch=1 n=g#5 v=0
170018 On ch=1 n=g#6 v=107
170054 Par ch=1 c=64 v=127
170094 On ch=1 n=g#6 v=0
170094 On ch=1 n=d3 v=101
170102 On ch=1 n=a3 v=96
170116 On ch=1 n=f#3 v=80
170126 On ch=1 n=f#5 v=112
170158 On ch=1 n=f#3 v=0
170170 On ch=1 n=d3 v=0
170192 On ch=1 n=d4 v=93
170196 On ch=1 n=f#5 v=0
170200 On ch=1 n=a3 v=0
170226 On ch=1 n=f#6 v=104
170270 On ch=1 n=d4 v=0
170282 On ch=1 n=f#6 v=0
170298 Par ch=1 c=64 v=63
170308 Par ch=1 c=64 v=0
170330 On ch=1 n=b5 v=101
170340 On ch=1 n=d4 v=83
170396 On ch=1 n=b5 v=0
170418 On ch=1 n=d4 v=0
170420 On ch=1 n=b6 v=75
170456 On ch=1 n=e3 v=90
170470 On ch=1 n=b6 v=0
170518 Par ch=1 c=64 v=127
170520 On ch=1 n=g#3 v=75
170534 On ch=1 n=b3 v=93
170540 On ch=1 n=g#5 v=100
170572 On ch=1 n=e3 v=0
170578 On ch=1 n=e4 v=88
170604 On ch=1 n=g#5 v=0
170616 On ch=1 n=g#3 v=0
170640 On ch=1 n=b3 v=0
170652 On ch=1 n=e4 v=0
170654 On ch=1 n=g#6 v=95
170702 On ch=1 n=g#6 v=0
170706 Par ch=1 c=64 v=63
170712 Par ch=1 c=64 v=0
170732 On ch=1 n=e5 v=103
170750 On ch=1 n=e4 v=84
170802 On ch=1 n=e5 v=0
170822 On ch=1 n=e4 v=0
170840 On ch=1 n=a3 v=75
170938 On ch=1 n=c#4 v=83
170962 On ch=1 n=e4 v=101
170972 On ch=1 n=a5 v=102
170980 Par ch=1 c=64 v=127
170986 On ch=1 n=a4 v=113
170994 On ch=1 n=a6 v=109
171032 On ch=1 n=a5 v=0
171046 On ch=1 n=a6 v=0
171110 On ch=1 n=a4 v=0
171126 On ch=1 n=c#4 v=0
171156 On ch=1 n=e4 v=0
171214 On ch=1 n=a4 v=84
171286 On ch=1 n=a4 v=0
171312 On ch=1 n=a3 v=0
171432 On ch=1 n=c#6 v=123
171432 On ch=1 n=c#7 v=119
171434 On ch=1 n=a4 v=85
171490 On ch=1 n=c#6 v=0
171496 On ch=1 n=c#7 v=0
171518 On ch=1 n=a4 v=0
171682 On ch=1 n=a4 v=64
171810 On ch=1 n=c#6 v=116
171820 On ch=1 n=c#7 v=110
171850 On ch=1 n=a6 v=50
171854 On ch=1 n=c#7 v=0
171854 On ch=1 n=a3 v=80
171862 On ch=1 n=a4 v=0
171870 On ch=1 n=c#6 v=0
171896 On ch=1 n=a6 v=0
171898 On ch=1 n=c#4 v=76
171926 On ch=1 n=e4 v=86
171936 On ch=1 n=c#7 v=113
171936 On ch=1 n=c#6 v=113
171944 On ch=1 n=a6 v=107
171946 On ch=1 n=a4 v=120
171994 Par ch=1 c=64 v=63
172004 Par ch=1 c=64 v=0
172120 Par ch=1 c=64 v=63
172124 Par ch=1 c=64 v=127
172156 On ch=1 n=a4 v=0
172218 On ch=1 n=a4 v=63
172300 On ch=1 n=c#4 v=0
172336 On ch=1 n=a4 v=0
172346 On ch=1 n=e4 v=0
172400 On ch=1 n=a6 v=0
172434 On ch=1 n=a4 v=88
172444 On ch=1 n=c#7 v=0
172446 On ch=1 n=c#6 v=0
172504 On ch=1 n=a3 v=0
172528 On ch=1 n=a4 v=0
172604 On ch=1 n=a4 v=78
172686 On ch=1 n=a3 v=89
172742 On ch=1 n=c#4 v=88
172760 On ch=1 n=a4 v=0
172794 On ch=1 n=e4 v=63
172796 On ch=1 n=c#6 v=98
172802 Par ch=1 c=64 v=63
172806 Par ch=1 c=64 v=0
172832 On ch=1 n=e6 v=84
172868 On ch=1 n=a6 v=99
172878 On ch=1 n=a4 v=120
172878 Par ch=1 c=64 v=63
172884 Par ch=1 c=64 v=127
172892 On ch=1 n=c#7 v=109
173048 On ch=1 n=a4 v=0
173094 On ch=1 n=c#4 v=0
173102 On ch=1 n=e4 v=0
173104 On ch=1 n=c#6 v=0
173144 On ch=1 n=a4 v=76
173168 On ch=1 n=e6 v=0
173194 On ch=1 n=c#7 v=0
173202 On ch=1 n=a6 v=0
173234 On ch=1 n=a4 v=0
173234 On ch=1 n=a3 v=0
173340 On ch=1 n=a4 v=81
173442 On ch=1 n=a4 v=0
173510 On ch=1 n=a4 v=83
173608 On ch=1 n=a3 v=91
173646 On ch=1 n=c#4 v=95
173654 On ch=1 n=a4 v=0
173696 On ch=1 n=e4 v=57
173702 Par ch=1 c=64 v=63
173714 Par ch=1 c=64 v=0
173752 On ch=1 n=a4 v=122
173774 Par ch=1 c=64 v=63
173776 On ch=1 n=d7 v=120
173788 Par ch=1 c=64 v=127
173880 On ch=1 n=a4 v=0
173888 On ch=1 n=c#7 v=107
173914 On ch=1 n=e4 v=0
173934 On ch=1 n=c#4 v=0
173936 On ch=1 n=d7 v=0
173954 On ch=1 n=a3 v=0
174002 On ch=1 n=a4 v=77
174008 On ch=1 n=b6 v=99
174018 On ch=1 n=c#7 v=0
174082 On ch=1 n=a4 v=0
174102 On ch=1 n=c#7 v=105
174134 On ch=1 n=b6 v=0
174196 Par ch=1 c=64 v=63
174206 Par ch=1 c=64 v=0
174210 On ch=1 n=d7 v=104
174234 On ch=1 n=c#7 v=0
174244 On ch=1 n=a4 v=81
174266 Par ch=1 c=64 v=63
174282 Par ch=1 c=64 v=127
174318 On ch=1 n=c#7 v=79
174328 On ch=1 n=a4 v=0
174370 On ch=1 n=d7 v=0
174386 On ch=1 n=a4 v=86
174392 On ch=1 n=b6 v=94
174418 On ch=1 n=c#7 v=0
174484 On ch=1 n=a4 v=0
174490 On ch=1 n=c#7 v=100
174524 On ch=1 n=b6 v=0
174590 On ch=1 n=d3 v=113
174594 On ch=1 n=c#7 v=0
174608 On ch=1 n=f#3 v=107
174608 On ch=1 n=a3 v=94
174620 Par ch=1 c=64 v=63
174628 Par ch=1 c=64 v=0
174638 On ch=1 n=d7 v=120
174648 On ch=1 n=f#6 v=115
174676 On ch=1 n=d4 v=104
174686 On ch=1 n=d3 v=0
174690 Par ch=1 c=64 v=63
174706 Par ch=1 c=64 v=127
174726 On ch=1 n=f#3 v=0
174728 On ch=1 n=a3 v=0
174780 On ch=1 n=d4 v=0
174884 On ch=1 n=d4 v=84
174966 On ch=1 n=d4 v=0
175084 Par ch=1 c=64 v=63
175090 Par ch=1 c=64 v=0
175108 On ch=1 n=d4 v=107
175182 On ch=1 n=d4 v=0
175334 On ch=1 n=d4 v=108
175352 On ch=1 n=f#6 v=0
175354 On ch=1 n=d7 v=0
175396 On ch=1 n=a3 v=68
175404 On ch=1 n=d4 v=0
175498 On ch=1 n=c#4 v=89
175516 On ch=1 n=e4 v=89
175548 On ch=1 n=a3 v=0
175556 Par ch=1 c=64 v=127
175562 On ch=1 n=a4 v=117
175566 On ch=1 n=d7 v=112
175566 On ch=1 n=c#7 v=109
175566 On ch=1 n=a6 v=111
175570 On ch=1 n=e6 v=114
175646 On ch=1 n=e6 v=0
175666 On ch=1 n=a6 v=0
175674 On ch=1 n=a4 v=0
175674 On ch=1 n=e4 v=0
175676 On ch=1 n=d7 v=0
175700 On ch=1 n=c#7 v=0
175714 On ch=1 n=c#4 v=0
175772 On ch=1 n=a4 v=85
175780 On ch=1 n=c#7 v=57
175786 On ch=1 n=d7 v=67
175792 On ch=1 n=e6 v=54
175794 On ch=1 n=a6 v=59
175828 On ch=1 n=d7 v=0
175842 On ch=1 n=e6 v=0
175844 On ch=1 n=a6 v=0
175848 On ch=1 n=a4 v=0
175850 On ch=1 n=c#7 v=0
175948 Par ch=1 c=64 v=63
175958 Par ch=1 c=64 v=0
175982 On ch=1 n=a4 v=104
175994 On ch=1 n=d7 v=109
175998 On ch=1 n=c#7 v=101
175998 On ch=1 n=e6 v=113
176002 On ch=1 n=a6 v=101
176018 On ch=1 n=a3 v=28
176036 On ch=1 n=e6 v=0
176038 On ch=1 n=a6 v=0
176046 On ch=1 n=a4 v=0
176052 On ch=1 n=a3 v=0
176056 On ch=1 n=d7 v=0
176072 On ch=1 n=c#7 v=0
176206 On ch=1 n=a4 v=107
176210 On ch=1 n=a6 v=123
176220 On ch=1 n=d7 v=108
176220 On ch=1 n=e6 v=113
176224 On ch=1 n=c#7 v=97
176256 On ch=1 n=d7 v=0
176260 On ch=1 n=e6 v=0
176276 On ch=1 n=a4 v=0
176278 On ch=1 n=a6 v=0
176306 On ch=1 n=c#7 v=0
176426 On ch=1 n=e3 v=107
176428 On ch=1 n=b3 v=104
176434 On ch=1 n=g#3 v=101
176442 Par ch=1 c=64 v=127
176446 On ch=1 n=b6 v=117
176452 On ch=1 n=g#6 v=123
176452 On ch=1 n=e6 v=124
176468 On ch=1 n=e4 v=106
176508 On ch=1 n=e6 v=0
176508 On ch=1 n=e3 v=0
176526 On ch=1 n=g#3 v=0
176528 On ch=1 n=g#6 v=0
176532 On ch=1 n=b3 v=0
176542 On ch=1 n=b6 v=0
176586 On ch=1 n=e4 v=0
176690 On ch=1 n=e4 v=85
176782 On ch=1 n=e4 v=0
176924 On ch=1 n=e4 v=88
177010 On ch=1 n=e4 v=0
177042 Par ch=1 c=64 v=63
177052 Par ch=1 c=64 v=0
177114 On ch=1 n=e4 v=87
177120 On ch=1 n=e7 v=96
177120 On ch=1 n=e6 v=103
177152 On ch=1 n=e7 v=0
177162 On ch=1 n=e6 v=0
177204 On ch=1 n=e4 v=0
177212 On ch=1 n=a3 v=79
177292 On ch=1 n=c#4 v=87
177334 On ch=1 n=e4 v=64
177368 On ch=1 n=c#6 v=106
177382 On ch=1 n=e6 v=85
177386 Par ch=1 c=64 v=127
177388 On ch=1 n=a4 v=114
177398 On ch=1 n=a3 v=0
177408 On ch=1 n=a6 v=93
177446 On ch=1 n=c#6 v=0
177452 On ch=1 n=c#7 v=107
177486 On ch=1 n=e6 v=0
177542 On ch=1 n=a6 v=0
177542 On ch=1 n=a4 v=0
177562 On ch=1 n=c#7 v=0
177568 On ch=1 n=e4 v=0
177578 On ch=1 n=c#4 v=0
177698 On ch=1 n=a4 v=32
177762 On ch=1 n=a4 v=0
177886 On ch=1 n=a4 v=79
177978 On ch=1 n=a4 v=0
178078 On ch=1 n=a4 v=86
178100 Par ch=1 c=64 v=63
178108 Par ch=1 c=64 v=0
178172 On ch=1 n=a3 v=88
178196 On ch=1 n=c#4 v=94
178202 On ch=1 n=a4 v=0
178222 On ch=1 n=c#6 v=88
178248 On ch=1 n=e4 v=67
178262 On ch=1 n=e6 v=87
178288 Par ch=1 c=64 v=127
178294 On ch=1 n=a6 v=97
178296 On ch=1 n=a4 v=118
178312 On ch=1 n=c#6 v=0
178322 On ch=1 n=c#7 v=109
178378 On ch=1 n=e6 v=0
178450 On ch=1 n=a6 v=0
178452 On ch=1 n=a4 v=0
178466 On ch=1 n=c#7 v=0
178472 On ch=1 n=e4 v=0
178478 On ch=1 n=c#4 v=0
178534 On ch=1 n=a3 v=0
178562 On ch=1 n=a4 v=73
178662 On ch=1 n=a4 v=0
178792 On ch=1 n=a4 v=84
178898 On ch=1 n=a4 v=0
178990 On ch=1 n=a4 v=96
179108 On ch=1 n=a3 v=91
179132 On ch=1 n=a4 v=0
179140 On ch=1 n=c#4 v=94
179176 On ch=1 n=e4 v=78
179222 On ch=1 n=a4 v=120
179226 Par ch=1 c=64 v=63
179230 On ch=1 n=d7 v=117
179234 Par ch=1 c=64 v=0
179338 On ch=1 n=c#7 v=100
179346 Par ch=1 c=64 v=63
179348 On ch=1 n=a4 v=0
179352 Par ch=1 c=64 v=127
179374 On ch=1 n=e4 v=0
179374 On ch=1 n=c#4 v=0
179384 On ch=1 n=d7 v=0
179416 On ch=1 n=a3 v=0
179456 On ch=1 n=a4 v=90
179458 On ch=1 n=b6 v=76
179460 On ch=1 n=c#7 v=0
179530 On ch=1 n=a4 v=0
179546 On ch=1 n=c#7 v=106
179584 On ch=1 n=b6 v=0
179636 Par ch=1 c=64 v=63
179646 Par ch=1 c=64 v=0
179652 On ch=1 n=d7 v=103
179656 On ch=1 n=a4 v=103
179666 On ch=1 n=c#7 v=0
179746 On ch=1 n=a4 v=0
179764 On ch=1 n=c#7 v=100
179810 On ch=1 n=d7 v=0
179844 On ch=1 n=b6 v=93
179862 On ch=1 n=c#7 v=0
179870 On ch=1 n=a4 v=92
179924 On ch=1 n=a4 v=0
179944 On ch=1 n=c#7 v=104
179972 On ch=1 n=b6 v=0
180044 On ch=1 n=c#7 v=0
180044 On ch=1 n=d3 v=97
180052 On ch=1 n=a3 v=102
180052 On ch=1 n=f#3 v=108
180074 Par ch=1 c=64 v=127
180086 On ch=1 n=d7 v=109
180100 On ch=1 n=d3 v=0
180106 On ch=1 n=d4 v=116
180120 On ch=1 n=f#6 v=58
180138 On ch=1 n=f#3 v=0
180150 On ch=1 n=d7 v=0
180164 On ch=1 n=f#6 v=0
180172 On ch=1 n=a3 v=0
180208 On ch=1 n=d4 v=0
180330 On ch=1 n=d4 v=90
180440 On ch=1 n=d4 v=0
180562 On ch=1 n=d4 v=102
180662 On ch=1 n=d4 v=0
180750 On ch=1 n=d4 v=97
180806 On ch=1 n=a3 v=90
180870 On ch=1 n=d4 v=0
180902 On ch=1 n=c#4 v=98
180936 On ch=1 n=e4 v=83
180954 Par ch=1 c=64 v=63
180962 Par ch=1 c=64 v=0
180968 On ch=1 n=d7 v=111
180972 On ch=1 n=c#7 v=113
180972 On ch=1 n=e6 v=117
180974 On ch=1 n=a6 v=109
180978 On ch=1 n=a3 v=0
180992 On ch=1 n=a4 v=114
181052 Par ch=1 c=64 v=63
181058 Par ch=1 c=64 v=127
181098 On ch=1 n=d7 v=0
181144 On ch=1 n=a4 v=0
181154 On ch=1 n=e4 v=0
181190 On ch=1 n=c#4 v=0
181232 On ch=1 n=a4 v=84
181242 On ch=1 n=e6 v=0
181270 On ch=1 n=a6 v=0
181296 On ch=1 n=c#7 v=0
181332 On ch=1 n=a4 v=0
181450 On ch=1 n=a4 v=100
181544 On ch=1 n=a4 v=0
181626 On ch=1 n=a4 v=92
181730 On ch=1 n=a4 v=0
181820 On ch=1 n=e3 v=109
181828 On ch=1 n=b3 v=104
181836 On ch=1 n=g#3 v=105
181850 On ch=1 n=b6 v=97
181852 On ch=1 n=c#7 v=107
181854 On ch=1 n=e6 v=107
181854 On ch=1 n=g#6 v=103
181886 On ch=1 n=e4 v=104
181892 Par ch=1 c=64 v=63
181898 On ch=1 n=e3 v=0
181898 Par ch=1 c=64 v=0
181908 On ch=1 n=e6 v=0
181914 On ch=1 n=g#6 v=0
181920 On ch=1 n=g#3 v=0
181922 On ch=1 n=c#7 v=0
181922 On ch=1 n=b6 v=0
181932 On ch=1 n=b3 v=0
181968 On ch=1 n=e4 v=0
182084 On ch=1 n=e4 v=104
182096 On ch=1 n=e6 v=112
182098 On ch=1 n=c#7 v=99
182100 On ch=1 n=g#6 v=95
182102 On ch=1 n=b6 v=83
182124 On ch=1 n=e6 v=0
182134 On ch=1 n=g#6 v=0
182140 On ch=1 n=c#7 v=0
182142 On ch=1 n=b6 v=0
182160 On ch=1 n=e4 v=0
182304 On ch=1 n=e4 v=104
182320 On ch=1 n=e6 v=118
182324 On ch=1 n=c#7 v=104
182326 On ch=1 n=g#6 v=101
182326 On ch=1 n=b6 v=94
182360 On ch=1 n=g#6 v=0
182362 On ch=1 n=e6 v=0
182366 On ch=1 n=c#7 v=0
182382 On ch=1 n=e4 v=0
182386 On ch=1 n=b6 v=0
182518 On ch=1 n=e4 v=101
182536 On ch=1 n=c#7 v=115
182538 On ch=1 n=e6 v=121
182540 On ch=1 n=g#6 v=108
182542 On ch=1 n=b6 v=98
182580 On ch=1 n=g#6 v=0
182586 On ch=1 n=e4 v=0
182588 On ch=1 n=e6 v=0
182600 On ch=1 n=c#7 v=0
182606 On ch=1 n=b6 v=0
182756 On ch=1 n=a4 v=99
182780 Par ch=1 c=64 v=63
182782 On ch=1 n=a6 v=117
182784 Par ch=1 c=64 v=127
182844 On ch=1 n=a6 v=0
182844 On ch=1 n=a4 v=0
182952 On ch=1 n=e5 v=16
182972 On ch=1 n=c#5 v=83
182994 On ch=1 n=e5 v=0
183046 On ch=1 n=c#5 v=0
183084 On ch=1 n=e5 v=42
183138 On ch=1 n=e6 v=77
183142 Par ch=1 c=64 v=63
183160 Par ch=1 c=64 v=0
183168 On ch=1 n=a6 v=82
183218 On ch=1 n=e5 v=0
183218 On ch=1 n=c#7 v=101
183222 On ch=1 n=e6 v=0
183228 On ch=1 n=a4 v=66
183250 Par ch=1 c=64 v=63
183252 On ch=1 n=a6 v=0
183270 Par ch=1 c=64 v=127
183300 On ch=1 n=c#7 v=0
183316 On ch=1 n=a4 v=0
183328 On ch=1 n=e5 v=31
183454 On ch=1 n=c#5 v=59
183470 On ch=1 n=e5 v=0
183528 On ch=1 n=c#5 v=0
183558 On ch=1 n=e5 v=50
183560 On ch=1 n=c#7 v=107
183636 On ch=1 n=c#7 v=0
183668 On ch=1 n=e6 v=87
183674 On ch=1 n=a4 v=76
183678 On ch=1 n=a6 v=92
183680 On ch=1 n=e5 v=0
183686 Par ch=1 c=64 v=63
183690 On ch=1 n=c#7 v=100
183704 Par ch=1 c=64 v=0
183748 On ch=1 n=e6 v=0
183760 On ch=1 n=a6 v=0
183766 Par ch=1 c=64 v=63
183772 On ch=1 n=a4 v=0
183790 Par ch=1 c=64 v=127
183808 On ch=1 n=e5 v=22
183866 On ch=1 n=c#5 v=76
183896 On ch=1 n=e5 v=0
183960 On ch=1 n=c#5 v=0
183982 On ch=1 n=e5 v=45
184118 On ch=1 n=a4 v=83
184130 On ch=1 n=e5 v=0
184210 On ch=1 n=a4 v=0
184226 On ch=1 n=e5 v=41
184320 On ch=1 n=c#5 v=85
184334 On ch=1 n=e5 v=0
184376 On ch=1 n=c#7 v=0
184404 On ch=1 n=e5 v=70
184408 On ch=1 n=c#5 v=0
184446 On ch=1 n=e6 v=80
184504 On ch=1 n=a6 v=71
184532 On ch=1 n=c#7 v=113
184536 On ch=1 n=a4 v=81
184554 On ch=1 n=e5 v=0
184600 On ch=1 n=e6 v=0
184624 Par ch=1 c=64 v=63
184658 Par ch=1 c=64 v=0
184664 On ch=1 n=e5 v=37
184668 On ch=1 n=a6 v=0
184700 Par ch=1 c=64 v=63
184736 Par ch=1 c=64 v=127
184754 On ch=1 n=a4 v=0
184770 On ch=1 n=c#5 v=76
184816 On ch=1 n=e5 v=0
184870 On ch=1 n=e5 v=52
184882 On ch=1 n=c#5 v=0
184988 On ch=1 n=a4 v=88
185020 On ch=1 n=e5 v=0
185102 On ch=1 n=e5 v=50
185122 On ch=1 n=a4 v=0
185134 On ch=1 n=c#7 v=0
185194 On ch=1 n=c#5 v=82
185220 On ch=1 n=e5 v=0
185286 On ch=1 n=c#5 v=0
185290 On ch=1 n=e5 v=70
185396 On ch=1 n=a4 v=84
185414 On ch=1 n=d7 v=111
185424 On ch=1 n=e5 v=0
185468 Par ch=1 c=64 v=63
185500 On ch=1 n=e5 v=52
185504 Par ch=1 c=64 v=0
185510 On ch=1 n=a4 v=0
185520 On ch=1 n=c#7 v=97
185556 Par ch=1 c=64 v=63
185562 On ch=1 n=d7 v=0
185594 On ch=1 n=c#5 v=82
185596 Par ch=1 c=64 v=127
185614 On ch=1 n=b6 v=93
185632 On ch=1 n=e5 v=0
185644 On ch=1 n=c#7 v=0
185690 On ch=1 n=e5 v=65
185696 On ch=1 n=c#5 v=0
185716 On ch=1 n=c#7 v=94
185764 On ch=1 n=b6 v=0
185792 On ch=1 n=a4 v=84
185810 Par ch=1 c=64 v=63
185818 On ch=1 n=e5 v=0
185838 On ch=1 n=d7 v=101
185838 Par ch=1 c=64 v=0
185856 On ch=1 n=c#7 v=0
185892 On ch=1 n=e5 v=59
185912 On ch=1 n=a4 v=0
185930 On ch=1 n=c#7 v=89
185976 On ch=1 n=d7 v=0
186010 On ch=1 n=c#5 v=75
186026 On ch=1 n=e5 v=0
186040 On ch=1 n=b6 v=93
186042 On ch=1 n=c#7 v=0
186104 On ch=1 n=c#5 v=0
186106 On ch=1 n=e5 v=59
186132 On ch=1 n=c#7 v=106
186170 On ch=1 n=b6 v=0
186230 On ch=1 n=a4 v=72
186234 On ch=1 n=c#7 v=0
186240 On ch=1 n=e5 v=0
186260 On ch=1 n=d7 v=111
186268 Par ch=1 c=64 v=127
186372 On ch=1 n=f#5 v=77
186444 On ch=1 n=a4 v=0
186494 On ch=1 n=f#5 v=0
186496 On ch=1 n=d5 v=62
186546 On ch=1 n=d7 v=0
186564 On ch=1 n=f#5 v=79
186596 On ch=1 n=d5 v=0
186664 On ch=1 n=a4 v=78
186690 On ch=1 n=f#5 v=0
186788 On ch=1 n=f#5 v=96
186848 On ch=1 n=a4 v=0
186878 On ch=1 n=d5 v=84
186894 On ch=1 n=f#5 v=0
186970 On ch=1 n=f#5 v=86
186992 On ch=1 n=d5 v=0
187070 On ch=1 n=f#5 v=0
187080 On ch=1 n=a4 v=76
187092 On ch=1 n=d7 v=111
187116 On ch=1 n=c#7 v=91
187122 Par ch=1 c=64 v=63
187134 Par ch=1 c=64 v=0
187172 On ch=1 n=d7 v=0
187176 On ch=1 n=c#7 v=0
187188 On ch=1 n=e5 v=63
187210 On ch=1 n=a4 v=0
187292 On ch=1 n=c#5 v=88
187308 On ch=1 n=d7 v=108
187310 On ch=1 n=e5 v=0
187326 On ch=1 n=c#7 v=86
187366 On ch=1 n=c#7 v=0
187386 On ch=1 n=d7 v=0
187388 On ch=1 n=e5 v=62
187406 On ch=1 n=c#5 v=0
187512 On ch=1 n=a4 v=78
187524 On ch=1 n=e5 v=0
187524 On ch=1 n=d7 v=112
187540 On ch=1 n=c#7 v=104
187602 On ch=1 n=d7 v=0
187604 On ch=1 n=c#7 v=0
187614 On ch=1 n=e5 v=62
187632 On ch=1 n=a4 v=0
187728 On ch=1 n=c#5 v=84
187740 On ch=1 n=e5 v=0
187740 On ch=1 n=d7 v=113
187762 On ch=1 n=c#7 v=107
187804 On ch=1 n=e5 v=80
187806 On ch=1 n=c#5 v=0
187818 On ch=1 n=d7 v=0
187836 On ch=1 n=c#7 v=0
187948 On ch=1 n=e5 v=0
187960 On ch=1 n=e4 v=109
187962 Par ch=1 c=64 v=127
187976 On ch=1 n=b6 v=124
188084 On ch=1 n=e5 v=82
188140 On ch=1 n=e4 v=0
188194 On ch=1 n=b4 v=72
188206 On ch=1 n=e5 v=0
188270 On ch=1 n=e5 v=71
188290 On ch=1 n=b4 v=0
188410 On ch=1 n=e5 v=0
188420 On ch=1 n=e4 v=111
188422 Par ch=1 c=64 v=63
188436 Par ch=1 c=64 v=0
188468 Par ch=1 c=64 v=63
188486 Par ch=1 c=64 v=127
188524 On ch=1 n=e5 v=80
188596 On ch=1 n=b6 v=0
188638 On ch=1 n=b4 v=87
188644 On ch=1 n=e5 v=0
188648 On ch=1 n=e7 v=113
188672 On ch=1 n=e4 v=0
188708 On ch=1 n=e5 v=88
188722 On ch=1 n=b4 v=0
188724 On ch=1 n=e7 v=0
188776 On ch=1 n=e5 v=0
188932 On ch=1 n=a3 v=22
188976 On ch=1 n=c#6 v=81
188978 Par ch=1 c=64 v=63
188988 Par ch=1 c=64 v=0
189016 On ch=1 n=e6 v=86
189022 On ch=1 n=c#4 v=89
189046 On ch=1 n=e4 v=93
189046 Par ch=1 c=64 v=63
189052 On ch=1 n=a6 v=91
189058 Par ch=1 c=64 v=127
189078 On ch=1 n=a4 v=117
189088 On ch=1 n=c#7 v=110
189092 On ch=1 n=c#6 v=0
189160 On ch=1 n=e6 v=0
189258 On ch=1 n=a4 v=0
189296 On ch=1 n=c#7 v=0
189322 On ch=1 n=a6 v=0
189330 On ch=1 n=c#4 v=0
189332 On ch=1 n=e4 v=0
189372 On ch=1 n=a3 v=0
189384 On ch=1 n=a4 v=44
189524 On ch=1 n=a4 v=0
189642 On ch=1 n=a4 v=97
189780 On ch=1 n=a4 v=0
189856 On ch=1 n=a4 v=62
189976 On ch=1 n=a3 v=85
189998 On ch=1 n=a4 v=0
190008 On ch=1 n=c#4 v=90
190036 On ch=1 n=c#6 v=89
190042 On ch=1 n=e4 v=83
190074 Par ch=1 c=64 v=63
190076 On ch=1 n=e6 v=86
190084 Par ch=1 c=64 v=0
190098 On ch=1 n=a6 v=97
190100 On ch=1 n=a4 v=120
190130 On ch=1 n=c#7 v=108
190150 On ch=1 n=c#6 v=0
190156 Par ch=1 c=64 v=63
190164 Par ch=1 c=64 v=127
190264 On ch=1 n=a4 v=0
190314 On ch=1 n=c#4 v=0
190324 On ch=1 n=e4 v=0
190364 On ch=1 n=e6 v=0
190380 On ch=1 n=c#7 v=0
190396 On ch=1 n=a6 v=0
190396 On ch=1 n=a4 v=52
190404 On ch=1 n=a3 v=0
190556 On ch=1 n=a4 v=0
190662 On ch=1 n=a4 v=97
190754 On ch=1 n=a4 v=0
190862 On ch=1 n=a4 v=86
191008 On ch=1 n=a3 v=84
191044 On ch=1 n=a4 v=0
191048 On ch=1 n=c#4 v=88
191080 On ch=1 n=e4 v=74
191120 On ch=1 n=a4 v=113
191122 Par ch=1 c=64 v=63
191122 On ch=1 n=d7 v=118
191132 Par ch=1 c=64 v=0
191182 Par ch=1 c=64 v=63
191198 Par ch=1 c=64 v=127
191216 On ch=1 n=c#7 v=101
191234 On ch=1 n=a4 v=0
191244 On ch=1 n=e4 v=0
191250 On ch=1 n=c#4 v=0
191260 On ch=1 n=d7 v=0
191322 On ch=1 n=a3 v=0
191338 On ch=1 n=b6 v=99
191352 On ch=1 n=a4 v=85
191354 On ch=1 n=c#7 v=0
191426 On ch=1 n=a4 v=0
191434 On ch=1 n=c#7 v=104
191474 On ch=1 n=b6 v=0
191478 Par ch=1 c=64 v=63
191486 Par ch=1 c=64 v=0
191552 On ch=1 n=d7 v=100
191558 On ch=1 n=c#7 v=0
191558 On ch=1 n=a4 v=102
191640 On ch=1 n=a4 v=0
191656 On ch=1 n=c#7 v=90
191700 On ch=1 n=d7 v=0
191742 On ch=1 n=b6 v=81
191752 On ch=1 n=c#7 v=0
191784 On ch=1 n=a4 v=97
191848 On ch=1 n=c#7 v=113
191854 On ch=1 n=a4 v=0
191872 On ch=1 n=b6 v=0
191942 On ch=1 n=c#7 v=0
191952 On ch=1 n=d3 v=120
191964 On ch=1 n=a3 v=98
191970 On ch=1 n=f#3 v=104
191980 Par ch=1 c=64 v=127
191990 On ch=1 n=d7 v=109
192010 On ch=1 n=f#6 v=106
192028 On ch=1 n=d4 v=106
192038 On ch=1 n=f#6 v=0
192040 On ch=1 n=d3 v=0
192054 On ch=1 n=c4 v=49
192056 On ch=1 n=f#3 v=0
192060 On ch=1 n=d7 v=0
192062 On ch=1 n=a3 v=0
192102 On ch=1 n=c4 v=0
192114 On ch=1 n=d4 v=0
192230 On ch=1 n=d4 v=77
192300 On ch=1 n=d4 v=0
192458 On ch=1 n=d4 v=106
192544 On ch=1 n=d4 v=0
192680 On ch=1 n=d4 v=103
192744 On ch=1 n=a3 v=87
192778 On ch=1 n=d4 v=0
192852 On ch=1 n=c#4 v=99
192866 Par ch=1 c=64 v=63
192868 On ch=1 n=e4 v=96
192878 Par ch=1 c=64 v=0
192894 On ch=1 n=c#7 v=114
192896 On ch=1 n=a6 v=106
192898 On ch=1 n=d7 v=104
192898 On ch=1 n=e6 v=109
192914 On ch=1 n=a3 v=0
192920 On ch=1 n=a4 v=113
192974 On ch=1 n=d7 v=0
192984 On ch=1 n=c#4 v=0
192992 Par ch=1 c=64 v=63
192994 Par ch=1 c=64 v=127
193020 On ch=1 n=e4 v=0
193046 On ch=1 n=c#4 v=62
193058 On ch=1 n=a4 v=0
193090 On ch=1 n=c#4 v=0
193158 On ch=1 n=a4 v=82
193200 On ch=1 n=e6 v=0
193228 On ch=1 n=a6 v=0
193244 On ch=1 n=c#7 v=0
193248 On ch=1 n=a4 v=0
193346 On ch=1 n=a4 v=99
193450 On ch=1 n=a4 v=0
193548 On ch=1 n=a4 v=92
193630 On ch=1 n=a4 v=0
193716 On ch=1 n=e3 v=109
193738 On ch=1 n=b3 v=99
193744 On ch=1 n=g#3 v=100
193768 On ch=1 n=b6 v=92
193768 On ch=1 n=e6 v=103
193772 On ch=1 n=g#6 v=95
193772 On ch=1 n=c#7 v=103
193804 On ch=1 n=e4 v=111
193812 On ch=1 n=e3 v=0
193824 Par ch=1 c=64 v=63
193830 On ch=1 n=e6 v=0
193834 Par ch=1 c=64 v=0
193838 On ch=1 n=g#6 v=0
193850 On ch=1 n=b6 v=0
193852 On ch=1 n=g#3 v=0
193854 On ch=1 n=c#7 v=0
193854 On ch=1 n=b3 v=0
193888 On ch=1 n=e4 v=0
193998 On ch=1 n=e6 v=106
194000 On ch=1 n=b6 v=97
194004 On ch=1 n=e4 v=96
194008 On ch=1 n=g#6 v=86
194008 On ch=1 n=c#7 v=87
194038 On ch=1 n=e6 v=0
194040 On ch=1 n=g#6 v=0
194048 On ch=1 n=c#7 v=0
194074 On ch=1 n=e4 v=0
194076 On ch=1 n=b6 v=0
194226 On ch=1 n=e4 v=101
194236 On ch=1 n=e6 v=109
194238 On ch=1 n=b6 v=96
194240 On ch=1 n=g#6 v=98
194246 On ch=1 n=c#7 v=88
194272 On ch=1 n=e6 v=0
194276 On ch=1 n=g#6 v=0
194286 On ch=1 n=c#7 v=0
194300 On ch=1 n=e4 v=0
194302 On ch=1 n=b6 v=0
194462 On ch=1 n=e6 v=114
194462 On ch=1 n=c#7 v=108
194464 On ch=1 n=g#6 v=105
194464 On ch=1 n=e4 v=100
194466 On ch=1 n=b6 v=90
194508 On ch=1 n=b6 v=0
194508 On ch=1 n=g#6 v=0
194512 On ch=1 n=e6 v=0
194528 On ch=1 n=c#7 v=0
194556 On ch=1 n=e4 v=0
194562 On ch=1 n=a3 v=63
194574 On ch=1 n=c#4 v=71
194696 Par ch=1 c=64 v=127
194698 On ch=1 n=e4 v=83
194700 On ch=1 n=c#4 v=0
194716 On ch=1 n=a6 v=118
194722 On ch=1 n=a5 v=113
194722 On ch=1 n=c#6 v=121
194724 On ch=1 n=a4 v=118
194748 On ch=1 n=c#4 v=41
194756 On ch=1 n=a5 v=0
194772 On ch=1 n=c#6 v=0
194774 On ch=1 n=a6 v=0
194792 On ch=1 n=e4 v=0
194796 On ch=1 n=a3 v=0
194800 On ch=1 n=c#4 v=0
194866 On ch=1 n=a4 v=0
194950 On ch=1 n=a4 v=74
195012 On ch=1 n=a4 v=0
195196 On ch=1 n=a4 v=108
195212 Par ch=1 c=64 v=63
195220 Par ch=1 c=64 v=0
195266 On ch=1 n=a4 v=0
195428 On ch=1 n=a4 v=104
195444 On ch=1 n=c#7 v=107
195450 On ch=1 n=c#6 v=106
195474 On ch=1 n=c#7 v=0
195476 On ch=1 n=c#6 v=0
195506 On ch=1 n=a4 v=0
195628 On ch=1 n=a3 v=77
195658 On ch=1 n=c#4 v=95
195670 Par ch=1 c=64 v=127
195670 On ch=1 n=e4 v=96
195684 On ch=1 n=a6 v=116
195686 On ch=1 n=a5 v=116
195704 On ch=1 n=a4 v=118
195718 On ch=1 n=a5 v=0
195742 On ch=1 n=a6 v=0
195808 On ch=1 n=a3 v=0
195830 On ch=1 n=a4 v=0
195856 On ch=1 n=e4 v=0
195864 On ch=1 n=c#4 v=0
195930 On ch=1 n=a4 v=78
195998 On ch=1 n=a4 v=0
196170 On ch=1 n=a4 v=96
196216 Par ch=1 c=64 v=63
196224 Par ch=1 c=64 v=0
196244 On ch=1 n=a4 v=0
196358 On ch=1 n=a4 v=99
196368 On ch=1 n=e7 v=102
196370 On ch=1 n=e6 v=107
196396 On ch=1 n=e7 v=0
196400 On ch=1 n=e6 v=0
196460 On ch=1 n=a4 v=0
196512 On ch=1 n=a3 v=89
196556 On ch=1 n=c#4 v=77
196580 Par ch=1 c=64 v=127
196586 On ch=1 n=e4 v=93
196602 On ch=1 n=a5 v=120
196604 On ch=1 n=a6 v=117
196620 On ch=1 n=a4 v=114
196628 On ch=1 n=b5 v=68
196658 On ch=1 n=a5 v=0
196660 On ch=1 n=a3 v=0
196662 On ch=1 n=a6 v=0
196674 On ch=1 n=b5 v=0
196748 On ch=1 n=a4 v=0
196752 On ch=1 n=e4 v=0
196756 On ch=1 n=c#4 v=0
196852 On ch=1 n=a4 v=85
196932 On ch=1 n=a4 v=0
197060 On ch=1 n=a4 v=97
197120 Par ch=1 c=64 v=63
197128 Par ch=1 c=64 v=0
197150 On ch=1 n=a4 v=0
197264 On ch=1 n=a4 v=86
197278 On ch=1 n=c#7 v=113
197282 On ch=1 n=c#6 v=112
197330 On ch=1 n=c#6 v=0
197340 On ch=1 n=c#7 v=0
197372 On ch=1 n=a4 v=0
197372 On ch=1 n=a3 v=76
197422 On ch=1 n=c#4 v=69
197474 On ch=1 n=e4 v=94
197478 Par ch=1 c=64 v=127
197496 On ch=1 n=a4 v=122
197498 On ch=1 n=a6 v=114
197502 On ch=1 n=a5 v=106
197522 On ch=1 n=a3 v=0
197524 On ch=1 n=b5 v=64
197534 On ch=1 n=a5 v=0
197546 On ch=1 n=a6 v=0
197552 On ch=1 n=c#4 v=0
197570 On ch=1 n=e4 v=0
197572 On ch=1 n=b5 v=0
197572 On ch=1 n=a4 v=0
197688 Par ch=1 c=64 v=63
197700 Par ch=1 c=64 v=0
197720 On ch=1 n=c#6 v=112
197722 On ch=1 n=c#7 v=114
197766 On ch=1 n=c#6 v=0
197784 On ch=1 n=c#7 v=0
197930 Par ch=1 c=64 v=63
197932 Par ch=1 c=64 v=127
197944 On ch=1 n=a4 v=122
197946 On ch=1 n=e4 v=114
197952 On ch=1 n=a3 v=107
197952 On ch=1 n=a6 v=113
197952 On ch=1 n=c#4 v=104
197956 On ch=1 n=a5 v=100
197992 On ch=1 n=a5 v=0
198004 On ch=1 n=c#4 v=0
198004 On ch=1 n=e4 v=0
198006 On ch=1 n=a4 v=0
198010 On ch=1 n=a6 v=0
198020 On ch=1 n=a3 v=0
198188 On ch=1 n=e7 v=104
198194 On ch=1 n=e6 v=84
198200 Par ch=1 c=64 v=63
198210 Par ch=1 c=64 v=0
198216 On ch=1 n=e7 v=0
198232 On ch=1 n=e6 v=0
198444 Par ch=1 c=64 v=127
198448 On ch=1 n=a4 v=122
198452 On ch=1 n=e4 v=117
198454 On ch=1 n=a3 v=113
198456 On ch=1 n=a5 v=111
198456 On ch=1 n=a6 v=116
198458 On ch=1 n=c#4 v=108
198492 On ch=1 n=a6 v=0
198504 On ch=1 n=e4 v=0
198506 On ch=1 n=c#4 v=0
198506 On ch=1 n=a4 v=0
198514 On ch=1 n=a3 v=0
198516 On ch=1 n=a5 v=0
198644 Par ch=1 c=64 v=63
198654 Par ch=1 c=64 v=0
198948 On ch=1 n=a6 v=109
198950 On ch=1 n=a3 v=102
198952 On ch=1 n=a5 v=113
198952 On ch=1 n=c#6 v=115
198954 On ch=1 n=a4 v=124
198954 On ch=1 n=e6 v=111
198956 On ch=1 n=e4 v=118
198958 On ch=1 n=c#4 v=116
198968 Par ch=1 c=64 v=63
198972 Par ch=1 c=64 v=127
199026 On ch=1 n=a4 v=0
199030 On ch=1 n=e4 v=0
199034 On ch=1 n=c#4 v=0
199042 On ch=1 n=a3 v=0
199138 On ch=1 n=a5 v=0
199144 On ch=1 n=c#6 v=0
199156 On ch=1 n=a6 v=0
199166 On ch=1 n=e6 v=0
199220 Par ch=1 c=64 v=63
199234 Par ch=1 c=64 v=0
199570 On ch=1 n=a3 v=93
199574 On ch=1 n=a6 v=102
199576 On ch=1 n=c#6 v=110
199580 On ch=1 n=e6 v=107
199580 On ch=1 n=a5 v=107
199586 On ch=1 n=c#4 v=113
199588 On ch=1 n=a4 v=122
199588 On ch=1 n=e4 v=117
199608 Par ch=1 c=64 v=127
199778 On ch=1 n=a3 v=0
199790 On ch=1 n=a4 v=0
199808 On ch=1 n=e4 v=0
199818 On ch=1 n=c#4 v=0
199860 On ch=1 n=c#6 v=0
199866 On ch=1 n=a5 v=0
199868 On ch=1 n=a6 v=0
199878 On ch=1 n=e6 v=0
200636 Par ch=1 c=64 v=63
200646 Par ch=1 c=64 v=0
200646 Meta TrkEnd
TrkEnd
