MFile 1 2 480
MTrk
0 Tempo 500000
0 TimeSig 4/4 24 8
0 Meta TrkEnd
TrkEnd
MTrk
0 SeqSpec 43 00 01 00
0 Meta TrkName "<Master Volume>"
0 Meta 0x21 00
0 SysEx f0 41 10 42 12 40 00 7f 00 41 f7
0 SysEx f0 41 10 42 12 40 00 04 64 58 f7
192 Meta Text "<Master Reverve>"
192 SysEx f0 41 10 42 12 40 01 30 03 0c f7
192 SysEx f0 41 10 42 12 40 01 33 3c 50 f7
192 SysEx f0 41 10 42 12 40 01 34 3c 4f f7
576 Par ch=1 c=0 v=0
580 Par ch=1 c=32 v=1
584 PrCh ch=1 p=0
780 Par ch=1 c=7 v=100
972 Par ch=1 c=11 v=127
1164 Par ch=1 c=10 v=64
1356 Par ch=1 c=1 v=0
1356 Meta Text "<part reverve>"
1356 Par ch=1 c=91 v=90
1452 Par ch=1 c=99 v=1
1456 Par ch=1 c=98 v=32
1460 Par ch=1 c=6 v=62
1464 Par ch=1 c=99 v=1
1468 Par ch=1 c=98 v=33
1472 Par ch=1 c=6 v=54
1476 Par ch=1 c=99 v=1
1480 Par ch=1 c=98 v=99
1484 Par ch=1 c=6 v=62
1488 Par ch=1 c=99 v=1
1492 Par ch=1 c=98 v=100
1496 Par ch=1 c=6 v=60
1500 Par ch=1 c=99 v=1
1504 Par ch=1 c=98 v=102
1508 Par ch=1 c=6 v=70
3266 Par ch=1 c=67 v=0
4378 On ch=1 n=c#5 v=88
4430 Par ch=1 c=64 v=127
4436 On ch=1 n=e5 v=97
4454 On ch=1 n=a4 v=116
4458 On ch=1 n=a3 v=104
4458 On ch=1 n=a5 v=106
4480 On ch=1 n=c#5 v=0
4542 On ch=1 n=e5 v=0
4838 On ch=1 n=a5 v=0
4846 On ch=1 n=a4 v=0
4934 On ch=1 n=a3 v=0
5274 On ch=1 n=e5 v=109
5282 On ch=1 n=e4 v=103
5292 On ch=1 n=e3 v=103
5298 Par ch=1 c=64 v=63
5304 Par ch=1 c=64 v=0
5412 Par ch=1 c=64 v=63
5422 Par ch=1 c=64 v=127
5444 On ch=1 n=e3 v=0
5490 On ch=1 n=e5 v=0
5492 On ch=1 n=e4 v=0
5718 On ch=1 n=c#6 v=121
5720 On ch=1 n=c#5 v=109
5732 On ch=1 n=c#4 v=100
5750 Par ch=1 c=64 v=63
5768 Par ch=1 c=64 v=0
5836 Par ch=1 c=64 v=63
5854 Par ch=1 c=64 v=127
5884 On ch=1 n=c#5 v=0
5894 On ch=1 n=c#4 v=0
5962 On ch=1 n=c#6 v=0
5976 On ch=1 n=d6 v=98
6066 On ch=1 n=b5 v=94
6088 On ch=1 n=d6 v=0
6160 On ch=1 n=a5 v=86
6162 On ch=1 n=a4 v=89
6164 Par ch=1 c=64 v=63
6176 On ch=1 n=a3 v=80
6178 On ch=1 n=b5 v=0
6182 Par ch=1 c=64 v=0
6370 Par ch=1 c=64 v=63
6386 Par ch=1 c=64 v=127
6600 Par ch=1 c=64 v=63
6604 On ch=1 n=a5 v=0
6614 Par ch=1 c=64 v=0
6626 On ch=1 n=a3 v=0
6644 On ch=1 n=a4 v=0
7034 Par ch=1 c=64 v=63
7036 On ch=1 n=e6 v=83
7056 Par ch=1 c=64 v=127
7280 On ch=1 n=f#6 v=86
7318 On ch=1 n=e6 v=0
7332 Par ch=1 c=64 v=63
7370 On ch=1 n=d6 v=71
7372 Par ch=1 c=64 v=0
7380 On ch=1 n=f#6 v=0
7474 On ch=1 n=d6 v=0
7476 On ch=1 n=c#6 v=98
7890 On ch=1 n=c#7 v=83
7896 On ch=1 n=a4 v=42
7896 Par ch=1 c=64 v=63
7898 On ch=1 n=f#5 v=66
7932 On ch=1 n=c#6 v=0
7938 Par ch=1 c=64 v=0
7978 On ch=1 n=c#7 v=0
8000 On ch=1 n=a4 v=0
8018 On ch=1 n=f#5 v=0
8334 On ch=1 n=b4 v=54
8336 On ch=1 n=a5 v=50
8340 On ch=1 n=d#6 v=84
8346 Par ch=1 c=64 v=63
8432 Par ch=1 c=64 v=127
8560 On ch=1 n=b4 v=0
8776 Par ch=1 c=64 v=63
8790 On ch=1 n=e6 v=66
8790 On ch=1 n=g#5 v=60
8796 On ch=1 n=d#6 v=0
8812 On ch=1 n=e5 v=50
8838 Par ch=1 c=64 v=0
8858 On ch=1 n=a5 v=0
9306 Par ch=1 c=64 v=63
9336 Par ch=1 c=64 v=127
9474 On ch=1 n=f6 v=75
9502 On ch=1 n=e6 v=0
9596 Par ch=1 c=64 v=63
9686 On ch=1 n=g#6 v=80
9694 On ch=1 n=g#5 v=0
9706 On ch=1 n=e5 v=0
9744 On ch=1 n=f6 v=0
9760 Par ch=1 c=64 v=0
9908 On ch=1 n=f#6 v=80
9960 On ch=1 n=g#6 v=0
10124 On ch=1 n=e6 v=71
10160 On ch=1 n=f#6 v=0
10194 Par ch=1 c=64 v=63
10328 On ch=1 n=e6 v=0
10330 On ch=1 n=d6 v=55
10388 Par ch=1 c=64 v=127
10526 On ch=1 n=c#6 v=76
10536 On ch=1 n=d6 v=0
10728 On ch=1 n=b5 v=68
10732 Par ch=1 c=64 v=63
10744 On ch=1 n=c#6 v=0
10822 Par ch=1 c=64 v=0
10950 On ch=1 n=a5 v=59
10952 On ch=1 n=b5 v=0
10962 On ch=1 n=e4 v=44
10984 Par ch=1 c=64 v=63
11050 Par ch=1 c=64 v=127
11156 On ch=1 n=g#5 v=83
11176 On ch=1 n=a5 v=0
11184 On ch=1 n=d5 v=41
11298 Par ch=1 c=64 v=63
11372 On ch=1 n=g#5 v=0
11386 On ch=1 n=e6 v=79
11402 On ch=1 n=b4 v=41
11404 On ch=1 n=d5 v=0
11444 Par ch=1 c=64 v=0
11562 On ch=1 n=e4 v=0
11578 Par ch=1 c=64 v=63
11598 On ch=1 n=d6 v=63
11602 On ch=1 n=d5 v=35
11606 On ch=1 n=b4 v=0
11628 On ch=1 n=e6 v=0
11676 Par ch=1 c=64 v=127
11820 Par ch=1 c=64 v=63
11832 On ch=1 n=d5 v=0
11832 On ch=1 n=b4 v=46
11882 On ch=1 n=d6 v=0
11902 Par ch=1 c=64 v=0
12028 On ch=1 n=d5 v=53
12030 On ch=1 n=b4 v=0
12172 Par ch=1 c=64 v=63
12218 Par ch=1 c=64 v=127
12234 On ch=1 n=b5 v=80
12240 On ch=1 n=e4 v=59
12286 On ch=1 n=d5 v=0
12342 Par ch=1 c=64 v=63
12438 On ch=1 n=c#5 v=83
12452 On ch=1 n=a5 v=79
12460 On ch=1 n=b5 v=0
12558 Par ch=1 c=64 v=127
12654 On ch=1 n=f#6 v=91
12660 On ch=1 n=c#5 v=0
12662 On ch=1 n=a4 v=47
12678 On ch=1 n=e4 v=0
12692 On ch=1 n=a5 v=0
12706 Par ch=1 c=64 v=63
12784 Par ch=1 c=64 v=0
12854 On ch=1 n=c#5 v=52
12860 On ch=1 n=f#6 v=0
12864 On ch=1 n=e6 v=69
12894 On ch=1 n=a4 v=0
13048 On ch=1 n=c#5 v=0
13064 On ch=1 n=a4 v=50
13168 On ch=1 n=e6 v=0
13246 On ch=1 n=c#5 v=72
13284 On ch=1 n=a4 v=0
13434 On ch=1 n=c#5 v=0
13468 On ch=1 n=d4 v=77
13470 On ch=1 n=c#6 v=97
13576 Par ch=1 c=64 v=63
13596 Par ch=1 c=64 v=127
13672 On ch=1 n=b4 v=76
13676 On ch=1 n=b5 v=99
13744 On ch=1 n=c#6 v=0
13896 On ch=1 n=g6 v=94
13904 On ch=1 n=f#4 v=76
13930 On ch=1 n=b5 v=0
13938 On ch=1 n=b4 v=0
14006 Par ch=1 c=64 v=63
14024 Par ch=1 c=64 v=0
14092 On ch=1 n=f#6 v=91
14100 On ch=1 n=b4 v=57
14134 On ch=1 n=f#4 v=0
14148 On ch=1 n=g6 v=0
14164 Par ch=1 c=64 v=63
14182 Par ch=1 c=64 v=127
14312 On ch=1 n=f#4 v=72
14322 On ch=1 n=f#6 v=0
14340 On ch=1 n=b4 v=0
14364 On ch=1 n=d4 v=0
14418 Par ch=1 c=64 v=63
14430 Par ch=1 c=64 v=0
14520 On ch=1 n=b4 v=65
14530 On ch=1 n=f#4 v=0
14728 On ch=1 n=b4 v=0
14768 On ch=1 n=d4 v=70
14774 Par ch=1 c=64 v=63
14776 Par ch=1 c=64 v=127
14776 On ch=1 n=f#5 v=98
14834 On ch=1 n=d4 v=0
14864 On ch=1 n=f#5 v=0
15190 On ch=1 n=e6 v=89
15400 On ch=1 n=d6 v=97
15460 On ch=1 n=e6 v=0
15466 Par ch=1 c=64 v=63
15482 Par ch=1 c=64 v=0
15616 On ch=1 n=c#6 v=105
15694 On ch=1 n=d6 v=0
15802 On ch=1 n=b5 v=94
15870 On ch=1 n=c#6 v=0
16030 On ch=1 n=d5 v=76
16034 On ch=1 n=e4 v=72
16036 On ch=1 n=a5 v=73
16046 On ch=1 n=b5 v=0
16050 Par ch=1 c=64 v=63
16058 Par ch=1 c=64 v=127
16150 On ch=1 n=e4 v=0
16238 On ch=1 n=g#5 v=88
16274 On ch=1 n=a5 v=0
16284 Par ch=1 c=64 v=63
16298 Par ch=1 c=64 v=0
16460 On ch=1 n=d5 v=0
16468 On ch=1 n=g#5 v=0
16470 On ch=1 n=a4 v=42
16476 On ch=1 n=c#5 v=60
16476 On ch=1 n=a5 v=65
16544 Par ch=1 c=64 v=63
16548 Par ch=1 c=64 v=127
16828 On ch=1 n=a5 v=0
16874 On ch=1 n=c#5 v=0
16896 Par ch=1 c=64 v=63
16900 Par ch=1 c=64 v=0
16916 On ch=1 n=a4 v=0
17204 On ch=1 n=b5 v=78
17256 On ch=1 n=e6 v=82
17276 Par ch=1 c=64 v=127
17288 On ch=1 n=g#6 v=112
17298 On ch=1 n=b5 v=0
17324 On ch=1 n=b6 v=111
17338 On ch=1 n=e6 v=0
17346 On ch=1 n=e4 v=103
17376 On ch=1 n=g#6 v=0
17568 On ch=1 n=g#4 v=94
17754 On ch=1 n=b4 v=100
17788 On ch=1 n=b6 v=0
17796 On ch=1 n=g#4 v=0
17956 On ch=1 n=g#4 v=106
17984 On ch=1 n=e4 v=0
18020 On ch=1 n=b4 v=0
18158 On ch=1 n=f#4 v=107
18214 On ch=1 n=g#4 v=0
18334 On ch=1 n=e4 v=101
18360 On ch=1 n=f#4 v=0
18544 Par ch=1 c=64 v=63
18558 On ch=1 n=b6 v=106
18566 Par ch=1 c=64 v=0
18574 On ch=1 n=d#4 v=75
18604 On ch=1 n=e4 v=0
18654 On ch=1 n=a6 v=91
18668 Par ch=1 c=64 v=63
18690 Par ch=1 c=64 v=127
18714 On ch=1 n=b6 v=0
18762 On ch=1 n=g#6 v=86
18778 On ch=1 n=e4 v=81
18792 On ch=1 n=a6 v=0
18824 On ch=1 n=d#4 v=0
18868 On ch=1 n=f#6 v=63
18870 On ch=1 n=g#6 v=0
18908 On ch=1 n=f#6 v=0
18952 Par ch=1 c=64 v=63
18958 On ch=1 n=f#4 v=89
18966 On ch=1 n=e4 v=0
18972 On ch=1 n=f#6 v=88
18976 Par ch=1 c=64 v=0
19048 Par ch=1 c=64 v=63
19060 On ch=1 n=f#6 v=0
19070 On ch=1 n=e6 v=91
19074 Par ch=1 c=64 v=127
19106 On ch=1 n=f#4 v=0
19138 On ch=1 n=b3 v=70
19154 On ch=1 n=e6 v=0
19162 On ch=1 n=d#6 v=100
19254 On ch=1 n=c#6 v=103
19268 On ch=1 n=d#6 v=0
19324 Par ch=1 c=64 v=63
19330 On ch=1 n=c#4 v=87
19344 On ch=1 n=b5 v=71
19346 On ch=1 n=c#6 v=0
19352 Par ch=1 c=64 v=0
19378 On ch=1 n=b3 v=0
19432 On ch=1 n=b5 v=0
19436 On ch=1 n=a5 v=93
19476 Par ch=1 c=64 v=63
19502 Par ch=1 c=64 v=127
19528 On ch=1 n=d#4 v=83
19540 On ch=1 n=g#5 v=98
19542 On ch=1 n=a5 v=0
19606 On ch=1 n=c#4 v=0
19632 On ch=1 n=g#5 v=0
19632 On ch=1 n=a5 v=84
19634 Par ch=1 c=64 v=63
19678 Par ch=1 c=64 v=0
19734 On ch=1 n=g#5 v=107
19736 On ch=1 n=a5 v=0
19744 On ch=1 n=e4 v=91
19762 On ch=1 n=d#4 v=0
19790 On ch=1 n=g#5 v=0
19832 On ch=1 n=b5 v=86
19926 On ch=1 n=e6 v=103
19930 On ch=1 n=b5 v=0
19934 On ch=1 n=g#4 v=98
19960 On ch=1 n=e4 v=0
20028 On ch=1 n=e6 v=0
20030 On ch=1 n=g#6 v=106
20118 On ch=1 n=g#6 v=0
20132 On ch=1 n=b4 v=92
20148 On ch=1 n=g#4 v=0
20152 On ch=1 n=b6 v=114
20160 Par ch=1 c=64 v=63
20162 Par ch=1 c=64 v=127
20316 On ch=1 n=b6 v=0
20356 On ch=1 n=g#4 v=82
20566 On ch=1 n=f#4 v=99
20600 On ch=1 n=b4 v=0
20618 On ch=1 n=g#4 v=0
20746 On ch=1 n=e4 v=92
20776 On ch=1 n=f#4 v=0
20964 On ch=1 n=b6 v=107
20972 On ch=1 n=d#4 v=91
20974 Par ch=1 c=64 v=63
20986 Par ch=1 c=64 v=0
21020 On ch=1 n=e4 v=0
21056 On ch=1 n=a6 v=93
21078 Par ch=1 c=64 v=63
21092 Par ch=1 c=64 v=127
21108 On ch=1 n=b6 v=0
21148 On ch=1 n=g#6 v=88
21168 On ch=1 n=e4 v=72
21182 On ch=1 n=a6 v=0
21204 On ch=1 n=d#4 v=0
21246 On ch=1 n=f#6 v=81
21258 On ch=1 n=g#6 v=0
21288 On ch=1 n=f#6 v=0
21346 On ch=1 n=f#4 v=87
21358 On ch=1 n=e4 v=0
21360 Par ch=1 c=64 v=63
21360 On ch=1 n=f#6 v=92
21374 Par ch=1 c=64 v=0
21442 On ch=1 n=f#6 v=0
21452 On ch=1 n=e6 v=84
21508 Par ch=1 c=64 v=63
21514 Par ch=1 c=64 v=127
21536 On ch=1 n=b3 v=68
21542 On ch=1 n=e6 v=0
21544 On ch=1 n=f#4 v=0
21544 On ch=1 n=d#6 v=99
21650 On ch=1 n=c#6 v=104
21654 On ch=1 n=d#6 v=0
21718 On ch=1 n=c#4 v=81
21726 On ch=1 n=b5 v=71
21732 On ch=1 n=c#6 v=0
21754 Par ch=1 c=64 v=63
21768 Par ch=1 c=64 v=0
21774 On ch=1 n=b3 v=0
21820 On ch=1 n=b5 v=0
21824 On ch=1 n=a5 v=92
21894 On ch=1 n=d#4 v=86
21912 On ch=1 n=a5 v=0
21924 On ch=1 n=g#5 v=100
21978 On ch=1 n=c#4 v=0
22002 On ch=1 n=a5 v=84
22012 On ch=1 n=g#5 v=0
22108 On ch=1 n=g#5 v=101
22108 On ch=1 n=e4 v=69
22118 On ch=1 n=a5 v=0
22122 On ch=1 n=d#4 v=0
22208 On ch=1 n=b5 v=97
22216 On ch=1 n=g#5 v=0
22312 On ch=1 n=a5 v=82
22322 On ch=1 n=b5 v=0
22388 On ch=1 n=g#5 v=100
22420 On ch=1 n=a5 v=0
22488 On ch=1 n=g#5 v=0
22494 On ch=1 n=a5 v=80
22594 On ch=1 n=b5 v=100
22610 On ch=1 n=a5 v=0
22690 On ch=1 n=c#6 v=104
22704 On ch=1 n=e4 v=0
22712 On ch=1 n=b5 v=0
22782 On ch=1 n=d#6 v=101
22810 On ch=1 n=c#6 v=0
22868 On ch=1 n=d#6 v=0
22880 On ch=1 n=e6 v=91
22974 On ch=1 n=f#6 v=108
22984 On ch=1 n=e6 v=0
23054 On ch=1 n=g#6 v=107
23092 On ch=1 n=f#6 v=0
23150 On ch=1 n=a6 v=101
23160 On ch=1 n=g#6 v=0
23252 On ch=1 n=b6 v=102
23262 On ch=1 n=a6 v=0
23342 On ch=1 n=c#7 v=109
23388 On ch=1 n=b6 v=0
23458 On ch=1 n=d#7 v=94
23492 On ch=1 n=c#7 v=0
23542 On ch=1 n=e7 v=98
23562 On ch=1 n=d#7 v=0
23628 On ch=1 n=d#7 v=87
23678 On ch=1 n=e7 v=0
23720 On ch=1 n=c#7 v=95
23754 On ch=1 n=d#7 v=0
23822 On ch=1 n=b6 v=92
23866 On ch=1 n=c#7 v=0
23914 On ch=1 n=b6 v=0
23924 On ch=1 n=a6 v=81
24012 On ch=1 n=a6 v=0
24024 On ch=1 n=g#6 v=94
24126 On ch=1 n=f#6 v=90
24128 On ch=1 n=g#6 v=0
24204 On ch=1 n=f#6 v=0
24210 On ch=1 n=e6 v=65
24274 On ch=1 n=e6 v=0
24306 On ch=1 n=d#6 v=94
24382 On ch=1 n=d#6 v=0
24440 On ch=1 n=c#6 v=100
24448 On ch=1 n=f#5 v=70
24456 On ch=1 n=a4 v=47
24502 Par ch=1 c=64 v=63
24502 Par ch=1 c=64 v=127
24546 On ch=1 n=c#6 v=0
24570 On ch=1 n=f#5 v=0
24578 On ch=1 n=a4 v=0
24764 Par ch=1 c=64 v=63
24768 Par ch=1 c=64 v=0
24778 On ch=1 n=c#7 v=88
24858 On ch=1 n=e6 v=79
24870 On ch=1 n=c#7 v=0
24880 On ch=1 n=g#5 v=53
24890 On ch=1 n=b4 v=51
24900 Par ch=1 c=64 v=63
24904 Par ch=1 c=64 v=127
25088 On ch=1 n=e6 v=0
25172 On ch=1 n=g#5 v=0
25324 On ch=1 n=g#6 v=90
25342 On ch=1 n=d#6 v=85
25344 On ch=1 n=a5 v=47
25370 On ch=1 n=f#6 v=84
25396 Par ch=1 c=64 v=63
25408 Par ch=1 c=64 v=0
25426 On ch=1 n=g#6 v=0
25502 Par ch=1 c=64 v=63
25514 Par ch=1 c=64 v=127
25558 On ch=1 n=b4 v=0
25730 On ch=1 n=d#6 v=0
25780 On ch=1 n=f#6 v=0
25798 On ch=1 n=g#5 v=58
25800 On ch=1 n=e6 v=82
25834 On ch=1 n=a5 v=0
25836 On ch=1 n=e5 v=39
25856 Par ch=1 c=64 v=63
25866 Par ch=1 c=64 v=0
26008 Par ch=1 c=64 v=63
26016 Par ch=1 c=64 v=127
26038 On ch=1 n=g#5 v=0
26098 On ch=1 n=e5 v=0
26310 On ch=1 n=e4 v=68
26386 On ch=1 n=e4 v=0
26848 Par ch=1 c=64 v=63
26850 On ch=1 n=e6 v=0
26864 Par ch=1 c=64 v=0
27300 Par ch=1 c=64 v=63
27308 Par ch=1 c=64 v=127
27330 On ch=1 n=e5 v=91
27414 On ch=1 n=e6 v=104
27704 On ch=1 n=e6 v=0
27828 On ch=1 n=f#5 v=116
27874 On ch=1 n=e5 v=0
27900 On ch=1 n=f#6 v=114
27966 Par ch=1 c=64 v=63
27988 Par ch=1 c=64 v=0
28080 Par ch=1 c=64 v=63
28090 Par ch=1 c=64 v=127
28290 On ch=1 n=f#6 v=0
28302 On ch=1 n=g5 v=93
28362 On ch=1 n=f#5 v=0
28364 On ch=1 n=g6 v=101
28442 Par ch=1 c=64 v=63
28454 Par ch=1 c=64 v=0
28558 Par ch=1 c=64 v=63
28570 Par ch=1 c=64 v=127
28662 On ch=1 n=g6 v=0
28662 On ch=1 n=g5 v=0
28922 On ch=1 n=f#4 v=58
28994 On ch=1 n=b5 v=80
29090 Par ch=1 c=64 v=63
29104 Par ch=1 c=64 v=0
29212 Par ch=1 c=64 v=63
29228 Par ch=1 c=64 v=127
29244 On ch=1 n=c#5 v=64
29348 On ch=1 n=f#4 v=0
29424 On ch=1 n=c#5 v=0
29436 On ch=1 n=f#5 v=60
29452 On ch=1 n=a#5 v=81
29468 On ch=1 n=b5 v=0
29592 On ch=1 n=f#5 v=0
29660 On ch=1 n=e5 v=55
29880 On ch=1 n=e5 v=0
29900 On ch=1 n=d5 v=50
29922 On ch=1 n=a#5 v=0
30034 Par ch=1 c=64 v=63
30100 On ch=1 n=c#5 v=70
30102 Par ch=1 c=64 v=127
30116 On ch=1 n=d5 v=0
30186 On ch=1 n=a#5 v=84
30188 On ch=1 n=c#5 v=0
30270 On ch=1 n=c#6 v=90
30306 On ch=1 n=a#5 v=0
30324 On ch=1 n=f#4 v=54
30334 Par ch=1 c=64 v=63
30344 Par ch=1 c=64 v=0
30458 Par ch=1 c=64 v=63
30466 Par ch=1 c=64 v=127
30552 On ch=1 n=d5 v=54
30746 On ch=1 n=b5 v=76
30758 On ch=1 n=f#5 v=63
30772 On ch=1 n=c#6 v=0
30794 On ch=1 n=d5 v=0
30928 On ch=1 n=f#4 v=0
30976 On ch=1 n=f#5 v=0
30994 On ch=1 n=d5 v=42
31184 On ch=1 n=b5 v=0
31186 On ch=1 n=d5 v=0
31186 On ch=1 n=c#5 v=81
31372 Par ch=1 c=64 v=63
31380 On ch=1 n=b4 v=77
31384 On ch=1 n=c#5 v=0
31384 Par ch=1 c=64 v=0
31460 Par ch=1 c=64 v=63
31476 Par ch=1 c=64 v=127
31482 On ch=1 n=b5 v=88
31588 On ch=1 n=d6 v=99
31602 On ch=1 n=f#4 v=55
31604 On ch=1 n=b5 v=0
31640 On ch=1 n=b4 v=0
31728 Par ch=1 c=64 v=63
31756 Par ch=1 c=64 v=0
31816 On ch=1 n=a#4 v=82
31834 Par ch=1 c=64 v=63
31854 Par ch=1 c=64 v=127
32020 On ch=1 n=c#6 v=98
32050 On ch=1 n=e5 v=35
32084 On ch=1 n=a#4 v=0
32092 On ch=1 n=d6 v=0
32116 Par ch=1 c=64 v=63
32144 Par ch=1 c=64 v=0
32234 On ch=1 n=c#5 v=75
32242 Par ch=1 c=64 v=63
32260 Par ch=1 c=64 v=127
32400 On ch=1 n=f#4 v=0
32418 On ch=1 n=c#6 v=0
32458 On ch=1 n=e5 v=0
32464 On ch=1 n=b4 v=60
32512 On ch=1 n=c#5 v=0
32640 Par ch=1 c=64 v=63
32658 Par ch=1 c=64 v=0
32674 On ch=1 n=a#4 v=80
32750 On ch=1 n=c#6 v=90
32754 On ch=1 n=b4 v=0
32880 On ch=1 n=e6 v=91
32898 On ch=1 n=b4 v=81
32926 On ch=1 n=c#6 v=0
32994 On ch=1 n=a#4 v=0
33106 On ch=1 n=d6 v=84
33156 On ch=1 n=e6 v=0
33318 On ch=1 n=d6 v=0
33322 On ch=1 n=f6 v=101
33522 On ch=1 n=e6 v=100
33612 On ch=1 n=f6 v=0
33652 On ch=1 n=b4 v=0
33754 On ch=1 n=g6 v=83
33794 On ch=1 n=e6 v=0
33962 On ch=1 n=f6 v=68
33990 On ch=1 n=g6 v=0
34218 On ch=1 n=f6 v=0
34228 On ch=1 n=a5 v=67
34230 On ch=1 n=e4 v=36
34390 Par ch=1 c=64 v=63
34400 Par ch=1 c=64 v=127
34442 On ch=1 n=b4 v=60
34600 On ch=1 n=e4 v=0
34668 On ch=1 n=b4 v=0
34676 On ch=1 n=g#5 v=76
34686 On ch=1 n=e5 v=31
34704 On ch=1 n=a5 v=0
34884 On ch=1 n=d5 v=54
34900 On ch=1 n=e5 v=0
35036 Par ch=1 c=64 v=63
35100 Par ch=1 c=64 v=127
35110 On ch=1 n=g#5 v=0
35120 On ch=1 n=c5 v=61
35130 On ch=1 n=d5 v=0
35318 On ch=1 n=b4 v=59
35364 On ch=1 n=c5 v=0
35410 On ch=1 n=g#5 v=78
35420 On ch=1 n=b4 v=0
35534 On ch=1 n=b5 v=76
35574 On ch=1 n=g#5 v=0
35596 On ch=1 n=e4 v=15
35646 Par ch=1 c=64 v=63
35676 Par ch=1 c=64 v=0
35788 On ch=1 n=c5 v=50
35788 Par ch=1 c=64 v=63
35822 Par ch=1 c=64 v=127
35986 On ch=1 n=e4 v=0
35996 On ch=1 n=a5 v=68
36004 On ch=1 n=b5 v=0
36016 On ch=1 n=e5 v=31
36042 On ch=1 n=c5 v=0
36202 On ch=1 n=e5 v=0
36216 On ch=1 n=c5 v=48
36304 On ch=1 n=a5 v=0
36416 On ch=1 n=c5 v=0
36420 On ch=1 n=b4 v=53
36468 Par ch=1 c=64 v=63
36502 Par ch=1 c=64 v=0
36556 Par ch=1 c=64 v=63
36596 Par ch=1 c=64 v=127
36622 On ch=1 n=a4 v=60
36646 On ch=1 n=b4 v=0
36732 On ch=1 n=a5 v=83
36854 On ch=1 n=e4 v=52
36862 On ch=1 n=c6 v=82
36868 On ch=1 n=a4 v=0
36876 Par ch=1 c=64 v=63
36896 On ch=1 n=a5 v=0
36908 Par ch=1 c=64 v=0
37016 Par ch=1 c=64 v=63
37040 Par ch=1 c=64 v=127
37084 On ch=1 n=g#4 v=67
37306 On ch=1 n=b5 v=82
37310 On ch=1 n=d5 v=50
37336 Par ch=1 c=64 v=63
37372 Par ch=1 c=64 v=0
37376 On ch=1 n=g#4 v=0
37396 On ch=1 n=c6 v=0
37502 Par ch=1 c=64 v=63
37510 On ch=1 n=b4 v=68
37528 Par ch=1 c=64 v=127
37626 On ch=1 n=d5 v=0
37678 On ch=1 n=e4 v=0
37698 On ch=1 n=b5 v=0
37736 On ch=1 n=a4 v=68
37802 On ch=1 n=b4 v=0
37954 On ch=1 n=g#4 v=96
38030 On ch=1 n=a4 v=0
38084 On ch=1 n=b5 v=88
38190 On ch=1 n=a4 v=69
38198 On ch=1 n=g#4 v=0
38200 On ch=1 n=d6 v=99
38236 On ch=1 n=b5 v=0
38258 Par ch=1 c=64 v=63
38272 Par ch=1 c=64 v=0
38440 On ch=1 n=c6 v=102
38478 Par ch=1 c=64 v=63
38480 Par ch=1 c=64 v=127
38510 On ch=1 n=d6 v=0
38652 On ch=1 n=b5 v=108
38716 On ch=1 n=c6 v=0
38804 On ch=1 n=a4 v=0
38850 On ch=1 n=a5 v=107
38860 On ch=1 n=b5 v=0
39064 On ch=1 n=a6 v=108
39068 On ch=1 n=g4 v=97
39076 Par ch=1 c=64 v=63
39082 On ch=1 n=g3 v=84
39084 Par ch=1 c=64 v=0
39088 On ch=1 n=a5 v=0
39234 On ch=1 n=a6 v=0
39238 Par ch=1 c=64 v=63
39242 Par ch=1 c=64 v=127
39284 On ch=1 n=a6 v=109
39404 On ch=1 n=g4 v=0
39526 On ch=1 n=b6 v=103
39530 On ch=1 n=f4 v=102
39538 On ch=1 n=f3 v=101
39602 On ch=1 n=g3 v=0
39606 On ch=1 n=a6 v=0
39630 Par ch=1 c=64 v=63
39644 Par ch=1 c=64 v=0
39760 On ch=1 n=a6 v=107
39824 On ch=1 n=b6 v=0
39940 Par ch=1 c=64 v=127
39982 On ch=1 n=g6 v=103
40060 On ch=1 n=a6 v=0
40184 On ch=1 n=f6 v=111
40246 On ch=1 n=g6 v=0
40308 On ch=1 n=f3 v=0
40400 On ch=1 n=e6 v=106
40432 On ch=1 n=f6 v=0
40436 On ch=1 n=f4 v=0
40592 On ch=1 n=d#6 v=119
40644 On ch=1 n=e6 v=0
40686 Par ch=1 c=64 v=63
40696 Par ch=1 c=64 v=0
40746 Par ch=1 c=64 v=63
40758 Par ch=1 c=64 v=127
40854 On ch=1 n=d#6 v=0
40870 On ch=1 n=a4 v=86
40874 On ch=1 n=f4 v=79
40896 On ch=1 n=c7 v=113
40942 Par ch=1 c=64 v=63
40948 Par ch=1 c=64 v=0
41028 Par ch=1 c=64 v=63
41038 Par ch=1 c=64 v=127
41154 On ch=1 n=g#4 v=93
41216 On ch=1 n=a4 v=0
41366 On ch=1 n=a4 v=99
41414 On ch=1 n=g#4 v=0
41572 On ch=1 n=c5 v=102
41618 On ch=1 n=a4 v=0
41804 On ch=1 n=b4 v=93
41812 On ch=1 n=d#6 v=100
41818 On ch=1 n=c7 v=0
41868 On ch=1 n=c5 v=0
41906 Par ch=1 c=64 v=63
41928 Par ch=1 c=64 v=0
42018 Par ch=1 c=64 v=63
42024 On ch=1 n=a4 v=91
42036 Par ch=1 c=64 v=127
42064 On ch=1 n=f4 v=0
42086 On ch=1 n=b4 v=0
42292 On ch=1 n=d#6 v=0
42330 On ch=1 n=e6 v=82
42340 On ch=1 n=e4 v=53
42342 On ch=1 n=g#4 v=80
42386 On ch=1 n=a4 v=0
42426 Par ch=1 c=64 v=63
42446 Par ch=1 c=64 v=0
42782 Par ch=1 c=64 v=127
42952 On ch=1 n=e6 v=0
43034 Par ch=1 c=64 v=63
43038 Par ch=1 c=64 v=0
43078 On ch=1 n=f#6 v=104
43102 Par ch=1 c=64 v=63
43112 Par ch=1 c=64 v=127
43126 On ch=1 n=g#4 v=0
43160 On ch=1 n=e4 v=0
43178 On ch=1 n=e6 v=91
43184 On ch=1 n=f#6 v=0
43220 On ch=1 n=e6 v=0
43300 Par ch=1 c=64 v=63
43304 On ch=1 n=e6 v=91
43346 Par ch=1 c=64 v=127
43416 On ch=1 n=d6 v=84
43458 On ch=1 n=e6 v=0
43508 On ch=1 n=c#6 v=87
43550 On ch=1 n=d6 v=0
43596 On ch=1 n=b5 v=98
43620 On ch=1 n=c#6 v=0
43664 On ch=1 n=b5 v=0
43816 Par ch=1 c=64 v=63
43824 Par ch=1 c=64 v=0
43862 On ch=1 n=c#5 v=99
43878 On ch=1 n=a3 v=82
43892 On ch=1 n=e5 v=90
43896 On ch=1 n=a4 v=103
43906 Par ch=1 c=64 v=63
43912 Par ch=1 c=64 v=127
43918 On ch=1 n=a5 v=103
43940 On ch=1 n=c#5 v=0
43982 On ch=1 n=a4 v=0
43988 On ch=1 n=e5 v=0
44000 On ch=1 n=a3 v=0
44250 On ch=1 n=a5 v=0
44772 Par ch=1 c=64 v=63
44776 On ch=1 n=e5 v=109
44782 Par ch=1 c=64 v=0
44786 On ch=1 n=e3 v=98
44788 On ch=1 n=e4 v=100
44862 Par ch=1 c=64 v=63
44874 Par ch=1 c=64 v=127
44896 On ch=1 n=e3 v=0
44946 On ch=1 n=e4 v=0
44968 On ch=1 n=e5 v=0
45216 Par ch=1 c=64 v=63
45222 On ch=1 n=c#6 v=120
45224 On ch=1 n=c#5 v=110
45232 On ch=1 n=c#4 v=101
45232 Par ch=1 c=64 v=0
45286 Par ch=1 c=64 v=63
45302 Par ch=1 c=64 v=127
45330 On ch=1 n=c#5 v=0
45356 On ch=1 n=c#4 v=0
45436 On ch=1 n=c#6 v=0
45486 On ch=1 n=d6 v=87
45568 On ch=1 n=b5 v=91
45586 On ch=1 n=d6 v=0
45642 Par ch=1 c=64 v=63
45656 Par ch=1 c=64 v=0
45666 On ch=1 n=a5 v=84
45672 On ch=1 n=b5 v=0
45676 On ch=1 n=a4 v=91
45690 On ch=1 n=a3 v=84
45894 Par ch=1 c=64 v=63
45908 Par ch=1 c=64 v=127
46114 On ch=1 n=a5 v=0
46122 On ch=1 n=a3 v=0
46128 On ch=1 n=a4 v=0
46152 Par ch=1 c=64 v=63
46172 Par ch=1 c=64 v=0
46520 Par ch=1 c=64 v=63
46544 Par ch=1 c=64 v=127
46574 On ch=1 n=e6 v=82
46810 On ch=1 n=f#6 v=86
46848 On ch=1 n=e6 v=0
46854 Par ch=1 c=64 v=63
46894 Par ch=1 c=64 v=0
46894 On ch=1 n=d6 v=77
46906 On ch=1 n=f#6 v=0
47002 On ch=1 n=c#6 v=103
47006 On ch=1 n=d6 v=0
47436 On ch=1 n=c#6 v=0
47438 Par ch=1 c=64 v=63
47438 On ch=1 n=c#7 v=76
47446 On ch=1 n=f#5 v=59
47454 On ch=1 n=a4 v=40
47490 Par ch=1 c=64 v=0
47530 On ch=1 n=c#7 v=0
47544 On ch=1 n=f#5 v=0
47564 On ch=1 n=a4 v=0
47894 On ch=1 n=d#6 v=74
47902 On ch=1 n=b4 v=54
47906 Par ch=1 c=64 v=63
47908 On ch=1 n=a5 v=44
47950 Par ch=1 c=64 v=127
48034 On ch=1 n=b4 v=0
48264 On ch=1 n=d#6 v=0
48318 On ch=1 n=a5 v=0
48360 On ch=1 n=e6 v=59
48362 On ch=1 n=g#5 v=44
48378 On ch=1 n=e5 v=48
48400 Par ch=1 c=64 v=63
48454 Par ch=1 c=64 v=0
48652 Par ch=1 c=64 v=63
48724 Par ch=1 c=64 v=0
49032 On ch=1 n=f6 v=72
49056 On ch=1 n=e6 v=0
49110 Par ch=1 c=64 v=63
49130 Par ch=1 c=64 v=127
49230 On ch=1 n=g#5 v=0
49232 On ch=1 n=e5 v=0
49246 On ch=1 n=g#6 v=81
49278 On ch=1 n=f6 v=0
49452 On ch=1 n=f#6 v=94
49512 On ch=1 n=g#6 v=0
49670 On ch=1 n=e6 v=88
49704 Par ch=1 c=64 v=63
49722 On ch=1 n=f#6 v=0
49750 Par ch=1 c=64 v=0
49872 On ch=1 n=d6 v=78
49898 On ch=1 n=e6 v=0
50014 Par ch=1 c=64 v=63
50050 Par ch=1 c=64 v=127
50088 On ch=1 n=c#6 v=85
50110 On ch=1 n=d6 v=0
50284 On ch=1 n=b5 v=79
50300 On ch=1 n=c#6 v=0
50310 Par ch=1 c=64 v=63
50362 Par ch=1 c=64 v=0
50506 On ch=1 n=a5 v=62
50508 On ch=1 n=b5 v=0
50514 On ch=1 n=e4 v=37
50584 Par ch=1 c=64 v=63
50618 Par ch=1 c=64 v=127
50712 On ch=1 n=g#5 v=76
50718 On ch=1 n=d5 v=53
50750 On ch=1 n=a5 v=0
50904 On ch=1 n=g#5 v=0
50922 Par ch=1 c=64 v=63
50924 On ch=1 n=e6 v=76
50926 On ch=1 n=e4 v=0
50954 On ch=1 n=d5 v=0
50956 On ch=1 n=b4 v=39
50976 Par ch=1 c=64 v=0
51130 On ch=1 n=d6 v=65
51132 Par ch=1 c=64 v=63
51156 On ch=1 n=b4 v=0
51162 On ch=1 n=d5 v=38
51166 On ch=1 n=e6 v=0
51186 Par ch=1 c=64 v=127
51358 Par ch=1 c=64 v=63
51374 On ch=1 n=d5 v=0
51390 On ch=1 n=b4 v=49
51400 On ch=1 n=d6 v=0
51430 Par ch=1 c=64 v=0
51568 On ch=1 n=d5 v=51
51572 On ch=1 n=b4 v=0
51730 Par ch=1 c=64 v=63
51772 Par ch=1 c=64 v=127
51776 On ch=1 n=b5 v=84
51782 On ch=1 n=e4 v=56
51804 On ch=1 n=d5 v=0
51994 On ch=1 n=a5 v=84
51994 On ch=1 n=c#5 v=76
52002 On ch=1 n=b5 v=0
52166 Par ch=1 c=64 v=63
52200 Par ch=1 c=64 v=0
52202 On ch=1 n=f#6 v=88
52222 On ch=1 n=c#5 v=0
52224 On ch=1 n=a4 v=46
52226 On ch=1 n=a5 v=0
52300 On ch=1 n=e4 v=0
52356 Par ch=1 c=64 v=63
52386 Par ch=1 c=64 v=127
52414 On ch=1 n=f#6 v=0
52418 On ch=1 n=e6 v=68
52426 On ch=1 n=c#5 v=51
52466 On ch=1 n=a4 v=0
52638 On ch=1 n=c#5 v=0
52662 On ch=1 n=a4 v=36
52684 Par ch=1 c=64 v=63
52712 On ch=1 n=e6 v=0
52714 Par ch=1 c=64 v=0
52844 On ch=1 n=c#5 v=70
52908 On ch=1 n=a4 v=0
52966 Par ch=1 c=64 v=63
52990 Par ch=1 c=64 v=127
53078 On ch=1 n=b5 v=99
53080 On ch=1 n=e4 v=59
53158 On ch=1 n=c#5 v=0
53298 On ch=1 n=a5 v=101
53304 On ch=1 n=c#5 v=89
53312 On ch=1 n=b5 v=0
53544 On ch=1 n=a6 v=107
53558 On ch=1 n=a4 v=68
53618 On ch=1 n=a5 v=0
53636 On ch=1 n=c#5 v=0
53692 Par ch=1 c=64 v=63
53710 Par ch=1 c=64 v=0
53752 On ch=1 n=g6 v=98
53782 On ch=1 n=c#5 v=60
53812 Par ch=1 c=64 v=63
53822 Par ch=1 c=64 v=127
53832 On ch=1 n=a6 v=0
53850 On ch=1 n=a4 v=0
53996 On ch=1 n=a4 v=68
54016 On ch=1 n=c#5 v=0
54028 On ch=1 n=g6 v=0
54090 On ch=1 n=e4 v=0
54176 On ch=1 n=c#5 v=90
54206 On ch=1 n=a4 v=0
54358 On ch=1 n=c#5 v=0
54448 On ch=1 n=g6 v=76
54466 On ch=1 n=d4 v=25
54468 On ch=1 n=d5 v=48
54474 On ch=1 n=a4 v=23
54540 Par ch=1 c=64 v=63
54558 Par ch=1 c=64 v=0
54700 On ch=1 n=f#6 v=76
54766 On ch=1 n=g6 v=0
54850 Par ch=1 c=64 v=63
54858 Par ch=1 c=64 v=127
54922 On ch=1 n=e6 v=84
54980 On ch=1 n=f#6 v=0
55124 On ch=1 n=d6 v=72
55134 On ch=1 n=e6 v=0
55252 Par ch=1 c=64 v=63
55262 On ch=1 n=d5 v=0
55274 Par ch=1 c=64 v=0
55280 On ch=1 n=d6 v=0
55336 On ch=1 n=c#6 v=78
55372 On ch=1 n=a4 v=0
55382 Par ch=1 c=64 v=63
55400 Par ch=1 c=64 v=127
55444 On ch=1 n=d4 v=0
55524 On ch=1 n=c#6 v=0
55534 On ch=1 n=b5 v=72
55626 On ch=1 n=b5 v=0
55626 Par ch=1 c=64 v=63
55652 Par ch=1 c=64 v=0
55712 Par ch=1 c=64 v=63
55750 Par ch=1 c=64 v=127
55760 On ch=1 n=c#4 v=99
55764 On ch=1 n=e6 v=96
55792 On ch=1 n=c#4 v=0
55824 On ch=1 n=f#6 v=80
55832 On ch=1 n=e6 v=0
55888 On ch=1 n=f#6 v=0
55906 On ch=1 n=e6 v=61
55962 On ch=1 n=e6 v=0
55970 On ch=1 n=d6 v=78
56060 On ch=1 n=e6 v=51
56064 On ch=1 n=d6 v=0
56084 On ch=1 n=d4 v=65
56126 On ch=1 n=f#6 v=96
56132 Par ch=1 c=64 v=63
56142 On ch=1 n=e6 v=0
56142 Par ch=1 c=64 v=0
56196 On ch=1 n=d4 v=0
56206 On ch=1 n=f#6 v=0
56212 On ch=1 n=c#5 v=98
56222 On ch=1 n=a5 v=98
56228 On ch=1 n=e4 v=73
56276 Par ch=1 c=64 v=63
56286 Par ch=1 c=64 v=127
56562 On ch=1 n=c#5 v=0
56614 Par ch=1 c=64 v=63
56626 Par ch=1 c=64 v=0
56660 On ch=1 n=g#5 v=88
56700 On ch=1 n=b4 v=44
56720 On ch=1 n=a5 v=0
56726 Par ch=1 c=64 v=63
56740 Par ch=1 c=64 v=127
56810 On ch=1 n=g#5 v=0
56846 On ch=1 n=e4 v=0
56912 Par ch=1 c=64 v=63
56922 Par ch=1 c=64 v=0
56932 On ch=1 n=b4 v=0
57040 On ch=1 n=a5 v=71
57058 On ch=1 n=c#6 v=98
57084 On ch=1 n=a4 v=63
57088 On ch=1 n=e6 v=108
57118 On ch=1 n=c#6 v=0
57118 On ch=1 n=a5 v=0
57144 On ch=1 n=e6 v=0
57278 On ch=1 n=c#5 v=73
57498 On ch=1 n=e6 v=116
57508 On ch=1 n=e5 v=77
57536 On ch=1 n=c#5 v=0
57540 Par ch=1 c=64 v=63
57542 Par ch=1 c=64 v=127
57684 On ch=1 n=c#5 v=80
57698 On ch=1 n=e5 v=0
57810 On ch=1 n=a4 v=0
57892 On ch=1 n=b4 v=87
57904 On ch=1 n=c#5 v=0
57964 On ch=1 n=e6 v=0
58076 On ch=1 n=b4 v=0
58098 On ch=1 n=a4 v=87
58258 Par ch=1 c=64 v=63
58270 Par ch=1 c=64 v=0
58312 On ch=1 n=e6 v=96
58318 On ch=1 n=g#4 v=82
58334 On ch=1 n=a4 v=0
58366 Par ch=1 c=64 v=63
58378 Par ch=1 c=64 v=127
58424 On ch=1 n=d6 v=84
58468 On ch=1 n=e6 v=0
58494 On ch=1 n=c#6 v=85
58526 On ch=1 n=d6 v=0
58564 On ch=1 n=g#4 v=0
58564 On ch=1 n=a4 v=62
58570 On ch=1 n=b5 v=92
58582 On ch=1 n=c#6 v=0
58630 On ch=1 n=b5 v=0
58686 Par ch=1 c=64 v=63
58696 On ch=1 n=b4 v=85
58696 Par ch=1 c=64 v=0
58708 On ch=1 n=a4 v=0
58710 On ch=1 n=b5 v=86
58794 On ch=1 n=a5 v=79
58824 On ch=1 n=b5 v=0
58886 On ch=1 n=g#5 v=89
58898 On ch=1 n=e4 v=76
58902 On ch=1 n=a5 v=0
58904 On ch=1 n=b4 v=0
58982 On ch=1 n=f#5 v=97
59014 On ch=1 n=g#5 v=0
59058 On ch=1 n=f#5 v=0
59080 On ch=1 n=e5 v=64
59100 On ch=1 n=f#4 v=82
59120 On ch=1 n=e4 v=0
59130 On ch=1 n=e5 v=0
59176 On ch=1 n=d5 v=84
59264 On ch=1 n=d5 v=0
59292 On ch=1 n=c#5 v=91
59298 On ch=1 n=g#4 v=79
59350 On ch=1 n=f#4 v=0
59362 On ch=1 n=c#5 v=0
59372 On ch=1 n=d5 v=80
59458 On ch=1 n=d5 v=0
59460 On ch=1 n=c#5 v=101
59498 On ch=1 n=g#4 v=0
59504 On ch=1 n=a4 v=59
59524 On ch=1 n=c#5 v=0
59572 On ch=1 n=e5 v=69
59660 On ch=1 n=e5 v=0
59662 On ch=1 n=a5 v=94
59692 On ch=1 n=c#5 v=94
59706 On ch=1 n=a4 v=0
59754 On ch=1 n=a5 v=0
59760 On ch=1 n=c#6 v=105
59836 On ch=1 n=c#6 v=0
59858 On ch=1 n=c#5 v=0
59866 Par ch=1 c=64 v=127
59872 On ch=1 n=e6 v=109
59884 On ch=1 n=e5 v=80
59942 On ch=1 n=e6 v=0
60092 On ch=1 n=e5 v=0
60100 On ch=1 n=c#5 v=75
60264 On ch=1 n=c#5 v=0
60300 On ch=1 n=b4 v=82
60482 Par ch=1 c=64 v=63
60490 Par ch=1 c=64 v=0
60496 On ch=1 n=a4 v=83
60506 On ch=1 n=e7 v=88
60540 On ch=1 n=b4 v=0
60574 On ch=1 n=e7 v=0
60724 On ch=1 n=g#4 v=96
60732 On ch=1 n=e7 v=111
60734 Par ch=1 c=64 v=127
60748 On ch=1 n=a4 v=0
60822 On ch=1 n=d7 v=97
60872 On ch=1 n=e7 v=0
60926 On ch=1 n=c#7 v=97
60964 On ch=1 n=d7 v=0
60968 On ch=1 n=a4 v=62
60970 On ch=1 n=g#4 v=0
61004 On ch=1 n=b6 v=93
61024 On ch=1 n=c#7 v=0
61070 On ch=1 n=b6 v=0
61092 On ch=1 n=b4 v=84
61094 On ch=1 n=a4 v=0
61134 On ch=1 n=b6 v=86
61224 Par ch=1 c=64 v=63
61232 Par ch=1 c=64 v=0
61242 On ch=1 n=a6 v=86
61294 On ch=1 n=b6 v=0
61308 On ch=1 n=e4 v=71
61326 On ch=1 n=g#6 v=94
61366 On ch=1 n=a6 v=0
61398 On ch=1 n=b4 v=0
61414 On ch=1 n=f#6 v=101
61466 On ch=1 n=g#6 v=0
61496 On ch=1 n=f#4 v=91
61496 On ch=1 n=e6 v=79
61508 On ch=1 n=f#6 v=0
61552 On ch=1 n=e4 v=0
61576 On ch=1 n=e6 v=0
61602 On ch=1 n=d6 v=90
61684 On ch=1 n=g#4 v=90
61692 On ch=1 n=d6 v=0
61692 On ch=1 n=c#6 v=106
61752 On ch=1 n=f#4 v=0
61784 On ch=1 n=d6 v=94
61788 On ch=1 n=c#6 v=0
61874 On ch=1 n=a4 v=97
61894 On ch=1 n=c#6 v=105
61896 On ch=1 n=g#4 v=0
61908 On ch=1 n=d6 v=0
61952 On ch=1 n=a4 v=0
61990 On ch=1 n=e6 v=98
61998 On ch=1 n=c#6 v=0
62084 On ch=1 n=d6 v=96
62114 On ch=1 n=e6 v=0
62170 On ch=1 n=c#6 v=101
62210 On ch=1 n=d6 v=0
62268 On ch=1 n=d6 v=84
62272 On ch=1 n=c#6 v=0
62280 On ch=1 n=a4 v=108
62286 On ch=1 n=f#4 v=112
62346 On ch=1 n=a4 v=0
62350 On ch=1 n=f#4 v=0
62382 On ch=1 n=e6 v=99
62392 On ch=1 n=d6 v=0
62480 On ch=1 n=f#6 v=106
62516 On ch=1 n=e6 v=0
62572 On ch=1 n=g#6 v=96
62616 On ch=1 n=f#6 v=0
62676 On ch=1 n=g#6 v=0
62678 On ch=1 n=d4 v=114
62680 On ch=1 n=a6 v=89
62686 On ch=1 n=a4 v=101
62686 On ch=1 n=f#4 v=109
62726 On ch=1 n=a4 v=0
62742 On ch=1 n=f#4 v=0
62764 On ch=1 n=d4 v=0
62790 On ch=1 n=b6 v=101
62800 On ch=1 n=a6 v=0
62894 On ch=1 n=c#7 v=112
62942 On ch=1 n=b6 v=0
62994 On ch=1 n=d7 v=97
63058 On ch=1 n=c#7 v=0
63092 On ch=1 n=e7 v=104
63098 On ch=1 n=c#4 v=106
63098 On ch=1 n=a4 v=100
63100 On ch=1 n=e4 v=102
63132 On ch=1 n=d7 v=0
63202 On ch=1 n=d7 v=88
63204 Par ch=1 c=64 v=63
63210 Par ch=1 c=64 v=127
63258 On ch=1 n=e7 v=0
63300 On ch=1 n=c#7 v=99
63340 On ch=1 n=d7 v=0
63394 On ch=1 n=b6 v=91
63422 On ch=1 n=c#7 v=0
63492 On ch=1 n=a6 v=84
63500 On ch=1 n=b6 v=0
63514 Par ch=1 c=64 v=63
63522 Par ch=1 c=64 v=0
63598 On ch=1 n=g#6 v=101
63618 On ch=1 n=a6 v=0
63684 On ch=1 n=f#6 v=95
63716 On ch=1 n=g#6 v=0
63776 Par ch=1 c=64 v=63
63792 On ch=1 n=e6 v=93
63800 Par ch=1 c=64 v=127
63810 On ch=1 n=f#6 v=0
63870 On ch=1 n=a4 v=0
63884 On ch=1 n=c#4 v=0
63884 On ch=1 n=d6 v=85
63894 On ch=1 n=e6 v=0
63906 On ch=1 n=e4 v=0
63954 Par ch=1 c=64 v=63
63980 Par ch=1 c=64 v=0
63986 On ch=1 n=d6 v=0
63988 On ch=1 n=c#6 v=97
64092 On ch=1 n=b5 v=96
64112 On ch=1 n=c#6 v=0
64184 On ch=1 n=a5 v=76
64190 On ch=1 n=b5 v=0
64264 On ch=1 n=a5 v=0
64340 Par ch=1 c=64 v=63
64342 Par ch=1 c=64 v=127
64374 On ch=1 n=d4 v=87
64376 On ch=1 n=b4 v=76
64390 On ch=1 n=f#6 v=101
64450 On ch=1 n=d4 v=0
64456 On ch=1 n=g#6 v=91
64466 On ch=1 n=f#6 v=0
64468 On ch=1 n=b4 v=0
64534 On ch=1 n=f#6 v=60
64536 On ch=1 n=g#6 v=0
64576 On ch=1 n=f#6 v=0
64576 On ch=1 n=f6 v=93
64648 On ch=1 n=f#6 v=84
64678 On ch=1 n=f6 v=0
64728 On ch=1 n=g#6 v=89
64752 On ch=1 n=f#6 v=0
64804 On ch=1 n=a6 v=85
64826 On ch=1 n=g#6 v=0
64872 On ch=1 n=a6 v=0
64886 On ch=1 n=c#5 v=75
64892 On ch=1 n=a5 v=81
64902 Par ch=1 c=64 v=63
64910 On ch=1 n=e4 v=60
64916 Par ch=1 c=64 v=0
65048 Par ch=1 c=64 v=63
65062 Par ch=1 c=64 v=127
65278 On ch=1 n=a5 v=0
65288 On ch=1 n=c#5 v=0
65324 On ch=1 n=c#6 v=83
65346 On ch=1 n=g#5 v=76
65362 Par ch=1 c=64 v=63
65374 On ch=1 n=d5 v=52
65380 Par ch=1 c=64 v=0
65380 On ch=1 n=b5 v=75
65428 On ch=1 n=c#6 v=0
65550 On ch=1 n=e4 v=0
65564 Par ch=1 c=64 v=63
65594 Par ch=1 c=64 v=127
65798 On ch=1 n=g#5 v=0
65864 On ch=1 n=a5 v=76
65876 On ch=1 n=c#5 v=61
65900 On ch=1 n=a4 v=40
65916 Par ch=1 c=64 v=63
65926 On ch=1 n=b5 v=0
65926 On ch=1 n=d5 v=0
65932 Par ch=1 c=64 v=0
66066 Par ch=1 c=64 v=63
66082 Par ch=1 c=64 v=127
66120 On ch=1 n=c#5 v=0
66166 On ch=1 n=a4 v=0
66498 On ch=1 n=a3 v=48
66546 On ch=1 n=a3 v=0
67302 On ch=1 n=a5 v=0
67314 Par ch=1 c=64 v=63
67374 Par ch=1 c=64 v=0
67854 Par ch=1 c=64 v=63
67880 Par ch=1 c=64 v=127
68062 On ch=1 n=a5 v=62
68086 On ch=1 n=f#5 v=44
68090 On ch=1 n=d4 v=23
68104 On ch=1 n=d3 v=23
68372 On ch=1 n=f#5 v=0
68396 On ch=1 n=a5 v=0
68398 On ch=1 n=a4 v=29
68670 On ch=1 n=a4 v=0
68674 On ch=1 n=f#5 v=91
68690 On ch=1 n=d5 v=65
68890 On ch=1 n=a4 v=52
69072 On ch=1 n=d5 v=0
69082 On ch=1 n=f#5 v=0
69132 On ch=1 n=g5 v=93
69140 On ch=1 n=e5 v=83
69154 On ch=1 n=a4 v=0
69226 Par ch=1 c=64 v=63
69304 Par ch=1 c=64 v=127
69332 On ch=1 n=a4 v=62
69374 On ch=1 n=e5 v=0
69446 On ch=1 n=g5 v=0
69576 On ch=1 n=a5 v=84
69584 On ch=1 n=f#5 v=81
69602 On ch=1 n=a4 v=0
69706 Par ch=1 c=64 v=63
69724 Par ch=1 c=64 v=0
69812 Par ch=1 c=64 v=63
69824 Par ch=1 c=64 v=127
69848 On ch=1 n=a4 v=48
69918 On ch=1 n=f#5 v=0
70002 On ch=1 n=a5 v=0
70032 On ch=1 n=a4 v=0
70144 On ch=1 n=d5 v=64
70144 On ch=1 n=f#5 v=82
70312 On ch=1 n=f#5 v=0
70374 On ch=1 n=e5 v=84
70388 On ch=1 n=c#5 v=77
70394 On ch=1 n=d5 v=0
70536 On ch=1 n=c#5 v=0
70564 On ch=1 n=f#5 v=95
70578 On ch=1 n=e5 v=0
70584 On ch=1 n=d5 v=84
70622 Par ch=1 c=64 v=63
70686 Par ch=1 c=64 v=127
70764 On ch=1 n=f#5 v=0
70782 On ch=1 n=g5 v=87
70796 On ch=1 n=e5 v=77
70820 On ch=1 n=d5 v=0
70884 On ch=1 n=e5 v=0
70914 On ch=1 n=g5 v=0
71018 On ch=1 n=a5 v=54
71018 On ch=1 n=f#5 v=81
71036 Par ch=1 c=64 v=63
71062 Par ch=1 c=64 v=0
71138 Par ch=1 c=64 v=63
71154 On ch=1 n=d3 v=0
71162 Par ch=1 c=64 v=127
71224 On ch=1 n=d5 v=68
71278 On ch=1 n=d4 v=0
71314 On ch=1 n=a5 v=0
71322 On ch=1 n=f#5 v=0
71408 On ch=1 n=d5 v=0
71444 On ch=1 n=b5 v=89
71458 On ch=1 n=g5 v=75
71536 Par ch=1 c=64 v=63
71608 Par ch=1 c=64 v=127
71644 On ch=1 n=d5 v=69
71672 On ch=1 n=g5 v=0
71732 On ch=1 n=b5 v=0
71760 On ch=1 n=d5 v=0
71884 On ch=1 n=c#6 v=96
71884 On ch=1 n=g5 v=63
71886 On ch=1 n=a4 v=50
71898 Par ch=1 c=64 v=63
71904 On ch=1 n=a3 v=40
71922 Par ch=1 c=64 v=0
71978 Par ch=1 c=64 v=63
71998 Par ch=1 c=64 v=127
72004 On ch=1 n=a4 v=0
72056 On ch=1 n=a3 v=0
72084 On ch=1 n=e5 v=54
72140 On ch=1 n=g5 v=0
72234 On ch=1 n=c#6 v=0
72286 On ch=1 n=e5 v=0
72326 Par ch=1 c=64 v=63
72326 On ch=1 n=f#5 v=79
72336 Par ch=1 c=64 v=0
72342 On ch=1 n=d6 v=76
72352 On ch=1 n=d4 v=38
72356 On ch=1 n=d3 v=63
72422 Par ch=1 c=64 v=63
72430 Par ch=1 c=64 v=127
72466 On ch=1 n=d3 v=0
72512 On ch=1 n=d6 v=0
72526 On ch=1 n=d4 v=0
72614 On ch=1 n=a5 v=51
72658 On ch=1 n=f#5 v=0
72676 On ch=1 n=a5 v=0
72894 On ch=1 n=f#6 v=85
72900 On ch=1 n=f#5 v=88
72914 On ch=1 n=d5 v=57
72966 On ch=1 n=d5 v=0
73094 On ch=1 n=f#5 v=0
73120 On ch=1 n=f#6 v=0
73122 On ch=1 n=e6 v=84
73142 On ch=1 n=c#5 v=73
73164 On ch=1 n=e5 v=66
73262 On ch=1 n=c#5 v=0
73330 On ch=1 n=f#6 v=104
73358 On ch=1 n=f#5 v=94
73380 On ch=1 n=d5 v=54
73384 On ch=1 n=e6 v=0
73412 On ch=1 n=e5 v=0
73478 On ch=1 n=d5 v=0
73524 On ch=1 n=g6 v=102
73556 On ch=1 n=g5 v=91
73560 On ch=1 n=e5 v=89
73582 On ch=1 n=f#6 v=0
73616 On ch=1 n=f#5 v=0
73768 On ch=1 n=a5 v=84
73776 On ch=1 n=f#5 v=88
73776 On ch=1 n=a6 v=102
73790 On ch=1 n=g6 v=0
73798 On ch=1 n=g5 v=0
73818 Par ch=1 c=64 v=63
73836 Par ch=1 c=64 v=0
73838 On ch=1 n=e5 v=0
73950 Par ch=1 c=64 v=63
73958 Par ch=1 c=64 v=127
73990 On ch=1 n=d5 v=77
74058 On ch=1 n=a5 v=0
74118 On ch=1 n=f#5 v=0
74192 On ch=1 n=b6 v=97
74204 On ch=1 n=b5 v=84
74208 On ch=1 n=g5 v=76
74218 On ch=1 n=d5 v=0
74246 On ch=1 n=a6 v=0
74268 Par ch=1 c=64 v=63
74302 Par ch=1 c=64 v=0
74342 Par ch=1 c=64 v=63
74372 Par ch=1 c=64 v=127
74378 On ch=1 n=g5 v=0
74406 On ch=1 n=b5 v=0
74406 On ch=1 n=d5 v=46
74524 On ch=1 n=d5 v=0
74630 On ch=1 n=c#7 v=97
74642 On ch=1 n=b6 v=0
74650 On ch=1 n=c#6 v=91
74666 Par ch=1 c=64 v=63
74672 On ch=1 n=g5 v=59
74706 Par ch=1 c=64 v=0
74746 Par ch=1 c=64 v=63
74774 Par ch=1 c=64 v=127
74844 On ch=1 n=e5 v=48
74846 On ch=1 n=g5 v=0
74940 On ch=1 n=c#6 v=0
75016 On ch=1 n=e5 v=0
75064 On ch=1 n=f#5 v=83
75078 On ch=1 n=d6 v=78
75084 On ch=1 n=d7 v=76
75088 Par ch=1 c=64 v=63
75100 On ch=1 n=c#7 v=0
75102 Par ch=1 c=64 v=0
75218 Par ch=1 c=64 v=63
75226 Par ch=1 c=64 v=127
75316 On ch=1 n=a5 v=56
75336 On ch=1 n=d6 v=0
75362 On ch=1 n=f#5 v=0
75440 On ch=1 n=d7 v=0
75506 On ch=1 n=a5 v=0
75564 On ch=1 n=f#5 v=78
75578 On ch=1 n=d6 v=64
75692 On ch=1 n=f#5 v=0
75786 On ch=1 n=d6 v=0
75794 On ch=1 n=c#6 v=90
75818 On ch=1 n=e5 v=71
75890 On ch=1 n=c#6 v=0
75910 On ch=1 n=e5 v=0
76008 On ch=1 n=b5 v=89
76012 On ch=1 n=d5 v=90
76082 On ch=1 n=d5 v=0
76192 On ch=1 n=b5 v=0
76200 On ch=1 n=c#5 v=83
76204 On ch=1 n=a5 v=73
76320 On ch=1 n=c#5 v=0
76340 On ch=1 n=a5 v=0
76420 On ch=1 n=g#5 v=95
76432 On ch=1 n=b4 v=66
76442 On ch=1 n=e4 v=45
76496 Par ch=1 c=64 v=63
76506 Par ch=1 c=64 v=0
76624 Par ch=1 c=64 v=63
76634 Par ch=1 c=64 v=127
76680 On ch=1 n=e5 v=46
76746 On ch=1 n=b4 v=0
76764 On ch=1 n=g#5 v=0
76784 On ch=1 n=e5 v=0
76876 On ch=1 n=a5 v=84
76880 On ch=1 n=c#4 v=65
76892 On ch=1 n=c#5 v=68
76914 Par ch=1 c=64 v=63
76928 Par ch=1 c=64 v=0
76978 Par ch=1 c=64 v=63
76994 Par ch=1 c=64 v=127
77044 On ch=1 n=a5 v=0
77076 On ch=1 n=e5 v=81
77084 On ch=1 n=c#5 v=0
77108 On ch=1 n=c#4 v=0
77210 On ch=1 n=e5 v=0
77296 On ch=1 n=c#6 v=89
77310 On ch=1 n=a3 v=45
77316 On ch=1 n=e4 v=0
77318 On ch=1 n=a5 v=60
77334 Par ch=1 c=64 v=63
77340 Par ch=1 c=64 v=0
77416 Par ch=1 c=64 v=63
77428 Par ch=1 c=64 v=127
77518 On ch=1 n=e5 v=50
77648 On ch=1 n=a5 v=0
77680 On ch=1 n=c#6 v=0
77684 On ch=1 n=e5 v=0
77728 On ch=1 n=g#5 v=70
77734 Par ch=1 c=64 v=63
77738 On ch=1 n=e4 v=51
77740 On ch=1 n=b5 v=68
77744 Par ch=1 c=64 v=0
77810 Par ch=1 c=64 v=63
77820 Par ch=1 c=64 v=127
77824 On ch=1 n=a3 v=0
77866 On ch=1 n=e4 v=0
77958 On ch=1 n=g#5 v=0
77992 On ch=1 n=b5 v=0
78250 On ch=1 n=d6 v=74
78260 On ch=1 n=f#5 v=60
78266 On ch=1 n=d7 v=69
78372 On ch=1 n=f#5 v=0
78410 On ch=1 n=d6 v=0
78464 On ch=1 n=c#6 v=89
78472 On ch=1 n=c#7 v=90
78504 On ch=1 n=d7 v=0
78508 On ch=1 n=e5 v=41
78566 On ch=1 n=c#6 v=0
78590 On ch=1 n=e5 v=0
78668 On ch=1 n=b6 v=90
78674 On ch=1 n=c#7 v=0
78686 On ch=1 n=b5 v=84
78698 On ch=1 n=d5 v=76
78776 On ch=1 n=d5 v=0
78820 On ch=1 n=b5 v=0
78838 On ch=1 n=b6 v=0
78868 On ch=1 n=a6 v=72
78882 On ch=1 n=a5 v=79
78914 On ch=1 n=c#5 v=74
78992 On ch=1 n=c#5 v=0
79002 On ch=1 n=a5 v=0
79002 On ch=1 n=a6 v=0
79144 On ch=1 n=d#7 v=84
79154 On ch=1 n=g#5 v=75
79166 On ch=1 n=e7 v=84
79170 On ch=1 n=b4 v=76
79186 On ch=1 n=d#7 v=0
79226 Par ch=1 c=64 v=63
79242 Par ch=1 c=64 v=0
79354 Par ch=1 c=64 v=63
79370 Par ch=1 c=64 v=127
79446 On ch=1 n=e5 v=69
79452 On ch=1 n=b4 v=0
79492 On ch=1 n=g#5 v=0
79530 On ch=1 n=e7 v=0
79586 On ch=1 n=d#7 v=77
79590 On ch=1 n=e5 v=0
79626 On ch=1 n=e7 v=101
79632 On ch=1 n=a5 v=83
79642 On ch=1 n=c#5 v=89
79692 On ch=1 n=d#7 v=0
79836 On ch=1 n=c#5 v=0
79842 On ch=1 n=e5 v=72
79850 On ch=1 n=a5 v=0
79914 On ch=1 n=e5 v=0
79980 On ch=1 n=e7 v=0
80016 On ch=1 n=d#7 v=93
80068 On ch=1 n=e7 v=101
80080 On ch=1 n=c#6 v=83
80098 On ch=1 n=a5 v=46
80106 Par ch=1 c=64 v=63
80120 Par ch=1 c=64 v=0
80144 On ch=1 n=d#7 v=0
80224 Par ch=1 c=64 v=63
80240 Par ch=1 c=64 v=127
80292 On ch=1 n=e5 v=54
80378 On ch=1 n=a5 v=0
80440 On ch=1 n=e7 v=0
80474 On ch=1 n=d#7 v=72
80488 On ch=1 n=e5 v=0
80506 On ch=1 n=g#5 v=77
80516 On ch=1 n=b5 v=76
80524 On ch=1 n=c#6 v=0
80544 Par ch=1 c=64 v=63
80544 On ch=1 n=e7 v=81
80556 Par ch=1 c=64 v=0
80590 On ch=1 n=d#7 v=0
80630 Par ch=1 c=64 v=63
80644 Par ch=1 c=64 v=127
80670 On ch=1 n=e7 v=0
80798 On ch=1 n=e5 v=49
80840 On ch=1 n=b5 v=0
80858 On ch=1 n=g#5 v=0
80932 On ch=1 n=e5 v=0
81124 On ch=1 n=c#6 v=78
81126 On ch=1 n=a3 v=46
81286 Par ch=1 c=64 v=63
81302 Par ch=1 c=64 v=0
81354 On ch=1 n=b5 v=76
81356 On ch=1 n=c#6 v=0
81360 On ch=1 n=g#3 v=72
81382 On ch=1 n=e5 v=5
81410 On ch=1 n=a3 v=0
81414 Par ch=1 c=64 v=63
81428 Par ch=1 c=64 v=127
81570 On ch=1 n=c#6 v=106
81584 On ch=1 n=a3 v=79
81666 On ch=1 n=g#3 v=0
81676 On ch=1 n=b5 v=0
81772 On ch=1 n=b3 v=93
81774 On ch=1 n=d6 v=100
81800 On ch=1 n=a3 v=0
81914 On ch=1 n=c#6 v=0
81938 On ch=1 n=d6 v=0
82016 On ch=1 n=c#4 v=80
82020 On ch=1 n=e6 v=103
82070 On ch=1 n=b3 v=0
82070 On ch=1 n=e5 v=0
82072 Par ch=1 c=64 v=63
82094 Par ch=1 c=64 v=0
82166 Par ch=1 c=64 v=63
82182 Par ch=1 c=64 v=127
82262 On ch=1 n=e5 v=27
82310 On ch=1 n=e6 v=0
82480 On ch=1 n=e5 v=0
82480 On ch=1 n=c#4 v=0
82486 On ch=1 n=e4 v=65
82492 On ch=1 n=c#6 v=97
82502 On ch=1 n=a5 v=75
82536 Par ch=1 c=64 v=63
82558 Par ch=1 c=64 v=0
82618 Par ch=1 c=64 v=63
82638 Par ch=1 c=64 v=127
82700 On ch=1 n=e5 v=57
82766 On ch=1 n=a5 v=0
82898 On ch=1 n=e5 v=0
82910 On ch=1 n=c#6 v=0
82918 On ch=1 n=g#5 v=81
82918 On ch=1 n=b5 v=70
82924 On ch=1 n=e3 v=54
82928 On ch=1 n=e4 v=0
82932 Par ch=1 c=64 v=63
82946 Par ch=1 c=64 v=0
83014 Par ch=1 c=64 v=63
83032 Par ch=1 c=64 v=127
83124 On ch=1 n=b5 v=0
83164 On ch=1 n=e5 v=42
83234 On ch=1 n=g#5 v=0
83324 Par ch=1 c=64 v=63
83334 Par ch=1 c=64 v=0
83372 On ch=1 n=a5 v=64
83384 On ch=1 n=a3 v=60
83394 Par ch=1 c=64 v=63
83406 On ch=1 n=e5 v=0
83408 On ch=1 n=e3 v=0
83408 Par ch=1 c=64 v=127
83474 On ch=1 n=a3 v=0
83548 On ch=1 n=a5 v=0
83850 On ch=1 n=c#7 v=66
83864 On ch=1 n=a5 v=56
83872 On ch=1 n=c#6 v=63
83996 On ch=1 n=c#6 v=0
84032 On ch=1 n=a5 v=0
84040 On ch=1 n=b5 v=72
84048 On ch=1 n=b6 v=71
84058 On ch=1 n=g#5 v=67
84068 On ch=1 n=c#7 v=0
84204 On ch=1 n=g#5 v=0
84260 On ch=1 n=c#7 v=96
84264 On ch=1 n=c#6 v=92
84274 On ch=1 n=b5 v=0
84276 On ch=1 n=a5 v=78
84320 On ch=1 n=b6 v=0
84444 On ch=1 n=d7 v=99
84448 On ch=1 n=a5 v=0
84450 On ch=1 n=c#6 v=0
84470 On ch=1 n=d6 v=83
84492 On ch=1 n=b5 v=51
84500 On ch=1 n=c#6 v=60
84520 On ch=1 n=c#7 v=0
84582 On ch=1 n=c#6 v=0
84590 On ch=1 n=b5 v=0
84610 On ch=1 n=d6 v=0
84688 On ch=1 n=e7 v=102
84702 On ch=1 n=d7 v=0
84702 On ch=1 n=c#6 v=88
84706 On ch=1 n=e6 v=79
84760 Par ch=1 c=64 v=63
84790 Par ch=1 c=64 v=0
84816 Par ch=1 c=64 v=63
84852 Par ch=1 c=64 v=127
84886 On ch=1 n=c#6 v=0
84910 On ch=1 n=e5 v=44
85074 On ch=1 n=e6 v=0
85122 On ch=1 n=e5 v=0
85142 On ch=1 n=c#7 v=87
85154 On ch=1 n=c#6 v=88
85156 On ch=1 n=a5 v=68
85200 Par ch=1 c=64 v=63
85224 On ch=1 n=e7 v=0
85228 Par ch=1 c=64 v=0
85298 Par ch=1 c=64 v=63
85316 Par ch=1 c=64 v=127
85356 On ch=1 n=e5 v=56
85418 On ch=1 n=a5 v=0
85538 On ch=1 n=e5 v=0
85538 On ch=1 n=c#6 v=0
85576 On ch=1 n=b5 v=64
85586 On ch=1 n=g#5 v=74
85602 On ch=1 n=b6 v=60
85614 Par ch=1 c=64 v=63
85618 On ch=1 n=c#7 v=0
85668 Par ch=1 c=64 v=0
85678 Par ch=1 c=64 v=63
85726 Par ch=1 c=64 v=127
85798 On ch=1 n=b5 v=0
85824 On ch=1 n=e5 v=42
85868 On ch=1 n=g#5 v=0
86022 Par ch=1 c=64 v=63
86038 On ch=1 n=a5 v=63
86044 Par ch=1 c=64 v=0
86048 On ch=1 n=e5 v=0
86054 On ch=1 n=a6 v=65
86102 Par ch=1 c=64 v=63
86118 On ch=1 n=b6 v=0
86124 Par ch=1 c=64 v=127
86144 On ch=1 n=a6 v=0
86236 On ch=1 n=a5 v=0
86264 On ch=1 n=e5 v=45
86472 On ch=1 n=e5 v=0
86476 On ch=1 n=f#5 v=77
86498 On ch=1 n=b4 v=60
86520 On ch=1 n=d4 v=46
86544 Par ch=1 c=64 v=63
86558 Par ch=1 c=64 v=0
86690 On ch=1 n=d6 v=78
86716 On ch=1 n=f#5 v=0
86794 On ch=1 n=b4 v=0
86860 Par ch=1 c=64 v=63
86876 Par ch=1 c=64 v=127
86906 On ch=1 n=d4 v=0
86924 On ch=1 n=d5 v=79
86926 On ch=1 n=d6 v=0
86928 On ch=1 n=b5 v=74
86940 On ch=1 n=e4 v=64
87054 On ch=1 n=e4 v=0
87108 On ch=1 n=g#5 v=70
87150 On ch=1 n=b5 v=0
87154 Par ch=1 c=64 v=63
87172 Par ch=1 c=64 v=0
87328 On ch=1 n=g#5 v=0
87340 On ch=1 n=a5 v=58
87348 On ch=1 n=c#5 v=57
87364 On ch=1 n=d5 v=0
87364 On ch=1 n=a4 v=43
87416 Par ch=1 c=64 v=63
87428 Par ch=1 c=64 v=127
87508 On ch=1 n=a5 v=0
87510 On ch=1 n=c#5 v=0
87534 On ch=1 n=a4 v=0
87544 On ch=1 n=e5 v=45
87734 Par ch=1 c=64 v=63
87748 On ch=1 n=e5 v=0
87750 Par ch=1 c=64 v=0
87768 On ch=1 n=f#5 v=78
87776 On ch=1 n=b4 v=52
87800 On ch=1 n=d4 v=39
87890 Par ch=1 c=64 v=63
87908 Par ch=1 c=64 v=127
87954 On ch=1 n=f#5 v=0
87960 On ch=1 n=d6 v=59
88012 On ch=1 n=b4 v=0
88162 On ch=1 n=d4 v=0
88190 On ch=1 n=d6 v=0
88210 On ch=1 n=b5 v=58
88214 On ch=1 n=d5 v=55
88218 On ch=1 n=e4 v=59
88224 Par ch=1 c=64 v=63
88250 Par ch=1 c=64 v=0
88350 On ch=1 n=e4 v=0
88390 On ch=1 n=g#5 v=72
88412 On ch=1 n=b5 v=0
88624 On ch=1 n=g#5 v=0
88630 On ch=1 n=a5 v=60
88638 On ch=1 n=a4 v=30
88644 On ch=1 n=c#5 v=41
88650 On ch=1 n=d5 v=0
88672 Par ch=1 c=64 v=63
88704 Par ch=1 c=64 v=127
88860 On ch=1 n=g#5 v=60
88882 On ch=1 n=a5 v=0
88976 On ch=1 n=c#5 v=0
88984 On ch=1 n=a4 v=0
89094 On ch=1 n=g#5 v=0
89104 On ch=1 n=a5 v=47
89284 On ch=1 n=a5 v=0
89304 On ch=1 n=b5 v=51
89378 Par ch=1 c=64 v=63
89434 Par ch=1 c=64 v=0
89518 Par ch=1 c=64 v=63
89560 Par ch=1 c=64 v=127
89566 On ch=1 n=g5 v=32
89578 On ch=1 n=b5 v=0
89788 On ch=1 n=g5 v=0
89834 On ch=1 n=e5 v=21
90106 On ch=1 n=e5 v=0
90148 On ch=1 n=f#5 v=53
90176 On ch=1 n=b3 v=27
90186 On ch=1 n=a5 v=43
90210 On ch=1 n=b2 v=32
90272 Par ch=1 c=64 v=63
90312 Par ch=1 c=64 v=0
90354 Par ch=1 c=64 v=63
90402 Par ch=1 c=64 v=127
90470 On ch=1 n=b4 v=46
90476 On ch=1 n=f#5 v=0
90610 On ch=1 n=b4 v=0
90624 On ch=1 n=a5 v=0
90724 On ch=1 n=f#5 v=87
90748 On ch=1 n=d#5 v=57
90924 On ch=1 n=b4 v=49
90970 On ch=1 n=d#5 v=0
91116 On ch=1 n=f#5 v=0
91160 On ch=1 n=g5 v=86
91172 On ch=1 n=e5 v=79
91186 On ch=1 n=b4 v=0
91296 Par ch=1 c=64 v=63
91316 Par ch=1 c=64 v=0
91352 On ch=1 n=b4 v=68
91360 Par ch=1 c=64 v=63
91382 Par ch=1 c=64 v=127
91432 On ch=1 n=e5 v=0
91462 On ch=1 n=b2 v=0
91470 On ch=1 n=g5 v=0
91506 On ch=1 n=b3 v=0
91574 On ch=1 n=b4 v=0
91600 On ch=1 n=a5 v=76
91606 On ch=1 n=f#5 v=79
91722 On ch=1 n=f#5 v=0
91808 On ch=1 n=b4 v=54
91848 On ch=1 n=a5 v=0
92042 On ch=1 n=c7 v=75
92060 On ch=1 n=f#5 v=78
92062 On ch=1 n=d#5 v=65
92078 On ch=1 n=b4 v=0
92098 Par ch=1 c=64 v=63
92136 Par ch=1 c=64 v=0
92154 Par ch=1 c=64 v=63
92198 Par ch=1 c=64 v=127
92258 On ch=1 n=b4 v=65
92272 On ch=1 n=b6 v=77
92298 On ch=1 n=d#5 v=0
92320 On ch=1 n=c7 v=0
92376 On ch=1 n=f#5 v=0
92480 On ch=1 n=a6 v=97
92490 On ch=1 n=b4 v=0
92500 On ch=1 n=g5 v=59
92508 On ch=1 n=b6 v=0
92522 On ch=1 n=e5 v=37
92654 On ch=1 n=g5 v=0
92676 On ch=1 n=g6 v=99
92682 On ch=1 n=e5 v=0
92690 On ch=1 n=b4 v=71
92714 On ch=1 n=a6 v=0
92918 On ch=1 n=f#6 v=108
92932 On ch=1 n=a5 v=63
92938 Par ch=1 c=64 v=63
92942 On ch=1 n=f#5 v=62
92962 On ch=1 n=b4 v=0
92968 Par ch=1 c=64 v=0
92970 On ch=1 n=g6 v=0
93066 Par ch=1 c=64 v=63
93086 Par ch=1 c=64 v=127
93120 On ch=1 n=a5 v=0
93136 On ch=1 n=b4 v=68
93156 On ch=1 n=f#5 v=0
93230 On ch=1 n=f#6 v=0
93328 On ch=1 n=b4 v=0
93364 On ch=1 n=a6 v=99
93386 On ch=1 n=f#5 v=85
93394 On ch=1 n=d#5 v=69
93428 Par ch=1 c=64 v=63
93482 Par ch=1 c=64 v=0
93518 Par ch=1 c=64 v=63
93558 Par ch=1 c=64 v=127
93560 On ch=1 n=b4 v=76
93576 On ch=1 n=g6 v=79
93608 On ch=1 n=a6 v=0
93614 On ch=1 n=d#5 v=0
93654 On ch=1 n=f#5 v=0
93756 On ch=1 n=g6 v=0
93776 On ch=1 n=f#6 v=110
93790 Par ch=1 c=64 v=63
93798 On ch=1 n=g5 v=82
93800 On ch=1 n=e5 v=80
93816 Par ch=1 c=64 v=0
93844 On ch=1 n=b4 v=0
93884 Par ch=1 c=64 v=63
93904 Par ch=1 c=64 v=127
93964 On ch=1 n=e5 v=0
93964 On ch=1 n=e6 v=106
93978 On ch=1 n=g5 v=0
93986 On ch=1 n=b4 v=90
93994 On ch=1 n=f#6 v=0
94068 Par ch=1 c=64 v=63
94078 Par ch=1 c=64 v=0
94190 On ch=1 n=b4 v=0
94192 Par ch=1 c=64 v=63
94198 Par ch=1 c=64 v=127
94208 On ch=1 n=d#6 v=113
94214 On ch=1 n=a5 v=93
94218 On ch=1 n=f#5 v=95
94264 On ch=1 n=e6 v=0
94278 On ch=1 n=d#6 v=0
94286 On ch=1 n=f#5 v=0
94312 On ch=1 n=a5 v=0
94682 On ch=1 n=b6 v=102
94688 On ch=1 n=b5 v=97
94696 On ch=1 n=b4 v=109
94700 On ch=1 n=b3 v=100
94706 Par ch=1 c=64 v=63
94714 Par ch=1 c=64 v=0
94750 On ch=1 n=b5 v=0
94758 On ch=1 n=b4 v=0
94762 On ch=1 n=b3 v=0
94764 On ch=1 n=b6 v=0
94888 On ch=1 n=a4 v=99
94892 On ch=1 n=a3 v=97
94896 On ch=1 n=a6 v=98
94912 On ch=1 n=a5 v=58
94934 On ch=1 n=a4 v=0
94938 On ch=1 n=a6 v=0
94950 On ch=1 n=a3 v=0
94966 On ch=1 n=a5 v=0
95090 On ch=1 n=g4 v=106
95096 On ch=1 n=g3 v=107
95118 On ch=1 n=g5 v=105
95122 On ch=1 n=g6 v=102
95148 On ch=1 n=g4 v=0
95162 On ch=1 n=g3 v=0
95170 On ch=1 n=g5 v=0
95172 On ch=1 n=g6 v=0
95282 On ch=1 n=f#6 v=108
95284 On ch=1 n=f#5 v=110
95290 On ch=1 n=f#4 v=116
95298 On ch=1 n=f#3 v=109
95338 On ch=1 n=f#5 v=0
95348 On ch=1 n=f#3 v=0
95356 On ch=1 n=f#4 v=0
95358 On ch=1 n=f#6 v=0
95512 On ch=1 n=e6 v=108
95514 On ch=1 n=e4 v=112
95518 On ch=1 n=e3 v=108
95518 On ch=1 n=e5 v=100
95550 On ch=1 n=e5 v=0
95570 On ch=1 n=e6 v=0
95572 On ch=1 n=e4 v=0
95574 On ch=1 n=e3 v=0
95950 On ch=1 n=e6 v=106
95954 On ch=1 n=e5 v=100
95954 On ch=1 n=e3 v=99
95956 On ch=1 n=e4 v=113
96012 On ch=1 n=e5 v=0
96014 On ch=1 n=e3 v=0
96024 On ch=1 n=e4 v=0
96024 On ch=1 n=e6 v=0
96364 On ch=1 n=b6 v=102
96366 On ch=1 n=b5 v=103
96368 On ch=1 n=b3 v=100
96370 On ch=1 n=b4 v=113
96382 Par ch=1 c=64 v=127
96424 On ch=1 n=b4 v=0
96424 On ch=1 n=b5 v=0
96426 On ch=1 n=b6 v=0
96440 On ch=1 n=b3 v=0
96470 Par ch=1 c=64 v=63
96482 Par ch=1 c=64 v=0
96792 On ch=1 n=e6 v=108
96794 On ch=1 n=e3 v=100
96796 On ch=1 n=e5 v=104
96798 On ch=1 n=e4 v=117
96818 Par ch=1 c=64 v=127
96852 On ch=1 n=e5 v=0
96854 On ch=1 n=e3 v=0
96858 On ch=1 n=e4 v=0
96886 On ch=1 n=e6 v=0
97228 Par ch=1 c=64 v=63
97234 Par ch=1 c=64 v=0
97242 On ch=1 n=b5 v=101
97244 On ch=1 n=b6 v=101
97246 On ch=1 n=b4 v=109
97248 On ch=1 n=b3 v=103
97304 On ch=1 n=b5 v=0
97312 On ch=1 n=b6 v=0
97314 On ch=1 n=b4 v=0
97322 On ch=1 n=b3 v=0
97436 On ch=1 n=a6 v=103
97438 On ch=1 n=a4 v=106
97442 On ch=1 n=a5 v=98
97446 On ch=1 n=a3 v=97
97494 On ch=1 n=a5 v=0
97498 On ch=1 n=a3 v=0
97506 On ch=1 n=a4 v=0
97512 On ch=1 n=a6 v=0
97640 On ch=1 n=g4 v=100
97640 On ch=1 n=g3 v=107
97660 On ch=1 n=g6 v=96
97660 On ch=1 n=g5 v=83
97690 On ch=1 n=g6 v=0
97698 On ch=1 n=g5 v=0
97700 On ch=1 n=g4 v=0
97718 On ch=1 n=g3 v=0
97830 On ch=1 n=f#6 v=106
97832 On ch=1 n=f#5 v=110
97846 On ch=1 n=f#4 v=113
97854 On ch=1 n=f#3 v=110
97894 On ch=1 n=f#5 v=0
97910 On ch=1 n=f#4 v=0
97910 On ch=1 n=f#6 v=0
97920 On ch=1 n=f#3 v=0
98058 On ch=1 n=e6 v=107
98060 On ch=1 n=e5 v=102
98060 On ch=1 n=e4 v=113
98064 On ch=1 n=e3 v=111
98094 On ch=1 n=e5 v=0
98100 On ch=1 n=e6 v=0
98116 On ch=1 n=e3 v=0
98116 On ch=1 n=e4 v=0
98502 On ch=1 n=e4 v=116
98504 On ch=1 n=e6 v=104
98504 On ch=1 n=e3 v=111
98506 On ch=1 n=e5 v=94
98542 On ch=1 n=e5 v=0
98558 On ch=1 n=e3 v=0
98564 On ch=1 n=e4 v=0
98568 On ch=1 n=e6 v=0
98910 On ch=1 n=b6 v=100
98914 On ch=1 n=b4 v=114
98914 On ch=1 n=b3 v=106
98918 On ch=1 n=b5 v=99
98972 On ch=1 n=b5 v=0
98972 On ch=1 n=b6 v=0
98974 On ch=1 n=b4 v=0
98984 On ch=1 n=b3 v=0
99350 On ch=1 n=e6 v=109
99350 On ch=1 n=e4 v=114
99352 On ch=1 n=e3 v=107
99352 On ch=1 n=e5 v=103
99386 Par ch=1 c=64 v=127
99408 On ch=1 n=e3 v=0
99410 On ch=1 n=e4 v=0
99500 On ch=1 n=e5 v=0
99610 On ch=1 n=e6 v=0
99914 On ch=1 n=e6 v=69
100050 On ch=1 n=e6 v=0
100050 Par ch=1 c=64 v=63
100120 Par ch=1 c=64 v=0
100164 On ch=1 n=d6 v=65
100308 On ch=1 n=d6 v=0
100384 On ch=1 n=e6 v=65
100558 On ch=1 n=e6 v=0
100620 On ch=1 n=f6 v=81
100880 On ch=1 n=f6 v=0
100942 On ch=1 n=g6 v=72
100960 On ch=1 n=c5 v=37
101140 Par ch=1 c=64 v=63
101160 Par ch=1 c=64 v=127
101262 On ch=1 n=e5 v=33
101358 On ch=1 n=g6 v=0
101524 On ch=1 n=e5 v=0
101544 On ch=1 n=g6 v=61
101550 On ch=1 n=g5 v=18
101764 On ch=1 n=g5 v=0
101788 On ch=1 n=e5 v=17
102014 On ch=1 n=b4 v=51
102022 On ch=1 n=c5 v=0
102034 On ch=1 n=f5 v=21
102046 Par ch=1 c=64 v=63
102106 On ch=1 n=e5 v=0
102114 Par ch=1 c=64 v=127
102192 On ch=1 n=g6 v=0
102266 On ch=1 n=g6 v=86
102280 On ch=1 n=d5 v=57
102364 On ch=1 n=f5 v=0
102530 On ch=1 n=b4 v=0
102544 On ch=1 n=c5 v=39
102550 On ch=1 n=c7 v=83
102582 On ch=1 n=g6 v=0
102618 On ch=1 n=d5 v=0
102628 Par ch=1 c=64 v=63
102650 Par ch=1 c=64 v=0
102816 On ch=1 n=e5 v=42
102946 Par ch=1 c=64 v=63
102974 Par ch=1 c=64 v=127
103050 On ch=1 n=g6 v=57
103066 On ch=1 n=g5 v=32
103098 On ch=1 n=c7 v=0
103100 On ch=1 n=e5 v=0
103272 On ch=1 n=g5 v=0
103302 On ch=1 n=e5 v=19
103472 On ch=1 n=g6 v=0
103494 On ch=1 n=b4 v=50
103506 On ch=1 n=c5 v=0
103520 On ch=1 n=f5 v=32
103524 On ch=1 n=e5 v=0
103748 On ch=1 n=d5 v=49
103812 On ch=1 n=f5 v=0
103968 On ch=1 n=b4 v=0
103970 On ch=1 n=g6 v=71
103980 On ch=1 n=c5 v=46
104034 Par ch=1 c=64 v=63
104042 On ch=1 n=d5 v=0
104066 Par ch=1 c=64 v=0
104170 Par ch=1 c=64 v=63
104200 Par ch=1 c=64 v=127
104202 On ch=1 n=e5 v=65
104326 On ch=1 n=g6 v=0
104434 On ch=1 n=e5 v=0
104436 On ch=1 n=g5 v=37
104440 On ch=1 n=g6 v=96
104604 On ch=1 n=g5 v=0
104626 On ch=1 n=e5 v=50
104820 Par ch=1 c=64 v=63
104836 On ch=1 n=b4 v=69
104850 Par ch=1 c=64 v=0
104856 On ch=1 n=f5 v=60
104860 On ch=1 n=c5 v=0
104908 On ch=1 n=e5 v=0
104920 Par ch=1 c=64 v=63
104944 On ch=1 n=g6 v=0
104946 Par ch=1 c=64 v=127
105070 On ch=1 n=d5 v=76
105074 On ch=1 n=g6 v=96
105092 On ch=1 n=f5 v=0
105274 On ch=1 n=b4 v=0
105296 On ch=1 n=c7 v=94
105296 On ch=1 n=c5 v=58
105358 On ch=1 n=d5 v=0
105374 On ch=1 n=g6 v=0
105428 Par ch=1 c=64 v=63
105446 Par ch=1 c=64 v=0
105522 On ch=1 n=e5 v=77
105626 Par ch=1 c=64 v=63
105640 Par ch=1 c=64 v=127
105740 On ch=1 n=g6 v=92
105746 On ch=1 n=g5 v=51
105786 On ch=1 n=e5 v=0
105804 On ch=1 n=c7 v=0
105922 On ch=1 n=g5 v=0
105942 On ch=1 n=e5 v=64
106018 On ch=1 n=c5 v=0
106164 On ch=1 n=c5 v=87
106198 Par ch=1 c=64 v=63
106208 Par ch=1 c=64 v=0
106252 On ch=1 n=e5 v=0
106302 Par ch=1 c=64 v=63
106310 Par ch=1 c=64 v=127
106400 On ch=1 n=g6 v=0
106424 On ch=1 n=e5 v=70
106522 On ch=1 n=g6 v=91
106692 On ch=1 n=e7 v=100
106710 On ch=1 n=a#4 v=78
106726 On ch=1 n=g6 v=0
106776 On ch=1 n=c5 v=0
106804 Par ch=1 c=64 v=63
106820 Par ch=1 c=64 v=0
106912 Par ch=1 c=64 v=63
106924 Par ch=1 c=64 v=127
106936 On ch=1 n=e5 v=0
106984 On ch=1 n=c5 v=73
107208 On ch=1 n=e5 v=63
107220 On ch=1 n=g6 v=89
107320 On ch=1 n=e7 v=0
107414 On ch=1 n=g5 v=74
107472 On ch=1 n=e5 v=0
107616 On ch=1 n=g6 v=0
107630 On ch=1 n=c5 v=0
107638 On ch=1 n=a#4 v=0
107638 On ch=1 n=e5 v=79
107660 On ch=1 n=g5 v=0
107838 On ch=1 n=c5 v=90
107948 On ch=1 n=g6 v=100
108060 On ch=1 n=a4 v=84
108084 On ch=1 n=e7 v=108
108114 Par ch=1 c=64 v=63
108124 Par ch=1 c=64 v=0
108134 On ch=1 n=c5 v=0
108164 On ch=1 n=g6 v=0
108232 On ch=1 n=e5 v=0
108288 Par ch=1 c=64 v=63
108290 Par ch=1 c=64 v=127
108314 On ch=1 n=c#5 v=95
108532 On ch=1 n=g6 v=94
108542 On ch=1 n=e5 v=70
108596 On ch=1 n=e7 v=0
108740 On ch=1 n=g5 v=82
108756 On ch=1 n=c#5 v=0
108796 On ch=1 n=e5 v=0
108930 On ch=1 n=g6 v=0
108950 On ch=1 n=e5 v=82
108994 On ch=1 n=g5 v=0
109148 On ch=1 n=c#5 v=104
109212 On ch=1 n=e5 v=0
109234 On ch=1 n=a4 v=0
109288 On ch=1 n=g6 v=106
109382 On ch=1 n=g6 v=0
109430 On ch=1 n=g6 v=91
109442 On ch=1 n=d5 v=74
109446 On ch=1 n=a4 v=51
109496 On ch=1 n=c#5 v=0
109666 Par ch=1 c=64 v=63
109682 Par ch=1 c=64 v=0
109696 On ch=1 n=f6 v=88
109812 On ch=1 n=g6 v=0
109874 Par ch=1 c=64 v=63
109888 Par ch=1 c=64 v=127
109920 On ch=1 n=e6 v=97
110012 On ch=1 n=f6 v=0
110062 On ch=1 n=a4 v=0
110112 On ch=1 n=f6 v=101
110180 On ch=1 n=e6 v=0
110316 On ch=1 n=e5 v=84
110316 On ch=1 n=g#4 v=76
110330 On ch=1 n=e6 v=99
110336 Par ch=1 c=64 v=63
110338 On ch=1 n=d5 v=0
110356 Par ch=1 c=64 v=0
110408 On ch=1 n=f6 v=0
110478 Par ch=1 c=64 v=63
110496 Par ch=1 c=64 v=127
110514 On ch=1 n=g#4 v=0
110538 On ch=1 n=f5 v=85
110542 On ch=1 n=d6 v=89
110560 On ch=1 n=e6 v=0
110600 On ch=1 n=e5 v=0
110760 On ch=1 n=c#6 v=100
110778 On ch=1 n=e5 v=55
110786 On ch=1 n=a4 v=32
110790 On ch=1 n=d6 v=0
110796 Par ch=1 c=64 v=63
110818 Par ch=1 c=64 v=0
110836 On ch=1 n=f5 v=0
110914 Par ch=1 c=64 v=63
110936 Par ch=1 c=64 v=127
110978 On ch=1 n=c#6 v=0
110988 On ch=1 n=g#6 v=89
111178 Par ch=1 c=64 v=63
111200 Par ch=1 c=64 v=0
111200 On ch=1 n=a6 v=90
111250 On ch=1 n=g#6 v=0
111410 On ch=1 n=g#6 v=100
111458 On ch=1 n=a6 v=0
111506 On ch=1 n=a4 v=0
111546 On ch=1 n=e5 v=0
111616 On ch=1 n=a6 v=91
111694 On ch=1 n=g#6 v=0
111832 On ch=1 n=e6 v=99
111862 On ch=1 n=a6 v=0
112088 On ch=1 n=g#5 v=103
112100 On ch=1 n=a#4 v=86
112102 On ch=1 n=g6 v=89
112112 On ch=1 n=d5 v=83
112150 On ch=1 n=e6 v=0
112340 On ch=1 n=f6 v=87
112432 On ch=1 n=g6 v=0
112552 On ch=1 n=e6 v=87
112648 On ch=1 n=f6 v=0
112766 On ch=1 n=f6 v=83
112812 On ch=1 n=e6 v=0
112994 On ch=1 n=e6 v=84
113056 On ch=1 n=f6 v=0
113104 Par ch=1 c=64 v=63
113114 Par ch=1 c=64 v=127
113182 On ch=1 n=d5 v=0
113210 On ch=1 n=d6 v=79
113228 On ch=1 n=e6 v=0
113272 On ch=1 n=a#4 v=0
113298 On ch=1 n=g#5 v=0
113432 On ch=1 n=a6 v=64
113446 On ch=1 n=d6 v=0
113446 On ch=1 n=a4 v=28
113448 On ch=1 n=a5 v=51
113458 On ch=1 n=c#5 v=59
113502 Par ch=1 c=64 v=63
113516 Par ch=1 c=64 v=0
113618 Par ch=1 c=64 v=63
113634 Par ch=1 c=64 v=127
113682 On ch=1 n=g#6 v=79
113710 On ch=1 n=a6 v=0
113832 Par ch=1 c=64 v=63
113844 Par ch=1 c=64 v=0
113868 On ch=1 n=a5 v=0
113894 On ch=1 n=a6 v=68
113896 On ch=1 n=c#5 v=0
113898 On ch=1 n=a4 v=0
113916 On ch=1 n=g#6 v=0
114084 On ch=1 n=a6 v=0
114084 On ch=1 n=e6 v=74
114308 On ch=1 n=f5 v=61
114308 On ch=1 n=d5 v=62
114310 On ch=1 n=f6 v=73
114312 On ch=1 n=e6 v=0
114322 On ch=1 n=a4 v=35
114334 Par ch=1 c=64 v=63
114346 Par ch=1 c=64 v=127
114524 On ch=1 n=d6 v=71
114534 On ch=1 n=f5 v=0
114562 On ch=1 n=a4 v=0
114564 On ch=1 n=f6 v=0
114582 On ch=1 n=d5 v=0
114718 On ch=1 n=d6 v=0
114734 Par ch=1 c=64 v=63
114750 Par ch=1 c=64 v=0
114756 On ch=1 n=c#5 v=55
114758 On ch=1 n=e5 v=41
114758 On ch=1 n=a6 v=59
114770 On ch=1 n=a4 v=30
114954 Par ch=1 c=64 v=63
114964 On ch=1 n=g#6 v=76
114966 Par ch=1 c=64 v=127
114980 On ch=1 n=a6 v=0
115176 On ch=1 n=a6 v=70
115178 Par ch=1 c=64 v=63
115186 Par ch=1 c=64 v=0
115188 On ch=1 n=g#6 v=0
115204 On ch=1 n=e5 v=0
115216 On ch=1 n=a4 v=0
115216 On ch=1 n=c#5 v=0
115374 On ch=1 n=e6 v=59
115376 On ch=1 n=a6 v=0
115590 On ch=1 n=f5 v=46
115598 Par ch=1 c=64 v=63
115598 On ch=1 n=a4 v=36
115602 On ch=1 n=d5 v=46
115604 Par ch=1 c=64 v=127
115610 On ch=1 n=f6 v=54
115612 On ch=1 n=e6 v=0
115768 On ch=1 n=d5 v=0
115768 On ch=1 n=f5 v=0
115784 On ch=1 n=a4 v=0
115830 On ch=1 n=f6 v=0
115830 On ch=1 n=d6 v=63
115882 On ch=1 n=d6 v=0
116062 On ch=1 n=c#5 v=38
116066 On ch=1 n=a5 v=68
116070 On ch=1 n=a4 v=22
116074 On ch=1 n=e5 v=16
116124 Par ch=1 c=64 v=63
116138 Par ch=1 c=64 v=0
116246 Par ch=1 c=64 v=63
116260 Par ch=1 c=64 v=127
116296 On ch=1 n=g#5 v=71
116340 On ch=1 n=a5 v=0
116522 On ch=1 n=g#5 v=0
116528 On ch=1 n=a5 v=47
116580 Par ch=1 c=64 v=63
116614 Par ch=1 c=64 v=0
116732 Par ch=1 c=64 v=63
116748 On ch=1 n=g#5 v=65
116756 Par ch=1 c=64 v=127
116822 On ch=1 n=a5 v=0
116864 On ch=1 n=e5 v=0
116910 On ch=1 n=a4 v=0
116914 On ch=1 n=c#5 v=0
116970 Par ch=1 c=64 v=63
116998 Par ch=1 c=64 v=0
117006 On ch=1 n=g#5 v=0
117010 On ch=1 n=a5 v=45
117048 Par ch=1 c=64 v=63
117082 Par ch=1 c=64 v=127
117278 On ch=1 n=g#5 v=57
117320 On ch=1 n=a5 v=0
117380 On ch=1 n=g#5 v=0
117642 On ch=1 n=a5 v=68
117662 On ch=1 n=d4 v=20
117668 On ch=1 n=d3 v=31
117668 On ch=1 n=f#5 v=68
117700 Par ch=1 c=64 v=63
117722 Par ch=1 c=64 v=0
117786 Par ch=1 c=64 v=63
117806 Par ch=1 c=64 v=127
117958 On ch=1 n=f#5 v=0
117958 On ch=1 n=a4 v=21
117964 On ch=1 n=a5 v=0
118164 On ch=1 n=a4 v=0
118206 On ch=1 n=f#5 v=85
118222 On ch=1 n=d5 v=61
118412 On ch=1 n=a4 v=51
118498 On ch=1 n=f#5 v=0
118566 On ch=1 n=d5 v=0
118636 On ch=1 n=g5 v=89
118638 On ch=1 n=a4 v=0
118644 On ch=1 n=e5 v=79
118722 Par ch=1 c=64 v=63
118756 Par ch=1 c=64 v=0
118778 Par ch=1 c=64 v=63
118812 On ch=1 n=a4 v=71
118818 Par ch=1 c=64 v=127
118886 On ch=1 n=e5 v=0
118930 On ch=1 n=g5 v=0
118978 On ch=1 n=a4 v=0
119080 On ch=1 n=a5 v=72
119092 On ch=1 n=f#5 v=83
119172 Par ch=1 c=64 v=63
119196 Par ch=1 c=64 v=0
119270 Par ch=1 c=64 v=63
119288 Par ch=1 c=64 v=127
119314 On ch=1 n=a5 v=0
119328 On ch=1 n=d5 v=83
119336 On ch=1 n=f#5 v=0
119482 On ch=1 n=d5 v=0
119568 On ch=1 n=d6 v=79
119580 On ch=1 n=b5 v=69
119690 On ch=1 n=b5 v=0
119758 Par ch=1 c=64 v=63
119778 Par ch=1 c=64 v=0
119784 On ch=1 n=a5 v=66
119798 On ch=1 n=c#6 v=90
119846 On ch=1 n=d6 v=0
119878 Par ch=1 c=64 v=63
119884 On ch=1 n=d3 v=0
119896 Par ch=1 c=64 v=127
119992 On ch=1 n=b5 v=78
120006 On ch=1 n=a5 v=0
120014 On ch=1 n=g5 v=72
120020 On ch=1 n=c#6 v=0
120054 On ch=1 n=d4 v=0
120082 On ch=1 n=b5 v=0
120164 On ch=1 n=g5 v=0
120210 On ch=1 n=a5 v=69
120216 On ch=1 n=f#5 v=72
120418 On ch=1 n=g5 v=89
120422 On ch=1 n=f#5 v=0
120444 Par ch=1 c=64 v=63
120454 On ch=1 n=b3 v=54
120460 Par ch=1 c=64 v=0
120466 On ch=1 n=a5 v=0
120588 Par ch=1 c=64 v=63
120606 Par ch=1 c=64 v=127
120620 On ch=1 n=d5 v=68
120832 On ch=1 n=f#5 v=90
120834 On ch=1 n=g5 v=0
120844 On ch=1 n=a5 v=91
120856 On ch=1 n=d5 v=0
120864 Par ch=1 c=64 v=63
120870 On ch=1 n=a3 v=71
120888 Par ch=1 c=64 v=0
120922 On ch=1 n=b3 v=0
120980 Par ch=1 c=64 v=63
121006 Par ch=1 c=64 v=127
121048 On ch=1 n=d5 v=82
121128 On ch=1 n=f#5 v=0
121270 On ch=1 n=g3 v=83
121272 On ch=1 n=b5 v=94
121276 On ch=1 n=g5 v=90
121280 Par ch=1 c=64 v=63
121286 On ch=1 n=d5 v=0
121304 Par ch=1 c=64 v=0
121306 On ch=1 n=a5 v=0
121318 On ch=1 n=a3 v=0
121398 Par ch=1 c=64 v=63
121418 Par ch=1 c=64 v=127
121466 On ch=1 n=d5 v=81
121600 On ch=1 n=g5 v=0
121652 On ch=1 n=d5 v=0
121652 Par ch=1 c=64 v=63
121658 Par ch=1 c=64 v=0
121706 On ch=1 n=b5 v=0
121714 On ch=1 n=d4 v=94
121714 On ch=1 n=a5 v=83
121714 On ch=1 n=f#5 v=90
121730 On ch=1 n=g3 v=0
121780 Par ch=1 c=64 v=63
121786 Par ch=1 c=64 v=127
121836 On ch=1 n=d4 v=0
121884 On ch=1 n=a5 v=0
121908 On ch=1 n=d5 v=65
121912 On ch=1 n=f#5 v=0
121966 On ch=1 n=d5 v=0
122188 On ch=1 n=d7 v=81
122192 On ch=1 n=d6 v=75
122194 On ch=1 n=b5 v=67
122292 On ch=1 n=b5 v=0
122396 On ch=1 n=c#6 v=92
122400 On ch=1 n=c#7 v=98
122414 On ch=1 n=a5 v=74
122420 On ch=1 n=d7 v=0
122430 On ch=1 n=d6 v=0
122580 On ch=1 n=a5 v=0
122592 On ch=1 n=b6 v=89
122594 On ch=1 n=c#7 v=0
122612 On ch=1 n=b5 v=80
122620 On ch=1 n=c#6 v=0
122622 On ch=1 n=g5 v=80
122694 On ch=1 n=b5 v=0
122742 On ch=1 n=g5 v=0
122746 On ch=1 n=b6 v=0
122786 On ch=1 n=a6 v=82
122808 On ch=1 n=a5 v=84
122818 On ch=1 n=f#5 v=89
122930 On ch=1 n=a5 v=0
122944 On ch=1 n=f#5 v=0
123010 On ch=1 n=g6 v=94
123012 On ch=1 n=g5 v=87
123030 On ch=1 n=e5 v=76
123044 On ch=1 n=a6 v=0
123112 Par ch=1 c=64 v=63
123136 Par ch=1 c=64 v=0
123244 On ch=1 n=e5 v=0
123244 On ch=1 n=d5 v=59
123262 Par ch=1 c=64 v=63
123282 Par ch=1 c=64 v=127
123418 On ch=1 n=g5 v=0
123442 Par ch=1 c=64 v=63
123444 On ch=1 n=a6 v=99
123456 On ch=1 n=a5 v=74
123456 On ch=1 n=f#5 v=86
123468 Par ch=1 c=64 v=0
123474 On ch=1 n=d5 v=0
123516 On ch=1 n=g6 v=0
123592 Par ch=1 c=64 v=63
123616 Par ch=1 c=64 v=127
123654 On ch=1 n=a5 v=0
123658 On ch=1 n=d5 v=68
123754 On ch=1 n=f#5 v=0
123872 On ch=1 n=b6 v=82
123882 On ch=1 n=a6 v=0
123886 On ch=1 n=b5 v=64
123888 On ch=1 n=d5 v=0
123890 Par ch=1 c=64 v=63
123892 On ch=1 n=g5 v=55
123914 Par ch=1 c=64 v=0
124022 Par ch=1 c=64 v=63
124046 Par ch=1 c=64 v=127
124080 On ch=1 n=d5 v=63
124158 On ch=1 n=g5 v=0
124296 On ch=1 n=f#5 v=69
124310 On ch=1 n=d5 v=0
124312 On ch=1 n=a5 v=71
124330 On ch=1 n=b5 v=0
124334 On ch=1 n=b6 v=0
124338 On ch=1 n=a6 v=56
124402 Par ch=1 c=64 v=63
124420 Par ch=1 c=64 v=0
124538 On ch=1 n=d5 v=42
124550 On ch=1 n=f#5 v=0
124752 On ch=1 n=a5 v=0
124764 Par ch=1 c=64 v=63
124764 Par ch=1 c=64 v=127
124766 On ch=1 n=b5 v=54
124770 On ch=1 n=g5 v=55
124788 On ch=1 n=d5 v=0
124828 On ch=1 n=a6 v=0
124960 On ch=1 n=g5 v=0
124982 On ch=1 n=f#5 v=63
124994 On ch=1 n=a5 v=67
125002 On ch=1 n=b5 v=0
125174 On ch=1 n=f#5 v=0
125200 On ch=1 n=e5 v=72
125210 On ch=1 n=g5 v=78
125262 On ch=1 n=a5 v=0
125298 On ch=1 n=e5 v=0
125388 On ch=1 n=f#5 v=92
125394 On ch=1 n=d5 v=77
125420 On ch=1 n=g5 v=0
125470 On ch=1 n=f#5 v=0
125478 On ch=1 n=d5 v=0
125598 On ch=1 n=a3 v=82
125600 On ch=1 n=c#5 v=91
125616 On ch=1 n=e5 v=65
125668 Par ch=1 c=64 v=63
125686 Par ch=1 c=64 v=0
125788 Par ch=1 c=64 v=63
125804 Par ch=1 c=64 v=127
125812 On ch=1 n=a4 v=76
125886 On ch=1 n=c#5 v=0
125906 On ch=1 n=e5 v=0
125996 On ch=1 n=a4 v=0
126036 On ch=1 n=a5 v=96
126046 On ch=1 n=d5 v=81
126056 On ch=1 n=f#3 v=88
126064 Par ch=1 c=64 v=63
126090 Par ch=1 c=64 v=0
126116 On ch=1 n=a3 v=0
126146 Par ch=1 c=64 v=63
126180 Par ch=1 c=64 v=127
126250 On ch=1 n=a4 v=25
126278 On ch=1 n=d5 v=0
126420 On ch=1 n=a5 v=0
126484 Par ch=1 c=64 v=63
126498 On ch=1 n=d3 v=49
126498 On ch=1 n=f#5 v=88
126510 On ch=1 n=d5 v=68
126514 Par ch=1 c=64 v=0
126516 On ch=1 n=a4 v=0
126518 On ch=1 n=f#3 v=0
126566 Par ch=1 c=64 v=63
126602 Par ch=1 c=64 v=127
126686 On ch=1 n=d5 v=0
126692 On ch=1 n=a4 v=46
126854 Par ch=1 c=64 v=63
126868 Par ch=1 c=64 v=0
126888 On ch=1 n=a4 v=0
126910 On ch=1 n=f#5 v=0
126930 On ch=1 n=a3 v=59
126948 On ch=1 n=d3 v=0
126948 On ch=1 n=e5 v=65
126950 On ch=1 n=c#5 v=67
126956 Par ch=1 c=64 v=63
126968 Par ch=1 c=64 v=127
127000 On ch=1 n=a3 v=0
127102 On ch=1 n=e5 v=0
127130 On ch=1 n=c#5 v=0
127152 On ch=1 n=a4 v=36
127206 On ch=1 n=a4 v=0
127454 On ch=1 n=b6 v=69
127460 On ch=1 n=b5 v=48
127492 On ch=1 n=g5 v=30
127588 On ch=1 n=g5 v=0
127656 On ch=1 n=b5 v=0
127656 On ch=1 n=f#5 v=86
127666 On ch=1 n=a5 v=76
127684 On ch=1 n=a6 v=63
127696 On ch=1 n=b6 v=0
127866 On ch=1 n=f#5 v=0
127878 On ch=1 n=g6 v=88
127882 On ch=1 n=g5 v=78
127908 On ch=1 n=e5 v=29
127910 On ch=1 n=a6 v=0
127922 On ch=1 n=a5 v=0
127976 On ch=1 n=e5 v=0
128038 On ch=1 n=g5 v=0
128044 On ch=1 n=f#6 v=106
128066 On ch=1 n=f#5 v=87
128094 On ch=1 n=g6 v=0
128140 On ch=1 n=f#5 v=0
128254 On ch=1 n=g#6 v=74
128282 On ch=1 n=c#5 v=89
128282 On ch=1 n=e5 v=76
128284 On ch=1 n=a6 v=93
128294 On ch=1 n=f#6 v=0
128308 Par ch=1 c=64 v=63
128326 Par ch=1 c=64 v=0
128346 On ch=1 n=g#6 v=0
128416 Par ch=1 c=64 v=63
128432 Par ch=1 c=64 v=127
128466 On ch=1 n=e5 v=0
128484 On ch=1 n=a4 v=53
128488 On ch=1 n=c#5 v=0
128658 On ch=1 n=a4 v=0
128666 On ch=1 n=a6 v=0
128686 On ch=1 n=g#6 v=79
128712 On ch=1 n=a5 v=76
128714 On ch=1 n=f#5 v=85
128740 On ch=1 n=a6 v=94
128778 Par ch=1 c=64 v=63
128810 On ch=1 n=g#6 v=0
128858 On ch=1 n=a5 v=0
128884 Par ch=1 c=64 v=127
128938 On ch=1 n=a4 v=57
129002 On ch=1 n=f#5 v=0
129112 On ch=1 n=a6 v=0
129116 On ch=1 n=g#6 v=76
129140 Par ch=1 c=64 v=63
129154 Par ch=1 c=64 v=0
129158 On ch=1 n=f#5 v=87
129180 On ch=1 n=a6 v=84
129184 On ch=1 n=d5 v=65
129214 On ch=1 n=a4 v=0
129228 On ch=1 n=g#6 v=0
129244 Par ch=1 c=64 v=63
129262 Par ch=1 c=64 v=127
129380 On ch=1 n=d5 v=0
129384 On ch=1 n=a4 v=48
129512 On ch=1 n=f#5 v=0
129524 On ch=1 n=a6 v=0
129536 Par ch=1 c=64 v=63
129554 On ch=1 n=g#6 v=53
129558 Par ch=1 c=64 v=0
129602 On ch=1 n=e5 v=67
129604 On ch=1 n=a6 v=77
129608 On ch=1 n=c#5 v=70
129614 On ch=1 n=a4 v=0
129620 Par ch=1 c=64 v=63
129628 On ch=1 n=g#6 v=0
129644 Par ch=1 c=64 v=127
129714 On ch=1 n=a6 v=0
129854 On ch=1 n=c#5 v=0
129856 On ch=1 n=e5 v=0
129890 On ch=1 n=a5 v=39
129944 On ch=1 n=a5 v=0
130194 On ch=1 n=b4 v=57
130224 On ch=1 n=d6 v=82
130232 On ch=1 n=d5 v=69
130262 Par ch=1 c=64 v=63
130300 Par ch=1 c=64 v=0
130346 Par ch=1 c=64 v=63
130374 Par ch=1 c=64 v=127
130460 On ch=1 n=c#6 v=103
130466 On ch=1 n=a#4 v=75
130508 On ch=1 n=d6 v=0
130526 On ch=1 n=b4 v=0
130676 On ch=1 n=b4 v=82
130678 On ch=1 n=d6 v=102
130684 On ch=1 n=a#4 v=0
130726 On ch=1 n=c#6 v=0
130818 On ch=1 n=d6 v=0
130876 On ch=1 n=b5 v=99
130884 On ch=1 n=g4 v=90
130892 On ch=1 n=b4 v=0
130988 On ch=1 n=b5 v=0
131120 On ch=1 n=a5 v=98
131126 On ch=1 n=d5 v=0
131134 On ch=1 n=f#4 v=84
131172 Par ch=1 c=64 v=63
131202 On ch=1 n=g4 v=0
131252 Par ch=1 c=64 v=127
131306 On ch=1 n=a5 v=0
131342 On ch=1 n=f#4 v=0
131348 On ch=1 n=a4 v=69
131528 On ch=1 n=a4 v=0
131580 On ch=1 n=g5 v=86
131588 On ch=1 n=e5 v=85
131598 On ch=1 n=e4 v=71
131652 Par ch=1 c=64 v=63
131694 Par ch=1 c=64 v=0
131706 Par ch=1 c=64 v=63
131754 Par ch=1 c=64 v=127
131802 On ch=1 n=b4 v=73
131812 On ch=1 n=e5 v=0
131990 On ch=1 n=g5 v=0
132012 On ch=1 n=b4 v=0
132018 On ch=1 n=e5 v=94
132032 On ch=1 n=c#5 v=88
132038 On ch=1 n=a3 v=68
132050 Par ch=1 c=64 v=63
132068 Par ch=1 c=64 v=0
132076 On ch=1 n=e4 v=0
132118 Par ch=1 c=64 v=63
132144 Par ch=1 c=64 v=127
132232 On ch=1 n=a4 v=80
132272 On ch=1 n=e5 v=0
132290 On ch=1 n=c#5 v=0
132442 On ch=1 n=a4 v=0
132450 On ch=1 n=f#5 v=100
132464 On ch=1 n=d5 v=81
132468 On ch=1 n=a3 v=0
132478 Par ch=1 c=64 v=63
132482 On ch=1 n=d4 v=70
132490 Par ch=1 c=64 v=0
132572 Par ch=1 c=64 v=63
132582 Par ch=1 c=64 v=127
132640 On ch=1 n=d4 v=0
132694 On ch=1 n=a5 v=78
132716 On ch=1 n=d5 v=0
132718 On ch=1 n=f#5 v=0
132770 On ch=1 n=a5 v=0
133004 On ch=1 n=d7 v=79
133010 On ch=1 n=d6 v=84
133018 On ch=1 n=b5 v=72
133138 On ch=1 n=b5 v=0
133170 Par ch=1 c=64 v=63
133226 Par ch=1 c=64 v=127
133236 On ch=1 n=c#7 v=99
133254 On ch=1 n=c#6 v=93
133256 On ch=1 n=a#5 v=87
133310 On ch=1 n=d6 v=0
133310 On ch=1 n=d7 v=0
133446 On ch=1 n=d7 v=98
133456 On ch=1 n=a#5 v=0
133470 On ch=1 n=d6 v=94
133476 On ch=1 n=b5 v=90
133484 On ch=1 n=c#7 v=0
133518 On ch=1 n=c#6 v=0
133588 On ch=1 n=b5 v=0
133608 On ch=1 n=d7 v=0
133656 On ch=1 n=b5 v=87
133668 On ch=1 n=b6 v=72
133676 On ch=1 n=g5 v=88
133706 On ch=1 n=d6 v=0
133742 On ch=1 n=b5 v=0
133780 On ch=1 n=g5 v=0
133892 On ch=1 n=a6 v=85
133896 On ch=1 n=a5 v=81
133898 On ch=1 n=b6 v=0
133914 On ch=1 n=f#5 v=70
133972 Par ch=1 c=64 v=63
133992 Par ch=1 c=64 v=0
134084 Par ch=1 c=64 v=63
134100 Par ch=1 c=64 v=127
134118 On ch=1 n=d5 v=66
134154 On ch=1 n=f#5 v=0
134214 On ch=1 n=a5 v=0
134270 On ch=1 n=d5 v=0
134342 On ch=1 n=g5 v=76
134342 On ch=1 n=g6 v=82
134350 Par ch=1 c=64 v=63
134362 On ch=1 n=e5 v=54
134368 On ch=1 n=a6 v=0
134450 Par ch=1 c=64 v=127
134518 On ch=1 n=e5 v=0
134554 On ch=1 n=b4 v=54
134708 On ch=1 n=b4 v=0
134736 On ch=1 n=g5 v=0
134764 Par ch=1 c=64 v=63
134774 On ch=1 n=e5 v=68
134774 On ch=1 n=e6 v=77
134784 On ch=1 n=c#5 v=65
134796 Par ch=1 c=64 v=0
134824 On ch=1 n=g6 v=0
134856 Par ch=1 c=64 v=63
134892 Par ch=1 c=64 v=127
134980 On ch=1 n=a4 v=56
134992 On ch=1 n=c#5 v=0
135004 On ch=1 n=e5 v=0
135144 Par ch=1 c=64 v=63
135176 Par ch=1 c=64 v=0
135206 On ch=1 n=a4 v=0
135216 On ch=1 n=f#5 v=79
135222 On ch=1 n=f#6 v=64
135234 Par ch=1 c=64 v=63
135244 On ch=1 n=d5 v=50
135252 On ch=1 n=e6 v=0
135262 Par ch=1 c=64 v=127
135310 On ch=1 n=f#6 v=0
135422 On ch=1 n=a5 v=70
135448 On ch=1 n=f#5 v=0
135464 On ch=1 n=d5 v=0
135550 On ch=1 n=a5 v=0
135678 On ch=1 n=a5 v=68
135686 On ch=1 n=b4 v=52
135688 On ch=1 n=g3 v=59
135714 Par ch=1 c=64 v=63
135740 Par ch=1 c=64 v=0
135816 Par ch=1 c=64 v=63
135842 Par ch=1 c=64 v=127
135876 On ch=1 n=g5 v=70
135914 On ch=1 n=a5 v=0
136070 On ch=1 n=g3 v=0
136080 On ch=1 n=g5 v=0
136096 Par ch=1 c=64 v=63
136102 On ch=1 n=a3 v=67
136108 On ch=1 n=b4 v=0
136110 On ch=1 n=g4 v=53
136154 On ch=1 n=e5 v=63
136194 Par ch=1 c=64 v=127
136230 On ch=1 n=a3 v=0
136300 On ch=1 n=e5 v=0
136314 On ch=1 n=c#5 v=72
136532 On ch=1 n=f#4 v=50
136534 On ch=1 n=c#5 v=0
136540 On ch=1 n=d4 v=43
136546 On ch=1 n=g4 v=0
136548 Par ch=1 c=64 v=63
136550 On ch=1 n=d5 v=67
136578 Par ch=1 c=64 v=0
136648 Par ch=1 c=64 v=63
136674 On ch=1 n=f#4 v=0
136686 Par ch=1 c=64 v=127
136702 On ch=1 n=d4 v=0
136736 On ch=1 n=d5 v=0
136774 On ch=1 n=f#5 v=67
136962 Par ch=1 c=64 v=63
136970 On ch=1 n=f#5 v=0
136996 Par ch=1 c=64 v=0
137016 On ch=1 n=a5 v=51
137020 On ch=1 n=g3 v=38
137026 On ch=1 n=b4 v=40
137034 Par ch=1 c=64 v=63
137080 Par ch=1 c=64 v=127
137154 On ch=1 n=g3 v=0
137236 On ch=1 n=g5 v=56
137254 On ch=1 n=a5 v=0
137442 On ch=1 n=g5 v=0
137460 Par ch=1 c=64 v=63
137490 On ch=1 n=a3 v=34
137502 On ch=1 n=g4 v=23
137502 On ch=1 n=e5 v=55
137504 On ch=1 n=b4 v=0
137572 Par ch=1 c=64 v=127
137576 On ch=1 n=a3 v=0
137706 On ch=1 n=g4 v=0
137744 On ch=1 n=c#5 v=68
137796 On ch=1 n=e5 v=0
138018 On ch=1 n=c#5 v=0
138018 Par ch=1 c=64 v=63
138030 On ch=1 n=d5 v=68
138030 On ch=1 n=f#4 v=50
138036 On ch=1 n=d4 v=50
138044 Par ch=1 c=64 v=0
138096 Par ch=1 c=64 v=63
138124 On ch=1 n=f#4 v=0
138136 Par ch=1 c=64 v=127
138144 On ch=1 n=d4 v=0
138238 Par ch=1 c=64 v=63
138270 Par ch=1 c=64 v=0
138662 On ch=1 n=d3 v=50
138684 Par ch=1 c=64 v=63
138688 Par ch=1 c=64 v=127
138704 On ch=1 n=d3 v=0
139310 Par ch=1 c=64 v=63
139316 Par ch=1 c=64 v=0
139376 On ch=1 n=d5 v=0
140048 On ch=1 n=c#5 v=97
140076 On ch=1 n=e5 v=100
140086 Par ch=1 c=64 v=127
140096 On ch=1 n=a5 v=104
140098 On ch=1 n=a3 v=101
140100 On ch=1 n=a4 v=113
140144 On ch=1 n=c#5 v=0
140202 On ch=1 n=e5 v=0
140460 On ch=1 n=a5 v=0
140480 On ch=1 n=a4 v=0
140562 On ch=1 n=a3 v=0
141024 On ch=1 n=e5 v=111
141026 On ch=1 n=e4 v=112
141026 On ch=1 n=e3 v=104
141050 Par ch=1 c=64 v=63
141060 Par ch=1 c=64 v=0
141132 Par ch=1 c=64 v=63
141146 Par ch=1 c=64 v=127
141160 On ch=1 n=e3 v=0
141198 On ch=1 n=e5 v=0
141208 On ch=1 n=e4 v=0
141432 Par ch=1 c=64 v=63
141452 Par ch=1 c=64 v=0
141468 On ch=1 n=c#5 v=119
141474 On ch=1 n=c#4 v=109
141476 On ch=1 n=c#6 v=120
141506 Par ch=1 c=64 v=63
141528 Par ch=1 c=64 v=127
141560 On ch=1 n=c#5 v=0
141588 On ch=1 n=c#4 v=0
141628 On ch=1 n=c#6 v=0
141740 On ch=1 n=d6 v=101
141816 On ch=1 n=b5 v=96
141820 Par ch=1 c=64 v=63
141830 On ch=1 n=d6 v=0
141832 Par ch=1 c=64 v=0
141908 On ch=1 n=a4 v=108
141908 On ch=1 n=a5 v=101
141912 On ch=1 n=a3 v=107
141932 On ch=1 n=b5 v=0
142074 Par ch=1 c=64 v=63
142082 Par ch=1 c=64 v=127
142324 On ch=1 n=a5 v=0
142340 On ch=1 n=a3 v=0
142360 On ch=1 n=a4 v=0
142364 Par ch=1 c=64 v=63
142370 Par ch=1 c=64 v=0
142806 Par ch=1 c=64 v=63
142808 On ch=1 n=e6 v=100
142816 Par ch=1 c=64 v=127
143048 On ch=1 n=f#6 v=83
143080 On ch=1 n=e6 v=0
143104 Par ch=1 c=64 v=63
143122 On ch=1 n=d6 v=85
143124 Par ch=1 c=64 v=0
143148 On ch=1 n=f#6 v=0
143230 On ch=1 n=c#6 v=104
143240 On ch=1 n=d6 v=0
143670 On ch=1 n=f#5 v=63
143670 On ch=1 n=c#7 v=77
143678 On ch=1 n=a4 v=46
143688 On ch=1 n=c#6 v=0
143760 On ch=1 n=c#7 v=0
143768 On ch=1 n=f#5 v=0
143782 On ch=1 n=a4 v=0
144104 On ch=1 n=a5 v=48
144106 On ch=1 n=b4 v=55
144116 On ch=1 n=d#6 v=80
144312 Par ch=1 c=64 v=63
144322 Par ch=1 c=64 v=127
144382 On ch=1 n=b4 v=0
144556 On ch=1 n=e6 v=78
144556 On ch=1 n=g#5 v=68
144560 On ch=1 n=d#6 v=0
144566 On ch=1 n=e5 v=60
144590 Par ch=1 c=64 v=63
144614 Par ch=1 c=64 v=0
144620 On ch=1 n=a5 v=0
144888 Par ch=1 c=64 v=63
144902 Par ch=1 c=64 v=127
145098 On ch=1 n=e5 v=0
145132 On ch=1 n=g#5 v=0
145220 On ch=1 n=e6 v=0
145260 On ch=1 n=f6 v=89
145496 On ch=1 n=g#6 v=93
145554 On ch=1 n=f6 v=0
145690 Par ch=1 c=64 v=63
145708 On ch=1 n=f#6 v=94
145744 Par ch=1 c=64 v=0
145786 On ch=1 n=g#6 v=0
145930 On ch=1 n=e6 v=77
145966 Par ch=1 c=64 v=63
145980 On ch=1 n=f#6 v=0
145998 Par ch=1 c=64 v=127
146128 On ch=1 n=d6 v=57
146134 On ch=1 n=e6 v=0
146260 Par ch=1 c=64 v=63
146264 Par ch=1 c=64 v=127
146350 On ch=1 n=c#6 v=75
146364 On ch=1 n=d6 v=0
146472 Par ch=1 c=64 v=63
146514 Par ch=1 c=64 v=0
146554 On ch=1 n=b5 v=72
146584 On ch=1 n=c#6 v=0
146780 On ch=1 n=a5 v=54
146784 On ch=1 n=b5 v=0
146804 On ch=1 n=e4 v=33
146994 On ch=1 n=g#5 v=70
147028 On ch=1 n=d5 v=30
147042 On ch=1 n=a5 v=0
147214 On ch=1 n=g#5 v=0
147222 On ch=1 n=e6 v=71
147246 On ch=1 n=d5 v=0
147256 On ch=1 n=b4 v=35
147438 On ch=1 n=d6 v=57
147458 On ch=1 n=e6 v=0
147458 On ch=1 n=d5 v=37
147512 On ch=1 n=b4 v=0
147676 On ch=1 n=b4 v=47
147678 On ch=1 n=d6 v=0
147686 On ch=1 n=d5 v=0
147844 On ch=1 n=e4 v=0
147878 On ch=1 n=d5 v=63
147902 On ch=1 n=b4 v=0
148046 Par ch=1 c=64 v=63
148088 On ch=1 n=b5 v=76
148098 On ch=1 n=e4 v=45
148122 On ch=1 n=d5 v=0
148296 On ch=1 n=a5 v=77
148300 On ch=1 n=b5 v=0
148312 On ch=1 n=c#5 v=63
148514 On ch=1 n=f#6 v=80
148524 On ch=1 n=c#5 v=0
148546 On ch=1 n=a4 v=37
148576 On ch=1 n=a5 v=0
148710 On ch=1 n=f#6 v=0
148720 On ch=1 n=c#5 v=52
148746 On ch=1 n=e6 v=58
148780 On ch=1 n=a4 v=0
148946 On ch=1 n=c#5 v=0
148962 On ch=1 n=a4 v=43
149010 On ch=1 n=e6 v=0
149132 On ch=1 n=e4 v=0
149152 On ch=1 n=c#5 v=68
149158 Par ch=1 c=64 v=0
149188 On ch=1 n=a4 v=0
149368 On ch=1 n=c#5 v=0
149376 On ch=1 n=d4 v=78
149378 On ch=1 n=c#6 v=101
149452 Par ch=1 c=64 v=63
149454 Par ch=1 c=64 v=127
149588 On ch=1 n=b4 v=85
149596 On ch=1 n=b5 v=98
149682 On ch=1 n=c#6 v=0
149814 On ch=1 n=g6 v=94
149822 On ch=1 n=f#4 v=76
149858 On ch=1 n=b5 v=0
149866 On ch=1 n=b4 v=0
149974 Par ch=1 c=64 v=63
149988 Par ch=1 c=64 v=0
150008 On ch=1 n=b4 v=59
150022 On ch=1 n=f#6 v=90
150072 On ch=1 n=g6 v=0
150088 On ch=1 n=f#4 v=0
150126 Par ch=1 c=64 v=63
150136 Par ch=1 c=64 v=127
150240 On ch=1 n=f#4 v=71
150244 On ch=1 n=f#6 v=0
150264 On ch=1 n=b4 v=0
150348 Par ch=1 c=64 v=63
150362 Par ch=1 c=64 v=0
150380 On ch=1 n=d4 v=0
150446 On ch=1 n=b4 v=57
150474 On ch=1 n=f#4 v=0
150696 On ch=1 n=d4 v=43
150698 On ch=1 n=b4 v=0
150702 On ch=1 n=f#5 v=72
150786 Par ch=1 c=64 v=63
150810 Par ch=1 c=64 v=127
151092 On ch=1 n=f#5 v=0
151150 On ch=1 n=d4 v=0
151150 On ch=1 n=e6 v=71
151250 Par ch=1 c=64 v=63
151270 Par ch=1 c=64 v=0
151360 On ch=1 n=d6 v=80
151398 On ch=1 n=e6 v=0
151588 On ch=1 n=c#6 v=82
151636 On ch=1 n=d6 v=0
151784 On ch=1 n=b5 v=70
151820 On ch=1 n=c#6 v=0
151992 On ch=1 n=e4 v=59
151998 On ch=1 n=a5 v=58
152002 On ch=1 n=d5 v=45
152016 On ch=1 n=b5 v=0
152048 Par ch=1 c=64 v=63
152070 Par ch=1 c=64 v=127
152134 On ch=1 n=e4 v=0
152202 Par ch=1 c=64 v=63
152204 On ch=1 n=g#5 v=83
152240 On ch=1 n=a5 v=0
152248 Par ch=1 c=64 v=0
152426 On ch=1 n=g#5 v=0
152428 On ch=1 n=d5 v=0
152436 On ch=1 n=c#5 v=57
152442 On ch=1 n=a5 v=57
152442 On ch=1 n=a4 v=42
152536 Par ch=1 c=64 v=63
152556 Par ch=1 c=64 v=127
152788 On ch=1 n=a5 v=0
152826 Par ch=1 c=64 v=63
152832 Par ch=1 c=64 v=0
152836 On ch=1 n=c#5 v=0
152878 On ch=1 n=a4 v=0
153150 On ch=1 n=b5 v=73
153208 On ch=1 n=e6 v=83
153240 Par ch=1 c=64 v=127
153246 On ch=1 n=g#6 v=109
153266 On ch=1 n=b5 v=0
153286 On ch=1 n=b6 v=109
153310 On ch=1 n=e6 v=0
153310 On ch=1 n=e4 v=108
153358 On ch=1 n=g#6 v=0
153554 On ch=1 n=g#4 v=83
153756 On ch=1 n=b4 v=97
153816 On ch=1 n=g#4 v=0
153958 On ch=1 n=g#4 v=106
153964 On ch=1 n=b6 v=0
154032 On ch=1 n=e4 v=0
154034 On ch=1 n=b4 v=0
154160 On ch=1 n=f#4 v=109
154224 On ch=1 n=g#4 v=0
154340 On ch=1 n=e4 v=102
154392 On ch=1 n=f#4 v=0
154528 Par ch=1 c=64 v=63
154544 Par ch=1 c=64 v=0
154576 On ch=1 n=d#4 v=80
154582 On ch=1 n=b6 v=106
154600 On ch=1 n=e4 v=0
154648 Par ch=1 c=64 v=63
154664 Par ch=1 c=64 v=127
154690 On ch=1 n=a6 v=91
154746 On ch=1 n=b6 v=0
154778 On ch=1 n=g#6 v=89
154786 On ch=1 n=e4 v=80
154822 On ch=1 n=a6 v=0
154840 On ch=1 n=d#4 v=0
154886 On ch=1 n=f#6 v=75
154888 On ch=1 n=g#6 v=0
154928 On ch=1 n=f#6 v=0
154970 On ch=1 n=f#4 v=94
154984 On ch=1 n=f#6 v=92
154990 On ch=1 n=e4 v=0
155076 On ch=1 n=f#6 v=0
155080 On ch=1 n=e6 v=82
155112 On ch=1 n=f#4 v=0
155154 On ch=1 n=e6 v=0
155154 On ch=1 n=b3 v=77
155178 On ch=1 n=d#6 v=98
155268 On ch=1 n=c#6 v=106
155278 On ch=1 n=d#6 v=0
155300 Par ch=1 c=64 v=63
155314 Par ch=1 c=64 v=0
155350 On ch=1 n=b5 v=60
155354 On ch=1 n=c#6 v=0
155358 On ch=1 n=c#4 v=94
155416 On ch=1 n=b5 v=0
155440 On ch=1 n=a5 v=91
155458 Par ch=1 c=64 v=63
155470 Par ch=1 c=64 v=127
155514 On ch=1 n=b3 v=0
155550 On ch=1 n=g#5 v=100
155554 On ch=1 n=a5 v=0
155554 On ch=1 n=d#4 v=88
155624 On ch=1 n=a5 v=79
155634 On ch=1 n=g#5 v=0
155650 On ch=1 n=c#4 v=0
155718 Par ch=1 c=64 v=63
155726 On ch=1 n=g#5 v=109
155736 Par ch=1 c=64 v=0
155740 On ch=1 n=a5 v=0
155762 On ch=1 n=e4 v=94
155782 On ch=1 n=d#4 v=0
155808 On ch=1 n=g#5 v=0
155850 On ch=1 n=b5 v=95
155926 On ch=1 n=e6 v=103
155938 On ch=1 n=b5 v=0
155946 On ch=1 n=g#4 v=101
155974 On ch=1 n=e4 v=0
156032 On ch=1 n=g#6 v=108
156038 On ch=1 n=e6 v=0
156126 On ch=1 n=g#6 v=0
156136 On ch=1 n=b4 v=96
156140 On ch=1 n=b6 v=113
156142 Par ch=1 c=64 v=127
156156 On ch=1 n=g#4 v=0
156362 On ch=1 n=g#4 v=86
156410 On ch=1 n=b6 v=0
156576 On ch=1 n=f#4 v=103
156628 On ch=1 n=g#4 v=0
156636 On ch=1 n=b4 v=0
156754 On ch=1 n=e4 v=96
156768 On ch=1 n=f#4 v=0
156954 Par ch=1 c=64 v=63
156968 Par ch=1 c=64 v=0
156978 On ch=1 n=d#4 v=90
156980 On ch=1 n=b6 v=106
157036 On ch=1 n=e4 v=0
157062 Par ch=1 c=64 v=63
157074 Par ch=1 c=64 v=127
157080 On ch=1 n=a6 v=93
157130 On ch=1 n=b6 v=0
157166 On ch=1 n=g#6 v=91
157180 On ch=1 n=e4 v=76
157204 On ch=1 n=a6 v=0
157216 On ch=1 n=d#4 v=0
157258 On ch=1 n=f#6 v=87
157270 On ch=1 n=g#6 v=0
157298 On ch=1 n=f#6 v=0
157344 Par ch=1 c=64 v=63
157352 Par ch=1 c=64 v=0
157360 On ch=1 n=f#4 v=96
157366 On ch=1 n=e4 v=0
157366 On ch=1 n=f#6 v=100
157452 On ch=1 n=f#6 v=0
157464 On ch=1 n=e6 v=84
157508 Par ch=1 c=64 v=63
157512 Par ch=1 c=64 v=127
157538 On ch=1 n=f#4 v=0
157546 On ch=1 n=b3 v=78
157548 On ch=1 n=e6 v=0
157554 On ch=1 n=d#6 v=100
157648 On ch=1 n=d#6 v=0
157654 On ch=1 n=c#6 v=107
157700 Par ch=1 c=64 v=63
157708 Par ch=1 c=64 v=0
157720 On ch=1 n=c#4 v=88
157740 On ch=1 n=c#6 v=0
157742 On ch=1 n=b5 v=71
157758 On ch=1 n=b3 v=0
157812 On ch=1 n=b5 v=0
157834 On ch=1 n=a5 v=84
157910 On ch=1 n=d#4 v=80
157928 On ch=1 n=a5 v=0
157936 On ch=1 n=g#5 v=99
157968 On ch=1 n=c#4 v=0
158022 On ch=1 n=a5 v=88
158026 On ch=1 n=g#5 v=0
158112 On ch=1 n=d#4 v=0
158112 On ch=1 n=e4 v=66
158126 On ch=1 n=a5 v=0
158128 On ch=1 n=g#5 v=98
158224 On ch=1 n=g#5 v=0
158230 On ch=1 n=b5 v=88
158338 On ch=1 n=a5 v=76
158352 On ch=1 n=b5 v=0
158420 On ch=1 n=g#5 v=95
158444 On ch=1 n=a5 v=0
158500 On ch=1 n=a5 v=76
158510 On ch=1 n=g#5 v=0
158620 On ch=1 n=b5 v=97
158632 On ch=1 n=a5 v=0
158672 Par ch=1 c=64 v=63
158682 Par ch=1 c=64 v=127
158712 On ch=1 n=c#6 v=106
158742 On ch=1 n=b5 v=0
158792 On ch=1 n=e4 v=0
158802 On ch=1 n=d#6 v=103
158844 On ch=1 n=c#6 v=0
158898 On ch=1 n=d#6 v=0
158902 On ch=1 n=e6 v=97
158952 Par ch=1 c=64 v=63
158970 Par ch=1 c=64 v=0
158992 On ch=1 n=f#6 v=108
159010 On ch=1 n=e6 v=0
159076 On ch=1 n=g#6 v=109
159118 On ch=1 n=f#6 v=0
159166 On ch=1 n=a6 v=102
159182 On ch=1 n=g#6 v=0
159270 On ch=1 n=b6 v=103
159296 On ch=1 n=a6 v=0
159360 On ch=1 n=c#7 v=112
159406 On ch=1 n=b6 v=0
159464 On ch=1 n=d#7 v=103
159520 On ch=1 n=c#7 v=0
159564 On ch=1 n=e7 v=97
159588 On ch=1 n=d#7 v=0
159654 On ch=1 n=d#7 v=85
159710 On ch=1 n=e7 v=0
159748 On ch=1 n=c#7 v=100
159788 On ch=1 n=d#7 v=0
159834 On ch=1 n=b6 v=98
159882 On ch=1 n=c#7 v=0
159934 On ch=1 n=a6 v=90
159936 On ch=1 n=b6 v=0
160028 On ch=1 n=a6 v=0
160034 On ch=1 n=g#6 v=98
160130 On ch=1 n=f#6 v=100
160138 On ch=1 n=g#6 v=0
160218 On ch=1 n=f#6 v=0
160220 On ch=1 n=e6 v=85
160300 On ch=1 n=e6 v=0
160312 On ch=1 n=d#6 v=98
160392 On ch=1 n=d#6 v=0
160436 On ch=1 n=c#6 v=110
160462 On ch=1 n=a4 v=53
160470 On ch=1 n=f#5 v=65
160590 Par ch=1 c=64 v=63
160594 Par ch=1 c=64 v=127
160726 On ch=1 n=c#6 v=0
160728 On ch=1 n=f#5 v=0
160752 On ch=1 n=a4 v=0
160798 On ch=1 n=c#7 v=89
160876 On ch=1 n=e6 v=97
160892 On ch=1 n=c#7 v=0
160892 On ch=1 n=g#5 v=84
160898 Par ch=1 c=64 v=63
160904 Par ch=1 c=64 v=0
160922 On ch=1 n=b4 v=62
161034 Par ch=1 c=64 v=63
161042 Par ch=1 c=64 v=127
161166 On ch=1 n=e6 v=0
161204 On ch=1 n=g#5 v=0
161294 On ch=1 n=g#6 v=88
161310 On ch=1 n=d#6 v=90
161334 On ch=1 n=a5 v=50
161342 On ch=1 n=f#6 v=80
161374 Par ch=1 c=64 v=63
161390 Par ch=1 c=64 v=0
161418 On ch=1 n=g#6 v=0
161500 Par ch=1 c=64 v=63
161508 On ch=1 n=b4 v=0
161518 Par ch=1 c=64 v=127
161750 On ch=1 n=d#6 v=0
161756 On ch=1 n=g#5 v=51
161764 On ch=1 n=f#6 v=0
161778 On ch=1 n=e6 v=71
161788 On ch=1 n=e5 v=55
161826 On ch=1 n=a5 v=0
161846 Par ch=1 c=64 v=63
161862 Par ch=1 c=64 v=0
161978 Par ch=1 c=64 v=63
161988 Par ch=1 c=64 v=127
162048 On ch=1 n=g#5 v=0
162094 On ch=1 n=e5 v=0
162278 On ch=1 n=e4 v=57
162350 On ch=1 n=e4 v=0
162384 On ch=1 n=e6 v=0
162836 Par ch=1 c=64 v=63
162856 Par ch=1 c=64 v=0
163294 Par ch=1 c=64 v=63
163304 Par ch=1 c=64 v=127
163368 On ch=1 n=e5 v=80
163434 On ch=1 n=e6 v=96
163720 On ch=1 n=e6 v=0
163856 On ch=1 n=f#5 v=115
163908 On ch=1 n=e5 v=0
163908 On ch=1 n=f#6 v=113
163976 Par ch=1 c=64 v=63
163998 Par ch=1 c=64 v=0
164060 Par ch=1 c=64 v=63
164078 Par ch=1 c=64 v=127
164290 On ch=1 n=f#6 v=0
164292 On ch=1 n=g5 v=97
164348 On ch=1 n=g6 v=109
164352 On ch=1 n=f#5 v=0
164412 Par ch=1 c=64 v=63
164428 Par ch=1 c=64 v=0
164484 Par ch=1 c=64 v=63
164504 Par ch=1 c=64 v=127
164604 On ch=1 n=g6 v=0
164632 On ch=1 n=g5 v=0
164878 On ch=1 n=f#4 v=60
164936 On ch=1 n=b5 v=96
165102 Par ch=1 c=64 v=63
165118 Par ch=1 c=64 v=0
165212 On ch=1 n=c#5 v=66
165260 Par ch=1 c=64 v=63
165270 Par ch=1 c=64 v=127
165356 On ch=1 n=f#4 v=0
165418 On ch=1 n=c#5 v=0
165418 On ch=1 n=f#5 v=61
165424 On ch=1 n=a#5 v=84
165428 On ch=1 n=b5 v=0
165528 On ch=1 n=f#5 v=0
165648 On ch=1 n=e5 v=57
165878 On ch=1 n=d5 v=58
165884 Par ch=1 c=64 v=63
165886 On ch=1 n=e5 v=0
165910 Par ch=1 c=64 v=0
165976 On ch=1 n=a#5 v=0
165980 Par ch=1 c=64 v=63
166006 Par ch=1 c=64 v=127
166094 On ch=1 n=c#5 v=65
166102 On ch=1 n=d5 v=0
166160 On ch=1 n=c#5 v=0
166194 On ch=1 n=a#5 v=81
166256 Par ch=1 c=64 v=63
166276 Par ch=1 c=64 v=0
166288 On ch=1 n=c#6 v=86
166316 On ch=1 n=f#4 v=65
166318 On ch=1 n=a#5 v=0
166454 Par ch=1 c=64 v=63
166464 Par ch=1 c=64 v=127
166532 On ch=1 n=d5 v=71
166732 On ch=1 n=c#6 v=0
166742 On ch=1 n=b5 v=83
166756 On ch=1 n=f#5 v=66
166786 On ch=1 n=d5 v=0
166962 On ch=1 n=f#5 v=0
166980 On ch=1 n=d5 v=49
167074 On ch=1 n=b5 v=0
167166 On ch=1 n=f#4 v=0
167178 On ch=1 n=c#5 v=88
167206 On ch=1 n=d5 v=0
167252 Par ch=1 c=64 v=63
167268 Par ch=1 c=64 v=0
167352 Par ch=1 c=64 v=63
167366 On ch=1 n=b4 v=76
167372 Par ch=1 c=64 v=127
167432 On ch=1 n=c#5 v=0
167458 On ch=1 n=b5 v=91
167562 On ch=1 n=d6 v=107
167586 On ch=1 n=f#4 v=68
167614 On ch=1 n=b5 v=0
167636 On ch=1 n=b4 v=0
167640 Par ch=1 c=64 v=63
167744 Par ch=1 c=64 v=127
167806 On ch=1 n=a#4 v=76
168028 On ch=1 n=e5 v=48
168034 On ch=1 n=c#6 v=97
168062 On ch=1 n=a#4 v=0
168090 On ch=1 n=d6 v=0
168104 Par ch=1 c=64 v=63
168140 Par ch=1 c=64 v=0
168220 On ch=1 n=c#5 v=72
168222 Par ch=1 c=64 v=63
168248 Par ch=1 c=64 v=127
168392 On ch=1 n=f#4 v=0
168420 On ch=1 n=c#6 v=0
168438 On ch=1 n=e5 v=0
168448 On ch=1 n=b4 v=54
168506 On ch=1 n=c#5 v=0
168656 On ch=1 n=a#4 v=63
168718 On ch=1 n=b4 v=0
168760 On ch=1 n=c#6 v=90
168778 Par ch=1 c=64 v=63
168804 Par ch=1 c=64 v=0
168880 On ch=1 n=e6 v=74
168898 On ch=1 n=a#4 v=0
168904 On ch=1 n=b4 v=56
168916 On ch=1 n=c#6 v=0
169106 Par ch=1 c=64 v=63
169114 Par ch=1 c=64 v=127
169118 On ch=1 n=d6 v=84
169136 On ch=1 n=e6 v=0
169218 On ch=1 n=d6 v=0
169322 On ch=1 n=f6 v=103
169456 Par ch=1 c=64 v=63
169484 Par ch=1 c=64 v=0
169530 On ch=1 n=e6 v=109
169578 On ch=1 n=b4 v=0
169584 Par ch=1 c=64 v=63
169600 Par ch=1 c=64 v=127
169616 On ch=1 n=f6 v=0
169708 On ch=1 n=e6 v=0
169750 On ch=1 n=g6 v=104
169788 Par ch=1 c=64 v=63
169816 Par ch=1 c=64 v=0
169964 On ch=1 n=f6 v=96
169988 Par ch=1 c=64 v=63
170006 Par ch=1 c=64 v=127
170038 On ch=1 n=g6 v=0
170114 Par ch=1 c=64 v=63
170156 Par ch=1 c=64 v=0
170228 On ch=1 n=f6 v=0
170230 On ch=1 n=a5 v=84
170230 On ch=1 n=e4 v=63
170456 On ch=1 n=b4 v=69
170490 Par ch=1 c=64 v=63
170506 Par ch=1 c=64 v=127
170636 On ch=1 n=e4 v=0
170676 On ch=1 n=g#5 v=80
170706 On ch=1 n=e5 v=35
170714 On ch=1 n=b4 v=0
170724 On ch=1 n=a5 v=0
170912 On ch=1 n=d5 v=62
170918 On ch=1 n=e5 v=0
171046 Par ch=1 c=64 v=63
171064 Par ch=1 c=64 v=0
171136 On ch=1 n=c5 v=65
171184 On ch=1 n=d5 v=0
171186 On ch=1 n=g#5 v=0
171198 Par ch=1 c=64 v=63
171222 Par ch=1 c=64 v=127
171332 On ch=1 n=b4 v=67
171376 On ch=1 n=c5 v=0
171420 On ch=1 n=g#5 v=77
171436 On ch=1 n=b4 v=0
171550 On ch=1 n=b5 v=89
171558 Par ch=1 c=64 v=63
171562 On ch=1 n=e4 v=65
171568 Par ch=1 c=64 v=0
171606 On ch=1 n=g#5 v=0
171784 On ch=1 n=c5 v=72
171940 Par ch=1 c=64 v=63
171958 Par ch=1 c=64 v=127
172004 On ch=1 n=a5 v=77
172008 On ch=1 n=e5 v=55
172016 On ch=1 n=b5 v=0
172054 On ch=1 n=c5 v=0
172208 On ch=1 n=c5 v=70
172214 On ch=1 n=e5 v=0
172356 On ch=1 n=a5 v=0
172416 On ch=1 n=c5 v=0
172418 On ch=1 n=b4 v=68
172504 Par ch=1 c=64 v=63
172524 Par ch=1 c=64 v=0
172614 On ch=1 n=a4 v=80
172626 Par ch=1 c=64 v=63
172650 Par ch=1 c=64 v=127
172680 On ch=1 n=b4 v=0
172684 On ch=1 n=e4 v=0
172734 On ch=1 n=a5 v=102
172770 Par ch=1 c=64 v=63
172784 Par ch=1 c=64 v=0
172840 On ch=1 n=e4 v=63
172858 On ch=1 n=c6 v=99
172916 On ch=1 n=a5 v=0
172928 On ch=1 n=a4 v=0
172978 Par ch=1 c=64 v=63
172994 Par ch=1 c=64 v=127
173066 On ch=1 n=g#4 v=91
173282 On ch=1 n=d5 v=76
173294 On ch=1 n=b5 v=97
173346 Par ch=1 c=64 v=63
173370 Par ch=1 c=64 v=0
173372 On ch=1 n=c6 v=0
173388 On ch=1 n=g#4 v=0
173448 Par ch=1 c=64 v=63
173468 Par ch=1 c=64 v=127
173506 On ch=1 n=b4 v=62
173590 On ch=1 n=d5 v=0
173630 On ch=1 n=b5 v=0
173726 On ch=1 n=a4 v=83
173728 On ch=1 n=e4 v=0
173792 On ch=1 n=b4 v=0
173860 Par ch=1 c=64 v=63
173870 Par ch=1 c=64 v=0
173936 On ch=1 n=g#4 v=99
173998 On ch=1 n=a4 v=0
174034 On ch=1 n=b5 v=103
174138 On ch=1 n=g#4 v=0
174138 On ch=1 n=a4 v=96
174140 On ch=1 n=d6 v=113
174176 On ch=1 n=b5 v=0
174222 Par ch=1 c=64 v=127
174382 On ch=1 n=c6 v=108
174452 On ch=1 n=d6 v=0
174598 On ch=1 n=b5 v=112
174608 Par ch=1 c=64 v=63
174612 Par ch=1 c=64 v=0
174658 On ch=1 n=c6 v=0
174658 On ch=1 n=a4 v=0
174784 On ch=1 n=a5 v=103
174800 On ch=1 n=b5 v=0
174988 On ch=1 n=a5 v=0
174998 On ch=1 n=g4 v=113
175000 On ch=1 n=a6 v=111
175006 On ch=1 n=g3 v=108
175072 Par ch=1 c=64 v=127
175142 On ch=1 n=a6 v=0
175212 On ch=1 n=a6 v=112
175340 On ch=1 n=g4 v=0
175474 On ch=1 n=f4 v=114
175476 On ch=1 n=b6 v=108
175478 On ch=1 n=f3 v=111
175500 Par ch=1 c=64 v=63
175504 Par ch=1 c=64 v=0
175524 On ch=1 n=g3 v=0
175566 On ch=1 n=a6 v=0
175726 On ch=1 n=a6 v=106
175788 On ch=1 n=b6 v=0
175950 On ch=1 n=g6 v=102
176024 On ch=1 n=a6 v=0
176146 On ch=1 n=f6 v=107
176206 Par ch=1 c=64 v=127
176210 On ch=1 n=g6 v=0
176290 On ch=1 n=f3 v=0
176366 On ch=1 n=e6 v=106
176410 On ch=1 n=f6 v=0
176424 On ch=1 n=f4 v=0
176572 On ch=1 n=d#6 v=119
176598 Par ch=1 c=64 v=63
176626 On ch=1 n=e6 v=0
176646 Par ch=1 c=64 v=127
176812 On ch=1 n=d#6 v=0
176860 On ch=1 n=f4 v=83
176860 On ch=1 n=a4 v=86
176866 On ch=1 n=c7 v=117
176876 Par ch=1 c=64 v=63
176880 Par ch=1 c=64 v=0
177058 Par ch=1 c=64 v=127
177136 On ch=1 n=g#4 v=92
177198 On ch=1 n=a4 v=0
177352 On ch=1 n=g#4 v=0
177358 On ch=1 n=a4 v=94
177574 On ch=1 n=c5 v=101
177654 On ch=1 n=a4 v=0
177796 On ch=1 n=d#6 v=104
177802 On ch=1 n=c7 v=0
177810 On ch=1 n=b4 v=84
177872 On ch=1 n=c5 v=0
177910 Par ch=1 c=64 v=63
177934 Par ch=1 c=64 v=0
178022 Par ch=1 c=64 v=63
178036 On ch=1 n=a4 v=84
178042 Par ch=1 c=64 v=127
178092 On ch=1 n=f4 v=0
178128 On ch=1 n=b4 v=0
178274 On ch=1 n=d#6 v=0
178334 On ch=1 n=e6 v=90
178340 On ch=1 n=e4 v=59
178348 On ch=1 n=g#4 v=83
178386 Par ch=1 c=64 v=63
178398 Par ch=1 c=64 v=0
178402 On ch=1 n=a4 v=0
178818 Par ch=1 c=64 v=127
178860 On ch=1 n=e6 v=0
178882 On ch=1 n=e4 v=0
178888 On ch=1 n=g#4 v=0
179084 Par ch=1 c=64 v=63
179096 On ch=1 n=f#6 v=98
179134 Par ch=1 c=64 v=127
179166 On ch=1 n=e6 v=97
179186 On ch=1 n=f#6 v=0
179228 On ch=1 n=e6 v=0
179258 Par ch=1 c=64 v=63
179274 Par ch=1 c=64 v=0
179298 On ch=1 n=e6 v=94
179312 Par ch=1 c=64 v=63
179328 Par ch=1 c=64 v=127
179406 On ch=1 n=d6 v=87
179448 On ch=1 n=e6 v=0
179488 On ch=1 n=c#6 v=91
179534 On ch=1 n=d6 v=0
179580 On ch=1 n=b5 v=92
179604 On ch=1 n=c#6 v=0
179648 On ch=1 n=b5 v=0
179744 Par ch=1 c=64 v=63
179750 Par ch=1 c=64 v=0
179830 Par ch=1 c=64 v=63
179836 Par ch=1 c=64 v=127
179846 On ch=1 n=c#5 v=101
179856 On ch=1 n=a3 v=84
179866 On ch=1 n=a4 v=106
179868 On ch=1 n=e5 v=92
179896 On ch=1 n=a5 v=99
179910 On ch=1 n=c#5 v=0
179926 On ch=1 n=a3 v=0
179932 On ch=1 n=a4 v=0
179952 On ch=1 n=e5 v=0
180216 On ch=1 n=a5 v=0
180778 On ch=1 n=e3 v=98
180778 On ch=1 n=e4 v=98
180788 On ch=1 n=e5 v=108
180796 Par ch=1 c=64 v=63
180802 Par ch=1 c=64 v=0
180884 Par ch=1 c=64 v=63
180896 Par ch=1 c=64 v=127
180932 On ch=1 n=e3 v=0
180986 On ch=1 n=e4 v=0
180992 On ch=1 n=e5 v=0
181224 On ch=1 n=c#6 v=120
181226 On ch=1 n=c#5 v=114
181234 Par ch=1 c=64 v=63
181240 On ch=1 n=c#4 v=104
181250 Par ch=1 c=64 v=0
181306 Par ch=1 c=64 v=63
181324 Par ch=1 c=64 v=127
181358 On ch=1 n=c#5 v=0
181378 On ch=1 n=c#4 v=0
181452 On ch=1 n=c#6 v=0
181474 On ch=1 n=d6 v=89
181550 On ch=1 n=b5 v=93
181590 On ch=1 n=d6 v=0
181630 Par ch=1 c=64 v=63
181640 On ch=1 n=a5 v=83
181644 Par ch=1 c=64 v=0
181662 On ch=1 n=a4 v=97
181678 On ch=1 n=a3 v=89
181684 On ch=1 n=b5 v=0
181854 Par ch=1 c=64 v=63
181862 Par ch=1 c=64 v=127
182074 On ch=1 n=a5 v=0
182088 On ch=1 n=a3 v=0
182118 Par ch=1 c=64 v=63
182122 On ch=1 n=a4 v=0
182128 Par ch=1 c=64 v=0
182532 Par ch=1 c=64 v=63
182550 Par ch=1 c=64 v=127
182560 On ch=1 n=e6 v=86
182764 On ch=1 n=e6 v=0
182796 On ch=1 n=f#6 v=76
182866 Par ch=1 c=64 v=63
182878 On ch=1 n=d6 v=77
182884 On ch=1 n=f#6 v=0
182888 Par ch=1 c=64 v=0
182980 On ch=1 n=d6 v=0
182984 On ch=1 n=c#6 v=92
183426 On ch=1 n=c#7 v=79
183434 On ch=1 n=f#5 v=65
183444 On ch=1 n=a4 v=48
183446 On ch=1 n=c#6 v=0
183504 On ch=1 n=c#7 v=0
183532 On ch=1 n=f#5 v=0
183534 On ch=1 n=a4 v=0
183864 Par ch=1 c=64 v=63
183874 On ch=1 n=b4 v=57
183882 On ch=1 n=d#6 v=79
183888 On ch=1 n=a5 v=43
183922 Par ch=1 c=64 v=127
184100 On ch=1 n=b4 v=0
184134 Par ch=1 c=64 v=63
184308 Par ch=1 c=64 v=127
184334 On ch=1 n=g#5 v=60
184338 On ch=1 n=e6 v=63
184346 On ch=1 n=d#6 v=0
184360 Par ch=1 c=64 v=63
184372 On ch=1 n=e5 v=47
184398 On ch=1 n=a5 v=0
184444 Par ch=1 c=64 v=0
184756 Par ch=1 c=64 v=63
184778 Par ch=1 c=64 v=127
185072 On ch=1 n=f6 v=81
185100 On ch=1 n=e6 v=0
185268 On ch=1 n=e5 v=0
185278 On ch=1 n=g#6 v=87
185288 On ch=1 n=g#5 v=0
185366 On ch=1 n=f6 v=0
185512 On ch=1 n=f#6 v=89
185594 On ch=1 n=g#6 v=0
185734 On ch=1 n=e6 v=73
185736 Par ch=1 c=64 v=63
185780 Par ch=1 c=64 v=0
185788 On ch=1 n=f#6 v=0
185948 On ch=1 n=d6 v=68
185962 On ch=1 n=e6 v=0
186006 Par ch=1 c=64 v=63
186042 Par ch=1 c=64 v=127
186180 On ch=1 n=c#6 v=73
186190 On ch=1 n=d6 v=0
186386 On ch=1 n=b5 v=65
186416 Par ch=1 c=64 v=63
186430 On ch=1 n=c#6 v=0
186546 Par ch=1 c=64 v=0
186620 On ch=1 n=a5 v=52
186628 On ch=1 n=b5 v=0
186660 On ch=1 n=e4 v=18
186760 Par ch=1 c=64 v=63
186792 Par ch=1 c=64 v=127
186832 On ch=1 n=g#5 v=80
186860 On ch=1 n=d5 v=41
186862 On ch=1 n=a5 v=0
187016 On ch=1 n=g#5 v=0
187052 On ch=1 n=e6 v=72
187086 On ch=1 n=b4 v=48
187088 On ch=1 n=d5 v=0
187108 Par ch=1 c=64 v=63
187178 Par ch=1 c=64 v=0
187228 Par ch=1 c=64 v=63
187268 On ch=1 n=d6 v=59
187294 On ch=1 n=d5 v=38
187306 Par ch=1 c=64 v=127
187308 On ch=1 n=b4 v=0
187324 On ch=1 n=e6 v=0
187512 On ch=1 n=d6 v=0
187524 On ch=1 n=b4 v=59
187526 On ch=1 n=d5 v=0
187528 Par ch=1 c=64 v=63
187578 On ch=1 n=e4 v=0
187638 Par ch=1 c=64 v=0
187718 On ch=1 n=b4 v=0
187718 On ch=1 n=d5 v=54
187866 Par ch=1 c=64 v=63
187914 Par ch=1 c=64 v=127
187922 On ch=1 n=b5 v=82
187928 On ch=1 n=e4 v=54
187966 On ch=1 n=d5 v=0
188140 On ch=1 n=c#5 v=72
188144 On ch=1 n=a5 v=83
188168 On ch=1 n=b5 v=0
188364 On ch=1 n=c#5 v=0
188364 On ch=1 n=f#6 v=84
188376 On ch=1 n=a4 v=49
188410 On ch=1 n=a5 v=0
188466 Par ch=1 c=64 v=63
188508 Par ch=1 c=64 v=0
188580 On ch=1 n=e6 v=75
188588 On ch=1 n=c#5 v=51
188606 On ch=1 n=f#6 v=0
188622 Par ch=1 c=64 v=63
188642 On ch=1 n=a4 v=0
188658 Par ch=1 c=64 v=127
188818 On ch=1 n=c#5 v=0
188820 On ch=1 n=a4 v=59
188838 On ch=1 n=e6 v=0
188936 Par ch=1 c=64 v=63
188956 Par ch=1 c=64 v=0
188974 On ch=1 n=e4 v=0
189004 On ch=1 n=c#5 v=85
189138 Par ch=1 c=64 v=63
189154 Par ch=1 c=64 v=127
189214 On ch=1 n=b5 v=103
189216 On ch=1 n=e4 v=77
189336 On ch=1 n=c#5 v=0
189438 On ch=1 n=a5 v=106
189444 On ch=1 n=c#5 v=91
189478 On ch=1 n=b5 v=0
189504 On ch=1 n=a4 v=0
189678 On ch=1 n=a6 v=101
189702 On ch=1 n=a4 v=65
189736 On ch=1 n=a5 v=0
189752 On ch=1 n=c#5 v=0
189884 On ch=1 n=g6 v=96
189886 Par ch=1 c=64 v=63
189906 Par ch=1 c=64 v=0
189914 On ch=1 n=c#5 v=67
189974 On ch=1 n=a6 v=0
189976 On ch=1 n=a4 v=0
190008 Par ch=1 c=64 v=63
190024 Par ch=1 c=64 v=127
190136 On ch=1 n=a4 v=65
190150 On ch=1 n=c#5 v=0
190184 On ch=1 n=g6 v=0
190240 On ch=1 n=e4 v=0
190326 On ch=1 n=c#5 v=69
190348 On ch=1 n=a4 v=0
190408 On ch=1 n=c#5 v=0
190578 On ch=1 n=d5 v=48
190590 On ch=1 n=g6 v=63
190592 On ch=1 n=a4 v=32
190628 On ch=1 n=d4 v=24
190672 Par ch=1 c=64 v=63
190700 Par ch=1 c=64 v=0
190830 On ch=1 n=f#6 v=72
190890 On ch=1 n=g6 v=0
191056 On ch=1 n=e6 v=75
191106 On ch=1 n=f#6 v=0
191198 On ch=1 n=d5 v=0
191260 On ch=1 n=d6 v=75
191264 On ch=1 n=d4 v=0
191268 On ch=1 n=e6 v=0
191276 On ch=1 n=a4 v=0
191474 On ch=1 n=d6 v=0
191474 On ch=1 n=c#6 v=82
191660 On ch=1 n=c#6 v=0
191666 On ch=1 n=b5 v=65
191758 On ch=1 n=b5 v=0
191864 Par ch=1 c=64 v=127
191886 On ch=1 n=e6 v=99
191888 On ch=1 n=c#4 v=99
191922 On ch=1 n=c#4 v=0
191956 On ch=1 n=e6 v=0
191968 On ch=1 n=f#6 v=79
192036 On ch=1 n=e6 v=56
192054 On ch=1 n=f#6 v=0
192112 On ch=1 n=e6 v=0
192114 On ch=1 n=d6 v=76
192192 On ch=1 n=e6 v=57
192204 On ch=1 n=d6 v=0
192232 On ch=1 n=d4 v=57
192254 On ch=1 n=f#6 v=89
192268 Par ch=1 c=64 v=63
192276 On ch=1 n=e6 v=0
192278 Par ch=1 c=64 v=0
192328 On ch=1 n=c#5 v=87
192338 On ch=1 n=f#6 v=0
192346 On ch=1 n=d4 v=0
192350 On ch=1 n=a5 v=91
192362 Par ch=1 c=64 v=63
192372 Par ch=1 c=64 v=127
192388 On ch=1 n=e4 v=51
192700 Par ch=1 c=64 v=63
192708 Par ch=1 c=64 v=0
192716 On ch=1 n=c#5 v=0
192798 On ch=1 n=b4 v=55
192800 On ch=1 n=g#5 v=83
192826 Par ch=1 c=64 v=63
192832 Par ch=1 c=64 v=127
192870 On ch=1 n=a5 v=0
192932 On ch=1 n=g#5 v=0
192992 On ch=1 n=e4 v=0
193058 On ch=1 n=b4 v=0
193058 Par ch=1 c=64 v=63
193068 Par ch=1 c=64 v=0
193192 On ch=1 n=a5 v=85
193224 On ch=1 n=c#6 v=105
193232 Par ch=1 c=64 v=63
193236 Par ch=1 c=64 v=127
193254 On ch=1 n=a4 v=59
193258 On ch=1 n=e6 v=104
193266 On ch=1 n=a5 v=0
193296 On ch=1 n=c#6 v=0
193330 On ch=1 n=e6 v=0
193354 Par ch=1 c=64 v=63
193364 Par ch=1 c=64 v=0
193452 On ch=1 n=c#5 v=96
193650 On ch=1 n=e6 v=118
193666 On ch=1 n=e5 v=84
193682 Par ch=1 c=64 v=63
193684 Par ch=1 c=64 v=127
193704 On ch=1 n=c#5 v=0
193880 On ch=1 n=c#5 v=74
193902 On ch=1 n=e5 v=0
194016 On ch=1 n=a4 v=0
194092 On ch=1 n=b4 v=84
194098 On ch=1 n=c#5 v=0
194234 On ch=1 n=e6 v=0
194280 On ch=1 n=a4 v=86
194300 On ch=1 n=b4 v=0
194456 Par ch=1 c=64 v=63
194466 Par ch=1 c=64 v=0
194506 On ch=1 n=e6 v=108
194510 On ch=1 n=g#4 v=86
194524 On ch=1 n=a4 v=0
194562 Par ch=1 c=64 v=63
194574 Par ch=1 c=64 v=127
194620 On ch=1 n=d6 v=89
194678 On ch=1 n=e6 v=0
194692 On ch=1 n=c#6 v=88
194742 On ch=1 n=d6 v=0
194750 On ch=1 n=a4 v=67
194758 On ch=1 n=g#4 v=0
194780 On ch=1 n=b5 v=93
194800 On ch=1 n=c#6 v=0
194854 On ch=1 n=b5 v=0
194888 On ch=1 n=b4 v=88
194904 On ch=1 n=a4 v=0
194910 On ch=1 n=b5 v=81
194936 Par ch=1 c=64 v=63
194946 Par ch=1 c=64 v=0
195012 On ch=1 n=a5 v=83
195056 On ch=1 n=b5 v=0
195088 Par ch=1 c=64 v=63
195094 Par ch=1 c=64 v=127
195096 On ch=1 n=g#5 v=89
195108 On ch=1 n=e4 v=76
195120 On ch=1 n=b4 v=0
195126 On ch=1 n=a5 v=0
195194 On ch=1 n=f#5 v=99
195232 On ch=1 n=g#5 v=0
195276 On ch=1 n=f#5 v=0
195280 On ch=1 n=e5 v=68
195306 On ch=1 n=f#4 v=90
195338 On ch=1 n=e4 v=0
195370 On ch=1 n=d5 v=99
195372 On ch=1 n=e5 v=0
195380 Par ch=1 c=64 v=63
195390 Par ch=1 c=64 v=0
195464 On ch=1 n=d5 v=0
195490 On ch=1 n=c#5 v=99
195524 On ch=1 n=g#4 v=94
195558 Par ch=1 c=64 v=63
195564 Par ch=1 c=64 v=127
195568 On ch=1 n=d5 v=90
195570 On ch=1 n=c#5 v=0
195594 On ch=1 n=f#4 v=0
195666 On ch=1 n=c#5 v=99
195668 On ch=1 n=d5 v=0
195714 On ch=1 n=a4 v=99
195730 On ch=1 n=g#4 v=0
195740 On ch=1 n=c#5 v=0
195772 Par ch=1 c=64 v=63
195782 Par ch=1 c=64 v=0
195786 On ch=1 n=e5 v=71
195866 On ch=1 n=e5 v=0
195870 On ch=1 n=a5 v=94
195904 On ch=1 n=c#5 v=107
195936 On ch=1 n=a4 v=0
195970 On ch=1 n=a5 v=0
195976 On ch=1 n=c#6 v=108
196052 Par ch=1 c=64 v=63
196054 On ch=1 n=c#6 v=0
196054 Par ch=1 c=64 v=127
196078 On ch=1 n=c#5 v=0
196084 On ch=1 n=e6 v=114
196088 On ch=1 n=e5 v=98
196152 On ch=1 n=e6 v=0
196308 On ch=1 n=c#5 v=87
196312 On ch=1 n=e5 v=0
196508 On ch=1 n=b4 v=100
196510 On ch=1 n=c#5 v=0
196684 Par ch=1 c=64 v=63
196692 Par ch=1 c=64 v=0
196720 On ch=1 n=a4 v=87
196722 On ch=1 n=e7 v=79
196758 On ch=1 n=e7 v=0
196802 On ch=1 n=b4 v=0
196944 On ch=1 n=g#4 v=101
196946 On ch=1 n=e7 v=113
196954 Par ch=1 c=64 v=127
197044 On ch=1 n=d7 v=98
197098 On ch=1 n=e7 v=0
197098 On ch=1 n=a4 v=0
197138 On ch=1 n=c#7 v=93
197152 On ch=1 n=a4 v=67
197186 On ch=1 n=d7 v=0
197204 On ch=1 n=g#4 v=0
197214 On ch=1 n=b6 v=97
197250 On ch=1 n=c#7 v=0
197284 On ch=1 n=b6 v=0
197326 On ch=1 n=b4 v=96
197340 On ch=1 n=b6 v=86
197356 On ch=1 n=a4 v=0
197446 On ch=1 n=a6 v=88
197524 On ch=1 n=g#6 v=92
197534 On ch=1 n=b6 v=0
197550 On ch=1 n=e4 v=93
197566 On ch=1 n=a6 v=0
197616 On ch=1 n=f#6 v=100
197624 On ch=1 n=b4 v=0
197672 On ch=1 n=g#6 v=0
197704 On ch=1 n=e6 v=77
197712 On ch=1 n=f#6 v=0
197732 On ch=1 n=f#4 v=88
197790 On ch=1 n=e4 v=0
197792 On ch=1 n=e6 v=0
197802 On ch=1 n=d6 v=96
197904 On ch=1 n=c#6 v=109
197910 On ch=1 n=d6 v=0
197922 On ch=1 n=g#4 v=86
197984 On ch=1 n=f#4 v=0
198010 On ch=1 n=c#6 v=0
198010 On ch=1 n=d6 v=94
198076 Par ch=1 c=64 v=63
198086 Par ch=1 c=64 v=0
198094 On ch=1 n=a4 v=99
198114 On ch=1 n=c#6 v=108
198122 On ch=1 n=g#4 v=0
198132 On ch=1 n=d6 v=0
198166 On ch=1 n=a4 v=0
198208 On ch=1 n=e6 v=96
198220 On ch=1 n=c#6 v=0
198312 On ch=1 n=d6 v=96
198360 On ch=1 n=e6 v=0
198396 On ch=1 n=c#6 v=107
198442 On ch=1 n=d6 v=0
198490 On ch=1 n=a4 v=107
198498 On ch=1 n=f#4 v=115
198500 On ch=1 n=c#6 v=0
198500 On ch=1 n=d6 v=88
198560 On ch=1 n=a4 v=0
198564 On ch=1 n=f#4 v=0
198608 On ch=1 n=e6 v=106
198634 On ch=1 n=d6 v=0
198708 On ch=1 n=f#6 v=106
198750 On ch=1 n=e6 v=0
198804 On ch=1 n=g#6 v=100
198850 On ch=1 n=f#6 v=0
198900 On ch=1 n=d4 v=117
198902 On ch=1 n=g#6 v=0
198902 On ch=1 n=a4 v=116
198904 On ch=1 n=f#4 v=116
198910 On ch=1 n=a6 v=100
198956 On ch=1 n=a4 v=0
198958 On ch=1 n=f#4 v=0
198980 On ch=1 n=d4 v=0
199022 On ch=1 n=b6 v=101
199028 On ch=1 n=a6 v=0
199112 On ch=1 n=c#7 v=112
199168 On ch=1 n=b6 v=0
199212 On ch=1 n=d7 v=100
199270 On ch=1 n=c#7 v=0
199314 On ch=1 n=c#4 v=110
199314 On ch=1 n=a4 v=109
199316 On ch=1 n=e4 v=107
199320 On ch=1 n=e7 v=112
199370 On ch=1 n=d7 v=0
199394 Par ch=1 c=64 v=127
199424 On ch=1 n=d7 v=92
199488 On ch=1 n=e7 v=0
199522 On ch=1 n=c#7 v=98
199568 On ch=1 n=d7 v=0
199618 On ch=1 n=b6 v=94
199656 On ch=1 n=c#7 v=0
199710 Par ch=1 c=64 v=63
199720 Par ch=1 c=64 v=0
199726 On ch=1 n=a6 v=88
199728 On ch=1 n=b6 v=0
199830 On ch=1 n=g#6 v=101
199844 On ch=1 n=a6 v=0
199924 On ch=1 n=f#6 v=92
199956 On ch=1 n=g#6 v=0
199980 On ch=1 n=a4 v=0
200012 On ch=1 n=e4 v=0
200028 On ch=1 n=c#4 v=0
200028 On ch=1 n=e6 v=91
200040 On ch=1 n=f#6 v=0
200122 On ch=1 n=d6 v=86
200134 On ch=1 n=e6 v=0
200230 On ch=1 n=d6 v=0
200234 On ch=1 n=c#6 v=97
200338 On ch=1 n=b5 v=89
200348 On ch=1 n=c#6 v=0
200434 On ch=1 n=a5 v=80
200438 On ch=1 n=b5 v=0
200522 On ch=1 n=a5 v=0
200636 On ch=1 n=d4 v=83
200642 On ch=1 n=b4 v=74
200646 Par ch=1 c=64 v=127
200652 On ch=1 n=f#6 v=98
200694 On ch=1 n=d4 v=0
200710 On ch=1 n=b4 v=0
200716 On ch=1 n=g#6 v=86
200728 On ch=1 n=f#6 v=0
200778 On ch=1 n=g#6 v=0
200846 On ch=1 n=f6 v=84
200912 On ch=1 n=f#6 v=88
200940 On ch=1 n=f6 v=0
200998 On ch=1 n=g#6 v=92
201016 On ch=1 n=f#6 v=0
201084 On ch=1 n=a6 v=73
201092 On ch=1 n=g#6 v=0
201130 On ch=1 n=a6 v=0
201162 On ch=1 n=a5 v=84
201186 Par ch=1 c=64 v=63
201190 On ch=1 n=c#5 v=72
201196 Par ch=1 c=64 v=0
201200 On ch=1 n=e4 v=52
201362 Par ch=1 c=64 v=63
201368 Par ch=1 c=64 v=127
201534 On ch=1 n=c#5 v=0
201558 On ch=1 n=a5 v=0
201660 On ch=1 n=c#6 v=87
201688 On ch=1 n=g#5 v=70
201708 On ch=1 n=d5 v=49
201712 Par ch=1 c=64 v=63
201722 Par ch=1 c=64 v=0
201730 On ch=1 n=b5 v=76
201774 On ch=1 n=c#6 v=0
201836 Par ch=1 c=64 v=63
201848 Par ch=1 c=64 v=127
201890 On ch=1 n=e4 v=0
202082 On ch=1 n=b5 v=0
202086 On ch=1 n=g#5 v=0
202182 On ch=1 n=b5 v=5
202246 On ch=1 n=d5 v=0
202278 On ch=1 n=a5 v=73
202286 On ch=1 n=b5 v=0
202286 On ch=1 n=c#5 v=47
202298 On ch=1 n=a4 v=31
202310 Par ch=1 c=64 v=63
202324 Par ch=1 c=64 v=0
202440 Par ch=1 c=64 v=63
202458 Par ch=1 c=64 v=127
202524 On ch=1 n=c#5 v=0
202582 On ch=1 n=a4 v=0
203086 On ch=1 n=a3 v=45
203136 On ch=1 n=a3 v=0
204034 On ch=1 n=a5 v=0
204208 Par ch=1 c=64 v=63
204240 Par ch=1 c=64 v=0
204240 Meta TrkEnd
TrkEnd
