MFile 1 2 480
MTrk
0 Tempo 500000
0 TimeSig 4/4 24 8
0 Meta TrkEnd
TrkEnd
MTrk
0 SeqSpec 43 00 01 00
0 Meta TrkName "<Master Volume>"
0 Meta 0x21 00
0 SysEx f0 41 10 42 12 40 00 7f 00 41 f7
0 SysEx f0 41 10 42 12 40 00 04 64 58 f7
192 Meta Text "<Master Reverve>"
192 SysEx f0 41 10 42 12 40 01 30 03 0c f7
192 SysEx f0 41 10 42 12 40 01 33 3c 50 f7
192 SysEx f0 41 10 42 12 40 01 34 3c 4f f7
576 Par ch=1 c=0 v=0
580 Par ch=1 c=32 v=1
584 PrCh ch=1 p=0
780 Par ch=1 c=7 v=100
972 Par ch=1 c=11 v=127
1164 Par ch=1 c=10 v=64
1356 Par ch=1 c=1 v=0
1356 Meta Text "<part reverve>"
1356 Par ch=1 c=91 v=90
1452 Par ch=1 c=99 v=1
1456 Par ch=1 c=98 v=32
1460 Par ch=1 c=6 v=62
1464 Par ch=1 c=99 v=1
1468 Par ch=1 c=98 v=33
1472 Par ch=1 c=6 v=54
1476 Par ch=1 c=99 v=1
1480 Par ch=1 c=98 v=99
1484 Par ch=1 c=6 v=62
1488 Par ch=1 c=99 v=1
1492 Par ch=1 c=98 v=100
1496 Par ch=1 c=6 v=60
1500 Par ch=1 c=99 v=1
1504 Par ch=1 c=98 v=102
1508 Par ch=1 c=6 v=70
3192 Par ch=1 c=67 v=0
5612 Par ch=1 c=64 v=63
5662 Par ch=1 c=64 v=127
5726 On ch=1 n=e5 v=44
5734 On ch=1 n=a4 v=42
5736 On ch=1 n=c#6 v=75
6232 On ch=1 n=c#6 v=0
6302 On ch=1 n=a4 v=0
6452 On ch=1 n=d6 v=73
6472 On ch=1 n=b4 v=41
6540 On ch=1 n=e5 v=0
6702 On ch=1 n=c#6 v=86
6706 On ch=1 n=a4 v=43
6708 On ch=1 n=e5 v=43
6710 On ch=1 n=b4 v=0
6732 On ch=1 n=d6 v=0
6798 Par ch=1 c=64 v=63
6936 Par ch=1 c=64 v=127
7058 On ch=1 n=e5 v=0
7140 On ch=1 n=a4 v=0
7194 On ch=1 n=c#6 v=0
7202 On ch=1 n=e6 v=72
7222 On ch=1 n=e5 v=42
7230 On ch=1 n=c#5 v=59
7288 Par ch=1 c=64 v=63
7308 Par ch=1 c=64 v=0
7452 Par ch=1 c=64 v=63
7474 Par ch=1 c=64 v=127
7774 On ch=1 n=e6 v=0
7786 On ch=1 n=c#5 v=0
7802 On ch=1 n=e5 v=0
8144 On ch=1 n=e6 v=75
8152 On ch=1 n=c#5 v=64
8168 On ch=1 n=e5 v=45
8244 Par ch=1 c=64 v=63
8288 Par ch=1 c=64 v=0
8332 Par ch=1 c=64 v=63
8380 Par ch=1 c=64 v=127
8518 On ch=1 n=e5 v=0
8558 On ch=1 n=c#5 v=0
8598 On ch=1 n=e6 v=0
8638 On ch=1 n=e5 v=52
8640 On ch=1 n=b5 v=83
8664 On ch=1 n=g#4 v=57
8776 Par ch=1 c=64 v=63
8806 Par ch=1 c=64 v=0
8936 Par ch=1 c=64 v=63
8960 Par ch=1 c=64 v=127
9108 On ch=1 n=b5 v=0
9148 On ch=1 n=g#4 v=0
9328 On ch=1 n=e5 v=0
9358 On ch=1 n=c#6 v=81
9360 On ch=1 n=a4 v=36
9588 On ch=1 n=g#4 v=59
9592 On ch=1 n=b5 v=77
9596 On ch=1 n=c#6 v=0
9604 On ch=1 n=e5 v=30
9628 On ch=1 n=a4 v=0
9666 Par ch=1 c=64 v=63
9692 Par ch=1 c=64 v=0
9790 Par ch=1 c=64 v=63
9822 Par ch=1 c=64 v=127
9950 On ch=1 n=e5 v=0
9958 On ch=1 n=b5 v=0
10038 On ch=1 n=g#4 v=0
10092 On ch=1 n=d6 v=71
10108 On ch=1 n=e5 v=34
10122 On ch=1 n=b4 v=47
10210 Par ch=1 c=64 v=63
10234 Par ch=1 c=64 v=0
10366 Par ch=1 c=64 v=63
10390 Par ch=1 c=64 v=127
10592 On ch=1 n=d6 v=0
10678 On ch=1 n=e5 v=0
10692 On ch=1 n=b4 v=0
11034 On ch=1 n=d6 v=64
11050 On ch=1 n=e5 v=39
11056 On ch=1 n=b4 v=50
11106 Par ch=1 c=64 v=63
11132 Par ch=1 c=64 v=0
11224 Par ch=1 c=64 v=63
11254 Par ch=1 c=64 v=127
11410 On ch=1 n=e5 v=0
11474 On ch=1 n=d6 v=0
11530 On ch=1 n=b4 v=0
11556 On ch=1 n=a5 v=69
11562 On ch=1 n=e5 v=42
11582 On ch=1 n=f#4 v=55
11716 Par ch=1 c=64 v=63
11746 Par ch=1 c=64 v=0
11888 Par ch=1 c=64 v=63
11912 Par ch=1 c=64 v=127
12174 On ch=1 n=e5 v=0
12202 On ch=1 n=a5 v=0
12214 On ch=1 n=f#4 v=0
12550 On ch=1 n=a5 v=81
12560 On ch=1 n=e5 v=54
12564 On ch=1 n=f#4 v=70
12708 Par ch=1 c=64 v=63
12754 Par ch=1 c=64 v=0
12798 Par ch=1 c=64 v=63
12840 Par ch=1 c=64 v=127
12972 On ch=1 n=a5 v=0
12982 On ch=1 n=e5 v=0
13070 On ch=1 n=b5 v=85
13072 On ch=1 n=e5 v=54
13074 On ch=1 n=g#4 v=80
13102 On ch=1 n=f#4 v=0
13268 Par ch=1 c=64 v=63
13292 Par ch=1 c=64 v=0
13420 Par ch=1 c=64 v=63
13436 Par ch=1 c=64 v=127
13674 On ch=1 n=b5 v=0
13764 On ch=1 n=g#4 v=0
13768 On ch=1 n=e5 v=0
14040 On ch=1 n=b5 v=90
14048 On ch=1 n=g#4 v=83
14054 On ch=1 n=e5 v=70
14168 Par ch=1 c=64 v=63
14196 Par ch=1 c=64 v=0
14246 Par ch=1 c=64 v=63
14278 Par ch=1 c=64 v=127
14436 On ch=1 n=e5 v=0
14522 On ch=1 n=b5 v=0
14526 On ch=1 n=c#6 v=96
14544 On ch=1 n=e5 v=52
14550 On ch=1 n=a4 v=57
14578 On ch=1 n=g#4 v=0
14750 Par ch=1 c=64 v=63
14774 Par ch=1 c=64 v=0
14922 Par ch=1 c=64 v=63
14936 Par ch=1 c=64 v=127
15068 On ch=1 n=e5 v=0
15122 On ch=1 n=c#6 v=0
15208 On ch=1 n=a4 v=0
15526 On ch=1 n=d4 v=57
15528 On ch=1 n=e6 v=78
15532 On ch=1 n=b5 v=71
15666 Par ch=1 c=64 v=63
15690 Par ch=1 c=64 v=0
15778 On ch=1 n=d6 v=93
15804 Par ch=1 c=64 v=63
15824 Par ch=1 c=64 v=127
15846 On ch=1 n=e6 v=0
16058 On ch=1 n=b5 v=0
16072 On ch=1 n=c#6 v=91
16086 On ch=1 n=e4 v=52
16088 On ch=1 n=d4 v=0
16094 On ch=1 n=a5 v=42
16110 On ch=1 n=d6 v=0
16232 Par ch=1 c=64 v=63
16266 Par ch=1 c=64 v=0
16508 Par ch=1 c=64 v=63
16516 Par ch=1 c=64 v=127
16644 On ch=1 n=a5 v=0
16692 On ch=1 n=c#6 v=0
17226 On ch=1 n=g#5 v=35
17230 On ch=1 n=b5 v=49
17328 Par ch=1 c=64 v=63
17352 Par ch=1 c=64 v=0
17468 Par ch=1 c=64 v=63
17484 Par ch=1 c=64 v=127
17514 On ch=1 n=e4 v=0
17542 On ch=1 n=g#5 v=0
17544 On ch=1 n=b5 v=0
17860 On ch=1 n=c#6 v=86
17866 On ch=1 n=a4 v=46
17868 On ch=1 n=e5 v=58
17940 Par ch=1 c=64 v=63
17978 Par ch=1 c=64 v=0
18142 Par ch=1 c=64 v=63
18160 Par ch=1 c=64 v=127
18348 On ch=1 n=c#6 v=0
18486 On ch=1 n=e5 v=0
18492 On ch=1 n=a4 v=0
18608 On ch=1 n=b4 v=62
18610 On ch=1 n=d6 v=84
18882 On ch=1 n=a4 v=51
18894 On ch=1 n=c#6 v=91
18898 On ch=1 n=e5 v=56
18956 On ch=1 n=b4 v=0
18958 On ch=1 n=d6 v=0
18978 Par ch=1 c=64 v=63
18998 Par ch=1 c=64 v=0
19112 Par ch=1 c=64 v=63
19126 Par ch=1 c=64 v=127
19246 On ch=1 n=e5 v=0
19328 On ch=1 n=a4 v=0
19344 On ch=1 n=c#6 v=0
19400 On ch=1 n=e6 v=79
19402 On ch=1 n=c#5 v=79
19404 On ch=1 n=e5 v=57
19542 Par ch=1 c=64 v=63
19560 Par ch=1 c=64 v=0
19698 Par ch=1 c=64 v=63
19714 Par ch=1 c=64 v=127
19990 On ch=1 n=e6 v=0
20012 On ch=1 n=e5 v=0
20022 On ch=1 n=c#5 v=0
20416 On ch=1 n=c#5 v=69
20416 On ch=1 n=e6 v=74
20430 On ch=1 n=e5 v=48
20492 Par ch=1 c=64 v=63
20514 Par ch=1 c=64 v=0
20622 Par ch=1 c=64 v=63
20642 Par ch=1 c=64 v=127
20778 On ch=1 n=e5 v=0
20810 On ch=1 n=c#5 v=0
20826 On ch=1 n=e6 v=0
20948 On ch=1 n=g#4 v=63
20952 On ch=1 n=b5 v=84
20956 On ch=1 n=e5 v=41
21078 Par ch=1 c=64 v=63
21106 Par ch=1 c=64 v=0
21232 Par ch=1 c=64 v=63
21250 Par ch=1 c=64 v=127
21406 On ch=1 n=g#4 v=0
21452 On ch=1 n=b5 v=0
21696 On ch=1 n=a4 v=43
21702 On ch=1 n=e5 v=0
21710 On ch=1 n=c#6 v=82
21962 On ch=1 n=b5 v=72
21970 On ch=1 n=g#4 v=40
21984 On ch=1 n=e5 v=18
22024 On ch=1 n=c#6 v=0
22034 On ch=1 n=a4 v=0
22058 Par ch=1 c=64 v=63
22078 Par ch=1 c=64 v=0
22204 Par ch=1 c=64 v=63
22220 Par ch=1 c=64 v=127
22336 On ch=1 n=b5 v=0
22340 On ch=1 n=e5 v=0
22422 On ch=1 n=g#4 v=0
22496 On ch=1 n=d6 v=71
22518 On ch=1 n=b4 v=52
22524 On ch=1 n=e5 v=24
22674 Par ch=1 c=64 v=63
22694 Par ch=1 c=64 v=0
22824 Par ch=1 c=64 v=63
22840 Par ch=1 c=64 v=127
23042 On ch=1 n=d6 v=0
23154 On ch=1 n=e5 v=0
23166 On ch=1 n=b4 v=0
23496 On ch=1 n=d6 v=79
23512 On ch=1 n=e5 v=50
23518 On ch=1 n=b4 v=54
23554 Par ch=1 c=64 v=63
23584 Par ch=1 c=64 v=0
23706 Par ch=1 c=64 v=63
23724 Par ch=1 c=64 v=127
23852 On ch=1 n=e5 v=0
23938 On ch=1 n=d6 v=0
23954 On ch=1 n=b4 v=0
24028 On ch=1 n=a5 v=74
24046 On ch=1 n=e5 v=47
24052 On ch=1 n=f#4 v=66
24160 Par ch=1 c=64 v=63
24192 Par ch=1 c=64 v=0
24336 Par ch=1 c=64 v=63
24350 Par ch=1 c=64 v=127
24650 On ch=1 n=a5 v=0
24684 On ch=1 n=e5 v=0
24718 On ch=1 n=f#4 v=0
25006 On ch=1 n=b5 v=88
25014 On ch=1 n=e5 v=60
25014 On ch=1 n=g#4 v=72
25162 Par ch=1 c=64 v=63
25180 Par ch=1 c=64 v=0
25280 Par ch=1 c=64 v=63
25294 Par ch=1 c=64 v=127
25400 On ch=1 n=e5 v=0
25454 On ch=1 n=b5 v=0
25528 On ch=1 n=c#6 v=106
25536 On ch=1 n=a4 v=68
25544 On ch=1 n=e5 v=63
25574 On ch=1 n=g#4 v=0
25756 Par ch=1 c=64 v=63
25776 Par ch=1 c=64 v=0
25902 Par ch=1 c=64 v=63
25912 Par ch=1 c=64 v=127
26154 On ch=1 n=c#6 v=0
26162 On ch=1 n=e5 v=0
26570 On ch=1 n=d6 v=97
26582 On ch=1 n=b5 v=80
26590 On ch=1 n=d4 v=60
26592 On ch=1 n=f#5 v=78
26678 On ch=1 n=a4 v=0
26716 Par ch=1 c=64 v=63
26734 Par ch=1 c=64 v=0
26818 Par ch=1 c=64 v=63
26834 Par ch=1 c=64 v=127
26914 On ch=1 n=f#5 v=0
26946 On ch=1 n=d6 v=0
26966 On ch=1 n=b5 v=0
27050 On ch=1 n=d4 v=0
27192 On ch=1 n=c#6 v=78
27228 On ch=1 n=e4 v=44
27242 On ch=1 n=a5 v=33
27264 On ch=1 n=e5 v=9
27368 Par ch=1 c=64 v=63
27398 Par ch=1 c=64 v=0
27674 Par ch=1 c=64 v=63
27678 Par ch=1 c=64 v=127
27762 On ch=1 n=e5 v=0
27814 On ch=1 n=a5 v=0
27828 On ch=1 n=c#6 v=0
28016 On ch=1 n=e4 v=0
28338 On ch=1 n=b5 v=58
28348 On ch=1 n=e3 v=40
28352 On ch=1 n=g#5 v=52
28360 On ch=1 n=d5 v=18
28366 On ch=1 n=e5 v=44
28416 Par ch=1 c=64 v=63
28446 Par ch=1 c=64 v=0
28518 Par ch=1 c=64 v=63
28538 Par ch=1 c=64 v=127
28600 On ch=1 n=e3 v=0
28638 On ch=1 n=b5 v=0
28648 On ch=1 n=d5 v=0
28654 On ch=1 n=e5 v=0
28676 On ch=1 n=g#5 v=0
29070 On ch=1 n=a5 v=58
29082 On ch=1 n=e5 v=40
29088 On ch=1 n=c#5 v=15
29096 On ch=1 n=a3 v=25
29224 Par ch=1 c=64 v=63
29278 Par ch=1 c=64 v=0
29456 Par ch=1 c=64 v=63
29476 Par ch=1 c=64 v=127
29826 On ch=1 n=c#5 v=0
29838 On ch=1 n=a3 v=0
29880 On ch=1 n=e5 v=0
29980 On ch=1 n=a5 v=0
30562 Par ch=1 c=64 v=63
30624 Par ch=1 c=64 v=0
31190 On ch=1 n=a4 v=32
31202 On ch=1 n=e6 v=62
31268 Par ch=1 c=64 v=63
31278 Par ch=1 c=64 v=127
31642 On ch=1 n=e6 v=0
31724 On ch=1 n=c#5 v=61
31748 On ch=1 n=a4 v=0
31922 On ch=1 n=f#6 v=81
32136 On ch=1 n=c#5 v=0
32136 On ch=1 n=e6 v=88
32154 On ch=1 n=e5 v=57
32176 On ch=1 n=f#6 v=0
32300 Par ch=1 c=64 v=63
32336 Par ch=1 c=64 v=0
32418 Par ch=1 c=64 v=63
32438 Par ch=1 c=64 v=127
32614 On ch=1 n=f#6 v=94
32618 On ch=1 n=a4 v=54
32656 On ch=1 n=e6 v=0
32666 On ch=1 n=e5 v=0
32806 Par ch=1 c=64 v=63
32818 Par ch=1 c=64 v=0
32956 Par ch=1 c=64 v=63
32970 Par ch=1 c=64 v=127
33100 On ch=1 n=d5 v=84
33202 On ch=1 n=a4 v=0
33252 On ch=1 n=f#6 v=0
33548 On ch=1 n=f#6 v=103
33560 On ch=1 n=f#5 v=70
33584 On ch=1 n=d5 v=0
33700 On ch=1 n=f#6 v=0
33854 On ch=1 n=f#6 v=83
33924 On ch=1 n=f#5 v=0
33932 On ch=1 n=g#6 v=88
33952 On ch=1 n=a4 v=28
33964 On ch=1 n=f#6 v=0
34002 On ch=1 n=a6 v=91
34054 On ch=1 n=g#6 v=0
34142 Par ch=1 c=64 v=63
34162 Par ch=1 c=64 v=0
34284 Par ch=1 c=64 v=63
34298 Par ch=1 c=64 v=127
34460 On ch=1 n=d5 v=64
34482 On ch=1 n=a4 v=0
34638 On ch=1 n=g#6 v=87
34646 On ch=1 n=a6 v=0
34872 On ch=1 n=f#6 v=81
34898 On ch=1 n=f#5 v=44
34908 On ch=1 n=d5 v=0
34934 Par ch=1 c=64 v=63
34940 On ch=1 n=g#6 v=0
34966 Par ch=1 c=64 v=0
35054 Par ch=1 c=64 v=63
35076 Par ch=1 c=64 v=127
35158 On ch=1 n=f#6 v=0
35296 On ch=1 n=f#5 v=0
35326 On ch=1 n=f#6 v=79
35334 On ch=1 n=a4 v=43
35414 Par ch=1 c=64 v=63
35438 Par ch=1 c=64 v=0
35542 Par ch=1 c=64 v=63
35562 Par ch=1 c=64 v=127
35768 On ch=1 n=e6 v=64
35770 On ch=1 n=f#6 v=0
35774 On ch=1 n=c#5 v=64
35790 On ch=1 n=a4 v=0
35806 Par ch=1 c=64 v=63
35834 Par ch=1 c=64 v=0
35866 On ch=1 n=e6 v=0
36220 On ch=1 n=e6 v=70
36228 On ch=1 n=c#5 v=0
36272 On ch=1 n=e5 v=21
36320 On ch=1 n=e6 v=0
36680 On ch=1 n=e6 v=96
36694 On ch=1 n=e5 v=0
36708 On ch=1 n=a4 v=54
36708 On ch=1 n=c#5 v=78
36712 Par ch=1 c=64 v=127
37090 On ch=1 n=a4 v=0
37118 On ch=1 n=c#6 v=88
37144 On ch=1 n=e6 v=0
37154 On ch=1 n=c#5 v=0
37184 On ch=1 n=c#6 v=0
37196 Par ch=1 c=64 v=63
37210 Par ch=1 c=64 v=0
37550 On ch=1 n=a5 v=60
37654 On ch=1 n=a5 v=0
37978 On ch=1 n=g#4 v=83
37978 On ch=1 n=e6 v=94
37980 Par ch=1 c=64 v=63
37982 Par ch=1 c=64 v=127
37986 On ch=1 n=d5 v=82
38448 On ch=1 n=d6 v=83
38458 On ch=1 n=e6 v=0
38468 On ch=1 n=d5 v=0
38496 On ch=1 n=g#4 v=0
38530 Par ch=1 c=64 v=63
38532 On ch=1 n=d6 v=0
38568 Par ch=1 c=64 v=0
38866 On ch=1 n=b5 v=68
38982 On ch=1 n=b5 v=0
39272 Par ch=1 c=64 v=63
39282 Par ch=1 c=64 v=127
39302 On ch=1 n=c#5 v=94
39306 On ch=1 n=e6 v=101
39308 On ch=1 n=a4 v=68
39798 On ch=1 n=c#6 v=88
39814 On ch=1 n=e6 v=0
39828 On ch=1 n=c#5 v=0
39840 On ch=1 n=a4 v=0
39952 On ch=1 n=c#6 v=0
40254 On ch=1 n=a5 v=82
40260 On ch=1 n=d#5 v=82
40264 On ch=1 n=f#4 v=81
40326 Par ch=1 c=64 v=63
40342 Par ch=1 c=64 v=0
40458 Par ch=1 c=64 v=63
40472 Par ch=1 c=64 v=127
40578 On ch=1 n=a5 v=0
40680 On ch=1 n=d#5 v=0
40792 On ch=1 n=f#4 v=0
40846 On ch=1 n=c#6 v=92
40858 On ch=1 n=a5 v=67
40868 On ch=1 n=e5 v=55
40870 On ch=1 n=e4 v=46
40970 Par ch=1 c=64 v=63
40998 Par ch=1 c=64 v=0
41400 Par ch=1 c=64 v=63
41412 Par ch=1 c=64 v=127
41758 On ch=1 n=c#6 v=0
41800 On ch=1 n=a5 v=0
42018 On ch=1 n=b5 v=48
42026 On ch=1 n=g#5 v=51
42070 Par ch=1 c=64 v=63
42104 Par ch=1 c=64 v=0
42204 Par ch=1 c=64 v=63
42226 Par ch=1 c=64 v=127
42268 On ch=1 n=e4 v=0
42318 On ch=1 n=g#5 v=0
42344 On ch=1 n=b5 v=0
42366 On ch=1 n=e5 v=0
42694 Par ch=1 c=64 v=63
42722 On ch=1 n=c#6 v=73
42752 On ch=1 n=a4 v=19
42772 On ch=1 n=e5 v=14
42776 Par ch=1 c=64 v=0
42964 Par ch=1 c=64 v=63
42986 Par ch=1 c=64 v=127
43190 On ch=1 n=c#6 v=0
43300 On ch=1 n=a4 v=0
43470 On ch=1 n=d6 v=59
43488 On ch=1 n=b4 v=44
43580 On ch=1 n=e5 v=0
43718 On ch=1 n=c#6 v=78
43732 On ch=1 n=d6 v=0
43746 On ch=1 n=b4 v=0
43754 On ch=1 n=a4 v=21
43764 On ch=1 n=e5 v=14
43774 Par ch=1 c=64 v=63
43800 Par ch=1 c=64 v=0
43936 Par ch=1 c=64 v=63
43950 Par ch=1 c=64 v=127
44058 On ch=1 n=c#6 v=0
44078 On ch=1 n=e5 v=0
44160 On ch=1 n=a4 v=0
44234 On ch=1 n=e6 v=68
44242 On ch=1 n=e5 v=26
44260 On ch=1 n=c#5 v=49
44356 Par ch=1 c=64 v=63
44386 Par ch=1 c=64 v=0
44540 Par ch=1 c=64 v=63
44560 Par ch=1 c=64 v=127
44750 On ch=1 n=e6 v=0
44814 On ch=1 n=c#5 v=0
44814 On ch=1 n=e5 v=0
45210 On ch=1 n=e6 v=65
45216 On ch=1 n=c#5 v=57
45230 On ch=1 n=e5 v=41
45262 Par ch=1 c=64 v=63
45286 Par ch=1 c=64 v=0
45388 Par ch=1 c=64 v=63
45408 Par ch=1 c=64 v=127
45570 On ch=1 n=e5 v=0
45578 On ch=1 n=c#5 v=0
45608 On ch=1 n=e6 v=0
45734 On ch=1 n=b5 v=70
45740 On ch=1 n=g#4 v=65
45748 On ch=1 n=e5 v=35
45842 Par ch=1 c=64 v=63
45870 Par ch=1 c=64 v=0
46010 Par ch=1 c=64 v=63
46028 Par ch=1 c=64 v=127
46216 On ch=1 n=g#4 v=0
46222 On ch=1 n=b5 v=0
46496 On ch=1 n=a4 v=42
46504 On ch=1 n=c#6 v=67
46592 On ch=1 n=e5 v=0
46740 On ch=1 n=g#4 v=57
46752 On ch=1 n=b5 v=67
46770 On ch=1 n=e5 v=16
46792 On ch=1 n=a4 v=0
46806 On ch=1 n=c#6 v=0
46834 Par ch=1 c=64 v=63
46858 Par ch=1 c=64 v=0
46978 Par ch=1 c=64 v=63
46998 Par ch=1 c=64 v=127
47084 On ch=1 n=e5 v=0
47166 On ch=1 n=b5 v=0
47196 On ch=1 n=g#4 v=0
47250 On ch=1 n=d6 v=77
47272 On ch=1 n=e5 v=26
47276 On ch=1 n=b4 v=49
47326 Par ch=1 c=64 v=63
47352 Par ch=1 c=64 v=0
47488 Par ch=1 c=64 v=63
47508 Par ch=1 c=64 v=127
47766 On ch=1 n=d6 v=0
47800 On ch=1 n=b4 v=0
47816 On ch=1 n=e5 v=0
48228 On ch=1 n=d6 v=64
48248 On ch=1 n=b4 v=32
48248 On ch=1 n=e5 v=19
48284 Par ch=1 c=64 v=63
48312 Par ch=1 c=64 v=0
48412 Par ch=1 c=64 v=63
48432 Par ch=1 c=64 v=127
48600 On ch=1 n=d6 v=0
48602 On ch=1 n=e5 v=0
48628 On ch=1 n=b4 v=0
48744 On ch=1 n=a5 v=65
48764 On ch=1 n=e5 v=38
48768 On ch=1 n=f#4 v=63
48866 Par ch=1 c=64 v=63
48894 Par ch=1 c=64 v=0
49016 Par ch=1 c=64 v=63
49036 Par ch=1 c=64 v=127
49410 On ch=1 n=e5 v=0
49438 On ch=1 n=f#4 v=0
49438 On ch=1 n=a5 v=0
49708 On ch=1 n=b5 v=83
49714 On ch=1 n=g#4 v=72
49720 On ch=1 n=e5 v=48
49860 Par ch=1 c=64 v=63
49896 Par ch=1 c=64 v=0
49972 Par ch=1 c=64 v=63
49990 Par ch=1 c=64 v=127
50116 On ch=1 n=e5 v=0
50174 On ch=1 n=b5 v=0
50242 On ch=1 n=c#6 v=96
50246 On ch=1 n=e5 v=62
50248 On ch=1 n=g#4 v=0
50254 On ch=1 n=a4 v=60
50458 Par ch=1 c=64 v=63
50480 Par ch=1 c=64 v=0
50612 Par ch=1 c=64 v=63
50626 Par ch=1 c=64 v=127
50804 On ch=1 n=e5 v=0
50886 On ch=1 n=c#6 v=0
50988 On ch=1 n=a4 v=0
51368 On ch=1 n=d6 v=93
51378 On ch=1 n=d4 v=84
51380 On ch=1 n=b5 v=84
51386 On ch=1 n=f#5 v=80
51456 Par ch=1 c=64 v=63
51472 Par ch=1 c=64 v=0
51586 Par ch=1 c=64 v=63
51594 Par ch=1 c=64 v=127
51746 On ch=1 n=f#5 v=0
51792 On ch=1 n=d6 v=0
51804 On ch=1 n=b5 v=0
51876 On ch=1 n=d4 v=0
52018 On ch=1 n=c#6 v=72
52036 On ch=1 n=e5 v=45
52038 On ch=1 n=e4 v=49
52042 On ch=1 n=a5 v=63
52170 Par ch=1 c=64 v=63
52192 Par ch=1 c=64 v=0
52480 Par ch=1 c=64 v=63
52484 Par ch=1 c=64 v=127
52654 On ch=1 n=c#6 v=0
52668 On ch=1 n=a5 v=0
52670 On ch=1 n=e5 v=0
52810 On ch=1 n=e4 v=0
53094 On ch=1 n=e3 v=55
53112 On ch=1 n=g#5 v=63
53112 On ch=1 n=b5 v=71
53124 On ch=1 n=e5 v=46
53196 Par ch=1 c=64 v=63
53220 Par ch=1 c=64 v=0
53316 Par ch=1 c=64 v=63
53332 Par ch=1 c=64 v=127
53416 On ch=1 n=e3 v=0
53466 On ch=1 n=e5 v=0
53468 On ch=1 n=g#5 v=0
53506 On ch=1 n=b5 v=0
53758 On ch=1 n=b5 v=63
53760 On ch=1 n=g#5 v=58
53774 On ch=1 n=e5 v=37
53782 On ch=1 n=a3 v=36
53876 Par ch=1 c=64 v=63
53910 Par ch=1 c=64 v=0
54208 Par ch=1 c=64 v=63
54216 Par ch=1 c=64 v=127
54472 On ch=1 n=g#5 v=0
54524 On ch=1 n=b5 v=0
55058 On ch=1 n=c#6 v=53
55076 On ch=1 n=a5 v=33
55140 Par ch=1 c=64 v=63
55162 Par ch=1 c=64 v=0
55250 Par ch=1 c=64 v=63
55268 Par ch=1 c=64 v=127
55294 On ch=1 n=e5 v=0
55314 On ch=1 n=c#6 v=0
55320 On ch=1 n=a3 v=0
55328 On ch=1 n=a5 v=0
55666 Par ch=1 c=64 v=63
55682 Par ch=1 c=64 v=0
55828 On ch=1 n=c#6 v=105
55830 On ch=1 n=a4 v=97
55836 On ch=1 n=a5 v=85
55836 On ch=1 n=a3 v=94
55842 On ch=1 n=e5 v=83
56342 Par ch=1 c=64 v=63
56344 Par ch=1 c=64 v=127
56464 On ch=1 n=e5 v=0
56522 On ch=1 n=a5 v=0
56552 On ch=1 n=a3 v=0
56600 On ch=1 n=c#6 v=0
56626 On ch=1 n=a4 v=0
56880 On ch=1 n=d6 v=102
56884 On ch=1 n=b3 v=91
56884 On ch=1 n=g#5 v=99
56884 On ch=1 n=b4 v=96
56892 On ch=1 n=e5 v=85
56942 Par ch=1 c=64 v=63
56952 Par ch=1 c=64 v=0
57018 Par ch=1 c=64 v=63
57034 Par ch=1 c=64 v=127
57138 On ch=1 n=d6 v=0
57142 On ch=1 n=b3 v=0
57158 On ch=1 n=g#5 v=0
57204 On ch=1 n=e5 v=0
57204 On ch=1 n=b4 v=0
57420 On ch=1 n=e6 v=104
57428 On ch=1 n=c#5 v=108
57432 On ch=1 n=a5 v=89
57436 On ch=1 n=e5 v=90
57444 On ch=1 n=c#4 v=96
57556 Par ch=1 c=64 v=63
57570 Par ch=1 c=64 v=0
57854 Par ch=1 c=64 v=63
57856 Par ch=1 c=64 v=127
57984 On ch=1 n=e5 v=0
58036 On ch=1 n=a5 v=0
58068 On ch=1 n=c#4 v=0
58076 On ch=1 n=c#5 v=0
58088 On ch=1 n=e6 v=0
58434 On ch=1 n=f#6 v=103
58446 On ch=1 n=d5 v=94
58454 On ch=1 n=d4 v=87
58520 Par ch=1 c=64 v=63
58540 Par ch=1 c=64 v=0
58618 Par ch=1 c=64 v=63
58636 Par ch=1 c=64 v=127
58772 On ch=1 n=d5 v=0
58788 On ch=1 n=d4 v=0
58788 On ch=1 n=g#6 v=91
58832 On ch=1 n=f#6 v=0
58890 On ch=1 n=a6 v=94
58908 On ch=1 n=g#6 v=0
58994 On ch=1 n=a6 v=0
59058 On ch=1 n=a5 v=82
59070 On ch=1 n=c#5 v=81
59118 On ch=1 n=e4 v=55
59180 Par ch=1 c=64 v=63
59204 Par ch=1 c=64 v=0
59676 Par ch=1 c=64 v=63
59682 Par ch=1 c=64 v=127
59972 On ch=1 n=c#5 v=0
59990 On ch=1 n=e4 v=0
60088 On ch=1 n=a5 v=0
60306 On ch=1 n=g#5 v=63
60308 On ch=1 n=c#6 v=76
60322 On ch=1 n=e4 v=38
60336 On ch=1 n=d5 v=38
60404 Par ch=1 c=64 v=63
60420 Par ch=1 c=64 v=0
60550 Par ch=1 c=64 v=63
60564 Par ch=1 c=64 v=127
60632 On ch=1 n=e4 v=0
60646 On ch=1 n=b5 v=69
60660 On ch=1 n=c#6 v=0
60918 On ch=1 n=g#5 v=0
61058 On ch=1 n=b5 v=0
61076 On ch=1 n=c#5 v=42
61082 On ch=1 n=a5 v=47
61102 On ch=1 n=a4 v=33
61140 On ch=1 n=d5 v=0
61196 Par ch=1 c=64 v=63
61230 Par ch=1 c=64 v=0
62686 On ch=1 n=a5 v=0
62696 On ch=1 n=c#5 v=0
62706 On ch=1 n=a4 v=0
63412 On ch=1 n=c6 v=58
63584 On ch=1 n=c6 v=0
63598 On ch=1 n=c#6 v=63
63678 On ch=1 n=c#6 v=0
63784 On ch=1 n=a4 v=41
63790 On ch=1 n=e5 v=28
63950 On ch=1 n=a4 v=0
63950 On ch=1 n=c#6 v=81
63974 On ch=1 n=e5 v=0
64080 On ch=1 n=c#6 v=0
64120 On ch=1 n=c6 v=68
64246 On ch=1 n=c6 v=0
64272 On ch=1 n=c#6 v=80
64416 On ch=1 n=c#6 v=0
64444 On ch=1 n=d#6 v=70
64580 On ch=1 n=d#6 v=0
64602 On ch=1 n=e6 v=53
64722 On ch=1 n=e6 v=0
64772 On ch=1 n=c#5 v=61
64780 On ch=1 n=e5 v=40
64944 On ch=1 n=e6 v=87
64948 On ch=1 n=c#5 v=0
64988 On ch=1 n=e5 v=0
65104 On ch=1 n=f#6 v=86
65124 On ch=1 n=e6 v=0
65260 On ch=1 n=e6 v=78
65268 On ch=1 n=f#6 v=0
65352 On ch=1 n=e6 v=0
65434 On ch=1 n=e6 v=71
65596 On ch=1 n=b5 v=57
65600 On ch=1 n=e6 v=0
65714 On ch=1 n=b5 v=0
65788 On ch=1 n=g#4 v=57
65796 On ch=1 n=e5 v=27
65952 On ch=1 n=b5 v=86
66060 On ch=1 n=e5 v=0
66088 On ch=1 n=g#4 v=0
66114 On ch=1 n=a#5 v=87
66134 On ch=1 n=b5 v=0
66274 On ch=1 n=b5 v=79
66280 On ch=1 n=a#5 v=0
66404 On ch=1 n=b5 v=0
66436 On ch=1 n=c#6 v=84
66568 On ch=1 n=c#6 v=0
66600 On ch=1 n=d6 v=63
66722 On ch=1 n=d6 v=0
66788 On ch=1 n=e5 v=36
66790 On ch=1 n=b4 v=51
66940 On ch=1 n=d6 v=88
67008 On ch=1 n=e5 v=0
67028 On ch=1 n=b4 v=0
67106 On ch=1 n=e6 v=72
67114 On ch=1 n=d6 v=0
67258 On ch=1 n=d6 v=85
67264 On ch=1 n=e6 v=0
67350 On ch=1 n=d6 v=0
67430 On ch=1 n=d6 v=75
67588 On ch=1 n=a5 v=50
67590 On ch=1 n=d6 v=0
67714 On ch=1 n=a5 v=0
67772 On ch=1 n=f#4 v=80
67774 On ch=1 n=e5 v=63
67942 On ch=1 n=a5 v=85
67962 On ch=1 n=e5 v=0
67978 On ch=1 n=f#4 v=0
68110 On ch=1 n=g#5 v=94
68132 On ch=1 n=a5 v=0
68264 On ch=1 n=a5 v=76
68276 On ch=1 n=g#5 v=0
68418 On ch=1 n=a5 v=0
68460 On ch=1 n=a#5 v=80
68598 On ch=1 n=a#5 v=0
68602 On ch=1 n=b5 v=64
68698 On ch=1 n=b5 v=0
68776 On ch=1 n=e5 v=70
68778 On ch=1 n=g#4 v=82
68938 On ch=1 n=b5 v=89
68996 On ch=1 n=e5 v=0
69038 On ch=1 n=g#4 v=0
69098 On ch=1 n=a#5 v=96
69106 On ch=1 n=b5 v=0
69256 On ch=1 n=a#5 v=0
69256 On ch=1 n=b5 v=88
69384 On ch=1 n=b5 v=0
69416 On ch=1 n=e5 v=75
69418 On ch=1 n=a4 v=71
69422 On ch=1 n=c6 v=93
69576 On ch=1 n=c#6 v=98
69588 On ch=1 n=c6 v=0
69748 On ch=1 n=c6 v=99
69770 On ch=1 n=a4 v=0
69794 On ch=1 n=c#6 v=0
69874 On ch=1 n=e5 v=0
69886 On ch=1 n=c#6 v=97
69924 On ch=1 n=c6 v=0
70050 On ch=1 n=f#4 v=87
70052 On ch=1 n=e6 v=85
70054 On ch=1 n=d4 v=79
70086 On ch=1 n=c#6 v=0
70142 On ch=1 n=f#4 v=0
70158 On ch=1 n=d4 v=0
70204 On ch=1 n=d6 v=90
70220 On ch=1 n=e6 v=0
70374 On ch=1 n=g#4 v=97
70384 On ch=1 n=c#6 v=100
70386 On ch=1 n=e4 v=83
70398 On ch=1 n=d6 v=0
70532 On ch=1 n=b5 v=83
70552 On ch=1 n=c#6 v=0
70714 On ch=1 n=b5 v=0
70714 On ch=1 n=a5 v=79
70854 On ch=1 n=g#5 v=99
70864 On ch=1 n=g#4 v=0
70866 On ch=1 n=a5 v=0
70910 On ch=1 n=e4 v=0
71014 On ch=1 n=f#5 v=99
71038 On ch=1 n=g#5 v=0
71134 On ch=1 n=f#5 v=0
71178 On ch=1 n=e5 v=70
71268 On ch=1 n=e5 v=0
71338 On ch=1 n=a3 v=99
71344 On ch=1 n=c#6 v=115
71348 On ch=1 n=a5 v=101
71350 On ch=1 n=e5 v=102
71366 Par ch=1 c=64 v=127
71470 On ch=1 n=a3 v=0
71474 On ch=1 n=e5 v=0
71502 On ch=1 n=a5 v=0
71524 On ch=1 n=a4 v=65
71538 On ch=1 n=c#6 v=0
71616 On ch=1 n=a4 v=0
71712 On ch=1 n=a4 v=63
71766 On ch=1 n=a4 v=0
71838 On ch=1 n=a4 v=65
71918 On ch=1 n=a4 v=0
72014 On ch=1 n=d6 v=94
72016 On ch=1 n=b5 v=90
72026 On ch=1 n=a4 v=84
72052 On ch=1 n=b5 v=0
72090 On ch=1 n=d6 v=0
72104 On ch=1 n=a4 v=0
72156 On ch=1 n=a4 v=83
72292 Par ch=1 c=64 v=63
72298 Par ch=1 c=64 v=0
72330 On ch=1 n=a4 v=0
72336 On ch=1 n=a3 v=108
72336 On ch=1 n=d#6 v=115
72342 On ch=1 n=c6 v=104
72406 Par ch=1 c=64 v=63
72412 Par ch=1 c=64 v=127
72446 On ch=1 n=a3 v=0
72500 On ch=1 n=a4 v=66
72520 On ch=1 n=c6 v=0
72572 On ch=1 n=d#6 v=0
72602 On ch=1 n=a4 v=0
72666 On ch=1 n=e6 v=96
72668 Par ch=1 c=64 v=63
72672 On ch=1 n=c#6 v=101
72678 Par ch=1 c=64 v=0
72696 On ch=1 n=a4 v=84
72720 On ch=1 n=c#6 v=0
72734 On ch=1 n=e6 v=0
72760 On ch=1 n=a4 v=0
72824 On ch=1 n=a4 v=72
72906 On ch=1 n=a4 v=0
72976 Par ch=1 c=64 v=63
72978 Par ch=1 c=64 v=127
72992 On ch=1 n=a4 v=83
73070 On ch=1 n=a4 v=0
73130 On ch=1 n=a4 v=71
73144 On ch=1 n=c#6 v=97
73154 On ch=1 n=a5 v=64
73162 On ch=1 n=e5 v=60
73208 On ch=1 n=a5 v=0
73208 On ch=1 n=a4 v=0
73222 On ch=1 n=e5 v=0
73234 On ch=1 n=c#6 v=0
73284 Par ch=1 c=64 v=63
73286 Par ch=1 c=64 v=0
73304 On ch=1 n=e3 v=98
73306 On ch=1 n=b5 v=96
73310 On ch=1 n=g#5 v=100
73310 On ch=1 n=e5 v=91
73350 On ch=1 n=e5 v=0
73362 On ch=1 n=g#5 v=0
73370 On ch=1 n=b5 v=0
73380 On ch=1 n=e3 v=0
73446 On ch=1 n=e4 v=81
73514 On ch=1 n=e4 v=0
73640 On ch=1 n=b5 v=96
73642 On ch=1 n=g#5 v=97
73646 On ch=1 n=e5 v=77
73654 On ch=1 n=e4 v=86
73684 On ch=1 n=g#5 v=0
73686 On ch=1 n=e5 v=0
73708 On ch=1 n=b5 v=0
73710 On ch=1 n=e4 v=0
73782 On ch=1 n=e4 v=66
73854 On ch=1 n=e4 v=0
73948 On ch=1 n=a5 v=103
73952 On ch=1 n=e4 v=92
73982 On ch=1 n=c#6 v=78
74008 On ch=1 n=a5 v=0
74018 On ch=1 n=c#6 v=0
74040 On ch=1 n=e4 v=0
74094 On ch=1 n=e4 v=84
74230 On ch=1 n=e4 v=0
74266 On ch=1 n=c#6 v=113
74272 On ch=1 n=a#5 v=90
74272 On ch=1 n=e3 v=102
74274 On ch=1 n=e5 v=101
74316 Par ch=1 c=64 v=127
74326 On ch=1 n=a#5 v=0
74358 On ch=1 n=e3 v=0
74372 On ch=1 n=e5 v=0
74394 On ch=1 n=c#6 v=0
74426 On ch=1 n=e4 v=62
74522 On ch=1 n=e4 v=0
74620 On ch=1 n=d6 v=100
74624 On ch=1 n=e4 v=89
74624 On ch=1 n=b5 v=97
74654 Par ch=1 c=64 v=63
74658 Par ch=1 c=64 v=0
74690 On ch=1 n=b5 v=0
74696 On ch=1 n=e4 v=0
74702 On ch=1 n=d6 v=0
74764 On ch=1 n=e4 v=68
74858 On ch=1 n=e4 v=0
74940 On ch=1 n=e4 v=83
75020 On ch=1 n=e4 v=0
75084 On ch=1 n=e4 v=72
75092 On ch=1 n=b5 v=90
75096 On ch=1 n=g#5 v=82
75132 On ch=1 n=g#5 v=0
75168 On ch=1 n=b5 v=0
75168 On ch=1 n=e4 v=0
75250 On ch=1 n=f#3 v=88
75258 On ch=1 n=a5 v=99
75268 Par ch=1 c=64 v=127
75312 On ch=1 n=a5 v=0
75318 On ch=1 n=f#3 v=0
75394 On ch=1 n=f#4 v=69
75424 Par ch=1 c=64 v=63
75432 Par ch=1 c=64 v=0
75472 On ch=1 n=f#4 v=0
75604 On ch=1 n=f#4 v=94
75612 On ch=1 n=a5 v=96
75670 On ch=1 n=f#4 v=0
75676 On ch=1 n=a5 v=0
75732 On ch=1 n=f#4 v=88
75836 On ch=1 n=f#4 v=0
75910 On ch=1 n=g#3 v=92
75912 Par ch=1 c=64 v=63
75914 Par ch=1 c=64 v=127
75946 On ch=1 n=b5 v=103
75976 On ch=1 n=c#6 v=101
75986 On ch=1 n=g#3 v=0
76006 On ch=1 n=b5 v=0
76014 Par ch=1 c=64 v=63
76024 Par ch=1 c=64 v=0
76038 On ch=1 n=c#6 v=0
76064 On ch=1 n=g#4 v=88
76074 On ch=1 n=b5 v=84
76122 On ch=1 n=a5 v=70
76148 On ch=1 n=b5 v=0
76162 On ch=1 n=g#4 v=0
76200 On ch=1 n=a5 v=0
76214 On ch=1 n=b5 v=55
76236 Par ch=1 c=64 v=127
76242 On ch=1 n=c#6 v=109
76244 On ch=1 n=a3 v=76
76258 On ch=1 n=b5 v=0
76288 On ch=1 n=a3 v=0
76310 On ch=1 n=c#6 v=0
76358 On ch=1 n=a4 v=70
76438 Par ch=1 c=64 v=63
76446 On ch=1 n=a4 v=0
76452 Par ch=1 c=64 v=0
76554 On ch=1 n=a4 v=84
76558 On ch=1 n=c#6 v=100
76634 On ch=1 n=c#6 v=0
76634 On ch=1 n=a4 v=0
76696 On ch=1 n=a4 v=69
76768 On ch=1 n=a4 v=0
76864 Par ch=1 c=64 v=127
76884 On ch=1 n=d6 v=101
76890 On ch=1 n=b5 v=92
76896 On ch=1 n=f#5 v=97
76896 On ch=1 n=d3 v=99
76964 On ch=1 n=d3 v=0
76966 On ch=1 n=f#5 v=0
76972 On ch=1 n=b5 v=0
76998 On ch=1 n=d6 v=0
77036 On ch=1 n=d4 v=86
77132 On ch=1 n=d4 v=0
77146 Par ch=1 c=64 v=63
77150 Par ch=1 c=64 v=0
77220 On ch=1 n=e3 v=98
77224 On ch=1 n=e5 v=87
77224 On ch=1 n=c#6 v=101
77226 On ch=1 n=a5 v=86
77252 Par ch=1 c=64 v=63
77258 Par ch=1 c=64 v=127
77266 On ch=1 n=e5 v=0
77280 On ch=1 n=a5 v=0
77290 On ch=1 n=e3 v=0
77294 On ch=1 n=c#6 v=0
77360 Par ch=1 c=64 v=63
77370 On ch=1 n=e4 v=51
77372 Par ch=1 c=64 v=0
77444 On ch=1 n=e4 v=0
77578 On ch=1 n=c#6 v=80
77580 On ch=1 n=e5 v=65
77582 On ch=1 n=e4 v=77
77626 On ch=1 n=c#6 v=0
77632 On ch=1 n=e5 v=0
77634 On ch=1 n=e4 v=0
77728 On ch=1 n=e4 v=68
77850 On ch=1 n=e4 v=0
77890 Par ch=1 c=64 v=63
77892 Par ch=1 c=64 v=127
77904 On ch=1 n=b5 v=93
77906 On ch=1 n=e3 v=85
77910 On ch=1 n=d5 v=84
77916 On ch=1 n=e5 v=70
77920 On ch=1 n=g#5 v=76
77964 On ch=1 n=e3 v=0
77968 On ch=1 n=g#5 v=0
77970 On ch=1 n=d5 v=0
77976 On ch=1 n=e5 v=0
77996 On ch=1 n=b5 v=0
78054 On ch=1 n=e4 v=74
78064 Par ch=1 c=64 v=63
78076 Par ch=1 c=64 v=0
78108 On ch=1 n=e4 v=0
78266 On ch=1 n=a2 v=76
78272 Par ch=1 c=64 v=63
78274 Par ch=1 c=64 v=127
78286 On ch=1 n=a5 v=83
78288 On ch=1 n=c#5 v=89
78290 On ch=1 n=e5 v=73
78334 On ch=1 n=c#5 v=0
78336 On ch=1 n=a2 v=0
78340 On ch=1 n=e5 v=0
78386 On ch=1 n=a5 v=0
78690 On ch=1 n=a3 v=56
78764 On ch=1 n=a3 v=0
79076 Par ch=1 c=64 v=63
79090 Par ch=1 c=64 v=0
79432 On ch=1 n=d#6 v=74
79454 Par ch=1 c=64 v=63
79484 Par ch=1 c=64 v=127
79576 On ch=1 n=d#6 v=0
79608 On ch=1 n=e6 v=43
79744 On ch=1 n=e6 v=0
79786 Par ch=1 c=64 v=63
79790 On ch=1 n=c#5 v=52
79810 Par ch=1 c=64 v=0
79814 On ch=1 n=a4 v=39
79982 On ch=1 n=e6 v=65
79996 Par ch=1 c=64 v=63
80016 Par ch=1 c=64 v=127
80104 On ch=1 n=a4 v=0
80150 On ch=1 n=d#6 v=95
80172 On ch=1 n=c#5 v=0
80184 On ch=1 n=e6 v=0
80194 Par ch=1 c=64 v=63
80236 Par ch=1 c=64 v=0
80302 On ch=1 n=e6 v=96
80326 On ch=1 n=d#6 v=0
80468 On ch=1 n=f6 v=100
80510 On ch=1 n=e6 v=0
80614 On ch=1 n=f#6 v=105
80670 On ch=1 n=f6 v=0
80776 On ch=1 n=f#6 v=0
80794 On ch=1 n=d5 v=76
80800 On ch=1 n=a4 v=57
80964 On ch=1 n=f#6 v=104
81070 On ch=1 n=a4 v=0
81084 On ch=1 n=d5 v=0
81118 On ch=1 n=f6 v=98
81166 On ch=1 n=f#6 v=0
81264 On ch=1 n=f#6 v=112
81324 On ch=1 n=f6 v=0
81414 Par ch=1 c=64 v=63
81422 On ch=1 n=g#6 v=105
81428 Par ch=1 c=64 v=127
81432 On ch=1 n=f#5 v=92
81440 On ch=1 n=a4 v=76
81478 On ch=1 n=f#6 v=0
81582 On ch=1 n=a6 v=100
81650 On ch=1 n=g#6 v=0
81672 On ch=1 n=f#5 v=0
81680 On ch=1 n=a4 v=0
81734 Par ch=1 c=64 v=63
81752 On ch=1 n=g6 v=96
81762 Par ch=1 c=64 v=0
81766 On ch=1 n=e5 v=70
81768 On ch=1 n=a4 v=47
81780 On ch=1 n=a6 v=0
81914 On ch=1 n=g#6 v=97
81938 On ch=1 n=g6 v=0
82010 On ch=1 n=a4 v=0
82066 On ch=1 n=g#6 v=0
82078 On ch=1 n=f6 v=71
82090 On ch=1 n=a4 v=60
82102 On ch=1 n=e5 v=0
82106 On ch=1 n=d5 v=51
82220 On ch=1 n=f#6 v=72
82246 On ch=1 n=f6 v=0
82294 On ch=1 n=a4 v=0
82320 On ch=1 n=d5 v=0
82404 On ch=1 n=d#6 v=88
82410 On ch=1 n=f#6 v=0
82558 On ch=1 n=d#6 v=0
82574 On ch=1 n=e6 v=61
82702 On ch=1 n=e6 v=0
82750 On ch=1 n=c#5 v=71
82754 On ch=1 n=a4 v=44
82934 On ch=1 n=e6 v=68
83042 On ch=1 n=e6 v=0
83084 On ch=1 n=a4 v=0
83088 Par ch=1 c=64 v=63
83090 Par ch=1 c=64 v=127
83104 On ch=1 n=e6 v=82
83134 On ch=1 n=c#5 v=0
83218 On ch=1 n=e6 v=0
83270 On ch=1 n=e6 v=100
83386 On ch=1 n=e6 v=0
83484 On ch=1 n=a4 v=84
83484 On ch=1 n=e6 v=100
83486 On ch=1 n=c#5 v=100
83516 On ch=1 n=e5 v=36
83564 Par ch=1 c=64 v=63
83570 Par ch=1 c=64 v=0
83652 Par ch=1 c=64 v=63
83660 Par ch=1 c=64 v=127
83718 On ch=1 n=c#6 v=94
83828 On ch=1 n=e6 v=0
83894 On ch=1 n=a5 v=71
83916 On ch=1 n=c#6 v=0
84020 On ch=1 n=a5 v=0
84040 On ch=1 n=e6 v=88
84084 Par ch=1 c=64 v=63
84092 Par ch=1 c=64 v=0
84146 On ch=1 n=e6 v=0
84204 On ch=1 n=e6 v=91
84290 On ch=1 n=e6 v=0
84314 On ch=1 n=e5 v=0
84334 On ch=1 n=a4 v=0
84360 On ch=1 n=c#5 v=0
84372 On ch=1 n=e6 v=81
84472 On ch=1 n=e6 v=0
84534 On ch=1 n=e6 v=96
84536 On ch=1 n=e5 v=84
84540 On ch=1 n=d5 v=84
84544 On ch=1 n=b4 v=81
84590 Par ch=1 c=64 v=63
84592 Par ch=1 c=64 v=127
84718 On ch=1 n=d6 v=90
84740 On ch=1 n=e6 v=0
84850 On ch=1 n=d6 v=0
84896 On ch=1 n=g#5 v=76
85014 On ch=1 n=g#5 v=0
85052 On ch=1 n=e6 v=83
85146 On ch=1 n=e6 v=0
85200 On ch=1 n=e5 v=0
85204 On ch=1 n=d5 v=0
85226 On ch=1 n=e6 v=84
85238 On ch=1 n=b4 v=0
85320 On ch=1 n=e6 v=0
85380 On ch=1 n=e6 v=97
85490 On ch=1 n=e6 v=0
85552 On ch=1 n=e6 v=96
85560 On ch=1 n=e5 v=92
85566 On ch=1 n=c#5 v=97
85590 Par ch=1 c=64 v=63
85600 Par ch=1 c=64 v=0
85712 Par ch=1 c=64 v=63
85722 Par ch=1 c=64 v=127
85746 On ch=1 n=c#6 v=101
85820 On ch=1 n=e6 v=0
85898 On ch=1 n=c#5 v=0
85916 On ch=1 n=e5 v=0
85922 On ch=1 n=a5 v=85
85986 On ch=1 n=c#6 v=0
86040 On ch=1 n=a5 v=0
86056 On ch=1 n=e6 v=99
86268 On ch=1 n=d#5 v=80
86284 On ch=1 n=c#6 v=95
86300 On ch=1 n=f#4 v=75
86304 On ch=1 n=a4 v=55
86322 Par ch=1 c=64 v=63
86340 Par ch=1 c=64 v=0
86358 On ch=1 n=e6 v=0
86460 Par ch=1 c=64 v=63
86462 On ch=1 n=a5 v=90
86476 Par ch=1 c=64 v=127
86492 On ch=1 n=c#6 v=0
86590 On ch=1 n=a4 v=0
86620 On ch=1 n=f#4 v=0
86630 On ch=1 n=d#5 v=0
86658 On ch=1 n=a5 v=0
86770 On ch=1 n=e5 v=65
86770 On ch=1 n=c#6 v=105
86774 On ch=1 n=a5 v=77
86802 On ch=1 n=e4 v=19
86918 Par ch=1 c=64 v=63
86950 Par ch=1 c=64 v=0
87252 Par ch=1 c=64 v=63
87260 Par ch=1 c=64 v=127
87698 On ch=1 n=c#6 v=0
87748 Par ch=1 c=64 v=63
87756 On ch=1 n=b5 v=52
87758 On ch=1 n=g#5 v=40
87770 Par ch=1 c=64 v=0
87788 On ch=1 n=a5 v=0
87894 Par ch=1 c=64 v=63
87910 Par ch=1 c=64 v=127
87992 On ch=1 n=g#5 v=0
88030 On ch=1 n=b5 v=0
88054 On ch=1 n=e4 v=0
88144 On ch=1 n=e5 v=0
88248 Par ch=1 c=64 v=63
88258 On ch=1 n=c6 v=73
88270 Par ch=1 c=64 v=0
88424 On ch=1 n=c#6 v=77
88436 On ch=1 n=c6 v=0
88512 Par ch=1 c=64 v=63
88528 On ch=1 n=c#6 v=0
88560 Par ch=1 c=64 v=127
88604 On ch=1 n=e5 v=47
88608 On ch=1 n=a4 v=45
88706 Par ch=1 c=64 v=63
88762 Par ch=1 c=64 v=0
88776 On ch=1 n=c#6 v=80
88936 On ch=1 n=a4 v=0
88944 On ch=1 n=c6 v=80
88948 On ch=1 n=c#6 v=0
88956 On ch=1 n=e5 v=0
89040 Par ch=1 c=64 v=63
89094 On ch=1 n=c#6 v=97
89122 On ch=1 n=c6 v=0
89210 Par ch=1 c=64 v=0
89256 On ch=1 n=d#6 v=87
89280 On ch=1 n=c#6 v=0
89432 On ch=1 n=d#6 v=0
89432 On ch=1 n=e6 v=59
89582 On ch=1 n=e6 v=0
89616 On ch=1 n=c#5 v=58
89618 On ch=1 n=e5 v=46
89788 On ch=1 n=e6 v=74
89936 On ch=1 n=f#6 v=82
89954 On ch=1 n=e6 v=0
90006 On ch=1 n=e5 v=0
90012 On ch=1 n=c#5 v=0
90098 On ch=1 n=e6 v=77
90108 On ch=1 n=f#6 v=0
90204 On ch=1 n=e6 v=0
90272 On ch=1 n=e6 v=73
90444 On ch=1 n=b5 v=63
90464 On ch=1 n=e6 v=0
90584 On ch=1 n=b5 v=0
90624 On ch=1 n=e5 v=47
90626 On ch=1 n=g#4 v=66
90778 On ch=1 n=b5 v=90
90936 On ch=1 n=e5 v=0
90948 On ch=1 n=a#5 v=90
90970 On ch=1 n=b5 v=0
90980 On ch=1 n=g#4 v=0
91102 On ch=1 n=b5 v=80
91118 On ch=1 n=a#5 v=0
91258 On ch=1 n=b5 v=0
91286 On ch=1 n=c#6 v=79
91460 On ch=1 n=d6 v=70
91474 On ch=1 n=c#6 v=0
91576 On ch=1 n=d6 v=0
91648 On ch=1 n=b4 v=50
91656 On ch=1 n=e5 v=38
91794 On ch=1 n=d6 v=90
91956 On ch=1 n=e6 v=75
91990 On ch=1 n=d6 v=0
92048 On ch=1 n=e5 v=0
92080 On ch=1 n=b4 v=0
92132 On ch=1 n=e6 v=0
92138 On ch=1 n=d6 v=76
92216 On ch=1 n=d6 v=0
92286 On ch=1 n=d6 v=69
92454 On ch=1 n=a5 v=60
92460 On ch=1 n=d6 v=0
92556 On ch=1 n=a5 v=0
92610 On ch=1 n=f#4 v=69
92618 On ch=1 n=e5 v=48
92698 On ch=1 n=f#4 v=0
92708 On ch=1 n=e5 v=0
92776 On ch=1 n=a5 v=65
92920 On ch=1 n=a5 v=0
92922 On ch=1 n=c#6 v=80
92936 On ch=1 n=g#4 v=75
92952 On ch=1 n=e5 v=50
93090 On ch=1 n=g#4 v=0
93090 On ch=1 n=b5 v=76
93118 On ch=1 n=e5 v=0
93130 On ch=1 n=c#6 v=0
93256 On ch=1 n=d6 v=74
93264 On ch=1 n=b5 v=0
93410 On ch=1 n=c#6 v=95
93454 On ch=1 n=d6 v=0
93498 On ch=1 n=c#6 v=0
93568 On ch=1 n=e5 v=83
93568 On ch=1 n=a4 v=85
93640 On ch=1 n=e5 v=0
93646 On ch=1 n=a4 v=0
93718 On ch=1 n=c#6 v=98
93880 On ch=1 n=c#6 v=0
93894 On ch=1 n=e6 v=77
93902 On ch=1 n=b4 v=78
93928 On ch=1 n=d4 v=51
94062 On ch=1 n=d6 v=94
94102 On ch=1 n=e6 v=0
94150 On ch=1 n=b4 v=0
94196 On ch=1 n=d4 v=0
94234 On ch=1 n=c6 v=102
94242 On ch=1 n=d6 v=0
94382 On ch=1 n=c#6 v=103
94414 On ch=1 n=c6 v=0
94470 On ch=1 n=c#6 v=0
94550 On ch=1 n=a4 v=97
94558 On ch=1 n=e4 v=88
94622 On ch=1 n=a4 v=0
94636 On ch=1 n=e4 v=0
94702 On ch=1 n=c#6 v=105
94846 On ch=1 n=c#6 v=0
94878 On ch=1 n=d6 v=99
94880 On ch=1 n=g#4 v=108
94890 On ch=1 n=e4 v=92
94942 On ch=1 n=g#4 v=0
94966 On ch=1 n=e4 v=0
95018 On ch=1 n=b5 v=80
95030 On ch=1 n=d6 v=0
95152 On ch=1 n=b5 v=0
95212 On ch=1 n=b5 v=89
95214 On ch=1 n=a4 v=90
95236 On ch=1 n=g#5 v=91
95266 Par ch=1 c=64 v=127
95582 On ch=1 n=e4 v=98
95694 Par ch=1 c=64 v=63
95704 Par ch=1 c=64 v=0
95724 On ch=1 n=c6 v=99
95748 On ch=1 n=b5 v=0
95818 On ch=1 n=a4 v=0
95874 On ch=1 n=g#5 v=0
95912 On ch=1 n=a3 v=100
95918 Par ch=1 c=64 v=63
95918 On ch=1 n=c#6 v=104
95920 On ch=1 n=c6 v=0
95920 Par ch=1 c=64 v=127
95922 On ch=1 n=a5 v=84
95940 On ch=1 n=e4 v=0
95978 On ch=1 n=a3 v=0
96018 On ch=1 n=a5 v=0
96034 On ch=1 n=c#6 v=0
96104 Par ch=1 c=64 v=63
96112 Par ch=1 c=64 v=0
96268 On ch=1 n=c#6 v=114
96268 On ch=1 n=a5 v=103
96270 On ch=1 n=a2 v=117
96276 On ch=1 n=e5 v=101
96300 Par ch=1 c=64 v=127
96324 On ch=1 n=e5 v=0
96330 On ch=1 n=a5 v=0
96352 On ch=1 n=c#6 v=0
96390 On ch=1 n=a2 v=0
96432 On ch=1 n=a3 v=79
96528 On ch=1 n=a3 v=0
96620 On ch=1 n=a5 v=97
96630 On ch=1 n=c#6 v=105
96634 On ch=1 n=e5 v=84
96634 On ch=1 n=a3 v=94
96680 On ch=1 n=e5 v=0
96690 On ch=1 n=a5 v=0
96714 On ch=1 n=a3 v=0
96716 On ch=1 n=c#6 v=0
96772 On ch=1 n=a3 v=86
96922 Par ch=1 c=64 v=63
96928 Par ch=1 c=64 v=0
96944 On ch=1 n=a3 v=0
96968 On ch=1 n=d6 v=116
96970 On ch=1 n=b2 v=113
96970 On ch=1 n=g#5 v=119
96972 On ch=1 n=e5 v=113
97014 Par ch=1 c=64 v=63
97022 Par ch=1 c=64 v=127
97034 On ch=1 n=e5 v=0
97050 On ch=1 n=g#5 v=0
97054 On ch=1 n=d6 v=0
97066 On ch=1 n=b2 v=0
97126 On ch=1 n=b3 v=88
97212 Par ch=1 c=64 v=63
97218 Par ch=1 c=64 v=0
97238 On ch=1 n=b3 v=0
97300 On ch=1 n=c#3 v=110
97318 On ch=1 n=e6 v=113
97320 On ch=1 n=e5 v=108
97322 On ch=1 n=a5 v=106
97356 Par ch=1 c=64 v=63
97358 Par ch=1 c=64 v=127
97390 On ch=1 n=e5 v=0
97408 On ch=1 n=a5 v=0
97432 On ch=1 n=c#3 v=0
97438 On ch=1 n=e6 v=0
97462 On ch=1 n=c#4 v=82
97558 On ch=1 n=c#4 v=0
97672 On ch=1 n=e6 v=117
97680 On ch=1 n=a5 v=108
97692 On ch=1 n=c#4 v=99
97718 On ch=1 n=a5 v=0
97748 On ch=1 n=e6 v=0
97764 On ch=1 n=c#4 v=0
97816 On ch=1 n=c#4 v=90
97936 On ch=1 n=c#4 v=0
98012 Par ch=1 c=64 v=63
98020 Par ch=1 c=64 v=0
98048 On ch=1 n=d3 v=91
98050 On ch=1 n=f#6 v=114
98062 On ch=1 n=a5 v=97
98116 Par ch=1 c=64 v=63
98124 Par ch=1 c=64 v=127
98142 On ch=1 n=a5 v=0
98146 On ch=1 n=d3 v=0
98298 On ch=1 n=d4 v=65
98304 On ch=1 n=g#6 v=93
98332 On ch=1 n=f#6 v=0
98378 On ch=1 n=a6 v=84
98390 On ch=1 n=g#6 v=0
98416 On ch=1 n=a6 v=0
98420 On ch=1 n=d4 v=0
98596 On ch=1 n=e3 v=74
98634 On ch=1 n=a5 v=89
98648 On ch=1 n=e5 v=76
98658 On ch=1 n=c#5 v=89
98708 Par ch=1 c=64 v=63
98722 Par ch=1 c=64 v=0
98822 On ch=1 n=e3 v=0
98824 Par ch=1 c=64 v=63
98838 Par ch=1 c=64 v=127
98852 On ch=1 n=e4 v=61
98870 On ch=1 n=c#5 v=0
98892 On ch=1 n=a5 v=0
98908 On ch=1 n=e5 v=0
98930 On ch=1 n=e4 v=0
99042 On ch=1 n=a5 v=101
99044 On ch=1 n=e4 v=63
99046 On ch=1 n=c#5 v=100
99048 On ch=1 n=e5 v=87
99118 On ch=1 n=e4 v=0
99130 On ch=1 n=e5 v=0
99140 On ch=1 n=c#5 v=0
99168 On ch=1 n=a5 v=0
99208 On ch=1 n=e4 v=91
99414 On ch=1 n=e4 v=0
99418 Par ch=1 c=64 v=63
99420 On ch=1 n=b5 v=98
99422 On ch=1 n=e3 v=65
99426 On ch=1 n=g#5 v=88
99430 On ch=1 n=d5 v=84
99432 Par ch=1 c=64 v=0
99434 On ch=1 n=e5 v=76
99550 Par ch=1 c=64 v=63
99562 Par ch=1 c=64 v=127
99596 On ch=1 n=e3 v=0
99608 On ch=1 n=b5 v=0
99614 On ch=1 n=e4 v=83
99622 On ch=1 n=d5 v=0
99636 On ch=1 n=g#5 v=0
99638 On ch=1 n=e5 v=0
99690 On ch=1 n=e4 v=0
99914 On ch=1 n=a2 v=70
99928 On ch=1 n=a5 v=81
99934 On ch=1 n=c#5 v=72
99946 On ch=1 n=e5 v=63
100046 Par ch=1 c=64 v=63
100076 Par ch=1 c=64 v=0
100502 On ch=1 n=a2 v=0
100520 On ch=1 n=a3 v=32
100658 Par ch=1 c=64 v=63
100668 Par ch=1 c=64 v=127
100990 On ch=1 n=a3 v=0
101068 On ch=1 n=c#5 v=0
101098 On ch=1 n=e5 v=0
101108 On ch=1 n=a5 v=0
101218 Par ch=1 c=64 v=63
101252 Par ch=1 c=64 v=0
101722 On ch=1 n=a4 v=51
101724 On ch=1 n=c#6 v=93
101756 On ch=1 n=c#6 v=0
101824 On ch=1 n=a4 v=0
101840 On ch=1 n=d#5 v=61
101954 On ch=1 n=d#5 v=0
101958 On ch=1 n=e5 v=49
102078 On ch=1 n=c#6 v=104
102098 On ch=1 n=a4 v=43
102110 On ch=1 n=e5 v=0
102118 On ch=1 n=c#6 v=0
102190 On ch=1 n=d#5 v=60
102194 On ch=1 n=a4 v=0
102300 On ch=1 n=e5 v=49
102306 On ch=1 n=d#5 v=0
102396 On ch=1 n=d6 v=100
102410 On ch=1 n=e5 v=0
102424 On ch=1 n=b4 v=60
102464 On ch=1 n=d6 v=0
102466 On ch=1 n=e6 v=81
102522 On ch=1 n=e6 v=0
102524 On ch=1 n=d6 v=91
102536 On ch=1 n=d#5 v=58
102540 On ch=1 n=b4 v=0
102598 On ch=1 n=d6 v=0
102606 On ch=1 n=c#6 v=85
102610 On ch=1 n=d#5 v=0
102616 On ch=1 n=e5 v=42
102664 On ch=1 n=d6 v=74
102682 On ch=1 n=c#6 v=0
102748 On ch=1 n=e6 v=86
102762 On ch=1 n=e5 v=0
102782 On ch=1 n=c#5 v=70
102794 On ch=1 n=d6 v=0
102914 On ch=1 n=c#5 v=0
102920 On ch=1 n=d#5 v=54
103008 On ch=1 n=d#5 v=0
103016 On ch=1 n=e5 v=44
103116 On ch=1 n=e6 v=0
103120 On ch=1 n=c#5 v=94
103136 On ch=1 n=e5 v=0
103220 On ch=1 n=c#5 v=0
103244 On ch=1 n=d#5 v=72
103316 On ch=1 n=e5 v=63
103326 On ch=1 n=d#5 v=0
103434 On ch=1 n=e5 v=0
103466 On ch=1 n=a4 v=68
103480 On ch=1 n=f#6 v=90
103550 On ch=1 n=e6 v=88
103552 On ch=1 n=f#6 v=0
103580 On ch=1 n=a4 v=0
103594 On ch=1 n=d#5 v=62
103628 On ch=1 n=d6 v=78
103642 On ch=1 n=e6 v=0
103690 On ch=1 n=d#5 v=0
103704 On ch=1 n=c#6 v=87
103712 On ch=1 n=e5 v=31
103718 On ch=1 n=d6 v=0
103790 On ch=1 n=b5 v=85
103792 On ch=1 n=c#6 v=0
103808 On ch=1 n=g#4 v=76
103836 On ch=1 n=e5 v=0
103846 On ch=1 n=b5 v=0
103932 On ch=1 n=g#4 v=0
103944 On ch=1 n=d#5 v=61
104048 On ch=1 n=d#5 v=0
104060 On ch=1 n=e5 v=36
104160 On ch=1 n=b5 v=91
104172 On ch=1 n=g#4 v=64
104196 On ch=1 n=e5 v=0
104202 On ch=1 n=b5 v=0
104270 On ch=1 n=d#5 v=51
104278 On ch=1 n=g#4 v=0
104372 On ch=1 n=d#5 v=0
104382 On ch=1 n=e5 v=37
104498 On ch=1 n=c#6 v=107
104512 On ch=1 n=a4 v=53
104516 On ch=1 n=e5 v=0
104566 On ch=1 n=d6 v=85
104570 On ch=1 n=c#6 v=0
104604 On ch=1 n=a4 v=0
104610 On ch=1 n=d#5 v=65
104636 On ch=1 n=c#6 v=90
104648 On ch=1 n=d6 v=0
104708 On ch=1 n=c#6 v=0
104718 On ch=1 n=d#5 v=0
104718 On ch=1 n=b5 v=71
104728 On ch=1 n=e5 v=30
104764 On ch=1 n=c#6 v=73
104792 On ch=1 n=b5 v=0
104852 On ch=1 n=e5 v=0
104870 On ch=1 n=d6 v=77
104872 On ch=1 n=b4 v=48
104890 On ch=1 n=c#6 v=0
104992 On ch=1 n=d#5 v=54
105014 On ch=1 n=b4 v=0
105106 On ch=1 n=e5 v=43
105118 On ch=1 n=d#5 v=0
105210 On ch=1 n=b4 v=74
105234 On ch=1 n=e5 v=0
105278 On ch=1 n=d6 v=0
105338 On ch=1 n=d#5 v=71
105346 On ch=1 n=b4 v=0
105438 On ch=1 n=e5 v=59
105444 On ch=1 n=d#5 v=0
105556 On ch=1 n=e5 v=0
105568 On ch=1 n=g#4 v=87
105588 On ch=1 n=e6 v=90
105648 On ch=1 n=d6 v=89
105686 On ch=1 n=g#4 v=0
105690 On ch=1 n=e6 v=0
105694 On ch=1 n=d#5 v=63
105726 On ch=1 n=c#6 v=88
105744 On ch=1 n=d6 v=0
105798 On ch=1 n=d#5 v=0
105800 On ch=1 n=b5 v=86
105802 On ch=1 n=e5 v=46
105844 On ch=1 n=c#6 v=0
105900 On ch=1 n=a5 v=79
105906 On ch=1 n=b5 v=0
105930 On ch=1 n=e5 v=0
105938 On ch=1 n=f#4 v=72
105956 On ch=1 n=a5 v=0
106040 On ch=1 n=f#4 v=0
106056 On ch=1 n=d#5 v=75
106152 On ch=1 n=d#5 v=0
106166 On ch=1 n=e5 v=39
106264 On ch=1 n=a5 v=88
106278 On ch=1 n=f#4 v=61
106290 On ch=1 n=e5 v=0
106300 On ch=1 n=a5 v=0
106384 On ch=1 n=d#5 v=64
106392 On ch=1 n=f#4 v=0
106490 On ch=1 n=e5 v=41
106500 On ch=1 n=d#5 v=0
106606 On ch=1 n=f#4 v=64
106616 On ch=1 n=a5 v=87
106624 On ch=1 n=e5 v=0
106664 On ch=1 n=b5 v=79
106686 On ch=1 n=a5 v=0
106708 On ch=1 n=f#4 v=0
106710 On ch=1 n=b5 v=0
106718 On ch=1 n=d#5 v=67
106736 On ch=1 n=a5 v=87
106824 On ch=1 n=a5 v=0
106824 On ch=1 n=d#5 v=0
106824 On ch=1 n=g#5 v=90
106844 On ch=1 n=e5 v=31
106874 On ch=1 n=g#5 v=0
106884 On ch=1 n=a5 v=73
106936 On ch=1 n=g#4 v=61
106956 On ch=1 n=b5 v=90
106978 On ch=1 n=e5 v=0
106998 On ch=1 n=a5 v=0
107022 On ch=1 n=b5 v=0
107080 On ch=1 n=g#4 v=0
107082 On ch=1 n=d5 v=24
107192 On ch=1 n=e5 v=44
107226 On ch=1 n=d5 v=0
107296 On ch=1 n=g#4 v=72
107308 On ch=1 n=b5 v=90
107342 On ch=1 n=b5 v=0
107348 On ch=1 n=e5 v=0
107424 On ch=1 n=g#4 v=0
107428 On ch=1 n=d5 v=33
107542 On ch=1 n=e5 v=46
107548 On ch=1 n=d5 v=0
107630 On ch=1 n=g#4 v=75
107648 On ch=1 n=b5 v=98
107670 On ch=1 n=e5 v=0
107694 On ch=1 n=c#6 v=95
107714 On ch=1 n=b5 v=0
107738 On ch=1 n=c#6 v=0
107740 On ch=1 n=d5 v=54
107748 On ch=1 n=g#4 v=0
107772 On ch=1 n=b5 v=85
107838 On ch=1 n=e5 v=55
107844 On ch=1 n=b5 v=0
107844 On ch=1 n=d5 v=0
107846 On ch=1 n=a5 v=72
107904 On ch=1 n=b5 v=60
107922 On ch=1 n=a5 v=0
107976 On ch=1 n=e5 v=0
107976 On ch=1 n=c#6 v=98
107992 On ch=1 n=a4 v=58
108000 On ch=1 n=b5 v=0
108038 On ch=1 n=c#6 v=0
108114 On ch=1 n=c#5 v=73
108118 On ch=1 n=a4 v=0
108226 On ch=1 n=c#5 v=0
108240 On ch=1 n=e5 v=41
108322 On ch=1 n=c#6 v=107
108338 On ch=1 n=a4 v=56
108344 On ch=1 n=e5 v=0
108386 On ch=1 n=c#6 v=0
108432 On ch=1 n=c#5 v=80
108484 On ch=1 n=a4 v=0
108520 On ch=1 n=c#5 v=0
108530 On ch=1 n=e5 v=76
108608 On ch=1 n=e5 v=0
108644 On ch=1 n=d4 v=102
108644 On ch=1 n=e6 v=103
108646 On ch=1 n=b5 v=106
108664 Par ch=1 c=64 v=127
108720 On ch=1 n=d6 v=89
108746 On ch=1 n=e6 v=0
108772 On ch=1 n=f#4 v=77
108776 On ch=1 n=d4 v=0
108826 Par ch=1 c=64 v=63
108838 Par ch=1 c=64 v=0
108858 On ch=1 n=b4 v=62
108864 On ch=1 n=f#4 v=0
108980 On ch=1 n=b5 v=0
109000 On ch=1 n=e4 v=77
109004 On ch=1 n=b4 v=0
109006 On ch=1 n=c#6 v=105
109018 On ch=1 n=a5 v=82
109060 On ch=1 n=d6 v=0
109068 Par ch=1 c=64 v=63
109070 Par ch=1 c=64 v=127
109132 On ch=1 n=a4 v=44
109140 On ch=1 n=e4 v=0
109228 On ch=1 n=c#5 v=85
109242 Par ch=1 c=64 v=63
109248 Par ch=1 c=64 v=0
109276 On ch=1 n=a4 v=0
109342 On ch=1 n=e4 v=68
109348 On ch=1 n=c#5 v=0
109458 On ch=1 n=a4 v=66
109496 On ch=1 n=e4 v=0
109578 On ch=1 n=c#5 v=83
109604 On ch=1 n=a4 v=0
109612 Par ch=1 c=64 v=63
109616 Par ch=1 c=64 v=127
109670 On ch=1 n=c#5 v=0
109710 On ch=1 n=b5 v=88
109712 On ch=1 n=g#5 v=97
109716 On ch=1 n=e4 v=81
109740 On ch=1 n=c#6 v=0
109750 On ch=1 n=a5 v=0
109782 Par ch=1 c=64 v=63
109784 On ch=1 n=g#5 v=0
109788 Par ch=1 c=64 v=0
109790 On ch=1 n=b5 v=0
109834 On ch=1 n=g#4 v=75
109856 On ch=1 n=e4 v=0
109916 On ch=1 n=b4 v=78
109922 On ch=1 n=g#4 v=0
109998 On ch=1 n=b4 v=0
110066 On ch=1 n=a3 v=112
110072 On ch=1 n=c#6 v=119
110076 Par ch=1 c=64 v=127
110130 On ch=1 n=a3 v=0
110172 On ch=1 n=a5 v=65
110194 On ch=1 n=c#6 v=0
110286 On ch=1 n=e5 v=57
110302 On ch=1 n=a5 v=0
110388 On ch=1 n=e5 v=0
110394 On ch=1 n=g#4 v=105
110420 On ch=1 n=a4 v=96
110424 On ch=1 n=c#6 v=113
110456 Par ch=1 c=64 v=63
110460 On ch=1 n=g#4 v=0
110460 Par ch=1 c=64 v=0
110490 On ch=1 n=a4 v=0
110514 On ch=1 n=a5 v=84
110554 On ch=1 n=c#6 v=0
110632 On ch=1 n=e5 v=68
110646 On ch=1 n=a5 v=0
110728 On ch=1 n=e5 v=0
110770 On ch=1 n=d6 v=108
110872 On ch=1 n=b5 v=96
110918 On ch=1 n=d6 v=0
110972 On ch=1 n=b5 v=0
111008 On ch=1 n=e5 v=81
111072 On ch=1 n=e5 v=0
111098 On ch=1 n=a3 v=117
111120 On ch=1 n=e6 v=117
111122 Par ch=1 c=64 v=63
111122 Par ch=1 c=64 v=127
111160 On ch=1 n=a3 v=0
111216 On ch=1 n=c#6 v=108
111248 On ch=1 n=e6 v=0
111318 On ch=1 n=c#6 v=0
111342 On ch=1 n=e5 v=87
111418 On ch=1 n=e5 v=0
111430 On ch=1 n=g#4 v=82
111462 On ch=1 n=a4 v=92
111462 On ch=1 n=e6 v=112
111468 Par ch=1 c=64 v=63
111478 Par ch=1 c=64 v=0
111520 On ch=1 n=g#4 v=0
111552 On ch=1 n=a4 v=0
111552 Par ch=1 c=64 v=63
111564 Par ch=1 c=64 v=127
111570 On ch=1 n=c#6 v=106
111582 On ch=1 n=e6 v=0
111676 On ch=1 n=c#6 v=0
111712 Par ch=1 c=64 v=63
111730 Par ch=1 c=64 v=0
111800 Par ch=1 c=64 v=63
111812 On ch=1 n=f#6 v=103
111820 Par ch=1 c=64 v=127
111892 On ch=1 n=f#6 v=0
111922 On ch=1 n=e6 v=84
111940 On ch=1 n=f6 v=34
111982 On ch=1 n=f6 v=0
111998 On ch=1 n=d6 v=97
112024 On ch=1 n=e6 v=0
112074 On ch=1 n=c#6 v=103
112078 On ch=1 n=d6 v=0
112110 On ch=1 n=c#6 v=0
112142 Par ch=1 c=64 v=63
112150 Par ch=1 c=64 v=0
112168 On ch=1 n=e3 v=117
112190 On ch=1 n=b5 v=103
112214 Par ch=1 c=64 v=63
112226 On ch=1 n=e3 v=0
112232 Par ch=1 c=64 v=127
112278 On ch=1 n=g#5 v=105
112288 On ch=1 n=b5 v=0
112374 On ch=1 n=g#5 v=0
112402 On ch=1 n=e5 v=76
112486 On ch=1 n=d#4 v=72
112490 On ch=1 n=e5 v=0
112514 On ch=1 n=b5 v=100
112524 Par ch=1 c=64 v=63
112524 On ch=1 n=e4 v=106
112528 Par ch=1 c=64 v=0
112574 On ch=1 n=d#4 v=0
112598 On ch=1 n=e4 v=0
112610 On ch=1 n=g#5 v=103
112622 On ch=1 n=b5 v=0
112712 On ch=1 n=g#5 v=0
112740 On ch=1 n=e5 v=71
112818 On ch=1 n=e5 v=0
112848 On ch=1 n=c#6 v=107
112938 On ch=1 n=a5 v=88
112954 On ch=1 n=c#6 v=0
113052 On ch=1 n=a5 v=0
113058 On ch=1 n=e5 v=73
113138 On ch=1 n=e5 v=0
113168 On ch=1 n=e3 v=117
113168 On ch=1 n=d6 v=111
113182 Par ch=1 c=64 v=63
113182 Par ch=1 c=64 v=127
113228 On ch=1 n=e3 v=0
113276 On ch=1 n=b5 v=90
113304 On ch=1 n=d6 v=0
113376 On ch=1 n=e5 v=79
113404 On ch=1 n=b5 v=0
113468 On ch=1 n=e5 v=0
113496 On ch=1 n=d#4 v=100
113502 On ch=1 n=d6 v=103
113514 On ch=1 n=e4 v=102
113524 Par ch=1 c=64 v=63
113528 Par ch=1 c=64 v=0
113562 On ch=1 n=d#4 v=0
113590 On ch=1 n=e4 v=0
113598 On ch=1 n=b5 v=89
113632 On ch=1 n=d6 v=0
113692 On ch=1 n=b5 v=0
113708 On ch=1 n=e5 v=76
113774 On ch=1 n=e5 v=0
113854 On ch=1 n=e6 v=103
113898 Par ch=1 c=64 v=127
113936 On ch=1 n=d6 v=91
113962 Par ch=1 c=64 v=63
113970 Par ch=1 c=64 v=0
114012 On ch=1 n=c#6 v=90
114022 On ch=1 n=e6 v=0
114038 On ch=1 n=d6 v=0
114068 On ch=1 n=b5 v=97
114100 On ch=1 n=c#6 v=0
114120 On ch=1 n=b5 v=0
114184 Par ch=1 c=64 v=127
114186 On ch=1 n=f#3 v=114
114210 On ch=1 n=a5 v=107
114258 On ch=1 n=f#3 v=0
114314 On ch=1 n=a5 v=0
114324 On ch=1 n=e5 v=88
114436 On ch=1 n=e5 v=0
114438 On ch=1 n=c#5 v=92
114498 On ch=1 n=c#5 v=0
114522 On ch=1 n=f4 v=92
114530 Par ch=1 c=64 v=63
114532 Par ch=1 c=64 v=0
114538 On ch=1 n=f#4 v=116
114544 On ch=1 n=a5 v=89
114572 On ch=1 n=f4 v=0
114610 On ch=1 n=f#4 v=0
114638 On ch=1 n=e5 v=63
114664 On ch=1 n=a5 v=0
114748 On ch=1 n=e5 v=0
114754 On ch=1 n=c#5 v=91
114814 On ch=1 n=c#5 v=0
114872 On ch=1 n=g4 v=88
114872 On ch=1 n=b5 v=96
114900 On ch=1 n=g#4 v=109
114938 On ch=1 n=g4 v=0
114974 On ch=1 n=g#4 v=0
114974 On ch=1 n=e5 v=93
115002 On ch=1 n=b5 v=0
115088 On ch=1 n=e5 v=0
115094 On ch=1 n=d5 v=74
115198 On ch=1 n=d5 v=0
115208 On ch=1 n=a3 v=109
115210 On ch=1 n=c#6 v=101
115244 Par ch=1 c=64 v=127
115266 On ch=1 n=a3 v=0
115308 On ch=1 n=a5 v=67
115382 On ch=1 n=c#6 v=0
115426 On ch=1 n=e5 v=68
115520 On ch=1 n=a5 v=0
115528 On ch=1 n=e5 v=0
115542 On ch=1 n=g#4 v=96
115546 On ch=1 n=c#6 v=100
115548 Par ch=1 c=64 v=63
115550 Par ch=1 c=64 v=0
115560 On ch=1 n=a4 v=88
115592 On ch=1 n=g#4 v=0
115616 On ch=1 n=a4 v=0
115622 On ch=1 n=a5 v=58
115702 On ch=1 n=c#6 v=0
115742 On ch=1 n=e5 v=76
115808 On ch=1 n=a5 v=0
115846 On ch=1 n=e5 v=0
115876 On ch=1 n=c#4 v=104
115880 On ch=1 n=d6 v=100
115916 On ch=1 n=d4 v=90
115934 On ch=1 n=c#4 v=0
115956 On ch=1 n=b5 v=78
115964 On ch=1 n=c6 v=77
115986 On ch=1 n=d4 v=0
115988 On ch=1 n=d6 v=0
116000 On ch=1 n=c6 v=0
116074 On ch=1 n=b5 v=0
116080 On ch=1 n=f#5 v=86
116204 On ch=1 n=c#6 v=105
116220 On ch=1 n=e3 v=116
116224 On ch=1 n=f#5 v=0
116248 Par ch=1 c=64 v=127
116278 On ch=1 n=e3 v=0
116314 On ch=1 n=a5 v=71
116370 On ch=1 n=c#6 v=0
116440 On ch=1 n=e5 v=76
116512 On ch=1 n=a5 v=0
116536 On ch=1 n=d#4 v=89
116542 On ch=1 n=e5 v=0
116550 Par ch=1 c=64 v=63
116556 Par ch=1 c=64 v=0
116560 On ch=1 n=c#6 v=103
116564 On ch=1 n=e4 v=93
116610 On ch=1 n=d#4 v=0
116634 On ch=1 n=e4 v=0
116644 On ch=1 n=a5 v=74
116668 On ch=1 n=c#6 v=0
116776 On ch=1 n=e5 v=67
116788 On ch=1 n=a5 v=0
116868 On ch=1 n=e5 v=0
116886 On ch=1 n=d#4 v=88
116906 On ch=1 n=b5 v=97
116910 On ch=1 n=e4 v=100
116930 On ch=1 n=d#4 v=0
116978 On ch=1 n=e4 v=0
117006 On ch=1 n=g#5 v=89
117052 On ch=1 n=b5 v=0
117104 On ch=1 n=d5 v=76
117112 On ch=1 n=g#5 v=0
117198 On ch=1 n=d5 v=0
117234 On ch=1 n=a2 v=113
117244 On ch=1 n=a5 v=107
117278 Par ch=1 c=64 v=127
117310 On ch=1 n=a2 v=0
117352 On ch=1 n=e5 v=92
117374 On ch=1 n=a5 v=0
117450 On ch=1 n=e5 v=0
117466 On ch=1 n=c#5 v=99
117552 On ch=1 n=c#5 v=0
117580 On ch=1 n=g#3 v=72
117614 On ch=1 n=a4 v=88
117620 On ch=1 n=a3 v=98
117698 On ch=1 n=g#3 v=0
117706 On ch=1 n=a4 v=0
117926 On ch=1 n=a3 v=0
118014 Par ch=1 c=64 v=63
118030 Par ch=1 c=64 v=0
118402 On ch=1 n=e6 v=97
118418 On ch=1 n=a4 v=62
118456 On ch=1 n=e6 v=0
118520 On ch=1 n=c#5 v=79
118546 On ch=1 n=a4 v=0
118618 On ch=1 n=c#5 v=0
118626 On ch=1 n=e5 v=53
118764 On ch=1 n=e5 v=0
118772 On ch=1 n=d6 v=82
118782 On ch=1 n=a4 v=36
118816 On ch=1 n=d6 v=0
118892 On ch=1 n=b4 v=63
118894 On ch=1 n=a4 v=0
118962 On ch=1 n=b4 v=0
118972 On ch=1 n=d5 v=62
119108 On ch=1 n=e6 v=94
119116 On ch=1 n=d5 v=0
119124 On ch=1 n=a4 v=62
119154 On ch=1 n=e6 v=0
119246 On ch=1 n=c#5 v=80
119254 On ch=1 n=a4 v=0
119356 On ch=1 n=c#5 v=0
119358 On ch=1 n=e5 v=53
119480 On ch=1 n=f#6 v=97
119492 On ch=1 n=e5 v=0
119494 On ch=1 n=a4 v=60
119520 Par ch=1 c=64 v=63
119530 Par ch=1 c=64 v=127
119590 On ch=1 n=f#6 v=0
119600 On ch=1 n=d5 v=72
119604 On ch=1 n=a4 v=0
119728 On ch=1 n=f#5 v=61
119734 On ch=1 n=d5 v=0
119818 Par ch=1 c=64 v=63
119828 On ch=1 n=f#5 v=0
119834 On ch=1 n=a4 v=66
119838 Par ch=1 c=64 v=0
119956 On ch=1 n=a4 v=0
119966 On ch=1 n=d5 v=55
119982 Par ch=1 c=64 v=63
120050 Par ch=1 c=64 v=127
120068 On ch=1 n=f#5 v=60
120094 On ch=1 n=d5 v=0
120184 On ch=1 n=f#5 v=0
120190 On ch=1 n=a4 v=57
120214 On ch=1 n=f#6 v=91
120242 Par ch=1 c=64 v=63
120254 On ch=1 n=g#6 v=92
120262 On ch=1 n=f#6 v=0
120266 Par ch=1 c=64 v=0
120282 On ch=1 n=a4 v=0
120298 On ch=1 n=g#6 v=0
120328 On ch=1 n=f#6 v=59
120334 On ch=1 n=d5 v=21
120382 On ch=1 n=f#6 v=0
120384 On ch=1 n=e6 v=85
120384 On ch=1 n=f#5 v=49
120400 On ch=1 n=d5 v=0
120440 On ch=1 n=f#5 v=0
120440 On ch=1 n=f#6 v=64
120468 On ch=1 n=e6 v=0
120508 On ch=1 n=g#6 v=89
120530 On ch=1 n=a4 v=46
120538 On ch=1 n=f#6 v=0
120542 Par ch=1 c=64 v=63
120560 Par ch=1 c=64 v=127
120582 On ch=1 n=a6 v=84
120612 On ch=1 n=g#6 v=0
120632 On ch=1 n=a6 v=0
120672 On ch=1 n=a4 v=0
120680 On ch=1 n=f#5 v=76
120776 Par ch=1 c=64 v=63
120790 On ch=1 n=f#5 v=0
120796 On ch=1 n=a5 v=65
120802 Par ch=1 c=64 v=0
120886 On ch=1 n=a5 v=0
120902 On ch=1 n=g#6 v=97
120914 On ch=1 n=a4 v=80
120964 On ch=1 n=g#6 v=0
121040 On ch=1 n=e5 v=71
121042 On ch=1 n=a4 v=0
121148 On ch=1 n=g#5 v=76
121158 On ch=1 n=e5 v=0
121250 On ch=1 n=g#5 v=0
121254 On ch=1 n=f#6 v=98
121272 On ch=1 n=a4 v=65
121308 On ch=1 n=f#6 v=0
121402 On ch=1 n=d5 v=64
121424 On ch=1 n=a4 v=0
121506 On ch=1 n=f#5 v=69
121534 On ch=1 n=d5 v=0
121588 On ch=1 n=f#5 v=0
121612 On ch=1 n=a4 v=58
121618 On ch=1 n=e6 v=83
121752 On ch=1 n=c#5 v=80
121756 On ch=1 n=a4 v=0
121822 Par ch=1 c=64 v=63
121846 Par ch=1 c=64 v=127
121858 On ch=1 n=c#5 v=0
121864 On ch=1 n=e5 v=55
121952 On ch=1 n=e6 v=0
121978 On ch=1 n=a4 v=65
121992 On ch=1 n=e5 v=0
122040 Par ch=1 c=64 v=63
122068 Par ch=1 c=64 v=0
122100 On ch=1 n=a4 v=0
122100 On ch=1 n=c#5 v=67
122198 On ch=1 n=c#5 v=0
122210 On ch=1 n=e5 v=50
122230 Par ch=1 c=64 v=63
122260 Par ch=1 c=64 v=127
122320 On ch=1 n=e5 v=0
122336 On ch=1 n=c#6 v=94
122346 On ch=1 n=a4 v=39
122390 On ch=1 n=d6 v=80
122396 On ch=1 n=c#6 v=0
122466 Par ch=1 c=64 v=63
122468 On ch=1 n=d6 v=0
122468 On ch=1 n=c#6 v=69
122474 On ch=1 n=a4 v=0
122478 On ch=1 n=c#5 v=61
122490 Par ch=1 c=64 v=0
122524 On ch=1 n=b5 v=73
122528 On ch=1 n=c#6 v=0
122580 On ch=1 n=c#6 v=87
122584 On ch=1 n=c#5 v=0
122604 On ch=1 n=b5 v=0
122612 On ch=1 n=e5 v=36
122648 On ch=1 n=d6 v=88
122668 On ch=1 n=c#6 v=0
122672 Par ch=1 c=64 v=63
122688 Par ch=1 c=64 v=127
122740 On ch=1 n=e5 v=0
122740 On ch=1 n=e6 v=86
122750 On ch=1 n=a4 v=50
122784 On ch=1 n=d6 v=0
122852 Par ch=1 c=64 v=63
122866 Par ch=1 c=64 v=0
122932 On ch=1 n=c#5 v=70
122956 Par ch=1 c=64 v=63
122964 Par ch=1 c=64 v=127
123002 On ch=1 n=a4 v=0
123060 On ch=1 n=e5 v=43
123078 On ch=1 n=c#5 v=0
123170 On ch=1 n=c#6 v=91
123184 On ch=1 n=a4 v=43
123202 On ch=1 n=e5 v=0
123224 On ch=1 n=e6 v=0
123260 On ch=1 n=c#6 v=0
123316 On ch=1 n=c#5 v=63
123324 On ch=1 n=a4 v=0
123432 On ch=1 n=c#5 v=0
123438 On ch=1 n=e5 v=48
123484 Par ch=1 c=64 v=63
123492 Par ch=1 c=64 v=0
123532 On ch=1 n=a4 v=85
123544 On ch=1 n=e5 v=0
123654 On ch=1 n=c#5 v=85
123674 Par ch=1 c=64 v=63
123676 Par ch=1 c=64 v=127
123728 On ch=1 n=a4 v=0
123754 On ch=1 n=e5 v=54
123756 On ch=1 n=a5 v=94
123856 On ch=1 n=a5 v=0
123864 On ch=1 n=c#5 v=0
123876 On ch=1 n=e5 v=0
123880 On ch=1 n=e6 v=103
123886 On ch=1 n=b4 v=74
123894 Par ch=1 c=64 v=63
123902 Par ch=1 c=64 v=0
123970 Par ch=1 c=64 v=63
123982 Par ch=1 c=64 v=127
124028 On ch=1 n=d5 v=54
124124 On ch=1 n=e5 v=38
124134 On ch=1 n=b4 v=0
124192 On ch=1 n=d5 v=0
124270 On ch=1 n=d6 v=80
124276 On ch=1 n=b4 v=54
124278 On ch=1 n=e5 v=0
124326 On ch=1 n=e6 v=0
124404 On ch=1 n=b4 v=0
124410 On ch=1 n=d5 v=36
124506 On ch=1 n=e5 v=34
124536 On ch=1 n=d5 v=0
124572 On ch=1 n=d6 v=0
124608 On ch=1 n=b4 v=65
124608 Par ch=1 c=64 v=63
124612 Par ch=1 c=64 v=0
124628 On ch=1 n=e5 v=0
124724 On ch=1 n=d5 v=63
124762 On ch=1 n=b4 v=0
124830 On ch=1 n=e5 v=55
124844 On ch=1 n=d5 v=0
124846 On ch=1 n=b5 v=90
124952 On ch=1 n=e5 v=0
124958 Par ch=1 c=64 v=127
124960 On ch=1 n=a4 v=73
124964 On ch=1 n=e6 v=108
124986 On ch=1 n=b5 v=0
125102 On ch=1 n=c#5 v=75
125114 On ch=1 n=a4 v=0
125226 On ch=1 n=e5 v=56
125238 On ch=1 n=c#5 v=0
125330 On ch=1 n=c#6 v=110
125330 On ch=1 n=a4 v=68
125336 On ch=1 n=e5 v=0
125376 On ch=1 n=e6 v=0
125452 On ch=1 n=c#5 v=73
125504 On ch=1 n=a4 v=0
125542 On ch=1 n=c#5 v=0
125564 On ch=1 n=c#6 v=0
125568 On ch=1 n=e5 v=68
125670 On ch=1 n=f#4 v=80
125688 On ch=1 n=e5 v=0
125694 On ch=1 n=a5 v=103
125712 Par ch=1 c=64 v=63
125722 Par ch=1 c=64 v=0
125796 On ch=1 n=a4 v=65
125836 Par ch=1 c=64 v=63
125840 On ch=1 n=f#4 v=0
125844 Par ch=1 c=64 v=127
125930 On ch=1 n=a5 v=0
125932 On ch=1 n=a4 v=0
125932 On ch=1 n=d#5 v=91
126072 On ch=1 n=d#5 v=0
126144 On ch=1 n=c#6 v=113
126150 On ch=1 n=a5 v=94
126170 On ch=1 n=e5 v=68
126188 On ch=1 n=e4 v=52
126282 Par ch=1 c=64 v=63
126300 Par ch=1 c=64 v=0
126568 Par ch=1 c=64 v=63
126570 Par ch=1 c=64 v=127
126838 Par ch=1 c=64 v=63
126848 Par ch=1 c=64 v=0
127014 On ch=1 n=c#6 v=0
127026 On ch=1 n=b5 v=66
127028 On ch=1 n=g#5 v=71
127052 Par ch=1 c=64 v=63
127062 Par ch=1 c=64 v=127
127064 On ch=1 n=a5 v=0
127120 Par ch=1 c=64 v=63
127126 On ch=1 n=e4 v=0
127138 On ch=1 n=g#5 v=0
127138 Par ch=1 c=64 v=0
127146 On ch=1 n=b5 v=0
127232 On ch=1 n=e5 v=0
127414 On ch=1 n=a4 v=65
127420 On ch=1 n=c#6 v=94
127460 On ch=1 n=c#6 v=0
127520 On ch=1 n=d#5 v=62
127534 On ch=1 n=a4 v=0
127630 On ch=1 n=e5 v=50
127640 On ch=1 n=d#5 v=0
127788 On ch=1 n=c#6 v=97
127808 On ch=1 n=e5 v=0
127810 On ch=1 n=a4 v=38
127820 On ch=1 n=c#6 v=0
127900 On ch=1 n=a4 v=0
127900 On ch=1 n=d#5 v=61
128018 On ch=1 n=e5 v=35
128030 On ch=1 n=d#5 v=0
128074 Par ch=1 c=64 v=63
128128 Par ch=1 c=64 v=127
128144 On ch=1 n=d6 v=96
128146 Par ch=1 c=64 v=63
128150 On ch=1 n=b4 v=63
128156 On ch=1 n=e5 v=0
128174 Par ch=1 c=64 v=0
128210 On ch=1 n=e6 v=68
128212 On ch=1 n=d6 v=0
128246 On ch=1 n=d#5 v=74
128266 On ch=1 n=d6 v=86
128268 On ch=1 n=e6 v=0
128278 On ch=1 n=b4 v=0
128342 On ch=1 n=d6 v=0
128344 On ch=1 n=c#6 v=83
128356 On ch=1 n=e5 v=37
128360 On ch=1 n=d#5 v=0
128408 On ch=1 n=d6 v=68
128428 On ch=1 n=c#6 v=0
128500 On ch=1 n=e6 v=78
128522 On ch=1 n=e5 v=0
128522 On ch=1 n=c#5 v=68
128536 Par ch=1 c=64 v=63
128558 Par ch=1 c=64 v=127
128568 On ch=1 n=d6 v=0
128658 On ch=1 n=d#5 v=63
128668 On ch=1 n=c#5 v=0
128758 On ch=1 n=d#5 v=0
128760 On ch=1 n=e5 v=40
128846 On ch=1 n=e6 v=0
128848 Par ch=1 c=64 v=63
128878 On ch=1 n=c#5 v=82
128880 Par ch=1 c=64 v=0
128904 On ch=1 n=e5 v=0
128976 On ch=1 n=d#5 v=79
128990 On ch=1 n=c#5 v=0
129076 On ch=1 n=e5 v=60
129082 On ch=1 n=d#5 v=0
129214 On ch=1 n=e5 v=0
129218 On ch=1 n=a4 v=67
129230 On ch=1 n=f#6 v=80
129296 On ch=1 n=e6 v=94
129308 On ch=1 n=f#6 v=0
129342 On ch=1 n=d#5 v=67
129348 On ch=1 n=a4 v=0
129380 On ch=1 n=d6 v=63
129388 On ch=1 n=e6 v=0
129452 On ch=1 n=c#6 v=92
129454 On ch=1 n=e5 v=38
129458 On ch=1 n=d#5 v=0
129490 On ch=1 n=d6 v=0
129546 On ch=1 n=c#6 v=0
129548 On ch=1 n=b5 v=89
129558 On ch=1 n=g#4 v=80
129590 On ch=1 n=e5 v=0
129610 On ch=1 n=b5 v=0
129690 On ch=1 n=d#5 v=69
129692 On ch=1 n=g#4 v=0
129806 On ch=1 n=d#5 v=0
129810 On ch=1 n=e5 v=35
129926 On ch=1 n=b5 v=91
129928 On ch=1 n=g#4 v=65
129962 On ch=1 n=b5 v=0
129966 On ch=1 n=e5 v=0
130036 On ch=1 n=d#5 v=56
130062 On ch=1 n=g#4 v=0
130150 On ch=1 n=e5 v=39
130158 On ch=1 n=d#5 v=0
130266 On ch=1 n=a4 v=62
130268 On ch=1 n=c#6 v=99
130286 On ch=1 n=e5 v=0
130336 On ch=1 n=d6 v=80
130338 On ch=1 n=c#6 v=0
130370 On ch=1 n=d#5 v=67
130384 On ch=1 n=a4 v=0
130408 On ch=1 n=c#6 v=67
130412 On ch=1 n=d6 v=0
130472 On ch=1 n=c#6 v=0
130474 On ch=1 n=b5 v=68
130488 On ch=1 n=e5 v=38
130492 On ch=1 n=d#5 v=0
130534 On ch=1 n=b5 v=0
130534 On ch=1 n=c#6 v=80
130618 On ch=1 n=d6 v=82
130634 On ch=1 n=c#6 v=0
130638 On ch=1 n=e5 v=0
130640 On ch=1 n=b4 v=56
130762 On ch=1 n=d#5 v=64
130794 On ch=1 n=b4 v=0
130886 On ch=1 n=d#5 v=0
130890 On ch=1 n=e5 v=31
130978 On ch=1 n=b4 v=60
130988 On ch=1 n=e5 v=0
131028 On ch=1 n=d6 v=0
131090 On ch=1 n=d#5 v=71
131116 On ch=1 n=b4 v=0
131190 On ch=1 n=e5 v=58
131214 On ch=1 n=d#5 v=0
131332 On ch=1 n=g#4 v=82
131336 On ch=1 n=e5 v=0
131346 On ch=1 n=e6 v=84
131398 On ch=1 n=d6 v=86
131432 On ch=1 n=e6 v=0
131456 On ch=1 n=d#5 v=69
131462 On ch=1 n=g#4 v=0
131498 On ch=1 n=c#6 v=82
131502 On ch=1 n=d6 v=0
131562 On ch=1 n=d#5 v=0
131570 On ch=1 n=b5 v=86
131570 On ch=1 n=e5 v=48
131622 On ch=1 n=c#6 v=0
131670 On ch=1 n=a5 v=85
131674 On ch=1 n=b5 v=0
131698 On ch=1 n=e5 v=0
131704 On ch=1 n=f#4 v=77
131734 On ch=1 n=a5 v=0
131808 On ch=1 n=d#5 v=82
131812 On ch=1 n=f#4 v=0
131918 On ch=1 n=d#5 v=0
131926 On ch=1 n=e5 v=44
132028 On ch=1 n=f#4 v=75
132038 On ch=1 n=a5 v=87
132044 On ch=1 n=e5 v=0
132074 On ch=1 n=a5 v=0
132146 On ch=1 n=f#4 v=0
132150 On ch=1 n=d#5 v=75
132264 On ch=1 n=d#5 v=0
132264 On ch=1 n=e5 v=54
132350 On ch=1 n=g#4 v=73
132370 On ch=1 n=b5 v=106
132386 On ch=1 n=e5 v=0
132418 On ch=1 n=c#6 v=96
132432 On ch=1 n=b5 v=0
132476 On ch=1 n=c#6 v=0
132478 On ch=1 n=g#4 v=0
132482 On ch=1 n=d5 v=50
132502 On ch=1 n=b5 v=84
132570 On ch=1 n=b5 v=0
132572 On ch=1 n=a5 v=74
132572 On ch=1 n=e5 v=59
132584 On ch=1 n=d5 v=0
132646 On ch=1 n=b5 v=70
132658 On ch=1 n=a5 v=0
132702 On ch=1 n=e5 v=0
132704 On ch=1 n=a4 v=71
132714 On ch=1 n=c#6 v=107
132736 On ch=1 n=b5 v=0
132770 On ch=1 n=c#6 v=0
132814 On ch=1 n=c#5 v=81
132840 On ch=1 n=a4 v=0
132934 On ch=1 n=e5 v=55
132936 On ch=1 n=c#5 v=0
133050 On ch=1 n=a4 v=61
133050 On ch=1 n=c#6 v=110
133062 On ch=1 n=e5 v=0
133110 On ch=1 n=c#6 v=0
133138 On ch=1 n=c#5 v=80
133198 On ch=1 n=a4 v=0
133236 On ch=1 n=c#5 v=0
133248 On ch=1 n=e5 v=72
133298 Par ch=1 c=64 v=63
133338 On ch=1 n=e5 v=0
133376 On ch=1 n=d4 v=101
133378 Par ch=1 c=64 v=0
133392 On ch=1 n=d6 v=101
133422 On ch=1 n=e6 v=98
133454 On ch=1 n=d6 v=0
133486 On ch=1 n=e6 v=0
133496 On ch=1 n=f#4 v=75
133508 On ch=1 n=d4 v=0
133520 On ch=1 n=d6 v=84
133590 On ch=1 n=f#4 v=0
133590 On ch=1 n=b4 v=53
133594 On ch=1 n=d6 v=0
133598 On ch=1 n=c#6 v=93
133654 On ch=1 n=d6 v=76
133672 On ch=1 n=c#6 v=0
133732 On ch=1 n=b4 v=0
133746 On ch=1 n=e4 v=84
133750 On ch=1 n=c#6 v=100
133764 On ch=1 n=d6 v=0
133806 On ch=1 n=c#6 v=0
133844 On ch=1 n=a4 v=66
133878 On ch=1 n=e4 v=0
133968 On ch=1 n=c#5 v=84
134006 On ch=1 n=a4 v=0
134080 On ch=1 n=e4 v=70
134082 On ch=1 n=c#5 v=0
134096 On ch=1 n=c#6 v=110
134154 On ch=1 n=c#6 v=0
134190 On ch=1 n=a4 v=56
134214 On ch=1 n=e4 v=0
134278 On ch=1 n=c#5 v=94
134302 On ch=1 n=a4 v=0
134380 On ch=1 n=c#5 v=0
134410 On ch=1 n=e4 v=90
134436 On ch=1 n=b5 v=109
134484 On ch=1 n=c#6 v=99
134504 On ch=1 n=b5 v=0
134532 On ch=1 n=g#4 v=80
134546 On ch=1 n=c#6 v=0
134548 On ch=1 n=e4 v=0
134560 On ch=1 n=b5 v=81
134624 On ch=1 n=g#4 v=0
134630 On ch=1 n=d5 v=67
134640 On ch=1 n=a5 v=86
134648 On ch=1 n=b5 v=0
134700 On ch=1 n=d5 v=0
134718 On ch=1 n=b5 v=60
134732 On ch=1 n=a5 v=0
134764 On ch=1 n=b5 v=0
134800 On ch=1 n=a4 v=96
134802 On ch=1 n=e5 v=96
134808 On ch=1 n=b5 v=102
134808 On ch=1 n=d5 v=97
134828 On ch=1 n=g#5 v=91
135182 On ch=1 n=c6 v=101
135202 On ch=1 n=b5 v=0
135412 On ch=1 n=g#5 v=0
135528 On ch=1 n=c6 v=0
135546 Par ch=1 c=64 v=127
135552 On ch=1 n=a5 v=68
135558 On ch=1 n=c#6 v=92
135564 On ch=1 n=c#5 v=85
135596 On ch=1 n=d5 v=0
135640 On ch=1 n=e5 v=0
135644 On ch=1 n=a4 v=0
135646 On ch=1 n=c#5 v=0
135648 On ch=1 n=a5 v=0
135654 On ch=1 n=c#6 v=0
135710 Par ch=1 c=64 v=63
135718 Par ch=1 c=64 v=0
135932 On ch=1 n=a3 v=120
135938 On ch=1 n=c#6 v=115
135950 Par ch=1 c=64 v=127
135998 On ch=1 n=a3 v=0
136016 On ch=1 n=a5 v=73
136042 On ch=1 n=c#6 v=0
136104 On ch=1 n=a5 v=0
136142 On ch=1 n=e5 v=68
136222 On ch=1 n=e5 v=0
136282 On ch=1 n=g#4 v=103
136294 Par ch=1 c=64 v=63
136298 On ch=1 n=c#6 v=112
136300 On ch=1 n=a4 v=96
136304 Par ch=1 c=64 v=0
136352 On ch=1 n=g#4 v=0
136370 On ch=1 n=a4 v=0
136396 On ch=1 n=a5 v=80
136410 On ch=1 n=c#6 v=0
136486 On ch=1 n=a5 v=0
136514 On ch=1 n=e5 v=61
136596 On ch=1 n=e5 v=0
136638 On ch=1 n=a#4 v=87
136648 On ch=1 n=d6 v=103
136650 On ch=1 n=b4 v=102
136688 On ch=1 n=a#4 v=0
136730 On ch=1 n=b4 v=0
136758 On ch=1 n=g#5 v=87
136778 On ch=1 n=d6 v=0
136832 On ch=1 n=g#5 v=0
136864 On ch=1 n=e5 v=86
136946 On ch=1 n=e5 v=0
136986 On ch=1 n=c#4 v=114
137000 On ch=1 n=e6 v=110
137012 Par ch=1 c=64 v=127
137056 On ch=1 n=c#4 v=0
137106 On ch=1 n=c#6 v=97
137142 On ch=1 n=e6 v=0
137204 On ch=1 n=c#6 v=0
137220 On ch=1 n=a5 v=74
137304 On ch=1 n=a5 v=0
137350 On ch=1 n=c5 v=97
137352 On ch=1 n=e6 v=106
137362 On ch=1 n=c#5 v=114
137368 Par ch=1 c=64 v=63
137374 Par ch=1 c=64 v=0
137388 On ch=1 n=c5 v=0
137428 On ch=1 n=c#5 v=0
137446 On ch=1 n=c#6 v=103
137472 On ch=1 n=e6 v=0
137538 On ch=1 n=c#6 v=0
137574 On ch=1 n=a5 v=73
137666 On ch=1 n=a5 v=0
137702 On ch=1 n=c#5 v=87
137710 On ch=1 n=f#6 v=109
137714 On ch=1 n=d5 v=116
137774 On ch=1 n=c#5 v=0
137794 On ch=1 n=d5 v=0
137826 On ch=1 n=b5 v=76
137840 On ch=1 n=f#6 v=0
137934 On ch=1 n=b5 v=0
137940 On ch=1 n=a5 v=68
138018 On ch=1 n=a5 v=0
138072 On ch=1 n=e3 v=113
138084 On ch=1 n=c#6 v=113
138086 Par ch=1 c=64 v=127
138130 On ch=1 n=e3 v=0
138160 On ch=1 n=a5 v=74
138218 On ch=1 n=c#6 v=0
138288 On ch=1 n=e5 v=60
138320 On ch=1 n=a5 v=0
138394 On ch=1 n=e5 v=0
138420 On ch=1 n=d#4 v=91
138440 On ch=1 n=c#6 v=108
138444 On ch=1 n=e4 v=106
138448 Par ch=1 c=64 v=63
138454 Par ch=1 c=64 v=0
138490 On ch=1 n=d#4 v=0
138510 On ch=1 n=e4 v=0
138540 On ch=1 n=a5 v=82
138566 On ch=1 n=c#6 v=0
138648 On ch=1 n=a5 v=0
138668 On ch=1 n=e5 v=58
138768 On ch=1 n=e5 v=0
138802 On ch=1 n=d#4 v=101
138812 On ch=1 n=b5 v=106
138816 On ch=1 n=e4 v=106
138860 On ch=1 n=d#4 v=0
138886 On ch=1 n=e4 v=0
138916 On ch=1 n=g#5 v=98
138954 On ch=1 n=b5 v=0
139030 On ch=1 n=d5 v=76
139032 On ch=1 n=g#5 v=0
139136 On ch=1 n=d5 v=0
139186 On ch=1 n=a2 v=111
139194 On ch=1 n=a5 v=112
139224 Par ch=1 c=64 v=127
139260 On ch=1 n=a2 v=0
139300 On ch=1 n=e5 v=91
139324 On ch=1 n=a5 v=0
139398 On ch=1 n=e5 v=0
139428 On ch=1 n=c#5 v=100
139532 On ch=1 n=c#5 v=0
139576 On ch=1 n=g#3 v=61
139624 On ch=1 n=a3 v=104
139626 On ch=1 n=a4 v=88
139696 On ch=1 n=g#3 v=0
139718 On ch=1 n=a4 v=0
140206 On ch=1 n=a3 v=0
140334 Par ch=1 c=64 v=63
140402 Par ch=1 c=64 v=0
141620 Par ch=1 c=64 v=63
141830 Par ch=1 c=64 v=127
142206 On ch=1 n=a4 v=18
142234 On ch=1 n=c6 v=34
142626 On ch=1 n=b5 v=37
142644 On ch=1 n=e5 v=29
142692 On ch=1 n=c6 v=0
142950 On ch=1 n=a5 v=57
142988 On ch=1 n=b5 v=0
143004 On ch=1 n=c5 v=17
143016 On ch=1 n=e5 v=0
143220 On ch=1 n=b5 v=71
143234 On ch=1 n=e5 v=38
143264 On ch=1 n=a5 v=0
143266 On ch=1 n=a4 v=0
143488 On ch=1 n=c6 v=79
143526 On ch=1 n=a4 v=43
143554 On ch=1 n=b5 v=0
143586 On ch=1 n=e5 v=0
143606 Par ch=1 c=64 v=63
143638 Par ch=1 c=64 v=0
143756 On ch=1 n=d6 v=86
143768 On ch=1 n=e5 v=42
143770 Par ch=1 c=64 v=63
143796 Par ch=1 c=64 v=127
143836 On ch=1 n=c6 v=0
143912 On ch=1 n=a4 v=0
144022 On ch=1 n=e6 v=77
144044 On ch=1 n=a4 v=38
144050 On ch=1 n=c5 v=0
144084 On ch=1 n=d6 v=0
144122 On ch=1 n=e5 v=0
144160 Par ch=1 c=64 v=63
144200 Par ch=1 c=64 v=0
144316 Par ch=1 c=64 v=63
144316 On ch=1 n=d#6 v=81
144318 On ch=1 n=e5 v=28
144346 Par ch=1 c=64 v=127
144406 On ch=1 n=e6 v=0
144596 On ch=1 n=f6 v=65
144642 On ch=1 n=c5 v=14
144656 On ch=1 n=d#6 v=0
144672 On ch=1 n=e5 v=0
144698 Par ch=1 c=64 v=63
144702 On ch=1 n=a4 v=0
144730 Par ch=1 c=64 v=0
144874 Par ch=1 c=64 v=63
144890 On ch=1 n=e6 v=72
144898 On ch=1 n=e5 v=33
144900 Par ch=1 c=64 v=127
144908 On ch=1 n=f6 v=0
145160 Par ch=1 c=64 v=63
145166 On ch=1 n=a4 v=36
145176 On ch=1 n=d6 v=63
145214 On ch=1 n=e5 v=0
145214 Par ch=1 c=64 v=0
145232 On ch=1 n=e6 v=0
145254 On ch=1 n=c5 v=0
145314 Par ch=1 c=64 v=63
145358 Par ch=1 c=64 v=127
145434 On ch=1 n=e5 v=18
145454 On ch=1 n=c6 v=62
145482 Par ch=1 c=64 v=63
145510 On ch=1 n=d6 v=0
145544 On ch=1 n=a4 v=0
145654 Par ch=1 c=64 v=127
145776 On ch=1 n=b5 v=52
145814 On ch=1 n=c6 v=0
145814 On ch=1 n=e4 v=25
145850 On ch=1 n=e5 v=0
145862 Par ch=1 c=64 v=63
145894 Par ch=1 c=64 v=0
145976 Par ch=1 c=64 v=63
146026 Par ch=1 c=64 v=127
146084 On ch=1 n=a5 v=67
146100 On ch=1 n=b5 v=0
146108 On ch=1 n=e5 v=28
146350 On ch=1 n=g#5 v=74
146370 On ch=1 n=a5 v=0
146380 On ch=1 n=b4 v=54
146438 On ch=1 n=e5 v=0
146592 On ch=1 n=a5 v=82
146600 On ch=1 n=e4 v=0
146606 On ch=1 n=g#5 v=0
146612 On ch=1 n=e5 v=42
146848 On ch=1 n=b5 v=76
146850 On ch=1 n=e4 v=55
146864 Par ch=1 c=64 v=63
146898 On ch=1 n=a5 v=0
146906 Par ch=1 c=64 v=0
146916 On ch=1 n=e5 v=0
147008 Par ch=1 c=64 v=63
147048 Par ch=1 c=64 v=127
147104 On ch=1 n=b4 v=0
147110 On ch=1 n=c6 v=92
147124 On ch=1 n=e5 v=47
147170 On ch=1 n=b5 v=0
147230 On ch=1 n=e4 v=0
147374 On ch=1 n=d6 v=84
147380 On ch=1 n=e4 v=59
147410 Par ch=1 c=64 v=63
147442 On ch=1 n=e5 v=0
147442 On ch=1 n=c6 v=0
147454 Par ch=1 c=64 v=0
147554 Par ch=1 c=64 v=63
147598 Par ch=1 c=64 v=127
147638 On ch=1 n=c#6 v=87
147642 On ch=1 n=e5 v=45
147676 On ch=1 n=d6 v=0
147780 Par ch=1 c=64 v=63
147814 Par ch=1 c=64 v=0
147910 On ch=1 n=b4 v=49
147916 On ch=1 n=e6 v=68
147926 Par ch=1 c=64 v=63
147968 Par ch=1 c=64 v=127
147970 On ch=1 n=e4 v=0
147972 On ch=1 n=e5 v=0
147976 On ch=1 n=c#6 v=0
148162 On ch=1 n=d6 v=64
148174 Par ch=1 c=64 v=63
148180 On ch=1 n=e6 v=0
148192 On ch=1 n=e5 v=28
148234 Par ch=1 c=64 v=0
148280 On ch=1 n=b4 v=0
148326 Par ch=1 c=64 v=63
148378 Par ch=1 c=64 v=127
148432 On ch=1 n=c6 v=66
148436 On ch=1 n=e4 v=35
148476 On ch=1 n=d6 v=0
148532 On ch=1 n=e5 v=0
148606 Par ch=1 c=64 v=63
148670 Par ch=1 c=64 v=0
148692 On ch=1 n=b5 v=52
148698 Par ch=1 c=64 v=63
148726 On ch=1 n=e5 v=25
148760 On ch=1 n=c6 v=0
148776 On ch=1 n=e4 v=0
148776 Par ch=1 c=64 v=127
149020 On ch=1 n=a4 v=33
149028 On ch=1 n=a5 v=45
149040 On ch=1 n=b5 v=0
149080 On ch=1 n=e5 v=0
149108 Par ch=1 c=64 v=63
149144 Par ch=1 c=64 v=0
149214 Par ch=1 c=64 v=63
149266 Par ch=1 c=64 v=127
149336 On ch=1 n=e6 v=53
149346 On ch=1 n=e5 v=31
149414 On ch=1 n=a5 v=0
149602 On ch=1 n=d#6 v=78
149614 On ch=1 n=c5 v=39
149620 On ch=1 n=e6 v=0
149626 On ch=1 n=e5 v=0
149760 On ch=1 n=a4 v=0
149828 On ch=1 n=e6 v=83
149844 On ch=1 n=e5 v=44
149860 On ch=1 n=d#6 v=0
149920 On ch=1 n=c5 v=0
150078 On ch=1 n=c6 v=82
150096 On ch=1 n=a4 v=50
150126 On ch=1 n=e5 v=0
150142 On ch=1 n=e6 v=0
150172 Par ch=1 c=64 v=63
150204 Par ch=1 c=64 v=0
150280 Par ch=1 c=64 v=63
150320 Par ch=1 c=64 v=127
150334 On ch=1 n=a5 v=82
150342 On ch=1 n=e5 v=57
150370 On ch=1 n=c6 v=0
150386 On ch=1 n=a4 v=0
150576 On ch=1 n=g#5 v=92
150620 On ch=1 n=b4 v=63
150640 Par ch=1 c=64 v=63
150642 On ch=1 n=a5 v=0
150664 Par ch=1 c=64 v=0
150678 On ch=1 n=e5 v=0
150756 Par ch=1 c=64 v=63
150774 Par ch=1 c=64 v=127
150790 On ch=1 n=g#5 v=0
150872 On ch=1 n=e6 v=96
150876 On ch=1 n=e5 v=59
151136 On ch=1 n=d5 v=66
151144 On ch=1 n=f6 v=96
151202 On ch=1 n=e5 v=0
151204 On ch=1 n=e6 v=0
151274 Par ch=1 c=64 v=63
151310 On ch=1 n=b4 v=0
151324 Par ch=1 c=64 v=0
151390 On ch=1 n=e6 v=90
151392 On ch=1 n=e5 v=57
151442 On ch=1 n=f6 v=0
151654 On ch=1 n=b4 v=61
151656 On ch=1 n=d6 v=94
151718 Par ch=1 c=64 v=63
151740 On ch=1 n=e5 v=0
151740 Par ch=1 c=64 v=127
151762 On ch=1 n=e6 v=0
151872 On ch=1 n=d5 v=0
151896 On ch=1 n=b5 v=85
151918 On ch=1 n=e5 v=44
151952 On ch=1 n=d6 v=0
151984 On ch=1 n=b4 v=0
152080 On ch=1 n=b5 v=0
152154 On ch=1 n=b5 v=88
152182 On ch=1 n=c5 v=58
152210 On ch=1 n=e5 v=0
152240 Par ch=1 c=64 v=63
152316 Par ch=1 c=64 v=0
152408 On ch=1 n=a5 v=84
152412 On ch=1 n=e5 v=50
152468 On ch=1 n=b5 v=0
152656 On ch=1 n=g#5 v=96
152668 On ch=1 n=b4 v=53
152686 On ch=1 n=a5 v=0
152712 On ch=1 n=e5 v=0
152744 On ch=1 n=c5 v=0
152916 On ch=1 n=e5 v=46
152920 On ch=1 n=a5 v=84
152936 On ch=1 n=g#5 v=0
153058 On ch=1 n=b4 v=0
153186 On ch=1 n=b5 v=76
153190 On ch=1 n=a4 v=49
153260 On ch=1 n=e5 v=0
153286 On ch=1 n=a5 v=0
153434 On ch=1 n=c6 v=86
153464 Par ch=1 c=64 v=63
153472 Par ch=1 c=64 v=127
153494 On ch=1 n=a4 v=0
153498 On ch=1 n=e5 v=29
153500 On ch=1 n=b5 v=0
153700 On ch=1 n=c6 v=0
153754 On ch=1 n=c6 v=90
153766 On ch=1 n=a5 v=55
153766 On ch=1 n=e4 v=48
153784 On ch=1 n=e5 v=0
153812 Par ch=1 c=64 v=63
153826 Par ch=1 c=64 v=0
153964 Par ch=1 c=64 v=63
153976 Par ch=1 c=64 v=127
154098 On ch=1 n=e5 v=27
154132 On ch=1 n=e4 v=0
154348 On ch=1 n=d#5 v=57
154384 On ch=1 n=e5 v=0
154626 On ch=1 n=d#5 v=0
154642 On ch=1 n=e5 v=44
154654 On ch=1 n=c6 v=0
154694 On ch=1 n=a5 v=0
154968 On ch=1 n=e5 v=0
154980 On ch=1 n=g#5 v=48
154980 On ch=1 n=b5 v=39
154982 On ch=1 n=e4 v=42
155000 Par ch=1 c=64 v=63
155030 Par ch=1 c=64 v=0
155122 Par ch=1 c=64 v=63
155142 Par ch=1 c=64 v=127
155234 On ch=1 n=g#5 v=0
155260 On ch=1 n=b5 v=0
155264 On ch=1 n=e4 v=0
155298 On ch=1 n=e5 v=35
155646 On ch=1 n=e5 v=0
155698 On ch=1 n=a4 v=31
155706 Par ch=1 c=64 v=63
155718 On ch=1 n=c7 v=54
155732 On ch=1 n=c6 v=29
155734 Par ch=1 c=64 v=0
155802 Par ch=1 c=64 v=63
155828 Par ch=1 c=64 v=127
155914 On ch=1 n=c7 v=0
155918 On ch=1 n=c6 v=0
156046 On ch=1 n=a4 v=0
156050 On ch=1 n=b6 v=77
156062 On ch=1 n=b5 v=51
156072 On ch=1 n=e5 v=26
156194 On ch=1 n=b5 v=0
156194 On ch=1 n=b6 v=0
156324 On ch=1 n=c5 v=50
156330 On ch=1 n=a6 v=90
156338 On ch=1 n=e5 v=0
156340 On ch=1 n=a5 v=71
156428 On ch=1 n=a5 v=0
156482 On ch=1 n=a6 v=0
156578 On ch=1 n=c5 v=0
156590 On ch=1 n=e5 v=43
156596 On ch=1 n=b6 v=92
156598 On ch=1 n=b5 v=83
156696 On ch=1 n=b5 v=0
156752 On ch=1 n=b6 v=0
156836 On ch=1 n=a4 v=66
156846 On ch=1 n=c7 v=99
156850 On ch=1 n=c6 v=84
156868 On ch=1 n=e5 v=0
156926 Par ch=1 c=64 v=63
156980 On ch=1 n=c6 v=0
156994 Par ch=1 c=64 v=127
157020 On ch=1 n=c7 v=0
157090 On ch=1 n=d7 v=102
157094 On ch=1 n=e5 v=59
157096 On ch=1 n=d6 v=81
157110 On ch=1 n=a4 v=0
157224 On ch=1 n=d6 v=0
157250 On ch=1 n=d7 v=0
157326 On ch=1 n=e7 v=102
157328 On ch=1 n=a4 v=68
157342 On ch=1 n=e5 v=0
157342 On ch=1 n=e6 v=65
157358 Par ch=1 c=64 v=63
157430 Par ch=1 c=64 v=127
157474 On ch=1 n=e6 v=0
157480 On ch=1 n=e7 v=0
157578 On ch=1 n=e5 v=41
157580 On ch=1 n=a4 v=0
157596 On ch=1 n=d#7 v=105
157602 On ch=1 n=d#6 v=95
157684 On ch=1 n=d#6 v=0
157696 On ch=1 n=d#7 v=0
157854 On ch=1 n=e5 v=0
157864 On ch=1 n=c5 v=56
157866 On ch=1 n=f7 v=91
157884 On ch=1 n=f6 v=52
157988 On ch=1 n=f7 v=0
158004 On ch=1 n=f6 v=0
158094 On ch=1 n=c5 v=0
158096 On ch=1 n=e5 v=45
158134 On ch=1 n=e7 v=83
158136 On ch=1 n=e6 v=72
158168 Par ch=1 c=64 v=63
158208 Par ch=1 c=64 v=0
158242 Par ch=1 c=64 v=63
158272 Par ch=1 c=64 v=127
158298 On ch=1 n=e7 v=0
158322 On ch=1 n=e6 v=0
158366 On ch=1 n=a4 v=33
158400 On ch=1 n=e5 v=0
158416 On ch=1 n=d7 v=84
158428 On ch=1 n=d6 v=44
158530 On ch=1 n=d7 v=0
158556 On ch=1 n=d6 v=0
158632 On ch=1 n=a4 v=0
158662 On ch=1 n=c7 v=79
158662 On ch=1 n=c6 v=79
158694 On ch=1 n=e5 v=12
158814 On ch=1 n=c6 v=0
158814 On ch=1 n=c7 v=0
158960 On ch=1 n=e5 v=0
158976 On ch=1 n=e4 v=43
158984 On ch=1 n=b6 v=76
159010 On ch=1 n=b5 v=20
159034 Par ch=1 c=64 v=63
159064 Par ch=1 c=64 v=0
159124 Par ch=1 c=64 v=63
159148 Par ch=1 c=64 v=127
159170 On ch=1 n=b6 v=0
159204 On ch=1 n=b5 v=0
159274 On ch=1 n=e5 v=41
159284 On ch=1 n=e4 v=0
159304 On ch=1 n=a6 v=76
159310 On ch=1 n=a5 v=42
159396 On ch=1 n=a6 v=0
159406 On ch=1 n=a5 v=0
159558 On ch=1 n=g#5 v=87
159560 On ch=1 n=g#6 v=86
159562 On ch=1 n=e5 v=0
159576 On ch=1 n=b4 v=30
159642 On ch=1 n=g#5 v=0
159690 On ch=1 n=g#6 v=0
159784 On ch=1 n=a6 v=92
159798 On ch=1 n=a5 v=57
159802 On ch=1 n=e5 v=47
159822 On ch=1 n=b4 v=0
159880 On ch=1 n=a5 v=0
159920 On ch=1 n=a6 v=0
160034 On ch=1 n=b5 v=74
160036 On ch=1 n=b6 v=93
160036 On ch=1 n=e4 v=57
160052 On ch=1 n=e5 v=0
160112 On ch=1 n=b5 v=0
160156 On ch=1 n=b6 v=0
160254 On ch=1 n=e4 v=0
160276 On ch=1 n=c7 v=100
160280 On ch=1 n=e5 v=73
160280 On ch=1 n=c6 v=89
160356 On ch=1 n=c6 v=0
160388 On ch=1 n=c7 v=0
160514 On ch=1 n=e4 v=66
160514 On ch=1 n=d7 v=109
160522 On ch=1 n=d6 v=80
160536 On ch=1 n=e5 v=0
160546 Par ch=1 c=64 v=63
160572 Par ch=1 c=64 v=0
160620 Par ch=1 c=64 v=63
160646 Par ch=1 c=64 v=127
160672 On ch=1 n=d7 v=0
160682 On ch=1 n=d6 v=0
160770 On ch=1 n=e4 v=0
160770 On ch=1 n=e5 v=46
160776 On ch=1 n=c#7 v=105
160780 On ch=1 n=c#6 v=97
160858 On ch=1 n=c#6 v=0
160886 On ch=1 n=c#7 v=0
161040 On ch=1 n=b4 v=61
161042 On ch=1 n=e7 v=82
161052 On ch=1 n=e5 v=0
161058 On ch=1 n=e6 v=59
161176 On ch=1 n=e7 v=0
161184 On ch=1 n=e6 v=0
161280 On ch=1 n=e5 v=50
161290 On ch=1 n=d7 v=87
161298 On ch=1 n=d6 v=63
161300 Par ch=1 c=64 v=63
161332 On ch=1 n=b4 v=0
161372 Par ch=1 c=64 v=127
161448 On ch=1 n=d7 v=0
161470 On ch=1 n=d6 v=0
161544 On ch=1 n=e4 v=36
161566 On ch=1 n=c7 v=89
161578 On ch=1 n=e5 v=0
161588 On ch=1 n=c6 v=33
161670 On ch=1 n=c7 v=0
161696 On ch=1 n=c6 v=0
161742 On ch=1 n=e4 v=0
161806 On ch=1 n=b6 v=83
161818 On ch=1 n=b5 v=48
161820 On ch=1 n=e5 v=25
161930 On ch=1 n=b6 v=0
161972 On ch=1 n=b5 v=0
162100 On ch=1 n=a4 v=44
162106 On ch=1 n=e5 v=0
162110 Par ch=1 c=64 v=63
162124 Par ch=1 c=64 v=0
162126 On ch=1 n=a6 v=77
162126 On ch=1 n=a5 v=61
162168 Par ch=1 c=64 v=63
162190 Par ch=1 c=64 v=127
162244 On ch=1 n=a6 v=0
162250 On ch=1 n=a5 v=0
162388 On ch=1 n=e5 v=33
162390 On ch=1 n=g#6 v=84
162396 On ch=1 n=g#5 v=75
162436 On ch=1 n=a4 v=0
162456 On ch=1 n=g#5 v=0
162526 On ch=1 n=g#6 v=0
162620 On ch=1 n=e5 v=0
162624 On ch=1 n=c5 v=83
162630 On ch=1 n=a6 v=97
162630 On ch=1 n=a5 v=97
162718 On ch=1 n=a5 v=0
162718 On ch=1 n=a6 v=0
162858 On ch=1 n=c7 v=100
162862 On ch=1 n=c6 v=81
162878 On ch=1 n=c5 v=0
162880 On ch=1 n=e5 v=57
162972 On ch=1 n=c7 v=0
162978 On ch=1 n=c6 v=0
163108 On ch=1 n=g#4 v=98
163122 On ch=1 n=b6 v=97
163126 Par ch=1 c=64 v=63
163126 On ch=1 n=b5 v=92
163180 On ch=1 n=e5 v=0
163186 Par ch=1 c=64 v=127
163220 On ch=1 n=b5 v=0
163244 On ch=1 n=b6 v=0
163360 On ch=1 n=d7 v=103
163364 On ch=1 n=e5 v=78
163370 On ch=1 n=d6 v=76
163456 On ch=1 n=d7 v=0
163466 On ch=1 n=d6 v=0
163486 On ch=1 n=g#4 v=0
163616 On ch=1 n=a4 v=87
163624 Par ch=1 c=64 v=63
163624 On ch=1 n=c7 v=101
163634 Par ch=1 c=64 v=0
163648 On ch=1 n=c6 v=43
163674 On ch=1 n=e5 v=0
163678 Par ch=1 c=64 v=63
163692 Par ch=1 c=64 v=127
163748 On ch=1 n=c7 v=0
163756 On ch=1 n=c6 v=0
163862 On ch=1 n=e5 v=65
163876 On ch=1 n=b5 v=92
163878 On ch=1 n=b6 v=82
163910 On ch=1 n=a4 v=0
163910 On ch=1 n=a6 v=40
163930 On ch=1 n=b5 v=0
163942 On ch=1 n=a6 v=0
163970 On ch=1 n=b6 v=0
164122 On ch=1 n=c5 v=101
164128 On ch=1 n=c7 v=97
164132 On ch=1 n=e5 v=0
164136 On ch=1 n=c6 v=67
164182 On ch=1 n=c6 v=0
164238 On ch=1 n=c7 v=0
164372 On ch=1 n=e7 v=97
164378 On ch=1 n=e5 v=86
164386 On ch=1 n=e6 v=49
164426 On ch=1 n=c5 v=0
164490 On ch=1 n=e6 v=0
164494 On ch=1 n=e7 v=0
164630 Par ch=1 c=64 v=63
164636 On ch=1 n=f4 v=92
164640 On ch=1 n=d7 v=103
164644 Par ch=1 c=64 v=0
164650 On ch=1 n=d6 v=80
164676 On ch=1 n=e5 v=0
164690 Par ch=1 c=64 v=63
164706 Par ch=1 c=64 v=127
164748 On ch=1 n=d6 v=0
164802 On ch=1 n=d7 v=0
164908 On ch=1 n=f7 v=101
164912 On ch=1 n=d5 v=77
164914 On ch=1 n=f6 v=85
164934 On ch=1 n=f4 v=0
165030 On ch=1 n=f7 v=0
165034 On ch=1 n=f6 v=0
165200 Par ch=1 c=64 v=63
165206 On ch=1 n=e4 v=71
165208 Par ch=1 c=64 v=0
165214 On ch=1 n=e7 v=97
165226 On ch=1 n=e6 v=63
165266 Par ch=1 c=64 v=63
165268 On ch=1 n=d5 v=0
165278 Par ch=1 c=64 v=127
165368 On ch=1 n=e7 v=0
165388 On ch=1 n=e6 v=0
165500 On ch=1 n=c5 v=55
165504 On ch=1 n=e4 v=0
165504 On ch=1 n=d#7 v=88
165508 On ch=1 n=d#6 v=80
165616 On ch=1 n=d#6 v=0
165622 On ch=1 n=d#7 v=0
165746 On ch=1 n=c5 v=0
165782 On ch=1 n=a4 v=48
165784 On ch=1 n=e7 v=84
165792 On ch=1 n=e6 v=71
165854 On ch=1 n=e7 v=0
165882 On ch=1 n=e6 v=0
166046 On ch=1 n=a4 v=0
166094 On ch=1 n=c5 v=36
166110 On ch=1 n=e6 v=76
166110 On ch=1 n=e5 v=76
166236 On ch=1 n=e5 v=0
166236 On ch=1 n=e6 v=0
166340 On ch=1 n=c5 v=0
166362 On ch=1 n=e4 v=61
166414 On ch=1 n=f#6 v=77
166424 On ch=1 n=f#5 v=56
166484 Par ch=1 c=64 v=63
166502 Par ch=1 c=64 v=0
166564 Par ch=1 c=64 v=63
166588 On ch=1 n=f#5 v=0
166590 Par ch=1 c=64 v=127
166622 On ch=1 n=f#6 v=0
166710 On ch=1 n=b4 v=60
166712 On ch=1 n=e4 v=0
166728 On ch=1 n=g#5 v=78
166728 On ch=1 n=g#6 v=85
166836 On ch=1 n=g#5 v=0
166858 On ch=1 n=g#6 v=0
166878 On ch=1 n=b4 v=0
167060 On ch=1 n=a6 v=71
167062 On ch=1 n=a3 v=50
167068 On ch=1 n=a5 v=49
167186 Par ch=1 c=64 v=63
167224 Par ch=1 c=64 v=0
167324 On ch=1 n=a3 v=0
167372 On ch=1 n=c4 v=44
167434 On ch=1 n=c4 v=0
167690 On ch=1 n=e4 v=44
167762 On ch=1 n=e4 v=0
168026 On ch=1 n=a4 v=39
168164 On ch=1 n=a4 v=0
168456 On ch=1 n=a3 v=19
168700 Par ch=1 c=64 v=63
168710 Par ch=1 c=64 v=127
168852 On ch=1 n=a3 v=0
168912 On ch=1 n=a6 v=0
168916 On ch=1 n=a5 v=0
169204 Par ch=1 c=64 v=63
169342 Par ch=1 c=64 v=0
169506 Par ch=1 c=64 v=63
169574 On ch=1 n=a5 v=57
169578 On ch=1 n=a4 v=29
169596 On ch=1 n=c5 v=41
169630 Par ch=1 c=64 v=127
169948 On ch=1 n=g#5 v=73
169984 On ch=1 n=a5 v=0
170222 On ch=1 n=a5 v=98
170236 On ch=1 n=g#5 v=0
170518 On ch=1 n=a6 v=99
170530 On ch=1 n=a5 v=0
170792 Par ch=1 c=64 v=63
170794 On ch=1 n=g#6 v=95
170818 On ch=1 n=c#5 v=76
170852 Par ch=1 c=64 v=0
170854 On ch=1 n=a6 v=0
170906 On ch=1 n=c5 v=0
170954 Par ch=1 c=64 v=63
170990 Par ch=1 c=64 v=127
171062 On ch=1 n=g6 v=97
171138 On ch=1 n=g#6 v=0
171204 On ch=1 n=a4 v=0
171252 On ch=1 n=g6 v=0
171342 On ch=1 n=g6 v=88
171350 On ch=1 n=d5 v=44
171382 On ch=1 n=a4 v=29
171430 On ch=1 n=c#5 v=0
171546 Par ch=1 c=64 v=63
171610 On ch=1 n=f6 v=76
171630 Par ch=1 c=64 v=0
171650 On ch=1 n=g6 v=0
171868 On ch=1 n=e6 v=67
171962 On ch=1 n=f6 v=0
172104 On ch=1 n=f6 v=76
172158 On ch=1 n=e6 v=0
172294 Par ch=1 c=64 v=63
172338 Par ch=1 c=64 v=127
172354 On ch=1 n=e6 v=86
172458 On ch=1 n=f6 v=0
172612 On ch=1 n=f6 v=102
172620 On ch=1 n=a4 v=0
172674 On ch=1 n=e6 v=0
172906 On ch=1 n=a6 v=78
172908 On ch=1 n=f5 v=60
172914 On ch=1 n=a4 v=43
172986 Par ch=1 c=64 v=63
172994 On ch=1 n=f6 v=0
173014 On ch=1 n=d5 v=0
173026 Par ch=1 c=64 v=0
173158 Par ch=1 c=64 v=63
173168 On ch=1 n=e5 v=71
173170 On ch=1 n=g#6 v=96
173190 Par ch=1 c=64 v=127
173224 On ch=1 n=a6 v=0
173254 On ch=1 n=f5 v=0
173414 On ch=1 n=f5 v=68
173420 On ch=1 n=a6 v=91
173438 Par ch=1 c=64 v=63
173490 Par ch=1 c=64 v=0
173504 On ch=1 n=g#6 v=0
173504 On ch=1 n=e5 v=0
173670 Par ch=1 c=64 v=63
173672 On ch=1 n=g#6 v=96
173686 On ch=1 n=e5 v=78
173704 Par ch=1 c=64 v=127
173728 On ch=1 n=a6 v=0
173764 On ch=1 n=f5 v=0
173898 Par ch=1 c=64 v=63
173920 On ch=1 n=a6 v=82
173944 Par ch=1 c=64 v=0
173946 On ch=1 n=f5 v=77
173980 On ch=1 n=g#6 v=0
173984 On ch=1 n=e5 v=0
174146 Par ch=1 c=64 v=63
174172 Par ch=1 c=64 v=127
174198 On ch=1 n=f6 v=81
174206 On ch=1 n=d5 v=71
174246 On ch=1 n=f5 v=0
174254 On ch=1 n=a6 v=0
174324 On ch=1 n=a4 v=0
174386 On ch=1 n=d5 v=0
174386 On ch=1 n=f6 v=0
174456 On ch=1 n=f6 v=87
174464 On ch=1 n=d5 v=44
174466 On ch=1 n=a4 v=41
174586 Par ch=1 c=64 v=63
174686 Par ch=1 c=64 v=0
174716 On ch=1 n=e6 v=78
174734 On ch=1 n=c5 v=40
174762 On ch=1 n=d5 v=0
174768 On ch=1 n=f6 v=0
174974 On ch=1 n=d#6 v=63
174990 On ch=1 n=b4 v=41
175054 On ch=1 n=c5 v=0
175056 On ch=1 n=e6 v=0
175164 Par ch=1 c=64 v=63
175242 On ch=1 n=e6 v=60
175258 On ch=1 n=d#6 v=0
175266 On ch=1 n=c5 v=43
175280 On ch=1 n=b4 v=0
175506 On ch=1 n=d#6 v=67
175532 Par ch=1 c=64 v=0
175548 On ch=1 n=b4 v=32
175582 On ch=1 n=e6 v=0
175628 On ch=1 n=c5 v=0
175712 Par ch=1 c=64 v=63
175756 Par ch=1 c=64 v=127
175790 On ch=1 n=c5 v=37
175794 On ch=1 n=e6 v=60
175800 On ch=1 n=d#6 v=0
175836 On ch=1 n=b4 v=0
175898 On ch=1 n=a4 v=0
175982 On ch=1 n=e6 v=0
176024 On ch=1 n=c5 v=0
176144 On ch=1 n=e6 v=72
176154 On ch=1 n=c5 v=63
176172 On ch=1 n=a4 v=36
176200 Par ch=1 c=64 v=63
176250 Par ch=1 c=64 v=0
176422 On ch=1 n=d6 v=72
176442 On ch=1 n=d5 v=71
176464 Par ch=1 c=64 v=63
176484 On ch=1 n=e6 v=0
176488 On ch=1 n=c5 v=0
176530 Par ch=1 c=64 v=127
176694 On ch=1 n=e5 v=57
176698 On ch=1 n=c6 v=79
176764 On ch=1 n=d5 v=0
176772 On ch=1 n=d6 v=0
176776 Par ch=1 c=64 v=63
176842 Par ch=1 c=64 v=0
176956 On ch=1 n=d5 v=50
176960 On ch=1 n=b5 v=72
176996 On ch=1 n=e5 v=0
177002 On ch=1 n=c6 v=0
177192 Par ch=1 c=64 v=63
177224 On ch=1 n=c5 v=44
177226 On ch=1 n=b5 v=0
177242 On ch=1 n=a5 v=65
177270 On ch=1 n=d5 v=0
177300 Par ch=1 c=64 v=127
177352 Par ch=1 c=64 v=63
177406 Par ch=1 c=64 v=0
177490 Par ch=1 c=64 v=63
177526 On ch=1 n=c5 v=0
177538 On ch=1 n=e6 v=70
177556 On ch=1 n=a5 v=0
177558 Par ch=1 c=64 v=127
177560 On ch=1 n=a4 v=0
177838 Par ch=1 c=64 v=63
177862 On ch=1 n=g#4 v=60
177866 On ch=1 n=f6 v=76
177880 Par ch=1 c=64 v=0
177882 On ch=1 n=b4 v=29
177902 On ch=1 n=e6 v=0
177982 Par ch=1 c=64 v=63
178024 Par ch=1 c=64 v=127
178102 On ch=1 n=g#4 v=0
178140 On ch=1 n=d6 v=76
178146 On ch=1 n=c5 v=71
178162 On ch=1 n=a4 v=44
178176 On ch=1 n=b4 v=0
178200 On ch=1 n=f6 v=0
178366 On ch=1 n=a4 v=0
178392 On ch=1 n=b4 v=84
178408 On ch=1 n=d5 v=78
178416 On ch=1 n=b5 v=84
178444 On ch=1 n=d6 v=0
178448 On ch=1 n=c5 v=0
178556 On ch=1 n=b4 v=0
178662 On ch=1 n=a5 v=86
178664 On ch=1 n=c5 v=82
178676 On ch=1 n=e5 v=71
178690 On ch=1 n=b5 v=0
178712 On ch=1 n=d5 v=0
178754 Par ch=1 c=64 v=63
178812 Par ch=1 c=64 v=0
178962 On ch=1 n=c5 v=0
178968 On ch=1 n=f5 v=81
178970 On ch=1 n=g#5 v=85
178980 On ch=1 n=d5 v=63
179012 On ch=1 n=a5 v=0
179052 On ch=1 n=e5 v=0
179260 On ch=1 n=b5 v=79
179296 On ch=1 n=g#5 v=0
179344 Par ch=1 c=64 v=63
179364 Par ch=1 c=64 v=127
179500 On ch=1 n=b5 v=0
179582 On ch=1 n=d5 v=0
179592 On ch=1 n=b5 v=80
179596 On ch=1 n=e5 v=54
179606 On ch=1 n=c5 v=56
179610 Par ch=1 c=64 v=63
179612 On ch=1 n=f5 v=0
179672 Par ch=1 c=64 v=0
179818 Par ch=1 c=64 v=63
179844 Par ch=1 c=64 v=127
179894 On ch=1 n=a5 v=63
179912 On ch=1 n=c5 v=0
179914 On ch=1 n=b5 v=0
180012 On ch=1 n=e5 v=0
180134 On ch=1 n=a5 v=0
180198 On ch=1 n=c6 v=94
180202 On ch=1 n=g#4 v=85
180204 On ch=1 n=e5 v=76
180284 Par ch=1 c=64 v=63
180318 Par ch=1 c=64 v=0
180452 Par ch=1 c=64 v=63
180474 Par ch=1 c=64 v=127
180492 On ch=1 n=b5 v=89
180588 On ch=1 n=c6 v=0
180650 On ch=1 n=e5 v=0
180716 On ch=1 n=g#4 v=0
180766 On ch=1 n=b5 v=0
180840 On ch=1 n=d6 v=89
180842 On ch=1 n=e5 v=86
180850 On ch=1 n=a4 v=71
180954 Par ch=1 c=64 v=63
180982 Par ch=1 c=64 v=0
181120 Par ch=1 c=64 v=63
181136 Par ch=1 c=64 v=127
181212 On ch=1 n=c6 v=96
181240 On ch=1 n=e5 v=0
181276 On ch=1 n=d6 v=0
181294 On ch=1 n=a4 v=0
181394 On ch=1 n=c6 v=0
181612 On ch=1 n=b5 v=81
181694 On ch=1 n=c6 v=76
181720 On ch=1 n=b5 v=0
181734 On ch=1 n=d#4 v=49
181788 On ch=1 n=d6 v=84
181812 On ch=1 n=c6 v=0
181910 On ch=1 n=c6 v=91
181914 On ch=1 n=a5 v=62
181944 Par ch=1 c=64 v=63
181958 On ch=1 n=d6 v=0
182004 Par ch=1 c=64 v=0
182770 Par ch=1 c=64 v=63
182786 Par ch=1 c=64 v=127
182982 On ch=1 n=c6 v=0
183028 On ch=1 n=d#4 v=0
183036 On ch=1 n=a5 v=0
183672 On ch=1 n=g#5 v=41
183682 On ch=1 n=b5 v=30
183688 On ch=1 n=e4 v=37
183762 Par ch=1 c=64 v=63
183796 Par ch=1 c=64 v=0
183946 Par ch=1 c=64 v=63
183974 Par ch=1 c=64 v=127
184134 On ch=1 n=g#5 v=0
184138 On ch=1 n=e4 v=0
184180 On ch=1 n=b5 v=0
184732 Par ch=1 c=64 v=63
184890 On ch=1 n=c6 v=41
184906 On ch=1 n=a4 v=22
185036 Par ch=1 c=64 v=0
185180 Par ch=1 c=64 v=63
185266 Par ch=1 c=64 v=127
185288 On ch=1 n=e5 v=25
185300 On ch=1 n=b5 v=52
185348 On ch=1 n=c6 v=0
185572 On ch=1 n=a5 v=57
185574 On ch=1 n=b5 v=0
185594 On ch=1 n=e5 v=0
185610 On ch=1 n=c5 v=18
185694 Par ch=1 c=64 v=63
185842 On ch=1 n=b5 v=64
185846 On ch=1 n=a4 v=0
185846 Par ch=1 c=64 v=0
185852 On ch=1 n=e5 v=35
185874 On ch=1 n=a5 v=0
185926 Par ch=1 c=64 v=63
186074 Par ch=1 c=64 v=0
186110 On ch=1 n=c6 v=71
186118 On ch=1 n=a4 v=36
186156 On ch=1 n=b5 v=0
186164 On ch=1 n=e5 v=0
186186 On ch=1 n=c5 v=0
186376 On ch=1 n=d6 v=80
186382 On ch=1 n=e5 v=37
186412 On ch=1 n=a4 v=0
186452 On ch=1 n=c6 v=0
186616 Par ch=1 c=64 v=63
186624 On ch=1 n=a4 v=41
186650 On ch=1 n=e6 v=68
186688 On ch=1 n=e5 v=0
186708 On ch=1 n=d6 v=0
186728 Par ch=1 c=64 v=127
186896 On ch=1 n=d#6 v=80
186910 On ch=1 n=e5 v=31
186934 Par ch=1 c=64 v=63
186948 On ch=1 n=e6 v=0
187008 Par ch=1 c=64 v=0
187156 On ch=1 n=c5 v=43
187160 On ch=1 n=e5 v=0
187164 On ch=1 n=a4 v=0
187184 On ch=1 n=f6 v=66
187232 On ch=1 n=d#6 v=0
187424 On ch=1 n=e5 v=31
187432 On ch=1 n=c5 v=0
187438 On ch=1 n=e6 v=61
187468 On ch=1 n=f6 v=0
187658 On ch=1 n=a4 v=41
187696 On ch=1 n=d6 v=55
187706 On ch=1 n=e5 v=0
187774 On ch=1 n=e6 v=0
187936 On ch=1 n=a4 v=0
187942 Par ch=1 c=64 v=63
187952 On ch=1 n=e5 v=19
187956 On ch=1 n=c6 v=59
188010 On ch=1 n=d6 v=0
188232 On ch=1 n=b5 v=61
188250 On ch=1 n=e5 v=0
188254 On ch=1 n=c6 v=0
188310 On ch=1 n=e4 v=5
188342 Par ch=1 c=64 v=0
188442 Par ch=1 c=64 v=63
188490 On ch=1 n=e5 v=22
188490 On ch=1 n=a5 v=71
188510 Par ch=1 c=64 v=127
188522 On ch=1 n=b5 v=0
188738 On ch=1 n=e4 v=0
188766 On ch=1 n=b4 v=57
188776 On ch=1 n=g#5 v=70
188802 On ch=1 n=a5 v=0
188842 On ch=1 n=e5 v=0
188884 Par ch=1 c=64 v=63
189006 Par ch=1 c=64 v=0
189018 On ch=1 n=a5 v=71
189032 On ch=1 n=g#5 v=0
189038 On ch=1 n=e5 v=51
189120 On ch=1 n=b4 v=0
189238 Par ch=1 c=64 v=63
189270 On ch=1 n=e4 v=50
189282 On ch=1 n=b5 v=68
189334 On ch=1 n=a5 v=0
189348 On ch=1 n=e5 v=0
189522 On ch=1 n=c6 v=84
189536 On ch=1 n=e5 v=45
189550 Par ch=1 c=64 v=127
189572 On ch=1 n=e4 v=0
189584 On ch=1 n=b5 v=0
189592 Par ch=1 c=64 v=63
189784 On ch=1 n=d6 v=65
189786 On ch=1 n=e4 v=48
189832 On ch=1 n=c6 v=0
189836 On ch=1 n=e5 v=0
189848 Par ch=1 c=64 v=0
190032 On ch=1 n=c#6 v=81
190044 On ch=1 n=e4 v=0
190044 On ch=1 n=e5 v=39
190046 On ch=1 n=d6 v=0
190270 Par ch=1 c=64 v=63
190296 On ch=1 n=b4 v=46
190300 On ch=1 n=e6 v=59
190314 On ch=1 n=e5 v=0
190328 On ch=1 n=c#6 v=0
190554 On ch=1 n=d6 v=60
190558 On ch=1 n=b4 v=0
190562 On ch=1 n=e5 v=31
190578 On ch=1 n=e6 v=0
190796 On ch=1 n=e4 v=33
190822 On ch=1 n=c6 v=60
190852 On ch=1 n=e5 v=0
190864 On ch=1 n=d6 v=0
191034 On ch=1 n=e4 v=0
191050 On ch=1 n=e5 v=33
191086 On ch=1 n=b5 v=45
191132 On ch=1 n=c6 v=0
191356 On ch=1 n=a4 v=28
191372 On ch=1 n=a5 v=40
191382 On ch=1 n=b5 v=0
191432 On ch=1 n=e5 v=0
191528 Par ch=1 c=64 v=127
191652 On ch=1 n=g#5 v=67
191666 On ch=1 n=e5 v=31
191692 On ch=1 n=a5 v=0
191912 On ch=1 n=a5 v=64
191920 On ch=1 n=g#5 v=0
191924 On ch=1 n=e5 v=0
191938 On ch=1 n=c5 v=48
191988 On ch=1 n=a4 v=0
192100 Par ch=1 c=64 v=63
192134 Par ch=1 c=64 v=0
192172 On ch=1 n=c6 v=71
192180 On ch=1 n=e5 v=52
192198 On ch=1 n=c5 v=0
192232 On ch=1 n=a5 v=0
192406 On ch=1 n=b5 v=79
192424 On ch=1 n=g#4 v=72
192484 On ch=1 n=e5 v=0
192502 On ch=1 n=c6 v=0
192672 On ch=1 n=e5 v=59
192676 On ch=1 n=d6 v=80
192716 On ch=1 n=b5 v=0
192720 On ch=1 n=g#4 v=0
192926 On ch=1 n=a4 v=61
192926 On ch=1 n=c6 v=88
192968 On ch=1 n=e5 v=0
192982 Par ch=1 c=64 v=63
192998 Par ch=1 c=64 v=127
193018 On ch=1 n=d6 v=0
193170 On ch=1 n=b5 v=86
193172 On ch=1 n=e5 v=50
193194 On ch=1 n=a4 v=0
193286 On ch=1 n=c6 v=0
193432 On ch=1 n=c5 v=80
193438 On ch=1 n=c6 v=93
193462 On ch=1 n=e5 v=0
193496 On ch=1 n=b5 v=0
193560 Par ch=1 c=64 v=63
193610 Par ch=1 c=64 v=0
193662 On ch=1 n=e5 v=71
193666 On ch=1 n=e6 v=92
193696 On ch=1 n=c5 v=0
193738 On ch=1 n=c6 v=0
193878 Par ch=1 c=64 v=63
193898 Par ch=1 c=64 v=127
193910 On ch=1 n=d6 v=84
193918 On ch=1 n=f4 v=82
193948 On ch=1 n=e5 v=0
193982 On ch=1 n=e6 v=0
194170 On ch=1 n=d5 v=78
194178 On ch=1 n=f6 v=88
194210 On ch=1 n=f4 v=0
194234 On ch=1 n=d6 v=0
194360 Par ch=1 c=64 v=63
194394 Par ch=1 c=64 v=0
194438 On ch=1 n=e4 v=80
194462 On ch=1 n=e6 v=97
194484 On ch=1 n=d5 v=0
194526 On ch=1 n=f6 v=0
194650 Par ch=1 c=64 v=63
194664 Par ch=1 c=64 v=127
194706 On ch=1 n=d#6 v=100
194714 On ch=1 n=c5 v=64
194754 On ch=1 n=e6 v=0
194778 On ch=1 n=e4 v=0
194970 On ch=1 n=e6 v=83
194982 On ch=1 n=c5 v=0
194986 On ch=1 n=d#6 v=0
194986 Par ch=1 c=64 v=63
195002 On ch=1 n=a4 v=49
195016 Par ch=1 c=64 v=0
195152 Par ch=1 c=64 v=63
195168 On ch=1 n=e6 v=0
195174 Par ch=1 c=64 v=127
195234 On ch=1 n=e5 v=73
195262 On ch=1 n=a4 v=0
195276 On ch=1 n=c5 v=49
195474 Par ch=1 c=64 v=63
195500 On ch=1 n=e4 v=62
195504 Par ch=1 c=64 v=0
195518 On ch=1 n=c5 v=0
195520 On ch=1 n=f#5 v=89
195562 On ch=1 n=e5 v=0
195764 On ch=1 n=e4 v=0
195778 Par ch=1 c=64 v=63
195786 On ch=1 n=b4 v=71
195792 On ch=1 n=g#5 v=93
195794 Par ch=1 c=64 v=127
195828 On ch=1 n=f#5 v=0
195934 On ch=1 n=b4 v=0
196064 Par ch=1 c=64 v=63
196072 On ch=1 n=a5 v=80
196078 Par ch=1 c=64 v=0
196084 On ch=1 n=a4 v=71
196094 On ch=1 n=a3 v=68
196098 On ch=1 n=g#5 v=0
196300 Par ch=1 c=64 v=63
196306 Par ch=1 c=64 v=127
196346 On ch=1 n=g#5 v=97
196398 On ch=1 n=a5 v=0
196624 On ch=1 n=a5 v=87
196626 On ch=1 n=a4 v=0
196638 Par ch=1 c=64 v=63
196644 Par ch=1 c=64 v=0
196664 On ch=1 n=g#5 v=0
196680 On ch=1 n=a3 v=0
196718 On ch=1 n=a5 v=0
196908 On ch=1 n=e5 v=83
196990 On ch=1 n=e5 v=0
197212 On ch=1 n=c5 v=92
197292 On ch=1 n=c5 v=0
197554 On ch=1 n=e5 v=81
197664 On ch=1 n=e5 v=0
197954 Par ch=1 c=64 v=127
197962 On ch=1 n=a3 v=66
197974 On ch=1 n=a5 v=84
197974 On ch=1 n=a6 v=100
198046 On ch=1 n=a6 v=0
198056 On ch=1 n=a5 v=0
198256 On ch=1 n=a3 v=0
198312 On ch=1 n=g#6 v=97
198314 On ch=1 n=e4 v=69
198314 On ch=1 n=g#5 v=94
198390 On ch=1 n=g#5 v=0
198396 On ch=1 n=g#6 v=0
198590 On ch=1 n=a5 v=96
198590 On ch=1 n=a6 v=103
198596 On ch=1 n=c4 v=91
198620 On ch=1 n=e4 v=0
198634 On ch=1 n=a5 v=0
198670 On ch=1 n=a6 v=0
198866 On ch=1 n=c6 v=96
198866 On ch=1 n=c7 v=103
198870 On ch=1 n=c4 v=0
198890 On ch=1 n=e4 v=67
198958 On ch=1 n=c6 v=0
198974 On ch=1 n=c7 v=0
199150 On ch=1 n=b6 v=106
199150 On ch=1 n=b5 v=107
199152 On ch=1 n=g#3 v=105
199158 On ch=1 n=e4 v=0
199178 Par ch=1 c=64 v=63
199192 Par ch=1 c=64 v=0
199246 Par ch=1 c=64 v=63
199264 Par ch=1 c=64 v=127
199298 On ch=1 n=b5 v=0
199344 On ch=1 n=b6 v=0
199452 On ch=1 n=e4 v=79
199454 On ch=1 n=d7 v=106
199456 On ch=1 n=d6 v=96
199552 On ch=1 n=d6 v=0
199560 On ch=1 n=d7 v=0
199578 On ch=1 n=g#3 v=0
199742 On ch=1 n=a3 v=91
199748 On ch=1 n=c7 v=102
199758 Par ch=1 c=64 v=63
199760 On ch=1 n=c6 v=65
199764 On ch=1 n=e4 v=0
199770 Par ch=1 c=64 v=0
199786 On ch=1 n=d6 v=41
199830 On ch=1 n=d6 v=0
199834 Par ch=1 c=64 v=63
199846 Par ch=1 c=64 v=127
199890 On ch=1 n=c7 v=0
199898 On ch=1 n=c6 v=0
199994 On ch=1 n=e4 v=77
200012 On ch=1 n=b6 v=94
200016 On ch=1 n=b5 v=76
200034 On ch=1 n=a3 v=0
200080 On ch=1 n=b5 v=0
200122 On ch=1 n=b6 v=0
200290 On ch=1 n=c4 v=103
200308 On ch=1 n=c7 v=94
200312 On ch=1 n=c6 v=71
200330 On ch=1 n=e4 v=0
200360 On ch=1 n=c6 v=0
200370 On ch=1 n=c7 v=0
200556 On ch=1 n=e7 v=106
200564 On ch=1 n=e6 v=76
200574 On ch=1 n=e4 v=79
200612 On ch=1 n=c4 v=0
200746 On ch=1 n=e7 v=0
200768 On ch=1 n=e6 v=0
200848 On ch=1 n=f3 v=92
200874 On ch=1 n=d7 v=108
200878 On ch=1 n=e4 v=0
200880 On ch=1 n=d6 v=98
200880 Par ch=1 c=64 v=63
200892 Par ch=1 c=64 v=0
200962 Par ch=1 c=64 v=63
200978 Par ch=1 c=64 v=127
201022 On ch=1 n=d6 v=0
201076 On ch=1 n=d7 v=0
201190 On ch=1 n=f7 v=111
201194 On ch=1 n=f6 v=101
201216 On ch=1 n=d4 v=82
201228 On ch=1 n=f3 v=0
201248 On ch=1 n=f6 v=0
201288 On ch=1 n=f7 v=0
201552 On ch=1 n=e3 v=86
201556 On ch=1 n=e7 v=101
201558 On ch=1 n=e6 v=87
201564 Par ch=1 c=64 v=63
201574 Par ch=1 c=64 v=0
201586 On ch=1 n=d4 v=0
201656 Par ch=1 c=64 v=63
201666 Par ch=1 c=64 v=127
201740 On ch=1 n=e7 v=0
201742 On ch=1 n=e6 v=0
201858 On ch=1 n=d#7 v=97
201862 On ch=1 n=d#6 v=92
201864 On ch=1 n=c4 v=73
201872 On ch=1 n=e3 v=0
201946 On ch=1 n=d#6 v=0
201978 On ch=1 n=d#7 v=0
202148 On ch=1 n=e7 v=92
202158 On ch=1 n=c4 v=0
202162 On ch=1 n=e6 v=77
202166 On ch=1 n=a3 v=54
202206 On ch=1 n=e7 v=0
202226 On ch=1 n=e6 v=0
202466 On ch=1 n=a3 v=0
202468 On ch=1 n=e6 v=88
202490 On ch=1 n=c4 v=51
202490 On ch=1 n=e5 v=38
202560 On ch=1 n=e5 v=0
202592 On ch=1 n=e6 v=0
202782 On ch=1 n=e3 v=60
202786 On ch=1 n=c4 v=0
202788 On ch=1 n=f#6 v=85
202806 On ch=1 n=f#5 v=56
202814 Par ch=1 c=64 v=63
202832 Par ch=1 c=64 v=0
202914 Par ch=1 c=64 v=63
202932 Par ch=1 c=64 v=127
202994 On ch=1 n=f#5 v=0
203020 On ch=1 n=f#6 v=0
203136 On ch=1 n=e3 v=0
203136 On ch=1 n=g#6 v=90
203138 On ch=1 n=g#5 v=80
203170 On ch=1 n=b3 v=42
203260 On ch=1 n=g#5 v=0
203280 On ch=1 n=g#6 v=0
203412 On ch=1 n=b3 v=0
203530 On ch=1 n=a6 v=61
203534 On ch=1 n=a5 v=48
203588 On ch=1 n=a2 v=61
203630 Par ch=1 c=64 v=63
203658 Par ch=1 c=64 v=0
203890 On ch=1 n=a2 v=0
203898 On ch=1 n=c3 v=56
203974 On ch=1 n=c3 v=0
204308 On ch=1 n=e3 v=52
204370 On ch=1 n=e3 v=0
204734 On ch=1 n=a3 v=49
204838 On ch=1 n=a3 v=0
205340 On ch=1 n=a2 v=39
205468 Par ch=1 c=64 v=63
205498 Par ch=1 c=64 v=127
205844 On ch=1 n=a2 v=0
206372 On ch=1 n=a6 v=0
206466 On ch=1 n=a5 v=0
207032 Par ch=1 c=64 v=63
207118 Par ch=1 c=64 v=0
207320 Par ch=1 c=64 v=63
207418 Par ch=1 c=64 v=127
207532 On ch=1 n=a4 v=23
207532 On ch=1 n=c#6 v=56
207538 On ch=1 n=a5 v=26
207552 On ch=1 n=a3 v=32
207642 On ch=1 n=a3 v=0
207662 On ch=1 n=a4 v=0
207826 On ch=1 n=c#6 v=0
207860 On ch=1 n=a5 v=0
207952 On ch=1 n=e5 v=45
208198 On ch=1 n=e5 v=0
208224 On ch=1 n=c#6 v=73
208232 On ch=1 n=a5 v=52
208246 On ch=1 n=c#7 v=61
208254 On ch=1 n=a6 v=42
208460 On ch=1 n=c#6 v=0
208488 On ch=1 n=e5 v=40
208550 On ch=1 n=a5 v=0
208622 On ch=1 n=a6 v=0
208668 On ch=1 n=d7 v=86
208682 On ch=1 n=b6 v=63
208688 On ch=1 n=c#7 v=0
208692 On ch=1 n=d6 v=79
208700 On ch=1 n=e5 v=0
208702 On ch=1 n=b5 v=60
208868 On ch=1 n=e5 v=66
208874 On ch=1 n=b5 v=0
208884 On ch=1 n=d6 v=0
209050 On ch=1 n=e5 v=0
209064 On ch=1 n=d7 v=0
209076 On ch=1 n=e7 v=82
209076 On ch=1 n=c#7 v=76
209076 On ch=1 n=e6 v=84
209078 On ch=1 n=c#6 v=88
209090 On ch=1 n=b6 v=0
209210 On ch=1 n=e6 v=0
209224 On ch=1 n=c#6 v=0
209264 On ch=1 n=e5 v=48
209416 On ch=1 n=e5 v=0
209428 On ch=1 n=c#7 v=0
209470 On ch=1 n=e7 v=0
209482 On ch=1 n=d6 v=71
209484 On ch=1 n=b6 v=71
209486 On ch=1 n=b5 v=55
209488 On ch=1 n=d7 v=48
209598 On ch=1 n=b5 v=0
209652 On ch=1 n=e5 v=44
209666 On ch=1 n=d7 v=0
209756 On ch=1 n=b6 v=0
209816 On ch=1 n=d6 v=0
209876 On ch=1 n=a6 v=73
209884 On ch=1 n=e5 v=0
209890 On ch=1 n=c#7 v=57
209892 On ch=1 n=c#6 v=73
209908 On ch=1 n=a5 v=47
209924 On ch=1 n=c#7 v=0
209934 On ch=1 n=a6 v=0
210042 On ch=1 n=a5 v=0
210082 On ch=1 n=c#6 v=0
210096 On ch=1 n=e5 v=29
210264 On ch=1 n=e5 v=0
210306 Par ch=1 c=64 v=63
210308 On ch=1 n=e3 v=84
210322 Par ch=1 c=64 v=0
210326 On ch=1 n=e4 v=56
210330 On ch=1 n=b5 v=66
210330 On ch=1 n=g#5 v=67
210376 Par ch=1 c=64 v=63
210386 On ch=1 n=e3 v=0
210390 Par ch=1 c=64 v=127
210438 On ch=1 n=e4 v=0
210524 On ch=1 n=g#5 v=0
210534 On ch=1 n=b5 v=0
210548 On ch=1 n=e5 v=43
210738 On ch=1 n=b6 v=84
210748 On ch=1 n=e5 v=0
210752 On ch=1 n=b5 v=67
210754 On ch=1 n=g#5 v=65
210758 On ch=1 n=g#6 v=80
210934 On ch=1 n=e5 v=65
210952 On ch=1 n=b5 v=0
210958 On ch=1 n=g#5 v=0
211044 On ch=1 n=g#6 v=0
211094 On ch=1 n=b6 v=0
211134 On ch=1 n=c#7 v=90
211142 On ch=1 n=c#6 v=92
211150 On ch=1 n=a6 v=80
211152 On ch=1 n=a5 v=76
211174 On ch=1 n=e5 v=0
211316 On ch=1 n=e5 v=68
211420 On ch=1 n=c#7 v=0
211432 On ch=1 n=c#6 v=0
211488 On ch=1 n=a5 v=0
211496 On ch=1 n=d7 v=89
211504 On ch=1 n=b6 v=82
211526 On ch=1 n=d6 v=89
211528 On ch=1 n=a6 v=0
211528 On ch=1 n=b5 v=74
211562 On ch=1 n=e5 v=0
211684 On ch=1 n=e5 v=66
211746 On ch=1 n=d7 v=0
211748 On ch=1 n=b5 v=0
211834 On ch=1 n=d6 v=0
211852 On ch=1 n=e5 v=0
211888 On ch=1 n=c#7 v=67
211898 On ch=1 n=b6 v=0
211900 On ch=1 n=c#6 v=87
211908 On ch=1 n=a5 v=57
211920 On ch=1 n=a6 v=54
212042 Par ch=1 c=64 v=63
212070 Par ch=1 c=64 v=127
212086 On ch=1 n=e5 v=47
212112 On ch=1 n=a5 v=0
212130 On ch=1 n=c#6 v=0
212174 On ch=1 n=c#7 v=0
212186 On ch=1 n=a6 v=0
212298 On ch=1 n=e5 v=0
212300 On ch=1 n=b6 v=52
212302 On ch=1 n=g#6 v=75
212304 On ch=1 n=b5 v=69
212310 On ch=1 n=g#5 v=63
212350 On ch=1 n=b6 v=0
212376 On ch=1 n=g#6 v=0
212436 On ch=1 n=b5 v=0
212468 On ch=1 n=g#5 v=0
212486 On ch=1 n=e5 v=54
212646 On ch=1 n=e5 v=0
212688 Par ch=1 c=64 v=63
212700 Par ch=1 c=64 v=0
212710 On ch=1 n=a5 v=77
212716 On ch=1 n=a3 v=76
212730 On ch=1 n=e5 v=56
212730 On ch=1 n=a4 v=74
212746 Par ch=1 c=64 v=63
212760 Par ch=1 c=64 v=127
212776 On ch=1 n=a3 v=0
212802 On ch=1 n=a5 v=0
212810 On ch=1 n=a4 v=0
212872 On ch=1 n=e5 v=0
212924 On ch=1 n=c#5 v=62
213074 On ch=1 n=c#5 v=0
213110 On ch=1 n=a6 v=90
213120 On ch=1 n=a5 v=63
213174 On ch=1 n=a6 v=0
213182 On ch=1 n=e5 v=28
213258 On ch=1 n=a5 v=0
213290 On ch=1 n=c#5 v=68
213342 On ch=1 n=e5 v=0
213450 On ch=1 n=c#5 v=0
213500 On ch=1 n=a4 v=66
213506 On ch=1 n=a5 v=65
213514 On ch=1 n=a3 v=59
213526 On ch=1 n=e5 v=53
213550 On ch=1 n=a4 v=0
213570 On ch=1 n=a3 v=0
213622 On ch=1 n=a5 v=0
213660 On ch=1 n=c#5 v=70
213668 On ch=1 n=e5 v=0
213772 On ch=1 n=c#5 v=0
213774 Par ch=1 c=64 v=63
213784 Par ch=1 c=64 v=0
213860 Par ch=1 c=64 v=63
213862 On ch=1 n=e3 v=70
213874 Par ch=1 c=64 v=127
213888 On ch=1 n=e4 v=68
213900 On ch=1 n=e3 v=0
213900 On ch=1 n=g#5 v=71
213900 On ch=1 n=b5 v=72
213940 On ch=1 n=e4 v=0
214040 On ch=1 n=b5 v=0
214054 On ch=1 n=g#5 v=0
214084 On ch=1 n=e5 v=38
214254 On ch=1 n=b6 v=90
214260 On ch=1 n=e5 v=0
214284 On ch=1 n=b5 v=74
214294 On ch=1 n=g#5 v=70
214300 On ch=1 n=b6 v=0
214432 On ch=1 n=g#5 v=0
214444 On ch=1 n=b5 v=0
214462 On ch=1 n=e5 v=46
214634 On ch=1 n=e5 v=0
214654 On ch=1 n=e3 v=65
214664 On ch=1 n=e4 v=63
214670 On ch=1 n=b5 v=65
214676 On ch=1 n=g#5 v=72
214694 On ch=1 n=e3 v=0
214726 On ch=1 n=e4 v=0
214772 On ch=1 n=b5 v=0
214792 On ch=1 n=g#5 v=0
214838 On ch=1 n=e5 v=35
215002 On ch=1 n=e5 v=0
215046 On ch=1 n=c#7 v=80
215070 On ch=1 n=c#6 v=85
215080 On ch=1 n=a5 v=55
215166 On ch=1 n=a6 v=23
215200 Par ch=1 c=64 v=63
215248 Par ch=1 c=64 v=0
215250 On ch=1 n=e5 v=59
215278 Par ch=1 c=64 v=63
215308 Par ch=1 c=64 v=127
215388 On ch=1 n=c#6 v=0
215400 On ch=1 n=a6 v=0
215414 On ch=1 n=a5 v=0
215426 On ch=1 n=d7 v=87
215444 On ch=1 n=d6 v=91
215446 On ch=1 n=b6 v=71
215452 On ch=1 n=b5 v=76
215472 On ch=1 n=e5 v=0
215474 On ch=1 n=c#7 v=0
215620 On ch=1 n=e5 v=59
215682 On ch=1 n=b5 v=0
215756 On ch=1 n=d6 v=0
215770 On ch=1 n=e5 v=0
215804 On ch=1 n=a6 v=77
215808 On ch=1 n=b6 v=0
215820 On ch=1 n=c#6 v=93
215822 On ch=1 n=c#7 v=87
215836 On ch=1 n=a5 v=67
215880 On ch=1 n=d7 v=0
215916 On ch=1 n=a6 v=0
215976 On ch=1 n=a5 v=0
215998 On ch=1 n=c#6 v=0
216000 On ch=1 n=e5 v=52
216138 On ch=1 n=e5 v=0
216172 Par ch=1 c=64 v=63
216178 On ch=1 n=b6 v=78
216198 On ch=1 n=g#6 v=80
216200 On ch=1 n=b5 v=83
216202 Par ch=1 c=64 v=0
216210 On ch=1 n=c#7 v=0
216212 On ch=1 n=g#5 v=76
216218 Par ch=1 c=64 v=63
216256 On ch=1 n=b6 v=0
216256 Par ch=1 c=64 v=127
216290 On ch=1 n=g#6 v=0
216332 On ch=1 n=b5 v=0
216364 On ch=1 n=g#5 v=0
216370 On ch=1 n=e5 v=45
216424 On ch=1 n=e5 v=0
216608 On ch=1 n=e5 v=42
216610 On ch=1 n=d#6 v=78
216654 Par ch=1 c=64 v=63
216668 Par ch=1 c=64 v=0
216800 On ch=1 n=e6 v=55
216818 On ch=1 n=d#6 v=0
216830 Par ch=1 c=64 v=63
216844 Par ch=1 c=64 v=127
217002 Par ch=1 c=64 v=63
217012 Par ch=1 c=64 v=0
217046 On ch=1 n=d#6 v=70
217052 On ch=1 n=e4 v=29
217082 Par ch=1 c=64 v=63
217084 On ch=1 n=e5 v=0
217088 On ch=1 n=e6 v=0
217094 Par ch=1 c=64 v=127
217236 On ch=1 n=e4 v=0
217276 On ch=1 n=e6 v=67
217300 On ch=1 n=d#6 v=0
217368 On ch=1 n=e6 v=0
217564 On ch=1 n=c#6 v=79
217570 On ch=1 n=a5 v=52
217578 On ch=1 n=a4 v=38
217586 On ch=1 n=a3 v=44
217590 Par ch=1 c=64 v=63
217596 Par ch=1 c=64 v=0
217660 Par ch=1 c=64 v=63
217670 Par ch=1 c=64 v=127
217720 On ch=1 n=a3 v=0
217742 On ch=1 n=a4 v=0
217806 On ch=1 n=a5 v=0
217824 On ch=1 n=c#6 v=0
217832 On ch=1 n=e5 v=47
218078 On ch=1 n=e5 v=0
218082 On ch=1 n=a6 v=64
218090 On ch=1 n=c#7 v=67
218096 On ch=1 n=c#6 v=84
218106 On ch=1 n=a5 v=63
218292 On ch=1 n=e5 v=64
218312 On ch=1 n=c#6 v=0
218408 On ch=1 n=a5 v=0
218416 On ch=1 n=a6 v=0
218484 On ch=1 n=d7 v=92
218494 On ch=1 n=b6 v=80
218496 On ch=1 n=d6 v=87
218502 On ch=1 n=e5 v=0
218506 On ch=1 n=b5 v=75
218530 On ch=1 n=c#7 v=0
218660 On ch=1 n=e5 v=65
218680 On ch=1 n=b5 v=0
218698 On ch=1 n=d6 v=0
218810 On ch=1 n=e5 v=0
218850 On ch=1 n=d7 v=0
218856 On ch=1 n=e7 v=82
218866 On ch=1 n=c#7 v=74
218868 On ch=1 n=e6 v=84
218876 On ch=1 n=c#6 v=89
218882 On ch=1 n=b6 v=0
219030 On ch=1 n=e6 v=0
219060 On ch=1 n=c#6 v=0
219060 On ch=1 n=e5 v=47
219198 On ch=1 n=e5 v=0
219220 On ch=1 n=e7 v=0
219226 On ch=1 n=c#7 v=0
219246 On ch=1 n=d6 v=76
219252 On ch=1 n=d7 v=57
219256 On ch=1 n=b6 v=39
219256 On ch=1 n=b5 v=72
219358 On ch=1 n=b5 v=0
219422 On ch=1 n=e5 v=43
219450 On ch=1 n=d7 v=0
219516 On ch=1 n=b6 v=0
219548 On ch=1 n=d6 v=0
219634 On ch=1 n=c#7 v=57
219644 On ch=1 n=e5 v=0
219646 On ch=1 n=a6 v=50
219654 On ch=1 n=c#6 v=76
219666 On ch=1 n=a5 v=43
219672 On ch=1 n=c#7 v=0
219698 On ch=1 n=a6 v=0
219800 On ch=1 n=a5 v=0
219814 On ch=1 n=e5 v=49
219908 On ch=1 n=c#6 v=0
219966 On ch=1 n=e5 v=0
219978 Par ch=1 c=64 v=63
219990 Par ch=1 c=64 v=0
220018 On ch=1 n=e3 v=84
220032 On ch=1 n=e4 v=70
220040 On ch=1 n=g#5 v=72
220042 On ch=1 n=b5 v=70
220060 Par ch=1 c=64 v=63
220068 Par ch=1 c=64 v=127
220074 On ch=1 n=e3 v=0
220096 On ch=1 n=e4 v=0
220190 On ch=1 n=b5 v=0
220192 On ch=1 n=g#5 v=0
220222 On ch=1 n=e5 v=38
220350 On ch=1 n=e5 v=0
220414 On ch=1 n=b6 v=79
220422 On ch=1 n=b5 v=71
220428 On ch=1 n=g#5 v=69
220432 On ch=1 n=g#6 v=63
220492 On ch=1 n=b6 v=0
220504 On ch=1 n=g#6 v=0
220592 On ch=1 n=e5 v=61
220600 On ch=1 n=g#5 v=0
220608 On ch=1 n=b5 v=0
220756 On ch=1 n=e5 v=0
220782 On ch=1 n=c#7 v=74
220790 On ch=1 n=c#6 v=100
220790 On ch=1 n=a6 v=65
220802 On ch=1 n=a5 v=75
220952 On ch=1 n=e5 v=76
220992 On ch=1 n=c#7 v=0
221036 On ch=1 n=a5 v=0
221086 On ch=1 n=a6 v=0
221132 On ch=1 n=c#6 v=0
221136 On ch=1 n=d7 v=75
221152 On ch=1 n=d6 v=89
221158 On ch=1 n=b6 v=33
221162 On ch=1 n=b5 v=83
221170 On ch=1 n=e5 v=0
221290 Par ch=1 c=64 v=63
221302 Par ch=1 c=64 v=0
221322 On ch=1 n=e5 v=63
221360 Par ch=1 c=64 v=63
221376 Par ch=1 c=64 v=127
221470 On ch=1 n=b5 v=0
221504 On ch=1 n=e5 v=0
221524 On ch=1 n=c#6 v=88
221528 On ch=1 n=d6 v=0
221530 On ch=1 n=a5 v=57
221546 On ch=1 n=c#7 v=70
221552 On ch=1 n=a6 v=60
221560 On ch=1 n=b6 v=0
221580 On ch=1 n=d7 v=0
221686 On ch=1 n=a5 v=0
221694 On ch=1 n=e5 v=56
221764 On ch=1 n=c#7 v=0
221784 On ch=1 n=c#6 v=0
221830 On ch=1 n=e5 v=0
221834 On ch=1 n=a6 v=0
221910 On ch=1 n=b6 v=66
221916 On ch=1 n=g#6 v=78
221932 On ch=1 n=b5 v=52
221936 On ch=1 n=g#5 v=63
221950 On ch=1 n=b6 v=0
221978 On ch=1 n=g#6 v=0
222022 On ch=1 n=b5 v=0
222076 On ch=1 n=g#5 v=0
222118 On ch=1 n=e5 v=14
222244 On ch=1 n=e5 v=0
222266 Par ch=1 c=64 v=63
222278 Par ch=1 c=64 v=0
222296 On ch=1 n=a3 v=84
222302 On ch=1 n=a5 v=69
222322 On ch=1 n=a4 v=30
222324 Par ch=1 c=64 v=63
222330 On ch=1 n=e5 v=44
222338 Par ch=1 c=64 v=127
222356 On ch=1 n=a3 v=0
222386 On ch=1 n=a4 v=0
222392 On ch=1 n=a5 v=0
222486 On ch=1 n=e5 v=0
222502 On ch=1 n=c#5 v=85
222644 On ch=1 n=c#5 v=0
222688 On ch=1 n=a5 v=76
222692 On ch=1 n=a6 v=85
222700 On ch=1 n=c#6 v=98
222718 On ch=1 n=e5 v=68
222774 On ch=1 n=a6 v=0
222776 On ch=1 n=c#6 v=0
222844 On ch=1 n=a5 v=0
222852 On ch=1 n=c#5 v=79
222872 On ch=1 n=e5 v=0
222924 On ch=1 n=c#5 v=0
223046 On ch=1 n=b6 v=80
223052 On ch=1 n=b5 v=88
223054 On ch=1 n=e6 v=81
223058 On ch=1 n=g#5 v=88
223152 Par ch=1 c=64 v=63
223166 Par ch=1 c=64 v=0
223210 Par ch=1 c=64 v=63
223228 Par ch=1 c=64 v=127
223250 On ch=1 n=e5 v=63
223262 On ch=1 n=b6 v=0
223266 On ch=1 n=b5 v=0
223334 On ch=1 n=g#5 v=0
223422 Par ch=1 c=64 v=63
223436 On ch=1 n=c#6 v=91
223444 On ch=1 n=a6 v=80
223448 On ch=1 n=a5 v=81
223450 On ch=1 n=c#7 v=88
223454 On ch=1 n=e5 v=0
223458 On ch=1 n=e6 v=0
223478 Par ch=1 c=64 v=127
223480 On ch=1 n=c#7 v=0
223512 On ch=1 n=a6 v=0
223604 On ch=1 n=e5 v=64
223662 On ch=1 n=a5 v=0
223684 On ch=1 n=c#6 v=0
223732 On ch=1 n=e5 v=0
223818 On ch=1 n=c#6 v=100
223826 On ch=1 n=a5 v=84
223830 On ch=1 n=f#4 v=86
223840 On ch=1 n=f#3 v=93
223846 Par ch=1 c=64 v=63
223860 Par ch=1 c=64 v=0
223914 Par ch=1 c=64 v=63
223932 Par ch=1 c=64 v=127
224000 On ch=1 n=a5 v=0
224020 On ch=1 n=f#4 v=0
224022 On ch=1 n=f#3 v=0
224024 On ch=1 n=f#5 v=70
224032 On ch=1 n=c#6 v=0
224110 On ch=1 n=f#5 v=0
224218 On ch=1 n=d6 v=76
224234 On ch=1 n=b5 v=78
224256 On ch=1 n=d4 v=88
224268 On ch=1 n=d3 v=72
224298 Par ch=1 c=64 v=63
224310 Par ch=1 c=64 v=0
224368 Par ch=1 c=64 v=63
224384 Par ch=1 c=64 v=127
224396 On ch=1 n=f#5 v=69
224402 On ch=1 n=d3 v=0
224476 On ch=1 n=b5 v=0
224490 On ch=1 n=d4 v=0
224576 On ch=1 n=f#5 v=0
224580 On ch=1 n=d6 v=0
224592 Par ch=1 c=64 v=63
224600 Par ch=1 c=64 v=0
224632 On ch=1 n=e3 v=88
224650 On ch=1 n=e4 v=76
224654 On ch=1 n=c#6 v=89
224656 On ch=1 n=a5 v=68
224690 Par ch=1 c=64 v=63
224694 Par ch=1 c=64 v=127
224696 On ch=1 n=e3 v=0
224730 On ch=1 n=e4 v=0
224834 On ch=1 n=a5 v=0
224842 On ch=1 n=c#6 v=0
224850 On ch=1 n=e5 v=42
225000 On ch=1 n=e5 v=0
225082 On ch=1 n=c#6 v=87
225090 On ch=1 n=c#7 v=85
225096 On ch=1 n=a5 v=70
225100 On ch=1 n=a6 v=65
225170 On ch=1 n=c#7 v=0
225246 On ch=1 n=a5 v=0
225248 On ch=1 n=a6 v=0
225252 On ch=1 n=c#6 v=0
225282 On ch=1 n=e5 v=46
225436 On ch=1 n=e5 v=0
225504 On ch=1 n=g#5 v=80
225506 On ch=1 n=b6 v=68
225510 On ch=1 n=b5 v=76
225516 On ch=1 n=g#6 v=72
225552 Par ch=1 c=64 v=63
225566 Par ch=1 c=64 v=0
225616 Par ch=1 c=64 v=63
225636 Par ch=1 c=64 v=127
225708 On ch=1 n=b5 v=0
225714 On ch=1 n=g#5 v=0
225734 On ch=1 n=e5 v=50
225776 On ch=1 n=g#6 v=0
225882 On ch=1 n=e5 v=0
225884 On ch=1 n=b6 v=0
225934 Par ch=1 c=64 v=63
225944 On ch=1 n=a5 v=62
225958 On ch=1 n=a6 v=68
225958 Par ch=1 c=64 v=0
225992 Par ch=1 c=64 v=63
226020 Par ch=1 c=64 v=127
226036 On ch=1 n=a6 v=0
226184 On ch=1 n=a5 v=0
226196 On ch=1 n=e5 v=58
226258 On ch=1 n=e5 v=0
226438 Par ch=1 c=64 v=63
226448 On ch=1 n=a4 v=51
226448 On ch=1 n=c#5 v=63
226454 Par ch=1 c=64 v=0
226518 On ch=1 n=c#5 v=0
226520 On ch=1 n=a4 v=0
226700 On ch=1 n=e5 v=59
226792 On ch=1 n=e5 v=0
227086 On ch=1 n=a5 v=36
227088 On ch=1 n=a3 v=28
227182 Par ch=1 c=64 v=63
227192 Par ch=1 c=64 v=127
227330 On ch=1 n=a3 v=0
227368 On ch=1 n=a5 v=0
227900 Par ch=1 c=64 v=63
227964 Par ch=1 c=64 v=0
228108 On ch=1 n=a4 v=27
228122 On ch=1 n=e6 v=65
228176 Par ch=1 c=64 v=63
228222 Par ch=1 c=64 v=127
228462 On ch=1 n=c#5 v=40
228576 On ch=1 n=e6 v=0
228592 On ch=1 n=a4 v=0
228652 On ch=1 n=c#5 v=0
228684 On ch=1 n=e5 v=37
228868 On ch=1 n=e5 v=0
228916 On ch=1 n=f#6 v=82
228920 On ch=1 n=c#5 v=52
229008 On ch=1 n=f#6 v=0
229020 On ch=1 n=e6 v=71
229042 On ch=1 n=c#5 v=0
229106 On ch=1 n=d6 v=68
229108 On ch=1 n=e6 v=0
229108 On ch=1 n=e5 v=35
229164 Par ch=1 c=64 v=63
229188 Par ch=1 c=64 v=0
229198 On ch=1 n=c#6 v=92
229202 On ch=1 n=d6 v=0
229218 Par ch=1 c=64 v=63
229258 Par ch=1 c=64 v=127
229288 On ch=1 n=b5 v=81
229296 On ch=1 n=c#6 v=0
229314 On ch=1 n=c#5 v=59
229340 On ch=1 n=e5 v=0
229376 On ch=1 n=b5 v=0
229380 On ch=1 n=a5 v=79
229474 On ch=1 n=a5 v=0
229488 Par ch=1 c=64 v=63
229508 On ch=1 n=a4 v=52
229512 Par ch=1 c=64 v=0
229516 On ch=1 n=f6 v=91
229528 On ch=1 n=c#5 v=0
229662 Par ch=1 c=64 v=63
229678 Par ch=1 c=64 v=127
229706 On ch=1 n=f#6 v=91
229718 On ch=1 n=f6 v=0
229752 On ch=1 n=d5 v=57
229756 On ch=1 n=a4 v=0
229788 On ch=1 n=f#6 v=0
229846 Par ch=1 c=64 v=63
229884 Par ch=1 c=64 v=0
229934 On ch=1 n=f#5 v=51
229948 On ch=1 n=f#6 v=72
229992 On ch=1 n=d5 v=0
230004 Par ch=1 c=64 v=63
230036 Par ch=1 c=64 v=127
230126 On ch=1 n=f#6 v=0
230150 On ch=1 n=f#5 v=0
230154 On ch=1 n=d5 v=50
230254 Par ch=1 c=64 v=63
230300 Par ch=1 c=64 v=0
230362 On ch=1 n=f#5 v=50
230384 On ch=1 n=d5 v=0
230558 On ch=1 n=d5 v=74
230568 On ch=1 n=f#5 v=0
230744 On ch=1 n=a6 v=99
230754 On ch=1 n=a4 v=52
230816 Par ch=1 c=64 v=63
230824 Par ch=1 c=64 v=127
230826 On ch=1 n=d5 v=0
230950 On ch=1 n=g#6 v=103
230974 On ch=1 n=d5 v=72
231030 On ch=1 n=a6 v=0
231108 On ch=1 n=a4 v=0
231166 On ch=1 n=f#5 v=72
231172 On ch=1 n=b6 v=89
231230 On ch=1 n=d5 v=0
231246 Par ch=1 c=64 v=63
231260 Par ch=1 c=64 v=0
231268 On ch=1 n=g#6 v=0
231368 On ch=1 n=a6 v=97
231378 On ch=1 n=d5 v=55
231392 On ch=1 n=f#5 v=0
231428 On ch=1 n=b6 v=0
231450 Par ch=1 c=64 v=63
231470 Par ch=1 c=64 v=127
231580 On ch=1 n=g#6 v=92
231584 On ch=1 n=f#5 v=64
231598 On ch=1 n=d5 v=0
231636 On ch=1 n=a6 v=0
231762 On ch=1 n=f#5 v=0
231774 Par ch=1 c=64 v=63
231776 On ch=1 n=f#6 v=89
231792 Par ch=1 c=64 v=0
231796 On ch=1 n=d5 v=53
231808 On ch=1 n=g#6 v=0
231974 On ch=1 n=f#6 v=0
231976 On ch=1 n=a4 v=49
231984 On ch=1 n=d#6 v=80
231994 On ch=1 n=d5 v=0
232022 Par ch=1 c=64 v=63
232028 Par ch=1 c=64 v=127
232190 On ch=1 n=a4 v=0
232196 On ch=1 n=c#5 v=68
232200 On ch=1 n=e6 v=71
232236 On ch=1 n=d#6 v=0
232284 Par ch=1 c=64 v=63
232294 Par ch=1 c=64 v=0
232316 On ch=1 n=e6 v=0
232414 On ch=1 n=c#5 v=0
232422 On ch=1 n=e6 v=65
232440 Par ch=1 c=64 v=63
232444 On ch=1 n=e5 v=31
232450 Par ch=1 c=64 v=127
232510 On ch=1 n=e6 v=0
232622 On ch=1 n=c#5 v=66
232634 On ch=1 n=e5 v=0
232714 Par ch=1 c=64 v=63
232720 Par ch=1 c=64 v=0
232804 On ch=1 n=c#5 v=0
232832 Par ch=1 c=64 v=63
232838 On ch=1 n=e5 v=43
232838 Par ch=1 c=64 v=127
233016 On ch=1 n=c#5 v=70
233018 On ch=1 n=e5 v=0
233060 On ch=1 n=c#5 v=0
233218 Par ch=1 c=64 v=63
233220 Par ch=1 c=64 v=0
233276 On ch=1 n=c#4 v=95
233282 On ch=1 n=e6 v=116
233286 On ch=1 n=a3 v=88
233314 Par ch=1 c=64 v=127
233346 On ch=1 n=c#4 v=0
233354 On ch=1 n=a3 v=0
233368 On ch=1 n=e6 v=0
233694 On ch=1 n=a4 v=64
233700 On ch=1 n=c#5 v=80
233732 On ch=1 n=c#5 v=0
233754 On ch=1 n=a4 v=0
233956 On ch=1 n=f#6 v=99
234048 On ch=1 n=e6 v=97
234056 Par ch=1 c=64 v=63
234060 Par ch=1 c=64 v=0
234100 On ch=1 n=f#6 v=0
234140 On ch=1 n=e6 v=0
234146 On ch=1 n=d6 v=75
234216 On ch=1 n=d6 v=0
234230 On ch=1 n=c#6 v=100
234320 On ch=1 n=b5 v=73
234328 On ch=1 n=c#6 v=0
234396 On ch=1 n=a5 v=82
234414 On ch=1 n=b5 v=0
234472 On ch=1 n=a5 v=0
234498 On ch=1 n=b3 v=100
234504 On ch=1 n=d4 v=97
234512 Par ch=1 c=64 v=127
234520 On ch=1 n=e6 v=113
234540 On ch=1 n=d4 v=0
234566 On ch=1 n=b3 v=0
234704 On ch=1 n=e6 v=0
234726 On ch=1 n=d6 v=106
234938 On ch=1 n=d5 v=80
234938 On ch=1 n=b4 v=75
234956 On ch=1 n=d6 v=0
235170 On ch=1 n=e6 v=87
235186 Par ch=1 c=64 v=63
235196 Par ch=1 c=64 v=0
235256 On ch=1 n=d6 v=91
235306 On ch=1 n=b4 v=0
235308 On ch=1 n=e6 v=0
235342 On ch=1 n=c#6 v=90
235362 On ch=1 n=d5 v=0
235384 On ch=1 n=d6 v=0
235430 On ch=1 n=b5 v=90
235454 On ch=1 n=c#6 v=0
235522 On ch=1 n=a5 v=76
235526 On ch=1 n=b5 v=0
235638 On ch=1 n=a5 v=0
235638 On ch=1 n=g#5 v=98
235718 On ch=1 n=e5 v=59
235732 On ch=1 n=c#5 v=65
235746 On ch=1 n=a5 v=75
235750 On ch=1 n=g#5 v=0
236218 On ch=1 n=g#5 v=99
236228 On ch=1 n=b4 v=58
236230 On ch=1 n=d5 v=71
236244 On ch=1 n=c#5 v=0
236276 On ch=1 n=a5 v=0
236318 On ch=1 n=e5 v=0
236722 On ch=1 n=b4 v=0
236734 On ch=1 n=g#5 v=0
236738 On ch=1 n=c#5 v=72
236744 On ch=1 n=a5 v=71
236750 On ch=1 n=a4 v=39
236758 On ch=1 n=d5 v=0
236928 Par ch=1 c=64 v=63
236930 Par ch=1 c=64 v=127
237008 On ch=1 n=a4 v=0
237014 On ch=1 n=c#5 v=0
237054 On ch=1 n=a5 v=0
237360 On ch=1 n=c#5 v=55
237376 On ch=1 n=c#6 v=95
237378 On ch=1 n=a5 v=70
237380 On ch=1 n=a4 v=43
237406 On ch=1 n=e5 v=35
237410 On ch=1 n=e4 v=34
237596 Par ch=1 c=64 v=63
237636 Par ch=1 c=64 v=0
237878 Par ch=1 c=64 v=63
237886 Par ch=1 c=64 v=127
238076 On ch=1 n=a5 v=0
238106 On ch=1 n=c#5 v=0
238110 On ch=1 n=c#6 v=0
238136 On ch=1 n=a4 v=0
238662 On ch=1 n=g#4 v=39
238672 On ch=1 n=g#5 v=35
238672 On ch=1 n=b5 v=51
238684 On ch=1 n=b4 v=18
238774 Par ch=1 c=64 v=63
238798 Par ch=1 c=64 v=0
238898 Par ch=1 c=64 v=63
238918 Par ch=1 c=64 v=127
238928 On ch=1 n=e5 v=0
238998 On ch=1 n=b4 v=0
239014 On ch=1 n=b5 v=0
239024 On ch=1 n=g#5 v=0
239034 On ch=1 n=e4 v=0
239036 On ch=1 n=g#4 v=0
239428 Par ch=1 c=64 v=63
239472 Par ch=1 c=64 v=0
239564 On ch=1 n=a4 v=55
239576 On ch=1 n=c#6 v=69
239586 On ch=1 n=a3 v=45
239594 On ch=1 n=a5 v=42
239600 Par ch=1 c=64 v=63
239634 Par ch=1 c=64 v=127
239722 On ch=1 n=a3 v=0
239762 On ch=1 n=a4 v=0
239924 On ch=1 n=a5 v=0
239924 On ch=1 n=c#6 v=0
239934 On ch=1 n=e5 v=38
240200 On ch=1 n=c#6 v=78
240204 On ch=1 n=a6 v=45
240212 On ch=1 n=c#7 v=58
240216 On ch=1 n=a5 v=54
240252 On ch=1 n=e5 v=0
240422 On ch=1 n=e5 v=57
240468 On ch=1 n=c#6 v=0
240586 On ch=1 n=a6 v=0
240604 On ch=1 n=a5 v=0
240630 On ch=1 n=d7 v=79
240634 On ch=1 n=b6 v=65
240636 On ch=1 n=d6 v=83
240642 On ch=1 n=b5 v=66
240674 On ch=1 n=e5 v=0
240676 On ch=1 n=c#7 v=0
240802 On ch=1 n=e5 v=67
240816 On ch=1 n=b5 v=0
240878 On ch=1 n=d6 v=0
240998 On ch=1 n=e5 v=0
241002 On ch=1 n=d7 v=0
241016 On ch=1 n=e7 v=64
241020 On ch=1 n=c#7 v=66
241026 On ch=1 n=e6 v=79
241028 On ch=1 n=c#6 v=81
241048 On ch=1 n=b6 v=0
241084 Par ch=1 c=64 v=63
241170 Par ch=1 c=64 v=127
241230 On ch=1 n=e6 v=0
241238 On ch=1 n=e5 v=43
241278 On ch=1 n=c#6 v=0
241438 On ch=1 n=b5 v=68
241448 On ch=1 n=d6 v=57
241454 On ch=1 n=c#7 v=0
241458 On ch=1 n=b6 v=38
241460 On ch=1 n=e7 v=0
241472 On ch=1 n=d7 v=54
241478 On ch=1 n=e5 v=0
241522 Par ch=1 c=64 v=63
241576 On ch=1 n=b5 v=0
241592 Par ch=1 c=64 v=127
241624 On ch=1 n=e5 v=46
241840 On ch=1 n=d6 v=0
241844 On ch=1 n=c#6 v=80
241850 On ch=1 n=c#7 v=70
241860 On ch=1 n=a6 v=33
241868 On ch=1 n=a5 v=38
241876 On ch=1 n=d7 v=0
241886 On ch=1 n=b6 v=0
241912 On ch=1 n=e5 v=0
241914 On ch=1 n=a6 v=0
241914 On ch=1 n=c#7 v=0
242022 On ch=1 n=a5 v=0
242040 On ch=1 n=e5 v=40
242122 On ch=1 n=c#6 v=0
242198 On ch=1 n=e5 v=0
242226 Par ch=1 c=64 v=63
242236 Par ch=1 c=64 v=0
242274 On ch=1 n=b5 v=71
242278 On ch=1 n=g#5 v=73
242284 On ch=1 n=e4 v=65
242288 On ch=1 n=e3 v=32
242294 Par ch=1 c=64 v=63
242310 Par ch=1 c=64 v=127
242336 On ch=1 n=e3 v=0
242366 On ch=1 n=e4 v=0
242450 On ch=1 n=b5 v=0
242460 On ch=1 n=g#5 v=0
242478 On ch=1 n=e5 v=33
242670 On ch=1 n=b6 v=68
242676 On ch=1 n=g#6 v=80
242684 On ch=1 n=b5 v=72
242686 On ch=1 n=g#5 v=67
242734 On ch=1 n=e5 v=0
242806 On ch=1 n=b6 v=0
242816 On ch=1 n=g#6 v=0
242872 On ch=1 n=e5 v=68
242880 On ch=1 n=b5 v=0
242888 On ch=1 n=g#5 v=0
243060 On ch=1 n=c#7 v=88
243074 On ch=1 n=a6 v=62
243080 On ch=1 n=c#6 v=88
243096 On ch=1 n=a5 v=66
243110 On ch=1 n=e5 v=0
243236 On ch=1 n=e5 v=76
243350 On ch=1 n=c#7 v=0
243382 On ch=1 n=c#6 v=0
243446 On ch=1 n=d7 v=72
243454 On ch=1 n=b5 v=72
243456 On ch=1 n=b6 v=56
243460 On ch=1 n=a6 v=0
243462 On ch=1 n=d6 v=75
243478 On ch=1 n=a5 v=0
243504 Par ch=1 c=64 v=63
243518 On ch=1 n=e5 v=0
243522 Par ch=1 c=64 v=0
243602 Par ch=1 c=64 v=63
243620 Par ch=1 c=64 v=127
243636 On ch=1 n=e5 v=54
243728 On ch=1 n=d7 v=0
243732 On ch=1 n=b5 v=0
243794 On ch=1 n=d6 v=0
243844 On ch=1 n=c#6 v=86
243850 On ch=1 n=c#7 v=60
243862 On ch=1 n=b6 v=0
243866 On ch=1 n=a5 v=41
243884 On ch=1 n=a6 v=52
243898 On ch=1 n=e5 v=0
243908 Par ch=1 c=64 v=63
243940 Par ch=1 c=64 v=127
244036 On ch=1 n=e5 v=54
244056 On ch=1 n=a5 v=0
244078 On ch=1 n=c#6 v=0
244082 On ch=1 n=c#7 v=0
244114 On ch=1 n=a6 v=0
244224 On ch=1 n=e5 v=0
244252 On ch=1 n=g#6 v=72
244256 On ch=1 n=b6 v=33
244258 On ch=1 n=b5 v=72
244262 On ch=1 n=g#5 v=63
244298 On ch=1 n=b6 v=0
244326 On ch=1 n=g#6 v=0
244388 On ch=1 n=b5 v=0
244414 On ch=1 n=g#5 v=0
244436 On ch=1 n=e5 v=54
244614 On ch=1 n=e5 v=0
244618 Par ch=1 c=64 v=63
244628 Par ch=1 c=64 v=0
244680 On ch=1 n=a5 v=70
244688 Par ch=1 c=64 v=63
244692 On ch=1 n=a3 v=70
244694 On ch=1 n=a4 v=81
244708 Par ch=1 c=64 v=127
244722 On ch=1 n=e5 v=41
244756 On ch=1 n=a3 v=0
244780 On ch=1 n=a4 v=0
244782 On ch=1 n=a5 v=0
244874 On ch=1 n=e5 v=0
244936 On ch=1 n=c#5 v=58
245068 On ch=1 n=c#5 v=0
245134 On ch=1 n=a6 v=74
245134 On ch=1 n=a5 v=69
245140 On ch=1 n=c#6 v=91
245172 On ch=1 n=e5 v=34
245182 On ch=1 n=c#6 v=0
245220 On ch=1 n=a6 v=0
245270 On ch=1 n=a5 v=0
245292 On ch=1 n=c#5 v=76
245318 On ch=1 n=e5 v=0
245390 On ch=1 n=c#5 v=0
245482 On ch=1 n=b6 v=83
245490 On ch=1 n=e6 v=83
245508 On ch=1 n=b5 v=87
245514 On ch=1 n=g#5 v=85
245600 Par ch=1 c=64 v=63
245618 Par ch=1 c=64 v=0
245646 Par ch=1 c=64 v=63
245674 Par ch=1 c=64 v=127
245700 On ch=1 n=b6 v=0
245700 On ch=1 n=e5 v=73
245726 On ch=1 n=b5 v=0
245780 On ch=1 n=g#5 v=0
245896 On ch=1 n=c#6 v=93
245896 On ch=1 n=a6 v=83
245900 Par ch=1 c=64 v=63
245900 On ch=1 n=c#7 v=93
245906 On ch=1 n=a5 v=59
245920 On ch=1 n=e5 v=0
245928 On ch=1 n=e6 v=0
245938 On ch=1 n=c#7 v=0
245946 Par ch=1 c=64 v=127
245984 On ch=1 n=a6 v=0
246050 On ch=1 n=e5 v=79
246124 On ch=1 n=a5 v=0
246170 On ch=1 n=c#6 v=0
246210 On ch=1 n=e5 v=0
246278 On ch=1 n=c#6 v=97
246282 On ch=1 n=a5 v=84
246284 On ch=1 n=f#4 v=86
246298 On ch=1 n=f#3 v=91
246322 Par ch=1 c=64 v=63
246336 Par ch=1 c=64 v=0
246382 Par ch=1 c=64 v=63
246402 Par ch=1 c=64 v=127
246434 On ch=1 n=a5 v=0
246446 On ch=1 n=f#5 v=83
246466 On ch=1 n=c#6 v=0
246470 On ch=1 n=f#4 v=0
246478 On ch=1 n=f#3 v=0
246570 On ch=1 n=f#5 v=0
246666 On ch=1 n=b5 v=80
246668 On ch=1 n=d6 v=74
246700 On ch=1 n=d3 v=85
246706 On ch=1 n=d4 v=81
246726 Par ch=1 c=64 v=63
246744 Par ch=1 c=64 v=0
246788 Par ch=1 c=64 v=63
246808 Par ch=1 c=64 v=127
246834 On ch=1 n=f#5 v=74
246880 On ch=1 n=b5 v=0
246892 On ch=1 n=d3 v=0
246968 On ch=1 n=d4 v=0
247000 On ch=1 n=f#5 v=0
247022 Par ch=1 c=64 v=63
247028 On ch=1 n=d6 v=0
247030 Par ch=1 c=64 v=0
247066 On ch=1 n=e3 v=90
247076 On ch=1 n=e4 v=91
247078 On ch=1 n=a5 v=72
247080 On ch=1 n=c#6 v=89
247118 Par ch=1 c=64 v=63
247122 Par ch=1 c=64 v=127
247130 On ch=1 n=e3 v=0
247158 On ch=1 n=e4 v=0
247256 On ch=1 n=c#6 v=0
247260 On ch=1 n=e5 v=49
247278 On ch=1 n=a5 v=0
247408 On ch=1 n=e5 v=0
247496 On ch=1 n=c#6 v=88
247500 On ch=1 n=c#7 v=92
247512 On ch=1 n=a5 v=70
247534 On ch=1 n=a6 v=56
247660 On ch=1 n=a5 v=0
247678 On ch=1 n=e5 v=52
247684 On ch=1 n=c#6 v=0
247838 On ch=1 n=e5 v=0
247882 On ch=1 n=b5 v=90
247882 On ch=1 n=g#5 v=88
247884 On ch=1 n=b6 v=79
247898 On ch=1 n=g#6 v=81
247946 On ch=1 n=c#7 v=0
247946 Par ch=1 c=64 v=63
247960 Par ch=1 c=64 v=0
247966 On ch=1 n=a6 v=0
248012 Par ch=1 c=64 v=63
248034 Par ch=1 c=64 v=127
248080 On ch=1 n=e5 v=71
248192 On ch=1 n=g#5 v=0
248198 On ch=1 n=b5 v=0
248226 On ch=1 n=b6 v=0
248230 On ch=1 n=g#6 v=0
248282 On ch=1 n=e5 v=0
248302 On ch=1 n=b5 v=88
248306 On ch=1 n=b6 v=72
248308 On ch=1 n=g#6 v=71
248310 On ch=1 n=g#5 v=82
248350 Par ch=1 c=64 v=63
248382 Par ch=1 c=64 v=0
248422 Par ch=1 c=64 v=63
248454 Par ch=1 c=64 v=127
248502 On ch=1 n=e5 v=66
248622 On ch=1 n=g#5 v=0
248724 On ch=1 n=b5 v=0
248734 On ch=1 n=g#5 v=79
248740 On ch=1 n=c6 v=85
248746 On ch=1 n=e5 v=0
248746 On ch=1 n=c7 v=65
248746 Par ch=1 c=64 v=63
248780 On ch=1 n=b6 v=0
248842 Par ch=1 c=64 v=127
248950 On ch=1 n=e5 v=52
249004 On ch=1 n=c6 v=0
249024 On ch=1 n=c7 v=0
249032 On ch=1 n=g#5 v=0
249222 On ch=1 n=c#7 v=81
249226 On ch=1 n=c#6 v=83
249244 Par ch=1 c=64 v=63
249246 On ch=1 n=e5 v=0
249246 On ch=1 n=a5 v=46
249248 On ch=1 n=g#6 v=0
249258 Par ch=1 c=64 v=0
249288 On ch=1 n=a6 v=32
249306 On ch=1 n=c#7 v=0
249340 Par ch=1 c=64 v=63
249354 Par ch=1 c=64 v=127
249388 On ch=1 n=a6 v=0
249464 On ch=1 n=e5 v=52
249556 On ch=1 n=c#6 v=0
249560 On ch=1 n=a5 v=0
249724 On ch=1 n=e5 v=0
249746 Par ch=1 c=64 v=63
249752 Par ch=1 c=64 v=0
249776 On ch=1 n=c#6 v=99
249784 On ch=1 n=a4 v=85
249786 On ch=1 n=a5 v=78
249788 On ch=1 n=a3 v=76
249850 Par ch=1 c=64 v=63
249852 Par ch=1 c=64 v=127
249874 On ch=1 n=a3 v=0
249924 On ch=1 n=a4 v=0
249996 On ch=1 n=e5 v=64
250062 On ch=1 n=c#6 v=0
250066 On ch=1 n=a5 v=0
250238 On ch=1 n=c#6 v=95
250248 On ch=1 n=e5 v=0
250248 On ch=1 n=a5 v=70
250260 On ch=1 n=c#7 v=93
250260 On ch=1 n=a6 v=81
250422 On ch=1 n=e5 v=79
250464 On ch=1 n=c#6 v=0
250514 On ch=1 n=a5 v=0
250554 On ch=1 n=a6 v=0
250594 On ch=1 n=c#7 v=0
250632 On ch=1 n=e5 v=0
250648 On ch=1 n=b6 v=91
250650 On ch=1 n=d7 v=104
250656 On ch=1 n=b5 v=84
250666 On ch=1 n=d6 v=92
250840 On ch=1 n=e5 v=76
250894 On ch=1 n=d6 v=0
250904 On ch=1 n=b5 v=0
250996 On ch=1 n=e5 v=0
251024 On ch=1 n=d7 v=0
251064 Par ch=1 c=64 v=63
251070 On ch=1 n=e7 v=97
251072 On ch=1 n=e6 v=91
251082 Par ch=1 c=64 v=0
251084 On ch=1 n=c#7 v=76
251098 On ch=1 n=c#6 v=89
251128 On ch=1 n=b6 v=0
251138 Par ch=1 c=64 v=63
251148 Par ch=1 c=64 v=127
251162 On ch=1 n=e7 v=0
251216 On ch=1 n=c#7 v=0
251302 On ch=1 n=a5 v=57
251358 On ch=1 n=e6 v=0
251372 On ch=1 n=c#6 v=0
251540 On ch=1 n=e6 v=96
251550 On ch=1 n=c#6 v=95
251552 On ch=1 n=a5 v=0
251566 On ch=1 n=a3 v=53
251574 On ch=1 n=a4 v=24
251604 Par ch=1 c=64 v=63
251612 Par ch=1 c=64 v=0
251664 Par ch=1 c=64 v=63
251678 Par ch=1 c=64 v=127
251764 On ch=1 n=a4 v=0
251790 On ch=1 n=a5 v=57
251804 On ch=1 n=e6 v=0
251820 On ch=1 n=a3 v=0
251856 On ch=1 n=c#6 v=0
252060 On ch=1 n=f#6 v=95
252068 On ch=1 n=d6 v=78
252078 On ch=1 n=d3 v=65
252084 On ch=1 n=d4 v=53
252104 Par ch=1 c=64 v=63
252112 Par ch=1 c=64 v=0
252116 On ch=1 n=a5 v=0
252178 Par ch=1 c=64 v=63
252188 Par ch=1 c=64 v=127
252288 On ch=1 n=d3 v=0
252334 On ch=1 n=a5 v=55
252348 On ch=1 n=d6 v=0
252364 On ch=1 n=f#6 v=0
252386 On ch=1 n=d4 v=0
252436 On ch=1 n=a5 v=0
252614 On ch=1 n=e3 v=70
252616 Par ch=1 c=64 v=63
252624 Par ch=1 c=64 v=0
252632 On ch=1 n=e4 v=46
252640 On ch=1 n=a5 v=55
252640 On ch=1 n=c#6 v=80
252698 Par ch=1 c=64 v=63
252704 Par ch=1 c=64 v=127
252726 On ch=1 n=e3 v=0
252760 On ch=1 n=e4 v=0
252864 On ch=1 n=a5 v=0
252886 On ch=1 n=c#6 v=0
252886 On ch=1 n=e5 v=63
253128 On ch=1 n=e5 v=0
253172 On ch=1 n=c#6 v=76
253174 On ch=1 n=c#7 v=57
253190 On ch=1 n=a5 v=56
253224 On ch=1 n=a6 v=26
253388 On ch=1 n=c#7 v=0
253394 On ch=1 n=c#6 v=0
253416 On ch=1 n=a5 v=0
253436 On ch=1 n=a6 v=0
253450 On ch=1 n=e5 v=33
253610 On ch=1 n=e5 v=0
253684 On ch=1 n=b5 v=60
253692 On ch=1 n=g#6 v=57
253692 On ch=1 n=g#5 v=52
253702 On ch=1 n=b6 v=27
253746 Par ch=1 c=64 v=63
253762 Par ch=1 c=64 v=0
253806 Par ch=1 c=64 v=63
253830 Par ch=1 c=64 v=127
254012 On ch=1 n=b5 v=0
254018 On ch=1 n=e5 v=35
254048 On ch=1 n=g#5 v=0
254058 On ch=1 n=g#6 v=0
254092 On ch=1 n=b6 v=0
254232 On ch=1 n=e5 v=0
254304 On ch=1 n=a5 v=45
254316 On ch=1 n=a6 v=51
254332 Par ch=1 c=64 v=63
254354 Par ch=1 c=64 v=0
254396 Par ch=1 c=64 v=63
254422 Par ch=1 c=64 v=127
254436 On ch=1 n=a6 v=0
254632 On ch=1 n=a5 v=0
254662 On ch=1 n=e5 v=45
254818 On ch=1 n=e5 v=0
255000 On ch=1 n=a4 v=39
255030 On ch=1 n=c#5 v=54
255058 Par ch=1 c=64 v=63
255102 On ch=1 n=c#5 v=0
255110 On ch=1 n=a4 v=0
255116 Par ch=1 c=64 v=0
255424 On ch=1 n=e5 v=35
255530 On ch=1 n=e5 v=0
255800 Par ch=1 c=64 v=63
255986 On ch=1 n=a5 v=45
256020 On ch=1 n=a3 v=37
256096 Par ch=1 c=64 v=127
256570 On ch=1 n=a5 v=0
256692 On ch=1 n=a3 v=0
257212 Par ch=1 c=64 v=63
257932 Par ch=1 c=64 v=127
258340 On ch=1 n=a4 v=20
258354 On ch=1 n=c#6 v=54
258798 On ch=1 n=e5 v=17
259110 On ch=1 n=c#5 v=40
259184 On ch=1 n=e5 v=0
259190 On ch=1 n=c#6 v=0
259418 On ch=1 n=e5 v=21
259466 On ch=1 n=a4 v=0
259624 On ch=1 n=c#5 v=0
259744 On ch=1 n=c#6 v=80
259746 On ch=1 n=a4 v=29
259858 On ch=1 n=e5 v=0
260070 On ch=1 n=e5 v=37
260084 Par ch=1 c=64 v=63
260110 Par ch=1 c=64 v=0
260322 On ch=1 n=c#5 v=65
260328 Par ch=1 c=64 v=63
260338 Par ch=1 c=64 v=127
260400 On ch=1 n=e5 v=0
260584 On ch=1 n=e5 v=73
260608 On ch=1 n=a4 v=0
260680 On ch=1 n=c#5 v=0
260850 On ch=1 n=a4 v=57
260898 Par ch=1 c=64 v=63
260944 Par ch=1 c=64 v=0
260966 On ch=1 n=e5 v=0
260992 Par ch=1 c=64 v=63
261026 Par ch=1 c=64 v=127
261158 On ch=1 n=e5 v=47
261378 Par ch=1 c=64 v=63
261392 On ch=1 n=b4 v=61
261402 On ch=1 n=d6 v=76
261406 Par ch=1 c=64 v=0
261432 On ch=1 n=a4 v=0
261442 On ch=1 n=e5 v=0
261466 On ch=1 n=c#6 v=0
261484 Par ch=1 c=64 v=63
261502 Par ch=1 c=64 v=127
261646 On ch=1 n=e5 v=52
261894 On ch=1 n=f#6 v=79
261894 On ch=1 n=c#5 v=63
261924 On ch=1 n=b4 v=0
261934 On ch=1 n=e5 v=0
261946 On ch=1 n=d6 v=0
261996 Par ch=1 c=64 v=63
262018 Par ch=1 c=64 v=0
262134 Par ch=1 c=64 v=63
262148 Par ch=1 c=64 v=127
262200 On ch=1 n=e5 v=24
262296 On ch=1 n=c#5 v=0
262460 On ch=1 n=e6 v=66
262462 On ch=1 n=a4 v=28
262486 On ch=1 n=e5 v=0
262494 On ch=1 n=f#6 v=0
262590 Par ch=1 c=64 v=63
262634 Par ch=1 c=64 v=0
262698 On ch=1 n=e5 v=31
262874 Par ch=1 c=64 v=63
262888 Par ch=1 c=64 v=127
262936 On ch=1 n=e6 v=0
262948 On ch=1 n=c#5 v=62
262996 On ch=1 n=e5 v=0
263068 On ch=1 n=a4 v=0
263220 On ch=1 n=e5 v=48
263232 On ch=1 n=c#5 v=0
263328 Par ch=1 c=64 v=63
263386 Par ch=1 c=64 v=0
263448 On ch=1 n=e6 v=86
263456 On ch=1 n=a4 v=36
263484 On ch=1 n=e5 v=0
263556 Par ch=1 c=64 v=63
263588 Par ch=1 c=64 v=127
263696 On ch=1 n=e5 v=54
263766 On ch=1 n=e6 v=0
263944 On ch=1 n=a4 v=0
263946 On ch=1 n=e5 v=0
263956 On ch=1 n=c#5 v=46
263958 On ch=1 n=f#6 v=70
264198 Par ch=1 c=64 v=63
264214 On ch=1 n=e6 v=68
264224 On ch=1 n=c#5 v=0
264232 On ch=1 n=e5 v=25
264280 On ch=1 n=f#6 v=0
264444 Par ch=1 c=64 v=127
264466 On ch=1 n=a4 v=34
264470 On ch=1 n=d6 v=63
264480 On ch=1 n=e6 v=0
264564 On ch=1 n=e5 v=0
264706 On ch=1 n=c#6 v=81
264722 On ch=1 n=a4 v=0
264744 On ch=1 n=d6 v=0
264758 On ch=1 n=e5 v=21
264896 On ch=1 n=c#6 v=0
264908 Par ch=1 c=64 v=63
264990 On ch=1 n=g#4 v=53
264992 Par ch=1 c=64 v=0
265002 On ch=1 n=c#6 v=73
265018 On ch=1 n=e5 v=0
265170 Par ch=1 c=64 v=63
265226 Par ch=1 c=64 v=127
265280 On ch=1 n=e5 v=41
265460 Par ch=1 c=64 v=63
265552 On ch=1 n=b5 v=67
265556 On ch=1 n=e5 v=0
265560 On ch=1 n=d#5 v=43
265600 Par ch=1 c=64 v=0
265638 On ch=1 n=c#6 v=0
265650 Par ch=1 c=64 v=63
265726 Par ch=1 c=64 v=127
265826 On ch=1 n=g#4 v=0
265842 On ch=1 n=e5 v=19
265928 On ch=1 n=b5 v=0
266028 On ch=1 n=d#5 v=0
266076 On ch=1 n=g#4 v=42
266108 On ch=1 n=e5 v=0
266108 On ch=1 n=b5 v=66
266366 On ch=1 n=e5 v=22
266438 Par ch=1 c=64 v=63
266514 Par ch=1 c=64 v=0
266554 Par ch=1 c=64 v=63
266612 On ch=1 n=d#5 v=43
266614 Par ch=1 c=64 v=127
266658 On ch=1 n=e5 v=0
266860 On ch=1 n=g#4 v=0
266896 On ch=1 n=e5 v=28
266928 On ch=1 n=d#5 v=0
267142 On ch=1 n=g#4 v=37
267148 Par ch=1 c=64 v=63
267236 On ch=1 n=e5 v=0
267272 Par ch=1 c=64 v=127
267414 On ch=1 n=e5 v=19
267608 On ch=1 n=g#4 v=0
267638 On ch=1 n=c#6 v=81
267642 On ch=1 n=a4 v=47
267708 On ch=1 n=b5 v=0
267722 On ch=1 n=e5 v=0
267752 Par ch=1 c=64 v=63
267876 Par ch=1 c=64 v=127
267912 On ch=1 n=e5 v=53
268178 On ch=1 n=a4 v=0
268178 On ch=1 n=e6 v=76
268182 On ch=1 n=a#4 v=53
268272 On ch=1 n=e5 v=0
268272 On ch=1 n=c#6 v=0
268308 Par ch=1 c=64 v=63
268356 Par ch=1 c=64 v=0
268454 Par ch=1 c=64 v=63
268484 Par ch=1 c=64 v=127
268484 On ch=1 n=e5 v=17
268732 On ch=1 n=d#5 v=55
268800 On ch=1 n=e5 v=0
268918 On ch=1 n=a#4 v=0
268982 On ch=1 n=e5 v=34
269072 On ch=1 n=d#5 v=0
269236 On ch=1 n=b4 v=40
269250 On ch=1 n=d6 v=54
269288 Par ch=1 c=64 v=63
269298 On ch=1 n=e5 v=0
269318 Par ch=1 c=64 v=0
269380 On ch=1 n=e6 v=0
269444 Par ch=1 c=64 v=63
269472 Par ch=1 c=64 v=127
269502 On ch=1 n=e5 v=21
269678 On ch=1 n=d6 v=0
269738 On ch=1 n=d#5 v=58
269756 On ch=1 n=e5 v=0
269836 On ch=1 n=b4 v=0
269880 Par ch=1 c=64 v=63
269912 Par ch=1 c=64 v=0
269960 On ch=1 n=d6 v=76
269964 On ch=1 n=d#5 v=0
269968 On ch=1 n=e5 v=52
270168 Par ch=1 c=64 v=63
270192 Par ch=1 c=64 v=127
270214 On ch=1 n=g#4 v=40
270234 On ch=1 n=e6 v=73
270260 On ch=1 n=e5 v=0
270304 On ch=1 n=d6 v=0
270462 On ch=1 n=d6 v=81
270480 On ch=1 n=e6 v=0
270484 On ch=1 n=e5 v=37
270492 On ch=1 n=g#4 v=0
270572 Par ch=1 c=64 v=63
270594 Par ch=1 c=64 v=0
270706 On ch=1 n=c#6 v=92
270720 On ch=1 n=e4 v=56
270724 Par ch=1 c=64 v=63
270746 Par ch=1 c=64 v=127
270794 On ch=1 n=e5 v=0
270800 On ch=1 n=d6 v=0
270932 Par ch=1 c=64 v=63
270940 On ch=1 n=b5 v=84
270956 On ch=1 n=e5 v=51
270972 On ch=1 n=e4 v=0
270982 Par ch=1 c=64 v=0
271002 Par ch=1 c=64 v=63
271016 On ch=1 n=c#6 v=0
271042 Par ch=1 c=64 v=127
271146 On ch=1 n=b5 v=0
271208 On ch=1 n=b5 v=75
271224 On ch=1 n=f#4 v=73
271252 On ch=1 n=e5 v=0
271338 Par ch=1 c=64 v=63
271384 Par ch=1 c=64 v=0
271416 Par ch=1 c=64 v=63
271450 Par ch=1 c=64 v=127
271476 On ch=1 n=e5 v=46
271576 On ch=1 n=f#4 v=0
271704 On ch=1 n=d#5 v=70
271732 On ch=1 n=a5 v=76
271734 On ch=1 n=e5 v=0
271746 Par ch=1 c=64 v=63
271760 On ch=1 n=b5 v=0
271808 Par ch=1 c=64 v=0
271896 Par ch=1 c=64 v=63
271950 Par ch=1 c=64 v=127
271972 On ch=1 n=e5 v=43
271996 On ch=1 n=d#5 v=0
272216 On ch=1 n=f#4 v=46
272250 Par ch=1 c=64 v=63
272286 On ch=1 n=a5 v=0
272314 Par ch=1 c=64 v=0
272316 On ch=1 n=e5 v=0
272506 On ch=1 n=a5 v=47
272736 On ch=1 n=g#5 v=74
272786 On ch=1 n=a5 v=0
272962 On ch=1 n=a5 v=76
272986 On ch=1 n=f#4 v=0
272996 On ch=1 n=g#5 v=0
273186 On ch=1 n=b5 v=87
273242 On ch=1 n=a5 v=0
273406 On ch=1 n=a5 v=83
273420 On ch=1 n=b5 v=0
273640 On ch=1 n=d6 v=80
273708 On ch=1 n=a5 v=0
273876 On ch=1 n=c#6 v=95
273962 On ch=1 n=d6 v=0
274122 On ch=1 n=a#5 v=94
274130 On ch=1 n=g#4 v=72
274196 On ch=1 n=c#6 v=0
274374 On ch=1 n=e5 v=50
274440 On ch=1 n=g#4 v=0
274622 On ch=1 n=d#5 v=55
274636 On ch=1 n=b5 v=66
274702 On ch=1 n=e5 v=0
274710 On ch=1 n=a#5 v=0
274892 On ch=1 n=e5 v=28
274904 On ch=1 n=d#5 v=0
275114 On ch=1 n=g#4 v=52
275216 On ch=1 n=e5 v=0
275220 On ch=1 n=b5 v=0
275290 Par ch=1 c=64 v=63
275330 Par ch=1 c=64 v=127
275362 On ch=1 n=b5 v=63
275606 On ch=1 n=a#5 v=78
275638 On ch=1 n=g#4 v=0
275658 On ch=1 n=b5 v=0
275816 On ch=1 n=b5 v=84
275854 On ch=1 n=a#5 v=0
275986 Par ch=1 c=64 v=63
276046 Par ch=1 c=64 v=0
276046 On ch=1 n=c#6 v=97
276112 On ch=1 n=b5 v=0
276286 On ch=1 n=b5 v=88
276376 On ch=1 n=c#6 v=0
276518 On ch=1 n=e6 v=76
276618 On ch=1 n=b5 v=0
276756 On ch=1 n=d6 v=74
276912 On ch=1 n=e6 v=0
276954 On ch=1 n=d6 v=0
276996 On ch=1 n=e5 v=42
277000 Par ch=1 c=64 v=63
277004 On ch=1 n=a4 v=39
277008 On ch=1 n=d6 v=88
277044 Par ch=1 c=64 v=127
277222 On ch=1 n=c#6 v=94
277290 On ch=1 n=d6 v=0
277464 On ch=1 n=c6 v=99
277536 On ch=1 n=c#6 v=0
277620 On ch=1 n=a4 v=0
277670 On ch=1 n=c#6 v=106
277730 On ch=1 n=c6 v=0
277736 On ch=1 n=e5 v=0
277878 Par ch=1 c=64 v=63
277918 On ch=1 n=d6 v=93
277920 On ch=1 n=a4 v=78
277924 Par ch=1 c=64 v=0
277928 On ch=1 n=f#4 v=77
277988 On ch=1 n=c#6 v=0
278074 Par ch=1 c=64 v=63
278114 Par ch=1 c=64 v=127
278152 On ch=1 n=c#6 v=110
278212 On ch=1 n=d6 v=0
278378 On ch=1 n=c6 v=103
278458 On ch=1 n=c#6 v=0
278586 On ch=1 n=c#6 v=112
278652 On ch=1 n=c6 v=0
278722 On ch=1 n=f#4 v=0
278846 On ch=1 n=e6 v=88
278858 On ch=1 n=b4 v=97
278860 On ch=1 n=d4 v=91
278898 Par ch=1 c=64 v=63
278918 On ch=1 n=a4 v=0
278934 On ch=1 n=c#6 v=0
278978 Par ch=1 c=64 v=0
279118 On ch=1 n=d6 v=90
279170 On ch=1 n=e6 v=0
279228 Par ch=1 c=64 v=63
279250 Par ch=1 c=64 v=127
279348 On ch=1 n=c#6 v=97
279414 On ch=1 n=d6 v=0
279570 On ch=1 n=d6 v=96
279632 On ch=1 n=c#6 v=0
279736 On ch=1 n=d4 v=0
279808 On ch=1 n=c#6 v=94
279816 On ch=1 n=e4 v=76
279818 On ch=1 n=g#4 v=80
279840 On ch=1 n=b4 v=0
279868 On ch=1 n=d6 v=0
279912 Par ch=1 c=64 v=63
279962 Par ch=1 c=64 v=0
280062 On ch=1 n=b5 v=75
280082 Par ch=1 c=64 v=63
280088 On ch=1 n=c#6 v=0
280116 Par ch=1 c=64 v=127
280300 On ch=1 n=a#5 v=88
280344 On ch=1 n=b5 v=0
280500 On ch=1 n=b5 v=85
280512 On ch=1 n=a#5 v=0
280608 Par ch=1 c=64 v=63
280660 Par ch=1 c=64 v=0
280726 On ch=1 n=a5 v=56
280734 On ch=1 n=b5 v=0
280806 Par ch=1 c=64 v=63
280836 Par ch=1 c=64 v=127
280946 On ch=1 n=g#5 v=79
280980 On ch=1 n=a5 v=0
281186 On ch=1 n=g5 v=68
281230 On ch=1 n=g#4 v=0
281234 Par ch=1 c=64 v=63
281240 On ch=1 n=g#5 v=0
281242 On ch=1 n=e4 v=0
281348 Par ch=1 c=64 v=0
281392 On ch=1 n=g#5 v=78
281410 On ch=1 n=g5 v=0
281640 On ch=1 n=f#5 v=88
281680 On ch=1 n=g#5 v=0
281866 On ch=1 n=e5 v=75
281884 On ch=1 n=f#5 v=0
282102 On ch=1 n=d#5 v=89
282160 On ch=1 n=e5 v=0
282370 On ch=1 n=d#5 v=0
282372 On ch=1 n=e5 v=91
282676 On ch=1 n=a3 v=96
282714 On ch=1 n=c#6 v=103
282720 On ch=1 n=a5 v=84
282790 On ch=1 n=e5 v=0
282954 Par ch=1 c=64 v=63
282956 Par ch=1 c=64 v=127
283056 On ch=1 n=a4 v=50
283154 On ch=1 n=a3 v=0
283186 On ch=1 n=a5 v=0
283214 On ch=1 n=a4 v=0
283232 On ch=1 n=c#6 v=0
283342 On ch=1 n=a4 v=33
283348 On ch=1 n=c#6 v=101
283358 On ch=1 n=a5 v=85
283448 On ch=1 n=a4 v=0
283602 On ch=1 n=a4 v=60
283662 On ch=1 n=a4 v=0
283694 On ch=1 n=a5 v=0
283806 On ch=1 n=a4 v=60
283888 On ch=1 n=a4 v=0
283924 On ch=1 n=c#6 v=0
284044 On ch=1 n=a4 v=65
284114 On ch=1 n=a4 v=0
284274 On ch=1 n=a4 v=46
284276 On ch=1 n=c#6 v=84
284284 On ch=1 n=a#5 v=80
284370 On ch=1 n=a4 v=0
284370 Par ch=1 c=64 v=63
284462 Par ch=1 c=64 v=127
284502 On ch=1 n=a4 v=66
284648 On ch=1 n=a4 v=0
284662 On ch=1 n=a#5 v=0
284684 On ch=1 n=c#6 v=0
284710 On ch=1 n=a4 v=62
284718 On ch=1 n=d6 v=91
284732 On ch=1 n=b5 v=68
284792 Par ch=1 c=64 v=63
284814 On ch=1 n=a4 v=0
284900 Par ch=1 c=64 v=127
284930 On ch=1 n=a4 v=79
284944 On ch=1 n=d6 v=0
285070 On ch=1 n=a4 v=0
285130 On ch=1 n=d#6 v=103
285132 On ch=1 n=a4 v=68
285142 On ch=1 n=b5 v=0
285154 On ch=1 n=c6 v=73
285236 On ch=1 n=a4 v=0
285248 Par ch=1 c=64 v=63
285354 Par ch=1 c=64 v=127
285372 On ch=1 n=a4 v=76
285424 On ch=1 n=c6 v=0
285470 On ch=1 n=a4 v=0
285542 On ch=1 n=d#6 v=0
285600 On ch=1 n=a4 v=41
285610 On ch=1 n=c#6 v=73
285614 On ch=1 n=e6 v=74
285720 Par ch=1 c=64 v=63
285740 On ch=1 n=c#6 v=0
285798 Par ch=1 c=64 v=0
285826 On ch=1 n=e6 v=0
285868 On ch=1 n=a5 v=54
285986 On ch=1 n=a5 v=0
286078 On ch=1 n=b5 v=65
286122 On ch=1 n=a4 v=0
286168 On ch=1 n=b5 v=0
286280 On ch=1 n=c#6 v=90
286362 On ch=1 n=c#6 v=0
286506 On ch=1 n=d6 v=79
286592 On ch=1 n=d6 v=0
286694 On ch=1 n=e6 v=89
286788 On ch=1 n=e6 v=0
286924 On ch=1 n=f#6 v=97
287008 On ch=1 n=f#6 v=0
287150 On ch=1 n=g#6 v=100
287266 On ch=1 n=g#6 v=0
287418 On ch=1 n=a6 v=82
287704 On ch=1 n=b6 v=74
287776 On ch=1 n=a6 v=0
288066 On ch=1 n=c#7 v=63
288144 On ch=1 n=b6 v=0
288450 Par ch=1 c=64 v=63
288462 Par ch=1 c=64 v=127
288544 On ch=1 n=c#7 v=0
289016 On ch=1 n=c#6 v=89
289032 On ch=1 n=e3 v=94
289040 On ch=1 n=a5 v=45
289070 Par ch=1 c=64 v=63
289082 Par ch=1 c=64 v=0
289276 Par ch=1 c=64 v=63
289284 Par ch=1 c=64 v=127
289358 On ch=1 n=b5 v=85
289362 On ch=1 n=g#5 v=83
289366 On ch=1 n=e4 v=63
289404 On ch=1 n=a5 v=0
289412 On ch=1 n=c#6 v=0
289540 On ch=1 n=e4 v=0
289554 On ch=1 n=g#5 v=0
289576 On ch=1 n=b5 v=0
289640 On ch=1 n=e4 v=66
289652 On ch=1 n=b5 v=67
289660 On ch=1 n=g#5 v=66
289724 Par ch=1 c=64 v=63
289748 Par ch=1 c=64 v=0
289780 Par ch=1 c=64 v=63
289798 On ch=1 n=e4 v=0
289810 Par ch=1 c=64 v=127
289886 On ch=1 n=e3 v=0
289886 On ch=1 n=e4 v=53
290080 On ch=1 n=e4 v=0
290120 On ch=1 n=e4 v=24
290188 On ch=1 n=g#5 v=0
290220 On ch=1 n=e4 v=0
290238 On ch=1 n=b5 v=0
290346 On ch=1 n=e4 v=55
290426 On ch=1 n=e4 v=0
290566 On ch=1 n=b5 v=73
290568 On ch=1 n=g#5 v=69
290612 On ch=1 n=e4 v=57
290638 Par ch=1 c=64 v=63
290696 Par ch=1 c=64 v=127
290702 On ch=1 n=e4 v=0
290792 On ch=1 n=e4 v=74
290888 On ch=1 n=e4 v=0
290958 On ch=1 n=g#5 v=0
290958 On ch=1 n=b5 v=0
291012 On ch=1 n=c6 v=94
291018 On ch=1 n=a5 v=69
291038 On ch=1 n=e4 v=60
291080 Par ch=1 c=64 v=63
291136 On ch=1 n=e4 v=0
291176 Par ch=1 c=64 v=127
291226 On ch=1 n=e4 v=85
291334 On ch=1 n=e4 v=0
291358 On ch=1 n=c6 v=0
291446 On ch=1 n=c#6 v=103
291456 On ch=1 n=a#5 v=94
291482 On ch=1 n=e4 v=68
291498 Par ch=1 c=64 v=63
291530 On ch=1 n=a5 v=0
291588 On ch=1 n=e4 v=0
291602 Par ch=1 c=64 v=127
291648 On ch=1 n=e4 v=82
291750 On ch=1 n=e4 v=0
291846 On ch=1 n=a#5 v=0
291880 On ch=1 n=c#6 v=0
291918 Par ch=1 c=64 v=63
291932 On ch=1 n=b5 v=52
291934 On ch=1 n=d6 v=74
291942 On ch=1 n=e4 v=46
291960 Par ch=1 c=64 v=0
291998 Par ch=1 c=64 v=63
292038 Par ch=1 c=64 v=127
292086 On ch=1 n=b5 v=0
292184 On ch=1 n=d6 v=0
292232 On ch=1 n=b5 v=72
292336 On ch=1 n=b5 v=0
292378 On ch=1 n=e4 v=0
292384 Par ch=1 c=64 v=63
292454 On ch=1 n=c#6 v=88
292486 Par ch=1 c=64 v=0
292536 On ch=1 n=c#6 v=0
292672 On ch=1 n=d6 v=80
292756 On ch=1 n=d6 v=0
292854 On ch=1 n=e6 v=84
292938 On ch=1 n=e6 v=0
293066 On ch=1 n=f#6 v=97
293162 On ch=1 n=f#6 v=0
293284 On ch=1 n=g#6 v=103
293388 On ch=1 n=g#6 v=0
293502 On ch=1 n=a6 v=97
293590 On ch=1 n=a6 v=0
293772 On ch=1 n=b6 v=88
294040 On ch=1 n=c#7 v=86
294112 On ch=1 n=b6 v=0
294440 On ch=1 n=d7 v=57
294466 On ch=1 n=c#7 v=0
294798 Par ch=1 c=64 v=63
294806 Par ch=1 c=64 v=127
294916 On ch=1 n=d7 v=0
295492 On ch=1 n=b5 v=57
295538 On ch=1 n=c#6 v=70
295550 On ch=1 n=b5 v=0
295634 On ch=1 n=c#6 v=0
295634 On ch=1 n=b5 v=52
295642 Par ch=1 c=64 v=63
295670 Par ch=1 c=64 v=0
295834 Par ch=1 c=64 v=63
295870 Par ch=1 c=64 v=127
295944 On ch=1 n=a5 v=54
295970 On ch=1 n=b5 v=0
296132 On ch=1 n=a5 v=0
296228 On ch=1 n=a5 v=41
296386 Par ch=1 c=64 v=63
296522 Par ch=1 c=64 v=127
296776 On ch=1 n=e5 v=35
296786 On ch=1 n=f#4 v=54
296912 On ch=1 n=a5 v=0
297044 On ch=1 n=a5 v=74
297068 Par ch=1 c=64 v=63
297108 Par ch=1 c=64 v=0
297194 Par ch=1 c=64 v=63
297230 Par ch=1 c=64 v=127
297322 On ch=1 n=d6 v=73
297444 On ch=1 n=a5 v=0
297446 Par ch=1 c=64 v=63
297524 On ch=1 n=c#6 v=93
297562 Par ch=1 c=64 v=127
297564 On ch=1 n=d6 v=0
297648 On ch=1 n=e5 v=0
297754 On ch=1 n=a#5 v=94
297762 On ch=1 n=e5 v=70
297770 On ch=1 n=g#4 v=78
297816 On ch=1 n=c#6 v=0
297826 Par ch=1 c=64 v=63
297850 On ch=1 n=f#4 v=0
297868 Par ch=1 c=64 v=0
297980 Par ch=1 c=64 v=63
297984 On ch=1 n=b5 v=88
298004 Par ch=1 c=64 v=127
298028 On ch=1 n=a#5 v=0
298222 Par ch=1 c=64 v=63
298228 On ch=1 n=e6 v=89
298252 Par ch=1 c=64 v=0
298300 On ch=1 n=b5 v=0
298322 Par ch=1 c=64 v=63
298342 Par ch=1 c=64 v=127
298444 On ch=1 n=d6 v=97
298512 On ch=1 n=e6 v=0
298580 On ch=1 n=e5 v=0
298606 Par ch=1 c=64 v=63
298620 Par ch=1 c=64 v=0
298700 On ch=1 n=e5 v=67
298702 On ch=1 n=d6 v=0
298704 On ch=1 n=a4 v=68
298706 On ch=1 n=c6 v=93
298770 On ch=1 n=g#4 v=0
298794 Par ch=1 c=64 v=63
298802 Par ch=1 c=64 v=127
298964 On ch=1 n=c#6 v=100
298974 On ch=1 n=c6 v=0
299010 Par ch=1 c=64 v=63
299014 Par ch=1 c=64 v=0
299134 Par ch=1 c=64 v=63
299138 Par ch=1 c=64 v=127
299216 On ch=1 n=a6 v=81
299234 On ch=1 n=c#6 v=0
299380 On ch=1 n=a6 v=0
299436 On ch=1 n=a6 v=86
299580 On ch=1 n=a6 v=0
299628 On ch=1 n=e5 v=0
299654 On ch=1 n=a6 v=96
299750 On ch=1 n=a4 v=0
299792 On ch=1 n=a6 v=0
299858 On ch=1 n=a6 v=99
299868 Par ch=1 c=64 v=63
299876 Par ch=1 c=64 v=0
299932 Par ch=1 c=64 v=63
299946 Par ch=1 c=64 v=127
300028 On ch=1 n=a6 v=0
300084 On ch=1 n=a6 v=85
300226 On ch=1 n=a6 v=0
300312 On ch=1 n=a6 v=109
300458 On ch=1 n=a6 v=0
300596 On ch=1 n=a6 v=88
300598 On ch=1 n=b4 v=82
300620 On ch=1 n=f#4 v=69
300626 On ch=1 n=d4 v=60
300820 Par ch=1 c=64 v=63
300834 Par ch=1 c=64 v=0
300866 On ch=1 n=f#6 v=91
300906 On ch=1 n=a6 v=0
300998 Par ch=1 c=64 v=63
301010 Par ch=1 c=64 v=127
301110 On ch=1 n=d6 v=97
301162 On ch=1 n=f#6 v=0
301284 On ch=1 n=b4 v=0
301300 On ch=1 n=d4 v=0
301322 On ch=1 n=b5 v=92
301332 On ch=1 n=f#4 v=0
301392 On ch=1 n=d6 v=0
301592 On ch=1 n=c#5 v=83
301598 On ch=1 n=e6 v=87
301600 On ch=1 n=e4 v=59
301604 On ch=1 n=a4 v=65
301644 On ch=1 n=b5 v=0
301652 Par ch=1 c=64 v=63
301668 Par ch=1 c=64 v=0
301816 Par ch=1 c=64 v=63
301826 Par ch=1 c=64 v=127
301906 On ch=1 n=e6 v=0
301920 On ch=1 n=f#6 v=76
302004 On ch=1 n=e6 v=70
302012 On ch=1 n=f#6 v=0
302068 On ch=1 n=d#6 v=88
302078 On ch=1 n=e6 v=0
302134 On ch=1 n=e6 v=90
302150 On ch=1 n=d#6 v=0
302192 Par ch=1 c=64 v=63
302222 Par ch=1 c=64 v=0
302428 On ch=1 n=f#6 v=83
302458 On ch=1 n=e6 v=0
302816 On ch=1 n=a5 v=63
302826 On ch=1 n=f#6 v=0
303480 Par ch=1 c=64 v=63
303492 Par ch=1 c=64 v=127
303610 On ch=1 n=a4 v=0
303626 On ch=1 n=c#5 v=0
304070 On ch=1 n=b4 v=51
304074 On ch=1 n=d5 v=50
304150 Par ch=1 c=64 v=63
304182 Par ch=1 c=64 v=0
304272 Par ch=1 c=64 v=63
304302 Par ch=1 c=64 v=127
304558 On ch=1 n=a5 v=0
304716 On ch=1 n=c#6 v=75
304724 On ch=1 n=g#5 v=55
304928 Par ch=1 c=64 v=63
305016 On ch=1 n=b5 v=77
305020 On ch=1 n=c#6 v=0
305034 Par ch=1 c=64 v=127
305182 On ch=1 n=d5 v=0
305268 On ch=1 n=e4 v=0
305272 On ch=1 n=b5 v=0
305298 On ch=1 n=g#5 v=0
305398 On ch=1 n=b4 v=0
305418 On ch=1 n=b5 v=71
305422 On ch=1 n=g#5 v=38
305424 On ch=1 n=a4 v=27
305438 On ch=1 n=d5 v=25
305446 On ch=1 n=e5 v=37
305628 Par ch=1 c=64 v=63
305674 Par ch=1 c=64 v=0
306032 Par ch=1 c=64 v=63
306050 Par ch=1 c=64 v=127
306420 On ch=1 n=g#5 v=0
306618 On ch=1 n=d5 v=0
306724 On ch=1 n=b5 v=0
306776 On ch=1 n=a5 v=47
306784 On ch=1 n=c#5 v=36
306870 Par ch=1 c=64 v=63
306910 Par ch=1 c=64 v=0
306952 Par ch=1 c=64 v=63
307000 Par ch=1 c=64 v=127
307128 On ch=1 n=e5 v=0
307178 On ch=1 n=a5 v=0
307196 On ch=1 n=b5 v=64
307264 On ch=1 n=b5 v=0
307272 On ch=1 n=a5 v=54
307348 On ch=1 n=g#5 v=77
307384 On ch=1 n=a5 v=0
307472 On ch=1 n=a5 v=63
307476 On ch=1 n=g#5 v=0
307556 Par ch=1 c=64 v=63
307584 Par ch=1 c=64 v=0
307732 Par ch=1 c=64 v=63
307740 On ch=1 n=b5 v=89
307758 Par ch=1 c=64 v=127
307768 On ch=1 n=a5 v=0
307978 On ch=1 n=c#6 v=95
308022 On ch=1 n=b5 v=0
308206 On ch=1 n=c#6 v=0
308246 On ch=1 n=d6 v=77
308318 On ch=1 n=c#6 v=90
308330 On ch=1 n=d6 v=0
308358 On ch=1 n=c#5 v=0
308370 On ch=1 n=b5 v=81
308382 On ch=1 n=c#6 v=0
308386 On ch=1 n=a4 v=0
308430 On ch=1 n=c#6 v=99
308474 On ch=1 n=b5 v=0
308498 Par ch=1 c=64 v=63
308586 Par ch=1 c=64 v=0
308682 On ch=1 n=d6 v=92
308710 On ch=1 n=c#6 v=0
308974 On ch=1 n=a4 v=57
309004 On ch=1 n=e6 v=94
309022 On ch=1 n=d6 v=0
309250 Par ch=1 c=64 v=63
309270 Par ch=1 c=64 v=127
309324 On ch=1 n=a5 v=49
309538 On ch=1 n=e6 v=0
309578 On ch=1 n=a5 v=0
309586 On ch=1 n=c#5 v=85
309702 On ch=1 n=a4 v=0
309820 On ch=1 n=f#6 v=85
309822 On ch=1 n=c#5 v=0
309842 On ch=1 n=a5 v=41
309912 On ch=1 n=e6 v=91
309962 On ch=1 n=f#6 v=0
310042 On ch=1 n=d6 v=89
310052 On ch=1 n=a5 v=0
310054 On ch=1 n=a4 v=62
310072 Par ch=1 c=64 v=63
310080 On ch=1 n=e6 v=0
310086 Par ch=1 c=64 v=0
310152 On ch=1 n=d6 v=0
310198 Par ch=1 c=64 v=63
310216 Par ch=1 c=64 v=127
310300 On ch=1 n=g#5 v=56
310458 On ch=1 n=a4 v=0
310526 Par ch=1 c=64 v=63
310542 On ch=1 n=b4 v=54
310550 On ch=1 n=c#6 v=84
310550 Par ch=1 c=64 v=0
310572 On ch=1 n=g#5 v=0
310630 Par ch=1 c=64 v=63
310638 On ch=1 n=c#6 v=0
310656 Par ch=1 c=64 v=127
310784 On ch=1 n=g#5 v=63
310806 On ch=1 n=b4 v=0
311000 On ch=1 n=b5 v=84
311022 On ch=1 n=a4 v=42
311100 Par ch=1 c=64 v=63
311118 On ch=1 n=g#5 v=0
311118 Par ch=1 c=64 v=0
311166 On ch=1 n=b5 v=0
311238 Par ch=1 c=64 v=63
311256 Par ch=1 c=64 v=127
311264 On ch=1 n=g5 v=54
311472 Par ch=1 c=64 v=63
311484 On ch=1 n=c#5 v=73
311490 Par ch=1 c=64 v=0
311498 On ch=1 n=a5 v=65
311536 On ch=1 n=g5 v=0
311568 On ch=1 n=a4 v=0
311600 Par ch=1 c=64 v=63
311602 On ch=1 n=a5 v=0
311624 Par ch=1 c=64 v=127
311732 On ch=1 n=c#5 v=0
311740 On ch=1 n=g5 v=50
311946 On ch=1 n=a5 v=90
311946 On ch=1 n=a4 v=62
311954 Par ch=1 c=64 v=63
311966 Par ch=1 c=64 v=0
312054 On ch=1 n=g5 v=0
312158 Par ch=1 c=64 v=63
312162 Par ch=1 c=64 v=127
312226 On ch=1 n=f#5 v=63
312470 On ch=1 n=d5 v=81
312480 On ch=1 n=f#5 v=0
312548 On ch=1 n=a4 v=0
312594 On ch=1 n=a5 v=0
312690 On ch=1 n=f#5 v=72
312702 On ch=1 n=f#6 v=103
312708 On ch=1 n=d5 v=0
312904 On ch=1 n=f#5 v=0
312918 On ch=1 n=f#6 v=0
312960 On ch=1 n=f#4 v=80
312984 On ch=1 n=f#6 v=81
313106 Par ch=1 c=64 v=63
313116 Par ch=1 c=64 v=0
313178 Par ch=1 c=64 v=63
313194 Par ch=1 c=64 v=127
313224 On ch=1 n=d5 v=76
313396 On ch=1 n=f#6 v=0
313428 On ch=1 n=f#4 v=0
313450 On ch=1 n=a4 v=63
313494 On ch=1 n=d5 v=0
313664 On ch=1 n=a4 v=0
313682 On ch=1 n=d5 v=88
313820 On ch=1 n=d5 v=0
313950 On ch=1 n=d5 v=109
313958 On ch=1 n=d4 v=67
314174 Par ch=1 c=64 v=63
314182 Par ch=1 c=64 v=0
314226 On ch=1 n=a4 v=71
314292 Par ch=1 c=64 v=63
314304 Par ch=1 c=64 v=127
314478 On ch=1 n=f#4 v=84
314538 On ch=1 n=a4 v=0
314572 On ch=1 n=d4 v=0
314710 On ch=1 n=f#4 v=0
314714 On ch=1 n=a4 v=69
314968 On ch=1 n=a4 v=0
314998 On ch=1 n=a3 v=84
315024 Par ch=1 c=64 v=63
315032 Par ch=1 c=64 v=0
315144 Par ch=1 c=64 v=63
315154 Par ch=1 c=64 v=127
315208 On ch=1 n=f#5 v=77
315248 On ch=1 n=f#4 v=65
315258 On ch=1 n=d5 v=0
315368 On ch=1 n=e5 v=65
315378 On ch=1 n=f#5 v=0
315512 On ch=1 n=d5 v=82
315520 On ch=1 n=e5 v=0
315596 On ch=1 n=f#4 v=0
315622 On ch=1 n=d4 v=46
315626 On ch=1 n=d5 v=0
315628 On ch=1 n=e5 v=76
315750 On ch=1 n=f#5 v=87
315762 On ch=1 n=e5 v=0
315840 On ch=1 n=f#4 v=73
315850 On ch=1 n=a3 v=0
315868 On ch=1 n=f#5 v=0
315888 On ch=1 n=g5 v=77
315976 On ch=1 n=d4 v=0
316002 On ch=1 n=g5 v=0
316004 On ch=1 n=a5 v=87
316058 On ch=1 n=a3 v=65
316076 On ch=1 n=f#4 v=0
316114 On ch=1 n=b5 v=90
316134 On ch=1 n=a5 v=0
316228 On ch=1 n=c#6 v=96
316246 On ch=1 n=b5 v=0
316274 On ch=1 n=f#4 v=72
316312 On ch=1 n=c#6 v=0
316330 On ch=1 n=d6 v=80
316440 On ch=1 n=d6 v=0
316442 On ch=1 n=e6 v=85
316544 On ch=1 n=d4 v=64
316546 On ch=1 n=f#4 v=0
316552 On ch=1 n=f#6 v=93
316566 Par ch=1 c=64 v=63
316576 On ch=1 n=e6 v=0
316588 Par ch=1 c=64 v=0
316682 On ch=1 n=f#6 v=0
316700 On ch=1 n=g6 v=77
316708 Par ch=1 c=64 v=63
316722 Par ch=1 c=64 v=127
316818 On ch=1 n=f#4 v=65
316848 On ch=1 n=g6 v=0
316862 On ch=1 n=a6 v=74
316904 On ch=1 n=a3 v=0
316934 On ch=1 n=d4 v=0
317064 On ch=1 n=a3 v=50
317068 On ch=1 n=b6 v=65
317070 On ch=1 n=a6 v=0
317102 Par ch=1 c=64 v=63
317112 On ch=1 n=f#4 v=0
317136 Par ch=1 c=64 v=0
317236 Par ch=1 c=64 v=63
317256 Par ch=1 c=64 v=127
317372 On ch=1 n=f#4 v=40
317374 On ch=1 n=b6 v=0
317394 On ch=1 n=c#7 v=90
317728 On ch=1 n=f#4 v=0
317750 On ch=1 n=d7 v=85
317776 On ch=1 n=c#7 v=0
317784 On ch=1 n=d4 v=27
317814 Par ch=1 c=64 v=63
317836 Par ch=1 c=64 v=0
317962 Par ch=1 c=64 v=63
317978 Par ch=1 c=64 v=127
318114 On ch=1 n=f#4 v=39
318172 On ch=1 n=d4 v=0
318188 On ch=1 n=d7 v=0
318238 On ch=1 n=a3 v=0
318284 On ch=1 n=f#4 v=0
318314 On ch=1 n=f#6 v=55
318536 On ch=1 n=f#6 v=0
318574 On ch=1 n=a6 v=70
318584 On ch=1 n=a3 v=35
318592 On ch=1 n=d4 v=38
318722 Par ch=1 c=64 v=63
318760 Par ch=1 c=64 v=0
318926 Par ch=1 c=64 v=63
318946 Par ch=1 c=64 v=127
319582 On ch=1 n=f#6 v=70
319654 On ch=1 n=a6 v=0
319938 On ch=1 n=e6 v=61
319948 On ch=1 n=c#4 v=42
319964 On ch=1 n=d4 v=0
319972 On ch=1 n=f#6 v=0
320010 Par ch=1 c=64 v=63
320046 Par ch=1 c=64 v=0
320304 Par ch=1 c=64 v=63
320320 Par ch=1 c=64 v=127
320396 On ch=1 n=e6 v=0
320544 On ch=1 n=a3 v=0
320574 On ch=1 n=e6 v=41
320622 On ch=1 n=c#4 v=0
320778 On ch=1 n=e6 v=0
321116 On ch=1 n=e6 v=46
321176 Par ch=1 c=64 v=63
321204 Par ch=1 c=64 v=0
321464 Par ch=1 c=64 v=63
321476 Par ch=1 c=64 v=127
321564 On ch=1 n=e6 v=0
321754 On ch=1 n=e6 v=48
322080 On ch=1 n=e6 v=0
322584 On ch=1 n=f#6 v=66
322616 On ch=1 n=e5 v=30
322618 On ch=1 n=a4 v=20
322620 On ch=1 n=c#5 v=54
322868 Par ch=1 c=64 v=63
322914 Par ch=1 c=64 v=0
322930 On ch=1 n=e6 v=64
322984 On ch=1 n=f#6 v=0
323044 Par ch=1 c=64 v=63
323072 Par ch=1 c=64 v=127
323190 On ch=1 n=c#6 v=61
323230 On ch=1 n=e6 v=0
323386 Par ch=1 c=64 v=63
323452 On ch=1 n=c#6 v=0
323454 On ch=1 n=b5 v=52
323598 Par ch=1 c=64 v=127
323732 Par ch=1 c=64 v=63
323758 On ch=1 n=a5 v=44
323772 On ch=1 n=b5 v=0
323860 Par ch=1 c=64 v=0
324046 Par ch=1 c=64 v=63
324148 Par ch=1 c=64 v=127
324206 On ch=1 n=a5 v=0
324386 Par ch=1 c=64 v=63
324412 On ch=1 n=e5 v=0
324428 On ch=1 n=a4 v=0
324430 Par ch=1 c=64 v=0
324434 On ch=1 n=e6 v=38
324456 On ch=1 n=c#5 v=0
324510 Par ch=1 c=64 v=63
324544 Par ch=1 c=64 v=127
324820 On ch=1 n=e6 v=0
324984 On ch=1 n=e6 v=78
325360 On ch=1 n=e6 v=0
325524 On ch=1 n=e6 v=88
325786 On ch=1 n=e6 v=0
326118 On ch=1 n=f#6 v=91
326132 On ch=1 n=b4 v=60
326134 On ch=1 n=d5 v=61
326136 On ch=1 n=e5 v=48
326236 Par ch=1 c=64 v=63
326266 Par ch=1 c=64 v=0
326402 On ch=1 n=e6 v=88
326450 Par ch=1 c=64 v=63
326460 Par ch=1 c=64 v=127
326474 On ch=1 n=f#6 v=0
326686 On ch=1 n=d6 v=75
326712 On ch=1 n=e6 v=0
326876 Par ch=1 c=64 v=63
326906 Par ch=1 c=64 v=0
326954 On ch=1 n=b5 v=63
326998 On ch=1 n=d6 v=0
327300 On ch=1 n=g#5 v=73
327376 On ch=1 n=b5 v=0
327614 Par ch=1 c=64 v=63
327620 Par ch=1 c=64 v=127
327708 On ch=1 n=g#5 v=0
327894 On ch=1 n=e6 v=71
328160 On ch=1 n=e6 v=0
328302 On ch=1 n=e5 v=0
328328 On ch=1 n=d5 v=0
328352 On ch=1 n=b4 v=0
328460 On ch=1 n=e6 v=100
328824 On ch=1 n=e6 v=0
328988 Par ch=1 c=64 v=63
329014 Par ch=1 c=64 v=0
329016 On ch=1 n=e6 v=109
329072 Par ch=1 c=64 v=63
329090 Par ch=1 c=64 v=127
329294 On ch=1 n=e6 v=0
329670 On ch=1 n=e5 v=89
329676 On ch=1 n=f#6 v=94
329678 On ch=1 n=a4 v=71
329682 On ch=1 n=c#5 v=83
329876 Par ch=1 c=64 v=63
329894 Par ch=1 c=64 v=0
330000 On ch=1 n=e6 v=96
330044 On ch=1 n=f#6 v=0
330122 Par ch=1 c=64 v=63
330128 Par ch=1 c=64 v=127
330262 On ch=1 n=c#6 v=101
330332 On ch=1 n=e6 v=0
330454 On ch=1 n=c#5 v=0
330498 On ch=1 n=e5 v=0
330502 On ch=1 n=a4 v=0
330502 On ch=1 n=a5 v=93
330560 On ch=1 n=c#6 v=0
330746 On ch=1 n=b4 v=83
330750 On ch=1 n=e5 v=84
330754 On ch=1 n=g#4 v=87
330762 On ch=1 n=f#6 v=100
330784 On ch=1 n=a5 v=0
330862 Par ch=1 c=64 v=63
330878 Par ch=1 c=64 v=0
331014 On ch=1 n=e6 v=97
331016 Par ch=1 c=64 v=63
331036 Par ch=1 c=64 v=127
331076 On ch=1 n=f#6 v=0
331246 On ch=1 n=d6 v=97
331342 On ch=1 n=e6 v=0
331396 On ch=1 n=b4 v=0
331440 On ch=1 n=e5 v=0
331492 On ch=1 n=b5 v=103
331538 On ch=1 n=d6 v=0
331584 On ch=1 n=g#4 v=0
331750 On ch=1 n=c#5 v=86
331754 On ch=1 n=e5 v=79
331764 On ch=1 n=a4 v=67
331768 On ch=1 n=f#6 v=99
331834 On ch=1 n=b5 v=0
331836 Par ch=1 c=64 v=63
331854 Par ch=1 c=64 v=0
332032 On ch=1 n=e6 v=88
332098 On ch=1 n=f#6 v=0
332104 Par ch=1 c=64 v=63
332122 Par ch=1 c=64 v=127
332306 On ch=1 n=c#6 v=98
332336 On ch=1 n=e6 v=0
332388 Par ch=1 c=64 v=63
332404 Par ch=1 c=64 v=0
332484 Par ch=1 c=64 v=63
332502 Par ch=1 c=64 v=127
332566 On ch=1 n=a5 v=91
332624 On ch=1 n=c#6 v=0
332640 On ch=1 n=c#5 v=0
332678 On ch=1 n=a4 v=0
332690 On ch=1 n=e5 v=0
332954 On ch=1 n=c#5 v=69
332976 On ch=1 n=a4 v=50
332986 On ch=1 n=e4 v=58
332988 On ch=1 n=c#6 v=103
333046 On ch=1 n=a5 v=0
333216 Par ch=1 c=64 v=63
333250 Par ch=1 c=64 v=0
333522 Par ch=1 c=64 v=63
333536 Par ch=1 c=64 v=127
333806 On ch=1 n=c#5 v=0
334100 On ch=1 n=a4 v=0
334128 On ch=1 n=b4 v=35
334128 On ch=1 n=g#4 v=63
334154 On ch=1 n=b5 v=69
334190 On ch=1 n=c#6 v=0
334210 Par ch=1 c=64 v=63
334236 Par ch=1 c=64 v=0
334358 Par ch=1 c=64 v=63
334378 Par ch=1 c=64 v=127
334438 On ch=1 n=e5 v=72
334442 On ch=1 n=b5 v=0
334832 On ch=1 n=e6 v=56
334886 On ch=1 n=e5 v=0
335056 Par ch=1 c=64 v=63
335078 Par ch=1 c=64 v=0
335130 On ch=1 n=e5 v=64
335192 Par ch=1 c=64 v=63
335214 Par ch=1 c=64 v=127
335296 On ch=1 n=e6 v=0
335392 On ch=1 n=d#6 v=83
335470 On ch=1 n=e5 v=0
335550 On ch=1 n=e4 v=0
335648 On ch=1 n=d#6 v=0
335652 On ch=1 n=e5 v=71
335718 On ch=1 n=b4 v=0
335754 On ch=1 n=g#4 v=0
335924 Par ch=1 c=64 v=63
335926 On ch=1 n=d6 v=76
335952 On ch=1 n=e5 v=0
335978 Par ch=1 c=64 v=0
336174 Par ch=1 c=64 v=63
336222 Par ch=1 c=64 v=127
336224 On ch=1 n=e5 v=38
336304 On ch=1 n=d6 v=0
336626 On ch=1 n=e5 v=0
336642 On ch=1 n=a4 v=19
336656 On ch=1 n=c#6 v=68
336734 Par ch=1 c=64 v=63
336788 Par ch=1 c=64 v=0
336940 Par ch=1 c=64 v=63
336968 Par ch=1 c=64 v=127
337026 On ch=1 n=e5 v=27
337324 On ch=1 n=c#5 v=36
337332 On ch=1 n=e5 v=0
337342 On ch=1 n=c#6 v=0
337582 On ch=1 n=a4 v=0
337610 On ch=1 n=e5 v=26
337726 On ch=1 n=c#5 v=0
337892 On ch=1 n=a4 v=15
337896 On ch=1 n=c#6 v=71
337926 On ch=1 n=e5 v=0
337996 Par ch=1 c=64 v=63
338036 Par ch=1 c=64 v=0
338156 Par ch=1 c=64 v=63
338178 Par ch=1 c=64 v=127
338194 On ch=1 n=e5 v=27
338438 On ch=1 n=c#5 v=51
338450 On ch=1 n=e5 v=0
338580 On ch=1 n=a4 v=0
338684 On ch=1 n=e5 v=38
338706 On ch=1 n=c#5 v=0
338924 Par ch=1 c=64 v=63
338930 On ch=1 n=a4 v=50
339012 On ch=1 n=e5 v=0
339014 Par ch=1 c=64 v=127
339102 On ch=1 n=c#6 v=0
339186 On ch=1 n=d6 v=68
339226 On ch=1 n=e5 v=34
339256 On ch=1 n=c#6 v=76
339274 On ch=1 n=d6 v=0
339314 On ch=1 n=b5 v=73
339324 On ch=1 n=c#6 v=0
339340 On ch=1 n=a4 v=0
339398 On ch=1 n=c#6 v=88
339418 On ch=1 n=b5 v=0
339430 On ch=1 n=b4 v=65
339466 Par ch=1 c=64 v=63
339486 On ch=1 n=e5 v=0
339508 Par ch=1 c=64 v=0
339610 Par ch=1 c=64 v=63
339630 Par ch=1 c=64 v=127
339674 On ch=1 n=c#6 v=0
339676 On ch=1 n=d6 v=83
339698 On ch=1 n=e5 v=65
339968 On ch=1 n=b4 v=0
340020 Par ch=1 c=64 v=63
340040 On ch=1 n=d6 v=0
340040 On ch=1 n=f#6 v=70
340054 On ch=1 n=c#5 v=54
340056 Par ch=1 c=64 v=0
340130 On ch=1 n=e5 v=0
340222 Par ch=1 c=64 v=63
340238 Par ch=1 c=64 v=127
340378 On ch=1 n=e5 v=39
340552 On ch=1 n=c#5 v=0
340568 Par ch=1 c=64 v=63
340580 On ch=1 n=f#6 v=0
340590 Par ch=1 c=64 v=0
340614 On ch=1 n=a4 v=34
340622 On ch=1 n=e6 v=50
340640 On ch=1 n=e5 v=0
340738 Par ch=1 c=64 v=63
340750 Par ch=1 c=64 v=127
340868 On ch=1 n=e5 v=22
340884 On ch=1 n=e6 v=0
340954 On ch=1 n=a4 v=0
341160 On ch=1 n=c#5 v=44
341168 On ch=1 n=e5 v=0
341182 On ch=1 n=d#7 v=66
341434 Par ch=1 c=64 v=63
341454 On ch=1 n=e5 v=31
341460 Par ch=1 c=64 v=127
341668 Par ch=1 c=64 v=63
341686 On ch=1 n=c#5 v=0
341706 On ch=1 n=d#7 v=0
341720 Par ch=1 c=64 v=127
341744 On ch=1 n=a4 v=45
341778 On ch=1 n=e7 v=45
341820 On ch=1 n=e5 v=0
341932 On ch=1 n=e7 v=0
342052 On ch=1 n=a4 v=0
342056 On ch=1 n=e5 v=31
342228 On ch=1 n=e6 v=41
342330 On ch=1 n=f#6 v=77
342338 On ch=1 n=e6 v=0
342368 On ch=1 n=c#5 v=44
342386 On ch=1 n=e5 v=0
342614 On ch=1 n=e6 v=88
342624 On ch=1 n=e5 v=25
342642 On ch=1 n=c#5 v=0
342662 On ch=1 n=f#6 v=0
342862 On ch=1 n=a4 v=49
342866 On ch=1 n=d6 v=88
342896 On ch=1 n=e6 v=0
342910 On ch=1 n=e5 v=0
343106 On ch=1 n=c#6 v=94
343110 On ch=1 n=a4 v=0
343150 On ch=1 n=e5 v=25
343166 On ch=1 n=d6 v=0
343296 On ch=1 n=c#6 v=0
343372 On ch=1 n=g#4 v=65
343376 On ch=1 n=c#6 v=83
343416 On ch=1 n=e5 v=0
343430 Par ch=1 c=64 v=63
343464 Par ch=1 c=64 v=0
343592 Par ch=1 c=64 v=63
343610 Par ch=1 c=64 v=127
343618 On ch=1 n=e5 v=49
343868 On ch=1 n=b5 v=84
343886 On ch=1 n=d#5 v=58
343896 On ch=1 n=e5 v=0
343956 Par ch=1 c=64 v=63
343962 On ch=1 n=c#6 v=0
344024 Par ch=1 c=64 v=127
344130 On ch=1 n=g#4 v=0
344144 On ch=1 n=e5 v=35
344398 On ch=1 n=g#4 v=75
344416 Par ch=1 c=64 v=63
344442 On ch=1 n=d#5 v=0
344446 On ch=1 n=e5 v=0
344452 Par ch=1 c=64 v=0
344540 Par ch=1 c=64 v=63
344564 Par ch=1 c=64 v=127
344640 On ch=1 n=e5 v=61
344812 On ch=1 n=b5 v=0
344890 On ch=1 n=b5 v=97
344896 On ch=1 n=d#5 v=67
344958 On ch=1 n=e5 v=0
345106 On ch=1 n=g#4 v=0
345124 On ch=1 n=e5 v=69
345226 On ch=1 n=d#5 v=0
345270 Par ch=1 c=64 v=63
345306 Par ch=1 c=64 v=0
345368 Par ch=1 c=64 v=63
345368 On ch=1 n=g#4 v=90
345392 Par ch=1 c=64 v=127
345432 On ch=1 n=e5 v=0
345590 On ch=1 n=c#6 v=74
345598 On ch=1 n=b5 v=0
345620 On ch=1 n=e5 v=54
345644 On ch=1 n=b5 v=57
345670 On ch=1 n=c#6 v=0
345730 On ch=1 n=a#5 v=91
345766 On ch=1 n=g#4 v=0
345770 On ch=1 n=b5 v=0
345812 On ch=1 n=b5 v=98
345834 On ch=1 n=a#5 v=0
345840 On ch=1 n=a4 v=49
345858 Par ch=1 c=64 v=63
345886 On ch=1 n=e5 v=0
345888 Par ch=1 c=64 v=0
345984 Par ch=1 c=64 v=63
346004 Par ch=1 c=64 v=127
346084 On ch=1 n=c#6 v=106
346098 On ch=1 n=e5 v=49
346146 On ch=1 n=b5 v=0
346362 On ch=1 n=a4 v=0
346362 On ch=1 n=b4 v=57
346376 On ch=1 n=e6 v=88
346414 Par ch=1 c=64 v=63
346430 On ch=1 n=e5 v=0
346432 Par ch=1 c=64 v=0
346474 On ch=1 n=c#6 v=0
346570 Par ch=1 c=64 v=63
346580 Par ch=1 c=64 v=127
346632 On ch=1 n=e5 v=68
346828 Par ch=1 c=64 v=63
346848 Par ch=1 c=64 v=0
346930 On ch=1 n=d#5 v=46
346932 On ch=1 n=d6 v=63
346980 On ch=1 n=e5 v=0
346980 On ch=1 n=e6 v=0
347044 Par ch=1 c=64 v=63
347052 Par ch=1 c=64 v=127
347200 On ch=1 n=e5 v=27
347206 On ch=1 n=b4 v=0
347210 On ch=1 n=d6 v=0
347224 On ch=1 n=d#5 v=0
347544 On ch=1 n=g#4 v=36
347554 On ch=1 n=c#7 v=63
347618 On ch=1 n=e5 v=0
347652 Par ch=1 c=64 v=63
347690 Par ch=1 c=64 v=0
347778 Par ch=1 c=64 v=63
347798 Par ch=1 c=64 v=127
347836 On ch=1 n=e5 v=26
348062 On ch=1 n=g#4 v=0
348116 On ch=1 n=b4 v=31
348122 On ch=1 n=d7 v=65
348138 On ch=1 n=c#7 v=0
348176 On ch=1 n=e5 v=0
348226 On ch=1 n=d7 v=0
348390 On ch=1 n=b4 v=0
348428 On ch=1 n=e5 v=17
348552 On ch=1 n=d6 v=65
348710 On ch=1 n=e5 v=0
348724 On ch=1 n=e4 v=18
348728 On ch=1 n=e6 v=52
348734 On ch=1 n=d6 v=0
348742 Par ch=1 c=64 v=63
348776 Par ch=1 c=64 v=0
348882 Par ch=1 c=64 v=63
348902 Par ch=1 c=64 v=127
349016 On ch=1 n=d6 v=74
349018 On ch=1 n=e5 v=29
349050 On ch=1 n=e6 v=0
349268 On ch=1 n=c#6 v=91
349292 On ch=1 n=g#4 v=48
349310 Par ch=1 c=64 v=63
349320 On ch=1 n=e5 v=0
349358 Par ch=1 c=64 v=0
349368 On ch=1 n=d6 v=0
349402 Par ch=1 c=64 v=63
349440 Par ch=1 c=64 v=127
349494 On ch=1 n=e4 v=0
349508 On ch=1 n=b5 v=91
349534 On ch=1 n=e5 v=49
349570 On ch=1 n=g#4 v=0
349592 On ch=1 n=c#6 v=0
349708 On ch=1 n=b5 v=0
349760 On ch=1 n=f#4 v=69
349766 On ch=1 n=b5 v=79
349808 On ch=1 n=e5 v=0
349856 Par ch=1 c=64 v=63
349890 Par ch=1 c=64 v=0
349958 Par ch=1 c=64 v=63
349990 Par ch=1 c=64 v=127
349994 On ch=1 n=e5 v=59
350240 On ch=1 n=d#5 v=75
350248 On ch=1 n=a5 v=79
350282 Par ch=1 c=64 v=63
350286 On ch=1 n=e5 v=0
350304 On ch=1 n=b5 v=0
350310 Par ch=1 c=64 v=0
350368 On ch=1 n=f#4 v=0
350406 Par ch=1 c=64 v=63
350430 Par ch=1 c=64 v=127
350502 On ch=1 n=e5 v=35
350550 On ch=1 n=d#5 v=0
350730 On ch=1 n=f#4 v=81
350740 Par ch=1 c=64 v=63
350778 On ch=1 n=e5 v=0
350788 Par ch=1 c=64 v=0
350828 Par ch=1 c=64 v=63
350862 Par ch=1 c=64 v=127
350914 On ch=1 n=a5 v=0
350966 On ch=1 n=e5 v=55
350974 On ch=1 n=a5 v=94
351146 Par ch=1 c=64 v=63
351180 Par ch=1 c=64 v=0
351222 On ch=1 n=d#5 v=78
351226 On ch=1 n=d6 v=99
351254 On ch=1 n=f#4 v=0
351270 On ch=1 n=e5 v=0
351274 Par ch=1 c=64 v=63
351280 On ch=1 n=a5 v=0
351298 Par ch=1 c=64 v=127
351458 On ch=1 n=c#6 v=108
351464 On ch=1 n=e5 v=59
351518 On ch=1 n=d6 v=0
351562 Par ch=1 c=64 v=63
351570 On ch=1 n=d#5 v=0
351606 Par ch=1 c=64 v=0
351680 Par ch=1 c=64 v=63
351686 On ch=1 n=g#4 v=80
351690 On ch=1 n=a#5 v=103
351708 Par ch=1 c=64 v=127
351748 On ch=1 n=c#6 v=0
351760 On ch=1 n=e5 v=0
351906 On ch=1 n=e5 v=66
351910 Par ch=1 c=64 v=63
351926 On ch=1 n=b5 v=99
351938 Par ch=1 c=64 v=0
351976 On ch=1 n=a#5 v=0
352152 On ch=1 n=d#5 v=76
352164 On ch=1 n=e6 v=92
352208 On ch=1 n=e5 v=0
352228 On ch=1 n=b5 v=0
352388 On ch=1 n=d6 v=101
352392 On ch=1 n=e5 v=68
352418 On ch=1 n=g#4 v=0
352422 On ch=1 n=e6 v=0
352438 On ch=1 n=d#5 v=0
352692 On ch=1 n=d6 v=0
352694 On ch=1 n=c6 v=97
352702 On ch=1 n=a4 v=63
352790 On ch=1 n=e5 v=0
352950 On ch=1 n=c#6 v=107
352976 Par ch=1 c=64 v=63
352978 Par ch=1 c=64 v=127
353000 On ch=1 n=c6 v=0
353202 On ch=1 n=a6 v=96
353204 On ch=1 n=c#6 v=0
353374 On ch=1 n=a6 v=0
353430 On ch=1 n=a6 v=102
353530 On ch=1 n=a4 v=0
353590 On ch=1 n=a6 v=0
353662 On ch=1 n=a6 v=107
353818 Par ch=1 c=64 v=63
353824 Par ch=1 c=64 v=0
353828 On ch=1 n=a6 v=0
353888 On ch=1 n=a6 v=100
353974 Par ch=1 c=64 v=63
353976 Par ch=1 c=64 v=127
354072 On ch=1 n=a6 v=0
354128 On ch=1 n=a6 v=96
354310 On ch=1 n=a6 v=0
354378 On ch=1 n=a6 v=104
354492 On ch=1 n=a6 v=0
354688 On ch=1 n=a6 v=97
354692 On ch=1 n=b4 v=88
354712 On ch=1 n=f#4 v=74
354720 On ch=1 n=d4 v=70
354822 Par ch=1 c=64 v=63
354826 Par ch=1 c=64 v=0
354970 Par ch=1 c=64 v=63
354976 Par ch=1 c=64 v=127
354996 On ch=1 n=f#6 v=91
355026 On ch=1 n=a6 v=0
355224 On ch=1 n=d6 v=93
355274 On ch=1 n=f#6 v=0
355376 On ch=1 n=b4 v=0
355420 On ch=1 n=d4 v=0
355444 On ch=1 n=b5 v=96
355460 On ch=1 n=f#4 v=0
355482 On ch=1 n=d6 v=0
355708 On ch=1 n=c#5 v=82
355714 On ch=1 n=e6 v=94
355718 On ch=1 n=a4 v=59
355730 On ch=1 n=b5 v=0
355732 On ch=1 n=e4 v=59
355782 Par ch=1 c=64 v=63
355788 Par ch=1 c=64 v=0
355900 Par ch=1 c=64 v=63
355912 Par ch=1 c=64 v=127
355970 On ch=1 n=e6 v=0
355982 On ch=1 n=f#6 v=81
356060 On ch=1 n=e6 v=71
356070 On ch=1 n=f#6 v=0
356112 On ch=1 n=d#6 v=89
356130 On ch=1 n=e6 v=0
356178 On ch=1 n=e6 v=88
356200 On ch=1 n=d#6 v=0
356292 Par ch=1 c=64 v=63
356308 Par ch=1 c=64 v=0
356468 On ch=1 n=f#6 v=89
356508 On ch=1 n=e6 v=0
356844 On ch=1 n=a5 v=79
356856 On ch=1 n=f#6 v=0
357468 Par ch=1 c=64 v=63
357472 Par ch=1 c=64 v=127
357624 On ch=1 n=a4 v=0
357690 On ch=1 n=c#5 v=0
358060 On ch=1 n=d5 v=47
358064 On ch=1 n=b4 v=50
358126 Par ch=1 c=64 v=63
358146 Par ch=1 c=64 v=0
358260 Par ch=1 c=64 v=63
358282 Par ch=1 c=64 v=127
358582 On ch=1 n=a5 v=0
358696 On ch=1 n=g#5 v=59
358700 On ch=1 n=b5 v=76
358850 Par ch=1 c=64 v=63
358870 Par ch=1 c=64 v=0
358958 Par ch=1 c=64 v=63
358978 Par ch=1 c=64 v=127
359094 On ch=1 n=e4 v=0
359132 On ch=1 n=d5 v=0
359154 On ch=1 n=g#5 v=0
359160 On ch=1 n=b4 v=0
359166 On ch=1 n=b5 v=0
359444 On ch=1 n=b5 v=76
359450 On ch=1 n=a4 v=29
359452 On ch=1 n=g#5 v=62
359456 On ch=1 n=e5 v=49
359466 On ch=1 n=d5 v=39
359642 Par ch=1 c=64 v=63
359672 Par ch=1 c=64 v=0
360810 Par ch=1 c=64 v=63
360822 Par ch=1 c=64 v=127
361580 On ch=1 n=c6 v=47
361614 On ch=1 n=b5 v=0
361624 Par ch=1 c=64 v=63
361732 Par ch=1 c=64 v=127
361908 On ch=1 n=g#5 v=0
361956 On ch=1 n=c6 v=0
362074 On ch=1 n=d5 v=0
362402 On ch=1 n=c#6 v=51
362422 On ch=1 n=c#5 v=37
362432 On ch=1 n=a5 v=34
362546 Par ch=1 c=64 v=63
362576 Par ch=1 c=64 v=0
362668 Par ch=1 c=64 v=63
362698 Par ch=1 c=64 v=127
363240 On ch=1 n=e5 v=0
363314 On ch=1 n=c#5 v=0
363386 On ch=1 n=a5 v=0
363386 On ch=1 n=a4 v=0
363522 On ch=1 n=c#6 v=0
363856 On ch=1 n=e5 v=82
363894 Par ch=1 c=64 v=63
363920 Par ch=1 c=64 v=0
363948 On ch=1 n=a5 v=77
364092 On ch=1 n=a3 v=51
364116 On ch=1 n=c#6 v=105
364488 On ch=1 n=c#4 v=70
364604 Par ch=1 c=64 v=63
364608 Par ch=1 c=64 v=127
364662 On ch=1 n=e5 v=0
364746 On ch=1 n=e4 v=75
364830 On ch=1 n=a5 v=0
364972 On ch=1 n=a4 v=82
365016 On ch=1 n=a3 v=0
365058 On ch=1 n=c#4 v=0
365088 On ch=1 n=c#6 v=0
365122 On ch=1 n=e4 v=0
365204 On ch=1 n=a3 v=86
365304 On ch=1 n=a4 v=0
365414 On ch=1 n=e6 v=96
365496 On ch=1 n=c#4 v=65
365534 Par ch=1 c=64 v=63
365576 On ch=1 n=d6 v=96
365626 Par ch=1 c=64 v=127
365630 On ch=1 n=e6 v=0
365742 On ch=1 n=c#6 v=98
365754 On ch=1 n=e4 v=73
365804 On ch=1 n=d6 v=0
365898 On ch=1 n=a3 v=0
365906 On ch=1 n=d6 v=92
365920 On ch=1 n=c#6 v=0
365946 On ch=1 n=a4 v=63
365966 On ch=1 n=c#4 v=0
366020 On ch=1 n=e4 v=0
366066 On ch=1 n=e6 v=96
366108 On ch=1 n=d6 v=0
366124 Par ch=1 c=64 v=63
366146 Par ch=1 c=64 v=0
366200 On ch=1 n=b3 v=82
366208 On ch=1 n=d6 v=93
366238 Par ch=1 c=64 v=63
366242 On ch=1 n=e6 v=0
366254 Par ch=1 c=64 v=127
366286 On ch=1 n=a4 v=0
366362 On ch=1 n=f#6 v=94
366376 On ch=1 n=d6 v=0
366434 On ch=1 n=d4 v=81
366460 On ch=1 n=b3 v=0
366520 On ch=1 n=e6 v=98
366528 On ch=1 n=f#6 v=0
366594 Par ch=1 c=64 v=63
366644 On ch=1 n=d6 v=93
366650 Par ch=1 c=64 v=0
366652 On ch=1 n=g#4 v=96
366672 Par ch=1 c=64 v=63
366688 On ch=1 n=e6 v=0
366716 Par ch=1 c=64 v=127
366802 On ch=1 n=e6 v=97
366830 On ch=1 n=d4 v=0
366854 On ch=1 n=d6 v=0
366876 On ch=1 n=b4 v=68
366908 On ch=1 n=g#4 v=0
366950 On ch=1 n=f#6 v=103
366974 On ch=1 n=e6 v=0
367008 On ch=1 n=b4 v=0
367090 On ch=1 n=f#6 v=0
367110 On ch=1 n=e6 v=102
367114 On ch=1 n=a4 v=67
367124 Par ch=1 c=64 v=63
367124 On ch=1 n=c#4 v=75
367142 Par ch=1 c=64 v=0
367258 Par ch=1 c=64 v=63
367274 Par ch=1 c=64 v=127
367290 On ch=1 n=a5 v=78
367300 On ch=1 n=e6 v=0
367402 On ch=1 n=a5 v=0
367422 On ch=1 n=b5 v=84
367508 On ch=1 n=c#6 v=89
367522 On ch=1 n=b5 v=0
367610 On ch=1 n=c#6 v=0
367620 Par ch=1 c=64 v=63
367622 On ch=1 n=d6 v=80
367644 Par ch=1 c=64 v=0
367732 On ch=1 n=e6 v=88
367734 On ch=1 n=d6 v=0
367838 On ch=1 n=f#6 v=105
367864 On ch=1 n=e6 v=0
367872 Par ch=1 c=64 v=63
367886 Par ch=1 c=64 v=127
367950 On ch=1 n=g#6 v=95
367960 On ch=1 n=f#6 v=0
368046 On ch=1 n=g#6 v=0
368060 On ch=1 n=a6 v=80
368150 Par ch=1 c=64 v=63
368158 On ch=1 n=b6 v=82
368160 On ch=1 n=a6 v=0
368162 Par ch=1 c=64 v=0
368264 On ch=1 n=c#7 v=94
368286 On ch=1 n=b6 v=0
368386 On ch=1 n=b6 v=83
368388 On ch=1 n=c#7 v=0
368472 On ch=1 n=b6 v=0
368482 On ch=1 n=a6 v=79
368582 On ch=1 n=g#6 v=98
368584 On ch=1 n=a6 v=0
368676 On ch=1 n=f#6 v=98
368702 On ch=1 n=g#6 v=0
368712 On ch=1 n=a4 v=0
368750 On ch=1 n=c#4 v=0
368768 On ch=1 n=f6 v=87
368778 On ch=1 n=f#6 v=0
368844 On ch=1 n=a4 v=78
368860 On ch=1 n=d4 v=67
368880 On ch=1 n=f6 v=0
368880 On ch=1 n=f#6 v=99
368982 On ch=1 n=g#6 v=99
369010 On ch=1 n=f#6 v=0
369086 On ch=1 n=a6 v=89
369098 On ch=1 n=g#6 v=0
369186 On ch=1 n=g#6 v=92
369214 On ch=1 n=a6 v=0
369286 On ch=1 n=b6 v=83
369302 On ch=1 n=g#6 v=0
369398 On ch=1 n=a6 v=87
369434 On ch=1 n=b6 v=0
369504 On ch=1 n=g#6 v=93
369516 On ch=1 n=a4 v=0
369530 On ch=1 n=a6 v=0
369606 On ch=1 n=f#6 v=98
369658 On ch=1 n=g#6 v=0
369662 On ch=1 n=d4 v=0
369786 On ch=1 n=e6 v=97
369794 On ch=1 n=f#6 v=0
369796 On ch=1 n=c#5 v=74
369822 On ch=1 n=e4 v=64
370118 On ch=1 n=e7 v=77
370228 Par ch=1 c=64 v=63
370230 On ch=1 n=e6 v=0
370262 Par ch=1 c=64 v=127
370382 On ch=1 n=c#7 v=99
370434 On ch=1 n=e7 v=0
370620 On ch=1 n=a6 v=99
370650 On ch=1 n=c#5 v=0
370656 On ch=1 n=c#7 v=0
370662 On ch=1 n=e4 v=0
370846 On ch=1 n=a6 v=0
370886 On ch=1 n=c#5 v=83
370892 On ch=1 n=e6 v=77
370896 On ch=1 n=e4 v=70
370928 Par ch=1 c=64 v=63
370956 Par ch=1 c=64 v=0
371070 Par ch=1 c=64 v=63
371094 Par ch=1 c=64 v=127
371198 On ch=1 n=a6 v=85
371214 On ch=1 n=e6 v=0
371480 On ch=1 n=e6 v=81
371502 Par ch=1 c=64 v=63
371510 On ch=1 n=a6 v=0
371534 Par ch=1 c=64 v=0
371628 Par ch=1 c=64 v=63
371654 Par ch=1 c=64 v=127
371752 On ch=1 n=c#6 v=91
371766 On ch=1 n=e4 v=0
371774 On ch=1 n=e6 v=0
371834 On ch=1 n=c#5 v=0
372062 On ch=1 n=e6 v=70
372070 On ch=1 n=c#6 v=0
372078 On ch=1 n=d5 v=46
372078 On ch=1 n=g#4 v=57
372084 On ch=1 n=e4 v=38
372100 Par ch=1 c=64 v=63
372138 Par ch=1 c=64 v=0
372424 On ch=1 n=d6 v=71
372438 On ch=1 n=e6 v=0
372770 On ch=1 n=c#6 v=71
372788 Par ch=1 c=64 v=63
372818 Par ch=1 c=64 v=127
372824 On ch=1 n=d6 v=0
372922 Par ch=1 c=64 v=63
372944 Par ch=1 c=64 v=0
373132 Par ch=1 c=64 v=63
373166 On ch=1 n=b5 v=62
373170 Par ch=1 c=64 v=127
373248 On ch=1 n=c#6 v=0
373332 On ch=1 n=e4 v=0
373352 On ch=1 n=d5 v=0
373426 On ch=1 n=b5 v=0
373432 On ch=1 n=g#4 v=0
373718 On ch=1 n=g#5 v=57
373724 On ch=1 n=b5 v=66
373734 On ch=1 n=d5 v=32
373736 On ch=1 n=e5 v=39
373736 On ch=1 n=a4 v=35
373874 Par ch=1 c=64 v=63
373944 Par ch=1 c=64 v=0
374782 Par ch=1 c=64 v=63
374894 Par ch=1 c=64 v=127
374926 Par ch=1 c=64 v=63
375052 Par ch=1 c=64 v=0
375452 Par ch=1 c=64 v=63
375482 Par ch=1 c=64 v=127
375888 Par ch=1 c=64 v=63
375936 Par ch=1 c=64 v=0
376010 Par ch=1 c=64 v=63
376054 Par ch=1 c=64 v=127
376698 On ch=1 n=d5 v=0
376814 On ch=1 n=g#5 v=0
377036 On ch=1 n=a5 v=35
377044 On ch=1 n=c#5 v=20
377070 On ch=1 n=b5 v=0
377228 Par ch=1 c=64 v=63
377386 Par ch=1 c=64 v=0
377654 Par ch=1 c=64 v=63
379492 On ch=1 n=c#5 v=0
379502 On ch=1 n=e5 v=0
379536 On ch=1 n=a5 v=0
379630 On ch=1 n=a4 v=0
380228 Par ch=1 c=64 v=0
380734 On ch=1 n=c#6 v=94
380734 On ch=1 n=a4 v=64
380776 On ch=1 n=c#6 v=0
380966 On ch=1 n=d6 v=85
380972 On ch=1 n=a4 v=0
380998 On ch=1 n=e5 v=52
381014 On ch=1 n=c#6 v=69
381024 On ch=1 n=d6 v=0
381058 On ch=1 n=b5 v=80
381060 On ch=1 n=c#6 v=0
381124 On ch=1 n=c#6 v=94
381126 On ch=1 n=b4 v=57
381142 On ch=1 n=e5 v=0
381144 On ch=1 n=b5 v=0
381186 On ch=1 n=c#6 v=0
381338 On ch=1 n=d6 v=88
381346 On ch=1 n=b4 v=0
381362 On ch=1 n=e5 v=40
381398 On ch=1 n=d6 v=0
381552 On ch=1 n=f#6 v=105
381560 On ch=1 n=c#5 v=73
381574 On ch=1 n=e5 v=0
381738 On ch=1 n=f#6 v=0
381752 On ch=1 n=e6 v=94
381762 On ch=1 n=c#5 v=0
381798 On ch=1 n=e5 v=19
381828 On ch=1 n=e6 v=0
381958 On ch=1 n=d6 v=88
381970 On ch=1 n=a4 v=60
381974 On ch=1 n=e5 v=0
382022 On ch=1 n=d6 v=0
382110 On ch=1 n=a4 v=0
382158 On ch=1 n=c#6 v=93
382182 On ch=1 n=e5 v=44
382202 On ch=1 n=c#6 v=0
382360 On ch=1 n=g#4 v=63
382360 On ch=1 n=b5 v=84
382380 On ch=1 n=e5 v=0
382412 On ch=1 n=b5 v=0
382530 On ch=1 n=g#4 v=0
382568 On ch=1 n=c#6 v=88
382590 On ch=1 n=e5 v=41
382614 On ch=1 n=b5 v=84
382626 On ch=1 n=c#6 v=0
382690 On ch=1 n=a#5 v=93
382696 On ch=1 n=b5 v=0
382732 On ch=1 n=b5 v=96
382744 On ch=1 n=a#5 v=0
382766 On ch=1 n=e5 v=0
382774 On ch=1 n=a4 v=47
382802 On ch=1 n=b5 v=0
382948 On ch=1 n=c#6 v=104
382952 On ch=1 n=a4 v=0
382966 On ch=1 n=e5 v=45
383018 On ch=1 n=c#6 v=0
383162 On ch=1 n=e6 v=92
383168 On ch=1 n=e5 v=0
383168 On ch=1 n=b4 v=59
383346 On ch=1 n=e6 v=0
383356 On ch=1 n=d6 v=86
383358 On ch=1 n=b4 v=0
383386 On ch=1 n=e5 v=27
383416 On ch=1 n=d6 v=0
383516 On ch=1 n=e5 v=0
383560 On ch=1 n=c#6 v=99
383576 On ch=1 n=d5 v=59
383630 On ch=1 n=c#6 v=0
383744 On ch=1 n=d5 v=0
383764 On ch=1 n=b5 v=83
383808 On ch=1 n=b5 v=0
383808 On ch=1 n=e5 v=10
383962 On ch=1 n=g#5 v=98
383968 On ch=1 n=e5 v=0
383972 On ch=1 n=c#5 v=67
384150 On ch=1 n=g#5 v=0
384164 On ch=1 n=a5 v=88
384172 On ch=1 n=c#5 v=0
384190 On ch=1 n=e5 v=29
384220 On ch=1 n=a5 v=0
384374 On ch=1 n=c#5 v=72
384376 On ch=1 n=e5 v=0
384564 On ch=1 n=c#5 v=0
384590 On ch=1 n=a#5 v=93
384606 On ch=1 n=e5 v=46
384622 On ch=1 n=a#5 v=0
384780 On ch=1 n=g#4 v=75
384804 On ch=1 n=e5 v=0
384944 On ch=1 n=g#4 v=0
384974 On ch=1 n=b5 v=90
384992 On ch=1 n=e5 v=46
385034 On ch=1 n=b5 v=0
385164 On ch=1 n=g#4 v=70
385176 On ch=1 n=e5 v=0
385308 On ch=1 n=g#4 v=0
385356 On ch=1 n=c6 v=84
385376 On ch=1 n=e5 v=32
385408 On ch=1 n=c6 v=0
385548 On ch=1 n=d6 v=94
385552 On ch=1 n=e5 v=0
385564 On ch=1 n=a4 v=53
385572 On ch=1 n=c#6 v=101
385624 On ch=1 n=d6 v=0
385638 On ch=1 n=c#6 v=0
385688 On ch=1 n=a4 v=0
385748 On ch=1 n=e5 v=27
385748 On ch=1 n=c#6 v=97
385794 On ch=1 n=c#6 v=0
385932 On ch=1 n=e5 v=0
385932 On ch=1 n=e6 v=97
385954 On ch=1 n=d6 v=92
385956 On ch=1 n=b4 v=66
385994 On ch=1 n=d6 v=0
385996 On ch=1 n=e6 v=0
386092 On ch=1 n=b4 v=0
386132 On ch=1 n=e5 v=51
386142 On ch=1 n=d6 v=98
386212 On ch=1 n=d6 v=0
386308 On ch=1 n=e5 v=0
386340 On ch=1 n=c#6 v=112
386348 On ch=1 n=e4 v=67
386352 On ch=1 n=a4 v=59
386388 Par ch=1 c=64 v=127
386758 Par ch=1 c=64 v=63
386760 Par ch=1 c=64 v=0
386768 On ch=1 n=b5 v=81
386774 On ch=1 n=g#4 v=79
386830 On ch=1 n=c#6 v=0
386832 On ch=1 n=a4 v=0
386858 Par ch=1 c=64 v=63
386862 Par ch=1 c=64 v=127
386874 On ch=1 n=g#4 v=0
386876 On ch=1 n=e4 v=0
386882 On ch=1 n=b5 v=0
387070 Par ch=1 c=64 v=63
387074 Par ch=1 c=64 v=0
387158 On ch=1 n=a2 v=103
387180 On ch=1 n=c#3 v=104
387192 On ch=1 n=e3 v=97
387212 On ch=1 n=c#6 v=119
387222 Par ch=1 c=64 v=127
387238 On ch=1 n=a3 v=120
387242 On ch=1 n=a2 v=0
387272 On ch=1 n=c#3 v=0
387274 On ch=1 n=e3 v=0
387280 On ch=1 n=a5 v=75
387304 On ch=1 n=a3 v=0
387316 On ch=1 n=c#6 v=0
387390 On ch=1 n=a5 v=0
387392 On ch=1 n=e5 v=83
387484 On ch=1 n=e5 v=0
387514 On ch=1 n=a5 v=70
387584 On ch=1 n=c#6 v=94
387608 On ch=1 n=a5 v=0
387642 Par ch=1 c=64 v=63
387648 Par ch=1 c=64 v=0
387678 On ch=1 n=a5 v=97
387692 On ch=1 n=c#6 v=0
387756 On ch=1 n=a5 v=0
387810 On ch=1 n=d6 v=91
387856 On ch=1 n=b5 v=91
387882 On ch=1 n=a4 v=55
387900 On ch=1 n=d6 v=0
387942 On ch=1 n=b5 v=0
387948 On ch=1 n=c#5 v=74
387996 On ch=1 n=e5 v=91
388004 On ch=1 n=e6 v=108
388006 On ch=1 n=a5 v=121
388008 Par ch=1 c=64 v=127
388066 On ch=1 n=a5 v=0
388072 On ch=1 n=a4 v=0
388074 On ch=1 n=e5 v=0
388080 On ch=1 n=c#5 v=0
388102 On ch=1 n=c#6 v=104
388130 On ch=1 n=e6 v=0
388182 On ch=1 n=c#6 v=0
388218 On ch=1 n=e6 v=68
388302 On ch=1 n=c#6 v=96
388304 On ch=1 n=e6 v=0
388382 On ch=1 n=c#6 v=0
388402 On ch=1 n=f#6 v=103
388434 Par ch=1 c=64 v=63
388442 Par ch=1 c=64 v=0
388484 On ch=1 n=f#6 v=0
388510 On ch=1 n=e6 v=89
388598 On ch=1 n=d6 v=98
388620 On ch=1 n=e6 v=0
388678 On ch=1 n=c#6 v=100
388686 On ch=1 n=d6 v=0
388704 On ch=1 n=e3 v=79
388730 On ch=1 n=c#6 v=0
388750 On ch=1 n=g#3 v=77
388780 On ch=1 n=b3 v=99
388796 Par ch=1 c=64 v=127
388804 On ch=1 n=b5 v=111
388806 On ch=1 n=e4 v=116
388810 On ch=1 n=e3 v=0
388844 On ch=1 n=g#3 v=0
388854 On ch=1 n=b3 v=0
388868 On ch=1 n=e4 v=0
388886 On ch=1 n=g#5 v=105
388906 On ch=1 n=b5 v=0
388966 On ch=1 n=g#5 v=0
389008 On ch=1 n=e5 v=65
389074 On ch=1 n=e5 v=0
389092 On ch=1 n=g#5 v=85
389168 On ch=1 n=g#5 v=0
389174 Par ch=1 c=64 v=63
389176 Par ch=1 c=64 v=0
389186 On ch=1 n=b5 v=92
389274 On ch=1 n=b5 v=0
389292 On ch=1 n=g#5 v=89
389384 On ch=1 n=g#5 v=0
389390 On ch=1 n=c#6 v=101
389482 On ch=1 n=a5 v=89
389486 On ch=1 n=c#6 v=0
389508 On ch=1 n=e4 v=77
389546 On ch=1 n=a5 v=0
389554 On ch=1 n=g#4 v=80
389580 On ch=1 n=d6 v=100
389586 On ch=1 n=b4 v=97
389610 On ch=1 n=e5 v=111
389616 Par ch=1 c=64 v=127
389620 On ch=1 n=e4 v=0
389658 On ch=1 n=g#4 v=0
389668 On ch=1 n=b4 v=0
389680 On ch=1 n=b5 v=99
389688 On ch=1 n=e5 v=0
389688 On ch=1 n=d6 v=0
389770 On ch=1 n=b5 v=0
389788 On ch=1 n=d6 v=89
389880 On ch=1 n=b5 v=80
389884 On ch=1 n=d6 v=0
389952 On ch=1 n=b5 v=0
389984 Par ch=1 c=64 v=63
389992 Par ch=1 c=64 v=0
390006 On ch=1 n=e6 v=75
390082 On ch=1 n=d6 v=86
390106 On ch=1 n=e6 v=0
390172 On ch=1 n=d6 v=0
390198 On ch=1 n=c#6 v=76
390274 On ch=1 n=c#6 v=0
390292 On ch=1 n=b5 v=72
390360 On ch=1 n=b5 v=0
390380 On ch=1 n=f#3 v=89
390400 On ch=1 n=a5 v=68
390436 On ch=1 n=f#3 v=0
390470 On ch=1 n=a5 v=0
390502 On ch=1 n=c#6 v=93
390590 On ch=1 n=f#4 v=88
390596 On ch=1 n=c#6 v=0
390602 On ch=1 n=b5 v=76
390656 On ch=1 n=f#4 v=0
390682 On ch=1 n=b5 v=0
390700 On ch=1 n=a5 v=67
390768 On ch=1 n=a5 v=0
390778 On ch=1 n=b5 v=85
390782 On ch=1 n=g#3 v=97
390864 On ch=1 n=g#3 v=0
390874 On ch=1 n=d6 v=91
390876 On ch=1 n=b5 v=0
390970 On ch=1 n=c#6 v=104
390980 On ch=1 n=g#4 v=89
390982 On ch=1 n=d6 v=0
391050 On ch=1 n=c#6 v=0
391058 On ch=1 n=g#4 v=0
391066 On ch=1 n=b5 v=89
391142 On ch=1 n=b5 v=0
391178 On ch=1 n=a4 v=76
391180 On ch=1 n=c#6 v=105
391244 On ch=1 n=a4 v=0
391248 On ch=1 n=c#6 v=0
391272 On ch=1 n=e6 v=97
391360 On ch=1 n=e6 v=0
391374 On ch=1 n=a6 v=88
391388 On ch=1 n=c#5 v=90
391454 On ch=1 n=a6 v=0
391458 On ch=1 n=c#5 v=0
391460 On ch=1 n=e6 v=88
391528 On ch=1 n=e6 v=0
391554 On ch=1 n=f#6 v=99
391570 On ch=1 n=d5 v=86
391636 On ch=1 n=d5 v=0
391652 On ch=1 n=f#6 v=0
391656 On ch=1 n=a6 v=81
391724 On ch=1 n=a6 v=0
391742 On ch=1 n=b5 v=90
391766 On ch=1 n=g#4 v=91
391814 On ch=1 n=b5 v=0
391816 On ch=1 n=g#4 v=0
391844 On ch=1 n=d6 v=85
391934 On ch=1 n=d6 v=0
391954 On ch=1 n=c#6 v=92
391964 On ch=1 n=a4 v=81
392028 On ch=1 n=a4 v=0
392040 On ch=1 n=e6 v=83
392044 On ch=1 n=c#6 v=0
392134 On ch=1 n=e6 v=0
392148 On ch=1 n=a5 v=73
392170 On ch=1 n=f#4 v=89
392216 On ch=1 n=a5 v=0
392224 On ch=1 n=f#4 v=0
392238 On ch=1 n=c#6 v=97
392344 On ch=1 n=b5 v=84
392346 On ch=1 n=c#6 v=0
392378 On ch=1 n=d4 v=89
392424 On ch=1 n=d4 v=0
392424 On ch=1 n=d6 v=87
392438 On ch=1 n=b5 v=0
392540 On ch=1 n=d6 v=0
392542 On ch=1 n=g#5 v=89
392572 On ch=1 n=e4 v=78
392626 On ch=1 n=e4 v=0
392632 On ch=1 n=g#5 v=0
392632 On ch=1 n=b5 v=84
392726 On ch=1 n=b5 v=0
392732 On ch=1 n=a5 v=94
392744 On ch=1 n=a3 v=106
392800 On ch=1 n=a5 v=0
392804 On ch=1 n=a3 v=0
392856 On ch=1 n=e5 v=52
392934 On ch=1 n=c#5 v=97
392948 On ch=1 n=e5 v=0
393056 On ch=1 n=e5 v=83
393064 On ch=1 n=c#5 v=0
393076 On ch=1 n=a2 v=74
393118 On ch=1 n=c#3 v=96
393134 On ch=1 n=e3 v=108
393148 On ch=1 n=a5 v=112
393152 On ch=1 n=a3 v=117
393176 On ch=1 n=a2 v=0
393176 Par ch=1 c=64 v=127
393186 On ch=1 n=e5 v=0
393202 On ch=1 n=c#3 v=0
393204 On ch=1 n=e3 v=0
393220 On ch=1 n=a5 v=0
393226 On ch=1 n=a3 v=0
393420 Par ch=1 c=64 v=63
393422 Par ch=1 c=64 v=0
393654 On ch=1 n=a4 v=99
393664 On ch=1 n=a5 v=100
393676 Par ch=1 c=64 v=63
393678 Par ch=1 c=64 v=127
393758 On ch=1 n=a5 v=0
393760 On ch=1 n=b5 v=103
393858 On ch=1 n=c#6 v=106
393874 On ch=1 n=e5 v=73
393878 On ch=1 n=b5 v=0
393944 On ch=1 n=c#6 v=0
393948 On ch=1 n=d6 v=97
393956 On ch=1 n=a4 v=0
393986 Par ch=1 c=64 v=63
394000 Par ch=1 c=64 v=0
394054 On ch=1 n=e6 v=93
394056 On ch=1 n=d6 v=0
394078 On ch=1 n=c#5 v=88
394104 On ch=1 n=e5 v=0
394146 On ch=1 n=f#6 v=101
394186 On ch=1 n=e6 v=0
394272 On ch=1 n=g#6 v=95
394284 On ch=1 n=c#5 v=0
394288 On ch=1 n=e5 v=60
394316 On ch=1 n=f#6 v=0
394358 On ch=1 n=a6 v=85
394402 On ch=1 n=g#6 v=0
394448 On ch=1 n=a6 v=0
394460 On ch=1 n=g#6 v=94
394462 On ch=1 n=a4 v=62
394484 On ch=1 n=e5 v=0
394566 Par ch=1 c=64 v=63
394566 On ch=1 n=f#6 v=98
394568 On ch=1 n=g#6 v=0
394584 Par ch=1 c=64 v=127
394664 On ch=1 n=f6 v=85
394670 On ch=1 n=f#6 v=0
394684 On ch=1 n=f#5 v=83
394766 On ch=1 n=f#6 v=107
394768 Par ch=1 c=64 v=63
394780 On ch=1 n=f6 v=0
394782 Par ch=1 c=64 v=0
394862 On ch=1 n=f6 v=98
394870 On ch=1 n=f#6 v=0
394870 On ch=1 n=d5 v=71
394880 On ch=1 n=f#5 v=0
394940 On ch=1 n=a4 v=0
394960 On ch=1 n=f6 v=0
394962 Par ch=1 c=64 v=63
394966 On ch=1 n=f#6 v=103
394974 Par ch=1 c=64 v=127
395056 On ch=1 n=f#5 v=76
395064 On ch=1 n=f#6 v=0
395064 On ch=1 n=f6 v=96
395076 On ch=1 n=d5 v=0
395154 On ch=1 n=f6 v=0
395154 On ch=1 n=f#6 v=103
395206 Par ch=1 c=64 v=63
395220 Par ch=1 c=64 v=0
395258 On ch=1 n=a6 v=99
395262 On ch=1 n=f#6 v=0
395262 On ch=1 n=a4 v=61
395278 On ch=1 n=f#5 v=0
395328 Par ch=1 c=64 v=63
395342 Par ch=1 c=64 v=127
395348 On ch=1 n=g#6 v=103
395374 On ch=1 n=a6 v=0
395442 On ch=1 n=f#5 v=72
395454 On ch=1 n=a6 v=96
395470 On ch=1 n=g#6 v=0
395502 Par ch=1 c=64 v=63
395516 Par ch=1 c=64 v=0
395554 On ch=1 n=g#6 v=98
395586 On ch=1 n=a6 v=0
395622 On ch=1 n=a4 v=0
395644 On ch=1 n=f#5 v=0
395650 On ch=1 n=d5 v=67
395656 On ch=1 n=b6 v=87
395670 On ch=1 n=g#6 v=0
395758 On ch=1 n=a6 v=92
395798 Par ch=1 c=64 v=63
395800 On ch=1 n=b6 v=0
395818 Par ch=1 c=64 v=127
395832 On ch=1 n=g#6 v=90
395862 On ch=1 n=f#5 v=69
395878 On ch=1 n=a6 v=0
395880 On ch=1 n=d5 v=0
395932 On ch=1 n=f#6 v=97
395968 On ch=1 n=g#6 v=0
395996 On ch=1 n=f#6 v=0
396014 On ch=1 n=f#5 v=0
396032 Par ch=1 c=64 v=63
396040 Par ch=1 c=64 v=0
396046 On ch=1 n=a4 v=80
396052 On ch=1 n=f#6 v=97
396134 Par ch=1 c=64 v=63
396138 On ch=1 n=f#6 v=0
396140 On ch=1 n=e6 v=84
396146 Par ch=1 c=64 v=127
396230 On ch=1 n=e6 v=0
396230 On ch=1 n=a4 v=0
396230 On ch=1 n=e5 v=53
396248 Par ch=1 c=64 v=63
396252 On ch=1 n=d#6 v=98
396254 Par ch=1 c=64 v=0
396342 On ch=1 n=d#6 v=0
396346 On ch=1 n=e6 v=85
396392 Par ch=1 c=64 v=63
396394 Par ch=1 c=64 v=127
396426 On ch=1 n=c#5 v=83
396428 On ch=1 n=e5 v=0
396436 On ch=1 n=e6 v=0
396436 On ch=1 n=d#6 v=99
396518 On ch=1 n=d#6 v=0
396528 On ch=1 n=e6 v=84
396552 On ch=1 n=c#5 v=0
396590 On ch=1 n=e5 v=76
396616 On ch=1 n=d#6 v=97
396620 On ch=1 n=e6 v=0
396634 On ch=1 n=e5 v=0
396700 On ch=1 n=d#6 v=0
396732 On ch=1 n=e6 v=90
396780 On ch=1 n=a3 v=42
396782 Par ch=1 c=64 v=63
396788 Par ch=1 c=64 v=0
396806 On ch=1 n=e6 v=0
396816 On ch=1 n=c#4 v=91
396836 On ch=1 n=e4 v=102
396860 On ch=1 n=e6 v=93
396882 On ch=1 n=a4 v=93
396892 Par ch=1 c=64 v=63
396894 Par ch=1 c=64 v=127
396970 On ch=1 n=e6 v=0
396972 On ch=1 n=a6 v=106
397060 On ch=1 n=c#7 v=96
397074 On ch=1 n=a6 v=0
397112 On ch=1 n=a4 v=0
397132 On ch=1 n=a3 v=0
397180 On ch=1 n=b6 v=63
397184 On ch=1 n=c#4 v=0
397188 On ch=1 n=e4 v=0
397192 On ch=1 n=c#7 v=0
397260 On ch=1 n=a6 v=98
397296 Par ch=1 c=64 v=63
397298 On ch=1 n=b6 v=0
397306 Par ch=1 c=64 v=0
397342 On ch=1 n=a6 v=0
397360 On ch=1 n=g#6 v=99
397440 On ch=1 n=f#6 v=107
397476 On ch=1 n=g#6 v=0
397516 On ch=1 n=b3 v=73
397546 On ch=1 n=e6 v=98
397590 On ch=1 n=d4 v=80
397600 On ch=1 n=f#6 v=0
397640 On ch=1 n=b3 v=0
397650 On ch=1 n=e6 v=0
397650 On ch=1 n=g#4 v=113
397650 On ch=1 n=d6 v=99
397652 Par ch=1 c=64 v=127
397668 On ch=1 n=b4 v=111
397700 On ch=1 n=d4 v=0
397716 On ch=1 n=g#4 v=0
397738 On ch=1 n=b4 v=0
397744 On ch=1 n=d6 v=0
397760 On ch=1 n=g#6 v=105
397846 On ch=1 n=b6 v=82
397878 On ch=1 n=g#6 v=0
397958 On ch=1 n=a6 v=94
398016 On ch=1 n=b6 v=0
398042 On ch=1 n=g#6 v=100
398048 Par ch=1 c=64 v=63
398056 Par ch=1 c=64 v=0
398090 On ch=1 n=a6 v=0
398136 On ch=1 n=f#6 v=105
398190 On ch=1 n=g#6 v=0
398234 On ch=1 n=e6 v=59
398238 On ch=1 n=f#6 v=0
398308 On ch=1 n=e6 v=0
398318 On ch=1 n=c#4 v=71
398354 On ch=1 n=d6 v=83
398398 On ch=1 n=d6 v=0
398400 On ch=1 n=d6 v=64
398408 Par ch=1 c=64 v=127
398416 On ch=1 n=d6 v=0
398416 On ch=1 n=e4 v=84
398434 On ch=1 n=c#6 v=105
398436 On ch=1 n=a4 v=80
398462 On ch=1 n=c#4 v=0
398480 On ch=1 n=c#5 v=113
398516 On ch=1 n=c#6 v=0
398522 On ch=1 n=e4 v=0
398534 On ch=1 n=a4 v=0
398540 On ch=1 n=e6 v=91
398560 On ch=1 n=c#5 v=0
398568 Par ch=1 c=64 v=63
398574 Par ch=1 c=64 v=0
398622 On ch=1 n=a6 v=94
398628 On ch=1 n=e6 v=0
398748 On ch=1 n=g#6 v=91
398754 On ch=1 n=d4 v=71
398782 On ch=1 n=a6 v=0
398798 Par ch=1 c=64 v=63
398798 Par ch=1 c=64 v=127
398816 On ch=1 n=f#4 v=95
398830 On ch=1 n=f#6 v=104
398838 On ch=1 n=b4 v=99
398842 On ch=1 n=a4 v=94
398850 On ch=1 n=d5 v=120
398862 On ch=1 n=d4 v=0
398870 On ch=1 n=g#6 v=0
398874 On ch=1 n=a4 v=0
398898 On ch=1 n=f#4 v=0
398904 On ch=1 n=b4 v=0
398908 Par ch=1 c=64 v=63
398914 Par ch=1 c=64 v=0
398924 On ch=1 n=d5 v=0
398934 On ch=1 n=e6 v=88
398946 On ch=1 n=f#6 v=0
399022 On ch=1 n=d6 v=84
399030 On ch=1 n=e6 v=0
399108 On ch=1 n=d6 v=0
399118 On ch=1 n=c#6 v=104
399126 On ch=1 n=e4 v=65
399188 On ch=1 n=g#4 v=88
399204 On ch=1 n=b4 v=103
399222 On ch=1 n=b5 v=102
399230 Par ch=1 c=64 v=127
399232 On ch=1 n=e5 v=117
399238 On ch=1 n=c#6 v=0
399256 On ch=1 n=e4 v=0
399294 On ch=1 n=b4 v=0
399294 On ch=1 n=g#4 v=0
399306 On ch=1 n=e5 v=0
399318 On ch=1 n=a5 v=93
399320 On ch=1 n=b5 v=0
399428 On ch=1 n=g#5 v=100
399448 On ch=1 n=a5 v=0
399490 Par ch=1 c=64 v=63
399500 Par ch=1 c=64 v=0
399514 On ch=1 n=f#5 v=101
399534 On ch=1 n=g#5 v=0
399616 On ch=1 n=e5 v=91
399628 On ch=1 n=f#5 v=0
399684 On ch=1 n=e5 v=0
399704 On ch=1 n=d5 v=84
399802 On ch=1 n=c#5 v=88
399830 On ch=1 n=d5 v=0
399900 On ch=1 n=c#5 v=0
399918 On ch=1 n=b4 v=70
400032 On ch=1 n=c#6 v=99
400034 On ch=1 n=a4 v=66
400040 On ch=1 n=b4 v=0
400078 On ch=1 n=c#6 v=0
400262 On ch=1 n=d6 v=84
400296 On ch=1 n=a4 v=0
400298 On ch=1 n=c#6 v=87
400308 On ch=1 n=e5 v=28
400318 On ch=1 n=d6 v=0
400358 On ch=1 n=b5 v=82
400364 On ch=1 n=c#6 v=0
400412 On ch=1 n=c#6 v=101
400436 On ch=1 n=b4 v=49
400442 On ch=1 n=b5 v=0
400448 On ch=1 n=e5 v=0
400482 On ch=1 n=c#6 v=0
400634 On ch=1 n=d6 v=97
400638 On ch=1 n=e5 v=59
400648 On ch=1 n=b4 v=0
400700 On ch=1 n=d6 v=0
400838 On ch=1 n=f#6 v=106
400840 On ch=1 n=c#5 v=72
400848 On ch=1 n=e5 v=0
401026 On ch=1 n=c#5 v=0
401044 On ch=1 n=f#6 v=0
401052 On ch=1 n=e6 v=84
401058 On ch=1 n=e5 v=36
401116 On ch=1 n=e6 v=0
401252 On ch=1 n=e5 v=0
401260 On ch=1 n=a4 v=59
401262 On ch=1 n=d6 v=92
401330 On ch=1 n=d6 v=0
401400 On ch=1 n=a4 v=0
401454 On ch=1 n=c#6 v=93
401458 On ch=1 n=e5 v=42
401504 On ch=1 n=c#6 v=0
401658 On ch=1 n=b5 v=84
401662 On ch=1 n=g#4 v=67
401674 On ch=1 n=e5 v=0
401710 On ch=1 n=b5 v=0
401824 On ch=1 n=g#4 v=0
401870 On ch=1 n=c#6 v=87
401888 On ch=1 n=e5 v=38
401922 On ch=1 n=b5 v=68
401936 On ch=1 n=c#6 v=0
401994 On ch=1 n=a#5 v=98
401996 On ch=1 n=b5 v=0
402028 On ch=1 n=b5 v=78
402046 On ch=1 n=a#5 v=0
402046 On ch=1 n=a4 v=53
402054 On ch=1 n=e5 v=0
402096 On ch=1 n=b5 v=0
402234 On ch=1 n=a4 v=0
402254 On ch=1 n=e5 v=41
402256 On ch=1 n=c#6 v=100
402316 On ch=1 n=c#6 v=0
402460 On ch=1 n=e5 v=0
402460 On ch=1 n=b4 v=60
402462 On ch=1 n=e6 v=94
402634 On ch=1 n=e6 v=0
402644 On ch=1 n=b4 v=0
402662 On ch=1 n=d6 v=82
402676 On ch=1 n=e5 v=45
402714 On ch=1 n=d6 v=0
402868 On ch=1 n=g#4 v=65
402878 On ch=1 n=e5 v=0
402878 On ch=1 n=c#6 v=88
402940 On ch=1 n=c#6 v=0
403020 On ch=1 n=g#4 v=0
403064 On ch=1 n=b5 v=88
403084 On ch=1 n=e5 v=36
403116 On ch=1 n=b5 v=0
403268 On ch=1 n=g#5 v=103
403270 On ch=1 n=f#4 v=65
403288 On ch=1 n=e5 v=0
403464 On ch=1 n=f#4 v=0
403476 On ch=1 n=g#5 v=0
403480 On ch=1 n=a5 v=78
403488 On ch=1 n=e5 v=41
403524 On ch=1 n=a5 v=0
403684 On ch=1 n=g#4 v=67
403716 On ch=1 n=e5 v=0
403856 On ch=1 n=g#4 v=0
403872 On ch=1 n=b5 v=85
403894 On ch=1 n=e5 v=31
403920 On ch=1 n=b5 v=0
404074 On ch=1 n=e5 v=0
404086 On ch=1 n=a4 v=60
404254 On ch=1 n=c6 v=85
404278 On ch=1 n=a4 v=0
404302 On ch=1 n=e5 v=53
404316 On ch=1 n=c#6 v=91
404326 On ch=1 n=c6 v=0
404354 On ch=1 n=c#6 v=0
404422 On ch=1 n=e5 v=0
404472 On ch=1 n=d4 v=92
404674 On ch=1 n=b4 v=69
404676 On ch=1 n=d4 v=0
404678 On ch=1 n=e6 v=84
404756 On ch=1 n=d6 v=80
404788 On ch=1 n=e6 v=0
404792 On ch=1 n=d6 v=0
404848 On ch=1 n=b4 v=0
404894 On ch=1 n=e4 v=71
405084 On ch=1 n=a4 v=54
405096 On ch=1 n=d6 v=86
405104 On ch=1 n=e4 v=0
405160 On ch=1 n=c#6 v=86
405184 On ch=1 n=d6 v=0
405200 On ch=1 n=c#6 v=0
405258 On ch=1 n=a4 v=0
405278 On ch=1 n=e4 v=65
405468 On ch=1 n=g#4 v=88
405480 On ch=1 n=c#6 v=88
405500 On ch=1 n=e4 v=0
405552 On ch=1 n=g#4 v=0
405558 On ch=1 n=b5 v=84
405604 On ch=1 n=c#6 v=0
405634 On ch=1 n=b5 v=0
405678 On ch=1 n=a4 v=81
405678 On ch=1 n=e5 v=79
405684 On ch=1 n=b5 v=93
405686 On ch=1 n=d5 v=79
405690 On ch=1 n=g#5 v=87
405734 Par ch=1 c=64 v=63
405736 Par ch=1 c=64 v=127
405890 On ch=1 n=c6 v=96
405932 On ch=1 n=b5 v=0
405962 Par ch=1 c=64 v=63
405968 Par ch=1 c=64 v=0
406002 On ch=1 n=g#5 v=0
406094 Par ch=1 c=64 v=63
406098 Par ch=1 c=64 v=127
406104 On ch=1 n=c#6 v=91
406110 On ch=1 n=a5 v=59
406114 On ch=1 n=c6 v=0
406116 On ch=1 n=c#5 v=79
406160 On ch=1 n=d5 v=0
406184 On ch=1 n=e5 v=0
406202 On ch=1 n=a5 v=0
406210 On ch=1 n=a4 v=0
406214 On ch=1 n=c#6 v=0
406220 On ch=1 n=c#5 v=0
406408 Par ch=1 c=64 v=63
406416 Par ch=1 c=64 v=0
406510 On ch=1 n=a3 v=109
406512 On ch=1 n=c#6 v=124
406524 Par ch=1 c=64 v=63
406532 Par ch=1 c=64 v=127
406596 On ch=1 n=a5 v=88
406610 On ch=1 n=c#6 v=0
406616 On ch=1 n=c#4 v=94
406654 On ch=1 n=a3 v=0
406690 On ch=1 n=a5 v=0
406716 On ch=1 n=e4 v=87
406718 On ch=1 n=e6 v=88
406738 On ch=1 n=c#4 v=0
406782 On ch=1 n=c#6 v=105
406794 Par ch=1 c=64 v=63
406802 Par ch=1 c=64 v=0
406810 On ch=1 n=a4 v=77
406816 On ch=1 n=e4 v=0
406820 On ch=1 n=e6 v=0
406844 On ch=1 n=c#6 v=0
406896 On ch=1 n=a4 v=0
406900 On ch=1 n=d6 v=113
406904 On ch=1 n=b3 v=106
406908 Par ch=1 c=64 v=63
406920 Par ch=1 c=64 v=127
406980 On ch=1 n=d4 v=89
406990 On ch=1 n=b3 v=0
406994 On ch=1 n=b5 v=89
407008 On ch=1 n=d6 v=0
407070 On ch=1 n=f#6 v=98
407076 On ch=1 n=b5 v=0
407104 Par ch=1 c=64 v=63
407106 On ch=1 n=g#4 v=95
407114 Par ch=1 c=64 v=0
407128 On ch=1 n=d4 v=0
407172 On ch=1 n=f#6 v=0
407176 On ch=1 n=d6 v=101
407186 On ch=1 n=b4 v=59
407192 On ch=1 n=g#4 v=0
407258 On ch=1 n=d6 v=0
407262 Par ch=1 c=64 v=63
407270 Par ch=1 c=64 v=127
407276 On ch=1 n=c#4 v=100
407288 On ch=1 n=e6 v=104
407292 On ch=1 n=b4 v=0
407346 On ch=1 n=c#4 v=0
407360 On ch=1 n=e4 v=76
407378 On ch=1 n=c#6 v=108
407390 On ch=1 n=e6 v=0
407444 Par ch=1 c=64 v=63
407452 On ch=1 n=c#6 v=0
407456 Par ch=1 c=64 v=0
407470 On ch=1 n=a4 v=63
407494 On ch=1 n=a6 v=100
407510 On ch=1 n=e4 v=0
407568 On ch=1 n=c#5 v=87
407580 On ch=1 n=a4 v=0
407584 On ch=1 n=e6 v=86
407606 On ch=1 n=a6 v=0
407610 Par ch=1 c=64 v=63
407616 Par ch=1 c=64 v=127
407626 On ch=1 n=c#5 v=0
407652 On ch=1 n=e6 v=0
407674 On ch=1 n=g#6 v=110
407676 On ch=1 n=d4 v=103
407746 Par ch=1 c=64 v=63
407752 Par ch=1 c=64 v=0
407758 On ch=1 n=f#6 v=107
407780 On ch=1 n=g#6 v=0
407782 On ch=1 n=f#4 v=90
407798 On ch=1 n=d4 v=0
407862 On ch=1 n=b4 v=90
407866 On ch=1 n=f#6 v=0
407872 On ch=1 n=e6 v=84
407878 On ch=1 n=f#4 v=0
407946 On ch=1 n=d5 v=73
407950 On ch=1 n=e6 v=0
407956 On ch=1 n=d6 v=82
407960 On ch=1 n=b4 v=0
408012 On ch=1 n=d6 v=0
408022 On ch=1 n=d5 v=0
408030 Par ch=1 c=64 v=127
408048 On ch=1 n=e4 v=107
408066 On ch=1 n=c#6 v=110
408128 On ch=1 n=e4 v=0
408136 Par ch=1 c=64 v=63
408142 On ch=1 n=a4 v=76
408144 Par ch=1 c=64 v=0
408154 On ch=1 n=e6 v=99
408166 On ch=1 n=c#6 v=0
408256 On ch=1 n=e6 v=0
408256 On ch=1 n=a4 v=0
408260 On ch=1 n=a5 v=82
408264 On ch=1 n=c#5 v=91
408334 On ch=1 n=a5 v=0
408340 On ch=1 n=e5 v=71
408346 On ch=1 n=c#5 v=0
408364 On ch=1 n=c#6 v=98
408418 On ch=1 n=e5 v=0
408448 On ch=1 n=e4 v=102
408456 On ch=1 n=b5 v=98
408464 On ch=1 n=c#6 v=0
408534 On ch=1 n=d6 v=100
408542 On ch=1 n=g#4 v=90
408552 On ch=1 n=b5 v=0
408556 On ch=1 n=e4 v=0
408624 On ch=1 n=g#4 v=0
408648 On ch=1 n=d6 v=0
408658 On ch=1 n=g#5 v=103
408722 On ch=1 n=e5 v=56
408742 On ch=1 n=b5 v=94
408748 On ch=1 n=g#5 v=0
408814 On ch=1 n=e5 v=0
408818 On ch=1 n=b5 v=0
408840 On ch=1 n=a4 v=103
408846 On ch=1 n=a5 v=102
408848 On ch=1 n=c#5 v=114
408866 Par ch=1 c=64 v=63
408870 Par ch=1 c=64 v=127
408928 On ch=1 n=a4 v=0
408934 On ch=1 n=c#5 v=0
408938 On ch=1 n=a5 v=0
408964 Par ch=1 c=64 v=63
408970 On ch=1 n=b5 v=94
408976 Par ch=1 c=64 v=0
409050 On ch=1 n=c#6 v=100
409058 On ch=1 n=b5 v=0
409066 On ch=1 n=c#5 v=88
409076 On ch=1 n=e5 v=65
409110 On ch=1 n=c#5 v=0
409122 On ch=1 n=c#6 v=0
409132 On ch=1 n=e5 v=0
409158 On ch=1 n=d6 v=76
409228 On ch=1 n=d6 v=0
409260 On ch=1 n=e6 v=84
409270 On ch=1 n=c#5 v=85
409312 On ch=1 n=c#5 v=0
409344 On ch=1 n=f#6 v=100
409376 On ch=1 n=e6 v=0
409460 On ch=1 n=g#6 v=82
409482 On ch=1 n=e5 v=68
409490 On ch=1 n=c#5 v=75
409508 On ch=1 n=f#6 v=0
409538 On ch=1 n=c#5 v=0
409558 On ch=1 n=a6 v=69
409578 On ch=1 n=g#6 v=0
409596 On ch=1 n=e5 v=0
409608 On ch=1 n=a6 v=0
409618 Par ch=1 c=64 v=63
409628 Par ch=1 c=64 v=127
409650 On ch=1 n=g#6 v=99
409654 On ch=1 n=a4 v=89
409750 On ch=1 n=a4 v=0
409756 On ch=1 n=f#6 v=105
409760 On ch=1 n=g#6 v=0
409790 Par ch=1 c=64 v=63
409806 Par ch=1 c=64 v=0
409848 On ch=1 n=f6 v=71
409850 On ch=1 n=f#6 v=0
409852 On ch=1 n=d5 v=68
409858 On ch=1 n=f#5 v=78
409906 On ch=1 n=d5 v=0
409918 On ch=1 n=f#5 v=0
409938 On ch=1 n=f#6 v=99
409946 On ch=1 n=f6 v=0
410038 On ch=1 n=b6 v=89
410042 On ch=1 n=f#6 v=0
410050 On ch=1 n=d5 v=84
410052 On ch=1 n=f#5 v=76
410118 On ch=1 n=f#5 v=0
410136 On ch=1 n=d5 v=0
410146 On ch=1 n=a6 v=99
410212 On ch=1 n=b6 v=0
410238 On ch=1 n=f#5 v=72
410238 On ch=1 n=g#6 v=97
410266 On ch=1 n=d5 v=48
410292 On ch=1 n=a6 v=0
410320 On ch=1 n=f#5 v=0
410322 On ch=1 n=f#6 v=104
410344 On ch=1 n=d5 v=0
410368 On ch=1 n=g#6 v=0
410390 On ch=1 n=f#6 v=0
410412 On ch=1 n=a4 v=84
410442 On ch=1 n=f#6 v=100
410448 Par ch=1 c=64 v=63
410454 Par ch=1 c=64 v=127
410512 On ch=1 n=a4 v=0
410532 On ch=1 n=f#6 v=0
410538 On ch=1 n=e6 v=85
410570 Par ch=1 c=64 v=63
410580 Par ch=1 c=64 v=0
410604 On ch=1 n=e6 v=0
410620 On ch=1 n=c#5 v=78
410624 On ch=1 n=e5 v=68
410638 On ch=1 n=d#6 v=95
410676 On ch=1 n=c#5 v=0
410692 On ch=1 n=e5 v=0
410718 On ch=1 n=d#6 v=0
410732 On ch=1 n=e6 v=88
410806 On ch=1 n=e6 v=0
410842 On ch=1 n=a5 v=64
410842 On ch=1 n=c#5 v=82
410844 On ch=1 n=e5 v=69
410888 On ch=1 n=c#5 v=0
410902 On ch=1 n=e5 v=0
410912 On ch=1 n=a5 v=0
410934 On ch=1 n=c#6 v=96
411018 On ch=1 n=e6 v=91
411026 On ch=1 n=c#6 v=0
411046 On ch=1 n=c#5 v=93
411052 On ch=1 n=e5 v=65
411116 On ch=1 n=e6 v=0
411122 On ch=1 n=e5 v=0
411124 On ch=1 n=a6 v=102
411126 On ch=1 n=c#5 v=0
411220 On ch=1 n=a6 v=0
411226 On ch=1 n=a4 v=88
411232 On ch=1 n=g#6 v=112
411238 Par ch=1 c=64 v=63
411238 Par ch=1 c=64 v=127
411314 On ch=1 n=a4 v=0
411334 On ch=1 n=f#6 v=107
411372 On ch=1 n=g#6 v=0
411416 On ch=1 n=d5 v=84
411428 On ch=1 n=f6 v=86
411438 On ch=1 n=f#6 v=0
411442 On ch=1 n=f#5 v=65
411478 On ch=1 n=d5 v=0
411478 Par ch=1 c=64 v=63
411482 On ch=1 n=f#5 v=0
411486 Par ch=1 c=64 v=0
411526 On ch=1 n=f#6 v=108
411530 On ch=1 n=f6 v=0
411614 On ch=1 n=d5 v=82
411618 On ch=1 n=f#5 v=75
411628 On ch=1 n=b6 v=93
411638 On ch=1 n=f#6 v=0
411670 On ch=1 n=f#5 v=0
411674 On ch=1 n=d5 v=0
411734 On ch=1 n=a6 v=103
411802 On ch=1 n=b6 v=0
411806 On ch=1 n=f#5 v=88
411822 On ch=1 n=g#6 v=101
411834 On ch=1 n=d5 v=59
411874 On ch=1 n=a6 v=0
411884 On ch=1 n=f#5 v=0
411906 On ch=1 n=f#6 v=108
411930 On ch=1 n=d5 v=0
411978 On ch=1 n=g#6 v=0
412018 On ch=1 n=e6 v=109
412020 On ch=1 n=e5 v=98
412024 On ch=1 n=a4 v=90
412026 On ch=1 n=c#5 v=97
412034 Par ch=1 c=64 v=127
412058 On ch=1 n=f#6 v=0
412066 On ch=1 n=c#5 v=0
412068 On ch=1 n=e5 v=0
412080 On ch=1 n=a4 v=0
412082 On ch=1 n=e6 v=0
412414 Par ch=1 c=64 v=63
412418 Par ch=1 c=64 v=0
412482 On ch=1 n=e6 v=116
412550 On ch=1 n=f#6 v=98
412564 On ch=1 n=e6 v=0
412616 On ch=1 n=e6 v=92
412664 On ch=1 n=f#6 v=0
412702 On ch=1 n=d#6 v=99
412718 On ch=1 n=e6 v=0
412772 On ch=1 n=e6 v=90
412796 On ch=1 n=d#6 v=0
412956 On ch=1 n=d4 v=104
412958 On ch=1 n=b4 v=104
412976 On ch=1 n=e6 v=0
413000 Par ch=1 c=64 v=127
413022 On ch=1 n=b4 v=0
413022 On ch=1 n=d4 v=0
413362 Par ch=1 c=64 v=63
413366 Par ch=1 c=64 v=0
413386 On ch=1 n=d6 v=101
413448 On ch=1 n=e6 v=87
413462 On ch=1 n=d6 v=0
413510 On ch=1 n=d6 v=97
413554 On ch=1 n=e6 v=0
413604 On ch=1 n=c#6 v=88
413622 On ch=1 n=d6 v=0
413682 On ch=1 n=d6 v=87
413692 On ch=1 n=c#6 v=0
413870 On ch=1 n=d6 v=0
413880 On ch=1 n=a4 v=99
413888 On ch=1 n=e4 v=102
413912 Par ch=1 c=64 v=127
413950 On ch=1 n=a4 v=0
413954 On ch=1 n=e4 v=0
414304 On ch=1 n=c#6 v=114
414306 Par ch=1 c=64 v=63
414310 Par ch=1 c=64 v=0
414396 On ch=1 n=c#6 v=0
414408 On ch=1 n=d6 v=91
414464 On ch=1 n=c#6 v=84
414502 On ch=1 n=d6 v=0
414558 On ch=1 n=c#6 v=0
414566 On ch=1 n=c6 v=82
414644 On ch=1 n=c#6 v=94
414684 On ch=1 n=c6 v=0
414748 On ch=1 n=c#6 v=0
414772 Par ch=1 c=64 v=127
414776 On ch=1 n=g#4 v=110
414778 On ch=1 n=d4 v=101
414840 On ch=1 n=g#4 v=0
414848 On ch=1 n=d4 v=0
415180 On ch=1 n=b5 v=106
415200 Par ch=1 c=64 v=63
415202 Par ch=1 c=64 v=0
415252 On ch=1 n=c#6 v=97
415264 On ch=1 n=b5 v=0
415316 On ch=1 n=b5 v=81
415358 On ch=1 n=c#6 v=0
415408 On ch=1 n=a#5 v=93
415420 On ch=1 n=b5 v=0
415500 On ch=1 n=b5 v=59
415522 On ch=1 n=a#5 v=0
415622 Par ch=1 c=64 v=63
415622 Par ch=1 c=64 v=127
415668 On ch=1 n=b5 v=0
415692 On ch=1 n=a4 v=92
415702 On ch=1 n=c#4 v=107
415848 On ch=1 n=e6 v=101
415934 On ch=1 n=d#6 v=93
415940 On ch=1 n=e6 v=0
415996 Par ch=1 c=64 v=63
416006 Par ch=1 c=64 v=0
416018 On ch=1 n=e6 v=99
416044 On ch=1 n=d#6 v=0
416124 On ch=1 n=f#6 v=99
416128 Par ch=1 c=64 v=63
416142 On ch=1 n=e6 v=0
416144 Par ch=1 c=64 v=127
416200 On ch=1 n=e6 v=92
416252 On ch=1 n=f#6 v=0
416260 On ch=1 n=a4 v=0
416280 On ch=1 n=c#4 v=0
416318 On ch=1 n=d#6 v=105
416344 On ch=1 n=e6 v=0
416400 On ch=1 n=e6 v=93
416454 Par ch=1 c=64 v=63
416458 On ch=1 n=d#6 v=0
416468 Par ch=1 c=64 v=0
416526 On ch=1 n=e6 v=0
416550 On ch=1 n=b4 v=106
416556 On ch=1 n=d4 v=104
416666 Par ch=1 c=64 v=63
416666 On ch=1 n=d6 v=108
416680 Par ch=1 c=64 v=127
416760 On ch=1 n=c#6 v=99
416762 On ch=1 n=d6 v=0
416858 On ch=1 n=d6 v=94
416866 Par ch=1 c=64 v=63
416870 Par ch=1 c=64 v=0
416872 On ch=1 n=c#6 v=0
416950 On ch=1 n=e6 v=99
416968 On ch=1 n=d6 v=0
417016 On ch=1 n=b4 v=0
417036 On ch=1 n=d4 v=0
417050 On ch=1 n=d6 v=91
417084 On ch=1 n=e6 v=0
417158 On ch=1 n=c#6 v=95
417162 On ch=1 n=d6 v=0
417234 On ch=1 n=d6 v=92
417264 On ch=1 n=c#6 v=0
417316 On ch=1 n=d6 v=0
417354 On ch=1 n=a4 v=100
417356 On ch=1 n=e4 v=109
417410 Par ch=1 c=64 v=63
417414 Par ch=1 c=64 v=127
417464 On ch=1 n=c#6 v=109
417558 On ch=1 n=c#6 v=0
417566 On ch=1 n=c6 v=85
417594 Par ch=1 c=64 v=63
417602 Par ch=1 c=64 v=0
417666 On ch=1 n=c#6 v=108
417692 On ch=1 n=c6 v=0
417770 On ch=1 n=d6 v=84
417772 On ch=1 n=c#6 v=0
417782 On ch=1 n=e4 v=0
417788 On ch=1 n=a4 v=0
417840 On ch=1 n=c#6 v=84
417884 On ch=1 n=d6 v=0
417952 On ch=1 n=c#6 v=0
417954 On ch=1 n=c6 v=91
418056 On ch=1 n=c#6 v=96
418072 On ch=1 n=c6 v=0
418118 Par ch=1 c=64 v=63
418118 Par ch=1 c=64 v=127
418132 On ch=1 n=c#6 v=0
418144 On ch=1 n=e4 v=100
418144 On ch=1 n=g#4 v=112
418252 On ch=1 n=b5 v=97
418266 Par ch=1 c=64 v=63
418272 Par ch=1 c=64 v=0
418336 On ch=1 n=b5 v=0
418340 On ch=1 n=a#5 v=92
418434 On ch=1 n=a#5 v=0
418438 On ch=1 n=b5 v=58
418520 On ch=1 n=c#6 v=97
418528 On ch=1 n=b5 v=0
418528 On ch=1 n=g#4 v=0
418542 On ch=1 n=e4 v=0
418612 On ch=1 n=c#6 v=0
418622 On ch=1 n=b5 v=82
418708 On ch=1 n=a#5 v=91
418716 On ch=1 n=b5 v=0
418786 On ch=1 n=b5 v=82
418804 On ch=1 n=a#5 v=0
418870 On ch=1 n=b5 v=0
418898 On ch=1 n=a4 v=90
418898 On ch=1 n=a5 v=89
418950 On ch=1 n=a5 v=0
419114 On ch=1 n=a4 v=0
419128 On ch=1 n=c#6 v=107
419210 On ch=1 n=c#6 v=0
419218 On ch=1 n=a5 v=69
419280 On ch=1 n=a5 v=0
419310 On ch=1 n=e6 v=85
419416 On ch=1 n=d6 v=88
419432 On ch=1 n=e6 v=0
419504 On ch=1 n=b5 v=92
419512 On ch=1 n=d6 v=0
419612 On ch=1 n=g#5 v=100
419614 On ch=1 n=b5 v=0
419692 On ch=1 n=g#5 v=0
419700 On ch=1 n=a5 v=100
419768 On ch=1 n=a5 v=0
420136 On ch=1 n=e6 v=109
420136 On ch=1 n=b5 v=106
420140 On ch=1 n=e5 v=124
420142 On ch=1 n=b4 v=118
420142 On ch=1 n=e4 v=117
420142 On ch=1 n=g#5 v=112
420148 On ch=1 n=g#4 v=107
420160 Par ch=1 c=64 v=127
420198 On ch=1 n=e5 v=0
420200 On ch=1 n=b4 v=0
420202 On ch=1 n=g#5 v=0
420202 On ch=1 n=b5 v=0
420206 On ch=1 n=g#4 v=0
420216 On ch=1 n=e6 v=0
420234 On ch=1 n=e4 v=0
420262 Par ch=1 c=64 v=63
420272 Par ch=1 c=64 v=0
420572 On ch=1 n=e6 v=107
420576 On ch=1 n=a6 v=108
420578 On ch=1 n=a3 v=99
420582 On ch=1 n=a5 v=102
420582 On ch=1 n=c#6 v=109
420582 On ch=1 n=c#4 v=115
420582 On ch=1 n=a4 v=120
420582 On ch=1 n=e4 v=117
420602 Par ch=1 c=64 v=127
420644 On ch=1 n=a5 v=0
420654 On ch=1 n=c#6 v=0
420656 On ch=1 n=e6 v=0
420664 On ch=1 n=a6 v=0
420668 On ch=1 n=a3 v=0
420678 On ch=1 n=a4 v=0
420684 On ch=1 n=e4 v=0
420684 On ch=1 n=c#4 v=0
420844 On ch=1 n=c#6 v=112
420938 On ch=1 n=a5 v=92
420942 On ch=1 n=c#6 v=0
421014 On ch=1 n=a5 v=0
421022 Par ch=1 c=64 v=63
421032 Par ch=1 c=64 v=0
421036 On ch=1 n=e6 v=104
421142 On ch=1 n=d6 v=97
421178 On ch=1 n=e6 v=0
421224 On ch=1 n=b5 v=93
421248 On ch=1 n=d6 v=0
421338 On ch=1 n=g#5 v=106
421346 On ch=1 n=b5 v=0
421414 On ch=1 n=g#5 v=0
421434 On ch=1 n=a5 v=109
421506 On ch=1 n=a5 v=0
421892 On ch=1 n=e6 v=111
421894 On ch=1 n=b5 v=109
421898 On ch=1 n=e5 v=125
421898 On ch=1 n=e4 v=117
421900 On ch=1 n=b4 v=117
421902 On ch=1 n=g#5 v=114
421904 On ch=1 n=g#4 v=110
421970 On ch=1 n=g#5 v=0
421978 On ch=1 n=b5 v=0
421988 On ch=1 n=e5 v=0
421996 On ch=1 n=e6 v=0
421998 On ch=1 n=g#4 v=0
422000 On ch=1 n=b4 v=0
422014 On ch=1 n=e4 v=0
422436 On ch=1 n=e6 v=101
422436 On ch=1 n=a3 v=107
422438 On ch=1 n=a4 v=118
422438 On ch=1 n=c#6 v=107
422438 On ch=1 n=a6 v=104
422440 On ch=1 n=a5 v=102
422442 On ch=1 n=c#4 v=115
422442 On ch=1 n=e4 v=117
422480 Par ch=1 c=64 v=127
422552 On ch=1 n=e4 v=0
422552 On ch=1 n=a3 v=0
422558 On ch=1 n=c#4 v=0
422560 On ch=1 n=a4 v=0
422842 On ch=1 n=c#6 v=0
422844 On ch=1 n=a5 v=0
422852 On ch=1 n=a6 v=0
422856 On ch=1 n=e6 v=0
423362 Par ch=1 c=64 v=63
423372 Par ch=1 c=64 v=0
423372 Meta TrkEnd
TrkEnd
