MFile 1 18 480
MTrk
0 Tempo 500000
0 TimeSig 6/8 24 8
0 Meta TrkEnd
TrkEnd
MTrk
0 SeqSpec 43 00 01 00
0 Meta TrkName "PIANO                               "
0 TimeSig 6/8 24 8
0 SysEx f0 41 10 42 12 40 00 7f 00 41 f7
0 SysEx f0 41 10 42 12 40 00 04 64 58 f7
340 SysEx f0 41 10 42 12 40 01 30 03 0c f7
340 SysEx f0 41 10 42 12 40 01 33 50 3c f7
340 SysEx f0 41 10 42 12 40 01 34 3c 4f f7
744 Par ch=1 c=0 v=0
748 Par ch=1 c=32 v=1
752 PrCh ch=1 p=0
756 Par ch=1 c=7 v=100
948 Par ch=1 c=11 v=100
1140 Par ch=1 c=10 v=64
1332 Par ch=1 c=1 v=0
1332 Par ch=1 c=91 v=80
1350 Par ch=1 c=99 v=1
1354 Par ch=1 c=98 v=32
1358 Par ch=1 c=6 v=62
1362 Par ch=1 c=99 v=1
1366 Par ch=1 c=98 v=33
1370 Par ch=1 c=6 v=54
1374 Par ch=1 c=99 v=1
1378 Par ch=1 c=98 v=99
1382 Par ch=1 c=6 v=62
1386 Par ch=1 c=99 v=1
1390 Par ch=1 c=98 v=100
1394 Par ch=1 c=6 v=60
1398 Par ch=1 c=99 v=1
1402 Par ch=1 c=98 v=102
1406 Par ch=1 c=6 v=70
1878 On ch=1 n=f3 v=94
1894 On ch=1 n=a3 v=108
1896 On ch=1 n=c4 v=120
1900 On ch=1 n=f4 v=127
1934 Par ch=1 c=64 v=127
2016 On ch=1 n=c7 v=112
2048 On ch=1 n=a3 v=0
2058 On ch=1 n=c4 v=0
2070 On ch=1 n=f4 v=0
2076 On ch=1 n=f3 v=0
2130 On ch=1 n=c7 v=0
2130 On ch=1 n=b6 v=104
2226 On ch=1 n=c7 v=101
2240 On ch=1 n=b6 v=0
2300 On ch=1 n=f7 v=94
2314 On ch=1 n=c7 v=0
2384 On ch=1 n=c7 v=85
2388 On ch=1 n=f7 v=0
2460 On ch=1 n=a#6 v=105
2462 On ch=1 n=c7 v=0
2534 On ch=1 n=a#6 v=0
2554 On ch=1 n=a6 v=79
2624 On ch=1 n=g#6 v=105
2642 On ch=1 n=a6 v=0
2708 On ch=1 n=a6 v=88
2718 On ch=1 n=g#6 v=0
2792 On ch=1 n=c7 v=98
2812 On ch=1 n=a6 v=0
2862 On ch=1 n=a6 v=81
2910 On ch=1 n=c7 v=0
2948 On ch=1 n=g6 v=84
2964 On ch=1 n=a6 v=0
2992 Par ch=1 c=64 v=63
3002 Par ch=1 c=64 v=0
3026 On ch=1 n=f6 v=91
3028 On ch=1 n=g6 v=0
3122 On ch=1 n=e6 v=99
3126 On ch=1 n=f6 v=0
3200 On ch=1 n=f6 v=93
3226 On ch=1 n=e6 v=0
3272 On ch=1 n=a6 v=86
3294 On ch=1 n=f6 v=0
3348 On ch=1 n=f6 v=84
3384 On ch=1 n=a6 v=0
3442 On ch=1 n=d6 v=92
3452 On ch=1 n=f6 v=0
3524 On ch=1 n=d6 v=0
3530 On ch=1 n=c6 v=85
3610 On ch=1 n=b5 v=94
3618 On ch=1 n=c6 v=0
3702 On ch=1 n=c6 v=87
3708 On ch=1 n=b5 v=0
3774 On ch=1 n=f6 v=76
3790 On ch=1 n=c6 v=0
3860 On ch=1 n=c6 v=68
3864 On ch=1 n=f6 v=0
3934 On ch=1 n=a#5 v=88
3948 On ch=1 n=c6 v=0
4012 On ch=1 n=a#5 v=0
4032 On ch=1 n=a5 v=94
4090 On ch=1 n=g#5 v=99
4114 On ch=1 n=a5 v=0
4172 On ch=1 n=a5 v=91
4188 On ch=1 n=g#5 v=0
4258 On ch=1 n=c6 v=97
4280 On ch=1 n=a5 v=0
4328 On ch=1 n=a5 v=86
4390 On ch=1 n=c6 v=0
4412 On ch=1 n=a5 v=0
4422 On ch=1 n=f5 v=100
4428 On ch=1 n=a4 v=103
4490 On ch=1 n=f5 v=0
4514 On ch=1 n=a4 v=0
4524 On ch=1 n=f6 v=104
4580 On ch=1 n=f6 v=0
4614 On ch=1 n=e5 v=87
4618 On ch=1 n=g4 v=94
4674 On ch=1 n=e5 v=0
4698 On ch=1 n=g4 v=0
4722 On ch=1 n=f6 v=108
4792 On ch=1 n=f6 v=0
4798 On ch=1 n=a4 v=100
4800 On ch=1 n=f5 v=76
4872 On ch=1 n=f5 v=0
4872 On ch=1 n=a4 v=0
4900 On ch=1 n=f6 v=104
4976 On ch=1 n=f6 v=0
4976 On ch=1 n=g5 v=88
4982 On ch=1 n=a#4 v=98
5046 On ch=1 n=g5 v=0
5056 On ch=1 n=a#4 v=0
5058 On ch=1 n=f6 v=99
5124 On ch=1 n=f6 v=0
5138 On ch=1 n=f5 v=96
5144 On ch=1 n=a4 v=103
5204 On ch=1 n=f5 v=0
5216 On ch=1 n=a4 v=0
5226 On ch=1 n=f6 v=107
5312 On ch=1 n=f6 v=0
5316 On ch=1 n=a#4 v=100
5318 On ch=1 n=g5 v=92
5386 On ch=1 n=a#4 v=0
5396 On ch=1 n=g5 v=0
5402 On ch=1 n=f6 v=106
5488 On ch=1 n=f6 v=0
5496 On ch=1 n=a5 v=88
5496 On ch=1 n=c5 v=111
5564 On ch=1 n=f6 v=93
5566 On ch=1 n=a5 v=0
5576 On ch=1 n=c5 v=0
5656 On ch=1 n=f6 v=0
5670 On ch=1 n=g5 v=87
5672 On ch=1 n=a#4 v=106
5732 On ch=1 n=g5 v=0
5744 On ch=1 n=a#4 v=0
5746 On ch=1 n=f6 v=98
5842 On ch=1 n=c5 v=99
5844 On ch=1 n=f6 v=0
5850 On ch=1 n=a5 v=79
5918 On ch=1 n=c5 v=0
5926 On ch=1 n=f6 v=88
5928 On ch=1 n=a5 v=0
6040 On ch=1 n=f6 v=0
6044 On ch=1 n=c#5 v=123
6046 On ch=1 n=a#5 v=110
6058 Par ch=1 c=64 v=127
6096 On ch=1 n=c#5 v=0
6128 On ch=1 n=a#5 v=0
6132 On ch=1 n=f6 v=91
6224 On ch=1 n=a#5 v=65
6234 On ch=1 n=f6 v=0
6320 On ch=1 n=f6 v=81
6338 On ch=1 n=a#5 v=0
6408 Par ch=1 c=64 v=63
6414 Par ch=1 c=64 v=0
6424 On ch=1 n=a5 v=87
6428 On ch=1 n=c5 v=91
6430 On ch=1 n=f6 v=0
6486 On ch=1 n=c5 v=0
6498 On ch=1 n=a5 v=0
6528 On ch=1 n=f6 v=65
6606 On ch=1 n=c#5 v=123
6606 On ch=1 n=a#5 v=107
6620 Par ch=1 c=64 v=63
6626 Par ch=1 c=64 v=127
6640 On ch=1 n=f6 v=0
6664 On ch=1 n=c#5 v=0
6684 On ch=1 n=a#5 v=0
6698 On ch=1 n=f6 v=90
6778 On ch=1 n=a#5 v=95
6800 On ch=1 n=f6 v=0
6866 On ch=1 n=f6 v=74
6884 On ch=1 n=a#5 v=0
6974 On ch=1 n=a5 v=92
6984 Par ch=1 c=64 v=63
6986 On ch=1 n=f6 v=0
7006 On ch=1 n=c5 v=88
7014 Par ch=1 c=64 v=0
7060 On ch=1 n=a5 v=0
7062 On ch=1 n=f6 v=76
7070 Par ch=1 c=64 v=63
7082 On ch=1 n=c5 v=0
7118 Par ch=1 c=64 v=127
7144 Par ch=1 c=64 v=63
7172 On ch=1 n=g#5 v=94
7178 On ch=1 n=f6 v=0
7182 Par ch=1 c=64 v=0
7184 On ch=1 n=b4 v=103
7242 On ch=1 n=g#5 v=0
7250 On ch=1 n=f6 v=76
7254 On ch=1 n=b4 v=0
7330 On ch=1 n=g#5 v=87
7348 On ch=1 n=f6 v=0
7352 On ch=1 n=b4 v=92
7418 On ch=1 n=g#5 v=0
7420 On ch=1 n=b4 v=0
7434 On ch=1 n=f6 v=82
7506 On ch=1 n=g#5 v=88
7526 On ch=1 n=b4 v=84
7530 On ch=1 n=f6 v=0
7598 On ch=1 n=g#5 v=0
7600 On ch=1 n=f6 v=83
7612 On ch=1 n=b4 v=0
7706 On ch=1 n=f6 v=0
7712 On ch=1 n=e6 v=102
7720 On ch=1 n=g5 v=89
7720 On ch=1 n=c5 v=116
7722 Par ch=1 c=64 v=63
7740 Par ch=1 c=64 v=127
7772 On ch=1 n=g5 v=0
7784 On ch=1 n=c5 v=0
7792 On ch=1 n=e6 v=0
7896 Par ch=1 c=64 v=63
7912 Par ch=1 c=64 v=0
8280 On ch=1 n=f3 v=90
8286 On ch=1 n=a3 v=111
8290 On ch=1 n=c4 v=122
8296 On ch=1 n=f4 v=125
8332 Par ch=1 c=64 v=127
8420 On ch=1 n=c7 v=113
8528 On ch=1 n=b6 v=106
8554 On ch=1 n=c7 v=0
8598 On ch=1 n=a3 v=0
8608 On ch=1 n=c4 v=0
8610 On ch=1 n=f4 v=0
8616 On ch=1 n=f3 v=0
8624 On ch=1 n=c7 v=76
8638 On ch=1 n=b6 v=0
8690 On ch=1 n=f7 v=97
8706 On ch=1 n=c7 v=0
8764 On ch=1 n=c7 v=99
8786 On ch=1 n=f7 v=0
8848 On ch=1 n=a#6 v=108
8854 On ch=1 n=c7 v=0
8928 On ch=1 n=a#6 v=0
8932 On ch=1 n=a6 v=94
9004 On ch=1 n=g#6 v=106
9022 On ch=1 n=a6 v=0
9086 On ch=1 n=a6 v=90
9102 On ch=1 n=g#6 v=0
9182 On ch=1 n=c7 v=98
9202 On ch=1 n=a6 v=0
9252 On ch=1 n=a6 v=89
9300 On ch=1 n=c7 v=0
9320 On ch=1 n=g6 v=99
9344 On ch=1 n=a6 v=0
9402 Par ch=1 c=64 v=63
9404 On ch=1 n=g6 v=0
9406 On ch=1 n=f6 v=92
9418 Par ch=1 c=64 v=0
9486 On ch=1 n=e6 v=101
9494 On ch=1 n=f6 v=0
9562 On ch=1 n=f6 v=91
9588 On ch=1 n=e6 v=0
9640 On ch=1 n=a6 v=90
9662 On ch=1 n=f6 v=0
9714 On ch=1 n=f6 v=87
9746 On ch=1 n=a6 v=0
9796 On ch=1 n=d6 v=100
9810 On ch=1 n=f6 v=0
9884 On ch=1 n=d6 v=0
9894 On ch=1 n=c6 v=84
9964 On ch=1 n=b5 v=92
9990 On ch=1 n=c6 v=0
10048 On ch=1 n=c6 v=83
10058 On ch=1 n=b5 v=0
10120 On ch=1 n=f6 v=96
10140 On ch=1 n=c6 v=0
10196 On ch=1 n=c6 v=87
10218 On ch=1 n=f6 v=0
10286 On ch=1 n=a#5 v=100
10294 On ch=1 n=c6 v=0
10350 On ch=1 n=a#5 v=0
10362 On ch=1 n=a5 v=84
10440 On ch=1 n=g#5 v=99
10446 On ch=1 n=a5 v=0
10520 On ch=1 n=a5 v=89
10530 On ch=1 n=g#5 v=0
10606 On ch=1 n=c6 v=93
10624 On ch=1 n=a5 v=0
10672 On ch=1 n=a5 v=88
10732 On ch=1 n=c6 v=0
10738 On ch=1 n=a5 v=0
10752 On ch=1 n=f5 v=102
10760 On ch=1 n=a4 v=106
10824 On ch=1 n=f5 v=0
10834 On ch=1 n=a4 v=0
10850 On ch=1 n=f6 v=103
10906 On ch=1 n=f6 v=0
10932 On ch=1 n=g4 v=99
10944 On ch=1 n=e5 v=89
11002 On ch=1 n=g4 v=0
11004 On ch=1 n=e5 v=0
11042 On ch=1 n=f6 v=107
11108 On ch=1 n=f6 v=0
11110 On ch=1 n=a4 v=93
11128 On ch=1 n=f5 v=73
11180 On ch=1 n=a4 v=0
11182 On ch=1 n=f5 v=0
11220 On ch=1 n=f6 v=100
11286 On ch=1 n=a#4 v=104
11294 On ch=1 n=g5 v=84
11310 On ch=1 n=f6 v=0
11352 On ch=1 n=a#4 v=0
11366 On ch=1 n=g5 v=0
11378 On ch=1 n=f6 v=97
11446 On ch=1 n=f6 v=0
11446 On ch=1 n=a4 v=107
11466 On ch=1 n=f5 v=88
11516 On ch=1 n=a4 v=0
11530 On ch=1 n=f5 v=0
11550 On ch=1 n=f6 v=104
11618 On ch=1 n=a#4 v=107
11638 On ch=1 n=f6 v=0
11640 On ch=1 n=g5 v=85
11694 On ch=1 n=a#4 v=0
11712 On ch=1 n=g5 v=0
11714 On ch=1 n=f6 v=98
11802 On ch=1 n=f6 v=0
11812 On ch=1 n=c5 v=114
11812 On ch=1 n=a5 v=93
11874 On ch=1 n=f6 v=90
11886 On ch=1 n=a5 v=0
11894 On ch=1 n=c5 v=0
11962 On ch=1 n=f6 v=0
11986 On ch=1 n=a#4 v=106
11988 On ch=1 n=g5 v=66
12040 On ch=1 n=g5 v=0
12054 On ch=1 n=a#4 v=0
12056 On ch=1 n=f6 v=99
12146 On ch=1 n=f6 v=0
12156 On ch=1 n=c5 v=97
12156 On ch=1 n=a5 v=89
12230 On ch=1 n=c5 v=0
12236 On ch=1 n=f6 v=93
12244 On ch=1 n=a5 v=0
12342 On ch=1 n=a#5 v=109
12350 On ch=1 n=c#5 v=124
12352 On ch=1 n=f6 v=0
12366 Par ch=1 c=64 v=63
12368 Par ch=1 c=64 v=127
12402 On ch=1 n=c#5 v=0
12426 On ch=1 n=f6 v=84
12432 On ch=1 n=a#5 v=0
12506 On ch=1 n=a#5 v=79
12550 On ch=1 n=f6 v=0
12614 On ch=1 n=f6 v=83
12624 On ch=1 n=a#5 v=0
12678 Par ch=1 c=64 v=63
12684 Par ch=1 c=64 v=0
12708 On ch=1 n=c5 v=104
12716 On ch=1 n=a5 v=93
12734 On ch=1 n=f6 v=0
12774 On ch=1 n=c5 v=0
12800 On ch=1 n=a5 v=0
12824 On ch=1 n=f6 v=67
12894 On ch=1 n=c#5 v=125
12904 On ch=1 n=a#5 v=110
12904 Par ch=1 c=64 v=63
12906 Par ch=1 c=64 v=127
12914 On ch=1 n=f6 v=0
12950 On ch=1 n=c#5 v=0
12994 On ch=1 n=f6 v=87
13008 On ch=1 n=a#5 v=0
13094 On ch=1 n=a#5 v=84
13104 On ch=1 n=f6 v=0
13178 On ch=1 n=f6 v=78
13210 On ch=1 n=a#5 v=0
13248 Par ch=1 c=64 v=63
13256 Par ch=1 c=64 v=0
13266 On ch=1 n=c5 v=101
13270 On ch=1 n=a5 v=92
13312 On ch=1 n=f6 v=0
13348 On ch=1 n=c5 v=0
13360 On ch=1 n=a5 v=0
13376 On ch=1 n=f6 v=71
13378 Par ch=1 c=64 v=63
13394 Par ch=1 c=64 v=127
13430 On ch=1 n=f6 v=0
13454 On ch=1 n=b4 v=116
13458 On ch=1 n=g#5 v=104
13518 On ch=1 n=b4 v=0
13538 On ch=1 n=g#5 v=0
13540 On ch=1 n=f6 v=97
13584 Par ch=1 c=64 v=63
13598 Par ch=1 c=64 v=0
13630 On ch=1 n=f6 v=0
14082 On ch=1 n=a#4 v=76
14088 On ch=1 n=g5 v=67
14166 On ch=1 n=e6 v=69
14170 On ch=1 n=a#4 v=0
14186 On ch=1 n=g5 v=0
14236 On ch=1 n=e6 v=0
14672 On ch=1 n=f#5 v=69
14690 On ch=1 n=a4 v=61
14744 On ch=1 n=d#6 v=78
14770 On ch=1 n=f#5 v=0
14786 On ch=1 n=a4 v=0
14838 On ch=1 n=d#6 v=0
15272 On ch=1 n=a#3 v=110
15294 Par ch=1 c=64 v=63
15296 Par ch=1 c=64 v=127
15370 On ch=1 n=a#4 v=104
15374 On ch=1 n=a#3 v=0
15440 On ch=1 n=a#4 v=0
15440 On ch=1 n=d5 v=86
15540 On ch=1 n=g5 v=92
15558 On ch=1 n=d5 v=0
15608 On ch=1 n=a#5 v=104
15630 Par ch=1 c=64 v=63
15656 On ch=1 n=g5 v=0
15684 On ch=1 n=d6 v=98
15688 Par ch=1 c=64 v=0
15724 On ch=1 n=a#5 v=0
15790 On ch=1 n=c4 v=71
15796 On ch=1 n=g4 v=89
15798 On ch=1 n=a#4 v=100
15800 On ch=1 n=c6 v=100
15810 Par ch=1 c=64 v=63
15826 Par ch=1 c=64 v=127
15870 On ch=1 n=d6 v=0
15890 On ch=1 n=a#5 v=105
15936 On ch=1 n=c6 v=0
15972 On ch=1 n=a5 v=94
16000 On ch=1 n=a#5 v=0
16058 On ch=1 n=g5 v=84
16072 On ch=1 n=a5 v=0
16088 Par ch=1 c=64 v=63
16118 On ch=1 n=c4 v=0
16132 Par ch=1 c=64 v=0
16146 On ch=1 n=g4 v=0
16148 On ch=1 n=a#4 v=0
16150 On ch=1 n=g5 v=0
16154 On ch=1 n=f5 v=88
16226 On ch=1 n=e5 v=93
16248 On ch=1 n=f5 v=0
16322 On ch=1 n=e5 v=0
16328 On ch=1 n=f5 v=99
16334 On ch=1 n=f4 v=77
16338 On ch=1 n=a4 v=71
16364 Par ch=1 c=64 v=63
16382 Par ch=1 c=64 v=127
16502 Par ch=1 c=64 v=63
16540 On ch=1 n=f5 v=0
16548 On ch=1 n=a4 v=0
16560 On ch=1 n=f4 v=0
16560 On ch=1 n=c5 v=68
16590 Par ch=1 c=64 v=0
16630 On ch=1 n=c5 v=0
16688 Par ch=1 c=64 v=63
16728 Par ch=1 c=64 v=127
16770 On ch=1 n=c5 v=84
16906 On ch=1 n=c5 v=0
16994 Par ch=1 c=64 v=63
16996 On ch=1 n=c4 v=58
17028 Par ch=1 c=64 v=0
17060 Par ch=1 c=64 v=63
17098 On ch=1 n=e5 v=68
17110 Par ch=1 c=64 v=127
17192 On ch=1 n=a#5 v=85
17210 On ch=1 n=c4 v=0
17244 On ch=1 n=e5 v=0
17472 On ch=1 n=a#4 v=62
17488 On ch=1 n=c5 v=49
17574 On ch=1 n=a#4 v=0
17582 On ch=1 n=c5 v=0
17716 On ch=1 n=c5 v=67
17722 On ch=1 n=a#4 v=56
17748 On ch=1 n=a#5 v=0
17782 On ch=1 n=a#4 v=0
17798 On ch=1 n=c5 v=0
17896 On ch=1 n=c5 v=65
17898 On ch=1 n=a#4 v=73
17966 On ch=1 n=a#4 v=0
17970 On ch=1 n=c5 v=0
18060 Par ch=1 c=64 v=63
18062 On ch=1 n=a5 v=87
18090 Par ch=1 c=64 v=0
18094 On ch=1 n=a#4 v=58
18094 On ch=1 n=c5 v=54
18144 On ch=1 n=a5 v=0
18148 On ch=1 n=a#4 v=0
18154 On ch=1 n=c5 v=0
18262 On ch=1 n=g5 v=90
18288 On ch=1 n=a#4 v=66
18296 On ch=1 n=c5 v=48
18350 On ch=1 n=g5 v=0
18360 On ch=1 n=c5 v=0
18366 On ch=1 n=a#4 v=0
18422 Par ch=1 c=64 v=63
18444 Par ch=1 c=64 v=127
18452 On ch=1 n=g5 v=80
18464 On ch=1 n=f4 v=62
18652 Par ch=1 c=64 v=63
18670 On ch=1 n=f4 v=0
18688 On ch=1 n=f5 v=64
18700 Par ch=1 c=64 v=0
18710 On ch=1 n=a4 v=50
18716 On ch=1 n=c5 v=33
18744 Par ch=1 c=64 v=63
18760 On ch=1 n=g5 v=0
18792 On ch=1 n=c5 v=0
18794 Par ch=1 c=64 v=127
18798 On ch=1 n=a4 v=0
18890 On ch=1 n=c5 v=57
18906 On ch=1 n=a4 v=49
18942 On ch=1 n=f5 v=0
18984 On ch=1 n=a4 v=0
18986 On ch=1 n=c5 v=0
19050 Par ch=1 c=64 v=63
19070 On ch=1 n=f5 v=87
19086 On ch=1 n=c5 v=55
19086 On ch=1 n=a4 v=54
19176 On ch=1 n=c5 v=0
19178 Par ch=1 c=64 v=127
19186 On ch=1 n=a4 v=0
19268 On ch=1 n=c5 v=57
19282 On ch=1 n=a4 v=55
19324 On ch=1 n=f5 v=0
19350 On ch=1 n=a4 v=0
19350 On ch=1 n=c5 v=0
19478 On ch=1 n=a4 v=74
19492 On ch=1 n=c5 v=67
19530 On ch=1 n=a4 v=0
19594 Par ch=1 c=64 v=63
19596 On ch=1 n=c5 v=0
19618 Par ch=1 c=64 v=0
19638 On ch=1 n=e5 v=75
19666 On ch=1 n=c4 v=80
19726 On ch=1 n=a#5 v=101
19754 Par ch=1 c=64 v=63
19788 Par ch=1 c=64 v=127
19800 On ch=1 n=e5 v=0
19940 On ch=1 n=c5 v=63
19950 On ch=1 n=c4 v=0
19950 On ch=1 n=g4 v=54
20004 On ch=1 n=c5 v=0
20010 On ch=1 n=g4 v=0
20122 On ch=1 n=c5 v=83
20138 On ch=1 n=g4 v=72
20196 On ch=1 n=g4 v=0
20204 On ch=1 n=c5 v=0
20312 On ch=1 n=c5 v=79
20318 On ch=1 n=g4 v=77
20366 On ch=1 n=g4 v=0
20398 On ch=1 n=c5 v=0
20468 On ch=1 n=a#5 v=0
20506 On ch=1 n=a5 v=89
20544 On ch=1 n=g4 v=53
20544 On ch=1 n=c5 v=43
20598 On ch=1 n=c5 v=0
20604 On ch=1 n=g4 v=0
20676 Par ch=1 c=64 v=63
20694 On ch=1 n=c5 v=78
20696 On ch=1 n=g4 v=72
20708 On ch=1 n=g5 v=84
20722 Par ch=1 c=64 v=0
20766 On ch=1 n=c5 v=0
20768 On ch=1 n=a5 v=0
20774 On ch=1 n=g4 v=0
20818 On ch=1 n=g5 v=0
20878 On ch=1 n=f4 v=84
20892 On ch=1 n=b5 v=102
20892 Par ch=1 c=64 v=63
20916 Par ch=1 c=64 v=127
21092 On ch=1 n=f4 v=0
21094 On ch=1 n=c5 v=68
21104 On ch=1 n=a4 v=49
21146 On ch=1 n=c5 v=0
21158 On ch=1 n=a4 v=0
21302 On ch=1 n=a4 v=52
21308 On ch=1 n=c5 v=51
21344 Par ch=1 c=64 v=63
21364 On ch=1 n=c5 v=0
21368 On ch=1 n=a4 v=0
21406 Par ch=1 c=64 v=0
21506 On ch=1 n=a4 v=47
21512 On ch=1 n=c5 v=49
21522 On ch=1 n=c6 v=74
21574 On ch=1 n=b5 v=0
21584 On ch=1 n=c5 v=0
21598 On ch=1 n=a4 v=0
21628 Par ch=1 c=64 v=63
21666 Par ch=1 c=64 v=127
21746 On ch=1 n=a4 v=52
21750 On ch=1 n=c5 v=52
21806 On ch=1 n=c5 v=0
21818 On ch=1 n=a4 v=0
21824 On ch=1 n=c6 v=0
21928 On ch=1 n=c5 v=57
22036 Par ch=1 c=64 v=63
22060 On ch=1 n=c5 v=0
22084 Par ch=1 c=64 v=0
22088 On ch=1 n=e5 v=81
22114 On ch=1 n=c4 v=72
22148 Par ch=1 c=64 v=63
22188 On ch=1 n=a#5 v=98
22206 Par ch=1 c=64 v=127
22272 On ch=1 n=e5 v=0
22418 On ch=1 n=c5 v=66
22426 On ch=1 n=c4 v=0
22434 On ch=1 n=a#4 v=50
22486 On ch=1 n=c5 v=0
22492 On ch=1 n=a#4 v=0
22596 On ch=1 n=a#4 v=69
22608 On ch=1 n=c5 v=58
22644 On ch=1 n=a#4 v=0
22692 On ch=1 n=c5 v=0
22766 On ch=1 n=a#4 v=80
22786 On ch=1 n=c5 v=46
22832 On ch=1 n=a#4 v=0
22844 On ch=1 n=c5 v=0
22890 Par ch=1 c=64 v=63
22948 Par ch=1 c=64 v=0
22950 On ch=1 n=a#5 v=0
22956 On ch=1 n=a5 v=85
22974 On ch=1 n=a#4 v=66
22978 On ch=1 n=c5 v=66
23036 On ch=1 n=a#4 v=0
23040 On ch=1 n=c5 v=0
23076 On ch=1 n=a5 v=0
23140 On ch=1 n=g5 v=84
23158 On ch=1 n=c5 v=66
23160 On ch=1 n=a#4 v=60
23240 On ch=1 n=c5 v=0
23244 On ch=1 n=g5 v=0
23246 On ch=1 n=a#4 v=0
23328 On ch=1 n=f5 v=89
23330 On ch=1 n=f4 v=65
23354 Par ch=1 c=64 v=63
23374 Par ch=1 c=64 v=127
23472 On ch=1 n=f4 v=0
23496 On ch=1 n=f5 v=0
23522 On ch=1 n=c5 v=72
23528 On ch=1 n=a4 v=57
23586 On ch=1 n=c5 v=0
23590 On ch=1 n=a4 v=0
23658 Par ch=1 c=64 v=63
23692 Par ch=1 c=64 v=0
23702 On ch=1 n=a5 v=101
23728 On ch=1 n=a4 v=59
23732 On ch=1 n=c5 v=59
23786 Par ch=1 c=64 v=63
23806 On ch=1 n=c5 v=0
23822 On ch=1 n=a4 v=0
23824 Par ch=1 c=64 v=127
23918 On ch=1 n=c5 v=78
23922 On ch=1 n=a4 v=78
24020 On ch=1 n=c5 v=0
24024 On ch=1 n=a4 v=0
24108 On ch=1 n=c5 v=85
24110 On ch=1 n=a4 v=88
24222 On ch=1 n=c5 v=0
24226 On ch=1 n=a4 v=0
24296 On ch=1 n=c6 v=113
24314 On ch=1 n=a4 v=80
24330 On ch=1 n=c5 v=76
24332 On ch=1 n=a5 v=0
24388 On ch=1 n=a4 v=0
24442 On ch=1 n=c5 v=0
24494 On ch=1 n=c4 v=98
24540 Par ch=1 c=64 v=63
24558 Par ch=1 c=64 v=0
24696 On ch=1 n=c5 v=89
24698 Par ch=1 c=64 v=63
24706 On ch=1 n=g4 v=76
24714 Par ch=1 c=64 v=127
24794 On ch=1 n=c5 v=0
24814 On ch=1 n=g4 v=0
24872 On ch=1 n=a#5 v=107
24886 On ch=1 n=c6 v=0
24902 On ch=1 n=g4 v=72
24904 On ch=1 n=c5 v=81
24908 On ch=1 n=c4 v=0
24954 On ch=1 n=g4 v=0
24988 On ch=1 n=c5 v=0
25072 On ch=1 n=c5 v=85
25072 On ch=1 n=a#4 v=97
25126 On ch=1 n=a#4 v=0
25130 Par ch=1 c=64 v=63
25132 On ch=1 n=c5 v=0
25150 Par ch=1 c=64 v=0
25188 Par ch=1 c=64 v=63
25242 Par ch=1 c=64 v=127
25262 On ch=1 n=a#4 v=80
25264 On ch=1 n=c5 v=64
25322 On ch=1 n=a#4 v=0
25326 On ch=1 n=c5 v=0
25408 Par ch=1 c=64 v=63
25440 Par ch=1 c=64 v=0
25442 On ch=1 n=a#4 v=71
25448 On ch=1 n=g5 v=87
25454 On ch=1 n=c5 v=57
25464 On ch=1 n=a#5 v=0
25520 On ch=1 n=c5 v=0
25542 On ch=1 n=a#4 v=0
25598 On ch=1 n=g5 v=0
25632 Par ch=1 c=64 v=63
25646 On ch=1 n=a4 v=72
25646 On ch=1 n=c5 v=80
25648 Par ch=1 c=64 v=127
25652 On ch=1 n=f5 v=89
25662 On ch=1 n=f4 v=63
25696 On ch=1 n=c5 v=0
25698 On ch=1 n=a4 v=0
25730 On ch=1 n=f5 v=0
25746 On ch=1 n=f4 v=0
25840 Par ch=1 c=64 v=63
25858 Par ch=1 c=64 v=0
26026 On ch=1 n=a4 v=112
26030 On ch=1 n=a3 v=113
26054 Par ch=1 c=64 v=63
26066 Par ch=1 c=64 v=127
26190 On ch=1 n=a3 v=0
26222 Par ch=1 c=64 v=63
26222 On ch=1 n=a#3 v=104
26230 Par ch=1 c=64 v=0
26232 On ch=1 n=a#4 v=108
26264 On ch=1 n=a4 v=0
26310 On ch=1 n=a#4 v=0
26314 On ch=1 n=a#3 v=0
26410 On ch=1 n=g5 v=91
26414 On ch=1 n=g4 v=76
26484 On ch=1 n=g4 v=0
26486 On ch=1 n=g5 v=0
26596 On ch=1 n=b4 v=98
26598 On ch=1 n=b3 v=81
26658 On ch=1 n=b3 v=0
26666 On ch=1 n=b4 v=0
26770 On ch=1 n=c4 v=107
26776 On ch=1 n=c5 v=109
26876 On ch=1 n=c5 v=0
26902 On ch=1 n=c4 v=0
26954 On ch=1 n=a5 v=85
26956 On ch=1 n=a4 v=75
27026 On ch=1 n=a5 v=0
27036 On ch=1 n=a4 v=0
27136 On ch=1 n=c#4 v=92
27140 On ch=1 n=c#5 v=105
27190 On ch=1 n=c#5 v=0
27196 On ch=1 n=c#4 v=0
27316 On ch=1 n=d4 v=104
27326 On ch=1 n=d5 v=107
27362 Par ch=1 c=64 v=63
27364 Par ch=1 c=64 v=127
27418 On ch=1 n=d4 v=0
27490 Par ch=1 c=64 v=63
27502 On ch=1 n=a#4 v=76
27502 On ch=1 n=a#5 v=91
27504 On ch=1 n=d5 v=0
27504 Par ch=1 c=64 v=0
27556 On ch=1 n=a#4 v=0
27618 On ch=1 n=a#5 v=0
27688 On ch=1 n=e5 v=91
27690 On ch=1 n=e4 v=87
27692 Par ch=1 c=64 v=63
27722 Par ch=1 c=64 v=0
27748 On ch=1 n=e5 v=0
27774 On ch=1 n=e4 v=0
28018 Par ch=1 c=64 v=63
28020 Par ch=1 c=64 v=127
28038 On ch=1 n=a#6 v=97
28152 On ch=1 n=a#6 v=0
28632 On ch=1 n=a#4 v=60
28636 On ch=1 n=g5 v=54
28648 On ch=1 n=c5 v=61
28656 On ch=1 n=e5 v=54
28716 On ch=1 n=e5 v=0
28730 On ch=1 n=g5 v=0
28746 On ch=1 n=a#4 v=0
28762 On ch=1 n=c5 v=0
28872 On ch=1 n=a6 v=73
28962 On ch=1 n=g6 v=67
28984 On ch=1 n=a6 v=0
29014 On ch=1 n=f6 v=67
29038 On ch=1 n=g6 v=0
29082 On ch=1 n=e6 v=65
29090 On ch=1 n=f6 v=0
29158 On ch=1 n=f6 v=81
29168 Par ch=1 c=64 v=63
29176 Par ch=1 c=64 v=0
29180 On ch=1 n=e6 v=0
29208 On ch=1 n=f5 v=65
29220 On ch=1 n=a4 v=47
29226 On ch=1 n=f6 v=0
29226 On ch=1 n=c5 v=54
29372 On ch=1 n=c5 v=0
29374 On ch=1 n=f5 v=0
29380 On ch=1 n=a4 v=0
29394 On ch=1 n=g6 v=73
29448 On ch=1 n=g6 v=0
29568 On ch=1 n=a6 v=74
29636 On ch=1 n=a6 v=0
29796 On ch=1 n=c6 v=74
29796 On ch=1 n=a5 v=54
29798 On ch=1 n=c5 v=71
29828 Par ch=1 c=64 v=63
29832 Par ch=1 c=64 v=127
29884 On ch=1 n=a5 v=0
29892 On ch=1 n=c6 v=0
29894 On ch=1 n=c5 v=0
30168 On ch=1 n=a#5 v=90
30170 On ch=1 n=c#5 v=76
30180 On ch=1 n=g5 v=66
30256 On ch=1 n=g5 v=0
30258 On ch=1 n=c#5 v=0
30262 On ch=1 n=a#5 v=0
30396 On ch=1 n=a#5 v=80
30412 On ch=1 n=g5 v=65
30428 On ch=1 n=d5 v=64
30486 Par ch=1 c=64 v=63
30508 Par ch=1 c=64 v=0
30624 Par ch=1 c=64 v=63
30646 Par ch=1 c=64 v=127
30772 On ch=1 n=g5 v=0
30860 On ch=1 n=a#5 v=0
31078 On ch=1 n=f5 v=51
31090 On ch=1 n=a5 v=51
31168 Par ch=1 c=64 v=63
31204 Par ch=1 c=64 v=0
31270 Par ch=1 c=64 v=63
31326 Par ch=1 c=64 v=127
31486 On ch=1 n=d5 v=0
31498 On ch=1 n=a5 v=0
31504 On ch=1 n=f5 v=0
31578 Par ch=1 c=64 v=63
31616 Par ch=1 c=64 v=127
31676 Par ch=1 c=64 v=63
31678 Par ch=1 c=64 v=63
31686 Par ch=1 c=64 v=0
32166 On ch=1 n=a3 v=103
32176 On ch=1 n=a4 v=106
32258 On ch=1 n=a4 v=0
32280 On ch=1 n=a3 v=0
32378 On ch=1 n=a#4 v=119
32378 On ch=1 n=a#3 v=116
32520 On ch=1 n=a#4 v=0
32568 On ch=1 n=a#3 v=0
32580 On ch=1 n=g4 v=90
32588 On ch=1 n=g5 v=91
32662 On ch=1 n=g5 v=0
32662 On ch=1 n=g4 v=0
32768 On ch=1 n=b4 v=100
32776 On ch=1 n=b3 v=106
32860 On ch=1 n=b4 v=0
32874 On ch=1 n=b3 v=0
32958 On ch=1 n=c4 v=120
32966 On ch=1 n=c5 v=116
33086 On ch=1 n=c5 v=0
33124 On ch=1 n=c4 v=0
33148 On ch=1 n=a4 v=89
33152 On ch=1 n=a5 v=88
33208 On ch=1 n=a5 v=0
33224 On ch=1 n=a4 v=0
33340 On ch=1 n=c#4 v=101
33340 On ch=1 n=c#5 v=108
33394 On ch=1 n=c#5 v=0
33398 On ch=1 n=c#4 v=0
33530 On ch=1 n=d4 v=109
33540 On ch=1 n=d5 v=113
33658 On ch=1 n=d4 v=0
33712 On ch=1 n=a#5 v=101
33714 On ch=1 n=d5 v=0
33730 On ch=1 n=a#4 v=76
33776 On ch=1 n=a#4 v=0
33804 On ch=1 n=a#5 v=0
33912 On ch=1 n=e5 v=93
33920 On ch=1 n=e4 v=86
33984 On ch=1 n=e5 v=0
34006 On ch=1 n=e4 v=0
34136 On ch=1 n=a#6 v=97
34444 Par ch=1 c=64 v=63
34462 Par ch=1 c=64 v=127
34726 On ch=1 n=a#4 v=60
34732 On ch=1 n=g5 v=57
34738 On ch=1 n=c5 v=63
34740 On ch=1 n=e5 v=63
34760 On ch=1 n=a#6 v=0
34840 On ch=1 n=e5 v=0
34842 On ch=1 n=g5 v=0
34852 On ch=1 n=c5 v=0
34860 On ch=1 n=a#4 v=0
34974 On ch=1 n=a6 v=66
35040 On ch=1 n=a6 v=0
35042 On ch=1 n=g6 v=60
35112 On ch=1 n=g6 v=0
35118 On ch=1 n=f6 v=52
35156 On ch=1 n=e6 v=72
35166 On ch=1 n=f6 v=0
35208 Par ch=1 c=64 v=63
35232 On ch=1 n=f6 v=89
35236 On ch=1 n=e6 v=0
35248 Par ch=1 c=64 v=0
35276 On ch=1 n=c5 v=65
35278 On ch=1 n=f5 v=65
35288 On ch=1 n=a4 v=45
35314 On ch=1 n=g6 v=94
35334 On ch=1 n=f6 v=0
35370 On ch=1 n=a6 v=92
35394 On ch=1 n=g6 v=0
35416 On ch=1 n=c5 v=0
35422 On ch=1 n=a4 v=0
35424 On ch=1 n=f5 v=0
35444 On ch=1 n=a6 v=0
35852 On ch=1 n=d6 v=71
35870 On ch=1 n=a#4 v=55
35880 On ch=1 n=f5 v=49
35882 On ch=1 n=d5 v=59
35908 On ch=1 n=e6 v=66
35934 On ch=1 n=d6 v=0
35966 On ch=1 n=f6 v=73
35980 On ch=1 n=e6 v=0
35996 On ch=1 n=f5 v=0
36000 On ch=1 n=d5 v=0
36040 On ch=1 n=f6 v=0
36044 On ch=1 n=a#4 v=0
36498 On ch=1 n=f5 v=68
36518 On ch=1 n=a4 v=40
36526 Par ch=1 c=64 v=63
36542 On ch=1 n=c4 v=41
36550 Par ch=1 c=64 v=127
36692 On ch=1 n=f5 v=0
36790 On ch=1 n=a4 v=0
37106 On ch=1 n=a5 v=58
37120 On ch=1 n=a#4 v=56
37134 On ch=1 n=e5 v=52
37160 Par ch=1 c=64 v=63
37172 On ch=1 n=g5 v=60
37222 On ch=1 n=a5 v=0
37282 Par ch=1 c=64 v=127
37384 On ch=1 n=c4 v=0
37408 On ch=1 n=e5 v=0
37484 On ch=1 n=a#4 v=0
37578 On ch=1 n=f5 v=68
37604 On ch=1 n=g5 v=0
37684 On ch=1 n=f5 v=0
37776 On ch=1 n=f4 v=48
37778 On ch=1 n=f5 v=74
37858 Par ch=1 c=64 v=63
37928 Par ch=1 c=64 v=127
37990 On ch=1 n=a4 v=42
38162 On ch=1 n=a5 v=69
38190 On ch=1 n=c5 v=52
38210 On ch=1 n=a4 v=0
38242 On ch=1 n=f5 v=0
38306 On ch=1 n=f4 v=0
38382 On ch=1 n=f4 v=61
38384 On ch=1 n=a5 v=0
38386 On ch=1 n=c6 v=70
38388 On ch=1 n=c5 v=0
38392 On ch=1 n=e5 v=53
38470 Par ch=1 c=64 v=63
38518 Par ch=1 c=64 v=127
38584 On ch=1 n=a#5 v=75
38600 On ch=1 n=g4 v=50
38626 On ch=1 n=c6 v=0
38766 On ch=1 n=f4 v=0
38770 On ch=1 n=g5 v=66
38788 On ch=1 n=a#5 v=0
38788 On ch=1 n=a#4 v=56
38828 On ch=1 n=e5 v=0
38948 On ch=1 n=g4 v=0
38976 On ch=1 n=f5 v=69
38984 On ch=1 n=a#4 v=0
38988 On ch=1 n=f4 v=39
39006 Par ch=1 c=64 v=63
39022 On ch=1 n=g5 v=0
39092 Par ch=1 c=64 v=127
39158 On ch=1 n=c5 v=70
39162 On ch=1 n=a4 v=52
39190 On ch=1 n=f5 v=0
39292 On ch=1 n=c5 v=0
39334 On ch=1 n=f4 v=0
39336 On ch=1 n=a5 v=78
39364 On ch=1 n=c5 v=57
39460 On ch=1 n=c5 v=0
39484 On ch=1 n=a5 v=0
39504 On ch=1 n=a4 v=0
39542 On ch=1 n=f4 v=50
39548 On ch=1 n=c6 v=74
39560 On ch=1 n=e5 v=53
39608 Par ch=1 c=64 v=63
39684 Par ch=1 c=64 v=127
39736 On ch=1 n=a#5 v=79
39768 On ch=1 n=c6 v=0
39772 On ch=1 n=g4 v=45
39926 On ch=1 n=f4 v=0
39934 On ch=1 n=g5 v=64
39940 On ch=1 n=a#4 v=51
39954 On ch=1 n=a#5 v=0
40034 On ch=1 n=e5 v=0
40066 On ch=1 n=g4 v=0
40130 On ch=1 n=a#4 v=0
40140 On ch=1 n=f5 v=59
40146 On ch=1 n=f4 v=39
40150 Par ch=1 c=64 v=63
40162 On ch=1 n=g5 v=0
40254 Par ch=1 c=64 v=127
40328 On ch=1 n=a4 v=44
40342 On ch=1 n=c5 v=66
40346 On ch=1 n=f5 v=0
40468 On ch=1 n=c5 v=0
40496 On ch=1 n=f4 v=0
40524 On ch=1 n=a5 v=64
40552 On ch=1 n=c5 v=56
40556 On ch=1 n=a4 v=0
40738 On ch=1 n=c5 v=0
40738 On ch=1 n=f5 v=59
40744 On ch=1 n=a5 v=0
40746 On ch=1 n=f4 v=51
40962 On ch=1 n=c5 v=52
40996 On ch=1 n=a4 v=47
41086 On ch=1 n=c5 v=0
41132 On ch=1 n=f5 v=0
41168 On ch=1 n=a5 v=59
41186 On ch=1 n=a4 v=0
41186 On ch=1 n=f4 v=0
41208 On ch=1 n=c5 v=48
41258 On ch=1 n=a5 v=0
41260 On ch=1 n=c5 v=0
41522 On ch=1 n=a#4 v=41
41528 On ch=1 n=g5 v=49
41550 On ch=1 n=f3 v=37
41552 On ch=1 n=f4 v=19
41622 Par ch=1 c=64 v=63
41758 Par ch=1 c=64 v=127
41944 On ch=1 n=g5 v=0
41966 On ch=1 n=a#4 v=0
42344 On ch=1 n=f5 v=40
42348 On ch=1 n=a4 v=21
42418 Par ch=1 c=64 v=63
42524 Par ch=1 c=64 v=127
42666 On ch=1 n=a4 v=0
42754 On ch=1 n=f5 v=0
42780 Par ch=1 c=64 v=63
42802 On ch=1 n=f3 v=0
42810 Par ch=1 c=64 v=0
42846 On ch=1 n=f4 v=0
43196 Par ch=1 c=64 v=63
43206 Par ch=1 c=64 v=127
43226 On ch=1 n=a5 v=121
43232 On ch=1 n=a6 v=125
43298 On ch=1 n=a5 v=0
43324 On ch=1 n=a6 v=0
43926 On ch=1 n=a5 v=112
43928 On ch=1 n=g6 v=122
43998 On ch=1 n=a5 v=0
44018 On ch=1 n=g6 v=0
44596 On ch=1 n=a4 v=122
44598 On ch=1 n=a3 v=111
44600 On ch=1 n=f6 v=118
44602 On ch=1 n=a5 v=111
44622 Par ch=1 c=64 v=63
44630 Par ch=1 c=64 v=0
44702 Par ch=1 c=64 v=63
44718 Par ch=1 c=64 v=127
44938 On ch=1 n=a4 v=0
44964 On ch=1 n=a3 v=0
44976 On ch=1 n=a5 v=0
45012 On ch=1 n=f6 v=0
45252 On ch=1 n=e6 v=120
45252 On ch=1 n=g4 v=114
45256 On ch=1 n=a5 v=113
45258 On ch=1 n=g3 v=111
45272 Par ch=1 c=64 v=63
45284 Par ch=1 c=64 v=0
45346 Par ch=1 c=64 v=63
45362 Par ch=1 c=64 v=127
45566 On ch=1 n=g4 v=0
45582 On ch=1 n=a5 v=0
45592 On ch=1 n=e6 v=0
45600 On ch=1 n=g3 v=0
45930 On ch=1 n=d6 v=118
45932 On ch=1 n=a5 v=114
45934 On ch=1 n=f4 v=114
45934 On ch=1 n=f3 v=111
45950 Par ch=1 c=64 v=63
45962 Par ch=1 c=64 v=0
46028 Par ch=1 c=64 v=63
46046 Par ch=1 c=64 v=127
46234 On ch=1 n=f4 v=0
46244 On ch=1 n=a5 v=0
46246 On ch=1 n=d6 v=0
46282 On ch=1 n=f3 v=0
46574 Par ch=1 c=64 v=63
46584 Par ch=1 c=64 v=0
46590 On ch=1 n=c#6 v=121
46592 On ch=1 n=e4 v=116
46596 On ch=1 n=e3 v=106
46596 On ch=1 n=a5 v=107
46596 On ch=1 n=g5 v=109
46642 Par ch=1 c=64 v=63
46662 Par ch=1 c=64 v=127
46764 On ch=1 n=e3 v=0
46830 On ch=1 n=e4 v=0
46860 On ch=1 n=g5 v=0
46884 On ch=1 n=a5 v=0
46890 On ch=1 n=c#6 v=0
47274 On ch=1 n=d4 v=112
47284 On ch=1 n=d6 v=111
47324 Par ch=1 c=64 v=63
47390 Par ch=1 c=64 v=127
47400 On ch=1 n=a5 v=71
47510 On ch=1 n=d6 v=0
47518 On ch=1 n=f4 v=68
47520 On ch=1 n=a5 v=0
47522 On ch=1 n=f5 v=82
47606 On ch=1 n=a5 v=72
47618 On ch=1 n=f5 v=0
47684 On ch=1 n=f4 v=0
47686 On ch=1 n=d4 v=0
47690 On ch=1 n=d6 v=101
47700 On ch=1 n=a5 v=0
47714 On ch=1 n=a4 v=78
47766 On ch=1 n=a5 v=84
47792 On ch=1 n=d6 v=0
47852 On ch=1 n=a5 v=0
47854 On ch=1 n=c#4 v=104
47864 On ch=1 n=e6 v=108
47882 Par ch=1 c=64 v=63
47900 On ch=1 n=a4 v=0
47908 Par ch=1 c=64 v=0
47932 Par ch=1 c=64 v=63
47950 On ch=1 n=a5 v=91
47974 Par ch=1 c=64 v=127
48018 On ch=1 n=e6 v=0
48054 On ch=1 n=g5 v=78
48060 On ch=1 n=a5 v=0
48076 On ch=1 n=e4 v=81
48126 On ch=1 n=a5 v=62
48156 On ch=1 n=g5 v=0
48204 On ch=1 n=e6 v=101
48210 On ch=1 n=c#4 v=0
48220 On ch=1 n=a5 v=0
48248 On ch=1 n=e4 v=0
48248 On ch=1 n=a4 v=57
48288 On ch=1 n=a5 v=77
48316 On ch=1 n=e6 v=0
48362 On ch=1 n=a5 v=0
48372 On ch=1 n=a4 v=0
48402 Par ch=1 c=64 v=63
48406 On ch=1 n=d4 v=112
48408 On ch=1 n=f6 v=106
48468 Par ch=1 c=64 v=127
48496 On ch=1 n=d6 v=91
48580 On ch=1 n=f6 v=0
48586 On ch=1 n=a5 v=75
48598 On ch=1 n=d6 v=0
48640 On ch=1 n=f4 v=72
48688 On ch=1 n=a5 v=0
48692 On ch=1 n=d6 v=93
48742 On ch=1 n=d4 v=0
48776 On ch=1 n=f6 v=93
48798 On ch=1 n=f4 v=0
48800 On ch=1 n=d6 v=0
48814 On ch=1 n=a4 v=60
48856 On ch=1 n=d6 v=93
48862 On ch=1 n=f6 v=0
48902 Par ch=1 c=64 v=63
48910 On ch=1 n=a4 v=0
48930 Par ch=1 c=64 v=0
48942 On ch=1 n=f#6 v=114
48952 On ch=1 n=d6 v=0
48958 Par ch=1 c=64 v=63
48958 On ch=1 n=c4 v=118
48994 Par ch=1 c=64 v=127
49018 On ch=1 n=d6 v=96
49062 On ch=1 n=f#6 v=0
49114 On ch=1 n=a5 v=93
49144 On ch=1 n=d6 v=0
49160 On ch=1 n=f#4 v=80
49202 On ch=1 n=d6 v=84
49216 On ch=1 n=a5 v=0
49278 On ch=1 n=f#6 v=107
49314 On ch=1 n=d6 v=0
49324 On ch=1 n=f#4 v=0
49324 On ch=1 n=c4 v=0
49326 On ch=1 n=a4 v=65
49362 On ch=1 n=d6 v=102
49384 On ch=1 n=f#6 v=0
49448 Par ch=1 c=64 v=63
49456 Par ch=1 c=64 v=0
49472 On ch=1 n=d6 v=0
49472 On ch=1 n=a4 v=0
49490 On ch=1 n=g6 v=118
49496 On ch=1 n=b3 v=117
49526 Par ch=1 c=64 v=63
49542 Par ch=1 c=64 v=127
49612 On ch=1 n=b3 v=0
49986 On ch=1 n=g6 v=0
49994 On ch=1 n=a6 v=97
50076 On ch=1 n=g6 v=84
50128 On ch=1 n=a6 v=0
50160 On ch=1 n=f6 v=112
50172 Par ch=1 c=64 v=63
50186 Par ch=1 c=64 v=0
50234 On ch=1 n=g6 v=0
50640 On ch=1 n=g6 v=75
50650 On ch=1 n=f6 v=0
50734 On ch=1 n=f6 v=85
50756 On ch=1 n=g6 v=0
50778 Par ch=1 c=64 v=63
50780 Par ch=1 c=64 v=127
50798 On ch=1 n=g5 v=103
50800 On ch=1 n=e6 v=113
50862 On ch=1 n=f6 v=0
50938 On ch=1 n=e6 v=0
51270 On ch=1 n=g5 v=0
51290 On ch=1 n=f6 v=94
51370 On ch=1 n=e6 v=103
51420 On ch=1 n=f6 v=0
51430 On ch=1 n=f5 v=107
51432 On ch=1 n=g5 v=100
51454 Par ch=1 c=64 v=63
51458 On ch=1 n=d6 v=103
51538 On ch=1 n=e6 v=0
51538 Par ch=1 c=64 v=127
51784 On ch=1 n=d6 v=0
51900 On ch=1 n=e6 v=94
51946 On ch=1 n=g5 v=0
51970 On ch=1 n=d6 v=101
51982 On ch=1 n=f5 v=0
52044 On ch=1 n=e6 v=0
52060 Par ch=1 c=64 v=63
52068 On ch=1 n=c6 v=109
52072 On ch=1 n=e5 v=99
52088 On ch=1 n=g5 v=84
52110 Par ch=1 c=64 v=0
52146 Par ch=1 c=64 v=63
52156 On ch=1 n=d6 v=0
52188 Par ch=1 c=64 v=127
52360 On ch=1 n=c6 v=0
52436 On ch=1 n=g5 v=0
52460 On ch=1 n=e5 v=0
52554 On ch=1 n=d6 v=85
52632 On ch=1 n=c6 v=84
52662 On ch=1 n=d6 v=0
52694 Par ch=1 c=64 v=63
52708 On ch=1 n=d5 v=84
52714 On ch=1 n=b5 v=89
52714 On ch=1 n=g5 v=76
52714 On ch=1 n=f5 v=76
52722 Par ch=1 c=64 v=0
52786 On ch=1 n=c6 v=0
52796 Par ch=1 c=64 v=63
52826 Par ch=1 c=64 v=127
52946 On ch=1 n=b5 v=0
53048 On ch=1 n=d5 v=0
53050 On ch=1 n=g5 v=0
53060 On ch=1 n=f5 v=0
53184 On ch=1 n=c6 v=76
53264 On ch=1 n=b5 v=68
53286 On ch=1 n=c6 v=0
53344 Par ch=1 c=64 v=63
53354 On ch=1 n=c5 v=63
53368 On ch=1 n=d6 v=66
53378 On ch=1 n=b5 v=0
53414 Par ch=1 c=64 v=0
53468 On ch=1 n=d6 v=0
53470 On ch=1 n=c6 v=76
53558 On ch=1 n=b5 v=71
53562 On ch=1 n=e5 v=62
53568 On ch=1 n=c6 v=0
53572 Par ch=1 c=64 v=63
53610 Par ch=1 c=64 v=127
53650 On ch=1 n=c6 v=74
53654 On ch=1 n=b5 v=0
53730 On ch=1 n=c5 v=0
53740 On ch=1 n=b5 v=74
53748 On ch=1 n=c6 v=0
53754 On ch=1 n=g5 v=61
53756 On ch=1 n=e5 v=0
53806 On ch=1 n=c6 v=83
53832 On ch=1 n=b5 v=0
53870 Par ch=1 c=64 v=63
53894 On ch=1 n=e6 v=101
53908 On ch=1 n=b4 v=83
53914 Par ch=1 c=64 v=0
53916 On ch=1 n=c6 v=0
53926 On ch=1 n=g5 v=0
53976 Par ch=1 c=64 v=63
53982 On ch=1 n=d6 v=88
54004 On ch=1 n=e6 v=0
54020 Par ch=1 c=64 v=127
54058 On ch=1 n=c#6 v=98
54078 On ch=1 n=d6 v=0
54118 On ch=1 n=f5 v=77
54136 On ch=1 n=d6 v=89
54140 Par ch=1 c=64 v=63
54154 On ch=1 n=c#6 v=0
54186 Par ch=1 c=64 v=0
54214 Par ch=1 c=64 v=63
54240 On ch=1 n=c#6 v=87
54252 On ch=1 n=b4 v=0
54256 On ch=1 n=d6 v=0
54264 Par ch=1 c=64 v=127
54304 On ch=1 n=g5 v=63
54312 On ch=1 n=f5 v=0
54338 On ch=1 n=d6 v=85
54362 On ch=1 n=c#6 v=0
54362 Par ch=1 c=64 v=63
54382 On ch=1 n=g5 v=0
54390 Par ch=1 c=64 v=0
54430 On ch=1 n=e6 v=94
54448 On ch=1 n=d6 v=0
54452 On ch=1 n=e5 v=85
54452 On ch=1 n=g5 v=83
54464 On ch=1 n=c5 v=83
54472 Par ch=1 c=64 v=63
54502 Par ch=1 c=64 v=127
54514 On ch=1 n=d6 v=85
54554 On ch=1 n=e6 v=0
54606 On ch=1 n=d6 v=0
54620 On ch=1 n=c6 v=88
54674 On ch=1 n=g5 v=0
54706 On ch=1 n=c5 v=0
54710 On ch=1 n=e5 v=0
54716 On ch=1 n=d6 v=89
54728 On ch=1 n=c6 v=0
54780 On ch=1 n=e6 v=91
54822 On ch=1 n=d6 v=0
54858 On ch=1 n=f6 v=89
54906 On ch=1 n=e6 v=0
54924 Par ch=1 c=64 v=63
54946 On ch=1 n=g6 v=89
54962 On ch=1 n=f6 v=0
55020 Par ch=1 c=64 v=0
55030 On ch=1 n=f6 v=87
55036 Par ch=1 c=64 v=63
55088 On ch=1 n=g6 v=0
55138 On ch=1 n=f6 v=0
55154 On ch=1 n=e6 v=90
55240 On ch=1 n=e6 v=0
55242 On ch=1 n=f6 v=97
55320 On ch=1 n=g6 v=87
55338 On ch=1 n=f6 v=0
55404 On ch=1 n=g#6 v=103
55430 On ch=1 n=g6 v=0
55478 On ch=1 n=g#6 v=0
55482 Par ch=1 c=64 v=0
55528 On ch=1 n=a6 v=112
55528 On ch=1 n=f4 v=103
55542 Par ch=1 c=64 v=127
55616 On ch=1 n=f4 v=0
55620 Par ch=1 c=64 v=63
55626 On ch=1 n=a#6 v=100
55632 Par ch=1 c=64 v=0
55642 On ch=1 n=a6 v=0
55724 On ch=1 n=a6 v=96
55726 On ch=1 n=f5 v=93
55762 On ch=1 n=a#6 v=0
55802 On ch=1 n=f5 v=0
55812 On ch=1 n=g6 v=90
55814 On ch=1 n=a6 v=0
55900 On ch=1 n=g6 v=0
55912 On ch=1 n=f6 v=55
55966 On ch=1 n=f6 v=0
55982 On ch=1 n=e6 v=106
56058 On ch=1 n=e6 v=0
56092 On ch=1 n=d6 v=96
56094 On ch=1 n=b3 v=106
56094 Par ch=1 c=64 v=63
56098 Par ch=1 c=64 v=127
56122 Par ch=1 c=64 v=63
56132 Par ch=1 c=64 v=0
56158 On ch=1 n=d6 v=0
56176 On ch=1 n=b3 v=0
56196 On ch=1 n=c#7 v=108
56276 On ch=1 n=c#7 v=0
56284 On ch=1 n=b4 v=86
56294 On ch=1 n=d7 v=84
56362 On ch=1 n=b4 v=0
56376 On ch=1 n=c7 v=96
56404 On ch=1 n=d7 v=0
56470 On ch=1 n=b6 v=82
56484 On ch=1 n=c7 v=0
56542 On ch=1 n=a6 v=88
56552 On ch=1 n=b6 v=0
56620 On ch=1 n=a6 v=0
56636 On ch=1 n=g6 v=86
56666 On ch=1 n=e4 v=116
56672 Par ch=1 c=64 v=63
56676 Par ch=1 c=64 v=127
56700 Par ch=1 c=64 v=63
56714 Par ch=1 c=64 v=0
56718 On ch=1 n=g6 v=0
56748 On ch=1 n=a6 v=92
56752 On ch=1 n=e4 v=0
56842 On ch=1 n=g6 v=84
56870 On ch=1 n=e5 v=99
56874 On ch=1 n=a6 v=0
56930 On ch=1 n=f6 v=99
56936 On ch=1 n=e5 v=0
56950 On ch=1 n=g6 v=0
57008 On ch=1 n=f6 v=0
57012 On ch=1 n=e6 v=84
57086 On ch=1 n=e6 v=0
57100 On ch=1 n=d6 v=90
57166 On ch=1 n=d6 v=0
57204 On ch=1 n=c6 v=97
57204 On ch=1 n=a3 v=112
57208 Par ch=1 c=64 v=63
57216 Par ch=1 c=64 v=127
57250 Par ch=1 c=64 v=63
57262 Par ch=1 c=64 v=0
57274 On ch=1 n=c6 v=0
57296 On ch=1 n=a3 v=0
57304 On ch=1 n=b6 v=96
57390 On ch=1 n=a4 v=96
57392 On ch=1 n=b6 v=0
57412 On ch=1 n=c7 v=99
57472 On ch=1 n=a4 v=0
57480 On ch=1 n=b6 v=89
57528 On ch=1 n=c7 v=0
57572 On ch=1 n=a6 v=96
57610 On ch=1 n=b6 v=0
57660 On ch=1 n=g6 v=84
57670 On ch=1 n=a6 v=0
57752 On ch=1 n=g6 v=0
57762 On ch=1 n=f6 v=94
57778 On ch=1 n=d4 v=120
57848 On ch=1 n=d4 v=0
57850 On ch=1 n=f6 v=0
57854 On ch=1 n=c#7 v=105
57948 On ch=1 n=d7 v=90
57956 On ch=1 n=c#7 v=0
58034 On ch=1 n=b6 v=92
58050 On ch=1 n=d7 v=0
58132 On ch=1 n=g6 v=94
58138 On ch=1 n=b6 v=0
58154 On ch=1 n=b4 v=101
58224 On ch=1 n=b4 v=0
58230 On ch=1 n=g6 v=0
58244 On ch=1 n=f6 v=89
58286 On ch=1 n=f6 v=0
58346 On ch=1 n=c5 v=112
58350 On ch=1 n=e6 v=96
58420 On ch=1 n=b6 v=102
58424 On ch=1 n=c5 v=0
58428 On ch=1 n=e6 v=0
58514 On ch=1 n=b6 v=0
58520 On ch=1 n=c7 v=104
58612 On ch=1 n=g6 v=100
58624 On ch=1 n=c7 v=0
58674 On ch=1 n=c4 v=112
58706 On ch=1 n=f6 v=99
58712 On ch=1 n=g6 v=0
58762 On ch=1 n=c4 v=0
58786 On ch=1 n=f6 v=0
58786 On ch=1 n=e6 v=96
58858 On ch=1 n=e6 v=0
58880 On ch=1 n=d6 v=102
58886 On ch=1 n=g4 v=111
58944 On ch=1 n=g4 v=0
58978 On ch=1 n=e6 v=99
58984 On ch=1 n=d6 v=0
59060 On ch=1 n=d6 v=96
59100 On ch=1 n=e6 v=0
59152 On ch=1 n=c6 v=103
59178 On ch=1 n=d6 v=0
59240 On ch=1 n=c6 v=0
59250 On ch=1 n=b5 v=82
59326 On ch=1 n=a5 v=91
59342 On ch=1 n=b5 v=0
59418 On ch=1 n=a5 v=0
59420 On ch=1 n=g5 v=93
59474 On ch=1 n=g5 v=0
59520 On ch=1 n=a5 v=88
59598 On ch=1 n=a5 v=0
59602 On ch=1 n=g5 v=83
59700 On ch=1 n=f5 v=81
59702 On ch=1 n=g5 v=0
59782 On ch=1 n=f5 v=0
59798 On ch=1 n=e5 v=78
59902 On ch=1 n=e5 v=0
59906 On ch=1 n=d5 v=70
60024 Par ch=1 c=64 v=63
60066 On ch=1 n=d5 v=0
60066 Par ch=1 c=64 v=127
60080 On ch=1 n=c5 v=68
60116 On ch=1 n=d#6 v=92
60412 On ch=1 n=d#5 v=54
60570 On ch=1 n=d#6 v=0
60616 On ch=1 n=g5 v=57
60660 On ch=1 n=c5 v=0
60768 On ch=1 n=c5 v=76
60802 On ch=1 n=d#5 v=0
60810 On ch=1 n=g5 v=0
60964 On ch=1 n=d6 v=94
60978 On ch=1 n=d#5 v=72
61058 On ch=1 n=d6 v=0
61150 On ch=1 n=c6 v=101
61162 On ch=1 n=g5 v=65
61178 On ch=1 n=c5 v=0
61260 On ch=1 n=c6 v=0
61262 Par ch=1 c=64 v=63
61264 Par ch=1 c=64 v=127
61278 Par ch=1 c=64 v=63
61328 On ch=1 n=d#5 v=0
61346 On ch=1 n=f#6 v=100
61366 On ch=1 n=b4 v=61
61398 On ch=1 n=g5 v=0
61418 Par ch=1 c=64 v=0
61554 Par ch=1 c=64 v=63
61584 Par ch=1 c=64 v=127
61586 On ch=1 n=d5 v=60
61796 On ch=1 n=g5 v=45
61802 On ch=1 n=g6 v=84
61812 On ch=1 n=b4 v=0
61864 On ch=1 n=f#6 v=0
62000 On ch=1 n=d5 v=0
62018 On ch=1 n=d6 v=67
62048 On ch=1 n=b4 v=33
62050 On ch=1 n=g6 v=0
62060 On ch=1 n=g5 v=0
62062 Par ch=1 c=64 v=63
62100 Par ch=1 c=64 v=0
62192 Par ch=1 c=64 v=63
62230 Par ch=1 c=64 v=127
62242 On ch=1 n=d5 v=51
62370 On ch=1 n=d6 v=0
62440 On ch=1 n=g5 v=54
62452 On ch=1 n=b4 v=0
62650 On ch=1 n=b4 v=63
62656 On ch=1 n=d5 v=0
62676 On ch=1 n=g5 v=0
62690 On ch=1 n=g#6 v=94
62752 Par ch=1 c=64 v=63
62794 Par ch=1 c=64 v=0
62878 Par ch=1 c=64 v=63
62924 Par ch=1 c=64 v=127
62964 On ch=1 n=d5 v=52
63120 On ch=1 n=f5 v=63
63124 On ch=1 n=b4 v=0
63258 On ch=1 n=d5 v=0
63312 On ch=1 n=b4 v=79
63336 On ch=1 n=g#6 v=0
63342 On ch=1 n=f5 v=0
63500 On ch=1 n=g6 v=92
63508 On ch=1 n=d5 v=71
63606 On ch=1 n=b4 v=0
63670 On ch=1 n=f6 v=99
63682 On ch=1 n=g5 v=58
63688 On ch=1 n=d5 v=0
63688 On ch=1 n=g6 v=0
63822 On ch=1 n=f6 v=0
63876 On ch=1 n=d#6 v=99
63892 On ch=1 n=c5 v=65
63896 On ch=1 n=g5 v=0
63898 Par ch=1 c=64 v=63
63986 Par ch=1 c=64 v=127
64086 On ch=1 n=d#5 v=80
64092 On ch=1 n=d#6 v=0
64204 On ch=1 n=f6 v=81
64252 On ch=1 n=d#6 v=91
64282 On ch=1 n=f6 v=0
64286 On ch=1 n=d#5 v=0
64290 On ch=1 n=g5 v=42
64318 On ch=1 n=c5 v=0
64320 On ch=1 n=d6 v=76
64322 On ch=1 n=d#6 v=0
64380 On ch=1 n=d#6 v=94
64418 On ch=1 n=d6 v=0
64438 On ch=1 n=f6 v=96
64492 On ch=1 n=d#6 v=0
64498 On ch=1 n=g5 v=0
64506 On ch=1 n=c5 v=68
64512 On ch=1 n=g6 v=84
64516 Par ch=1 c=64 v=63
64542 Par ch=1 c=64 v=0
64556 On ch=1 n=f6 v=0
64622 Par ch=1 c=64 v=63
64656 Par ch=1 c=64 v=127
64706 On ch=1 n=d#5 v=88
64802 On ch=1 n=g6 v=0
64812 On ch=1 n=c5 v=0
64884 On ch=1 n=g5 v=93
64906 On ch=1 n=d#5 v=0
65086 Par ch=1 c=64 v=63
65128 On ch=1 n=d#5 v=94
65132 Par ch=1 c=64 v=0
65166 On ch=1 n=g5 v=0
65168 On ch=1 n=c7 v=106
65316 Par ch=1 c=64 v=63
65334 Par ch=1 c=64 v=127
65460 On ch=1 n=g5 v=68
65618 On ch=1 n=c7 v=0
65658 On ch=1 n=c6 v=87
65686 On ch=1 n=d#5 v=0
65726 On ch=1 n=g5 v=0
65858 On ch=1 n=a#6 v=107
65872 On ch=1 n=d5 v=86
65888 On ch=1 n=c6 v=0
65916 Par ch=1 c=64 v=63
65976 Par ch=1 c=64 v=127
66074 On ch=1 n=f5 v=84
66134 On ch=1 n=d5 v=0
66218 On ch=1 n=f5 v=0
66240 On ch=1 n=a#6 v=0
66272 On ch=1 n=c7 v=106
66296 On ch=1 n=a#5 v=76
66464 On ch=1 n=a#5 v=0
66476 On ch=1 n=c5 v=77
66486 On ch=1 n=a#6 v=108
66554 On ch=1 n=c7 v=0
66574 Par ch=1 c=64 v=63
66596 Par ch=1 c=64 v=0
66660 Par ch=1 c=64 v=63
66686 Par ch=1 c=64 v=127
66686 On ch=1 n=d#5 v=78
66846 On ch=1 n=c5 v=0
66872 On ch=1 n=g#6 v=101
66894 On ch=1 n=g#5 v=63
66926 On ch=1 n=d#5 v=0
66942 On ch=1 n=a#6 v=0
67074 On ch=1 n=a#4 v=71
67094 On ch=1 n=g6 v=87
67124 On ch=1 n=g#6 v=0
67126 Par ch=1 c=64 v=63
67138 On ch=1 n=g#5 v=0
67144 Par ch=1 c=64 v=0
67248 Par ch=1 c=64 v=63
67270 Par ch=1 c=64 v=127
67278 On ch=1 n=d5 v=68
67372 On ch=1 n=g6 v=0
67496 On ch=1 n=g5 v=59
67516 On ch=1 n=d5 v=0
67526 On ch=1 n=a#4 v=0
67706 On ch=1 n=f6 v=97
67710 On ch=1 n=g5 v=0
67716 On ch=1 n=g#4 v=72
67788 Par ch=1 c=64 v=63
67900 Par ch=1 c=64 v=127
67940 On ch=1 n=c5 v=68
68114 On ch=1 n=d#6 v=101
68138 On ch=1 n=f5 v=66
68178 On ch=1 n=g#4 v=0
68184 On ch=1 n=f6 v=0
68294 On ch=1 n=d6 v=98
68312 On ch=1 n=g#4 v=61
68348 On ch=1 n=c5 v=0
68352 On ch=1 n=f5 v=0
68366 On ch=1 n=d#6 v=0
68370 Par ch=1 c=64 v=63
68394 Par ch=1 c=64 v=0
68494 Par ch=1 c=64 v=63
68520 Par ch=1 c=64 v=127
68528 On ch=1 n=c5 v=80
68580 On ch=1 n=d6 v=0
68696 On ch=1 n=c6 v=97
68716 On ch=1 n=f#5 v=74
68756 On ch=1 n=c5 v=0
68802 On ch=1 n=g#4 v=0
68814 On ch=1 n=f#5 v=0
68912 On ch=1 n=g4 v=57
68950 On ch=1 n=d#6 v=79
69028 On ch=1 n=c6 v=0
69084 Par ch=1 c=64 v=63
69116 Par ch=1 c=64 v=0
69168 On ch=1 n=c5 v=66
69228 Par ch=1 c=64 v=63
69254 Par ch=1 c=64 v=127
69364 On ch=1 n=g5 v=41
69366 On ch=1 n=g4 v=0
69466 On ch=1 n=d#6 v=0
69542 On ch=1 n=g4 v=49
69548 On ch=1 n=d6 v=69
69568 On ch=1 n=g5 v=0
69598 On ch=1 n=c5 v=0
69678 Par ch=1 c=64 v=63
69730 Par ch=1 c=64 v=0
69778 On ch=1 n=b4 v=55
69944 On ch=1 n=d6 v=0
69984 On ch=1 n=g4 v=0
70006 On ch=1 n=b4 v=0
70016 On ch=1 n=g5 v=41
70290 Par ch=1 c=64 v=63
70294 On ch=1 n=c5 v=50
70322 On ch=1 n=d#6 v=70
70366 Par ch=1 c=64 v=127
70534 On ch=1 n=g5 v=0
70606 On ch=1 n=d#5 v=44
70810 On ch=1 n=g5 v=49
70854 On ch=1 n=c5 v=0
71002 On ch=1 n=c5 v=69
71018 On ch=1 n=g5 v=0
71020 On ch=1 n=d#5 v=0
71088 On ch=1 n=d#6 v=0
71190 On ch=1 n=d6 v=82
71196 On ch=1 n=d#5 v=65
71338 On ch=1 n=d6 v=0
71376 On ch=1 n=c6 v=93
71384 On ch=1 n=g5 v=54
71388 On ch=1 n=d#5 v=0
71488 On ch=1 n=c5 v=0
71528 On ch=1 n=c6 v=0
71572 On ch=1 n=b4 v=55
71578 On ch=1 n=f#6 v=92
71636 On ch=1 n=g5 v=0
71662 Par ch=1 c=64 v=63
71710 Par ch=1 c=64 v=0
71788 On ch=1 n=d5 v=52
71846 Par ch=1 c=64 v=63
71900 Par ch=1 c=64 v=127
71972 On ch=1 n=g6 v=77
71984 On ch=1 n=g5 v=42
71988 On ch=1 n=b4 v=0
72002 On ch=1 n=f#6 v=0
72148 On ch=1 n=d5 v=0
72184 Par ch=1 c=64 v=63
72184 On ch=1 n=d6 v=69
72198 On ch=1 n=g6 v=0
72202 On ch=1 n=b4 v=36
72212 On ch=1 n=g5 v=0
72222 Par ch=1 c=64 v=0
72326 Par ch=1 c=64 v=63
72370 Par ch=1 c=64 v=127
72386 On ch=1 n=d5 v=65
72474 On ch=1 n=d6 v=0
72580 On ch=1 n=b4 v=0
72584 On ch=1 n=g5 v=57
72698 On ch=1 n=d5 v=0
72774 Par ch=1 c=64 v=63
72790 On ch=1 n=g#6 v=88
72794 On ch=1 n=b4 v=53
72820 On ch=1 n=g5 v=0
72830 Par ch=1 c=64 v=0
72958 Par ch=1 c=64 v=63
72994 Par ch=1 c=64 v=127
73044 On ch=1 n=d5 v=59
73202 On ch=1 n=b4 v=0
73230 On ch=1 n=f5 v=63
73410 On ch=1 n=d5 v=0
73416 On ch=1 n=b4 v=80
73462 On ch=1 n=f5 v=0
73484 On ch=1 n=g#6 v=0
73600 On ch=1 n=g6 v=79
73622 On ch=1 n=d5 v=68
73776 On ch=1 n=d5 v=0
73786 On ch=1 n=g5 v=65
73794 On ch=1 n=f6 v=98
73796 On ch=1 n=b4 v=0
73842 On ch=1 n=g6 v=0
74014 On ch=1 n=e6 v=98
74028 On ch=1 n=a#4 v=72
74112 On ch=1 n=f6 v=0
74144 On ch=1 n=g5 v=0
74276 On ch=1 n=c#5 v=86
74342 On ch=1 n=e6 v=0
74478 On ch=1 n=g5 v=65
74528 On ch=1 n=f6 v=94
74570 On ch=1 n=c#5 v=0
74578 On ch=1 n=a#4 v=0
74596 On ch=1 n=g6 v=93
74618 On ch=1 n=f6 v=0
74686 On ch=1 n=f6 v=98
74704 On ch=1 n=g5 v=0
74708 On ch=1 n=a4 v=74
74720 On ch=1 n=g6 v=0
74738 Par ch=1 c=64 v=63
74756 Par ch=1 c=64 v=0
74864 Par ch=1 c=64 v=63
74880 Par ch=1 c=64 v=127
74910 On ch=1 n=c5 v=98
74984 On ch=1 n=f6 v=0
75096 On ch=1 n=f5 v=103
75152 On ch=1 n=c5 v=0
75226 On ch=1 n=a4 v=0
75378 On ch=1 n=g#4 v=94
75438 On ch=1 n=d#7 v=113
75464 On ch=1 n=f5 v=0
75524 Par ch=1 c=64 v=63
75552 Par ch=1 c=64 v=0
75702 Par ch=1 c=64 v=63
75712 Par ch=1 c=64 v=127
75762 On ch=1 n=c5 v=86
75952 On ch=1 n=f#5 v=104
76020 On ch=1 n=c5 v=0
76064 On ch=1 n=f#5 v=0
76078 On ch=1 n=g#4 v=0
76122 On ch=1 n=g4 v=100
76284 Par ch=1 c=64 v=63
76308 Par ch=1 c=64 v=0
76328 On ch=1 n=c5 v=100
76332 On ch=1 n=d7 v=108
76394 On ch=1 n=d#7 v=0
76502 On ch=1 n=g5 v=91
76502 Par ch=1 c=64 v=63
76506 Par ch=1 c=64 v=127
76520 On ch=1 n=c7 v=106
76566 On ch=1 n=d7 v=0
76584 On ch=1 n=g4 v=0
76618 On ch=1 n=g5 v=0
76628 On ch=1 n=c5 v=0
76672 On ch=1 n=c7 v=0
76698 On ch=1 n=f4 v=88
76712 On ch=1 n=b6 v=104
76742 Par ch=1 c=64 v=63
76760 Par ch=1 c=64 v=0
76832 Par ch=1 c=64 v=63
76850 Par ch=1 c=64 v=127
76902 On ch=1 n=g#4 v=93
77112 On ch=1 n=d5 v=106
77126 On ch=1 n=f4 v=0
77210 On ch=1 n=g#4 v=0
77252 On ch=1 n=g#4 v=35
77292 Par ch=1 c=64 v=63
77310 Par ch=1 c=64 v=0
77316 On ch=1 n=d#4 v=74
77326 On ch=1 n=d5 v=0
77328 On ch=1 n=c7 v=108
77384 On ch=1 n=g#4 v=0
77404 Par ch=1 c=64 v=63
77408 On ch=1 n=b6 v=0
77416 Par ch=1 c=64 v=127
77560 On ch=1 n=c5 v=68
77568 On ch=1 n=c7 v=0
77574 On ch=1 n=d#4 v=0
77746 On ch=1 n=f4 v=76
77762 On ch=1 n=g#6 v=96
77842 On ch=1 n=c5 v=0
77848 On ch=1 n=g#6 v=0
77862 On ch=1 n=f4 v=0
77978 On ch=1 n=c6 v=87
77986 On ch=1 n=g4 v=65
78008 Par ch=1 c=64 v=63
78024 Par ch=1 c=64 v=0
78110 Par ch=1 c=64 v=63
78126 Par ch=1 c=64 v=127
78178 On ch=1 n=c5 v=77
78250 On ch=1 n=c6 v=0
78346 On ch=1 n=d#5 v=83
78420 On ch=1 n=c5 v=0
78420 On ch=1 n=g4 v=0
78458 On ch=1 n=d#5 v=0
78522 On ch=1 n=d#6 v=88
78542 Par ch=1 c=64 v=63
78548 On ch=1 n=b5 v=68
78550 On ch=1 n=g4 v=51
78556 Par ch=1 c=64 v=0
78566 On ch=1 n=d6 v=80
78608 On ch=1 n=d#6 v=0
78662 Par ch=1 c=64 v=63
78678 Par ch=1 c=64 v=127
78774 On ch=1 n=d5 v=74
78798 On ch=1 n=b5 v=0
78908 On ch=1 n=d6 v=0
78916 On ch=1 n=g4 v=0
78956 On ch=1 n=f5 v=60
78962 On ch=1 n=d5 v=0
79174 On ch=1 n=f5 v=0
79202 Par ch=1 c=64 v=63
79210 On ch=1 n=e5 v=97
79212 Par ch=1 c=64 v=0
79218 On ch=1 n=c6 v=93
79220 On ch=1 n=c5 v=93
79276 Par ch=1 c=64 v=63
79292 Par ch=1 c=64 v=127
79298 On ch=1 n=c6 v=0
79298 On ch=1 n=g6 v=93
79310 On ch=1 n=e5 v=0
79318 On ch=1 n=c5 v=0
79412 On ch=1 n=g6 v=0
79428 On ch=1 n=f#6 v=96
79514 Par ch=1 c=64 v=63
79526 Par ch=1 c=64 v=0
79530 On ch=1 n=f#6 v=0
79530 On ch=1 n=g6 v=91
79600 On ch=1 n=a6 v=92
79614 On ch=1 n=g6 v=0
79680 On ch=1 n=g6 v=76
79696 On ch=1 n=a6 v=0
79750 On ch=1 n=f6 v=85
79766 On ch=1 n=d5 v=91
79778 On ch=1 n=g6 v=0
79838 On ch=1 n=d5 v=0
79842 On ch=1 n=g6 v=80
79846 On ch=1 n=f6 v=0
79946 On ch=1 n=b4 v=87
79954 On ch=1 n=f6 v=77
79964 On ch=1 n=g6 v=0
79994 On ch=1 n=b4 v=0
80020 On ch=1 n=f6 v=0
80022 On ch=1 n=g6 v=84
80120 On ch=1 n=f6 v=91
80126 On ch=1 n=g4 v=80
80136 On ch=1 n=g6 v=0
80190 On ch=1 n=g6 v=83
80196 On ch=1 n=f6 v=0
80214 On ch=1 n=g4 v=0
80272 On ch=1 n=g6 v=0
80300 On ch=1 n=c5 v=102
80304 On ch=1 n=e6 v=87
80342 On ch=1 n=c5 v=0
80378 On ch=1 n=g6 v=84
80396 On ch=1 n=e6 v=0
80476 On ch=1 n=f#6 v=89
80488 On ch=1 n=g6 v=0
80568 On ch=1 n=g6 v=82
80574 On ch=1 n=f#6 v=0
80664 On ch=1 n=c7 v=90
80682 On ch=1 n=g6 v=0
80742 On ch=1 n=g6 v=76
80746 On ch=1 n=c7 v=0
80810 On ch=1 n=f6 v=93
80816 On ch=1 n=d5 v=99
80818 On ch=1 n=g6 v=0
80888 On ch=1 n=g6 v=83
80892 On ch=1 n=d5 v=0
80894 On ch=1 n=f6 v=0
80992 On ch=1 n=g6 v=0
80996 On ch=1 n=f6 v=84
81010 On ch=1 n=b4 v=92
81068 On ch=1 n=b4 v=0
81072 On ch=1 n=f6 v=0
81084 On ch=1 n=g6 v=76
81158 On ch=1 n=g4 v=84
81166 On ch=1 n=g6 v=0
81172 On ch=1 n=f6 v=84
81244 On ch=1 n=f6 v=0
81258 On ch=1 n=g4 v=0
81270 On ch=1 n=g6 v=66
81330 On ch=1 n=g6 v=0
81356 On ch=1 n=c5 v=112
81364 On ch=1 n=e6 v=86
81402 On ch=1 n=c5 v=0
81430 On ch=1 n=g6 v=84
81444 On ch=1 n=e6 v=0
81520 On ch=1 n=f#6 v=94
81536 On ch=1 n=g6 v=0
81608 On ch=1 n=g6 v=75
81620 On ch=1 n=f#6 v=0
81720 On ch=1 n=c7 v=88
81732 On ch=1 n=g6 v=0
81792 On ch=1 n=g6 v=76
81810 On ch=1 n=c7 v=0
81878 On ch=1 n=d5 v=103
81886 On ch=1 n=f6 v=91
81894 On ch=1 n=g6 v=0
81958 On ch=1 n=d5 v=0
81966 On ch=1 n=f6 v=0
81968 On ch=1 n=g6 v=83
82056 On ch=1 n=f6 v=87
82058 On ch=1 n=g6 v=0
82058 On ch=1 n=b4 v=96
82130 On ch=1 n=f6 v=0
82132 On ch=1 n=b4 v=0
82146 On ch=1 n=g6 v=72
82214 On ch=1 n=g6 v=0
82218 On ch=1 n=f6 v=84
82220 On ch=1 n=g4 v=82
82304 On ch=1 n=f6 v=0
82322 On ch=1 n=g6 v=68
82342 On ch=1 n=g4 v=0
82382 On ch=1 n=g6 v=0
82384 On ch=1 n=c5 v=107
82400 On ch=1 n=e6 v=91
82422 Par ch=1 c=64 v=63
82428 Par ch=1 c=64 v=127
82436 On ch=1 n=c5 v=0
82468 On ch=1 n=g6 v=86
82492 On ch=1 n=e6 v=0
82568 On ch=1 n=g6 v=0
82582 On ch=1 n=c7 v=91
82656 On ch=1 n=c7 v=0
82680 On ch=1 n=e6 v=90
82758 On ch=1 n=d6 v=88
82770 On ch=1 n=e6 v=0
82814 Par ch=1 c=64 v=63
82834 On ch=1 n=d6 v=0
82848 On ch=1 n=b6 v=99
82856 Par ch=1 c=64 v=0
82930 On ch=1 n=b6 v=0
82938 On ch=1 n=c6 v=87
83008 On ch=1 n=c6 v=0
83028 On ch=1 n=a6 v=107
83116 On ch=1 n=a6 v=0
83118 On ch=1 n=b5 v=93
83184 On ch=1 n=b5 v=0
83206 On ch=1 n=g6 v=102
83280 On ch=1 n=g6 v=0
83286 On ch=1 n=a5 v=92
83358 On ch=1 n=a5 v=0
83378 On ch=1 n=f6 v=102
83458 On ch=1 n=f6 v=0
83466 On ch=1 n=g5 v=87
83532 On ch=1 n=g5 v=0
83550 On ch=1 n=e6 v=99
83626 On ch=1 n=e6 v=0
83638 On ch=1 n=f5 v=87
83702 On ch=1 n=f5 v=0
83726 On ch=1 n=d6 v=97
83804 On ch=1 n=d6 v=0
83818 On ch=1 n=e5 v=89
83872 On ch=1 n=e5 v=0
83902 On ch=1 n=c6 v=92
83982 On ch=1 n=d5 v=80
83990 On ch=1 n=c6 v=0
84056 On ch=1 n=d5 v=0
84078 On ch=1 n=b5 v=99
84160 On ch=1 n=b5 v=0
84166 On ch=1 n=c5 v=81
84236 On ch=1 n=c5 v=0
84262 On ch=1 n=a5 v=90
84328 On ch=1 n=b4 v=91
84332 On ch=1 n=a5 v=0
84408 On ch=1 n=b4 v=0
84436 On ch=1 n=g5 v=89
84520 On ch=1 n=g5 v=0
84588 On ch=1 n=a4 v=84
84598 On ch=1 n=f#5 v=103
84728 Par ch=1 c=64 v=63
84782 Par ch=1 c=64 v=127
84822 On ch=1 n=a3 v=64
84906 On ch=1 n=a4 v=0
84908 On ch=1 n=f#5 v=0
84988 On ch=1 n=c4 v=107
85180 On ch=1 n=f5 v=107
85182 On ch=1 n=d#4 v=106
85186 On ch=1 n=g#4 v=94
85232 Par ch=1 c=64 v=63
85238 On ch=1 n=c4 v=0
85246 Par ch=1 c=64 v=0
85302 On ch=1 n=a3 v=0
85358 Par ch=1 c=64 v=63
85374 On ch=1 n=d4 v=100
85382 Par ch=1 c=64 v=127
85412 On ch=1 n=g#4 v=0
85432 On ch=1 n=d#4 v=0
85460 On ch=1 n=f5 v=0
85560 On ch=1 n=c4 v=113
85616 On ch=1 n=d4 v=0
85772 Par ch=1 c=64 v=63
85786 Par ch=1 c=64 v=0
85796 On ch=1 n=f6 v=100
85804 On ch=1 n=g#5 v=84
85832 On ch=1 n=c4 v=0
85964 Par ch=1 c=64 v=63
85966 Par ch=1 c=64 v=127
85980 On ch=1 n=b3 v=79
86114 On ch=1 n=f6 v=0
86148 On ch=1 n=g#5 v=0
86184 On ch=1 n=d4 v=93
86404 On ch=1 n=b5 v=93
86418 On ch=1 n=g#4 v=70
86420 On ch=1 n=d5 v=71
86450 On ch=1 n=d4 v=0
86540 On ch=1 n=b3 v=0
86558 On ch=1 n=g#4 v=0
86594 On ch=1 n=g4 v=76
86602 On ch=1 n=d5 v=0
86700 On ch=1 n=b5 v=0
86792 On ch=1 n=f4 v=84
86818 On ch=1 n=g4 v=0
86990 On ch=1 n=e4 v=78
87002 Par ch=1 c=64 v=63
87024 On ch=1 n=f4 v=0
87030 Par ch=1 c=64 v=0
87200 On ch=1 n=g6 v=74
87208 On ch=1 n=e4 v=0
87256 On ch=1 n=g6 v=0
87382 On ch=1 n=g6 v=74
87460 On ch=1 n=g6 v=0
87564 On ch=1 n=f4 v=78
87752 On ch=1 n=f4 v=0
87766 On ch=1 n=a6 v=79
87844 On ch=1 n=a6 v=0
87950 On ch=1 n=a6 v=89
88016 On ch=1 n=a6 v=0
88158 Par ch=1 c=64 v=63
88178 Par ch=1 c=64 v=127
88214 On ch=1 n=c6 v=104
88228 On ch=1 n=e5 v=59
88228 On ch=1 n=g5 v=77
88234 On ch=1 n=g4 v=49
88268 On ch=1 n=g5 v=0
88282 On ch=1 n=c6 v=0
88332 On ch=1 n=e5 v=0
88856 On ch=1 n=e6 v=75
88868 Par ch=1 c=64 v=63
88878 On ch=1 n=b5 v=72
88880 On ch=1 n=f5 v=65
88882 On ch=1 n=d6 v=91
88884 Par ch=1 c=64 v=0
88946 On ch=1 n=e6 v=0
88954 Par ch=1 c=64 v=63
88972 Par ch=1 c=64 v=127
89078 On ch=1 n=g4 v=0
89090 On ch=1 n=b5 v=0
89138 On ch=1 n=d6 v=0
89302 On ch=1 n=f5 v=0
89488 Par ch=1 c=64 v=63
89496 Par ch=1 c=64 v=0
89526 On ch=1 n=e5 v=101
89536 On ch=1 n=c5 v=97
89546 On ch=1 n=c6 v=87
89570 Par ch=1 c=64 v=63
89584 Par ch=1 c=64 v=127
89594 On ch=1 n=e5 v=0
89602 On ch=1 n=c5 v=0
89626 On ch=1 n=c6 v=0
89626 On ch=1 n=g6 v=76
89686 On ch=1 n=g6 v=0
89732 On ch=1 n=f#6 v=91
89804 On ch=1 n=g6 v=88
89816 On ch=1 n=f#6 v=0
89888 On ch=1 n=a6 v=91
89902 On ch=1 n=g6 v=0
89958 Par ch=1 c=64 v=63
89966 On ch=1 n=g6 v=79
89978 Par ch=1 c=64 v=0
89990 On ch=1 n=a6 v=0
90052 On ch=1 n=d5 v=94
90056 On ch=1 n=g6 v=0
90060 On ch=1 n=f6 v=99
90122 On ch=1 n=d5 v=0
90140 On ch=1 n=f6 v=0
90156 On ch=1 n=g6 v=70
90212 On ch=1 n=g6 v=0
90224 On ch=1 n=f6 v=100
90256 On ch=1 n=b4 v=85
90306 On ch=1 n=f6 v=0
90312 On ch=1 n=b4 v=0
90314 On ch=1 n=g6 v=81
90366 On ch=1 n=g6 v=0
90394 On ch=1 n=f6 v=89
90414 On ch=1 n=g4 v=76
90470 On ch=1 n=f6 v=0
90480 On ch=1 n=g6 v=71
90514 On ch=1 n=g4 v=0
90540 On ch=1 n=g6 v=0
90580 On ch=1 n=e6 v=87
90590 On ch=1 n=c5 v=108
90600 Par ch=1 c=64 v=63
90608 Par ch=1 c=64 v=127
90630 On ch=1 n=c5 v=0
90658 On ch=1 n=g6 v=88
90668 On ch=1 n=e6 v=0
90732 On ch=1 n=f#6 v=99
90738 On ch=1 n=g6 v=0
90816 On ch=1 n=g6 v=80
90838 On ch=1 n=f#6 v=0
90874 Par ch=1 c=64 v=63
90888 Par ch=1 c=64 v=0
90922 On ch=1 n=c7 v=99
90940 On ch=1 n=g6 v=0
91000 On ch=1 n=g6 v=84
91024 On ch=1 n=c7 v=0
91098 On ch=1 n=g6 v=0
91098 On ch=1 n=f6 v=92
91100 On ch=1 n=d5 v=88
91154 On ch=1 n=d5 v=0
91170 On ch=1 n=f6 v=0
91184 On ch=1 n=g6 v=79
91272 On ch=1 n=g6 v=0
91280 On ch=1 n=f6 v=92
91294 On ch=1 n=b4 v=90
91346 On ch=1 n=b4 v=0
91356 On ch=1 n=f6 v=0
91372 On ch=1 n=g6 v=76
91428 On ch=1 n=g6 v=0
91452 On ch=1 n=f6 v=93
91462 On ch=1 n=g4 v=84
91528 On ch=1 n=f6 v=0
91544 On ch=1 n=g4 v=0
91546 On ch=1 n=g6 v=71
91620 On ch=1 n=g6 v=0
91638 On ch=1 n=c5 v=113
91640 On ch=1 n=e6 v=94
91664 Par ch=1 c=64 v=63
91670 Par ch=1 c=64 v=127
91690 On ch=1 n=c5 v=0
91718 On ch=1 n=g6 v=91
91728 On ch=1 n=e6 v=0
91792 On ch=1 n=f#6 v=99
91812 On ch=1 n=g6 v=0
91870 On ch=1 n=g6 v=83
91900 On ch=1 n=f#6 v=0
91990 On ch=1 n=c7 v=104
91998 Par ch=1 c=64 v=63
92008 Par ch=1 c=64 v=0
92010 On ch=1 n=g6 v=0
92068 On ch=1 n=g6 v=85
92098 On ch=1 n=c7 v=0
92160 On ch=1 n=f6 v=98
92166 On ch=1 n=g6 v=0
92174 On ch=1 n=d5 v=79
92220 On ch=1 n=d5 v=0
92232 On ch=1 n=f6 v=0
92234 On ch=1 n=g6 v=87
92322 On ch=1 n=f6 v=101
92328 On ch=1 n=g6 v=0
92336 On ch=1 n=b4 v=99
92402 On ch=1 n=b4 v=0
92406 On ch=1 n=f6 v=0
92410 On ch=1 n=g6 v=84
92494 On ch=1 n=g6 v=0
92494 On ch=1 n=f6 v=92
92496 On ch=1 n=g4 v=84
92580 On ch=1 n=f6 v=0
92588 On ch=1 n=g4 v=0
92594 On ch=1 n=g6 v=67
92652 On ch=1 n=g6 v=0
92680 On ch=1 n=c5 v=91
92682 On ch=1 n=e6 v=87
92708 Par ch=1 c=64 v=63
92712 Par ch=1 c=64 v=127
92722 On ch=1 n=c5 v=0
92764 On ch=1 n=g6 v=84
92766 On ch=1 n=e6 v=0
92870 On ch=1 n=g6 v=0
92880 On ch=1 n=c7 v=102
92950 On ch=1 n=c7 v=0
92964 On ch=1 n=e6 v=86
93040 On ch=1 n=d6 v=89
93058 On ch=1 n=e6 v=0
93120 On ch=1 n=d6 v=0
93128 On ch=1 n=b6 v=101
93214 On ch=1 n=b6 v=0
93218 On ch=1 n=c6 v=93
93292 On ch=1 n=c6 v=0
93314 On ch=1 n=a6 v=104
93314 Par ch=1 c=64 v=63
93366 Par ch=1 c=64 v=0
93390 On ch=1 n=b5 v=98
93392 On ch=1 n=a6 v=0
93468 On ch=1 n=b5 v=0
93490 On ch=1 n=g6 v=102
93562 On ch=1 n=a5 v=91
93566 On ch=1 n=g6 v=0
93638 On ch=1 n=a5 v=0
93662 On ch=1 n=f6 v=100
93732 On ch=1 n=g5 v=88
93740 On ch=1 n=f6 v=0
93806 On ch=1 n=g5 v=0
93828 On ch=1 n=e6 v=99
93902 On ch=1 n=f5 v=92
93906 On ch=1 n=e6 v=0
93970 On ch=1 n=f5 v=0
93994 On ch=1 n=d6 v=99
94072 On ch=1 n=e5 v=89
94074 On ch=1 n=d6 v=0
94142 On ch=1 n=e5 v=0
94164 On ch=1 n=c6 v=99
94246 On ch=1 n=d5 v=90
94248 On ch=1 n=c6 v=0
94316 On ch=1 n=d5 v=0
94344 On ch=1 n=b5 v=94
94418 On ch=1 n=c5 v=85
94424 On ch=1 n=b5 v=0
94498 On ch=1 n=c5 v=0
94526 On ch=1 n=a5 v=93
94600 On ch=1 n=b4 v=96
94604 On ch=1 n=a5 v=0
94686 On ch=1 n=b4 v=0
94716 On ch=1 n=g5 v=94
94888 On ch=1 n=g5 v=0
94888 Par ch=1 c=64 v=63
94922 On ch=1 n=a4 v=73
94934 On ch=1 n=f#5 v=96
94938 Par ch=1 c=64 v=127
95210 On ch=1 n=a3 v=77
95230 On ch=1 n=a4 v=0
95262 On ch=1 n=f#5 v=0
95402 On ch=1 n=c4 v=99
95486 On ch=1 n=a3 v=0
95584 On ch=1 n=f5 v=103
95588 On ch=1 n=d#4 v=99
95590 On ch=1 n=g#4 v=92
95626 Par ch=1 c=64 v=63
95632 On ch=1 n=c4 v=0
95732 Par ch=1 c=64 v=127
95772 On ch=1 n=g#4 v=0
95784 On ch=1 n=d4 v=96
95834 On ch=1 n=f5 v=0
95840 On ch=1 n=d#4 v=0
95962 On ch=1 n=c4 v=111
96016 On ch=1 n=d4 v=0
96202 Par ch=1 c=64 v=63
96212 On ch=1 n=f6 v=104
96224 Par ch=1 c=64 v=0
96226 On ch=1 n=g#5 v=82
96324 Par ch=1 c=64 v=63
96334 Par ch=1 c=64 v=127
96424 On ch=1 n=f6 v=0
96436 On ch=1 n=b3 v=90
96466 On ch=1 n=c4 v=0
96478 On ch=1 n=g#5 v=0
96632 On ch=1 n=d4 v=81
96872 On ch=1 n=b5 v=84
96878 On ch=1 n=g#4 v=60
96880 On ch=1 n=d5 v=68
96910 On ch=1 n=d4 v=0
96956 Par ch=1 c=64 v=63
96966 Par ch=1 c=64 v=0
97046 On ch=1 n=b3 v=0
97058 On ch=1 n=g4 v=74
97064 On ch=1 n=g#4 v=0
97086 Par ch=1 c=64 v=63
97102 Par ch=1 c=64 v=127
97176 On ch=1 n=d5 v=0
97256 On ch=1 n=f4 v=75
97268 On ch=1 n=b5 v=0
97292 On ch=1 n=g4 v=0
97414 Par ch=1 c=64 v=63
97450 Par ch=1 c=64 v=0
97460 On ch=1 n=e4 v=77
97504 On ch=1 n=f4 v=0
97666 On ch=1 n=g6 v=90
97698 On ch=1 n=e4 v=0
97720 On ch=1 n=g6 v=0
97864 On ch=1 n=g6 v=87
97908 On ch=1 n=g6 v=0
98044 On ch=1 n=f4 v=75
98112 Par ch=1 c=64 v=63
98134 Par ch=1 c=64 v=127
98230 On ch=1 n=a6 v=78
98246 On ch=1 n=f4 v=0
98264 Par ch=1 c=64 v=63
98312 On ch=1 n=a6 v=0
98330 Par ch=1 c=64 v=127
98432 On ch=1 n=a6 v=84
98484 On ch=1 n=a6 v=0
98710 On ch=1 n=c6 v=87
98710 On ch=1 n=g5 v=74
98712 On ch=1 n=e5 v=60
98714 On ch=1 n=g4 v=51
98766 Par ch=1 c=64 v=63
98782 Par ch=1 c=64 v=0
98884 Par ch=1 c=64 v=63
98902 Par ch=1 c=64 v=127
99112 On ch=1 n=e5 v=0
99416 On ch=1 n=g4 v=0
99416 On ch=1 n=b5 v=69
99426 On ch=1 n=d5 v=40
99428 On ch=1 n=c6 v=0
99440 Par ch=1 c=64 v=63
99450 On ch=1 n=f4 v=63
99460 Par ch=1 c=64 v=0
99620 Par ch=1 c=64 v=63
99640 Par ch=1 c=64 v=127
99750 On ch=1 n=g5 v=0
99808 On ch=1 n=b5 v=0
99858 On ch=1 n=d5 v=0
99998 On ch=1 n=f4 v=0
100144 Par ch=1 c=64 v=63
100156 On ch=1 n=e4 v=109
100162 Par ch=1 c=64 v=0
100164 On ch=1 n=f#6 v=105
100244 On ch=1 n=g6 v=93
100244 Par ch=1 c=64 v=63
100252 On ch=1 n=f#6 v=0
100268 Par ch=1 c=64 v=127
100348 On ch=1 n=f#6 v=99
100352 On ch=1 n=g6 v=0
100354 On ch=1 n=g4 v=82
100364 On ch=1 n=e4 v=0
100418 On ch=1 n=g6 v=90
100432 On ch=1 n=f#6 v=0
100498 On ch=1 n=g4 v=0
100520 On ch=1 n=f#6 v=89
100530 On ch=1 n=g6 v=0
100562 On ch=1 n=c5 v=63
100594 On ch=1 n=g6 v=94
100622 On ch=1 n=f#6 v=0
100626 On ch=1 n=c5 v=0
100670 On ch=1 n=g6 v=0
100722 On ch=1 n=f4 v=107
100730 On ch=1 n=g#6 v=109
100754 Par ch=1 c=64 v=63
100774 Par ch=1 c=64 v=0
100814 On ch=1 n=a6 v=94
100824 On ch=1 n=g#6 v=0
100898 On ch=1 n=a4 v=75
100910 On ch=1 n=g#6 v=94
100912 On ch=1 n=a6 v=0
100996 On ch=1 n=a6 v=94
101028 On ch=1 n=g#6 v=0
101094 On ch=1 n=b6 v=83
101098 On ch=1 n=a4 v=0
101116 On ch=1 n=f4 v=0
101120 On ch=1 n=a6 v=0
101126 On ch=1 n=d5 v=77
101160 On ch=1 n=c7 v=91
101182 On ch=1 n=b6 v=0
101248 On ch=1 n=c7 v=0
101250 On ch=1 n=d5 v=0
101296 On ch=1 n=c6 v=104
101306 On ch=1 n=g4 v=107
101332 Par ch=1 c=64 v=63
101334 Par ch=1 c=64 v=127
101374 On ch=1 n=c6 v=0
101502 On ch=1 n=c5 v=83
101630 On ch=1 n=c5 v=0
101668 On ch=1 n=g4 v=0
101672 On ch=1 n=e5 v=100
101830 On ch=1 n=e5 v=0
101870 On ch=1 n=e6 v=94
101874 On ch=1 n=b5 v=82
101876 On ch=1 n=g4 v=81
101916 On ch=1 n=d6 v=93
101936 Par ch=1 c=64 v=63
101936 Par ch=1 c=64 v=127
101990 On ch=1 n=e6 v=0
102066 Par ch=1 c=64 v=63
102072 Par ch=1 c=64 v=0
102106 On ch=1 n=d5 v=98
102164 Par ch=1 c=64 v=63
102166 Par ch=1 c=64 v=127
102292 On ch=1 n=f5 v=92
102310 On ch=1 n=g4 v=0
102322 On ch=1 n=d5 v=0
102358 On ch=1 n=d6 v=0
102378 On ch=1 n=c6 v=99
102390 On ch=1 n=b5 v=0
102424 Par ch=1 c=64 v=63
102428 Par ch=1 c=64 v=0
102450 On ch=1 n=c6 v=0
102474 On ch=1 n=f5 v=0
102478 Par ch=1 c=64 v=63
102488 Par ch=1 c=64 v=127
102492 On ch=1 n=e5 v=94
102496 On ch=1 n=c5 v=91
102498 On ch=1 n=c6 v=103
102592 On ch=1 n=e6 v=96
102612 On ch=1 n=c6 v=0
102670 On ch=1 n=g6 v=107
102678 On ch=1 n=e5 v=0
102684 Par ch=1 c=64 v=63
102688 Par ch=1 c=64 v=0
102700 On ch=1 n=e6 v=0
102708 On ch=1 n=c5 v=0
102764 On ch=1 n=g6 v=0
102768 On ch=1 n=c7 v=107
102868 On ch=1 n=b6 v=102
102932 On ch=1 n=c7 v=0
102958 On ch=1 n=a6 v=101
103014 On ch=1 n=b6 v=0
103040 On ch=1 n=g6 v=104
103052 On ch=1 n=b4 v=108
103054 On ch=1 n=f5 v=114
103058 On ch=1 n=g4 v=97
103064 On ch=1 n=a6 v=0
103130 On ch=1 n=a6 v=103
103146 On ch=1 n=g6 v=0
103160 On ch=1 n=f5 v=0
103168 On ch=1 n=b4 v=0
103196 On ch=1 n=g4 v=0
103232 On ch=1 n=g6 v=94
103260 On ch=1 n=a6 v=0
103308 On ch=1 n=f6 v=104
103338 On ch=1 n=g6 v=0
103394 On ch=1 n=f6 v=0
103398 On ch=1 n=e6 v=98
103474 On ch=1 n=e6 v=0
103480 On ch=1 n=d6 v=99
103568 On ch=1 n=c6 v=101
103586 On ch=1 n=d6 v=0
103586 On ch=1 n=e5 v=104
103588 On ch=1 n=c5 v=107
103648 On ch=1 n=c5 v=0
103652 On ch=1 n=e5 v=0
103652 On ch=1 n=e6 v=106
103668 On ch=1 n=c6 v=0
103754 On ch=1 n=d6 v=94
103772 On ch=1 n=e6 v=0
103824 On ch=1 n=c6 v=90
103842 On ch=1 n=d6 v=0
103910 On ch=1 n=c6 v=0
103912 On ch=1 n=b5 v=91
103994 On ch=1 n=b5 v=0
104002 On ch=1 n=a5 v=91
104084 On ch=1 n=a5 v=0
104098 On ch=1 n=g5 v=101
104108 On ch=1 n=b4 v=108
104108 On ch=1 n=g4 v=98
104110 On ch=1 n=f5 v=111
104162 On ch=1 n=f5 v=0
104166 On ch=1 n=b4 v=0
104174 On ch=1 n=g5 v=0
104186 On ch=1 n=a5 v=102
104198 On ch=1 n=g4 v=0
104280 On ch=1 n=g5 v=97
104302 On ch=1 n=a5 v=0
104360 On ch=1 n=f5 v=99
104374 On ch=1 n=g5 v=0
104446 On ch=1 n=f5 v=0
104446 On ch=1 n=e5 v=85
104524 On ch=1 n=e5 v=0
104532 On ch=1 n=d5 v=94
104622 On ch=1 n=d5 v=0
104622 On ch=1 n=c5 v=107
104636 On ch=1 n=e4 v=116
104638 On ch=1 n=c4 v=113
104692 On ch=1 n=e4 v=0
104704 On ch=1 n=c4 v=0
104710 On ch=1 n=e5 v=102
104716 On ch=1 n=c5 v=0
104808 On ch=1 n=d5 v=100
104830 On ch=1 n=e5 v=0
104894 On ch=1 n=c5 v=93
104908 On ch=1 n=d5 v=0
104968 On ch=1 n=c5 v=0
104974 On ch=1 n=b4 v=88
105058 On ch=1 n=b4 v=0
105064 On ch=1 n=a4 v=89
105146 On ch=1 n=a4 v=0
105158 On ch=1 n=g4 v=99
105174 On ch=1 n=g3 v=107
105176 On ch=1 n=b3 v=113
105176 On ch=1 n=f4 v=118
105232 On ch=1 n=f4 v=0
105242 On ch=1 n=g4 v=0
105244 On ch=1 n=b3 v=0
105244 On ch=1 n=a4 v=102
105272 On ch=1 n=g3 v=0
105346 On ch=1 n=g4 v=94
105378 On ch=1 n=a4 v=0
105420 On ch=1 n=f4 v=100
105452 On ch=1 n=g4 v=0
105512 On ch=1 n=f4 v=0
105516 On ch=1 n=e4 v=97
105592 On ch=1 n=e4 v=0
105600 On ch=1 n=d4 v=91
105676 On ch=1 n=d4 v=0
105700 On ch=1 n=c4 v=112
105724 On ch=1 n=c3 v=127
105796 On ch=1 n=c4 v=0
105854 On ch=1 n=c3 v=0
105910 On ch=1 n=e3 v=98
105912 On ch=1 n=e4 v=90
106006 On ch=1 n=e4 v=0
106040 On ch=1 n=e3 v=0
106072 On ch=1 n=g4 v=97
106088 On ch=1 n=g3 v=93
106140 On ch=1 n=g4 v=0
106220 On ch=1 n=g3 v=0
106250 On ch=1 n=c5 v=99
106252 On ch=1 n=c4 v=108
106314 On ch=1 n=c5 v=0
106320 On ch=1 n=c4 v=0
106420 On ch=1 n=e4 v=112
106422 On ch=1 n=e5 v=109
106504 On ch=1 n=e5 v=0
106506 On ch=1 n=e4 v=0
106586 On ch=1 n=g4 v=99
106594 On ch=1 n=g5 v=103
106668 On ch=1 n=g4 v=0
106692 On ch=1 n=g5 v=0
106784 On ch=1 n=c5 v=121
106786 On ch=1 n=c6 v=101
106848 On ch=1 n=c6 v=0
106956 On ch=1 n=c5 v=0
107350 On ch=1 n=c4 v=84
107354 On ch=1 n=g6 v=108
107356 On ch=1 n=e6 v=116
107358 On ch=1 n=c6 v=112
107360 On ch=1 n=g5 v=116
107360 On ch=1 n=g4 v=118
107360 On ch=1 n=e4 v=114
107364 On ch=1 n=c5 v=126
107388 Par ch=1 c=64 v=127
107428 On ch=1 n=g5 v=0
107428 On ch=1 n=c6 v=0
107464 On ch=1 n=e6 v=0
107468 On ch=1 n=c5 v=0
107472 On ch=1 n=g4 v=0
107476 On ch=1 n=g6 v=0
107478 On ch=1 n=c4 v=0
107496 On ch=1 n=e4 v=0
107550 Par ch=1 c=64 v=63
107562 Par ch=1 c=64 v=0
107960 On ch=1 n=c4 v=89
107966 On ch=1 n=e6 v=107
107966 On ch=1 n=c7 v=106
107968 On ch=1 n=c6 v=113
107968 On ch=1 n=g6 v=102
107972 On ch=1 n=g4 v=118
107974 On ch=1 n=e4 v=116
107976 On ch=1 n=c5 v=126
107986 Par ch=1 c=64 v=127
108050 On ch=1 n=c5 v=0
108068 On ch=1 n=g4 v=0
108082 On ch=1 n=e4 v=0
108086 On ch=1 n=c4 v=0
108184 On ch=1 n=e6 v=0
108192 On ch=1 n=c6 v=0
108194 On ch=1 n=g6 v=0
108202 On ch=1 n=c7 v=0
108560 Par ch=1 c=64 v=63
108570 Par ch=1 c=64 v=0
109100 On ch=1 n=g3 v=126
109100 On ch=1 n=c4 v=127
109102 On ch=1 n=d#3 v=124
109106 On ch=1 n=c3 v=122
109126 Par ch=1 c=64 v=127
109274 On ch=1 n=g6 v=108
109296 On ch=1 n=d#3 v=0
109296 On ch=1 n=g3 v=0
109312 On ch=1 n=c3 v=0
109328 On ch=1 n=c4 v=0
109402 On ch=1 n=f#6 v=105
109406 On ch=1 n=g6 v=0
109492 On ch=1 n=f#6 v=0
109502 On ch=1 n=g6 v=93
109596 On ch=1 n=c7 v=108
109606 On ch=1 n=g6 v=0
109674 On ch=1 n=g6 v=102
109698 On ch=1 n=c7 v=0
109756 On ch=1 n=g6 v=0
109774 On ch=1 n=f6 v=97
109850 On ch=1 n=f6 v=0
109868 On ch=1 n=d#6 v=105
109954 On ch=1 n=d#6 v=0
109972 On ch=1 n=d6 v=94
110050 On ch=1 n=d#6 v=98
110066 On ch=1 n=d6 v=0
110140 On ch=1 n=d#6 v=0
110140 On ch=1 n=g6 v=92
110222 On ch=1 n=d#6 v=94
110244 On ch=1 n=g6 v=0
110296 On ch=1 n=d#6 v=0
110302 On ch=1 n=d6 v=91
110390 On ch=1 n=d6 v=0
110398 On ch=1 n=c6 v=91
110478 On ch=1 n=c6 v=0
110482 On ch=1 n=b5 v=99
110566 On ch=1 n=c6 v=101
110570 On ch=1 n=b5 v=0
110654 On ch=1 n=c6 v=0
110654 On ch=1 n=d#6 v=105
110726 On ch=1 n=c6 v=82
110746 On ch=1 n=d#6 v=0
110798 On ch=1 n=c6 v=0
110812 Par ch=1 c=64 v=63
110830 Par ch=1 c=64 v=0
110832 On ch=1 n=g#5 v=101
110906 On ch=1 n=g#5 v=0
110924 Par ch=1 c=64 v=63
110926 On ch=1 n=g5 v=87
110960 Par ch=1 c=64 v=127
111010 On ch=1 n=f#5 v=107
111020 On ch=1 n=g5 v=0
111100 On ch=1 n=g5 v=90
111110 On ch=1 n=f#5 v=0
111152 Par ch=1 c=64 v=63
111182 On ch=1 n=c6 v=88
111202 On ch=1 n=g5 v=0
111250 Par ch=1 c=64 v=0
111252 On ch=1 n=g5 v=87
111272 Par ch=1 c=64 v=63
111276 On ch=1 n=c6 v=0
111328 On ch=1 n=g5 v=0
111342 On ch=1 n=f5 v=94
111424 On ch=1 n=f5 v=0
111434 On ch=1 n=d#5 v=106
111498 Par ch=1 c=64 v=0
111524 On ch=1 n=d5 v=99
111534 On ch=1 n=d#5 v=0
111602 On ch=1 n=d#5 v=97
111626 On ch=1 n=d5 v=0
111696 On ch=1 n=g5 v=96
111702 On ch=1 n=d#5 v=0
111778 On ch=1 n=d#5 v=94
111824 On ch=1 n=g5 v=0
111862 On ch=1 n=d#5 v=0
111870 On ch=1 n=c5 v=90
111874 On ch=1 n=d#4 v=116
111922 On ch=1 n=c5 v=0
111956 On ch=1 n=d#4 v=0
111958 On ch=1 n=c6 v=97
111992 On ch=1 n=c6 v=0
112036 On ch=1 n=d4 v=107
112038 On ch=1 n=b4 v=109
112088 On ch=1 n=b4 v=0
112106 On ch=1 n=d4 v=0
112142 On ch=1 n=c6 v=80
112190 On ch=1 n=c6 v=0
112202 On ch=1 n=d#4 v=110
112212 On ch=1 n=c5 v=68
112268 On ch=1 n=c5 v=0
112284 On ch=1 n=d#4 v=0
112300 On ch=1 n=c6 v=104
112374 On ch=1 n=f4 v=106
112376 On ch=1 n=d5 v=90
112378 On ch=1 n=c6 v=0
112442 On ch=1 n=d5 v=0
112444 On ch=1 n=f4 v=0
112452 On ch=1 n=c6 v=96
112520 On ch=1 n=c6 v=0
112536 On ch=1 n=d#4 v=114
112540 On ch=1 n=c5 v=89
112600 On ch=1 n=c5 v=0
112612 On ch=1 n=d#4 v=0
112618 On ch=1 n=c6 v=101
112702 On ch=1 n=c6 v=0
112706 On ch=1 n=d5 v=100
112710 On ch=1 n=f4 v=113
112784 On ch=1 n=d5 v=0
112792 On ch=1 n=f4 v=0
112794 On ch=1 n=c6 v=104
112888 On ch=1 n=c6 v=0
112892 On ch=1 n=g4 v=111
112894 On ch=1 n=e5 v=101
112970 On ch=1 n=c6 v=103
112974 On ch=1 n=e5 v=0
112994 On ch=1 n=g4 v=0
113070 On ch=1 n=c6 v=0
113072 On ch=1 n=d5 v=102
113080 On ch=1 n=f4 v=114
113146 On ch=1 n=c6 v=101
113148 On ch=1 n=d5 v=0
113192 On ch=1 n=f4 v=0
113244 On ch=1 n=g4 v=113
113256 On ch=1 n=e5 v=99
113274 On ch=1 n=c6 v=0
113344 On ch=1 n=e5 v=0
113344 On ch=1 n=c6 v=103
113350 On ch=1 n=g4 v=0
113482 On ch=1 n=f5 v=100
113484 On ch=1 n=c6 v=0
113484 Par ch=1 c=64 v=63
113486 On ch=1 n=g#4 v=121
113508 Par ch=1 c=64 v=127
113580 On ch=1 n=c6 v=91
113584 On ch=1 n=f5 v=0
113686 On ch=1 n=f5 v=84
113696 On ch=1 n=c6 v=0
113760 On ch=1 n=c6 v=72
113764 On ch=1 n=f5 v=0
113842 On ch=1 n=g4 v=106
113850 On ch=1 n=g#4 v=0
113856 On ch=1 n=d#5 v=99
113878 On ch=1 n=c6 v=0
113942 On ch=1 n=d#5 v=0
113942 On ch=1 n=g4 v=0
113946 On ch=1 n=c6 v=81
113986 Par ch=1 c=64 v=63
114006 Par ch=1 c=64 v=0
114040 On ch=1 n=g#4 v=126
114048 On ch=1 n=f5 v=96
114080 On ch=1 n=c6 v=0
114084 Par ch=1 c=64 v=63
114106 Par ch=1 c=64 v=127
114142 On ch=1 n=f5 v=0
114146 On ch=1 n=c6 v=90
114252 On ch=1 n=f5 v=80
114262 On ch=1 n=g#4 v=0
114290 On ch=1 n=c6 v=0
114330 On ch=1 n=c6 v=88
114334 On ch=1 n=f5 v=0
114426 On ch=1 n=g4 v=84
114456 On ch=1 n=d#5 v=100
114460 On ch=1 n=c6 v=0
114526 On ch=1 n=g4 v=0
114544 On ch=1 n=c6 v=75
114558 On ch=1 n=d#5 v=0
114624 Par ch=1 c=64 v=63
114660 Par ch=1 c=64 v=0
114676 On ch=1 n=f#4 v=70
114684 On ch=1 n=c6 v=0
114714 Par ch=1 c=64 v=63
114720 On ch=1 n=d5 v=86
114754 Par ch=1 c=64 v=127
114844 On ch=1 n=d5 v=0
114854 On ch=1 n=c6 v=82
114992 On ch=1 n=g4 v=62
115012 On ch=1 n=c6 v=0
115012 On ch=1 n=f#4 v=0
115012 On ch=1 n=d#5 v=88
115116 On ch=1 n=c6 v=77
115118 On ch=1 n=d#5 v=0
115214 On ch=1 n=f#4 v=84
115226 On ch=1 n=c6 v=0
115226 On ch=1 n=d5 v=80
115228 On ch=1 n=g4 v=0
115304 On ch=1 n=d5 v=0
115306 On ch=1 n=c6 v=76
115394 On ch=1 n=d#5 v=99
115410 On ch=1 n=g4 v=78
115422 On ch=1 n=f#4 v=0
115424 On ch=1 n=c6 v=0
115486 On ch=1 n=d#5 v=0
115492 On ch=1 n=c6 v=82
115540 On ch=1 n=g4 v=0
115570 On ch=1 n=f5 v=87
115588 On ch=1 n=g#4 v=95
115610 On ch=1 n=c6 v=0
115660 On ch=1 n=f5 v=0
115666 On ch=1 n=c6 v=90
115738 On ch=1 n=g#4 v=0
115754 On ch=1 n=g4 v=81
115762 On ch=1 n=d#5 v=105
115794 On ch=1 n=c6 v=0
115850 On ch=1 n=c6 v=92
115854 On ch=1 n=d#5 v=0
115928 On ch=1 n=f#4 v=108
115934 On ch=1 n=d5 v=99
115936 On ch=1 n=c6 v=0
115940 On ch=1 n=g4 v=0
115944 Par ch=1 c=64 v=63
115966 Par ch=1 c=64 v=0
116010 On ch=1 n=d5 v=0
116014 On ch=1 n=c6 v=88
116022 Par ch=1 c=64 v=63
116054 Par ch=1 c=64 v=127
116104 On ch=1 n=d#5 v=105
116116 On ch=1 n=g4 v=97
116130 On ch=1 n=c6 v=0
116162 On ch=1 n=f#4 v=0
116194 On ch=1 n=c6 v=92
116198 On ch=1 n=d#5 v=0
116276 On ch=1 n=d5 v=96
116286 On ch=1 n=c6 v=0
116296 On ch=1 n=f#4 v=112
116314 On ch=1 n=g4 v=0
116352 On ch=1 n=d5 v=0
116352 On ch=1 n=c6 v=93
116452 On ch=1 n=d#5 v=109
116464 On ch=1 n=g4 v=102
116472 On ch=1 n=c6 v=0
116496 On ch=1 n=f#4 v=0
116538 On ch=1 n=c6 v=91
116540 On ch=1 n=d#5 v=0
116598 Par ch=1 c=64 v=63
116620 Par ch=1 c=64 v=0
116632 On ch=1 n=f5 v=94
116642 On ch=1 n=g#4 v=115
116660 On ch=1 n=c6 v=0
116672 On ch=1 n=g4 v=0
116678 Par ch=1 c=64 v=63
116712 Par ch=1 c=64 v=127
116718 On ch=1 n=f5 v=0
116726 On ch=1 n=c6 v=96
116822 On ch=1 n=g4 v=89
116830 On ch=1 n=d#5 v=105
116836 On ch=1 n=g#4 v=0
116862 On ch=1 n=c6 v=0
116910 On ch=1 n=g4 v=0
116918 On ch=1 n=d#5 v=0
116918 On ch=1 n=c6 v=90
117012 Par ch=1 c=64 v=63
117030 On ch=1 n=d5 v=97
117030 Par ch=1 c=64 v=0
117036 On ch=1 n=c6 v=0
117122 Par ch=1 c=64 v=63
117144 Par ch=1 c=64 v=127
117152 On ch=1 n=f#4 v=90
117230 On ch=1 n=d5 v=0
117268 On ch=1 n=a4 v=89
117346 On ch=1 n=c5 v=96
117348 On ch=1 n=f#4 v=0
117408 On ch=1 n=a4 v=0
117422 On ch=1 n=d5 v=90
117446 On ch=1 n=c5 v=0
117502 On ch=1 n=d5 v=0
117516 On ch=1 n=f#5 v=105
117594 On ch=1 n=f#5 v=0
117620 On ch=1 n=c6 v=98
117702 On ch=1 n=c6 v=0
117726 On ch=1 n=d5 v=67
117808 On ch=1 n=f#5 v=89
117890 On ch=1 n=a5 v=80
117968 On ch=1 n=c6 v=84
117970 Par ch=1 c=64 v=63
118042 Par ch=1 c=64 v=127
118050 On ch=1 n=f#6 v=97
118084 On ch=1 n=f#5 v=0
118104 On ch=1 n=a5 v=0
118114 On ch=1 n=f#6 v=0
118122 On ch=1 n=c6 v=0
118126 On ch=1 n=d5 v=0
118146 On ch=1 n=c7 v=84
118238 On ch=1 n=a#6 v=101
118266 On ch=1 n=c7 v=0
118330 On ch=1 n=a6 v=84
118356 On ch=1 n=a#6 v=0
118404 On ch=1 n=a6 v=0
118404 On ch=1 n=g6 v=76
118482 On ch=1 n=f#6 v=89
118490 On ch=1 n=g6 v=0
118586 On ch=1 n=g6 v=71
118592 On ch=1 n=f#6 v=0
118658 On ch=1 n=f#6 v=88
118700 On ch=1 n=g6 v=0
118716 Par ch=1 c=64 v=63
118750 On ch=1 n=g6 v=84
118760 On ch=1 n=f#6 v=0
118786 Par ch=1 c=64 v=0
118814 On ch=1 n=f#6 v=88
118854 On ch=1 n=g6 v=0
118904 Par ch=1 c=64 v=63
118912 On ch=1 n=d#6 v=85
118928 On ch=1 n=f#6 v=0
118936 Par ch=1 c=64 v=0
118996 On ch=1 n=d#6 v=0
119010 On ch=1 n=d6 v=77
119078 On ch=1 n=d6 v=0
119112 On ch=1 n=c6 v=69
119182 Par ch=1 c=64 v=63
119214 On ch=1 n=c6 v=0
119242 Par ch=1 c=64 v=127
119244 On ch=1 n=g4 v=57
119266 On ch=1 n=b5 v=78
119370 On ch=1 n=b5 v=0
119382 On ch=1 n=f6 v=75
119476 On ch=1 n=g4 v=0
119520 On ch=1 n=g#4 v=86
119522 On ch=1 n=f6 v=0
119526 On ch=1 n=c6 v=72
119592 On ch=1 n=f6 v=75
119598 On ch=1 n=c6 v=0
119662 On ch=1 n=g#4 v=0
119702 On ch=1 n=b5 v=86
119714 On ch=1 n=g4 v=74
119718 On ch=1 n=f6 v=0
119778 On ch=1 n=f6 v=85
119794 On ch=1 n=b5 v=0
119878 On ch=1 n=c6 v=99
119898 On ch=1 n=g#4 v=100
119910 On ch=1 n=f6 v=0
119938 On ch=1 n=g4 v=0
119970 On ch=1 n=f6 v=90
119994 On ch=1 n=c6 v=0
120072 On ch=1 n=a#4 v=105
120074 On ch=1 n=c#6 v=101
120112 On ch=1 n=f6 v=0
120124 On ch=1 n=g#4 v=0
120156 On ch=1 n=f6 v=90
120194 On ch=1 n=c#6 v=0
120252 On ch=1 n=c6 v=98
120264 On ch=1 n=g#4 v=88
120268 Par ch=1 c=64 v=63
120282 On ch=1 n=f6 v=0
120306 On ch=1 n=a#4 v=0
120348 Par ch=1 c=64 v=0
120348 On ch=1 n=f6 v=69
120358 On ch=1 n=c6 v=0
120414 Par ch=1 c=64 v=63
120434 On ch=1 n=g4 v=76
120452 On ch=1 n=b5 v=83
120464 On ch=1 n=g#4 v=0
120492 On ch=1 n=f6 v=0
120514 Par ch=1 c=64 v=127
120552 On ch=1 n=b5 v=0
120554 On ch=1 n=f6 v=75
120644 On ch=1 n=g#4 v=94
120654 On ch=1 n=c6 v=90
120656 On ch=1 n=g4 v=0
120692 On ch=1 n=f6 v=0
120740 On ch=1 n=f6 v=46
120768 On ch=1 n=c6 v=0
120818 On ch=1 n=b5 v=93
120826 On ch=1 n=g4 v=83
120834 On ch=1 n=f6 v=0
120862 On ch=1 n=g#4 v=0
120912 On ch=1 n=f6 v=73
120926 On ch=1 n=b5 v=0
121014 On ch=1 n=c6 v=100
121022 On ch=1 n=g#4 v=106
121062 On ch=1 n=f6 v=0
121078 On ch=1 n=g4 v=0
121108 On ch=1 n=f6 v=102
121124 On ch=1 n=c6 v=0
121196 On ch=1 n=c#6 v=112
121210 On ch=1 n=a#4 v=103
121236 On ch=1 n=f6 v=0
121258 On ch=1 n=g#4 v=0
121284 On ch=1 n=f6 v=97
121314 On ch=1 n=c#6 v=0
121316 Par ch=1 c=64 v=63
121344 Par ch=1 c=64 v=0
121384 On ch=1 n=c6 v=96
121394 On ch=1 n=g#4 v=96
121422 On ch=1 n=f6 v=0
121426 On ch=1 n=a#4 v=0
121436 Par ch=1 c=64 v=63
121476 On ch=1 n=f6 v=84
121484 On ch=1 n=c6 v=0
121490 On ch=1 n=g#4 v=0
121512 Par ch=1 c=64 v=0
121592 On ch=1 n=b5 v=88
121646 On ch=1 n=f6 v=0
121650 Par ch=1 c=64 v=63
121684 Par ch=1 c=64 v=127
121690 On ch=1 n=g4 v=74
121778 On ch=1 n=b4 v=77
121862 On ch=1 n=b5 v=0
121868 On ch=1 n=d5 v=99
121928 On ch=1 n=g4 v=0
121938 On ch=1 n=b4 v=0
121944 On ch=1 n=f5 v=93
121968 On ch=1 n=d5 v=0
122022 On ch=1 n=f5 v=0
122024 On ch=1 n=b5 v=94
122116 On ch=1 n=f6 v=106
122120 On ch=1 n=b5 v=0
122198 On ch=1 n=f6 v=0
122226 On ch=1 n=g5 v=79
122296 On ch=1 n=b5 v=66
122408 On ch=1 n=d6 v=84
122462 On ch=1 n=f6 v=97
122490 Par ch=1 c=64 v=63
122516 Par ch=1 c=64 v=0
122562 On ch=1 n=b6 v=85
122680 On ch=1 n=b6 v=0
122692 On ch=1 n=f7 v=84
122790 On ch=1 n=f6 v=0
122794 On ch=1 n=d6 v=0
122794 On ch=1 n=b5 v=0
122800 On ch=1 n=d#7 v=92
122826 On ch=1 n=f7 v=0
122880 On ch=1 n=g5 v=0
122896 On ch=1 n=d7 v=84
122932 On ch=1 n=d#7 v=0
122980 On ch=1 n=c7 v=83
122982 On ch=1 n=d7 v=0
123054 On ch=1 n=c7 v=0
123064 On ch=1 n=b6 v=99
123160 On ch=1 n=g#6 v=105
123182 On ch=1 n=b6 v=0
123250 On ch=1 n=g#6 v=0
123258 On ch=1 n=g6 v=104
123330 On ch=1 n=f#6 v=106
123350 On ch=1 n=g6 v=0
123434 On ch=1 n=g6 v=103
123450 On ch=1 n=f#6 v=0
123520 On ch=1 n=g#6 v=104
123538 On ch=1 n=g6 v=0
123592 On ch=1 n=g6 v=104
123608 On ch=1 n=g#6 v=0
123700 On ch=1 n=f6 v=97
123728 On ch=1 n=g6 v=0
123738 Par ch=1 c=64 v=63
123754 Par ch=1 c=64 v=127
123762 On ch=1 n=f6 v=0
123846 On ch=1 n=c5 v=83
123848 On ch=1 n=e6 v=91
123952 On ch=1 n=e6 v=0
123972 On ch=1 n=g5 v=62
124010 On ch=1 n=c5 v=0
124040 On ch=1 n=g5 v=0
124072 On ch=1 n=b4 v=60
124074 On ch=1 n=f6 v=98
124168 On ch=1 n=g5 v=60
124174 On ch=1 n=f6 v=0
124242 On ch=1 n=c5 v=101
124250 On ch=1 n=g5 v=0
124256 On ch=1 n=e6 v=100
124264 On ch=1 n=b4 v=0
124340 On ch=1 n=g5 v=77
124358 On ch=1 n=e6 v=0
124428 On ch=1 n=f6 v=106
124430 On ch=1 n=c#5 v=103
124432 On ch=1 n=g5 v=0
124466 On ch=1 n=c5 v=0
124510 On ch=1 n=g5 v=80
124534 On ch=1 n=f6 v=0
124600 On ch=1 n=c#5 v=0
124622 On ch=1 n=g5 v=0
124628 On ch=1 n=e6 v=100
124636 On ch=1 n=c5 v=104
124694 On ch=1 n=g5 v=68
124740 On ch=1 n=e6 v=0
124820 On ch=1 n=g5 v=0
124836 On ch=1 n=f6 v=91
124842 On ch=1 n=b4 v=77
124862 On ch=1 n=c5 v=0
124926 On ch=1 n=g5 v=60
124932 Par ch=1 c=64 v=63
124946 On ch=1 n=f6 v=0
125052 On ch=1 n=c5 v=87
125056 On ch=1 n=e6 v=81
125066 Par ch=1 c=64 v=127
125068 On ch=1 n=b4 v=0
125074 On ch=1 n=g5 v=0
125152 On ch=1 n=g5 v=62
125160 On ch=1 n=e6 v=0
125232 On ch=1 n=b4 v=85
125252 On ch=1 n=g5 v=0
125264 On ch=1 n=f6 v=94
125296 On ch=1 n=c5 v=0
125342 On ch=1 n=g5 v=77
125366 On ch=1 n=f6 v=0
125426 On ch=1 n=c5 v=106
125444 On ch=1 n=e6 v=98
125464 On ch=1 n=g5 v=0
125492 On ch=1 n=b4 v=0
125524 On ch=1 n=g5 v=81
125552 On ch=1 n=e6 v=0
125624 On ch=1 n=g5 v=0
125632 On ch=1 n=f6 v=101
125632 On ch=1 n=c#5 v=116
125678 On ch=1 n=c5 v=0
125708 On ch=1 n=g5 v=78
125710 Par ch=1 c=64 v=63
125730 On ch=1 n=f6 v=0
125808 Par ch=1 c=64 v=127
125820 On ch=1 n=c5 v=94
125822 On ch=1 n=g5 v=0
125826 On ch=1 n=e6 v=89
125840 Par ch=1 c=64 v=63
125858 On ch=1 n=c#5 v=0
125904 On ch=1 n=g5 v=69
125918 On ch=1 n=e6 v=0
125948 Par ch=1 c=64 v=127
125976 On ch=1 n=c5 v=0
126000 On ch=1 n=g5 v=0
126014 On ch=1 n=f6 v=89
126034 On ch=1 n=b4 v=88
126084 On ch=1 n=b4 v=0
126116 On ch=1 n=g5 v=60
126132 On ch=1 n=f6 v=0
126178 Par ch=1 c=64 v=63
126210 On ch=1 n=e6 v=85
126230 On ch=1 n=g5 v=0
126296 Par ch=1 c=64 v=127
126310 On ch=1 n=c4 v=68
126364 On ch=1 n=e6 v=0
126402 On ch=1 n=e4 v=74
126500 On ch=1 n=g4 v=60
126510 On ch=1 n=c4 v=0
126580 On ch=1 n=a#4 v=88
126584 On ch=1 n=e4 v=0
126626 On ch=1 n=g4 v=0
126652 On ch=1 n=a#4 v=0
126676 On ch=1 n=e5 v=74
126772 On ch=1 n=a#5 v=87
126776 On ch=1 n=e5 v=0
126844 On ch=1 n=a#5 v=0
126866 On ch=1 n=c5 v=63
126938 On ch=1 n=e5 v=69
127030 On ch=1 n=g5 v=75
127120 Par ch=1 c=64 v=63
127122 On ch=1 n=a#5 v=91
127132 Par ch=1 c=64 v=127
127186 On ch=1 n=e6 v=73
127218 On ch=1 n=g5 v=0
127228 On ch=1 n=e5 v=0
127230 On ch=1 n=a#5 v=0
127240 On ch=1 n=c5 v=0
127270 On ch=1 n=a#6 v=83
127284 On ch=1 n=e6 v=0
127366 On ch=1 n=a6 v=83
127404 On ch=1 n=a#6 v=0
127456 On ch=1 n=g6 v=83
127486 On ch=1 n=a6 v=0
127530 On ch=1 n=f6 v=84
127550 On ch=1 n=g6 v=0
127612 On ch=1 n=f6 v=0
127630 On ch=1 n=e6 v=84
127712 On ch=1 n=d6 v=86
127724 On ch=1 n=e6 v=0
127802 On ch=1 n=d6 v=0
127806 On ch=1 n=c6 v=79
127840 Par ch=1 c=64 v=63
127892 On ch=1 n=d6 v=83
127902 On ch=1 n=c6 v=0
127912 Par ch=1 c=64 v=0
127974 On ch=1 n=d6 v=0
127978 On ch=1 n=c6 v=77
128062 On ch=1 n=c6 v=0
128078 On ch=1 n=a#5 v=88
128172 On ch=1 n=a#5 v=0
128174 On ch=1 n=a5 v=71
128208 Par ch=1 c=64 v=63
128240 On ch=1 n=a5 v=0
128246 Par ch=1 c=64 v=127
128248 On ch=1 n=g5 v=72
128298 On ch=1 n=g5 v=0
128384 On ch=1 n=a4 v=65
128386 On ch=1 n=f5 v=89
128484 On ch=1 n=f5 v=0
128520 On ch=1 n=d#6 v=94
128632 On ch=1 n=d#6 v=0
128648 On ch=1 n=a#4 v=81
128652 On ch=1 n=f#5 v=86
128674 On ch=1 n=a4 v=0
128724 On ch=1 n=f#5 v=0
128728 On ch=1 n=d#6 v=84
128818 On ch=1 n=f5 v=88
128826 On ch=1 n=d#6 v=0
128850 On ch=1 n=a4 v=93
128884 On ch=1 n=a#4 v=0
128902 On ch=1 n=f5 v=0
128906 Par ch=1 c=64 v=63
128914 On ch=1 n=d#6 v=92
129008 On ch=1 n=f#5 v=105
129022 On ch=1 n=d#6 v=0
129036 On ch=1 n=a#4 v=100
129098 On ch=1 n=d#6 v=85
129114 On ch=1 n=f#5 v=0
129118 On ch=1 n=a4 v=0
129204 On ch=1 n=g#5 v=103
129204 Par ch=1 c=64 v=127
129216 On ch=1 n=c5 v=93
129224 On ch=1 n=d#6 v=0
129274 On ch=1 n=a#4 v=0
129302 On ch=1 n=d#6 v=80
129310 On ch=1 n=g#5 v=0
129360 Par ch=1 c=64 v=63
129408 On ch=1 n=a#4 v=80
129422 On ch=1 n=f#5 v=97
129432 On ch=1 n=d#6 v=0
129440 On ch=1 n=c5 v=0
129472 Par ch=1 c=64 v=127
129504 On ch=1 n=f#5 v=0
129506 On ch=1 n=d#6 v=74
129582 Par ch=1 c=64 v=63
129604 On ch=1 n=d#6 v=0
129614 On ch=1 n=a4 v=73
129614 On ch=1 n=f5 v=81
129634 On ch=1 n=a#4 v=0
129690 On ch=1 n=f5 v=0
129698 On ch=1 n=d#6 v=88
129738 Par ch=1 c=64 v=127
129802 On ch=1 n=f#5 v=100
129804 On ch=1 n=a#4 v=94
129806 On ch=1 n=d#6 v=0
129850 On ch=1 n=a4 v=0
129874 On ch=1 n=f#5 v=0
129874 On ch=1 n=d#6 v=80
129960 On ch=1 n=f5 v=96
129974 On ch=1 n=d#6 v=0
129980 On ch=1 n=a4 v=102
130010 On ch=1 n=a#4 v=0
130040 On ch=1 n=f5 v=0
130056 On ch=1 n=d#6 v=91
130146 Par ch=1 c=64 v=63
130158 On ch=1 n=f#5 v=109
130160 On ch=1 n=a#4 v=104
130178 On ch=1 n=d#6 v=0
130180 Par ch=1 c=64 v=0
130226 On ch=1 n=a4 v=0
130248 On ch=1 n=d#6 v=90
130264 On ch=1 n=f#5 v=0
130326 Par ch=1 c=64 v=63
130330 Par ch=1 c=64 v=0
130358 On ch=1 n=g#5 v=106
130360 On ch=1 n=c5 v=89
130380 On ch=1 n=d#6 v=0
130412 On ch=1 n=a#4 v=0
130444 On ch=1 n=d#6 v=80
130466 On ch=1 n=g#5 v=0
130474 Par ch=1 c=64 v=63
130506 Par ch=1 c=64 v=127
130570 On ch=1 n=f#5 v=98
130580 On ch=1 n=a#4 v=84
130586 On ch=1 n=d#6 v=0
130592 On ch=1 n=c5 v=0
130662 On ch=1 n=d#6 v=76
130664 On ch=1 n=f#5 v=0
130666 On ch=1 n=a#4 v=0
130674 Par ch=1 c=64 v=63
130704 Par ch=1 c=64 v=0
130780 On ch=1 n=f5 v=84
130822 Par ch=1 c=64 v=63
130830 On ch=1 n=d#6 v=0
130858 On ch=1 n=a4 v=55
130862 Par ch=1 c=64 v=127
130906 On ch=1 n=f5 v=0
130974 On ch=1 n=c5 v=74
131086 On ch=1 n=d#5 v=96
131120 On ch=1 n=a4 v=0
131130 On ch=1 n=c5 v=0
131166 On ch=1 n=f5 v=79
131180 On ch=1 n=d#5 v=0
131206 On ch=1 n=a5 v=77
131232 On ch=1 n=f5 v=0
131322 On ch=1 n=a5 v=0
131332 On ch=1 n=d#6 v=90
131408 On ch=1 n=d#6 v=0
131426 On ch=1 n=f5 v=71
131504 On ch=1 n=a5 v=71
131580 Par ch=1 c=64 v=63
131616 Par ch=1 c=64 v=127
131616 On ch=1 n=c#6 v=29
131624 On ch=1 n=c6 v=86
131660 On ch=1 n=c#6 v=0
131704 On ch=1 n=a5 v=0
131704 On ch=1 n=d#6 v=81
131740 On ch=1 n=d#6 v=0
131750 On ch=1 n=c6 v=0
131752 On ch=1 n=f5 v=0
131758 On ch=1 n=a6 v=66
131852 On ch=1 n=a6 v=0
131880 On ch=1 n=d#7 v=89
131994 On ch=1 n=d7 v=84
132004 On ch=1 n=d#7 v=0
132070 On ch=1 n=d7 v=0
132078 On ch=1 n=c7 v=81
132148 On ch=1 n=c7 v=0
132152 On ch=1 n=a#6 v=103
132250 On ch=1 n=a6 v=90
132260 On ch=1 n=a#6 v=0
132324 On ch=1 n=g6 v=89
132330 On ch=1 n=a6 v=0
132414 On ch=1 n=g6 v=0
132422 On ch=1 n=f6 v=99
132530 On ch=1 n=g6 v=92
132540 On ch=1 n=f6 v=0
132618 On ch=1 n=f6 v=84
132628 Par ch=1 c=64 v=63
132668 On ch=1 n=g6 v=0
132676 Par ch=1 c=64 v=0
132722 On ch=1 n=d#6 v=104
132742 On ch=1 n=f6 v=0
132812 On ch=1 n=d#6 v=0
132816 On ch=1 n=d6 v=84
132914 On ch=1 n=c6 v=84
132916 On ch=1 n=d6 v=0
133070 On ch=1 n=a#4 v=46
133074 On ch=1 n=d6 v=86
133088 On ch=1 n=c6 v=0
133236 Par ch=1 c=64 v=63
133262 Par ch=1 c=64 v=127
133326 On ch=1 n=d5 v=59
133382 On ch=1 n=d6 v=0
133530 On ch=1 n=d6 v=85
133540 On ch=1 n=f5 v=69
133544 On ch=1 n=a#4 v=0
133590 On ch=1 n=d5 v=0
133614 Par ch=1 c=64 v=63
133648 Par ch=1 c=64 v=0
133742 On ch=1 n=c6 v=83
133752 On ch=1 n=f5 v=0
133754 On ch=1 n=a4 v=50
133796 On ch=1 n=d6 v=0
133814 Par ch=1 c=64 v=63
133828 Par ch=1 c=64 v=127
133932 On ch=1 n=c5 v=68
133972 On ch=1 n=c6 v=0
133974 Par ch=1 c=64 v=63
133994 Par ch=1 c=64 v=0
134142 On ch=1 n=c5 v=0
134144 On ch=1 n=c6 v=96
134148 On ch=1 n=f5 v=47
134176 On ch=1 n=a4 v=0
134410 On ch=1 n=g4 v=46
134414 On ch=1 n=d#6 v=88
134428 On ch=1 n=c6 v=0
134488 On ch=1 n=f5 v=0
134626 Par ch=1 c=64 v=63
134630 Par ch=1 c=64 v=127
134718 On ch=1 n=a#4 v=64
134874 On ch=1 n=g4 v=0
134940 On ch=1 n=d#5 v=60
134964 On ch=1 n=a#4 v=0
135134 On ch=1 n=f#4 v=90
135252 On ch=1 n=d#5 v=0
135302 Par ch=1 c=64 v=63
135334 On ch=1 n=a4 v=67
135408 Par ch=1 c=64 v=127
135508 On ch=1 n=d#6 v=0
135514 On ch=1 n=d6 v=100
135524 On ch=1 n=d5 v=84
135570 On ch=1 n=f#4 v=0
135772 On ch=1 n=d#6 v=94
135772 On ch=1 n=g4 v=55
135802 Par ch=1 c=64 v=63
135812 On ch=1 n=d5 v=0
135822 On ch=1 n=d6 v=0
135826 Par ch=1 c=64 v=0
135840 On ch=1 n=a4 v=0
135928 Par ch=1 c=64 v=63
135946 Par ch=1 c=64 v=127
135988 On ch=1 n=a#4 v=81
136050 On ch=1 n=d#6 v=0
136160 On ch=1 n=d#6 v=104
136176 On ch=1 n=d#5 v=81
136236 On ch=1 n=a#4 v=0
136298 On ch=1 n=d#5 v=0
136326 On ch=1 n=g4 v=0
136368 On ch=1 n=d6 v=106
136382 On ch=1 n=f4 v=74
136388 Par ch=1 c=64 v=63
136410 Par ch=1 c=64 v=0
136426 On ch=1 n=d#6 v=0
136502 Par ch=1 c=64 v=63
136534 Par ch=1 c=64 v=127
136568 On ch=1 n=a4 v=80
136582 On ch=1 n=d6 v=0
136768 On ch=1 n=a4 v=0
136782 On ch=1 n=d6 v=112
136784 On ch=1 n=d5 v=86
136810 On ch=1 n=f4 v=0
137072 On ch=1 n=d5 v=0
137072 On ch=1 n=d#4 v=77
137076 On ch=1 n=g6 v=97
137152 On ch=1 n=d6 v=0
137196 Par ch=1 c=64 v=63
137224 Par ch=1 c=64 v=0
137306 On ch=1 n=g4 v=68
137368 Par ch=1 c=64 v=63
137390 Par ch=1 c=64 v=127
137520 On ch=1 n=c5 v=81
137588 On ch=1 n=g4 v=0
137606 On ch=1 n=d#4 v=0
137708 On ch=1 n=d4 v=96
137710 On ch=1 n=c5 v=0
137752 Par ch=1 c=64 v=63
137776 Par ch=1 c=64 v=0
137890 On ch=1 n=f4 v=81
137906 Par ch=1 c=64 v=63
137930 Par ch=1 c=64 v=127
137976 On ch=1 n=d4 v=0
138104 On ch=1 n=a#4 v=76
138114 On ch=1 n=f6 v=85
138140 On ch=1 n=f4 v=0
138230 On ch=1 n=g6 v=0
138248 On ch=1 n=a#4 v=0
138262 On ch=1 n=f6 v=0
138332 On ch=1 n=f6 v=87
138332 Par ch=1 c=64 v=63
138348 On ch=1 n=c4 v=78
138362 Par ch=1 c=64 v=0
138466 Par ch=1 c=64 v=63
138492 Par ch=1 c=64 v=127
138542 On ch=1 n=e6 v=97
138558 On ch=1 n=g4 v=67
138616 On ch=1 n=f6 v=0
138714 On ch=1 n=e6 v=0
138728 On ch=1 n=a#4 v=79
138754 On ch=1 n=c6 v=104
138818 On ch=1 n=g4 v=0
138832 On ch=1 n=c4 v=0
138842 On ch=1 n=a#4 v=0
138948 On ch=1 n=f4 v=83
139044 Par ch=1 c=64 v=63
139066 Par ch=1 c=64 v=0
139150 On ch=1 n=a4 v=84
139158 On ch=1 n=d6 v=100
139182 On ch=1 n=c6 v=0
139186 Par ch=1 c=64 v=63
139194 On ch=1 n=f4 v=0
139208 Par ch=1 c=64 v=127
139304 On ch=1 n=a4 v=0
139352 On ch=1 n=d#6 v=108
139354 On ch=1 n=c5 v=76
139368 On ch=1 n=d6 v=0
139426 On ch=1 n=c5 v=0
139488 On ch=1 n=d#6 v=0
139562 On ch=1 n=d#6 v=76
139576 On ch=1 n=a#3 v=73
139602 Par ch=1 c=64 v=63
139636 Par ch=1 c=64 v=0
139738 Par ch=1 c=64 v=63
139768 Par ch=1 c=64 v=127
139786 On ch=1 n=d6 v=96
139810 On ch=1 n=f4 v=65
139856 On ch=1 n=d#6 v=0
139910 On ch=1 n=d6 v=0
140012 On ch=1 n=a#3 v=0
140030 On ch=1 n=a#4 v=79
140036 On ch=1 n=a#5 v=107
140044 On ch=1 n=f4 v=0
140150 On ch=1 n=a#4 v=0
140214 On ch=1 n=f#4 v=94
140280 Par ch=1 c=64 v=63
140300 Par ch=1 c=64 v=0
140396 Par ch=1 c=64 v=63
140418 On ch=1 n=c6 v=96
140420 Par ch=1 c=64 v=127
140428 On ch=1 n=a#5 v=0
140428 On ch=1 n=a#4 v=87
140564 On ch=1 n=f#4 v=0
140622 On ch=1 n=c#5 v=77
140626 On ch=1 n=c#6 v=103
140664 On ch=1 n=a#4 v=0
140668 On ch=1 n=c6 v=0
140728 Par ch=1 c=64 v=63
140742 Par ch=1 c=64 v=0
140784 On ch=1 n=c#5 v=0
140830 On ch=1 n=d#4 v=108
140882 Par ch=1 c=64 v=63
140898 Par ch=1 c=64 v=127
141054 On ch=1 n=f#4 v=96
141058 On ch=1 n=c6 v=94
141114 On ch=1 n=c#6 v=0
141204 On ch=1 n=d#4 v=0
141218 On ch=1 n=a#4 v=82
141232 On ch=1 n=c#6 v=113
141260 On ch=1 n=f#4 v=0
141276 On ch=1 n=c6 v=0
141298 On ch=1 n=a#4 v=0
141430 On ch=1 n=e4 v=112
141458 Par ch=1 c=64 v=63
141480 Par ch=1 c=64 v=0
141570 Par ch=1 c=64 v=63
141606 Par ch=1 c=64 v=127
141620 On ch=1 n=g4 v=89
141640 On ch=1 n=c6 v=96
141686 On ch=1 n=c#6 v=0
141754 On ch=1 n=g4 v=0
141836 On ch=1 n=a#5 v=108
141846 On ch=1 n=c#5 v=89
141868 On ch=1 n=c6 v=0
141972 On ch=1 n=c#5 v=0
142042 On ch=1 n=e4 v=0
142074 On ch=1 n=f4 v=93
142082 On ch=1 n=a5 v=100
142126 Par ch=1 c=64 v=63
142136 On ch=1 n=a#5 v=0
142144 Par ch=1 c=64 v=0
142266 Par ch=1 c=64 v=63
142280 Par ch=1 c=64 v=127
142296 On ch=1 n=a4 v=82
142428 On ch=1 n=a5 v=0
142452 On ch=1 n=a4 v=0
142472 On ch=1 n=f4 v=0
142478 On ch=1 n=c5 v=98
142550 On ch=1 n=c5 v=0
142706 On ch=1 n=c6 v=112
142716 Par ch=1 c=64 v=63
142716 On ch=1 n=f4 v=70
142738 Par ch=1 c=64 v=0
142766 Par ch=1 c=64 v=63
142804 Par ch=1 c=64 v=127
142830 On ch=1 n=c6 v=0
142872 Par ch=1 c=64 v=63
142886 Par ch=1 c=64 v=0
142892 On ch=1 n=d#4 v=106
142922 On ch=1 n=f4 v=0
143084 On ch=1 n=c4 v=100
143100 On ch=1 n=d#4 v=0
143172 On ch=1 n=c4 v=0
143332 On ch=1 n=a#4 v=127
143334 Par ch=1 c=64 v=127
143336 On ch=1 n=a#3 v=121
143342 On ch=1 n=d6 v=122
143388 On ch=1 n=a#4 v=0
143394 On ch=1 n=a#3 v=0
143438 On ch=1 n=a#5 v=103
143464 On ch=1 n=d6 v=0
143530 On ch=1 n=a#5 v=0
143530 On ch=1 n=f5 v=89
143634 On ch=1 n=f5 v=0
143646 On ch=1 n=a#5 v=104
143736 On ch=1 n=a#5 v=0
143738 On ch=1 n=d6 v=96
143816 On ch=1 n=a#5 v=94
143852 On ch=1 n=d6 v=0
143852 Par ch=1 c=64 v=63
143858 Par ch=1 c=64 v=0
143878 On ch=1 n=a#5 v=0
143936 On ch=1 n=a4 v=118
143942 On ch=1 n=a3 v=112
143946 On ch=1 n=c6 v=118
143958 Par ch=1 c=64 v=63
143968 Par ch=1 c=64 v=127
144046 On ch=1 n=a5 v=88
144068 On ch=1 n=c6 v=0
144102 On ch=1 n=f5 v=89
144126 On ch=1 n=a5 v=0
144142 On ch=1 n=a4 v=0
144164 On ch=1 n=a3 v=0
144212 On ch=1 n=f5 v=0
144220 On ch=1 n=a5 v=91
144300 On ch=1 n=c6 v=98
144322 On ch=1 n=a5 v=0
144384 On ch=1 n=a5 v=83
144408 On ch=1 n=c6 v=0
144432 Par ch=1 c=64 v=63
144442 Par ch=1 c=64 v=0
144464 On ch=1 n=a5 v=0
144546 On ch=1 n=g4 v=120
144550 On ch=1 n=g3 v=118
144554 Par ch=1 c=64 v=63
144556 On ch=1 n=d#6 v=114
144566 Par ch=1 c=64 v=127
144634 On ch=1 n=a#5 v=101
144678 On ch=1 n=d#6 v=0
144730 On ch=1 n=a#5 v=0
144734 On ch=1 n=g5 v=73
144822 On ch=1 n=g5 v=0
144836 On ch=1 n=a#5 v=103
144906 On ch=1 n=a#5 v=0
144918 On ch=1 n=d#6 v=114
145002 On ch=1 n=a#5 v=114
145032 On ch=1 n=d#6 v=0
145044 On ch=1 n=g4 v=0
145046 On ch=1 n=g3 v=0
145096 On ch=1 n=d#6 v=99
145098 On ch=1 n=a#5 v=0
145172 On ch=1 n=a#5 v=94
145206 On ch=1 n=d#6 v=0
145274 On ch=1 n=a#5 v=0
145274 On ch=1 n=d#6 v=95
145370 On ch=1 n=a#5 v=96
145400 On ch=1 n=d#6 v=0
145474 On ch=1 n=a#5 v=0
145474 On ch=1 n=d6 v=101
145488 On ch=1 n=f#4 v=110
145490 On ch=1 n=f#3 v=103
145526 Par ch=1 c=64 v=63
145546 On ch=1 n=f#3 v=0
145548 On ch=1 n=f#4 v=0
145554 Par ch=1 c=64 v=0
145568 On ch=1 n=d6 v=0
145570 On ch=1 n=a#5 v=107
145652 On ch=1 n=a#5 v=0
145702 On ch=1 n=d#6 v=118
145704 On ch=1 n=g4 v=114
145710 Par ch=1 c=64 v=63
145716 On ch=1 n=g3 v=92
145718 Par ch=1 c=64 v=127
145736 On ch=1 n=e6 v=62
145772 On ch=1 n=a#5 v=106
145778 On ch=1 n=g4 v=0
145782 On ch=1 n=g3 v=0
145786 On ch=1 n=e6 v=0
145818 On ch=1 n=d#6 v=0
145878 On ch=1 n=g5 v=77
145880 On ch=1 n=a#5 v=0
145978 On ch=1 n=a#5 v=106
145982 On ch=1 n=g5 v=0
146052 On ch=1 n=d#6 v=107
146070 On ch=1 n=a#5 v=0
146144 On ch=1 n=a#5 v=88
146176 On ch=1 n=d#6 v=0
146226 On ch=1 n=a#5 v=0
146254 Par ch=1 c=64 v=63
146268 Par ch=1 c=64 v=0
146270 On ch=1 n=f4 v=125
146270 On ch=1 n=d6 v=121
146272 On ch=1 n=f3 v=121
146332 Par ch=1 c=64 v=63
146340 On ch=1 n=f4 v=0
146346 On ch=1 n=f3 v=0
146348 Par ch=1 c=64 v=127
146350 On ch=1 n=a5 v=103
146412 On ch=1 n=d6 v=0
146448 On ch=1 n=f5 v=84
146458 On ch=1 n=a5 v=0
146548 On ch=1 n=f5 v=0
146552 On ch=1 n=a5 v=91
146642 On ch=1 n=d6 v=97
146666 On ch=1 n=a5 v=0
146730 On ch=1 n=a5 v=83
146756 On ch=1 n=d6 v=0
146814 On ch=1 n=a5 v=0
146826 Par ch=1 c=64 v=63
146842 Par ch=1 c=64 v=0
146888 On ch=1 n=d#4 v=127
146888 On ch=1 n=d#3 v=121
146892 On ch=1 n=g6 v=112
146896 Par ch=1 c=64 v=63
146912 Par ch=1 c=64 v=127
147036 On ch=1 n=a#5 v=97
147050 On ch=1 n=g6 v=0
147140 On ch=1 n=a#5 v=0
147150 On ch=1 n=g5 v=78
147232 On ch=1 n=g5 v=0
147244 On ch=1 n=a#5 v=99
147276 On ch=1 n=a#5 v=0
147286 On ch=1 n=d#4 v=0
147308 On ch=1 n=d#3 v=0
147316 On ch=1 n=g6 v=108
147402 On ch=1 n=a#5 v=116
147412 On ch=1 n=g6 v=0
147482 On ch=1 n=a#5 v=0
147494 On ch=1 n=g6 v=106
147580 On ch=1 n=a#5 v=116
147590 On ch=1 n=g6 v=0
147666 On ch=1 n=g6 v=98
147674 On ch=1 n=a#5 v=0
147750 On ch=1 n=a#5 v=106
147754 On ch=1 n=g6 v=0
147834 On ch=1 n=a#5 v=0
147844 On ch=1 n=d3 v=87
147848 On ch=1 n=f6 v=102
147862 On ch=1 n=d4 v=111
147910 On ch=1 n=d3 v=0
147932 On ch=1 n=d4 v=0
147948 On ch=1 n=a#5 v=100
147974 On ch=1 n=f6 v=0
148022 On ch=1 n=a#5 v=0
148102 On ch=1 n=c4 v=120
148108 Par ch=1 c=64 v=63
148120 Par ch=1 c=64 v=0
148224 Par ch=1 c=64 v=63
148238 Par ch=1 c=64 v=127
148304 On ch=1 n=g4 v=75
148420 On ch=1 n=a#4 v=104
148438 On ch=1 n=c4 v=0
148476 On ch=1 n=g4 v=0
148490 On ch=1 n=g5 v=84
148520 On ch=1 n=a#4 v=0
148580 On ch=1 n=a#5 v=106
148596 On ch=1 n=g5 v=0
148674 On ch=1 n=e6 v=107
148694 On ch=1 n=a#5 v=0
148752 On ch=1 n=f#4 v=119
148758 On ch=1 n=e6 v=0
148778 Par ch=1 c=64 v=63
148810 Par ch=1 c=64 v=0
148826 Par ch=1 c=64 v=63
148854 On ch=1 n=a4 v=98
148856 Par ch=1 c=64 v=127
148954 On ch=1 n=c5 v=96
149006 On ch=1 n=a4 v=0
149022 On ch=1 n=a5 v=89
149048 On ch=1 n=f#4 v=0
149074 On ch=1 n=c5 v=0
149104 On ch=1 n=c6 v=96
149134 On ch=1 n=a5 v=0
149174 On ch=1 n=d#6 v=103
149202 On ch=1 n=c6 v=0
149240 On ch=1 n=d#6 v=0
149260 Par ch=1 c=64 v=63
149268 Par ch=1 c=64 v=0
149272 On ch=1 n=g4 v=109
149342 Par ch=1 c=64 v=63
149356 Par ch=1 c=64 v=127
149378 On ch=1 n=a#4 v=99
149438 On ch=1 n=g4 v=0
149478 On ch=1 n=d5 v=90
149502 On ch=1 n=a#4 v=0
149546 On ch=1 n=g5 v=85
149574 On ch=1 n=d5 v=0
149640 On ch=1 n=a#5 v=104
149664 On ch=1 n=g5 v=0
149728 On ch=1 n=d6 v=101
149748 On ch=1 n=a#5 v=0
149808 On ch=1 n=d#4 v=107
149820 On ch=1 n=d6 v=0
149842 Par ch=1 c=64 v=63
149862 Par ch=1 c=64 v=0
149886 Par ch=1 c=64 v=63
149908 Par ch=1 c=64 v=127
149928 On ch=1 n=g4 v=90
149990 On ch=1 n=d#4 v=0
150016 On ch=1 n=c5 v=93
150054 On ch=1 n=g4 v=0
150092 On ch=1 n=c5 v=0
150114 On ch=1 n=d#5 v=94
150202 On ch=1 n=g5 v=82
150208 On ch=1 n=d#5 v=0
150274 On ch=1 n=c6 v=102
150318 On ch=1 n=g5 v=0
150374 On ch=1 n=c6 v=0
150388 On ch=1 n=f3 v=122
150400 Par ch=1 c=64 v=63
150414 Par ch=1 c=64 v=0
150474 Par ch=1 c=64 v=63
150492 Par ch=1 c=64 v=127
150518 On ch=1 n=d4 v=109
150616 On ch=1 n=f4 v=106
150666 On ch=1 n=d4 v=0
150686 On ch=1 n=d5 v=93
150742 On ch=1 n=f4 v=0
150772 On ch=1 n=f5 v=98
150792 On ch=1 n=d5 v=0
150828 On ch=1 n=f3 v=0
150864 On ch=1 n=a#5 v=107
150892 On ch=1 n=f5 v=0
150952 On ch=1 n=a#5 v=0
150978 On ch=1 n=f3 v=124
151016 Par ch=1 c=64 v=63
151032 Par ch=1 c=64 v=0
151092 Par ch=1 c=64 v=63
151100 On ch=1 n=c4 v=108
151112 Par ch=1 c=64 v=127
151202 On ch=1 n=f4 v=111
151266 On ch=1 n=c4 v=0
151312 On ch=1 n=d#5 v=109
151320 On ch=1 n=f4 v=0
151384 On ch=1 n=f3 v=0
151436 On ch=1 n=d#5 v=0
151442 On ch=1 n=f5 v=89
151578 On ch=1 n=a5 v=108
151606 On ch=1 n=f5 v=0
151698 On ch=1 n=a5 v=0
151834 On ch=1 n=a#2 v=125
152068 Par ch=1 c=64 v=63
152100 Par ch=1 c=64 v=0
152600 Par ch=1 c=64 v=127
152814 On ch=1 n=d3 v=108
152904 On ch=1 n=a#2 v=0
153168 On ch=1 n=d3 v=0
153182 On ch=1 n=f3 v=101
153280 On ch=1 n=f3 v=0
153458 On ch=1 n=a#3 v=106
153748 On ch=1 n=d4 v=96
153950 On ch=1 n=f4 v=89
154130 On ch=1 n=a#4 v=88
154340 On ch=1 n=d5 v=85
154344 On ch=1 n=a#4 v=0
154370 On ch=1 n=a#3 v=0
154410 On ch=1 n=d4 v=0
154470 On ch=1 n=f4 v=0
154568 On ch=1 n=f5 v=78
154590 On ch=1 n=d5 v=0
154680 On ch=1 n=f5 v=0
154764 On ch=1 n=a3 v=43
154772 On ch=1 n=c4 v=45
154848 On ch=1 n=d#4 v=64
154888 On ch=1 n=f#5 v=74
154898 Par ch=1 c=64 v=63
154908 Par ch=1 c=64 v=127
155004 Par ch=1 c=64 v=63
155010 Par ch=1 c=64 v=0
155106 Par ch=1 c=64 v=63
155110 Par ch=1 c=64 v=127
155240 On ch=1 n=a5 v=58
155272 On ch=1 n=f#5 v=0
155494 On ch=1 n=c6 v=65
155526 On ch=1 n=a5 v=0
155588 On ch=1 n=c6 v=0
155732 On ch=1 n=d#6 v=60
155940 On ch=1 n=f#6 v=80
156000 On ch=1 n=d#6 v=0
156140 On ch=1 n=a6 v=83
156146 On ch=1 n=d#4 v=0
156196 On ch=1 n=f#6 v=0
156346 On ch=1 n=c7 v=83
156360 On ch=1 n=f#4 v=54
156418 On ch=1 n=a6 v=0
156570 On ch=1 n=a6 v=89
156588 On ch=1 n=c7 v=0
156756 On ch=1 n=f#6 v=92
156786 On ch=1 n=a6 v=0
156964 On ch=1 n=d#6 v=94
156998 On ch=1 n=f#6 v=0
157176 On ch=1 n=d#6 v=0
157176 On ch=1 n=d6 v=86
157274 On ch=1 n=d6 v=0
157350 On ch=1 n=c4 v=0
157356 On ch=1 n=f#4 v=0
157418 On ch=1 n=f#5 v=71
157462 On ch=1 n=a3 v=0
157630 On ch=1 n=f#5 v=0
157668 On ch=1 n=a#3 v=66
157706 On ch=1 n=a5 v=66
157714 On ch=1 n=d4 v=51
157744 On ch=1 n=g4 v=40
157888 Par ch=1 c=64 v=63
157964 On ch=1 n=a5 v=0
157978 On ch=1 n=g5 v=69
157994 Par ch=1 c=64 v=127
158184 On ch=1 n=g5 v=0
158186 On ch=1 n=c#6 v=79
158368 On ch=1 n=c#6 v=0
158378 On ch=1 n=d6 v=85
158568 On ch=1 n=f#6 v=100
158574 On ch=1 n=d6 v=0
158744 On ch=1 n=f#6 v=0
158758 On ch=1 n=g6 v=98
158960 On ch=1 n=c#7 v=104
159156 On ch=1 n=d7 v=93
159166 On ch=1 n=g6 v=0
159206 Par ch=1 c=64 v=63
159236 Par ch=1 c=64 v=0
159240 On ch=1 n=c#7 v=0
159348 On ch=1 n=a6 v=91
159360 Par ch=1 c=64 v=63
159378 Par ch=1 c=64 v=127
159404 On ch=1 n=d7 v=0
159436 On ch=1 n=d4 v=0
159440 On ch=1 n=a#3 v=0
159488 On ch=1 n=g4 v=0
159548 On ch=1 n=a6 v=0
159558 On ch=1 n=a#6 v=88
159688 On ch=1 n=a#6 v=0
159770 On ch=1 n=f#6 v=60
159956 On ch=1 n=f#6 v=0
159958 On ch=1 n=g6 v=67
160148 On ch=1 n=g6 v=0
160150 Par ch=1 c=64 v=63
160172 On ch=1 n=c#5 v=78
160184 On ch=1 n=a#4 v=62
160190 Par ch=1 c=64 v=0
160358 Par ch=1 c=64 v=63
160378 Par ch=1 c=64 v=127
160404 On ch=1 n=f6 v=69
160432 Par ch=1 c=64 v=63
160444 On ch=1 n=c#5 v=0
160446 On ch=1 n=a#4 v=0
160484 Par ch=1 c=64 v=0
160624 On ch=1 n=e6 v=60
160642 On ch=1 n=f6 v=0
160748 On ch=1 n=e6 v=0
160794 On ch=1 n=c#5 v=75
160800 On ch=1 n=a#4 v=57
160844 Par ch=1 c=64 v=63
160848 Par ch=1 c=64 v=127
161000 On ch=1 n=e6 v=78
161056 On ch=1 n=c#5 v=0
161066 On ch=1 n=a#4 v=0
161198 On ch=1 n=c#7 v=67
161210 On ch=1 n=e6 v=0
161260 Par ch=1 c=64 v=63
161312 Par ch=1 c=64 v=0
161356 On ch=1 n=c#7 v=0
161402 On ch=1 n=a#4 v=63
161404 Par ch=1 c=64 v=63
161424 On ch=1 n=c5 v=51
161436 Par ch=1 c=64 v=127
161646 On ch=1 n=c#7 v=67
161660 On ch=1 n=a#4 v=0
161698 On ch=1 n=c5 v=0
161810 On ch=1 n=c#7 v=0
161864 On ch=1 n=c7 v=63
161980 Par ch=1 c=64 v=63
162008 On ch=1 n=c7 v=0
162010 Par ch=1 c=64 v=0
162050 On ch=1 n=a#4 v=53
162064 Par ch=1 c=64 v=63
162068 On ch=1 n=c5 v=43
162108 Par ch=1 c=64 v=127
162248 On ch=1 n=c5 v=0
162284 On ch=1 n=a#4 v=0
162288 On ch=1 n=c7 v=65
162506 On ch=1 n=c7 v=0
162520 On ch=1 n=e6 v=57
162790 Par ch=1 c=64 v=63
162844 On ch=1 n=e6 v=0
162856 Par ch=1 c=64 v=0
162860 On ch=1 n=g#4 v=105
162862 On ch=1 n=g#3 v=106
163066 Par ch=1 c=64 v=63
163102 Par ch=1 c=64 v=127
163194 On ch=1 n=e6 v=101
163442 On ch=1 n=f6 v=113
163526 On ch=1 n=e6 v=0
163676 On ch=1 n=c7 v=104
163734 On ch=1 n=f6 v=0
163866 On ch=1 n=g6 v=93
163914 On ch=1 n=c7 v=0
164052 On ch=1 n=a#6 v=107
164104 On ch=1 n=g6 v=0
164180 Par ch=1 c=64 v=63
164244 Par ch=1 c=64 v=0
164258 Par ch=1 c=64 v=63
164260 On ch=1 n=g#6 v=107
164294 Par ch=1 c=64 v=127
164332 On ch=1 n=a#6 v=0
164448 On ch=1 n=e6 v=87
164484 On ch=1 n=g#6 v=0
164650 On ch=1 n=g6 v=88
164694 On ch=1 n=e6 v=0
164844 Par ch=1 c=64 v=63
164884 On ch=1 n=f6 v=79
164888 Par ch=1 c=64 v=0
164932 On ch=1 n=g6 v=0
164996 Par ch=1 c=64 v=63
165012 On ch=1 n=g#3 v=0
165020 Par ch=1 c=64 v=127
165100 On ch=1 n=g#4 v=0
165122 On ch=1 n=d#6 v=70
165182 On ch=1 n=f6 v=0
165376 On ch=1 n=c#6 v=66
165430 On ch=1 n=d#6 v=0
165578 On ch=1 n=c#6 v=0
165652 On ch=1 n=d5 v=60
165722 On ch=1 n=c6 v=77
165750 Par ch=1 c=64 v=63
165776 Par ch=1 c=64 v=0
165874 Par ch=1 c=64 v=63
165904 Par ch=1 c=64 v=127
165986 On ch=1 n=e5 v=63
166156 On ch=1 n=f5 v=78
166208 On ch=1 n=e5 v=0
166296 On ch=1 n=f5 v=0
166316 On ch=1 n=c6 v=0
166366 On ch=1 n=b5 v=91
166390 On ch=1 n=g#5 v=76
166470 On ch=1 n=g#5 v=0
166542 On ch=1 n=d5 v=0
166568 On ch=1 n=e5 v=89
166624 On ch=1 n=b5 v=0
166746 On ch=1 n=f5 v=94
166766 On ch=1 n=e5 v=0
166814 On ch=1 n=f5 v=0
166990 On ch=1 n=g#5 v=74
167004 Par ch=1 c=64 v=63
167010 On ch=1 n=c#5 v=92
167036 Par ch=1 c=64 v=0
167046 On ch=1 n=f6 v=88
167132 Par ch=1 c=64 v=63
167150 Par ch=1 c=64 v=127
167322 On ch=1 n=e5 v=50
167326 On ch=1 n=g#5 v=0
167480 On ch=1 n=f6 v=0
167480 On ch=1 n=f5 v=76
167586 On ch=1 n=e5 v=0
167696 On ch=1 n=b5 v=80
167712 On ch=1 n=f5 v=0
167718 On ch=1 n=g#5 v=50
167930 On ch=1 n=g#5 v=0
167946 On ch=1 n=g5 v=50
167988 On ch=1 n=b5 v=0
168034 On ch=1 n=c#5 v=0
168186 On ch=1 n=f5 v=74
168228 On ch=1 n=g5 v=0
168264 On ch=1 n=f5 v=0
168548 On ch=1 n=c5 v=78
168564 On ch=1 n=c4 v=57
168602 Par ch=1 c=64 v=63
168624 Par ch=1 c=64 v=0
168734 Par ch=1 c=64 v=63
168748 Par ch=1 c=64 v=127
168822 On ch=1 n=c6 v=84
168834 On ch=1 n=g5 v=56
168836 On ch=1 n=c5 v=0
168838 On ch=1 n=c4 v=0
168840 On ch=1 n=e5 v=43
168898 On ch=1 n=g5 v=0
168906 On ch=1 n=e5 v=0
168934 On ch=1 n=c6 v=0
169070 On ch=1 n=d6 v=75
169072 On ch=1 n=b5 v=72
169076 Par ch=1 c=64 v=63
169078 On ch=1 n=f5 v=72
169092 Par ch=1 c=64 v=0
169130 On ch=1 n=f5 v=0
169130 On ch=1 n=d6 v=0
169132 On ch=1 n=b5 v=0
169280 On ch=1 n=c5 v=83
169282 Par ch=1 c=64 v=63
169288 Par ch=1 c=64 v=127
169288 On ch=1 n=c4 v=78
169386 On ch=1 n=c5 v=0
169410 On ch=1 n=c4 v=0
169470 On ch=1 n=d6 v=93
169486 On ch=1 n=b5 v=79
169488 On ch=1 n=f5 v=71
169538 On ch=1 n=f5 v=0
169568 On ch=1 n=d6 v=0
169576 On ch=1 n=b5 v=0
169668 On ch=1 n=e6 v=100
169678 On ch=1 n=g5 v=79
169682 Par ch=1 c=64 v=63
169684 On ch=1 n=a#5 v=88
169694 Par ch=1 c=64 v=0
169722 On ch=1 n=a#5 v=0
169726 On ch=1 n=g5 v=0
169732 On ch=1 n=e6 v=0
169864 On ch=1 n=c5 v=104
169872 On ch=1 n=c4 v=100
169894 Par ch=1 c=64 v=63
169896 Par ch=1 c=64 v=127
170062 On ch=1 n=e6 v=101
170068 On ch=1 n=g5 v=91
170068 On ch=1 n=a#5 v=99
170118 On ch=1 n=c4 v=0
170128 On ch=1 n=g5 v=0
170142 On ch=1 n=a#5 v=0
170146 On ch=1 n=e6 v=0
170156 On ch=1 n=c5 v=0
170178 Par ch=1 c=64 v=63
170188 Par ch=1 c=64 v=0
170256 On ch=1 n=f6 v=109
170258 On ch=1 n=a5 v=101
170264 On ch=1 n=c6 v=98
170302 On ch=1 n=c6 v=0
170312 On ch=1 n=a5 v=0
170332 On ch=1 n=f6 v=0
170442 On ch=1 n=c5 v=117
170444 On ch=1 n=c4 v=108
170462 Par ch=1 c=64 v=63
170464 Par ch=1 c=64 v=127
170644 On ch=1 n=f#6 v=113
170648 On ch=1 n=c6 v=104
170650 On ch=1 n=a5 v=96
170722 On ch=1 n=c5 v=0
170724 On ch=1 n=a5 v=0
170728 On ch=1 n=c6 v=0
170728 On ch=1 n=c4 v=0
170790 On ch=1 n=f#6 v=0
170790 Par ch=1 c=64 v=63
170802 Par ch=1 c=64 v=0
170838 On ch=1 n=g6 v=102
170846 On ch=1 n=a#5 v=108
170854 On ch=1 n=e6 v=85
170890 On ch=1 n=e6 v=0
170914 On ch=1 n=a#5 v=0
170934 On ch=1 n=g6 v=0
171022 On ch=1 n=c4 v=92
171034 On ch=1 n=c5 v=114
171084 Par ch=1 c=64 v=63
171086 Par ch=1 c=64 v=127
171218 On ch=1 n=g6 v=101
171220 On ch=1 n=a#5 v=112
171220 On ch=1 n=e6 v=97
171268 On ch=1 n=c4 v=0
171274 On ch=1 n=c5 v=0
171294 On ch=1 n=a#5 v=0
171324 On ch=1 n=e6 v=0
171328 On ch=1 n=g6 v=0
171350 Par ch=1 c=64 v=63
171358 Par ch=1 c=64 v=0
171414 On ch=1 n=a6 v=114
171416 On ch=1 n=f6 v=111
171426 On ch=1 n=c6 v=102
171458 On ch=1 n=c6 v=0
171476 On ch=1 n=f6 v=0
171490 On ch=1 n=a6 v=0
171584 On ch=1 n=c4 v=92
171592 On ch=1 n=c5 v=125
171610 Par ch=1 c=64 v=63
171612 Par ch=1 c=64 v=127
171776 On ch=1 n=a6 v=121
171778 On ch=1 n=f#6 v=114
171780 On ch=1 n=c6 v=122
171784 On ch=1 n=c5 v=0
171842 On ch=1 n=c6 v=0
171848 On ch=1 n=c4 v=0
171850 On ch=1 n=f#6 v=0
171882 On ch=1 n=a6 v=0
171980 On ch=1 n=a#6 v=115
171982 On ch=1 n=e6 v=112
171984 On ch=1 n=g6 v=104
172082 Par ch=1 c=64 v=63
172094 Par ch=1 c=64 v=0
172102 On ch=1 n=e6 v=0
172122 On ch=1 n=g6 v=0
172138 On ch=1 n=a#6 v=0
172206 On ch=1 n=c3 v=127
172212 On ch=1 n=a#6 v=125
172214 On ch=1 n=g6 v=120
172216 On ch=1 n=e6 v=120
172246 Par ch=1 c=64 v=63
172250 Par ch=1 c=64 v=127
172382 On ch=1 n=c3 v=0
172420 On ch=1 n=e3 v=97
172424 Par ch=1 c=64 v=63
172432 Par ch=1 c=64 v=0
172518 On ch=1 n=e3 v=0
172606 On ch=1 n=g3 v=103
172678 On ch=1 n=g3 v=0
172772 On ch=1 n=c4 v=111
172864 On ch=1 n=c4 v=0
172954 On ch=1 n=e4 v=117
173018 On ch=1 n=g6 v=0
173030 On ch=1 n=e4 v=0
173138 On ch=1 n=g4 v=111
173152 On ch=1 n=e6 v=0
173212 On ch=1 n=g4 v=0
173320 On ch=1 n=c5 v=125
173346 Par ch=1 c=64 v=127
173382 On ch=1 n=c5 v=0
173424 On ch=1 n=a#6 v=0
173474 On ch=1 n=c7 v=93
173592 On ch=1 n=d7 v=79
173594 On ch=1 n=c7 v=0
173670 On ch=1 n=c7 v=83
173702 On ch=1 n=d7 v=0
173772 On ch=1 n=a#6 v=98
173786 On ch=1 n=c7 v=0
173852 On ch=1 n=a6 v=70
173872 On ch=1 n=a#6 v=0
173938 On ch=1 n=g6 v=88
173950 On ch=1 n=a6 v=0
174026 On ch=1 n=a6 v=96
174044 On ch=1 n=g6 v=0
174104 On ch=1 n=a#6 v=105
174124 On ch=1 n=a6 v=0
174188 On ch=1 n=a6 v=88
174208 On ch=1 n=a#6 v=0
174276 On ch=1 n=g6 v=90
174280 On ch=1 n=a6 v=0
174352 Par ch=1 c=64 v=63
174354 Par ch=1 c=64 v=127
174372 On ch=1 n=g6 v=0
174376 On ch=1 n=f6 v=73
174448 On ch=1 n=e6 v=84
174470 Par ch=1 c=64 v=63
174474 On ch=1 n=f6 v=0
174480 Par ch=1 c=64 v=0
174532 On ch=1 n=f6 v=82
174540 On ch=1 n=e6 v=0
174616 On ch=1 n=g6 v=88
174634 On ch=1 n=f6 v=0
174690 On ch=1 n=f6 v=86
174736 On ch=1 n=g6 v=0
174782 On ch=1 n=e6 v=91
174812 On ch=1 n=f6 v=0
174864 On ch=1 n=e6 v=0
174866 On ch=1 n=d6 v=90
174946 On ch=1 n=c6 v=93
174960 On ch=1 n=d6 v=0
175030 On ch=1 n=c#6 v=86
175046 On ch=1 n=c6 v=0
175128 On ch=1 n=d6 v=86
175136 On ch=1 n=c#6 v=0
175206 On ch=1 n=c6 v=96
175256 On ch=1 n=d6 v=0
175298 On ch=1 n=a#5 v=97
175324 On ch=1 n=c6 v=0
175364 On ch=1 n=a5 v=89
175410 On ch=1 n=a#5 v=0
175452 On ch=1 n=a5 v=0
175454 On ch=1 n=g5 v=89
175534 On ch=1 n=a5 v=87
175554 On ch=1 n=g5 v=0
175618 On ch=1 n=a#5 v=90
175638 On ch=1 n=a5 v=0
175712 On ch=1 n=a5 v=86
175714 On ch=1 n=a#5 v=0
175790 On ch=1 n=g5 v=89
175802 On ch=1 n=a5 v=0
175878 On ch=1 n=g5 v=0
175884 On ch=1 n=f5 v=87
175954 On ch=1 n=e5 v=97
175968 On ch=1 n=f5 v=0
176020 On ch=1 n=f5 v=90
176038 On ch=1 n=e5 v=0
176114 On ch=1 n=g5 v=89
176128 On ch=1 n=f5 v=0
176186 On ch=1 n=f5 v=84
176232 On ch=1 n=g5 v=0
176270 On ch=1 n=e5 v=99
176310 On ch=1 n=f5 v=0
176358 On ch=1 n=e5 v=0
176362 On ch=1 n=d5 v=89
176438 On ch=1 n=c5 v=98
176448 On ch=1 n=d5 v=0
176520 On ch=1 n=c#5 v=104
176534 On ch=1 n=c5 v=0
176618 On ch=1 n=d5 v=87
176620 On ch=1 n=c#5 v=0
176698 On ch=1 n=c5 v=96
176744 On ch=1 n=d5 v=0
176786 On ch=1 n=a#4 v=92
176802 On ch=1 n=c5 v=0
176856 On ch=1 n=a4 v=82
176886 On ch=1 n=a#4 v=0
176942 On ch=1 n=a4 v=0
176952 On ch=1 n=g4 v=89
177026 On ch=1 n=a4 v=79
177042 On ch=1 n=g4 v=0
177104 On ch=1 n=a#4 v=105
177118 On ch=1 n=a4 v=0
177202 On ch=1 n=a4 v=88
177212 On ch=1 n=a#4 v=0
177280 On ch=1 n=g4 v=84
177288 On ch=1 n=a4 v=0
177368 On ch=1 n=f4 v=87
177370 On ch=1 n=g4 v=0
177442 On ch=1 n=e4 v=101
177466 On ch=1 n=f4 v=0
177526 On ch=1 n=f4 v=94
177542 On ch=1 n=e4 v=0
177618 On ch=1 n=g4 v=83
177630 On ch=1 n=f4 v=0
177696 On ch=1 n=f4 v=86
177742 On ch=1 n=g4 v=0
177774 On ch=1 n=e4 v=101
177810 On ch=1 n=f4 v=0
177860 On ch=1 n=d4 v=80
177866 On ch=1 n=e4 v=0
177942 On ch=1 n=d4 v=0
177962 On ch=1 n=c4 v=96
178024 Par ch=1 c=64 v=127
178060 On ch=1 n=c4 v=0
178060 On ch=1 n=d4 v=93
178128 On ch=1 n=c4 v=94
178164 On ch=1 n=d4 v=0
178218 On ch=1 n=a#3 v=98
178252 On ch=1 n=c4 v=0
178328 On ch=1 n=a3 v=94
178342 On ch=1 n=a#3 v=0
178442 On ch=1 n=g3 v=93
178456 On ch=1 n=a3 v=0
178520 Par ch=1 c=64 v=63
178526 Par ch=1 c=64 v=0
178548 On ch=1 n=g3 v=0
178670 On ch=1 n=a3 v=120
178674 On ch=1 n=c4 v=126
178676 On ch=1 n=f4 v=124
178680 On ch=1 n=f3 v=116
178706 Par ch=1 c=64 v=127
178880 On ch=1 n=c7 v=112
179010 On ch=1 n=b6 v=109
179056 On ch=1 n=c7 v=0
179126 On ch=1 n=c7 v=99
179130 On ch=1 n=b6 v=0
179190 On ch=1 n=f7 v=101
179222 On ch=1 n=c7 v=0
179274 On ch=1 n=c7 v=86
179290 On ch=1 n=f7 v=0
179374 On ch=1 n=a#6 v=112
179394 On ch=1 n=c7 v=0
179450 On ch=1 n=a#6 v=0
179464 On ch=1 n=a6 v=91
179526 On ch=1 n=g#6 v=108
179548 On ch=1 n=a6 v=0
179618 On ch=1 n=a6 v=92
179630 On ch=1 n=g#6 v=0
179692 On ch=1 n=c7 v=99
179718 On ch=1 n=a6 v=0
179766 On ch=1 n=a6 v=97
179798 On ch=1 n=c7 v=0
179854 On ch=1 n=g6 v=92
179866 On ch=1 n=a6 v=0
179924 On ch=1 n=g6 v=0
179924 On ch=1 n=f6 v=99
180014 On ch=1 n=e6 v=103
180016 On ch=1 n=f6 v=0
180084 On ch=1 n=f6 v=100
180110 On ch=1 n=e6 v=0
180170 On ch=1 n=a6 v=104
180194 On ch=1 n=f6 v=0
180198 Par ch=1 c=64 v=63
180220 Par ch=1 c=64 v=0
180250 On ch=1 n=f6 v=84
180272 On ch=1 n=a6 v=0
180302 Par ch=1 c=64 v=63
180326 Par ch=1 c=64 v=127
180336 On ch=1 n=d6 v=94
180348 On ch=1 n=f6 v=0
180410 On ch=1 n=d6 v=0
180420 On ch=1 n=c6 v=92
180462 Par ch=1 c=64 v=63
180506 On ch=1 n=b5 v=94
180510 On ch=1 n=c6 v=0
180512 Par ch=1 c=64 v=0
180540 Par ch=1 c=64 v=63
180576 On ch=1 n=c6 v=87
180590 Par ch=1 c=64 v=127
180594 On ch=1 n=b5 v=0
180658 On ch=1 n=f6 v=94
180664 On ch=1 n=f3 v=0
180664 On ch=1 n=a3 v=0
180674 On ch=1 n=c4 v=0
180678 On ch=1 n=c6 v=0
180678 On ch=1 n=f4 v=0
180682 Par ch=1 c=64 v=63
180698 Par ch=1 c=64 v=0
180738 On ch=1 n=c6 v=84
180752 On ch=1 n=f6 v=0
180832 On ch=1 n=a#5 v=103
180834 On ch=1 n=c6 v=0
180900 On ch=1 n=a#5 v=0
180908 On ch=1 n=a5 v=83
180980 On ch=1 n=g#5 v=105
181004 On ch=1 n=a5 v=0
181068 On ch=1 n=a5 v=82
181076 On ch=1 n=g#5 v=0
181174 On ch=1 n=a5 v=0
181180 On ch=1 n=c6 v=87
181236 On ch=1 n=a5 v=88
181284 On ch=1 n=c6 v=0
181326 On ch=1 n=a5 v=0
181326 On ch=1 n=f5 v=98
181350 On ch=1 n=a4 v=109
181396 On ch=1 n=f5 v=0
181432 On ch=1 n=a4 v=0
181446 On ch=1 n=f6 v=89
181496 On ch=1 n=f6 v=0
181498 On ch=1 n=e5 v=89
181520 On ch=1 n=g4 v=99
181570 On ch=1 n=e5 v=0
181592 On ch=1 n=g4 v=0
181618 On ch=1 n=f6 v=71
181664 On ch=1 n=f5 v=75
181668 On ch=1 n=f6 v=0
181680 On ch=1 n=a4 v=108
181736 On ch=1 n=f5 v=0
181762 On ch=1 n=a4 v=0
181764 On ch=1 n=f6 v=99
181830 On ch=1 n=g5 v=85
181840 On ch=1 n=f6 v=0
181850 On ch=1 n=a#4 v=104
181906 On ch=1 n=g5 v=0
181924 On ch=1 n=f6 v=97
181932 On ch=1 n=a#4 v=0
181976 On ch=1 n=f6 v=0
182002 On ch=1 n=f5 v=92
182022 On ch=1 n=a4 v=106
182070 On ch=1 n=f5 v=0
182090 On ch=1 n=f6 v=102
182092 On ch=1 n=a4 v=0
182172 On ch=1 n=f6 v=0
182176 On ch=1 n=g5 v=90
182194 On ch=1 n=a#4 v=108
182248 On ch=1 n=g5 v=0
182264 On ch=1 n=f6 v=103
182272 On ch=1 n=a#4 v=0
182354 On ch=1 n=a5 v=86
182356 On ch=1 n=f6 v=0
182370 On ch=1 n=c5 v=111
182420 On ch=1 n=f6 v=88
182426 On ch=1 n=a5 v=0
182454 On ch=1 n=c5 v=0
182520 On ch=1 n=f6 v=0
182532 On ch=1 n=g5 v=94
182554 On ch=1 n=a#4 v=114
182608 On ch=1 n=g5 v=0
182618 On ch=1 n=f6 v=103
182632 On ch=1 n=a#4 v=0
182714 On ch=1 n=c5 v=112
182714 On ch=1 n=a5 v=97
182724 On ch=1 n=f6 v=0
182798 On ch=1 n=a5 v=0
182802 On ch=1 n=f6 v=98
182804 On ch=1 n=c5 v=0
182906 On ch=1 n=f6 v=0
182934 On ch=1 n=c#5 v=125
182934 On ch=1 n=a#5 v=115
182974 Par ch=1 c=64 v=127
182994 On ch=1 n=c#5 v=0
183016 On ch=1 n=a#5 v=0
183034 On ch=1 n=f6 v=68
183130 On ch=1 n=a#5 v=77
183156 On ch=1 n=f6 v=0
183222 On ch=1 n=f6 v=80
183240 On ch=1 n=a#5 v=0
183324 Par ch=1 c=64 v=63
183324 On ch=1 n=c5 v=112
183326 On ch=1 n=a5 v=92
183328 Par ch=1 c=64 v=0
183344 On ch=1 n=f6 v=0
183396 On ch=1 n=c5 v=0
183410 On ch=1 n=a5 v=0
183416 On ch=1 n=f6 v=84
183522 On ch=1 n=c#5 v=125
183524 On ch=1 n=a#5 v=109
183530 On ch=1 n=f6 v=0
183550 Par ch=1 c=64 v=63
183552 Par ch=1 c=64 v=127
183580 On ch=1 n=c#5 v=0
183612 On ch=1 n=a#5 v=0
183612 On ch=1 n=f6 v=91
183694 On ch=1 n=a#5 v=89
183716 On ch=1 n=f6 v=0
183788 On ch=1 n=a#5 v=0
183788 On ch=1 n=f6 v=85
183872 Par ch=1 c=64 v=63
183884 On ch=1 n=a5 v=90
183892 Par ch=1 c=64 v=0
183892 On ch=1 n=c5 v=103
183906 On ch=1 n=f6 v=0
183968 On ch=1 n=c5 v=0
183970 On ch=1 n=a5 v=0
183972 On ch=1 n=f6 v=76
184070 On ch=1 n=g#5 v=101
184076 On ch=1 n=b4 v=111
184094 On ch=1 n=f6 v=0
184136 On ch=1 n=b4 v=0
184144 On ch=1 n=g#5 v=0
184156 On ch=1 n=f6 v=84
184248 On ch=1 n=g#5 v=100
184252 On ch=1 n=b4 v=94
184258 On ch=1 n=f6 v=0
184320 On ch=1 n=b4 v=0
184324 On ch=1 n=g#5 v=0
184346 On ch=1 n=f6 v=89
184418 On ch=1 n=g#5 v=94
184436 On ch=1 n=b4 v=98
184440 On ch=1 n=f6 v=0
184502 On ch=1 n=g#5 v=0
184506 On ch=1 n=f6 v=89
184522 On ch=1 n=b4 v=0
184632 On ch=1 n=f6 v=0
184638 Par ch=1 c=64 v=63
184646 On ch=1 n=g5 v=99
184648 On ch=1 n=e6 v=103
184650 On ch=1 n=c5 v=120
184654 Par ch=1 c=64 v=127
184710 On ch=1 n=g5 v=0
184714 On ch=1 n=c5 v=0
184738 On ch=1 n=e6 v=0
184818 Par ch=1 c=64 v=63
184830 Par ch=1 c=64 v=0
185278 On ch=1 n=f3 v=98
185288 On ch=1 n=a3 v=99
185290 On ch=1 n=c4 v=124
185296 On ch=1 n=f4 v=126
185330 Par ch=1 c=64 v=127
185464 On ch=1 n=c7 v=112
185558 On ch=1 n=b6 v=109
185584 On ch=1 n=c7 v=0
185664 On ch=1 n=c7 v=99
185672 On ch=1 n=b6 v=0
185720 On ch=1 n=f7 v=99
185726 On ch=1 n=c4 v=0
185726 On ch=1 n=a3 v=0
185732 On ch=1 n=f3 v=0
185748 On ch=1 n=c7 v=0
185750 On ch=1 n=f4 v=0
185798 On ch=1 n=c7 v=79
185820 On ch=1 n=f7 v=0
185888 On ch=1 n=a#6 v=109
185900 On ch=1 n=c7 v=0
185970 On ch=1 n=a#6 v=0
185982 On ch=1 n=a6 v=88
186052 On ch=1 n=g#6 v=108
186078 On ch=1 n=a6 v=0
186136 On ch=1 n=a6 v=96
186154 On ch=1 n=g#6 v=0
186226 On ch=1 n=c7 v=99
186248 On ch=1 n=a6 v=0
186308 On ch=1 n=a6 v=85
186354 On ch=1 n=c7 v=0
186386 On ch=1 n=g6 v=92
186398 Par ch=1 c=64 v=63
186408 On ch=1 n=a6 v=0
186410 Par ch=1 c=64 v=0
186468 On ch=1 n=g6 v=0
186474 On ch=1 n=f6 v=97
186564 On ch=1 n=f6 v=0
186566 On ch=1 n=e6 v=106
186650 On ch=1 n=f6 v=106
186672 On ch=1 n=e6 v=0
186740 On ch=1 n=a6 v=99
186754 On ch=1 n=f6 v=0
186804 On ch=1 n=f6 v=89
186834 On ch=1 n=a6 v=0
186898 On ch=1 n=d6 v=94
186900 On ch=1 n=f6 v=0
186968 On ch=1 n=d6 v=0
186976 On ch=1 n=c6 v=90
187058 On ch=1 n=c6 v=0
187060 On ch=1 n=b5 v=97
187132 On ch=1 n=c6 v=86
187150 On ch=1 n=b5 v=0
187216 On ch=1 n=f6 v=92
187232 On ch=1 n=c6 v=0
187292 On ch=1 n=c6 v=82
187310 On ch=1 n=f6 v=0
187400 On ch=1 n=a#5 v=98
187408 On ch=1 n=c6 v=0
187466 On ch=1 n=a#5 v=0
187480 On ch=1 n=a5 v=81
187560 On ch=1 n=g#5 v=105
187580 On ch=1 n=a5 v=0
187658 On ch=1 n=a5 v=83
187660 On ch=1 n=g#5 v=0
187742 On ch=1 n=c6 v=98
187754 On ch=1 n=a5 v=0
187822 On ch=1 n=a5 v=76
187866 On ch=1 n=c6 v=0
187876 Par ch=1 c=64 v=63
187906 On ch=1 n=a5 v=0
187916 On ch=1 n=f5 v=88
187934 On ch=1 n=a4 v=107
187970 On ch=1 n=f5 v=0
187978 Par ch=1 c=64 v=0
188010 On ch=1 n=f6 v=76
188014 On ch=1 n=a4 v=0
188056 On ch=1 n=f6 v=0
188088 On ch=1 n=e5 v=69
188104 On ch=1 n=g4 v=98
188146 On ch=1 n=e5 v=0
188176 On ch=1 n=g4 v=0
188194 On ch=1 n=f6 v=80
188248 On ch=1 n=f6 v=0
188266 On ch=1 n=a4 v=104
188268 On ch=1 n=f5 v=63
188324 On ch=1 n=f5 v=0
188342 On ch=1 n=a4 v=0
188354 On ch=1 n=f6 v=99
188422 On ch=1 n=g5 v=87
188432 On ch=1 n=f6 v=0
188436 On ch=1 n=a#4 v=103
188498 On ch=1 n=g5 v=0
188508 On ch=1 n=f6 v=94
188516 On ch=1 n=a#4 v=0
188584 On ch=1 n=f6 v=0
188594 On ch=1 n=f5 v=96
188596 On ch=1 n=a4 v=112
188666 On ch=1 n=f5 v=0
188686 On ch=1 n=a4 v=0
188690 On ch=1 n=f6 v=103
188770 On ch=1 n=a#4 v=114
188782 On ch=1 n=f6 v=0
188782 On ch=1 n=g5 v=93
188860 On ch=1 n=g5 v=0
188862 On ch=1 n=a#4 v=0
188864 On ch=1 n=f6 v=102
188960 On ch=1 n=f6 v=0
188964 On ch=1 n=a5 v=100
188970 On ch=1 n=c5 v=117
189034 On ch=1 n=f6 v=99
189036 On ch=1 n=a5 v=0
189062 On ch=1 n=c5 v=0
189132 On ch=1 n=f6 v=0
189140 On ch=1 n=g5 v=98
189156 On ch=1 n=a#4 v=113
189214 On ch=1 n=g5 v=0
189218 On ch=1 n=f6 v=99
189248 On ch=1 n=a#4 v=0
189320 On ch=1 n=c5 v=114
189322 On ch=1 n=f6 v=0
189322 On ch=1 n=a5 v=97
189402 On ch=1 n=a5 v=0
189414 On ch=1 n=c5 v=0
189416 On ch=1 n=f6 v=91
189486 Par ch=1 c=64 v=63
189496 Par ch=1 c=64 v=127
189516 On ch=1 n=f6 v=0
189516 On ch=1 n=c#5 v=125
189530 On ch=1 n=a#5 v=115
189576 On ch=1 n=c#5 v=0
189630 On ch=1 n=f6 v=85
189632 On ch=1 n=a#5 v=0
189718 On ch=1 n=a#5 v=96
189748 On ch=1 n=f6 v=0
189822 On ch=1 n=f6 v=77
189832 On ch=1 n=a#5 v=0
189900 On ch=1 n=c5 v=111
189906 Par ch=1 c=64 v=63
189910 On ch=1 n=a5 v=94
189926 Par ch=1 c=64 v=0
189936 On ch=1 n=f6 v=0
189978 On ch=1 n=c5 v=0
189998 On ch=1 n=a5 v=0
190002 On ch=1 n=f6 v=78
190052 Par ch=1 c=64 v=63
190066 Par ch=1 c=64 v=127
190080 On ch=1 n=c#5 v=124
190098 On ch=1 n=a#5 v=115
190102 On ch=1 n=f6 v=0
190144 On ch=1 n=c#5 v=0
190190 On ch=1 n=f6 v=107
190200 On ch=1 n=a#5 v=0
190272 On ch=1 n=a#5 v=87
190308 On ch=1 n=f6 v=0
190366 On ch=1 n=f6 v=86
190382 On ch=1 n=a#5 v=0
190446 On ch=1 n=c5 v=101
190456 Par ch=1 c=64 v=63
190464 On ch=1 n=a5 v=91
190488 Par ch=1 c=64 v=0
190490 On ch=1 n=f6 v=0
190530 On ch=1 n=c5 v=0
190554 On ch=1 n=f6 v=84
190556 On ch=1 n=a5 v=0
190604 Par ch=1 c=64 v=63
190620 Par ch=1 c=64 v=127
190650 On ch=1 n=b4 v=118
190654 On ch=1 n=f6 v=0
190658 On ch=1 n=g#5 v=109
190708 On ch=1 n=b4 v=0
190730 On ch=1 n=g#5 v=0
190758 On ch=1 n=f6 v=101
190778 Par ch=1 c=64 v=63
190800 Par ch=1 c=64 v=0
190852 On ch=1 n=f6 v=0
191282 On ch=1 n=g5 v=68
191282 On ch=1 n=a#4 v=89
191378 On ch=1 n=a#4 v=0
191384 On ch=1 n=e6 v=76
191388 On ch=1 n=g5 v=0
191492 On ch=1 n=e6 v=0
191866 Par ch=1 c=64 v=63
191876 On ch=1 n=f#5 v=80
191876 On ch=1 n=a4 v=84
191892 Par ch=1 c=64 v=127
191928 On ch=1 n=a4 v=0
191976 On ch=1 n=f#5 v=0
191982 On ch=1 n=d#6 v=87
192108 On ch=1 n=d#6 v=0
192114 Par ch=1 c=64 v=63
192162 Par ch=1 c=64 v=0
192592 On ch=1 n=a#3 v=92
192606 Par ch=1 c=64 v=63
192624 Par ch=1 c=64 v=127
192696 On ch=1 n=a#4 v=98
192726 On ch=1 n=a#3 v=0
192780 On ch=1 n=a#4 v=0
192782 On ch=1 n=d5 v=85
192874 On ch=1 n=g5 v=92
192880 Par ch=1 c=64 v=63
192898 On ch=1 n=d5 v=0
192952 Par ch=1 c=64 v=0
192954 On ch=1 n=a#5 v=110
193006 On ch=1 n=g5 v=0
193032 On ch=1 n=d6 v=100
193078 On ch=1 n=a#5 v=0
193132 On ch=1 n=g4 v=97
193136 On ch=1 n=a#4 v=110
193136 On ch=1 n=c4 v=85
193150 On ch=1 n=c6 v=101
193166 Par ch=1 c=64 v=63
193194 Par ch=1 c=64 v=127
193208 On ch=1 n=d6 v=0
193236 On ch=1 n=a#5 v=105
193288 On ch=1 n=c6 v=0
193322 On ch=1 n=a5 v=97
193362 On ch=1 n=a#5 v=0
193420 On ch=1 n=g5 v=83
193422 On ch=1 n=a5 v=0
193440 Par ch=1 c=64 v=63
193500 On ch=1 n=g5 v=0
193502 On ch=1 n=f5 v=102
193504 Par ch=1 c=64 v=0
193518 On ch=1 n=c4 v=0
193530 On ch=1 n=a#4 v=0
193558 On ch=1 n=g4 v=0
193590 On ch=1 n=e5 v=96
193606 On ch=1 n=f5 v=0
193694 On ch=1 n=f5 v=108
193698 On ch=1 n=e5 v=0
193708 On ch=1 n=a4 v=89
193710 On ch=1 n=f4 v=91
193724 Par ch=1 c=64 v=63
193744 Par ch=1 c=64 v=127
193838 Par ch=1 c=64 v=63
193888 Par ch=1 c=64 v=0
193904 On ch=1 n=a4 v=0
193906 On ch=1 n=f4 v=0
193918 On ch=1 n=f5 v=0
193938 On ch=1 n=c5 v=80
194028 Par ch=1 c=64 v=63
194030 On ch=1 n=c5 v=0
194056 Par ch=1 c=64 v=127
194178 On ch=1 n=c5 v=62
194364 On ch=1 n=c5 v=0
194426 Par ch=1 c=64 v=63
194436 On ch=1 n=c4 v=57
194454 Par ch=1 c=64 v=0
194482 Par ch=1 c=64 v=63
194508 On ch=1 n=e5 v=62
194516 Par ch=1 c=64 v=127
194612 On ch=1 n=a#5 v=72
194648 On ch=1 n=c4 v=0
194650 On ch=1 n=e5 v=0
194894 On ch=1 n=c5 v=60
194896 On ch=1 n=a#4 v=46
194974 On ch=1 n=a#4 v=0
194986 On ch=1 n=c5 v=0
195122 On ch=1 n=a#4 v=63
195124 On ch=1 n=c5 v=57
195180 On ch=1 n=a#5 v=0
195190 On ch=1 n=a#4 v=0
195196 On ch=1 n=c5 v=0
195310 On ch=1 n=a#4 v=73
195320 On ch=1 n=c5 v=59
195380 On ch=1 n=c5 v=0
195388 On ch=1 n=a#4 v=0
195472 On ch=1 n=a5 v=89
195522 On ch=1 n=c5 v=32
195538 On ch=1 n=a#4 v=25
195550 Par ch=1 c=64 v=63
195554 On ch=1 n=a5 v=0
195576 On ch=1 n=a#4 v=0
195576 On ch=1 n=c5 v=0
195624 Par ch=1 c=64 v=0
195676 On ch=1 n=g5 v=96
195696 On ch=1 n=a#4 v=67
195698 On ch=1 n=c5 v=54
195774 On ch=1 n=c5 v=0
195790 On ch=1 n=a#4 v=0
195794 On ch=1 n=g5 v=0
195866 On ch=1 n=g5 v=73
195878 Par ch=1 c=64 v=63
195882 On ch=1 n=f4 v=66
195900 Par ch=1 c=64 v=127
196086 On ch=1 n=f5 v=71
196092 Par ch=1 c=64 v=63
196104 On ch=1 n=a4 v=51
196108 On ch=1 n=c5 v=50
196114 On ch=1 n=f4 v=0
196142 Par ch=1 c=64 v=0
196156 On ch=1 n=g5 v=0
196158 Par ch=1 c=64 v=63
196182 On ch=1 n=c5 v=0
196182 On ch=1 n=a4 v=0
196216 Par ch=1 c=64 v=127
196286 On ch=1 n=c5 v=63
196298 On ch=1 n=f5 v=0
196300 On ch=1 n=a4 v=50
196366 On ch=1 n=a4 v=0
196372 On ch=1 n=c5 v=0
196452 Par ch=1 c=64 v=63
196480 On ch=1 n=f5 v=85
196482 On ch=1 n=c5 v=58
196482 On ch=1 n=a4 v=57
196554 On ch=1 n=c5 v=0
196558 On ch=1 n=a4 v=0
196558 Par ch=1 c=64 v=127
196644 On ch=1 n=f5 v=0
196692 On ch=1 n=c5 v=59
196700 On ch=1 n=a4 v=54
196756 On ch=1 n=c5 v=0
196764 On ch=1 n=a4 v=0
196874 On ch=1 n=c5 v=73
196878 On ch=1 n=a4 v=57
196934 On ch=1 n=a4 v=0
197018 On ch=1 n=c5 v=0
197036 On ch=1 n=e5 v=65
197066 Par ch=1 c=64 v=63
197078 On ch=1 n=c4 v=65
197098 Par ch=1 c=64 v=0
197112 On ch=1 n=a#5 v=90
197172 Par ch=1 c=64 v=63
197186 On ch=1 n=e5 v=0
197206 Par ch=1 c=64 v=127
197344 On ch=1 n=c5 v=41
197356 On ch=1 n=c4 v=0
197356 On ch=1 n=g4 v=50
197412 On ch=1 n=c5 v=0
197416 On ch=1 n=g4 v=0
197518 On ch=1 n=c5 v=59
197536 On ch=1 n=g4 v=54
197584 On ch=1 n=c5 v=0
197596 On ch=1 n=g4 v=0
197712 On ch=1 n=c5 v=80
197724 On ch=1 n=g4 v=60
197766 On ch=1 n=c5 v=0
197776 On ch=1 n=g4 v=0
197796 Par ch=1 c=64 v=63
197838 On ch=1 n=a#5 v=0
197838 Par ch=1 c=64 v=0
197894 On ch=1 n=a5 v=86
197912 On ch=1 n=c5 v=57
197920 On ch=1 n=g4 v=57
197958 On ch=1 n=c5 v=0
197968 On ch=1 n=g4 v=0
197982 On ch=1 n=a5 v=0
198076 On ch=1 n=g4 v=74
198078 On ch=1 n=g5 v=99
198088 On ch=1 n=c5 v=68
198140 On ch=1 n=c5 v=0
198140 On ch=1 n=g4 v=0
198150 On ch=1 n=g5 v=0
198246 Par ch=1 c=64 v=63
198266 On ch=1 n=f4 v=82
198284 Par ch=1 c=64 v=127
198300 On ch=1 n=b5 v=104
198450 On ch=1 n=f4 v=0
198502 On ch=1 n=c5 v=66
198514 On ch=1 n=a4 v=55
198580 On ch=1 n=a4 v=0
198580 On ch=1 n=c5 v=0
198624 On ch=1 n=b5 v=0
198682 On ch=1 n=c5 v=66
198684 On ch=1 n=a4 v=68
198762 On ch=1 n=a4 v=0
198766 On ch=1 n=c5 v=0
198884 On ch=1 n=c6 v=89
198884 On ch=1 n=c5 v=62
198896 On ch=1 n=a4 v=54
198952 On ch=1 n=c5 v=0
198960 Par ch=1 c=64 v=63
198966 On ch=1 n=a4 v=0
199076 On ch=1 n=c5 v=76
199090 Par ch=1 c=64 v=127
199100 On ch=1 n=a4 v=60
199170 On ch=1 n=a4 v=0
199170 On ch=1 n=c5 v=0
199210 On ch=1 n=c6 v=0
199268 On ch=1 n=c5 v=76
199280 On ch=1 n=a4 v=65
199338 On ch=1 n=a4 v=0
199410 Par ch=1 c=64 v=63
199424 On ch=1 n=e5 v=84
199428 Par ch=1 c=64 v=0
199450 On ch=1 n=c4 v=84
199452 On ch=1 n=c5 v=0
199512 Par ch=1 c=64 v=63
199512 On ch=1 n=a#5 v=106
199536 Par ch=1 c=64 v=127
199616 On ch=1 n=c4 v=0
199618 On ch=1 n=e5 v=0
199730 On ch=1 n=c5 v=68
199734 On ch=1 n=a#4 v=82
199790 On ch=1 n=a#4 v=0
199798 On ch=1 n=c5 v=0
199910 On ch=1 n=c5 v=80
199914 On ch=1 n=a#4 v=82
199978 On ch=1 n=a#4 v=0
199988 On ch=1 n=c5 v=0
200048 Par ch=1 c=64 v=63
200092 On ch=1 n=a#4 v=86
200094 Par ch=1 c=64 v=0
200100 On ch=1 n=c5 v=69
200158 On ch=1 n=c5 v=0
200164 On ch=1 n=a#4 v=0
200208 On ch=1 n=a#5 v=0
200270 On ch=1 n=a5 v=76
200288 On ch=1 n=a#4 v=80
200298 On ch=1 n=c5 v=55
200342 On ch=1 n=a5 v=0
200350 On ch=1 n=c5 v=0
200358 On ch=1 n=a#4 v=0
200468 On ch=1 n=g5 v=86
200482 On ch=1 n=c5 v=52
200482 On ch=1 n=a#4 v=70
200550 On ch=1 n=g5 v=0
200552 On ch=1 n=c5 v=0
200562 On ch=1 n=a#4 v=0
200646 Par ch=1 c=64 v=63
200670 On ch=1 n=f4 v=58
200676 Par ch=1 c=64 v=127
200682 On ch=1 n=f5 v=84
200778 On ch=1 n=f4 v=0
200832 On ch=1 n=f5 v=0
200858 On ch=1 n=c5 v=72
200864 On ch=1 n=a4 v=67
200918 On ch=1 n=c5 v=0
200934 On ch=1 n=a4 v=0
200936 Par ch=1 c=64 v=63
200968 Par ch=1 c=64 v=0
201040 On ch=1 n=a5 v=91
201058 Par ch=1 c=64 v=63
201072 On ch=1 n=a4 v=56
201074 On ch=1 n=c5 v=58
201092 Par ch=1 c=64 v=127
201142 On ch=1 n=c5 v=0
201166 On ch=1 n=a4 v=0
201270 On ch=1 n=c5 v=82
201272 On ch=1 n=a4 v=77
201312 On ch=1 n=a5 v=0
201364 On ch=1 n=c5 v=0
201374 On ch=1 n=a4 v=0
201452 On ch=1 n=a4 v=84
201452 On ch=1 n=c5 v=80
201558 On ch=1 n=c5 v=0
201560 On ch=1 n=a4 v=0
201648 On ch=1 n=c6 v=113
201656 On ch=1 n=a4 v=78
201676 On ch=1 n=c5 v=68
201714 On ch=1 n=a4 v=0
201784 On ch=1 n=c5 v=0
201862 On ch=1 n=c4 v=90
201950 Par ch=1 c=64 v=63
201974 Par ch=1 c=64 v=0
202040 On ch=1 n=c5 v=88
202046 Par ch=1 c=64 v=63
202050 On ch=1 n=g4 v=77
202072 Par ch=1 c=64 v=127
202138 On ch=1 n=c5 v=0
202156 On ch=1 n=g4 v=0
202236 On ch=1 n=a#5 v=114
202252 On ch=1 n=c5 v=71
202256 On ch=1 n=g4 v=72
202282 On ch=1 n=c4 v=0
202308 On ch=1 n=c6 v=0
202318 On ch=1 n=g4 v=0
202342 On ch=1 n=c5 v=0
202416 On ch=1 n=c5 v=82
202420 On ch=1 n=a#4 v=97
202494 On ch=1 n=a#4 v=0
202500 On ch=1 n=c5 v=0
202502 Par ch=1 c=64 v=63
202578 Par ch=1 c=64 v=127
202612 On ch=1 n=c5 v=84
202618 On ch=1 n=a#4 v=86
202692 On ch=1 n=a#4 v=0
202698 On ch=1 n=c5 v=0
202792 On ch=1 n=a#4 v=72
202796 On ch=1 n=g5 v=97
202802 On ch=1 n=c5 v=66
202826 On ch=1 n=a#5 v=0
202838 Par ch=1 c=64 v=63
202862 Par ch=1 c=64 v=0
202880 On ch=1 n=c5 v=0
202894 On ch=1 n=a#4 v=0
203012 On ch=1 n=g5 v=0
203012 On ch=1 n=f5 v=91
203016 On ch=1 n=c5 v=73
203022 On ch=1 n=a4 v=57
203024 Par ch=1 c=64 v=63
203036 Par ch=1 c=64 v=127
203042 On ch=1 n=f4 v=46
203228 On ch=1 n=f5 v=0
203236 On ch=1 n=a4 v=0
203242 On ch=1 n=c5 v=0
203254 On ch=1 n=f4 v=0
203256 Par ch=1 c=64 v=63
203270 Par ch=1 c=64 v=0
203662 On ch=1 n=d#4 v=110
203664 On ch=1 n=c#5 v=121
203668 On ch=1 n=g4 v=101
203674 Par ch=1 c=64 v=127
203682 On ch=1 n=c#6 v=121
203686 On ch=1 n=c#7 v=123
203726 On ch=1 n=c#5 v=0
203734 On ch=1 n=c#6 v=0
203744 On ch=1 n=d#4 v=0
203748 On ch=1 n=c#7 v=0
203750 On ch=1 n=g4 v=0
204340 On ch=1 n=f#4 v=118
204344 On ch=1 n=d5 v=125
204344 On ch=1 n=d4 v=111
204348 On ch=1 n=d7 v=114
204352 On ch=1 n=d6 v=113
204406 Par ch=1 c=64 v=63
204414 Par ch=1 c=64 v=0
204494 Par ch=1 c=64 v=63
204504 Par ch=1 c=64 v=127
204760 On ch=1 n=d7 v=0
204846 On ch=1 n=d6 v=0
205046 On ch=1 n=d5 v=0
205048 On ch=1 n=f#4 v=0
205052 On ch=1 n=d4 v=0
205070 On ch=1 n=c7 v=121
205080 On ch=1 n=d6 v=107
205112 On ch=1 n=d6 v=0
205130 On ch=1 n=c7 v=0
205738 On ch=1 n=d4 v=108
205740 On ch=1 n=d5 v=121
205744 On ch=1 n=a#6 v=123
205746 On ch=1 n=d6 v=112
205788 Par ch=1 c=64 v=63
205796 Par ch=1 c=64 v=0
205884 Par ch=1 c=64 v=63
205896 Par ch=1 c=64 v=127
206102 On ch=1 n=a#6 v=0
206106 On ch=1 n=d5 v=0
206114 On ch=1 n=d4 v=0
206144 On ch=1 n=d6 v=0
206418 On ch=1 n=a6 v=121
206422 On ch=1 n=d6 v=116
206422 On ch=1 n=c4 v=112
206422 On ch=1 n=c5 v=122
206470 Par ch=1 c=64 v=63
206490 Par ch=1 c=64 v=0
206526 Par ch=1 c=64 v=63
206560 Par ch=1 c=64 v=127
206682 On ch=1 n=c5 v=0
206734 On ch=1 n=c4 v=0
206748 On ch=1 n=d6 v=0
206768 On ch=1 n=a6 v=0
207084 On ch=1 n=a#4 v=121
207084 On ch=1 n=a#3 v=110
207088 On ch=1 n=g6 v=118
207094 On ch=1 n=d6 v=108
207098 Par ch=1 c=64 v=63
207112 Par ch=1 c=64 v=0
207150 Par ch=1 c=64 v=63
207170 Par ch=1 c=64 v=127
207394 On ch=1 n=a#4 v=0
207414 On ch=1 n=g6 v=0
207422 On ch=1 n=a#3 v=0
207452 On ch=1 n=d6 v=0
207760 On ch=1 n=a3 v=99
207764 On ch=1 n=a4 v=113
207768 On ch=1 n=f#6 v=121
207774 On ch=1 n=c6 v=106
207778 On ch=1 n=d6 v=106
207788 Par ch=1 c=64 v=63
207796 Par ch=1 c=64 v=0
207894 Par ch=1 c=64 v=63
207904 Par ch=1 c=64 v=127
208034 On ch=1 n=a3 v=0
208096 On ch=1 n=c6 v=0
208108 On ch=1 n=d6 v=0
208112 On ch=1 n=a4 v=0
208120 On ch=1 n=f#6 v=0
208430 On ch=1 n=g4 v=94
208442 On ch=1 n=g6 v=108
208464 Par ch=1 c=64 v=63
208526 Par ch=1 c=64 v=127
208570 On ch=1 n=d6 v=78
208620 On ch=1 n=g6 v=0
208676 On ch=1 n=a#4 v=70
208684 On ch=1 n=d6 v=0
208688 On ch=1 n=a#5 v=91
208758 On ch=1 n=d6 v=78
208770 On ch=1 n=a#5 v=0
208784 On ch=1 n=g4 v=0
208848 On ch=1 n=g6 v=99
208864 On ch=1 n=d5 v=79
208866 On ch=1 n=a#4 v=0
208870 On ch=1 n=d6 v=0
208922 On ch=1 n=d6 v=92
208954 On ch=1 n=g6 v=0
209002 On ch=1 n=f#4 v=100
209006 On ch=1 n=a6 v=111
209008 On ch=1 n=d6 v=0
209022 Par ch=1 c=64 v=63
209024 On ch=1 n=d5 v=0
209084 Par ch=1 c=64 v=127
209096 On ch=1 n=d6 v=103
209156 On ch=1 n=a6 v=0
209194 On ch=1 n=c6 v=92
209204 On ch=1 n=d6 v=0
209204 On ch=1 n=a4 v=71
209270 On ch=1 n=d6 v=80
209306 On ch=1 n=c6 v=0
209352 On ch=1 n=f#4 v=0
209364 On ch=1 n=a6 v=106
209376 On ch=1 n=d6 v=0
209382 On ch=1 n=a4 v=0
209392 On ch=1 n=d5 v=83
209434 On ch=1 n=d6 v=86
209476 On ch=1 n=a6 v=0
209518 On ch=1 n=d6 v=0
209532 On ch=1 n=d5 v=0
209568 On ch=1 n=g4 v=114
209568 On ch=1 n=a#6 v=95
209614 Par ch=1 c=64 v=63
209656 On ch=1 n=g6 v=84
209660 Par ch=1 c=64 v=127
209708 On ch=1 n=a#6 v=0
209768 On ch=1 n=g6 v=0
209784 On ch=1 n=d6 v=84
209788 On ch=1 n=a#4 v=84
209854 On ch=1 n=d6 v=0
209856 On ch=1 n=g6 v=92
209940 On ch=1 n=a#6 v=110
209962 On ch=1 n=a#4 v=0
209962 On ch=1 n=g4 v=0
209964 On ch=1 n=g6 v=0
209972 On ch=1 n=d5 v=77
210022 On ch=1 n=g6 v=87
210042 On ch=1 n=a#6 v=0
210094 On ch=1 n=d5 v=0
210118 On ch=1 n=b6 v=109
210122 On ch=1 n=g6 v=0
210130 On ch=1 n=f4 v=107
210132 Par ch=1 c=64 v=63
210198 Par ch=1 c=64 v=127
210208 On ch=1 n=g6 v=101
210268 On ch=1 n=b6 v=0
210300 On ch=1 n=b4 v=82
210304 On ch=1 n=d6 v=84
210314 On ch=1 n=g6 v=0
210388 On ch=1 n=g6 v=94
210404 On ch=1 n=d6 v=0
210470 On ch=1 n=b6 v=102
210470 On ch=1 n=d5 v=85
210500 On ch=1 n=b4 v=0
210502 On ch=1 n=g6 v=0
210548 On ch=1 n=f4 v=0
210562 On ch=1 n=g6 v=93
210614 On ch=1 n=b6 v=0
210672 On ch=1 n=g6 v=0
210676 Par ch=1 c=64 v=63
210686 Par ch=1 c=64 v=0
210698 On ch=1 n=d5 v=0
210708 On ch=1 n=c7 v=120
210710 On ch=1 n=e4 v=118
210756 Par ch=1 c=64 v=63
210774 Par ch=1 c=64 v=127
210856 On ch=1 n=e4 v=0
211228 On ch=1 n=c7 v=0
211234 On ch=1 n=d7 v=88
211324 On ch=1 n=c7 v=94
211348 On ch=1 n=d7 v=0
211396 On ch=1 n=a#6 v=110
211412 Par ch=1 c=64 v=63
211450 Par ch=1 c=64 v=0
211458 On ch=1 n=c7 v=0
211852 On ch=1 n=a#6 v=0
211888 On ch=1 n=c7 v=91
211974 On ch=1 n=a#6 v=104
212020 On ch=1 n=c7 v=0
212042 On ch=1 n=a6 v=104
212056 On ch=1 n=c6 v=96
212104 Par ch=1 c=64 v=63
212108 On ch=1 n=a#6 v=0
212138 Par ch=1 c=64 v=127
212502 On ch=1 n=a6 v=0
212508 Par ch=1 c=64 v=63
212514 On ch=1 n=a#6 v=92
212560 On ch=1 n=c6 v=0
212574 Par ch=1 c=64 v=0
212598 On ch=1 n=a6 v=92
212660 On ch=1 n=a#6 v=0
212686 On ch=1 n=g6 v=99
212698 Par ch=1 c=64 v=63
212708 On ch=1 n=a#5 v=85
212712 On ch=1 n=c6 v=82
212736 Par ch=1 c=64 v=127
212762 On ch=1 n=a6 v=0
213034 On ch=1 n=g6 v=0
213110 On ch=1 n=a#5 v=0
213130 On ch=1 n=c6 v=0
213198 On ch=1 n=a6 v=85
213270 On ch=1 n=g6 v=89
213336 On ch=1 n=a5 v=60
213336 On ch=1 n=c6 v=49
213338 On ch=1 n=a6 v=0
213356 Par ch=1 c=64 v=63
213360 On ch=1 n=f6 v=99
213384 Par ch=1 c=64 v=0
213434 On ch=1 n=g6 v=0
213480 Par ch=1 c=64 v=63
213518 Par ch=1 c=64 v=127
213694 On ch=1 n=f6 v=0
213730 On ch=1 n=c6 v=0
213736 On ch=1 n=a5 v=0
213842 On ch=1 n=g6 v=74
213918 On ch=1 n=f6 v=86
213982 On ch=1 n=g6 v=0
214006 Par ch=1 c=64 v=63
214016 On ch=1 n=a#5 v=58
214020 On ch=1 n=e6 v=84
214022 On ch=1 n=c6 v=43
214030 On ch=1 n=g5 v=50
214070 On ch=1 n=f6 v=0
214132 Par ch=1 c=64 v=127
214304 On ch=1 n=e6 v=0
214366 On ch=1 n=c6 v=0
214388 On ch=1 n=g5 v=0
214406 On ch=1 n=a#5 v=0
214532 On ch=1 n=f6 v=81
214644 On ch=1 n=e6 v=66
214658 On ch=1 n=f6 v=0
214702 Par ch=1 c=64 v=63
214732 On ch=1 n=f5 v=54
214760 On ch=1 n=e6 v=0
214762 On ch=1 n=g6 v=71
214818 Par ch=1 c=64 v=127
214874 On ch=1 n=f6 v=68
214910 On ch=1 n=g6 v=0
214948 On ch=1 n=f6 v=0
214964 On ch=1 n=a5 v=62
214966 On ch=1 n=e6 v=78
215010 On ch=1 n=f5 v=0
215046 On ch=1 n=e6 v=0
215064 On ch=1 n=f6 v=89
215158 On ch=1 n=a5 v=0
215160 On ch=1 n=f6 v=0
215160 On ch=1 n=e6 v=82
215172 On ch=1 n=c6 v=65
215224 On ch=1 n=f6 v=85
215248 On ch=1 n=e6 v=0
215312 On ch=1 n=a6 v=92
215326 On ch=1 n=f6 v=0
215332 Par ch=1 c=64 v=63
215344 On ch=1 n=e5 v=72
215352 On ch=1 n=c6 v=0
215396 On ch=1 n=g6 v=85
215418 On ch=1 n=a6 v=0
215432 Par ch=1 c=64 v=127
215480 On ch=1 n=f#6 v=99
215498 On ch=1 n=g6 v=0
215542 On ch=1 n=g5 v=74
215572 On ch=1 n=g6 v=87
215578 On ch=1 n=f#6 v=0
215594 On ch=1 n=e5 v=0
215670 On ch=1 n=f#6 v=74
215680 On ch=1 n=g6 v=0
215722 On ch=1 n=g5 v=0
215724 On ch=1 n=c6 v=66
215746 On ch=1 n=g6 v=86
215770 On ch=1 n=f#6 v=0
215786 On ch=1 n=c6 v=0
215856 Par ch=1 c=64 v=63
215860 On ch=1 n=a6 v=86
215868 On ch=1 n=g6 v=0
215874 On ch=1 n=c6 v=75
215880 On ch=1 n=a5 v=70
215900 On ch=1 n=f5 v=68
215936 On ch=1 n=g6 v=73
215976 Par ch=1 c=64 v=127
215982 On ch=1 n=a6 v=0
216036 On ch=1 n=g6 v=0
216042 On ch=1 n=f6 v=85
216130 On ch=1 n=f6 v=0
216138 On ch=1 n=g6 v=87
216174 On ch=1 n=c6 v=0
216198 On ch=1 n=a5 v=0
216222 On ch=1 n=a6 v=80
216248 On ch=1 n=g6 v=0
216302 On ch=1 n=a#6 v=97
216338 On ch=1 n=a6 v=0
216346 On ch=1 n=f5 v=0
216414 On ch=1 n=a#6 v=0
216416 On ch=1 n=c7 v=84
216484 On ch=1 n=a#6 v=82
216542 On ch=1 n=c7 v=0
216586 On ch=1 n=a#6 v=0
216604 On ch=1 n=a6 v=89
216696 On ch=1 n=a6 v=0
216698 On ch=1 n=a#6 v=90
216708 Par ch=1 c=64 v=63
216764 On ch=1 n=c7 v=87
216770 Par ch=1 c=64 v=0
216794 On ch=1 n=a#6 v=0
216868 On ch=1 n=c#7 v=78
216886 On ch=1 n=c7 v=0
216946 On ch=1 n=d7 v=92
216956 On ch=1 n=a#3 v=84
216960 On ch=1 n=c#7 v=0
217016 On ch=1 n=d7 v=0
217044 On ch=1 n=a#3 v=0
217052 On ch=1 n=d6 v=68
217110 On ch=1 n=d6 v=0
217148 On ch=1 n=a#4 v=94
217150 On ch=1 n=d7 v=99
217226 On ch=1 n=a#4 v=0
217254 On ch=1 n=c7 v=90
217282 On ch=1 n=d7 v=0
217336 On ch=1 n=a#6 v=96
217356 On ch=1 n=c7 v=0
217426 On ch=1 n=a6 v=84
217428 On ch=1 n=a#6 v=0
217498 On ch=1 n=e4 v=93
217508 On ch=1 n=g6 v=88
217512 On ch=1 n=a6 v=0
217578 On ch=1 n=e4 v=0
217594 On ch=1 n=g6 v=0
217612 On ch=1 n=f#6 v=100
217668 On ch=1 n=e5 v=93
217694 On ch=1 n=f#6 v=0
217700 On ch=1 n=g6 v=92
217736 On ch=1 n=e5 v=0
217780 On ch=1 n=a6 v=97
217798 On ch=1 n=g6 v=0
217844 On ch=1 n=a6 v=0
217878 On ch=1 n=a#6 v=107
217998 On ch=1 n=b6 v=106
218000 On ch=1 n=a#6 v=0
218058 On ch=1 n=a3 v=104
218070 On ch=1 n=c7 v=103
218102 On ch=1 n=b6 v=0
218150 On ch=1 n=a3 v=0
218160 On ch=1 n=c7 v=0
218172 On ch=1 n=c6 v=99
218244 On ch=1 n=c6 v=0
218262 On ch=1 n=a4 v=84
218266 On ch=1 n=c7 v=104
218328 On ch=1 n=a4 v=0
218356 On ch=1 n=a#6 v=98
218418 On ch=1 n=c7 v=0
218438 On ch=1 n=a6 v=94
218496 On ch=1 n=a#6 v=0
218542 On ch=1 n=g6 v=88
218558 On ch=1 n=a6 v=0
218618 On ch=1 n=f6 v=89
218624 On ch=1 n=g6 v=0
218634 On ch=1 n=d4 v=111
218708 On ch=1 n=f6 v=0
218714 On ch=1 n=e6 v=94
218716 On ch=1 n=d4 v=0
218802 On ch=1 n=e6 v=0
218816 On ch=1 n=d5 v=103
218820 On ch=1 n=f6 v=92
218882 On ch=1 n=d5 v=0
218910 On ch=1 n=g6 v=92
218912 On ch=1 n=f6 v=0
218998 On ch=1 n=g#6 v=99
219004 On ch=1 n=g6 v=0
219094 On ch=1 n=a6 v=88
219104 On ch=1 n=g#6 v=0
219176 On ch=1 n=g3 v=113
219192 On ch=1 n=a6 v=0
219210 On ch=1 n=a#6 v=105
219254 On ch=1 n=g3 v=0
219314 On ch=1 n=c7 v=99
219322 On ch=1 n=a#6 v=0
219380 On ch=1 n=a3 v=79
219388 On ch=1 n=g3 v=77
219396 On ch=1 n=a#6 v=84
219426 On ch=1 n=a3 v=0
219430 On ch=1 n=g3 v=0
219446 On ch=1 n=c7 v=0
219482 On ch=1 n=a6 v=97
219536 On ch=1 n=a#6 v=0
219536 On ch=1 n=a#3 v=106
219558 On ch=1 n=g6 v=75
219570 On ch=1 n=a6 v=0
219612 On ch=1 n=a#3 v=0
219644 On ch=1 n=g6 v=0
219646 On ch=1 n=f6 v=99
219736 On ch=1 n=c4 v=113
219760 On ch=1 n=e6 v=94
219766 On ch=1 n=f6 v=0
219818 On ch=1 n=c4 v=0
219840 On ch=1 n=f6 v=85
219860 On ch=1 n=e6 v=0
219916 On ch=1 n=d4 v=107
219938 On ch=1 n=e6 v=86
219974 On ch=1 n=f6 v=0
220004 On ch=1 n=d4 v=0
220010 On ch=1 n=d6 v=79
220018 On ch=1 n=e6 v=0
220066 On ch=1 n=d6 v=0
220088 On ch=1 n=e4 v=117
220094 On ch=1 n=c6 v=87
220162 On ch=1 n=e4 v=0
220182 On ch=1 n=a#5 v=100
220196 On ch=1 n=c6 v=0
220214 Par ch=1 c=64 v=63
220276 On ch=1 n=a#5 v=0
220278 On ch=1 n=a5 v=87
220278 On ch=1 n=f4 v=106
220300 On ch=1 n=e4 v=70
220304 Par ch=1 c=64 v=0
220344 On ch=1 n=e4 v=0
220358 On ch=1 n=f4 v=0
220368 On ch=1 n=a5 v=0
220374 On ch=1 n=c6 v=97
220464 On ch=1 n=f6 v=101
220478 On ch=1 n=c6 v=0
220552 On ch=1 n=g6 v=96
220572 On ch=1 n=f6 v=0
220632 On ch=1 n=a3 v=101
220650 On ch=1 n=f6 v=85
220708 On ch=1 n=a3 v=0
220710 On ch=1 n=g6 v=0
220740 On ch=1 n=e6 v=89
220782 On ch=1 n=f6 v=0
220818 On ch=1 n=a#3 v=121
220820 On ch=1 n=d6 v=94
220844 On ch=1 n=e6 v=0
220888 On ch=1 n=a#3 v=0
220910 On ch=1 n=d6 v=0
220910 On ch=1 n=c6 v=85
221004 On ch=1 n=c6 v=0
221004 On ch=1 n=a#5 v=100
221104 On ch=1 n=a5 v=85
221138 On ch=1 n=a#5 v=0
221174 On ch=1 n=b3 v=100
221184 On ch=1 n=g5 v=77
221204 On ch=1 n=a5 v=0
221264 On ch=1 n=b3 v=0
221270 On ch=1 n=f5 v=76
221272 On ch=1 n=g5 v=0
221352 On ch=1 n=f5 v=0
221368 On ch=1 n=c4 v=108
221386 On ch=1 n=e5 v=83
221474 On ch=1 n=f5 v=76
221488 On ch=1 n=e5 v=0
221508 On ch=1 n=c4 v=0
221558 On ch=1 n=g5 v=72
221562 On ch=1 n=f5 v=0
221644 On ch=1 n=f5 v=56
221684 On ch=1 n=g5 v=0
221728 On ch=1 n=e5 v=65
221776 On ch=1 n=f5 v=0
221830 On ch=1 n=d5 v=76
221852 On ch=1 n=e5 v=0
221914 On ch=1 n=c5 v=79
221924 On ch=1 n=d5 v=0
221994 On ch=1 n=c5 v=0
222026 On ch=1 n=d5 v=82
222100 On ch=1 n=d5 v=0
222126 On ch=1 n=c5 v=84
222218 On ch=1 n=a#4 v=83
222232 On ch=1 n=c5 v=0
222320 On ch=1 n=a4 v=80
222344 On ch=1 n=a#4 v=0
222430 On ch=1 n=g4 v=77
222464 On ch=1 n=a4 v=0
222582 On ch=1 n=g4 v=0
222594 On ch=1 n=f4 v=66
222678 On ch=1 n=g#5 v=63
222834 Par ch=1 c=64 v=63
222898 Par ch=1 c=64 v=127
222966 On ch=1 n=g#4 v=62
223158 On ch=1 n=f4 v=0
223172 On ch=1 n=c5 v=49
223232 On ch=1 n=g#4 v=0
223346 On ch=1 n=c5 v=0
223358 On ch=1 n=f4 v=63
223392 On ch=1 n=g#5 v=0
223548 On ch=1 n=g#4 v=65
223550 On ch=1 n=g5 v=75
223656 On ch=1 n=g5 v=0
223746 On ch=1 n=f4 v=0
223750 On ch=1 n=f5 v=82
223752 On ch=1 n=c5 v=54
223822 On ch=1 n=g#4 v=0
223910 On ch=1 n=f5 v=0
223962 On ch=1 n=b5 v=89
223974 On ch=1 n=e4 v=58
223992 On ch=1 n=c5 v=0
224194 On ch=1 n=g4 v=61
224214 Par ch=1 c=64 v=63
224374 On ch=1 n=c6 v=83
224378 On ch=1 n=c5 v=61
224406 On ch=1 n=e4 v=0
224408 Par ch=1 c=64 v=127
224444 On ch=1 n=b5 v=0
224586 On ch=1 n=g5 v=69
224610 On ch=1 n=e4 v=57
224634 Par ch=1 c=64 v=63
224642 On ch=1 n=c6 v=0
224652 On ch=1 n=g4 v=0
224658 On ch=1 n=c5 v=0
224694 Par ch=1 c=64 v=0
224742 Par ch=1 c=64 v=63
224802 Par ch=1 c=64 v=127
224818 On ch=1 n=g4 v=52
224906 On ch=1 n=g5 v=0
224994 On ch=1 n=c5 v=67
225012 On ch=1 n=e4 v=0
225222 On ch=1 n=e4 v=50
225258 On ch=1 n=g4 v=0
225288 On ch=1 n=c#6 v=83
225346 On ch=1 n=c5 v=0
225358 Par ch=1 c=64 v=63
225506 Par ch=1 c=64 v=127
225546 On ch=1 n=g4 v=63
225714 On ch=1 n=e4 v=0
225732 On ch=1 n=a#4 v=81
225824 On ch=1 n=g4 v=0
225840 On ch=1 n=c#6 v=0
225914 On ch=1 n=e4 v=78
225946 On ch=1 n=a#4 v=0
226096 On ch=1 n=g4 v=70
226118 On ch=1 n=c6 v=96
226312 On ch=1 n=c5 v=59
226314 On ch=1 n=a#5 v=104
226322 On ch=1 n=c6 v=0
226324 On ch=1 n=g4 v=0
226346 On ch=1 n=e4 v=0
226474 On ch=1 n=a#5 v=0
226502 On ch=1 n=g#5 v=100
226512 On ch=1 n=c5 v=0
226514 On ch=1 n=f4 v=66
226522 Par ch=1 c=64 v=63
226652 Par ch=1 c=64 v=127
226676 On ch=1 n=g#4 v=81
226690 On ch=1 n=g#5 v=0
226768 On ch=1 n=a#5 v=78
226804 On ch=1 n=g#5 v=83
226824 On ch=1 n=a#5 v=0
226858 On ch=1 n=c5 v=57
226866 On ch=1 n=g5 v=70
226880 On ch=1 n=g#5 v=0
226900 On ch=1 n=f4 v=0
226940 On ch=1 n=g#5 v=84
226952 On ch=1 n=g#4 v=0
226972 Par ch=1 c=64 v=63
226984 On ch=1 n=g5 v=0
227020 On ch=1 n=a#5 v=88
227032 Par ch=1 c=64 v=0
227084 On ch=1 n=g#5 v=0
227098 On ch=1 n=f4 v=50
227110 On ch=1 n=c6 v=84
227118 On ch=1 n=c5 v=0
227156 On ch=1 n=a#5 v=0
227208 Par ch=1 c=64 v=63
227248 Par ch=1 c=64 v=127
227324 On ch=1 n=g#4 v=60
227402 On ch=1 n=c6 v=0
227474 On ch=1 n=f4 v=0
227514 On ch=1 n=c5 v=71
227516 On ch=1 n=g#4 v=0
227702 On ch=1 n=g#4 v=77
227710 On ch=1 n=c5 v=0
227788 Par ch=1 c=64 v=63
227792 On ch=1 n=f6 v=98
227856 Par ch=1 c=64 v=0
227916 Par ch=1 c=64 v=63
227968 Par ch=1 c=64 v=127
228028 On ch=1 n=c5 v=51
228190 On ch=1 n=f5 v=79
228248 On ch=1 n=g#4 v=0
228380 On ch=1 n=d#6 v=105
228380 On ch=1 n=g4 v=59
228394 On ch=1 n=f5 v=0
228434 On ch=1 n=c5 v=0
228438 On ch=1 n=f6 v=0
228508 Par ch=1 c=64 v=63
228536 Par ch=1 c=64 v=127
228586 On ch=1 n=a#4 v=86
228662 On ch=1 n=g4 v=0
228780 On ch=1 n=d#5 v=64
228782 On ch=1 n=f6 v=104
228794 On ch=1 n=a#4 v=0
228854 On ch=1 n=d#6 v=0
228936 On ch=1 n=d#5 v=0
229002 On ch=1 n=f4 v=56
229018 On ch=1 n=d#6 v=95
229074 Par ch=1 c=64 v=63
229158 On ch=1 n=f6 v=0
229176 Par ch=1 c=64 v=127
229256 On ch=1 n=g#4 v=65
229322 On ch=1 n=f4 v=0
229454 On ch=1 n=c#6 v=88
229462 On ch=1 n=g#4 v=0
229468 On ch=1 n=c#5 v=53
229504 On ch=1 n=d#6 v=0
229660 On ch=1 n=c6 v=80
229664 On ch=1 n=d#4 v=67
229686 Par ch=1 c=64 v=63
229702 On ch=1 n=c#6 v=0
229706 On ch=1 n=c#5 v=0
229724 Par ch=1 c=64 v=0
229780 Par ch=1 c=64 v=63
229810 Par ch=1 c=64 v=127
229858 On ch=1 n=g4 v=53
229972 On ch=1 n=c6 v=0
230068 On ch=1 n=c5 v=65
230090 On ch=1 n=g4 v=0
230106 On ch=1 n=d#4 v=0
230248 On ch=1 n=c5 v=0
230284 On ch=1 n=a#5 v=88
230286 On ch=1 n=c#4 v=71
230350 Par ch=1 c=64 v=63
230470 Par ch=1 c=64 v=127
230500 On ch=1 n=f4 v=65
230678 On ch=1 n=g#5 v=91
230684 On ch=1 n=a#4 v=68
230728 On ch=1 n=c#4 v=0
230746 On ch=1 n=a#5 v=0
230828 On ch=1 n=f4 v=0
230876 On ch=1 n=g5 v=84
230880 On ch=1 n=c#4 v=64
230924 On ch=1 n=g#5 v=0
230944 On ch=1 n=a#4 v=0
230988 Par ch=1 c=64 v=63
231060 On ch=1 n=f4 v=68
231126 Par ch=1 c=64 v=127
231262 On ch=1 n=b4 v=63
231268 On ch=1 n=f5 v=84
231274 On ch=1 n=g5 v=0
231294 On ch=1 n=c#4 v=0
231336 On ch=1 n=f4 v=0
231502 On ch=1 n=c4 v=47
231522 On ch=1 n=g#5 v=72
231536 On ch=1 n=b4 v=0
231554 On ch=1 n=f5 v=0
231590 Par ch=1 c=64 v=63
231724 Par ch=1 c=64 v=127
231732 On ch=1 n=f4 v=48
231918 On ch=1 n=c5 v=62
231948 On ch=1 n=c4 v=0
232142 On ch=1 n=g5 v=61
232154 On ch=1 n=c4 v=41
232158 On ch=1 n=c5 v=0
232194 On ch=1 n=g#5 v=0
232218 On ch=1 n=f4 v=0
232218 Par ch=1 c=64 v=63
232334 Par ch=1 c=64 v=127
232372 On ch=1 n=e4 v=57
232458 On ch=1 n=g5 v=0
232646 On ch=1 n=e4 v=0
232666 On ch=1 n=c5 v=34
232702 On ch=1 n=c4 v=0
232986 On ch=1 n=f4 v=47
232988 On ch=1 n=c5 v=0
233050 On ch=1 n=g#6 v=70
233058 On ch=1 n=g#5 v=49
233222 Par ch=1 c=64 v=63
233276 Par ch=1 c=64 v=127
233362 On ch=1 n=g#4 v=42
233544 On ch=1 n=f4 v=0
233546 On ch=1 n=g#6 v=0
233564 On ch=1 n=c5 v=54
233580 On ch=1 n=g#5 v=0
233712 On ch=1 n=g#4 v=0
233746 On ch=1 n=f4 v=68
233756 On ch=1 n=c5 v=0
233930 On ch=1 n=g6 v=89
233936 On ch=1 n=g5 v=76
233952 On ch=1 n=g#4 v=67
234022 On ch=1 n=g5 v=0
234026 On ch=1 n=g6 v=0
234126 On ch=1 n=f4 v=0
234150 On ch=1 n=f6 v=100
234154 On ch=1 n=c5 v=70
234158 On ch=1 n=f5 v=84
234204 On ch=1 n=f5 v=0
234228 On ch=1 n=g#4 v=0
234242 On ch=1 n=f6 v=0
234370 On ch=1 n=e4 v=88
234416 On ch=1 n=c5 v=0
234448 On ch=1 n=b6 v=94
234462 On ch=1 n=b5 v=61
234540 Par ch=1 c=64 v=63
234606 Par ch=1 c=64 v=127
234680 On ch=1 n=g4 v=61
234718 On ch=1 n=b5 v=0
234734 On ch=1 n=b6 v=0
234846 On ch=1 n=e4 v=0
234856 On ch=1 n=c5 v=68
234884 On ch=1 n=c6 v=85
234884 On ch=1 n=c7 v=100
234934 On ch=1 n=g4 v=0
234956 On ch=1 n=c6 v=0
234962 On ch=1 n=c7 v=0
235082 On ch=1 n=c5 v=0
235084 On ch=1 n=e4 v=81
235098 On ch=1 n=g6 v=101
235106 On ch=1 n=g5 v=89
235166 On ch=1 n=g5 v=0
235226 On ch=1 n=g6 v=0
235300 On ch=1 n=g4 v=76
235478 On ch=1 n=e4 v=0
235480 On ch=1 n=c5 v=101
235546 On ch=1 n=g4 v=0
235688 On ch=1 n=e4 v=88
235694 Par ch=1 c=64 v=63
235714 On ch=1 n=c#7 v=110
235724 On ch=1 n=c#6 v=103
235736 Par ch=1 c=64 v=0
235780 On ch=1 n=c5 v=0
235824 Par ch=1 c=64 v=63
235852 Par ch=1 c=64 v=127
235930 On ch=1 n=g4 v=79
236074 On ch=1 n=c#6 v=0
236082 On ch=1 n=c#7 v=0
236108 On ch=1 n=a#4 v=103
236130 On ch=1 n=e4 v=0
236188 On ch=1 n=g4 v=0
236286 On ch=1 n=a#4 v=0
236310 On ch=1 n=e4 v=104
236462 Par ch=1 c=64 v=63
236486 Par ch=1 c=64 v=127
236500 On ch=1 n=c7 v=107
236504 On ch=1 n=g4 v=90
236508 On ch=1 n=c6 v=94
236578 On ch=1 n=c7 v=0
236584 On ch=1 n=c6 v=0
236674 On ch=1 n=g4 v=0
236714 On ch=1 n=c5 v=92
236730 On ch=1 n=a#6 v=103
236730 On ch=1 n=a#5 v=104
236734 On ch=1 n=e4 v=0
236772 On ch=1 n=a#5 v=0
236774 On ch=1 n=a#6 v=0
236880 On ch=1 n=c5 v=0
236960 On ch=1 n=d#4 v=112
236980 On ch=1 n=a6 v=107
236984 On ch=1 n=a5 v=99
237000 Par ch=1 c=64 v=63
237014 Par ch=1 c=64 v=0
237084 Par ch=1 c=64 v=63
237102 Par ch=1 c=64 v=127
237158 On ch=1 n=a5 v=0
237200 On ch=1 n=a6 v=0
237240 On ch=1 n=f#4 v=109
237402 On ch=1 n=c7 v=102
237408 On ch=1 n=c6 v=84
237430 On ch=1 n=a4 v=94
237444 On ch=1 n=c7 v=0
237460 On ch=1 n=c6 v=0
237482 On ch=1 n=f#4 v=0
237504 On ch=1 n=d#4 v=0
237624 On ch=1 n=d4 v=96
237624 On ch=1 n=a#6 v=105
237626 On ch=1 n=a#5 v=106
237636 On ch=1 n=a4 v=0
237704 Par ch=1 c=64 v=63
237712 Par ch=1 c=64 v=0
237802 On ch=1 n=f4 v=92
237808 Par ch=1 c=64 v=63
237812 Par ch=1 c=64 v=127
237816 On ch=1 n=d4 v=0
237892 On ch=1 n=a#5 v=0
237910 On ch=1 n=a#6 v=0
237928 On ch=1 n=f4 v=0
238030 On ch=1 n=a#4 v=107
238122 On ch=1 n=a#4 v=0
238206 Par ch=1 c=64 v=63
238212 Par ch=1 c=64 v=0
238234 On ch=1 n=c#4 v=112
238238 On ch=1 n=b6 v=108
238240 On ch=1 n=b5 v=108
238328 Par ch=1 c=64 v=63
238332 Par ch=1 c=64 v=127
238498 On ch=1 n=f4 v=98
238522 On ch=1 n=b5 v=0
238566 On ch=1 n=b6 v=0
238578 On ch=1 n=c#4 v=0
238674 On ch=1 n=g#4 v=112
238756 On ch=1 n=f4 v=0
238804 On ch=1 n=g#4 v=0
238834 On ch=1 n=c7 v=112
238840 On ch=1 n=c6 v=108
238858 On ch=1 n=c4 v=92
238892 Par ch=1 c=64 v=63
238918 Par ch=1 c=64 v=0
238938 Par ch=1 c=64 v=63
238966 Par ch=1 c=64 v=127
239072 On ch=1 n=f4 v=86
239094 On ch=1 n=c4 v=0
239174 On ch=1 n=c6 v=0
239206 On ch=1 n=c7 v=0
239282 On ch=1 n=g#4 v=113
239302 On ch=1 n=f4 v=0
239484 On ch=1 n=a#3 v=101
239530 On ch=1 n=c#7 v=115
239530 On ch=1 n=c#6 v=119
239674 Par ch=1 c=64 v=63
239684 Par ch=1 c=64 v=0
239742 Par ch=1 c=64 v=63
239758 Par ch=1 c=64 v=127
239766 On ch=1 n=g#4 v=0
239832 On ch=1 n=e4 v=92
239946 On ch=1 n=c#6 v=0
239956 On ch=1 n=c#7 v=0
240036 On ch=1 n=g4 v=103
240112 On ch=1 n=a#3 v=0
240138 On ch=1 n=e4 v=0
240232 On ch=1 n=c6 v=109
240236 On ch=1 n=c7 v=111
240244 Par ch=1 c=64 v=63
240254 On ch=1 n=g#3 v=106
240256 Par ch=1 c=64 v=0
240288 Par ch=1 c=64 v=63
240300 On ch=1 n=g4 v=0
240306 Par ch=1 c=64 v=127
240430 On ch=1 n=c6 v=0
240474 On ch=1 n=c7 v=0
240478 On ch=1 n=c4 v=81
240528 On ch=1 n=g#3 v=0
240692 On ch=1 n=c4 v=0
240698 On ch=1 n=f4 v=82
240794 On ch=1 n=f4 v=0
240834 On ch=1 n=f7 v=97
240906 On ch=1 n=f7 v=0
241058 On ch=1 n=c4 v=84
241116 On ch=1 n=f6 v=80
241144 On ch=1 n=c6 v=73
241238 Par ch=1 c=64 v=63
241266 Par ch=1 c=64 v=0
241328 Par ch=1 c=64 v=63
241358 Par ch=1 c=64 v=127
241386 On ch=1 n=f4 v=68
241520 On ch=1 n=f6 v=0
241628 On ch=1 n=f4 v=0
241648 On ch=1 n=g#4 v=80
241688 On ch=1 n=c6 v=0
241690 On ch=1 n=c4 v=0
241694 On ch=1 n=g#4 v=0
241856 On ch=1 n=g#6 v=89
241882 On ch=1 n=e6 v=77
241926 On ch=1 n=c4 v=77
241928 On ch=1 n=g#6 v=0
241942 On ch=1 n=g6 v=89
241954 Par ch=1 c=64 v=63
241990 Par ch=1 c=64 v=0
242010 Par ch=1 c=64 v=63
242056 Par ch=1 c=64 v=127
242158 On ch=1 n=g4 v=63
242186 On ch=1 n=e6 v=0
242194 On ch=1 n=g6 v=0
242248 On ch=1 n=c4 v=0
242336 On ch=1 n=a#4 v=79
242384 On ch=1 n=g4 v=0
242422 On ch=1 n=a#4 v=0
242638 On ch=1 n=a4 v=91
242646 On ch=1 n=f4 v=90
242656 Par ch=1 c=64 v=63
242664 On ch=1 n=f6 v=109
242684 Par ch=1 c=64 v=0
242714 On ch=1 n=a4 v=0
242716 On ch=1 n=f4 v=0
242732 On ch=1 n=c6 v=83
242736 Par ch=1 c=64 v=63
242784 On ch=1 n=f6 v=0
242820 Par ch=1 c=64 v=0
242826 On ch=1 n=c6 v=0
242838 On ch=1 n=b5 v=72
242916 On ch=1 n=c6 v=84
242926 On ch=1 n=b5 v=0
243010 On ch=1 n=d6 v=84
243020 On ch=1 n=c6 v=0
243110 On ch=1 n=c6 v=78
243118 On ch=1 n=d6 v=0
243172 On ch=1 n=g4 v=78
243190 On ch=1 n=a#5 v=80
243200 On ch=1 n=c6 v=0
243234 On ch=1 n=g4 v=0
243256 On ch=1 n=a#5 v=0
243276 On ch=1 n=c6 v=68
243360 On ch=1 n=a#5 v=91
243370 On ch=1 n=c6 v=0
243402 On ch=1 n=e4 v=59
243432 On ch=1 n=a#5 v=0
243436 On ch=1 n=c6 v=69
243448 On ch=1 n=e4 v=0
243536 On ch=1 n=a#5 v=90
243554 On ch=1 n=c6 v=0
243556 On ch=1 n=c4 v=80
243616 On ch=1 n=a#5 v=0
243632 On ch=1 n=c6 v=53
243654 On ch=1 n=c4 v=0
243708 On ch=1 n=c6 v=0
243718 On ch=1 n=a5 v=79
243726 On ch=1 n=f4 v=84
243764 On ch=1 n=f4 v=0
243784 On ch=1 n=c6 v=54
243800 On ch=1 n=a5 v=0
243888 On ch=1 n=b5 v=76
243896 On ch=1 n=c6 v=0
243970 On ch=1 n=c6 v=65
243976 On ch=1 n=b5 v=0
244068 On ch=1 n=f6 v=93
244076 On ch=1 n=c6 v=0
244148 On ch=1 n=c6 v=76
244154 On ch=1 n=f6 v=0
244240 On ch=1 n=a#5 v=86
244248 On ch=1 n=g4 v=88
244250 On ch=1 n=c6 v=0
244308 On ch=1 n=a#5 v=0
244318 On ch=1 n=g4 v=0
244328 On ch=1 n=c6 v=56
244412 On ch=1 n=a#5 v=93
244424 On ch=1 n=c6 v=0
244438 On ch=1 n=e4 v=90
244492 On ch=1 n=e4 v=0
244494 On ch=1 n=a#5 v=0
244508 On ch=1 n=c6 v=58
244602 On ch=1 n=a#5 v=91
244616 On ch=1 n=c4 v=91
244620 On ch=1 n=c6 v=0
244680 On ch=1 n=a#5 v=0
244698 On ch=1 n=c6 v=54
244718 On ch=1 n=c4 v=0
244766 On ch=1 n=c6 v=0
244776 On ch=1 n=a5 v=85
244780 On ch=1 n=f4 v=99
244830 On ch=1 n=a5 v=0
244836 On ch=1 n=f4 v=0
244914 On ch=1 n=c7 v=94
244994 On ch=1 n=c7 v=0
245014 On ch=1 n=b6 v=63
245070 On ch=1 n=c7 v=82
245074 On ch=1 n=b6 v=0
245152 On ch=1 n=d7 v=83
245162 On ch=1 n=c7 v=0
245220 On ch=1 n=c7 v=78
245246 On ch=1 n=d7 v=0
245302 On ch=1 n=a#6 v=94
245314 On ch=1 n=c7 v=0
245328 On ch=1 n=g5 v=76
245372 On ch=1 n=g5 v=0
245374 On ch=1 n=c7 v=79
245380 On ch=1 n=a#6 v=0
245484 On ch=1 n=a#6 v=96
245490 On ch=1 n=c7 v=0
245510 On ch=1 n=e5 v=83
245550 On ch=1 n=e5 v=0
245560 On ch=1 n=a#6 v=0
245566 On ch=1 n=c7 v=73
245656 On ch=1 n=a#6 v=91
245674 On ch=1 n=c7 v=0
245676 On ch=1 n=c5 v=83
245744 On ch=1 n=c7 v=71
245746 On ch=1 n=a#6 v=0
245750 On ch=1 n=c5 v=0
245828 On ch=1 n=c7 v=0
245836 On ch=1 n=f5 v=108
245838 On ch=1 n=a6 v=89
245880 On ch=1 n=f5 v=0
245908 On ch=1 n=c7 v=78
245928 On ch=1 n=a6 v=0
246006 On ch=1 n=b6 v=83
246018 On ch=1 n=c7 v=0
246082 On ch=1 n=c7 v=77
246094 On ch=1 n=b6 v=0
246176 On ch=1 n=c7 v=0
246186 On ch=1 n=f7 v=100
246268 On ch=1 n=c7 v=63
246276 On ch=1 n=f7 v=0
246350 On ch=1 n=a#6 v=98
246372 On ch=1 n=c7 v=0
246382 On ch=1 n=g5 v=94
246424 On ch=1 n=a#6 v=0
246444 On ch=1 n=c7 v=65
246458 On ch=1 n=g5 v=0
246538 On ch=1 n=a#6 v=96
246542 On ch=1 n=e5 v=97
246548 On ch=1 n=c7 v=0
246616 On ch=1 n=e5 v=0
246622 On ch=1 n=a#6 v=0
246632 On ch=1 n=c7 v=69
246710 On ch=1 n=c5 v=93
246724 On ch=1 n=a#6 v=89
246736 On ch=1 n=c7 v=0
246784 On ch=1 n=c5 v=0
246800 On ch=1 n=c7 v=68
246806 On ch=1 n=a#6 v=0
246882 On ch=1 n=f5 v=100
246888 On ch=1 n=c7 v=0
246894 On ch=1 n=a6 v=87
246950 On ch=1 n=f5 v=0
246962 On ch=1 n=c7 v=82
246970 On ch=1 n=a6 v=0
247042 On ch=1 n=c7 v=0
247056 On ch=1 n=f7 v=93
247142 On ch=1 n=f7 v=0
247158 On ch=1 n=a6 v=94
247236 On ch=1 n=a6 v=0
247242 On ch=1 n=g6 v=76
247302 On ch=1 n=g6 v=0
247324 On ch=1 n=e7 v=101
247392 On ch=1 n=e7 v=0
247410 On ch=1 n=f6 v=86
247474 On ch=1 n=f6 v=0
247502 On ch=1 n=d7 v=99
247564 On ch=1 n=d7 v=0
247578 On ch=1 n=e6 v=86
247650 On ch=1 n=e6 v=0
247678 On ch=1 n=c7 v=97
247756 On ch=1 n=d6 v=78
247758 On ch=1 n=c7 v=0
247838 On ch=1 n=d6 v=0
247860 On ch=1 n=a#6 v=103
247946 On ch=1 n=a#6 v=0
247948 On ch=1 n=c6 v=76
248024 On ch=1 n=c6 v=0
248050 On ch=1 n=a6 v=87
248140 On ch=1 n=a6 v=0
248152 On ch=1 n=a#5 v=91
248204 On ch=1 n=a#5 v=0
248246 On ch=1 n=g6 v=96
248320 On ch=1 n=g6 v=0
248326 On ch=1 n=a5 v=93
248390 On ch=1 n=a5 v=0
248404 On ch=1 n=f6 v=91
248494 On ch=1 n=f6 v=0
248506 On ch=1 n=g5 v=92
248572 On ch=1 n=g5 v=0
248586 On ch=1 n=e6 v=96
248664 On ch=1 n=e6 v=0
248676 On ch=1 n=f5 v=85
248744 On ch=1 n=f5 v=0
248792 On ch=1 n=d6 v=88
248844 On ch=1 n=d6 v=0
248856 On ch=1 n=e5 v=85
248936 On ch=1 n=e5 v=0
248964 On ch=1 n=c6 v=80
249046 On ch=1 n=c6 v=0
249094 On ch=1 n=b5 v=76
249098 On ch=1 n=d5 v=55
249162 Par ch=1 c=64 v=63
249194 Par ch=1 c=64 v=127
249236 On ch=1 n=d4 v=64
249294 On ch=1 n=d5 v=0
249348 On ch=1 n=b5 v=0
249380 On ch=1 n=d4 v=0
249446 On ch=1 n=f4 v=91
249518 On ch=1 n=f4 v=0
249642 On ch=1 n=g#4 v=87
249664 On ch=1 n=a#5 v=97
249666 On ch=1 n=c#5 v=83
249736 On ch=1 n=g#4 v=0
249802 On ch=1 n=c#5 v=0
249836 On ch=1 n=g4 v=94
249892 On ch=1 n=a#5 v=0
249976 On ch=1 n=g4 v=0
250030 On ch=1 n=f4 v=102
250210 Par ch=1 c=64 v=63
250220 On ch=1 n=a#6 v=107
250228 Par ch=1 c=64 v=0
250236 On ch=1 n=c#6 v=95
250346 Par ch=1 c=64 v=63
250364 On ch=1 n=f4 v=0
250364 Par ch=1 c=64 v=127
250420 On ch=1 n=e4 v=92
250430 On ch=1 n=a#6 v=0
250444 On ch=1 n=c#6 v=0
250598 On ch=1 n=g4 v=84
250820 On ch=1 n=g4 v=0
250820 Par ch=1 c=64 v=63
250822 On ch=1 n=g5 v=68
250824 On ch=1 n=e4 v=0
250824 On ch=1 n=e6 v=77
250840 Par ch=1 c=64 v=0
250846 On ch=1 n=c#5 v=69
250946 Par ch=1 c=64 v=63
250982 Par ch=1 c=64 v=127
250986 On ch=1 n=c#5 v=0
251006 On ch=1 n=c5 v=76
251044 On ch=1 n=g5 v=0
251126 On ch=1 n=e6 v=0
251198 On ch=1 n=a#4 v=83
251214 On ch=1 n=c5 v=0
251292 On ch=1 n=a#4 v=0
251324 Par ch=1 c=64 v=63
251390 Par ch=1 c=64 v=0
251406 On ch=1 n=a4 v=89
251504 On ch=1 n=a4 v=0
251618 On ch=1 n=c7 v=86
251692 On ch=1 n=c7 v=0
251810 On ch=1 n=c7 v=93
251866 On ch=1 n=c7 v=0
251994 On ch=1 n=a#4 v=91
252038 On ch=1 n=a#4 v=0
252194 On ch=1 n=d7 v=89
252280 On ch=1 n=d7 v=0
252394 On ch=1 n=d7 v=84
252448 On ch=1 n=d7 v=0
252564 Par ch=1 c=64 v=63
252584 Par ch=1 c=64 v=127
252626 On ch=1 n=f6 v=99
252636 On ch=1 n=a5 v=71
252636 On ch=1 n=c6 v=84
252652 On ch=1 n=c5 v=57
252676 On ch=1 n=c6 v=0
252682 On ch=1 n=f6 v=0
252692 On ch=1 n=a5 v=0
252704 On ch=1 n=c5 v=0
253314 On ch=1 n=a6 v=50
253324 On ch=1 n=g6 v=78
253324 On ch=1 n=e6 v=59
253330 On ch=1 n=a#5 v=53
253412 On ch=1 n=a6 v=0
253434 Par ch=1 c=64 v=63
253478 Par ch=1 c=64 v=127
253604 On ch=1 n=g6 v=0
253606 On ch=1 n=e6 v=0
253690 On ch=1 n=a#5 v=0
253966 Par ch=1 c=64 v=63
253996 On ch=1 n=a5 v=93
254002 On ch=1 n=f5 v=85
254010 On ch=1 n=f6 v=113
254014 Par ch=1 c=64 v=127
254042 On ch=1 n=f5 v=0
254056 On ch=1 n=a5 v=0
254104 On ch=1 n=c6 v=79
254136 On ch=1 n=f6 v=0
254194 On ch=1 n=c6 v=0
254198 On ch=1 n=b5 v=83
254282 On ch=1 n=c6 v=82
254290 On ch=1 n=b5 v=0
254382 On ch=1 n=c6 v=0
254384 On ch=1 n=d6 v=90
254396 Par ch=1 c=64 v=63
254446 Par ch=1 c=64 v=0
254476 On ch=1 n=c6 v=92
254498 On ch=1 n=d6 v=0
254532 On ch=1 n=g4 v=106
254548 On ch=1 n=a#5 v=99
254570 On ch=1 n=c6 v=0
254596 On ch=1 n=g4 v=0
254626 On ch=1 n=a#5 v=0
254626 On ch=1 n=c6 v=87
254724 On ch=1 n=a#5 v=98
254728 On ch=1 n=e4 v=99
254736 On ch=1 n=c6 v=0
254778 On ch=1 n=e4 v=0
254796 On ch=1 n=a#5 v=0
254796 On ch=1 n=c6 v=79
254894 On ch=1 n=c4 v=92
254898 On ch=1 n=a#5 v=94
254914 On ch=1 n=c6 v=0
254982 On ch=1 n=c6 v=79
254986 On ch=1 n=a#5 v=0
254992 On ch=1 n=c4 v=0
255012 Par ch=1 c=64 v=63
255046 Par ch=1 c=64 v=127
255068 On ch=1 n=f4 v=114
255078 On ch=1 n=c6 v=0
255086 On ch=1 n=a5 v=86
255126 On ch=1 n=f4 v=0
255164 On ch=1 n=c6 v=88
255184 On ch=1 n=a5 v=0
255256 On ch=1 n=b5 v=98
255282 On ch=1 n=c6 v=0
255344 On ch=1 n=c6 v=90
255370 On ch=1 n=b5 v=0
255374 Par ch=1 c=64 v=63
255420 Par ch=1 c=64 v=0
255446 On ch=1 n=f6 v=99
255464 On ch=1 n=c6 v=0
255524 On ch=1 n=c6 v=84
255534 On ch=1 n=f6 v=0
255622 On ch=1 n=a#5 v=93
255632 On ch=1 n=g4 v=92
255636 On ch=1 n=c6 v=0
255696 On ch=1 n=c6 v=78
255700 On ch=1 n=a#5 v=0
255702 On ch=1 n=g4 v=0
255800 On ch=1 n=a#5 v=98
255810 On ch=1 n=c6 v=0
255826 On ch=1 n=e4 v=96
255874 On ch=1 n=c6 v=71
255876 On ch=1 n=a#5 v=0
255896 On ch=1 n=e4 v=0
255958 On ch=1 n=a#5 v=81
255976 On ch=1 n=c6 v=0
255992 On ch=1 n=c4 v=91
256034 On ch=1 n=c6 v=65
256050 On ch=1 n=a#5 v=0
256122 On ch=1 n=c4 v=0
256134 Par ch=1 c=64 v=63
256146 On ch=1 n=c6 v=0
256152 Par ch=1 c=64 v=127
256152 On ch=1 n=a5 v=94
256154 On ch=1 n=f4 v=114
256222 On ch=1 n=a5 v=0
256226 On ch=1 n=f4 v=0
256302 On ch=1 n=c7 v=94
256382 On ch=1 n=c7 v=0
256402 On ch=1 n=b6 v=72
256456 On ch=1 n=c7 v=76
256460 On ch=1 n=b6 v=0
256550 On ch=1 n=d7 v=96
256566 On ch=1 n=c7 v=0
256618 On ch=1 n=c7 v=94
256650 On ch=1 n=d7 v=0
256696 On ch=1 n=g5 v=96
256700 On ch=1 n=a#6 v=100
256706 Par ch=1 c=64 v=63
256720 On ch=1 n=c7 v=0
256766 On ch=1 n=g5 v=0
256768 Par ch=1 c=64 v=0
256772 On ch=1 n=c7 v=87
256778 On ch=1 n=a#6 v=0
256870 On ch=1 n=a#6 v=95
256882 On ch=1 n=c7 v=0
256892 On ch=1 n=e5 v=97
256896 Par ch=1 c=64 v=63
256948 On ch=1 n=c7 v=80
256954 On ch=1 n=e5 v=0
256956 On ch=1 n=a#6 v=0
257052 On ch=1 n=a#6 v=92
257068 On ch=1 n=c7 v=0
257068 On ch=1 n=c5 v=83
257134 On ch=1 n=c7 v=84
257144 On ch=1 n=c5 v=0
257152 On ch=1 n=a#6 v=0
257202 Par ch=1 c=64 v=127
257230 On ch=1 n=f5 v=114
257234 On ch=1 n=c7 v=0
257240 On ch=1 n=a6 v=93
257294 On ch=1 n=f5 v=0
257312 On ch=1 n=c7 v=84
257330 On ch=1 n=a6 v=0
257412 On ch=1 n=b6 v=93
257430 On ch=1 n=c7 v=0
257506 On ch=1 n=c7 v=86
257526 On ch=1 n=b6 v=0
257584 Par ch=1 c=64 v=63
257606 On ch=1 n=f7 v=108
257616 On ch=1 n=c7 v=0
257656 Par ch=1 c=64 v=0
257680 On ch=1 n=c7 v=79
257702 On ch=1 n=f7 v=0
257782 On ch=1 n=a#6 v=101
257790 On ch=1 n=c7 v=0
257800 On ch=1 n=g5 v=96
257860 On ch=1 n=a#6 v=0
257868 On ch=1 n=c7 v=87
257874 On ch=1 n=g5 v=0
257968 On ch=1 n=a#6 v=99
257974 On ch=1 n=c7 v=0
257978 On ch=1 n=e5 v=104
258048 On ch=1 n=e5 v=0
258050 On ch=1 n=a#6 v=0
258060 On ch=1 n=c7 v=88
258146 On ch=1 n=c5 v=94
258156 On ch=1 n=a#6 v=94
258168 On ch=1 n=c7 v=0
258238 On ch=1 n=c5 v=0
258248 On ch=1 n=c7 v=83
258258 On ch=1 n=a#6 v=0
258272 Par ch=1 c=64 v=63
258320 On ch=1 n=f5 v=113
258328 Par ch=1 c=64 v=127
258332 On ch=1 n=c7 v=0
258340 On ch=1 n=a6 v=84
258386 On ch=1 n=f5 v=0
258408 On ch=1 n=c7 v=79
258420 On ch=1 n=a6 v=0
258502 On ch=1 n=f7 v=98
258522 On ch=1 n=c7 v=0
258580 On ch=1 n=f7 v=0
258592 On ch=1 n=a6 v=101
258672 On ch=1 n=a6 v=0
258688 On ch=1 n=g6 v=96
258736 On ch=1 n=g6 v=0
258754 On ch=1 n=e7 v=101
258828 On ch=1 n=e7 v=0
258842 On ch=1 n=f6 v=87
258916 On ch=1 n=f6 v=0
258946 On ch=1 n=d7 v=100
259018 On ch=1 n=d7 v=0
259022 On ch=1 n=e6 v=92
259098 On ch=1 n=e6 v=0
259128 On ch=1 n=c7 v=98
259196 On ch=1 n=c7 v=0
259204 On ch=1 n=d6 v=82
259274 On ch=1 n=d6 v=0
259304 On ch=1 n=a#6 v=106
259382 On ch=1 n=a#6 v=0
259392 On ch=1 n=c6 v=82
259456 On ch=1 n=c6 v=0
259492 On ch=1 n=a6 v=72
259566 On ch=1 n=a#5 v=92
259572 On ch=1 n=a6 v=0
259626 On ch=1 n=a#5 v=0
259670 On ch=1 n=g6 v=84
259722 On ch=1 n=g6 v=0
259728 On ch=1 n=a5 v=89
259812 On ch=1 n=a5 v=0
259824 On ch=1 n=f6 v=104
259886 Par ch=1 c=64 v=63
259898 On ch=1 n=f6 v=0
259902 On ch=1 n=g5 v=88
259940 Par ch=1 c=64 v=0
259978 On ch=1 n=g5 v=0
259996 On ch=1 n=e6 v=101
260074 On ch=1 n=f5 v=93
260080 On ch=1 n=e6 v=0
260088 Par ch=1 c=64 v=63
260148 On ch=1 n=f5 v=0
260176 On ch=1 n=d6 v=94
260250 On ch=1 n=e5 v=87
260260 On ch=1 n=d6 v=0
260330 On ch=1 n=e5 v=0
260354 On ch=1 n=c6 v=96
260478 On ch=1 n=c6 v=0
260536 On ch=1 n=b5 v=85
260546 On ch=1 n=d5 v=56
260656 Par ch=1 c=64 v=127
260774 On ch=1 n=d4 v=82
260808 On ch=1 n=d5 v=0
260838 On ch=1 n=b5 v=0
260958 On ch=1 n=f4 v=101
260976 On ch=1 n=d4 v=0
261148 On ch=1 n=a#5 v=107
261152 On ch=1 n=c#5 v=95
261156 On ch=1 n=g#4 v=100
261198 On ch=1 n=f4 v=0
261200 Par ch=1 c=64 v=63
261300 Par ch=1 c=64 v=127
261354 On ch=1 n=g4 v=92
261376 On ch=1 n=c#5 v=0
261398 On ch=1 n=g#4 v=0
261436 On ch=1 n=a#5 v=0
261532 On ch=1 n=f4 v=108
261596 On ch=1 n=g4 v=0
261704 Par ch=1 c=64 v=63
261730 On ch=1 n=a#6 v=109
261740 On ch=1 n=c#6 v=103
261758 Par ch=1 c=64 v=0
261770 Par ch=1 c=64 v=63
261810 Par ch=1 c=64 v=127
261836 On ch=1 n=f4 v=0
261920 On ch=1 n=a#6 v=0
261926 On ch=1 n=c#6 v=0
261932 On ch=1 n=e4 v=104
262112 On ch=1 n=g4 v=96
262228 On ch=1 n=g4 v=0
262326 On ch=1 n=e6 v=97
262334 On ch=1 n=g5 v=79
262348 On ch=1 n=c#5 v=100
262372 Par ch=1 c=64 v=63
262412 Par ch=1 c=64 v=0
262426 Par ch=1 c=64 v=63
262480 Par ch=1 c=64 v=127
262542 On ch=1 n=c#5 v=0
262542 On ch=1 n=e4 v=0
262542 On ch=1 n=c5 v=96
262608 On ch=1 n=g5 v=0
262698 On ch=1 n=e6 v=0
262742 On ch=1 n=a#4 v=101
262780 On ch=1 n=c5 v=0
262890 On ch=1 n=a#4 v=0
262908 Par ch=1 c=64 v=63
262936 Par ch=1 c=64 v=0
262940 On ch=1 n=a4 v=93
263134 On ch=1 n=a4 v=0
263138 On ch=1 n=c7 v=91
263208 On ch=1 n=c7 v=0
263330 On ch=1 n=c7 v=93
263404 On ch=1 n=c7 v=0
263518 Par ch=1 c=64 v=63
263542 Par ch=1 c=64 v=127
263544 On ch=1 n=a#4 v=81
263650 On ch=1 n=a#4 v=0
263756 On ch=1 n=d7 v=87
263842 On ch=1 n=d7 v=0
263930 On ch=1 n=d7 v=83
264004 On ch=1 n=d7 v=0
264180 On ch=1 n=f6 v=90
264186 On ch=1 n=a5 v=67
264192 On ch=1 n=c6 v=67
264206 Par ch=1 c=64 v=63
264206 On ch=1 n=c5 v=59
264246 Par ch=1 c=64 v=0
264330 Par ch=1 c=64 v=63
264358 Par ch=1 c=64 v=127
264520 On ch=1 n=a5 v=0
264540 On ch=1 n=c5 v=0
264866 On ch=1 n=e6 v=68
264888 On ch=1 n=g5 v=42
264896 On ch=1 n=a#4 v=47
264898 On ch=1 n=f6 v=0
264938 Par ch=1 c=64 v=63
265038 Par ch=1 c=64 v=127
265156 On ch=1 n=c6 v=0
265202 On ch=1 n=e6 v=0
265286 On ch=1 n=g5 v=0
265298 On ch=1 n=a#4 v=0
265536 Par ch=1 c=64 v=63
265568 On ch=1 n=a4 v=117
265582 On ch=1 n=b6 v=109
265634 Par ch=1 c=64 v=127
265674 On ch=1 n=c7 v=96
265678 On ch=1 n=b6 v=0
265708 On ch=1 n=a4 v=0
265764 On ch=1 n=c5 v=59
265768 On ch=1 n=b6 v=102
265770 On ch=1 n=c7 v=0
265848 On ch=1 n=c7 v=84
265856 On ch=1 n=b6 v=0
265860 On ch=1 n=c5 v=0
265930 On ch=1 n=b6 v=93
265938 On ch=1 n=f5 v=70
265948 On ch=1 n=c7 v=0
266016 On ch=1 n=c7 v=99
266036 On ch=1 n=b6 v=0
266068 On ch=1 n=f5 v=0
266070 Par ch=1 c=64 v=63
266094 On ch=1 n=c7 v=0
266124 On ch=1 n=a#4 v=123
266136 On ch=1 n=c#7 v=113
266164 Par ch=1 c=64 v=127
266226 On ch=1 n=d7 v=100
266230 On ch=1 n=c#7 v=0
266320 On ch=1 n=c#7 v=101
266336 On ch=1 n=d7 v=0
266356 On ch=1 n=d5 v=92
266378 On ch=1 n=a#4 v=0
266406 On ch=1 n=d7 v=90
266434 On ch=1 n=c#7 v=0
266466 Par ch=1 c=64 v=63
266468 On ch=1 n=d5 v=0
266494 On ch=1 n=e7 v=88
266532 On ch=1 n=g5 v=79
266536 On ch=1 n=d7 v=0
266560 On ch=1 n=f7 v=98
266590 On ch=1 n=e7 v=0
266626 On ch=1 n=g5 v=0
266630 On ch=1 n=f7 v=0
266660 Par ch=1 c=64 v=127
266722 On ch=1 n=c5 v=120
266738 On ch=1 n=f6 v=108
266746 On ch=1 n=c6 v=101
266780 On ch=1 n=c6 v=0
266802 On ch=1 n=f6 v=0
266908 On ch=1 n=c5 v=0
266942 On ch=1 n=f5 v=94
267048 On ch=1 n=f5 v=0
267118 On ch=1 n=a5 v=106
267264 On ch=1 n=a5 v=0
267278 Par ch=1 c=64 v=63
267300 Par ch=1 c=64 v=0
267306 On ch=1 n=a6 v=102
267314 On ch=1 n=g6 v=111
267316 On ch=1 n=e6 v=111
267320 On ch=1 n=c5 v=116
267360 Par ch=1 c=64 v=63
267386 Par ch=1 c=64 v=127
267450 On ch=1 n=a6 v=0
267462 On ch=1 n=c5 v=0
267504 On ch=1 n=e6 v=0
267508 On ch=1 n=g5 v=86
267616 On ch=1 n=g5 v=0
267680 On ch=1 n=a#5 v=97
267708 On ch=1 n=g6 v=0
267768 On ch=1 n=f6 v=102
267782 On ch=1 n=a#5 v=0
267826 Par ch=1 c=64 v=63
267838 On ch=1 n=f6 v=0
267844 Par ch=1 c=64 v=0
267890 On ch=1 n=f5 v=118
267894 On ch=1 n=a5 v=109
267906 Par ch=1 c=64 v=63
267908 On ch=1 n=f6 v=103
267928 Par ch=1 c=64 v=127
267966 On ch=1 n=f5 v=0
267968 On ch=1 n=a5 v=0
267998 On ch=1 n=f6 v=0
268000 On ch=1 n=a6 v=104
268076 On ch=1 n=c7 v=107
268100 On ch=1 n=a6 v=0
268150 On ch=1 n=c7 v=0
268170 On ch=1 n=f7 v=103
268270 On ch=1 n=e7 v=100
268312 Par ch=1 c=64 v=63
268340 On ch=1 n=d7 v=100
268342 On ch=1 n=f7 v=0
268394 On ch=1 n=e7 v=0
268424 On ch=1 n=c7 v=101
268446 On ch=1 n=d7 v=0
268456 Par ch=1 c=64 v=127
268478 On ch=1 n=c5 v=90
268488 On ch=1 n=e5 v=99
268490 On ch=1 n=a#5 v=113
268510 On ch=1 n=d7 v=101
268520 On ch=1 n=c7 v=0
268544 On ch=1 n=c5 v=0
268548 On ch=1 n=a#5 v=0
268556 On ch=1 n=e5 v=0
268614 On ch=1 n=c7 v=99
268624 Par ch=1 c=64 v=63
268644 On ch=1 n=d7 v=0
268668 Par ch=1 c=64 v=0
268698 On ch=1 n=a#6 v=108
268742 On ch=1 n=c7 v=0
268796 On ch=1 n=a#6 v=0
268798 On ch=1 n=a6 v=92
268890 On ch=1 n=a6 v=0
268894 On ch=1 n=g6 v=91
268992 On ch=1 n=a5 v=113
268994 On ch=1 n=f5 v=113
269000 On ch=1 n=f6 v=103
269030 On ch=1 n=g6 v=0
269048 On ch=1 n=f5 v=0
269054 On ch=1 n=a5 v=0
269084 On ch=1 n=a6 v=98
269110 On ch=1 n=f6 v=0
269180 On ch=1 n=g6 v=88
269226 On ch=1 n=a6 v=0
269264 On ch=1 n=f6 v=101
269296 On ch=1 n=g6 v=0
269352 On ch=1 n=e6 v=90
269360 On ch=1 n=f6 v=0
269442 On ch=1 n=d6 v=92
269454 On ch=1 n=e6 v=0
269526 On ch=1 n=c6 v=101
269532 On ch=1 n=a#5 v=120
269534 On ch=1 n=c5 v=92
269540 On ch=1 n=e5 v=101
269544 On ch=1 n=d6 v=0
269594 On ch=1 n=a#5 v=0
269608 On ch=1 n=c5 v=0
269616 On ch=1 n=e5 v=0
269622 On ch=1 n=d6 v=100
269634 On ch=1 n=c6 v=0
269710 On ch=1 n=c6 v=87
269744 On ch=1 n=d6 v=0
269782 On ch=1 n=a#5 v=109
269832 On ch=1 n=c6 v=0
269870 On ch=1 n=a#5 v=0
269880 On ch=1 n=a5 v=92
269952 On ch=1 n=g5 v=93
269964 On ch=1 n=a5 v=0
270038 On ch=1 n=f5 v=99
270060 On ch=1 n=g5 v=0
270064 On ch=1 n=f4 v=118
270064 On ch=1 n=a4 v=116
270128 On ch=1 n=a5 v=100
270130 On ch=1 n=f4 v=0
270132 On ch=1 n=a4 v=0
270148 On ch=1 n=f5 v=0
270216 On ch=1 n=g5 v=93
270270 On ch=1 n=a5 v=0
270296 On ch=1 n=f5 v=98
270342 On ch=1 n=g5 v=0
270382 On ch=1 n=e5 v=94
270394 On ch=1 n=f5 v=0
270480 On ch=1 n=e5 v=0
270482 On ch=1 n=d5 v=91
270564 On ch=1 n=c5 v=103
270580 On ch=1 n=d5 v=0
270590 On ch=1 n=a#4 v=125
270590 On ch=1 n=e4 v=112
270592 On ch=1 n=c4 v=89
270648 On ch=1 n=a#4 v=0
270652 On ch=1 n=c5 v=0
270656 On ch=1 n=d5 v=78
270668 On ch=1 n=c4 v=0
270672 On ch=1 n=e4 v=0
270746 On ch=1 n=c5 v=93
270764 On ch=1 n=d5 v=0
270820 On ch=1 n=a#4 v=107
270858 On ch=1 n=c5 v=0
270912 On ch=1 n=a#4 v=0
270918 On ch=1 n=a4 v=76
270994 On ch=1 n=g4 v=97
270998 On ch=1 n=a4 v=0
271066 On ch=1 n=g4 v=0
271094 On ch=1 n=f4 v=106
271106 On ch=1 n=f3 v=127
271172 On ch=1 n=f4 v=0
271202 On ch=1 n=f3 v=0
271314 On ch=1 n=a4 v=90
271316 On ch=1 n=a3 v=99
271398 On ch=1 n=a4 v=0
271400 On ch=1 n=a3 v=0
271478 On ch=1 n=c5 v=97
271488 On ch=1 n=c4 v=98
271544 On ch=1 n=c5 v=0
271592 On ch=1 n=c4 v=0
271660 On ch=1 n=f5 v=104
271664 On ch=1 n=f4 v=104
271736 On ch=1 n=f5 v=0
271758 On ch=1 n=f4 v=0
271848 On ch=1 n=a5 v=109
271854 On ch=1 n=a4 v=100
271922 On ch=1 n=a5 v=0
271926 On ch=1 n=a4 v=0
272034 On ch=1 n=c6 v=112
272040 On ch=1 n=c5 v=85
272102 On ch=1 n=c5 v=0
272118 On ch=1 n=c6 v=0
272224 On ch=1 n=f5 v=124
272236 On ch=1 n=f6 v=126
272252 Par ch=1 c=64 v=63
272254 Par ch=1 c=64 v=127
272300 On ch=1 n=f6 v=0
272306 On ch=1 n=f5 v=0
272438 Par ch=1 c=64 v=63
272458 Par ch=1 c=64 v=0
272812 Par ch=1 c=64 v=63
272812 On ch=1 n=f4 v=84
272818 Par ch=1 c=64 v=127
272824 On ch=1 n=f5 v=109
272826 On ch=1 n=a6 v=124
272828 On ch=1 n=c7 v=122
272832 On ch=1 n=c6 v=121
272892 On ch=1 n=c6 v=0
272892 On ch=1 n=a6 v=0
272918 On ch=1 n=c7 v=0
272982 On ch=1 n=f5 v=0
273000 On ch=1 n=f4 v=0
273076 Par ch=1 c=64 v=63
273112 Par ch=1 c=64 v=0
273516 On ch=1 n=a3 v=88
273526 On ch=1 n=d#7 v=116
273526 On ch=1 n=f6 v=109
273526 On ch=1 n=c7 v=101
273528 Par ch=1 c=64 v=63
273532 On ch=1 n=a4 v=125
273534 Par ch=1 c=64 v=127
273640 On ch=1 n=a4 v=0
273656 On ch=1 n=a3 v=0
273946 On ch=1 n=d#7 v=0
273972 On ch=1 n=f6 v=0
273996 On ch=1 n=c7 v=0
274178 Par ch=1 c=64 v=63
274198 Par ch=1 c=64 v=0
274716 Par ch=1 c=64 v=63
274726 Par ch=1 c=64 v=127
274748 On ch=1 n=a#4 v=127
274750 On ch=1 n=d7 v=125
274750 On ch=1 n=a#3 v=118
274752 On ch=1 n=a#6 v=127
274752 On ch=1 n=f6 v=122
274802 On ch=1 n=f6 v=0
274804 On ch=1 n=d7 v=0
274808 On ch=1 n=a#6 v=0
274818 On ch=1 n=a#3 v=0
274818 On ch=1 n=a#4 v=0
275536 Par ch=1 c=64 v=63
275570 Par ch=1 c=64 v=0
276058 On ch=1 n=b3 v=93
276070 Par ch=1 c=64 v=63
276070 On ch=1 n=f6 v=103
276070 On ch=1 n=f7 v=112
276074 On ch=1 n=b4 v=125
276076 Par ch=1 c=64 v=127
276078 On ch=1 n=g#6 v=121
276080 On ch=1 n=d7 v=118
276138 On ch=1 n=g#6 v=0
276144 On ch=1 n=d7 v=0
276156 On ch=1 n=b4 v=0
276168 On ch=1 n=f7 v=0
276168 On ch=1 n=f6 v=0
276188 On ch=1 n=b3 v=0
277000 Par ch=1 c=64 v=63
277032 Par ch=1 c=64 v=0
277728 Par ch=1 c=64 v=63
277788 On ch=1 n=a4 v=40
277808 On ch=1 n=f5 v=76
277816 On ch=1 n=c4 v=36
277820 On ch=1 n=c5 v=51
277826 Par ch=1 c=64 v=127
278224 On ch=1 n=f5 v=0
278238 On ch=1 n=a4 v=0
278602 On ch=1 n=c5 v=0
279226 On ch=1 n=a5 v=41
279256 On ch=1 n=a#4 v=55
279268 On ch=1 n=e5 v=38
279294 On ch=1 n=g5 v=59
279344 On ch=1 n=a5 v=0
279448 Par ch=1 c=64 v=63
279520 Par ch=1 c=64 v=0
279600 Par ch=1 c=64 v=63
279650 Par ch=1 c=64 v=127
280166 On ch=1 n=e5 v=0
280214 On ch=1 n=g5 v=0
280270 On ch=1 n=a#4 v=0
280316 On ch=1 n=c4 v=0
280530 On ch=1 n=f5 v=54
280652 On ch=1 n=f5 v=0
280820 On ch=1 n=a4 v=34
280834 On ch=1 n=f5 v=59
280840 On ch=1 n=f4 v=46
280928 Par ch=1 c=64 v=63
280964 Par ch=1 c=64 v=0
281026 On ch=1 n=f5 v=0
281044 On ch=1 n=f4 v=0
281052 On ch=1 n=a4 v=0
281290 On ch=1 n=a4 v=76
281304 Par ch=1 c=64 v=63
281306 On ch=1 n=a3 v=84
281330 Par ch=1 c=64 v=127
281362 Par ch=1 c=64 v=63
281402 On ch=1 n=a3 v=0
281406 Par ch=1 c=64 v=0
281416 On ch=1 n=a4 v=0
281498 On ch=1 n=a#3 v=121
281518 On ch=1 n=a#4 v=72
281550 Par ch=1 c=64 v=63
281606 Par ch=1 c=64 v=0
281620 On ch=1 n=a#4 v=0
281680 On ch=1 n=a#3 v=0
281696 On ch=1 n=g5 v=93
281708 On ch=1 n=g4 v=87
281784 On ch=1 n=g5 v=0
281796 On ch=1 n=g4 v=0
281878 On ch=1 n=b4 v=94
281892 On ch=1 n=b3 v=87
281960 On ch=1 n=b4 v=0
281988 On ch=1 n=b3 v=0
282062 On ch=1 n=c4 v=117
282066 On ch=1 n=c5 v=111
282192 On ch=1 n=c5 v=0
282220 On ch=1 n=c4 v=0
282244 On ch=1 n=a5 v=93
282256 On ch=1 n=a4 v=84
282318 On ch=1 n=a5 v=0
282330 On ch=1 n=a4 v=0
282422 On ch=1 n=c#5 v=113
282422 On ch=1 n=c#4 v=105
282480 On ch=1 n=c#5 v=0
282496 On ch=1 n=c#4 v=0
282612 On ch=1 n=d4 v=103
282614 Par ch=1 c=64 v=63
282620 On ch=1 n=d5 v=112
282634 Par ch=1 c=64 v=127
282726 On ch=1 n=d4 v=0
282786 On ch=1 n=d5 v=0
282792 On ch=1 n=a#4 v=95
282796 On ch=1 n=a#5 v=95
282832 Par ch=1 c=64 v=63
282874 On ch=1 n=a#4 v=0
282874 Par ch=1 c=64 v=0
282898 On ch=1 n=a#5 v=0
282990 On ch=1 n=e5 v=92
283000 On ch=1 n=e4 v=91
283044 On ch=1 n=e5 v=0
283092 On ch=1 n=e4 v=0
283174 Par ch=1 c=64 v=63
283212 Par ch=1 c=64 v=127
283248 On ch=1 n=a#6 v=118
283326 On ch=1 n=a#6 v=0
283842 On ch=1 n=a#4 v=71
283846 On ch=1 n=e5 v=69
283846 On ch=1 n=g5 v=64
283852 On ch=1 n=c5 v=69
284076 On ch=1 n=a6 v=57
284100 On ch=1 n=g5 v=0
284100 On ch=1 n=e5 v=0
284114 On ch=1 n=c5 v=0
284130 On ch=1 n=a#4 v=0
284136 On ch=1 n=g6 v=75
284178 On ch=1 n=a6 v=0
284214 On ch=1 n=f6 v=57
284248 On ch=1 n=g6 v=0
284278 On ch=1 n=f6 v=0
284290 On ch=1 n=e6 v=61
284310 Par ch=1 c=64 v=63
284368 On ch=1 n=f6 v=94
284380 Par ch=1 c=64 v=0
284388 On ch=1 n=e6 v=0
284388 On ch=1 n=c5 v=59
284422 On ch=1 n=a4 v=48
284422 On ch=1 n=f5 v=43
284446 On ch=1 n=f6 v=0
284598 On ch=1 n=g6 v=90
284640 On ch=1 n=f5 v=0
284644 On ch=1 n=c5 v=0
284654 On ch=1 n=a4 v=0
284682 On ch=1 n=g6 v=0
284754 On ch=1 n=a6 v=90
284834 On ch=1 n=a6 v=0
284928 Par ch=1 c=64 v=63
284978 Par ch=1 c=64 v=127
284984 On ch=1 n=c5 v=75
284988 On ch=1 n=a5 v=71
284988 On ch=1 n=c6 v=87
285066 On ch=1 n=a5 v=0
285072 On ch=1 n=c6 v=0
285110 On ch=1 n=c5 v=0
285374 On ch=1 n=c#5 v=87
285380 On ch=1 n=a#5 v=88
285390 On ch=1 n=g5 v=63
285472 On ch=1 n=g5 v=0
285488 On ch=1 n=a#5 v=0
285608 On ch=1 n=a#5 v=78
285622 On ch=1 n=g5 v=61
285622 On ch=1 n=d5 v=72
285694 On ch=1 n=c#5 v=0
285734 Par ch=1 c=64 v=63
285780 Par ch=1 c=64 v=0
285924 Par ch=1 c=64 v=63
285954 Par ch=1 c=64 v=127
286002 On ch=1 n=g5 v=0
286120 On ch=1 n=a#5 v=0
286276 On ch=1 n=f5 v=40
286284 On ch=1 n=a5 v=49
286360 Par ch=1 c=64 v=63
286440 Par ch=1 c=64 v=0
286452 Par ch=1 c=64 v=63
286520 Par ch=1 c=64 v=127
286600 On ch=1 n=d5 v=0
286602 On ch=1 n=a5 v=0
286606 On ch=1 n=f5 v=0
286846 Par ch=1 c=64 v=63
286862 Par ch=1 c=64 v=0
287304 On ch=1 n=a4 v=108
287314 On ch=1 n=a3 v=112
287324 Par ch=1 c=64 v=127
287380 On ch=1 n=a4 v=0
287416 Par ch=1 c=64 v=63
287422 On ch=1 n=a3 v=0
287424 Par ch=1 c=64 v=0
287514 On ch=1 n=a#3 v=120
287526 On ch=1 n=a#4 v=120
287530 Par ch=1 c=64 v=63
287530 Par ch=1 c=64 v=127
287630 On ch=1 n=a#4 v=0
287656 On ch=1 n=a#3 v=0
287690 Par ch=1 c=64 v=63
287692 Par ch=1 c=64 v=0
287732 On ch=1 n=g5 v=96
287732 On ch=1 n=g4 v=91
287808 On ch=1 n=g5 v=0
287820 On ch=1 n=g4 v=0
287930 Par ch=1 c=64 v=63
287930 Par ch=1 c=64 v=127
287938 On ch=1 n=b4 v=104
287950 On ch=1 n=b3 v=94
288018 On ch=1 n=b4 v=0
288032 On ch=1 n=b3 v=0
288060 Par ch=1 c=64 v=63
288064 Par ch=1 c=64 v=0
288122 On ch=1 n=c4 v=117
288130 On ch=1 n=c5 v=116
288146 Par ch=1 c=64 v=63
288150 Par ch=1 c=64 v=127
288252 On ch=1 n=c5 v=0
288270 On ch=1 n=c4 v=0
288324 On ch=1 n=a5 v=92
288330 On ch=1 n=a4 v=85
288332 Par ch=1 c=64 v=63
288348 Par ch=1 c=64 v=0
288402 On ch=1 n=a5 v=0
288414 On ch=1 n=a4 v=0
288466 Par ch=1 c=64 v=63
288484 Par ch=1 c=64 v=127
288526 On ch=1 n=c#5 v=114
288526 On ch=1 n=c#4 v=103
288586 On ch=1 n=c#5 v=0
288598 On ch=1 n=c#4 v=0
288616 Par ch=1 c=64 v=63
288628 Par ch=1 c=64 v=0
288698 Par ch=1 c=64 v=63
288706 On ch=1 n=d4 v=114
288708 Par ch=1 c=64 v=127
288724 On ch=1 n=d5 v=112
288800 On ch=1 n=d4 v=0
288854 On ch=1 n=d5 v=0
288916 On ch=1 n=a#5 v=98
288918 Par ch=1 c=64 v=63
288922 On ch=1 n=a#4 v=93
288932 Par ch=1 c=64 v=0
288994 On ch=1 n=a#4 v=0
289004 On ch=1 n=a#5 v=0
289132 On ch=1 n=e5 v=98
289138 On ch=1 n=e4 v=100
289196 On ch=1 n=e5 v=0
289238 On ch=1 n=e4 v=0
289510 Par ch=1 c=64 v=63
289528 On ch=1 n=a#6 v=115
289536 Par ch=1 c=64 v=127
289618 On ch=1 n=a#6 v=0
290178 On ch=1 n=g5 v=67
290182 On ch=1 n=a#4 v=53
290184 On ch=1 n=e5 v=68
290188 On ch=1 n=c5 v=70
290404 On ch=1 n=e5 v=0
290422 On ch=1 n=g5 v=0
290430 On ch=1 n=c5 v=0
290436 On ch=1 n=a6 v=75
290438 On ch=1 n=a#4 v=0
290508 On ch=1 n=g6 v=76
290552 On ch=1 n=a6 v=0
290612 On ch=1 n=g6 v=0
290614 On ch=1 n=f6 v=61
290656 On ch=1 n=e6 v=71
290666 On ch=1 n=f6 v=0
290740 On ch=1 n=f6 v=65
290754 On ch=1 n=e6 v=0
290754 Par ch=1 c=64 v=63
290770 On ch=1 n=c5 v=41
290776 On ch=1 n=f5 v=58
290798 On ch=1 n=a4 v=37
290806 Par ch=1 c=64 v=0
290818 On ch=1 n=g6 v=82
290840 On ch=1 n=f6 v=0
290912 On ch=1 n=a6 v=90
290922 On ch=1 n=g6 v=0
290966 On ch=1 n=c5 v=0
290968 On ch=1 n=f5 v=0
290980 On ch=1 n=a4 v=0
290984 On ch=1 n=a6 v=0
291200 Par ch=1 c=64 v=63
291502 On ch=1 n=a#4 v=50
291510 On ch=1 n=d5 v=57
291510 On ch=1 n=f5 v=41
291512 On ch=1 n=d6 v=65
291580 On ch=1 n=e6 v=65
291626 On ch=1 n=d6 v=0
291656 On ch=1 n=f6 v=76
291682 On ch=1 n=e6 v=0
291742 On ch=1 n=f5 v=0
291746 Par ch=1 c=64 v=127
291752 On ch=1 n=d5 v=0
291756 On ch=1 n=f6 v=0
291802 Par ch=1 c=64 v=63
291818 On ch=1 n=a#4 v=0
291900 Par ch=1 c=64 v=0
292216 Par ch=1 c=64 v=63
292318 Par ch=1 c=64 v=127
292360 On ch=1 n=f5 v=54
292378 On ch=1 n=a4 v=38
292380 On ch=1 n=c5 v=50
292392 On ch=1 n=c4 v=36
292630 On ch=1 n=c5 v=0
292670 On ch=1 n=a4 v=0
292674 On ch=1 n=f5 v=0
293124 On ch=1 n=a5 v=52
293130 On ch=1 n=a#4 v=36
293162 On ch=1 n=e5 v=38
293192 On ch=1 n=g5 v=60
293234 On ch=1 n=a5 v=0
293398 Par ch=1 c=64 v=63
293406 Par ch=1 c=64 v=127
293670 On ch=1 n=c4 v=0
293746 On ch=1 n=e5 v=0
293746 On ch=1 n=a#4 v=0
293772 On ch=1 n=f5 v=62
293802 On ch=1 n=g5 v=0
294018 On ch=1 n=f5 v=0
294094 On ch=1 n=f4 v=40
294134 On ch=1 n=f5 v=53
294396 On ch=1 n=a4 v=43
294598 On ch=1 n=c5 v=61
294608 On ch=1 n=f4 v=0
294616 On ch=1 n=a5 v=63
294650 On ch=1 n=a4 v=0
294826 On ch=1 n=c5 v=0
294836 On ch=1 n=f5 v=0
294838 On ch=1 n=e5 v=59
294842 On ch=1 n=c6 v=67
294844 On ch=1 n=f4 v=51
294856 On ch=1 n=a5 v=0
295024 On ch=1 n=a#5 v=64
295068 On ch=1 n=g4 v=67
295072 On ch=1 n=c6 v=0
295134 On ch=1 n=f4 v=0
295232 On ch=1 n=g5 v=69
295246 On ch=1 n=a#4 v=65
295278 On ch=1 n=a#5 v=0
295288 On ch=1 n=g4 v=0
295312 On ch=1 n=e5 v=0
295440 On ch=1 n=f5 v=74
295442 On ch=1 n=a#4 v=0
295444 On ch=1 n=f4 v=46
295486 On ch=1 n=g5 v=0
295638 On ch=1 n=c5 v=68
295648 On ch=1 n=a4 v=38
295740 On ch=1 n=c5 v=0
295798 On ch=1 n=f4 v=0
295818 On ch=1 n=c5 v=56
295838 On ch=1 n=a5 v=81
295880 On ch=1 n=f5 v=0
295888 On ch=1 n=a4 v=0
296006 On ch=1 n=c5 v=0
296016 On ch=1 n=a5 v=0
296042 On ch=1 n=f4 v=44
296052 On ch=1 n=e5 v=71
296056 On ch=1 n=c6 v=73
296234 On ch=1 n=a#5 v=65
296248 On ch=1 n=c6 v=0
296256 On ch=1 n=g4 v=49
296430 On ch=1 n=g5 v=63
296450 On ch=1 n=a#4 v=55
296464 On ch=1 n=f4 v=0
296494 On ch=1 n=a#5 v=0
296522 On ch=1 n=g4 v=0
296556 On ch=1 n=e5 v=0
296660 On ch=1 n=f5 v=66
296680 On ch=1 n=f4 v=41
296682 On ch=1 n=g5 v=0
296690 Par ch=1 c=64 v=63
296694 On ch=1 n=a#4 v=0
296712 Par ch=1 c=64 v=127
296902 On ch=1 n=c5 v=56
296902 On ch=1 n=a4 v=34
296904 On ch=1 n=f5 v=0
296988 On ch=1 n=f4 v=0
297010 On ch=1 n=c5 v=0
297112 On ch=1 n=a4 v=0
297134 On ch=1 n=c5 v=53
297138 On ch=1 n=a5 v=48
297364 On ch=1 n=c5 v=0
297366 On ch=1 n=a5 v=0
297380 On ch=1 n=f5 v=52
297400 On ch=1 n=f4 v=24
297642 On ch=1 n=a4 v=25
297662 On ch=1 n=f5 v=0
297668 On ch=1 n=c5 v=55
297752 On ch=1 n=c5 v=0
297978 On ch=1 n=a4 v=0
297988 On ch=1 n=a5 v=43
297992 On ch=1 n=c5 v=49
298056 On ch=1 n=c5 v=0
298056 On ch=1 n=f4 v=0
298058 On ch=1 n=a5 v=0
298452 On ch=1 n=a#4 v=39
298460 On ch=1 n=g5 v=55
298466 On ch=1 n=f4 v=34
298496 On ch=1 n=f3 v=15
298692 Par ch=1 c=64 v=63
298776 Par ch=1 c=64 v=0
298802 Par ch=1 c=64 v=63
298854 Par ch=1 c=64 v=127
299246 On ch=1 n=g5 v=0
299300 On ch=1 n=a#4 v=0
300092 On ch=1 n=f5 v=28
300098 On ch=1 n=a4 v=14
300390 Par ch=1 c=64 v=63
300516 Par ch=1 c=64 v=0
300686 On ch=1 n=f5 v=0
300694 On ch=1 n=a4 v=0
300734 On ch=1 n=f3 v=0
300750 On ch=1 n=f4 v=0
302428 Par ch=1 c=64 v=63
302480 Par ch=1 c=64 v=127
303388 Par ch=1 c=64 v=63
303426 Par ch=1 c=64 v=0
303426 Meta TrkEnd
TrkEnd
MTrk
0 SeqSpec 43 00 01 00
0 Meta TrkName "                                    "
0 TimeSig 6/8 24 8
0 Meta TrkEnd
TrkEnd
MTrk
0 SeqSpec 43 00 01 00
0 Meta TrkName "                                    "
0 TimeSig 6/8 24 8
0 Meta TrkEnd
TrkEnd
MTrk
0 SeqSpec 43 00 01 00
0 Meta TrkName "                                    "
0 TimeSig 6/8 24 8
0 Meta TrkEnd
TrkEnd
MTrk
0 SeqSpec 43 00 01 00
0 Meta TrkName "                                    "
0 TimeSig 6/8 24 8
0 Meta TrkEnd
TrkEnd
MTrk
0 SeqSpec 43 00 01 00
0 Meta TrkName "                                    "
0 TimeSig 6/8 24 8
0 Meta TrkEnd
TrkEnd
MTrk
0 SeqSpec 43 00 01 00
0 Meta TrkName "                                    "
0 TimeSig 6/8 24 8
0 Meta TrkEnd
TrkEnd
MTrk
0 SeqSpec 43 00 01 00
0 Meta TrkName "                                    "
0 TimeSig 6/8 24 8
0 Meta TrkEnd
TrkEnd
MTrk
0 SeqSpec 43 00 01 00
0 Meta TrkName "                                    "
0 TimeSig 6/8 24 8
0 Meta TrkEnd
TrkEnd
MTrk
0 SeqSpec 43 00 01 00
0 Meta TrkName "                                    "
0 TimeSig 6/8 24 8
0 Meta TrkEnd
TrkEnd
MTrk
0 SeqSpec 43 00 01 00
0 Meta TrkName "                                    "
0 TimeSig 6/8 24 8
0 Meta TrkEnd
TrkEnd
MTrk
0 SeqSpec 43 00 01 00
0 Meta TrkName "                                    "
0 TimeSig 6/8 24 8
0 Meta TrkEnd
TrkEnd
MTrk
0 SeqSpec 43 00 01 00
0 Meta TrkName "                                    "
0 TimeSig 6/8 24 8
0 Meta TrkEnd
TrkEnd
MTrk
0 SeqSpec 43 00 01 00
0 Meta TrkName "                                    "
0 TimeSig 6/8 24 8
0 Meta TrkEnd
TrkEnd
MTrk
0 SeqSpec 43 00 01 00
0 Meta TrkName "                                    "
0 TimeSig 6/8 24 8
0 Meta TrkEnd
TrkEnd
MTrk
0 SeqSpec 43 00 01 00
0 Meta TrkName "                                    "
0 TimeSig 6/8 24 8
0 Meta TrkEnd
TrkEnd
MTrk
0 SeqSpec 43 00 01 00
0 Meta TrkName "                                    "
0 TimeSig 6/8 24 8
0 Meta TrkEnd
TrkEnd
