MFile 1 18 480
MTrk
0 Tempo 500000
0 TimeSig 4/4 24 8
0 Meta TrkEnd
TrkEnd
MTrk
0 SeqSpec 43 00 01 00
0 Meta TrkName "PIANO                               "
0 TimeSig 4/4 24 8
0 SysEx f0 41 10 42 12 40 00 7f 00 41 f7
0 SysEx f0 41 10 42 12 40 00 04 64 58 f7
340 SysEx f0 41 10 42 12 40 01 30 03 0c f7
340 SysEx f0 41 10 42 12 40 01 33 50 3c f7
340 SysEx f0 41 10 42 12 40 01 34 3c 4f f7
744 Par ch=1 c=0 v=0
748 Par ch=1 c=32 v=1
752 PrCh ch=1 p=0
756 Par ch=1 c=7 v=100
948 Par ch=1 c=11 v=100
1140 Par ch=1 c=10 v=64
1332 Par ch=1 c=1 v=0
1332 Par ch=1 c=91 v=80
1350 Par ch=1 c=99 v=1
1354 Par ch=1 c=98 v=32
1358 Par ch=1 c=6 v=62
1362 Par ch=1 c=99 v=1
1366 Par ch=1 c=98 v=33
1370 Par ch=1 c=6 v=54
1374 Par ch=1 c=99 v=1
1378 Par ch=1 c=98 v=99
1382 Par ch=1 c=6 v=62
1386 Par ch=1 c=99 v=1
1390 Par ch=1 c=98 v=100
1394 Par ch=1 c=6 v=60
1398 Par ch=1 c=99 v=1
1402 Par ch=1 c=98 v=102
1406 Par ch=1 c=6 v=70
2102 Par ch=1 c=64 v=63
2196 Par ch=1 c=64 v=127
2344 On ch=1 n=a#4 v=36
2376 On ch=1 n=a#5 v=61
2824 On ch=1 n=f5 v=29
2830 On ch=1 n=a#4 v=0
3194 On ch=1 n=d5 v=36
3286 On ch=1 n=f5 v=0
3590 On ch=1 n=f5 v=27
3622 On ch=1 n=d5 v=0
3714 On ch=1 n=a#5 v=0
3988 On ch=1 n=a#4 v=34
3992 On ch=1 n=d6 v=48
4100 On ch=1 n=f5 v=0
4292 On ch=1 n=d6 v=0
4372 On ch=1 n=a#4 v=0
4390 On ch=1 n=f5 v=30
4526 On ch=1 n=d#6 v=63
4622 On ch=1 n=d#6 v=0
4630 On ch=1 n=d6 v=56
4724 On ch=1 n=c6 v=50
4726 On ch=1 n=d6 v=0
4808 On ch=1 n=f5 v=0
4808 On ch=1 n=d5 v=37
4818 On ch=1 n=d6 v=48
4842 On ch=1 n=c6 v=0
5160 On ch=1 n=d#6 v=60
5176 On ch=1 n=d5 v=0
5182 On ch=1 n=d6 v=0
5190 On ch=1 n=f5 v=34
5530 On ch=1 n=a4 v=36
5554 On ch=1 n=e6 v=68
5566 On ch=1 n=f5 v=0
5586 On ch=1 n=d#6 v=0
5652 Par ch=1 c=64 v=63
5730 Par ch=1 c=64 v=0
5772 Par ch=1 c=64 v=63
5836 Par ch=1 c=64 v=127
5918 On ch=1 n=f5 v=33
5990 On ch=1 n=a4 v=0
6326 On ch=1 n=c5 v=39
6454 On ch=1 n=f5 v=0
6678 On ch=1 n=f6 v=55
6702 On ch=1 n=f5 v=32
6718 On ch=1 n=e6 v=0
6722 On ch=1 n=c5 v=0
7092 On ch=1 n=a4 v=22
7098 On ch=1 n=c6 v=53
7164 On ch=1 n=f5 v=0
7172 On ch=1 n=f6 v=0
7186 Par ch=1 c=64 v=63
7336 Par ch=1 c=64 v=127
7502 On ch=1 n=a4 v=0
7502 On ch=1 n=f5 v=35
7658 On ch=1 n=c6 v=0
7894 On ch=1 n=c5 v=29
7924 On ch=1 n=f5 v=0
8268 On ch=1 n=c5 v=0
8284 On ch=1 n=f5 v=22
8658 Par ch=1 c=64 v=63
8766 On ch=1 n=f5 v=0
8776 On ch=1 n=g4 v=32
8794 On ch=1 n=d#6 v=70
8844 Par ch=1 c=64 v=127
9070 On ch=1 n=g4 v=0
9218 On ch=1 n=d#5 v=61
9246 On ch=1 n=d#6 v=0
9352 On ch=1 n=f6 v=68
9440 On ch=1 n=d#6 v=80
9470 On ch=1 n=f6 v=0
9522 On ch=1 n=d#5 v=0
9526 On ch=1 n=d6 v=75
9542 On ch=1 n=d#6 v=0
9572 On ch=1 n=a#4 v=58
9632 On ch=1 n=d#6 v=77
9672 On ch=1 n=d6 v=0
9942 On ch=1 n=d#6 v=0
9944 On ch=1 n=f6 v=81
9970 On ch=1 n=a#4 v=0
9972 On ch=1 n=d#5 v=70
10212 On ch=1 n=d#5 v=0
10242 On ch=1 n=d#4 v=72
10328 On ch=1 n=f6 v=0
10356 On ch=1 n=g6 v=88
10364 Par ch=1 c=64 v=63
10500 Par ch=1 c=64 v=127
10728 On ch=1 n=a#4 v=72
10762 On ch=1 n=d#4 v=0
10810 On ch=1 n=g6 v=0
10874 On ch=1 n=a6 v=73
10924 On ch=1 n=g6 v=71
10946 On ch=1 n=a6 v=0
11008 On ch=1 n=f6 v=71
11026 On ch=1 n=a#4 v=0
11032 On ch=1 n=g6 v=0
11084 On ch=1 n=g4 v=50
11106 On ch=1 n=g6 v=90
11138 On ch=1 n=f6 v=0
11452 On ch=1 n=a6 v=99
11452 On ch=1 n=a#4 v=63
11498 On ch=1 n=g4 v=0
11508 On ch=1 n=g6 v=0
11760 On ch=1 n=a6 v=0
11826 On ch=1 n=d4 v=68
11832 On ch=1 n=a#4 v=0
11848 On ch=1 n=a6 v=97
11976 Par ch=1 c=64 v=63
12034 Par ch=1 c=64 v=0
12118 Par ch=1 c=64 v=63
12162 Par ch=1 c=64 v=127
12242 On ch=1 n=a#4 v=53
12262 On ch=1 n=d4 v=0
12614 On ch=1 n=a#4 v=0
12616 On ch=1 n=a6 v=0
12622 On ch=1 n=f4 v=63
13018 On ch=1 n=a#6 v=77
13028 On ch=1 n=a#4 v=50
13084 On ch=1 n=f4 v=0
13310 On ch=1 n=a#6 v=0
13428 On ch=1 n=f6 v=66
13432 On ch=1 n=d4 v=34
13442 On ch=1 n=a#4 v=0
13588 Par ch=1 c=64 v=63
13720 Par ch=1 c=64 v=127
13782 On ch=1 n=a#4 v=39
13826 On ch=1 n=d4 v=0
14168 On ch=1 n=f4 v=45
14192 On ch=1 n=a#4 v=0
14206 On ch=1 n=f6 v=0
14558 On ch=1 n=a#4 v=39
14612 On ch=1 n=f4 v=0
15072 On ch=1 n=d#4 v=49
15106 On ch=1 n=g6 v=70
15110 Par ch=1 c=64 v=63
15138 On ch=1 n=a#4 v=0
15314 Par ch=1 c=64 v=127
15550 On ch=1 n=g4 v=46
15666 On ch=1 n=d#4 v=0
15908 On ch=1 n=d#4 v=64
16012 On ch=1 n=g4 v=0
16048 On ch=1 n=g6 v=0
16326 On ch=1 n=d#4 v=0
16328 On ch=1 n=b4 v=53
16340 On ch=1 n=g#6 v=86
16504 On ch=1 n=g6 v=75
16568 On ch=1 n=g#6 v=0
16690 On ch=1 n=d#4 v=58
16696 On ch=1 n=f6 v=82
16722 On ch=1 n=b4 v=0
16758 On ch=1 n=g6 v=0
17048 On ch=1 n=d#6 v=89
17090 On ch=1 n=c5 v=42
17094 On ch=1 n=f6 v=0
17094 On ch=1 n=d#4 v=0
17410 On ch=1 n=c5 v=0
17442 On ch=1 n=d6 v=78
17452 On ch=1 n=d#4 v=51
17514 On ch=1 n=d#6 v=0
17608 Par ch=1 c=64 v=63
17774 Par ch=1 c=64 v=127
17824 On ch=1 n=c6 v=57
17834 On ch=1 n=d#5 v=57
17844 On ch=1 n=d6 v=0
17938 On ch=1 n=d#4 v=0
17984 On ch=1 n=d#5 v=0
18266 On ch=1 n=d4 v=52
18276 On ch=1 n=e6 v=68
18290 On ch=1 n=c6 v=0
18342 Par ch=1 c=64 v=63
18540 Par ch=1 c=64 v=127
18750 On ch=1 n=f6 v=70
18756 On ch=1 n=f4 v=57
18782 On ch=1 n=e6 v=0
18870 On ch=1 n=d4 v=0
19118 On ch=1 n=d4 v=71
19164 On ch=1 n=f4 v=0
19414 On ch=1 n=f6 v=0
19498 On ch=1 n=a4 v=46
19508 On ch=1 n=d4 v=0
19518 On ch=1 n=g6 v=69
19666 On ch=1 n=f6 v=86
19722 On ch=1 n=g6 v=0
19876 On ch=1 n=d#6 v=88
19906 On ch=1 n=d4 v=45
19950 On ch=1 n=f6 v=0
19982 Par ch=1 c=64 v=63
20034 On ch=1 n=a4 v=0
20108 Par ch=1 c=64 v=127
20288 On ch=1 n=a#4 v=66
20292 On ch=1 n=d6 v=76
20330 On ch=1 n=d4 v=0
20344 On ch=1 n=d#6 v=0
20678 On ch=1 n=d4 v=58
20696 On ch=1 n=c6 v=70
20724 On ch=1 n=a#4 v=0
20728 On ch=1 n=d6 v=0
20844 Par ch=1 c=64 v=63
21054 On ch=1 n=d4 v=0
21086 On ch=1 n=a#5 v=64
21088 On ch=1 n=d5 v=41
21094 Par ch=1 c=64 v=127
21140 On ch=1 n=c6 v=0
21440 On ch=1 n=a#5 v=0
21450 On ch=1 n=d5 v=0
21558 On ch=1 n=a4 v=42
21560 On ch=1 n=f6 v=90
21710 Par ch=1 c=64 v=63
21756 Par ch=1 c=64 v=0
21802 Par ch=1 c=64 v=63
21840 Par ch=1 c=64 v=127
22064 On ch=1 n=d#6 v=78
22090 On ch=1 n=f6 v=0
22096 On ch=1 n=f5 v=27
22110 On ch=1 n=a4 v=0
22432 On ch=1 n=f5 v=0
22464 On ch=1 n=c5 v=54
22550 On ch=1 n=d#6 v=0
22810 On ch=1 n=c5 v=0
22832 On ch=1 n=f5 v=50
22834 On ch=1 n=c6 v=77
23010 On ch=1 n=c6 v=0
23122 On ch=1 n=f5 v=0
23204 On ch=1 n=a#4 v=65
23218 On ch=1 n=d#6 v=86
23260 Par ch=1 c=64 v=63
23306 Par ch=1 c=64 v=0
23416 Par ch=1 c=64 v=63
23448 Par ch=1 c=64 v=127
23640 On ch=1 n=d6 v=71
23640 On ch=1 n=f5 v=32
23672 On ch=1 n=d#6 v=0
23776 On ch=1 n=a#4 v=0
24020 On ch=1 n=f5 v=0
24024 On ch=1 n=d6 v=0
24030 On ch=1 n=d5 v=49
24436 On ch=1 n=d5 v=0
24442 On ch=1 n=a#5 v=61
24458 On ch=1 n=f5 v=21
24660 On ch=1 n=a#5 v=0
24786 On ch=1 n=f5 v=0
24908 On ch=1 n=f4 v=25
24934 On ch=1 n=d6 v=63
24958 Par ch=1 c=64 v=63
25098 Par ch=1 c=64 v=127
25346 On ch=1 n=d5 v=48
25482 On ch=1 n=f4 v=0
25566 On ch=1 n=d6 v=0
25702 On ch=1 n=a#4 v=48
25730 On ch=1 n=d5 v=0
26114 On ch=1 n=d#6 v=75
26134 On ch=1 n=d5 v=32
26164 On ch=1 n=a#4 v=0
26286 On ch=1 n=d6 v=66
26354 On ch=1 n=d#6 v=0
26492 On ch=1 n=d5 v=0
26496 On ch=1 n=c6 v=62
26534 On ch=1 n=c5 v=29
26550 On ch=1 n=a4 v=39
26564 On ch=1 n=f4 v=38
26568 On ch=1 n=d6 v=0
26584 Par ch=1 c=64 v=63
26702 Par ch=1 c=64 v=0
26990 On ch=1 n=c6 v=0
27008 On ch=1 n=f6 v=61
27174 On ch=1 n=f4 v=0
27228 On ch=1 n=a4 v=0
27242 On ch=1 n=c5 v=0
27408 On ch=1 n=d#6 v=72
27506 On ch=1 n=f6 v=0
27804 Par ch=1 c=64 v=63
27834 Par ch=1 c=64 v=127
27850 On ch=1 n=c6 v=59
27904 On ch=1 n=d#6 v=0
28176 On ch=1 n=c6 v=0
28380 On ch=1 n=a#4 v=36
28388 On ch=1 n=a#5 v=53
28492 Par ch=1 c=64 v=63
28550 Par ch=1 c=64 v=127
28826 On ch=1 n=a#5 v=0
28876 On ch=1 n=f5 v=25
28944 On ch=1 n=a#4 v=0
29088 On ch=1 n=c6 v=49
29198 On ch=1 n=a#5 v=61
29252 On ch=1 n=c6 v=0
29298 On ch=1 n=a5 v=47
29320 On ch=1 n=a#5 v=0
29378 On ch=1 n=f5 v=0
29390 On ch=1 n=c#5 v=53
29404 On ch=1 n=a#5 v=55
29442 On ch=1 n=a5 v=0
29726 On ch=1 n=a#5 v=0
29750 On ch=1 n=c6 v=79
29766 On ch=1 n=f5 v=35
29768 On ch=1 n=c#5 v=0
30008 On ch=1 n=c6 v=0
30096 On ch=1 n=a#4 v=60
30150 On ch=1 n=f5 v=0
30160 On ch=1 n=c#6 v=82
30340 On ch=1 n=c#6 v=0
30488 On ch=1 n=f5 v=53
30512 On ch=1 n=a#4 v=0
30620 On ch=1 n=d#6 v=87
30696 On ch=1 n=c#6 v=80
30720 On ch=1 n=d#6 v=0
30758 On ch=1 n=f5 v=0
30780 On ch=1 n=c6 v=73
30784 On ch=1 n=c#6 v=0
30868 On ch=1 n=c#6 v=86
30888 On ch=1 n=c#5 v=60
30896 On ch=1 n=c6 v=0
30948 On ch=1 n=c#6 v=0
31244 On ch=1 n=c#5 v=0
31246 On ch=1 n=f5 v=46
31246 On ch=1 n=d#6 v=90
31350 On ch=1 n=d#6 v=0
31440 On ch=1 n=f5 v=0
31578 On ch=1 n=g#4 v=67
31646 On ch=1 n=e6 v=94
31752 Par ch=1 c=64 v=63
31780 Par ch=1 c=64 v=0
31972 Par ch=1 c=64 v=63
31994 Par ch=1 c=64 v=127
32072 On ch=1 n=f5 v=47
32110 On ch=1 n=g#4 v=0
32446 On ch=1 n=c5 v=52
32454 On ch=1 n=f5 v=0
32816 On ch=1 n=f6 v=72
32822 On ch=1 n=e6 v=0
32838 On ch=1 n=c5 v=0
32840 On ch=1 n=f5 v=35
33230 On ch=1 n=g#4 v=37
33240 On ch=1 n=f6 v=0
33248 On ch=1 n=c6 v=56
33282 On ch=1 n=f5 v=0
33364 Par ch=1 c=64 v=63
33518 Par ch=1 c=64 v=127
33650 On ch=1 n=f5 v=33
33700 On ch=1 n=g#4 v=0
33996 On ch=1 n=c6 v=0
34016 On ch=1 n=c5 v=34
34026 On ch=1 n=f5 v=0
34412 On ch=1 n=f5 v=44
34472 On ch=1 n=c5 v=0
34648 On ch=1 n=f5 v=0
34798 On ch=1 n=f#4 v=44
34840 Par ch=1 c=64 v=63
34854 On ch=1 n=d#6 v=71
34930 Par ch=1 c=64 v=127
35192 On ch=1 n=d#6 v=0
35218 On ch=1 n=d#5 v=46
35244 On ch=1 n=f#4 v=0
35410 On ch=1 n=f6 v=71
35480 On ch=1 n=d#6 v=89
35490 On ch=1 n=d#5 v=0
35506 On ch=1 n=f6 v=0
35570 On ch=1 n=d6 v=72
35582 On ch=1 n=d#6 v=0
35628 On ch=1 n=a#4 v=57
35654 On ch=1 n=d#6 v=85
35696 On ch=1 n=d6 v=0
35816 On ch=1 n=d#6 v=0
35974 On ch=1 n=f6 v=96
35984 On ch=1 n=d#5 v=76
36002 On ch=1 n=a#4 v=0
36156 On ch=1 n=d#5 v=0
36234 On ch=1 n=f6 v=0
36288 On ch=1 n=d#4 v=74
36364 On ch=1 n=f#6 v=96
36612 Par ch=1 c=64 v=63
36684 Par ch=1 c=64 v=127
36704 On ch=1 n=a#4 v=63
36776 On ch=1 n=d#4 v=0
36840 On ch=1 n=f#6 v=0
36872 On ch=1 n=g#6 v=88
36942 On ch=1 n=f#6 v=82
36958 On ch=1 n=g#6 v=0
37024 On ch=1 n=f6 v=80
37040 On ch=1 n=f#6 v=0
37048 On ch=1 n=a#4 v=0
37078 On ch=1 n=f#4 v=58
37120 On ch=1 n=f#6 v=100
37144 On ch=1 n=f6 v=0
37496 On ch=1 n=a#4 v=74
37506 On ch=1 n=g#6 v=103
37510 Par ch=1 c=64 v=63
37538 On ch=1 n=f#6 v=0
37548 On ch=1 n=f#4 v=0
37562 Par ch=1 c=64 v=0
37606 Par ch=1 c=64 v=63
37636 Par ch=1 c=64 v=127
37882 On ch=1 n=d4 v=80
37890 On ch=1 n=g#6 v=0
37920 On ch=1 n=a6 v=100
37938 On ch=1 n=a#4 v=0
38054 Par ch=1 c=64 v=63
38100 Par ch=1 c=64 v=0
38166 Par ch=1 c=64 v=63
38202 Par ch=1 c=64 v=127
38324 On ch=1 n=a#4 v=72
38420 On ch=1 n=d4 v=0
38604 On ch=1 n=a6 v=0
38694 On ch=1 n=a#4 v=0
38696 On ch=1 n=f4 v=77
39070 On ch=1 n=a#4 v=80
39082 On ch=1 n=a#6 v=95
39154 On ch=1 n=f4 v=0
39458 On ch=1 n=c#4 v=88
39540 On ch=1 n=f6 v=90
39548 On ch=1 n=a#4 v=0
39584 On ch=1 n=a#6 v=0
39752 Par ch=1 c=64 v=63
39880 On ch=1 n=a#4 v=85
39882 Par ch=1 c=64 v=127
39986 On ch=1 n=c#4 v=0
40206 On ch=1 n=f6 v=0
40256 On ch=1 n=f4 v=72
40290 On ch=1 n=a#4 v=0
40684 On ch=1 n=a#4 v=81
40762 On ch=1 n=f4 v=0
40932 On ch=1 n=e6 v=93
41080 On ch=1 n=c4 v=100
41158 On ch=1 n=a#4 v=0
41176 Par ch=1 c=64 v=63
41202 Par ch=1 c=64 v=0
41258 On ch=1 n=c#7 v=110
41356 Par ch=1 c=64 v=63
41368 Par ch=1 c=64 v=127
41456 On ch=1 n=e6 v=0
41706 On ch=1 n=a#4 v=78
42080 On ch=1 n=g4 v=69
42116 On ch=1 n=a#4 v=0
42212 On ch=1 n=c4 v=0
42450 On ch=1 n=a#4 v=76
42506 On ch=1 n=g4 v=0
42814 On ch=1 n=c4 v=77
42858 On ch=1 n=a#4 v=0
42978 On ch=1 n=c#7 v=0
43192 On ch=1 n=a#4 v=60
43218 On ch=1 n=c7 v=84
43256 Par ch=1 c=64 v=63
43298 Par ch=1 c=64 v=0
43324 Par ch=1 c=64 v=63
43380 Par ch=1 c=64 v=127
43448 On ch=1 n=a#6 v=91
43526 On ch=1 n=c7 v=0
43572 On ch=1 n=a#6 v=0
43648 On ch=1 n=g4 v=54
43652 On ch=1 n=g#6 v=94
43686 On ch=1 n=a#4 v=0
43812 On ch=1 n=g6 v=89
43864 On ch=1 n=g#6 v=0
43902 On ch=1 n=g6 v=0
43926 On ch=1 n=c4 v=0
43958 On ch=1 n=a#4 v=71
43992 On ch=1 n=f6 v=86
43994 On ch=1 n=g6 v=69
44058 Par ch=1 c=64 v=63
44090 On ch=1 n=g6 v=0
44110 Par ch=1 c=64 v=127
44136 On ch=1 n=e6 v=86
44200 On ch=1 n=f6 v=0
44354 On ch=1 n=c#4 v=54
44358 On ch=1 n=g4 v=0
44378 On ch=1 n=g6 v=86
44388 On ch=1 n=a#4 v=0
44428 On ch=1 n=e6 v=0
44504 Par ch=1 c=64 v=63
44532 Par ch=1 c=64 v=0
44678 Par ch=1 c=64 v=63
44694 Par ch=1 c=64 v=127
44826 On ch=1 n=g#4 v=53
45098 On ch=1 n=c#4 v=0
45180 On ch=1 n=g6 v=0
45216 On ch=1 n=f6 v=73
45244 On ch=1 n=f4 v=38
45278 On ch=1 n=g#4 v=0
45596 On ch=1 n=g#4 v=61
45660 On ch=1 n=f4 v=0
45938 On ch=1 n=a#3 v=61
46010 On ch=1 n=g#4 v=0
46014 Par ch=1 c=64 v=63
46140 Par ch=1 c=64 v=127
46364 On ch=1 n=g4 v=45
46374 On ch=1 n=d#6 v=83
46450 On ch=1 n=f6 v=0
46480 Par ch=1 c=64 v=63
46566 On ch=1 n=a#3 v=0
46582 Par ch=1 c=64 v=127
46774 On ch=1 n=c#4 v=67
46862 On ch=1 n=g4 v=0
46914 On ch=1 n=d#6 v=0
47136 On ch=1 n=c#6 v=81
47168 On ch=1 n=g4 v=38
47172 On ch=1 n=c#4 v=0
47372 On ch=1 n=c#6 v=0
47490 On ch=1 n=c4 v=37
47494 On ch=1 n=c6 v=76
47542 Par ch=1 c=64 v=63
47544 On ch=1 n=g4 v=0
47578 Par ch=1 c=64 v=127
47790 On ch=1 n=c6 v=0
47870 On ch=1 n=g#4 v=49
47976 On ch=1 n=c#6 v=64
48066 On ch=1 n=c6 v=63
48086 On ch=1 n=c#6 v=0
48164 On ch=1 n=a#5 v=73
48188 On ch=1 n=c6 v=0
48204 On ch=1 n=g#4 v=0
48252 On ch=1 n=a#5 v=0
48252 On ch=1 n=f4 v=32
48266 On ch=1 n=c6 v=60
48342 Par ch=1 c=64 v=63
48456 Par ch=1 c=64 v=127
48640 On ch=1 n=g#4 v=37
48652 On ch=1 n=c#6 v=61
48682 On ch=1 n=c4 v=0
48686 On ch=1 n=c6 v=0
48742 On ch=1 n=f4 v=0
48990 On ch=1 n=g#4 v=0
49016 On ch=1 n=c#6 v=0
49060 On ch=1 n=c4 v=45
49076 On ch=1 n=f5 v=59
49148 Par ch=1 c=64 v=63
49242 Par ch=1 c=64 v=127
49414 On ch=1 n=a#4 v=50
49464 On ch=1 n=f5 v=0
49846 On ch=1 n=g#5 v=61
49860 On ch=1 n=a#4 v=0
49866 On ch=1 n=g4 v=28
49870 On ch=1 n=e5 v=40
49996 On ch=1 n=c4 v=0
50260 On ch=1 n=a#4 v=47
50264 On ch=1 n=g5 v=63
50302 On ch=1 n=g#5 v=0
50310 On ch=1 n=e5 v=0
50334 On ch=1 n=g4 v=0
50460 On ch=1 n=a#4 v=0
50748 On ch=1 n=a4 v=27
50762 On ch=1 n=f4 v=17
50764 On ch=1 n=f5 v=51
50808 On ch=1 n=g5 v=0
50876 Par ch=1 c=64 v=63
51064 Par ch=1 c=64 v=127
51278 On ch=1 n=c5 v=31
51370 On ch=1 n=a4 v=0
51402 On ch=1 n=f4 v=0
51408 On ch=1 n=c5 v=0
51682 On ch=1 n=c5 v=35
51716 Par ch=1 c=64 v=63
51788 On ch=1 n=c5 v=0
52062 On ch=1 n=c5 v=30
52178 On ch=1 n=f5 v=0
52266 On ch=1 n=c5 v=0
52272 Par ch=1 c=64 v=127
52468 On ch=1 n=a4 v=26
52476 On ch=1 n=f4 v=31
52892 On ch=1 n=c5 v=25
52914 On ch=1 n=f4 v=0
52966 On ch=1 n=a4 v=0
53304 On ch=1 n=a#4 v=35
53312 On ch=1 n=g4 v=46
53356 Par ch=1 c=64 v=63
53390 On ch=1 n=c5 v=0
53502 Par ch=1 c=64 v=127
53706 On ch=1 n=c5 v=38
53756 On ch=1 n=a#4 v=0
53784 On ch=1 n=g4 v=0
54148 On ch=1 n=g4 v=26
54162 On ch=1 n=e4 v=45
54196 Par ch=1 c=64 v=63
54226 On ch=1 n=a#5 v=76
54250 On ch=1 n=c5 v=0
54356 Par ch=1 c=64 v=127
54648 On ch=1 n=c5 v=41
54650 On ch=1 n=e4 v=0
54730 On ch=1 n=g4 v=0
54770 On ch=1 n=c5 v=0
55018 On ch=1 n=c5 v=35
55102 On ch=1 n=c5 v=0
55120 Par ch=1 c=64 v=63
55180 On ch=1 n=a#5 v=0
55408 On ch=1 n=c5 v=38
55726 Par ch=1 c=64 v=127
55774 On ch=1 n=g5 v=48
55782 On ch=1 n=e4 v=49
55798 On ch=1 n=c4 v=18
55904 On ch=1 n=c5 v=0
55944 On ch=1 n=g5 v=0
55964 On ch=1 n=e4 v=0
56080 On ch=1 n=c4 v=0
56148 Par ch=1 c=64 v=63
56192 On ch=1 n=c5 v=37
56294 Par ch=1 c=64 v=0
56408 On ch=1 n=c5 v=0
56436 Par ch=1 c=64 v=63
56496 Par ch=1 c=64 v=127
56550 On ch=1 n=e5 v=57
56562 On ch=1 n=a#4 v=33
56572 On ch=1 n=g4 v=38
56758 On ch=1 n=e5 v=0
56808 Par ch=1 c=64 v=63
56828 On ch=1 n=g4 v=0
56894 Par ch=1 c=64 v=0
56910 On ch=1 n=a#4 v=0
56962 On ch=1 n=c5 v=39
57242 Par ch=1 c=64 v=63
57288 Par ch=1 c=64 v=127
57340 On ch=1 n=f4 v=37
57344 On ch=1 n=a4 v=29
57366 On ch=1 n=c6 v=55
57438 On ch=1 n=c5 v=0
57678 On ch=1 n=c6 v=0
57764 On ch=1 n=f4 v=0
57804 On ch=1 n=c5 v=43
57946 On ch=1 n=c5 v=0
57960 On ch=1 n=a5 v=54
58100 On ch=1 n=a4 v=0
58152 On ch=1 n=c6 v=57
58158 On ch=1 n=a5 v=0
58168 On ch=1 n=c5 v=31
58194 Par ch=1 c=64 v=63
58298 Par ch=1 c=64 v=0
58336 On ch=1 n=c5 v=0
58394 Par ch=1 c=64 v=63
58494 Par ch=1 c=64 v=127
58568 On ch=1 n=c5 v=28
58744 On ch=1 n=c6 v=0
58850 On ch=1 n=c5 v=0
58956 On ch=1 n=f4 v=32
58962 On ch=1 n=a4 v=32
59062 Par ch=1 c=64 v=63
59146 Par ch=1 c=64 v=0
59214 Par ch=1 c=64 v=63
59270 Par ch=1 c=64 v=127
59348 On ch=1 n=c5 v=45
59620 On ch=1 n=f4 v=0
59634 On ch=1 n=a4 v=0
59710 On ch=1 n=a#4 v=56
59726 On ch=1 n=g4 v=50
59740 On ch=1 n=c5 v=0
60026 Par ch=1 c=64 v=63
60060 Par ch=1 c=64 v=127
60092 On ch=1 n=c5 v=51
60236 On ch=1 n=a#4 v=0
60244 On ch=1 n=g4 v=0
60498 On ch=1 n=g4 v=29
60506 On ch=1 n=a#5 v=65
60506 On ch=1 n=e4 v=41
60566 On ch=1 n=c5 v=0
60596 Par ch=1 c=64 v=63
60726 Par ch=1 c=64 v=127
60902 On ch=1 n=c5 v=51
60942 On ch=1 n=e4 v=0
60994 On ch=1 n=c5 v=0
61020 On ch=1 n=g4 v=0
61238 Par ch=1 c=64 v=63
61280 On ch=1 n=c5 v=36
61360 Par ch=1 c=64 v=127
61418 On ch=1 n=c5 v=0
61644 On ch=1 n=c5 v=41
61784 On ch=1 n=a#5 v=0
61932 On ch=1 n=c5 v=0
62014 On ch=1 n=g5 v=53
62026 On ch=1 n=e4 v=48
62030 On ch=1 n=c4 v=21
62088 Par ch=1 c=64 v=63
62132 On ch=1 n=g5 v=0
62298 Par ch=1 c=64 v=127
62394 Par ch=1 c=64 v=63
62402 On ch=1 n=e4 v=0
62416 On ch=1 n=c4 v=0
62416 On ch=1 n=c5 v=53
62548 Par ch=1 c=64 v=127
62778 On ch=1 n=a#4 v=48
62792 On ch=1 n=c5 v=0
62800 On ch=1 n=g4 v=45
62810 On ch=1 n=e5 v=57
62812 Par ch=1 c=64 v=63
62950 Par ch=1 c=64 v=127
63036 On ch=1 n=e5 v=0
63158 On ch=1 n=g4 v=0
63232 On ch=1 n=c5 v=29
63264 On ch=1 n=a#4 v=0
63492 On ch=1 n=c5 v=0
63744 On ch=1 n=a4 v=28
63746 On ch=1 n=c6 v=52
63766 On ch=1 n=f4 v=28
63810 Par ch=1 c=64 v=63
63890 Par ch=1 c=64 v=0
63946 Par ch=1 c=64 v=63
64012 Par ch=1 c=64 v=127
64504 On ch=1 n=a5 v=37
64506 On ch=1 n=c6 v=0
64824 On ch=1 n=c6 v=23
64972 On ch=1 n=a5 v=0
65318 Par ch=1 c=64 v=63
65438 On ch=1 n=f4 v=0
65466 Par ch=1 c=64 v=127
65520 On ch=1 n=a4 v=0
65558 On ch=1 n=c6 v=0
66144 On ch=1 n=f6 v=56
66150 On ch=1 n=a6 v=65
66220 Par ch=1 c=64 v=63
66388 Par ch=1 c=64 v=127
66528 On ch=1 n=f6 v=0
66674 On ch=1 n=g6 v=71
66684 On ch=1 n=a6 v=0
66684 On ch=1 n=e6 v=74
66964 On ch=1 n=e6 v=0
67072 On ch=1 n=f6 v=70
67074 On ch=1 n=d6 v=51
67112 Par ch=1 c=64 v=63
67134 On ch=1 n=g6 v=0
67182 Par ch=1 c=64 v=0
67214 On ch=1 n=f6 v=0
67246 On ch=1 n=d6 v=0
67454 On ch=1 n=c#6 v=61
67462 On ch=1 n=e6 v=64
67580 On ch=1 n=c#6 v=0
67582 On ch=1 n=e6 v=0
67826 Par ch=1 c=64 v=63
67842 On ch=1 n=f6 v=70
67846 On ch=1 n=d6 v=44
67856 Par ch=1 c=64 v=127
68238 On ch=1 n=d6 v=0
68238 On ch=1 n=e6 v=66
68258 On ch=1 n=c6 v=55
68292 On ch=1 n=f6 v=0
68508 Par ch=1 c=64 v=63
68554 Par ch=1 c=64 v=0
68602 On ch=1 n=d6 v=63
68610 On ch=1 n=a#5 v=63
68618 On ch=1 n=e6 v=0
68636 On ch=1 n=c6 v=0
68700 On ch=1 n=d6 v=0
68706 On ch=1 n=a#5 v=0
68976 On ch=1 n=a5 v=46
68982 On ch=1 n=c#6 v=80
69070 On ch=1 n=c#6 v=0
69112 On ch=1 n=a5 v=0
69348 On ch=1 n=d6 v=72
69362 On ch=1 n=a#5 v=76
69378 Par ch=1 c=64 v=63
69398 Par ch=1 c=64 v=127
69734 On ch=1 n=a#5 v=0
69746 On ch=1 n=c6 v=73
69752 On ch=1 n=d6 v=0
69756 On ch=1 n=a5 v=38
69840 On ch=1 n=a5 v=0
69856 On ch=1 n=c6 v=0
70132 On ch=1 n=a#5 v=78
70156 On ch=1 n=g5 v=40
70226 On ch=1 n=a#5 v=0
70234 On ch=1 n=g5 v=0
70258 Par ch=1 c=64 v=63
70324 Par ch=1 c=64 v=0
70582 On ch=1 n=a5 v=63
70586 On ch=1 n=f#5 v=66
70672 On ch=1 n=f#5 v=0
70692 On ch=1 n=a5 v=0
71182 On ch=1 n=c5 v=59
71190 On ch=1 n=a5 v=83
71190 On ch=1 n=f#4 v=64
71198 On ch=1 n=f#5 v=76
71198 On ch=1 n=d4 v=49
71200 On ch=1 n=a4 v=56
71206 On ch=1 n=d5 v=62
71594 Par ch=1 c=64 v=63
71676 Par ch=1 c=64 v=127
71738 Par ch=1 c=64 v=63
71810 Par ch=1 c=64 v=0
72330 Par ch=1 c=64 v=63
72334 Par ch=1 c=64 v=127
72544 On ch=1 n=d4 v=0
72616 On ch=1 n=f#4 v=0
72632 On ch=1 n=a4 v=0
72680 On ch=1 n=f#5 v=0
72738 On ch=1 n=a5 v=0
72998 On ch=1 n=d5 v=0
73220 On ch=1 n=a#4 v=29
73236 On ch=1 n=a#5 v=55
73262 On ch=1 n=g5 v=47
73266 On ch=1 n=g4 v=32
73276 On ch=1 n=d5 v=9
73326 On ch=1 n=c5 v=0
73472 On ch=1 n=a#5 v=0
73516 On ch=1 n=d5 v=0
73548 On ch=1 n=g5 v=0
73674 On ch=1 n=c6 v=76
73770 On ch=1 n=a#5 v=80
73786 On ch=1 n=c6 v=0
73858 On ch=1 n=a5 v=70
73864 On ch=1 n=a#5 v=0
73942 On ch=1 n=a#5 v=79
73978 On ch=1 n=a5 v=0
74060 On ch=1 n=e5 v=59
74092 On ch=1 n=c6 v=89
74096 On ch=1 n=a#4 v=0
74098 Par ch=1 c=64 v=63
74144 On ch=1 n=a#5 v=0
74236 Par ch=1 c=64 v=127
74474 On ch=1 n=d6 v=84
74616 On ch=1 n=c6 v=0
74686 On ch=1 n=e5 v=0
74886 On ch=1 n=c6 v=84
74900 On ch=1 n=a4 v=52
74902 On ch=1 n=f5 v=57
74924 On ch=1 n=d6 v=0
74992 On ch=1 n=g4 v=0
75000 Par ch=1 c=64 v=63
75074 Par ch=1 c=64 v=0
75128 Par ch=1 c=64 v=63
75184 Par ch=1 c=64 v=127
75250 On ch=1 n=a#5 v=79
75332 On ch=1 n=c6 v=0
75524 On ch=1 n=a5 v=68
75544 On ch=1 n=f5 v=0
75584 On ch=1 n=a#5 v=0
75770 On ch=1 n=a4 v=0
75780 On ch=1 n=g5 v=63
75782 On ch=1 n=a#4 v=52
75784 On ch=1 n=d5 v=63
75792 On ch=1 n=a5 v=0
75824 Par ch=1 c=64 v=63
75876 Par ch=1 c=64 v=0
75944 Par ch=1 c=64 v=63
75990 Par ch=1 c=64 v=127
76060 On ch=1 n=a#5 v=77
76174 On ch=1 n=g5 v=0
76176 On ch=1 n=d5 v=0
76266 On ch=1 n=a#4 v=0
76368 On ch=1 n=d6 v=65
76468 On ch=1 n=a#5 v=0
76696 On ch=1 n=d6 v=0
76710 On ch=1 n=f5 v=61
76710 On ch=1 n=a4 v=42
76756 On ch=1 n=c4 v=35
76838 Par ch=1 c=64 v=63
76944 Par ch=1 c=64 v=127
77204 On ch=1 n=a4 v=0
77294 On ch=1 n=f5 v=0
77686 On ch=1 n=a#4 v=52
77690 On ch=1 n=g5 v=52
77712 On ch=1 n=e5 v=32
77820 Par ch=1 c=64 v=63
77958 Par ch=1 c=64 v=127
78032 On ch=1 n=c4 v=0
78224 On ch=1 n=e5 v=0
78254 On ch=1 n=a#4 v=0
78280 On ch=1 n=g5 v=0
78758 On ch=1 n=g5 v=54
78764 On ch=1 n=e5 v=34
78780 On ch=1 n=a4 v=17
78784 On ch=1 n=f4 v=25
78848 Par ch=1 c=64 v=63
78952 Par ch=1 c=64 v=127
79176 On ch=1 n=g5 v=0
79238 On ch=1 n=c5 v=41
79364 On ch=1 n=c5 v=0
79416 On ch=1 n=g#5 v=51
79456 On ch=1 n=e5 v=0
79588 On ch=1 n=g#5 v=0
79664 On ch=1 n=c5 v=40
79668 On ch=1 n=a5 v=45
79668 On ch=1 n=f5 v=43
79746 On ch=1 n=a4 v=0
79778 Par ch=1 c=64 v=63
79806 On ch=1 n=c5 v=0
79932 Par ch=1 c=64 v=127
80056 Par ch=1 c=64 v=63
80100 On ch=1 n=c5 v=47
80168 Par ch=1 c=64 v=127
80230 On ch=1 n=f4 v=0
80262 On ch=1 n=c5 v=0
80418 On ch=1 n=f5 v=0
80460 On ch=1 n=a5 v=0
80480 On ch=1 n=a4 v=44
80494 On ch=1 n=f4 v=51
80644 Par ch=1 c=64 v=63
80812 Par ch=1 c=64 v=127
80854 On ch=1 n=c5 v=44
80860 On ch=1 n=f4 v=0
80874 On ch=1 n=a4 v=0
81228 On ch=1 n=c5 v=0
81234 On ch=1 n=a#4 v=53
81252 On ch=1 n=g4 v=47
81292 Par ch=1 c=64 v=63
81408 Par ch=1 c=64 v=127
81638 On ch=1 n=c5 v=45
81652 On ch=1 n=a#4 v=0
81658 On ch=1 n=g4 v=0
81988 On ch=1 n=c5 v=0
82012 Par ch=1 c=64 v=63
82038 On ch=1 n=g4 v=31
82040 On ch=1 n=a#5 v=82
82052 On ch=1 n=e4 v=32
82168 Par ch=1 c=64 v=127
82448 On ch=1 n=c5 v=43
82460 On ch=1 n=e4 v=0
82540 On ch=1 n=g4 v=0
82568 On ch=1 n=c5 v=0
82832 On ch=1 n=c5 v=37
82854 Par ch=1 c=64 v=63
82904 On ch=1 n=c5 v=0
82910 Par ch=1 c=64 v=0
82958 On ch=1 n=a#5 v=0
83040 Par ch=1 c=64 v=63
83168 Par ch=1 c=64 v=127
83224 On ch=1 n=c5 v=56
83514 Par ch=1 c=64 v=63
83526 On ch=1 n=c5 v=0
83570 Par ch=1 c=64 v=0
83596 On ch=1 n=g5 v=60
83628 On ch=1 n=c4 v=30
83628 On ch=1 n=e4 v=43
83632 Par ch=1 c=64 v=63
83674 Par ch=1 c=64 v=127
83728 On ch=1 n=g5 v=0
83910 Par ch=1 c=64 v=63
83924 On ch=1 n=e4 v=0
83966 On ch=1 n=c4 v=0
83984 Par ch=1 c=64 v=0
84008 On ch=1 n=c5 v=46
84072 Par ch=1 c=64 v=63
84190 Par ch=1 c=64 v=127
84250 Par ch=1 c=64 v=63
84298 On ch=1 n=c5 v=0
84378 Par ch=1 c=64 v=0
84392 On ch=1 n=e5 v=58
84394 On ch=1 n=a#4 v=40
84402 Par ch=1 c=64 v=63
84410 On ch=1 n=g4 v=49
84472 Par ch=1 c=64 v=127
84540 On ch=1 n=e5 v=0
84592 On ch=1 n=g4 v=0
84798 On ch=1 n=a#4 v=0
84804 On ch=1 n=c5 v=37
84870 Par ch=1 c=64 v=63
84964 Par ch=1 c=64 v=0
85192 Par ch=1 c=64 v=63
85216 On ch=1 n=a4 v=27
85224 On ch=1 n=c6 v=65
85232 On ch=1 n=f4 v=36
85242 Par ch=1 c=64 v=127
85318 On ch=1 n=c5 v=0
85586 On ch=1 n=c6 v=0
85672 On ch=1 n=f4 v=0
85688 On ch=1 n=c5 v=46
85802 On ch=1 n=c5 v=0
85842 On ch=1 n=a5 v=54
86014 On ch=1 n=a4 v=0
86042 On ch=1 n=c5 v=32
86052 On ch=1 n=c6 v=51
86086 On ch=1 n=a5 v=0
86094 Par ch=1 c=64 v=63
86178 Par ch=1 c=64 v=0
86216 Par ch=1 c=64 v=63
86252 On ch=1 n=c5 v=0
86280 Par ch=1 c=64 v=127
86408 On ch=1 n=c5 v=39
86668 On ch=1 n=c6 v=0
86812 On ch=1 n=c5 v=0
86820 On ch=1 n=a4 v=38
86842 On ch=1 n=f4 v=38
86896 Par ch=1 c=64 v=63
86992 Par ch=1 c=64 v=0
87210 On ch=1 n=c5 v=55
87214 On ch=1 n=f4 v=0
87266 On ch=1 n=a4 v=0
87586 On ch=1 n=a#4 v=57
87596 On ch=1 n=g4 v=50
87626 On ch=1 n=c5 v=0
87956 On ch=1 n=g4 v=0
87956 On ch=1 n=c5 v=69
88006 On ch=1 n=a#4 v=0
88314 On ch=1 n=e4 v=57
88320 On ch=1 n=g4 v=34
88358 On ch=1 n=a#5 v=80
88392 On ch=1 n=c5 v=0
88416 Par ch=1 c=64 v=63
88436 Par ch=1 c=64 v=127
88768 On ch=1 n=e4 v=0
88768 On ch=1 n=c5 v=42
88818 On ch=1 n=g4 v=0
88902 On ch=1 n=c5 v=0
88960 On ch=1 n=a#5 v=0
89142 On ch=1 n=c5 v=43
89154 Par ch=1 c=64 v=63
89202 Par ch=1 c=64 v=0
89328 On ch=1 n=c5 v=0
89504 On ch=1 n=c5 v=52
89868 On ch=1 n=g5 v=61
89882 On ch=1 n=e4 v=36
89888 On ch=1 n=c4 v=33
89914 On ch=1 n=c5 v=0
89932 Par ch=1 c=64 v=63
89950 Par ch=1 c=64 v=127
89974 Par ch=1 c=64 v=63
90000 On ch=1 n=g5 v=0
90014 Par ch=1 c=64 v=0
90256 On ch=1 n=c4 v=0
90276 On ch=1 n=e4 v=0
90300 On ch=1 n=c5 v=45
90626 On ch=1 n=c5 v=0
90654 On ch=1 n=e5 v=54
90660 On ch=1 n=a#4 v=43
90678 On ch=1 n=g4 v=41
90742 Par ch=1 c=64 v=63
90750 Par ch=1 c=64 v=127
90844 On ch=1 n=e5 v=0
90886 Par ch=1 c=64 v=63
90906 Par ch=1 c=64 v=0
91032 On ch=1 n=g4 v=0
91100 On ch=1 n=c5 v=31
91130 On ch=1 n=a#4 v=0
91390 On ch=1 n=c5 v=0
91508 On ch=1 n=c6 v=48
91514 On ch=1 n=a4 v=33
91536 On ch=1 n=f4 v=33
91592 Par ch=1 c=64 v=63
91598 Par ch=1 c=64 v=127
91778 On ch=1 n=c6 v=0
92234 On ch=1 n=f6 v=41
92468 On ch=1 n=f6 v=0
92476 On ch=1 n=c6 v=44
92662 Par ch=1 c=64 v=63
92698 Par ch=1 c=64 v=0
92838 Par ch=1 c=64 v=63
92862 Par ch=1 c=64 v=127
93010 On ch=1 n=c6 v=0
93028 On ch=1 n=f4 v=0
93126 On ch=1 n=a4 v=0
93600 Par ch=1 c=64 v=63
93656 Par ch=1 c=64 v=0
93854 Par ch=1 c=64 v=63
93854 On ch=1 n=a6 v=90
93864 On ch=1 n=f6 v=78
93886 Par ch=1 c=64 v=127
94324 On ch=1 n=f6 v=0
94336 On ch=1 n=a6 v=0
94388 On ch=1 n=g6 v=84
94406 On ch=1 n=e6 v=71
94662 On ch=1 n=e6 v=0
94704 On ch=1 n=g6 v=0
94750 Par ch=1 c=64 v=63
94758 On ch=1 n=f6 v=72
94760 On ch=1 n=d6 v=68
94804 Par ch=1 c=64 v=0
94864 On ch=1 n=f6 v=0
94890 On ch=1 n=d6 v=0
95154 On ch=1 n=c#6 v=76
95154 On ch=1 n=e6 v=81
95236 On ch=1 n=c#6 v=0
95282 On ch=1 n=e6 v=0
95550 On ch=1 n=f6 v=84
95556 On ch=1 n=d6 v=81
95624 Par ch=1 c=64 v=63
95640 Par ch=1 c=64 v=127
95892 On ch=1 n=f6 v=0
95906 On ch=1 n=d6 v=0
95942 On ch=1 n=c6 v=81
95946 On ch=1 n=e6 v=91
96040 On ch=1 n=c6 v=0
96044 On ch=1 n=e6 v=0
96298 On ch=1 n=d6 v=81
96306 On ch=1 n=a#5 v=79
96376 Par ch=1 c=64 v=63
96398 On ch=1 n=d6 v=0
96418 On ch=1 n=a#5 v=0
96418 Par ch=1 c=64 v=0
96646 On ch=1 n=c#6 v=80
96670 On ch=1 n=a5 v=57
96748 On ch=1 n=c#6 v=0
96774 On ch=1 n=a5 v=0
97018 On ch=1 n=a#5 v=79
97024 On ch=1 n=d6 v=68
97032 Par ch=1 c=64 v=63
97060 Par ch=1 c=64 v=127
97226 On ch=1 n=a#5 v=0
97304 On ch=1 n=d6 v=0
97402 On ch=1 n=c6 v=74
97416 On ch=1 n=a5 v=50
97642 Par ch=1 c=64 v=63
97680 Par ch=1 c=64 v=0
97750 On ch=1 n=a5 v=0
97768 On ch=1 n=g5 v=52
97772 On ch=1 n=a#5 v=83
97800 Par ch=1 c=64 v=63
97814 On ch=1 n=c6 v=0
97840 Par ch=1 c=64 v=127
97878 On ch=1 n=a#5 v=0
97880 On ch=1 n=g5 v=0
97914 Par ch=1 c=64 v=63
97990 Par ch=1 c=64 v=0
98218 On ch=1 n=a5 v=69
98224 On ch=1 n=f#5 v=78
98310 On ch=1 n=f#5 v=0
98324 On ch=1 n=a5 v=0
98794 On ch=1 n=a5 v=82
98798 On ch=1 n=c5 v=61
98802 On ch=1 n=f#5 v=80
98804 On ch=1 n=d5 v=70
98810 On ch=1 n=f#4 v=66
98810 On ch=1 n=a4 v=62
98814 On ch=1 n=d4 v=58
99880 Par ch=1 c=64 v=63
99884 Par ch=1 c=64 v=127
100106 On ch=1 n=f#4 v=0
100134 On ch=1 n=d5 v=0
100142 On ch=1 n=a5 v=0
100150 On ch=1 n=f#5 v=0
100160 On ch=1 n=a4 v=0
100164 On ch=1 n=d4 v=0
100380 On ch=1 n=c5 v=0
100512 On ch=1 n=a#5 v=67
100524 On ch=1 n=a#4 v=58
100532 On ch=1 n=g5 v=54
100532 On ch=1 n=d5 v=46
100546 On ch=1 n=g4 v=46
100594 Par ch=1 c=64 v=63
100614 Par ch=1 c=64 v=127
100752 On ch=1 n=a#5 v=0
100790 On ch=1 n=g5 v=0
100834 On ch=1 n=d5 v=0
100954 On ch=1 n=c6 v=74
101038 On ch=1 n=a#5 v=88
101060 On ch=1 n=c6 v=0
101126 On ch=1 n=a5 v=71
101138 On ch=1 n=a#5 v=0
101220 On ch=1 n=a#5 v=90
101248 On ch=1 n=a5 v=0
101316 Par ch=1 c=64 v=63
101322 On ch=1 n=e5 v=73
101338 On ch=1 n=c6 v=93
101394 On ch=1 n=a#5 v=0
101500 Par ch=1 c=64 v=127
101514 On ch=1 n=a#4 v=0
101690 On ch=1 n=g4 v=0
101696 On ch=1 n=d6 v=98
101782 On ch=1 n=c6 v=0
101896 On ch=1 n=e5 v=0
102066 On ch=1 n=a4 v=60
102074 On ch=1 n=f5 v=76
102088 On ch=1 n=d6 v=0
102106 On ch=1 n=c6 v=90
102200 Par ch=1 c=64 v=63
102250 Par ch=1 c=64 v=0
102336 Par ch=1 c=64 v=63
102378 Par ch=1 c=64 v=127
102430 On ch=1 n=f6 v=84
102476 On ch=1 n=c6 v=0
102560 On ch=1 n=f5 v=0
102636 On ch=1 n=f6 v=0
102656 On ch=1 n=a5 v=76
102722 On ch=1 n=a4 v=0
102904 On ch=1 n=g5 v=71
102906 On ch=1 n=a#4 v=55
102910 On ch=1 n=d5 v=65
102930 On ch=1 n=a5 v=0
103014 Par ch=1 c=64 v=63
103052 Par ch=1 c=64 v=0
103160 On ch=1 n=a#5 v=70
103162 Par ch=1 c=64 v=63
103198 Par ch=1 c=64 v=127
103228 On ch=1 n=g5 v=0
103324 On ch=1 n=a#4 v=0
103342 On ch=1 n=d5 v=0
103416 On ch=1 n=d6 v=65
103480 On ch=1 n=a#5 v=0
103700 On ch=1 n=d6 v=0
103710 On ch=1 n=a4 v=55
103720 On ch=1 n=f5 v=68
103738 On ch=1 n=c4 v=43
103808 Par ch=1 c=64 v=63
103858 Par ch=1 c=64 v=0
103964 Par ch=1 c=64 v=63
104006 Par ch=1 c=64 v=127
104644 On ch=1 n=e5 v=51
104648 On ch=1 n=g4 v=36
104680 On ch=1 n=f5 v=0
104730 On ch=1 n=a4 v=0
104732 Par ch=1 c=64 v=63
104794 Par ch=1 c=64 v=0
104950 Par ch=1 c=64 v=63
104982 Par ch=1 c=64 v=127
105070 On ch=1 n=e5 v=0
105438 On ch=1 n=c4 v=0
105462 On ch=1 n=g4 v=0
105648 On ch=1 n=a5 v=73
105844 Par ch=1 c=64 v=63
105898 Par ch=1 c=64 v=0
105918 On ch=1 n=a6 v=83
106080 On ch=1 n=a5 v=0
106120 Par ch=1 c=64 v=63
106152 Par ch=1 c=64 v=127
106372 On ch=1 n=f4 v=66
106726 On ch=1 n=a4 v=70
106776 On ch=1 n=a6 v=0
106804 On ch=1 n=f4 v=0
106916 On ch=1 n=f6 v=71
107028 On ch=1 n=f6 v=0
107100 On ch=1 n=a4 v=0
107106 On ch=1 n=d5 v=71
107120 On ch=1 n=f6 v=76
107196 On ch=1 n=d5 v=0
107216 On ch=1 n=f6 v=0
107236 On ch=1 n=g6 v=79
107296 On ch=1 n=f6 v=68
107334 On ch=1 n=g6 v=0
107366 On ch=1 n=e6 v=91
107376 On ch=1 n=f6 v=0
107412 On ch=1 n=f6 v=97
107432 On ch=1 n=e6 v=0
107492 On ch=1 n=f6 v=0
107538 Par ch=1 c=64 v=63
107552 On ch=1 n=a#5 v=108
107556 Par ch=1 c=64 v=0
107688 Par ch=1 c=64 v=63
107708 Par ch=1 c=64 v=127
107746 On ch=1 n=a#6 v=95
107818 On ch=1 n=a#5 v=0
107992 On ch=1 n=g4 v=74
108346 On ch=1 n=a#4 v=78
108398 On ch=1 n=g4 v=0
108432 On ch=1 n=a#6 v=0
108496 On ch=1 n=g6 v=93
108610 On ch=1 n=g6 v=0
108640 On ch=1 n=a#4 v=0
108696 On ch=1 n=g6 v=86
108712 On ch=1 n=e5 v=77
108770 On ch=1 n=e5 v=0
108772 On ch=1 n=a6 v=86
108780 On ch=1 n=g6 v=0
108838 On ch=1 n=g6 v=80
108864 On ch=1 n=a6 v=0
108912 On ch=1 n=f#6 v=103
108918 On ch=1 n=g6 v=0
108972 On ch=1 n=g6 v=87
109016 On ch=1 n=f#6 v=0
109106 On ch=1 n=c7 v=108
109158 On ch=1 n=g6 v=0
109170 Par ch=1 c=64 v=63
109202 Par ch=1 c=64 v=0
109422 Par ch=1 c=64 v=63
109438 Par ch=1 c=64 v=127
109514 On ch=1 n=a4 v=82
109728 On ch=1 n=a6 v=102
109774 On ch=1 n=c7 v=0
109962 On ch=1 n=f6 v=97
109964 On ch=1 n=c5 v=87
109996 On ch=1 n=a6 v=0
110348 On ch=1 n=f5 v=87
110658 On ch=1 n=a4 v=0
110692 On ch=1 n=c5 v=0
110846 On ch=1 n=a4 v=88
111042 Par ch=1 c=64 v=63
111078 Par ch=1 c=64 v=0
111228 Par ch=1 c=64 v=63
111252 Par ch=1 c=64 v=127
111398 On ch=1 n=d#6 v=97
111492 On ch=1 n=f6 v=0
111788 On ch=1 n=d#5 v=88
111794 On ch=1 n=d6 v=78
111842 On ch=1 n=d#6 v=0
111940 Par ch=1 c=64 v=63
111994 Par ch=1 c=64 v=0
112056 Par ch=1 c=64 v=63
112098 Par ch=1 c=64 v=127
112272 On ch=1 n=c#6 v=89
112316 On ch=1 n=d6 v=0
112634 On ch=1 n=d#5 v=0
112676 On ch=1 n=f5 v=0
112794 On ch=1 n=c#6 v=0
112816 On ch=1 n=d6 v=65
112824 On ch=1 n=f5 v=48
112836 On ch=1 n=a4 v=0
112840 On ch=1 n=d5 v=46
112852 On ch=1 n=a#4 v=52
113004 Par ch=1 c=64 v=63
113076 Par ch=1 c=64 v=0
113130 Par ch=1 c=64 v=63
113194 Par ch=1 c=64 v=127
113394 On ch=1 n=d6 v=0
113416 On ch=1 n=e6 v=54
113618 On ch=1 n=f5 v=0
113672 On ch=1 n=e6 v=0
113676 On ch=1 n=f#6 v=73
113684 On ch=1 n=d5 v=0
113778 On ch=1 n=a#4 v=0
113810 On ch=1 n=f#6 v=0
113874 On ch=1 n=g6 v=77
113876 Par ch=1 c=64 v=63
114004 On ch=1 n=g6 v=0
114006 Par ch=1 c=64 v=0
114054 On ch=1 n=a6 v=85
114152 On ch=1 n=a6 v=0
114212 On ch=1 n=a#6 v=98
114294 On ch=1 n=a#6 v=0
114382 On ch=1 n=c#7 v=100
114504 On ch=1 n=c#7 v=0
114582 On ch=1 n=a#4 v=46
114586 On ch=1 n=d5 v=57
114590 On ch=1 n=d7 v=88
114600 On ch=1 n=g5 v=49
114794 On ch=1 n=d7 v=0
114832 On ch=1 n=c7 v=82
114930 On ch=1 n=c7 v=0
115010 On ch=1 n=a#6 v=86
115098 On ch=1 n=a#6 v=0
115160 On ch=1 n=a#4 v=0
115172 On ch=1 n=g5 v=0
115172 On ch=1 n=a6 v=80
115182 On ch=1 n=d5 v=0
115278 On ch=1 n=a6 v=0
115364 On ch=1 n=g6 v=83
115514 On ch=1 n=g6 v=0
115542 On ch=1 n=f6 v=75
115596 On ch=1 n=f6 v=0
115754 On ch=1 n=e6 v=76
115834 On ch=1 n=e6 v=0
115978 On ch=1 n=d6 v=75
116202 On ch=1 n=d6 v=0
116310 On ch=1 n=c6 v=80
116314 On ch=1 n=c4 v=35
116350 Par ch=1 c=64 v=63
116390 Par ch=1 c=64 v=127
116716 On ch=1 n=c6 v=0
116776 On ch=1 n=a4 v=45
117154 On ch=1 n=f4 v=38
117256 On ch=1 n=c7 v=83
117308 On ch=1 n=a4 v=0
117758 On ch=1 n=a4 v=62
118050 On ch=1 n=c4 v=0
118114 On ch=1 n=c4 v=58
118156 On ch=1 n=c7 v=0
118208 On ch=1 n=a4 v=0
118256 On ch=1 n=f4 v=0
118386 On ch=1 n=a6 v=84
118538 On ch=1 n=a4 v=64
118692 On ch=1 n=f6 v=85
118718 On ch=1 n=a6 v=0
118886 On ch=1 n=a4 v=0
118888 On ch=1 n=f4 v=54
118910 On ch=1 n=c6 v=84
118912 On ch=1 n=f6 v=0
119028 On ch=1 n=c6 v=0
119086 On ch=1 n=a5 v=72
119172 On ch=1 n=a5 v=0
119298 On ch=1 n=f6 v=63
119356 On ch=1 n=f6 v=0
119436 On ch=1 n=a4 v=50
119476 On ch=1 n=f4 v=0
119592 On ch=1 n=c4 v=0
119696 On ch=1 n=f5 v=87
119722 On ch=1 n=a4 v=0
119914 On ch=1 n=c4 v=51
119916 On ch=1 n=g5 v=71
119978 Par ch=1 c=64 v=63
119992 On ch=1 n=f5 v=0
120002 Par ch=1 c=64 v=0
120090 Par ch=1 c=64 v=63
120120 Par ch=1 c=64 v=127
120160 On ch=1 n=a5 v=67
120174 On ch=1 n=g5 v=0
120294 On ch=1 n=a#4 v=53
120310 On ch=1 n=a5 v=0
120314 On ch=1 n=g5 v=62
120422 On ch=1 n=g5 v=0
120422 On ch=1 n=a5 v=57
120498 On ch=1 n=a5 v=0
120504 On ch=1 n=g5 v=56
120542 On ch=1 n=a#4 v=0
120564 On ch=1 n=e4 v=48
120586 On ch=1 n=a5 v=58
120600 On ch=1 n=g5 v=0
120650 On ch=1 n=a5 v=0
120670 On ch=1 n=g5 v=65
120730 On ch=1 n=a5 v=65
120752 On ch=1 n=g5 v=0
120802 On ch=1 n=a5 v=0
120814 On ch=1 n=g5 v=60
120878 On ch=1 n=a5 v=63
120908 On ch=1 n=g5 v=0
120948 On ch=1 n=a#4 v=57
120950 On ch=1 n=a5 v=0
120950 On ch=1 n=g5 v=56
121002 On ch=1 n=c4 v=0
121020 On ch=1 n=a5 v=63
121050 On ch=1 n=g5 v=0
121090 On ch=1 n=e4 v=0
121092 On ch=1 n=a5 v=0
121098 On ch=1 n=g5 v=68
121160 On ch=1 n=a5 v=77
121192 On ch=1 n=g5 v=0
121238 On ch=1 n=a5 v=0
121242 On ch=1 n=g5 v=79
121300 On ch=1 n=a5 v=86
121314 On ch=1 n=c4 v=59
121322 On ch=1 n=a#4 v=0
121330 On ch=1 n=g5 v=0
121374 On ch=1 n=a5 v=0
121386 On ch=1 n=g5 v=80
121454 On ch=1 n=a5 v=86
121478 On ch=1 n=g5 v=0
121520 On ch=1 n=a5 v=0
121532 On ch=1 n=g5 v=81
121594 On ch=1 n=a5 v=92
121626 On ch=1 n=g5 v=0
121648 On ch=1 n=a#4 v=78
121664 On ch=1 n=a5 v=0
121678 On ch=1 n=g5 v=86
121750 On ch=1 n=a5 v=90
121772 On ch=1 n=g5 v=0
121816 On ch=1 n=a5 v=0
121828 On ch=1 n=g5 v=78
121890 On ch=1 n=a5 v=84
121912 On ch=1 n=g5 v=0
121956 On ch=1 n=a5 v=0
121972 On ch=1 n=g5 v=76
122034 On ch=1 n=a#4 v=0
122042 On ch=1 n=a5 v=77
122048 On ch=1 n=e4 v=55
122058 On ch=1 n=g5 v=0
122092 On ch=1 n=a5 v=0
122112 On ch=1 n=g5 v=66
122190 On ch=1 n=a5 v=82
122210 On ch=1 n=g5 v=0
122310 On ch=1 n=a5 v=0
122316 On ch=1 n=g5 v=65
122390 On ch=1 n=a5 v=77
122396 On ch=1 n=g5 v=0
122438 On ch=1 n=a#4 v=52
122462 On ch=1 n=a5 v=0
122468 On ch=1 n=c4 v=0
122472 On ch=1 n=g5 v=61
122498 On ch=1 n=e4 v=0
122570 On ch=1 n=g5 v=0
122578 On ch=1 n=f5 v=52
122582 On ch=1 n=a#4 v=0
122652 On ch=1 n=g5 v=56
122664 On ch=1 n=f5 v=0
122834 On ch=1 n=g5 v=0
122846 On ch=1 n=f5 v=64
122864 On ch=1 n=f4 v=46
122946 Par ch=1 c=64 v=63
122984 Par ch=1 c=64 v=0
123184 Par ch=1 c=64 v=63
123212 Par ch=1 c=64 v=127
123326 On ch=1 n=c5 v=70
123342 On ch=1 n=f5 v=0
123702 On ch=1 n=f5 v=61
123748 On ch=1 n=c5 v=0
123836 On ch=1 n=f6 v=84
123982 On ch=1 n=f6 v=0
124074 On ch=1 n=d#5 v=68
124112 On ch=1 n=f6 v=73
124218 On ch=1 n=f6 v=0
124240 On ch=1 n=g6 v=77
124286 On ch=1 n=g6 v=0
124288 On ch=1 n=f6 v=72
124380 On ch=1 n=f6 v=0
124382 On ch=1 n=e6 v=81
124406 On ch=1 n=d#5 v=0
124462 On ch=1 n=f6 v=87
124480 On ch=1 n=e6 v=0
124568 On ch=1 n=d5 v=56
124618 Par ch=1 c=64 v=63
124620 On ch=1 n=c7 v=83
124648 On ch=1 n=f6 v=0
124664 Par ch=1 c=64 v=0
124834 On ch=1 n=f5 v=0
124882 Par ch=1 c=64 v=63
124902 Par ch=1 c=64 v=127
125112 On ch=1 n=a#6 v=75
125126 On ch=1 n=c7 v=0
125498 On ch=1 n=a#6 v=0
125528 On ch=1 n=a6 v=68
125534 On ch=1 n=a#4 v=51
125624 Par ch=1 c=64 v=63
125692 Par ch=1 c=64 v=0
125704 On ch=1 n=d5 v=0
125714 Par ch=1 c=64 v=63
125772 Par ch=1 c=64 v=127
125964 On ch=1 n=g6 v=59
125972 On ch=1 n=a6 v=0
126044 On ch=1 n=f4 v=0
126054 On ch=1 n=a#4 v=0
126138 On ch=1 n=g6 v=0
126360 On ch=1 n=g6 v=65
126382 On ch=1 n=a4 v=41
126392 On ch=1 n=f4 v=33
126460 Par ch=1 c=64 v=63
126522 Par ch=1 c=64 v=0
126620 Par ch=1 c=64 v=63
126674 Par ch=1 c=64 v=127
126750 On ch=1 n=c5 v=65
126752 On ch=1 n=f6 v=67
126816 On ch=1 n=g6 v=0
126942 On ch=1 n=a4 v=0
127058 On ch=1 n=f6 v=0
127168 On ch=1 n=f5 v=68
127210 On ch=1 n=c5 v=0
127400 On ch=1 n=f6 v=84
127526 On ch=1 n=f6 v=0
127650 On ch=1 n=d#5 v=70
127670 On ch=1 n=f6 v=84
127726 On ch=1 n=f5 v=0
127750 On ch=1 n=g6 v=79
127758 On ch=1 n=f6 v=0
127796 On ch=1 n=g6 v=0
127814 On ch=1 n=f6 v=79
127904 On ch=1 n=f6 v=0
127906 On ch=1 n=e6 v=88
127978 On ch=1 n=f6 v=87
128014 On ch=1 n=e6 v=0
128134 On ch=1 n=d5 v=55
128136 On ch=1 n=c7 v=85
128154 Par ch=1 c=64 v=63
128170 On ch=1 n=f6 v=0
128204 On ch=1 n=d#5 v=0
128206 Par ch=1 c=64 v=0
128390 Par ch=1 c=64 v=63
128418 Par ch=1 c=64 v=127
128660 On ch=1 n=a#6 v=81
128694 On ch=1 n=c7 v=0
129070 On ch=1 n=a6 v=68
129080 On ch=1 n=a#4 v=50
129118 On ch=1 n=a#6 v=0
129156 On ch=1 n=d5 v=0
129242 Par ch=1 c=64 v=63
129368 Par ch=1 c=64 v=0
129470 Par ch=1 c=64 v=63
129508 Par ch=1 c=64 v=127
129516 On ch=1 n=g6 v=62
129574 On ch=1 n=a6 v=0
129694 On ch=1 n=a#4 v=0
129698 On ch=1 n=f4 v=0
129740 On ch=1 n=g6 v=0
129948 On ch=1 n=g6 v=55
129958 On ch=1 n=f4 v=33
129960 On ch=1 n=a4 v=44
130144 Par ch=1 c=64 v=63
130168 On ch=1 n=f6 v=63
130232 On ch=1 n=g6 v=0
130248 Par ch=1 c=64 v=0
130268 Par ch=1 c=64 v=63
130358 Par ch=1 c=64 v=127
130374 On ch=1 n=a#4 v=72
130392 On ch=1 n=g4 v=54
130418 On ch=1 n=a4 v=0
130610 On ch=1 n=f6 v=0
130784 On ch=1 n=a#4 v=0
130790 On ch=1 n=g4 v=0
130790 On ch=1 n=a4 v=65
130792 On ch=1 n=f6 v=84
130794 On ch=1 n=c5 v=74
130856 Par ch=1 c=64 v=63
130922 Par ch=1 c=64 v=127
131094 On ch=1 n=c5 v=0
131216 On ch=1 n=d5 v=83
131222 On ch=1 n=a#4 v=74
131266 On ch=1 n=a4 v=0
131476 On ch=1 n=a#4 v=0
131488 On ch=1 n=d5 v=0
131488 On ch=1 n=f6 v=0
131742 On ch=1 n=f6 v=85
131754 On ch=1 n=d#5 v=78
131754 On ch=1 n=c5 v=63
131844 Par ch=1 c=64 v=63
131902 Par ch=1 c=64 v=0
131924 Par ch=1 c=64 v=63
131962 Par ch=1 c=64 v=127
132146 On ch=1 n=d#5 v=0
132194 On ch=1 n=c5 v=0
132296 On ch=1 n=b4 v=40
132296 On ch=1 n=d5 v=55
132310 On ch=1 n=f4 v=0
132384 On ch=1 n=b4 v=0
132424 On ch=1 n=d5 v=0
132436 On ch=1 n=f6 v=0
132822 On ch=1 n=d#5 v=67
132842 On ch=1 n=f6 v=71
132854 On ch=1 n=c5 v=52
133224 On ch=1 n=d#5 v=0
133228 On ch=1 n=c5 v=0
133480 On ch=1 n=d5 v=44
133496 On ch=1 n=b4 v=35
133634 On ch=1 n=f6 v=0
134000 On ch=1 n=b4 v=0
134068 On ch=1 n=d5 v=0
134610 On ch=1 n=f6 v=76
134626 On ch=1 n=d#5 v=31
134634 On ch=1 n=f4 v=24
134636 On ch=1 n=c5 v=48
134798 Par ch=1 c=64 v=63
134890 Par ch=1 c=64 v=0
135116 Par ch=1 c=64 v=63
135154 Par ch=1 c=64 v=127
135522 On ch=1 n=c5 v=0
135522 On ch=1 n=f4 v=0
135548 On ch=1 n=d#5 v=0
137084 On ch=1 n=f6 v=0
137122 On ch=1 n=e6 v=30
137466 On ch=1 n=f6 v=47
137544 On ch=1 n=e6 v=0
137708 On ch=1 n=g6 v=57
137784 On ch=1 n=f6 v=0
137916 On ch=1 n=f6 v=65
137938 On ch=1 n=g6 v=0
138036 On ch=1 n=f6 v=0
138156 On ch=1 n=f6 v=64
138362 On ch=1 n=d#6 v=68
138382 On ch=1 n=f6 v=0
138450 Par ch=1 c=64 v=63
138570 Par ch=1 c=64 v=0
138644 On ch=1 n=d6 v=63
138682 On ch=1 n=d#6 v=0
138908 On ch=1 n=d6 v=0
138918 On ch=1 n=c6 v=59
139294 On ch=1 n=a#4 v=40
139346 On ch=1 n=c6 v=0
139358 On ch=1 n=a#5 v=51
139364 Par ch=1 c=64 v=63
139402 Par ch=1 c=64 v=127
139756 On ch=1 n=a#5 v=0
139824 On ch=1 n=f5 v=23
139988 On ch=1 n=c6 v=51
140074 On ch=1 n=a#5 v=47
140088 On ch=1 n=c6 v=0
140184 On ch=1 n=a#5 v=0
140192 On ch=1 n=a5 v=44
140200 On ch=1 n=f5 v=0
140256 On ch=1 n=d5 v=30
140304 On ch=1 n=a#5 v=63
140324 On ch=1 n=a5 v=0
140522 On ch=1 n=a#4 v=0
140604 On ch=1 n=a#5 v=0
140644 On ch=1 n=c6 v=72
140672 On ch=1 n=f5 v=37
140694 On ch=1 n=d5 v=0
140968 On ch=1 n=c6 v=0
141018 On ch=1 n=a#4 v=48
141038 On ch=1 n=d6 v=83
141070 On ch=1 n=f5 v=0
141358 On ch=1 n=d6 v=0
141422 On ch=1 n=f5 v=57
141574 On ch=1 n=d#6 v=68
141652 On ch=1 n=d6 v=70
141670 On ch=1 n=d#6 v=0
141704 On ch=1 n=c6 v=76
141716 On ch=1 n=d6 v=0
141750 On ch=1 n=f5 v=0
141798 On ch=1 n=d6 v=83
141804 On ch=1 n=d5 v=53
141828 On ch=1 n=c6 v=0
142148 On ch=1 n=d#6 v=95
142164 On ch=1 n=f5 v=56
142194 On ch=1 n=d6 v=0
142222 On ch=1 n=d5 v=0
142346 On ch=1 n=a#4 v=0
142476 On ch=1 n=a4 v=48
142532 On ch=1 n=e6 v=92
142546 On ch=1 n=f5 v=0
142580 On ch=1 n=d#6 v=0
142698 Par ch=1 c=64 v=63
142756 Par ch=1 c=64 v=0
142908 Par ch=1 c=64 v=63
142932 On ch=1 n=f5 v=47
142942 Par ch=1 c=64 v=127
143084 On ch=1 n=a4 v=0
143280 On ch=1 n=c5 v=61
143306 On ch=1 n=f5 v=0
143682 On ch=1 n=f6 v=62
143696 On ch=1 n=c5 v=0
143696 On ch=1 n=e6 v=0
143698 On ch=1 n=f5 v=42
144068 On ch=1 n=a4 v=25
144074 On ch=1 n=c6 v=57
144114 On ch=1 n=f6 v=0
144146 On ch=1 n=f5 v=0
144204 Par ch=1 c=64 v=63
144374 Par ch=1 c=64 v=127
144446 On ch=1 n=f5 v=39
144496 On ch=1 n=a4 v=0
144666 On ch=1 n=c6 v=0
144822 On ch=1 n=c5 v=39
144838 On ch=1 n=f5 v=0
145132 Par ch=1 c=64 v=63
145194 On ch=1 n=f5 v=39
145226 On ch=1 n=c5 v=0
145230 Par ch=1 c=64 v=0
145376 Par ch=1 c=64 v=63
145504 Par ch=1 c=64 v=127
145628 On ch=1 n=g4 v=42
145640 On ch=1 n=d#6 v=79
145702 On ch=1 n=f5 v=0
145870 On ch=1 n=g4 v=0
145948 On ch=1 n=d#6 v=0
146036 On ch=1 n=d#5 v=62
146142 On ch=1 n=f6 v=73
146232 On ch=1 n=d#6 v=81
146250 On ch=1 n=f6 v=0
146318 On ch=1 n=d#6 v=0
146318 On ch=1 n=d6 v=68
146320 On ch=1 n=d#5 v=0
146388 On ch=1 n=a#4 v=57
146394 On ch=1 n=d#6 v=93
146432 On ch=1 n=d6 v=0
146712 On ch=1 n=d#6 v=0
146718 On ch=1 n=f6 v=89
146750 On ch=1 n=d#5 v=76
146766 On ch=1 n=a#4 v=0
147022 On ch=1 n=d#5 v=0
147026 On ch=1 n=d#4 v=81
147108 On ch=1 n=f6 v=0
147114 On ch=1 n=g6 v=90
147186 Par ch=1 c=64 v=63
147336 Par ch=1 c=64 v=127
147480 On ch=1 n=a#4 v=66
147540 On ch=1 n=d#4 v=0
147582 On ch=1 n=g6 v=0
147614 On ch=1 n=a6 v=78
147656 On ch=1 n=a6 v=0
147676 On ch=1 n=g6 v=70
147736 On ch=1 n=f6 v=84
147756 On ch=1 n=g6 v=0
147810 On ch=1 n=a#4 v=0
147836 On ch=1 n=g6 v=91
147840 On ch=1 n=f6 v=0
147862 On ch=1 n=g4 v=66
148204 On ch=1 n=g6 v=0
148204 On ch=1 n=a6 v=100
148206 On ch=1 n=a#4 v=68
148208 On ch=1 n=g4 v=0
148508 On ch=1 n=a6 v=0
148590 On ch=1 n=d4 v=76
148606 On ch=1 n=a6 v=103
148626 On ch=1 n=a#4 v=0
148712 Par ch=1 c=64 v=63
148760 Par ch=1 c=64 v=0
148866 Par ch=1 c=64 v=63
148904 Par ch=1 c=64 v=127
149004 On ch=1 n=a#4 v=65
149024 On ch=1 n=d4 v=0
149378 On ch=1 n=a#4 v=0
149382 On ch=1 n=f4 v=76
149752 On ch=1 n=a#6 v=86
149776 On ch=1 n=a#4 v=54
149802 On ch=1 n=f4 v=0
149834 On ch=1 n=a6 v=0
150152 On ch=1 n=d4 v=54
150172 On ch=1 n=a#6 v=0
150172 On ch=1 n=f6 v=69
150192 On ch=1 n=a#4 v=0
150280 Par ch=1 c=64 v=63
150332 Par ch=1 c=64 v=0
150480 Par ch=1 c=64 v=63
150510 Par ch=1 c=64 v=127
150560 On ch=1 n=a#4 v=56
150620 On ch=1 n=d4 v=0
150638 On ch=1 n=f6 v=0
150960 On ch=1 n=f4 v=41
151006 On ch=1 n=a#4 v=0
151326 Par ch=1 c=64 v=63
151338 On ch=1 n=a#4 v=51
151452 On ch=1 n=f4 v=0
151470 Par ch=1 c=64 v=0
151838 On ch=1 n=d#4 v=46
151872 On ch=1 n=f#6 v=84
151878 Par ch=1 c=64 v=63
151884 On ch=1 n=a#4 v=0
151952 Par ch=1 c=64 v=127
152320 On ch=1 n=f#6 v=0
152322 On ch=1 n=g6 v=81
152348 On ch=1 n=g4 v=34
152398 On ch=1 n=d#4 v=0
152798 On ch=1 n=d#4 v=63
152852 On ch=1 n=g6 v=0
153140 On ch=1 n=g4 v=0
153172 On ch=1 n=g#6 v=88
153180 On ch=1 n=b4 v=57
153188 On ch=1 n=d#4 v=0
153320 On ch=1 n=g6 v=75
153322 On ch=1 n=g#6 v=0
153474 On ch=1 n=b4 v=0
153504 On ch=1 n=d#4 v=49
153512 On ch=1 n=f6 v=89
153592 On ch=1 n=g6 v=0
153608 Par ch=1 c=64 v=63
153670 Par ch=1 c=64 v=0
153708 Par ch=1 c=64 v=63
153766 Par ch=1 c=64 v=127
153856 On ch=1 n=f6 v=0
153890 On ch=1 n=d#6 v=88
153900 On ch=1 n=c5 v=67
154100 On ch=1 n=d#4 v=0
154158 On ch=1 n=d#6 v=0
154260 On ch=1 n=d6 v=90
154262 On ch=1 n=d#4 v=66
154266 On ch=1 n=c5 v=0
154426 Par ch=1 c=64 v=63
154554 Par ch=1 c=64 v=127
154638 On ch=1 n=c6 v=90
154640 On ch=1 n=d#5 v=72
154662 On ch=1 n=d6 v=0
154810 On ch=1 n=d#5 v=0
154922 On ch=1 n=d#4 v=0
154942 On ch=1 n=c6 v=0
155070 On ch=1 n=d4 v=58
155130 On ch=1 n=g6 v=68
155248 Par ch=1 c=64 v=63
155300 Par ch=1 c=64 v=0
155480 Par ch=1 c=64 v=63
155500 Par ch=1 c=64 v=127
155520 On ch=1 n=f6 v=69
155544 On ch=1 n=g6 v=0
155602 On ch=1 n=f4 v=41
155766 On ch=1 n=d4 v=0
155942 On ch=1 n=d4 v=70
156002 On ch=1 n=f6 v=0
156068 On ch=1 n=f4 v=0
156298 On ch=1 n=a4 v=60
156304 On ch=1 n=d4 v=0
156324 On ch=1 n=g6 v=84
156392 Par ch=1 c=64 v=63
156476 Par ch=1 c=64 v=127
156514 On ch=1 n=f6 v=88
156612 On ch=1 n=g6 v=0
156654 On ch=1 n=f6 v=0
156692 On ch=1 n=d4 v=58
156710 On ch=1 n=f6 v=90
156742 Par ch=1 c=64 v=63
156784 On ch=1 n=a4 v=0
156852 Par ch=1 c=64 v=127
156866 On ch=1 n=d#6 v=91
156932 On ch=1 n=f6 v=0
156964 On ch=1 n=d#6 v=0
157016 On ch=1 n=a#4 v=61
157026 On ch=1 n=d#6 v=78
157028 Par ch=1 c=64 v=63
157066 On ch=1 n=d4 v=0
157126 Par ch=1 c=64 v=127
157162 On ch=1 n=d6 v=82
157230 On ch=1 n=d#6 v=0
157272 On ch=1 n=d6 v=0
157316 Par ch=1 c=64 v=63
157326 On ch=1 n=d4 v=55
157344 On ch=1 n=d6 v=80
157452 Par ch=1 c=64 v=127
157484 On ch=1 n=c6 v=75
157550 On ch=1 n=d6 v=0
157570 On ch=1 n=d4 v=0
157590 Par ch=1 c=64 v=63
157600 On ch=1 n=c6 v=0
157672 On ch=1 n=d5 v=47
157678 On ch=1 n=c6 v=65
157684 On ch=1 n=a#4 v=0
157722 Par ch=1 c=64 v=127
157838 On ch=1 n=a#5 v=73
157846 On ch=1 n=c6 v=0
157962 On ch=1 n=d5 v=0
158042 On ch=1 n=a#5 v=0
158078 On ch=1 n=a4 v=37
158098 On ch=1 n=f6 v=76
158218 Par ch=1 c=64 v=63
158286 Par ch=1 c=64 v=0
158318 On ch=1 n=e6 v=70
158320 Par ch=1 c=64 v=63
158334 On ch=1 n=f6 v=0
158398 Par ch=1 c=64 v=127
158478 On ch=1 n=e6 v=0
158562 Par ch=1 c=64 v=63
158566 On ch=1 n=f5 v=44
158578 On ch=1 n=d#6 v=76
158618 Par ch=1 c=64 v=0
158684 Par ch=1 c=64 v=63
158748 Par ch=1 c=64 v=127
158876 On ch=1 n=d#6 v=0
158942 On ch=1 n=f5 v=0
158950 On ch=1 n=c5 v=58
159198 On ch=1 n=a4 v=0
159270 On ch=1 n=c6 v=69
159284 On ch=1 n=f5 v=35
159308 On ch=1 n=c5 v=0
159428 On ch=1 n=c6 v=0
159616 On ch=1 n=a#4 v=54
159640 On ch=1 n=f5 v=0
159670 On ch=1 n=d#6 v=69
159704 Par ch=1 c=64 v=63
159810 Par ch=1 c=64 v=0
159854 On ch=1 n=c#6 v=74
159860 On ch=1 n=d#6 v=0
159968 On ch=1 n=c#6 v=0
160070 On ch=1 n=f5 v=32
160080 On ch=1 n=d6 v=74
160126 Par ch=1 c=64 v=63
160176 Par ch=1 c=64 v=127
160454 On ch=1 n=f5 v=0
160466 On ch=1 n=d5 v=42
160536 On ch=1 n=d6 v=0
160920 On ch=1 n=a#5 v=63
160942 On ch=1 n=f5 v=25
160948 On ch=1 n=d5 v=0
161020 On ch=1 n=a#4 v=0
161136 On ch=1 n=a#5 v=0
161308 On ch=1 n=f5 v=0
161356 On ch=1 n=f4 v=46
161374 On ch=1 n=d6 v=68
161478 Par ch=1 c=64 v=63
161538 Par ch=1 c=64 v=0
161576 Par ch=1 c=64 v=63
161636 Par ch=1 c=64 v=127
161732 On ch=1 n=d5 v=52
162018 On ch=1 n=d6 v=0
162118 On ch=1 n=a#4 v=60
162152 On ch=1 n=d5 v=0
162520 On ch=1 n=d5 v=36
162524 On ch=1 n=d#6 v=83
162562 On ch=1 n=f4 v=0
162652 On ch=1 n=a#4 v=0
162686 On ch=1 n=d6 v=78
162714 On ch=1 n=d5 v=0
162762 On ch=1 n=d#6 v=0
162946 On ch=1 n=c5 v=48
162946 On ch=1 n=c6 v=65
162972 On ch=1 n=a4 v=42
162984 On ch=1 n=f4 v=28
162984 Par ch=1 c=64 v=63
163002 On ch=1 n=d6 v=0
163032 Par ch=1 c=64 v=0
163136 Par ch=1 c=64 v=63
163176 Par ch=1 c=64 v=127
163290 On ch=1 n=c6 v=0
163362 On ch=1 n=f6 v=72
163414 Par ch=1 c=64 v=63
163580 Par ch=1 c=64 v=127
163656 On ch=1 n=e6 v=78
163662 On ch=1 n=f6 v=0
163732 On ch=1 n=f4 v=0
163778 On ch=1 n=c5 v=0
163834 On ch=1 n=a4 v=0
163938 On ch=1 n=d#6 v=72
163948 On ch=1 n=e6 v=0
164170 On ch=1 n=d6 v=71
164176 On ch=1 n=d#6 v=0
164368 On ch=1 n=d#6 v=80
164402 On ch=1 n=d6 v=0
164526 Par ch=1 c=64 v=63
164574 On ch=1 n=c6 v=73
164576 On ch=1 n=d#6 v=0
164866 On ch=1 n=a#4 v=51
164892 On ch=1 n=c6 v=0
164964 On ch=1 n=a#5 v=68
165046 Par ch=1 c=64 v=63
165082 Par ch=1 c=64 v=127
165452 On ch=1 n=a#5 v=0
165466 On ch=1 n=f5 v=29
165716 On ch=1 n=c6 v=62
165824 On ch=1 n=a#5 v=66
165848 On ch=1 n=c6 v=0
165920 On ch=1 n=a#5 v=0
165920 On ch=1 n=a5 v=70
166002 On ch=1 n=c#5 v=60
166006 On ch=1 n=f5 v=0
166016 On ch=1 n=a#5 v=74
166030 On ch=1 n=a5 v=0
166088 On ch=1 n=a#5 v=0
166380 On ch=1 n=c6 v=81
166398 On ch=1 n=f5 v=53
166480 On ch=1 n=a#4 v=0
166562 On ch=1 n=c6 v=0
166576 On ch=1 n=c#5 v=0
166724 On ch=1 n=a#4 v=57
166790 On ch=1 n=c#6 v=87
166818 On ch=1 n=f5 v=0
166960 Par ch=1 c=64 v=63
166966 Par ch=1 c=64 v=127
167166 On ch=1 n=f5 v=69
167202 On ch=1 n=c#6 v=0
167340 On ch=1 n=d#6 v=80
167344 On ch=1 n=f5 v=0
167396 On ch=1 n=c#6 v=85
167428 On ch=1 n=d#6 v=0
167474 On ch=1 n=c6 v=81
167486 On ch=1 n=c#6 v=0
167560 On ch=1 n=c#5 v=80
167566 On ch=1 n=c#6 v=96
167580 On ch=1 n=a#4 v=0
167606 On ch=1 n=c6 v=0
167702 On ch=1 n=c#6 v=0
167936 On ch=1 n=d#6 v=104
167948 On ch=1 n=f5 v=73
167962 On ch=1 n=c#5 v=0
168174 On ch=1 n=d#6 v=0
168300 On ch=1 n=g#4 v=66
168384 On ch=1 n=f5 v=0
168386 On ch=1 n=e6 v=106
168518 Par ch=1 c=64 v=63
168554 Par ch=1 c=64 v=0
168642 Par ch=1 c=64 v=63
168660 Par ch=1 c=64 v=127
168882 On ch=1 n=f5 v=65
169226 On ch=1 n=f5 v=0
169254 On ch=1 n=c5 v=69
169460 On ch=1 n=g#4 v=0
169684 On ch=1 n=f6 v=67
169688 On ch=1 n=f5 v=36
169708 On ch=1 n=e6 v=0
169778 On ch=1 n=c5 v=0
170112 On ch=1 n=g#4 v=50
170158 On ch=1 n=f6 v=0
170162 On ch=1 n=c6 v=63
170264 On ch=1 n=f5 v=0
170580 On ch=1 n=f5 v=51
170622 On ch=1 n=g#4 v=0
170672 On ch=1 n=c6 v=0
170940 On ch=1 n=c5 v=59
170956 On ch=1 n=f5 v=0
171354 On ch=1 n=f5 v=53
171382 On ch=1 n=c5 v=0
171622 On ch=1 n=f5 v=0
171926 On ch=1 n=f#4 v=72
171966 On ch=1 n=d#5 v=95
172320 Par ch=1 c=64 v=63
172388 Par ch=1 c=64 v=0
172480 On ch=1 n=a#4 v=70
172488 Par ch=1 c=64 v=63
172532 Par ch=1 c=64 v=127
172630 On ch=1 n=f#4 v=0
172864 On ch=1 n=f#4 v=69
172896 On ch=1 n=d#5 v=0
172898 On ch=1 n=a#4 v=0
173066 On ch=1 n=f5 v=73
173224 On ch=1 n=d#5 v=84
173266 On ch=1 n=f5 v=0
173390 On ch=1 n=a#4 v=58
173392 On ch=1 n=d5 v=82
173404 On ch=1 n=d#5 v=0
173460 On ch=1 n=f#4 v=0
173516 On ch=1 n=d#5 v=99
173536 On ch=1 n=d5 v=0
173626 On ch=1 n=d#5 v=0
173644 On ch=1 n=e5 v=81
173764 On ch=1 n=f5 v=90
173784 On ch=1 n=e5 v=0
173872 On ch=1 n=d#4 v=79
173884 On ch=1 n=f#5 v=97
173894 On ch=1 n=a#4 v=0
173902 On ch=1 n=f5 v=0
173912 Par ch=1 c=64 v=63
173998 Par ch=1 c=64 v=127
174000 On ch=1 n=f#5 v=0
174002 On ch=1 n=g5 v=79
174112 On ch=1 n=g#5 v=96
174118 On ch=1 n=g5 v=0
174214 On ch=1 n=g#5 v=0
174226 On ch=1 n=a5 v=74
174298 On ch=1 n=a#4 v=67
174314 On ch=1 n=a#5 v=99
174318 On ch=1 n=a5 v=0
174396 On ch=1 n=a#5 v=0
174416 On ch=1 n=b5 v=88
174508 On ch=1 n=c6 v=94
174510 On ch=1 n=b5 v=0
174594 On ch=1 n=c#6 v=97
174604 On ch=1 n=c6 v=0
174672 On ch=1 n=a#4 v=0
174678 On ch=1 n=c#6 v=0
174678 On ch=1 n=f#4 v=81
174680 On ch=1 n=d6 v=85
174758 On ch=1 n=d#6 v=101
174762 On ch=1 n=d6 v=0
174838 On ch=1 n=d#6 v=0
174848 On ch=1 n=e6 v=98
174932 On ch=1 n=f6 v=100
174940 On ch=1 n=e6 v=0
175010 On ch=1 n=f#6 v=104
175026 On ch=1 n=f6 v=0
175036 On ch=1 n=a#4 v=90
175094 On ch=1 n=g6 v=91
175106 On ch=1 n=f#6 v=0
175170 On ch=1 n=f#4 v=0
175176 On ch=1 n=g#6 v=105
175194 On ch=1 n=g6 v=0
175256 On ch=1 n=d#4 v=0
175268 On ch=1 n=a6 v=97
175326 On ch=1 n=g#6 v=0
175360 On ch=1 n=a6 v=0
175398 On ch=1 n=d4 v=93
175420 On ch=1 n=a6 v=114
175428 On ch=1 n=a#4 v=0
175442 Par ch=1 c=64 v=63
175478 Par ch=1 c=64 v=0
175552 Par ch=1 c=64 v=63
175580 Par ch=1 c=64 v=127
175850 On ch=1 n=a#4 v=88
175852 On ch=1 n=a6 v=0
175994 On ch=1 n=a#6 v=86
176062 On ch=1 n=a6 v=86
176108 On ch=1 n=a#6 v=0
176124 On ch=1 n=g6 v=85
176158 On ch=1 n=a6 v=0
176198 On ch=1 n=a#4 v=0
176200 On ch=1 n=a6 v=104
176224 On ch=1 n=f4 v=71
176258 On ch=1 n=g6 v=0
176530 On ch=1 n=a6 v=0
176574 On ch=1 n=a#4 v=72
176642 On ch=1 n=a#6 v=104
176716 On ch=1 n=d4 v=0
176870 On ch=1 n=a#6 v=0
177006 On ch=1 n=c#4 v=90
177052 On ch=1 n=a#4 v=0
177072 Par ch=1 c=64 v=63
177074 On ch=1 n=f6 v=91
177082 Par ch=1 c=64 v=0
177102 On ch=1 n=f4 v=0
177212 Par ch=1 c=64 v=63
177224 Par ch=1 c=64 v=127
177500 On ch=1 n=a#4 v=79
177576 On ch=1 n=c#4 v=0
177708 On ch=1 n=f6 v=0
177858 On ch=1 n=f4 v=84
177870 On ch=1 n=a#4 v=0
178286 On ch=1 n=a#4 v=80
178348 Par ch=1 c=64 v=63
178358 Par ch=1 c=64 v=0
178388 On ch=1 n=f4 v=0
178424 Par ch=1 c=64 v=63
178448 Par ch=1 c=64 v=127
178464 On ch=1 n=e6 v=101
178654 On ch=1 n=c4 v=92
178786 Par ch=1 c=64 v=63
178804 Par ch=1 c=64 v=0
178856 On ch=1 n=c#7 v=106
178922 Par ch=1 c=64 v=63
178930 Par ch=1 c=64 v=127
179080 On ch=1 n=a#4 v=0
179124 On ch=1 n=e6 v=0
179404 On ch=1 n=a#4 v=68
179578 On ch=1 n=c4 v=0
179826 On ch=1 n=g4 v=71
179882 On ch=1 n=a#4 v=0
180162 On ch=1 n=a#4 v=86
180240 On ch=1 n=g4 v=0
180524 On ch=1 n=c4 v=97
180526 On ch=1 n=c#7 v=0
180610 On ch=1 n=a#4 v=0
180924 On ch=1 n=a#4 v=76
180948 On ch=1 n=c7 v=94
181074 On ch=1 n=c4 v=0
181192 On ch=1 n=a#6 v=106
181266 On ch=1 n=c7 v=0
181324 On ch=1 n=a#6 v=0
181370 On ch=1 n=g4 v=68
181402 On ch=1 n=g#6 v=101
181404 On ch=1 n=a#4 v=0
181562 On ch=1 n=g6 v=97
181606 On ch=1 n=g#6 v=0
181650 On ch=1 n=g6 v=0
181694 Par ch=1 c=64 v=63
181708 Par ch=1 c=64 v=0
181712 On ch=1 n=a#4 v=72
181716 On ch=1 n=g6 v=85
181718 On ch=1 n=f6 v=93
181770 Par ch=1 c=64 v=63
181810 Par ch=1 c=64 v=127
181868 On ch=1 n=e6 v=104
181892 On ch=1 n=g6 v=0
181932 On ch=1 n=f6 v=0
181936 On ch=1 n=g4 v=0
182108 On ch=1 n=c#4 v=63
182132 On ch=1 n=g6 v=99
182134 On ch=1 n=a#4 v=0
182170 On ch=1 n=e6 v=0
182304 Par ch=1 c=64 v=63
182330 Par ch=1 c=64 v=0
182444 Par ch=1 c=64 v=63
182458 Par ch=1 c=64 v=127
182642 On ch=1 n=g#4 v=70
182996 On ch=1 n=f4 v=59
183034 On ch=1 n=f6 v=91
183040 On ch=1 n=g#4 v=0
183108 On ch=1 n=g6 v=0
183376 On ch=1 n=g#4 v=73
183438 On ch=1 n=c#4 v=0
183448 On ch=1 n=f4 v=0
183758 On ch=1 n=a#3 v=74
183772 Par ch=1 c=64 v=63
183814 Par ch=1 c=64 v=0
183946 On ch=1 n=g#4 v=0
183972 Par ch=1 c=64 v=63
184002 Par ch=1 c=64 v=127
184200 On ch=1 n=g4 v=58
184222 On ch=1 n=e6 v=83
184276 On ch=1 n=f6 v=0
184568 On ch=1 n=c#4 v=52
184672 On ch=1 n=a#3 v=0
184676 On ch=1 n=d#6 v=90
184696 On ch=1 n=g4 v=0
184734 On ch=1 n=e6 v=0
184908 On ch=1 n=d#6 v=0
184996 On ch=1 n=d6 v=96
185170 On ch=1 n=g4 v=54
185240 On ch=1 n=c#4 v=0
185280 On ch=1 n=c#6 v=98
185310 On ch=1 n=d6 v=0
185510 On ch=1 n=c4 v=58
185526 On ch=1 n=c#6 v=0
185586 On ch=1 n=g4 v=0
185596 On ch=1 n=c6 v=91
185672 Par ch=1 c=64 v=63
185698 Par ch=1 c=64 v=0
185770 Par ch=1 c=64 v=63
185806 Par ch=1 c=64 v=127
185998 On ch=1 n=g#4 v=63
186008 On ch=1 n=c6 v=0
186130 On ch=1 n=c#6 v=74
186226 On ch=1 n=c6 v=75
186240 On ch=1 n=c#6 v=0
186308 On ch=1 n=a#5 v=87
186334 On ch=1 n=c6 v=0
186376 On ch=1 n=g#4 v=0
186406 On ch=1 n=f4 v=36
186420 On ch=1 n=a#5 v=0
186430 On ch=1 n=c6 v=76
186478 Par ch=1 c=64 v=63
186508 Par ch=1 c=64 v=0
186580 Par ch=1 c=64 v=63
186624 Par ch=1 c=64 v=127
186790 On ch=1 n=g#4 v=56
186810 On ch=1 n=c#6 v=73
186864 On ch=1 n=c6 v=0
186870 On ch=1 n=f4 v=0
186916 On ch=1 n=c4 v=0
187034 On ch=1 n=g#4 v=0
187196 On ch=1 n=c4 v=45
187208 On ch=1 n=c#6 v=0
187208 On ch=1 n=f5 v=75
187264 Par ch=1 c=64 v=63
187290 Par ch=1 c=64 v=0
187386 Par ch=1 c=64 v=63
187412 Par ch=1 c=64 v=127
187594 On ch=1 n=a#4 v=58
187650 On ch=1 n=f5 v=0
187712 On ch=1 n=c4 v=0
188046 On ch=1 n=a#4 v=0
188048 On ch=1 n=g#5 v=72
188062 On ch=1 n=g4 v=42
188068 On ch=1 n=e5 v=54
188176 Par ch=1 c=64 v=63
188216 Par ch=1 c=64 v=127
188508 On ch=1 n=g5 v=59
188516 On ch=1 n=a#4 v=55
188600 On ch=1 n=g#5 v=0
188618 On ch=1 n=g4 v=0
188672 On ch=1 n=a#4 v=0
188734 On ch=1 n=e5 v=0
189072 On ch=1 n=a4 v=35
189088 On ch=1 n=f4 v=38
189102 On ch=1 n=f5 v=50
189132 On ch=1 n=g5 v=0
189186 Par ch=1 c=64 v=63
189218 Par ch=1 c=64 v=0
189316 Par ch=1 c=64 v=63
189340 Par ch=1 c=64 v=127
189586 On ch=1 n=f5 v=0
189656 On ch=1 n=a4 v=0
189816 On ch=1 n=f5 v=49
189950 On ch=1 n=f5 v=0
189982 On ch=1 n=f4 v=0
190252 On ch=1 n=f5 v=50
190364 On ch=1 n=f5 v=0
190622 On ch=1 n=f5 v=59
190768 On ch=1 n=f5 v=0
191028 On ch=1 n=a#4 v=56
191028 On ch=1 n=d5 v=44
191142 Par ch=1 c=64 v=63
191188 Par ch=1 c=64 v=0
191320 Par ch=1 c=64 v=63
191358 Par ch=1 c=64 v=127
191434 On ch=1 n=f5 v=59
191538 On ch=1 n=d5 v=0
191614 On ch=1 n=f5 v=0
191616 On ch=1 n=a#4 v=0
191856 On ch=1 n=d#5 v=58
191872 On ch=1 n=c5 v=63
191898 Par ch=1 c=64 v=63
191968 Par ch=1 c=64 v=0
192034 Par ch=1 c=64 v=63
192092 Par ch=1 c=64 v=127
192300 On ch=1 n=f5 v=43
192366 On ch=1 n=c5 v=0
192450 On ch=1 n=d#5 v=0
192730 On ch=1 n=f5 v=0
192844 On ch=1 n=a4 v=27
192852 On ch=1 n=c5 v=31
192876 On ch=1 n=d#6 v=86
192964 Par ch=1 c=64 v=63
193016 Par ch=1 c=64 v=0
193120 Par ch=1 c=64 v=63
193154 Par ch=1 c=64 v=127
193370 On ch=1 n=f5 v=43
193494 On ch=1 n=f5 v=0
193728 On ch=1 n=c5 v=0
193732 On ch=1 n=a4 v=0
193764 On ch=1 n=f5 v=36
193890 On ch=1 n=f5 v=0
194138 On ch=1 n=f5 v=35
194360 On ch=1 n=d#6 v=0
194402 On ch=1 n=f5 v=0
194518 On ch=1 n=a4 v=36
194526 On ch=1 n=c6 v=58
194536 On ch=1 n=f4 v=28
194574 Par ch=1 c=64 v=63
194680 On ch=1 n=c6 v=0
194686 Par ch=1 c=64 v=0
194906 On ch=1 n=f4 v=0
194910 On ch=1 n=a4 v=0
194940 On ch=1 n=f5 v=35
194998 Par ch=1 c=64 v=63
195080 Par ch=1 c=64 v=127
195288 On ch=1 n=f5 v=0
195300 On ch=1 n=d#5 v=50
195306 On ch=1 n=a5 v=57
195314 Par ch=1 c=64 v=63
195328 On ch=1 n=c5 v=34
195424 Par ch=1 c=64 v=127
195504 On ch=1 n=a5 v=0
195508 Par ch=1 c=64 v=63
195578 Par ch=1 c=64 v=0
195674 Par ch=1 c=64 v=63
195710 On ch=1 n=f5 v=38
195732 On ch=1 n=c5 v=0
195752 Par ch=1 c=64 v=127
195766 On ch=1 n=d#5 v=0
196156 On ch=1 n=a#4 v=39
196166 On ch=1 n=f5 v=0
196188 On ch=1 n=f6 v=51
196204 On ch=1 n=d5 v=35
196214 Par ch=1 c=64 v=63
196368 Par ch=1 c=64 v=127
196604 On ch=1 n=f6 v=0
196642 On ch=1 n=f5 v=33
196808 On ch=1 n=d6 v=58
196810 On ch=1 n=f5 v=0
197066 On ch=1 n=d6 v=0
197072 On ch=1 n=f6 v=43
197098 On ch=1 n=f5 v=32
197292 On ch=1 n=f5 v=0
197304 Par ch=1 c=64 v=63
197448 Par ch=1 c=64 v=127
197510 On ch=1 n=f5 v=40
197664 On ch=1 n=d5 v=0
197674 On ch=1 n=a#4 v=0
197740 On ch=1 n=f5 v=0
197758 On ch=1 n=f6 v=0
197904 On ch=1 n=a#4 v=48
197904 On ch=1 n=d5 v=44
198268 On ch=1 n=f5 v=51
198372 On ch=1 n=d5 v=0
198420 On ch=1 n=a#4 v=0
198568 On ch=1 n=f5 v=0
198642 On ch=1 n=d#5 v=56
198656 On ch=1 n=c5 v=64
198910 Par ch=1 c=64 v=63
199026 Par ch=1 c=64 v=127
199042 On ch=1 n=f5 v=65
199152 On ch=1 n=c5 v=0
199200 On ch=1 n=d#5 v=0
199422 On ch=1 n=c5 v=55
199432 On ch=1 n=a4 v=35
199486 On ch=1 n=f6 v=84
199512 On ch=1 n=f5 v=0
199560 Par ch=1 c=64 v=63
199652 Par ch=1 c=64 v=0
199896 Par ch=1 c=64 v=63
199960 Par ch=1 c=64 v=127
199974 On ch=1 n=f5 v=41
199982 On ch=1 n=d#6 v=58
199984 On ch=1 n=f6 v=0
200106 Par ch=1 c=64 v=63
200140 Par ch=1 c=64 v=0
200222 Par ch=1 c=64 v=63
200246 On ch=1 n=f5 v=0
200252 Par ch=1 c=64 v=127
200354 On ch=1 n=c5 v=0
200372 On ch=1 n=f5 v=46
200454 On ch=1 n=a4 v=0
200486 On ch=1 n=d#6 v=0
200498 On ch=1 n=f5 v=0
200736 Par ch=1 c=64 v=63
200746 On ch=1 n=f5 v=48
200808 Par ch=1 c=64 v=0
201116 On ch=1 n=a4 v=40
201124 On ch=1 n=d6 v=71
201130 Par ch=1 c=64 v=63
201134 On ch=1 n=f4 v=34
201158 Par ch=1 c=64 v=127
201230 On ch=1 n=f5 v=0
201498 On ch=1 n=f4 v=0
201504 Par ch=1 c=64 v=63
201510 On ch=1 n=a4 v=0
201526 On ch=1 n=c6 v=55
201542 On ch=1 n=f5 v=23
201546 On ch=1 n=d6 v=0
201610 Par ch=1 c=64 v=127
201680 On ch=1 n=c6 v=0
201840 Par ch=1 c=64 v=63
201914 On ch=1 n=d#5 v=53
201928 On ch=1 n=a#5 v=74
201930 Par ch=1 c=64 v=0
201938 On ch=1 n=c5 v=54
201950 On ch=1 n=f5 v=0
201966 Par ch=1 c=64 v=63
202024 Par ch=1 c=64 v=127
202260 Par ch=1 c=64 v=63
202304 Par ch=1 c=64 v=0
202336 On ch=1 n=a5 v=44
202344 On ch=1 n=a#5 v=0
202346 On ch=1 n=f5 v=35
202388 On ch=1 n=c5 v=0
202426 On ch=1 n=d#5 v=0
202604 On ch=1 n=a5 v=0
202862 On ch=1 n=a#4 v=46
202878 On ch=1 n=f6 v=63
202904 On ch=1 n=d5 v=40
202958 Par ch=1 c=64 v=63
202970 Par ch=1 c=64 v=127
202976 On ch=1 n=f5 v=0
203602 On ch=1 n=f6 v=0
203614 On ch=1 n=d6 v=46
203936 On ch=1 n=f6 v=48
203976 On ch=1 n=d6 v=0
204066 Par ch=1 c=64 v=63
204208 Par ch=1 c=64 v=127
204356 On ch=1 n=d5 v=0
204374 On ch=1 n=a#4 v=0
204380 On ch=1 n=f6 v=0
204668 Par ch=1 c=64 v=63
204818 Par ch=1 c=64 v=0
205006 Par ch=1 c=64 v=63
205116 Par ch=1 c=64 v=127
205350 On ch=1 n=d7 v=99
205352 On ch=1 n=a#5 v=57
205354 On ch=1 n=d6 v=56
205366 On ch=1 n=a#6 v=80
205438 On ch=1 n=a#6 v=0
205482 On ch=1 n=a#5 v=0
205502 On ch=1 n=d6 v=0
205508 On ch=1 n=d7 v=0
205902 On ch=1 n=c6 v=68
205908 On ch=1 n=c7 v=94
205920 On ch=1 n=a6 v=78
205922 On ch=1 n=a5 v=48
205968 On ch=1 n=a6 v=0
206012 On ch=1 n=c6 v=0
206016 On ch=1 n=c7 v=0
206038 On ch=1 n=a5 v=0
206308 On ch=1 n=a#6 v=86
206328 On ch=1 n=g6 v=62
206328 On ch=1 n=a#5 v=61
206360 On ch=1 n=g5 v=40
206378 On ch=1 n=a#5 v=0
206386 On ch=1 n=a#6 v=0
206392 On ch=1 n=g6 v=0
206410 On ch=1 n=g5 v=0
206478 Par ch=1 c=64 v=63
206546 Par ch=1 c=64 v=0
206690 On ch=1 n=a6 v=88
206698 On ch=1 n=f#6 v=79
206714 On ch=1 n=a5 v=63
206714 On ch=1 n=f#5 v=78
206762 On ch=1 n=f#6 v=0
206800 On ch=1 n=a6 v=0
206802 On ch=1 n=a5 v=0
206804 On ch=1 n=f#5 v=0
207012 Par ch=1 c=64 v=63
207038 Par ch=1 c=64 v=127
207078 On ch=1 n=a#6 v=98
207094 On ch=1 n=g6 v=76
207096 On ch=1 n=a#5 v=67
207118 On ch=1 n=g5 v=46
207190 On ch=1 n=g6 v=0
207220 On ch=1 n=a#5 v=0
207222 On ch=1 n=g5 v=0
207240 On ch=1 n=a#6 v=0
207512 On ch=1 n=a6 v=89
207518 On ch=1 n=f6 v=78
207518 On ch=1 n=f5 v=44
207530 On ch=1 n=a5 v=45
207570 On ch=1 n=f6 v=0
207626 On ch=1 n=f5 v=0
207632 On ch=1 n=a5 v=0
207690 On ch=1 n=a6 v=0
207876 On ch=1 n=g6 v=75
207882 On ch=1 n=d#6 v=79
207886 On ch=1 n=g5 v=51
207890 On ch=1 n=d#5 v=65
207908 Par ch=1 c=64 v=63
207960 On ch=1 n=d#6 v=0
207964 On ch=1 n=d#5 v=0
207974 Par ch=1 c=64 v=0
207978 On ch=1 n=g6 v=0
207980 On ch=1 n=g5 v=0
208244 On ch=1 n=f#6 v=80
208260 On ch=1 n=f#5 v=70
208270 On ch=1 n=d6 v=66
208290 On ch=1 n=d5 v=49
208346 On ch=1 n=f#6 v=0
208366 On ch=1 n=d6 v=0
208374 On ch=1 n=f#5 v=0
208386 On ch=1 n=d5 v=0
208602 Par ch=1 c=64 v=63
208654 Par ch=1 c=64 v=127
208662 On ch=1 n=d#6 v=80
208668 On ch=1 n=d#5 v=74
208670 On ch=1 n=g6 v=76
208678 On ch=1 n=g5 v=51
208842 On ch=1 n=d#6 v=0
208850 On ch=1 n=d#5 v=0
208900 On ch=1 n=g5 v=0
209032 On ch=1 n=g6 v=0
209084 On ch=1 n=f6 v=76
209096 On ch=1 n=d6 v=60
209100 On ch=1 n=d5 v=54
209110 On ch=1 n=f5 v=48
209256 Par ch=1 c=64 v=63
209348 Par ch=1 c=64 v=0
209362 On ch=1 n=d5 v=0
209362 On ch=1 n=d6 v=0
209366 On ch=1 n=f5 v=0
209410 On ch=1 n=f6 v=0
209496 On ch=1 n=d#6 v=74
209510 On ch=1 n=c6 v=55
209512 On ch=1 n=d#5 v=63
209536 On ch=1 n=c5 v=44
209600 On ch=1 n=c6 v=0
209602 On ch=1 n=d#6 v=0
209608 On ch=1 n=d#5 v=0
209614 On ch=1 n=c5 v=0
209972 On ch=1 n=d6 v=70
209982 On ch=1 n=b5 v=49
209992 On ch=1 n=d5 v=44
209992 On ch=1 n=b4 v=59
210092 On ch=1 n=d6 v=0
210110 On ch=1 n=b4 v=0
210110 On ch=1 n=b5 v=0
210134 On ch=1 n=d5 v=0
210584 On ch=1 n=d6 v=78
210592 On ch=1 n=f5 v=60
210594 On ch=1 n=b5 v=65
210594 On ch=1 n=g5 v=53
210606 On ch=1 n=b4 v=51
210610 On ch=1 n=d5 v=58
210614 On ch=1 n=g4 v=48
210644 Par ch=1 c=64 v=63
210830 Par ch=1 c=64 v=127
211906 On ch=1 n=b4 v=0
211924 On ch=1 n=b5 v=0
211992 On ch=1 n=d5 v=0
212056 On ch=1 n=d6 v=0
212084 On ch=1 n=g4 v=0
212580 On ch=1 n=d#6 v=63
212592 On ch=1 n=d#5 v=37
212602 Par ch=1 c=64 v=63
212608 On ch=1 n=c5 v=47
212624 On ch=1 n=c6 v=36
212722 Par ch=1 c=64 v=127
212726 On ch=1 n=f5 v=0
212868 On ch=1 n=g5 v=0
212926 On ch=1 n=d#6 v=0
212994 On ch=1 n=c6 v=0
213104 On ch=1 n=f6 v=71
213198 On ch=1 n=d#6 v=88
213218 On ch=1 n=f6 v=0
213288 On ch=1 n=d6 v=71
213292 On ch=1 n=d#6 v=0
213364 On ch=1 n=d#6 v=88
213398 On ch=1 n=d6 v=0
213500 On ch=1 n=a5 v=69
213506 On ch=1 n=f6 v=97
213530 Par ch=1 c=64 v=63
213570 On ch=1 n=d#6 v=0
213592 Par ch=1 c=64 v=0
213632 Par ch=1 c=64 v=63
213670 Par ch=1 c=64 v=127
213810 On ch=1 n=c5 v=0
213860 On ch=1 n=d#5 v=0
213870 On ch=1 n=g6 v=97
213990 On ch=1 n=a5 v=0
214020 On ch=1 n=f6 v=0
214198 On ch=1 n=g6 v=0
214286 On ch=1 n=a#5 v=80
214296 On ch=1 n=d5 v=72
214342 On ch=1 n=g6 v=75
214402 Par ch=1 c=64 v=63
214482 Par ch=1 c=64 v=0
214532 Par ch=1 c=64 v=63
214582 Par ch=1 c=64 v=127
214590 On ch=1 n=f6 v=84
214636 On ch=1 n=g6 v=0
214742 On ch=1 n=d#6 v=80
214806 On ch=1 n=f6 v=0
214884 On ch=1 n=d6 v=87
214894 On ch=1 n=a#5 v=0
214900 On ch=1 n=d5 v=0
214946 On ch=1 n=d#6 v=0
215056 On ch=1 n=d6 v=0
215060 On ch=1 n=b5 v=84
215064 On ch=1 n=d#5 v=65
215070 On ch=1 n=g5 v=51
215128 Par ch=1 c=64 v=63
215180 Par ch=1 c=64 v=0
215232 On ch=1 n=c6 v=89
215256 On ch=1 n=b5 v=0
215340 Par ch=1 c=64 v=63
215364 Par ch=1 c=64 v=127
215414 On ch=1 n=d#6 v=88
215436 On ch=1 n=c6 v=0
215452 On ch=1 n=g5 v=0
215456 On ch=1 n=d#5 v=0
215598 On ch=1 n=d#6 v=0
215602 On ch=1 n=g6 v=76
215752 On ch=1 n=g6 v=0
215876 On ch=1 n=d5 v=53
215880 On ch=1 n=a#5 v=77
215906 On ch=1 n=f4 v=35
215962 Par ch=1 c=64 v=63
216004 Par ch=1 c=64 v=0
216124 Par ch=1 c=64 v=63
216150 Par ch=1 c=64 v=127
216310 On ch=1 n=d5 v=0
216502 On ch=1 n=a#5 v=0
216726 On ch=1 n=d#5 v=53
216730 On ch=1 n=a5 v=41
216730 On ch=1 n=c6 v=71
216806 Par ch=1 c=64 v=63
216944 Par ch=1 c=64 v=127
217102 On ch=1 n=f4 v=0
217150 On ch=1 n=a5 v=0
217178 On ch=1 n=c6 v=0
217308 On ch=1 n=d#5 v=0
217658 On ch=1 n=a#4 v=38
217670 On ch=1 n=c6 v=61
217686 On ch=1 n=a5 v=36
217690 On ch=1 n=d5 v=43
217728 Par ch=1 c=64 v=63
217860 Par ch=1 c=64 v=127
218004 On ch=1 n=c6 v=0
218172 On ch=1 n=f5 v=31
218302 On ch=1 n=f5 v=0
218360 On ch=1 n=c#6 v=56
218370 On ch=1 n=a5 v=0
218522 On ch=1 n=c#6 v=0
218608 On ch=1 n=f5 v=36
218626 On ch=1 n=a#5 v=27
218630 On ch=1 n=d6 v=60
218712 Par ch=1 c=64 v=63
218764 Par ch=1 c=64 v=0
218782 On ch=1 n=f5 v=0
218900 Par ch=1 c=64 v=63
218940 Par ch=1 c=64 v=127
219060 On ch=1 n=f5 v=43
219148 On ch=1 n=d5 v=0
219178 On ch=1 n=a#4 v=0
219210 On ch=1 n=f5 v=0
219334 On ch=1 n=d6 v=0
219344 On ch=1 n=a#5 v=0
219438 On ch=1 n=d5 v=58
219444 On ch=1 n=a#4 v=53
219618 Par ch=1 c=64 v=63
219724 Par ch=1 c=64 v=0
219798 Par ch=1 c=64 v=63
219830 On ch=1 n=f5 v=47
219860 Par ch=1 c=64 v=127
219876 On ch=1 n=d5 v=0
219914 On ch=1 n=a#4 v=0
220196 On ch=1 n=d#5 v=64
220214 On ch=1 n=f5 v=0
220228 On ch=1 n=c5 v=45
220272 Par ch=1 c=64 v=63
220356 Par ch=1 c=64 v=0
220432 Par ch=1 c=64 v=63
220502 Par ch=1 c=64 v=127
220614 On ch=1 n=f5 v=49
220654 On ch=1 n=c5 v=0
220682 On ch=1 n=d#5 v=0
221056 On ch=1 n=f5 v=0
221062 On ch=1 n=c5 v=38
221062 On ch=1 n=f6 v=76
221064 On ch=1 n=a4 v=34
221078 Par ch=1 c=64 v=63
221142 Par ch=1 c=64 v=0
221392 Par ch=1 c=64 v=63
221552 Par ch=1 c=64 v=127
221564 On ch=1 n=d#6 v=57
221566 On ch=1 n=f5 v=38
221586 On ch=1 n=f6 v=0
221764 On ch=1 n=f5 v=0
221910 On ch=1 n=c5 v=0
221962 On ch=1 n=a4 v=0
221980 On ch=1 n=f5 v=29
222010 Par ch=1 c=64 v=63
222070 On ch=1 n=f5 v=0
222160 Par ch=1 c=64 v=0
222276 On ch=1 n=d#6 v=0
222346 On ch=1 n=f5 v=44
222726 Par ch=1 c=64 v=63
222732 On ch=1 n=d6 v=74
222732 On ch=1 n=a4 v=36
222748 On ch=1 n=f4 v=35
222778 Par ch=1 c=64 v=127
222840 On ch=1 n=f5 v=0
223118 On ch=1 n=f4 v=0
223130 Par ch=1 c=64 v=63
223136 On ch=1 n=a4 v=0
223136 On ch=1 n=d6 v=0
223138 On ch=1 n=c6 v=55
223168 On ch=1 n=f5 v=33
223372 On ch=1 n=c6 v=0
223530 On ch=1 n=d#5 v=55
223546 On ch=1 n=a#5 v=58
223552 On ch=1 n=c5 v=49
223590 On ch=1 n=f5 v=0
223598 Par ch=1 c=64 v=127
223832 Par ch=1 c=64 v=63
223918 On ch=1 n=a#5 v=0
223928 On ch=1 n=a5 v=51
223946 On ch=1 n=f5 v=40
223954 Par ch=1 c=64 v=0
223962 Par ch=1 c=64 v=63
223978 On ch=1 n=c5 v=0
224014 On ch=1 n=d#5 v=0
224072 Par ch=1 c=64 v=127
224172 Par ch=1 c=64 v=63
224192 On ch=1 n=a5 v=0
224298 Par ch=1 c=64 v=0
224362 On ch=1 n=f5 v=0
224394 On ch=1 n=a#4 v=39
224396 Par ch=1 c=64 v=63
224400 On ch=1 n=f6 v=65
224452 On ch=1 n=d5 v=20
224458 Par ch=1 c=64 v=127
224700 On ch=1 n=f6 v=0
224856 On ch=1 n=f5 v=34
224918 On ch=1 n=d5 v=0
224994 On ch=1 n=a#4 v=0
225020 On ch=1 n=d6 v=52
225026 On ch=1 n=f5 v=0
225216 On ch=1 n=d6 v=0
225236 On ch=1 n=f6 v=57
225242 On ch=1 n=f5 v=38
225382 On ch=1 n=f5 v=0
225620 On ch=1 n=f5 v=43
225784 On ch=1 n=f5 v=0
225814 On ch=1 n=f6 v=0
226006 On ch=1 n=a#4 v=52
226012 On ch=1 n=d5 v=51
226078 Par ch=1 c=64 v=63
226166 Par ch=1 c=64 v=0
226302 Par ch=1 c=64 v=63
226340 Par ch=1 c=64 v=127
226362 On ch=1 n=f5 v=57
226412 On ch=1 n=a#4 v=0
226418 On ch=1 n=d5 v=0
226724 On ch=1 n=f5 v=0
226730 On ch=1 n=d#5 v=66
226752 On ch=1 n=c5 v=44
226832 Par ch=1 c=64 v=63
226980 Par ch=1 c=64 v=127
227132 On ch=1 n=f5 v=70
227174 On ch=1 n=d#5 v=0
227182 On ch=1 n=c5 v=0
227492 On ch=1 n=c5 v=54
227504 On ch=1 n=a4 v=42
227548 On ch=1 n=f6 v=86
227550 Par ch=1 c=64 v=63
227574 On ch=1 n=f5 v=0
227700 On ch=1 n=f6 v=0
227720 Par ch=1 c=64 v=127
227758 On ch=1 n=e6 v=80
227838 On ch=1 n=e6 v=0
227960 Par ch=1 c=64 v=63
227960 On ch=1 n=d#6 v=75
227964 On ch=1 n=f5 v=40
228152 On ch=1 n=f5 v=0
228156 Par ch=1 c=64 v=127
228252 On ch=1 n=c5 v=0
228300 On ch=1 n=d#6 v=0
228328 On ch=1 n=f5 v=44
228416 Par ch=1 c=64 v=63
228456 On ch=1 n=f5 v=0
228620 Par ch=1 c=64 v=0
228668 On ch=1 n=f5 v=47
228702 On ch=1 n=a4 v=0
228954 Par ch=1 c=64 v=63
229018 Par ch=1 c=64 v=127
229060 On ch=1 n=a4 v=22
229074 On ch=1 n=f4 v=31
229078 On ch=1 n=d6 v=57
229134 On ch=1 n=f5 v=0
229204 On ch=1 n=d6 v=0
229310 On ch=1 n=d6 v=71
229448 On ch=1 n=d6 v=0
229450 On ch=1 n=a4 v=0
229466 On ch=1 n=f4 v=0
229494 On ch=1 n=d#6 v=88
229504 On ch=1 n=f5 v=49
229628 On ch=1 n=d#6 v=0
229656 On ch=1 n=c6 v=84
229794 On ch=1 n=f5 v=0
229822 Par ch=1 c=64 v=63
229828 On ch=1 n=d#5 v=63
229846 On ch=1 n=a#5 v=80
229854 On ch=1 n=c6 v=0
229854 On ch=1 n=c5 v=55
229870 Par ch=1 c=64 v=0
229934 On ch=1 n=a#5 v=0
229972 Par ch=1 c=64 v=63
229996 On ch=1 n=a#5 v=85
230010 Par ch=1 c=64 v=127
230192 On ch=1 n=c6 v=86
230218 Par ch=1 c=64 v=63
230220 On ch=1 n=f5 v=59
230226 On ch=1 n=a#5 v=0
230290 On ch=1 n=d#5 v=0
230308 Par ch=1 c=64 v=127
230326 On ch=1 n=c5 v=0
230362 On ch=1 n=c6 v=0
230370 On ch=1 n=a5 v=87
230598 On ch=1 n=a5 v=0
230606 On ch=1 n=a#4 v=39
230616 On ch=1 n=d5 v=64
230656 On ch=1 n=f5 v=0
230706 On ch=1 n=f6 v=83
230764 Par ch=1 c=64 v=63
230872 Par ch=1 c=64 v=127
230980 On ch=1 n=f6 v=0
231002 On ch=1 n=g6 v=73
231066 On ch=1 n=f6 v=67
231096 On ch=1 n=g6 v=0
231136 On ch=1 n=e6 v=78
231154 On ch=1 n=f6 v=0
231200 Par ch=1 c=64 v=63
231208 On ch=1 n=f6 v=96
231234 On ch=1 n=e6 v=0
231236 Par ch=1 c=64 v=0
231294 Par ch=1 c=64 v=63
231328 Par ch=1 c=64 v=127
231462 On ch=1 n=a#6 v=91
231536 On ch=1 n=f6 v=0
231698 Par ch=1 c=64 v=63
231788 Par ch=1 c=64 v=0
231830 On ch=1 n=f6 v=76
231934 On ch=1 n=a#6 v=0
231992 Par ch=1 c=64 v=63
232006 Par ch=1 c=64 v=127
232300 On ch=1 n=d5 v=0
232318 On ch=1 n=a#4 v=0
232428 On ch=1 n=f6 v=0
232774 Par ch=1 c=64 v=63
232838 Par ch=1 c=64 v=0
233054 On ch=1 n=d6 v=69
233074 On ch=1 n=a#5 v=72
233090 Par ch=1 c=64 v=63
233110 Par ch=1 c=64 v=127
233316 On ch=1 n=a#5 v=0
233390 On ch=1 n=a#6 v=72
233392 On ch=1 n=d7 v=76
233428 On ch=1 n=d6 v=0
233608 On ch=1 n=c6 v=68
233608 On ch=1 n=a5 v=50
233698 On ch=1 n=a#6 v=0
233764 On ch=1 n=d7 v=0
233776 On ch=1 n=a6 v=73
233782 On ch=1 n=c7 v=85
233802 On ch=1 n=a5 v=0
233840 On ch=1 n=c6 v=0
233940 On ch=1 n=a#5 v=79
233952 On ch=1 n=g5 v=66
233978 On ch=1 n=a6 v=0
234020 On ch=1 n=a#5 v=0
234034 On ch=1 n=g5 v=0
234108 On ch=1 n=c7 v=0
234110 On ch=1 n=a#6 v=93
234126 On ch=1 n=g6 v=80
234218 On ch=1 n=a#6 v=0
234308 On ch=1 n=a5 v=73
234324 On ch=1 n=f#5 v=80
234460 On ch=1 n=a6 v=98
234466 On ch=1 n=g6 v=0
234470 On ch=1 n=f#6 v=90
234490 On ch=1 n=f#5 v=0
234630 On ch=1 n=f#6 v=0
234674 On ch=1 n=a#5 v=88
234680 Par ch=1 c=64 v=63
234692 On ch=1 n=g5 v=73
234710 Par ch=1 c=64 v=0
234744 On ch=1 n=a5 v=0
234814 Par ch=1 c=64 v=63
234836 Par ch=1 c=64 v=127
234848 On ch=1 n=a6 v=0
234864 On ch=1 n=a#6 v=95
234878 On ch=1 n=g6 v=73
235086 On ch=1 n=f5 v=79
235092 On ch=1 n=a5 v=76
235094 On ch=1 n=a#6 v=0
235110 On ch=1 n=g5 v=0
235126 On ch=1 n=a#5 v=0
235180 On ch=1 n=g6 v=0
235184 On ch=1 n=f5 v=0
235204 On ch=1 n=a5 v=0
235248 On ch=1 n=f6 v=96
235248 On ch=1 n=a6 v=93
235428 On ch=1 n=d#5 v=76
235436 On ch=1 n=g5 v=75
235454 On ch=1 n=f6 v=0
235516 On ch=1 n=a6 v=0
235570 On ch=1 n=g6 v=87
235580 On ch=1 n=d#6 v=81
235724 On ch=1 n=d#5 v=0
235748 On ch=1 n=f#5 v=95
235766 On ch=1 n=d5 v=84
235804 On ch=1 n=g5 v=0
235854 On ch=1 n=d#6 v=0
235914 On ch=1 n=f#6 v=98
235928 On ch=1 n=g6 v=0
235930 On ch=1 n=d6 v=85
236022 On ch=1 n=f#6 v=0
236068 On ch=1 n=d6 v=0
236098 On ch=1 n=g5 v=87
236106 On ch=1 n=d#5 v=94
236138 On ch=1 n=d5 v=0
236162 On ch=1 n=f#5 v=0
236278 On ch=1 n=g6 v=91
236280 On ch=1 n=d#6 v=98
236378 Par ch=1 c=64 v=63
236420 Par ch=1 c=64 v=0
236466 On ch=1 n=d5 v=90
236466 On ch=1 n=f5 v=91
236480 On ch=1 n=d#5 v=0
236494 Par ch=1 c=64 v=63
236518 Par ch=1 c=64 v=127
236544 On ch=1 n=g5 v=0
236602 On ch=1 n=d#6 v=0
236638 On ch=1 n=d6 v=91
236640 On ch=1 n=f6 v=99
236680 On ch=1 n=g6 v=0
236830 On ch=1 n=d5 v=0
236844 On ch=1 n=d#5 v=90
236858 On ch=1 n=c5 v=80
236914 On ch=1 n=f5 v=0
236946 On ch=1 n=d6 v=0
236976 On ch=1 n=d#5 v=0
236980 On ch=1 n=c5 v=0
237044 On ch=1 n=d#6 v=101
237056 On ch=1 n=c6 v=84
237122 On ch=1 n=f6 v=0
237176 On ch=1 n=c6 v=0
237208 On ch=1 n=d#6 v=0
237268 On ch=1 n=b4 v=84
237268 On ch=1 n=d5 v=93
237422 Par ch=1 c=64 v=63
237432 Par ch=1 c=64 v=0
237474 On ch=1 n=d6 v=96
237492 On ch=1 n=b5 v=81
237500 Par ch=1 c=64 v=63
237522 Par ch=1 c=64 v=127
237568 On ch=1 n=b4 v=0
237620 On ch=1 n=d6 v=0
237636 On ch=1 n=b5 v=0
237640 On ch=1 n=d5 v=0
237904 On ch=1 n=d6 v=102
237906 On ch=1 n=d5 v=81
237908 On ch=1 n=f5 v=96
237908 On ch=1 n=b5 v=89
237910 On ch=1 n=g4 v=80
237910 On ch=1 n=b4 v=76
237918 On ch=1 n=g5 v=74
238068 Par ch=1 c=64 v=63
238112 Par ch=1 c=64 v=0
239200 On ch=1 n=b5 v=0
239238 Par ch=1 c=64 v=63
239242 Par ch=1 c=64 v=127
239402 On ch=1 n=b4 v=0
239412 On ch=1 n=g4 v=0
239436 On ch=1 n=d6 v=0
239438 On ch=1 n=d5 v=0
239744 On ch=1 n=d#5 v=70
239746 On ch=1 n=d#6 v=92
239752 On ch=1 n=c5 v=69
239760 On ch=1 n=c6 v=76
239792 Par ch=1 c=64 v=63
239810 On ch=1 n=f5 v=0
239860 Par ch=1 c=64 v=127
239992 On ch=1 n=d#6 v=0
240034 On ch=1 n=c6 v=0
240056 On ch=1 n=g5 v=0
240240 On ch=1 n=f6 v=83
240312 On ch=1 n=d#6 v=88
240334 On ch=1 n=f6 v=0
240388 On ch=1 n=d6 v=65
240396 On ch=1 n=d#6 v=0
240454 On ch=1 n=d#6 v=95
240484 On ch=1 n=d6 v=0
240530 On ch=1 n=f6 v=100
240554 On ch=1 n=a5 v=76
240582 On ch=1 n=d#6 v=0
240634 Par ch=1 c=64 v=63
240724 Par ch=1 c=64 v=127
240830 On ch=1 n=c5 v=0
240890 On ch=1 n=d#5 v=0
240918 On ch=1 n=g6 v=91
240970 On ch=1 n=f6 v=0
240998 On ch=1 n=a5 v=0
241334 On ch=1 n=a#5 v=72
241336 On ch=1 n=f6 v=84
241340 On ch=1 n=d5 v=72
241356 On ch=1 n=g6 v=0
241382 Par ch=1 c=64 v=63
241506 Par ch=1 c=64 v=127
241732 On ch=1 n=a#6 v=75
241802 On ch=1 n=f6 v=0
241894 On ch=1 n=a#5 v=0
241922 On ch=1 n=d5 v=0
241968 On ch=1 n=d6 v=89
241978 On ch=1 n=a#6 v=0
242206 On ch=1 n=c6 v=96
242210 On ch=1 n=g5 v=68
242214 On ch=1 n=d#5 v=72
242252 On ch=1 n=d6 v=0
242306 Par ch=1 c=64 v=63
242406 Par ch=1 c=64 v=127
242488 On ch=1 n=d#6 v=89
242530 On ch=1 n=c6 v=0
242562 On ch=1 n=g5 v=0
242652 On ch=1 n=d#5 v=0
242762 On ch=1 n=g6 v=69
242824 On ch=1 n=d#6 v=0
243118 On ch=1 n=d5 v=58
243128 On ch=1 n=g6 v=0
243132 On ch=1 n=a#5 v=79
243160 On ch=1 n=f4 v=32
243298 Par ch=1 c=64 v=63
243356 Par ch=1 c=64 v=0
243516 Par ch=1 c=64 v=63
243546 Par ch=1 c=64 v=127
244054 On ch=1 n=a5 v=50
244072 On ch=1 n=a#5 v=0
244078 On ch=1 n=c5 v=38
244116 On ch=1 n=d5 v=0
244172 Par ch=1 c=64 v=63
244214 Par ch=1 c=64 v=0
244326 Par ch=1 c=64 v=63
244352 Par ch=1 c=64 v=127
244546 On ch=1 n=a5 v=0
244702 On ch=1 n=c5 v=0
244748 On ch=1 n=f4 v=0
245198 On ch=1 n=d5 v=67
245278 Par ch=1 c=64 v=63
245332 Par ch=1 c=64 v=0
245410 On ch=1 n=d6 v=81
245538 Par ch=1 c=64 v=63
245570 Par ch=1 c=64 v=127
245586 On ch=1 n=d5 v=0
245910 On ch=1 n=a#3 v=72
246074 On ch=1 n=d6 v=0
246108 On ch=1 n=a#3 v=0
246314 On ch=1 n=d4 v=87
246492 On ch=1 n=a#5 v=89
246586 On ch=1 n=a#5 v=0
246678 On ch=1 n=d4 v=0
246682 On ch=1 n=a#5 v=90
246690 On ch=1 n=g4 v=63
246772 On ch=1 n=a#5 v=0
246780 On ch=1 n=c6 v=76
246798 On ch=1 n=g4 v=0
246856 On ch=1 n=a#5 v=78
246894 On ch=1 n=c6 v=0
246924 On ch=1 n=a5 v=81
246926 On ch=1 n=a#5 v=0
246988 On ch=1 n=a#5 v=88
247014 On ch=1 n=a5 v=0
247080 On ch=1 n=a#5 v=0
247170 On ch=1 n=d#5 v=98
247256 Par ch=1 c=64 v=63
247290 Par ch=1 c=64 v=0
247334 On ch=1 n=d#6 v=92
247400 Par ch=1 c=64 v=63
247422 Par ch=1 c=64 v=127
247446 On ch=1 n=d#5 v=0
247546 On ch=1 n=c4 v=84
247818 On ch=1 n=d#6 v=0
247906 On ch=1 n=d#4 v=96
248078 On ch=1 n=c6 v=92
248186 On ch=1 n=c6 v=0
248224 On ch=1 n=c4 v=0
248276 On ch=1 n=c6 v=89
248298 On ch=1 n=a4 v=57
248304 On ch=1 n=d#4 v=0
248368 On ch=1 n=d6 v=91
248374 On ch=1 n=c6 v=0
248386 On ch=1 n=a4 v=0
248442 On ch=1 n=c6 v=79
248478 On ch=1 n=d6 v=0
248504 On ch=1 n=b5 v=97
248520 On ch=1 n=c6 v=0
248584 On ch=1 n=c6 v=99
248614 Par ch=1 c=64 v=63
248618 On ch=1 n=b5 v=0
248624 Par ch=1 c=64 v=0
248704 On ch=1 n=f6 v=112
248730 On ch=1 n=c6 v=0
248796 Par ch=1 c=64 v=63
248802 Par ch=1 c=64 v=127
249188 On ch=1 n=d4 v=94
249342 On ch=1 n=f6 v=0
249384 On ch=1 n=d6 v=100
249638 On ch=1 n=f4 v=73
249674 On ch=1 n=d6 v=0
249676 On ch=1 n=a#6 v=103
249864 Par ch=1 c=64 v=63
249954 Par ch=1 c=64 v=127
250146 On ch=1 n=f4 v=0
250176 On ch=1 n=a#4 v=92
250490 On ch=1 n=d4 v=0
250610 On ch=1 n=d4 v=98
250804 Par ch=1 c=64 v=63
250860 Par ch=1 c=64 v=0
250948 Par ch=1 c=64 v=63
250974 Par ch=1 c=64 v=127
251066 On ch=1 n=g#6 v=103
251186 On ch=1 n=a#6 v=0
251498 On ch=1 n=g#4 v=75
251506 On ch=1 n=g6 v=91
251582 On ch=1 n=g#6 v=0
251692 Par ch=1 c=64 v=63
251730 Par ch=1 c=64 v=0
251850 Par ch=1 c=64 v=63
251868 Par ch=1 c=64 v=127
252052 On ch=1 n=f#6 v=97
252108 On ch=1 n=g6 v=0
252266 On ch=1 n=g#4 v=0
252542 On ch=1 n=a#4 v=0
252584 On ch=1 n=d4 v=0
252732 On ch=1 n=a#4 v=30
252734 On ch=1 n=d#4 v=30
252744 On ch=1 n=g4 v=49
253022 Par ch=1 c=64 v=63
253070 Par ch=1 c=64 v=0
253090 On ch=1 n=g6 v=68
253092 On ch=1 n=f#6 v=0
253148 Par ch=1 c=64 v=63
253180 Par ch=1 c=64 v=127
253390 On ch=1 n=a#6 v=75
253478 On ch=1 n=g6 v=0
253610 On ch=1 n=a#6 v=0
253618 On ch=1 n=g6 v=65
253802 On ch=1 n=g4 v=0
253804 On ch=1 n=g6 v=0
253816 On ch=1 n=d#4 v=0
253822 On ch=1 n=a#4 v=0
253834 On ch=1 n=d6 v=74
254026 On ch=1 n=d#6 v=88
254058 On ch=1 n=d6 v=0
254156 Par ch=1 c=64 v=63
254226 On ch=1 n=g6 v=80
254264 Par ch=1 c=64 v=0
254268 On ch=1 n=d#6 v=0
254394 On ch=1 n=d#6 v=95
254452 Par ch=1 c=64 v=63
254508 On ch=1 n=g6 v=0
254554 Par ch=1 c=64 v=127
254580 On ch=1 n=b5 v=83
254584 On ch=1 n=d#6 v=0
254586 On ch=1 n=c5 v=70
254588 On ch=1 n=g4 v=55
254600 On ch=1 n=d#4 v=63
254654 Par ch=1 c=64 v=63
254762 On ch=1 n=c6 v=89
254776 On ch=1 n=b5 v=0
254810 Par ch=1 c=64 v=0
254834 Par ch=1 c=64 v=63
254942 On ch=1 n=d#6 v=87
254944 Par ch=1 c=64 v=0
254980 On ch=1 n=c6 v=0
255084 On ch=1 n=d6 v=86
255174 On ch=1 n=d#6 v=0
255212 On ch=1 n=c5 v=0
255280 On ch=1 n=f6 v=89
255300 On ch=1 n=d#4 v=0
255322 On ch=1 n=d6 v=0
255332 On ch=1 n=g4 v=0
255394 Par ch=1 c=64 v=63
255430 Par ch=1 c=64 v=127
255462 On ch=1 n=d#6 v=97
255514 On ch=1 n=f6 v=0
255654 Par ch=1 c=64 v=63
255658 On ch=1 n=d6 v=99
255726 On ch=1 n=d#6 v=0
255768 Par ch=1 c=64 v=127
255820 On ch=1 n=c6 v=93
255874 On ch=1 n=d6 v=0
256040 On ch=1 n=f4 v=78
256056 On ch=1 n=c6 v=0
256080 On ch=1 n=f5 v=76
256148 Par ch=1 c=64 v=63
256202 Par ch=1 c=64 v=0
256274 On ch=1 n=f6 v=109
256276 Par ch=1 c=64 v=63
256320 Par ch=1 c=64 v=127
256520 On ch=1 n=f5 v=0
256528 On ch=1 n=d5 v=68
256658 On ch=1 n=f6 v=0
256692 On ch=1 n=f6 v=87
257116 On ch=1 n=a#4 v=84
257168 On ch=1 n=d5 v=0
257462 On ch=1 n=f6 v=0
257462 On ch=1 n=d5 v=88
257556 On ch=1 n=f6 v=108
257780 On ch=1 n=f4 v=0
257948 On ch=1 n=f4 v=85
258184 On ch=1 n=d#6 v=93
258262 On ch=1 n=d5 v=0
258266 On ch=1 n=f6 v=0
258416 On ch=1 n=d5 v=76
258420 On ch=1 n=d6 v=84
258460 On ch=1 n=d#6 v=0
258504 On ch=1 n=a#4 v=0
258568 On ch=1 n=d#6 v=104
258604 On ch=1 n=d6 v=0
258694 On ch=1 n=d#6 v=0
258728 On ch=1 n=a#4 v=86
258728 On ch=1 n=f6 v=96
258830 On ch=1 n=d5 v=0
258904 On ch=1 n=g6 v=102
258930 On ch=1 n=f6 v=0
259068 On ch=1 n=a6 v=104
259112 On ch=1 n=d5 v=71
259118 On ch=1 n=g6 v=0
259146 On ch=1 n=f4 v=0
259254 On ch=1 n=a#6 v=107
259290 On ch=1 n=a6 v=0
259336 On ch=1 n=a#6 v=0
259484 On ch=1 n=f4 v=66
259536 On ch=1 n=d5 v=0
259552 On ch=1 n=a#5 v=103
259610 Par ch=1 c=64 v=63
259618 On ch=1 n=a#4 v=0
259632 Par ch=1 c=64 v=0
259746 Par ch=1 c=64 v=63
259762 Par ch=1 c=64 v=127
259784 On ch=1 n=c6 v=86
259812 On ch=1 n=a#5 v=0
259942 On ch=1 n=d#5 v=70
259948 On ch=1 n=d6 v=88
259988 On ch=1 n=c6 v=0
260088 On ch=1 n=d6 v=0
260088 On ch=1 n=c6 v=68
260212 On ch=1 n=d6 v=76
260216 On ch=1 n=c6 v=0
260270 On ch=1 n=a4 v=52
260306 On ch=1 n=d#5 v=0
260324 On ch=1 n=d6 v=0
260324 On ch=1 n=c6 v=68
260416 On ch=1 n=d6 v=66
260426 On ch=1 n=c6 v=0
260512 On ch=1 n=d6 v=0
260512 On ch=1 n=c6 v=65
260590 On ch=1 n=d6 v=63
260612 On ch=1 n=c6 v=0
260672 On ch=1 n=d6 v=0
260678 On ch=1 n=c6 v=74
260712 On ch=1 n=d#5 v=65
260760 On ch=1 n=d6 v=71
260776 On ch=1 n=c6 v=0
260828 On ch=1 n=f4 v=0
260830 On ch=1 n=d6 v=0
260842 On ch=1 n=c6 v=84
260874 On ch=1 n=a4 v=0
260914 On ch=1 n=d6 v=85
260936 On ch=1 n=c6 v=0
260994 On ch=1 n=d6 v=0
261004 On ch=1 n=c6 v=78
261074 On ch=1 n=d6 v=75
261076 On ch=1 n=f4 v=63
261100 On ch=1 n=c6 v=0
261100 On ch=1 n=d#5 v=0
261156 On ch=1 n=d6 v=0
261162 On ch=1 n=c6 v=85
261220 On ch=1 n=d6 v=83
261248 On ch=1 n=c6 v=0
261300 On ch=1 n=d6 v=0
261310 On ch=1 n=c6 v=85
261368 On ch=1 n=d6 v=88
261396 On ch=1 n=c6 v=0
261440 On ch=1 n=d6 v=0
261450 On ch=1 n=c6 v=87
261514 On ch=1 n=d6 v=86
261522 On ch=1 n=d#5 v=75
261542 On ch=1 n=c6 v=0
261582 On ch=1 n=d6 v=0
261594 On ch=1 n=c6 v=75
261652 On ch=1 n=d6 v=90
261678 On ch=1 n=c6 v=0
261724 On ch=1 n=d6 v=0
261740 On ch=1 n=c6 v=84
261804 On ch=1 n=d6 v=92
261830 On ch=1 n=c6 v=0
261880 On ch=1 n=d6 v=0
261882 On ch=1 n=c6 v=82
261954 On ch=1 n=d6 v=90
261972 On ch=1 n=d#5 v=0
261974 On ch=1 n=c6 v=0
261978 On ch=1 n=a4 v=46
262032 On ch=1 n=d6 v=0
262034 On ch=1 n=c6 v=78
262100 On ch=1 n=d6 v=79
262120 On ch=1 n=c6 v=0
262176 On ch=1 n=d6 v=0
262188 On ch=1 n=c6 v=68
262276 On ch=1 n=c6 v=0
262288 On ch=1 n=d6 v=71
262388 On ch=1 n=c6 v=75
262390 On ch=1 n=d6 v=0
262426 On ch=1 n=d#5 v=60
262440 On ch=1 n=f4 v=0
262508 On ch=1 n=a4 v=0
262522 On ch=1 n=c6 v=0
262542 On ch=1 n=a#5 v=88
262706 On ch=1 n=c6 v=81
262716 On ch=1 n=a#5 v=0
262772 On ch=1 n=d#5 v=0
262952 On ch=1 n=a#4 v=70
262988 On ch=1 n=a#5 v=81
263064 On ch=1 n=c6 v=0
263096 Par ch=1 c=64 v=63
263164 Par ch=1 c=64 v=0
263510 Par ch=1 c=64 v=63
263524 On ch=1 n=d5 v=71
263548 Par ch=1 c=64 v=127
263860 On ch=1 n=a#5 v=0
263906 On ch=1 n=f5 v=67
264110 On ch=1 n=a#5 v=84
264208 On ch=1 n=a#5 v=0
264338 On ch=1 n=g#5 v=54
264340 On ch=1 n=a#5 v=84
264442 On ch=1 n=a#5 v=0
264448 On ch=1 n=c6 v=80
264526 On ch=1 n=a#5 v=83
264562 On ch=1 n=c6 v=0
264622 On ch=1 n=a#5 v=0
264636 On ch=1 n=a5 v=56
264722 On ch=1 n=a#5 v=90
264764 On ch=1 n=a5 v=0
264932 On ch=1 n=g#5 v=0
264932 On ch=1 n=g5 v=53
264938 On ch=1 n=a#5 v=0
264986 On ch=1 n=f6 v=82
265074 On ch=1 n=f5 v=0
265098 On ch=1 n=d5 v=0
265152 Par ch=1 c=64 v=63
265196 Par ch=1 c=64 v=0
265430 Par ch=1 c=64 v=63
265462 Par ch=1 c=64 v=127
265554 On ch=1 n=d#6 v=70
265560 On ch=1 n=f6 v=0
266014 On ch=1 n=d#6 v=0
266016 On ch=1 n=d#5 v=60
266034 On ch=1 n=d6 v=64
266080 Par ch=1 c=64 v=63
266140 Par ch=1 c=64 v=0
266210 On ch=1 n=g5 v=0
266232 Par ch=1 c=64 v=63
266282 Par ch=1 c=64 v=127
266444 On ch=1 n=a#4 v=0
266466 On ch=1 n=c6 v=71
266532 On ch=1 n=d6 v=0
266638 On ch=1 n=c6 v=0
266646 On ch=1 n=d#5 v=0
266848 On ch=1 n=d5 v=62
266872 On ch=1 n=a#4 v=58
266876 On ch=1 n=c6 v=67
266966 Par ch=1 c=64 v=63
267000 Par ch=1 c=64 v=0
267292 On ch=1 n=a#5 v=70
267306 On ch=1 n=f5 v=43
267340 Par ch=1 c=64 v=63
267354 On ch=1 n=c6 v=0
267384 Par ch=1 c=64 v=127
267532 On ch=1 n=d5 v=0
267728 On ch=1 n=g#5 v=48
267744 On ch=1 n=a#5 v=0
267792 On ch=1 n=f5 v=0
267952 On ch=1 n=a#5 v=69
268048 On ch=1 n=a#5 v=0
268156 On ch=1 n=g#5 v=0
268166 On ch=1 n=a#5 v=72
268172 On ch=1 n=f#5 v=57
268264 On ch=1 n=a#5 v=0
268276 On ch=1 n=c6 v=77
268344 On ch=1 n=a#5 v=80
268380 On ch=1 n=c6 v=0
268430 On ch=1 n=a#5 v=0
268454 On ch=1 n=a5 v=70
268538 On ch=1 n=a#5 v=90
268562 On ch=1 n=a5 v=0
268646 On ch=1 n=a#5 v=0
268678 On ch=1 n=g5 v=37
268702 On ch=1 n=f6 v=79
268726 On ch=1 n=f#5 v=0
268840 Par ch=1 c=64 v=63
268882 Par ch=1 c=64 v=0
269046 Par ch=1 c=64 v=63
269074 Par ch=1 c=64 v=127
269252 On ch=1 n=d#6 v=75
269298 On ch=1 n=f6 v=0
269686 On ch=1 n=d#5 v=54
269698 On ch=1 n=d6 v=67
269720 On ch=1 n=d#6 v=0
269722 Par ch=1 c=64 v=63
269744 On ch=1 n=g5 v=0
269762 Par ch=1 c=64 v=0
269866 Par ch=1 c=64 v=63
269904 Par ch=1 c=64 v=127
270158 On ch=1 n=c6 v=75
270170 On ch=1 n=d6 v=0
270236 On ch=1 n=a#4 v=0
270616 On ch=1 n=c6 v=0
270702 On ch=1 n=a#4 v=43
270730 On ch=1 n=a#5 v=55
270816 Par ch=1 c=64 v=63
270864 On ch=1 n=d#5 v=0
270864 Par ch=1 c=64 v=0
270932 Par ch=1 c=64 v=63
270966 Par ch=1 c=64 v=127
271224 On ch=1 n=a#5 v=0
271348 On ch=1 n=f5 v=44
271362 On ch=1 n=d5 v=43
271562 On ch=1 n=f5 v=0
271584 On ch=1 n=d5 v=0
271832 On ch=1 n=d#6 v=83
271846 On ch=1 n=d#5 v=51
271848 On ch=1 n=g5 v=36
271878 Par ch=1 c=64 v=63
271972 Par ch=1 c=64 v=127
272036 On ch=1 n=d#5 v=0
272182 On ch=1 n=g5 v=0
272240 On ch=1 n=d#6 v=0
272274 On ch=1 n=d#5 v=67
272298 On ch=1 n=c5 v=62
272300 On ch=1 n=a#4 v=0
272458 On ch=1 n=d#5 v=0
272484 On ch=1 n=a5 v=83
272504 On ch=1 n=c5 v=0
272604 On ch=1 n=a5 v=0
272704 On ch=1 n=d5 v=61
272704 On ch=1 n=a#4 v=51
272736 On ch=1 n=a#5 v=80
272824 On ch=1 n=d5 v=0
272824 Par ch=1 c=64 v=63
272860 Par ch=1 c=64 v=0
272946 Par ch=1 c=64 v=63
272982 Par ch=1 c=64 v=127
273258 On ch=1 n=f5 v=60
273262 On ch=1 n=a#5 v=0
273270 On ch=1 n=d5 v=64
273664 On ch=1 n=f5 v=0
273702 On ch=1 n=d5 v=0
273940 On ch=1 n=d#5 v=65
273944 On ch=1 n=g6 v=84
273964 On ch=1 n=g5 v=39
274118 On ch=1 n=d#5 v=0
274316 On ch=1 n=g6 v=0
274352 On ch=1 n=g5 v=0
274456 On ch=1 n=a#4 v=0
274706 On ch=1 n=d#5 v=58
274726 On ch=1 n=c5 v=55
274972 On ch=1 n=d#5 v=0
275058 On ch=1 n=c5 v=0
275220 On ch=1 n=a5 v=65
275314 On ch=1 n=a5 v=0
275994 On ch=1 n=a5 v=80
275998 On ch=1 n=a#4 v=41
276000 On ch=1 n=a#3 v=52
276000 On ch=1 n=c5 v=47
276006 On ch=1 n=d#5 v=62
276008 On ch=1 n=f5 v=60
276226 Par ch=1 c=64 v=63
276292 Par ch=1 c=64 v=0
277486 Par ch=1 c=64 v=63
277500 Par ch=1 c=64 v=127
278628 On ch=1 n=c5 v=0
278670 On ch=1 n=a5 v=0
279384 On ch=1 n=d#5 v=0
279992 On ch=1 n=d5 v=25
280008 On ch=1 n=a#5 v=43
281242 On ch=1 n=a#4 v=0
281262 On ch=1 n=d5 v=0
281310 On ch=1 n=a#3 v=0
281534 On ch=1 n=f5 v=0
281678 On ch=1 n=a#5 v=0
282854 Par ch=1 c=64 v=63
282872 Par ch=1 c=64 v=0
285120 Par ch=1 c=64 v=0
285120 Meta TrkEnd
TrkEnd
MTrk
0 SeqSpec 43 00 01 00
0 Meta TrkName "                                    "
0 TimeSig 4/4 24 8
0 Meta TrkEnd
TrkEnd
MTrk
0 SeqSpec 43 00 01 00
0 Meta TrkName "                                    "
0 TimeSig 4/4 24 8
0 Meta TrkEnd
TrkEnd
MTrk
0 SeqSpec 43 00 01 00
0 Meta TrkName "                                    "
0 TimeSig 4/4 24 8
0 Meta TrkEnd
TrkEnd
MTrk
0 SeqSpec 43 00 01 00
0 Meta TrkName "                                    "
0 TimeSig 4/4 24 8
0 Meta TrkEnd
TrkEnd
MTrk
0 SeqSpec 43 00 01 00
0 Meta TrkName "                                    "
0 TimeSig 4/4 24 8
0 Meta TrkEnd
TrkEnd
MTrk
0 SeqSpec 43 00 01 00
0 Meta TrkName "                                    "
0 TimeSig 4/4 24 8
0 Meta TrkEnd
TrkEnd
MTrk
0 SeqSpec 43 00 01 00
0 Meta TrkName "                                    "
0 TimeSig 4/4 24 8
0 Meta TrkEnd
TrkEnd
MTrk
0 SeqSpec 43 00 01 00
0 Meta TrkName "                                    "
0 TimeSig 4/4 24 8
0 Meta TrkEnd
TrkEnd
MTrk
0 SeqSpec 43 00 01 00
0 Meta TrkName "                                    "
0 TimeSig 4/4 24 8
0 Meta TrkEnd
TrkEnd
MTrk
0 SeqSpec 43 00 01 00
0 Meta TrkName "                                    "
0 TimeSig 4/4 24 8
0 Meta TrkEnd
TrkEnd
MTrk
0 SeqSpec 43 00 01 00
0 Meta TrkName "                                    "
0 TimeSig 4/4 24 8
0 Meta TrkEnd
TrkEnd
MTrk
0 SeqSpec 43 00 01 00
0 Meta TrkName "                                    "
0 TimeSig 4/4 24 8
0 Meta TrkEnd
TrkEnd
MTrk
0 SeqSpec 43 00 01 00
0 Meta TrkName "                                    "
0 TimeSig 4/4 24 8
0 Meta TrkEnd
TrkEnd
MTrk
0 SeqSpec 43 00 01 00
0 Meta TrkName "                                    "
0 TimeSig 4/4 24 8
0 Meta TrkEnd
TrkEnd
MTrk
0 SeqSpec 43 00 01 00
0 Meta TrkName "                                    "
0 TimeSig 4/4 24 8
0 Meta TrkEnd
TrkEnd
MTrk
0 SeqSpec 43 00 01 00
0 Meta TrkName "                                    "
0 TimeSig 4/4 24 8
0 Meta TrkEnd
TrkEnd
