MFile 1 18 480
MTrk
0 Tempo 500000
0 TimeSig 3/4 24 8
0 Meta TrkEnd
TrkEnd
MTrk
0 SeqSpec 43 00 01 00
0 Meta TrkName "PIANO                               "
0 TimeSig 3/4 24 8
0 SysEx f0 41 10 42 12 40 00 7f 00 41 f7
0 SysEx f0 41 10 42 12 40 00 04 64 58 f7
340 SysEx f0 41 10 42 12 40 01 30 03 0c f7
340 SysEx f0 41 10 42 12 40 01 33 50 3c f7
340 SysEx f0 41 10 42 12 40 01 34 3c 4f f7
744 Par ch=1 c=0 v=0
748 Par ch=1 c=32 v=1
752 PrCh ch=1 p=0
756 Par ch=1 c=7 v=100
948 Par ch=1 c=11 v=100
1140 Par ch=1 c=10 v=64
1332 Par ch=1 c=1 v=0
1332 Par ch=1 c=91 v=80
1350 Par ch=1 c=99 v=1
1354 Par ch=1 c=98 v=32
1358 Par ch=1 c=6 v=62
1362 Par ch=1 c=99 v=1
1366 Par ch=1 c=98 v=33
1370 Par ch=1 c=6 v=54
1374 Par ch=1 c=99 v=1
1378 Par ch=1 c=98 v=99
1382 Par ch=1 c=6 v=62
1386 Par ch=1 c=99 v=1
1390 Par ch=1 c=98 v=100
1394 Par ch=1 c=6 v=60
1398 Par ch=1 c=99 v=1
1402 Par ch=1 c=98 v=102
1406 Par ch=1 c=6 v=70
1962 Par ch=1 c=64 v=63
2012 Par ch=1 c=64 v=127
2088 On ch=1 n=f5 v=71
2118 On ch=1 n=f4 v=46
2306 On ch=1 n=a4 v=40
2504 On ch=1 n=c5 v=56
2522 On ch=1 n=a4 v=0
2686 On ch=1 n=c5 v=0
2696 On ch=1 n=a4 v=54
2846 On ch=1 n=a4 v=0
2872 On ch=1 n=a5 v=77
2906 On ch=1 n=c5 v=54
2948 On ch=1 n=f5 v=0
3002 On ch=1 n=f4 v=0
3070 On ch=1 n=a4 v=53
3144 On ch=1 n=c5 v=0
3230 On ch=1 n=a4 v=0
3236 On ch=1 n=c6 v=81
3272 On ch=1 n=f4 v=51
3322 On ch=1 n=a5 v=0
3392 Par ch=1 c=64 v=63
3446 Par ch=1 c=64 v=127
3446 On ch=1 n=c5 v=62
3628 On ch=1 n=d#5 v=65
3670 On ch=1 n=c5 v=0
3800 On ch=1 n=c5 v=64
3806 On ch=1 n=d#5 v=0
3986 On ch=1 n=c5 v=0
3990 On ch=1 n=a5 v=76
3992 On ch=1 n=d#5 v=60
4046 On ch=1 n=c6 v=0
4176 On ch=1 n=c5 v=70
4184 On ch=1 n=d#5 v=0
4198 On ch=1 n=f4 v=0
4356 Par ch=1 c=64 v=63
4362 On ch=1 n=a#5 v=90
4364 On ch=1 n=f4 v=59
4370 On ch=1 n=c5 v=0
4416 On ch=1 n=a5 v=0
4478 Par ch=1 c=64 v=127
4538 On ch=1 n=a#4 v=72
4596 On ch=1 n=f4 v=0
4734 On ch=1 n=a#4 v=0
4740 On ch=1 n=d5 v=57
4900 On ch=1 n=a#4 v=68
4922 On ch=1 n=d5 v=0
5074 On ch=1 n=a#5 v=0
5076 On ch=1 n=a#4 v=0
5084 On ch=1 n=g6 v=90
5108 On ch=1 n=d5 v=45
5278 On ch=1 n=a#4 v=73
5298 On ch=1 n=d5 v=0
5468 On ch=1 n=f4 v=47
5474 On ch=1 n=f6 v=88
5476 On ch=1 n=a#4 v=0
5538 Par ch=1 c=64 v=63
5544 On ch=1 n=g6 v=0
5588 Par ch=1 c=64 v=127
5648 On ch=1 n=e6 v=84
5658 On ch=1 n=g4 v=65
5704 On ch=1 n=f4 v=0
5766 On ch=1 n=f6 v=0
5784 On ch=1 n=e6 v=0
5854 On ch=1 n=a#4 v=64
5854 On ch=1 n=e6 v=90
5888 On ch=1 n=g4 v=0
6018 On ch=1 n=g4 v=61
6022 On ch=1 n=a#4 v=0
6182 On ch=1 n=e6 v=0
6200 On ch=1 n=a#4 v=71
6202 On ch=1 n=g4 v=0
6364 On ch=1 n=a#4 v=0
6368 On ch=1 n=g4 v=57
6556 On ch=1 n=g4 v=0
6582 On ch=1 n=f6 v=82
6598 On ch=1 n=a4 v=42
6604 On ch=1 n=f4 v=36
6646 Par ch=1 c=64 v=63
6704 Par ch=1 c=64 v=0
6990 On ch=1 n=a5 v=65
7010 On ch=1 n=f6 v=0
7106 On ch=1 n=a4 v=0
7110 On ch=1 n=f4 v=0
7358 On ch=1 n=d6 v=72
7416 On ch=1 n=a5 v=0
7734 On ch=1 n=g5 v=73
7772 On ch=1 n=d6 v=0
7810 Par ch=1 c=64 v=63
7826 Par ch=1 c=64 v=127
8122 On ch=1 n=c6 v=84
8252 Par ch=1 c=64 v=63
8272 On ch=1 n=g5 v=0
8356 Par ch=1 c=64 v=127
8750 On ch=1 n=a5 v=73
8862 On ch=1 n=c6 v=0
8904 On ch=1 n=f5 v=82
8944 On ch=1 n=f4 v=46
8984 On ch=1 n=a5 v=0
9030 Par ch=1 c=64 v=63
9118 Par ch=1 c=64 v=127
9292 On ch=1 n=a3 v=64
9314 On ch=1 n=f4 v=0
9652 On ch=1 n=d4 v=75
9814 On ch=1 n=a3 v=0
9992 On ch=1 n=g3 v=78
9996 On ch=1 n=d4 v=0
9996 On ch=1 n=g5 v=88
10032 Par ch=1 c=64 v=63
10092 Par ch=1 c=64 v=127
10166 On ch=1 n=f5 v=0
10354 On ch=1 n=c4 v=75
10378 On ch=1 n=g3 v=0
10386 On ch=1 n=e5 v=56
10454 On ch=1 n=f5 v=67
10480 On ch=1 n=e5 v=0
10522 On ch=1 n=e5 v=52
10550 On ch=1 n=f5 v=0
10610 On ch=1 n=d5 v=76
10628 On ch=1 n=e5 v=0
10706 On ch=1 n=e5 v=66
10712 On ch=1 n=d5 v=0
10768 Par ch=1 c=64 v=63
10832 Par ch=1 c=64 v=0
10908 Par ch=1 c=64 v=63
10908 On ch=1 n=a3 v=77
10920 On ch=1 n=c4 v=0
10948 Par ch=1 c=64 v=127
11008 On ch=1 n=e5 v=0
11030 On ch=1 n=g5 v=0
11118 On ch=1 n=f5 v=77
11120 On ch=1 n=f3 v=83
11130 On ch=1 n=a5 v=85
11182 On ch=1 n=a3 v=0
11314 Par ch=1 c=64 v=63
11392 Par ch=1 c=64 v=0
11540 On ch=1 n=d4 v=59
11542 On ch=1 n=a#5 v=94
11554 On ch=1 n=f3 v=0
11620 On ch=1 n=a5 v=0
11886 Par ch=1 c=64 v=63
11902 On ch=1 n=d6 v=88
11912 On ch=1 n=a#3 v=52
11924 Par ch=1 c=64 v=127
11976 On ch=1 n=d4 v=0
12012 On ch=1 n=a#5 v=0
12190 On ch=1 n=d6 v=0
12200 Par ch=1 c=64 v=63
12262 Par ch=1 c=64 v=0
12274 On ch=1 n=a3 v=57
12280 On ch=1 n=d6 v=68
12288 On ch=1 n=a#3 v=0
12472 On ch=1 n=c6 v=80
12474 On ch=1 n=d6 v=0
12522 On ch=1 n=f5 v=0
12578 On ch=1 n=c6 v=0
12620 On ch=1 n=a3 v=0
12670 On ch=1 n=a#5 v=70
12798 On ch=1 n=a#5 v=0
12830 On ch=1 n=a5 v=78
12984 On ch=1 n=a5 v=0
13022 On ch=1 n=d4 v=63
13034 On ch=1 n=g5 v=71
13196 On ch=1 n=f5 v=83
13204 On ch=1 n=d4 v=0
13208 On ch=1 n=g5 v=0
13332 On ch=1 n=f5 v=0
13398 On ch=1 n=g5 v=76
13400 On ch=1 n=a#3 v=75
13528 Par ch=1 c=64 v=63
13542 Par ch=1 c=64 v=127
13766 Par ch=1 c=64 v=63
13770 On ch=1 n=a#5 v=81
13788 On ch=1 n=g5 v=0
13794 Par ch=1 c=64 v=0
13806 On ch=1 n=a#3 v=0
13858 On ch=1 n=a#5 v=0
14172 On ch=1 n=c4 v=45
14176 On ch=1 n=a#4 v=53
14182 On ch=1 n=e5 v=69
14194 Par ch=1 c=64 v=63
14204 Par ch=1 c=64 v=127
14370 On ch=1 n=a#4 v=0
14424 On ch=1 n=c4 v=0
14458 On ch=1 n=e5 v=0
14604 On ch=1 n=f5 v=68
14606 On ch=1 n=f3 v=49
14620 On ch=1 n=a4 v=43
14640 Par ch=1 c=64 v=63
14678 Par ch=1 c=64 v=0
14734 Par ch=1 c=64 v=63
14768 Par ch=1 c=64 v=127
14958 On ch=1 n=f3 v=0
14962 On ch=1 n=a4 v=0
15002 On ch=1 n=f5 v=0
15012 Par ch=1 c=64 v=63
15040 Par ch=1 c=64 v=0
15444 On ch=1 n=a5 v=66
15446 Par ch=1 c=64 v=63
15454 On ch=1 n=c7 v=89
15460 On ch=1 n=c6 v=50
15466 Par ch=1 c=64 v=127
15604 On ch=1 n=c7 v=0
15616 On ch=1 n=a5 v=0
15628 On ch=1 n=c6 v=0
15726 On ch=1 n=a#6 v=89
15726 On ch=1 n=a#5 v=79
15730 Par ch=1 c=64 v=63
15770 On ch=1 n=g5 v=52
15804 Par ch=1 c=64 v=0
15810 On ch=1 n=a6 v=82
15818 On ch=1 n=a#6 v=0
15820 On ch=1 n=a5 v=84
15826 On ch=1 n=a#5 v=0
15854 On ch=1 n=f5 v=59
15864 On ch=1 n=g5 v=0
15870 On ch=1 n=a6 v=0
15880 On ch=1 n=a5 v=0
15914 On ch=1 n=f5 v=0
16216 On ch=1 n=a6 v=90
16228 On ch=1 n=a5 v=53
16240 On ch=1 n=f5 v=51
16266 On ch=1 n=a6 v=0
16282 On ch=1 n=a5 v=0
16296 On ch=1 n=f5 v=0
16542 Par ch=1 c=64 v=63
16564 Par ch=1 c=64 v=127
16578 On ch=1 n=a6 v=94
16590 On ch=1 n=f5 v=71
16600 On ch=1 n=a5 v=60
16632 On ch=1 n=a6 v=0
16638 On ch=1 n=f5 v=0
16654 On ch=1 n=a5 v=0
16868 On ch=1 n=g5 v=64
16868 On ch=1 n=c5 v=74
16874 On ch=1 n=g6 v=76
16928 On ch=1 n=g5 v=0
16938 On ch=1 n=g6 v=0
16942 On ch=1 n=c5 v=0
16950 On ch=1 n=f6 v=87
16962 Par ch=1 c=64 v=63
16986 On ch=1 n=f5 v=77
16988 On ch=1 n=a4 v=77
17028 On ch=1 n=f6 v=0
17034 On ch=1 n=f5 v=0
17052 Par ch=1 c=64 v=0
17064 On ch=1 n=a4 v=0
17364 On ch=1 n=f6 v=93
17366 On ch=1 n=a4 v=82
17368 On ch=1 n=f5 v=80
17424 On ch=1 n=f5 v=0
17432 On ch=1 n=a4 v=0
17436 On ch=1 n=f6 v=0
17722 Par ch=1 c=64 v=63
17746 Par ch=1 c=64 v=127
17758 On ch=1 n=f6 v=92
17768 On ch=1 n=a4 v=84
17772 On ch=1 n=f5 v=76
17810 On ch=1 n=f6 v=0
17824 On ch=1 n=a4 v=0
17840 On ch=1 n=f5 v=0
18142 Par ch=1 c=64 v=63
18144 On ch=1 n=g6 v=79
18154 Par ch=1 c=64 v=0
18156 On ch=1 n=g5 v=61
18158 On ch=1 n=e6 v=51
18174 On ch=1 n=c5 v=55
18200 On ch=1 n=g6 v=0
18204 On ch=1 n=e6 v=0
18208 On ch=1 n=g5 v=0
18214 On ch=1 n=c5 v=0
18548 On ch=1 n=g6 v=72
18552 On ch=1 n=e6 v=71
18552 On ch=1 n=g5 v=64
18568 On ch=1 n=c5 v=52
18614 On ch=1 n=g6 v=0
18618 On ch=1 n=e6 v=0
18620 On ch=1 n=c5 v=0
18620 On ch=1 n=g5 v=0
18934 On ch=1 n=g6 v=84
18942 On ch=1 n=e6 v=76
18948 On ch=1 n=g5 v=71
18952 On ch=1 n=c5 v=70
18994 On ch=1 n=e6 v=0
18998 On ch=1 n=c5 v=0
19004 On ch=1 n=g6 v=0
19018 On ch=1 n=g5 v=0
19308 Par ch=1 c=64 v=63
19318 On ch=1 n=g6 v=92
19322 Par ch=1 c=64 v=127
19326 On ch=1 n=e6 v=86
19328 On ch=1 n=g5 v=62
19328 On ch=1 n=c5 v=71
19394 On ch=1 n=c5 v=0
19394 On ch=1 n=g5 v=0
19396 On ch=1 n=g6 v=0
19420 On ch=1 n=e6 v=0
19708 On ch=1 n=a6 v=82
19712 On ch=1 n=f6 v=79
19716 On ch=1 n=f5 v=71
19726 On ch=1 n=a5 v=54
19754 On ch=1 n=f6 v=0
19762 On ch=1 n=f5 v=0
19782 On ch=1 n=a6 v=0
19790 On ch=1 n=a5 v=0
19794 Par ch=1 c=64 v=63
19844 Par ch=1 c=64 v=0
20080 Par ch=1 c=64 v=63
20102 Par ch=1 c=64 v=127
20108 On ch=1 n=c7 v=103
20114 On ch=1 n=a5 v=63
20132 On ch=1 n=c6 v=54
20186 On ch=1 n=d7 v=81
20196 On ch=1 n=c7 v=0
20216 On ch=1 n=c6 v=0
20238 On ch=1 n=a5 v=0
20292 On ch=1 n=d7 v=0
20298 On ch=1 n=c7 v=85
20388 On ch=1 n=g5 v=46
20388 On ch=1 n=a#6 v=99
20400 On ch=1 n=a#5 v=47
20416 On ch=1 n=c7 v=0
20446 Par ch=1 c=64 v=63
20474 On ch=1 n=a5 v=90
20476 On ch=1 n=a#5 v=0
20488 Par ch=1 c=64 v=0
20492 On ch=1 n=a#6 v=0
20492 On ch=1 n=a6 v=86
20504 On ch=1 n=f5 v=77
20534 On ch=1 n=g5 v=0
20552 On ch=1 n=a5 v=0
20566 On ch=1 n=a6 v=0
20592 On ch=1 n=f5 v=0
20894 On ch=1 n=a6 v=91
20900 On ch=1 n=f5 v=57
20912 On ch=1 n=a5 v=60
20948 On ch=1 n=f5 v=0
20964 On ch=1 n=a6 v=0
20970 On ch=1 n=a5 v=0
21214 Par ch=1 c=64 v=63
21236 Par ch=1 c=64 v=127
21274 On ch=1 n=a5 v=65
21274 On ch=1 n=a6 v=81
21288 On ch=1 n=f5 v=60
21326 On ch=1 n=a5 v=0
21336 On ch=1 n=f5 v=0
21364 On ch=1 n=a6 v=0
21390 On ch=1 n=a#6 v=74
21480 On ch=1 n=a6 v=60
21536 On ch=1 n=a#6 v=0
21558 On ch=1 n=g5 v=57
21564 On ch=1 n=g6 v=84
21580 Par ch=1 c=64 v=63
21586 On ch=1 n=c5 v=42
21606 On ch=1 n=a6 v=0
21620 Par ch=1 c=64 v=0
21644 On ch=1 n=g5 v=0
21644 On ch=1 n=f5 v=79
21662 On ch=1 n=f6 v=87
21668 On ch=1 n=a4 v=73
21676 On ch=1 n=g6 v=0
21698 On ch=1 n=c5 v=0
21720 On ch=1 n=f5 v=0
21738 On ch=1 n=a4 v=0
21742 On ch=1 n=f6 v=0
22060 On ch=1 n=f6 v=94
22062 On ch=1 n=f5 v=66
22066 On ch=1 n=a4 v=59
22130 On ch=1 n=f6 v=0
22134 On ch=1 n=f5 v=0
22152 On ch=1 n=a4 v=0
22450 On ch=1 n=a4 v=62
22458 On ch=1 n=f5 v=68
22466 On ch=1 n=f6 v=89
22526 On ch=1 n=f5 v=0
22530 On ch=1 n=a4 v=0
22544 On ch=1 n=f6 v=0
22842 On ch=1 n=g6 v=70
22844 On ch=1 n=c5 v=60
22850 Par ch=1 c=64 v=63
22858 On ch=1 n=g5 v=48
22872 Par ch=1 c=64 v=127
23222 On ch=1 n=a#6 v=74
23224 On ch=1 n=c5 v=0
23236 On ch=1 n=g6 v=0
23246 On ch=1 n=g5 v=0
23268 Par ch=1 c=64 v=63
23310 On ch=1 n=a#6 v=0
23320 Par ch=1 c=64 v=0
23608 Par ch=1 c=64 v=63
23630 Par ch=1 c=64 v=127
23634 On ch=1 n=e6 v=79
23634 On ch=1 n=g5 v=48
23646 On ch=1 n=a#5 v=67
23648 On ch=1 n=c5 v=40
23866 On ch=1 n=g5 v=0
23886 On ch=1 n=a#5 v=0
23996 On ch=1 n=c5 v=0
24008 On ch=1 n=e6 v=0
24062 On ch=1 n=f5 v=39
24068 On ch=1 n=f6 v=63
24092 On ch=1 n=a5 v=29
24124 Par ch=1 c=64 v=63
24182 Par ch=1 c=64 v=0
24442 On ch=1 n=a5 v=0
24466 On ch=1 n=f5 v=0
24468 On ch=1 n=f6 v=0
24888 On ch=1 n=c7 v=71
24894 On ch=1 n=a#5 v=35
24930 On ch=1 n=e5 v=44
24934 Par ch=1 c=64 v=63
24934 On ch=1 n=c5 v=19
24952 Par ch=1 c=64 v=127
25142 On ch=1 n=a#5 v=0
25246 On ch=1 n=e5 v=0
25306 On ch=1 n=f6 v=63
25310 On ch=1 n=f5 v=31
25334 On ch=1 n=c7 v=0
25346 On ch=1 n=a5 v=39
25360 Par ch=1 c=64 v=63
25396 On ch=1 n=c5 v=0
25494 Par ch=1 c=64 v=127
25612 On ch=1 n=f6 v=0
25632 On ch=1 n=a5 v=0
25654 Par ch=1 c=64 v=63
25680 On ch=1 n=f5 v=0
25682 Par ch=1 c=64 v=0
26148 Par ch=1 c=64 v=63
26148 On ch=1 n=c6 v=59
26170 On ch=1 n=a#4 v=40
26174 Par ch=1 c=64 v=127
26202 On ch=1 n=e4 v=34
26218 On ch=1 n=c4 v=38
26430 On ch=1 n=a#4 v=0
26536 On ch=1 n=e4 v=0
26592 On ch=1 n=f5 v=51
26594 On ch=1 n=f4 v=38
26626 On ch=1 n=a4 v=33
26630 Par ch=1 c=64 v=63
26648 On ch=1 n=c6 v=0
26672 Par ch=1 c=64 v=0
26734 Par ch=1 c=64 v=63
26766 On ch=1 n=c4 v=0
26778 Par ch=1 c=64 v=127
26964 On ch=1 n=a4 v=0
26968 On ch=1 n=f5 v=0
27004 On ch=1 n=f4 v=0
27026 Par ch=1 c=64 v=63
27036 Par ch=1 c=64 v=0
27466 Par ch=1 c=64 v=63
27470 Par ch=1 c=64 v=127
27484 On ch=1 n=c#5 v=124
27486 On ch=1 n=c#4 v=114
27486 On ch=1 n=c#3 v=104
27540 On ch=1 n=c#5 v=0
27552 On ch=1 n=c#4 v=0
27554 On ch=1 n=c#3 v=0
27912 Par ch=1 c=64 v=63
27918 Par ch=1 c=64 v=0
27954 On ch=1 n=d3 v=93
27978 On ch=1 n=d5 v=125
27982 On ch=1 n=d4 v=116
27988 Par ch=1 c=64 v=63
28002 Par ch=1 c=64 v=127
28038 On ch=1 n=d3 v=0
28072 On ch=1 n=d4 v=0
28132 On ch=1 n=d5 v=0
28250 On ch=1 n=f4 v=55
28376 On ch=1 n=f4 v=0
28392 On ch=1 n=a4 v=72
28568 On ch=1 n=a4 v=0
28576 On ch=1 n=f4 v=45
28582 On ch=1 n=f5 v=76
28678 On ch=1 n=a5 v=88
28686 On ch=1 n=f5 v=0
28694 On ch=1 n=f4 v=0
28710 On ch=1 n=a4 v=56
28736 On ch=1 n=d6 v=92
28762 On ch=1 n=a5 v=0
28808 On ch=1 n=d6 v=0
28876 On ch=1 n=a4 v=0
28896 On ch=1 n=f4 v=31
28928 On ch=1 n=a5 v=83
29000 On ch=1 n=d6 v=101
29026 On ch=1 n=a5 v=0
29066 On ch=1 n=f6 v=106
29068 On ch=1 n=d4 v=67
29076 On ch=1 n=f4 v=0
29098 On ch=1 n=d6 v=0
29170 On ch=1 n=f6 v=0
29260 On ch=1 n=f4 v=66
29268 On ch=1 n=d6 v=94
29324 On ch=1 n=f6 v=106
29358 On ch=1 n=d6 v=0
29400 On ch=1 n=a6 v=108
29420 On ch=1 n=a4 v=75
29450 On ch=1 n=f6 v=0
29456 On ch=1 n=f4 v=0
29504 On ch=1 n=a6 v=0
29606 On ch=1 n=a6 v=116
29612 On ch=1 n=f4 v=74
29626 On ch=1 n=a4 v=0
29770 On ch=1 n=f6 v=107
29772 On ch=1 n=a4 v=70
29786 On ch=1 n=f4 v=0
29842 On ch=1 n=a6 v=0
29930 On ch=1 n=d6 v=90
29932 On ch=1 n=f6 v=0
29948 On ch=1 n=f4 v=76
29968 On ch=1 n=a4 v=0
29968 On ch=1 n=d4 v=0
30000 On ch=1 n=f4 v=0
30010 On ch=1 n=d6 v=0
30144 On ch=1 n=c#6 v=81
30184 On ch=1 n=e6 v=59
30186 Par ch=1 c=64 v=63
30198 Par ch=1 c=64 v=0
30198 On ch=1 n=g6 v=96
30216 On ch=1 n=e3 v=68
30230 On ch=1 n=a#6 v=116
30244 On ch=1 n=e4 v=114
30252 Par ch=1 c=64 v=63
30268 Par ch=1 c=64 v=127
30296 On ch=1 n=e3 v=0
30296 On ch=1 n=e6 v=0
30316 On ch=1 n=c#6 v=0
30320 On ch=1 n=e4 v=0
30360 On ch=1 n=g6 v=0
30600 On ch=1 n=e4 v=78
30608 On ch=1 n=g4 v=76
30610 On ch=1 n=a#4 v=98
30616 On ch=1 n=c#5 v=107
30678 On ch=1 n=c#5 v=0
30688 On ch=1 n=a#6 v=0
30692 On ch=1 n=a#4 v=0
30702 On ch=1 n=g4 v=0
30714 On ch=1 n=e4 v=0
30792 On ch=1 n=a6 v=84
30868 On ch=1 n=g6 v=85
30914 Par ch=1 c=64 v=63
30922 Par ch=1 c=64 v=0
30930 On ch=1 n=a6 v=0
30948 On ch=1 n=f6 v=81
31004 On ch=1 n=g6 v=0
31014 On ch=1 n=e6 v=83
31040 On ch=1 n=f6 v=0
31094 On ch=1 n=d6 v=83
31104 On ch=1 n=e6 v=0
31192 On ch=1 n=c#6 v=80
31214 On ch=1 n=d6 v=0
31284 On ch=1 n=c#6 v=0
31296 On ch=1 n=e3 v=100
31326 On ch=1 n=a#6 v=107
31328 Par ch=1 c=64 v=63
31330 Par ch=1 c=64 v=127
31334 On ch=1 n=e4 v=113
31372 On ch=1 n=e3 v=0
31406 On ch=1 n=e4 v=0
31466 On ch=1 n=a#6 v=0
31728 On ch=1 n=e4 v=90
31734 On ch=1 n=a#4 v=101
31738 On ch=1 n=c#5 v=114
31742 On ch=1 n=g4 v=76
31790 On ch=1 n=e4 v=0
31794 On ch=1 n=g4 v=0
31796 On ch=1 n=c#5 v=0
31798 On ch=1 n=a#4 v=0
31934 On ch=1 n=a6 v=87
32012 On ch=1 n=g6 v=86
32074 On ch=1 n=a6 v=0
32100 On ch=1 n=f6 v=76
32134 On ch=1 n=g6 v=0
32158 Par ch=1 c=64 v=63
32172 Par ch=1 c=64 v=0
32174 On ch=1 n=e6 v=89
32194 On ch=1 n=f6 v=0
32264 On ch=1 n=e6 v=0
32266 On ch=1 n=d6 v=76
32348 On ch=1 n=c#6 v=104
32358 On ch=1 n=d6 v=0
32402 On ch=1 n=c#6 v=0
32458 On ch=1 n=f4 v=82
32462 On ch=1 n=d6 v=112
32490 Par ch=1 c=64 v=63
32494 Par ch=1 c=64 v=127
32544 On ch=1 n=d6 v=0
32640 On ch=1 n=a4 v=54
32832 On ch=1 n=a4 v=0
32842 On ch=1 n=d5 v=82
33032 On ch=1 n=d5 v=0
33038 On ch=1 n=a4 v=51
33038 On ch=1 n=f5 v=83
33116 On ch=1 n=a5 v=84
33134 On ch=1 n=f5 v=0
33152 On ch=1 n=f4 v=0
33182 Par ch=1 c=64 v=63
33184 On ch=1 n=d6 v=96
33214 On ch=1 n=a5 v=0
33220 On ch=1 n=a4 v=0
33224 On ch=1 n=d5 v=65
33262 Par ch=1 c=64 v=127
33278 On ch=1 n=d6 v=0
33386 On ch=1 n=a5 v=84
33390 On ch=1 n=d5 v=0
33410 On ch=1 n=a4 v=69
33454 On ch=1 n=d6 v=97
33472 Par ch=1 c=64 v=63
33478 On ch=1 n=a5 v=0
33500 Par ch=1 c=64 v=0
33534 On ch=1 n=f6 v=106
33560 On ch=1 n=d6 v=0
33562 On ch=1 n=f4 v=84
33568 Par ch=1 c=64 v=63
33588 On ch=1 n=a4 v=0
33600 Par ch=1 c=64 v=127
33630 On ch=1 n=f6 v=0
33744 On ch=1 n=d6 v=89
33752 On ch=1 n=a4 v=75
33778 On ch=1 n=f4 v=0
33796 On ch=1 n=f6 v=99
33828 On ch=1 n=d6 v=0
33890 On ch=1 n=a6 v=104
33926 On ch=1 n=f6 v=0
33926 On ch=1 n=d5 v=84
33934 On ch=1 n=a4 v=0
33980 On ch=1 n=a6 v=0
34102 On ch=1 n=a6 v=113
34106 On ch=1 n=a4 v=86
34108 On ch=1 n=d5 v=0
34278 On ch=1 n=a4 v=0
34298 On ch=1 n=f6 v=106
34302 On ch=1 n=a6 v=0
34304 On ch=1 n=d5 v=75
34450 On ch=1 n=d6 v=100
34452 On ch=1 n=d5 v=0
34458 On ch=1 n=a4 v=88
34468 On ch=1 n=f6 v=0
34496 On ch=1 n=a4 v=0
34560 On ch=1 n=d6 v=0
34650 Par ch=1 c=64 v=63
34660 Par ch=1 c=64 v=0
34680 On ch=1 n=b5 v=99
34686 On ch=1 n=d6 v=106
34686 On ch=1 n=d4 v=92
34688 On ch=1 n=d3 v=112
34692 On ch=1 n=f6 v=106
34694 On ch=1 n=g#6 v=114
34732 Par ch=1 c=64 v=63
34748 Par ch=1 c=64 v=127
34788 On ch=1 n=d3 v=0
34802 On ch=1 n=d4 v=0
35040 On ch=1 n=g#6 v=0
35062 On ch=1 n=b5 v=0
35074 On ch=1 n=f4 v=94
35076 On ch=1 n=d6 v=0
35078 On ch=1 n=g#4 v=109
35078 On ch=1 n=b4 v=107
35080 On ch=1 n=f6 v=0
35082 On ch=1 n=d4 v=98
35138 On ch=1 n=b4 v=0
35138 On ch=1 n=f4 v=0
35146 On ch=1 n=g#4 v=0
35152 On ch=1 n=d4 v=0
35316 On ch=1 n=g6 v=89
35382 On ch=1 n=f6 v=93
35392 Par ch=1 c=64 v=63
35402 Par ch=1 c=64 v=0
35458 On ch=1 n=g6 v=0
35464 On ch=1 n=d#6 v=96
35522 On ch=1 n=f6 v=0
35542 On ch=1 n=d6 v=94
35572 On ch=1 n=d#6 v=0
35626 On ch=1 n=d6 v=0
35626 On ch=1 n=c6 v=83
35698 On ch=1 n=b5 v=102
35722 On ch=1 n=c6 v=0
35774 On ch=1 n=b5 v=0
35824 On ch=1 n=d3 v=92
35844 On ch=1 n=d4 v=117
35848 Par ch=1 c=64 v=63
35850 Par ch=1 c=64 v=127
35850 On ch=1 n=g#6 v=112
35892 On ch=1 n=d3 v=0
35904 On ch=1 n=d4 v=0
36234 On ch=1 n=d4 v=96
36240 On ch=1 n=b4 v=104
36242 On ch=1 n=f4 v=98
36244 On ch=1 n=g#6 v=0
36246 On ch=1 n=g#4 v=106
36298 On ch=1 n=b4 v=0
36304 On ch=1 n=d4 v=0
36306 On ch=1 n=g#4 v=0
36308 On ch=1 n=f4 v=0
36468 On ch=1 n=g6 v=76
36532 On ch=1 n=f6 v=89
36598 On ch=1 n=g6 v=0
36620 On ch=1 n=d#6 v=87
36662 On ch=1 n=f6 v=0
36686 On ch=1 n=d6 v=86
36706 On ch=1 n=d#6 v=0
36764 On ch=1 n=d6 v=0
36768 On ch=1 n=c6 v=72
36838 On ch=1 n=b5 v=102
36862 On ch=1 n=c6 v=0
36928 Par ch=1 c=64 v=63
36930 On ch=1 n=b5 v=0
36942 Par ch=1 c=64 v=0
36970 On ch=1 n=c6 v=112
36986 On ch=1 n=d#4 v=90
37046 Par ch=1 c=64 v=63
37068 Par ch=1 c=64 v=127
37158 On ch=1 n=c6 v=0
37184 On ch=1 n=g4 v=71
37202 On ch=1 n=d#4 v=0
37322 On ch=1 n=g4 v=0
37360 On ch=1 n=c5 v=61
37448 On ch=1 n=g5 v=74
37520 On ch=1 n=c5 v=0
37528 On ch=1 n=g5 v=0
37538 On ch=1 n=c6 v=84
37554 On ch=1 n=g4 v=53
37602 On ch=1 n=c6 v=0
37618 On ch=1 n=g5 v=85
37670 On ch=1 n=g4 v=0
37692 On ch=1 n=g5 v=0
37726 On ch=1 n=d#6 v=96
37730 On ch=1 n=c5 v=45
37800 On ch=1 n=d#6 v=0
37808 On ch=1 n=c6 v=89
37850 On ch=1 n=c5 v=0
37858 On ch=1 n=g4 v=33
37910 On ch=1 n=c6 v=0
37910 On ch=1 n=d#6 v=94
37972 On ch=1 n=d#6 v=0
37976 On ch=1 n=c6 v=79
38062 On ch=1 n=d#4 v=86
38066 On ch=1 n=c6 v=0
38066 On ch=1 n=g4 v=0
38074 On ch=1 n=g6 v=103
38168 On ch=1 n=d#6 v=110
38184 On ch=1 n=g6 v=0
38226 On ch=1 n=g4 v=62
38264 On ch=1 n=d#6 v=0
38266 On ch=1 n=g6 v=86
38338 On ch=1 n=d#6 v=104
38372 On ch=1 n=g6 v=0
38410 On ch=1 n=d#6 v=0
38450 On ch=1 n=g4 v=0
38452 On ch=1 n=c7 v=112
38464 On ch=1 n=c5 v=72
38510 On ch=1 n=c7 v=0
38632 On ch=1 n=c5 v=0
38646 On ch=1 n=g4 v=59
38658 On ch=1 n=d#4 v=0
38812 On ch=1 n=g4 v=0
38836 On ch=1 n=c5 v=79
38922 Par ch=1 c=64 v=63
38934 Par ch=1 c=64 v=0
39002 On ch=1 n=c5 v=0
39014 On ch=1 n=g4 v=71
39180 On ch=1 n=g4 v=0
39254 On ch=1 n=c4 v=80
39260 On ch=1 n=c6 v=116
39264 Par ch=1 c=64 v=63
39268 Par ch=1 c=64 v=127
39332 On ch=1 n=c6 v=0
39454 On ch=1 n=c4 v=0
39486 On ch=1 n=d#4 v=89
39600 On ch=1 n=d#4 v=0
39658 On ch=1 n=g#4 v=85
39776 On ch=1 n=g#5 v=85
39794 On ch=1 n=g#4 v=0
39848 On ch=1 n=g#5 v=0
39852 On ch=1 n=d#4 v=65
39858 On ch=1 n=c6 v=66
39928 On ch=1 n=g#5 v=86
39944 On ch=1 n=c6 v=0
39982 On ch=1 n=d#4 v=0
40012 On ch=1 n=g#5 v=0
40020 On ch=1 n=g#4 v=63
40034 On ch=1 n=d#6 v=95
40118 On ch=1 n=d#6 v=0
40134 On ch=1 n=c6 v=71
40152 On ch=1 n=g#4 v=0
40154 On ch=1 n=d#4 v=61
40206 On ch=1 n=d#6 v=99
40220 On ch=1 n=c6 v=0
40278 On ch=1 n=d#6 v=0
40280 On ch=1 n=c6 v=91
40358 On ch=1 n=d#4 v=0
40360 On ch=1 n=c4 v=80
40374 On ch=1 n=c6 v=0
40384 On ch=1 n=g#6 v=109
40466 On ch=1 n=d#6 v=106
40488 On ch=1 n=g#6 v=0
40552 On ch=1 n=g#6 v=95
40560 On ch=1 n=d#4 v=79
40562 On ch=1 n=d#6 v=0
40604 On ch=1 n=c4 v=0
40652 On ch=1 n=d#6 v=100
40662 On ch=1 n=g#6 v=0
40698 On ch=1 n=d#6 v=0
40732 On ch=1 n=c7 v=109
40768 On ch=1 n=g#4 v=88
40772 On ch=1 n=d#4 v=0
40800 On ch=1 n=c7 v=0
40950 On ch=1 n=d#4 v=80
40954 On ch=1 n=g#4 v=0
41124 On ch=1 n=d#4 v=0
41130 On ch=1 n=g#4 v=87
41242 Par ch=1 c=64 v=63
41254 Par ch=1 c=64 v=0
41294 On ch=1 n=d#4 v=85
41310 On ch=1 n=g#4 v=0
41538 On ch=1 n=g#3 v=99
41542 On ch=1 n=d#4 v=0
41544 On ch=1 n=c6 v=120
41566 Par ch=1 c=64 v=63
41568 Par ch=1 c=64 v=127
41688 On ch=1 n=c6 v=0
41732 On ch=1 n=g#3 v=0
41756 On ch=1 n=c4 v=79
41872 On ch=1 n=c4 v=0
41948 On ch=1 n=d#4 v=89
42054 On ch=1 n=f#5 v=96
42080 On ch=1 n=d#4 v=0
42114 On ch=1 n=c4 v=95
42140 On ch=1 n=f#5 v=0
42150 On ch=1 n=c6 v=97
42218 On ch=1 n=f#5 v=95
42222 On ch=1 n=c6 v=0
42266 On ch=1 n=c4 v=0
42272 On ch=1 n=d#4 v=74
42290 On ch=1 n=f#5 v=0
42326 On ch=1 n=d#6 v=94
42384 On ch=1 n=c4 v=94
42394 On ch=1 n=d#4 v=0
42418 On ch=1 n=d#6 v=0
42438 On ch=1 n=c6 v=61
42498 On ch=1 n=c6 v=0
42506 On ch=1 n=d#6 v=99
42518 On ch=1 n=c4 v=0
42586 On ch=1 n=c6 v=97
42592 On ch=1 n=d#6 v=0
42604 On ch=1 n=c4 v=48
42684 On ch=1 n=c6 v=0
42684 On ch=1 n=f#6 v=115
42710 On ch=1 n=g#3 v=105
42744 On ch=1 n=c4 v=0
42770 On ch=1 n=d#6 v=110
42794 On ch=1 n=f#6 v=0
42874 On ch=1 n=f#6 v=101
42886 On ch=1 n=c4 v=81
42890 On ch=1 n=d#6 v=0
42946 On ch=1 n=d#6 v=107
42988 On ch=1 n=f#6 v=0
43028 On ch=1 n=d#6 v=0
43054 On ch=1 n=c7 v=117
43066 On ch=1 n=d#4 v=97
43108 On ch=1 n=c4 v=0
43126 On ch=1 n=c7 v=0
43260 On ch=1 n=c4 v=84
43272 On ch=1 n=d#4 v=0
43462 On ch=1 n=d#4 v=82
43468 On ch=1 n=f#6 v=121
43472 On ch=1 n=c4 v=0
43560 On ch=1 n=f#6 v=0
43582 On ch=1 n=d#4 v=0
43622 On ch=1 n=c4 v=71
43644 On ch=1 n=g#3 v=0
43788 On ch=1 n=g5 v=82
43820 On ch=1 n=b5 v=85
43842 Par ch=1 c=64 v=63
43846 On ch=1 n=d6 v=93
43852 On ch=1 n=c4 v=0
43854 Par ch=1 c=64 v=0
43858 On ch=1 n=g3 v=112
43870 On ch=1 n=g6 v=108
43882 On ch=1 n=g5 v=0
43912 On ch=1 n=b5 v=0
43940 On ch=1 n=d6 v=0
43988 Par ch=1 c=64 v=63
43996 Par ch=1 c=64 v=127
44094 On ch=1 n=b3 v=86
44308 On ch=1 n=d4 v=92
44386 On ch=1 n=b3 v=0
44476 On ch=1 n=g4 v=66
44490 On ch=1 n=g3 v=0
44496 On ch=1 n=d4 v=0
44644 On ch=1 n=g6 v=0
44672 On ch=1 n=g4 v=0
44672 On ch=1 n=c4 v=93
44682 On ch=1 n=f6 v=92
44736 Par ch=1 c=64 v=63
44764 On ch=1 n=d#6 v=110
44770 Par ch=1 c=64 v=0
44812 On ch=1 n=f6 v=0
44838 On ch=1 n=d6 v=92
44846 On ch=1 n=d#4 v=92
44888 On ch=1 n=c4 v=0
44906 On ch=1 n=d#6 v=0
44914 On ch=1 n=c6 v=106
44984 On ch=1 n=d#4 v=0
44986 On ch=1 n=d6 v=0
45014 Par ch=1 c=64 v=63
45016 On ch=1 n=c6 v=0
45026 Par ch=1 c=64 v=127
45038 On ch=1 n=g6 v=116
45048 On ch=1 n=g3 v=106
45244 On ch=1 n=b3 v=89
45278 On ch=1 n=g3 v=0
45466 On ch=1 n=d4 v=94
45526 On ch=1 n=b3 v=0
45614 On ch=1 n=d4 v=0
45618 On ch=1 n=g4 v=81
45760 On ch=1 n=g6 v=0
45786 On ch=1 n=g4 v=0
45812 Par ch=1 c=64 v=63
45822 Par ch=1 c=64 v=0
45826 On ch=1 n=c4 v=99
45828 On ch=1 n=f6 v=104
45920 On ch=1 n=d#6 v=105
45944 On ch=1 n=f6 v=0
45984 On ch=1 n=c4 v=0
45986 On ch=1 n=d#4 v=88
45988 On ch=1 n=d6 v=90
46036 On ch=1 n=d#6 v=0
46096 On ch=1 n=c6 v=93
46126 On ch=1 n=d6 v=0
46136 On ch=1 n=d#4 v=0
46180 On ch=1 n=c6 v=0
46200 On ch=1 n=g3 v=85
46210 On ch=1 n=g6 v=113
46212 On ch=1 n=g4 v=112
46250 Par ch=1 c=64 v=63
46252 Par ch=1 c=64 v=127
46460 On ch=1 n=g3 v=0
46504 On ch=1 n=g6 v=0
46532 On ch=1 n=g4 v=0
46868 On ch=1 n=g#4 v=106
46870 On ch=1 n=g#6 v=112
46890 Par ch=1 c=64 v=63
46896 Par ch=1 c=64 v=0
46948 On ch=1 n=g6 v=98
46952 On ch=1 n=g#4 v=0
46962 On ch=1 n=g4 v=94
46978 On ch=1 n=g#6 v=0
47042 On ch=1 n=f6 v=97
47048 On ch=1 n=g6 v=0
47068 On ch=1 n=f4 v=83
47072 On ch=1 n=g4 v=0
47122 On ch=1 n=d#4 v=103
47132 On ch=1 n=f6 v=0
47140 On ch=1 n=d#6 v=104
47154 On ch=1 n=f4 v=0
47218 On ch=1 n=d6 v=99
47232 On ch=1 n=d#4 v=0
47232 On ch=1 n=d4 v=89
47236 On ch=1 n=d#6 v=0
47308 On ch=1 n=c6 v=99
47336 On ch=1 n=d6 v=0
47336 On ch=1 n=c4 v=97
47374 On ch=1 n=d4 v=0
47406 On ch=1 n=c6 v=0
47418 On ch=1 n=g6 v=107
47432 On ch=1 n=g4 v=109
47446 On ch=1 n=c4 v=0
47476 On ch=1 n=g6 v=0
47512 On ch=1 n=g4 v=0
47890 On ch=1 n=g5 v=113
47892 On ch=1 n=g3 v=116
47966 On ch=1 n=g5 v=0
47982 On ch=1 n=g3 v=0
48860 Par ch=1 c=64 v=63
48878 Par ch=1 c=64 v=127
48890 On ch=1 n=c4 v=42
48976 On ch=1 n=g4 v=35
49088 On ch=1 n=g5 v=34
49122 On ch=1 n=c5 v=25
49144 On ch=1 n=c4 v=0
49172 On ch=1 n=g4 v=0
49182 On ch=1 n=e6 v=74
49202 On ch=1 n=g5 v=0
49252 On ch=1 n=c5 v=0
49300 On ch=1 n=e6 v=0
49628 Par ch=1 c=64 v=63
49630 On ch=1 n=e6 v=59
49668 Par ch=1 c=64 v=0
49678 On ch=1 n=e6 v=0
50026 On ch=1 n=e6 v=70
50126 On ch=1 n=e6 v=0
50320 Par ch=1 c=64 v=63
50376 Par ch=1 c=64 v=127
50380 On ch=1 n=g4 v=41
50464 On ch=1 n=d5 v=35
50486 On ch=1 n=b5 v=32
50554 On ch=1 n=f5 v=45
50556 On ch=1 n=g6 v=67
50590 On ch=1 n=b5 v=0
50768 On ch=1 n=g4 v=0
50806 On ch=1 n=d5 v=0
50812 On ch=1 n=f5 v=0
50854 On ch=1 n=g6 v=0
51212 On ch=1 n=f6 v=54
51390 On ch=1 n=f6 v=0
51422 On ch=1 n=d6 v=71
51520 On ch=1 n=d6 v=0
51852 On ch=1 n=d6 v=63
51854 On ch=1 n=c4 v=27
51864 On ch=1 n=e5 v=47
51912 Par ch=1 c=64 v=63
51938 Par ch=1 c=64 v=0
52044 Par ch=1 c=64 v=63
52056 On ch=1 n=c6 v=79
52074 Par ch=1 c=64 v=127
52086 On ch=1 n=e5 v=0
52140 On ch=1 n=d6 v=0
52176 On ch=1 n=c6 v=0
52250 On ch=1 n=e4 v=54
52260 On ch=1 n=g5 v=69
52262 On ch=1 n=c6 v=74
52270 On ch=1 n=c4 v=0
52304 Par ch=1 c=64 v=63
52420 Par ch=1 c=64 v=127
52598 Par ch=1 c=64 v=63
52638 On ch=1 n=g4 v=67
52712 On ch=1 n=e4 v=0
52740 Par ch=1 c=64 v=127
52796 On ch=1 n=g5 v=0
52804 On ch=1 n=c6 v=0
52816 On ch=1 n=d6 v=82
52822 On ch=1 n=b5 v=75
52878 On ch=1 n=b5 v=0
52884 On ch=1 n=g4 v=0
52936 On ch=1 n=d6 v=0
53040 On ch=1 n=d6 v=83
53050 On ch=1 n=b5 v=71
53056 On ch=1 n=c5 v=30
53080 Par ch=1 c=64 v=63
53112 Par ch=1 c=64 v=0
53472 On ch=1 n=c4 v=60
53498 On ch=1 n=c5 v=0
53614 Par ch=1 c=64 v=63
53618 Par ch=1 c=64 v=127
53826 Par ch=1 c=64 v=63
53834 On ch=1 n=b5 v=0
53844 Par ch=1 c=64 v=0
53874 On ch=1 n=d6 v=0
53916 On ch=1 n=e6 v=58
53932 On ch=1 n=c6 v=45
53934 Par ch=1 c=64 v=63
53942 On ch=1 n=c4 v=0
53946 Par ch=1 c=64 v=127
54064 On ch=1 n=c6 v=0
54076 On ch=1 n=e6 v=0
54350 On ch=1 n=a4 v=42
54354 Par ch=1 c=64 v=63
54370 On ch=1 n=f6 v=76
54374 Par ch=1 c=64 v=0
54480 Par ch=1 c=64 v=63
54502 Par ch=1 c=64 v=127
54774 On ch=1 n=f5 v=39
54778 On ch=1 n=c5 v=40
54840 On ch=1 n=f6 v=0
54906 On ch=1 n=g6 v=70
54968 On ch=1 n=f6 v=68
54982 On ch=1 n=g6 v=0
55032 On ch=1 n=e6 v=70
55038 On ch=1 n=f6 v=0
55098 Par ch=1 c=64 v=63
55104 On ch=1 n=f6 v=78
55130 On ch=1 n=e6 v=0
55140 Par ch=1 c=64 v=0
55178 On ch=1 n=g6 v=85
55216 On ch=1 n=f6 v=0
55262 On ch=1 n=f5 v=0
55276 On ch=1 n=a4 v=0
55294 On ch=1 n=c5 v=0
55378 On ch=1 n=a6 v=97
55440 On ch=1 n=g6 v=0
55526 On ch=1 n=a6 v=0
55576 On ch=1 n=b4 v=55
55582 On ch=1 n=a6 v=80
55610 Par ch=1 c=64 v=63
55632 Par ch=1 c=64 v=127
55780 On ch=1 n=g6 v=89
55850 On ch=1 n=a6 v=0
55974 On ch=1 n=f#6 v=80
55990 On ch=1 n=g5 v=30
55990 On ch=1 n=d5 v=45
56002 Par ch=1 c=64 v=63
56030 On ch=1 n=g6 v=0
56064 Par ch=1 c=64 v=0
56164 On ch=1 n=g6 v=69
56224 On ch=1 n=f#6 v=0
56374 On ch=1 n=f6 v=75
56384 On ch=1 n=d5 v=0
56388 On ch=1 n=g5 v=0
56426 On ch=1 n=g6 v=0
56466 On ch=1 n=b4 v=0
56532 On ch=1 n=d6 v=72
56542 On ch=1 n=f6 v=0
56736 Par ch=1 c=64 v=63
56742 On ch=1 n=c5 v=64
56754 On ch=1 n=d#6 v=76
56762 On ch=1 n=d6 v=0
56796 Par ch=1 c=64 v=0
56844 On ch=1 n=c5 v=0
56912 On ch=1 n=e6 v=83
56974 On ch=1 n=d#6 v=0
57012 Par ch=1 c=64 v=63
57094 On ch=1 n=a4 v=55
57098 On ch=1 n=c5 v=64
57100 On ch=1 n=f6 v=90
57116 Par ch=1 c=64 v=127
57172 Par ch=1 c=64 v=63
57176 On ch=1 n=e6 v=0
57240 On ch=1 n=c5 v=0
57266 On ch=1 n=a4 v=0
57286 On ch=1 n=e6 v=90
57380 On ch=1 n=f6 v=0
57494 On ch=1 n=g6 v=79
57502 On ch=1 n=f4 v=54
57506 On ch=1 n=d5 v=57
57564 On ch=1 n=e6 v=0
57680 On ch=1 n=f6 v=91
57728 On ch=1 n=d5 v=0
57746 On ch=1 n=g6 v=0
57806 On ch=1 n=f4 v=0
57876 On ch=1 n=g4 v=51
57878 On ch=1 n=b4 v=59
57880 On ch=1 n=e6 v=82
57948 On ch=1 n=f6 v=0
58068 Par ch=1 c=64 v=0
58072 On ch=1 n=d6 v=78
58134 On ch=1 n=e6 v=0
58268 On ch=1 n=c6 v=65
58272 On ch=1 n=d6 v=0
58396 On ch=1 n=b4 v=0
58412 On ch=1 n=g4 v=0
58440 On ch=1 n=c6 v=0
58460 On ch=1 n=b5 v=67
58656 On ch=1 n=a5 v=59
58674 On ch=1 n=b5 v=0
58820 On ch=1 n=a5 v=0
58840 On ch=1 n=g5 v=63
58984 On ch=1 n=g5 v=0
59048 On ch=1 n=d#6 v=72
59068 On ch=1 n=c5 v=27
59068 Par ch=1 c=64 v=63
59096 Par ch=1 c=64 v=127
59250 On ch=1 n=e5 v=29
59254 On ch=1 n=d#6 v=0
59254 On ch=1 n=e6 v=74
59294 On ch=1 n=c5 v=0
59368 On ch=1 n=e6 v=0
59374 On ch=1 n=g5 v=36
59386 On ch=1 n=e5 v=0
59454 On ch=1 n=d#6 v=90
59460 On ch=1 n=c5 v=60
59478 On ch=1 n=g5 v=0
59478 Par ch=1 c=64 v=63
59586 Par ch=1 c=64 v=127
59620 On ch=1 n=e5 v=35
59636 On ch=1 n=c5 v=0
59648 On ch=1 n=e6 v=90
59702 On ch=1 n=d#6 v=0
59710 On ch=1 n=g5 v=38
59756 On ch=1 n=e5 v=0
59842 On ch=1 n=e6 v=0
59850 On ch=1 n=c5 v=55
59852 On ch=1 n=g5 v=0
59860 On ch=1 n=d#6 v=99
59870 Par ch=1 c=64 v=63
59944 Par ch=1 c=64 v=127
60002 On ch=1 n=e5 v=53
60048 On ch=1 n=e6 v=99
60056 On ch=1 n=c5 v=0
60118 On ch=1 n=d#6 v=0
60126 On ch=1 n=e5 v=0
60140 On ch=1 n=g5 v=55
60158 On ch=1 n=e6 v=0
60244 On ch=1 n=f#6 v=105
60268 Par ch=1 c=64 v=63
60268 On ch=1 n=b4 v=65
60278 On ch=1 n=g5 v=0
60396 Par ch=1 c=64 v=127
60406 On ch=1 n=d5 v=53
60410 On ch=1 n=g6 v=93
60476 On ch=1 n=f#6 v=0
60494 On ch=1 n=b4 v=0
60524 On ch=1 n=g5 v=55
60586 On ch=1 n=g6 v=0
60610 On ch=1 n=f#6 v=108
60632 On ch=1 n=d5 v=0
60636 On ch=1 n=b4 v=68
60650 Par ch=1 c=64 v=63
60680 On ch=1 n=g5 v=0
60732 Par ch=1 c=64 v=127
60786 On ch=1 n=d5 v=71
60792 On ch=1 n=g6 v=102
60834 On ch=1 n=b4 v=0
60864 On ch=1 n=f#6 v=0
60932 On ch=1 n=g5 v=30
60960 On ch=1 n=d5 v=0
61018 On ch=1 n=b4 v=68
61020 On ch=1 n=f6 v=101
61044 Par ch=1 c=64 v=63
61058 On ch=1 n=g5 v=0
61100 On ch=1 n=g6 v=0
61140 Par ch=1 c=64 v=127
61182 On ch=1 n=f5 v=47
61204 On ch=1 n=d6 v=87
61250 On ch=1 n=f6 v=0
61264 On ch=1 n=b4 v=0
61284 On ch=1 n=g5 v=61
61320 On ch=1 n=d6 v=0
61364 On ch=1 n=f5 v=0
61390 Par ch=1 c=64 v=63
61418 On ch=1 n=g5 v=0
61434 On ch=1 n=d6 v=71
61434 On ch=1 n=e5 v=63
61446 On ch=1 n=c5 v=48
61512 Par ch=1 c=64 v=127
61570 On ch=1 n=e5 v=0
61598 On ch=1 n=c5 v=0
61640 On ch=1 n=c6 v=78
61684 On ch=1 n=d6 v=0
61806 On ch=1 n=c6 v=0
61838 On ch=1 n=e4 v=64
61862 On ch=1 n=d6 v=80
61862 On ch=1 n=g5 v=59
61932 Par ch=1 c=64 v=63
62036 On ch=1 n=c6 v=90
62068 Par ch=1 c=64 v=127
62136 On ch=1 n=d6 v=0
62214 On ch=1 n=g5 v=0
62242 On ch=1 n=e6 v=81
62250 On ch=1 n=g4 v=55
62270 On ch=1 n=b5 v=63
62296 Par ch=1 c=64 v=63
62302 On ch=1 n=c6 v=0
62316 On ch=1 n=e4 v=0
62340 Par ch=1 c=64 v=0
62388 Par ch=1 c=64 v=63
62414 On ch=1 n=d6 v=78
62436 Par ch=1 c=64 v=127
62482 On ch=1 n=e6 v=0
62498 On ch=1 n=b5 v=0
62566 On ch=1 n=d6 v=0
62612 On ch=1 n=g4 v=0
62630 On ch=1 n=b5 v=67
62636 On ch=1 n=c5 v=56
62642 On ch=1 n=d6 v=84
62740 Par ch=1 c=64 v=63
62790 Par ch=1 c=64 v=0
63064 Par ch=1 c=64 v=63
63068 On ch=1 n=c5 v=0
63078 On ch=1 n=g4 v=59
63078 Par ch=1 c=64 v=127
63240 On ch=1 n=d#6 v=83
63292 On ch=1 n=b5 v=0
63300 On ch=1 n=d6 v=0
63424 On ch=1 n=d#6 v=0
63464 On ch=1 n=c4 v=53
63474 On ch=1 n=e6 v=72
63476 On ch=1 n=c6 v=54
63498 Par ch=1 c=64 v=63
63518 Par ch=1 c=64 v=0
63522 On ch=1 n=g4 v=0
63606 Par ch=1 c=64 v=63
63634 Par ch=1 c=64 v=127
63684 On ch=1 n=c4 v=0
63716 On ch=1 n=e6 v=0
63808 On ch=1 n=c6 v=0
63998 Par ch=1 c=64 v=63
64010 On ch=1 n=a4 v=44
64014 On ch=1 n=f6 v=70
64034 Par ch=1 c=64 v=0
64158 Par ch=1 c=64 v=63
64180 Par ch=1 c=64 v=127
64282 On ch=1 n=c5 v=59
64460 On ch=1 n=c5 v=0
64464 On ch=1 n=f6 v=0
64470 On ch=1 n=f5 v=68
64576 On ch=1 n=g6 v=71
64640 On ch=1 n=f6 v=70
64660 On ch=1 n=g6 v=0
64670 On ch=1 n=f5 v=0
64670 On ch=1 n=a4 v=0
64672 On ch=1 n=c5 v=52
64696 On ch=1 n=f6 v=0
64696 On ch=1 n=e6 v=70
64760 On ch=1 n=f6 v=83
64790 On ch=1 n=e6 v=0
64808 On ch=1 n=g6 v=93
64850 On ch=1 n=c5 v=0
64852 On ch=1 n=a4 v=47
64858 On ch=1 n=f6 v=0
64864 Par ch=1 c=64 v=63
64902 Par ch=1 c=64 v=0
64986 Par ch=1 c=64 v=63
65014 On ch=1 n=a6 v=99
65016 Par ch=1 c=64 v=127
65046 On ch=1 n=c5 v=69
65078 On ch=1 n=g6 v=0
65118 On ch=1 n=a4 v=0
65144 On ch=1 n=a6 v=0
65220 On ch=1 n=b4 v=76
65224 On ch=1 n=a6 v=90
65242 On ch=1 n=c5 v=0
65262 Par ch=1 c=64 v=63
65324 Par ch=1 c=64 v=0
65416 On ch=1 n=g6 v=96
65452 On ch=1 n=d5 v=64
65482 On ch=1 n=a6 v=0
65614 On ch=1 n=f#6 v=100
65622 Par ch=1 c=64 v=63
65628 On ch=1 n=g5 v=60
65634 On ch=1 n=d5 v=0
65650 Par ch=1 c=64 v=127
65702 On ch=1 n=g6 v=0
65796 On ch=1 n=g6 v=94
65806 On ch=1 n=d5 v=76
65826 On ch=1 n=b4 v=0
65832 On ch=1 n=g5 v=0
65860 On ch=1 n=f#6 v=0
65880 Par ch=1 c=64 v=63
65920 Par ch=1 c=64 v=0
66002 On ch=1 n=f6 v=91
66018 On ch=1 n=b4 v=69
66038 On ch=1 n=d5 v=0
66044 Par ch=1 c=64 v=63
66078 Par ch=1 c=64 v=127
66102 On ch=1 n=g6 v=0
66186 On ch=1 n=f6 v=0
66186 On ch=1 n=d6 v=76
66194 On ch=1 n=d5 v=50
66202 On ch=1 n=b4 v=0
66284 Par ch=1 c=64 v=63
66328 Par ch=1 c=64 v=0
66368 On ch=1 n=d6 v=0
66388 On ch=1 n=c5 v=70
66396 On ch=1 n=d5 v=0
66400 On ch=1 n=d#6 v=78
66426 Par ch=1 c=64 v=63
66438 Par ch=1 c=64 v=0
66518 On ch=1 n=c5 v=0
66566 On ch=1 n=e6 v=76
66580 On ch=1 n=d#6 v=0
66764 On ch=1 n=g6 v=75
66770 On ch=1 n=f4 v=62
66778 On ch=1 n=d5 v=54
66814 On ch=1 n=e6 v=0
66870 On ch=1 n=d5 v=0
66872 On ch=1 n=f4 v=0
66954 On ch=1 n=f6 v=78
66986 On ch=1 n=g6 v=0
67156 On ch=1 n=g4 v=60
67170 On ch=1 n=f5 v=49
67174 On ch=1 n=d6 v=66
67198 On ch=1 n=f6 v=0
67288 On ch=1 n=g4 v=0
67344 On ch=1 n=b5 v=68
67348 On ch=1 n=d6 v=0
67370 On ch=1 n=f5 v=0
67526 On ch=1 n=b5 v=0
67558 On ch=1 n=c6 v=61
67566 On ch=1 n=c5 v=39
67572 On ch=1 n=e5 v=42
67608 Par ch=1 c=64 v=63
67618 Par ch=1 c=64 v=127
67724 On ch=1 n=e5 v=0
67730 On ch=1 n=c6 v=0
67744 On ch=1 n=g5 v=56
67752 On ch=1 n=c5 v=0
67864 On ch=1 n=g5 v=0
67892 Par ch=1 c=64 v=63
67910 Par ch=1 c=64 v=0
67938 On ch=1 n=e5 v=60
68154 On ch=1 n=g5 v=48
68216 On ch=1 n=g5 v=0
68344 On ch=1 n=c5 v=50
68364 On ch=1 n=e5 v=0
68542 On ch=1 n=g5 v=60
68636 On ch=1 n=g5 v=0
68720 On ch=1 n=d5 v=59
68732 On ch=1 n=g5 v=61
68760 On ch=1 n=f5 v=32
68798 On ch=1 n=c5 v=0
68818 On ch=1 n=f5 v=0
68832 On ch=1 n=g5 v=0
68920 On ch=1 n=g5 v=68
68930 On ch=1 n=f5 v=46
68998 On ch=1 n=f5 v=0
69006 On ch=1 n=g5 v=0
69110 On ch=1 n=b4 v=76
69132 On ch=1 n=d5 v=0
69296 On ch=1 n=g5 v=76
69308 On ch=1 n=f5 v=51
69360 On ch=1 n=f5 v=0
69366 On ch=1 n=g5 v=0
69484 On ch=1 n=g4 v=68
69514 Par ch=1 c=64 v=63
69522 Par ch=1 c=64 v=127
69546 On ch=1 n=b4 v=0
69594 On ch=1 n=g4 v=0
69676 On ch=1 n=g5 v=46
69678 On ch=1 n=f5 v=52
69740 On ch=1 n=g5 v=0
69742 On ch=1 n=f5 v=0
69854 On ch=1 n=c4 v=86
69864 On ch=1 n=g5 v=60
69898 On ch=1 n=d#5 v=57
69946 On ch=1 n=d#5 v=0
69952 Par ch=1 c=64 v=63
69964 On ch=1 n=g5 v=0
69980 Par ch=1 c=64 v=0
70042 On ch=1 n=g5 v=68
70048 On ch=1 n=d#5 v=83
70118 On ch=1 n=d#5 v=0
70138 On ch=1 n=g5 v=0
70240 On ch=1 n=d#4 v=91
70304 On ch=1 n=c4 v=0
70426 On ch=1 n=d#5 v=73
70430 On ch=1 n=g5 v=67
70498 On ch=1 n=d#5 v=0
70514 On ch=1 n=g5 v=0
70618 On ch=1 n=c4 v=99
70678 On ch=1 n=d#4 v=0
70778 On ch=1 n=g5 v=73
70778 On ch=1 n=d#5 v=74
70866 On ch=1 n=d#5 v=0
70904 On ch=1 n=g5 v=0
70962 On ch=1 n=d4 v=99
70974 On ch=1 n=g5 v=69
70986 On ch=1 n=f5 v=76
71006 On ch=1 n=c4 v=0
71064 On ch=1 n=f5 v=0
71066 On ch=1 n=g5 v=0
71136 On ch=1 n=f5 v=76
71142 On ch=1 n=g5 v=64
71240 On ch=1 n=f5 v=0
71250 On ch=1 n=g5 v=0
71360 On ch=1 n=b3 v=101
71414 On ch=1 n=d4 v=0
71522 On ch=1 n=g5 v=82
71530 On ch=1 n=f5 v=76
71596 On ch=1 n=f5 v=0
71616 On ch=1 n=g5 v=0
71722 On ch=1 n=g3 v=104
71766 On ch=1 n=b3 v=0
71848 Par ch=1 c=64 v=63
71850 Par ch=1 c=64 v=127
71870 On ch=1 n=g3 v=0
71892 On ch=1 n=f5 v=90
71900 On ch=1 n=g5 v=76
71970 On ch=1 n=f5 v=0
72000 On ch=1 n=g5 v=0
72048 Par ch=1 c=64 v=63
72050 Par ch=1 c=64 v=0
72090 On ch=1 n=c3 v=101
72100 On ch=1 n=c4 v=114
72108 On ch=1 n=g5 v=107
72112 On ch=1 n=d#5 v=119
72156 Par ch=1 c=64 v=127
72180 On ch=1 n=c3 v=0
72192 On ch=1 n=d#5 v=0
72210 On ch=1 n=g5 v=0
72220 On ch=1 n=c4 v=0
72288 On ch=1 n=g5 v=84
72302 On ch=1 n=d#5 v=93
72344 On ch=1 n=d#5 v=0
72372 On ch=1 n=g5 v=0
72486 On ch=1 n=d#4 v=88
72568 Par ch=1 c=64 v=63
72578 Par ch=1 c=64 v=0
72682 On ch=1 n=g5 v=76
72692 On ch=1 n=d#5 v=71
72742 On ch=1 n=d#4 v=0
72750 On ch=1 n=d#5 v=0
72790 On ch=1 n=g5 v=0
72880 On ch=1 n=g4 v=80
73034 On ch=1 n=g5 v=80
73044 On ch=1 n=d#5 v=88
73112 On ch=1 n=g4 v=0
73158 On ch=1 n=d#5 v=0
73166 On ch=1 n=g5 v=0
73212 On ch=1 n=f3 v=99
73226 On ch=1 n=f4 v=112
73228 Par ch=1 c=64 v=127
73230 On ch=1 n=g#5 v=116
73240 On ch=1 n=d#5 v=106
73290 On ch=1 n=f3 v=0
73302 On ch=1 n=d#5 v=0
73304 On ch=1 n=f4 v=0
73336 On ch=1 n=g#5 v=0
73408 On ch=1 n=g#5 v=89
73420 On ch=1 n=d#5 v=76
73478 On ch=1 n=d#5 v=0
73506 On ch=1 n=g#5 v=0
73614 On ch=1 n=g#4 v=76
73684 Par ch=1 c=64 v=63
73692 Par ch=1 c=64 v=0
73780 On ch=1 n=g#4 v=0
73812 On ch=1 n=g#5 v=92
73820 On ch=1 n=d#5 v=88
73870 On ch=1 n=d#5 v=0
73902 On ch=1 n=g#5 v=0
74012 On ch=1 n=c5 v=89
74014 Par ch=1 c=64 v=63
74020 Par ch=1 c=64 v=127
74066 On ch=1 n=c5 v=0
74126 Par ch=1 c=64 v=63
74136 Par ch=1 c=64 v=0
74194 On ch=1 n=g#5 v=86
74206 On ch=1 n=d#5 v=78
74260 On ch=1 n=d#5 v=0
74324 On ch=1 n=g#5 v=0
74386 Par ch=1 c=64 v=127
74392 On ch=1 n=a#2 v=112
74392 On ch=1 n=a#3 v=118
74404 On ch=1 n=d5 v=108
74404 On ch=1 n=g#5 v=115
74454 On ch=1 n=a#2 v=0
74464 On ch=1 n=a#3 v=0
74476 On ch=1 n=d5 v=0
74496 On ch=1 n=g#5 v=0
74582 On ch=1 n=d5 v=90
74586 On ch=1 n=g#5 v=92
74694 On ch=1 n=g#5 v=0
74718 On ch=1 n=d5 v=0
74794 On ch=1 n=d4 v=84
74918 Par ch=1 c=64 v=63
74924 Par ch=1 c=64 v=0
74952 On ch=1 n=g#5 v=88
74962 On ch=1 n=d5 v=73
74970 On ch=1 n=d4 v=0
75042 On ch=1 n=d5 v=0
75050 On ch=1 n=g#5 v=0
75166 On ch=1 n=f4 v=88
75276 On ch=1 n=f4 v=0
75324 On ch=1 n=g#5 v=91
75338 On ch=1 n=d5 v=78
75446 On ch=1 n=g#5 v=0
75454 On ch=1 n=d5 v=0
75524 Par ch=1 c=64 v=127
75530 On ch=1 n=d#3 v=104
75534 On ch=1 n=d#4 v=113
75538 On ch=1 n=g5 v=109
75540 On ch=1 n=d5 v=113
75588 On ch=1 n=d#3 v=0
75598 On ch=1 n=d#4 v=0
75616 On ch=1 n=d5 v=0
75622 On ch=1 n=g5 v=0
75718 On ch=1 n=g5 v=88
75718 On ch=1 n=d5 v=90
75814 On ch=1 n=g5 v=0
75818 On ch=1 n=d5 v=0
75892 On ch=1 n=g4 v=75
76016 On ch=1 n=g4 v=0
76088 On ch=1 n=g5 v=85
76094 On ch=1 n=d5 v=79
76104 Par ch=1 c=64 v=63
76118 Par ch=1 c=64 v=0
76182 On ch=1 n=d5 v=0
76194 On ch=1 n=g5 v=0
76296 On ch=1 n=a#4 v=90
76362 On ch=1 n=a#4 v=0
76478 On ch=1 n=d5 v=78
76482 On ch=1 n=g5 v=64
76574 On ch=1 n=d5 v=0
76596 On ch=1 n=g5 v=0
76670 On ch=1 n=g#2 v=101
76670 On ch=1 n=g#3 v=112
76678 Par ch=1 c=64 v=63
76680 Par ch=1 c=64 v=127
76686 On ch=1 n=g5 v=109
76688 On ch=1 n=c5 v=111
76728 On ch=1 n=g#2 v=0
76730 On ch=1 n=g#3 v=0
76762 On ch=1 n=c5 v=0
76774 On ch=1 n=g5 v=0
76882 On ch=1 n=g5 v=74
76890 On ch=1 n=c5 v=73
76986 On ch=1 n=c5 v=0
77006 On ch=1 n=g5 v=0
77068 On ch=1 n=g#4 v=86
77128 On ch=1 n=g#4 v=0
77244 On ch=1 n=g5 v=76
77262 On ch=1 n=c5 v=61
77316 Par ch=1 c=64 v=63
77326 Par ch=1 c=64 v=0
77342 On ch=1 n=c5 v=0
77394 On ch=1 n=g5 v=0
77438 On ch=1 n=d3 v=101
77440 On ch=1 n=d4 v=99
77458 On ch=1 n=f5 v=111
77464 On ch=1 n=c5 v=103
77472 Par ch=1 c=64 v=63
77478 Par ch=1 c=64 v=127
77498 On ch=1 n=d3 v=0
77510 On ch=1 n=d4 v=0
77544 On ch=1 n=c5 v=0
77568 On ch=1 n=f5 v=0
77660 On ch=1 n=f5 v=83
77662 On ch=1 n=c5 v=62
77752 On ch=1 n=c5 v=0
77766 On ch=1 n=f5 v=0
77824 On ch=1 n=d5 v=96
77886 On ch=1 n=d5 v=0
78006 On ch=1 n=c5 v=77
78010 On ch=1 n=f5 v=78
78098 On ch=1 n=c5 v=0
78100 On ch=1 n=f5 v=0
78186 Par ch=1 c=64 v=63
78192 Par ch=1 c=64 v=0
78226 On ch=1 n=g2 v=82
78236 On ch=1 n=g3 v=86
78238 On ch=1 n=f5 v=107
78242 On ch=1 n=b4 v=97
78282 Par ch=1 c=64 v=63
78298 Par ch=1 c=64 v=127
78302 On ch=1 n=g3 v=0
78312 On ch=1 n=g2 v=0
78366 On ch=1 n=b4 v=0
78370 On ch=1 n=f5 v=0
78440 On ch=1 n=f5 v=77
78444 On ch=1 n=b4 v=69
78526 On ch=1 n=b4 v=0
78542 On ch=1 n=f5 v=0
78644 On ch=1 n=g4 v=63
78812 On ch=1 n=f5 v=71
78828 On ch=1 n=b4 v=65
79004 On ch=1 n=b4 v=0
79010 On ch=1 n=f5 v=0
79030 On ch=1 n=g#4 v=73
79102 On ch=1 n=g4 v=0
79208 Par ch=1 c=64 v=63
79222 On ch=1 n=d#5 v=73
79230 On ch=1 n=c5 v=62
79286 Par ch=1 c=64 v=0
79368 Par ch=1 c=64 v=63
79412 On ch=1 n=c5 v=0
79414 On ch=1 n=g4 v=69
79432 On ch=1 n=d#5 v=0
79520 On ch=1 n=g#4 v=0
79564 Par ch=1 c=64 v=127
79586 On ch=1 n=d#5 v=85
79588 On ch=1 n=c5 v=70
79748 On ch=1 n=c5 v=0
79770 On ch=1 n=d#5 v=0
79780 On ch=1 n=f#4 v=88
79840 Par ch=1 c=64 v=63
79888 On ch=1 n=g4 v=0
79948 On ch=1 n=d#5 v=76
79950 On ch=1 n=c5 v=65
79966 Par ch=1 c=64 v=127
80096 On ch=1 n=c5 v=0
80098 Par ch=1 c=64 v=63
80104 On ch=1 n=d#5 v=0
80148 On ch=1 n=g4 v=64
80160 On ch=1 n=d5 v=58
80162 Par ch=1 c=64 v=127
80166 On ch=1 n=b4 v=61
80222 On ch=1 n=f#4 v=0
80266 On ch=1 n=d5 v=0
80368 On ch=1 n=b4 v=0
80410 On ch=1 n=d#5 v=70
80416 On ch=1 n=g5 v=70
80456 Par ch=1 c=64 v=63
80554 On ch=1 n=d#5 v=0
80608 Par ch=1 c=64 v=127
80616 On ch=1 n=d5 v=65
80626 On ch=1 n=f5 v=81
80630 On ch=1 n=g5 v=0
80756 On ch=1 n=c5 v=68
80768 On ch=1 n=d#5 v=83
80782 On ch=1 n=d5 v=0
80802 On ch=1 n=f5 v=0
80868 On ch=1 n=d#5 v=0
80896 On ch=1 n=g4 v=0
80922 On ch=1 n=c5 v=0
80954 On ch=1 n=d5 v=77
80956 On ch=1 n=b4 v=78
81108 On ch=1 n=d5 v=0
81114 On ch=1 n=d#5 v=88
81118 On ch=1 n=f#4 v=78
81126 On ch=1 n=c5 v=76
81128 On ch=1 n=b4 v=0
81130 Par ch=1 c=64 v=63
81208 Par ch=1 c=64 v=0
81252 On ch=1 n=c5 v=0
81292 On ch=1 n=d#5 v=0
81316 On ch=1 n=g4 v=63
81320 On ch=1 n=d5 v=94
81328 On ch=1 n=f#4 v=0
81332 On ch=1 n=b4 v=63
81348 Par ch=1 c=64 v=63
81378 Par ch=1 c=64 v=127
81406 On ch=1 n=b4 v=0
81432 On ch=1 n=d5 v=0
81510 On ch=1 n=g5 v=71
81520 On ch=1 n=d#5 v=65
81558 Par ch=1 c=64 v=63
81634 On ch=1 n=d#5 v=0
81670 Par ch=1 c=64 v=0
81698 On ch=1 n=g4 v=0
81704 On ch=1 n=g5 v=0
81704 On ch=1 n=f5 v=84
81706 Par ch=1 c=64 v=63
81706 On ch=1 n=d5 v=55
81778 Par ch=1 c=64 v=127
81870 On ch=1 n=f5 v=0
81876 On ch=1 n=d#5 v=90
81890 On ch=1 n=c5 v=66
81904 On ch=1 n=d5 v=0
81978 On ch=1 n=d#5 v=0
82018 On ch=1 n=c5 v=0
82074 On ch=1 n=d5 v=68
82096 On ch=1 n=b4 v=52
82208 On ch=1 n=d5 v=0
82228 On ch=1 n=f#4 v=64
82234 On ch=1 n=b4 v=0
82250 On ch=1 n=d#5 v=72
82256 On ch=1 n=c5 v=63
82312 Par ch=1 c=64 v=63
82390 On ch=1 n=c5 v=0
82428 On ch=1 n=d#5 v=0
82430 On ch=1 n=g4 v=52
82434 On ch=1 n=b4 v=58
82440 On ch=1 n=d5 v=77
82448 On ch=1 n=f#4 v=0
82608 On ch=1 n=d#5 v=87
82612 On ch=1 n=d5 v=0
82628 On ch=1 n=b4 v=0
82632 On ch=1 n=c5 v=51
82636 On ch=1 n=f#4 v=54
82648 On ch=1 n=g4 v=0
82738 Par ch=1 c=64 v=0
82778 On ch=1 n=c5 v=0
82788 On ch=1 n=d#5 v=0
82802 On ch=1 n=b4 v=58
82802 On ch=1 n=d5 v=78
82808 On ch=1 n=g4 v=54
82828 On ch=1 n=f#4 v=0
82868 Par ch=1 c=64 v=63
82984 On ch=1 n=d#5 v=81
82986 On ch=1 n=d5 v=0
82986 On ch=1 n=b4 v=0
82990 On ch=1 n=c5 v=65
83006 On ch=1 n=f#4 v=51
83020 On ch=1 n=g4 v=0
83152 On ch=1 n=c5 v=0
83162 On ch=1 n=d#5 v=0
83180 On ch=1 n=d5 v=77
83200 On ch=1 n=b4 v=53
83208 On ch=1 n=f#4 v=0
83212 On ch=1 n=g4 v=51
83348 On ch=1 n=f#4 v=49
83362 On ch=1 n=c5 v=66
83366 On ch=1 n=b4 v=0
83368 On ch=1 n=d#5 v=74
83386 On ch=1 n=g4 v=0
83414 On ch=1 n=d5 v=0
83498 Par ch=1 c=64 v=127
83502 On ch=1 n=c5 v=0
83512 On ch=1 n=d#5 v=0
83552 On ch=1 n=f#4 v=0
83558 On ch=1 n=d5 v=74
83558 On ch=1 n=g4 v=55
83562 On ch=1 n=b4 v=42
83630 On ch=1 n=b4 v=0
83668 On ch=1 n=d5 v=0
83722 On ch=1 n=g4 v=0
83736 On ch=1 n=c#5 v=68
83746 On ch=1 n=a#4 v=49
83874 On ch=1 n=c#5 v=0
83904 On ch=1 n=d5 v=65
83906 Par ch=1 c=64 v=63
83928 On ch=1 n=a#4 v=0
83928 On ch=1 n=b4 v=66
84008 Par ch=1 c=64 v=0
84108 On ch=1 n=c#5 v=59
84114 On ch=1 n=d5 v=0
84120 On ch=1 n=b4 v=0
84120 On ch=1 n=e5 v=57
84286 On ch=1 n=e5 v=0
84308 On ch=1 n=d5 v=51
84342 On ch=1 n=f5 v=48
84346 On ch=1 n=c#5 v=0
84502 On ch=1 n=d5 v=0
84516 On ch=1 n=e5 v=51
84518 On ch=1 n=f5 v=0
84536 On ch=1 n=g5 v=45
84740 On ch=1 n=g5 v=0
84774 On ch=1 n=a5 v=48
84776 On ch=1 n=e5 v=0
84794 On ch=1 n=f4 v=47
84802 On ch=1 n=f5 v=40
84870 Par ch=1 c=64 v=63
84938 On ch=1 n=f5 v=0
84948 On ch=1 n=a5 v=0
84964 On ch=1 n=f4 v=0
85226 On ch=1 n=a5 v=71
85246 On ch=1 n=f4 v=51
85246 On ch=1 n=f5 v=46
85250 On ch=1 n=c5 v=47
85304 On ch=1 n=f5 v=0
85310 On ch=1 n=c5 v=0
85326 On ch=1 n=a5 v=0
85346 On ch=1 n=f4 v=0
85362 Par ch=1 c=64 v=0
85654 On ch=1 n=f5 v=68
85654 On ch=1 n=c5 v=57
85656 On ch=1 n=a5 v=68
85668 On ch=1 n=f4 v=42
85728 On ch=1 n=c5 v=0
85730 On ch=1 n=f5 v=0
85748 On ch=1 n=a5 v=0
85750 On ch=1 n=f4 v=0
86050 Par ch=1 c=64 v=63
86094 On ch=1 n=a5 v=53
86098 On ch=1 n=c5 v=31
86102 Par ch=1 c=64 v=127
86104 On ch=1 n=f5 v=48
86106 On ch=1 n=f4 v=30
86514 On ch=1 n=f4 v=0
86556 On ch=1 n=f5 v=0
86958 On ch=1 n=a5 v=0
87002 On ch=1 n=g5 v=53
87008 On ch=1 n=c4 v=36
87018 Par ch=1 c=64 v=63
87052 On ch=1 n=e5 v=39
87112 On ch=1 n=c5 v=0
87114 Par ch=1 c=64 v=127
87128 On ch=1 n=e5 v=0
87130 On ch=1 n=g5 v=0
87162 Par ch=1 c=64 v=63
87168 On ch=1 n=c4 v=0
87270 Par ch=1 c=64 v=0
87406 On ch=1 n=g5 v=42
87434 On ch=1 n=f5 v=68
87438 On ch=1 n=b4 v=45
87460 On ch=1 n=g3 v=45
87460 On ch=1 n=d5 v=44
87510 On ch=1 n=d5 v=0
87522 On ch=1 n=b4 v=0
87528 On ch=1 n=f5 v=0
87536 On ch=1 n=g5 v=0
87580 On ch=1 n=g3 v=0
87840 On ch=1 n=d5 v=41
87840 On ch=1 n=g3 v=51
87864 On ch=1 n=f5 v=59
87874 On ch=1 n=b4 v=33
87934 On ch=1 n=g3 v=0
87934 On ch=1 n=d5 v=0
87936 On ch=1 n=b4 v=0
87938 On ch=1 n=f5 v=0
88264 On ch=1 n=g3 v=59
88274 On ch=1 n=b4 v=46
88274 On ch=1 n=f5 v=59
88278 On ch=1 n=d5 v=51
88330 On ch=1 n=d5 v=0
88342 On ch=1 n=b4 v=0
88346 On ch=1 n=f5 v=0
88352 On ch=1 n=g3 v=0
88610 Par ch=1 c=64 v=63
88680 Par ch=1 c=64 v=127
88710 On ch=1 n=g3 v=50
88730 On ch=1 n=f5 v=60
88730 On ch=1 n=b4 v=41
88738 On ch=1 n=d5 v=56
89042 On ch=1 n=b4 v=0
89084 On ch=1 n=d5 v=0
89102 On ch=1 n=g3 v=0
89114 On ch=1 n=f5 v=0
89582 On ch=1 n=e5 v=52
89588 On ch=1 n=a3 v=42
89590 On ch=1 n=c5 v=49
89634 Par ch=1 c=64 v=63
89692 Par ch=1 c=64 v=0
89696 On ch=1 n=e5 v=0
89698 On ch=1 n=c5 v=0
89706 On ch=1 n=a3 v=0
89918 Par ch=1 c=64 v=63
89950 Par ch=1 c=64 v=127
89996 On ch=1 n=g5 v=69
90000 On ch=1 n=f3 v=58
90026 On ch=1 n=e5 v=42
90052 Par ch=1 c=64 v=63
90104 On ch=1 n=e5 v=0
90110 Par ch=1 c=64 v=0
90132 On ch=1 n=f3 v=0
90148 On ch=1 n=g5 v=0
90186 On ch=1 n=d5 v=46
90190 On ch=1 n=f5 v=53
90324 On ch=1 n=d5 v=0
90354 On ch=1 n=f5 v=0
90394 On ch=1 n=g3 v=53
90402 On ch=1 n=e5 v=49
90420 On ch=1 n=c5 v=45
90448 Par ch=1 c=64 v=63
90478 On ch=1 n=g3 v=0
90510 On ch=1 n=e5 v=0
90762 On ch=1 n=c5 v=0
90806 On ch=1 n=d5 v=54
90808 On ch=1 n=b4 v=49
90810 On ch=1 n=g3 v=62
90914 On ch=1 n=g3 v=0
91134 On ch=1 n=d5 v=0
91134 Par ch=1 c=64 v=127
91148 On ch=1 n=b4 v=0
91186 On ch=1 n=c5 v=46
91200 On ch=1 n=e5 v=46
91200 On ch=1 n=c4 v=60
91232 On ch=1 n=c5 v=0
91294 On ch=1 n=c4 v=0
91320 On ch=1 n=e5 v=0
91420 On ch=1 n=c6 v=73
91508 On ch=1 n=c6 v=0
91610 On ch=1 n=d6 v=84
91654 Par ch=1 c=64 v=63
91704 On ch=1 n=d6 v=0
91732 Par ch=1 c=64 v=0
91782 On ch=1 n=e6 v=94
91860 On ch=1 n=e6 v=0
91978 On ch=1 n=f6 v=92
92058 On ch=1 n=f6 v=0
92146 On ch=1 n=g6 v=97
92236 On ch=1 n=g6 v=0
92370 On ch=1 n=f5 v=63
92376 On ch=1 n=c5 v=55
92376 On ch=1 n=a6 v=97
92426 On ch=1 n=a6 v=0
92460 On ch=1 n=f5 v=0
92472 On ch=1 n=c5 v=0
92778 On ch=1 n=a6 v=86
92798 On ch=1 n=f5 v=45
92810 On ch=1 n=c5 v=37
92846 On ch=1 n=a6 v=0
92876 On ch=1 n=f5 v=0
92882 On ch=1 n=c5 v=0
93196 On ch=1 n=a6 v=84
93200 On ch=1 n=f5 v=53
93202 On ch=1 n=c5 v=45
93270 On ch=1 n=a6 v=0
93294 On ch=1 n=c5 v=0
93294 On ch=1 n=f5 v=0
93578 Par ch=1 c=64 v=63
93594 Par ch=1 c=64 v=127
93620 On ch=1 n=a6 v=93
93626 On ch=1 n=c5 v=41
93634 On ch=1 n=f5 v=39
93688 On ch=1 n=a6 v=0
93742 On ch=1 n=f5 v=0
93750 On ch=1 n=c5 v=0
94302 On ch=1 n=b6 v=68
94382 On ch=1 n=a6 v=65
94416 On ch=1 n=b6 v=0
94488 On ch=1 n=g6 v=63
94498 On ch=1 n=e5 v=40
94540 On ch=1 n=a6 v=0
94554 Par ch=1 c=64 v=63
94610 On ch=1 n=g6 v=0
94626 Par ch=1 c=64 v=0
94774 On ch=1 n=e5 v=0
94882 On ch=1 n=g6 v=64
94912 On ch=1 n=d5 v=70
94916 On ch=1 n=g4 v=54
94918 On ch=1 n=b5 v=71
94942 On ch=1 n=f6 v=59
94978 On ch=1 n=g6 v=0
94988 On ch=1 n=d5 v=0
95002 On ch=1 n=b5 v=0
95012 On ch=1 n=f6 v=0
95022 On ch=1 n=g4 v=0
95338 On ch=1 n=f6 v=81
95340 On ch=1 n=b5 v=70
95342 On ch=1 n=d5 v=68
95342 On ch=1 n=g4 v=57
95410 On ch=1 n=b5 v=0
95414 On ch=1 n=f6 v=0
95416 On ch=1 n=d5 v=0
95430 On ch=1 n=g4 v=0
95746 On ch=1 n=f6 v=98
95754 On ch=1 n=d5 v=69
95758 On ch=1 n=g4 v=52
95766 On ch=1 n=b5 v=63
95818 On ch=1 n=b5 v=0
95848 On ch=1 n=d5 v=0
95848 On ch=1 n=f6 v=0
95856 On ch=1 n=g4 v=0
96194 On ch=1 n=f6 v=98
96200 On ch=1 n=g4 v=49
96206 On ch=1 n=d5 v=57
96208 On ch=1 n=b5 v=60
96210 Par ch=1 c=64 v=63
96302 Par ch=1 c=64 v=127
96590 On ch=1 n=b5 v=0
96626 On ch=1 n=g4 v=0
96664 On ch=1 n=d5 v=0
96896 On ch=1 n=f6 v=0
97054 On ch=1 n=e6 v=65
97076 On ch=1 n=c6 v=51
97078 On ch=1 n=c5 v=35
97088 On ch=1 n=a4 v=35
97144 Par ch=1 c=64 v=63
97276 On ch=1 n=a4 v=0
97306 On ch=1 n=e6 v=0
97350 On ch=1 n=c5 v=0
97352 On ch=1 n=c6 v=0
97388 Par ch=1 c=64 v=0
97474 Par ch=1 c=64 v=63
97498 On ch=1 n=f4 v=56
97504 On ch=1 n=g6 v=70
97522 On ch=1 n=e6 v=60
97522 Par ch=1 c=64 v=127
97652 On ch=1 n=e6 v=0
97666 On ch=1 n=f6 v=82
97678 On ch=1 n=d6 v=65
97704 On ch=1 n=g6 v=0
97806 Par ch=1 c=64 v=63
97846 Par ch=1 c=64 v=0
97864 On ch=1 n=d6 v=0
97868 On ch=1 n=f6 v=0
97884 On ch=1 n=e6 v=78
97886 On ch=1 n=g4 v=62
97892 On ch=1 n=c6 v=68
97900 On ch=1 n=f4 v=0
97960 Par ch=1 c=64 v=63
97980 Par ch=1 c=64 v=127
98100 On ch=1 n=e6 v=0
98234 Par ch=1 c=64 v=63
98260 Par ch=1 c=64 v=0
98276 On ch=1 n=c6 v=0
98300 On ch=1 n=d6 v=84
98310 On ch=1 n=f4 v=91
98316 On ch=1 n=b5 v=77
98328 Par ch=1 c=64 v=63
98358 Par ch=1 c=64 v=127
98366 On ch=1 n=g4 v=0
98386 On ch=1 n=f4 v=0
98398 On ch=1 n=b5 v=0
98414 On ch=1 n=d6 v=0
98586 Par ch=1 c=64 v=63
98592 Par ch=1 c=64 v=0
98682 On ch=1 n=e3 v=97
98690 On ch=1 n=e4 v=113
98706 On ch=1 n=g6 v=118
98708 On ch=1 n=e6 v=117
98712 Par ch=1 c=64 v=63
98712 Par ch=1 c=64 v=127
98750 On ch=1 n=e3 v=0
98762 On ch=1 n=e4 v=0
98782 On ch=1 n=e6 v=0
98806 On ch=1 n=g6 v=0
98902 On ch=1 n=g6 v=85
98930 On ch=1 n=e6 v=63
98986 On ch=1 n=e6 v=0
99046 Par ch=1 c=64 v=63
99052 Par ch=1 c=64 v=0
99054 On ch=1 n=g6 v=0
99096 On ch=1 n=g#4 v=93
99132 On ch=1 n=g#4 v=0
99280 On ch=1 n=f6 v=91
99286 On ch=1 n=d6 v=84
99352 On ch=1 n=d6 v=0
99402 On ch=1 n=f6 v=0
99494 On ch=1 n=a4 v=99
99564 On ch=1 n=a4 v=0
99656 On ch=1 n=c6 v=82
99656 On ch=1 n=e6 v=86
99712 On ch=1 n=e6 v=0
99718 On ch=1 n=c6 v=0
99842 On ch=1 n=f4 v=103
99908 On ch=1 n=f4 v=0
100034 On ch=1 n=d6 v=89
100038 On ch=1 n=f5 v=89
100106 On ch=1 n=f5 v=0
100106 On ch=1 n=d6 v=0
100230 On ch=1 n=g4 v=96
100312 On ch=1 n=g4 v=0
100418 On ch=1 n=c6 v=94
100426 On ch=1 n=e5 v=91
100488 On ch=1 n=c6 v=0
100490 On ch=1 n=e5 v=0
100616 On ch=1 n=f4 v=85
100670 On ch=1 n=f4 v=0
100788 On ch=1 n=b5 v=96
100802 On ch=1 n=d5 v=65
100846 On ch=1 n=d5 v=0
100876 On ch=1 n=b5 v=0
100970 On ch=1 n=e3 v=98
100978 Par ch=1 c=64 v=63
100978 On ch=1 n=e4 v=111
100980 Par ch=1 c=64 v=127
101038 On ch=1 n=e3 v=0
101046 On ch=1 n=e4 v=0
101050 On ch=1 n=e6 v=107
101152 On ch=1 n=e6 v=0
101160 On ch=1 n=g6 v=78
101184 Par ch=1 c=64 v=63
101194 Par ch=1 c=64 v=0
101250 On ch=1 n=e6 v=85
101326 Par ch=1 c=64 v=63
101330 On ch=1 n=g6 v=0
101332 Par ch=1 c=64 v=127
101342 On ch=1 n=g#3 v=105
101346 On ch=1 n=g#4 v=115
101350 On ch=1 n=e6 v=0
101406 On ch=1 n=g#4 v=0
101406 On ch=1 n=g#3 v=0
101446 Par ch=1 c=64 v=63
101460 Par ch=1 c=64 v=0
101482 On ch=1 n=d6 v=92
101560 On ch=1 n=f6 v=90
101578 On ch=1 n=d6 v=0
101638 On ch=1 n=d6 v=79
101684 Par ch=1 c=64 v=63
101686 On ch=1 n=f6 v=0
101690 Par ch=1 c=64 v=127
101710 On ch=1 n=a4 v=113
101710 On ch=1 n=a3 v=104
101738 On ch=1 n=d6 v=0
101776 On ch=1 n=a4 v=0
101798 On ch=1 n=a3 v=0
101824 On ch=1 n=c6 v=88
101872 Par ch=1 c=64 v=63
101888 Par ch=1 c=64 v=0
101908 On ch=1 n=e6 v=85
101916 On ch=1 n=c6 v=0
101978 On ch=1 n=c6 v=83
101980 On ch=1 n=e6 v=0
102026 On ch=1 n=c6 v=0
102036 Par ch=1 c=64 v=63
102052 Par ch=1 c=64 v=127
102084 On ch=1 n=f3 v=99
102088 On ch=1 n=f4 v=112
102152 On ch=1 n=f3 v=0
102160 On ch=1 n=f4 v=0
102160 Par ch=1 c=64 v=63
102162 On ch=1 n=f5 v=92
102186 Par ch=1 c=64 v=0
102238 On ch=1 n=f5 v=0
102274 On ch=1 n=d6 v=85
102342 On ch=1 n=f5 v=81
102366 Par ch=1 c=64 v=63
102388 Par ch=1 c=64 v=127
102390 On ch=1 n=d6 v=0
102416 On ch=1 n=f5 v=0
102452 On ch=1 n=g4 v=111
102452 On ch=1 n=g3 v=106
102462 Par ch=1 c=64 v=63
102488 Par ch=1 c=64 v=0
102520 On ch=1 n=g4 v=0
102526 On ch=1 n=g3 v=0
102536 On ch=1 n=e5 v=99
102622 On ch=1 n=c6 v=103
102624 On ch=1 n=e5 v=0
102702 On ch=1 n=e5 v=93
102720 On ch=1 n=c6 v=0
102784 On ch=1 n=e5 v=0
102822 On ch=1 n=g3 v=98
102824 On ch=1 n=g4 v=113
102896 On ch=1 n=g3 v=0
102906 On ch=1 n=g4 v=0
102910 On ch=1 n=d5 v=108
103002 On ch=1 n=d5 v=0
103006 On ch=1 n=b5 v=102
103072 On ch=1 n=d5 v=75
103100 On ch=1 n=b5 v=0
103142 On ch=1 n=d5 v=0
103190 On ch=1 n=c4 v=121
103194 Par ch=1 c=64 v=127
103194 On ch=1 n=c6 v=120
103198 On ch=1 n=e5 v=114
103198 On ch=1 n=g5 v=113
103310 On ch=1 n=c4 v=0
103316 On ch=1 n=e4 v=97
103418 On ch=1 n=g4 v=73
103444 On ch=1 n=e4 v=0
103456 On ch=1 n=e5 v=0
103492 On ch=1 n=c5 v=88
103496 On ch=1 n=g5 v=0
103504 On ch=1 n=c6 v=0
103520 On ch=1 n=g4 v=0
103570 On ch=1 n=c5 v=0
103598 On ch=1 n=c4 v=94
103698 On ch=1 n=e4 v=75
103710 On ch=1 n=c4 v=0
103782 On ch=1 n=g4 v=74
103830 On ch=1 n=e4 v=0
103856 On ch=1 n=c5 v=84
103896 On ch=1 n=g4 v=0
103948 On ch=1 n=c5 v=0
103976 On ch=1 n=c4 v=94
103976 On ch=1 n=e6 v=98
104032 On ch=1 n=f6 v=88
104052 On ch=1 n=e6 v=0
104066 Par ch=1 c=64 v=63
104066 On ch=1 n=e4 v=85
104068 Par ch=1 c=64 v=0
104082 On ch=1 n=f6 v=0
104104 On ch=1 n=c4 v=0
104144 On ch=1 n=e6 v=86
104162 On ch=1 n=g4 v=63
104198 On ch=1 n=d6 v=79
104204 On ch=1 n=e4 v=0
104226 On ch=1 n=c5 v=77
104234 On ch=1 n=e6 v=0
104278 On ch=1 n=c6 v=71
104280 On ch=1 n=g4 v=0
104304 On ch=1 n=d6 v=0
104306 Par ch=1 c=64 v=63
104310 Par ch=1 c=64 v=127
104326 On ch=1 n=c5 v=0
104336 On ch=1 n=g6 v=117
104342 On ch=1 n=c4 v=94
104390 On ch=1 n=c6 v=0
104446 On ch=1 n=e4 v=87
104490 On ch=1 n=c4 v=0
104538 On ch=1 n=g4 v=66
104590 On ch=1 n=e4 v=0
104610 On ch=1 n=c5 v=94
104666 On ch=1 n=g6 v=0
104670 On ch=1 n=g4 v=0
104724 On ch=1 n=c5 v=0
104734 On ch=1 n=c4 v=98
104808 On ch=1 n=e4 v=85
104878 On ch=1 n=g4 v=86
104886 On ch=1 n=c4 v=0
104954 On ch=1 n=e4 v=0
104966 On ch=1 n=c5 v=89
105026 On ch=1 n=g4 v=0
105080 On ch=1 n=c5 v=0
105088 On ch=1 n=c4 v=99
105112 On ch=1 n=b6 v=109
105168 On ch=1 n=c7 v=100
105196 On ch=1 n=b6 v=0
105196 Par ch=1 c=64 v=63
105200 On ch=1 n=f4 v=71
105202 On ch=1 n=e4 v=71
105226 Par ch=1 c=64 v=0
105256 On ch=1 n=b6 v=86
105258 On ch=1 n=g4 v=79
105262 On ch=1 n=c7 v=0
105262 On ch=1 n=c4 v=0
105276 On ch=1 n=e4 v=0
105316 On ch=1 n=a6 v=86
105340 On ch=1 n=f4 v=0
105346 On ch=1 n=b6 v=0
105348 On ch=1 n=d5 v=84
105368 On ch=1 n=g6 v=93
105408 On ch=1 n=a6 v=0
105422 On ch=1 n=g4 v=0
105424 On ch=1 n=d5 v=0
105458 On ch=1 n=c4 v=109
105462 Par ch=1 c=64 v=63
105464 On ch=1 n=c7 v=118
105466 On ch=1 n=g6 v=0
105478 Par ch=1 c=64 v=127
105564 On ch=1 n=e4 v=93
105606 On ch=1 n=c4 v=0
105656 On ch=1 n=g4 v=71
105720 On ch=1 n=e4 v=0
105724 On ch=1 n=c7 v=0
105756 On ch=1 n=c5 v=86
105798 On ch=1 n=g4 v=0
105856 On ch=1 n=c5 v=0
105874 On ch=1 n=c4 v=102
105962 On ch=1 n=e4 v=90
106018 On ch=1 n=c4 v=0
106046 On ch=1 n=g4 v=73
106106 On ch=1 n=e4 v=0
106130 On ch=1 n=c5 v=78
106168 On ch=1 n=g4 v=0
106224 On ch=1 n=c5 v=0
106246 On ch=1 n=c4 v=104
106248 On ch=1 n=e6 v=120
106262 Par ch=1 c=64 v=63
106270 Par ch=1 c=64 v=0
106316 On ch=1 n=f6 v=94
106332 On ch=1 n=e6 v=0
106346 On ch=1 n=e4 v=81
106402 On ch=1 n=e6 v=93
106406 On ch=1 n=c4 v=0
106418 On ch=1 n=f6 v=0
106432 On ch=1 n=g4 v=68
106452 On ch=1 n=d6 v=91
106480 On ch=1 n=e6 v=0
106488 On ch=1 n=e4 v=0
106512 On ch=1 n=c5 v=85
106516 On ch=1 n=c6 v=97
106546 On ch=1 n=d6 v=0
106558 On ch=1 n=g4 v=0
106596 On ch=1 n=g6 v=108
106610 On ch=1 n=c5 v=0
106616 On ch=1 n=c6 v=0
106618 On ch=1 n=c4 v=102
106678 On ch=1 n=g6 v=0
106724 On ch=1 n=e4 v=91
106780 On ch=1 n=c4 v=0
106816 On ch=1 n=g4 v=74
106870 On ch=1 n=e4 v=0
106906 On ch=1 n=c5 v=90
106960 On ch=1 n=g4 v=0
107004 On ch=1 n=g6 v=117
107014 On ch=1 n=c5 v=0
107022 On ch=1 n=c4 v=96
107070 On ch=1 n=g6 v=0
107106 On ch=1 n=e4 v=81
107164 On ch=1 n=c4 v=0
107196 On ch=1 n=g4 v=78
107272 On ch=1 n=e4 v=0
107286 On ch=1 n=c5 v=84
107332 On ch=1 n=g4 v=0
107362 On ch=1 n=c4 v=96
107366 On ch=1 n=c5 v=0
107370 Par ch=1 c=64 v=63
107370 On ch=1 n=b6 v=117
107372 Par ch=1 c=64 v=127
107440 On ch=1 n=c7 v=102
107450 On ch=1 n=f4 v=96
107472 On ch=1 n=b6 v=0
107516 On ch=1 n=g4 v=89
107534 On ch=1 n=b6 v=89
107564 On ch=1 n=c7 v=0
107596 On ch=1 n=a6 v=89
107602 On ch=1 n=d5 v=94
107612 Par ch=1 c=64 v=63
107624 Par ch=1 c=64 v=0
107634 On ch=1 n=b6 v=0
107652 On ch=1 n=f4 v=0
107654 On ch=1 n=c4 v=0
107668 On ch=1 n=g6 v=89
107670 On ch=1 n=d5 v=0
107696 On ch=1 n=a6 v=0
107726 On ch=1 n=g4 v=0
107758 On ch=1 n=g6 v=0
107758 On ch=1 n=c4 v=84
107766 On ch=1 n=c7 v=120
107772 On ch=1 n=g4 v=98
107776 On ch=1 n=c5 v=116
107786 On ch=1 n=e4 v=83
107816 On ch=1 n=c5 v=0
107840 On ch=1 n=g4 v=0
107858 On ch=1 n=c7 v=0
107864 On ch=1 n=e4 v=0
107880 On ch=1 n=c4 v=0
108208 On ch=1 n=e4 v=100
108212 On ch=1 n=e5 v=117
108216 On ch=1 n=e7 v=125
108238 Par ch=1 c=64 v=127
108268 On ch=1 n=e5 v=0
108290 On ch=1 n=e7 v=0
108306 On ch=1 n=e4 v=0
108792 On ch=1 n=g#3 v=69
108814 On ch=1 n=g#4 v=72
108824 On ch=1 n=g#6 v=119
108860 On ch=1 n=g#4 v=0
108874 On ch=1 n=g#3 v=0
108976 On ch=1 n=g#6 v=0
109014 Par ch=1 c=64 v=63
109016 On ch=1 n=a4 v=97
109018 On ch=1 n=a3 v=94
109018 On ch=1 n=a6 v=116
109020 Par ch=1 c=64 v=0
109086 On ch=1 n=a3 v=0
109092 On ch=1 n=a4 v=0
109130 On ch=1 n=a6 v=0
109434 On ch=1 n=c7 v=122
109438 On ch=1 n=c4 v=114
109438 On ch=1 n=c5 v=121
109448 Par ch=1 c=64 v=127
109510 On ch=1 n=c7 v=0
109684 On ch=1 n=c4 v=0
109724 On ch=1 n=c5 v=0
110092 On ch=1 n=e4 v=99
110094 On ch=1 n=e6 v=114
110164 On ch=1 n=e6 v=0
110166 On ch=1 n=e4 v=0
110314 On ch=1 n=f6 v=117
110324 On ch=1 n=f4 v=75
110334 Par ch=1 c=64 v=63
110340 Par ch=1 c=64 v=0
110376 On ch=1 n=g6 v=94
110386 On ch=1 n=g4 v=84
110388 On ch=1 n=f4 v=0
110394 On ch=1 n=f6 v=0
110452 On ch=1 n=f6 v=97
110468 On ch=1 n=f4 v=78
110486 On ch=1 n=g6 v=0
110490 On ch=1 n=g4 v=0
110518 On ch=1 n=e6 v=103
110520 On ch=1 n=e4 v=87
110558 On ch=1 n=f6 v=0
110576 On ch=1 n=f4 v=0
110588 On ch=1 n=d6 v=98
110610 On ch=1 n=d4 v=104
110618 On ch=1 n=e6 v=0
110638 On ch=1 n=e4 v=0
110674 On ch=1 n=g4 v=111
110676 On ch=1 n=g6 v=113
110680 On ch=1 n=d6 v=0
110724 On ch=1 n=d4 v=0
110752 On ch=1 n=g6 v=0
110768 On ch=1 n=g4 v=0
111102 On ch=1 n=g3 v=102
111104 On ch=1 n=g4 v=116
111110 On ch=1 n=b6 v=116
111112 On ch=1 n=g6 v=117
111112 On ch=1 n=d6 v=122
111168 On ch=1 n=g3 v=0
111174 On ch=1 n=d6 v=0
111178 On ch=1 n=g4 v=0
111182 On ch=1 n=g6 v=0
111212 On ch=1 n=b6 v=0
111510 On ch=1 n=c4 v=103
111512 On ch=1 n=c5 v=117
111514 On ch=1 n=c7 v=121
111520 On ch=1 n=e6 v=121
111522 On ch=1 n=g6 v=117
111526 Par ch=1 c=64 v=127
111560 On ch=1 n=c5 v=0
111574 On ch=1 n=e6 v=0
111576 On ch=1 n=g6 v=0
111582 On ch=1 n=c7 v=0
111600 On ch=1 n=c4 v=0
111992 On ch=1 n=c3 v=102
111992 On ch=1 n=c5 v=122
111996 On ch=1 n=c4 v=117
112070 On ch=1 n=c5 v=0
112218 On ch=1 n=c4 v=0
112272 On ch=1 n=c3 v=0
112444 Par ch=1 c=64 v=63
112462 Par ch=1 c=64 v=0
113068 On ch=1 n=g5 v=68
113138 Par ch=1 c=64 v=63
113204 Par ch=1 c=64 v=127
113538 On ch=1 n=c6 v=82
113542 On ch=1 n=e4 v=44
113956 On ch=1 n=c4 v=59
113958 On ch=1 n=e6 v=90
114220 On ch=1 n=e4 v=0
114302 On ch=1 n=c6 v=0
114304 On ch=1 n=g5 v=0
114316 On ch=1 n=e6 v=0
114410 On ch=1 n=e6 v=77
114418 On ch=1 n=g5 v=58
114420 On ch=1 n=g4 v=46
114432 On ch=1 n=c6 v=71
114462 On ch=1 n=c4 v=0
114488 Par ch=1 c=64 v=63
114508 Par ch=1 c=64 v=0
114672 Par ch=1 c=64 v=63
114692 Par ch=1 c=64 v=127
115254 On ch=1 n=c6 v=0
115322 On ch=1 n=d6 v=60
115352 On ch=1 n=e6 v=0
115352 On ch=1 n=b5 v=38
115390 Par ch=1 c=64 v=63
115482 Par ch=1 c=64 v=127
115566 On ch=1 n=d6 v=0
115578 On ch=1 n=b5 v=0
115676 On ch=1 n=g4 v=0
115744 Par ch=1 c=64 v=63
115758 On ch=1 n=g5 v=0
115764 Par ch=1 c=64 v=0
115794 On ch=1 n=g6 v=76
115846 Par ch=1 c=64 v=63
115880 Par ch=1 c=64 v=127
116208 On ch=1 n=c6 v=85
116214 On ch=1 n=g5 v=55
116224 On ch=1 n=e4 v=47
116376 On ch=1 n=g6 v=0
116628 On ch=1 n=c4 v=66
116646 On ch=1 n=e6 v=93
116960 On ch=1 n=e6 v=0
116960 On ch=1 n=e4 v=0
116974 On ch=1 n=c6 v=0
116984 On ch=1 n=g5 v=0
117100 On ch=1 n=e6 v=93
117108 On ch=1 n=g5 v=71
117114 On ch=1 n=g4 v=60
117124 On ch=1 n=c6 v=63
117178 On ch=1 n=c4 v=0
117248 Par ch=1 c=64 v=63
117270 Par ch=1 c=64 v=0
117422 Par ch=1 c=64 v=63
117446 Par ch=1 c=64 v=127
118052 On ch=1 n=d6 v=55
118058 On ch=1 n=c6 v=0
118084 On ch=1 n=e6 v=0
118088 On ch=1 n=b5 v=38
118100 Par ch=1 c=64 v=63
118116 Par ch=1 c=64 v=0
118222 Par ch=1 c=64 v=63
118246 On ch=1 n=g4 v=0
118246 Par ch=1 c=64 v=127
118346 On ch=1 n=g5 v=0
118380 On ch=1 n=b5 v=0
118462 On ch=1 n=d6 v=0
118512 On ch=1 n=a5 v=74
118534 Par ch=1 c=64 v=63
118538 On ch=1 n=d5 v=33
118544 On ch=1 n=f4 v=48
118546 Par ch=1 c=64 v=0
118550 On ch=1 n=a4 v=48
118734 Par ch=1 c=64 v=63
118752 Par ch=1 c=64 v=127
118906 On ch=1 n=d6 v=89
118986 On ch=1 n=a5 v=0
119148 On ch=1 n=d5 v=0
119194 On ch=1 n=a4 v=0
119208 On ch=1 n=f4 v=0
119300 On ch=1 n=f6 v=91
119310 Par ch=1 c=64 v=63
119340 Par ch=1 c=64 v=0
119400 On ch=1 n=d6 v=0
119714 On ch=1 n=e6 v=94
119716 On ch=1 n=a4 v=59
119718 On ch=1 n=d5 v=70
119720 On ch=1 n=f4 v=63
119780 On ch=1 n=f6 v=0
119868 Par ch=1 c=64 v=63
119884 Par ch=1 c=64 v=127
120120 On ch=1 n=d6 v=101
120180 On ch=1 n=d5 v=0
120180 On ch=1 n=e6 v=0
120212 On ch=1 n=a4 v=0
120230 On ch=1 n=f4 v=0
120378 On ch=1 n=d6 v=0
120582 On ch=1 n=a6 v=102
120588 Par ch=1 c=64 v=63
120630 Par ch=1 c=64 v=0
120994 On ch=1 n=f5 v=51
120996 On ch=1 n=g4 v=55
121000 On ch=1 n=d5 v=65
121162 Par ch=1 c=64 v=63
121194 Par ch=1 c=64 v=127
121390 On ch=1 n=g6 v=84
121446 On ch=1 n=a6 v=0
121578 Par ch=1 c=64 v=63
121634 Par ch=1 c=64 v=127
121794 On ch=1 n=b5 v=80
121810 On ch=1 n=g6 v=0
121828 On ch=1 n=f5 v=0
121872 On ch=1 n=g4 v=0
121912 On ch=1 n=b5 v=0
121984 On ch=1 n=d5 v=0
122216 On ch=1 n=e5 v=41
122222 On ch=1 n=c6 v=79
122242 On ch=1 n=c5 v=46
122286 Par ch=1 c=64 v=63
122424 Par ch=1 c=64 v=127
122428 On ch=1 n=g5 v=60
122466 On ch=1 n=e5 v=0
122496 On ch=1 n=c6 v=0
122592 On ch=1 n=c5 v=0
122632 On ch=1 n=g5 v=0
122632 On ch=1 n=e5 v=70
122780 On ch=1 n=e5 v=0
122798 On ch=1 n=g5 v=73
123010 On ch=1 n=f5 v=83
123086 On ch=1 n=g5 v=0
123088 Par ch=1 c=64 v=63
123176 Par ch=1 c=64 v=0
123192 On ch=1 n=d5 v=76
123260 On ch=1 n=f5 v=0
123418 On ch=1 n=c5 v=83
123438 Par ch=1 c=64 v=63
123450 On ch=1 n=d5 v=0
123460 Par ch=1 c=64 v=127
123564 On ch=1 n=c5 v=0
123742 On ch=1 n=g4 v=66
123848 On ch=1 n=e4 v=75
123850 On ch=1 n=c5 v=75
123902 Par ch=1 c=64 v=63
123960 On ch=1 n=g4 v=0
123972 Par ch=1 c=64 v=0
124284 On ch=1 n=e5 v=62
124290 On ch=1 n=c4 v=52
124310 Par ch=1 c=64 v=63
124332 Par ch=1 c=64 v=127
124346 On ch=1 n=e4 v=0
124420 On ch=1 n=c5 v=0
124488 On ch=1 n=c4 v=0
124528 On ch=1 n=e5 v=0
124762 On ch=1 n=e5 v=67
124764 On ch=1 n=c5 v=45
124770 On ch=1 n=g4 v=35
124776 On ch=1 n=g3 v=58
124986 Par ch=1 c=64 v=63
125142 Par ch=1 c=64 v=127
125320 On ch=1 n=e5 v=0
125382 On ch=1 n=c5 v=0
125698 On ch=1 n=b4 v=51
125702 On ch=1 n=d5 v=60
125822 Par ch=1 c=64 v=63
125866 Par ch=1 c=64 v=0
125926 On ch=1 n=d5 v=0
125982 On ch=1 n=b4 v=0
125984 On ch=1 n=g3 v=0
125986 On ch=1 n=g4 v=0
126166 On ch=1 n=g5 v=76
126190 Par ch=1 c=64 v=63
126210 Par ch=1 c=64 v=127
126628 On ch=1 n=c5 v=82
126654 On ch=1 n=g4 v=41
126658 On ch=1 n=e4 v=48
126722 On ch=1 n=g5 v=0
127050 On ch=1 n=e5 v=85
127052 On ch=1 n=c4 v=59
127154 On ch=1 n=e4 v=0
127268 On ch=1 n=c4 v=0
127298 On ch=1 n=g4 v=0
127322 On ch=1 n=c5 v=0
127402 On ch=1 n=e5 v=0
127492 On ch=1 n=e5 v=89
127508 On ch=1 n=c5 v=77
127522 On ch=1 n=g4 v=34
127542 On ch=1 n=g3 v=36
127786 Par ch=1 c=64 v=63
127852 Par ch=1 c=64 v=0
128158 Par ch=1 c=64 v=63
128186 Par ch=1 c=64 v=127
128412 On ch=1 n=b4 v=46
128414 On ch=1 n=d5 v=60
128426 On ch=1 n=c5 v=0
128432 Par ch=1 c=64 v=63
128476 Par ch=1 c=64 v=0
128516 On ch=1 n=e5 v=0
128536 On ch=1 n=g4 v=0
128632 Par ch=1 c=64 v=63
128646 On ch=1 n=g3 v=0
128676 On ch=1 n=b4 v=0
128678 On ch=1 n=d5 v=0
128706 Par ch=1 c=64 v=0
128884 On ch=1 n=a4 v=55
128902 On ch=1 n=f3 v=50
128902 On ch=1 n=a3 v=43
128924 On ch=1 n=d4 v=15
128952 Par ch=1 c=64 v=63
128974 Par ch=1 c=64 v=127
129332 On ch=1 n=d5 v=59
129336 On ch=1 n=f3 v=0
129340 Par ch=1 c=64 v=63
129348 On ch=1 n=d4 v=0
129362 Par ch=1 c=64 v=0
129378 On ch=1 n=a3 v=0
129410 On ch=1 n=a4 v=0
129746 On ch=1 n=f5 v=76
129802 On ch=1 n=d5 v=0
130174 On ch=1 n=d4 v=71
130180 On ch=1 n=e5 v=80
130184 On ch=1 n=a3 v=69
130188 On ch=1 n=f3 v=45
130218 On ch=1 n=f5 v=0
130602 On ch=1 n=d5 v=90
130720 On ch=1 n=e5 v=0
130738 Par ch=1 c=64 v=63
130866 On ch=1 n=f3 v=0
130892 On ch=1 n=d4 v=0
130920 Par ch=1 c=64 v=0
130930 On ch=1 n=a3 v=0
130950 On ch=1 n=d5 v=0
131082 On ch=1 n=a5 v=90
131520 On ch=1 n=f4 v=69
131534 On ch=1 n=d4 v=76
131534 On ch=1 n=g3 v=63
131948 On ch=1 n=g5 v=76
132020 On ch=1 n=a5 v=0
132378 On ch=1 n=b4 v=71
132384 On ch=1 n=g5 v=0
132450 Par ch=1 c=64 v=63
132472 On ch=1 n=g3 v=0
132474 Par ch=1 c=64 v=127
132504 On ch=1 n=f4 v=0
132562 On ch=1 n=d4 v=0
132866 On ch=1 n=b4 v=0
132868 On ch=1 n=c4 v=32
132874 On ch=1 n=c5 v=59
132888 On ch=1 n=e4 v=43
132898 Par ch=1 c=64 v=63
133022 Par ch=1 c=64 v=127
133072 On ch=1 n=c4 v=0
133076 On ch=1 n=e4 v=0
133152 On ch=1 n=c5 v=0
133162 On ch=1 n=g5 v=56
133268 On ch=1 n=g5 v=0
133388 On ch=1 n=e5 v=66
133516 Par ch=1 c=64 v=63
133558 On ch=1 n=g5 v=57
133566 Par ch=1 c=64 v=0
133744 Par ch=1 c=64 v=63
133746 On ch=1 n=g5 v=0
133762 On ch=1 n=c5 v=54
133798 Par ch=1 c=64 v=127
133866 On ch=1 n=e5 v=0
133918 On ch=1 n=g5 v=77
134030 On ch=1 n=g5 v=0
134140 On ch=1 n=d5 v=66
134152 On ch=1 n=g5 v=63
134156 On ch=1 n=f5 v=65
134186 On ch=1 n=c5 v=0
134250 Par ch=1 c=64 v=63
134254 On ch=1 n=g5 v=0
134262 On ch=1 n=f5 v=0
134332 On ch=1 n=g5 v=70
134332 On ch=1 n=f5 v=55
134338 Par ch=1 c=64 v=0
134418 On ch=1 n=g5 v=0
134442 On ch=1 n=f5 v=0
134530 On ch=1 n=b4 v=75
134562 On ch=1 n=d5 v=0
134688 On ch=1 n=g5 v=76
134694 On ch=1 n=f5 v=67
134792 On ch=1 n=g5 v=0
134800 On ch=1 n=f5 v=0
134876 On ch=1 n=g4 v=78
134896 Par ch=1 c=64 v=63
134900 On ch=1 n=b4 v=0
134930 Par ch=1 c=64 v=127
135040 On ch=1 n=f5 v=71
135042 On ch=1 n=g5 v=81
135074 On ch=1 n=g4 v=0
135148 On ch=1 n=f5 v=0
135162 On ch=1 n=g5 v=0
135230 On ch=1 n=g5 v=71
135236 On ch=1 n=c4 v=87
135244 On ch=1 n=d#5 v=89
135328 On ch=1 n=d#5 v=0
135340 Par ch=1 c=64 v=63
135344 On ch=1 n=g5 v=0
135386 Par ch=1 c=64 v=0
135430 On ch=1 n=g5 v=75
135430 On ch=1 n=d#5 v=88
135500 On ch=1 n=d#5 v=0
135518 On ch=1 n=g5 v=0
135618 On ch=1 n=d#4 v=94
135664 On ch=1 n=c4 v=0
135812 On ch=1 n=d#5 v=94
135812 On ch=1 n=g5 v=84
135878 On ch=1 n=d#5 v=0
135900 On ch=1 n=g5 v=0
135984 On ch=1 n=c4 v=99
136028 On ch=1 n=d#4 v=0
136148 On ch=1 n=g5 v=89
136152 On ch=1 n=d#5 v=97
136236 On ch=1 n=d#5 v=0
136264 On ch=1 n=g5 v=0
136340 On ch=1 n=d4 v=106
136358 On ch=1 n=g5 v=94
136362 On ch=1 n=c4 v=0
136364 On ch=1 n=f5 v=85
136440 On ch=1 n=g5 v=0
136444 On ch=1 n=f5 v=0
136514 On ch=1 n=f5 v=88
136514 On ch=1 n=g5 v=87
136600 On ch=1 n=f5 v=0
136608 On ch=1 n=g5 v=0
136712 On ch=1 n=b3 v=109
136738 On ch=1 n=d4 v=0
136892 On ch=1 n=g5 v=93
136902 On ch=1 n=f5 v=85
136978 On ch=1 n=f5 v=0
136994 On ch=1 n=g5 v=0
137082 On ch=1 n=g3 v=111
137112 On ch=1 n=b3 v=0
137112 Par ch=1 c=64 v=63
137114 Par ch=1 c=64 v=127
137158 On ch=1 n=g3 v=0
137234 Par ch=1 c=64 v=63
137240 Par ch=1 c=64 v=0
137250 On ch=1 n=g5 v=94
137258 On ch=1 n=f5 v=83
137338 On ch=1 n=f5 v=0
137366 On ch=1 n=g5 v=0
137446 On ch=1 n=c3 v=97
137450 On ch=1 n=c4 v=118
137454 On ch=1 n=g5 v=113
137462 On ch=1 n=d#5 v=118
137462 Par ch=1 c=64 v=127
137510 On ch=1 n=c3 v=0
137528 On ch=1 n=c4 v=0
137542 On ch=1 n=d#5 v=0
137552 On ch=1 n=g5 v=0
137670 On ch=1 n=g5 v=91
137676 On ch=1 n=d#5 v=105
137736 On ch=1 n=d#5 v=0
137742 On ch=1 n=g5 v=0
137892 On ch=1 n=c5 v=93
137990 On ch=1 n=c5 v=0
138054 On ch=1 n=g5 v=91
138070 On ch=1 n=d#5 v=83
138106 On ch=1 n=d#5 v=0
138150 On ch=1 n=g5 v=0
138234 On ch=1 n=c4 v=101
138308 Par ch=1 c=64 v=63
138312 On ch=1 n=c4 v=0
138322 Par ch=1 c=64 v=0
138400 On ch=1 n=g5 v=80
138414 On ch=1 n=d#5 v=91
138506 On ch=1 n=d#5 v=0
138536 On ch=1 n=g5 v=0
138596 On ch=1 n=a2 v=103
138600 On ch=1 n=a3 v=111
138610 On ch=1 n=d#5 v=121
138612 On ch=1 n=f#5 v=119
138614 On ch=1 n=c5 v=116
138620 Par ch=1 c=64 v=127
138660 On ch=1 n=a2 v=0
138664 On ch=1 n=a3 v=0
138672 On ch=1 n=c5 v=0
138680 On ch=1 n=d#5 v=0
138692 On ch=1 n=f#5 v=0
138802 On ch=1 n=f#5 v=77
138804 On ch=1 n=c5 v=77
138816 On ch=1 n=d#5 v=75
138878 On ch=1 n=f#5 v=0
138882 On ch=1 n=c5 v=0
138888 On ch=1 n=d#5 v=0
139024 On ch=1 n=a4 v=65
139192 On ch=1 n=f#5 v=94
139198 On ch=1 n=d#5 v=79
139204 On ch=1 n=c5 v=70
139208 On ch=1 n=a4 v=0
139290 On ch=1 n=d#5 v=0
139296 On ch=1 n=c5 v=0
139306 On ch=1 n=f#5 v=0
139366 On ch=1 n=a3 v=98
139386 Par ch=1 c=64 v=63
139396 Par ch=1 c=64 v=0
139452 On ch=1 n=a3 v=0
139538 On ch=1 n=f#5 v=100
139540 On ch=1 n=c5 v=91
139542 On ch=1 n=d#5 v=89
139636 On ch=1 n=d#5 v=0
139636 On ch=1 n=c5 v=0
139656 On ch=1 n=f#5 v=0
139736 On ch=1 n=a#2 v=101
139748 On ch=1 n=a#3 v=123
139754 On ch=1 n=g5 v=118
139756 On ch=1 n=d5 v=121
139772 Par ch=1 c=64 v=127
139798 On ch=1 n=a#2 v=0
139812 On ch=1 n=a#3 v=0
139818 On ch=1 n=d5 v=0
139850 On ch=1 n=g5 v=0
139964 On ch=1 n=g5 v=103
139982 On ch=1 n=d5 v=94
140022 On ch=1 n=d5 v=0
140066 On ch=1 n=g5 v=0
140174 On ch=1 n=a#4 v=96
140344 On ch=1 n=g5 v=90
140346 On ch=1 n=a#4 v=0
140350 On ch=1 n=d5 v=85
140426 On ch=1 n=g5 v=0
140470 On ch=1 n=d5 v=0
140522 On ch=1 n=a#3 v=104
140588 On ch=1 n=a#3 v=0
140686 Par ch=1 c=64 v=63
140692 On ch=1 n=g5 v=91
140694 On ch=1 n=d5 v=94
140702 Par ch=1 c=64 v=0
140808 On ch=1 n=d5 v=0
140834 On ch=1 n=g5 v=0
140888 On ch=1 n=f#2 v=97
140898 On ch=1 n=f#3 v=124
140900 On ch=1 n=d5 v=121
140900 On ch=1 n=c6 v=118
140904 On ch=1 n=a5 v=111
140916 Par ch=1 c=64 v=63
140916 Par ch=1 c=64 v=127
140958 On ch=1 n=f#3 v=0
140960 On ch=1 n=f#2 v=0
140990 On ch=1 n=d5 v=0
140992 On ch=1 n=a5 v=0
141020 On ch=1 n=c6 v=0
141124 On ch=1 n=c6 v=99
141128 On ch=1 n=d5 v=101
141132 On ch=1 n=a5 v=92
141184 On ch=1 n=d5 v=0
141186 On ch=1 n=a5 v=0
141200 On ch=1 n=c6 v=0
141332 On ch=1 n=f#4 v=101
141402 On ch=1 n=f#4 v=0
141506 On ch=1 n=c6 v=104
141508 On ch=1 n=d5 v=104
141522 On ch=1 n=a5 v=72
141568 On ch=1 n=a5 v=0
141584 On ch=1 n=d5 v=0
141602 On ch=1 n=c6 v=0
141692 On ch=1 n=f#3 v=105
141754 On ch=1 n=f#3 v=0
141842 On ch=1 n=c6 v=101
141848 On ch=1 n=d5 v=106
141856 On ch=1 n=a5 v=84
141876 Par ch=1 c=64 v=63
141906 On ch=1 n=a5 v=0
141918 Par ch=1 c=64 v=0
141924 On ch=1 n=d5 v=0
141962 On ch=1 n=c6 v=0
142038 On ch=1 n=g2 v=98
142042 On ch=1 n=g3 v=111
142050 On ch=1 n=a#5 v=116
142052 On ch=1 n=d5 v=113
142052 On ch=1 n=g5 v=107
142054 Par ch=1 c=64 v=63
142068 Par ch=1 c=64 v=127
142098 On ch=1 n=g2 v=0
142108 On ch=1 n=g3 v=0
142112 On ch=1 n=d5 v=0
142114 On ch=1 n=g5 v=0
142148 On ch=1 n=a#5 v=0
142250 On ch=1 n=a#5 v=106
142256 On ch=1 n=d5 v=94
142262 On ch=1 n=g5 v=84
142308 On ch=1 n=g5 v=0
142314 On ch=1 n=d5 v=0
142326 On ch=1 n=a#5 v=0
142434 On ch=1 n=g4 v=97
142602 On ch=1 n=a#5 v=108
142608 On ch=1 n=d5 v=103
142608 On ch=1 n=g5 v=97
142658 Par ch=1 c=64 v=63
142660 On ch=1 n=g5 v=0
142666 On ch=1 n=d5 v=0
142674 Par ch=1 c=64 v=0
142690 On ch=1 n=a#5 v=0
142790 On ch=1 n=g3 v=109
142822 On ch=1 n=g4 v=0
142880 On ch=1 n=g3 v=0
142958 On ch=1 n=a#5 v=114
142960 On ch=1 n=d5 v=106
142962 On ch=1 n=g5 v=99
143002 On ch=1 n=g5 v=0
143002 On ch=1 n=d5 v=0
143056 On ch=1 n=a#5 v=0
143182 On ch=1 n=e3 v=88
143188 On ch=1 n=e4 v=108
143190 On ch=1 n=a#5 v=121
143192 On ch=1 n=c#6 v=119
143194 On ch=1 n=g5 v=109
143206 Par ch=1 c=64 v=63
143208 Par ch=1 c=64 v=127
143232 On ch=1 n=g5 v=0
143242 On ch=1 n=e3 v=0
143246 On ch=1 n=a#5 v=0
143252 On ch=1 n=e4 v=0
143264 On ch=1 n=c#6 v=0
143396 On ch=1 n=c#6 v=106
143398 On ch=1 n=g5 v=87
143402 On ch=1 n=a#5 v=96
143436 On ch=1 n=g5 v=0
143444 On ch=1 n=a#5 v=0
143474 On ch=1 n=c#6 v=0
143608 On ch=1 n=e5 v=102
143682 On ch=1 n=e5 v=0
143774 On ch=1 n=c#6 v=113
143778 On ch=1 n=a#5 v=113
143782 On ch=1 n=g5 v=99
143824 On ch=1 n=g5 v=0
143834 On ch=1 n=a#5 v=0
143846 On ch=1 n=c#6 v=0
143966 On ch=1 n=e4 v=99
144032 On ch=1 n=e4 v=0
144046 Par ch=1 c=64 v=63
144056 Par ch=1 c=64 v=0
144144 On ch=1 n=c#6 v=118
144146 On ch=1 n=g5 v=111
144156 On ch=1 n=a#5 v=99
144188 On ch=1 n=a#5 v=0
144208 On ch=1 n=g5 v=0
144252 On ch=1 n=c#6 v=0
144320 On ch=1 n=f3 v=96
144328 On ch=1 n=f4 v=102
144344 On ch=1 n=d6 v=125
144350 On ch=1 n=a5 v=118
144380 On ch=1 n=f3 v=0
144390 On ch=1 n=f4 v=0
144396 Par ch=1 c=64 v=63
144398 Par ch=1 c=64 v=127
144404 On ch=1 n=a5 v=0
144424 On ch=1 n=d6 v=0
144516 On ch=1 n=d6 v=113
144528 On ch=1 n=a5 v=107
144586 On ch=1 n=a5 v=0
144612 On ch=1 n=d6 v=0
144726 On ch=1 n=f5 v=102
144808 On ch=1 n=f5 v=0
144888 On ch=1 n=d6 v=112
144900 On ch=1 n=a5 v=96
144966 On ch=1 n=a5 v=0
144970 On ch=1 n=d6 v=0
145086 On ch=1 n=f4 v=104
145168 On ch=1 n=f4 v=0
145248 On ch=1 n=d6 v=101
145258 On ch=1 n=a5 v=98
145322 On ch=1 n=d6 v=0
145356 Par ch=1 c=64 v=63
145370 On ch=1 n=a5 v=0
145382 Par ch=1 c=64 v=0
145462 On ch=1 n=c#3 v=108
145468 On ch=1 n=c#4 v=121
145468 On ch=1 n=e6 v=116
145470 Par ch=1 c=64 v=63
145474 On ch=1 n=a5 v=114
145478 On ch=1 n=g6 v=103
145484 Par ch=1 c=64 v=127
145510 On ch=1 n=d#6 v=48
145520 On ch=1 n=c#3 v=0
145532 On ch=1 n=a5 v=0
145532 On ch=1 n=c#4 v=0
145542 On ch=1 n=e6 v=0
145546 On ch=1 n=d#6 v=0
145564 On ch=1 n=g6 v=0
145656 On ch=1 n=g6 v=96
145656 On ch=1 n=a5 v=101
145658 On ch=1 n=e6 v=106
145706 On ch=1 n=a5 v=0
145720 On ch=1 n=e6 v=0
145738 On ch=1 n=g6 v=0
145878 On ch=1 n=c#5 v=106
145948 On ch=1 n=c#5 v=0
146044 On ch=1 n=g6 v=103
146044 On ch=1 n=a5 v=106
146046 On ch=1 n=e6 v=98
146110 On ch=1 n=a5 v=0
146114 On ch=1 n=e6 v=0
146132 On ch=1 n=g6 v=0
146230 On ch=1 n=c#4 v=110
146318 On ch=1 n=c#4 v=0
146414 On ch=1 n=g6 v=101
146418 On ch=1 n=e6 v=94
146418 On ch=1 n=a5 v=100
146480 Par ch=1 c=64 v=63
146518 On ch=1 n=g6 v=0
146520 Par ch=1 c=64 v=0
146528 On ch=1 n=a5 v=0
146566 On ch=1 n=e6 v=0
146638 On ch=1 n=f6 v=117
146640 Par ch=1 c=64 v=63
146642 On ch=1 n=d6 v=112
146642 On ch=1 n=d4 v=114
146646 On ch=1 n=d3 v=69
146648 On ch=1 n=a5 v=111
146658 Par ch=1 c=64 v=127
146678 On ch=1 n=d4 v=0
146688 On ch=1 n=d3 v=0
146718 On ch=1 n=d6 v=0
146720 On ch=1 n=a5 v=0
146730 On ch=1 n=f6 v=0
146822 On ch=1 n=a5 v=96
146824 On ch=1 n=f6 v=99
146828 On ch=1 n=d6 v=89
146914 On ch=1 n=a5 v=0
146918 On ch=1 n=d6 v=0
146920 On ch=1 n=f6 v=0
147042 On ch=1 n=d5 v=113
147132 On ch=1 n=d5 v=0
147206 On ch=1 n=f6 v=107
147216 On ch=1 n=a5 v=100
147218 On ch=1 n=d6 v=90
147310 On ch=1 n=d6 v=0
147330 On ch=1 n=a5 v=0
147360 On ch=1 n=f6 v=0
147406 On ch=1 n=d4 v=121
147486 On ch=1 n=d4 v=0
147554 On ch=1 n=f6 v=112
147560 On ch=1 n=a5 v=111
147620 On ch=1 n=f6 v=0
147678 On ch=1 n=a5 v=0
147752 Par ch=1 c=64 v=63
147762 Par ch=1 c=64 v=0
147790 On ch=1 n=a#2 v=109
147796 On ch=1 n=a#3 v=124
147804 On ch=1 n=g#6 v=120
147810 On ch=1 n=d6 v=112
147844 Par ch=1 c=64 v=63
147854 Par ch=1 c=64 v=127
147874 On ch=1 n=a#2 v=0
147914 On ch=1 n=a#3 v=0
147922 On ch=1 n=d6 v=0
147952 On ch=1 n=g#6 v=0
148052 On ch=1 n=g#6 v=107
148064 On ch=1 n=d6 v=86
148138 On ch=1 n=d6 v=0
148162 On ch=1 n=g#6 v=0
148242 On ch=1 n=a#4 v=106
148336 On ch=1 n=a#4 v=0
148446 On ch=1 n=g#6 v=118
148454 On ch=1 n=d6 v=98
148524 On ch=1 n=d6 v=0
148554 On ch=1 n=g#6 v=0
148610 On ch=1 n=a#3 v=112
148706 On ch=1 n=a#3 v=0
148808 On ch=1 n=g#6 v=110
148820 On ch=1 n=d6 v=88
148874 On ch=1 n=d6 v=0
148972 On ch=1 n=g#6 v=0
149052 On ch=1 n=a3 v=103
149058 On ch=1 n=a6 v=116
149068 On ch=1 n=c#6 v=110
149100 Par ch=1 c=64 v=63
149114 Par ch=1 c=64 v=0
149230 Par ch=1 c=64 v=63
149246 Par ch=1 c=64 v=127
149312 On ch=1 n=c#6 v=0
149312 On ch=1 n=a6 v=0
149398 On ch=1 n=a3 v=0
149422 On ch=1 n=a6 v=91
149436 On ch=1 n=f6 v=96
149632 On ch=1 n=f6 v=0
149654 On ch=1 n=g6 v=92
149660 On ch=1 n=e6 v=91
149702 On ch=1 n=a6 v=0
149830 On ch=1 n=f6 v=100
149836 On ch=1 n=d6 v=94
149868 On ch=1 n=e6 v=0
149880 On ch=1 n=g6 v=0
149924 On ch=1 n=f6 v=0
150014 On ch=1 n=e6 v=94
150024 On ch=1 n=c#6 v=96
150038 On ch=1 n=d6 v=0
150160 On ch=1 n=c#6 v=0
150172 On ch=1 n=g#5 v=76
150174 On ch=1 n=d6 v=96
150178 On ch=1 n=f6 v=94
150220 On ch=1 n=e6 v=0
150236 Par ch=1 c=64 v=63
150260 Par ch=1 c=64 v=0
150332 On ch=1 n=d6 v=0
150374 On ch=1 n=f6 v=0
150376 Par ch=1 c=64 v=63
150384 On ch=1 n=e6 v=88
150390 On ch=1 n=a5 v=89
150392 Par ch=1 c=64 v=127
150398 On ch=1 n=c#6 v=86
150424 On ch=1 n=g#5 v=0
150458 On ch=1 n=c#6 v=0
150462 On ch=1 n=e6 v=0
150534 On ch=1 n=a5 v=0
150616 On ch=1 n=a5 v=83
150644 On ch=1 n=f5 v=66
150762 On ch=1 n=f5 v=0
150818 On ch=1 n=g5 v=84
150820 On ch=1 n=e5 v=78
150826 On ch=1 n=a5 v=0
150986 On ch=1 n=d5 v=81
150988 On ch=1 n=f5 v=79
150992 On ch=1 n=g5 v=0
150996 On ch=1 n=e5 v=0
151064 On ch=1 n=f5 v=0
151144 On ch=1 n=d5 v=0
151178 On ch=1 n=e5 v=81
151186 On ch=1 n=c#5 v=86
151344 On ch=1 n=c#5 v=0
151350 On ch=1 n=g#4 v=63
151352 On ch=1 n=d5 v=85
151368 On ch=1 n=f5 v=74
151374 On ch=1 n=e5 v=0
151458 Par ch=1 c=64 v=63
151514 Par ch=1 c=64 v=0
151542 On ch=1 n=a4 v=66
151558 On ch=1 n=e5 v=83
151560 On ch=1 n=c#5 v=76
151570 On ch=1 n=d5 v=0
151574 On ch=1 n=f5 v=0
151598 On ch=1 n=g#4 v=0
151750 On ch=1 n=f5 v=73
151754 On ch=1 n=d5 v=79
151760 On ch=1 n=g#4 v=64
151778 On ch=1 n=c#5 v=0
151780 On ch=1 n=e5 v=0
151812 On ch=1 n=a4 v=0
151932 On ch=1 n=f5 v=0
151950 On ch=1 n=e5 v=67
151950 On ch=1 n=c#5 v=76
151978 On ch=1 n=a4 v=61
151994 On ch=1 n=d5 v=0
152018 On ch=1 n=g#4 v=0
152128 On ch=1 n=f5 v=69
152144 On ch=1 n=e5 v=0
152148 On ch=1 n=c#5 v=0
152150 On ch=1 n=d5 v=72
152172 On ch=1 n=g#4 v=54
152194 On ch=1 n=a4 v=0
152344 On ch=1 n=f5 v=0
152348 On ch=1 n=e5 v=70
152354 On ch=1 n=a4 v=56
152354 On ch=1 n=c#5 v=70
152380 On ch=1 n=g#4 v=0
152392 On ch=1 n=d5 v=0
152538 On ch=1 n=c#5 v=0
152544 On ch=1 n=e5 v=0
152548 On ch=1 n=f5 v=60
152554 On ch=1 n=d5 v=67
152556 On ch=1 n=g#4 v=44
152574 On ch=1 n=a4 v=0
152784 On ch=1 n=d5 v=0
152788 On ch=1 n=f5 v=0
152788 On ch=1 n=c#5 v=58
152794 On ch=1 n=a4 v=47
152798 On ch=1 n=e5 v=57
152852 On ch=1 n=g#4 v=0
153266 On ch=1 n=c#5 v=0
153272 On ch=1 n=a4 v=0
153282 On ch=1 n=e5 v=0
154162 Par ch=1 c=64 v=63
154210 Par ch=1 c=64 v=127
154214 On ch=1 n=e5 v=45
154230 On ch=1 n=c5 v=41
154230 On ch=1 n=a4 v=36
154442 On ch=1 n=f5 v=49
154444 On ch=1 n=c5 v=0
154448 On ch=1 n=e5 v=0
154458 On ch=1 n=g#4 v=41
154460 On ch=1 n=d5 v=42
154490 On ch=1 n=a4 v=0
154616 On ch=1 n=a4 v=47
154620 On ch=1 n=g#4 v=0
154674 On ch=1 n=d5 v=0
154678 On ch=1 n=e5 v=53
154700 On ch=1 n=c5 v=42
154706 On ch=1 n=f5 v=0
154816 On ch=1 n=c5 v=0
154834 On ch=1 n=g#4 v=45
154838 On ch=1 n=a4 v=0
154856 On ch=1 n=d5 v=55
154858 On ch=1 n=f5 v=60
154882 On ch=1 n=e5 v=0
155032 On ch=1 n=d5 v=0
155050 On ch=1 n=g#4 v=0
155050 On ch=1 n=a4 v=43
155052 On ch=1 n=e5 v=65
155054 On ch=1 n=f5 v=0
155064 On ch=1 n=c5 v=22
155232 On ch=1 n=c5 v=0
155234 On ch=1 n=f5 v=57
155234 On ch=1 n=g#4 v=52
155236 On ch=1 n=d5 v=55
155240 On ch=1 n=e5 v=0
155250 On ch=1 n=a4 v=0
155466 On ch=1 n=d5 v=0
155492 On ch=1 n=a4 v=35
155496 On ch=1 n=f5 v=0
155496 On ch=1 n=e5 v=46
155508 On ch=1 n=g#4 v=0
155516 On ch=1 n=c5 v=26
155524 Par ch=1 c=64 v=63
155616 Par ch=1 c=64 v=0
156096 On ch=1 n=c5 v=0
156120 On ch=1 n=e5 v=0
156128 On ch=1 n=a4 v=0
157012 On ch=1 n=a#4 v=86
157018 On ch=1 n=g4 v=84
157026 On ch=1 n=e5 v=90
157030 On ch=1 n=c5 v=90
157138 Par ch=1 c=64 v=63
157168 Par ch=1 c=64 v=127
157264 On ch=1 n=f5 v=87
157264 On ch=1 n=a4 v=77
157314 On ch=1 n=g4 v=0
157328 On ch=1 n=e5 v=0
157476 On ch=1 n=g4 v=78
157496 On ch=1 n=e5 v=88
157518 On ch=1 n=a4 v=0
157566 On ch=1 n=f5 v=0
157672 On ch=1 n=f5 v=93
157694 On ch=1 n=a4 v=68
157722 On ch=1 n=g4 v=0
157746 On ch=1 n=e5 v=0
157886 On ch=1 n=e5 v=88
157900 On ch=1 n=g4 v=68
157922 On ch=1 n=a4 v=0
157950 On ch=1 n=f5 v=0
158082 On ch=1 n=f5 v=84
158130 On ch=1 n=a4 v=68
158150 On ch=1 n=e5 v=0
158160 On ch=1 n=g4 v=0
158260 Par ch=1 c=64 v=63
158348 Par ch=1 c=64 v=0
158388 On ch=1 n=g4 v=63
158392 On ch=1 n=e5 v=76
158408 On ch=1 n=a4 v=0
158450 On ch=1 n=f5 v=0
158882 Par ch=1 c=64 v=63
158898 Par ch=1 c=64 v=127
159050 On ch=1 n=g4 v=0
159058 On ch=1 n=a#4 v=0
159068 On ch=1 n=c5 v=0
159140 On ch=1 n=e5 v=0
159436 Par ch=1 c=64 v=63
159486 Par ch=1 c=64 v=0
160084 Par ch=1 c=64 v=63
160156 Par ch=1 c=64 v=127
160170 On ch=1 n=g5 v=40
160170 On ch=1 n=a#6 v=58
160180 On ch=1 n=c5 v=35
160188 On ch=1 n=e6 v=30
160422 On ch=1 n=a#6 v=0
160424 On ch=1 n=f#5 v=60
160442 On ch=1 n=a6 v=61
160484 On ch=1 n=g5 v=0
160638 On ch=1 n=a#6 v=76
160660 On ch=1 n=g5 v=38
160682 On ch=1 n=f#5 v=0
160700 On ch=1 n=a6 v=0
160848 On ch=1 n=a6 v=61
160854 On ch=1 n=f#5 v=65
160886 On ch=1 n=a#6 v=0
160892 On ch=1 n=g5 v=0
161074 On ch=1 n=a#6 v=72
161082 On ch=1 n=g5 v=32
161088 On ch=1 n=f#5 v=0
161136 On ch=1 n=a6 v=0
161218 Par ch=1 c=64 v=63
161302 On ch=1 n=f#5 v=55
161306 On ch=1 n=a6 v=52
161350 On ch=1 n=g5 v=0
161362 On ch=1 n=a#6 v=0
161404 Par ch=1 c=64 v=127
161624 On ch=1 n=a#6 v=54
161640 On ch=1 n=g5 v=24
161694 On ch=1 n=f#5 v=0
161732 On ch=1 n=a6 v=0
161740 Par ch=1 c=64 v=63
161834 Par ch=1 c=64 v=0
162382 On ch=1 n=c5 v=0
162422 On ch=1 n=g5 v=0
162490 On ch=1 n=e6 v=0
162546 On ch=1 n=a#6 v=0
163390 Par ch=1 c=64 v=63
163634 Par ch=1 c=64 v=127
163748 On ch=1 n=f5 v=47
163750 On ch=1 n=f4 v=44
164042 On ch=1 n=a4 v=29
164172 On ch=1 n=f4 v=0
164256 On ch=1 n=c5 v=38
164294 On ch=1 n=a4 v=0
164462 On ch=1 n=a4 v=39
164484 On ch=1 n=c5 v=0
164666 On ch=1 n=a4 v=0
164670 On ch=1 n=c5 v=45
164678 On ch=1 n=a5 v=59
164752 On ch=1 n=f5 v=0
164888 On ch=1 n=a4 v=41
164910 On ch=1 n=c5 v=0
165076 On ch=1 n=f4 v=48
165080 On ch=1 n=a4 v=0
165084 On ch=1 n=c6 v=77
165218 On ch=1 n=a5 v=0
165292 On ch=1 n=c5 v=59
165480 On ch=1 n=d#5 v=60
165494 On ch=1 n=c5 v=0
165644 On ch=1 n=f4 v=0
165658 On ch=1 n=d#5 v=0
165664 On ch=1 n=c5 v=66
165842 On ch=1 n=a5 v=75
165856 On ch=1 n=c5 v=0
165870 On ch=1 n=d#5 v=66
165888 On ch=1 n=c6 v=0
166046 On ch=1 n=d#5 v=0
166060 On ch=1 n=c5 v=63
166224 Par ch=1 c=64 v=63
166252 On ch=1 n=c5 v=0
166252 On ch=1 n=a#5 v=87
166256 On ch=1 n=f4 v=50
166296 On ch=1 n=a5 v=0
166360 Par ch=1 c=64 v=127
166446 On ch=1 n=a#4 v=73
166520 On ch=1 n=f4 v=0
166662 On ch=1 n=d5 v=55
166664 On ch=1 n=a#4 v=0
166838 On ch=1 n=a#4 v=76
166858 On ch=1 n=a#5 v=0
166864 On ch=1 n=d5 v=0
167024 On ch=1 n=g6 v=89
167026 On ch=1 n=a#4 v=0
167046 On ch=1 n=d5 v=50
167220 On ch=1 n=a#4 v=70
167240 On ch=1 n=d5 v=0
167412 On ch=1 n=f6 v=87
167428 On ch=1 n=f4 v=50
167448 On ch=1 n=a#4 v=0
167486 On ch=1 n=g6 v=0
167550 Par ch=1 c=64 v=63
167616 On ch=1 n=e6 v=83
167626 On ch=1 n=g4 v=56
167662 On ch=1 n=f4 v=0
167674 Par ch=1 c=64 v=127
167716 On ch=1 n=f6 v=0
167724 On ch=1 n=e6 v=0
167820 On ch=1 n=e6 v=44
167826 On ch=1 n=a#4 v=64
167870 On ch=1 n=g4 v=0
168010 On ch=1 n=g4 v=54
168022 On ch=1 n=a#4 v=0
168196 On ch=1 n=a#4 v=52
168210 On ch=1 n=g4 v=0
168224 Par ch=1 c=64 v=63
168290 On ch=1 n=e6 v=0
168354 Par ch=1 c=64 v=0
168388 On ch=1 n=a#4 v=0
168390 On ch=1 n=g4 v=50
168602 On ch=1 n=g4 v=0
168620 On ch=1 n=a4 v=49
168622 On ch=1 n=f6 v=85
168642 On ch=1 n=f4 v=32
168664 Par ch=1 c=64 v=63
168706 Par ch=1 c=64 v=127
169042 On ch=1 n=a5 v=61
169044 On ch=1 n=f6 v=0
169134 On ch=1 n=a4 v=0
169140 On ch=1 n=f4 v=0
169278 Par ch=1 c=64 v=63
169440 Par ch=1 c=64 v=0
169450 On ch=1 n=d6 v=65
169554 On ch=1 n=a5 v=0
169852 On ch=1 n=g5 v=67
169862 Par ch=1 c=64 v=63
169916 Par ch=1 c=64 v=127
169942 On ch=1 n=d6 v=0
170268 On ch=1 n=c6 v=75
170428 Par ch=1 c=64 v=63
170510 On ch=1 n=g5 v=0
170538 Par ch=1 c=64 v=127
170910 On ch=1 n=a5 v=78
170922 On ch=1 n=c6 v=0
171098 On ch=1 n=f5 v=81
171114 On ch=1 n=f4 v=51
171138 On ch=1 n=a5 v=0
171240 Par ch=1 c=64 v=63
171438 Par ch=1 c=64 v=127
171500 On ch=1 n=a3 v=64
171534 On ch=1 n=f4 v=0
171862 On ch=1 n=d4 v=60
171888 On ch=1 n=a3 v=0
172256 On ch=1 n=g5 v=71
172256 On ch=1 n=g3 v=52
172258 Par ch=1 c=64 v=63
172302 On ch=1 n=d4 v=0
172376 Par ch=1 c=64 v=127
172546 On ch=1 n=f5 v=0
172636 On ch=1 n=c4 v=55
172640 On ch=1 n=g3 v=0
172658 On ch=1 n=e5 v=65
172720 On ch=1 n=f5 v=73
172728 On ch=1 n=e5 v=0
172766 On ch=1 n=g5 v=0
172796 On ch=1 n=f5 v=0
172798 On ch=1 n=e5 v=63
172882 On ch=1 n=d5 v=51
172886 On ch=1 n=e5 v=0
172904 Par ch=1 c=64 v=63
172996 Par ch=1 c=64 v=0
173002 On ch=1 n=d5 v=0
173004 On ch=1 n=e5 v=61
173072 Par ch=1 c=64 v=63
173128 Par ch=1 c=64 v=127
173194 On ch=1 n=a3 v=60
173202 On ch=1 n=c4 v=0
173254 On ch=1 n=e5 v=0
173424 On ch=1 n=f3 v=72
173426 On ch=1 n=f5 v=76
173432 On ch=1 n=a5 v=79
173442 On ch=1 n=a3 v=0
173556 Par ch=1 c=64 v=63
173698 Par ch=1 c=64 v=127
173838 On ch=1 n=a#5 v=97
173862 On ch=1 n=d4 v=48
173872 On ch=1 n=f3 v=0
173936 On ch=1 n=a5 v=0
174094 Par ch=1 c=64 v=63
174214 Par ch=1 c=64 v=0
174230 On ch=1 n=d6 v=81
174254 On ch=1 n=a#3 v=63
174304 On ch=1 n=d4 v=0
174312 Par ch=1 c=64 v=63
174328 On ch=1 n=a#5 v=0
174368 Par ch=1 c=64 v=127
174556 On ch=1 n=d6 v=0
174628 On ch=1 n=d6 v=80
174652 On ch=1 n=a3 v=41
174654 On ch=1 n=a#3 v=0
174708 Par ch=1 c=64 v=63
174804 Par ch=1 c=64 v=0
174844 On ch=1 n=c6 v=80
174858 On ch=1 n=d6 v=0
174920 On ch=1 n=f5 v=0
174990 On ch=1 n=c6 v=0
175026 On ch=1 n=a3 v=0
175044 On ch=1 n=a#5 v=86
175210 On ch=1 n=a5 v=83
175232 On ch=1 n=a#5 v=0
175352 On ch=1 n=a5 v=0
175422 On ch=1 n=d4 v=75
175426 On ch=1 n=g5 v=80
175578 On ch=1 n=g5 v=0
175586 On ch=1 n=f5 v=90
175700 On ch=1 n=d4 v=0
175742 On ch=1 n=f5 v=0
175816 On ch=1 n=a#3 v=83
175822 On ch=1 n=g5 v=85
175894 Par ch=1 c=64 v=63
175932 Par ch=1 c=64 v=127
176148 Par ch=1 c=64 v=63
176210 On ch=1 n=a#5 v=88
176212 Par ch=1 c=64 v=0
176220 On ch=1 n=g5 v=0
176256 On ch=1 n=a#3 v=0
176290 On ch=1 n=a#5 v=0
176612 On ch=1 n=a#4 v=68
176616 On ch=1 n=c4 v=51
176628 On ch=1 n=e5 v=77
176668 Par ch=1 c=64 v=63
176694 Par ch=1 c=64 v=127
176842 On ch=1 n=a#4 v=0
176850 On ch=1 n=c4 v=0
176898 On ch=1 n=e5 v=0
177072 On ch=1 n=f3 v=51
177082 On ch=1 n=f5 v=67
177088 Par ch=1 c=64 v=63
177094 On ch=1 n=a4 v=49
177132 Par ch=1 c=64 v=0
177194 Par ch=1 c=64 v=63
177248 Par ch=1 c=64 v=127
177436 On ch=1 n=a4 v=0
177440 Par ch=1 c=64 v=63
177444 On ch=1 n=f3 v=0
177470 Par ch=1 c=64 v=0
177474 On ch=1 n=f5 v=0
177970 On ch=1 n=a5 v=68
177974 On ch=1 n=c6 v=68
177974 Par ch=1 c=64 v=63
177976 On ch=1 n=c7 v=89
177992 Par ch=1 c=64 v=127
178026 On ch=1 n=a5 v=0
178028 On ch=1 n=c7 v=0
178094 On ch=1 n=c6 v=0
178308 On ch=1 n=a#6 v=85
178310 On ch=1 n=g5 v=58
178326 On ch=1 n=a#5 v=53
178370 On ch=1 n=a#5 v=0
178378 On ch=1 n=a5 v=82
178388 On ch=1 n=a6 v=84
178390 Par ch=1 c=64 v=63
178406 On ch=1 n=a#6 v=0
178414 On ch=1 n=f5 v=57
178436 On ch=1 n=g5 v=0
178450 Par ch=1 c=64 v=0
178454 On ch=1 n=a5 v=0
178462 On ch=1 n=a6 v=0
178484 On ch=1 n=f5 v=0
178794 On ch=1 n=a6 v=90
178796 On ch=1 n=a5 v=76
178814 On ch=1 n=f5 v=57
178842 On ch=1 n=a5 v=0
178854 On ch=1 n=a6 v=0
178874 On ch=1 n=f5 v=0
179154 Par ch=1 c=64 v=63
179176 Par ch=1 c=64 v=127
179194 On ch=1 n=a6 v=87
179200 On ch=1 n=a5 v=70
179206 On ch=1 n=f5 v=67
179248 On ch=1 n=a6 v=0
179250 On ch=1 n=f5 v=0
179252 On ch=1 n=a5 v=0
179522 On ch=1 n=g6 v=69
179526 On ch=1 n=g5 v=54
179530 On ch=1 n=c5 v=68
179546 Par ch=1 c=64 v=63
179576 On ch=1 n=g5 v=0
179580 On ch=1 n=f5 v=84
179602 On ch=1 n=f6 v=84
179618 On ch=1 n=g6 v=0
179622 On ch=1 n=a4 v=55
179624 Par ch=1 c=64 v=0
179628 On ch=1 n=c5 v=0
179668 On ch=1 n=f5 v=0
179670 On ch=1 n=f6 v=0
179696 On ch=1 n=a4 v=0
180002 On ch=1 n=f5 v=74
180018 On ch=1 n=a4 v=60
180022 On ch=1 n=f6 v=90
180080 On ch=1 n=f5 v=0
180084 On ch=1 n=f6 v=0
180098 On ch=1 n=a4 v=0
180380 Par ch=1 c=64 v=63
180408 Par ch=1 c=64 v=127
180440 On ch=1 n=f6 v=104
180446 On ch=1 n=f5 v=54
180452 On ch=1 n=a4 v=42
180604 On ch=1 n=a4 v=0
180614 On ch=1 n=f5 v=0
180618 On ch=1 n=f6 v=0
180812 Par ch=1 c=64 v=63
180844 On ch=1 n=g5 v=73
180852 On ch=1 n=e6 v=70
180852 Par ch=1 c=64 v=0
180858 On ch=1 n=g6 v=65
180858 On ch=1 n=c5 v=63
180914 On ch=1 n=g6 v=0
180914 On ch=1 n=e6 v=0
180922 On ch=1 n=c5 v=0
180922 On ch=1 n=g5 v=0
181266 On ch=1 n=g6 v=81
181268 On ch=1 n=e6 v=80
181276 On ch=1 n=g5 v=71
181278 On ch=1 n=c5 v=81
181328 On ch=1 n=e6 v=0
181336 On ch=1 n=g5 v=0
181338 On ch=1 n=g6 v=0
181354 On ch=1 n=c5 v=0
181692 On ch=1 n=g6 v=94
181692 On ch=1 n=g5 v=77
181696 On ch=1 n=e6 v=93
181698 On ch=1 n=c5 v=81
181750 On ch=1 n=g5 v=0
181752 On ch=1 n=e6 v=0
181758 On ch=1 n=c5 v=0
181762 On ch=1 n=g6 v=0
182110 On ch=1 n=g5 v=64
182112 On ch=1 n=g6 v=99
182114 On ch=1 n=c5 v=71
182122 On ch=1 n=e6 v=90
182152 Par ch=1 c=64 v=63
182176 Par ch=1 c=64 v=127
182202 On ch=1 n=e6 v=0
182202 On ch=1 n=c5 v=0
182224 On ch=1 n=g5 v=0
182228 On ch=1 n=g6 v=0
182524 On ch=1 n=a6 v=84
182526 Par ch=1 c=64 v=63
182526 On ch=1 n=f5 v=63
182528 On ch=1 n=f6 v=79
182530 On ch=1 n=a5 v=58
182556 Par ch=1 c=64 v=0
182570 On ch=1 n=f6 v=0
182580 On ch=1 n=f5 v=0
182602 On ch=1 n=a6 v=0
182624 On ch=1 n=a5 v=0
182926 Par ch=1 c=64 v=63
182928 On ch=1 n=a5 v=60
182940 On ch=1 n=c7 v=106
182946 On ch=1 n=c6 v=58
182954 Par ch=1 c=64 v=127
183040 On ch=1 n=c7 v=0
183046 On ch=1 n=d7 v=73
183136 On ch=1 n=c7 v=81
183144 On ch=1 n=d7 v=0
183172 On ch=1 n=c6 v=0
183180 On ch=1 n=a5 v=0
183224 On ch=1 n=a#5 v=75
183234 Par ch=1 c=64 v=63
183240 On ch=1 n=a#6 v=96
183248 On ch=1 n=g5 v=51
183274 On ch=1 n=c7 v=0
183282 Par ch=1 c=64 v=0
183324 On ch=1 n=a5 v=90
183328 On ch=1 n=a#5 v=0
183336 On ch=1 n=a6 v=90
183340 On ch=1 n=a#6 v=0
183344 On ch=1 n=f5 v=79
183394 On ch=1 n=g5 v=0
183404 On ch=1 n=a5 v=0
183410 On ch=1 n=a6 v=0
183440 On ch=1 n=f5 v=0
183746 On ch=1 n=a5 v=67
183748 On ch=1 n=a6 v=94
183760 On ch=1 n=f5 v=53
183796 On ch=1 n=a5 v=0
183820 On ch=1 n=a6 v=0
183838 On ch=1 n=f5 v=0
184118 Par ch=1 c=64 v=63
184140 On ch=1 n=a5 v=70
184142 Par ch=1 c=64 v=127
184148 On ch=1 n=f5 v=68
184150 On ch=1 n=a6 v=92
184204 On ch=1 n=f5 v=0
184206 On ch=1 n=a5 v=0
184228 On ch=1 n=a6 v=0
184242 On ch=1 n=a#6 v=89
184346 On ch=1 n=a#6 v=0
184348 On ch=1 n=a6 v=68
184444 On ch=1 n=g5 v=63
184450 Par ch=1 c=64 v=63
184452 On ch=1 n=a6 v=0
184454 On ch=1 n=c5 v=70
184468 On ch=1 n=g6 v=76
184510 Par ch=1 c=64 v=0
184526 On ch=1 n=g5 v=0
184538 On ch=1 n=f5 v=60
184546 On ch=1 n=g6 v=0
184572 On ch=1 n=f6 v=89
184576 On ch=1 n=c5 v=0
184576 On ch=1 n=a4 v=39
184610 On ch=1 n=f5 v=0
184616 On ch=1 n=f6 v=0
184646 On ch=1 n=a4 v=0
184968 On ch=1 n=f6 v=88
184970 On ch=1 n=f5 v=65
184974 On ch=1 n=a4 v=41
185026 On ch=1 n=f6 v=0
185050 On ch=1 n=f5 v=0
185070 On ch=1 n=a4 v=0
185338 Par ch=1 c=64 v=63
185364 On ch=1 n=f6 v=100
185368 Par ch=1 c=64 v=127
185380 On ch=1 n=a4 v=48
185384 On ch=1 n=f5 v=65
185450 On ch=1 n=f6 v=0
185466 On ch=1 n=a4 v=0
185502 On ch=1 n=f5 v=0
185790 On ch=1 n=g6 v=86
185802 On ch=1 n=g5 v=51
185808 On ch=1 n=c5 v=59
185856 Par ch=1 c=64 v=63
185884 Par ch=1 c=64 v=0
186048 Par ch=1 c=64 v=63
186072 Par ch=1 c=64 v=127
186146 Par ch=1 c=64 v=63
186174 Par ch=1 c=64 v=0
186182 On ch=1 n=a#6 v=91
186220 On ch=1 n=g6 v=0
186226 On ch=1 n=c5 v=0
186228 On ch=1 n=g5 v=0
186266 On ch=1 n=a#6 v=0
186618 On ch=1 n=e6 v=89
186620 On ch=1 n=a#5 v=79
186626 On ch=1 n=c5 v=63
186636 On ch=1 n=g5 v=60
186642 Par ch=1 c=64 v=63
186648 Par ch=1 c=64 v=127
186772 On ch=1 n=a#5 v=0
186810 On ch=1 n=g5 v=0
186822 On ch=1 n=c5 v=0
186898 On ch=1 n=e6 v=0
187070 On ch=1 n=f5 v=60
187082 On ch=1 n=f6 v=77
187084 On ch=1 n=a5 v=53
187110 Par ch=1 c=64 v=63
187124 Par ch=1 c=64 v=0
187422 On ch=1 n=a5 v=0
187436 On ch=1 n=f5 v=0
187444 On ch=1 n=f6 v=0
187912 On ch=1 n=a#5 v=64
187914 On ch=1 n=c7 v=83
187924 On ch=1 n=e5 v=69
187930 On ch=1 n=c5 v=58
187944 Par ch=1 c=64 v=63
187954 Par ch=1 c=64 v=127
188200 On ch=1 n=a#5 v=0
188280 On ch=1 n=e5 v=0
188356 On ch=1 n=f5 v=49
188362 On ch=1 n=f6 v=68
188366 On ch=1 n=c5 v=0
188372 On ch=1 n=c7 v=0
188378 On ch=1 n=a5 v=38
188418 Par ch=1 c=64 v=63
188448 Par ch=1 c=64 v=0
188680 On ch=1 n=f6 v=0
188708 On ch=1 n=a5 v=0
188724 On ch=1 n=f5 v=0
189234 On ch=1 n=c6 v=68
189240 On ch=1 n=a#4 v=58
189240 On ch=1 n=c4 v=55
189240 On ch=1 n=e4 v=68
189292 Par ch=1 c=64 v=63
189312 Par ch=1 c=64 v=127
189556 On ch=1 n=a#4 v=0
189644 On ch=1 n=c4 v=0
189646 On ch=1 n=e4 v=0
189694 On ch=1 n=f5 v=62
189696 On ch=1 n=f4 v=49
189702 On ch=1 n=a4 v=35
189732 On ch=1 n=c6 v=0
189736 Par ch=1 c=64 v=63
189766 Par ch=1 c=64 v=0
190068 On ch=1 n=a4 v=0
190118 On ch=1 n=f5 v=0
190128 On ch=1 n=f4 v=0
190574 On ch=1 n=c#3 v=103
190578 On ch=1 n=c#5 v=121
190580 On ch=1 n=c#4 v=112
190636 Par ch=1 c=64 v=63
190638 Par ch=1 c=64 v=127
190706 On ch=1 n=c#4 v=0
190714 On ch=1 n=c#3 v=0
190764 On ch=1 n=c#5 v=0
191044 On ch=1 n=d3 v=102
191048 Par ch=1 c=64 v=63
191056 Par ch=1 c=64 v=0
191072 On ch=1 n=d4 v=118
191074 On ch=1 n=d5 v=117
191144 Par ch=1 c=64 v=63
191154 Par ch=1 c=64 v=127
191176 On ch=1 n=d3 v=0
191252 On ch=1 n=d4 v=0
191362 On ch=1 n=d5 v=0
191366 On ch=1 n=f4 v=83
191524 On ch=1 n=f4 v=0
191548 On ch=1 n=a4 v=90
191766 On ch=1 n=f5 v=92
191768 On ch=1 n=a4 v=0
191780 On ch=1 n=f4 v=57
191840 On ch=1 n=a5 v=89
191854 On ch=1 n=f5 v=0
191908 On ch=1 n=d6 v=98
191922 On ch=1 n=f4 v=0
191938 On ch=1 n=a5 v=0
191942 On ch=1 n=a4 v=50
191982 On ch=1 n=d6 v=0
192116 On ch=1 n=a4 v=0
192126 On ch=1 n=a5 v=85
192134 On ch=1 n=f4 v=61
192206 On ch=1 n=d6 v=102
192228 On ch=1 n=a5 v=0
192280 On ch=1 n=f6 v=102
192288 Par ch=1 c=64 v=63
192294 On ch=1 n=d4 v=83
192312 On ch=1 n=d6 v=0
192316 On ch=1 n=f4 v=0
192374 Par ch=1 c=64 v=127
192388 On ch=1 n=f6 v=0
192506 On ch=1 n=d6 v=92
192506 On ch=1 n=f4 v=83
192556 On ch=1 n=f6 v=102
192596 On ch=1 n=d6 v=0
192658 On ch=1 n=a6 v=104
192662 On ch=1 n=a4 v=99
192690 On ch=1 n=f4 v=0
192698 On ch=1 n=f6 v=0
192748 On ch=1 n=a6 v=0
192864 On ch=1 n=f4 v=85
192866 On ch=1 n=a6 v=112
192904 On ch=1 n=a4 v=0
193050 On ch=1 n=f4 v=0
193058 On ch=1 n=f6 v=101
193084 On ch=1 n=a4 v=52
193170 On ch=1 n=a6 v=0
193236 On ch=1 n=d4 v=0
193238 On ch=1 n=f6 v=0
193250 On ch=1 n=d6 v=84
193258 On ch=1 n=f4 v=65
193274 On ch=1 n=a4 v=0
193302 On ch=1 n=f4 v=0
193326 On ch=1 n=d6 v=0
193458 Par ch=1 c=64 v=63
193466 Par ch=1 c=64 v=0
193488 On ch=1 n=e3 v=94
193488 On ch=1 n=c#6 v=106
193504 On ch=1 n=e6 v=99
193514 On ch=1 n=g6 v=101
193524 On ch=1 n=e4 v=113
193534 Par ch=1 c=64 v=63
193546 Par ch=1 c=64 v=127
193554 On ch=1 n=a#6 v=110
193586 On ch=1 n=e3 v=0
193598 On ch=1 n=e4 v=0
193640 On ch=1 n=c#6 v=0
193644 On ch=1 n=e6 v=0
193712 On ch=1 n=g6 v=0
193968 On ch=1 n=e4 v=73
193970 On ch=1 n=c#5 v=103
193970 On ch=1 n=g4 v=54
193972 On ch=1 n=a#4 v=84
193992 On ch=1 n=a#6 v=0
194010 On ch=1 n=a#4 v=0
194018 On ch=1 n=c#5 v=0
194022 On ch=1 n=g4 v=0
194034 On ch=1 n=e4 v=0
194190 On ch=1 n=a6 v=93
194274 On ch=1 n=g6 v=91
194344 On ch=1 n=a6 v=0
194358 On ch=1 n=f6 v=91
194416 On ch=1 n=g6 v=0
194438 On ch=1 n=e6 v=94
194468 Par ch=1 c=64 v=63
194476 On ch=1 n=f6 v=0
194520 Par ch=1 c=64 v=0
194530 On ch=1 n=d6 v=89
194532 On ch=1 n=e6 v=0
194626 On ch=1 n=c#6 v=106
194638 On ch=1 n=d6 v=0
194726 On ch=1 n=c#6 v=0
194728 On ch=1 n=e3 v=91
194738 Par ch=1 c=64 v=63
194748 On ch=1 n=a#6 v=113
194748 Par ch=1 c=64 v=127
194750 On ch=1 n=e4 v=109
194798 On ch=1 n=e3 v=0
194818 On ch=1 n=e4 v=0
195154 On ch=1 n=e4 v=92
195162 On ch=1 n=g4 v=82
195166 On ch=1 n=c#5 v=110
195170 On ch=1 n=a#4 v=94
195174 On ch=1 n=a#6 v=0
195204 On ch=1 n=a#4 v=0
195216 On ch=1 n=c#5 v=0
195220 On ch=1 n=e4 v=0
195224 On ch=1 n=g4 v=0
195398 On ch=1 n=a6 v=87
195472 On ch=1 n=g6 v=88
195534 On ch=1 n=a6 v=0
195560 On ch=1 n=f6 v=87
195612 On ch=1 n=g6 v=0
195644 On ch=1 n=e6 v=88
195684 On ch=1 n=f6 v=0
195710 Par ch=1 c=64 v=63
195726 Par ch=1 c=64 v=0
195726 On ch=1 n=d6 v=84
195736 On ch=1 n=e6 v=0
195828 On ch=1 n=d6 v=0
195836 On ch=1 n=c#6 v=99
195892 On ch=1 n=c#6 v=0
195944 On ch=1 n=d6 v=103
195952 Par ch=1 c=64 v=63
195958 Par ch=1 c=64 v=127
195964 On ch=1 n=f4 v=80
196142 On ch=1 n=a4 v=57
196170 On ch=1 n=d6 v=0
196324 On ch=1 n=d5 v=84
196328 On ch=1 n=a4 v=0
196506 On ch=1 n=d5 v=0
196540 On ch=1 n=f5 v=83
196560 On ch=1 n=a4 v=48
196608 On ch=1 n=a5 v=93
196628 On ch=1 n=f5 v=0
196652 On ch=1 n=f4 v=0
196678 On ch=1 n=d6 v=93
196694 On ch=1 n=a5 v=0
196720 On ch=1 n=d5 v=71
196730 On ch=1 n=a4 v=0
196754 On ch=1 n=d6 v=0
196890 On ch=1 n=a5 v=84
196902 On ch=1 n=d5 v=0
196906 On ch=1 n=a4 v=72
196944 On ch=1 n=d6 v=100
196972 On ch=1 n=a5 v=0
196994 Par ch=1 c=64 v=63
197012 Par ch=1 c=64 v=0
197032 On ch=1 n=f6 v=109
197058 On ch=1 n=d6 v=0
197064 On ch=1 n=f4 v=94
197100 On ch=1 n=a4 v=0
197130 On ch=1 n=f6 v=0
197142 Par ch=1 c=64 v=63
197162 Par ch=1 c=64 v=127
197248 On ch=1 n=d6 v=98
197250 On ch=1 n=a4 v=84
197312 On ch=1 n=f6 v=106
197344 On ch=1 n=d6 v=0
197400 On ch=1 n=a6 v=109
197414 On ch=1 n=d5 v=99
197446 On ch=1 n=f6 v=0
197446 On ch=1 n=a4 v=0
197498 On ch=1 n=a6 v=0
197602 On ch=1 n=a4 v=84
197604 On ch=1 n=a6 v=111
197638 On ch=1 n=d5 v=0
197816 On ch=1 n=a4 v=0
197818 On ch=1 n=f6 v=114
197834 On ch=1 n=a6 v=0
197846 On ch=1 n=d5 v=77
197968 On ch=1 n=f4 v=0
197974 On ch=1 n=d5 v=0
197984 On ch=1 n=d6 v=85
197990 On ch=1 n=f6 v=0
198004 On ch=1 n=a4 v=57
198058 On ch=1 n=a4 v=0
198072 On ch=1 n=d6 v=0
198128 Par ch=1 c=64 v=63
198142 Par ch=1 c=64 v=0
198234 On ch=1 n=f6 v=111
198236 On ch=1 n=b5 v=100
198236 On ch=1 n=d4 v=117
198240 On ch=1 n=d6 v=97
198242 On ch=1 n=d3 v=108
198246 On ch=1 n=g#6 v=114
198262 Par ch=1 c=64 v=63
198270 Par ch=1 c=64 v=127
198274 On ch=1 n=d3 v=0
198292 On ch=1 n=d4 v=0
198602 On ch=1 n=b5 v=0
198624 On ch=1 n=d6 v=0
198638 On ch=1 n=g#6 v=0
198656 On ch=1 n=d4 v=89
198658 On ch=1 n=f6 v=0
198658 On ch=1 n=b4 v=93
198658 On ch=1 n=g#4 v=98
198660 On ch=1 n=f4 v=84
198722 On ch=1 n=f4 v=0
198722 On ch=1 n=b4 v=0
198726 On ch=1 n=g#4 v=0
198748 On ch=1 n=d4 v=0
198886 On ch=1 n=g6 v=97
198960 On ch=1 n=f6 v=96
199018 On ch=1 n=g6 v=0
199048 On ch=1 n=d#6 v=101
199074 Par ch=1 c=64 v=63
199084 On ch=1 n=f6 v=0
199100 Par ch=1 c=64 v=0
199128 On ch=1 n=d6 v=88
199156 On ch=1 n=d#6 v=0
199208 On ch=1 n=d6 v=0
199214 On ch=1 n=c6 v=81
199294 On ch=1 n=b5 v=99
199312 On ch=1 n=c6 v=0
199376 On ch=1 n=b5 v=0
199418 On ch=1 n=d3 v=99
199434 On ch=1 n=g#6 v=108
199444 On ch=1 n=d4 v=116
199448 Par ch=1 c=64 v=63
199450 Par ch=1 c=64 v=127
199494 On ch=1 n=d3 v=0
199508 On ch=1 n=d4 v=0
199844 On ch=1 n=d4 v=101
199848 On ch=1 n=g#6 v=0
199848 On ch=1 n=b4 v=109
199852 On ch=1 n=f4 v=93
199854 On ch=1 n=g#4 v=104
199908 On ch=1 n=f4 v=0
199916 On ch=1 n=g#4 v=0
199918 On ch=1 n=b4 v=0
199924 On ch=1 n=d4 v=0
200082 On ch=1 n=g6 v=96
200150 On ch=1 n=f6 v=90
200210 On ch=1 n=g6 v=0
200248 On ch=1 n=d#6 v=99
200280 On ch=1 n=f6 v=0
200324 On ch=1 n=d6 v=89
200358 On ch=1 n=d#6 v=0
200390 Par ch=1 c=64 v=63
200400 Par ch=1 c=64 v=0
200402 On ch=1 n=c6 v=99
200416 On ch=1 n=d6 v=0
200494 On ch=1 n=b5 v=99
200498 On ch=1 n=c6 v=0
200594 On ch=1 n=c6 v=112
200606 On ch=1 n=d#4 v=104
200624 On ch=1 n=b5 v=0
200640 Par ch=1 c=64 v=63
200644 Par ch=1 c=64 v=127
200802 On ch=1 n=c6 v=0
200810 On ch=1 n=g4 v=78
200830 On ch=1 n=d#4 v=0
201004 On ch=1 n=c5 v=70
201010 On ch=1 n=g4 v=0
201210 On ch=1 n=c5 v=0
201218 On ch=1 n=g4 v=51
201226 On ch=1 n=d#5 v=81
201292 On ch=1 n=d#5 v=0
201302 On ch=1 n=g5 v=73
201352 On ch=1 n=g4 v=0
201374 On ch=1 n=g5 v=0
201378 On ch=1 n=c6 v=94
201388 On ch=1 n=c5 v=52
201454 On ch=1 n=c6 v=0
201574 On ch=1 n=c5 v=0
201578 On ch=1 n=g4 v=75
201584 On ch=1 n=g5 v=88
201656 On ch=1 n=c6 v=96
201672 On ch=1 n=g5 v=0
201730 On ch=1 n=d#6 v=108
201750 On ch=1 n=d#4 v=107
201758 On ch=1 n=c6 v=0
201792 On ch=1 n=g4 v=0
201818 On ch=1 n=d#6 v=0
201946 On ch=1 n=c6 v=101
201948 On ch=1 n=g4 v=92
202008 On ch=1 n=d#6 v=112
202024 Par ch=1 c=64 v=63
202036 On ch=1 n=c6 v=0
202060 Par ch=1 c=64 v=0
202108 On ch=1 n=c5 v=107
202110 On ch=1 n=g6 v=111
202140 On ch=1 n=d#6 v=0
202158 On ch=1 n=g4 v=0
202202 On ch=1 n=g6 v=0
202210 On ch=1 n=d#4 v=0
202312 On ch=1 n=g4 v=101
202316 On ch=1 n=g6 v=117
202360 On ch=1 n=c5 v=0
202508 On ch=1 n=d#6 v=116
202522 On ch=1 n=c5 v=94
202550 On ch=1 n=g4 v=0
202596 On ch=1 n=g6 v=0
202688 On ch=1 n=g4 v=93
202688 On ch=1 n=c6 v=90
202694 On ch=1 n=c5 v=0
202702 On ch=1 n=d#6 v=0
202752 On ch=1 n=g4 v=0
202766 On ch=1 n=c6 v=0
202898 On ch=1 n=a5 v=89
202928 On ch=1 n=d#3 v=121
202930 On ch=1 n=c6 v=101
202956 On ch=1 n=d#6 v=113
202964 Par ch=1 c=64 v=127
202974 On ch=1 n=f#6 v=114
203002 On ch=1 n=a5 v=0
203020 On ch=1 n=d#3 v=0
203032 On ch=1 n=c6 v=0
203130 On ch=1 n=d#6 v=0
203356 On ch=1 n=f#6 v=0
203374 On ch=1 n=f#4 v=105
203378 On ch=1 n=c5 v=111
203380 On ch=1 n=d#4 v=99
203386 On ch=1 n=a4 v=90
203430 On ch=1 n=a4 v=0
203434 On ch=1 n=c5 v=0
203458 On ch=1 n=f#4 v=0
203460 On ch=1 n=d#4 v=0
203614 On ch=1 n=f6 v=102
203702 On ch=1 n=d#6 v=106
203742 On ch=1 n=f6 v=0
203780 Par ch=1 c=64 v=63
203786 On ch=1 n=c#6 v=108
203794 Par ch=1 c=64 v=0
203842 On ch=1 n=d#6 v=0
203878 On ch=1 n=c6 v=90
203882 On ch=1 n=c#6 v=0
203960 On ch=1 n=a#5 v=107
203984 On ch=1 n=c6 v=0
204046 On ch=1 n=a5 v=96
204070 On ch=1 n=a#5 v=0
204130 On ch=1 n=a5 v=0
204142 On ch=1 n=d#3 v=126
204144 Par ch=1 c=64 v=127
204176 On ch=1 n=f#6 v=114
204198 On ch=1 n=d#3 v=0
204512 On ch=1 n=f#6 v=0
204564 On ch=1 n=d#4 v=99
204568 On ch=1 n=c5 v=106
204570 On ch=1 n=a4 v=89
204576 On ch=1 n=f#4 v=86
204622 On ch=1 n=c5 v=0
204628 On ch=1 n=a4 v=0
204640 On ch=1 n=d#4 v=0
204642 On ch=1 n=f#4 v=0
204796 On ch=1 n=f6 v=91
204896 On ch=1 n=d#6 v=101
204926 On ch=1 n=f6 v=0
204978 On ch=1 n=c#6 v=99
205016 On ch=1 n=d#6 v=0
205068 On ch=1 n=c#6 v=0
205070 On ch=1 n=c6 v=77
205146 On ch=1 n=a#5 v=105
205160 On ch=1 n=c6 v=0
205192 Par ch=1 c=64 v=63
205210 Par ch=1 c=64 v=0
205226 On ch=1 n=a5 v=96
205250 On ch=1 n=a#5 v=0
205332 On ch=1 n=a#5 v=110
205334 On ch=1 n=a5 v=0
205342 On ch=1 n=c#4 v=84
205374 Par ch=1 c=64 v=63
205390 Par ch=1 c=64 v=127
205484 On ch=1 n=a#5 v=0
205514 On ch=1 n=c#4 v=0
205540 On ch=1 n=f4 v=71
205692 On ch=1 n=f4 v=0
205720 On ch=1 n=a#4 v=77
205832 On ch=1 n=f5 v=92
205874 On ch=1 n=a#4 v=0
205920 On ch=1 n=f5 v=0
205922 On ch=1 n=a#5 v=103
205932 On ch=1 n=f4 v=57
206004 On ch=1 n=f5 v=93
206008 On ch=1 n=a#5 v=0
206046 On ch=1 n=f4 v=0
206072 On ch=1 n=a#4 v=58
206092 On ch=1 n=f5 v=0
206108 On ch=1 n=c#6 v=110
206174 On ch=1 n=a#4 v=0
206188 On ch=1 n=f4 v=60
206190 On ch=1 n=a#5 v=105
206198 On ch=1 n=c#6 v=0
206282 On ch=1 n=c#6 v=108
206288 On ch=1 n=a#5 v=0
206368 On ch=1 n=a#5 v=113
206392 On ch=1 n=c#6 v=0
206438 On ch=1 n=c#4 v=74
206440 On ch=1 n=f4 v=0
206456 On ch=1 n=a#5 v=0
206466 On ch=1 n=f6 v=98
206572 On ch=1 n=c#6 v=107
206588 On ch=1 n=f6 v=0
206638 On ch=1 n=f4 v=62
206644 On ch=1 n=c#4 v=0
206668 On ch=1 n=c#6 v=0
206668 On ch=1 n=f6 v=85
206752 On ch=1 n=c#6 v=91
206772 On ch=1 n=f6 v=0
206786 On ch=1 n=c#6 v=0
206844 On ch=1 n=f4 v=0
206860 On ch=1 n=a#6 v=113
206872 On ch=1 n=a#4 v=77
206924 On ch=1 n=a#6 v=0
207026 On ch=1 n=a#4 v=0
207054 On ch=1 n=f4 v=66
207246 On ch=1 n=f4 v=0
207248 On ch=1 n=a#4 v=67
207368 On ch=1 n=a#4 v=0
207440 On ch=1 n=f4 v=64
207510 Par ch=1 c=64 v=63
207542 Par ch=1 c=64 v=0
207678 On ch=1 n=f4 v=0
207678 On ch=1 n=c4 v=63
207692 On ch=1 n=a5 v=80
207718 Par ch=1 c=64 v=63
207734 Par ch=1 c=64 v=127
207872 On ch=1 n=a5 v=0
207904 On ch=1 n=f4 v=59
207926 On ch=1 n=c4 v=0
208080 On ch=1 n=f4 v=0
208092 On ch=1 n=a4 v=62
208188 On ch=1 n=f5 v=79
208290 On ch=1 n=a4 v=0
208292 On ch=1 n=f5 v=0
208292 On ch=1 n=a5 v=77
208294 On ch=1 n=f4 v=63
208380 On ch=1 n=f5 v=87
208388 On ch=1 n=a5 v=0
208420 On ch=1 n=f4 v=0
208458 On ch=1 n=f5 v=0
208464 On ch=1 n=a4 v=84
208466 On ch=1 n=c6 v=82
208556 On ch=1 n=c6 v=0
208574 On ch=1 n=a5 v=81
208592 On ch=1 n=a4 v=0
208602 On ch=1 n=f4 v=59
208656 On ch=1 n=c6 v=87
208666 On ch=1 n=a5 v=0
208730 On ch=1 n=c6 v=0
208744 On ch=1 n=a5 v=88
208808 On ch=1 n=c4 v=72
208818 On ch=1 n=f4 v=0
208828 On ch=1 n=a5 v=0
208840 On ch=1 n=f6 v=93
208940 On ch=1 n=f6 v=0
208944 On ch=1 n=c6 v=80
209006 On ch=1 n=f4 v=62
209034 On ch=1 n=c6 v=0
209038 On ch=1 n=f6 v=84
209132 On ch=1 n=c6 v=84
209138 On ch=1 n=f6 v=0
209214 On ch=1 n=c6 v=0
209234 On ch=1 n=a6 v=91
209246 On ch=1 n=a4 v=54
209250 On ch=1 n=f4 v=0
209314 On ch=1 n=a6 v=0
209316 On ch=1 n=c4 v=0
209452 On ch=1 n=f4 v=60
209454 On ch=1 n=a4 v=0
209648 On ch=1 n=f4 v=0
209676 On ch=1 n=a4 v=45
209846 Par ch=1 c=64 v=63
209850 On ch=1 n=f4 v=60
209872 On ch=1 n=a4 v=0
209904 Par ch=1 c=64 v=0
210064 On ch=1 n=f4 v=0
210094 On ch=1 n=b3 v=92
210118 On ch=1 n=g#5 v=101
210214 Par ch=1 c=64 v=127
210364 On ch=1 n=f4 v=74
210552 On ch=1 n=g#5 v=0
210556 On ch=1 n=b3 v=0
210556 On ch=1 n=g#4 v=83
210586 On ch=1 n=f4 v=0
210648 On ch=1 n=f5 v=85
210752 On ch=1 n=g#4 v=0
210754 On ch=1 n=g#5 v=96
210760 On ch=1 n=f5 v=0
210772 On ch=1 n=f4 v=66
210834 On ch=1 n=f5 v=87
210858 On ch=1 n=g#5 v=0
210936 On ch=1 n=d6 v=103
210938 On ch=1 n=f5 v=0
210938 On ch=1 n=f4 v=0
210956 On ch=1 n=g#4 v=80
211040 On ch=1 n=g#5 v=109
211064 On ch=1 n=d6 v=0
211114 On ch=1 n=g#4 v=0
211134 On ch=1 n=d6 v=98
211150 On ch=1 n=g#5 v=0
211156 On ch=1 n=f4 v=67
211226 On ch=1 n=g#5 v=100
211250 On ch=1 n=d6 v=0
211296 On ch=1 n=g#5 v=0
211322 On ch=1 n=f6 v=112
211342 On ch=1 n=b3 v=86
211364 On ch=1 n=f4 v=0
211404 On ch=1 n=f6 v=0
211440 On ch=1 n=d6 v=99
211522 On ch=1 n=d6 v=0
211540 On ch=1 n=f6 v=99
211552 On ch=1 n=f4 v=68
211572 On ch=1 n=b3 v=0
211620 On ch=1 n=f6 v=0
211620 On ch=1 n=d6 v=97
211736 On ch=1 n=d6 v=0
211748 On ch=1 n=g#4 v=85
211752 On ch=1 n=g#6 v=110
211758 On ch=1 n=f4 v=0
211948 On ch=1 n=g#4 v=0
211964 On ch=1 n=f4 v=82
212126 On ch=1 n=g#6 v=0
212160 On ch=1 n=g#4 v=77
212168 On ch=1 n=f6 v=109
212172 On ch=1 n=f4 v=0
212258 On ch=1 n=f6 v=0
212284 On ch=1 n=g#4 v=0
212350 On ch=1 n=f4 v=67
212466 On ch=1 n=c6 v=71
212526 Par ch=1 c=64 v=63
212530 On ch=1 n=e6 v=89
212538 Par ch=1 c=64 v=0
212572 On ch=1 n=c6 v=0
212590 On ch=1 n=g6 v=98
212596 On ch=1 n=c4 v=84
212614 On ch=1 n=f4 v=0
212616 On ch=1 n=e6 v=0
212624 On ch=1 n=c7 v=107
212662 Par ch=1 c=64 v=63
212674 On ch=1 n=g6 v=0
212680 Par ch=1 c=64 v=127
212864 On ch=1 n=e4 v=84
213068 On ch=1 n=g4 v=90
213162 On ch=1 n=e4 v=0
213246 On ch=1 n=c5 v=102
213250 On ch=1 n=c4 v=0
213268 On ch=1 n=c7 v=0
213310 On ch=1 n=g4 v=0
213460 On ch=1 n=a#6 v=106
213464 On ch=1 n=f4 v=82
213470 On ch=1 n=c5 v=0
213558 On ch=1 n=g#6 v=105
213560 Par ch=1 c=64 v=63
213598 On ch=1 n=a#6 v=0
213620 Par ch=1 c=64 v=0
213640 On ch=1 n=g6 v=96
213644 On ch=1 n=g#4 v=90
213684 On ch=1 n=f4 v=0
213710 On ch=1 n=g#6 v=0
213726 On ch=1 n=f6 v=100
213764 On ch=1 n=g6 v=0
213804 On ch=1 n=g#4 v=0
213826 On ch=1 n=f6 v=0
213840 On ch=1 n=c7 v=116
213846 On ch=1 n=c4 v=100
213892 Par ch=1 c=64 v=63
213914 Par ch=1 c=64 v=127
214054 On ch=1 n=e4 v=93
214064 On ch=1 n=c4 v=0
214250 On ch=1 n=g4 v=101
214284 On ch=1 n=e4 v=0
214436 On ch=1 n=c5 v=100
214448 On ch=1 n=g4 v=0
214464 On ch=1 n=c7 v=0
214656 On ch=1 n=a#6 v=106
214662 On ch=1 n=f4 v=96
214688 On ch=1 n=c5 v=0
214734 Par ch=1 c=64 v=63
214746 On ch=1 n=g#6 v=105
214782 On ch=1 n=a#6 v=0
214836 On ch=1 n=g#4 v=85
214848 On ch=1 n=g6 v=92
214878 On ch=1 n=f4 v=0
214886 On ch=1 n=g#6 v=0
214892 Par ch=1 c=64 v=0
214932 On ch=1 n=f6 v=94
214950 On ch=1 n=g6 v=0
215020 On ch=1 n=f6 v=0
215060 On ch=1 n=g#4 v=0
215082 Par ch=1 c=64 v=63
215096 Par ch=1 c=64 v=127
215108 On ch=1 n=c6 v=118
215112 On ch=1 n=c5 v=113
215166 On ch=1 n=c6 v=0
215184 On ch=1 n=c5 v=0
215818 On ch=1 n=c#5 v=99
215822 On ch=1 n=c#6 v=106
215874 Par ch=1 c=64 v=63
215896 On ch=1 n=c#5 v=0
215896 Par ch=1 c=64 v=0
215900 On ch=1 n=c6 v=89
215904 On ch=1 n=c#6 v=0
215906 On ch=1 n=c5 v=97
215984 On ch=1 n=c6 v=0
216004 On ch=1 n=a#4 v=91
216014 On ch=1 n=c5 v=0
216022 On ch=1 n=a#5 v=91
216080 On ch=1 n=g#4 v=98
216106 On ch=1 n=g#5 v=97
216108 On ch=1 n=a#4 v=0
216124 On ch=1 n=a#5 v=0
216176 On ch=1 n=g#4 v=0
216196 On ch=1 n=g5 v=90
216202 On ch=1 n=g4 v=55
216218 On ch=1 n=g#5 v=0
216298 On ch=1 n=f5 v=89
216302 On ch=1 n=g5 v=0
216314 On ch=1 n=f4 v=87
216326 On ch=1 n=g4 v=0
216390 On ch=1 n=f5 v=0
216410 On ch=1 n=c6 v=107
216428 On ch=1 n=f4 v=0
216434 On ch=1 n=c5 v=106
216474 On ch=1 n=c6 v=0
216494 On ch=1 n=c5 v=0
216930 On ch=1 n=c3 v=94
216934 On ch=1 n=c4 v=90
216936 On ch=1 n=c5 v=88
216998 On ch=1 n=c5 v=0
216998 On ch=1 n=c3 v=0
217002 On ch=1 n=c4 v=0
217962 On ch=1 n=f3 v=55
217970 Par ch=1 c=64 v=63
217988 Par ch=1 c=64 v=127
218058 On ch=1 n=c4 v=45
218152 On ch=1 n=f3 v=0
218156 On ch=1 n=f4 v=40
218230 On ch=1 n=c4 v=0
218234 On ch=1 n=c5 v=32
218278 On ch=1 n=f4 v=0
218318 On ch=1 n=a5 v=60
218326 On ch=1 n=c5 v=0
218432 On ch=1 n=a5 v=0
218786 Par ch=1 c=64 v=63
218808 Par ch=1 c=64 v=0
218842 On ch=1 n=a5 v=52
218906 On ch=1 n=a5 v=0
219292 On ch=1 n=a5 v=55
219394 On ch=1 n=a5 v=0
219434 Par ch=1 c=64 v=63
219518 Par ch=1 c=64 v=127
219586 On ch=1 n=c4 v=43
219656 On ch=1 n=g4 v=33
219712 On ch=1 n=e5 v=57
219752 On ch=1 n=a#4 v=35
219784 On ch=1 n=c6 v=79
219830 On ch=1 n=e5 v=0
219934 On ch=1 n=c4 v=0
220050 On ch=1 n=g4 v=0
220066 On ch=1 n=a#4 v=0
220118 On ch=1 n=c6 v=0
220438 On ch=1 n=a#5 v=83
220646 On ch=1 n=a#5 v=0
220656 On ch=1 n=g5 v=75
220680 Par ch=1 c=64 v=63
220762 Par ch=1 c=64 v=127
220830 On ch=1 n=g5 v=0
221082 On ch=1 n=f3 v=61
221120 On ch=1 n=g5 v=75
221128 On ch=1 n=a4 v=36
221154 Par ch=1 c=64 v=63
221244 Par ch=1 c=64 v=127
221328 On ch=1 n=f5 v=91
221392 On ch=1 n=a4 v=0
221414 On ch=1 n=g5 v=0
221476 On ch=1 n=f5 v=0
221552 On ch=1 n=f3 v=0
221566 On ch=1 n=f5 v=84
221576 On ch=1 n=a3 v=41
221584 On ch=1 n=c5 v=78
221734 Par ch=1 c=64 v=63
221832 Par ch=1 c=64 v=127
221940 On ch=1 n=f5 v=0
221992 On ch=1 n=c4 v=68
222044 On ch=1 n=a3 v=0
222094 On ch=1 n=c5 v=0
222172 On ch=1 n=g5 v=85
222186 On ch=1 n=e5 v=70
222202 On ch=1 n=c4 v=0
222298 On ch=1 n=e5 v=0
222328 On ch=1 n=g5 v=0
222410 On ch=1 n=g5 v=70
222432 On ch=1 n=f4 v=52
222434 On ch=1 n=e5 v=76
222530 Par ch=1 c=64 v=63
222570 Par ch=1 c=64 v=0
222848 On ch=1 n=f3 v=62
222864 On ch=1 n=f4 v=0
223080 Par ch=1 c=64 v=63
223114 Par ch=1 c=64 v=127
223148 Par ch=1 c=64 v=63
223182 On ch=1 n=e5 v=0
223192 Par ch=1 c=64 v=0
223214 On ch=1 n=g5 v=0
223268 Par ch=1 c=64 v=63
223292 On ch=1 n=a5 v=60
223302 Par ch=1 c=64 v=127
223320 On ch=1 n=f3 v=0
223320 On ch=1 n=f5 v=41
223484 On ch=1 n=f5 v=0
223518 On ch=1 n=a5 v=0
223648 Par ch=1 c=64 v=63
223680 Par ch=1 c=64 v=0
223814 On ch=1 n=d4 v=38
223822 On ch=1 n=a#5 v=80
223890 Par ch=1 c=64 v=63
223912 Par ch=1 c=64 v=127
224240 On ch=1 n=a#5 v=0
224292 On ch=1 n=a#4 v=49
224310 On ch=1 n=f4 v=47
224468 On ch=1 n=c6 v=64
224534 On ch=1 n=a#5 v=66
224544 On ch=1 n=c6 v=0
224590 On ch=1 n=a#5 v=0
224606 On ch=1 n=a5 v=68
224650 On ch=1 n=a#5 v=80
224680 On ch=1 n=a5 v=0
224730 On ch=1 n=c6 v=91
224746 Par ch=1 c=64 v=63
224752 On ch=1 n=a#4 v=0
224754 On ch=1 n=a#5 v=0
224754 On ch=1 n=f4 v=0
224792 Par ch=1 c=64 v=0
224840 On ch=1 n=d4 v=0
224932 On ch=1 n=d6 v=98
224982 On ch=1 n=c6 v=0
225002 Par ch=1 c=64 v=63
225020 Par ch=1 c=64 v=127
225068 On ch=1 n=d6 v=0
225136 On ch=1 n=d6 v=91
225140 On ch=1 n=e4 v=63
225172 Par ch=1 c=64 v=63
225206 Par ch=1 c=64 v=0
225338 On ch=1 n=c6 v=85
225394 On ch=1 n=d6 v=0
225542 Par ch=1 c=64 v=63
225546 On ch=1 n=b5 v=76
225560 Par ch=1 c=64 v=127
225566 On ch=1 n=c5 v=48
225576 On ch=1 n=g4 v=50
225584 On ch=1 n=c6 v=0
225744 On ch=1 n=b5 v=0
225758 On ch=1 n=c6 v=66
225960 On ch=1 n=a#5 v=73
225978 On ch=1 n=c5 v=0
225978 Par ch=1 c=64 v=63
225986 On ch=1 n=c6 v=0
225996 Par ch=1 c=64 v=0
226030 On ch=1 n=g4 v=0
226052 On ch=1 n=e4 v=0
226140 On ch=1 n=a#5 v=0
226154 On ch=1 n=g5 v=72
226360 On ch=1 n=g#5 v=83
226370 On ch=1 n=f4 v=69
226372 On ch=1 n=g5 v=0
226400 Par ch=1 c=64 v=63
226412 Par ch=1 c=64 v=127
226522 On ch=1 n=g#5 v=0
226534 On ch=1 n=a5 v=69
226550 On ch=1 n=f4 v=0
226688 Par ch=1 c=64 v=63
226714 Par ch=1 c=64 v=0
226730 On ch=1 n=a#5 v=88
226746 On ch=1 n=f4 v=65
226754 On ch=1 n=d4 v=69
226788 On ch=1 n=a5 v=0
226808 Par ch=1 c=64 v=63
226842 Par ch=1 c=64 v=127
226882 On ch=1 n=d4 v=0
226900 On ch=1 n=f4 v=0
226940 On ch=1 n=a5 v=81
226960 On ch=1 n=a#5 v=0
227076 Par ch=1 c=64 v=63
227096 Par ch=1 c=64 v=0
227134 On ch=1 n=c6 v=87
227142 On ch=1 n=g4 v=52
227144 On ch=1 n=a#3 v=65
227164 On ch=1 n=a5 v=0
227310 On ch=1 n=a#5 v=86
227324 On ch=1 n=a#3 v=0
227332 On ch=1 n=g4 v=0
227334 On ch=1 n=c6 v=0
227516 On ch=1 n=a5 v=76
227528 On ch=1 n=e4 v=63
227530 On ch=1 n=c4 v=51
227556 On ch=1 n=a#5 v=0
227714 On ch=1 n=g5 v=71
227764 On ch=1 n=a5 v=0
227764 Par ch=1 c=64 v=63
227774 Par ch=1 c=64 v=127
227934 On ch=1 n=g5 v=0
227934 On ch=1 n=f5 v=59
227948 On ch=1 n=e4 v=0
227972 On ch=1 n=c4 v=0
228110 On ch=1 n=f5 v=0
228144 On ch=1 n=e5 v=57
228214 Par ch=1 c=64 v=63
228258 Par ch=1 c=64 v=0
228334 Par ch=1 c=64 v=63
228370 On ch=1 n=d5 v=52
228382 Par ch=1 c=64 v=127
228428 On ch=1 n=e5 v=0
228498 On ch=1 n=d5 v=0
228552 On ch=1 n=c5 v=48
228772 On ch=1 n=g#6 v=88
228784 On ch=1 n=f4 v=45
228784 On ch=1 n=g#5 v=61
228792 Par ch=1 c=64 v=63
228804 On ch=1 n=c5 v=0
228804 Par ch=1 c=64 v=127
228926 On ch=1 n=g#5 v=0
228954 On ch=1 n=g#6 v=0
228954 On ch=1 n=a4 v=49
229038 On ch=1 n=a6 v=81
229054 On ch=1 n=f4 v=0
229060 On ch=1 n=a5 v=53
229110 On ch=1 n=c5 v=44
229146 On ch=1 n=a6 v=0
229146 On ch=1 n=a4 v=0
229152 On ch=1 n=a5 v=0
229278 On ch=1 n=g#6 v=92
229282 On ch=1 n=c5 v=0
229282 On ch=1 n=g#5 v=76
229290 On ch=1 n=f4 v=44
229376 On ch=1 n=g#5 v=0
229388 On ch=1 n=g#6 v=0
229444 On ch=1 n=a4 v=49
229456 On ch=1 n=a6 v=84
229478 On ch=1 n=a5 v=82
229480 On ch=1 n=f4 v=0
229542 On ch=1 n=a5 v=0
229546 On ch=1 n=a6 v=0
229548 On ch=1 n=c5 v=51
229594 On ch=1 n=a4 v=0
229680 On ch=1 n=g#6 v=84
229680 On ch=1 n=g#5 v=99
229686 On ch=1 n=c5 v=0
229686 On ch=1 n=f4 v=65
229738 On ch=1 n=g#5 v=0
229776 On ch=1 n=g#6 v=0
229820 On ch=1 n=a4 v=51
229860 On ch=1 n=a6 v=90
229868 On ch=1 n=f4 v=0
229868 On ch=1 n=a5 v=82
229910 On ch=1 n=a5 v=0
229922 On ch=1 n=c5 v=68
229932 On ch=1 n=a6 v=0
229952 On ch=1 n=a4 v=0
230048 Par ch=1 c=64 v=63
230054 On ch=1 n=c5 v=0
230064 On ch=1 n=b5 v=103
230064 On ch=1 n=e4 v=75
230066 On ch=1 n=b6 v=102
230078 Par ch=1 c=64 v=127
230126 On ch=1 n=b5 v=0
230128 On ch=1 n=b6 v=0
230200 On ch=1 n=g4 v=65
230216 On ch=1 n=e4 v=0
230234 On ch=1 n=c7 v=98
230256 On ch=1 n=c6 v=55
230306 On ch=1 n=c7 v=0
230308 On ch=1 n=c6 v=0
230318 On ch=1 n=c5 v=70
230344 On ch=1 n=g4 v=0
230426 On ch=1 n=c5 v=0
230440 On ch=1 n=e4 v=76
230450 On ch=1 n=b6 v=102
230452 On ch=1 n=b5 v=89
230488 On ch=1 n=b5 v=0
230518 On ch=1 n=b6 v=0
230588 On ch=1 n=g4 v=51
230616 On ch=1 n=e4 v=0
230622 On ch=1 n=c6 v=79
230624 On ch=1 n=c7 v=81
230662 On ch=1 n=c7 v=0
230686 On ch=1 n=c6 v=0
230690 On ch=1 n=c5 v=65
230698 On ch=1 n=g4 v=0
230840 On ch=1 n=a#6 v=97
230846 On ch=1 n=e4 v=72
230854 On ch=1 n=c5 v=0
230858 Par ch=1 c=64 v=63
230884 Par ch=1 c=64 v=0
230968 Par ch=1 c=64 v=63
230996 Par ch=1 c=64 v=127
231010 On ch=1 n=a#4 v=74
231054 On ch=1 n=g6 v=89
231070 On ch=1 n=a#6 v=0
231076 On ch=1 n=e4 v=0
231136 On ch=1 n=c5 v=61
231178 On ch=1 n=g6 v=0
231202 On ch=1 n=a#4 v=0
231268 On ch=1 n=g6 v=87
231270 Par ch=1 c=64 v=63
231272 On ch=1 n=c5 v=0
231284 On ch=1 n=f4 v=42
231296 On ch=1 n=a4 v=66
231380 Par ch=1 c=64 v=127
231458 On ch=1 n=a4 v=0
231464 On ch=1 n=f6 v=91
231478 On ch=1 n=f4 v=0
231522 On ch=1 n=g6 v=0
231550 On ch=1 n=f6 v=0
231590 Par ch=1 c=64 v=63
231618 Par ch=1 c=64 v=0
231668 On ch=1 n=a4 v=76
231670 On ch=1 n=g6 v=93
231670 On ch=1 n=c6 v=89
231754 Par ch=1 c=64 v=63
231772 Par ch=1 c=64 v=127
231858 On ch=1 n=f6 v=97
231868 On ch=1 n=a4 v=0
231934 On ch=1 n=g6 v=0
232044 On ch=1 n=c6 v=0
232068 On ch=1 n=c5 v=86
232068 On ch=1 n=a6 v=97
232070 Par ch=1 c=64 v=63
232088 On ch=1 n=e6 v=85
232104 Par ch=1 c=64 v=0
232118 On ch=1 n=f6 v=0
232212 Par ch=1 c=64 v=63
232240 Par ch=1 c=64 v=127
232252 On ch=1 n=g6 v=103
232258 On ch=1 n=c5 v=0
232310 On ch=1 n=a6 v=0
232342 On ch=1 n=e6 v=0
232418 On ch=1 n=g6 v=0
232480 On ch=1 n=f5 v=71
232488 On ch=1 n=g6 v=85
232494 On ch=1 n=e6 v=60
232504 On ch=1 n=f6 v=65
232556 On ch=1 n=f6 v=0
232580 Par ch=1 c=64 v=63
232622 Par ch=1 c=64 v=0
232724 Par ch=1 c=64 v=63
232758 Par ch=1 c=64 v=127
232960 On ch=1 n=c5 v=70
232998 On ch=1 n=f5 v=0
233056 On ch=1 n=g6 v=0
233110 On ch=1 n=g#6 v=92
233324 On ch=1 n=c5 v=0
233340 On ch=1 n=g#6 v=0
233342 On ch=1 n=e6 v=0
233346 On ch=1 n=a6 v=74
233352 Par ch=1 c=64 v=63
233354 On ch=1 n=f4 v=44
233368 On ch=1 n=f6 v=59
233370 Par ch=1 c=64 v=0
233516 Par ch=1 c=64 v=63
233538 Par ch=1 c=64 v=127
233552 On ch=1 n=f4 v=0
233578 On ch=1 n=f6 v=0
233584 On ch=1 n=a6 v=0
233862 On ch=1 n=d5 v=54
233894 On ch=1 n=a#6 v=82
233950 Par ch=1 c=64 v=63
233972 Par ch=1 c=64 v=127
234132 On ch=1 n=f5 v=55
234180 On ch=1 n=d5 v=0
234312 On ch=1 n=f5 v=0
234328 On ch=1 n=a#5 v=67
234352 On ch=1 n=a#6 v=0
234430 On ch=1 n=c7 v=79
234474 On ch=1 n=a#5 v=0
234488 On ch=1 n=a#6 v=84
234524 On ch=1 n=c7 v=0
234532 On ch=1 n=f5 v=49
234570 On ch=1 n=a#6 v=0
234570 On ch=1 n=a6 v=76
234628 On ch=1 n=a#6 v=80
234662 Par ch=1 c=64 v=63
234674 On ch=1 n=a6 v=0
234690 On ch=1 n=d5 v=76
234710 On ch=1 n=f5 v=0
234714 On ch=1 n=c7 v=104
234742 Par ch=1 c=64 v=127
234782 On ch=1 n=a#6 v=0
234916 On ch=1 n=d7 v=102
234938 On ch=1 n=f5 v=69
234966 On ch=1 n=d5 v=0
234982 On ch=1 n=c7 v=0
235052 On ch=1 n=d7 v=0
235110 On ch=1 n=d7 v=89
235122 On ch=1 n=e5 v=79
235144 On ch=1 n=f5 v=0
235214 Par ch=1 c=64 v=63
235250 Par ch=1 c=64 v=0
235272 Par ch=1 c=64 v=63
235312 Par ch=1 c=64 v=127
235322 On ch=1 n=c7 v=99
235344 On ch=1 n=g5 v=75
235388 On ch=1 n=d7 v=0
235524 On ch=1 n=b6 v=94
235542 On ch=1 n=c6 v=76
235544 On ch=1 n=g5 v=0
235570 Par ch=1 c=64 v=63
235588 Par ch=1 c=64 v=0
235592 On ch=1 n=c7 v=0
235704 On ch=1 n=c7 v=99
235710 On ch=1 n=e5 v=0
235712 Par ch=1 c=64 v=63
235716 On ch=1 n=g5 v=71
235724 Par ch=1 c=64 v=127
235744 On ch=1 n=c6 v=0
235758 On ch=1 n=b6 v=0
235904 On ch=1 n=a#6 v=100
235912 On ch=1 n=e5 v=73
235920 Par ch=1 c=64 v=63
235932 Par ch=1 c=64 v=0
235946 On ch=1 n=g5 v=0
235952 On ch=1 n=c7 v=0
236092 On ch=1 n=g6 v=91
236102 On ch=1 n=a#6 v=0
236108 On ch=1 n=g5 v=72
236130 On ch=1 n=e5 v=0
236296 Par ch=1 c=64 v=63
236306 Par ch=1 c=64 v=127
236310 On ch=1 n=g6 v=0
236320 On ch=1 n=g#6 v=90
236334 On ch=1 n=f5 v=67
236336 On ch=1 n=g5 v=0
236446 On ch=1 n=f5 v=0
236472 Par ch=1 c=64 v=63
236484 Par ch=1 c=64 v=0
236488 On ch=1 n=g#6 v=0
236496 On ch=1 n=a6 v=88
236708 On ch=1 n=c7 v=84
236714 On ch=1 n=a6 v=0
236722 On ch=1 n=a#4 v=65
236722 On ch=1 n=g5 v=58
236732 Par ch=1 c=64 v=63
236740 Par ch=1 c=64 v=127
236882 On ch=1 n=g5 v=0
236888 On ch=1 n=a#6 v=88
236900 On ch=1 n=c7 v=0
236908 On ch=1 n=a#4 v=0
237068 Par ch=1 c=64 v=63
237090 Par ch=1 c=64 v=0
237114 On ch=1 n=g6 v=81
237124 On ch=1 n=a#6 v=0
237136 On ch=1 n=a#5 v=53
237140 On ch=1 n=c5 v=54
237196 Par ch=1 c=64 v=63
237222 Par ch=1 c=64 v=127
237322 On ch=1 n=c5 v=0
237324 On ch=1 n=e6 v=78
237334 On ch=1 n=g6 v=0
237372 On ch=1 n=a#5 v=0
237520 Par ch=1 c=64 v=63
237540 On ch=1 n=e6 v=0
237540 Par ch=1 c=64 v=0
237546 On ch=1 n=f5 v=52
237550 On ch=1 n=a5 v=46
237552 On ch=1 n=f6 v=76
237696 Par ch=1 c=64 v=63
237712 Par ch=1 c=64 v=127
237772 On ch=1 n=c6 v=68
237778 On ch=1 n=f6 v=0
237798 On ch=1 n=a5 v=0
237836 On ch=1 n=f5 v=0
237874 On ch=1 n=c6 v=0
237990 Par ch=1 c=64 v=63
237992 On ch=1 n=a5 v=67
238026 Par ch=1 c=64 v=0
238162 On ch=1 n=c6 v=76
238242 Par ch=1 c=64 v=63
238274 On ch=1 n=c6 v=0
238294 Par ch=1 c=64 v=127
238330 Par ch=1 c=64 v=63
238370 On ch=1 n=f5 v=68
238424 Par ch=1 c=64 v=0
238454 On ch=1 n=a5 v=0
238540 On ch=1 n=c6 v=77
238646 On ch=1 n=c6 v=0
238716 On ch=1 n=g5 v=74
238742 On ch=1 n=c6 v=69
238746 On ch=1 n=a#5 v=70
238792 On ch=1 n=f5 v=0
238808 On ch=1 n=a#5 v=0
238838 On ch=1 n=c6 v=0
238910 On ch=1 n=c6 v=73
238916 On ch=1 n=a#5 v=78
238968 On ch=1 n=a#5 v=0
238996 On ch=1 n=c6 v=0
239118 On ch=1 n=e5 v=79
239138 On ch=1 n=g5 v=0
239280 On ch=1 n=c6 v=81
239284 On ch=1 n=a#5 v=72
239332 On ch=1 n=a#5 v=0
239374 On ch=1 n=c6 v=0
239474 On ch=1 n=c5 v=92
239520 On ch=1 n=e5 v=0
239572 Par ch=1 c=64 v=63
239594 Par ch=1 c=64 v=127
239656 On ch=1 n=c6 v=81
239658 On ch=1 n=a#5 v=73
239744 On ch=1 n=a#5 v=0
239770 On ch=1 n=c6 v=0
239788 On ch=1 n=c5 v=0
239850 On ch=1 n=f4 v=89
239860 On ch=1 n=c6 v=77
239872 On ch=1 n=g#5 v=85
239892 Par ch=1 c=64 v=63
239910 Par ch=1 c=64 v=0
239954 On ch=1 n=g#5 v=0
239962 On ch=1 n=c6 v=0
240038 On ch=1 n=c6 v=78
240040 On ch=1 n=g#5 v=83
240110 On ch=1 n=g#5 v=0
240130 On ch=1 n=c6 v=0
240144 On ch=1 n=f4 v=0
240236 On ch=1 n=g#4 v=98
240430 On ch=1 n=c6 v=94
240438 On ch=1 n=g#5 v=91
240504 On ch=1 n=g#5 v=0
240510 Par ch=1 c=64 v=63
240530 On ch=1 n=c6 v=0
240534 Par ch=1 c=64 v=127
240610 On ch=1 n=f4 v=97
240624 On ch=1 n=g#4 v=0
240802 On ch=1 n=c6 v=102
240814 On ch=1 n=g#5 v=100
240888 On ch=1 n=g#5 v=0
240912 On ch=1 n=c6 v=0
240970 Par ch=1 c=64 v=63
240996 Par ch=1 c=64 v=0
241000 On ch=1 n=g4 v=91
241010 On ch=1 n=c6 v=96
241018 On ch=1 n=a#5 v=89
241044 On ch=1 n=f4 v=0
241098 On ch=1 n=a#5 v=0
241112 On ch=1 n=c6 v=0
241186 On ch=1 n=c6 v=94
241192 On ch=1 n=a#5 v=98
241230 Par ch=1 c=64 v=63
241242 Par ch=1 c=64 v=127
241266 On ch=1 n=a#5 v=0
241294 On ch=1 n=c6 v=0
241382 On ch=1 n=e4 v=104
241402 Par ch=1 c=64 v=63
241416 Par ch=1 c=64 v=0
241424 On ch=1 n=g4 v=0
241556 On ch=1 n=a#5 v=100
241556 On ch=1 n=c6 v=100
241638 Par ch=1 c=64 v=63
241640 On ch=1 n=a#5 v=0
241642 Par ch=1 c=64 v=127
241652 On ch=1 n=c6 v=0
241690 On ch=1 n=e4 v=0
241744 Par ch=1 c=64 v=63
241752 On ch=1 n=c4 v=102
241756 Par ch=1 c=64 v=0
241828 On ch=1 n=c4 v=0
241922 On ch=1 n=a#5 v=96
241922 On ch=1 n=c6 v=98
242008 On ch=1 n=a#5 v=0
242038 On ch=1 n=c6 v=0
242106 On ch=1 n=f3 v=84
242116 Par ch=1 c=64 v=127
242120 On ch=1 n=f4 v=113
242120 On ch=1 n=c6 v=113
242128 On ch=1 n=g#5 v=115
242170 On ch=1 n=f3 v=0
242182 On ch=1 n=f4 v=0
242196 On ch=1 n=g#5 v=0
242206 On ch=1 n=c6 v=0
242318 On ch=1 n=c6 v=75
242324 On ch=1 n=g#5 v=82
242412 On ch=1 n=g#5 v=0
242424 On ch=1 n=c6 v=0
242544 Par ch=1 c=64 v=63
242546 On ch=1 n=g#4 v=87
242556 Par ch=1 c=64 v=0
242740 On ch=1 n=c6 v=89
242750 On ch=1 n=g#5 v=72
242798 On ch=1 n=g#5 v=0
242800 On ch=1 n=g#4 v=0
242846 On ch=1 n=c6 v=0
242942 On ch=1 n=c5 v=102
243048 On ch=1 n=c5 v=0
243098 On ch=1 n=c6 v=99
243128 On ch=1 n=g#5 v=75
243222 On ch=1 n=c6 v=0
243230 On ch=1 n=g#5 v=0
243304 On ch=1 n=c#6 v=118
243306 Par ch=1 c=64 v=127
243308 On ch=1 n=a#3 v=112
243310 On ch=1 n=a#4 v=113
243314 On ch=1 n=g#5 v=108
243360 On ch=1 n=a#3 v=0
243364 On ch=1 n=a#4 v=0
243374 On ch=1 n=g#5 v=0
243410 On ch=1 n=c#6 v=0
243492 On ch=1 n=c#6 v=88
243520 On ch=1 n=g#5 v=55
243566 On ch=1 n=g#5 v=0
243586 On ch=1 n=c#6 v=0
243718 On ch=1 n=c#5 v=74
243766 Par ch=1 c=64 v=63
243776 Par ch=1 c=64 v=0
243916 On ch=1 n=g#5 v=86
243924 On ch=1 n=c#6 v=83
243984 On ch=1 n=g#5 v=0
244016 On ch=1 n=c#6 v=0
244098 On ch=1 n=f5 v=94
244110 On ch=1 n=c#5 v=0
244180 On ch=1 n=f5 v=0
244286 On ch=1 n=c#6 v=100
244294 On ch=1 n=g#5 v=91
244364 On ch=1 n=g#5 v=0
244414 On ch=1 n=c#6 v=0
244502 On ch=1 n=d#4 v=116
244504 Par ch=1 c=64 v=63
244504 On ch=1 n=c#6 v=121
244506 On ch=1 n=d#3 v=113
244506 On ch=1 n=g5 v=109
244512 Par ch=1 c=64 v=127
244558 On ch=1 n=d#3 v=0
244566 On ch=1 n=d#4 v=0
244574 On ch=1 n=g5 v=0
244602 On ch=1 n=c#6 v=0
244706 On ch=1 n=g5 v=85
244718 On ch=1 n=c#6 v=97
244770 On ch=1 n=g5 v=0
244772 On ch=1 n=c#6 v=0
244916 On ch=1 n=g4 v=63
245018 Par ch=1 c=64 v=63
245040 Par ch=1 c=64 v=0
245110 On ch=1 n=c#6 v=96
245114 On ch=1 n=g5 v=78
245196 On ch=1 n=c#6 v=0
245208 On ch=1 n=g5 v=0
245264 On ch=1 n=g4 v=0
245302 On ch=1 n=a#4 v=89
245428 On ch=1 n=a#4 v=0
245472 On ch=1 n=c#6 v=88
245494 On ch=1 n=g5 v=68
245602 On ch=1 n=g5 v=0
245612 On ch=1 n=c#6 v=0
245668 Par ch=1 c=64 v=127
245670 On ch=1 n=g#4 v=123
245670 On ch=1 n=g#3 v=96
245674 On ch=1 n=c6 v=112
245678 On ch=1 n=g5 v=99
245730 On ch=1 n=g#3 v=0
245756 On ch=1 n=g#4 v=0
245760 On ch=1 n=g5 v=0
245784 On ch=1 n=c6 v=0
245878 On ch=1 n=c6 v=90
245882 On ch=1 n=g5 v=75
245972 On ch=1 n=g5 v=0
245988 On ch=1 n=c6 v=0
246082 On ch=1 n=c5 v=89
246132 Par ch=1 c=64 v=63
246142 Par ch=1 c=64 v=0
246252 On ch=1 n=c6 v=86
246260 On ch=1 n=g5 v=68
246328 On ch=1 n=g5 v=0
246346 On ch=1 n=c5 v=0
246348 On ch=1 n=c6 v=0
246450 On ch=1 n=d#5 v=91
246458 Par ch=1 c=64 v=63
246462 Par ch=1 c=64 v=127
246514 On ch=1 n=d#5 v=0
246522 Par ch=1 c=64 v=63
246540 Par ch=1 c=64 v=0
246622 On ch=1 n=g5 v=68
246626 On ch=1 n=c6 v=73
246720 On ch=1 n=c6 v=0
246726 On ch=1 n=g5 v=0
246840 Par ch=1 c=64 v=127
246846 On ch=1 n=c#3 v=99
246854 On ch=1 n=c#4 v=108
246866 On ch=1 n=c6 v=112
246868 On ch=1 n=f5 v=111
246902 On ch=1 n=c#3 v=0
246918 On ch=1 n=c#4 v=0
246938 On ch=1 n=f5 v=0
246944 On ch=1 n=c6 v=0
247078 On ch=1 n=c6 v=101
247082 On ch=1 n=f5 v=93
247158 On ch=1 n=f5 v=0
247164 On ch=1 n=c6 v=0
247266 On ch=1 n=c#5 v=91
247334 On ch=1 n=c#5 v=0
247446 On ch=1 n=c6 v=90
247454 On ch=1 n=f5 v=81
247466 Par ch=1 c=64 v=63
247478 Par ch=1 c=64 v=0
247534 On ch=1 n=c6 v=0
247542 On ch=1 n=f5 v=0
247636 On ch=1 n=g4 v=102
247638 On ch=1 n=g3 v=97
247662 On ch=1 n=a#5 v=116
247664 Par ch=1 c=64 v=63
247666 On ch=1 n=f5 v=100
247668 Par ch=1 c=64 v=127
247704 On ch=1 n=g3 v=0
247706 On ch=1 n=g4 v=0
247740 On ch=1 n=f5 v=0
247762 On ch=1 n=a#5 v=0
247878 On ch=1 n=a#5 v=88
247882 On ch=1 n=f5 v=78
247960 On ch=1 n=a#5 v=0
247972 On ch=1 n=f5 v=0
248054 On ch=1 n=g5 v=93
248102 On ch=1 n=g5 v=0
248236 On ch=1 n=f5 v=76
248242 On ch=1 n=a#5 v=86
248332 On ch=1 n=f5 v=0
248338 On ch=1 n=a#5 v=0
248384 Par ch=1 c=64 v=63
248392 Par ch=1 c=64 v=0
248438 On ch=1 n=c3 v=94
248438 On ch=1 n=c4 v=101
248450 On ch=1 n=a#5 v=112
248456 On ch=1 n=e5 v=96
248492 Par ch=1 c=64 v=63
248502 Par ch=1 c=64 v=127
248546 On ch=1 n=c3 v=0
248572 On ch=1 n=e5 v=0
248572 On ch=1 n=a#5 v=0
248594 On ch=1 n=c4 v=0
248660 On ch=1 n=a#5 v=83
248662 On ch=1 n=e5 v=71
248758 On ch=1 n=e5 v=0
248768 On ch=1 n=a#5 v=0
248872 On ch=1 n=c5 v=93
249074 On ch=1 n=a#5 v=85
249076 On ch=1 n=e5 v=72
249198 On ch=1 n=e5 v=0
249288 On ch=1 n=a#5 v=0
249326 On ch=1 n=c#5 v=84
249408 On ch=1 n=c5 v=0
249466 Par ch=1 c=64 v=63
249530 On ch=1 n=g#5 v=63
249530 On ch=1 n=f5 v=59
249546 Par ch=1 c=64 v=0
249734 Par ch=1 c=64 v=63
249742 On ch=1 n=c5 v=85
249762 Par ch=1 c=64 v=127
249786 On ch=1 n=f5 v=0
249796 On ch=1 n=g#5 v=0
249812 On ch=1 n=c#5 v=0
249926 On ch=1 n=g#5 v=91
249930 On ch=1 n=f5 v=77
250092 On ch=1 n=b4 v=98
250140 On ch=1 n=f5 v=0
250146 On ch=1 n=c5 v=0
250162 On ch=1 n=g#5 v=0
250282 On ch=1 n=g#5 v=97
250284 On ch=1 n=f5 v=83
250402 On ch=1 n=f5 v=0
250480 On ch=1 n=g#5 v=0
250520 On ch=1 n=g5 v=69
250542 On ch=1 n=e5 v=59
250546 On ch=1 n=b4 v=0
250554 On ch=1 n=c5 v=54
250574 Par ch=1 c=64 v=63
250626 Par ch=1 c=64 v=0
250778 On ch=1 n=g#5 v=60
250784 On ch=1 n=c6 v=74
250804 On ch=1 n=g5 v=0
250916 Par ch=1 c=64 v=63
250930 Par ch=1 c=64 v=127
250996 On ch=1 n=a#5 v=73
251010 On ch=1 n=g5 v=54
251012 On ch=1 n=c6 v=0
251022 On ch=1 n=g#5 v=0
251078 On ch=1 n=e5 v=0
251100 On ch=1 n=a#5 v=0
251110 On ch=1 n=c5 v=0
251190 On ch=1 n=g#5 v=72
251206 On ch=1 n=g5 v=0
251218 On ch=1 n=f5 v=53
251338 On ch=1 n=g#5 v=0
251368 On ch=1 n=f5 v=0
251380 On ch=1 n=g5 v=78
251396 On ch=1 n=e5 v=68
251554 On ch=1 n=b4 v=60
251558 Par ch=1 c=64 v=63
251562 On ch=1 n=g#5 v=74
251566 On ch=1 n=e5 v=0
251568 On ch=1 n=f5 v=70
251602 On ch=1 n=g5 v=0
251602 Par ch=1 c=64 v=0
251730 On ch=1 n=f5 v=0
251758 On ch=1 n=g5 v=68
251772 On ch=1 n=e5 v=53
251776 On ch=1 n=b4 v=0
251778 On ch=1 n=c5 v=63
251780 Par ch=1 c=64 v=63
251802 Par ch=1 c=64 v=127
251828 On ch=1 n=g#5 v=0
251850 On ch=1 n=g5 v=0
251920 On ch=1 n=e5 v=0
251984 On ch=1 n=c6 v=72
251994 On ch=1 n=g#5 v=61
252174 On ch=1 n=c6 v=0
252188 On ch=1 n=a#5 v=79
252204 On ch=1 n=g5 v=68
252220 On ch=1 n=c5 v=0
252222 On ch=1 n=g#5 v=0
252292 On ch=1 n=a#5 v=0
252374 On ch=1 n=g#5 v=77
252396 On ch=1 n=g5 v=0
252404 On ch=1 n=f5 v=57
252544 On ch=1 n=g#5 v=0
252574 On ch=1 n=f5 v=0
252574 On ch=1 n=g5 v=71
252578 On ch=1 n=e5 v=72
252726 Par ch=1 c=64 v=63
252762 On ch=1 n=g#5 v=83
252768 On ch=1 n=f5 v=78
252776 On ch=1 n=e5 v=0
252776 On ch=1 n=b4 v=75
252790 On ch=1 n=g5 v=0
252842 Par ch=1 c=64 v=0
252952 On ch=1 n=f5 v=0
252956 On ch=1 n=g5 v=82
252964 On ch=1 n=e5 v=63
252982 On ch=1 n=c5 v=73
252994 On ch=1 n=b4 v=0
253006 On ch=1 n=g#5 v=0
253140 On ch=1 n=g#5 v=78
253154 On ch=1 n=f5 v=64
253158 On ch=1 n=e5 v=0
253168 On ch=1 n=b4 v=53
253188 On ch=1 n=g5 v=0
253196 On ch=1 n=c5 v=0
253352 On ch=1 n=g#5 v=0
253352 On ch=1 n=e5 v=61
253358 On ch=1 n=f5 v=0
253358 On ch=1 n=g5 v=63
253384 On ch=1 n=c5 v=44
253386 On ch=1 n=b4 v=0
253524 On ch=1 n=g#5 v=81
253556 On ch=1 n=e5 v=0
253556 On ch=1 n=f5 v=59
253564 On ch=1 n=c5 v=0
253566 On ch=1 n=b4 v=51
253588 On ch=1 n=g5 v=0
253732 On ch=1 n=g#5 v=0
253754 On ch=1 n=g5 v=63
253754 On ch=1 n=e5 v=59
253756 On ch=1 n=b4 v=0
253760 On ch=1 n=c5 v=51
253764 On ch=1 n=f5 v=0
253916 On ch=1 n=g#5 v=81
253940 On ch=1 n=c5 v=0
253940 On ch=1 n=b4 v=62
253942 On ch=1 n=e5 v=0
253946 On ch=1 n=f5 v=70
253984 On ch=1 n=g5 v=0
254110 On ch=1 n=g#5 v=0
254132 On ch=1 n=f5 v=0
254136 Par ch=1 c=64 v=63
254138 On ch=1 n=g5 v=70
254148 On ch=1 n=b4 v=0
254154 On ch=1 n=e5 v=59
254160 On ch=1 n=c5 v=54
254160 Par ch=1 c=64 v=127
254246 On ch=1 n=g5 v=0
254316 On ch=1 n=e5 v=0
254326 On ch=1 n=c5 v=0
254356 On ch=1 n=f#5 v=72
254366 On ch=1 n=d#5 v=69
254468 Par ch=1 c=64 v=63
254520 On ch=1 n=f#5 v=0
254534 On ch=1 n=g5 v=68
254540 On ch=1 n=d#5 v=0
254544 On ch=1 n=e5 v=63
254560 Par ch=1 c=64 v=0
254712 On ch=1 n=g5 v=0
254728 On ch=1 n=f#5 v=61
254732 On ch=1 n=a5 v=63
254738 On ch=1 n=e5 v=0
254926 On ch=1 n=g5 v=69
254928 On ch=1 n=a5 v=0
254938 On ch=1 n=a#5 v=73
254954 On ch=1 n=f#5 v=0
255124 On ch=1 n=g5 v=0
255134 On ch=1 n=a#5 v=0
255146 On ch=1 n=c6 v=68
255150 On ch=1 n=a5 v=54
255364 On ch=1 n=a5 v=0
255376 On ch=1 n=c6 v=0
255380 Par ch=1 c=64 v=63
255390 On ch=1 n=a#5 v=72
255404 On ch=1 n=d6 v=62
255426 On ch=1 n=a#4 v=41
255510 Par ch=1 c=64 v=0
255514 On ch=1 n=a#5 v=0
255540 On ch=1 n=d6 v=0
255570 On ch=1 n=a#4 v=0
255842 Par ch=1 c=64 v=63
255862 On ch=1 n=d6 v=70
255866 On ch=1 n=a#5 v=71
255866 On ch=1 n=f5 v=57
255872 On ch=1 n=a#4 v=67
255878 Par ch=1 c=64 v=0
255936 On ch=1 n=a#4 v=0
255946 On ch=1 n=f5 v=0
255954 On ch=1 n=a#5 v=0
255968 On ch=1 n=d6 v=0
256294 On ch=1 n=a#5 v=77
256296 On ch=1 n=d6 v=75
256298 On ch=1 n=a#4 v=88
256298 On ch=1 n=f5 v=62
256380 On ch=1 n=a#4 v=0
256382 On ch=1 n=a#5 v=0
256384 On ch=1 n=f5 v=0
256408 On ch=1 n=d6 v=0
256746 On ch=1 n=d6 v=84
256746 On ch=1 n=a#4 v=72
256748 On ch=1 n=f5 v=70
256750 Par ch=1 c=64 v=63
256752 On ch=1 n=a#5 v=80
256782 Par ch=1 c=64 v=127
257098 On ch=1 n=a#4 v=0
257208 On ch=1 n=a#5 v=0
257350 On ch=1 n=d6 v=0
257656 On ch=1 n=c6 v=71
257664 On ch=1 n=a5 v=63
257666 Par ch=1 c=64 v=63
257682 On ch=1 n=f4 v=46
257694 Par ch=1 c=64 v=0
257812 On ch=1 n=c6 v=0
257814 On ch=1 n=a5 v=0
257848 On ch=1 n=f4 v=0
257876 On ch=1 n=f5 v=0
258050 On ch=1 n=c6 v=66
258060 On ch=1 n=c4 v=65
258100 On ch=1 n=a#5 v=79
258126 On ch=1 n=e5 v=48
258128 On ch=1 n=g5 v=30
258152 On ch=1 n=c6 v=0
258182 On ch=1 n=c4 v=0
258184 On ch=1 n=e5 v=0
258188 On ch=1 n=g5 v=0
258214 On ch=1 n=a#5 v=0
258506 On ch=1 n=a#5 v=77
258514 On ch=1 n=g5 v=60
258518 On ch=1 n=e5 v=59
258528 On ch=1 n=c4 v=68
258608 On ch=1 n=g5 v=0
258614 On ch=1 n=e5 v=0
258616 On ch=1 n=a#5 v=0
258632 On ch=1 n=c4 v=0
258926 On ch=1 n=a#5 v=80
258932 On ch=1 n=g5 v=71
258934 On ch=1 n=e5 v=65
258938 On ch=1 n=c4 v=84
259018 On ch=1 n=e5 v=0
259018 On ch=1 n=g5 v=0
259026 On ch=1 n=c4 v=0
259026 On ch=1 n=a#5 v=0
259386 On ch=1 n=c4 v=83
259388 On ch=1 n=a#5 v=89
259406 On ch=1 n=g5 v=72
259408 On ch=1 n=e5 v=63
259424 Par ch=1 c=64 v=63
259470 Par ch=1 c=64 v=127
259692 On ch=1 n=e5 v=0
259732 On ch=1 n=g5 v=0
259734 On ch=1 n=c4 v=0
259778 On ch=1 n=a#5 v=0
260256 On ch=1 n=d4 v=61
260258 On ch=1 n=a5 v=69
260258 On ch=1 n=f5 v=64
260308 Par ch=1 c=64 v=63
260358 Par ch=1 c=64 v=0
260438 Par ch=1 c=64 v=63
260462 On ch=1 n=d4 v=0
260482 On ch=1 n=a5 v=0
260538 On ch=1 n=f5 v=0
260564 Par ch=1 c=64 v=0
260690 On ch=1 n=a5 v=56
260692 On ch=1 n=a#3 v=71
260700 On ch=1 n=c6 v=80
260732 Par ch=1 c=64 v=63
260762 Par ch=1 c=64 v=127
260798 On ch=1 n=a5 v=0
260850 On ch=1 n=a#3 v=0
260858 On ch=1 n=c6 v=0
260876 On ch=1 n=a#5 v=70
260880 On ch=1 n=g5 v=63
261020 On ch=1 n=a#5 v=0
261024 On ch=1 n=g5 v=0
261072 Par ch=1 c=64 v=63
261094 On ch=1 n=a5 v=63
261096 On ch=1 n=f5 v=65
261098 On ch=1 n=c4 v=60
261110 Par ch=1 c=64 v=0
261162 Par ch=1 c=64 v=63
261210 Par ch=1 c=64 v=127
261212 On ch=1 n=a5 v=0
261324 On ch=1 n=c4 v=0
261502 On ch=1 n=g5 v=74
261506 On ch=1 n=e5 v=69
261530 On ch=1 n=f5 v=0
261532 On ch=1 n=c4 v=59
261538 Par ch=1 c=64 v=63
261584 Par ch=1 c=64 v=0
261854 On ch=1 n=e5 v=0
261870 On ch=1 n=g5 v=0
261938 On ch=1 n=c4 v=0
261938 On ch=1 n=a5 v=71
261940 Par ch=1 c=64 v=63
261944 On ch=1 n=f4 v=56
261944 On ch=1 n=f5 v=58
261964 Par ch=1 c=64 v=127
261998 On ch=1 n=f5 v=0
262030 On ch=1 n=a5 v=0
262150 On ch=1 n=f4 v=0
262194 On ch=1 n=f6 v=79
262288 On ch=1 n=f6 v=0
262392 Par ch=1 c=64 v=63
262392 On ch=1 n=g6 v=88
262422 Par ch=1 c=64 v=0
262476 On ch=1 n=g6 v=0
262582 On ch=1 n=a6 v=98
262642 On ch=1 n=a6 v=0
262756 On ch=1 n=a#6 v=107
262844 On ch=1 n=a#6 v=0
262940 On ch=1 n=c7 v=96
263018 On ch=1 n=c7 v=0
263144 On ch=1 n=a#5 v=76
263152 On ch=1 n=d7 v=106
263156 On ch=1 n=f5 v=53
263208 On ch=1 n=d7 v=0
263228 On ch=1 n=a#5 v=0
263264 On ch=1 n=f5 v=0
263556 On ch=1 n=a#5 v=73
263560 On ch=1 n=d7 v=102
263570 On ch=1 n=f5 v=60
263624 On ch=1 n=d7 v=0
263630 On ch=1 n=a#5 v=0
263658 On ch=1 n=f5 v=0
263956 On ch=1 n=d7 v=103
263962 On ch=1 n=a#5 v=80
263980 On ch=1 n=f5 v=57
264020 On ch=1 n=d7 v=0
264038 On ch=1 n=a#5 v=0
264042 On ch=1 n=f5 v=0
264428 On ch=1 n=a#5 v=70
264438 On ch=1 n=d7 v=101
264446 On ch=1 n=f5 v=51
264448 Par ch=1 c=64 v=63
264454 Par ch=1 c=64 v=127
264522 On ch=1 n=d7 v=0
265126 On ch=1 n=e7 v=66
265196 On ch=1 n=d7 v=71
265220 On ch=1 n=e7 v=0
265234 Par ch=1 c=64 v=63
265296 On ch=1 n=c7 v=70
265300 On ch=1 n=a5 v=23
265312 On ch=1 n=a#5 v=0
265334 On ch=1 n=d7 v=0
265350 Par ch=1 c=64 v=127
265384 On ch=1 n=c7 v=0
265448 On ch=1 n=f5 v=0
265640 On ch=1 n=a5 v=0
265696 On ch=1 n=c7 v=75
265714 Par ch=1 c=64 v=63
265718 On ch=1 n=e6 v=70
265728 On ch=1 n=a#6 v=81
265728 On ch=1 n=g5 v=63
265736 On ch=1 n=c5 v=67
265756 Par ch=1 c=64 v=0
265786 On ch=1 n=c7 v=0
265798 On ch=1 n=c5 v=0
265800 On ch=1 n=g5 v=0
265806 On ch=1 n=e6 v=0
265820 On ch=1 n=a#6 v=0
266136 On ch=1 n=a#6 v=90
266152 On ch=1 n=e6 v=70
266164 On ch=1 n=g5 v=55
266176 On ch=1 n=c5 v=43
266224 On ch=1 n=e6 v=0
266228 On ch=1 n=a#6 v=0
266242 On ch=1 n=g5 v=0
266244 On ch=1 n=c5 v=0
266544 On ch=1 n=a#6 v=103
266560 On ch=1 n=e6 v=79
266562 On ch=1 n=g5 v=63
266572 On ch=1 n=c5 v=58
266602 On ch=1 n=e6 v=0
266630 On ch=1 n=c5 v=0
266632 On ch=1 n=g5 v=0
266632 On ch=1 n=a#6 v=0
266998 On ch=1 n=g5 v=54
267002 Par ch=1 c=64 v=63
267002 On ch=1 n=a#6 v=100
267004 On ch=1 n=c5 v=60
267012 On ch=1 n=e6 v=83
267032 Par ch=1 c=64 v=127
267266 On ch=1 n=e6 v=0
267362 On ch=1 n=g5 v=0
267400 On ch=1 n=c5 v=0
267402 On ch=1 n=a#6 v=0
267862 Par ch=1 c=64 v=63
267888 On ch=1 n=f6 v=69
267890 On ch=1 n=a6 v=70
267890 On ch=1 n=f5 v=40
267898 On ch=1 n=d5 v=51
268006 Par ch=1 c=64 v=127
268028 On ch=1 n=d5 v=0
268036 On ch=1 n=f6 v=0
268050 On ch=1 n=a6 v=0
268054 On ch=1 n=f5 v=0
268146 Par ch=1 c=64 v=63
268182 Par ch=1 c=64 v=0
268320 Par ch=1 c=64 v=63
268336 On ch=1 n=c7 v=84
268340 On ch=1 n=a6 v=68
268342 Par ch=1 c=64 v=127
268344 On ch=1 n=a#4 v=70
268406 On ch=1 n=a6 v=0
268456 On ch=1 n=c7 v=0
268470 On ch=1 n=a#4 v=0
268514 On ch=1 n=a#6 v=88
268514 On ch=1 n=g6 v=70
268644 On ch=1 n=g6 v=0
268648 On ch=1 n=a#6 v=0
268704 Par ch=1 c=64 v=63
268722 On ch=1 n=a6 v=78
268732 On ch=1 n=f6 v=63
268734 On ch=1 n=c5 v=65
268740 Par ch=1 c=64 v=0
268836 Par ch=1 c=64 v=63
268860 Par ch=1 c=64 v=127
268940 On ch=1 n=f6 v=0
269054 Par ch=1 c=64 v=63
269076 Par ch=1 c=64 v=0
269142 On ch=1 n=a6 v=0
269144 On ch=1 n=g6 v=67
269152 On ch=1 n=e6 v=60
269156 Par ch=1 c=64 v=63
269158 On ch=1 n=a#4 v=72
269186 Par ch=1 c=64 v=127
269188 On ch=1 n=c5 v=0
269246 On ch=1 n=a#4 v=0
269246 Par ch=1 c=64 v=63
269286 Par ch=1 c=64 v=0
269418 On ch=1 n=g6 v=0
269472 On ch=1 n=e6 v=0
269502 Par ch=1 c=64 v=63
269510 Par ch=1 c=64 v=127
269530 On ch=1 n=a3 v=93
269546 On ch=1 n=a4 v=108
269566 On ch=1 n=c7 v=112
269570 On ch=1 n=a6 v=108
269602 On ch=1 n=a3 v=0
269606 On ch=1 n=a4 v=0
269638 On ch=1 n=a6 v=0
269650 On ch=1 n=c7 v=0
269754 On ch=1 n=c7 v=98
269772 On ch=1 n=a6 v=71
269812 On ch=1 n=a6 v=0
269842 On ch=1 n=c7 v=0
269962 Par ch=1 c=64 v=63
269972 Par ch=1 c=64 v=0
269984 On ch=1 n=c#5 v=92
270028 On ch=1 n=c#5 v=0
270152 On ch=1 n=a#6 v=96
270170 On ch=1 n=g6 v=70
270214 On ch=1 n=g6 v=0
270246 On ch=1 n=a#6 v=0
270348 On ch=1 n=d5 v=85
270400 On ch=1 n=d5 v=0
270508 On ch=1 n=a6 v=84
270510 On ch=1 n=f6 v=84
270562 On ch=1 n=a6 v=0
270570 On ch=1 n=f6 v=0
270718 On ch=1 n=a#4 v=83
270776 On ch=1 n=a#4 v=0
270890 On ch=1 n=g6 v=97
270896 On ch=1 n=a#5 v=89
270970 On ch=1 n=a#5 v=0
270970 On ch=1 n=g6 v=0
271082 On ch=1 n=c5 v=96
271160 On ch=1 n=c5 v=0
271264 On ch=1 n=f6 v=91
271274 On ch=1 n=a5 v=80
271326 On ch=1 n=a5 v=0
271332 On ch=1 n=f6 v=0
271464 On ch=1 n=a#4 v=106
271526 On ch=1 n=a#4 v=0
271642 On ch=1 n=e6 v=109
271654 On ch=1 n=g5 v=82
271694 On ch=1 n=g5 v=0
271728 On ch=1 n=e6 v=0
271846 On ch=1 n=a3 v=90
271852 On ch=1 n=a4 v=117
271878 Par ch=1 c=64 v=63
271880 Par ch=1 c=64 v=127
271922 On ch=1 n=a3 v=0
271924 On ch=1 n=a4 v=0
271970 On ch=1 n=a6 v=101
272082 On ch=1 n=a6 v=0
272082 On ch=1 n=c7 v=84
272142 On ch=1 n=a6 v=85
272198 On ch=1 n=c7 v=0
272238 On ch=1 n=a6 v=0
272250 On ch=1 n=c#4 v=112
272250 On ch=1 n=c#5 v=124
272310 On ch=1 n=c#5 v=0
272316 On ch=1 n=c#4 v=0
272340 On ch=1 n=g6 v=97
272430 On ch=1 n=a#6 v=106
272446 On ch=1 n=g6 v=0
272498 On ch=1 n=g6 v=90
272512 Par ch=1 c=64 v=63
272518 Par ch=1 c=64 v=0
272530 On ch=1 n=a#6 v=0
272600 On ch=1 n=g6 v=0
272630 On ch=1 n=d5 v=117
272632 On ch=1 n=d4 v=111
272642 Par ch=1 c=64 v=63
272650 Par ch=1 c=64 v=127
272686 On ch=1 n=d5 v=0
272704 On ch=1 n=d4 v=0
272720 On ch=1 n=f6 v=101
272814 On ch=1 n=a6 v=96
272826 On ch=1 n=f6 v=0
272894 On ch=1 n=f6 v=97
272896 Par ch=1 c=64 v=63
272916 Par ch=1 c=64 v=0
272918 On ch=1 n=a6 v=0
272952 Par ch=1 c=64 v=63
272964 On ch=1 n=f6 v=0
272986 Par ch=1 c=64 v=127
273010 On ch=1 n=a#4 v=119
273010 On ch=1 n=a#3 v=104
273068 On ch=1 n=a#3 v=0
273076 On ch=1 n=a#5 v=100
273078 On ch=1 n=a#4 v=0
273176 On ch=1 n=a#5 v=0
273190 Par ch=1 c=64 v=63
273198 On ch=1 n=g6 v=84
273214 Par ch=1 c=64 v=0
273266 On ch=1 n=a#5 v=96
273310 On ch=1 n=g6 v=0
273332 Par ch=1 c=64 v=63
273350 Par ch=1 c=64 v=127
273358 On ch=1 n=a#5 v=0
273378 On ch=1 n=c5 v=120
273378 On ch=1 n=c4 v=111
273422 On ch=1 n=c5 v=0
273454 On ch=1 n=c4 v=0
273476 On ch=1 n=a5 v=89
273556 On ch=1 n=a5 v=0
273574 On ch=1 n=f6 v=80
273636 Par ch=1 c=64 v=63
273652 On ch=1 n=a5 v=86
273656 Par ch=1 c=64 v=0
273668 On ch=1 n=f6 v=0
273740 On ch=1 n=a5 v=0
273748 Par ch=1 c=64 v=63
273758 On ch=1 n=c4 v=116
273764 On ch=1 n=c3 v=90
273770 Par ch=1 c=64 v=127
273816 On ch=1 n=c3 v=0
273826 On ch=1 n=c4 v=0
273864 On ch=1 n=g5 v=100
273948 On ch=1 n=e6 v=102
273954 On ch=1 n=g5 v=0
274032 On ch=1 n=g5 v=92
274050 On ch=1 n=e6 v=0
274132 On ch=1 n=g5 v=0
274178 On ch=1 n=f3 v=113
274182 On ch=1 n=f6 v=121
274188 On ch=1 n=c6 v=113
274188 On ch=1 n=a5 v=109
274238 Par ch=1 c=64 v=63
274240 Par ch=1 c=64 v=127
274312 On ch=1 n=a3 v=83
274386 On ch=1 n=f3 v=0
274416 On ch=1 n=c4 v=87
274438 On ch=1 n=a5 v=0
274446 On ch=1 n=f6 v=0
274468 On ch=1 n=a3 v=0
274474 On ch=1 n=c6 v=0
274520 On ch=1 n=f4 v=84
274548 On ch=1 n=c4 v=0
274614 On ch=1 n=f3 v=111
274624 On ch=1 n=f4 v=0
274704 On ch=1 n=a3 v=78
274736 On ch=1 n=f3 v=0
274780 On ch=1 n=c4 v=91
274844 On ch=1 n=a3 v=0
274866 On ch=1 n=f4 v=84
274910 Par ch=1 c=64 v=63
274916 Par ch=1 c=64 v=0
274924 On ch=1 n=c4 v=0
274978 On ch=1 n=f3 v=106
274984 On ch=1 n=f4 v=0
275002 On ch=1 n=a5 v=109
275034 Par ch=1 c=64 v=63
275038 Par ch=1 c=64 v=127
275068 On ch=1 n=a#5 v=94
275082 On ch=1 n=a5 v=0
275090 On ch=1 n=a3 v=81
275126 Par ch=1 c=64 v=63
275138 On ch=1 n=f3 v=0
275138 Par ch=1 c=64 v=0
275144 On ch=1 n=a5 v=84
275182 On ch=1 n=a#5 v=0
275196 On ch=1 n=c4 v=78
275220 On ch=1 n=g5 v=92
275236 On ch=1 n=a5 v=0
275236 On ch=1 n=a3 v=0
275282 On ch=1 n=f5 v=89
275284 On ch=1 n=f4 v=65
275304 On ch=1 n=g5 v=0
275322 On ch=1 n=c4 v=0
275370 On ch=1 n=f5 v=0
275376 Par ch=1 c=64 v=127
275390 On ch=1 n=c6 v=109
275392 On ch=1 n=f4 v=0
275402 On ch=1 n=f3 v=100
275478 On ch=1 n=c6 v=0
275504 On ch=1 n=a3 v=86
275554 On ch=1 n=f3 v=0
275600 On ch=1 n=c4 v=80
275630 On ch=1 n=a3 v=0
275700 On ch=1 n=f4 v=76
275738 On ch=1 n=c4 v=0
275798 On ch=1 n=f3 v=99
275820 On ch=1 n=f4 v=0
275892 On ch=1 n=a3 v=90
275900 Par ch=1 c=64 v=63
275908 Par ch=1 c=64 v=0
275956 On ch=1 n=f3 v=0
275990 On ch=1 n=c4 v=89
276044 On ch=1 n=a3 v=0
276080 On ch=1 n=f4 v=81
276128 On ch=1 n=c4 v=0
276170 On ch=1 n=e6 v=109
276174 On ch=1 n=f3 v=94
276196 On ch=1 n=f4 v=0
276242 On ch=1 n=f6 v=80
276246 On ch=1 n=e6 v=0
276276 On ch=1 n=a#3 v=95
276312 On ch=1 n=e6 v=87
276330 On ch=1 n=f6 v=0
276336 On ch=1 n=f3 v=0
276372 On ch=1 n=c4 v=71
276380 On ch=1 n=d6 v=84
276408 On ch=1 n=e6 v=0
276442 On ch=1 n=g4 v=82
276444 On ch=1 n=a#3 v=0
276458 On ch=1 n=c6 v=99
276466 On ch=1 n=d6 v=0
276514 On ch=1 n=c4 v=0
276530 On ch=1 n=c6 v=0
276544 On ch=1 n=g4 v=0
276546 On ch=1 n=f6 v=120
276548 Par ch=1 c=64 v=63
276548 Par ch=1 c=64 v=127
276558 On ch=1 n=f3 v=96
276682 On ch=1 n=a3 v=91
276696 On ch=1 n=f3 v=0
276770 On ch=1 n=f6 v=0
276776 On ch=1 n=c4 v=79
276822 On ch=1 n=a3 v=0
276860 On ch=1 n=f4 v=84
276914 On ch=1 n=c4 v=0
276958 On ch=1 n=f3 v=100
276960 On ch=1 n=f4 v=0
277052 On ch=1 n=a3 v=86
277084 On ch=1 n=f3 v=0
277134 Par ch=1 c=64 v=63
277146 Par ch=1 c=64 v=0
277150 On ch=1 n=c4 v=85
277186 On ch=1 n=a3 v=0
277226 On ch=1 n=f4 v=88
277276 On ch=1 n=c4 v=0
277338 On ch=1 n=f4 v=0
277340 On ch=1 n=f3 v=106
277342 On ch=1 n=a6 v=113
277414 On ch=1 n=a#6 v=99
277426 On ch=1 n=a6 v=0
277454 On ch=1 n=a3 v=84
277496 On ch=1 n=f3 v=0
277508 On ch=1 n=a6 v=94
277542 On ch=1 n=a#6 v=0
277560 On ch=1 n=c4 v=84
277568 On ch=1 n=g6 v=92
277608 On ch=1 n=a6 v=0
277622 On ch=1 n=a3 v=0
277628 On ch=1 n=f6 v=93
277656 On ch=1 n=g6 v=0
277658 On ch=1 n=f4 v=79
277696 On ch=1 n=c4 v=0
277708 On ch=1 n=c7 v=111
277726 On ch=1 n=f6 v=0
277752 On ch=1 n=f3 v=97
277760 On ch=1 n=f4 v=0
277782 On ch=1 n=c7 v=0
277860 On ch=1 n=a3 v=84
277910 On ch=1 n=f3 v=0
277962 On ch=1 n=c4 v=84
278020 On ch=1 n=a3 v=0
278050 On ch=1 n=f4 v=88
278116 On ch=1 n=c4 v=0
278120 On ch=1 n=c7 v=114
278130 On ch=1 n=f3 v=101
278172 On ch=1 n=c7 v=0
278178 On ch=1 n=f4 v=0
278258 On ch=1 n=a3 v=84
278320 On ch=1 n=f3 v=0
278344 On ch=1 n=c4 v=97
278402 On ch=1 n=a3 v=0
278410 On ch=1 n=f4 v=79
278468 On ch=1 n=c4 v=0
278484 On ch=1 n=f3 v=103
278498 Par ch=1 c=64 v=63
278498 Par ch=1 c=64 v=127
278504 On ch=1 n=e7 v=120
278524 On ch=1 n=f4 v=0
278580 On ch=1 n=a#3 v=106
278582 On ch=1 n=f7 v=93
278590 On ch=1 n=e7 v=0
278642 Par ch=1 c=64 v=63
278648 Par ch=1 c=64 v=0
278654 On ch=1 n=e7 v=97
278662 On ch=1 n=c4 v=89
278694 On ch=1 n=f7 v=0
278722 On ch=1 n=g4 v=78
278722 On ch=1 n=d7 v=98
278726 On ch=1 n=f3 v=0
278734 On ch=1 n=e7 v=0
278742 On ch=1 n=a#3 v=0
278782 On ch=1 n=c7 v=99
278818 On ch=1 n=d7 v=0
278830 On ch=1 n=g4 v=0
278862 On ch=1 n=c7 v=0
278886 On ch=1 n=a3 v=74
278886 On ch=1 n=f7 v=122
278896 On ch=1 n=f3 v=97
278898 Par ch=1 c=64 v=127
278900 On ch=1 n=f4 v=120
278960 On ch=1 n=f7 v=0
278972 On ch=1 n=f4 v=0
278974 On ch=1 n=f3 v=0
278976 On ch=1 n=c4 v=0
278982 On ch=1 n=a3 v=0
279090 Par ch=1 c=64 v=63
279100 Par ch=1 c=64 v=0
279382 On ch=1 n=a3 v=103
279384 On ch=1 n=a4 v=117
279392 On ch=1 n=a6 v=121
279410 Par ch=1 c=64 v=127
279634 On ch=1 n=a3 v=0
279664 On ch=1 n=a4 v=0
279666 On ch=1 n=a6 v=0
280054 On ch=1 n=c#4 v=74
280054 On ch=1 n=c#6 v=118
280068 On ch=1 n=c#5 v=88
280114 On ch=1 n=c#5 v=0
280122 On ch=1 n=c#4 v=0
280138 Par ch=1 c=64 v=63
280144 On ch=1 n=c#6 v=0
280148 Par ch=1 c=64 v=0
280270 On ch=1 n=d5 v=111
280270 On ch=1 n=d6 v=120
280272 On ch=1 n=d4 v=104
280338 On ch=1 n=d4 v=0
280342 On ch=1 n=d5 v=0
280368 On ch=1 n=d6 v=0
280718 On ch=1 n=f4 v=102
280720 On ch=1 n=f6 v=122
280722 On ch=1 n=f5 v=117
280728 Par ch=1 c=64 v=127
280786 On ch=1 n=f6 v=0
280860 On ch=1 n=f5 v=0
280882 On ch=1 n=f4 v=0
281386 On ch=1 n=a4 v=93
281390 On ch=1 n=a5 v=103
281432 Par ch=1 c=64 v=63
281438 On ch=1 n=a5 v=0
281440 On ch=1 n=a4 v=0
281466 Par ch=1 c=64 v=0
281616 On ch=1 n=a#5 v=106
281618 On ch=1 n=a#4 v=101
281682 On ch=1 n=a#5 v=0
281688 On ch=1 n=a#4 v=0
281692 On ch=1 n=c6 v=86
281708 On ch=1 n=c5 v=92
281760 On ch=1 n=a#5 v=84
281770 On ch=1 n=a#4 v=88
281790 On ch=1 n=c6 v=0
281798 On ch=1 n=c5 v=0
281824 On ch=1 n=a5 v=92
281840 On ch=1 n=a4 v=81
281866 On ch=1 n=a#4 v=0
281868 On ch=1 n=a#5 v=0
281904 On ch=1 n=g5 v=91
281918 On ch=1 n=a5 v=0
281938 On ch=1 n=g4 v=88
281962 On ch=1 n=a4 v=0
281982 On ch=1 n=c6 v=114
281992 On ch=1 n=g5 v=0
281994 On ch=1 n=c5 v=116
282044 On ch=1 n=g4 v=0
282052 On ch=1 n=c6 v=0
282076 On ch=1 n=c5 v=0
282452 On ch=1 n=e6 v=118
282454 On ch=1 n=c4 v=108
282454 On ch=1 n=c5 v=121
282456 On ch=1 n=g5 v=118
282460 On ch=1 n=c6 v=103
282510 On ch=1 n=c6 v=0
282514 On ch=1 n=c5 v=0
282518 On ch=1 n=g5 v=0
282520 On ch=1 n=c4 v=0
282546 On ch=1 n=e6 v=0
282868 Par ch=1 c=64 v=63
282880 Par ch=1 c=64 v=127
282892 On ch=1 n=f5 v=118
282894 On ch=1 n=f4 v=104
282894 On ch=1 n=f6 v=121
282898 On ch=1 n=a5 v=118
282900 On ch=1 n=c6 v=116
282952 On ch=1 n=f5 v=0
282954 On ch=1 n=c6 v=0
282958 On ch=1 n=a5 v=0
282964 On ch=1 n=f6 v=0
282966 On ch=1 n=f4 v=0
283380 On ch=1 n=f4 v=121
283382 On ch=1 n=f5 v=124
283382 On ch=1 n=f3 v=120
283664 On ch=1 n=f3 v=0
283680 On ch=1 n=f4 v=0
283742 On ch=1 n=f5 v=0
283900 Par ch=1 c=64 v=63
283916 Par ch=1 c=64 v=0
286080 Par ch=1 c=64 v=0
286080 Meta TrkEnd
TrkEnd
MTrk
0 SeqSpec 43 00 01 00
0 Meta TrkName "                                    "
0 TimeSig 3/4 24 8
0 Meta TrkEnd
TrkEnd
MTrk
0 SeqSpec 43 00 01 00
0 Meta TrkName "                                    "
0 TimeSig 3/4 24 8
0 Meta TrkEnd
TrkEnd
MTrk
0 SeqSpec 43 00 01 00
0 Meta TrkName "                                    "
0 TimeSig 3/4 24 8
0 Meta TrkEnd
TrkEnd
MTrk
0 SeqSpec 43 00 01 00
0 Meta TrkName "                                    "
0 TimeSig 3/4 24 8
0 Meta TrkEnd
TrkEnd
MTrk
0 SeqSpec 43 00 01 00
0 Meta TrkName "                                    "
0 TimeSig 3/4 24 8
0 Meta TrkEnd
TrkEnd
MTrk
0 SeqSpec 43 00 01 00
0 Meta TrkName "                                    "
0 TimeSig 3/4 24 8
0 Meta TrkEnd
TrkEnd
MTrk
0 SeqSpec 43 00 01 00
0 Meta TrkName "                                    "
0 TimeSig 3/4 24 8
0 Meta TrkEnd
TrkEnd
MTrk
0 SeqSpec 43 00 01 00
0 Meta TrkName "                                    "
0 TimeSig 3/4 24 8
0 Meta TrkEnd
TrkEnd
MTrk
0 SeqSpec 43 00 01 00
0 Meta TrkName "                                    "
0 TimeSig 3/4 24 8
0 Meta TrkEnd
TrkEnd
MTrk
0 SeqSpec 43 00 01 00
0 Meta TrkName "                                    "
0 TimeSig 3/4 24 8
0 Meta TrkEnd
TrkEnd
MTrk
0 SeqSpec 43 00 01 00
0 Meta TrkName "                                    "
0 TimeSig 3/4 24 8
0 Meta TrkEnd
TrkEnd
MTrk
0 SeqSpec 43 00 01 00
0 Meta TrkName "                                    "
0 TimeSig 3/4 24 8
0 Meta TrkEnd
TrkEnd
MTrk
0 SeqSpec 43 00 01 00
0 Meta TrkName "                                    "
0 TimeSig 3/4 24 8
0 Meta TrkEnd
TrkEnd
MTrk
0 SeqSpec 43 00 01 00
0 Meta TrkName "                                    "
0 TimeSig 3/4 24 8
0 Meta TrkEnd
TrkEnd
MTrk
0 SeqSpec 43 00 01 00
0 Meta TrkName "                                    "
0 TimeSig 3/4 24 8
0 Meta TrkEnd
TrkEnd
MTrk
0 SeqSpec 43 00 01 00
0 Meta TrkName "                                    "
0 TimeSig 3/4 24 8
0 Meta TrkEnd
TrkEnd
