MFile 1 18 480
MTrk
0 Tempo 500000
0 TimeSig 4/4 24 8
0 Meta TrkEnd
TrkEnd
MTrk
0 SeqSpec 43 00 01 00
0 Meta TrkName "PIANO                               "
0 TimeSig 4/4 24 8
0 SysEx f0 41 10 42 12 40 00 7f 00 41 f7
0 SysEx f0 41 10 42 12 40 00 04 64 58 f7
340 SysEx f0 41 10 42 12 40 01 30 03 0c f7
340 SysEx f0 41 10 42 12 40 01 33 50 3c f7
340 SysEx f0 41 10 42 12 40 01 34 3c 4f f7
744 Par ch=1 c=0 v=0
748 Par ch=1 c=32 v=1
752 PrCh ch=1 p=0
756 Par ch=1 c=7 v=100
948 Par ch=1 c=11 v=100
1140 Par ch=1 c=10 v=64
1332 Par ch=1 c=1 v=0
1332 Par ch=1 c=91 v=80
1350 Par ch=1 c=99 v=1
1354 Par ch=1 c=98 v=32
1358 Par ch=1 c=6 v=62
1362 Par ch=1 c=99 v=1
1366 Par ch=1 c=98 v=33
1370 Par ch=1 c=6 v=54
1374 Par ch=1 c=99 v=1
1378 Par ch=1 c=98 v=99
1382 Par ch=1 c=6 v=62
1386 Par ch=1 c=99 v=1
1390 Par ch=1 c=98 v=100
1394 Par ch=1 c=6 v=60
1398 Par ch=1 c=99 v=1
1402 Par ch=1 c=98 v=102
1406 Par ch=1 c=6 v=70
2670 On ch=1 n=f6 v=71
2722 Par ch=1 c=64 v=63
2742 Par ch=1 c=64 v=127
3040 On ch=1 n=a#4 v=44
3204 On ch=1 n=f6 v=0
3212 On ch=1 n=d6 v=65
3390 On ch=1 n=a#5 v=79
3402 On ch=1 n=d6 v=0
3408 On ch=1 n=d5 v=48
3412 Par ch=1 c=64 v=63
3432 On ch=1 n=a#4 v=0
3462 Par ch=1 c=64 v=0
3464 On ch=1 n=a#5 v=0
3760 On ch=1 n=a#5 v=92
3768 On ch=1 n=g5 v=55
3782 On ch=1 n=d5 v=0
3830 On ch=1 n=a#5 v=0
4112 On ch=1 n=d#6 v=89
4124 On ch=1 n=c5 v=49
4136 On ch=1 n=g5 v=0
4136 Par ch=1 c=64 v=63
4174 Par ch=1 c=64 v=127
4430 Par ch=1 c=64 v=63
4470 On ch=1 n=g6 v=73
4488 On ch=1 n=d#5 v=60
4498 Par ch=1 c=64 v=0
4506 On ch=1 n=d#6 v=0
4514 On ch=1 n=c5 v=0
4580 On ch=1 n=g6 v=0
4852 On ch=1 n=a5 v=75
4868 On ch=1 n=f5 v=50
4894 Par ch=1 c=64 v=63
4904 On ch=1 n=d#5 v=0
4960 Par ch=1 c=64 v=127
5028 Par ch=1 c=64 v=63
5136 Par ch=1 c=64 v=0
5172 Par ch=1 c=64 v=63
5218 On ch=1 n=d#5 v=72
5242 On ch=1 n=a5 v=0
5246 On ch=1 n=f5 v=0
5270 Par ch=1 c=64 v=127
5324 Par ch=1 c=64 v=63
5586 On ch=1 n=d5 v=60
5592 On ch=1 n=c6 v=86
5616 On ch=1 n=d#5 v=0
5744 On ch=1 n=a#5 v=91
5772 On ch=1 n=c6 v=0
5844 On ch=1 n=a#5 v=0
5924 On ch=1 n=d5 v=0
5934 Par ch=1 c=64 v=0
5940 On ch=1 n=d6 v=90
5942 On ch=1 n=a4 v=69
5950 Par ch=1 c=64 v=63
6062 On ch=1 n=d6 v=0
6080 On ch=1 n=c6 v=76
6216 On ch=1 n=c6 v=0
6268 On ch=1 n=a#4 v=75
6278 On ch=1 n=a4 v=0
6280 On ch=1 n=d#6 v=92
6424 On ch=1 n=d6 v=82
6476 On ch=1 n=d#6 v=0
6534 On ch=1 n=d6 v=0
6600 On ch=1 n=a#4 v=0
6614 On ch=1 n=f6 v=92
6620 On ch=1 n=d#4 v=71
6624 On ch=1 n=c5 v=68
6766 On ch=1 n=d#6 v=95
6802 On ch=1 n=f6 v=0
6842 On ch=1 n=d#4 v=0
6884 On ch=1 n=d#6 v=0
6884 On ch=1 n=c5 v=0
6976 On ch=1 n=a#4 v=73
6990 On ch=1 n=d6 v=86
7000 On ch=1 n=f4 v=56
7004 Par ch=1 c=64 v=0
7128 Par ch=1 c=64 v=63
7170 Par ch=1 c=64 v=127
7278 On ch=1 n=d6 v=0
7338 On ch=1 n=a#4 v=0
7602 On ch=1 n=d#6 v=81
7682 On ch=1 n=d6 v=68
7692 On ch=1 n=d#6 v=0
7754 On ch=1 n=c6 v=73
7782 On ch=1 n=d6 v=0
7782 On ch=1 n=a4 v=44
7810 Par ch=1 c=64 v=63
7864 On ch=1 n=c6 v=0
7884 Par ch=1 c=64 v=0
7950 On ch=1 n=d6 v=85
8036 On ch=1 n=d6 v=0
8118 On ch=1 n=d#6 v=95
8182 On ch=1 n=f4 v=0
8196 On ch=1 n=d#6 v=0
8224 On ch=1 n=a4 v=0
8260 On ch=1 n=e6 v=94
8340 On ch=1 n=e6 v=0
8482 On ch=1 n=f6 v=93
8538 Par ch=1 c=64 v=63
8546 Par ch=1 c=64 v=127
8852 On ch=1 n=a#4 v=76
8974 On ch=1 n=f6 v=0
8974 On ch=1 n=d#6 v=84
9048 On ch=1 n=d6 v=68
9084 On ch=1 n=d#6 v=0
9100 On ch=1 n=c6 v=74
9128 On ch=1 n=d6 v=0
9166 On ch=1 n=a#4 v=0
9178 On ch=1 n=a#5 v=89
9186 On ch=1 n=d5 v=71
9196 On ch=1 n=c6 v=0
9198 Par ch=1 c=64 v=63
9216 Par ch=1 c=64 v=0
9242 On ch=1 n=a#5 v=0
9556 On ch=1 n=a#5 v=97
9562 On ch=1 n=d5 v=0
9564 On ch=1 n=g5 v=52
9622 On ch=1 n=a#5 v=0
9902 On ch=1 n=d#6 v=90
9906 On ch=1 n=c5 v=62
9928 On ch=1 n=g5 v=0
9936 Par ch=1 c=64 v=63
9944 Par ch=1 c=64 v=127
10266 Par ch=1 c=64 v=63
10268 On ch=1 n=g6 v=79
10274 On ch=1 n=d#5 v=69
10286 Par ch=1 c=64 v=0
10302 On ch=1 n=c5 v=0
10310 On ch=1 n=d#6 v=0
10358 On ch=1 n=g6 v=0
10644 On ch=1 n=a5 v=84
10654 On ch=1 n=f5 v=51
10702 On ch=1 n=d#5 v=0
10706 Par ch=1 c=64 v=63
10714 Par ch=1 c=64 v=127
10926 On ch=1 n=a5 v=0
10992 On ch=1 n=d#5 v=70
11004 On ch=1 n=f5 v=0
11008 Par ch=1 c=64 v=63
11030 Par ch=1 c=64 v=0
11120 On ch=1 n=a5 v=84
11218 On ch=1 n=a5 v=0
11316 On ch=1 n=d5 v=64
11324 On ch=1 n=a#5 v=94
11326 On ch=1 n=d#5 v=0
11326 Par ch=1 c=64 v=63
11336 Par ch=1 c=64 v=127
11424 On ch=1 n=d5 v=0
11488 On ch=1 n=d6 v=81
11498 On ch=1 n=a#5 v=0
11640 Par ch=1 c=64 v=63
11656 Par ch=1 c=64 v=0
11662 On ch=1 n=d#5 v=88
11664 On ch=1 n=d#4 v=92
11678 On ch=1 n=d6 v=0
11682 On ch=1 n=g5 v=75
11758 On ch=1 n=d#4 v=0
11766 On ch=1 n=d#5 v=0
11798 On ch=1 n=g5 v=0
11830 On ch=1 n=c6 v=84
12010 On ch=1 n=a#5 v=98
12022 On ch=1 n=d5 v=49
12024 On ch=1 n=f4 v=67
12042 On ch=1 n=c6 v=0
12070 Par ch=1 c=64 v=63
12078 Par ch=1 c=64 v=127
12166 On ch=1 n=d5 v=0
12362 On ch=1 n=a5 v=79
12380 On ch=1 n=c5 v=67
12382 Par ch=1 c=64 v=63
12400 Par ch=1 c=64 v=0
12438 On ch=1 n=a#5 v=0
12592 On ch=1 n=c5 v=0
12638 On ch=1 n=a5 v=0
12704 On ch=1 n=f4 v=0
12718 On ch=1 n=a#4 v=82
12730 On ch=1 n=a#5 v=76
12734 Par ch=1 c=64 v=63
12748 Par ch=1 c=64 v=127
12844 On ch=1 n=a#5 v=0
12872 On ch=1 n=f5 v=69
12962 On ch=1 n=f5 v=0
13006 Par ch=1 c=64 v=63
13008 On ch=1 n=a#4 v=0
13026 Par ch=1 c=64 v=0
13068 On ch=1 n=g5 v=88
13130 On ch=1 n=g5 v=0
13216 On ch=1 n=a5 v=91
13292 On ch=1 n=a5 v=0
13392 On ch=1 n=a#5 v=110
13464 On ch=1 n=a#5 v=0
13560 On ch=1 n=c6 v=102
13630 On ch=1 n=c6 v=0
13730 On ch=1 n=d6 v=111
13790 On ch=1 n=d6 v=0
13884 On ch=1 n=d#6 v=110
13948 On ch=1 n=d#6 v=0
14038 Par ch=1 c=64 v=63
14038 Par ch=1 c=64 v=127
14060 On ch=1 n=f6 v=117
14064 On ch=1 n=a#4 v=96
14136 On ch=1 n=f6 v=0
14158 On ch=1 n=a#4 v=0
14234 On ch=1 n=f5 v=52
14350 On ch=1 n=f5 v=0
14450 On ch=1 n=d5 v=85
14514 On ch=1 n=d5 v=0
14584 On ch=1 n=f5 v=71
14620 On ch=1 n=d6 v=94
14696 On ch=1 n=d6 v=0
14736 On ch=1 n=f5 v=0
14756 Par ch=1 c=64 v=63
14764 Par ch=1 c=64 v=0
14780 On ch=1 n=g4 v=82
14784 On ch=1 n=a#5 v=108
14838 On ch=1 n=a#5 v=0
14940 On ch=1 n=d5 v=68
14980 On ch=1 n=g4 v=0
15130 On ch=1 n=a#4 v=75
15132 On ch=1 n=a#5 v=106
15142 On ch=1 n=d5 v=0
15148 Par ch=1 c=64 v=63
15152 Par ch=1 c=64 v=127
15176 On ch=1 n=a#5 v=0
15242 On ch=1 n=a#4 v=0
15286 On ch=1 n=d5 v=68
15432 Par ch=1 c=64 v=63
15438 On ch=1 n=d5 v=0
15448 Par ch=1 c=64 v=0
15452 On ch=1 n=d#4 v=95
15472 On ch=1 n=d#6 v=108
15474 Par ch=1 c=64 v=63
15500 Par ch=1 c=64 v=127
15568 On ch=1 n=d#6 v=0
15634 On ch=1 n=d#4 v=0
15648 On ch=1 n=f6 v=91
15666 On ch=1 n=c5 v=64
15704 On ch=1 n=d#6 v=87
15734 On ch=1 n=f6 v=0
15738 On ch=1 n=d6 v=96
15758 On ch=1 n=d#6 v=0
15778 On ch=1 n=d#6 v=72
15780 Par ch=1 c=64 v=63
15788 Par ch=1 c=64 v=0
15814 On ch=1 n=c5 v=0
15818 On ch=1 n=g4 v=76
15820 On ch=1 n=d6 v=0
15834 On ch=1 n=g6 v=94
15856 On ch=1 n=d#6 v=0
15898 On ch=1 n=g6 v=0
15978 On ch=1 n=g4 v=0
16004 On ch=1 n=c5 v=65
16144 Par ch=1 c=64 v=63
16148 Par ch=1 c=64 v=127
16166 On ch=1 n=c5 v=0
16172 On ch=1 n=f4 v=57
16178 On ch=1 n=a5 v=97
16336 On ch=1 n=d#5 v=80
16360 On ch=1 n=f4 v=0
16398 On ch=1 n=a5 v=0
16504 On ch=1 n=d#5 v=0
16522 On ch=1 n=c5 v=84
16656 On ch=1 n=c5 v=0
16658 On ch=1 n=d#5 v=89
16732 On ch=1 n=d#5 v=0
16842 On ch=1 n=d5 v=87
16846 On ch=1 n=c6 v=90
16852 Par ch=1 c=64 v=63
16866 Par ch=1 c=64 v=0
16996 On ch=1 n=a#5 v=92
17014 On ch=1 n=d5 v=0
17030 Par ch=1 c=64 v=63
17036 On ch=1 n=c6 v=0
17050 Par ch=1 c=64 v=127
17102 On ch=1 n=a#5 v=0
17190 On ch=1 n=d6 v=92
17198 On ch=1 n=a4 v=86
17202 On ch=1 n=f5 v=85
17218 Par ch=1 c=64 v=63
17338 On ch=1 n=d6 v=0
17346 On ch=1 n=c6 v=88
17366 Par ch=1 c=64 v=127
17454 On ch=1 n=a4 v=0
17530 On ch=1 n=d#6 v=108
17552 On ch=1 n=a#4 v=87
17564 On ch=1 n=c6 v=0
17572 Par ch=1 c=64 v=63
17600 Par ch=1 c=64 v=0
17604 On ch=1 n=f5 v=0
17662 Par ch=1 c=64 v=63
17674 On ch=1 n=d6 v=96
17680 On ch=1 n=a#4 v=0
17702 Par ch=1 c=64 v=127
17732 On ch=1 n=d#6 v=0
17786 On ch=1 n=d6 v=0
17838 Par ch=1 c=64 v=63
17854 On ch=1 n=f6 v=103
17854 Par ch=1 c=64 v=0
17860 On ch=1 n=c5 v=90
17860 On ch=1 n=d#4 v=91
17978 On ch=1 n=d#4 v=0
18014 On ch=1 n=d#6 v=106
18072 On ch=1 n=f6 v=0
18088 On ch=1 n=c5 v=0
18192 On ch=1 n=d#6 v=0
18214 On ch=1 n=a#4 v=90
18216 On ch=1 n=d6 v=106
18222 On ch=1 n=f4 v=82
18278 Par ch=1 c=64 v=63
18282 Par ch=1 c=64 v=127
18418 On ch=1 n=d6 v=0
18490 On ch=1 n=a#4 v=0
18810 On ch=1 n=d#6 v=90
18868 On ch=1 n=d6 v=84
18884 On ch=1 n=d#6 v=0
18934 Par ch=1 c=64 v=63
18946 Par ch=1 c=64 v=0
18946 On ch=1 n=c6 v=83
18958 On ch=1 n=d6 v=0
18974 On ch=1 n=a4 v=51
19028 On ch=1 n=c6 v=0
19116 On ch=1 n=d6 v=100
19190 On ch=1 n=d6 v=0
19282 On ch=1 n=d#6 v=108
19328 Par ch=1 c=64 v=63
19334 Par ch=1 c=64 v=127
19342 On ch=1 n=f4 v=0
19354 On ch=1 n=d#6 v=0
19364 On ch=1 n=a4 v=0
19432 On ch=1 n=e6 v=98
19516 Par ch=1 c=64 v=63
19524 On ch=1 n=e6 v=0
19524 Par ch=1 c=64 v=0
19612 On ch=1 n=a#4 v=80
19626 On ch=1 n=f6 v=114
19642 Par ch=1 c=64 v=63
19654 Par ch=1 c=64 v=127
19746 On ch=1 n=a#4 v=0
19806 On ch=1 n=f5 v=73
19830 On ch=1 n=f6 v=0
19916 On ch=1 n=f5 v=0
19988 On ch=1 n=d5 v=81
20064 On ch=1 n=d5 v=0
20130 On ch=1 n=d#6 v=91
20146 On ch=1 n=f5 v=64
20196 On ch=1 n=d6 v=84
20216 On ch=1 n=d#6 v=0
20238 Par ch=1 c=64 v=63
20240 On ch=1 n=c6 v=83
20244 Par ch=1 c=64 v=0
20274 On ch=1 n=f5 v=0
20280 On ch=1 n=d6 v=0
20298 On ch=1 n=a#5 v=103
20300 On ch=1 n=g4 v=75
20322 On ch=1 n=c6 v=0
20358 On ch=1 n=a#5 v=0
20476 On ch=1 n=d5 v=66
20502 On ch=1 n=a#5 v=100
20514 On ch=1 n=g4 v=0
20544 On ch=1 n=a#5 v=0
20632 On ch=1 n=d5 v=0
20646 On ch=1 n=a#4 v=66
20668 On ch=1 n=a#5 v=96
20708 On ch=1 n=a#5 v=0
20770 On ch=1 n=a#4 v=0
20802 On ch=1 n=a#5 v=98
20810 On ch=1 n=d5 v=75
20872 On ch=1 n=a#5 v=0
20940 On ch=1 n=d5 v=0
20976 On ch=1 n=d#4 v=94
20980 Par ch=1 c=64 v=63
20982 Par ch=1 c=64 v=127
20988 On ch=1 n=d#6 v=101
21062 On ch=1 n=d#6 v=0
21134 On ch=1 n=f6 v=100
21156 On ch=1 n=d#4 v=0
21182 On ch=1 n=d#6 v=88
21206 On ch=1 n=c5 v=56
21222 On ch=1 n=f6 v=0
21234 On ch=1 n=d6 v=99
21246 On ch=1 n=d#6 v=0
21266 Par ch=1 c=64 v=63
21268 On ch=1 n=d#6 v=79
21272 Par ch=1 c=64 v=0
21314 On ch=1 n=d6 v=0
21318 On ch=1 n=g4 v=72
21320 On ch=1 n=c5 v=0
21326 On ch=1 n=g6 v=98
21350 On ch=1 n=d#6 v=0
21388 On ch=1 n=g6 v=0
21472 On ch=1 n=g4 v=0
21498 On ch=1 n=c5 v=57
21640 On ch=1 n=c5 v=0
21648 Par ch=1 c=64 v=63
21650 Par ch=1 c=64 v=127
21664 On ch=1 n=a5 v=109
21666 On ch=1 n=f4 v=65
21738 On ch=1 n=a5 v=0
21828 On ch=1 n=f4 v=0
21832 On ch=1 n=d#5 v=81
21986 On ch=1 n=d#5 v=0
22014 On ch=1 n=c5 v=71
22118 On ch=1 n=c5 v=0
22138 On ch=1 n=d#5 v=95
22176 On ch=1 n=a6 v=112
22206 On ch=1 n=d#5 v=0
22348 On ch=1 n=a#4 v=88
22348 On ch=1 n=d4 v=80
22354 On ch=1 n=a#6 v=112
22396 Par ch=1 c=64 v=63
22400 On ch=1 n=a6 v=0
22410 Par ch=1 c=64 v=0
22462 Par ch=1 c=64 v=63
22494 On ch=1 n=f6 v=101
22496 Par ch=1 c=64 v=127
22514 On ch=1 n=a#6 v=0
22594 On ch=1 n=f6 v=0
22600 On ch=1 n=d6 v=86
22692 On ch=1 n=d4 v=0
22698 On ch=1 n=d6 v=0
22722 On ch=1 n=d#4 v=91
22730 On ch=1 n=g6 v=103
22768 Par ch=1 c=64 v=63
22838 Par ch=1 c=64 v=127
22840 On ch=1 n=d#4 v=0
22842 On ch=1 n=a#4 v=0
22854 On ch=1 n=d#6 v=112
22902 On ch=1 n=g6 v=0
22950 On ch=1 n=c6 v=97
22982 On ch=1 n=d#6 v=0
23050 On ch=1 n=c6 v=0
23088 On ch=1 n=d5 v=94
23090 On ch=1 n=f4 v=91
23092 On ch=1 n=f6 v=86
23106 Par ch=1 c=64 v=63
23120 Par ch=1 c=64 v=0
23172 On ch=1 n=d5 v=0
23208 On ch=1 n=d6 v=96
23226 On ch=1 n=f6 v=0
23308 On ch=1 n=a#5 v=96
23324 On ch=1 n=d6 v=0
23434 On ch=1 n=a#5 v=0
23434 On ch=1 n=d#5 v=93
23446 On ch=1 n=d#6 v=103
23518 On ch=1 n=d#5 v=0
23548 On ch=1 n=f4 v=0
23560 On ch=1 n=c6 v=90
23572 On ch=1 n=d#6 v=0
23654 On ch=1 n=c6 v=0
23656 On ch=1 n=a5 v=76
23766 On ch=1 n=a5 v=0
23796 On ch=1 n=d5 v=101
23798 On ch=1 n=a#5 v=115
23802 Par ch=1 c=64 v=63
23802 On ch=1 n=a#4 v=92
23804 Par ch=1 c=64 v=127
23858 On ch=1 n=d5 v=0
23864 On ch=1 n=a#5 v=0
23866 On ch=1 n=a#4 v=0
24174 On ch=1 n=a#3 v=110
24218 On ch=1 n=a#3 v=0
24250 Par ch=1 c=64 v=63
24260 Par ch=1 c=64 v=0
24380 On ch=1 n=f5 v=83
24474 On ch=1 n=f5 v=0
24560 On ch=1 n=a#5 v=106
24644 On ch=1 n=a#5 v=0
24728 On ch=1 n=a5 v=97
24806 On ch=1 n=a5 v=0
24892 On ch=1 n=a#5 v=112
24964 On ch=1 n=a#5 v=0
25036 On ch=1 n=c6 v=99
25130 On ch=1 n=c6 v=0
25224 On ch=1 n=d6 v=102
25238 Par ch=1 c=64 v=63
25240 Par ch=1 c=64 v=127
25318 On ch=1 n=d6 v=0
25604 On ch=1 n=a#4 v=98
25620 On ch=1 n=d6 v=83
25632 On ch=1 n=a#5 v=80
25670 Par ch=1 c=64 v=63
25688 Par ch=1 c=64 v=0
25694 On ch=1 n=a#5 v=0
25726 On ch=1 n=d6 v=0
25982 On ch=1 n=d6 v=99
25992 On ch=1 n=a#5 v=97
26000 On ch=1 n=g4 v=85
26012 On ch=1 n=a#4 v=0
26342 On ch=1 n=a#5 v=0
26352 On ch=1 n=d#6 v=100
26356 On ch=1 n=c6 v=88
26362 On ch=1 n=d6 v=0
26362 On ch=1 n=d#4 v=101
26392 On ch=1 n=g4 v=0
26444 On ch=1 n=c6 v=0
26460 On ch=1 n=d#4 v=0
26468 On ch=1 n=d#6 v=0
26742 On ch=1 n=c6 v=97
26746 On ch=1 n=f4 v=86
26754 On ch=1 n=a5 v=81
26816 Par ch=1 c=64 v=63
26822 Par ch=1 c=64 v=127
26932 On ch=1 n=a5 v=0
26966 On ch=1 n=c6 v=0
27036 On ch=1 n=f4 v=0
27118 On ch=1 n=f3 v=100
27164 On ch=1 n=f3 v=0
27296 On ch=1 n=f5 v=84
27406 On ch=1 n=f5 v=0
27442 Par ch=1 c=64 v=63
27450 Par ch=1 c=64 v=0
27502 On ch=1 n=c6 v=98
27618 On ch=1 n=c6 v=0
27654 On ch=1 n=a#5 v=105
27738 On ch=1 n=a#5 v=0
27836 On ch=1 n=c6 v=104
27920 On ch=1 n=c6 v=0
27986 On ch=1 n=d6 v=100
28076 On ch=1 n=d6 v=0
28166 On ch=1 n=d#6 v=114
28174 Par ch=1 c=64 v=63
28180 Par ch=1 c=64 v=127
28242 On ch=1 n=d#6 v=0
28518 On ch=1 n=c5 v=89
28528 On ch=1 n=d#6 v=107
28546 On ch=1 n=g5 v=87
28570 Par ch=1 c=64 v=63
28576 Par ch=1 c=64 v=0
28626 On ch=1 n=g5 v=0
28626 On ch=1 n=d#6 v=0
28888 On ch=1 n=c5 v=0
28920 On ch=1 n=d#6 v=112
28924 On ch=1 n=a4 v=82
28928 On ch=1 n=c6 v=99
28990 Par ch=1 c=64 v=63
28996 Par ch=1 c=64 v=127
29246 On ch=1 n=d#6 v=0
29252 On ch=1 n=c6 v=0
29254 On ch=1 n=a4 v=0
29264 Par ch=1 c=64 v=63
29278 Par ch=1 c=64 v=0
29288 On ch=1 n=f6 v=94
29292 On ch=1 n=f4 v=87
29300 On ch=1 n=a5 v=92
29310 Par ch=1 c=64 v=63
29338 Par ch=1 c=64 v=127
29370 On ch=1 n=f4 v=0
29370 On ch=1 n=f6 v=0
29394 On ch=1 n=a5 v=0
29446 Par ch=1 c=64 v=63
29468 Par ch=1 c=64 v=0
29676 On ch=1 n=d6 v=99
29680 On ch=1 n=a#4 v=84
29692 On ch=1 n=a#5 v=100
29696 Par ch=1 c=64 v=63
29704 Par ch=1 c=64 v=127
29754 On ch=1 n=a#4 v=0
29790 On ch=1 n=a#5 v=0
29806 On ch=1 n=d6 v=0
30052 On ch=1 n=a#3 v=97
30092 On ch=1 n=a#3 v=0
30236 On ch=1 n=a#5 v=93
30344 On ch=1 n=a#5 v=0
30408 On ch=1 n=d6 v=99
30432 Par ch=1 c=64 v=63
30442 Par ch=1 c=64 v=0
30540 On ch=1 n=d6 v=0
30590 On ch=1 n=c6 v=104
30676 On ch=1 n=c6 v=0
30762 On ch=1 n=d6 v=106
30840 On ch=1 n=d6 v=0
30924 On ch=1 n=e6 v=98
30996 On ch=1 n=e6 v=0
31082 Par ch=1 c=64 v=63
31086 Par ch=1 c=64 v=127
31110 On ch=1 n=f6 v=109
31246 On ch=1 n=f6 v=0
31276 On ch=1 n=a4 v=84
31380 On ch=1 n=a4 v=0
31456 On ch=1 n=c5 v=98
31534 On ch=1 n=c5 v=0
31572 Par ch=1 c=64 v=63
31584 On ch=1 n=f6 v=106
31588 Par ch=1 c=64 v=0
31590 On ch=1 n=a4 v=90
31682 On ch=1 n=g6 v=98
31708 On ch=1 n=f6 v=0
31762 On ch=1 n=a4 v=0
31806 On ch=1 n=f5 v=98
31816 On ch=1 n=g6 v=0
31818 On ch=1 n=a6 v=97
31836 Par ch=1 c=64 v=63
31846 Par ch=1 c=64 v=127
31940 On ch=1 n=g6 v=91
31994 On ch=1 n=a6 v=0
32058 On ch=1 n=f6 v=100
32112 On ch=1 n=g6 v=0
32178 On ch=1 n=f5 v=0
32178 On ch=1 n=e6 v=98
32190 Par ch=1 c=64 v=63
32210 On ch=1 n=f6 v=0
32212 Par ch=1 c=64 v=0
32292 On ch=1 n=e6 v=0
32294 On ch=1 n=d6 v=92
32386 On ch=1 n=d6 v=0
32410 On ch=1 n=c6 v=97
32512 On ch=1 n=c6 v=0
32538 On ch=1 n=a#5 v=108
32548 Par ch=1 c=64 v=63
32552 Par ch=1 c=64 v=127
32626 On ch=1 n=a#5 v=0
32690 On ch=1 n=g4 v=91
32860 On ch=1 n=a#4 v=104
32876 On ch=1 n=g4 v=0
32920 Par ch=1 c=64 v=63
32936 Par ch=1 c=64 v=0
32956 On ch=1 n=e6 v=103
33006 On ch=1 n=g4 v=89
33030 On ch=1 n=a#4 v=0
33088 On ch=1 n=f6 v=104
33102 On ch=1 n=e6 v=0
33204 On ch=1 n=g4 v=0
33206 On ch=1 n=e5 v=112
33232 On ch=1 n=g6 v=91
33234 On ch=1 n=f6 v=0
33244 Par ch=1 c=64 v=63
33252 Par ch=1 c=64 v=127
33354 On ch=1 n=f6 v=92
33396 On ch=1 n=g6 v=0
33474 On ch=1 n=e6 v=88
33514 On ch=1 n=f6 v=0
33574 On ch=1 n=d6 v=96
33592 Par ch=1 c=64 v=63
33602 On ch=1 n=e5 v=0
33604 On ch=1 n=e6 v=0
33610 Par ch=1 c=64 v=0
33680 On ch=1 n=d6 v=0
33694 On ch=1 n=c6 v=77
33788 On ch=1 n=c6 v=0
33800 On ch=1 n=a#5 v=86
33854 On ch=1 n=a#5 v=0
33924 On ch=1 n=f5 v=87
33940 On ch=1 n=a5 v=84
33942 Par ch=1 c=64 v=63
33956 Par ch=1 c=64 v=127
34006 On ch=1 n=c6 v=93
34018 On ch=1 n=a5 v=0
34110 On ch=1 n=a#5 v=93
34126 On ch=1 n=c6 v=0
34184 On ch=1 n=a#5 v=0
34188 On ch=1 n=a5 v=86
34256 On ch=1 n=a#5 v=91
34282 On ch=1 n=a5 v=0
34304 Par ch=1 c=64 v=63
34326 On ch=1 n=a#5 v=0
34326 On ch=1 n=f5 v=0
34342 Par ch=1 c=64 v=0
34366 On ch=1 n=c6 v=86
34448 On ch=1 n=d6 v=90
34458 On ch=1 n=c6 v=0
34528 On ch=1 n=e6 v=97
34602 On ch=1 n=e6 v=0
34604 On ch=1 n=d6 v=0
34620 On ch=1 n=f6 v=94
34704 On ch=1 n=g6 v=99
34716 On ch=1 n=f6 v=0
34794 On ch=1 n=a6 v=86
34814 On ch=1 n=g6 v=0
34864 On ch=1 n=a#6 v=96
34910 On ch=1 n=a6 v=0
34958 On ch=1 n=c7 v=96
34980 On ch=1 n=a#6 v=0
35000 On ch=1 n=f4 v=106
35002 On ch=1 n=c7 v=0
35148 On ch=1 n=a5 v=99
35150 On ch=1 n=f5 v=87
35188 On ch=1 n=a5 v=0
35200 On ch=1 n=f5 v=0
35318 On ch=1 n=f4 v=0
35362 On ch=1 n=c4 v=89
35390 On ch=1 n=a5 v=84
35392 On ch=1 n=f5 v=81
35408 Par ch=1 c=64 v=63
35414 Par ch=1 c=64 v=127
35516 On ch=1 n=c4 v=0
35564 On ch=1 n=f5 v=0
35584 On ch=1 n=c5 v=76
35600 On ch=1 n=a5 v=0
35816 On ch=1 n=g5 v=71
35828 On ch=1 n=e5 v=63
35830 On ch=1 n=c5 v=0
35846 On ch=1 n=b4 v=51
35954 On ch=1 n=e5 v=0
35990 On ch=1 n=g5 v=0
36000 On ch=1 n=b4 v=0
36010 On ch=1 n=c5 v=67
36238 Par ch=1 c=64 v=63
36296 Par ch=1 c=64 v=0
36318 On ch=1 n=a#4 v=50
36324 On ch=1 n=g6 v=79
36342 On ch=1 n=c5 v=0
36418 Par ch=1 c=64 v=63
36452 Par ch=1 c=64 v=127
36534 On ch=1 n=c5 v=61
36600 On ch=1 n=a#4 v=0
36730 On ch=1 n=c5 v=0
36734 On ch=1 n=a#4 v=68
36892 On ch=1 n=e6 v=79
36900 On ch=1 n=c5 v=63
36906 On ch=1 n=a#4 v=0
36910 On ch=1 n=g6 v=0
36978 On ch=1 n=c6 v=77
37008 On ch=1 n=e6 v=0
37036 Par ch=1 c=64 v=63
37064 On ch=1 n=f6 v=96
37068 On ch=1 n=a4 v=66
37070 Par ch=1 c=64 v=0
37074 On ch=1 n=c5 v=0
37082 On ch=1 n=c6 v=0
37136 On ch=1 n=f6 v=0
37232 On ch=1 n=c5 v=54
37254 On ch=1 n=a4 v=0
37436 On ch=1 n=f#6 v=95
37440 On ch=1 n=c5 v=0
37442 On ch=1 n=a4 v=63
37504 On ch=1 n=f#6 v=0
37586 On ch=1 n=c5 v=60
37592 On ch=1 n=a4 v=0
37792 On ch=1 n=g6 v=85
37796 On ch=1 n=a#4 v=63
37810 On ch=1 n=c5 v=0
37856 Par ch=1 c=64 v=63
37866 Par ch=1 c=64 v=127
37968 On ch=1 n=a#4 v=0
37970 On ch=1 n=c5 v=65
38154 On ch=1 n=c5 v=0
38160 On ch=1 n=a#4 v=70
38230 On ch=1 n=g6 v=0
38298 On ch=1 n=a#4 v=0
38312 On ch=1 n=c5 v=57
38340 On ch=1 n=e6 v=84
38430 On ch=1 n=c6 v=77
38440 On ch=1 n=e6 v=0
38492 On ch=1 n=c5 v=0
38498 Par ch=1 c=64 v=63
38504 On ch=1 n=a4 v=57
38522 Par ch=1 c=64 v=0
38528 On ch=1 n=f6 v=89
38548 On ch=1 n=c6 v=0
38676 On ch=1 n=c5 v=64
38682 On ch=1 n=a4 v=0
38808 Par ch=1 c=64 v=63
38828 Par ch=1 c=64 v=127
38878 On ch=1 n=c5 v=0
38880 On ch=1 n=f6 v=0
38886 On ch=1 n=a4 v=63
38988 Par ch=1 c=64 v=63
39020 Par ch=1 c=64 v=0
39028 On ch=1 n=a4 v=0
39028 On ch=1 n=c5 v=69
39212 On ch=1 n=a#4 v=70
39218 On ch=1 n=g6 v=86
39228 On ch=1 n=c5 v=0
39280 On ch=1 n=g6 v=0
39352 On ch=1 n=a#4 v=0
39384 On ch=1 n=c5 v=55
39420 On ch=1 n=g6 v=91
39500 Par ch=1 c=64 v=63
39512 Par ch=1 c=64 v=127
39586 On ch=1 n=c5 v=0
39590 On ch=1 n=a#4 v=70
39696 On ch=1 n=g6 v=0
39724 On ch=1 n=a#4 v=0
39756 On ch=1 n=c5 v=57
39798 On ch=1 n=e6 v=90
39874 On ch=1 n=c6 v=83
39880 On ch=1 n=e6 v=0
39898 Par ch=1 c=64 v=63
39914 Par ch=1 c=64 v=0
39926 On ch=1 n=c5 v=0
39938 On ch=1 n=f6 v=91
39940 On ch=1 n=a4 v=61
39948 On ch=1 n=c6 v=0
39982 On ch=1 n=f6 v=0
40076 On ch=1 n=a4 v=0
40094 On ch=1 n=c5 v=63
40098 On ch=1 n=f6 v=101
40170 On ch=1 n=f6 v=0
40274 On ch=1 n=f#6 v=106
40280 On ch=1 n=c5 v=0
40282 On ch=1 n=a4 v=68
40342 On ch=1 n=f#6 v=0
40396 On ch=1 n=a4 v=0
40438 On ch=1 n=c5 v=65
40444 On ch=1 n=f#6 v=107
40510 On ch=1 n=f#6 v=0
40610 On ch=1 n=a#4 v=76
40610 On ch=1 n=g6 v=100
40612 On ch=1 n=c5 v=0
40684 On ch=1 n=g6 v=0
40748 On ch=1 n=a#4 v=0
40776 On ch=1 n=c5 v=72
40804 On ch=1 n=g6 v=114
40868 Par ch=1 c=64 v=63
40872 Par ch=1 c=64 v=127
40920 On ch=1 n=g6 v=0
40964 On ch=1 n=a#4 v=72
40972 On ch=1 n=c5 v=0
41088 On ch=1 n=a#4 v=0
41130 On ch=1 n=c5 v=58
41168 On ch=1 n=e6 v=79
41234 On ch=1 n=c6 v=84
41240 On ch=1 n=e6 v=0
41274 Par ch=1 c=64 v=63
41282 Par ch=1 c=64 v=0
41300 On ch=1 n=c5 v=0
41324 On ch=1 n=f6 v=108
41328 On ch=1 n=a4 v=67
41356 On ch=1 n=c6 v=0
41468 Par ch=1 c=64 v=63
41482 On ch=1 n=a4 v=0
41482 Par ch=1 c=64 v=127
41496 On ch=1 n=c5 v=59
41594 On ch=1 n=f6 v=0
41660 On ch=1 n=c5 v=0
41702 On ch=1 n=a4 v=87
41814 On ch=1 n=a4 v=0
41820 On ch=1 n=c5 v=73
41980 On ch=1 n=c5 v=0
42020 On ch=1 n=a#4 v=90
42028 On ch=1 n=f#6 v=118
42064 Par ch=1 c=64 v=63
42104 On ch=1 n=g6 v=84
42122 Par ch=1 c=64 v=0
42124 On ch=1 n=a#4 v=0
42144 On ch=1 n=f#6 v=0
42158 On ch=1 n=c5 v=72
42214 On ch=1 n=a6 v=96
42240 On ch=1 n=g6 v=0
42244 Par ch=1 c=64 v=63
42308 On ch=1 n=g6 v=85
42340 On ch=1 n=a6 v=0
42364 On ch=1 n=a#4 v=92
42368 On ch=1 n=c5 v=0
42398 On ch=1 n=f6 v=98
42432 On ch=1 n=g6 v=0
42476 On ch=1 n=e6 v=103
42504 On ch=1 n=f6 v=0
42520 On ch=1 n=a#4 v=0
42556 On ch=1 n=c5 v=68
42556 On ch=1 n=d6 v=87
42558 On ch=1 n=e6 v=0
42624 On ch=1 n=d6 v=0
42632 On ch=1 n=c6 v=93
42668 On ch=1 n=c6 v=0
42684 On ch=1 n=c5 v=0
42706 On ch=1 n=f6 v=118
42716 Par ch=1 c=64 v=63
42718 On ch=1 n=a4 v=102
42718 Par ch=1 c=64 v=127
42752 On ch=1 n=a4 v=0
42780 On ch=1 n=f6 v=0
42790 On ch=1 n=c6 v=76
42842 On ch=1 n=c6 v=0
42880 On ch=1 n=a6 v=101
42966 On ch=1 n=a6 v=0
42968 On ch=1 n=f6 v=94
42998 Par ch=1 c=64 v=63
43004 Par ch=1 c=64 v=0
43038 On ch=1 n=f6 v=0
43056 On ch=1 n=c7 v=80
43122 On ch=1 n=a6 v=101
43138 On ch=1 n=c7 v=0
43210 On ch=1 n=a6 v=0
43220 On ch=1 n=c7 v=92
43296 On ch=1 n=a6 v=97
43310 On ch=1 n=c7 v=0
43362 On ch=1 n=a6 v=0
43366 On ch=1 n=c7 v=96
43444 On ch=1 n=a#6 v=108
43522 On ch=1 n=c7 v=0
43540 On ch=1 n=a6 v=103
43580 On ch=1 n=a#6 v=0
43646 On ch=1 n=g6 v=79
43650 On ch=1 n=a6 v=0
43712 On ch=1 n=f6 v=89
43718 On ch=1 n=g6 v=0
43730 On ch=1 n=a4 v=85
43736 On ch=1 n=f5 v=90
43782 On ch=1 n=f5 v=0
43784 On ch=1 n=f6 v=0
43792 On ch=1 n=a4 v=0
43800 On ch=1 n=d#6 v=98
43870 On ch=1 n=d#6 v=0
43894 On ch=1 n=d6 v=91
43988 On ch=1 n=d6 v=0
43990 On ch=1 n=c6 v=80
44054 On ch=1 n=c6 v=0
44068 On ch=1 n=a#4 v=113
44072 On ch=1 n=f5 v=102
44100 Par ch=1 c=64 v=63
44102 Par ch=1 c=64 v=127
44104 On ch=1 n=d6 v=86
44164 On ch=1 n=d6 v=0
44178 On ch=1 n=a#5 v=98
44208 On ch=1 n=a#4 v=0
44234 On ch=1 n=a#5 v=0
44238 On ch=1 n=f5 v=0
44260 On ch=1 n=f6 v=97
44316 On ch=1 n=f6 v=0
44334 On ch=1 n=d6 v=106
44392 Par ch=1 c=64 v=63
44398 On ch=1 n=d6 v=0
44398 Par ch=1 c=64 v=0
44420 On ch=1 n=a#6 v=116
44496 On ch=1 n=a#6 v=0
44504 On ch=1 n=f6 v=104
44568 On ch=1 n=f6 v=0
44570 On ch=1 n=d7 v=109
44656 On ch=1 n=a#6 v=113
44688 On ch=1 n=d7 v=0
44744 On ch=1 n=d7 v=104
44748 On ch=1 n=a#6 v=0
44836 On ch=1 n=c7 v=107
44892 On ch=1 n=d7 v=0
44912 On ch=1 n=a#6 v=107
44954 On ch=1 n=c7 v=0
44990 On ch=1 n=a6 v=96
44994 On ch=1 n=a#6 v=0
45074 On ch=1 n=g5 v=111
45076 On ch=1 n=g6 v=92
45078 On ch=1 n=f5 v=114
45080 On ch=1 n=a#4 v=116
45084 On ch=1 n=a6 v=0
45124 On ch=1 n=f5 v=0
45132 On ch=1 n=g5 v=0
45134 On ch=1 n=a#4 v=0
45152 On ch=1 n=g6 v=0
45184 On ch=1 n=f6 v=90
45268 On ch=1 n=e6 v=102
45276 On ch=1 n=f6 v=0
45354 On ch=1 n=e6 v=0
45356 On ch=1 n=d6 v=93
45434 On ch=1 n=d6 v=0
45470 On ch=1 n=c6 v=121
45476 Par ch=1 c=64 v=127
45478 On ch=1 n=c5 v=108
45592 On ch=1 n=c6 v=0
45702 On ch=1 n=c5 v=0
45716 On ch=1 n=a5 v=89
45844 On ch=1 n=a5 v=0
45930 On ch=1 n=f5 v=97
46024 On ch=1 n=f5 v=0
46038 On ch=1 n=a5 v=96
46180 On ch=1 n=a5 v=0
46182 Par ch=1 c=64 v=63
46188 Par ch=1 c=64 v=0
46210 On ch=1 n=g6 v=116
46214 On ch=1 n=c5 v=93
46246 Par ch=1 c=64 v=63
46270 Par ch=1 c=64 v=127
46364 On ch=1 n=g6 v=0
46368 On ch=1 n=c5 v=0
46402 On ch=1 n=a6 v=103
46428 On ch=1 n=a#5 v=80
46470 On ch=1 n=a6 v=0
46492 On ch=1 n=g6 v=89
46528 On ch=1 n=a#5 v=0
46538 On ch=1 n=a6 v=99
46554 On ch=1 n=g6 v=0
46598 On ch=1 n=a6 v=0
46598 On ch=1 n=e5 v=81
46608 On ch=1 n=g6 v=84
46642 On ch=1 n=a6 v=101
46648 On ch=1 n=g6 v=0
46706 On ch=1 n=a6 v=0
46710 On ch=1 n=g6 v=100
46718 On ch=1 n=e5 v=0
46726 On ch=1 n=a#5 v=91
46796 On ch=1 n=a#5 v=0
46804 On ch=1 n=f6 v=99
46808 On ch=1 n=g6 v=0
46870 On ch=1 n=g6 v=88
46890 On ch=1 n=f6 v=0
46908 Par ch=1 c=64 v=63
46918 Par ch=1 c=64 v=0
46936 On ch=1 n=f5 v=106
46962 On ch=1 n=a6 v=106
46980 Par ch=1 c=64 v=63
46990 On ch=1 n=g6 v=0
47000 Par ch=1 c=64 v=127
47064 On ch=1 n=a#6 v=108
47096 On ch=1 n=a6 v=0
47112 On ch=1 n=f5 v=0
47156 On ch=1 n=c7 v=106
47184 On ch=1 n=a#6 v=0
47216 Par ch=1 c=64 v=63
47228 Par ch=1 c=64 v=0
47234 On ch=1 n=a#6 v=93
47274 On ch=1 n=c7 v=0
47328 On ch=1 n=a6 v=79
47340 On ch=1 n=a#6 v=0
47414 On ch=1 n=g6 v=92
47436 On ch=1 n=a6 v=0
47496 On ch=1 n=g6 v=0
47500 On ch=1 n=f6 v=80
47514 On ch=1 n=g5 v=102
47574 On ch=1 n=f6 v=0
47586 On ch=1 n=g5 v=0
47604 On ch=1 n=e6 v=89
47684 On ch=1 n=e6 v=0
47694 On ch=1 n=f6 v=101
47708 On ch=1 n=a5 v=107
47720 Par ch=1 c=64 v=63
47722 Par ch=1 c=64 v=127
47790 On ch=1 n=a5 v=0
47790 On ch=1 n=g6 v=74
47806 On ch=1 n=f6 v=0
47862 On ch=1 n=a6 v=98
47884 On ch=1 n=g6 v=0
47956 On ch=1 n=g6 v=83
47986 On ch=1 n=a6 v=0
48034 Par ch=1 c=64 v=63
48036 On ch=1 n=f6 v=97
48070 On ch=1 n=g6 v=0
48092 Par ch=1 c=64 v=0
48132 On ch=1 n=d#6 v=106
48164 On ch=1 n=f6 v=0
48216 On ch=1 n=d#6 v=0
48226 On ch=1 n=d6 v=91
48248 On ch=1 n=a4 v=99
48310 On ch=1 n=c#6 v=106
48312 On ch=1 n=d6 v=0
48316 On ch=1 n=a4 v=0
48384 On ch=1 n=c#6 v=0
48394 On ch=1 n=d6 v=94
48424 Par ch=1 c=64 v=63
48428 On ch=1 n=a#4 v=119
48440 Par ch=1 c=64 v=127
48496 On ch=1 n=e6 v=93
48502 On ch=1 n=a#4 v=0
48536 On ch=1 n=d6 v=0
48592 On ch=1 n=f6 v=102
48616 On ch=1 n=e6 v=0
48676 On ch=1 n=e6 v=89
48708 On ch=1 n=f6 v=0
48760 On ch=1 n=d6 v=99
48798 On ch=1 n=e6 v=0
48836 On ch=1 n=d6 v=0
48850 On ch=1 n=c6 v=92
48922 On ch=1 n=c6 v=0
48930 On ch=1 n=a#5 v=99
49018 On ch=1 n=a5 v=100
49022 On ch=1 n=a#5 v=0
49088 Par ch=1 c=64 v=63
49096 Par ch=1 c=64 v=0
49112 On ch=1 n=a5 v=0
49116 On ch=1 n=g5 v=94
49120 On ch=1 n=a#3 v=124
49126 On ch=1 n=a#2 v=123
49216 On ch=1 n=a5 v=98
49230 On ch=1 n=g5 v=0
49292 Par ch=1 c=64 v=63
49302 Par ch=1 c=64 v=0
49304 On ch=1 n=a#5 v=108
49322 On ch=1 n=a5 v=0
49394 On ch=1 n=a#5 v=0
49394 On ch=1 n=a5 v=96
49474 On ch=1 n=g5 v=96
49476 On ch=1 n=a#2 v=0
49496 On ch=1 n=a5 v=0
49530 On ch=1 n=a#3 v=0
49558 On ch=1 n=g5 v=0
49574 On ch=1 n=f5 v=93
49652 On ch=1 n=e5 v=111
49682 On ch=1 n=f5 v=0
49738 On ch=1 n=d5 v=109
49750 On ch=1 n=e5 v=0
49830 On ch=1 n=d5 v=0
49868 On ch=1 n=c4 v=108
49870 On ch=1 n=c5 v=114
49960 Par ch=1 c=64 v=63
49964 Par ch=1 c=64 v=127
50076 On ch=1 n=c5 v=0
50120 On ch=1 n=d5 v=87
50132 On ch=1 n=a4 v=75
50198 On ch=1 n=e5 v=81
50204 On ch=1 n=d5 v=0
50236 On ch=1 n=e5 v=0
50274 On ch=1 n=f5 v=87
50318 On ch=1 n=f4 v=79
50344 On ch=1 n=a4 v=0
50360 On ch=1 n=g5 v=99
50382 On ch=1 n=f5 v=0
50432 On ch=1 n=a5 v=89
50456 On ch=1 n=g5 v=0
50502 On ch=1 n=a#5 v=101
50510 On ch=1 n=a4 v=76
50518 On ch=1 n=f4 v=0
50530 On ch=1 n=a5 v=0
50556 On ch=1 n=c4 v=0
50580 On ch=1 n=a#5 v=0
50618 On ch=1 n=c6 v=96
50624 Par ch=1 c=64 v=63
50642 On ch=1 n=c4 v=103
50654 Par ch=1 c=64 v=0
50678 On ch=1 n=a4 v=0
50710 On ch=1 n=d6 v=101
50734 On ch=1 n=c6 v=0
50794 On ch=1 n=e6 v=108
50816 On ch=1 n=d6 v=0
50840 On ch=1 n=a4 v=87
50884 On ch=1 n=e6 v=0
50884 On ch=1 n=f6 v=106
50980 On ch=1 n=g6 v=103
51010 On ch=1 n=f6 v=0
51016 On ch=1 n=f4 v=97
51048 On ch=1 n=a6 v=101
51050 On ch=1 n=a4 v=0
51096 On ch=1 n=g6 v=0
51130 On ch=1 n=a#6 v=105
51162 On ch=1 n=a4 v=90
51190 On ch=1 n=a6 v=0
51208 On ch=1 n=c4 v=0
51226 On ch=1 n=f4 v=0
51226 On ch=1 n=c7 v=100
51284 On ch=1 n=a#6 v=0
51326 On ch=1 n=f6 v=109
51328 On ch=1 n=a4 v=0
51336 On ch=1 n=c4 v=109
51354 On ch=1 n=c7 v=0
51410 Par ch=1 c=64 v=63
51410 Par ch=1 c=64 v=127
51500 On ch=1 n=f6 v=0
51528 On ch=1 n=g6 v=87
51560 On ch=1 n=a#4 v=67
51580 On ch=1 n=a6 v=89
51602 On ch=1 n=g6 v=0
51616 On ch=1 n=c4 v=0
51642 On ch=1 n=a6 v=0
51652 On ch=1 n=g6 v=91
51698 On ch=1 n=a6 v=104
51712 On ch=1 n=a#4 v=0
51716 On ch=1 n=g6 v=0
51740 On ch=1 n=e4 v=76
51758 On ch=1 n=a6 v=0
51780 On ch=1 n=g6 v=97
51828 On ch=1 n=a6 v=104
51856 On ch=1 n=g6 v=0
51892 On ch=1 n=a6 v=0
51898 On ch=1 n=g6 v=103
51910 On ch=1 n=e4 v=0
51926 On ch=1 n=a#4 v=73
51952 On ch=1 n=a6 v=104
51978 On ch=1 n=g6 v=0
52012 On ch=1 n=a6 v=0
52026 On ch=1 n=g6 v=100
52062 On ch=1 n=a#4 v=0
52080 On ch=1 n=a6 v=101
52086 On ch=1 n=c4 v=94
52106 On ch=1 n=g6 v=0
52146 On ch=1 n=a6 v=0
52148 On ch=1 n=g6 v=101
52214 On ch=1 n=a6 v=102
52222 On ch=1 n=a#4 v=70
52236 On ch=1 n=g6 v=0
52248 On ch=1 n=c4 v=0
52274 On ch=1 n=g6 v=94
52278 On ch=1 n=a6 v=0
52336 On ch=1 n=a6 v=98
52354 On ch=1 n=g6 v=0
52394 On ch=1 n=a#4 v=0
52410 On ch=1 n=e4 v=78
52426 On ch=1 n=g6 v=96
52436 On ch=1 n=a6 v=0
52490 On ch=1 n=a6 v=91
52502 On ch=1 n=g6 v=0
52538 On ch=1 n=e4 v=0
52558 On ch=1 n=a#4 v=80
52560 On ch=1 n=a6 v=0
52564 On ch=1 n=g6 v=93
52600 On ch=1 n=a#4 v=0
52640 On ch=1 n=f6 v=94
52648 On ch=1 n=g6 v=0
52698 On ch=1 n=g6 v=91
52728 On ch=1 n=f6 v=0
52792 Par ch=1 c=64 v=63
52810 Par ch=1 c=64 v=0
52822 On ch=1 n=g6 v=0
52826 On ch=1 n=f4 v=88
52828 On ch=1 n=f6 v=113
52832 On ch=1 n=a4 v=86
52902 On ch=1 n=f6 v=0
52986 On ch=1 n=a4 v=0
53010 On ch=1 n=f4 v=0
53070 On ch=1 n=f6 v=90
53106 On ch=1 n=f6 v=0
53288 On ch=1 n=a4 v=63
53304 On ch=1 n=f4 v=52
53484 On ch=1 n=f6 v=90
53566 On ch=1 n=f6 v=0
53688 On ch=1 n=a4 v=0
53704 On ch=1 n=f6 v=89
53718 On ch=1 n=f4 v=0
53782 On ch=1 n=f6 v=0
53872 On ch=1 n=f6 v=102
53908 On ch=1 n=f6 v=0
54052 On ch=1 n=a4 v=93
54074 On ch=1 n=f4 v=83
54112 Par ch=1 c=64 v=63
54124 Par ch=1 c=64 v=127
54242 On ch=1 n=f6 v=104
54312 On ch=1 n=f4 v=0
54322 On ch=1 n=f6 v=0
54396 On ch=1 n=a4 v=0
54418 On ch=1 n=g4 v=76
54428 On ch=1 n=a#4 v=96
54430 On ch=1 n=f6 v=93
54432 On ch=1 n=f4 v=63
54500 Par ch=1 c=64 v=63
54512 On ch=1 n=f6 v=0
54518 Par ch=1 c=64 v=0
54602 On ch=1 n=a#4 v=0
54606 On ch=1 n=f6 v=91
54656 On ch=1 n=g4 v=0
54664 On ch=1 n=f6 v=0
54696 On ch=1 n=f4 v=0
54816 On ch=1 n=g4 v=74
54818 On ch=1 n=a#4 v=80
54818 On ch=1 n=f4 v=68
54880 Par ch=1 c=64 v=63
54884 Par ch=1 c=64 v=127
55010 On ch=1 n=f6 v=89
55084 On ch=1 n=f6 v=0
55134 Par ch=1 c=64 v=63
55146 Par ch=1 c=64 v=0
55204 On ch=1 n=f6 v=83
55252 On ch=1 n=f6 v=0
55342 On ch=1 n=a#4 v=0
55346 On ch=1 n=f6 v=108
55356 On ch=1 n=f4 v=0
55382 On ch=1 n=g4 v=0
55410 On ch=1 n=f6 v=0
55522 On ch=1 n=g#4 v=99
55526 On ch=1 n=b4 v=101
55534 On ch=1 n=f4 v=76
55666 Par ch=1 c=64 v=63
55672 Par ch=1 c=64 v=127
55714 On ch=1 n=f6 v=104
55784 On ch=1 n=g#4 v=0
55802 On ch=1 n=b4 v=0
55812 On ch=1 n=f6 v=0
55880 On ch=1 n=a4 v=80
55890 On ch=1 n=f6 v=89
55898 On ch=1 n=c5 v=85
55926 Par ch=1 c=64 v=63
55932 Par ch=1 c=64 v=0
55968 On ch=1 n=f6 v=0
56012 On ch=1 n=a4 v=0
56022 On ch=1 n=f4 v=0
56034 On ch=1 n=c5 v=0
56068 On ch=1 n=f6 v=103
56138 On ch=1 n=f6 v=0
56262 On ch=1 n=a4 v=87
56264 On ch=1 n=f4 v=80
56268 On ch=1 n=c#5 v=106
56272 Par ch=1 c=64 v=63
56274 Par ch=1 c=64 v=127
56432 On ch=1 n=f6 v=108
56532 On ch=1 n=f6 v=0
56562 On ch=1 n=c#5 v=0
56612 On ch=1 n=f6 v=104
56620 On ch=1 n=a#4 v=103
56624 On ch=1 n=d5 v=101
56662 Par ch=1 c=64 v=63
56666 On ch=1 n=a4 v=0
56668 Par ch=1 c=64 v=0
56690 On ch=1 n=f6 v=0
56740 On ch=1 n=d5 v=0
56742 On ch=1 n=a#4 v=0
56752 On ch=1 n=f4 v=0
56796 On ch=1 n=f6 v=116
56862 On ch=1 n=f6 v=0
56962 Par ch=1 c=64 v=63
56966 Par ch=1 c=64 v=127
56978 On ch=1 n=d5 v=114
56984 On ch=1 n=b4 v=106
56990 On ch=1 n=f4 v=94
57156 On ch=1 n=b4 v=0
57166 On ch=1 n=f6 v=117
57196 On ch=1 n=d5 v=0
57310 On ch=1 n=f6 v=0
57416 Par ch=1 c=64 v=63
57418 On ch=1 n=d#5 v=106
57420 Par ch=1 c=64 v=0
57420 On ch=1 n=f6 v=112
57422 On ch=1 n=c5 v=93
57544 Par ch=1 c=64 v=63
57552 Par ch=1 c=64 v=127
57726 On ch=1 n=a6 v=100
57784 On ch=1 n=f6 v=0
57860 On ch=1 n=a6 v=0
57936 On ch=1 n=a6 v=101
58130 On ch=1 n=c7 v=108
58134 On ch=1 n=a6 v=0
58228 On ch=1 n=c7 v=0
58294 On ch=1 n=c7 v=107
58480 On ch=1 n=d#7 v=105
58506 On ch=1 n=c7 v=0
58572 On ch=1 n=d#7 v=0
58660 On ch=1 n=d#7 v=87
58822 On ch=1 n=d#7 v=0
58832 On ch=1 n=c7 v=96
58918 On ch=1 n=d#5 v=0
58946 On ch=1 n=c7 v=0
59042 On ch=1 n=c7 v=74
59208 On ch=1 n=a6 v=80
59240 On ch=1 n=c7 v=0
59314 On ch=1 n=a6 v=0
59406 On ch=1 n=a6 v=71
59410 On ch=1 n=f4 v=0
59566 On ch=1 n=f6 v=80
59570 On ch=1 n=a6 v=0
59576 On ch=1 n=c5 v=0
59684 On ch=1 n=f6 v=0
59786 On ch=1 n=f6 v=62
59976 On ch=1 n=f6 v=0
59986 On ch=1 n=e6 v=64
60072 On ch=1 n=e6 v=0
60188 On ch=1 n=e6 v=65
60396 On ch=1 n=e6 v=0
60398 Par ch=1 c=64 v=63
60418 On ch=1 n=f6 v=49
60476 Par ch=1 c=64 v=0
60542 On ch=1 n=f6 v=0
60718 Par ch=1 c=64 v=63
60750 On ch=1 n=f6 v=54
60812 Par ch=1 c=64 v=127
61258 On ch=1 n=a#4 v=34
61462 On ch=1 n=d6 v=59
61470 On ch=1 n=f6 v=0
61670 On ch=1 n=d6 v=0
61688 On ch=1 n=a#5 v=66
61700 On ch=1 n=d5 v=57
61754 Par ch=1 c=64 v=63
61760 On ch=1 n=a#5 v=0
61764 On ch=1 n=a#4 v=0
61844 Par ch=1 c=64 v=0
62094 On ch=1 n=a#5 v=80
62098 On ch=1 n=g5 v=45
62112 On ch=1 n=d5 v=0
62184 On ch=1 n=a#5 v=0
62488 Par ch=1 c=64 v=63
62500 On ch=1 n=c5 v=51
62506 On ch=1 n=d#6 v=79
62524 On ch=1 n=g5 v=0
62532 Par ch=1 c=64 v=127
62856 Par ch=1 c=64 v=63
62894 On ch=1 n=d#5 v=66
62898 On ch=1 n=g6 v=75
62934 Par ch=1 c=64 v=0
62940 On ch=1 n=d#6 v=0
62952 On ch=1 n=c5 v=0
62978 On ch=1 n=g6 v=0
63288 Par ch=1 c=64 v=63
63296 On ch=1 n=a5 v=70
63316 On ch=1 n=f5 v=43
63344 On ch=1 n=d#5 v=0
63618 Par ch=1 c=64 v=127
63710 On ch=1 n=d#5 v=61
63720 On ch=1 n=a5 v=0
63732 On ch=1 n=f5 v=0
63960 Par ch=1 c=64 v=63
64044 Par ch=1 c=64 v=0
64114 On ch=1 n=c6 v=70
64116 On ch=1 n=d5 v=46
64148 On ch=1 n=d#5 v=0
64202 Par ch=1 c=64 v=63
64296 On ch=1 n=c6 v=0
64300 On ch=1 n=a#5 v=67
64368 On ch=1 n=a#5 v=0
64370 On ch=1 n=d5 v=0
64374 Par ch=1 c=64 v=0
64488 Par ch=1 c=64 v=63
64490 On ch=1 n=a4 v=52
64492 On ch=1 n=d6 v=83
64570 Par ch=1 c=64 v=127
64608 On ch=1 n=d6 v=0
64640 On ch=1 n=c6 v=73
64716 Par ch=1 c=64 v=63
64748 On ch=1 n=a4 v=0
64754 On ch=1 n=c6 v=0
64774 Par ch=1 c=64 v=0
64834 On ch=1 n=a#4 v=74
64836 On ch=1 n=d#6 v=90
64840 Par ch=1 c=64 v=63
64930 Par ch=1 c=64 v=127
64994 On ch=1 n=a#4 v=0
65010 On ch=1 n=d6 v=71
65028 On ch=1 n=d#6 v=0
65072 Par ch=1 c=64 v=63
65106 On ch=1 n=d6 v=0
65116 Par ch=1 c=64 v=0
65202 On ch=1 n=f6 v=84
65206 On ch=1 n=c5 v=58
65210 Par ch=1 c=64 v=63
65218 On ch=1 n=d#4 v=52
65284 Par ch=1 c=64 v=127
65366 On ch=1 n=d#6 v=94
65386 On ch=1 n=c5 v=0
65388 On ch=1 n=d#4 v=0
65406 On ch=1 n=f6 v=0
65496 On ch=1 n=d#6 v=0
65556 Par ch=1 c=64 v=63
65564 On ch=1 n=a#4 v=69
65572 On ch=1 n=d6 v=91
65588 On ch=1 n=f4 v=67
65630 Par ch=1 c=64 v=0
65660 Par ch=1 c=64 v=63
65742 Par ch=1 c=64 v=127
65866 On ch=1 n=d6 v=0
66206 On ch=1 n=d#6 v=79
66284 On ch=1 n=d6 v=61
66294 On ch=1 n=d#6 v=0
66328 Par ch=1 c=64 v=63
66358 On ch=1 n=a4 v=36
66364 On ch=1 n=c6 v=61
66366 On ch=1 n=a#4 v=0
66378 On ch=1 n=d6 v=0
66394 Par ch=1 c=64 v=0
66464 On ch=1 n=c6 v=0
66552 On ch=1 n=d6 v=79
66672 On ch=1 n=d6 v=0
66672 Par ch=1 c=64 v=63
66726 Par ch=1 c=64 v=127
66746 On ch=1 n=d#6 v=83
66844 On ch=1 n=d#6 v=0
66884 On ch=1 n=f4 v=0
66888 On ch=1 n=e6 v=89
66922 On ch=1 n=a4 v=0
66942 Par ch=1 c=64 v=63
67000 Par ch=1 c=64 v=0
67004 On ch=1 n=e6 v=0
67118 On ch=1 n=f6 v=96
67148 Par ch=1 c=64 v=63
67196 Par ch=1 c=64 v=127
67228 Par ch=1 c=64 v=63
67278 Par ch=1 c=64 v=0
67372 Par ch=1 c=64 v=63
67422 Par ch=1 c=64 v=127
67492 On ch=1 n=a#4 v=74
67656 On ch=1 n=f6 v=0
67686 On ch=1 n=d#6 v=76
67766 On ch=1 n=d6 v=72
67800 On ch=1 n=d#6 v=0
67826 On ch=1 n=c6 v=71
67826 Par ch=1 c=64 v=63
67842 On ch=1 n=d6 v=0
67878 On ch=1 n=a#5 v=85
67888 Par ch=1 c=64 v=0
67890 On ch=1 n=d5 v=59
67902 On ch=1 n=c6 v=0
67916 On ch=1 n=a#4 v=0
67932 On ch=1 n=a#5 v=0
68258 On ch=1 n=d5 v=0
68258 On ch=1 n=g5 v=57
68262 On ch=1 n=a#5 v=94
68322 On ch=1 n=a#5 v=0
68616 On ch=1 n=d#6 v=95
68630 On ch=1 n=c5 v=64
68644 On ch=1 n=g5 v=0
68692 Par ch=1 c=64 v=63
68706 Par ch=1 c=64 v=127
68992 On ch=1 n=d#5 v=65
69018 On ch=1 n=g6 v=66
69026 Par ch=1 c=64 v=63
69052 On ch=1 n=c5 v=0
69066 On ch=1 n=d#6 v=0
69076 Par ch=1 c=64 v=0
69146 On ch=1 n=g6 v=0
69392 On ch=1 n=a5 v=65
69406 On ch=1 n=f5 v=38
69450 On ch=1 n=d#5 v=0
69458 Par ch=1 c=64 v=63
69474 Par ch=1 c=64 v=127
69740 On ch=1 n=a5 v=0
69776 On ch=1 n=d#5 v=70
69808 On ch=1 n=f5 v=0
69826 Par ch=1 c=64 v=63
69870 Par ch=1 c=64 v=0
69926 On ch=1 n=a5 v=73
70028 Par ch=1 c=64 v=63
70056 Par ch=1 c=64 v=127
70102 On ch=1 n=a5 v=0
70132 On ch=1 n=d5 v=64
70132 On ch=1 n=a#5 v=88
70148 On ch=1 n=d#5 v=0
70238 On ch=1 n=d5 v=0
70288 On ch=1 n=d6 v=86
70326 On ch=1 n=a#5 v=0
70426 Par ch=1 c=64 v=63
70482 On ch=1 n=g5 v=82
70482 Par ch=1 c=64 v=0
70490 On ch=1 n=d#5 v=83
70494 On ch=1 n=d6 v=0
70504 On ch=1 n=d#4 v=73
70512 Par ch=1 c=64 v=63
70576 Par ch=1 c=64 v=127
70642 On ch=1 n=c6 v=97
70656 On ch=1 n=g5 v=0
70658 On ch=1 n=d#5 v=0
70722 On ch=1 n=d#4 v=0
70838 On ch=1 n=a#5 v=100
70850 On ch=1 n=d5 v=67
70854 Par ch=1 c=64 v=63
70854 On ch=1 n=f4 v=60
70890 Par ch=1 c=64 v=0
70896 On ch=1 n=c6 v=0
70990 Par ch=1 c=64 v=63
71028 Par ch=1 c=64 v=127
71144 On ch=1 n=d5 v=0
71248 On ch=1 n=a5 v=88
71252 On ch=1 n=c5 v=77
71284 Par ch=1 c=64 v=63
71314 On ch=1 n=a#5 v=0
71316 Par ch=1 c=64 v=0
71356 Par ch=1 c=64 v=63
71398 Par ch=1 c=64 v=127
71552 On ch=1 n=a5 v=0
71586 Par ch=1 c=64 v=63
71602 On ch=1 n=c5 v=0
71608 On ch=1 n=a#4 v=65
71634 On ch=1 n=f4 v=0
71634 On ch=1 n=a#5 v=81
71640 Par ch=1 c=64 v=0
71734 On ch=1 n=a#5 v=0
71808 On ch=1 n=f5 v=84
71890 On ch=1 n=f5 v=0
71968 On ch=1 n=a#4 v=0
71988 On ch=1 n=g5 v=90
72066 On ch=1 n=g5 v=0
72156 On ch=1 n=a5 v=92
72232 On ch=1 n=a5 v=0
72332 On ch=1 n=a#5 v=101
72406 On ch=1 n=a#5 v=0
72506 On ch=1 n=c6 v=106
72578 On ch=1 n=c6 v=0
72684 On ch=1 n=d6 v=101
72736 On ch=1 n=d6 v=0
72834 On ch=1 n=d#6 v=110
72902 On ch=1 n=d#6 v=0
73022 On ch=1 n=f6 v=117
73030 On ch=1 n=a#4 v=88
73048 Par ch=1 c=64 v=63
73054 Par ch=1 c=64 v=127
73110 On ch=1 n=f6 v=0
73126 On ch=1 n=a#4 v=0
73230 On ch=1 n=f5 v=43
73362 On ch=1 n=f5 v=0
73422 On ch=1 n=d5 v=79
73538 On ch=1 n=d5 v=0
73572 On ch=1 n=d6 v=97
73588 On ch=1 n=f5 v=63
73662 On ch=1 n=d6 v=0
73730 On ch=1 n=f5 v=0
73766 On ch=1 n=g4 v=74
73768 On ch=1 n=a#5 v=104
73778 Par ch=1 c=64 v=63
73796 Par ch=1 c=64 v=0
73820 On ch=1 n=a#5 v=0
73946 On ch=1 n=d5 v=63
73948 On ch=1 n=g4 v=0
74124 On ch=1 n=a#5 v=105
74136 On ch=1 n=a#4 v=74
74152 On ch=1 n=d5 v=0
74164 Par ch=1 c=64 v=63
74174 Par ch=1 c=64 v=127
74186 On ch=1 n=a#5 v=0
74278 On ch=1 n=a#4 v=0
74306 On ch=1 n=d5 v=67
74384 Par ch=1 c=64 v=63
74406 Par ch=1 c=64 v=0
74442 Par ch=1 c=64 v=63
74450 On ch=1 n=d5 v=0
74464 On ch=1 n=d#6 v=106
74472 On ch=1 n=d#4 v=89
74474 Par ch=1 c=64 v=127
74544 On ch=1 n=d#6 v=0
74630 On ch=1 n=f6 v=90
74672 On ch=1 n=d#4 v=0
74674 On ch=1 n=d#6 v=88
74704 On ch=1 n=c5 v=51
74712 On ch=1 n=f6 v=0
74712 Par ch=1 c=64 v=63
74728 Par ch=1 c=64 v=0
74734 On ch=1 n=d6 v=91
74740 On ch=1 n=d#6 v=0
74790 On ch=1 n=d#6 v=93
74824 On ch=1 n=g6 v=100
74828 On ch=1 n=d6 v=0
74856 On ch=1 n=d#6 v=0
74864 On ch=1 n=g4 v=71
74884 On ch=1 n=c5 v=0
74908 On ch=1 n=g6 v=0
75014 On ch=1 n=g4 v=0
75030 On ch=1 n=c5 v=70
75184 On ch=1 n=c5 v=0
75184 On ch=1 n=a5 v=102
75196 On ch=1 n=f4 v=65
75208 Par ch=1 c=64 v=63
75212 Par ch=1 c=64 v=127
75376 On ch=1 n=d#5 v=83
75390 On ch=1 n=f4 v=0
75474 On ch=1 n=a5 v=0
75578 On ch=1 n=d#5 v=0
75580 On ch=1 n=c5 v=85
75708 On ch=1 n=d#5 v=98
75724 On ch=1 n=c5 v=0
75804 On ch=1 n=d#5 v=0
75874 On ch=1 n=c6 v=85
75896 On ch=1 n=d5 v=90
75910 Par ch=1 c=64 v=63
75938 Par ch=1 c=64 v=0
76042 On ch=1 n=a#5 v=94
76074 On ch=1 n=c6 v=0
76094 On ch=1 n=d5 v=0
76154 On ch=1 n=a#5 v=0
76238 On ch=1 n=d6 v=96
76238 On ch=1 n=f5 v=90
76240 On ch=1 n=a4 v=84
76382 On ch=1 n=c6 v=92
76400 On ch=1 n=d6 v=0
76538 On ch=1 n=a4 v=0
76580 On ch=1 n=d#6 v=108
76596 On ch=1 n=a#4 v=80
76616 On ch=1 n=c6 v=0
76644 Par ch=1 c=64 v=63
76658 Par ch=1 c=64 v=127
76694 On ch=1 n=f5 v=0
76726 On ch=1 n=d6 v=101
76802 On ch=1 n=d#6 v=0
76830 On ch=1 n=a#4 v=0
76854 On ch=1 n=d6 v=0
76918 On ch=1 n=f6 v=106
76934 On ch=1 n=c5 v=93
76934 On ch=1 n=d#4 v=95
76984 Par ch=1 c=64 v=63
77034 Par ch=1 c=64 v=0
77058 Par ch=1 c=64 v=63
77076 On ch=1 n=d#6 v=108
77126 Par ch=1 c=64 v=127
77164 On ch=1 n=d#4 v=0
77164 On ch=1 n=f6 v=0
77252 On ch=1 n=c5 v=0
77278 On ch=1 n=d6 v=107
77278 On ch=1 n=a#4 v=87
77288 On ch=1 n=f4 v=82
77314 Par ch=1 c=64 v=63
77336 Par ch=1 c=64 v=0
77338 On ch=1 n=d#6 v=0
77536 Par ch=1 c=64 v=63
77550 Par ch=1 c=64 v=127
77604 On ch=1 n=d6 v=0
77910 On ch=1 n=d#6 v=94
77988 On ch=1 n=d6 v=77
78004 On ch=1 n=d#6 v=0
78006 Par ch=1 c=64 v=63
78032 Par ch=1 c=64 v=0
78046 On ch=1 n=c6 v=83
78060 On ch=1 n=a4 v=49
78078 On ch=1 n=d6 v=0
78084 On ch=1 n=a#4 v=0
78144 On ch=1 n=c6 v=0
78232 On ch=1 n=d6 v=97
78316 On ch=1 n=d6 v=0
78402 On ch=1 n=d#6 v=109
78452 On ch=1 n=f4 v=0
78462 On ch=1 n=a4 v=0
78486 On ch=1 n=d#6 v=0
78548 On ch=1 n=e6 v=106
78646 On ch=1 n=e6 v=0
78750 On ch=1 n=a#4 v=91
78758 On ch=1 n=f6 v=113
78804 Par ch=1 c=64 v=63
78808 Par ch=1 c=64 v=127
78876 On ch=1 n=a#4 v=0
78950 On ch=1 n=f5 v=59
78952 On ch=1 n=f6 v=0
79062 On ch=1 n=f5 v=0
79146 On ch=1 n=d5 v=87
79242 On ch=1 n=d5 v=0
79298 On ch=1 n=d#6 v=94
79304 On ch=1 n=f5 v=62
79364 On ch=1 n=d6 v=76
79388 On ch=1 n=d#6 v=0
79420 On ch=1 n=f5 v=0
79424 On ch=1 n=c6 v=94
79430 Par ch=1 c=64 v=63
79444 Par ch=1 c=64 v=0
79446 On ch=1 n=d6 v=0
79466 On ch=1 n=g4 v=70
79490 On ch=1 n=a#5 v=88
79508 On ch=1 n=c6 v=0
79534 On ch=1 n=a#5 v=0
79646 On ch=1 n=g4 v=0
79658 On ch=1 n=d5 v=62
79674 On ch=1 n=a#5 v=94
79734 On ch=1 n=a#5 v=0
79820 On ch=1 n=a#5 v=100
79834 On ch=1 n=a#4 v=76
79850 On ch=1 n=d5 v=0
79880 On ch=1 n=a#5 v=0
79984 On ch=1 n=a#5 v=100
79996 On ch=1 n=a#4 v=0
80012 On ch=1 n=d5 v=74
80052 On ch=1 n=a#5 v=0
80148 On ch=1 n=d5 v=0
80176 On ch=1 n=d#4 v=97
80180 On ch=1 n=d#6 v=106
80208 Par ch=1 c=64 v=63
80212 Par ch=1 c=64 v=127
80246 On ch=1 n=d#6 v=0
80346 On ch=1 n=f6 v=100
80354 On ch=1 n=d#4 v=0
80394 On ch=1 n=d#6 v=93
80404 On ch=1 n=c5 v=47
80428 On ch=1 n=f6 v=0
80450 On ch=1 n=d6 v=90
80462 On ch=1 n=d#6 v=0
80498 On ch=1 n=d#6 v=97
80500 Par ch=1 c=64 v=63
80510 Par ch=1 c=64 v=0
80524 On ch=1 n=d6 v=0
80534 On ch=1 n=g6 v=104
80550 On ch=1 n=c5 v=0
80552 On ch=1 n=g4 v=73
80556 On ch=1 n=d#6 v=0
80604 On ch=1 n=g6 v=0
80712 On ch=1 n=g4 v=0
80728 On ch=1 n=c5 v=70
80880 On ch=1 n=c5 v=0
80902 On ch=1 n=a5 v=112
80904 Par ch=1 c=64 v=63
80908 Par ch=1 c=64 v=127
80908 On ch=1 n=f4 v=77
80990 On ch=1 n=a5 v=0
81076 On ch=1 n=d#5 v=85
81090 On ch=1 n=f4 v=0
81258 On ch=1 n=d#5 v=0
81262 On ch=1 n=c5 v=87
81388 On ch=1 n=c5 v=0
81406 On ch=1 n=d#5 v=92
81412 On ch=1 n=a6 v=112
81472 On ch=1 n=d#5 v=0
81504 Par ch=1 c=64 v=63
81526 Par ch=1 c=64 v=0
81538 On ch=1 n=a6 v=0
81592 On ch=1 n=a#6 v=109
81594 On ch=1 n=d4 v=104
81596 On ch=1 n=a#4 v=107
81608 Par ch=1 c=64 v=63
81642 Par ch=1 c=64 v=127
81692 On ch=1 n=d4 v=0
81722 On ch=1 n=a#6 v=0
81722 On ch=1 n=f6 v=98
81820 On ch=1 n=f6 v=0
81844 On ch=1 n=d6 v=86
81934 On ch=1 n=d6 v=0
81962 Par ch=1 c=64 v=63
81970 On ch=1 n=d#4 v=106
81980 Par ch=1 c=64 v=0
81982 On ch=1 n=g6 v=101
82048 On ch=1 n=d#4 v=0
82082 Par ch=1 c=64 v=63
82092 On ch=1 n=a#4 v=0
82102 On ch=1 n=d#6 v=110
82118 Par ch=1 c=64 v=127
82166 On ch=1 n=g6 v=0
82180 Par ch=1 c=64 v=63
82202 Par ch=1 c=64 v=0
82212 On ch=1 n=c6 v=101
82248 On ch=1 n=d#6 v=0
82304 On ch=1 n=c6 v=0
82330 On ch=1 n=d5 v=97
82334 On ch=1 n=f4 v=99
82342 On ch=1 n=f6 v=97
82344 Par ch=1 c=64 v=63
82372 Par ch=1 c=64 v=127
82424 On ch=1 n=d5 v=0
82448 Par ch=1 c=64 v=63
82460 On ch=1 n=d6 v=102
82482 On ch=1 n=f6 v=0
82486 Par ch=1 c=64 v=0
82576 On ch=1 n=d6 v=0
82584 On ch=1 n=a#5 v=101
82690 On ch=1 n=a#5 v=0
82692 On ch=1 n=d#5 v=105
82710 On ch=1 n=d#6 v=100
82760 On ch=1 n=d#5 v=0
82768 On ch=1 n=f4 v=0
82822 On ch=1 n=c6 v=90
82826 On ch=1 n=d#6 v=0
82912 On ch=1 n=c6 v=0
82924 On ch=1 n=a5 v=84
83022 On ch=1 n=a5 v=0
83068 On ch=1 n=a#5 v=110
83070 On ch=1 n=d5 v=97
83076 On ch=1 n=a#4 v=89
83082 Par ch=1 c=64 v=63
83084 Par ch=1 c=64 v=127
83118 On ch=1 n=a#5 v=0
83126 On ch=1 n=a#4 v=0
83128 On ch=1 n=d5 v=0
83458 On ch=1 n=a#3 v=113
83508 On ch=1 n=a#3 v=0
83630 On ch=1 n=f5 v=90
83636 Par ch=1 c=64 v=63
83732 On ch=1 n=f5 v=0
83740 Par ch=1 c=64 v=0
83836 On ch=1 n=a#5 v=95
83918 On ch=1 n=a#5 v=0
83988 On ch=1 n=a5 v=90
84068 On ch=1 n=a5 v=0
84172 On ch=1 n=a#5 v=108
84244 On ch=1 n=a#5 v=0
84324 On ch=1 n=c6 v=102
84416 On ch=1 n=c6 v=0
84524 On ch=1 n=d6 v=112
84532 Par ch=1 c=64 v=63
84544 Par ch=1 c=64 v=127
84606 On ch=1 n=d6 v=0
84792 Par ch=1 c=64 v=63
84808 Par ch=1 c=64 v=0
84896 On ch=1 n=a#4 v=76
84914 On ch=1 n=a#5 v=94
84916 On ch=1 n=d6 v=91
84956 Par ch=1 c=64 v=63
84972 Par ch=1 c=64 v=127
84978 On ch=1 n=a#5 v=0
84996 On ch=1 n=d6 v=0
85014 On ch=1 n=a#4 v=0
85234 Par ch=1 c=64 v=63
85260 Par ch=1 c=64 v=0
85310 On ch=1 n=g4 v=76
85314 On ch=1 n=d6 v=96
85324 On ch=1 n=a#5 v=91
85414 Par ch=1 c=64 v=63
85442 Par ch=1 c=64 v=127
85646 On ch=1 n=a#5 v=0
85652 Par ch=1 c=64 v=63
85676 Par ch=1 c=64 v=0
85680 On ch=1 n=d6 v=0
85696 On ch=1 n=d#4 v=80
85700 On ch=1 n=d#6 v=89
85714 On ch=1 n=c6 v=78
85722 On ch=1 n=g4 v=0
85792 On ch=1 n=c6 v=0
85796 On ch=1 n=d#4 v=0
85828 On ch=1 n=d#6 v=0
86094 On ch=1 n=f4 v=61
86100 On ch=1 n=c6 v=83
86104 On ch=1 n=a5 v=71
86156 Par ch=1 c=64 v=63
86160 Par ch=1 c=64 v=127
86260 On ch=1 n=f4 v=0
86272 On ch=1 n=a5 v=0
86330 On ch=1 n=c6 v=0
86490 On ch=1 n=f3 v=85
86562 On ch=1 n=f3 v=0
86676 On ch=1 n=f5 v=88
86778 On ch=1 n=f5 v=0
86848 Par ch=1 c=64 v=63
86860 Par ch=1 c=64 v=0
86882 On ch=1 n=c6 v=96
86962 On ch=1 n=c6 v=0
87040 On ch=1 n=a#5 v=108
87104 On ch=1 n=a#5 v=0
87220 On ch=1 n=c6 v=109
87302 On ch=1 n=c6 v=0
87368 On ch=1 n=d6 v=106
87456 On ch=1 n=d6 v=0
87574 On ch=1 n=d#6 v=116
87640 Par ch=1 c=64 v=63
87646 Par ch=1 c=64 v=127
87650 On ch=1 n=d#6 v=0
87926 Par ch=1 c=64 v=63
87942 Par ch=1 c=64 v=0
87944 On ch=1 n=d#6 v=99
87948 On ch=1 n=c5 v=63
87964 On ch=1 n=g5 v=65
88008 On ch=1 n=g5 v=0
88030 On ch=1 n=d#6 v=0
88056 On ch=1 n=c5 v=0
88334 On ch=1 n=d#6 v=96
88338 On ch=1 n=a4 v=81
88340 On ch=1 n=c6 v=89
88356 Par ch=1 c=64 v=63
88364 Par ch=1 c=64 v=127
88556 On ch=1 n=a4 v=0
88578 On ch=1 n=c6 v=0
88656 On ch=1 n=d#6 v=0
88684 Par ch=1 c=64 v=63
88710 Par ch=1 c=64 v=0
88712 On ch=1 n=f4 v=69
88716 On ch=1 n=f6 v=89
88730 On ch=1 n=a5 v=68
88746 Par ch=1 c=64 v=63
88782 Par ch=1 c=64 v=127
88800 On ch=1 n=f6 v=0
88810 On ch=1 n=a5 v=0
88810 On ch=1 n=f4 v=0
89090 Par ch=1 c=64 v=63
89098 On ch=1 n=d6 v=88
89104 Par ch=1 c=64 v=0
89108 On ch=1 n=a#5 v=73
89108 On ch=1 n=a#4 v=77
89292 Par ch=1 c=64 v=63
89306 Par ch=1 c=64 v=127
89378 On ch=1 n=d6 v=0
89390 On ch=1 n=a#4 v=0
89394 On ch=1 n=a#5 v=0
89508 On ch=1 n=a#3 v=88
89674 On ch=1 n=a#5 v=98
89714 On ch=1 n=a#3 v=0
89834 On ch=1 n=a#5 v=0
89862 On ch=1 n=d6 v=100
90038 Par ch=1 c=64 v=63
90040 On ch=1 n=c6 v=112
90060 Par ch=1 c=64 v=0
90098 On ch=1 n=d6 v=0
90194 On ch=1 n=c6 v=0
90220 On ch=1 n=d6 v=108
90374 On ch=1 n=d#6 v=113
90422 On ch=1 n=d6 v=0
90544 On ch=1 n=d#6 v=0
90612 On ch=1 n=f6 v=99
90716 Par ch=1 c=64 v=63
90734 Par ch=1 c=64 v=127
90924 On ch=1 n=f6 v=0
91056 On ch=1 n=f6 v=88
91056 On ch=1 n=a#4 v=42
91070 On ch=1 n=d5 v=44
91082 Par ch=1 c=64 v=63
91146 Par ch=1 c=64 v=127
91424 On ch=1 n=a#4 v=0
91426 On ch=1 n=d5 v=0
91440 On ch=1 n=f6 v=0
91514 On ch=1 n=f6 v=101
91516 On ch=1 n=d5 v=79
91530 On ch=1 n=a#4 v=63
91806 On ch=1 n=a#4 v=0
91806 On ch=1 n=d5 v=0
91838 On ch=1 n=f6 v=0
91910 On ch=1 n=d5 v=99
91918 On ch=1 n=a#4 v=76
91920 On ch=1 n=f6 v=109
92302 On ch=1 n=d5 v=0
92336 On ch=1 n=f#6 v=105
92346 On ch=1 n=c5 v=93
92346 On ch=1 n=a4 v=81
92400 On ch=1 n=f6 v=0
92414 On ch=1 n=a#4 v=0
92578 Par ch=1 c=64 v=63
92628 Par ch=1 c=64 v=0
92672 On ch=1 n=c6 v=90
92674 Par ch=1 c=64 v=63
92714 Par ch=1 c=64 v=127
92898 On ch=1 n=d6 v=106
92938 On ch=1 n=c6 v=0
93010 On ch=1 n=a4 v=0
93072 On ch=1 n=d#6 v=110
93136 On ch=1 n=d6 v=0
93208 On ch=1 n=d#6 v=0
93214 On ch=1 n=c5 v=0
93244 On ch=1 n=a4 v=81
93268 On ch=1 n=d4 v=69
93278 On ch=1 n=d#6 v=94
93422 On ch=1 n=d6 v=100
93490 Par ch=1 c=64 v=63
93532 On ch=1 n=d#6 v=0
93538 On ch=1 n=d6 v=0
93592 Par ch=1 c=64 v=127
93610 On ch=1 n=d6 v=90
93706 On ch=1 n=d4 v=0
93772 On ch=1 n=c6 v=88
93792 On ch=1 n=d6 v=0
93878 On ch=1 n=c6 v=0
93906 On ch=1 n=f#6 v=0
93958 On ch=1 n=d#4 v=75
93976 On ch=1 n=g6 v=87
93986 On ch=1 n=a#5 v=90
94014 On ch=1 n=a4 v=0
94164 Par ch=1 c=64 v=63
94204 On ch=1 n=g4 v=90
94204 Par ch=1 c=64 v=0
94224 Par ch=1 c=64 v=63
94282 Par ch=1 c=64 v=127
94388 On ch=1 n=a4 v=97
94456 On ch=1 n=g4 v=0
94554 On ch=1 n=a#4 v=109
94590 On ch=1 n=a4 v=0
94698 On ch=1 n=a#4 v=0
94718 On ch=1 n=g6 v=0
94750 On ch=1 n=c#6 v=93
94770 On ch=1 n=a#4 v=93
94858 Par ch=1 c=64 v=63
94872 Par ch=1 c=64 v=0
94956 On ch=1 n=a4 v=84
95006 On ch=1 n=a#4 v=0
95008 Par ch=1 c=64 v=63
95028 Par ch=1 c=64 v=127
95098 On ch=1 n=a4 v=0
95166 On ch=1 n=a4 v=71
95350 On ch=1 n=g4 v=80
95406 On ch=1 n=a4 v=0
95412 On ch=1 n=a#5 v=0
95484 On ch=1 n=g4 v=0
95492 On ch=1 n=d#4 v=0
95618 On ch=1 n=f#4 v=73
95626 On ch=1 n=c#6 v=0
95630 On ch=1 n=d6 v=68
95646 On ch=1 n=d4 v=54
95760 Par ch=1 c=64 v=63
95782 Par ch=1 c=64 v=0
95918 Par ch=1 c=64 v=63
95938 Par ch=1 c=64 v=127
95988 On ch=1 n=d6 v=0
96106 On ch=1 n=d4 v=0
96234 On ch=1 n=f#4 v=0
96264 Par ch=1 c=64 v=63
96274 Par ch=1 c=64 v=0
96392 On ch=1 n=d5 v=103
96440 Par ch=1 c=64 v=63
96444 Par ch=1 c=64 v=127
96500 On ch=1 n=d6 v=111
96656 On ch=1 n=d5 v=0
96664 On ch=1 n=d6 v=0
96918 On ch=1 n=d6 v=117
97332 On ch=1 n=g4 v=78
97428 On ch=1 n=a#6 v=113
97510 On ch=1 n=d6 v=0
97526 Par ch=1 c=64 v=63
97534 Par ch=1 c=64 v=0
97714 On ch=1 n=a#4 v=83
97740 Par ch=1 c=64 v=63
97742 Par ch=1 c=64 v=127
97904 On ch=1 n=d5 v=91
97934 On ch=1 n=a#6 v=0
97954 On ch=1 n=a#4 v=0
98026 On ch=1 n=a6 v=100
98088 On ch=1 n=a#4 v=72
98094 On ch=1 n=d5 v=0
98098 On ch=1 n=g6 v=90
98114 On ch=1 n=g4 v=0
98120 On ch=1 n=a6 v=0
98158 On ch=1 n=f#6 v=93
98174 On ch=1 n=g6 v=0
98218 On ch=1 n=g6 v=100
98244 On ch=1 n=f#6 v=0
98284 On ch=1 n=a#4 v=0
98286 On ch=1 n=g4 v=45
98298 Par ch=1 c=64 v=63
98382 Par ch=1 c=64 v=127
98460 On ch=1 n=g6 v=0
98462 On ch=1 n=a#4 v=88
98634 On ch=1 n=d6 v=103
98660 On ch=1 n=d5 v=82
98670 Par ch=1 c=64 v=63
98718 Par ch=1 c=64 v=127
98722 On ch=1 n=a#4 v=0
98818 On ch=1 n=a#4 v=89
98872 On ch=1 n=g4 v=0
98910 On ch=1 n=d5 v=0
99010 On ch=1 n=d#6 v=107
99032 On ch=1 n=g4 v=57
99044 On ch=1 n=d6 v=0
99066 Par ch=1 c=64 v=63
99076 On ch=1 n=a#4 v=0
99078 Par ch=1 c=64 v=0
99198 Par ch=1 c=64 v=63
99210 Par ch=1 c=64 v=127
99226 On ch=1 n=c5 v=88
99344 On ch=1 n=d#6 v=0
99420 On ch=1 n=d#5 v=90
99442 On ch=1 n=c5 v=0
99540 On ch=1 n=c5 v=86
99568 Par ch=1 c=64 v=63
99574 Par ch=1 c=64 v=0
99594 On ch=1 n=g4 v=0
99596 On ch=1 n=d#5 v=0
99636 On ch=1 n=g5 v=93
99660 Par ch=1 c=64 v=63
99676 Par ch=1 c=64 v=127
99746 On ch=1 n=g6 v=107
99766 On ch=1 n=g5 v=0
99766 On ch=1 n=g4 v=75
99822 On ch=1 n=c5 v=0
99886 On ch=1 n=g6 v=0
99980 On ch=1 n=c5 v=93
100158 On ch=1 n=g6 v=118
100182 On ch=1 n=d#5 v=103
100210 On ch=1 n=c5 v=0
100244 On ch=1 n=g6 v=0
100332 On ch=1 n=c5 v=104
100368 On ch=1 n=g4 v=0
100384 On ch=1 n=d#5 v=0
100508 On ch=1 n=g4 v=71
100548 On ch=1 n=d#7 v=115
100628 On ch=1 n=c5 v=0
100636 Par ch=1 c=64 v=63
100654 Par ch=1 c=64 v=0
100710 Par ch=1 c=64 v=63
100740 Par ch=1 c=64 v=127
100770 On ch=1 n=c5 v=92
100920 On ch=1 n=d#5 v=101
100976 On ch=1 n=c5 v=0
101004 On ch=1 n=d#7 v=0
101086 On ch=1 n=d7 v=85
101114 On ch=1 n=c5 v=63
101124 On ch=1 n=d#5 v=0
101142 On ch=1 n=g4 v=0
101148 On ch=1 n=c7 v=85
101166 On ch=1 n=d7 v=0
101190 On ch=1 n=b6 v=78
101222 On ch=1 n=c7 v=0
101230 Par ch=1 c=64 v=63
101246 Par ch=1 c=64 v=0
101276 On ch=1 n=c7 v=102
101294 Par ch=1 c=64 v=63
101306 On ch=1 n=b6 v=0
101320 Par ch=1 c=64 v=127
101330 On ch=1 n=g4 v=65
101336 On ch=1 n=c5 v=0
101402 On ch=1 n=c7 v=0
101516 On ch=1 n=c5 v=81
101688 On ch=1 n=d#6 v=108
101722 On ch=1 n=d#5 v=72
101742 On ch=1 n=c5 v=0
101794 On ch=1 n=d#6 v=0
101872 On ch=1 n=c5 v=72
101874 On ch=1 n=d#5 v=0
101874 On ch=1 n=g4 v=0
102076 On ch=1 n=g4 v=57
102098 On ch=1 n=d6 v=84
102106 On ch=1 n=c5 v=0
102152 Par ch=1 c=64 v=63
102176 Par ch=1 c=64 v=0
102288 Par ch=1 c=64 v=63
102296 On ch=1 n=a#4 v=64
102308 Par ch=1 c=64 v=127
102466 On ch=1 n=d6 v=0
102510 On ch=1 n=d5 v=65
102586 Par ch=1 c=64 v=63
102594 Par ch=1 c=64 v=0
102690 On ch=1 n=g4 v=0
102692 On ch=1 n=c#6 v=98
102794 On ch=1 n=d5 v=0
102808 On ch=1 n=a#4 v=0
102820 On ch=1 n=c#6 v=0
102820 Par ch=1 c=64 v=63
102826 Par ch=1 c=64 v=127
102892 On ch=1 n=d6 v=99
103090 On ch=1 n=a#6 v=92
103138 On ch=1 n=d6 v=0
103176 Par ch=1 c=64 v=63
103186 Par ch=1 c=64 v=0
103204 On ch=1 n=a#6 v=0
103286 On ch=1 n=a6 v=92
103350 On ch=1 n=a6 v=0
103454 On ch=1 n=g6 v=93
103536 On ch=1 n=g6 v=0
103630 On ch=1 n=f#6 v=113
103632 On ch=1 n=c5 v=89
103634 Par ch=1 c=64 v=63
103638 Par ch=1 c=64 v=127
103644 On ch=1 n=d#5 v=90
103656 On ch=1 n=a4 v=65
103714 On ch=1 n=f#6 v=0
103870 On ch=1 n=g6 v=90
103930 On ch=1 n=d#5 v=0
103936 On ch=1 n=a6 v=89
103954 On ch=1 n=g6 v=0
103962 On ch=1 n=c5 v=0
103988 On ch=1 n=a4 v=0
103988 Par ch=1 c=64 v=63
104000 Par ch=1 c=64 v=0
104002 On ch=1 n=g6 v=94
104026 On ch=1 n=a#4 v=70
104028 On ch=1 n=d5 v=64
104040 On ch=1 n=a6 v=0
104074 On ch=1 n=g6 v=0
104210 On ch=1 n=g6 v=91
104284 On ch=1 n=g6 v=0
104318 On ch=1 n=d5 v=0
104370 On ch=1 n=a#4 v=0
104400 On ch=1 n=c#7 v=112
104568 On ch=1 n=d7 v=96
104608 On ch=1 n=c#7 v=0
104658 On ch=1 n=d7 v=0
104760 On ch=1 n=a#6 v=98
104840 On ch=1 n=a#6 v=0
104924 On ch=1 n=g6 v=79
105036 On ch=1 n=g6 v=0
105118 Par ch=1 c=64 v=63
105122 Par ch=1 c=64 v=127
105128 On ch=1 n=d#5 v=88
105130 On ch=1 n=c5 v=83
105136 On ch=1 n=a4 v=73
105138 On ch=1 n=f#6 v=109
105262 On ch=1 n=f#6 v=0
105384 On ch=1 n=g6 v=90
105456 On ch=1 n=a6 v=84
105466 On ch=1 n=g6 v=0
105474 On ch=1 n=a4 v=0
105474 On ch=1 n=c5 v=0
105476 On ch=1 n=d#5 v=0
105482 Par ch=1 c=64 v=63
105494 Par ch=1 c=64 v=0
105514 On ch=1 n=g6 v=91
105548 On ch=1 n=a#4 v=74
105554 On ch=1 n=d5 v=71
105556 On ch=1 n=a6 v=0
105588 On ch=1 n=g6 v=0
105750 On ch=1 n=d6 v=79
105972 On ch=1 n=d5 v=0
105974 On ch=1 n=g6 v=85
105996 On ch=1 n=d6 v=0
106014 On ch=1 n=a#4 v=0
106038 On ch=1 n=g6 v=0
106170 On ch=1 n=g6 v=92
106238 On ch=1 n=g6 v=0
106364 On ch=1 n=g6 v=98
106438 On ch=1 n=g6 v=0
106536 On ch=1 n=g6 v=111
106610 Par ch=1 c=64 v=63
106624 Par ch=1 c=64 v=127
106716 On ch=1 n=g6 v=0
106776 On ch=1 n=a#4 v=98
106792 On ch=1 n=g6 v=106
106792 On ch=1 n=d#4 v=81
107046 On ch=1 n=g6 v=0
107118 On ch=1 n=a6 v=82
107170 On ch=1 n=a#6 v=105
107194 On ch=1 n=a6 v=0
107250 On ch=1 n=a6 v=82
107274 On ch=1 n=a#6 v=0
107450 On ch=1 n=g6 v=93
107462 On ch=1 n=a6 v=0
107598 On ch=1 n=g6 v=0
107628 On ch=1 n=f6 v=100
107640 On ch=1 n=g4 v=71
107662 On ch=1 n=a#4 v=0
107680 Par ch=1 c=64 v=63
107700 Par ch=1 c=64 v=0
107822 On ch=1 n=d#6 v=106
107856 Par ch=1 c=64 v=63
107870 On ch=1 n=f6 v=0
107880 Par ch=1 c=64 v=127
108024 On ch=1 n=d6 v=94
108092 On ch=1 n=d#6 v=0
108212 On ch=1 n=c#6 v=101
108262 On ch=1 n=d#4 v=0
108264 On ch=1 n=d6 v=0
108328 On ch=1 n=c#6 v=0
108394 On ch=1 n=g4 v=0
108414 On ch=1 n=f#4 v=42
108420 On ch=1 n=c#6 v=82
108438 On ch=1 n=d4 v=46
108486 Par ch=1 c=64 v=63
108526 Par ch=1 c=64 v=0
108584 Par ch=1 c=64 v=63
108614 On ch=1 n=d6 v=81
108628 Par ch=1 c=64 v=127
108652 On ch=1 n=d4 v=0
108652 On ch=1 n=c#6 v=0
108684 On ch=1 n=f#4 v=0
108726 On ch=1 n=d6 v=0
108744 Par ch=1 c=64 v=63
108760 Par ch=1 c=64 v=0
108830 On ch=1 n=d6 v=80
108832 On ch=1 n=f#4 v=62
108840 On ch=1 n=a4 v=49
108840 On ch=1 n=d4 v=51
108892 Par ch=1 c=64 v=63
108908 Par ch=1 c=64 v=127
108950 On ch=1 n=f#4 v=0
108962 On ch=1 n=d4 v=0
108970 On ch=1 n=a4 v=0
108984 On ch=1 n=d6 v=0
109224 On ch=1 n=d6 v=100
109226 On ch=1 n=a4 v=77
109228 On ch=1 n=f#4 v=85
109242 On ch=1 n=d4 v=64
109290 On ch=1 n=d4 v=0
109302 On ch=1 n=f#4 v=0
109314 On ch=1 n=a4 v=0
109322 On ch=1 n=d6 v=0
109590 Par ch=1 c=64 v=63
109598 On ch=1 n=d6 v=101
109606 Par ch=1 c=64 v=127
109608 On ch=1 n=a4 v=80
109608 On ch=1 n=f#4 v=86
109616 On ch=1 n=d4 v=79
109688 On ch=1 n=d6 v=0
109700 On ch=1 n=a4 v=0
109716 On ch=1 n=f#4 v=0
109720 On ch=1 n=d4 v=0
109942 On ch=1 n=c#6 v=100
110006 On ch=1 n=d6 v=96
110016 On ch=1 n=c#6 v=0
110072 On ch=1 n=e6 v=99
110084 On ch=1 n=d6 v=0
110156 On ch=1 n=e6 v=0
110156 On ch=1 n=d6 v=108
110506 Par ch=1 c=64 v=63
110530 Par ch=1 c=64 v=127
110646 On ch=1 n=f4 v=60
110646 On ch=1 n=a4 v=42
110650 On ch=1 n=d4 v=62
110828 Par ch=1 c=64 v=63
110874 Par ch=1 c=64 v=127
111000 On ch=1 n=f4 v=0
111004 On ch=1 n=d4 v=0
111010 On ch=1 n=a4 v=0
111074 On ch=1 n=f4 v=81
111076 On ch=1 n=a4 v=74
111080 On ch=1 n=d4 v=76
111206 On ch=1 n=f4 v=0
111238 On ch=1 n=a4 v=0
111240 On ch=1 n=d4 v=0
111476 On ch=1 n=a4 v=102
111476 On ch=1 n=d4 v=103
111478 On ch=1 n=f4 v=101
111538 On ch=1 n=f4 v=0
111544 On ch=1 n=d4 v=0
111544 On ch=1 n=a4 v=0
111572 On ch=1 n=d6 v=0
111900 On ch=1 n=f6 v=121
111958 Par ch=1 c=64 v=63
111964 Par ch=1 c=64 v=0
112156 Par ch=1 c=64 v=63
112162 Par ch=1 c=64 v=127
112286 On ch=1 n=a#4 v=99
112288 On ch=1 n=f4 v=90
112292 On ch=1 n=d4 v=86
112386 On ch=1 n=f4 v=0
112390 On ch=1 n=a#4 v=0
112414 On ch=1 n=d4 v=0
112678 On ch=1 n=f6 v=0
112682 On ch=1 n=f4 v=97
112690 On ch=1 n=a#4 v=106
112690 On ch=1 n=d4 v=89
112780 On ch=1 n=f4 v=0
112792 On ch=1 n=a#4 v=0
112800 On ch=1 n=d4 v=0
113066 On ch=1 n=f4 v=101
113070 On ch=1 n=d4 v=99
113072 On ch=1 n=a#4 v=115
113126 On ch=1 n=a#4 v=0
113130 On ch=1 n=f4 v=0
113152 On ch=1 n=d4 v=0
113468 On ch=1 n=d5 v=118
113476 On ch=1 n=g#4 v=112
113676 Par ch=1 c=64 v=63
113686 Par ch=1 c=64 v=0
113912 On ch=1 n=a#3 v=113
113918 On ch=1 n=f4 v=109
113938 Par ch=1 c=64 v=63
113940 Par ch=1 c=64 v=127
113986 On ch=1 n=f4 v=0
113986 On ch=1 n=a#3 v=0
114322 On ch=1 n=a#3 v=110
114326 On ch=1 n=f4 v=112
114330 On ch=1 n=d5 v=0
114350 On ch=1 n=g#4 v=0
114396 On ch=1 n=f4 v=0
114402 On ch=1 n=a#3 v=0
114728 On ch=1 n=a#3 v=116
114730 On ch=1 n=f4 v=112
114776 On ch=1 n=f4 v=0
114780 On ch=1 n=a#3 v=0
115174 On ch=1 n=d#5 v=118
115174 On ch=1 n=d#4 v=112
115178 On ch=1 n=g4 v=103
115182 On ch=1 n=d#3 v=110
115272 Par ch=1 c=64 v=63
115282 Par ch=1 c=64 v=0
115382 Par ch=1 c=64 v=63
115400 Par ch=1 c=64 v=127
115524 On ch=1 n=d#4 v=0
115562 On ch=1 n=g4 v=0
115598 On ch=1 n=d#5 v=0
115614 On ch=1 n=d#3 v=0
115634 On ch=1 n=d#4 v=86
115702 On ch=1 n=d#4 v=0
116006 On ch=1 n=g4 v=71
116326 On ch=1 n=a#4 v=88
116378 Par ch=1 c=64 v=63
116398 On ch=1 n=g#4 v=65
116404 On ch=1 n=d5 v=85
116406 Par ch=1 c=64 v=0
116412 On ch=1 n=a#4 v=0
116444 On ch=1 n=g4 v=0
116528 Par ch=1 c=64 v=63
116616 Par ch=1 c=64 v=0
116698 On ch=1 n=a#4 v=83
116702 On ch=1 n=d5 v=0
116776 On ch=1 n=g4 v=49
116790 On ch=1 n=d#5 v=92
116796 On ch=1 n=a#4 v=0
116804 On ch=1 n=g#4 v=0
116866 Par ch=1 c=64 v=63
116910 Par ch=1 c=64 v=127
116924 Par ch=1 c=64 v=63
117074 On ch=1 n=d#5 v=0
117074 On ch=1 n=a#4 v=82
117076 Par ch=1 c=64 v=0
117110 Par ch=1 c=64 v=63
117156 On ch=1 n=d4 v=85
117166 On ch=1 n=f5 v=96
117168 On ch=1 n=a#4 v=0
117204 On ch=1 n=g4 v=0
117222 Par ch=1 c=64 v=127
117240 Par ch=1 c=64 v=63
117352 Par ch=1 c=64 v=0
117456 On ch=1 n=a#4 v=77
117480 On ch=1 n=f5 v=0
117542 On ch=1 n=g5 v=99
117552 On ch=1 n=d#4 v=83
117560 On ch=1 n=a#4 v=0
117578 On ch=1 n=d4 v=0
117834 On ch=1 n=g5 v=0
117850 On ch=1 n=a#4 v=83
117928 On ch=1 n=a#4 v=0
117928 On ch=1 n=f4 v=79
117942 On ch=1 n=g#5 v=105
117946 On ch=1 n=d#4 v=0
118208 On ch=1 n=f4 v=0
118234 On ch=1 n=a#4 v=88
118242 On ch=1 n=g#5 v=0
118316 On ch=1 n=f5 v=100
118340 On ch=1 n=a#4 v=0
118742 On ch=1 n=a#3 v=90
118782 Par ch=1 c=64 v=63
118786 Par ch=1 c=64 v=127
118824 On ch=1 n=a#3 v=0
119132 On ch=1 n=d4 v=101
119256 On ch=1 n=d4 v=0
119318 On ch=1 n=f5 v=0
119452 On ch=1 n=a#4 v=83
119504 On ch=1 n=c#4 v=89
119512 On ch=1 n=e5 v=98
119538 On ch=1 n=a#4 v=0
119570 Par ch=1 c=64 v=63
119584 Par ch=1 c=64 v=0
119816 On ch=1 n=a#4 v=85
119836 On ch=1 n=e5 v=0
119884 On ch=1 n=d4 v=89
119896 On ch=1 n=f5 v=104
119900 On ch=1 n=a#4 v=0
119904 On ch=1 n=c#4 v=0
119956 Par ch=1 c=64 v=63
119966 Par ch=1 c=64 v=127
120068 On ch=1 n=d4 v=0
120200 On ch=1 n=a#4 v=81
120208 On ch=1 n=f5 v=0
120290 On ch=1 n=a#4 v=0
120292 Par ch=1 c=64 v=63
120292 On ch=1 n=g5 v=108
120296 On ch=1 n=e4 v=91
120310 Par ch=1 c=64 v=0
120402 Par ch=1 c=64 v=63
120438 Par ch=1 c=64 v=127
120584 On ch=1 n=g5 v=0
120602 On ch=1 n=a#4 v=92
120628 Par ch=1 c=64 v=63
120648 Par ch=1 c=64 v=0
120670 On ch=1 n=f4 v=84
120682 On ch=1 n=g#5 v=112
120686 On ch=1 n=e4 v=0
120710 On ch=1 n=a#4 v=0
120736 Par ch=1 c=64 v=63
120776 Par ch=1 c=64 v=127
120920 Par ch=1 c=64 v=63
120952 Par ch=1 c=64 v=0
120972 On ch=1 n=g#5 v=0
120984 On ch=1 n=a#4 v=96
121036 Par ch=1 c=64 v=63
121040 On ch=1 n=d4 v=87
121050 On ch=1 n=f4 v=0
121058 On ch=1 n=a#4 v=0
121070 On ch=1 n=a#5 v=115
121074 Par ch=1 c=64 v=127
121240 On ch=1 n=d4 v=0
121256 Par ch=1 c=64 v=63
121280 Par ch=1 c=64 v=0
121338 On ch=1 n=a#4 v=101
121348 On ch=1 n=a#5 v=0
121434 On ch=1 n=a#4 v=0
121434 On ch=1 n=g5 v=103
121440 On ch=1 n=d#4 v=94
121442 Par ch=1 c=64 v=63
121456 Par ch=1 c=64 v=127
121508 On ch=1 n=d#4 v=0
121642 On ch=1 n=g5 v=0
121824 On ch=1 n=d#3 v=90
121866 On ch=1 n=d#3 v=0
122026 On ch=1 n=a#5 v=95
122032 Par ch=1 c=64 v=63
122046 Par ch=1 c=64 v=0
122146 On ch=1 n=a#5 v=0
122230 Par ch=1 c=64 v=63
122236 On ch=1 n=d#6 v=88
122238 Par ch=1 c=64 v=127
122540 Par ch=1 c=64 v=63
122548 On ch=1 n=f6 v=75
122556 On ch=1 n=d#6 v=0
122562 Par ch=1 c=64 v=0
122606 On ch=1 n=d#5 v=70
122612 On ch=1 n=g4 v=54
122624 On ch=1 n=g6 v=85
122636 On ch=1 n=f6 v=0
122644 Par ch=1 c=64 v=63
122672 Par ch=1 c=64 v=127
122696 On ch=1 n=g6 v=0
122818 On ch=1 n=g4 v=0
122834 On ch=1 n=d#5 v=0
122918 On ch=1 n=a#5 v=90
122982 On ch=1 n=a#5 v=0
122992 On ch=1 n=c6 v=75
123056 Par ch=1 c=64 v=63
123072 Par ch=1 c=64 v=0
123278 On ch=1 n=d6 v=85
123314 On ch=1 n=c6 v=0
123376 On ch=1 n=g#4 v=72
123378 On ch=1 n=d#5 v=57
123380 On ch=1 n=d#6 v=97
123392 On ch=1 n=d6 v=0
123398 Par ch=1 c=64 v=63
123404 Par ch=1 c=64 v=127
123602 On ch=1 n=d#5 v=0
123626 On ch=1 n=d#6 v=0
123632 On ch=1 n=g#4 v=0
123658 On ch=1 n=g5 v=76
123746 On ch=1 n=g5 v=0
123746 Par ch=1 c=64 v=63
123756 On ch=1 n=g#5 v=100
123758 Par ch=1 c=64 v=0
124030 On ch=1 n=a#5 v=90
124082 On ch=1 n=g#5 v=0
124126 On ch=1 n=d#5 v=78
124132 On ch=1 n=c6 v=97
124136 On ch=1 n=c5 v=77
124146 On ch=1 n=a#5 v=0
124190 Par ch=1 c=64 v=63
124196 Par ch=1 c=64 v=127
124376 On ch=1 n=d#5 v=0
124444 On ch=1 n=c6 v=0
124446 On ch=1 n=g#5 v=90
124460 On ch=1 n=c5 v=0
124466 Par ch=1 c=64 v=63
124474 Par ch=1 c=64 v=0
124534 On ch=1 n=g5 v=100
124546 On ch=1 n=d#5 v=85
124550 On ch=1 n=g#5 v=0
124552 On ch=1 n=a#4 v=84
124576 Par ch=1 c=64 v=63
124590 Par ch=1 c=64 v=127
124630 On ch=1 n=d#5 v=0
124636 On ch=1 n=a#4 v=0
124828 On ch=1 n=g5 v=0
124962 On ch=1 n=a#3 v=83
125000 On ch=1 n=a#3 v=0
125154 On ch=1 n=a#5 v=86
125162 Par ch=1 c=64 v=63
125172 Par ch=1 c=64 v=0
125320 On ch=1 n=a#5 v=0
125358 On ch=1 n=d#6 v=96
125658 On ch=1 n=f6 v=72
125664 On ch=1 n=d#6 v=0
125728 On ch=1 n=g6 v=94
125736 On ch=1 n=d#5 v=75
125748 On ch=1 n=g4 v=56
125756 On ch=1 n=f6 v=0
125772 Par ch=1 c=64 v=63
125778 Par ch=1 c=64 v=127
125964 On ch=1 n=g6 v=0
126040 On ch=1 n=b5 v=82
126066 On ch=1 n=g4 v=0
126072 On ch=1 n=d#5 v=0
126110 Par ch=1 c=64 v=63
126114 On ch=1 n=c6 v=104
126120 On ch=1 n=b5 v=0
126126 Par ch=1 c=64 v=0
126368 On ch=1 n=d6 v=87
126400 On ch=1 n=c6 v=0
126476 On ch=1 n=d#6 v=109
126476 On ch=1 n=d#5 v=92
126484 On ch=1 n=g#4 v=88
126498 On ch=1 n=d6 v=0
126500 Par ch=1 c=64 v=63
126506 Par ch=1 c=64 v=127
126750 On ch=1 n=d#6 v=0
126764 On ch=1 n=g5 v=82
126820 On ch=1 n=d#5 v=0
126854 On ch=1 n=g#4 v=0
126854 On ch=1 n=g#5 v=113
126858 On ch=1 n=g5 v=0
127140 On ch=1 n=a#5 v=104
127196 On ch=1 n=g#5 v=0
127228 On ch=1 n=d#5 v=81
127230 On ch=1 n=c6 v=109
127240 On ch=1 n=c5 v=82
127258 Par ch=1 c=64 v=63
127260 On ch=1 n=a#5 v=0
127270 Par ch=1 c=64 v=0
127362 Par ch=1 c=64 v=63
127394 Par ch=1 c=64 v=127
127514 On ch=1 n=d#5 v=0
127536 On ch=1 n=g#5 v=110
127544 Par ch=1 c=64 v=63
127560 On ch=1 n=c6 v=0
127562 Par ch=1 c=64 v=0
127618 Par ch=1 c=64 v=63
127626 On ch=1 n=c5 v=0
127630 On ch=1 n=g5 v=112
127638 Par ch=1 c=64 v=127
127648 On ch=1 n=d#5 v=85
127650 On ch=1 n=a#4 v=84
127678 On ch=1 n=g#5 v=0
127714 On ch=1 n=d#5 v=0
127728 On ch=1 n=a#4 v=0
128042 On ch=1 n=a#3 v=112
128084 On ch=1 n=g5 v=0
128088 On ch=1 n=a#3 v=0
128248 On ch=1 n=g5 v=104
128524 On ch=1 n=a#5 v=105
128616 On ch=1 n=g5 v=0
128622 Par ch=1 c=64 v=63
128644 Par ch=1 c=64 v=0
128722 On ch=1 n=a5 v=94
128752 Par ch=1 c=64 v=63
128770 Par ch=1 c=64 v=127
128830 On ch=1 n=a#5 v=0
128928 On ch=1 n=d#5 v=95
128932 On ch=1 n=c5 v=89
128994 On ch=1 n=a5 v=0
129066 Par ch=1 c=64 v=63
129076 Par ch=1 c=64 v=0
129098 On ch=1 n=a5 v=108
129280 On ch=1 n=c6 v=107
129312 On ch=1 n=a5 v=0
129378 On ch=1 n=d#5 v=0
129386 On ch=1 n=c5 v=0
129390 Par ch=1 c=64 v=63
129396 Par ch=1 c=64 v=127
129456 On ch=1 n=a#5 v=113
129542 On ch=1 n=c6 v=0
129628 On ch=1 n=a#5 v=0
129634 On ch=1 n=d#5 v=108
129636 On ch=1 n=g4 v=86
129724 Par ch=1 c=64 v=63
129740 Par ch=1 c=64 v=0
129810 On ch=1 n=b5 v=103
129884 Par ch=1 c=64 v=63
129902 Par ch=1 c=64 v=127
129938 On ch=1 n=g4 v=0
130008 On ch=1 n=d6 v=109
130028 Par ch=1 c=64 v=63
130036 On ch=1 n=b5 v=0
130046 Par ch=1 c=64 v=0
130056 On ch=1 n=g#4 v=109
130082 Par ch=1 c=64 v=63
130106 Par ch=1 c=64 v=127
130196 On ch=1 n=g#4 v=0
130198 On ch=1 n=d#5 v=0
130220 On ch=1 n=d6 v=0
130232 On ch=1 n=c6 v=108
130442 On ch=1 n=g#4 v=88
130456 On ch=1 n=f4 v=80
130468 On ch=1 n=d#6 v=106
130506 On ch=1 n=c6 v=0
130520 Par ch=1 c=64 v=63
130630 Par ch=1 c=64 v=127
130644 On ch=1 n=d6 v=102
130690 On ch=1 n=f4 v=0
130730 On ch=1 n=g#4 v=0
130734 On ch=1 n=d#6 v=0
130800 On ch=1 n=d6 v=0
130824 On ch=1 n=a#4 v=89
130828 On ch=1 n=g4 v=75
130832 On ch=1 n=f6 v=102
130852 Par ch=1 c=64 v=63
130942 Par ch=1 c=64 v=127
130984 On ch=1 n=d#6 v=113
131058 On ch=1 n=a#4 v=0
131060 On ch=1 n=g4 v=0
131072 On ch=1 n=f6 v=0
131112 On ch=1 n=d#6 v=0
131162 On ch=1 n=f6 v=113
131164 On ch=1 n=a#4 v=99
131166 On ch=1 n=g4 v=94
131180 Par ch=1 c=64 v=63
131240 Par ch=1 c=64 v=127
131332 On ch=1 n=e6 v=114
131336 On ch=1 n=a#4 v=0
131358 On ch=1 n=g4 v=0
131384 On ch=1 n=f6 v=0
131514 On ch=1 n=e6 v=0
131516 On ch=1 n=g#4 v=103
131518 Par ch=1 c=64 v=63
131522 On ch=1 n=g6 v=108
131524 On ch=1 n=f4 v=98
131524 On ch=1 n=a#4 v=106
131542 Par ch=1 c=64 v=0
131554 Par ch=1 c=64 v=63
131588 Par ch=1 c=64 v=127
131676 On ch=1 n=g#4 v=0
131678 On ch=1 n=a#4 v=0
131680 On ch=1 n=f4 v=0
131688 On ch=1 n=g6 v=0
131696 On ch=1 n=f6 v=106
131868 On ch=1 n=a#4 v=104
131872 On ch=1 n=g4 v=96
131876 On ch=1 n=d#4 v=100
131882 On ch=1 n=g#6 v=116
131902 Par ch=1 c=64 v=63
131920 Par ch=1 c=64 v=0
131936 On ch=1 n=f6 v=0
131954 Par ch=1 c=64 v=63
131982 Par ch=1 c=64 v=127
132052 On ch=1 n=g6 v=116
132096 On ch=1 n=g4 v=0
132100 On ch=1 n=d#4 v=0
132124 On ch=1 n=a#4 v=0
132140 On ch=1 n=g#6 v=0
132294 On ch=1 n=a#4 v=105
132298 On ch=1 n=d4 v=90
132306 On ch=1 n=f4 v=87
132310 On ch=1 n=a#6 v=115
132364 On ch=1 n=g6 v=0
132376 Par ch=1 c=64 v=63
132388 Par ch=1 c=64 v=0
132524 Par ch=1 c=64 v=63
132536 Par ch=1 c=64 v=127
132650 On ch=1 n=g#6 v=107
132734 On ch=1 n=a#6 v=0
132994 On ch=1 n=a#4 v=0
133000 On ch=1 n=d4 v=0
133008 On ch=1 n=f4 v=0
133092 On ch=1 n=g#6 v=0
133196 Par ch=1 c=64 v=63
133228 Par ch=1 c=64 v=0
134156 On ch=1 n=f6 v=63
134256 Par ch=1 c=64 v=63
134266 Par ch=1 c=64 v=127
134284 On ch=1 n=g6 v=65
134292 On ch=1 n=d#5 v=57
134296 On ch=1 n=a#5 v=37
134306 On ch=1 n=f6 v=0
134454 On ch=1 n=a#5 v=0
134562 On ch=1 n=d#6 v=80
134592 On ch=1 n=g6 v=0
134640 Par ch=1 c=64 v=63
134668 Par ch=1 c=64 v=0
134672 On ch=1 n=c6 v=79
134672 On ch=1 n=g#5 v=61
134678 On ch=1 n=g#4 v=57
134684 Par ch=1 c=64 v=63
134686 On ch=1 n=d#6 v=0
134722 On ch=1 n=d#5 v=0
134726 Par ch=1 c=64 v=127
134946 On ch=1 n=g#5 v=0
134960 On ch=1 n=f6 v=73
134990 On ch=1 n=c6 v=0
135030 On ch=1 n=g#4 v=0
135074 On ch=1 n=a#4 v=63
135080 On ch=1 n=g5 v=54
135088 Par ch=1 c=64 v=63
135094 On ch=1 n=d#6 v=87
135102 On ch=1 n=f6 v=0
135102 Par ch=1 c=64 v=0
135218 Par ch=1 c=64 v=63
135240 Par ch=1 c=64 v=127
135512 Par ch=1 c=64 v=63
135532 Par ch=1 c=64 v=0
135554 On ch=1 n=g5 v=0
135560 On ch=1 n=f5 v=48
135562 On ch=1 n=d#6 v=0
135562 On ch=1 n=d6 v=70
135640 Par ch=1 c=64 v=63
135662 Par ch=1 c=64 v=127
135736 On ch=1 n=f5 v=0
135776 On ch=1 n=a#4 v=0
135780 On ch=1 n=d6 v=0
135914 Par ch=1 c=64 v=63
135930 Par ch=1 c=64 v=0
136130 Par ch=1 c=64 v=63
136164 Par ch=1 c=64 v=127
136180 On ch=1 n=a#4 v=96
136184 On ch=1 n=f4 v=97
136186 On ch=1 n=d4 v=79
136186 On ch=1 n=a#6 v=116
136242 Par ch=1 c=64 v=63
136270 Par ch=1 c=64 v=0
136480 Par ch=1 c=64 v=63
136538 Par ch=1 c=64 v=127
136632 On ch=1 n=g#6 v=92
136736 On ch=1 n=a#6 v=0
137080 On ch=1 n=d4 v=0
137092 On ch=1 n=f4 v=0
137108 On ch=1 n=a#4 v=0
137192 On ch=1 n=g#6 v=0
137210 Par ch=1 c=64 v=63
137390 Par ch=1 c=64 v=0
138242 Par ch=1 c=64 v=63
138262 On ch=1 n=f6 v=59
138272 Par ch=1 c=64 v=127
138398 On ch=1 n=f6 v=0
138400 On ch=1 n=g6 v=70
138414 On ch=1 n=a#5 v=44
138416 On ch=1 n=d#5 v=53
138508 On ch=1 n=d#5 v=0
138574 On ch=1 n=a#5 v=0
138718 On ch=1 n=d#6 v=76
138734 On ch=1 n=g6 v=0
138816 On ch=1 n=g#5 v=55
138822 On ch=1 n=g#4 v=49
138828 On ch=1 n=c6 v=76
138832 On ch=1 n=d#6 v=0
138896 Par ch=1 c=64 v=63
139026 Par ch=1 c=64 v=127
139124 On ch=1 n=g#5 v=0
139138 On ch=1 n=f6 v=69
139152 On ch=1 n=c6 v=0
139228 On ch=1 n=g#4 v=0
139250 On ch=1 n=a#4 v=52
139268 On ch=1 n=g5 v=44
139280 Par ch=1 c=64 v=63
139294 On ch=1 n=d#6 v=78
139300 On ch=1 n=f6 v=0
139332 Par ch=1 c=64 v=0
139388 Par ch=1 c=64 v=63
139438 Par ch=1 c=64 v=127
139544 On ch=1 n=g5 v=0
139790 On ch=1 n=d6 v=62
139806 Par ch=1 c=64 v=63
139808 On ch=1 n=f5 v=34
139828 On ch=1 n=d#6 v=0
139854 Par ch=1 c=64 v=0
139936 Par ch=1 c=64 v=63
139998 Par ch=1 c=64 v=127
140164 On ch=1 n=d6 v=0
140166 On ch=1 n=f5 v=0
140206 On ch=1 n=a#4 v=0
140452 On ch=1 n=g5 v=77
140500 Par ch=1 c=64 v=63
140540 Par ch=1 c=64 v=0
140544 On ch=1 n=g6 v=94
140794 Par ch=1 c=64 v=63
140808 Par ch=1 c=64 v=127
141038 On ch=1 n=g5 v=0
141274 On ch=1 n=d#6 v=92
141330 On ch=1 n=g6 v=0
141490 On ch=1 n=c6 v=76
141508 On ch=1 n=d#5 v=50
141508 On ch=1 n=g5 v=42
141512 On ch=1 n=d#6 v=0
141604 Par ch=1 c=64 v=63
141758 Par ch=1 c=64 v=127
141878 On ch=1 n=c6 v=0
141950 On ch=1 n=c6 v=97
141986 On ch=1 n=d#5 v=0
142004 On ch=1 n=g5 v=0
142236 On ch=1 n=c6 v=0
142336 On ch=1 n=f6 v=99
142360 On ch=1 n=b5 v=76
142370 On ch=1 n=d5 v=74
142444 Par ch=1 c=64 v=63
142492 Par ch=1 c=64 v=0
142538 Par ch=1 c=64 v=63
142582 Par ch=1 c=64 v=127
142818 On ch=1 n=g#6 v=87
142846 On ch=1 n=d5 v=0
142860 On ch=1 n=f6 v=0
142888 On ch=1 n=b5 v=0
143302 On ch=1 n=g#6 v=0
143326 On ch=1 n=b5 v=50
143328 On ch=1 n=g#5 v=37
143330 On ch=1 n=f5 v=25
143460 Par ch=1 c=64 v=63
143518 Par ch=1 c=64 v=0
143694 Par ch=1 c=64 v=63
143730 Par ch=1 c=64 v=127
143862 On ch=1 n=b5 v=0
144026 On ch=1 n=g#5 v=0
144036 On ch=1 n=f5 v=0
144104 On ch=1 n=b5 v=65
144298 Par ch=1 c=64 v=63
144322 On ch=1 n=b5 v=0
144328 On ch=1 n=d6 v=62
144330 On ch=1 n=d#5 v=57
144350 On ch=1 n=g5 v=21
144376 Par ch=1 c=64 v=0
144502 Par ch=1 c=64 v=63
144530 On ch=1 n=c6 v=72
144536 On ch=1 n=d6 v=0
144716 On ch=1 n=b4 v=57
144718 On ch=1 n=d#6 v=94
144730 Par ch=1 c=64 v=0
144744 On ch=1 n=c6 v=0
144792 On ch=1 n=d#5 v=0
144890 On ch=1 n=d6 v=89
144916 Par ch=1 c=64 v=63
144998 On ch=1 n=d#6 v=0
145068 On ch=1 n=c5 v=88
145084 On ch=1 n=b4 v=0
145084 On ch=1 n=f6 v=98
145134 On ch=1 n=d6 v=0
145256 On ch=1 n=d#6 v=100
145326 On ch=1 n=f6 v=0
145380 On ch=1 n=d#6 v=0
145398 On ch=1 n=c5 v=0
145448 On ch=1 n=d5 v=90
145626 On ch=1 n=b5 v=97
145746 On ch=1 n=g5 v=0
145764 On ch=1 n=d5 v=0
145822 On ch=1 n=d6 v=99
145830 On ch=1 n=b5 v=0
145834 On ch=1 n=d#5 v=80
145838 On ch=1 n=g5 v=63
145998 On ch=1 n=c6 v=97
146030 On ch=1 n=d6 v=0
146172 On ch=1 n=b4 v=71
146176 Par ch=1 c=64 v=0
146178 On ch=1 n=d#6 v=107
146226 On ch=1 n=c6 v=0
146260 On ch=1 n=d#5 v=0
146320 Par ch=1 c=64 v=63
146340 On ch=1 n=d6 v=84
146418 On ch=1 n=d#6 v=0
146540 On ch=1 n=b4 v=0
146546 On ch=1 n=d6 v=0
146550 On ch=1 n=f6 v=87
146552 On ch=1 n=c5 v=71
146740 On ch=1 n=d#6 v=83
146784 On ch=1 n=f6 v=0
146822 On ch=1 n=d#6 v=0
146892 On ch=1 n=g5 v=0
146938 On ch=1 n=c5 v=0
146986 On ch=1 n=f6 v=82
147180 On ch=1 n=f6 v=0
147192 On ch=1 n=e6 v=63
147334 On ch=1 n=e6 v=0
147514 On ch=1 n=f6 v=98
147524 Par ch=1 c=64 v=127
147642 On ch=1 n=f6 v=0
148210 On ch=1 n=d6 v=70
148304 On ch=1 n=d6 v=0
148412 On ch=1 n=a#5 v=72
148420 On ch=1 n=f5 v=42
148432 On ch=1 n=d5 v=47
148468 Par ch=1 c=64 v=63
148502 Par ch=1 c=64 v=0
148526 On ch=1 n=a#5 v=0
148712 Par ch=1 c=64 v=63
148764 Par ch=1 c=64 v=127
148848 On ch=1 n=a#5 v=92
148938 On ch=1 n=d5 v=0
148972 On ch=1 n=f5 v=0
148984 On ch=1 n=a#5 v=0
149294 On ch=1 n=d#6 v=95
149298 On ch=1 n=a5 v=80
149304 On ch=1 n=c5 v=82
149408 Par ch=1 c=64 v=63
149450 Par ch=1 c=64 v=0
149536 Par ch=1 c=64 v=63
149564 Par ch=1 c=64 v=127
149758 On ch=1 n=f#6 v=76
149800 On ch=1 n=a5 v=0
149848 On ch=1 n=d#6 v=0
149902 On ch=1 n=c5 v=0
150062 On ch=1 n=f#6 v=0
150254 Par ch=1 c=64 v=63
150288 On ch=1 n=d#5 v=61
150292 Par ch=1 c=64 v=0
150304 On ch=1 n=a5 v=57
150304 On ch=1 n=f#5 v=61
150494 Par ch=1 c=64 v=63
150522 Par ch=1 c=64 v=127
150798 On ch=1 n=a5 v=0
150930 On ch=1 n=d#5 v=0
150954 On ch=1 n=f#5 v=0
151076 On ch=1 n=a5 v=52
151220 Par ch=1 c=64 v=63
151290 On ch=1 n=a5 v=0
151296 On ch=1 n=c6 v=57
151328 On ch=1 n=f5 v=29
151346 On ch=1 n=c#5 v=50
151502 On ch=1 n=a#5 v=76
151520 Par ch=1 c=64 v=127
151546 On ch=1 n=c6 v=0
151714 On ch=1 n=c#6 v=86
151728 On ch=1 n=a4 v=41
151734 On ch=1 n=a#5 v=0
151778 Par ch=1 c=64 v=63
151808 On ch=1 n=c#5 v=0
151878 Par ch=1 c=64 v=127
151884 On ch=1 n=c6 v=76
151890 On ch=1 n=c#6 v=0
152094 On ch=1 n=d#6 v=82
152102 On ch=1 n=a#4 v=55
152142 On ch=1 n=c6 v=0
152196 On ch=1 n=a4 v=0
152206 Par ch=1 c=64 v=63
152256 Par ch=1 c=64 v=0
152286 On ch=1 n=c#6 v=83
152310 Par ch=1 c=64 v=63
152330 On ch=1 n=f5 v=0
152342 Par ch=1 c=64 v=127
152346 On ch=1 n=d#6 v=0
152378 On ch=1 n=a#4 v=0
152404 On ch=1 n=c#6 v=0
152474 On ch=1 n=c5 v=78
152660 On ch=1 n=a5 v=89
152842 On ch=1 n=c6 v=98
152848 On ch=1 n=c#5 v=90
152856 On ch=1 n=f5 v=54
152864 On ch=1 n=a5 v=0
152876 On ch=1 n=c5 v=0
152886 Par ch=1 c=64 v=63
152908 Par ch=1 c=64 v=0
153030 On ch=1 n=a#5 v=103
153034 Par ch=1 c=64 v=63
153078 Par ch=1 c=64 v=127
153094 On ch=1 n=c6 v=0
153234 On ch=1 n=a4 v=62
153246 On ch=1 n=c#6 v=100
153292 On ch=1 n=a#5 v=0
153330 On ch=1 n=c#5 v=0
153402 On ch=1 n=c6 v=96
153438 On ch=1 n=c#6 v=0
153494 Par ch=1 c=64 v=63
153598 On ch=1 n=a#4 v=75
153610 On ch=1 n=d#6 v=104
153624 Par ch=1 c=64 v=127
153686 On ch=1 n=c6 v=0
153696 On ch=1 n=a4 v=0
153764 On ch=1 n=a#4 v=0
153766 On ch=1 n=c#6 v=109
153768 On ch=1 n=f5 v=0
153824 On ch=1 n=d#6 v=0
153858 On ch=1 n=c#6 v=0
153948 Par ch=1 c=64 v=63
153970 Par ch=1 c=64 v=0
153980 On ch=1 n=f5 v=80
153982 On ch=1 n=a#4 v=72
154110 On ch=1 n=a#4 v=0
154148 On ch=1 n=f5 v=0
154178 On ch=1 n=c#6 v=98
154252 On ch=1 n=c#6 v=0
154362 On ch=1 n=c#6 v=99
154530 On ch=1 n=b5 v=85
154566 On ch=1 n=c#6 v=0
154682 Par ch=1 c=64 v=63
154698 Par ch=1 c=64 v=127
154722 On ch=1 n=f5 v=70
154730 On ch=1 n=g#4 v=67
154752 On ch=1 n=b5 v=0
154862 On ch=1 n=f5 v=0
154894 On ch=1 n=b5 v=94
154904 On ch=1 n=g#4 v=0
155000 On ch=1 n=b5 v=0
155086 On ch=1 n=b5 v=102
155104 Par ch=1 c=64 v=63
155118 Par ch=1 c=64 v=0
155242 Par ch=1 c=64 v=63
155254 Par ch=1 c=64 v=127
155268 On ch=1 n=a#5 v=106
155324 On ch=1 n=b5 v=0
155410 On ch=1 n=a#5 v=0
155454 On ch=1 n=c#5 v=99
155470 On ch=1 n=f#4 v=71
155582 Par ch=1 c=64 v=63
155600 Par ch=1 c=64 v=0
155632 On ch=1 n=a#5 v=109
155674 On ch=1 n=f#4 v=0
155716 On ch=1 n=c#5 v=0
155730 On ch=1 n=a#5 v=0
155806 On ch=1 n=a#5 v=98
155874 Par ch=1 c=64 v=63
155886 Par ch=1 c=64 v=127
156012 On ch=1 n=g#6 v=112
156140 On ch=1 n=a#5 v=0
156216 On ch=1 n=d5 v=104
156234 On ch=1 n=f4 v=85
156316 Par ch=1 c=64 v=63
156320 On ch=1 n=g#6 v=0
156328 Par ch=1 c=64 v=0
156392 On ch=1 n=g#6 v=113
156420 Par ch=1 c=64 v=63
156450 Par ch=1 c=64 v=127
156498 On ch=1 n=d5 v=0
156514 On ch=1 n=g#6 v=0
156522 On ch=1 n=f4 v=0
156540 Par ch=1 c=64 v=63
156558 Par ch=1 c=64 v=0
156582 On ch=1 n=g#6 v=106
156752 On ch=1 n=f#6 v=110
156836 On ch=1 n=g#6 v=0
156878 On ch=1 n=f#6 v=0
156918 On ch=1 n=d#5 v=113
156920 On ch=1 n=d#4 v=109
157006 Par ch=1 c=64 v=63
157044 Par ch=1 c=64 v=127
157112 On ch=1 n=f#6 v=114
157242 On ch=1 n=f#6 v=0
157266 On ch=1 n=d#5 v=0
157308 On ch=1 n=f#6 v=104
157312 On ch=1 n=d#4 v=0
157468 On ch=1 n=f6 v=108
157540 On ch=1 n=f#6 v=0
157648 On ch=1 n=c#5 v=112
157650 On ch=1 n=f4 v=97
157710 Par ch=1 c=64 v=63
157738 Par ch=1 c=64 v=0
157744 On ch=1 n=f6 v=0
157846 On ch=1 n=f6 v=114
157872 Par ch=1 c=64 v=63
157888 Par ch=1 c=64 v=127
157956 On ch=1 n=f6 v=0
158032 On ch=1 n=f6 v=117
158058 On ch=1 n=c#5 v=0
158062 On ch=1 n=f4 v=0
158212 On ch=1 n=e6 v=116
158294 On ch=1 n=f6 v=0
158392 Par ch=1 c=64 v=63
158406 On ch=1 n=c#5 v=113
158414 On ch=1 n=f#4 v=99
158468 Par ch=1 c=64 v=127
158504 On ch=1 n=e6 v=0
158600 On ch=1 n=e6 v=117
158612 On ch=1 n=f#4 v=0
158670 On ch=1 n=c#5 v=0
158764 On ch=1 n=f#4 v=92
158874 On ch=1 n=e5 v=102
158888 On ch=1 n=e6 v=0
158888 On ch=1 n=a#6 v=120
158914 Par ch=1 c=64 v=63
158924 Par ch=1 c=64 v=0
159008 Par ch=1 c=64 v=63
159032 Par ch=1 c=64 v=127
159142 On ch=1 n=a#6 v=0
159156 On ch=1 n=c7 v=97
159244 On ch=1 n=a#6 v=107
159276 On ch=1 n=c7 v=0
159300 On ch=1 n=a6 v=94
159326 On ch=1 n=a#6 v=0
159364 On ch=1 n=a#6 v=110
159400 On ch=1 n=a6 v=0
159590 On ch=1 n=c7 v=111
159660 On ch=1 n=a#6 v=0
159790 On ch=1 n=a#4 v=87
159812 On ch=1 n=a#6 v=46
159832 On ch=1 n=c#7 v=109
159872 On ch=1 n=a#6 v=0
159880 Par ch=1 c=64 v=63
159896 On ch=1 n=c7 v=0
159924 Par ch=1 c=64 v=0
159978 Par ch=1 c=64 v=63
160044 Par ch=1 c=64 v=127
160318 On ch=1 n=e6 v=106
160350 On ch=1 n=e5 v=0
160362 On ch=1 n=c#7 v=0
160544 On ch=1 n=a#4 v=0
160632 On ch=1 n=f#4 v=0
160722 On ch=1 n=e6 v=0
160776 On ch=1 n=a4 v=65
160776 On ch=1 n=f6 v=90
160786 On ch=1 n=f4 v=59
160914 Par ch=1 c=64 v=63
160952 Par ch=1 c=64 v=0
161010 On ch=1 n=e6 v=90
161064 Par ch=1 c=64 v=63
161086 On ch=1 n=f6 v=0
161088 Par ch=1 c=64 v=127
161216 On ch=1 n=f6 v=91
161276 On ch=1 n=e6 v=0
161388 On ch=1 n=c6 v=93
161396 Par ch=1 c=64 v=63
161398 On ch=1 n=f6 v=0
161438 Par ch=1 c=64 v=0
161586 On ch=1 n=d#6 v=86
161588 On ch=1 n=a#4 v=63
161610 On ch=1 n=c6 v=0
161626 Par ch=1 c=64 v=63
161650 On ch=1 n=a4 v=0
161652 Par ch=1 c=64 v=127
161742 Par ch=1 c=64 v=63
161782 On ch=1 n=c#6 v=87
161784 Par ch=1 c=64 v=0
161840 On ch=1 n=d#6 v=0
161858 Par ch=1 c=64 v=63
161888 Par ch=1 c=64 v=127
161972 On ch=1 n=c6 v=87
162004 On ch=1 n=c#6 v=0
162142 On ch=1 n=c6 v=0
162150 On ch=1 n=a#5 v=90
162176 On ch=1 n=f4 v=0
162214 On ch=1 n=a#4 v=0
162342 On ch=1 n=a4 v=58
162354 On ch=1 n=f#6 v=88
162360 On ch=1 n=f4 v=61
162382 On ch=1 n=a#5 v=0
162396 Par ch=1 c=64 v=63
162432 Par ch=1 c=64 v=0
162496 Par ch=1 c=64 v=63
162534 Par ch=1 c=64 v=127
162538 On ch=1 n=f6 v=85
162574 On ch=1 n=f#6 v=0
162726 On ch=1 n=e6 v=91
162772 On ch=1 n=f6 v=0
162896 On ch=1 n=f6 v=84
162916 On ch=1 n=e6 v=0
163102 Par ch=1 c=64 v=63
163102 On ch=1 n=a#4 v=66
163104 On ch=1 n=d#6 v=86
163124 On ch=1 n=f6 v=0
163126 Par ch=1 c=64 v=0
163164 On ch=1 n=a4 v=0
163280 Par ch=1 c=64 v=63
163290 On ch=1 n=c#6 v=88
163302 Par ch=1 c=64 v=127
163316 On ch=1 n=d#6 v=0
163480 On ch=1 n=c#6 v=0
163498 On ch=1 n=c6 v=74
163524 On ch=1 n=f4 v=0
163588 On ch=1 n=a#4 v=0
163644 On ch=1 n=c6 v=0
163644 On ch=1 n=a#5 v=88
163840 Par ch=1 c=64 v=63
163842 On ch=1 n=a#5 v=0
163864 On ch=1 n=c6 v=74
163876 On ch=1 n=f5 v=68
163878 On ch=1 n=a5 v=55
163884 Par ch=1 c=64 v=0
163966 On ch=1 n=f5 v=0
163988 On ch=1 n=c6 v=0
163996 On ch=1 n=a5 v=0
164056 On ch=1 n=f5 v=72
164156 On ch=1 n=f5 v=0
164248 On ch=1 n=c#6 v=80
164262 On ch=1 n=a#5 v=65
164388 Par ch=1 c=64 v=63
164408 Par ch=1 c=64 v=127
164422 On ch=1 n=f5 v=67
164508 On ch=1 n=f5 v=0
164606 On ch=1 n=a#5 v=0
164618 Par ch=1 c=64 v=63
164620 On ch=1 n=c#6 v=0
164634 On ch=1 n=c6 v=80
164644 On ch=1 n=a5 v=61
164646 On ch=1 n=f5 v=48
164662 Par ch=1 c=64 v=0
164708 On ch=1 n=f5 v=0
164826 On ch=1 n=f5 v=76
164906 On ch=1 n=f5 v=0
164950 On ch=1 n=a5 v=0
164970 On ch=1 n=c6 v=0
165026 On ch=1 n=e6 v=87
165038 On ch=1 n=a#5 v=72
165212 On ch=1 n=f5 v=71
165226 On ch=1 n=e6 v=0
165246 Par ch=1 c=64 v=63
165266 Par ch=1 c=64 v=127
165356 On ch=1 n=f5 v=0
165392 Par ch=1 c=64 v=63
165408 On ch=1 n=f6 v=85
165422 On ch=1 n=f5 v=70
165422 On ch=1 n=a5 v=59
165424 On ch=1 n=a#5 v=0
165430 Par ch=1 c=64 v=0
165498 On ch=1 n=f5 v=0
165588 On ch=1 n=f6 v=0
165602 On ch=1 n=f5 v=75
165658 On ch=1 n=f5 v=0
165698 On ch=1 n=a5 v=0
165794 On ch=1 n=c#6 v=72
165814 On ch=1 n=a#5 v=55
165980 On ch=1 n=f5 v=54
166050 On ch=1 n=f5 v=0
166140 On ch=1 n=a#5 v=0
166160 On ch=1 n=c#6 v=0
166174 On ch=1 n=c6 v=71
166174 On ch=1 n=a5 v=42
166192 On ch=1 n=f5 v=41
166258 On ch=1 n=f5 v=0
166340 On ch=1 n=f5 v=59
166390 On ch=1 n=c6 v=0
166412 On ch=1 n=a5 v=0
166424 On ch=1 n=f5 v=0
166562 On ch=1 n=e6 v=63
166578 On ch=1 n=a#5 v=36
166644 Par ch=1 c=64 v=63
166668 Par ch=1 c=64 v=127
166738 On ch=1 n=e6 v=0
166742 On ch=1 n=f5 v=57
166840 On ch=1 n=f5 v=0
166916 On ch=1 n=a#5 v=0
166926 Par ch=1 c=64 v=63
166992 On ch=1 n=f5 v=52
166996 On ch=1 n=f6 v=68
167004 On ch=1 n=f4 v=44
167006 On ch=1 n=a5 v=39
167042 Par ch=1 c=64 v=127
167108 Par ch=1 c=64 v=63
167116 On ch=1 n=f6 v=0
167118 On ch=1 n=a5 v=0
167142 On ch=1 n=f5 v=0
167148 On ch=1 n=f4 v=0
167214 Par ch=1 c=64 v=0
167234 On ch=1 n=f6 v=71
167336 On ch=1 n=f6 v=0
167426 On ch=1 n=a4 v=50
167450 On ch=1 n=f4 v=47
167476 Par ch=1 c=64 v=63
167496 Par ch=1 c=64 v=127
167620 On ch=1 n=f6 v=76
167686 Par ch=1 c=64 v=63
167692 On ch=1 n=f6 v=0
167726 Par ch=1 c=64 v=0
167790 On ch=1 n=f4 v=0
167796 On ch=1 n=a4 v=0
167816 On ch=1 n=f6 v=92
167894 On ch=1 n=f6 v=0
167986 On ch=1 n=f6 v=101
168058 On ch=1 n=f6 v=0
168174 On ch=1 n=a4 v=75
168198 On ch=1 n=f4 v=50
168330 Par ch=1 c=64 v=63
168360 On ch=1 n=f6 v=98
168364 Par ch=1 c=64 v=127
168416 On ch=1 n=f4 v=0
168446 On ch=1 n=f6 v=0
168482 On ch=1 n=a4 v=0
168538 On ch=1 n=f6 v=101
168544 On ch=1 n=g4 v=74
168548 On ch=1 n=a#4 v=87
168560 Par ch=1 c=64 v=63
168592 On ch=1 n=f4 v=28
168612 Par ch=1 c=64 v=0
168626 On ch=1 n=f6 v=0
168682 On ch=1 n=a#4 v=0
168706 On ch=1 n=g4 v=0
168726 On ch=1 n=f6 v=102
168738 On ch=1 n=f4 v=0
168800 On ch=1 n=f6 v=0
168932 On ch=1 n=a#4 v=85
168936 On ch=1 n=g4 v=65
168948 On ch=1 n=f4 v=63
169086 Par ch=1 c=64 v=63
169100 On ch=1 n=f6 v=100
169174 On ch=1 n=f6 v=0
169186 Par ch=1 c=64 v=0
169222 On ch=1 n=a#4 v=0
169246 On ch=1 n=g4 v=0
169256 On ch=1 n=f4 v=0
169296 On ch=1 n=f6 v=107
169366 On ch=1 n=f6 v=0
169460 On ch=1 n=f6 v=114
169524 On ch=1 n=f6 v=0
169642 Par ch=1 c=64 v=63
169644 On ch=1 n=g#4 v=97
169650 On ch=1 n=b4 v=93
169660 On ch=1 n=f4 v=72
169662 Par ch=1 c=64 v=127
169818 On ch=1 n=f6 v=111
169900 On ch=1 n=b4 v=0
169908 On ch=1 n=f4 v=0
169910 On ch=1 n=f6 v=0
169916 On ch=1 n=g#4 v=0
170004 On ch=1 n=f6 v=116
170006 On ch=1 n=a4 v=99
170008 Par ch=1 c=64 v=63
170010 On ch=1 n=f4 v=87
170012 On ch=1 n=c5 v=99
170030 Par ch=1 c=64 v=0
170060 On ch=1 n=f4 v=0
170064 On ch=1 n=c5 v=0
170072 On ch=1 n=a4 v=0
170078 On ch=1 n=f6 v=0
170194 On ch=1 n=f6 v=112
170274 On ch=1 n=f6 v=0
170374 On ch=1 n=f4 v=87
170374 On ch=1 n=a4 v=97
170374 On ch=1 n=c#5 v=114
170394 Par ch=1 c=64 v=63
170408 Par ch=1 c=64 v=127
170508 On ch=1 n=a4 v=0
170542 On ch=1 n=c#5 v=0
170544 On ch=1 n=f6 v=116
170652 On ch=1 n=f6 v=0
170740 On ch=1 n=f6 v=117
170742 On ch=1 n=d5 v=109
170746 On ch=1 n=a#4 v=106
170748 Par ch=1 c=64 v=63
170764 Par ch=1 c=64 v=0
170802 On ch=1 n=d5 v=0
170802 On ch=1 n=f4 v=0
170810 On ch=1 n=a#4 v=0
170824 On ch=1 n=f6 v=0
170920 On ch=1 n=f6 v=121
171012 On ch=1 n=f6 v=0
171100 Par ch=1 c=64 v=63
171112 On ch=1 n=d5 v=120
171116 Par ch=1 c=64 v=127
171116 On ch=1 n=b4 v=109
171118 On ch=1 n=f4 v=109
171236 On ch=1 n=b4 v=0
171278 On ch=1 n=f4 v=0
171286 On ch=1 n=d5 v=0
171290 On ch=1 n=f6 v=117
171388 On ch=1 n=f6 v=0
171514 Par ch=1 c=64 v=63
171536 Par ch=1 c=64 v=0
171564 On ch=1 n=f4 v=64
171566 On ch=1 n=f6 v=106
171566 On ch=1 n=c5 v=96
171570 On ch=1 n=d#5 v=113
171610 Par ch=1 c=64 v=63
171636 Par ch=1 c=64 v=127
171848 On ch=1 n=f6 v=0
171920 On ch=1 n=f5 v=93
172194 On ch=1 n=e5 v=77
172198 On ch=1 n=f5 v=0
172400 On ch=1 n=f5 v=81
172402 On ch=1 n=e5 v=0
172540 Par ch=1 c=64 v=63
172604 On ch=1 n=f#5 v=89
172636 On ch=1 n=f5 v=0
172738 Par ch=1 c=64 v=0
172796 On ch=1 n=g5 v=80
172842 On ch=1 n=f#5 v=0
172982 On ch=1 n=g#5 v=76
173026 On ch=1 n=g5 v=0
173160 On ch=1 n=a5 v=66
173182 On ch=1 n=g#5 v=0
173350 On ch=1 n=a#5 v=61
173376 On ch=1 n=a5 v=0
173528 On ch=1 n=a#5 v=0
173530 On ch=1 n=b5 v=58
173744 On ch=1 n=b5 v=0
173746 On ch=1 n=c6 v=56
173946 On ch=1 n=f4 v=0
173950 On ch=1 n=c#6 v=53
173968 On ch=1 n=c6 v=0
174154 On ch=1 n=c#6 v=0
174154 On ch=1 n=d6 v=52
174176 On ch=1 n=d#5 v=0
174194 On ch=1 n=c5 v=0
174404 On ch=1 n=d#6 v=54
174478 On ch=1 n=d6 v=0
174698 On ch=1 n=e6 v=61
174734 On ch=1 n=d#6 v=0
175008 On ch=1 n=f6 v=58
175072 On ch=1 n=e6 v=0
175172 Par ch=1 c=64 v=63
175198 Par ch=1 c=64 v=127
175346 On ch=1 n=f6 v=0
175430 On ch=1 n=f6 v=59
175550 Par ch=1 c=64 v=63
175646 Par ch=1 c=64 v=127
175906 On ch=1 n=a#4 v=55
176068 On ch=1 n=d6 v=74
176074 On ch=1 n=f6 v=0
176236 On ch=1 n=d5 v=62
176240 On ch=1 n=a#5 v=72
176256 On ch=1 n=a#4 v=0
176272 On ch=1 n=d6 v=0
176280 Par ch=1 c=64 v=63
176316 Par ch=1 c=64 v=0
176318 On ch=1 n=a#5 v=0
176652 On ch=1 n=g5 v=49
176656 On ch=1 n=a#5 v=85
176682 On ch=1 n=d5 v=0
176750 On ch=1 n=a#5 v=0
177032 On ch=1 n=d#6 v=76
177036 On ch=1 n=c5 v=49
177078 On ch=1 n=g5 v=0
177082 Par ch=1 c=64 v=63
177100 Par ch=1 c=64 v=127
177416 On ch=1 n=d#5 v=65
177426 Par ch=1 c=64 v=63
177444 On ch=1 n=g6 v=74
177460 On ch=1 n=c5 v=0
177508 Par ch=1 c=64 v=0
177524 On ch=1 n=d#6 v=0
177782 On ch=1 n=g6 v=0
177834 On ch=1 n=a5 v=62
177836 On ch=1 n=f5 v=42
177888 On ch=1 n=d#5 v=0
178054 Par ch=1 c=64 v=63
178110 Par ch=1 c=64 v=127
178244 On ch=1 n=d#5 v=65
178294 On ch=1 n=f5 v=0
178338 On ch=1 n=a5 v=0
178636 On ch=1 n=d5 v=45
178638 On ch=1 n=c6 v=70
178640 Par ch=1 c=64 v=63
178686 On ch=1 n=d#5 v=0
178760 Par ch=1 c=64 v=0
178802 On ch=1 n=a#5 v=85
178862 On ch=1 n=c6 v=0
178958 On ch=1 n=a#5 v=0
178988 On ch=1 n=a4 v=58
178998 On ch=1 n=d6 v=90
179026 On ch=1 n=d5 v=0
179128 On ch=1 n=d6 v=0
179148 On ch=1 n=c6 v=90
179218 Par ch=1 c=64 v=63
179344 On ch=1 n=d#6 v=95
179346 On ch=1 n=c6 v=0
179350 On ch=1 n=a#4 v=78
179362 Par ch=1 c=64 v=127
179384 On ch=1 n=a4 v=0
179478 On ch=1 n=a#4 v=0
179500 On ch=1 n=d6 v=91
179584 On ch=1 n=d#6 v=0
179620 Par ch=1 c=64 v=63
179662 Par ch=1 c=64 v=0
179676 On ch=1 n=d6 v=0
179696 On ch=1 n=f6 v=92
179708 On ch=1 n=c5 v=81
179708 On ch=1 n=d#4 v=85
179814 Par ch=1 c=64 v=63
179844 Par ch=1 c=64 v=127
179874 On ch=1 n=d#6 v=98
179918 On ch=1 n=d#4 v=0
179930 On ch=1 n=f6 v=0
179982 On ch=1 n=c5 v=0
180030 Par ch=1 c=64 v=63
180074 Par ch=1 c=64 v=0
180082 On ch=1 n=a#4 v=75
180090 On ch=1 n=d6 v=85
180104 On ch=1 n=f4 v=62
180138 On ch=1 n=d#6 v=0
180344 Par ch=1 c=64 v=63
180364 Par ch=1 c=64 v=127
180470 On ch=1 n=d6 v=0
180730 On ch=1 n=d#6 v=88
180814 On ch=1 n=d6 v=76
180832 On ch=1 n=d#6 v=0
180848 Par ch=1 c=64 v=63
180866 On ch=1 n=a#4 v=0
180882 On ch=1 n=c6 v=76
180892 On ch=1 n=a4 v=39
180898 Par ch=1 c=64 v=0
180914 On ch=1 n=d6 v=0
181080 On ch=1 n=c6 v=0
181088 On ch=1 n=d6 v=88
181214 On ch=1 n=d6 v=0
181280 On ch=1 n=d#6 v=87
181316 On ch=1 n=a4 v=0
181320 On ch=1 n=f4 v=0
181380 On ch=1 n=d#6 v=0
181446 On ch=1 n=e6 v=86
181542 On ch=1 n=e6 v=0
181666 On ch=1 n=f6 v=84
181700 Par ch=1 c=64 v=63
181712 Par ch=1 c=64 v=127
181794 On ch=1 n=f6 v=0
182070 On ch=1 n=a#4 v=76
182154 On ch=1 n=a#4 v=0
182246 On ch=1 n=d#6 v=80
182318 On ch=1 n=d6 v=74
182346 On ch=1 n=d#6 v=0
182384 On ch=1 n=c6 v=66
182386 Par ch=1 c=64 v=63
182404 On ch=1 n=d6 v=0
182410 Par ch=1 c=64 v=0
182416 On ch=1 n=d5 v=69
182462 On ch=1 n=a#5 v=64
182464 On ch=1 n=c6 v=0
182504 On ch=1 n=a#5 v=0
182842 On ch=1 n=a#5 v=75
182844 On ch=1 n=d5 v=0
182852 On ch=1 n=g5 v=35
182910 On ch=1 n=a#5 v=0
183210 On ch=1 n=d#6 v=89
183220 On ch=1 n=c5 v=70
183256 On ch=1 n=g5 v=0
183284 Par ch=1 c=64 v=63
183296 Par ch=1 c=64 v=127
183600 On ch=1 n=g6 v=75
183610 On ch=1 n=d#5 v=59
183628 On ch=1 n=c5 v=0
183646 Par ch=1 c=64 v=63
183660 On ch=1 n=d#6 v=0
183722 Par ch=1 c=64 v=0
183790 On ch=1 n=g6 v=0
183992 On ch=1 n=a5 v=69
184004 On ch=1 n=f5 v=47
184024 On ch=1 n=d#5 v=0
184098 Par ch=1 c=64 v=63
184120 Par ch=1 c=64 v=127
184302 On ch=1 n=a5 v=0
184400 On ch=1 n=f5 v=0
184400 On ch=1 n=d#5 v=77
184440 Par ch=1 c=64 v=63
184470 Par ch=1 c=64 v=0
184562 On ch=1 n=a5 v=68
184644 On ch=1 n=a5 v=0
184736 Par ch=1 c=64 v=63
184742 On ch=1 n=d#5 v=0
184742 On ch=1 n=d5 v=64
184752 Par ch=1 c=64 v=127
184758 On ch=1 n=a#5 v=89
184830 On ch=1 n=d5 v=0
184888 On ch=1 n=a#5 v=0
184930 On ch=1 n=d6 v=71
185072 On ch=1 n=d6 v=0
185080 Par ch=1 c=64 v=63
185098 Par ch=1 c=64 v=0
185112 On ch=1 n=d#4 v=79
185114 On ch=1 n=d#5 v=79
185120 On ch=1 n=g5 v=63
185194 On ch=1 n=d#5 v=0
185204 On ch=1 n=d#4 v=0
185266 On ch=1 n=g5 v=0
185280 On ch=1 n=c6 v=78
185418 On ch=1 n=c6 v=0
185484 On ch=1 n=a#5 v=88
185492 On ch=1 n=d5 v=59
185492 Par ch=1 c=64 v=63
185504 Par ch=1 c=64 v=127
185506 On ch=1 n=f4 v=55
185682 On ch=1 n=d5 v=0
185684 On ch=1 n=a#5 v=0
185738 On ch=1 n=a#5 v=18
185876 On ch=1 n=a5 v=60
185880 On ch=1 n=c5 v=58
185882 On ch=1 n=a#5 v=0
185904 Par ch=1 c=64 v=63
185934 Par ch=1 c=64 v=0
186108 On ch=1 n=f4 v=0
186118 On ch=1 n=c5 v=0
186206 On ch=1 n=a5 v=0
186230 Par ch=1 c=64 v=63
186246 Par ch=1 c=64 v=127
186260 On ch=1 n=a#4 v=65
186262 On ch=1 n=a#5 v=74
186314 On ch=1 n=a#4 v=0
186356 On ch=1 n=a#5 v=0
186436 On ch=1 n=f5 v=69
186540 On ch=1 n=f5 v=0
186540 Par ch=1 c=64 v=63
186610 Par ch=1 c=64 v=0
186630 On ch=1 n=g5 v=82
186706 On ch=1 n=g5 v=0
186788 On ch=1 n=a5 v=91
186866 On ch=1 n=a5 v=0
186970 On ch=1 n=a#5 v=106
187056 On ch=1 n=a#5 v=0
187136 On ch=1 n=c6 v=99
187232 On ch=1 n=c6 v=0
187332 On ch=1 n=d6 v=100
187404 On ch=1 n=d6 v=0
187470 On ch=1 n=d#6 v=110
187558 On ch=1 n=d#6 v=0
187664 On ch=1 n=a#4 v=57
187664 On ch=1 n=f6 v=114
187702 Par ch=1 c=64 v=63
187712 Par ch=1 c=64 v=127
187834 On ch=1 n=a#4 v=0
187852 On ch=1 n=f5 v=77
187854 On ch=1 n=f6 v=0
187964 On ch=1 n=f5 v=0
188054 On ch=1 n=d5 v=89
188154 On ch=1 n=d5 v=0
188228 On ch=1 n=d6 v=100
188230 On ch=1 n=f5 v=72
188322 On ch=1 n=d6 v=0
188350 On ch=1 n=f5 v=0
188402 Par ch=1 c=64 v=63
188408 On ch=1 n=a#5 v=105
188410 On ch=1 n=g4 v=74
188422 Par ch=1 c=64 v=0
188464 On ch=1 n=a#5 v=0
188594 On ch=1 n=d5 v=84
188622 On ch=1 n=g4 v=0
188790 On ch=1 n=a#5 v=104
188792 On ch=1 n=a#4 v=85
188808 On ch=1 n=d5 v=0
188810 Par ch=1 c=64 v=63
188826 Par ch=1 c=64 v=127
188848 On ch=1 n=a#5 v=0
188920 On ch=1 n=a#4 v=0
188928 Par ch=1 c=64 v=63
188948 On ch=1 n=d5 v=88
188956 Par ch=1 c=64 v=0
189118 Par ch=1 c=64 v=63
189128 On ch=1 n=d5 v=0
189130 On ch=1 n=d#6 v=106
189130 On ch=1 n=d#4 v=98
189132 Par ch=1 c=64 v=127
189216 On ch=1 n=d#6 v=0
189252 On ch=1 n=d#4 v=0
189288 On ch=1 n=f6 v=92
189340 On ch=1 n=d#6 v=91
189370 On ch=1 n=c5 v=60
189374 On ch=1 n=f6 v=0
189402 On ch=1 n=d6 v=86
189404 On ch=1 n=d#6 v=0
189444 On ch=1 n=d#6 v=109
189472 Par ch=1 c=64 v=63
189480 On ch=1 n=d6 v=0
189492 Par ch=1 c=64 v=0
189496 On ch=1 n=g6 v=98
189516 On ch=1 n=c5 v=0
189522 On ch=1 n=d#6 v=0
189532 On ch=1 n=g4 v=78
189614 On ch=1 n=g6 v=0
189692 On ch=1 n=g4 v=0
189696 On ch=1 n=c5 v=93
189858 On ch=1 n=c5 v=0
189878 On ch=1 n=f4 v=74
189880 On ch=1 n=a5 v=96
189906 Par ch=1 c=64 v=63
189922 Par ch=1 c=64 v=127
190034 On ch=1 n=f4 v=0
190062 On ch=1 n=d#5 v=87
190218 On ch=1 n=a5 v=0
190252 On ch=1 n=d#5 v=0
190264 On ch=1 n=c5 v=84
190410 On ch=1 n=c5 v=0
190412 On ch=1 n=d#5 v=94
190492 On ch=1 n=d#5 v=0
190608 On ch=1 n=d5 v=90
190620 On ch=1 n=c6 v=96
190622 Par ch=1 c=64 v=63
190650 Par ch=1 c=64 v=0
190786 On ch=1 n=a#5 v=101
190836 On ch=1 n=d5 v=0
190838 On ch=1 n=c6 v=0
190890 On ch=1 n=a#5 v=0
190962 On ch=1 n=d6 v=101
190968 On ch=1 n=f5 v=93
190984 On ch=1 n=a4 v=74
191098 On ch=1 n=d6 v=0
191116 On ch=1 n=c6 v=93
191130 On ch=1 n=a4 v=0
191320 On ch=1 n=d#6 v=107
191322 On ch=1 n=a#4 v=91
191356 On ch=1 n=c6 v=0
191384 Par ch=1 c=64 v=63
191404 Par ch=1 c=64 v=127
191408 On ch=1 n=f5 v=0
191488 On ch=1 n=d6 v=99
191516 On ch=1 n=d#6 v=0
191528 On ch=1 n=a#4 v=0
191624 On ch=1 n=d6 v=0
191670 On ch=1 n=f6 v=106
191686 On ch=1 n=d#4 v=100
191696 On ch=1 n=c5 v=80
191722 Par ch=1 c=64 v=63
191762 Par ch=1 c=64 v=0
191836 Par ch=1 c=64 v=63
191850 On ch=1 n=d#6 v=115
191876 Par ch=1 c=64 v=127
191884 On ch=1 n=d#4 v=0
191916 On ch=1 n=f6 v=0
192052 On ch=1 n=a#4 v=101
192052 On ch=1 n=d6 v=107
192056 On ch=1 n=f4 v=92
192072 Par ch=1 c=64 v=63
192074 On ch=1 n=c5 v=0
192100 Par ch=1 c=64 v=0
192106 On ch=1 n=d#6 v=0
192200 Par ch=1 c=64 v=63
192226 Par ch=1 c=64 v=127
192370 On ch=1 n=d6 v=0
192666 On ch=1 n=d#6 v=90
192746 On ch=1 n=d6 v=84
192772 On ch=1 n=d#6 v=0
192776 Par ch=1 c=64 v=63
192812 On ch=1 n=a4 v=57
192818 Par ch=1 c=64 v=0
192822 On ch=1 n=c6 v=78
192828 On ch=1 n=a#4 v=0
192856 On ch=1 n=d6 v=0
192978 On ch=1 n=c6 v=0
193018 On ch=1 n=d6 v=99
193146 On ch=1 n=d6 v=0
193166 On ch=1 n=f4 v=0
193192 On ch=1 n=a4 v=0
193204 On ch=1 n=d#6 v=105
193334 On ch=1 n=d#6 v=0
193352 On ch=1 n=e6 v=98
193486 On ch=1 n=e6 v=0
193546 On ch=1 n=f6 v=107
193548 On ch=1 n=a#4 v=89
193586 Par ch=1 c=64 v=63
193594 Par ch=1 c=64 v=127
193660 On ch=1 n=a#4 v=0
193738 On ch=1 n=f6 v=0
193752 On ch=1 n=f5 v=71
193850 On ch=1 n=f5 v=0
193940 On ch=1 n=d5 v=83
194024 On ch=1 n=d5 v=0
194088 On ch=1 n=f5 v=59
194090 On ch=1 n=d#6 v=95
194152 On ch=1 n=d6 v=77
194170 On ch=1 n=d#6 v=0
194208 On ch=1 n=f5 v=0
194214 On ch=1 n=c6 v=92
194238 On ch=1 n=d6 v=0
194250 Par ch=1 c=64 v=63
194252 On ch=1 n=g4 v=73
194268 Par ch=1 c=64 v=0
194272 On ch=1 n=a#5 v=100
194298 On ch=1 n=c6 v=0
194336 On ch=1 n=a#5 v=0
194450 On ch=1 n=d5 v=69
194480 On ch=1 n=a#5 v=99
194482 On ch=1 n=g4 v=0
194532 On ch=1 n=a#5 v=0
194638 On ch=1 n=d5 v=0
194646 On ch=1 n=a#4 v=70
194664 On ch=1 n=a#5 v=104
194722 On ch=1 n=a#5 v=0
194774 On ch=1 n=a#4 v=0
194822 On ch=1 n=d5 v=75
194824 On ch=1 n=a#5 v=100
194892 On ch=1 n=a#5 v=0
194934 Par ch=1 c=64 v=63
194942 Par ch=1 c=64 v=127
194966 On ch=1 n=d5 v=0
194988 On ch=1 n=d#4 v=91
194996 On ch=1 n=d#6 v=98
195064 On ch=1 n=d#6 v=0
195102 On ch=1 n=d#4 v=0
195140 On ch=1 n=f6 v=94
195204 On ch=1 n=d#6 v=96
195218 On ch=1 n=c5 v=51
195232 On ch=1 n=f6 v=0
195256 On ch=1 n=d6 v=93
195268 On ch=1 n=d#6 v=0
195298 On ch=1 n=d#6 v=87
195308 On ch=1 n=c5 v=0
195322 Par ch=1 c=64 v=63
195328 On ch=1 n=d6 v=0
195334 On ch=1 n=g6 v=108
195336 Par ch=1 c=64 v=0
195368 On ch=1 n=d#6 v=0
195370 On ch=1 n=g4 v=76
195410 On ch=1 n=g6 v=0
195538 On ch=1 n=g4 v=0
195544 On ch=1 n=c5 v=86
195706 On ch=1 n=c5 v=0
195710 On ch=1 n=a5 v=102
195712 Par ch=1 c=64 v=63
195720 Par ch=1 c=64 v=127
195730 On ch=1 n=f4 v=76
195818 On ch=1 n=a5 v=0
195892 On ch=1 n=f4 v=0
195896 On ch=1 n=d#5 v=91
196060 On ch=1 n=d#5 v=0
196080 On ch=1 n=c5 v=90
196186 On ch=1 n=c5 v=0
196218 On ch=1 n=d#5 v=96
196246 On ch=1 n=a6 v=114
196272 On ch=1 n=d#5 v=0
196410 Par ch=1 c=64 v=63
196430 On ch=1 n=a6 v=0
196430 On ch=1 n=d4 v=85
196436 On ch=1 n=a#4 v=86
196436 Par ch=1 c=64 v=0
196438 On ch=1 n=a#6 v=110
196522 Par ch=1 c=64 v=63
196554 Par ch=1 c=64 v=127
196580 On ch=1 n=f6 v=96
196598 On ch=1 n=a#6 v=0
196688 On ch=1 n=f6 v=0
196690 On ch=1 n=d6 v=93
196790 On ch=1 n=d6 v=0
196792 Par ch=1 c=64 v=63
196814 On ch=1 n=d#4 v=101
196820 On ch=1 n=g6 v=102
196824 Par ch=1 c=64 v=0
196828 On ch=1 n=d4 v=0
196870 Par ch=1 c=64 v=63
196914 Par ch=1 c=64 v=127
196952 On ch=1 n=d#6 v=115
196960 On ch=1 n=d#4 v=0
196968 On ch=1 n=a#4 v=0
197020 On ch=1 n=g6 v=0
197058 On ch=1 n=c6 v=102
197102 On ch=1 n=d#6 v=0
197162 On ch=1 n=c6 v=0
197182 Par ch=1 c=64 v=63
197188 On ch=1 n=d5 v=99
197188 On ch=1 n=f4 v=89
197196 On ch=1 n=f6 v=99
197204 Par ch=1 c=64 v=0
197312 On ch=1 n=d5 v=0
197326 On ch=1 n=d6 v=100
197348 On ch=1 n=f6 v=0
197426 On ch=1 n=a#5 v=108
197434 On ch=1 n=d6 v=0
197538 On ch=1 n=a#5 v=0
197554 On ch=1 n=d#6 v=106
197560 On ch=1 n=d#5 v=106
197648 On ch=1 n=d#5 v=0
197672 On ch=1 n=d#6 v=0
197674 On ch=1 n=f4 v=0
197680 On ch=1 n=c6 v=89
197776 On ch=1 n=c6 v=0
197782 On ch=1 n=a5 v=86
197906 On ch=1 n=a5 v=0
197938 On ch=1 n=a#5 v=118
197942 On ch=1 n=d5 v=102
197950 On ch=1 n=a#4 v=92
197952 Par ch=1 c=64 v=63
197958 Par ch=1 c=64 v=127
198010 On ch=1 n=d5 v=0
198014 On ch=1 n=a#5 v=0
198020 On ch=1 n=a#4 v=0
198338 On ch=1 n=a#3 v=113
198394 On ch=1 n=a#3 v=0
198448 Par ch=1 c=64 v=63
198482 Par ch=1 c=64 v=0
198532 On ch=1 n=f5 v=90
198636 On ch=1 n=f5 v=0
198724 On ch=1 n=a#5 v=101
198826 On ch=1 n=a#5 v=0
198890 On ch=1 n=a5 v=94
198982 On ch=1 n=a5 v=0
199076 On ch=1 n=a#5 v=107
199154 On ch=1 n=a#5 v=0
199242 On ch=1 n=c6 v=93
199332 On ch=1 n=c6 v=0
199442 On ch=1 n=d6 v=102
199468 Par ch=1 c=64 v=63
199478 Par ch=1 c=64 v=127
199518 On ch=1 n=d6 v=0
199744 Par ch=1 c=64 v=63
199752 Par ch=1 c=64 v=0
199818 On ch=1 n=a#4 v=84
199828 On ch=1 n=d6 v=97
199830 On ch=1 n=a#5 v=98
199868 Par ch=1 c=64 v=63
199882 Par ch=1 c=64 v=127
199904 On ch=1 n=a#5 v=0
199930 On ch=1 n=d6 v=0
200024 On ch=1 n=a#4 v=0
200212 Par ch=1 c=64 v=63
200232 On ch=1 n=d6 v=104
200242 Par ch=1 c=64 v=0
200248 On ch=1 n=a#5 v=91
200248 On ch=1 n=g4 v=78
200370 Par ch=1 c=64 v=63
200386 Par ch=1 c=64 v=127
200604 On ch=1 n=d#4 v=88
200606 Par ch=1 c=64 v=63
200608 On ch=1 n=d6 v=0
200610 On ch=1 n=a#5 v=0
200610 On ch=1 n=d#6 v=100
200620 On ch=1 n=c6 v=86
200640 Par ch=1 c=64 v=0
200642 On ch=1 n=g4 v=0
200698 On ch=1 n=c6 v=0
200704 On ch=1 n=d#4 v=0
200724 On ch=1 n=d#6 v=0
201000 On ch=1 n=c6 v=92
201004 On ch=1 n=f4 v=90
201010 On ch=1 n=a5 v=76
201068 Par ch=1 c=64 v=63
201084 Par ch=1 c=64 v=127
201258 On ch=1 n=a5 v=0
201258 On ch=1 n=f4 v=0
201308 On ch=1 n=c6 v=0
201392 On ch=1 n=f3 v=99
201450 On ch=1 n=f3 v=0
201586 On ch=1 n=f5 v=92
201732 On ch=1 n=f5 v=0
201802 On ch=1 n=c6 v=98
201842 Par ch=1 c=64 v=63
201854 Par ch=1 c=64 v=0
201964 On ch=1 n=c6 v=0
201972 On ch=1 n=a#5 v=95
202022 On ch=1 n=a#5 v=0
202166 On ch=1 n=c6 v=99
202240 On ch=1 n=c6 v=0
202338 On ch=1 n=d6 v=99
202416 On ch=1 n=d6 v=0
202550 On ch=1 n=d#6 v=112
202796 Par ch=1 c=64 v=63
202804 Par ch=1 c=64 v=127
202854 On ch=1 n=d#6 v=0
202946 On ch=1 n=c5 v=94
202946 On ch=1 n=d#6 v=112
202964 On ch=1 n=g5 v=89
203150 On ch=1 n=g5 v=0
203182 On ch=1 n=d#6 v=0
203204 On ch=1 n=c5 v=0
203282 Par ch=1 c=64 v=63
203294 Par ch=1 c=64 v=0
203344 On ch=1 n=a4 v=103
203352 On ch=1 n=d#6 v=110
203360 On ch=1 n=c6 v=99
203442 Par ch=1 c=64 v=63
203458 Par ch=1 c=64 v=127
203512 On ch=1 n=a4 v=0
203674 On ch=1 n=d#6 v=0
203688 On ch=1 n=c6 v=0
203702 Par ch=1 c=64 v=63
203752 On ch=1 n=f6 v=101
203756 On ch=1 n=f4 v=91
203758 On ch=1 n=a5 v=92
203818 Par ch=1 c=64 v=127
203830 On ch=1 n=f6 v=0
203854 On ch=1 n=f4 v=0
203898 Par ch=1 c=64 v=63
203902 On ch=1 n=a5 v=0
203930 Par ch=1 c=64 v=0
204156 On ch=1 n=d6 v=92
204170 On ch=1 n=a#4 v=86
204170 On ch=1 n=a#5 v=87
204182 Par ch=1 c=64 v=63
204188 Par ch=1 c=64 v=127
204212 On ch=1 n=a#5 v=0
204236 On ch=1 n=d6 v=0
204254 On ch=1 n=a#4 v=0
204556 On ch=1 n=a#3 v=113
204606 On ch=1 n=a#3 v=0
204608 Par ch=1 c=64 v=127
204774 On ch=1 n=a#5 v=116
204786 Par ch=1 c=64 v=63
204790 Par ch=1 c=64 v=0
204844 On ch=1 n=a#5 v=0
204968 On ch=1 n=d6 v=97
205042 On ch=1 n=d6 v=0
205142 On ch=1 n=d#6 v=119
205214 On ch=1 n=d#6 v=0
205334 On ch=1 n=f6 v=121
205406 On ch=1 n=f6 v=0
205502 On ch=1 n=g6 v=113
205584 On ch=1 n=g6 v=0
205710 On ch=1 n=g#6 v=126
205740 Par ch=1 c=64 v=127
205774 On ch=1 n=g#6 v=0
205960 Par ch=1 c=64 v=63
205962 Par ch=1 c=64 v=0
206118 On ch=1 n=d4 v=120
206118 On ch=1 n=d3 v=111
206118 On ch=1 n=f5 v=104
206120 On ch=1 n=a#4 v=112
206120 On ch=1 n=g#5 v=108
206144 Par ch=1 c=64 v=63
206146 Par ch=1 c=64 v=127
206178 On ch=1 n=a#4 v=0
206186 On ch=1 n=f5 v=0
206196 On ch=1 n=d4 v=0
206212 On ch=1 n=g#5 v=0
206216 On ch=1 n=d3 v=0
206518 On ch=1 n=a#4 v=113
206520 On ch=1 n=g#5 v=106
206526 On ch=1 n=f5 v=96
206526 On ch=1 n=d4 v=116
206530 On ch=1 n=d3 v=104
206568 On ch=1 n=f5 v=0
206576 On ch=1 n=a#4 v=0
206584 On ch=1 n=d3 v=0
206584 On ch=1 n=d4 v=0
206586 Par ch=1 c=64 v=63
206590 On ch=1 n=g#5 v=0
206594 Par ch=1 c=64 v=0
206902 On ch=1 n=g#5 v=112
206906 On ch=1 n=f5 v=99
206906 On ch=1 n=c5 v=108
206910 On ch=1 n=c4 v=120
206916 On ch=1 n=c3 v=114
206964 On ch=1 n=c5 v=0
206970 On ch=1 n=c4 v=0
206974 On ch=1 n=c3 v=0
206976 On ch=1 n=f5 v=0
206992 On ch=1 n=g#5 v=0
207278 On ch=1 n=b2 v=109
207282 On ch=1 n=b3 v=116
207284 On ch=1 n=g5 v=114
207286 On ch=1 n=f5 v=116
207288 On ch=1 n=d5 v=117
207316 Par ch=1 c=64 v=127
207338 On ch=1 n=d5 v=0
207348 On ch=1 n=f5 v=0
207350 On ch=1 n=b2 v=0
207358 On ch=1 n=b3 v=0
207360 On ch=1 n=g5 v=0
207702 On ch=1 n=b4 v=103
207932 On ch=1 n=d6 v=113
208024 On ch=1 n=b4 v=0
208196 On ch=1 n=g6 v=112
208258 On ch=1 n=d6 v=0
208382 On ch=1 n=f#6 v=116
208442 On ch=1 n=g6 v=0
208570 On ch=1 n=g5 v=106
208572 On ch=1 n=g6 v=104
208572 On ch=1 n=b4 v=106
208610 On ch=1 n=f#6 v=0
208642 Par ch=1 c=64 v=63
208656 Par ch=1 c=64 v=0
208734 On ch=1 n=d6 v=102
208818 On ch=1 n=g6 v=0
208824 On ch=1 n=g5 v=0
208922 On ch=1 n=g5 v=98
208928 On ch=1 n=b4 v=0
208928 On ch=1 n=c5 v=102
208932 On ch=1 n=d6 v=0
208934 On ch=1 n=f6 v=117
208976 Par ch=1 c=64 v=63
208980 Par ch=1 c=64 v=127
209022 On ch=1 n=g5 v=0
209026 On ch=1 n=c5 v=0
209132 On ch=1 n=d#6 v=115
209178 On ch=1 n=f6 v=0
209214 On ch=1 n=d#6 v=0
209306 On ch=1 n=c4 v=93
209382 On ch=1 n=c4 v=0
209494 On ch=1 n=g5 v=91
209604 Par ch=1 c=64 v=63
209630 Par ch=1 c=64 v=0
209680 On ch=1 n=g5 v=0
209686 On ch=1 n=c6 v=89
209792 On ch=1 n=b5 v=94
209804 On ch=1 n=c6 v=0
209844 On ch=1 n=d6 v=98
209870 On ch=1 n=b5 v=0
209916 On ch=1 n=d6 v=0
209936 On ch=1 n=c6 v=96
210016 On ch=1 n=d#6 v=100
210024 On ch=1 n=c6 v=0
210088 On ch=1 n=d6 v=107
210118 On ch=1 n=d#6 v=0
210174 On ch=1 n=f6 v=106
210210 On ch=1 n=d6 v=0
210248 On ch=1 n=d#6 v=114
210254 Par ch=1 c=64 v=63
210300 On ch=1 n=f6 v=0
210306 Par ch=1 c=64 v=127
210334 On ch=1 n=g6 v=122
210348 On ch=1 n=d#6 v=0
210398 On ch=1 n=g6 v=0
210516 Par ch=1 c=64 v=63
210532 Par ch=1 c=64 v=0
210746 On ch=1 n=c3 v=108
210746 On ch=1 n=c4 v=120
210748 On ch=1 n=g5 v=113
210750 On ch=1 n=d#5 v=113
210750 On ch=1 n=c5 v=113
210802 On ch=1 n=c5 v=0
210808 On ch=1 n=d#5 v=0
210818 On ch=1 n=g5 v=0
210828 On ch=1 n=c4 v=0
210836 On ch=1 n=c3 v=0
211156 On ch=1 n=g5 v=122
211160 On ch=1 n=c4 v=120
211162 On ch=1 n=c3 v=112
211164 On ch=1 n=d#5 v=115
211164 On ch=1 n=c5 v=118
211184 Par ch=1 c=64 v=63
211186 Par ch=1 c=64 v=127
211212 On ch=1 n=c5 v=0
211220 On ch=1 n=d#5 v=0
211222 On ch=1 n=c3 v=0
211222 On ch=1 n=c4 v=0
211238 On ch=1 n=g5 v=0
211354 Par ch=1 c=64 v=63
211362 Par ch=1 c=64 v=0
211522 Par ch=1 c=64 v=63
211530 Par ch=1 c=64 v=127
211536 On ch=1 n=a#3 v=120
211540 On ch=1 n=f#5 v=124
211540 On ch=1 n=a#2 v=120
211546 On ch=1 n=c5 v=113
211552 On ch=1 n=d#5 v=105
211590 On ch=1 n=d#5 v=0
211598 On ch=1 n=c5 v=0
211602 On ch=1 n=a#3 v=0
211606 On ch=1 n=a#2 v=0
211638 On ch=1 n=f#5 v=0
211710 Par ch=1 c=64 v=63
211726 Par ch=1 c=64 v=0
211936 On ch=1 n=a2 v=109
211936 On ch=1 n=f5 v=121
211938 On ch=1 n=a3 v=117
211940 Par ch=1 c=64 v=63
211942 On ch=1 n=c5 v=114
211946 On ch=1 n=d#5 v=119
211948 Par ch=1 c=64 v=127
211994 On ch=1 n=c5 v=0
212000 On ch=1 n=a2 v=0
212002 On ch=1 n=d#5 v=0
212006 On ch=1 n=a3 v=0
212026 On ch=1 n=f5 v=0
212364 On ch=1 n=a4 v=99
212452 On ch=1 n=a4 v=0
212532 On ch=1 n=c6 v=112
212726 On ch=1 n=c6 v=0
212744 On ch=1 n=f6 v=121
212808 Par ch=1 c=64 v=63
212826 Par ch=1 c=64 v=0
212922 On ch=1 n=e6 v=108
212972 On ch=1 n=f6 v=0
213008 On ch=1 n=e6 v=0
213104 On ch=1 n=a4 v=94
213108 On ch=1 n=f5 v=91
213118 On ch=1 n=f6 v=112
213146 Par ch=1 c=64 v=63
213154 Par ch=1 c=64 v=127
213202 On ch=1 n=f5 v=0
213246 On ch=1 n=a4 v=0
213280 On ch=1 n=c6 v=106
213338 On ch=1 n=f6 v=0
213424 On ch=1 n=c6 v=0
213432 Par ch=1 c=64 v=63
213448 Par ch=1 c=64 v=0
213468 On ch=1 n=d#6 v=114
213482 On ch=1 n=f5 v=88
213482 On ch=1 n=a#4 v=99
213516 Par ch=1 c=64 v=63
213538 On ch=1 n=f5 v=0
213542 Par ch=1 c=64 v=127
213560 On ch=1 n=a#4 v=0
213666 On ch=1 n=d6 v=98
213690 On ch=1 n=d#6 v=0
213796 On ch=1 n=d6 v=0
213858 On ch=1 n=a#3 v=112
213904 Par ch=1 c=64 v=63
213916 Par ch=1 c=64 v=0
213994 Par ch=1 c=64 v=63
214016 Par ch=1 c=64 v=127
214086 On ch=1 n=a#6 v=104
214218 On ch=1 n=a#3 v=0
214242 On ch=1 n=a6 v=102
214292 On ch=1 n=a#6 v=0
214378 On ch=1 n=a#6 v=106
214432 On ch=1 n=a6 v=0
214510 On ch=1 n=a6 v=108
214564 On ch=1 n=a#6 v=0
214638 On ch=1 n=g6 v=104
214690 On ch=1 n=a6 v=0
214754 On ch=1 n=f6 v=93
214768 On ch=1 n=g6 v=0
214864 On ch=1 n=d#6 v=114
214884 On ch=1 n=f6 v=0
214972 On ch=1 n=d6 v=107
215006 On ch=1 n=d#6 v=0
215056 Par ch=1 c=64 v=63
215062 Par ch=1 c=64 v=0
215090 On ch=1 n=c6 v=109
215156 On ch=1 n=d6 v=0
215268 On ch=1 n=d#4 v=99
215268 Par ch=1 c=64 v=63
215284 Par ch=1 c=64 v=127
215422 On ch=1 n=a#4 v=99
215474 On ch=1 n=c6 v=0
215568 On ch=1 n=c6 v=104
215602 On ch=1 n=g4 v=86
215666 Par ch=1 c=64 v=63
215682 Par ch=1 c=64 v=0
215706 On ch=1 n=d6 v=107
215730 Par ch=1 c=64 v=63
215756 On ch=1 n=c6 v=0
215764 Par ch=1 c=64 v=127
215840 On ch=1 n=c5 v=83
215856 On ch=1 n=d#6 v=110
215886 On ch=1 n=d6 v=0
215974 On ch=1 n=d6 v=92
215980 Par ch=1 c=64 v=63
216042 Par ch=1 c=64 v=127
216080 On ch=1 n=d#6 v=0
216092 On ch=1 n=c6 v=98
216156 On ch=1 n=d6 v=0
216184 On ch=1 n=d#4 v=0
216196 On ch=1 n=g4 v=0
216202 On ch=1 n=a#4 v=0
216214 On ch=1 n=c5 v=0
216216 On ch=1 n=g6 v=99
216230 On ch=1 n=c6 v=0
216336 Par ch=1 c=64 v=63
216338 On ch=1 n=f6 v=102
216366 Par ch=1 c=64 v=0
216402 On ch=1 n=g6 v=0
216440 On ch=1 n=d#6 v=114
216498 On ch=1 n=f6 v=0
216556 On ch=1 n=d6 v=113
216624 On ch=1 n=d#6 v=0
216734 Par ch=1 c=64 v=63
216742 Par ch=1 c=64 v=127
216758 On ch=1 n=f4 v=101
216860 On ch=1 n=d6 v=0
216914 On ch=1 n=a#4 v=107
217054 On ch=1 n=a#6 v=113
217090 On ch=1 n=g#4 v=99
217130 Par ch=1 c=64 v=63
217154 Par ch=1 c=64 v=0
217170 On ch=1 n=a6 v=106
217220 On ch=1 n=a#6 v=0
217302 On ch=1 n=a#6 v=93
217304 On ch=1 n=d5 v=84
217334 Par ch=1 c=64 v=63
217338 On ch=1 n=a6 v=0
217340 On ch=1 n=a#4 v=0
217350 Par ch=1 c=64 v=127
217436 On ch=1 n=g#6 v=105
217464 On ch=1 n=a#6 v=0
217560 On ch=1 n=f4 v=0
217560 On ch=1 n=g6 v=102
217622 On ch=1 n=g#6 v=0
217656 On ch=1 n=g#4 v=0
217676 On ch=1 n=f6 v=98
217682 On ch=1 n=g6 v=0
217706 On ch=1 n=d5 v=0
217782 On ch=1 n=d#6 v=112
217786 On ch=1 n=f6 v=0
217890 On ch=1 n=d6 v=107
217928 On ch=1 n=d#6 v=0
217928 Par ch=1 c=64 v=63
217944 Par ch=1 c=64 v=0
218016 On ch=1 n=d6 v=0
218024 On ch=1 n=d#6 v=118
218156 Par ch=1 c=64 v=63
218168 Par ch=1 c=64 v=127
218216 On ch=1 n=g4 v=97
218260 On ch=1 n=d#6 v=0
218402 On ch=1 n=d#5 v=112
218520 On ch=1 n=d#6 v=108
218586 On ch=1 n=a#4 v=97
218636 On ch=1 n=g4 v=0
218666 On ch=1 n=f6 v=82
218668 On ch=1 n=d#6 v=0
218786 Par ch=1 c=64 v=63
218790 On ch=1 n=g6 v=99
218794 On ch=1 n=g5 v=96
218816 On ch=1 n=f6 v=0
218842 Par ch=1 c=64 v=0
218858 Par ch=1 c=64 v=63
218908 Par ch=1 c=64 v=127
218916 On ch=1 n=f6 v=103
218974 On ch=1 n=g6 v=0
219036 On ch=1 n=d#6 v=103
219056 On ch=1 n=f6 v=0
219074 On ch=1 n=g5 v=0
219126 On ch=1 n=d#5 v=0
219148 On ch=1 n=d#6 v=0
219162 On ch=1 n=a#6 v=100
219184 On ch=1 n=a#4 v=0
219292 On ch=1 n=g#6 v=101
219320 On ch=1 n=a#6 v=0
219386 On ch=1 n=g6 v=100
219420 Par ch=1 c=64 v=63
219428 Par ch=1 c=64 v=0
219456 On ch=1 n=g#6 v=0
219520 On ch=1 n=f6 v=112
219578 On ch=1 n=g6 v=0
219598 Par ch=1 c=64 v=63
219608 Par ch=1 c=64 v=127
219682 On ch=1 n=d4 v=103
219710 On ch=1 n=f6 v=0
219850 On ch=1 n=d4 v=0
219856 On ch=1 n=a#4 v=110
219992 Par ch=1 c=64 v=63
219994 On ch=1 n=a#6 v=112
220028 Par ch=1 c=64 v=0
220056 On ch=1 n=f4 v=84
220090 On ch=1 n=a#4 v=0
220106 On ch=1 n=a6 v=108
220134 Par ch=1 c=64 v=63
220156 On ch=1 n=a#6 v=0
220158 Par ch=1 c=64 v=127
220192 On ch=1 n=f4 v=0
220226 On ch=1 n=a6 v=0
220238 On ch=1 n=d5 v=108
220244 On ch=1 n=a#6 v=104
220296 On ch=1 n=d5 v=0
220364 On ch=1 n=g#6 v=110
220408 On ch=1 n=a#6 v=0
220480 On ch=1 n=g6 v=102
220542 On ch=1 n=g#6 v=0
220568 Par ch=1 c=64 v=63
220576 Par ch=1 c=64 v=0
220590 On ch=1 n=f6 v=100
220600 On ch=1 n=g6 v=0
220684 On ch=1 n=f6 v=0
220704 On ch=1 n=g6 v=101
220814 On ch=1 n=g#6 v=108
220840 On ch=1 n=g6 v=0
220956 On ch=1 n=g6 v=103
220964 On ch=1 n=d#4 v=118
220996 On ch=1 n=g#6 v=0
221014 Par ch=1 c=64 v=63
221028 Par ch=1 c=64 v=127
221078 On ch=1 n=a#6 v=107
221092 On ch=1 n=g6 v=0
221212 On ch=1 n=a6 v=104
221266 On ch=1 n=a#6 v=0
221318 On ch=1 n=g6 v=99
221342 On ch=1 n=a6 v=0
221354 Par ch=1 c=64 v=63
221370 Par ch=1 c=64 v=0
221444 On ch=1 n=a6 v=96
221462 On ch=1 n=g6 v=0
221554 On ch=1 n=a#6 v=96
221574 On ch=1 n=a6 v=0
221628 Par ch=1 c=64 v=63
221640 Par ch=1 c=64 v=127
221644 On ch=1 n=a#6 v=0
221710 On ch=1 n=g4 v=100
221718 On ch=1 n=d#6 v=89
221788 On ch=1 n=d#6 v=0
221798 On ch=1 n=g4 v=0
221834 On ch=1 n=g6 v=86
221954 On ch=1 n=f6 v=94
221970 On ch=1 n=g6 v=0
222064 On ch=1 n=f6 v=0
222074 On ch=1 n=d#6 v=88
222196 On ch=1 n=f6 v=73
222214 On ch=1 n=d#6 v=0
222296 On ch=1 n=g6 v=89
222318 On ch=1 n=f6 v=0
222392 On ch=1 n=g6 v=0
222434 On ch=1 n=c5 v=109
222440 On ch=1 n=c6 v=82
222464 Par ch=1 c=64 v=63
222530 Par ch=1 c=64 v=127
222548 On ch=1 n=c6 v=0
222566 On ch=1 n=d#6 v=94
222684 On ch=1 n=d#6 v=0
222684 On ch=1 n=d6 v=83
222812 On ch=1 n=d6 v=0
222812 On ch=1 n=c6 v=92
222892 On ch=1 n=d#4 v=0
222918 On ch=1 n=d6 v=76
222934 On ch=1 n=c6 v=0
223016 On ch=1 n=d#6 v=94
223032 On ch=1 n=d6 v=0
223082 On ch=1 n=d#6 v=0
223114 Par ch=1 c=64 v=63
223138 On ch=1 n=e4 v=99
223144 Par ch=1 c=64 v=0
223156 On ch=1 n=g5 v=97
223194 Par ch=1 c=64 v=63
223246 Par ch=1 c=64 v=127
223268 On ch=1 n=g5 v=0
223276 On ch=1 n=a#5 v=106
223386 On ch=1 n=a5 v=87
223396 On ch=1 n=a#5 v=0
223450 Par ch=1 c=64 v=63
223494 On ch=1 n=g5 v=84
223502 On ch=1 n=a5 v=0
223542 Par ch=1 c=64 v=63
223552 Par ch=1 c=64 v=127
223564 Par ch=1 c=64 v=127
223618 On ch=1 n=a5 v=85
223640 On ch=1 n=g5 v=0
223714 On ch=1 n=e4 v=0
223730 On ch=1 n=a#5 v=88
223750 On ch=1 n=a5 v=0
223806 On ch=1 n=c5 v=0
223822 On ch=1 n=a#5 v=0
223862 On ch=1 n=a5 v=88
223862 On ch=1 n=f4 v=77
223872 Par ch=1 c=64 v=63
223884 Par ch=1 c=64 v=0
223964 On ch=1 n=a5 v=0
223968 On ch=1 n=f5 v=82
224066 On ch=1 n=f5 v=0
224068 On ch=1 n=f4 v=0
224068 On ch=1 n=g5 v=90
224080 On ch=1 n=c5 v=67
224142 On ch=1 n=a5 v=76
224176 On ch=1 n=g5 v=0
224224 On ch=1 n=a#5 v=100
224252 On ch=1 n=a5 v=0
224260 On ch=1 n=a4 v=72
224282 On ch=1 n=c5 v=0
224302 On ch=1 n=a#5 v=0
224330 On ch=1 n=c6 v=86
224414 On ch=1 n=d6 v=97
224424 On ch=1 n=a4 v=0
224432 On ch=1 n=c5 v=60
224438 On ch=1 n=c6 v=0
224508 On ch=1 n=e6 v=100
224524 On ch=1 n=d6 v=0
224568 On ch=1 n=e6 v=0
224578 On ch=1 n=f4 v=76
224584 On ch=1 n=c5 v=0
224596 On ch=1 n=f6 v=99
224678 On ch=1 n=g6 v=97
224700 On ch=1 n=f6 v=0
224728 On ch=1 n=f4 v=0
224744 On ch=1 n=c5 v=62
224756 On ch=1 n=a6 v=88
224802 On ch=1 n=g6 v=0
224840 On ch=1 n=a#6 v=99
224892 On ch=1 n=a6 v=0
224922 On ch=1 n=c7 v=94
224930 On ch=1 n=c5 v=0
224938 On ch=1 n=a4 v=60
224956 On ch=1 n=a#6 v=0
225008 On ch=1 n=c7 v=0
225138 On ch=1 n=d#6 v=108
225146 On ch=1 n=a4 v=0
225148 On ch=1 n=c5 v=72
225208 On ch=1 n=d#6 v=0
225328 On ch=1 n=d6 v=97
225332 On ch=1 n=c5 v=0
225338 On ch=1 n=f4 v=71
225420 On ch=1 n=d6 v=0
225430 On ch=1 n=a#5 v=91
225506 On ch=1 n=a#5 v=0
225516 On ch=1 n=d5 v=89
225528 On ch=1 n=c6 v=92
225540 On ch=1 n=f4 v=0
225598 On ch=1 n=d6 v=96
225630 On ch=1 n=c6 v=0
225668 On ch=1 n=a#4 v=72
225684 On ch=1 n=d#6 v=97
225702 On ch=1 n=d6 v=0
225702 On ch=1 n=d5 v=0
225746 On ch=1 n=d#6 v=0
225774 On ch=1 n=f6 v=98
225838 On ch=1 n=d5 v=95
225854 On ch=1 n=a#4 v=0
225854 On ch=1 n=g6 v=72
225880 On ch=1 n=f6 v=0
225946 On ch=1 n=a6 v=87
225976 On ch=1 n=g6 v=0
226032 On ch=1 n=a#6 v=105
226034 On ch=1 n=f4 v=79
226050 On ch=1 n=d5 v=0
226070 On ch=1 n=a6 v=0
226116 On ch=1 n=a#6 v=0
226148 On ch=1 n=c7 v=88
226202 On ch=1 n=f4 v=0
226206 On ch=1 n=d5 v=74
226228 On ch=1 n=d7 v=86
226244 On ch=1 n=c7 v=0
226306 On ch=1 n=d#7 v=112
226346 On ch=1 n=d7 v=0
226396 On ch=1 n=f7 v=102
226410 On ch=1 n=d#7 v=0
226410 On ch=1 n=a#4 v=64
226442 On ch=1 n=d5 v=0
226490 On ch=1 n=f7 v=0
226594 On ch=1 n=a#6 v=110
226630 On ch=1 n=a#4 v=0
226632 On ch=1 n=d5 v=66
226664 On ch=1 n=a#6 v=0
226798 On ch=1 n=d5 v=0
226832 On ch=1 n=f4 v=76
226848 On ch=1 n=a6 v=84
226940 On ch=1 n=a#6 v=104
226966 On ch=1 n=a6 v=0
227044 On ch=1 n=a#6 v=0
227044 On ch=1 n=c7 v=96
227052 On ch=1 n=d#5 v=76
227128 On ch=1 n=a#6 v=98
227152 On ch=1 n=c7 v=0
227216 On ch=1 n=a6 v=96
227224 On ch=1 n=a#6 v=0
227268 On ch=1 n=c5 v=83
227272 On ch=1 n=d#5 v=0
227294 On ch=1 n=a#6 v=100
227320 On ch=1 n=a6 v=0
227380 On ch=1 n=a#6 v=0
227392 On ch=1 n=c7 v=103
227408 On ch=1 n=d#5 v=86
227412 On ch=1 n=f4 v=0
227484 On ch=1 n=c5 v=0
227490 On ch=1 n=d7 v=100
227498 On ch=1 n=c7 v=0
227546 On ch=1 n=d#5 v=0
227570 On ch=1 n=d#7 v=110
227582 On ch=1 n=f4 v=80
227592 On ch=1 n=d7 v=0
227676 On ch=1 n=d#7 v=0
227678 On ch=1 n=d7 v=99
227752 On ch=1 n=c7 v=90
227756 On ch=1 n=d7 v=0
227766 On ch=1 n=c5 v=70
227838 On ch=1 n=a#6 v=105
227840 On ch=1 n=c7 v=0
227938 On ch=1 n=a6 v=96
227946 On ch=1 n=a#6 v=0
227950 On ch=1 n=c5 v=0
227954 On ch=1 n=a4 v=63
227994 On ch=1 n=f4 v=0
228010 On ch=1 n=g6 v=85
228022 On ch=1 n=a6 v=0
228100 On ch=1 n=g6 v=0
228104 On ch=1 n=f6 v=93
228106 On ch=1 n=c5 v=67
228130 On ch=1 n=a4 v=0
228134 On ch=1 n=g6 v=40
228190 On ch=1 n=g6 v=0
228198 On ch=1 n=d#6 v=103
228216 On ch=1 n=f6 v=0
228268 On ch=1 n=c5 v=0
228276 On ch=1 n=f4 v=67
228290 On ch=1 n=d#6 v=0
228296 On ch=1 n=d6 v=93
228382 On ch=1 n=f6 v=97
228396 On ch=1 n=d6 v=0
228442 On ch=1 n=d5 v=64
228466 On ch=1 n=d#6 v=109
228490 On ch=1 n=f6 v=0
228558 On ch=1 n=d#6 v=0
228562 On ch=1 n=d6 v=85
228578 On ch=1 n=f4 v=0
228616 On ch=1 n=d#6 v=98
228640 On ch=1 n=a#4 v=76
228646 On ch=1 n=d6 v=0
228654 On ch=1 n=d5 v=0
228706 On ch=1 n=d#6 v=0
228708 On ch=1 n=f6 v=100
228780 On ch=1 n=d5 v=76
228794 On ch=1 n=a#4 v=0
228814 On ch=1 n=g6 v=89
228828 On ch=1 n=f6 v=0
228882 On ch=1 n=a6 v=99
228924 On ch=1 n=g6 v=0
228968 On ch=1 n=f4 v=71
228976 On ch=1 n=d5 v=0
228978 On ch=1 n=a#6 v=103
228994 On ch=1 n=a6 v=0
229070 On ch=1 n=a6 v=88
229074 On ch=1 n=a#6 v=0
229130 On ch=1 n=f4 v=0
229130 On ch=1 n=d5 v=60
229156 On ch=1 n=g6 v=85
229180 On ch=1 n=a6 v=0
229236 On ch=1 n=g6 v=0
229238 On ch=1 n=f6 v=89
229316 On ch=1 n=a#4 v=72
229318 On ch=1 n=d#6 v=107
229328 On ch=1 n=d5 v=0
229330 On ch=1 n=f6 v=0
229420 On ch=1 n=d#6 v=0
229422 On ch=1 n=d6 v=89
229472 On ch=1 n=a#4 v=0
229480 On ch=1 n=d5 v=51
229482 On ch=1 n=c6 v=87
229494 On ch=1 n=d6 v=0
229564 On ch=1 n=a#5 v=99
229576 On ch=1 n=d5 v=0
229578 On ch=1 n=c6 v=0
229620 On ch=1 n=a#5 v=0
229668 On ch=1 n=c6 v=99
229676 On ch=1 n=a5 v=103
229682 On ch=1 n=a4 v=80
229684 On ch=1 n=c5 v=89
229686 On ch=1 n=f6 v=100
229688 On ch=1 n=f4 v=80
229728 On ch=1 n=a5 v=0
229732 Par ch=1 c=64 v=63
229736 Par ch=1 c=64 v=127
229740 On ch=1 n=c6 v=0
229754 On ch=1 n=f6 v=0
229984 Par ch=1 c=64 v=63
229994 Par ch=1 c=64 v=0
230128 On ch=1 n=c5 v=0
230170 On ch=1 n=f5 v=94
230188 On ch=1 n=a4 v=0
230240 On ch=1 n=f4 v=0
230284 On ch=1 n=f5 v=0
230772 On ch=1 n=d#4 v=57
230810 On ch=1 n=c6 v=69
230860 Par ch=1 c=64 v=63
230898 Par ch=1 c=64 v=127
231050 On ch=1 n=f4 v=37
231118 On ch=1 n=d#4 v=0
231282 On ch=1 n=d#4 v=57
231306 On ch=1 n=f4 v=0
231474 On ch=1 n=f4 v=52
231482 On ch=1 n=c6 v=0
231486 On ch=1 n=a5 v=82
231546 On ch=1 n=d#4 v=0
231566 On ch=1 n=f5 v=85
231568 On ch=1 n=a5 v=0
231668 Par ch=1 c=64 v=63
231676 On ch=1 n=a#5 v=81
231686 On ch=1 n=f4 v=0
231688 On ch=1 n=d4 v=55
231694 On ch=1 n=f5 v=0
231704 Par ch=1 c=64 v=0
231776 On ch=1 n=a#5 v=0
231858 On ch=1 n=f4 v=65
231902 On ch=1 n=d4 v=0
232082 On ch=1 n=b5 v=94
232084 On ch=1 n=d4 v=76
232114 Par ch=1 c=64 v=63
232118 On ch=1 n=f4 v=0
232146 Par ch=1 c=64 v=127
232216 On ch=1 n=b5 v=0
232228 On ch=1 n=f4 v=80
232282 On ch=1 n=d4 v=0
232434 Par ch=1 c=64 v=63
232450 On ch=1 n=d#4 v=65
232452 On ch=1 n=c6 v=91
232482 On ch=1 n=f4 v=0
232482 Par ch=1 c=64 v=0
232642 On ch=1 n=f4 v=60
232654 Par ch=1 c=64 v=63
232666 On ch=1 n=d#4 v=0
232682 Par ch=1 c=64 v=127
232840 On ch=1 n=d#4 v=72
232866 On ch=1 n=f4 v=0
233032 Par ch=1 c=64 v=63
233036 On ch=1 n=d#4 v=0
233036 On ch=1 n=c6 v=0
233038 On ch=1 n=f4 v=59
233056 On ch=1 n=a5 v=84
233098 Par ch=1 c=64 v=0
233138 On ch=1 n=a5 v=0
233156 On ch=1 n=f5 v=82
233250 On ch=1 n=f5 v=0
233266 On ch=1 n=a#5 v=98
233274 On ch=1 n=f4 v=0
233276 On ch=1 n=d4 v=63
233460 On ch=1 n=f4 v=54
233474 On ch=1 n=d4 v=0
233552 Par ch=1 c=64 v=63
233570 Par ch=1 c=64 v=127
233688 On ch=1 n=f4 v=0
233698 On ch=1 n=d4 v=59
233768 On ch=1 n=a#5 v=0
233850 On ch=1 n=d4 v=0
233850 On ch=1 n=f4 v=53
233946 Par ch=1 c=64 v=63
233970 Par ch=1 c=64 v=0
234054 On ch=1 n=c6 v=87
234070 On ch=1 n=d#4 v=67
234094 On ch=1 n=f4 v=0
234132 On ch=1 n=c6 v=0
234276 On ch=1 n=d#4 v=0
234278 On ch=1 n=f4 v=55
234316 On ch=1 n=c6 v=104
234346 Par ch=1 c=64 v=63
234352 Par ch=1 c=64 v=127
234532 On ch=1 n=d#4 v=81
234566 On ch=1 n=f4 v=0
234722 On ch=1 n=a5 v=88
234734 On ch=1 n=f4 v=47
234738 On ch=1 n=c6 v=0
234746 On ch=1 n=d#4 v=0
234804 On ch=1 n=f5 v=78
234806 On ch=1 n=a5 v=0
234818 Par ch=1 c=64 v=63
234834 Par ch=1 c=64 v=0
234886 On ch=1 n=a#5 v=101
234896 On ch=1 n=f5 v=0
234910 On ch=1 n=d4 v=68
234916 On ch=1 n=f4 v=0
234958 On ch=1 n=a#5 v=0
235074 On ch=1 n=f4 v=59
235080 On ch=1 n=d4 v=0
235092 On ch=1 n=a#5 v=105
235170 On ch=1 n=a#5 v=0
235288 On ch=1 n=b5 v=90
235290 On ch=1 n=d4 v=68
235294 On ch=1 n=f4 v=0
235356 On ch=1 n=b5 v=0
235452 On ch=1 n=f4 v=65
235462 On ch=1 n=b5 v=97
235464 On ch=1 n=d4 v=0
235550 On ch=1 n=b5 v=0
235646 On ch=1 n=d#4 v=72
235654 On ch=1 n=c6 v=92
235670 On ch=1 n=f4 v=0
235732 On ch=1 n=c6 v=0
235830 On ch=1 n=d#4 v=0
235834 On ch=1 n=f4 v=57
235862 On ch=1 n=c6 v=94
235920 Par ch=1 c=64 v=63
235938 Par ch=1 c=64 v=127
236036 On ch=1 n=d#4 v=76
236072 On ch=1 n=f4 v=0
236094 Par ch=1 c=64 v=63
236116 Par ch=1 c=64 v=0
236238 On ch=1 n=d#4 v=0
236246 On ch=1 n=c6 v=0
236252 On ch=1 n=a5 v=69
236258 On ch=1 n=f4 v=51
236346 On ch=1 n=a5 v=0
236376 On ch=1 n=f5 v=65
236378 Par ch=1 c=64 v=63
236386 Par ch=1 c=64 v=127
236442 On ch=1 n=f4 v=0
236444 On ch=1 n=f5 v=0
236450 On ch=1 n=d4 v=63
236468 On ch=1 n=a#5 v=89
236498 On ch=1 n=d4 v=0
236588 On ch=1 n=a#5 v=0
236700 On ch=1 n=f5 v=51
236902 On ch=1 n=d5 v=83
236930 On ch=1 n=f5 v=0
237062 On ch=1 n=f5 v=83
237120 On ch=1 n=d5 v=0
237304 On ch=1 n=b6 v=99
237326 On ch=1 n=d#5 v=80
237376 On ch=1 n=f5 v=0
237406 On ch=1 n=c7 v=99
237408 Par ch=1 c=64 v=63
237412 On ch=1 n=b6 v=0
237472 Par ch=1 c=64 v=0
237508 On ch=1 n=d7 v=91
237516 On ch=1 n=c7 v=0
237518 On ch=1 n=f5 v=74
237546 On ch=1 n=d#5 v=0
237592 On ch=1 n=c7 v=87
237638 On ch=1 n=d7 v=0
237678 On ch=1 n=a#6 v=104
237700 On ch=1 n=c7 v=0
237714 On ch=1 n=d#5 v=76
237742 On ch=1 n=f5 v=0
237774 On ch=1 n=a6 v=87
237778 On ch=1 n=a#6 v=0
237802 Par ch=1 c=64 v=63
237860 On ch=1 n=g6 v=81
237866 On ch=1 n=a6 v=0
237890 On ch=1 n=f5 v=65
237908 On ch=1 n=d#5 v=0
237940 On ch=1 n=g6 v=0
237970 On ch=1 n=f6 v=68
237984 On ch=1 n=f5 v=0
238016 On ch=1 n=f6 v=0
238048 Par ch=1 c=64 v=127
238068 On ch=1 n=d5 v=70
238084 On ch=1 n=a#6 v=100
238090 Par ch=1 c=64 v=63
238102 Par ch=1 c=64 v=127
238166 On ch=1 n=f6 v=73
238184 On ch=1 n=a#6 v=0
238268 On ch=1 n=f6 v=0
238280 On ch=1 n=d7 v=93
238360 On ch=1 n=a#6 v=92
238384 On ch=1 n=d7 v=0
238454 On ch=1 n=a#6 v=0
238462 On ch=1 n=d5 v=0
238462 On ch=1 n=f7 v=96
238544 On ch=1 n=d7 v=93
238556 On ch=1 n=f7 v=0
238638 On ch=1 n=f7 v=91
238648 On ch=1 n=d7 v=0
238720 On ch=1 n=d7 v=96
238740 On ch=1 n=f7 v=0
238808 On ch=1 n=d7 v=0
238810 On ch=1 n=f7 v=99
238924 On ch=1 n=d#7 v=103
238950 On ch=1 n=f7 v=0
238990 Par ch=1 c=64 v=63
239020 On ch=1 n=d7 v=88
239024 On ch=1 n=d#7 v=0
239026 Par ch=1 c=64 v=0
239112 On ch=1 n=d7 v=0
239114 On ch=1 n=c7 v=88
239184 On ch=1 n=c7 v=0
239196 On ch=1 n=a#6 v=106
239234 On ch=1 n=d4 v=70
239236 On ch=1 n=a#4 v=70
239300 On ch=1 n=a6 v=88
239302 On ch=1 n=a#4 v=0
239308 On ch=1 n=d4 v=0
239354 On ch=1 n=a#6 v=0
239378 On ch=1 n=a6 v=0
239382 On ch=1 n=g6 v=82
239444 On ch=1 n=g6 v=0
239484 On ch=1 n=f6 v=89
239500 Par ch=1 c=64 v=63
239524 On ch=1 n=f6 v=0
239528 Par ch=1 c=64 v=127
239600 On ch=1 n=a#4 v=63
239602 On ch=1 n=g6 v=82
239618 On ch=1 n=d#4 v=61
239666 Par ch=1 c=64 v=63
239672 Par ch=1 c=64 v=127
239700 On ch=1 n=d#6 v=95
239702 On ch=1 n=g6 v=0
239774 On ch=1 n=d#6 v=0
239790 On ch=1 n=a#6 v=87
239876 On ch=1 n=a6 v=98
239916 On ch=1 n=a#6 v=0
239966 On ch=1 n=a#6 v=96
240016 On ch=1 n=a6 v=0
240066 On ch=1 n=a6 v=92
240090 On ch=1 n=a#6 v=0
240120 On ch=1 n=d#4 v=0
240128 On ch=1 n=a#4 v=0
240150 On ch=1 n=a#6 v=88
240160 On ch=1 n=a6 v=0
240250 On ch=1 n=a6 v=101
240270 On ch=1 n=a#6 v=0
240328 On ch=1 n=a#6 v=90
240332 Par ch=1 c=64 v=63
240342 Par ch=1 c=64 v=0
240348 On ch=1 n=a6 v=0
240424 On ch=1 n=a6 v=101
240444 On ch=1 n=a#6 v=0
240522 On ch=1 n=g6 v=97
240530 On ch=1 n=a6 v=0
240606 On ch=1 n=g6 v=0
240616 On ch=1 n=f6 v=82
240680 On ch=1 n=a#4 v=85
240682 On ch=1 n=c5 v=84
240684 On ch=1 n=d#4 v=90
240696 On ch=1 n=f6 v=0
240702 On ch=1 n=d#6 v=106
240742 On ch=1 n=a#4 v=0
240748 On ch=1 n=c5 v=0
240766 On ch=1 n=d#4 v=0
240794 On ch=1 n=d#6 v=0
240804 On ch=1 n=d6 v=92
240874 On ch=1 n=c6 v=91
240876 On ch=1 n=d6 v=0
240944 On ch=1 n=c6 v=0
240968 On ch=1 n=a#5 v=104
241020 On ch=1 n=a#5 v=0
241060 On ch=1 n=f5 v=100
241062 On ch=1 n=f4 v=83
241116 On ch=1 n=f5 v=0
241164 On ch=1 n=f6 v=106
241240 On ch=1 n=d5 v=63
241262 On ch=1 n=f6 v=0
241272 On ch=1 n=f4 v=0
241274 On ch=1 n=g6 v=100
241372 On ch=1 n=f6 v=101
241410 On ch=1 n=g6 v=0
241452 On ch=1 n=d#6 v=113
241460 On ch=1 n=a#4 v=68
241476 On ch=1 n=f6 v=0
241514 On ch=1 n=d5 v=0
241532 On ch=1 n=d#6 v=0
241534 On ch=1 n=d6 v=97
241614 On ch=1 n=c6 v=88
241622 On ch=1 n=d6 v=0
241648 On ch=1 n=d5 v=76
241686 On ch=1 n=a#4 v=0
241702 On ch=1 n=c6 v=0
241708 On ch=1 n=a#5 v=103
241782 On ch=1 n=a#5 v=0
241808 On ch=1 n=c6 v=111
241814 On ch=1 n=d5 v=0
241824 On ch=1 n=f4 v=68
241846 Par ch=1 c=64 v=63
241850 Par ch=1 c=64 v=127
241932 On ch=1 n=c6 v=0
241980 On ch=1 n=d6 v=93
242036 On ch=1 n=d6 v=0
242058 On ch=1 n=c6 v=84
242062 On ch=1 n=d#5 v=72
242130 On ch=1 n=d6 v=97
242134 On ch=1 n=c6 v=0
242182 On ch=1 n=d#5 v=0
242192 On ch=1 n=a4 v=70
242246 On ch=1 n=c6 v=85
242254 On ch=1 n=d6 v=0
242298 On ch=1 n=d6 v=104
242314 On ch=1 n=c6 v=0
242342 On ch=1 n=d#5 v=79
242364 On ch=1 n=d6 v=0
242374 On ch=1 n=c6 v=98
242436 On ch=1 n=d#5 v=0
242444 On ch=1 n=a4 v=0
242446 On ch=1 n=f4 v=0
242460 On ch=1 n=a#5 v=91
242474 On ch=1 n=c6 v=0
242540 On ch=1 n=c6 v=93
242548 On ch=1 n=a#5 v=0
242588 Par ch=1 c=64 v=63
242600 Par ch=1 c=64 v=0
242606 On ch=1 n=a#4 v=86
242642 On ch=1 n=d6 v=99
242692 On ch=1 n=c6 v=0
242760 On ch=1 n=d#6 v=101
242778 On ch=1 n=d6 v=0
242846 On ch=1 n=f6 v=96
242864 On ch=1 n=d#6 v=0
242942 On ch=1 n=d#6 v=95
242944 On ch=1 n=a#4 v=0
242978 On ch=1 n=f6 v=0
243034 On ch=1 n=d6 v=85
243078 On ch=1 n=d#6 v=0
243128 On ch=1 n=d6 v=0
243134 On ch=1 n=c6 v=89
243212 On ch=1 n=c6 v=0
243222 On ch=1 n=a#5 v=103
243268 On ch=1 n=c5 v=87
243324 On ch=1 n=a#5 v=0
243336 On ch=1 n=a5 v=98
243344 On ch=1 n=c5 v=0
243418 On ch=1 n=a#5 v=106
243438 On ch=1 n=a5 v=0
243460 On ch=1 n=d5 v=111
243526 On ch=1 n=c6 v=98
243570 On ch=1 n=a#5 v=0
243630 Par ch=1 c=64 v=63
243638 Par ch=1 c=64 v=127
243638 On ch=1 n=d6 v=96
243658 On ch=1 n=c6 v=0
243680 On ch=1 n=d5 v=0
243730 On ch=1 n=c6 v=89
243760 On ch=1 n=d6 v=0
243806 On ch=1 n=a#5 v=100
243842 On ch=1 n=c6 v=0
243854 Par ch=1 c=64 v=63
243860 Par ch=1 c=64 v=0
243912 On ch=1 n=g#5 v=98
243968 On ch=1 n=a#5 v=0
243976 On ch=1 n=d4 v=104
243986 On ch=1 n=d3 v=108
244010 On ch=1 n=g#5 v=0
244014 On ch=1 n=g5 v=85
244028 On ch=1 n=d3 v=0
244038 On ch=1 n=d4 v=0
244106 On ch=1 n=f#5 v=101
244110 On ch=1 n=g5 v=0
244192 On ch=1 n=d#4 v=112
244200 On ch=1 n=f#5 v=0
244202 On ch=1 n=d#3 v=105
244222 On ch=1 n=g5 v=93
244242 Par ch=1 c=64 v=63
244244 Par ch=1 c=64 v=127
244312 On ch=1 n=a5 v=98
244326 On ch=1 n=g5 v=0
244398 On ch=1 n=a#5 v=107
244422 On ch=1 n=a5 v=0
244504 On ch=1 n=a5 v=94
244540 On ch=1 n=a#5 v=0
244582 On ch=1 n=g5 v=84
244594 On ch=1 n=a5 v=0
244666 On ch=1 n=g5 v=0
244678 On ch=1 n=f5 v=100
244768 On ch=1 n=d#5 v=107
244774 Par ch=1 c=64 v=63
244780 Par ch=1 c=64 v=0
244784 On ch=1 n=f5 v=0
244868 On ch=1 n=d5 v=100
244870 On ch=1 n=d#5 v=0
244956 On ch=1 n=c5 v=94
244962 On ch=1 n=d5 v=0
244970 On ch=1 n=d#4 v=0
244984 On ch=1 n=d#3 v=0
245048 On ch=1 n=d5 v=103
245050 On ch=1 n=c5 v=0
245126 On ch=1 n=d#5 v=114
245144 On ch=1 n=d5 v=0
245230 On ch=1 n=d5 v=100
245234 On ch=1 n=d#5 v=0
245310 On ch=1 n=c5 v=84
245316 On ch=1 n=d5 v=0
245394 On ch=1 n=a#4 v=105
245402 On ch=1 n=c5 v=0
245488 On ch=1 n=a4 v=100
245520 On ch=1 n=a#4 v=0
245562 On ch=1 n=g4 v=97
245584 On ch=1 n=a4 v=0
245652 On ch=1 n=g4 v=0
245680 On ch=1 n=f4 v=117
245700 On ch=1 n=f3 v=120
245704 On ch=1 n=f2 v=114
245770 Par ch=1 c=64 v=63
245772 Par ch=1 c=64 v=127
246016 On ch=1 n=f4 v=0
246024 On ch=1 n=g4 v=100
246072 Par ch=1 c=64 v=63
246078 Par ch=1 c=64 v=0
246152 Par ch=1 c=64 v=63
246170 Par ch=1 c=64 v=127
246192 On ch=1 n=a4 v=93
246204 On ch=1 n=g4 v=0
246306 On ch=1 n=a#4 v=107
246336 On ch=1 n=a4 v=0
246398 On ch=1 n=a#4 v=0
246430 On ch=1 n=c5 v=91
246526 On ch=1 n=c5 v=0
246528 On ch=1 n=d5 v=102
246610 On ch=1 n=d#5 v=112
246644 On ch=1 n=d5 v=0
246704 Par ch=1 c=64 v=63
246712 Par ch=1 c=64 v=0
246714 On ch=1 n=g5 v=89
246726 On ch=1 n=d#5 v=0
246814 On ch=1 n=f5 v=98
246862 On ch=1 n=g5 v=0
246892 On ch=1 n=d#5 v=103
246892 Par ch=1 c=64 v=63
246898 Par ch=1 c=64 v=127
246930 On ch=1 n=f5 v=0
246978 On ch=1 n=d5 v=97
246982 On ch=1 n=d#5 v=0
247038 On ch=1 n=d#5 v=101
247064 On ch=1 n=d5 v=0
247068 Par ch=1 c=64 v=63
247076 Par ch=1 c=64 v=0
247088 On ch=1 n=f2 v=0
247114 Par ch=1 c=64 v=63
247118 On ch=1 n=d#5 v=0
247126 On ch=1 n=f3 v=0
247126 Par ch=1 c=64 v=127
247140 On ch=1 n=f5 v=101
247238 On ch=1 n=g5 v=97
247244 On ch=1 n=f5 v=0
247302 On ch=1 n=a5 v=99
247346 On ch=1 n=g5 v=0
247408 On ch=1 n=d4 v=106
247408 On ch=1 n=a#5 v=104
247410 On ch=1 n=f3 v=103
247416 On ch=1 n=a#3 v=99
247430 On ch=1 n=a5 v=0
247430 Par ch=1 c=64 v=63
247440 Par ch=1 c=64 v=0
247466 Par ch=1 c=64 v=63
247488 Par ch=1 c=64 v=127
247496 On ch=1 n=a5 v=92
247542 On ch=1 n=a#5 v=0
247594 On ch=1 n=g5 v=88
247626 On ch=1 n=a5 v=0
247692 On ch=1 n=g5 v=0
247704 On ch=1 n=f5 v=89
247784 On ch=1 n=g5 v=91
247804 On ch=1 n=f5 v=0
247884 On ch=1 n=a5 v=84
247914 On ch=1 n=g5 v=0
247942 On ch=1 n=d4 v=0
247944 On ch=1 n=a#3 v=0
247958 On ch=1 n=a#5 v=101
247962 On ch=1 n=f3 v=0
247992 On ch=1 n=a5 v=0
248032 On ch=1 n=a#5 v=0
248056 On ch=1 n=c6 v=98
248152 On ch=1 n=c6 v=0
248160 On ch=1 n=d6 v=92
248196 On ch=1 n=d4 v=114
248200 On ch=1 n=a#3 v=107
248204 Par ch=1 c=64 v=63
248204 On ch=1 n=f3 v=100
248216 Par ch=1 c=64 v=0
248254 On ch=1 n=d6 v=0
248256 Par ch=1 c=64 v=63
248260 On ch=1 n=c6 v=88
248280 Par ch=1 c=64 v=127
248352 On ch=1 n=c6 v=0
248364 On ch=1 n=a#5 v=97
248464 On ch=1 n=a#5 v=0
248464 On ch=1 n=a5 v=101
248494 Par ch=1 c=64 v=63
248504 Par ch=1 c=64 v=0
248530 Par ch=1 c=64 v=63
248544 On ch=1 n=a#5 v=100
248550 Par ch=1 c=64 v=127
248568 On ch=1 n=a5 v=0
248624 On ch=1 n=a#5 v=0
248626 On ch=1 n=f3 v=0
248640 On ch=1 n=c6 v=102
248646 On ch=1 n=a#3 v=0
248656 On ch=1 n=d4 v=0
248738 On ch=1 n=d6 v=98
248754 On ch=1 n=c6 v=0
248812 On ch=1 n=d#6 v=116
248860 On ch=1 n=d6 v=0
248930 Par ch=1 c=64 v=63
248940 Par ch=1 c=64 v=0
248942 On ch=1 n=d#6 v=0
248960 On ch=1 n=d5 v=108
248964 On ch=1 n=f4 v=99
248970 On ch=1 n=f6 v=108
248972 On ch=1 n=a#4 v=99
248988 Par ch=1 c=64 v=63
249012 Par ch=1 c=64 v=127
249094 On ch=1 n=f6 v=0
249118 On ch=1 n=d6 v=85
249208 On ch=1 n=d6 v=0
249222 On ch=1 n=f6 v=99
249302 On ch=1 n=f6 v=0
249306 On ch=1 n=d6 v=96
249380 On ch=1 n=d6 v=0
249386 On ch=1 n=a#6 v=114
249476 On ch=1 n=a#6 v=0
249482 On ch=1 n=f6 v=98
249566 On ch=1 n=f6 v=0
249582 On ch=1 n=a#6 v=106
249658 On ch=1 n=a#6 v=0
249666 On ch=1 n=f6 v=96
249740 On ch=1 n=f6 v=0
249752 On ch=1 n=d7 v=109
249842 On ch=1 n=a#6 v=115
249864 On ch=1 n=d7 v=0
249934 On ch=1 n=d7 v=96
249954 On ch=1 n=a#6 v=0
250030 On ch=1 n=a#6 v=101
250052 On ch=1 n=d7 v=0
250112 On ch=1 n=a#6 v=0
250124 On ch=1 n=f7 v=108
250212 On ch=1 n=d7 v=108
250240 On ch=1 n=f7 v=0
250306 On ch=1 n=f7 v=98
250328 On ch=1 n=d7 v=0
250396 On ch=1 n=d7 v=101
250414 On ch=1 n=f7 v=0
250494 On ch=1 n=a#6 v=109
250504 On ch=1 n=d7 v=0
250580 On ch=1 n=d7 v=101
250600 On ch=1 n=a#6 v=0
250688 On ch=1 n=a#6 v=103
250698 On ch=1 n=d7 v=0
250772 On ch=1 n=d7 v=97
250776 On ch=1 n=a#6 v=0
250814 On ch=1 n=a#4 v=0
250836 On ch=1 n=f4 v=0
250844 On ch=1 n=d7 v=0
250864 On ch=1 n=d5 v=0
250882 On ch=1 n=f6 v=96
250930 On ch=1 n=f6 v=0
250964 On ch=1 n=a#6 v=110
251056 On ch=1 n=a#6 v=0
251066 On ch=1 n=f6 v=91
251148 On ch=1 n=f6 v=0
251150 On ch=1 n=a#6 v=101
251226 On ch=1 n=d6 v=101
251228 On ch=1 n=a#6 v=0
251304 On ch=1 n=f6 v=111
251308 On ch=1 n=d6 v=0
251392 On ch=1 n=f6 v=0
251418 On ch=1 n=d6 v=99
251494 On ch=1 n=f6 v=99
251504 On ch=1 n=d6 v=0
251598 On ch=1 n=f6 v=0
251604 On ch=1 n=a#5 v=104
251682 On ch=1 n=a#5 v=0
251686 On ch=1 n=d6 v=102
251782 On ch=1 n=d6 v=0
251796 On ch=1 n=a#5 v=107
251862 On ch=1 n=a#5 v=0
251884 On ch=1 n=d6 v=103
251952 On ch=1 n=d6 v=0
252060 On ch=1 n=f4 v=93
252104 On ch=1 n=f5 v=108
252188 Par ch=1 c=64 v=63
252196 Par ch=1 c=64 v=0
252260 Par ch=1 c=64 v=63
252294 Par ch=1 c=64 v=127
252344 On ch=1 n=f5 v=0
252388 On ch=1 n=d5 v=100
252636 On ch=1 n=f6 v=114
252654 On ch=1 n=a#4 v=80
252706 On ch=1 n=d5 v=0
252900 On ch=1 n=d5 v=89
252966 On ch=1 n=f4 v=0
253054 On ch=1 n=f4 v=100
253114 On ch=1 n=d5 v=0
253126 On ch=1 n=a#4 v=0
253184 On ch=1 n=f6 v=0
253278 On ch=1 n=d5 v=79
253296 On ch=1 n=g6 v=93
253338 Par ch=1 c=64 v=63
253348 Par ch=1 c=64 v=0
253362 On ch=1 n=f6 v=93
253394 Par ch=1 c=64 v=63
253408 On ch=1 n=g6 v=0
253424 Par ch=1 c=64 v=127
253464 On ch=1 n=d#6 v=101
253476 On ch=1 n=a#4 v=76
253488 On ch=1 n=f6 v=0
253496 On ch=1 n=d5 v=0
253546 On ch=1 n=d6 v=92
253580 On ch=1 n=d#6 v=0
253626 On ch=1 n=d6 v=0
253630 On ch=1 n=c6 v=85
253636 On ch=1 n=d5 v=76
253666 On ch=1 n=f4 v=0
253714 On ch=1 n=a#5 v=108
253722 On ch=1 n=c6 v=0
253782 On ch=1 n=a#5 v=0
253784 Par ch=1 c=64 v=63
253794 Par ch=1 c=64 v=0
253836 Par ch=1 c=64 v=63
253848 On ch=1 n=d5 v=0
253858 On ch=1 n=a#4 v=0
253858 On ch=1 n=f4 v=81
253862 Par ch=1 c=64 v=127
253878 On ch=1 n=a#5 v=113
254066 On ch=1 n=a#5 v=0
254068 On ch=1 n=c6 v=83
254150 On ch=1 n=d#5 v=71
254192 On ch=1 n=d6 v=79
254202 On ch=1 n=c6 v=0
254288 On ch=1 n=d6 v=0
254292 On ch=1 n=c6 v=82
254334 On ch=1 n=d#5 v=0
254344 On ch=1 n=a4 v=57
254368 On ch=1 n=d6 v=91
254426 On ch=1 n=c6 v=0
254434 On ch=1 n=d6 v=0
254462 On ch=1 n=c6 v=91
254518 On ch=1 n=d6 v=96
254522 On ch=1 n=d#5 v=74
254536 On ch=1 n=f4 v=0
254538 On ch=1 n=c6 v=0
254586 On ch=1 n=d6 v=0
254598 On ch=1 n=c6 v=92
254644 On ch=1 n=d6 v=96
254650 On ch=1 n=a4 v=0
254692 On ch=1 n=d#5 v=0
254696 On ch=1 n=f4 v=84
254700 On ch=1 n=c6 v=0
254714 On ch=1 n=d6 v=0
254730 On ch=1 n=c6 v=101
254792 On ch=1 n=d6 v=97
254814 On ch=1 n=c6 v=0
254862 On ch=1 n=c6 v=101
254866 On ch=1 n=d6 v=0
254874 On ch=1 n=d#5 v=76
254928 On ch=1 n=d6 v=90
254952 On ch=1 n=c6 v=0
254996 On ch=1 n=c6 v=83
255002 On ch=1 n=d6 v=0
255054 On ch=1 n=d6 v=89
255076 On ch=1 n=c6 v=0
255084 On ch=1 n=d#5 v=0
255088 On ch=1 n=a4 v=63
255168 On ch=1 n=c6 v=91
255186 On ch=1 n=d6 v=0
255248 On ch=1 n=d6 v=99
255262 On ch=1 n=c6 v=0
255282 On ch=1 n=d#5 v=72
255316 On ch=1 n=d6 v=0
255338 On ch=1 n=c6 v=86
255394 On ch=1 n=d#5 v=0
255414 On ch=1 n=f4 v=0
255414 On ch=1 n=a#5 v=91
255416 On ch=1 n=a4 v=0
255422 On ch=1 n=c6 v=0
255480 On ch=1 n=c6 v=81
255498 On ch=1 n=a#5 v=0
255598 On ch=1 n=a#5 v=103
255598 On ch=1 n=d5 v=79
255602 On ch=1 n=a#4 v=72
255608 On ch=1 n=c6 v=0
255618 Par ch=1 c=64 v=63
255630 Par ch=1 c=64 v=0
255664 On ch=1 n=a#5 v=0
255794 On ch=1 n=d5 v=0
255798 On ch=1 n=a#4 v=0
255860 On ch=1 n=a#5 v=99
255930 On ch=1 n=a#5 v=0
256088 On ch=1 n=a#4 v=61
256090 On ch=1 n=d5 v=58
256180 Par ch=1 c=64 v=63
256186 Par ch=1 c=64 v=127
256286 On ch=1 n=a#4 v=0
256298 On ch=1 n=a#5 v=80
256314 On ch=1 n=d5 v=0
256364 On ch=1 n=a#5 v=0
256400 Par ch=1 c=64 v=63
256408 Par ch=1 c=64 v=0
256510 On ch=1 n=a#5 v=62
256558 On ch=1 n=a#5 v=0
256692 On ch=1 n=a#5 v=84
256780 On ch=1 n=a#5 v=0
256832 Par ch=1 c=64 v=63
256838 Par ch=1 c=64 v=127
256884 On ch=1 n=d5 v=81
256886 On ch=1 n=a#4 v=73
257106 On ch=1 n=a#5 v=88
257118 On ch=1 n=d5 v=0
257124 On ch=1 n=a#4 v=0
257202 On ch=1 n=a#5 v=0
257300 On ch=1 n=a5 v=87
257302 On ch=1 n=c6 v=81
257304 On ch=1 n=a#4 v=91
257320 Par ch=1 c=64 v=63
257338 Par ch=1 c=64 v=0
257432 On ch=1 n=c6 v=0
257458 Par ch=1 c=64 v=63
257474 On ch=1 n=a#4 v=0
257482 Par ch=1 c=64 v=127
257508 On ch=1 n=a5 v=0
257510 On ch=1 n=c6 v=102
257586 On ch=1 n=c6 v=0
257702 On ch=1 n=a5 v=83
257704 On ch=1 n=a#4 v=88
257880 Par ch=1 c=64 v=63
257904 Par ch=1 c=64 v=0
257912 On ch=1 n=c6 v=101
257990 On ch=1 n=c6 v=0
258052 Par ch=1 c=64 v=63
258076 Par ch=1 c=64 v=127
258088 On ch=1 n=c6 v=102
258180 On ch=1 n=c6 v=0
258240 On ch=1 n=a#4 v=0
258250 On ch=1 n=a5 v=0
258276 On ch=1 n=c6 v=108
258370 Par ch=1 c=64 v=63
258374 On ch=1 n=c6 v=0
258392 Par ch=1 c=64 v=0
258476 On ch=1 n=a5 v=102
258480 On ch=1 n=a#4 v=88
258484 Par ch=1 c=64 v=63
258514 Par ch=1 c=64 v=127
258574 On ch=1 n=a#4 v=0
258576 On ch=1 n=a5 v=0
258662 On ch=1 n=c6 v=114
258768 On ch=1 n=c6 v=0
258862 Par ch=1 c=64 v=63
258870 Par ch=1 c=64 v=0
258872 On ch=1 n=g#5 v=100
258878 On ch=1 n=a#4 v=94
258880 On ch=1 n=d6 v=111
258978 Par ch=1 c=64 v=63
258996 Par ch=1 c=64 v=127
259008 On ch=1 n=d6 v=0
259036 On ch=1 n=g#5 v=0
259040 On ch=1 n=a#4 v=0
259082 On ch=1 n=d6 v=108
259142 Par ch=1 c=64 v=63
259148 Par ch=1 c=64 v=0
259160 On ch=1 n=d6 v=0
259280 On ch=1 n=g#5 v=114
259284 Par ch=1 c=64 v=63
259288 On ch=1 n=a#4 v=106
259290 Par ch=1 c=64 v=127
259464 On ch=1 n=d6 v=116
259562 On ch=1 n=a#4 v=0
259598 On ch=1 n=g#5 v=0
259648 On ch=1 n=d#6 v=107
259650 On ch=1 n=d6 v=0
259670 On ch=1 n=g5 v=93
259672 On ch=1 n=a#4 v=99
259686 Par ch=1 c=64 v=63
259692 Par ch=1 c=64 v=0
259728 On ch=1 n=d#6 v=0
259836 On ch=1 n=d#6 v=118
259838 Par ch=1 c=64 v=63
259844 Par ch=1 c=64 v=127
259848 On ch=1 n=a#4 v=0
259888 On ch=1 n=g5 v=0
259924 On ch=1 n=d#6 v=0
260018 Par ch=1 c=64 v=63
260024 Par ch=1 c=64 v=0
260026 On ch=1 n=g5 v=107
260036 On ch=1 n=a#4 v=110
260094 Par ch=1 c=64 v=63
260110 Par ch=1 c=64 v=127
260200 On ch=1 n=e6 v=117
260312 On ch=1 n=a#4 v=0
260412 On ch=1 n=a#4 v=95
260416 On ch=1 n=f6 v=108
260416 On ch=1 n=d5 v=98
260444 On ch=1 n=g5 v=0
260446 On ch=1 n=e6 v=0
260460 Par ch=1 c=64 v=63
260468 Par ch=1 c=64 v=0
260518 On ch=1 n=f6 v=0
260574 On ch=1 n=d5 v=0
260576 On ch=1 n=a#4 v=0
260612 Par ch=1 c=64 v=63
260614 On ch=1 n=f6 v=116
260622 Par ch=1 c=64 v=127
260712 On ch=1 n=f6 v=0
260780 On ch=1 n=d5 v=113
260784 On ch=1 n=a#4 v=101
260786 Par ch=1 c=64 v=63
260794 Par ch=1 c=64 v=0
260876 Par ch=1 c=64 v=63
260892 Par ch=1 c=64 v=127
260954 On ch=1 n=f#6 v=119
260976 On ch=1 n=a#4 v=0
261154 Par ch=1 c=64 v=63
261160 Par ch=1 c=64 v=0
261162 On ch=1 n=f#6 v=0
261168 On ch=1 n=d5 v=0
261168 On ch=1 n=a#4 v=100
261170 On ch=1 n=g6 v=108
261172 On ch=1 n=d#5 v=115
261232 Par ch=1 c=64 v=63
261248 Par ch=1 c=64 v=127
261294 On ch=1 n=g6 v=0
261334 On ch=1 n=a#4 v=0
261370 On ch=1 n=d#5 v=0
261376 On ch=1 n=g6 v=120
261412 Par ch=1 c=64 v=63
261420 Par ch=1 c=64 v=0
261506 On ch=1 n=g6 v=0
261578 On ch=1 n=a6 v=116
261580 Par ch=1 c=64 v=127
261584 On ch=1 n=c5 v=113
261588 On ch=1 n=a#4 v=110
261736 On ch=1 n=c5 v=0
261750 On ch=1 n=a#4 v=0
261750 On ch=1 n=a6 v=0
261846 On ch=1 n=a6 v=117
261924 On ch=1 n=a6 v=0
262078 Par ch=1 c=64 v=63
262086 Par ch=1 c=64 v=0
262108 On ch=1 n=a#4 v=127
262110 On ch=1 n=a#3 v=119
262116 On ch=1 n=d6 v=106
262150 Par ch=1 c=64 v=63
262160 Par ch=1 c=64 v=127
262310 On ch=1 n=a#6 v=119
262364 On ch=1 n=d6 v=0
262368 On ch=1 n=a#4 v=0
262372 On ch=1 n=a#3 v=0
262468 On ch=1 n=d7 v=109
262484 On ch=1 n=a#3 v=114
262484 On ch=1 n=a#4 v=121
262498 On ch=1 n=a#6 v=0
262598 On ch=1 n=a#6 v=114
262650 On ch=1 n=d7 v=0
262700 On ch=1 n=a#4 v=0
262700 On ch=1 n=a#3 v=0
262700 On ch=1 n=d7 v=98
262742 On ch=1 n=a#6 v=0
262842 On ch=1 n=a#6 v=115
262872 On ch=1 n=d7 v=0
262926 On ch=1 n=a#3 v=99
262928 On ch=1 n=a#4 v=109
262936 On ch=1 n=d7 v=92
262954 On ch=1 n=a#6 v=0
262982 On ch=1 n=a#3 v=0
262992 On ch=1 n=a#4 v=0
263032 On ch=1 n=a#6 v=100
263058 On ch=1 n=d7 v=0
263134 On ch=1 n=d6 v=90
263136 On ch=1 n=d5 v=116
263142 On ch=1 n=a#6 v=0
263142 On ch=1 n=d4 v=108
263210 On ch=1 n=d4 v=0
263210 On ch=1 n=d5 v=0
263224 On ch=1 n=d6 v=0
263236 On ch=1 n=a#6 v=115
263308 On ch=1 n=d7 v=106
263332 On ch=1 n=a#6 v=0
263340 On ch=1 n=d5 v=117
263342 On ch=1 n=d4 v=113
263410 On ch=1 n=a#6 v=98
263420 On ch=1 n=d5 v=0
263428 On ch=1 n=d4 v=0
263454 On ch=1 n=d7 v=0
263496 On ch=1 n=d7 v=108
263508 On ch=1 n=a#6 v=0
263598 On ch=1 n=a#6 v=108
263632 On ch=1 n=d7 v=0
263678 On ch=1 n=d7 v=102
263692 On ch=1 n=a#4 v=108
263696 On ch=1 n=a#3 v=110
263702 On ch=1 n=a#6 v=0
263748 On ch=1 n=a#4 v=0
263762 On ch=1 n=a#6 v=104
263770 On ch=1 n=a#3 v=0
263796 On ch=1 n=d7 v=0
263846 Par ch=1 c=64 v=63
263864 On ch=1 n=d6 v=103
263866 On ch=1 n=g4 v=107
263866 On ch=1 n=g3 v=114
263870 On ch=1 n=a#6 v=0
263880 Par ch=1 c=64 v=127
263934 On ch=1 n=g3 v=0
263938 On ch=1 n=g4 v=0
263950 On ch=1 n=d6 v=0
263954 On ch=1 n=a#6 v=112
264040 On ch=1 n=d7 v=113
264050 On ch=1 n=g4 v=97
264052 On ch=1 n=g3 v=100
264060 On ch=1 n=a#6 v=0
264122 On ch=1 n=a#6 v=105
264148 On ch=1 n=g4 v=0
264166 On ch=1 n=d7 v=0
264182 On ch=1 n=g3 v=0
264208 On ch=1 n=d7 v=108
264230 On ch=1 n=a#6 v=0
264306 On ch=1 n=a#6 v=105
264338 On ch=1 n=g3 v=102
264340 On ch=1 n=g4 v=99
264352 On ch=1 n=d7 v=0
264396 On ch=1 n=d7 v=106
264410 On ch=1 n=g4 v=0
264410 On ch=1 n=g3 v=0
264422 On ch=1 n=a#6 v=0
264480 On ch=1 n=a#6 v=105
264526 On ch=1 n=d7 v=0
264574 On ch=1 n=a#4 v=125
264576 On ch=1 n=a#3 v=119
264578 On ch=1 n=d6 v=98
264604 On ch=1 n=a#6 v=0
264630 On ch=1 n=a#4 v=0
264632 On ch=1 n=a#3 v=0
264668 On ch=1 n=d6 v=0
264670 On ch=1 n=a#6 v=99
264754 On ch=1 n=d7 v=102
264764 On ch=1 n=a#4 v=109
264772 On ch=1 n=a#3 v=112
264778 On ch=1 n=a#6 v=0
264828 On ch=1 n=a#4 v=0
264836 On ch=1 n=a#3 v=0
264850 On ch=1 n=a#6 v=104
264900 On ch=1 n=d7 v=0
264940 On ch=1 n=d7 v=106
264956 On ch=1 n=a#6 v=0
265026 On ch=1 n=a#6 v=100
265072 On ch=1 n=d7 v=0
265118 On ch=1 n=d7 v=106
265138 On ch=1 n=a#6 v=0
265138 On ch=1 n=g4 v=108
265144 On ch=1 n=g3 v=113
265198 On ch=1 n=a#6 v=96
265202 On ch=1 n=g4 v=0
265214 On ch=1 n=g3 v=0
265252 On ch=1 n=d7 v=0
265300 Par ch=1 c=64 v=63
265310 Par ch=1 c=64 v=0
265320 On ch=1 n=d6 v=104
265330 On ch=1 n=d4 v=107
265336 On ch=1 n=d3 v=111
265354 On ch=1 n=a#6 v=0
265358 Par ch=1 c=64 v=63
265376 Par ch=1 c=64 v=127
265396 On ch=1 n=d4 v=0
265424 On ch=1 n=d3 v=0
265430 On ch=1 n=d6 v=0
265430 On ch=1 n=a#6 v=109
265532 On ch=1 n=d7 v=116
265544 On ch=1 n=d4 v=121
265550 On ch=1 n=d3 v=120
265558 On ch=1 n=a#6 v=0
265642 On ch=1 n=a#6 v=114
265694 On ch=1 n=d7 v=0
265750 On ch=1 n=d7 v=99
265794 On ch=1 n=a#6 v=0
265834 On ch=1 n=d4 v=0
265840 On ch=1 n=d3 v=0
265880 On ch=1 n=a#6 v=109
265932 On ch=1 n=d7 v=0
265996 On ch=1 n=d7 v=100
266002 On ch=1 n=d4 v=120
266002 On ch=1 n=d3 v=118
266032 On ch=1 n=a#6 v=0
266060 On ch=1 n=d3 v=0
266064 On ch=1 n=d4 v=0
266114 On ch=1 n=a#6 v=105
266160 On ch=1 n=d7 v=0
266244 Par ch=1 c=64 v=63
266254 On ch=1 n=d#4 v=124
266258 On ch=1 n=d#3 v=120
266258 Par ch=1 c=64 v=0
266272 On ch=1 n=d6 v=102
266294 Par ch=1 c=64 v=63
266308 On ch=1 n=a#6 v=0
266316 Par ch=1 c=64 v=127
266406 On ch=1 n=a#6 v=119
266412 On ch=1 n=d6 v=0
266472 On ch=1 n=d#3 v=0
266476 On ch=1 n=d#4 v=0
266562 On ch=1 n=d#4 v=121
266564 On ch=1 n=d7 v=113
266568 On ch=1 n=d#3 v=121
266612 On ch=1 n=a#6 v=0
266656 On ch=1 n=d#3 v=0
266680 On ch=1 n=d#4 v=0
266704 On ch=1 n=a#6 v=112
266784 On ch=1 n=d7 v=0
266876 On ch=1 n=e4 v=122
266880 On ch=1 n=e3 v=118
266884 On ch=1 n=d7 v=111
266920 Par ch=1 c=64 v=63
266928 On ch=1 n=a#6 v=0
266954 Par ch=1 c=64 v=127
267078 On ch=1 n=a#6 v=116
267142 On ch=1 n=d7 v=0
267216 On ch=1 n=e3 v=0
267226 On ch=1 n=e4 v=0
267266 On ch=1 n=a#6 v=0
267310 On ch=1 n=e4 v=124
267314 On ch=1 n=e3 v=121
267322 On ch=1 n=d7 v=118
267424 On ch=1 n=d7 v=0
267436 On ch=1 n=e3 v=0
267452 On ch=1 n=e4 v=0
267632 On ch=1 n=a#6 v=125
267714 On ch=1 n=a#6 v=0
268076 On ch=1 n=f6 v=106
268076 On ch=1 n=f3 v=92
268078 On ch=1 n=d6 v=106
268078 On ch=1 n=a#6 v=107
268078 On ch=1 n=d7 v=107
268086 On ch=1 n=f4 v=118
268190 Par ch=1 c=64 v=63
268198 Par ch=1 c=64 v=0
270022 Par ch=1 c=64 v=63
270048 Par ch=1 c=64 v=127
270302 On ch=1 n=f4 v=0
270350 On ch=1 n=d6 v=0
270366 On ch=1 n=f3 v=0
270380 On ch=1 n=d7 v=0
270432 On ch=1 n=f6 v=0
270456 On ch=1 n=a#6 v=0
271686 Par ch=1 c=64 v=63
271714 Par ch=1 c=64 v=0
272182 On ch=1 n=f5 v=65
272368 On ch=1 n=a5 v=60
272436 On ch=1 n=f5 v=0
272518 On ch=1 n=g5 v=68
272520 On ch=1 n=a5 v=0
272620 On ch=1 n=a#5 v=70
272646 On ch=1 n=g5 v=0
272718 On ch=1 n=a5 v=77
272738 On ch=1 n=a#5 v=0
272826 On ch=1 n=c6 v=81
272838 On ch=1 n=a5 v=0
272938 On ch=1 n=a#5 v=96
272974 On ch=1 n=c6 v=0
273016 On ch=1 n=a#5 v=0
273176 On ch=1 n=a5 v=84
273260 On ch=1 n=c6 v=93
273282 On ch=1 n=a5 v=0
273372 On ch=1 n=a#5 v=94
273380 On ch=1 n=c6 v=0
273444 On ch=1 n=d6 v=96
273464 On ch=1 n=a#5 v=0
273558 On ch=1 n=c6 v=88
273570 On ch=1 n=d6 v=0
273646 On ch=1 n=d#6 v=104
273668 On ch=1 n=c6 v=0
273748 On ch=1 n=d6 v=107
273792 On ch=1 n=d#6 v=0
273922 On ch=1 n=d6 v=0
274000 On ch=1 n=c6 v=96
274118 On ch=1 n=d#6 v=95
274146 On ch=1 n=c6 v=0
274242 On ch=1 n=d6 v=83
274284 On ch=1 n=d#6 v=0
274362 On ch=1 n=f6 v=94
274390 On ch=1 n=d6 v=0
274514 On ch=1 n=d#6 v=88
274528 On ch=1 n=f6 v=0
274710 On ch=1 n=g6 v=69
274784 On ch=1 n=d#6 v=0
274940 On ch=1 n=f4 v=45
275024 On ch=1 n=f6 v=87
275054 Par ch=1 c=64 v=63
275090 On ch=1 n=g6 v=0
275258 Par ch=1 c=64 v=127
275422 On ch=1 n=d5 v=49
275654 On ch=1 n=a#4 v=69
275734 On ch=1 n=d5 v=0
275860 On ch=1 n=d6 v=93
275878 On ch=1 n=f6 v=0
275878 On ch=1 n=d5 v=63
275906 On ch=1 n=f4 v=0
276066 On ch=1 n=d6 v=0
276080 On ch=1 n=a#5 v=79
276088 On ch=1 n=f4 v=55
276108 On ch=1 n=d5 v=0
276142 Par ch=1 c=64 v=63
276168 Par ch=1 c=64 v=127
276216 On ch=1 n=a#4 v=0
276284 On ch=1 n=d5 v=63
276338 On ch=1 n=a#5 v=0
276488 On ch=1 n=a#5 v=104
276492 On ch=1 n=a#4 v=70
276508 On ch=1 n=d5 v=0
276556 On ch=1 n=f4 v=0
276612 On ch=1 n=a#5 v=0
276676 On ch=1 n=d5 v=72
276730 On ch=1 n=a#4 v=0
276848 On ch=1 n=d#6 v=100
276866 On ch=1 n=f4 v=65
276878 On ch=1 n=d5 v=0
276978 On ch=1 n=d#6 v=0
277030 On ch=1 n=f6 v=90
277090 On ch=1 n=d#6 v=93
277120 On ch=1 n=f6 v=0
277154 On ch=1 n=d#5 v=69
277168 On ch=1 n=d#6 v=0
277176 On ch=1 n=d6 v=85
277216 On ch=1 n=d#6 v=99
277268 On ch=1 n=d6 v=0
277312 On ch=1 n=g6 v=89
277348 On ch=1 n=d#6 v=0
277366 Par ch=1 c=64 v=63
277404 On ch=1 n=d#5 v=0
277422 On ch=1 n=c5 v=51
277456 Par ch=1 c=64 v=127
277612 On ch=1 n=d#5 v=72
277630 On ch=1 n=g6 v=0
277666 On ch=1 n=f4 v=0
277714 On ch=1 n=c5 v=0
277856 On ch=1 n=a5 v=72
277862 On ch=1 n=f4 v=49
277868 On ch=1 n=d#5 v=0
277950 Par ch=1 c=64 v=63
278020 Par ch=1 c=64 v=127
278086 On ch=1 n=d#5 v=57
278316 On ch=1 n=a5 v=0
278340 On ch=1 n=d#5 v=0
278342 On ch=1 n=c5 v=49
278436 On ch=1 n=f4 v=0
278610 On ch=1 n=d#5 v=55
278674 On ch=1 n=c5 v=0
278970 On ch=1 n=f4 v=44
278974 On ch=1 n=f6 v=56
279066 On ch=1 n=d#5 v=0
279142 Par ch=1 c=64 v=63
279180 Par ch=1 c=64 v=0
279244 Par ch=1 c=64 v=63
279280 Par ch=1 c=64 v=127
279374 On ch=1 n=c#5 v=47
279626 On ch=1 n=a#4 v=60
279660 On ch=1 n=c#5 v=0
279826 On ch=1 n=c#6 v=74
279848 On ch=1 n=f6 v=0
279854 On ch=1 n=c#5 v=60
279872 On ch=1 n=f4 v=0
280034 On ch=1 n=a#5 v=72
280042 On ch=1 n=c#5 v=0
280052 On ch=1 n=f4 v=54
280054 On ch=1 n=c#6 v=0
280100 On ch=1 n=a#4 v=0
280138 On ch=1 n=a#5 v=0
280240 On ch=1 n=a#5 v=95
280246 On ch=1 n=c#5 v=66
280326 On ch=1 n=a#5 v=0
280422 On ch=1 n=a#5 v=84
280438 On ch=1 n=a#4 v=74
280442 On ch=1 n=c#5 v=0
280494 On ch=1 n=a#5 v=0
280538 On ch=1 n=f4 v=0
280600 On ch=1 n=a#5 v=94
280614 On ch=1 n=c#5 v=82
280652 On ch=1 n=a#4 v=0
280716 On ch=1 n=a#5 v=0
280806 On ch=1 n=d#6 v=98
280826 On ch=1 n=c#5 v=0
280826 On ch=1 n=f4 v=68
280898 Par ch=1 c=64 v=63
280948 Par ch=1 c=64 v=127
280956 On ch=1 n=d#6 v=0
281002 On ch=1 n=f6 v=77
281042 On ch=1 n=d#5 v=68
281064 On ch=1 n=d#6 v=90
281090 On ch=1 n=f6 v=0
281122 On ch=1 n=d6 v=89
281130 On ch=1 n=d#6 v=0
281176 On ch=1 n=d#6 v=104
281206 On ch=1 n=d6 v=0
281260 On ch=1 n=f#6 v=107
281272 On ch=1 n=d#5 v=0
281276 On ch=1 n=d#6 v=0
281280 On ch=1 n=c5 v=56
281494 On ch=1 n=d#5 v=82
281576 On ch=1 n=f#6 v=0
281578 On ch=1 n=f4 v=0
281728 On ch=1 n=a5 v=96
281732 On ch=1 n=d#5 v=0
281734 On ch=1 n=f4 v=74
281742 On ch=1 n=c5 v=0
281850 Par ch=1 c=64 v=63
281906 Par ch=1 c=64 v=127
281930 On ch=1 n=d#5 v=84
282124 On ch=1 n=a5 v=0
282160 On ch=1 n=c5 v=87
282218 On ch=1 n=d#5 v=0
282384 On ch=1 n=d#5 v=95
282390 On ch=1 n=f4 v=0
282572 On ch=1 n=d#5 v=0
282706 On ch=1 n=c#5 v=88
282716 On ch=1 n=f#4 v=79
282722 On ch=1 n=a#5 v=108
282754 On ch=1 n=c5 v=0
282766 Par ch=1 c=64 v=63
282774 Par ch=1 c=64 v=0
282864 Par ch=1 c=64 v=63
282872 Par ch=1 c=64 v=127
282968 On ch=1 n=a#5 v=0
283164 On ch=1 n=a#6 v=94
283468 On ch=1 n=c7 v=101
283524 On ch=1 n=a#6 v=0
283732 On ch=1 n=c#7 v=109
283806 On ch=1 n=c7 v=0
283962 On ch=1 n=c7 v=101
283970 On ch=1 n=c#7 v=0
284172 On ch=1 n=a#6 v=114
284222 On ch=1 n=c7 v=0
284382 On ch=1 n=g#6 v=106
284432 On ch=1 n=a#6 v=0
284514 On ch=1 n=f#4 v=0
284540 On ch=1 n=c#5 v=0
284572 On ch=1 n=f#6 v=107
284624 On ch=1 n=g#6 v=0
284768 On ch=1 n=f#4 v=104
284784 On ch=1 n=f#6 v=0
284844 On ch=1 n=f6 v=101
284978 Par ch=1 c=64 v=63
284990 Par ch=1 c=64 v=0
285102 Par ch=1 c=64 v=63
285108 On ch=1 n=a#4 v=97
285118 Par ch=1 c=64 v=127
285332 On ch=1 n=c5 v=103
285442 On ch=1 n=a#4 v=0
285514 On ch=1 n=c#5 v=107
285544 On ch=1 n=c5 v=0
285670 On ch=1 n=c#5 v=0
285778 On ch=1 n=f6 v=0
285786 On ch=1 n=e6 v=82
285800 On ch=1 n=c#5 v=74
285892 Par ch=1 c=64 v=63
285906 Par ch=1 c=64 v=0
285968 Par ch=1 c=64 v=63
286002 Par ch=1 c=64 v=127
286074 On ch=1 n=c5 v=81
286124 On ch=1 n=c#5 v=0
286266 On ch=1 n=c5 v=0
286358 On ch=1 n=c5 v=59
286436 Par ch=1 c=64 v=63
286538 Par ch=1 c=64 v=127
286682 On ch=1 n=a#4 v=55
286756 On ch=1 n=c5 v=0
286824 On ch=1 n=e6 v=0
286942 On ch=1 n=f#4 v=0
287094 On ch=1 n=f6 v=67
287116 On ch=1 n=a#4 v=0
287116 On ch=1 n=a4 v=39
287116 On ch=1 n=f4 v=34
287222 Par ch=1 c=64 v=63
287264 Par ch=1 c=64 v=0
287312 On ch=1 n=f6 v=0
287412 On ch=1 n=a4 v=0
287412 On ch=1 n=f6 v=54
287418 On ch=1 n=f4 v=0
287496 On ch=1 n=f6 v=0
287640 On ch=1 n=a4 v=41
287652 On ch=1 n=f4 v=46
287820 Par ch=1 c=64 v=63
287868 Par ch=1 c=64 v=127
287886 On ch=1 n=f6 v=75
287988 On ch=1 n=f4 v=0
287990 On ch=1 n=f6 v=0
288016 On ch=1 n=a4 v=0
288060 Par ch=1 c=64 v=63
288100 On ch=1 n=f6 v=84
288128 Par ch=1 c=64 v=0
288196 On ch=1 n=f6 v=0
288282 On ch=1 n=f6 v=82
288328 Par ch=1 c=64 v=63
288382 On ch=1 n=f6 v=0
288408 Par ch=1 c=64 v=127
288484 On ch=1 n=f4 v=71
288486 On ch=1 n=a4 v=65
288574 On ch=1 n=f4 v=0
288594 On ch=1 n=a4 v=0
288674 On ch=1 n=f6 v=85
288784 On ch=1 n=f6 v=0
288788 Par ch=1 c=64 v=63
288840 Par ch=1 c=64 v=0
288866 On ch=1 n=f6 v=76
288872 On ch=1 n=a#4 v=70
288878 On ch=1 n=f4 v=62
288890 On ch=1 n=g4 v=65
288980 On ch=1 n=f6 v=0
288984 Par ch=1 c=64 v=63
289036 Par ch=1 c=64 v=127
289052 On ch=1 n=a#4 v=0
289074 On ch=1 n=f6 v=93
289088 On ch=1 n=g4 v=0
289102 On ch=1 n=f4 v=0
289162 On ch=1 n=f6 v=0
289200 Par ch=1 c=64 v=63
289240 Par ch=1 c=64 v=0
289262 On ch=1 n=a#4 v=82
289268 On ch=1 n=f4 v=73
289272 On ch=1 n=g4 v=64
289374 Par ch=1 c=64 v=63
289424 Par ch=1 c=64 v=127
289450 On ch=1 n=f6 v=98
289492 On ch=1 n=a#4 v=0
289518 On ch=1 n=g4 v=0
289534 On ch=1 n=f4 v=0
289540 On ch=1 n=f6 v=0
289592 Par ch=1 c=64 v=63
289642 On ch=1 n=f6 v=106
289648 Par ch=1 c=64 v=0
289726 On ch=1 n=f6 v=0
289834 On ch=1 n=f6 v=104
289922 On ch=1 n=f6 v=0
289936 Par ch=1 c=64 v=63
290016 On ch=1 n=f4 v=85
290034 Par ch=1 c=64 v=127
290036 On ch=1 n=b4 v=94
290050 On ch=1 n=g#4 v=48
290220 On ch=1 n=f6 v=101
290302 On ch=1 n=b4 v=0
290320 On ch=1 n=f4 v=0
290330 On ch=1 n=g#4 v=0
290334 On ch=1 n=f6 v=0
290408 On ch=1 n=f6 v=100
290410 On ch=1 n=c5 v=99
290412 Par ch=1 c=64 v=63
290418 On ch=1 n=a4 v=74
290432 On ch=1 n=f4 v=69
290440 Par ch=1 c=64 v=0
290516 On ch=1 n=f6 v=0
290522 Par ch=1 c=64 v=63
290568 Par ch=1 c=64 v=127
290586 On ch=1 n=f6 v=102
290610 On ch=1 n=a4 v=0
290622 On ch=1 n=f4 v=0
290646 On ch=1 n=c5 v=0
290710 On ch=1 n=f6 v=0
290782 Par ch=1 c=64 v=63
290786 On ch=1 n=f4 v=82
290788 On ch=1 n=a4 v=78
290790 On ch=1 n=c#5 v=109
290882 Par ch=1 c=64 v=127
290954 On ch=1 n=f6 v=103
291058 On ch=1 n=f4 v=0
291064 On ch=1 n=c#5 v=0
291076 On ch=1 n=f6 v=0
291124 On ch=1 n=a4 v=0
291140 On ch=1 n=d5 v=108
291142 On ch=1 n=a#4 v=101
291142 On ch=1 n=f6 v=106
291150 On ch=1 n=f4 v=88
291176 Par ch=1 c=64 v=63
291226 Par ch=1 c=64 v=127
291252 On ch=1 n=f6 v=0
291326 On ch=1 n=f6 v=109
291372 On ch=1 n=f4 v=0
291398 On ch=1 n=d5 v=0
291408 On ch=1 n=a#4 v=0
291488 Par ch=1 c=64 v=63
291522 On ch=1 n=d5 v=112
291528 On ch=1 n=b4 v=102
291530 On ch=1 n=f4 v=100
291536 Par ch=1 c=64 v=127
291600 On ch=1 n=f6 v=0
291676 On ch=1 n=f4 v=0
291698 On ch=1 n=f6 v=114
291718 On ch=1 n=b4 v=0
291832 On ch=1 n=d5 v=0
291854 On ch=1 n=f4 v=48
291900 On ch=1 n=f6 v=0
291988 On ch=1 n=f6 v=103
291990 On ch=1 n=c5 v=103
291996 On ch=1 n=d#5 v=114
292162 Par ch=1 c=64 v=63
292196 Par ch=1 c=64 v=0
292294 On ch=1 n=a6 v=111
292336 Par ch=1 c=64 v=63
292348 Par ch=1 c=64 v=127
292360 On ch=1 n=f6 v=0
292484 On ch=1 n=a6 v=0
292534 On ch=1 n=a6 v=104
292738 On ch=1 n=c7 v=111
292764 On ch=1 n=a6 v=0
292874 On ch=1 n=c7 v=0
292926 On ch=1 n=c7 v=103
293130 On ch=1 n=d#7 v=100
293154 On ch=1 n=c7 v=0
293244 On ch=1 n=d#7 v=0
293320 On ch=1 n=d#7 v=94
293496 On ch=1 n=c7 v=93
293512 On ch=1 n=d#7 v=0
293620 On ch=1 n=c7 v=0
293682 On ch=1 n=c7 v=90
293866 On ch=1 n=a6 v=80
293900 On ch=1 n=c7 v=0
293968 On ch=1 n=a6 v=0
294040 On ch=1 n=a6 v=63
294244 On ch=1 n=f6 v=79
294250 On ch=1 n=a6 v=0
294356 On ch=1 n=f6 v=0
294448 On ch=1 n=f6 v=66
294604 On ch=1 n=f6 v=0
294630 On ch=1 n=e6 v=77
294734 On ch=1 n=e6 v=0
294820 On ch=1 n=e6 v=78
294864 On ch=1 n=f4 v=0
294866 On ch=1 n=c5 v=0
294868 On ch=1 n=d#5 v=0
295000 On ch=1 n=f6 v=89
295042 On ch=1 n=e6 v=0
295138 On ch=1 n=f6 v=0
295200 On ch=1 n=f4 v=73
295202 On ch=1 n=f6 v=86
295354 Par ch=1 c=64 v=63
295462 Par ch=1 c=64 v=127
295462 On ch=1 n=a4 v=61
295484 On ch=1 n=e6 v=83
295552 On ch=1 n=f6 v=0
295624 On ch=1 n=f4 v=0
295632 On ch=1 n=a4 v=0
295704 On ch=1 n=d#6 v=91
295706 On ch=1 n=a4 v=63
295736 On ch=1 n=e6 v=0
295872 On ch=1 n=c5 v=90
295906 On ch=1 n=a4 v=0
295982 On ch=1 n=c5 v=0
296058 On ch=1 n=c5 v=88
296238 On ch=1 n=d#5 v=90
296268 On ch=1 n=c5 v=0
296350 On ch=1 n=d#5 v=0
296432 On ch=1 n=d#5 v=95
296454 Par ch=1 c=64 v=63
296482 Par ch=1 c=64 v=127
296612 On ch=1 n=d#5 v=0
296624 On ch=1 n=c5 v=101
296756 On ch=1 n=c5 v=0
296824 On ch=1 n=c5 v=99
296974 On ch=1 n=c5 v=0
297028 On ch=1 n=a4 v=97
297100 On ch=1 n=d#6 v=0
297150 On ch=1 n=a4 v=0
297242 On ch=1 n=a4 v=93
297244 On ch=1 n=d#6 v=109
297320 Par ch=1 c=64 v=63
297394 Par ch=1 c=64 v=127
297478 On ch=1 n=f4 v=96
297516 On ch=1 n=a4 v=0
297672 On ch=1 n=d#6 v=0
297722 On ch=1 n=f#4 v=96
297732 On ch=1 n=d#6 v=93
297752 On ch=1 n=f4 v=0
297840 Par ch=1 c=64 v=63
297920 Par ch=1 c=64 v=127
297962 On ch=1 n=g4 v=98
297974 On ch=1 n=f#4 v=0
298126 On ch=1 n=d#6 v=0
298188 On ch=1 n=g#4 v=108
298194 On ch=1 n=d#6 v=83
298246 On ch=1 n=g4 v=0
298318 Par ch=1 c=64 v=63
298376 Par ch=1 c=64 v=127
298460 On ch=1 n=a4 v=91
298544 On ch=1 n=g#4 v=0
298682 On ch=1 n=d#6 v=0
298766 On ch=1 n=a#4 v=71
298778 On ch=1 n=d6 v=64
298864 Par ch=1 c=64 v=63
298870 On ch=1 n=a4 v=0
298894 Par ch=1 c=64 v=0
298920 Par ch=1 c=64 v=63
298968 Par ch=1 c=64 v=127
299054 On ch=1 n=a#4 v=0
299120 On ch=1 n=a#4 v=61
299204 Par ch=1 c=64 v=63
299218 Par ch=1 c=64 v=0
299236 On ch=1 n=d6 v=0
299278 Par ch=1 c=64 v=63
299314 Par ch=1 c=64 v=127
299378 On ch=1 n=f6 v=83
299390 On ch=1 n=a#4 v=0
299390 On ch=1 n=g#5 v=65
299600 On ch=1 n=a#4 v=66
299626 On ch=1 n=f6 v=0
299672 On ch=1 n=g#5 v=0
299742 On ch=1 n=a#4 v=0
299820 On ch=1 n=d#6 v=88
299828 On ch=1 n=g5 v=65
299834 On ch=1 n=a#4 v=62
299950 On ch=1 n=a#4 v=0
299974 On ch=1 n=g5 v=0
300026 On ch=1 n=a#4 v=73
300052 On ch=1 n=d#6 v=0
300216 Par ch=1 c=64 v=63
300224 On ch=1 n=d6 v=91
300238 On ch=1 n=f#5 v=70
300246 On ch=1 n=a#4 v=0
300246 Par ch=1 c=64 v=0
300386 On ch=1 n=a#4 v=91
300480 On ch=1 n=f#5 v=0
300498 Par ch=1 c=64 v=63
300514 Par ch=1 c=64 v=127
300546 On ch=1 n=a#4 v=0
300586 On ch=1 n=d#6 v=101
300590 On ch=1 n=g5 v=84
300596 On ch=1 n=d6 v=0
300614 On ch=1 n=a#4 v=71
300678 On ch=1 n=g5 v=0
300712 On ch=1 n=a#4 v=0
300714 On ch=1 n=d#6 v=0
300782 On ch=1 n=a#4 v=84
300942 Par ch=1 c=64 v=63
300960 On ch=1 n=a#4 v=0
300986 On ch=1 n=g6 v=107
300996 On ch=1 n=a#5 v=93
301062 Par ch=1 c=64 v=127
301166 On ch=1 n=a#4 v=98
301184 On ch=1 n=a#5 v=0
301222 On ch=1 n=g6 v=0
301280 On ch=1 n=a#4 v=0
301364 On ch=1 n=f6 v=102
301372 On ch=1 n=g#5 v=96
301374 On ch=1 n=a#4 v=87
301398 Par ch=1 c=64 v=63
301436 Par ch=1 c=64 v=127
301466 On ch=1 n=a#4 v=0
301532 On ch=1 n=f6 v=0
301558 On ch=1 n=a#4 v=101
301584 On ch=1 n=g#5 v=0
301684 On ch=1 n=a#4 v=0
301718 Par ch=1 c=64 v=63
301750 On ch=1 n=e6 v=112
301764 On ch=1 n=g5 v=96
301826 Par ch=1 c=64 v=127
301896 On ch=1 n=g5 v=0
301920 On ch=1 n=a#4 v=114
301930 On ch=1 n=e6 v=0
302062 On ch=1 n=a#4 v=0
302104 Par ch=1 c=64 v=63
302120 On ch=1 n=f6 v=111
302122 On ch=1 n=a#4 v=96
302130 On ch=1 n=g#5 v=104
302162 Par ch=1 c=64 v=127
302194 On ch=1 n=g#5 v=0
302202 On ch=1 n=f6 v=0
302228 On ch=1 n=a#4 v=0
302312 On ch=1 n=a#4 v=109
302410 Par ch=1 c=64 v=63
302420 Par ch=1 c=64 v=0
302476 On ch=1 n=f6 v=113
302478 On ch=1 n=g#6 v=113
302506 Par ch=1 c=64 v=63
302520 On ch=1 n=a#4 v=0
302522 Par ch=1 c=64 v=127
302670 On ch=1 n=a#4 v=120
302700 On ch=1 n=g#6 v=0
302732 On ch=1 n=f6 v=0
302826 On ch=1 n=a#4 v=0
302826 Par ch=1 c=64 v=63
302836 Par ch=1 c=64 v=0
302864 On ch=1 n=g6 v=113
302870 On ch=1 n=d#6 v=107
302880 On ch=1 n=a#4 v=107
302884 Par ch=1 c=64 v=63
302902 Par ch=1 c=64 v=127
302980 On ch=1 n=a#4 v=0
303028 On ch=1 n=d#6 v=0
303050 On ch=1 n=g6 v=0
303062 On ch=1 n=a#4 v=121
303170 Par ch=1 c=64 v=63
303176 Par ch=1 c=64 v=0
303248 On ch=1 n=f#6 v=123
303252 On ch=1 n=d6 v=106
303260 On ch=1 n=a#4 v=0
303276 Par ch=1 c=64 v=63
303282 Par ch=1 c=64 v=127
303412 On ch=1 n=d6 v=0
303422 On ch=1 n=f#6 v=0
303438 On ch=1 n=a#4 v=124
303476 Par ch=1 c=64 v=63
303480 Par ch=1 c=64 v=0
303628 On ch=1 n=a#4 v=0
303648 On ch=1 n=g6 v=121
303656 On ch=1 n=f6 v=117
303658 Par ch=1 c=64 v=127
303660 On ch=1 n=d6 v=109
303662 On ch=1 n=b4 v=118
303776 On ch=1 n=b4 v=0
303796 On ch=1 n=d6 v=0
303806 On ch=1 n=f6 v=0
303814 On ch=1 n=g6 v=0
303884 On ch=1 n=g6 v=116
303894 On ch=1 n=d6 v=111
303896 On ch=1 n=f6 v=109
304034 Par ch=1 c=64 v=63
304038 Par ch=1 c=64 v=0
304044 On ch=1 n=d6 v=0
304054 On ch=1 n=f6 v=0
304074 On ch=1 n=g6 v=0
304094 On ch=1 n=b4 v=124
304094 On ch=1 n=b3 v=112
304114 Par ch=1 c=64 v=63
304124 Par ch=1 c=64 v=127
304206 On ch=1 n=b3 v=0
304226 On ch=1 n=b4 v=0
304260 On ch=1 n=g6 v=122
304268 On ch=1 n=f6 v=116
304270 On ch=1 n=d6 v=116
304324 On ch=1 n=d6 v=0
304328 On ch=1 n=f6 v=0
304348 On ch=1 n=g6 v=0
304510 On ch=1 n=c5 v=121
304512 On ch=1 n=c4 v=112
304520 Par ch=1 c=64 v=63
304538 On ch=1 n=g6 v=99
304542 On ch=1 n=d#7 v=114
304542 Par ch=1 c=64 v=127
304548 On ch=1 n=d#6 v=104
304648 On ch=1 n=d#6 v=0
304682 On ch=1 n=g6 v=0
304686 On ch=1 n=d#7 v=0
304742 On ch=1 n=c5 v=0
304778 On ch=1 n=d#7 v=115
304780 On ch=1 n=c4 v=0
304782 On ch=1 n=g6 v=103
304788 On ch=1 n=d#6 v=110
304864 On ch=1 n=d#7 v=0
304868 On ch=1 n=g6 v=0
304892 On ch=1 n=d#6 v=0
304990 On ch=1 n=a#4 v=120
304994 On ch=1 n=a#3 v=115
305028 Par ch=1 c=64 v=63
305040 Par ch=1 c=64 v=0
305088 On ch=1 n=a#4 v=0
305120 On ch=1 n=a#3 v=0
305144 On ch=1 n=g6 v=114
305154 On ch=1 n=c6 v=108
305160 On ch=1 n=d#6 v=109
305270 On ch=1 n=c6 v=0
305284 On ch=1 n=d#6 v=0
305294 On ch=1 n=g6 v=0
305316 On ch=1 n=a4 v=114
305322 On ch=1 n=a3 v=108
305340 On ch=1 n=d#6 v=103
305342 On ch=1 n=f6 v=108
305348 On ch=1 n=c6 v=98
305352 Par ch=1 c=64 v=127
305394 On ch=1 n=a4 v=0
305406 On ch=1 n=a3 v=0
305418 On ch=1 n=d#6 v=0
305420 On ch=1 n=c6 v=0
305438 On ch=1 n=f6 v=0
305508 On ch=1 n=f6 v=111
305518 On ch=1 n=c6 v=108
305520 On ch=1 n=d#6 v=114
305606 On ch=1 n=d#6 v=0
305624 On ch=1 n=c6 v=0
305632 On ch=1 n=f6 v=0
305688 On ch=1 n=a4 v=122
305690 On ch=1 n=a3 v=117
305746 On ch=1 n=a4 v=0
305790 On ch=1 n=a3 v=0
305860 On ch=1 n=f6 v=117
305860 On ch=1 n=c6 v=120
305866 On ch=1 n=d#6 v=115
305920 On ch=1 n=c6 v=0
305920 On ch=1 n=f6 v=0
305924 On ch=1 n=d#6 v=0
306080 On ch=1 n=a#3 v=106
306084 On ch=1 n=a#4 v=125
306106 On ch=1 n=f6 v=98
306110 On ch=1 n=d7 v=108
306112 Par ch=1 c=64 v=63
306116 On ch=1 n=d6 v=94
306164 Par ch=1 c=64 v=127
306210 On ch=1 n=d6 v=0
306240 On ch=1 n=f6 v=0
306254 On ch=1 n=d7 v=0
306296 On ch=1 n=a#4 v=0
306312 On ch=1 n=a#3 v=0
306326 On ch=1 n=d7 v=102
306340 On ch=1 n=f6 v=73
306342 On ch=1 n=d6 v=68
306400 On ch=1 n=d6 v=0
306408 On ch=1 n=f6 v=0
306408 On ch=1 n=d7 v=0
306514 On ch=1 n=a4 v=117
306522 On ch=1 n=a3 v=114
306596 On ch=1 n=a4 v=0
306612 On ch=1 n=a3 v=0
306672 On ch=1 n=f6 v=110
306686 On ch=1 n=d6 v=102
306694 On ch=1 n=a#5 v=106
306766 Par ch=1 c=64 v=63
306776 Par ch=1 c=64 v=0
306820 On ch=1 n=a#5 v=0
306828 On ch=1 n=d6 v=0
306850 On ch=1 n=f6 v=0
306866 On ch=1 n=g4 v=114
306868 On ch=1 n=g3 v=116
306882 On ch=1 n=d6 v=101
306884 On ch=1 n=d#6 v=116
306886 On ch=1 n=a#5 v=91
306920 Par ch=1 c=64 v=63
306928 Par ch=1 c=64 v=127
306978 On ch=1 n=a#5 v=0
306980 On ch=1 n=d6 v=0
306994 On ch=1 n=d#6 v=0
307024 On ch=1 n=g3 v=0
307052 On ch=1 n=g4 v=0
307058 On ch=1 n=d#6 v=98
307060 On ch=1 n=d6 v=108
307064 On ch=1 n=a#5 v=107
307160 On ch=1 n=a#5 v=0
307164 On ch=1 n=d6 v=0
307172 On ch=1 n=d#6 v=0
307242 On ch=1 n=g4 v=118
307244 On ch=1 n=g3 v=117
307328 On ch=1 n=g3 v=0
307330 On ch=1 n=g4 v=0
307396 On ch=1 n=d#6 v=107
307398 On ch=1 n=a#5 v=99
307412 On ch=1 n=d6 v=71
307444 On ch=1 n=a#5 v=0
307454 On ch=1 n=d6 v=0
307458 On ch=1 n=d#6 v=0
307576 Par ch=1 c=64 v=63
307586 Par ch=1 c=64 v=0
307620 On ch=1 n=a4 v=120
307620 On ch=1 n=a3 v=111
307630 On ch=1 n=d#6 v=118
307638 On ch=1 n=c7 v=102
307646 Par ch=1 c=64 v=63
307646 On ch=1 n=c6 v=100
307666 Par ch=1 c=64 v=127
307676 On ch=1 n=c6 v=0
307704 On ch=1 n=d#6 v=0
307712 On ch=1 n=c7 v=0
307768 On ch=1 n=a4 v=0
307778 On ch=1 n=a3 v=0
307842 On ch=1 n=c7 v=118
307848 On ch=1 n=d#6 v=119
307856 On ch=1 n=c6 v=89
307892 On ch=1 n=c6 v=0
307896 On ch=1 n=d#6 v=0
307898 On ch=1 n=c7 v=0
308052 On ch=1 n=g4 v=114
308058 On ch=1 n=g3 v=116
308146 On ch=1 n=g4 v=0
308164 On ch=1 n=g3 v=0
308242 On ch=1 n=d#6 v=119
308248 On ch=1 n=c6 v=113
308252 On ch=1 n=a5 v=108
308398 On ch=1 n=a5 v=0
308400 On ch=1 n=c6 v=0
308414 On ch=1 n=d#6 v=0
308450 On ch=1 n=f#4 v=124
308454 On ch=1 n=f#3 v=121
308464 On ch=1 n=d6 v=114
308468 Par ch=1 c=64 v=63
308474 On ch=1 n=a5 v=102
308474 On ch=1 n=c6 v=108
308482 Par ch=1 c=64 v=0
308592 On ch=1 n=d6 v=0
308596 On ch=1 n=a5 v=0
308598 On ch=1 n=c6 v=0
308602 Par ch=1 c=64 v=63
308614 Par ch=1 c=64 v=127
308646 On ch=1 n=c6 v=108
308648 On ch=1 n=d6 v=104
308650 On ch=1 n=a5 v=91
308690 On ch=1 n=f#3 v=0
308696 On ch=1 n=f#4 v=0
308724 On ch=1 n=a5 v=0
308732 On ch=1 n=c6 v=0
308752 On ch=1 n=d6 v=0
308822 On ch=1 n=f#4 v=126
308826 On ch=1 n=f#3 v=124
308892 On ch=1 n=f#4 v=0
308896 On ch=1 n=f#3 v=0
309016 On ch=1 n=d6 v=121
309022 On ch=1 n=a5 v=114
309022 On ch=1 n=c6 v=113
309082 On ch=1 n=c6 v=0
309084 On ch=1 n=a5 v=0
309100 On ch=1 n=d6 v=0
309252 On ch=1 n=g3 v=111
309252 On ch=1 n=g4 v=120
309260 On ch=1 n=d6 v=110
309272 On ch=1 n=a#6 v=112
309278 On ch=1 n=a#5 v=114
309298 Par ch=1 c=64 v=63
309304 Par ch=1 c=64 v=0
309370 Par ch=1 c=64 v=63
309388 Par ch=1 c=64 v=127
309420 On ch=1 n=a#5 v=0
309458 On ch=1 n=d6 v=0
309462 On ch=1 n=a#6 v=0
309528 On ch=1 n=g4 v=0
309534 On ch=1 n=g3 v=0
309536 On ch=1 n=a#6 v=115
309540 On ch=1 n=a#5 v=120
309540 On ch=1 n=d6 v=111
309642 On ch=1 n=d6 v=0
309642 On ch=1 n=a#6 v=0
309660 On ch=1 n=a#5 v=0
309762 On ch=1 n=f4 v=120
309768 On ch=1 n=f3 v=117
309808 Par ch=1 c=64 v=63
309816 Par ch=1 c=64 v=0
310014 Par ch=1 c=64 v=63
310014 Par ch=1 c=64 v=127
310028 On ch=1 n=d6 v=126
310036 On ch=1 n=f4 v=0
310038 On ch=1 n=a#5 v=120
310038 On ch=1 n=g5 v=116
310054 On ch=1 n=f3 v=0
310198 On ch=1 n=g5 v=0
310218 On ch=1 n=a#5 v=0
310294 On ch=1 n=d6 v=0
310372 Par ch=1 c=64 v=63
310378 Par ch=1 c=64 v=0
310412 On ch=1 n=d#4 v=125
310414 On ch=1 n=c6 v=120
310416 On ch=1 n=d#3 v=123
310420 On ch=1 n=g5 v=114
310426 On ch=1 n=a#5 v=119
310518 Par ch=1 c=64 v=127
310606 On ch=1 n=d#3 v=0
310620 On ch=1 n=g5 v=0
310648 On ch=1 n=d#4 v=0
310650 On ch=1 n=a#5 v=0
310668 On ch=1 n=c6 v=0
310786 On ch=1 n=g4 v=84
310798 On ch=1 n=c6 v=117
310804 On ch=1 n=g5 v=108
310808 On ch=1 n=a#5 v=114
310878 On ch=1 n=g4 v=0
310886 On ch=1 n=g5 v=0
310940 On ch=1 n=a#5 v=0
310970 On ch=1 n=c6 v=0
311084 On ch=1 n=a#4 v=113
311220 On ch=1 n=a#4 v=0
311322 On ch=1 n=g4 v=90
311324 On ch=1 n=c6 v=117
311536 On ch=1 n=d#4 v=103
311560 On ch=1 n=a#6 v=107
311658 On ch=1 n=g4 v=0
311688 On ch=1 n=a#6 v=0
311688 On ch=1 n=c6 v=0
311780 On ch=1 n=g4 v=84
311786 On ch=1 n=a#6 v=100
311892 On ch=1 n=a#6 v=0
311968 On ch=1 n=a#4 v=106
311974 On ch=1 n=a#6 v=91
312016 On ch=1 n=g4 v=0
312122 On ch=1 n=c6 v=93
312124 On ch=1 n=g4 v=81
312154 On ch=1 n=a#6 v=0
312156 On ch=1 n=d#4 v=0
312162 On ch=1 n=a#4 v=0
312244 On ch=1 n=g4 v=0
312270 On ch=1 n=c6 v=0
312302 On ch=1 n=d6 v=106
312304 On ch=1 n=f4 v=98
312316 Par ch=1 c=64 v=63
312326 Par ch=1 c=64 v=0
312426 Par ch=1 c=64 v=63
312438 Par ch=1 c=64 v=127
312446 On ch=1 n=d6 v=0
312478 On ch=1 n=g#4 v=103
312492 On ch=1 n=d6 v=100
312608 On ch=1 n=f4 v=0
312644 On ch=1 n=d6 v=0
312672 On ch=1 n=a#4 v=110
312678 On ch=1 n=g#4 v=0
312830 On ch=1 n=g#4 v=97
312836 On ch=1 n=d6 v=106
312872 On ch=1 n=a#4 v=0
313030 On ch=1 n=f4 v=93
313036 On ch=1 n=a#6 v=115
313040 On ch=1 n=g#4 v=0
313076 On ch=1 n=d6 v=0
313140 On ch=1 n=a#6 v=0
313210 On ch=1 n=g#4 v=109
313216 On ch=1 n=a#6 v=114
313314 On ch=1 n=a#6 v=0
313386 On ch=1 n=a#6 v=104
313394 On ch=1 n=a#4 v=106
313418 On ch=1 n=g#4 v=0
313534 On ch=1 n=a#6 v=0
313546 On ch=1 n=g#4 v=98
313550 On ch=1 n=d6 v=103
313568 On ch=1 n=a#4 v=0
313600 On ch=1 n=f4 v=0
313676 Par ch=1 c=64 v=63
313686 Par ch=1 c=64 v=0
313710 On ch=1 n=g#4 v=0
313724 On ch=1 n=d6 v=0
313734 On ch=1 n=g4 v=90
313740 On ch=1 n=d#6 v=116
313782 Par ch=1 c=64 v=63
313784 Par ch=1 c=64 v=127
313880 On ch=1 n=d#6 v=0
313926 On ch=1 n=a#4 v=104
313938 On ch=1 n=d#6 v=108
313982 On ch=1 n=g4 v=0
314092 On ch=1 n=d#5 v=113
314114 On ch=1 n=a#4 v=0
314122 On ch=1 n=d#6 v=0
314242 On ch=1 n=d#5 v=0
314246 On ch=1 n=a#4 v=94
314254 On ch=1 n=e6 v=109
314370 On ch=1 n=a#4 v=0
314380 Par ch=1 c=64 v=63
314388 Par ch=1 c=64 v=0
314394 On ch=1 n=e6 v=0
314418 On ch=1 n=d4 v=104
314432 On ch=1 n=f6 v=118
314450 Par ch=1 c=64 v=63
314464 Par ch=1 c=64 v=127
314552 On ch=1 n=f6 v=0
314610 On ch=1 n=g#4 v=101
314622 On ch=1 n=f6 v=111
314714 On ch=1 n=f6 v=0
314774 On ch=1 n=a#4 v=112
314782 On ch=1 n=g#4 v=0
314918 On ch=1 n=g#4 v=93
314930 On ch=1 n=f#6 v=118
314938 On ch=1 n=a#4 v=0
314986 On ch=1 n=d4 v=0
315004 Par ch=1 c=64 v=63
315022 Par ch=1 c=64 v=0
315090 On ch=1 n=g#4 v=0
315100 Par ch=1 c=64 v=63
315106 On ch=1 n=d#4 v=118
315110 Par ch=1 c=64 v=127
315118 On ch=1 n=g6 v=108
315146 On ch=1 n=f#6 v=0
315238 On ch=1 n=g6 v=0
315286 On ch=1 n=d#4 v=0
315294 On ch=1 n=d#5 v=109
315310 On ch=1 n=g6 v=99
315356 On ch=1 n=d#5 v=0
315430 On ch=1 n=g6 v=0
315450 Par ch=1 c=64 v=63
315488 On ch=1 n=c4 v=118
315490 Par ch=1 c=64 v=127
315492 On ch=1 n=a6 v=118
315596 On ch=1 n=a6 v=0
315604 On ch=1 n=c4 v=0
315658 On ch=1 n=c5 v=100
315676 On ch=1 n=a6 v=108
315726 Par ch=1 c=64 v=63
315734 Par ch=1 c=64 v=0
315752 On ch=1 n=c5 v=0
315780 On ch=1 n=a6 v=0
315844 Par ch=1 c=64 v=63
315852 Par ch=1 c=64 v=127
315858 On ch=1 n=d4 v=116
315868 On ch=1 n=a#6 v=125
316010 On ch=1 n=a#6 v=0
316034 On ch=1 n=d4 v=0
316046 On ch=1 n=d5 v=112
316080 On ch=1 n=a#6 v=108
316100 On ch=1 n=d5 v=0
316230 On ch=1 n=a#6 v=0
316234 Par ch=1 c=64 v=63
316240 Par ch=1 c=64 v=0
316284 On ch=1 n=a3 v=125
316306 On ch=1 n=c7 v=122
316328 Par ch=1 c=64 v=63
316332 Par ch=1 c=64 v=127
316450 On ch=1 n=c7 v=0
316468 On ch=1 n=a3 v=0
316530 On ch=1 n=a4 v=108
316536 On ch=1 n=c7 v=122
316602 On ch=1 n=a4 v=0
316622 On ch=1 n=c7 v=0
316766 Par ch=1 c=64 v=63
316776 Par ch=1 c=64 v=0
316838 On ch=1 n=c#7 v=126
316840 On ch=1 n=a#3 v=119
316842 On ch=1 n=a#4 v=127
316846 Par ch=1 c=64 v=63
316860 Par ch=1 c=64 v=127
317282 On ch=1 n=c#7 v=0
317544 On ch=1 n=a#6 v=125
317642 On ch=1 n=a#6 v=0
317658 On ch=1 n=c7 v=101
317670 On ch=1 n=a#4 v=0
317674 On ch=1 n=a#3 v=0
317730 On ch=1 n=a#6 v=97
317732 On ch=1 n=c7 v=0
317786 On ch=1 n=a6 v=89
317800 On ch=1 n=a#6 v=0
317844 On ch=1 n=a#6 v=100
317884 On ch=1 n=a6 v=0
318032 On ch=1 n=c#7 v=127
318034 On ch=1 n=a#6 v=0
318034 Par ch=1 c=64 v=63
318042 Par ch=1 c=64 v=0
318044 On ch=1 n=f#4 v=125
318056 On ch=1 n=f#3 v=124
318154 Par ch=1 c=64 v=63
318162 Par ch=1 c=64 v=127
318654 On ch=1 n=c#7 v=0
318706 On ch=1 n=a#6 v=121
318886 On ch=1 n=a#6 v=0
318942 On ch=1 n=f#4 v=0
318944 On ch=1 n=c7 v=106
318956 On ch=1 n=f#3 v=0
319002 On ch=1 n=a#6 v=103
319034 On ch=1 n=c7 v=0
319066 On ch=1 n=a6 v=85
319084 On ch=1 n=a#6 v=0
319132 On ch=1 n=a#6 v=103
319186 On ch=1 n=a6 v=0
319380 On ch=1 n=e3 v=127
319428 On ch=1 n=e4 v=127
319430 On ch=1 n=a#6 v=0
319456 On ch=1 n=c#7 v=126
319552 Par ch=1 c=64 v=63
319560 Par ch=1 c=64 v=0
319898 Par ch=1 c=64 v=127
320254 On ch=1 n=c#7 v=0
320276 On ch=1 n=e3 v=0
320320 On ch=1 n=e4 v=0
320330 On ch=1 n=a#6 v=120
320578 On ch=1 n=g6 v=109
320642 On ch=1 n=a#6 v=0
320766 On ch=1 n=e6 v=114
320826 On ch=1 n=g6 v=0
320870 On ch=1 n=e6 v=0
320922 On ch=1 n=c#6 v=108
321056 On ch=1 n=a#5 v=106
321096 On ch=1 n=c#6 v=0
321180 On ch=1 n=g5 v=87
321224 On ch=1 n=a#5 v=0
321296 On ch=1 n=e5 v=101
321364 On ch=1 n=e5 v=0
321364 On ch=1 n=g5 v=0
321390 On ch=1 n=c#5 v=96
321472 On ch=1 n=a#4 v=98
321524 On ch=1 n=g4 v=88
321556 On ch=1 n=c#5 v=0
321604 On ch=1 n=e4 v=106
321622 On ch=1 n=a#4 v=0
321674 On ch=1 n=g4 v=0
321706 On ch=1 n=e4 v=0
321712 On ch=1 n=c#4 v=110
321792 On ch=1 n=a#3 v=96
321820 On ch=1 n=c#4 v=0
321844 On ch=1 n=g#3 v=80
321882 On ch=1 n=g3 v=81
321912 On ch=1 n=g#3 v=0
321928 On ch=1 n=a#3 v=0
321960 On ch=1 n=e3 v=103
322016 On ch=1 n=g3 v=0
322050 On ch=1 n=e3 v=0
322390 On ch=1 n=f3 v=126
322400 On ch=1 n=f4 v=126
322400 On ch=1 n=f2 v=125
322476 Par ch=1 c=64 v=63
322490 Par ch=1 c=64 v=0
322706 Par ch=1 c=64 v=63
322722 Par ch=1 c=64 v=127
323042 On ch=1 n=f4 v=0
323256 On ch=1 n=f3 v=0
323262 On ch=1 n=f2 v=0
325962 On ch=1 n=a4 v=71
326186 On ch=1 n=g4 v=82
326248 On ch=1 n=a4 v=0
326364 On ch=1 n=f4 v=93
326374 On ch=1 n=g4 v=0
326524 On ch=1 n=f4 v=0
326526 On ch=1 n=g4 v=98
326642 On ch=1 n=a4 v=98
326668 On ch=1 n=g4 v=0
326734 On ch=1 n=a#4 v=96
326758 On ch=1 n=a4 v=0
326808 On ch=1 n=a#4 v=0
326834 On ch=1 n=c5 v=92
326922 On ch=1 n=d5 v=91
326932 On ch=1 n=c5 v=0
326976 On ch=1 n=d#5 v=101
326996 On ch=1 n=d5 v=0
327036 On ch=1 n=d#5 v=0
327064 On ch=1 n=f5 v=96
327114 On ch=1 n=g5 v=104
327140 On ch=1 n=f5 v=0
327166 On ch=1 n=a5 v=102
327198 On ch=1 n=g5 v=0
327214 On ch=1 n=a#5 v=100
327246 On ch=1 n=a5 v=0
327274 On ch=1 n=a#5 v=0
327302 On ch=1 n=b5 v=102
327304 On ch=1 n=c6 v=101
327350 On ch=1 n=b5 v=0
327354 On ch=1 n=d6 v=100
327386 On ch=1 n=c6 v=0
327410 On ch=1 n=d#6 v=110
327436 On ch=1 n=d6 v=0
327480 On ch=1 n=d#6 v=0
327488 On ch=1 n=f6 v=98
327546 On ch=1 n=g6 v=100
327582 On ch=1 n=f6 v=0
327606 On ch=1 n=a6 v=100
327638 On ch=1 n=g6 v=0
327654 On ch=1 n=a#6 v=104
327680 On ch=1 n=a6 v=0
327708 On ch=1 n=a#6 v=0
327730 On ch=1 n=c7 v=102
327804 On ch=1 n=d7 v=107
327830 On ch=1 n=c7 v=0
327856 On ch=1 n=d#7 v=114
327910 On ch=1 n=d7 v=0
327936 On ch=1 n=f7 v=112
327956 Par ch=1 c=64 v=63
327960 On ch=1 n=d#7 v=0
327976 Par ch=1 c=64 v=0
328080 On ch=1 n=f7 v=0
329148 Par ch=1 c=64 v=63
329172 Par ch=1 c=64 v=127
329222 On ch=1 n=a#5 v=121
329394 On ch=1 n=a#5 v=0
329438 On ch=1 n=a#5 v=98
329586 On ch=1 n=c6 v=93
329600 On ch=1 n=a#5 v=0
329726 On ch=1 n=d6 v=102
329758 On ch=1 n=c6 v=0
329860 On ch=1 n=d6 v=0
329864 On ch=1 n=c6 v=104
329976 On ch=1 n=c6 v=0
329986 On ch=1 n=d6 v=99
330068 On ch=1 n=c6 v=94
330072 On ch=1 n=d6 v=0
330132 On ch=1 n=d6 v=92
330160 On ch=1 n=c6 v=0
330214 On ch=1 n=c6 v=94
330216 On ch=1 n=d6 v=0
330264 On ch=1 n=d6 v=98
330294 On ch=1 n=c6 v=0
330342 On ch=1 n=d6 v=0
330348 On ch=1 n=c6 v=96
330392 On ch=1 n=d6 v=98
330426 On ch=1 n=c6 v=0
330472 On ch=1 n=d6 v=0
330476 On ch=1 n=c6 v=100
330518 On ch=1 n=d6 v=102
330554 On ch=1 n=c6 v=0
330602 On ch=1 n=d6 v=0
330606 On ch=1 n=c6 v=96
330652 On ch=1 n=d6 v=99
330684 On ch=1 n=c6 v=0
330736 On ch=1 n=c6 v=94
330738 On ch=1 n=d6 v=0
330784 On ch=1 n=d6 v=99
330818 On ch=1 n=c6 v=0
330872 On ch=1 n=d6 v=0
330872 On ch=1 n=c6 v=93
330924 On ch=1 n=d6 v=97
330956 On ch=1 n=c6 v=0
331006 On ch=1 n=d6 v=0
331006 On ch=1 n=c6 v=92
331058 On ch=1 n=d6 v=96
331090 On ch=1 n=c6 v=0
331142 On ch=1 n=d6 v=0
331144 On ch=1 n=c6 v=92
331196 On ch=1 n=d6 v=94
331228 On ch=1 n=c6 v=0
331284 On ch=1 n=c6 v=86
331286 On ch=1 n=d6 v=0
331332 On ch=1 n=d6 v=97
331366 On ch=1 n=c6 v=0
331424 On ch=1 n=d6 v=0
331426 On ch=1 n=c6 v=85
331474 On ch=1 n=d6 v=92
331510 On ch=1 n=c6 v=0
331570 On ch=1 n=d6 v=0
331572 On ch=1 n=c6 v=89
331622 On ch=1 n=d6 v=86
331652 On ch=1 n=c6 v=0
331712 On ch=1 n=c6 v=81
331720 On ch=1 n=d6 v=0
331774 On ch=1 n=d6 v=83
331806 On ch=1 n=c6 v=0
331854 On ch=1 n=c6 v=85
331864 On ch=1 n=d6 v=0
331922 On ch=1 n=d6 v=87
331938 On ch=1 n=c6 v=0
331996 On ch=1 n=c6 v=76
332000 On ch=1 n=d6 v=0
332064 On ch=1 n=d6 v=73
332102 On ch=1 n=c6 v=0
332136 On ch=1 n=c6 v=77
332156 On ch=1 n=d6 v=0
332212 On ch=1 n=d6 v=73
332226 On ch=1 n=c6 v=0
332288 On ch=1 n=c6 v=71
332296 On ch=1 n=d6 v=0
332358 On ch=1 n=d6 v=70
332386 On ch=1 n=c6 v=0
332440 On ch=1 n=c6 v=72
332456 On ch=1 n=d6 v=0
332514 On ch=1 n=d6 v=71
332532 On ch=1 n=c6 v=0
332588 On ch=1 n=c6 v=68
332606 On ch=1 n=d6 v=0
332664 On ch=1 n=d6 v=67
332688 On ch=1 n=c6 v=0
332740 On ch=1 n=c6 v=67
332760 On ch=1 n=d6 v=0
332820 On ch=1 n=d6 v=63
332844 On ch=1 n=c6 v=0
332892 On ch=1 n=c6 v=61
332922 On ch=1 n=d6 v=0
332986 On ch=1 n=d6 v=62
333014 On ch=1 n=c6 v=0
333050 On ch=1 n=c6 v=58
333082 On ch=1 n=d#5 v=82
333084 On ch=1 n=d6 v=0
333090 On ch=1 n=f4 v=60
333092 On ch=1 n=c5 v=82
333096 On ch=1 n=a4 v=60
333152 On ch=1 n=d6 v=66
333156 On ch=1 n=c6 v=0
333214 On ch=1 n=c6 v=52
333226 On ch=1 n=d6 v=0
333306 On ch=1 n=d6 v=60
333330 On ch=1 n=c6 v=0
333386 On ch=1 n=c6 v=41
333398 On ch=1 n=d6 v=0
333476 On ch=1 n=d6 v=60
333500 On ch=1 n=c6 v=0
333554 On ch=1 n=c6 v=47
333570 On ch=1 n=d6 v=0
333648 On ch=1 n=d6 v=60
333672 On ch=1 n=c6 v=0
333742 On ch=1 n=c6 v=50
333746 On ch=1 n=d6 v=0
333840 On ch=1 n=d6 v=47
333856 On ch=1 n=c6 v=0
333916 On ch=1 n=c6 v=37
333928 On ch=1 n=d6 v=0
334014 On ch=1 n=d6 v=61
334026 On ch=1 n=c6 v=0
334104 On ch=1 n=d6 v=0
334112 On ch=1 n=c6 v=47
334208 On ch=1 n=d6 v=50
334218 On ch=1 n=c6 v=0
334272 On ch=1 n=c6 v=36
334286 On ch=1 n=d6 v=0
334392 On ch=1 n=d6 v=60
334394 On ch=1 n=c6 v=0
334474 On ch=1 n=d6 v=0
334480 On ch=1 n=c6 v=51
334588 On ch=1 n=c6 v=0
334594 On ch=1 n=d6 v=60
334674 On ch=1 n=d6 v=0
334676 On ch=1 n=c6 v=56
334774 On ch=1 n=d6 v=57
334780 On ch=1 n=c6 v=0
334872 On ch=1 n=c6 v=45
334876 On ch=1 n=d6 v=0
334978 On ch=1 n=d6 v=50
334982 On ch=1 n=c6 v=0
335096 On ch=1 n=c6 v=51
335112 On ch=1 n=d6 v=0
335194 On ch=1 n=d6 v=43
335204 On ch=1 n=c6 v=0
335314 On ch=1 n=d6 v=0
335322 On ch=1 n=c6 v=40
335456 On ch=1 n=d6 v=53
335492 On ch=1 n=c6 v=0
335620 On ch=1 n=c6 v=51
335626 On ch=1 n=d6 v=0
335786 On ch=1 n=d6 v=57
335826 On ch=1 n=c6 v=0
335980 On ch=1 n=c6 v=50
335988 On ch=1 n=d6 v=0
336238 On ch=1 n=b5 v=59
336286 On ch=1 n=c6 v=0
336474 On ch=1 n=b5 v=0
336480 On ch=1 n=c6 v=63
336660 On ch=1 n=c6 v=0
336662 On ch=1 n=d6 v=74
336798 On ch=1 n=d6 v=0
336804 On ch=1 n=d#6 v=80
336900 On ch=1 n=d#6 v=0
336930 On ch=1 n=f6 v=76
337044 On ch=1 n=f6 v=0
337046 On ch=1 n=g6 v=76
337136 On ch=1 n=a6 v=75
337152 On ch=1 n=g6 v=0
337216 On ch=1 n=a#6 v=95
337232 On ch=1 n=a6 v=0
337286 On ch=1 n=a#6 v=0
337308 On ch=1 n=c7 v=90
337410 On ch=1 n=d7 v=83
337510 On ch=1 n=d#7 v=94
337520 On ch=1 n=c7 v=0
337524 On ch=1 n=d7 v=0
337632 On ch=1 n=d7 v=85
337666 On ch=1 n=d#7 v=0
337736 Par ch=1 c=64 v=63
337778 On ch=1 n=f7 v=91
337792 Par ch=1 c=64 v=0
337844 On ch=1 n=d7 v=0
337992 Par ch=1 c=64 v=63
338026 Par ch=1 c=64 v=127
338026 On ch=1 n=d#7 v=86
338086 On ch=1 n=f7 v=0
338192 On ch=1 n=d7 v=85
338246 On ch=1 n=d#7 v=0
338320 On ch=1 n=c7 v=90
338324 On ch=1 n=d7 v=0
338452 On ch=1 n=d#7 v=95
338462 Par ch=1 c=64 v=63
338488 On ch=1 n=c7 v=0
338558 Par ch=1 c=64 v=127
338578 On ch=1 n=d7 v=84
338612 On ch=1 n=d#7 v=0
338722 On ch=1 n=c7 v=78
338728 On ch=1 n=d7 v=0
338854 On ch=1 n=c7 v=0
338862 On ch=1 n=a#6 v=76
338962 On ch=1 n=a#6 v=0
339020 On ch=1 n=d7 v=71
339190 On ch=1 n=c7 v=84
339192 Par ch=1 c=64 v=63
339228 On ch=1 n=d7 v=0
339264 Par ch=1 c=64 v=127
339382 On ch=1 n=a#6 v=74
339424 On ch=1 n=c7 v=0
339582 On ch=1 n=a6 v=66
339596 On ch=1 n=a#6 v=0
339788 On ch=1 n=c7 v=68
339794 Par ch=1 c=64 v=63
339826 On ch=1 n=a6 v=0
339850 Par ch=1 c=64 v=127
339974 On ch=1 n=a#6 v=72
340024 On ch=1 n=c7 v=0
340182 On ch=1 n=a6 v=50
340242 On ch=1 n=a#6 v=0
340408 On ch=1 n=a6 v=0
340410 On ch=1 n=g6 v=49
340668 On ch=1 n=a#6 v=51
340794 On ch=1 n=g6 v=0
340814 Par ch=1 c=64 v=63
340878 Par ch=1 c=64 v=127
340938 On ch=1 n=a6 v=42
341050 On ch=1 n=d#5 v=0
341188 On ch=1 n=g6 v=49
341266 On ch=1 n=a6 v=0
341296 On ch=1 n=a#6 v=0
341442 On ch=1 n=f6 v=50
341470 On ch=1 n=g6 v=0
341598 On ch=1 n=f4 v=0
341680 On ch=1 n=a4 v=0
341710 On ch=1 n=c5 v=0
341740 On ch=1 n=a6 v=55
341744 On ch=1 n=f6 v=0
341964 On ch=1 n=a6 v=0
342058 On ch=1 n=g6 v=47
342348 On ch=1 n=f6 v=44
342372 On ch=1 n=g6 v=0
342684 On ch=1 n=d#6 v=43
342690 On ch=1 n=f6 v=0
343030 On ch=1 n=d#6 v=0
343040 On ch=1 n=g6 v=46
343436 On ch=1 n=f6 v=49
343476 On ch=1 n=g6 v=0
343848 On ch=1 n=d#6 v=41
343908 On ch=1 n=f6 v=0
344290 On ch=1 n=d6 v=36
344388 On ch=1 n=d#6 v=0
344858 On ch=1 n=f6 v=35
344926 On ch=1 n=d6 v=0
345100 Par ch=1 c=64 v=63
345188 Par ch=1 c=64 v=127
345312 On ch=1 n=f6 v=0
345510 On ch=1 n=d#6 v=37
345974 On ch=1 n=d#6 v=0
346130 On ch=1 n=d6 v=31
346252 Par ch=1 c=64 v=63
346356 Par ch=1 c=64 v=127
346686 On ch=1 n=d6 v=0
347104 On ch=1 n=c6 v=26
347326 Par ch=1 c=64 v=63
347572 Par ch=1 c=64 v=127
347876 On ch=1 n=c6 v=0
348952 On ch=1 n=b5 v=30
349390 On ch=1 n=b5 v=0
349448 On ch=1 n=c6 v=41
349604 On ch=1 n=c6 v=0
349794 On ch=1 n=c#6 v=60
349898 On ch=1 n=c#6 v=0
350090 On ch=1 n=d6 v=76
350278 On ch=1 n=d6 v=0
350598 On ch=1 n=d#6 v=72
350678 Par ch=1 c=64 v=63
350870 Par ch=1 c=64 v=0
351604 On ch=1 n=d#6 v=0
352282 Par ch=1 c=64 v=63
352336 On ch=1 n=e6 v=35
352344 Par ch=1 c=64 v=127
352908 On ch=1 n=e6 v=0
354294 Par ch=1 c=64 v=63
354392 On ch=1 n=f6 v=39
354460 Par ch=1 c=64 v=127
354568 Par ch=1 c=64 v=63
354930 On ch=1 n=a#4 v=33
355092 On ch=1 n=f6 v=0
355120 On ch=1 n=d6 v=55
355294 On ch=1 n=d6 v=0
355334 On ch=1 n=a#5 v=69
355350 On ch=1 n=d5 v=41
355400 On ch=1 n=a#5 v=0
355650 On ch=1 n=a#4 v=0
355676 Par ch=1 c=64 v=63
355736 On ch=1 n=g5 v=42
355754 On ch=1 n=a#5 v=67
355768 On ch=1 n=d5 v=0
355790 Par ch=1 c=64 v=127
355836 On ch=1 n=a#5 v=0
356120 On ch=1 n=c5 v=60
356122 On ch=1 n=d#6 v=82
356126 On ch=1 n=g5 v=0
356226 On ch=1 n=d#6 v=0
356306 On ch=1 n=f6 v=76
356372 On ch=1 n=d#6 v=72
356392 On ch=1 n=f6 v=0
356430 On ch=1 n=d#6 v=0
356440 On ch=1 n=d6 v=72
356488 On ch=1 n=d#6 v=88
356500 On ch=1 n=d6 v=0
356530 On ch=1 n=d#5 v=64
356532 On ch=1 n=g6 v=92
356554 On ch=1 n=d#6 v=0
356558 Par ch=1 c=64 v=63
356610 On ch=1 n=g6 v=0
356616 Par ch=1 c=64 v=0
356944 On ch=1 n=a5 v=82
356944 On ch=1 n=f5 v=43
356946 On ch=1 n=c5 v=0
356988 On ch=1 n=d#5 v=0
356994 Par ch=1 c=64 v=63
357028 Par ch=1 c=64 v=127
357284 On ch=1 n=a5 v=0
357318 On ch=1 n=d#5 v=80
357352 On ch=1 n=f5 v=0
357474 On ch=1 n=a5 v=76
357526 Par ch=1 c=64 v=63
357552 On ch=1 n=d#5 v=0
357582 Par ch=1 c=64 v=0
357670 On ch=1 n=d5 v=65
357670 On ch=1 n=c6 v=77
357674 On ch=1 n=a5 v=0
357702 Par ch=1 c=64 v=63
357750 Par ch=1 c=64 v=127
357830 On ch=1 n=a#5 v=84
357862 On ch=1 n=c6 v=0
357872 On ch=1 n=d5 v=0
357986 On ch=1 n=a#5 v=0
357996 Par ch=1 c=64 v=63
358010 On ch=1 n=a4 v=71
358018 On ch=1 n=f5 v=76
358020 On ch=1 n=d6 v=88
358106 Par ch=1 c=64 v=127
358146 On ch=1 n=a4 v=0
358154 On ch=1 n=d6 v=0
358170 On ch=1 n=c6 v=84
358366 Par ch=1 c=64 v=63
358374 On ch=1 n=d#6 v=94
358386 On ch=1 n=a#4 v=83
358402 On ch=1 n=c6 v=0
358420 On ch=1 n=f5 v=0
358474 Par ch=1 c=64 v=127
358520 On ch=1 n=a#4 v=0
358534 On ch=1 n=d6 v=91
358606 On ch=1 n=d#6 v=0
358672 On ch=1 n=d6 v=0
358720 Par ch=1 c=64 v=63
358728 On ch=1 n=f6 v=91
358730 On ch=1 n=c5 v=92
358736 On ch=1 n=d#4 v=93
358848 Par ch=1 c=64 v=127
358854 On ch=1 n=d#4 v=0
358884 On ch=1 n=d#6 v=108
358950 On ch=1 n=f6 v=0
359006 On ch=1 n=c5 v=0
359086 Par ch=1 c=64 v=63
359096 On ch=1 n=d6 v=101
359098 On ch=1 n=a#4 v=85
359106 On ch=1 n=f4 v=80
359110 Par ch=1 c=64 v=0
359142 On ch=1 n=d#6 v=0
359252 Par ch=1 c=64 v=63
359266 Par ch=1 c=64 v=127
359370 On ch=1 n=d6 v=0
359712 On ch=1 n=d#6 v=88
359786 On ch=1 n=d6 v=80
359794 On ch=1 n=d#6 v=0
359802 Par ch=1 c=64 v=63
359804 On ch=1 n=a#4 v=0
359812 Par ch=1 c=64 v=0
359846 On ch=1 n=a4 v=55
359870 On ch=1 n=c6 v=76
359876 On ch=1 n=d6 v=0
359988 On ch=1 n=c6 v=0
360048 On ch=1 n=d6 v=99
360082 Par ch=1 c=64 v=63
360088 Par ch=1 c=64 v=127
360152 On ch=1 n=d6 v=0
360184 On ch=1 n=a4 v=0
360186 On ch=1 n=f4 v=0
360224 On ch=1 n=d#6 v=108
360320 On ch=1 n=d#6 v=0
360374 On ch=1 n=e6 v=102
360392 Par ch=1 c=64 v=63
360402 Par ch=1 c=64 v=0
360496 On ch=1 n=e6 v=0
360580 On ch=1 n=a#3 v=118
360582 On ch=1 n=f6 v=124
360590 Par ch=1 c=64 v=127
360656 On ch=1 n=a#3 v=0
360786 On ch=1 n=a#4 v=93
360914 On ch=1 n=a#4 v=0
360970 On ch=1 n=d5 v=92
361142 On ch=1 n=d5 v=0
361142 On ch=1 n=f6 v=0
361156 On ch=1 n=d#6 v=97
361160 Par ch=1 c=64 v=63
361164 On ch=1 n=a#4 v=88
361168 Par ch=1 c=64 v=0
361226 On ch=1 n=a#4 v=0
361234 On ch=1 n=d6 v=86
361250 On ch=1 n=d#6 v=0
361304 On ch=1 n=c6 v=101
361342 On ch=1 n=d6 v=0
361344 Par ch=1 c=64 v=63
361348 Par ch=1 c=64 v=127
361352 On ch=1 n=g3 v=118
361384 On ch=1 n=a#5 v=101
361404 On ch=1 n=c6 v=0
361420 On ch=1 n=g3 v=0
361452 On ch=1 n=a#5 v=0
361554 On ch=1 n=g4 v=98
361558 On ch=1 n=a#5 v=110
361628 On ch=1 n=g4 v=0
361642 On ch=1 n=a#5 v=0
361708 On ch=1 n=a#5 v=100
361726 On ch=1 n=a#4 v=97
361782 On ch=1 n=a#5 v=0
361844 On ch=1 n=a#4 v=0
361882 On ch=1 n=g4 v=84
361882 On ch=1 n=a#5 v=110
361938 On ch=1 n=g4 v=0
361958 On ch=1 n=a#5 v=0
362018 Par ch=1 c=64 v=63
362028 Par ch=1 c=64 v=0
362062 On ch=1 n=c3 v=125
362074 On ch=1 n=d#6 v=109
362078 Par ch=1 c=64 v=63
362102 Par ch=1 c=64 v=127
362150 On ch=1 n=c3 v=0
362168 On ch=1 n=d#6 v=0
362272 On ch=1 n=f6 v=99
362290 On ch=1 n=c4 v=86
362304 On ch=1 n=d#6 v=106
362346 On ch=1 n=f6 v=0
362376 On ch=1 n=d6 v=90
362382 On ch=1 n=d#6 v=0
362422 On ch=1 n=d#6 v=112
362432 On ch=1 n=c4 v=0
362452 On ch=1 n=g6 v=109
362452 On ch=1 n=d#4 v=95
362464 On ch=1 n=d6 v=0
362490 On ch=1 n=d#6 v=0
362518 Par ch=1 c=64 v=63
362528 On ch=1 n=g6 v=0
362530 Par ch=1 c=64 v=0
362592 On ch=1 n=d#4 v=0
362612 On ch=1 n=c4 v=92
362802 On ch=1 n=f3 v=121
362812 On ch=1 n=a5 v=118
362828 Par ch=1 c=64 v=63
362830 Par ch=1 c=64 v=127
362858 On ch=1 n=c4 v=0
362894 On ch=1 n=f3 v=0
362916 On ch=1 n=a5 v=0
363000 On ch=1 n=f4 v=102
363074 On ch=1 n=f4 v=0
363174 On ch=1 n=a4 v=99
363280 On ch=1 n=a4 v=0
363340 On ch=1 n=f4 v=102
363372 On ch=1 n=d#6 v=113
363380 Par ch=1 c=64 v=63
363398 Par ch=1 c=64 v=0
363408 On ch=1 n=f4 v=0
363460 On ch=1 n=d#6 v=0
363536 On ch=1 n=a#4 v=123
363548 On ch=1 n=d6 v=109
363558 Par ch=1 c=64 v=63
363568 Par ch=1 c=64 v=127
363634 On ch=1 n=a#4 v=0
363652 On ch=1 n=d6 v=0
363700 On ch=1 n=f6 v=74
363782 On ch=1 n=a#6 v=99
363790 On ch=1 n=f6 v=0
363846 Par ch=1 c=64 v=63
363854 On ch=1 n=a#6 v=0
363868 Par ch=1 c=64 v=0
363934 On ch=1 n=d#4 v=124
363936 Par ch=1 c=64 v=63
363942 On ch=1 n=g6 v=109
363976 Par ch=1 c=64 v=127
364008 On ch=1 n=d#4 v=0
364050 Par ch=1 c=64 v=63
364064 On ch=1 n=d#6 v=106
364074 Par ch=1 c=64 v=0
364100 On ch=1 n=g6 v=0
364182 On ch=1 n=c6 v=96
364212 On ch=1 n=d#6 v=0
364276 On ch=1 n=c6 v=0
364302 Par ch=1 c=64 v=63
364308 Par ch=1 c=64 v=127
364308 On ch=1 n=f4 v=114
364314 On ch=1 n=f6 v=108
364382 On ch=1 n=f4 v=0
364420 On ch=1 n=d6 v=94
364430 On ch=1 n=f6 v=0
364494 Par ch=1 c=64 v=63
364502 Par ch=1 c=64 v=0
364534 On ch=1 n=d6 v=0
364540 On ch=1 n=a#5 v=103
364614 On ch=1 n=a#5 v=0
364642 Par ch=1 c=64 v=63
364650 Par ch=1 c=64 v=127
364664 On ch=1 n=f3 v=118
364672 On ch=1 n=d#6 v=107
364732 On ch=1 n=f3 v=0
364766 Par ch=1 c=64 v=63
364776 Par ch=1 c=64 v=0
364786 On ch=1 n=c6 v=86
364814 On ch=1 n=d#6 v=0
364890 On ch=1 n=c6 v=0
364898 On ch=1 n=a5 v=78
365002 On ch=1 n=a5 v=0
365040 On ch=1 n=a#4 v=106
365046 On ch=1 n=d4 v=100
365054 On ch=1 n=a#5 v=121
365060 Par ch=1 c=64 v=127
365126 On ch=1 n=a#5 v=0
365192 On ch=1 n=a#6 v=99
365282 On ch=1 n=a#6 v=0
365320 On ch=1 n=a#6 v=110
365384 On ch=1 n=a#6 v=0
365430 On ch=1 n=d4 v=0
365438 On ch=1 n=a#6 v=101
365458 On ch=1 n=a#4 v=0
365514 On ch=1 n=a#6 v=0
365562 On ch=1 n=a#6 v=96
365626 On ch=1 n=a#6 v=0
365672 On ch=1 n=a#6 v=91
365722 On ch=1 n=a#6 v=0
365800 On ch=1 n=a#6 v=104
365882 Par ch=1 c=64 v=63
365888 Par ch=1 c=64 v=0
365926 On ch=1 n=a6 v=101
365976 On ch=1 n=a#6 v=0
366036 On ch=1 n=g6 v=106
366076 On ch=1 n=a6 v=0
366146 On ch=1 n=f6 v=102
366150 On ch=1 n=g6 v=0
366152 On ch=1 n=a#4 v=108
366154 On ch=1 n=d4 v=97
366216 On ch=1 n=d4 v=0
366224 On ch=1 n=a#4 v=0
366248 On ch=1 n=f6 v=0
366268 On ch=1 n=d#6 v=113
366370 On ch=1 n=d6 v=102
366388 On ch=1 n=d#6 v=0
366486 On ch=1 n=d6 v=0
366488 On ch=1 n=c6 v=106
366506 On ch=1 n=a#4 v=106
366508 On ch=1 n=d#4 v=112
366552 Par ch=1 c=64 v=63
366556 Par ch=1 c=64 v=127
366574 On ch=1 n=c6 v=0
366620 On ch=1 n=g6 v=102
366706 On ch=1 n=g6 v=0
366746 On ch=1 n=g6 v=101
366816 On ch=1 n=g6 v=0
366854 On ch=1 n=g6 v=102
366922 On ch=1 n=g6 v=0
366984 On ch=1 n=g6 v=99
367052 On ch=1 n=g6 v=0
367088 On ch=1 n=g6 v=89
367130 On ch=1 n=g6 v=0
367130 On ch=1 n=d#4 v=0
367150 On ch=1 n=a#4 v=0
367190 On ch=1 n=g6 v=104
367196 Par ch=1 c=64 v=63
367204 Par ch=1 c=64 v=0
367318 On ch=1 n=f6 v=111
367358 On ch=1 n=g6 v=0
367428 On ch=1 n=d#6 v=109
367474 On ch=1 n=f6 v=0
367544 On ch=1 n=a#4 v=106
367546 On ch=1 n=d6 v=96
367548 On ch=1 n=d#4 v=110
367578 On ch=1 n=d#6 v=0
367618 On ch=1 n=a#4 v=0
367620 On ch=1 n=d#4 v=0
367646 On ch=1 n=d6 v=0
367666 On ch=1 n=d#6 v=107
367748 On ch=1 n=d#6 v=0
367776 On ch=1 n=c6 v=99
367864 On ch=1 n=c6 v=0
367888 On ch=1 n=a#4 v=92
367890 On ch=1 n=d4 v=93
367892 On ch=1 n=e6 v=102
367986 On ch=1 n=f6 v=97
368010 On ch=1 n=d4 v=0
368014 On ch=1 n=e6 v=0
368086 On ch=1 n=g6 v=96
368098 On ch=1 n=f6 v=0
368168 On ch=1 n=f6 v=90
368208 On ch=1 n=g6 v=0
368244 On ch=1 n=d#6 v=108
368266 On ch=1 n=f6 v=0
368272 On ch=1 n=g4 v=90
368332 On ch=1 n=d#6 v=0
368336 On ch=1 n=d6 v=87
368364 On ch=1 n=g4 v=0
368414 On ch=1 n=d6 v=0
368414 On ch=1 n=c6 v=88
368506 On ch=1 n=a#5 v=105
368508 On ch=1 n=c6 v=0
368578 On ch=1 n=a#5 v=0
368606 On ch=1 n=c6 v=90
368608 On ch=1 n=d#4 v=97
368642 On ch=1 n=a#4 v=0
368642 Par ch=1 c=64 v=63
368644 Par ch=1 c=64 v=127
368680 On ch=1 n=c6 v=0
368722 On ch=1 n=d6 v=80
368780 On ch=1 n=d6 v=0
368794 On ch=1 n=c6 v=80
368822 On ch=1 n=d#4 v=0
368852 On ch=1 n=c6 v=0
368864 On ch=1 n=d6 v=84
368902 On ch=1 n=d6 v=0
368916 On ch=1 n=c6 v=92
368972 On ch=1 n=d6 v=82
368976 On ch=1 n=f4 v=88
368982 On ch=1 n=a4 v=84
368994 On ch=1 n=c6 v=0
369022 On ch=1 n=f4 v=0
369058 On ch=1 n=a4 v=0
369058 On ch=1 n=c6 v=100
369078 On ch=1 n=d6 v=0
369126 On ch=1 n=c6 v=0
369126 On ch=1 n=d6 v=101
369180 On ch=1 n=d6 v=0
369180 On ch=1 n=c6 v=96
369208 Par ch=1 c=64 v=63
369216 Par ch=1 c=64 v=0
369248 On ch=1 n=a#5 v=101
369262 On ch=1 n=c6 v=0
369296 On ch=1 n=c6 v=70
369304 On ch=1 n=a#5 v=0
369354 On ch=1 n=a#5 v=116
369360 On ch=1 n=d4 v=98
369362 On ch=1 n=a#4 v=100
369376 On ch=1 n=c6 v=0
369380 Par ch=1 c=64 v=63
369386 Par ch=1 c=64 v=127
369424 On ch=1 n=a#5 v=0
369506 Par ch=1 c=64 v=63
369514 Par ch=1 c=64 v=0
369606 On ch=1 n=a#6 v=103
369690 On ch=1 n=a6 v=85
369696 On ch=1 n=a#6 v=0
369772 On ch=1 n=a#6 v=98
369786 On ch=1 n=a6 v=0
369852 On ch=1 n=a6 v=102
369874 On ch=1 n=a#6 v=0
369882 On ch=1 n=a#4 v=0
369892 On ch=1 n=d4 v=0
369928 On ch=1 n=a#6 v=94
369950 On ch=1 n=a6 v=0
370024 On ch=1 n=a6 v=97
370044 On ch=1 n=a#6 v=0
370108 On ch=1 n=a#6 v=94
370120 On ch=1 n=a6 v=0
370194 On ch=1 n=a6 v=99
370226 On ch=1 n=a#6 v=0
370282 On ch=1 n=g6 v=85
370292 On ch=1 n=a6 v=0
370352 On ch=1 n=g6 v=0
370372 On ch=1 n=f6 v=93
370458 On ch=1 n=a#4 v=88
370460 On ch=1 n=d4 v=89
370474 On ch=1 n=d#6 v=109
370498 On ch=1 n=f6 v=0
370524 On ch=1 n=d4 v=0
370536 On ch=1 n=a#4 v=0
370556 On ch=1 n=d#6 v=0
370562 On ch=1 n=d6 v=85
370642 On ch=1 n=c6 v=91
370646 On ch=1 n=d6 v=0
370722 On ch=1 n=c6 v=0
370722 On ch=1 n=a#5 v=96
370776 On ch=1 n=a#5 v=0
370828 On ch=1 n=a#4 v=114
370834 On ch=1 n=d#4 v=110
370838 On ch=1 n=g5 v=106
370902 On ch=1 n=g5 v=0
371028 On ch=1 n=g6 v=101
371118 On ch=1 n=f#6 v=103
371132 On ch=1 n=g6 v=0
371200 On ch=1 n=g6 v=91
371218 On ch=1 n=f#6 v=0
371284 On ch=1 n=f#6 v=90
371294 On ch=1 n=d#4 v=0
371324 On ch=1 n=g6 v=0
371324 On ch=1 n=a#4 v=0
371364 On ch=1 n=g6 v=77
371388 On ch=1 n=f#6 v=0
371464 On ch=1 n=f#6 v=88
371506 On ch=1 n=g6 v=0
371552 On ch=1 n=g6 v=93
371564 On ch=1 n=f#6 v=0
371632 On ch=1 n=f6 v=106
371688 On ch=1 n=g6 v=0
371722 On ch=1 n=d#6 v=106
371752 On ch=1 n=f6 v=0
371800 On ch=1 n=d6 v=89
371822 On ch=1 n=d#6 v=0
371898 On ch=1 n=d6 v=0
371904 On ch=1 n=c6 v=93
371916 On ch=1 n=c5 v=111
371922 On ch=1 n=d#4 v=118
371978 On ch=1 n=c5 v=0
371980 On ch=1 n=d#4 v=0
371994 On ch=1 n=c6 v=0
371994 On ch=1 n=a#5 v=98
372094 On ch=1 n=a#5 v=0
372096 On ch=1 n=a5 v=96
372184 On ch=1 n=a5 v=0
372186 On ch=1 n=g5 v=76
372232 On ch=1 n=g5 v=0
372274 On ch=1 n=f5 v=108
372310 On ch=1 n=f4 v=113
372354 Par ch=1 c=64 v=63
372356 Par ch=1 c=64 v=127
372454 On ch=1 n=f5 v=0
372534 On ch=1 n=g5 v=86
372550 On ch=1 n=d5 v=77
372630 On ch=1 n=g5 v=0
372630 On ch=1 n=a5 v=94
372712 On ch=1 n=a#5 v=105
372732 On ch=1 n=a5 v=0
372750 On ch=1 n=a#4 v=88
372776 On ch=1 n=d5 v=0
372778 On ch=1 n=a#5 v=0
372798 On ch=1 n=c6 v=99
372884 On ch=1 n=d6 v=104
372906 On ch=1 n=c6 v=0
372940 On ch=1 n=d5 v=91
372962 On ch=1 n=d#6 v=113
372998 On ch=1 n=d6 v=0
372998 On ch=1 n=f4 v=0
373058 On ch=1 n=f6 v=109
373066 On ch=1 n=d#6 v=0
373096 On ch=1 n=a#4 v=0
373098 On ch=1 n=f4 v=111
373144 On ch=1 n=d5 v=0
373154 On ch=1 n=g6 v=102
373180 On ch=1 n=f6 v=0
373236 On ch=1 n=a6 v=99
373292 On ch=1 n=g6 v=0
373306 On ch=1 n=d5 v=94
373326 On ch=1 n=a#6 v=110
373372 On ch=1 n=a6 v=0
373404 On ch=1 n=a#6 v=0
373426 On ch=1 n=c7 v=109
373496 On ch=1 n=a#4 v=87
373518 On ch=1 n=d7 v=99
373536 On ch=1 n=c7 v=0
373548 On ch=1 n=d5 v=0
373590 On ch=1 n=d#7 v=110
373644 On ch=1 n=d7 v=0
373666 On ch=1 n=f4 v=0
373688 On ch=1 n=f7 v=109
373706 On ch=1 n=d5 v=79
373724 On ch=1 n=d#7 v=0
373812 On ch=1 n=a#4 v=0
373842 Par ch=1 c=64 v=63
373848 On ch=1 n=a#6 v=119
373858 Par ch=1 c=64 v=0
373864 On ch=1 n=f4 v=109
373870 On ch=1 n=f7 v=0
373910 Par ch=1 c=64 v=63
373912 On ch=1 n=d5 v=0
373944 Par ch=1 c=64 v=127
374042 On ch=1 n=a#6 v=0
374092 On ch=1 n=c7 v=58
374150 On ch=1 n=d7 v=83
374158 On ch=1 n=c7 v=0
374168 On ch=1 n=d#5 v=78
374212 On ch=1 n=d7 v=0
374214 On ch=1 n=c7 v=89
374274 On ch=1 n=d7 v=94
374292 On ch=1 n=c7 v=0
374342 On ch=1 n=d7 v=0
374346 On ch=1 n=a4 v=65
374352 On ch=1 n=d#5 v=0
374360 On ch=1 n=c7 v=94
374394 On ch=1 n=d7 v=98
374426 On ch=1 n=c7 v=0
374470 On ch=1 n=d7 v=0
374486 On ch=1 n=c7 v=103
374526 On ch=1 n=d7 v=96
374530 On ch=1 n=d#5 v=81
374554 On ch=1 n=c7 v=0
374600 On ch=1 n=d7 v=0
374600 On ch=1 n=f4 v=0
374612 On ch=1 n=c7 v=104
374652 On ch=1 n=a4 v=0
374658 On ch=1 n=d7 v=97
374682 On ch=1 n=c7 v=0
374736 On ch=1 n=d7 v=0
374742 On ch=1 n=c7 v=107
374748 On ch=1 n=f4 v=100
374754 On ch=1 n=d#5 v=0
374792 On ch=1 n=d7 v=90
374814 On ch=1 n=c7 v=0
374874 On ch=1 n=c7 v=103
374882 On ch=1 n=d7 v=0
374932 On ch=1 n=d7 v=98
374944 On ch=1 n=c7 v=0
374956 On ch=1 n=d#5 v=80
375002 On ch=1 n=c7 v=93
375012 On ch=1 n=d7 v=0
375066 On ch=1 n=d7 v=82
375076 On ch=1 n=c7 v=0
375146 On ch=1 n=d#5 v=0
375154 On ch=1 n=a4 v=75
375178 On ch=1 n=c7 v=84
375200 On ch=1 n=d7 v=0
375246 On ch=1 n=d7 v=106
375258 On ch=1 n=c7 v=0
375304 On ch=1 n=d7 v=0
375314 On ch=1 n=c7 v=84
375352 On ch=1 n=d#5 v=69
375390 On ch=1 n=a#6 v=87
375398 On ch=1 n=c7 v=0
375448 On ch=1 n=f4 v=0
375448 On ch=1 n=c7 v=92
375470 On ch=1 n=a#6 v=0
375480 On ch=1 n=a4 v=0
375494 On ch=1 n=d#5 v=0
375582 On ch=1 n=a#6 v=107
375618 On ch=1 n=c7 v=0
375622 On ch=1 n=d5 v=82
375680 Par ch=1 c=64 v=63
375698 Par ch=1 c=64 v=0
375832 Par ch=1 c=64 v=63
375846 Par ch=1 c=64 v=127
375908 On ch=1 n=a#4 v=76
376080 On ch=1 n=d5 v=0
376084 On ch=1 n=a#6 v=0
376156 On ch=1 n=d5 v=80
376264 On ch=1 n=a#4 v=0
376358 On ch=1 n=a#4 v=70
376410 On ch=1 n=d5 v=0
376556 On ch=1 n=d5 v=72
376606 On ch=1 n=a#4 v=0
376758 On ch=1 n=a#4 v=77
376796 On ch=1 n=d5 v=0
376936 On ch=1 n=a#4 v=0
376944 On ch=1 n=a#5 v=103
376986 On ch=1 n=d5 v=59
377128 On ch=1 n=a#4 v=86
377140 On ch=1 n=d5 v=0
377344 On ch=1 n=a#5 v=0
377350 On ch=1 n=g#6 v=98
377360 On ch=1 n=f5 v=55
377372 On ch=1 n=a#4 v=0
377476 Par ch=1 c=64 v=63
377520 Par ch=1 c=64 v=0
377534 Par ch=1 c=64 v=63
377540 On ch=1 n=a#4 v=74
377584 Par ch=1 c=64 v=127
377648 On ch=1 n=f5 v=0
377750 On ch=1 n=f5 v=76
377778 On ch=1 n=a#4 v=0
377844 On ch=1 n=g#6 v=0
377904 On ch=1 n=f5 v=0
377924 On ch=1 n=a#4 v=61
377928 On ch=1 n=f6 v=103
378102 Par ch=1 c=64 v=63
378138 On ch=1 n=d6 v=79
378148 On ch=1 n=g#5 v=62
378152 On ch=1 n=a#4 v=0
378154 Par ch=1 c=64 v=0
378186 On ch=1 n=f6 v=0
378200 Par ch=1 c=64 v=63
378252 Par ch=1 c=64 v=127
378322 On ch=1 n=a#4 v=83
378342 On ch=1 n=d6 v=0
378370 On ch=1 n=g#5 v=0
378532 On ch=1 n=d6 v=104
378540 On ch=1 n=g#5 v=78
378558 On ch=1 n=a#4 v=0
378712 On ch=1 n=a#4 v=81
378766 On ch=1 n=g#5 v=0
378768 On ch=1 n=d6 v=0
378924 On ch=1 n=d#6 v=106
378932 On ch=1 n=g5 v=76
378958 On ch=1 n=a#4 v=0
378980 Par ch=1 c=64 v=63
379034 Par ch=1 c=64 v=0
379094 On ch=1 n=a#4 v=75
379138 On ch=1 n=g5 v=0
379140 On ch=1 n=d#6 v=0
379298 On ch=1 n=f6 v=98
379318 On ch=1 n=d5 v=81
379340 On ch=1 n=a#4 v=0
379440 On ch=1 n=f6 v=0
379470 On ch=1 n=a#4 v=66
379532 On ch=1 n=d5 v=0
379702 On ch=1 n=d#5 v=70
379704 On ch=1 n=g6 v=90
379774 On ch=1 n=a#4 v=0
379844 Par ch=1 c=64 v=63
379854 Par ch=1 c=64 v=127
379906 On ch=1 n=a#4 v=61
380000 On ch=1 n=d#5 v=0
380080 On ch=1 n=g6 v=0
380148 On ch=1 n=d#5 v=83
380184 On ch=1 n=a#4 v=0
380322 On ch=1 n=g6 v=92
380344 On ch=1 n=a#4 v=73
380396 On ch=1 n=d#5 v=0
380524 On ch=1 n=f6 v=100
380548 On ch=1 n=c5 v=80
380554 On ch=1 n=a#4 v=0
380590 On ch=1 n=g6 v=0
380600 Par ch=1 c=64 v=63
380640 Par ch=1 c=64 v=0
380708 On ch=1 n=d#6 v=104
380710 On ch=1 n=a#4 v=84
380726 Par ch=1 c=64 v=63
380768 Par ch=1 c=64 v=127
380770 On ch=1 n=c5 v=0
380772 On ch=1 n=f6 v=0
380886 On ch=1 n=d6 v=98
380910 On ch=1 n=a#4 v=0
380914 On ch=1 n=c5 v=81
380932 Par ch=1 c=64 v=63
380958 On ch=1 n=d#6 v=0
380978 Par ch=1 c=64 v=0
381056 On ch=1 n=a#4 v=84
381092 On ch=1 n=c6 v=94
381106 On ch=1 n=c5 v=0
381118 On ch=1 n=d6 v=0
381226 Par ch=1 c=64 v=63
381246 Par ch=1 c=64 v=127
381260 On ch=1 n=a#4 v=0
381266 On ch=1 n=c5 v=71
381268 On ch=1 n=a#5 v=97
381278 On ch=1 n=c6 v=0
381378 Par ch=1 c=64 v=63
381410 Par ch=1 c=64 v=0
381434 On ch=1 n=a#4 v=86
381436 On ch=1 n=a5 v=84
381446 On ch=1 n=a#5 v=0
381464 On ch=1 n=c5 v=0
381612 On ch=1 n=a5 v=0
381634 On ch=1 n=a#4 v=0
381640 On ch=1 n=d#6 v=93
381652 On ch=1 n=c5 v=68
381810 On ch=1 n=a5 v=76
381814 On ch=1 n=d#6 v=0
381836 On ch=1 n=a#4 v=76
381878 On ch=1 n=c5 v=0
382012 On ch=1 n=d5 v=64
382018 On ch=1 n=a5 v=0
382036 On ch=1 n=a#5 v=82
382040 Par ch=1 c=64 v=63
382074 Par ch=1 c=64 v=127
382202 On ch=1 n=a#5 v=0
382232 On ch=1 n=c6 v=77
382378 On ch=1 n=c6 v=0
382430 On ch=1 n=d6 v=77
382546 On ch=1 n=d6 v=0
382578 On ch=1 n=a#4 v=0
382580 On ch=1 n=d5 v=0
382620 On ch=1 n=d#6 v=83
382690 Par ch=1 c=64 v=63
382724 On ch=1 n=d#6 v=0
382772 Par ch=1 c=64 v=0
382812 On ch=1 n=e6 v=80
382908 On ch=1 n=e6 v=0
383004 On ch=1 n=f6 v=94
383098 On ch=1 n=f6 v=0
383198 On ch=1 n=f#6 v=98
383316 On ch=1 n=f#6 v=0
383394 On ch=1 n=g6 v=100
383670 On ch=1 n=f5 v=66
383684 On ch=1 n=g#6 v=98
383696 On ch=1 n=g6 v=0
383928 Par ch=1 c=64 v=63
383930 On ch=1 n=a#4 v=68
383938 Par ch=1 c=64 v=127
384054 On ch=1 n=f5 v=0
384156 On ch=1 n=f5 v=72
384158 On ch=1 n=a#4 v=0
384170 On ch=1 n=g#6 v=0
384316 On ch=1 n=g6 v=76
384328 On ch=1 n=a#4 v=48
384372 On ch=1 n=g6 v=0
384402 On ch=1 n=f5 v=0
384404 On ch=1 n=f6 v=63
384450 On ch=1 n=f6 v=0
384466 Par ch=1 c=64 v=63
384478 On ch=1 n=d#6 v=91
384484 Par ch=1 c=64 v=0
384546 On ch=1 n=g#5 v=60
384550 On ch=1 n=d#6 v=0
384558 On ch=1 n=a#4 v=0
384566 On ch=1 n=d6 v=74
384648 On ch=1 n=d6 v=0
384752 On ch=1 n=a#4 v=72
384780 On ch=1 n=d6 v=80
384788 On ch=1 n=g#5 v=0
384850 On ch=1 n=d6 v=0
384964 On ch=1 n=a#4 v=0
384964 On ch=1 n=g#5 v=76
384978 On ch=1 n=d6 v=85
385040 On ch=1 n=d6 v=0
385142 On ch=1 n=a#4 v=72
385146 On ch=1 n=d6 v=94
385170 On ch=1 n=g#5 v=0
385202 Par ch=1 c=64 v=63
385216 Par ch=1 c=64 v=127
385230 On ch=1 n=d6 v=0
385316 On ch=1 n=a#4 v=0
385350 On ch=1 n=g5 v=71
385368 On ch=1 n=d#6 v=92
385424 On ch=1 n=d#6 v=0
385530 On ch=1 n=a#4 v=62
385644 On ch=1 n=g5 v=0
385734 Par ch=1 c=64 v=63
385746 On ch=1 n=a#4 v=0
385756 On ch=1 n=d5 v=73
385760 Par ch=1 c=64 v=0
385772 On ch=1 n=f6 v=79
385816 Par ch=1 c=64 v=63
385846 On ch=1 n=f6 v=0
385856 On ch=1 n=g6 v=74
385858 Par ch=1 c=64 v=127
385954 On ch=1 n=a#4 v=72
385966 On ch=1 n=g6 v=0
385980 On ch=1 n=d5 v=0
385984 On ch=1 n=f6 v=79
386052 On ch=1 n=d#6 v=88
386082 On ch=1 n=f6 v=0
386118 Par ch=1 c=64 v=63
386124 On ch=1 n=d#6 v=0
386138 On ch=1 n=f6 v=60
386140 Par ch=1 c=64 v=0
386226 On ch=1 n=a#4 v=0
386228 On ch=1 n=g6 v=88
386230 On ch=1 n=d#5 v=73
386248 On ch=1 n=f6 v=0
386316 Par ch=1 c=64 v=63
386342 Par ch=1 c=64 v=127
386462 On ch=1 n=a#4 v=67
386474 On ch=1 n=d#5 v=0
386562 On ch=1 n=g6 v=0
386688 On ch=1 n=d#5 v=79
386700 On ch=1 n=a#4 v=0
386866 On ch=1 n=a#4 v=79
386874 On ch=1 n=g6 v=99
386920 On ch=1 n=d#5 v=0
387066 On ch=1 n=f6 v=91
387090 On ch=1 n=c5 v=77
387092 On ch=1 n=a#4 v=0
387120 Par ch=1 c=64 v=63
387134 On ch=1 n=g6 v=0
387166 Par ch=1 c=64 v=0
387240 On ch=1 n=d#6 v=95
387250 On ch=1 n=a#4 v=86
387302 On ch=1 n=f6 v=0
387310 On ch=1 n=c5 v=0
387438 On ch=1 n=a#4 v=0
387442 On ch=1 n=d6 v=97
387444 On ch=1 n=c5 v=75
387506 On ch=1 n=d#6 v=0
387618 On ch=1 n=a#4 v=82
387632 On ch=1 n=c6 v=84
387646 On ch=1 n=d6 v=0
387662 On ch=1 n=c5 v=0
387806 On ch=1 n=c6 v=0
387812 On ch=1 n=a#4 v=0
387814 On ch=1 n=a#5 v=95
387828 On ch=1 n=c5 v=62
387994 On ch=1 n=a#4 v=77
388000 On ch=1 n=a5 v=79
388008 On ch=1 n=a#5 v=0
388016 On ch=1 n=c5 v=0
388194 On ch=1 n=a5 v=0
388198 On ch=1 n=d#6 v=92
388214 On ch=1 n=a#4 v=0
388216 On ch=1 n=c5 v=62
388374 On ch=1 n=d#6 v=0
388376 On ch=1 n=a5 v=65
388392 On ch=1 n=a#4 v=76
388428 On ch=1 n=c5 v=0
388612 On ch=1 n=a#5 v=65
388614 On ch=1 n=d5 v=51
388626 On ch=1 n=a5 v=0
388746 Par ch=1 c=64 v=63
388762 Par ch=1 c=64 v=127
388904 On ch=1 n=a#5 v=0
388990 Par ch=1 c=64 v=63
388996 On ch=1 n=d5 v=0
389010 Par ch=1 c=64 v=0
389050 On ch=1 n=a#4 v=0
389276 On ch=1 n=d6 v=71
389378 Par ch=1 c=64 v=63
389406 Par ch=1 c=64 v=127
389472 On ch=1 n=f6 v=78
389478 On ch=1 n=d6 v=0
389494 On ch=1 n=c5 v=46
389500 On ch=1 n=f4 v=48
389650 On ch=1 n=f6 v=0
389652 On ch=1 n=d#6 v=81
389826 Par ch=1 c=64 v=63
389862 On ch=1 n=d#6 v=0
389868 On ch=1 n=d#5 v=67
389872 Par ch=1 c=64 v=0
389874 On ch=1 n=c6 v=71
389946 On ch=1 n=c5 v=0
390074 On ch=1 n=c6 v=0
390074 On ch=1 n=a5 v=65
390184 On ch=1 n=d#5 v=0
390252 Par ch=1 c=64 v=63
390256 On ch=1 n=f4 v=0
390286 Par ch=1 c=64 v=0
390298 On ch=1 n=a#4 v=47
390308 On ch=1 n=a5 v=0
390314 On ch=1 n=a#5 v=67
390328 On ch=1 n=d5 v=41
390384 Par ch=1 c=64 v=63
390490 Par ch=1 c=64 v=127
390612 On ch=1 n=a#5 v=0
390692 On ch=1 n=d5 v=0
390706 On ch=1 n=a#4 v=0
390728 Par ch=1 c=64 v=63
390880 Par ch=1 c=64 v=0
391002 On ch=1 n=d6 v=76
391096 On ch=1 n=a#5 v=81
391106 On ch=1 n=d6 v=0
391204 On ch=1 n=a#5 v=0
391224 On ch=1 n=f6 v=59
391250 On ch=1 n=f4 v=36
391260 On ch=1 n=c5 v=44
391460 On ch=1 n=d#6 v=78
391468 On ch=1 n=f6 v=0
391672 On ch=1 n=d#5 v=50
391682 On ch=1 n=d#6 v=0
391686 On ch=1 n=c6 v=62
391730 On ch=1 n=c5 v=0
391880 On ch=1 n=c6 v=0
391892 On ch=1 n=a5 v=62
392002 On ch=1 n=d#5 v=0
392124 On ch=1 n=f4 v=0
392202 On ch=1 n=a#4 v=52
392212 On ch=1 n=a5 v=0
392212 On ch=1 n=a#5 v=47
392214 On ch=1 n=d5 v=37
392350 Par ch=1 c=64 v=63
392534 Par ch=1 c=64 v=0
392548 On ch=1 n=a#5 v=0
392584 On ch=1 n=a#4 v=0
392596 On ch=1 n=d5 v=0
392964 On ch=1 n=f6 v=127
393030 Par ch=1 c=64 v=127
393114 On ch=1 n=f6 v=0
393204 On ch=1 n=f6 v=118
393204 On ch=1 n=f4 v=124
393206 On ch=1 n=c6 v=124
393206 On ch=1 n=a6 v=120
393206 On ch=1 n=f3 v=122
393208 On ch=1 n=d#6 v=123
393264 Par ch=1 c=64 v=63
393270 On ch=1 n=c6 v=0
393272 Par ch=1 c=64 v=0
393276 On ch=1 n=f4 v=0
393294 On ch=1 n=f3 v=0
393296 On ch=1 n=d#6 v=0
393310 On ch=1 n=f6 v=0
393316 On ch=1 n=a6 v=0
393710 On ch=1 n=f4 v=124
393712 On ch=1 n=f3 v=122
393720 On ch=1 n=a6 v=121
393720 On ch=1 n=f6 v=120
393722 On ch=1 n=c6 v=126
393722 On ch=1 n=d#6 v=127
393778 On ch=1 n=c6 v=0
393778 On ch=1 n=f4 v=0
393782 On ch=1 n=f3 v=0
393802 On ch=1 n=d#6 v=0
393806 On ch=1 n=f6 v=0
393816 On ch=1 n=a6 v=0
394290 On ch=1 n=a#5 v=120
394292 On ch=1 n=a#6 v=114
394292 On ch=1 n=d6 v=108
394292 On ch=1 n=f6 v=101
394294 On ch=1 n=a#3 v=127
394294 On ch=1 n=a#2 v=124
394308 Par ch=1 c=64 v=63
394310 Par ch=1 c=64 v=127
394366 On ch=1 n=a#3 v=0
394382 On ch=1 n=a#2 v=0
394404 On ch=1 n=a#5 v=0
394420 On ch=1 n=f6 v=0
394422 On ch=1 n=d6 v=0
394454 On ch=1 n=a#6 v=0
395258 Par ch=1 c=64 v=63
395318 Par ch=1 c=64 v=0
397252 Par ch=1 c=64 v=63
397308 Par ch=1 c=64 v=127
397716 Par ch=1 c=64 v=63
397748 Par ch=1 c=64 v=0
397748 Meta TrkEnd
TrkEnd
MTrk
0 SeqSpec 43 00 01 00
0 Meta TrkName "                                    "
0 TimeSig 4/4 24 8
0 Meta TrkEnd
TrkEnd
MTrk
0 SeqSpec 43 00 01 00
0 Meta TrkName "                                    "
0 TimeSig 4/4 24 8
0 Meta TrkEnd
TrkEnd
MTrk
0 SeqSpec 43 00 01 00
0 Meta TrkName "                                    "
0 TimeSig 4/4 24 8
0 Meta TrkEnd
TrkEnd
MTrk
0 SeqSpec 43 00 01 00
0 Meta TrkName "                                    "
0 TimeSig 4/4 24 8
0 Meta TrkEnd
TrkEnd
MTrk
0 SeqSpec 43 00 01 00
0 Meta TrkName "                                    "
0 TimeSig 4/4 24 8
0 Meta TrkEnd
TrkEnd
MTrk
0 SeqSpec 43 00 01 00
0 Meta TrkName "                                    "
0 TimeSig 4/4 24 8
0 Meta TrkEnd
TrkEnd
MTrk
0 SeqSpec 43 00 01 00
0 Meta TrkName "                                    "
0 TimeSig 4/4 24 8
0 Meta TrkEnd
TrkEnd
MTrk
0 SeqSpec 43 00 01 00
0 Meta TrkName "                                    "
0 TimeSig 4/4 24 8
0 Meta TrkEnd
TrkEnd
MTrk
0 SeqSpec 43 00 01 00
0 Meta TrkName "                                    "
0 TimeSig 4/4 24 8
0 Meta TrkEnd
TrkEnd
MTrk
0 SeqSpec 43 00 01 00
0 Meta TrkName "                                    "
0 TimeSig 4/4 24 8
0 Meta TrkEnd
TrkEnd
MTrk
0 SeqSpec 43 00 01 00
0 Meta TrkName "                                    "
0 TimeSig 4/4 24 8
0 Meta TrkEnd
TrkEnd
MTrk
0 SeqSpec 43 00 01 00
0 Meta TrkName "                                    "
0 TimeSig 4/4 24 8
0 Meta TrkEnd
TrkEnd
MTrk
0 SeqSpec 43 00 01 00
0 Meta TrkName "                                    "
0 TimeSig 4/4 24 8
0 Meta TrkEnd
TrkEnd
MTrk
0 SeqSpec 43 00 01 00
0 Meta TrkName "                                    "
0 TimeSig 4/4 24 8
0 Meta TrkEnd
TrkEnd
MTrk
0 SeqSpec 43 00 01 00
0 Meta TrkName "                                    "
0 TimeSig 4/4 24 8
0 Meta TrkEnd
TrkEnd
MTrk
0 SeqSpec 43 00 01 00
0 Meta TrkName "                                    "
0 TimeSig 4/4 24 8
0 Meta TrkEnd
TrkEnd
