MFile 1 18 480
MTrk
0 Tempo 500000
0 TimeSig 3/4 24 8
0 Meta TrkEnd
TrkEnd
MTrk
0 SeqSpec 43 00 01 00
0 Meta TrkName "PIANO                               "
0 TimeSig 3/4 24 8
0 SysEx f0 41 10 42 12 40 00 7f 00 41 f7
0 SysEx f0 41 10 42 12 40 00 04 64 58 f7
340 SysEx f0 41 10 42 12 40 01 30 03 0c f7
340 SysEx f0 41 10 42 12 40 01 33 50 3c f7
340 SysEx f0 41 10 42 12 40 01 34 3c 4f f7
744 Par ch=1 c=0 v=0
748 Par ch=1 c=32 v=1
752 PrCh ch=1 p=0
756 Par ch=1 c=7 v=100
948 Par ch=1 c=11 v=100
1140 Par ch=1 c=10 v=64
1332 Par ch=1 c=1 v=0
1332 Par ch=1 c=91 v=80
1350 Par ch=1 c=99 v=1
1354 Par ch=1 c=98 v=32
1358 Par ch=1 c=6 v=62
1362 Par ch=1 c=99 v=1
1366 Par ch=1 c=98 v=33
1370 Par ch=1 c=6 v=54
1374 Par ch=1 c=99 v=1
1378 Par ch=1 c=98 v=99
1382 Par ch=1 c=6 v=62
1386 Par ch=1 c=99 v=1
1390 Par ch=1 c=98 v=100
1394 Par ch=1 c=6 v=60
1398 Par ch=1 c=99 v=1
1402 Par ch=1 c=98 v=102
1406 Par ch=1 c=6 v=70
2252 On ch=1 n=a#5 v=54
2258 On ch=1 n=d#4 v=49
2266 On ch=1 n=g5 v=38
2306 Par ch=1 c=64 v=63
2352 Par ch=1 c=64 v=127
2996 On ch=1 n=g5 v=0
3084 On ch=1 n=a#5 v=0
3812 On ch=1 n=g#5 v=55
3826 On ch=1 n=f5 v=31
4198 On ch=1 n=f5 v=0
4394 On ch=1 n=g#5 v=0
4526 On ch=1 n=g5 v=59
4540 On ch=1 n=d#5 v=43
4740 Par ch=1 c=64 v=63
4756 Par ch=1 c=64 v=127
4996 On ch=1 n=d#5 v=0
5114 On ch=1 n=g5 v=0
5284 On ch=1 n=c6 v=66
5284 On ch=1 n=g#5 v=53
5932 On ch=1 n=g#5 v=0
5982 On ch=1 n=c6 v=0
5994 On ch=1 n=a#5 v=74
6012 On ch=1 n=g5 v=60
6566 On ch=1 n=d#4 v=0
6596 On ch=1 n=g5 v=0
6620 On ch=1 n=a#5 v=0
6786 On ch=1 n=a#5 v=75
6796 On ch=1 n=d#4 v=50
6802 On ch=1 n=g5 v=54
7186 Par ch=1 c=64 v=63
7350 Par ch=1 c=64 v=0
7718 Par ch=1 c=64 v=63
7730 Par ch=1 c=64 v=127
8122 On ch=1 n=g5 v=0
8212 On ch=1 n=a#5 v=0
8464 On ch=1 n=d#4 v=0
8468 On ch=1 n=g#5 v=70
8488 On ch=1 n=f5 v=61
8502 On ch=1 n=f4 v=43
8728 Par ch=1 c=64 v=63
8868 Par ch=1 c=64 v=127
9512 On ch=1 n=f5 v=0
9606 On ch=1 n=f4 v=0
9844 On ch=1 n=g#5 v=0
10110 On ch=1 n=g4 v=49
10116 On ch=1 n=g5 v=68
10126 On ch=1 n=d#5 v=50
10428 Par ch=1 c=64 v=63
10526 Par ch=1 c=64 v=127
10786 On ch=1 n=d#5 v=0
10880 On ch=1 n=g4 v=0
10884 On ch=1 n=g5 v=0
11714 On ch=1 n=e5 v=72
11742 On ch=1 n=c#5 v=51
11744 On ch=1 n=a#4 v=51
11964 Par ch=1 c=64 v=63
12062 Par ch=1 c=64 v=0
12124 Par ch=1 c=64 v=63
12186 Par ch=1 c=64 v=127
12700 On ch=1 n=c#5 v=0
12980 On ch=1 n=a#4 v=0
13120 On ch=1 n=e5 v=0
13404 On ch=1 n=f5 v=55
13430 On ch=1 n=g#4 v=59
13454 On ch=1 n=c5 v=49
13792 Par ch=1 c=64 v=63
13964 Par ch=1 c=64 v=127
14176 On ch=1 n=f5 v=0
14262 On ch=1 n=c5 v=0
14274 On ch=1 n=c6 v=65
14370 On ch=1 n=g#4 v=0
14462 On ch=1 n=c6 v=0
15002 On ch=1 n=a#5 v=70
15328 On ch=1 n=g#5 v=77
15330 On ch=1 n=a#5 v=0
15572 Par ch=1 c=64 v=63
15632 On ch=1 n=g5 v=76
15696 On ch=1 n=g#5 v=0
15728 Par ch=1 c=64 v=127
15956 On ch=1 n=f5 v=79
15978 On ch=1 n=g5 v=0
16306 On ch=1 n=f5 v=0
16306 On ch=1 n=d#5 v=80
16306 On ch=1 n=g4 v=48
16324 On ch=1 n=a3 v=37
16484 Par ch=1 c=64 v=63
16638 On ch=1 n=a#3 v=67
16658 Par ch=1 c=64 v=127
16746 On ch=1 n=a3 v=0
16998 On ch=1 n=c4 v=65
17034 On ch=1 n=a#3 v=0
17322 On ch=1 n=a#3 v=56
17488 On ch=1 n=c4 v=0
17550 On ch=1 n=g4 v=0
17564 On ch=1 n=a#3 v=0
17692 On ch=1 n=a#3 v=37
17724 On ch=1 n=d#5 v=0
17738 On ch=1 n=f4 v=40
17750 On ch=1 n=d5 v=64
17874 Par ch=1 c=64 v=63
18016 Par ch=1 c=64 v=127
18144 On ch=1 n=d5 v=0
18430 On ch=1 n=a#4 v=59
18604 On ch=1 n=a#4 v=0
18646 On ch=1 n=d5 v=51
18730 On ch=1 n=d5 v=0
18792 On ch=1 n=c5 v=60
18910 On ch=1 n=c5 v=0
18944 On ch=1 n=d#5 v=73
19066 On ch=1 n=d#5 v=0
19078 On ch=1 n=d5 v=69
19188 On ch=1 n=f5 v=70
19198 On ch=1 n=d5 v=0
19302 On ch=1 n=f4 v=0
19318 On ch=1 n=d#5 v=69
19330 On ch=1 n=a#3 v=0
19352 On ch=1 n=f5 v=0
19446 On ch=1 n=g5 v=68
19464 On ch=1 n=d#5 v=0
19540 Par ch=1 c=64 v=63
19542 On ch=1 n=g5 v=0
19564 On ch=1 n=f5 v=77
19632 Par ch=1 c=64 v=0
19704 On ch=1 n=g#5 v=81
19716 On ch=1 n=f5 v=0
19834 On ch=1 n=g5 v=71
19870 On ch=1 n=g#5 v=0
19958 On ch=1 n=a#5 v=86
20000 On ch=1 n=g5 v=0
20082 On ch=1 n=g#5 v=88
20124 Par ch=1 c=64 v=63
20136 Par ch=1 c=64 v=127
20150 On ch=1 n=a#5 v=0
20264 On ch=1 n=d#3 v=76
20350 On ch=1 n=d#4 v=73
20368 On ch=1 n=c6 v=96
20378 On ch=1 n=g5 v=80
20388 On ch=1 n=g#5 v=0
20510 Par ch=1 c=64 v=63
20538 Par ch=1 c=64 v=0
20746 Par ch=1 c=64 v=63
20760 Par ch=1 c=64 v=127
20826 On ch=1 n=a#5 v=92
20932 On ch=1 n=c6 v=0
21074 Par ch=1 c=64 v=63
21102 Par ch=1 c=64 v=0
21154 Par ch=1 c=64 v=63
21184 Par ch=1 c=64 v=127
21792 On ch=1 n=a#5 v=0
21842 On ch=1 n=c6 v=46
21964 On ch=1 n=a#5 v=69
21976 On ch=1 n=c6 v=0
21984 On ch=1 n=g5 v=0
22144 On ch=1 n=g#5 v=70
22206 On ch=1 n=a#5 v=0
22464 Par ch=1 c=64 v=63
22466 On ch=1 n=g5 v=75
22500 Par ch=1 c=64 v=127
22512 On ch=1 n=g#5 v=0
22684 On ch=1 n=d#3 v=0
22772 On ch=1 n=f5 v=90
22804 On ch=1 n=d#4 v=0
22806 On ch=1 n=g5 v=0
23072 On ch=1 n=f5 v=0
23088 On ch=1 n=d#5 v=94
23208 On ch=1 n=d#5 v=0
23400 On ch=1 n=d#4 v=47
23500 On ch=1 n=c5 v=50
23528 On ch=1 n=g6 v=82
23934 On ch=1 n=d6 v=80
23986 On ch=1 n=g6 v=0
24224 Par ch=1 c=64 v=63
24250 On ch=1 n=d#6 v=90
24264 Par ch=1 c=64 v=127
24330 On ch=1 n=d6 v=0
24546 On ch=1 n=c6 v=87
24568 On ch=1 n=c5 v=0
24576 On ch=1 n=d#6 v=0
24646 On ch=1 n=d#4 v=0
24880 On ch=1 n=a#5 v=82
24892 On ch=1 n=c5 v=63
24896 On ch=1 n=f4 v=59
24912 On ch=1 n=c6 v=0
25290 Par ch=1 c=64 v=63
25370 Par ch=1 c=64 v=0
25628 Par ch=1 c=64 v=63
25644 Par ch=1 c=64 v=127
25878 On ch=1 n=c5 v=0
25982 On ch=1 n=a#5 v=0
26344 On ch=1 n=a#4 v=45
26346 On ch=1 n=d5 v=35
26362 On ch=1 n=g#5 v=68
26424 On ch=1 n=f4 v=0
26606 On ch=1 n=a#5 v=57
26616 On ch=1 n=g#5 v=0
26730 On ch=1 n=a#5 v=0
26746 On ch=1 n=g#5 v=61
26846 On ch=1 n=g#5 v=0
26854 On ch=1 n=a#5 v=61
26926 On ch=1 n=a#5 v=0
26952 On ch=1 n=g#5 v=69
27020 On ch=1 n=g#5 v=0
27038 On ch=1 n=a#5 v=70
27086 On ch=1 n=a#5 v=0
27094 On ch=1 n=g#5 v=67
27140 On ch=1 n=a#5 v=69
27148 On ch=1 n=g#5 v=0
27198 On ch=1 n=a#5 v=0
27202 On ch=1 n=g#5 v=72
27294 On ch=1 n=g#5 v=0
27308 On ch=1 n=a#5 v=71
27360 On ch=1 n=a#5 v=0
27368 On ch=1 n=g#5 v=73
27480 On ch=1 n=g#5 v=0
27484 On ch=1 n=g5 v=63
27590 On ch=1 n=g#5 v=56
27592 On ch=1 n=g5 v=0
27694 Par ch=1 c=64 v=63
27716 On ch=1 n=a#4 v=0
27742 On ch=1 n=g5 v=70
27778 Par ch=1 c=64 v=0
27792 On ch=1 n=d#5 v=48
27794 On ch=1 n=g#5 v=0
27820 On ch=1 n=c5 v=57
27878 On ch=1 n=d5 v=0
28010 Par ch=1 c=64 v=63
28034 Par ch=1 c=64 v=127
28062 On ch=1 n=g5 v=0
28266 On ch=1 n=d#6 v=79
28340 On ch=1 n=d#5 v=0
28348 On ch=1 n=d#6 v=0
28394 On ch=1 n=c5 v=0
28622 On ch=1 n=d6 v=63
28736 On ch=1 n=d6 v=0
28954 On ch=1 n=c#6 v=73
29164 On ch=1 n=c#6 v=0
29216 On ch=1 n=g#4 v=48
29234 On ch=1 n=g#3 v=42
29250 On ch=1 n=b5 v=58
29420 Par ch=1 c=64 v=63
29492 On ch=1 n=b5 v=0
29594 Par ch=1 c=64 v=127
29632 On ch=1 n=d6 v=64
29738 On ch=1 n=c6 v=59
29768 On ch=1 n=d6 v=0
29798 On ch=1 n=c6 v=0
29920 On ch=1 n=a#5 v=81
30046 On ch=1 n=g#5 v=67
30068 On ch=1 n=a#5 v=0
30142 On ch=1 n=g#5 v=0
30208 Par ch=1 c=64 v=63
30224 On ch=1 n=g5 v=69
30252 Par ch=1 c=64 v=127
30318 On ch=1 n=g#4 v=0
30348 On ch=1 n=f5 v=73
30372 On ch=1 n=g5 v=0
30432 On ch=1 n=f5 v=0
30496 On ch=1 n=g#3 v=0
30554 On ch=1 n=a#3 v=52
30556 On ch=1 n=d#5 v=70
30566 On ch=1 n=g4 v=42
30688 Par ch=1 c=64 v=63
30806 Par ch=1 c=64 v=0
30982 Par ch=1 c=64 v=63
31030 Par ch=1 c=64 v=127
31196 Par ch=1 c=64 v=63
31246 Par ch=1 c=64 v=0
31348 Par ch=1 c=64 v=63
31374 Par ch=1 c=64 v=127
31668 On ch=1 n=g4 v=0
32032 On ch=1 n=g#4 v=54
32108 Par ch=1 c=64 v=63
32260 Par ch=1 c=64 v=127
32406 On ch=1 n=d#5 v=0
32774 On ch=1 n=g5 v=59
32802 On ch=1 n=d5 v=50
32966 Par ch=1 c=64 v=63
33052 Par ch=1 c=64 v=127
33182 On ch=1 n=f5 v=62
33200 On ch=1 n=a#3 v=0
33218 On ch=1 n=g5 v=0
33606 On ch=1 n=g#4 v=0
33628 On ch=1 n=d#5 v=64
33654 On ch=1 n=d#4 v=49
33682 On ch=1 n=d5 v=0
33754 On ch=1 n=f5 v=0
33900 Par ch=1 c=64 v=63
34042 On ch=1 n=g4 v=37
34066 Par ch=1 c=64 v=127
34370 On ch=1 n=a#4 v=37
34440 On ch=1 n=g4 v=0
34586 On ch=1 n=d#5 v=0
34712 On ch=1 n=g4 v=23
34742 On ch=1 n=d#4 v=0
35030 On ch=1 n=a#4 v=0
35044 On ch=1 n=d#4 v=43
35146 On ch=1 n=g4 v=0
35390 On ch=1 n=g4 v=30
35700 On ch=1 n=a#4 v=40
35722 On ch=1 n=a#5 v=60
35730 On ch=1 n=g5 v=37
35754 On ch=1 n=g4 v=0
35814 On ch=1 n=d#4 v=0
35930 On ch=1 n=a#5 v=0
35944 On ch=1 n=g5 v=0
36014 On ch=1 n=a#4 v=0
36038 On ch=1 n=g4 v=31
36328 On ch=1 n=a#5 v=76
36346 On ch=1 n=g5 v=48
36350 On ch=1 n=d#4 v=54
36390 On ch=1 n=g4 v=0
36668 On ch=1 n=g4 v=52
36686 On ch=1 n=g5 v=0
36738 On ch=1 n=a#5 v=0
36954 On ch=1 n=d#4 v=0
36990 On ch=1 n=a#5 v=88
37000 On ch=1 n=a#4 v=46
37016 On ch=1 n=g5 v=57
37050 On ch=1 n=g4 v=0
37158 On ch=1 n=g5 v=0
37250 On ch=1 n=a#5 v=0
37328 On ch=1 n=a#4 v=0
37338 On ch=1 n=g4 v=55
37750 On ch=1 n=d#4 v=49
37764 On ch=1 n=g#5 v=71
37768 On ch=1 n=d#6 v=82
37816 On ch=1 n=g4 v=0
38002 Par ch=1 c=64 v=63
38082 Par ch=1 c=64 v=0
38102 Par ch=1 c=64 v=63
38156 Par ch=1 c=64 v=127
38168 On ch=1 n=f4 v=57
38564 On ch=1 n=d6 v=64
38568 On ch=1 n=g#4 v=43
38600 On ch=1 n=d#6 v=0
38668 Par ch=1 c=64 v=63
38672 On ch=1 n=f4 v=0
38850 Par ch=1 c=64 v=127
38926 On ch=1 n=f4 v=50
38980 On ch=1 n=d#4 v=0
39048 On ch=1 n=g#4 v=0
39226 On ch=1 n=d#4 v=63
39308 On ch=1 n=f4 v=0
39510 On ch=1 n=f4 v=75
39554 On ch=1 n=d6 v=0
39644 On ch=1 n=g#5 v=0
39842 On ch=1 n=g#4 v=44
39854 On ch=1 n=a#6 v=84
39942 On ch=1 n=f4 v=0
40094 On ch=1 n=d#4 v=0
40248 On ch=1 n=f4 v=45
40250 On ch=1 n=g#6 v=94
40296 On ch=1 n=g#4 v=0
40302 On ch=1 n=a#6 v=0
40484 On ch=1 n=g#6 v=0
40544 On ch=1 n=g6 v=85
40548 On ch=1 n=d#4 v=67
40646 On ch=1 n=f4 v=0
40712 Par ch=1 c=64 v=63
40796 Par ch=1 c=64 v=127
40870 On ch=1 n=f4 v=63
40872 On ch=1 n=f6 v=89
40890 On ch=1 n=g6 v=0
41110 On ch=1 n=f6 v=0
41184 On ch=1 n=d#6 v=99
41186 On ch=1 n=g#4 v=63
41262 On ch=1 n=f4 v=0
41442 On ch=1 n=d#4 v=0
41474 On ch=1 n=d6 v=93
41484 On ch=1 n=f4 v=61
41492 On ch=1 n=g#4 v=0
41546 On ch=1 n=d#6 v=0
41676 On ch=1 n=d6 v=0
41772 On ch=1 n=d#4 v=63
41786 On ch=1 n=f6 v=90
41828 Par ch=1 c=64 v=63
41894 On ch=1 n=f4 v=0
41904 Par ch=1 c=64 v=127
42054 On ch=1 n=f6 v=0
42092 On ch=1 n=d#6 v=82
42106 On ch=1 n=g4 v=34
42216 On ch=1 n=d#6 v=0
42302 On ch=1 n=f6 v=59
42378 On ch=1 n=f6 v=0
42412 On ch=1 n=d#6 v=74
42420 On ch=1 n=a#4 v=42
42458 On ch=1 n=g4 v=0
42474 On ch=1 n=d#6 v=0
42488 On ch=1 n=f6 v=73
42578 On ch=1 n=f6 v=0
42584 On ch=1 n=d#6 v=68
42628 On ch=1 n=a#4 v=0
42636 On ch=1 n=d#4 v=0
42638 On ch=1 n=g4 v=50
42648 On ch=1 n=d#6 v=0
42668 On ch=1 n=f6 v=61
42714 On ch=1 n=d#6 v=64
42728 On ch=1 n=f6 v=0
42792 On ch=1 n=d#6 v=0
42798 On ch=1 n=d6 v=74
42900 On ch=1 n=d6 v=0
42924 On ch=1 n=c6 v=59
43010 On ch=1 n=c6 v=0
43028 On ch=1 n=d#4 v=57
43036 On ch=1 n=a#5 v=77
43074 On ch=1 n=g4 v=0
43106 Par ch=1 c=64 v=63
43162 Par ch=1 c=64 v=0
43268 Par ch=1 c=64 v=63
43306 Par ch=1 c=64 v=127
43366 On ch=1 n=g4 v=47
43436 On ch=1 n=a#5 v=0
43694 On ch=1 n=a#5 v=85
43698 On ch=1 n=a#4 v=54
43708 On ch=1 n=g5 v=58
43736 Par ch=1 c=64 v=63
43750 On ch=1 n=g4 v=0
43806 Par ch=1 c=64 v=0
43840 Par ch=1 c=64 v=63
43898 Par ch=1 c=64 v=127
44002 On ch=1 n=g4 v=49
44008 On ch=1 n=a#4 v=0
44044 On ch=1 n=g5 v=0
44068 On ch=1 n=a#5 v=0
44124 On ch=1 n=d#4 v=0
44300 On ch=1 n=a#5 v=92
44322 On ch=1 n=d#4 v=76
44322 On ch=1 n=g5 v=64
44376 On ch=1 n=g4 v=0
44568 On ch=1 n=g5 v=0
44644 On ch=1 n=g4 v=68
44664 On ch=1 n=a#5 v=0
44960 On ch=1 n=a#5 v=107
44974 On ch=1 n=g5 v=79
44986 On ch=1 n=a#4 v=70
45024 On ch=1 n=g4 v=0
45080 On ch=1 n=g5 v=0
45128 On ch=1 n=d#4 v=0
45140 On ch=1 n=a#4 v=0
45248 On ch=1 n=a#5 v=0
45310 On ch=1 n=g4 v=79
45736 On ch=1 n=d#6 v=94
45736 On ch=1 n=g#5 v=78
45746 On ch=1 n=d#4 v=73
45776 On ch=1 n=g4 v=0
45882 Par ch=1 c=64 v=63
45932 Par ch=1 c=64 v=0
46130 Par ch=1 c=64 v=63
46154 Par ch=1 c=64 v=127
46184 On ch=1 n=f4 v=55
46562 On ch=1 n=d6 v=70
46586 On ch=1 n=g#4 v=53
46606 On ch=1 n=d#6 v=0
46638 Par ch=1 c=64 v=63
46704 Par ch=1 c=64 v=0
46718 On ch=1 n=f4 v=0
46748 Par ch=1 c=64 v=63
46788 Par ch=1 c=64 v=127
46952 On ch=1 n=f4 v=51
46978 On ch=1 n=d#4 v=0
47022 On ch=1 n=g#4 v=0
47262 On ch=1 n=d#4 v=68
47352 On ch=1 n=f4 v=0
47468 On ch=1 n=d6 v=0
47520 On ch=1 n=g#5 v=0
47560 On ch=1 n=f4 v=76
47886 On ch=1 n=a#6 v=98
47906 On ch=1 n=g#4 v=53
47992 On ch=1 n=f4 v=0
48192 On ch=1 n=d#4 v=0
48204 On ch=1 n=g#6 v=95
48210 On ch=1 n=f4 v=63
48258 On ch=1 n=a#6 v=0
48272 On ch=1 n=g#4 v=0
48374 On ch=1 n=g#6 v=0
48508 On ch=1 n=g6 v=90
48512 On ch=1 n=d#4 v=76
48576 Par ch=1 c=64 v=63
48590 On ch=1 n=f4 v=0
48626 Par ch=1 c=64 v=0
48696 Par ch=1 c=64 v=63
48736 Par ch=1 c=64 v=127
48814 On ch=1 n=f6 v=90
48818 On ch=1 n=f4 v=58
48882 On ch=1 n=g6 v=0
48988 On ch=1 n=f6 v=0
49132 On ch=1 n=d#6 v=87
49154 On ch=1 n=g#4 v=50
49240 Par ch=1 c=64 v=63
49242 On ch=1 n=f4 v=0
49360 Par ch=1 c=64 v=127
49416 On ch=1 n=d#4 v=0
49444 On ch=1 n=d6 v=82
49460 On ch=1 n=f4 v=50
49516 On ch=1 n=g#4 v=0
49518 On ch=1 n=d#6 v=0
49684 On ch=1 n=d6 v=0
49814 On ch=1 n=g4 v=41
49816 On ch=1 n=d#6 v=72
49820 On ch=1 n=d#4 v=55
49858 Par ch=1 c=64 v=63
49942 On ch=1 n=f4 v=0
50018 Par ch=1 c=64 v=127
50194 On ch=1 n=d#6 v=0
50270 On ch=1 n=f6 v=73
50332 On ch=1 n=d#6 v=77
50356 On ch=1 n=f6 v=0
50414 On ch=1 n=d6 v=68
50416 On ch=1 n=d#6 v=0
50498 On ch=1 n=d#6 v=75
50546 On ch=1 n=d6 v=0
50592 Par ch=1 c=64 v=63
50676 Par ch=1 c=64 v=0
50680 On ch=1 n=f6 v=76
50722 On ch=1 n=d#6 v=0
50820 On ch=1 n=g6 v=68
50854 On ch=1 n=f6 v=0
50948 On ch=1 n=d#4 v=0
50964 On ch=1 n=d#6 v=85
50972 On ch=1 n=g4 v=0
50986 On ch=1 n=g6 v=0
51162 On ch=1 n=d#6 v=0
51184 On ch=1 n=a#5 v=70
51530 Par ch=1 c=64 v=63
51536 Par ch=1 c=64 v=127
51656 On ch=1 n=a#5 v=0
51976 On ch=1 n=a#5 v=77
51990 On ch=1 n=a#4 v=51
51994 On ch=1 n=g5 v=55
52022 On ch=1 n=g4 v=38
52122 Par ch=1 c=64 v=63
52240 Par ch=1 c=64 v=127
52658 On ch=1 n=g5 v=0
52694 On ch=1 n=g#5 v=83
52706 On ch=1 n=g#4 v=43
52716 On ch=1 n=g4 v=0
52726 On ch=1 n=c5 v=50
52728 On ch=1 n=f5 v=40
52730 On ch=1 n=a#5 v=0
52764 On ch=1 n=a#4 v=0
52816 Par ch=1 c=64 v=63
52872 Par ch=1 c=64 v=127
53128 On ch=1 n=f5 v=0
53134 On ch=1 n=c5 v=0
53168 On ch=1 n=g#4 v=0
53252 On ch=1 n=g#5 v=0
53464 On ch=1 n=g5 v=69
53478 On ch=1 n=d#5 v=56
53486 On ch=1 n=a4 v=35
53510 On ch=1 n=c5 v=23
53628 Par ch=1 c=64 v=63
53760 Par ch=1 c=64 v=127
53994 On ch=1 n=d#5 v=0
54070 On ch=1 n=c5 v=0
54116 On ch=1 n=g5 v=0
54264 On ch=1 n=a4 v=0
54368 On ch=1 n=a#5 v=69
54380 On ch=1 n=a#4 v=37
54388 On ch=1 n=d#5 v=47
54698 Par ch=1 c=64 v=63
54776 Par ch=1 c=64 v=0
55136 Par ch=1 c=64 v=63
55146 Par ch=1 c=64 v=127
55616 On ch=1 n=g5 v=43
55646 On ch=1 n=a#5 v=0
55932 On ch=1 n=d#5 v=0
56060 On ch=1 n=d5 v=33
56062 On ch=1 n=f5 v=38
56168 On ch=1 n=g5 v=0
56214 Par ch=1 c=64 v=63
56252 Par ch=1 c=64 v=0
56382 Par ch=1 c=64 v=63
56402 Par ch=1 c=64 v=127
56772 On ch=1 n=a#4 v=0
56934 On ch=1 n=a#4 v=58
57118 On ch=1 n=f5 v=0
57334 On ch=1 n=d5 v=0
57348 On ch=1 n=a#4 v=0
57714 On ch=1 n=f4 v=58
57962 On ch=1 n=f4 v=0
58502 On ch=1 n=d4 v=52
59000 On ch=1 n=d4 v=0
59188 On ch=1 n=f5 v=63
59446 On ch=1 n=a#3 v=45
59588 On ch=1 n=f6 v=84
59710 Par ch=1 c=64 v=63
59760 Par ch=1 c=64 v=0
59876 On ch=1 n=f5 v=0
60024 Par ch=1 c=64 v=63
60046 Par ch=1 c=64 v=127
60332 On ch=1 n=d4 v=61
61010 On ch=1 n=f4 v=62
61138 On ch=1 n=a#3 v=0
61172 On ch=1 n=d4 v=0
61574 On ch=1 n=f6 v=0
61732 On ch=1 n=d#6 v=88
61736 On ch=1 n=a#4 v=43
61750 On ch=1 n=f4 v=0
61892 On ch=1 n=d6 v=77
61902 On ch=1 n=d#6 v=0
62016 On ch=1 n=d6 v=0
62026 On ch=1 n=c6 v=78
62160 On ch=1 n=a#5 v=74
62190 On ch=1 n=c6 v=0
62340 On ch=1 n=a5 v=82
62344 On ch=1 n=d#5 v=79
62368 On ch=1 n=a#5 v=0
62392 On ch=1 n=a#4 v=0
62466 Par ch=1 c=64 v=63
62502 Par ch=1 c=64 v=0
62650 Par ch=1 c=64 v=63
62670 Par ch=1 c=64 v=127
62936 On ch=1 n=a5 v=0
62992 On ch=1 n=a#5 v=84
63008 On ch=1 n=d5 v=65
63044 On ch=1 n=d#5 v=0
63148 Par ch=1 c=64 v=63
63254 Par ch=1 c=64 v=127
63486 On ch=1 n=a#5 v=0
63528 On ch=1 n=d5 v=0
63682 On ch=1 n=c6 v=77
63692 On ch=1 n=a5 v=44
63698 On ch=1 n=d#5 v=29
63706 On ch=1 n=c5 v=66
63806 Par ch=1 c=64 v=63
63918 Par ch=1 c=64 v=127
64044 On ch=1 n=a5 v=0
64054 On ch=1 n=c6 v=0
64116 On ch=1 n=d#5 v=0
64124 On ch=1 n=c5 v=0
64376 On ch=1 n=a#4 v=56
64380 On ch=1 n=d5 v=57
64380 On ch=1 n=d#6 v=75
64390 On ch=1 n=a#5 v=51
64470 Par ch=1 c=64 v=63
64542 On ch=1 n=d6 v=70
64556 On ch=1 n=d#6 v=0
64602 Par ch=1 c=64 v=127
64702 On ch=1 n=c6 v=70
64708 On ch=1 n=d6 v=0
64818 On ch=1 n=d6 v=76
64868 On ch=1 n=c6 v=0
64910 On ch=1 n=a#4 v=0
64938 On ch=1 n=a#5 v=0
64940 On ch=1 n=d5 v=0
65034 On ch=1 n=d6 v=0
65034 On ch=1 n=c6 v=61
65036 On ch=1 n=d#6 v=79
65040 On ch=1 n=c5 v=38
65062 On ch=1 n=a4 v=21
65092 Par ch=1 c=64 v=63
65124 Par ch=1 c=64 v=0
65514 Par ch=1 c=64 v=63
65524 Par ch=1 c=64 v=127
65708 On ch=1 n=c5 v=0
65764 On ch=1 n=c6 v=0
65784 On ch=1 n=f5 v=40
65800 On ch=1 n=d#6 v=0
65872 On ch=1 n=a4 v=0
66082 On ch=1 n=f5 v=0
66512 On ch=1 n=f5 v=41
66570 Par ch=1 c=64 v=63
66612 Par ch=1 c=64 v=0
66722 Par ch=1 c=64 v=63
66748 Par ch=1 c=64 v=127
66940 On ch=1 n=f5 v=0
67228 On ch=1 n=f5 v=26
68088 On ch=1 n=d#6 v=70
68466 On ch=1 n=f5 v=0
68918 On ch=1 n=f4 v=47
68988 Par ch=1 c=64 v=63
69026 Par ch=1 c=64 v=0
69152 Par ch=1 c=64 v=63
69176 Par ch=1 c=64 v=127
69584 On ch=1 n=a4 v=57
69706 On ch=1 n=f4 v=0
69972 On ch=1 n=d#6 v=0
70282 On ch=1 n=f6 v=78
70288 On ch=1 n=c5 v=55
70324 On ch=1 n=a4 v=0
70420 On ch=1 n=d#6 v=86
70464 On ch=1 n=f6 v=0
70574 On ch=1 n=d6 v=75
70592 On ch=1 n=d#6 v=0
70690 On ch=1 n=d6 v=0
70692 On ch=1 n=c6 v=77
70860 On ch=1 n=a#5 v=91
70862 On ch=1 n=d5 v=63
70864 On ch=1 n=c6 v=0
70888 Par ch=1 c=64 v=63
70894 On ch=1 n=c5 v=0
70922 Par ch=1 c=64 v=0
71046 Par ch=1 c=64 v=63
71066 Par ch=1 c=64 v=127
71234 On ch=1 n=d5 v=0
71264 On ch=1 n=a#5 v=0
71524 On ch=1 n=c6 v=94
71542 On ch=1 n=d#5 v=70
71542 On ch=1 n=a5 v=58
71544 On ch=1 n=f5 v=63
71596 Par ch=1 c=64 v=63
71634 Par ch=1 c=64 v=0
71726 Par ch=1 c=64 v=63
71752 Par ch=1 c=64 v=127
71994 On ch=1 n=c6 v=0
72012 On ch=1 n=f5 v=0
72014 On ch=1 n=d#5 v=0
72080 On ch=1 n=a5 v=0
72184 On ch=1 n=d6 v=90
72188 On ch=1 n=d5 v=60
72188 On ch=1 n=a#5 v=79
72196 On ch=1 n=f5 v=41
72344 Par ch=1 c=64 v=63
72388 Par ch=1 c=64 v=0
72442 Par ch=1 c=64 v=63
72474 Par ch=1 c=64 v=127
72612 On ch=1 n=a#5 v=0
72622 On ch=1 n=d6 v=0
72910 On ch=1 n=d5 v=0
72926 On ch=1 n=c5 v=55
72928 On ch=1 n=f6 v=83
72932 On ch=1 n=d#5 v=68
72940 On ch=1 n=c6 v=64
73032 Par ch=1 c=64 v=63
73044 On ch=1 n=f5 v=0
73072 On ch=1 n=d#6 v=91
73078 Par ch=1 c=64 v=0
73100 On ch=1 n=f6 v=0
73176 Par ch=1 c=64 v=63
73204 Par ch=1 c=64 v=127
73252 On ch=1 n=d6 v=89
73270 On ch=1 n=d#6 v=0
73374 On ch=1 n=d#6 v=85
73414 On ch=1 n=d6 v=0
73440 On ch=1 n=d#5 v=0
73572 On ch=1 n=c6 v=0
73580 On ch=1 n=c5 v=0
73594 On ch=1 n=d#6 v=0
73612 On ch=1 n=a#4 v=48
73626 On ch=1 n=d6 v=59
73632 On ch=1 n=d5 v=45
73636 On ch=1 n=f6 v=78
73710 Par ch=1 c=64 v=63
73736 Par ch=1 c=64 v=0
73842 Par ch=1 c=64 v=63
73862 Par ch=1 c=64 v=127
74060 On ch=1 n=d5 v=0
74140 On ch=1 n=a#4 v=0
74354 On ch=1 n=d6 v=0
74454 On ch=1 n=a#3 v=65
74504 On ch=1 n=f6 v=0
74924 On ch=1 n=a#3 v=0
75154 On ch=1 n=a#3 v=46
75422 On ch=1 n=a#3 v=0
75874 On ch=1 n=a#3 v=34
76728 On ch=1 n=a#3 v=0
76796 On ch=1 n=g#6 v=78
76812 Par ch=1 c=64 v=63
76842 Par ch=1 c=64 v=0
77632 On ch=1 n=d4 v=43
77702 Par ch=1 c=64 v=63
77704 Par ch=1 c=64 v=127
78350 On ch=1 n=f4 v=59
78610 On ch=1 n=g#6 v=0
78714 On ch=1 n=d4 v=0
78954 On ch=1 n=f4 v=0
78984 On ch=1 n=g6 v=71
78986 On ch=1 n=g#4 v=61
79114 On ch=1 n=f6 v=84
79150 On ch=1 n=g6 v=0
79270 On ch=1 n=d#6 v=91
79290 On ch=1 n=f6 v=0
79416 On ch=1 n=d6 v=84
79418 On ch=1 n=d#6 v=0
79492 Par ch=1 c=64 v=63
79548 Par ch=1 c=64 v=0
79562 On ch=1 n=g4 v=51
79588 On ch=1 n=g#4 v=0
79588 On ch=1 n=d#6 v=97
79632 On ch=1 n=d6 v=0
79700 Par ch=1 c=64 v=63
79718 Par ch=1 c=64 v=127
79950 On ch=1 n=d#6 v=0
80040 On ch=1 n=g4 v=0
80166 Par ch=1 c=64 v=63
80260 Par ch=1 c=64 v=0
80284 Par ch=1 c=64 v=63
80334 On ch=1 n=f6 v=82
80338 On ch=1 n=d4 v=73
80350 Par ch=1 c=64 v=127
80794 On ch=1 n=f6 v=0
80814 On ch=1 n=d4 v=0
80968 Par ch=1 c=64 v=63
81128 Par ch=1 c=64 v=0
81166 On ch=1 n=f#6 v=83
81896 On ch=1 n=a#4 v=57
81916 On ch=1 n=d#4 v=55
82002 Par ch=1 c=64 v=63
82016 Par ch=1 c=64 v=127
82520 On ch=1 n=d#4 v=0
82548 On ch=1 n=a#4 v=0
82678 On ch=1 n=a#4 v=62
82736 On ch=1 n=d#4 v=51
83300 On ch=1 n=d#4 v=0
83388 On ch=1 n=a#4 v=0
83402 On ch=1 n=g#6 v=89
83424 On ch=1 n=b4 v=71
83436 On ch=1 n=d#4 v=43
83456 On ch=1 n=f#6 v=0
83856 On ch=1 n=g6 v=96
83894 On ch=1 n=g#6 v=0
84056 On ch=1 n=d#4 v=0
84212 On ch=1 n=f6 v=97
84228 On ch=1 n=c5 v=84
84252 On ch=1 n=d#4 v=43
84272 On ch=1 n=g6 v=0
84306 On ch=1 n=b4 v=0
84410 Par ch=1 c=64 v=63
84526 Par ch=1 c=64 v=127
84560 On ch=1 n=d#6 v=100
84670 On ch=1 n=f6 v=0
84690 On ch=1 n=d#4 v=0
84862 On ch=1 n=d6 v=86
84870 On ch=1 n=a4 v=76
84886 On ch=1 n=d#4 v=63
84908 On ch=1 n=c5 v=0
84916 On ch=1 n=d#6 v=0
84986 Par ch=1 c=64 v=63
85056 Par ch=1 c=64 v=127
85164 On ch=1 n=c6 v=94
85228 On ch=1 n=d6 v=0
85274 On ch=1 n=d#4 v=0
85450 On ch=1 n=d4 v=50
85452 On ch=1 n=c6 v=0
85510 On ch=1 n=a#4 v=63
85514 On ch=1 n=f6 v=82
85592 On ch=1 n=a4 v=0
85652 Par ch=1 c=64 v=63
85740 On ch=1 n=e6 v=90
85744 Par ch=1 c=64 v=127
85782 On ch=1 n=f6 v=0
85934 On ch=1 n=f6 v=101
86000 On ch=1 n=a#4 v=0
86010 On ch=1 n=e6 v=0
86154 On ch=1 n=g6 v=89
86158 On ch=1 n=d#4 v=75
86166 On ch=1 n=a#4 v=58
86188 On ch=1 n=d4 v=0
86190 On ch=1 n=f6 v=0
86270 Par ch=1 c=64 v=63
86310 Par ch=1 c=64 v=127
86380 On ch=1 n=g6 v=0
86394 On ch=1 n=g5 v=79
86632 On ch=1 n=d#6 v=74
86782 On ch=1 n=d#4 v=0
86912 On ch=1 n=g5 v=0
86930 On ch=1 n=a#5 v=76
86956 On ch=1 n=a#4 v=0
86958 On ch=1 n=d5 v=49
86976 On ch=1 n=d#6 v=0
86978 On ch=1 n=f4 v=47
87108 Par ch=1 c=64 v=63
87150 Par ch=1 c=64 v=0
87210 Par ch=1 c=64 v=63
87250 Par ch=1 c=64 v=127
87506 On ch=1 n=f4 v=0
87516 On ch=1 n=d5 v=0
87658 On ch=1 n=d5 v=66
87678 On ch=1 n=f4 v=47
88082 On ch=1 n=f4 v=0
88086 On ch=1 n=d5 v=0
88232 On ch=1 n=a#5 v=0
88390 On ch=1 n=d#5 v=61
88402 On ch=1 n=d6 v=78
88412 On ch=1 n=a5 v=51
88422 On ch=1 n=f4 v=41
88534 Par ch=1 c=64 v=63
88652 Par ch=1 c=64 v=127
88762 On ch=1 n=c6 v=88
88826 On ch=1 n=d6 v=0
88948 On ch=1 n=f4 v=0
88990 On ch=1 n=d#5 v=0
89092 On ch=1 n=a#5 v=90
89098 On ch=1 n=d#5 v=57
89116 On ch=1 n=a5 v=0
89150 On ch=1 n=f4 v=46
89186 On ch=1 n=c6 v=0
89248 Par ch=1 c=64 v=63
89262 Par ch=1 c=64 v=127
89456 On ch=1 n=c6 v=84
89554 On ch=1 n=f4 v=0
89566 On ch=1 n=a#5 v=0
89888 On ch=1 n=a#5 v=76
89904 On ch=1 n=a#4 v=52
89914 On ch=1 n=d5 v=54
89996 On ch=1 n=c6 v=0
90076 On ch=1 n=d#5 v=0
90082 Par ch=1 c=64 v=63
90194 Par ch=1 c=64 v=127
90268 On ch=1 n=a#4 v=0
90374 On ch=1 n=a#4 v=52
90456 On ch=1 n=d5 v=0
90764 On ch=1 n=d5 v=73
90798 On ch=1 n=a#5 v=0
91060 On ch=1 n=f5 v=84
91148 On ch=1 n=d5 v=0
91208 On ch=1 n=a#4 v=0
91370 On ch=1 n=d#5 v=97
91442 Par ch=1 c=64 v=63
91450 On ch=1 n=f5 v=0
91498 Par ch=1 c=64 v=0
91514 Par ch=1 c=64 v=63
91564 Par ch=1 c=64 v=127
91698 On ch=1 n=f5 v=91
91810 On ch=1 n=d#5 v=0
92004 On ch=1 n=f6 v=101
92006 On ch=1 n=d5 v=70
92016 On ch=1 n=a#5 v=77
92018 On ch=1 n=f5 v=0
92086 Par ch=1 c=64 v=63
92184 Par ch=1 c=64 v=127
92344 On ch=1 n=f5 v=84
92432 On ch=1 n=d5 v=0
92444 On ch=1 n=a#5 v=0
92520 On ch=1 n=f6 v=0
92624 On ch=1 n=f6 v=101
92640 On ch=1 n=c5 v=77
92642 On ch=1 n=c6 v=81
92666 On ch=1 n=f5 v=0
92700 Par ch=1 c=64 v=63
92810 Par ch=1 c=64 v=127
92944 On ch=1 n=f5 v=88
93090 On ch=1 n=f6 v=0
93104 On ch=1 n=c6 v=0
93220 On ch=1 n=a#4 v=90
93224 On ch=1 n=f6 v=101
93238 On ch=1 n=d6 v=91
93278 On ch=1 n=c5 v=0
93286 On ch=1 n=f5 v=0
93540 On ch=1 n=d6 v=0
93570 On ch=1 n=f6 v=0
93570 On ch=1 n=f5 v=79
93828 On ch=1 n=a#4 v=0
93938 On ch=1 n=f6 v=99
93944 On ch=1 n=a4 v=72
93948 On ch=1 n=d#6 v=90
93978 On ch=1 n=f5 v=0
94166 Par ch=1 c=64 v=63
94244 Par ch=1 c=64 v=0
94326 Par ch=1 c=64 v=63
94352 Par ch=1 c=64 v=127
94360 On ch=1 n=c5 v=76
94720 On ch=1 n=d#5 v=83
94764 On ch=1 n=c5 v=0
94832 On ch=1 n=d#6 v=0
94890 On ch=1 n=f6 v=0
94932 On ch=1 n=g6 v=77
95002 On ch=1 n=d5 v=70
95040 On ch=1 n=d#5 v=0
95070 On ch=1 n=a4 v=0
95072 On ch=1 n=f6 v=87
95120 On ch=1 n=g6 v=0
95216 On ch=1 n=e6 v=97
95274 On ch=1 n=f6 v=0
95370 On ch=1 n=f6 v=97
95386 On ch=1 n=c5 v=80
95402 On ch=1 n=e6 v=0
95436 On ch=1 n=d5 v=0
95674 On ch=1 n=a#4 v=83
95698 On ch=1 n=f6 v=0
95732 On ch=1 n=c5 v=0
95974 On ch=1 n=f6 v=106
95980 On ch=1 n=a4 v=69
95994 On ch=1 n=a5 v=76
96040 On ch=1 n=a#4 v=0
96278 On ch=1 n=g4 v=91
96302 On ch=1 n=a5 v=0
96334 On ch=1 n=a4 v=0
96454 On ch=1 n=f6 v=0
96556 On ch=1 n=g6 v=107
96560 On ch=1 n=f4 v=91
96566 On ch=1 n=a#5 v=88
96578 Par ch=1 c=64 v=63
96612 On ch=1 n=g4 v=0
96652 Par ch=1 c=64 v=127
96846 On ch=1 n=a#5 v=0
96866 On ch=1 n=g4 v=97
96876 On ch=1 n=g6 v=0
96884 On ch=1 n=f4 v=0
97158 On ch=1 n=a6 v=112
97162 On ch=1 n=d#4 v=89
97166 On ch=1 n=c6 v=93
97180 Par ch=1 c=64 v=63
97200 On ch=1 n=g4 v=0
97324 Par ch=1 c=64 v=127
97456 On ch=1 n=f4 v=96
97516 On ch=1 n=a6 v=0
97518 On ch=1 n=c6 v=0
97528 On ch=1 n=d#4 v=0
97770 On ch=1 n=d4 v=93
97786 On ch=1 n=a#6 v=104
97798 On ch=1 n=a#5 v=88
97802 On ch=1 n=f4 v=0
97888 Par ch=1 c=64 v=63
97918 Par ch=1 c=64 v=0
98056 Par ch=1 c=64 v=63
98074 Par ch=1 c=64 v=127
98144 On ch=1 n=f4 v=84
98168 On ch=1 n=a#5 v=0
98356 On ch=1 n=d4 v=0
98488 On ch=1 n=a#4 v=88
98530 On ch=1 n=f4 v=0
98604 On ch=1 n=c7 v=75
98620 On ch=1 n=a#6 v=0
98754 On ch=1 n=d7 v=88
98772 On ch=1 n=f4 v=69
98780 On ch=1 n=a#4 v=0
98800 On ch=1 n=c7 v=0
98872 On ch=1 n=a#6 v=89
98882 On ch=1 n=f4 v=0
98934 On ch=1 n=d7 v=0
99078 On ch=1 n=f6 v=84
99092 On ch=1 n=d5 v=64
99096 On ch=1 n=a#6 v=0
99296 Par ch=1 c=64 v=63
99334 Par ch=1 c=64 v=0
99556 On ch=1 n=f6 v=0
99574 On ch=1 n=d5 v=0
99870 On ch=1 n=a#4 v=63
99878 On ch=1 n=f6 v=76
99880 On ch=1 n=d5 v=59
99916 On ch=1 n=d6 v=54
99970 Par ch=1 c=64 v=63
99984 Par ch=1 c=64 v=127
100222 On ch=1 n=a#4 v=0
100260 On ch=1 n=f6 v=0
100272 On ch=1 n=d5 v=0
100308 On ch=1 n=d6 v=0
100638 On ch=1 n=d#6 v=70
100652 On ch=1 n=d#5 v=59
100660 On ch=1 n=c6 v=65
100668 On ch=1 n=c5 v=45
100790 Par ch=1 c=64 v=63
100838 Par ch=1 c=64 v=127
101038 On ch=1 n=c5 v=0
101048 On ch=1 n=d#6 v=0
101062 On ch=1 n=d#5 v=0
101100 On ch=1 n=c6 v=0
101328 On ch=1 n=a#5 v=41
101340 On ch=1 n=d6 v=60
101340 On ch=1 n=d5 v=49
101344 On ch=1 n=f5 v=36
101456 Par ch=1 c=64 v=63
101594 Par ch=1 c=64 v=127
101794 On ch=1 n=f5 v=0
101840 On ch=1 n=a#5 v=0
101854 On ch=1 n=d5 v=0
102056 On ch=1 n=d6 v=0
102170 On ch=1 n=d#5 v=49
102170 On ch=1 n=c6 v=59
102188 On ch=1 n=g5 v=35
102350 Par ch=1 c=64 v=63
102414 Par ch=1 c=64 v=0
102488 Par ch=1 c=64 v=63
102548 Par ch=1 c=64 v=127
103224 On ch=1 n=d6 v=48
103228 On ch=1 n=c6 v=0
103394 On ch=1 n=d#6 v=70
103410 On ch=1 n=d6 v=0
103514 Par ch=1 c=64 v=63
103544 On ch=1 n=c6 v=56
103580 On ch=1 n=d#6 v=0
103620 Par ch=1 c=64 v=0
103750 On ch=1 n=g6 v=58
103758 On ch=1 n=c6 v=0
103894 On ch=1 n=g5 v=0
103926 Par ch=1 c=64 v=63
103948 Par ch=1 c=64 v=127
104020 On ch=1 n=g6 v=0
104030 On ch=1 n=d#5 v=0
104608 On ch=1 n=d#6 v=73
104610 Par ch=1 c=64 v=63
104622 On ch=1 n=g5 v=39
104628 On ch=1 n=d#4 v=44
104640 On ch=1 n=c5 v=31
104784 Par ch=1 c=64 v=127
104960 On ch=1 n=d#4 v=0
104976 On ch=1 n=c5 v=0
104980 On ch=1 n=g5 v=0
104988 On ch=1 n=d#6 v=0
105304 On ch=1 n=a#5 v=76
105330 On ch=1 n=d5 v=58
105332 On ch=1 n=f5 v=57
105348 Par ch=1 c=64 v=63
105362 On ch=1 n=f4 v=17
105528 Par ch=1 c=64 v=127
105806 On ch=1 n=d5 v=0
105828 On ch=1 n=f5 v=0
105982 On ch=1 n=a#5 v=0
106092 On ch=1 n=d#5 v=58
106100 On ch=1 n=c6 v=68
106120 On ch=1 n=a5 v=39
106240 Par ch=1 c=64 v=63
106350 Par ch=1 c=64 v=127
106550 On ch=1 n=a5 v=0
106590 On ch=1 n=c6 v=0
106592 On ch=1 n=d#5 v=0
106604 On ch=1 n=f4 v=0
106960 On ch=1 n=c6 v=57
106962 On ch=1 n=d#5 v=33
106966 On ch=1 n=a5 v=25
106990 On ch=1 n=a#4 v=34
107272 Par ch=1 c=64 v=63
107462 Par ch=1 c=64 v=127
107804 On ch=1 n=c6 v=0
107990 On ch=1 n=d#5 v=0
108148 On ch=1 n=c#6 v=67
108310 On ch=1 n=c#6 v=0
108420 On ch=1 n=a5 v=0
108606 On ch=1 n=d6 v=47
108616 On ch=1 n=a#5 v=29
108624 On ch=1 n=d5 v=21
108674 Par ch=1 c=64 v=63
108814 Par ch=1 c=64 v=127
108904 On ch=1 n=a#4 v=0
109000 On ch=1 n=a#5 v=0
109016 On ch=1 n=d6 v=0
109106 On ch=1 n=a#4 v=63
109120 On ch=1 n=d5 v=0
109572 On ch=1 n=d5 v=65
109574 On ch=1 n=f6 v=92
109592 On ch=1 n=a#5 v=57
109670 Par ch=1 c=64 v=63
109786 Par ch=1 c=64 v=127
109926 On ch=1 n=f5 v=69
109950 On ch=1 n=d5 v=0
109966 On ch=1 n=a#5 v=0
109966 On ch=1 n=a#4 v=0
109978 On ch=1 n=f6 v=0
110222 On ch=1 n=f6 v=92
110232 On ch=1 n=d#5 v=85
110238 On ch=1 n=c6 v=84
110280 On ch=1 n=f5 v=0
110296 Par ch=1 c=64 v=63
110394 Par ch=1 c=64 v=127
110546 On ch=1 n=d5 v=90
110588 On ch=1 n=f6 v=0
110602 On ch=1 n=d#5 v=0
110636 On ch=1 n=c6 v=0
110832 On ch=1 n=f6 v=97
110842 On ch=1 n=d6 v=87
110844 On ch=1 n=c5 v=81
110864 Par ch=1 c=64 v=63
110920 On ch=1 n=d5 v=0
111016 Par ch=1 c=64 v=127
111136 On ch=1 n=a#4 v=79
111166 On ch=1 n=d6 v=0
111182 On ch=1 n=f6 v=0
111192 On ch=1 n=c5 v=0
111434 On ch=1 n=f6 v=97
111448 On ch=1 n=d#6 v=92
111456 On ch=1 n=a4 v=69
111508 On ch=1 n=a#4 v=0
111578 Par ch=1 c=64 v=63
111638 Par ch=1 c=64 v=0
111718 Par ch=1 c=64 v=63
111750 Par ch=1 c=64 v=127
111766 On ch=1 n=c5 v=86
112054 On ch=1 n=d#5 v=90
112146 On ch=1 n=d#6 v=0
112148 On ch=1 n=f6 v=0
112152 On ch=1 n=c5 v=0
112190 On ch=1 n=g6 v=76
112306 On ch=1 n=f6 v=93
112324 On ch=1 n=d#5 v=0
112340 On ch=1 n=d5 v=79
112374 On ch=1 n=g6 v=0
112446 On ch=1 n=a4 v=0
112446 On ch=1 n=e6 v=97
112502 On ch=1 n=f6 v=0
112600 On ch=1 n=f6 v=104
112638 On ch=1 n=c5 v=81
112652 Par ch=1 c=64 v=63
112662 On ch=1 n=e6 v=0
112712 On ch=1 n=d5 v=0
112758 Par ch=1 c=64 v=127
112906 On ch=1 n=a#4 v=79
112930 On ch=1 n=f6 v=0
112964 On ch=1 n=c5 v=0
113202 On ch=1 n=a4 v=74
113202 On ch=1 n=f6 v=108
113216 On ch=1 n=a5 v=85
113238 On ch=1 n=a#4 v=0
113308 Par ch=1 c=64 v=63
113388 Par ch=1 c=64 v=127
113502 On ch=1 n=g4 v=97
113516 On ch=1 n=a5 v=0
113588 On ch=1 n=a4 v=0
113718 On ch=1 n=f6 v=0
113798 On ch=1 n=g6 v=104
113798 On ch=1 n=f4 v=87
113806 On ch=1 n=a#5 v=90
113848 On ch=1 n=g4 v=0
114056 On ch=1 n=a#5 v=0
114108 On ch=1 n=g4 v=91
114138 On ch=1 n=f4 v=0
114396 On ch=1 n=g6 v=0
114420 On ch=1 n=d#4 v=103
114420 On ch=1 n=a6 v=101
114432 On ch=1 n=c6 v=91
114436 On ch=1 n=g4 v=0
114488 Par ch=1 c=64 v=63
114636 Par ch=1 c=64 v=127
114756 On ch=1 n=f4 v=96
114790 On ch=1 n=c6 v=0
114792 On ch=1 n=a6 v=0
114822 On ch=1 n=d#4 v=0
115114 On ch=1 n=d4 v=96
115130 On ch=1 n=a#6 v=107
115140 On ch=1 n=f4 v=0
115140 On ch=1 n=a#5 v=84
115268 Par ch=1 c=64 v=63
115390 Par ch=1 c=64 v=127
115432 On ch=1 n=a#5 v=0
115538 On ch=1 n=f4 v=74
115684 On ch=1 n=d4 v=0
115842 On ch=1 n=f4 v=0
115874 On ch=1 n=a#4 v=82
116002 On ch=1 n=a#6 v=0
116010 On ch=1 n=c7 v=80
116016 On ch=1 n=a#4 v=0
116174 On ch=1 n=d7 v=93
116188 On ch=1 n=f4 v=75
116228 On ch=1 n=c7 v=0
116314 On ch=1 n=a#6 v=93
116384 On ch=1 n=d7 v=0
116530 On ch=1 n=d5 v=81
116548 On ch=1 n=f6 v=80
116604 On ch=1 n=a#6 v=0
116750 Par ch=1 c=64 v=63
116866 Par ch=1 c=64 v=127
116996 On ch=1 n=f4 v=0
117066 On ch=1 n=f6 v=0
117142 On ch=1 n=d5 v=0
117490 On ch=1 n=a#4 v=49
117494 On ch=1 n=f6 v=83
117514 On ch=1 n=d5 v=42
117518 On ch=1 n=d6 v=71
117612 Par ch=1 c=64 v=63
117694 Par ch=1 c=64 v=0
117728 Par ch=1 c=64 v=63
117780 Par ch=1 c=64 v=127
117982 On ch=1 n=d6 v=0
118026 On ch=1 n=a#4 v=0
118050 On ch=1 n=f6 v=0
118086 On ch=1 n=d5 v=0
118196 On ch=1 n=d#6 v=80
118208 On ch=1 n=d#5 v=65
118224 On ch=1 n=c6 v=59
118232 On ch=1 n=c5 v=51
118354 Par ch=1 c=64 v=63
118454 Par ch=1 c=64 v=127
118764 On ch=1 n=c6 v=0
118772 On ch=1 n=c5 v=0
118794 On ch=1 n=d#6 v=0
118812 On ch=1 n=d#5 v=0
118922 On ch=1 n=d6 v=59
118930 On ch=1 n=d5 v=44
118930 On ch=1 n=a#5 v=45
118936 On ch=1 n=f5 v=33
119018 Par ch=1 c=64 v=63
119174 Par ch=1 c=64 v=127
119330 On ch=1 n=a#5 v=0
119356 On ch=1 n=d6 v=0
119432 On ch=1 n=f5 v=0
119536 On ch=1 n=d5 v=0
119872 On ch=1 n=d#5 v=35
119936 On ch=1 n=g5 v=20
119962 On ch=1 n=b5 v=46
120042 Par ch=1 c=64 v=63
120200 On ch=1 n=c6 v=57
120210 Par ch=1 c=64 v=127
120268 On ch=1 n=b5 v=0
120374 On ch=1 n=d6 v=70
120406 On ch=1 n=c6 v=0
120484 On ch=1 n=d6 v=0
120496 On ch=1 n=c6 v=60
120642 On ch=1 n=d#6 v=89
120664 On ch=1 n=c6 v=0
120738 Par ch=1 c=64 v=63
120774 On ch=1 n=d6 v=73
120806 On ch=1 n=d#6 v=0
120826 Par ch=1 c=64 v=0
120890 On ch=1 n=f6 v=84
120942 On ch=1 n=d6 v=0
121028 On ch=1 n=d#6 v=96
121096 On ch=1 n=f6 v=0
121238 On ch=1 n=g6 v=84
121302 On ch=1 n=g5 v=0
121356 On ch=1 n=d#6 v=0
121358 On ch=1 n=d#5 v=0
123228 On ch=1 n=f6 v=71
123246 On ch=1 n=a4 v=34
123250 On ch=1 n=d#5 v=40
123272 On ch=1 n=f4 v=20
123318 On ch=1 n=g6 v=0
123464 Par ch=1 c=64 v=63
123546 Par ch=1 c=64 v=127
124086 On ch=1 n=c5 v=33
124246 On ch=1 n=a4 v=0
124536 On ch=1 n=f4 v=0
124610 On ch=1 n=d#5 v=0
124634 On ch=1 n=c5 v=0
124656 On ch=1 n=f6 v=0
124700 On ch=1 n=a5 v=44
125074 On ch=1 n=a#4 v=29
125100 On ch=1 n=a#5 v=44
125194 On ch=1 n=a5 v=0
125346 Par ch=1 c=64 v=63
125428 Par ch=1 c=64 v=0
125520 On ch=1 n=d5 v=40
125540 Par ch=1 c=64 v=63
125578 Par ch=1 c=64 v=127
125850 On ch=1 n=f5 v=35
125896 On ch=1 n=d5 v=0
126034 On ch=1 n=a#5 v=0
126122 On ch=1 n=a#4 v=0
126158 On ch=1 n=d5 v=40
126192 On ch=1 n=f5 v=0
126452 On ch=1 n=a#4 v=46
126524 On ch=1 n=d5 v=0
126762 On ch=1 n=d5 v=50
127074 On ch=1 n=g#6 v=82
127086 On ch=1 n=f5 v=31
127112 On ch=1 n=d5 v=0
127224 Par ch=1 c=64 v=63
127332 Par ch=1 c=64 v=127
127396 On ch=1 n=d5 v=71
127520 On ch=1 n=f5 v=0
127532 On ch=1 n=a#4 v=0
127728 On ch=1 n=g6 v=81
127750 On ch=1 n=d#5 v=72
127788 On ch=1 n=d5 v=0
127808 Par ch=1 c=64 v=63
127840 On ch=1 n=g#6 v=0
127954 Par ch=1 c=64 v=127
128042 On ch=1 n=c5 v=70
128078 On ch=1 n=d#5 v=0
128328 On ch=1 n=a6 v=87
128340 On ch=1 n=f5 v=55
128378 Par ch=1 c=64 v=63
128398 On ch=1 n=g6 v=0
128414 Par ch=1 c=64 v=0
128470 On ch=1 n=c5 v=0
128620 On ch=1 n=d#5 v=76
128694 Par ch=1 c=64 v=63
128704 Par ch=1 c=64 v=127
128718 On ch=1 n=f5 v=0
128884 On ch=1 n=a6 v=0
128936 On ch=1 n=d#5 v=0
128968 On ch=1 n=c7 v=83
129000 On ch=1 n=d5 v=58
129170 Par ch=1 c=64 v=63
129288 Par ch=1 c=64 v=127
129376 On ch=1 n=f5 v=58
129478 On ch=1 n=d5 v=0
129724 On ch=1 n=a#6 v=73
129740 On ch=1 n=d5 v=51
129794 On ch=1 n=f5 v=0
129800 Par ch=1 c=64 v=63
129802 On ch=1 n=c7 v=0
129972 Par ch=1 c=64 v=127
130052 On ch=1 n=c5 v=62
130108 On ch=1 n=d5 v=0
130240 On ch=1 n=a#6 v=0
130352 On ch=1 n=a#4 v=65
130410 On ch=1 n=c5 v=0
130540 On ch=1 n=a#4 v=0
130646 On ch=1 n=g#4 v=58
130930 On ch=1 n=g#5 v=80
130976 On ch=1 n=f4 v=46
130982 On ch=1 n=g#4 v=0
131076 Par ch=1 c=64 v=63
131166 Par ch=1 c=64 v=0
131194 Par ch=1 c=64 v=63
131260 On ch=1 n=d4 v=60
131272 Par ch=1 c=64 v=127
131502 On ch=1 n=f4 v=0
131562 On ch=1 n=g5 v=64
131564 On ch=1 n=d#4 v=67
131582 On ch=1 n=d4 v=0
131608 Par ch=1 c=64 v=63
131668 Par ch=1 c=64 v=0
131722 On ch=1 n=g#5 v=0
131722 Par ch=1 c=64 v=63
131780 Par ch=1 c=64 v=127
131882 On ch=1 n=c4 v=68
131970 On ch=1 n=d#4 v=0
132136 On ch=1 n=g5 v=0
132218 On ch=1 n=f4 v=30
132218 On ch=1 n=d#5 v=45
132226 On ch=1 n=a5 v=59
132242 On ch=1 n=c4 v=0
132298 Par ch=1 c=64 v=63
132484 Par ch=1 c=64 v=127
132584 On ch=1 n=f3 v=60
132714 On ch=1 n=f4 v=0
132774 On ch=1 n=d#5 v=0
132818 On ch=1 n=a5 v=0
133006 On ch=1 n=a#3 v=56
133012 On ch=1 n=d#5 v=63
133030 On ch=1 n=c6 v=68
133100 On ch=1 n=f3 v=0
133230 Par ch=1 c=64 v=63
133322 Par ch=1 c=64 v=0
133464 Par ch=1 c=64 v=63
133498 Par ch=1 c=64 v=127
134044 On ch=1 n=d#5 v=0
134054 On ch=1 n=c6 v=0
134798 On ch=1 n=a#5 v=37
134808 On ch=1 n=d5 v=28
134962 Par ch=1 c=64 v=63
135102 Par ch=1 c=64 v=127
135168 On ch=1 n=a#5 v=0
135248 On ch=1 n=a#3 v=0
135258 On ch=1 n=d5 v=0
135690 On ch=1 n=f5 v=51
135692 On ch=1 n=g#4 v=51
135706 On ch=1 n=d5 v=30
135772 Par ch=1 c=64 v=63
135858 Par ch=1 c=64 v=0
135884 Par ch=1 c=64 v=63
135958 Par ch=1 c=64 v=127
136198 On ch=1 n=g#4 v=0
136330 On ch=1 n=d5 v=0
136354 On ch=1 n=f5 v=0
136416 On ch=1 n=g5 v=74
136422 On ch=1 n=d#5 v=65
136434 On ch=1 n=g4 v=55
136590 Par ch=1 c=64 v=63
136736 Par ch=1 c=64 v=127
137086 On ch=1 n=d#5 v=0
137160 On ch=1 n=g4 v=0
137184 On ch=1 n=g5 v=0
137204 On ch=1 n=g#5 v=75
137220 On ch=1 n=f5 v=49
137230 On ch=1 n=f4 v=50
137370 Par ch=1 c=64 v=63
137456 Par ch=1 c=64 v=0
137488 Par ch=1 c=64 v=63
137540 Par ch=1 c=64 v=127
137736 On ch=1 n=f5 v=0
137784 On ch=1 n=g#5 v=0
138284 On ch=1 n=a5 v=59
138290 On ch=1 n=f#5 v=44
138320 On ch=1 n=e4 v=51
138414 On ch=1 n=f4 v=0
138540 Par ch=1 c=64 v=63
138628 Par ch=1 c=64 v=0
139112 Par ch=1 c=64 v=63
139122 Par ch=1 c=64 v=127
139446 On ch=1 n=f#5 v=0
139834 On ch=1 n=a5 v=0
140130 On ch=1 n=a#5 v=56
140170 On ch=1 n=g5 v=27
140366 Par ch=1 c=64 v=63
140526 Par ch=1 c=64 v=127
140666 On ch=1 n=g5 v=0
140760 On ch=1 n=a#5 v=0
140948 On ch=1 n=a#5 v=37
140948 On ch=1 n=c#6 v=71
141106 Par ch=1 c=64 v=63
141164 Par ch=1 c=64 v=127
141652 On ch=1 n=e4 v=0
141652 On ch=1 n=g5 v=80
141668 On ch=1 n=c4 v=44
141684 On ch=1 n=a#5 v=0
141686 On ch=1 n=e5 v=48
141782 On ch=1 n=c#6 v=0
141832 Par ch=1 c=64 v=63
141940 Par ch=1 c=64 v=127
142352 On ch=1 n=g5 v=0
142358 On ch=1 n=g#5 v=63
142358 On ch=1 n=c6 v=83
142450 On ch=1 n=e5 v=0
142506 Par ch=1 c=64 v=63
142614 Par ch=1 c=64 v=127
143068 On ch=1 n=g#5 v=0
143102 On ch=1 n=c6 v=0
143104 On ch=1 n=a#5 v=72
143116 On ch=1 n=c#4 v=51
143120 On ch=1 n=g5 v=57
143230 On ch=1 n=c4 v=0
143346 Par ch=1 c=64 v=63
143414 Par ch=1 c=64 v=0
143838 Par ch=1 c=64 v=63
143854 Par ch=1 c=64 v=127
144510 On ch=1 n=g5 v=0
144686 On ch=1 n=a#5 v=0
144702 On ch=1 n=g#5 v=56
144742 On ch=1 n=f5 v=17
144892 Par ch=1 c=64 v=63
144986 Par ch=1 c=64 v=127
145162 On ch=1 n=f5 v=0
145168 On ch=1 n=c#4 v=0
145224 On ch=1 n=g#5 v=0
145672 On ch=1 n=f6 v=40
145738 Par ch=1 c=64 v=63
145802 Par ch=1 c=64 v=0
145916 Par ch=1 c=64 v=63
145946 Par ch=1 c=64 v=127
146306 On ch=1 n=f6 v=0
146406 On ch=1 n=g#4 v=50
146416 On ch=1 n=f6 v=57
146420 On ch=1 n=c5 v=46
146946 On ch=1 n=f6 v=0
147060 On ch=1 n=f6 v=68
147612 On ch=1 n=f6 v=0
147806 On ch=1 n=f#6 v=74
147848 On ch=1 n=a#4 v=52
147850 On ch=1 n=c#5 v=62
147966 On ch=1 n=c5 v=0
148024 On ch=1 n=g#4 v=0
148158 Par ch=1 c=64 v=63
148240 Par ch=1 c=64 v=0
148696 Par ch=1 c=64 v=63
148722 Par ch=1 c=64 v=127
149190 On ch=1 n=f#6 v=0
149332 On ch=1 n=g6 v=48
149582 Par ch=1 c=64 v=63
149632 Par ch=1 c=64 v=0
149740 Par ch=1 c=64 v=63
149768 Par ch=1 c=64 v=127
149832 On ch=1 n=g6 v=0
149924 On ch=1 n=a#4 v=0
149936 On ch=1 n=c#5 v=0
150050 On ch=1 n=a#6 v=78
150390 Par ch=1 c=64 v=63
150446 Par ch=1 c=64 v=127
150672 On ch=1 n=a#5 v=69
150686 On ch=1 n=c5 v=51
150760 Par ch=1 c=64 v=63
150852 Par ch=1 c=64 v=0
150968 Par ch=1 c=64 v=63
151008 Par ch=1 c=64 v=127
151310 On ch=1 n=e6 v=86
151376 On ch=1 n=c5 v=0
151428 On ch=1 n=a#6 v=0
151604 On ch=1 n=a#5 v=0
152062 On ch=1 n=g6 v=69
152088 On ch=1 n=a#5 v=47
152106 On ch=1 n=e6 v=0
152106 On ch=1 n=f5 v=51
152382 Par ch=1 c=64 v=63
152436 Par ch=1 c=64 v=0
152572 Par ch=1 c=64 v=63
152604 Par ch=1 c=64 v=127
153166 On ch=1 n=a#5 v=0
153458 On ch=1 n=g6 v=0
153674 On ch=1 n=g#5 v=44
153700 On ch=1 n=f6 v=52
153804 Par ch=1 c=64 v=63
153900 Par ch=1 c=64 v=127
154032 On ch=1 n=f5 v=0
154046 On ch=1 n=g#5 v=0
154558 On ch=1 n=f3 v=27
154766 On ch=1 n=f3 v=0
155290 On ch=1 n=f3 v=30
155370 On ch=1 n=f6 v=0
155730 On ch=1 n=f3 v=0
156000 On ch=1 n=f3 v=37
156750 On ch=1 n=f3 v=0
156902 On ch=1 n=f3 v=47
157024 Par ch=1 c=64 v=63
157096 Par ch=1 c=64 v=0
157872 Par ch=1 c=64 v=63
157884 On ch=1 n=g#6 v=53
157904 Par ch=1 c=64 v=127
158438 On ch=1 n=g#6 v=0
158684 On ch=1 n=g6 v=48
159082 On ch=1 n=f6 v=67
159106 On ch=1 n=g6 v=0
159402 On ch=1 n=d#6 v=81
159416 On ch=1 n=f6 v=0
159710 On ch=1 n=c#6 v=80
159784 On ch=1 n=d#6 v=0
160004 On ch=1 n=c6 v=82
160080 Par ch=1 c=64 v=63
160082 On ch=1 n=c#6 v=0
160208 Par ch=1 c=64 v=0
160278 On ch=1 n=c#6 v=92
160316 Par ch=1 c=64 v=63
160362 Par ch=1 c=64 v=127
160370 On ch=1 n=c6 v=0
160556 On ch=1 n=f6 v=81
160564 On ch=1 n=c#6 v=0
160864 On ch=1 n=f6 v=0
160866 On ch=1 n=c#6 v=80
160934 On ch=1 n=c#6 v=0
161010 On ch=1 n=f3 v=0
161254 On ch=1 n=g#5 v=68
161258 On ch=1 n=c6 v=79
161270 On ch=1 n=f3 v=59
161272 On ch=1 n=d5 v=50
161578 Par ch=1 c=64 v=63
161690 Par ch=1 c=64 v=0
162176 Par ch=1 c=64 v=63
162190 Par ch=1 c=64 v=127
162734 On ch=1 n=b5 v=43
162768 On ch=1 n=c6 v=0
163232 On ch=1 n=f3 v=0
163394 On ch=1 n=f3 v=53
163912 On ch=1 n=f3 v=0
164034 On ch=1 n=f3 v=65
164596 On ch=1 n=f3 v=0
164692 On ch=1 n=f3 v=81
165496 On ch=1 n=f#3 v=87
165636 Par ch=1 c=64 v=63
165638 On ch=1 n=f3 v=0
165710 Par ch=1 c=64 v=0
165740 On ch=1 n=d5 v=0
165744 On ch=1 n=b5 v=0
165890 Par ch=1 c=64 v=63
165914 Par ch=1 c=64 v=127
165918 On ch=1 n=g#5 v=0
166412 On ch=1 n=c6 v=68
166430 On ch=1 n=d#5 v=42
166500 Par ch=1 c=64 v=63
166658 Par ch=1 c=64 v=127
167166 On ch=1 n=b5 v=71
167228 On ch=1 n=c6 v=0
167474 On ch=1 n=c6 v=83
167564 On ch=1 n=d#5 v=0
167588 On ch=1 n=b5 v=0
167750 On ch=1 n=d6 v=89
167754 On ch=1 n=d#5 v=79
167774 On ch=1 n=c6 v=0
167872 Par ch=1 c=64 v=63
168042 On ch=1 n=c6 v=90
168046 Par ch=1 c=64 v=127
168090 On ch=1 n=d6 v=0
168352 On ch=1 n=b5 v=91
168378 Par ch=1 c=64 v=63
168424 On ch=1 n=c6 v=0
168430 Par ch=1 c=64 v=127
168628 On ch=1 n=c6 v=99
168714 On ch=1 n=d#5 v=0
168974 On ch=1 n=d#6 v=94
168978 On ch=1 n=d#5 v=64
169012 Par ch=1 c=64 v=63
169046 On ch=1 n=b5 v=0
169076 Par ch=1 c=64 v=127
169160 On ch=1 n=c6 v=0
169256 On ch=1 n=d#6 v=0
169268 On ch=1 n=d6 v=88
169670 On ch=1 n=b5 v=77
169672 On ch=1 n=g3 v=65
169734 On ch=1 n=d6 v=0
169758 On ch=1 n=f#3 v=0
169868 Par ch=1 c=64 v=63
169950 Par ch=1 c=64 v=0
170498 Par ch=1 c=64 v=63
170508 Par ch=1 c=64 v=127
170890 On ch=1 n=d#5 v=0
171198 On ch=1 n=c6 v=59
171208 On ch=1 n=d#5 v=34
171262 On ch=1 n=b5 v=0
171674 On ch=1 n=g3 v=0
171866 On ch=1 n=g3 v=62
172382 On ch=1 n=g3 v=0
172512 On ch=1 n=g3 v=84
173044 On ch=1 n=g3 v=0
173182 On ch=1 n=g3 v=96
174046 On ch=1 n=g#3 v=93
174128 On ch=1 n=g3 v=0
174130 Par ch=1 c=64 v=63
174206 Par ch=1 c=64 v=0
174452 Par ch=1 c=64 v=63
174468 Par ch=1 c=64 v=127
174514 On ch=1 n=d#5 v=0
174530 On ch=1 n=c6 v=0
174914 On ch=1 n=c6 v=62
174924 On ch=1 n=d#5 v=34
175198 On ch=1 n=c6 v=0
175200 On ch=1 n=d#5 v=0
175512 On ch=1 n=c6 v=76
175512 On ch=1 n=d#5 v=60
175848 On ch=1 n=c6 v=0
175876 On ch=1 n=d#5 v=0
176106 On ch=1 n=c6 v=90
176114 On ch=1 n=d#5 v=72
176576 On ch=1 n=c6 v=0
176588 On ch=1 n=d#5 v=0
176732 On ch=1 n=a3 v=82
176734 On ch=1 n=c6 v=86
176744 On ch=1 n=d#5 v=65
176766 On ch=1 n=g#3 v=0
176964 Par ch=1 c=64 v=63
177080 Par ch=1 c=64 v=127
177240 On ch=1 n=c6 v=0
177248 On ch=1 n=d#5 v=0
177370 On ch=1 n=c6 v=94
177388 On ch=1 n=d#5 v=70
177782 On ch=1 n=d#5 v=0
178062 On ch=1 n=c#6 v=94
178074 On ch=1 n=a#3 v=68
178078 On ch=1 n=c6 v=0
178078 On ch=1 n=d#5 v=75
178146 On ch=1 n=a3 v=0
178274 Par ch=1 c=64 v=63
178328 Par ch=1 c=64 v=0
178420 Par ch=1 c=64 v=63
178450 Par ch=1 c=64 v=127
178698 On ch=1 n=d#5 v=0
178916 On ch=1 n=c#6 v=0
179012 On ch=1 n=c6 v=72
179194 On ch=1 n=a#5 v=76
179218 On ch=1 n=c6 v=0
179224 On ch=1 n=a#3 v=0
179358 On ch=1 n=g#5 v=89
179438 On ch=1 n=a#5 v=0
179498 On ch=1 n=g#5 v=0
179544 On ch=1 n=c#4 v=66
179560 On ch=1 n=g5 v=84
179670 Par ch=1 c=64 v=63
179796 Par ch=1 c=64 v=127
179852 On ch=1 n=g5 v=0
180154 On ch=1 n=g6 v=87
180518 On ch=1 n=c#4 v=0
180682 On ch=1 n=g6 v=0
180752 On ch=1 n=g#6 v=80
180790 On ch=1 n=c4 v=59
180824 Par ch=1 c=64 v=63
180896 Par ch=1 c=64 v=0
181200 Par ch=1 c=64 v=63
181218 Par ch=1 c=64 v=127
181390 Par ch=1 c=64 v=63
181434 Par ch=1 c=64 v=0
181452 On ch=1 n=c6 v=71
181536 Par ch=1 c=64 v=63
181560 Par ch=1 c=64 v=127
181578 On ch=1 n=g#6 v=0
182086 On ch=1 n=c#4 v=68
182188 On ch=1 n=c4 v=0
182476 On ch=1 n=a#5 v=71
182542 On ch=1 n=c6 v=0
182558 Par ch=1 c=64 v=63
182562 Par ch=1 c=64 v=127
182572 Par ch=1 c=64 v=63
182668 Par ch=1 c=64 v=127
182764 On ch=1 n=c#6 v=76
182804 On ch=1 n=a#5 v=0
183028 On ch=1 n=f6 v=72
183104 On ch=1 n=c#6 v=0
183268 On ch=1 n=c#4 v=0
183368 On ch=1 n=g#5 v=72
183378 On ch=1 n=f6 v=0
183388 On ch=1 n=d#4 v=61
183406 On ch=1 n=c5 v=52
183550 Par ch=1 c=64 v=63
183662 Par ch=1 c=64 v=0
183976 Par ch=1 c=64 v=63
183994 Par ch=1 c=64 v=127
184364 On ch=1 n=d#4 v=0
184372 On ch=1 n=c5 v=0
184730 On ch=1 n=c#5 v=57
184744 On ch=1 n=d#4 v=47
184864 Par ch=1 c=64 v=63
184916 Par ch=1 c=64 v=0
184984 Par ch=1 c=64 v=63
185020 Par ch=1 c=64 v=127
185288 On ch=1 n=g#5 v=0
185404 On ch=1 n=c6 v=51
185426 On ch=1 n=g5 v=43
185542 Par ch=1 c=64 v=63
185666 Par ch=1 c=64 v=127
185768 On ch=1 n=a#5 v=63
185816 On ch=1 n=c6 v=0
185886 On ch=1 n=d#4 v=0
186030 On ch=1 n=c#5 v=0
186174 On ch=1 n=g#5 v=65
186206 On ch=1 n=a#5 v=0
186212 On ch=1 n=g#4 v=36
186232 On ch=1 n=g5 v=0
186398 Par ch=1 c=64 v=63
186494 Par ch=1 c=64 v=0
186528 Par ch=1 c=64 v=63
186590 On ch=1 n=c5 v=39
186608 Par ch=1 c=64 v=127
186922 On ch=1 n=d#5 v=39
186992 On ch=1 n=c5 v=0
187110 On ch=1 n=g#4 v=0
187250 On ch=1 n=c5 v=30
187324 On ch=1 n=d#5 v=0
187548 On ch=1 n=g#4 v=34
187590 On ch=1 n=g#5 v=0
187600 On ch=1 n=c5 v=0
187858 On ch=1 n=c5 v=46
188164 On ch=1 n=d#5 v=40
188178 On ch=1 n=c6 v=68
188182 On ch=1 n=g#5 v=34
188200 On ch=1 n=c5 v=0
188360 On ch=1 n=g#4 v=0
188480 On ch=1 n=d#5 v=0
188486 On ch=1 n=c5 v=52
188530 On ch=1 n=g#5 v=0
188554 On ch=1 n=c6 v=0
188798 On ch=1 n=c6 v=87
188800 On ch=1 n=g#4 v=53
188812 On ch=1 n=c5 v=0
188822 On ch=1 n=g#5 v=49
189090 On ch=1 n=c5 v=74
189202 On ch=1 n=g#5 v=0
189252 On ch=1 n=c6 v=0
189432 On ch=1 n=c6 v=93
189444 On ch=1 n=d#5 v=79
189444 On ch=1 n=g#5 v=68
189480 On ch=1 n=c5 v=0
189566 On ch=1 n=g#4 v=0
189742 On ch=1 n=g#5 v=0
189762 On ch=1 n=d#5 v=0
189776 On ch=1 n=c5 v=65
189836 On ch=1 n=c6 v=0
190096 On ch=1 n=c5 v=0
190208 On ch=1 n=g4 v=53
190210 On ch=1 n=f6 v=88
190218 On ch=1 n=a#5 v=63
190240 On ch=1 n=c6 v=68
190404 Par ch=1 c=64 v=63
190498 Par ch=1 c=64 v=0
190616 Par ch=1 c=64 v=63
190662 Par ch=1 c=64 v=127
190670 On ch=1 n=a#4 v=68
191056 On ch=1 n=c5 v=35
191062 On ch=1 n=e6 v=70
191094 On ch=1 n=f6 v=0
191116 On ch=1 n=g4 v=0
191132 On ch=1 n=a#4 v=0
191398 On ch=1 n=a#4 v=54
191488 On ch=1 n=c5 v=0
191706 On ch=1 n=g4 v=51
191806 On ch=1 n=a#4 v=0
191866 On ch=1 n=a#5 v=0
191878 On ch=1 n=c6 v=0
191920 On ch=1 n=e6 v=0
191986 On ch=1 n=a#4 v=63
192286 On ch=1 n=c6 v=91
192290 On ch=1 n=c5 v=54
192292 On ch=1 n=a#5 v=73
192346 On ch=1 n=a#4 v=0
192368 Par ch=1 c=64 v=63
192480 Par ch=1 c=64 v=127
192574 On ch=1 n=a#4 v=68
192632 On ch=1 n=c5 v=0
192646 On ch=1 n=a#5 v=0
192666 On ch=1 n=c6 v=0
192704 On ch=1 n=g4 v=0
192882 On ch=1 n=c6 v=97
192890 On ch=1 n=a#5 v=77
192890 On ch=1 n=g4 v=68
192980 On ch=1 n=a#4 v=0
193014 Par ch=1 c=64 v=63
193048 Par ch=1 c=64 v=127
193178 On ch=1 n=a#4 v=80
193238 On ch=1 n=c6 v=0
193248 On ch=1 n=a#5 v=0
193332 On ch=1 n=g4 v=0
193494 On ch=1 n=c6 v=100
193496 On ch=1 n=c5 v=71
193508 On ch=1 n=a#5 v=85
193548 On ch=1 n=a#4 v=0
193688 On ch=1 n=a#5 v=0
193778 On ch=1 n=a#4 v=88
193780 On ch=1 n=c6 v=0
193806 On ch=1 n=c5 v=0
194170 On ch=1 n=g6 v=92
194174 On ch=1 n=f4 v=76
194184 On ch=1 n=c6 v=68
194194 On ch=1 n=g#5 v=58
194262 On ch=1 n=a#4 v=0
194400 Par ch=1 c=64 v=63
194450 Par ch=1 c=64 v=0
194564 On ch=1 n=g#4 v=63
194576 Par ch=1 c=64 v=63
194596 Par ch=1 c=64 v=127
194930 On ch=1 n=g6 v=0
194932 On ch=1 n=f6 v=77
194932 On ch=1 n=c5 v=48
194970 On ch=1 n=g#4 v=0
195240 On ch=1 n=g#4 v=46
195382 On ch=1 n=c5 v=0
195384 On ch=1 n=f4 v=0
195424 Par ch=1 c=64 v=63
195524 Par ch=1 c=64 v=127
195552 On ch=1 n=f4 v=48
195670 On ch=1 n=g#4 v=0
195784 On ch=1 n=c6 v=0
195804 On ch=1 n=f6 v=0
195812 On ch=1 n=g#4 v=61
195826 On ch=1 n=g#5 v=0
196090 On ch=1 n=c6 v=94
196104 On ch=1 n=g#5 v=76
196118 On ch=1 n=c5 v=52
196158 On ch=1 n=g#4 v=0
196368 On ch=1 n=g#4 v=81
196384 On ch=1 n=g#5 v=0
196398 On ch=1 n=f4 v=0
196404 On ch=1 n=c6 v=0
196410 On ch=1 n=c5 v=0
196668 On ch=1 n=g#4 v=0
196668 On ch=1 n=c6 v=97
196670 On ch=1 n=f4 v=69
196674 On ch=1 n=g#5 v=81
196976 On ch=1 n=g#4 v=93
197012 On ch=1 n=c6 v=0
197048 On ch=1 n=g#5 v=0
197086 On ch=1 n=f4 v=0
197284 On ch=1 n=c6 v=101
197288 On ch=1 n=g#5 v=88
197304 On ch=1 n=c5 v=87
197336 On ch=1 n=g#4 v=0
197586 On ch=1 n=g#5 v=0
197604 On ch=1 n=g#4 v=88
197646 On ch=1 n=c5 v=0
197664 On ch=1 n=c6 v=0
197996 On ch=1 n=g#6 v=107
198004 On ch=1 n=c6 v=90
198012 On ch=1 n=g#5 v=81
198024 On ch=1 n=d#4 v=75
198090 On ch=1 n=g#4 v=0
198138 Par ch=1 c=64 v=63
198246 Par ch=1 c=64 v=0
198318 Par ch=1 c=64 v=63
198362 Par ch=1 c=64 v=127
198490 On ch=1 n=f#4 v=90
198634 On ch=1 n=d#4 v=0
198846 On ch=1 n=g#6 v=0
198856 On ch=1 n=g#4 v=48
198860 On ch=1 n=f#6 v=83
198926 On ch=1 n=f#4 v=0
199168 On ch=1 n=f#4 v=69
199244 On ch=1 n=g#4 v=0
199432 Par ch=1 c=64 v=63
199482 On ch=1 n=d#4 v=72
199554 On ch=1 n=f#4 v=0
199558 Par ch=1 c=64 v=127
199764 On ch=1 n=f#4 v=66
199838 On ch=1 n=f#6 v=0
199840 On ch=1 n=d#4 v=0
199848 On ch=1 n=c6 v=0
199858 On ch=1 n=g#5 v=0
200058 On ch=1 n=g#4 v=47
200062 On ch=1 n=c6 v=81
200074 On ch=1 n=g#5 v=63
200076 On ch=1 n=f#4 v=0
200350 On ch=1 n=f#4 v=78
200370 On ch=1 n=g#4 v=0
200400 On ch=1 n=g#5 v=0
200420 On ch=1 n=c6 v=0
200628 On ch=1 n=c6 v=97
200632 On ch=1 n=d#4 v=79
200636 On ch=1 n=g#5 v=72
200664 On ch=1 n=f#4 v=0
200912 On ch=1 n=g#5 v=0
200914 On ch=1 n=f#4 v=87
200962 On ch=1 n=c6 v=0
200982 On ch=1 n=d#4 v=0
201206 On ch=1 n=c6 v=106
201214 On ch=1 n=g#5 v=87
201226 On ch=1 n=g#4 v=77
201234 On ch=1 n=f#4 v=0
201456 On ch=1 n=g#5 v=0
201504 On ch=1 n=c6 v=0
201522 On ch=1 n=f#4 v=87
201540 On ch=1 n=g#4 v=0
201882 On ch=1 n=c#4 v=72
201904 On ch=1 n=f#6 v=97
201910 On ch=1 n=c#6 v=84
201922 On ch=1 n=g#5 v=64
201944 On ch=1 n=f#4 v=0
202062 Par ch=1 c=64 v=63
202114 Par ch=1 c=64 v=0
202250 Par ch=1 c=64 v=63
202274 Par ch=1 c=64 v=127
202316 On ch=1 n=e4 v=68
202382 On ch=1 n=c#4 v=0
202692 On ch=1 n=e6 v=91
202698 On ch=1 n=g#4 v=44
202752 On ch=1 n=f#6 v=0
202772 On ch=1 n=e4 v=0
203042 On ch=1 n=e4 v=71
203092 On ch=1 n=g#4 v=0
203326 On ch=1 n=c#4 v=81
203406 On ch=1 n=e6 v=0
203420 On ch=1 n=e4 v=0
203464 On ch=1 n=g#5 v=0
203468 On ch=1 n=c#6 v=0
203578 On ch=1 n=e4 v=90
203858 On ch=1 n=e6 v=109
203868 On ch=1 n=g#5 v=96
203870 On ch=1 n=g#4 v=67
203898 On ch=1 n=e4 v=0
203964 On ch=1 n=c#4 v=0
204080 On ch=1 n=g#4 v=0
204170 On ch=1 n=e4 v=79
204184 On ch=1 n=g#5 v=0
204200 On ch=1 n=e6 v=0
204472 On ch=1 n=b3 v=86
204478 On ch=1 n=e6 v=101
204486 On ch=1 n=g#5 v=87
204542 On ch=1 n=e4 v=0
204600 Par ch=1 c=64 v=63
204632 Par ch=1 c=64 v=0
204742 Par ch=1 c=64 v=63
204770 Par ch=1 c=64 v=127
204828 On ch=1 n=d#4 v=89
204914 On ch=1 n=e6 v=0
204980 On ch=1 n=g#5 v=0
205158 On ch=1 n=g#4 v=69
205162 On ch=1 n=d#6 v=107
205172 On ch=1 n=d#4 v=0
205176 On ch=1 n=g#5 v=83
205284 Par ch=1 c=64 v=63
205450 Par ch=1 c=64 v=127
205520 On ch=1 n=d#4 v=80
205544 On ch=1 n=g#4 v=0
205628 On ch=1 n=g#5 v=0
205670 On ch=1 n=d#6 v=0
205680 On ch=1 n=b3 v=0
206064 On ch=1 n=d#6 v=98
206072 On ch=1 n=g#5 v=78
206080 On ch=1 n=f4 v=56
206098 On ch=1 n=a#3 v=53
206132 On ch=1 n=d#4 v=0
206324 Par ch=1 c=64 v=63
206444 Par ch=1 c=64 v=0
206614 Par ch=1 c=64 v=63
206642 Par ch=1 c=64 v=127
206926 On ch=1 n=d#6 v=0
207306 On ch=1 n=f6 v=50
207434 On ch=1 n=d#6 v=69
207438 On ch=1 n=f6 v=0
207640 On ch=1 n=d6 v=65
207642 On ch=1 n=d#6 v=0
207680 Par ch=1 c=64 v=63
207730 Par ch=1 c=64 v=0
207784 Par ch=1 c=64 v=63
207822 Par ch=1 c=64 v=0
207908 On ch=1 n=d6 v=0
207966 On ch=1 n=g#5 v=0
208010 On ch=1 n=a#3 v=0
208010 On ch=1 n=f4 v=0
208342 Par ch=1 c=64 v=127
208342 On ch=1 n=g#5 v=62
208344 On ch=1 n=a#3 v=43
208356 On ch=1 n=d5 v=50
208358 On ch=1 n=f4 v=27
208486 On ch=1 n=g#5 v=0
208494 On ch=1 n=d5 v=0
208494 On ch=1 n=a#3 v=0
208536 On ch=1 n=f4 v=0
209028 On ch=1 n=g#5 v=52
209032 On ch=1 n=a#3 v=34
209046 On ch=1 n=d5 v=34
209048 On ch=1 n=f4 v=21
209178 On ch=1 n=a#3 v=0
209188 On ch=1 n=d5 v=0
209188 On ch=1 n=g#5 v=0
209228 On ch=1 n=f4 v=0
209736 On ch=1 n=a#3 v=32
209746 On ch=1 n=g#5 v=37
209756 On ch=1 n=f4 v=21
209760 On ch=1 n=d5 v=35
209910 On ch=1 n=a#3 v=0
209928 On ch=1 n=g#5 v=0
209934 On ch=1 n=d5 v=0
209964 On ch=1 n=f4 v=0
210628 On ch=1 n=a#3 v=30
210630 On ch=1 n=g#5 v=39
210636 On ch=1 n=d5 v=26
210644 On ch=1 n=f4 v=19
212294 On ch=1 n=d5 v=0
212386 On ch=1 n=a#3 v=0
212416 On ch=1 n=f4 v=0
212416 On ch=1 n=g#5 v=0
212418 Par ch=1 c=64 v=63
212512 Par ch=1 c=64 v=0
213148 Par ch=1 c=64 v=63
213188 Par ch=1 c=64 v=127
213304 On ch=1 n=d6 v=36
213306 On ch=1 n=g#6 v=43
213324 On ch=1 n=a#4 v=16
213336 On ch=1 n=f5 v=20
213438 On ch=1 n=g#6 v=0
213444 On ch=1 n=d6 v=0
213486 On ch=1 n=a#4 v=0
213494 On ch=1 n=f5 v=0
213992 On ch=1 n=a#4 v=26
213998 On ch=1 n=g#6 v=50
214004 On ch=1 n=f5 v=26
214010 On ch=1 n=d6 v=32
214140 On ch=1 n=g#6 v=0
214142 On ch=1 n=d6 v=0
214150 On ch=1 n=a#4 v=0
214162 On ch=1 n=f5 v=0
214754 On ch=1 n=g#6 v=37
214766 On ch=1 n=d6 v=19
214768 On ch=1 n=a#4 v=17
214770 On ch=1 n=f5 v=14
214936 On ch=1 n=d6 v=0
214936 On ch=1 n=g#6 v=0
214952 On ch=1 n=a#4 v=0
214976 On ch=1 n=f5 v=0
215624 On ch=1 n=a#4 v=14
215642 On ch=1 n=f5 v=16
215674 On ch=1 n=g#6 v=50
215686 On ch=1 n=d6 v=27
216292 On ch=1 n=d6 v=0
216890 On ch=1 n=g#6 v=0
216924 On ch=1 n=a#6 v=65
217016 On ch=1 n=g#6 v=65
217030 On ch=1 n=a#6 v=0
217110 On ch=1 n=g6 v=63
217124 On ch=1 n=g#6 v=0
217128 On ch=1 n=a#4 v=0
217140 On ch=1 n=f5 v=0
217212 On ch=1 n=g#6 v=66
217228 On ch=1 n=g6 v=0
217282 On ch=1 n=a#6 v=77
217312 On ch=1 n=g#6 v=0
217422 Par ch=1 c=64 v=63
217476 On ch=1 n=c7 v=72
217482 On ch=1 n=a#6 v=0
217578 Par ch=1 c=64 v=0
217720 On ch=1 n=a#6 v=76
217730 On ch=1 n=c7 v=0
218102 On ch=1 n=g#6 v=71
218124 On ch=1 n=a#6 v=0
218368 On ch=1 n=g#6 v=0
218436 On ch=1 n=g6 v=76
218758 On ch=1 n=f6 v=63
218766 On ch=1 n=g6 v=0
219048 On ch=1 n=f6 v=0
219126 On ch=1 n=d#6 v=63
219510 On ch=1 n=d6 v=49
219582 On ch=1 n=d#6 v=0
219910 On ch=1 n=d6 v=0
219952 On ch=1 n=c6 v=37
220036 Par ch=1 c=64 v=63
220064 Par ch=1 c=64 v=127
220312 Par ch=1 c=64 v=63
220398 Par ch=1 c=64 v=127
220490 On ch=1 n=a#5 v=31
220584 On ch=1 n=c6 v=0
221050 On ch=1 n=a#5 v=0
221286 On ch=1 n=d#4 v=48
221304 On ch=1 n=a#5 v=58
221340 On ch=1 n=g5 v=28
221628 Par ch=1 c=64 v=63
221704 Par ch=1 c=64 v=0
221906 Par ch=1 c=64 v=63
221930 Par ch=1 c=64 v=127
222282 On ch=1 n=a#5 v=0
222516 On ch=1 n=c6 v=59
222614 On ch=1 n=g5 v=0
222676 On ch=1 n=c6 v=0
222684 On ch=1 n=a#5 v=67
222894 On ch=1 n=g#5 v=71
222906 On ch=1 n=f5 v=52
222928 On ch=1 n=a#5 v=0
223062 Par ch=1 c=64 v=63
223172 Par ch=1 c=64 v=127
223354 On ch=1 n=f5 v=0
223642 On ch=1 n=g5 v=66
223656 On ch=1 n=d#5 v=39
223694 On ch=1 n=g#5 v=0
223800 Par ch=1 c=64 v=63
223904 Par ch=1 c=64 v=127
224228 On ch=1 n=g5 v=0
224358 On ch=1 n=c6 v=61
224360 On ch=1 n=g#5 v=36
224646 Par ch=1 c=64 v=63
224732 Par ch=1 c=64 v=127
224766 On ch=1 n=d#5 v=0
225090 On ch=1 n=g#5 v=0
225176 On ch=1 n=a#5 v=71
225190 On ch=1 n=g5 v=35
225248 On ch=1 n=c6 v=0
225622 On ch=1 n=d#4 v=0
225736 On ch=1 n=g5 v=0
225742 On ch=1 n=a#5 v=0
225936 On ch=1 n=d#4 v=59
225942 On ch=1 n=a#5 v=78
225966 On ch=1 n=g5 v=51
226090 Par ch=1 c=64 v=63
226240 Par ch=1 c=64 v=127
226320 On ch=1 n=g4 v=63
226656 On ch=1 n=a#4 v=72
226722 On ch=1 n=g4 v=0
226810 On ch=1 n=d#4 v=0
226942 On ch=1 n=a#5 v=0
226958 On ch=1 n=d#4 v=53
226972 On ch=1 n=c6 v=66
227026 On ch=1 n=a#4 v=0
227082 On ch=1 n=a#5 v=75
227142 On ch=1 n=c6 v=0
227180 On ch=1 n=g5 v=0
227238 On ch=1 n=d#4 v=0
227250 On ch=1 n=g#5 v=91
227276 On ch=1 n=f4 v=64
227326 On ch=1 n=a#5 v=0
227410 Par ch=1 c=64 v=63
227448 Par ch=1 c=64 v=0
227508 On ch=1 n=g#4 v=80
227590 Par ch=1 c=64 v=63
227622 Par ch=1 c=64 v=127
227802 On ch=1 n=d5 v=78
227846 On ch=1 n=f4 v=0
227936 On ch=1 n=g#4 v=0
228078 On ch=1 n=f4 v=83
228116 On ch=1 n=d5 v=0
228342 On ch=1 n=g#5 v=0
228376 On ch=1 n=g4 v=75
228378 On ch=1 n=g5 v=88
228402 On ch=1 n=f4 v=0
228440 Par ch=1 c=64 v=63
228522 Par ch=1 c=64 v=0
228676 On ch=1 n=a#4 v=89
228774 Par ch=1 c=64 v=63
228802 Par ch=1 c=64 v=127
228808 On ch=1 n=g4 v=0
228998 On ch=1 n=d#5 v=82
229056 On ch=1 n=a#4 v=0
229120 Par ch=1 c=64 v=63
229190 Par ch=1 c=64 v=0
229252 Par ch=1 c=64 v=63
229296 On ch=1 n=g4 v=70
229300 Par ch=1 c=64 v=127
229350 On ch=1 n=d#5 v=0
229596 Par ch=1 c=64 v=63
229672 Par ch=1 c=64 v=0
229696 On ch=1 n=c5 v=65
229700 On ch=1 n=g#4 v=64
229780 On ch=1 n=g4 v=0
230052 On ch=1 n=e5 v=71
230102 On ch=1 n=g5 v=0
230220 Par ch=1 c=64 v=63
230236 Par ch=1 c=64 v=127
230346 On ch=1 n=f5 v=85
230382 On ch=1 n=e5 v=0
230612 On ch=1 n=g5 v=84
230640 On ch=1 n=f5 v=0
230872 On ch=1 n=g#5 v=90
230926 On ch=1 n=g5 v=0
230972 Par ch=1 c=64 v=63
231136 On ch=1 n=a5 v=85
231142 On ch=1 n=g#5 v=0
231282 Par ch=1 c=64 v=0
231400 On ch=1 n=a#5 v=88
231470 On ch=1 n=a5 v=0
231666 On ch=1 n=b5 v=94
231734 Par ch=1 c=64 v=63
231750 On ch=1 n=a#5 v=0
231750 Par ch=1 c=64 v=127
231984 On ch=1 n=c5 v=0
232000 On ch=1 n=b5 v=0
232004 On ch=1 n=d6 v=71
232078 On ch=1 n=g#4 v=0
232170 On ch=1 n=c6 v=70
232252 On ch=1 n=d6 v=0
232314 On ch=1 n=b5 v=70
232330 On ch=1 n=c6 v=0
232432 On ch=1 n=c6 v=71
232436 On ch=1 n=b5 v=0
232566 On ch=1 n=a#5 v=89
232582 On ch=1 n=c6 v=0
232688 Par ch=1 c=64 v=63
232694 On ch=1 n=g#5 v=89
232744 On ch=1 n=a#5 v=0
232810 On ch=1 n=g5 v=72
232822 On ch=1 n=g#5 v=0
232856 Par ch=1 c=64 v=127
232922 On ch=1 n=g5 v=0
232954 On ch=1 n=f5 v=84
233128 On ch=1 n=g4 v=70
233150 On ch=1 n=a3 v=44
233156 On ch=1 n=d#5 v=80
233198 On ch=1 n=f5 v=0
233236 Par ch=1 c=64 v=63
233288 Par ch=1 c=64 v=0
233386 Par ch=1 c=64 v=63
233430 Par ch=1 c=64 v=127
233484 On ch=1 n=a#3 v=76
233542 On ch=1 n=a3 v=0
233782 On ch=1 n=c4 v=64
233792 On ch=1 n=a#3 v=0
233976 Par ch=1 c=64 v=63
234000 Par ch=1 c=64 v=0
234062 Par ch=1 c=64 v=63
234082 On ch=1 n=a#3 v=52
234112 Par ch=1 c=64 v=127
234228 On ch=1 n=c4 v=0
234270 On ch=1 n=g4 v=0
234356 On ch=1 n=a#3 v=0
234426 On ch=1 n=a#3 v=70
234446 On ch=1 n=d#5 v=0
234478 On ch=1 n=d5 v=70
234492 On ch=1 n=f4 v=29
234528 Par ch=1 c=64 v=63
234556 Par ch=1 c=64 v=0
234672 Par ch=1 c=64 v=63
234710 Par ch=1 c=64 v=127
234774 On ch=1 n=a#4 v=62
234790 On ch=1 n=d5 v=0
234982 On ch=1 n=a4 v=51
234988 On ch=1 n=a#4 v=0
235120 On ch=1 n=a4 v=0
235128 Par ch=1 c=64 v=63
235130 On ch=1 n=a#4 v=59
235242 On ch=1 n=a#4 v=0
235266 On ch=1 n=b4 v=59
235384 Par ch=1 c=64 v=0
235394 On ch=1 n=c5 v=71
235398 On ch=1 n=b4 v=0
235496 On ch=1 n=c#5 v=88
235508 On ch=1 n=c5 v=0
235614 On ch=1 n=c#5 v=0
235614 On ch=1 n=d5 v=68
235690 On ch=1 n=f4 v=0
235736 On ch=1 n=d5 v=0
235736 On ch=1 n=d#5 v=89
235828 On ch=1 n=a#3 v=0
235858 On ch=1 n=d#5 v=0
235862 On ch=1 n=e5 v=81
235986 On ch=1 n=f5 v=97
235990 On ch=1 n=e5 v=0
236112 On ch=1 n=f#5 v=103
236132 On ch=1 n=f5 v=0
236226 On ch=1 n=g5 v=87
236244 On ch=1 n=f#5 v=0
236352 On ch=1 n=g#5 v=99
236376 On ch=1 n=g5 v=0
236500 On ch=1 n=a5 v=88
236544 On ch=1 n=g#5 v=0
236652 On ch=1 n=a#5 v=104
236688 Par ch=1 c=64 v=63
236696 Par ch=1 c=64 v=127
236858 On ch=1 n=a5 v=0
236920 On ch=1 n=d#3 v=76
236926 On ch=1 n=a#5 v=0
236988 On ch=1 n=d#4 v=79
237008 On ch=1 n=a#5 v=110
237052 On ch=1 n=g5 v=48
237252 Par ch=1 c=64 v=63
237292 Par ch=1 c=64 v=0
237764 Par ch=1 c=64 v=63
237766 Par ch=1 c=64 v=127
238008 On ch=1 n=a#5 v=0
238044 On ch=1 n=c6 v=67
238190 On ch=1 n=a#5 v=78
238200 On ch=1 n=c6 v=0
238214 On ch=1 n=g5 v=0
238378 On ch=1 n=g#5 v=83
238382 On ch=1 n=a#5 v=0
238516 On ch=1 n=g#5 v=0
238518 On ch=1 n=g5 v=67
238634 On ch=1 n=c6 v=76
238744 On ch=1 n=g5 v=0
238750 On ch=1 n=d#3 v=0
238750 On ch=1 n=a#5 v=89
238790 On ch=1 n=c6 v=0
238810 On ch=1 n=d#4 v=0
238814 On ch=1 n=a#5 v=0
238904 On ch=1 n=d#6 v=91
239026 On ch=1 n=d#6 v=0
239044 On ch=1 n=d6 v=88
239160 On ch=1 n=f6 v=99
239186 On ch=1 n=d6 v=0
239280 On ch=1 n=d#6 v=105
239346 On ch=1 n=f6 v=0
239378 On ch=1 n=d#4 v=76
239462 On ch=1 n=g#6 v=94
239466 On ch=1 n=c5 v=89
239500 On ch=1 n=d#6 v=0
239520 Par ch=1 c=64 v=63
239580 Par ch=1 c=64 v=0
239646 On ch=1 n=g#6 v=0
239648 On ch=1 n=g6 v=88
239752 Par ch=1 c=64 v=63
239776 Par ch=1 c=64 v=127
239778 On ch=1 n=f#6 v=101
239816 On ch=1 n=g6 v=0
239912 On ch=1 n=g6 v=83
239930 On ch=1 n=f#6 v=0
240042 On ch=1 n=f6 v=97
240086 Par ch=1 c=64 v=63
240100 On ch=1 n=g6 v=0
240164 On ch=1 n=d#6 v=100
240174 Par ch=1 c=64 v=0
240216 On ch=1 n=f6 v=0
240292 On ch=1 n=d6 v=92
240364 On ch=1 n=d#6 v=0
240376 Par ch=1 c=64 v=63
240388 On ch=1 n=d#4 v=0
240414 On ch=1 n=c6 v=88
240414 Par ch=1 c=64 v=127
240424 On ch=1 n=d6 v=0
240464 On ch=1 n=c5 v=0
240584 On ch=1 n=c5 v=71
240586 On ch=1 n=a#5 v=99
240590 On ch=1 n=f4 v=71
240632 On ch=1 n=c6 v=0
240708 Par ch=1 c=64 v=63
240776 Par ch=1 c=64 v=0
241196 On ch=1 n=a5 v=84
241282 On ch=1 n=a#5 v=0
241642 Par ch=1 c=64 v=63
241682 Par ch=1 c=64 v=127
241762 On ch=1 n=d5 v=78
241772 On ch=1 n=a#4 v=75
241774 On ch=1 n=f4 v=0
241838 On ch=1 n=c5 v=0
241876 Par ch=1 c=64 v=63
241918 Par ch=1 c=64 v=0
242066 Par ch=1 c=64 v=63
242094 Par ch=1 c=64 v=127
242304 Par ch=1 c=64 v=63
242444 On ch=1 n=b4 v=61
242448 Par ch=1 c=64 v=0
242452 On ch=1 n=g#5 v=89
242522 On ch=1 n=a#4 v=0
242528 On ch=1 n=a5 v=0
242632 Par ch=1 c=64 v=63
242650 Par ch=1 c=64 v=127
242924 On ch=1 n=d5 v=0
242956 On ch=1 n=b4 v=0
243142 On ch=1 n=d#5 v=74
243148 On ch=1 n=c5 v=69
243232 Par ch=1 c=64 v=63
243280 Par ch=1 c=64 v=0
243430 Par ch=1 c=64 v=63
243452 Par ch=1 c=64 v=127
243498 On ch=1 n=g5 v=93
243508 On ch=1 n=g#5 v=0
243780 On ch=1 n=g4 v=59
243808 On ch=1 n=d#6 v=98
243832 Par ch=1 c=64 v=63
243846 On ch=1 n=c5 v=0
243862 Par ch=1 c=64 v=0
243872 On ch=1 n=g5 v=0
243988 Par ch=1 c=64 v=63
244006 Par ch=1 c=64 v=127
244056 On ch=1 n=c#6 v=101
244140 On ch=1 n=d#6 v=0
244340 On ch=1 n=b5 v=91
244356 On ch=1 n=g#4 v=69
244382 On ch=1 n=c#6 v=0
244426 On ch=1 n=g4 v=0
244434 Par ch=1 c=64 v=63
244474 Par ch=1 c=64 v=0
244656 On ch=1 n=c6 v=98
244724 On ch=1 n=b5 v=0
244904 Par ch=1 c=64 v=63
244924 Par ch=1 c=64 v=0
244974 On ch=1 n=d6 v=82
245002 On ch=1 n=c6 v=0
245100 On ch=1 n=d#5 v=0
245116 Par ch=1 c=64 v=63
245134 Par ch=1 c=64 v=127
245180 On ch=1 n=g#4 v=0
245312 On ch=1 n=d#6 v=74
245326 On ch=1 n=d6 v=0
245640 On ch=1 n=d#6 v=0
245734 On ch=1 n=d#6 v=72
245736 On ch=1 n=a#3 v=61
245736 On ch=1 n=g4 v=50
245778 Par ch=1 c=64 v=63
245826 Par ch=1 c=64 v=0
246466 On ch=1 n=d#6 v=0
246468 On ch=1 n=a#5 v=76
246518 Par ch=1 c=64 v=63
246528 Par ch=1 c=64 v=127
246766 On ch=1 n=g4 v=0
247148 On ch=1 n=g#4 v=50
247222 Par ch=1 c=64 v=63
247360 Par ch=1 c=64 v=127
247534 On ch=1 n=a#5 v=0
247598 On ch=1 n=c6 v=51
247764 On ch=1 n=a#5 v=70
247802 On ch=1 n=c6 v=0
247856 On ch=1 n=a#5 v=0
247922 On ch=1 n=a#5 v=78
248004 Par ch=1 c=64 v=63
248056 On ch=1 n=g#5 v=80
248088 On ch=1 n=a#5 v=0
248106 Par ch=1 c=64 v=127
248206 On ch=1 n=g5 v=74
248218 On ch=1 n=g#5 v=0
248238 On ch=1 n=a#3 v=0
248256 On ch=1 n=g#4 v=0
248348 On ch=1 n=g5 v=0
248350 On ch=1 n=f5 v=70
248556 On ch=1 n=d#4 v=40
248558 On ch=1 n=d#5 v=60
248582 On ch=1 n=f5 v=0
248608 Par ch=1 c=64 v=63
248670 Par ch=1 c=64 v=0
248890 On ch=1 n=g4 v=44
248962 Par ch=1 c=64 v=63
248984 Par ch=1 c=64 v=127
249178 On ch=1 n=a#4 v=47
249188 On ch=1 n=d#4 v=0
249228 On ch=1 n=g4 v=0
249468 On ch=1 n=g4 v=38
249524 On ch=1 n=a#4 v=0
249574 Par ch=1 c=64 v=63
249610 Par ch=1 c=64 v=0
249746 On ch=1 n=d#5 v=0
249752 On ch=1 n=d#4 v=58
249776 Par ch=1 c=64 v=63
249808 Par ch=1 c=64 v=127
249828 On ch=1 n=g4 v=0
250052 On ch=1 n=g4 v=52
250096 Par ch=1 c=64 v=63
250246 Par ch=1 c=64 v=127
250344 On ch=1 n=d#4 v=0
250356 On ch=1 n=a#4 v=41
250358 On ch=1 n=a#5 v=73
250372 On ch=1 n=g5 v=47
250406 On ch=1 n=g4 v=0
250586 On ch=1 n=a#5 v=0
250598 On ch=1 n=g5 v=0
250632 On ch=1 n=a#4 v=0
250638 On ch=1 n=g4 v=63
250938 On ch=1 n=a#5 v=96
250938 On ch=1 n=d#4 v=71
250958 On ch=1 n=g5 v=59
250984 On ch=1 n=g4 v=0
251232 On ch=1 n=g4 v=67
251266 On ch=1 n=g5 v=0
251350 On ch=1 n=a#5 v=0
251462 On ch=1 n=d#4 v=0
251522 On ch=1 n=a#5 v=105
251548 On ch=1 n=g5 v=75
251554 On ch=1 n=a#4 v=72
251618 On ch=1 n=g4 v=0
251720 On ch=1 n=g5 v=0
251798 On ch=1 n=a#4 v=0
251810 On ch=1 n=a#5 v=0
251826 On ch=1 n=g4 v=74
252196 On ch=1 n=d#6 v=100
252212 On ch=1 n=d#4 v=70
252214 On ch=1 n=g#5 v=68
252264 On ch=1 n=g4 v=0
252288 Par ch=1 c=64 v=63
252320 Par ch=1 c=64 v=0
252498 Par ch=1 c=64 v=63
252516 Par ch=1 c=64 v=127
252576 On ch=1 n=f4 v=78
252910 On ch=1 n=d#4 v=0
252940 On ch=1 n=g#4 v=50
252946 On ch=1 n=d6 v=84
252954 On ch=1 n=f4 v=0
252992 On ch=1 n=d#6 v=0
253230 On ch=1 n=f4 v=68
253270 On ch=1 n=g#4 v=0
253474 Par ch=1 c=64 v=63
253508 On ch=1 n=d#4 v=67
253566 Par ch=1 c=64 v=127
253574 On ch=1 n=f4 v=0
253768 On ch=1 n=d6 v=0
253794 On ch=1 n=f4 v=68
253810 On ch=1 n=g#5 v=0
253816 On ch=1 n=d#4 v=0
254104 On ch=1 n=g#4 v=53
254110 On ch=1 n=a#6 v=85
254188 On ch=1 n=f4 v=0
254386 On ch=1 n=a#6 v=0
254390 On ch=1 n=g#6 v=89
254400 On ch=1 n=f4 v=64
254404 On ch=1 n=g#4 v=0
254510 On ch=1 n=g#6 v=0
254648 On ch=1 n=g6 v=86
254652 On ch=1 n=d#4 v=71
254740 On ch=1 n=f4 v=0
254764 Par ch=1 c=64 v=63
254794 Par ch=1 c=64 v=0
254934 On ch=1 n=f6 v=84
254940 On ch=1 n=f4 v=65
254958 Par ch=1 c=64 v=63
254980 On ch=1 n=g6 v=0
254980 Par ch=1 c=64 v=127
255108 On ch=1 n=f6 v=0
255232 On ch=1 n=g#4 v=55
255248 On ch=1 n=d#6 v=80
255292 On ch=1 n=d#4 v=0
255302 On ch=1 n=f4 v=0
255314 Par ch=1 c=64 v=63
255412 Par ch=1 c=64 v=127
255524 On ch=1 n=f4 v=59
255526 On ch=1 n=d6 v=74
255536 On ch=1 n=g#4 v=0
255566 On ch=1 n=d#6 v=0
255716 On ch=1 n=d6 v=0
255798 On ch=1 n=d#4 v=64
255816 On ch=1 n=f6 v=69
255822 Par ch=1 c=64 v=63
255910 On ch=1 n=f4 v=0
255952 Par ch=1 c=64 v=127
256050 On ch=1 n=f6 v=0
256066 On ch=1 n=d#6 v=66
256148 On ch=1 n=g4 v=42
256206 On ch=1 n=d#6 v=0
256220 On ch=1 n=f6 v=65
256318 On ch=1 n=f6 v=0
256330 On ch=1 n=d#6 v=72
256402 On ch=1 n=d#6 v=0
256404 On ch=1 n=f6 v=65
256444 On ch=1 n=a#4 v=57
256446 On ch=1 n=d#4 v=0
256496 On ch=1 n=g4 v=0
256496 On ch=1 n=d#6 v=82
256498 On ch=1 n=f6 v=0
256570 On ch=1 n=d#6 v=0
256580 On ch=1 n=f6 v=69
256594 On ch=1 n=a#4 v=0
256644 On ch=1 n=g4 v=53
256646 On ch=1 n=d#6 v=66
256668 On ch=1 n=f6 v=0
256746 On ch=1 n=d#6 v=0
256756 On ch=1 n=d6 v=76
256854 On ch=1 n=d6 v=0
256856 Par ch=1 c=64 v=63
256856 On ch=1 n=c6 v=80
256916 Par ch=1 c=64 v=0
256958 On ch=1 n=d#4 v=52
257008 On ch=1 n=g4 v=0
257010 On ch=1 n=a#5 v=76
257012 On ch=1 n=c6 v=0
257196 Par ch=1 c=64 v=63
257220 Par ch=1 c=64 v=127
257310 On ch=1 n=g4 v=52
257326 On ch=1 n=a#5 v=0
257616 Par ch=1 c=64 v=63
257654 On ch=1 n=a#4 v=51
257654 On ch=1 n=a#5 v=82
257658 Par ch=1 c=64 v=0
257676 On ch=1 n=g5 v=55
257690 On ch=1 n=g4 v=0
257774 Par ch=1 c=64 v=63
257802 Par ch=1 c=64 v=127
257940 On ch=1 n=a#4 v=0
257958 On ch=1 n=g4 v=71
257966 On ch=1 n=g5 v=0
257970 On ch=1 n=a#5 v=0
258002 On ch=1 n=d#4 v=0
258226 On ch=1 n=a#5 v=98
258240 On ch=1 n=d#4 v=81
258248 On ch=1 n=g5 v=70
258304 On ch=1 n=g4 v=0
258348 Par ch=1 c=64 v=63
258392 Par ch=1 c=64 v=0
258460 Par ch=1 c=64 v=63
258490 Par ch=1 c=64 v=127
258500 On ch=1 n=g4 v=80
258598 On ch=1 n=a#5 v=0
258626 On ch=1 n=g5 v=0
258764 On ch=1 n=d#4 v=0
258808 On ch=1 n=a#5 v=106
258816 On ch=1 n=g5 v=77
258822 On ch=1 n=a#4 v=67
258828 On ch=1 n=g4 v=0
258962 On ch=1 n=g5 v=0
259036 On ch=1 n=a#5 v=0
259042 On ch=1 n=a#4 v=0
259108 On ch=1 n=g4 v=75
259452 Par ch=1 c=64 v=63
259456 On ch=1 n=d#4 v=71
259460 On ch=1 n=d#6 v=104
259466 On ch=1 n=g#5 v=81
259474 Par ch=1 c=64 v=0
259516 On ch=1 n=g4 v=0
259610 Par ch=1 c=64 v=63
259622 Par ch=1 c=64 v=127
259804 On ch=1 n=d6 v=100
259828 On ch=1 n=d#6 v=0
259832 On ch=1 n=f4 v=83
259902 On ch=1 n=g#5 v=0
259952 On ch=1 n=d6 v=0
260218 On ch=1 n=g#4 v=60
260236 On ch=1 n=c7 v=100
260332 On ch=1 n=f4 v=0
260478 On ch=1 n=d#4 v=0
260622 On ch=1 n=f4 v=67
260678 On ch=1 n=g#4 v=0
260926 On ch=1 n=d#4 v=73
261000 On ch=1 n=f4 v=0
261112 Par ch=1 c=64 v=63
261158 Par ch=1 c=64 v=0
261224 On ch=1 n=f4 v=69
261238 Par ch=1 c=64 v=63
261274 Par ch=1 c=64 v=127
261320 On ch=1 n=c7 v=0
261520 On ch=1 n=d#4 v=0
261522 On ch=1 n=a#6 v=82
261528 On ch=1 n=g#4 v=49
261564 On ch=1 n=f4 v=0
261656 On ch=1 n=a#6 v=0
261658 On ch=1 n=g#6 v=71
261782 On ch=1 n=g#6 v=0
261826 On ch=1 n=c7 v=76
261830 On ch=1 n=f4 v=57
261842 On ch=1 n=g#4 v=0
261930 On ch=1 n=g#6 v=90
261972 On ch=1 n=c7 v=0
262070 On ch=1 n=g6 v=80
262084 On ch=1 n=g#6 v=0
262086 Par ch=1 c=64 v=63
262098 On ch=1 n=d#4 v=51
262134 Par ch=1 c=64 v=0
262166 On ch=1 n=f4 v=0
262194 On ch=1 n=g6 v=0
262200 On ch=1 n=f6 v=78
262260 Par ch=1 c=64 v=63
262308 Par ch=1 c=64 v=127
262328 On ch=1 n=f6 v=0
262336 On ch=1 n=g#6 v=86
262344 On ch=1 n=f4 v=60
262444 On ch=1 n=g#6 v=0
262452 On ch=1 n=f6 v=75
262584 On ch=1 n=f6 v=0
262606 On ch=1 n=d#6 v=88
262622 On ch=1 n=g#4 v=54
262660 On ch=1 n=f4 v=0
262670 Par ch=1 c=64 v=63
262686 On ch=1 n=d#4 v=0
262742 On ch=1 n=d6 v=79
262758 On ch=1 n=d#6 v=0
262774 Par ch=1 c=64 v=0
262884 On ch=1 n=f6 v=84
262900 On ch=1 n=d6 v=0
262924 On ch=1 n=f4 v=60
262974 On ch=1 n=g#4 v=0
263030 On ch=1 n=d6 v=77
263048 On ch=1 n=f6 v=0
263196 On ch=1 n=g4 v=41
263200 On ch=1 n=d#4 v=55
263228 On ch=1 n=d#6 v=78
263240 On ch=1 n=d6 v=0
263268 Par ch=1 c=64 v=63
263294 Par ch=1 c=64 v=127
263310 On ch=1 n=f4 v=0
263438 On ch=1 n=f6 v=70
263442 On ch=1 n=d#6 v=0
263492 Par ch=1 c=64 v=63
263560 Par ch=1 c=64 v=0
263576 On ch=1 n=d#6 v=77
263584 On ch=1 n=f6 v=0
263612 Par ch=1 c=64 v=63
263694 On ch=1 n=d#6 v=0
263694 Par ch=1 c=64 v=127
263696 On ch=1 n=d6 v=68
263818 On ch=1 n=d#6 v=81
263826 On ch=1 n=d6 v=0
263928 On ch=1 n=d#6 v=0
263952 On ch=1 n=e6 v=71
264082 On ch=1 n=e6 v=0
264086 On ch=1 n=d#4 v=0
264096 On ch=1 n=f6 v=56
264098 On ch=1 n=g4 v=0
264186 On ch=1 n=f#6 v=59
264196 On ch=1 n=f6 v=0
264216 Par ch=1 c=64 v=63
264356 Par ch=1 c=64 v=0
264358 On ch=1 n=f#6 v=0
264370 On ch=1 n=g6 v=47
264668 On ch=1 n=a#5 v=54
264696 On ch=1 n=g6 v=0
264804 Par ch=1 c=64 v=63
264824 Par ch=1 c=64 v=127
265020 On ch=1 n=a#5 v=0
265470 On ch=1 n=a#5 v=69
265486 On ch=1 n=g5 v=50
265486 On ch=1 n=g4 v=44
265592 Par ch=1 c=64 v=63
265636 Par ch=1 c=64 v=0
265700 Par ch=1 c=64 v=63
265738 Par ch=1 c=64 v=127
265890 On ch=1 n=g5 v=0
265914 On ch=1 n=a#5 v=0
266002 On ch=1 n=g4 v=0
266088 On ch=1 n=g#5 v=71
266098 On ch=1 n=g#4 v=71
266110 On ch=1 n=f5 v=65
266196 Par ch=1 c=64 v=63
266306 Par ch=1 c=64 v=127
266452 On ch=1 n=f5 v=0
266598 On ch=1 n=g#5 v=0
266742 On ch=1 n=g5 v=64
266744 On ch=1 n=d#5 v=64
266746 On ch=1 n=a4 v=55
266790 On ch=1 n=g#4 v=0
266864 Par ch=1 c=64 v=63
266910 Par ch=1 c=64 v=0
266964 Par ch=1 c=64 v=63
267016 Par ch=1 c=64 v=127
267166 On ch=1 n=d#5 v=0
267202 On ch=1 n=g5 v=0
267568 On ch=1 n=a#4 v=55
267572 On ch=1 n=a#5 v=55
267586 On ch=1 n=d#5 v=40
267602 On ch=1 n=a4 v=0
267954 Par ch=1 c=64 v=63
267998 On ch=1 n=a5 v=57
268034 Par ch=1 c=64 v=0
268040 On ch=1 n=a#5 v=0
268130 Par ch=1 c=64 v=63
268268 Par ch=1 c=64 v=127
268272 On ch=1 n=a#5 v=68
268322 On ch=1 n=a5 v=0
268484 Par ch=1 c=64 v=63
268544 On ch=1 n=g5 v=65
268556 On ch=1 n=a#5 v=0
268618 Par ch=1 c=64 v=127
268708 On ch=1 n=d#5 v=0
268828 On ch=1 n=f5 v=69
268842 On ch=1 n=d5 v=49
268878 On ch=1 n=g5 v=0
268978 On ch=1 n=a#4 v=0
269068 Par ch=1 c=64 v=63
269120 On ch=1 n=b4 v=71
269172 Par ch=1 c=64 v=0
269310 Par ch=1 c=64 v=63
269356 Par ch=1 c=64 v=127
269476 On ch=1 n=c5 v=59
269510 Par ch=1 c=64 v=63
269550 On ch=1 n=b4 v=0
269560 Par ch=1 c=64 v=0
269650 Par ch=1 c=64 v=63
269768 Par ch=1 c=64 v=127
269814 On ch=1 n=a#4 v=54
269896 On ch=1 n=c5 v=0
269996 On ch=1 n=a#4 v=0
270152 On ch=1 n=a#4 v=60
270300 Par ch=1 c=64 v=63
270430 Par ch=1 c=64 v=0
270468 On ch=1 n=g#4 v=70
270532 On ch=1 n=a#4 v=0
270562 On ch=1 n=d5 v=0
270630 On ch=1 n=f5 v=0
270774 On ch=1 n=g4 v=60
270938 On ch=1 n=g#4 v=0
271172 On ch=1 n=f4 v=53
271224 On ch=1 n=g4 v=0
271534 Par ch=1 c=64 v=63
271554 Par ch=1 c=64 v=127
271624 On ch=1 n=d#4 v=52
271626 On ch=1 n=a#5 v=52
271770 On ch=1 n=f4 v=0
271820 Par ch=1 c=64 v=63
271858 On ch=1 n=a#6 v=82
271880 Par ch=1 c=64 v=0
271916 Par ch=1 c=64 v=63
271950 Par ch=1 c=64 v=127
272030 On ch=1 n=a#5 v=0
272462 On ch=1 n=g4 v=62
273066 On ch=1 n=a#4 v=72
273334 On ch=1 n=d#4 v=0
273338 On ch=1 n=g4 v=0
273704 On ch=1 n=d#5 v=73
273706 On ch=1 n=a#6 v=0
273720 On ch=1 n=g#6 v=91
273750 On ch=1 n=a#4 v=0
273876 On ch=1 n=g6 v=84
273930 On ch=1 n=g#6 v=0
274012 On ch=1 n=f6 v=83
274014 On ch=1 n=g6 v=0
274132 On ch=1 n=d#6 v=104
274148 On ch=1 n=f6 v=0
274306 On ch=1 n=d6 v=93
274340 On ch=1 n=g#5 v=64
274376 On ch=1 n=d#6 v=0
274400 On ch=1 n=d#5 v=0
274474 Par ch=1 c=64 v=63
274532 Par ch=1 c=64 v=0
274666 Par ch=1 c=64 v=63
274692 Par ch=1 c=64 v=127
274908 On ch=1 n=d6 v=0
274936 On ch=1 n=d#6 v=98
274938 On ch=1 n=g5 v=73
275028 On ch=1 n=g#5 v=0
275046 Par ch=1 c=64 v=63
275158 Par ch=1 c=64 v=127
275358 On ch=1 n=d#6 v=0
275414 On ch=1 n=g5 v=0
275574 On ch=1 n=f6 v=88
275578 On ch=1 n=g#5 v=62
275590 On ch=1 n=d6 v=61
275602 On ch=1 n=f5 v=56
275662 Par ch=1 c=64 v=63
275774 Par ch=1 c=64 v=127
275908 On ch=1 n=d6 v=0
275938 On ch=1 n=f6 v=0
275944 On ch=1 n=g#5 v=0
275964 On ch=1 n=f5 v=0
276296 On ch=1 n=g#6 v=80
276310 On ch=1 n=d#5 v=63
276326 On ch=1 n=d#6 v=55
276334 On ch=1 n=g5 v=53
276422 Par ch=1 c=64 v=63
276476 On ch=1 n=g#6 v=0
276478 On ch=1 n=g6 v=76
276592 Par ch=1 c=64 v=127
276626 On ch=1 n=f6 v=82
276634 On ch=1 n=g6 v=0
276746 On ch=1 n=g6 v=80
276796 On ch=1 n=f6 v=0
276872 On ch=1 n=g5 v=0
276876 On ch=1 n=d#6 v=0
276904 On ch=1 n=d#5 v=0
276922 Par ch=1 c=64 v=63
276924 On ch=1 n=f6 v=64
276930 On ch=1 n=g6 v=0
276938 On ch=1 n=g#6 v=78
276956 On ch=1 n=d5 v=47
276966 Par ch=1 c=64 v=0
276974 On ch=1 n=f5 v=47
277134 Par ch=1 c=64 v=63
277154 Par ch=1 c=64 v=127
277350 On ch=1 n=g#6 v=0
277376 On ch=1 n=f6 v=0
277718 On ch=1 n=a#5 v=63
277850 On ch=1 n=a#5 v=0
278402 On ch=1 n=a#5 v=46
278464 On ch=1 n=f5 v=0
278476 On ch=1 n=d5 v=0
278480 Par ch=1 c=64 v=63
278652 Par ch=1 c=64 v=127
278812 On ch=1 n=a#5 v=0
279124 On ch=1 n=a#5 v=27
279394 On ch=1 n=a#5 v=0
280060 On ch=1 n=g#6 v=51
280392 Par ch=1 c=64 v=63
280750 Par ch=1 c=64 v=127
280802 On ch=1 n=a#4 v=47
281452 On ch=1 n=d5 v=60
281538 On ch=1 n=a#4 v=0
281646 On ch=1 n=g#6 v=0
282088 On ch=1 n=f5 v=52
282102 On ch=1 n=a#6 v=76
282172 On ch=1 n=d5 v=0
282228 On ch=1 n=g#6 v=84
282236 On ch=1 n=a#6 v=0
282366 On ch=1 n=g6 v=80
282384 On ch=1 n=g#6 v=0
282480 On ch=1 n=g6 v=0
282484 On ch=1 n=f6 v=78
282610 Par ch=1 c=64 v=63
282616 On ch=1 n=g5 v=54
282626 On ch=1 n=f5 v=0
282648 On ch=1 n=d#6 v=91
282650 On ch=1 n=f6 v=0
282652 Par ch=1 c=64 v=0
282778 Par ch=1 c=64 v=63
282808 Par ch=1 c=64 v=127
282978 On ch=1 n=d#6 v=0
282992 On ch=1 n=g5 v=0
283272 On ch=1 n=f6 v=97
283274 On ch=1 n=a#5 v=66
283282 On ch=1 n=g#5 v=53
283288 On ch=1 n=d6 v=68
283370 Par ch=1 c=64 v=63
283486 Par ch=1 c=64 v=127
283860 On ch=1 n=f6 v=0
283882 On ch=1 n=d6 v=0
283888 On ch=1 n=g6 v=90
283898 On ch=1 n=d#6 v=73
283902 On ch=1 n=g5 v=52
283944 On ch=1 n=g#5 v=0
283988 Par ch=1 c=64 v=63
284124 Par ch=1 c=64 v=127
284224 On ch=1 n=g6 v=0
284242 On ch=1 n=d#6 v=0
284342 On ch=1 n=a#5 v=0
284470 On ch=1 n=g5 v=0
284596 On ch=1 n=g#5 v=58
284610 On ch=1 n=a#6 v=81
284622 On ch=1 n=f5 v=43
284632 On ch=1 n=f6 v=52
284700 Par ch=1 c=64 v=63
284780 On ch=1 n=g#6 v=88
284806 On ch=1 n=a#6 v=0
284826 Par ch=1 c=64 v=127
284930 On ch=1 n=g6 v=83
284938 On ch=1 n=g#6 v=0
284940 On ch=1 n=f5 v=0
285028 On ch=1 n=g#6 v=99
285080 On ch=1 n=g6 v=0
285128 On ch=1 n=f6 v=0
285226 On ch=1 n=a#6 v=89
285234 On ch=1 n=g6 v=78
285236 Par ch=1 c=64 v=63
285246 On ch=1 n=g5 v=44
285260 On ch=1 n=g#6 v=0
285266 On ch=1 n=d#5 v=45
285274 Par ch=1 c=64 v=0
285300 On ch=1 n=g#5 v=0
285388 Par ch=1 c=64 v=63
285406 Par ch=1 c=64 v=127
285524 On ch=1 n=g5 v=0
285576 On ch=1 n=d#5 v=0
286046 On ch=1 n=d#3 v=32
286050 On ch=1 n=d#4 v=42
286164 On ch=1 n=d#3 v=0
286178 On ch=1 n=d#4 v=0
286724 On ch=1 n=d#4 v=39
286752 On ch=1 n=d#3 v=42
286862 On ch=1 n=d#4 v=0
286868 On ch=1 n=d#3 v=0
286874 On ch=1 n=g6 v=0
286900 On ch=1 n=a#6 v=0
287386 Par ch=1 c=64 v=63
287494 On ch=1 n=d#4 v=25
287508 On ch=1 n=d#3 v=22
287644 Par ch=1 c=64 v=0
288358 On ch=1 n=d#3 v=0
288400 On ch=1 n=d#4 v=0
288432 On ch=1 n=c#6 v=57
288442 Par ch=1 c=64 v=63
288472 Par ch=1 c=64 v=127
289278 On ch=1 n=d#5 v=32
289304 On ch=1 n=g4 v=38
289474 On ch=1 n=g4 v=0
289492 On ch=1 n=d#5 v=0
289664 On ch=1 n=c#6 v=0
290022 On ch=1 n=d#5 v=46
290066 On ch=1 n=g4 v=37
290310 On ch=1 n=g4 v=0
290324 On ch=1 n=d#5 v=0
290378 On ch=1 n=d#6 v=71
290454 On ch=1 n=d#6 v=0
290458 On ch=1 n=c#6 v=60
290530 On ch=1 n=c#6 v=0
290542 On ch=1 n=c6 v=69
290602 On ch=1 n=c#6 v=70
290644 On ch=1 n=c6 v=0
290698 On ch=1 n=d#5 v=39
290708 On ch=1 n=g4 v=36
290718 On ch=1 n=d#6 v=79
290772 On ch=1 n=c#6 v=0
291088 On ch=1 n=f6 v=89
291168 On ch=1 n=d#6 v=0
291168 On ch=1 n=g4 v=0
291188 On ch=1 n=d#5 v=0
291360 On ch=1 n=d#6 v=93
291374 On ch=1 n=d#5 v=63
291396 On ch=1 n=g4 v=50
291438 On ch=1 n=f6 v=0
291470 Par ch=1 c=64 v=63
291566 Par ch=1 c=64 v=0
291610 Par ch=1 c=64 v=63
291644 On ch=1 n=c#6 v=89
291674 Par ch=1 c=64 v=127
291740 On ch=1 n=d#6 v=0
291784 On ch=1 n=d#5 v=0
291812 On ch=1 n=g4 v=0
291924 On ch=1 n=c#6 v=0
291942 On ch=1 n=d#5 v=77
291946 On ch=1 n=c6 v=90
291952 On ch=1 n=g4 v=68
292122 Par ch=1 c=64 v=63
292216 On ch=1 n=b5 v=96
292292 On ch=1 n=c6 v=0
292312 Par ch=1 c=64 v=127
292504 On ch=1 n=b5 v=0
292536 On ch=1 n=g4 v=0
292542 On ch=1 n=d#5 v=0
292552 On ch=1 n=b5 v=98
293152 On ch=1 n=d#5 v=65
293168 On ch=1 n=g4 v=40
293250 Par ch=1 c=64 v=63
293314 Par ch=1 c=64 v=0
293426 Par ch=1 c=64 v=63
293460 Par ch=1 c=64 v=127
293776 On ch=1 n=g#4 v=77
293784 On ch=1 n=g4 v=0
293922 Par ch=1 c=64 v=63
294098 Par ch=1 c=64 v=127
294148 On ch=1 n=c6 v=89
294202 On ch=1 n=b5 v=0
294362 On ch=1 n=g#4 v=0
294376 On ch=1 n=d#5 v=0
294460 On ch=1 n=d#5 v=64
294464 On ch=1 n=d#6 v=94
294492 On ch=1 n=g#4 v=61
294552 On ch=1 n=c6 v=0
294592 Par ch=1 c=64 v=63
294722 Par ch=1 c=64 v=127
294736 On ch=1 n=d6 v=88
294820 On ch=1 n=d#6 v=0
294898 On ch=1 n=g#4 v=0
294902 On ch=1 n=d#5 v=0
295038 On ch=1 n=d#5 v=76
295048 On ch=1 n=f6 v=86
295052 On ch=1 n=g#4 v=68
295102 On ch=1 n=d6 v=0
295180 Par ch=1 c=64 v=63
295272 Par ch=1 c=64 v=127
295348 On ch=1 n=d#6 v=88
295420 On ch=1 n=f6 v=0
295532 On ch=1 n=g#4 v=0
295536 On ch=1 n=d#5 v=0
295614 On ch=1 n=d6 v=82
295634 On ch=1 n=d#5 v=76
295654 On ch=1 n=g#4 v=74
295690 On ch=1 n=d#6 v=0
295738 Par ch=1 c=64 v=63
295830 Par ch=1 c=64 v=127
295910 On ch=1 n=c6 v=77
295948 On ch=1 n=d6 v=0
295968 On ch=1 n=d#5 v=0
295998 On ch=1 n=g#4 v=0
296198 On ch=1 n=c6 v=0
296202 On ch=1 n=g4 v=65
296208 On ch=1 n=d#5 v=72
296210 On ch=1 n=a#5 v=77
296274 Par ch=1 c=64 v=63
296392 Par ch=1 c=64 v=127
296448 On ch=1 n=b5 v=77
296450 On ch=1 n=a#5 v=0
296538 On ch=1 n=g4 v=0
296542 On ch=1 n=d#5 v=0
296614 On ch=1 n=b5 v=0
296614 On ch=1 n=c6 v=82
296772 On ch=1 n=c#6 v=84
296790 On ch=1 n=d#5 v=82
296798 On ch=1 n=g#4 v=81
296812 On ch=1 n=c6 v=0
296828 Par ch=1 c=64 v=63
296958 On ch=1 n=d6 v=87
296978 Par ch=1 c=64 v=127
296998 On ch=1 n=c#6 v=0
297096 On ch=1 n=d#5 v=0
297152 On ch=1 n=g#4 v=0
297152 On ch=1 n=d#6 v=90
297188 On ch=1 n=d6 v=0
297376 On ch=1 n=d#6 v=0
297484 On ch=1 n=d#6 v=98
297490 On ch=1 n=g4 v=58
297492 On ch=1 n=a#3 v=69
297658 On ch=1 n=d#5 v=94
297666 On ch=1 n=d#6 v=0
297784 Par ch=1 c=64 v=63
297826 Par ch=1 c=64 v=0
297934 Par ch=1 c=64 v=63
297958 Par ch=1 c=64 v=127
298122 On ch=1 n=a#3 v=0
298172 On ch=1 n=g4 v=0
298340 On ch=1 n=a#3 v=85
298342 On ch=1 n=g4 v=76
298644 On ch=1 n=a#3 v=0
298670 On ch=1 n=g4 v=0
298724 On ch=1 n=d#5 v=0
298974 On ch=1 n=g5 v=72
298978 On ch=1 n=g#4 v=60
298982 On ch=1 n=a#3 v=53
298982 On ch=1 n=d5 v=64
299144 Par ch=1 c=64 v=63
299284 Par ch=1 c=64 v=127
299322 On ch=1 n=f5 v=87
299378 On ch=1 n=g5 v=0
299546 On ch=1 n=a#3 v=0
299574 On ch=1 n=g#4 v=0
299626 On ch=1 n=d#5 v=91
299656 On ch=1 n=g#4 v=54
299664 On ch=1 n=a#3 v=48
299704 On ch=1 n=f5 v=0
299864 Par ch=1 c=64 v=63
299916 Par ch=1 c=64 v=0
299944 On ch=1 n=f5 v=86
299998 Par ch=1 c=64 v=63
300008 On ch=1 n=d#5 v=0
300024 Par ch=1 c=64 v=127
300066 On ch=1 n=a#3 v=0
300146 On ch=1 n=d5 v=0
300324 On ch=1 n=d#5 v=87
300352 On ch=1 n=g4 v=67
300352 On ch=1 n=d#4 v=61
300414 On ch=1 n=g#4 v=0
300474 On ch=1 n=f5 v=0
300592 On ch=1 n=g4 v=0
300644 Par ch=1 c=64 v=63
300720 On ch=1 n=d#4 v=0
300722 Par ch=1 c=64 v=0
300730 On ch=1 n=d#4 v=57
300876 Par ch=1 c=64 v=63
300904 Par ch=1 c=64 v=127
301064 On ch=1 n=g4 v=65
301138 On ch=1 n=d#4 v=0
301316 On ch=1 n=a#4 v=67
301476 On ch=1 n=a#4 v=0
301524 On ch=1 n=g4 v=0
301616 On ch=1 n=g#4 v=89
301802 On ch=1 n=d#5 v=0
301898 On ch=1 n=a#4 v=82
301972 Par ch=1 c=64 v=63
302064 Par ch=1 c=64 v=0
302182 On ch=1 n=g4 v=76
302196 On ch=1 n=a#5 v=101
302198 On ch=1 n=d#5 v=92
302242 Par ch=1 c=64 v=63
302250 On ch=1 n=g#4 v=0
302268 Par ch=1 c=64 v=127
302278 On ch=1 n=a#4 v=0
302500 On ch=1 n=a#4 v=82
302576 On ch=1 n=a#5 v=0
302626 On ch=1 n=d#5 v=0
302770 On ch=1 n=a#5 v=100
302776 On ch=1 n=a#4 v=0
302784 On ch=1 n=f5 v=91
302798 On ch=1 n=f4 v=71
302854 On ch=1 n=g4 v=0
302906 Par ch=1 c=64 v=63
302962 Par ch=1 c=64 v=0
303084 On ch=1 n=a#4 v=91
303084 Par ch=1 c=64 v=63
303112 Par ch=1 c=64 v=127
303136 On ch=1 n=a#5 v=0
303298 On ch=1 n=f5 v=0
303384 On ch=1 n=a#5 v=105
303386 On ch=1 n=d#4 v=90
303390 On ch=1 n=g5 v=89
303414 On ch=1 n=a#4 v=0
303468 On ch=1 n=f4 v=0
303488 Par ch=1 c=64 v=63
303624 Par ch=1 c=64 v=127
303756 On ch=1 n=a#4 v=81
303782 On ch=1 n=g5 v=0
303804 On ch=1 n=a#5 v=0
304032 On ch=1 n=a#4 v=0
304040 On ch=1 n=d#4 v=0
304122 On ch=1 n=a#5 v=99
304128 On ch=1 n=g#5 v=92
304134 On ch=1 n=d4 v=79
304320 Par ch=1 c=64 v=63
304376 Par ch=1 c=64 v=0
304500 Par ch=1 c=64 v=63
304508 On ch=1 n=f4 v=75
304528 Par ch=1 c=64 v=127
304802 On ch=1 n=d4 v=0
304842 On ch=1 n=g#4 v=73
304894 On ch=1 n=f4 v=0
304920 On ch=1 n=a#5 v=0
304966 On ch=1 n=g#5 v=0
304978 On ch=1 n=c6 v=72
305050 On ch=1 n=g#4 v=0
305110 On ch=1 n=a#5 v=80
305124 On ch=1 n=g4 v=59
305140 On ch=1 n=c6 v=0
305236 On ch=1 n=a5 v=67
305252 On ch=1 n=a#5 v=0
305368 Par ch=1 c=64 v=63
305398 On ch=1 n=a#5 v=90
305402 On ch=1 n=a5 v=0
305406 On ch=1 n=f4 v=77
305450 Par ch=1 c=64 v=0
305470 On ch=1 n=g4 v=0
305508 Par ch=1 c=64 v=63
305566 Par ch=1 c=64 v=127
305668 On ch=1 n=d#4 v=100
305704 On ch=1 n=a#5 v=0
305716 On ch=1 n=f4 v=0
305938 On ch=1 n=a#5 v=109
305946 On ch=1 n=d4 v=67
305950 On ch=1 n=d5 v=93
305954 Par ch=1 c=64 v=63
305978 On ch=1 n=d#4 v=0
306094 Par ch=1 c=64 v=127
306194 On ch=1 n=d5 v=0
306198 On ch=1 n=c4 v=100
306252 On ch=1 n=d4 v=0
306268 On ch=1 n=a#5 v=0
306452 On ch=1 n=c6 v=106
306462 On ch=1 n=d#5 v=96
306472 On ch=1 n=a#3 v=88
306474 Par ch=1 c=64 v=63
306504 Par ch=1 c=64 v=0
306512 On ch=1 n=c4 v=0
306614 Par ch=1 c=64 v=63
306640 Par ch=1 c=64 v=127
306750 On ch=1 n=c4 v=100
306790 On ch=1 n=d#5 v=0
306806 On ch=1 n=a#3 v=0
306806 On ch=1 n=c6 v=0
307020 On ch=1 n=d6 v=107
307026 On ch=1 n=g#3 v=95
307028 On ch=1 n=f5 v=93
307070 On ch=1 n=c4 v=0
307086 Par ch=1 c=64 v=63
307116 Par ch=1 c=64 v=0
307196 Par ch=1 c=64 v=63
307230 Par ch=1 c=64 v=127
307310 On ch=1 n=a#3 v=108
307326 On ch=1 n=d6 v=0
307330 On ch=1 n=f5 v=0
307370 On ch=1 n=g#3 v=0
307600 On ch=1 n=g3 v=83
307602 On ch=1 n=d#6 v=110
307608 On ch=1 n=d#5 v=97
307660 On ch=1 n=a#3 v=0
307698 Par ch=1 c=64 v=63
307718 Par ch=1 c=64 v=0
307820 Par ch=1 c=64 v=63
307846 Par ch=1 c=64 v=127
307904 On ch=1 n=d#5 v=0
307940 On ch=1 n=a#3 v=86
308140 On ch=1 n=g3 v=0
308240 On ch=1 n=d#4 v=90
308268 On ch=1 n=a#3 v=0
308368 On ch=1 n=f6 v=84
308378 On ch=1 n=d#6 v=0
308490 On ch=1 n=d#4 v=0
308502 On ch=1 n=g6 v=86
308506 On ch=1 n=a#3 v=74
308534 On ch=1 n=f6 v=0
308632 On ch=1 n=d#6 v=100
308676 On ch=1 n=g6 v=0
308808 On ch=1 n=d#6 v=0
308822 On ch=1 n=a#5 v=83
308830 On ch=1 n=a#3 v=0
308832 Par ch=1 c=64 v=63
308842 On ch=1 n=g4 v=65
308874 Par ch=1 c=64 v=0
309042 Par ch=1 c=64 v=63
309062 Par ch=1 c=64 v=127
309144 On ch=1 n=a#5 v=0
309192 On ch=1 n=g4 v=0
309610 On ch=1 n=d#4 v=46
309624 On ch=1 n=a#5 v=67
309626 On ch=1 n=g4 v=41
309638 On ch=1 n=g5 v=54
309666 Par ch=1 c=64 v=63
309718 Par ch=1 c=64 v=0
309950 Par ch=1 c=64 v=63
309964 Par ch=1 c=64 v=127
310084 On ch=1 n=d#4 v=0
310178 On ch=1 n=a#5 v=0
310188 On ch=1 n=g4 v=0
310202 On ch=1 n=g5 v=0
310312 On ch=1 n=g#5 v=64
310324 On ch=1 n=g#4 v=55
310328 On ch=1 n=f5 v=60
310348 On ch=1 n=f4 v=59
310390 Par ch=1 c=64 v=63
310446 Par ch=1 c=64 v=127
310646 On ch=1 n=g#5 v=0
310728 On ch=1 n=f4 v=0
310764 On ch=1 n=g#4 v=0
310804 On ch=1 n=f5 v=0
310946 On ch=1 n=g5 v=73
310962 On ch=1 n=g4 v=42
310962 On ch=1 n=a#4 v=49
310970 On ch=1 n=d#5 v=50
311066 Par ch=1 c=64 v=63
311114 Par ch=1 c=64 v=0
311162 Par ch=1 c=64 v=63
311216 Par ch=1 c=64 v=127
311422 On ch=1 n=a#4 v=0
311522 On ch=1 n=d#5 v=0
311538 On ch=1 n=g4 v=0
311680 On ch=1 n=g5 v=0
311718 On ch=1 n=f5 v=63
311726 On ch=1 n=g#4 v=45
311738 On ch=1 n=c5 v=37
311894 Par ch=1 c=64 v=63
311958 Par ch=1 c=64 v=0
312298 Par ch=1 c=64 v=63
312310 Par ch=1 c=64 v=127
312696 On ch=1 n=f5 v=0
312720 On ch=1 n=g5 v=55
312840 On ch=1 n=g#5 v=60
312896 On ch=1 n=g5 v=0
313006 On ch=1 n=f5 v=65
313020 On ch=1 n=g#5 v=0
313070 Par ch=1 c=64 v=63
313140 Par ch=1 c=64 v=0
313168 On ch=1 n=f5 v=0
313188 On ch=1 n=c6 v=60
313202 On ch=1 n=c5 v=0
313234 Par ch=1 c=64 v=63
313274 Par ch=1 c=64 v=127
313382 On ch=1 n=g#4 v=0
313472 On ch=1 n=c6 v=0
313892 Par ch=1 c=64 v=63
313914 On ch=1 n=g#5 v=64
313950 On ch=1 n=c5 v=30
313952 On ch=1 n=g#3 v=42
313954 On ch=1 n=f4 v=33
314048 Par ch=1 c=64 v=127
314170 On ch=1 n=c5 v=0
314170 On ch=1 n=g#5 v=0
314182 On ch=1 n=g#3 v=0
314204 On ch=1 n=f4 v=0
314608 On ch=1 n=d#5 v=70
314610 On ch=1 n=a#4 v=49
314622 On ch=1 n=g4 v=31
314642 On ch=1 n=a#3 v=42
314652 Par ch=1 c=64 v=63
314808 Par ch=1 c=64 v=127
314934 On ch=1 n=a#4 v=0
314974 On ch=1 n=g4 v=0
315180 On ch=1 n=d#5 v=0
315310 On ch=1 n=g#4 v=44
315318 On ch=1 n=f5 v=61
315328 On ch=1 n=d5 v=55
315366 Par ch=1 c=64 v=63
315518 Par ch=1 c=64 v=127
315662 On ch=1 n=d5 v=0
315690 On ch=1 n=f5 v=0
315696 On ch=1 n=a#3 v=0
315706 On ch=1 n=g#4 v=0
316094 On ch=1 n=f5 v=54
316110 On ch=1 n=d5 v=24
316122 On ch=1 n=d#4 v=54
316130 On ch=1 n=g#4 v=30
316214 Par ch=1 c=64 v=63
316280 Par ch=1 c=64 v=0
316414 Par ch=1 c=64 v=63
316542 Par ch=1 c=64 v=127
316566 Par ch=1 c=64 v=63
316640 Par ch=1 c=64 v=0
316822 Par ch=1 c=64 v=63
316844 Par ch=1 c=64 v=127
317110 On ch=1 n=g#4 v=0
317176 On ch=1 n=f#5 v=55
317334 On ch=1 n=f5 v=0
317532 On ch=1 n=f#5 v=0
317558 On ch=1 n=d5 v=0
317632 Par ch=1 c=64 v=63
317634 On ch=1 n=g4 v=25
317650 On ch=1 n=g5 v=48
317664 On ch=1 n=d#5 v=27
317672 Par ch=1 c=64 v=0
317714 Par ch=1 c=64 v=63
317768 Par ch=1 c=64 v=127
317808 On ch=1 n=d#4 v=0
317852 On ch=1 n=g4 v=0
317940 On ch=1 n=d#5 v=0
317956 On ch=1 n=g5 v=0
318140 On ch=1 n=d#5 v=58
318610 On ch=1 n=g5 v=50
318612 On ch=1 n=d#6 v=50
318612 On ch=1 n=a#6 v=82
318762 Par ch=1 c=64 v=63
318916 Par ch=1 c=64 v=127
318978 On ch=1 n=a#5 v=75
319080 On ch=1 n=g5 v=0
319116 On ch=1 n=d#6 v=0
319162 On ch=1 n=a#6 v=0
319280 On ch=1 n=a#6 v=96
319306 On ch=1 n=f6 v=73
319308 On ch=1 n=g#5 v=77
319412 On ch=1 n=a#5 v=0
319512 On ch=1 n=d#5 v=0
319606 On ch=1 n=g5 v=93
319634 On ch=1 n=f6 v=0
319642 On ch=1 n=g#5 v=0
319658 On ch=1 n=a#6 v=0
319876 On ch=1 n=a#6 v=108
319878 On ch=1 n=g6 v=94
319896 On ch=1 n=f5 v=88
319932 On ch=1 n=g5 v=0
320090 On ch=1 n=g6 v=0
320178 On ch=1 n=a#6 v=0
320200 On ch=1 n=d#5 v=99
320226 On ch=1 n=f5 v=0
320498 On ch=1 n=d#5 v=0
320528 On ch=1 n=a#6 v=106
320554 On ch=1 n=g#6 v=85
320562 On ch=1 n=d5 v=79
320700 Par ch=1 c=64 v=63
320738 Par ch=1 c=64 v=0
320880 On ch=1 n=f5 v=89
320920 Par ch=1 c=64 v=63
320936 Par ch=1 c=64 v=127
321170 On ch=1 n=g#5 v=89
321198 On ch=1 n=f5 v=0
321206 On ch=1 n=a#6 v=0
321228 On ch=1 n=g#6 v=0
321302 On ch=1 n=c7 v=92
321394 On ch=1 n=d5 v=0
321426 On ch=1 n=a#6 v=91
321458 On ch=1 n=g5 v=85
321464 On ch=1 n=c7 v=0
321474 On ch=1 n=g#5 v=0
321560 On ch=1 n=a6 v=97
321602 On ch=1 n=a#6 v=0
321662 Par ch=1 c=64 v=63
321674 On ch=1 n=a6 v=0
321724 On ch=1 n=a#6 v=104
321726 Par ch=1 c=64 v=0
321730 On ch=1 n=f5 v=88
321746 On ch=1 n=g5 v=0
321814 Par ch=1 c=64 v=63
321850 Par ch=1 c=64 v=127
321968 On ch=1 n=a#6 v=0
321986 On ch=1 n=d#5 v=105
322030 On ch=1 n=f5 v=0
322266 On ch=1 n=a#6 v=114
322280 On ch=1 n=d5 v=89
322284 On ch=1 n=d6 v=91
322294 Par ch=1 c=64 v=63
322306 On ch=1 n=d#5 v=0
322458 Par ch=1 c=64 v=127
322554 On ch=1 n=d6 v=0
322574 On ch=1 n=c5 v=104
322596 On ch=1 n=a#6 v=0
322598 On ch=1 n=d5 v=0
322840 On ch=1 n=c7 v=107
322842 On ch=1 n=a#4 v=97
322852 On ch=1 n=d#6 v=92
322878 On ch=1 n=c5 v=0
322922 Par ch=1 c=64 v=63
322972 Par ch=1 c=64 v=0
323040 Par ch=1 c=64 v=63
323074 Par ch=1 c=64 v=127
323130 On ch=1 n=c5 v=101
323162 On ch=1 n=d#6 v=0
323184 On ch=1 n=a#4 v=0
323384 On ch=1 n=c7 v=0
323414 On ch=1 n=d7 v=104
323428 On ch=1 n=f6 v=92
323430 On ch=1 n=g#4 v=98
323470 On ch=1 n=c5 v=0
323486 Par ch=1 c=64 v=63
323528 Par ch=1 c=64 v=0
323612 Par ch=1 c=64 v=63
323648 Par ch=1 c=64 v=127
323724 On ch=1 n=a#4 v=106
323728 On ch=1 n=d7 v=0
323738 On ch=1 n=f6 v=0
323786 On ch=1 n=g#4 v=0
324066 On ch=1 n=g4 v=85
324092 On ch=1 n=d#7 v=109
324096 On ch=1 n=d#6 v=104
324104 On ch=1 n=a#4 v=0
324188 Par ch=1 c=64 v=63
324216 Par ch=1 c=64 v=0
324376 Par ch=1 c=64 v=63
324396 Par ch=1 c=64 v=127
324440 On ch=1 n=a#4 v=88
324498 On ch=1 n=g4 v=0
324578 On ch=1 n=d#6 v=0
324732 On ch=1 n=a#4 v=0
324740 On ch=1 n=c5 v=97
324774 On ch=1 n=d#7 v=0
324878 On ch=1 n=d7 v=88
325042 On ch=1 n=d7 v=0
325042 On ch=1 n=d#7 v=99
325076 On ch=1 n=d5 v=74
325080 On ch=1 n=c5 v=0
325218 On ch=1 n=a#6 v=92
325234 On ch=1 n=d#7 v=0
325416 On ch=1 n=a#6 v=0
325428 On ch=1 n=g6 v=84
325432 On ch=1 n=d#5 v=69
325486 On ch=1 n=d5 v=0
325490 Par ch=1 c=64 v=63
325554 Par ch=1 c=64 v=0
325688 Par ch=1 c=64 v=63
325728 Par ch=1 c=64 v=127
325824 On ch=1 n=g6 v=0
325832 On ch=1 n=d#5 v=0
326416 On ch=1 n=d#5 v=46
326424 On ch=1 n=a#6 v=76
326430 On ch=1 n=g5 v=41
326444 Par ch=1 c=64 v=63
326446 On ch=1 n=g6 v=40
326536 Par ch=1 c=64 v=0
326602 Par ch=1 c=64 v=63
326666 Par ch=1 c=64 v=127
326828 On ch=1 n=d#5 v=0
326844 On ch=1 n=g6 v=0
326878 On ch=1 n=g5 v=0
326910 On ch=1 n=a#6 v=0
327144 On ch=1 n=g#5 v=63
327150 On ch=1 n=g#6 v=78
327158 On ch=1 n=f6 v=58
327162 On ch=1 n=f5 v=56
327230 Par ch=1 c=64 v=63
327280 Par ch=1 c=64 v=127
327476 On ch=1 n=g#6 v=0
327520 On ch=1 n=f5 v=0
327544 On ch=1 n=f6 v=0
327556 On ch=1 n=g#5 v=0
327874 On ch=1 n=g6 v=54
327882 On ch=1 n=d#6 v=46
327892 On ch=1 n=a#5 v=45
327902 On ch=1 n=g5 v=37
327948 Par ch=1 c=64 v=63
328082 Par ch=1 c=64 v=127
328242 On ch=1 n=g6 v=0
328246 On ch=1 n=d#6 v=0
328338 On ch=1 n=a#5 v=0
328360 On ch=1 n=g5 v=0
328824 On ch=1 n=g#5 v=47
328856 On ch=1 n=c6 v=39
328894 On ch=1 n=e6 v=48
328954 Par ch=1 c=64 v=63
329096 On ch=1 n=f6 v=54
329144 Par ch=1 c=64 v=127
329150 On ch=1 n=e6 v=0
329276 On ch=1 n=g6 v=57
329286 On ch=1 n=f6 v=0
329372 On ch=1 n=g6 v=0
329384 On ch=1 n=f6 v=58
329516 On ch=1 n=g#6 v=90
329542 On ch=1 n=f6 v=0
329640 On ch=1 n=g6 v=84
329654 Par ch=1 c=64 v=63
329686 On ch=1 n=g#6 v=0
329778 On ch=1 n=a#6 v=94
329834 On ch=1 n=g6 v=0
329866 Par ch=1 c=64 v=0
329886 On ch=1 n=g#6 v=93
329996 On ch=1 n=a#6 v=0
330098 On ch=1 n=c7 v=85
330164 On ch=1 n=c6 v=0
330196 On ch=1 n=g#6 v=0
330302 On ch=1 n=g#5 v=0
331846 On ch=1 n=c7 v=0
331860 On ch=1 n=a#6 v=70
331870 On ch=1 n=g#5 v=18
331874 On ch=1 n=a#4 v=26
331892 On ch=1 n=d5 v=54
332058 Par ch=1 c=64 v=63
332168 Par ch=1 c=64 v=127
332738 On ch=1 n=d5 v=0
332738 On ch=1 n=f5 v=30
332786 On ch=1 n=a#6 v=0
333320 On ch=1 n=a#4 v=0
333378 On ch=1 n=d6 v=46
333398 On ch=1 n=f5 v=0
333404 On ch=1 n=g#5 v=0
333660 On ch=1 n=d#5 v=30
333666 On ch=1 n=d6 v=0
333676 On ch=1 n=d#6 v=42
333754 Par ch=1 c=64 v=63
333824 Par ch=1 c=64 v=0
333898 Par ch=1 c=64 v=63
333942 Par ch=1 c=64 v=127
334156 On ch=1 n=g5 v=34
334520 On ch=1 n=a#5 v=30
334572 On ch=1 n=d#6 v=0
334666 On ch=1 n=g5 v=0
334870 On ch=1 n=g5 v=24
334948 On ch=1 n=d#5 v=0
335174 On ch=1 n=d#5 v=43
335334 On ch=1 n=g5 v=0
335430 On ch=1 n=a#5 v=0
335482 On ch=1 n=g5 v=38
335772 On ch=1 n=c#7 v=77
335782 On ch=1 n=a#5 v=39
335812 On ch=1 n=g5 v=0
336050 On ch=1 n=a#5 v=0
336064 On ch=1 n=g5 v=59
336246 On ch=1 n=d#5 v=0
336328 On ch=1 n=g#5 v=66
336330 On ch=1 n=c7 v=81
336340 Par ch=1 c=64 v=63
336380 On ch=1 n=g5 v=0
336394 On ch=1 n=c#7 v=0
336508 Par ch=1 c=64 v=127
336610 On ch=1 n=g#5 v=0
336614 On ch=1 n=f5 v=71
336864 Par ch=1 c=64 v=63
336872 On ch=1 n=d7 v=92
336890 On ch=1 n=a#5 v=71
336926 On ch=1 n=c7 v=0
337042 Par ch=1 c=64 v=127
337060 On ch=1 n=f5 v=0
337168 On ch=1 n=g#5 v=78
337218 On ch=1 n=a#5 v=0
337414 Par ch=1 c=64 v=63
337452 On ch=1 n=f7 v=84
337466 On ch=1 n=g5 v=62
337490 Par ch=1 c=64 v=0
337492 On ch=1 n=d7 v=0
337514 On ch=1 n=g#5 v=0
337620 Par ch=1 c=64 v=63
337652 Par ch=1 c=64 v=127
337778 On ch=1 n=a#5 v=68
337784 On ch=1 n=g5 v=0
338040 On ch=1 n=a#5 v=0
338094 On ch=1 n=d#7 v=82
338100 On ch=1 n=g5 v=52
338190 On ch=1 n=f7 v=0
338212 Par ch=1 c=64 v=63
338338 Par ch=1 c=64 v=127
338374 On ch=1 n=f5 v=56
338402 On ch=1 n=g5 v=0
338488 On ch=1 n=f5 v=0
338508 On ch=1 n=d#7 v=0
338656 On ch=1 n=d#5 v=55
338930 On ch=1 n=c#5 v=62
338950 On ch=1 n=d#5 v=0
339180 On ch=1 n=c#6 v=85
339216 On ch=1 n=a#4 v=58
339266 On ch=1 n=c#5 v=0
339270 Par ch=1 c=64 v=63
339444 On ch=1 n=g4 v=68
339444 Par ch=1 c=64 v=127
339488 On ch=1 n=a#4 v=0
339694 On ch=1 n=g#4 v=76
339714 On ch=1 n=c6 v=92
339750 On ch=1 n=g4 v=0
339758 Par ch=1 c=64 v=63
339774 On ch=1 n=c#6 v=0
339912 Par ch=1 c=64 v=127
339992 On ch=1 n=f4 v=67
340022 On ch=1 n=g#4 v=0
340072 On ch=1 n=c6 v=0
340216 On ch=1 n=f4 v=0
340288 On ch=1 n=d6 v=92
340292 On ch=1 n=a#4 v=55
340302 On ch=1 n=g#5 v=67
340350 Par ch=1 c=64 v=63
340464 Par ch=1 c=64 v=127
340624 On ch=1 n=a#3 v=78
340656 On ch=1 n=d6 v=0
340666 On ch=1 n=g#5 v=0
340722 On ch=1 n=a#4 v=0
341028 On ch=1 n=f6 v=73
341042 On ch=1 n=g#5 v=60
341058 On ch=1 n=d#4 v=61
341166 On ch=1 n=a#3 v=0
341234 Par ch=1 c=64 v=63
341298 Par ch=1 c=64 v=0
341692 Par ch=1 c=64 v=63
341712 Par ch=1 c=64 v=127
341874 On ch=1 n=f6 v=0
341976 On ch=1 n=g#5 v=0
342590 On ch=1 n=d#6 v=39
342600 On ch=1 n=g5 v=38
342644 Par ch=1 c=64 v=63
342726 Par ch=1 c=64 v=127
342830 On ch=1 n=d#6 v=0
342862 On ch=1 n=g5 v=0
343200 Par ch=1 c=64 v=0
343402 On ch=1 n=d#4 v=0
343568 On ch=1 n=f5 v=37
343576 On ch=1 n=d5 v=28
343628 Par ch=1 c=64 v=63
343766 Par ch=1 c=64 v=0
344028 Par ch=1 c=64 v=63
344288 On ch=1 n=f5 v=0
344306 Par ch=1 c=64 v=127
344318 On ch=1 n=g5 v=52
344328 On ch=1 n=d#5 v=42
344352 On ch=1 n=d5 v=0
344726 On ch=1 n=d#5 v=0
344730 On ch=1 n=g5 v=0
345260 On ch=1 n=g#5 v=40
345274 On ch=1 n=a#3 v=47
345298 On ch=1 n=f5 v=31
345420 Par ch=1 c=64 v=63
345518 Par ch=1 c=64 v=127
345718 On ch=1 n=a#3 v=0
345746 On ch=1 n=f5 v=0
345762 On ch=1 n=g#5 v=0
346900 On ch=1 n=g#5 v=52
346902 On ch=1 n=f5 v=44
346910 On ch=1 n=d5 v=41
346912 On ch=1 n=d#4 v=35
346920 On ch=1 n=d#3 v=29
347052 Par ch=1 c=64 v=63
347206 Par ch=1 c=64 v=0
348684 Par ch=1 c=64 v=63
348734 Par ch=1 c=64 v=127
349590 On ch=1 n=d5 v=0
350042 On ch=1 n=f5 v=0
350112 On ch=1 n=g#5 v=0
350942 On ch=1 n=g5 v=31
350960 On ch=1 n=d#5 v=11
351408 Par ch=1 c=64 v=63
351934 Par ch=1 c=64 v=0
353540 On ch=1 n=d#5 v=0
353634 Par ch=1 c=64 v=63
353642 On ch=1 n=g5 v=0
353664 On ch=1 n=d#4 v=0
353690 Par ch=1 c=64 v=127
353692 On ch=1 n=d#3 v=0
354328 Par ch=1 c=64 v=63
354424 Par ch=1 c=64 v=0
354424 Meta TrkEnd
TrkEnd
MTrk
0 SeqSpec 43 00 01 00
0 Meta TrkName "                                    "
0 TimeSig 3/4 24 8
0 Meta TrkEnd
TrkEnd
MTrk
0 SeqSpec 43 00 01 00
0 Meta TrkName "                                    "
0 TimeSig 3/4 24 8
0 Meta TrkEnd
TrkEnd
MTrk
0 SeqSpec 43 00 01 00
0 Meta TrkName "                                    "
0 TimeSig 3/4 24 8
0 Meta TrkEnd
TrkEnd
MTrk
0 SeqSpec 43 00 01 00
0 Meta TrkName "                                    "
0 TimeSig 3/4 24 8
0 Meta TrkEnd
TrkEnd
MTrk
0 SeqSpec 43 00 01 00
0 Meta TrkName "                                    "
0 TimeSig 3/4 24 8
0 Meta TrkEnd
TrkEnd
MTrk
0 SeqSpec 43 00 01 00
0 Meta TrkName "                                    "
0 TimeSig 3/4 24 8
0 Meta TrkEnd
TrkEnd
MTrk
0 SeqSpec 43 00 01 00
0 Meta TrkName "                                    "
0 TimeSig 3/4 24 8
0 Meta TrkEnd
TrkEnd
MTrk
0 SeqSpec 43 00 01 00
0 Meta TrkName "                                    "
0 TimeSig 3/4 24 8
0 Meta TrkEnd
TrkEnd
MTrk
0 SeqSpec 43 00 01 00
0 Meta TrkName "                                    "
0 TimeSig 3/4 24 8
0 Meta TrkEnd
TrkEnd
MTrk
0 SeqSpec 43 00 01 00
0 Meta TrkName "                                    "
0 TimeSig 3/4 24 8
0 Meta TrkEnd
TrkEnd
MTrk
0 SeqSpec 43 00 01 00
0 Meta TrkName "                                    "
0 TimeSig 3/4 24 8
0 Meta TrkEnd
TrkEnd
MTrk
0 SeqSpec 43 00 01 00
0 Meta TrkName "                                    "
0 TimeSig 3/4 24 8
0 Meta TrkEnd
TrkEnd
MTrk
0 SeqSpec 43 00 01 00
0 Meta TrkName "                                    "
0 TimeSig 3/4 24 8
0 Meta TrkEnd
TrkEnd
MTrk
0 SeqSpec 43 00 01 00
0 Meta TrkName "                                    "
0 TimeSig 3/4 24 8
0 Meta TrkEnd
TrkEnd
MTrk
0 SeqSpec 43 00 01 00
0 Meta TrkName "                                    "
0 TimeSig 3/4 24 8
0 Meta TrkEnd
TrkEnd
MTrk
0 SeqSpec 43 00 01 00
0 Meta TrkName "                                    "
0 TimeSig 3/4 24 8
0 Meta TrkEnd
TrkEnd
