MFile 1 18 480
MTrk
0 Tempo 500000
0 TimeSig 4/4 24 8
0 Meta TrkEnd
TrkEnd
MTrk
0 SeqSpec 43 00 01 00
0 Meta TrkName "PIANO                               "
0 TimeSig 4/4 24 8
0 SysEx f0 41 10 42 12 40 00 7f 00 41 f7
0 SysEx f0 41 10 42 12 40 00 04 64 58 f7
340 SysEx f0 41 10 42 12 40 01 30 03 0c f7
340 SysEx f0 41 10 42 12 40 01 33 50 3c f7
340 SysEx f0 41 10 42 12 40 01 34 3c 4f f7
744 Par ch=1 c=0 v=0
748 Par ch=1 c=32 v=1
752 PrCh ch=1 p=0
756 Par ch=1 c=7 v=100
948 Par ch=1 c=11 v=100
1140 Par ch=1 c=10 v=64
1332 Par ch=1 c=1 v=0
1332 Par ch=1 c=91 v=80
1350 Par ch=1 c=99 v=1
1354 Par ch=1 c=98 v=32
1358 Par ch=1 c=6 v=62
1362 Par ch=1 c=99 v=1
1366 Par ch=1 c=98 v=33
1370 Par ch=1 c=6 v=54
1374 Par ch=1 c=99 v=1
1378 Par ch=1 c=98 v=99
1382 Par ch=1 c=6 v=62
1386 Par ch=1 c=99 v=1
1390 Par ch=1 c=98 v=100
1394 Par ch=1 c=6 v=60
1398 Par ch=1 c=99 v=1
1402 Par ch=1 c=98 v=102
1406 Par ch=1 c=6 v=70
2818 On ch=1 n=g6 v=84
2928 On ch=1 n=f6 v=85
2936 On ch=1 n=g6 v=0
2936 Par ch=1 c=64 v=63
2970 Par ch=1 c=64 v=127
3040 On ch=1 n=d#6 v=88
3082 On ch=1 n=f6 v=0
3134 On ch=1 n=d6 v=77
3136 On ch=1 n=d#6 v=0
3138 Par ch=1 c=64 v=63
3194 Par ch=1 c=64 v=0
3244 On ch=1 n=d6 v=0
3248 On ch=1 n=c6 v=82
3472 On ch=1 n=a#4 v=61
3494 On ch=1 n=a#5 v=69
3496 Par ch=1 c=64 v=63
3512 On ch=1 n=c6 v=0
3524 Par ch=1 c=64 v=127
3646 On ch=1 n=a#5 v=0
3720 On ch=1 n=a#5 v=77
3740 On ch=1 n=d5 v=60
3788 Par ch=1 c=64 v=63
3834 Par ch=1 c=64 v=0
3890 Par ch=1 c=64 v=63
3944 Par ch=1 c=64 v=127
3952 On ch=1 n=f5 v=50
3964 On ch=1 n=d5 v=0
4142 On ch=1 n=a#5 v=0
4162 On ch=1 n=d5 v=65
4190 On ch=1 n=a#4 v=0
4206 On ch=1 n=f5 v=0
4360 On ch=1 n=a#4 v=63
4368 On ch=1 n=d6 v=88
4402 On ch=1 n=d5 v=0
4570 Par ch=1 c=64 v=63
4592 On ch=1 n=d5 v=63
4596 On ch=1 n=g6 v=90
4640 Par ch=1 c=64 v=127
4680 On ch=1 n=d6 v=0
4786 On ch=1 n=g5 v=59
4810 On ch=1 n=d6 v=87
4866 On ch=1 n=d5 v=0
4888 On ch=1 n=g6 v=0
4934 On ch=1 n=a#4 v=0
5026 On ch=1 n=f6 v=87
5040 On ch=1 n=g5 v=0
5052 On ch=1 n=d6 v=0
5120 Par ch=1 c=64 v=63
5186 Par ch=1 c=64 v=0
5262 On ch=1 n=c5 v=64
5284 Par ch=1 c=64 v=63
5336 Par ch=1 c=64 v=127
5458 On ch=1 n=d#6 v=71
5466 On ch=1 n=d#5 v=70
5530 Par ch=1 c=64 v=63
5558 On ch=1 n=f6 v=0
5576 Par ch=1 c=64 v=0
5658 Par ch=1 c=64 v=63
5672 On ch=1 n=g5 v=52
5704 Par ch=1 c=64 v=127
5714 On ch=1 n=d#5 v=0
5820 On ch=1 n=d#6 v=0
5908 On ch=1 n=d#5 v=56
5950 On ch=1 n=g5 v=0
5958 On ch=1 n=c5 v=0
6122 On ch=1 n=f6 v=82
6128 On ch=1 n=d#5 v=0
6152 On ch=1 n=c5 v=49
6168 Par ch=1 c=64 v=63
6236 On ch=1 n=f6 v=0
6242 On ch=1 n=g6 v=86
6250 Par ch=1 c=64 v=127
6336 On ch=1 n=f6 v=84
6338 On ch=1 n=d#5 v=65
6366 On ch=1 n=g6 v=0
6396 Par ch=1 c=64 v=63
6446 On ch=1 n=d#6 v=75
6454 On ch=1 n=f6 v=0
6458 Par ch=1 c=64 v=0
6544 On ch=1 n=g5 v=56
6550 On ch=1 n=d6 v=79
6552 On ch=1 n=d#6 v=0
6612 On ch=1 n=d#5 v=0
6614 On ch=1 n=c5 v=0
6644 On ch=1 n=d6 v=0
6648 On ch=1 n=c6 v=79
6660 On ch=1 n=g5 v=0
6760 On ch=1 n=a#5 v=91
6774 On ch=1 n=c6 v=0
6982 On ch=1 n=f4 v=56
7010 Par ch=1 c=64 v=63
7042 Par ch=1 c=64 v=127
7200 On ch=1 n=a5 v=79
7234 On ch=1 n=c5 v=46
7258 On ch=1 n=a#5 v=0
7312 Par ch=1 c=64 v=63
7350 Par ch=1 c=64 v=0
7410 On ch=1 n=d#5 v=63
7438 Par ch=1 c=64 v=63
7466 On ch=1 n=c5 v=0
7484 Par ch=1 c=64 v=127
7608 On ch=1 n=a5 v=0
7644 On ch=1 n=d#5 v=0
7654 On ch=1 n=c5 v=55
7676 On ch=1 n=f4 v=0
7818 Par ch=1 c=64 v=63
7838 On ch=1 n=a5 v=77
7846 On ch=1 n=f4 v=59
7854 Par ch=1 c=64 v=0
7858 On ch=1 n=c5 v=0
8058 On ch=1 n=a#5 v=91
8080 On ch=1 n=c5 v=45
8102 Par ch=1 c=64 v=63
8106 On ch=1 n=a5 v=0
8132 Par ch=1 c=64 v=127
8250 On ch=1 n=d#5 v=67
8258 On ch=1 n=c6 v=94
8280 On ch=1 n=a#5 v=0
8316 On ch=1 n=f4 v=0
8366 On ch=1 n=c5 v=0
8386 On ch=1 n=d#5 v=0
8390 On ch=1 n=c6 v=0
8476 On ch=1 n=c6 v=96
8484 On ch=1 n=a5 v=71
8494 Par ch=1 c=64 v=63
8528 Par ch=1 c=64 v=0
8630 Par ch=1 c=64 v=63
8664 Par ch=1 c=64 v=127
8672 On ch=1 n=a#4 v=65
8842 Par ch=1 c=64 v=63
8872 Par ch=1 c=64 v=0
8898 On ch=1 n=d6 v=84
8904 On ch=1 n=c6 v=0
8910 On ch=1 n=a5 v=0
8910 On ch=1 n=a#5 v=72
8914 On ch=1 n=d5 v=57
9008 Par ch=1 c=64 v=63
9040 Par ch=1 c=64 v=127
9104 On ch=1 n=f5 v=42
9124 On ch=1 n=d5 v=0
9194 On ch=1 n=a#5 v=0
9222 On ch=1 n=d6 v=0
9292 On ch=1 n=a#4 v=0
9318 On ch=1 n=f5 v=0
9324 On ch=1 n=d5 v=63
9452 Par ch=1 c=64 v=63
9528 On ch=1 n=f6 v=86
9534 Par ch=1 c=64 v=0
9548 On ch=1 n=a#4 v=64
9554 On ch=1 n=d5 v=0
9624 On ch=1 n=e6 v=88
9650 On ch=1 n=f6 v=0
9710 On ch=1 n=e6 v=0
9738 On ch=1 n=g6 v=78
9742 On ch=1 n=d5 v=61
9826 On ch=1 n=f6 v=83
9858 On ch=1 n=g6 v=0
9930 On ch=1 n=d#6 v=91
9942 On ch=1 n=d5 v=0
9944 On ch=1 n=f5 v=59
9950 On ch=1 n=f6 v=0
9950 On ch=1 n=a#4 v=0
9958 Par ch=1 c=64 v=63
10020 On ch=1 n=d6 v=88
10032 Par ch=1 c=64 v=0
10048 On ch=1 n=d#6 v=0
10094 On ch=1 n=d6 v=0
10136 On ch=1 n=f5 v=0
10148 On ch=1 n=d#5 v=67
10154 On ch=1 n=d6 v=87
10380 On ch=1 n=c6 v=81
10392 On ch=1 n=d6 v=0
10402 On ch=1 n=g5 v=38
10412 On ch=1 n=d#5 v=0
10594 On ch=1 n=d5 v=72
10602 On ch=1 n=g5 v=0
10766 On ch=1 n=c6 v=0
10784 On ch=1 n=a#5 v=87
10806 On ch=1 n=d5 v=0
10816 On ch=1 n=f5 v=45
10882 On ch=1 n=a#5 v=0
11000 On ch=1 n=f5 v=0
11010 On ch=1 n=d#5 v=72
11010 On ch=1 n=d6 v=91
11110 Par ch=1 c=64 v=63
11178 Par ch=1 c=64 v=127
11220 Par ch=1 c=64 v=63
11226 On ch=1 n=d#5 v=0
11230 On ch=1 n=c6 v=77
11234 On ch=1 n=g5 v=44
11258 On ch=1 n=d6 v=0
11308 Par ch=1 c=64 v=0
11428 On ch=1 n=g5 v=0
11444 On ch=1 n=c5 v=69
11518 Par ch=1 c=64 v=63
11556 Par ch=1 c=64 v=127
11632 On ch=1 n=d#5 v=70
11642 On ch=1 n=c6 v=0
11650 On ch=1 n=a5 v=68
11682 On ch=1 n=c5 v=0
11722 On ch=1 n=a5 v=0
11834 On ch=1 n=d#5 v=0
11872 Par ch=1 c=64 v=63
11872 On ch=1 n=a#5 v=96
11882 On ch=1 n=d5 v=65
11898 On ch=1 n=f5 v=48
11952 On ch=1 n=a#5 v=0
11952 Par ch=1 c=64 v=0
11980 On ch=1 n=c6 v=85
12074 On ch=1 n=a#5 v=78
12102 On ch=1 n=c6 v=0
12116 Par ch=1 c=64 v=63
12168 On ch=1 n=a5 v=77
12170 On ch=1 n=a#5 v=0
12268 On ch=1 n=a#5 v=95
12274 On ch=1 n=a5 v=0
12280 Par ch=1 c=64 v=0
12342 On ch=1 n=a#5 v=0
12370 On ch=1 n=c6 v=83
12468 On ch=1 n=d6 v=84
12482 On ch=1 n=c6 v=0
12502 On ch=1 n=d5 v=0
12508 On ch=1 n=f5 v=0
12554 On ch=1 n=d#6 v=94
12558 On ch=1 n=d6 v=0
12636 On ch=1 n=d#6 v=0
12648 On ch=1 n=e6 v=88
12752 On ch=1 n=e6 v=0
12752 On ch=1 n=f6 v=87
12822 On ch=1 n=f6 v=0
12844 On ch=1 n=e6 v=84
12938 On ch=1 n=e6 v=0
12942 On ch=1 n=f6 v=91
13042 On ch=1 n=f6 v=0
13048 On ch=1 n=g6 v=87
13146 On ch=1 n=f6 v=73
13164 On ch=1 n=g6 v=0
13246 On ch=1 n=d#6 v=88
13286 On ch=1 n=f6 v=0
13338 On ch=1 n=d#6 v=0
13340 On ch=1 n=d6 v=83
13416 On ch=1 n=d6 v=0
13452 Par ch=1 c=64 v=63
13468 On ch=1 n=d#5 v=76
13468 On ch=1 n=d6 v=92
13674 Par ch=1 c=64 v=0
13684 On ch=1 n=d6 v=0
13696 On ch=1 n=c6 v=66
13696 On ch=1 n=g5 v=44
13740 On ch=1 n=d#5 v=0
13800 On ch=1 n=c6 v=0
13886 On ch=1 n=g5 v=0
13894 On ch=1 n=d5 v=63
13900 On ch=1 n=c6 v=77
13906 Par ch=1 c=64 v=63
14088 On ch=1 n=a#5 v=88
14096 Par ch=1 c=64 v=0
14110 On ch=1 n=c6 v=0
14116 On ch=1 n=d5 v=0
14120 On ch=1 n=f5 v=50
14162 On ch=1 n=a#5 v=0
14270 Par ch=1 c=64 v=63
14304 On ch=1 n=d6 v=92
14306 On ch=1 n=d#5 v=69
14306 Par ch=1 c=64 v=127
14318 On ch=1 n=f5 v=0
14442 Par ch=1 c=64 v=63
14510 Par ch=1 c=64 v=0
14520 On ch=1 n=c6 v=75
14526 On ch=1 n=g5 v=51
14544 On ch=1 n=d6 v=0
14564 On ch=1 n=d#5 v=0
14588 On ch=1 n=c6 v=0
14728 On ch=1 n=g5 v=0
14730 On ch=1 n=c5 v=51
14746 On ch=1 n=c6 v=84
14904 On ch=1 n=c6 v=0
14920 On ch=1 n=d#5 v=76
14932 On ch=1 n=a5 v=75
14942 On ch=1 n=c5 v=0
15008 On ch=1 n=a5 v=0
15058 On ch=1 n=d#5 v=0
15132 On ch=1 n=a#5 v=101
15150 On ch=1 n=f5 v=49
15152 On ch=1 n=d5 v=59
15180 Par ch=1 c=64 v=63
15192 Par ch=1 c=64 v=127
15202 On ch=1 n=a#5 v=0
15362 On ch=1 n=c6 v=80
15448 On ch=1 n=d6 v=89
15464 On ch=1 n=c6 v=0
15468 Par ch=1 c=64 v=63
15496 Par ch=1 c=64 v=0
15536 On ch=1 n=d#6 v=98
15544 On ch=1 n=d6 v=0
15608 On ch=1 n=d#6 v=0
15644 On ch=1 n=f6 v=84
15740 On ch=1 n=g6 v=89
15746 On ch=1 n=f6 v=0
15844 On ch=1 n=a6 v=93
15864 On ch=1 n=g6 v=0
15952 On ch=1 n=a#6 v=101
15966 On ch=1 n=a6 v=0
16006 On ch=1 n=f5 v=0
16020 On ch=1 n=a#6 v=0
16020 On ch=1 n=d5 v=0
16052 On ch=1 n=c7 v=84
16152 On ch=1 n=d7 v=91
16160 On ch=1 n=c7 v=0
16232 On ch=1 n=d#7 v=112
16264 On ch=1 n=d7 v=0
16334 On ch=1 n=f7 v=108
16338 On ch=1 n=d#7 v=0
16414 On ch=1 n=f7 v=0
16568 On ch=1 n=f7 v=106
16652 On ch=1 n=f7 v=0
16784 On ch=1 n=a4 v=104
16798 On ch=1 n=f7 v=99
16808 On ch=1 n=f6 v=91
16868 Par ch=1 c=64 v=0
16876 Par ch=1 c=64 v=127
17032 On ch=1 n=d#7 v=114
17094 On ch=1 n=f7 v=0
17240 On ch=1 n=d#7 v=0
17244 On ch=1 n=a#4 v=104
17272 On ch=1 n=a4 v=0
17444 On ch=1 n=d7 v=107
17592 On ch=1 n=d7 v=0
17592 Par ch=1 c=64 v=63
17628 Par ch=1 c=64 v=0
17638 On ch=1 n=a#4 v=0
17652 On ch=1 n=d#4 v=98
17660 On ch=1 n=d7 v=90
17708 On ch=1 n=f6 v=0
17756 On ch=1 n=d7 v=0
17768 On ch=1 n=d#4 v=0
17868 On ch=1 n=c7 v=96
17872 On ch=1 n=d#6 v=93
17912 On ch=1 n=d#6 v=0
17944 On ch=1 n=c7 v=0
18084 On ch=1 n=f4 v=86
18088 On ch=1 n=a#6 v=99
18112 On ch=1 n=d6 v=70
18122 On ch=1 n=a#6 v=0
18136 On ch=1 n=f4 v=0
18154 On ch=1 n=d6 v=0
18290 On ch=1 n=a6 v=103
18298 On ch=1 n=c6 v=96
18348 On ch=1 n=c6 v=0
18370 On ch=1 n=a6 v=0
18526 On ch=1 n=a#6 v=114
18532 On ch=1 n=d6 v=103
18556 Par ch=1 c=64 v=63
18562 Par ch=1 c=64 v=127
18570 On ch=1 n=d6 v=0
18592 On ch=1 n=a#6 v=0
18708 Par ch=1 c=64 v=63
18710 On ch=1 n=a#3 v=89
18716 Par ch=1 c=64 v=0
18812 On ch=1 n=a#3 v=0
18902 Par ch=1 c=64 v=63
18916 Par ch=1 c=64 v=127
18950 On ch=1 n=a#5 v=93
18956 On ch=1 n=d4 v=87
19006 Par ch=1 c=64 v=63
19024 Par ch=1 c=64 v=0
19042 On ch=1 n=d4 v=0
19158 On ch=1 n=f4 v=91
19232 On ch=1 n=f4 v=0
19406 On ch=1 n=a#4 v=75
19426 Par ch=1 c=64 v=63
19432 Par ch=1 c=64 v=127
19496 On ch=1 n=a#5 v=0
19528 On ch=1 n=a#4 v=0
19908 Par ch=1 c=64 v=63
19948 Par ch=1 c=64 v=127
19956 On ch=1 n=g5 v=62
20082 On ch=1 n=f5 v=67
20090 On ch=1 n=g5 v=0
20188 On ch=1 n=d#5 v=74
20230 On ch=1 n=f5 v=0
20292 On ch=1 n=d#5 v=0
20294 On ch=1 n=d5 v=68
20382 Par ch=1 c=64 v=63
20416 On ch=1 n=d5 v=0
20418 On ch=1 n=c5 v=75
20470 Par ch=1 c=64 v=127
20634 On ch=1 n=c5 v=0
20636 On ch=1 n=a#4 v=78
20654 On ch=1 n=a#3 v=60
20760 On ch=1 n=a#4 v=0
20862 On ch=1 n=a#4 v=73
20872 On ch=1 n=d4 v=61
20954 Par ch=1 c=64 v=63
20972 Par ch=1 c=64 v=0
21078 On ch=1 n=d4 v=0
21080 Par ch=1 c=64 v=63
21080 On ch=1 n=f4 v=56
21102 Par ch=1 c=64 v=127
21152 On ch=1 n=a#3 v=0
21292 On ch=1 n=d4 v=80
21294 On ch=1 n=a#4 v=0
21328 On ch=1 n=f4 v=0
21492 On ch=1 n=a#3 v=57
21504 On ch=1 n=a#5 v=78
21522 On ch=1 n=d4 v=0
21600 Par ch=1 c=64 v=63
21626 Par ch=1 c=64 v=0
21730 On ch=1 n=d4 v=73
21732 On ch=1 n=a5 v=83
21740 On ch=1 n=a#5 v=0
21744 Par ch=1 c=64 v=63
21784 Par ch=1 c=64 v=127
21946 On ch=1 n=g5 v=86
21954 On ch=1 n=g4 v=62
21974 On ch=1 n=a#3 v=0
21986 On ch=1 n=d4 v=0
22008 On ch=1 n=a5 v=0
22134 On ch=1 n=g4 v=0
22158 Par ch=1 c=64 v=63
22164 On ch=1 n=f5 v=88
22192 Par ch=1 c=64 v=0
22210 On ch=1 n=g5 v=0
22332 Par ch=1 c=64 v=63
22370 Par ch=1 c=64 v=127
22390 On ch=1 n=c4 v=84
22618 On ch=1 n=e5 v=86
22634 On ch=1 n=f5 v=0
22634 On ch=1 n=g4 v=52
22708 Par ch=1 c=64 v=63
22772 Par ch=1 c=64 v=0
22804 Par ch=1 c=64 v=63
22838 On ch=1 n=a#4 v=66
22870 On ch=1 n=g4 v=0
22872 Par ch=1 c=64 v=127
22936 On ch=1 n=c4 v=0
23010 On ch=1 n=a#4 v=0
23038 On ch=1 n=e5 v=0
23050 On ch=1 n=g4 v=58
23166 On ch=1 n=g5 v=77
23270 On ch=1 n=g4 v=0
23272 On ch=1 n=c4 v=60
23276 On ch=1 n=f5 v=86
23280 On ch=1 n=g5 v=0
23316 Par ch=1 c=64 v=63
23372 On ch=1 n=a5 v=90
23374 On ch=1 n=f5 v=0
23376 Par ch=1 c=64 v=0
23414 Par ch=1 c=64 v=63
23456 On ch=1 n=a5 v=0
23458 On ch=1 n=g4 v=56
23484 On ch=1 n=g5 v=86
23486 Par ch=1 c=64 v=127
23512 Par ch=1 c=64 v=63
23572 Par ch=1 c=64 v=0
23584 On ch=1 n=a#5 v=85
23602 On ch=1 n=g5 v=0
23656 On ch=1 n=c4 v=0
23656 On ch=1 n=a#4 v=67
23688 On ch=1 n=a#5 v=0
23690 On ch=1 n=a5 v=86
23716 On ch=1 n=g4 v=0
23772 On ch=1 n=a#4 v=0
23788 On ch=1 n=a5 v=0
23790 On ch=1 n=c6 v=88
23890 On ch=1 n=a#5 v=94
23910 On ch=1 n=c6 v=0
23966 Par ch=1 c=64 v=63
23974 On ch=1 n=a#5 v=0
23982 Par ch=1 c=64 v=127
24008 On ch=1 n=g5 v=86
24086 On ch=1 n=g5 v=0
24116 On ch=1 n=e6 v=89
24142 On ch=1 n=e4 v=69
24194 On ch=1 n=e6 v=0
24236 On ch=1 n=c6 v=85
24322 On ch=1 n=c6 v=0
24330 On ch=1 n=g6 v=88
24348 On ch=1 n=g4 v=59
24414 On ch=1 n=g6 v=0
24430 On ch=1 n=e6 v=94
24504 On ch=1 n=e6 v=0
24532 On ch=1 n=a#6 v=101
24568 On ch=1 n=c5 v=71
24594 On ch=1 n=g4 v=0
24642 On ch=1 n=a6 v=106
24666 On ch=1 n=a#6 v=0
24740 On ch=1 n=a#6 v=94
24744 On ch=1 n=e4 v=0
24758 On ch=1 n=c5 v=0
24762 On ch=1 n=a6 v=0
24766 On ch=1 n=g4 v=67
24842 On ch=1 n=a6 v=102
24888 On ch=1 n=a#6 v=0
24966 On ch=1 n=g6 v=100
24972 On ch=1 n=e4 v=69
24994 On ch=1 n=g4 v=0
25012 On ch=1 n=a6 v=0
25028 Par ch=1 c=64 v=63
25060 Par ch=1 c=64 v=0
25082 On ch=1 n=f6 v=97
25084 On ch=1 n=g6 v=0
25184 On ch=1 n=g4 v=65
25188 On ch=1 n=f6 v=0
25194 On ch=1 n=e6 v=98
25242 Par ch=1 c=64 v=63
25264 Par ch=1 c=64 v=127
25306 On ch=1 n=d6 v=92
25316 On ch=1 n=e6 v=0
25380 On ch=1 n=c5 v=55
25404 On ch=1 n=d6 v=0
25414 On ch=1 n=g4 v=0
25416 On ch=1 n=c6 v=81
25476 On ch=1 n=c5 v=0
25514 On ch=1 n=a#5 v=85
25524 On ch=1 n=c6 v=0
25588 On ch=1 n=a#5 v=0
25650 On ch=1 n=a#5 v=97
25682 On ch=1 n=e4 v=0
25716 Par ch=1 c=64 v=63
25748 On ch=1 n=a5 v=93
25748 Par ch=1 c=64 v=0
25774 On ch=1 n=a#5 v=0
25852 On ch=1 n=f4 v=57
25864 On ch=1 n=d6 v=87
25866 Par ch=1 c=64 v=63
25892 On ch=1 n=a5 v=0
25902 Par ch=1 c=64 v=127
25960 On ch=1 n=c6 v=98
26014 On ch=1 n=d6 v=0
26050 On ch=1 n=c6 v=0
26064 On ch=1 n=a4 v=57
26076 Par ch=1 c=64 v=63
26100 Par ch=1 c=64 v=0
26102 On ch=1 n=c6 v=97
26238 Par ch=1 c=64 v=63
26264 Par ch=1 c=64 v=127
26324 On ch=1 n=c5 v=65
26344 On ch=1 n=a4 v=0
26482 On ch=1 n=c6 v=0
26536 On ch=1 n=a4 v=70
26556 On ch=1 n=c5 v=0
26610 On ch=1 n=f4 v=0
26744 On ch=1 n=f4 v=91
26784 On ch=1 n=a4 v=0
26960 On ch=1 n=a4 v=73
26968 On ch=1 n=d7 v=103
27072 On ch=1 n=c7 v=102
27076 Par ch=1 c=64 v=63
27102 Par ch=1 c=64 v=0
27120 On ch=1 n=d7 v=0
27166 On ch=1 n=c5 v=76
27180 On ch=1 n=a#6 v=106
27186 Par ch=1 c=64 v=63
27224 On ch=1 n=a4 v=0
27230 On ch=1 n=c7 v=0
27230 Par ch=1 c=64 v=127
27276 On ch=1 n=a6 v=100
27304 On ch=1 n=a#6 v=0
27324 Par ch=1 c=64 v=63
27350 Par ch=1 c=64 v=0
27378 On ch=1 n=a6 v=0
27386 On ch=1 n=c5 v=0
27416 On ch=1 n=a#4 v=76
27418 On ch=1 n=g6 v=103
27426 On ch=1 n=f4 v=0
27516 Par ch=1 c=64 v=63
27536 Par ch=1 c=64 v=127
27646 On ch=1 n=c5 v=75
27748 On ch=1 n=a#4 v=0
27860 On ch=1 n=a#4 v=80
27880 On ch=1 n=c5 v=0
27900 Par ch=1 c=64 v=63
27928 Par ch=1 c=64 v=0
27998 Par ch=1 c=64 v=63
28042 Par ch=1 c=64 v=127
28070 On ch=1 n=c5 v=66
28074 On ch=1 n=e6 v=84
28084 On ch=1 n=g6 v=0
28140 On ch=1 n=a#4 v=0
28178 On ch=1 n=e6 v=0
28282 On ch=1 n=c5 v=0
28300 On ch=1 n=a4 v=69
28304 On ch=1 n=f6 v=72
28344 Par ch=1 c=64 v=63
28376 Par ch=1 c=64 v=0
28380 On ch=1 n=f6 v=0
28394 On ch=1 n=c7 v=93
28482 On ch=1 n=a4 v=0
28492 On ch=1 n=c7 v=0
28504 On ch=1 n=c5 v=65
28512 On ch=1 n=b6 v=92
28614 On ch=1 n=c7 v=98
28636 On ch=1 n=b6 v=0
28704 On ch=1 n=c5 v=0
28720 On ch=1 n=d7 v=96
28722 On ch=1 n=a4 v=59
28724 On ch=1 n=c7 v=0
28826 On ch=1 n=c7 v=87
28852 On ch=1 n=d7 v=0
28896 On ch=1 n=c5 v=65
28902 On ch=1 n=a4 v=0
28922 On ch=1 n=a#6 v=108
28934 On ch=1 n=c7 v=0
29032 On ch=1 n=a6 v=93
29034 On ch=1 n=a#6 v=0
29136 On ch=1 n=c5 v=0
29138 On ch=1 n=a#4 v=76
29142 On ch=1 n=a6 v=0
29144 On ch=1 n=g6 v=89
29166 Par ch=1 c=64 v=63
29170 Par ch=1 c=64 v=0
29214 On ch=1 n=g6 v=0
29390 On ch=1 n=g6 v=107
29400 On ch=1 n=c5 v=54
29448 Par ch=1 c=64 v=63
29452 On ch=1 n=a#4 v=0
29452 Par ch=1 c=64 v=127
29606 On ch=1 n=a#4 v=76
29620 On ch=1 n=c5 v=0
29812 On ch=1 n=c5 v=57
29818 On ch=1 n=g6 v=0
29822 On ch=1 n=e6 v=81
29838 On ch=1 n=a#4 v=0
29928 Par ch=1 c=64 v=63
29942 Par ch=1 c=64 v=0
30044 On ch=1 n=f6 v=81
30048 On ch=1 n=a4 v=61
30048 Par ch=1 c=64 v=63
30050 On ch=1 n=e6 v=0
30050 On ch=1 n=c5 v=0
30070 Par ch=1 c=64 v=127
30092 On ch=1 n=f6 v=0
30154 Par ch=1 c=64 v=63
30176 Par ch=1 c=64 v=0
30182 On ch=1 n=c7 v=94
30270 Par ch=1 c=64 v=63
30278 On ch=1 n=b6 v=85
30286 On ch=1 n=c5 v=53
30290 Par ch=1 c=64 v=127
30292 On ch=1 n=c7 v=0
30292 On ch=1 n=a4 v=0
30386 On ch=1 n=c7 v=97
30404 On ch=1 n=b6 v=0
30466 On ch=1 n=a4 v=60
30484 On ch=1 n=c5 v=0
30494 On ch=1 n=d7 v=101
30502 On ch=1 n=c7 v=0
30586 On ch=1 n=c7 v=90
30610 Par ch=1 c=64 v=63
30632 On ch=1 n=d7 v=0
30670 On ch=1 n=c5 v=65
30682 Par ch=1 c=64 v=127
30690 On ch=1 n=a#6 v=104
30702 On ch=1 n=a4 v=0
30734 On ch=1 n=c7 v=0
30780 On ch=1 n=a6 v=94
30800 On ch=1 n=a#6 v=0
30854 On ch=1 n=a6 v=0
30900 On ch=1 n=a#4 v=59
30902 Par ch=1 c=64 v=63
30904 On ch=1 n=a6 v=100
30906 On ch=1 n=c5 v=0
30932 Par ch=1 c=64 v=0
31016 Par ch=1 c=64 v=63
31054 Par ch=1 c=64 v=127
31134 On ch=1 n=g6 v=89
31148 On ch=1 n=d5 v=53
31220 On ch=1 n=a6 v=0
31236 On ch=1 n=a#4 v=0
31332 On ch=1 n=g6 v=0
31366 On ch=1 n=a#4 v=88
31398 On ch=1 n=d5 v=0
31414 Par ch=1 c=64 v=63
31438 Par ch=1 c=64 v=0
31556 On ch=1 n=g6 v=101
31562 On ch=1 n=d5 v=68
31590 Par ch=1 c=64 v=63
31612 Par ch=1 c=64 v=127
31690 On ch=1 n=g6 v=0
31700 On ch=1 n=a#4 v=0
31764 On ch=1 n=g6 v=97
31778 On ch=1 n=b4 v=85
31804 On ch=1 n=d5 v=0
31904 Par ch=1 c=64 v=63
31924 Par ch=1 c=64 v=0
31974 On ch=1 n=f6 v=84
31990 On ch=1 n=d5 v=57
32032 On ch=1 n=b4 v=0
32056 On ch=1 n=g6 v=0
32206 On ch=1 n=b4 v=74
32214 On ch=1 n=d5 v=0
32292 On ch=1 n=f6 v=0
32400 On ch=1 n=d5 v=76
32404 On ch=1 n=f6 v=97
32436 On ch=1 n=b4 v=0
32518 On ch=1 n=f6 v=0
32600 On ch=1 n=d5 v=0
32622 On ch=1 n=c5 v=83
32638 On ch=1 n=e6 v=97
32654 Par ch=1 c=64 v=63
32662 Par ch=1 c=64 v=127
32742 On ch=1 n=e6 v=0
32742 On ch=1 n=f6 v=84
32822 On ch=1 n=c5 v=0
32832 On ch=1 n=f6 v=0
32840 On ch=1 n=e6 v=87
32908 Par ch=1 c=64 v=63
32928 On ch=1 n=e6 v=0
32934 On ch=1 n=c6 v=85
32940 Par ch=1 c=64 v=0
32988 Par ch=1 c=64 v=63
33030 On ch=1 n=f6 v=100
33032 On ch=1 n=d5 v=94
33034 Par ch=1 c=64 v=127
33040 On ch=1 n=c6 v=0
33154 On ch=1 n=g6 v=86
33158 On ch=1 n=f6 v=0
33204 On ch=1 n=d5 v=0
33252 On ch=1 n=f6 v=90
33278 On ch=1 n=g6 v=0
33332 On ch=1 n=f6 v=0
33334 On ch=1 n=c6 v=91
33338 Par ch=1 c=64 v=63
33374 Par ch=1 c=64 v=0
33432 On ch=1 n=c6 v=0
33434 Par ch=1 c=64 v=63
33442 On ch=1 n=e5 v=106
33446 On ch=1 n=g6 v=100
33482 Par ch=1 c=64 v=127
33552 On ch=1 n=g6 v=0
33554 On ch=1 n=a6 v=89
33594 On ch=1 n=e5 v=0
33658 On ch=1 n=g6 v=91
33680 On ch=1 n=a6 v=0
33740 On ch=1 n=g6 v=0
33748 On ch=1 n=c6 v=87
33754 Par ch=1 c=64 v=63
33794 Par ch=1 c=64 v=0
33830 Par ch=1 c=64 v=63
33832 On ch=1 n=c6 v=0
33870 On ch=1 n=f5 v=107
33876 On ch=1 n=a6 v=80
33880 Par ch=1 c=64 v=127
33948 On ch=1 n=a6 v=0
33962 On ch=1 n=f5 v=0
33978 On ch=1 n=a#6 v=93
34070 On ch=1 n=a6 v=94
34076 On ch=1 n=a#6 v=0
34152 Par ch=1 c=64 v=63
34158 On ch=1 n=a6 v=0
34182 Par ch=1 c=64 v=0
34186 On ch=1 n=c6 v=88
34270 On ch=1 n=c6 v=0
34314 On ch=1 n=a#6 v=108
34314 Par ch=1 c=64 v=63
34314 On ch=1 n=g5 v=89
34340 Par ch=1 c=64 v=127
34346 On ch=1 n=a#6 v=0
34512 Par ch=1 c=64 v=63
34536 Par ch=1 c=64 v=0
34542 On ch=1 n=g5 v=0
34556 On ch=1 n=c6 v=70
34560 On ch=1 n=a#6 v=115
34622 On ch=1 n=a#6 v=0
34760 On ch=1 n=c6 v=0
34790 On ch=1 n=e5 v=94
34980 On ch=1 n=g6 v=108
34996 On ch=1 n=c6 v=64
35032 Par ch=1 c=64 v=63
35036 On ch=1 n=e5 v=0
35038 Par ch=1 c=64 v=127
35076 On ch=1 n=g6 v=0
35188 On ch=1 n=a#6 v=115
35200 On ch=1 n=f5 v=80
35204 On ch=1 n=c6 v=0
35210 Par ch=1 c=64 v=63
35240 Par ch=1 c=64 v=0
35410 On ch=1 n=a6 v=98
35426 On ch=1 n=c6 v=66
35430 On ch=1 n=f5 v=0
35458 On ch=1 n=a#6 v=0
35480 On ch=1 n=a6 v=0
35614 On ch=1 n=c6 v=0
35618 On ch=1 n=d5 v=81
35620 On ch=1 n=g6 v=96
35646 Par ch=1 c=64 v=63
35654 Par ch=1 c=64 v=127
35702 On ch=1 n=g6 v=0
35804 On ch=1 n=d5 v=0
35830 On ch=1 n=f6 v=86
35840 On ch=1 n=c6 v=59
35868 Par ch=1 c=64 v=63
35894 Par ch=1 c=64 v=0
35910 On ch=1 n=f6 v=0
35968 On ch=1 n=c6 v=0
36004 Par ch=1 c=64 v=63
36026 Par ch=1 c=64 v=127
36048 On ch=1 n=e6 v=98
36050 On ch=1 n=c5 v=80
36128 On ch=1 n=e6 v=0
36148 On ch=1 n=c5 v=0
36150 On ch=1 n=c6 v=61
36214 On ch=1 n=c6 v=0
36262 On ch=1 n=b6 v=89
36292 Par ch=1 c=64 v=63
36316 Par ch=1 c=64 v=0
36346 On ch=1 n=b6 v=0
36382 On ch=1 n=c7 v=93
36422 Par ch=1 c=64 v=63
36444 Par ch=1 c=64 v=127
36458 On ch=1 n=d5 v=103
36468 On ch=1 n=f6 v=99
36486 On ch=1 n=c7 v=0
36550 On ch=1 n=d5 v=0
36554 On ch=1 n=f6 v=0
36592 On ch=1 n=c6 v=62
36652 On ch=1 n=c6 v=0
36680 On ch=1 n=b6 v=89
36760 On ch=1 n=b6 v=0
36764 Par ch=1 c=64 v=63
36776 On ch=1 n=c7 v=88
36792 Par ch=1 c=64 v=0
36844 Par ch=1 c=64 v=63
36864 On ch=1 n=e5 v=113
36886 On ch=1 n=g6 v=99
36888 Par ch=1 c=64 v=127
36912 On ch=1 n=c7 v=0
36978 On ch=1 n=c6 v=89
36998 On ch=1 n=g6 v=0
37046 On ch=1 n=e5 v=0
37070 On ch=1 n=c6 v=0
37076 On ch=1 n=b6 v=94
37174 On ch=1 n=c7 v=100
37190 On ch=1 n=b6 v=0
37212 Par ch=1 c=64 v=63
37238 Par ch=1 c=64 v=0
37294 On ch=1 n=a6 v=98
37302 On ch=1 n=c7 v=0
37302 On ch=1 n=f5 v=111
37338 Par ch=1 c=64 v=63
37368 Par ch=1 c=64 v=127
37386 On ch=1 n=c6 v=92
37412 On ch=1 n=a6 v=0
37422 On ch=1 n=f5 v=0
37482 On ch=1 n=c6 v=0
37500 On ch=1 n=b6 v=96
37586 On ch=1 n=c7 v=107
37610 On ch=1 n=b6 v=0
37680 On ch=1 n=c7 v=0
37708 On ch=1 n=g5 v=100
37710 On ch=1 n=a#6 v=118
37732 Par ch=1 c=64 v=63
37770 Par ch=1 c=64 v=0
37772 On ch=1 n=a#6 v=0
37808 On ch=1 n=g5 v=0
37822 On ch=1 n=c6 v=79
37948 On ch=1 n=b5 v=87
37950 On ch=1 n=c6 v=0
37952 On ch=1 n=a#6 v=116
38008 On ch=1 n=a#6 v=0
38030 On ch=1 n=c6 v=85
38034 On ch=1 n=b5 v=0
38138 On ch=1 n=c6 v=0
38146 On ch=1 n=e5 v=97
38222 On ch=1 n=g6 v=111
38228 On ch=1 n=c6 v=82
38240 On ch=1 n=e5 v=0
38304 On ch=1 n=g6 v=0
38310 On ch=1 n=a6 v=96
38338 On ch=1 n=c6 v=0
38344 On ch=1 n=b5 v=83
38368 On ch=1 n=g6 v=80
38372 On ch=1 n=a6 v=0
38424 On ch=1 n=b5 v=0
38430 On ch=1 n=c6 v=82
38438 On ch=1 n=f#6 v=103
38452 On ch=1 n=g6 v=0
38506 On ch=1 n=g6 v=100
38520 On ch=1 n=f#6 v=0
38536 On ch=1 n=c6 v=0
38550 On ch=1 n=f5 v=91
38600 On ch=1 n=a#6 v=112
38626 On ch=1 n=g6 v=0
38644 On ch=1 n=c6 v=82
38664 On ch=1 n=f5 v=0
38788 On ch=1 n=b5 v=83
38796 On ch=1 n=c6 v=0
38804 On ch=1 n=a6 v=101
38860 On ch=1 n=a#6 v=0
38872 On ch=1 n=c6 v=88
38878 On ch=1 n=a6 v=0
38880 On ch=1 n=b5 v=0
38996 On ch=1 n=c6 v=0
39000 On ch=1 n=d5 v=103
39010 On ch=1 n=g6 v=103
39082 On ch=1 n=g6 v=0
39098 On ch=1 n=d5 v=0
39098 On ch=1 n=b5 v=80
39204 On ch=1 n=b5 v=0
39208 On ch=1 n=a5 v=97
39226 On ch=1 n=f6 v=104
39294 On ch=1 n=a5 v=0
39306 On ch=1 n=b5 v=99
39312 On ch=1 n=f6 v=0
39438 On ch=1 n=c5 v=121
39446 On ch=1 n=b5 v=0
39448 On ch=1 n=e6 v=121
39468 Par ch=1 c=64 v=63
39468 Par ch=1 c=64 v=127
39532 On ch=1 n=e6 v=0
39542 On ch=1 n=c5 v=0
39560 On ch=1 n=c7 v=109
39640 On ch=1 n=g6 v=100
39664 On ch=1 n=c7 v=0
39754 On ch=1 n=e6 v=107
39770 On ch=1 n=g6 v=0
39838 On ch=1 n=e6 v=0
39848 On ch=1 n=c6 v=101
39918 On ch=1 n=c6 v=0
39968 On ch=1 n=g5 v=102
40038 On ch=1 n=g5 v=0
40068 On ch=1 n=e5 v=96
40114 On ch=1 n=e5 v=0
40158 On ch=1 n=c5 v=99
40234 On ch=1 n=c5 v=0
40308 On ch=1 n=c4 v=117
40314 On ch=1 n=c3 v=111
40384 Par ch=1 c=64 v=63
40402 Par ch=1 c=64 v=0
40926 On ch=1 n=c3 v=0
40946 On ch=1 n=c4 v=0
41396 On ch=1 n=c6 v=99
41402 On ch=1 n=c5 v=90
41410 On ch=1 n=f4 v=108
41410 On ch=1 n=f5 v=96
41414 On ch=1 n=a5 v=97
41416 On ch=1 n=f3 v=103
41468 Par ch=1 c=64 v=63
41470 Par ch=1 c=64 v=127
41644 Par ch=1 c=64 v=63
41652 Par ch=1 c=64 v=0
41708 Par ch=1 c=64 v=63
41718 Par ch=1 c=64 v=127
41908 On ch=1 n=c5 v=0
41958 On ch=1 n=f5 v=0
41966 On ch=1 n=c6 v=0
41978 On ch=1 n=a5 v=0
42098 On ch=1 n=f3 v=0
42102 On ch=1 n=f4 v=0
42138 On ch=1 n=d6 v=84
42242 On ch=1 n=c6 v=90
42278 On ch=1 n=d6 v=0
42336 On ch=1 n=a#5 v=91
42350 On ch=1 n=c6 v=0
42394 Par ch=1 c=64 v=63
42408 On ch=1 n=a#5 v=0
42416 Par ch=1 c=64 v=0
42566 On ch=1 n=a5 v=83
42666 On ch=1 n=a5 v=0
42816 On ch=1 n=g5 v=78
42932 On ch=1 n=g5 v=0
43030 On ch=1 n=f5 v=74
43120 Par ch=1 c=64 v=63
43132 Par ch=1 c=64 v=127
43174 On ch=1 n=f5 v=0
43272 On ch=1 n=f5 v=88
43512 On ch=1 n=d6 v=90
43740 On ch=1 n=f5 v=0
43758 On ch=1 n=d6 v=0
43818 On ch=1 n=d6 v=86
43820 On ch=1 n=a#4 v=70
43836 On ch=1 n=a#3 v=56
43840 On ch=1 n=f5 v=51
43958 Par ch=1 c=64 v=63
43970 Par ch=1 c=64 v=0
44088 Par ch=1 c=64 v=63
44102 Par ch=1 c=64 v=127
44222 On ch=1 n=a#3 v=0
44276 On ch=1 n=f5 v=0
44550 On ch=1 n=a#4 v=0
44576 On ch=1 n=c6 v=91
44580 On ch=1 n=d6 v=0
44810 On ch=1 n=e6 v=98
44826 On ch=1 n=a4 v=62
44864 On ch=1 n=c6 v=0
44940 Par ch=1 c=64 v=63
44970 Par ch=1 c=64 v=0
45006 On ch=1 n=f6 v=102
45090 On ch=1 n=e6 v=0
45090 Par ch=1 c=64 v=63
45124 Par ch=1 c=64 v=127
45202 On ch=1 n=f6 v=0
45244 On ch=1 n=b4 v=67
45246 On ch=1 n=a4 v=0
45246 On ch=1 n=d5 v=68
45254 On ch=1 n=f6 v=97
45396 Par ch=1 c=64 v=63
45434 Par ch=1 c=64 v=0
45464 On ch=1 n=g5 v=89
45474 On ch=1 n=f6 v=0
45564 Par ch=1 c=64 v=63
45600 Par ch=1 c=64 v=127
45672 On ch=1 n=c5 v=88
45730 On ch=1 n=b4 v=0
45734 On ch=1 n=d5 v=0
45850 Par ch=1 c=64 v=63
45858 On ch=1 n=a5 v=92
45910 On ch=1 n=g5 v=0
45914 Par ch=1 c=64 v=0
46092 On ch=1 n=d5 v=65
46094 On ch=1 n=f6 v=99
46100 On ch=1 n=b4 v=71
46142 On ch=1 n=a5 v=0
46154 On ch=1 n=c5 v=0
46260 Par ch=1 c=64 v=63
46294 Par ch=1 c=64 v=127
46300 On ch=1 n=f6 v=0
46320 On ch=1 n=g5 v=87
46536 On ch=1 n=c5 v=84
46560 On ch=1 n=b4 v=0
46594 On ch=1 n=d5 v=0
46610 Par ch=1 c=64 v=63
46648 Par ch=1 c=64 v=0
46732 On ch=1 n=a5 v=86
46754 On ch=1 n=g5 v=0
46796 Par ch=1 c=64 v=63
46854 Par ch=1 c=64 v=127
46900 Par ch=1 c=64 v=63
46944 Par ch=1 c=64 v=0
46958 On ch=1 n=d5 v=71
46964 On ch=1 n=c6 v=90
46990 On ch=1 n=a5 v=0
47004 On ch=1 n=c5 v=0
47072 Par ch=1 c=64 v=63
47108 Par ch=1 c=64 v=127
47304 On ch=1 n=c6 v=0
47378 On ch=1 n=d5 v=0
47384 On ch=1 n=a#5 v=95
47386 On ch=1 n=e5 v=56
47448 On ch=1 n=c6 v=75
47460 On ch=1 n=a#5 v=0
47520 On ch=1 n=a#5 v=80
47534 On ch=1 n=c6 v=0
47538 Par ch=1 c=64 v=63
47614 Par ch=1 c=64 v=0
47626 On ch=1 n=a#5 v=0
47634 On ch=1 n=a5 v=76
47708 On ch=1 n=a#5 v=79
47734 On ch=1 n=a5 v=0
47808 On ch=1 n=f5 v=58
47810 On ch=1 n=a#5 v=0
47822 On ch=1 n=a5 v=71
47828 On ch=1 n=e5 v=0
47902 On ch=1 n=a5 v=0
48056 On ch=1 n=a5 v=74
48268 On ch=1 n=a#5 v=78
48276 On ch=1 n=a5 v=0
48330 On ch=1 n=f5 v=0
48410 On ch=1 n=a#5 v=0
48476 On ch=1 n=c6 v=89
48580 On ch=1 n=c6 v=0
48646 On ch=1 n=c#6 v=100
48732 On ch=1 n=d6 v=93
48744 On ch=1 n=c#6 v=0
48912 Par ch=1 c=64 v=63
48932 On ch=1 n=a#3 v=79
48968 Par ch=1 c=64 v=127
49052 Par ch=1 c=64 v=63
49152 Par ch=1 c=64 v=0
49180 On ch=1 n=d4 v=91
49212 On ch=1 n=a#3 v=0
49352 On ch=1 n=d6 v=0
49366 On ch=1 n=c6 v=73
49386 On ch=1 n=d4 v=0
49394 On ch=1 n=g4 v=73
49464 On ch=1 n=a#5 v=88
49496 On ch=1 n=c6 v=0
49596 On ch=1 n=a#4 v=80
49604 On ch=1 n=g4 v=0
49606 On ch=1 n=a5 v=68
49612 On ch=1 n=a#5 v=0
49820 On ch=1 n=g5 v=74
49822 On ch=1 n=a5 v=0
49984 On ch=1 n=a#4 v=0
50052 On ch=1 n=a5 v=84
50070 On ch=1 n=g5 v=0
50230 On ch=1 n=a#5 v=98
50270 On ch=1 n=a5 v=0
50356 On ch=1 n=a#5 v=0
50434 On ch=1 n=d6 v=78
50510 On ch=1 n=c6 v=86
50590 On ch=1 n=d6 v=0
50676 On ch=1 n=a3 v=71
50764 Par ch=1 c=64 v=63
50872 Par ch=1 c=64 v=0
50894 On ch=1 n=c4 v=92
50926 On ch=1 n=a3 v=0
51108 On ch=1 n=a#5 v=82
51126 On ch=1 n=f4 v=64
51144 On ch=1 n=c6 v=0
51146 On ch=1 n=c4 v=0
51204 On ch=1 n=a5 v=68
51232 On ch=1 n=a#5 v=0
51332 On ch=1 n=a5 v=0
51332 On ch=1 n=f4 v=0
51332 On ch=1 n=g5 v=71
51342 On ch=1 n=a4 v=52
51562 On ch=1 n=g5 v=0
51572 On ch=1 n=f5 v=67
51788 On ch=1 n=f5 v=0
51798 On ch=1 n=g5 v=77
51958 On ch=1 n=a4 v=0
51988 On ch=1 n=a5 v=86
52034 On ch=1 n=g5 v=0
52186 On ch=1 n=a5 v=0
52218 On ch=1 n=g4 v=73
52218 On ch=1 n=c6 v=84
52430 On ch=1 n=a#5 v=82
52494 On ch=1 n=c6 v=0
52512 On ch=1 n=g4 v=0
52666 On ch=1 n=e4 v=76
52860 On ch=1 n=a#5 v=0
52860 On ch=1 n=g5 v=76
53052 On ch=1 n=e4 v=0
53082 On ch=1 n=f4 v=77
53088 On ch=1 n=a#5 v=96
53102 On ch=1 n=g5 v=0
53308 On ch=1 n=a5 v=82
53340 On ch=1 n=a#5 v=0
53448 On ch=1 n=f4 v=0
53530 On ch=1 n=d4 v=74
53714 On ch=1 n=a5 v=0
53732 On ch=1 n=f5 v=82
53826 On ch=1 n=d4 v=0
53872 On ch=1 n=f5 v=0
53952 On ch=1 n=e5 v=76
53964 On ch=1 n=c4 v=64
54040 On ch=1 n=e5 v=0
54066 On ch=1 n=f5 v=81
54172 On ch=1 n=f5 v=0
54172 On ch=1 n=g5 v=77
54278 On ch=1 n=a5 v=91
54314 On ch=1 n=g5 v=0
54368 On ch=1 n=c4 v=0
54380 On ch=1 n=b5 v=96
54410 On ch=1 n=a5 v=0
54488 On ch=1 n=c6 v=96
54502 On ch=1 n=b5 v=0
54590 On ch=1 n=b5 v=97
54604 On ch=1 n=c6 v=0
54688 On ch=1 n=c6 v=98
54698 On ch=1 n=b5 v=0
54784 On ch=1 n=c6 v=0
54812 On ch=1 n=c4 v=89
54814 On ch=1 n=c5 v=84
54906 On ch=1 n=d4 v=93
54916 On ch=1 n=c4 v=0
54956 On ch=1 n=c5 v=0
55014 On ch=1 n=a#3 v=99
55022 On ch=1 n=d4 v=0
55100 On ch=1 n=a#3 v=0
55108 On ch=1 n=c4 v=90
55208 On ch=1 n=a3 v=91
55222 On ch=1 n=c4 v=0
55308 On ch=1 n=a#3 v=104
55322 On ch=1 n=a3 v=0
55424 On ch=1 n=g3 v=94
55440 On ch=1 n=a#3 v=0
55520 On ch=1 n=a3 v=100
55572 On ch=1 n=g3 v=0
55660 On ch=1 n=f3 v=108
55664 On ch=1 n=c6 v=112
55670 On ch=1 n=a5 v=100
55696 On ch=1 n=a3 v=0
55794 Par ch=1 c=64 v=63
55822 Par ch=1 c=64 v=127
56152 On ch=1 n=f4 v=101
56192 On ch=1 n=f3 v=0
56222 On ch=1 n=a5 v=0
56290 On ch=1 n=c6 v=0
56318 On ch=1 n=f4 v=0
56410 On ch=1 n=d6 v=83
56484 On ch=1 n=c6 v=89
56538 On ch=1 n=d6 v=0
56596 On ch=1 n=a#5 v=97
56610 On ch=1 n=c6 v=0
56648 Par ch=1 c=64 v=63
56668 On ch=1 n=a#5 v=0
56686 Par ch=1 c=64 v=0
56836 On ch=1 n=a5 v=86
56918 On ch=1 n=a5 v=0
57048 On ch=1 n=g5 v=75
57148 On ch=1 n=g5 v=0
57270 On ch=1 n=f5 v=81
57392 Par ch=1 c=64 v=63
57404 Par ch=1 c=64 v=127
57412 On ch=1 n=f5 v=0
57502 On ch=1 n=f5 v=82
57742 On ch=1 n=d6 v=88
57974 On ch=1 n=f5 v=0
57986 On ch=1 n=d6 v=0
58060 On ch=1 n=a#4 v=81
58064 On ch=1 n=a#3 v=75
58064 On ch=1 n=d6 v=91
58084 On ch=1 n=f5 v=38
58186 Par ch=1 c=64 v=63
58202 Par ch=1 c=64 v=0
58302 Par ch=1 c=64 v=63
58324 Par ch=1 c=64 v=127
58450 On ch=1 n=a#3 v=0
58486 On ch=1 n=f5 v=0
58728 On ch=1 n=a#4 v=0
58782 On ch=1 n=d6 v=0
58784 On ch=1 n=c6 v=99
59018 On ch=1 n=a4 v=67
59018 On ch=1 n=e6 v=102
59082 On ch=1 n=c6 v=0
59192 Par ch=1 c=64 v=63
59220 Par ch=1 c=64 v=0
59238 On ch=1 n=f6 v=104
59318 On ch=1 n=e6 v=0
59452 On ch=1 n=d5 v=70
59456 On ch=1 n=b4 v=68
59482 On ch=1 n=a4 v=0
59578 Par ch=1 c=64 v=63
59634 On ch=1 n=f6 v=0
59642 Par ch=1 c=64 v=127
59688 On ch=1 n=g5 v=79
59874 Par ch=1 c=64 v=63
59886 On ch=1 n=b4 v=0
59888 On ch=1 n=c5 v=78
59902 On ch=1 n=a5 v=81
59904 On ch=1 n=d5 v=0
59918 Par ch=1 c=64 v=0
59930 On ch=1 n=g5 v=0
60120 On ch=1 n=f6 v=84
60130 On ch=1 n=a5 v=0
60312 On ch=1 n=c5 v=0
60324 On ch=1 n=b4 v=76
60324 On ch=1 n=d5 v=71
60346 Par ch=1 c=64 v=63
60362 Par ch=1 c=64 v=127
60466 On ch=1 n=f6 v=0
60532 On ch=1 n=g5 v=85
60674 Par ch=1 c=64 v=63
60696 Par ch=1 c=64 v=0
60744 On ch=1 n=b4 v=0
60754 On ch=1 n=c5 v=86
60774 On ch=1 n=a5 v=84
60782 On ch=1 n=d5 v=0
60800 On ch=1 n=g5 v=0
60830 Par ch=1 c=64 v=63
60870 Par ch=1 c=64 v=127
60942 On ch=1 n=a5 v=0
60970 On ch=1 n=f6 v=93
61098 Par ch=1 c=64 v=63
61130 Par ch=1 c=64 v=0
61186 On ch=1 n=f6 v=0
61204 On ch=1 n=c5 v=0
61210 On ch=1 n=c6 v=82
61210 On ch=1 n=d5 v=71
61210 On ch=1 n=f5 v=70
61422 Par ch=1 c=64 v=63
61452 Par ch=1 c=64 v=127
61532 On ch=1 n=f5 v=0
61670 On ch=1 n=g5 v=63
61674 On ch=1 n=d5 v=0
61682 On ch=1 n=e5 v=68
61684 On ch=1 n=b5 v=78
61688 On ch=1 n=c6 v=0
61694 Par ch=1 c=64 v=63
61718 Par ch=1 c=64 v=0
61792 Par ch=1 c=64 v=63
61844 Par ch=1 c=64 v=127
61894 On ch=1 n=a#5 v=85
61920 On ch=1 n=b5 v=0
61970 On ch=1 n=e5 v=0
62030 Par ch=1 c=64 v=63
62062 Par ch=1 c=64 v=0
62118 On ch=1 n=a#5 v=0
62118 On ch=1 n=a5 v=69
62136 On ch=1 n=g5 v=0
62138 On ch=1 n=f5 v=54
62186 Par ch=1 c=64 v=63
62212 Par ch=1 c=64 v=0
62216 On ch=1 n=a5 v=0
62352 On ch=1 n=a5 v=73
62440 Par ch=1 c=64 v=63
62462 Par ch=1 c=64 v=127
62530 On ch=1 n=f5 v=0
62566 On ch=1 n=a#5 v=84
62608 On ch=1 n=a5 v=0
62748 On ch=1 n=a#5 v=0
62770 On ch=1 n=c6 v=93
62938 On ch=1 n=c6 v=0
62940 On ch=1 n=c#6 v=93
62992 Par ch=1 c=64 v=63
63018 On ch=1 n=d6 v=97
63022 Par ch=1 c=64 v=0
63046 On ch=1 n=c#6 v=0
63146 Par ch=1 c=64 v=63
63184 Par ch=1 c=64 v=127
63206 On ch=1 n=d4 v=84
63360 Par ch=1 c=64 v=63
63398 On ch=1 n=d4 v=0
63412 Par ch=1 c=64 v=0
63434 On ch=1 n=d5 v=80
63554 Par ch=1 c=64 v=63
63590 Par ch=1 c=64 v=127
63638 On ch=1 n=d6 v=0
63658 On ch=1 n=e6 v=91
63660 On ch=1 n=c5 v=71
63674 On ch=1 n=d5 v=0
63746 On ch=1 n=f#6 v=104
63768 On ch=1 n=e6 v=0
63792 Par ch=1 c=64 v=63
63814 Par ch=1 c=64 v=0
63832 On ch=1 n=f#6 v=0
63858 On ch=1 n=g6 v=86
63870 On ch=1 n=a#4 v=85
63878 On ch=1 n=c5 v=0
63932 Par ch=1 c=64 v=63
63948 On ch=1 n=a#4 v=0
63956 On ch=1 n=a6 v=90
63958 Par ch=1 c=64 v=127
63974 On ch=1 n=g6 v=0
64058 On ch=1 n=a#6 v=104
64076 On ch=1 n=a6 v=0
64082 On ch=1 n=a#3 v=88
64146 Par ch=1 c=64 v=63
64170 On ch=1 n=a#3 v=0
64170 On ch=1 n=a6 v=84
64216 On ch=1 n=a#6 v=0
64246 Par ch=1 c=64 v=0
64266 On ch=1 n=a6 v=0
64270 On ch=1 n=g6 v=80
64284 On ch=1 n=a#4 v=78
64350 On ch=1 n=g6 v=0
64364 On ch=1 n=a#4 v=0
64366 On ch=1 n=a6 v=94
64484 On ch=1 n=a6 v=0
64484 On ch=1 n=a4 v=73
64488 On ch=1 n=f6 v=78
64568 On ch=1 n=f6 v=0
64572 On ch=1 n=g6 v=90
64590 On ch=1 n=a4 v=0
64690 On ch=1 n=g6 v=0
64692 On ch=1 n=g4 v=64
64692 On ch=1 n=e6 v=82
64764 On ch=1 n=g4 v=0
64772 On ch=1 n=e6 v=0
64776 On ch=1 n=f6 v=94
64842 Par ch=1 c=64 v=63
64886 On ch=1 n=f6 v=0
64892 On ch=1 n=d6 v=85
64896 On ch=1 n=f4 v=71
64972 On ch=1 n=d6 v=0
64980 On ch=1 n=e6 v=87
64988 On ch=1 n=f4 v=0
65084 On ch=1 n=e6 v=0
65088 On ch=1 n=c6 v=84
65112 On ch=1 n=e4 v=69
65166 On ch=1 n=c6 v=0
65188 On ch=1 n=d6 v=83
65208 On ch=1 n=e4 v=0
65286 On ch=1 n=d6 v=0
65294 On ch=1 n=c4 v=78
65298 On ch=1 n=a#5 v=99
65392 On ch=1 n=c6 v=89
65396 On ch=1 n=a#5 v=0
65406 On ch=1 n=c4 v=0
65496 On ch=1 n=c6 v=0
65508 On ch=1 n=a5 v=76
65510 On ch=1 n=f4 v=68
65606 On ch=1 n=a#5 v=87
65608 On ch=1 n=a5 v=0
65608 Par ch=1 c=64 v=0
65690 On ch=1 n=a#5 v=0
65712 Par ch=1 c=64 v=63
65726 On ch=1 n=f4 v=0
65732 On ch=1 n=c6 v=78
65832 On ch=1 n=d6 v=89
65846 On ch=1 n=c6 v=0
65872 Par ch=1 c=64 v=0
65944 On ch=1 n=e6 v=92
65964 On ch=1 n=d6 v=0
65988 On ch=1 n=a3 v=85
66060 On ch=1 n=f6 v=93
66084 On ch=1 n=e6 v=0
66172 On ch=1 n=e6 v=100
66172 Par ch=1 c=64 v=63
66194 On ch=1 n=a3 v=0
66198 On ch=1 n=f6 v=0
66270 On ch=1 n=f6 v=101
66320 On ch=1 n=e6 v=0
66376 On ch=1 n=a#3 v=103
66398 On ch=1 n=g6 v=97
66414 On ch=1 n=f6 v=0
66510 On ch=1 n=f6 v=97
66564 On ch=1 n=g6 v=0
66606 On ch=1 n=e6 v=103
66624 On ch=1 n=a#3 v=0
66672 On ch=1 n=f6 v=0
66706 On ch=1 n=d6 v=102
66726 Par ch=1 c=64 v=0
66738 On ch=1 n=e6 v=0
66810 On ch=1 n=a#4 v=101
66816 On ch=1 n=e6 v=98
66848 On ch=1 n=d6 v=0
66934 On ch=1 n=d6 v=90
66972 On ch=1 n=e6 v=0
67024 On ch=1 n=c6 v=89
67030 On ch=1 n=d6 v=0
67070 On ch=1 n=a#4 v=0
67120 On ch=1 n=a#5 v=106
67138 On ch=1 n=c6 v=0
67226 On ch=1 n=a#5 v=0
67242 On ch=1 n=a5 v=103
67248 On ch=1 n=c5 v=100
67276 Par ch=1 c=64 v=63
67304 Par ch=1 c=64 v=127
67364 On ch=1 n=a5 v=0
67454 On ch=1 n=c5 v=0
67626 Par ch=1 c=64 v=63
67650 Par ch=1 c=64 v=0
67700 On ch=1 n=c4 v=100
67702 Par ch=1 c=64 v=63
67702 On ch=1 n=g5 v=108
67710 On ch=1 n=e5 v=89
67744 Par ch=1 c=64 v=127
67790 On ch=1 n=g5 v=0
67792 On ch=1 n=c4 v=0
67796 On ch=1 n=a5 v=86
67868 On ch=1 n=g5 v=90
67882 On ch=1 n=e5 v=0
67900 On ch=1 n=a5 v=0
67956 On ch=1 n=f5 v=94
67968 On ch=1 n=g5 v=0
68022 On ch=1 n=g5 v=91
68034 Par ch=1 c=64 v=63
68050 Par ch=1 c=64 v=0
68056 On ch=1 n=f5 v=0
68126 On ch=1 n=f5 v=101
68134 On ch=1 n=g5 v=0
68146 Par ch=1 c=64 v=63
68152 On ch=1 n=f4 v=93
68178 Par ch=1 c=64 v=127
68254 On ch=1 n=c5 v=80
68272 On ch=1 n=f5 v=0
68298 On ch=1 n=f4 v=0
68376 On ch=1 n=b4 v=81
68384 On ch=1 n=c5 v=0
68446 On ch=1 n=c5 v=88
68464 On ch=1 n=b4 v=0
68560 On ch=1 n=d5 v=88
68564 On ch=1 n=c5 v=0
68658 On ch=1 n=c5 v=89
68668 On ch=1 n=d5 v=0
68738 Par ch=1 c=64 v=63
68784 On ch=1 n=c5 v=0
68792 On ch=1 n=b4 v=94
68798 Par ch=1 c=64 v=0
68874 On ch=1 n=c5 v=91
68898 On ch=1 n=b4 v=0
69002 On ch=1 n=a#4 v=98
69010 On ch=1 n=c5 v=0
69090 On ch=1 n=c5 v=75
69106 On ch=1 n=a#4 v=0
69208 On ch=1 n=a4 v=91
69210 On ch=1 n=c5 v=0
69300 On ch=1 n=c5 v=77
69302 On ch=1 n=a4 v=0
69436 On ch=1 n=g4 v=84
69440 On ch=1 n=c5 v=0
69540 On ch=1 n=c5 v=71
69544 On ch=1 n=g4 v=0
69634 On ch=1 n=f4 v=89
69638 On ch=1 n=c5 v=0
69730 On ch=1 n=c5 v=64
69742 On ch=1 n=f4 v=0
69828 On ch=1 n=c5 v=0
69834 On ch=1 n=a#6 v=121
69840 On ch=1 n=e4 v=106
69858 Par ch=1 c=64 v=63
69872 Par ch=1 c=64 v=127
69940 On ch=1 n=c5 v=75
69944 On ch=1 n=e4 v=0
69988 Par ch=1 c=64 v=63
70032 Par ch=1 c=64 v=0
70044 On ch=1 n=c5 v=0
70056 On ch=1 n=g4 v=84
70062 On ch=1 n=g6 v=98
70072 On ch=1 n=a#6 v=0
70134 On ch=1 n=g6 v=0
70144 On ch=1 n=g4 v=0
70160 On ch=1 n=c5 v=61
70270 On ch=1 n=e6 v=100
70274 On ch=1 n=a#4 v=80
70286 On ch=1 n=c5 v=0
70342 On ch=1 n=e6 v=0
70364 On ch=1 n=a#4 v=0
70380 On ch=1 n=c5 v=57
70464 On ch=1 n=a#4 v=74
70468 On ch=1 n=c5 v=0
70492 On ch=1 n=e6 v=90
70544 On ch=1 n=a#4 v=0
70546 On ch=1 n=c5 v=76
70576 On ch=1 n=e6 v=0
70608 Par ch=1 c=64 v=63
70670 On ch=1 n=c5 v=0
70682 On ch=1 n=a#6 v=116
70682 Par ch=1 c=64 v=0
70688 On ch=1 n=e4 v=106
70800 On ch=1 n=e4 v=0
70802 On ch=1 n=c5 v=62
70886 On ch=1 n=a#6 v=0
70892 On ch=1 n=g6 v=78
70904 On ch=1 n=g4 v=69
70916 On ch=1 n=c5 v=0
70948 On ch=1 n=g6 v=0
70984 On ch=1 n=c5 v=81
71004 On ch=1 n=g4 v=0
71112 On ch=1 n=a#4 v=86
71114 On ch=1 n=e6 v=77
71124 On ch=1 n=c5 v=0
71172 On ch=1 n=e6 v=0
71206 On ch=1 n=a#4 v=0
71212 On ch=1 n=c5 v=68
71312 On ch=1 n=e6 v=90
71318 On ch=1 n=a#4 v=81
71330 On ch=1 n=c5 v=0
71404 On ch=1 n=e6 v=0
71412 On ch=1 n=c5 v=66
71422 On ch=1 n=a#4 v=0
71536 On ch=1 n=f6 v=93
71536 On ch=1 n=a4 v=68
71548 On ch=1 n=c5 v=0
71610 On ch=1 n=a4 v=0
71620 On ch=1 n=f6 v=0
71624 On ch=1 n=c5 v=73
71734 On ch=1 n=c5 v=0
71754 On ch=1 n=g6 v=99
71756 On ch=1 n=e4 v=93
71824 On ch=1 n=g6 v=0
71842 On ch=1 n=c5 v=83
71864 On ch=1 n=e4 v=0
71952 On ch=1 n=a6 v=103
71962 On ch=1 n=f4 v=97
71966 On ch=1 n=c5 v=0
72028 On ch=1 n=a6 v=0
72044 On ch=1 n=c5 v=79
72074 On ch=1 n=f4 v=0
72160 On ch=1 n=a#6 v=113
72164 On ch=1 n=g4 v=96
72188 On ch=1 n=c5 v=0
72250 On ch=1 n=a#6 v=0
72254 On ch=1 n=c5 v=87
72298 On ch=1 n=g4 v=0
72366 Par ch=1 c=64 v=63
72368 On ch=1 n=g#4 v=103
72384 On ch=1 n=b6 v=118
72396 Par ch=1 c=64 v=127
72412 On ch=1 n=c5 v=0
72484 On ch=1 n=c5 v=84
72542 On ch=1 n=g#4 v=0
72556 Par ch=1 c=64 v=63
72588 Par ch=1 c=64 v=0
72604 On ch=1 n=c7 v=98
72614 On ch=1 n=a4 v=82
72624 On ch=1 n=c5 v=0
72640 On ch=1 n=b6 v=0
72684 On ch=1 n=c5 v=85
72692 On ch=1 n=c7 v=0
72712 On ch=1 n=a4 v=0
72794 Par ch=1 c=64 v=63
72812 On ch=1 n=g#4 v=103
72818 Par ch=1 c=64 v=127
72822 On ch=1 n=b6 v=113
72826 On ch=1 n=c5 v=0
72890 On ch=1 n=c5 v=84
72932 On ch=1 n=g#4 v=0
73000 Par ch=1 c=64 v=63
73010 On ch=1 n=a4 v=82
73020 On ch=1 n=c5 v=0
73028 On ch=1 n=c7 v=96
73044 Par ch=1 c=64 v=0
73056 On ch=1 n=b6 v=0
73100 On ch=1 n=c5 v=85
73110 On ch=1 n=a4 v=0
73120 On ch=1 n=c7 v=0
73200 Par ch=1 c=64 v=63
73224 On ch=1 n=c5 v=0
73224 Par ch=1 c=64 v=127
73230 On ch=1 n=e4 v=108
73238 On ch=1 n=a#6 v=115
73332 On ch=1 n=c5 v=84
73358 On ch=1 n=e4 v=0
73386 Par ch=1 c=64 v=63
73432 Par ch=1 c=64 v=0
73450 On ch=1 n=a#6 v=0
73458 On ch=1 n=c5 v=0
73460 On ch=1 n=g4 v=84
73474 On ch=1 n=g6 v=84
73532 On ch=1 n=c5 v=68
73536 On ch=1 n=g6 v=0
73548 On ch=1 n=g4 v=0
73658 On ch=1 n=a#4 v=87
73668 On ch=1 n=c5 v=0
73688 On ch=1 n=e6 v=85
73742 On ch=1 n=a#4 v=0
73742 On ch=1 n=c5 v=66
73762 On ch=1 n=e6 v=0
73854 On ch=1 n=c5 v=0
73854 On ch=1 n=a#4 v=85
73884 On ch=1 n=e6 v=93
73940 On ch=1 n=c5 v=75
73942 On ch=1 n=a#4 v=0
73966 On ch=1 n=e6 v=0
74044 Par ch=1 c=64 v=63
74068 On ch=1 n=c5 v=0
74072 On ch=1 n=a#6 v=121
74074 Par ch=1 c=64 v=127
74078 On ch=1 n=e4 v=107
74178 On ch=1 n=c5 v=78
74192 On ch=1 n=e4 v=0
74238 Par ch=1 c=64 v=63
74288 Par ch=1 c=64 v=0
74290 On ch=1 n=a#6 v=0
74296 On ch=1 n=g4 v=84
74298 On ch=1 n=g6 v=85
74300 On ch=1 n=c5 v=0
74362 On ch=1 n=g6 v=0
74378 On ch=1 n=c5 v=73
74388 On ch=1 n=g4 v=0
74508 On ch=1 n=e6 v=94
74516 On ch=1 n=a#4 v=79
74532 On ch=1 n=c5 v=0
74584 On ch=1 n=e6 v=0
74602 On ch=1 n=c5 v=70
74604 On ch=1 n=a#4 v=0
74714 On ch=1 n=e6 v=93
74722 On ch=1 n=a#4 v=77
74740 On ch=1 n=c5 v=0
74796 On ch=1 n=e6 v=0
74830 On ch=1 n=c5 v=59
74832 On ch=1 n=a#4 v=0
74920 On ch=1 n=f6 v=93
74942 On ch=1 n=a4 v=72
74954 On ch=1 n=c5 v=0
75004 On ch=1 n=f6 v=0
75026 On ch=1 n=a4 v=0
75032 On ch=1 n=c5 v=71
75138 On ch=1 n=g6 v=98
75146 On ch=1 n=c5 v=0
75154 On ch=1 n=e4 v=98
75220 On ch=1 n=g6 v=0
75240 On ch=1 n=c5 v=85
75286 On ch=1 n=e4 v=0
75338 On ch=1 n=a6 v=106
75352 On ch=1 n=f4 v=96
75384 On ch=1 n=c5 v=0
75420 On ch=1 n=a6 v=0
75446 On ch=1 n=c5 v=87
75488 On ch=1 n=f4 v=0
75548 On ch=1 n=a#6 v=115
75548 On ch=1 n=g4 v=90
75596 On ch=1 n=c5 v=0
75658 On ch=1 n=a#6 v=0
75658 On ch=1 n=c5 v=89
75726 On ch=1 n=g4 v=0
75760 On ch=1 n=g#4 v=99
75772 On ch=1 n=b6 v=116
75812 On ch=1 n=c5 v=0
75868 On ch=1 n=c5 v=88
75922 On ch=1 n=g#4 v=0
75982 On ch=1 n=c7 v=112
75988 On ch=1 n=a4 v=97
76008 On ch=1 n=c5 v=0
76046 On ch=1 n=b6 v=0
76062 On ch=1 n=c5 v=94
76098 On ch=1 n=a4 v=0
76104 On ch=1 n=c7 v=0
76192 On ch=1 n=g#4 v=107
76204 On ch=1 n=c5 v=0
76206 On ch=1 n=b6 v=114
76270 On ch=1 n=c5 v=85
76308 On ch=1 n=g#4 v=0
76396 On ch=1 n=a4 v=98
76410 On ch=1 n=c7 v=103
76412 On ch=1 n=c5 v=0
76448 On ch=1 n=b6 v=0
76484 On ch=1 n=c5 v=103
76490 On ch=1 n=c7 v=0
76514 On ch=1 n=a4 v=0
76608 On ch=1 n=c5 v=0
76732 On ch=1 n=d7 v=98
76738 On ch=1 n=d6 v=80
76762 Par ch=1 c=64 v=63
76778 Par ch=1 c=64 v=127
77026 On ch=1 n=a#4 v=65
77114 On ch=1 n=d6 v=0
77176 On ch=1 n=d7 v=0
77258 On ch=1 n=a#4 v=0
77272 On ch=1 n=a4 v=59
77486 On ch=1 n=a#4 v=66
77536 On ch=1 n=a4 v=0
77730 On ch=1 n=e6 v=89
77730 On ch=1 n=e5 v=68
77734 On ch=1 n=a#4 v=0
77870 Par ch=1 c=64 v=63
77896 Par ch=1 c=64 v=0
77956 On ch=1 n=c5 v=83
77984 Par ch=1 c=64 v=63
78014 Par ch=1 c=64 v=127
78186 On ch=1 n=b4 v=87
78210 On ch=1 n=e5 v=0
78240 On ch=1 n=c5 v=0
78294 On ch=1 n=e6 v=0
78400 On ch=1 n=c5 v=97
78486 On ch=1 n=b4 v=0
78622 On ch=1 n=a#6 v=101
78622 On ch=1 n=a#5 v=94
78624 On ch=1 n=c5 v=0
78750 Par ch=1 c=64 v=63
78784 Par ch=1 c=64 v=0
78852 On ch=1 n=c#5 v=77
78900 Par ch=1 c=64 v=63
78924 Par ch=1 c=64 v=127
79062 On ch=1 n=b4 v=71
79098 On ch=1 n=c#5 v=0
79174 On ch=1 n=a#5 v=0
79180 On ch=1 n=a#6 v=0
79296 On ch=1 n=c#5 v=78
79360 On ch=1 n=b4 v=0
79504 On ch=1 n=c#5 v=0
79528 On ch=1 n=a6 v=82
79532 On ch=1 n=a5 v=67
79642 Par ch=1 c=64 v=63
79666 Par ch=1 c=64 v=0
79760 On ch=1 n=d5 v=70
79836 Par ch=1 c=64 v=63
79858 Par ch=1 c=64 v=127
79952 On ch=1 n=c#5 v=65
79984 On ch=1 n=d5 v=0
80014 On ch=1 n=a5 v=0
80114 On ch=1 n=a6 v=0
80190 On ch=1 n=c#5 v=0
80192 On ch=1 n=d5 v=59
80412 On ch=1 n=d5 v=0
80422 Par ch=1 c=64 v=63
80436 On ch=1 n=a6 v=88
80476 Par ch=1 c=64 v=0
80518 On ch=1 n=a6 v=0
80530 On ch=1 n=g6 v=79
80630 On ch=1 n=a#6 v=93
80642 On ch=1 n=g6 v=0
80732 On ch=1 n=a6 v=83
80736 On ch=1 n=a#6 v=0
80824 On ch=1 n=c7 v=94
80830 On ch=1 n=g5 v=78
80834 On ch=1 n=a6 v=0
80838 On ch=1 n=a#4 v=76
80898 Par ch=1 c=64 v=63
80930 Par ch=1 c=64 v=127
80940 On ch=1 n=a#6 v=101
80950 On ch=1 n=c7 v=0
81032 On ch=1 n=a#4 v=0
81040 On ch=1 n=a6 v=90
81050 On ch=1 n=a#6 v=0
81064 On ch=1 n=g5 v=0
81130 On ch=1 n=g6 v=84
81144 On ch=1 n=a6 v=0
81224 Par ch=1 c=64 v=63
81240 On ch=1 n=g6 v=0
81246 Par ch=1 c=64 v=0
81274 On ch=1 n=a5 v=77
81276 On ch=1 n=f6 v=93
81308 On ch=1 n=c5 v=68
81406 Par ch=1 c=64 v=63
81422 Par ch=1 c=64 v=127
81528 On ch=1 n=a5 v=0
81712 Par ch=1 c=64 v=63
81742 On ch=1 n=f6 v=0
81742 Par ch=1 c=64 v=0
81746 On ch=1 n=a#5 v=80
81746 On ch=1 n=e6 v=65
81864 Par ch=1 c=64 v=63
81886 Par ch=1 c=64 v=127
82010 On ch=1 n=c5 v=0
82046 On ch=1 n=a#5 v=0
82114 On ch=1 n=e6 v=0
82250 On ch=1 n=a5 v=44
82262 On ch=1 n=f5 v=52
82340 Par ch=1 c=64 v=63
82382 Par ch=1 c=64 v=0
82488 On ch=1 n=f6 v=63
82512 Par ch=1 c=64 v=63
82536 Par ch=1 c=64 v=127
82704 On ch=1 n=e6 v=73
82738 On ch=1 n=f6 v=0
82896 On ch=1 n=a5 v=0
82900 On ch=1 n=f5 v=0
82922 On ch=1 n=f6 v=84
82962 On ch=1 n=e6 v=0
83032 On ch=1 n=f6 v=0
83166 On ch=1 n=f5 v=68
83168 On ch=1 n=a5 v=71
83220 Par ch=1 c=64 v=63
83252 Par ch=1 c=64 v=0
83382 On ch=1 n=d#6 v=87
83394 Par ch=1 c=64 v=63
83414 Par ch=1 c=64 v=127
83580 On ch=1 n=a5 v=0
83584 On ch=1 n=d6 v=86
83640 On ch=1 n=f5 v=0
83670 On ch=1 n=d#6 v=0
83800 On ch=1 n=d#6 v=91
83862 On ch=1 n=d6 v=0
83924 On ch=1 n=d#6 v=0
84046 On ch=1 n=a4 v=89
84050 On ch=1 n=c5 v=96
84088 On ch=1 n=f#4 v=65
84180 Par ch=1 c=64 v=63
84210 Par ch=1 c=64 v=0
84284 On ch=1 n=d6 v=98
84384 Par ch=1 c=64 v=63
84404 Par ch=1 c=64 v=127
84482 Par ch=1 c=64 v=63
84506 Par ch=1 c=64 v=0
84506 On ch=1 n=d7 v=99
84534 On ch=1 n=d6 v=0
84598 On ch=1 n=d7 v=0
84726 On ch=1 n=d7 v=93
84730 On ch=1 n=a4 v=0
84818 On ch=1 n=d7 v=0
84824 Par ch=1 c=64 v=63
84846 Par ch=1 c=64 v=127
84872 On ch=1 n=f#4 v=0
84940 On ch=1 n=a#4 v=67
84958 On ch=1 n=g4 v=53
85050 Par ch=1 c=64 v=63
85068 On ch=1 n=c5 v=0
85116 Par ch=1 c=64 v=0
85184 On ch=1 n=d7 v=79
85400 On ch=1 n=d6 v=77
85406 On ch=1 n=d7 v=0
85452 On ch=1 n=g4 v=0
85458 On ch=1 n=a#4 v=0
85496 On ch=1 n=d6 v=0
85620 On ch=1 n=d6 v=87
85698 On ch=1 n=d6 v=0
85838 On ch=1 n=g4 v=76
85840 On ch=1 n=a#4 v=93
85858 On ch=1 n=e4 v=80
85914 Par ch=1 c=64 v=63
85930 Par ch=1 c=64 v=127
86044 On ch=1 n=c6 v=94
86256 On ch=1 n=c7 v=91
86306 On ch=1 n=c6 v=0
86312 On ch=1 n=a#4 v=0
86346 On ch=1 n=c7 v=0
86468 On ch=1 n=c7 v=84
86540 On ch=1 n=c7 v=0
86684 On ch=1 n=a4 v=59
86694 On ch=1 n=f4 v=61
86706 Par ch=1 c=64 v=63
86724 On ch=1 n=e4 v=0
86736 Par ch=1 c=64 v=0
86754 On ch=1 n=g4 v=0
86920 Par ch=1 c=64 v=63
86928 On ch=1 n=c7 v=71
86940 Par ch=1 c=64 v=127
87102 On ch=1 n=c7 v=0
87104 On ch=1 n=a4 v=0
87124 On ch=1 n=f4 v=0
87156 On ch=1 n=c6 v=81
87260 On ch=1 n=c6 v=0
87354 On ch=1 n=c6 v=63
87472 On ch=1 n=c6 v=0
87474 Par ch=1 c=64 v=63
87514 Par ch=1 c=64 v=0
87630 On ch=1 n=c#6 v=82
87704 Par ch=1 c=64 v=63
87740 Par ch=1 c=64 v=127
87858 On ch=1 n=d6 v=84
87870 On ch=1 n=c#6 v=0
88072 On ch=1 n=g4 v=67
88086 On ch=1 n=b3 v=54
88086 On ch=1 n=e6 v=92
88174 Par ch=1 c=64 v=63
88238 On ch=1 n=d6 v=0
88282 On ch=1 n=f6 v=100
88312 Par ch=1 c=64 v=127
88314 On ch=1 n=e6 v=0
88360 On ch=1 n=g4 v=0
88460 On ch=1 n=f6 v=0
88498 On ch=1 n=b3 v=0
88510 On ch=1 n=f5 v=92
88516 On ch=1 n=a4 v=71
88520 On ch=1 n=c4 v=66
88548 Par ch=1 c=64 v=63
88656 Par ch=1 c=64 v=127
88752 On ch=1 n=a4 v=0
88888 On ch=1 n=f5 v=0
88948 On ch=1 n=a#4 v=82
88950 On ch=1 n=a5 v=76
88980 On ch=1 n=e5 v=59
89010 Par ch=1 c=64 v=63
89062 Par ch=1 c=64 v=0
89078 Par ch=1 c=64 v=63
89136 On ch=1 n=c4 v=0
89144 On ch=1 n=a#4 v=0
89146 Par ch=1 c=64 v=127
89154 On ch=1 n=g5 v=81
89162 On ch=1 n=a5 v=0
89298 On ch=1 n=e5 v=0
89318 Par ch=1 c=64 v=63
89352 Par ch=1 c=64 v=0
89380 On ch=1 n=f5 v=79
89380 On ch=1 n=a4 v=65
89396 Par ch=1 c=64 v=63
89398 On ch=1 n=f4 v=66
89406 On ch=1 n=g5 v=0
89452 Par ch=1 c=64 v=127
89464 On ch=1 n=f5 v=0
89542 On ch=1 n=f4 v=0
89570 On ch=1 n=a4 v=0
89612 On ch=1 n=f5 v=76
89694 On ch=1 n=a5 v=78
89708 On ch=1 n=f5 v=0
89770 On ch=1 n=a5 v=0
89794 On ch=1 n=e5 v=67
89814 On ch=1 n=g5 v=77
89888 On ch=1 n=a#5 v=78
89900 On ch=1 n=g5 v=0
89900 Par ch=1 c=64 v=63
89966 Par ch=1 c=64 v=0
89976 On ch=1 n=e5 v=0
89984 On ch=1 n=a5 v=84
89998 On ch=1 n=a#5 v=0
90000 On ch=1 n=d#5 v=80
90070 On ch=1 n=d#5 v=0
90102 On ch=1 n=a5 v=0
90112 On ch=1 n=c6 v=78
90220 Par ch=1 c=64 v=63
90224 On ch=1 n=a#5 v=93
90236 On ch=1 n=c6 v=0
90240 On ch=1 n=f4 v=73
90242 On ch=1 n=d5 v=66
90246 Par ch=1 c=64 v=127
90298 On ch=1 n=a#5 v=0
90372 On ch=1 n=f4 v=0
90388 On ch=1 n=d5 v=0
90444 On ch=1 n=f5 v=82
90530 Par ch=1 c=64 v=63
90544 On ch=1 n=f5 v=0
90548 On ch=1 n=a5 v=80
90590 Par ch=1 c=64 v=0
90628 On ch=1 n=a5 v=0
90652 On ch=1 n=e5 v=69
90662 On ch=1 n=g5 v=75
90752 On ch=1 n=g5 v=0
90760 On ch=1 n=a#5 v=85
90804 On ch=1 n=e5 v=0
90846 On ch=1 n=d#5 v=61
90852 On ch=1 n=a5 v=86
90866 On ch=1 n=a#5 v=0
90906 On ch=1 n=d#5 v=0
90960 On ch=1 n=a5 v=0
90984 On ch=1 n=c6 v=88
91082 On ch=1 n=a#5 v=97
91092 On ch=1 n=f4 v=78
91096 On ch=1 n=c6 v=0
91096 On ch=1 n=d5 v=76
91110 Par ch=1 c=64 v=63
91120 Par ch=1 c=64 v=127
91154 On ch=1 n=a#5 v=0
91182 On ch=1 n=f4 v=0
91184 On ch=1 n=d5 v=0
91308 On ch=1 n=f5 v=84
91414 On ch=1 n=f5 v=0
91416 On ch=1 n=a5 v=79
91496 On ch=1 n=a5 v=0
91524 On ch=1 n=g5 v=80
91540 On ch=1 n=e5 v=68
91578 Par ch=1 c=64 v=63
91602 On ch=1 n=a#5 v=96
91616 On ch=1 n=g5 v=0
91648 Par ch=1 c=64 v=0
91664 On ch=1 n=e5 v=0
91722 On ch=1 n=a5 v=84
91724 On ch=1 n=a#5 v=0
91744 On ch=1 n=d#5 v=65
91826 On ch=1 n=a5 v=0
91826 On ch=1 n=c6 v=86
91828 On ch=1 n=d#5 v=0
91898 Par ch=1 c=64 v=63
91928 On ch=1 n=a#5 v=103
91930 On ch=1 n=c6 v=0
91946 On ch=1 n=d5 v=80
91974 Par ch=1 c=64 v=127
92014 On ch=1 n=a#5 v=0
92022 On ch=1 n=d6 v=93
92036 On ch=1 n=d5 v=0
92108 On ch=1 n=d6 v=0
92156 On ch=1 n=c6 v=86
92158 On ch=1 n=a4 v=81
92180 Par ch=1 c=64 v=63
92218 On ch=1 n=a4 v=0
92242 Par ch=1 c=64 v=0
92248 On ch=1 n=d#6 v=101
92264 On ch=1 n=c6 v=0
92356 On ch=1 n=d#6 v=0
92362 On ch=1 n=d6 v=92
92388 On ch=1 n=a#4 v=88
92450 On ch=1 n=f6 v=97
92468 On ch=1 n=a#4 v=0
92468 On ch=1 n=d6 v=0
92556 On ch=1 n=e6 v=97
92582 On ch=1 n=f6 v=0
92582 On ch=1 n=g4 v=90
92676 On ch=1 n=g6 v=99
92682 On ch=1 n=e6 v=0
92688 On ch=1 n=g4 v=0
92792 On ch=1 n=g6 v=0
92810 On ch=1 n=f6 v=98
92812 On ch=1 n=a4 v=104
92888 Par ch=1 c=64 v=63
92904 Par ch=1 c=64 v=127
92926 On ch=1 n=g6 v=87
92928 On ch=1 n=f6 v=0
93022 On ch=1 n=a6 v=84
93026 On ch=1 n=g6 v=0
93134 On ch=1 n=g6 v=84
93146 On ch=1 n=a6 v=0
93236 On ch=1 n=f6 v=88
93240 On ch=1 n=a4 v=0
93244 On ch=1 n=g6 v=0
93352 On ch=1 n=d#6 v=100
93362 On ch=1 n=f6 v=0
93434 On ch=1 n=d#6 v=0
93446 On ch=1 n=d6 v=86
93544 On ch=1 n=d6 v=0
93550 On ch=1 n=c#6 v=76
93632 On ch=1 n=c#6 v=0
93664 Par ch=1 c=64 v=63
93666 On ch=1 n=a#4 v=94
93670 On ch=1 n=d6 v=91
93698 Par ch=1 c=64 v=0
93780 On ch=1 n=c6 v=87
93782 Par ch=1 c=64 v=63
93790 On ch=1 n=d6 v=0
93820 Par ch=1 c=64 v=127
93876 On ch=1 n=a#5 v=80
93902 On ch=1 n=c6 v=0
93966 On ch=1 n=a#5 v=0
93984 On ch=1 n=a5 v=71
94012 On ch=1 n=a#4 v=0
94070 On ch=1 n=a5 v=0
94082 On ch=1 n=g5 v=87
94186 On ch=1 n=g5 v=0
94192 On ch=1 n=f5 v=94
94270 On ch=1 n=f5 v=0
94286 On ch=1 n=e5 v=72
94350 On ch=1 n=e5 v=0
94374 On ch=1 n=d5 v=90
94386 Par ch=1 c=64 v=63
94412 Par ch=1 c=64 v=0
94448 On ch=1 n=d5 v=0
94484 On ch=1 n=c5 v=88
94508 Par ch=1 c=64 v=63
94510 On ch=1 n=c4 v=84
94546 Par ch=1 c=64 v=127
94584 On ch=1 n=c5 v=0
94588 On ch=1 n=f5 v=90
94666 On ch=1 n=a5 v=96
94678 On ch=1 n=f5 v=0
94702 On ch=1 n=f4 v=85
94732 On ch=1 n=a5 v=0
94780 On ch=1 n=c6 v=94
94860 On ch=1 n=c6 v=0
94888 On ch=1 n=f6 v=99
94918 On ch=1 n=a4 v=85
94940 Par ch=1 c=64 v=63
94950 On ch=1 n=f6 v=0
94954 On ch=1 n=f4 v=0
94954 Par ch=1 c=64 v=0
95098 On ch=1 n=c4 v=0
95114 On ch=1 n=a5 v=112
95124 On ch=1 n=f5 v=91
95134 On ch=1 n=f4 v=71
95140 On ch=1 n=a4 v=0
95160 On ch=1 n=f5 v=0
95178 On ch=1 n=a5 v=0
95318 On ch=1 n=f4 v=0
95338 On ch=1 n=a5 v=103
95350 On ch=1 n=c6 v=98
95366 On ch=1 n=c4 v=69
95388 Par ch=1 c=64 v=63
95400 Par ch=1 c=64 v=127
95446 On ch=1 n=a5 v=0
95526 Par ch=1 c=64 v=63
95540 Par ch=1 c=64 v=0
95564 On ch=1 n=c6 v=0
95566 On ch=1 n=a#5 v=96
95580 On ch=1 n=g5 v=86
95588 On ch=1 n=g4 v=70
95622 On ch=1 n=g5 v=0
95642 On ch=1 n=a#5 v=0
95796 On ch=1 n=a#4 v=78
95800 On ch=1 n=g4 v=0
95800 On ch=1 n=f5 v=76
95804 On ch=1 n=a5 v=86
95846 On ch=1 n=a5 v=0
95854 On ch=1 n=f5 v=0
95966 On ch=1 n=a#4 v=0
95994 On ch=1 n=c4 v=0
96006 On ch=1 n=e5 v=71
96008 On ch=1 n=g5 v=81
96022 On ch=1 n=g4 v=48
96060 On ch=1 n=g5 v=0
96088 On ch=1 n=e5 v=0
96176 On ch=1 n=g4 v=0
96224 Par ch=1 c=64 v=63
96226 On ch=1 n=f4 v=76
96232 Par ch=1 c=64 v=127
96234 On ch=1 n=a4 v=76
96238 On ch=1 n=f5 v=79
96280 On ch=1 n=f5 v=0
96284 On ch=1 n=f4 v=0
96290 On ch=1 n=a4 v=0
96486 On ch=1 n=f6 v=80
96492 On ch=1 n=f5 v=63
96602 On ch=1 n=a6 v=81
96620 On ch=1 n=f6 v=0
96690 Par ch=1 c=64 v=63
96698 On ch=1 n=g6 v=87
96714 Par ch=1 c=64 v=127
96728 On ch=1 n=e5 v=63
96730 On ch=1 n=a6 v=0
96748 On ch=1 n=f5 v=0
96788 On ch=1 n=a#6 v=99
96818 On ch=1 n=g6 v=0
96880 On ch=1 n=a6 v=86
96906 On ch=1 n=d#5 v=82
96916 On ch=1 n=e5 v=0
96956 On ch=1 n=d#5 v=0
96988 On ch=1 n=c7 v=85
96998 On ch=1 n=a6 v=0
97002 On ch=1 n=a#6 v=0
97022 Par ch=1 c=64 v=63
97036 Par ch=1 c=64 v=0
97098 On ch=1 n=d5 v=85
97106 Par ch=1 c=64 v=63
97106 On ch=1 n=f4 v=88
97108 On ch=1 n=a#6 v=95
97124 Par ch=1 c=64 v=127
97130 On ch=1 n=c7 v=0
97230 On ch=1 n=f4 v=0
97248 On ch=1 n=a#6 v=0
97248 On ch=1 n=d5 v=0
97344 On ch=1 n=f5 v=85
97358 On ch=1 n=f6 v=83
97404 Par ch=1 c=64 v=63
97456 On ch=1 n=a6 v=93
97478 On ch=1 n=f6 v=0
97514 Par ch=1 c=64 v=127
97546 On ch=1 n=e5 v=76
97558 On ch=1 n=f5 v=0
97562 On ch=1 n=g6 v=88
97570 On ch=1 n=a6 v=0
97650 On ch=1 n=a#6 v=101
97674 On ch=1 n=g6 v=0
97730 On ch=1 n=d#5 v=87
97734 On ch=1 n=a6 v=99
97740 On ch=1 n=e5 v=0
97758 Par ch=1 c=64 v=63
97786 Par ch=1 c=64 v=0
97790 On ch=1 n=a#6 v=0
97802 On ch=1 n=d#5 v=0
97866 On ch=1 n=c7 v=93
97868 Par ch=1 c=64 v=63
97870 On ch=1 n=a6 v=0
97902 Par ch=1 c=64 v=127
97932 On ch=1 n=f4 v=88
97934 On ch=1 n=d5 v=83
97978 On ch=1 n=a#6 v=88
97990 On ch=1 n=c7 v=0
98028 On ch=1 n=f4 v=0
98040 On ch=1 n=a#6 v=0
98056 On ch=1 n=d5 v=0
98174 On ch=1 n=f6 v=96
98194 Par ch=1 c=64 v=63
98194 On ch=1 n=f5 v=82
98276 On ch=1 n=f6 v=0
98276 On ch=1 n=a6 v=94
98326 Par ch=1 c=64 v=127
98374 On ch=1 n=a6 v=0
98380 On ch=1 n=g6 v=89
98384 On ch=1 n=e5 v=68
98390 On ch=1 n=f5 v=0
98464 On ch=1 n=a#6 v=96
98486 On ch=1 n=g6 v=0
98550 On ch=1 n=e5 v=0
98558 On ch=1 n=a6 v=96
98574 On ch=1 n=d#5 v=84
98584 Par ch=1 c=64 v=63
98586 On ch=1 n=a#6 v=0
98658 On ch=1 n=d#5 v=0
98662 On ch=1 n=a6 v=0
98684 On ch=1 n=c7 v=88
98768 On ch=1 n=c7 v=0
98780 Par ch=1 c=64 v=0
98792 On ch=1 n=d5 v=88
98796 On ch=1 n=a#6 v=103
98864 On ch=1 n=a#6 v=0
98872 On ch=1 n=d5 v=0
98896 On ch=1 n=f6 v=84
98970 On ch=1 n=f6 v=0
99008 On ch=1 n=c7 v=97
99010 On ch=1 n=a4 v=90
99080 On ch=1 n=a4 v=0
99082 On ch=1 n=c7 v=0
99090 On ch=1 n=f6 v=89
99168 On ch=1 n=f6 v=0
99214 On ch=1 n=d7 v=116
99224 On ch=1 n=a#4 v=100
99294 On ch=1 n=a#4 v=0
99308 On ch=1 n=d7 v=0
99308 On ch=1 n=f6 v=100
99392 On ch=1 n=f6 v=0
99426 On ch=1 n=g4 v=108
99426 On ch=1 n=e7 v=117
99502 On ch=1 n=g4 v=0
99518 On ch=1 n=f6 v=100
99540 On ch=1 n=e7 v=0
99600 On ch=1 n=f6 v=0
99664 On ch=1 n=a4 v=112
99666 On ch=1 n=f7 v=118
99666 On ch=1 n=a3 v=100
99680 Par ch=1 c=64 v=127
99694 On ch=1 n=a4 v=0
99700 On ch=1 n=a3 v=0
99794 On ch=1 n=e7 v=102
99852 On ch=1 n=f7 v=0
99898 On ch=1 n=d7 v=101
99976 On ch=1 n=e7 v=0
99990 On ch=1 n=d7 v=0
99994 On ch=1 n=c7 v=92
100060 On ch=1 n=c7 v=0
100094 On ch=1 n=a#6 v=100
100196 On ch=1 n=a6 v=101
100248 On ch=1 n=a#6 v=0
100308 On ch=1 n=g6 v=79
100334 On ch=1 n=a6 v=0
100378 On ch=1 n=f6 v=88
100398 On ch=1 n=g6 v=0
100462 On ch=1 n=f6 v=0
100464 Par ch=1 c=64 v=63
100478 Par ch=1 c=64 v=0
100500 On ch=1 n=a#4 v=125
100502 On ch=1 n=d7 v=112
100504 On ch=1 n=a#3 v=116
100550 Par ch=1 c=64 v=63
100578 Par ch=1 c=64 v=127
100588 On ch=1 n=c7 v=104
100638 On ch=1 n=d7 v=0
100694 On ch=1 n=a#6 v=108
100728 On ch=1 n=c7 v=0
100798 On ch=1 n=a6 v=100
100814 On ch=1 n=a#6 v=0
100858 On ch=1 n=a#3 v=0
100886 On ch=1 n=a#4 v=0
100902 On ch=1 n=g6 v=96
100908 On ch=1 n=a6 v=0
100988 On ch=1 n=g6 v=0
101008 On ch=1 n=f6 v=101
101106 On ch=1 n=e6 v=103
101130 On ch=1 n=f6 v=0
101190 Par ch=1 c=64 v=63
101198 On ch=1 n=d6 v=94
101202 On ch=1 n=e6 v=0
101208 Par ch=1 c=64 v=0
101290 On ch=1 n=d6 v=0
101324 On ch=1 n=c6 v=111
101330 On ch=1 n=c4 v=120
101340 Par ch=1 c=64 v=63
101354 Par ch=1 c=64 v=127
101404 On ch=1 n=c6 v=0
101462 On ch=1 n=a4 v=71
101590 On ch=1 n=a4 v=0
101598 On ch=1 n=c7 v=104
101606 On ch=1 n=f4 v=75
101634 On ch=1 n=c4 v=0
101692 On ch=1 n=a4 v=65
101696 On ch=1 n=c7 v=0
101708 On ch=1 n=f4 v=0
101804 On ch=1 n=a4 v=0
101804 On ch=1 n=c7 v=112
101812 On ch=1 n=c4 v=94
101908 On ch=1 n=a4 v=71
101912 On ch=1 n=c7 v=0
102010 On ch=1 n=c7 v=111
102018 On ch=1 n=f4 v=81
102030 On ch=1 n=a4 v=0
102072 On ch=1 n=c4 v=0
102092 On ch=1 n=a4 v=84
102124 On ch=1 n=f4 v=0
102126 On ch=1 n=c7 v=0
102212 On ch=1 n=a4 v=0
102218 On ch=1 n=c7 v=112
102222 On ch=1 n=c4 v=109
102304 On ch=1 n=a6 v=102
102314 On ch=1 n=a4 v=64
102324 On ch=1 n=c7 v=0
102410 On ch=1 n=f6 v=100
102422 On ch=1 n=a6 v=0
102430 On ch=1 n=a4 v=0
102434 On ch=1 n=f4 v=81
102500 On ch=1 n=f6 v=0
102502 On ch=1 n=a4 v=77
102508 On ch=1 n=c4 v=0
102508 On ch=1 n=c6 v=88
102526 On ch=1 n=f4 v=0
102594 On ch=1 n=c6 v=0
102618 On ch=1 n=a4 v=0
102622 On ch=1 n=c4 v=106
102628 On ch=1 n=f6 v=104
102704 On ch=1 n=c6 v=93
102710 On ch=1 n=a4 v=63
102730 On ch=1 n=f6 v=0
102792 On ch=1 n=c6 v=0
102824 On ch=1 n=a5 v=75
102828 On ch=1 n=a4 v=0
102834 On ch=1 n=f4 v=71
102876 On ch=1 n=c4 v=0
102884 On ch=1 n=f5 v=97
102886 On ch=1 n=a5 v=0
102902 On ch=1 n=a4 v=74
102922 On ch=1 n=f4 v=0
102974 On ch=1 n=f5 v=0
103016 On ch=1 n=g5 v=112
103020 On ch=1 n=a4 v=0
103028 Par ch=1 c=64 v=63
103036 On ch=1 n=c4 v=85
103040 Par ch=1 c=64 v=0
103092 Par ch=1 c=64 v=63
103120 Par ch=1 c=64 v=127
103174 On ch=1 n=g5 v=0
103204 On ch=1 n=a#4 v=71
103206 On ch=1 n=a5 v=92
103286 On ch=1 n=a5 v=0
103290 On ch=1 n=g5 v=81
103298 On ch=1 n=c4 v=0
103314 On ch=1 n=a#4 v=0
103324 On ch=1 n=e4 v=71
103360 On ch=1 n=a5 v=91
103392 On ch=1 n=a#4 v=67
103394 On ch=1 n=g5 v=0
103418 On ch=1 n=e4 v=0
103426 On ch=1 n=a5 v=0
103440 On ch=1 n=g5 v=90
103484 On ch=1 n=c4 v=78
103488 On ch=1 n=a#4 v=0
103502 On ch=1 n=a5 v=101
103526 On ch=1 n=g5 v=0
103566 On ch=1 n=a#4 v=61
103574 On ch=1 n=a5 v=0
103580 On ch=1 n=g5 v=84
103636 On ch=1 n=c4 v=0
103648 On ch=1 n=a5 v=93
103670 On ch=1 n=g5 v=0
103688 On ch=1 n=a#4 v=0
103714 On ch=1 n=e4 v=55
103724 On ch=1 n=a5 v=0
103726 On ch=1 n=g5 v=82
103766 On ch=1 n=a#4 v=68
103786 On ch=1 n=e4 v=0
103788 On ch=1 n=a5 v=96
103814 On ch=1 n=g5 v=0
103860 On ch=1 n=a5 v=0
103862 On ch=1 n=g5 v=93
103874 On ch=1 n=c4 v=91
103878 On ch=1 n=a#4 v=0
103930 On ch=1 n=a5 v=98
103952 On ch=1 n=g5 v=0
103954 On ch=1 n=a#4 v=68
104004 On ch=1 n=a5 v=0
104004 On ch=1 n=g5 v=90
104024 On ch=1 n=c4 v=0
104064 On ch=1 n=a#4 v=0
104082 On ch=1 n=a5 v=90
104092 On ch=1 n=e4 v=51
104096 On ch=1 n=g5 v=0
104130 On ch=1 n=a#4 v=70
104134 On ch=1 n=a5 v=0
104146 On ch=1 n=g5 v=96
104164 On ch=1 n=e4 v=0
104230 On ch=1 n=a5 v=83
104244 On ch=1 n=g5 v=0
104258 On ch=1 n=c4 v=76
104272 On ch=1 n=a#4 v=0
104334 On ch=1 n=g5 v=78
104344 On ch=1 n=a5 v=0
104356 On ch=1 n=a#4 v=52
104398 On ch=1 n=c4 v=0
104404 On ch=1 n=a5 v=98
104410 On ch=1 n=e4 v=59
104426 On ch=1 n=g5 v=0
104474 On ch=1 n=a5 v=0
104478 On ch=1 n=e4 v=0
104480 On ch=1 n=g5 v=87
104548 On ch=1 n=a#4 v=0
104560 On ch=1 n=f5 v=84
104562 On ch=1 n=g5 v=0
104616 On ch=1 n=g5 v=79
104654 On ch=1 n=f5 v=0
104712 Par ch=1 c=64 v=63
104728 Par ch=1 c=64 v=0
104774 On ch=1 n=f5 v=84
104776 On ch=1 n=g5 v=0
104784 On ch=1 n=f4 v=67
104860 Par ch=1 c=64 v=63
104882 Par ch=1 c=64 v=127
104994 On ch=1 n=f5 v=0
105056 On ch=1 n=f4 v=0
105114 On ch=1 n=f5 v=62
105134 On ch=1 n=f6 v=75
105238 On ch=1 n=f6 v=0
105406 On ch=1 n=e5 v=79
105428 On ch=1 n=f5 v=0
105612 On ch=1 n=f5 v=86
105626 On ch=1 n=f6 v=100
105652 On ch=1 n=e5 v=0
105834 Par ch=1 c=64 v=63
105838 On ch=1 n=g5 v=82
105840 On ch=1 n=e6 v=98
105888 Par ch=1 c=64 v=0
105890 On ch=1 n=f5 v=0
105902 On ch=1 n=f6 v=0
106042 On ch=1 n=f5 v=82
106064 On ch=1 n=f6 v=100
106082 On ch=1 n=g5 v=0
106090 On ch=1 n=e6 v=0
106274 On ch=1 n=e5 v=77
106286 On ch=1 n=g6 v=84
106292 On ch=1 n=f6 v=0
106316 On ch=1 n=f5 v=0
106494 Par ch=1 c=64 v=63
106496 On ch=1 n=e5 v=0
106498 On ch=1 n=a6 v=82
106498 On ch=1 n=d#5 v=80
106510 Par ch=1 c=64 v=127
106534 On ch=1 n=g6 v=0
106610 On ch=1 n=a6 v=0
106708 On ch=1 n=d#5 v=0
106730 On ch=1 n=a#6 v=98
106734 On ch=1 n=d5 v=71
106832 Par ch=1 c=64 v=63
106844 On ch=1 n=c7 v=85
106852 On ch=1 n=a#6 v=0
106918 Par ch=1 c=64 v=0
106936 On ch=1 n=f4 v=81
106954 On ch=1 n=c7 v=0
106958 On ch=1 n=d7 v=84
107056 On ch=1 n=c7 v=84
107082 On ch=1 n=d7 v=0
107154 On ch=1 n=a#6 v=97
107178 On ch=1 n=c7 v=0
107178 On ch=1 n=c#5 v=84
107180 On ch=1 n=d5 v=0
107196 On ch=1 n=f4 v=0
107278 On ch=1 n=g#6 v=87
107318 On ch=1 n=a#6 v=0
107382 On ch=1 n=g#6 v=0
107382 On ch=1 n=g6 v=73
107392 On ch=1 n=f4 v=50
107482 On ch=1 n=f6 v=76
107492 On ch=1 n=g6 v=0
107584 On ch=1 n=f6 v=0
107594 On ch=1 n=e6 v=79
107602 On ch=1 n=f4 v=0
107604 On ch=1 n=c5 v=71
107620 On ch=1 n=c#5 v=0
107688 On ch=1 n=f6 v=85
107700 On ch=1 n=e6 v=0
107796 On ch=1 n=f6 v=0
107800 On ch=1 n=g6 v=76
107814 On ch=1 n=f4 v=62
107826 On ch=1 n=c5 v=0
107908 On ch=1 n=f6 v=80
107944 On ch=1 n=g6 v=0
108008 On ch=1 n=e6 v=76
108034 On ch=1 n=e5 v=77
108040 On ch=1 n=f6 v=0
108070 On ch=1 n=f4 v=0
108102 On ch=1 n=e6 v=0
108112 On ch=1 n=d6 v=60
108204 On ch=1 n=d6 v=0
108224 On ch=1 n=c6 v=72
108232 On ch=1 n=e5 v=0
108244 On ch=1 n=f4 v=40
108332 On ch=1 n=c6 v=0
108342 On ch=1 n=a#5 v=80
108438 On ch=1 n=a#5 v=0
108456 On ch=1 n=a5 v=62
108470 On ch=1 n=f5 v=69
108506 On ch=1 n=a5 v=0
108518 On ch=1 n=f4 v=0
108656 On ch=1 n=f5 v=0
108712 On ch=1 n=f4 v=67
108718 On ch=1 n=a5 v=73
108796 Par ch=1 c=64 v=63
108816 Par ch=1 c=64 v=127
108830 On ch=1 n=a5 v=0
108938 On ch=1 n=e4 v=83
109018 On ch=1 n=f4 v=0
109094 Par ch=1 c=64 v=63
109154 On ch=1 n=f5 v=86
109156 On ch=1 n=f4 v=91
109170 Par ch=1 c=64 v=0
109262 On ch=1 n=e4 v=0
109380 On ch=1 n=e5 v=87
109386 On ch=1 n=g4 v=85
109430 On ch=1 n=f5 v=0
109462 On ch=1 n=f4 v=0
109612 On ch=1 n=f5 v=87
109612 On ch=1 n=f4 v=99
109622 On ch=1 n=e5 v=0
109648 On ch=1 n=g4 v=0
109816 On ch=1 n=f5 v=0
109836 On ch=1 n=g5 v=83
109846 On ch=1 n=e4 v=85
109882 On ch=1 n=f4 v=0
110036 On ch=1 n=g5 v=0
110050 On ch=1 n=a5 v=68
110056 On ch=1 n=d#4 v=75
110082 On ch=1 n=e4 v=0
110112 Par ch=1 c=64 v=63
110276 On ch=1 n=a#5 v=86
110290 On ch=1 n=a5 v=0
110292 On ch=1 n=d4 v=72
110322 On ch=1 n=d#4 v=0
110386 On ch=1 n=a#5 v=0
110450 Par ch=1 c=64 v=0
110488 On ch=1 n=c6 v=71
110530 On ch=1 n=a#5 v=74
110558 On ch=1 n=c6 v=0
110558 On ch=1 n=d4 v=0
110614 On ch=1 n=a#5 v=0
110620 On ch=1 n=a5 v=65
110682 On ch=1 n=a#5 v=70
110714 On ch=1 n=a5 v=0
110760 On ch=1 n=a#3 v=81
110768 On ch=1 n=c6 v=89
110780 On ch=1 n=a#5 v=0
110852 On ch=1 n=c6 v=0
110982 On ch=1 n=a#3 v=0
111006 On ch=1 n=d6 v=92
111090 On ch=1 n=d6 v=0
111218 Par ch=1 c=64 v=63
111228 On ch=1 n=a#5 v=85
111240 On ch=1 n=c4 v=63
111242 On ch=1 n=d6 v=87
111274 Par ch=1 c=64 v=127
111378 On ch=1 n=a#5 v=0
111436 On ch=1 n=d6 v=0
111460 On ch=1 n=c6 v=74
111464 Par ch=1 c=64 v=63
111468 On ch=1 n=c4 v=0
111482 On ch=1 n=a5 v=71
111502 Par ch=1 c=64 v=0
111532 On ch=1 n=a5 v=0
111546 On ch=1 n=c6 v=0
111676 On ch=1 n=c4 v=70
111738 Par ch=1 c=64 v=63
111802 Par ch=1 c=64 v=127
111906 On ch=1 n=e5 v=84
111908 On ch=1 n=a#4 v=70
112096 On ch=1 n=a#4 v=0
112228 On ch=1 n=c4 v=0
112230 On ch=1 n=g5 v=88
112230 On ch=1 n=a#4 v=75
112232 On ch=1 n=f4 v=34
112306 On ch=1 n=e5 v=0
112318 Par ch=1 c=64 v=63
112352 Par ch=1 c=64 v=0
112464 Par ch=1 c=64 v=63
112490 Par ch=1 c=64 v=127
112764 On ch=1 n=c4 v=45
112766 On ch=1 n=f4 v=0
112772 On ch=1 n=a#4 v=0
112888 On ch=1 n=g5 v=0
113220 On ch=1 n=c4 v=0
113318 On ch=1 n=f5 v=59
113318 On ch=1 n=a4 v=50
113322 On ch=1 n=f3 v=48
113402 Par ch=1 c=64 v=63
113442 Par ch=1 c=64 v=0
113740 On ch=1 n=f5 v=0
113782 On ch=1 n=a4 v=0
113788 On ch=1 n=f3 v=0
113956 On ch=1 n=d6 v=73
114072 On ch=1 n=c6 v=69
114078 On ch=1 n=d6 v=0
114086 Par ch=1 c=64 v=63
114120 Par ch=1 c=64 v=127
114184 On ch=1 n=a#5 v=71
114218 On ch=1 n=c6 v=0
114288 On ch=1 n=a#5 v=0
114298 On ch=1 n=a5 v=63
114412 On ch=1 n=a5 v=0
114416 On ch=1 n=g5 v=57
114484 Par ch=1 c=64 v=63
114524 Par ch=1 c=64 v=0
114612 Par ch=1 c=64 v=63
114660 Par ch=1 c=64 v=127
114668 On ch=1 n=f5 v=66
114688 On ch=1 n=f3 v=41
114726 On ch=1 n=g5 v=0
114830 On ch=1 n=f5 v=0
114912 On ch=1 n=f5 v=57
114928 On ch=1 n=a3 v=43
115004 Par ch=1 c=64 v=63
115040 Par ch=1 c=64 v=127
115154 On ch=1 n=c4 v=64
115208 On ch=1 n=a3 v=0
115232 On ch=1 n=f5 v=0
115392 On ch=1 n=f3 v=0
115392 On ch=1 n=a3 v=64
115400 On ch=1 n=c4 v=0
115598 On ch=1 n=f6 v=94
115604 On ch=1 n=f3 v=63
115618 On ch=1 n=a3 v=0
115694 Par ch=1 c=64 v=63
115758 Par ch=1 c=64 v=127
115816 On ch=1 n=g6 v=98
115818 On ch=1 n=a3 v=62
115906 On ch=1 n=f6 v=0
116030 On ch=1 n=a6 v=98
116040 On ch=1 n=c4 v=70
116044 On ch=1 n=a3 v=0
116044 On ch=1 n=f3 v=0
116072 On ch=1 n=g6 v=0
116130 On ch=1 n=c4 v=0
116158 On ch=1 n=a6 v=0
116184 On ch=1 n=e6 v=86
116276 On ch=1 n=a#6 v=105
116358 On ch=1 n=e6 v=0
116518 On ch=1 n=g4 v=70
116600 Par ch=1 c=64 v=63
116640 On ch=1 n=g6 v=96
116648 Par ch=1 c=64 v=0
116730 On ch=1 n=a#4 v=77
116732 On ch=1 n=a#6 v=0
116760 On ch=1 n=e6 v=90
116788 Par ch=1 c=64 v=63
116830 On ch=1 n=g6 v=0
116834 Par ch=1 c=64 v=127
116978 On ch=1 n=e5 v=59
117018 On ch=1 n=a#4 v=0
117088 On ch=1 n=e6 v=0
117200 On ch=1 n=a#4 v=78
117242 On ch=1 n=e5 v=0
117250 On ch=1 n=g4 v=0
117408 On ch=1 n=g4 v=76
117436 On ch=1 n=a#4 v=0
117620 On ch=1 n=a#4 v=70
117626 Par ch=1 c=64 v=63
117642 On ch=1 n=c6 v=76
117672 Par ch=1 c=64 v=0
117734 On ch=1 n=a#5 v=68
117748 On ch=1 n=c6 v=0
117850 On ch=1 n=a5 v=66
117864 On ch=1 n=a#5 v=0
117878 On ch=1 n=e5 v=64
117902 On ch=1 n=a#4 v=0
117936 On ch=1 n=g5 v=65
117938 On ch=1 n=a5 v=0
118004 On ch=1 n=e5 v=0
118040 On ch=1 n=g4 v=0
118060 On ch=1 n=f5 v=72
118066 On ch=1 n=g5 v=0
118306 On ch=1 n=e5 v=73
118332 On ch=1 n=g3 v=54
118366 On ch=1 n=f5 v=0
118438 Par ch=1 c=64 v=63
118456 On ch=1 n=e5 v=0
118460 Par ch=1 c=64 v=127
118542 On ch=1 n=e5 v=67
118546 On ch=1 n=a#3 v=65
118758 On ch=1 n=e4 v=69
118780 On ch=1 n=e5 v=0
118788 On ch=1 n=a#3 v=0
118968 On ch=1 n=a#3 v=80
118986 On ch=1 n=e4 v=0
119020 On ch=1 n=g3 v=0
119202 On ch=1 n=g3 v=71
119214 On ch=1 n=g6 v=93
119230 On ch=1 n=a#3 v=0
119252 Par ch=1 c=64 v=63
119356 Par ch=1 c=64 v=127
119434 On ch=1 n=a#3 v=78
119434 On ch=1 n=a6 v=106
119502 On ch=1 n=g6 v=0
119644 On ch=1 n=a#6 v=109
119650 On ch=1 n=g3 v=0
119658 On ch=1 n=e4 v=87
119686 On ch=1 n=a#3 v=0
119694 On ch=1 n=a6 v=0
119732 On ch=1 n=e4 v=0
119784 On ch=1 n=f#6 v=104
119840 On ch=1 n=a#6 v=0
119894 On ch=1 n=c7 v=100
119936 On ch=1 n=f#6 v=0
120034 Par ch=1 c=64 v=63
120066 Par ch=1 c=64 v=0
120102 On ch=1 n=a4 v=67
120176 Par ch=1 c=64 v=63
120200 Par ch=1 c=64 v=127
120240 On ch=1 n=a6 v=97
120258 On ch=1 n=c7 v=0
120334 On ch=1 n=c5 v=67
120346 On ch=1 n=f#6 v=91
120394 On ch=1 n=a6 v=0
120402 Par ch=1 c=64 v=63
120422 Par ch=1 c=64 v=0
120548 Par ch=1 c=64 v=63
120558 On ch=1 n=d#5 v=88
120564 Par ch=1 c=64 v=127
120618 On ch=1 n=c5 v=0
120732 On ch=1 n=f#6 v=0
120780 On ch=1 n=c5 v=97
120794 On ch=1 n=d#5 v=0
120818 On ch=1 n=a4 v=0
120978 On ch=1 n=a4 v=82
121006 On ch=1 n=a6 v=104
121048 On ch=1 n=c5 v=0
121092 Par ch=1 c=64 v=63
121120 Par ch=1 c=64 v=0
121210 On ch=1 n=a#6 v=112
121218 On ch=1 n=c5 v=97
121254 Par ch=1 c=64 v=63
121280 Par ch=1 c=64 v=127
121308 On ch=1 n=a6 v=0
121420 On ch=1 n=c7 v=112
121424 On ch=1 n=d#5 v=101
121474 On ch=1 n=c5 v=0
121474 On ch=1 n=a#6 v=0
121512 On ch=1 n=d#5 v=0
121516 On ch=1 n=a4 v=0
121562 On ch=1 n=g6 v=84
121642 On ch=1 n=c7 v=0
121646 Par ch=1 c=64 v=63
121656 Par ch=1 c=64 v=0
121670 On ch=1 n=d7 v=108
121736 On ch=1 n=g6 v=0
121838 Par ch=1 c=64 v=63
121844 Par ch=1 c=64 v=127
121872 On ch=1 n=a#3 v=81
122024 On ch=1 n=a#6 v=98
122026 On ch=1 n=d7 v=0
122116 On ch=1 n=d4 v=71
122124 Par ch=1 c=64 v=63
122138 On ch=1 n=g6 v=80
122142 Par ch=1 c=64 v=0
122154 On ch=1 n=a#6 v=0
122338 On ch=1 n=g4 v=67
122408 On ch=1 n=d4 v=0
122412 On ch=1 n=g6 v=0
122442 On ch=1 n=a#3 v=0
122480 On ch=1 n=e6 v=98
122508 On ch=1 n=g4 v=0
122550 Par ch=1 c=64 v=63
122552 Par ch=1 c=64 v=127
122586 On ch=1 n=a#6 v=104
122692 On ch=1 n=e6 v=0
122780 On ch=1 n=c4 v=72
122956 On ch=1 n=g6 v=71
122968 On ch=1 n=a#6 v=0
123018 On ch=1 n=g4 v=50
123044 On ch=1 n=e6 v=81
123076 Par ch=1 c=64 v=63
123096 Par ch=1 c=64 v=0
123100 On ch=1 n=g6 v=0
123208 Par ch=1 c=64 v=63
123230 Par ch=1 c=64 v=127
123236 On ch=1 n=e6 v=0
123272 On ch=1 n=a#4 v=72
123338 On ch=1 n=c4 v=0
123352 On ch=1 n=g4 v=0
123412 On ch=1 n=a#4 v=0
123426 On ch=1 n=b5 v=82
123470 Par ch=1 c=64 v=63
123500 Par ch=1 c=64 v=0
123532 On ch=1 n=f6 v=96
123560 On ch=1 n=b5 v=0
123564 Par ch=1 c=64 v=63
123612 Par ch=1 c=64 v=127
123754 On ch=1 n=d4 v=72
123900 On ch=1 n=d6 v=70
123914 Par ch=1 c=64 v=63
123920 On ch=1 n=f6 v=0
123944 Par ch=1 c=64 v=0
123972 On ch=1 n=f4 v=62
123986 On ch=1 n=b5 v=78
124008 On ch=1 n=d6 v=0
124094 Par ch=1 c=64 v=63
124124 Par ch=1 c=64 v=127
124180 On ch=1 n=g#4 v=80
124210 On ch=1 n=f4 v=0
124356 On ch=1 n=b5 v=0
124404 On ch=1 n=f4 v=84
124416 On ch=1 n=g#4 v=0
124418 On ch=1 n=d4 v=0
124558 Par ch=1 c=64 v=63
124594 Par ch=1 c=64 v=0
124616 On ch=1 n=d4 v=79
124626 On ch=1 n=b5 v=84
124640 On ch=1 n=f4 v=0
124664 On ch=1 n=b5 v=0
124838 On ch=1 n=b5 v=93
124840 On ch=1 n=f4 v=72
124898 On ch=1 n=b5 v=0
125046 On ch=1 n=g#4 v=91
125054 On ch=1 n=b5 v=107
125070 On ch=1 n=d4 v=0
125098 On ch=1 n=f4 v=0
125136 On ch=1 n=b5 v=0
125280 On ch=1 n=a4 v=83
125292 On ch=1 n=g#4 v=0
125292 On ch=1 n=c6 v=93
125296 On ch=1 n=c4 v=72
125316 Par ch=1 c=64 v=63
125322 Par ch=1 c=64 v=127
125376 On ch=1 n=c6 v=0
125390 On ch=1 n=a6 v=90
125484 On ch=1 n=a6 v=0
125486 On ch=1 n=f6 v=94
125596 On ch=1 n=f6 v=0
125598 On ch=1 n=c6 v=96
125608 Par ch=1 c=64 v=63
125628 Par ch=1 c=64 v=0
125634 On ch=1 n=c4 v=0
125682 On ch=1 n=c6 v=0
125700 On ch=1 n=a4 v=0
125702 On ch=1 n=a5 v=83
125778 On ch=1 n=a5 v=0
125800 On ch=1 n=f6 v=91
125894 On ch=1 n=c6 v=93
125906 On ch=1 n=f6 v=0
126008 On ch=1 n=a5 v=84
126014 On ch=1 n=c6 v=0
126082 On ch=1 n=a5 v=0
126118 Par ch=1 c=64 v=63
126124 Par ch=1 c=64 v=127
126142 On ch=1 n=c5 v=77
126148 On ch=1 n=c6 v=91
126150 On ch=1 n=a5 v=76
126278 On ch=1 n=a5 v=0
126340 Par ch=1 c=64 v=63
126356 On ch=1 n=c5 v=0
126358 On ch=1 n=c6 v=0
126358 Par ch=1 c=64 v=0
126372 On ch=1 n=a#5 v=84
126392 On ch=1 n=g5 v=70
126420 On ch=1 n=a#5 v=0
126446 On ch=1 n=g5 v=0
126618 On ch=1 n=a5 v=67
126620 On ch=1 n=f5 v=85
126622 On ch=1 n=c4 v=71
126666 On ch=1 n=a5 v=0
126708 On ch=1 n=f5 v=0
126738 On ch=1 n=c4 v=0
126836 On ch=1 n=g5 v=84
126850 On ch=1 n=e5 v=74
126900 On ch=1 n=g5 v=0
126926 On ch=1 n=e5 v=0
127082 On ch=1 n=f5 v=83
127098 Par ch=1 c=64 v=63
127102 On ch=1 n=f4 v=56
127102 Par ch=1 c=64 v=127
127144 On ch=1 n=f5 v=0
127200 On ch=1 n=c5 v=55
127230 On ch=1 n=f4 v=0
127294 On ch=1 n=g#4 v=65
127304 On ch=1 n=c5 v=0
127382 On ch=1 n=g#4 v=0
127390 On ch=1 n=c5 v=63
127502 On ch=1 n=c5 v=0
127512 On ch=1 n=f4 v=71
127618 On ch=1 n=c5 v=71
127636 On ch=1 n=f4 v=0
127704 On ch=1 n=g#4 v=85
127716 On ch=1 n=c5 v=0
127798 On ch=1 n=c5 v=76
127808 On ch=1 n=g#4 v=0
127878 Par ch=1 c=64 v=63
127908 On ch=1 n=c5 v=0
127924 Par ch=1 c=64 v=0
127926 On ch=1 n=f4 v=81
128022 On ch=1 n=c5 v=76
128034 On ch=1 n=f5 v=83
128036 On ch=1 n=f4 v=0
128130 On ch=1 n=c5 v=0
128134 On ch=1 n=f5 v=0
128140 On ch=1 n=g#4 v=78
128144 On ch=1 n=g5 v=84
128230 On ch=1 n=c5 v=82
128238 On ch=1 n=g#5 v=103
128250 On ch=1 n=g#4 v=0
128272 On ch=1 n=g5 v=0
128332 On ch=1 n=a#5 v=105
128340 On ch=1 n=c5 v=0
128340 On ch=1 n=f4 v=85
128362 On ch=1 n=g#5 v=0
128396 On ch=1 n=a#5 v=0
128428 On ch=1 n=c5 v=77
128432 On ch=1 n=c6 v=99
128472 On ch=1 n=f4 v=0
128540 On ch=1 n=d6 v=101
128550 On ch=1 n=c5 v=0
128552 On ch=1 n=g#4 v=89
128566 On ch=1 n=c6 v=0
128638 On ch=1 n=e6 v=92
128638 On ch=1 n=c5 v=76
128660 On ch=1 n=g#4 v=0
128684 On ch=1 n=d6 v=0
128724 On ch=1 n=f6 v=98
128748 On ch=1 n=c5 v=0
128756 On ch=1 n=f4 v=87
128764 On ch=1 n=e6 v=0
128822 On ch=1 n=f6 v=0
128832 On ch=1 n=c6 v=91
128844 On ch=1 n=c5 v=81
128888 On ch=1 n=f4 v=0
128940 On ch=1 n=g#6 v=103
128958 On ch=1 n=c6 v=0
128960 On ch=1 n=g#4 v=93
128970 On ch=1 n=c5 v=0
129040 On ch=1 n=g6 v=98
129054 On ch=1 n=c5 v=71
129076 On ch=1 n=g#4 v=0
129100 On ch=1 n=g#6 v=0
129158 On ch=1 n=f6 v=102
129166 On ch=1 n=f4 v=92
129168 On ch=1 n=c5 v=0
129202 On ch=1 n=g6 v=0
129256 On ch=1 n=c6 v=92
129264 On ch=1 n=c5 v=84
129292 On ch=1 n=f6 v=0
129316 On ch=1 n=f4 v=0
129358 On ch=1 n=g#6 v=108
129372 On ch=1 n=g#4 v=91
129378 On ch=1 n=c5 v=0
129382 On ch=1 n=c6 v=0
129454 On ch=1 n=c5 v=77
129456 On ch=1 n=g6 v=101
129494 On ch=1 n=g#4 v=0
129552 Par ch=1 c=64 v=63
129560 On ch=1 n=c5 v=0
129560 On ch=1 n=f6 v=104
129562 On ch=1 n=g#6 v=0
129566 On ch=1 n=f4 v=86
129588 Par ch=1 c=64 v=127
129614 On ch=1 n=g6 v=0
129664 On ch=1 n=d5 v=83
129668 On ch=1 n=g6 v=96
129688 On ch=1 n=f6 v=0
129774 On ch=1 n=f4 v=0
129774 On ch=1 n=g#4 v=88
129776 On ch=1 n=d#6 v=112
129784 On ch=1 n=d5 v=0
129786 On ch=1 n=g6 v=0
129850 On ch=1 n=d5 v=84
129860 Par ch=1 c=64 v=63
129872 On ch=1 n=f6 v=106
129882 Par ch=1 c=64 v=0
129884 On ch=1 n=g#4 v=0
129910 On ch=1 n=d#6 v=0
129958 On ch=1 n=f4 v=88
129962 Par ch=1 c=64 v=63
129972 On ch=1 n=d6 v=99
129980 On ch=1 n=d5 v=0
129998 Par ch=1 c=64 v=127
130018 On ch=1 n=f6 v=0
130074 On ch=1 n=d#6 v=115
130102 On ch=1 n=d6 v=0
130124 On ch=1 n=g#4 v=92
130180 On ch=1 n=c6 v=107
130190 On ch=1 n=f4 v=0
130216 On ch=1 n=d#6 v=0
130226 On ch=1 n=d5 v=84
130256 On ch=1 n=g#4 v=0
130264 Par ch=1 c=64 v=63
130290 On ch=1 n=d6 v=111
130290 Par ch=1 c=64 v=0
130400 Par ch=1 c=64 v=63
130414 On ch=1 n=b5 v=99
130424 Par ch=1 c=64 v=127
130434 On ch=1 n=c6 v=0
130444 On ch=1 n=d6 v=0
130468 On ch=1 n=d5 v=0
130470 On ch=1 n=g4 v=94
130576 On ch=1 n=b5 v=0
130640 On ch=1 n=f5 v=97
130822 On ch=1 n=f7 v=104
130824 On ch=1 n=d5 v=82
130836 On ch=1 n=f5 v=0
130936 On ch=1 n=f5 v=74
130978 On ch=1 n=g4 v=0
130988 On ch=1 n=d5 v=0
131068 On ch=1 n=g4 v=99
131090 On ch=1 n=f5 v=0
131160 On ch=1 n=f5 v=80
131278 On ch=1 n=d5 v=86
131294 On ch=1 n=f5 v=0
131304 On ch=1 n=d#7 v=116
131362 On ch=1 n=f5 v=72
131364 On ch=1 n=f7 v=0
131388 On ch=1 n=g4 v=0
131438 On ch=1 n=d5 v=0
131480 On ch=1 n=g4 v=99
131516 On ch=1 n=f5 v=0
131594 On ch=1 n=f5 v=89
131716 On ch=1 n=d7 v=113
131728 On ch=1 n=d5 v=84
131736 On ch=1 n=f5 v=0
131796 On ch=1 n=d#7 v=0
131810 On ch=1 n=f5 v=78
131858 On ch=1 n=g4 v=0
131894 On ch=1 n=d5 v=0
131928 On ch=1 n=g4 v=90
131966 On ch=1 n=f5 v=0
132032 On ch=1 n=f5 v=82
132138 On ch=1 n=c7 v=106
132168 On ch=1 n=f5 v=0
132170 On ch=1 n=d5 v=77
132196 On ch=1 n=d7 v=0
132232 On ch=1 n=f5 v=81
132252 On ch=1 n=g4 v=0
132284 On ch=1 n=c7 v=0
132290 On ch=1 n=d5 v=0
132344 On ch=1 n=g4 v=96
132378 On ch=1 n=f5 v=0
132438 On ch=1 n=f5 v=82
132564 On ch=1 n=b6 v=106
132592 On ch=1 n=d5 v=77
132594 On ch=1 n=f5 v=0
132644 On ch=1 n=g4 v=0
132666 On ch=1 n=f5 v=68
132710 On ch=1 n=d5 v=0
132776 On ch=1 n=g4 v=84
132808 On ch=1 n=f5 v=0
132874 On ch=1 n=f5 v=77
132982 On ch=1 n=g#6 v=104
133020 On ch=1 n=f5 v=0
133024 On ch=1 n=d5 v=79
133070 On ch=1 n=b6 v=0
133080 On ch=1 n=g4 v=0
133092 On ch=1 n=f5 v=76
133134 On ch=1 n=d5 v=0
133206 On ch=1 n=g4 v=86
133212 On ch=1 n=f5 v=0
133262 Par ch=1 c=64 v=63
133286 Par ch=1 c=64 v=0
133318 On ch=1 n=d5 v=88
133418 Par ch=1 c=64 v=63
133432 On ch=1 n=g6 v=101
133434 On ch=1 n=d5 v=0
133440 Par ch=1 c=64 v=127
133442 On ch=1 n=b4 v=71
133504 On ch=1 n=g#6 v=0
133506 On ch=1 n=g4 v=0
133520 On ch=1 n=d5 v=79
133580 On ch=1 n=b4 v=0
133650 On ch=1 n=g4 v=80
133664 Par ch=1 c=64 v=63
133672 On ch=1 n=d5 v=0
133702 Par ch=1 c=64 v=0
133728 Par ch=1 c=64 v=63
133736 On ch=1 n=d5 v=84
133774 Par ch=1 c=64 v=127
133862 On ch=1 n=d5 v=0
133872 On ch=1 n=b4 v=69
133876 On ch=1 n=f6 v=97
133924 On ch=1 n=g4 v=0
133930 On ch=1 n=g6 v=0
133954 On ch=1 n=d5 v=72
133984 On ch=1 n=b4 v=0
134052 On ch=1 n=f6 v=0
134102 Par ch=1 c=64 v=63
134108 On ch=1 n=d5 v=0
134116 On ch=1 n=g4 v=59
134130 On ch=1 n=f6 v=89
134222 Par ch=1 c=64 v=127
134262 On ch=1 n=e5 v=65
134394 On ch=1 n=e5 v=0
134410 On ch=1 n=e6 v=92
134420 On ch=1 n=c5 v=50
134442 On ch=1 n=g4 v=0
134480 On ch=1 n=f6 v=0
134490 On ch=1 n=e5 v=69
134498 On ch=1 n=c5 v=0
134616 On ch=1 n=g4 v=68
134634 On ch=1 n=e5 v=0
134674 On ch=1 n=d#6 v=93
134704 On ch=1 n=e6 v=0
134706 Par ch=1 c=64 v=63
134740 Par ch=1 c=64 v=0
134782 On ch=1 n=d#5 v=73
134872 Par ch=1 c=64 v=63
134894 Par ch=1 c=64 v=127
134896 On ch=1 n=d#5 v=0
134902 On ch=1 n=g4 v=0
134910 On ch=1 n=c5 v=70
134980 On ch=1 n=d#5 v=83
135008 On ch=1 n=c5 v=0
135080 On ch=1 n=g4 v=81
135102 On ch=1 n=d#5 v=0
135108 On ch=1 n=d#6 v=0
135188 On ch=1 n=d#5 v=82
135204 On ch=1 n=d#6 v=108
135236 Par ch=1 c=64 v=63
135246 On ch=1 n=g4 v=0
135280 Par ch=1 c=64 v=127
135298 On ch=1 n=d6 v=97
135308 On ch=1 n=d#5 v=0
135312 On ch=1 n=d#6 v=0
135324 On ch=1 n=c5 v=62
135378 On ch=1 n=d#6 v=100
135392 On ch=1 n=d#5 v=80
135394 On ch=1 n=c5 v=0
135428 On ch=1 n=d6 v=0
135496 On ch=1 n=f6 v=103
135506 Par ch=1 c=64 v=63
135506 On ch=1 n=g4 v=82
135508 On ch=1 n=d#6 v=0
135522 Par ch=1 c=64 v=0
135524 On ch=1 n=d#5 v=0
135588 On ch=1 n=d#6 v=100
135600 On ch=1 n=d#5 v=79
135606 Par ch=1 c=64 v=63
135624 Par ch=1 c=64 v=127
135634 On ch=1 n=f6 v=0
135670 On ch=1 n=g4 v=0
135680 On ch=1 n=d6 v=100
135690 On ch=1 n=d#6 v=0
135716 On ch=1 n=d#5 v=0
135728 On ch=1 n=c5 v=68
135764 On ch=1 n=d#6 v=108
135802 On ch=1 n=d#5 v=88
135806 On ch=1 n=d6 v=0
135810 On ch=1 n=c5 v=0
135810 Par ch=1 c=64 v=63
135824 Par ch=1 c=64 v=0
135900 Par ch=1 c=64 v=63
135918 Par ch=1 c=64 v=127
135920 On ch=1 n=f#6 v=118
135926 On ch=1 n=d#5 v=0
135938 On ch=1 n=f#4 v=100
135968 On ch=1 n=d#6 v=0
136018 On ch=1 n=f#6 v=0
136044 On ch=1 n=d#5 v=80
136072 On ch=1 n=f#4 v=0
136172 On ch=1 n=d#5 v=0
136186 On ch=1 n=a#4 v=65
136252 On ch=1 n=a#4 v=0
136264 On ch=1 n=d#5 v=76
136270 On ch=1 n=d#6 v=107
136332 On ch=1 n=d#6 v=0
136376 On ch=1 n=d#5 v=0
136402 Par ch=1 c=64 v=63
136418 On ch=1 n=f#4 v=92
136424 On ch=1 n=d#6 v=107
136462 Par ch=1 c=64 v=127
136498 On ch=1 n=d#6 v=0
136500 On ch=1 n=f6 v=90
136512 On ch=1 n=d#5 v=85
136534 On ch=1 n=f#4 v=0
136560 On ch=1 n=f6 v=0
136564 On ch=1 n=d#6 v=88
136616 On ch=1 n=d#5 v=0
136632 On ch=1 n=a#4 v=63
136640 On ch=1 n=d#6 v=0
136642 On ch=1 n=d6 v=80
136692 On ch=1 n=a#4 v=0
136696 On ch=1 n=d#5 v=74
136704 Par ch=1 c=64 v=63
136714 On ch=1 n=d#6 v=104
136718 Par ch=1 c=64 v=0
136740 On ch=1 n=d6 v=0
136790 Par ch=1 c=64 v=63
136808 Par ch=1 c=64 v=127
136826 On ch=1 n=d#5 v=0
136832 On ch=1 n=a#6 v=115
136844 On ch=1 n=f#4 v=89
136904 On ch=1 n=d#6 v=0
136950 On ch=1 n=d#5 v=79
136968 On ch=1 n=f#4 v=0
137010 On ch=1 n=a#6 v=0
137084 On ch=1 n=d#5 v=0
137104 On ch=1 n=a#4 v=53
137164 On ch=1 n=d#6 v=106
137170 On ch=1 n=a#4 v=0
137174 On ch=1 n=d#5 v=72
137228 On ch=1 n=d#6 v=0
137276 Par ch=1 c=64 v=63
137292 On ch=1 n=d#5 v=0
137324 On ch=1 n=f#4 v=87
137336 On ch=1 n=d#6 v=115
137346 Par ch=1 c=64 v=127
137408 On ch=1 n=f6 v=90
137410 On ch=1 n=d#6 v=0
137410 On ch=1 n=d#5 v=79
137440 On ch=1 n=f#4 v=0
137488 On ch=1 n=d#6 v=95
137506 On ch=1 n=f6 v=0
137520 On ch=1 n=d#5 v=0
137544 On ch=1 n=d6 v=77
137546 On ch=1 n=a#4 v=55
137558 On ch=1 n=d#6 v=0
137602 On ch=1 n=d#5 v=64
137628 Par ch=1 c=64 v=63
137630 On ch=1 n=a#4 v=0
137638 On ch=1 n=d#6 v=103
137648 Par ch=1 c=64 v=0
137674 On ch=1 n=d6 v=0
137716 On ch=1 n=d#5 v=0
137724 On ch=1 n=f4 v=86
137742 On ch=1 n=a6 v=94
137756 On ch=1 n=d#6 v=0
137800 On ch=1 n=a6 v=0
137830 On ch=1 n=d#5 v=90
137958 On ch=1 n=c7 v=101
137958 On ch=1 n=c5 v=94
137960 On ch=1 n=d#5 v=0
138026 On ch=1 n=c7 v=0
138048 On ch=1 n=d#5 v=101
138088 On ch=1 n=f4 v=0
138170 On ch=1 n=c5 v=0
138204 Par ch=1 c=64 v=63
138216 Par ch=1 c=64 v=127
138234 On ch=1 n=d#7 v=116
138234 On ch=1 n=f4 v=84
138242 On ch=1 n=d#5 v=0
138306 On ch=1 n=d#7 v=0
138358 On ch=1 n=d#5 v=76
138436 On ch=1 n=f4 v=0
138508 On ch=1 n=d#5 v=0
138518 On ch=1 n=c5 v=76
138604 On ch=1 n=d#5 v=94
138612 On ch=1 n=c5 v=0
138726 On ch=1 n=d#5 v=0
138726 On ch=1 n=f4 v=91
138838 On ch=1 n=d#5 v=87
138860 On ch=1 n=f7 v=107
138890 On ch=1 n=f4 v=0
138964 On ch=1 n=d#5 v=0
138968 On ch=1 n=d7 v=108
138978 On ch=1 n=c5 v=68
138986 On ch=1 n=f7 v=0
139048 On ch=1 n=d#5 v=76
139054 On ch=1 n=c5 v=0
139064 On ch=1 n=d#7 v=109
139088 On ch=1 n=d7 v=0
139154 On ch=1 n=c7 v=83
139162 On ch=1 n=d#7 v=0
139178 On ch=1 n=f4 v=82
139180 On ch=1 n=d#5 v=0
139180 On ch=1 n=d7 v=49
139228 On ch=1 n=d7 v=0
139236 On ch=1 n=c7 v=0
139260 On ch=1 n=d#5 v=74
139264 On ch=1 n=d7 v=91
139280 Par ch=1 c=64 v=63
139336 Par ch=1 c=64 v=0
139364 On ch=1 n=a#6 v=108
139376 On ch=1 n=d7 v=0
139384 On ch=1 n=d#5 v=0
139412 On ch=1 n=c5 v=55
139456 On ch=1 n=f4 v=0
139460 On ch=1 n=d#5 v=72
139474 On ch=1 n=c7 v=104
139476 On ch=1 n=c5 v=0
139494 On ch=1 n=a#6 v=0
139572 On ch=1 n=f4 v=70
139578 On ch=1 n=a6 v=96
139582 On ch=1 n=d#5 v=0
139586 On ch=1 n=c7 v=0
139660 On ch=1 n=d#5 v=71
139668 On ch=1 n=a#6 v=98
139686 On ch=1 n=a6 v=0
139770 On ch=1 n=c7 v=94
139788 On ch=1 n=a#6 v=0
139820 On ch=1 n=d#5 v=0
139832 On ch=1 n=c5 v=62
139862 On ch=1 n=f4 v=0
139888 On ch=1 n=a#6 v=104
139888 On ch=1 n=d#5 v=76
139898 On ch=1 n=c5 v=0
139918 On ch=1 n=c7 v=0
139994 On ch=1 n=a6 v=84
140006 On ch=1 n=a#6 v=0
140006 On ch=1 n=f4 v=80
140016 On ch=1 n=d#5 v=0
140088 On ch=1 n=d#5 v=73
140104 On ch=1 n=a#6 v=100
140112 On ch=1 n=a6 v=0
140188 On ch=1 n=a#6 v=0
140214 On ch=1 n=d#5 v=0
140220 On ch=1 n=c7 v=94
140226 On ch=1 n=c5 v=68
140270 On ch=1 n=f4 v=0
140278 On ch=1 n=d#5 v=81
140290 Par ch=1 c=64 v=63
140300 On ch=1 n=c5 v=0
140320 On ch=1 n=d7 v=99
140338 On ch=1 n=c7 v=0
140340 Par ch=1 c=64 v=127
140376 On ch=1 n=d#5 v=0
140410 On ch=1 n=f4 v=78
140416 On ch=1 n=d#7 v=109
140436 On ch=1 n=d7 v=0
140514 On ch=1 n=c5 v=81
140516 On ch=1 n=d7 v=91
140524 On ch=1 n=d#7 v=0
140592 On ch=1 n=f4 v=0
140618 On ch=1 n=d7 v=0
140622 On ch=1 n=c7 v=84
140636 On ch=1 n=a4 v=76
140640 On ch=1 n=c5 v=0
140712 On ch=1 n=c7 v=0
140716 On ch=1 n=a#6 v=105
140718 On ch=1 n=c5 v=71
140730 On ch=1 n=a4 v=0
140800 Par ch=1 c=64 v=63
140824 On ch=1 n=a6 v=102
140836 On ch=1 n=f4 v=89
140838 On ch=1 n=c5 v=0
140870 Par ch=1 c=64 v=0
140880 On ch=1 n=a#6 v=0
140912 On ch=1 n=c5 v=77
140926 On ch=1 n=g6 v=88
140928 On ch=1 n=a6 v=0
140958 Par ch=1 c=64 v=63
140986 On ch=1 n=f4 v=0
141000 Par ch=1 c=64 v=127
141010 On ch=1 n=g6 v=0
141036 On ch=1 n=a4 v=69
141042 On ch=1 n=c5 v=0
141046 On ch=1 n=f6 v=93
141128 On ch=1 n=a4 v=0
141136 On ch=1 n=d#6 v=93
141140 On ch=1 n=c5 v=73
141164 On ch=1 n=f6 v=0
141200 Par ch=1 c=64 v=63
141206 On ch=1 n=d#6 v=0
141282 On ch=1 n=c5 v=0
141290 Par ch=1 c=64 v=127
141296 On ch=1 n=f#4 v=80
141300 On ch=1 n=d#6 v=96
141362 On ch=1 n=f6 v=79
141366 On ch=1 n=d#6 v=0
141398 On ch=1 n=c5 v=68
141416 On ch=1 n=f6 v=0
141418 On ch=1 n=f#4 v=0
141420 On ch=1 n=d#6 v=86
141492 On ch=1 n=d6 v=92
141516 On ch=1 n=c5 v=0
141522 On ch=1 n=a4 v=55
141524 On ch=1 n=d#6 v=0
141592 On ch=1 n=c5 v=71
141604 On ch=1 n=a4 v=0
141632 On ch=1 n=d6 v=0
141712 Par ch=1 c=64 v=63
141720 On ch=1 n=d6 v=109
141750 On ch=1 n=c5 v=0
141750 On ch=1 n=f#4 v=82
141782 Par ch=1 c=64 v=127
141838 On ch=1 n=c5 v=80
141856 On ch=1 n=f#4 v=0
141946 On ch=1 n=a4 v=84
141954 On ch=1 n=c5 v=0
142024 On ch=1 n=c5 v=84
142048 On ch=1 n=a4 v=0
142058 On ch=1 n=d6 v=0
142140 On ch=1 n=f#4 v=115
142148 On ch=1 n=c5 v=0
142214 On ch=1 n=c5 v=88
142252 Par ch=1 c=64 v=63
142256 On ch=1 n=f#4 v=0
142270 Par ch=1 c=64 v=0
142308 Par ch=1 c=64 v=63
142338 On ch=1 n=d6 v=108
142340 On ch=1 n=a4 v=84
142346 On ch=1 n=c5 v=0
142348 Par ch=1 c=64 v=127
142430 On ch=1 n=a4 v=0
142432 On ch=1 n=c5 v=86
142502 Par ch=1 c=64 v=63
142528 Par ch=1 c=64 v=0
142564 Par ch=1 c=64 v=63
142578 On ch=1 n=c5 v=0
142580 On ch=1 n=d6 v=0
142580 On ch=1 n=f#4 v=105
142588 On ch=1 n=d7 v=116
142594 Par ch=1 c=64 v=127
142708 On ch=1 n=d5 v=85
142754 Par ch=1 c=64 v=63
142762 Par ch=1 c=64 v=0
142778 On ch=1 n=d7 v=0
142824 On ch=1 n=c7 v=121
142842 On ch=1 n=a4 v=87
142850 Par ch=1 c=64 v=63
142866 On ch=1 n=d5 v=0
142868 Par ch=1 c=64 v=127
142952 On ch=1 n=d5 v=85
142984 On ch=1 n=f#4 v=0
143080 On ch=1 n=g4 v=92
143094 On ch=1 n=a4 v=0
143122 Par ch=1 c=64 v=63
143124 On ch=1 n=d5 v=0
143160 Par ch=1 c=64 v=127
143188 On ch=1 n=d5 v=89
143326 On ch=1 n=a#6 v=119
143334 On ch=1 n=a#4 v=95
143356 On ch=1 n=d5 v=0
143394 On ch=1 n=c7 v=0
143450 On ch=1 n=d5 v=98
143522 On ch=1 n=a#4 v=0
143542 On ch=1 n=g4 v=0
143560 On ch=1 n=f4 v=102
143582 Par ch=1 c=64 v=63
143612 On ch=1 n=d5 v=0
143658 Par ch=1 c=64 v=127
143660 On ch=1 n=d5 v=88
143772 On ch=1 n=a6 v=114
143796 On ch=1 n=a4 v=88
143816 On ch=1 n=d5 v=0
143826 On ch=1 n=a#6 v=0
143888 On ch=1 n=d5 v=87
143910 On ch=1 n=f4 v=0
143916 On ch=1 n=a4 v=0
144008 Par ch=1 c=64 v=63
144012 On ch=1 n=e4 v=112
144028 Par ch=1 c=64 v=0
144032 On ch=1 n=d5 v=0
144048 Par ch=1 c=64 v=63
144076 Par ch=1 c=64 v=127
144094 On ch=1 n=d5 v=88
144102 On ch=1 n=a6 v=0
144132 On ch=1 n=g6 v=101
144222 On ch=1 n=a#6 v=109
144238 On ch=1 n=g4 v=86
144248 On ch=1 n=d5 v=0
144252 On ch=1 n=g6 v=0
144304 On ch=1 n=e4 v=0
144322 On ch=1 n=a6 v=107
144324 Par ch=1 c=64 v=63
144326 On ch=1 n=d5 v=98
144344 On ch=1 n=g4 v=0
144348 Par ch=1 c=64 v=0
144374 Par ch=1 c=64 v=63
144378 On ch=1 n=a#6 v=0
144406 Par ch=1 c=64 v=127
144446 On ch=1 n=c7 v=108
144446 On ch=1 n=d#4 v=119
144448 On ch=1 n=d5 v=0
144466 On ch=1 n=a6 v=0
144540 On ch=1 n=c#5 v=101
144554 On ch=1 n=a#6 v=108
144576 On ch=1 n=d#4 v=0
144610 On ch=1 n=c7 v=0
144656 On ch=1 n=g4 v=83
144666 On ch=1 n=c#5 v=0
144670 On ch=1 n=a6 v=98
144718 On ch=1 n=c#5 v=97
144736 On ch=1 n=a#6 v=0
144746 On ch=1 n=g4 v=0
144764 On ch=1 n=g6 v=80
144766 Par ch=1 c=64 v=63
144770 On ch=1 n=a6 v=0
144778 Par ch=1 c=64 v=0
144792 On ch=1 n=c#5 v=0
144836 On ch=1 n=g6 v=0
144846 Par ch=1 c=64 v=63
144862 Par ch=1 c=64 v=127
144880 On ch=1 n=d5 v=92
144884 On ch=1 n=d4 v=73
144904 On ch=1 n=f#6 v=114
144916 On ch=1 n=d4 v=0
144948 On ch=1 n=d5 v=0
144978 On ch=1 n=f#6 v=0
145002 On ch=1 n=d6 v=96
145076 On ch=1 n=d6 v=0
145132 On ch=1 n=d7 v=97
145240 On ch=1 n=c#7 v=108
145264 On ch=1 n=d7 v=0
145338 On ch=1 n=d7 v=98
145356 On ch=1 n=c#7 v=0
145450 On ch=1 n=c#7 v=110
145494 On ch=1 n=d7 v=0
145558 On ch=1 n=d7 v=92
145560 Par ch=1 c=64 v=63
145582 Par ch=1 c=64 v=0
145584 On ch=1 n=c#7 v=0
145676 On ch=1 n=c#7 v=103
145696 On ch=1 n=d7 v=0
145702 Par ch=1 c=64 v=63
145722 Par ch=1 c=64 v=127
145780 On ch=1 n=d7 v=93
145812 On ch=1 n=c#7 v=0
145894 On ch=1 n=d#7 v=105
145918 On ch=1 n=d7 v=0
145992 On ch=1 n=c7 v=94
146010 On ch=1 n=d#7 v=0
146040 Par ch=1 c=64 v=63
146102 On ch=1 n=d7 v=99
146112 Par ch=1 c=64 v=0
146124 On ch=1 n=c7 v=0
146178 On ch=1 n=d5 v=94
146178 On ch=1 n=f#5 v=103
146204 On ch=1 n=a#6 v=103
146210 On ch=1 n=d7 v=0
146296 On ch=1 n=c7 v=98
146318 On ch=1 n=a#6 v=0
146394 On ch=1 n=a6 v=83
146402 On ch=1 n=c7 v=0
146468 On ch=1 n=a#6 v=100
146484 On ch=1 n=a6 v=0
146594 On ch=1 n=a#6 v=0
146594 On ch=1 n=g6 v=83
146604 On ch=1 n=d#5 v=80
146614 On ch=1 n=g5 v=80
146662 On ch=1 n=d5 v=0
146664 On ch=1 n=f#5 v=0
146676 On ch=1 n=g6 v=0
146688 Par ch=1 c=64 v=63
146702 On ch=1 n=a6 v=87
146704 Par ch=1 c=64 v=127
146810 On ch=1 n=f6 v=84
146816 On ch=1 n=a6 v=0
146892 On ch=1 n=f6 v=0
146918 On ch=1 n=g6 v=79
147010 Par ch=1 c=64 v=63
147014 On ch=1 n=g6 v=0
147024 On ch=1 n=d#6 v=84
147072 Par ch=1 c=64 v=0
147126 On ch=1 n=f6 v=77
147138 On ch=1 n=d#6 v=0
147200 On ch=1 n=g5 v=0
147230 On ch=1 n=d6 v=79
147240 On ch=1 n=f6 v=0
147276 On ch=1 n=d#5 v=0
147306 On ch=1 n=d#6 v=76
147310 On ch=1 n=d6 v=0
147382 On ch=1 n=d#6 v=0
147472 On ch=1 n=c#6 v=88
147482 Par ch=1 c=64 v=63
147496 Par ch=1 c=64 v=127
147694 On ch=1 n=c#6 v=0
147718 On ch=1 n=a#6 v=88
147928 On ch=1 n=a#6 v=0
147946 On ch=1 n=c#5 v=75
147948 On ch=1 n=a6 v=85
147950 On ch=1 n=d#4 v=76
148120 On ch=1 n=c#5 v=0
148140 On ch=1 n=d#4 v=0
148176 On ch=1 n=g6 v=90
148240 On ch=1 n=a6 v=0
148270 Par ch=1 c=64 v=63
148288 Par ch=1 c=64 v=0
148374 Par ch=1 c=64 v=63
148404 Par ch=1 c=64 v=127
148410 On ch=1 n=d5 v=80
148410 On ch=1 n=f#6 v=95
148414 On ch=1 n=d4 v=75
148436 On ch=1 n=g6 v=0
148478 On ch=1 n=f#6 v=0
148586 On ch=1 n=c#6 v=81
148676 On ch=1 n=c#6 v=0
148686 On ch=1 n=d6 v=76
148698 On ch=1 n=d5 v=0
148736 On ch=1 n=d4 v=0
148786 On ch=1 n=c#6 v=74
148806 On ch=1 n=d6 v=0
148884 On ch=1 n=d6 v=76
148898 On ch=1 n=c#6 v=0
148928 Par ch=1 c=64 v=63
148974 Par ch=1 c=64 v=0
148996 On ch=1 n=c#6 v=70
149010 On ch=1 n=d6 v=0
149104 On ch=1 n=d6 v=81
149110 On ch=1 n=c#6 v=0
149212 On ch=1 n=c#6 v=77
149214 On ch=1 n=d6 v=0
149300 On ch=1 n=d6 v=72
149330 On ch=1 n=c#6 v=0
149396 On ch=1 n=d#6 v=80
149442 On ch=1 n=d6 v=0
149526 On ch=1 n=c6 v=80
149530 On ch=1 n=d#6 v=0
149618 On ch=1 n=d6 v=77
149634 On ch=1 n=c6 v=0
149716 On ch=1 n=c5 v=81
149720 On ch=1 n=a#5 v=93
149726 On ch=1 n=d6 v=0
149736 On ch=1 n=d4 v=57
149832 On ch=1 n=c6 v=86
149846 On ch=1 n=a#5 v=0
149936 On ch=1 n=a5 v=74
149952 On ch=1 n=c6 v=0
149962 On ch=1 n=d4 v=0
150030 On ch=1 n=a#5 v=84
150034 On ch=1 n=a5 v=0
150132 On ch=1 n=a#4 v=67
150136 On ch=1 n=a#5 v=0
150144 On ch=1 n=g5 v=75
150154 On ch=1 n=d#4 v=46
150180 On ch=1 n=c5 v=0
150230 On ch=1 n=g5 v=0
150250 On ch=1 n=a5 v=82
150356 On ch=1 n=a5 v=0
150358 On ch=1 n=f5 v=79
150442 On ch=1 n=f5 v=0
150458 On ch=1 n=g5 v=83
150566 On ch=1 n=g5 v=0
150578 On ch=1 n=d#5 v=75
150602 On ch=1 n=a#4 v=0
150664 On ch=1 n=d#4 v=0
150672 On ch=1 n=f5 v=77
150688 On ch=1 n=d#5 v=0
150776 On ch=1 n=f5 v=0
150776 On ch=1 n=d5 v=76
150868 On ch=1 n=d5 v=0
150876 On ch=1 n=d#5 v=80
150964 On ch=1 n=d#5 v=0
151014 On ch=1 n=c#5 v=92
151128 Par ch=1 c=64 v=63
151146 Par ch=1 c=64 v=127
151258 On ch=1 n=g5 v=76
151322 On ch=1 n=c#5 v=0
151468 Par ch=1 c=64 v=63
151484 On ch=1 n=d#4 v=75
151488 On ch=1 n=a#5 v=84
151488 On ch=1 n=g4 v=66
151498 Par ch=1 c=64 v=0
151522 On ch=1 n=g5 v=0
151608 Par ch=1 c=64 v=63
151644 Par ch=1 c=64 v=127
151684 On ch=1 n=c#5 v=88
151706 On ch=1 n=a#5 v=0
151764 On ch=1 n=d#4 v=0
151850 Par ch=1 c=64 v=63
151872 On ch=1 n=c#5 v=0
151874 Par ch=1 c=64 v=0
151882 On ch=1 n=g4 v=0
151914 On ch=1 n=d5 v=83
151936 On ch=1 n=f#4 v=58
151938 On ch=1 n=d4 v=63
152096 On ch=1 n=d4 v=0
152118 On ch=1 n=d5 v=0
152134 On ch=1 n=f#4 v=0
152152 On ch=1 n=d6 v=90
152238 On ch=1 n=d6 v=0
152298 Par ch=1 c=64 v=63
152338 Par ch=1 c=64 v=127
152368 On ch=1 n=a#4 v=84
152380 On ch=1 n=g4 v=62
152386 On ch=1 n=d4 v=78
152550 Par ch=1 c=64 v=63
152592 On ch=1 n=d6 v=86
152666 On ch=1 n=d4 v=0
152672 Par ch=1 c=64 v=127
152676 On ch=1 n=d6 v=0
152682 On ch=1 n=g4 v=0
152696 On ch=1 n=a#4 v=0
152748 Par ch=1 c=64 v=63
152784 Par ch=1 c=64 v=0
152800 On ch=1 n=a4 v=98
152808 On ch=1 n=f#4 v=94
152820 On ch=1 n=d4 v=81
152958 Par ch=1 c=64 v=63
152976 Par ch=1 c=64 v=127
153030 On ch=1 n=d6 v=101
153054 On ch=1 n=d4 v=0
153092 On ch=1 n=a4 v=0
153126 On ch=1 n=f#4 v=0
153142 On ch=1 n=d6 v=0
153228 Par ch=1 c=64 v=63
153256 On ch=1 n=a#4 v=98
153264 Par ch=1 c=64 v=0
153274 On ch=1 n=g4 v=55
153282 On ch=1 n=d4 v=68
153354 Par ch=1 c=64 v=63
153476 On ch=1 n=d6 v=87
153490 On ch=1 n=g4 v=0
153500 On ch=1 n=d4 v=0
153576 On ch=1 n=a#4 v=0
153726 On ch=1 n=a4 v=68
153734 On ch=1 n=f#4 v=72
153742 On ch=1 n=d6 v=0
153752 Par ch=1 c=64 v=0
153756 On ch=1 n=d4 v=59
153946 Par ch=1 c=64 v=63
153972 Par ch=1 c=64 v=127
153984 On ch=1 n=d6 v=67
154122 On ch=1 n=d4 v=0
154158 On ch=1 n=a4 v=0
154186 On ch=1 n=f#4 v=0
154218 On ch=1 n=c#6 v=67
154266 On ch=1 n=d6 v=0
154402 On ch=1 n=d6 v=76
154414 On ch=1 n=c#6 v=0
154622 On ch=1 n=c#6 v=94
154712 On ch=1 n=d6 v=0
154844 On ch=1 n=d6 v=97
154880 On ch=1 n=c#6 v=0
155054 On ch=1 n=c#6 v=112
155124 On ch=1 n=d6 v=0
155230 Par ch=1 c=64 v=63
155266 On ch=1 n=d6 v=111
155326 On ch=1 n=c#6 v=0
155356 Par ch=1 c=64 v=0
155528 On ch=1 n=f6 v=102
155670 On ch=1 n=d6 v=0
155760 On ch=1 n=a5 v=59
155766 On ch=1 n=c5 v=60
155768 On ch=1 n=f5 v=59
155842 On ch=1 n=f5 v=0
155844 On ch=1 n=a5 v=0
155848 On ch=1 n=c5 v=0
156016 On ch=1 n=a5 v=69
156016 On ch=1 n=d#6 v=96
156022 On ch=1 n=c5 v=72
156026 On ch=1 n=f5 v=60
156078 On ch=1 n=f6 v=0
156084 On ch=1 n=f5 v=0
156104 On ch=1 n=c5 v=0
156106 On ch=1 n=a5 v=0
156266 On ch=1 n=a5 v=55
156274 On ch=1 n=c5 v=58
156292 On ch=1 n=f5 v=31
156350 On ch=1 n=f5 v=0
156352 On ch=1 n=c5 v=0
156360 On ch=1 n=a5 v=0
156458 On ch=1 n=d#6 v=0
156496 On ch=1 n=a5 v=43
156502 On ch=1 n=c5 v=40
156506 On ch=1 n=f5 v=47
156534 Par ch=1 c=64 v=63
156548 Par ch=1 c=64 v=127
156604 On ch=1 n=d#6 v=76
156704 On ch=1 n=d#6 v=0
156730 On ch=1 n=d6 v=72
156818 On ch=1 n=d#6 v=91
156836 Par ch=1 c=64 v=63
156844 On ch=1 n=d6 v=0
156912 On ch=1 n=f6 v=92
156918 On ch=1 n=d#6 v=0
156934 On ch=1 n=c5 v=0
156982 Par ch=1 c=64 v=127
156990 On ch=1 n=f5 v=0
157026 On ch=1 n=d#6 v=91
157038 On ch=1 n=a5 v=0
157054 On ch=1 n=f6 v=0
157100 On ch=1 n=d6 v=94
157114 On ch=1 n=d#6 v=0
157198 On ch=1 n=d#6 v=101
157210 On ch=1 n=d6 v=0
157256 Par ch=1 c=64 v=63
157278 On ch=1 n=d#6 v=0
157324 On ch=1 n=a#6 v=105
157382 Par ch=1 c=64 v=127
157556 On ch=1 n=d#6 v=84
157564 On ch=1 n=f5 v=60
157572 On ch=1 n=c6 v=68
157620 On ch=1 n=c6 v=0
157632 On ch=1 n=d#6 v=0
157656 On ch=1 n=f5 v=0
157674 On ch=1 n=a#6 v=0
157772 On ch=1 n=a6 v=103
157788 On ch=1 n=d#6 v=71
157808 On ch=1 n=c6 v=59
157834 On ch=1 n=f5 v=24
157864 On ch=1 n=d#6 v=0
157868 On ch=1 n=c6 v=0
157896 On ch=1 n=f5 v=0
158024 On ch=1 n=d#6 v=76
158028 On ch=1 n=c6 v=79
158046 On ch=1 n=f5 v=41
158070 On ch=1 n=a6 v=0
158076 On ch=1 n=d#6 v=0
158102 On ch=1 n=c6 v=0
158116 On ch=1 n=f5 v=0
158242 On ch=1 n=d#6 v=96
158246 On ch=1 n=c6 v=92
158252 On ch=1 n=f5 v=76
158386 On ch=1 n=a6 v=97
158432 Par ch=1 c=64 v=63
158472 Par ch=1 c=64 v=0
158484 On ch=1 n=a6 v=0
158492 On ch=1 n=g6 v=87
158586 On ch=1 n=a6 v=103
158612 On ch=1 n=g6 v=0
158638 Par ch=1 c=64 v=63
158660 Par ch=1 c=64 v=127
158688 On ch=1 n=a#6 v=114
158712 On ch=1 n=a6 v=0
158776 Par ch=1 c=64 v=63
158794 On ch=1 n=a6 v=102
158804 On ch=1 n=a#6 v=0
158816 On ch=1 n=f5 v=0
158834 On ch=1 n=d#6 v=0
158884 On ch=1 n=g6 v=85
158890 On ch=1 n=c6 v=0
158894 On ch=1 n=a6 v=0
158894 Par ch=1 c=64 v=127
158926 Par ch=1 c=64 v=63
158960 Par ch=1 c=64 v=0
158988 On ch=1 n=a6 v=112
159006 On ch=1 n=g6 v=0
159172 On ch=1 n=f7 v=109
159196 On ch=1 n=a6 v=0
159240 Par ch=1 c=64 v=63
159290 Par ch=1 c=64 v=127
159426 On ch=1 n=f5 v=97
159666 On ch=1 n=d#7 v=110
159678 On ch=1 n=c6 v=86
159722 On ch=1 n=f7 v=0
159892 On ch=1 n=d#6 v=101
159992 On ch=1 n=c6 v=0
160044 On ch=1 n=f5 v=0
160114 On ch=1 n=d#6 v=0
160116 On ch=1 n=f#5 v=98
160146 On ch=1 n=d#7 v=0
160248 Par ch=1 c=64 v=63
160256 On ch=1 n=d#7 v=104
160288 Par ch=1 c=64 v=0
160380 On ch=1 n=d7 v=97
160400 On ch=1 n=d#7 v=0
160430 Par ch=1 c=64 v=63
160452 Par ch=1 c=64 v=127
160480 On ch=1 n=d#7 v=105
160526 Par ch=1 c=64 v=63
160530 On ch=1 n=d7 v=0
160572 Par ch=1 c=64 v=0
160592 On ch=1 n=f7 v=97
160620 On ch=1 n=d#7 v=0
160676 On ch=1 n=d#7 v=88
160736 On ch=1 n=f7 v=0
160786 On ch=1 n=c#7 v=107
160814 Par ch=1 c=64 v=63
160842 On ch=1 n=d#7 v=0
160844 On ch=1 n=f#5 v=0
160886 On ch=1 n=c#7 v=0
160900 On ch=1 n=c7 v=80
160952 Par ch=1 c=64 v=0
160998 On ch=1 n=a#6 v=106
161006 On ch=1 n=c7 v=0
161050 Par ch=1 c=64 v=63
161138 Par ch=1 c=64 v=127
161206 On ch=1 n=f5 v=96
161336 Par ch=1 c=64 v=63
161356 Par ch=1 c=64 v=0
161438 On ch=1 n=a6 v=98
161456 On ch=1 n=c6 v=83
161460 Par ch=1 c=64 v=63
161476 Par ch=1 c=64 v=127
161528 On ch=1 n=a#6 v=0
161654 On ch=1 n=d#6 v=98
161726 On ch=1 n=c6 v=0
161792 On ch=1 n=a6 v=0
161810 On ch=1 n=f5 v=0
161840 On ch=1 n=d#6 v=0
161890 On ch=1 n=f#5 v=92
162016 On ch=1 n=d#7 v=92
162052 Par ch=1 c=64 v=63
162080 Par ch=1 c=64 v=0
162152 Par ch=1 c=64 v=63
162158 On ch=1 n=d7 v=94
162164 On ch=1 n=d#7 v=0
162178 Par ch=1 c=64 v=127
162264 On ch=1 n=d#7 v=109
162296 On ch=1 n=d7 v=0
162368 On ch=1 n=f7 v=94
162392 On ch=1 n=d#7 v=0
162418 On ch=1 n=f#5 v=0
162472 On ch=1 n=d#7 v=94
162528 On ch=1 n=f7 v=0
162578 On ch=1 n=c#7 v=107
162644 On ch=1 n=d#7 v=0
162678 On ch=1 n=c7 v=99
162688 On ch=1 n=c#7 v=0
162724 Par ch=1 c=64 v=63
162748 Par ch=1 c=64 v=0
162780 On ch=1 n=f5 v=59
162786 Par ch=1 c=64 v=63
162796 On ch=1 n=a#6 v=108
162802 On ch=1 n=c7 v=0
162830 Par ch=1 c=64 v=127
162900 On ch=1 n=a6 v=102
162934 On ch=1 n=a#6 v=0
162976 On ch=1 n=a6 v=0
162980 On ch=1 n=f5 v=0
163046 On ch=1 n=d#7 v=112
163140 On ch=1 n=d7 v=101
163168 On ch=1 n=d#7 v=0
163264 On ch=1 n=f#5 v=99
163266 On ch=1 n=f7 v=104
163268 Par ch=1 c=64 v=63
163272 On ch=1 n=d#6 v=105
163276 On ch=1 n=c6 v=92
163290 Par ch=1 c=64 v=0
163302 On ch=1 n=d7 v=0
163354 Par ch=1 c=64 v=63
163388 Par ch=1 c=64 v=127
163412 On ch=1 n=d#7 v=106
163476 On ch=1 n=f7 v=0
163510 On ch=1 n=c#7 v=112
163576 On ch=1 n=d#7 v=0
163622 On ch=1 n=c7 v=104
163632 On ch=1 n=c#7 v=0
163700 On ch=1 n=f#5 v=0
163712 On ch=1 n=f5 v=83
163720 On ch=1 n=c7 v=0
163752 On ch=1 n=a#6 v=107
163796 Par ch=1 c=64 v=63
163840 Par ch=1 c=64 v=127
163852 On ch=1 n=a#6 v=0
163854 On ch=1 n=a6 v=89
163948 On ch=1 n=a6 v=0
163948 On ch=1 n=f5 v=0
163956 On ch=1 n=d#7 v=107
163966 On ch=1 n=c6 v=0
164002 On ch=1 n=d#6 v=0
164050 On ch=1 n=d7 v=104
164080 On ch=1 n=d#7 v=0
164138 On ch=1 n=f#5 v=97
164144 On ch=1 n=d#6 v=98
164148 On ch=1 n=c6 v=86
164158 Par ch=1 c=64 v=63
164160 On ch=1 n=f7 v=103
164188 Par ch=1 c=64 v=0
164208 On ch=1 n=d7 v=0
164228 Par ch=1 c=64 v=63
164260 Par ch=1 c=64 v=127
164280 On ch=1 n=d#7 v=109
164356 On ch=1 n=f7 v=0
164390 On ch=1 n=c#7 v=112
164460 On ch=1 n=d#7 v=0
164496 On ch=1 n=c7 v=99
164544 On ch=1 n=c#7 v=0
164550 On ch=1 n=f#5 v=0
164616 On ch=1 n=f5 v=71
164640 On ch=1 n=a#6 v=108
164674 On ch=1 n=c7 v=0
164676 Par ch=1 c=64 v=63
164708 Par ch=1 c=64 v=0
164734 Par ch=1 c=64 v=63
164780 Par ch=1 c=64 v=127
164788 On ch=1 n=a6 v=93
164830 On ch=1 n=a#6 v=0
164904 On ch=1 n=c7 v=92
164926 On ch=1 n=a6 v=0
165000 On ch=1 n=b6 v=90
165052 On ch=1 n=c7 v=0
165126 On ch=1 n=d7 v=88
165150 On ch=1 n=b6 v=0
165224 On ch=1 n=c7 v=83
165274 On ch=1 n=d7 v=0
165328 On ch=1 n=a#6 v=92
165374 On ch=1 n=c7 v=0
165424 On ch=1 n=a6 v=86
165496 On ch=1 n=a#6 v=0
165542 On ch=1 n=a6 v=0
165552 On ch=1 n=g6 v=79
165636 On ch=1 n=g6 v=0
165666 On ch=1 n=f6 v=80
165772 On ch=1 n=f6 v=0
165782 On ch=1 n=g6 v=82
165852 Par ch=1 c=64 v=63
165888 On ch=1 n=f#6 v=96
165926 On ch=1 n=g6 v=0
165960 On ch=1 n=d#6 v=0
166010 On ch=1 n=a6 v=83
166060 On ch=1 n=f#6 v=0
166070 Par ch=1 c=64 v=0
166072 On ch=1 n=c6 v=0
166118 On ch=1 n=g6 v=91
166128 On ch=1 n=f5 v=0
166176 On ch=1 n=a6 v=0
166226 On ch=1 n=f6 v=90
166282 On ch=1 n=g6 v=0
166338 On ch=1 n=d#6 v=98
166380 On ch=1 n=f6 v=0
166492 On ch=1 n=d6 v=85
166498 On ch=1 n=d#6 v=0
166746 On ch=1 n=c6 v=86
166762 On ch=1 n=d6 v=0
166840 On ch=1 n=c6 v=0
167010 On ch=1 n=d6 v=83
167118 On ch=1 n=d6 v=0
167258 On ch=1 n=d#6 v=75
167368 On ch=1 n=d#6 v=0
167556 On ch=1 n=e6 v=68
167742 On ch=1 n=e6 v=0
167894 On ch=1 n=f6 v=58
168128 On ch=1 n=f6 v=0
168338 On ch=1 n=g6 v=71
168372 Par ch=1 c=64 v=63
168382 Par ch=1 c=64 v=127
168470 On ch=1 n=f6 v=66
168520 On ch=1 n=g6 v=0
168586 On ch=1 n=d#6 v=82
168636 On ch=1 n=f6 v=0
168700 On ch=1 n=d6 v=74
168710 On ch=1 n=d#6 v=0
168820 Par ch=1 c=64 v=63
168840 On ch=1 n=d6 v=0
168842 On ch=1 n=c6 v=75
168848 Par ch=1 c=64 v=0
168888 Par ch=1 c=64 v=63
168934 Par ch=1 c=64 v=127
169068 On ch=1 n=a#4 v=53
169072 On ch=1 n=a#5 v=80
169078 On ch=1 n=c6 v=0
169222 On ch=1 n=a#5 v=0
169308 On ch=1 n=d5 v=57
169316 On ch=1 n=a#5 v=88
169356 Par ch=1 c=64 v=63
169412 Par ch=1 c=64 v=0
169442 Par ch=1 c=64 v=63
169490 Par ch=1 c=64 v=127
169552 On ch=1 n=f5 v=65
169564 On ch=1 n=d5 v=0
169716 On ch=1 n=a#5 v=0
169768 On ch=1 n=d5 v=79
169804 On ch=1 n=a#4 v=0
169828 On ch=1 n=f5 v=0
169962 On ch=1 n=d6 v=92
169972 On ch=1 n=a#4 v=71
170032 Par ch=1 c=64 v=63
170044 On ch=1 n=d5 v=0
170084 Par ch=1 c=64 v=0
170118 Par ch=1 c=64 v=63
170160 Par ch=1 c=64 v=127
170204 On ch=1 n=g6 v=92
170212 On ch=1 n=d5 v=63
170284 On ch=1 n=d6 v=0
170404 Par ch=1 c=64 v=63
170404 On ch=1 n=g5 v=54
170424 On ch=1 n=d5 v=0
170426 On ch=1 n=d6 v=84
170452 On ch=1 n=a#4 v=0
170456 Par ch=1 c=64 v=0
170508 On ch=1 n=g6 v=0
170660 On ch=1 n=f6 v=84
170666 On ch=1 n=g5 v=0
170744 On ch=1 n=d6 v=0
170868 On ch=1 n=c5 v=65
171112 On ch=1 n=d#5 v=71
171120 On ch=1 n=d#6 v=81
171192 On ch=1 n=f6 v=0
171298 Par ch=1 c=64 v=63
171318 Par ch=1 c=64 v=127
171336 On ch=1 n=d#5 v=0
171336 On ch=1 n=g5 v=39
171554 On ch=1 n=d#5 v=78
171572 On ch=1 n=g5 v=0
171590 On ch=1 n=c5 v=0
171686 On ch=1 n=d#6 v=0
171774 On ch=1 n=d#5 v=0
171782 On ch=1 n=c5 v=65
171786 On ch=1 n=f6 v=84
171886 Par ch=1 c=64 v=63
171896 On ch=1 n=g6 v=81
171902 On ch=1 n=f6 v=0
171980 On ch=1 n=d#5 v=70
171998 On ch=1 n=f6 v=86
172004 Par ch=1 c=64 v=127
172028 On ch=1 n=g6 v=0
172090 On ch=1 n=d#6 v=99
172114 On ch=1 n=f6 v=0
172182 On ch=1 n=c5 v=0
172182 On ch=1 n=d6 v=86
172190 On ch=1 n=g5 v=54
172220 On ch=1 n=d#5 v=0
172242 On ch=1 n=d#6 v=0
172280 On ch=1 n=c6 v=84
172290 On ch=1 n=d6 v=0
172362 On ch=1 n=g5 v=0
172418 On ch=1 n=c6 v=0
172420 On ch=1 n=a#5 v=95
172426 Par ch=1 c=64 v=63
172468 Par ch=1 c=64 v=0
172534 Par ch=1 c=64 v=63
172584 Par ch=1 c=64 v=127
172638 On ch=1 n=f4 v=74
172758 Par ch=1 c=64 v=63
172798 Par ch=1 c=64 v=0
172866 On ch=1 n=a5 v=71
172880 On ch=1 n=c5 v=61
172916 On ch=1 n=a#5 v=0
172980 Par ch=1 c=64 v=63
173010 Par ch=1 c=64 v=127
173078 On ch=1 n=d#5 v=65
173112 On ch=1 n=c5 v=0
173288 On ch=1 n=f4 v=0
173320 On ch=1 n=c5 v=63
173328 On ch=1 n=a5 v=0
173342 On ch=1 n=d#5 v=0
173514 On ch=1 n=f4 v=50
173520 On ch=1 n=c5 v=0
173520 On ch=1 n=a5 v=71
173548 Par ch=1 c=64 v=63
173590 Par ch=1 c=64 v=0
173722 On ch=1 n=a#5 v=87
173726 Par ch=1 c=64 v=63
173750 On ch=1 n=c5 v=51
173758 Par ch=1 c=64 v=127
173788 On ch=1 n=a5 v=0
173916 On ch=1 n=a#5 v=0
173944 On ch=1 n=c6 v=94
173944 On ch=1 n=d#5 v=67
174010 On ch=1 n=c5 v=0
174030 On ch=1 n=f4 v=0
174060 On ch=1 n=d#5 v=0
174078 On ch=1 n=c6 v=0
174156 On ch=1 n=c6 v=89
174166 On ch=1 n=a5 v=63
174282 Par ch=1 c=64 v=63
174336 Par ch=1 c=64 v=0
174376 On ch=1 n=a#4 v=76
174386 Par ch=1 c=64 v=63
174446 Par ch=1 c=64 v=127
174572 Par ch=1 c=64 v=63
174584 On ch=1 n=d6 v=79
174590 On ch=1 n=a5 v=0
174598 On ch=1 n=c6 v=0
174606 On ch=1 n=a#5 v=64
174610 Par ch=1 c=64 v=0
174614 On ch=1 n=d5 v=59
174698 On ch=1 n=a#4 v=0
174718 Par ch=1 c=64 v=63
174754 Par ch=1 c=64 v=127
174818 On ch=1 n=f5 v=51
174820 On ch=1 n=d5 v=0
174960 On ch=1 n=a#5 v=0
174982 On ch=1 n=d6 v=0
175028 On ch=1 n=f5 v=0
175040 On ch=1 n=d5 v=69
175250 On ch=1 n=d5 v=0
175252 On ch=1 n=a#4 v=65
175278 On ch=1 n=f6 v=84
175290 Par ch=1 c=64 v=63
175376 On ch=1 n=e6 v=84
175388 On ch=1 n=f6 v=0
175396 Par ch=1 c=64 v=0
175470 On ch=1 n=d5 v=55
175472 On ch=1 n=e6 v=0
175472 On ch=1 n=g6 v=93
175576 On ch=1 n=a#4 v=0
175580 On ch=1 n=f6 v=98
175624 On ch=1 n=g6 v=0
175640 Par ch=1 c=64 v=63
175666 On ch=1 n=d5 v=0
175692 On ch=1 n=d#6 v=104
175694 On ch=1 n=f5 v=49
175742 On ch=1 n=f6 v=0
175792 On ch=1 n=d6 v=87
175796 On ch=1 n=d#6 v=0
175818 Par ch=1 c=64 v=0
175874 On ch=1 n=d6 v=0
175920 On ch=1 n=d#5 v=67
175922 On ch=1 n=d6 v=93
175928 On ch=1 n=f5 v=0
176144 On ch=1 n=c6 v=82
176174 On ch=1 n=g5 v=37
176180 On ch=1 n=d6 v=0
176182 On ch=1 n=d#5 v=0
176362 On ch=1 n=d5 v=84
176372 On ch=1 n=g5 v=0
176570 On ch=1 n=a#5 v=89
176578 On ch=1 n=d5 v=0
176580 On ch=1 n=f5 v=57
176592 On ch=1 n=c6 v=0
176596 Par ch=1 c=64 v=63
176618 Par ch=1 c=64 v=127
176744 On ch=1 n=a#5 v=0
176788 On ch=1 n=f5 v=0
176792 On ch=1 n=d6 v=91
176798 On ch=1 n=d#5 v=70
176844 Par ch=1 c=64 v=63
176880 Par ch=1 c=64 v=0
177010 On ch=1 n=d#5 v=0
177018 On ch=1 n=c6 v=81
177022 On ch=1 n=g5 v=61
177092 On ch=1 n=d6 v=0
177222 Par ch=1 c=64 v=63
177224 On ch=1 n=c5 v=64
177230 On ch=1 n=g5 v=0
177270 Par ch=1 c=64 v=127
177434 On ch=1 n=d#5 v=70
177442 On ch=1 n=a5 v=68
177446 On ch=1 n=c6 v=0
177472 On ch=1 n=c5 v=0
177554 On ch=1 n=a5 v=0
177644 On ch=1 n=d#5 v=0
177656 On ch=1 n=f5 v=58
177676 On ch=1 n=d5 v=63
177684 Par ch=1 c=64 v=63
177692 On ch=1 n=a#5 v=101
177780 On ch=1 n=a#5 v=0
177802 On ch=1 n=c6 v=77
177888 On ch=1 n=a#5 v=87
177906 Par ch=1 c=64 v=0
177922 On ch=1 n=c6 v=0
177976 Par ch=1 c=64 v=63
178010 On ch=1 n=a#5 v=0
178014 On ch=1 n=a5 v=77
178106 On ch=1 n=a#5 v=97
178114 On ch=1 n=a5 v=0
178180 On ch=1 n=a#5 v=0
178218 On ch=1 n=c6 v=83
178318 On ch=1 n=d6 v=84
178330 On ch=1 n=c6 v=0
178352 On ch=1 n=f5 v=0
178386 On ch=1 n=d5 v=0
178402 On ch=1 n=d#6 v=103
178420 On ch=1 n=d6 v=0
178452 Par ch=1 c=64 v=0
178490 On ch=1 n=d#6 v=0
178504 On ch=1 n=e6 v=91
178602 On ch=1 n=e6 v=0
178616 On ch=1 n=f6 v=93
178706 On ch=1 n=f6 v=0
178706 On ch=1 n=e6 v=90
178798 On ch=1 n=e6 v=0
178810 On ch=1 n=f6 v=101
178916 On ch=1 n=f6 v=0
178922 On ch=1 n=g6 v=94
179030 On ch=1 n=f6 v=90
179060 On ch=1 n=g6 v=0
179142 On ch=1 n=d#6 v=95
179174 On ch=1 n=f6 v=0
179226 On ch=1 n=d6 v=87
179242 On ch=1 n=d#6 v=0
179316 On ch=1 n=d6 v=0
179364 On ch=1 n=d6 v=92
179382 On ch=1 n=d#5 v=83
179416 Par ch=1 c=64 v=63
179440 Par ch=1 c=64 v=127
179556 Par ch=1 c=64 v=63
179594 On ch=1 n=c6 v=87
179604 On ch=1 n=g5 v=51
179610 On ch=1 n=d#5 v=0
179612 Par ch=1 c=64 v=0
179620 On ch=1 n=d6 v=0
179668 On ch=1 n=c6 v=0
179806 On ch=1 n=g5 v=0
179806 On ch=1 n=d5 v=76
179830 On ch=1 n=c6 v=92
180034 On ch=1 n=a#5 v=101
180040 On ch=1 n=d5 v=0
180046 On ch=1 n=f5 v=59
180064 On ch=1 n=c6 v=0
180094 On ch=1 n=a#5 v=0
180252 On ch=1 n=f5 v=0
180258 On ch=1 n=d#5 v=79
180272 On ch=1 n=d6 v=97
180464 On ch=1 n=d#5 v=0
180480 On ch=1 n=g5 v=52
180482 On ch=1 n=c6 v=79
180534 On ch=1 n=d6 v=0
180576 On ch=1 n=c6 v=0
180698 On ch=1 n=c5 v=60
180700 On ch=1 n=c6 v=85
180710 On ch=1 n=g5 v=0
180884 On ch=1 n=c6 v=0
180898 On ch=1 n=d#5 v=67
180914 On ch=1 n=a5 v=77
180952 On ch=1 n=c5 v=0
181028 On ch=1 n=a5 v=0
181092 On ch=1 n=d#5 v=0
181132 On ch=1 n=f5 v=54
181140 On ch=1 n=a#5 v=88
181158 On ch=1 n=d5 v=46
181290 On ch=1 n=a#5 v=0
181366 On ch=1 n=c6 v=73
181468 On ch=1 n=d6 v=90
181476 On ch=1 n=c6 v=0
181564 On ch=1 n=d#6 v=96
181568 On ch=1 n=d6 v=0
181634 On ch=1 n=d#6 v=0
181668 On ch=1 n=f6 v=83
181756 On ch=1 n=g6 v=98
181770 On ch=1 n=f6 v=0
181868 On ch=1 n=a6 v=90
181888 On ch=1 n=g6 v=0
181968 On ch=1 n=a#6 v=104
181978 On ch=1 n=f5 v=0
181988 On ch=1 n=a6 v=0
182022 On ch=1 n=d5 v=0
182050 On ch=1 n=a#6 v=0
182078 On ch=1 n=c7 v=100
182172 On ch=1 n=d7 v=101
182188 On ch=1 n=c7 v=0
182260 On ch=1 n=d#7 v=109
182304 On ch=1 n=d7 v=0
182372 On ch=1 n=f7 v=106
182394 On ch=1 n=d#7 v=0
182446 On ch=1 n=f7 v=0
182612 On ch=1 n=f7 v=111
182682 On ch=1 n=f7 v=0
182878 On ch=1 n=a4 v=107
182878 On ch=1 n=f7 v=107
182882 On ch=1 n=f6 v=103
182902 Par ch=1 c=64 v=63
182918 Par ch=1 c=64 v=127
183146 On ch=1 n=d#7 v=115
183176 On ch=1 n=a4 v=0
183198 On ch=1 n=f7 v=0
183302 On ch=1 n=d#7 v=0
183354 On ch=1 n=a#4 v=107
183570 On ch=1 n=d7 v=111
183662 Par ch=1 c=64 v=63
183692 Par ch=1 c=64 v=0
183714 On ch=1 n=d7 v=0
183790 On ch=1 n=d#4 v=109
183794 On ch=1 n=a#4 v=0
183802 On ch=1 n=d7 v=94
183846 On ch=1 n=f6 v=0
183916 On ch=1 n=d7 v=0
183994 On ch=1 n=d#4 v=0
184018 On ch=1 n=c7 v=101
184026 On ch=1 n=d#6 v=98
184098 On ch=1 n=d#6 v=0
184110 On ch=1 n=c7 v=0
184248 On ch=1 n=a#6 v=99
184250 On ch=1 n=f4 v=92
184262 On ch=1 n=d6 v=61
184286 On ch=1 n=a#6 v=0
184310 On ch=1 n=d6 v=0
184318 On ch=1 n=f4 v=0
184466 On ch=1 n=a6 v=103
184466 On ch=1 n=c6 v=103
184526 On ch=1 n=c6 v=0
184538 On ch=1 n=a6 v=0
184700 On ch=1 n=a#6 v=116
184700 Par ch=1 c=64 v=63
184710 On ch=1 n=d6 v=99
184718 Par ch=1 c=64 v=127
184742 On ch=1 n=d6 v=0
184770 On ch=1 n=a#6 v=0
184912 On ch=1 n=a#3 v=91
185032 On ch=1 n=a#3 v=0
185088 Par ch=1 c=64 v=63
185118 Par ch=1 c=64 v=0
185150 On ch=1 n=a#5 v=96
185164 On ch=1 n=d4 v=79
185248 On ch=1 n=d4 v=0
185352 On ch=1 n=f4 v=70
185436 On ch=1 n=f4 v=0
185600 Par ch=1 c=64 v=63
185614 Par ch=1 c=64 v=127
185622 On ch=1 n=a#4 v=80
185766 On ch=1 n=a#5 v=0
185788 On ch=1 n=a#4 v=0
186196 On ch=1 n=g5 v=71
186308 On ch=1 n=f5 v=71
186326 On ch=1 n=g5 v=0
186376 Par ch=1 c=64 v=63
186420 On ch=1 n=d#5 v=84
186450 Par ch=1 c=64 v=0
186458 On ch=1 n=f5 v=0
186516 On ch=1 n=d5 v=75
186526 On ch=1 n=d#5 v=0
186658 On ch=1 n=d5 v=0
186664 Par ch=1 c=64 v=63
186670 On ch=1 n=c5 v=74
186692 Par ch=1 c=64 v=127
186884 On ch=1 n=a#3 v=54
186886 On ch=1 n=c5 v=0
186892 On ch=1 n=a#4 v=78
187026 On ch=1 n=a#4 v=0
187128 On ch=1 n=d4 v=57
187134 On ch=1 n=a#4 v=74
187166 Par ch=1 c=64 v=63
187278 Par ch=1 c=64 v=127
187354 On ch=1 n=f4 v=52
187358 On ch=1 n=d4 v=0
187476 On ch=1 n=a#4 v=0
187524 On ch=1 n=a#3 v=0
187564 On ch=1 n=d4 v=67
187614 On ch=1 n=f4 v=0
187790 On ch=1 n=a#5 v=80
187792 Par ch=1 c=64 v=63
187804 On ch=1 n=a#3 v=51
187846 On ch=1 n=d4 v=0
187916 Par ch=1 c=64 v=127
187968 On ch=1 n=a#5 v=0
188040 On ch=1 n=a#5 v=84
188058 On ch=1 n=d4 v=55
188266 On ch=1 n=c6 v=93
188268 On ch=1 n=f4 v=52
188318 On ch=1 n=d4 v=0
188360 On ch=1 n=a#5 v=0
188414 On ch=1 n=a#3 v=0
188438 On ch=1 n=f4 v=0
188492 On ch=1 n=a#5 v=94
188548 Par ch=1 c=64 v=63
188584 Par ch=1 c=64 v=0
188594 On ch=1 n=c6 v=0
188680 Par ch=1 c=64 v=63
188680 On ch=1 n=a#3 v=64
188688 On ch=1 n=a5 v=86
188708 Par ch=1 c=64 v=127
188764 On ch=1 n=a#5 v=0
188914 On ch=1 n=d4 v=55
188926 On ch=1 n=g#5 v=89
188930 Par ch=1 c=64 v=63
188960 Par ch=1 c=64 v=0
188994 On ch=1 n=a5 v=0
189104 Par ch=1 c=64 v=63
189126 Par ch=1 c=64 v=127
189138 On ch=1 n=f4 v=51
189148 On ch=1 n=d4 v=0
189338 On ch=1 n=a#3 v=0
189370 On ch=1 n=d4 v=67
189396 Par ch=1 c=64 v=63
189422 On ch=1 n=f4 v=0
189454 Par ch=1 c=64 v=0
189482 On ch=1 n=g#5 v=0
189498 Par ch=1 c=64 v=63
189556 Par ch=1 c=64 v=127
189574 On ch=1 n=a#3 v=58
189584 On ch=1 n=g#5 v=84
189600 On ch=1 n=d4 v=0
189704 On ch=1 n=g#5 v=0
189796 On ch=1 n=d4 v=68
189798 On ch=1 n=g#5 v=92
189876 On ch=1 n=g#5 v=0
189988 On ch=1 n=g#5 v=94
190002 On ch=1 n=f4 v=74
190010 On ch=1 n=d4 v=0
190028 On ch=1 n=a#3 v=0
190058 On ch=1 n=g#5 v=0
190128 On ch=1 n=f4 v=0
190206 On ch=1 n=g#6 v=99
190322 On ch=1 n=a#6 v=96
190378 On ch=1 n=g#6 v=0
190434 On ch=1 n=a#3 v=87
190442 On ch=1 n=g6 v=93
190454 On ch=1 n=a#6 v=0
190552 On ch=1 n=g#6 v=101
190584 On ch=1 n=g6 v=0
190650 On ch=1 n=d4 v=85
190654 On ch=1 n=f6 v=89
190678 On ch=1 n=g#6 v=0
190748 On ch=1 n=g6 v=99
190752 On ch=1 n=f6 v=0
190768 Par ch=1 c=64 v=63
190848 On ch=1 n=f4 v=80
190854 On ch=1 n=d#6 v=109
190860 On ch=1 n=g6 v=0
190944 On ch=1 n=f6 v=98
190972 On ch=1 n=d#6 v=0
191038 On ch=1 n=d6 v=87
191058 On ch=1 n=g#4 v=89
191070 On ch=1 n=f6 v=0
191088 On ch=1 n=d4 v=0
191136 On ch=1 n=d6 v=0
191138 On ch=1 n=f4 v=0
191140 On ch=1 n=d#6 v=101
191244 On ch=1 n=c6 v=81
191252 On ch=1 n=d#6 v=0
191292 On ch=1 n=f4 v=69
191328 On ch=1 n=c6 v=0
191340 On ch=1 n=d6 v=87
191378 On ch=1 n=a#3 v=0
191442 On ch=1 n=d6 v=0
191458 On ch=1 n=a#5 v=97
191480 On ch=1 n=d4 v=77
191498 On ch=1 n=g#4 v=0
191534 On ch=1 n=f4 v=0
191552 On ch=1 n=c6 v=90
191554 On ch=1 n=a#5 v=0
191672 On ch=1 n=g#5 v=94
191676 On ch=1 n=c6 v=0
191688 On ch=1 n=a#3 v=66
191774 On ch=1 n=a#5 v=90
191786 On ch=1 n=g#5 v=0
191838 On ch=1 n=d4 v=0
191888 Par ch=1 c=64 v=0
191896 On ch=1 n=g#5 v=88
191902 On ch=1 n=a#3 v=0
191944 On ch=1 n=a#5 v=0
192132 On ch=1 n=b3 v=70
192138 On ch=1 n=g5 v=77
192190 On ch=1 n=g#5 v=0
192310 On ch=1 n=g5 v=0
192342 On ch=1 n=d4 v=68
192366 Par ch=1 c=64 v=63
192368 On ch=1 n=g5 v=78
192382 Par ch=1 c=64 v=127
192562 On ch=1 n=f4 v=57
192660 On ch=1 n=g5 v=0
192782 On ch=1 n=d4 v=0
192786 On ch=1 n=g4 v=68
192856 On ch=1 n=f4 v=0
193004 Par ch=1 c=64 v=63
193014 On ch=1 n=g6 v=67
193030 Par ch=1 c=64 v=0
193040 On ch=1 n=f4 v=40
193062 On ch=1 n=g4 v=0
193130 Par ch=1 c=64 v=63
193148 On ch=1 n=g6 v=0
193160 Par ch=1 c=64 v=127
193256 On ch=1 n=g6 v=76
193256 On ch=1 n=d4 v=63
193282 On ch=1 n=b3 v=0
193324 On ch=1 n=f4 v=0
193486 On ch=1 n=f6 v=92
193490 On ch=1 n=b3 v=69
193540 On ch=1 n=d4 v=0
193574 On ch=1 n=g6 v=0
193590 On ch=1 n=b3 v=0
193660 On ch=1 n=f6 v=0
193728 On ch=1 n=f6 v=84
193936 Par ch=1 c=64 v=63
193954 On ch=1 n=a#4 v=48
193974 Par ch=1 c=64 v=0
193982 On ch=1 n=e6 v=71
194120 Par ch=1 c=64 v=63
194126 On ch=1 n=f6 v=0
194136 On ch=1 n=e6 v=0
194154 Par ch=1 c=64 v=127
194208 On ch=1 n=e6 v=76
194234 On ch=1 n=c#5 v=65
194432 On ch=1 n=e5 v=80
194650 On ch=1 n=g5 v=77
194668 On ch=1 n=e6 v=0
194698 On ch=1 n=e5 v=0
194734 On ch=1 n=c#5 v=0
194870 On ch=1 n=c#7 v=78
194924 Par ch=1 c=64 v=63
194926 On ch=1 n=a#4 v=0
194962 On ch=1 n=c#7 v=0
195006 On ch=1 n=g5 v=0
195054 Par ch=1 c=64 v=0
195112 On ch=1 n=c#7 v=88
195324 On ch=1 n=e6 v=88
195358 On ch=1 n=c#7 v=0
195570 On ch=1 n=g6 v=75
195666 On ch=1 n=e6 v=0
195790 On ch=1 n=f6 v=73
195796 On ch=1 n=a4 v=45
195864 Par ch=1 c=64 v=63
195882 Par ch=1 c=64 v=127
195904 On ch=1 n=g6 v=0
195960 On ch=1 n=f6 v=0
195994 On ch=1 n=c5 v=73
196008 On ch=1 n=a4 v=0
196022 On ch=1 n=f6 v=83
196234 On ch=1 n=f5 v=65
196288 On ch=1 n=c5 v=0
196402 On ch=1 n=f6 v=0
196470 On ch=1 n=f5 v=0
196478 On ch=1 n=a5 v=59
196722 On ch=1 n=f#6 v=71
196868 Par ch=1 c=64 v=63
196944 Par ch=1 c=64 v=0
196968 On ch=1 n=g6 v=78
196984 On ch=1 n=a5 v=0
197022 On ch=1 n=f#6 v=0
197176 On ch=1 n=d#6 v=91
197216 On ch=1 n=g6 v=0
197396 On ch=1 n=c#6 v=85
197428 On ch=1 n=d#6 v=0
197494 Par ch=1 c=64 v=63
197510 Par ch=1 c=64 v=127
197592 On ch=1 n=a#4 v=49
197612 On ch=1 n=c#6 v=0
197620 On ch=1 n=d6 v=66
197756 Par ch=1 c=64 v=63
197776 On ch=1 n=d6 v=0
197802 Par ch=1 c=64 v=0
197842 On ch=1 n=d6 v=69
197876 On ch=1 n=d5 v=57
197878 Par ch=1 c=64 v=63
197914 Par ch=1 c=64 v=127
198068 On ch=1 n=f5 v=51
198180 On ch=1 n=d6 v=0
198314 On ch=1 n=a#5 v=55
198384 On ch=1 n=d5 v=0
198402 On ch=1 n=f5 v=0
198516 On ch=1 n=a#4 v=0
198528 On ch=1 n=f6 v=70
198608 On ch=1 n=f6 v=0
198658 On ch=1 n=a#5 v=0
198780 On ch=1 n=g6 v=79
198788 Par ch=1 c=64 v=63
198842 Par ch=1 c=64 v=0
198870 On ch=1 n=f6 v=73
198878 On ch=1 n=g6 v=0
198980 On ch=1 n=d#6 v=79
198998 On ch=1 n=f6 v=0
199090 On ch=1 n=d#6 v=0
199092 On ch=1 n=d6 v=69
199196 On ch=1 n=d6 v=0
199210 Par ch=1 c=64 v=63
199216 On ch=1 n=d#5 v=57
199222 On ch=1 n=c6 v=71
199226 Par ch=1 c=64 v=127
199434 On ch=1 n=f5 v=60
199472 On ch=1 n=d#5 v=0
199616 Par ch=1 c=64 v=63
199648 On ch=1 n=d#5 v=63
199672 On ch=1 n=f5 v=0
199748 Par ch=1 c=64 v=127
199844 On ch=1 n=f5 v=60
199862 On ch=1 n=c6 v=0
199864 On ch=1 n=a5 v=60
199866 On ch=1 n=d#5 v=0
200060 On ch=1 n=a5 v=0
200070 On ch=1 n=f5 v=0
200072 On ch=1 n=d5 v=59
200086 On ch=1 n=a#5 v=82
200136 On ch=1 n=a#5 v=0
200216 On ch=1 n=f6 v=84
200244 Par ch=1 c=64 v=63
200272 On ch=1 n=d5 v=0
200296 On ch=1 n=f5 v=38
200314 On ch=1 n=e6 v=83
200318 On ch=1 n=f6 v=0
200408 On ch=1 n=f6 v=83
200424 On ch=1 n=e6 v=0
200518 On ch=1 n=f6 v=0
200522 Par ch=1 c=64 v=0
200532 On ch=1 n=g6 v=71
200534 On ch=1 n=f5 v=0
200536 On ch=1 n=d5 v=51
200612 On ch=1 n=f6 v=71
200654 On ch=1 n=g6 v=0
200718 On ch=1 n=d#6 v=101
200734 On ch=1 n=f6 v=0
200740 On ch=1 n=d5 v=0
200758 On ch=1 n=f5 v=36
200822 On ch=1 n=d6 v=84
200868 On ch=1 n=d#6 v=0
200926 On ch=1 n=d6 v=0
200930 On ch=1 n=c6 v=90
200940 On ch=1 n=d#5 v=66
200960 On ch=1 n=f5 v=0
201006 On ch=1 n=c6 v=0
201156 On ch=1 n=c6 v=99
201170 On ch=1 n=f5 v=50
201218 Par ch=1 c=64 v=63
201224 On ch=1 n=d#5 v=0
201234 Par ch=1 c=64 v=127
201382 On ch=1 n=d#5 v=70
201392 On ch=1 n=f5 v=0
201466 Par ch=1 c=64 v=63
201496 Par ch=1 c=64 v=0
201580 On ch=1 n=f5 v=54
201584 On ch=1 n=d#5 v=0
201588 On ch=1 n=a5 v=76
201594 Par ch=1 c=64 v=63
201598 On ch=1 n=c6 v=0
201618 Par ch=1 c=64 v=127
201778 On ch=1 n=a5 v=0
201798 On ch=1 n=a#5 v=95
201820 On ch=1 n=f5 v=0
201820 On ch=1 n=d5 v=61
201860 On ch=1 n=a#5 v=0
201936 On ch=1 n=f6 v=85
202010 On ch=1 n=d5 v=0
202036 On ch=1 n=f5 v=39
202042 On ch=1 n=e6 v=88
202050 On ch=1 n=f6 v=0
202072 Par ch=1 c=64 v=63
202142 On ch=1 n=f6 v=93
202166 On ch=1 n=e6 v=0
202172 Par ch=1 c=64 v=0
202240 On ch=1 n=d5 v=64
202248 On ch=1 n=f5 v=0
202266 On ch=1 n=f6 v=0
202270 On ch=1 n=g6 v=93
202370 On ch=1 n=f6 v=91
202414 On ch=1 n=g6 v=0
202454 On ch=1 n=d5 v=0
202466 On ch=1 n=d#6 v=106
202476 On ch=1 n=f5 v=41
202498 On ch=1 n=f6 v=0
202554 On ch=1 n=d6 v=91
202564 On ch=1 n=d#6 v=0
202614 On ch=1 n=d6 v=0
202676 On ch=1 n=f5 v=0
202678 On ch=1 n=d6 v=99
202684 Par ch=1 c=64 v=63
202686 On ch=1 n=d#5 v=63
202698 Par ch=1 c=64 v=127
202922 On ch=1 n=c6 v=78
202940 On ch=1 n=g5 v=30
202942 On ch=1 n=d#5 v=0
202970 Par ch=1 c=64 v=63
202984 On ch=1 n=d6 v=0
203000 Par ch=1 c=64 v=0
203144 Par ch=1 c=64 v=63
203160 On ch=1 n=d#5 v=69
203160 Par ch=1 c=64 v=127
203176 On ch=1 n=g5 v=0
203248 On ch=1 n=c6 v=0
203338 On ch=1 n=c6 v=101
203344 On ch=1 n=g5 v=74
203390 Par ch=1 c=64 v=63
203418 Par ch=1 c=64 v=0
203424 On ch=1 n=d#5 v=0
203490 On ch=1 n=c6 v=0
203576 On ch=1 n=c6 v=97
203580 On ch=1 n=g5 v=0
203580 On ch=1 n=e5 v=80
203616 Par ch=1 c=64 v=63
203630 Par ch=1 c=64 v=127
203796 Par ch=1 c=64 v=63
203802 On ch=1 n=a#5 v=88
203806 Par ch=1 c=64 v=0
203812 On ch=1 n=g5 v=49
203826 On ch=1 n=e5 v=0
203878 On ch=1 n=c6 v=0
203988 Par ch=1 c=64 v=63
204000 Par ch=1 c=64 v=127
204028 On ch=1 n=g5 v=0
204038 On ch=1 n=e5 v=63
204092 On ch=1 n=a#5 v=0
204138 Par ch=1 c=64 v=63
204146 Par ch=1 c=64 v=0
204236 On ch=1 n=g5 v=79
204238 Par ch=1 c=64 v=63
204246 On ch=1 n=a#5 v=105
204248 Par ch=1 c=64 v=127
204254 On ch=1 n=e5 v=0
204374 On ch=1 n=g5 v=0
204394 On ch=1 n=a#5 v=0
204490 On ch=1 n=f4 v=72
204492 Par ch=1 c=64 v=63
204500 On ch=1 n=a5 v=92
204518 Par ch=1 c=64 v=0
204592 On ch=1 n=a5 v=0
204600 On ch=1 n=a#5 v=85
204692 On ch=1 n=a5 v=84
204732 On ch=1 n=a#5 v=0
204794 On ch=1 n=a5 v=0
204806 On ch=1 n=f5 v=86
204884 On ch=1 n=f4 v=0
204910 On ch=1 n=f5 v=0
204926 On ch=1 n=a#5 v=98
204948 On ch=1 n=g4 v=93
205034 On ch=1 n=c6 v=80
205038 On ch=1 n=a#5 v=0
205136 On ch=1 n=a#5 v=100
205180 On ch=1 n=c6 v=0
205240 On ch=1 n=f5 v=87
205242 On ch=1 n=a#5 v=0
205286 On ch=1 n=g4 v=0
205342 On ch=1 n=f5 v=0
205352 On ch=1 n=a4 v=102
205356 On ch=1 n=c6 v=99
205478 On ch=1 n=c6 v=0
205482 On ch=1 n=d6 v=89
205594 On ch=1 n=c6 v=90
205626 On ch=1 n=d6 v=0
205680 On ch=1 n=a4 v=0
205682 On ch=1 n=c6 v=0
205690 On ch=1 n=f5 v=79
205754 On ch=1 n=f5 v=0
205788 On ch=1 n=a#4 v=108
205790 On ch=1 n=d6 v=101
205882 On ch=1 n=d6 v=0
205910 On ch=1 n=d#6 v=94
206008 On ch=1 n=d6 v=98
206020 On ch=1 n=d#6 v=0
206038 On ch=1 n=a#4 v=0
206086 On ch=1 n=d6 v=0
206106 On ch=1 n=f5 v=79
206192 On ch=1 n=f5 v=0
206228 On ch=1 n=d#6 v=113
206230 On ch=1 n=c5 v=100
206290 On ch=1 n=d#6 v=0
206452 On ch=1 n=f5 v=71
206456 On ch=1 n=c5 v=0
206462 On ch=1 n=d#6 v=114
206524 On ch=1 n=d#6 v=0
206654 On ch=1 n=f5 v=0
206662 On ch=1 n=a4 v=89
206848 On ch=1 n=a4 v=0
206852 On ch=1 n=f5 v=69
206854 On ch=1 n=c6 v=108
206924 On ch=1 n=c6 v=0
207066 On ch=1 n=f5 v=0
207080 On ch=1 n=a#4 v=94
207084 On ch=1 n=d#6 v=115
207112 Par ch=1 c=64 v=63
207138 Par ch=1 c=64 v=127
207270 Par ch=1 c=64 v=63
207306 On ch=1 n=d6 v=94
207308 On ch=1 n=a#4 v=0
207316 On ch=1 n=f5 v=58
207332 Par ch=1 c=64 v=0
207344 On ch=1 n=d#6 v=0
207380 On ch=1 n=d6 v=0
207510 On ch=1 n=g4 v=84
207518 On ch=1 n=f5 v=0
207518 On ch=1 n=c6 v=103
207588 On ch=1 n=c6 v=0
207716 On ch=1 n=g4 v=0
207728 On ch=1 n=a#5 v=109
207736 On ch=1 n=f5 v=77
207794 On ch=1 n=a#5 v=0
207862 On ch=1 n=f5 v=0
207948 On ch=1 n=f4 v=86
207954 On ch=1 n=a5 v=108
207956 Par ch=1 c=64 v=63
207966 Par ch=1 c=64 v=127
208030 On ch=1 n=a5 v=0
208040 On ch=1 n=f5 v=82
208042 On ch=1 n=f4 v=0
208112 On ch=1 n=f5 v=0
208156 On ch=1 n=e6 v=93
208236 On ch=1 n=e6 v=0
208268 On ch=1 n=f6 v=79
208306 Par ch=1 c=64 v=63
208334 Par ch=1 c=64 v=0
208354 On ch=1 n=f6 v=0
208378 On ch=1 n=a#5 v=112
208386 On ch=1 n=g4 v=104
208392 Par ch=1 c=64 v=63
208426 Par ch=1 c=64 v=127
208452 On ch=1 n=f5 v=97
208458 On ch=1 n=a#5 v=0
208552 On ch=1 n=f5 v=0
208556 On ch=1 n=g4 v=0
208578 On ch=1 n=e6 v=93
208676 On ch=1 n=f6 v=97
208690 On ch=1 n=e6 v=0
208742 Par ch=1 c=64 v=63
208774 Par ch=1 c=64 v=0
208792 On ch=1 n=c6 v=104
208798 On ch=1 n=a4 v=113
208830 Par ch=1 c=64 v=63
208836 On ch=1 n=f6 v=0
208870 Par ch=1 c=64 v=127
208888 On ch=1 n=f5 v=100
208894 On ch=1 n=c6 v=0
208956 On ch=1 n=a4 v=0
208974 On ch=1 n=f5 v=0
209010 On ch=1 n=e6 v=97
209112 On ch=1 n=e6 v=0
209116 On ch=1 n=f6 v=84
209132 Par ch=1 c=64 v=63
209154 Par ch=1 c=64 v=0
209226 On ch=1 n=d6 v=99
209230 On ch=1 n=f6 v=0
209238 On ch=1 n=a#4 v=121
209252 Par ch=1 c=64 v=63
209280 Par ch=1 c=64 v=127
209314 On ch=1 n=a#4 v=0
209336 On ch=1 n=f5 v=86
209338 On ch=1 n=d6 v=0
209428 On ch=1 n=f5 v=0
209438 On ch=1 n=e6 v=99
209544 On ch=1 n=f6 v=91
209552 On ch=1 n=e6 v=0
209566 Par ch=1 c=64 v=63
209590 Par ch=1 c=64 v=0
209620 On ch=1 n=f6 v=0
209632 On ch=1 n=c5 v=114
209646 Par ch=1 c=64 v=63
209648 On ch=1 n=d#6 v=108
209676 Par ch=1 c=64 v=127
209716 On ch=1 n=d#6 v=0
209732 On ch=1 n=f5 v=92
209742 On ch=1 n=c5 v=0
209830 Par ch=1 c=64 v=63
209864 On ch=1 n=f5 v=0
209874 On ch=1 n=e5 v=70
209898 On ch=1 n=d#6 v=108
209910 Par ch=1 c=64 v=0
209938 On ch=1 n=f5 v=79
209952 On ch=1 n=e5 v=0
209964 On ch=1 n=d#6 v=0
210060 On ch=1 n=f5 v=0
210068 On ch=1 n=a4 v=96
210104 Par ch=1 c=64 v=63
210164 On ch=1 n=f5 v=84
210166 On ch=1 n=c6 v=112
210174 On ch=1 n=a4 v=0
210190 Par ch=1 c=64 v=0
210214 On ch=1 n=d6 v=98
210230 On ch=1 n=c6 v=0
210250 On ch=1 n=d6 v=0
210270 On ch=1 n=f5 v=0
210282 On ch=1 n=c6 v=89
210294 On ch=1 n=e5 v=59
210338 On ch=1 n=b5 v=101
210350 On ch=1 n=c6 v=0
210354 On ch=1 n=e5 v=0
210380 On ch=1 n=f5 v=77
210402 On ch=1 n=c6 v=91
210416 On ch=1 n=b5 v=0
210466 On ch=1 n=d#6 v=113
210480 On ch=1 n=a#4 v=100
210486 Par ch=1 c=64 v=63
210496 On ch=1 n=f5 v=0
210504 Par ch=1 c=64 v=127
210508 On ch=1 n=c6 v=0
210588 On ch=1 n=f5 v=68
210604 On ch=1 n=a#4 v=0
210638 Par ch=1 c=64 v=63
210700 On ch=1 n=d6 v=106
210702 On ch=1 n=e5 v=75
210704 On ch=1 n=f5 v=0
210714 Par ch=1 c=64 v=0
210728 On ch=1 n=d#6 v=0
210776 On ch=1 n=d6 v=0
210778 On ch=1 n=f5 v=83
210790 On ch=1 n=e5 v=0
210896 On ch=1 n=f5 v=0
210906 On ch=1 n=g4 v=96
210918 On ch=1 n=c6 v=109
210982 On ch=1 n=c6 v=0
211008 On ch=1 n=g4 v=0
211014 On ch=1 n=e5 v=81
211130 On ch=1 n=a#5 v=118
211136 On ch=1 n=d5 v=99
211148 On ch=1 n=e5 v=0
211198 On ch=1 n=e5 v=83
211202 On ch=1 n=a#5 v=0
211210 On ch=1 n=d5 v=0
211300 On ch=1 n=e5 v=0
211312 On ch=1 n=f4 v=84
211342 Par ch=1 c=64 v=63
211350 On ch=1 n=f5 v=109
211356 Par ch=1 c=64 v=127
211368 On ch=1 n=a5 v=111
211424 On ch=1 n=f4 v=0
211426 On ch=1 n=f5 v=0
211434 On ch=1 n=a5 v=0
211470 On ch=1 n=f6 v=103
211568 On ch=1 n=c6 v=100
211584 On ch=1 n=f6 v=0
211678 On ch=1 n=a5 v=100
211698 On ch=1 n=c6 v=0
211760 On ch=1 n=a5 v=0
211772 On ch=1 n=f5 v=90
211848 On ch=1 n=f5 v=0
211898 On ch=1 n=c5 v=98
211960 On ch=1 n=c5 v=0
211992 On ch=1 n=a4 v=91
212056 On ch=1 n=a4 v=0
212100 On ch=1 n=f4 v=88
212180 On ch=1 n=f4 v=0
212238 On ch=1 n=f3 v=114
212244 On ch=1 n=f2 v=112
212360 Par ch=1 c=64 v=63
212390 Par ch=1 c=64 v=0
212738 On ch=1 n=f3 v=0
212740 On ch=1 n=f2 v=0
213296 On ch=1 n=f5 v=109
213300 On ch=1 n=f4 v=107
213304 On ch=1 n=d5 v=103
213308 On ch=1 n=a#4 v=103
213318 On ch=1 n=a#3 v=114
213322 On ch=1 n=a#2 v=113
213580 Par ch=1 c=64 v=63
213598 Par ch=1 c=64 v=127
213732 On ch=1 n=f4 v=0
213752 On ch=1 n=a#4 v=0
213770 On ch=1 n=d5 v=0
213782 On ch=1 n=f5 v=0
213858 On ch=1 n=a#2 v=0
213912 On ch=1 n=a#3 v=0
214132 On ch=1 n=g5 v=73
214228 On ch=1 n=f5 v=79
214258 On ch=1 n=g5 v=0
214304 Par ch=1 c=64 v=63
214324 On ch=1 n=d#5 v=83
214348 Par ch=1 c=64 v=0
214360 On ch=1 n=f5 v=0
214410 On ch=1 n=d#5 v=0
214548 On ch=1 n=d5 v=93
214628 On ch=1 n=d5 v=0
214778 On ch=1 n=c5 v=102
214872 On ch=1 n=c5 v=0
214994 On ch=1 n=a#4 v=108
215084 On ch=1 n=a#4 v=0
215212 Par ch=1 c=64 v=63
215224 Par ch=1 c=64 v=127
215230 On ch=1 n=a#4 v=101
215498 On ch=1 n=g5 v=98
215556 Par ch=1 c=64 v=63
215576 Par ch=1 c=64 v=127
215750 On ch=1 n=a#4 v=0
215756 On ch=1 n=g5 v=0
215806 On ch=1 n=d#4 v=90
215814 On ch=1 n=d#3 v=86
215822 On ch=1 n=g5 v=101
215828 On ch=1 n=a#4 v=82
216000 Par ch=1 c=64 v=63
216022 Par ch=1 c=64 v=0
216132 Par ch=1 c=64 v=63
216148 Par ch=1 c=64 v=127
216320 On ch=1 n=d#3 v=0
216368 On ch=1 n=a#4 v=0
216448 On ch=1 n=g5 v=0
216572 On ch=1 n=d#4 v=0
216604 On ch=1 n=f5 v=94
216848 On ch=1 n=d4 v=75
216854 On ch=1 n=a5 v=93
216872 On ch=1 n=f5 v=0
216944 Par ch=1 c=64 v=63
216976 Par ch=1 c=64 v=0
217054 On ch=1 n=a#5 v=100
217076 On ch=1 n=a5 v=0
217132 Par ch=1 c=64 v=63
217164 Par ch=1 c=64 v=127
217228 On ch=1 n=a#5 v=0
217288 On ch=1 n=a#5 v=88
217288 On ch=1 n=g4 v=62
217296 On ch=1 n=d4 v=0
217298 On ch=1 n=e4 v=65
217356 Par ch=1 c=64 v=63
217394 Par ch=1 c=64 v=0
217518 On ch=1 n=c5 v=91
217546 On ch=1 n=a#5 v=0
217738 On ch=1 n=f4 v=84
217784 On ch=1 n=g4 v=0
217796 On ch=1 n=e4 v=0
217876 Par ch=1 c=64 v=63
217912 Par ch=1 c=64 v=127
217948 On ch=1 n=d5 v=93
217966 On ch=1 n=c5 v=0
218142 Par ch=1 c=64 v=63
218158 On ch=1 n=d5 v=0
218170 On ch=1 n=g4 v=60
218180 Par ch=1 c=64 v=0
218184 On ch=1 n=a#5 v=90
218188 On ch=1 n=e4 v=64
218240 On ch=1 n=f4 v=0
218308 Par ch=1 c=64 v=63
218350 Par ch=1 c=64 v=127
218400 On ch=1 n=c5 v=92
218416 On ch=1 n=a#5 v=0
218572 Par ch=1 c=64 v=63
218608 Par ch=1 c=64 v=0
218616 On ch=1 n=f4 v=81
218628 On ch=1 n=g4 v=0
218682 On ch=1 n=e4 v=0
218806 On ch=1 n=c5 v=0
218832 On ch=1 n=d5 v=85
219064 On ch=1 n=g4 v=63
219070 On ch=1 n=f5 v=86
219092 On ch=1 n=d5 v=0
219118 On ch=1 n=f4 v=0
219220 Par ch=1 c=64 v=63
219252 Par ch=1 c=64 v=127
219440 On ch=1 n=f5 v=0
219502 On ch=1 n=a4 v=51
219506 On ch=1 n=g4 v=0
219516 On ch=1 n=d#5 v=92
219586 On ch=1 n=d#5 v=0
219592 On ch=1 n=f5 v=66
219636 Par ch=1 c=64 v=63
219650 On ch=1 n=d#5 v=86
219658 On ch=1 n=f5 v=0
219722 Par ch=1 c=64 v=0
219748 On ch=1 n=d#5 v=0
219760 On ch=1 n=d5 v=76
219840 On ch=1 n=d#5 v=81
219864 On ch=1 n=d5 v=0
219940 On ch=1 n=a4 v=0
219944 On ch=1 n=a#4 v=51
219960 On ch=1 n=d5 v=77
219966 On ch=1 n=d#5 v=0
220064 Par ch=1 c=64 v=63
220104 On ch=1 n=d5 v=0
220116 Par ch=1 c=64 v=127
220212 On ch=1 n=d5 v=70
220294 Par ch=1 c=64 v=63
220360 Par ch=1 c=64 v=0
220396 On ch=1 n=d5 v=0
220430 On ch=1 n=d#5 v=75
220468 Par ch=1 c=64 v=63
220544 Par ch=1 c=64 v=127
220582 On ch=1 n=a#4 v=0
220586 On ch=1 n=d#5 v=0
220634 On ch=1 n=f5 v=79
220766 Par ch=1 c=64 v=63
220776 On ch=1 n=f#5 v=85
220778 On ch=1 n=f5 v=0
220838 Par ch=1 c=64 v=0
220886 On ch=1 n=g5 v=78
220928 On ch=1 n=f#5 v=0
221042 Par ch=1 c=64 v=63
221086 Par ch=1 c=64 v=127
221112 On ch=1 n=d#3 v=76
221352 On ch=1 n=g3 v=70
221374 On ch=1 n=d#3 v=0
221400 Par ch=1 c=64 v=63
221486 Par ch=1 c=64 v=0
221564 On ch=1 n=g3 v=0
221564 On ch=1 n=g5 v=0
221578 On ch=1 n=c4 v=71
221586 On ch=1 n=f5 v=75
221672 On ch=1 n=d#5 v=70
221696 On ch=1 n=f5 v=0
221806 On ch=1 n=d#5 v=0
221814 On ch=1 n=d5 v=72
221832 On ch=1 n=c4 v=0
221832 On ch=1 n=d#4 v=60
221886 Par ch=1 c=64 v=63
222064 On ch=1 n=c5 v=80
222080 On ch=1 n=d5 v=0
222280 On ch=1 n=d#4 v=0
222286 On ch=1 n=d5 v=99
222318 On ch=1 n=c5 v=0
222326 Par ch=1 c=64 v=0
222488 On ch=1 n=d#5 v=96
222560 On ch=1 n=d5 v=0
222672 On ch=1 n=d#5 v=0
222680 On ch=1 n=g5 v=72
222740 Par ch=1 c=64 v=63
222746 On ch=1 n=f5 v=88
222828 On ch=1 n=g5 v=0
222938 On ch=1 n=d3 v=79
223152 On ch=1 n=f3 v=90
223162 On ch=1 n=d3 v=0
223378 On ch=1 n=f5 v=0
223404 On ch=1 n=a#3 v=76
223404 On ch=1 n=d#5 v=80
223424 On ch=1 n=f3 v=0
223504 On ch=1 n=d5 v=76
223544 On ch=1 n=d#5 v=0
223600 On ch=1 n=d5 v=0
223606 Par ch=1 c=64 v=0
223614 On ch=1 n=a#3 v=0
223618 On ch=1 n=c5 v=65
223628 On ch=1 n=d4 v=71
223852 On ch=1 n=a#4 v=79
223868 On ch=1 n=c5 v=0
224046 On ch=1 n=d4 v=0
224080 On ch=1 n=c5 v=91
224104 On ch=1 n=a#4 v=0
224288 On ch=1 n=d5 v=96
224300 On ch=1 n=c5 v=0
224490 On ch=1 n=c4 v=80
224510 On ch=1 n=d5 v=0
224512 On ch=1 n=f5 v=79
224744 On ch=1 n=d#5 v=88
224784 On ch=1 n=c4 v=0
224794 On ch=1 n=f5 v=0
224954 On ch=1 n=a3 v=82
224984 On ch=1 n=d#5 v=0
225164 On ch=1 n=c5 v=91
225164 Par ch=1 c=64 v=63
225216 Par ch=1 c=64 v=127
225250 On ch=1 n=a3 v=0
225366 On ch=1 n=c5 v=0
225390 Par ch=1 c=64 v=63
225398 On ch=1 n=a#3 v=85
225400 On ch=1 n=d#5 v=91
225428 Par ch=1 c=64 v=0
225624 On ch=1 n=d5 v=78
225628 On ch=1 n=a#3 v=0
225680 On ch=1 n=d#5 v=0
225856 On ch=1 n=g3 v=72
226048 On ch=1 n=a#4 v=80
226064 On ch=1 n=d5 v=0
226074 On ch=1 n=g3 v=0
226160 On ch=1 n=a#4 v=0
226272 On ch=1 n=f3 v=65
226306 On ch=1 n=a4 v=71
226340 Par ch=1 c=64 v=63
226418 On ch=1 n=a#4 v=79
226420 On ch=1 n=a4 v=0
226432 Par ch=1 c=64 v=127
226482 Par ch=1 c=64 v=63
226504 On ch=1 n=a#4 v=0
226524 On ch=1 n=b4 v=78
226600 Par ch=1 c=64 v=0
226618 On ch=1 n=c5 v=96
226634 On ch=1 n=b4 v=0
226698 On ch=1 n=f3 v=0
226720 On ch=1 n=c#5 v=98
226730 On ch=1 n=c5 v=0
226812 On ch=1 n=d5 v=83
226818 On ch=1 n=c#5 v=0
226914 On ch=1 n=d#5 v=108
226938 On ch=1 n=d5 v=0
227010 On ch=1 n=e5 v=93
227034 On ch=1 n=d#5 v=0
227134 On ch=1 n=f5 v=113
227146 On ch=1 n=f4 v=100
227204 On ch=1 n=e5 v=0
227246 On ch=1 n=g4 v=91
227268 On ch=1 n=f4 v=0
227360 On ch=1 n=d#4 v=106
227376 On ch=1 n=g4 v=0
227448 On ch=1 n=d#4 v=0
227448 On ch=1 n=f5 v=0
227456 On ch=1 n=f4 v=88
227568 On ch=1 n=d4 v=93
227572 On ch=1 n=f4 v=0
227674 On ch=1 n=d4 v=0
227676 On ch=1 n=d#4 v=105
227798 On ch=1 n=c4 v=80
227802 On ch=1 n=d#4 v=0
227898 On ch=1 n=d4 v=103
227946 On ch=1 n=c4 v=0
228056 On ch=1 n=f6 v=117
228058 On ch=1 n=f5 v=109
228060 On ch=1 n=d6 v=104
228064 On ch=1 n=a#5 v=109
228070 On ch=1 n=d4 v=0
228092 On ch=1 n=a#3 v=103
228156 Par ch=1 c=64 v=63
228178 Par ch=1 c=64 v=127
228252 On ch=1 n=a#3 v=0
228408 On ch=1 n=f5 v=0
228454 On ch=1 n=a#5 v=0
228490 On ch=1 n=d6 v=0
228496 On ch=1 n=f6 v=0
228558 On ch=1 n=a#4 v=110
228626 On ch=1 n=a#4 v=0
228826 On ch=1 n=g6 v=78
228904 On ch=1 n=f6 v=87
228962 On ch=1 n=g6 v=0
229018 On ch=1 n=d#6 v=107
229044 On ch=1 n=f6 v=0
229110 On ch=1 n=d#6 v=0
229114 Par ch=1 c=64 v=63
229206 Par ch=1 c=64 v=0
229248 On ch=1 n=d6 v=108
229324 On ch=1 n=d6 v=0
229470 On ch=1 n=c6 v=103
229578 On ch=1 n=c6 v=0
229686 On ch=1 n=a#5 v=115
229744 Par ch=1 c=64 v=63
229766 Par ch=1 c=64 v=127
229780 On ch=1 n=a#5 v=0
229906 On ch=1 n=a#5 v=109
229974 Par ch=1 c=64 v=63
229998 Par ch=1 c=64 v=0
230098 Par ch=1 c=64 v=63
230118 Par ch=1 c=64 v=127
230180 On ch=1 n=g6 v=104
230376 On ch=1 n=a#5 v=0
230402 On ch=1 n=g6 v=0
230500 On ch=1 n=g6 v=103
230514 On ch=1 n=d#5 v=99
230520 On ch=1 n=a#5 v=82
230538 On ch=1 n=d#4 v=78
230672 Par ch=1 c=64 v=63
230698 Par ch=1 c=64 v=0
230758 Par ch=1 c=64 v=63
230792 Par ch=1 c=64 v=127
230940 On ch=1 n=d#4 v=0
231024 On ch=1 n=a#5 v=0
231228 On ch=1 n=g6 v=0
231254 On ch=1 n=d#5 v=0
231268 On ch=1 n=f6 v=114
231510 On ch=1 n=d5 v=86
231534 On ch=1 n=a6 v=106
231562 On ch=1 n=f6 v=0
231598 Par ch=1 c=64 v=63
231634 Par ch=1 c=64 v=0
231760 On ch=1 n=a#6 v=107
231782 On ch=1 n=a6 v=0
231894 Par ch=1 c=64 v=63
231922 Par ch=1 c=64 v=127
231986 On ch=1 n=g5 v=84
231988 On ch=1 n=e5 v=86
231992 On ch=1 n=d5 v=0
232078 Par ch=1 c=64 v=63
232140 Par ch=1 c=64 v=0
232206 On ch=1 n=c6 v=102
232212 On ch=1 n=a#6 v=0
232406 On ch=1 n=f5 v=90
232420 On ch=1 n=d6 v=93
232454 On ch=1 n=c6 v=0
232470 On ch=1 n=e5 v=0
232472 On ch=1 n=g5 v=0
232648 On ch=1 n=a#6 v=99
232700 On ch=1 n=d6 v=0
232848 On ch=1 n=g5 v=81
232852 On ch=1 n=e5 v=88
232878 On ch=1 n=f5 v=0
232922 Par ch=1 c=64 v=63
232938 Par ch=1 c=64 v=127
233080 On ch=1 n=c6 v=86
233086 On ch=1 n=a#6 v=0
233248 Par ch=1 c=64 v=63
233276 Par ch=1 c=64 v=0
233294 On ch=1 n=f5 v=85
233302 On ch=1 n=d6 v=87
233314 On ch=1 n=e5 v=0
233322 On ch=1 n=c6 v=0
233340 Par ch=1 c=64 v=63
233348 On ch=1 n=g5 v=0
233372 Par ch=1 c=64 v=127
233444 On ch=1 n=f5 v=0
233510 On ch=1 n=a#6 v=92
233520 On ch=1 n=d6 v=0
233710 On ch=1 n=a#6 v=0
233732 On ch=1 n=f6 v=90
233732 On ch=1 n=a#5 v=75
233748 On ch=1 n=g5 v=60
233802 Par ch=1 c=64 v=63
233830 Par ch=1 c=64 v=0
233936 Par ch=1 c=64 v=63
233958 Par ch=1 c=64 v=127
234212 On ch=1 n=e6 v=87
234218 On ch=1 n=c6 v=65
234222 On ch=1 n=f6 v=0
234222 On ch=1 n=a5 v=75
234236 Par ch=1 c=64 v=63
234248 On ch=1 n=g5 v=0
234258 Par ch=1 c=64 v=0
234264 On ch=1 n=a#5 v=0
234338 Par ch=1 c=64 v=63
234362 Par ch=1 c=64 v=127
234442 On ch=1 n=d#6 v=89
234474 On ch=1 n=e6 v=0
234660 Par ch=1 c=64 v=63
234676 On ch=1 n=d6 v=84
234680 On ch=1 n=a#5 v=72
234688 On ch=1 n=d#6 v=0
234688 Par ch=1 c=64 v=0
234720 On ch=1 n=c6 v=0
234746 On ch=1 n=a5 v=0
234818 On ch=1 n=d6 v=0
234904 On ch=1 n=d6 v=89
234916 Par ch=1 c=64 v=63
234932 Par ch=1 c=64 v=127
235118 On ch=1 n=a#5 v=0
235138 On ch=1 n=d#6 v=96
235158 On ch=1 n=d6 v=0
235270 On ch=1 n=d#6 v=0
235328 On ch=1 n=f6 v=97
235442 On ch=1 n=f6 v=0
235508 On ch=1 n=f#6 v=83
235578 On ch=1 n=g6 v=97
235630 On ch=1 n=f#6 v=0
235646 Par ch=1 c=64 v=63
235694 Par ch=1 c=64 v=0
235766 Par ch=1 c=64 v=63
235786 On ch=1 n=g4 v=77
235798 Par ch=1 c=64 v=127
236010 Par ch=1 c=64 v=63
236012 On ch=1 n=g5 v=87
236020 On ch=1 n=g4 v=0
236060 Par ch=1 c=64 v=0
236164 On ch=1 n=g6 v=0
236220 Par ch=1 c=64 v=63
236236 On ch=1 n=a6 v=94
236238 On ch=1 n=f5 v=90
236262 On ch=1 n=g5 v=0
236272 Par ch=1 c=64 v=127
236348 On ch=1 n=b6 v=100
236372 On ch=1 n=a6 v=0
236448 On ch=1 n=b6 v=0
236448 On ch=1 n=f5 v=0
236464 On ch=1 n=c7 v=99
236494 On ch=1 n=d#5 v=95
236540 On ch=1 n=d#5 v=0
236566 On ch=1 n=d7 v=101
236616 Par ch=1 c=64 v=63
236662 On ch=1 n=c7 v=0
236662 On ch=1 n=d#4 v=113
236678 On ch=1 n=d#7 v=106
236694 On ch=1 n=d7 v=0
236696 Par ch=1 c=64 v=0
236738 On ch=1 n=d#4 v=0
236778 Par ch=1 c=64 v=63
236790 On ch=1 n=d7 v=97
236854 On ch=1 n=d#7 v=0
236882 On ch=1 n=d#5 v=88
236890 On ch=1 n=c7 v=87
236892 On ch=1 n=d7 v=0
236976 On ch=1 n=c7 v=0
236984 On ch=1 n=d7 v=101
236994 Par ch=1 c=64 v=0
237002 On ch=1 n=d#5 v=0
237080 On ch=1 n=d7 v=0
237090 On ch=1 n=a#6 v=105
237112 On ch=1 n=d5 v=76
237188 On ch=1 n=c7 v=92
237196 On ch=1 n=a#6 v=0
237214 On ch=1 n=d5 v=0
237290 On ch=1 n=a6 v=88
237312 On ch=1 n=c7 v=0
237324 On ch=1 n=c5 v=73
237376 On ch=1 n=c5 v=0
237386 On ch=1 n=a#6 v=93
237390 On ch=1 n=a6 v=0
237498 On ch=1 n=g6 v=85
237502 On ch=1 n=a#6 v=0
237524 On ch=1 n=a#4 v=81
237584 On ch=1 n=a#4 v=0
237588 On ch=1 n=g6 v=0
237602 On ch=1 n=a6 v=91
237710 On ch=1 n=a6 v=0
237710 On ch=1 n=f6 v=84
237714 On ch=1 n=a4 v=83
237790 On ch=1 n=f6 v=0
237792 On ch=1 n=a4 v=0
237812 On ch=1 n=g6 v=92
237914 On ch=1 n=f4 v=74
237920 On ch=1 n=g6 v=0
237930 On ch=1 n=d#6 v=97
237972 On ch=1 n=f4 v=0
238016 On ch=1 n=f6 v=90
238028 On ch=1 n=d#6 v=0
238122 On ch=1 n=f6 v=0
238134 On ch=1 n=d6 v=86
238136 On ch=1 n=a#4 v=80
238234 On ch=1 n=d#6 v=91
238240 On ch=1 n=d6 v=0
238288 On ch=1 n=a#4 v=0
238316 On ch=1 n=d#6 v=0
238366 On ch=1 n=f6 v=72
238454 On ch=1 n=g6 v=85
238472 On ch=1 n=f6 v=0
238586 On ch=1 n=d4 v=97
238596 On ch=1 n=a6 v=88
238606 On ch=1 n=g6 v=0
238666 On ch=1 n=a#6 v=94
238696 On ch=1 n=a6 v=0
238706 On ch=1 n=d4 v=0
238790 On ch=1 n=a6 v=83
238792 On ch=1 n=a#6 v=0
238894 On ch=1 n=a#6 v=106
238922 On ch=1 n=a6 v=0
238988 On ch=1 n=d#4 v=115
239030 On ch=1 n=c7 v=90
239046 On ch=1 n=a#6 v=0
239134 On ch=1 n=d#4 v=0
239136 On ch=1 n=a#6 v=89
239192 On ch=1 n=c7 v=0
239246 On ch=1 n=a6 v=85
239310 On ch=1 n=a#6 v=0
239338 On ch=1 n=g6 v=93
239372 On ch=1 n=a6 v=0
239426 On ch=1 n=a6 v=86
239444 On ch=1 n=d#5 v=113
239454 On ch=1 n=g6 v=0
239550 On ch=1 n=g6 v=90
239564 On ch=1 n=d#5 v=0
239584 On ch=1 n=a6 v=0
239642 On ch=1 n=f6 v=81
239648 On ch=1 n=g6 v=0
239734 On ch=1 n=d#6 v=110
239758 On ch=1 n=f6 v=0
239850 On ch=1 n=d6 v=109
239858 On ch=1 n=f5 v=103
239882 Par ch=1 c=64 v=63
239896 Par ch=1 c=64 v=127
239908 On ch=1 n=d#6 v=0
239938 On ch=1 n=d6 v=0
239970 On ch=1 n=f5 v=0
240250 Par ch=1 c=64 v=63
240274 Par ch=1 c=64 v=0
240310 On ch=1 n=c6 v=108
240312 On ch=1 n=f4 v=101
240322 On ch=1 n=a5 v=84
240352 Par ch=1 c=64 v=63
240380 Par ch=1 c=64 v=127
240388 On ch=1 n=c6 v=0
240390 On ch=1 n=f4 v=0
240390 On ch=1 n=d6 v=92
240432 On ch=1 n=a5 v=0
240472 On ch=1 n=c6 v=96
240494 On ch=1 n=d6 v=0
240558 On ch=1 n=a#5 v=101
240574 On ch=1 n=c6 v=0
240634 On ch=1 n=c6 v=84
240634 Par ch=1 c=64 v=63
240648 On ch=1 n=a#5 v=0
240652 Par ch=1 c=64 v=0
240722 On ch=1 n=a#5 v=116
240730 On ch=1 n=a#4 v=91
240742 On ch=1 n=c6 v=0
240748 Par ch=1 c=64 v=63
240770 Par ch=1 c=64 v=127
240822 On ch=1 n=f5 v=71
240886 On ch=1 n=a#4 v=0
240892 On ch=1 n=a#5 v=0
240954 On ch=1 n=e5 v=80
240960 On ch=1 n=f5 v=0
241046 On ch=1 n=f5 v=82
241058 On ch=1 n=e5 v=0
241154 On ch=1 n=g5 v=92
241174 On ch=1 n=f5 v=0
241258 Par ch=1 c=64 v=63
241260 On ch=1 n=g5 v=0
241270 On ch=1 n=f5 v=89
241322 Par ch=1 c=64 v=0
241388 On ch=1 n=f5 v=0
241392 On ch=1 n=e5 v=84
241458 On ch=1 n=f5 v=81
241486 On ch=1 n=e5 v=0
241580 On ch=1 n=d#5 v=98
241584 On ch=1 n=f5 v=0
241670 On ch=1 n=d#5 v=0
241672 On ch=1 n=f5 v=65
241780 On ch=1 n=d5 v=84
241786 On ch=1 n=f5 v=0
241870 On ch=1 n=f5 v=68
241886 On ch=1 n=d5 v=0
242000 On ch=1 n=f5 v=0
242008 On ch=1 n=c5 v=77
242076 On ch=1 n=c5 v=0
242100 On ch=1 n=f5 v=67
242202 On ch=1 n=a#4 v=94
242212 On ch=1 n=f5 v=0
242294 On ch=1 n=a#4 v=0
242324 On ch=1 n=f5 v=56
242418 On ch=1 n=f5 v=0
242422 On ch=1 n=d#6 v=120
242428 On ch=1 n=a4 v=99
242442 Par ch=1 c=64 v=63
242458 Par ch=1 c=64 v=127
242526 On ch=1 n=f5 v=73
242542 On ch=1 n=a4 v=0
242562 Par ch=1 c=64 v=63
242626 Par ch=1 c=64 v=0
242638 On ch=1 n=f5 v=0
242664 On ch=1 n=d#6 v=0
242666 On ch=1 n=c6 v=88
242666 On ch=1 n=c5 v=54
242720 On ch=1 n=c5 v=0
242726 On ch=1 n=f5 v=57
242746 On ch=1 n=c6 v=0
242884 On ch=1 n=a5 v=77
242890 On ch=1 n=f5 v=0
242892 On ch=1 n=d#5 v=65
242964 On ch=1 n=a5 v=0
242966 On ch=1 n=d#5 v=0
243002 On ch=1 n=f5 v=57
243086 On ch=1 n=f5 v=0
243092 On ch=1 n=d#5 v=70
243094 On ch=1 n=a5 v=79
243160 On ch=1 n=d#5 v=0
243164 On ch=1 n=f5 v=71
243186 On ch=1 n=a5 v=0
243226 Par ch=1 c=64 v=63
243250 Par ch=1 c=64 v=127
243300 On ch=1 n=f5 v=0
243302 On ch=1 n=d#6 v=113
243308 On ch=1 n=a4 v=94
243408 Par ch=1 c=64 v=63
243410 On ch=1 n=a4 v=0
243414 On ch=1 n=f5 v=65
243456 Par ch=1 c=64 v=0
243502 On ch=1 n=d#6 v=0
243508 On ch=1 n=c6 v=91
243520 On ch=1 n=f5 v=0
243526 On ch=1 n=c5 v=83
243582 On ch=1 n=c5 v=0
243592 On ch=1 n=c6 v=0
243596 On ch=1 n=f5 v=63
243750 On ch=1 n=d#5 v=73
243754 On ch=1 n=a5 v=63
243756 On ch=1 n=f5 v=0
243814 On ch=1 n=a5 v=0
243832 On ch=1 n=d#5 v=0
243838 On ch=1 n=f5 v=63
243952 On ch=1 n=a5 v=79
243962 On ch=1 n=d#5 v=74
243984 On ch=1 n=f5 v=0
244026 On ch=1 n=a5 v=0
244064 On ch=1 n=d#5 v=0
244064 On ch=1 n=f5 v=56
244162 On ch=1 n=a#5 v=93
244180 On ch=1 n=d5 v=71
244194 On ch=1 n=f5 v=0
244210 On ch=1 n=a#5 v=0
244266 On ch=1 n=d5 v=0
244290 On ch=1 n=f5 v=58
244372 On ch=1 n=c6 v=101
244402 On ch=1 n=a4 v=78
244408 On ch=1 n=f5 v=0
244452 On ch=1 n=c6 v=0
244514 On ch=1 n=f5 v=71
244516 On ch=1 n=a4 v=0
244590 On ch=1 n=d6 v=103
244606 On ch=1 n=a#4 v=98
244630 On ch=1 n=f5 v=0
244656 On ch=1 n=d6 v=0
244698 On ch=1 n=f5 v=73
244720 On ch=1 n=a#4 v=0
244800 On ch=1 n=d#6 v=110
244812 On ch=1 n=c5 v=98
244832 On ch=1 n=f5 v=0
244876 On ch=1 n=d#6 v=0
244892 On ch=1 n=f5 v=84
244922 On ch=1 n=c5 v=0
245012 On ch=1 n=c#5 v=104
245028 On ch=1 n=e6 v=118
245042 Par ch=1 c=64 v=63
245044 On ch=1 n=f5 v=0
245052 Par ch=1 c=64 v=127
245120 On ch=1 n=f5 v=78
245146 On ch=1 n=c#5 v=0
245222 On ch=1 n=e6 v=0
245238 Par ch=1 c=64 v=63
245254 On ch=1 n=f6 v=102
245264 Par ch=1 c=64 v=0
245274 On ch=1 n=f5 v=0
245274 On ch=1 n=d5 v=87
245328 On ch=1 n=f5 v=93
245334 On ch=1 n=f6 v=0
245358 On ch=1 n=d5 v=0
245462 Par ch=1 c=64 v=63
245464 On ch=1 n=c#5 v=104
245470 Par ch=1 c=64 v=127
245476 On ch=1 n=e6 v=116
245478 On ch=1 n=f5 v=0
245542 On ch=1 n=f5 v=84
245578 On ch=1 n=c#5 v=0
245626 On ch=1 n=e6 v=0
245658 On ch=1 n=d5 v=88
245662 On ch=1 n=f5 v=0
245678 On ch=1 n=f6 v=79
245714 Par ch=1 c=64 v=63
245718 On ch=1 n=f6 v=0
245728 Par ch=1 c=64 v=0
245744 On ch=1 n=f5 v=91
245750 On ch=1 n=d5 v=0
245826 Par ch=1 c=64 v=63
245844 Par ch=1 c=64 v=127
245876 Par ch=1 c=64 v=63
245878 Par ch=1 c=64 v=127
245906 On ch=1 n=d#6 v=118
245910 On ch=1 n=f5 v=0
245912 On ch=1 n=d#7 v=112
245916 On ch=1 n=a4 v=101
245964 On ch=1 n=d#7 v=0
245968 On ch=1 n=d#6 v=0
246026 On ch=1 n=a4 v=0
246042 On ch=1 n=f5 v=76
246154 On ch=1 n=f5 v=0
246154 Par ch=1 c=64 v=63
246158 On ch=1 n=c7 v=91
246160 On ch=1 n=c5 v=93
246160 On ch=1 n=c6 v=90
246164 Par ch=1 c=64 v=0
246194 On ch=1 n=c7 v=0
246218 On ch=1 n=c6 v=0
246252 On ch=1 n=c5 v=0
246256 On ch=1 n=f5 v=61
246372 On ch=1 n=a5 v=108
246374 On ch=1 n=a6 v=97
246392 On ch=1 n=d#5 v=80
246398 On ch=1 n=f5 v=0
246410 On ch=1 n=a5 v=0
246418 On ch=1 n=a6 v=0
246482 On ch=1 n=f5 v=59
246488 On ch=1 n=d#5 v=0
246580 On ch=1 n=d#5 v=76
246582 On ch=1 n=a6 v=109
246586 On ch=1 n=f5 v=0
246588 On ch=1 n=a5 v=80
246632 On ch=1 n=a5 v=0
246634 On ch=1 n=a6 v=0
246672 On ch=1 n=f5 v=69
246674 On ch=1 n=d#5 v=0
246772 Par ch=1 c=64 v=63
246776 Par ch=1 c=64 v=127
246792 On ch=1 n=f5 v=0
246806 On ch=1 n=a4 v=99
246812 On ch=1 n=d#7 v=114
246812 On ch=1 n=d#6 v=113
246860 On ch=1 n=d#6 v=0
246878 On ch=1 n=d#7 v=0
246924 On ch=1 n=a4 v=0
246954 On ch=1 n=f5 v=45
247036 On ch=1 n=c7 v=106
247038 Par ch=1 c=64 v=63
247040 On ch=1 n=c6 v=100
247044 On ch=1 n=c5 v=80
247052 On ch=1 n=f5 v=0
247054 Par ch=1 c=64 v=0
247072 On ch=1 n=c6 v=0
247084 On ch=1 n=c7 v=0
247126 On ch=1 n=c5 v=0
247130 On ch=1 n=f5 v=65
247268 On ch=1 n=d#5 v=81
247272 On ch=1 n=f5 v=0
247272 On ch=1 n=a5 v=98
247274 On ch=1 n=a6 v=109
247308 On ch=1 n=a6 v=0
247308 On ch=1 n=a5 v=0
247362 On ch=1 n=f5 v=63
247366 On ch=1 n=d#5 v=0
247470 On ch=1 n=a6 v=111
247472 On ch=1 n=a5 v=99
247488 On ch=1 n=d#5 v=72
247498 On ch=1 n=f5 v=0
247530 On ch=1 n=a5 v=0
247530 On ch=1 n=a6 v=0
247572 On ch=1 n=f5 v=63
247584 On ch=1 n=d#5 v=0
247702 On ch=1 n=d5 v=81
247706 On ch=1 n=a#5 v=101
247706 On ch=1 n=a#6 v=107
247710 On ch=1 n=f5 v=0
247748 On ch=1 n=a#5 v=0
247774 On ch=1 n=a#6 v=0
247796 On ch=1 n=d5 v=0
247802 On ch=1 n=f5 v=66
247936 On ch=1 n=c7 v=109
247936 On ch=1 n=c6 v=102
247940 On ch=1 n=f5 v=0
247948 On ch=1 n=a4 v=77
247968 On ch=1 n=c6 v=0
247980 On ch=1 n=c7 v=0
248062 On ch=1 n=f5 v=63
248066 On ch=1 n=a4 v=0
248160 On ch=1 n=d6 v=107
248160 On ch=1 n=d7 v=113
248170 On ch=1 n=a#4 v=88
248190 On ch=1 n=d6 v=0
248200 On ch=1 n=f5 v=0
248202 On ch=1 n=d7 v=0
248270 On ch=1 n=f5 v=71
248294 On ch=1 n=a#4 v=0
248382 On ch=1 n=c5 v=93
248386 On ch=1 n=d#6 v=116
248390 On ch=1 n=d#7 v=110
248434 On ch=1 n=d#7 v=0
248434 On ch=1 n=f5 v=0
248440 On ch=1 n=d#6 v=0
248486 On ch=1 n=f5 v=91
248534 On ch=1 n=c5 v=0
248598 On ch=1 n=c#5 v=87
248626 On ch=1 n=e6 v=111
248626 On ch=1 n=e7 v=113
248640 On ch=1 n=f5 v=0
248642 Par ch=1 c=64 v=63
248646 Par ch=1 c=64 v=127
248688 On ch=1 n=e6 v=0
248700 On ch=1 n=e7 v=0
248762 On ch=1 n=f5 v=88
248812 On ch=1 n=c#5 v=0
248858 On ch=1 n=f6 v=79
248860 On ch=1 n=f7 v=98
248888 On ch=1 n=f7 v=0
248900 On ch=1 n=d5 v=81
248902 On ch=1 n=f6 v=0
248912 On ch=1 n=f5 v=0
248960 Par ch=1 c=64 v=63
248966 On ch=1 n=f5 v=90
248976 On ch=1 n=d5 v=0
249058 Par ch=1 c=64 v=127
249070 On ch=1 n=c#5 v=112
249080 On ch=1 n=e6 v=101
249082 On ch=1 n=e7 v=111
249094 On ch=1 n=f5 v=0
249128 On ch=1 n=e6 v=0
249140 On ch=1 n=e7 v=0
249158 On ch=1 n=f5 v=82
249216 On ch=1 n=c#5 v=0
249316 On ch=1 n=d5 v=85
249320 On ch=1 n=f7 v=99
249322 On ch=1 n=f5 v=0
249324 On ch=1 n=f6 v=82
249352 On ch=1 n=f7 v=0
249382 On ch=1 n=f6 v=0
249412 On ch=1 n=f5 v=80
249414 On ch=1 n=d5 v=0
249526 Par ch=1 c=64 v=63
249560 On ch=1 n=f5 v=0
249568 Par ch=1 c=64 v=0
249608 Par ch=1 c=64 v=63
249666 Par ch=1 c=64 v=127
249680 On ch=1 n=g6 v=91
249690 On ch=1 n=g5 v=50
249960 On ch=1 n=g5 v=0
249978 On ch=1 n=g6 v=0
250000 On ch=1 n=d#4 v=69
250212 On ch=1 n=d#4 v=0
250222 On ch=1 n=d4 v=55
250452 On ch=1 n=d#4 v=70
250494 On ch=1 n=d4 v=0
250584 On ch=1 n=d#4 v=0
250682 On ch=1 n=a5 v=77
250688 On ch=1 n=a4 v=52
250756 Par ch=1 c=64 v=63
250882 Par ch=1 c=64 v=127
250946 On ch=1 n=f4 v=62
251078 On ch=1 n=a4 v=0
251170 On ch=1 n=e4 v=78
251194 On ch=1 n=a5 v=0
251240 On ch=1 n=f4 v=0
251396 On ch=1 n=f4 v=91
251466 On ch=1 n=e4 v=0
251628 On ch=1 n=d#7 v=103
251630 On ch=1 n=f4 v=0
251642 On ch=1 n=d#6 v=89
251804 Par ch=1 c=64 v=63
251882 On ch=1 n=f#4 v=76
251912 Par ch=1 c=64 v=127
252124 On ch=1 n=e4 v=63
252180 On ch=1 n=f#4 v=0
252232 On ch=1 n=d#7 v=0
252236 On ch=1 n=d#6 v=0
252338 On ch=1 n=f#4 v=66
252448 On ch=1 n=e4 v=0
252542 On ch=1 n=f#4 v=0
252580 On ch=1 n=d7 v=76
252584 On ch=1 n=d6 v=55
252758 Par ch=1 c=64 v=63
252810 On ch=1 n=g4 v=55
252822 Par ch=1 c=64 v=0
252878 Par ch=1 c=64 v=63
252920 Par ch=1 c=64 v=127
253044 On ch=1 n=f#4 v=61
253082 On ch=1 n=g4 v=0
253180 On ch=1 n=d6 v=0
253238 On ch=1 n=d7 v=0
253276 Par ch=1 c=64 v=63
253282 On ch=1 n=g4 v=53
253322 On ch=1 n=f#4 v=0
253350 Par ch=1 c=64 v=127
253458 On ch=1 n=g4 v=0
253554 On ch=1 n=d7 v=80
253564 Par ch=1 c=64 v=63
253658 On ch=1 n=c7 v=74
253660 On ch=1 n=d7 v=0
253662 Par ch=1 c=64 v=0
253762 On ch=1 n=d#7 v=90
253768 On ch=1 n=c7 v=0
253868 On ch=1 n=d7 v=96
253908 On ch=1 n=d#7 v=0
253920 Par ch=1 c=64 v=63
253948 Par ch=1 c=64 v=127
253968 On ch=1 n=f7 v=94
253982 On ch=1 n=c6 v=84
253990 On ch=1 n=d#5 v=84
254004 On ch=1 n=d7 v=0
254090 On ch=1 n=d#7 v=105
254136 On ch=1 n=f7 v=0
254184 On ch=1 n=d7 v=101
254216 On ch=1 n=d#5 v=0
254232 On ch=1 n=c6 v=0
254248 On ch=1 n=d#7 v=0
254274 On ch=1 n=c7 v=86
254284 On ch=1 n=d7 v=0
254392 On ch=1 n=c7 v=0
254402 On ch=1 n=a#6 v=108
254402 On ch=1 n=d6 v=84
254408 On ch=1 n=f5 v=84
254462 Par ch=1 c=64 v=63
254498 Par ch=1 c=64 v=0
254554 Par ch=1 c=64 v=63
254582 Par ch=1 c=64 v=127
254674 On ch=1 n=d6 v=0
254896 On ch=1 n=d#6 v=81
254904 On ch=1 n=a6 v=88
254950 On ch=1 n=a#6 v=0
254980 Par ch=1 c=64 v=63
255046 Par ch=1 c=64 v=127
255244 On ch=1 n=f5 v=0
255256 On ch=1 n=d#6 v=0
255276 On ch=1 n=a6 v=0
255394 On ch=1 n=a#5 v=60
255400 On ch=1 n=d6 v=55
255598 Par ch=1 c=64 v=63
255642 On ch=1 n=a#6 v=85
255646 Par ch=1 c=64 v=0
255758 Par ch=1 c=64 v=63
255792 Par ch=1 c=64 v=127
255880 On ch=1 n=a6 v=85
255956 On ch=1 n=a#6 v=0
256074 On ch=1 n=a#5 v=0
256094 On ch=1 n=d6 v=0
256110 On ch=1 n=a#6 v=100
256214 On ch=1 n=a6 v=0
256344 On ch=1 n=a#5 v=81
256346 On ch=1 n=d6 v=80
256382 Par ch=1 c=64 v=63
256488 On ch=1 n=a#6 v=0
256528 Par ch=1 c=64 v=127
256566 On ch=1 n=g#6 v=97
256788 On ch=1 n=g6 v=89
256806 On ch=1 n=a#5 v=0
256818 On ch=1 n=d6 v=0
256880 On ch=1 n=g#6 v=0
257036 On ch=1 n=g#6 v=104
257130 On ch=1 n=g6 v=0
257298 On ch=1 n=d6 v=71
257306 On ch=1 n=f6 v=85
257308 On ch=1 n=g#6 v=0
257338 On ch=1 n=b5 v=57
257446 Par ch=1 c=64 v=63
257484 Par ch=1 c=64 v=0
257576 Par ch=1 c=64 v=63
257600 Par ch=1 c=64 v=127
257602 On ch=1 n=g6 v=79
257864 On ch=1 n=f#6 v=83
257906 On ch=1 n=g6 v=0
258064 On ch=1 n=d6 v=0
258088 On ch=1 n=g6 v=76
258106 On ch=1 n=b5 v=0
258122 On ch=1 n=f#6 v=0
258182 On ch=1 n=f6 v=0
258220 On ch=1 n=g6 v=0
258298 On ch=1 n=d#6 v=73
258308 On ch=1 n=c6 v=72
258442 Par ch=1 c=64 v=63
258488 Par ch=1 c=64 v=0
258504 On ch=1 n=g6 v=83
258564 Par ch=1 c=64 v=63
258596 Par ch=1 c=64 v=127
258648 On ch=1 n=g6 v=0
258698 On ch=1 n=d#6 v=0
258728 On ch=1 n=c6 v=0
258732 On ch=1 n=d#7 v=94
258820 On ch=1 n=d#7 v=0
258952 On ch=1 n=d#7 v=100
259016 On ch=1 n=d#7 v=0
259198 On ch=1 n=d#6 v=98
259208 On ch=1 n=c6 v=79
259210 On ch=1 n=a5 v=72
259318 Par ch=1 c=64 v=63
259352 Par ch=1 c=64 v=0
259422 On ch=1 n=d#7 v=106
259496 Par ch=1 c=64 v=63
259514 Par ch=1 c=64 v=127
259654 On ch=1 n=f6 v=78
259656 On ch=1 n=d#7 v=0
259772 On ch=1 n=f6 v=0
259890 On ch=1 n=f6 v=81
259934 On ch=1 n=a5 v=0
259936 On ch=1 n=d#6 v=0
259972 On ch=1 n=f6 v=0
260020 On ch=1 n=c6 v=0
260110 On ch=1 n=a#5 v=72
260112 On ch=1 n=d6 v=63
260248 Par ch=1 c=64 v=63
260298 Par ch=1 c=64 v=0
260304 On ch=1 n=f6 v=77
260466 Par ch=1 c=64 v=63
260484 Par ch=1 c=64 v=127
260546 On ch=1 n=d7 v=83
260548 On ch=1 n=f6 v=0
260580 On ch=1 n=a#5 v=0
260594 On ch=1 n=d7 v=0
260630 On ch=1 n=d6 v=0
260770 On ch=1 n=d7 v=76
260778 Par ch=1 c=64 v=63
260846 Par ch=1 c=64 v=0
260848 On ch=1 n=d7 v=0
260996 On ch=1 n=a#5 v=84
260998 On ch=1 n=d6 v=79
261006 On ch=1 n=g5 v=78
261150 Par ch=1 c=64 v=63
261156 Par ch=1 c=64 v=127
261218 On ch=1 n=d7 v=94
261414 On ch=1 n=d7 v=0
261446 On ch=1 n=d#6 v=80
261500 Par ch=1 c=64 v=63
261518 Par ch=1 c=64 v=0
261520 On ch=1 n=d#6 v=0
261684 On ch=1 n=d#6 v=84
261738 On ch=1 n=d#6 v=0
261782 On ch=1 n=d6 v=0
261808 Par ch=1 c=64 v=63
261816 Par ch=1 c=64 v=127
261896 On ch=1 n=c6 v=70
261908 On ch=1 n=a5 v=74
261920 On ch=1 n=g5 v=0
261950 On ch=1 n=a#5 v=0
261984 Par ch=1 c=64 v=63
262000 Par ch=1 c=64 v=0
262102 On ch=1 n=d#6 v=86
262316 Par ch=1 c=64 v=63
262330 On ch=1 n=d#6 v=0
262332 On ch=1 n=c7 v=86
262354 Par ch=1 c=64 v=0
262376 On ch=1 n=c6 v=0
262392 On ch=1 n=a5 v=0
262418 On ch=1 n=c7 v=0
262544 On ch=1 n=c7 v=99
262626 On ch=1 n=c7 v=0
262772 On ch=1 n=c6 v=92
262774 On ch=1 n=f#5 v=89
262780 On ch=1 n=a5 v=81
262834 Par ch=1 c=64 v=63
262850 Par ch=1 c=64 v=127
262994 On ch=1 n=c7 v=94
263220 On ch=1 n=d6 v=84
263236 On ch=1 n=c7 v=0
263300 On ch=1 n=c6 v=0
263340 On ch=1 n=d6 v=0
263410 On ch=1 n=a5 v=0
263410 On ch=1 n=f#5 v=0
263460 On ch=1 n=d6 v=65
263544 On ch=1 n=d6 v=0
263692 On ch=1 n=a#5 v=54
263698 On ch=1 n=g5 v=63
263834 Par ch=1 c=64 v=63
263876 Par ch=1 c=64 v=0
263906 On ch=1 n=d6 v=73
263982 Par ch=1 c=64 v=63
264016 Par ch=1 c=64 v=127
264164 On ch=1 n=d6 v=0
264168 On ch=1 n=a#6 v=80
264232 On ch=1 n=a#6 v=0
264248 On ch=1 n=a#5 v=0
264294 On ch=1 n=g5 v=0
264410 On ch=1 n=a#6 v=85
264482 On ch=1 n=a#6 v=0
264532 Par ch=1 c=64 v=63
264580 Par ch=1 c=64 v=0
264716 On ch=1 n=a#6 v=70
264764 Par ch=1 c=64 v=63
264812 Par ch=1 c=64 v=127
264982 On ch=1 n=a#5 v=59
264988 On ch=1 n=c6 v=66
265004 On ch=1 n=e5 v=49
265008 Par ch=1 c=64 v=63
265018 On ch=1 n=a#6 v=0
265068 On ch=1 n=a#5 v=0
265078 On ch=1 n=e5 v=0
265086 On ch=1 n=c6 v=0
265238 On ch=1 n=a#5 v=46
265242 On ch=1 n=e5 v=44
265288 Par ch=1 c=64 v=0
265296 On ch=1 n=a#5 v=0
265308 On ch=1 n=e5 v=0
265470 On ch=1 n=e5 v=51
265472 On ch=1 n=a#5 v=52
265526 On ch=1 n=a#5 v=0
265536 On ch=1 n=e5 v=0
265598 Par ch=1 c=64 v=63
265672 On ch=1 n=a#6 v=91
265848 Par ch=1 c=64 v=0
265898 On ch=1 n=f5 v=68
265900 On ch=1 n=a#5 v=59
265900 On ch=1 n=d6 v=78
265906 On ch=1 n=a#6 v=0
265968 On ch=1 n=a#5 v=0
265988 On ch=1 n=f5 v=0
266026 On ch=1 n=d6 v=0
266116 On ch=1 n=a#5 v=63
266124 On ch=1 n=f5 v=67
266180 On ch=1 n=a#5 v=0
266200 On ch=1 n=f5 v=0
266340 On ch=1 n=f5 v=91
266348 On ch=1 n=a#5 v=75
266398 On ch=1 n=a#5 v=0
266414 On ch=1 n=f5 v=0
266534 Par ch=1 c=64 v=63
266556 On ch=1 n=a#6 v=103
266588 Par ch=1 c=64 v=0
266770 On ch=1 n=a#5 v=76
266776 On ch=1 n=d#6 v=89
266780 On ch=1 n=g5 v=72
266808 On ch=1 n=a#6 v=0
266846 On ch=1 n=a#5 v=0
266860 On ch=1 n=g5 v=0
266972 On ch=1 n=d#6 v=0
267006 On ch=1 n=a#5 v=82
267016 On ch=1 n=g5 v=74
267066 On ch=1 n=a#5 v=0
267068 On ch=1 n=g5 v=0
267220 On ch=1 n=a#5 v=101
267226 On ch=1 n=g5 v=93
267262 On ch=1 n=g5 v=0
267272 On ch=1 n=a#5 v=0
267442 On ch=1 n=a#6 v=107
267646 On ch=1 n=e6 v=97
267660 On ch=1 n=a#5 v=98
267662 On ch=1 n=f#5 v=108
267666 On ch=1 n=a#6 v=0
267710 On ch=1 n=a#5 v=0
267718 On ch=1 n=f#5 v=0
267882 On ch=1 n=e6 v=0
267906 On ch=1 n=a#5 v=84
267906 On ch=1 n=f#5 v=95
267940 On ch=1 n=a#5 v=0
267942 On ch=1 n=f#5 v=0
268110 On ch=1 n=a#5 v=101
268110 On ch=1 n=f#5 v=100
268162 On ch=1 n=f#5 v=0
268186 On ch=1 n=a#5 v=0
268320 Par ch=1 c=64 v=63
268332 On ch=1 n=f5 v=103
268332 On ch=1 n=a#6 v=110
268334 On ch=1 n=a#5 v=98
268350 Par ch=1 c=64 v=127
268420 On ch=1 n=a#5 v=0
268452 On ch=1 n=f5 v=0
268526 Par ch=1 c=64 v=63
268540 On ch=1 n=f6 v=96
268544 On ch=1 n=a#6 v=0
268558 Par ch=1 c=64 v=0
268630 On ch=1 n=f6 v=0
268760 On ch=1 n=a#6 v=114
268762 On ch=1 n=d5 v=106
268764 Par ch=1 c=64 v=63
268766 On ch=1 n=a#5 v=103
268786 Par ch=1 c=64 v=127
268822 On ch=1 n=d5 v=0
268826 On ch=1 n=a#5 v=0
268908 On ch=1 n=a#6 v=0
268954 On ch=1 n=f#6 v=103
269038 On ch=1 n=f#6 v=0
269042 Par ch=1 c=64 v=63
269074 Par ch=1 c=64 v=0
269184 On ch=1 n=a#6 v=118
269190 On ch=1 n=a#5 v=107
269194 Par ch=1 c=64 v=63
269198 On ch=1 n=d#5 v=104
269218 Par ch=1 c=64 v=127
269264 On ch=1 n=a#5 v=0
269280 On ch=1 n=d#5 v=0
269344 On ch=1 n=a#6 v=0
269380 On ch=1 n=g6 v=90
269430 Par ch=1 c=64 v=63
269450 Par ch=1 c=64 v=0
269460 On ch=1 n=g6 v=0
269598 On ch=1 n=f5 v=111
269600 On ch=1 n=d#7 v=125
269602 On ch=1 n=c5 v=107
269608 Par ch=1 c=64 v=63
269618 Par ch=1 c=64 v=127
269656 On ch=1 n=f5 v=0
269662 On ch=1 n=c5 v=0
269758 Par ch=1 c=64 v=63
269768 Par ch=1 c=64 v=0
269778 On ch=1 n=d#7 v=0
269796 On ch=1 n=a6 v=81
269900 On ch=1 n=a6 v=0
270014 Par ch=1 c=64 v=63
270022 Par ch=1 c=64 v=127
270034 On ch=1 n=a#4 v=110
270036 On ch=1 n=d#7 v=115
270040 On ch=1 n=f5 v=91
270080 On ch=1 n=f5 v=0
270094 On ch=1 n=d7 v=94
270102 On ch=1 n=a#4 v=0
270130 On ch=1 n=d#7 v=0
270156 On ch=1 n=c7 v=92
270174 On ch=1 n=d7 v=0
270222 On ch=1 n=d7 v=91
270248 On ch=1 n=c7 v=0
270284 On ch=1 n=f7 v=101
270310 On ch=1 n=d7 v=0
270310 Par ch=1 c=64 v=63
270328 Par ch=1 c=64 v=0
270368 On ch=1 n=f7 v=0
270460 Par ch=1 c=64 v=63
270474 On ch=1 n=c7 v=111
270474 On ch=1 n=f4 v=113
270476 Par ch=1 c=64 v=127
270478 On ch=1 n=d4 v=106
270508 On ch=1 n=f4 v=0
270510 On ch=1 n=d4 v=0
270528 On ch=1 n=a#6 v=93
270558 On ch=1 n=c7 v=0
270592 On ch=1 n=a6 v=74
270594 On ch=1 n=a#6 v=0
270642 On ch=1 n=a#6 v=96
270680 On ch=1 n=a6 v=0
270692 Par ch=1 c=64 v=63
270710 On ch=1 n=d7 v=81
270716 Par ch=1 c=64 v=0
270734 On ch=1 n=a#6 v=0
270784 On ch=1 n=d7 v=0
270866 Par ch=1 c=64 v=63
270890 Par ch=1 c=64 v=127
270900 On ch=1 n=a6 v=106
270918 On ch=1 n=a#4 v=103
270920 On ch=1 n=d#4 v=98
270950 On ch=1 n=d#4 v=0
270956 On ch=1 n=g6 v=86
270958 On ch=1 n=a#4 v=0
270980 On ch=1 n=a6 v=0
271006 On ch=1 n=g6 v=0
271030 On ch=1 n=f#6 v=88
271106 On ch=1 n=g6 v=63
271108 On ch=1 n=f#6 v=0
271168 On ch=1 n=a#6 v=104
271192 On ch=1 n=g6 v=0
271204 Par ch=1 c=64 v=63
271222 Par ch=1 c=64 v=0
271242 On ch=1 n=a#6 v=0
271344 On ch=1 n=g4 v=106
271346 On ch=1 n=d#4 v=112
271350 Par ch=1 c=64 v=63
271358 On ch=1 n=d6 v=104
271366 Par ch=1 c=64 v=127
271374 On ch=1 n=g4 v=0
271384 On ch=1 n=d#4 v=0
271422 On ch=1 n=c6 v=61
271436 On ch=1 n=d6 v=0
271468 On ch=1 n=b5 v=93
271470 On ch=1 n=c6 v=0
271526 On ch=1 n=c6 v=82
271542 On ch=1 n=b5 v=0
271604 On ch=1 n=d#6 v=114
271622 On ch=1 n=c6 v=0
271670 On ch=1 n=d#6 v=0
271686 Par ch=1 c=64 v=63
271702 Par ch=1 c=64 v=0
271818 Par ch=1 c=64 v=63
271828 On ch=1 n=f5 v=88
271834 Par ch=1 c=64 v=127
271894 On ch=1 n=f5 v=0
271938 On ch=1 n=f6 v=93
272030 On ch=1 n=f6 v=0
272054 On ch=1 n=g6 v=92
272150 On ch=1 n=f6 v=88
272196 On ch=1 n=g6 v=0
272248 On ch=1 n=d#6 v=90
272278 On ch=1 n=f6 v=0
272280 On ch=1 n=a#4 v=88
272286 On ch=1 n=d4 v=82
272338 Par ch=1 c=64 v=63
272356 On ch=1 n=d#6 v=0
272366 Par ch=1 c=64 v=0
272372 On ch=1 n=d6 v=88
272434 On ch=1 n=c6 v=77
272446 On ch=1 n=d6 v=0
272450 Par ch=1 c=64 v=63
272476 Par ch=1 c=64 v=127
272492 On ch=1 n=d4 v=0
272540 On ch=1 n=c6 v=0
272554 On ch=1 n=a#5 v=85
272624 On ch=1 n=a#5 v=0
272624 Par ch=1 c=64 v=63
272646 Par ch=1 c=64 v=0
272672 On ch=1 n=d#4 v=95
272688 On ch=1 n=c6 v=96
272712 Par ch=1 c=64 v=63
272740 Par ch=1 c=64 v=127
272784 On ch=1 n=c6 v=0
272838 On ch=1 n=d6 v=88
272882 On ch=1 n=d6 v=0
272912 On ch=1 n=c6 v=83
272926 On ch=1 n=d#4 v=0
272964 On ch=1 n=c6 v=0
272972 On ch=1 n=a#4 v=0
272978 On ch=1 n=d6 v=84
273016 On ch=1 n=d6 v=0
273044 On ch=1 n=c6 v=90
273094 On ch=1 n=a4 v=81
273098 On ch=1 n=f4 v=87
273098 On ch=1 n=d6 v=82
273108 On ch=1 n=c6 v=0
273140 On ch=1 n=d6 v=0
273164 On ch=1 n=c6 v=97
273174 On ch=1 n=a4 v=0
273188 On ch=1 n=f4 v=0
273220 On ch=1 n=d6 v=90
273240 On ch=1 n=c6 v=0
273274 On ch=1 n=d6 v=0
273304 On ch=1 n=c6 v=78
273336 On ch=1 n=a#5 v=101
273348 On ch=1 n=c6 v=0
273388 On ch=1 n=a#5 v=0
273440 On ch=1 n=c6 v=82
273472 Par ch=1 c=64 v=63
273492 Par ch=1 c=64 v=0
273534 On ch=1 n=a#5 v=110
273564 On ch=1 n=c6 v=0
273586 On ch=1 n=a#4 v=100
273590 On ch=1 n=a#3 v=99
273596 Par ch=1 c=64 v=63
273600 On ch=1 n=a#5 v=0
273616 Par ch=1 c=64 v=127
273644 On ch=1 n=a#4 v=0
273770 Par ch=1 c=64 v=63
273814 Par ch=1 c=64 v=0
273846 On ch=1 n=a#4 v=79
273924 On ch=1 n=a#4 v=0
273934 On ch=1 n=d5 v=73
273972 Par ch=1 c=64 v=63
274026 On ch=1 n=a4 v=63
274030 On ch=1 n=d5 v=0
274036 Par ch=1 c=64 v=127
274054 On ch=1 n=c5 v=69
274116 On ch=1 n=a4 v=0
274146 On ch=1 n=c5 v=0
274146 On ch=1 n=d#5 v=79
274234 On ch=1 n=d5 v=78
274252 On ch=1 n=d#5 v=0
274252 Par ch=1 c=64 v=63
274276 Par ch=1 c=64 v=0
274298 On ch=1 n=g#4 v=58
274330 On ch=1 n=f5 v=76
274360 On ch=1 n=d5 v=0
274368 On ch=1 n=a#3 v=0
274372 On ch=1 n=g#4 v=0
274406 Par ch=1 c=64 v=63
274430 Par ch=1 c=64 v=127
274452 On ch=1 n=d#5 v=89
274476 On ch=1 n=f5 v=0
274484 On ch=1 n=g4 v=51
274490 On ch=1 n=a#3 v=58
274526 On ch=1 n=d#5 v=0
274668 On ch=1 n=g4 v=0
274692 On ch=1 n=a#4 v=74
274700 Par ch=1 c=64 v=63
274744 Par ch=1 c=64 v=0
274774 On ch=1 n=d5 v=77
274792 On ch=1 n=a#4 v=0
274866 On ch=1 n=d5 v=0
274878 On ch=1 n=a4 v=61
274890 On ch=1 n=c5 v=77
274910 Par ch=1 c=64 v=63
274932 Par ch=1 c=64 v=127
274988 On ch=1 n=a4 v=0
274996 On ch=1 n=d#5 v=83
275002 On ch=1 n=c5 v=0
275102 On ch=1 n=d5 v=64
275110 On ch=1 n=d#5 v=0
275122 Par ch=1 c=64 v=63
275132 On ch=1 n=g#4 v=40
275148 Par ch=1 c=64 v=0
275188 On ch=1 n=f5 v=58
275194 On ch=1 n=a#3 v=0
275202 On ch=1 n=d5 v=0
275232 On ch=1 n=g#4 v=0
275288 Par ch=1 c=64 v=63
275302 On ch=1 n=d#5 v=79
275312 Par ch=1 c=64 v=127
275330 On ch=1 n=g4 v=51
275332 On ch=1 n=f5 v=0
275340 On ch=1 n=a#3 v=51
275374 On ch=1 n=d#5 v=0
275434 Par ch=1 c=64 v=63
275462 Par ch=1 c=64 v=0
275556 On ch=1 n=a#4 v=64
275558 On ch=1 n=g4 v=0
275596 On ch=1 n=a#3 v=0
275634 On ch=1 n=a#4 v=0
275640 On ch=1 n=d5 v=64
275696 On ch=1 n=d5 v=0
275714 On ch=1 n=a4 v=57
275764 On ch=1 n=c5 v=66
275830 On ch=1 n=c5 v=0
275848 On ch=1 n=d#5 v=69
275906 On ch=1 n=a4 v=0
275944 On ch=1 n=d#5 v=0
275952 On ch=1 n=g#4 v=65
275968 On ch=1 n=d5 v=66
276038 On ch=1 n=f5 v=88
276052 On ch=1 n=d5 v=0
276062 On ch=1 n=g#4 v=0
276148 On ch=1 n=d#5 v=87
276152 On ch=1 n=f5 v=0
276164 On ch=1 n=g4 v=70
276194 Par ch=1 c=64 v=63
276218 Par ch=1 c=64 v=127
276244 On ch=1 n=d#5 v=0
276262 On ch=1 n=g5 v=73
276324 On ch=1 n=g4 v=0
276338 On ch=1 n=g5 v=0
276346 Par ch=1 c=64 v=63
276368 On ch=1 n=d4 v=87
276370 On ch=1 n=f5 v=83
276424 Par ch=1 c=64 v=127
276448 On ch=1 n=d4 v=0
276466 On ch=1 n=g#5 v=95
276478 On ch=1 n=f5 v=0
276484 Par ch=1 c=64 v=63
276566 On ch=1 n=g#5 v=0
276580 On ch=1 n=d#4 v=84
276584 Par ch=1 c=64 v=127
276592 On ch=1 n=g5 v=76
276616 On ch=1 n=d#4 v=0
276624 Par ch=1 c=64 v=63
276648 Par ch=1 c=64 v=0
276662 On ch=1 n=a#5 v=97
276680 On ch=1 n=g5 v=0
276758 Par ch=1 c=64 v=63
276766 On ch=1 n=a5 v=89
276774 On ch=1 n=c4 v=93
276778 On ch=1 n=a#5 v=0
276804 Par ch=1 c=64 v=0
276854 On ch=1 n=a5 v=0
276874 On ch=1 n=c4 v=0
276878 On ch=1 n=c6 v=88
276984 On ch=1 n=a#5 v=110
276990 On ch=1 n=c6 v=0
276990 Par ch=1 c=64 v=63
276994 On ch=1 n=d4 v=94
276996 Par ch=1 c=64 v=127
277070 On ch=1 n=a#5 v=0
277106 On ch=1 n=c6 v=93
277198 On ch=1 n=d6 v=90
277208 On ch=1 n=c6 v=0
277208 Par ch=1 c=64 v=63
277222 Par ch=1 c=64 v=0
277290 Par ch=1 c=64 v=63
277306 On ch=1 n=c6 v=84
277314 Par ch=1 c=64 v=127
277334 On ch=1 n=d6 v=0
277372 On ch=1 n=d4 v=0
277410 On ch=1 n=a#5 v=104
277432 On ch=1 n=c6 v=0
277506 On ch=1 n=a#5 v=0
277534 On ch=1 n=g#5 v=100
277620 On ch=1 n=g#5 v=0
277642 On ch=1 n=g5 v=82
277730 Par ch=1 c=64 v=63
277746 On ch=1 n=g5 v=0
277746 On ch=1 n=f#5 v=105
277826 On ch=1 n=f#5 v=0
277838 On ch=1 n=g5 v=91
277852 On ch=1 n=d#4 v=94
277868 Par ch=1 c=64 v=127
277938 On ch=1 n=g5 v=0
277954 On ch=1 n=c6 v=100
278048 On ch=1 n=c6 v=0
278060 On ch=1 n=d#6 v=106
278120 On ch=1 n=d#4 v=0
278160 On ch=1 n=d6 v=94
278190 On ch=1 n=d#6 v=0
278284 On ch=1 n=c6 v=96
278302 On ch=1 n=d6 v=0
278378 On ch=1 n=a#5 v=105
278404 On ch=1 n=c6 v=0
278478 On ch=1 n=a#5 v=0
278492 On ch=1 n=a5 v=81
278534 Par ch=1 c=64 v=63
278578 On ch=1 n=a5 v=0
278592 On ch=1 n=g5 v=91
278664 Par ch=1 c=64 v=127
278672 On ch=1 n=g5 v=0
278690 On ch=1 n=f4 v=98
278698 On ch=1 n=f5 v=91
278792 On ch=1 n=f5 v=0
278798 On ch=1 n=a#5 v=109
278882 On ch=1 n=a#5 v=0
278896 On ch=1 n=a#4 v=87
278896 On ch=1 n=d6 v=101
278938 On ch=1 n=d6 v=0
278998 On ch=1 n=f6 v=103
279076 On ch=1 n=f6 v=0
279088 On ch=1 n=a#6 v=116
279124 On ch=1 n=d5 v=97
279136 Par ch=1 c=64 v=63
279144 On ch=1 n=a#6 v=0
279154 Par ch=1 c=64 v=0
279166 On ch=1 n=a#4 v=0
279310 On ch=1 n=d6 v=94
279314 On ch=1 n=a#5 v=88
279320 On ch=1 n=a#4 v=87
279366 On ch=1 n=a#5 v=0
279368 On ch=1 n=f4 v=0
279390 On ch=1 n=d6 v=0
279394 On ch=1 n=d5 v=0
279518 On ch=1 n=a#4 v=0
279534 On ch=1 n=d6 v=104
279542 On ch=1 n=f6 v=106
279550 On ch=1 n=f4 v=83
279566 Par ch=1 c=64 v=63
279572 Par ch=1 c=64 v=127
279634 On ch=1 n=d6 v=0
279716 Par ch=1 c=64 v=63
279726 On ch=1 n=f6 v=0
279738 Par ch=1 c=64 v=0
279744 On ch=1 n=d#6 v=101
279770 On ch=1 n=c5 v=78
279850 On ch=1 n=d#6 v=0
279960 On ch=1 n=c5 v=0
279960 On ch=1 n=a#5 v=91
279960 On ch=1 n=d6 v=79
279968 On ch=1 n=d#5 v=93
280012 On ch=1 n=d6 v=0
280028 On ch=1 n=a#5 v=0
280078 On ch=1 n=d#5 v=0
280164 On ch=1 n=f4 v=0
280170 On ch=1 n=c6 v=88
280180 On ch=1 n=a5 v=76
280184 On ch=1 n=c5 v=60
280210 On ch=1 n=c6 v=0
280228 On ch=1 n=a5 v=0
280288 On ch=1 n=c5 v=0
280386 On ch=1 n=d5 v=85
280396 On ch=1 n=a#4 v=80
280396 On ch=1 n=a#5 v=110
280404 Par ch=1 c=64 v=63
280410 Par ch=1 c=64 v=127
280430 On ch=1 n=d5 v=0
280436 On ch=1 n=a#4 v=0
280448 On ch=1 n=a#5 v=0
280640 On ch=1 n=a#5 v=99
280686 On ch=1 n=a#5 v=0
280688 Par ch=1 c=64 v=63
280706 Par ch=1 c=64 v=0
280712 On ch=1 n=d6 v=94
280800 On ch=1 n=d6 v=0
280802 On ch=1 n=a5 v=66
280832 On ch=1 n=c6 v=83
280834 Par ch=1 c=64 v=63
280854 Par ch=1 c=64 v=127
280918 On ch=1 n=d#6 v=97
280928 On ch=1 n=c6 v=0
281004 On ch=1 n=a5 v=0
281022 On ch=1 n=d#6 v=0
281032 On ch=1 n=d6 v=86
281040 On ch=1 n=g#5 v=85
281090 On ch=1 n=g#5 v=0
281112 On ch=1 n=f6 v=94
281126 On ch=1 n=d6 v=0
281188 Par ch=1 c=64 v=63
281206 Par ch=1 c=64 v=0
281224 On ch=1 n=f6 v=0
281242 On ch=1 n=d#6 v=105
281282 On ch=1 n=g5 v=48
281286 On ch=1 n=a#4 v=69
281302 Par ch=1 c=64 v=63
281328 Par ch=1 c=64 v=127
281354 On ch=1 n=g5 v=0
281362 On ch=1 n=d#6 v=0
281372 On ch=1 n=g6 v=62
281416 On ch=1 n=g6 v=0
281504 On ch=1 n=a#5 v=96
281520 On ch=1 n=a#6 v=100
281626 On ch=1 n=a#5 v=0
281630 On ch=1 n=d7 v=97
281632 On ch=1 n=a#6 v=0
281718 On ch=1 n=d7 v=0
281722 On ch=1 n=a5 v=84
281734 On ch=1 n=c7 v=96
281822 On ch=1 n=d#7 v=112
281838 On ch=1 n=c7 v=0
281904 On ch=1 n=a5 v=0
281914 On ch=1 n=d7 v=107
281926 On ch=1 n=g#5 v=85
281942 On ch=1 n=d#7 v=0
281994 On ch=1 n=f7 v=101
281996 On ch=1 n=a#4 v=0
282042 On ch=1 n=d7 v=0
282062 Par ch=1 c=64 v=63
282078 Par ch=1 c=64 v=0
282084 On ch=1 n=g#5 v=0
282116 On ch=1 n=d#7 v=112
282128 On ch=1 n=g5 v=90
282136 On ch=1 n=a#4 v=91
282154 Par ch=1 c=64 v=63
282156 On ch=1 n=f7 v=0
282174 Par ch=1 c=64 v=127
282186 On ch=1 n=d#7 v=0
282312 On ch=1 n=g5 v=0
282368 On ch=1 n=a#5 v=100
282430 Par ch=1 c=64 v=63
282450 On ch=1 n=d6 v=87
282450 Par ch=1 c=64 v=0
282460 On ch=1 n=a#5 v=0
282540 On ch=1 n=d6 v=0
282564 On ch=1 n=a5 v=86
282570 On ch=1 n=c6 v=92
282612 On ch=1 n=a#4 v=0
282656 On ch=1 n=c6 v=0
282664 On ch=1 n=d#6 v=97
282728 Par ch=1 c=64 v=63
282742 Par ch=1 c=64 v=127
282754 On ch=1 n=d#6 v=0
282778 On ch=1 n=d6 v=84
282784 On ch=1 n=g#5 v=86
282790 On ch=1 n=a5 v=0
282862 On ch=1 n=f6 v=97
282878 On ch=1 n=d6 v=0
282880 On ch=1 n=g#5 v=0
282904 Par ch=1 c=64 v=63
282918 Par ch=1 c=64 v=0
282982 On ch=1 n=d#6 v=106
282994 On ch=1 n=f6 v=0
282994 Par ch=1 c=64 v=63
283006 On ch=1 n=g5 v=55
283016 Par ch=1 c=64 v=127
283064 On ch=1 n=d#6 v=0
283076 On ch=1 n=g5 v=0
283102 On ch=1 n=a#5 v=98
283180 On ch=1 n=a#5 v=0
283194 On ch=1 n=d5 v=96
283208 Par ch=1 c=64 v=63
283214 On ch=1 n=f6 v=101
283228 Par ch=1 c=64 v=0
283258 Par ch=1 c=64 v=63
283268 On ch=1 n=d5 v=0
283292 Par ch=1 c=64 v=127
283312 On ch=1 n=a#5 v=101
283328 On ch=1 n=f6 v=0
283388 On ch=1 n=a#5 v=0
283398 Par ch=1 c=64 v=63
283414 Par ch=1 c=64 v=0
283426 On ch=1 n=d#5 v=99
283428 On ch=1 n=g6 v=104
283450 Par ch=1 c=64 v=63
283472 Par ch=1 c=64 v=127
283504 On ch=1 n=d#5 v=0
283514 On ch=1 n=a#5 v=107
283532 On ch=1 n=g6 v=0
283594 On ch=1 n=a#5 v=0
283614 On ch=1 n=c5 v=106
283616 Par ch=1 c=64 v=63
283628 Par ch=1 c=64 v=0
283634 On ch=1 n=a6 v=113
283694 On ch=1 n=c5 v=0
283722 On ch=1 n=a#5 v=103
283756 On ch=1 n=a6 v=0
283782 On ch=1 n=a#5 v=0
283878 Par ch=1 c=64 v=63
283880 On ch=1 n=d5 v=109
283880 Par ch=1 c=64 v=127
283882 On ch=1 n=d4 v=116
283886 On ch=1 n=a#6 v=119
283914 On ch=1 n=d4 v=0
283914 On ch=1 n=d5 v=0
283984 On ch=1 n=a#6 v=0
284012 On ch=1 n=c7 v=94
284126 On ch=1 n=d7 v=103
284136 On ch=1 n=c7 v=0
284218 On ch=1 n=c7 v=98
284276 On ch=1 n=d7 v=0
284322 On ch=1 n=a#6 v=109
284362 On ch=1 n=c7 v=0
284436 On ch=1 n=g#6 v=110
284500 On ch=1 n=a#6 v=0
284534 On ch=1 n=g6 v=84
284540 On ch=1 n=g#6 v=0
284638 On ch=1 n=f#6 v=108
284654 On ch=1 n=g6 v=0
284712 On ch=1 n=f#6 v=0
284720 Par ch=1 c=64 v=63
284740 Par ch=1 c=64 v=0
284746 On ch=1 n=d#5 v=118
284748 On ch=1 n=d#4 v=120
284752 On ch=1 n=g6 v=90
284842 Par ch=1 c=64 v=63
284860 Par ch=1 c=64 v=127
284860 On ch=1 n=f6 v=96
284916 On ch=1 n=g6 v=0
284960 On ch=1 n=d#6 v=106
284996 On ch=1 n=f6 v=0
285068 On ch=1 n=d6 v=104
285130 On ch=1 n=d#6 v=0
285138 On ch=1 n=d#4 v=0
285156 On ch=1 n=d#5 v=0
285170 On ch=1 n=c6 v=98
285174 On ch=1 n=d6 v=0
285272 On ch=1 n=a#5 v=105
285278 On ch=1 n=c6 v=0
285384 On ch=1 n=a5 v=103
285418 On ch=1 n=a#5 v=0
285466 On ch=1 n=g5 v=97
285476 Par ch=1 c=64 v=63
285490 On ch=1 n=a5 v=0
285490 Par ch=1 c=64 v=0
285568 On ch=1 n=g5 v=0
285576 On ch=1 n=f5 v=113
285614 On ch=1 n=f4 v=118
285618 Par ch=1 c=64 v=63
285634 Par ch=1 c=64 v=127
285660 On ch=1 n=f5 v=0
285832 On ch=1 n=d5 v=68
285912 On ch=1 n=d7 v=113
285980 On ch=1 n=a#4 v=70
285990 On ch=1 n=d5 v=0
286034 On ch=1 n=f4 v=0
286072 On ch=1 n=d7 v=0
286076 On ch=1 n=d5 v=79
286100 On ch=1 n=a#4 v=0
286192 On ch=1 n=d7 v=104
286198 On ch=1 n=f4 v=98
286206 On ch=1 n=d5 v=0
286290 On ch=1 n=d5 v=88
286302 On ch=1 n=d7 v=0
286330 On ch=1 n=f4 v=0
286374 On ch=1 n=a#4 v=94
286396 On ch=1 n=d7 v=101
286400 On ch=1 n=d5 v=0
286460 On ch=1 n=d5 v=93
286490 On ch=1 n=d7 v=0
286498 On ch=1 n=a#4 v=0
286576 On ch=1 n=f4 v=108
286594 On ch=1 n=d5 v=0
286598 On ch=1 n=d7 v=108
286658 On ch=1 n=d5 v=80
286694 On ch=1 n=a#6 v=104
286702 On ch=1 n=d7 v=0
286742 On ch=1 n=f4 v=0
286764 On ch=1 n=a#4 v=95
286786 On ch=1 n=d5 v=0
286792 On ch=1 n=f6 v=98
286812 On ch=1 n=a#6 v=0
286868 On ch=1 n=d5 v=86
286890 On ch=1 n=d6 v=84
286898 On ch=1 n=a#4 v=0
286902 On ch=1 n=f6 v=0
286976 On ch=1 n=d6 v=0
286976 On ch=1 n=a#6 v=108
286996 On ch=1 n=f4 v=97
287000 On ch=1 n=d5 v=0
287076 On ch=1 n=f6 v=93
287080 On ch=1 n=d5 v=73
287104 On ch=1 n=a#6 v=0
287152 On ch=1 n=f4 v=0
287158 On ch=1 n=d6 v=89
287162 On ch=1 n=f6 v=0
287192 On ch=1 n=a#4 v=86
287196 On ch=1 n=d5 v=0
287264 On ch=1 n=d6 v=0
287272 On ch=1 n=a#5 v=112
287282 On ch=1 n=d5 v=83
287312 On ch=1 n=a#4 v=0
287354 On ch=1 n=a#5 v=0
287382 On ch=1 n=c6 v=102
287388 On ch=1 n=d5 v=0
287402 On ch=1 n=f4 v=78
287412 Par ch=1 c=64 v=63
287426 Par ch=1 c=64 v=0
287474 Par ch=1 c=64 v=63
287502 Par ch=1 c=64 v=127
287534 On ch=1 n=d#5 v=83
287536 On ch=1 n=c6 v=0
287570 On ch=1 n=d6 v=92
287640 On ch=1 n=d6 v=0
287642 On ch=1 n=f4 v=0
287654 On ch=1 n=d#5 v=0
287664 On ch=1 n=a4 v=70
287666 On ch=1 n=c6 v=71
287702 On ch=1 n=d6 v=94
287714 On ch=1 n=c6 v=0
287744 On ch=1 n=d#5 v=73
287778 On ch=1 n=d6 v=0
287786 On ch=1 n=c6 v=88
287814 On ch=1 n=a4 v=0
287836 On ch=1 n=d6 v=98
287854 On ch=1 n=f4 v=89
287866 On ch=1 n=c6 v=0
287868 On ch=1 n=d#5 v=0
287910 On ch=1 n=d6 v=0
287918 On ch=1 n=c6 v=96
287944 On ch=1 n=d#5 v=76
287968 On ch=1 n=d6 v=96
288010 On ch=1 n=c6 v=0
288018 On ch=1 n=f4 v=0
288046 On ch=1 n=d6 v=0
288056 On ch=1 n=c6 v=98
288060 On ch=1 n=a4 v=70
288064 On ch=1 n=d#5 v=0
288108 On ch=1 n=d6 v=99
288138 On ch=1 n=c6 v=0
288140 On ch=1 n=d#5 v=81
288182 On ch=1 n=a4 v=0
288184 On ch=1 n=d6 v=0
288188 On ch=1 n=c6 v=100
288244 On ch=1 n=d6 v=98
288272 On ch=1 n=c6 v=0
288272 On ch=1 n=f4 v=89
288284 On ch=1 n=d#5 v=0
288320 On ch=1 n=d6 v=0
288322 On ch=1 n=c6 v=100
288356 On ch=1 n=d#5 v=76
288382 On ch=1 n=d6 v=93
288408 On ch=1 n=c6 v=0
288448 On ch=1 n=f4 v=0
288450 On ch=1 n=d6 v=0
288456 On ch=1 n=c6 v=99
288484 On ch=1 n=d#5 v=0
288488 On ch=1 n=a4 v=64
288520 On ch=1 n=d6 v=89
288546 On ch=1 n=c6 v=0
288558 On ch=1 n=d#5 v=80
288584 On ch=1 n=c6 v=68
288602 On ch=1 n=a4 v=0
288656 On ch=1 n=c6 v=0
288678 On ch=1 n=f4 v=72
288694 On ch=1 n=d#5 v=0
288700 On ch=1 n=d6 v=0
288704 On ch=1 n=c6 v=76
288778 On ch=1 n=d6 v=91
288788 On ch=1 n=c6 v=0
288788 On ch=1 n=a4 v=57
288814 On ch=1 n=d6 v=0
288814 On ch=1 n=f4 v=0
288840 On ch=1 n=c6 v=83
288868 On ch=1 n=d#5 v=80
288896 On ch=1 n=a4 v=0
288922 On ch=1 n=a#5 v=87
288926 On ch=1 n=c6 v=0
288982 On ch=1 n=c6 v=89
289000 On ch=1 n=a#5 v=0
289092 On ch=1 n=d#5 v=0
289098 Par ch=1 c=64 v=63
289120 Par ch=1 c=64 v=0
289144 On ch=1 n=a#4 v=77
289164 On ch=1 n=a#5 v=98
289168 On ch=1 n=c6 v=0
289242 Par ch=1 c=64 v=63
289266 Par ch=1 c=64 v=127
289428 On ch=1 n=a#5 v=0
289460 On ch=1 n=a#4 v=0
289526 On ch=1 n=a#6 v=84
289530 On ch=1 n=a#5 v=82
289614 On ch=1 n=a#5 v=0
289652 On ch=1 n=a#6 v=0
289758 On ch=1 n=a5 v=91
289978 On ch=1 n=a#5 v=105
289982 On ch=1 n=a#6 v=107
290068 On ch=1 n=a5 v=0
290082 Par ch=1 c=64 v=63
290140 Par ch=1 c=64 v=0
290202 On ch=1 n=a6 v=104
290206 On ch=1 n=c6 v=96
290288 On ch=1 n=a#6 v=0
290294 On ch=1 n=a#5 v=0
290328 Par ch=1 c=64 v=63
290362 Par ch=1 c=64 v=127
290436 On ch=1 n=a#5 v=88
290436 On ch=1 n=a#6 v=103
290476 On ch=1 n=c6 v=0
290490 On ch=1 n=a6 v=0
290546 Par ch=1 c=64 v=63
290602 Par ch=1 c=64 v=0
290648 On ch=1 n=c7 v=97
290660 On ch=1 n=a5 v=83
290684 On ch=1 n=a#5 v=0
290694 On ch=1 n=a#6 v=0
290770 Par ch=1 c=64 v=63
290798 Par ch=1 c=64 v=127
290866 On ch=1 n=d7 v=94
290870 On ch=1 n=g#5 v=90
290910 On ch=1 n=c7 v=0
290916 On ch=1 n=a5 v=0
290966 On ch=1 n=d7 v=0
291104 On ch=1 n=d#7 v=91
291108 On ch=1 n=g#5 v=0
291108 On ch=1 n=g5 v=84
291138 Par ch=1 c=64 v=63
291208 On ch=1 n=d#7 v=0
291208 On ch=1 n=d7 v=86
291222 Par ch=1 c=64 v=0
291278 On ch=1 n=a#4 v=87
291314 On ch=1 n=d#7 v=97
291334 On ch=1 n=d7 v=0
291422 On ch=1 n=d7 v=74
291444 On ch=1 n=d#7 v=0
291524 On ch=1 n=d#7 v=91
291534 On ch=1 n=d7 v=0
291542 On ch=1 n=f#5 v=91
291552 On ch=1 n=a#4 v=0
291600 On ch=1 n=g5 v=0
291670 On ch=1 n=c#7 v=88
291686 On ch=1 n=d#7 v=0
291726 On ch=1 n=a#4 v=81
291772 On ch=1 n=c#7 v=0
291796 On ch=1 n=c7 v=73
291876 On ch=1 n=a#6 v=100
291886 On ch=1 n=c7 v=0
291960 Par ch=1 c=64 v=63
291968 On ch=1 n=f5 v=85
291986 On ch=1 n=a6 v=97
291992 On ch=1 n=a#6 v=0
291992 On ch=1 n=a#4 v=0
292010 On ch=1 n=f#5 v=0
292092 On ch=1 n=a#6 v=100
292124 On ch=1 n=a6 v=0
292160 On ch=1 n=a#4 v=80
292174 On ch=1 n=c7 v=96
292196 On ch=1 n=a#6 v=0
292196 On ch=1 n=f5 v=0
292230 Par ch=1 c=64 v=0
292294 On ch=1 n=a#6 v=105
292330 On ch=1 n=c7 v=0
292380 On ch=1 n=a6 v=93
292406 On ch=1 n=a5 v=84
292432 On ch=1 n=a#6 v=0
292438 On ch=1 n=a#4 v=0
292488 On ch=1 n=a6 v=0
292496 On ch=1 n=g6 v=79
292594 On ch=1 n=g6 v=0
292594 On ch=1 n=f6 v=96
292596 On ch=1 n=a#4 v=80
292628 On ch=1 n=a5 v=0
292706 On ch=1 n=d#6 v=99
292720 On ch=1 n=f6 v=0
292724 Par ch=1 c=64 v=63
292768 Par ch=1 c=64 v=0
292818 On ch=1 n=d6 v=84
292822 On ch=1 n=d#6 v=0
292832 On ch=1 n=a#5 v=78
292870 On ch=1 n=d6 v=0
292884 On ch=1 n=a#4 v=0
292916 On ch=1 n=a#5 v=0
293040 Par ch=1 c=64 v=63
293058 On ch=1 n=a#4 v=74
293084 On ch=1 n=d6 v=84
293154 On ch=1 n=d6 v=0
293262 On ch=1 n=a4 v=70
293320 Par ch=1 c=64 v=0
293326 On ch=1 n=a#4 v=0
293488 On ch=1 n=a#5 v=93
293492 On ch=1 n=a#4 v=83
293556 Par ch=1 c=64 v=63
293594 On ch=1 n=a4 v=0
293708 On ch=1 n=a5 v=89
293720 On ch=1 n=c5 v=88
293768 On ch=1 n=a#5 v=0
293790 On ch=1 n=a#4 v=0
293924 On ch=1 n=a#5 v=107
293936 On ch=1 n=a#4 v=88
293972 On ch=1 n=a5 v=0
293994 On ch=1 n=c5 v=0
294136 On ch=1 n=a#5 v=0
294138 On ch=1 n=c6 v=102
294154 On ch=1 n=a4 v=84
294206 On ch=1 n=a#4 v=0
294354 On ch=1 n=d6 v=100
294366 On ch=1 n=g#4 v=92
294368 On ch=1 n=c6 v=0
294420 On ch=1 n=a4 v=0
294590 On ch=1 n=g4 v=76
294592 On ch=1 n=d#6 v=95
294600 On ch=1 n=d6 v=0
294616 On ch=1 n=g#4 v=0
294702 On ch=1 n=d#6 v=0
294806 On ch=1 n=f6 v=82
294832 On ch=1 n=g4 v=0
294862 On ch=1 n=d#6 v=89
294898 On ch=1 n=f6 v=0
294928 On ch=1 n=d6 v=81
294938 On ch=1 n=d#6 v=0
294990 On ch=1 n=d#6 v=92
295010 On ch=1 n=d6 v=0
295034 On ch=1 n=f6 v=102
295040 On ch=1 n=d#4 v=92
295076 On ch=1 n=d#6 v=0
295118 On ch=1 n=f6 v=0
295274 On ch=1 n=g6 v=102
295302 On ch=1 n=d#4 v=0
295362 On ch=1 n=g6 v=0
295508 On ch=1 n=g6 v=96
295510 On ch=1 n=f4 v=76
295516 Par ch=1 c=64 v=127
295526 On ch=1 n=d#6 v=81
295694 On ch=1 n=d#6 v=0
295714 On ch=1 n=g6 v=0
295740 Par ch=1 c=64 v=63
295760 On ch=1 n=f4 v=0
295768 On ch=1 n=f6 v=94
295782 On ch=1 n=d6 v=76
295788 Par ch=1 c=64 v=0
295824 On ch=1 n=d6 v=0
295846 On ch=1 n=f6 v=0
296006 On ch=1 n=f4 v=76
296040 Par ch=1 c=64 v=63
296056 Par ch=1 c=64 v=127
296240 Par ch=1 c=64 v=63
296258 On ch=1 n=a5 v=88
296276 On ch=1 n=d#5 v=72
296286 Par ch=1 c=64 v=127
296376 On ch=1 n=d#5 v=0
296452 On ch=1 n=f4 v=0
296576 On ch=1 n=a5 v=0
296630 On ch=1 n=c6 v=96
296632 On ch=1 n=a#4 v=67
296640 On ch=1 n=d#5 v=68
296726 Par ch=1 c=64 v=63
296806 Par ch=1 c=64 v=127
297050 On ch=1 n=a#4 v=0
297144 On ch=1 n=d#5 v=0
297266 On ch=1 n=f4 v=51
297470 On ch=1 n=c6 v=0
297582 On ch=1 n=f4 v=0
298118 On ch=1 n=a#3 v=52
298134 On ch=1 n=a#5 v=48
298150 On ch=1 n=d5 v=44
298288 Par ch=1 c=64 v=63
298344 Par ch=1 c=64 v=0
299052 On ch=1 n=d5 v=0
299054 On ch=1 n=a#5 v=0
299062 On ch=1 n=a#3 v=0
300000 Par ch=1 c=67 v=127
300960 Par ch=1 c=67 v=0
300960 Meta TrkEnd
TrkEnd
MTrk
0 SeqSpec 43 00 01 00
0 Meta TrkName "                                    "
0 TimeSig 4/4 24 8
0 Meta TrkEnd
TrkEnd
MTrk
0 SeqSpec 43 00 01 00
0 Meta TrkName "                                    "
0 TimeSig 4/4 24 8
0 Meta TrkEnd
TrkEnd
MTrk
0 SeqSpec 43 00 01 00
0 Meta TrkName "                                    "
0 TimeSig 4/4 24 8
0 Meta TrkEnd
TrkEnd
MTrk
0 SeqSpec 43 00 01 00
0 Meta TrkName "                                    "
0 TimeSig 4/4 24 8
0 Meta TrkEnd
TrkEnd
MTrk
0 SeqSpec 43 00 01 00
0 Meta TrkName "                                    "
0 TimeSig 4/4 24 8
0 Meta TrkEnd
TrkEnd
MTrk
0 SeqSpec 43 00 01 00
0 Meta TrkName "                                    "
0 TimeSig 4/4 24 8
0 Meta TrkEnd
TrkEnd
MTrk
0 SeqSpec 43 00 01 00
0 Meta TrkName "                                    "
0 TimeSig 4/4 24 8
0 Meta TrkEnd
TrkEnd
MTrk
0 SeqSpec 43 00 01 00
0 Meta TrkName "                                    "
0 TimeSig 4/4 24 8
0 Meta TrkEnd
TrkEnd
MTrk
0 SeqSpec 43 00 01 00
0 Meta TrkName "                                    "
0 TimeSig 4/4 24 8
0 Meta TrkEnd
TrkEnd
MTrk
0 SeqSpec 43 00 01 00
0 Meta TrkName "                                    "
0 TimeSig 4/4 24 8
0 Meta TrkEnd
TrkEnd
MTrk
0 SeqSpec 43 00 01 00
0 Meta TrkName "                                    "
0 TimeSig 4/4 24 8
0 Meta TrkEnd
TrkEnd
MTrk
0 SeqSpec 43 00 01 00
0 Meta TrkName "                                    "
0 TimeSig 4/4 24 8
0 Meta TrkEnd
TrkEnd
MTrk
0 SeqSpec 43 00 01 00
0 Meta TrkName "                                    "
0 TimeSig 4/4 24 8
0 Meta TrkEnd
TrkEnd
MTrk
0 SeqSpec 43 00 01 00
0 Meta TrkName "                                    "
0 TimeSig 4/4 24 8
0 Meta TrkEnd
TrkEnd
MTrk
0 SeqSpec 43 00 01 00
0 Meta TrkName "                                    "
0 TimeSig 4/4 24 8
0 Meta TrkEnd
TrkEnd
MTrk
0 SeqSpec 43 00 01 00
0 Meta TrkName "                                    "
0 TimeSig 4/4 24 8
0 Meta TrkEnd
TrkEnd
