MFile 1 8 240
MTrk
0 TimeSig 4/4 24 8
0 Tempo 1428571
14640 Tempo 983607
14880 Tempo 740741
15120 Tempo 600000
15360 Tempo 1428571
41520 Tempo 983607
41760 Tempo 740741
42000 Tempo 600000
42240 Tempo 1428571
54720 TimeSig 2/4 24 8
56640 TimeSig 4/4 24 8
57840 Tempo 1764706
58080 Tempo 2307692
58170 Tempo 3333333
58560 Tempo 1428571
70320 Tempo 1538462
70560 Tempo 1666667
70800 Tempo 1818182
71040 Tempo 2000000
72000 Tempo 1428571
72000 Meta TrkEnd
TrkEnd
MTrk
0 Meta TrkName "rh"
60 On ch=1 n=c5 v=64
68 Off ch=1 n=c5 v=64
70 On ch=1 n=d#5 v=64
78 Off ch=1 n=d#5 v=64
80 On ch=1 n=g5 v=64
88 Off ch=1 n=g5 v=64
90 On ch=1 n=c6 v=64
102 Off ch=1 n=c6 v=64
105 On ch=1 n=d#6 v=64
117 Off ch=1 n=d#6 v=64
120 On ch=1 n=g6 v=64
312 Off ch=1 n=g6 v=64
360 On ch=1 n=f6 v=64
384 Off ch=1 n=f6 v=64
390 On ch=1 n=d#6 v=64
414 Off ch=1 n=d#6 v=64
420 On ch=1 n=d6 v=64
444 Off ch=1 n=d6 v=64
450 On ch=1 n=c6 v=64
474 Off ch=1 n=c6 v=64
480 On ch=1 n=b5 v=64
624 Off ch=1 n=b5 v=64
660 On ch=1 n=f6 v=64
708 Off ch=1 n=f6 v=64
720 On ch=1 n=g#6 v=64
864 Off ch=1 n=g#6 v=64
900 On ch=1 n=b5 v=64
948 Off ch=1 n=b5 v=64
960 On ch=1 n=c6 v=64
1032 Off ch=1 n=c6 v=64
1035 On ch=1 n=d6 v=64
1047 Off ch=1 n=d6 v=64
1050 On ch=1 n=c6 v=64
1062 Off ch=1 n=c6 v=64
1065 On ch=1 n=b5 v=64
1077 Off ch=1 n=b5 v=64
1080 On ch=1 n=c6 v=64
1128 Off ch=1 n=c6 v=64
1140 On ch=1 n=b6 v=64
1188 Off ch=1 n=b6 v=64
1200 On ch=1 n=b6 v=64
1296 Off ch=1 n=b6 v=64
1320 On ch=1 n=c7 v=64
1368 Off ch=1 n=c7 v=64
1620 On ch=1 n=c6 v=64
1668 Off ch=1 n=c6 v=64
1680 On ch=1 n=c6 v=64
1752 Off ch=1 n=c6 v=64
1755 On ch=1 n=d6 v=64
1767 Off ch=1 n=d6 v=64
1770 On ch=1 n=c6 v=64
1782 Off ch=1 n=c6 v=64
1785 On ch=1 n=b5 v=64
1797 Off ch=1 n=b5 v=64
1800 On ch=1 n=c6 v=64
1848 Off ch=1 n=c6 v=64
1860 On ch=1 n=d#6 v=64
2016 Off ch=1 n=d#6 v=64
2040 On ch=1 n=d6 v=64
2232 Off ch=1 n=d6 v=64
2280 On ch=1 n=g#6 v=64
2472 Off ch=1 n=g#6 v=64
2520 On ch=1 n=g6 v=64
2712 Off ch=1 n=g6 v=64
2760 On ch=1 n=f6 v=64
2928 Off ch=1 n=f6 v=64
2940 On ch=1 n=d#6 v=64
2988 Off ch=1 n=d#6 v=64
3000 On ch=1 n=g#6 v=64
3048 Off ch=1 n=g#6 v=64
3060 On ch=1 n=g6 v=64
3108 Off ch=1 n=g6 v=64
3120 On ch=1 n=f#6 v=64
3128 Off ch=1 n=f#6 v=64
3130 On ch=1 n=g6 v=64
3138 Off ch=1 n=g6 v=64
3140 On ch=1 n=g#6 v=64
3148 Off ch=1 n=g#6 v=64
3150 On ch=1 n=g6 v=64
3318 Off ch=1 n=g6 v=64
3390 On ch=1 n=c5 v=64
3402 Off ch=1 n=c5 v=64
3405 On ch=1 n=d5 v=64
3417 Off ch=1 n=d5 v=64
3420 On ch=1 n=d#5 v=64
3432 Off ch=1 n=d#5 v=64
3435 On ch=1 n=f5 v=64
3447 Off ch=1 n=f5 v=64
3450 On ch=1 n=g5 v=64
3462 Off ch=1 n=g5 v=64
3465 On ch=1 n=g#5 v=64
3477 Off ch=1 n=g#5 v=64
3480 On ch=1 n=a#5 v=64
3492 Off ch=1 n=a#5 v=64
3495 On ch=1 n=c6 v=64
3507 Off ch=1 n=c6 v=64
3510 On ch=1 n=d6 v=64
3522 Off ch=1 n=d6 v=64
3525 On ch=1 n=d#6 v=64
3537 Off ch=1 n=d#6 v=64
3540 On ch=1 n=f6 v=64
3552 Off ch=1 n=f6 v=64
3555 On ch=1 n=g6 v=64
3567 Off ch=1 n=g6 v=64
3570 On ch=1 n=g#6 v=64
3575 Off ch=1 n=g#6 v=64
3577 On ch=1 n=a#6 v=64
3582 Off ch=1 n=a#6 v=64
3584 On ch=1 n=c7 v=64
3589 Off ch=1 n=c7 v=64
3591 On ch=1 n=d7 v=64
3603 Off ch=1 n=d7 v=64
3606 On ch=1 n=d#7 v=64
3936 Off ch=1 n=d#7 v=64
3960 On ch=1 n=d7 v=64
4152 Off ch=1 n=d7 v=64
4200 On ch=1 n=c7 v=64
4368 Off ch=1 n=c7 v=64
4380 On ch=1 n=b6 v=64
4476 Off ch=1 n=b6 v=64
4500 On ch=1 n=g#6 v=64
4596 Off ch=1 n=g#6 v=64
4620 On ch=1 n=g6 v=64
4716 Off ch=1 n=g6 v=64
4740 On ch=1 n=f6 v=64
4848 Off ch=1 n=f6 v=64
4860 On ch=1 n=d#6 v=64
4908 Off ch=1 n=d#6 v=64
4920 On ch=1 n=d6 v=64
4968 Off ch=1 n=d6 v=64
4980 On ch=1 n=c6 v=64
5028 Off ch=1 n=c6 v=64
5040 On ch=1 n=c6 v=64
5136 Off ch=1 n=c6 v=64
5250 On ch=1 n=f5 v=64
5260 Off ch=1 n=f5 v=64
5277 On ch=1 n=d#5 v=64
5285 Off ch=1 n=d#5 v=64
5287 On ch=1 n=f5 v=64
5295 Off ch=1 n=f5 v=64
5297 On ch=1 n=d#5 v=64
5305 Off ch=1 n=d#5 v=64
5307 On ch=1 n=f5 v=64
5315 Off ch=1 n=f5 v=64
5317 On ch=1 n=d#5 v=64
5325 Off ch=1 n=d#5 v=64
5327 On ch=1 n=f5 v=64
5335 Off ch=1 n=f5 v=64
5337 On ch=1 n=d#5 v=64
5391 Off ch=1 n=d#5 v=64
5487 On ch=1 n=g#5 v=64
5497 Off ch=1 n=g#5 v=64
5514 On ch=1 n=g5 v=64
5522 Off ch=1 n=g5 v=64
5524 On ch=1 n=g#5 v=64
5532 Off ch=1 n=g#5 v=64
5534 On ch=1 n=g5 v=64
5542 Off ch=1 n=g5 v=64
5544 On ch=1 n=g#5 v=64
5552 Off ch=1 n=g#5 v=64
5554 On ch=1 n=g5 v=64
5562 Off ch=1 n=g5 v=64
5564 On ch=1 n=g#5 v=64
5572 Off ch=1 n=g#5 v=64
5574 On ch=1 n=g5 v=64
5628 Off ch=1 n=g5 v=64
5724 On ch=1 n=f5 v=64
5734 Off ch=1 n=f5 v=64
5811 On ch=1 n=c6 v=64
5823 Off ch=1 n=c6 v=64
5826 On ch=1 n=d#6 v=64
5838 Off ch=1 n=d#6 v=64
5841 On ch=1 n=g6 v=64
5853 Off ch=1 n=g6 v=64
5856 On ch=1 n=c7 v=64
5868 Off ch=1 n=c7 v=64
5871 On ch=1 n=d#7 v=64
6063 Off ch=1 n=d#7 v=64
6111 On ch=1 n=d#7 v=64
6279 Off ch=1 n=d#7 v=64
6291 On ch=1 n=d7 v=64
6339 Off ch=1 n=d7 v=64
6351 On ch=1 n=c#7 v=64
6399 Off ch=1 n=c#7 v=64
6411 On ch=1 n=d7 v=64
6459 Off ch=1 n=d7 v=64
6471 On ch=1 n=c#7 v=64
6479 Off ch=1 n=c#7 v=64
6481 On ch=1 n=d7 v=64
6489 Off ch=1 n=d7 v=64
6491 On ch=1 n=d#7 v=64
6499 Off ch=1 n=d#7 v=64
6501 On ch=1 n=d7 v=64
6573 Off ch=1 n=d7 v=64
6771 On ch=1 n=g#5 v=64
6783 Off ch=1 n=g#5 v=64
6786 On ch=1 n=c6 v=64
6798 Off ch=1 n=c6 v=64
6801 On ch=1 n=d#6 v=64
6813 Off ch=1 n=d#6 v=64
6816 On ch=1 n=g#6 v=64
6828 Off ch=1 n=g#6 v=64
6831 On ch=1 n=c7 v=64
7023 Off ch=1 n=c7 v=64
7071 On ch=1 n=c7 v=64
7239 Off ch=1 n=c7 v=64
7251 On ch=1 n=a#6 v=64
7299 Off ch=1 n=a#6 v=64
7311 On ch=1 n=a6 v=64
7359 Off ch=1 n=a6 v=64
7371 On ch=1 n=a#6 v=64
7419 Off ch=1 n=a#6 v=64
7431 On ch=1 n=a6 v=64
7439 Off ch=1 n=a6 v=64
7441 On ch=1 n=a#6 v=64
7449 Off ch=1 n=a#6 v=64
7451 On ch=1 n=c7 v=64
7459 Off ch=1 n=c7 v=64
7461 On ch=1 n=a#6 v=64
7533 Off ch=1 n=a#6 v=64
7731 On ch=1 n=f5 v=64
7743 Off ch=1 n=f5 v=64
7746 On ch=1 n=g#5 v=64
7758 Off ch=1 n=g#5 v=64
7761 On ch=1 n=c6 v=64
7773 Off ch=1 n=c6 v=64
7776 On ch=1 n=f6 v=64
7788 Off ch=1 n=f6 v=64
7791 On ch=1 n=g#6 v=64
7983 Off ch=1 n=g#6 v=64
8031 On ch=1 n=g#6 v=64
8199 Off ch=1 n=g#6 v=64
8211 On ch=1 n=g6 v=64
8259 Off ch=1 n=g6 v=64
8271 On ch=1 n=f#6 v=64
8319 Off ch=1 n=f#6 v=64
8331 On ch=1 n=g6 v=64
8379 Off ch=1 n=g6 v=64
8421 On ch=1 n=g6 v=64
8445 Off ch=1 n=g6 v=64
8451 On ch=1 n=d#7 v=64
8461 Off ch=1 n=d#7 v=64
8478 On ch=1 n=d7 v=64
8488 Off ch=1 n=d7 v=64
8505 On ch=1 n=c7 v=64
8515 Off ch=1 n=c7 v=64
8532 On ch=1 n=a#6 v=64
8542 Off ch=1 n=a#6 v=64
8559 On ch=1 n=g#6 v=64
8569 Off ch=1 n=g#6 v=64
8586 On ch=1 n=g6 v=64
8640 Off ch=1 n=g6 v=64
8646 On ch=1 n=f6 v=64
8654 Off ch=1 n=f6 v=64
8656 On ch=1 n=g6 v=64
8664 Off ch=1 n=g6 v=64
8666 On ch=1 n=f6 v=64
8674 Off ch=1 n=f6 v=64
8676 On ch=1 n=d7 v=64
8686 Off ch=1 n=d7 v=64
8703 On ch=1 n=c7 v=64
8713 Off ch=1 n=c7 v=64
8730 On ch=1 n=b6 v=64
8740 Off ch=1 n=b6 v=64
8757 On ch=1 n=g#6 v=64
8767 Off ch=1 n=g#6 v=64
8784 On ch=1 n=g6 v=64
8794 Off ch=1 n=g6 v=64
8811 On ch=1 n=f6 v=64
8865 Off ch=1 n=f6 v=64
8871 On ch=1 n=d#6 v=64
8879 Off ch=1 n=d#6 v=64
8881 On ch=1 n=f6 v=64
8889 Off ch=1 n=f6 v=64
8891 On ch=1 n=d#6 v=64
8899 Off ch=1 n=d#6 v=64
8901 On ch=1 n=c7 v=64
8911 Off ch=1 n=c7 v=64
8928 On ch=1 n=a#6 v=64
8938 Off ch=1 n=a#6 v=64
8955 On ch=1 n=g#6 v=64
8965 Off ch=1 n=g#6 v=64
8982 On ch=1 n=g6 v=64
8992 Off ch=1 n=g6 v=64
9009 On ch=1 n=f6 v=64
9019 Off ch=1 n=f6 v=64
9036 On ch=1 n=d#6 v=64
9046 Off ch=1 n=d#6 v=64
9063 On ch=1 n=g6 v=64
9207 Off ch=1 n=g6 v=64
9243 On ch=1 n=d#6 v=64
9291 Off ch=1 n=d#6 v=64
9303 On ch=1 n=d6 v=64
9399 Off ch=1 n=d6 v=64
9603 On ch=1 n=c5 v=64
9615 Off ch=1 n=c5 v=64
9618 On ch=1 n=d#5 v=64
9630 Off ch=1 n=d#5 v=64
9633 On ch=1 n=g5 v=64
9645 Off ch=1 n=g5 v=64
9648 On ch=1 n=c6 v=64
9660 Off ch=1 n=c6 v=64
9663 On ch=1 n=d#6 v=64
9855 Off ch=1 n=d#6 v=64
9903 On ch=1 n=d#6 v=64
10055 Off ch=1 n=d#6 v=64
10063 On ch=1 n=c#6 v=64
10081 Off ch=1 n=c#6 v=64
10103 On ch=1 n=d6 v=64
10121 Off ch=1 n=d6 v=64
10143 On ch=1 n=d#6 v=64
10161 Off ch=1 n=d#6 v=64
10183 On ch=1 n=e6 v=64
10201 Off ch=1 n=e6 v=64
10223 On ch=1 n=f6 v=64
10241 Off ch=1 n=f6 v=64
10263 On ch=1 n=f#6 v=64
10359 Off ch=1 n=f#6 v=64
10383 On ch=1 n=g6 v=64
10431 Off ch=1 n=g6 v=64
10563 On ch=1 n=g#4 v=64
10575 Off ch=1 n=g#4 v=64
10578 On ch=1 n=c5 v=64
10590 Off ch=1 n=c5 v=64
10593 On ch=1 n=d#5 v=64
10605 Off ch=1 n=d#5 v=64
10608 On ch=1 n=g#5 v=64
10620 Off ch=1 n=g#5 v=64
10623 On ch=1 n=c6 v=64
10815 Off ch=1 n=c6 v=64
10863 On ch=1 n=c6 v=64
11015 Off ch=1 n=c6 v=64
11023 On ch=1 n=a5 v=64
11041 Off ch=1 n=a5 v=64
11063 On ch=1 n=a#5 v=64
11081 Off ch=1 n=a#5 v=64
11103 On ch=1 n=b5 v=64
11121 Off ch=1 n=b5 v=64
11143 On ch=1 n=c6 v=64
11161 Off ch=1 n=c6 v=64
11183 On ch=1 n=c#6 v=64
11201 Off ch=1 n=c#6 v=64
11223 On ch=1 n=d6 v=64
11319 Off ch=1 n=d6 v=64
11343 On ch=1 n=d#6 v=64
11391 Off ch=1 n=d#6 v=64
11523 On ch=1 n=f4 v=64
11535 Off ch=1 n=f4 v=64
11538 On ch=1 n=g#4 v=64
11550 Off ch=1 n=g#4 v=64
11553 On ch=1 n=c5 v=64
11565 Off ch=1 n=c5 v=64
11568 On ch=1 n=f5 v=64
11580 Off ch=1 n=f5 v=64
11583 On ch=1 n=g#5 v=64
11775 Off ch=1 n=g#5 v=64
11823 On ch=1 n=g#5 v=64
11967 Off ch=1 n=g#5 v=64
11973 On ch=1 n=f#5 v=64
11983 Off ch=1 n=f#5 v=64
12000 On ch=1 n=g5 v=64
12010 Off ch=1 n=g5 v=64
12027 On ch=1 n=g#5 v=64
12037 Off ch=1 n=g#5 v=64
12054 On ch=1 n=a5 v=64
12064 Off ch=1 n=a5 v=64
12081 On ch=1 n=a#5 v=64
12091 Off ch=1 n=a#5 v=64
12108 On ch=1 n=b5 v=64
12118 Off ch=1 n=b5 v=64
12135 On ch=1 n=c6 v=64
12145 Off ch=1 n=c6 v=64
12162 On ch=1 n=d6 v=64
12210 Off ch=1 n=d6 v=64
12222 On ch=1 n=c6 v=64
12270 Off ch=1 n=c6 v=64
12282 On ch=1 n=a#5 v=64
12330 Off ch=1 n=a#5 v=64
12342 On ch=1 n=g#5 v=64
12390 Off ch=1 n=g#5 v=64
12402 On ch=1 n=g5 v=64
12594 Off ch=1 n=g5 v=64
12642 On ch=1 n=f#5 v=64
12834 Off ch=1 n=f#5 v=64
12882 On ch=1 n=f5 v=64
12906 Off ch=1 n=f5 v=64
12912 On ch=1 n=c#5 v=64
12922 Off ch=1 n=c#5 v=64
12939 On ch=1 n=d5 v=64
12949 Off ch=1 n=d5 v=64
12966 On ch=1 n=d#5 v=64
12976 Off ch=1 n=d#5 v=64
12993 On ch=1 n=e5 v=64
13003 Off ch=1 n=e5 v=64
13020 On ch=1 n=f5 v=64
13030 Off ch=1 n=f5 v=64
13047 On ch=1 n=f#5 v=64
13057 Off ch=1 n=f#5 v=64
13074 On ch=1 n=g5 v=64
13084 Off ch=1 n=g5 v=64
13101 On ch=1 n=a#5 v=64
13149 Off ch=1 n=a#5 v=64
13161 On ch=1 n=g#5 v=64
13209 Off ch=1 n=g#5 v=64
13221 On ch=1 n=g5 v=64
13269 Off ch=1 n=g5 v=64
13281 On ch=1 n=f5 v=64
13329 Off ch=1 n=f5 v=64
13341 On ch=1 n=f5 v=64
13533 Off ch=1 n=f5 v=64
13581 On ch=1 n=d#5 v=64
13773 Off ch=1 n=d#5 v=64
13821 On ch=1 n=d5 v=64
13831 Off ch=1 n=d5 v=64
13848 On ch=1 n=d#5 v=64
13856 Off ch=1 n=d#5 v=64
13858 On ch=1 n=d5 v=64
13866 Off ch=1 n=d5 v=64
13868 On ch=1 n=c5 v=64
13876 Off ch=1 n=c5 v=64
13878 On ch=1 n=d5 v=64
13902 Off ch=1 n=d5 v=64
13908 On ch=1 n=d#5 v=64
13918 Off ch=1 n=d#5 v=64
13935 On ch=1 n=f5 v=64
13945 Off ch=1 n=f5 v=64
13962 On ch=1 n=g5 v=64
13970 Off ch=1 n=g5 v=64
13972 On ch=1 n=f5 v=64
13980 Off ch=1 n=f5 v=64
13982 On ch=1 n=e5 v=64
13990 Off ch=1 n=e5 v=64
13992 On ch=1 n=f5 v=64
14002 Off ch=1 n=f5 v=64
14019 On ch=1 n=g5 v=64
14029 Off ch=1 n=g5 v=64
14046 On ch=1 n=a#5 v=64
14094 Off ch=1 n=a#5 v=64
14106 On ch=1 n=g#5 v=64
14154 Off ch=1 n=g#5 v=64
14166 On ch=1 n=g5 v=64
14193 Off ch=1 n=g5 v=64
14226 On ch=1 n=f5 v=64
14253 Off ch=1 n=f5 v=64
14286 On ch=1 n=d#5 v=64
14430 Off ch=1 n=d#5 v=64
14466 On ch=1 n=f5 v=64
14490 Off ch=1 n=f5 v=64
14496 On ch=1 n=d#5 v=64
14520 Off ch=1 n=d#5 v=64
14526 On ch=1 n=d5 v=64
14622 Off ch=1 n=d5 v=64
15246 On ch=1 n=g6 v=64
15246 On ch=1 n=a#5 v=64
15246 On ch=1 n=g5 v=64
15246 On ch=1 n=d#6 v=64
15390 Off ch=1 n=d#6 v=64
15390 Off ch=1 n=g5 v=64
15390 Off ch=1 n=a#5 v=64
15390 Off ch=1 n=g6 v=64
15426 On ch=1 n=g4 v=64
15426 On ch=1 n=a#4 v=64
15474 Off ch=1 n=a#4 v=64
15474 Off ch=1 n=g4 v=64
15486 On ch=1 n=c5 v=64
15498 Off ch=1 n=c5 v=64
15501 On ch=1 n=a#4 v=64
15513 Off ch=1 n=a#4 v=64
15516 On ch=1 n=c5 v=64
15528 Off ch=1 n=c5 v=64
15531 On ch=1 n=a#4 v=64
15543 Off ch=1 n=a#4 v=64
15546 On ch=1 n=c5 v=64
15558 Off ch=1 n=c5 v=64
15561 On ch=1 n=a#4 v=64
15573 Off ch=1 n=a#4 v=64
15576 On ch=1 n=c5 v=64
15588 Off ch=1 n=c5 v=64
15591 On ch=1 n=a#4 v=64
15603 Off ch=1 n=a#4 v=64
15606 On ch=1 n=c5 v=64
15618 Off ch=1 n=c5 v=64
15621 On ch=1 n=a#4 v=64
15633 Off ch=1 n=a#4 v=64
15636 On ch=1 n=c5 v=64
15648 Off ch=1 n=c5 v=64
15651 On ch=1 n=a#4 v=64
15663 Off ch=1 n=a#4 v=64
15666 On ch=1 n=g#4 v=64
15690 Off ch=1 n=g#4 v=64
15696 On ch=1 n=a#4 v=64
15720 Off ch=1 n=a#4 v=64
15756 On ch=1 n=g4 v=64
15756 On ch=1 n=a#4 v=64
15780 Off ch=1 n=a#4 v=64
15780 Off ch=1 n=g4 v=64
15786 On ch=1 n=c5 v=64
15786 On ch=1 n=g#4 v=64
15810 Off ch=1 n=g#4 v=64
15810 Off ch=1 n=c5 v=64
15816 On ch=1 n=a#4 v=64
15816 On ch=1 n=d5 v=64
15840 Off ch=1 n=d5 v=64
15840 Off ch=1 n=a#4 v=64
15846 On ch=1 n=c5 v=64
15846 On ch=1 n=d#5 v=64
15870 Off ch=1 n=d#5 v=64
15870 Off ch=1 n=c5 v=64
15876 On ch=1 n=f5 v=64
15876 On ch=1 n=d5 v=64
15900 Off ch=1 n=d5 v=64
15900 Off ch=1 n=f5 v=64
15906 On ch=1 n=g5 v=64
15906 On ch=1 n=d#5 v=64
15930 Off ch=1 n=d#5 v=64
15930 Off ch=1 n=g5 v=64
15936 On ch=1 n=f5 v=64
15936 On ch=1 n=g#5 v=64
15960 Off ch=1 n=g#5 v=64
15960 Off ch=1 n=f5 v=64
15966 On ch=1 n=g5 v=64
15966 On ch=1 n=a#5 v=64
15990 Off ch=1 n=a#5 v=64
15990 Off ch=1 n=g5 v=64
15996 On ch=1 n=c6 v=64
15996 On ch=1 n=g#5 v=64
16020 Off ch=1 n=g#5 v=64
16020 Off ch=1 n=c6 v=64
16026 On ch=1 n=d6 v=64
16026 On ch=1 n=a#5 v=64
16050 Off ch=1 n=a#5 v=64
16050 Off ch=1 n=d6 v=64
16056 On ch=1 n=d#6 v=64
16056 On ch=1 n=c6 v=64
16080 Off ch=1 n=c6 v=64
16080 Off ch=1 n=d#6 v=64
16086 On ch=1 n=f6 v=64
16086 On ch=1 n=d6 v=64
16110 Off ch=1 n=d6 v=64
16110 Off ch=1 n=f6 v=64
16116 On ch=1 n=d#6 v=64
16116 On ch=1 n=g6 v=64
16140 Off ch=1 n=g6 v=64
16140 Off ch=1 n=d#6 v=64
16146 On ch=1 n=g#6 v=64
16146 On ch=1 n=f6 v=64
16170 Off ch=1 n=f6 v=64
16170 Off ch=1 n=g#6 v=64
16176 On ch=1 n=a#6 v=64
16176 On ch=1 n=g6 v=64
16200 Off ch=1 n=g6 v=64
16200 Off ch=1 n=a#6 v=64
16206 On ch=1 n=c7 v=64
16206 On ch=1 n=g#6 v=64
16350 Off ch=1 n=g#6 v=64
16350 Off ch=1 n=c7 v=64
16386 On ch=1 n=c5 v=64
16386 On ch=1 n=g#4 v=64
16434 Off ch=1 n=g#4 v=64
16434 Off ch=1 n=c5 v=64
16446 On ch=1 n=d5 v=64
16458 Off ch=1 n=d5 v=64
16461 On ch=1 n=c5 v=64
16473 Off ch=1 n=c5 v=64
16476 On ch=1 n=d5 v=64
16488 Off ch=1 n=d5 v=64
16491 On ch=1 n=c5 v=64
16503 Off ch=1 n=c5 v=64
16506 On ch=1 n=d5 v=64
16518 Off ch=1 n=d5 v=64
16521 On ch=1 n=c5 v=64
16533 Off ch=1 n=c5 v=64
16536 On ch=1 n=d5 v=64
16548 Off ch=1 n=d5 v=64
16551 On ch=1 n=c5 v=64
16563 Off ch=1 n=c5 v=64
16566 On ch=1 n=d5 v=64
16578 Off ch=1 n=d5 v=64
16581 On ch=1 n=c5 v=64
16593 Off ch=1 n=c5 v=64
16596 On ch=1 n=d5 v=64
16608 Off ch=1 n=d5 v=64
16611 On ch=1 n=c5 v=64
16623 Off ch=1 n=c5 v=64
16626 On ch=1 n=a#4 v=64
16650 Off ch=1 n=a#4 v=64
16656 On ch=1 n=c5 v=64
16680 Off ch=1 n=c5 v=64
16716 On ch=1 n=g#4 v=64
16716 On ch=1 n=c5 v=64
16740 Off ch=1 n=c5 v=64
16740 Off ch=1 n=g#4 v=64
16746 On ch=1 n=a#4 v=64
16746 On ch=1 n=d5 v=64
16770 Off ch=1 n=d5 v=64
16770 Off ch=1 n=a#4 v=64
16776 On ch=1 n=c5 v=64
16776 On ch=1 n=d#5 v=64
16800 Off ch=1 n=d#5 v=64
16800 Off ch=1 n=c5 v=64
16806 On ch=1 n=d5 v=64
16806 On ch=1 n=f5 v=64
16830 Off ch=1 n=f5 v=64
16830 Off ch=1 n=d5 v=64
16836 On ch=1 n=d#5 v=64
16836 On ch=1 n=g5 v=64
16860 Off ch=1 n=g5 v=64
16860 Off ch=1 n=d#5 v=64
16866 On ch=1 n=g#5 v=64
16866 On ch=1 n=f5 v=64
16890 Off ch=1 n=f5 v=64
16890 Off ch=1 n=g#5 v=64
16896 On ch=1 n=g5 v=64
16896 On ch=1 n=a#5 v=64
16920 Off ch=1 n=a#5 v=64
16920 Off ch=1 n=g5 v=64
16926 On ch=1 n=c6 v=64
16926 On ch=1 n=g#5 v=64
16950 Off ch=1 n=g#5 v=64
16950 Off ch=1 n=c6 v=64
16956 On ch=1 n=d6 v=64
16956 On ch=1 n=a#5 v=64
16980 Off ch=1 n=a#5 v=64
16980 Off ch=1 n=d6 v=64
16986 On ch=1 n=d#6 v=64
16986 On ch=1 n=c6 v=64
17010 Off ch=1 n=c6 v=64
17010 Off ch=1 n=d#6 v=64
17016 On ch=1 n=d6 v=64
17016 On ch=1 n=f6 v=64
17040 Off ch=1 n=f6 v=64
17040 Off ch=1 n=d6 v=64
17046 On ch=1 n=d#6 v=64
17046 On ch=1 n=g6 v=64
17070 Off ch=1 n=g6 v=64
17070 Off ch=1 n=d#6 v=64
17076 On ch=1 n=f6 v=64
17076 On ch=1 n=g#6 v=64
17100 Off ch=1 n=g#6 v=64
17100 Off ch=1 n=f6 v=64
17106 On ch=1 n=a#6 v=64
17106 On ch=1 n=g6 v=64
17130 Off ch=1 n=g6 v=64
17130 Off ch=1 n=a#6 v=64
17136 On ch=1 n=c7 v=64
17136 On ch=1 n=g#6 v=64
17160 Off ch=1 n=g#6 v=64
17160 Off ch=1 n=c7 v=64
17166 On ch=1 n=a#6 v=64
17166 On ch=1 n=f6 v=64
17166 On ch=1 n=d6 v=64
17310 Off ch=1 n=d6 v=64
17310 Off ch=1 n=f6 v=64
17310 Off ch=1 n=a#6 v=64
17346 On ch=1 n=f4 v=80
17346 On ch=1 n=g#4 v=80
17346 On ch=1 n=d5 v=80
17394 Off ch=1 n=d5 v=64
17394 Off ch=1 n=g#4 v=64
17394 Off ch=1 n=f4 v=64
17406 On ch=1 n=d5 v=64
17406 On ch=1 n=f4 v=64
17598 Off ch=1 n=f4 v=64
17598 Off ch=1 n=d5 v=64
17676 On ch=1 n=d5 v=64
17676 On ch=1 n=a#4 v=64
17700 Off ch=1 n=a#4 v=64
17700 Off ch=1 n=d5 v=64
17706 On ch=1 n=c5 v=64
17706 On ch=1 n=d#5 v=64
17730 Off ch=1 n=d#5 v=64
17730 Off ch=1 n=c5 v=64
17736 On ch=1 n=d5 v=64
17736 On ch=1 n=f5 v=64
17760 Off ch=1 n=f5 v=64
17760 Off ch=1 n=d5 v=64
17766 On ch=1 n=g5 v=64
17766 On ch=1 n=d#5 v=64
17790 Off ch=1 n=d#5 v=64
17790 Off ch=1 n=g5 v=64
17796 On ch=1 n=g#5 v=64
17796 On ch=1 n=f5 v=64
17820 Off ch=1 n=f5 v=64
17820 Off ch=1 n=g#5 v=64
17826 On ch=1 n=g5 v=64
17826 On ch=1 n=a#5 v=64
17850 Off ch=1 n=a#5 v=64
17850 Off ch=1 n=g5 v=64
17856 On ch=1 n=g#5 v=64
17856 On ch=1 n=c6 v=64
17880 Off ch=1 n=c6 v=64
17880 Off ch=1 n=g#5 v=64
17886 On ch=1 n=a#5 v=64
17886 On ch=1 n=d6 v=64
17910 Off ch=1 n=d6 v=64
17910 Off ch=1 n=a#5 v=64
17916 On ch=1 n=d#6 v=64
17916 On ch=1 n=c6 v=64
17940 Off ch=1 n=c6 v=64
17940 Off ch=1 n=d#6 v=64
17946 On ch=1 n=d6 v=64
17946 On ch=1 n=f6 v=64
17970 Off ch=1 n=f6 v=64
17970 Off ch=1 n=d6 v=64
17976 On ch=1 n=d#6 v=64
17976 On ch=1 n=g6 v=64
18000 Off ch=1 n=g6 v=64
18000 Off ch=1 n=d#6 v=64
18006 On ch=1 n=f6 v=64
18006 On ch=1 n=g#6 v=64
18030 Off ch=1 n=g#6 v=64
18030 Off ch=1 n=f6 v=64
18036 On ch=1 n=g6 v=64
18036 On ch=1 n=a#6 v=64
18060 Off ch=1 n=a#6 v=64
18060 Off ch=1 n=g6 v=64
18066 On ch=1 n=g#6 v=64
18066 On ch=1 n=c7 v=64
18090 Off ch=1 n=c7 v=64
18090 Off ch=1 n=g#6 v=64
18096 On ch=1 n=d7 v=64
18096 On ch=1 n=f6 v=64
18120 Off ch=1 n=f6 v=64
18120 Off ch=1 n=d7 v=64
18126 On ch=1 n=d#7 v=64
18126 On ch=1 n=g6 v=64
18198 Off ch=1 n=g6 v=64
18198 Off ch=1 n=d#7 v=64
18216 On ch=1 n=a#6 v=64
18240 Off ch=1 n=a#6 v=64
18246 On ch=1 n=a#6 v=64
18254 Off ch=1 n=a#6 v=64
18256 On ch=1 n=c7 v=64
18264 Off ch=1 n=c7 v=64
18266 On ch=1 n=a#6 v=64
18274 Off ch=1 n=a#6 v=64
18276 On ch=1 n=c7 v=64
18284 Off ch=1 n=c7 v=64
18286 On ch=1 n=a#6 v=64
18294 Off ch=1 n=a#6 v=64
18296 On ch=1 n=c7 v=64
18304 Off ch=1 n=c7 v=64
18306 On ch=1 n=a#6 v=64
18378 Off ch=1 n=a#6 v=64
18486 On ch=1 n=a#6 v=64
18510 Off ch=1 n=a#6 v=64
18516 On ch=1 n=a#6 v=64
18524 Off ch=1 n=a#6 v=64
18526 On ch=1 n=c7 v=64
18534 Off ch=1 n=c7 v=64
18536 On ch=1 n=a#6 v=64
18544 Off ch=1 n=a#6 v=64
18546 On ch=1 n=c7 v=64
18554 Off ch=1 n=c7 v=64
18556 On ch=1 n=a#6 v=64
18564 Off ch=1 n=a#6 v=64
18566 On ch=1 n=c7 v=64
18574 Off ch=1 n=c7 v=64
18576 On ch=1 n=a#6 v=64
18588 Off ch=1 n=a#6 v=64
18591 On ch=1 n=a6 v=64
18603 Off ch=1 n=a6 v=64
18606 On ch=1 n=a#6 v=64
18702 Off ch=1 n=a#6 v=64
18846 On ch=1 n=a#5 v=64
18942 Off ch=1 n=a#5 v=64
19086 On ch=1 n=d#5 v=64
19094 Off ch=1 n=d#5 v=64
19096 On ch=1 n=g5 v=64
19104 Off ch=1 n=g5 v=64
19106 On ch=1 n=a#5 v=64
19114 Off ch=1 n=a#5 v=64
19116 On ch=1 n=d#6 v=64
19164 Off ch=1 n=d#6 v=64
19176 On ch=1 n=a#5 v=64
19200 Off ch=1 n=a#5 v=64
19206 On ch=1 n=c6 v=64
19214 Off ch=1 n=c6 v=64
19216 On ch=1 n=a#5 v=64
19224 Off ch=1 n=a#5 v=64
19226 On ch=1 n=c6 v=64
19234 Off ch=1 n=c6 v=64
19236 On ch=1 n=a#5 v=64
19244 Off ch=1 n=a#5 v=64
19246 On ch=1 n=c6 v=64
19254 Off ch=1 n=c6 v=64
19256 On ch=1 n=a#5 v=64
19264 Off ch=1 n=a#5 v=64
19266 On ch=1 n=c6 v=64
19274 Off ch=1 n=c6 v=64
19276 On ch=1 n=a#5 v=64
19284 Off ch=1 n=a#5 v=64
19286 On ch=1 n=c6 v=64
19294 Off ch=1 n=c6 v=64
19296 On ch=1 n=a#5 v=64
19304 Off ch=1 n=a#5 v=64
19306 On ch=1 n=c6 v=64
19314 Off ch=1 n=c6 v=64
19316 On ch=1 n=a#5 v=64
19324 Off ch=1 n=a#5 v=64
19416 On ch=1 n=a#5 v=64
19440 Off ch=1 n=a#5 v=64
19446 On ch=1 n=c6 v=64
19454 Off ch=1 n=c6 v=64
19456 On ch=1 n=a#5 v=64
19464 Off ch=1 n=a#5 v=64
19466 On ch=1 n=c6 v=64
19474 Off ch=1 n=c6 v=64
19476 On ch=1 n=a#5 v=64
19484 Off ch=1 n=a#5 v=64
19486 On ch=1 n=c6 v=64
19494 Off ch=1 n=c6 v=64
19496 On ch=1 n=a#5 v=64
19504 Off ch=1 n=a#5 v=64
19506 On ch=1 n=c6 v=64
19514 Off ch=1 n=c6 v=64
19516 On ch=1 n=a#5 v=64
19524 Off ch=1 n=a#5 v=64
19526 On ch=1 n=c6 v=64
19534 Off ch=1 n=c6 v=64
19536 On ch=1 n=a#5 v=64
19548 Off ch=1 n=a#5 v=64
19551 On ch=1 n=a5 v=64
19563 Off ch=1 n=a5 v=64
19566 On ch=1 n=a#5 v=64
19662 Off ch=1 n=a#5 v=64
19806 On ch=1 n=a#4 v=64
19902 Off ch=1 n=a#4 v=64
20286 On ch=1 n=f5 v=64
20298 Off ch=1 n=f5 v=64
20301 On ch=1 n=g5 v=64
20313 Off ch=1 n=g5 v=64
20316 On ch=1 n=g#5 v=64
20328 Off ch=1 n=g#5 v=64
20331 On ch=1 n=a#5 v=64
20343 Off ch=1 n=a#5 v=64
20346 On ch=1 n=c6 v=64
20358 Off ch=1 n=c6 v=64
20361 On ch=1 n=d6 v=64
20373 Off ch=1 n=d6 v=64
20376 On ch=1 n=d#6 v=64
20388 Off ch=1 n=d#6 v=64
20391 On ch=1 n=f6 v=64
20403 Off ch=1 n=f6 v=64
20406 On ch=1 n=g6 v=64
20422 Off ch=1 n=g6 v=64
20426 On ch=1 n=g#6 v=64
20442 Off ch=1 n=g#6 v=64
20446 On ch=1 n=a#6 v=64
20462 Off ch=1 n=a#6 v=64
20466 On ch=1 n=c7 v=64
20482 Off ch=1 n=c7 v=64
20486 On ch=1 n=d7 v=64
20502 Off ch=1 n=d7 v=64
20506 On ch=1 n=d#7 v=64
20522 Off ch=1 n=d#7 v=64
20526 On ch=1 n=d#7 v=64
20622 Off ch=1 n=d#7 v=64
20766 On ch=1 n=d#6 v=64
20862 Off ch=1 n=d#6 v=64
21006 On ch=1 n=c5 v=64
21033 Off ch=1 n=c5 v=64
21066 On ch=1 n=b4 v=64
21114 Off ch=1 n=b4 v=64
21126 On ch=1 n=c5 v=64
21153 Off ch=1 n=c5 v=64
21186 On ch=1 n=e5 v=64
21234 Off ch=1 n=e5 v=64
21246 On ch=1 n=f5 v=64
21273 Off ch=1 n=f5 v=64
21306 On ch=1 n=g5 v=64
21354 Off ch=1 n=g5 v=64
21366 On ch=1 n=g#5 v=64
21393 Off ch=1 n=g#5 v=64
21426 On ch=1 n=b5 v=64
21474 Off ch=1 n=b5 v=64
21486 On ch=1 n=c6 v=64
21496 Off ch=1 n=c6 v=64
21513 On ch=1 n=e6 v=64
21537 Off ch=1 n=e6 v=64
21543 On ch=1 n=f6 v=64
21553 Off ch=1 n=f6 v=64
21570 On ch=1 n=g6 v=64
21594 Off ch=1 n=g6 v=64
21600 On ch=1 n=g#6 v=64
21610 Off ch=1 n=g#6 v=64
21627 On ch=1 n=b6 v=64
21651 Off ch=1 n=b6 v=64
21657 On ch=1 n=c7 v=64
21667 Off ch=1 n=c7 v=64
21684 On ch=1 n=d7 v=64
21708 Off ch=1 n=d7 v=64
21714 On ch=1 n=d#7 v=64
21724 Off ch=1 n=d#7 v=64
21741 On ch=1 n=b6 v=64
21765 Off ch=1 n=b6 v=64
21771 On ch=1 n=c7 v=64
21781 Off ch=1 n=c7 v=64
21798 On ch=1 n=g6 v=64
21822 Off ch=1 n=g6 v=64
21828 On ch=1 n=g#6 v=64
21838 Off ch=1 n=g#6 v=64
21855 On ch=1 n=e6 v=64
21879 Off ch=1 n=e6 v=64
21885 On ch=1 n=f6 v=64
21895 Off ch=1 n=f6 v=64
21912 On ch=1 n=a5 v=64
21936 Off ch=1 n=a5 v=64
21942 On ch=1 n=a#5 v=64
22134 Off ch=1 n=a#5 v=64
22182 On ch=1 n=c6 v=64
22206 Off ch=1 n=c6 v=64
22212 On ch=1 n=a#5 v=64
22236 Off ch=1 n=a#5 v=64
22242 On ch=1 n=g#5 v=64
22266 Off ch=1 n=g#5 v=64
22272 On ch=1 n=g5 v=64
22296 Off ch=1 n=g5 v=64
22302 On ch=1 n=g#5 v=64
22326 Off ch=1 n=g#5 v=64
22332 On ch=1 n=a#5 v=64
22356 Off ch=1 n=a#5 v=64
22362 On ch=1 n=c6 v=64
22386 Off ch=1 n=c6 v=64
22392 On ch=1 n=d6 v=64
22416 Off ch=1 n=d6 v=64
22422 On ch=1 n=d#6 v=64
22434 Off ch=1 n=d#6 v=64
22437 On ch=1 n=f6 v=64
22449 Off ch=1 n=f6 v=64
22452 On ch=1 n=d#6 v=64
22464 Off ch=1 n=d#6 v=64
22467 On ch=1 n=d6 v=64
22479 Off ch=1 n=d6 v=64
22482 On ch=1 n=d#6 v=64
22494 Off ch=1 n=d#6 v=64
22497 On ch=1 n=f6 v=64
22509 Off ch=1 n=f6 v=64
22512 On ch=1 n=g6 v=64
22524 Off ch=1 n=g6 v=64
22527 On ch=1 n=g#6 v=64
22539 Off ch=1 n=g#6 v=64
22542 On ch=1 n=c7 v=64
22554 Off ch=1 n=c7 v=64
22557 On ch=1 n=a#6 v=64
22569 Off ch=1 n=a#6 v=64
22572 On ch=1 n=g#6 v=64
22584 Off ch=1 n=g#6 v=64
22587 On ch=1 n=g6 v=64
22599 Off ch=1 n=g6 v=64
22602 On ch=1 n=g#6 v=64
22614 Off ch=1 n=g#6 v=64
22617 On ch=1 n=a#6 v=64
22629 Off ch=1 n=a#6 v=64
22632 On ch=1 n=c7 v=64
22644 Off ch=1 n=c7 v=64
22647 On ch=1 n=d7 v=64
22659 Off ch=1 n=d7 v=64
22662 On ch=1 n=d#7 v=64
22672 Off ch=1 n=d#7 v=64
22689 On ch=1 n=d7 v=64
22699 Off ch=1 n=d7 v=64
22716 On ch=1 n=c7 v=64
22726 Off ch=1 n=c7 v=64
22743 On ch=1 n=a#6 v=64
22753 Off ch=1 n=a#6 v=64
22770 On ch=1 n=a6 v=64
22780 Off ch=1 n=a6 v=64
22797 On ch=1 n=a#6 v=64
22807 Off ch=1 n=a#6 v=64
22824 On ch=1 n=c7 v=64
22834 Off ch=1 n=c7 v=64
22851 On ch=1 n=a#6 v=64
22861 Off ch=1 n=a#6 v=64
22878 On ch=1 n=b6 v=64
22926 Off ch=1 n=b6 v=64
22938 On ch=1 n=c7 v=64
22986 Off ch=1 n=c7 v=64
22998 On ch=1 n=d7 v=64
23046 Off ch=1 n=d7 v=64
23058 On ch=1 n=c7 v=64
23106 Off ch=1 n=c7 v=64
23118 On ch=1 n=a#6 v=64
23142 Off ch=1 n=a#6 v=64
23148 On ch=1 n=g#6 v=64
23172 Off ch=1 n=g#6 v=64
23178 On ch=1 n=g6 v=64
23202 Off ch=1 n=g6 v=64
23208 On ch=1 n=f6 v=64
23232 Off ch=1 n=f6 v=64
23238 On ch=1 n=e6 v=64
23274 Off ch=1 n=e6 v=64
23283 On ch=1 n=f6 v=64
23295 Off ch=1 n=f6 v=64
23298 On ch=1 n=g#6 v=64
23334 Off ch=1 n=g#6 v=64
23343 On ch=1 n=f6 v=64
23355 Off ch=1 n=f6 v=64
23358 On ch=1 n=d#6 v=64
23374 Off ch=1 n=d#6 v=64
23378 On ch=1 n=f6 v=64
23394 Off ch=1 n=f6 v=64
23398 On ch=1 n=g6 v=64
23414 Off ch=1 n=g6 v=64
23418 On ch=1 n=f6 v=64
23426 Off ch=1 n=f6 v=64
23428 On ch=1 n=g6 v=64
23436 Off ch=1 n=g6 v=64
23438 On ch=1 n=f6 v=64
23446 Off ch=1 n=f6 v=64
23448 On ch=1 n=g6 v=64
23456 Off ch=1 n=g6 v=64
23458 On ch=1 n=f6 v=64
23466 Off ch=1 n=f6 v=64
23468 On ch=1 n=g6 v=64
23476 Off ch=1 n=g6 v=64
23478 On ch=1 n=f6 v=64
23486 Off ch=1 n=f6 v=64
23488 On ch=1 n=g6 v=64
23496 Off ch=1 n=g6 v=64
23498 On ch=1 n=f6 v=64
23506 Off ch=1 n=f6 v=64
23508 On ch=1 n=g6 v=64
23516 Off ch=1 n=g6 v=64
23518 On ch=1 n=f6 v=64
23526 Off ch=1 n=f6 v=64
23528 On ch=1 n=g6 v=64
23536 Off ch=1 n=g6 v=64
23538 On ch=1 n=f6 v=64
23546 Off ch=1 n=f6 v=64
23548 On ch=1 n=g6 v=64
23556 Off ch=1 n=g6 v=64
23558 On ch=1 n=f6 v=64
23566 Off ch=1 n=f6 v=64
23568 On ch=1 n=g6 v=64
23576 Off ch=1 n=g6 v=64
23578 On ch=1 n=f6 v=64
23586 Off ch=1 n=f6 v=64
23588 On ch=1 n=g6 v=64
23596 Off ch=1 n=g6 v=64
23598 On ch=1 n=f6 v=64
23606 Off ch=1 n=f6 v=64
23608 On ch=1 n=g6 v=64
23616 Off ch=1 n=g6 v=64
23618 On ch=1 n=f6 v=64
23626 Off ch=1 n=f6 v=64
23628 On ch=1 n=g6 v=64
23636 Off ch=1 n=g6 v=64
23638 On ch=1 n=f6 v=64
23646 Off ch=1 n=f6 v=64
23648 On ch=1 n=g6 v=64
23656 Off ch=1 n=g6 v=64
23658 On ch=1 n=f6 v=64
23666 Off ch=1 n=f6 v=64
23668 On ch=1 n=g6 v=64
23676 Off ch=1 n=g6 v=64
23678 On ch=1 n=f6 v=64
23686 Off ch=1 n=f6 v=64
23688 On ch=1 n=g6 v=64
23696 Off ch=1 n=g6 v=64
23698 On ch=1 n=f6 v=64
23706 Off ch=1 n=f6 v=64
23708 On ch=1 n=g6 v=64
23716 Off ch=1 n=g6 v=64
23718 On ch=1 n=f6 v=64
23726 Off ch=1 n=f6 v=64
23728 On ch=1 n=g6 v=64
23736 Off ch=1 n=g6 v=64
23738 On ch=1 n=f6 v=64
23746 Off ch=1 n=f6 v=64
23748 On ch=1 n=g6 v=64
23756 Off ch=1 n=g6 v=64
23758 On ch=1 n=f6 v=64
23766 Off ch=1 n=f6 v=64
23768 On ch=1 n=g6 v=64
23776 Off ch=1 n=g6 v=64
23778 On ch=1 n=f6 v=64
23794 Off ch=1 n=f6 v=64
23798 On ch=1 n=d#6 v=64
23814 Off ch=1 n=d#6 v=64
23818 On ch=1 n=f6 v=64
23834 Off ch=1 n=f6 v=64
23838 On ch=1 n=d#6 v=64
23870 Off ch=1 n=d#6 v=64
23878 On ch=1 n=d#6 v=64
23896 Off ch=1 n=d#6 v=64
23918 On ch=1 n=d6 v=64
23936 Off ch=1 n=d6 v=64
23958 On ch=1 n=c#6 v=64
23976 Off ch=1 n=c#6 v=64
23998 On ch=1 n=c6 v=64
24016 Off ch=1 n=c6 v=64
24038 On ch=1 n=b5 v=64
24056 Off ch=1 n=b5 v=64
24078 On ch=1 n=a#5 v=64
24318 On ch=1 n=g5 v=64
24345 Off ch=1 n=a#5 v=64
24345 Off ch=1 n=g5 v=64
24378 On ch=1 n=g5 v=64
24378 On ch=1 n=a#5 v=64
24405 Off ch=1 n=a#5 v=64
24405 Off ch=1 n=g5 v=64
24498 On ch=1 n=c6 v=64
24498 On ch=1 n=g#5 v=64
24522 Off ch=1 n=g#5 v=64
24522 Off ch=1 n=c6 v=64
24528 On ch=1 n=g#5 v=64
24528 On ch=1 n=f5 v=64
24552 Off ch=1 n=f5 v=64
24552 Off ch=1 n=g#5 v=64
24558 On ch=1 n=d#5 v=64
24558 On ch=1 n=g5 v=64
24585 Off ch=1 n=g5 v=64
24585 Off ch=1 n=d#5 v=64
24618 On ch=1 n=g5 v=64
24618 On ch=1 n=d#5 v=64
24645 Off ch=1 n=d#5 v=64
24645 Off ch=1 n=g5 v=64
24738 On ch=1 n=g#5 v=64
24738 On ch=1 n=f5 v=64
24762 Off ch=1 n=f5 v=64
24762 Off ch=1 n=g#5 v=64
24768 On ch=1 n=d5 v=64
24768 On ch=1 n=f5 v=64
24792 Off ch=1 n=f5 v=64
24792 Off ch=1 n=d5 v=64
24798 On ch=1 n=d#5 v=64
24830 Off ch=1 n=d#5 v=64
24838 On ch=1 n=d#6 v=64
24856 Off ch=1 n=d#6 v=64
24878 On ch=1 n=d6 v=64
24896 Off ch=1 n=d6 v=64
24918 On ch=1 n=c#6 v=64
24936 Off ch=1 n=c#6 v=64
24958 On ch=1 n=c6 v=64
24976 Off ch=1 n=c6 v=64
24998 On ch=1 n=b5 v=64
25016 Off ch=1 n=b5 v=64
25038 On ch=1 n=a#5 v=64
25278 On ch=1 n=g5 v=64
25305 Off ch=1 n=g5 v=64
25305 Off ch=1 n=a#5 v=64
25338 On ch=1 n=a#5 v=64
25338 On ch=1 n=g5 v=64
25365 Off ch=1 n=g5 v=64
25365 Off ch=1 n=a#5 v=64
25458 On ch=1 n=g#5 v=64
25458 On ch=1 n=c6 v=64
25482 Off ch=1 n=c6 v=64
25482 Off ch=1 n=g#5 v=64
25488 On ch=1 n=f5 v=64
25488 On ch=1 n=g#5 v=64
25512 Off ch=1 n=g#5 v=64
25512 Off ch=1 n=f5 v=64
25518 On ch=1 n=g5 v=64
25518 On ch=1 n=d#5 v=64
25545 Off ch=1 n=d#5 v=64
25545 Off ch=1 n=g5 v=64
25578 On ch=1 n=d#5 v=64
25578 On ch=1 n=g5 v=64
25605 Off ch=1 n=g5 v=64
25605 Off ch=1 n=d#5 v=64
25698 On ch=1 n=f5 v=64
25698 On ch=1 n=g#5 v=64
25722 Off ch=1 n=g#5 v=64
25722 Off ch=1 n=f5 v=64
25728 On ch=1 n=f5 v=64
25728 On ch=1 n=d5 v=64
25752 Off ch=1 n=d5 v=64
25752 Off ch=1 n=f5 v=64
25758 On ch=1 n=d#5 v=64
25806 Off ch=1 n=d#5 v=64
25848 On ch=1 n=a#4 v=64
25858 Off ch=1 n=a#4 v=64
25875 On ch=1 n=c5 v=64
25887 Off ch=1 n=c5 v=64
25890 On ch=1 n=a#4 v=64
25902 Off ch=1 n=a#4 v=64
25905 On ch=1 n=c5 v=64
25917 Off ch=1 n=c5 v=64
25920 On ch=1 n=a#4 v=64
25932 Off ch=1 n=a#4 v=64
25935 On ch=1 n=c5 v=64
25947 Off ch=1 n=c5 v=64
25950 On ch=1 n=a#4 v=64
25962 Off ch=1 n=a#4 v=64
25965 On ch=1 n=a4 v=64
25977 Off ch=1 n=a4 v=64
25980 On ch=1 n=a#4 v=64
25992 Off ch=1 n=a#4 v=64
25995 On ch=1 n=g5 v=64
26049 Off ch=1 n=g5 v=64
26115 On ch=1 n=d5 v=64
26115 On ch=1 n=f5 v=64
26115 On ch=1 n=g#4 v=64
26169 Off ch=1 n=g#4 v=64
26169 Off ch=1 n=f5 v=64
26169 Off ch=1 n=d5 v=64
26235 On ch=1 n=f5 v=64
26235 On ch=1 n=g#4 v=64
26235 On ch=1 n=d5 v=64
26427 Off ch=1 n=d5 v=64
26427 Off ch=1 n=g#4 v=64
26427 Off ch=1 n=f5 v=64
26475 On ch=1 n=g4 v=64
26475 On ch=1 n=d#5 v=64
26571 Off ch=1 n=d#5 v=64
26571 Off ch=1 n=g4 v=64
26775 On ch=1 n=c5 v=64
26783 Off ch=1 n=c5 v=64
26785 On ch=1 n=d#5 v=64
26793 Off ch=1 n=d#5 v=64
26795 On ch=1 n=g5 v=64
26803 Off ch=1 n=g5 v=64
26805 On ch=1 n=c6 v=64
26817 Off ch=1 n=c6 v=64
26820 On ch=1 n=d#6 v=64
26832 Off ch=1 n=d#6 v=64
26835 On ch=1 n=g6 v=64
27027 Off ch=1 n=g6 v=64
27075 On ch=1 n=f6 v=64
27099 Off ch=1 n=f6 v=64
27105 On ch=1 n=d#6 v=64
27129 Off ch=1 n=d#6 v=64
27135 On ch=1 n=d6 v=64
27159 Off ch=1 n=d6 v=64
27165 On ch=1 n=c6 v=64
27189 Off ch=1 n=c6 v=64
27195 On ch=1 n=b5 v=64
27339 Off ch=1 n=b5 v=64
27375 On ch=1 n=f6 v=64
27423 Off ch=1 n=f6 v=64
27435 On ch=1 n=g#6 v=64
27579 Off ch=1 n=g#6 v=64
27615 On ch=1 n=b5 v=64
27663 Off ch=1 n=b5 v=64
27675 On ch=1 n=c6 v=64
27747 Off ch=1 n=c6 v=64
27750 On ch=1 n=d6 v=64
27762 Off ch=1 n=d6 v=64
27765 On ch=1 n=c6 v=64
27777 Off ch=1 n=c6 v=64
27780 On ch=1 n=b5 v=64
27792 Off ch=1 n=b5 v=64
27795 On ch=1 n=c6 v=64
27843 Off ch=1 n=c6 v=64
27855 On ch=1 n=b6 v=64
27903 Off ch=1 n=b6 v=64
27915 On ch=1 n=b6 v=64
28011 Off ch=1 n=b6 v=64
28035 On ch=1 n=c7 v=64
28083 Off ch=1 n=c7 v=64
28335 On ch=1 n=c6 v=64
28383 Off ch=1 n=c6 v=64
28395 On ch=1 n=c6 v=64
28467 Off ch=1 n=c6 v=64
28470 On ch=1 n=d6 v=64
28482 Off ch=1 n=d6 v=64
28485 On ch=1 n=c6 v=64
28497 Off ch=1 n=c6 v=64
28500 On ch=1 n=b5 v=64
28512 Off ch=1 n=b5 v=64
28515 On ch=1 n=c6 v=64
28563 Off ch=1 n=c6 v=64
28575 On ch=1 n=d#6 v=64
28731 Off ch=1 n=d#6 v=64
28755 On ch=1 n=d6 v=64
28947 Off ch=1 n=d6 v=64
28995 On ch=1 n=g#6 v=64
29187 Off ch=1 n=g#6 v=64
29235 On ch=1 n=g6 v=64
29427 Off ch=1 n=g6 v=64
29475 On ch=1 n=f6 v=64
29643 Off ch=1 n=f6 v=64
29655 On ch=1 n=d#6 v=64
29703 Off ch=1 n=d#6 v=64
29715 On ch=1 n=g#6 v=64
29763 Off ch=1 n=g#6 v=64
29775 On ch=1 n=g6 v=64
29823 Off ch=1 n=g6 v=64
29835 On ch=1 n=f#6 v=64
29843 Off ch=1 n=f#6 v=64
29845 On ch=1 n=g6 v=64
29853 Off ch=1 n=g6 v=64
29855 On ch=1 n=g#6 v=64
29863 Off ch=1 n=g#6 v=64
29865 On ch=1 n=g6 v=64
30033 Off ch=1 n=g6 v=64
30105 On ch=1 n=c5 v=64
30117 Off ch=1 n=c5 v=64
30120 On ch=1 n=d5 v=64
30132 Off ch=1 n=d5 v=64
30135 On ch=1 n=d#5 v=64
30147 Off ch=1 n=d#5 v=64
30150 On ch=1 n=f5 v=64
30162 Off ch=1 n=f5 v=64
30165 On ch=1 n=g5 v=64
30177 Off ch=1 n=g5 v=64
30180 On ch=1 n=g#5 v=64
30192 Off ch=1 n=g#5 v=64
30195 On ch=1 n=a#5 v=64
30207 Off ch=1 n=a#5 v=64
30210 On ch=1 n=c6 v=64
30222 Off ch=1 n=c6 v=64
30225 On ch=1 n=d6 v=64
30237 Off ch=1 n=d6 v=64
30240 On ch=1 n=d#6 v=64
30252 Off ch=1 n=d#6 v=64
30255 On ch=1 n=f6 v=64
30267 Off ch=1 n=f6 v=64
30270 On ch=1 n=g6 v=64
30282 Off ch=1 n=g6 v=64
30285 On ch=1 n=g#6 v=64
30290 Off ch=1 n=g#6 v=64
30292 On ch=1 n=a#6 v=64
30297 Off ch=1 n=a#6 v=64
30299 On ch=1 n=c7 v=64
30304 Off ch=1 n=c7 v=64
30306 On ch=1 n=d7 v=64
30318 Off ch=1 n=d7 v=64
30321 On ch=1 n=d#7 v=64
30651 Off ch=1 n=d#7 v=64
30675 On ch=1 n=d7 v=64
30867 Off ch=1 n=d7 v=64
30915 On ch=1 n=c7 v=64
31083 Off ch=1 n=c7 v=64
31095 On ch=1 n=b6 v=64
31191 Off ch=1 n=b6 v=64
31215 On ch=1 n=g#6 v=64
31311 Off ch=1 n=g#6 v=64
31335 On ch=1 n=g6 v=64
31431 Off ch=1 n=g6 v=64
31455 On ch=1 n=f6 v=64
31563 Off ch=1 n=f6 v=64
31575 On ch=1 n=d#6 v=64
31623 Off ch=1 n=d#6 v=64
31635 On ch=1 n=d6 v=64
31683 Off ch=1 n=d6 v=64
31695 On ch=1 n=c6 v=64
31743 Off ch=1 n=c6 v=64
31755 On ch=1 n=c6 v=64
31851 Off ch=1 n=c6 v=64
31965 On ch=1 n=f5 v=64
31975 Off ch=1 n=f5 v=64
31992 On ch=1 n=d#5 v=64
32000 Off ch=1 n=d#5 v=64
32002 On ch=1 n=f5 v=64
32010 Off ch=1 n=f5 v=64
32012 On ch=1 n=d#5 v=64
32020 Off ch=1 n=d#5 v=64
32022 On ch=1 n=f5 v=64
32030 Off ch=1 n=f5 v=64
32032 On ch=1 n=d#5 v=64
32040 Off ch=1 n=d#5 v=64
32042 On ch=1 n=f5 v=64
32050 Off ch=1 n=f5 v=64
32052 On ch=1 n=d#5 v=64
32106 Off ch=1 n=d#5 v=64
32202 On ch=1 n=g#5 v=64
32212 Off ch=1 n=g#5 v=64
32229 On ch=1 n=g5 v=64
32237 Off ch=1 n=g5 v=64
32239 On ch=1 n=g#5 v=64
32247 Off ch=1 n=g#5 v=64
32249 On ch=1 n=g5 v=64
32257 Off ch=1 n=g5 v=64
32259 On ch=1 n=g#5 v=64
32267 Off ch=1 n=g#5 v=64
32269 On ch=1 n=g5 v=64
32277 Off ch=1 n=g5 v=64
32279 On ch=1 n=g#5 v=64
32287 Off ch=1 n=g#5 v=64
32289 On ch=1 n=g5 v=64
32343 Off ch=1 n=g5 v=64
32439 On ch=1 n=f5 v=64
32449 Off ch=1 n=f5 v=64
32526 On ch=1 n=c6 v=64
32538 Off ch=1 n=c6 v=64
32541 On ch=1 n=d#6 v=64
32553 Off ch=1 n=d#6 v=64
32556 On ch=1 n=g6 v=64
32568 Off ch=1 n=g6 v=64
32571 On ch=1 n=c7 v=64
32583 Off ch=1 n=c7 v=64
32586 On ch=1 n=d#7 v=64
32778 Off ch=1 n=d#7 v=64
32826 On ch=1 n=d#7 v=64
32994 Off ch=1 n=d#7 v=64
33006 On ch=1 n=d7 v=64
33054 Off ch=1 n=d7 v=64
33066 On ch=1 n=c#7 v=64
33114 Off ch=1 n=c#7 v=64
33126 On ch=1 n=d7 v=64
33174 Off ch=1 n=d7 v=64
33186 On ch=1 n=c#7 v=64
33194 Off ch=1 n=c#7 v=64
33196 On ch=1 n=d7 v=64
33204 Off ch=1 n=d7 v=64
33206 On ch=1 n=d#7 v=64
33214 Off ch=1 n=d#7 v=64
33216 On ch=1 n=d7 v=64
33288 Off ch=1 n=d7 v=64
33486 On ch=1 n=g#5 v=64
33498 Off ch=1 n=g#5 v=64
33501 On ch=1 n=c6 v=64
33513 Off ch=1 n=c6 v=64
33516 On ch=1 n=d#6 v=64
33528 Off ch=1 n=d#6 v=64
33531 On ch=1 n=g#6 v=64
33543 Off ch=1 n=g#6 v=64
33546 On ch=1 n=c7 v=64
33738 Off ch=1 n=c7 v=64
33786 On ch=1 n=c7 v=64
33954 Off ch=1 n=c7 v=64
33966 On ch=1 n=a#6 v=64
34014 Off ch=1 n=a#6 v=64
34026 On ch=1 n=a6 v=64
34074 Off ch=1 n=a6 v=64
34086 On ch=1 n=a#6 v=64
34134 Off ch=1 n=a#6 v=64
34146 On ch=1 n=a6 v=64
34154 Off ch=1 n=a6 v=64
34156 On ch=1 n=a#6 v=64
34164 Off ch=1 n=a#6 v=64
34166 On ch=1 n=c7 v=64
34174 Off ch=1 n=c7 v=64
34176 On ch=1 n=a#6 v=64
34248 Off ch=1 n=a#6 v=64
34446 On ch=1 n=f5 v=64
34458 Off ch=1 n=f5 v=64
34461 On ch=1 n=g#5 v=64
34473 Off ch=1 n=g#5 v=64
34476 On ch=1 n=c6 v=64
34488 Off ch=1 n=c6 v=64
34491 On ch=1 n=f6 v=64
34503 Off ch=1 n=f6 v=64
34506 On ch=1 n=g#6 v=64
34698 Off ch=1 n=g#6 v=64
34746 On ch=1 n=g#6 v=64
34914 Off ch=1 n=g#6 v=64
34926 On ch=1 n=g6 v=64
34974 Off ch=1 n=g6 v=64
34986 On ch=1 n=f#6 v=64
35034 Off ch=1 n=f#6 v=64
35046 On ch=1 n=g6 v=64
35094 Off ch=1 n=g6 v=64
35136 On ch=1 n=g6 v=64
35160 Off ch=1 n=g6 v=64
35166 On ch=1 n=d#7 v=64
35176 Off ch=1 n=d#7 v=64
35193 On ch=1 n=d7 v=64
35203 Off ch=1 n=d7 v=64
35220 On ch=1 n=c7 v=64
35230 Off ch=1 n=c7 v=64
35247 On ch=1 n=a#6 v=64
35257 Off ch=1 n=a#6 v=64
35274 On ch=1 n=g#6 v=64
35284 Off ch=1 n=g#6 v=64
35301 On ch=1 n=g6 v=64
35355 Off ch=1 n=g6 v=64
35361 On ch=1 n=f6 v=64
35369 Off ch=1 n=f6 v=64
35371 On ch=1 n=g6 v=64
35379 Off ch=1 n=g6 v=64
35381 On ch=1 n=f6 v=64
35389 Off ch=1 n=f6 v=64
35391 On ch=1 n=d7 v=64
35401 Off ch=1 n=d7 v=64
35418 On ch=1 n=c7 v=64
35428 Off ch=1 n=c7 v=64
35445 On ch=1 n=b6 v=64
35455 Off ch=1 n=b6 v=64
35472 On ch=1 n=g#6 v=64
35482 Off ch=1 n=g#6 v=64
35499 On ch=1 n=g6 v=64
35509 Off ch=1 n=g6 v=64
35526 On ch=1 n=f6 v=64
35580 Off ch=1 n=f6 v=64
35586 On ch=1 n=d#6 v=64
35594 Off ch=1 n=d#6 v=64
35596 On ch=1 n=f6 v=64
35604 Off ch=1 n=f6 v=64
35606 On ch=1 n=d#6 v=64
35614 Off ch=1 n=d#6 v=64
35616 On ch=1 n=c7 v=64
35626 Off ch=1 n=c7 v=64
35643 On ch=1 n=a#6 v=64
35653 Off ch=1 n=a#6 v=64
35670 On ch=1 n=g#6 v=64
35680 Off ch=1 n=g#6 v=64
35697 On ch=1 n=g6 v=64
35707 Off ch=1 n=g6 v=64
35724 On ch=1 n=f6 v=64
35734 Off ch=1 n=f6 v=64
35751 On ch=1 n=d#6 v=64
35761 Off ch=1 n=d#6 v=64
35778 On ch=1 n=g6 v=64
35922 Off ch=1 n=g6 v=64
35958 On ch=1 n=d#6 v=64
36006 Off ch=1 n=d#6 v=64
36018 On ch=1 n=d6 v=64
36114 Off ch=1 n=d6 v=64
36318 On ch=1 n=c5 v=64
36330 Off ch=1 n=c5 v=64
36333 On ch=1 n=d#5 v=64
36345 Off ch=1 n=d#5 v=64
36348 On ch=1 n=g5 v=64
36360 Off ch=1 n=g5 v=64
36363 On ch=1 n=c6 v=64
36375 Off ch=1 n=c6 v=64
36378 On ch=1 n=d#6 v=64
36570 Off ch=1 n=d#6 v=64
36618 On ch=1 n=d#6 v=64
36770 Off ch=1 n=d#6 v=64
36778 On ch=1 n=c#6 v=64
36796 Off ch=1 n=c#6 v=64
36818 On ch=1 n=d6 v=64
36836 Off ch=1 n=d6 v=64
36858 On ch=1 n=d#6 v=64
36876 Off ch=1 n=d#6 v=64
36898 On ch=1 n=e6 v=64
36916 Off ch=1 n=e6 v=64
36938 On ch=1 n=f6 v=64
36956 Off ch=1 n=f6 v=64
36978 On ch=1 n=f#6 v=64
37074 Off ch=1 n=f#6 v=64
37098 On ch=1 n=g6 v=64
37146 Off ch=1 n=g6 v=64
37278 On ch=1 n=g#4 v=64
37290 Off ch=1 n=g#4 v=64
37293 On ch=1 n=c5 v=64
37305 Off ch=1 n=c5 v=64
37308 On ch=1 n=d#5 v=64
37320 Off ch=1 n=d#5 v=64
37323 On ch=1 n=g#5 v=64
37335 Off ch=1 n=g#5 v=64
37338 On ch=1 n=c6 v=64
37530 Off ch=1 n=c6 v=64
37578 On ch=1 n=c6 v=64
37730 Off ch=1 n=c6 v=64
37738 On ch=1 n=a5 v=64
37756 Off ch=1 n=a5 v=64
37778 On ch=1 n=a#5 v=64
37796 Off ch=1 n=a#5 v=64
37818 On ch=1 n=b5 v=64
37836 Off ch=1 n=b5 v=64
37858 On ch=1 n=c6 v=64
37876 Off ch=1 n=c6 v=64
37898 On ch=1 n=c#6 v=64
37916 Off ch=1 n=c#6 v=64
37938 On ch=1 n=d6 v=64
38034 Off ch=1 n=d6 v=64
38058 On ch=1 n=d#6 v=64
38106 Off ch=1 n=d#6 v=64
38238 On ch=1 n=f4 v=64
38250 Off ch=1 n=f4 v=64
38253 On ch=1 n=g#4 v=64
38265 Off ch=1 n=g#4 v=64
38268 On ch=1 n=c5 v=64
38280 Off ch=1 n=c5 v=64
38283 On ch=1 n=f5 v=64
38295 Off ch=1 n=f5 v=64
38298 On ch=1 n=g#5 v=64
38490 Off ch=1 n=g#5 v=64
38538 On ch=1 n=g#5 v=64
38682 Off ch=1 n=g#5 v=64
38688 On ch=1 n=f#5 v=64
38698 Off ch=1 n=f#5 v=64
38715 On ch=1 n=g5 v=64
38725 Off ch=1 n=g5 v=64
38742 On ch=1 n=g#5 v=64
38752 Off ch=1 n=g#5 v=64
38769 On ch=1 n=a5 v=64
38779 Off ch=1 n=a5 v=64
38796 On ch=1 n=a#5 v=64
38806 Off ch=1 n=a#5 v=64
38823 On ch=1 n=b5 v=64
38833 Off ch=1 n=b5 v=64
38850 On ch=1 n=c6 v=64
38860 Off ch=1 n=c6 v=64
38877 On ch=1 n=d6 v=64
38925 Off ch=1 n=d6 v=64
38937 On ch=1 n=c6 v=64
38985 Off ch=1 n=c6 v=64
38997 On ch=1 n=a#5 v=64
39045 Off ch=1 n=a#5 v=64
39057 On ch=1 n=g#5 v=64
39105 Off ch=1 n=g#5 v=64
39117 On ch=1 n=g5 v=64
39309 Off ch=1 n=g5 v=64
39357 On ch=1 n=f#5 v=64
39549 Off ch=1 n=f#5 v=64
39597 On ch=1 n=f5 v=64
39621 Off ch=1 n=f5 v=64
39627 On ch=1 n=c#5 v=64
39637 Off ch=1 n=c#5 v=64
39654 On ch=1 n=d5 v=64
39664 Off ch=1 n=d5 v=64
39681 On ch=1 n=d#5 v=64
39691 Off ch=1 n=d#5 v=64
39708 On ch=1 n=e5 v=64
39718 Off ch=1 n=e5 v=64
39735 On ch=1 n=f5 v=64
39745 Off ch=1 n=f5 v=64
39762 On ch=1 n=f#5 v=64
39772 Off ch=1 n=f#5 v=64
39789 On ch=1 n=g5 v=64
39799 Off ch=1 n=g5 v=64
39816 On ch=1 n=a#5 v=64
39864 Off ch=1 n=a#5 v=64
39876 On ch=1 n=g#5 v=64
39924 Off ch=1 n=g#5 v=64
39936 On ch=1 n=g5 v=64
39984 Off ch=1 n=g5 v=64
39996 On ch=1 n=f5 v=64
40044 Off ch=1 n=f5 v=64
40056 On ch=1 n=f5 v=64
40248 Off ch=1 n=f5 v=64
40296 On ch=1 n=d#5 v=64
40488 Off ch=1 n=d#5 v=64
40536 On ch=1 n=d5 v=64
40546 Off ch=1 n=d5 v=64
40563 On ch=1 n=d#5 v=64
40571 Off ch=1 n=d#5 v=64
40573 On ch=1 n=d5 v=64
40581 Off ch=1 n=d5 v=64
40583 On ch=1 n=c5 v=64
40591 Off ch=1 n=c5 v=64
40593 On ch=1 n=d5 v=64
40617 Off ch=1 n=d5 v=64
40623 On ch=1 n=d#5 v=64
40633 Off ch=1 n=d#5 v=64
40650 On ch=1 n=f5 v=64
40660 Off ch=1 n=f5 v=64
40677 On ch=1 n=g5 v=64
40685 Off ch=1 n=g5 v=64
40687 On ch=1 n=f5 v=64
40695 Off ch=1 n=f5 v=64
40697 On ch=1 n=e5 v=64
40705 Off ch=1 n=e5 v=64
40707 On ch=1 n=f5 v=64
40717 Off ch=1 n=f5 v=64
40734 On ch=1 n=g5 v=64
40744 Off ch=1 n=g5 v=64
40761 On ch=1 n=a#5 v=64
40809 Off ch=1 n=a#5 v=64
40821 On ch=1 n=g#5 v=64
40869 Off ch=1 n=g#5 v=64
40881 On ch=1 n=g5 v=64
40908 Off ch=1 n=g5 v=64
40941 On ch=1 n=f5 v=64
40968 Off ch=1 n=f5 v=64
41001 On ch=1 n=d#5 v=64
41145 Off ch=1 n=d#5 v=64
41181 On ch=1 n=f5 v=64
41205 Off ch=1 n=f5 v=64
41211 On ch=1 n=d#5 v=64
41235 Off ch=1 n=d#5 v=64
41241 On ch=1 n=d5 v=64
41337 Off ch=1 n=d5 v=64
41961 On ch=1 n=d#6 v=64
41961 On ch=1 n=g5 v=64
41961 On ch=1 n=a#5 v=64
41961 On ch=1 n=g6 v=64
42105 Off ch=1 n=g6 v=64
42105 Off ch=1 n=a#5 v=64
42105 Off ch=1 n=g5 v=64
42105 Off ch=1 n=d#6 v=64
42141 On ch=1 n=a#4 v=64
42141 On ch=1 n=g4 v=64
42189 Off ch=1 n=g4 v=64
42189 Off ch=1 n=a#4 v=64
42201 On ch=1 n=c5 v=64
42213 Off ch=1 n=c5 v=64
42216 On ch=1 n=a#4 v=64
42228 Off ch=1 n=a#4 v=64
42231 On ch=1 n=c5 v=64
42243 Off ch=1 n=c5 v=64
42246 On ch=1 n=a#4 v=64
42258 Off ch=1 n=a#4 v=64
42261 On ch=1 n=c5 v=64
42273 Off ch=1 n=c5 v=64
42276 On ch=1 n=a#4 v=64
42288 Off ch=1 n=a#4 v=64
42291 On ch=1 n=c5 v=64
42303 Off ch=1 n=c5 v=64
42306 On ch=1 n=a#4 v=64
42318 Off ch=1 n=a#4 v=64
42321 On ch=1 n=c5 v=64
42333 Off ch=1 n=c5 v=64
42336 On ch=1 n=a#4 v=64
42348 Off ch=1 n=a#4 v=64
42351 On ch=1 n=c5 v=64
42363 Off ch=1 n=c5 v=64
42366 On ch=1 n=a#4 v=64
42378 Off ch=1 n=a#4 v=64
42381 On ch=1 n=g#4 v=64
42405 Off ch=1 n=g#4 v=64
42411 On ch=1 n=a#4 v=64
42435 Off ch=1 n=a#4 v=64
42471 On ch=1 n=a#4 v=64
42471 On ch=1 n=g4 v=64
42495 Off ch=1 n=g4 v=64
42495 Off ch=1 n=a#4 v=64
42501 On ch=1 n=g#4 v=64
42501 On ch=1 n=c5 v=64
42525 Off ch=1 n=c5 v=64
42525 Off ch=1 n=g#4 v=64
42531 On ch=1 n=d5 v=64
42531 On ch=1 n=a#4 v=64
42555 Off ch=1 n=a#4 v=64
42555 Off ch=1 n=d5 v=64
42561 On ch=1 n=d#5 v=64
42561 On ch=1 n=c5 v=64
42585 Off ch=1 n=c5 v=64
42585 Off ch=1 n=d#5 v=64
42591 On ch=1 n=d5 v=64
42591 On ch=1 n=f5 v=64
42615 Off ch=1 n=f5 v=64
42615 Off ch=1 n=d5 v=64
42621 On ch=1 n=d#5 v=64
42621 On ch=1 n=g5 v=64
42645 Off ch=1 n=g5 v=64
42645 Off ch=1 n=d#5 v=64
42651 On ch=1 n=g#5 v=64
42651 On ch=1 n=f5 v=64
42675 Off ch=1 n=f5 v=64
42675 Off ch=1 n=g#5 v=64
42681 On ch=1 n=a#5 v=64
42681 On ch=1 n=g5 v=64
42705 Off ch=1 n=g5 v=64
42705 Off ch=1 n=a#5 v=64
42711 On ch=1 n=g#5 v=64
42711 On ch=1 n=c6 v=64
42735 Off ch=1 n=c6 v=64
42735 Off ch=1 n=g#5 v=64
42741 On ch=1 n=a#5 v=64
42741 On ch=1 n=d6 v=64
42765 Off ch=1 n=d6 v=64
42765 Off ch=1 n=a#5 v=64
42771 On ch=1 n=c6 v=64
42771 On ch=1 n=d#6 v=64
42795 Off ch=1 n=d#6 v=64
42795 Off ch=1 n=c6 v=64
42801 On ch=1 n=d6 v=64
42801 On ch=1 n=f6 v=64
42825 Off ch=1 n=f6 v=64
42825 Off ch=1 n=d6 v=64
42831 On ch=1 n=g6 v=64
42831 On ch=1 n=d#6 v=64
42855 Off ch=1 n=d#6 v=64
42855 Off ch=1 n=g6 v=64
42861 On ch=1 n=f6 v=64
42861 On ch=1 n=g#6 v=64
42885 Off ch=1 n=g#6 v=64
42885 Off ch=1 n=f6 v=64
42891 On ch=1 n=g6 v=64
42891 On ch=1 n=a#6 v=64
42915 Off ch=1 n=a#6 v=64
42915 Off ch=1 n=g6 v=64
42921 On ch=1 n=g#6 v=64
42921 On ch=1 n=c7 v=64
43065 Off ch=1 n=c7 v=64
43065 Off ch=1 n=g#6 v=64
43101 On ch=1 n=g#4 v=64
43101 On ch=1 n=c5 v=64
43149 Off ch=1 n=c5 v=64
43149 Off ch=1 n=g#4 v=64
43161 On ch=1 n=d5 v=64
43173 Off ch=1 n=d5 v=64
43176 On ch=1 n=c5 v=64
43188 Off ch=1 n=c5 v=64
43191 On ch=1 n=d5 v=64
43203 Off ch=1 n=d5 v=64
43206 On ch=1 n=c5 v=64
43218 Off ch=1 n=c5 v=64
43221 On ch=1 n=d5 v=64
43233 Off ch=1 n=d5 v=64
43236 On ch=1 n=c5 v=64
43248 Off ch=1 n=c5 v=64
43251 On ch=1 n=d5 v=64
43263 Off ch=1 n=d5 v=64
43266 On ch=1 n=c5 v=64
43278 Off ch=1 n=c5 v=64
43281 On ch=1 n=d5 v=64
43293 Off ch=1 n=d5 v=64
43296 On ch=1 n=c5 v=64
43308 Off ch=1 n=c5 v=64
43311 On ch=1 n=d5 v=64
43323 Off ch=1 n=d5 v=64
43326 On ch=1 n=c5 v=64
43338 Off ch=1 n=c5 v=64
43341 On ch=1 n=a#4 v=64
43365 Off ch=1 n=a#4 v=64
43371 On ch=1 n=c5 v=64
43395 Off ch=1 n=c5 v=64
43431 On ch=1 n=c5 v=64
43431 On ch=1 n=g#4 v=64
43455 Off ch=1 n=g#4 v=64
43455 Off ch=1 n=c5 v=64
43461 On ch=1 n=d5 v=64
43461 On ch=1 n=a#4 v=64
43485 Off ch=1 n=a#4 v=64
43485 Off ch=1 n=d5 v=64
43491 On ch=1 n=d#5 v=64
43491 On ch=1 n=c5 v=64
43515 Off ch=1 n=c5 v=64
43515 Off ch=1 n=d#5 v=64
43521 On ch=1 n=f5 v=64
43521 On ch=1 n=d5 v=64
43545 Off ch=1 n=d5 v=64
43545 Off ch=1 n=f5 v=64
43551 On ch=1 n=g5 v=64
43551 On ch=1 n=d#5 v=64
43575 Off ch=1 n=d#5 v=64
43575 Off ch=1 n=g5 v=64
43581 On ch=1 n=f5 v=64
43581 On ch=1 n=g#5 v=64
43605 Off ch=1 n=g#5 v=64
43605 Off ch=1 n=f5 v=64
43611 On ch=1 n=a#5 v=64
43611 On ch=1 n=g5 v=64
43635 Off ch=1 n=g5 v=64
43635 Off ch=1 n=a#5 v=64
43641 On ch=1 n=g#5 v=64
43641 On ch=1 n=c6 v=64
43665 Off ch=1 n=c6 v=64
43665 Off ch=1 n=g#5 v=64
43671 On ch=1 n=a#5 v=64
43671 On ch=1 n=d6 v=64
43695 Off ch=1 n=d6 v=64
43695 Off ch=1 n=a#5 v=64
43701 On ch=1 n=c6 v=64
43701 On ch=1 n=d#6 v=64
43725 Off ch=1 n=d#6 v=64
43725 Off ch=1 n=c6 v=64
43731 On ch=1 n=f6 v=64
43731 On ch=1 n=d6 v=64
43755 Off ch=1 n=d6 v=64
43755 Off ch=1 n=f6 v=64
43761 On ch=1 n=g6 v=64
43761 On ch=1 n=d#6 v=64
43785 Off ch=1 n=d#6 v=64
43785 Off ch=1 n=g6 v=64
43791 On ch=1 n=g#6 v=64
43791 On ch=1 n=f6 v=64
43815 Off ch=1 n=f6 v=64
43815 Off ch=1 n=g#6 v=64
43821 On ch=1 n=g6 v=64
43821 On ch=1 n=a#6 v=64
43845 Off ch=1 n=a#6 v=64
43845 Off ch=1 n=g6 v=64
43851 On ch=1 n=g#6 v=64
43851 On ch=1 n=c7 v=64
43875 Off ch=1 n=c7 v=64
43875 Off ch=1 n=g#6 v=64
43881 On ch=1 n=f6 v=64
43881 On ch=1 n=a#6 v=64
43881 On ch=1 n=d6 v=64
44025 Off ch=1 n=d6 v=64
44025 Off ch=1 n=a#6 v=64
44025 Off ch=1 n=f6 v=64
44061 On ch=1 n=d5 v=64
44061 On ch=1 n=f4 v=64
44061 On ch=1 n=g#4 v=64
44109 Off ch=1 n=g#4 v=64
44109 Off ch=1 n=f4 v=64
44109 Off ch=1 n=d5 v=64
44121 On ch=1 n=f4 v=64
44121 On ch=1 n=d5 v=64
44313 Off ch=1 n=d5 v=64
44313 Off ch=1 n=f4 v=64
44391 On ch=1 n=d5 v=64
44391 On ch=1 n=a#4 v=64
44415 Off ch=1 n=a#4 v=64
44415 Off ch=1 n=d5 v=64
44421 On ch=1 n=d#5 v=64
44421 On ch=1 n=c5 v=64
44445 Off ch=1 n=c5 v=64
44445 Off ch=1 n=d#5 v=64
44451 On ch=1 n=f5 v=64
44451 On ch=1 n=d5 v=64
44475 Off ch=1 n=d5 v=64
44475 Off ch=1 n=f5 v=64
44481 On ch=1 n=g5 v=64
44481 On ch=1 n=d#5 v=64
44505 Off ch=1 n=d#5 v=64
44505 Off ch=1 n=g5 v=64
44511 On ch=1 n=g#5 v=64
44511 On ch=1 n=f5 v=64
44535 Off ch=1 n=f5 v=64
44535 Off ch=1 n=g#5 v=64
44541 On ch=1 n=a#5 v=64
44541 On ch=1 n=g5 v=64
44565 Off ch=1 n=g5 v=64
44565 Off ch=1 n=a#5 v=64
44571 On ch=1 n=c6 v=64
44571 On ch=1 n=g#5 v=64
44595 Off ch=1 n=g#5 v=64
44595 Off ch=1 n=c6 v=64
44601 On ch=1 n=a#5 v=64
44601 On ch=1 n=d6 v=64
44625 Off ch=1 n=d6 v=64
44625 Off ch=1 n=a#5 v=64
44631 On ch=1 n=c6 v=64
44631 On ch=1 n=d#6 v=64
44655 Off ch=1 n=d#6 v=64
44655 Off ch=1 n=c6 v=64
44661 On ch=1 n=f6 v=64
44661 On ch=1 n=d6 v=64
44685 Off ch=1 n=d6 v=64
44685 Off ch=1 n=f6 v=64
44691 On ch=1 n=g6 v=64
44691 On ch=1 n=d#6 v=64
44715 Off ch=1 n=d#6 v=64
44715 Off ch=1 n=g6 v=64
44721 On ch=1 n=f6 v=64
44721 On ch=1 n=g#6 v=64
44745 Off ch=1 n=g#6 v=64
44745 Off ch=1 n=f6 v=64
44751 On ch=1 n=g6 v=64
44751 On ch=1 n=a#6 v=64
44775 Off ch=1 n=a#6 v=64
44775 Off ch=1 n=g6 v=64
44781 On ch=1 n=c7 v=64
44781 On ch=1 n=g#6 v=64
44805 Off ch=1 n=g#6 v=64
44805 Off ch=1 n=c7 v=64
44811 On ch=1 n=f6 v=64
44811 On ch=1 n=d7 v=64
44835 Off ch=1 n=d7 v=64
44835 Off ch=1 n=f6 v=64
44841 On ch=1 n=g6 v=64
44841 On ch=1 n=d#7 v=64
44913 Off ch=1 n=d#7 v=64
44913 Off ch=1 n=g6 v=64
44931 On ch=1 n=a#6 v=64
44955 Off ch=1 n=a#6 v=64
44961 On ch=1 n=a#6 v=64
44969 Off ch=1 n=a#6 v=64
44971 On ch=1 n=c7 v=64
44979 Off ch=1 n=c7 v=64
44981 On ch=1 n=a#6 v=64
44989 Off ch=1 n=a#6 v=64
44991 On ch=1 n=c7 v=64
44999 Off ch=1 n=c7 v=64
45001 On ch=1 n=a#6 v=64
45009 Off ch=1 n=a#6 v=64
45011 On ch=1 n=c7 v=64
45019 Off ch=1 n=c7 v=64
45021 On ch=1 n=a#6 v=64
45093 Off ch=1 n=a#6 v=64
45201 On ch=1 n=a#6 v=64
45225 Off ch=1 n=a#6 v=64
45231 On ch=1 n=a#6 v=64
45239 Off ch=1 n=a#6 v=64
45241 On ch=1 n=c7 v=64
45249 Off ch=1 n=c7 v=64
45251 On ch=1 n=a#6 v=64
45259 Off ch=1 n=a#6 v=64
45261 On ch=1 n=c7 v=64
45269 Off ch=1 n=c7 v=64
45271 On ch=1 n=a#6 v=64
45279 Off ch=1 n=a#6 v=64
45281 On ch=1 n=c7 v=64
45289 Off ch=1 n=c7 v=64
45291 On ch=1 n=a#6 v=64
45303 Off ch=1 n=a#6 v=64
45306 On ch=1 n=g#6 v=64
45318 Off ch=1 n=g#6 v=64
45321 On ch=1 n=a#6 v=64
45417 Off ch=1 n=a#6 v=64
45561 On ch=1 n=a#5 v=64
45657 Off ch=1 n=a#5 v=64
45801 On ch=1 n=d#5 v=64
45809 Off ch=1 n=d#5 v=64
45811 On ch=1 n=g5 v=64
45819 Off ch=1 n=g5 v=64
45821 On ch=1 n=a#5 v=64
45829 Off ch=1 n=a#5 v=64
45831 On ch=1 n=d#6 v=64
45879 Off ch=1 n=d#6 v=64
45891 On ch=1 n=a#5 v=64
45915 Off ch=1 n=a#5 v=64
45921 On ch=1 n=c6 v=64
45929 Off ch=1 n=c6 v=64
45931 On ch=1 n=a#5 v=64
45939 Off ch=1 n=a#5 v=64
45941 On ch=1 n=c6 v=64
45949 Off ch=1 n=c6 v=64
45951 On ch=1 n=a#5 v=64
45959 Off ch=1 n=a#5 v=64
45961 On ch=1 n=c6 v=64
45969 Off ch=1 n=c6 v=64
45971 On ch=1 n=a#5 v=64
45979 Off ch=1 n=a#5 v=64
45981 On ch=1 n=c6 v=64
45989 Off ch=1 n=c6 v=64
45991 On ch=1 n=a#5 v=64
45999 Off ch=1 n=a#5 v=64
46001 On ch=1 n=c6 v=64
46009 Off ch=1 n=c6 v=64
46011 On ch=1 n=a#5 v=64
46019 Off ch=1 n=a#5 v=64
46021 On ch=1 n=c6 v=64
46029 Off ch=1 n=c6 v=64
46031 On ch=1 n=a#5 v=64
46039 Off ch=1 n=a#5 v=64
46131 On ch=1 n=a#5 v=64
46155 Off ch=1 n=a#5 v=64
46161 On ch=1 n=c6 v=64
46169 Off ch=1 n=c6 v=64
46171 On ch=1 n=a#5 v=64
46179 Off ch=1 n=a#5 v=64
46181 On ch=1 n=c6 v=64
46189 Off ch=1 n=c6 v=64
46191 On ch=1 n=a#5 v=64
46199 Off ch=1 n=a#5 v=64
46201 On ch=1 n=c6 v=64
46209 Off ch=1 n=c6 v=64
46211 On ch=1 n=a#5 v=64
46219 Off ch=1 n=a#5 v=64
46221 On ch=1 n=c6 v=64
46229 Off ch=1 n=c6 v=64
46231 On ch=1 n=a#5 v=64
46239 Off ch=1 n=a#5 v=64
46241 On ch=1 n=c6 v=64
46249 Off ch=1 n=c6 v=64
46251 On ch=1 n=a#5 v=64
46263 Off ch=1 n=a#5 v=64
46266 On ch=1 n=a5 v=64
46278 Off ch=1 n=a5 v=64
46281 On ch=1 n=a#5 v=64
46377 Off ch=1 n=a#5 v=64
46521 On ch=1 n=a#4 v=64
46617 Off ch=1 n=a#4 v=64
47001 On ch=1 n=f5 v=64
47013 Off ch=1 n=f5 v=64
47016 On ch=1 n=g5 v=64
47028 Off ch=1 n=g5 v=64
47031 On ch=1 n=g#5 v=64
47043 Off ch=1 n=g#5 v=64
47046 On ch=1 n=a#5 v=64
47058 Off ch=1 n=a#5 v=64
47061 On ch=1 n=c6 v=64
47073 Off ch=1 n=c6 v=64
47076 On ch=1 n=d6 v=64
47088 Off ch=1 n=d6 v=64
47091 On ch=1 n=d#6 v=64
47103 Off ch=1 n=d#6 v=64
47106 On ch=1 n=f6 v=64
47118 Off ch=1 n=f6 v=64
47121 On ch=1 n=g6 v=64
47137 Off ch=1 n=g6 v=64
47141 On ch=1 n=g#6 v=64
47157 Off ch=1 n=g#6 v=64
47161 On ch=1 n=a#6 v=64
47177 Off ch=1 n=a#6 v=64
47181 On ch=1 n=c7 v=64
47197 Off ch=1 n=c7 v=64
47201 On ch=1 n=d7 v=64
47217 Off ch=1 n=d7 v=64
47221 On ch=1 n=d#7 v=64
47237 Off ch=1 n=d#7 v=64
47241 On ch=1 n=d#7 v=64
47337 Off ch=1 n=d#7 v=64
47481 On ch=1 n=d#6 v=64
47577 Off ch=1 n=d#6 v=64
47721 On ch=1 n=c5 v=64
47748 Off ch=1 n=c5 v=64
47781 On ch=1 n=b4 v=64
47829 Off ch=1 n=b4 v=64
47841 On ch=1 n=c5 v=64
47868 Off ch=1 n=c5 v=64
47901 On ch=1 n=e5 v=64
47949 Off ch=1 n=e5 v=64
47961 On ch=1 n=f5 v=64
47988 Off ch=1 n=f5 v=64
48021 On ch=1 n=g5 v=64
48069 Off ch=1 n=g5 v=64
48081 On ch=1 n=g#5 v=64
48108 Off ch=1 n=g#5 v=64
48141 On ch=1 n=b5 v=64
48189 Off ch=1 n=b5 v=64
48201 On ch=1 n=c6 v=64
48211 Off ch=1 n=c6 v=64
48228 On ch=1 n=e6 v=64
48252 Off ch=1 n=e6 v=64
48258 On ch=1 n=f6 v=64
48268 Off ch=1 n=f6 v=64
48285 On ch=1 n=g6 v=64
48309 Off ch=1 n=g6 v=64
48315 On ch=1 n=g#6 v=64
48325 Off ch=1 n=g#6 v=64
48342 On ch=1 n=b6 v=64
48366 Off ch=1 n=b6 v=64
48372 On ch=1 n=c7 v=64
48382 Off ch=1 n=c7 v=64
48399 On ch=1 n=d7 v=64
48423 Off ch=1 n=d7 v=64
48429 On ch=1 n=d#7 v=64
48439 Off ch=1 n=d#7 v=64
48456 On ch=1 n=b6 v=64
48480 Off ch=1 n=b6 v=64
48486 On ch=1 n=c7 v=64
48496 Off ch=1 n=c7 v=64
48513 On ch=1 n=g6 v=64
48537 Off ch=1 n=g6 v=64
48543 On ch=1 n=g#6 v=64
48553 Off ch=1 n=g#6 v=64
48570 On ch=1 n=e6 v=64
48594 Off ch=1 n=e6 v=64
48600 On ch=1 n=f6 v=64
48610 Off ch=1 n=f6 v=64
48627 On ch=1 n=a5 v=64
48651 Off ch=1 n=a5 v=64
48657 On ch=1 n=a#5 v=64
48849 Off ch=1 n=a#5 v=64
48897 On ch=1 n=c6 v=64
48921 Off ch=1 n=c6 v=64
48927 On ch=1 n=a#5 v=64
48951 Off ch=1 n=a#5 v=64
48957 On ch=1 n=g#5 v=64
48981 Off ch=1 n=g#5 v=64
48987 On ch=1 n=g5 v=64
49011 Off ch=1 n=g5 v=64
49017 On ch=1 n=g#5 v=64
49041 Off ch=1 n=g#5 v=64
49047 On ch=1 n=a#5 v=64
49071 Off ch=1 n=a#5 v=64
49077 On ch=1 n=c6 v=64
49101 Off ch=1 n=c6 v=64
49107 On ch=1 n=d6 v=64
49131 Off ch=1 n=d6 v=64
49137 On ch=1 n=d#6 v=64
49149 Off ch=1 n=d#6 v=64
49152 On ch=1 n=f6 v=64
49164 Off ch=1 n=f6 v=64
49167 On ch=1 n=d#6 v=64
49179 Off ch=1 n=d#6 v=64
49182 On ch=1 n=d6 v=64
49194 Off ch=1 n=d6 v=64
49197 On ch=1 n=d#6 v=64
49209 Off ch=1 n=d#6 v=64
49212 On ch=1 n=f6 v=64
49224 Off ch=1 n=f6 v=64
49227 On ch=1 n=g6 v=64
49239 Off ch=1 n=g6 v=64
49242 On ch=1 n=g#6 v=64
49254 Off ch=1 n=g#6 v=64
49257 On ch=1 n=c7 v=64
49269 Off ch=1 n=c7 v=64
49272 On ch=1 n=a#6 v=64
49284 Off ch=1 n=a#6 v=64
49287 On ch=1 n=g#6 v=64
49299 Off ch=1 n=g#6 v=64
49302 On ch=1 n=g6 v=64
49314 Off ch=1 n=g6 v=64
49317 On ch=1 n=g#6 v=64
49329 Off ch=1 n=g#6 v=64
49332 On ch=1 n=a#6 v=64
49344 Off ch=1 n=a#6 v=64
49347 On ch=1 n=c7 v=64
49359 Off ch=1 n=c7 v=64
49362 On ch=1 n=d7 v=64
49374 Off ch=1 n=d7 v=64
49377 On ch=1 n=d#7 v=64
49387 Off ch=1 n=d#7 v=64
49404 On ch=1 n=d7 v=64
49414 Off ch=1 n=d7 v=64
49431 On ch=1 n=c7 v=64
49441 Off ch=1 n=c7 v=64
49458 On ch=1 n=a#6 v=64
49468 Off ch=1 n=a#6 v=64
49485 On ch=1 n=a6 v=64
49495 Off ch=1 n=a6 v=64
49512 On ch=1 n=a#6 v=64
49522 Off ch=1 n=a#6 v=64
49539 On ch=1 n=c7 v=64
49549 Off ch=1 n=c7 v=64
49566 On ch=1 n=a#6 v=64
49576 Off ch=1 n=a#6 v=64
49593 On ch=1 n=b6 v=64
49641 Off ch=1 n=b6 v=64
49653 On ch=1 n=c7 v=64
49701 Off ch=1 n=c7 v=64
49713 On ch=1 n=d7 v=64
49761 Off ch=1 n=d7 v=64
49773 On ch=1 n=c7 v=64
49821 Off ch=1 n=c7 v=64
49833 On ch=1 n=a#6 v=64
49857 Off ch=1 n=a#6 v=64
49863 On ch=1 n=g#6 v=64
49887 Off ch=1 n=g#6 v=64
49893 On ch=1 n=g6 v=64
49917 Off ch=1 n=g6 v=64
49923 On ch=1 n=f6 v=64
49947 Off ch=1 n=f6 v=64
49953 On ch=1 n=e6 v=64
49989 Off ch=1 n=e6 v=64
49998 On ch=1 n=f6 v=64
50010 Off ch=1 n=f6 v=64
50013 On ch=1 n=g#6 v=64
50049 Off ch=1 n=g#6 v=64
50058 On ch=1 n=f6 v=64
50070 Off ch=1 n=f6 v=64
50073 On ch=1 n=d#6 v=64
50089 Off ch=1 n=d#6 v=64
50093 On ch=1 n=f6 v=64
50109 Off ch=1 n=f6 v=64
50113 On ch=1 n=g6 v=64
50129 Off ch=1 n=g6 v=64
50133 On ch=1 n=f6 v=64
50141 Off ch=1 n=f6 v=64
50143 On ch=1 n=g6 v=64
50151 Off ch=1 n=g6 v=64
50153 On ch=1 n=f6 v=64
50161 Off ch=1 n=f6 v=64
50163 On ch=1 n=g6 v=64
50171 Off ch=1 n=g6 v=64
50173 On ch=1 n=f6 v=64
50181 Off ch=1 n=f6 v=64
50183 On ch=1 n=g6 v=64
50191 Off ch=1 n=g6 v=64
50193 On ch=1 n=f6 v=64
50201 Off ch=1 n=f6 v=64
50203 On ch=1 n=g6 v=64
50211 Off ch=1 n=g6 v=64
50213 On ch=1 n=f6 v=64
50221 Off ch=1 n=f6 v=64
50223 On ch=1 n=g6 v=64
50231 Off ch=1 n=g6 v=64
50233 On ch=1 n=f6 v=64
50241 Off ch=1 n=f6 v=64
50243 On ch=1 n=g6 v=64
50251 Off ch=1 n=g6 v=64
50253 On ch=1 n=f6 v=64
50261 Off ch=1 n=f6 v=64
50263 On ch=1 n=g6 v=64
50271 Off ch=1 n=g6 v=64
50273 On ch=1 n=f6 v=64
50281 Off ch=1 n=f6 v=64
50283 On ch=1 n=g6 v=64
50291 Off ch=1 n=g6 v=64
50293 On ch=1 n=f6 v=64
50301 Off ch=1 n=f6 v=64
50303 On ch=1 n=g6 v=64
50311 Off ch=1 n=g6 v=64
50313 On ch=1 n=f6 v=64
50321 Off ch=1 n=f6 v=64
50323 On ch=1 n=g6 v=64
50331 Off ch=1 n=g6 v=64
50333 On ch=1 n=f6 v=64
50341 Off ch=1 n=f6 v=64
50343 On ch=1 n=g6 v=64
50351 Off ch=1 n=g6 v=64
50353 On ch=1 n=f6 v=64
50361 Off ch=1 n=f6 v=64
50363 On ch=1 n=g6 v=64
50371 Off ch=1 n=g6 v=64
50373 On ch=1 n=f6 v=64
50381 Off ch=1 n=f6 v=64
50383 On ch=1 n=g6 v=64
50391 Off ch=1 n=g6 v=64
50393 On ch=1 n=f6 v=64
50401 Off ch=1 n=f6 v=64
50403 On ch=1 n=g6 v=64
50411 Off ch=1 n=g6 v=64
50413 On ch=1 n=f6 v=64
50421 Off ch=1 n=f6 v=64
50423 On ch=1 n=g6 v=64
50431 Off ch=1 n=g6 v=64
50433 On ch=1 n=f6 v=64
50441 Off ch=1 n=f6 v=64
50443 On ch=1 n=g6 v=64
50451 Off ch=1 n=g6 v=64
50453 On ch=1 n=f6 v=64
50461 Off ch=1 n=f6 v=64
50463 On ch=1 n=g6 v=64
50471 Off ch=1 n=g6 v=64
50473 On ch=1 n=f6 v=64
50481 Off ch=1 n=f6 v=64
50483 On ch=1 n=g6 v=64
50491 Off ch=1 n=g6 v=64
50493 On ch=1 n=f6 v=64
50509 Off ch=1 n=f6 v=64
50513 On ch=1 n=d#6 v=64
50529 Off ch=1 n=d#6 v=64
50533 On ch=1 n=f6 v=64
50549 Off ch=1 n=f6 v=64
50553 On ch=1 n=d#6 v=64
50585 Off ch=1 n=d#6 v=64
50593 On ch=1 n=d#6 v=64
50611 Off ch=1 n=d#6 v=64
50633 On ch=1 n=d6 v=64
50651 Off ch=1 n=d6 v=64
50673 On ch=1 n=c#6 v=64
50691 Off ch=1 n=c#6 v=64
50713 On ch=1 n=c6 v=64
50731 Off ch=1 n=c6 v=64
50753 On ch=1 n=b5 v=64
50771 Off ch=1 n=b5 v=64
50793 On ch=1 n=a#5 v=64
51033 On ch=1 n=g5 v=64
51060 Off ch=1 n=g5 v=64
51060 Off ch=1 n=a#5 v=64
51093 On ch=1 n=a#5 v=64
51093 On ch=1 n=g5 v=64
51120 Off ch=1 n=g5 v=64
51120 Off ch=1 n=a#5 v=64
51213 On ch=1 n=g#5 v=64
51213 On ch=1 n=c6 v=64
51237 Off ch=1 n=c6 v=64
51237 Off ch=1 n=g#5 v=64
51243 On ch=1 n=f5 v=64
51243 On ch=1 n=g#5 v=64
51267 Off ch=1 n=g#5 v=64
51267 Off ch=1 n=f5 v=64
51273 On ch=1 n=g5 v=64
51273 On ch=1 n=d#5 v=64
51300 Off ch=1 n=d#5 v=64
51300 Off ch=1 n=g5 v=64
51333 On ch=1 n=d#5 v=64
51333 On ch=1 n=g5 v=64
51360 Off ch=1 n=g5 v=64
51360 Off ch=1 n=d#5 v=64
51453 On ch=1 n=f5 v=64
51453 On ch=1 n=g#5 v=64
51477 Off ch=1 n=g#5 v=64
51477 Off ch=1 n=f5 v=64
51483 On ch=1 n=f5 v=64
51483 On ch=1 n=d5 v=64
51507 Off ch=1 n=d5 v=64
51507 Off ch=1 n=f5 v=64
51513 On ch=1 n=d#5 v=64
51545 Off ch=1 n=d#5 v=64
51553 On ch=1 n=d#6 v=64
51571 Off ch=1 n=d#6 v=64
51593 On ch=1 n=d6 v=64
51611 Off ch=1 n=d6 v=64
51633 On ch=1 n=c#6 v=64
51651 Off ch=1 n=c#6 v=64
51673 On ch=1 n=c6 v=64
51691 Off ch=1 n=c6 v=64
51713 On ch=1 n=b5 v=64
51731 Off ch=1 n=b5 v=64
51753 On ch=1 n=a#5 v=64
51993 On ch=1 n=g5 v=64
52020 Off ch=1 n=a#5 v=64
52020 Off ch=1 n=g5 v=64
52053 On ch=1 n=g5 v=64
52053 On ch=1 n=a#5 v=64
52080 Off ch=1 n=a#5 v=64
52080 Off ch=1 n=g5 v=64
52173 On ch=1 n=c6 v=64
52173 On ch=1 n=g#5 v=64
52197 Off ch=1 n=g#5 v=64
52197 Off ch=1 n=c6 v=64
52203 On ch=1 n=g#5 v=64
52203 On ch=1 n=f5 v=64
52227 Off ch=1 n=f5 v=64
52227 Off ch=1 n=g#5 v=64
52233 On ch=1 n=d#5 v=64
52233 On ch=1 n=g5 v=64
52260 Off ch=1 n=g5 v=64
52260 Off ch=1 n=d#5 v=64
52293 On ch=1 n=g5 v=64
52293 On ch=1 n=d#5 v=64
52320 Off ch=1 n=d#5 v=64
52320 Off ch=1 n=g5 v=64
52413 On ch=1 n=g#5 v=64
52413 On ch=1 n=f5 v=64
52437 Off ch=1 n=f5 v=64
52437 Off ch=1 n=g#5 v=64
52443 On ch=1 n=d5 v=64
52443 On ch=1 n=f5 v=64
52467 Off ch=1 n=f5 v=64
52467 Off ch=1 n=d5 v=64
52473 On ch=1 n=d#5 v=64
52521 Off ch=1 n=d#5 v=64
52563 On ch=1 n=a#4 v=64
52573 Off ch=1 n=a#4 v=64
52590 On ch=1 n=c5 v=64
52602 Off ch=1 n=c5 v=64
52605 On ch=1 n=a#4 v=64
52617 Off ch=1 n=a#4 v=64
52620 On ch=1 n=c5 v=64
52632 Off ch=1 n=c5 v=64
52635 On ch=1 n=a#4 v=64
52647 Off ch=1 n=a#4 v=64
52650 On ch=1 n=c5 v=64
52662 Off ch=1 n=c5 v=64
52665 On ch=1 n=a#4 v=64
52677 Off ch=1 n=a#4 v=64
52680 On ch=1 n=a4 v=64
52692 Off ch=1 n=a4 v=64
52695 On ch=1 n=a#4 v=64
52707 Off ch=1 n=a#4 v=64
52710 On ch=1 n=g5 v=64
52764 Off ch=1 n=g5 v=64
52830 On ch=1 n=g#4 v=64
52830 On ch=1 n=f5 v=64
52830 On ch=1 n=d5 v=64
52884 Off ch=1 n=d5 v=64
52884 Off ch=1 n=f5 v=64
52884 Off ch=1 n=g#4 v=64
52950 On ch=1 n=d5 v=64
52950 On ch=1 n=g#4 v=64
52950 On ch=1 n=f5 v=64
53142 Off ch=1 n=f5 v=64
53142 Off ch=1 n=g#4 v=64
53142 Off ch=1 n=d5 v=64
53190 On ch=1 n=d#5 v=64
53190 On ch=1 n=g4 v=64
53286 Off ch=1 n=g4 v=64
53286 Off ch=1 n=d#5 v=64
53490 On ch=1 n=c5 v=64
53498 Off ch=1 n=c5 v=64
53500 On ch=1 n=e5 v=64
53508 Off ch=1 n=e5 v=64
53510 On ch=1 n=g5 v=64
53518 Off ch=1 n=g5 v=64
53520 On ch=1 n=c6 v=64
53532 Off ch=1 n=c6 v=64
53535 On ch=1 n=e6 v=64
53547 Off ch=1 n=e6 v=64
53550 On ch=1 n=g6 v=64
53742 Off ch=1 n=g6 v=64
53790 On ch=1 n=f6 v=64
53814 Off ch=1 n=f6 v=64
53820 On ch=1 n=e6 v=64
53844 Off ch=1 n=e6 v=64
53850 On ch=1 n=d6 v=64
53874 Off ch=1 n=d6 v=64
53880 On ch=1 n=c6 v=64
53904 Off ch=1 n=c6 v=64
53910 On ch=1 n=c#6 v=64
53934 Off ch=1 n=c#6 v=64
53940 On ch=1 n=d#6 v=64
53948 Off ch=1 n=d#6 v=64
53950 On ch=1 n=c#6 v=64
53958 Off ch=1 n=c#6 v=64
53960 On ch=1 n=c6 v=64
53968 Off ch=1 n=c6 v=64
53970 On ch=1 n=c#6 v=64
53994 Off ch=1 n=c#6 v=64
54000 On ch=1 n=f6 v=64
54024 Off ch=1 n=f6 v=64
54030 On ch=1 n=g#6 v=64
54126 Off ch=1 n=g#6 v=64
54450 On ch=1 n=a#4 v=64
54455 Off ch=1 n=a#4 v=64
54457 On ch=1 n=c#5 v=64
54462 Off ch=1 n=c#5 v=64
54464 On ch=1 n=e5 v=64
54469 Off ch=1 n=e5 v=64
54471 On ch=1 n=g5 v=64
54476 Off ch=1 n=g5 v=64
54478 On ch=1 n=a#5 v=64
54483 Off ch=1 n=a#5 v=64
54485 On ch=1 n=c#6 v=64
54490 Off ch=1 n=c#6 v=64
54492 On ch=1 n=e6 v=64
54497 Off ch=1 n=e6 v=64
54499 On ch=1 n=g6 v=64
54504 Off ch=1 n=g6 v=64
54506 On ch=1 n=a#6 v=64
54698 Off ch=1 n=a#6 v=64
54746 On ch=1 n=g#6 v=64
54770 Off ch=1 n=g#6 v=64
54776 On ch=1 n=g6 v=64
54800 Off ch=1 n=g6 v=64
54806 On ch=1 n=f6 v=64
54830 Off ch=1 n=f6 v=64
54836 On ch=1 n=e6 v=64
54860 Off ch=1 n=e6 v=64
54870 On ch=1 n=f6 v=64
54894 Off ch=1 n=f6 v=64
54900 On ch=1 n=g6 v=64
54908 Off ch=1 n=g6 v=64
54910 On ch=1 n=f6 v=64
54918 Off ch=1 n=f6 v=64
54920 On ch=1 n=e6 v=64
54928 Off ch=1 n=e6 v=64
54930 On ch=1 n=f6 v=64
54954 Off ch=1 n=f6 v=64
54960 On ch=1 n=b6 v=64
54984 Off ch=1 n=b6 v=64
54990 On ch=1 n=c7 v=64
55086 Off ch=1 n=c7 v=64
55410 On ch=1 n=d#5 v=64
55415 Off ch=1 n=d#5 v=64
55417 On ch=1 n=f#5 v=64
55422 Off ch=1 n=f#5 v=64
55424 On ch=1 n=a5 v=64
55429 Off ch=1 n=a5 v=64
55431 On ch=1 n=c6 v=64
55436 Off ch=1 n=c6 v=64
55438 On ch=1 n=d#6 v=64
55443 Off ch=1 n=d#6 v=64
55445 On ch=1 n=f#6 v=64
55450 Off ch=1 n=f#6 v=64
55452 On ch=1 n=a6 v=64
55457 Off ch=1 n=a6 v=64
55459 On ch=1 n=c7 v=64
55464 Off ch=1 n=c7 v=64
55466 On ch=1 n=d#7 v=64
55658 Off ch=1 n=d#7 v=64
55706 On ch=1 n=d7 v=64
55730 Off ch=1 n=d7 v=64
55736 On ch=1 n=c7 v=64
55760 Off ch=1 n=c7 v=64
55766 On ch=1 n=a#6 v=64
55778 Off ch=1 n=a#6 v=64
55781 On ch=1 n=a6 v=64
55793 Off ch=1 n=a6 v=64
55796 On ch=1 n=g6 v=64
55808 Off ch=1 n=g6 v=64
55811 On ch=1 n=f#6 v=64
55823 Off ch=1 n=f#6 v=64
55830 On ch=1 n=g6 v=64
55854 Off ch=1 n=g6 v=64
55860 On ch=1 n=a6 v=64
55868 Off ch=1 n=a6 v=64
55870 On ch=1 n=g6 v=64
55878 Off ch=1 n=g6 v=64
55880 On ch=1 n=f#6 v=64
55888 Off ch=1 n=f#6 v=64
55890 On ch=1 n=g6 v=64
55914 Off ch=1 n=g6 v=64
55920 On ch=1 n=c#7 v=64
55944 Off ch=1 n=c#7 v=64
55950 On ch=1 n=d7 v=64
56004 Off ch=1 n=d7 v=64
56070 On ch=1 n=d6 v=64
56094 Off ch=1 n=d6 v=64
56100 On ch=1 n=e6 v=64
56108 Off ch=1 n=e6 v=64
56110 On ch=1 n=d6 v=64
56118 Off ch=1 n=d6 v=64
56120 On ch=1 n=c#6 v=64
56128 Off ch=1 n=c#6 v=64
56130 On ch=1 n=d6 v=64
56154 Off ch=1 n=d6 v=64
56160 On ch=1 n=b6 v=64
56184 Off ch=1 n=b6 v=64
56190 On ch=1 n=c7 v=64
56244 Off ch=1 n=c7 v=64
56310 On ch=1 n=d6 v=64
56334 Off ch=1 n=d6 v=64
56340 On ch=1 n=d#6 v=64
56348 Off ch=1 n=d#6 v=64
56350 On ch=1 n=d6 v=64
56358 Off ch=1 n=d6 v=64
56360 On ch=1 n=c#6 v=64
56368 Off ch=1 n=c#6 v=64
56370 On ch=1 n=d6 v=64
56394 Off ch=1 n=d6 v=64
56400 On ch=1 n=a6 v=64
56424 Off ch=1 n=a6 v=64
56430 On ch=1 n=a#6 v=64
56526 Off ch=1 n=a#6 v=64
56550 On ch=1 n=a#6 v=64
56598 Off ch=1 n=a#6 v=64
56610 On ch=1 n=a6 v=64
56634 Off ch=1 n=a6 v=64
56640 On ch=1 n=a#6 v=64
56664 Off ch=1 n=a#6 v=64
56670 On ch=1 n=c7 v=64
56694 Off ch=1 n=c7 v=64
56700 On ch=1 n=a#6 v=64
56724 Off ch=1 n=a#6 v=64
56730 On ch=1 n=a6 v=64
56754 Off ch=1 n=a6 v=64
56760 On ch=1 n=g6 v=64
56784 Off ch=1 n=g6 v=64
56790 On ch=1 n=f#6 v=64
56838 Off ch=1 n=f#6 v=64
56850 On ch=1 n=c#7 v=64
56874 Off ch=1 n=c#7 v=64
56880 On ch=1 n=d7 v=64
56904 Off ch=1 n=d7 v=64
56970 On ch=1 n=d7 v=64
56994 Off ch=1 n=d7 v=64
57000 On ch=1 n=c7 v=64
57024 Off ch=1 n=c7 v=64
57090 On ch=1 n=c7 v=64
57114 Off ch=1 n=c7 v=64
57120 On ch=1 n=a#6 v=64
57144 Off ch=1 n=a#6 v=64
57210 On ch=1 n=a6 v=64
57234 Off ch=1 n=a6 v=64
57240 On ch=1 n=g6 v=64
57264 Off ch=1 n=g6 v=64
57330 On ch=1 n=f#6 v=64
57354 Off ch=1 n=f#6 v=64
57360 On ch=1 n=a6 v=64
57384 Off ch=1 n=a6 v=64
57450 On ch=1 n=d#6 v=64
57474 Off ch=1 n=d#6 v=64
57480 On ch=1 n=d6 v=64
57504 Off ch=1 n=d6 v=64
57570 On ch=1 n=c6 v=64
57594 Off ch=1 n=c6 v=64
57600 On ch=1 n=a#5 v=64
57624 Off ch=1 n=a#5 v=64
57690 On ch=1 n=a5 v=64
57714 Off ch=1 n=a5 v=64
57720 On ch=1 n=g5 v=64
57744 Off ch=1 n=g5 v=64
57750 On ch=1 n=f#5 v=64
57798 Off ch=1 n=f#5 v=64
57810 On ch=1 n=d6 v=64
57878 Off ch=1 n=d6 v=64
57880 On ch=1 n=a5 v=64
57888 Off ch=1 n=a5 v=64
57890 On ch=1 n=f#5 v=64
57898 Off ch=1 n=f#5 v=64
57900 On ch=1 n=d5 v=64
57908 Off ch=1 n=d5 v=64
57910 On ch=1 n=a4 v=64
57918 Off ch=1 n=a4 v=64
57920 On ch=1 n=f#4 v=64
57928 Off ch=1 n=f#4 v=64
58230 On ch=1 n=d5 v=64
58246 Off ch=1 n=d5 v=64
58250 On ch=1 n=g5 v=64
58266 Off ch=1 n=g5 v=64
58270 On ch=1 n=a#5 v=64
58286 Off ch=1 n=a#5 v=64
58290 On ch=1 n=d6 v=64
58306 Off ch=1 n=d6 v=64
58310 On ch=1 n=a#5 v=64
58326 Off ch=1 n=a#5 v=64
58330 On ch=1 n=g5 v=64
58346 Off ch=1 n=g5 v=64
58350 On ch=1 n=d5 v=64
58366 Off ch=1 n=d5 v=64
58370 On ch=1 n=g5 v=64
58386 Off ch=1 n=g5 v=64
58390 On ch=1 n=a#5 v=64
58406 Off ch=1 n=a#5 v=64
58410 On ch=1 n=d6 v=64
58426 Off ch=1 n=d6 v=64
58430 On ch=1 n=a#5 v=64
58446 Off ch=1 n=a#5 v=64
58450 On ch=1 n=g5 v=64
58466 Off ch=1 n=g5 v=64
58470 On ch=1 n=d5 v=64
58486 Off ch=1 n=d5 v=64
58490 On ch=1 n=g5 v=64
58506 Off ch=1 n=g5 v=64
58510 On ch=1 n=a#5 v=64
58526 Off ch=1 n=a#5 v=64
58530 On ch=1 n=d6 v=64
58546 Off ch=1 n=d6 v=64
58550 On ch=1 n=a#5 v=64
58566 Off ch=1 n=a#5 v=64
58570 On ch=1 n=g5 v=64
58586 Off ch=1 n=g5 v=64
58590 On ch=1 n=d5 v=64
58606 Off ch=1 n=d5 v=64
58610 On ch=1 n=g5 v=64
58626 Off ch=1 n=g5 v=64
58630 On ch=1 n=a#5 v=64
58646 Off ch=1 n=a#5 v=64
58650 On ch=1 n=d6 v=64
58666 Off ch=1 n=d6 v=64
58670 On ch=1 n=a#5 v=64
58686 Off ch=1 n=a#5 v=64
58690 On ch=1 n=g5 v=64
58706 Off ch=1 n=g5 v=64
58710 On ch=1 n=d5 v=64
58726 Off ch=1 n=d5 v=64
58730 On ch=1 n=a5 v=64
58746 Off ch=1 n=a5 v=64
58750 On ch=1 n=c6 v=64
58766 Off ch=1 n=c6 v=64
58770 On ch=1 n=d6 v=64
58786 Off ch=1 n=d6 v=64
58790 On ch=1 n=c6 v=64
58806 Off ch=1 n=c6 v=64
58810 On ch=1 n=a5 v=64
58826 Off ch=1 n=a5 v=64
58830 On ch=1 n=d5 v=64
58846 Off ch=1 n=d5 v=64
58850 On ch=1 n=a5 v=64
58866 Off ch=1 n=a5 v=64
58870 On ch=1 n=c6 v=64
58886 Off ch=1 n=c6 v=64
58890 On ch=1 n=d6 v=64
58906 Off ch=1 n=d6 v=64
58910 On ch=1 n=c6 v=64
58926 Off ch=1 n=c6 v=64
58930 On ch=1 n=a5 v=64
58946 Off ch=1 n=a5 v=64
58950 On ch=1 n=d5 v=64
58966 Off ch=1 n=d5 v=64
58970 On ch=1 n=a5 v=64
58986 Off ch=1 n=a5 v=64
58990 On ch=1 n=c6 v=64
59006 Off ch=1 n=c6 v=64
59010 On ch=1 n=d6 v=64
59026 Off ch=1 n=d6 v=64
59030 On ch=1 n=c6 v=64
59046 Off ch=1 n=c6 v=64
59050 On ch=1 n=a5 v=64
59066 Off ch=1 n=a5 v=64
59070 On ch=1 n=d5 v=64
59086 Off ch=1 n=d5 v=64
59090 On ch=1 n=a5 v=64
59106 Off ch=1 n=a5 v=64
59110 On ch=1 n=c6 v=64
59126 Off ch=1 n=c6 v=64
59130 On ch=1 n=d6 v=64
59146 Off ch=1 n=d6 v=64
59150 On ch=1 n=c6 v=64
59166 Off ch=1 n=c6 v=64
59170 On ch=1 n=a5 v=64
59186 Off ch=1 n=a5 v=64
59190 On ch=1 n=d5 v=64
59206 Off ch=1 n=d5 v=64
59210 On ch=1 n=g5 v=64
59226 Off ch=1 n=g5 v=64
59230 On ch=1 n=a#5 v=64
59246 Off ch=1 n=a#5 v=64
59250 On ch=1 n=d6 v=64
59266 Off ch=1 n=d6 v=64
59270 On ch=1 n=a#5 v=64
59286 Off ch=1 n=a#5 v=64
59290 On ch=1 n=g5 v=64
59306 Off ch=1 n=g5 v=64
59310 On ch=1 n=d5 v=64
59326 Off ch=1 n=d5 v=64
59330 On ch=1 n=g5 v=64
59346 Off ch=1 n=g5 v=64
59350 On ch=1 n=a#5 v=64
59366 Off ch=1 n=a#5 v=64
59370 On ch=1 n=d6 v=64
59386 Off ch=1 n=d6 v=64
59390 On ch=1 n=a#5 v=64
59406 Off ch=1 n=a#5 v=64
59410 On ch=1 n=g5 v=64
59426 Off ch=1 n=g5 v=64
59430 On ch=1 n=d5 v=64
59446 Off ch=1 n=d5 v=64
59450 On ch=1 n=g5 v=64
59466 Off ch=1 n=g5 v=64
59470 On ch=1 n=a#5 v=64
59486 Off ch=1 n=a#5 v=64
59490 On ch=1 n=d6 v=64
59506 Off ch=1 n=d6 v=64
59510 On ch=1 n=a#5 v=64
59526 Off ch=1 n=a#5 v=64
59530 On ch=1 n=g5 v=64
59546 Off ch=1 n=g5 v=64
59550 On ch=1 n=d5 v=64
59566 Off ch=1 n=d5 v=64
59570 On ch=1 n=g5 v=64
59586 Off ch=1 n=g5 v=64
59590 On ch=1 n=a#5 v=64
59606 Off ch=1 n=a#5 v=64
59610 On ch=1 n=d6 v=64
59626 Off ch=1 n=d6 v=64
59630 On ch=1 n=a#5 v=64
59646 Off ch=1 n=a#5 v=64
59650 On ch=1 n=g5 v=64
59666 Off ch=1 n=g5 v=64
59670 On ch=1 n=d5 v=64
59686 Off ch=1 n=d5 v=64
59690 On ch=1 n=f5 v=64
59706 Off ch=1 n=f5 v=64
59710 On ch=1 n=b5 v=64
59726 Off ch=1 n=b5 v=64
59730 On ch=1 n=d6 v=64
59746 Off ch=1 n=d6 v=64
59750 On ch=1 n=b5 v=64
59766 Off ch=1 n=b5 v=64
59770 On ch=1 n=f5 v=64
59786 Off ch=1 n=f5 v=64
59790 On ch=1 n=d5 v=64
59806 Off ch=1 n=d5 v=64
59810 On ch=1 n=f5 v=64
59826 Off ch=1 n=f5 v=64
59830 On ch=1 n=b5 v=64
59846 Off ch=1 n=b5 v=64
59850 On ch=1 n=d6 v=64
59866 Off ch=1 n=d6 v=64
59870 On ch=1 n=b5 v=64
59886 Off ch=1 n=b5 v=64
59890 On ch=1 n=f5 v=64
59906 Off ch=1 n=f5 v=64
59910 On ch=1 n=d5 v=64
59926 Off ch=1 n=d5 v=64
59930 On ch=1 n=f5 v=64
59946 Off ch=1 n=f5 v=64
59950 On ch=1 n=b5 v=64
59966 Off ch=1 n=b5 v=64
59970 On ch=1 n=d6 v=64
59986 Off ch=1 n=d6 v=64
59990 On ch=1 n=b5 v=64
60006 Off ch=1 n=b5 v=64
60010 On ch=1 n=f5 v=64
60026 Off ch=1 n=f5 v=64
60030 On ch=1 n=d5 v=64
60046 Off ch=1 n=d5 v=64
60050 On ch=1 n=f5 v=64
60066 Off ch=1 n=f5 v=64
60070 On ch=1 n=b5 v=64
60086 Off ch=1 n=b5 v=64
60090 On ch=1 n=d6 v=64
60106 Off ch=1 n=d6 v=64
60110 On ch=1 n=b5 v=64
60126 Off ch=1 n=b5 v=64
60130 On ch=1 n=f5 v=64
60146 Off ch=1 n=f5 v=64
60150 On ch=1 n=d5 v=64
60166 Off ch=1 n=d5 v=64
60170 On ch=1 n=f5 v=64
60186 Off ch=1 n=f5 v=64
60190 On ch=1 n=g5 v=64
60206 Off ch=1 n=g5 v=64
60210 On ch=1 n=d6 v=64
60226 Off ch=1 n=d6 v=64
60230 On ch=1 n=g5 v=64
60246 Off ch=1 n=g5 v=64
60250 On ch=1 n=f5 v=64
60266 Off ch=1 n=f5 v=64
60270 On ch=1 n=d5 v=64
60286 Off ch=1 n=d5 v=64
60290 On ch=1 n=f5 v=64
60306 Off ch=1 n=f5 v=64
60310 On ch=1 n=g5 v=64
60326 Off ch=1 n=g5 v=64
60330 On ch=1 n=d6 v=64
60346 Off ch=1 n=d6 v=64
60350 On ch=1 n=g5 v=64
60366 Off ch=1 n=g5 v=64
60370 On ch=1 n=f5 v=64
60386 Off ch=1 n=f5 v=64
60390 On ch=1 n=d5 v=64
60406 Off ch=1 n=d5 v=64
60410 On ch=1 n=f5 v=64
60426 Off ch=1 n=f5 v=64
60430 On ch=1 n=g5 v=64
60446 Off ch=1 n=g5 v=64
60450 On ch=1 n=d6 v=64
60466 Off ch=1 n=d6 v=64
60470 On ch=1 n=g5 v=64
60486 Off ch=1 n=g5 v=64
60490 On ch=1 n=f5 v=64
60506 Off ch=1 n=f5 v=64
60510 On ch=1 n=d5 v=64
60526 Off ch=1 n=d5 v=64
60530 On ch=1 n=f5 v=64
60546 Off ch=1 n=f5 v=64
60550 On ch=1 n=g5 v=64
60566 Off ch=1 n=g5 v=64
60570 On ch=1 n=d6 v=64
60586 Off ch=1 n=d6 v=64
60590 On ch=1 n=g5 v=64
60606 Off ch=1 n=g5 v=64
60610 On ch=1 n=f5 v=64
60626 Off ch=1 n=f5 v=64
60630 On ch=1 n=d#5 v=64
60646 Off ch=1 n=d#5 v=64
60650 On ch=1 n=g5 v=64
60666 Off ch=1 n=g5 v=64
60670 On ch=1 n=c6 v=64
60686 Off ch=1 n=c6 v=64
60690 On ch=1 n=d#6 v=64
60706 Off ch=1 n=d#6 v=64
60710 On ch=1 n=c6 v=64
60726 Off ch=1 n=c6 v=64
60730 On ch=1 n=g5 v=64
60746 Off ch=1 n=g5 v=64
60750 On ch=1 n=d#5 v=64
60766 Off ch=1 n=d#5 v=64
60770 On ch=1 n=g5 v=64
60786 Off ch=1 n=g5 v=64
60790 On ch=1 n=c6 v=64
60806 Off ch=1 n=c6 v=64
60810 On ch=1 n=d#6 v=64
60826 Off ch=1 n=d#6 v=64
60830 On ch=1 n=c6 v=64
60846 Off ch=1 n=c6 v=64
60850 On ch=1 n=g5 v=64
60866 Off ch=1 n=g5 v=64
60870 On ch=1 n=d#5 v=64
60886 Off ch=1 n=d#5 v=64
60890 On ch=1 n=g#5 v=64
60906 Off ch=1 n=g#5 v=64
60910 On ch=1 n=c6 v=64
60926 Off ch=1 n=c6 v=64
60930 On ch=1 n=d#6 v=64
60946 Off ch=1 n=d#6 v=64
60950 On ch=1 n=c6 v=64
60966 Off ch=1 n=c6 v=64
60970 On ch=1 n=g#5 v=64
60986 Off ch=1 n=g#5 v=64
60990 On ch=1 n=d#5 v=64
61006 Off ch=1 n=d#5 v=64
61010 On ch=1 n=g#5 v=64
61026 Off ch=1 n=g#5 v=64
61030 On ch=1 n=c6 v=64
61046 Off ch=1 n=c6 v=64
61050 On ch=1 n=d#6 v=64
61066 Off ch=1 n=d#6 v=64
61070 On ch=1 n=c6 v=64
61086 Off ch=1 n=c6 v=64
61090 On ch=1 n=g#5 v=64
61106 Off ch=1 n=g#5 v=64
61110 On ch=1 n=c#5 v=64
61126 Off ch=1 n=c#5 v=64
61130 On ch=1 n=g#5 v=64
61146 Off ch=1 n=g#5 v=64
61150 On ch=1 n=c6 v=64
61166 Off ch=1 n=c6 v=64
61170 On ch=1 n=c#6 v=64
61186 Off ch=1 n=c#6 v=64
61190 On ch=1 n=c6 v=64
61206 Off ch=1 n=c6 v=64
61210 On ch=1 n=g#5 v=64
61226 Off ch=1 n=g#5 v=64
61230 On ch=1 n=c#5 v=64
61246 Off ch=1 n=c#5 v=64
61250 On ch=1 n=g#5 v=64
61266 Off ch=1 n=g#5 v=64
61270 On ch=1 n=c6 v=64
61286 Off ch=1 n=c6 v=64
61290 On ch=1 n=c#6 v=64
61306 Off ch=1 n=c#6 v=64
61310 On ch=1 n=c6 v=64
61326 Off ch=1 n=c6 v=64
61330 On ch=1 n=g#5 v=64
61346 Off ch=1 n=g#5 v=64
61350 On ch=1 n=c#5 v=64
61366 Off ch=1 n=c#5 v=64
61370 On ch=1 n=f#5 v=64
61386 Off ch=1 n=f#5 v=64
61390 On ch=1 n=a#5 v=64
61406 Off ch=1 n=a#5 v=64
61410 On ch=1 n=c#6 v=64
61426 Off ch=1 n=c#6 v=64
61430 On ch=1 n=a#5 v=64
61446 Off ch=1 n=a#5 v=64
61450 On ch=1 n=f#5 v=64
61466 Off ch=1 n=f#5 v=64
61470 On ch=1 n=c#5 v=64
61486 Off ch=1 n=c#5 v=64
61490 On ch=1 n=f#5 v=64
61506 Off ch=1 n=f#5 v=64
61510 On ch=1 n=a#5 v=64
61526 Off ch=1 n=a#5 v=64
61530 On ch=1 n=c#6 v=64
61546 Off ch=1 n=c#6 v=64
61550 On ch=1 n=a#5 v=64
61566 Off ch=1 n=a#5 v=64
61570 On ch=1 n=f#5 v=64
61586 Off ch=1 n=f#5 v=64
61590 On ch=1 n=c5 v=64
61606 Off ch=1 n=c5 v=64
61610 On ch=1 n=f#5 v=64
61626 Off ch=1 n=f#5 v=64
61630 On ch=1 n=a#5 v=64
61646 Off ch=1 n=a#5 v=64
61650 On ch=1 n=c6 v=64
61666 Off ch=1 n=c6 v=64
61670 On ch=1 n=a#5 v=64
61686 Off ch=1 n=a#5 v=64
61690 On ch=1 n=f#5 v=64
61706 Off ch=1 n=f#5 v=64
61710 On ch=1 n=c5 v=64
61726 Off ch=1 n=c5 v=64
61730 On ch=1 n=f#5 v=64
61746 Off ch=1 n=f#5 v=64
61750 On ch=1 n=a#5 v=64
61766 Off ch=1 n=a#5 v=64
61770 On ch=1 n=c6 v=64
61786 Off ch=1 n=c6 v=64
61790 On ch=1 n=a#5 v=64
61806 Off ch=1 n=a#5 v=64
61810 On ch=1 n=f#5 v=64
61826 Off ch=1 n=f#5 v=64
61830 On ch=1 n=c5 v=64
61846 Off ch=1 n=c5 v=64
61850 On ch=1 n=f5 v=64
61866 Off ch=1 n=f5 v=64
61870 On ch=1 n=a5 v=64
61886 Off ch=1 n=a5 v=64
61890 On ch=1 n=c6 v=64
61906 Off ch=1 n=c6 v=64
61910 On ch=1 n=a5 v=64
61926 Off ch=1 n=a5 v=64
61930 On ch=1 n=f5 v=64
61946 Off ch=1 n=f5 v=64
61950 On ch=1 n=c5 v=64
61966 Off ch=1 n=c5 v=64
61970 On ch=1 n=d#5 v=64
61986 Off ch=1 n=d#5 v=64
61990 On ch=1 n=f5 v=64
62006 Off ch=1 n=f5 v=64
62010 On ch=1 n=a5 v=64
62026 Off ch=1 n=a5 v=64
62030 On ch=1 n=f5 v=64
62046 Off ch=1 n=f5 v=64
62050 On ch=1 n=d#5 v=64
62066 Off ch=1 n=d#5 v=64
62070 On ch=1 n=c#5 v=64
62070 On ch=1 n=a#5 v=64
62166 Off ch=1 n=a#5 v=64
62166 Off ch=1 n=c#5 v=64
62280 On ch=1 n=e6 v=64
62280 On ch=1 n=e5 v=64
62304 Off ch=1 n=e5 v=64
62304 Off ch=1 n=e6 v=64
62310 On ch=1 n=f6 v=64
62310 On ch=1 n=f5 v=64
62350 Off ch=1 n=f5 v=64
62350 Off ch=1 n=f6 v=64
62400 On ch=1 n=a6 v=64
62400 On ch=1 n=a5 v=64
62424 Off ch=1 n=a5 v=64
62424 Off ch=1 n=a6 v=64
62430 On ch=1 n=a#6 v=64
62430 On ch=1 n=a#5 v=64
62470 Off ch=1 n=a#5 v=64
62470 Off ch=1 n=a#6 v=64
62520 On ch=1 n=c7 v=64
62520 On ch=1 n=c6 v=64
62544 Off ch=1 n=c6 v=64
62544 Off ch=1 n=c7 v=64
62550 On ch=1 n=c#7 v=64
62550 On ch=1 n=c#6 v=64
62646 Off ch=1 n=c#6 v=64
62646 Off ch=1 n=c#7 v=64
62730 On ch=1 n=f3 v=64
62826 Off ch=1 n=f3 v=64
62850 On ch=1 n=c#3 v=64
62946 Off ch=1 n=c#3 v=64
62970 On ch=1 n=a#2 v=64
63018 Off ch=1 n=a#2 v=64
63030 On ch=1 n=a2 v=64
63126 Off ch=1 n=a2 v=64
63240 On ch=1 n=e6 v=64
63240 On ch=1 n=e5 v=64
63264 Off ch=1 n=e5 v=64
63264 Off ch=1 n=e6 v=64
63270 On ch=1 n=f6 v=64
63270 On ch=1 n=f5 v=64
63310 Off ch=1 n=f5 v=64
63310 Off ch=1 n=f6 v=64
63360 On ch=1 n=a5 v=64
63360 On ch=1 n=a6 v=64
63384 Off ch=1 n=a6 v=64
63384 Off ch=1 n=a5 v=64
63390 On ch=1 n=c6 v=64
63390 On ch=1 n=c7 v=64
63430 Off ch=1 n=c7 v=64
63430 Off ch=1 n=c6 v=64
63480 On ch=1 n=c#6 v=64
63480 On ch=1 n=c#7 v=64
63504 Off ch=1 n=c#7 v=64
63504 Off ch=1 n=c#6 v=64
63510 On ch=1 n=d#7 v=64
63510 On ch=1 n=d#6 v=64
63606 Off ch=1 n=d#6 v=64
63606 Off ch=1 n=d#7 v=64
63690 On ch=1 n=d#3 v=64
63786 Off ch=1 n=d#3 v=64
63810 On ch=1 n=c3 v=64
63906 Off ch=1 n=c3 v=64
63930 On ch=1 n=a2 v=64
63978 Off ch=1 n=a2 v=64
63990 On ch=1 n=a#2 v=64
64086 Off ch=1 n=a#2 v=64
64200 On ch=1 n=e5 v=64
64200 On ch=1 n=e6 v=64
64224 Off ch=1 n=e6 v=64
64224 Off ch=1 n=e5 v=64
64230 On ch=1 n=f5 v=64
64230 On ch=1 n=f6 v=64
64270 Off ch=1 n=f6 v=64
64270 Off ch=1 n=f5 v=64
64320 On ch=1 n=a5 v=64
64320 On ch=1 n=a6 v=64
64344 Off ch=1 n=a6 v=64
64344 Off ch=1 n=a5 v=64
64350 On ch=1 n=a#5 v=64
64350 On ch=1 n=a#6 v=64
64390 Off ch=1 n=a#6 v=64
64390 Off ch=1 n=a#5 v=64
64440 On ch=1 n=c7 v=64
64440 On ch=1 n=c6 v=64
64464 Off ch=1 n=c6 v=64
64464 Off ch=1 n=c7 v=64
64470 On ch=1 n=c#6 v=64
64470 On ch=1 n=c#7 v=64
64566 Off ch=1 n=c#7 v=64
64566 Off ch=1 n=c#6 v=64
64650 On ch=1 n=f3 v=64
64746 Off ch=1 n=f3 v=64
64770 On ch=1 n=c#3 v=64
64866 Off ch=1 n=c#3 v=64
64890 On ch=1 n=a#2 v=64
64950 On ch=1 n=c4 v=64
64986 Off ch=1 n=a#2 v=64
65046 Off ch=1 n=c4 v=64
65160 On ch=1 n=f#6 v=64
65160 On ch=1 n=f#5 v=64
65187 Off ch=1 n=f#5 v=64
65187 Off ch=1 n=f#6 v=64
65190 On ch=1 n=g6 v=64
65190 On ch=1 n=g5 v=64
65230 Off ch=1 n=g5 v=64
65230 Off ch=1 n=g6 v=64
65280 On ch=1 n=b6 v=64
65280 On ch=1 n=b5 v=64
65307 Off ch=1 n=b5 v=64
65307 Off ch=1 n=b6 v=64
65310 On ch=1 n=c7 v=64
65310 On ch=1 n=c6 v=64
65350 Off ch=1 n=c6 v=64
65350 Off ch=1 n=c7 v=64
65400 On ch=1 n=a#6 v=64
65400 On ch=1 n=a#5 v=64
65427 Off ch=1 n=a#5 v=64
65427 Off ch=1 n=a#6 v=64
65430 On ch=1 n=g#6 v=64
65430 On ch=1 n=g#5 v=64
65470 Off ch=1 n=g#5 v=64
65470 Off ch=1 n=g#6 v=64
65520 On ch=1 n=f6 v=64
65547 Off ch=1 n=f6 v=64
65550 On ch=1 n=g#6 v=64
65590 Off ch=1 n=g#6 v=64
65640 On ch=1 n=b5 v=64
65667 Off ch=1 n=b5 v=64
65760 On ch=1 n=g6 v=64
65787 Off ch=1 n=g6 v=64
65790 On ch=1 n=c7 v=64
65830 Off ch=1 n=c7 v=64
65880 On ch=1 n=a#6 v=64
65907 Off ch=1 n=a#6 v=64
65910 On ch=1 n=g#6 v=64
65950 Off ch=1 n=g#6 v=64
66000 On ch=1 n=f6 v=64
66027 Off ch=1 n=f6 v=64
66030 On ch=1 n=g#6 v=64
66070 Off ch=1 n=g#6 v=64
66120 On ch=1 n=b5 v=64
66147 Off ch=1 n=b5 v=64
66240 On ch=1 n=g6 v=64
66267 Off ch=1 n=g6 v=64
66270 On ch=1 n=c7 v=64
66310 Off ch=1 n=c7 v=64
66360 On ch=1 n=a#6 v=64
66387 Off ch=1 n=a#6 v=64
66390 On ch=1 n=a6 v=64
66471 Off ch=1 n=a6 v=64
66480 On ch=1 n=c7 v=64
66507 Off ch=1 n=c7 v=64
66510 On ch=1 n=d#7 v=64
66550 Off ch=1 n=d#7 v=64
66600 On ch=1 n=a6 v=64
66627 Off ch=1 n=a6 v=64
66630 On ch=1 n=f6 v=64
66630 On ch=1 n=a#6 v=64
66670 Off ch=1 n=a#6 v=64
66670 Off ch=1 n=f6 v=64
66720 On ch=1 n=c#7 v=64
66747 Off ch=1 n=c#7 v=64
66750 On ch=1 n=f7 v=64
66790 Off ch=1 n=f7 v=64
66840 On ch=1 n=g6 v=64
66867 Off ch=1 n=g6 v=64
66870 On ch=1 n=d#6 v=64
66870 On ch=1 n=g#6 v=64
66910 Off ch=1 n=g#6 v=64
66910 Off ch=1 n=d#6 v=64
66960 On ch=1 n=d#7 v=64
66987 Off ch=1 n=d#7 v=64
66990 On ch=1 n=d7 v=64
67030 Off ch=1 n=d7 v=64
67080 On ch=1 n=c#7 v=64
67080 On ch=1 n=c#6 v=64
67107 Off ch=1 n=c#6 v=64
67107 Off ch=1 n=c#7 v=64
67110 On ch=1 n=c6 v=64
67110 On ch=1 n=c7 v=64
67150 Off ch=1 n=c7 v=64
67150 Off ch=1 n=c6 v=64
67200 On ch=1 n=a#5 v=64
67200 On ch=1 n=a#6 v=64
67227 Off ch=1 n=a#6 v=64
67227 Off ch=1 n=a#5 v=64
67230 On ch=1 n=g#6 v=64
67230 On ch=1 n=g#5 v=64
67270 Off ch=1 n=g#5 v=64
67270 Off ch=1 n=g#6 v=64
67320 On ch=1 n=g6 v=64
67320 On ch=1 n=g5 v=64
67347 Off ch=1 n=g5 v=64
67347 Off ch=1 n=g6 v=64
67350 On ch=1 n=f#6 v=64
67350 On ch=1 n=f#5 v=64
67390 Off ch=1 n=f#5 v=64
67390 Off ch=1 n=f#6 v=64
67440 On ch=1 n=c7 v=64
67440 On ch=1 n=c6 v=64
67467 Off ch=1 n=c6 v=64
67467 Off ch=1 n=c7 v=64
67470 On ch=1 n=d#7 v=64
67470 On ch=1 n=d#6 v=64
67510 Off ch=1 n=d#6 v=64
67510 Off ch=1 n=d#7 v=64
67560 On ch=1 n=d6 v=64
67560 On ch=1 n=d7 v=64
67587 Off ch=1 n=d7 v=64
67587 Off ch=1 n=d6 v=64
67590 On ch=1 n=c7 v=64
67590 On ch=1 n=c6 v=64
67630 Off ch=1 n=c6 v=64
67630 Off ch=1 n=c7 v=64
67680 On ch=1 n=g#6 v=64
67680 On ch=1 n=g#5 v=64
67707 Off ch=1 n=g#5 v=64
67707 Off ch=1 n=g#6 v=64
67710 On ch=1 n=g6 v=64
67710 On ch=1 n=g5 v=64
67750 Off ch=1 n=g5 v=64
67750 Off ch=1 n=g6 v=64
67800 On ch=1 n=f6 v=64
67800 On ch=1 n=f5 v=64
67827 Off ch=1 n=f5 v=64
67827 Off ch=1 n=f6 v=64
67830 On ch=1 n=g6 v=64
67830 On ch=1 n=g5 v=64
67846 Off ch=1 n=g5 v=64
67846 Off ch=1 n=g6 v=64
67850 On ch=1 n=b5 v=64
67866 Off ch=1 n=b5 v=64
67870 On ch=1 n=d6 v=64
67886 Off ch=1 n=d6 v=64
67890 On ch=1 n=g6 v=64
67906 Off ch=1 n=g6 v=64
67910 On ch=1 n=d6 v=64
67926 Off ch=1 n=d6 v=64
67930 On ch=1 n=b5 v=64
67946 Off ch=1 n=b5 v=64
67950 On ch=1 n=g5 v=64
67966 Off ch=1 n=g5 v=64
67970 On ch=1 n=b5 v=64
67986 Off ch=1 n=b5 v=64
67990 On ch=1 n=d6 v=64
68006 Off ch=1 n=d6 v=64
68010 On ch=1 n=g6 v=64
68026 Off ch=1 n=g6 v=64
68030 On ch=1 n=d6 v=64
68046 Off ch=1 n=d6 v=64
68050 On ch=1 n=b5 v=64
68066 Off ch=1 n=b5 v=64
68070 On ch=1 n=g5 v=64
68086 Off ch=1 n=g5 v=64
68090 On ch=1 n=b5 v=64
68106 Off ch=1 n=b5 v=64
68110 On ch=1 n=d6 v=64
68126 Off ch=1 n=d6 v=64
68130 On ch=1 n=g6 v=64
68146 Off ch=1 n=g6 v=64
68150 On ch=1 n=d6 v=64
68166 Off ch=1 n=d6 v=64
68170 On ch=1 n=b5 v=64
68186 Off ch=1 n=b5 v=64
68190 On ch=1 n=g5 v=64
68206 Off ch=1 n=g5 v=64
68210 On ch=1 n=b5 v=64
68226 Off ch=1 n=b5 v=64
68230 On ch=1 n=d6 v=64
68246 Off ch=1 n=d6 v=64
68250 On ch=1 n=g6 v=64
68266 Off ch=1 n=g6 v=64
68270 On ch=1 n=d6 v=64
68286 Off ch=1 n=d6 v=64
68290 On ch=1 n=b5 v=64
68306 Off ch=1 n=b5 v=64
68310 On ch=1 n=g5 v=64
68326 Off ch=1 n=g5 v=64
68330 On ch=1 n=c6 v=64
68346 Off ch=1 n=c6 v=64
68350 On ch=1 n=d#6 v=64
68366 Off ch=1 n=d#6 v=64
68370 On ch=1 n=g6 v=64
68386 Off ch=1 n=g6 v=64
68390 On ch=1 n=d#6 v=64
68406 Off ch=1 n=d#6 v=64
68410 On ch=1 n=c6 v=64
68426 Off ch=1 n=c6 v=64
68430 On ch=1 n=g5 v=64
68446 Off ch=1 n=g5 v=64
68450 On ch=1 n=c6 v=64
68466 Off ch=1 n=c6 v=64
68470 On ch=1 n=d#6 v=64
68486 Off ch=1 n=d#6 v=64
68490 On ch=1 n=g6 v=64
68506 Off ch=1 n=g6 v=64
68510 On ch=1 n=d#6 v=64
68526 Off ch=1 n=d#6 v=64
68530 On ch=1 n=c6 v=64
68546 Off ch=1 n=c6 v=64
68550 On ch=1 n=g5 v=64
68566 Off ch=1 n=g5 v=64
68570 On ch=1 n=c6 v=64
68586 Off ch=1 n=c6 v=64
68590 On ch=1 n=d#6 v=64
68606 Off ch=1 n=d#6 v=64
68610 On ch=1 n=g6 v=64
68626 Off ch=1 n=g6 v=64
68630 On ch=1 n=d#6 v=64
68646 Off ch=1 n=d#6 v=64
68650 On ch=1 n=c6 v=64
68666 Off ch=1 n=c6 v=64
68670 On ch=1 n=g5 v=64
68686 Off ch=1 n=g5 v=64
68690 On ch=1 n=c6 v=64
68706 Off ch=1 n=c6 v=64
68710 On ch=1 n=d#6 v=64
68726 Off ch=1 n=d#6 v=64
68730 On ch=1 n=g6 v=64
68746 Off ch=1 n=g6 v=64
68750 On ch=1 n=d#6 v=64
68766 Off ch=1 n=d#6 v=64
68770 On ch=1 n=c6 v=64
68786 Off ch=1 n=c6 v=64
68790 On ch=1 n=g5 v=64
68806 Off ch=1 n=g5 v=64
68810 On ch=1 n=d6 v=64
68826 Off ch=1 n=d6 v=64
68830 On ch=1 n=f6 v=64
68846 Off ch=1 n=f6 v=64
68850 On ch=1 n=g6 v=64
68866 Off ch=1 n=g6 v=64
68870 On ch=1 n=f6 v=64
68886 Off ch=1 n=f6 v=64
68890 On ch=1 n=d6 v=64
68906 Off ch=1 n=d6 v=64
68910 On ch=1 n=g5 v=64
68926 Off ch=1 n=g5 v=64
68930 On ch=1 n=d6 v=64
68946 Off ch=1 n=d6 v=64
68950 On ch=1 n=f6 v=64
68966 Off ch=1 n=f6 v=64
68970 On ch=1 n=g6 v=64
68986 Off ch=1 n=g6 v=64
68990 On ch=1 n=f6 v=64
69006 Off ch=1 n=f6 v=64
69010 On ch=1 n=d6 v=64
69026 Off ch=1 n=d6 v=64
69030 On ch=1 n=g5 v=64
69046 Off ch=1 n=g5 v=64
69050 On ch=1 n=d6 v=64
69066 Off ch=1 n=d6 v=64
69070 On ch=1 n=f6 v=64
69086 Off ch=1 n=f6 v=64
69090 On ch=1 n=g6 v=64
69106 Off ch=1 n=g6 v=64
69110 On ch=1 n=f6 v=64
69126 Off ch=1 n=f6 v=64
69130 On ch=1 n=d6 v=64
69146 Off ch=1 n=d6 v=64
69150 On ch=1 n=g5 v=64
69166 Off ch=1 n=g5 v=64
69170 On ch=1 n=d6 v=64
69186 Off ch=1 n=d6 v=64
69190 On ch=1 n=f6 v=64
69206 Off ch=1 n=f6 v=64
69210 On ch=1 n=g6 v=64
69226 Off ch=1 n=g6 v=64
69230 On ch=1 n=f6 v=64
69246 Off ch=1 n=f6 v=64
69250 On ch=1 n=d6 v=64
69266 Off ch=1 n=d6 v=64
69270 On ch=1 n=g5 v=64
69286 Off ch=1 n=g5 v=64
69290 On ch=1 n=c6 v=64
69306 Off ch=1 n=c6 v=64
69310 On ch=1 n=d#6 v=64
69326 Off ch=1 n=d#6 v=64
69330 On ch=1 n=g6 v=64
69346 Off ch=1 n=g6 v=64
69350 On ch=1 n=d#6 v=64
69366 Off ch=1 n=d#6 v=64
69370 On ch=1 n=c6 v=64
69386 Off ch=1 n=c6 v=64
69390 On ch=1 n=g5 v=64
69406 Off ch=1 n=g5 v=64
69410 On ch=1 n=c6 v=64
69426 Off ch=1 n=c6 v=64
69430 On ch=1 n=d#6 v=64
69446 Off ch=1 n=d#6 v=64
69450 On ch=1 n=g6 v=64
69466 Off ch=1 n=g6 v=64
69470 On ch=1 n=d#6 v=64
69486 Off ch=1 n=d#6 v=64
69490 On ch=1 n=c6 v=64
69506 Off ch=1 n=c6 v=64
69510 On ch=1 n=g5 v=64
69526 Off ch=1 n=g5 v=64
69530 On ch=1 n=c6 v=64
69546 Off ch=1 n=c6 v=64
69550 On ch=1 n=d#6 v=64
69566 Off ch=1 n=d#6 v=64
69570 On ch=1 n=g6 v=64
69586 Off ch=1 n=g6 v=64
69590 On ch=1 n=d#6 v=64
69606 Off ch=1 n=d#6 v=64
69610 On ch=1 n=c6 v=64
69626 Off ch=1 n=c6 v=64
69630 On ch=1 n=g5 v=64
69646 Off ch=1 n=g5 v=64
69650 On ch=1 n=c6 v=64
69666 Off ch=1 n=c6 v=64
69670 On ch=1 n=d#6 v=64
69686 Off ch=1 n=d#6 v=64
69690 On ch=1 n=g6 v=64
69706 Off ch=1 n=g6 v=64
69710 On ch=1 n=d#6 v=64
69726 Off ch=1 n=d#6 v=64
69730 On ch=1 n=c6 v=64
69746 Off ch=1 n=c6 v=64
69750 On ch=1 n=g5 v=64
69766 Off ch=1 n=g5 v=64
69770 On ch=1 n=b5 v=64
69786 Off ch=1 n=b5 v=64
69790 On ch=1 n=d6 v=64
69806 Off ch=1 n=d6 v=64
69810 On ch=1 n=g6 v=64
69826 Off ch=1 n=g6 v=64
69830 On ch=1 n=d6 v=64
69846 Off ch=1 n=d6 v=64
69850 On ch=1 n=b5 v=64
69866 Off ch=1 n=b5 v=64
69870 On ch=1 n=g5 v=64
69886 Off ch=1 n=g5 v=64
69890 On ch=1 n=d5 v=64
69906 Off ch=1 n=d5 v=64
69910 On ch=1 n=b4 v=64
69926 Off ch=1 n=b4 v=64
70290 On ch=1 n=g4 v=64
70354 Off ch=1 n=g4 v=64
70370 On ch=1 n=b4 v=64
70434 Off ch=1 n=b4 v=64
70450 On ch=1 n=d5 v=64
70514 Off ch=1 n=d5 v=64
70530 On ch=1 n=g5 v=80
70626 Off ch=1 n=g5 v=64
70770 On ch=1 n=c5 v=64
70778 Off ch=1 n=c5 v=64
70780 On ch=1 n=d#5 v=64
70788 Off ch=1 n=d#5 v=64
70790 On ch=1 n=g5 v=64
70798 Off ch=1 n=g5 v=64
70800 On ch=1 n=c6 v=64
70812 Off ch=1 n=c6 v=64
70815 On ch=1 n=d#6 v=64
70827 Off ch=1 n=d#6 v=64
70830 On ch=1 n=g6 v=64
71022 Off ch=1 n=g6 v=64
71070 On ch=1 n=f6 v=64
71094 Off ch=1 n=f6 v=64
71100 On ch=1 n=d#6 v=64
71124 Off ch=1 n=d#6 v=64
71130 On ch=1 n=d6 v=64
71154 Off ch=1 n=d6 v=64
71160 On ch=1 n=c6 v=64
71184 Off ch=1 n=c6 v=64
71190 On ch=1 n=b5 v=64
71334 Off ch=1 n=b5 v=64
71370 On ch=1 n=f6 v=64
71418 Off ch=1 n=f6 v=64
71430 On ch=1 n=g#6 v=64
71574 Off ch=1 n=g#6 v=64
71610 On ch=1 n=b5 v=64
71658 Off ch=1 n=b5 v=64
71670 On ch=1 n=c6 v=64
71742 Off ch=1 n=c6 v=64
71745 On ch=1 n=d6 v=64
71757 Off ch=1 n=d6 v=64
71760 On ch=1 n=c6 v=64
71772 Off ch=1 n=c6 v=64
71775 On ch=1 n=b5 v=64
71787 Off ch=1 n=b5 v=64
71790 On ch=1 n=c6 v=64
71838 Off ch=1 n=c6 v=64
71850 On ch=1 n=b6 v=64
71898 Off ch=1 n=b6 v=64
71910 On ch=1 n=b6 v=64
72006 Off ch=1 n=b6 v=64
72030 On ch=1 n=c7 v=64
72078 Off ch=1 n=c7 v=64
72330 On ch=1 n=c6 v=64
72378 Off ch=1 n=c6 v=64
72390 On ch=1 n=c6 v=64
72462 Off ch=1 n=c6 v=64
72465 On ch=1 n=d6 v=64
72477 Off ch=1 n=d6 v=64
72480 On ch=1 n=c6 v=64
72492 Off ch=1 n=c6 v=64
72495 On ch=1 n=b5 v=64
72507 Off ch=1 n=b5 v=64
72510 On ch=1 n=c6 v=64
72558 Off ch=1 n=c6 v=64
72570 On ch=1 n=d#6 v=64
72726 Off ch=1 n=d#6 v=64
72750 On ch=1 n=d6 v=64
72942 Off ch=1 n=d6 v=64
72990 On ch=1 n=g#6 v=64
73182 Off ch=1 n=g#6 v=64
73230 On ch=1 n=g6 v=64
73422 Off ch=1 n=g6 v=64
73470 On ch=1 n=f6 v=64
73638 Off ch=1 n=f6 v=64
73650 On ch=1 n=d#6 v=64
73698 Off ch=1 n=d#6 v=64
73710 On ch=1 n=g#6 v=64
73758 Off ch=1 n=g#6 v=64
73770 On ch=1 n=g6 v=64
73818 Off ch=1 n=g6 v=64
73830 On ch=1 n=f#6 v=64
73838 Off ch=1 n=f#6 v=64
73840 On ch=1 n=g6 v=64
73848 Off ch=1 n=g6 v=64
73850 On ch=1 n=g#6 v=64
73858 Off ch=1 n=g#6 v=64
73860 On ch=1 n=g6 v=64
74028 Off ch=1 n=g6 v=64
74190 On ch=1 n=g#4 v=64
74202 Off ch=1 n=g#4 v=64
74205 On ch=1 n=a#4 v=64
74217 Off ch=1 n=a#4 v=64
74220 On ch=1 n=c5 v=64
74232 Off ch=1 n=c5 v=64
74235 On ch=1 n=d5 v=64
74240 Off ch=1 n=d5 v=64
74242 On ch=1 n=d#5 v=64
74247 Off ch=1 n=d#5 v=64
74249 On ch=1 n=f5 v=64
74254 Off ch=1 n=f5 v=64
74256 On ch=1 n=g5 v=64
74261 Off ch=1 n=g5 v=64
74263 On ch=1 n=g#5 v=64
74268 Off ch=1 n=g#5 v=64
74270 On ch=1 n=a#5 v=64
74275 Off ch=1 n=a#5 v=64
74277 On ch=1 n=c6 v=64
74282 Off ch=1 n=c6 v=64
74284 On ch=1 n=d6 v=64
74289 Off ch=1 n=d6 v=64
74291 On ch=1 n=d#6 v=64
74296 Off ch=1 n=d#6 v=64
74298 On ch=1 n=f6 v=64
74310 Off ch=1 n=f6 v=64
74313 On ch=1 n=g6 v=64
74646 Off ch=1 n=g6 v=64
74670 On ch=1 n=f6 v=64
74862 Off ch=1 n=f6 v=64
74910 On ch=1 n=d#6 v=64
75078 Off ch=1 n=d#6 v=64
75090 On ch=1 n=d6 v=64
75186 Off ch=1 n=d6 v=64
75210 On ch=1 n=b5 v=64
75306 Off ch=1 n=b5 v=64
75330 On ch=1 n=a#5 v=64
75426 Off ch=1 n=a#5 v=64
75450 On ch=1 n=g#5 v=64
75558 Off ch=1 n=g#5 v=64
75570 On ch=1 n=g5 v=64
75618 Off ch=1 n=g5 v=64
75630 On ch=1 n=f5 v=64
75678 Off ch=1 n=f5 v=64
75690 On ch=1 n=d#5 v=64
75738 Off ch=1 n=d#5 v=64
75750 On ch=1 n=d#5 v=64
75942 Off ch=1 n=d#5 v=64
76050 On ch=1 n=d#5 v=64
76062 Off ch=1 n=d#5 v=64
76065 On ch=1 n=g5 v=64
76077 Off ch=1 n=g5 v=64
76080 On ch=1 n=a#5 v=64
76092 Off ch=1 n=a#5 v=64
76095 On ch=1 n=d#6 v=64
76107 Off ch=1 n=d#6 v=64
76110 On ch=1 n=g6 v=64
76302 Off ch=1 n=g6 v=64
76350 On ch=1 n=g6 v=64
76518 Off ch=1 n=g6 v=64
76530 On ch=1 n=f6 v=64
76578 Off ch=1 n=f6 v=64
76590 On ch=1 n=e6 v=64
76638 Off ch=1 n=e6 v=64
76650 On ch=1 n=f6 v=64
76698 Off ch=1 n=f6 v=64
76710 On ch=1 n=e6 v=64
76718 Off ch=1 n=e6 v=64
76720 On ch=1 n=f6 v=64
76728 Off ch=1 n=f6 v=64
76730 On ch=1 n=g6 v=64
76738 Off ch=1 n=g6 v=64
76740 On ch=1 n=f6 v=64
76908 Off ch=1 n=f6 v=64
77010 On ch=1 n=c5 v=64
77022 Off ch=1 n=c5 v=64
77025 On ch=1 n=d#5 v=64
77037 Off ch=1 n=d#5 v=64
77040 On ch=1 n=g5 v=64
77052 Off ch=1 n=g5 v=64
77055 On ch=1 n=c6 v=64
77067 Off ch=1 n=c6 v=64
77070 On ch=1 n=d#6 v=64
77262 Off ch=1 n=d#6 v=64
77310 On ch=1 n=d#6 v=64
77478 Off ch=1 n=d#6 v=64
77490 On ch=1 n=d6 v=64
77538 Off ch=1 n=d6 v=64
77550 On ch=1 n=c#6 v=64
77598 Off ch=1 n=c#6 v=64
77610 On ch=1 n=d6 v=64
77658 Off ch=1 n=d6 v=64
77670 On ch=1 n=c#6 v=64
77678 Off ch=1 n=c#6 v=64
77680 On ch=1 n=d6 v=64
77688 Off ch=1 n=d6 v=64
77690 On ch=1 n=d#6 v=64
77698 Off ch=1 n=d#6 v=64
77700 On ch=1 n=d6 v=64
77868 Off ch=1 n=d6 v=64
77970 On ch=1 n=g#4 v=64
77982 Off ch=1 n=g#4 v=64
77985 On ch=1 n=c5 v=64
77997 Off ch=1 n=c5 v=64
78000 On ch=1 n=d#5 v=64
78012 Off ch=1 n=d#5 v=64
78015 On ch=1 n=g#5 v=64
78027 Off ch=1 n=g#5 v=64
78030 On ch=1 n=c6 v=64
78222 Off ch=1 n=c6 v=64
78270 On ch=1 n=c6 v=64
78366 Off ch=1 n=c6 v=64
78390 On ch=1 n=c6 v=64
78438 Off ch=1 n=c6 v=64
78450 On ch=1 n=a#5 v=64
78498 Off ch=1 n=a#5 v=64
78510 On ch=1 n=a5 v=64
78558 Off ch=1 n=a5 v=64
78570 On ch=1 n=a#5 v=64
78618 Off ch=1 n=a#5 v=64
78660 On ch=1 n=a#5 v=64
78684 Off ch=1 n=a#5 v=64
78690 On ch=1 n=g6 v=64
78700 Off ch=1 n=g6 v=64
78717 On ch=1 n=f6 v=64
78727 Off ch=1 n=f6 v=64
78744 On ch=1 n=d#6 v=64
78754 Off ch=1 n=d#6 v=64
78771 On ch=1 n=d6 v=64
78781 Off ch=1 n=d6 v=64
78798 On ch=1 n=c6 v=64
78808 Off ch=1 n=c6 v=64
78825 On ch=1 n=a#5 v=64
78879 Off ch=1 n=a#5 v=64
78885 On ch=1 n=g#5 v=64
78893 Off ch=1 n=g#5 v=64
78895 On ch=1 n=a#5 v=64
78903 Off ch=1 n=a#5 v=64
78905 On ch=1 n=g#5 v=64
78913 Off ch=1 n=g#5 v=64
78915 On ch=1 n=f6 v=64
78925 Off ch=1 n=f6 v=64
78942 On ch=1 n=d#6 v=64
78952 Off ch=1 n=d#6 v=64
78969 On ch=1 n=d6 v=64
78979 Off ch=1 n=d6 v=64
78996 On ch=1 n=c6 v=64
79006 Off ch=1 n=c6 v=64
79023 On ch=1 n=a#5 v=64
79033 Off ch=1 n=a#5 v=64
79050 On ch=1 n=g#5 v=64
79104 Off ch=1 n=g#5 v=64
79110 On ch=1 n=g5 v=64
79118 Off ch=1 n=g5 v=64
79120 On ch=1 n=g#5 v=64
79128 Off ch=1 n=g#5 v=64
79130 On ch=1 n=g5 v=64
79138 Off ch=1 n=g5 v=64
79140 On ch=1 n=d#6 v=64
79150 Off ch=1 n=d#6 v=64
79167 On ch=1 n=d6 v=64
79177 Off ch=1 n=d6 v=64
79194 On ch=1 n=c6 v=64
79204 Off ch=1 n=c6 v=64
79221 On ch=1 n=a#5 v=64
79231 Off ch=1 n=a#5 v=64
79248 On ch=1 n=g#5 v=64
79258 Off ch=1 n=g#5 v=64
79275 On ch=1 n=g5 v=64
79285 Off ch=1 n=g5 v=64
79302 On ch=1 n=a#5 v=64
79446 Off ch=1 n=a#5 v=64
79482 On ch=1 n=g5 v=64
79530 Off ch=1 n=g5 v=64
79542 On ch=1 n=f5 v=64
79638 Off ch=1 n=f5 v=64
79842 On ch=1 n=c5 v=64
79854 Off ch=1 n=c5 v=64
79857 On ch=1 n=d#5 v=64
79869 Off ch=1 n=d#5 v=64
79872 On ch=1 n=g5 v=64
79884 Off ch=1 n=g5 v=64
79887 On ch=1 n=c6 v=64
79899 Off ch=1 n=c6 v=64
79902 On ch=1 n=d#6 v=64
80094 Off ch=1 n=d#6 v=64
80142 On ch=1 n=d#6 v=64
80294 Off ch=1 n=d#6 v=64
80302 On ch=1 n=c#6 v=64
80320 Off ch=1 n=c#6 v=64
80342 On ch=1 n=d6 v=64
80360 Off ch=1 n=d6 v=64
80382 On ch=1 n=d#6 v=64
80400 Off ch=1 n=d#6 v=64
80422 On ch=1 n=e6 v=64
80440 Off ch=1 n=e6 v=64
80462 On ch=1 n=f6 v=64
80480 Off ch=1 n=f6 v=64
80502 On ch=1 n=f#6 v=64
80598 Off ch=1 n=f#6 v=64
80622 On ch=1 n=g6 v=64
80670 Off ch=1 n=g6 v=64
80802 On ch=1 n=g#4 v=64
80814 Off ch=1 n=g#4 v=64
80817 On ch=1 n=c5 v=64
80829 Off ch=1 n=c5 v=64
80832 On ch=1 n=d#5 v=64
80844 Off ch=1 n=d#5 v=64
80847 On ch=1 n=g#5 v=64
80859 Off ch=1 n=g#5 v=64
80862 On ch=1 n=c6 v=64
81054 Off ch=1 n=c6 v=64
81102 On ch=1 n=c6 v=64
81254 Off ch=1 n=c6 v=64
81262 On ch=1 n=a5 v=64
81280 Off ch=1 n=a5 v=64
81302 On ch=1 n=a#5 v=64
81320 Off ch=1 n=a#5 v=64
81342 On ch=1 n=b5 v=64
81360 Off ch=1 n=b5 v=64
81382 On ch=1 n=c6 v=64
81400 Off ch=1 n=c6 v=64
81422 On ch=1 n=c#6 v=64
81440 Off ch=1 n=c#6 v=64
81462 On ch=1 n=d6 v=64
81558 Off ch=1 n=d6 v=64
81582 On ch=1 n=d#6 v=64
81630 Off ch=1 n=d#6 v=64
81762 On ch=1 n=f4 v=64
81774 Off ch=1 n=f4 v=64
81777 On ch=1 n=g#4 v=64
81789 Off ch=1 n=g#4 v=64
81792 On ch=1 n=c5 v=64
81804 Off ch=1 n=c5 v=64
81807 On ch=1 n=f5 v=64
81819 Off ch=1 n=f5 v=64
81822 On ch=1 n=g#5 v=64
82014 Off ch=1 n=g#5 v=64
82062 On ch=1 n=g#5 v=64
82158 Off ch=1 n=g#5 v=64
82182 On ch=1 n=g#5 v=64
82206 Off ch=1 n=g#5 v=64
82212 On ch=1 n=f#5 v=64
82222 Off ch=1 n=f#5 v=64
82239 On ch=1 n=g5 v=64
82249 Off ch=1 n=g5 v=64
82266 On ch=1 n=g#5 v=64
82276 Off ch=1 n=g#5 v=64
82293 On ch=1 n=a5 v=64
82303 Off ch=1 n=a5 v=64
82320 On ch=1 n=a#5 v=64
82330 Off ch=1 n=a#5 v=64
82347 On ch=1 n=b5 v=64
82357 Off ch=1 n=b5 v=64
82374 On ch=1 n=c6 v=64
82384 Off ch=1 n=c6 v=64
82401 On ch=1 n=d6 v=64
82449 Off ch=1 n=d6 v=64
82461 On ch=1 n=c6 v=64
82509 Off ch=1 n=c6 v=64
82521 On ch=1 n=a#5 v=64
82569 Off ch=1 n=a#5 v=64
82581 On ch=1 n=g#5 v=64
82629 Off ch=1 n=g#5 v=64
82641 On ch=1 n=g5 v=64
82833 Off ch=1 n=g5 v=64
82881 On ch=1 n=f#5 v=64
83073 Off ch=1 n=f#5 v=64
83121 On ch=1 n=f5 v=64
83145 Off ch=1 n=f5 v=64
83151 On ch=1 n=c#5 v=64
83161 Off ch=1 n=c#5 v=64
83178 On ch=1 n=d5 v=64
83188 Off ch=1 n=d5 v=64
83205 On ch=1 n=d#5 v=64
83215 Off ch=1 n=d#5 v=64
83232 On ch=1 n=e5 v=64
83242 Off ch=1 n=e5 v=64
83259 On ch=1 n=f5 v=64
83269 Off ch=1 n=f5 v=64
83286 On ch=1 n=f#5 v=64
83296 Off ch=1 n=f#5 v=64
83313 On ch=1 n=g5 v=64
83323 Off ch=1 n=g5 v=64
83340 On ch=1 n=a#5 v=64
83388 Off ch=1 n=a#5 v=64
83400 On ch=1 n=g#5 v=64
83448 Off ch=1 n=g#5 v=64
83460 On ch=1 n=g5 v=64
83508 Off ch=1 n=g5 v=64
83520 On ch=1 n=f5 v=64
83568 Off ch=1 n=f5 v=64
83580 On ch=1 n=f5 v=64
83772 Off ch=1 n=f5 v=64
83820 On ch=1 n=d#5 v=64
84012 Off ch=1 n=d#5 v=64
84060 On ch=1 n=d5 v=64
84070 Off ch=1 n=d5 v=64
84087 On ch=1 n=d#5 v=64
84095 Off ch=1 n=d#5 v=64
84097 On ch=1 n=d5 v=64
84105 Off ch=1 n=d5 v=64
84107 On ch=1 n=c5 v=64
84115 Off ch=1 n=c5 v=64
84117 On ch=1 n=d5 v=64
84141 Off ch=1 n=d5 v=64
84147 On ch=1 n=d#5 v=64
84157 Off ch=1 n=d#5 v=64
84174 On ch=1 n=f5 v=64
84184 Off ch=1 n=f5 v=64
84201 On ch=1 n=g5 v=64
84209 Off ch=1 n=g5 v=64
84211 On ch=1 n=f5 v=64
84219 Off ch=1 n=f5 v=64
84221 On ch=1 n=e5 v=64
84229 Off ch=1 n=e5 v=64
84231 On ch=1 n=f5 v=64
84241 Off ch=1 n=f5 v=64
84258 On ch=1 n=g5 v=64
84268 Off ch=1 n=g5 v=64
84285 On ch=1 n=a#5 v=64
84333 Off ch=1 n=a#5 v=64
84345 On ch=1 n=g#5 v=64
84393 Off ch=1 n=g#5 v=64
84405 On ch=1 n=g5 v=64
84432 Off ch=1 n=g5 v=64
84465 On ch=1 n=f5 v=64
84492 Off ch=1 n=f5 v=64
84525 On ch=1 n=d#5 v=64
84669 Off ch=1 n=d#5 v=64
84705 On ch=1 n=f5 v=64
84729 Off ch=1 n=f5 v=64
84735 On ch=1 n=d#5 v=64
84759 Off ch=1 n=d#5 v=64
84765 On ch=1 n=b4 v=64
84765 On ch=1 n=d5 v=64
84861 Off ch=1 n=d5 v=64
84861 Off ch=1 n=b4 v=64
85005 On ch=1 n=e5 v=64
85005 On ch=1 n=g5 v=64
85005 On ch=1 n=c6 v=64
85005 On ch=1 n=e6 v=64
85149 Off ch=1 n=e6 v=64
85149 Off ch=1 n=c6 v=64
85149 Off ch=1 n=g5 v=64
85149 Off ch=1 n=e5 v=64
85185 On ch=1 n=e4 v=64
85185 On ch=1 n=g4 v=64
85233 Off ch=1 n=g4 v=64
85233 Off ch=1 n=e4 v=64
85245 On ch=1 n=a4 v=64
85257 Off ch=1 n=a4 v=64
85260 On ch=1 n=g4 v=64
85272 Off ch=1 n=g4 v=64
85275 On ch=1 n=a4 v=64
85287 Off ch=1 n=a4 v=64
85290 On ch=1 n=g4 v=64
85302 Off ch=1 n=g4 v=64
85305 On ch=1 n=a4 v=64
85317 Off ch=1 n=a4 v=64
85320 On ch=1 n=g4 v=64
85332 Off ch=1 n=g4 v=64
85335 On ch=1 n=a4 v=64
85347 Off ch=1 n=a4 v=64
85350 On ch=1 n=g4 v=64
85362 Off ch=1 n=g4 v=64
85365 On ch=1 n=a4 v=64
85377 Off ch=1 n=a4 v=64
85380 On ch=1 n=g4 v=64
85392 Off ch=1 n=g4 v=64
85395 On ch=1 n=a4 v=64
85407 Off ch=1 n=a4 v=64
85410 On ch=1 n=g4 v=64
85422 Off ch=1 n=g4 v=64
85425 On ch=1 n=f4 v=64
85449 Off ch=1 n=f4 v=64
85455 On ch=1 n=g4 v=64
85479 Off ch=1 n=g4 v=64
85515 On ch=1 n=e4 v=64
85515 On ch=1 n=g4 v=64
85539 Off ch=1 n=g4 v=64
85539 Off ch=1 n=e4 v=64
85545 On ch=1 n=a4 v=64
85545 On ch=1 n=f4 v=64
85569 Off ch=1 n=f4 v=64
85569 Off ch=1 n=a4 v=64
85575 On ch=1 n=g4 v=64
85575 On ch=1 n=b4 v=64
85599 Off ch=1 n=b4 v=64
85599 Off ch=1 n=g4 v=64
85605 On ch=1 n=a4 v=64
85605 On ch=1 n=c5 v=64
85629 Off ch=1 n=c5 v=64
85629 Off ch=1 n=a4 v=64
85635 On ch=1 n=d5 v=64
85635 On ch=1 n=b4 v=64
85659 Off ch=1 n=b4 v=64
85659 Off ch=1 n=d5 v=64
85665 On ch=1 n=e5 v=64
85665 On ch=1 n=c5 v=64
85689 Off ch=1 n=c5 v=64
85689 Off ch=1 n=e5 v=64
85695 On ch=1 n=d5 v=64
85695 On ch=1 n=f5 v=64
85719 Off ch=1 n=f5 v=64
85719 Off ch=1 n=d5 v=64
85725 On ch=1 n=e5 v=64
85725 On ch=1 n=g5 v=64
85749 Off ch=1 n=g5 v=64
85749 Off ch=1 n=e5 v=64
85755 On ch=1 n=a5 v=64
85755 On ch=1 n=f5 v=64
85779 Off ch=1 n=f5 v=64
85779 Off ch=1 n=a5 v=64
85785 On ch=1 n=b5 v=64
85785 On ch=1 n=g5 v=64
85809 Off ch=1 n=g5 v=64
85809 Off ch=1 n=b5 v=64
85815 On ch=1 n=c6 v=64
85815 On ch=1 n=a5 v=64
85839 Off ch=1 n=a5 v=64
85839 Off ch=1 n=c6 v=64
85845 On ch=1 n=d6 v=64
85845 On ch=1 n=b5 v=64
85869 Off ch=1 n=b5 v=64
85869 Off ch=1 n=d6 v=64
85875 On ch=1 n=c6 v=64
85875 On ch=1 n=e6 v=64
85899 Off ch=1 n=e6 v=64
85899 Off ch=1 n=c6 v=64
85905 On ch=1 n=f6 v=64
85905 On ch=1 n=d6 v=64
85929 Off ch=1 n=d6 v=64
85929 Off ch=1 n=f6 v=64
85935 On ch=1 n=g6 v=64
85935 On ch=1 n=e6 v=64
85959 Off ch=1 n=e6 v=64
85959 Off ch=1 n=g6 v=64
85965 On ch=1 n=f6 v=64
85965 On ch=1 n=a6 v=64
86109 Off ch=1 n=a6 v=64
86109 Off ch=1 n=f6 v=64
86145 On ch=1 n=f4 v=64
86145 On ch=1 n=a4 v=64
86193 Off ch=1 n=a4 v=64
86193 Off ch=1 n=f4 v=64
86205 On ch=1 n=b4 v=64
86217 Off ch=1 n=b4 v=64
86220 On ch=1 n=a4 v=64
86232 Off ch=1 n=a4 v=64
86235 On ch=1 n=b4 v=64
86247 Off ch=1 n=b4 v=64
86250 On ch=1 n=a4 v=64
86262 Off ch=1 n=a4 v=64
86265 On ch=1 n=b4 v=64
86277 Off ch=1 n=b4 v=64
86280 On ch=1 n=a4 v=64
86292 Off ch=1 n=a4 v=64
86295 On ch=1 n=b4 v=64
86307 Off ch=1 n=b4 v=64
86310 On ch=1 n=a4 v=64
86322 Off ch=1 n=a4 v=64
86325 On ch=1 n=b4 v=64
86337 Off ch=1 n=b4 v=64
86340 On ch=1 n=a4 v=64
86352 Off ch=1 n=a4 v=64
86355 On ch=1 n=b4 v=64
86367 Off ch=1 n=b4 v=64
86370 On ch=1 n=a4 v=64
86382 Off ch=1 n=a4 v=64
86385 On ch=1 n=g4 v=64
86409 Off ch=1 n=g4 v=64
86415 On ch=1 n=a4 v=64
86439 Off ch=1 n=a4 v=64
86475 On ch=1 n=a4 v=64
86475 On ch=1 n=f4 v=64
86499 Off ch=1 n=f4 v=64
86499 Off ch=1 n=a4 v=64
86505 On ch=1 n=b4 v=64
86505 On ch=1 n=g4 v=64
86529 Off ch=1 n=g4 v=64
86529 Off ch=1 n=b4 v=64
86535 On ch=1 n=c5 v=64
86535 On ch=1 n=a4 v=64
86559 Off ch=1 n=a4 v=64
86559 Off ch=1 n=c5 v=64
86565 On ch=1 n=d5 v=64
86565 On ch=1 n=b4 v=64
86589 Off ch=1 n=b4 v=64
86589 Off ch=1 n=d5 v=64
86595 On ch=1 n=e5 v=64
86595 On ch=1 n=c5 v=64
86619 Off ch=1 n=c5 v=64
86619 Off ch=1 n=e5 v=64
86625 On ch=1 n=d5 v=64
86625 On ch=1 n=f5 v=64
86649 Off ch=1 n=f5 v=64
86649 Off ch=1 n=d5 v=64
86655 On ch=1 n=g5 v=64
86655 On ch=1 n=e5 v=64
86679 Off ch=1 n=e5 v=64
86679 Off ch=1 n=g5 v=64
86685 On ch=1 n=f5 v=64
86685 On ch=1 n=a5 v=64
86709 Off ch=1 n=a5 v=64
86709 Off ch=1 n=f5 v=64
86715 On ch=1 n=g5 v=64
86715 On ch=1 n=b5 v=64
86739 Off ch=1 n=b5 v=64
86739 Off ch=1 n=g5 v=64
86745 On ch=1 n=a5 v=64
86745 On ch=1 n=c6 v=64
86769 Off ch=1 n=c6 v=64
86769 Off ch=1 n=a5 v=64
86775 On ch=1 n=d6 v=64
86775 On ch=1 n=b5 v=64
86799 Off ch=1 n=b5 v=64
86799 Off ch=1 n=d6 v=64
86805 On ch=1 n=e6 v=64
86805 On ch=1 n=c6 v=64
86829 Off ch=1 n=c6 v=64
86829 Off ch=1 n=e6 v=64
86835 On ch=1 n=f6 v=64
86835 On ch=1 n=d6 v=64
86859 Off ch=1 n=d6 v=64
86859 Off ch=1 n=f6 v=64
86865 On ch=1 n=e6 v=64
86865 On ch=1 n=g6 v=64
86889 Off ch=1 n=g6 v=64
86889 Off ch=1 n=e6 v=64
86895 On ch=1 n=f6 v=64
86895 On ch=1 n=a6 v=64
86919 Off ch=1 n=a6 v=64
86919 Off ch=1 n=f6 v=64
86925 On ch=1 n=d6 v=64
86925 On ch=1 n=g6 v=64
86925 On ch=1 n=b5 v=64
87069 Off ch=1 n=b5 v=64
87069 Off ch=1 n=g6 v=64
87069 Off ch=1 n=d6 v=64
87105 On ch=1 n=f4 v=64
87105 On ch=1 n=b4 v=64
87105 On ch=1 n=d4 v=64
87153 Off ch=1 n=d4 v=64
87153 Off ch=1 n=b4 v=64
87153 Off ch=1 n=f4 v=64
87165 On ch=1 n=d4 v=64
87165 On ch=1 n=b4 v=64
87357 Off ch=1 n=b4 v=64
87357 Off ch=1 n=d4 v=64
87435 On ch=1 n=g4 v=64
87435 On ch=1 n=b4 v=64
87459 Off ch=1 n=b4 v=64
87459 Off ch=1 n=g4 v=64
87465 On ch=1 n=a4 v=64
87465 On ch=1 n=c5 v=64
87489 Off ch=1 n=c5 v=64
87489 Off ch=1 n=a4 v=64
87495 On ch=1 n=b4 v=64
87495 On ch=1 n=d5 v=64
87519 Off ch=1 n=d5 v=64
87519 Off ch=1 n=b4 v=64
87525 On ch=1 n=e5 v=64
87525 On ch=1 n=c5 v=64
87549 Off ch=1 n=c5 v=64
87549 Off ch=1 n=e5 v=64
87555 On ch=1 n=d5 v=64
87555 On ch=1 n=f5 v=64
87579 Off ch=1 n=f5 v=64
87579 Off ch=1 n=d5 v=64
87585 On ch=1 n=e5 v=64
87585 On ch=1 n=g5 v=64
87609 Off ch=1 n=g5 v=64
87609 Off ch=1 n=e5 v=64
87615 On ch=1 n=f5 v=64
87615 On ch=1 n=a5 v=64
87639 Off ch=1 n=a5 v=64
87639 Off ch=1 n=f5 v=64
87645 On ch=1 n=g5 v=64
87645 On ch=1 n=b5 v=64
87669 Off ch=1 n=b5 v=64
87669 Off ch=1 n=g5 v=64
87675 On ch=1 n=c6 v=64
87675 On ch=1 n=a5 v=64
87699 Off ch=1 n=a5 v=64
87699 Off ch=1 n=c6 v=64
87705 On ch=1 n=b5 v=64
87705 On ch=1 n=d6 v=64
87729 Off ch=1 n=d6 v=64
87729 Off ch=1 n=b5 v=64
87735 On ch=1 n=c6 v=64
87735 On ch=1 n=e6 v=64
87759 Off ch=1 n=e6 v=64
87759 Off ch=1 n=c6 v=64
87765 On ch=1 n=d6 v=64
87765 On ch=1 n=f6 v=64
87789 Off ch=1 n=f6 v=64
87789 Off ch=1 n=d6 v=64
87795 On ch=1 n=g6 v=64
87795 On ch=1 n=e6 v=64
87819 Off ch=1 n=e6 v=64
87819 Off ch=1 n=g6 v=64
87825 On ch=1 n=f6 v=64
87825 On ch=1 n=a6 v=64
87849 Off ch=1 n=a6 v=64
87849 Off ch=1 n=f6 v=64
87855 On ch=1 n=b6 v=64
87855 On ch=1 n=d6 v=64
87879 Off ch=1 n=d6 v=64
87879 Off ch=1 n=b6 v=64
87885 On ch=1 n=c7 v=64
87885 On ch=1 n=e6 v=64
87957 Off ch=1 n=e6 v=64
87957 Off ch=1 n=c7 v=64
87975 On ch=1 n=g6 v=64
87999 Off ch=1 n=g6 v=64
88005 On ch=1 n=g6 v=64
88013 Off ch=1 n=g6 v=64
88015 On ch=1 n=a6 v=64
88023 Off ch=1 n=a6 v=64
88025 On ch=1 n=g6 v=64
88033 Off ch=1 n=g6 v=64
88035 On ch=1 n=a6 v=64
88043 Off ch=1 n=a6 v=64
88045 On ch=1 n=g6 v=64
88053 Off ch=1 n=g6 v=64
88055 On ch=1 n=a6 v=64
88063 Off ch=1 n=a6 v=64
88065 On ch=1 n=g6 v=64
88137 Off ch=1 n=g6 v=64
88245 On ch=1 n=g6 v=64
88269 Off ch=1 n=g6 v=64
88275 On ch=1 n=g6 v=64
88283 Off ch=1 n=g6 v=64
88285 On ch=1 n=a6 v=64
88293 Off ch=1 n=a6 v=64
88295 On ch=1 n=g6 v=64
88303 Off ch=1 n=g6 v=64
88305 On ch=1 n=a6 v=64
88313 Off ch=1 n=a6 v=64
88315 On ch=1 n=g6 v=64
88323 Off ch=1 n=g6 v=64
88325 On ch=1 n=a6 v=64
88333 Off ch=1 n=a6 v=64
88335 On ch=1 n=g6 v=64
88347 Off ch=1 n=g6 v=64
88350 On ch=1 n=f6 v=64
88362 Off ch=1 n=f6 v=64
88365 On ch=1 n=g6 v=64
88461 Off ch=1 n=g6 v=64
88605 On ch=1 n=g5 v=64
88701 Off ch=1 n=g5 v=64
88845 On ch=1 n=c5 v=64
88853 Off ch=1 n=c5 v=64
88855 On ch=1 n=e5 v=64
88863 Off ch=1 n=e5 v=64
88865 On ch=1 n=g5 v=64
88873 Off ch=1 n=g5 v=64
88875 On ch=1 n=c6 v=64
88923 Off ch=1 n=c6 v=64
88935 On ch=1 n=g5 v=64
88959 Off ch=1 n=g5 v=64
88965 On ch=1 n=a5 v=64
88973 Off ch=1 n=a5 v=64
88975 On ch=1 n=g5 v=64
88983 Off ch=1 n=g5 v=64
88985 On ch=1 n=a5 v=64
88993 Off ch=1 n=a5 v=64
88995 On ch=1 n=g5 v=64
89003 Off ch=1 n=g5 v=64
89005 On ch=1 n=a5 v=64
89013 Off ch=1 n=a5 v=64
89015 On ch=1 n=g5 v=64
89023 Off ch=1 n=g5 v=64
89025 On ch=1 n=a5 v=64
89033 Off ch=1 n=a5 v=64
89035 On ch=1 n=g5 v=64
89043 Off ch=1 n=g5 v=64
89045 On ch=1 n=a5 v=64
89053 Off ch=1 n=a5 v=64
89055 On ch=1 n=g5 v=64
89063 Off ch=1 n=g5 v=64
89065 On ch=1 n=a5 v=64
89073 Off ch=1 n=a5 v=64
89075 On ch=1 n=g5 v=64
89083 Off ch=1 n=g5 v=64
89175 On ch=1 n=g5 v=64
89199 Off ch=1 n=g5 v=64
89205 On ch=1 n=a5 v=64
89213 Off ch=1 n=a5 v=64
89215 On ch=1 n=g5 v=64
89223 Off ch=1 n=g5 v=64
89225 On ch=1 n=a5 v=64
89233 Off ch=1 n=a5 v=64
89235 On ch=1 n=g5 v=64
89243 Off ch=1 n=g5 v=64
89245 On ch=1 n=a5 v=64
89253 Off ch=1 n=a5 v=64
89255 On ch=1 n=g5 v=64
89263 Off ch=1 n=g5 v=64
89265 On ch=1 n=a5 v=64
89273 Off ch=1 n=a5 v=64
89275 On ch=1 n=g5 v=64
89283 Off ch=1 n=g5 v=64
89285 On ch=1 n=a5 v=64
89293 Off ch=1 n=a5 v=64
89295 On ch=1 n=g5 v=64
89307 Off ch=1 n=g5 v=64
89310 On ch=1 n=f#5 v=64
89322 Off ch=1 n=f#5 v=64
89325 On ch=1 n=g5 v=64
89421 Off ch=1 n=g5 v=64
89565 On ch=1 n=g4 v=64
89661 Off ch=1 n=g4 v=64
90045 On ch=1 n=d5 v=64
90057 Off ch=1 n=d5 v=64
90060 On ch=1 n=e5 v=64
90072 Off ch=1 n=e5 v=64
90075 On ch=1 n=f5 v=64
90087 Off ch=1 n=f5 v=64
90090 On ch=1 n=g5 v=64
90102 Off ch=1 n=g5 v=64
90105 On ch=1 n=a5 v=64
90117 Off ch=1 n=a5 v=64
90120 On ch=1 n=b5 v=64
90132 Off ch=1 n=b5 v=64
90135 On ch=1 n=c6 v=64
90147 Off ch=1 n=c6 v=64
90150 On ch=1 n=d6 v=64
90162 Off ch=1 n=d6 v=64
90165 On ch=1 n=e6 v=64
90181 Off ch=1 n=e6 v=64
90185 On ch=1 n=f6 v=64
90201 Off ch=1 n=f6 v=64
90205 On ch=1 n=g6 v=64
90221 Off ch=1 n=g6 v=64
90225 On ch=1 n=a6 v=64
90241 Off ch=1 n=a6 v=64
90245 On ch=1 n=b6 v=64
90261 Off ch=1 n=b6 v=64
90265 On ch=1 n=c7 v=64
90281 Off ch=1 n=c7 v=64
90285 On ch=1 n=c7 v=64
90381 Off ch=1 n=c7 v=64
90525 On ch=1 n=c6 v=64
90621 Off ch=1 n=c6 v=64
90765 On ch=1 n=a4 v=64
90792 Off ch=1 n=a4 v=64
90825 On ch=1 n=g#4 v=64
90873 Off ch=1 n=g#4 v=64
90885 On ch=1 n=a4 v=64
90912 Off ch=1 n=a4 v=64
90945 On ch=1 n=c#5 v=64
90993 Off ch=1 n=c#5 v=64
91005 On ch=1 n=d5 v=64
91032 Off ch=1 n=d5 v=64
91065 On ch=1 n=e5 v=64
91113 Off ch=1 n=e5 v=64
91125 On ch=1 n=f5 v=64
91152 Off ch=1 n=f5 v=64
91185 On ch=1 n=g#5 v=64
91233 Off ch=1 n=g#5 v=64
91245 On ch=1 n=a5 v=64
91255 Off ch=1 n=a5 v=64
91272 On ch=1 n=c#6 v=64
91296 Off ch=1 n=c#6 v=64
91302 On ch=1 n=d6 v=64
91312 Off ch=1 n=d6 v=64
91329 On ch=1 n=e6 v=64
91353 Off ch=1 n=e6 v=64
91359 On ch=1 n=f6 v=64
91369 Off ch=1 n=f6 v=64
91386 On ch=1 n=g#6 v=64
91410 Off ch=1 n=g#6 v=64
91416 On ch=1 n=a6 v=64
91426 Off ch=1 n=a6 v=64
91443 On ch=1 n=b6 v=64
91467 Off ch=1 n=b6 v=64
91473 On ch=1 n=c7 v=64
91483 Off ch=1 n=c7 v=64
91500 On ch=1 n=g#6 v=64
91524 Off ch=1 n=g#6 v=64
91530 On ch=1 n=a6 v=64
91540 Off ch=1 n=a6 v=64
91557 On ch=1 n=e6 v=64
91581 Off ch=1 n=e6 v=64
91587 On ch=1 n=f6 v=64
91597 Off ch=1 n=f6 v=64
91614 On ch=1 n=c#6 v=64
91638 Off ch=1 n=c#6 v=64
91644 On ch=1 n=d6 v=64
91654 Off ch=1 n=d6 v=64
91671 On ch=1 n=f#5 v=64
91695 Off ch=1 n=f#5 v=64
91701 On ch=1 n=g5 v=64
91893 Off ch=1 n=g5 v=64
91941 On ch=1 n=a5 v=64
91965 Off ch=1 n=a5 v=64
91971 On ch=1 n=g5 v=64
91995 Off ch=1 n=g5 v=64
92001 On ch=1 n=f5 v=64
92025 Off ch=1 n=f5 v=64
92031 On ch=1 n=e5 v=64
92055 Off ch=1 n=e5 v=64
92061 On ch=1 n=f5 v=64
92085 Off ch=1 n=f5 v=64
92091 On ch=1 n=g5 v=64
92115 Off ch=1 n=g5 v=64
92121 On ch=1 n=a5 v=64
92145 Off ch=1 n=a5 v=64
92151 On ch=1 n=b5 v=64
92175 Off ch=1 n=b5 v=64
92181 On ch=1 n=c6 v=64
92193 Off ch=1 n=c6 v=64
92196 On ch=1 n=d6 v=64
92208 Off ch=1 n=d6 v=64
92211 On ch=1 n=c6 v=64
92223 Off ch=1 n=c6 v=64
92226 On ch=1 n=b5 v=64
92238 Off ch=1 n=b5 v=64
92241 On ch=1 n=c6 v=64
92253 Off ch=1 n=c6 v=64
92256 On ch=1 n=d6 v=64
92268 Off ch=1 n=d6 v=64
92271 On ch=1 n=e6 v=64
92283 Off ch=1 n=e6 v=64
92286 On ch=1 n=f6 v=64
92298 Off ch=1 n=f6 v=64
92301 On ch=1 n=a6 v=64
92313 Off ch=1 n=a6 v=64
92316 On ch=1 n=g6 v=64
92328 Off ch=1 n=g6 v=64
92331 On ch=1 n=f6 v=64
92343 Off ch=1 n=f6 v=64
92346 On ch=1 n=e6 v=64
92358 Off ch=1 n=e6 v=64
92361 On ch=1 n=f6 v=64
92373 Off ch=1 n=f6 v=64
92376 On ch=1 n=g6 v=64
92388 Off ch=1 n=g6 v=64
92391 On ch=1 n=a6 v=64
92403 Off ch=1 n=a6 v=64
92406 On ch=1 n=b6 v=64
92418 Off ch=1 n=b6 v=64
92421 On ch=1 n=c7 v=64
92431 Off ch=1 n=c7 v=64
92448 On ch=1 n=b6 v=64
92458 Off ch=1 n=b6 v=64
92475 On ch=1 n=a6 v=64
92485 Off ch=1 n=a6 v=64
92502 On ch=1 n=g6 v=64
92512 Off ch=1 n=g6 v=64
92529 On ch=1 n=f#6 v=64
92539 Off ch=1 n=f#6 v=64
92556 On ch=1 n=g6 v=64
92566 Off ch=1 n=g6 v=64
92583 On ch=1 n=a6 v=64
92593 Off ch=1 n=a6 v=64
92610 On ch=1 n=g6 v=64
92620 Off ch=1 n=g6 v=64
92637 On ch=1 n=g#6 v=64
92685 Off ch=1 n=g#6 v=64
92697 On ch=1 n=a6 v=64
92745 Off ch=1 n=a6 v=64
92757 On ch=1 n=b6 v=64
92805 Off ch=1 n=b6 v=64
92817 On ch=1 n=a6 v=64
92865 Off ch=1 n=a6 v=64
92877 On ch=1 n=g6 v=64
92901 Off ch=1 n=g6 v=64
92907 On ch=1 n=f6 v=64
92931 Off ch=1 n=f6 v=64
92937 On ch=1 n=e6 v=64
92961 Off ch=1 n=e6 v=64
92967 On ch=1 n=d6 v=64
92991 Off ch=1 n=d6 v=64
92997 On ch=1 n=c#6 v=64
93033 Off ch=1 n=c#6 v=64
93042 On ch=1 n=d6 v=64
93054 Off ch=1 n=d6 v=64
93057 On ch=1 n=f6 v=64
93093 Off ch=1 n=f6 v=64
93102 On ch=1 n=d6 v=64
93114 Off ch=1 n=d6 v=64
93117 On ch=1 n=c6 v=64
93133 Off ch=1 n=c6 v=64
93137 On ch=1 n=d6 v=64
93153 Off ch=1 n=d6 v=64
93157 On ch=1 n=e6 v=64
93173 Off ch=1 n=e6 v=64
93177 On ch=1 n=d6 v=64
93185 Off ch=1 n=d6 v=64
93187 On ch=1 n=e6 v=64
93195 Off ch=1 n=e6 v=64
93197 On ch=1 n=d6 v=64
93205 Off ch=1 n=d6 v=64
93207 On ch=1 n=e6 v=64
93215 Off ch=1 n=e6 v=64
93217 On ch=1 n=d6 v=64
93225 Off ch=1 n=d6 v=64
93227 On ch=1 n=e6 v=64
93235 Off ch=1 n=e6 v=64
93237 On ch=1 n=d6 v=64
93245 Off ch=1 n=d6 v=64
93247 On ch=1 n=e6 v=64
93255 Off ch=1 n=e6 v=64
93257 On ch=1 n=d6 v=64
93265 Off ch=1 n=d6 v=64
93267 On ch=1 n=e6 v=64
93275 Off ch=1 n=e6 v=64
93277 On ch=1 n=d6 v=64
93285 Off ch=1 n=d6 v=64
93287 On ch=1 n=e6 v=64
93295 Off ch=1 n=e6 v=64
93297 On ch=1 n=d6 v=64
93305 Off ch=1 n=d6 v=64
93307 On ch=1 n=e6 v=64
93315 Off ch=1 n=e6 v=64
93317 On ch=1 n=d6 v=64
93325 Off ch=1 n=d6 v=64
93327 On ch=1 n=e6 v=64
93335 Off ch=1 n=e6 v=64
93337 On ch=1 n=d6 v=64
93345 Off ch=1 n=d6 v=64
93347 On ch=1 n=e6 v=64
93355 Off ch=1 n=e6 v=64
93357 On ch=1 n=d6 v=64
93365 Off ch=1 n=d6 v=64
93367 On ch=1 n=e6 v=64
93375 Off ch=1 n=e6 v=64
93377 On ch=1 n=d6 v=64
93385 Off ch=1 n=d6 v=64
93387 On ch=1 n=e6 v=64
93395 Off ch=1 n=e6 v=64
93397 On ch=1 n=d6 v=64
93405 Off ch=1 n=d6 v=64
93407 On ch=1 n=e6 v=64
93415 Off ch=1 n=e6 v=64
93417 On ch=1 n=d6 v=64
93425 Off ch=1 n=d6 v=64
93427 On ch=1 n=e6 v=64
93435 Off ch=1 n=e6 v=64
93437 On ch=1 n=d6 v=64
93445 Off ch=1 n=d6 v=64
93447 On ch=1 n=e6 v=64
93455 Off ch=1 n=e6 v=64
93457 On ch=1 n=d6 v=64
93465 Off ch=1 n=d6 v=64
93467 On ch=1 n=e6 v=64
93475 Off ch=1 n=e6 v=64
93477 On ch=1 n=d6 v=64
93485 Off ch=1 n=d6 v=64
93487 On ch=1 n=e6 v=64
93495 Off ch=1 n=e6 v=64
93497 On ch=1 n=d6 v=64
93505 Off ch=1 n=d6 v=64
93507 On ch=1 n=e6 v=64
93515 Off ch=1 n=e6 v=64
93517 On ch=1 n=d6 v=64
93525 Off ch=1 n=d6 v=64
93527 On ch=1 n=e6 v=64
93535 Off ch=1 n=e6 v=64
93537 On ch=1 n=d6 v=64
93553 Off ch=1 n=d6 v=64
93557 On ch=1 n=c6 v=64
93573 Off ch=1 n=c6 v=64
93577 On ch=1 n=d6 v=64
93593 Off ch=1 n=d6 v=64
93597 On ch=1 n=c6 v=64
93629 Off ch=1 n=c6 v=64
93637 On ch=1 n=c6 v=64
93655 Off ch=1 n=c6 v=64
93677 On ch=1 n=b5 v=64
93695 Off ch=1 n=b5 v=64
93717 On ch=1 n=a#5 v=64
93735 Off ch=1 n=a#5 v=64
93757 On ch=1 n=a5 v=64
93775 Off ch=1 n=a5 v=64
93797 On ch=1 n=g#5 v=64
93815 Off ch=1 n=g#5 v=64
93837 On ch=1 n=g5 v=64
94077 On ch=1 n=e6 v=64
94104 Off ch=1 n=e6 v=64
94104 Off ch=1 n=g5 v=64
94137 On ch=1 n=g5 v=64
94137 On ch=1 n=e6 v=64
94164 Off ch=1 n=e6 v=64
94164 Off ch=1 n=g5 v=64
94257 On ch=1 n=f6 v=64
94257 On ch=1 n=a5 v=64
94281 Off ch=1 n=a5 v=64
94281 Off ch=1 n=f6 v=64
94287 On ch=1 n=d6 v=64
94287 On ch=1 n=f5 v=64
94311 Off ch=1 n=f5 v=64
94311 Off ch=1 n=d6 v=64
94317 On ch=1 n=e5 v=64
94317 On ch=1 n=c6 v=64
94344 Off ch=1 n=c6 v=64
94344 Off ch=1 n=e5 v=64
94377 On ch=1 n=c6 v=64
94377 On ch=1 n=e5 v=64
94404 Off ch=1 n=e5 v=64
94404 Off ch=1 n=c6 v=64
94497 On ch=1 n=d6 v=64
94497 On ch=1 n=f5 v=64
94521 Off ch=1 n=f5 v=64
94521 Off ch=1 n=d6 v=64
94527 On ch=1 n=d5 v=64
94527 On ch=1 n=b5 v=64
94551 Off ch=1 n=b5 v=64
94551 Off ch=1 n=d5 v=64
94557 On ch=1 n=c6 v=64
94557 On ch=1 n=e5 v=64
94575 Off ch=1 n=e5 v=64
94575 Off ch=1 n=c6 v=64
94597 On ch=1 n=c6 v=64
94597 On ch=1 n=c7 v=64
94615 Off ch=1 n=c7 v=64
94615 Off ch=1 n=c6 v=64
94637 On ch=1 n=b5 v=64
94637 On ch=1 n=b6 v=64
94655 Off ch=1 n=b6 v=64
94655 Off ch=1 n=b5 v=64
94677 On ch=1 n=a#5 v=64
94677 On ch=1 n=a#6 v=64
94695 Off ch=1 n=a#6 v=64
94695 Off ch=1 n=a#5 v=64
94717 On ch=1 n=a5 v=64
94717 On ch=1 n=a6 v=64
94735 Off ch=1 n=a6 v=64
94735 Off ch=1 n=a5 v=64
94757 On ch=1 n=g#5 v=64
94757 On ch=1 n=g#6 v=64
94775 Off ch=1 n=g#6 v=64
94775 Off ch=1 n=g#5 v=64
94797 On ch=1 n=g5 v=64
94797 On ch=1 n=g6 v=64
94797 On ch=1 n=g5 v=64
94989 Off ch=1 n=g5 v=64
94989 Off ch=1 n=g6 v=64
95037 On ch=1 n=e6 v=64
95037 On ch=1 n=g6 v=64
95064 Off ch=1 n=g6 v=64
95064 Off ch=1 n=g5 v=64
95064 Off ch=1 n=e6 v=64
95097 On ch=1 n=e6 v=64
95097 On ch=1 n=g5 v=64
95097 On ch=1 n=g6 v=64
95124 Off ch=1 n=g6 v=64
95124 Off ch=1 n=g5 v=64
95124 Off ch=1 n=e6 v=64
95217 On ch=1 n=a5 v=64
95217 On ch=1 n=f6 v=64
95217 On ch=1 n=a6 v=64
95241 Off ch=1 n=a6 v=64
95241 Off ch=1 n=f6 v=64
95241 Off ch=1 n=a5 v=64
95247 On ch=1 n=f5 v=64
95247 On ch=1 n=d6 v=64
95247 On ch=1 n=f6 v=64
95271 Off ch=1 n=f6 v=64
95271 Off ch=1 n=d6 v=64
95271 Off ch=1 n=f5 v=64
95277 On ch=1 n=c6 v=64
95277 On ch=1 n=e5 v=64
95277 On ch=1 n=e6 v=64
95304 Off ch=1 n=e6 v=64
95304 Off ch=1 n=e5 v=64
95304 Off ch=1 n=c6 v=64
95337 On ch=1 n=e5 v=64
95337 On ch=1 n=c6 v=64
95337 On ch=1 n=e6 v=64
95364 Off ch=1 n=e6 v=64
95364 Off ch=1 n=c6 v=64
95364 Off ch=1 n=e5 v=64
95457 On ch=1 n=f5 v=64
95457 On ch=1 n=d6 v=64
95457 On ch=1 n=f6 v=64
95481 Off ch=1 n=f6 v=64
95481 Off ch=1 n=d6 v=64
95481 Off ch=1 n=f5 v=64
95487 On ch=1 n=b5 v=64
95487 On ch=1 n=d5 v=64
95487 On ch=1 n=d6 v=64
95511 Off ch=1 n=d6 v=64
95511 Off ch=1 n=d5 v=64
95511 Off ch=1 n=b5 v=64
95517 On ch=1 n=c5 v=64
95565 Off ch=1 n=c5 v=64
95607 On ch=1 n=g4 v=64
95617 Off ch=1 n=g4 v=64
95634 On ch=1 n=a4 v=64
95646 Off ch=1 n=a4 v=64
95649 On ch=1 n=g4 v=64
95661 Off ch=1 n=g4 v=64
95664 On ch=1 n=a4 v=64
95676 Off ch=1 n=a4 v=64
95679 On ch=1 n=g4 v=64
95691 Off ch=1 n=g4 v=64
95694 On ch=1 n=a4 v=64
95706 Off ch=1 n=a4 v=64
95709 On ch=1 n=g4 v=64
95721 Off ch=1 n=g4 v=64
95724 On ch=1 n=f#4 v=64
95736 Off ch=1 n=f#4 v=64
95739 On ch=1 n=g4 v=64
95751 Off ch=1 n=g4 v=64
95754 On ch=1 n=e5 v=64
95808 Off ch=1 n=e5 v=64
95874 On ch=1 n=f4 v=64
95874 On ch=1 n=d5 v=64
95874 On ch=1 n=b4 v=64
95928 Off ch=1 n=b4 v=64
95928 Off ch=1 n=d5 v=64
95928 Off ch=1 n=f4 v=64
95994 On ch=1 n=b4 v=64
95994 On ch=1 n=f4 v=64
95994 On ch=1 n=d5 v=64
96186 Off ch=1 n=d5 v=64
96186 Off ch=1 n=f4 v=64
96186 Off ch=1 n=b4 v=64
96234 On ch=1 n=c5 v=64
96234 On ch=1 n=e4 v=64
96330 Off ch=1 n=e4 v=64
96330 Off ch=1 n=c5 v=64
96330 Meta TrkEnd
TrkEnd
MTrk
0 Meta TrkName "rh"
1920 On ch=1 n=g#5 v=64
2112 Off ch=1 n=g#5 v=64
2160 On ch=1 n=c6 v=64
2352 Off ch=1 n=c6 v=64
2400 On ch=1 n=b5 v=64
2592 Off ch=1 n=b5 v=64
2640 On ch=1 n=d6 v=64
2832 Off ch=1 n=d6 v=64
2880 On ch=1 n=c6 v=64
3072 Off ch=1 n=c6 v=64
3780 On ch=1 n=g6 v=64
3828 Off ch=1 n=g6 v=64
3840 On ch=1 n=g#6 v=64
4032 Off ch=1 n=g#6 v=64
4080 On ch=1 n=f6 v=64
4368 Off ch=1 n=f6 v=64
4380 On ch=1 n=g#6 v=64
4428 Off ch=1 n=g#6 v=64
4440 On ch=1 n=d6 v=64
4488 Off ch=1 n=d6 v=64
4500 On ch=1 n=f6 v=64
4548 Off ch=1 n=f6 v=64
4560 On ch=1 n=b5 v=64
4608 Off ch=1 n=b5 v=64
4620 On ch=1 n=d6 v=64
4668 Off ch=1 n=d6 v=64
4680 On ch=1 n=g5 v=64
4728 Off ch=1 n=g5 v=64
4740 On ch=1 n=b5 v=80
4788 Off ch=1 n=b5 v=64
4800 On ch=1 n=c6 v=64
4992 Off ch=1 n=c6 v=64
11820 On ch=1 n=c#5 v=64
11868 Off ch=1 n=c#5 v=64
11880 On ch=1 n=c5 v=64
11928 Off ch=1 n=c5 v=64
11940 On ch=1 n=b4 v=64
11988 Off ch=1 n=b4 v=64
12000 On ch=1 n=c5 v=64
12504 Off ch=1 n=c5 v=64
12510 On ch=1 n=g#4 v=64
12520 Off ch=1 n=g#4 v=64
12537 On ch=1 n=a4 v=64
12547 Off ch=1 n=a4 v=64
12564 On ch=1 n=a#4 v=64
12574 Off ch=1 n=a#4 v=64
12591 On ch=1 n=b4 v=64
12601 Off ch=1 n=b4 v=64
12618 On ch=1 n=c5 v=64
12628 Off ch=1 n=c5 v=64
12645 On ch=1 n=c#5 v=64
12655 Off ch=1 n=c#5 v=64
12672 On ch=1 n=d5 v=64
12682 Off ch=1 n=d5 v=64
12699 On ch=1 n=f5 v=64
12747 Off ch=1 n=f5 v=64
12759 On ch=1 n=e5 v=64
12807 Off ch=1 n=e5 v=64
12819 On ch=1 n=d5 v=64
12867 Off ch=1 n=d5 v=64
12879 On ch=1 n=c5 v=64
12927 Off ch=1 n=c5 v=64
12939 On ch=1 n=c5 v=64
13131 Off ch=1 n=c5 v=64
13179 On ch=1 n=b4 v=64
13443 Off ch=1 n=b4 v=64
13449 On ch=1 n=f#4 v=64
13459 Off ch=1 n=f#4 v=64
13476 On ch=1 n=g4 v=64
13486 Off ch=1 n=g4 v=64
13503 On ch=1 n=g#4 v=64
13513 Off ch=1 n=g#4 v=64
13530 On ch=1 n=a4 v=64
13540 Off ch=1 n=a4 v=64
13557 On ch=1 n=a#4 v=64
13567 Off ch=1 n=a#4 v=64
13584 On ch=1 n=b4 v=64
13594 Off ch=1 n=b4 v=64
13611 On ch=1 n=c5 v=64
13621 Off ch=1 n=c5 v=64
13638 On ch=1 n=d5 v=64
13686 Off ch=1 n=d5 v=64
13698 On ch=1 n=c5 v=64
13746 Off ch=1 n=c5 v=64
13758 On ch=1 n=b4 v=64
13806 Off ch=1 n=b4 v=64
13818 On ch=1 n=c5 v=64
13866 Off ch=1 n=c5 v=64
14358 On ch=1 n=c5 v=64
14550 Off ch=1 n=c5 v=64
14598 On ch=1 n=b4 v=64
14694 Off ch=1 n=b4 v=64
15558 On ch=1 n=g4 v=80
15654 Off ch=1 n=g4 v=64
16518 On ch=1 n=g#4 v=80
16614 Off ch=1 n=g#4 v=64
17478 On ch=1 n=a#4 v=64
17490 Off ch=1 n=a#4 v=64
17493 On ch=1 n=g#4 v=64
17505 Off ch=1 n=g#4 v=64
17508 On ch=1 n=a#4 v=64
17520 Off ch=1 n=a#4 v=64
17523 On ch=1 n=g#4 v=64
17535 Off ch=1 n=g#4 v=64
17538 On ch=1 n=a#4 v=64
17550 Off ch=1 n=a#4 v=64
17553 On ch=1 n=g#4 v=64
17565 Off ch=1 n=g#4 v=64
17568 On ch=1 n=a#4 v=64
17580 Off ch=1 n=a#4 v=64
17583 On ch=1 n=g#4 v=64
17595 Off ch=1 n=g#4 v=64
17598 On ch=1 n=a#4 v=64
17610 Off ch=1 n=a#4 v=64
17613 On ch=1 n=g#4 v=64
17625 Off ch=1 n=g#4 v=64
17628 On ch=1 n=a#4 v=64
17640 Off ch=1 n=a#4 v=64
17643 On ch=1 n=g#4 v=64
17655 Off ch=1 n=g#4 v=64
17658 On ch=1 n=a#4 v=64
17670 Off ch=1 n=a#4 v=64
17673 On ch=1 n=g#4 v=64
17685 Off ch=1 n=g#4 v=64
17688 On ch=1 n=g4 v=64
17700 Off ch=1 n=g4 v=64
17703 On ch=1 n=g#4 v=64
17715 Off ch=1 n=g#4 v=64
18678 On ch=1 n=g#6 v=64
18702 Off ch=1 n=g#6 v=64
18708 On ch=1 n=g6 v=64
18732 Off ch=1 n=g6 v=64
18738 On ch=1 n=f6 v=64
18762 Off ch=1 n=f6 v=64
18768 On ch=1 n=d#6 v=64
18792 Off ch=1 n=d#6 v=64
18798 On ch=1 n=d6 v=64
18822 Off ch=1 n=d6 v=64
18828 On ch=1 n=c6 v=64
18852 Off ch=1 n=c6 v=64
18858 On ch=1 n=a#5 v=64
18882 Off ch=1 n=a#5 v=64
18888 On ch=1 n=a5 v=64
18912 Off ch=1 n=a5 v=64
18918 On ch=1 n=g#5 v=64
18942 Off ch=1 n=g#5 v=64
18948 On ch=1 n=g5 v=64
18972 Off ch=1 n=g5 v=64
18978 On ch=1 n=f5 v=64
19002 Off ch=1 n=f5 v=64
19008 On ch=1 n=d#5 v=64
19032 Off ch=1 n=d#5 v=64
19038 On ch=1 n=d5 v=64
19062 Off ch=1 n=d5 v=64
19068 On ch=1 n=c5 v=64
19092 Off ch=1 n=c5 v=64
19098 On ch=1 n=a#4 v=64
19122 Off ch=1 n=a#4 v=64
19128 On ch=1 n=g#4 v=64
19152 Off ch=1 n=g#4 v=64
19638 On ch=1 n=g#5 v=64
19662 Off ch=1 n=g#5 v=64
19668 On ch=1 n=g5 v=64
19692 Off ch=1 n=g5 v=64
19698 On ch=1 n=f5 v=64
19722 Off ch=1 n=f5 v=64
19728 On ch=1 n=d#5 v=64
19752 Off ch=1 n=d#5 v=64
19758 On ch=1 n=d5 v=64
19782 Off ch=1 n=d5 v=64
19788 On ch=1 n=c5 v=64
19812 Off ch=1 n=c5 v=64
19818 On ch=1 n=a#4 v=64
19842 Off ch=1 n=a#4 v=64
19848 On ch=1 n=a4 v=64
19872 Off ch=1 n=a4 v=64
20598 On ch=1 n=c#7 v=64
20622 Off ch=1 n=c#7 v=64
20628 On ch=1 n=c7 v=64
20652 Off ch=1 n=c7 v=64
20658 On ch=1 n=a#6 v=64
20682 Off ch=1 n=a#6 v=64
20688 On ch=1 n=g#6 v=64
20712 Off ch=1 n=g#6 v=64
20718 On ch=1 n=g6 v=64
20742 Off ch=1 n=g6 v=64
20748 On ch=1 n=f6 v=64
20772 Off ch=1 n=f6 v=64
20778 On ch=1 n=d#6 v=64
20802 Off ch=1 n=d#6 v=64
20808 On ch=1 n=d6 v=64
20832 Off ch=1 n=d6 v=64
20838 On ch=1 n=c#6 v=64
20862 Off ch=1 n=c#6 v=64
20868 On ch=1 n=c6 v=64
20892 Off ch=1 n=c6 v=64
20898 On ch=1 n=a#5 v=64
20922 Off ch=1 n=a#5 v=64
20928 On ch=1 n=g#5 v=64
20952 Off ch=1 n=g#5 v=64
20958 On ch=1 n=g5 v=64
20982 Off ch=1 n=g5 v=64
20988 On ch=1 n=f5 v=64
21012 Off ch=1 n=f5 v=64
21018 On ch=1 n=d#5 v=64
21042 Off ch=1 n=d#5 v=64
21048 On ch=1 n=c#5 v=64
21072 Off ch=1 n=c#5 v=64
24198 On ch=1 n=a#5 v=64
24216 Off ch=1 n=a#5 v=64
24238 On ch=1 n=a#5 v=64
24256 Off ch=1 n=a#5 v=64
24278 On ch=1 n=a5 v=64
24296 Off ch=1 n=a5 v=64
24318 On ch=1 n=g#5 v=64
24336 Off ch=1 n=g#5 v=64
24358 On ch=1 n=g5 v=64
24376 Off ch=1 n=g5 v=64
24398 On ch=1 n=f#5 v=64
24416 Off ch=1 n=f#5 v=64
25158 On ch=1 n=a#5 v=64
25190 Off ch=1 n=a#5 v=64
25198 On ch=1 n=a#5 v=64
25216 Off ch=1 n=a#5 v=64
25238 On ch=1 n=a5 v=64
25256 Off ch=1 n=a5 v=64
25278 On ch=1 n=g#5 v=64
25296 Off ch=1 n=g#5 v=64
25318 On ch=1 n=g5 v=64
25336 Off ch=1 n=g5 v=64
25358 On ch=1 n=f#5 v=64
25376 Off ch=1 n=f#5 v=64
28758 On ch=1 n=g#5 v=64
28950 Off ch=1 n=g#5 v=64
28998 On ch=1 n=c6 v=64
29190 Off ch=1 n=c6 v=64
29238 On ch=1 n=b5 v=64
29430 Off ch=1 n=b5 v=64
29478 On ch=1 n=d6 v=64
29670 Off ch=1 n=d6 v=64
29718 On ch=1 n=c6 v=64
29910 Off ch=1 n=c6 v=64
30618 On ch=1 n=g6 v=64
30666 Off ch=1 n=g6 v=64
30678 On ch=1 n=g#6 v=64
30870 Off ch=1 n=g#6 v=64
30918 On ch=1 n=f6 v=64
31206 Off ch=1 n=f6 v=64
31218 On ch=1 n=g#6 v=64
31266 Off ch=1 n=g#6 v=64
31278 On ch=1 n=d6 v=64
31326 Off ch=1 n=d6 v=64
31338 On ch=1 n=f6 v=64
31386 Off ch=1 n=f6 v=64
31398 On ch=1 n=b5 v=64
31446 Off ch=1 n=b5 v=64
31458 On ch=1 n=d6 v=64
31506 Off ch=1 n=d6 v=64
31518 On ch=1 n=g5 v=64
31566 Off ch=1 n=g5 v=64
31578 On ch=1 n=b5 v=80
31626 Off ch=1 n=b5 v=64
31638 On ch=1 n=c6 v=64
31830 Off ch=1 n=c6 v=64
38658 On ch=1 n=c#5 v=64
38706 Off ch=1 n=c#5 v=64
38718 On ch=1 n=c5 v=64
38766 Off ch=1 n=c5 v=64
38778 On ch=1 n=b4 v=64
38826 Off ch=1 n=b4 v=64
38838 On ch=1 n=c5 v=64
39342 Off ch=1 n=c5 v=64
39348 On ch=1 n=g#4 v=64
39358 Off ch=1 n=g#4 v=64
39375 On ch=1 n=a4 v=64
39385 Off ch=1 n=a4 v=64
39402 On ch=1 n=a#4 v=64
39412 Off ch=1 n=a#4 v=64
39429 On ch=1 n=b4 v=64
39439 Off ch=1 n=b4 v=64
39456 On ch=1 n=c5 v=64
39466 Off ch=1 n=c5 v=64
39483 On ch=1 n=c#5 v=64
39493 Off ch=1 n=c#5 v=64
39510 On ch=1 n=d5 v=64
39520 Off ch=1 n=d5 v=64
39537 On ch=1 n=f5 v=64
39585 Off ch=1 n=f5 v=64
39597 On ch=1 n=e5 v=64
39645 Off ch=1 n=e5 v=64
39657 On ch=1 n=d5 v=64
39705 Off ch=1 n=d5 v=64
39717 On ch=1 n=c5 v=64
39765 Off ch=1 n=c5 v=64
39777 On ch=1 n=c5 v=64
39969 Off ch=1 n=c5 v=64
40017 On ch=1 n=b4 v=64
40281 Off ch=1 n=b4 v=64
40287 On ch=1 n=f#4 v=64
40297 Off ch=1 n=f#4 v=64
40314 On ch=1 n=g4 v=64
40324 Off ch=1 n=g4 v=64
40341 On ch=1 n=g#4 v=64
40351 Off ch=1 n=g#4 v=64
40368 On ch=1 n=a4 v=64
40378 Off ch=1 n=a4 v=64
40395 On ch=1 n=a#4 v=64
40405 Off ch=1 n=a#4 v=64
40422 On ch=1 n=b4 v=64
40432 Off ch=1 n=b4 v=64
40449 On ch=1 n=c5 v=64
40459 Off ch=1 n=c5 v=64
40476 On ch=1 n=d5 v=64
40524 Off ch=1 n=d5 v=64
40536 On ch=1 n=c5 v=64
40584 Off ch=1 n=c5 v=64
40596 On ch=1 n=b4 v=64
40644 Off ch=1 n=b4 v=64
40656 On ch=1 n=c5 v=64
40704 Off ch=1 n=c5 v=64
41196 On ch=1 n=c5 v=64
41388 Off ch=1 n=c5 v=64
41436 On ch=1 n=b4 v=64
41532 Off ch=1 n=b4 v=64
42396 On ch=1 n=g4 v=80
42492 Off ch=1 n=g4 v=64
43356 On ch=1 n=g#4 v=80
43452 Off ch=1 n=g#4 v=64
44316 On ch=1 n=a#4 v=64
44328 Off ch=1 n=a#4 v=64
44331 On ch=1 n=g#4 v=64
44343 Off ch=1 n=g#4 v=64
44346 On ch=1 n=a#4 v=64
44358 Off ch=1 n=a#4 v=64
44361 On ch=1 n=g#4 v=64
44373 Off ch=1 n=g#4 v=64
44376 On ch=1 n=a#4 v=64
44388 Off ch=1 n=a#4 v=64
44391 On ch=1 n=g#4 v=64
44403 Off ch=1 n=g#4 v=64
44406 On ch=1 n=a#4 v=64
44418 Off ch=1 n=a#4 v=64
44421 On ch=1 n=g#4 v=64
44433 Off ch=1 n=g#4 v=64
44436 On ch=1 n=a#4 v=64
44448 Off ch=1 n=a#4 v=64
44451 On ch=1 n=g#4 v=64
44463 Off ch=1 n=g#4 v=64
44466 On ch=1 n=a#4 v=64
44478 Off ch=1 n=a#4 v=64
44481 On ch=1 n=g#4 v=64
44493 Off ch=1 n=g#4 v=64
44496 On ch=1 n=a#4 v=64
44508 Off ch=1 n=a#4 v=64
44511 On ch=1 n=g#4 v=64
44523 Off ch=1 n=g#4 v=64
44526 On ch=1 n=g4 v=64
44538 Off ch=1 n=g4 v=64
44541 On ch=1 n=g#4 v=64
44553 Off ch=1 n=g#4 v=64
45516 On ch=1 n=g#6 v=64
45540 Off ch=1 n=g#6 v=64
45546 On ch=1 n=g6 v=64
45570 Off ch=1 n=g6 v=64
45576 On ch=1 n=f6 v=64
45600 Off ch=1 n=f6 v=64
45606 On ch=1 n=d#6 v=64
45630 Off ch=1 n=d#6 v=64
45636 On ch=1 n=d6 v=64
45660 Off ch=1 n=d6 v=64
45666 On ch=1 n=c6 v=64
45690 Off ch=1 n=c6 v=64
45696 On ch=1 n=a#5 v=64
45720 Off ch=1 n=a#5 v=64
45726 On ch=1 n=a5 v=64
45750 Off ch=1 n=a5 v=64
45756 On ch=1 n=g#5 v=64
45780 Off ch=1 n=g#5 v=64
45786 On ch=1 n=g5 v=64
45810 Off ch=1 n=g5 v=64
45816 On ch=1 n=f5 v=64
45840 Off ch=1 n=f5 v=64
45846 On ch=1 n=d#5 v=64
45870 Off ch=1 n=d#5 v=64
45876 On ch=1 n=d5 v=64
45900 Off ch=1 n=d5 v=64
45906 On ch=1 n=c5 v=64
45930 Off ch=1 n=c5 v=64
45936 On ch=1 n=a#4 v=64
45960 Off ch=1 n=a#4 v=64
45966 On ch=1 n=g#4 v=64
45990 Off ch=1 n=g#4 v=64
46476 On ch=1 n=g#5 v=64
46500 Off ch=1 n=g#5 v=64
46506 On ch=1 n=g5 v=64
46530 Off ch=1 n=g5 v=64
46536 On ch=1 n=f5 v=64
46560 Off ch=1 n=f5 v=64
46566 On ch=1 n=d#5 v=64
46590 Off ch=1 n=d#5 v=64
46596 On ch=1 n=d5 v=64
46620 Off ch=1 n=d5 v=64
46626 On ch=1 n=c5 v=64
46650 Off ch=1 n=c5 v=64
46656 On ch=1 n=a#4 v=64
46680 Off ch=1 n=a#4 v=64
46686 On ch=1 n=a4 v=64
46710 Off ch=1 n=a4 v=64
47436 On ch=1 n=c#7 v=64
47460 Off ch=1 n=c#7 v=64
47466 On ch=1 n=c7 v=64
47490 Off ch=1 n=c7 v=64
47496 On ch=1 n=a#6 v=64
47520 Off ch=1 n=a#6 v=64
47526 On ch=1 n=g#6 v=64
47550 Off ch=1 n=g#6 v=64
47556 On ch=1 n=g6 v=64
47580 Off ch=1 n=g6 v=64
47586 On ch=1 n=f6 v=64
47610 Off ch=1 n=f6 v=64
47616 On ch=1 n=d#6 v=64
47640 Off ch=1 n=d#6 v=64
47646 On ch=1 n=d6 v=64
47670 Off ch=1 n=d6 v=64
47676 On ch=1 n=c#6 v=64
47700 Off ch=1 n=c#6 v=64
47706 On ch=1 n=c6 v=64
47730 Off ch=1 n=c6 v=64
47736 On ch=1 n=a#5 v=64
47760 Off ch=1 n=a#5 v=64
47766 On ch=1 n=g#5 v=64
47790 Off ch=1 n=g#5 v=64
47796 On ch=1 n=g5 v=64
47820 Off ch=1 n=g5 v=64
47826 On ch=1 n=f5 v=64
47850 Off ch=1 n=f5 v=64
47856 On ch=1 n=d#5 v=64
47880 Off ch=1 n=d#5 v=64
47886 On ch=1 n=c#5 v=64
47910 Off ch=1 n=c#5 v=64
51036 On ch=1 n=a#5 v=64
51054 Off ch=1 n=a#5 v=64
51076 On ch=1 n=a#5 v=64
51094 Off ch=1 n=a#5 v=64
51116 On ch=1 n=a5 v=64
51134 Off ch=1 n=a5 v=64
51156 On ch=1 n=g#5 v=64
51174 Off ch=1 n=g#5 v=64
51196 On ch=1 n=g5 v=64
51214 Off ch=1 n=g5 v=64
51236 On ch=1 n=f#5 v=64
51254 Off ch=1 n=f#5 v=64
51996 On ch=1 n=a#5 v=64
52028 Off ch=1 n=a#5 v=64
52036 On ch=1 n=a#5 v=64
52054 Off ch=1 n=a#5 v=64
52076 On ch=1 n=a5 v=64
52094 Off ch=1 n=a5 v=64
52116 On ch=1 n=g#5 v=64
52134 Off ch=1 n=g#5 v=64
52156 On ch=1 n=g5 v=64
52174 Off ch=1 n=g5 v=64
52196 On ch=1 n=f#5 v=64
52214 Off ch=1 n=f#5 v=64
65916 On ch=1 n=c6 v=80
66196 Off ch=1 n=c6 v=64
66396 On ch=1 n=c6 v=64
66717 Off ch=1 n=c6 v=64
70176 On ch=1 n=g4 v=80
70368 Off ch=1 n=g4 v=64
70536 On ch=1 n=g4 v=80
70824 Off ch=1 n=g4 v=64
72876 On ch=1 n=g#5 v=64
73068 Off ch=1 n=g#5 v=64
73116 On ch=1 n=c6 v=64
73308 Off ch=1 n=c6 v=64
73356 On ch=1 n=b5 v=64
73548 Off ch=1 n=b5 v=64
73596 On ch=1 n=d6 v=64
73788 Off ch=1 n=d6 v=64
73836 On ch=1 n=c6 v=64
74028 Off ch=1 n=c6 v=64
74736 On ch=1 n=a#5 v=80
74784 Off ch=1 n=a#5 v=64
74796 On ch=1 n=c6 v=64
74988 Off ch=1 n=c6 v=64
75036 On ch=1 n=g#5 v=64
75324 Off ch=1 n=g#5 v=64
75336 On ch=1 n=b5 v=64
75384 Off ch=1 n=b5 v=64
75396 On ch=1 n=f5 v=64
75444 Off ch=1 n=f5 v=64
75456 On ch=1 n=g#5 v=64
75504 Off ch=1 n=g#5 v=64
75516 On ch=1 n=d5 v=64
75564 Off ch=1 n=d5 v=64
75576 On ch=1 n=f5 v=64
75624 Off ch=1 n=f5 v=64
75636 On ch=1 n=a#4 v=64
75684 Off ch=1 n=a#4 v=64
75696 On ch=1 n=d5 v=80
75744 Off ch=1 n=d5 v=64
75756 On ch=1 n=d#5 v=80
75948 Off ch=1 n=d#5 v=64
82476 On ch=1 n=c5 v=64
82980 Off ch=1 n=c5 v=64
82986 On ch=1 n=g#4 v=64
82996 Off ch=1 n=g#4 v=64
83013 On ch=1 n=a4 v=64
83023 Off ch=1 n=a4 v=64
83040 On ch=1 n=a#4 v=64
83050 Off ch=1 n=a#4 v=64
83067 On ch=1 n=b4 v=64
83077 Off ch=1 n=b4 v=64
83094 On ch=1 n=c5 v=64
83104 Off ch=1 n=c5 v=64
83121 On ch=1 n=c#5 v=64
83131 Off ch=1 n=c#5 v=64
83148 On ch=1 n=d5 v=64
83158 Off ch=1 n=d5 v=64
83175 On ch=1 n=f5 v=64
83223 Off ch=1 n=f5 v=64
83235 On ch=1 n=d#5 v=64
83283 Off ch=1 n=d#5 v=64
83295 On ch=1 n=d5 v=64
83343 Off ch=1 n=d5 v=64
83355 On ch=1 n=c5 v=64
83403 Off ch=1 n=c5 v=64
83415 On ch=1 n=c5 v=64
83607 Off ch=1 n=c5 v=64
83655 On ch=1 n=b4 v=80
83919 Off ch=1 n=b4 v=64
83925 On ch=1 n=f#4 v=64
83949 Off ch=1 n=f#4 v=64
83955 On ch=1 n=g4 v=64
83979 Off ch=1 n=g4 v=64
83985 On ch=1 n=g#4 v=64
84009 Off ch=1 n=g#4 v=64
84015 On ch=1 n=a4 v=64
84039 Off ch=1 n=a4 v=64
84045 On ch=1 n=a#4 v=64
84069 Off ch=1 n=a#4 v=64
84075 On ch=1 n=b4 v=64
84099 Off ch=1 n=b4 v=64
84105 On ch=1 n=c5 v=64
84129 Off ch=1 n=c5 v=64
84135 On ch=1 n=d5 v=80
84183 Off ch=1 n=d5 v=64
84195 On ch=1 n=c5 v=80
84243 Off ch=1 n=c5 v=64
84255 On ch=1 n=b4 v=80
84303 Off ch=1 n=b4 v=64
84315 On ch=1 n=c5 v=80
84363 Off ch=1 n=c5 v=64
84855 On ch=1 n=c5 v=80
85047 Off ch=1 n=c5 v=64
85575 On ch=1 n=e4 v=80
85671 Off ch=1 n=e4 v=64
86535 On ch=1 n=f4 v=80
86631 Off ch=1 n=f4 v=64
87495 On ch=1 n=g4 v=64
87507 Off ch=1 n=g4 v=64
87510 On ch=1 n=f4 v=64
87522 Off ch=1 n=f4 v=64
87525 On ch=1 n=g4 v=64
87537 Off ch=1 n=g4 v=64
87540 On ch=1 n=f4 v=64
87552 Off ch=1 n=f4 v=64
87555 On ch=1 n=g4 v=64
87567 Off ch=1 n=g4 v=64
87570 On ch=1 n=f4 v=64
87582 Off ch=1 n=f4 v=64
87585 On ch=1 n=g4 v=64
87597 Off ch=1 n=g4 v=64
87600 On ch=1 n=f4 v=64
87612 Off ch=1 n=f4 v=64
87615 On ch=1 n=g4 v=64
87627 Off ch=1 n=g4 v=64
87630 On ch=1 n=f4 v=64
87642 Off ch=1 n=f4 v=64
87645 On ch=1 n=g4 v=64
87657 Off ch=1 n=g4 v=64
87660 On ch=1 n=f4 v=64
87672 Off ch=1 n=f4 v=64
87675 On ch=1 n=g4 v=64
87687 Off ch=1 n=g4 v=64
87690 On ch=1 n=f4 v=64
87702 Off ch=1 n=f4 v=64
87705 On ch=1 n=e4 v=64
87717 Off ch=1 n=e4 v=64
87720 On ch=1 n=f4 v=64
87732 Off ch=1 n=f4 v=64
88695 On ch=1 n=f6 v=64
88719 Off ch=1 n=f6 v=64
88725 On ch=1 n=e6 v=64
88749 Off ch=1 n=e6 v=64
88755 On ch=1 n=d6 v=64
88779 Off ch=1 n=d6 v=64
88785 On ch=1 n=c6 v=64
88809 Off ch=1 n=c6 v=64
88815 On ch=1 n=b5 v=64
88839 Off ch=1 n=b5 v=64
88845 On ch=1 n=a5 v=64
88869 Off ch=1 n=a5 v=64
88875 On ch=1 n=g5 v=64
88899 Off ch=1 n=g5 v=64
88905 On ch=1 n=f#5 v=64
88929 Off ch=1 n=f#5 v=64
88935 On ch=1 n=f5 v=64
88959 Off ch=1 n=f5 v=64
88965 On ch=1 n=e5 v=64
88989 Off ch=1 n=e5 v=64
88995 On ch=1 n=d5 v=64
89019 Off ch=1 n=d5 v=64
89025 On ch=1 n=c5 v=64
89049 Off ch=1 n=c5 v=64
89055 On ch=1 n=b4 v=64
89079 Off ch=1 n=b4 v=64
89085 On ch=1 n=a4 v=64
89109 Off ch=1 n=a4 v=64
89115 On ch=1 n=g4 v=64
89139 Off ch=1 n=g4 v=64
89145 On ch=1 n=f4 v=64
89169 Off ch=1 n=f4 v=64
89655 On ch=1 n=f5 v=64
89679 Off ch=1 n=f5 v=64
89685 On ch=1 n=e5 v=64
89709 Off ch=1 n=e5 v=64
89715 On ch=1 n=d5 v=64
89739 Off ch=1 n=d5 v=64
89745 On ch=1 n=c5 v=64
89769 Off ch=1 n=c5 v=64
89775 On ch=1 n=b4 v=64
89799 Off ch=1 n=b4 v=64
89805 On ch=1 n=a4 v=64
89829 Off ch=1 n=a4 v=64
89835 On ch=1 n=g4 v=64
89859 Off ch=1 n=g4 v=64
89865 On ch=1 n=f#4 v=64
89889 Off ch=1 n=f#4 v=64
90615 On ch=1 n=a#6 v=64
90639 Off ch=1 n=a#6 v=64
90645 On ch=1 n=a6 v=64
90669 Off ch=1 n=a6 v=64
90675 On ch=1 n=g6 v=64
90699 Off ch=1 n=g6 v=64
90705 On ch=1 n=f6 v=64
90729 Off ch=1 n=f6 v=64
90735 On ch=1 n=e6 v=64
90759 Off ch=1 n=e6 v=64
90765 On ch=1 n=d6 v=64
90789 Off ch=1 n=d6 v=64
90795 On ch=1 n=c6 v=64
90819 Off ch=1 n=c6 v=64
90825 On ch=1 n=b5 v=64
90849 Off ch=1 n=b5 v=64
90855 On ch=1 n=a#5 v=64
90879 Off ch=1 n=a#5 v=64
90885 On ch=1 n=a5 v=64
90909 Off ch=1 n=a5 v=64
90915 On ch=1 n=g5 v=64
90939 Off ch=1 n=g5 v=64
90945 On ch=1 n=f5 v=64
90969 Off ch=1 n=f5 v=64
90975 On ch=1 n=e5 v=64
90999 Off ch=1 n=e5 v=64
91005 On ch=1 n=d5 v=64
91029 Off ch=1 n=d5 v=64
91035 On ch=1 n=c5 v=64
91059 Off ch=1 n=c5 v=64
91065 On ch=1 n=a#4 v=64
91089 Off ch=1 n=a#4 v=64
94215 On ch=1 n=g5 v=64
94233 Off ch=1 n=g5 v=64
94255 On ch=1 n=g6 v=64
94273 Off ch=1 n=g6 v=64
94295 On ch=1 n=f#6 v=64
94313 Off ch=1 n=f#6 v=64
94335 On ch=1 n=f6 v=64
94353 Off ch=1 n=f6 v=64
94375 On ch=1 n=e6 v=64
94393 Off ch=1 n=e6 v=64
94415 On ch=1 n=d#6 v=64
94433 Off ch=1 n=d#6 v=64
95175 On ch=1 n=g6 v=64
95207 Off ch=1 n=g6 v=64
95215 On ch=1 n=g6 v=64
95233 Off ch=1 n=g6 v=64
95255 On ch=1 n=f#6 v=64
95273 Off ch=1 n=f#6 v=64
95295 On ch=1 n=f6 v=64
95313 Off ch=1 n=f6 v=64
95335 On ch=1 n=e6 v=64
95353 Off ch=1 n=e6 v=64
95375 On ch=1 n=d#6 v=64
95393 Off ch=1 n=d#6 v=64
95393 Meta TrkEnd
TrkEnd
MTrk
0 Meta TrkName "lh"
0 On ch=1 n=c3 v=64
8 Off ch=1 n=c3 v=64
10 On ch=1 n=d#3 v=64
18 Off ch=1 n=d#3 v=64
20 On ch=1 n=g3 v=64
28 Off ch=1 n=g3 v=64
30 On ch=1 n=c4 v=64
38 Off ch=1 n=c4 v=64
40 On ch=1 n=d#4 v=64
48 Off ch=1 n=d#4 v=64
50 On ch=1 n=g4 v=64
58 Off ch=1 n=g4 v=64
480 On ch=1 n=f4 v=64
480 On ch=1 n=g#4 v=64
480 On ch=1 n=d4 v=64
480 On ch=1 n=b4 v=64
672 Off ch=1 n=b4 v=64
672 Off ch=1 n=d4 v=64
672 Off ch=1 n=g#4 v=64
672 Off ch=1 n=f4 v=64
960 On ch=1 n=g4 v=64
960 On ch=1 n=c5 v=64
960 On ch=1 n=d#4 v=64
1152 Off ch=1 n=d#4 v=64
1152 Off ch=1 n=c5 v=64
1152 Off ch=1 n=g4 v=64
1440 On ch=1 n=c5 v=64
1440 On ch=1 n=d#5 v=64
1824 Off ch=1 n=d#5 v=64
1920 On ch=1 n=f4 v=64
2112 Off ch=1 n=c5 v=64
2160 On ch=1 n=f5 v=64
2304 Off ch=1 n=f4 v=64
2352 Off ch=1 n=f5 v=64
2400 On ch=1 n=d5 v=64
2400 On ch=1 n=g4 v=64
2592 Off ch=1 n=d5 v=64
2640 On ch=1 n=b4 v=64
2784 Off ch=1 n=g4 v=64
2832 Off ch=1 n=b4 v=64
2880 On ch=1 n=c5 v=64
2880 On ch=1 n=c4 v=64
3072 Off ch=1 n=c4 v=64
3072 Off ch=1 n=c5 v=64
3360 On ch=1 n=d#4 v=64
3360 On ch=1 n=d#3 v=64
3696 Off ch=1 n=d#3 v=64
3696 Off ch=1 n=d#4 v=64
3780 On ch=1 n=c4 v=64
3780 On ch=1 n=c3 v=64
3828 Off ch=1 n=c3 v=64
3828 Off ch=1 n=c4 v=64
3840 On ch=1 n=f4 v=64
3840 On ch=1 n=f3 v=64
4032 Off ch=1 n=f3 v=64
4032 Off ch=1 n=f4 v=64
4080 On ch=1 n=g#4 v=64
4080 On ch=1 n=g#3 v=64
4272 Off ch=1 n=g#3 v=64
4272 Off ch=1 n=g#4 v=64
4320 On ch=1 n=g3 v=64
4320 On ch=1 n=g4 v=64
4704 Off ch=1 n=g4 v=64
4704 Off ch=1 n=g3 v=64
4800 On ch=1 n=c4 v=64
4992 Off ch=1 n=c4 v=64
5250 On ch=1 n=g#4 v=64
5260 Off ch=1 n=g#4 v=64
5277 On ch=1 n=g4 v=64
5285 Off ch=1 n=g4 v=64
5287 On ch=1 n=g#4 v=64
5295 Off ch=1 n=g#4 v=64
5297 On ch=1 n=g4 v=64
5305 Off ch=1 n=g4 v=64
5307 On ch=1 n=g#4 v=64
5315 Off ch=1 n=g#4 v=64
5317 On ch=1 n=g4 v=64
5325 Off ch=1 n=g4 v=64
5327 On ch=1 n=g#4 v=64
5335 Off ch=1 n=g#4 v=64
5337 On ch=1 n=g4 v=64
5391 Off ch=1 n=g4 v=64
5487 On ch=1 n=f4 v=64
5497 Off ch=1 n=f4 v=64
5514 On ch=1 n=d#4 v=64
5522 Off ch=1 n=d#4 v=64
5524 On ch=1 n=f4 v=64
5532 Off ch=1 n=f4 v=64
5534 On ch=1 n=d#4 v=64
5542 Off ch=1 n=d#4 v=64
5544 On ch=1 n=f4 v=64
5552 Off ch=1 n=f4 v=64
5554 On ch=1 n=d#4 v=64
5562 Off ch=1 n=d#4 v=64
5564 On ch=1 n=f4 v=64
5572 Off ch=1 n=f4 v=64
5574 On ch=1 n=d#4 v=64
5628 Off ch=1 n=d#4 v=64
5724 On ch=1 n=d4 v=64
5734 Off ch=1 n=d4 v=64
5751 On ch=1 n=c4 v=64
5759 Off ch=1 n=c4 v=64
5761 On ch=1 n=d#4 v=64
5769 Off ch=1 n=d#4 v=64
5771 On ch=1 n=g4 v=64
5779 Off ch=1 n=g4 v=64
5781 On ch=1 n=c5 v=64
5789 Off ch=1 n=c5 v=64
5791 On ch=1 n=d#5 v=64
5799 Off ch=1 n=d#5 v=64
5801 On ch=1 n=g5 v=64
5809 Off ch=1 n=g5 v=64
5991 On ch=1 n=c6 v=64
6183 Off ch=1 n=c6 v=64
6231 On ch=1 n=b5 v=64
6423 Off ch=1 n=b5 v=64
6471 On ch=1 n=a#5 v=64
6567 Off ch=1 n=a#5 v=64
6711 On ch=1 n=g#3 v=64
6719 Off ch=1 n=g#3 v=64
6721 On ch=1 n=c4 v=64
6729 Off ch=1 n=c4 v=64
6731 On ch=1 n=d#4 v=64
6739 Off ch=1 n=d#4 v=64
6741 On ch=1 n=g#4 v=64
6749 Off ch=1 n=g#4 v=64
6751 On ch=1 n=c5 v=64
6759 Off ch=1 n=c5 v=64
6761 On ch=1 n=d#5 v=64
6769 Off ch=1 n=d#5 v=64
6951 On ch=1 n=g#5 v=64
7143 Off ch=1 n=g#5 v=64
7191 On ch=1 n=g5 v=64
7527 Off ch=1 n=g5 v=64
7671 On ch=1 n=f3 v=64
7679 Off ch=1 n=f3 v=64
7681 On ch=1 n=g#3 v=64
7689 Off ch=1 n=g#3 v=64
7691 On ch=1 n=c4 v=64
7699 Off ch=1 n=c4 v=64
7701 On ch=1 n=f4 v=64
7709 Off ch=1 n=f4 v=64
7711 On ch=1 n=g#4 v=64
7719 Off ch=1 n=g#4 v=64
7721 On ch=1 n=c5 v=64
7729 Off ch=1 n=c5 v=64
7911 On ch=1 n=f5 v=64
8103 Off ch=1 n=f5 v=64
8151 On ch=1 n=c6 v=64
8151 On ch=1 n=e5 v=64
8343 Off ch=1 n=e5 v=64
8343 Off ch=1 n=c6 v=64
8391 On ch=1 n=c6 v=64
8391 On ch=1 n=d#5 v=64
8391 On ch=1 n=g5 v=64
8487 Off ch=1 n=g5 v=64
8487 Off ch=1 n=d#5 v=64
8487 Off ch=1 n=c6 v=64
8631 On ch=1 n=d5 v=64
8631 On ch=1 n=g5 v=64
8631 On ch=1 n=b5 v=64
8727 Off ch=1 n=b5 v=64
8727 Off ch=1 n=g5 v=64
8727 Off ch=1 n=d5 v=64
8871 On ch=1 n=g5 v=64
8871 On ch=1 n=c5 v=64
8871 On ch=1 n=c6 v=64
8967 Off ch=1 n=c6 v=64
8967 Off ch=1 n=c5 v=64
8967 Off ch=1 n=g5 v=64
9111 On ch=1 n=g4 v=64
9111 On ch=1 n=c5 v=64
9111 On ch=1 n=d#5 v=64
9303 Off ch=1 n=d#5 v=64
9303 Off ch=1 n=c5 v=64
9303 Off ch=1 n=g4 v=64
9351 On ch=1 n=b4 v=64
9351 On ch=1 n=g4 v=64
9351 On ch=1 n=d5 v=64
9447 Off ch=1 n=d5 v=64
9447 Off ch=1 n=g4 v=64
9447 Off ch=1 n=b4 v=64
9591 On ch=1 n=c3 v=64
9599 Off ch=1 n=c3 v=64
9601 On ch=1 n=d#3 v=64
9609 Off ch=1 n=d#3 v=64
9611 On ch=1 n=g3 v=64
9619 Off ch=1 n=g3 v=64
9621 On ch=1 n=c4 v=64
9629 Off ch=1 n=c4 v=64
9631 On ch=1 n=d#4 v=64
9639 Off ch=1 n=d#4 v=64
9641 On ch=1 n=g4 v=64
9649 Off ch=1 n=g4 v=64
9831 On ch=1 n=c5 v=64
10023 Off ch=1 n=c5 v=64
10071 On ch=1 n=b4 v=64
10071 On ch=1 n=g5 v=64
10263 Off ch=1 n=b4 v=64
10311 On ch=1 n=a#4 v=64
10407 Off ch=1 n=a#4 v=64
10407 Off ch=1 n=g5 v=64
10551 On ch=1 n=g#2 v=64
10559 Off ch=1 n=g#2 v=64
10561 On ch=1 n=c3 v=64
10569 Off ch=1 n=c3 v=64
10571 On ch=1 n=d#3 v=64
10579 Off ch=1 n=d#3 v=64
10581 On ch=1 n=g#3 v=64
10589 Off ch=1 n=g#3 v=64
10591 On ch=1 n=c4 v=64
10599 Off ch=1 n=c4 v=64
10601 On ch=1 n=d#4 v=64
10609 Off ch=1 n=d#4 v=64
10851 On ch=1 n=f5 v=64
10899 Off ch=1 n=f5 v=64
10911 On ch=1 n=d#5 v=64
10959 Off ch=1 n=d#5 v=64
10971 On ch=1 n=d5 v=64
11019 Off ch=1 n=d5 v=64
11031 On ch=1 n=d#5 v=64
11031 On ch=1 n=g4 v=64
11367 Off ch=1 n=d#5 v=64
11367 Off ch=1 n=g4 v=64
11511 On ch=1 n=f2 v=64
11519 Off ch=1 n=f2 v=64
11521 On ch=1 n=g#2 v=64
11529 Off ch=1 n=g#2 v=64
11531 On ch=1 n=c3 v=64
11539 Off ch=1 n=c3 v=64
11541 On ch=1 n=f3 v=64
11549 Off ch=1 n=f3 v=64
11551 On ch=1 n=g#3 v=64
11559 Off ch=1 n=g#3 v=64
11561 On ch=1 n=c4 v=64
11569 Off ch=1 n=c4 v=64
11751 On ch=1 n=f4 v=64
11943 Off ch=1 n=f4 v=64
11991 On ch=1 n=e4 v=64
12183 Off ch=1 n=e4 v=64
12231 On ch=1 n=d#4 v=64
12423 Off ch=1 n=d#4 v=64
12471 On ch=1 n=d3 v=64
12471 On ch=1 n=d4 v=64
12855 Off ch=1 n=d4 v=64
12855 Off ch=1 n=d3 v=64
12951 On ch=1 n=g3 v=64
12951 On ch=1 n=g4 v=64
13335 Off ch=1 n=g4 v=64
13335 Off ch=1 n=g3 v=64
13431 On ch=1 n=c3 v=64
13431 On ch=1 n=c4 v=64
13815 Off ch=1 n=c4 v=64
13815 Off ch=1 n=c3 v=64
13911 On ch=1 n=g#4 v=64
13911 On ch=1 n=c5 v=64
13911 On ch=1 n=f4 v=64
14295 Off ch=1 n=f4 v=64
14295 Off ch=1 n=c5 v=64
14295 Off ch=1 n=g#4 v=64
14391 On ch=1 n=g4 v=64
14583 Off ch=1 n=g4 v=64
14631 On ch=1 n=g3 v=64
14727 Off ch=1 n=g3 v=64
15471 On ch=1 n=d#4 v=64
15663 Off ch=1 n=d#4 v=64
15711 On ch=1 n=d#4 v=64
15903 Off ch=1 n=d#4 v=64
15951 On ch=1 n=d#4 v=64
16143 Off ch=1 n=d#4 v=64
16191 On ch=1 n=d#4 v=64
16287 Off ch=1 n=d#4 v=64
16431 On ch=1 n=d#4 v=64
16623 Off ch=1 n=d#4 v=64
16671 On ch=1 n=d#4 v=64
16863 Off ch=1 n=d#4 v=64
16911 On ch=1 n=d#4 v=64
17103 Off ch=1 n=d#4 v=64
17151 On ch=1 n=d#4 v=80
17247 Off ch=1 n=d#4 v=64
17391 On ch=1 n=d4 v=64
17583 Off ch=1 n=d4 v=64
17631 On ch=1 n=d4 v=64
17823 Off ch=1 n=d4 v=64
17871 On ch=1 n=d4 v=64
18063 Off ch=1 n=d4 v=64
18111 On ch=1 n=d4 v=64
18207 Off ch=1 n=d4 v=64
18231 On ch=1 n=d#3 v=64
18327 Off ch=1 n=d#3 v=64
18471 On ch=1 n=d#4 v=64
18471 On ch=1 n=a#4 v=64
18471 On ch=1 n=d#5 v=64
18471 On ch=1 n=g4 v=64
18567 Off ch=1 n=g4 v=64
18567 Off ch=1 n=d#5 v=64
18567 Off ch=1 n=a#4 v=64
18567 Off ch=1 n=d#4 v=64
18711 On ch=1 n=f5 v=64
18903 Off ch=1 n=f5 v=64
18951 On ch=1 n=a#4 v=64
19047 Off ch=1 n=a#4 v=64
19191 On ch=1 n=g4 v=64
19191 On ch=1 n=d#4 v=64
19287 Off ch=1 n=d#4 v=64
19287 Off ch=1 n=g4 v=64
19431 On ch=1 n=d#4 v=64
19431 On ch=1 n=d#3 v=64
19431 On ch=1 n=a#3 v=64
19431 On ch=1 n=g3 v=64
19527 Off ch=1 n=g3 v=64
19527 Off ch=1 n=a#3 v=64
19527 Off ch=1 n=d#3 v=64
19527 Off ch=1 n=d#4 v=64
19671 On ch=1 n=f4 v=64
19863 Off ch=1 n=f4 v=64
19911 On ch=1 n=g#4 v=64
19935 Off ch=1 n=g#4 v=64
19941 On ch=1 n=g4 v=64
19965 Off ch=1 n=g4 v=64
19971 On ch=1 n=f4 v=64
19995 Off ch=1 n=f4 v=64
20001 On ch=1 n=d#4 v=64
20025 Off ch=1 n=d#4 v=64
20031 On ch=1 n=d4 v=64
20055 Off ch=1 n=d4 v=64
20061 On ch=1 n=c4 v=64
20085 Off ch=1 n=c4 v=64
20091 On ch=1 n=a#3 v=64
20115 Off ch=1 n=a#3 v=64
20121 On ch=1 n=g#3 v=64
20145 Off ch=1 n=g#3 v=64
20151 On ch=1 n=g3 v=64
20163 Off ch=1 n=g3 v=64
20166 On ch=1 n=a#3 v=64
20178 Off ch=1 n=a#3 v=64
20181 On ch=1 n=g#3 v=64
20193 Off ch=1 n=g#3 v=64
20196 On ch=1 n=g3 v=64
20208 Off ch=1 n=g3 v=64
20211 On ch=1 n=g#3 v=64
20223 Off ch=1 n=g#3 v=64
20226 On ch=1 n=a#3 v=64
20238 Off ch=1 n=a#3 v=64
20241 On ch=1 n=c4 v=64
20253 Off ch=1 n=c4 v=64
20256 On ch=1 n=d4 v=64
20268 Off ch=1 n=d4 v=64
20271 On ch=1 n=d#4 v=64
20283 Off ch=1 n=d#4 v=64
20286 On ch=1 n=f4 v=64
20298 Off ch=1 n=f4 v=64
20301 On ch=1 n=g4 v=64
20313 Off ch=1 n=g4 v=64
20316 On ch=1 n=g#4 v=64
20328 Off ch=1 n=g#4 v=64
20331 On ch=1 n=a#4 v=64
20343 Off ch=1 n=a#4 v=64
20346 On ch=1 n=c5 v=64
20358 Off ch=1 n=c5 v=64
20361 On ch=1 n=d5 v=64
20373 Off ch=1 n=d5 v=64
20376 On ch=1 n=d#5 v=64
20388 Off ch=1 n=d#5 v=64
20631 On ch=1 n=a#4 v=64
20823 Off ch=1 n=a#4 v=64
20871 On ch=1 n=d#4 v=64
20967 Off ch=1 n=d#4 v=64
21111 On ch=1 n=g#3 v=64
21207 Off ch=1 n=g#3 v=64
21351 On ch=1 n=g#3 v=64
21351 On ch=1 n=c4 v=64
21447 Off ch=1 n=c4 v=64
21447 Off ch=1 n=g#3 v=64
21591 On ch=1 n=c4 v=64
21591 On ch=1 n=g#3 v=64
21591 On ch=1 n=f4 v=64
21687 Off ch=1 n=f4 v=64
21687 Off ch=1 n=g#3 v=64
21687 Off ch=1 n=c4 v=64
21831 On ch=1 n=g#4 v=64
21831 On ch=1 n=f4 v=64
21831 On ch=1 n=g#3 v=64
21831 On ch=1 n=c4 v=64
21927 Off ch=1 n=c4 v=64
21927 Off ch=1 n=g#3 v=64
21927 Off ch=1 n=f4 v=64
21927 Off ch=1 n=g#4 v=64
22131 On ch=1 n=a#3 v=64
22131 On ch=1 n=d#4 v=64
22131 On ch=1 n=g4 v=64
22158 Off ch=1 n=g4 v=64
22158 Off ch=1 n=d#4 v=64
22158 Off ch=1 n=a#3 v=64
22191 On ch=1 n=a#3 v=64
22191 On ch=1 n=d#4 v=64
22191 On ch=1 n=g4 v=64
22218 Off ch=1 n=g4 v=64
22218 Off ch=1 n=d#4 v=64
22218 Off ch=1 n=a#3 v=64
22251 On ch=1 n=a#3 v=64
22251 On ch=1 n=d#4 v=64
22251 On ch=1 n=g4 v=64
22278 Off ch=1 n=g4 v=64
22278 Off ch=1 n=d#4 v=64
22278 Off ch=1 n=a#3 v=64
22311 On ch=1 n=a#3 v=64
22311 On ch=1 n=d#4 v=64
22311 On ch=1 n=g4 v=64
22407 Off ch=1 n=g4 v=64
22407 Off ch=1 n=d#4 v=64
22407 Off ch=1 n=a#3 v=64
22551 On ch=1 n=a#3 v=64
22551 On ch=1 n=g4 v=64
22551 On ch=1 n=d#4 v=64
22647 Off ch=1 n=d#4 v=64
22647 Off ch=1 n=g4 v=64
22647 Off ch=1 n=a#3 v=64
22791 On ch=1 n=a#3 v=64
22791 On ch=1 n=d#4 v=64
22791 On ch=1 n=g4 v=64
22887 Off ch=1 n=g4 v=64
22887 Off ch=1 n=d#4 v=64
22887 Off ch=1 n=a#3 v=64
23031 On ch=1 n=a#3 v=64
23031 On ch=1 n=d#4 v=64
23031 On ch=1 n=f4 v=64
23127 Off ch=1 n=f4 v=64
23127 Off ch=1 n=d#4 v=64
23127 Off ch=1 n=a#3 v=64
23271 On ch=1 n=a#3 v=64
23271 On ch=1 n=d#4 v=64
23271 On ch=1 n=f4 v=64
23367 Off ch=1 n=f4 v=64
23367 Off ch=1 n=d#4 v=64
23367 Off ch=1 n=a#3 v=64
23511 On ch=1 n=a#3 v=64
23511 On ch=1 n=g#4 v=64
23511 On ch=1 n=d#4 v=64
23607 Off ch=1 n=d#4 v=64
23607 Off ch=1 n=g#4 v=64
23607 Off ch=1 n=a#3 v=64
23631 On ch=1 n=a#3 v=64
23631 On ch=1 n=d#4 v=64
23631 On ch=1 n=g#4 v=64
23727 Off ch=1 n=g#4 v=64
23727 Off ch=1 n=d#4 v=64
23727 Off ch=1 n=a#3 v=64
23751 On ch=1 n=a#3 v=64
23751 On ch=1 n=g#4 v=64
23751 On ch=1 n=d4 v=64
23847 Off ch=1 n=d4 v=64
23847 Off ch=1 n=g#4 v=64
23847 Off ch=1 n=a#3 v=64
23871 On ch=1 n=a#3 v=64
23871 On ch=1 n=g#4 v=64
23871 On ch=1 n=d4 v=64
23967 Off ch=1 n=d4 v=64
23967 Off ch=1 n=g#4 v=64
23967 Off ch=1 n=a#3 v=64
23991 On ch=1 n=d#4 v=64
23991 On ch=1 n=g4 v=64
24087 Off ch=1 n=g4 v=64
24087 Off ch=1 n=d#4 v=64
24231 On ch=1 n=d4 v=64
24231 On ch=1 n=d3 v=64
24423 Off ch=1 n=d3 v=64
24423 Off ch=1 n=d4 v=64
24471 On ch=1 n=d#4 v=64
24471 On ch=1 n=d#3 v=64
24567 Off ch=1 n=d#3 v=64
24567 Off ch=1 n=d#4 v=64
24591 On ch=1 n=g#3 v=64
24687 Off ch=1 n=g#3 v=64
24711 On ch=1 n=a#3 v=64
24807 Off ch=1 n=a#3 v=64
24831 On ch=1 n=a#3 v=64
24927 Off ch=1 n=a#3 v=64
24951 On ch=1 n=d#4 v=64
24951 On ch=1 n=d#3 v=64
25047 Off ch=1 n=d#3 v=64
25047 Off ch=1 n=d#4 v=64
25191 On ch=1 n=d3 v=64
25191 On ch=1 n=d4 v=64
25383 Off ch=1 n=d4 v=64
25383 Off ch=1 n=d3 v=64
25431 On ch=1 n=d#4 v=64
25431 On ch=1 n=d#3 v=64
25527 Off ch=1 n=d#3 v=64
25527 Off ch=1 n=d#4 v=64
25551 On ch=1 n=g#3 v=64
25647 Off ch=1 n=g#3 v=64
25671 On ch=1 n=a#3 v=64
25767 Off ch=1 n=a#3 v=64
25791 On ch=1 n=a#3 v=64
25887 Off ch=1 n=a#3 v=64
25911 On ch=1 n=d#4 v=64
26007 Off ch=1 n=d#4 v=64
26271 On ch=1 n=a#3 v=64
26325 Off ch=1 n=a#3 v=64
26391 On ch=1 n=d#4 v=64
26391 On ch=1 n=d#3 v=64
26727 Off ch=1 n=d#3 v=64
26727 Off ch=1 n=d#4 v=64
26871 On ch=1 n=c3 v=64
26879 Off ch=1 n=c3 v=64
26881 On ch=1 n=d#3 v=64
26889 Off ch=1 n=d#3 v=64
26891 On ch=1 n=g3 v=64
26899 Off ch=1 n=g3 v=64
26901 On ch=1 n=c4 v=64
26909 Off ch=1 n=c4 v=64
26911 On ch=1 n=d#4 v=64
26919 Off ch=1 n=d#4 v=64
26921 On ch=1 n=g4 v=64
26929 Off ch=1 n=g4 v=64
27351 On ch=1 n=b4 v=64
27351 On ch=1 n=d4 v=64
27351 On ch=1 n=g#4 v=64
27351 On ch=1 n=f4 v=64
27543 Off ch=1 n=f4 v=64
27543 Off ch=1 n=g#4 v=64
27543 Off ch=1 n=d4 v=64
27543 Off ch=1 n=b4 v=64
27831 On ch=1 n=d#4 v=64
27831 On ch=1 n=c5 v=64
27831 On ch=1 n=g4 v=64
28023 Off ch=1 n=g4 v=64
28023 Off ch=1 n=c5 v=64
28023 Off ch=1 n=d#4 v=64
28311 On ch=1 n=d#5 v=64
28311 On ch=1 n=c5 v=64
28695 Off ch=1 n=d#5 v=64
28983 Off ch=1 n=c5 v=64
29031 On ch=1 n=f5 v=64
29223 Off ch=1 n=f5 v=64
29271 On ch=1 n=d5 v=64
29463 Off ch=1 n=d5 v=64
29511 On ch=1 n=b4 v=64
29703 Off ch=1 n=b4 v=64
29751 On ch=1 n=c4 v=64
29751 On ch=1 n=c5 v=64
29943 Off ch=1 n=c5 v=64
29943 Off ch=1 n=c4 v=64
30231 On ch=1 n=d#3 v=64
30231 On ch=1 n=d#4 v=64
30567 Off ch=1 n=d#4 v=64
30567 Off ch=1 n=d#3 v=64
30651 On ch=1 n=c3 v=64
30651 On ch=1 n=c4 v=64
30699 Off ch=1 n=c4 v=64
30699 Off ch=1 n=c3 v=64
30711 On ch=1 n=f3 v=64
30711 On ch=1 n=f4 v=64
30903 Off ch=1 n=f4 v=64
30903 Off ch=1 n=f3 v=64
30951 On ch=1 n=g#3 v=64
30951 On ch=1 n=g#4 v=64
31143 Off ch=1 n=g#4 v=64
31143 Off ch=1 n=g#3 v=64
31191 On ch=1 n=g4 v=64
31191 On ch=1 n=g3 v=64
31575 Off ch=1 n=g3 v=64
31575 Off ch=1 n=g4 v=64
31671 On ch=1 n=c4 v=64
31863 Off ch=1 n=c4 v=64
32121 On ch=1 n=g#4 v=64
32131 Off ch=1 n=g#4 v=64
32148 On ch=1 n=g4 v=64
32156 Off ch=1 n=g4 v=64
32158 On ch=1 n=g#4 v=64
32166 Off ch=1 n=g#4 v=64
32168 On ch=1 n=g4 v=64
32176 Off ch=1 n=g4 v=64
32178 On ch=1 n=g#4 v=64
32186 Off ch=1 n=g#4 v=64
32188 On ch=1 n=g4 v=64
32196 Off ch=1 n=g4 v=64
32198 On ch=1 n=g#4 v=64
32206 Off ch=1 n=g#4 v=64
32208 On ch=1 n=g4 v=64
32262 Off ch=1 n=g4 v=64
32358 On ch=1 n=f4 v=64
32368 Off ch=1 n=f4 v=64
32385 On ch=1 n=d#4 v=64
32393 Off ch=1 n=d#4 v=64
32395 On ch=1 n=f4 v=64
32403 Off ch=1 n=f4 v=64
32405 On ch=1 n=d#4 v=64
32413 Off ch=1 n=d#4 v=64
32415 On ch=1 n=f4 v=64
32423 Off ch=1 n=f4 v=64
32425 On ch=1 n=d#4 v=64
32433 Off ch=1 n=d#4 v=64
32435 On ch=1 n=f4 v=64
32443 Off ch=1 n=f4 v=64
32445 On ch=1 n=d#4 v=64
32499 Off ch=1 n=d#4 v=64
32595 On ch=1 n=d4 v=64
32605 Off ch=1 n=d4 v=64
32622 On ch=1 n=c4 v=64
32630 Off ch=1 n=c4 v=64
32632 On ch=1 n=d#4 v=64
32640 Off ch=1 n=d#4 v=64
32642 On ch=1 n=g4 v=64
32650 Off ch=1 n=g4 v=64
32652 On ch=1 n=c5 v=64
32660 Off ch=1 n=c5 v=64
32662 On ch=1 n=d#5 v=64
32670 Off ch=1 n=d#5 v=64
32672 On ch=1 n=g5 v=64
32680 Off ch=1 n=g5 v=64
32862 On ch=1 n=c6 v=64
33054 Off ch=1 n=c6 v=64
33102 On ch=1 n=b5 v=64
33294 Off ch=1 n=b5 v=64
33342 On ch=1 n=a#5 v=64
33438 Off ch=1 n=a#5 v=64
33582 On ch=1 n=g#3 v=64
33590 Off ch=1 n=g#3 v=64
33592 On ch=1 n=c4 v=64
33600 Off ch=1 n=c4 v=64
33602 On ch=1 n=d#4 v=64
33610 Off ch=1 n=d#4 v=64
33612 On ch=1 n=g#4 v=64
33620 Off ch=1 n=g#4 v=64
33622 On ch=1 n=c5 v=64
33630 Off ch=1 n=c5 v=64
33632 On ch=1 n=d#5 v=64
33640 Off ch=1 n=d#5 v=64
33822 On ch=1 n=g#5 v=64
34014 Off ch=1 n=g#5 v=64
34062 On ch=1 n=g5 v=64
34398 Off ch=1 n=g5 v=64
34542 On ch=1 n=f3 v=64
34550 Off ch=1 n=f3 v=64
34552 On ch=1 n=g#3 v=64
34560 Off ch=1 n=g#3 v=64
34562 On ch=1 n=c4 v=64
34570 Off ch=1 n=c4 v=64
34572 On ch=1 n=f4 v=64
34580 Off ch=1 n=f4 v=64
34582 On ch=1 n=g#4 v=64
34590 Off ch=1 n=g#4 v=64
34592 On ch=1 n=c5 v=64
34600 Off ch=1 n=c5 v=64
34782 On ch=1 n=f5 v=64
34974 Off ch=1 n=f5 v=64
35022 On ch=1 n=e5 v=64
35022 On ch=1 n=c6 v=64
35214 Off ch=1 n=c6 v=64
35214 Off ch=1 n=e5 v=64
35262 On ch=1 n=g5 v=64
35262 On ch=1 n=d#5 v=64
35262 On ch=1 n=c6 v=64
35358 Off ch=1 n=c6 v=64
35358 Off ch=1 n=d#5 v=64
35358 Off ch=1 n=g5 v=64
35502 On ch=1 n=b5 v=64
35502 On ch=1 n=g5 v=64
35502 On ch=1 n=d5 v=64
35598 Off ch=1 n=d5 v=64
35598 Off ch=1 n=g5 v=64
35598 Off ch=1 n=b5 v=64
35742 On ch=1 n=c6 v=64
35742 On ch=1 n=c5 v=64
35742 On ch=1 n=g5 v=64
35838 Off ch=1 n=g5 v=64
35838 Off ch=1 n=c5 v=64
35838 Off ch=1 n=c6 v=64
35982 On ch=1 n=d#5 v=64
35982 On ch=1 n=c5 v=64
35982 On ch=1 n=g4 v=64
36174 Off ch=1 n=g4 v=64
36174 Off ch=1 n=c5 v=64
36174 Off ch=1 n=d#5 v=64
36222 On ch=1 n=d5 v=64
36222 On ch=1 n=g4 v=64
36222 On ch=1 n=b4 v=64
36318 Off ch=1 n=b4 v=64
36318 Off ch=1 n=g4 v=64
36318 Off ch=1 n=d5 v=64
36462 On ch=1 n=c3 v=64
36470 Off ch=1 n=c3 v=64
36472 On ch=1 n=d#3 v=64
36480 Off ch=1 n=d#3 v=64
36482 On ch=1 n=g3 v=64
36490 Off ch=1 n=g3 v=64
36492 On ch=1 n=c4 v=64
36500 Off ch=1 n=c4 v=64
36502 On ch=1 n=d#4 v=64
36510 Off ch=1 n=d#4 v=64
36512 On ch=1 n=g4 v=64
36520 Off ch=1 n=g4 v=64
36702 On ch=1 n=c5 v=64
36894 Off ch=1 n=c5 v=64
36942 On ch=1 n=g5 v=64
36942 On ch=1 n=b4 v=64
37134 Off ch=1 n=b4 v=64
37182 On ch=1 n=a#4 v=64
37278 Off ch=1 n=g5 v=64
37278 Off ch=1 n=a#4 v=64
37422 On ch=1 n=g#2 v=64
37430 Off ch=1 n=g#2 v=64
37432 On ch=1 n=c3 v=64
37440 Off ch=1 n=c3 v=64
37442 On ch=1 n=d#3 v=64
37450 Off ch=1 n=d#3 v=64
37452 On ch=1 n=g#3 v=64
37460 Off ch=1 n=g#3 v=64
37462 On ch=1 n=c4 v=64
37470 Off ch=1 n=c4 v=64
37472 On ch=1 n=d#4 v=64
37480 Off ch=1 n=d#4 v=64
37722 On ch=1 n=f5 v=64
37770 Off ch=1 n=f5 v=64
37782 On ch=1 n=d#5 v=64
37830 Off ch=1 n=d#5 v=64
37842 On ch=1 n=d5 v=64
37890 Off ch=1 n=d5 v=64
37902 On ch=1 n=g4 v=64
37902 On ch=1 n=d#5 v=64
38238 Off ch=1 n=g4 v=64
38238 Off ch=1 n=d#5 v=64
38382 On ch=1 n=f2 v=64
38390 Off ch=1 n=f2 v=64
38392 On ch=1 n=g#2 v=64
38400 Off ch=1 n=g#2 v=64
38402 On ch=1 n=c3 v=64
38410 Off ch=1 n=c3 v=64
38412 On ch=1 n=f3 v=64
38420 Off ch=1 n=f3 v=64
38422 On ch=1 n=g#3 v=64
38430 Off ch=1 n=g#3 v=64
38432 On ch=1 n=c4 v=64
38440 Off ch=1 n=c4 v=64
38622 On ch=1 n=f4 v=64
38814 Off ch=1 n=f4 v=64
38862 On ch=1 n=e4 v=64
39054 Off ch=1 n=e4 v=64
39102 On ch=1 n=d#4 v=64
39294 Off ch=1 n=d#4 v=64
39342 On ch=1 n=d4 v=64
39342 On ch=1 n=d3 v=64
39726 Off ch=1 n=d3 v=64
39726 Off ch=1 n=d4 v=64
39822 On ch=1 n=g4 v=64
39822 On ch=1 n=g3 v=64
40206 Off ch=1 n=g3 v=64
40206 Off ch=1 n=g4 v=64
40302 On ch=1 n=c4 v=64
40302 On ch=1 n=c3 v=64
40686 Off ch=1 n=c3 v=64
40686 Off ch=1 n=c4 v=64
40782 On ch=1 n=f4 v=64
40782 On ch=1 n=c5 v=64
40782 On ch=1 n=g#4 v=64
41166 Off ch=1 n=g#4 v=64
41166 Off ch=1 n=c5 v=64
41166 Off ch=1 n=f4 v=64
41262 On ch=1 n=g4 v=64
41454 Off ch=1 n=g4 v=64
41502 On ch=1 n=g3 v=64
41598 Off ch=1 n=g3 v=64
42342 On ch=1 n=d#4 v=64
42534 Off ch=1 n=d#4 v=64
42582 On ch=1 n=d#4 v=64
42774 Off ch=1 n=d#4 v=64
42822 On ch=1 n=d#4 v=64
43014 Off ch=1 n=d#4 v=64
43062 On ch=1 n=d#4 v=64
43158 Off ch=1 n=d#4 v=64
43302 On ch=1 n=d#4 v=64
43494 Off ch=1 n=d#4 v=64
43542 On ch=1 n=d#4 v=64
43734 Off ch=1 n=d#4 v=64
43782 On ch=1 n=d#4 v=64
43974 Off ch=1 n=d#4 v=64
44022 On ch=1 n=d#4 v=80
44118 Off ch=1 n=d#4 v=64
44262 On ch=1 n=d4 v=64
44454 Off ch=1 n=d4 v=64
44502 On ch=1 n=d4 v=64
44694 Off ch=1 n=d4 v=64
44742 On ch=1 n=d4 v=64
44934 Off ch=1 n=d4 v=64
44982 On ch=1 n=d4 v=64
45078 Off ch=1 n=d4 v=64
45102 On ch=1 n=d#3 v=64
45198 Off ch=1 n=d#3 v=64
45342 On ch=1 n=g4 v=64
45342 On ch=1 n=d#5 v=64
45342 On ch=1 n=a#4 v=64
45342 On ch=1 n=d#4 v=64
45438 Off ch=1 n=d#4 v=64
45438 Off ch=1 n=a#4 v=64
45438 Off ch=1 n=d#5 v=64
45438 Off ch=1 n=g4 v=64
45582 On ch=1 n=f5 v=64
45774 Off ch=1 n=f5 v=64
45822 On ch=1 n=a#4 v=64
45918 Off ch=1 n=a#4 v=64
46062 On ch=1 n=d#4 v=64
46062 On ch=1 n=g4 v=64
46158 Off ch=1 n=g4 v=64
46158 Off ch=1 n=d#4 v=64
46302 On ch=1 n=g3 v=64
46302 On ch=1 n=a#3 v=64
46302 On ch=1 n=d#3 v=64
46302 On ch=1 n=d#4 v=64
46398 Off ch=1 n=d#4 v=64
46398 Off ch=1 n=d#3 v=64
46398 Off ch=1 n=a#3 v=64
46398 Off ch=1 n=g3 v=64
46542 On ch=1 n=f4 v=64
46734 Off ch=1 n=f4 v=64
46782 On ch=1 n=g#4 v=64
46806 Off ch=1 n=g#4 v=64
46812 On ch=1 n=g4 v=64
46836 Off ch=1 n=g4 v=64
46842 On ch=1 n=f4 v=64
46866 Off ch=1 n=f4 v=64
46872 On ch=1 n=d#4 v=64
46896 Off ch=1 n=d#4 v=64
46902 On ch=1 n=d4 v=64
46926 Off ch=1 n=d4 v=64
46932 On ch=1 n=c4 v=64
46956 Off ch=1 n=c4 v=64
46962 On ch=1 n=a#3 v=64
46986 Off ch=1 n=a#3 v=64
46992 On ch=1 n=g#3 v=64
47016 Off ch=1 n=g#3 v=64
47022 On ch=1 n=g3 v=64
47034 Off ch=1 n=g3 v=64
47037 On ch=1 n=a#3 v=64
47049 Off ch=1 n=a#3 v=64
47052 On ch=1 n=g#3 v=64
47064 Off ch=1 n=g#3 v=64
47067 On ch=1 n=g3 v=64
47079 Off ch=1 n=g3 v=64
47082 On ch=1 n=g#3 v=64
47094 Off ch=1 n=g#3 v=64
47097 On ch=1 n=a#3 v=64
47109 Off ch=1 n=a#3 v=64
47112 On ch=1 n=c4 v=64
47124 Off ch=1 n=c4 v=64
47127 On ch=1 n=d4 v=64
47139 Off ch=1 n=d4 v=64
47142 On ch=1 n=d#4 v=64
47154 Off ch=1 n=d#4 v=64
47157 On ch=1 n=f4 v=64
47169 Off ch=1 n=f4 v=64
47172 On ch=1 n=g4 v=64
47184 Off ch=1 n=g4 v=64
47187 On ch=1 n=g#4 v=64
47199 Off ch=1 n=g#4 v=64
47202 On ch=1 n=a#4 v=64
47214 Off ch=1 n=a#4 v=64
47217 On ch=1 n=c5 v=64
47229 Off ch=1 n=c5 v=64
47232 On ch=1 n=d5 v=64
47244 Off ch=1 n=d5 v=64
47247 On ch=1 n=d#5 v=64
47259 Off ch=1 n=d#5 v=64
47502 On ch=1 n=a#4 v=64
47694 Off ch=1 n=a#4 v=64
47742 On ch=1 n=d#4 v=64
47838 Off ch=1 n=d#4 v=64
47982 On ch=1 n=g#3 v=64
48078 Off ch=1 n=g#3 v=64
48222 On ch=1 n=c4 v=64
48222 On ch=1 n=g#3 v=64
48318 Off ch=1 n=g#3 v=64
48318 Off ch=1 n=c4 v=64
48462 On ch=1 n=f4 v=64
48462 On ch=1 n=g#3 v=64
48462 On ch=1 n=c4 v=64
48558 Off ch=1 n=c4 v=64
48558 Off ch=1 n=g#3 v=64
48558 Off ch=1 n=f4 v=64
48702 On ch=1 n=c4 v=64
48702 On ch=1 n=g#3 v=64
48702 On ch=1 n=f4 v=64
48702 On ch=1 n=g#4 v=64
48798 Off ch=1 n=g#4 v=64
48798 Off ch=1 n=f4 v=64
48798 Off ch=1 n=g#3 v=64
48798 Off ch=1 n=c4 v=64
49002 On ch=1 n=g4 v=64
49002 On ch=1 n=d#4 v=64
49002 On ch=1 n=a#3 v=64
49029 Off ch=1 n=a#3 v=64
49029 Off ch=1 n=d#4 v=64
49029 Off ch=1 n=g4 v=64
49062 On ch=1 n=g4 v=64
49062 On ch=1 n=d#4 v=64
49062 On ch=1 n=a#3 v=64
49089 Off ch=1 n=a#3 v=64
49089 Off ch=1 n=d#4 v=64
49089 Off ch=1 n=g4 v=64
49122 On ch=1 n=g4 v=64
49122 On ch=1 n=d#4 v=64
49122 On ch=1 n=a#3 v=64
49149 Off ch=1 n=a#3 v=64
49149 Off ch=1 n=d#4 v=64
49149 Off ch=1 n=g4 v=64
49182 On ch=1 n=g4 v=64
49182 On ch=1 n=d#4 v=64
49182 On ch=1 n=a#3 v=64
49278 Off ch=1 n=a#3 v=64
49278 Off ch=1 n=d#4 v=64
49278 Off ch=1 n=g4 v=64
49422 On ch=1 n=d#4 v=64
49422 On ch=1 n=g4 v=64
49422 On ch=1 n=a#3 v=64
49518 Off ch=1 n=a#3 v=64
49518 Off ch=1 n=g4 v=64
49518 Off ch=1 n=d#4 v=64
49662 On ch=1 n=g4 v=64
49662 On ch=1 n=d#4 v=64
49662 On ch=1 n=a#3 v=64
49758 Off ch=1 n=a#3 v=64
49758 Off ch=1 n=d#4 v=64
49758 Off ch=1 n=g4 v=64
49902 On ch=1 n=f4 v=64
49902 On ch=1 n=d#4 v=64
49902 On ch=1 n=a#3 v=64
49998 Off ch=1 n=a#3 v=64
49998 Off ch=1 n=d#4 v=64
49998 Off ch=1 n=f4 v=64
50142 On ch=1 n=f4 v=64
50142 On ch=1 n=d#4 v=64
50142 On ch=1 n=a#3 v=64
50238 Off ch=1 n=a#3 v=64
50238 Off ch=1 n=d#4 v=64
50238 Off ch=1 n=f4 v=64
50382 On ch=1 n=d#4 v=64
50382 On ch=1 n=g#4 v=64
50382 On ch=1 n=a#3 v=64
50478 Off ch=1 n=a#3 v=64
50478 Off ch=1 n=g#4 v=64
50478 Off ch=1 n=d#4 v=64
50502 On ch=1 n=g#4 v=64
50502 On ch=1 n=d#4 v=64
50502 On ch=1 n=a#3 v=64
50598 Off ch=1 n=a#3 v=64
50598 Off ch=1 n=d#4 v=64
50598 Off ch=1 n=g#4 v=64
50622 On ch=1 n=d4 v=64
50622 On ch=1 n=g#4 v=64
50622 On ch=1 n=a#3 v=64
50718 Off ch=1 n=a#3 v=64
50718 Off ch=1 n=g#4 v=64
50718 Off ch=1 n=d4 v=64
50742 On ch=1 n=d4 v=64
50742 On ch=1 n=g#4 v=64
50742 On ch=1 n=a#3 v=64
50838 Off ch=1 n=a#3 v=64
50838 Off ch=1 n=g#4 v=64
50838 Off ch=1 n=d4 v=64
50862 On ch=1 n=g4 v=64
50862 On ch=1 n=d#4 v=64
50958 Off ch=1 n=d#4 v=64
50958 Off ch=1 n=g4 v=64
51102 On ch=1 n=d3 v=64
51102 On ch=1 n=d4 v=64
51294 Off ch=1 n=d4 v=64
51294 Off ch=1 n=d3 v=64
51342 On ch=1 n=d#3 v=64
51342 On ch=1 n=d#4 v=64
51438 Off ch=1 n=d#4 v=64
51438 Off ch=1 n=d#3 v=64
51462 On ch=1 n=g#3 v=64
51558 Off ch=1 n=g#3 v=64
51582 On ch=1 n=a#3 v=64
51678 Off ch=1 n=a#3 v=64
51702 On ch=1 n=a#3 v=64
51798 Off ch=1 n=a#3 v=64
51822 On ch=1 n=d#3 v=64
51822 On ch=1 n=d#4 v=64
51918 Off ch=1 n=d#4 v=64
51918 Off ch=1 n=d#3 v=64
52062 On ch=1 n=d4 v=64
52062 On ch=1 n=d3 v=64
52254 Off ch=1 n=d3 v=64
52254 Off ch=1 n=d4 v=64
52302 On ch=1 n=d#3 v=64
52302 On ch=1 n=d#4 v=64
52398 Off ch=1 n=d#4 v=64
52398 Off ch=1 n=d#3 v=64
52422 On ch=1 n=g#3 v=64
52518 Off ch=1 n=g#3 v=64
52542 On ch=1 n=a#3 v=64
52638 Off ch=1 n=a#3 v=64
52662 On ch=1 n=a#3 v=64
52758 Off ch=1 n=a#3 v=64
52782 On ch=1 n=d#4 v=64
52878 Off ch=1 n=d#4 v=64
53142 On ch=1 n=a#3 v=64
53196 Off ch=1 n=a#3 v=64
53262 On ch=1 n=d#3 v=64
53262 On ch=1 n=d#4 v=64
53598 Off ch=1 n=d#4 v=64
53598 Off ch=1 n=d#3 v=64
53742 On ch=1 n=c3 v=64
53750 Off ch=1 n=c3 v=64
53752 On ch=1 n=e3 v=64
53760 Off ch=1 n=e3 v=64
53762 On ch=1 n=g3 v=64
53770 Off ch=1 n=g3 v=64
53772 On ch=1 n=c4 v=64
53780 Off ch=1 n=c4 v=64
53782 On ch=1 n=e4 v=64
53790 Off ch=1 n=e4 v=64
53792 On ch=1 n=g4 v=64
53800 Off ch=1 n=g4 v=64
53982 On ch=1 n=e5 v=64
53982 On ch=1 n=g5 v=64
54174 Off ch=1 n=g5 v=64
54174 Off ch=1 n=e5 v=64
54222 On ch=1 n=f5 v=64
54222 On ch=1 n=g#5 v=64
54318 Off ch=1 n=g#5 v=64
54318 Off ch=1 n=f5 v=64
54702 On ch=1 n=g3 v=64
54710 Off ch=1 n=g3 v=64
54712 On ch=1 n=a#3 v=64
54720 Off ch=1 n=a#3 v=64
54722 On ch=1 n=c#4 v=64
54730 Off ch=1 n=c#4 v=64
54732 On ch=1 n=e4 v=64
54744 Off ch=1 n=e4 v=64
54747 On ch=1 n=g4 v=64
54759 Off ch=1 n=g4 v=64
54942 On ch=1 n=a#5 v=64
54942 On ch=1 n=c#6 v=64
54942 On ch=1 n=g5 v=64
55134 Off ch=1 n=g5 v=64
55134 Off ch=1 n=c#6 v=64
55134 Off ch=1 n=a#5 v=64
55182 On ch=1 n=c6 v=64
55182 On ch=1 n=g#5 v=64
55278 Off ch=1 n=g#5 v=64
55278 Off ch=1 n=c6 v=64
55662 On ch=1 n=a3 v=64
55670 Off ch=1 n=a3 v=64
55672 On ch=1 n=c4 v=64
55680 Off ch=1 n=c4 v=64
55682 On ch=1 n=d#4 v=64
55690 Off ch=1 n=d#4 v=64
55692 On ch=1 n=f#4 v=64
55700 Off ch=1 n=f#4 v=64
55702 On ch=1 n=a4 v=64
55710 Off ch=1 n=a4 v=64
55712 On ch=1 n=c5 v=64
55720 Off ch=1 n=c5 v=64
55902 On ch=1 n=a5 v=64
55902 On ch=1 n=c5 v=64
55902 On ch=1 n=f#5 v=64
56094 Off ch=1 n=f#5 v=64
56094 Off ch=1 n=c5 v=64
56094 Off ch=1 n=a5 v=64
56142 On ch=1 n=d5 v=64
56142 On ch=1 n=a#4 v=64
56142 On ch=1 n=g5 v=64
56238 Off ch=1 n=g5 v=64
56238 Off ch=1 n=a#4 v=64
56238 Off ch=1 n=d5 v=64
56382 On ch=1 n=f#4 v=64
56382 On ch=1 n=d5 v=64
56478 Off ch=1 n=d5 v=64
56478 Off ch=1 n=f#4 v=64
56622 On ch=1 n=a#4 v=64
56622 On ch=1 n=g4 v=64
56622 On ch=1 n=d5 v=64
56814 Off ch=1 n=d5 v=64
56814 Off ch=1 n=g4 v=64
56814 Off ch=1 n=a#4 v=64
56862 On ch=1 n=d#4 v=64
56862 On ch=1 n=g4 v=64
56862 On ch=1 n=c#5 v=64
57054 Off ch=1 n=c#5 v=64
57054 Off ch=1 n=g4 v=64
57054 Off ch=1 n=d#4 v=64
57102 On ch=1 n=a4 v=64
57102 On ch=1 n=d5 v=64
57198 Off ch=1 n=d5 v=64
57198 Off ch=1 n=a4 v=64
57222 On ch=1 n=f#4 v=64
57222 On ch=1 n=a4 v=64
57318 Off ch=1 n=a4 v=64
57318 Off ch=1 n=f#4 v=64
57342 On ch=1 n=g4 v=64
57342 On ch=1 n=a#4 v=64
57438 Off ch=1 n=a#4 v=64
57438 Off ch=1 n=g4 v=64
57462 On ch=1 n=c#5 v=64
57558 Off ch=1 n=c#5 v=64
57582 On ch=1 n=d4 v=80
57582 On ch=1 n=d5 v=64
57582 On ch=1 n=a4 v=64
57678 Off ch=1 n=a4 v=64
57678 Off ch=1 n=d5 v=64
57702 On ch=1 n=a4 v=64
57702 On ch=1 n=f#4 v=64
57798 Off ch=1 n=f#4 v=64
57798 Off ch=1 n=a4 v=64
57822 On ch=1 n=g4 v=64
57822 On ch=1 n=a#4 v=64
57918 Off ch=1 n=a#4 v=64
57918 Off ch=1 n=g4 v=64
57942 On ch=1 n=c#5 v=64
57966 Off ch=1 n=d4 v=64
58038 Off ch=1 n=c#5 v=64
58062 On ch=1 n=a4 v=64
58062 On ch=1 n=d5 v=64
58062 On ch=1 n=d4 v=64
58158 Off ch=1 n=d4 v=64
58158 Off ch=1 n=d5 v=64
58158 Off ch=1 n=a4 v=64
58242 On ch=1 n=d4 v=64
58258 Off ch=1 n=d4 v=64
58262 On ch=1 n=a3 v=64
58278 Off ch=1 n=a3 v=64
58282 On ch=1 n=f#3 v=64
58298 Off ch=1 n=f#3 v=64
58302 On ch=1 n=d3 v=64
58398 Off ch=1 n=d3 v=64
58542 On ch=1 n=g2 v=64
58678 Off ch=1 n=g2 v=64
58682 On ch=1 n=a#2 v=64
58698 Off ch=1 n=a#2 v=64
58702 On ch=1 n=d3 v=64
58718 Off ch=1 n=d3 v=64
58722 On ch=1 n=g3 v=64
58734 Off ch=1 n=g3 v=64
58737 On ch=1 n=a#3 v=64
58749 Off ch=1 n=a#3 v=64
58752 On ch=1 n=d4 v=64
58764 Off ch=1 n=d4 v=64
58767 On ch=1 n=g4 v=64
58779 Off ch=1 n=g4 v=64
58782 On ch=1 n=a#4 v=64
58854 Off ch=1 n=a#4 v=64
58872 On ch=1 n=c5 v=64
58884 Off ch=1 n=c5 v=64
58887 On ch=1 n=a#4 v=64
58899 Off ch=1 n=a#4 v=64
58902 On ch=1 n=a4 v=64
58950 Off ch=1 n=a4 v=64
58962 On ch=1 n=g4 v=64
59010 Off ch=1 n=g4 v=64
59022 On ch=1 n=f#4 v=64
59094 Off ch=1 n=f#4 v=64
59112 On ch=1 n=c#7 v=64
59136 Off ch=1 n=c#7 v=64
59142 On ch=1 n=d7 v=64
59190 Off ch=1 n=d7 v=64
59352 On ch=1 n=a3 v=64
59376 Off ch=1 n=a3 v=64
59382 On ch=1 n=f#3 v=64
59454 Off ch=1 n=f#3 v=64
59472 On ch=1 n=d3 v=64
59496 Off ch=1 n=d3 v=64
59502 On ch=1 n=g2 v=64
59638 Off ch=1 n=g2 v=64
59642 On ch=1 n=a#2 v=64
59658 Off ch=1 n=a#2 v=64
59662 On ch=1 n=d3 v=64
59678 Off ch=1 n=d3 v=64
59682 On ch=1 n=g3 v=64
59694 Off ch=1 n=g3 v=64
59697 On ch=1 n=a#3 v=64
59709 Off ch=1 n=a#3 v=64
59712 On ch=1 n=d4 v=64
59724 Off ch=1 n=d4 v=64
59727 On ch=1 n=g4 v=64
59739 Off ch=1 n=g4 v=64
59742 On ch=1 n=a#4 v=64
59814 Off ch=1 n=a#4 v=64
59832 On ch=1 n=c5 v=64
59844 Off ch=1 n=c5 v=64
59847 On ch=1 n=a#4 v=64
59859 Off ch=1 n=a#4 v=64
59862 On ch=1 n=a4 v=64
59910 Off ch=1 n=a4 v=64
59922 On ch=1 n=g4 v=64
59970 Off ch=1 n=g4 v=64
59982 On ch=1 n=g#4 v=64
60054 Off ch=1 n=g#4 v=64
60072 On ch=1 n=e7 v=80
60096 Off ch=1 n=e7 v=64
60102 On ch=1 n=f7 v=64
60150 Off ch=1 n=f7 v=64
60312 On ch=1 n=g#3 v=64
60336 Off ch=1 n=g#3 v=64
60342 On ch=1 n=f3 v=64
60414 Off ch=1 n=f3 v=64
60432 On ch=1 n=d3 v=64
60456 Off ch=1 n=d3 v=64
60462 On ch=1 n=b2 v=64
60598 Off ch=1 n=b2 v=64
60602 On ch=1 n=d3 v=64
60618 Off ch=1 n=d3 v=64
60622 On ch=1 n=g3 v=64
60638 Off ch=1 n=g3 v=64
60642 On ch=1 n=b3 v=64
60658 Off ch=1 n=b3 v=64
60662 On ch=1 n=d4 v=64
60678 Off ch=1 n=d4 v=64
60682 On ch=1 n=g4 v=64
60698 Off ch=1 n=g4 v=64
60702 On ch=1 n=b4 v=64
60774 Off ch=1 n=b4 v=64
60792 On ch=1 n=c5 v=64
60804 Off ch=1 n=c5 v=64
60807 On ch=1 n=b4 v=64
60819 Off ch=1 n=b4 v=64
60822 On ch=1 n=a4 v=64
60870 Off ch=1 n=a4 v=64
60882 On ch=1 n=g4 v=64
60930 Off ch=1 n=g4 v=64
60942 On ch=1 n=c5 v=64
61014 Off ch=1 n=c5 v=64
61032 On ch=1 n=d7 v=64
61056 Off ch=1 n=d7 v=64
61062 On ch=1 n=d#7 v=64
61110 Off ch=1 n=d#7 v=64
61182 On ch=1 n=g#3 v=64
61254 Off ch=1 n=g#3 v=64
61272 On ch=1 n=d7 v=64
61296 Off ch=1 n=d7 v=64
61302 On ch=1 n=d#7 v=64
61350 Off ch=1 n=d#7 v=64
61422 On ch=1 n=f3 v=64
61494 Off ch=1 n=f3 v=64
61512 On ch=1 n=c7 v=64
61536 Off ch=1 n=c7 v=64
61542 On ch=1 n=c#7 v=64
61590 Off ch=1 n=c#7 v=64
61662 On ch=1 n=f#3 v=64
61734 Off ch=1 n=f#3 v=64
61752 On ch=1 n=c7 v=64
61776 Off ch=1 n=c7 v=64
61782 On ch=1 n=c#7 v=64
61830 Off ch=1 n=c#7 v=64
61902 On ch=1 n=d#3 v=64
61974 Off ch=1 n=d#3 v=64
61992 On ch=1 n=a#6 v=64
62016 Off ch=1 n=a#6 v=64
62022 On ch=1 n=c7 v=64
62070 Off ch=1 n=c7 v=64
62142 On ch=1 n=f3 v=64
62214 Off ch=1 n=f3 v=64
62232 On ch=1 n=a#6 v=64
62256 Off ch=1 n=a#6 v=64
62262 On ch=1 n=c7 v=64
62310 Off ch=1 n=c7 v=64
62382 On ch=1 n=a#3 v=64
62398 Off ch=1 n=a#3 v=64
62402 On ch=1 n=c#4 v=64
62418 Off ch=1 n=c#4 v=64
62422 On ch=1 n=f4 v=64
62438 Off ch=1 n=f4 v=64
62442 On ch=1 n=a#4 v=64
62458 Off ch=1 n=a#4 v=64
62462 On ch=1 n=f4 v=64
62478 Off ch=1 n=f4 v=64
62482 On ch=1 n=c#4 v=64
62498 Off ch=1 n=c#4 v=64
62502 On ch=1 n=a#3 v=64
62518 Off ch=1 n=a#3 v=64
62522 On ch=1 n=c#4 v=64
62538 Off ch=1 n=c#4 v=64
62542 On ch=1 n=f4 v=64
62558 Off ch=1 n=f4 v=64
62562 On ch=1 n=a#4 v=64
62578 Off ch=1 n=a#4 v=64
62582 On ch=1 n=f4 v=64
62598 Off ch=1 n=f4 v=64
62602 On ch=1 n=c#4 v=64
62618 Off ch=1 n=c#4 v=64
62622 On ch=1 n=a#3 v=64
62638 Off ch=1 n=a#3 v=64
62642 On ch=1 n=c#4 v=64
62658 Off ch=1 n=c#4 v=64
62662 On ch=1 n=f4 v=64
62678 Off ch=1 n=f4 v=64
62682 On ch=1 n=a#4 v=64
62698 Off ch=1 n=a#4 v=64
62702 On ch=1 n=f4 v=64
62718 Off ch=1 n=f4 v=64
62722 On ch=1 n=c#4 v=64
62738 Off ch=1 n=c#4 v=64
62742 On ch=1 n=a#3 v=64
62758 Off ch=1 n=a#3 v=64
62762 On ch=1 n=c#4 v=64
62778 Off ch=1 n=c#4 v=64
62782 On ch=1 n=f4 v=64
62798 Off ch=1 n=f4 v=64
62802 On ch=1 n=a#4 v=64
62818 Off ch=1 n=a#4 v=64
62822 On ch=1 n=f4 v=64
62838 Off ch=1 n=f4 v=64
62842 On ch=1 n=c#4 v=64
62858 Off ch=1 n=c#4 v=64
62862 On ch=1 n=a#3 v=64
62878 Off ch=1 n=a#3 v=64
62882 On ch=1 n=c#4 v=64
62898 Off ch=1 n=c#4 v=64
62902 On ch=1 n=f4 v=64
62918 Off ch=1 n=f4 v=64
62922 On ch=1 n=a#4 v=64
62938 Off ch=1 n=a#4 v=64
62942 On ch=1 n=f4 v=64
62958 Off ch=1 n=f4 v=64
62962 On ch=1 n=c#4 v=64
62978 Off ch=1 n=c#4 v=64
62982 On ch=1 n=a#3 v=64
62998 Off ch=1 n=a#3 v=64
63002 On ch=1 n=c#4 v=64
63018 Off ch=1 n=c#4 v=64
63022 On ch=1 n=f4 v=64
63038 Off ch=1 n=f4 v=64
63042 On ch=1 n=a#4 v=64
63058 Off ch=1 n=a#4 v=64
63062 On ch=1 n=f4 v=64
63078 Off ch=1 n=f4 v=64
63082 On ch=1 n=c#4 v=64
63098 Off ch=1 n=c#4 v=64
63102 On ch=1 n=a#3 v=64
63118 Off ch=1 n=a#3 v=64
63122 On ch=1 n=c#4 v=64
63138 Off ch=1 n=c#4 v=64
63142 On ch=1 n=f4 v=64
63158 Off ch=1 n=f4 v=64
63162 On ch=1 n=a#4 v=64
63178 Off ch=1 n=a#4 v=64
63182 On ch=1 n=f4 v=64
63198 Off ch=1 n=f4 v=64
63202 On ch=1 n=c#4 v=64
63218 Off ch=1 n=c#4 v=64
63222 On ch=1 n=a#3 v=64
63238 Off ch=1 n=a#3 v=64
63242 On ch=1 n=c#4 v=64
63258 Off ch=1 n=c#4 v=64
63262 On ch=1 n=f4 v=64
63278 Off ch=1 n=f4 v=64
63282 On ch=1 n=a#4 v=64
63298 Off ch=1 n=a#4 v=64
63302 On ch=1 n=f4 v=64
63318 Off ch=1 n=f4 v=64
63322 On ch=1 n=c#4 v=64
63338 Off ch=1 n=c#4 v=64
63342 On ch=1 n=c4 v=64
63358 Off ch=1 n=c4 v=64
63362 On ch=1 n=d#4 v=64
63378 Off ch=1 n=d#4 v=64
63382 On ch=1 n=f4 v=64
63398 Off ch=1 n=f4 v=64
63402 On ch=1 n=a4 v=64
63418 Off ch=1 n=a4 v=64
63422 On ch=1 n=f4 v=64
63438 Off ch=1 n=f4 v=64
63442 On ch=1 n=d#4 v=64
63458 Off ch=1 n=d#4 v=64
63462 On ch=1 n=c4 v=64
63478 Off ch=1 n=c4 v=64
63482 On ch=1 n=d#4 v=64
63498 Off ch=1 n=d#4 v=64
63502 On ch=1 n=f4 v=64
63518 Off ch=1 n=f4 v=64
63522 On ch=1 n=a4 v=64
63538 Off ch=1 n=a4 v=64
63542 On ch=1 n=f4 v=64
63558 Off ch=1 n=f4 v=64
63562 On ch=1 n=d#4 v=64
63578 Off ch=1 n=d#4 v=64
63582 On ch=1 n=c4 v=64
63598 Off ch=1 n=c4 v=64
63602 On ch=1 n=d#4 v=64
63618 Off ch=1 n=d#4 v=64
63622 On ch=1 n=f4 v=64
63638 Off ch=1 n=f4 v=64
63642 On ch=1 n=a4 v=64
63658 Off ch=1 n=a4 v=64
63662 On ch=1 n=f4 v=64
63678 Off ch=1 n=f4 v=64
63682 On ch=1 n=d#4 v=64
63698 Off ch=1 n=d#4 v=64
63702 On ch=1 n=c4 v=64
63718 Off ch=1 n=c4 v=64
63722 On ch=1 n=d#4 v=64
63738 Off ch=1 n=d#4 v=64
63742 On ch=1 n=f4 v=64
63758 Off ch=1 n=f4 v=64
63762 On ch=1 n=a4 v=64
63778 Off ch=1 n=a4 v=64
63782 On ch=1 n=f4 v=64
63798 Off ch=1 n=f4 v=64
63802 On ch=1 n=d#4 v=64
63818 Off ch=1 n=d#4 v=64
63822 On ch=1 n=c4 v=64
63838 Off ch=1 n=c4 v=64
63842 On ch=1 n=d#4 v=64
63858 Off ch=1 n=d#4 v=64
63862 On ch=1 n=f4 v=64
63878 Off ch=1 n=f4 v=64
63882 On ch=1 n=a4 v=64
63898 Off ch=1 n=a4 v=64
63902 On ch=1 n=f4 v=64
63918 Off ch=1 n=f4 v=64
63922 On ch=1 n=d#4 v=64
63938 Off ch=1 n=d#4 v=64
63942 On ch=1 n=c4 v=64
63958 Off ch=1 n=c4 v=64
63962 On ch=1 n=d#4 v=64
63978 Off ch=1 n=d#4 v=64
63982 On ch=1 n=f4 v=64
63998 Off ch=1 n=f4 v=64
64002 On ch=1 n=a4 v=64
64018 Off ch=1 n=a4 v=64
64022 On ch=1 n=f4 v=64
64038 Off ch=1 n=f4 v=64
64042 On ch=1 n=d#4 v=64
64058 Off ch=1 n=d#4 v=64
64062 On ch=1 n=c4 v=64
64078 Off ch=1 n=c4 v=64
64082 On ch=1 n=d#4 v=64
64098 Off ch=1 n=d#4 v=64
64102 On ch=1 n=f4 v=64
64118 Off ch=1 n=f4 v=64
64122 On ch=1 n=a4 v=64
64138 Off ch=1 n=a4 v=64
64142 On ch=1 n=f4 v=64
64158 Off ch=1 n=f4 v=64
64162 On ch=1 n=d#4 v=64
64178 Off ch=1 n=d#4 v=64
64182 On ch=1 n=c4 v=64
64198 Off ch=1 n=c4 v=64
64202 On ch=1 n=d#4 v=64
64218 Off ch=1 n=d#4 v=64
64222 On ch=1 n=f4 v=64
64238 Off ch=1 n=f4 v=64
64242 On ch=1 n=a4 v=64
64258 Off ch=1 n=a4 v=64
64262 On ch=1 n=f4 v=64
64278 Off ch=1 n=f4 v=64
64282 On ch=1 n=d#4 v=64
64298 Off ch=1 n=d#4 v=64
64302 On ch=1 n=c#4 v=64
64318 Off ch=1 n=c#4 v=64
64322 On ch=1 n=f4 v=64
64338 Off ch=1 n=f4 v=64
64342 On ch=1 n=a#4 v=64
64358 Off ch=1 n=a#4 v=64
64362 On ch=1 n=c#5 v=64
64378 Off ch=1 n=c#5 v=64
64382 On ch=1 n=a#4 v=64
64398 Off ch=1 n=a#4 v=64
64402 On ch=1 n=f4 v=64
64418 Off ch=1 n=f4 v=64
64422 On ch=1 n=c#4 v=64
64438 Off ch=1 n=c#4 v=64
64442 On ch=1 n=f4 v=64
64458 Off ch=1 n=f4 v=64
64462 On ch=1 n=a#4 v=64
64478 Off ch=1 n=a#4 v=64
64482 On ch=1 n=c#5 v=64
64498 Off ch=1 n=c#5 v=64
64502 On ch=1 n=a#4 v=64
64518 Off ch=1 n=a#4 v=64
64522 On ch=1 n=f4 v=64
64538 Off ch=1 n=f4 v=64
64542 On ch=1 n=c#4 v=64
64558 Off ch=1 n=c#4 v=64
64562 On ch=1 n=f4 v=64
64578 Off ch=1 n=f4 v=64
64582 On ch=1 n=a#4 v=64
64598 Off ch=1 n=a#4 v=64
64602 On ch=1 n=c#5 v=64
64618 Off ch=1 n=c#5 v=64
64622 On ch=1 n=a#4 v=64
64638 Off ch=1 n=a#4 v=64
64642 On ch=1 n=f4 v=64
64658 Off ch=1 n=f4 v=64
64662 On ch=1 n=c#4 v=64
64678 Off ch=1 n=c#4 v=64
64682 On ch=1 n=f4 v=64
64698 Off ch=1 n=f4 v=64
64702 On ch=1 n=a#4 v=64
64718 Off ch=1 n=a#4 v=64
64722 On ch=1 n=c#5 v=64
64738 Off ch=1 n=c#5 v=64
64742 On ch=1 n=a#4 v=64
64758 Off ch=1 n=a#4 v=64
64762 On ch=1 n=f4 v=64
64778 Off ch=1 n=f4 v=64
64782 On ch=1 n=c#4 v=64
64798 Off ch=1 n=c#4 v=64
64802 On ch=1 n=f4 v=64
64818 Off ch=1 n=f4 v=64
64822 On ch=1 n=a#4 v=64
64838 Off ch=1 n=a#4 v=64
64842 On ch=1 n=c#5 v=64
64858 Off ch=1 n=c#5 v=64
64862 On ch=1 n=a#4 v=64
64878 Off ch=1 n=a#4 v=64
64882 On ch=1 n=f4 v=64
64898 Off ch=1 n=f4 v=64
64902 On ch=1 n=c#4 v=64
64918 Off ch=1 n=c#4 v=64
64922 On ch=1 n=f4 v=64
64938 Off ch=1 n=f4 v=64
64942 On ch=1 n=a#4 v=64
64958 Off ch=1 n=a#4 v=64
64962 On ch=1 n=c#5 v=64
64978 Off ch=1 n=c#5 v=64
64982 On ch=1 n=a#4 v=64
64998 Off ch=1 n=a#4 v=64
65002 On ch=1 n=f4 v=64
65018 Off ch=1 n=f4 v=64
65022 On ch=1 n=c#4 v=64
65038 Off ch=1 n=c#4 v=64
65042 On ch=1 n=f4 v=64
65058 Off ch=1 n=f4 v=64
65062 On ch=1 n=a#4 v=64
65078 Off ch=1 n=a#4 v=64
65082 On ch=1 n=c#5 v=64
65098 Off ch=1 n=c#5 v=64
65102 On ch=1 n=a#4 v=64
65118 Off ch=1 n=a#4 v=64
65122 On ch=1 n=f4 v=64
65138 Off ch=1 n=f4 v=64
65142 On ch=1 n=c#4 v=64
65158 Off ch=1 n=c#4 v=64
65162 On ch=1 n=f4 v=64
65178 Off ch=1 n=f4 v=64
65182 On ch=1 n=a#4 v=64
65198 Off ch=1 n=a#4 v=64
65202 On ch=1 n=c#5 v=64
65218 Off ch=1 n=c#5 v=64
65222 On ch=1 n=a#4 v=64
65238 Off ch=1 n=a#4 v=64
65242 On ch=1 n=f4 v=64
65258 Off ch=1 n=f4 v=64
65262 On ch=1 n=e4 v=64
65278 Off ch=1 n=e4 v=64
65282 On ch=1 n=g4 v=64
65298 Off ch=1 n=g4 v=64
65302 On ch=1 n=a#4 v=64
65318 Off ch=1 n=a#4 v=64
65322 On ch=1 n=c5 v=64
65338 Off ch=1 n=c5 v=64
65342 On ch=1 n=a#4 v=64
65358 Off ch=1 n=a#4 v=64
65362 On ch=1 n=g4 v=64
65378 Off ch=1 n=g4 v=64
65382 On ch=1 n=e4 v=64
65398 Off ch=1 n=e4 v=64
65402 On ch=1 n=g4 v=64
65418 Off ch=1 n=g4 v=64
65422 On ch=1 n=a#4 v=64
65438 Off ch=1 n=a#4 v=64
65442 On ch=1 n=c5 v=64
65458 Off ch=1 n=c5 v=64
65462 On ch=1 n=a#4 v=64
65478 Off ch=1 n=a#4 v=64
65482 On ch=1 n=g4 v=64
65498 Off ch=1 n=g4 v=64
65502 On ch=1 n=e4 v=64
65518 Off ch=1 n=e4 v=64
65522 On ch=1 n=g4 v=64
65538 Off ch=1 n=g4 v=64
65542 On ch=1 n=a#4 v=64
65558 Off ch=1 n=a#4 v=64
65562 On ch=1 n=c5 v=64
65578 Off ch=1 n=c5 v=64
65582 On ch=1 n=a#4 v=64
65598 Off ch=1 n=a#4 v=64
65602 On ch=1 n=g4 v=64
65618 Off ch=1 n=g4 v=64
65622 On ch=1 n=e4 v=64
65638 Off ch=1 n=e4 v=64
65642 On ch=1 n=g4 v=64
65658 Off ch=1 n=g4 v=64
65662 On ch=1 n=a#4 v=64
65678 Off ch=1 n=a#4 v=64
65682 On ch=1 n=c5 v=64
65698 Off ch=1 n=c5 v=64
65702 On ch=1 n=a#4 v=64
65718 Off ch=1 n=a#4 v=64
65722 On ch=1 n=g4 v=64
65738 Off ch=1 n=g4 v=64
65742 On ch=1 n=f4 v=64
65758 Off ch=1 n=f4 v=64
65762 On ch=1 n=g#4 v=64
65778 Off ch=1 n=g#4 v=64
65782 On ch=1 n=c5 v=64
65798 Off ch=1 n=c5 v=64
65802 On ch=1 n=f5 v=64
65818 Off ch=1 n=f5 v=64
65822 On ch=1 n=c5 v=64
65838 Off ch=1 n=c5 v=64
65842 On ch=1 n=g#4 v=64
65858 Off ch=1 n=g#4 v=64
65862 On ch=1 n=f4 v=64
65878 Off ch=1 n=f4 v=64
65882 On ch=1 n=g#4 v=64
65898 Off ch=1 n=g#4 v=64
65902 On ch=1 n=c#5 v=64
65918 Off ch=1 n=c#5 v=64
65922 On ch=1 n=f5 v=64
65938 Off ch=1 n=f5 v=64
65942 On ch=1 n=c#5 v=64
65958 Off ch=1 n=c#5 v=64
65962 On ch=1 n=g#4 v=64
65978 Off ch=1 n=g#4 v=64
65982 On ch=1 n=e4 v=64
65998 Off ch=1 n=e4 v=64
66002 On ch=1 n=g4 v=64
66018 Off ch=1 n=g4 v=64
66022 On ch=1 n=c5 v=64
66038 Off ch=1 n=c5 v=64
66042 On ch=1 n=e5 v=64
66058 Off ch=1 n=e5 v=64
66062 On ch=1 n=c5 v=64
66078 Off ch=1 n=c5 v=64
66082 On ch=1 n=g4 v=64
66098 Off ch=1 n=g4 v=64
66102 On ch=1 n=e4 v=64
66118 Off ch=1 n=e4 v=64
66122 On ch=1 n=g4 v=64
66138 Off ch=1 n=g4 v=64
66142 On ch=1 n=c5 v=64
66158 Off ch=1 n=c5 v=64
66162 On ch=1 n=e5 v=64
66178 Off ch=1 n=e5 v=64
66182 On ch=1 n=c5 v=64
66198 Off ch=1 n=c5 v=64
66202 On ch=1 n=g4 v=64
66218 Off ch=1 n=g4 v=64
66222 On ch=1 n=f4 v=64
66238 Off ch=1 n=f4 v=64
66242 On ch=1 n=g#4 v=64
66258 Off ch=1 n=g#4 v=64
66262 On ch=1 n=c5 v=64
66278 Off ch=1 n=c5 v=64
66282 On ch=1 n=f5 v=64
66298 Off ch=1 n=f5 v=64
66302 On ch=1 n=c5 v=64
66318 Off ch=1 n=c5 v=64
66322 On ch=1 n=g#4 v=64
66338 Off ch=1 n=g#4 v=64
66342 On ch=1 n=f4 v=64
66358 Off ch=1 n=f4 v=64
66362 On ch=1 n=g#4 v=64
66378 Off ch=1 n=g#4 v=64
66382 On ch=1 n=c#5 v=64
66398 Off ch=1 n=c#5 v=64
66402 On ch=1 n=f5 v=64
66418 Off ch=1 n=f5 v=64
66422 On ch=1 n=c#5 v=64
66438 Off ch=1 n=c#5 v=64
66442 On ch=1 n=g#4 v=64
66458 Off ch=1 n=g#4 v=64
66462 On ch=1 n=e4 v=64
66478 Off ch=1 n=e4 v=64
66482 On ch=1 n=g4 v=64
66498 Off ch=1 n=g4 v=64
66502 On ch=1 n=c5 v=64
66518 Off ch=1 n=c5 v=64
66522 On ch=1 n=e5 v=64
66538 Off ch=1 n=e5 v=64
66542 On ch=1 n=c5 v=64
66558 Off ch=1 n=c5 v=64
66562 On ch=1 n=g4 v=64
66578 Off ch=1 n=g4 v=64
66582 On ch=1 n=e4 v=64
66598 Off ch=1 n=e4 v=64
66602 On ch=1 n=g4 v=64
66618 Off ch=1 n=g4 v=64
66622 On ch=1 n=c5 v=64
66638 Off ch=1 n=c5 v=64
66642 On ch=1 n=e5 v=64
66658 Off ch=1 n=e5 v=64
66662 On ch=1 n=c5 v=64
66678 Off ch=1 n=c5 v=64
66682 On ch=1 n=g4 v=64
66698 Off ch=1 n=g4 v=64
66702 On ch=1 n=d#4 v=64
66718 Off ch=1 n=d#4 v=64
66722 On ch=1 n=f#4 v=64
66738 Off ch=1 n=f#4 v=64
66742 On ch=1 n=a4 v=64
66758 Off ch=1 n=a4 v=64
66762 On ch=1 n=c5 v=64
66778 Off ch=1 n=c5 v=64
66782 On ch=1 n=a4 v=64
66798 Off ch=1 n=a4 v=64
66802 On ch=1 n=f#4 v=64
66818 Off ch=1 n=f#4 v=64
66822 On ch=1 n=d#4 v=64
66838 Off ch=1 n=d#4 v=64
66842 On ch=1 n=f#4 v=64
66858 Off ch=1 n=f#4 v=64
66862 On ch=1 n=a4 v=64
66878 Off ch=1 n=a4 v=64
66882 On ch=1 n=c5 v=64
66898 Off ch=1 n=c5 v=64
66902 On ch=1 n=a4 v=64
66918 Off ch=1 n=a4 v=64
66922 On ch=1 n=f#4 v=64
66938 Off ch=1 n=f#4 v=64
66942 On ch=1 n=c#4 v=64
66958 Off ch=1 n=c#4 v=64
66962 On ch=1 n=f4 v=64
66978 Off ch=1 n=f4 v=64
66982 On ch=1 n=a#4 v=64
66998 Off ch=1 n=a#4 v=64
67002 On ch=1 n=c#5 v=64
67018 Off ch=1 n=c#5 v=64
67022 On ch=1 n=a#4 v=64
67038 Off ch=1 n=a#4 v=64
67042 On ch=1 n=f4 v=64
67058 Off ch=1 n=f4 v=64
67062 On ch=1 n=c#4 v=64
67078 Off ch=1 n=c#4 v=64
67082 On ch=1 n=g4 v=64
67098 Off ch=1 n=g4 v=64
67102 On ch=1 n=a#4 v=64
67118 Off ch=1 n=a#4 v=64
67122 On ch=1 n=c#5 v=64
67138 Off ch=1 n=c#5 v=64
67142 On ch=1 n=a#4 v=64
67158 Off ch=1 n=a#4 v=64
67162 On ch=1 n=g4 v=64
67178 Off ch=1 n=g4 v=64
67182 On ch=1 n=c4 v=64
67198 Off ch=1 n=c4 v=64
67202 On ch=1 n=d#4 v=64
67218 Off ch=1 n=d#4 v=64
67222 On ch=1 n=g#4 v=64
67238 Off ch=1 n=g#4 v=64
67242 On ch=1 n=c5 v=64
67258 Off ch=1 n=c5 v=64
67262 On ch=1 n=g#4 v=64
67278 Off ch=1 n=g#4 v=64
67282 On ch=1 n=d#4 v=64
67298 Off ch=1 n=d#4 v=64
67302 On ch=1 n=g3 v=64
67318 Off ch=1 n=g3 v=64
67322 On ch=1 n=a#3 v=64
67338 Off ch=1 n=a#3 v=64
67342 On ch=1 n=d#4 v=64
67358 Off ch=1 n=d#4 v=64
67362 On ch=1 n=g4 v=64
67378 Off ch=1 n=g4 v=64
67382 On ch=1 n=d#4 v=64
67398 Off ch=1 n=d#4 v=64
67402 On ch=1 n=a#3 v=64
67418 Off ch=1 n=a#3 v=64
67422 On ch=1 n=g#3 v=64
67438 Off ch=1 n=g#3 v=64
67442 On ch=1 n=c4 v=64
67458 Off ch=1 n=c4 v=64
67462 On ch=1 n=d#4 v=64
67478 Off ch=1 n=d#4 v=64
67482 On ch=1 n=g#4 v=64
67498 Off ch=1 n=g#4 v=64
67502 On ch=1 n=d#4 v=64
67518 Off ch=1 n=d#4 v=64
67522 On ch=1 n=c4 v=64
67538 Off ch=1 n=c4 v=64
67542 On ch=1 n=g#3 v=64
67558 Off ch=1 n=g#3 v=64
67562 On ch=1 n=c4 v=64
67578 Off ch=1 n=c4 v=64
67582 On ch=1 n=d#4 v=64
67598 Off ch=1 n=d#4 v=64
67602 On ch=1 n=g#4 v=64
67618 Off ch=1 n=g#4 v=64
67622 On ch=1 n=d#4 v=64
67638 Off ch=1 n=d#4 v=64
67642 On ch=1 n=c4 v=64
67658 Off ch=1 n=c4 v=64
67662 On ch=1 n=g#3 v=64
67678 Off ch=1 n=g#3 v=64
67682 On ch=1 n=c4 v=64
67698 Off ch=1 n=c4 v=64
67702 On ch=1 n=d#4 v=64
67718 Off ch=1 n=d#4 v=64
67722 On ch=1 n=g#4 v=64
67738 Off ch=1 n=g#4 v=64
67742 On ch=1 n=d#4 v=64
67758 Off ch=1 n=d#4 v=64
67762 On ch=1 n=c4 v=64
67778 Off ch=1 n=c4 v=64
67782 On ch=1 n=g#3 v=64
67798 Off ch=1 n=g#3 v=64
67802 On ch=1 n=c4 v=64
67818 Off ch=1 n=c4 v=64
67822 On ch=1 n=d#4 v=64
67838 Off ch=1 n=d#4 v=64
67842 On ch=1 n=g#4 v=64
67858 Off ch=1 n=g#4 v=64
67862 On ch=1 n=d#4 v=64
67878 Off ch=1 n=d#4 v=64
67882 On ch=1 n=c4 v=64
67898 Off ch=1 n=c4 v=64
67902 On ch=1 n=g#3 v=64
67918 Off ch=1 n=g#3 v=64
67922 On ch=1 n=c4 v=64
67938 Off ch=1 n=c4 v=64
67942 On ch=1 n=d#4 v=64
67958 Off ch=1 n=d#4 v=64
67962 On ch=1 n=g#4 v=64
67978 Off ch=1 n=g#4 v=64
67982 On ch=1 n=d#4 v=64
67998 Off ch=1 n=d#4 v=64
68002 On ch=1 n=c4 v=64
68018 Off ch=1 n=c4 v=64
68022 On ch=1 n=g#3 v=64
68038 Off ch=1 n=g#3 v=64
68042 On ch=1 n=c4 v=64
68058 Off ch=1 n=c4 v=64
68062 On ch=1 n=d#4 v=64
68078 Off ch=1 n=d#4 v=64
68082 On ch=1 n=g#4 v=64
68098 Off ch=1 n=g#4 v=64
68102 On ch=1 n=d#4 v=64
68118 Off ch=1 n=d#4 v=64
68122 On ch=1 n=c4 v=64
68138 Off ch=1 n=c4 v=64
68142 On ch=1 n=g3 v=64
68214 Off ch=1 n=g3 v=64
68232 On ch=1 n=g4 v=64
68256 Off ch=1 n=g4 v=64
68262 On ch=1 n=b4 v=64
68334 Off ch=1 n=b4 v=64
68352 On ch=1 n=f#4 v=64
68376 Off ch=1 n=f#4 v=64
68382 On ch=1 n=g4 v=64
68454 Off ch=1 n=g4 v=64
68472 On ch=1 n=d3 v=64
68496 Off ch=1 n=d3 v=64
68502 On ch=1 n=b2 v=64
68574 Off ch=1 n=b2 v=64
68592 On ch=1 n=g2 v=64
68616 Off ch=1 n=g2 v=64
68622 On ch=1 n=c3 v=64
68694 Off ch=1 n=c3 v=64
68712 On ch=1 n=g4 v=64
68736 Off ch=1 n=g4 v=64
68742 On ch=1 n=c5 v=64
68814 Off ch=1 n=c5 v=64
68832 On ch=1 n=f#4 v=64
68856 Off ch=1 n=f#4 v=64
68862 On ch=1 n=g4 v=64
68934 Off ch=1 n=g4 v=64
68952 On ch=1 n=g3 v=64
68976 Off ch=1 n=g3 v=64
68982 On ch=1 n=d#3 v=64
69054 Off ch=1 n=d#3 v=64
69072 On ch=1 n=c3 v=64
69096 Off ch=1 n=c3 v=64
69102 On ch=1 n=b2 v=64
69174 Off ch=1 n=b2 v=64
69192 On ch=1 n=g4 v=64
69216 Off ch=1 n=g4 v=64
69222 On ch=1 n=d5 v=64
69294 Off ch=1 n=d5 v=64
69312 On ch=1 n=f#4 v=64
69336 Off ch=1 n=f#4 v=64
69342 On ch=1 n=g4 v=64
69414 Off ch=1 n=g4 v=64
69432 On ch=1 n=d3 v=64
69456 Off ch=1 n=d3 v=64
69462 On ch=1 n=b2 v=64
69534 Off ch=1 n=b2 v=64
69552 On ch=1 n=g2 v=64
69576 Off ch=1 n=g2 v=64
69582 On ch=1 n=c3 v=64
69654 Off ch=1 n=c3 v=64
69672 On ch=1 n=g4 v=64
69696 Off ch=1 n=g4 v=64
69702 On ch=1 n=d#5 v=64
69774 Off ch=1 n=d#5 v=64
69792 On ch=1 n=b4 v=64
69816 Off ch=1 n=b4 v=64
69822 On ch=1 n=c5 v=64
69894 Off ch=1 n=c5 v=64
69912 On ch=1 n=g3 v=64
69936 Off ch=1 n=g3 v=64
69942 On ch=1 n=d#3 v=64
70014 Off ch=1 n=d#3 v=64
70032 On ch=1 n=c3 v=64
70056 Off ch=1 n=c3 v=64
70062 On ch=1 n=g3 v=80
70158 Off ch=1 n=g3 v=64
70242 On ch=1 n=g4 v=64
70258 Off ch=1 n=g4 v=64
70262 On ch=1 n=d4 v=64
70278 Off ch=1 n=d4 v=64
70282 On ch=1 n=b3 v=64
70298 Off ch=1 n=b3 v=64
70302 On ch=1 n=g3 v=64
70318 Off ch=1 n=g3 v=64
70322 On ch=1 n=d3 v=64
70338 Off ch=1 n=d3 v=64
70342 On ch=1 n=b2 v=64
70358 Off ch=1 n=b2 v=64
70362 On ch=1 n=g2 v=64
70394 Off ch=1 n=g2 v=64
70402 On ch=1 n=b2 v=64
70434 Off ch=1 n=b2 v=64
70442 On ch=1 n=d3 v=64
70474 Off ch=1 n=d3 v=64
70482 On ch=1 n=g3 v=64
70514 Off ch=1 n=g3 v=64
70522 On ch=1 n=b3 v=64
70554 Off ch=1 n=b3 v=64
70562 On ch=1 n=d4 v=64
70594 Off ch=1 n=d4 v=64
71022 On ch=1 n=c3 v=64
71030 Off ch=1 n=c3 v=64
71032 On ch=1 n=d#3 v=64
71040 Off ch=1 n=d#3 v=64
71042 On ch=1 n=g3 v=64
71050 Off ch=1 n=g3 v=64
71052 On ch=1 n=c4 v=64
71060 Off ch=1 n=c4 v=64
71062 On ch=1 n=d#4 v=64
71070 Off ch=1 n=d#4 v=64
71072 On ch=1 n=g4 v=64
71080 Off ch=1 n=g4 v=64
71502 On ch=1 n=b4 v=64
71502 On ch=1 n=d4 v=64
71502 On ch=1 n=g#4 v=64
71502 On ch=1 n=f4 v=64
71694 Off ch=1 n=f4 v=64
71694 Off ch=1 n=g#4 v=64
71694 Off ch=1 n=d4 v=64
71694 Off ch=1 n=b4 v=64
71982 On ch=1 n=d#4 v=64
71982 On ch=1 n=c5 v=64
71982 On ch=1 n=g4 v=64
72174 Off ch=1 n=g4 v=64
72174 Off ch=1 n=c5 v=64
72174 Off ch=1 n=d#4 v=64
72462 On ch=1 n=d#5 v=64
72462 On ch=1 n=c5 v=64
72846 Off ch=1 n=d#5 v=64
73134 Off ch=1 n=c5 v=64
73182 On ch=1 n=f5 v=64
73374 Off ch=1 n=f5 v=64
73422 On ch=1 n=d5 v=64
73614 Off ch=1 n=d5 v=64
73662 On ch=1 n=b4 v=64
73854 Off ch=1 n=b4 v=64
73902 On ch=1 n=c5 v=64
73902 On ch=1 n=c4 v=64
74094 Off ch=1 n=c4 v=64
74094 Off ch=1 n=c5 v=64
74397 On ch=1 n=d#4 v=64
74409 Off ch=1 n=d#4 v=64
74412 On ch=1 n=f4 v=64
74424 Off ch=1 n=f4 v=64
74427 On ch=1 n=d#4 v=64
74439 Off ch=1 n=d#4 v=64
74442 On ch=1 n=d4 v=64
74454 Off ch=1 n=d4 v=64
74457 On ch=1 n=d#4 v=64
74469 Off ch=1 n=d#4 v=64
74472 On ch=1 n=f4 v=64
74484 Off ch=1 n=f4 v=64
74487 On ch=1 n=g4 v=64
74499 Off ch=1 n=g4 v=64
74862 On ch=1 n=g#2 v=64
74862 On ch=1 n=g#3 v=64
75054 Off ch=1 n=g#3 v=64
75054 Off ch=1 n=g#2 v=64
75102 On ch=1 n=c3 v=64
75102 On ch=1 n=c4 v=64
75294 Off ch=1 n=c4 v=64
75294 Off ch=1 n=c3 v=64
75342 On ch=1 n=a#3 v=64
75342 On ch=1 n=a#2 v=64
75726 Off ch=1 n=a#2 v=64
75726 Off ch=1 n=a#3 v=64
75822 On ch=1 n=d#3 v=64
75822 On ch=1 n=d#4 v=64
76014 Off ch=1 n=d#4 v=64
76014 Off ch=1 n=d#3 v=64
76302 On ch=1 n=d#3 v=64
76310 Off ch=1 n=d#3 v=64
76312 On ch=1 n=g3 v=64
76320 Off ch=1 n=g3 v=64
76322 On ch=1 n=a#3 v=64
76330 Off ch=1 n=a#3 v=64
76332 On ch=1 n=d#4 v=64
76340 Off ch=1 n=d#4 v=64
76342 On ch=1 n=g4 v=64
76350 Off ch=1 n=g4 v=64
76352 On ch=1 n=a#4 v=64
76360 Off ch=1 n=a#4 v=64
76542 On ch=1 n=d#5 v=80
76602 On ch=1 n=c6 v=64
76650 Off ch=1 n=c6 v=64
76662 On ch=1 n=a#5 v=64
76710 Off ch=1 n=a#5 v=64
76722 On ch=1 n=a5 v=64
76734 Off ch=1 n=d#5 v=64
76770 Off ch=1 n=a5 v=64
76782 On ch=1 n=a#5 v=64
76782 On ch=1 n=d5 v=64
77118 Off ch=1 n=a#5 v=64
77118 Off ch=1 n=d5 v=64
77262 On ch=1 n=c3 v=64
77270 Off ch=1 n=c3 v=64
77272 On ch=1 n=d#3 v=64
77280 Off ch=1 n=d#3 v=64
77282 On ch=1 n=g3 v=64
77290 Off ch=1 n=g3 v=64
77292 On ch=1 n=c4 v=64
77300 Off ch=1 n=c4 v=64
77302 On ch=1 n=d#4 v=64
77310 Off ch=1 n=d#4 v=64
77312 On ch=1 n=g4 v=64
77320 Off ch=1 n=g4 v=64
77502 On ch=1 n=c5 v=64
77694 Off ch=1 n=c5 v=64
77742 On ch=1 n=b4 v=64
77742 On ch=1 n=g5 v=64
77934 Off ch=1 n=b4 v=64
77982 On ch=1 n=a#4 v=64
78078 Off ch=1 n=a#4 v=64
78078 Off ch=1 n=g5 v=64
78222 On ch=1 n=g#2 v=64
78230 Off ch=1 n=g#2 v=64
78232 On ch=1 n=c3 v=64
78240 Off ch=1 n=c3 v=64
78242 On ch=1 n=d#3 v=64
78250 Off ch=1 n=d#3 v=64
78252 On ch=1 n=g#3 v=64
78260 Off ch=1 n=g#3 v=64
78262 On ch=1 n=c4 v=64
78270 Off ch=1 n=c4 v=64
78272 On ch=1 n=d#4 v=64
78280 Off ch=1 n=d#4 v=64
78462 On ch=1 n=g#4 v=64
78654 Off ch=1 n=g#4 v=64
78702 On ch=1 n=g4 v=64
78702 On ch=1 n=d#5 v=64
78894 Off ch=1 n=d#5 v=64
78894 Off ch=1 n=g4 v=64
78942 On ch=1 n=a#4 v=64
78942 On ch=1 n=g4 v=64
78942 On ch=1 n=d#5 v=64
79038 Off ch=1 n=d#5 v=64
79038 Off ch=1 n=g4 v=64
79038 Off ch=1 n=a#4 v=64
79182 On ch=1 n=f4 v=64
79182 On ch=1 n=a#4 v=64
79182 On ch=1 n=d5 v=64
79278 Off ch=1 n=d5 v=64
79278 Off ch=1 n=a#4 v=64
79278 Off ch=1 n=f4 v=64
79422 On ch=1 n=d#4 v=64
79422 On ch=1 n=d#5 v=64
79422 On ch=1 n=a#4 v=64
79518 Off ch=1 n=a#4 v=64
79518 Off ch=1 n=d#5 v=64
79518 Off ch=1 n=d#4 v=64
79662 On ch=1 n=g4 v=64
79662 On ch=1 n=a#3 v=64
79662 On ch=1 n=d#4 v=64
79854 Off ch=1 n=d#4 v=64
79854 Off ch=1 n=a#3 v=64
79854 Off ch=1 n=g4 v=64
79902 On ch=1 n=f4 v=64
79902 On ch=1 n=d4 v=64
79902 On ch=1 n=a#3 v=64
79998 Off ch=1 n=a#3 v=64
79998 Off ch=1 n=d4 v=64
79998 Off ch=1 n=f4 v=64
80142 On ch=1 n=c3 v=64
80150 Off ch=1 n=c3 v=64
80152 On ch=1 n=d#3 v=64
80160 Off ch=1 n=d#3 v=64
80162 On ch=1 n=g3 v=64
80170 Off ch=1 n=g3 v=64
80172 On ch=1 n=c4 v=64
80180 Off ch=1 n=c4 v=64
80182 On ch=1 n=d#4 v=64
80190 Off ch=1 n=d#4 v=64
80192 On ch=1 n=g4 v=64
80200 Off ch=1 n=g4 v=64
80382 On ch=1 n=c5 v=64
80574 Off ch=1 n=c5 v=64
80622 On ch=1 n=g5 v=64
80622 On ch=1 n=b4 v=64
80814 Off ch=1 n=b4 v=64
80862 On ch=1 n=a#4 v=64
80958 Off ch=1 n=g5 v=64
80958 Off ch=1 n=a#4 v=64
81102 On ch=1 n=g#2 v=64
81110 Off ch=1 n=g#2 v=64
81112 On ch=1 n=c3 v=64
81120 Off ch=1 n=c3 v=64
81122 On ch=1 n=d#3 v=64
81130 Off ch=1 n=d#3 v=64
81132 On ch=1 n=g#3 v=64
81140 Off ch=1 n=g#3 v=64
81142 On ch=1 n=c4 v=64
81150 Off ch=1 n=c4 v=64
81152 On ch=1 n=d#4 v=64
81160 Off ch=1 n=d#4 v=64
81342 On ch=1 n=g#4 v=64
81534 Off ch=1 n=g#4 v=64
81582 On ch=1 n=d#5 v=64
81582 On ch=1 n=g4 v=64
81918 Off ch=1 n=d#5 v=64
81918 Off ch=1 n=g4 v=64
82062 On ch=1 n=f2 v=64
82070 Off ch=1 n=f2 v=64
82072 On ch=1 n=g#2 v=64
82080 Off ch=1 n=g#2 v=64
82082 On ch=1 n=c3 v=64
82090 Off ch=1 n=c3 v=64
82092 On ch=1 n=f3 v=64
82100 Off ch=1 n=f3 v=64
82102 On ch=1 n=g#3 v=64
82110 Off ch=1 n=g#3 v=64
82112 On ch=1 n=c4 v=64
82120 Off ch=1 n=c4 v=64
82302 On ch=1 n=f4 v=80
82494 Off ch=1 n=f4 v=64
82542 On ch=1 n=e4 v=64
82734 Off ch=1 n=e4 v=64
82782 On ch=1 n=d#4 v=64
82974 Off ch=1 n=d#4 v=64
83022 On ch=1 n=d3 v=64
83022 On ch=1 n=d4 v=64
83406 Off ch=1 n=d4 v=64
83406 Off ch=1 n=d3 v=64
83502 On ch=1 n=g3 v=64
83502 On ch=1 n=g4 v=64
83886 Off ch=1 n=g4 v=64
83886 Off ch=1 n=g3 v=64
83982 On ch=1 n=c3 v=80
83982 On ch=1 n=c4 v=80
84366 Off ch=1 n=c4 v=64
84366 Off ch=1 n=c3 v=64
84462 On ch=1 n=g#4 v=64
84462 On ch=1 n=c5 v=64
84462 On ch=1 n=f4 v=64
84846 Off ch=1 n=f4 v=64
84846 Off ch=1 n=c5 v=64
84846 Off ch=1 n=g#4 v=64
84942 On ch=1 n=g4 v=64
85134 Off ch=1 n=g4 v=64
85182 On ch=1 n=g3 v=64
85278 Off ch=1 n=g3 v=64
85542 On ch=1 n=c4 v=64
85734 Off ch=1 n=c4 v=64
85782 On ch=1 n=c4 v=64
85974 Off ch=1 n=c4 v=64
86022 On ch=1 n=c4 v=64
86214 Off ch=1 n=c4 v=64
86262 On ch=1 n=c4 v=64
86358 Off ch=1 n=c4 v=64
86502 On ch=1 n=c4 v=64
86694 Off ch=1 n=c4 v=64
86742 On ch=1 n=c4 v=64
86934 Off ch=1 n=c4 v=64
86982 On ch=1 n=c4 v=64
87174 Off ch=1 n=c4 v=64
87222 On ch=1 n=c4 v=80
87318 Off ch=1 n=c4 v=64
87462 On ch=1 n=b3 v=64
87654 Off ch=1 n=b3 v=64
87702 On ch=1 n=b3 v=64
87894 Off ch=1 n=b3 v=64
87942 On ch=1 n=b3 v=64
88134 Off ch=1 n=b3 v=64
88182 On ch=1 n=b3 v=64
88278 Off ch=1 n=b3 v=64
88302 On ch=1 n=c3 v=64
88398 Off ch=1 n=c3 v=64
88542 On ch=1 n=g4 v=64
88542 On ch=1 n=c4 v=64
88542 On ch=1 n=c5 v=64
88542 On ch=1 n=e4 v=64
88638 Off ch=1 n=e4 v=64
88638 Off ch=1 n=c5 v=64
88638 Off ch=1 n=c4 v=64
88638 Off ch=1 n=g4 v=64
88782 On ch=1 n=d5 v=64
88974 Off ch=1 n=d5 v=64
89022 On ch=1 n=g4 v=64
89118 Off ch=1 n=g4 v=64
89262 On ch=1 n=c3 v=64
89262 On ch=1 n=c4 v=64
89358 Off ch=1 n=c4 v=64
89358 Off ch=1 n=c3 v=64
89502 On ch=1 n=e3 v=64
89502 On ch=1 n=e4 v=64
89598 Off ch=1 n=e4 v=64
89598 Off ch=1 n=e3 v=64
89742 On ch=1 n=d4 v=64
89934 Off ch=1 n=d4 v=64
89982 On ch=1 n=f4 v=64
90006 Off ch=1 n=f4 v=64
90012 On ch=1 n=e4 v=64
90036 Off ch=1 n=e4 v=64
90042 On ch=1 n=d4 v=64
90066 Off ch=1 n=d4 v=64
90072 On ch=1 n=c4 v=64
90096 Off ch=1 n=c4 v=64
90102 On ch=1 n=b3 v=64
90126 Off ch=1 n=b3 v=64
90132 On ch=1 n=a3 v=64
90156 Off ch=1 n=a3 v=64
90162 On ch=1 n=g3 v=64
90186 Off ch=1 n=g3 v=64
90192 On ch=1 n=f3 v=64
90216 Off ch=1 n=f3 v=64
90222 On ch=1 n=e3 v=64
90234 Off ch=1 n=e3 v=64
90237 On ch=1 n=g3 v=64
90249 Off ch=1 n=g3 v=64
90252 On ch=1 n=f3 v=64
90264 Off ch=1 n=f3 v=64
90267 On ch=1 n=e3 v=64
90279 Off ch=1 n=e3 v=64
90282 On ch=1 n=f3 v=64
90294 Off ch=1 n=f3 v=64
90297 On ch=1 n=g3 v=64
90309 Off ch=1 n=g3 v=64
90312 On ch=1 n=a3 v=64
90324 Off ch=1 n=a3 v=64
90327 On ch=1 n=b3 v=64
90339 Off ch=1 n=b3 v=64
90342 On ch=1 n=c4 v=64
90354 Off ch=1 n=c4 v=64
90357 On ch=1 n=d4 v=64
90369 Off ch=1 n=d4 v=64
90372 On ch=1 n=e4 v=64
90384 Off ch=1 n=e4 v=64
90387 On ch=1 n=f4 v=64
90399 Off ch=1 n=f4 v=64
90402 On ch=1 n=g4 v=64
90414 Off ch=1 n=g4 v=64
90417 On ch=1 n=a4 v=64
90429 Off ch=1 n=a4 v=64
90432 On ch=1 n=b4 v=64
90444 Off ch=1 n=b4 v=64
90447 On ch=1 n=c5 v=64
90459 Off ch=1 n=c5 v=64
90702 On ch=1 n=g4 v=64
90894 Off ch=1 n=g4 v=64
90942 On ch=1 n=c4 v=64
91038 Off ch=1 n=c4 v=64
91182 On ch=1 n=f3 v=64
91278 Off ch=1 n=f3 v=64
91422 On ch=1 n=a3 v=64
91422 On ch=1 n=f3 v=64
91518 Off ch=1 n=f3 v=64
91518 Off ch=1 n=a3 v=64
91662 On ch=1 n=d4 v=64
91662 On ch=1 n=f3 v=64
91662 On ch=1 n=a3 v=64
91758 Off ch=1 n=a3 v=64
91758 Off ch=1 n=f3 v=64
91758 Off ch=1 n=d4 v=64
91902 On ch=1 n=a3 v=64
91902 On ch=1 n=f3 v=64
91902 On ch=1 n=d4 v=64
91902 On ch=1 n=f4 v=64
91998 Off ch=1 n=f4 v=64
91998 Off ch=1 n=d4 v=64
91998 Off ch=1 n=f3 v=64
91998 Off ch=1 n=a3 v=64
92202 On ch=1 n=e4 v=64
92202 On ch=1 n=c4 v=64
92202 On ch=1 n=g3 v=64
92229 Off ch=1 n=g3 v=64
92229 Off ch=1 n=c4 v=64
92229 Off ch=1 n=e4 v=64
92262 On ch=1 n=e4 v=64
92262 On ch=1 n=c4 v=64
92262 On ch=1 n=g3 v=64
92289 Off ch=1 n=g3 v=64
92289 Off ch=1 n=c4 v=64
92289 Off ch=1 n=e4 v=64
92322 On ch=1 n=e4 v=64
92322 On ch=1 n=c4 v=64
92322 On ch=1 n=g3 v=64
92349 Off ch=1 n=g3 v=64
92349 Off ch=1 n=c4 v=64
92349 Off ch=1 n=e4 v=64
92382 On ch=1 n=e4 v=64
92382 On ch=1 n=c4 v=64
92382 On ch=1 n=g3 v=64
92478 Off ch=1 n=g3 v=64
92478 Off ch=1 n=c4 v=64
92478 Off ch=1 n=e4 v=64
92622 On ch=1 n=c4 v=64
92622 On ch=1 n=e4 v=64
92622 On ch=1 n=g3 v=64
92718 Off ch=1 n=g3 v=64
92718 Off ch=1 n=e4 v=64
92718 Off ch=1 n=c4 v=64
92862 On ch=1 n=e4 v=64
92862 On ch=1 n=c4 v=64
92862 On ch=1 n=g3 v=64
92958 Off ch=1 n=g3 v=64
92958 Off ch=1 n=c4 v=64
92958 Off ch=1 n=e4 v=64
93102 On ch=1 n=d4 v=64
93102 On ch=1 n=c4 v=64
93102 On ch=1 n=g3 v=64
93198 Off ch=1 n=g3 v=64
93198 Off ch=1 n=c4 v=64
93198 Off ch=1 n=d4 v=64
93342 On ch=1 n=d4 v=64
93342 On ch=1 n=c4 v=64
93342 On ch=1 n=g3 v=64
93438 Off ch=1 n=g3 v=64
93438 Off ch=1 n=c4 v=64
93438 Off ch=1 n=d4 v=64
93582 On ch=1 n=c4 v=64
93582 On ch=1 n=f4 v=64
93582 On ch=1 n=g3 v=64
93678 Off ch=1 n=g3 v=64
93678 Off ch=1 n=f4 v=64
93678 Off ch=1 n=c4 v=64
93702 On ch=1 n=f4 v=64
93702 On ch=1 n=c4 v=64
93702 On ch=1 n=g3 v=64
93798 Off ch=1 n=g3 v=64
93798 Off ch=1 n=c4 v=64
93798 Off ch=1 n=f4 v=64
93822 On ch=1 n=b3 v=64
93822 On ch=1 n=f4 v=64
93822 On ch=1 n=g3 v=64
93918 Off ch=1 n=g3 v=64
93918 Off ch=1 n=f4 v=64
93918 Off ch=1 n=b3 v=64
93942 On ch=1 n=b3 v=64
93942 On ch=1 n=f4 v=64
93942 On ch=1 n=g3 v=64
94038 Off ch=1 n=g3 v=64
94038 Off ch=1 n=f4 v=64
94038 Off ch=1 n=b3 v=64
94062 On ch=1 n=e4 v=64
94062 On ch=1 n=c4 v=64
94158 Off ch=1 n=c4 v=64
94158 Off ch=1 n=e4 v=64
94302 On ch=1 n=b2 v=64
94302 On ch=1 n=b3 v=64
94494 Off ch=1 n=b3 v=64
94494 Off ch=1 n=b2 v=64
94542 On ch=1 n=c3 v=64
94542 On ch=1 n=c4 v=64
94638 Off ch=1 n=c4 v=64
94638 Off ch=1 n=c3 v=64
94662 On ch=1 n=f3 v=64
94758 Off ch=1 n=f3 v=64
94782 On ch=1 n=g3 v=64
94878 Off ch=1 n=g3 v=64
94902 On ch=1 n=g3 v=64
94998 Off ch=1 n=g3 v=64
95022 On ch=1 n=c4 v=64
95022 On ch=1 n=c5 v=64
95214 Off ch=1 n=c5 v=64
95214 Off ch=1 n=c4 v=64
95262 On ch=1 n=b4 v=64
95280 Off ch=1 n=b4 v=64
95302 On ch=1 n=g5 v=64
95320 Off ch=1 n=g5 v=64
95342 On ch=1 n=f#5 v=64
95360 Off ch=1 n=f#5 v=64
95382 On ch=1 n=f5 v=64
95400 Off ch=1 n=f5 v=64
95422 On ch=1 n=e5 v=64
95440 Off ch=1 n=e5 v=64
95462 On ch=1 n=d#5 v=64
95480 Off ch=1 n=d#5 v=64
95502 On ch=1 n=c5 v=64
95502 On ch=1 n=e5 v=64
95598 Off ch=1 n=e5 v=64
95598 Off ch=1 n=c5 v=64
95622 On ch=1 n=f4 v=64
95718 Off ch=1 n=f4 v=64
95742 On ch=1 n=g4 v=64
95838 Off ch=1 n=g4 v=64
95862 On ch=1 n=g3 v=64
95958 Off ch=1 n=g3 v=64
95982 On ch=1 n=c4 v=64
96078 Off ch=1 n=c4 v=64
96342 On ch=1 n=g3 v=64
96342 On ch=1 n=g2 v=64
96396 Off ch=1 n=g2 v=64
96396 Off ch=1 n=g3 v=64
96462 On ch=1 n=c3 v=64
96462 On ch=1 n=c4 v=64
96798 Off ch=1 n=c4 v=64
96798 Off ch=1 n=c3 v=64
96798 Meta TrkEnd
TrkEnd
MTrk
0 Meta TrkName "lh"
1440 On ch=1 n=g#4 v=64
1632 Off ch=1 n=g#4 v=64
1680 On ch=1 n=g4 v=64
1872 Off ch=1 n=g4 v=64
6060 On ch=1 n=g#6 v=64
6108 Off ch=1 n=g#6 v=64
6120 On ch=1 n=g6 v=64
6168 Off ch=1 n=g6 v=64
6180 On ch=1 n=f#6 v=64
6228 Off ch=1 n=f#6 v=64
6240 On ch=1 n=g6 v=64
6576 Off ch=1 n=g6 v=64
7020 On ch=1 n=f6 v=64
7068 Off ch=1 n=f6 v=64
7080 On ch=1 n=d#6 v=64
7128 Off ch=1 n=d#6 v=64
7140 On ch=1 n=d6 v=64
7188 Off ch=1 n=d6 v=64
7200 On ch=1 n=d#6 v=64
7536 Off ch=1 n=d#6 v=64
7980 On ch=1 n=c#6 v=64
8028 Off ch=1 n=c#6 v=64
8040 On ch=1 n=c6 v=64
8088 Off ch=1 n=c6 v=64
8100 On ch=1 n=b5 v=64
8148 Off ch=1 n=b5 v=64
9900 On ch=1 n=g#5 v=64
9948 Off ch=1 n=g#5 v=64
9960 On ch=1 n=g5 v=64
10008 Off ch=1 n=g5 v=64
10020 On ch=1 n=f#5 v=64
10068 Off ch=1 n=f#5 v=64
10800 On ch=1 n=g#4 v=80
10992 Off ch=1 n=g#4 v=64
15480 On ch=1 n=d#3 v=64
15576 Off ch=1 n=d#3 v=64
15600 On ch=1 n=g3 v=64
15696 Off ch=1 n=g3 v=64
15720 On ch=1 n=a#3 v=64
15816 Off ch=1 n=a#3 v=64
15840 On ch=1 n=g3 v=64
15936 Off ch=1 n=g3 v=64
15960 On ch=1 n=d#3 v=64
16056 Off ch=1 n=d#3 v=64
16080 On ch=1 n=a#3 v=64
16176 Off ch=1 n=a#3 v=64
16200 On ch=1 n=g3 v=64
16296 Off ch=1 n=g3 v=64
16440 On ch=1 n=d#3 v=64
16536 Off ch=1 n=d#3 v=64
16560 On ch=1 n=g#3 v=64
16656 Off ch=1 n=g#3 v=64
16680 On ch=1 n=c4 v=64
16776 Off ch=1 n=c4 v=64
16800 On ch=1 n=g#3 v=64
16896 Off ch=1 n=g#3 v=64
16920 On ch=1 n=d#3 v=64
17016 Off ch=1 n=d#3 v=64
17040 On ch=1 n=c4 v=64
17136 Off ch=1 n=c4 v=64
17160 On ch=1 n=g#3 v=64
17256 Off ch=1 n=g#3 v=64
17400 On ch=1 n=d#3 v=64
17496 Off ch=1 n=d#3 v=64
17520 On ch=1 n=f3 v=64
17616 Off ch=1 n=f3 v=64
17640 On ch=1 n=g#3 v=64
17736 Off ch=1 n=g#3 v=64
17760 On ch=1 n=f3 v=64
17856 Off ch=1 n=f3 v=64
17880 On ch=1 n=d#3 v=64
17976 Off ch=1 n=d#3 v=64
18000 On ch=1 n=g#3 v=64
18096 Off ch=1 n=g#3 v=64
18120 On ch=1 n=f3 v=64
18216 Off ch=1 n=f3 v=64
19920 On ch=1 n=a#3 v=80
20016 Off ch=1 n=a#3 v=64
20160 On ch=1 n=d#3 v=80
20256 Off ch=1 n=d#3 v=64
28320 On ch=1 n=g#4 v=64
28512 Off ch=1 n=g#4 v=64
28560 On ch=1 n=g4 v=64
28752 Off ch=1 n=g4 v=64
28800 On ch=1 n=f4 v=64
29184 Off ch=1 n=f4 v=64
29280 On ch=1 n=g4 v=64
29664 Off ch=1 n=g4 v=64
32940 On ch=1 n=g#6 v=64
32988 Off ch=1 n=g#6 v=64
33000 On ch=1 n=g6 v=64
33048 Off ch=1 n=g6 v=64
33060 On ch=1 n=f#6 v=64
33108 Off ch=1 n=f#6 v=64
33120 On ch=1 n=g6 v=64
33456 Off ch=1 n=g6 v=64
33900 On ch=1 n=f6 v=64
33948 Off ch=1 n=f6 v=64
33960 On ch=1 n=d#6 v=64
34008 Off ch=1 n=d#6 v=64
34020 On ch=1 n=d6 v=64
34068 Off ch=1 n=d6 v=64
34080 On ch=1 n=d#6 v=64
34416 Off ch=1 n=d#6 v=64
34860 On ch=1 n=c#6 v=64
34908 Off ch=1 n=c#6 v=64
34920 On ch=1 n=c6 v=64
34968 Off ch=1 n=c6 v=64
34980 On ch=1 n=b5 v=64
35028 Off ch=1 n=b5 v=64
36780 On ch=1 n=g#5 v=64
36828 Off ch=1 n=g#5 v=64
36840 On ch=1 n=g5 v=64
36888 Off ch=1 n=g5 v=64
36900 On ch=1 n=f#5 v=64
36948 Off ch=1 n=f#5 v=64
37680 On ch=1 n=g#4 v=80
37872 Off ch=1 n=g#4 v=64
42360 On ch=1 n=d#3 v=64
42456 Off ch=1 n=d#3 v=64
42480 On ch=1 n=g3 v=64
42576 Off ch=1 n=g3 v=64
42600 On ch=1 n=a#3 v=64
42696 Off ch=1 n=a#3 v=64
42720 On ch=1 n=g3 v=64
42816 Off ch=1 n=g3 v=64
42840 On ch=1 n=d#3 v=64
42936 Off ch=1 n=d#3 v=64
42960 On ch=1 n=a#3 v=64
43056 Off ch=1 n=a#3 v=64
43080 On ch=1 n=g3 v=64
43176 Off ch=1 n=g3 v=64
43320 On ch=1 n=d#3 v=64
43416 Off ch=1 n=d#3 v=64
43440 On ch=1 n=g#3 v=64
43536 Off ch=1 n=g#3 v=64
43560 On ch=1 n=c4 v=64
43656 Off ch=1 n=c4 v=64
43680 On ch=1 n=g#3 v=64
43776 Off ch=1 n=g#3 v=64
43800 On ch=1 n=d#3 v=64
43896 Off ch=1 n=d#3 v=64
43920 On ch=1 n=c4 v=64
44016 Off ch=1 n=c4 v=64
44040 On ch=1 n=g#3 v=64
44136 Off ch=1 n=g#3 v=64
44280 On ch=1 n=d#3 v=64
44376 Off ch=1 n=d#3 v=64
44400 On ch=1 n=f3 v=64
44496 Off ch=1 n=f3 v=64
44520 On ch=1 n=g#3 v=64
44616 Off ch=1 n=g#3 v=64
44640 On ch=1 n=f3 v=64
44736 Off ch=1 n=f3 v=64
44760 On ch=1 n=d#3 v=64
44856 Off ch=1 n=d#3 v=64
44880 On ch=1 n=g#3 v=64
44976 Off ch=1 n=g#3 v=64
45000 On ch=1 n=f3 v=64
45096 Off ch=1 n=f3 v=64
46800 On ch=1 n=a#3 v=80
46896 Off ch=1 n=a#3 v=64
47040 On ch=1 n=d#3 v=80
47136 Off ch=1 n=d#3 v=64
57120 On ch=1 n=d4 v=80
57504 Off ch=1 n=d4 v=64
70500 On ch=1 n=g3 v=64
70908 Off ch=1 n=g3 v=64
72480 On ch=1 n=g#4 v=64
72672 Off ch=1 n=g#4 v=64
72720 On ch=1 n=g4 v=64
72912 Off ch=1 n=g4 v=64
72960 On ch=1 n=f4 v=64
73344 Off ch=1 n=f4 v=64
73440 On ch=1 n=g4 v=64
73824 Off ch=1 n=g4 v=64
74400 On ch=1 n=g2 v=64
74400 On ch=1 n=g3 v=64
74736 Off ch=1 n=g3 v=64
74736 Off ch=1 n=g2 v=64
74820 On ch=1 n=d#3 v=64
74820 On ch=1 n=d#2 v=64
74868 Off ch=1 n=d#2 v=64
74868 Off ch=1 n=d#3 v=64
77580 On ch=1 n=g#5 v=64
77628 Off ch=1 n=g#5 v=64
77640 On ch=1 n=g5 v=64
77688 Off ch=1 n=g5 v=64
77700 On ch=1 n=f#5 v=64
77748 Off ch=1 n=f#5 v=64
78540 On ch=1 n=f5 v=64
78588 Off ch=1 n=f5 v=64
78600 On ch=1 n=d#5 v=64
78648 Off ch=1 n=d#5 v=64
78660 On ch=1 n=d5 v=80
78708 Off ch=1 n=d5 v=64
80460 On ch=1 n=g#5 v=64
80508 Off ch=1 n=g#5 v=64
80520 On ch=1 n=g5 v=64
80568 Off ch=1 n=g5 v=64
80580 On ch=1 n=f#5 v=64
80628 Off ch=1 n=f#5 v=64
81420 On ch=1 n=f5 v=64
81468 Off ch=1 n=f5 v=64
81480 On ch=1 n=d#5 v=64
81528 Off ch=1 n=d#5 v=64
81540 On ch=1 n=d5 v=64
81588 Off ch=1 n=d5 v=64
82380 On ch=1 n=c#5 v=64
82428 Off ch=1 n=c#5 v=64
82440 On ch=1 n=c5 v=64
82488 Off ch=1 n=c5 v=64
82500 On ch=1 n=b4 v=64
82548 Off ch=1 n=b4 v=64
85560 On ch=1 n=c3 v=64
85656 Off ch=1 n=c3 v=64
85680 On ch=1 n=e3 v=64
85776 Off ch=1 n=e3 v=64
85800 On ch=1 n=g3 v=64
85896 Off ch=1 n=g3 v=64
85920 On ch=1 n=e3 v=64
86016 Off ch=1 n=e3 v=64
86040 On ch=1 n=c3 v=64
86136 Off ch=1 n=c3 v=64
86160 On ch=1 n=g3 v=64
86256 Off ch=1 n=g3 v=64
86280 On ch=1 n=e3 v=64
86376 Off ch=1 n=e3 v=64
86520 On ch=1 n=c3 v=64
86616 Off ch=1 n=c3 v=64
86640 On ch=1 n=f3 v=64
86736 Off ch=1 n=f3 v=64
86760 On ch=1 n=a3 v=64
86856 Off ch=1 n=a3 v=64
86880 On ch=1 n=f3 v=64
86976 Off ch=1 n=f3 v=64
87000 On ch=1 n=c3 v=64
87096 Off ch=1 n=c3 v=64
87120 On ch=1 n=a3 v=64
87216 Off ch=1 n=a3 v=64
87240 On ch=1 n=f3 v=64
87336 Off ch=1 n=f3 v=64
87480 On ch=1 n=c3 v=64
87576 Off ch=1 n=c3 v=64
87600 On ch=1 n=d3 v=64
87696 Off ch=1 n=d3 v=64
87720 On ch=1 n=f3 v=64
87816 Off ch=1 n=f3 v=64
87840 On ch=1 n=d3 v=64
87936 Off ch=1 n=d3 v=64
87960 On ch=1 n=c3 v=64
88056 Off ch=1 n=c3 v=64
88080 On ch=1 n=f3 v=64
88176 Off ch=1 n=f3 v=64
88200 On ch=1 n=d3 v=64
88296 Off ch=1 n=d3 v=64
90000 On ch=1 n=g3 v=80
90096 Off ch=1 n=g3 v=64
90240 On ch=1 n=c3 v=80
90336 Off ch=1 n=c3 v=64
95280 On ch=1 n=b4 v=80
95472 Off ch=1 n=b4 v=64
95472 Meta TrkEnd
TrkEnd
MTrk
0 Meta TrkName "Fantasia in C-"
0 Meta TrkEnd
TrkEnd
MTrk
0 Meta TrkName "sequenzed by H. Heldstab"
0 Meta TrkEnd
TrkEnd
MTrk
0 Meta TrkName "haheldst@studi.unizh.ch"
0 Meta TrkEnd
TrkEnd
