MFile 1 18 480
MTrk
0 Tempo 500000
0 TimeSig 4/4 24 8
0 Meta TrkEnd
TrkEnd
MTrk
0 SeqSpec 43 00 01 00
0 Meta TrkName "PIANO                               "
0 TimeSig 4/4 24 8
0 SysEx f0 41 10 42 12 40 00 7f 00 41 f7
0 SysEx f0 41 10 42 12 40 00 04 64 58 f7
340 SysEx f0 41 10 42 12 40 01 30 03 0c f7
340 SysEx f0 41 10 42 12 40 01 33 50 3c f7
340 SysEx f0 41 10 42 12 40 01 34 3c 4f f7
744 Par ch=1 c=0 v=0
748 Par ch=1 c=32 v=1
752 PrCh ch=1 p=0
756 Par ch=1 c=7 v=100
948 Par ch=1 c=11 v=100
1140 Par ch=1 c=10 v=64
1332 Par ch=1 c=1 v=0
1332 Par ch=1 c=91 v=80
1350 Par ch=1 c=99 v=1
1354 Par ch=1 c=98 v=32
1358 Par ch=1 c=6 v=62
1362 Par ch=1 c=99 v=1
1366 Par ch=1 c=98 v=33
1370 Par ch=1 c=6 v=54
1374 Par ch=1 c=99 v=1
1378 Par ch=1 c=98 v=99
1382 Par ch=1 c=6 v=62
1386 Par ch=1 c=99 v=1
1390 Par ch=1 c=98 v=100
1394 Par ch=1 c=6 v=60
1398 Par ch=1 c=99 v=1
1402 Par ch=1 c=98 v=102
1406 Par ch=1 c=6 v=70
2708 On ch=1 n=d3 v=102
2826 Par ch=1 c=64 v=63
2848 Par ch=1 c=64 v=127
3108 On ch=1 n=f3 v=94
3414 On ch=1 n=a3 v=97
3638 On ch=1 n=d4 v=96
3882 On ch=1 n=f4 v=90
4114 On ch=1 n=a4 v=88
4322 On ch=1 n=d5 v=90
4330 On ch=1 n=a3 v=0
4332 On ch=1 n=f3 v=0
4352 On ch=1 n=f4 v=0
4404 On ch=1 n=a4 v=0
4530 On ch=1 n=a4 v=96
4580 On ch=1 n=d5 v=0
4748 On ch=1 n=f5 v=88
4834 On ch=1 n=a4 v=0
4962 On ch=1 n=d5 v=88
5026 On ch=1 n=f5 v=0
5164 On ch=1 n=a4 v=80
5356 On ch=1 n=f4 v=79
5456 On ch=1 n=d5 v=0
5480 On ch=1 n=d3 v=0
5524 On ch=1 n=a4 v=0
5574 On ch=1 n=d3 v=101
5618 On ch=1 n=f4 v=0
5646 On ch=1 n=d4 v=0
5878 On ch=1 n=f3 v=88
6124 On ch=1 n=a3 v=93
6322 On ch=1 n=d4 v=93
6384 On ch=1 n=a3 v=0
6524 On ch=1 n=f4 v=92
6628 On ch=1 n=f3 v=0
6718 On ch=1 n=a4 v=92
6836 On ch=1 n=f4 v=0
6926 On ch=1 n=d5 v=100
6996 On ch=1 n=a4 v=0
7120 On ch=1 n=a4 v=96
7190 On ch=1 n=d5 v=0
7328 On ch=1 n=f5 v=88
7388 On ch=1 n=a4 v=0
7404 On ch=1 n=d4 v=0
7494 On ch=1 n=d3 v=0
7538 On ch=1 n=d5 v=92
7616 On ch=1 n=f5 v=0
7742 On ch=1 n=a4 v=85
7826 On ch=1 n=d5 v=0
7934 On ch=1 n=f4 v=88
8024 On ch=1 n=a4 v=0
8154 On ch=1 n=d3 v=100
8164 On ch=1 n=f4 v=0
8436 On ch=1 n=g3 v=97
8566 Par ch=1 c=64 v=63
8600 Par ch=1 c=64 v=0
8636 On ch=1 n=a#3 v=106
8826 On ch=1 n=d4 v=102
8906 Par ch=1 c=64 v=63
8918 Par ch=1 c=64 v=127
9020 On ch=1 n=g4 v=92
9212 On ch=1 n=a#4 v=108
9300 On ch=1 n=g4 v=0
9354 On ch=1 n=a#4 v=0
9384 On ch=1 n=e5 v=100
9584 On ch=1 n=a#4 v=110
9644 On ch=1 n=e5 v=0
9774 On ch=1 n=a#4 v=0
9806 On ch=1 n=g5 v=97
10048 On ch=1 n=e5 v=91
10064 On ch=1 n=g5 v=0
10274 On ch=1 n=a#4 v=95
10282 On ch=1 n=d3 v=0
10296 On ch=1 n=e5 v=0
10302 On ch=1 n=a#3 v=0
10304 On ch=1 n=g3 v=0
10322 On ch=1 n=d4 v=0
10484 On ch=1 n=g4 v=89
10498 On ch=1 n=a#4 v=0
10600 On ch=1 n=g4 v=0
10684 On ch=1 n=d3 v=98
10892 On ch=1 n=g3 v=102
11062 On ch=1 n=a#3 v=108
11260 On ch=1 n=d4 v=102
11456 On ch=1 n=g4 v=90
11662 On ch=1 n=a#4 v=98
11768 On ch=1 n=g4 v=0
11850 On ch=1 n=a#4 v=0
11850 On ch=1 n=e5 v=101
12030 On ch=1 n=a#4 v=105
12120 On ch=1 n=e5 v=0
12210 On ch=1 n=a#4 v=0
12226 On ch=1 n=g5 v=90
12348 On ch=1 n=d4 v=0
12388 On ch=1 n=a#3 v=0
12442 On ch=1 n=d3 v=0
12442 On ch=1 n=e5 v=84
12446 On ch=1 n=g5 v=0
12468 On ch=1 n=g3 v=0
12658 On ch=1 n=a#4 v=80
12664 On ch=1 n=e5 v=0
12860 On ch=1 n=g4 v=75
12864 On ch=1 n=a#4 v=0
12994 On ch=1 n=g4 v=0
13080 On ch=1 n=c3 v=106
13286 Par ch=1 c=64 v=63
13312 Par ch=1 c=64 v=0
13388 On ch=1 n=f#3 v=91
13604 On ch=1 n=a3 v=91
13794 On ch=1 n=c4 v=101
13996 On ch=1 n=a4 v=84
14032 Par ch=1 c=64 v=63
14036 Par ch=1 c=64 v=127
14190 On ch=1 n=d5 v=98
14394 On ch=1 n=f#5 v=106
14470 On ch=1 n=d5 v=0
14574 On ch=1 n=d5 v=99
14664 On ch=1 n=f#5 v=0
14686 On ch=1 n=a4 v=0
14794 On ch=1 n=a5 v=89
14882 On ch=1 n=d5 v=0
15032 On ch=1 n=f#5 v=101
15186 On ch=1 n=a5 v=0
15228 On ch=1 n=d5 v=80
15386 On ch=1 n=c3 v=0
15394 On ch=1 n=a4 v=83
15436 On ch=1 n=a3 v=0
15446 On ch=1 n=f#3 v=0
15458 On ch=1 n=f#5 v=0
15458 On ch=1 n=c4 v=0
15554 On ch=1 n=d5 v=0
15604 On ch=1 n=c3 v=101
15682 On ch=1 n=a4 v=0
15836 On ch=1 n=f#3 v=92
16046 On ch=1 n=a3 v=99
16250 On ch=1 n=c4 v=101
16420 Par ch=1 c=64 v=63
16440 On ch=1 n=a4 v=96
16506 Par ch=1 c=64 v=127
16624 On ch=1 n=d5 v=100
16826 On ch=1 n=f#5 v=107
16898 On ch=1 n=d5 v=0
16902 On ch=1 n=a4 v=0
16934 On ch=1 n=c3 v=0
17008 On ch=1 n=d5 v=100
17098 On ch=1 n=f#5 v=0
17102 On ch=1 n=a3 v=0
17124 On ch=1 n=f#3 v=0
17134 On ch=1 n=c4 v=0
17212 On ch=1 n=a5 v=87
17264 On ch=1 n=d5 v=0
17438 On ch=1 n=f#5 v=101
17522 On ch=1 n=a5 v=0
17648 On ch=1 n=d5 v=84
17788 On ch=1 n=f#5 v=0
17888 On ch=1 n=a4 v=82
18024 On ch=1 n=d5 v=0
18144 On ch=1 n=a#3 v=101
18196 On ch=1 n=a4 v=0
18432 Par ch=1 c=64 v=63
18452 Par ch=1 c=64 v=0
18476 On ch=1 n=d4 v=92
18754 On ch=1 n=g4 v=92
18816 On ch=1 n=d4 v=0
18982 Par ch=1 c=64 v=63
18986 Par ch=1 c=64 v=127
18994 On ch=1 n=d5 v=94
19264 On ch=1 n=a5 v=84
19366 On ch=1 n=d5 v=0
19400 On ch=1 n=g4 v=0
19556 On ch=1 n=g5 v=91
19608 On ch=1 n=a#3 v=0
19716 On ch=1 n=a5 v=0
19800 On ch=1 n=a3 v=79
19970 Par ch=1 c=64 v=63
20040 On ch=1 n=c4 v=86
20046 Par ch=1 c=64 v=127
20226 On ch=1 n=f4 v=84
20394 On ch=1 n=c5 v=98
20460 On ch=1 n=g5 v=0
20600 On ch=1 n=g5 v=97
20730 On ch=1 n=c4 v=0
20774 On ch=1 n=a3 v=0
20814 On ch=1 n=f5 v=103
20868 On ch=1 n=c5 v=0
20942 On ch=1 n=g5 v=0
21020 On ch=1 n=g3 v=103
21038 Par ch=1 c=64 v=63
21078 On ch=1 n=f4 v=0
21162 Par ch=1 c=64 v=127
21246 On ch=1 n=a#3 v=97
21350 On ch=1 n=f5 v=0
21474 On ch=1 n=d#4 v=109
21666 On ch=1 n=a#4 v=105
21886 On ch=1 n=f5 v=94
21980 On ch=1 n=a#4 v=0
22124 On ch=1 n=d#5 v=103
22204 On ch=1 n=f5 v=0
22282 On ch=1 n=d#4 v=0
22296 On ch=1 n=a#3 v=0
22306 On ch=1 n=g3 v=0
22366 On ch=1 n=g#3 v=104
22526 Par ch=1 c=64 v=63
22538 Par ch=1 c=64 v=0
22604 On ch=1 n=b3 v=97
22648 Par ch=1 c=64 v=63
22662 Par ch=1 c=64 v=127
22730 On ch=1 n=d#5 v=0
22864 On ch=1 n=f4 v=102
23132 On ch=1 n=b4 v=89
23470 On ch=1 n=e5 v=96
23744 On ch=1 n=b4 v=0
23814 On ch=1 n=d5 v=101
23894 On ch=1 n=e5 v=0
24044 On ch=1 n=b3 v=0
24094 On ch=1 n=g#3 v=0
24156 On ch=1 n=d5 v=0
24190 On ch=1 n=a3 v=101
24264 On ch=1 n=f4 v=0
24580 On ch=1 n=c#4 v=94
24888 On ch=1 n=e4 v=97
24960 Par ch=1 c=64 v=63
24986 Par ch=1 c=64 v=0
25130 Par ch=1 c=64 v=63
25154 Par ch=1 c=64 v=127
25172 On ch=1 n=a4 v=75
25422 On ch=1 n=c#5 v=73
25610 On ch=1 n=c#5 v=0
25646 On ch=1 n=e5 v=76
25796 On ch=1 n=e5 v=0
25842 On ch=1 n=a5 v=73
26050 On ch=1 n=c#6 v=89
26072 On ch=1 n=a5 v=0
26148 On ch=1 n=c#6 v=0
26248 On ch=1 n=e6 v=88
26426 On ch=1 n=a6 v=94
26498 On ch=1 n=e6 v=0
26626 On ch=1 n=c#7 v=103
26676 On ch=1 n=a6 v=0
26824 On ch=1 n=e7 v=97
26894 On ch=1 n=c#7 v=0
27036 On ch=1 n=d#7 v=106
27116 On ch=1 n=e7 v=0
27282 On ch=1 n=e7 v=99
27416 On ch=1 n=d#7 v=0
27496 On ch=1 n=c7 v=101
27542 On ch=1 n=e7 v=0
27708 On ch=1 n=c#7 v=96
27730 On ch=1 n=c7 v=0
27874 On ch=1 n=c#7 v=0
27916 On ch=1 n=g#6 v=93
28124 On ch=1 n=g#6 v=0
28126 On ch=1 n=a6 v=84
28342 On ch=1 n=d#6 v=88
28348 On ch=1 n=a6 v=0
28594 On ch=1 n=e6 v=76
28606 On ch=1 n=d#6 v=0
28854 On ch=1 n=c6 v=83
28882 On ch=1 n=e6 v=0
28900 On ch=1 n=a3 v=0
28922 On ch=1 n=c#4 v=0
28940 On ch=1 n=e4 v=0
28972 On ch=1 n=a4 v=0
29144 On ch=1 n=c#6 v=86
29228 On ch=1 n=c6 v=0
29522 On ch=1 n=g#5 v=75
29900 On ch=1 n=g#5 v=0
29980 On ch=1 n=a5 v=60
30052 On ch=1 n=c#6 v=0
30824 On ch=1 n=a2 v=41
30856 On ch=1 n=a5 v=0
31774 Par ch=1 c=64 v=63
32532 Par ch=1 c=64 v=0
34318 On ch=1 n=a2 v=0
35944 On ch=1 n=d5 v=34
35952 Par ch=1 c=64 v=63
36010 On ch=1 n=f6 v=44
36012 Par ch=1 c=64 v=127
36492 On ch=1 n=d5 v=0
36934 On ch=1 n=f5 v=12
36950 On ch=1 n=a5 v=5
37092 On ch=1 n=f5 v=0
37098 On ch=1 n=a5 v=0
37608 On ch=1 n=a5 v=17
37614 On ch=1 n=f5 v=11
37788 On ch=1 n=f5 v=0
37788 On ch=1 n=a5 v=0
37954 On ch=1 n=f6 v=0
38162 On ch=1 n=a5 v=22
38166 On ch=1 n=f5 v=19
38330 On ch=1 n=a5 v=0
38358 On ch=1 n=f5 v=0
38490 On ch=1 n=e6 v=51
38590 On ch=1 n=f6 v=55
38602 On ch=1 n=e6 v=0
38766 On ch=1 n=g6 v=58
38774 On ch=1 n=f6 v=0
38774 On ch=1 n=d5 v=36
38908 Par ch=1 c=64 v=63
38988 Par ch=1 c=64 v=127
39494 On ch=1 n=f6 v=51
39504 On ch=1 n=a5 v=19
39508 On ch=1 n=f5 v=18
39522 On ch=1 n=g6 v=0
39732 On ch=1 n=a5 v=0
39762 On ch=1 n=f6 v=0
39764 On ch=1 n=f5 v=0
40080 On ch=1 n=e6 v=61
40082 On ch=1 n=a5 v=20
40090 On ch=1 n=f5 v=22
40346 On ch=1 n=a5 v=0
40348 On ch=1 n=f5 v=0
40616 On ch=1 n=d6 v=60
40646 On ch=1 n=a5 v=24
40650 On ch=1 n=f5 v=24
40702 On ch=1 n=e6 v=0
40832 On ch=1 n=a5 v=0
40932 On ch=1 n=d6 v=0
40958 On ch=1 n=f5 v=0
41020 On ch=1 n=d5 v=0
41168 On ch=1 n=c#6 v=58
41174 On ch=1 n=e5 v=44
41792 On ch=1 n=a5 v=21
41806 On ch=1 n=g5 v=26
41850 Par ch=1 c=64 v=63
41872 Par ch=1 c=64 v=127
42166 On ch=1 n=a5 v=0
42174 On ch=1 n=g5 v=0
42324 On ch=1 n=a5 v=39
42332 On ch=1 n=g5 v=42
42504 On ch=1 n=g5 v=0
42510 On ch=1 n=a5 v=0
42534 On ch=1 n=c#6 v=0
42884 On ch=1 n=a5 v=32
42898 On ch=1 n=g5 v=33
43092 On ch=1 n=a5 v=0
43144 On ch=1 n=g5 v=0
43148 On ch=1 n=d6 v=63
43234 On ch=1 n=e5 v=0
43252 On ch=1 n=d6 v=0
43448 On ch=1 n=e5 v=41
43452 On ch=1 n=d#6 v=65
43580 Par ch=1 c=64 v=63
43690 Par ch=1 c=64 v=127
44130 On ch=1 n=d#6 v=0
44144 On ch=1 n=e6 v=47
44168 On ch=1 n=a5 v=24
44170 On ch=1 n=g5 v=19
44386 On ch=1 n=g5 v=0
44392 On ch=1 n=a5 v=0
44494 On ch=1 n=e6 v=0
44720 On ch=1 n=a5 v=27
44728 On ch=1 n=g5 v=22
44880 On ch=1 n=g5 v=0
44888 On ch=1 n=a5 v=0
45388 On ch=1 n=a5 v=20
45396 On ch=1 n=g5 v=18
45834 On ch=1 n=g5 v=0
45852 On ch=1 n=e5 v=0
46266 On ch=1 n=a5 v=0
46306 On ch=1 n=g6 v=59
46324 On ch=1 n=c#5 v=29
46554 Par ch=1 c=64 v=63
46610 Par ch=1 c=64 v=0
46944 Par ch=1 c=64 v=63
46960 Par ch=1 c=64 v=127
47098 On ch=1 n=a5 v=10
47098 On ch=1 n=e5 v=19
47304 On ch=1 n=e5 v=0
47312 On ch=1 n=a5 v=0
47652 On ch=1 n=e5 v=30
47652 On ch=1 n=a5 v=25
47810 On ch=1 n=e5 v=0
47816 On ch=1 n=a5 v=0
48024 On ch=1 n=g6 v=0
48172 On ch=1 n=a5 v=28
48172 On ch=1 n=e5 v=39
48416 On ch=1 n=a5 v=0
48462 On ch=1 n=f#6 v=73
48528 On ch=1 n=c#5 v=0
48540 On ch=1 n=e5 v=0
48582 On ch=1 n=g6 v=79
48618 On ch=1 n=f#6 v=0
48742 On ch=1 n=a6 v=77
48746 On ch=1 n=c#5 v=53
48824 On ch=1 n=g6 v=0
48972 Par ch=1 c=64 v=63
49002 Par ch=1 c=64 v=0
49186 Par ch=1 c=64 v=63
49208 Par ch=1 c=64 v=127
49350 On ch=1 n=g6 v=50
49360 On ch=1 n=a6 v=0
49390 On ch=1 n=a5 v=27
49394 On ch=1 n=e5 v=26
49592 On ch=1 n=a5 v=0
49598 On ch=1 n=e5 v=0
49644 On ch=1 n=g6 v=0
49914 On ch=1 n=a5 v=34
49916 On ch=1 n=f6 v=62
49924 On ch=1 n=e5 v=33
50088 Par ch=1 c=64 v=63
50182 Par ch=1 c=64 v=127
50338 On ch=1 n=a5 v=0
50346 On ch=1 n=e5 v=0
50526 On ch=1 n=e6 v=59
50530 On ch=1 n=a5 v=25
50562 On ch=1 n=e5 v=18
50602 On ch=1 n=f6 v=0
50886 On ch=1 n=e6 v=0
50938 On ch=1 n=e5 v=0
50996 On ch=1 n=a5 v=0
51040 On ch=1 n=c#5 v=0
51204 On ch=1 n=d5 v=50
51210 On ch=1 n=d6 v=52
51402 Par ch=1 c=64 v=63
51440 Par ch=1 c=64 v=0
51512 Par ch=1 c=64 v=63
51568 Par ch=1 c=64 v=127
51786 On ch=1 n=a5 v=21
51804 On ch=1 n=f5 v=23
51932 On ch=1 n=d6 v=0
51990 On ch=1 n=f5 v=0
52006 On ch=1 n=a5 v=0
52430 On ch=1 n=a5 v=22
52438 On ch=1 n=f5 v=15
52638 Par ch=1 c=64 v=63
52682 Par ch=1 c=64 v=0
52822 Par ch=1 c=64 v=63
52846 Par ch=1 c=64 v=127
52918 On ch=1 n=a5 v=0
52920 On ch=1 n=f5 v=0
53076 On ch=1 n=a5 v=26
53078 On ch=1 n=f5 v=31
53348 On ch=1 n=e6 v=72
53398 On ch=1 n=a5 v=0
53414 On ch=1 n=f5 v=0
53480 On ch=1 n=d5 v=0
53628 On ch=1 n=g6 v=68
53668 On ch=1 n=d5 v=37
53672 On ch=1 n=e6 v=0
53780 Par ch=1 c=64 v=63
53806 Par ch=1 c=64 v=0
53942 Par ch=1 c=64 v=63
53964 Par ch=1 c=64 v=127
54300 On ch=1 n=f5 v=23
54302 On ch=1 n=a5 v=18
54308 On ch=1 n=f6 v=47
54356 On ch=1 n=g6 v=0
54652 On ch=1 n=a5 v=0
54654 On ch=1 n=f5 v=0
54968 On ch=1 n=a5 v=22
54978 On ch=1 n=f5 v=19
55110 On ch=1 n=f6 v=0
55216 Par ch=1 c=64 v=63
55322 Par ch=1 c=64 v=0
55400 Par ch=1 c=64 v=63
55446 Par ch=1 c=64 v=127
55504 On ch=1 n=f5 v=0
55520 On ch=1 n=a5 v=0
55736 On ch=1 n=f5 v=20
55748 On ch=1 n=a5 v=12
56652 On ch=1 n=f5 v=0
56674 On ch=1 n=a5 v=0
56804 On ch=1 n=d5 v=0
56830 On ch=1 n=a6 v=112
56836 On ch=1 n=a5 v=100
56872 Par ch=1 c=64 v=63
56882 Par ch=1 c=64 v=0
57350 Par ch=1 c=64 v=63
57358 Par ch=1 c=64 v=127
58228 On ch=1 n=d5 v=82
58256 On ch=1 n=a4 v=61
58256 On ch=1 n=f4 v=45
58792 On ch=1 n=a5 v=0
59052 On ch=1 n=a4 v=0
59096 On ch=1 n=f4 v=0
59230 On ch=1 n=a6 v=0
59250 On ch=1 n=d5 v=0
59792 On ch=1 n=a#6 v=58
59794 On ch=1 n=c#5 v=44
59812 On ch=1 n=a#5 v=52
59824 On ch=1 n=g4 v=40
59836 On ch=1 n=e4 v=43
60022 Par ch=1 c=64 v=63
60066 Par ch=1 c=64 v=0
60264 Par ch=1 c=64 v=63
60290 Par ch=1 c=64 v=127
60374 On ch=1 n=e4 v=0
60388 On ch=1 n=c#5 v=0
60400 On ch=1 n=g4 v=0
60492 On ch=1 n=a#5 v=0
60506 On ch=1 n=a#6 v=0
60976 Par ch=1 c=64 v=63
61076 Par ch=1 c=64 v=0
62370 On ch=1 n=a6 v=52
62428 Par ch=1 c=64 v=63
62452 Par ch=1 c=64 v=127
62638 On ch=1 n=a6 v=0
63224 On ch=1 n=d7 v=59
63348 Par ch=1 c=64 v=63
63406 Par ch=1 c=64 v=0
63430 On ch=1 n=f5 v=41
63432 On ch=1 n=c#7 v=63
63434 On ch=1 n=d7 v=0
63442 On ch=1 n=d6 v=35
63670 Par ch=1 c=64 v=63
63712 Par ch=1 c=64 v=127
63752 On ch=1 n=c7 v=77
63788 On ch=1 n=c#7 v=0
63946 On ch=1 n=f5 v=0
63982 On ch=1 n=b6 v=75
64028 On ch=1 n=c7 v=0
64288 On ch=1 n=a#6 v=65
64296 On ch=1 n=b6 v=0
64306 On ch=1 n=c#6 v=29
64316 On ch=1 n=d6 v=0
64320 On ch=1 n=g5 v=29
64456 Par ch=1 c=64 v=63
64518 Par ch=1 c=64 v=0
64840 On ch=1 n=g5 v=0
64884 On ch=1 n=c#6 v=0
64888 On ch=1 n=a#6 v=0
66012 Par ch=1 c=64 v=63
66028 Par ch=1 c=64 v=127
66058 On ch=1 n=f5 v=39
66064 On ch=1 n=a6 v=72
66074 On ch=1 n=d6 v=27
66126 On ch=1 n=f5 v=0
66152 On ch=1 n=d6 v=0
66180 On ch=1 n=a6 v=0
66256 On ch=1 n=a6 v=61
66268 On ch=1 n=d6 v=54
66274 On ch=1 n=e5 v=46
66350 Par ch=1 c=64 v=63
66448 Par ch=1 c=64 v=127
66734 On ch=1 n=a6 v=0
66754 On ch=1 n=e5 v=0
66806 Par ch=1 c=64 v=63
66820 On ch=1 n=g#6 v=39
66918 Par ch=1 c=64 v=0
66958 On ch=1 n=d6 v=0
67242 On ch=1 n=c#6 v=32
67244 On ch=1 n=a5 v=42
67262 On ch=1 n=g#6 v=0
67356 Par ch=1 c=64 v=63
67392 Par ch=1 c=64 v=127
67514 Par ch=1 c=64 v=63
67596 Par ch=1 c=64 v=127
67652 On ch=1 n=c#6 v=0
67652 On ch=1 n=g6 v=51
67660 On ch=1 n=a5 v=0
67972 On ch=1 n=g6 v=0
68004 Par ch=1 c=64 v=63
68038 On ch=1 n=d6 v=43
68058 On ch=1 n=d5 v=26
68084 Par ch=1 c=64 v=0
68122 Par ch=1 c=64 v=63
68190 Par ch=1 c=64 v=127
68394 On ch=1 n=d5 v=0
68460 On ch=1 n=f#6 v=62
68464 Par ch=1 c=64 v=63
68532 Par ch=1 c=64 v=0
68534 On ch=1 n=d6 v=0
68696 On ch=1 n=f#6 v=0
68902 On ch=1 n=g#5 v=40
68918 On ch=1 n=b5 v=50
69118 Par ch=1 c=64 v=63
69138 Par ch=1 c=64 v=127
69382 On ch=1 n=g#5 v=0
69398 On ch=1 n=b5 v=0
69404 On ch=1 n=f6 v=47
69412 On ch=1 n=d6 v=26
69668 On ch=1 n=d6 v=0
69684 On ch=1 n=f6 v=0
69716 Par ch=1 c=64 v=63
69842 Par ch=1 c=64 v=0
69950 On ch=1 n=a5 v=33
70056 Par ch=1 c=64 v=63
70072 Par ch=1 c=64 v=127
70158 On ch=1 n=a5 v=0
70532 On ch=1 n=e6 v=60
70540 On ch=1 n=c#6 v=35
70620 On ch=1 n=c#6 v=0
70624 On ch=1 n=e6 v=0
71046 On ch=1 n=a6 v=50
71064 On ch=1 n=e6 v=24
71114 On ch=1 n=a6 v=0
71186 On ch=1 n=e6 v=0
71612 Par ch=1 c=64 v=63
71620 On ch=1 n=c#7 v=50
71654 On ch=1 n=a6 v=15
71784 On ch=1 n=c#7 v=0
71796 Par ch=1 c=64 v=0
72008 Par ch=1 c=64 v=63
72428 Par ch=1 c=64 v=127
72494 On ch=1 n=c#7 v=19
72496 On ch=1 n=e7 v=47
72500 On ch=1 n=a6 v=0
73350 On ch=1 n=c#7 v=0
73370 On ch=1 n=e7 v=0
73556 Par ch=1 c=64 v=63
75366 Par ch=1 c=64 v=127
75454 On ch=1 n=e5 v=121
75546 On ch=1 n=e5 v=0
76166 On ch=1 n=e5 v=117
76568 On ch=1 n=e5 v=0
76702 On ch=1 n=e5 v=116
77006 On ch=1 n=e5 v=0
77116 On ch=1 n=e5 v=116
77416 On ch=1 n=e5 v=0
77506 On ch=1 n=e5 v=113
77788 On ch=1 n=e5 v=0
77852 On ch=1 n=e5 v=111
78074 On ch=1 n=e5 v=0
78238 On ch=1 n=e5 v=112
78240 On ch=1 n=a4 v=106
78244 On ch=1 n=c5 v=107
78246 On ch=1 n=a3 v=99
78394 Par ch=1 c=64 v=63
78454 Par ch=1 c=64 v=127
78608 On ch=1 n=e5 v=0
78706 On ch=1 n=e5 v=112
78786 On ch=1 n=a4 v=0
78796 On ch=1 n=a3 v=0
78928 On ch=1 n=c5 v=0
79006 On ch=1 n=e5 v=0
79060 On ch=1 n=e5 v=108
79064 On ch=1 n=b4 v=104
79066 On ch=1 n=g#4 v=112
79080 On ch=1 n=g#3 v=104
79162 Par ch=1 c=64 v=63
79184 Par ch=1 c=64 v=127
79340 On ch=1 n=e5 v=0
79426 On ch=1 n=e5 v=114
79462 On ch=1 n=g#4 v=0
79464 On ch=1 n=g#3 v=0
79568 On ch=1 n=e5 v=0
79572 On ch=1 n=b4 v=0
79738 On ch=1 n=g4 v=106
79742 On ch=1 n=g3 v=103
79748 On ch=1 n=e5 v=102
79752 On ch=1 n=a#4 v=105
79882 Par ch=1 c=64 v=63
79950 Par ch=1 c=64 v=127
80038 On ch=1 n=e5 v=0
80112 On ch=1 n=e5 v=107
80196 On ch=1 n=g3 v=0
80198 On ch=1 n=g4 v=0
80360 On ch=1 n=a#4 v=0
80404 On ch=1 n=e5 v=0
80494 On ch=1 n=f#4 v=107
80498 On ch=1 n=f#3 v=105
80500 On ch=1 n=e5 v=99
80502 On ch=1 n=a4 v=92
80658 Par ch=1 c=64 v=63
80710 Par ch=1 c=64 v=127
80928 On ch=1 n=d#5 v=115
80986 On ch=1 n=e5 v=0
81016 On ch=1 n=f#3 v=0
81020 On ch=1 n=f#4 v=0
81236 On ch=1 n=d#5 v=0
81392 On ch=1 n=a4 v=0
81418 On ch=1 n=f4 v=103
81420 On ch=1 n=f3 v=101
81428 On ch=1 n=a5 v=92
81428 On ch=1 n=d#5 v=100
81608 Par ch=1 c=64 v=63
81698 Par ch=1 c=64 v=127
81926 On ch=1 n=a5 v=0
82008 On ch=1 n=a5 v=103
82476 On ch=1 n=f4 v=0
82672 On ch=1 n=d#5 v=0
82678 On ch=1 n=a5 v=0
82752 On ch=1 n=a5 v=102
82754 On ch=1 n=e4 v=97
82760 On ch=1 n=d#5 v=103
82764 On ch=1 n=e3 v=94
82844 On ch=1 n=f3 v=0
83534 Par ch=1 c=64 v=63
83570 Par ch=1 c=64 v=0
84516 Par ch=1 c=64 v=63
84540 Par ch=1 c=64 v=127
85242 On ch=1 n=g#5 v=66
85282 On ch=1 n=a5 v=0
85484 On ch=1 n=a5 v=73
85554 On ch=1 n=g#5 v=0
85668 On ch=1 n=b5 v=84
85716 On ch=1 n=a5 v=0
85764 On ch=1 n=d#5 v=0
85814 On ch=1 n=a5 v=91
85868 On ch=1 n=b5 v=0
85994 On ch=1 n=g#5 v=86
86010 On ch=1 n=e5 v=52
86040 On ch=1 n=a5 v=0
86148 Par ch=1 c=64 v=63
86210 Par ch=1 c=64 v=0
88042 On ch=1 n=e5 v=0
88088 On ch=1 n=e3 v=0
88118 On ch=1 n=e4 v=0
88124 On ch=1 n=g#5 v=0
89040 On ch=1 n=b5 v=55
89104 On ch=1 n=b5 v=0
89440 On ch=1 n=a5 v=43
89830 On ch=1 n=g#5 v=32
89924 On ch=1 n=a5 v=0
90004 On ch=1 n=g#5 v=0
90108 On ch=1 n=d5 v=56
90114 On ch=1 n=f5 v=31
90236 On ch=1 n=d5 v=0
90262 On ch=1 n=f5 v=0
90350 On ch=1 n=b5 v=60
90472 On ch=1 n=b5 v=0
90592 On ch=1 n=a5 v=59
90594 On ch=1 n=d5 v=44
90600 On ch=1 n=f5 v=27
90792 On ch=1 n=d5 v=0
90820 On ch=1 n=f5 v=0
90864 On ch=1 n=g#5 v=53
90894 On ch=1 n=a5 v=0
90952 On ch=1 n=g#5 v=0
91048 On ch=1 n=f5 v=41
91054 On ch=1 n=d5 v=48
91182 On ch=1 n=f5 v=0
91190 On ch=1 n=d5 v=0
91222 On ch=1 n=b5 v=69
91344 On ch=1 n=b5 v=0
91406 On ch=1 n=d5 v=54
91418 On ch=1 n=f5 v=39
91420 On ch=1 n=a5 v=68
91538 On ch=1 n=f5 v=0
91542 On ch=1 n=d5 v=0
91596 On ch=1 n=g#5 v=80
91610 On ch=1 n=a5 v=0
91682 On ch=1 n=g#5 v=0
91762 On ch=1 n=d5 v=52
91770 On ch=1 n=f5 v=47
91858 On ch=1 n=d5 v=0
91864 On ch=1 n=f5 v=0
91930 On ch=1 n=b5 v=86
92004 On ch=1 n=b5 v=0
92090 On ch=1 n=d5 v=66
92092 On ch=1 n=f5 v=63
92214 On ch=1 n=f5 v=0
92234 On ch=1 n=d5 v=0
92264 On ch=1 n=d6 v=84
92370 On ch=1 n=d6 v=0
92452 On ch=1 n=d5 v=48
92452 On ch=1 n=f5 v=48
92608 On ch=1 n=d5 v=0
92612 On ch=1 n=f5 v=0
92642 On ch=1 n=g#5 v=69
92742 On ch=1 n=g#5 v=0
92926 On ch=1 n=b5 v=68
93198 On ch=1 n=a5 v=48
93306 On ch=1 n=b5 v=0
93378 On ch=1 n=a5 v=0
93432 On ch=1 n=c5 v=42
93432 On ch=1 n=e5 v=41
93566 On ch=1 n=e5 v=0
93570 On ch=1 n=c5 v=0
93620 On ch=1 n=c6 v=63
93734 On ch=1 n=c6 v=0
93794 On ch=1 n=e5 v=48
93806 On ch=1 n=b5 v=67
93814 On ch=1 n=c5 v=52
93946 On ch=1 n=e5 v=0
93956 On ch=1 n=c5 v=0
93972 On ch=1 n=a5 v=70
94022 On ch=1 n=b5 v=0
94090 On ch=1 n=a5 v=0
94140 On ch=1 n=e5 v=59
94148 On ch=1 n=c5 v=60
94206 On ch=1 n=e5 v=0
94220 On ch=1 n=c5 v=0
94286 On ch=1 n=c6 v=88
94380 On ch=1 n=c6 v=0
94440 On ch=1 n=b5 v=80
94442 On ch=1 n=e5 v=63
94450 On ch=1 n=c5 v=61
94554 On ch=1 n=e5 v=0
94566 On ch=1 n=c5 v=0
94606 On ch=1 n=a5 v=75
94630 On ch=1 n=b5 v=0
94710 On ch=1 n=a5 v=0
94760 On ch=1 n=e5 v=65
94766 On ch=1 n=c5 v=65
94826 On ch=1 n=e5 v=0
94840 On ch=1 n=c5 v=0
94906 On ch=1 n=c6 v=97
94980 On ch=1 n=c6 v=0
95066 On ch=1 n=e5 v=78
95076 On ch=1 n=c5 v=72
95148 On ch=1 n=e5 v=0
95178 On ch=1 n=c5 v=0
95234 On ch=1 n=e6 v=92
95330 On ch=1 n=e6 v=0
95404 On ch=1 n=e5 v=84
95416 On ch=1 n=c5 v=79
95472 On ch=1 n=e5 v=0
95498 On ch=1 n=c5 v=0
95534 On ch=1 n=a5 v=74
95650 On ch=1 n=a5 v=0
95770 On ch=1 n=c6 v=92
95856 Par ch=1 c=64 v=63
95862 Par ch=1 c=64 v=127
96050 On ch=1 n=b5 v=85
96114 On ch=1 n=c6 v=0
96152 On ch=1 n=b5 v=0
96214 Par ch=1 c=64 v=63
96228 Par ch=1 c=64 v=0
96234 On ch=1 n=g#4 v=67
96236 On ch=1 n=e5 v=55
96336 On ch=1 n=e5 v=0
96346 On ch=1 n=g#4 v=0
96400 On ch=1 n=d6 v=84
96482 On ch=1 n=d6 v=0
96560 On ch=1 n=e5 v=73
96564 On ch=1 n=g#4 v=75
96582 On ch=1 n=c6 v=87
96680 On ch=1 n=e5 v=0
96688 On ch=1 n=g#4 v=0
96734 On ch=1 n=b5 v=94
96792 On ch=1 n=c6 v=0
96828 On ch=1 n=b5 v=0
96876 On ch=1 n=e5 v=82
96884 On ch=1 n=g#4 v=79
96952 On ch=1 n=g#4 v=0
96960 On ch=1 n=e5 v=0
97014 On ch=1 n=d6 v=107
97172 On ch=1 n=e5 v=82
97174 On ch=1 n=c6 v=93
97182 On ch=1 n=g#4 v=76
97234 On ch=1 n=d6 v=0
97280 On ch=1 n=g#4 v=0
97280 On ch=1 n=e5 v=0
97314 On ch=1 n=b5 v=99
97334 On ch=1 n=c6 v=0
97420 On ch=1 n=b5 v=0
97460 On ch=1 n=e5 v=91
97466 On ch=1 n=g#4 v=89
97538 On ch=1 n=e5 v=0
97552 On ch=1 n=g#4 v=0
97616 On ch=1 n=d6 v=103
97694 On ch=1 n=d6 v=0
97768 On ch=1 n=e5 v=92
97776 On ch=1 n=g#4 v=92
97850 On ch=1 n=e5 v=0
97854 On ch=1 n=g#4 v=0
97932 On ch=1 n=f6 v=100
98024 On ch=1 n=f6 v=0
98108 On ch=1 n=e5 v=89
98110 On ch=1 n=g#4 v=92
98196 On ch=1 n=e5 v=0
98200 On ch=1 n=g#4 v=0
98228 On ch=1 n=b5 v=98
98354 On ch=1 n=b5 v=0
98428 On ch=1 n=a4 v=62
98432 On ch=1 n=e5 v=65
98436 On ch=1 n=d6 v=99
98496 Par ch=1 c=64 v=63
98502 Par ch=1 c=64 v=127
98628 On ch=1 n=e5 v=0
98634 On ch=1 n=a4 v=0
98654 On ch=1 n=d6 v=0
98658 On ch=1 n=c6 v=86
98754 On ch=1 n=c6 v=0
98840 On ch=1 n=a4 v=48
98846 On ch=1 n=c5 v=71
98868 Par ch=1 c=64 v=63
98884 Par ch=1 c=64 v=0
99014 Par ch=1 c=64 v=63
99032 Par ch=1 c=64 v=127
99052 On ch=1 n=a6 v=72
99140 On ch=1 n=c5 v=0
99152 On ch=1 n=a4 v=0
99164 On ch=1 n=a6 v=0
99244 On ch=1 n=b4 v=64
99250 On ch=1 n=d5 v=74
99318 Par ch=1 c=64 v=63
99412 On ch=1 n=g#6 v=98
99422 Par ch=1 c=64 v=127
99450 On ch=1 n=b4 v=0
99470 On ch=1 n=d5 v=0
99518 Par ch=1 c=64 v=63
99544 Par ch=1 c=64 v=0
99554 On ch=1 n=g#6 v=0
99556 On ch=1 n=c#5 v=93
99560 On ch=1 n=e5 v=85
99670 On ch=1 n=c#5 v=0
99684 Par ch=1 c=64 v=63
99706 Par ch=1 c=64 v=127
99716 On ch=1 n=g6 v=97
99850 On ch=1 n=d5 v=86
99868 On ch=1 n=f5 v=108
99894 On ch=1 n=e5 v=0
99932 Par ch=1 c=64 v=63
99988 On ch=1 n=g6 v=0
100026 Par ch=1 c=64 v=127
100032 On ch=1 n=f6 v=106
100166 On ch=1 n=d5 v=0
100176 On ch=1 n=g#5 v=106
100180 On ch=1 n=e5 v=83
100188 On ch=1 n=f6 v=0
100226 On ch=1 n=f5 v=0
100338 On ch=1 n=e6 v=112
100352 Par ch=1 c=64 v=63
100434 On ch=1 n=e6 v=0
100436 Par ch=1 c=64 v=127
100498 On ch=1 n=a5 v=102
100510 On ch=1 n=f#5 v=103
100550 On ch=1 n=e5 v=0
100566 On ch=1 n=g#5 v=0
100632 On ch=1 n=d#6 v=112
100724 On ch=1 n=a5 v=0
100788 On ch=1 n=d#6 v=0
100788 On ch=1 n=g#5 v=103
100790 On ch=1 n=b5 v=104
100842 On ch=1 n=f#5 v=0
100856 Par ch=1 c=64 v=63
100896 Par ch=1 c=64 v=127
100922 On ch=1 n=d6 v=102
100966 On ch=1 n=b5 v=0
101008 On ch=1 n=d6 v=0
101064 On ch=1 n=g#5 v=0
101064 On ch=1 n=a5 v=102
101072 On ch=1 n=c6 v=106
101114 Par ch=1 c=64 v=63
101130 Par ch=1 c=64 v=0
101216 On ch=1 n=e6 v=114
101244 On ch=1 n=a5 v=0
101254 On ch=1 n=c6 v=0
101354 On ch=1 n=a4 v=88
101362 On ch=1 n=c5 v=94
101364 On ch=1 n=e6 v=0
101512 On ch=1 n=a6 v=104
101630 On ch=1 n=c5 v=0
101654 On ch=1 n=a6 v=0
101654 On ch=1 n=d5 v=111
101660 On ch=1 n=b4 v=93
101666 On ch=1 n=c5 v=32
101682 On ch=1 n=a4 v=0
101708 On ch=1 n=c5 v=0
101810 On ch=1 n=g#6 v=115
101936 On ch=1 n=c#5 v=110
101938 On ch=1 n=d5 v=0
101944 On ch=1 n=e5 v=108
101958 On ch=1 n=b4 v=0
102006 On ch=1 n=g#6 v=0
102048 On ch=1 n=c#5 v=0
102118 On ch=1 n=g6 v=113
102224 On ch=1 n=e5 v=0
102262 On ch=1 n=f5 v=114
102262 On ch=1 n=d5 v=108
102282 On ch=1 n=g6 v=0
102418 On ch=1 n=f6 v=116
102512 On ch=1 n=f5 v=0
102530 On ch=1 n=d5 v=0
102556 On ch=1 n=g#5 v=112
102564 On ch=1 n=e5 v=87
102606 On ch=1 n=f6 v=0
102718 On ch=1 n=e6 v=118
102854 On ch=1 n=e6 v=0
102880 On ch=1 n=a5 v=113
102886 On ch=1 n=f#5 v=108
102892 On ch=1 n=e5 v=0
102946 On ch=1 n=g#5 v=0
103064 On ch=1 n=d#6 v=120
103194 On ch=1 n=a5 v=0
103262 On ch=1 n=b5 v=113
103266 On ch=1 n=g#5 v=109
103314 On ch=1 n=f#5 v=0
103336 On ch=1 n=d#6 v=0
103520 On ch=1 n=d6 v=114
103820 On ch=1 n=g#5 v=0
103822 On ch=1 n=b5 v=0
103892 On ch=1 n=d6 v=0
108234 On ch=1 n=a4 v=29
108246 On ch=1 n=c6 v=42
108280 Par ch=1 c=64 v=63
108348 Par ch=1 c=64 v=127
109104 On ch=1 n=c5 v=31
109114 On ch=1 n=e5 v=30
109292 On ch=1 n=c5 v=0
109330 On ch=1 n=e5 v=0
109744 On ch=1 n=e5 v=17
109752 On ch=1 n=c5 v=25
109886 On ch=1 n=c5 v=0
109906 On ch=1 n=e5 v=0
109930 On ch=1 n=c6 v=0
110298 On ch=1 n=e5 v=32
110324 On ch=1 n=c5 v=15
110542 On ch=1 n=e5 v=0
110544 On ch=1 n=c5 v=0
110638 On ch=1 n=a4 v=0
110642 On ch=1 n=b5 v=47
110766 On ch=1 n=b5 v=0
110770 On ch=1 n=c6 v=50
110944 On ch=1 n=a4 v=32
110968 On ch=1 n=d6 v=53
110998 On ch=1 n=c6 v=0
111080 Par ch=1 c=64 v=63
111108 Par ch=1 c=64 v=0
111212 Par ch=1 c=64 v=63
111248 Par ch=1 c=64 v=127
111574 On ch=1 n=c6 v=41
111586 On ch=1 n=d6 v=0
111602 On ch=1 n=c5 v=21
111606 On ch=1 n=e5 v=17
111814 On ch=1 n=c5 v=0
111816 On ch=1 n=e5 v=0
111938 On ch=1 n=c6 v=0
112120 On ch=1 n=b5 v=64
112138 On ch=1 n=e5 v=28
112140 On ch=1 n=c5 v=37
112230 Par ch=1 c=64 v=63
112350 Par ch=1 c=64 v=127
112448 On ch=1 n=c5 v=0
112476 On ch=1 n=e5 v=0
112646 On ch=1 n=a5 v=63
112674 On ch=1 n=e5 v=20
112674 On ch=1 n=c5 v=29
112700 On ch=1 n=b5 v=0
112866 On ch=1 n=e5 v=0
112946 On ch=1 n=a5 v=0
112968 On ch=1 n=c5 v=0
113048 On ch=1 n=a4 v=0
113154 On ch=1 n=b4 v=55
113180 On ch=1 n=g#5 v=79
113356 Par ch=1 c=64 v=63
113648 Par ch=1 c=64 v=127
113692 On ch=1 n=e5 v=35
113696 On ch=1 n=d5 v=47
113900 On ch=1 n=e5 v=0
113908 On ch=1 n=d5 v=0
114198 On ch=1 n=d5 v=36
114202 On ch=1 n=e5 v=27
114340 On ch=1 n=g#5 v=0
114356 On ch=1 n=e5 v=0
114370 On ch=1 n=d5 v=0
114778 Par ch=1 c=64 v=63
114820 On ch=1 n=d5 v=30
114824 Par ch=1 c=64 v=0
114830 On ch=1 n=e5 v=26
114938 Par ch=1 c=64 v=63
114972 Par ch=1 c=64 v=127
115090 On ch=1 n=a5 v=59
115168 On ch=1 n=d5 v=0
115184 On ch=1 n=e5 v=0
115204 On ch=1 n=b4 v=0
115216 On ch=1 n=a5 v=0
115362 On ch=1 n=a#5 v=73
115368 On ch=1 n=b4 v=41
115474 Par ch=1 c=64 v=63
115616 Par ch=1 c=64 v=127
115884 On ch=1 n=a#5 v=0
115894 On ch=1 n=b5 v=51
115906 On ch=1 n=d5 v=28
115924 On ch=1 n=e5 v=24
115928 Par ch=1 c=64 v=63
116084 Par ch=1 c=64 v=127
116212 On ch=1 n=e5 v=0
116212 On ch=1 n=d5 v=0
116402 On ch=1 n=b5 v=0
116488 On ch=1 n=e5 v=25
116492 On ch=1 n=d5 v=28
116662 Par ch=1 c=64 v=63
116706 On ch=1 n=d5 v=0
116736 On ch=1 n=e5 v=0
116986 Par ch=1 c=64 v=127
117120 On ch=1 n=d5 v=25
117122 On ch=1 n=e5 v=17
117502 On ch=1 n=d5 v=0
117522 On ch=1 n=e5 v=0
117942 On ch=1 n=b4 v=0
118028 On ch=1 n=g#4 v=33
118058 On ch=1 n=f6 v=62
118814 On ch=1 n=d5 v=24
118818 On ch=1 n=b4 v=16
118966 On ch=1 n=b4 v=0
118980 On ch=1 n=d5 v=0
119378 On ch=1 n=d5 v=33
119382 On ch=1 n=b4 v=32
119572 On ch=1 n=b4 v=0
119576 On ch=1 n=d5 v=0
119844 On ch=1 n=d5 v=34
119848 On ch=1 n=b4 v=35
120166 On ch=1 n=e6 v=77
120188 On ch=1 n=f6 v=0
120286 On ch=1 n=g#4 v=0
120288 On ch=1 n=b4 v=0
120294 On ch=1 n=f6 v=80
120338 On ch=1 n=e6 v=0
120472 On ch=1 n=d5 v=0
120480 On ch=1 n=g#4 v=44
120488 On ch=1 n=g6 v=83
120568 On ch=1 n=f6 v=0
120650 Par ch=1 c=64 v=63
120784 Par ch=1 c=64 v=127
121116 On ch=1 n=f6 v=79
121124 On ch=1 n=d5 v=26
121128 On ch=1 n=b4 v=36
121180 On ch=1 n=g6 v=0
121492 On ch=1 n=b4 v=0
121510 On ch=1 n=d5 v=0
121658 On ch=1 n=e6 v=89
121658 On ch=1 n=d5 v=52
121662 On ch=1 n=f6 v=0
121674 On ch=1 n=b4 v=50
121822 Par ch=1 c=64 v=63
121892 Par ch=1 c=64 v=127
122050 On ch=1 n=b4 v=0
122054 On ch=1 n=d5 v=0
122184 On ch=1 n=d6 v=80
122196 On ch=1 n=d5 v=50
122212 On ch=1 n=b4 v=39
122276 On ch=1 n=e6 v=0
122424 On ch=1 n=d5 v=0
122514 On ch=1 n=b4 v=0
122588 On ch=1 n=g#4 v=0
122664 On ch=1 n=g4 v=60
122688 On ch=1 n=d6 v=0
122704 On ch=1 n=c#6 v=77
122826 Par ch=1 c=64 v=63
122864 Par ch=1 c=64 v=0
123068 Par ch=1 c=64 v=63
123094 Par ch=1 c=64 v=127
123158 On ch=1 n=a#4 v=53
123176 On ch=1 n=e5 v=59
123344 On ch=1 n=a#4 v=0
123364 On ch=1 n=e5 v=0
123544 On ch=1 n=c#6 v=0
123638 On ch=1 n=a#4 v=63
123654 On ch=1 n=e5 v=49
123770 On ch=1 n=e5 v=0
123792 On ch=1 n=a#4 v=0
124130 On ch=1 n=a#4 v=71
124152 On ch=1 n=e5 v=65
124192 Par ch=1 c=64 v=63
124320 Par ch=1 c=64 v=127
124326 On ch=1 n=d6 v=91
124460 On ch=1 n=g4 v=0
124542 On ch=1 n=g4 v=61
124544 On ch=1 n=d#6 v=108
124594 Par ch=1 c=64 v=63
124610 On ch=1 n=d6 v=0
124630 On ch=1 n=e5 v=0
124632 Par ch=1 c=64 v=0
124668 On ch=1 n=a#4 v=0
124804 Par ch=1 c=64 v=63
124820 Par ch=1 c=64 v=127
125028 On ch=1 n=c#5 v=73
125030 On ch=1 n=a#4 v=54
125040 On ch=1 n=e6 v=93
125114 On ch=1 n=d#6 v=0
125260 On ch=1 n=c#5 v=0
125276 On ch=1 n=a#4 v=0
125424 On ch=1 n=e6 v=0
125480 On ch=1 n=c#5 v=89
125482 On ch=1 n=a#4 v=70
125640 On ch=1 n=c#5 v=0
125644 On ch=1 n=a#4 v=0
125922 On ch=1 n=c#5 v=90
125928 On ch=1 n=a#4 v=76
126036 On ch=1 n=c#5 v=0
126058 On ch=1 n=a#4 v=0
126064 On ch=1 n=g4 v=0
126080 On ch=1 n=f6 v=111
126232 Par ch=1 c=64 v=63
126242 Par ch=1 c=64 v=0
126284 On ch=1 n=e4 v=104
126304 On ch=1 n=f6 v=0
126304 On ch=1 n=f#6 v=108
126426 Par ch=1 c=64 v=63
126442 Par ch=1 c=64 v=127
126810 On ch=1 n=g6 v=96
126816 On ch=1 n=c#5 v=97
126818 On ch=1 n=a#4 v=78
126828 On ch=1 n=f#6 v=0
126970 On ch=1 n=a#4 v=0
126986 On ch=1 n=c#5 v=0
127128 On ch=1 n=g6 v=0
127214 On ch=1 n=c#5 v=96
127224 On ch=1 n=a#4 v=85
127302 On ch=1 n=c#5 v=0
127314 On ch=1 n=a#4 v=0
127736 On ch=1 n=c#5 v=106
127742 On ch=1 n=a#4 v=87
127868 On ch=1 n=c#5 v=0
127880 On ch=1 n=a#4 v=0
127936 On ch=1 n=e4 v=0
128012 On ch=1 n=a6 v=116
128486 On ch=1 n=c#4 v=87
128488 On ch=1 n=g4 v=82
128488 On ch=1 n=e4 v=81
128506 On ch=1 n=c7 v=109
128550 On ch=1 n=a6 v=0
128638 Par ch=1 c=64 v=63
128678 Par ch=1 c=64 v=0
129090 Par ch=1 c=64 v=63
129110 Par ch=1 c=64 v=127
129470 On ch=1 n=a#6 v=73
129674 Par ch=1 c=64 v=63
129734 Par ch=1 c=64 v=0
129796 On ch=1 n=c7 v=0
130058 Par ch=1 c=64 v=63
130084 Par ch=1 c=64 v=127
130468 On ch=1 n=a#6 v=0
130538 On ch=1 n=e4 v=0
130550 On ch=1 n=g4 v=0
130552 On ch=1 n=c#4 v=0
130776 Par ch=1 c=64 v=63
130872 Par ch=1 c=64 v=0
131848 On ch=1 n=a6 v=116
131890 Par ch=1 c=64 v=63
131898 Par ch=1 c=64 v=127
132112 On ch=1 n=c7 v=101
132168 On ch=1 n=a6 v=0
132280 On ch=1 n=a#6 v=110
132342 On ch=1 n=c7 v=0
132418 On ch=1 n=a6 v=99
132498 On ch=1 n=a#6 v=0
132528 On ch=1 n=g6 v=88
132534 On ch=1 n=a6 v=0
132624 On ch=1 n=g6 v=0
132624 On ch=1 n=f6 v=94
132718 On ch=1 n=e6 v=87
132740 On ch=1 n=f6 v=0
132792 On ch=1 n=d6 v=88
132796 On ch=1 n=e6 v=0
132878 On ch=1 n=d6 v=0
132884 On ch=1 n=c#6 v=106
132992 On ch=1 n=e6 v=96
133008 On ch=1 n=c#6 v=0
133088 On ch=1 n=a5 v=83
133106 On ch=1 n=e6 v=0
133188 On ch=1 n=c6 v=84
133190 On ch=1 n=a5 v=0
133256 On ch=1 n=a#5 v=100
133282 On ch=1 n=c6 v=0
133324 On ch=1 n=a5 v=85
133342 On ch=1 n=a#5 v=0
133384 On ch=1 n=g5 v=77
133400 On ch=1 n=a5 v=0
133470 On ch=1 n=g5 v=0
133470 On ch=1 n=f5 v=92
133538 On ch=1 n=e5 v=90
133550 On ch=1 n=f5 v=0
133592 On ch=1 n=d5 v=88
133596 On ch=1 n=e5 v=0
133666 On ch=1 n=d5 v=0
133670 On ch=1 n=c#5 v=108
133764 On ch=1 n=e5 v=97
133780 On ch=1 n=c#5 v=0
133836 On ch=1 n=a4 v=86
133876 On ch=1 n=e5 v=0
133936 On ch=1 n=c5 v=100
133952 On ch=1 n=a4 v=0
134006 On ch=1 n=a#4 v=104
134036 On ch=1 n=c5 v=0
134072 On ch=1 n=a4 v=92
134106 On ch=1 n=a#4 v=0
134136 On ch=1 n=g4 v=84
134162 On ch=1 n=a4 v=0
134218 On ch=1 n=g4 v=0
134224 On ch=1 n=f4 v=103
134298 On ch=1 n=e4 v=100
134318 On ch=1 n=f4 v=0
134352 On ch=1 n=d4 v=98
134362 On ch=1 n=e4 v=0
134406 Par ch=1 c=64 v=63
134422 Par ch=1 c=64 v=0
134428 On ch=1 n=c#4 v=115
134464 On ch=1 n=d4 v=0
134504 Par ch=1 c=64 v=63
134518 Par ch=1 c=64 v=127
134562 On ch=1 n=e4 v=98
134588 On ch=1 n=c#4 v=0
134666 On ch=1 n=a3 v=93
134672 On ch=1 n=e4 v=0
134768 On ch=1 n=c4 v=101
134782 On ch=1 n=a3 v=0
134848 On ch=1 n=a#3 v=108
134896 On ch=1 n=c4 v=0
134930 On ch=1 n=a3 v=98
134988 On ch=1 n=a#3 v=0
134998 On ch=1 n=g3 v=96
135026 On ch=1 n=a3 v=0
135118 On ch=1 n=g3 v=0
135344 On ch=1 n=c3 v=120
135450 Par ch=1 c=64 v=63
135466 Par ch=1 c=64 v=0
135806 On ch=1 n=d#3 v=116
135852 Par ch=1 c=64 v=127
136106 On ch=1 n=f#3 v=116
136310 On ch=1 n=a3 v=102
136476 On ch=1 n=c4 v=107
136522 On ch=1 n=c3 v=0
136564 On ch=1 n=d#3 v=0
136578 On ch=1 n=f#3 v=0
136592 On ch=1 n=a3 v=0
136646 On ch=1 n=d#4 v=116
136692 On ch=1 n=c4 v=0
136798 On ch=1 n=f#4 v=108
136858 On ch=1 n=d#4 v=0
136898 On ch=1 n=a4 v=88
136952 On ch=1 n=f#4 v=0
137012 On ch=1 n=a4 v=0
137058 On ch=1 n=c5 v=84
137162 On ch=1 n=d#5 v=97
137284 On ch=1 n=f#5 v=108
137356 On ch=1 n=a5 v=100
137454 On ch=1 n=c6 v=101
137492 On ch=1 n=c5 v=0
137530 On ch=1 n=d#5 v=0
137540 On ch=1 n=f#5 v=0
137546 On ch=1 n=a5 v=0
137564 On ch=1 n=d#6 v=116
137610 On ch=1 n=c6 v=0
137662 On ch=1 n=f#6 v=103
137696 On ch=1 n=d#6 v=0
137760 On ch=1 n=a6 v=99
137784 On ch=1 n=f#6 v=0
137872 On ch=1 n=c7 v=113
137932 On ch=1 n=a6 v=0
137958 On ch=1 n=c7 v=0
138072 On ch=1 n=d#7 v=127
138154 On ch=1 n=d#7 v=0
139508 Par ch=1 c=64 v=63
139530 Par ch=1 c=64 v=0
140850 Par ch=1 c=64 v=63
140852 Par ch=1 c=64 v=127
140860 On ch=1 n=d5 v=126
140940 On ch=1 n=d5 v=0
141652 On ch=1 n=d5 v=127
141874 On ch=1 n=d5 v=0
142262 On ch=1 n=d5 v=126
142446 On ch=1 n=d5 v=0
142730 On ch=1 n=d5 v=121
142894 On ch=1 n=d5 v=0
143126 On ch=1 n=d5 v=124
143226 On ch=1 n=d5 v=0
143468 On ch=1 n=d5 v=125
143536 On ch=1 n=d5 v=0
143782 On ch=1 n=g4 v=111
143784 On ch=1 n=a#4 v=116
143786 On ch=1 n=g3 v=114
143788 On ch=1 n=d5 v=111
143866 Par ch=1 c=64 v=63
143872 Par ch=1 c=64 v=0
143974 Par ch=1 c=64 v=63
143994 Par ch=1 c=64 v=127
144098 On ch=1 n=d5 v=0
144118 On ch=1 n=a#4 v=0
144206 On ch=1 n=d5 v=120
144272 On ch=1 n=g4 v=0
144290 On ch=1 n=g3 v=0
144440 On ch=1 n=d5 v=0
144532 On ch=1 n=d5 v=116
144538 On ch=1 n=a4 v=107
144548 On ch=1 n=f#4 v=116
144556 On ch=1 n=f#3 v=115
144600 Par ch=1 c=64 v=63
144652 Par ch=1 c=64 v=127
144784 On ch=1 n=d5 v=0
144844 On ch=1 n=a4 v=0
144848 On ch=1 n=d5 v=111
144874 On ch=1 n=f#4 v=0
144878 On ch=1 n=f#3 v=0
144988 On ch=1 n=d5 v=0
145134 On ch=1 n=f4 v=117
145138 On ch=1 n=d5 v=111
145138 On ch=1 n=f3 v=112
145142 On ch=1 n=g#4 v=109
145212 Par ch=1 c=64 v=63
145256 Par ch=1 c=64 v=127
145416 On ch=1 n=d5 v=0
145466 On ch=1 n=d5 v=104
145526 On ch=1 n=f4 v=0
145534 On ch=1 n=f3 v=0
145658 On ch=1 n=g#4 v=0
145698 On ch=1 n=d5 v=0
145802 On ch=1 n=e4 v=114
145804 On ch=1 n=e3 v=109
145808 On ch=1 n=d5 v=116
145812 On ch=1 n=g4 v=107
145902 Par ch=1 c=64 v=63
145924 Par ch=1 c=64 v=0
145996 Par ch=1 c=64 v=63
146018 Par ch=1 c=64 v=127
146204 On ch=1 n=c#5 v=120
146230 On ch=1 n=d5 v=0
146286 On ch=1 n=g4 v=0
146292 On ch=1 n=e4 v=0
146306 On ch=1 n=e3 v=0
146336 On ch=1 n=c#5 v=0
146622 On ch=1 n=c#5 v=114
146624 On ch=1 n=g5 v=107
146626 On ch=1 n=d#4 v=118
146626 On ch=1 n=d#3 v=115
146768 Par ch=1 c=64 v=63
146786 Par ch=1 c=64 v=0
147122 On ch=1 n=g5 v=0
147142 Par ch=1 c=64 v=63
147148 Par ch=1 c=64 v=127
147184 On ch=1 n=g5 v=93
147536 On ch=1 n=d#4 v=0
147550 On ch=1 n=d#3 v=0
147766 On ch=1 n=c#5 v=0
147778 On ch=1 n=g5 v=0
147872 On ch=1 n=g5 v=108
147878 On ch=1 n=c#5 v=115
147880 On ch=1 n=d4 v=112
147882 On ch=1 n=d3 v=106
148134 Par ch=1 c=64 v=63
148178 Par ch=1 c=64 v=0
149748 Par ch=1 c=64 v=63
149756 Par ch=1 c=64 v=127
150178 On ch=1 n=c#5 v=0
150320 On ch=1 n=g5 v=0
150342 On ch=1 n=f#5 v=96
150558 On ch=1 n=f#5 v=0
150558 On ch=1 n=g5 v=85
150708 On ch=1 n=a5 v=79
150718 On ch=1 n=g5 v=0
150840 On ch=1 n=g5 v=70
150858 On ch=1 n=a5 v=0
151010 On ch=1 n=f#5 v=74
151012 On ch=1 n=d5 v=41
151018 On ch=1 n=g5 v=0
151114 Par ch=1 c=64 v=63
151170 Par ch=1 c=64 v=0
151352 Par ch=1 c=64 v=63
151386 Par ch=1 c=64 v=127
152380 On ch=1 n=d3 v=0
152396 On ch=1 n=d5 v=0
152464 On ch=1 n=d4 v=0
152534 On ch=1 n=f#5 v=0
152682 Par ch=1 c=64 v=63
152794 Par ch=1 c=64 v=0
153670 On ch=1 n=a5 v=52
153748 On ch=1 n=a5 v=0
154108 On ch=1 n=g5 v=37
154494 On ch=1 n=f#5 v=32
154604 On ch=1 n=g5 v=0
154660 On ch=1 n=f#5 v=0
154774 On ch=1 n=d#5 v=49
154802 On ch=1 n=c5 v=43
154882 On ch=1 n=c5 v=0
154882 On ch=1 n=d#5 v=0
154990 On ch=1 n=a5 v=65
155084 On ch=1 n=a5 v=0
155236 On ch=1 n=d#5 v=32
155252 On ch=1 n=c5 v=36
155272 On ch=1 n=g5 v=59
155404 Par ch=1 c=64 v=63
155432 On ch=1 n=d#5 v=0
155442 On ch=1 n=c5 v=0
155506 On ch=1 n=f#5 v=70
155556 On ch=1 n=g5 v=0
155600 On ch=1 n=f#5 v=0
155614 Par ch=1 c=64 v=0
155676 On ch=1 n=d#5 v=66
155692 On ch=1 n=c5 v=62
155786 On ch=1 n=d#5 v=0
155804 On ch=1 n=c5 v=0
155842 On ch=1 n=a5 v=70
155940 On ch=1 n=a5 v=0
156028 On ch=1 n=d#5 v=67
156034 On ch=1 n=g5 v=77
156042 On ch=1 n=c5 v=65
156158 On ch=1 n=d#5 v=0
156178 On ch=1 n=c5 v=0
156200 On ch=1 n=f#5 v=90
156238 On ch=1 n=g5 v=0
156282 On ch=1 n=f#5 v=0
156358 On ch=1 n=d#5 v=80
156372 On ch=1 n=c5 v=65
156440 On ch=1 n=d#5 v=0
156460 On ch=1 n=c5 v=0
156508 On ch=1 n=a5 v=84
156590 On ch=1 n=a5 v=0
156678 On ch=1 n=d#5 v=74
156692 On ch=1 n=c5 v=60
156758 On ch=1 n=d#5 v=0
156784 On ch=1 n=c5 v=0
156854 On ch=1 n=c6 v=83
156946 On ch=1 n=c6 v=0
157044 On ch=1 n=d#5 v=57
157066 On ch=1 n=c5 v=52
157250 On ch=1 n=f#5 v=69
157318 On ch=1 n=d#5 v=0
157328 On ch=1 n=c5 v=0
157344 On ch=1 n=f#5 v=0
157514 On ch=1 n=a5 v=64
157582 Par ch=1 c=64 v=63
157610 Par ch=1 c=64 v=127
157768 On ch=1 n=g5 v=41
157786 On ch=1 n=a5 v=0
157888 On ch=1 n=g5 v=0
157920 Par ch=1 c=64 v=63
157948 On ch=1 n=a#4 v=60
157950 On ch=1 n=d5 v=51
157986 Par ch=1 c=64 v=0
158050 On ch=1 n=a#4 v=0
158058 On ch=1 n=d5 v=0
158124 On ch=1 n=a#5 v=76
158266 On ch=1 n=a#5 v=0
158282 Par ch=1 c=64 v=63
158288 On ch=1 n=a#4 v=59
158296 On ch=1 n=a5 v=66
158300 On ch=1 n=d5 v=52
158328 Par ch=1 c=64 v=127
158402 On ch=1 n=d5 v=0
158406 On ch=1 n=a#4 v=0
158440 On ch=1 n=g5 v=73
158480 On ch=1 n=a5 v=0
158538 Par ch=1 c=64 v=63
158546 On ch=1 n=g5 v=0
158594 On ch=1 n=a#4 v=71
158600 On ch=1 n=d5 v=70
158602 Par ch=1 c=64 v=0
158686 On ch=1 n=d5 v=0
158690 On ch=1 n=a#4 v=0
158748 On ch=1 n=a#5 v=87
158760 Par ch=1 c=64 v=63
158812 Par ch=1 c=64 v=127
158830 On ch=1 n=a#5 v=0
158850 Par ch=1 c=64 v=63
158884 Par ch=1 c=64 v=0
158906 On ch=1 n=a5 v=83
158916 On ch=1 n=a#4 v=58
158916 On ch=1 n=d5 v=59
158994 Par ch=1 c=64 v=63
159032 Par ch=1 c=64 v=127
159038 On ch=1 n=d5 v=0
159046 On ch=1 n=a#4 v=0
159056 On ch=1 n=g5 v=83
159098 On ch=1 n=a5 v=0
159164 On ch=1 n=g5 v=0
159210 On ch=1 n=d5 v=65
159210 On ch=1 n=a#4 v=73
159262 Par ch=1 c=64 v=63
159300 On ch=1 n=d5 v=0
159302 On ch=1 n=a#4 v=0
159340 Par ch=1 c=64 v=0
159356 On ch=1 n=a#5 v=96
159422 On ch=1 n=a#5 v=0
159462 Par ch=1 c=64 v=63
159500 On ch=1 n=a#4 v=79
159504 On ch=1 n=d5 v=73
159522 Par ch=1 c=64 v=127
159594 On ch=1 n=a#4 v=0
159602 On ch=1 n=d5 v=0
159616 Par ch=1 c=64 v=63
159672 On ch=1 n=d6 v=89
159726 Par ch=1 c=64 v=0
159768 On ch=1 n=d6 v=0
159846 On ch=1 n=a#4 v=70
159850 On ch=1 n=d5 v=65
159968 On ch=1 n=a#4 v=0
159974 On ch=1 n=d5 v=0
159996 On ch=1 n=g5 v=71
160078 On ch=1 n=g5 v=0
160194 On ch=1 n=a#5 v=88
160260 Par ch=1 c=64 v=63
160276 Par ch=1 c=64 v=127
160426 On ch=1 n=a5 v=74
160470 On ch=1 n=a#5 v=0
160514 On ch=1 n=a5 v=0
160584 On ch=1 n=d5 v=63
160596 On ch=1 n=f#4 v=63
160666 Par ch=1 c=64 v=63
160682 Par ch=1 c=64 v=0
160694 On ch=1 n=d5 v=0
160700 On ch=1 n=f#4 v=0
160736 On ch=1 n=c6 v=78
160826 On ch=1 n=c6 v=0
160870 On ch=1 n=d5 v=81
160878 On ch=1 n=f#4 v=76
160886 On ch=1 n=a#5 v=99
160998 On ch=1 n=d5 v=0
161016 On ch=1 n=f#4 v=0
161036 On ch=1 n=a5 v=89
161038 Par ch=1 c=64 v=63
161040 Par ch=1 c=64 v=127
161084 On ch=1 n=a#5 v=0
161116 On ch=1 n=a5 v=0
161182 On ch=1 n=d5 v=84
161188 On ch=1 n=f#4 v=83
161210 Par ch=1 c=64 v=63
161226 Par ch=1 c=64 v=0
161272 On ch=1 n=d5 v=0
161282 On ch=1 n=f#4 v=0
161324 On ch=1 n=c6 v=97
161386 Par ch=1 c=64 v=63
161390 Par ch=1 c=64 v=127
161412 On ch=1 n=c6 v=0
161478 On ch=1 n=a#5 v=109
161482 On ch=1 n=d5 v=84
161488 On ch=1 n=f#4 v=80
161556 Par ch=1 c=64 v=63
161570 Par ch=1 c=64 v=0
161596 On ch=1 n=d5 v=0
161604 On ch=1 n=f#4 v=0
161608 On ch=1 n=a#5 v=0
161616 On ch=1 n=a5 v=92
161712 On ch=1 n=a5 v=0
161776 On ch=1 n=d5 v=93
161778 On ch=1 n=f#4 v=90
161858 On ch=1 n=d5 v=0
161872 On ch=1 n=f#4 v=0
161914 On ch=1 n=c6 v=104
161988 On ch=1 n=c6 v=0
162048 On ch=1 n=d5 v=94
162060 On ch=1 n=f#4 v=86
162140 On ch=1 n=d5 v=0
162146 On ch=1 n=f#4 v=0
162200 On ch=1 n=d#6 v=108
162294 On ch=1 n=d#6 v=0
162370 On ch=1 n=d5 v=91
162378 On ch=1 n=f#4 v=79
162444 On ch=1 n=f#4 v=0
162456 On ch=1 n=d5 v=0
162518 On ch=1 n=a5 v=84
162638 On ch=1 n=a5 v=0
162710 On ch=1 n=d5 v=68
162720 On ch=1 n=g4 v=56
162728 On ch=1 n=c6 v=79
162756 Par ch=1 c=64 v=63
162764 Par ch=1 c=64 v=127
162842 On ch=1 n=c6 v=0
162844 On ch=1 n=d5 v=0
162846 On ch=1 n=g4 v=0
162938 On ch=1 n=a#5 v=73
163026 On ch=1 n=a#5 v=0
163134 On ch=1 n=a#4 v=55
163148 On ch=1 n=g4 v=55
163188 Par ch=1 c=64 v=63
163318 Par ch=1 c=64 v=127
163346 On ch=1 n=a#4 v=0
163364 On ch=1 n=g6 v=56
163398 On ch=1 n=g4 v=0
163478 On ch=1 n=g6 v=0
163514 Par ch=1 c=64 v=63
163548 On ch=1 n=a4 v=57
163568 On ch=1 n=c5 v=52
163652 Par ch=1 c=64 v=127
163708 On ch=1 n=c5 v=0
163720 On ch=1 n=f#6 v=81
163728 On ch=1 n=a4 v=0
163842 On ch=1 n=f#6 v=0
163856 Par ch=1 c=64 v=63
163866 On ch=1 n=d5 v=76
163874 On ch=1 n=b4 v=54
163922 On ch=1 n=b4 v=0
163970 Par ch=1 c=64 v=127
163984 On ch=1 n=d5 v=0
164026 On ch=1 n=f6 v=82
164132 On ch=1 n=f6 v=0
164168 On ch=1 n=d#5 v=70
164182 On ch=1 n=c5 v=52
164204 Par ch=1 c=64 v=63
164306 Par ch=1 c=64 v=127
164306 On ch=1 n=d#6 v=99
164320 On ch=1 n=d#5 v=0
164406 On ch=1 n=d#6 v=0
164412 On ch=1 n=c5 v=0
164470 On ch=1 n=f#5 v=88
164478 On ch=1 n=d5 v=75
164520 Par ch=1 c=64 v=63
164596 On ch=1 n=d6 v=94
164630 Par ch=1 c=64 v=127
164676 On ch=1 n=d5 v=0
164682 On ch=1 n=d6 v=0
164710 On ch=1 n=f#5 v=0
164772 On ch=1 n=g5 v=96
164780 On ch=1 n=e5 v=91
164796 Par ch=1 c=64 v=63
164892 Par ch=1 c=64 v=127
164918 On ch=1 n=c#6 v=101
164962 On ch=1 n=g5 v=0
165006 On ch=1 n=e5 v=0
165038 On ch=1 n=c#6 v=0
165058 Par ch=1 c=64 v=63
165060 On ch=1 n=a5 v=96
165068 On ch=1 n=f#5 v=95
165148 Par ch=1 c=64 v=127
165190 On ch=1 n=c6 v=96
165228 On ch=1 n=a5 v=0
165296 On ch=1 n=c6 v=0
165322 On ch=1 n=f#5 v=0
165336 On ch=1 n=a#5 v=109
165338 On ch=1 n=g5 v=92
165348 Par ch=1 c=64 v=63
165418 Par ch=1 c=64 v=127
165440 On ch=1 n=a#5 v=0
165478 On ch=1 n=d6 v=108
165484 On ch=1 n=g5 v=0
165564 Par ch=1 c=64 v=63
165588 On ch=1 n=d6 v=0
165594 Par ch=1 c=64 v=0
165634 On ch=1 n=a#4 v=99
165638 On ch=1 n=g4 v=91
165772 On ch=1 n=g6 v=106
165806 Par ch=1 c=64 v=63
165822 Par ch=1 c=64 v=127
165848 On ch=1 n=a#4 v=0
165868 On ch=1 n=g4 v=0
165900 On ch=1 n=g6 v=0
165916 On ch=1 n=c5 v=112
165916 On ch=1 n=a4 v=98
166072 On ch=1 n=f#6 v=115
166152 On ch=1 n=c5 v=0
166174 On ch=1 n=a4 v=0
166192 On ch=1 n=f#6 v=0
166210 On ch=1 n=b4 v=100
166212 On ch=1 n=d5 v=108
166282 On ch=1 n=b4 v=0
166318 On ch=1 n=d5 v=0
166350 On ch=1 n=f6 v=113
166468 On ch=1 n=f6 v=0
166480 Par ch=1 c=64 v=63
166494 On ch=1 n=c5 v=86
166496 On ch=1 n=g5 v=89
166506 On ch=1 n=d6 v=107
166572 Par ch=1 c=64 v=127
166584 On ch=1 n=c5 v=0
166646 On ch=1 n=d#6 v=113
166674 On ch=1 n=d6 v=0
166694 On ch=1 n=g5 v=0
166720 On ch=1 n=d#6 v=0
166766 Par ch=1 c=64 v=63
166776 On ch=1 n=c#5 v=110
166786 On ch=1 n=a#4 v=94
166872 Par ch=1 c=64 v=127
166918 On ch=1 n=e6 v=113
166932 Par ch=1 c=64 v=63
166956 Par ch=1 c=64 v=0
166976 On ch=1 n=c#5 v=0
166990 On ch=1 n=a#4 v=0
167026 On ch=1 n=e6 v=0
167068 On ch=1 n=a4 v=100
167072 On ch=1 n=c5 v=109
167082 On ch=1 n=g6 v=114
167084 Par ch=1 c=64 v=63
167108 Par ch=1 c=64 v=127
167250 On ch=1 n=c5 v=0
167266 On ch=1 n=a4 v=0
167302 On ch=1 n=f6 v=111
167372 On ch=1 n=g6 v=0
167400 On ch=1 n=f6 v=0
167432 On ch=1 n=d#5 v=94
167444 On ch=1 n=c5 v=76
167538 Par ch=1 c=64 v=63
167572 Par ch=1 c=64 v=0
167590 On ch=1 n=f#6 v=118
167610 Par ch=1 c=64 v=63
167664 Par ch=1 c=64 v=127
167690 On ch=1 n=f#6 v=0
167768 On ch=1 n=a#4 v=105
167768 On ch=1 n=a6 v=111
167774 On ch=1 n=d5 v=106
167792 On ch=1 n=c5 v=0
167822 On ch=1 n=d#5 v=0
167874 On ch=1 n=a#4 v=0
167904 On ch=1 n=g6 v=98
167922 On ch=1 n=d5 v=0
167934 On ch=1 n=a6 v=0
168022 Par ch=1 c=64 v=63
168032 Par ch=1 c=64 v=0
168044 On ch=1 n=d5 v=99
168054 On ch=1 n=f#4 v=99
168078 On ch=1 n=g6 v=0
168150 Par ch=1 c=64 v=63
168162 Par ch=1 c=64 v=127
168178 On ch=1 n=a6 v=117
168228 On ch=1 n=f#4 v=0
168238 On ch=1 n=d5 v=0
168328 On ch=1 n=g4 v=102
168330 On ch=1 n=d5 v=111
168350 On ch=1 n=c7 v=108
168384 On ch=1 n=a6 v=0
168512 On ch=1 n=a#6 v=116
168576 On ch=1 n=g4 v=0
168578 On ch=1 n=c7 v=0
168636 On ch=1 n=d5 v=0
168644 On ch=1 n=a#6 v=0
168662 On ch=1 n=f4 v=112
168668 On ch=1 n=g#4 v=109
168724 Par ch=1 c=64 v=63
168736 Par ch=1 c=64 v=0
168778 Par ch=1 c=64 v=63
168814 On ch=1 n=b6 v=112
168814 Par ch=1 c=64 v=127
168860 On ch=1 n=f4 v=0
168886 On ch=1 n=g#4 v=0
169000 On ch=1 n=b6 v=0
169016 On ch=1 n=g4 v=113
169022 On ch=1 n=e4 v=114
169022 Par ch=1 c=64 v=63
169026 On ch=1 n=d7 v=112
169098 Par ch=1 c=64 v=127
169246 On ch=1 n=g4 v=0
169272 On ch=1 n=e4 v=0
169304 On ch=1 n=c#7 v=112
169370 On ch=1 n=d7 v=0
169508 On ch=1 n=c#7 v=0
169544 On ch=1 n=d4 v=106
169546 On ch=1 n=a#4 v=112
169546 On ch=1 n=g4 v=103
169654 Par ch=1 c=64 v=63
169664 Par ch=1 c=64 v=0
169866 On ch=1 n=d7 v=114
170014 Par ch=1 c=64 v=63
170016 Par ch=1 c=64 v=127
170188 On ch=1 n=d4 v=0
170224 On ch=1 n=a#4 v=0
170242 On ch=1 n=g4 v=0
170328 On ch=1 n=a#4 v=110
170334 On ch=1 n=g4 v=102
170338 On ch=1 n=c#4 v=112
170340 On ch=1 n=f7 v=121
170406 On ch=1 n=d7 v=0
170408 Par ch=1 c=64 v=63
170416 Par ch=1 c=64 v=0
170494 Par ch=1 c=64 v=63
170508 Par ch=1 c=64 v=127
170840 On ch=1 n=c#4 v=0
170868 On ch=1 n=g4 v=0
170886 On ch=1 n=a#4 v=0
171946 On ch=1 n=e7 v=106
172034 On ch=1 n=f7 v=0
172918 On ch=1 n=e7 v=0
173728 Par ch=1 c=64 v=63
173730 Par ch=1 c=64 v=127
174030 On ch=1 n=d#7 v=119
174084 Par ch=1 c=64 v=63
174090 Par ch=1 c=64 v=0
174380 On ch=1 n=e7 v=112
174440 On ch=1 n=d#7 v=0
174500 Par ch=1 c=64 v=63
174502 Par ch=1 c=64 v=127
174610 On ch=1 n=d7 v=107
174670 On ch=1 n=e7 v=0
174782 On ch=1 n=c#7 v=112
174830 On ch=1 n=d7 v=0
174930 On ch=1 n=b6 v=98
174986 On ch=1 n=c#7 v=0
175068 On ch=1 n=a6 v=98
175074 On ch=1 n=b6 v=0
175178 On ch=1 n=g#6 v=108
175194 On ch=1 n=a6 v=0
175300 On ch=1 n=a#6 v=108
175304 On ch=1 n=g#6 v=0
175420 On ch=1 n=a6 v=90
175430 On ch=1 n=a#6 v=0
175490 On ch=1 n=c7 v=90
175508 On ch=1 n=a6 v=0
175578 On ch=1 n=a#6 v=94
175602 On ch=1 n=c7 v=0
175634 On ch=1 n=a6 v=88
175674 On ch=1 n=a#6 v=0
175722 On ch=1 n=g6 v=82
175724 On ch=1 n=a6 v=0
175790 On ch=1 n=g6 v=0
175802 On ch=1 n=f6 v=84
175868 On ch=1 n=e6 v=98
175882 On ch=1 n=f6 v=0
175934 On ch=1 n=e6 v=0
175936 On ch=1 n=d6 v=85
176006 On ch=1 n=d6 v=0
176008 On ch=1 n=c#6 v=99
176098 On ch=1 n=c#6 v=0
176100 On ch=1 n=b5 v=81
176158 On ch=1 n=a5 v=84
176160 On ch=1 n=b5 v=0
176234 On ch=1 n=a5 v=0
176262 On ch=1 n=g#5 v=99
176380 On ch=1 n=a#5 v=108
176418 On ch=1 n=g#5 v=0
176544 On ch=1 n=a5 v=86
176562 On ch=1 n=a#5 v=0
176630 On ch=1 n=c6 v=91
176656 On ch=1 n=a5 v=0
176700 On ch=1 n=a#5 v=99
176736 On ch=1 n=c6 v=0
176768 On ch=1 n=a5 v=88
176802 On ch=1 n=a#5 v=0
176820 On ch=1 n=g5 v=81
176842 On ch=1 n=a5 v=0
176906 On ch=1 n=g5 v=0
176910 On ch=1 n=f5 v=91
176978 On ch=1 n=e5 v=99
176990 On ch=1 n=f5 v=0
177044 On ch=1 n=e5 v=0
177046 On ch=1 n=d5 v=90
177100 On ch=1 n=d5 v=0
177112 On ch=1 n=c#5 v=106
177200 On ch=1 n=b4 v=97
177216 On ch=1 n=c#5 v=0
177258 On ch=1 n=a4 v=83
177280 On ch=1 n=b4 v=0
177354 On ch=1 n=g#4 v=106
177372 On ch=1 n=a4 v=0
177464 On ch=1 n=a#4 v=101
177494 On ch=1 n=g#4 v=0
177566 On ch=1 n=a4 v=98
177614 On ch=1 n=a#4 v=0
177662 On ch=1 n=c5 v=100
177694 On ch=1 n=a4 v=0
177714 On ch=1 n=a#4 v=94
177770 On ch=1 n=c5 v=0
177774 On ch=1 n=a4 v=84
177834 On ch=1 n=a#4 v=0
177842 On ch=1 n=g4 v=89
177870 On ch=1 n=a4 v=0
177930 On ch=1 n=g4 v=0
177932 On ch=1 n=f4 v=101
178002 On ch=1 n=e4 v=102
178034 On ch=1 n=f4 v=0
178080 On ch=1 n=d4 v=99
178084 On ch=1 n=e4 v=0
178148 On ch=1 n=c#4 v=110
178168 On ch=1 n=d4 v=0
178244 On ch=1 n=b3 v=101
178252 On ch=1 n=c#4 v=0
178330 On ch=1 n=a3 v=88
178334 On ch=1 n=b3 v=0
178420 On ch=1 n=g#3 v=107
178440 On ch=1 n=a3 v=0
178506 On ch=1 n=a#3 v=107
178548 On ch=1 n=g#3 v=0
178604 On ch=1 n=a3 v=97
178654 On ch=1 n=a#3 v=0
178692 On ch=1 n=c4 v=100
178738 On ch=1 n=a3 v=0
178766 On ch=1 n=a#3 v=104
178842 On ch=1 n=c4 v=0
178846 On ch=1 n=a3 v=87
178920 On ch=1 n=a#3 v=0
178924 On ch=1 n=g3 v=98
178966 On ch=1 n=a3 v=0
179028 On ch=1 n=f3 v=112
179032 On ch=1 n=g3 v=0
179106 On ch=1 n=e3 v=103
179160 On ch=1 n=f3 v=0
179174 On ch=1 n=d3 v=111
179228 On ch=1 n=e3 v=0
179286 On ch=1 n=a2 v=126
179298 On ch=1 n=d3 v=0
179312 Par ch=1 c=64 v=63
179332 Par ch=1 c=64 v=0
180246 On ch=1 n=a3 v=126
180304 Par ch=1 c=64 v=63
180310 Par ch=1 c=64 v=127
181732 On ch=1 n=b3 v=97
181826 On ch=1 n=a3 v=0
182100 On ch=1 n=a3 v=99
182192 On ch=1 n=b3 v=0
182338 On ch=1 n=g#3 v=109
182384 On ch=1 n=a3 v=0
182532 On ch=1 n=a3 v=111
182606 On ch=1 n=g#3 v=0
182638 Par ch=1 c=64 v=63
182670 Par ch=1 c=64 v=0
182850 Par ch=1 c=64 v=63
182868 Par ch=1 c=64 v=127
183124 Par ch=1 c=64 v=63
183132 Par ch=1 c=64 v=0
183248 Par ch=1 c=64 v=63
183256 Par ch=1 c=64 v=127
183398 On ch=1 n=a#3 v=87
183514 On ch=1 n=a3 v=0
183692 On ch=1 n=b3 v=84
183736 On ch=1 n=a#3 v=0
183896 On ch=1 n=b3 v=0
183898 On ch=1 n=c4 v=86
184042 On ch=1 n=c#4 v=84
184056 On ch=1 n=c4 v=0
184186 On ch=1 n=c#4 v=0
184198 On ch=1 n=d4 v=76
184328 On ch=1 n=d4 v=0
184336 On ch=1 n=d#4 v=83
184436 On ch=1 n=d#4 v=0
184452 On ch=1 n=e4 v=79
184572 On ch=1 n=e4 v=0
184578 On ch=1 n=f4 v=78
184658 On ch=1 n=f#4 v=72
184686 On ch=1 n=f4 v=0
184768 On ch=1 n=f#4 v=0
184770 On ch=1 n=g4 v=70
184772 Par ch=1 c=64 v=63
184790 Par ch=1 c=64 v=0
184846 Par ch=1 c=64 v=63
184872 On ch=1 n=g#4 v=68
184880 Par ch=1 c=64 v=127
184882 On ch=1 n=g4 v=0
184978 On ch=1 n=g#4 v=0
184986 On ch=1 n=a4 v=70
185080 On ch=1 n=a#4 v=72
185082 On ch=1 n=a4 v=0
185168 On ch=1 n=a#4 v=0
185172 On ch=1 n=b4 v=77
185274 On ch=1 n=c5 v=80
185276 On ch=1 n=b4 v=0
185346 On ch=1 n=c#5 v=69
185360 On ch=1 n=c5 v=0
185412 Par ch=1 c=64 v=63
185430 On ch=1 n=c#5 v=0
185434 On ch=1 n=d5 v=73
185444 Par ch=1 c=64 v=0
185482 Par ch=1 c=64 v=63
185528 On ch=1 n=d#5 v=71
185530 On ch=1 n=d5 v=0
185532 Par ch=1 c=64 v=127
185612 On ch=1 n=d#5 v=0
185628 On ch=1 n=e5 v=69
185724 On ch=1 n=e5 v=0
185726 On ch=1 n=f5 v=58
185798 On ch=1 n=f#5 v=54
185810 On ch=1 n=f5 v=0
185862 On ch=1 n=a2 v=0
185892 On ch=1 n=f#5 v=0
185892 On ch=1 n=g5 v=55
185988 On ch=1 n=g5 v=0
185988 On ch=1 n=g#5 v=53
186092 On ch=1 n=g#5 v=0
186104 On ch=1 n=a5 v=54
186200 On ch=1 n=a5 v=0
186210 On ch=1 n=a#5 v=55
186304 On ch=1 n=a#5 v=0
186306 On ch=1 n=b5 v=49
186442 On ch=1 n=b5 v=0
186446 On ch=1 n=c6 v=45
186554 On ch=1 n=c#6 v=44
186556 On ch=1 n=c6 v=0
186678 On ch=1 n=c#6 v=0
186692 On ch=1 n=d6 v=40
186844 On ch=1 n=d#6 v=38
186852 On ch=1 n=d6 v=0
186894 Par ch=1 c=64 v=63
187040 On ch=1 n=e6 v=35
187052 On ch=1 n=d#6 v=0
187134 Par ch=1 c=64 v=0
187366 On ch=1 n=d5 v=41
187432 On ch=1 n=f6 v=68
187458 On ch=1 n=e6 v=0
188300 Par ch=1 c=64 v=63
188306 On ch=1 n=a5 v=28
188316 Par ch=1 c=64 v=127
188320 On ch=1 n=f5 v=25
188670 On ch=1 n=f5 v=0
188682 On ch=1 n=a5 v=0
188948 On ch=1 n=a5 v=30
188968 On ch=1 n=f5 v=19
189098 On ch=1 n=a5 v=0
189104 On ch=1 n=f5 v=0
189494 On ch=1 n=a5 v=26
189520 On ch=1 n=f5 v=14
189534 On ch=1 n=f6 v=0
189724 On ch=1 n=a5 v=0
189734 On ch=1 n=f5 v=0
189870 On ch=1 n=d5 v=0
189910 On ch=1 n=e6 v=68
190008 On ch=1 n=f6 v=69
190030 On ch=1 n=e6 v=0
190208 On ch=1 n=d5 v=20
190208 On ch=1 n=g6 v=60
190250 On ch=1 n=f6 v=0
190326 Par ch=1 c=64 v=63
190434 Par ch=1 c=64 v=127
190778 On ch=1 n=f6 v=66
190812 On ch=1 n=a5 v=19
190840 On ch=1 n=f5 v=6
190870 On ch=1 n=g6 v=0
190982 On ch=1 n=a5 v=0
190996 On ch=1 n=f5 v=0
191020 On ch=1 n=f6 v=0
191304 On ch=1 n=e6 v=74
191306 On ch=1 n=a5 v=28
191320 On ch=1 n=f5 v=17
191482 On ch=1 n=a5 v=0
191486 On ch=1 n=f5 v=0
191846 On ch=1 n=d6 v=68
191856 On ch=1 n=e6 v=0
191866 On ch=1 n=a5 v=22
191870 On ch=1 n=f5 v=19
191960 On ch=1 n=d6 v=0
191986 On ch=1 n=a5 v=0
191994 On ch=1 n=f5 v=0
192098 On ch=1 n=d5 v=0
192406 On ch=1 n=c#6 v=67
192446 On ch=1 n=e5 v=22
192524 Par ch=1 c=64 v=63
192562 Par ch=1 c=64 v=0
192724 Par ch=1 c=64 v=63
192748 Par ch=1 c=64 v=127
193034 On ch=1 n=g5 v=25
193036 On ch=1 n=a5 v=19
193226 On ch=1 n=g5 v=0
193232 On ch=1 n=a5 v=0
193538 On ch=1 n=a5 v=26
193540 On ch=1 n=g5 v=28
193688 On ch=1 n=g5 v=0
193694 On ch=1 n=a5 v=0
193926 On ch=1 n=c#6 v=0
194082 On ch=1 n=a5 v=23
194094 On ch=1 n=g5 v=20
194296 On ch=1 n=d6 v=57
194298 On ch=1 n=a5 v=0
194312 On ch=1 n=g5 v=0
194332 On ch=1 n=e5 v=0
194506 On ch=1 n=d6 v=0
194518 Par ch=1 c=64 v=63
194544 On ch=1 n=d#6 v=69
194548 Par ch=1 c=64 v=0
194556 On ch=1 n=e5 v=37
194674 Par ch=1 c=64 v=63
194704 Par ch=1 c=64 v=127
195102 On ch=1 n=e6 v=47
195116 On ch=1 n=a5 v=25
195116 On ch=1 n=g5 v=28
195120 Par ch=1 c=64 v=63
195160 Par ch=1 c=64 v=0
195168 On ch=1 n=d#6 v=0
195268 Par ch=1 c=64 v=63
195298 Par ch=1 c=64 v=127
195440 On ch=1 n=g5 v=0
195448 On ch=1 n=a5 v=0
195668 On ch=1 n=e6 v=0
195684 On ch=1 n=a5 v=16
195690 On ch=1 n=g5 v=18
195892 Par ch=1 c=64 v=63
195954 Par ch=1 c=64 v=0
195980 On ch=1 n=g5 v=0
196022 On ch=1 n=a5 v=0
196058 Par ch=1 c=64 v=63
196092 Par ch=1 c=64 v=127
196284 On ch=1 n=a5 v=17
196296 On ch=1 n=g5 v=21
196556 On ch=1 n=g5 v=0
196576 On ch=1 n=a5 v=0
196834 On ch=1 n=e5 v=0
197050 On ch=1 n=c#5 v=44
197078 On ch=1 n=g6 v=75
197420 Par ch=1 c=64 v=63
197496 Par ch=1 c=64 v=0
197560 Par ch=1 c=64 v=63
197618 Par ch=1 c=64 v=127
197796 On ch=1 n=a5 v=19
197820 On ch=1 n=e5 v=33
197992 On ch=1 n=e5 v=0
198016 On ch=1 n=a5 v=0
198338 On ch=1 n=a5 v=30
198350 On ch=1 n=e5 v=32
198488 On ch=1 n=e5 v=0
198520 On ch=1 n=a5 v=0
198868 On ch=1 n=a5 v=27
198878 On ch=1 n=e5 v=27
199084 On ch=1 n=a5 v=0
199158 On ch=1 n=e5 v=0
199184 On ch=1 n=f#6 v=74
199194 On ch=1 n=g6 v=0
199224 On ch=1 n=c#5 v=0
199318 On ch=1 n=g6 v=79
199350 On ch=1 n=f#6 v=0
199498 On ch=1 n=c#5 v=47
199522 On ch=1 n=a6 v=82
199568 Par ch=1 c=64 v=63
199598 Par ch=1 c=64 v=0
199612 On ch=1 n=g6 v=0
199748 Par ch=1 c=64 v=63
199768 Par ch=1 c=64 v=127
200100 On ch=1 n=g6 v=59
200124 On ch=1 n=a5 v=27
200130 On ch=1 n=a6 v=0
200142 On ch=1 n=e5 v=26
200372 On ch=1 n=a5 v=0
200386 On ch=1 n=e5 v=0
200634 On ch=1 n=f6 v=69
200662 On ch=1 n=a5 v=28
200666 On ch=1 n=e5 v=36
200682 On ch=1 n=g6 v=0
200770 Par ch=1 c=64 v=63
200836 Par ch=1 c=64 v=0
200850 Par ch=1 c=64 v=63
200908 Par ch=1 c=64 v=127
201004 On ch=1 n=a5 v=0
201006 On ch=1 n=e5 v=0
201142 On ch=1 n=e6 v=72
201168 On ch=1 n=a5 v=29
201170 On ch=1 n=e5 v=40
201244 On ch=1 n=f6 v=0
201438 On ch=1 n=a5 v=0
201456 On ch=1 n=e5 v=0
201468 On ch=1 n=e6 v=0
201508 On ch=1 n=c#5 v=0
201668 On ch=1 n=d5 v=49
201678 On ch=1 n=d6 v=65
201804 Par ch=1 c=64 v=63
201834 Par ch=1 c=64 v=0
202002 Par ch=1 c=64 v=63
202022 Par ch=1 c=64 v=127
202196 On ch=1 n=a5 v=30
202200 On ch=1 n=f5 v=32
202366 On ch=1 n=f5 v=0
202374 On ch=1 n=a5 v=0
202590 On ch=1 n=d6 v=0
202718 On ch=1 n=a5 v=19
202730 On ch=1 n=f5 v=23
202864 On ch=1 n=f5 v=0
202878 On ch=1 n=a5 v=0
203260 On ch=1 n=a5 v=18
203268 On ch=1 n=f5 v=22
203358 Par ch=1 c=64 v=63
203372 Par ch=1 c=64 v=0
203502 Par ch=1 c=64 v=63
203518 Par ch=1 c=64 v=127
203548 On ch=1 n=e6 v=56
203654 On ch=1 n=a5 v=0
203658 On ch=1 n=f5 v=0
203668 On ch=1 n=d5 v=0
203818 On ch=1 n=e6 v=0
203872 On ch=1 n=g6 v=51
203874 On ch=1 n=d5 v=49
203990 Par ch=1 c=64 v=63
204006 Par ch=1 c=64 v=0
204172 Par ch=1 c=64 v=63
204188 Par ch=1 c=64 v=127
204440 On ch=1 n=f6 v=54
204472 On ch=1 n=f5 v=19
204476 On ch=1 n=a5 v=17
204526 On ch=1 n=g6 v=0
204700 On ch=1 n=a5 v=0
204718 On ch=1 n=f5 v=0
205068 On ch=1 n=f5 v=14
205068 On ch=1 n=a5 v=17
205078 On ch=1 n=f6 v=0
205226 On ch=1 n=f5 v=0
205232 On ch=1 n=a5 v=0
205732 On ch=1 n=f5 v=18
205732 On ch=1 n=a5 v=20
206464 On ch=1 n=f5 v=0
206484 On ch=1 n=a5 v=0
206630 On ch=1 n=d5 v=0
206662 Par ch=1 c=64 v=63
206682 Par ch=1 c=64 v=0
206696 On ch=1 n=a5 v=106
206696 On ch=1 n=a6 v=116
207184 Par ch=1 c=64 v=63
207186 Par ch=1 c=64 v=127
207958 On ch=1 n=d5 v=89
207974 On ch=1 n=f4 v=59
207976 On ch=1 n=a4 v=76
208268 On ch=1 n=a5 v=0
208640 On ch=1 n=a4 v=0
208704 On ch=1 n=f4 v=0
208792 On ch=1 n=a6 v=0
208942 On ch=1 n=d5 v=0
209670 On ch=1 n=a#6 v=70
209674 On ch=1 n=c#5 v=51
209678 On ch=1 n=a#5 v=42
209704 On ch=1 n=g4 v=49
209730 On ch=1 n=e4 v=41
209872 Par ch=1 c=64 v=63
209900 Par ch=1 c=64 v=0
210096 Par ch=1 c=64 v=63
210114 Par ch=1 c=64 v=127
210294 On ch=1 n=c#5 v=0
210312 On ch=1 n=e4 v=0
210316 On ch=1 n=g4 v=0
210330 On ch=1 n=a#6 v=0
210350 On ch=1 n=a#5 v=0
210824 Par ch=1 c=64 v=63
210880 Par ch=1 c=64 v=0
212130 On ch=1 n=a6 v=41
212274 Par ch=1 c=64 v=63
212290 Par ch=1 c=64 v=127
212534 On ch=1 n=a6 v=0
212940 On ch=1 n=d7 v=68
213104 On ch=1 n=f5 v=40
213116 On ch=1 n=d6 v=41
213120 Par ch=1 c=64 v=63
213122 On ch=1 n=c#7 v=70
213134 On ch=1 n=d7 v=0
213154 Par ch=1 c=64 v=0
213328 Par ch=1 c=64 v=63
213354 Par ch=1 c=64 v=127
213424 On ch=1 n=c7 v=78
213464 On ch=1 n=c#7 v=0
213652 On ch=1 n=b6 v=91
213664 On ch=1 n=f5 v=0
213706 On ch=1 n=c7 v=0
213964 On ch=1 n=b6 v=0
213974 On ch=1 n=a#6 v=66
213996 On ch=1 n=g5 v=24
214004 On ch=1 n=c#6 v=50
214018 On ch=1 n=d6 v=0
214144 Par ch=1 c=64 v=63
214208 Par ch=1 c=64 v=0
214832 On ch=1 n=a#6 v=0
214846 On ch=1 n=c#6 v=0
214858 On ch=1 n=g5 v=0
215750 On ch=1 n=a6 v=63
215750 Par ch=1 c=64 v=63
215760 On ch=1 n=f5 v=48
215768 Par ch=1 c=64 v=127
215772 On ch=1 n=d6 v=37
215870 On ch=1 n=d6 v=0
215872 On ch=1 n=a6 v=0
215876 On ch=1 n=f5 v=0
216002 On ch=1 n=a6 v=76
216032 On ch=1 n=d6 v=44
216044 On ch=1 n=e5 v=27
216068 Par ch=1 c=64 v=63
216104 Par ch=1 c=64 v=0
216180 Par ch=1 c=64 v=63
216222 Par ch=1 c=64 v=127
216420 Par ch=1 c=64 v=63
216474 Par ch=1 c=64 v=0
216640 On ch=1 n=g#6 v=46
216714 Par ch=1 c=64 v=63
216720 On ch=1 n=a6 v=0
216862 Par ch=1 c=64 v=0
217300 On ch=1 n=e5 v=0
217326 On ch=1 n=g#6 v=0
217394 On ch=1 n=d6 v=0
218298 On ch=1 n=g#6 v=51
218310 Par ch=1 c=64 v=63
218324 Par ch=1 c=64 v=127
218524 On ch=1 n=g#6 v=0
218586 On ch=1 n=c#6 v=32
218590 On ch=1 n=a5 v=25
218598 On ch=1 n=e7 v=48
219222 On ch=1 n=g6 v=42
219334 On ch=1 n=e7 v=0
219880 Par ch=1 c=64 v=63
219934 On ch=1 n=c#6 v=0
219944 Par ch=1 c=64 v=0
219952 On ch=1 n=a5 v=0
219964 On ch=1 n=g6 v=0
221088 Par ch=1 c=64 v=63
221100 On ch=1 n=g6 v=30
221152 Par ch=1 c=64 v=127
221414 On ch=1 n=g6 v=0
221424 On ch=1 n=e6 v=43
221438 On ch=1 n=a#5 v=35
221456 On ch=1 n=d6 v=31
222246 On ch=1 n=f6 v=28
222470 On ch=1 n=e6 v=0
223084 Par ch=1 c=64 v=63
223108 On ch=1 n=a#5 v=0
223126 Par ch=1 c=64 v=0
223140 On ch=1 n=f6 v=0
223154 On ch=1 n=d6 v=0
224590 On ch=1 n=f6 v=86
224698 Par ch=1 c=64 v=63
224704 Par ch=1 c=64 v=127
224888 On ch=1 n=d#6 v=121
224888 On ch=1 n=d#5 v=105
224896 On ch=1 n=g4 v=76
224898 On ch=1 n=a#4 v=91
224960 On ch=1 n=f6 v=0
225056 Par ch=1 c=64 v=63
225062 Par ch=1 c=64 v=0
226108 Par ch=1 c=64 v=63
226108 Par ch=1 c=64 v=127
226406 On ch=1 n=d#6 v=0
226430 On ch=1 n=f6 v=82
226494 On ch=1 n=d#6 v=93
226538 On ch=1 n=f6 v=0
226562 On ch=1 n=d6 v=84
226580 On ch=1 n=d#6 v=0
226640 On ch=1 n=d#6 v=107
226698 On ch=1 n=d6 v=0
226890 On ch=1 n=d#6 v=0
226898 On ch=1 n=f6 v=109
227052 Par ch=1 c=64 v=63
227060 Par ch=1 c=64 v=0
227074 On ch=1 n=g6 v=112
227088 On ch=1 n=f6 v=0
227124 Par ch=1 c=64 v=63
227150 Par ch=1 c=64 v=127
227290 On ch=1 n=g6 v=0
227316 On ch=1 n=a6 v=84
227362 On ch=1 n=g6 v=86
227384 On ch=1 n=a6 v=0
227422 On ch=1 n=f#6 v=103
227462 On ch=1 n=g6 v=0
227500 On ch=1 n=g6 v=112
227500 Par ch=1 c=64 v=63
227514 Par ch=1 c=64 v=0
227556 On ch=1 n=f#6 v=0
227806 On ch=1 n=a6 v=117
227818 Par ch=1 c=64 v=63
227824 Par ch=1 c=64 v=127
227872 On ch=1 n=g6 v=0
228134 On ch=1 n=a#6 v=118
228178 On ch=1 n=a6 v=0
228316 Par ch=1 c=64 v=63
228324 Par ch=1 c=64 v=0
228648 Par ch=1 c=64 v=63
228670 Par ch=1 c=64 v=127
228844 On ch=1 n=d#5 v=0
228852 On ch=1 n=a#6 v=0
228870 On ch=1 n=g4 v=0
228874 On ch=1 n=a#4 v=0
228992 Par ch=1 c=64 v=63
229004 Par ch=1 c=64 v=0
229412 On ch=1 n=g#3 v=116
229464 Par ch=1 c=64 v=127
229640 On ch=1 n=b3 v=96
229748 On ch=1 n=d4 v=90
229834 On ch=1 n=f4 v=103
229852 On ch=1 n=g#3 v=0
229862 On ch=1 n=b3 v=0
229884 On ch=1 n=d4 v=0
229910 On ch=1 n=f4 v=0
229922 On ch=1 n=g#4 v=91
230004 On ch=1 n=b4 v=81
230018 On ch=1 n=g#4 v=0
230062 On ch=1 n=d5 v=97
230118 On ch=1 n=b4 v=0
230128 On ch=1 n=f5 v=83
230176 On ch=1 n=d5 v=0
230178 On ch=1 n=f5 v=0
230220 On ch=1 n=g#5 v=94
230316 On ch=1 n=b5 v=86
230366 On ch=1 n=d6 v=85
230430 On ch=1 n=f6 v=99
230500 On ch=1 n=g#6 v=86
230584 On ch=1 n=b6 v=75
230604 On ch=1 n=g#6 v=0
230632 On ch=1 n=d7 v=101
230680 On ch=1 n=b6 v=0
230718 On ch=1 n=d7 v=0
230748 On ch=1 n=f7 v=118
230836 On ch=1 n=f6 v=0
230842 On ch=1 n=f7 v=0
230846 On ch=1 n=g#5 v=0
230852 On ch=1 n=d6 v=0
230852 On ch=1 n=b5 v=0
231646 Par ch=1 c=64 v=63
231672 Par ch=1 c=64 v=0
232780 On ch=1 n=a6 v=47
232792 On ch=1 n=d6 v=40
232794 On ch=1 n=f5 v=38
232794 On ch=1 n=a5 v=22
232794 On ch=1 n=a4 v=38
233186 On ch=1 n=d6 v=0
233194 On ch=1 n=a4 v=0
233196 On ch=1 n=a6 v=0
233202 On ch=1 n=f5 v=0
233210 On ch=1 n=a5 v=0
235286 On ch=1 n=c#5 v=42
235290 On ch=1 n=g4 v=40
235292 On ch=1 n=e4 v=22
235296 On ch=1 n=a2 v=36
235318 On ch=1 n=a3 v=23
235388 Par ch=1 c=64 v=63
235434 Par ch=1 c=64 v=127
235696 On ch=1 n=c#5 v=0
235724 On ch=1 n=g4 v=0
235750 On ch=1 n=e4 v=0
235776 On ch=1 n=a3 v=0
235784 On ch=1 n=a2 v=0
236276 Par ch=1 c=64 v=63
236440 Par ch=1 c=64 v=0
238512 On ch=1 n=a5 v=48
238526 On ch=1 n=f#5 v=44
238554 On ch=1 n=d5 v=34
238554 Par ch=1 c=64 v=63
238582 Par ch=1 c=64 v=127
238942 On ch=1 n=f#6 v=76
238944 On ch=1 n=a5 v=0
239062 On ch=1 n=d5 v=0
239140 On ch=1 n=d6 v=78
239158 On ch=1 n=f#6 v=0
239346 On ch=1 n=c#6 v=85
239374 On ch=1 n=g5 v=60
239374 Par ch=1 c=64 v=63
239376 On ch=1 n=d5 v=52
239396 On ch=1 n=d6 v=0
239454 On ch=1 n=f#5 v=0
239472 Par ch=1 c=64 v=127
239752 On ch=1 n=b5 v=79
239770 On ch=1 n=c#6 v=0
239974 On ch=1 n=b5 v=0
239984 On ch=1 n=g6 v=77
240074 On ch=1 n=e6 v=84
240092 Par ch=1 c=64 v=63
240096 On ch=1 n=g5 v=0
240114 On ch=1 n=g6 v=0
240148 On ch=1 n=g5 v=41
240156 On ch=1 n=d6 v=85
240158 On ch=1 n=e5 v=67
240166 Par ch=1 c=64 v=127
240180 On ch=1 n=e6 v=0
240370 On ch=1 n=c#6 v=106
240426 On ch=1 n=d6 v=0
240516 On ch=1 n=c#6 v=0
240574 On ch=1 n=b6 v=100
240748 On ch=1 n=a6 v=104
240810 On ch=1 n=b6 v=0
240870 On ch=1 n=d5 v=0
240906 On ch=1 n=a6 v=0
240964 On ch=1 n=a6 v=98
240966 On ch=1 n=f#5 v=78
240974 On ch=1 n=d6 v=98
240976 On ch=1 n=d5 v=71
240996 On ch=1 n=e5 v=0
241000 Par ch=1 c=64 v=63
241024 On ch=1 n=g5 v=0
241120 Par ch=1 c=64 v=127
241296 On ch=1 n=a6 v=0
241298 On ch=1 n=b6 v=79
241358 On ch=1 n=g6 v=93
241360 On ch=1 n=d6 v=0
241398 Par ch=1 c=64 v=63
241412 Par ch=1 c=64 v=0
241414 On ch=1 n=b6 v=0
241430 On ch=1 n=f#6 v=107
241490 On ch=1 n=g6 v=0
241498 Par ch=1 c=64 v=63
241534 Par ch=1 c=64 v=127
241606 On ch=1 n=d5 v=0
241626 On ch=1 n=f#5 v=0
241654 On ch=1 n=a6 v=100
241656 On ch=1 n=f#6 v=0
241730 On ch=1 n=f#6 v=95
241748 Par ch=1 c=64 v=63
241762 On ch=1 n=a6 v=0
241762 Par ch=1 c=64 v=0
241810 On ch=1 n=e6 v=98
241820 On ch=1 n=g#5 v=82
241830 On ch=1 n=f#6 v=0
241832 On ch=1 n=d6 v=76
241890 On ch=1 n=e6 v=0
241908 On ch=1 n=g#5 v=0
241924 On ch=1 n=d6 v=0
242034 On ch=1 n=g#5 v=80
242034 On ch=1 n=d6 v=72
242040 On ch=1 n=e6 v=88
242084 On ch=1 n=e6 v=0
242106 On ch=1 n=d6 v=0
242108 On ch=1 n=g#5 v=0
242228 On ch=1 n=e6 v=96
242240 On ch=1 n=d6 v=55
242242 On ch=1 n=g#5 v=65
242296 On ch=1 n=g#5 v=0
242298 On ch=1 n=d6 v=0
242298 On ch=1 n=e6 v=0
242410 On ch=1 n=g#5 v=70
242428 On ch=1 n=d6 v=58
242430 On ch=1 n=e6 v=82
242492 On ch=1 n=e6 v=0
242496 On ch=1 n=g#5 v=0
242518 On ch=1 n=d6 v=0
242620 On ch=1 n=a5 v=74
242624 On ch=1 n=c#6 v=76
242630 On ch=1 n=e6 v=93
242662 Par ch=1 c=64 v=63
242670 Par ch=1 c=64 v=127
242694 On ch=1 n=c#6 v=0
242716 On ch=1 n=a5 v=0
242826 On ch=1 n=a6 v=83
242846 On ch=1 n=e6 v=0
242858 Par ch=1 c=64 v=63
242870 Par ch=1 c=64 v=0
242904 On ch=1 n=a6 v=0
243018 Par ch=1 c=64 v=63
243036 On ch=1 n=b5 v=76
243036 Par ch=1 c=64 v=127
243048 On ch=1 n=f#5 v=81
243052 On ch=1 n=d5 v=66
243100 On ch=1 n=f#5 v=0
243128 On ch=1 n=d5 v=0
243224 On ch=1 n=f#6 v=91
243226 On ch=1 n=b5 v=0
243296 Par ch=1 c=64 v=63
243300 On ch=1 n=f#6 v=0
243310 Par ch=1 c=64 v=0
243440 On ch=1 n=a5 v=84
243454 Par ch=1 c=64 v=63
243458 On ch=1 n=c#5 v=66
243470 On ch=1 n=e4 v=53
243476 Par ch=1 c=64 v=127
243540 On ch=1 n=a5 v=0
243750 On ch=1 n=c#5 v=0
243846 Par ch=1 c=64 v=63
243856 Par ch=1 c=64 v=0
243884 On ch=1 n=d5 v=52
243884 On ch=1 n=c#6 v=67
243886 On ch=1 n=g#5 v=53
244198 On ch=1 n=c#6 v=0
244220 On ch=1 n=b5 v=65
244228 On ch=1 n=e4 v=0
244250 On ch=1 n=g#5 v=0
244298 On ch=1 n=a5 v=79
244308 On ch=1 n=a4 v=25
244310 On ch=1 n=c#5 v=57
244322 On ch=1 n=b5 v=0
244328 On ch=1 n=d5 v=0
244724 On ch=1 n=a4 v=0
244726 On ch=1 n=c#5 v=0
244732 On ch=1 n=a5 v=0
245210 On ch=1 n=a5 v=71
245216 On ch=1 n=f#5 v=58
245228 On ch=1 n=d5 v=41
245270 Par ch=1 c=64 v=63
245276 Par ch=1 c=64 v=127
245646 On ch=1 n=f#6 v=84
245648 On ch=1 n=a5 v=0
245778 On ch=1 n=d5 v=0
245834 On ch=1 n=d6 v=83
245882 On ch=1 n=f#6 v=0
246040 On ch=1 n=c#6 v=87
246066 On ch=1 n=d5 v=61
246066 On ch=1 n=g5 v=75
246102 On ch=1 n=d6 v=0
246128 Par ch=1 c=64 v=63
246140 Par ch=1 c=64 v=0
246170 On ch=1 n=f#5 v=0
246252 Par ch=1 c=64 v=63
246290 Par ch=1 c=64 v=127
246456 On ch=1 n=b5 v=84
246476 On ch=1 n=c#6 v=0
246678 On ch=1 n=b5 v=0
246684 On ch=1 n=g6 v=76
246752 On ch=1 n=e6 v=85
246790 Par ch=1 c=64 v=63
246800 On ch=1 n=e5 v=63
246806 Par ch=1 c=64 v=0
246808 On ch=1 n=g6 v=0
246836 On ch=1 n=d6 v=98
246858 On ch=1 n=e6 v=0
246894 Par ch=1 c=64 v=63
246938 Par ch=1 c=64 v=127
247042 On ch=1 n=c#6 v=109
247092 On ch=1 n=d6 v=0
247194 On ch=1 n=c#6 v=0
247244 On ch=1 n=b6 v=99
247414 On ch=1 n=a6 v=107
247448 On ch=1 n=d5 v=0
247488 On ch=1 n=b6 v=0
247568 On ch=1 n=a6 v=0
247612 On ch=1 n=f#5 v=93
247624 On ch=1 n=e5 v=0
247624 On ch=1 n=a6 v=104
247624 On ch=1 n=d5 v=82
247636 On ch=1 n=d6 v=103
247654 Par ch=1 c=64 v=63
247664 Par ch=1 c=64 v=0
247686 On ch=1 n=g5 v=0
247742 Par ch=1 c=64 v=63
247776 Par ch=1 c=64 v=127
247950 On ch=1 n=b6 v=84
247968 On ch=1 n=a6 v=0
248008 On ch=1 n=g6 v=98
248016 On ch=1 n=d6 v=0
248044 Par ch=1 c=64 v=63
248050 Par ch=1 c=64 v=0
248060 On ch=1 n=b6 v=0
248078 On ch=1 n=f#6 v=108
248142 On ch=1 n=g6 v=0
248250 On ch=1 n=d5 v=0
248284 On ch=1 n=f#5 v=0
248294 On ch=1 n=f#6 v=0
248320 On ch=1 n=a6 v=78
248378 On ch=1 n=f#6 v=86
248422 On ch=1 n=a6 v=0
248450 On ch=1 n=g#5 v=80
248464 On ch=1 n=e6 v=90
248466 On ch=1 n=d6 v=63
248472 On ch=1 n=f#6 v=0
248530 On ch=1 n=d6 v=0
248534 On ch=1 n=e6 v=0
248542 On ch=1 n=g#5 v=0
248674 On ch=1 n=e6 v=98
248692 On ch=1 n=g#5 v=70
248694 On ch=1 n=d6 v=66
248744 On ch=1 n=e6 v=0
248746 On ch=1 n=g#5 v=0
248752 On ch=1 n=d6 v=0
248856 On ch=1 n=e6 v=106
248878 On ch=1 n=g#5 v=82
248880 On ch=1 n=d6 v=72
248934 On ch=1 n=e6 v=0
248936 On ch=1 n=d6 v=0
248942 On ch=1 n=g#5 v=0
249040 On ch=1 n=e6 v=100
249050 On ch=1 n=g#5 v=43
249050 On ch=1 n=d6 v=64
249100 On ch=1 n=g#5 v=0
249110 On ch=1 n=e6 v=0
249128 On ch=1 n=d6 v=0
249234 On ch=1 n=a5 v=79
249244 On ch=1 n=c#6 v=79
249246 On ch=1 n=e6 v=94
249266 Par ch=1 c=64 v=63
249272 Par ch=1 c=64 v=127
249302 On ch=1 n=c#6 v=0
249326 On ch=1 n=a5 v=0
249436 On ch=1 n=a6 v=83
249442 On ch=1 n=e6 v=0
249466 Par ch=1 c=64 v=63
249474 Par ch=1 c=64 v=0
249506 On ch=1 n=a6 v=0
249644 On ch=1 n=b5 v=82
249650 On ch=1 n=f#5 v=84
249654 On ch=1 n=d5 v=75
249654 Par ch=1 c=64 v=63
249666 Par ch=1 c=64 v=127
249702 On ch=1 n=f#5 v=0
249734 On ch=1 n=d5 v=0
249802 On ch=1 n=b5 v=0
249826 On ch=1 n=f#6 v=84
249886 On ch=1 n=f#6 v=0
249966 Par ch=1 c=64 v=63
249982 Par ch=1 c=64 v=0
250042 On ch=1 n=a5 v=69
250064 On ch=1 n=c#5 v=70
250066 Par ch=1 c=64 v=63
250072 On ch=1 n=e4 v=59
250096 Par ch=1 c=64 v=127
250274 On ch=1 n=c#5 v=0
250462 Par ch=1 c=64 v=63
250470 Par ch=1 c=64 v=0
250478 On ch=1 n=g#5 v=64
250484 On ch=1 n=c#6 v=77
250486 On ch=1 n=a5 v=0
250486 On ch=1 n=d5 v=57
250782 On ch=1 n=e4 v=0
250796 On ch=1 n=c#6 v=0
250820 On ch=1 n=b5 v=63
250822 On ch=1 n=g#5 v=0
250902 On ch=1 n=a5 v=79
250914 On ch=1 n=c#5 v=65
250916 On ch=1 n=a4 v=21
250928 On ch=1 n=d5 v=0
250940 On ch=1 n=b5 v=0
251014 Par ch=1 c=64 v=63
251022 Par ch=1 c=64 v=127
251326 On ch=1 n=a5 v=0
251352 On ch=1 n=c#5 v=0
251368 On ch=1 n=a4 v=0
251372 Par ch=1 c=64 v=63
251384 Par ch=1 c=64 v=0
251766 On ch=1 n=d6 v=81
251802 Par ch=1 c=64 v=63
251804 Par ch=1 c=64 v=127
251964 On ch=1 n=a4 v=54
251976 On ch=1 n=f#4 v=61
252130 On ch=1 n=a4 v=0
252170 On ch=1 n=g4 v=75
252174 On ch=1 n=f#4 v=0
252178 Par ch=1 c=64 v=63
252182 On ch=1 n=e6 v=85
252188 Par ch=1 c=64 v=0
252196 On ch=1 n=e4 v=68
252214 On ch=1 n=d6 v=0
252336 On ch=1 n=f#4 v=90
252342 On ch=1 n=d4 v=77
252356 On ch=1 n=e4 v=0
252358 On ch=1 n=f#6 v=95
252382 On ch=1 n=g4 v=0
252392 On ch=1 n=e6 v=0
252436 On ch=1 n=d4 v=0
252448 On ch=1 n=f#4 v=0
252520 On ch=1 n=f#6 v=0
252548 On ch=1 n=b5 v=84
252568 On ch=1 n=d5 v=98
252574 On ch=1 n=g4 v=76
252580 Par ch=1 c=64 v=63
252582 Par ch=1 c=64 v=127
252694 Par ch=1 c=64 v=63
252708 Par ch=1 c=64 v=0
252718 On ch=1 n=d5 v=0
252756 On ch=1 n=d#5 v=88
252838 On ch=1 n=d#5 v=0
252968 On ch=1 n=e5 v=90
253160 On ch=1 n=b5 v=0
253200 On ch=1 n=c#6 v=86
253278 On ch=1 n=d#6 v=95
253294 On ch=1 n=c#6 v=0
253358 On ch=1 n=d#6 v=0
253382 On ch=1 n=e6 v=78
253482 On ch=1 n=f#6 v=94
253492 On ch=1 n=e6 v=0
253552 On ch=1 n=g6 v=87
253568 On ch=1 n=f#6 v=0
253642 On ch=1 n=a6 v=92
253692 On ch=1 n=g6 v=0
253732 On ch=1 n=b6 v=106
253736 On ch=1 n=g4 v=0
253744 On ch=1 n=e5 v=0
253760 On ch=1 n=a6 v=0
253808 On ch=1 n=b6 v=0
253942 On ch=1 n=b6 v=108
253954 On ch=1 n=f5 v=85
253958 On ch=1 n=g#4 v=81
254000 On ch=1 n=b6 v=0
254028 On ch=1 n=g#4 v=0
254032 On ch=1 n=f5 v=0
254168 On ch=1 n=d6 v=104
254176 On ch=1 n=f#5 v=93
254182 On ch=1 n=a4 v=68
254226 Par ch=1 c=64 v=63
254230 Par ch=1 c=64 v=127
254394 On ch=1 n=f#5 v=0
254526 Par ch=1 c=64 v=63
254530 Par ch=1 c=64 v=0
254542 On ch=1 n=d6 v=0
254588 On ch=1 n=e5 v=71
254590 On ch=1 n=c#6 v=84
254626 Par ch=1 c=64 v=63
254640 Par ch=1 c=64 v=127
254692 On ch=1 n=e5 v=0
254718 On ch=1 n=c#6 v=0
254772 On ch=1 n=a6 v=87
254778 Par ch=1 c=64 v=63
254786 Par ch=1 c=64 v=0
254932 Par ch=1 c=64 v=63
254944 On ch=1 n=a6 v=0
254946 Par ch=1 c=64 v=127
254984 On ch=1 n=a4 v=0
255012 On ch=1 n=d5 v=55
255018 On ch=1 n=g#6 v=78
255020 On ch=1 n=b4 v=61
255206 On ch=1 n=g#6 v=0
255246 On ch=1 n=d7 v=87
255468 On ch=1 n=b6 v=93
255534 On ch=1 n=d7 v=0
255634 On ch=1 n=g#6 v=108
255668 On ch=1 n=b6 v=0
255778 On ch=1 n=b4 v=0
255810 On ch=1 n=g#6 v=0
255820 Par ch=1 c=64 v=63
255828 Par ch=1 c=64 v=0
255848 On ch=1 n=e7 v=91
255848 On ch=1 n=c#5 v=94
255852 On ch=1 n=a4 v=73
255894 On ch=1 n=d5 v=0
255900 Par ch=1 c=64 v=63
255928 Par ch=1 c=64 v=127
256016 On ch=1 n=e7 v=0
256024 On ch=1 n=g6 v=72
256034 On ch=1 n=a#4 v=92
256092 On ch=1 n=a4 v=0
256094 On ch=1 n=c#5 v=0
256192 On ch=1 n=a#4 v=0
256198 Par ch=1 c=64 v=63
256214 Par ch=1 c=64 v=0
256234 Par ch=1 c=64 v=63
256240 On ch=1 n=f#6 v=104
256244 On ch=1 n=d5 v=80
256248 On ch=1 n=b4 v=75
256268 Par ch=1 c=64 v=127
256274 On ch=1 n=g6 v=0
256386 On ch=1 n=g4 v=84
256406 On ch=1 n=b6 v=88
256418 On ch=1 n=f#6 v=0
256420 On ch=1 n=b4 v=0
256426 On ch=1 n=d5 v=0
256476 On ch=1 n=g4 v=0
256526 On ch=1 n=b6 v=0
256626 On ch=1 n=a4 v=68
256642 On ch=1 n=g5 v=68
256650 On ch=1 n=d6 v=100
256712 Par ch=1 c=64 v=127
256722 On ch=1 n=f#5 v=86
256746 On ch=1 n=g5 v=0
256846 Par ch=1 c=64 v=63
256852 Par ch=1 c=64 v=0
257008 Par ch=1 c=64 v=63
257012 Par ch=1 c=64 v=127
257080 On ch=1 n=g5 v=73
257088 On ch=1 n=f#5 v=0
257096 On ch=1 n=c#6 v=92
257096 On ch=1 n=f#6 v=88
257118 Par ch=1 c=64 v=63
257122 Par ch=1 c=64 v=0
257136 On ch=1 n=d6 v=0
257396 On ch=1 n=a4 v=0
257412 On ch=1 n=f#6 v=0
257440 On ch=1 n=c#6 v=0
257460 On ch=1 n=e6 v=84
257540 On ch=1 n=f#5 v=76
257542 On ch=1 n=d6 v=87
257554 On ch=1 n=d5 v=71
257568 On ch=1 n=g5 v=0
257588 On ch=1 n=e6 v=0
257976 On ch=1 n=f#5 v=0
257978 On ch=1 n=d6 v=0
257992 On ch=1 n=d5 v=0
258398 On ch=1 n=d6 v=101
258428 Par ch=1 c=64 v=63
258430 Par ch=1 c=64 v=127
258472 On ch=1 n=d6 v=0
258596 On ch=1 n=f#4 v=80
258600 On ch=1 n=a4 v=57
258702 On ch=1 n=a4 v=0
258750 On ch=1 n=f#4 v=0
258796 On ch=1 n=g4 v=71
258798 On ch=1 n=e6 v=101
258800 Par ch=1 c=64 v=63
258806 On ch=1 n=e4 v=74
258806 Par ch=1 c=64 v=0
258902 On ch=1 n=e6 v=0
258944 On ch=1 n=e4 v=0
258950 On ch=1 n=f#4 v=90
258958 On ch=1 n=f#6 v=106
258960 On ch=1 n=d4 v=57
259000 On ch=1 n=g4 v=0
259004 On ch=1 n=d4 v=0
259034 On ch=1 n=f#4 v=0
259036 On ch=1 n=f#6 v=0
259180 On ch=1 n=b5 v=99
259188 On ch=1 n=d5 v=86
259200 On ch=1 n=g4 v=56
259224 Par ch=1 c=64 v=63
259226 Par ch=1 c=64 v=127
259326 On ch=1 n=d5 v=0
259376 On ch=1 n=d#5 v=86
259446 On ch=1 n=d#5 v=0
259578 Par ch=1 c=64 v=63
259584 Par ch=1 c=64 v=0
259604 On ch=1 n=e5 v=82
259782 On ch=1 n=b5 v=0
259828 On ch=1 n=c#6 v=86
259902 On ch=1 n=d#6 v=91
259914 On ch=1 n=c#6 v=0
259948 On ch=1 n=d#6 v=0
260006 On ch=1 n=e6 v=84
260066 Par ch=1 c=64 v=63
260068 Par ch=1 c=64 v=127
260090 On ch=1 n=f#6 v=100
260094 On ch=1 n=e6 v=0
260160 On ch=1 n=g6 v=92
260174 On ch=1 n=f#6 v=0
260212 On ch=1 n=e5 v=0
260214 On ch=1 n=g4 v=0
260262 On ch=1 n=a6 v=90
260300 On ch=1 n=g6 v=0
260338 On ch=1 n=b6 v=104
260360 On ch=1 n=a6 v=0
260378 Par ch=1 c=64 v=63
260384 Par ch=1 c=64 v=0
260418 On ch=1 n=b6 v=0
260546 On ch=1 n=b6 v=107
260550 On ch=1 n=g#4 v=82
260554 On ch=1 n=f5 v=81
260618 On ch=1 n=b6 v=0
260632 On ch=1 n=g#4 v=0
260636 On ch=1 n=f5 v=0
260760 On ch=1 n=d6 v=98
260772 Par ch=1 c=64 v=63
260772 Par ch=1 c=64 v=127
260782 On ch=1 n=f#5 v=98
260788 On ch=1 n=a4 v=73
260968 On ch=1 n=f#5 v=0
261154 Par ch=1 c=64 v=63
261164 Par ch=1 c=64 v=0
261202 On ch=1 n=c#6 v=88
261208 On ch=1 n=e5 v=55
261232 On ch=1 n=d6 v=0
261256 Par ch=1 c=64 v=63
261278 Par ch=1 c=64 v=127
261302 On ch=1 n=c#6 v=0
261334 On ch=1 n=e5 v=0
261346 Par ch=1 c=64 v=63
261358 Par ch=1 c=64 v=0
261384 On ch=1 n=a6 v=86
261496 On ch=1 n=a6 v=0
261566 On ch=1 n=a4 v=0
261614 On ch=1 n=g#6 v=87
261626 On ch=1 n=b4 v=80
261636 On ch=1 n=d5 v=79
261822 On ch=1 n=d7 v=92
261842 On ch=1 n=g#6 v=0
261876 Par ch=1 c=64 v=63
261894 Par ch=1 c=64 v=127
262026 On ch=1 n=b6 v=90
262100 On ch=1 n=d7 v=0
262178 On ch=1 n=g#6 v=101
262246 On ch=1 n=b6 v=0
262358 On ch=1 n=b4 v=0
262364 On ch=1 n=g#6 v=0
262394 Par ch=1 c=64 v=63
262394 On ch=1 n=c#5 v=72
262402 On ch=1 n=a4 v=33
262406 On ch=1 n=e7 v=88
262408 Par ch=1 c=64 v=0
262450 On ch=1 n=d5 v=0
262464 Par ch=1 c=64 v=63
262492 Par ch=1 c=64 v=127
262558 On ch=1 n=e7 v=0
262584 On ch=1 n=g6 v=59
262590 On ch=1 n=a#4 v=80
262622 On ch=1 n=c#5 v=0
262662 On ch=1 n=a4 v=0
262682 Par ch=1 c=64 v=63
262698 Par ch=1 c=64 v=0
262722 On ch=1 n=a#4 v=0
262788 Par ch=1 c=64 v=63
262790 On ch=1 n=f#6 v=99
262792 On ch=1 n=g6 v=0
262794 On ch=1 n=b4 v=85
262806 On ch=1 n=d5 v=76
262816 Par ch=1 c=64 v=127
262934 On ch=1 n=b4 v=0
262942 On ch=1 n=g4 v=77
262952 On ch=1 n=f#6 v=0
262964 On ch=1 n=b6 v=84
262982 On ch=1 n=d5 v=0
263040 On ch=1 n=g4 v=0
263088 On ch=1 n=b6 v=0
263112 Par ch=1 c=64 v=63
263134 Par ch=1 c=64 v=0
263172 On ch=1 n=d6 v=84
263176 On ch=1 n=a4 v=86
263176 On ch=1 n=g5 v=91
263226 On ch=1 n=f#5 v=72
263228 Par ch=1 c=64 v=63
263244 Par ch=1 c=64 v=127
263282 On ch=1 n=g5 v=0
263418 Par ch=1 c=64 v=63
263432 Par ch=1 c=64 v=0
263638 On ch=1 n=c#6 v=103
263638 On ch=1 n=g5 v=85
263638 On ch=1 n=f#6 v=98
263640 On ch=1 n=f#5 v=0
263658 Par ch=1 c=64 v=63
263666 Par ch=1 c=64 v=127
263672 On ch=1 n=d6 v=0
263776 On ch=1 n=a4 v=0
263924 On ch=1 n=c#6 v=0
263932 On ch=1 n=f#6 v=0
263998 On ch=1 n=e6 v=85
264104 On ch=1 n=g5 v=0
264106 On ch=1 n=d6 v=85
264120 On ch=1 n=d5 v=59
264150 Par ch=1 c=64 v=63
264152 Par ch=1 c=64 v=127
264172 On ch=1 n=e6 v=0
264246 On ch=1 n=d5 v=0
264248 On ch=1 n=a5 v=49
264334 On ch=1 n=a5 v=0
264344 Par ch=1 c=64 v=63
264350 Par ch=1 c=64 v=0
264354 On ch=1 n=f#5 v=69
264404 On ch=1 n=f#5 v=0
264418 On ch=1 n=a5 v=62
264440 Par ch=1 c=64 v=63
264448 Par ch=1 c=64 v=127
264504 On ch=1 n=d6 v=0
264522 On ch=1 n=f#5 v=88
264526 On ch=1 n=a5 v=0
264578 Par ch=1 c=64 v=63
264584 Par ch=1 c=64 v=0
264592 On ch=1 n=f#5 v=0
264596 On ch=1 n=a5 v=68
264670 Par ch=1 c=64 v=63
264676 Par ch=1 c=64 v=127
264692 On ch=1 n=d6 v=91
264698 On ch=1 n=a5 v=0
264700 On ch=1 n=f#5 v=92
264758 Par ch=1 c=64 v=63
264764 Par ch=1 c=64 v=0
264766 On ch=1 n=d6 v=0
264780 On ch=1 n=a5 v=71
264786 On ch=1 n=f#5 v=0
264872 On ch=1 n=a5 v=0
264892 Par ch=1 c=64 v=63
264892 Par ch=1 c=64 v=127
264904 On ch=1 n=g5 v=79
264926 On ch=1 n=c#6 v=92
264964 On ch=1 n=c#6 v=0
265002 On ch=1 n=g5 v=0
265022 On ch=1 n=a5 v=80
265098 On ch=1 n=a5 v=0
265124 On ch=1 n=c#6 v=80
265128 On ch=1 n=a6 v=98
265196 Par ch=1 c=64 v=63
265200 Par ch=1 c=64 v=0
265202 On ch=1 n=a6 v=0
265202 On ch=1 n=c#6 v=0
265214 On ch=1 n=a5 v=49
265284 On ch=1 n=a5 v=0
265302 On ch=1 n=g5 v=68
265330 On ch=1 n=a6 v=107
265392 On ch=1 n=a6 v=0
265406 On ch=1 n=a5 v=82
265418 On ch=1 n=g5 v=0
265478 On ch=1 n=a5 v=0
265520 On ch=1 n=c#6 v=76
265536 On ch=1 n=a6 v=104
265574 On ch=1 n=c#6 v=0
265594 On ch=1 n=a6 v=0
265598 On ch=1 n=a5 v=52
265708 On ch=1 n=f#5 v=90
265712 On ch=1 n=a5 v=0
265750 On ch=1 n=a6 v=111
265776 Par ch=1 c=64 v=127
265812 On ch=1 n=a6 v=0
265824 On ch=1 n=f#5 v=0
265830 On ch=1 n=a5 v=59
265896 On ch=1 n=a5 v=0
265920 On ch=1 n=d6 v=71
265998 On ch=1 n=d6 v=0
266006 On ch=1 n=a5 v=70
266054 On ch=1 n=b6 v=84
266114 On ch=1 n=c#7 v=87
266126 On ch=1 n=f#5 v=88
266136 On ch=1 n=a5 v=0
266148 On ch=1 n=d7 v=100
266150 Par ch=1 c=64 v=63
266154 On ch=1 n=b6 v=0
266158 Par ch=1 c=64 v=0
266188 On ch=1 n=c#7 v=0
266214 On ch=1 n=d7 v=0
266226 On ch=1 n=f#5 v=0
266232 On ch=1 n=a5 v=80
266328 On ch=1 n=a5 v=0
266334 On ch=1 n=f#5 v=87
266362 On ch=1 n=d6 v=104
266402 On ch=1 n=a5 v=63
266424 On ch=1 n=d6 v=0
266448 On ch=1 n=f#5 v=0
266510 On ch=1 n=a5 v=0
266528 On ch=1 n=g5 v=69
266536 Par ch=1 c=64 v=63
266536 Par ch=1 c=64 v=127
266568 On ch=1 n=c#6 v=106
266612 On ch=1 n=c#6 v=0
266658 On ch=1 n=a5 v=81
266660 On ch=1 n=g5 v=0
266742 On ch=1 n=a5 v=0
266756 On ch=1 n=c#6 v=83
266766 On ch=1 n=a6 v=94
266812 On ch=1 n=a5 v=48
266830 On ch=1 n=c#6 v=0
266832 On ch=1 n=a6 v=0
266890 Par ch=1 c=64 v=63
266908 Par ch=1 c=64 v=0
266916 Par ch=1 c=64 v=63
266924 On ch=1 n=a5 v=0
266924 On ch=1 n=g5 v=78
266954 Par ch=1 c=64 v=127
266962 On ch=1 n=a6 v=108
267032 On ch=1 n=a6 v=0
267046 On ch=1 n=a5 v=80
267062 On ch=1 n=g5 v=0
267132 On ch=1 n=a5 v=0
267140 On ch=1 n=c#6 v=85
267146 On ch=1 n=a6 v=113
267148 Par ch=1 c=64 v=63
267154 Par ch=1 c=64 v=0
267206 On ch=1 n=c#6 v=0
267218 On ch=1 n=a6 v=0
267246 On ch=1 n=a5 v=59
267348 On ch=1 n=f#5 v=91
267360 On ch=1 n=a5 v=0
267364 On ch=1 n=a6 v=112
267368 Par ch=1 c=64 v=63
267372 Par ch=1 c=64 v=127
267434 On ch=1 n=a6 v=0
267464 On ch=1 n=f#5 v=0
267470 On ch=1 n=a5 v=65
267530 On ch=1 n=a5 v=0
267548 On ch=1 n=d6 v=71
267624 On ch=1 n=d6 v=0
267628 On ch=1 n=a5 v=71
267664 On ch=1 n=b6 v=78
267734 On ch=1 n=c#7 v=91
267744 Par ch=1 c=64 v=63
267744 On ch=1 n=f#5 v=95
267752 Par ch=1 c=64 v=0
267760 On ch=1 n=d7 v=102
267762 On ch=1 n=b6 v=0
267764 On ch=1 n=a5 v=0
267802 On ch=1 n=c#7 v=0
267842 On ch=1 n=f#5 v=0
267844 On ch=1 n=d7 v=0
267848 On ch=1 n=a5 v=81
267956 On ch=1 n=f#5 v=104
267964 On ch=1 n=a5 v=0
267978 On ch=1 n=d6 v=91
268026 On ch=1 n=d6 v=0
268044 On ch=1 n=f#5 v=0
268052 On ch=1 n=a5 v=63
268164 On ch=1 n=d#6 v=105
268172 On ch=1 n=c7 v=92
268174 On ch=1 n=a5 v=0
268180 On ch=1 n=f#5 v=88
268190 On ch=1 n=d#6 v=0
268214 On ch=1 n=c7 v=0
268242 On ch=1 n=f#5 v=0
268262 On ch=1 n=a5 v=70
268362 On ch=1 n=c7 v=112
268372 On ch=1 n=d#6 v=96
268388 On ch=1 n=f#5 v=99
268392 On ch=1 n=a5 v=0
268400 On ch=1 n=d#6 v=0
268422 On ch=1 n=c7 v=0
268470 On ch=1 n=f#5 v=0
268474 On ch=1 n=a5 v=69
268568 On ch=1 n=c7 v=120
268570 On ch=1 n=d#6 v=121
268580 On ch=1 n=f#5 v=93
268594 On ch=1 n=a5 v=0
268620 On ch=1 n=c7 v=0
268622 On ch=1 n=d#6 v=0
268664 On ch=1 n=f#5 v=0
268664 On ch=1 n=a5 v=66
268756 On ch=1 n=f#5 v=95
268768 On ch=1 n=c7 v=121
268770 On ch=1 n=a5 v=0
268772 On ch=1 n=d#6 v=119
268816 On ch=1 n=d#6 v=0
268830 On ch=1 n=c7 v=0
268838 On ch=1 n=a5 v=65
268872 On ch=1 n=f#5 v=0
268938 On ch=1 n=a5 v=0
268968 On ch=1 n=g5 v=112
268974 On ch=1 n=c7 v=126
268984 On ch=1 n=e6 v=121
268996 Par ch=1 c=64 v=63
268996 Par ch=1 c=64 v=127
269038 On ch=1 n=g5 v=0
269044 On ch=1 n=e6 v=0
269082 On ch=1 n=b6 v=97
269092 On ch=1 n=e6 v=49
269176 On ch=1 n=c7 v=0
269178 On ch=1 n=a#6 v=105
269184 On ch=1 n=e6 v=0
269222 On ch=1 n=b6 v=0
269270 On ch=1 n=a#6 v=0
269270 On ch=1 n=b6 v=87
269318 Par ch=1 c=64 v=63
269324 Par ch=1 c=64 v=0
269358 On ch=1 n=a6 v=96
269402 On ch=1 n=b6 v=0
269456 On ch=1 n=g6 v=88
269462 On ch=1 n=a6 v=0
269550 On ch=1 n=f#6 v=103
269554 On ch=1 n=g6 v=0
269642 On ch=1 n=f#6 v=0
269650 On ch=1 n=e6 v=104
269748 On ch=1 n=e6 v=0
269768 On ch=1 n=d6 v=102
269792 On ch=1 n=f#5 v=99
269796 Par ch=1 c=64 v=63
269798 Par ch=1 c=64 v=127
269806 On ch=1 n=a4 v=65
269840 On ch=1 n=d6 v=0
269910 On ch=1 n=f#5 v=0
270196 Par ch=1 c=64 v=63
270208 Par ch=1 c=64 v=0
270210 On ch=1 n=f#6 v=106
270214 On ch=1 n=g5 v=90
270226 On ch=1 n=c#6 v=101
270258 Par ch=1 c=64 v=63
270278 Par ch=1 c=64 v=127
270336 On ch=1 n=a4 v=0
270422 On ch=1 n=c#6 v=0
270478 On ch=1 n=g5 v=0
270480 On ch=1 n=f#6 v=0
270566 On ch=1 n=e6 v=98
270598 Par ch=1 c=64 v=63
270614 Par ch=1 c=64 v=0
270656 On ch=1 n=d5 v=65
270666 On ch=1 n=d6 v=93
270728 On ch=1 n=e6 v=0
270748 Par ch=1 c=64 v=63
270754 On ch=1 n=d5 v=0
270760 On ch=1 n=a5 v=59
270776 Par ch=1 c=64 v=127
270880 On ch=1 n=a5 v=0
270892 On ch=1 n=f#5 v=66
270944 On ch=1 n=f#5 v=0
270970 On ch=1 n=a5 v=57
270974 On ch=1 n=d6 v=0
271080 On ch=1 n=a5 v=0
271080 On ch=1 n=f#5 v=90
271138 On ch=1 n=f#5 v=0
271154 On ch=1 n=a5 v=63
271186 Par ch=1 c=64 v=63
271198 Par ch=1 c=64 v=0
271256 On ch=1 n=d6 v=101
271258 On ch=1 n=a5 v=0
271260 On ch=1 n=f#5 v=100
271324 On ch=1 n=d6 v=0
271344 On ch=1 n=f#5 v=0
271356 On ch=1 n=a5 v=61
271404 Par ch=1 c=64 v=63
271420 Par ch=1 c=64 v=127
271422 On ch=1 n=a5 v=0
271446 Par ch=1 c=64 v=63
271456 On ch=1 n=c#6 v=98
271460 On ch=1 n=g5 v=83
271462 Par ch=1 c=64 v=0
271524 On ch=1 n=c#6 v=0
271560 On ch=1 n=g5 v=0
271576 On ch=1 n=a5 v=77
271594 Par ch=1 c=64 v=63
271602 Par ch=1 c=64 v=127
271648 On ch=1 n=a5 v=0
271662 On ch=1 n=c#6 v=77
271682 On ch=1 n=a6 v=96
271736 On ch=1 n=c#6 v=0
271738 On ch=1 n=a6 v=0
271754 On ch=1 n=a5 v=49
271758 Par ch=1 c=64 v=63
271770 Par ch=1 c=64 v=0
271824 On ch=1 n=a5 v=0
271840 On ch=1 n=g5 v=54
271890 On ch=1 n=a6 v=112
271950 On ch=1 n=a6 v=0
271964 On ch=1 n=a5 v=77
271982 On ch=1 n=g5 v=0
272044 On ch=1 n=a5 v=0
272068 On ch=1 n=c#6 v=80
272094 On ch=1 n=a6 v=116
272128 On ch=1 n=c#6 v=0
272152 On ch=1 n=a6 v=0
272158 On ch=1 n=a5 v=63
272278 On ch=1 n=a5 v=0
272282 On ch=1 n=f#5 v=99
272306 On ch=1 n=a6 v=118
272310 Par ch=1 c=64 v=63
272314 Par ch=1 c=64 v=127
272370 On ch=1 n=a6 v=0
272382 On ch=1 n=f#5 v=0
272394 On ch=1 n=a5 v=64
272462 On ch=1 n=a5 v=0
272472 On ch=1 n=d6 v=78
272534 On ch=1 n=d6 v=0
272536 On ch=1 n=a5 v=75
272596 On ch=1 n=b6 v=87
272654 Par ch=1 c=64 v=63
272660 Par ch=1 c=64 v=0
272660 On ch=1 n=c#7 v=89
272678 On ch=1 n=f#5 v=97
272690 On ch=1 n=d7 v=102
272692 On ch=1 n=a5 v=0
272700 On ch=1 n=b6 v=0
272730 On ch=1 n=c#7 v=0
272760 On ch=1 n=d7 v=0
272782 On ch=1 n=f#5 v=0
272792 On ch=1 n=a5 v=73
272880 On ch=1 n=a5 v=0
272894 On ch=1 n=f#5 v=88
272906 On ch=1 n=d6 v=99
272970 On ch=1 n=d6 v=0
272972 On ch=1 n=a5 v=62
273006 On ch=1 n=f#5 v=0
273074 On ch=1 n=a5 v=0
273080 On ch=1 n=g5 v=72
273092 Par ch=1 c=64 v=63
273098 Par ch=1 c=64 v=127
273120 On ch=1 n=c#6 v=106
273200 On ch=1 n=c#6 v=0
273216 On ch=1 n=g5 v=0
273216 On ch=1 n=a5 v=78
273304 On ch=1 n=a5 v=0
273308 On ch=1 n=c#6 v=87
273324 On ch=1 n=a6 v=99
273336 Par ch=1 c=64 v=63
273340 Par ch=1 c=64 v=0
273388 On ch=1 n=a6 v=0
273392 On ch=1 n=a5 v=41
273394 On ch=1 n=c#6 v=0
273492 On ch=1 n=a5 v=0
273494 On ch=1 n=g5 v=71
273542 On ch=1 n=a6 v=114
273606 On ch=1 n=a6 v=0
273616 On ch=1 n=a5 v=83
273632 On ch=1 n=g5 v=0
273710 On ch=1 n=c#6 v=92
273712 On ch=1 n=a5 v=0
273742 On ch=1 n=a6 v=116
273790 On ch=1 n=c#6 v=0
273796 On ch=1 n=a5 v=57
273806 On ch=1 n=a6 v=0
273904 On ch=1 n=f#5 v=99
273924 On ch=1 n=a5 v=0
273944 On ch=1 n=a6 v=118
273950 Par ch=1 c=64 v=63
273952 Par ch=1 c=64 v=127
273990 On ch=1 n=a5 v=65
274024 On ch=1 n=f#5 v=0
274026 On ch=1 n=a6 v=0
274088 On ch=1 n=a5 v=0
274108 On ch=1 n=d6 v=78
274178 On ch=1 n=d6 v=0
274192 On ch=1 n=a5 v=84
274256 On ch=1 n=b6 v=80
274320 On ch=1 n=f#5 v=98
274322 On ch=1 n=c#7 v=97
274344 On ch=1 n=a5 v=0
274352 On ch=1 n=d7 v=101
274362 On ch=1 n=b6 v=0
274366 Par ch=1 c=64 v=63
274374 Par ch=1 c=64 v=0
274396 On ch=1 n=c#7 v=0
274432 On ch=1 n=d7 v=0
274432 On ch=1 n=a5 v=68
274436 On ch=1 n=f#5 v=0
274548 On ch=1 n=f#5 v=106
274556 On ch=1 n=a5 v=0
274560 On ch=1 n=d6 v=99
274620 On ch=1 n=d6 v=0
274638 On ch=1 n=a5 v=78
274644 On ch=1 n=f#5 v=0
274754 On ch=1 n=c7 v=122
274754 Par ch=1 c=64 v=127
274756 On ch=1 n=d#6 v=124
274758 On ch=1 n=f#5 v=120
274794 On ch=1 n=a5 v=0
274866 On ch=1 n=f#5 v=0
274868 On ch=1 n=a5 v=85
274992 On ch=1 n=f#5 v=115
275020 On ch=1 n=a5 v=0
275080 On ch=1 n=a5 v=88
275088 On ch=1 n=f#5 v=0
275198 On ch=1 n=f#5 v=120
275238 On ch=1 n=a5 v=0
275286 On ch=1 n=a5 v=88
275292 On ch=1 n=f#5 v=0
275348 On ch=1 n=d#6 v=0
275348 On ch=1 n=c7 v=0
275388 On ch=1 n=f#5 v=118
275416 On ch=1 n=a5 v=0
275474 On ch=1 n=a5 v=91
275498 On ch=1 n=f#5 v=0
275570 Par ch=1 c=64 v=63
275578 Par ch=1 c=64 v=0
275592 On ch=1 n=a5 v=0
275596 On ch=1 n=b6 v=121
275600 On ch=1 n=e6 v=121
275602 On ch=1 n=g5 v=121
275660 Par ch=1 c=64 v=63
275670 Par ch=1 c=64 v=127
275836 On ch=1 n=e6 v=0
275854 On ch=1 n=g5 v=0
275858 On ch=1 n=b6 v=0
275890 Par ch=1 c=64 v=63
275898 Par ch=1 c=64 v=0
276460 Par ch=1 c=64 v=127
276464 On ch=1 n=d7 v=117
276470 On ch=1 n=f6 v=118
276470 On ch=1 n=g#5 v=119
276472 On ch=1 n=b6 v=108
276476 On ch=1 n=g#4 v=118
276528 On ch=1 n=g#5 v=0
276528 On ch=1 n=f6 v=0
276530 On ch=1 n=b6 v=0
276534 On ch=1 n=g#4 v=0
276542 On ch=1 n=d7 v=0
277086 Par ch=1 c=64 v=63
277106 Par ch=1 c=64 v=0
277806 On ch=1 n=a3 v=100
277810 On ch=1 n=f#4 v=115
277810 On ch=1 n=d4 v=112
277816 On ch=1 n=a4 v=126
278232 Par ch=1 c=64 v=63
278416 Par ch=1 c=64 v=127
279016 Par ch=1 c=64 v=63
279042 Par ch=1 c=64 v=0
279492 Par ch=1 c=64 v=63
279496 Par ch=1 c=64 v=127
279624 On ch=1 n=b4 v=86
279722 On ch=1 n=a4 v=0
279922 On ch=1 n=a4 v=84
279994 On ch=1 n=b4 v=0
280082 On ch=1 n=g#4 v=95
280128 On ch=1 n=a4 v=0
280228 On ch=1 n=g#4 v=0
280236 On ch=1 n=a4 v=83
280394 On ch=1 n=b4 v=93
280412 On ch=1 n=a4 v=0
280436 Par ch=1 c=64 v=63
280448 Par ch=1 c=64 v=0
280528 Par ch=1 c=64 v=63
280528 On ch=1 n=c#5 v=96
280548 On ch=1 n=b4 v=0
280570 Par ch=1 c=64 v=127
280646 On ch=1 n=c#5 v=0
280666 On ch=1 n=d5 v=87
280796 On ch=1 n=d5 v=0
280802 On ch=1 n=e5 v=86
280878 On ch=1 n=f#5 v=98
280902 On ch=1 n=e5 v=0
280968 On ch=1 n=f#5 v=0
280988 On ch=1 n=g5 v=81
281056 On ch=1 n=a5 v=92
281098 On ch=1 n=g5 v=0
281120 On ch=1 n=b5 v=87
281148 On ch=1 n=a5 v=0
281176 On ch=1 n=c#6 v=88
281200 On ch=1 n=b5 v=0
281256 On ch=1 n=c#6 v=0
281268 On ch=1 n=d6 v=82
281358 On ch=1 n=e6 v=86
281372 On ch=1 n=d6 v=0
281410 On ch=1 n=f#6 v=100
281428 On ch=1 n=e6 v=0
281476 On ch=1 n=f#6 v=0
281494 On ch=1 n=g6 v=76
281528 On ch=1 n=a6 v=47
281582 On ch=1 n=g6 v=0
281612 On ch=1 n=b6 v=85
281644 On ch=1 n=a6 v=0
281662 On ch=1 n=c#7 v=100
281714 On ch=1 n=b6 v=0
281734 On ch=1 n=d7 v=103
281764 On ch=1 n=c#7 v=0
281794 Par ch=1 c=64 v=63
281880 Par ch=1 c=64 v=127
281906 On ch=1 n=c#7 v=108
281928 On ch=1 n=d7 v=0
282012 On ch=1 n=e7 v=96
282018 On ch=1 n=c#7 v=0
282080 On ch=1 n=d7 v=90
282126 On ch=1 n=e7 v=0
282138 On ch=1 n=c#7 v=92
282192 On ch=1 n=b6 v=76
282196 On ch=1 n=d7 v=0
282236 On ch=1 n=c#7 v=0
282258 On ch=1 n=a6 v=89
282292 On ch=1 n=b6 v=0
282336 On ch=1 n=c#7 v=101
282354 On ch=1 n=a6 v=0
282422 On ch=1 n=b6 v=91
282432 On ch=1 n=c#7 v=0
282478 On ch=1 n=a6 v=80
282492 On ch=1 n=b6 v=0
282568 On ch=1 n=a6 v=0
282572 On ch=1 n=g6 v=93
282640 On ch=1 n=f#6 v=106
282656 On ch=1 n=g6 v=0
282720 On ch=1 n=a6 v=101
282746 On ch=1 n=f#6 v=0
282754 Par ch=1 c=64 v=63
282780 Par ch=1 c=64 v=0
282824 On ch=1 n=g6 v=96
282888 Par ch=1 c=64 v=63
282890 On ch=1 n=a6 v=0
282910 On ch=1 n=f#6 v=109
282918 Par ch=1 c=64 v=127
282968 On ch=1 n=g6 v=0
283006 On ch=1 n=e6 v=98
283032 On ch=1 n=f#6 v=0
283042 On ch=1 n=a3 v=0
283088 On ch=1 n=d4 v=0
283098 On ch=1 n=f#4 v=0
283120 On ch=1 n=d#6 v=115
283146 On ch=1 n=e6 v=0
283174 Par ch=1 c=64 v=63
283224 Par ch=1 c=64 v=0
283238 On ch=1 n=e6 v=106
283294 On ch=1 n=d#6 v=0
283380 On ch=1 n=f#6 v=113
283434 On ch=1 n=e6 v=0
283506 On ch=1 n=e6 v=106
283576 On ch=1 n=f#6 v=0
283654 On ch=1 n=e6 v=0
283676 On ch=1 n=g6 v=113
283726 Par ch=1 c=64 v=63
283734 Par ch=1 c=64 v=127
283840 On ch=1 n=g6 v=0
283850 On ch=1 n=e6 v=117
283908 Par ch=1 c=64 v=63
283932 Par ch=1 c=64 v=0
283988 Par ch=1 c=64 v=63
283998 On ch=1 n=e6 v=0
284018 Par ch=1 c=64 v=127
284046 On ch=1 n=f#6 v=119
284304 On ch=1 n=e6 v=117
284366 On ch=1 n=f#6 v=0
284504 On ch=1 n=f#6 v=115
284556 On ch=1 n=e6 v=0
284674 On ch=1 n=e6 v=107
284678 On ch=1 n=f#6 v=0
284786 On ch=1 n=f#6 v=106
284792 On ch=1 n=e6 v=0
284896 On ch=1 n=f#6 v=0
284898 On ch=1 n=e6 v=102
284984 On ch=1 n=f#6 v=95
285006 On ch=1 n=e6 v=0
285074 On ch=1 n=f#6 v=0
285078 On ch=1 n=e6 v=103
285152 On ch=1 n=f#6 v=91
285172 On ch=1 n=e6 v=0
285234 On ch=1 n=f#6 v=0
285242 On ch=1 n=e6 v=98
285302 On ch=1 n=f#6 v=91
285326 On ch=1 n=e6 v=0
285374 On ch=1 n=f#6 v=0
285382 On ch=1 n=e6 v=92
285438 On ch=1 n=f#6 v=92
285462 On ch=1 n=e6 v=0
285508 On ch=1 n=f#6 v=0
285520 On ch=1 n=e6 v=91
285572 On ch=1 n=f#6 v=96
285596 On ch=1 n=e6 v=0
285636 On ch=1 n=f#6 v=0
285650 On ch=1 n=e6 v=94
285710 On ch=1 n=f#6 v=91
285732 On ch=1 n=e6 v=0
285772 On ch=1 n=f#6 v=0
285776 On ch=1 n=e6 v=97
285842 On ch=1 n=f#6 v=95
285864 On ch=1 n=e6 v=0
285910 On ch=1 n=f#6 v=0
285916 On ch=1 n=e6 v=97
285974 On ch=1 n=f#6 v=97
285996 On ch=1 n=e6 v=0
286044 On ch=1 n=f#6 v=0
286046 On ch=1 n=e6 v=103
286112 On ch=1 n=f#6 v=98
286126 On ch=1 n=e6 v=0
286184 On ch=1 n=e6 v=106
286186 On ch=1 n=f#6 v=0
286250 On ch=1 n=f#6 v=101
286262 On ch=1 n=e6 v=0
286322 On ch=1 n=e6 v=107
286336 On ch=1 n=f#6 v=0
286386 On ch=1 n=f#6 v=103
286396 On ch=1 n=e6 v=0
286456 On ch=1 n=e6 v=104
286482 On ch=1 n=f#6 v=0
286524 On ch=1 n=f#6 v=106
286530 On ch=1 n=e6 v=0
286600 On ch=1 n=e6 v=94
286622 On ch=1 n=f#6 v=0
286662 On ch=1 n=f#6 v=96
286676 On ch=1 n=e6 v=0
286740 On ch=1 n=e6 v=81
286754 On ch=1 n=f#6 v=0
286806 On ch=1 n=f#6 v=79
286840 On ch=1 n=e6 v=0
286882 On ch=1 n=e6 v=69
286894 On ch=1 n=f#6 v=0
286958 On ch=1 n=f#6 v=77
286980 On ch=1 n=e6 v=0
287042 On ch=1 n=e6 v=81
287048 On ch=1 n=f#6 v=0
287116 On ch=1 n=f#6 v=72
287200 On ch=1 n=f#6 v=0
287264 On ch=1 n=f#6 v=70
287290 On ch=1 n=e6 v=0
287344 On ch=1 n=e6 v=70
287348 On ch=1 n=f#6 v=0
287424 On ch=1 n=f#6 v=71
287448 On ch=1 n=e6 v=0
287510 On ch=1 n=e6 v=77
287512 On ch=1 n=f#6 v=0
287578 On ch=1 n=f#6 v=73
287618 On ch=1 n=e6 v=0
287662 On ch=1 n=e6 v=65
287668 On ch=1 n=f#6 v=0
287752 On ch=1 n=f#6 v=69
287762 On ch=1 n=e6 v=0
287828 On ch=1 n=e6 v=67
287836 On ch=1 n=f#6 v=0
287932 On ch=1 n=f#6 v=67
287944 On ch=1 n=e6 v=0
288016 On ch=1 n=e6 v=60
288026 On ch=1 n=f#6 v=0
288082 On ch=1 n=g5 v=68
288088 On ch=1 n=c#5 v=81
288096 On ch=1 n=a4 v=58
288128 On ch=1 n=f#6 v=80
288150 On ch=1 n=e6 v=0
288212 On ch=1 n=e6 v=57
288218 On ch=1 n=f#6 v=0
288312 On ch=1 n=f#6 v=72
288326 On ch=1 n=e6 v=0
288394 On ch=1 n=e6 v=64
288400 On ch=1 n=f#6 v=0
288504 On ch=1 n=f#6 v=74
288508 On ch=1 n=e6 v=0
288586 On ch=1 n=f#6 v=0
288586 On ch=1 n=e6 v=64
288698 On ch=1 n=e6 v=0
288706 On ch=1 n=f#6 v=76
288782 On ch=1 n=f#6 v=0
288786 On ch=1 n=e6 v=58
288902 On ch=1 n=e6 v=0
288906 On ch=1 n=f#6 v=73
288994 On ch=1 n=f#6 v=0
288994 On ch=1 n=e6 v=60
289112 On ch=1 n=e6 v=0
289114 On ch=1 n=f#6 v=75
289222 On ch=1 n=e6 v=60
289226 On ch=1 n=f#6 v=0
289408 On ch=1 n=d#6 v=75
289432 On ch=1 n=e6 v=0
289646 On ch=1 n=d#6 v=0
289650 On ch=1 n=e6 v=69
289844 On ch=1 n=f#6 v=76
289882 On ch=1 n=e6 v=0
290002 On ch=1 n=e6 v=71
290006 On ch=1 n=f#6 v=0
290124 On ch=1 n=g6 v=74
290136 On ch=1 n=e6 v=0
290204 On ch=1 n=f#6 v=85
290252 On ch=1 n=g6 v=0
290318 On ch=1 n=a6 v=73
290376 On ch=1 n=f#6 v=0
290446 On ch=1 n=g6 v=68
290448 Par ch=1 c=64 v=63
290500 On ch=1 n=a6 v=0
290554 On ch=1 n=f#6 v=73
290620 On ch=1 n=g6 v=0
290690 On ch=1 n=e6 v=65
290742 On ch=1 n=f#6 v=0
290818 On ch=1 n=g6 v=65
290830 On ch=1 n=e6 v=0
290964 On ch=1 n=f#6 v=64
291014 On ch=1 n=g6 v=0
291106 On ch=1 n=e6 v=41
291122 On ch=1 n=f#6 v=0
291278 On ch=1 n=d6 v=54
291284 On ch=1 n=e6 v=0
291480 On ch=1 n=f#6 v=57
291554 On ch=1 n=d6 v=0
291700 On ch=1 n=e6 v=49
291734 On ch=1 n=f#6 v=0
291828 Par ch=1 c=64 v=127
291908 On ch=1 n=e6 v=0
291912 On ch=1 n=d6 v=49
292154 On ch=1 n=c#6 v=58
292170 On ch=1 n=d6 v=0
292494 On ch=1 n=e6 v=44
292574 On ch=1 n=c#6 v=0
292838 On ch=1 n=d6 v=37
292898 On ch=1 n=e6 v=0
293276 On ch=1 n=c#6 v=48
293368 On ch=1 n=d6 v=0
293794 On ch=1 n=b5 v=42
293832 On ch=1 n=c#6 v=0
293908 On ch=1 n=a4 v=0
293934 On ch=1 n=c#5 v=0
293968 On ch=1 n=b5 v=0
293986 On ch=1 n=g5 v=0
294464 On ch=1 n=f#5 v=70
294474 Par ch=1 c=64 v=63
294474 On ch=1 n=a5 v=51
294478 On ch=1 n=d5 v=70
294490 Par ch=1 c=64 v=0
294904 On ch=1 n=f#6 v=80
294936 Par ch=1 c=64 v=63
294952 Par ch=1 c=64 v=127
294974 On ch=1 n=a5 v=0
295076 On ch=1 n=d6 v=77
295110 On ch=1 n=f#6 v=0
295148 On ch=1 n=d5 v=0
295198 On ch=1 n=f#5 v=0
295306 On ch=1 n=c#6 v=82
295310 On ch=1 n=g5 v=65
295326 On ch=1 n=d5 v=68
295328 On ch=1 n=d6 v=0
295338 Par ch=1 c=64 v=63
295350 Par ch=1 c=64 v=0
295732 On ch=1 n=b5 v=85
295744 On ch=1 n=c#6 v=0
295952 On ch=1 n=b5 v=0
295974 On ch=1 n=g6 v=70
296042 Par ch=1 c=64 v=63
296054 Par ch=1 c=64 v=127
296054 On ch=1 n=e6 v=77
296100 On ch=1 n=e5 v=79
296122 On ch=1 n=g6 v=0
296138 On ch=1 n=d6 v=91
296162 On ch=1 n=e6 v=0
296268 Par ch=1 c=64 v=63
296282 Par ch=1 c=64 v=0
296320 On ch=1 n=c#6 v=83
296356 On ch=1 n=d6 v=0
296388 Par ch=1 c=64 v=63
296400 Par ch=1 c=64 v=127
296496 On ch=1 n=c#6 v=0
296536 On ch=1 n=b6 v=97
296700 On ch=1 n=a6 v=106
296772 On ch=1 n=b6 v=0
296840 On ch=1 n=a6 v=0
296850 Par ch=1 c=64 v=63
296858 Par ch=1 c=64 v=0
296902 On ch=1 n=a6 v=109
296910 On ch=1 n=f#5 v=98
296920 On ch=1 n=d6 v=101
296960 Par ch=1 c=64 v=63
296974 On ch=1 n=g5 v=0
296976 Par ch=1 c=64 v=127
297022 On ch=1 n=e5 v=0
297202 On ch=1 n=b6 v=84
297216 On ch=1 n=a6 v=0
297250 On ch=1 n=d6 v=0
297268 On ch=1 n=g6 v=104
297276 Par ch=1 c=64 v=63
297284 Par ch=1 c=64 v=0
297324 On ch=1 n=b6 v=0
297334 On ch=1 n=f#6 v=110
297366 On ch=1 n=f#5 v=0
297398 On ch=1 n=g6 v=0
297400 On ch=1 n=d5 v=0
297542 On ch=1 n=f#6 v=0
297566 On ch=1 n=a6 v=96
297630 On ch=1 n=f#6 v=92
297662 On ch=1 n=a6 v=0
297694 On ch=1 n=f#6 v=0
297742 On ch=1 n=f#4 v=115
297746 On ch=1 n=f#3 v=118
297746 On ch=1 n=d7 v=114
297796 On ch=1 n=f#4 v=0
297802 On ch=1 n=f#3 v=0
297820 On ch=1 n=d7 v=0
297932 On ch=1 n=d7 v=108
297936 On ch=1 n=d6 v=104
297936 On ch=1 n=f#4 v=118
297938 On ch=1 n=a6 v=101
297940 On ch=1 n=f#3 v=116
297972 On ch=1 n=a6 v=0
297974 On ch=1 n=d6 v=0
297988 On ch=1 n=f#4 v=0
297998 On ch=1 n=f#3 v=0
297998 On ch=1 n=d7 v=0
298122 On ch=1 n=a6 v=118
298124 On ch=1 n=d6 v=117
298124 On ch=1 n=d7 v=114
298132 On ch=1 n=f#3 v=118
298134 On ch=1 n=f#4 v=118
298176 On ch=1 n=d6 v=0
298176 On ch=1 n=a6 v=0
298182 On ch=1 n=f#4 v=0
298188 On ch=1 n=d7 v=0
298192 On ch=1 n=f#3 v=0
298318 On ch=1 n=d7 v=112
298326 On ch=1 n=a6 v=109
298326 On ch=1 n=d6 v=107
298326 On ch=1 n=f#4 v=120
298330 On ch=1 n=f#3 v=118
298374 On ch=1 n=d6 v=0
298374 On ch=1 n=a6 v=0
298390 On ch=1 n=f#3 v=0
298390 On ch=1 n=f#4 v=0
298398 On ch=1 n=d7 v=0
298524 On ch=1 n=b6 v=117
298528 On ch=1 n=g3 v=107
298528 On ch=1 n=d6 v=125
298530 On ch=1 n=g6 v=120
298530 On ch=1 n=g4 v=109
298554 Par ch=1 c=64 v=63
298556 Par ch=1 c=64 v=127
298560 On ch=1 n=g3 v=0
298564 On ch=1 n=g4 v=0
298576 On ch=1 n=d6 v=0
298578 On ch=1 n=g6 v=0
298584 On ch=1 n=b6 v=0
298942 Par ch=1 c=64 v=63
298948 Par ch=1 c=64 v=0
299162 On ch=1 n=g6 v=79
299244 On ch=1 n=e6 v=80
299272 On ch=1 n=g6 v=0
299318 On ch=1 n=c#6 v=87
299336 On ch=1 n=e6 v=0
299338 On ch=1 n=e5 v=68
299340 On ch=1 n=a4 v=63
299386 On ch=1 n=c#6 v=0
299388 On ch=1 n=e5 v=0
299394 On ch=1 n=a4 v=0
299528 On ch=1 n=c#6 v=86
299530 On ch=1 n=g5 v=87
299540 On ch=1 n=e5 v=61
299540 On ch=1 n=a4 v=59
299566 On ch=1 n=c#6 v=0
299574 On ch=1 n=g5 v=0
299584 On ch=1 n=e5 v=0
299594 On ch=1 n=a4 v=0
299722 On ch=1 n=e5 v=67
299722 On ch=1 n=c#6 v=89
299726 On ch=1 n=a4 v=53
299730 On ch=1 n=g5 v=65
299762 On ch=1 n=c#6 v=0
299766 On ch=1 n=e5 v=0
299780 On ch=1 n=g5 v=0
299782 On ch=1 n=a4 v=0
299898 On ch=1 n=g5 v=77
299902 On ch=1 n=a4 v=79
299916 On ch=1 n=c#6 v=88
299920 On ch=1 n=e5 v=48
299956 On ch=1 n=c#6 v=0
299976 On ch=1 n=g5 v=0
299980 On ch=1 n=e5 v=0
300020 On ch=1 n=a4 v=0
300094 Par ch=1 c=64 v=63
300100 On ch=1 n=d6 v=93
300106 Par ch=1 c=64 v=127
300120 On ch=1 n=b4 v=71
300128 On ch=1 n=f#5 v=60
300128 On ch=1 n=d5 v=68
300176 On ch=1 n=f#5 v=0
300192 On ch=1 n=d5 v=0
300212 On ch=1 n=d6 v=0
300222 On ch=1 n=b4 v=0
300458 Par ch=1 c=64 v=63
300470 Par ch=1 c=64 v=0
300914 On ch=1 n=b6 v=118
300914 On ch=1 n=g#4 v=126
300916 On ch=1 n=f6 v=125
300916 On ch=1 n=g#3 v=124
300918 On ch=1 n=d6 v=120
300930 Par ch=1 c=64 v=63
300932 Par ch=1 c=64 v=127
300970 On ch=1 n=d6 v=0
300972 On ch=1 n=f6 v=0
300978 On ch=1 n=g#4 v=0
300980 On ch=1 n=b6 v=0
300988 On ch=1 n=g#3 v=0
301258 Par ch=1 c=64 v=63
301276 Par ch=1 c=64 v=0
301700 Par ch=1 c=64 v=63
301710 Par ch=1 c=64 v=127
301724 On ch=1 n=a3 v=118
301724 On ch=1 n=a6 v=125
301724 On ch=1 n=a4 v=124
301726 On ch=1 n=d6 v=125
301728 On ch=1 n=f#6 v=125
301784 On ch=1 n=d6 v=0
301794 On ch=1 n=a6 v=0
301802 On ch=1 n=f#6 v=0
301832 On ch=1 n=a4 v=0
301840 On ch=1 n=a3 v=0
302104 Par ch=1 c=64 v=63
302132 Par ch=1 c=64 v=0
302756 On ch=1 n=a3 v=33
302760 On ch=1 n=a2 v=44
302760 On ch=1 n=c#5 v=66
302762 On ch=1 n=g4 v=44
302764 On ch=1 n=e4 v=36
302782 Par ch=1 c=64 v=63
302828 Par ch=1 c=64 v=127
303012 On ch=1 n=g4 v=0
303028 On ch=1 n=c#5 v=0
303030 On ch=1 n=a2 v=0
303032 On ch=1 n=e4 v=0
303048 On ch=1 n=a3 v=0
303300 Par ch=1 c=64 v=63
303386 Par ch=1 c=64 v=0
304292 Par ch=1 c=64 v=63
304362 On ch=1 n=a4 v=40
304402 On ch=1 n=f#4 v=32
304408 Par ch=1 c=64 v=127
304414 On ch=1 n=d4 v=35
304820 On ch=1 n=f#5 v=47
304876 On ch=1 n=a4 v=0
305002 On ch=1 n=d5 v=57
305014 On ch=1 n=f#5 v=0
305090 On ch=1 n=d4 v=0
305230 On ch=1 n=c#5 v=77
305242 On ch=1 n=d4 v=49
305258 On ch=1 n=g4 v=52
305270 On ch=1 n=d5 v=0
305300 On ch=1 n=f#4 v=0
305348 Par ch=1 c=64 v=63
305392 Par ch=1 c=64 v=0
305426 Par ch=1 c=64 v=63
305496 Par ch=1 c=64 v=127
305672 On ch=1 n=b4 v=78
305680 On ch=1 n=c#5 v=0
305894 On ch=1 n=b4 v=0
305904 On ch=1 n=g5 v=70
305984 On ch=1 n=e5 v=73
306034 On ch=1 n=e4 v=59
306044 Par ch=1 c=64 v=63
306058 On ch=1 n=g5 v=0
306058 On ch=1 n=d5 v=97
306070 On ch=1 n=e5 v=0
306100 Par ch=1 c=64 v=0
306126 Par ch=1 c=64 v=63
306224 Par ch=1 c=64 v=127
306256 On ch=1 n=c#5 v=106
306292 On ch=1 n=d5 v=0
306458 On ch=1 n=c#5 v=0
306476 On ch=1 n=b5 v=85
306652 On ch=1 n=a5 v=99
306712 On ch=1 n=b5 v=0
306732 On ch=1 n=d4 v=0
306794 On ch=1 n=a5 v=0
306848 On ch=1 n=e4 v=0
306854 On ch=1 n=f#4 v=74
306856 On ch=1 n=a5 v=90
306866 On ch=1 n=d4 v=64
306880 On ch=1 n=d5 v=85
306910 Par ch=1 c=64 v=63
306924 Par ch=1 c=64 v=0
306956 On ch=1 n=g4 v=0
307064 Par ch=1 c=64 v=63
307082 Par ch=1 c=64 v=127
307184 On ch=1 n=a5 v=0
307186 On ch=1 n=f#5 v=93
307198 On ch=1 n=d5 v=0
307230 Par ch=1 c=64 v=63
307238 Par ch=1 c=64 v=0
307260 On ch=1 n=a5 v=102
307274 On ch=1 n=f#5 v=0
307324 On ch=1 n=f#4 v=0
307344 On ch=1 n=d4 v=0
307438 On ch=1 n=a5 v=0
307682 On ch=1 n=d4 v=111
307682 On ch=1 n=a5 v=98
307684 On ch=1 n=f#3 v=114
307724 Par ch=1 c=64 v=63
307724 Par ch=1 c=64 v=127
308114 On ch=1 n=f#6 v=99
308116 On ch=1 n=f#3 v=0
308210 On ch=1 n=a5 v=0
308282 On ch=1 n=d6 v=96
308358 On ch=1 n=f#6 v=0
308498 On ch=1 n=g3 v=98
308500 On ch=1 n=g4 v=106
308510 On ch=1 n=b5 v=104
308534 On ch=1 n=d6 v=0
308544 On ch=1 n=d4 v=0
308580 Par ch=1 c=64 v=63
308588 Par ch=1 c=64 v=0
308748 Par ch=1 c=64 v=63
308760 Par ch=1 c=64 v=127
309022 On ch=1 n=g3 v=0
309090 On ch=1 n=b5 v=0
309112 On ch=1 n=g6 v=71
309170 On ch=1 n=g4 v=0
309186 On ch=1 n=e6 v=97
309226 On ch=1 n=g6 v=0
309274 On ch=1 n=e6 v=0
309282 Par ch=1 c=64 v=63
309284 On ch=1 n=c#6 v=106
309298 Par ch=1 c=64 v=0
309308 On ch=1 n=g4 v=98
309310 On ch=1 n=a3 v=98
309316 On ch=1 n=e4 v=96
309364 On ch=1 n=c#6 v=0
309388 On ch=1 n=d6 v=103
309490 On ch=1 n=e6 v=102
309514 On ch=1 n=d6 v=0
309574 On ch=1 n=f#6 v=112
309602 On ch=1 n=e6 v=0
309664 On ch=1 n=g6 v=107
309676 On ch=1 n=f#6 v=0
309758 On ch=1 n=a3 v=0
309766 On ch=1 n=a6 v=109
309780 On ch=1 n=e4 v=0
309800 On ch=1 n=g6 v=0
309848 On ch=1 n=b6 v=97
309906 On ch=1 n=a6 v=0
309938 On ch=1 n=c#7 v=107
310004 On ch=1 n=b6 v=0
310038 On ch=1 n=d7 v=117
310054 On ch=1 n=f#4 v=119
310056 On ch=1 n=d4 v=108
310088 On ch=1 n=c#7 v=0
310108 On ch=1 n=g4 v=0
310114 On ch=1 n=d7 v=0
310144 On ch=1 n=f#4 v=0
310146 On ch=1 n=d4 v=0
310472 On ch=1 n=e6 v=99
310474 On ch=1 n=c#6 v=110
310480 On ch=1 n=a4 v=117
310482 On ch=1 n=a6 v=101
310482 On ch=1 n=a3 v=103
310484 On ch=1 n=a5 v=99
310512 On ch=1 n=f#6 v=55
310520 On ch=1 n=a5 v=0
310524 On ch=1 n=e6 v=0
310528 On ch=1 n=c#6 v=0
310538 On ch=1 n=a6 v=0
310548 On ch=1 n=a3 v=0
310550 On ch=1 n=a4 v=0
310554 On ch=1 n=f#6 v=0
310876 On ch=1 n=d5 v=120
310878 On ch=1 n=d4 v=109
310880 On ch=1 n=f#6 v=118
310882 On ch=1 n=d6 v=112
310884 On ch=1 n=a5 v=116
310932 On ch=1 n=d5 v=0
310936 On ch=1 n=a5 v=0
310938 On ch=1 n=d6 v=0
310944 On ch=1 n=f#6 v=0
310952 On ch=1 n=d4 v=0
311296 On ch=1 n=c#6 v=119
311296 On ch=1 n=a4 v=120
311296 On ch=1 n=a5 v=106
311298 On ch=1 n=a3 v=114
311298 On ch=1 n=e5 v=117
311300 On ch=1 n=g5 v=103
311334 On ch=1 n=a4 v=0
311358 On ch=1 n=e5 v=0
311364 On ch=1 n=g5 v=0
311366 On ch=1 n=a3 v=0
311368 On ch=1 n=a5 v=0
311402 On ch=1 n=c#6 v=0
311720 On ch=1 n=a5 v=100
311722 On ch=1 n=f#5 v=106
311724 On ch=1 n=d6 v=107
311728 On ch=1 n=d5 v=100
311730 On ch=1 n=d3 v=118
311730 On ch=1 n=d4 v=122
311760 On ch=1 n=d5 v=0
311766 Par ch=1 c=64 v=63
311768 Par ch=1 c=64 v=127
311782 On ch=1 n=d4 v=0
311782 On ch=1 n=f#5 v=0
311784 On ch=1 n=a5 v=0
311796 On ch=1 n=d6 v=0
311804 On ch=1 n=d3 v=0
312296 Par ch=1 c=64 v=63
312306 Par ch=1 c=64 v=0
313178 Par ch=1 c=64 v=63
313202 Par ch=1 c=64 v=127
313454 Par ch=1 c=64 v=63
313484 Par ch=1 c=64 v=0
313484 Meta TrkEnd
TrkEnd
MTrk
0 SeqSpec 43 00 01 00
0 Meta TrkName "                                    "
0 TimeSig 4/4 24 8
0 Meta TrkEnd
TrkEnd
MTrk
0 SeqSpec 43 00 01 00
0 Meta TrkName "                                    "
0 TimeSig 4/4 24 8
0 Meta TrkEnd
TrkEnd
MTrk
0 SeqSpec 43 00 01 00
0 Meta TrkName "                                    "
0 TimeSig 4/4 24 8
0 Meta TrkEnd
TrkEnd
MTrk
0 SeqSpec 43 00 01 00
0 Meta TrkName "                                    "
0 TimeSig 4/4 24 8
0 Meta TrkEnd
TrkEnd
MTrk
0 SeqSpec 43 00 01 00
0 Meta TrkName "                                    "
0 TimeSig 4/4 24 8
0 Meta TrkEnd
TrkEnd
MTrk
0 SeqSpec 43 00 01 00
0 Meta TrkName "                                    "
0 TimeSig 4/4 24 8
0 Meta TrkEnd
TrkEnd
MTrk
0 SeqSpec 43 00 01 00
0 Meta TrkName "                                    "
0 TimeSig 4/4 24 8
0 Meta TrkEnd
TrkEnd
MTrk
0 SeqSpec 43 00 01 00
0 Meta TrkName "                                    "
0 TimeSig 4/4 24 8
0 Meta TrkEnd
TrkEnd
MTrk
0 SeqSpec 43 00 01 00
0 Meta TrkName "                                    "
0 TimeSig 4/4 24 8
0 Meta TrkEnd
TrkEnd
MTrk
0 SeqSpec 43 00 01 00
0 Meta TrkName "                                    "
0 TimeSig 4/4 24 8
0 Meta TrkEnd
TrkEnd
MTrk
0 SeqSpec 43 00 01 00
0 Meta TrkName "                                    "
0 TimeSig 4/4 24 8
0 Meta TrkEnd
TrkEnd
MTrk
0 SeqSpec 43 00 01 00
0 Meta TrkName "                                    "
0 TimeSig 4/4 24 8
0 Meta TrkEnd
TrkEnd
MTrk
0 SeqSpec 43 00 01 00
0 Meta TrkName "                                    "
0 TimeSig 4/4 24 8
0 Meta TrkEnd
TrkEnd
MTrk
0 SeqSpec 43 00 01 00
0 Meta TrkName "                                    "
0 TimeSig 4/4 24 8
0 Meta TrkEnd
TrkEnd
MTrk
0 SeqSpec 43 00 01 00
0 Meta TrkName "                                    "
0 TimeSig 4/4 24 8
0 Meta TrkEnd
TrkEnd
MTrk
0 SeqSpec 43 00 01 00
0 Meta TrkName "                                    "
0 TimeSig 4/4 24 8
0 Meta TrkEnd
TrkEnd
