MFile 1 18 480
MTrk
0 Tempo 500000
0 TimeSig 4/4 24 8
0 Meta TrkEnd
TrkEnd
MTrk
0 SeqSpec 43 00 01 00
0 Meta TrkName "PIANO                               "
0 TimeSig 4/4 24 8
0 SysEx f0 41 10 42 12 40 00 7f 00 41 f7
0 SysEx f0 41 10 42 12 40 00 04 64 58 f7
340 SysEx f0 41 10 42 12 40 01 30 03 0c f7
340 SysEx f0 41 10 42 12 40 01 33 50 3c f7
340 SysEx f0 41 10 42 12 40 01 34 3c 4f f7
744 Par ch=1 c=0 v=0
748 Par ch=1 c=32 v=1
752 PrCh ch=1 p=0
756 Par ch=1 c=7 v=100
948 Par ch=1 c=11 v=100
1140 Par ch=1 c=10 v=64
1332 Par ch=1 c=1 v=0
1332 Par ch=1 c=91 v=80
1350 Par ch=1 c=99 v=1
1354 Par ch=1 c=98 v=32
1358 Par ch=1 c=6 v=62
1362 Par ch=1 c=99 v=1
1366 Par ch=1 c=98 v=33
1370 Par ch=1 c=6 v=54
1374 Par ch=1 c=99 v=1
1378 Par ch=1 c=98 v=99
1382 Par ch=1 c=6 v=62
1386 Par ch=1 c=99 v=1
1390 Par ch=1 c=98 v=100
1394 Par ch=1 c=6 v=60
1398 Par ch=1 c=99 v=1
1402 Par ch=1 c=98 v=102
1406 Par ch=1 c=6 v=70
2736 On ch=1 n=d#4 v=51
2742 On ch=1 n=a#5 v=58
2768 Par ch=1 c=64 v=63
2892 Par ch=1 c=64 v=127
3266 On ch=1 n=g4 v=36
3646 On ch=1 n=a#4 v=40
3776 On ch=1 n=g4 v=0
4040 On ch=1 n=g4 v=32
4144 On ch=1 n=a#4 v=0
4146 On ch=1 n=d#4 v=0
4334 On ch=1 n=a#5 v=0
4396 On ch=1 n=d#4 v=40
4430 On ch=1 n=g5 v=52
4516 On ch=1 n=g4 v=0
4820 On ch=1 n=g4 v=29
4964 On ch=1 n=g5 v=0
5178 On ch=1 n=a#4 v=36
5186 On ch=1 n=g5 v=60
5210 On ch=1 n=g4 v=0
5544 On ch=1 n=a#4 v=0
5560 On ch=1 n=d#4 v=0
5580 On ch=1 n=g4 v=27
5614 On ch=1 n=g5 v=0
5744 On ch=1 n=g4 v=0
5994 On ch=1 n=a#3 v=36
6008 On ch=1 n=g5 v=60
6018 On ch=1 n=d#5 v=46
6272 Par ch=1 c=64 v=63
6370 Par ch=1 c=64 v=127
6374 On ch=1 n=d#4 v=52
6756 On ch=1 n=g4 v=43
6820 On ch=1 n=d#4 v=0
6820 On ch=1 n=d#5 v=0
6908 On ch=1 n=g5 v=0
7162 On ch=1 n=d#4 v=58
7178 On ch=1 n=a#3 v=0
7206 On ch=1 n=g4 v=0
7318 On ch=1 n=g#5 v=70
7548 On ch=1 n=d#4 v=0
7550 On ch=1 n=a#3 v=39
7564 On ch=1 n=f5 v=58
7582 On ch=1 n=d5 v=41
7604 On ch=1 n=g#5 v=0
7794 Par ch=1 c=64 v=63
7948 Par ch=1 c=64 v=127
7968 On ch=1 n=d4 v=57
8280 On ch=1 n=d5 v=0
8358 On ch=1 n=f4 v=43
8434 On ch=1 n=d4 v=0
8446 On ch=1 n=f5 v=0
8744 On ch=1 n=d4 v=30
8956 On ch=1 n=a#3 v=0
9060 On ch=1 n=f4 v=0
9256 On ch=1 n=g4 v=50
9268 On ch=1 n=d#4 v=72
9270 On ch=1 n=d#5 v=88
9444 On ch=1 n=d4 v=0
9520 Par ch=1 c=64 v=63
9608 Par ch=1 c=64 v=127
9752 On ch=1 n=a#4 v=58
9908 On ch=1 n=g4 v=0
10116 On ch=1 n=g4 v=66
10194 On ch=1 n=a#4 v=0
10442 On ch=1 n=a#4 v=80
10452 On ch=1 n=d#4 v=0
10548 On ch=1 n=d#5 v=0
10558 On ch=1 n=g4 v=0
10582 On ch=1 n=a#4 v=0
10834 On ch=1 n=f5 v=93
10836 On ch=1 n=a#3 v=76
10842 On ch=1 n=d5 v=90
11066 Par ch=1 c=64 v=63
11184 Par ch=1 c=64 v=127
11212 On ch=1 n=a#4 v=59
11288 On ch=1 n=d5 v=0
11610 On ch=1 n=d5 v=73
11646 On ch=1 n=a#4 v=0
11832 On ch=1 n=a#3 v=0
11996 On ch=1 n=a#4 v=66
12006 On ch=1 n=f5 v=0
12080 On ch=1 n=d5 v=0
12232 On ch=1 n=a#4 v=0
12456 On ch=1 n=d#5 v=71
12458 Par ch=1 c=64 v=63
12464 On ch=1 n=g5 v=62
12472 On ch=1 n=d#3 v=55
12542 Par ch=1 c=64 v=127
12648 On ch=1 n=d#5 v=0
12686 On ch=1 n=g5 v=0
12930 On ch=1 n=g#5 v=78
13012 On ch=1 n=g#5 v=0
13014 On ch=1 n=g5 v=63
13098 On ch=1 n=g5 v=0
13102 On ch=1 n=f5 v=65
13168 On ch=1 n=g5 v=65
13186 On ch=1 n=f5 v=0
13322 On ch=1 n=g#5 v=78
13370 On ch=1 n=g5 v=0
13460 Par ch=1 c=64 v=63
13516 On ch=1 n=a#5 v=86
13556 On ch=1 n=g#5 v=0
13572 Par ch=1 c=64 v=0
13678 On ch=1 n=a#5 v=0
13692 On ch=1 n=c6 v=77
13770 On ch=1 n=d#3 v=0
13856 On ch=1 n=d6 v=90
13884 On ch=1 n=c6 v=0
14034 On ch=1 n=d#6 v=82
14050 On ch=1 n=d6 v=0
14270 On ch=1 n=d#6 v=0
14314 On ch=1 n=a#5 v=57
14482 Par ch=1 c=64 v=63
14492 Par ch=1 c=64 v=127
14728 On ch=1 n=a#5 v=0
15250 Par ch=1 c=64 v=63
15356 Par ch=1 c=64 v=0
15478 On ch=1 n=d#6 v=43
15494 On ch=1 n=g6 v=46
15636 Par ch=1 c=64 v=63
15680 Par ch=1 c=64 v=127
15932 On ch=1 n=d#6 v=0
16024 On ch=1 n=d6 v=64
16028 On ch=1 n=g6 v=0
16032 On ch=1 n=f6 v=68
16332 On ch=1 n=d6 v=0
16398 On ch=1 n=f6 v=0
16402 On ch=1 n=d#6 v=91
16420 On ch=1 n=c6 v=68
16476 On ch=1 n=d#6 v=0
16492 On ch=1 n=c6 v=0
16792 On ch=1 n=d6 v=84
16808 On ch=1 n=a#5 v=73
16926 On ch=1 n=a#5 v=0
17110 On ch=1 n=d6 v=0
17188 On ch=1 n=d4 v=81
17190 On ch=1 n=g#5 v=61
17192 On ch=1 n=c6 v=74
17266 Par ch=1 c=64 v=63
17322 Par ch=1 c=64 v=0
17466 Par ch=1 c=64 v=63
17538 Par ch=1 c=64 v=127
17556 On ch=1 n=d#4 v=86
17574 On ch=1 n=g#5 v=0
17578 On ch=1 n=a#5 v=88
17586 On ch=1 n=g5 v=55
17648 On ch=1 n=c6 v=0
17664 On ch=1 n=d4 v=0
17778 On ch=1 n=g5 v=0
17928 On ch=1 n=g#5 v=89
17944 On ch=1 n=f5 v=68
17948 On ch=1 n=f4 v=87
17968 Par ch=1 c=64 v=63
18000 On ch=1 n=a#5 v=0
18050 On ch=1 n=d#4 v=0
18070 Par ch=1 c=64 v=127
18140 On ch=1 n=f5 v=0
18314 On ch=1 n=g5 v=84
18318 On ch=1 n=f4 v=0
18320 On ch=1 n=g4 v=77
18322 On ch=1 n=g#5 v=0
18334 On ch=1 n=d#5 v=76
18380 Par ch=1 c=64 v=63
18408 Par ch=1 c=64 v=127
18542 On ch=1 n=g4 v=0
18606 On ch=1 n=d#5 v=0
18738 On ch=1 n=c6 v=83
18752 On ch=1 n=c5 v=58
18756 On ch=1 n=g#4 v=65
18806 On ch=1 n=g5 v=0
18860 Par ch=1 c=64 v=63
18998 Par ch=1 c=64 v=127
19164 On ch=1 n=g#5 v=80
19180 On ch=1 n=f5 v=59
19184 On ch=1 n=c6 v=0
19190 On ch=1 n=f4 v=48
19226 On ch=1 n=g#4 v=0
19254 On ch=1 n=c5 v=0
19308 On ch=1 n=g#5 v=0
19578 On ch=1 n=f5 v=0
19672 On ch=1 n=g5 v=65
19682 On ch=1 n=d#5 v=52
19700 On ch=1 n=a4 v=47
19744 On ch=1 n=f4 v=0
19992 Par ch=1 c=64 v=63
20062 Par ch=1 c=64 v=0
20164 On ch=1 n=a#4 v=66
20166 Par ch=1 c=64 v=63
20210 On ch=1 n=a4 v=0
20226 Par ch=1 c=64 v=127
20582 On ch=1 n=g4 v=70
20654 On ch=1 n=a#4 v=0
20966 On ch=1 n=d#4 v=76
21010 On ch=1 n=g4 v=0
21098 On ch=1 n=d#5 v=0
21304 On ch=1 n=g5 v=0
21402 On ch=1 n=a#3 v=42
21412 On ch=1 n=f5 v=65
21424 On ch=1 n=d5 v=56
21458 On ch=1 n=d#4 v=0
21582 Par ch=1 c=64 v=63
21628 Par ch=1 c=64 v=0
21822 Par ch=1 c=64 v=63
21862 Par ch=1 c=64 v=127
21912 On ch=1 n=g5 v=54
21962 On ch=1 n=f5 v=0
22140 Par ch=1 c=64 v=63
22222 Par ch=1 c=64 v=127
22326 On ch=1 n=g#5 v=55
22422 On ch=1 n=a#3 v=0
22450 On ch=1 n=g5 v=0
22512 On ch=1 n=d5 v=0
22578 On ch=1 n=g#5 v=0
22864 On ch=1 n=a5 v=46
22888 Par ch=1 c=64 v=63
22942 Par ch=1 c=64 v=127
23332 On ch=1 n=a5 v=0
23618 On ch=1 n=d#4 v=43
23680 On ch=1 n=a#5 v=55
24158 On ch=1 n=g4 v=30
24272 On ch=1 n=a#5 v=0
24550 On ch=1 n=a#4 v=37
24622 On ch=1 n=g4 v=0
24766 On ch=1 n=d6 v=52
24938 On ch=1 n=d#6 v=58
24942 On ch=1 n=d6 v=0
24968 On ch=1 n=a#4 v=0
24970 On ch=1 n=g4 v=19
24972 On ch=1 n=d#4 v=0
25106 On ch=1 n=a#5 v=59
25118 On ch=1 n=d#6 v=0
25286 On ch=1 n=g5 v=68
25294 On ch=1 n=d#4 v=51
25298 On ch=1 n=a#5 v=0
25366 On ch=1 n=g4 v=0
25402 Par ch=1 c=64 v=63
25566 Par ch=1 c=64 v=127
25584 On ch=1 n=g5 v=0
25678 On ch=1 n=g5 v=76
25696 On ch=1 n=g4 v=30
25850 On ch=1 n=g5 v=0
26022 On ch=1 n=g4 v=0
26030 On ch=1 n=a#4 v=42
26030 On ch=1 n=g5 v=68
26166 On ch=1 n=g5 v=0
26412 On ch=1 n=a#4 v=0
26414 On ch=1 n=g5 v=73
26438 On ch=1 n=g4 v=39
26448 On ch=1 n=d#4 v=0
26544 On ch=1 n=g5 v=0
26562 On ch=1 n=g4 v=0
26802 On ch=1 n=a#3 v=43
26822 On ch=1 n=g5 v=49
26838 On ch=1 n=d#5 v=41
26916 Par ch=1 c=64 v=63
27016 Par ch=1 c=64 v=127
27170 On ch=1 n=d#4 v=57
27362 On ch=1 n=d#5 v=0
27460 On ch=1 n=g5 v=0
27520 On ch=1 n=a#3 v=0
27524 On ch=1 n=g4 v=44
27542 On ch=1 n=d#4 v=0
27624 On ch=1 n=g#5 v=73
27710 On ch=1 n=g5 v=65
27728 On ch=1 n=g#5 v=0
27792 On ch=1 n=f5 v=74
27806 On ch=1 n=g5 v=0
27874 On ch=1 n=g5 v=68
27904 On ch=1 n=f5 v=0
27912 On ch=1 n=g4 v=0
27920 On ch=1 n=d#4 v=53
28038 On ch=1 n=g#5 v=74
28058 On ch=1 n=g5 v=0
28186 Par ch=1 c=64 v=63
28248 On ch=1 n=g#5 v=0
28258 On ch=1 n=a#3 v=53
28264 Par ch=1 c=64 v=0
28274 On ch=1 n=f5 v=61
28288 On ch=1 n=d#4 v=0
28290 On ch=1 n=d5 v=59
28462 Par ch=1 c=64 v=63
28502 Par ch=1 c=64 v=127
28624 On ch=1 n=d4 v=55
28664 On ch=1 n=d5 v=0
28724 On ch=1 n=a#3 v=0
28764 On ch=1 n=f5 v=0
29010 On ch=1 n=f4 v=47
29020 On ch=1 n=d4 v=0
29212 On ch=1 n=a#5 v=76
29406 On ch=1 n=d4 v=56
29430 On ch=1 n=g#5 v=84
29494 On ch=1 n=a#5 v=0
29502 On ch=1 n=f4 v=0
29586 On ch=1 n=f5 v=96
29650 On ch=1 n=g#5 v=0
29832 On ch=1 n=d#5 v=101
29850 On ch=1 n=d#4 v=83
29882 On ch=1 n=f5 v=0
29916 On ch=1 n=d4 v=0
29932 Par ch=1 c=64 v=63
29962 Par ch=1 c=64 v=0
30140 Par ch=1 c=64 v=63
30156 Par ch=1 c=64 v=127
30384 On ch=1 n=a#4 v=51
30762 On ch=1 n=g4 v=49
30866 On ch=1 n=a#4 v=0
31108 On ch=1 n=a#4 v=67
31170 On ch=1 n=d#5 v=0
31186 On ch=1 n=d#4 v=0
31248 On ch=1 n=g4 v=0
31318 On ch=1 n=a#4 v=0
31496 On ch=1 n=f5 v=97
31504 On ch=1 n=a#3 v=86
31508 On ch=1 n=d5 v=94
31702 Par ch=1 c=64 v=63
31738 Par ch=1 c=64 v=0
31830 Par ch=1 c=64 v=63
31858 Par ch=1 c=64 v=127
31860 On ch=1 n=a#4 v=65
31918 On ch=1 n=d5 v=0
32260 On ch=1 n=d5 v=72
32286 On ch=1 n=a#4 v=0
32544 On ch=1 n=a#3 v=0
32632 On ch=1 n=a#4 v=67
32640 On ch=1 n=d5 v=0
32704 On ch=1 n=f5 v=0
32764 On ch=1 n=a#4 v=0
33100 On ch=1 n=d#3 v=69
33102 On ch=1 n=g5 v=79
33124 On ch=1 n=d#5 v=71
33170 Par ch=1 c=64 v=63
33284 Par ch=1 c=64 v=127
33320 On ch=1 n=d#5 v=0
33400 On ch=1 n=g5 v=0
33506 On ch=1 n=g#5 v=48
33556 On ch=1 n=g5 v=73
33576 On ch=1 n=g#5 v=0
33646 On ch=1 n=g5 v=0
33664 On ch=1 n=f5 v=65
33746 On ch=1 n=f5 v=0
33746 On ch=1 n=g5 v=83
33908 Par ch=1 c=64 v=63
33914 On ch=1 n=g#5 v=90
33942 On ch=1 n=g5 v=0
34038 Par ch=1 c=64 v=127
34070 On ch=1 n=a#5 v=79
34102 Par ch=1 c=64 v=63
34128 On ch=1 n=g#5 v=0
34174 On ch=1 n=d#3 v=0
34188 On ch=1 n=a#5 v=0
34244 On ch=1 n=c6 v=81
34364 Par ch=1 c=64 v=0
34396 On ch=1 n=c6 v=0
34408 On ch=1 n=d6 v=77
34560 On ch=1 n=d6 v=0
34584 On ch=1 n=d#6 v=73
34730 On ch=1 n=d#6 v=0
34838 Par ch=1 c=64 v=63
34844 On ch=1 n=a#5 v=66
34892 Par ch=1 c=64 v=127
35094 On ch=1 n=a#5 v=0
35504 Par ch=1 c=64 v=63
35810 On ch=1 n=d#6 v=51
35980 On ch=1 n=d#6 v=0
36012 Par ch=1 c=64 v=0
36030 On ch=1 n=d6 v=60
36122 On ch=1 n=d6 v=0
36236 On ch=1 n=c#6 v=73
36344 On ch=1 n=c#6 v=0
36408 On ch=1 n=c6 v=65
36542 On ch=1 n=c6 v=0
36652 On ch=1 n=b5 v=46
36780 Par ch=1 c=64 v=63
36800 Par ch=1 c=64 v=127
36976 On ch=1 n=b5 v=0
37028 On ch=1 n=d#5 v=37
37052 On ch=1 n=g4 v=35
37324 On ch=1 n=g4 v=0
37360 On ch=1 n=d#5 v=0
37428 On ch=1 n=d#6 v=76
37512 Par ch=1 c=64 v=63
37552 On ch=1 n=d#6 v=0
37558 Par ch=1 c=64 v=0
37614 On ch=1 n=d6 v=73
37692 On ch=1 n=d6 v=0
37772 On ch=1 n=c#6 v=85
37850 On ch=1 n=c#6 v=0
37914 On ch=1 n=c6 v=77
38012 On ch=1 n=c6 v=0
38098 On ch=1 n=b5 v=70
38258 Par ch=1 c=64 v=63
38284 Par ch=1 c=64 v=127
38442 On ch=1 n=b5 v=0
38460 On ch=1 n=d#5 v=50
38472 On ch=1 n=g4 v=41
38580 On ch=1 n=g4 v=0
38586 On ch=1 n=d#5 v=0
38836 On ch=1 n=d#6 v=86
38982 On ch=1 n=d#6 v=0
38992 On ch=1 n=d6 v=83
39086 On ch=1 n=d6 v=0
39104 Par ch=1 c=64 v=63
39176 On ch=1 n=c#6 v=96
39266 On ch=1 n=c#6 v=0
39340 On ch=1 n=c6 v=101
39438 Par ch=1 c=64 v=127
39588 On ch=1 n=c6 v=0
39644 On ch=1 n=d#5 v=77
39650 On ch=1 n=b5 v=93
39668 On ch=1 n=g4 v=63
40086 Par ch=1 c=64 v=63
40154 Par ch=1 c=64 v=0
40770 Par ch=1 c=64 v=63
40830 Par ch=1 c=64 v=127
41282 On ch=1 n=g4 v=0
41738 On ch=1 n=c6 v=43
41764 On ch=1 n=g#4 v=48
41820 On ch=1 n=b5 v=0
41896 Par ch=1 c=64 v=63
42074 Par ch=1 c=64 v=127
42214 On ch=1 n=c6 v=0
42360 On ch=1 n=g#4 v=0
42402 On ch=1 n=d#5 v=0
42726 On ch=1 n=f5 v=58
42856 On ch=1 n=f5 v=0
42928 Par ch=1 c=64 v=63
42934 On ch=1 n=g5 v=72
43020 On ch=1 n=g5 v=0
43064 Par ch=1 c=64 v=0
43108 On ch=1 n=g#5 v=88
43200 On ch=1 n=g#5 v=0
43252 On ch=1 n=a5 v=94
43356 On ch=1 n=a5 v=0
43478 On ch=1 n=a#5 v=99
43640 Par ch=1 c=64 v=63
43734 Par ch=1 c=64 v=127
44102 On ch=1 n=a#5 v=0
44328 On ch=1 n=d#4 v=79
44338 On ch=1 n=g3 v=74
44518 On ch=1 n=c6 v=85
44672 On ch=1 n=g3 v=0
44708 On ch=1 n=d6 v=88
44756 On ch=1 n=c6 v=0
44826 On ch=1 n=d#4 v=0
44858 On ch=1 n=d#6 v=101
44890 On ch=1 n=d6 v=0
44936 On ch=1 n=d#6 v=0
45126 On ch=1 n=g4 v=69
45154 On ch=1 n=d#5 v=96
45154 On ch=1 n=a#3 v=43
45168 On ch=1 n=a#4 v=64
45208 On ch=1 n=a#4 v=0
45744 On ch=1 n=g4 v=0
45980 On ch=1 n=g#4 v=88
46126 Par ch=1 c=64 v=63
46256 Par ch=1 c=64 v=127
46468 On ch=1 n=g5 v=73
46498 On ch=1 n=d5 v=59
46510 On ch=1 n=d#5 v=0
46562 On ch=1 n=a#3 v=0
46642 On ch=1 n=f5 v=80
46652 On ch=1 n=g5 v=0
46738 On ch=1 n=d5 v=0
46796 On ch=1 n=g#4 v=0
46880 On ch=1 n=d#5 v=67
46902 On ch=1 n=g4 v=40
46904 On ch=1 n=f5 v=0
46904 On ch=1 n=d#4 v=52
46974 Par ch=1 c=64 v=63
47038 Par ch=1 c=64 v=0
47358 On ch=1 n=d#5 v=0
47384 On ch=1 n=d#4 v=0
47412 On ch=1 n=g4 v=0
47814 On ch=1 n=d#5 v=54
47842 Par ch=1 c=64 v=63
47852 On ch=1 n=g4 v=22
47856 On ch=1 n=d#4 v=36
47880 Par ch=1 c=64 v=127
48038 On ch=1 n=d#4 v=0
48090 On ch=1 n=g4 v=0
48126 On ch=1 n=d#5 v=0
48772 Par ch=1 c=64 v=63
48904 Par ch=1 c=64 v=0
50602 Par ch=1 c=64 v=63
50998 Par ch=1 c=64 v=127
51026 On ch=1 n=a#4 v=43
51036 On ch=1 n=f6 v=69
51090 On ch=1 n=d6 v=32
51598 On ch=1 n=f5 v=18
51716 On ch=1 n=d6 v=0
52008 On ch=1 n=d6 v=24
52224 On ch=1 n=f5 v=0
52386 On ch=1 n=f5 v=33
52446 On ch=1 n=d6 v=0
52590 On ch=1 n=f6 v=0
52744 On ch=1 n=f5 v=0
52794 On ch=1 n=d6 v=74
52820 On ch=1 n=a#5 v=63
53198 On ch=1 n=f5 v=27
53216 On ch=1 n=a#5 v=0
53322 On ch=1 n=a#4 v=0
53546 On ch=1 n=a#5 v=33
53716 On ch=1 n=f5 v=0
53956 On ch=1 n=f5 v=24
54020 On ch=1 n=a#5 v=0
54172 On ch=1 n=d6 v=0
54564 On ch=1 n=f6 v=79
54594 On ch=1 n=f4 v=22
54600 On ch=1 n=f3 v=34
54604 On ch=1 n=d6 v=55
54684 On ch=1 n=f5 v=0
54866 Par ch=1 c=64 v=63
54916 Par ch=1 c=64 v=0
55418 Par ch=1 c=64 v=63
55420 Par ch=1 c=64 v=127
55596 On ch=1 n=d6 v=0
55662 On ch=1 n=f6 v=0
55764 On ch=1 n=e6 v=54
55770 On ch=1 n=c#6 v=32
55958 On ch=1 n=e6 v=0
55966 On ch=1 n=c#6 v=0
55972 On ch=1 n=d#6 v=71
55974 On ch=1 n=c6 v=56
56054 On ch=1 n=d#6 v=0
56108 On ch=1 n=c6 v=0
56150 On ch=1 n=d6 v=79
56170 On ch=1 n=a#5 v=54
56220 On ch=1 n=a#5 v=0
56264 On ch=1 n=d6 v=0
56390 On ch=1 n=c6 v=62
56434 On ch=1 n=a5 v=47
56548 Par ch=1 c=64 v=63
56586 Par ch=1 c=64 v=0
56690 Par ch=1 c=64 v=63
56726 Par ch=1 c=64 v=127
56816 On ch=1 n=a5 v=0
56840 On ch=1 n=c6 v=0
56896 On ch=1 n=f3 v=0
56910 On ch=1 n=f4 v=0
57224 On ch=1 n=f#6 v=69
57240 On ch=1 n=d6 v=43
57400 On ch=1 n=d6 v=0
57428 On ch=1 n=f#6 v=0
57428 On ch=1 n=g6 v=71
57430 On ch=1 n=d#6 v=85
57602 On ch=1 n=g6 v=0
57628 On ch=1 n=f#6 v=77
57632 On ch=1 n=d6 v=80
57682 On ch=1 n=d#6 v=0
57744 On ch=1 n=g6 v=81
57770 On ch=1 n=d#6 v=87
57798 On ch=1 n=d6 v=0
57822 On ch=1 n=f#6 v=0
57886 On ch=1 n=g6 v=0
57898 On ch=1 n=d#6 v=0
57932 Par ch=1 c=64 v=63
57954 On ch=1 n=a5 v=76
57958 On ch=1 n=c6 v=88
57974 Par ch=1 c=64 v=0
57976 On ch=1 n=f#5 v=72
58114 On ch=1 n=f5 v=79
58124 On ch=1 n=f#5 v=0
58126 Par ch=1 c=64 v=63
58150 Par ch=1 c=64 v=127
58202 On ch=1 n=a5 v=0
58244 On ch=1 n=c6 v=0
58322 On ch=1 n=f#5 v=82
58338 On ch=1 n=f5 v=0
58480 On ch=1 n=f#5 v=0
58484 On ch=1 n=f5 v=72
58662 On ch=1 n=f#6 v=77
58664 On ch=1 n=d6 v=75
58700 On ch=1 n=f5 v=0
58704 Par ch=1 c=64 v=63
58760 Par ch=1 c=64 v=0
58824 On ch=1 n=d6 v=0
58826 On ch=1 n=g6 v=76
58834 On ch=1 n=d#6 v=87
58860 On ch=1 n=f#6 v=0
58872 Par ch=1 c=64 v=63
58914 Par ch=1 c=64 v=127
59000 On ch=1 n=g6 v=0
59008 On ch=1 n=f#6 v=91
59014 On ch=1 n=d6 v=90
59064 On ch=1 n=d#6 v=0
59126 On ch=1 n=g6 v=79
59148 On ch=1 n=d#6 v=97
59184 On ch=1 n=d6 v=0
59190 On ch=1 n=f#6 v=0
59234 Par ch=1 c=64 v=63
59278 On ch=1 n=g6 v=0
59280 Par ch=1 c=64 v=0
59346 On ch=1 n=d#6 v=0
59350 On ch=1 n=a5 v=72
59352 On ch=1 n=c6 v=83
59352 On ch=1 n=f#5 v=76
59486 Par ch=1 c=64 v=63
59522 On ch=1 n=f#5 v=0
59524 Par ch=1 c=64 v=127
59526 On ch=1 n=f5 v=68
59648 On ch=1 n=a5 v=0
59702 On ch=1 n=c6 v=0
59718 On ch=1 n=f#5 v=68
59746 On ch=1 n=f5 v=0
59892 On ch=1 n=f#5 v=0
59902 On ch=1 n=f5 v=64
60030 Par ch=1 c=64 v=63
60114 On ch=1 n=b5 v=61
60132 Par ch=1 c=64 v=0
60252 On ch=1 n=f5 v=0
60294 On ch=1 n=b5 v=0
60310 On ch=1 n=c6 v=68
60492 On ch=1 n=d6 v=84
60526 On ch=1 n=c6 v=0
60526 Par ch=1 c=64 v=63
60590 Par ch=1 c=64 v=127
60666 On ch=1 n=d#6 v=100
60730 On ch=1 n=d6 v=0
60836 On ch=1 n=d#6 v=0
60870 On ch=1 n=a#4 v=67
60914 On ch=1 n=f6 v=99
61196 Par ch=1 c=64 v=63
61306 Par ch=1 c=64 v=127
61362 On ch=1 n=c5 v=86
61714 On ch=1 n=d#5 v=91
61770 On ch=1 n=f6 v=0
61820 On ch=1 n=g6 v=85
61890 On ch=1 n=f6 v=79
61964 On ch=1 n=g6 v=0
61966 On ch=1 n=e6 v=99
62010 On ch=1 n=f6 v=0
62062 On ch=1 n=f6 v=97
62084 On ch=1 n=e6 v=0
62092 On ch=1 n=c5 v=0
62122 On ch=1 n=a5 v=67
62132 On ch=1 n=g6 v=101
62180 On ch=1 n=f6 v=0
62184 Par ch=1 c=64 v=63
62194 On ch=1 n=d#5 v=0
62216 Par ch=1 c=64 v=127
62380 On ch=1 n=d#6 v=112
62440 On ch=1 n=g6 v=0
62490 On ch=1 n=a5 v=0
62536 On ch=1 n=a#4 v=0
62658 On ch=1 n=a#4 v=65
62658 On ch=1 n=d6 v=97
62676 On ch=1 n=a#5 v=80
62748 On ch=1 n=d#6 v=0
62822 Par ch=1 c=64 v=63
62924 Par ch=1 c=64 v=127
63116 On ch=1 n=d6 v=0
63204 On ch=1 n=a#5 v=0
63264 On ch=1 n=a#4 v=0
63524 On ch=1 n=f6 v=92
63630 Par ch=1 c=64 v=63
63638 Par ch=1 c=64 v=0
63746 Par ch=1 c=64 v=63
63762 Par ch=1 c=64 v=127
63836 On ch=1 n=d6 v=82
63844 On ch=1 n=f6 v=0
63928 On ch=1 n=f6 v=107
63964 On ch=1 n=d6 v=0
64218 On ch=1 n=d6 v=99
64254 On ch=1 n=f6 v=0
64334 On ch=1 n=d4 v=96
64430 On ch=1 n=a#6 v=108
64522 Par ch=1 c=64 v=63
64630 On ch=1 n=d6 v=0
64638 Par ch=1 c=64 v=127
64922 On ch=1 n=f4 v=88
65226 On ch=1 n=a#6 v=0
65306 On ch=1 n=a#4 v=60
65308 On ch=1 n=a#6 v=108
65458 On ch=1 n=f4 v=0
65660 On ch=1 n=f4 v=73
65746 On ch=1 n=d4 v=0
65902 On ch=1 n=a#4 v=0
65990 On ch=1 n=d4 v=84
66108 On ch=1 n=f4 v=0
66342 On ch=1 n=f4 v=83
66690 On ch=1 n=a#4 v=81
66746 On ch=1 n=f4 v=0
66842 On ch=1 n=c7 v=102
66860 On ch=1 n=a#6 v=0
67014 On ch=1 n=d7 v=106
67034 On ch=1 n=d4 v=0
67046 On ch=1 n=a#4 v=0
67046 On ch=1 n=f4 v=58
67088 On ch=1 n=c7 v=0
67176 On ch=1 n=a#6 v=109
67252 On ch=1 n=d7 v=0
67388 On ch=1 n=a6 v=103
67388 On ch=1 n=d#4 v=52
67454 On ch=1 n=f4 v=0
67464 On ch=1 n=a#6 v=0
67566 Par ch=1 c=64 v=63
67600 Par ch=1 c=64 v=0
67706 Par ch=1 c=64 v=63
67732 Par ch=1 c=64 v=127
67802 On ch=1 n=g6 v=90
67826 On ch=1 n=g4 v=56
67904 On ch=1 n=a6 v=0
68086 On ch=1 n=g6 v=0
68172 On ch=1 n=a#4 v=45
68184 On ch=1 n=g6 v=93
68260 On ch=1 n=g4 v=0
68510 On ch=1 n=g4 v=59
68546 On ch=1 n=a#4 v=0
68592 On ch=1 n=d#4 v=0
68844 On ch=1 n=d#4 v=76
68922 On ch=1 n=g4 v=0
69172 On ch=1 n=g4 v=76
69294 On ch=1 n=g6 v=0
69512 On ch=1 n=a#4 v=83
69568 On ch=1 n=d#4 v=0
69576 On ch=1 n=g4 v=0
69666 On ch=1 n=a6 v=99
69850 On ch=1 n=a#6 v=106
69866 On ch=1 n=a#4 v=0
69870 On ch=1 n=g4 v=64
69890 On ch=1 n=a6 v=0
69952 On ch=1 n=g4 v=0
69994 On ch=1 n=g6 v=93
70054 On ch=1 n=a#6 v=0
70186 On ch=1 n=f4 v=62
70212 On ch=1 n=f6 v=106
70290 On ch=1 n=g6 v=0
70504 Par ch=1 c=64 v=63
70528 Par ch=1 c=64 v=0
70612 On ch=1 n=d#6 v=94
70622 On ch=1 n=a4 v=48
70674 On ch=1 n=f6 v=0
70720 Par ch=1 c=64 v=63
70732 Par ch=1 c=64 v=127
70908 On ch=1 n=d#6 v=0
70996 On ch=1 n=c5 v=54
71004 On ch=1 n=d#6 v=101
71030 On ch=1 n=a4 v=0
71036 On ch=1 n=f4 v=0
71262 On ch=1 n=c5 v=0
71304 On ch=1 n=a4 v=74
71448 On ch=1 n=a4 v=0
71598 On ch=1 n=d#6 v=0
71632 On ch=1 n=f4 v=75
71992 On ch=1 n=d#6 v=96
72000 On ch=1 n=a4 v=41
72244 On ch=1 n=d#6 v=0
72354 On ch=1 n=d#6 v=101
72360 On ch=1 n=c5 v=70
72388 On ch=1 n=a4 v=0
72566 On ch=1 n=d#6 v=0
72640 On ch=1 n=f4 v=0
72670 On ch=1 n=d#6 v=107
72684 On ch=1 n=a4 v=73
72696 On ch=1 n=c5 v=0
72862 On ch=1 n=d#6 v=0
73010 On ch=1 n=g4 v=72
73024 On ch=1 n=c#6 v=97
73068 On ch=1 n=a4 v=0
73200 Par ch=1 c=64 v=63
73214 Par ch=1 c=64 v=0
73420 On ch=1 n=a#4 v=85
73424 Par ch=1 c=64 v=63
73444 Par ch=1 c=64 v=127
73700 On ch=1 n=c#6 v=0
73808 On ch=1 n=d5 v=43
73824 On ch=1 n=d6 v=84
73880 On ch=1 n=a#4 v=0
74074 Par ch=1 c=64 v=63
74150 On ch=1 n=a#4 v=53
74154 Par ch=1 c=64 v=127
74292 On ch=1 n=g4 v=0
74332 On ch=1 n=d6 v=0
74432 On ch=1 n=d5 v=0
74484 On ch=1 n=g4 v=45
74544 On ch=1 n=a#4 v=0
74702 On ch=1 n=a#5 v=65
74796 On ch=1 n=a#5 v=0
74878 On ch=1 n=a#4 v=58
74906 On ch=1 n=c6 v=63
74952 Par ch=1 c=64 v=63
75020 On ch=1 n=c6 v=0
75046 On ch=1 n=d6 v=76
75062 Par ch=1 c=64 v=127
75164 On ch=1 n=d6 v=0
75190 On ch=1 n=d#6 v=95
75208 On ch=1 n=d5 v=43
75248 On ch=1 n=a#4 v=0
75272 On ch=1 n=d#6 v=0
75336 On ch=1 n=f6 v=92
75454 On ch=1 n=f6 v=0
75502 On ch=1 n=a#4 v=78
75506 On ch=1 n=g6 v=100
75532 On ch=1 n=d5 v=0
75546 On ch=1 n=g4 v=0
75590 On ch=1 n=a#4 v=0
75632 On ch=1 n=a6 v=103
75672 On ch=1 n=g6 v=0
75810 On ch=1 n=a6 v=0
75818 On ch=1 n=a#6 v=100
75832 On ch=1 n=d4 v=91
75840 Par ch=1 c=64 v=63
75888 Par ch=1 c=64 v=127
76044 On ch=1 n=a#6 v=0
76142 On ch=1 n=f6 v=85
76216 On ch=1 n=d7 v=98
76222 On ch=1 n=f4 v=83
76268 On ch=1 n=f6 v=0
76494 On ch=1 n=a#6 v=106
76606 On ch=1 n=d7 v=0
76634 On ch=1 n=a#6 v=0
76652 On ch=1 n=a#4 v=67
76658 On ch=1 n=f7 v=107
76752 On ch=1 n=f4 v=0
77110 On ch=1 n=f4 v=73
77202 On ch=1 n=a#4 v=0
77210 On ch=1 n=d4 v=0
77218 On ch=1 n=f7 v=0
77434 On ch=1 n=d4 v=92
77542 On ch=1 n=f4 v=0
77672 On ch=1 n=d7 v=97
77878 On ch=1 n=f4 v=65
77896 On ch=1 n=b6 v=91
77910 On ch=1 n=d7 v=0
77968 Par ch=1 c=64 v=63
78012 Par ch=1 c=64 v=127
78056 On ch=1 n=g#6 v=99
78106 On ch=1 n=b6 v=0
78222 On ch=1 n=f6 v=86
78224 On ch=1 n=g#4 v=88
78270 On ch=1 n=g#6 v=0
78336 On ch=1 n=f4 v=0
78360 On ch=1 n=d6 v=71
78364 On ch=1 n=f6 v=0
78448 On ch=1 n=d6 v=0
78538 On ch=1 n=b5 v=86
78550 On ch=1 n=f4 v=72
78612 On ch=1 n=g#4 v=0
78672 On ch=1 n=g#5 v=96
78706 On ch=1 n=b5 v=0
78708 On ch=1 n=d4 v=0
78850 On ch=1 n=g#5 v=0
78856 On ch=1 n=d#4 v=91
78858 On ch=1 n=g5 v=91
78910 Par ch=1 c=64 v=63
78948 On ch=1 n=f4 v=0
78976 Par ch=1 c=64 v=127
79262 On ch=1 n=g5 v=0
79324 On ch=1 n=g4 v=59
79344 On ch=1 n=f#6 v=107
79714 On ch=1 n=c5 v=92
79800 On ch=1 n=g4 v=0
79844 Par ch=1 c=64 v=63
79850 Par ch=1 c=64 v=0
80010 On ch=1 n=f#6 v=0
80038 Par ch=1 c=64 v=63
80040 On ch=1 n=g6 v=104
80048 Par ch=1 c=64 v=127
80060 On ch=1 n=g4 v=68
80294 On ch=1 n=d#4 v=0
80364 On ch=1 n=c5 v=0
80376 On ch=1 n=e4 v=103
80382 Par ch=1 c=64 v=63
80392 Par ch=1 c=64 v=0
80440 On ch=1 n=g4 v=0
80460 Par ch=1 c=64 v=63
80478 Par ch=1 c=64 v=127
80746 On ch=1 n=a6 v=97
80758 On ch=1 n=g6 v=0
80760 On ch=1 n=g4 v=92
81144 On ch=1 n=c#5 v=109
81216 On ch=1 n=g4 v=0
81344 On ch=1 n=a6 v=0
81540 On ch=1 n=g4 v=64
81544 On ch=1 n=a#6 v=107
81576 On ch=1 n=c#5 v=0
81628 On ch=1 n=e4 v=0
81962 Par ch=1 c=64 v=63
81964 On ch=1 n=g4 v=0
81986 On ch=1 n=f4 v=89
82000 On ch=1 n=a#6 v=0
82028 Par ch=1 c=64 v=127
82134 On ch=1 n=c7 v=80
82204 On ch=1 n=a#6 v=89
82218 On ch=1 n=c7 v=0
82278 On ch=1 n=a#6 v=0
82282 On ch=1 n=a6 v=70
82332 On ch=1 n=a#6 v=84
82384 On ch=1 n=a6 v=0
82432 On ch=1 n=d7 v=99
82446 On ch=1 n=a#4 v=76
82456 On ch=1 n=a#6 v=0
82630 On ch=1 n=f7 v=98
82660 On ch=1 n=d7 v=0
82764 On ch=1 n=f7 v=0
82860 On ch=1 n=d5 v=76
82864 On ch=1 n=f6 v=81
82910 On ch=1 n=a#4 v=0
83212 On ch=1 n=a#4 v=82
83276 On ch=1 n=f4 v=0
83568 On ch=1 n=f4 v=70
83640 On ch=1 n=d5 v=0
83682 Par ch=1 c=64 v=63
83684 On ch=1 n=a#4 v=0
83730 Par ch=1 c=64 v=0
83782 On ch=1 n=f#6 v=77
83786 Par ch=1 c=64 v=63
83846 Par ch=1 c=64 v=127
83892 On ch=1 n=f6 v=0
83980 On ch=1 n=g6 v=79
83988 On ch=1 n=a4 v=48
84050 On ch=1 n=f#6 v=0
84122 On ch=1 n=f6 v=86
84180 On ch=1 n=g6 v=0
84210 On ch=1 n=f6 v=0
84284 On ch=1 n=f6 v=74
84312 On ch=1 n=c5 v=51
84328 Par ch=1 c=64 v=63
84370 On ch=1 n=a4 v=0
84444 On ch=1 n=d#6 v=80
84458 Par ch=1 c=64 v=127
84486 On ch=1 n=f6 v=0
84508 Par ch=1 c=64 v=63
84608 Par ch=1 c=64 v=127
84624 On ch=1 n=a4 v=52
84630 On ch=1 n=d6 v=68
84642 On ch=1 n=d#6 v=0
84662 On ch=1 n=f4 v=0
84688 On ch=1 n=c5 v=0
84730 On ch=1 n=a4 v=0
84776 On ch=1 n=d6 v=0
84784 On ch=1 n=c6 v=71
84954 On ch=1 n=a#4 v=56
84968 On ch=1 n=a#5 v=76
84978 On ch=1 n=c6 v=0
85046 Par ch=1 c=64 v=63
85140 Par ch=1 c=64 v=127
85156 On ch=1 n=d5 v=64
85328 On ch=1 n=a#4 v=0
85340 On ch=1 n=f5 v=55
85348 On ch=1 n=d5 v=0
85392 Par ch=1 c=64 v=63
85438 Par ch=1 c=64 v=0
85486 On ch=1 n=d5 v=68
85520 On ch=1 n=f5 v=0
85686 On ch=1 n=d5 v=0
85686 On ch=1 n=f5 v=61
85808 Par ch=1 c=64 v=63
85814 Par ch=1 c=64 v=127
85818 On ch=1 n=a#5 v=0
85846 On ch=1 n=d5 v=56
85852 On ch=1 n=f5 v=0
86024 On ch=1 n=d5 v=0
86030 On ch=1 n=f5 v=58
86186 On ch=1 n=d5 v=78
86194 On ch=1 n=f5 v=0
86288 On ch=1 n=d5 v=0
86460 On ch=1 n=d#5 v=77
86476 On ch=1 n=a5 v=68
86512 On ch=1 n=f4 v=60
86538 Par ch=1 c=64 v=63
86666 Par ch=1 c=64 v=127
86746 On ch=1 n=c6 v=63
86762 On ch=1 n=a5 v=0
86892 On ch=1 n=g6 v=54
86906 On ch=1 n=c6 v=0
86984 On ch=1 n=f4 v=0
87006 On ch=1 n=d#5 v=0
87064 On ch=1 n=f6 v=78
87082 On ch=1 n=g6 v=0
87222 On ch=1 n=g6 v=76
87244 On ch=1 n=f6 v=0
87372 On ch=1 n=f6 v=93
87418 On ch=1 n=g6 v=0
87534 On ch=1 n=g6 v=87
87592 On ch=1 n=f6 v=0
87702 On ch=1 n=f6 v=87
87776 On ch=1 n=g6 v=0
87782 Par ch=1 c=64 v=63
87826 On ch=1 n=f6 v=0
87828 Par ch=1 c=64 v=0
87886 On ch=1 n=a#4 v=58
87888 On ch=1 n=f6 v=81
87914 Par ch=1 c=64 v=63
87978 Par ch=1 c=64 v=127
88088 On ch=1 n=d5 v=59
88100 On ch=1 n=a#4 v=0
88170 On ch=1 n=f6 v=0
88264 On ch=1 n=d5 v=0
88280 On ch=1 n=f5 v=46
88430 On ch=1 n=f5 v=0
88434 On ch=1 n=d5 v=48
88612 On ch=1 n=d5 v=0
88634 On ch=1 n=a#6 v=69
88650 On ch=1 n=f5 v=34
88740 Par ch=1 c=64 v=63
88798 On ch=1 n=f5 v=0
88816 Par ch=1 c=64 v=127
88818 On ch=1 n=d5 v=44
88914 On ch=1 n=a#6 v=0
88968 On ch=1 n=d5 v=0
88994 On ch=1 n=f5 v=47
89152 On ch=1 n=f5 v=0
89156 On ch=1 n=d5 v=67
89220 On ch=1 n=d5 v=0
89404 On ch=1 n=a5 v=65
89418 On ch=1 n=f4 v=54
89424 On ch=1 n=d#5 v=63
89454 Par ch=1 c=64 v=63
89610 Par ch=1 c=64 v=127
89648 On ch=1 n=c6 v=65
89650 On ch=1 n=a5 v=0
89802 On ch=1 n=g6 v=47
89812 On ch=1 n=c6 v=0
89874 On ch=1 n=f4 v=0
89916 On ch=1 n=d#5 v=0
89972 On ch=1 n=f6 v=74
89976 On ch=1 n=g6 v=0
90118 On ch=1 n=g6 v=73
90142 On ch=1 n=f6 v=0
90276 On ch=1 n=f6 v=88
90302 On ch=1 n=g6 v=0
90432 On ch=1 n=g6 v=83
90484 On ch=1 n=f6 v=0
90572 On ch=1 n=f6 v=86
90642 On ch=1 n=g6 v=0
90696 On ch=1 n=f6 v=0
90740 Par ch=1 c=64 v=63
90762 On ch=1 n=f6 v=71
90772 Par ch=1 c=64 v=0
90774 On ch=1 n=a#4 v=57
90968 On ch=1 n=d5 v=57
91108 On ch=1 n=a#4 v=0
91154 On ch=1 n=f5 v=43
91168 On ch=1 n=d5 v=0
91250 Par ch=1 c=64 v=63
91258 Par ch=1 c=64 v=127
91320 On ch=1 n=d5 v=51
91328 On ch=1 n=f5 v=0
91488 On ch=1 n=d5 v=0
91508 On ch=1 n=a#5 v=64
91512 On ch=1 n=f5 v=41
91550 On ch=1 n=f6 v=0
91676 On ch=1 n=f5 v=0
91690 On ch=1 n=d5 v=44
91808 On ch=1 n=d5 v=0
91852 On ch=1 n=f5 v=43
91880 On ch=1 n=a#5 v=0
92002 On ch=1 n=f5 v=0
92026 On ch=1 n=d5 v=33
92130 On ch=1 n=d5 v=0
92290 On ch=1 n=d#5 v=75
92308 On ch=1 n=a5 v=59
92310 On ch=1 n=f4 v=41
92494 Par ch=1 c=64 v=63
92530 Par ch=1 c=64 v=127
92562 On ch=1 n=c6 v=83
92630 On ch=1 n=a5 v=0
92722 On ch=1 n=g6 v=80
92812 On ch=1 n=c6 v=0
92900 On ch=1 n=f6 v=93
92962 On ch=1 n=g6 v=0
93064 On ch=1 n=g6 v=89
93122 On ch=1 n=f6 v=0
93218 On ch=1 n=f6 v=100
93280 On ch=1 n=g6 v=0
93380 On ch=1 n=g6 v=93
93438 On ch=1 n=d#5 v=0
93444 On ch=1 n=f6 v=0
93548 On ch=1 n=f6 v=100
93608 On ch=1 n=g6 v=0
93630 On ch=1 n=f4 v=0
93676 On ch=1 n=f6 v=0
93712 On ch=1 n=a#4 v=57
93718 On ch=1 n=d5 v=54
93730 On ch=1 n=f6 v=87
93772 Par ch=1 c=64 v=63
93794 Par ch=1 c=64 v=127
93906 On ch=1 n=a#5 v=81
93918 On ch=1 n=f6 v=0
94008 On ch=1 n=a#5 v=0
94084 On ch=1 n=a#6 v=79
94150 On ch=1 n=a#6 v=0
94226 On ch=1 n=a#6 v=80
94318 On ch=1 n=a#6 v=0
94390 On ch=1 n=a#6 v=79
94550 On ch=1 n=d6 v=70
94568 On ch=1 n=a#6 v=0
94662 On ch=1 n=d6 v=0
94726 On ch=1 n=d7 v=80
94764 On ch=1 n=a#4 v=0
94774 On ch=1 n=d5 v=0
94810 On ch=1 n=d7 v=0
94888 On ch=1 n=d7 v=77
94976 On ch=1 n=d7 v=0
95060 On ch=1 n=d7 v=72
95228 On ch=1 n=d7 v=0
95250 On ch=1 n=f6 v=61
95366 On ch=1 n=f6 v=0
95442 On ch=1 n=f7 v=69
95550 On ch=1 n=f7 v=0
95618 On ch=1 n=f7 v=72
95736 On ch=1 n=f7 v=0
95816 On ch=1 n=d#6 v=60
95818 On ch=1 n=f5 v=52
95824 On ch=1 n=f7 v=84
95834 On ch=1 n=a5 v=57
95898 Par ch=1 c=64 v=63
95918 Par ch=1 c=64 v=127
95944 On ch=1 n=f7 v=0
96008 On ch=1 n=f7 v=83
96096 On ch=1 n=f7 v=0
96168 On ch=1 n=f7 v=80
96244 On ch=1 n=f7 v=0
96350 On ch=1 n=f7 v=88
96450 On ch=1 n=d#6 v=0
96460 On ch=1 n=f7 v=0
96482 On ch=1 n=f5 v=0
96542 On ch=1 n=a5 v=0
96566 On ch=1 n=a#6 v=82
96572 On ch=1 n=a#5 v=58
96580 On ch=1 n=d6 v=44
96660 Par ch=1 c=64 v=63
96678 Par ch=1 c=64 v=0
96850 On ch=1 n=a#6 v=0
96942 On ch=1 n=d6 v=0
96944 On ch=1 n=a#5 v=0
97358 On ch=1 n=d#6 v=53
97374 On ch=1 n=f5 v=38
97388 On ch=1 n=a5 v=49
97392 On ch=1 n=f7 v=72
97432 Par ch=1 c=64 v=63
97442 Par ch=1 c=64 v=127
97488 On ch=1 n=f7 v=0
97544 On ch=1 n=f7 v=84
97634 On ch=1 n=f7 v=0
97708 On ch=1 n=f7 v=86
97786 On ch=1 n=f7 v=0
97870 On ch=1 n=f7 v=81
97910 On ch=1 n=f5 v=0
97914 On ch=1 n=d#6 v=0
97936 On ch=1 n=a5 v=0
97980 On ch=1 n=f7 v=0
98074 On ch=1 n=a#5 v=51
98082 On ch=1 n=a#6 v=72
98086 On ch=1 n=d6 v=45
98108 Par ch=1 c=64 v=63
98128 Par ch=1 c=64 v=0
98306 On ch=1 n=a#6 v=0
98406 On ch=1 n=d6 v=0
98418 On ch=1 n=a#5 v=0
98872 On ch=1 n=d#6 v=40
98880 On ch=1 n=f5 v=36
98892 On ch=1 n=a5 v=50
98892 On ch=1 n=f7 v=75
98930 Par ch=1 c=64 v=63
98942 Par ch=1 c=64 v=127
98996 On ch=1 n=f7 v=0
99088 On ch=1 n=f7 v=65
99172 On ch=1 n=f7 v=0
99274 On ch=1 n=f7 v=76
99366 On ch=1 n=f7 v=0
99474 On ch=1 n=f7 v=68
99556 On ch=1 n=d#6 v=0
99662 On ch=1 n=f7 v=0
99756 On ch=1 n=a#6 v=66
99770 On ch=1 n=a#5 v=57
99774 On ch=1 n=f5 v=0
99778 On ch=1 n=d6 v=29
99788 On ch=1 n=a5 v=0
99856 Par ch=1 c=64 v=63
99874 Par ch=1 c=64 v=0
100002 Par ch=1 c=64 v=63
100018 Par ch=1 c=64 v=127
100072 On ch=1 n=a#6 v=0
100100 On ch=1 n=a#5 v=0
100112 On ch=1 n=d6 v=0
100560 Par ch=1 c=64 v=63
100796 Par ch=1 c=64 v=0
100848 On ch=1 n=c4 v=59
100850 On ch=1 n=c3 v=63
102036 On ch=1 n=d#4 v=64
102052 On ch=1 n=f4 v=73
102058 On ch=1 n=g#4 v=86
102124 Par ch=1 c=64 v=63
102154 Par ch=1 c=64 v=127
102836 On ch=1 n=c4 v=0
103184 On ch=1 n=b2 v=70
103190 On ch=1 n=b3 v=55
103302 On ch=1 n=c3 v=0
103486 Par ch=1 c=64 v=63
103540 Par ch=1 c=64 v=127
104032 On ch=1 n=d#4 v=0
104042 On ch=1 n=b3 v=0
104980 On ch=1 n=a#2 v=43
104990 On ch=1 n=a#3 v=29
104992 On ch=1 n=d4 v=38
105318 Par ch=1 c=64 v=63
105358 On ch=1 n=b2 v=0
105386 Par ch=1 c=64 v=0
105640 Par ch=1 c=64 v=63
105664 Par ch=1 c=64 v=127
106116 On ch=1 n=f4 v=0
106134 On ch=1 n=g#4 v=0
106298 On ch=1 n=d4 v=0
106582 On ch=1 n=d#4 v=47
106870 On ch=1 n=d#4 v=0
106878 On ch=1 n=d4 v=53
106948 On ch=1 n=a#2 v=0
106992 On ch=1 n=a#3 v=0
107116 On ch=1 n=d4 v=0
107132 On ch=1 n=f4 v=52
107322 On ch=1 n=g#4 v=73
107422 On ch=1 n=f4 v=0
107516 On ch=1 n=d5 v=72
107534 On ch=1 n=g#4 v=0
107748 On ch=1 n=f5 v=59
107996 On ch=1 n=g#5 v=62
108258 On ch=1 n=d6 v=39
108560 On ch=1 n=f6 v=48
108784 Par ch=1 c=64 v=63
108928 On ch=1 n=d6 v=0
108956 On ch=1 n=g#6 v=54
109078 On ch=1 n=f6 v=0
109108 On ch=1 n=d5 v=0
109130 On ch=1 n=g#5 v=0
109168 On ch=1 n=f5 v=0
109436 On ch=1 n=g#6 v=0
110508 Par ch=1 c=64 v=127
110614 On ch=1 n=d#4 v=40
110708 On ch=1 n=a#5 v=60
111292 On ch=1 n=g4 v=35
111666 On ch=1 n=a#5 v=0
111690 On ch=1 n=a#4 v=45
111744 On ch=1 n=d#4 v=0
111754 On ch=1 n=g4 v=0
111962 On ch=1 n=a5 v=43
112064 On ch=1 n=a#5 v=47
112072 On ch=1 n=a5 v=0
112088 On ch=1 n=a#4 v=0
112132 On ch=1 n=g4 v=55
112174 On ch=1 n=a#5 v=0
112210 On ch=1 n=c6 v=48
112268 On ch=1 n=a#5 v=53
112290 On ch=1 n=c6 v=0
112366 On ch=1 n=a5 v=63
112368 On ch=1 n=a#5 v=0
112446 On ch=1 n=a#5 v=70
112458 On ch=1 n=a5 v=0
112524 On ch=1 n=d#4 v=56
112532 On ch=1 n=g5 v=57
112538 On ch=1 n=a#5 v=0
112592 On ch=1 n=g4 v=0
112650 Par ch=1 c=64 v=63
112676 Par ch=1 c=64 v=0
112794 Par ch=1 c=64 v=63
112824 Par ch=1 c=64 v=127
112952 On ch=1 n=g4 v=39
113020 On ch=1 n=g5 v=0
113096 On ch=1 n=d#4 v=0
113278 On ch=1 n=a#4 v=55
113286 On ch=1 n=g5 v=80
113348 On ch=1 n=g4 v=0
113614 On ch=1 n=g5 v=0
113646 On ch=1 n=g4 v=60
113694 On ch=1 n=a#4 v=0
113916 On ch=1 n=g4 v=0
113968 On ch=1 n=a#3 v=64
114002 On ch=1 n=g5 v=81
114022 On ch=1 n=d#5 v=74
114216 Par ch=1 c=64 v=63
114334 Par ch=1 c=64 v=127
114364 On ch=1 n=d#4 v=69
114564 On ch=1 n=d#5 v=0
114564 On ch=1 n=g5 v=0
114734 On ch=1 n=g4 v=63
114748 On ch=1 n=d#4 v=0
114852 On ch=1 n=g#5 v=67
114912 On ch=1 n=g#5 v=0
114920 On ch=1 n=g5 v=62
114990 On ch=1 n=g5 v=0
114994 On ch=1 n=f5 v=61
115052 On ch=1 n=g5 v=78
115076 On ch=1 n=f5 v=0
115100 On ch=1 n=a#3 v=0
115102 On ch=1 n=d#4 v=64
115118 On ch=1 n=g4 v=0
115226 On ch=1 n=g#5 v=91
115250 On ch=1 n=g5 v=0
115428 On ch=1 n=a#3 v=67
115438 On ch=1 n=f5 v=75
115440 On ch=1 n=g#5 v=0
115452 On ch=1 n=d5 v=57
115454 On ch=1 n=d#4 v=0
115570 Par ch=1 c=64 v=63
115610 Par ch=1 c=64 v=0
115772 On ch=1 n=d4 v=63
115804 Par ch=1 c=64 v=63
115828 Par ch=1 c=64 v=127
115920 On ch=1 n=d5 v=0
115988 On ch=1 n=f5 v=0
116156 On ch=1 n=f4 v=53
116178 On ch=1 n=a#3 v=0
116212 On ch=1 n=d4 v=0
116340 On ch=1 n=a#5 v=80
116532 On ch=1 n=d4 v=75
116534 On ch=1 n=g#5 v=92
116586 On ch=1 n=a#5 v=0
116622 On ch=1 n=f4 v=0
116704 On ch=1 n=f5 v=102
116754 On ch=1 n=g#5 v=0
116926 On ch=1 n=d#5 v=100
116944 On ch=1 n=d#4 v=83
116944 On ch=1 n=g4 v=66
116948 On ch=1 n=f5 v=0
116980 Par ch=1 c=64 v=63
116994 Par ch=1 c=64 v=0
117028 On ch=1 n=d4 v=0
117460 On ch=1 n=a#4 v=55
117522 Par ch=1 c=64 v=63
117534 Par ch=1 c=64 v=127
117762 On ch=1 n=g4 v=0
117844 On ch=1 n=g4 v=60
117862 On ch=1 n=a#4 v=0
118180 On ch=1 n=a#4 v=70
118376 On ch=1 n=d#5 v=0
118510 On ch=1 n=g4 v=0
118532 On ch=1 n=a#3 v=85
118538 On ch=1 n=a#4 v=0
118560 On ch=1 n=f5 v=99
118574 On ch=1 n=d5 v=85
118684 On ch=1 n=d#4 v=0
118710 Par ch=1 c=64 v=63
118736 Par ch=1 c=64 v=0
118948 On ch=1 n=a#4 v=63
119034 On ch=1 n=d5 v=0
119358 On ch=1 n=d5 v=63
119364 Par ch=1 c=64 v=63
119368 Par ch=1 c=64 v=127
119464 On ch=1 n=a#4 v=0
119666 On ch=1 n=a#3 v=0
119700 On ch=1 n=a#4 v=71
119764 On ch=1 n=f5 v=0
119782 On ch=1 n=a#4 v=0
119782 On ch=1 n=d5 v=0
120036 On ch=1 n=d#3 v=76
120158 On ch=1 n=g5 v=84
120162 Par ch=1 c=64 v=63
120168 On ch=1 n=d#5 v=73
120262 Par ch=1 c=64 v=127
120356 On ch=1 n=d#5 v=0
120390 On ch=1 n=g5 v=0
120530 On ch=1 n=g#5 v=86
120600 On ch=1 n=g#5 v=0
120602 On ch=1 n=g5 v=73
120662 On ch=1 n=f5 v=63
120680 On ch=1 n=g5 v=0
120738 On ch=1 n=g5 v=76
120748 On ch=1 n=f5 v=0
120846 Par ch=1 c=64 v=63
120876 Par ch=1 c=64 v=0
120926 On ch=1 n=g#5 v=98
120978 On ch=1 n=g5 v=0
120992 Par ch=1 c=64 v=63
121020 Par ch=1 c=64 v=127
121090 On ch=1 n=a#5 v=95
121148 On ch=1 n=g#5 v=0
121206 Par ch=1 c=64 v=63
121238 On ch=1 n=a#5 v=0
121246 On ch=1 n=d#3 v=0
121262 On ch=1 n=c6 v=89
121286 Par ch=1 c=64 v=0
121444 On ch=1 n=d6 v=87
121460 On ch=1 n=c6 v=0
121608 On ch=1 n=d#6 v=88
121634 On ch=1 n=d6 v=0
121816 On ch=1 n=d#6 v=0
121890 On ch=1 n=a#5 v=63
122166 Par ch=1 c=64 v=63
122224 Par ch=1 c=64 v=0
122536 On ch=1 n=a#5 v=0
123012 On ch=1 n=d#6 v=34
123012 On ch=1 n=g6 v=60
123162 Par ch=1 c=64 v=63
123196 Par ch=1 c=64 v=127
123460 On ch=1 n=d#6 v=0
123532 On ch=1 n=g6 v=0
123542 On ch=1 n=f6 v=71
123554 On ch=1 n=d6 v=65
123828 On ch=1 n=d6 v=0
123934 On ch=1 n=d#6 v=90
123948 On ch=1 n=f6 v=0
123960 On ch=1 n=c6 v=72
124018 On ch=1 n=d#6 v=0
124024 On ch=1 n=c6 v=0
124308 On ch=1 n=a#5 v=81
124316 On ch=1 n=d6 v=79
124688 On ch=1 n=d4 v=69
124696 On ch=1 n=d3 v=71
124702 Par ch=1 c=64 v=63
124762 Par ch=1 c=64 v=0
124786 Par ch=1 c=64 v=63
124838 Par ch=1 c=64 v=127
124876 On ch=1 n=a#5 v=0
124924 On ch=1 n=d6 v=0
124938 On ch=1 n=d3 v=0
124938 On ch=1 n=c6 v=63
124954 On ch=1 n=g#5 v=46
124958 On ch=1 n=d4 v=0
125178 On ch=1 n=d#3 v=82
125190 On ch=1 n=d#4 v=58
125346 On ch=1 n=d#3 v=0
125348 On ch=1 n=a#5 v=87
125356 On ch=1 n=d#4 v=0
125356 On ch=1 n=g5 v=60
125370 On ch=1 n=g#5 v=0
125450 On ch=1 n=c6 v=0
125486 On ch=1 n=g5 v=0
125532 On ch=1 n=f4 v=92
125544 On ch=1 n=f3 v=83
125688 On ch=1 n=g#5 v=85
125692 On ch=1 n=f5 v=73
125706 On ch=1 n=f3 v=0
125758 On ch=1 n=a#5 v=0
125780 On ch=1 n=f4 v=0
125830 On ch=1 n=f5 v=0
125854 On ch=1 n=g#5 v=0
125862 On ch=1 n=g3 v=92
125870 On ch=1 n=g4 v=87
125968 On ch=1 n=g3 v=0
125992 On ch=1 n=g4 v=0
126002 On ch=1 n=g5 v=87
126014 On ch=1 n=d#5 v=78
126086 On ch=1 n=g5 v=0
126108 On ch=1 n=d#5 v=0
126188 On ch=1 n=g#4 v=104
126196 On ch=1 n=g#3 v=93
126292 Par ch=1 c=64 v=63
126344 On ch=1 n=g#3 v=0
126352 On ch=1 n=g#4 v=0
126362 On ch=1 n=c6 v=102
126366 On ch=1 n=c5 v=91
126386 Par ch=1 c=64 v=127
126550 On ch=1 n=f3 v=82
126558 On ch=1 n=f4 v=82
126608 On ch=1 n=c6 v=0
126626 On ch=1 n=f3 v=0
126680 On ch=1 n=f4 v=0
126694 On ch=1 n=g#5 v=96
126700 On ch=1 n=f5 v=87
126708 On ch=1 n=c5 v=0
126808 On ch=1 n=g#5 v=0
126812 On ch=1 n=f5 v=0
126902 On ch=1 n=a4 v=89
126936 On ch=1 n=g5 v=85
126944 On ch=1 n=d#5 v=96
127176 Par ch=1 c=64 v=63
127266 Par ch=1 c=64 v=0
127354 On ch=1 n=a#4 v=87
127424 On ch=1 n=a4 v=0
127758 On ch=1 n=g4 v=65
127848 On ch=1 n=a#4 v=0
128062 Par ch=1 c=64 v=63
128078 Par ch=1 c=64 v=127
128126 On ch=1 n=d#4 v=78
128170 On ch=1 n=g4 v=0
128222 On ch=1 n=d#5 v=0
128286 On ch=1 n=g5 v=0
128548 On ch=1 n=a#3 v=48
128554 On ch=1 n=f5 v=62
128574 On ch=1 n=d5 v=51
128632 On ch=1 n=d#4 v=0
128672 Par ch=1 c=64 v=63
128724 Par ch=1 c=64 v=0
128980 Par ch=1 c=64 v=63
129002 Par ch=1 c=64 v=127
129020 On ch=1 n=f5 v=0
129036 On ch=1 n=g5 v=45
129240 On ch=1 n=d5 v=0
129276 On ch=1 n=g5 v=0
129312 On ch=1 n=a#3 v=0
129420 On ch=1 n=g#5 v=49
129768 On ch=1 n=g#5 v=0
129874 On ch=1 n=a5 v=58
129876 Par ch=1 c=64 v=63
129902 Par ch=1 c=64 v=0
130138 Par ch=1 c=64 v=63
130158 Par ch=1 c=64 v=127
130378 On ch=1 n=a5 v=0
130500 On ch=1 n=a#5 v=65
130506 On ch=1 n=d#4 v=39
130692 Par ch=1 c=64 v=63
130840 Par ch=1 c=64 v=127
131042 On ch=1 n=g4 v=36
131418 On ch=1 n=a#4 v=37
131456 On ch=1 n=g4 v=0
131586 On ch=1 n=a#5 v=0
131588 On ch=1 n=d6 v=64
131754 On ch=1 n=d#6 v=67
131770 On ch=1 n=d#4 v=0
131780 On ch=1 n=d6 v=0
131784 On ch=1 n=a#4 v=0
131792 On ch=1 n=g4 v=39
131898 On ch=1 n=a#5 v=73
131950 On ch=1 n=d#6 v=0
132070 On ch=1 n=d#4 v=61
132072 Par ch=1 c=64 v=63
132098 Par ch=1 c=64 v=0
132100 On ch=1 n=g5 v=61
132156 On ch=1 n=a#5 v=0
132176 On ch=1 n=g4 v=0
132258 Par ch=1 c=64 v=63
132278 Par ch=1 c=64 v=127
132378 On ch=1 n=g5 v=0
132484 On ch=1 n=g4 v=32
132496 On ch=1 n=g5 v=71
132654 On ch=1 n=g5 v=0
132780 On ch=1 n=g4 v=0
132844 On ch=1 n=g5 v=74
132846 On ch=1 n=a#4 v=51
132988 On ch=1 n=g5 v=0
133056 On ch=1 n=d#4 v=0
133224 On ch=1 n=g5 v=63
133226 On ch=1 n=a#4 v=0
133232 On ch=1 n=g4 v=49
133330 On ch=1 n=g4 v=0
133334 On ch=1 n=g5 v=0
133600 On ch=1 n=a#3 v=48
133630 On ch=1 n=g5 v=59
133644 On ch=1 n=d#5 v=57
133682 Par ch=1 c=64 v=63
133712 Par ch=1 c=64 v=0
133828 Par ch=1 c=64 v=63
133852 Par ch=1 c=64 v=127
134024 On ch=1 n=d#4 v=58
134112 On ch=1 n=d#5 v=0
134376 On ch=1 n=g4 v=42
134378 On ch=1 n=d#4 v=0
134414 On ch=1 n=g5 v=0
134486 On ch=1 n=a#3 v=0
134494 On ch=1 n=g#5 v=67
134582 On ch=1 n=g5 v=61
134594 On ch=1 n=g#5 v=0
134660 On ch=1 n=f5 v=74
134664 On ch=1 n=g5 v=0
134718 On ch=1 n=d#4 v=58
134738 On ch=1 n=g4 v=0
134744 On ch=1 n=g5 v=62
134766 On ch=1 n=f5 v=0
134908 On ch=1 n=g#5 v=72
134912 On ch=1 n=g5 v=0
135102 On ch=1 n=g#5 v=0
135110 On ch=1 n=d#4 v=0
135118 On ch=1 n=a#3 v=49
135126 On ch=1 n=f5 v=55
135138 Par ch=1 c=64 v=63
135142 On ch=1 n=d5 v=50
135158 Par ch=1 c=64 v=0
135444 Par ch=1 c=64 v=63
135468 Par ch=1 c=64 v=127
135494 On ch=1 n=d4 v=54
135680 On ch=1 n=d5 v=0
135734 On ch=1 n=f5 v=0
135916 On ch=1 n=f4 v=41
135936 On ch=1 n=d4 v=0
136056 On ch=1 n=a#3 v=0
136092 On ch=1 n=a#4 v=80
136304 On ch=1 n=a#3 v=64
136304 On ch=1 n=c5 v=84
136342 On ch=1 n=a#4 v=0
136360 On ch=1 n=f4 v=0
136462 On ch=1 n=d5 v=101
136504 On ch=1 n=c5 v=0
136698 On ch=1 n=d#5 v=92
136714 On ch=1 n=d#4 v=66
136792 On ch=1 n=d5 v=0
136854 Par ch=1 c=64 v=63
136904 Par ch=1 c=64 v=0
136950 On ch=1 n=a#3 v=0
137176 On ch=1 n=a#4 v=62
137302 Par ch=1 c=64 v=63
137314 Par ch=1 c=64 v=127
137564 On ch=1 n=g4 v=71
137670 On ch=1 n=a#4 v=0
137918 On ch=1 n=a#4 v=90
138018 On ch=1 n=d#5 v=0
138032 On ch=1 n=g4 v=0
138066 On ch=1 n=a#4 v=0
138156 On ch=1 n=d#4 v=0
138292 On ch=1 n=f5 v=97
138296 On ch=1 n=a#3 v=95
138298 On ch=1 n=d5 v=94
138536 Par ch=1 c=64 v=63
138554 Par ch=1 c=64 v=0
138690 On ch=1 n=a#4 v=71
138718 On ch=1 n=d5 v=0
139086 On ch=1 n=d5 v=81
139142 On ch=1 n=a#4 v=0
139162 Par ch=1 c=64 v=63
139162 Par ch=1 c=64 v=127
139452 On ch=1 n=a#4 v=77
139506 On ch=1 n=d5 v=0
139542 On ch=1 n=f5 v=0
139552 On ch=1 n=a#4 v=0
139918 On ch=1 n=d#3 v=82
139920 On ch=1 n=g5 v=88
139928 On ch=1 n=a#3 v=0
139932 On ch=1 n=d#5 v=80
140000 Par ch=1 c=64 v=63
140076 Par ch=1 c=64 v=127
140152 On ch=1 n=d#5 v=0
140194 On ch=1 n=g5 v=0
140270 On ch=1 n=g#5 v=54
140320 On ch=1 n=g5 v=80
140374 On ch=1 n=g#5 v=0
140410 On ch=1 n=g5 v=0
140420 On ch=1 n=f5 v=77
140512 On ch=1 n=g5 v=73
140514 On ch=1 n=f5 v=0
140592 Par ch=1 c=64 v=63
140676 On ch=1 n=g5 v=0
140714 On ch=1 n=g#5 v=90
140752 Par ch=1 c=64 v=127
140942 On ch=1 n=a#5 v=71
140966 On ch=1 n=g#5 v=0
141072 On ch=1 n=a#5 v=0
141142 On ch=1 n=c6 v=80
141300 Par ch=1 c=64 v=63
141384 On ch=1 n=d6 v=69
141400 On ch=1 n=c6 v=0
141424 Par ch=1 c=64 v=127
141618 On ch=1 n=d#6 v=80
141658 On ch=1 n=d6 v=0
141710 On ch=1 n=d#3 v=0
141998 On ch=1 n=a#5 v=62
142040 On ch=1 n=d#6 v=0
142200 Par ch=1 c=64 v=63
142324 Par ch=1 c=64 v=0
142778 On ch=1 n=a#5 v=0
142878 On ch=1 n=d#6 v=50
143094 On ch=1 n=d6 v=58
143168 On ch=1 n=d#6 v=0
143254 On ch=1 n=c#6 v=70
143272 On ch=1 n=d6 v=0
143378 On ch=1 n=c#6 v=0
143396 On ch=1 n=c6 v=53
143478 On ch=1 n=c6 v=0
143566 On ch=1 n=b5 v=49
143886 On ch=1 n=b5 v=0
143892 On ch=1 n=d#5 v=45
143906 On ch=1 n=g4 v=38
144200 On ch=1 n=g4 v=0
144220 On ch=1 n=d#5 v=0
144298 On ch=1 n=d#6 v=77
144456 On ch=1 n=d6 v=76
144458 On ch=1 n=d#6 v=0
144568 On ch=1 n=d6 v=0
144600 On ch=1 n=c#6 v=82
144698 On ch=1 n=c#6 v=0
144728 On ch=1 n=c6 v=88
144852 On ch=1 n=c6 v=0
144908 On ch=1 n=b5 v=76
145254 On ch=1 n=b5 v=0
145256 On ch=1 n=d#5 v=72
145272 On ch=1 n=g4 v=60
145694 On ch=1 n=d#6 v=87
145864 On ch=1 n=d#6 v=0
145864 On ch=1 n=g4 v=0
145866 On ch=1 n=d#5 v=0
145876 On ch=1 n=d6 v=78
146018 On ch=1 n=d6 v=0
146072 On ch=1 n=c#6 v=80
146252 On ch=1 n=c#6 v=0
146260 On ch=1 n=c6 v=91
146390 Par ch=1 c=64 v=63
146414 Par ch=1 c=64 v=127
146518 On ch=1 n=c6 v=0
146586 On ch=1 n=b5 v=96
146588 On ch=1 n=d#5 v=70
146604 On ch=1 n=c#5 v=82
146608 On ch=1 n=g4 v=54
146782 Par ch=1 c=64 v=63
146816 Par ch=1 c=64 v=0
147710 Par ch=1 c=64 v=63
147716 Par ch=1 c=64 v=127
148128 On ch=1 n=c#5 v=0
148214 On ch=1 n=g4 v=0
148844 On ch=1 n=c6 v=41
148862 On ch=1 n=b5 v=0
148866 On ch=1 n=g#4 v=27
148900 On ch=1 n=c5 v=24
149024 Par ch=1 c=64 v=63
149180 Par ch=1 c=64 v=127
149418 On ch=1 n=c6 v=0
149736 On ch=1 n=d#5 v=0
149776 On ch=1 n=c5 v=0
149776 On ch=1 n=g#4 v=0
149904 On ch=1 n=f5 v=60
150052 Par ch=1 c=64 v=63
150060 On ch=1 n=f5 v=0
150090 On ch=1 n=g5 v=68
150136 Par ch=1 c=64 v=0
150206 On ch=1 n=g5 v=0
150266 On ch=1 n=g#5 v=76
150354 On ch=1 n=g#5 v=0
150420 On ch=1 n=a5 v=74
150578 On ch=1 n=a5 v=0
150680 On ch=1 n=a#5 v=69
150816 Par ch=1 c=64 v=63
150826 Par ch=1 c=64 v=127
151190 Par ch=1 c=64 v=63
151200 Par ch=1 c=64 v=0
151334 Par ch=1 c=64 v=63
151350 Par ch=1 c=64 v=127
151494 On ch=1 n=a#5 v=0
151536 On ch=1 n=d#4 v=51
151554 On ch=1 n=g3 v=44
151762 On ch=1 n=d6 v=56
151850 On ch=1 n=d6 v=0
151864 On ch=1 n=c6 v=66
151926 On ch=1 n=g3 v=0
151932 On ch=1 n=d#6 v=82
151948 On ch=1 n=c6 v=0
152022 On ch=1 n=d6 v=79
152040 On ch=1 n=d#4 v=0
152048 On ch=1 n=d#6 v=0
152116 On ch=1 n=d6 v=0
152120 On ch=1 n=f6 v=85
152210 On ch=1 n=d#6 v=99
152220 On ch=1 n=f6 v=0
152244 Par ch=1 c=64 v=63
152258 Par ch=1 c=64 v=127
152272 On ch=1 n=d#6 v=0
152416 On ch=1 n=a#3 v=65
152422 On ch=1 n=d#5 v=84
152424 On ch=1 n=g4 v=54
152426 On ch=1 n=a#4 v=60
152510 Par ch=1 c=64 v=63
152516 Par ch=1 c=64 v=0
152668 Par ch=1 c=64 v=63
152672 Par ch=1 c=64 v=127
153032 On ch=1 n=g4 v=0
153340 On ch=1 n=a#4 v=0
153418 On ch=1 n=g#4 v=60
153490 On ch=1 n=d#5 v=0
153554 On ch=1 n=f5 v=60
153628 On ch=1 n=d#5 v=72
153646 On ch=1 n=f5 v=0
153692 On ch=1 n=d#5 v=0
153710 On ch=1 n=d5 v=61
153764 On ch=1 n=d#5 v=76
153798 On ch=1 n=d5 v=0
153844 On ch=1 n=g5 v=85
153866 On ch=1 n=d5 v=63
153914 On ch=1 n=d#5 v=0
153956 Par ch=1 c=64 v=63
154020 Par ch=1 c=64 v=127
154042 On ch=1 n=f5 v=94
154082 On ch=1 n=g5 v=0
154226 On ch=1 n=g#4 v=0
154240 On ch=1 n=d5 v=0
154282 On ch=1 n=a#3 v=0
154288 On ch=1 n=d#5 v=72
154324 On ch=1 n=g4 v=41
154338 On ch=1 n=d#4 v=51
154342 On ch=1 n=f5 v=0
154416 Par ch=1 c=64 v=63
154440 Par ch=1 c=64 v=0
154614 On ch=1 n=d#5 v=0
154620 On ch=1 n=d#4 v=0
154652 On ch=1 n=g4 v=0
155266 On ch=1 n=d#5 v=50
155270 On ch=1 n=d#4 v=39
155274 On ch=1 n=g4 v=26
155300 Par ch=1 c=64 v=63
155320 Par ch=1 c=64 v=127
155436 On ch=1 n=d#4 v=0
155446 On ch=1 n=d#5 v=0
155478 On ch=1 n=g4 v=0
156042 Par ch=1 c=64 v=63
156148 Par ch=1 c=64 v=0
158348 Par ch=1 c=64 v=63
158692 On ch=1 n=g#2 v=49
158714 On ch=1 n=d#4 v=24
158724 On ch=1 n=c5 v=56
158900 Par ch=1 c=64 v=127
159318 On ch=1 n=g#3 v=41
159598 On ch=1 n=g#3 v=0
159750 On ch=1 n=g#3 v=43
159916 On ch=1 n=g#3 v=0
160158 On ch=1 n=c5 v=0
160174 On ch=1 n=g#3 v=29
160182 On ch=1 n=d#4 v=0
160370 On ch=1 n=g#3 v=0
160558 On ch=1 n=a#4 v=64
160562 On ch=1 n=c#4 v=43
160584 On ch=1 n=g#3 v=26
160730 On ch=1 n=g#3 v=0
160968 On ch=1 n=g#3 v=39
161100 On ch=1 n=g#3 v=0
161164 On ch=1 n=c#4 v=0
161378 On ch=1 n=g#3 v=47
161460 On ch=1 n=g#3 v=0
161460 On ch=1 n=a#4 v=0
161818 On ch=1 n=g#3 v=59
161868 On ch=1 n=g#2 v=0
162062 On ch=1 n=g#3 v=0
162250 On ch=1 n=d#5 v=90
162262 On ch=1 n=g#4 v=49
162288 On ch=1 n=g#3 v=37
162300 On ch=1 n=c4 v=33
162546 Par ch=1 c=64 v=63
162566 Par ch=1 c=64 v=127
162632 On ch=1 n=g#3 v=0
162706 On ch=1 n=g#3 v=49
162868 On ch=1 n=g#3 v=0
163056 On ch=1 n=g#3 v=61
163100 On ch=1 n=g#4 v=0
163180 On ch=1 n=g#3 v=0
163430 On ch=1 n=g#3 v=47
163564 On ch=1 n=g#3 v=0
163802 On ch=1 n=a#3 v=47
163842 On ch=1 n=d#3 v=52
163852 On ch=1 n=g4 v=54
163864 Par ch=1 c=64 v=63
163924 On ch=1 n=c4 v=0
163970 Par ch=1 c=64 v=127
164052 On ch=1 n=f5 v=69
164060 On ch=1 n=d#5 v=0
164124 On ch=1 n=d#3 v=0
164248 On ch=1 n=d#5 v=88
164262 On ch=1 n=d#3 v=48
164284 On ch=1 n=f5 v=0
164388 On ch=1 n=d#3 v=0
164402 On ch=1 n=f5 v=76
164454 On ch=1 n=d#5 v=0
164580 On ch=1 n=c#5 v=89
164606 On ch=1 n=d#3 v=47
164610 On ch=1 n=f5 v=0
164738 On ch=1 n=d#5 v=97
164754 On ch=1 n=d#3 v=0
164786 On ch=1 n=c#5 v=0
164916 On ch=1 n=d#3 v=76
164916 On ch=1 n=c#5 v=103
164952 On ch=1 n=a#3 v=0
164966 On ch=1 n=d#5 v=0
165002 On ch=1 n=g4 v=0
165008 On ch=1 n=d#3 v=0
165052 On ch=1 n=d#5 v=95
165100 On ch=1 n=c#5 v=0
165152 On ch=1 n=d#5 v=0
165286 On ch=1 n=g#2 v=68
165324 On ch=1 n=c5 v=90
165336 On ch=1 n=d#4 v=70
165462 Par ch=1 c=64 v=63
165488 Par ch=1 c=64 v=0
165752 On ch=1 n=g#3 v=47
165912 Par ch=1 c=64 v=63
165918 Par ch=1 c=64 v=127
165996 On ch=1 n=g#3 v=0
166148 On ch=1 n=g#3 v=42
166286 On ch=1 n=g#3 v=0
166496 On ch=1 n=g#3 v=54
166558 On ch=1 n=c5 v=0
166662 On ch=1 n=d#4 v=0
166778 On ch=1 n=g#3 v=0
166868 On ch=1 n=g#3 v=57
166878 On ch=1 n=a#4 v=77
166878 On ch=1 n=c#4 v=61
167114 On ch=1 n=g#3 v=0
167278 On ch=1 n=g#3 v=54
167452 On ch=1 n=g#3 v=0
167488 On ch=1 n=c#4 v=0
167670 On ch=1 n=g#3 v=55
167826 On ch=1 n=g#3 v=0
168020 On ch=1 n=g#2 v=0
168048 On ch=1 n=g#3 v=55
168144 On ch=1 n=a#4 v=0
168200 On ch=1 n=g#3 v=0
168448 On ch=1 n=d#5 v=83
168458 On ch=1 n=g#3 v=46
168466 On ch=1 n=g#4 v=34
168476 On ch=1 n=c4 v=30
168630 Par ch=1 c=64 v=63
168660 Par ch=1 c=64 v=0
168706 Par ch=1 c=64 v=63
168752 Par ch=1 c=64 v=127
168788 On ch=1 n=g#3 v=0
168856 On ch=1 n=g#3 v=23
169052 On ch=1 n=g#3 v=0
169192 On ch=1 n=g#3 v=43
169332 On ch=1 n=g#3 v=0
169572 On ch=1 n=g#3 v=45
169736 On ch=1 n=g#3 v=0
169736 On ch=1 n=g#4 v=0
169950 On ch=1 n=c4 v=0
169950 On ch=1 n=a#3 v=43
169980 On ch=1 n=d#3 v=39
169980 On ch=1 n=g4 v=43
170052 Par ch=1 c=64 v=63
170114 Par ch=1 c=64 v=127
170250 On ch=1 n=f5 v=60
170282 On ch=1 n=d#3 v=0
170284 On ch=1 n=d#5 v=0
170438 On ch=1 n=d#5 v=73
170452 On ch=1 n=d#3 v=42
170460 On ch=1 n=f5 v=0
170590 On ch=1 n=d#3 v=0
170610 On ch=1 n=f5 v=71
170642 On ch=1 n=d#5 v=0
170790 On ch=1 n=d#3 v=53
170790 On ch=1 n=c#5 v=78
170808 On ch=1 n=f5 v=0
170918 On ch=1 n=d#3 v=0
170944 On ch=1 n=d#5 v=86
170962 On ch=1 n=c#5 v=0
171112 On ch=1 n=c#5 v=94
171118 On ch=1 n=d#3 v=50
171144 On ch=1 n=d#5 v=0
171212 On ch=1 n=g4 v=0
171242 On ch=1 n=d#5 v=92
171292 On ch=1 n=c#5 v=0
171448 On ch=1 n=d#3 v=0
171458 On ch=1 n=a#3 v=0
171472 On ch=1 n=d#5 v=0
171478 On ch=1 n=g#3 v=59
171478 Par ch=1 c=64 v=63
171488 On ch=1 n=c5 v=87
171506 On ch=1 n=g#4 v=71
171514 Par ch=1 c=64 v=0
171618 Par ch=1 c=64 v=63
171646 Par ch=1 c=64 v=127
171784 On ch=1 n=g#4 v=0
171862 On ch=1 n=c5 v=0
171920 On ch=1 n=g#4 v=80
172222 On ch=1 n=g#4 v=0
172330 On ch=1 n=g#5 v=98
172346 On ch=1 n=c5 v=70
172350 On ch=1 n=g#4 v=49
172486 Par ch=1 c=64 v=63
172526 Par ch=1 c=64 v=0
172618 Par ch=1 c=64 v=63
172652 Par ch=1 c=64 v=127
172660 On ch=1 n=g#4 v=0
172776 On ch=1 n=g#4 v=63
172878 On ch=1 n=g#4 v=0
173102 On ch=1 n=g#4 v=52
173142 On ch=1 n=c5 v=0
173224 On ch=1 n=g#3 v=0
173238 On ch=1 n=g#4 v=0
173454 On ch=1 n=g#5 v=0
173466 On ch=1 n=g#4 v=46
173636 On ch=1 n=g#4 v=0
173820 On ch=1 n=g5 v=88
173822 On ch=1 n=g#4 v=43
173848 On ch=1 n=d#5 v=71
173970 On ch=1 n=g#4 v=0
174162 On ch=1 n=d#5 v=0
174196 On ch=1 n=g5 v=0
174196 On ch=1 n=g#4 v=51
174328 On ch=1 n=g#4 v=0
174570 On ch=1 n=g#4 v=49
174578 On ch=1 n=g5 v=67
174588 On ch=1 n=d#5 v=49
174660 Par ch=1 c=64 v=63
174688 Par ch=1 c=64 v=0
174844 Par ch=1 c=64 v=63
174868 Par ch=1 c=64 v=127
174958 On ch=1 n=d#5 v=0
174976 On ch=1 n=g5 v=0
174996 On ch=1 n=f5 v=54
175024 On ch=1 n=c#5 v=23
175052 Par ch=1 c=64 v=63
175078 Par ch=1 c=64 v=0
175190 Par ch=1 c=64 v=63
175206 Par ch=1 c=64 v=127
175406 On ch=1 n=c#5 v=0
175456 On ch=1 n=d#5 v=46
175470 Par ch=1 c=64 v=63
175482 On ch=1 n=c5 v=24
175500 Par ch=1 c=64 v=0
175502 On ch=1 n=f5 v=0
175586 Par ch=1 c=64 v=63
175610 Par ch=1 c=64 v=127
175764 On ch=1 n=g#4 v=0
175806 On ch=1 n=c5 v=0
175878 On ch=1 n=d#5 v=0
176548 On ch=1 n=d6 v=43
176614 Par ch=1 c=64 v=63
176764 Par ch=1 c=64 v=0
176980 On ch=1 n=d#6 v=75
177080 Par ch=1 c=64 v=63
177106 Par ch=1 c=64 v=127
177132 On ch=1 n=d6 v=0
177298 On ch=1 n=f6 v=84
177370 On ch=1 n=d#6 v=0
177658 On ch=1 n=d#6 v=97
177752 On ch=1 n=f6 v=0
177898 On ch=1 n=d#6 v=0
177978 On ch=1 n=d#4 v=53
178022 On ch=1 n=d#6 v=80
178118 Par ch=1 c=64 v=63
178154 Par ch=1 c=64 v=0
178368 Par ch=1 c=64 v=63
178402 Par ch=1 c=64 v=127
178410 On ch=1 n=a#4 v=50
178464 On ch=1 n=g5 v=60
178518 On ch=1 n=d#6 v=0
178760 On ch=1 n=g5 v=0
178830 On ch=1 n=c#5 v=47
178836 On ch=1 n=g5 v=64
178900 Par ch=1 c=64 v=63
178932 On ch=1 n=a#4 v=0
179034 Par ch=1 c=64 v=127
179166 On ch=1 n=a#4 v=56
179228 On ch=1 n=d#4 v=0
179252 On ch=1 n=c#5 v=0
179486 On ch=1 n=d#4 v=70
179548 On ch=1 n=a#4 v=0
179580 On ch=1 n=g5 v=0
179732 On ch=1 n=g#5 v=78
179812 On ch=1 n=g5 v=63
179816 On ch=1 n=g#5 v=0
179884 On ch=1 n=a#4 v=49
179888 On ch=1 n=f5 v=70
179896 On ch=1 n=g5 v=0
179968 On ch=1 n=g5 v=68
179994 On ch=1 n=f5 v=0
180102 Par ch=1 c=64 v=63
180120 On ch=1 n=g#5 v=96
180150 On ch=1 n=c#5 v=45
180150 Par ch=1 c=64 v=0
180170 On ch=1 n=g5 v=0
180194 On ch=1 n=a#4 v=0
180346 Par ch=1 c=64 v=63
180368 Par ch=1 c=64 v=127
180440 On ch=1 n=a#5 v=92
180456 On ch=1 n=a#4 v=60
180472 On ch=1 n=g#5 v=0
180560 On ch=1 n=d#4 v=0
180738 On ch=1 n=c#5 v=0
180768 On ch=1 n=a#5 v=0
180820 On ch=1 n=d#4 v=43
180838 On ch=1 n=a#5 v=69
180930 On ch=1 n=a#4 v=0
180966 Par ch=1 c=64 v=63
180994 Par ch=1 c=64 v=0
181154 Par ch=1 c=64 v=63
181174 Par ch=1 c=64 v=127
181282 On ch=1 n=g#4 v=61
181422 On ch=1 n=c6 v=71
181486 On ch=1 n=a#5 v=0
181612 On ch=1 n=g#5 v=70
181624 On ch=1 n=c5 v=34
181632 On ch=1 n=c6 v=0
181634 Par ch=1 c=64 v=63
181664 Par ch=1 c=64 v=0
181668 On ch=1 n=g#4 v=0
181764 Par ch=1 c=64 v=63
181792 Par ch=1 c=64 v=127
181964 On ch=1 n=g#4 v=55
181974 On ch=1 n=g#5 v=0
182024 On ch=1 n=d#4 v=0
182084 On ch=1 n=c5 v=0
182332 On ch=1 n=d#4 v=49
182350 On ch=1 n=d6 v=60
182394 Par ch=1 c=64 v=63
182430 On ch=1 n=g#4 v=0
182530 Par ch=1 c=64 v=127
182570 On ch=1 n=d#6 v=78
182588 On ch=1 n=d6 v=0
182644 On ch=1 n=d#6 v=0
182732 On ch=1 n=g#4 v=52
182752 On ch=1 n=d6 v=79
182868 On ch=1 n=d#6 v=86
182918 On ch=1 n=d6 v=0
183024 Par ch=1 c=64 v=63
183044 On ch=1 n=c5 v=47
183048 Par ch=1 c=64 v=0
183054 On ch=1 n=d6 v=89
183056 On ch=1 n=d#6 v=0
183058 On ch=1 n=g#4 v=0
183172 On ch=1 n=d#6 v=99
183236 On ch=1 n=d6 v=0
183330 On ch=1 n=g#4 v=65
183334 On ch=1 n=f6 v=98
183396 On ch=1 n=d#6 v=0
183458 On ch=1 n=d#4 v=0
183458 On ch=1 n=d#6 v=92
183552 On ch=1 n=f6 v=0
183598 On ch=1 n=d#6 v=0
183624 On ch=1 n=c5 v=0
183656 On ch=1 n=d#4 v=72
183670 On ch=1 n=d#6 v=89
183732 On ch=1 n=g#4 v=0
183816 Par ch=1 c=64 v=63
183822 Par ch=1 c=64 v=127
184052 On ch=1 n=a#5 v=72
184078 On ch=1 n=g4 v=45
184110 On ch=1 n=d#6 v=0
184140 Par ch=1 c=64 v=63
184162 Par ch=1 c=64 v=0
184254 Par ch=1 c=64 v=63
184278 Par ch=1 c=64 v=127
184370 On ch=1 n=a#5 v=0
184446 On ch=1 n=a#4 v=55
184462 On ch=1 n=a#5 v=79
184550 On ch=1 n=g4 v=0
184776 On ch=1 n=g4 v=64
184826 On ch=1 n=a#4 v=0
184826 On ch=1 n=d#4 v=0
185126 On ch=1 n=d#4 v=83
185202 On ch=1 n=g4 v=0
185302 On ch=1 n=a#5 v=0
185448 On ch=1 n=c6 v=65
185450 On ch=1 n=g4 v=59
185492 On ch=1 n=a#5 v=83
185542 On ch=1 n=c6 v=0
185558 On ch=1 n=a5 v=71
185588 On ch=1 n=a#5 v=0
185638 On ch=1 n=a#5 v=94
185690 On ch=1 n=a5 v=0
185718 On ch=1 n=a#4 v=63
185744 On ch=1 n=c6 v=99
185796 Par ch=1 c=64 v=63
185802 On ch=1 n=g4 v=0
185814 On ch=1 n=a#5 v=0
185950 Par ch=1 c=64 v=127
186062 On ch=1 n=a#5 v=33
186084 On ch=1 n=g4 v=54
186100 On ch=1 n=c#6 v=101
186148 On ch=1 n=a#5 v=0
186164 On ch=1 n=c6 v=0
186240 On ch=1 n=a#4 v=0
186270 On ch=1 n=d#4 v=0
186404 On ch=1 n=c#6 v=0
186452 On ch=1 n=d#4 v=81
186462 On ch=1 n=b5 v=97
186572 Par ch=1 c=64 v=63
186590 On ch=1 n=g4 v=0
186604 Par ch=1 c=64 v=0
186744 Par ch=1 c=64 v=63
186776 Par ch=1 c=64 v=127
186848 On ch=1 n=g#4 v=74
187102 On ch=1 n=b5 v=0
187188 On ch=1 n=c6 v=80
187216 On ch=1 n=c5 v=39
187268 On ch=1 n=g#4 v=0
187272 Par ch=1 c=64 v=63
187302 Par ch=1 c=64 v=0
187436 Par ch=1 c=64 v=63
187478 Par ch=1 c=64 v=127
187544 On ch=1 n=g#4 v=63
187672 On ch=1 n=d#4 v=0
187774 On ch=1 n=c6 v=0
187852 On ch=1 n=c5 v=0
187894 On ch=1 n=b5 v=73
187900 On ch=1 n=d#4 v=71
188022 On ch=1 n=g#4 v=0
188102 On ch=1 n=c6 v=87
188132 On ch=1 n=b5 v=0
188218 Par ch=1 c=64 v=63
188260 On ch=1 n=g#4 v=67
188280 On ch=1 n=b5 v=88
188328 On ch=1 n=c6 v=0
188354 Par ch=1 c=64 v=127
188400 On ch=1 n=c6 v=87
188456 On ch=1 n=b5 v=0
188562 On ch=1 n=b5 v=96
188576 On ch=1 n=c5 v=69
188588 On ch=1 n=c6 v=0
188630 On ch=1 n=g#4 v=0
188684 On ch=1 n=c6 v=102
188734 On ch=1 n=b5 v=0
188838 On ch=1 n=c#6 v=110
188868 On ch=1 n=g#4 v=84
188894 On ch=1 n=c6 v=0
188926 On ch=1 n=c5 v=0
188956 On ch=1 n=d#4 v=0
188968 On ch=1 n=c6 v=99
189012 On ch=1 n=c#6 v=0
189048 On ch=1 n=c6 v=0
189088 On ch=1 n=g#4 v=0
189234 On ch=1 n=d4 v=93
189268 On ch=1 n=a#5 v=85
189308 On ch=1 n=d6 v=68
189334 On ch=1 n=f6 v=91
189364 Par ch=1 c=64 v=63
189370 On ch=1 n=g#6 v=109
189374 Par ch=1 c=64 v=0
189574 Par ch=1 c=64 v=63
189586 Par ch=1 c=64 v=127
189782 On ch=1 n=f4 v=89
189924 On ch=1 n=f4 v=0
189936 On ch=1 n=d4 v=0
189962 On ch=1 n=g#6 v=0
190014 On ch=1 n=a#5 v=0
190098 On ch=1 n=d6 v=0
190142 On ch=1 n=f6 v=0
190216 On ch=1 n=a#4 v=83
190220 On ch=1 n=g#6 v=105
190550 On ch=1 n=a#4 v=0
190590 On ch=1 n=f4 v=92
191040 On ch=1 n=d4 v=98
191132 On ch=1 n=f4 v=0
191292 Par ch=1 c=64 v=63
191318 Par ch=1 c=64 v=0
191374 On ch=1 n=g6 v=91
191460 Par ch=1 c=64 v=63
191468 On ch=1 n=g#6 v=0
191488 Par ch=1 c=64 v=127
191642 On ch=1 n=g#6 v=103
191694 On ch=1 n=g6 v=0
191850 On ch=1 n=a#6 v=96
191898 On ch=1 n=g#6 v=0
192004 On ch=1 n=g#6 v=93
192048 On ch=1 n=a#6 v=0
192116 On ch=1 n=g6 v=76
192160 On ch=1 n=g#6 v=0
192194 On ch=1 n=d4 v=0
192216 On ch=1 n=g6 v=0
192226 On ch=1 n=f6 v=75
192310 On ch=1 n=d#6 v=94
192330 On ch=1 n=f6 v=0
192416 On ch=1 n=d6 v=79
192418 On ch=1 n=d#6 v=0
192486 On ch=1 n=d6 v=0
192492 On ch=1 n=c6 v=89
192574 On ch=1 n=c6 v=0
192588 On ch=1 n=a#5 v=95
192636 Par ch=1 c=64 v=63
192650 Par ch=1 c=64 v=0
192658 On ch=1 n=g#5 v=90
192676 On ch=1 n=a#5 v=0
192718 On ch=1 n=g5 v=89
192738 On ch=1 n=g#5 v=0
192786 On ch=1 n=f5 v=90
192798 On ch=1 n=g5 v=0
192866 On ch=1 n=d#5 v=105
192878 On ch=1 n=f5 v=0
192944 On ch=1 n=d5 v=94
192948 On ch=1 n=d#5 v=0
193004 On ch=1 n=c5 v=92
193012 On ch=1 n=d5 v=0
193088 On ch=1 n=a#4 v=103
193114 On ch=1 n=c5 v=0
193162 On ch=1 n=g#4 v=104
193216 On ch=1 n=a#4 v=0
193238 On ch=1 n=g4 v=109
193258 On ch=1 n=d#3 v=98
193298 On ch=1 n=g#4 v=0
193458 Par ch=1 c=64 v=63
193476 Par ch=1 c=64 v=127
193704 On ch=1 n=g3 v=91
193746 On ch=1 n=g4 v=0
194110 On ch=1 n=a#3 v=73
194140 On ch=1 n=d#4 v=112
194206 On ch=1 n=g3 v=0
194274 Par ch=1 c=64 v=63
194294 Par ch=1 c=64 v=0
194412 Par ch=1 c=64 v=63
194436 Par ch=1 c=64 v=127
194496 On ch=1 n=g3 v=73
194670 On ch=1 n=d#3 v=0
194752 On ch=1 n=a#3 v=0
194974 On ch=1 n=d#3 v=70
195066 On ch=1 n=g3 v=0
195188 Par ch=1 c=64 v=63
195228 On ch=1 n=d#4 v=0
195230 On ch=1 n=f4 v=79
195302 Par ch=1 c=64 v=127
195392 On ch=1 n=d#4 v=87
195412 On ch=1 n=f4 v=0
195498 On ch=1 n=d4 v=86
195512 On ch=1 n=d#4 v=0
195614 On ch=1 n=d#4 v=99
195632 On ch=1 n=d4 v=0
195708 On ch=1 n=d#4 v=0
195746 On ch=1 n=f4 v=68
195846 On ch=1 n=g4 v=74
195864 On ch=1 n=f4 v=0
195938 On ch=1 n=g#4 v=99
195964 On ch=1 n=g4 v=0
195974 Par ch=1 c=64 v=63
195996 Par ch=1 c=64 v=0
196004 On ch=1 n=a#4 v=89
196034 On ch=1 n=g#4 v=0
196074 On ch=1 n=a#4 v=0
196098 On ch=1 n=c5 v=89
196190 On ch=1 n=d5 v=90
196198 On ch=1 n=c5 v=0
196236 Par ch=1 c=64 v=63
196248 Par ch=1 c=64 v=127
196252 On ch=1 n=d#5 v=99
196270 On ch=1 n=d5 v=0
196318 On ch=1 n=d#5 v=0
196334 On ch=1 n=f5 v=88
196384 On ch=1 n=d#3 v=0
196410 On ch=1 n=g5 v=90
196426 On ch=1 n=f5 v=0
196456 On ch=1 n=g#5 v=101
196488 On ch=1 n=g5 v=0
196502 On ch=1 n=a#5 v=94
196526 On ch=1 n=g#5 v=0
196562 On ch=1 n=a#5 v=0
196574 On ch=1 n=c6 v=84
196652 On ch=1 n=d6 v=92
196678 On ch=1 n=c6 v=0
196704 On ch=1 n=d#6 v=106
196728 On ch=1 n=d6 v=0
196766 On ch=1 n=d#6 v=0
196782 On ch=1 n=f6 v=91
196850 On ch=1 n=g6 v=93
196874 On ch=1 n=f6 v=0
196904 On ch=1 n=g#6 v=109
196942 On ch=1 n=g6 v=0
196962 On ch=1 n=a#6 v=95
196994 On ch=1 n=g#6 v=0
197022 On ch=1 n=a#6 v=0
197040 On ch=1 n=c7 v=89
197122 On ch=1 n=d7 v=100
197146 On ch=1 n=c7 v=0
197152 Par ch=1 c=64 v=63
197172 On ch=1 n=c4 v=113
197184 On ch=1 n=d#7 v=115
197208 Par ch=1 c=64 v=0
197240 On ch=1 n=d7 v=0
197450 Par ch=1 c=64 v=63
197464 Par ch=1 c=64 v=127
197662 On ch=1 n=d#4 v=101
197876 On ch=1 n=d#7 v=0
198090 On ch=1 n=a4 v=71
198100 On ch=1 n=d#7 v=115
198350 On ch=1 n=d#4 v=0
198506 On ch=1 n=d#4 v=106
198646 On ch=1 n=c4 v=0
198992 On ch=1 n=c4 v=94
199168 Par ch=1 c=64 v=63
199182 Par ch=1 c=64 v=0
199228 On ch=1 n=d7 v=94
199304 On ch=1 n=d#7 v=0
199346 Par ch=1 c=64 v=63
199360 Par ch=1 c=64 v=127
199468 On ch=1 n=d#7 v=107
199488 On ch=1 n=a4 v=0
199526 On ch=1 n=d7 v=0
199654 On ch=1 n=f7 v=92
199686 On ch=1 n=d#7 v=0
199792 On ch=1 n=d#7 v=97
199842 On ch=1 n=f7 v=0
199882 On ch=1 n=d7 v=84
199938 On ch=1 n=d#7 v=0
200000 On ch=1 n=d7 v=0
200008 On ch=1 n=c7 v=84
200096 On ch=1 n=c7 v=0
200100 On ch=1 n=a#6 v=89
200148 On ch=1 n=d#4 v=0
200198 On ch=1 n=a6 v=88
200226 On ch=1 n=a#6 v=0
200278 On ch=1 n=a6 v=0
200282 On ch=1 n=g6 v=83
200368 On ch=1 n=g6 v=0
200380 On ch=1 n=f6 v=86
200460 On ch=1 n=d#6 v=92
200468 On ch=1 n=f6 v=0
200530 On ch=1 n=d6 v=86
200542 On ch=1 n=d#6 v=0
200584 On ch=1 n=c4 v=0
200596 On ch=1 n=d6 v=0
200604 On ch=1 n=c6 v=84
200674 On ch=1 n=a#5 v=103
200686 On ch=1 n=c6 v=0
200760 On ch=1 n=a5 v=92
200768 On ch=1 n=a#5 v=0
200816 On ch=1 n=g5 v=85
200836 On ch=1 n=a5 v=0
200902 On ch=1 n=g5 v=0
200916 On ch=1 n=f5 v=100
201002 On ch=1 n=d#5 v=101
201032 On ch=1 n=f5 v=0
201088 On ch=1 n=d#5 v=0
201206 On ch=1 n=a#3 v=68
201220 On ch=1 n=d5 v=82
201224 Par ch=1 c=64 v=63
201230 Par ch=1 c=64 v=127
201438 Par ch=1 c=64 v=63
201442 Par ch=1 c=64 v=0
201470 On ch=1 n=f5 v=70
201630 Par ch=1 c=64 v=63
201634 Par ch=1 c=64 v=127
201660 On ch=1 n=d5 v=0
201702 On ch=1 n=a#5 v=75
201762 On ch=1 n=a#3 v=0
201822 On ch=1 n=f5 v=0
202186 On ch=1 n=g#5 v=72
202206 On ch=1 n=d5 v=73
202222 On ch=1 n=a#5 v=0
202596 On ch=1 n=a#5 v=94
202618 Par ch=1 c=64 v=63
202722 Par ch=1 c=64 v=127
202840 On ch=1 n=d5 v=0
203004 On ch=1 n=f#5 v=90
203024 On ch=1 n=d#5 v=72
203100 On ch=1 n=g#5 v=0
203204 Par ch=1 c=64 v=63
203232 Par ch=1 c=64 v=0
203410 Par ch=1 c=64 v=63
203468 Par ch=1 c=64 v=127
203572 On ch=1 n=d#6 v=79
203766 On ch=1 n=a#5 v=0
204030 On ch=1 n=b5 v=63
204136 On ch=1 n=d#6 v=0
204294 Par ch=1 c=64 v=63
204428 On ch=1 n=a5 v=48
204436 Par ch=1 c=64 v=127
204552 On ch=1 n=b5 v=0
204656 On ch=1 n=f#5 v=0
204704 On ch=1 n=d#5 v=0
204794 On ch=1 n=a#5 v=59
204814 On ch=1 n=f5 v=29
204822 On ch=1 n=d5 v=48
204916 Par ch=1 c=64 v=63
204938 On ch=1 n=a5 v=0
205046 Par ch=1 c=64 v=127
205138 On ch=1 n=a#5 v=0
205290 On ch=1 n=f5 v=0
205346 On ch=1 n=d5 v=0
205364 On ch=1 n=d#6 v=83
205830 On ch=1 n=d#5 v=61
205836 On ch=1 n=f#5 v=54
205840 On ch=1 n=b5 v=67
205916 On ch=1 n=d#6 v=0
206000 Par ch=1 c=64 v=63
206026 Par ch=1 c=64 v=0
206210 Par ch=1 c=64 v=63
206220 On ch=1 n=a5 v=66
206234 Par ch=1 c=64 v=127
206320 On ch=1 n=b5 v=0
206586 On ch=1 n=a#5 v=74
206592 On ch=1 n=f5 v=35
206614 On ch=1 n=d5 v=46
206678 On ch=1 n=d#5 v=0
206696 Par ch=1 c=64 v=63
206708 On ch=1 n=f#5 v=0
206710 On ch=1 n=a5 v=0
206724 Par ch=1 c=64 v=0
206826 Par ch=1 c=64 v=63
206858 Par ch=1 c=64 v=127
207016 On ch=1 n=d#6 v=95
207030 On ch=1 n=a#5 v=0
207046 On ch=1 n=d5 v=0
207058 On ch=1 n=f5 v=0
207460 On ch=1 n=d#5 v=65
207460 On ch=1 n=f#5 v=55
207462 On ch=1 n=b5 v=79
207538 On ch=1 n=d#6 v=0
207870 On ch=1 n=a5 v=76
207986 On ch=1 n=b5 v=0
208426 On ch=1 n=a#5 v=61
208434 On ch=1 n=f5 v=20
208456 On ch=1 n=d5 v=47
208494 On ch=1 n=a5 v=0
208520 On ch=1 n=d#5 v=0
208548 Par ch=1 c=64 v=63
208552 On ch=1 n=f#5 v=0
208572 Par ch=1 c=64 v=0
208754 Par ch=1 c=64 v=63
208780 Par ch=1 c=64 v=127
208960 On ch=1 n=a#5 v=0
209090 On ch=1 n=a#5 v=58
209522 On ch=1 n=a5 v=56
209574 On ch=1 n=f5 v=0
209600 On ch=1 n=a#5 v=0
209602 On ch=1 n=d5 v=0
209840 On ch=1 n=a#5 v=81
209940 On ch=1 n=a5 v=0
210210 On ch=1 n=a5 v=80
210320 On ch=1 n=a#5 v=0
210534 Par ch=1 c=64 v=63
210596 Par ch=1 c=64 v=0
210606 On ch=1 n=a#5 v=84
210736 On ch=1 n=a5 v=0
211002 On ch=1 n=b5 v=75
211106 On ch=1 n=a#5 v=0
211256 Par ch=1 c=64 v=63
211272 Par ch=1 c=64 v=127
211490 On ch=1 n=a#5 v=73
211554 On ch=1 n=b5 v=0
212004 On ch=1 n=a#5 v=0
212120 On ch=1 n=f#3 v=42
212170 On ch=1 n=c#5 v=55
212172 On ch=1 n=a#5 v=52
212466 Par ch=1 c=64 v=63
212500 Par ch=1 c=64 v=0
212554 Par ch=1 c=64 v=63
212596 Par ch=1 c=64 v=127
212716 On ch=1 n=f#4 v=46
212970 On ch=1 n=f#4 v=0
213138 On ch=1 n=f#4 v=40
213320 On ch=1 n=f#4 v=0
213498 On ch=1 n=c#5 v=0
213530 On ch=1 n=f#4 v=36
213564 On ch=1 n=a#5 v=0
213742 On ch=1 n=f#4 v=0
213906 On ch=1 n=f#4 v=32
213914 On ch=1 n=g#5 v=65
213958 On ch=1 n=b4 v=48
214078 On ch=1 n=f#4 v=0
214320 On ch=1 n=f#4 v=49
214470 On ch=1 n=f#4 v=0
214690 On ch=1 n=f#4 v=62
214906 On ch=1 n=f#4 v=0
215000 On ch=1 n=f#3 v=0
215034 On ch=1 n=f#4 v=72
215132 On ch=1 n=b4 v=0
215268 On ch=1 n=f#4 v=0
215460 On ch=1 n=c#6 v=88
215472 On ch=1 n=a#4 v=55
215476 On ch=1 n=f#4 v=47
215530 On ch=1 n=f#5 v=50
215538 On ch=1 n=g#5 v=0
215692 Par ch=1 c=64 v=63
215766 Par ch=1 c=64 v=127
215884 On ch=1 n=f#4 v=0
215980 On ch=1 n=f#4 v=47
216124 On ch=1 n=f#4 v=0
216346 On ch=1 n=f#4 v=50
216508 On ch=1 n=f#4 v=0
216640 On ch=1 n=f#5 v=0
216730 On ch=1 n=f#4 v=54
216826 On ch=1 n=a#4 v=0
217092 On ch=1 n=g#4 v=46
217106 On ch=1 n=c#4 v=41
217126 On ch=1 n=f5 v=61
217170 On ch=1 n=f#4 v=0
217352 On ch=1 n=c#6 v=0
217370 On ch=1 n=c#4 v=0
217374 On ch=1 n=d#6 v=67
217536 On ch=1 n=c#4 v=45
217568 On ch=1 n=c#6 v=79
217576 On ch=1 n=d#6 v=0
217706 On ch=1 n=c#4 v=0
217714 On ch=1 n=d#6 v=84
217790 On ch=1 n=c#6 v=0
217870 On ch=1 n=c#4 v=50
217884 On ch=1 n=b5 v=77
217896 On ch=1 n=d#6 v=0
218016 On ch=1 n=c#4 v=0
218036 On ch=1 n=c#6 v=88
218096 On ch=1 n=b5 v=0
218208 On ch=1 n=b5 v=81
218214 On ch=1 n=c#4 v=65
218246 On ch=1 n=c#6 v=0
218294 On ch=1 n=g#4 v=0
218316 On ch=1 n=c#4 v=0
218360 On ch=1 n=c#6 v=100
218400 On ch=1 n=f5 v=0
218418 On ch=1 n=b5 v=0
218486 On ch=1 n=c#6 v=0
218570 On ch=1 n=f#3 v=63
218624 On ch=1 n=a#5 v=88
218630 On ch=1 n=c#5 v=80
218824 Par ch=1 c=64 v=63
218840 Par ch=1 c=64 v=0
219054 On ch=1 n=f#4 v=56
219152 Par ch=1 c=64 v=63
219158 Par ch=1 c=64 v=127
219312 On ch=1 n=f#4 v=0
219424 On ch=1 n=f#4 v=64
219586 On ch=1 n=f#4 v=0
219792 On ch=1 n=f#4 v=58
219828 On ch=1 n=c#5 v=0
219900 On ch=1 n=a#5 v=0
220014 On ch=1 n=f#4 v=0
220162 On ch=1 n=f#4 v=52
220170 On ch=1 n=g#5 v=76
220186 On ch=1 n=b4 v=61
220342 Par ch=1 c=64 v=63
220436 Par ch=1 c=64 v=127
220480 On ch=1 n=f#4 v=0
220580 On ch=1 n=f#4 v=50
220744 On ch=1 n=f#4 v=0
220912 On ch=1 n=b4 v=0
220946 On ch=1 n=f#4 v=51
221122 On ch=1 n=f#4 v=0
221170 On ch=1 n=g#5 v=0
221334 On ch=1 n=f#4 v=61
221380 On ch=1 n=f#3 v=0
221498 On ch=1 n=f#4 v=0
221782 On ch=1 n=a#4 v=41
221806 On ch=1 n=f#4 v=39
221810 On ch=1 n=c#6 v=91
221822 On ch=1 n=f#5 v=64
222020 Par ch=1 c=64 v=63
222092 Par ch=1 c=64 v=127
222164 On ch=1 n=f#4 v=0
222292 On ch=1 n=f#4 v=49
222432 On ch=1 n=f#4 v=0
222666 On ch=1 n=f#4 v=46
222740 On ch=1 n=f#5 v=0
222826 On ch=1 n=f#4 v=0
223054 On ch=1 n=f#4 v=53
223152 On ch=1 n=a#4 v=0
223400 On ch=1 n=g#4 v=48
223402 On ch=1 n=c#4 v=45
223434 On ch=1 n=f5 v=47
223474 Par ch=1 c=64 v=63
223482 On ch=1 n=f#4 v=0
223502 Par ch=1 c=64 v=127
223650 On ch=1 n=c#4 v=0
223652 On ch=1 n=d#6 v=76
223668 On ch=1 n=c#6 v=0
223824 On ch=1 n=c#4 v=59
223844 On ch=1 n=c#6 v=82
223856 On ch=1 n=d#6 v=0
223986 On ch=1 n=c#4 v=0
223994 On ch=1 n=d#6 v=80
224084 On ch=1 n=c#6 v=0
224162 On ch=1 n=b5 v=84
224166 On ch=1 n=c#4 v=62
224180 On ch=1 n=d#6 v=0
224312 On ch=1 n=c#6 v=92
224350 On ch=1 n=c#4 v=0
224374 On ch=1 n=b5 v=0
224492 On ch=1 n=b5 v=78
224518 On ch=1 n=c#4 v=57
224532 On ch=1 n=c#6 v=0
224648 On ch=1 n=c#6 v=87
224720 On ch=1 n=g#4 v=0
224734 On ch=1 n=b5 v=0
224754 On ch=1 n=f5 v=0
224964 On ch=1 n=c#6 v=0
224966 On ch=1 n=f#4 v=50
224972 On ch=1 n=c#4 v=0
224974 On ch=1 n=a#5 v=80
224998 Par ch=1 c=64 v=63
225116 Par ch=1 c=64 v=127
225434 On ch=1 n=c#5 v=54
225450 On ch=1 n=a#5 v=0
225554 On ch=1 n=b5 v=52
225622 On ch=1 n=a#5 v=79
225652 On ch=1 n=b5 v=0
225694 On ch=1 n=g#5 v=83
225714 On ch=1 n=a#5 v=0
225776 On ch=1 n=a#5 v=71
225822 On ch=1 n=g#5 v=0
225870 On ch=1 n=a#4 v=63
225892 On ch=1 n=c#5 v=0
225896 On ch=1 n=c#6 v=91
225946 On ch=1 n=a#5 v=0
226036 Par ch=1 c=64 v=63
226202 Par ch=1 c=64 v=127
226270 On ch=1 n=c#5 v=67
226392 On ch=1 n=a#4 v=0
226554 On ch=1 n=f#4 v=0
226604 On ch=1 n=f4 v=76
226652 On ch=1 n=c#5 v=0
226756 Par ch=1 c=64 v=63
226898 Par ch=1 c=64 v=127
227010 On ch=1 n=c#5 v=80
227368 On ch=1 n=e4 v=65
227376 On ch=1 n=b5 v=93
227410 On ch=1 n=c#6 v=0
227466 On ch=1 n=c#5 v=0
227472 On ch=1 n=f4 v=0
227476 Par ch=1 c=64 v=63
227524 Par ch=1 c=64 v=0
227612 Par ch=1 c=64 v=63
227648 Par ch=1 c=64 v=127
227758 On ch=1 n=a#5 v=90
227800 On ch=1 n=c#5 v=59
227880 On ch=1 n=b5 v=0
227952 On ch=1 n=e4 v=0
228164 On ch=1 n=d#4 v=67
228176 On ch=1 n=g#5 v=83
228212 On ch=1 n=c#5 v=0
228290 On ch=1 n=a#5 v=0
228328 Par ch=1 c=64 v=63
228380 Par ch=1 c=64 v=0
228432 Par ch=1 c=64 v=63
228502 Par ch=1 c=64 v=127
228684 On ch=1 n=g5 v=55
228698 On ch=1 n=c#5 v=41
228726 On ch=1 n=g#5 v=0
228732 Par ch=1 c=64 v=63
228772 Par ch=1 c=64 v=127
228928 On ch=1 n=d#4 v=0
229030 On ch=1 n=d#4 v=55
229090 On ch=1 n=c#5 v=0
229132 On ch=1 n=g5 v=0
229422 On ch=1 n=c#5 v=43
229524 Par ch=1 c=64 v=63
229616 On ch=1 n=g5 v=71
229632 Par ch=1 c=64 v=127
229636 On ch=1 n=d#4 v=0
229754 On ch=1 n=c#5 v=0
229788 On ch=1 n=a#5 v=77
229794 On ch=1 n=d#4 v=48
229830 On ch=1 n=g5 v=0
229840 Par ch=1 c=64 v=63
229908 Par ch=1 c=64 v=127
230186 On ch=1 n=b4 v=66
230290 On ch=1 n=a#5 v=0
230334 On ch=1 n=d#4 v=0
230334 On ch=1 n=g#5 v=88
230486 On ch=1 n=b5 v=92
230490 On ch=1 n=d#4 v=76
230544 On ch=1 n=g#5 v=0
230588 On ch=1 n=b4 v=0
230600 Par ch=1 c=64 v=63
230622 Par ch=1 c=64 v=0
230752 Par ch=1 c=64 v=63
230772 Par ch=1 c=64 v=127
230878 On ch=1 n=g4 v=82
231056 On ch=1 n=a#5 v=91
231058 On ch=1 n=g4 v=0
231064 On ch=1 n=b5 v=0
231176 Par ch=1 c=64 v=63
231224 On ch=1 n=c#6 v=104
231226 On ch=1 n=g#4 v=79
231242 Par ch=1 c=64 v=127
231282 On ch=1 n=d#4 v=0
231300 On ch=1 n=a#5 v=0
231616 On ch=1 n=d#5 v=49
231724 On ch=1 n=c#6 v=0
231750 On ch=1 n=b5 v=93
231940 On ch=1 n=b4 v=66
231942 On ch=1 n=d#6 v=104
231984 On ch=1 n=b5 v=0
231984 On ch=1 n=d#5 v=0
232034 Par ch=1 c=64 v=63
232050 Par ch=1 c=64 v=0
232166 Par ch=1 c=64 v=63
232192 Par ch=1 c=64 v=127
232316 On ch=1 n=d#5 v=83
232388 On ch=1 n=b4 v=0
232556 On ch=1 n=g#4 v=0
232668 On ch=1 n=g4 v=84
232732 On ch=1 n=d#5 v=0
232758 Par ch=1 c=64 v=63
232778 Par ch=1 c=64 v=0
232858 Par ch=1 c=64 v=63
232896 Par ch=1 c=64 v=127
233138 On ch=1 n=d6 v=90
233144 On ch=1 n=d#5 v=71
233204 On ch=1 n=d#6 v=0
233302 On ch=1 n=g4 v=0
233318 On ch=1 n=d#6 v=101
233402 On ch=1 n=d6 v=0
233482 On ch=1 n=f#4 v=88
233488 On ch=1 n=f6 v=84
233562 On ch=1 n=d#6 v=0
233584 On ch=1 n=d#5 v=0
233608 Par ch=1 c=64 v=63
233642 On ch=1 n=d#6 v=97
233704 On ch=1 n=f6 v=0
233730 Par ch=1 c=64 v=127
233824 On ch=1 n=c#6 v=104
233840 On ch=1 n=d#5 v=79
233904 On ch=1 n=d#6 v=0
233970 On ch=1 n=c6 v=101
234042 On ch=1 n=c#6 v=0
234148 On ch=1 n=f4 v=78
234180 On ch=1 n=a#5 v=108
234192 On ch=1 n=f#4 v=0
234224 On ch=1 n=d#5 v=0
234226 Par ch=1 c=64 v=63
234248 On ch=1 n=c6 v=0
234252 Par ch=1 c=64 v=0
234382 Par ch=1 c=64 v=63
234404 Par ch=1 c=64 v=127
234614 On ch=1 n=d#5 v=58
234618 On ch=1 n=a5 v=83
234678 Par ch=1 c=64 v=63
234700 On ch=1 n=a#5 v=0
234714 Par ch=1 c=64 v=0
234748 Par ch=1 c=64 v=63
234796 Par ch=1 c=64 v=127
234906 On ch=1 n=f4 v=0
234986 On ch=1 n=f4 v=61
235002 On ch=1 n=d#5 v=0
235162 On ch=1 n=a5 v=0
235348 On ch=1 n=d#5 v=70
235504 On ch=1 n=f4 v=0
235542 On ch=1 n=a5 v=81
235662 Par ch=1 c=64 v=63
235672 On ch=1 n=c6 v=93
235674 Par ch=1 c=64 v=0
235688 On ch=1 n=f4 v=67
235694 On ch=1 n=d#5 v=0
235716 On ch=1 n=a5 v=0
235788 Par ch=1 c=64 v=63
235816 Par ch=1 c=64 v=127
236036 On ch=1 n=c#5 v=96
236182 On ch=1 n=a#5 v=100
236204 On ch=1 n=c6 v=0
236216 On ch=1 n=f4 v=0
236334 On ch=1 n=c#5 v=0
236342 On ch=1 n=c#6 v=110
236360 On ch=1 n=f4 v=71
236398 On ch=1 n=a#5 v=0
236442 Par ch=1 c=64 v=63
236508 Par ch=1 c=64 v=127
236702 On ch=1 n=a4 v=89
236782 On ch=1 n=c#6 v=0
236816 On ch=1 n=c6 v=92
236910 On ch=1 n=a4 v=0
237012 On ch=1 n=f4 v=0
237022 On ch=1 n=d#6 v=113
237024 On ch=1 n=a#4 v=99
237092 On ch=1 n=c6 v=0
237108 Par ch=1 c=64 v=63
237190 Par ch=1 c=64 v=127
237420 On ch=1 n=f5 v=93
237552 On ch=1 n=c#6 v=104
237616 On ch=1 n=d#6 v=0
237702 On ch=1 n=c#6 v=0
237720 On ch=1 n=c#5 v=96
237752 On ch=1 n=f6 v=108
237806 On ch=1 n=f5 v=0
237838 Par ch=1 c=64 v=63
237852 Par ch=1 c=64 v=0
238042 Par ch=1 c=64 v=63
238058 Par ch=1 c=64 v=127
238104 On ch=1 n=f5 v=87
238276 On ch=1 n=c#5 v=0
238298 On ch=1 n=a#4 v=0
238432 On ch=1 n=a4 v=84
238518 On ch=1 n=f5 v=0
238554 Par ch=1 c=64 v=63
238598 Par ch=1 c=64 v=0
238650 Par ch=1 c=64 v=63
238684 Par ch=1 c=64 v=127
238834 On ch=1 n=f5 v=78
238860 On ch=1 n=e6 v=98
238922 On ch=1 n=f6 v=0
239006 On ch=1 n=f6 v=103
239020 On ch=1 n=a4 v=0
239084 On ch=1 n=e6 v=0
239176 On ch=1 n=g#4 v=98
239178 On ch=1 n=g6 v=98
239252 On ch=1 n=f6 v=0
239264 On ch=1 n=f5 v=0
239280 Par ch=1 c=64 v=63
239320 On ch=1 n=f6 v=85
239326 Par ch=1 c=64 v=0
239394 Par ch=1 c=64 v=63
239410 On ch=1 n=g6 v=0
239422 Par ch=1 c=64 v=127
239476 On ch=1 n=d#6 v=107
239520 On ch=1 n=f5 v=77
239556 On ch=1 n=f6 v=0
239620 On ch=1 n=d6 v=108
239702 On ch=1 n=d#6 v=0
239752 On ch=1 n=g#4 v=0
239832 On ch=1 n=c6 v=106
239846 Par ch=1 c=64 v=63
239852 On ch=1 n=g4 v=85
239864 Par ch=1 c=64 v=0
239908 On ch=1 n=d6 v=0
239952 On ch=1 n=f5 v=0
239970 Par ch=1 c=64 v=63
239998 Par ch=1 c=64 v=127
240294 On ch=1 n=g5 v=60
240306 On ch=1 n=b5 v=94
240384 On ch=1 n=c6 v=0
240394 Par ch=1 c=64 v=63
240422 Par ch=1 c=64 v=0
240460 Par ch=1 c=64 v=63
240514 Par ch=1 c=64 v=127
240556 On ch=1 n=g4 v=0
240666 On ch=1 n=f5 v=94
240728 On ch=1 n=g5 v=0
240754 On ch=1 n=b5 v=0
241022 On ch=1 n=g5 v=84
241118 On ch=1 n=f5 v=0
241154 On ch=1 n=b5 v=102
241224 Par ch=1 c=64 v=63
241248 Par ch=1 c=64 v=0
241334 On ch=1 n=d6 v=109
241336 On ch=1 n=d#5 v=101
241396 Par ch=1 c=64 v=63
241408 On ch=1 n=b5 v=0
241420 Par ch=1 c=64 v=127
241434 On ch=1 n=g5 v=0
241702 On ch=1 n=g5 v=90
241800 On ch=1 n=d#5 v=0
241814 On ch=1 n=d6 v=0
241826 On ch=1 n=c6 v=102
241978 On ch=1 n=d#6 v=113
241982 On ch=1 n=b4 v=73
242016 Par ch=1 c=64 v=63
242048 On ch=1 n=c6 v=0
242052 Par ch=1 c=64 v=0
242054 On ch=1 n=g5 v=0
242170 Par ch=1 c=64 v=63
242200 Par ch=1 c=64 v=127
242346 On ch=1 n=g5 v=87
242476 On ch=1 n=d6 v=104
242528 On ch=1 n=b4 v=0
242568 On ch=1 n=d#6 v=0
242644 On ch=1 n=f6 v=104
242654 On ch=1 n=c5 v=75
242690 On ch=1 n=g5 v=0
242712 On ch=1 n=d6 v=0
242768 Par ch=1 c=64 v=63
242816 Par ch=1 c=64 v=0
242896 Par ch=1 c=64 v=63
242934 Par ch=1 c=64 v=127
243074 On ch=1 n=g5 v=79
243206 On ch=1 n=d#6 v=101
243262 On ch=1 n=f6 v=0
243348 On ch=1 n=d#5 v=83
243370 On ch=1 n=g6 v=98
243426 On ch=1 n=d#6 v=0
243444 On ch=1 n=g5 v=0
243532 Par ch=1 c=64 v=63
243544 Par ch=1 c=64 v=127
243616 On ch=1 n=c5 v=0
243730 On ch=1 n=g5 v=79
243812 On ch=1 n=d#5 v=0
244044 On ch=1 n=b4 v=88
244104 Par ch=1 c=64 v=63
244124 On ch=1 n=g5 v=0
244194 Par ch=1 c=64 v=127
244428 On ch=1 n=g6 v=0
244450 On ch=1 n=g5 v=65
244474 On ch=1 n=f#6 v=91
244620 On ch=1 n=g6 v=92
244660 On ch=1 n=b4 v=0
244686 On ch=1 n=f#6 v=0
244780 On ch=1 n=g#6 v=99
244786 On ch=1 n=a#4 v=92
244836 On ch=1 n=g6 v=0
244880 On ch=1 n=g5 v=0
244880 Par ch=1 c=64 v=63
244928 Par ch=1 c=64 v=127
244930 On ch=1 n=g6 v=93
244956 On ch=1 n=g#6 v=0
245092 On ch=1 n=g5 v=68
245102 On ch=1 n=f6 v=102
245174 On ch=1 n=g6 v=0
245238 On ch=1 n=d#6 v=110
245284 On ch=1 n=e6 v=53
245332 On ch=1 n=f6 v=0
245406 On ch=1 n=d#6 v=0
245416 On ch=1 n=e6 v=0
245418 On ch=1 n=a4 v=84
245434 Par ch=1 c=64 v=63
245446 On ch=1 n=d6 v=97
245470 On ch=1 n=g5 v=0
245506 On ch=1 n=a#4 v=0
245556 Par ch=1 c=64 v=127
245852 On ch=1 n=g5 v=84
246050 On ch=1 n=c6 v=107
246104 On ch=1 n=d6 v=0
246156 On ch=1 n=c6 v=0
246240 On ch=1 n=d#5 v=76
246290 On ch=1 n=c7 v=97
246330 On ch=1 n=g5 v=0
246644 On ch=1 n=g5 v=81
246814 On ch=1 n=a4 v=0
246928 On ch=1 n=g5 v=0
246974 On ch=1 n=g#4 v=97
247032 Par ch=1 c=64 v=63
247042 On ch=1 n=d#5 v=0
247054 Par ch=1 c=64 v=0
247100 Par ch=1 c=64 v=63
247148 Par ch=1 c=64 v=127
247314 On ch=1 n=c7 v=0
247364 On ch=1 n=f#5 v=71
247382 On ch=1 n=d7 v=85
247482 On ch=1 n=c7 v=60
247496 On ch=1 n=d7 v=0
247526 On ch=1 n=b6 v=63
247554 On ch=1 n=c7 v=0
247584 On ch=1 n=c7 v=65
247642 On ch=1 n=b6 v=0
247662 On ch=1 n=d7 v=77
247682 On ch=1 n=c7 v=0
247782 On ch=1 n=d#7 v=99
247794 On ch=1 n=d#5 v=74
247810 On ch=1 n=d7 v=0
247848 On ch=1 n=f#5 v=0
247898 Par ch=1 c=64 v=63
247924 Par ch=1 c=64 v=127
248222 On ch=1 n=f#6 v=92
248238 On ch=1 n=g#4 v=0
248252 On ch=1 n=c5 v=71
248260 On ch=1 n=d#7 v=0
248318 On ch=1 n=d#5 v=0
248596 On ch=1 n=f#6 v=0
248682 On ch=1 n=c5 v=0
248756 On ch=1 n=g6 v=86
248978 Par ch=1 c=64 v=63
249002 On ch=1 n=g4 v=51
249102 Par ch=1 c=64 v=127
249218 On ch=1 n=b4 v=69
249308 On ch=1 n=g6 v=0
249408 On ch=1 n=d5 v=54
249440 On ch=1 n=b4 v=0
249502 On ch=1 n=g4 v=0
249616 On ch=1 n=d5 v=0
249638 On ch=1 n=g5 v=75
249698 On ch=1 n=g5 v=0
249846 On ch=1 n=b5 v=71
250020 On ch=1 n=d6 v=92
250044 On ch=1 n=b5 v=0
250152 On ch=1 n=g6 v=90
250202 On ch=1 n=d6 v=0
250312 On ch=1 n=f#6 v=101
250356 On ch=1 n=g6 v=0
250474 On ch=1 n=g4 v=76
250556 Par ch=1 c=64 v=63
250658 On ch=1 n=c5 v=88
250692 Par ch=1 c=64 v=127
250806 On ch=1 n=d#5 v=105
250928 On ch=1 n=f#6 v=0
250980 On ch=1 n=f#5 v=89
251074 Par ch=1 c=64 v=63
251130 On ch=1 n=a5 v=89
251174 Par ch=1 c=64 v=127
251294 On ch=1 n=c6 v=103
251350 On ch=1 n=a5 v=0
251408 On ch=1 n=f#5 v=0
251416 On ch=1 n=c5 v=0
251442 On ch=1 n=f#6 v=108
251482 On ch=1 n=g4 v=0
251484 On ch=1 n=c6 v=0
251488 On ch=1 n=d#5 v=0
251628 On ch=1 n=g6 v=90
251666 On ch=1 n=f#6 v=0
251786 Par ch=1 c=64 v=63
251810 On ch=1 n=g4 v=72
251832 Par ch=1 c=64 v=0
251984 Par ch=1 c=64 v=63
252016 On ch=1 n=b4 v=71
252030 Par ch=1 c=64 v=127
252206 On ch=1 n=d5 v=82
252330 On ch=1 n=g6 v=0
252384 On ch=1 n=g5 v=50
252554 On ch=1 n=b5 v=82
252710 On ch=1 n=d6 v=83
252740 On ch=1 n=b5 v=0
252844 On ch=1 n=g6 v=77
252860 On ch=1 n=b4 v=0
252908 On ch=1 n=d6 v=0
252976 On ch=1 n=g4 v=0
253022 On ch=1 n=f#6 v=88
253032 On ch=1 n=g5 v=0
253066 On ch=1 n=g6 v=0
253082 On ch=1 n=d5 v=0
253204 On ch=1 n=g4 v=45
253224 Par ch=1 c=64 v=63
253378 On ch=1 n=c5 v=75
253418 Par ch=1 c=64 v=127
253550 On ch=1 n=d#5 v=84
253600 On ch=1 n=f#6 v=0
253714 On ch=1 n=f#5 v=78
253780 On ch=1 n=c5 v=0
253878 On ch=1 n=a5 v=60
254036 On ch=1 n=f#5 v=0
254036 On ch=1 n=d#5 v=0
254042 On ch=1 n=c6 v=81
254048 On ch=1 n=a5 v=0
254084 On ch=1 n=g4 v=0
254184 On ch=1 n=c6 v=0
254192 On ch=1 n=f#6 v=89
254374 On ch=1 n=g6 v=78
254408 On ch=1 n=f#6 v=0
254536 Par ch=1 c=64 v=63
254542 On ch=1 n=g4 v=52
254576 Par ch=1 c=64 v=0
254740 On ch=1 n=b4 v=54
254752 Par ch=1 c=64 v=63
254776 Par ch=1 c=64 v=127
254910 On ch=1 n=d5 v=71
255090 On ch=1 n=g5 v=62
255244 On ch=1 n=b5 v=82
255300 On ch=1 n=g6 v=0
255408 On ch=1 n=d6 v=83
255548 On ch=1 n=f#6 v=95
255600 On ch=1 n=g4 v=0
255618 On ch=1 n=d6 v=0
255662 On ch=1 n=b4 v=0
255676 On ch=1 n=g5 v=0
255710 On ch=1 n=g6 v=101
255746 On ch=1 n=d5 v=0
255790 On ch=1 n=f#6 v=0
255808 Par ch=1 c=64 v=63
255850 Par ch=1 c=64 v=0
255898 On ch=1 n=g4 v=83
255958 Par ch=1 c=64 v=63
255994 Par ch=1 c=64 v=127
256014 On ch=1 n=b5 v=0
256056 On ch=1 n=b4 v=88
256212 On ch=1 n=g6 v=0
256242 On ch=1 n=d5 v=93
256394 On ch=1 n=g5 v=86
256560 On ch=1 n=b5 v=98
256712 On ch=1 n=d6 v=97
256736 On ch=1 n=b5 v=0
256770 On ch=1 n=g5 v=0
256796 On ch=1 n=g4 v=0
256860 On ch=1 n=g6 v=91
256900 On ch=1 n=d6 v=0
256906 On ch=1 n=d5 v=0
256926 On ch=1 n=b4 v=0
257032 On ch=1 n=g#6 v=108
257100 Par ch=1 c=64 v=63
257102 On ch=1 n=g6 v=0
257124 Par ch=1 c=64 v=0
257194 On ch=1 n=f4 v=71
257320 Par ch=1 c=64 v=63
257340 Par ch=1 c=64 v=127
257354 On ch=1 n=b4 v=86
257528 On ch=1 n=d5 v=104
257620 On ch=1 n=g#6 v=0
257682 On ch=1 n=f5 v=99
257842 On ch=1 n=b5 v=99
258004 On ch=1 n=d6 v=101
258012 On ch=1 n=f5 v=0
258014 On ch=1 n=f4 v=0
258022 On ch=1 n=d5 v=0
258044 On ch=1 n=b4 v=0
258066 On ch=1 n=b5 v=0
258154 On ch=1 n=g#6 v=112
258216 On ch=1 n=d6 v=0
258282 On ch=1 n=g#6 v=0
258322 On ch=1 n=a6 v=109
258486 On ch=1 n=d#4 v=92
258568 Par ch=1 c=64 v=63
258576 Par ch=1 c=64 v=0
258680 On ch=1 n=a4 v=68
258766 Par ch=1 c=64 v=63
258772 Par ch=1 c=64 v=127
258828 On ch=1 n=c5 v=87
258988 On ch=1 n=d#4 v=0
259010 On ch=1 n=d#5 v=92
259200 On ch=1 n=a6 v=0
259206 On ch=1 n=c6 v=94
259306 On ch=1 n=a4 v=0
259338 On ch=1 n=c5 v=0
259340 On ch=1 n=d#5 v=0
259436 On ch=1 n=f6 v=107
259460 On ch=1 n=c6 v=0
259648 On ch=1 n=f6 v=0
259670 On ch=1 n=a6 v=107
259794 On ch=1 n=a6 v=0
259982 On ch=1 n=d4 v=88
260040 On ch=1 n=a#6 v=106
260236 Par ch=1 c=64 v=63
260268 Par ch=1 c=64 v=0
260396 On ch=1 n=b6 v=96
260408 Par ch=1 c=64 v=63
260424 Par ch=1 c=64 v=127
260520 On ch=1 n=a#6 v=0
260634 On ch=1 n=a#6 v=8
260644 On ch=1 n=c7 v=83
260706 On ch=1 n=a#6 v=0
260724 On ch=1 n=b6 v=0
260896 On ch=1 n=a#6 v=89
260912 On ch=1 n=c7 v=0
261092 On ch=1 n=g#6 v=91
261122 On ch=1 n=a#6 v=0
261262 On ch=1 n=g6 v=80
261276 On ch=1 n=g#6 v=0
261420 On ch=1 n=g6 v=0
261420 On ch=1 n=f6 v=84
261578 On ch=1 n=d#6 v=101
261618 On ch=1 n=f6 v=0
261742 On ch=1 n=d6 v=83
261760 On ch=1 n=d#6 v=0
261898 On ch=1 n=c6 v=85
261900 On ch=1 n=d6 v=0
262050 On ch=1 n=c6 v=0
262076 On ch=1 n=a#5 v=87
262258 On ch=1 n=a#5 v=0
262258 On ch=1 n=a5 v=81
262356 On ch=1 n=d4 v=0
262420 On ch=1 n=g#5 v=78
262428 On ch=1 n=a5 v=0
262568 On ch=1 n=g#5 v=0
262572 On ch=1 n=g5 v=70
262714 On ch=1 n=g5 v=0
262760 On ch=1 n=f5 v=61
262914 On ch=1 n=d#5 v=85
262938 On ch=1 n=f5 v=0
263068 On ch=1 n=g#4 v=42
263070 On ch=1 n=a#3 v=47
263082 On ch=1 n=f4 v=65
263094 On ch=1 n=d5 v=73
263108 On ch=1 n=d#5 v=0
263232 On ch=1 n=d5 v=0
263248 On ch=1 n=c5 v=70
263292 Par ch=1 c=64 v=63
263436 On ch=1 n=c5 v=0
263438 On ch=1 n=a#4 v=73
263540 Par ch=1 c=64 v=0
263594 On ch=1 n=a#4 v=0
263608 On ch=1 n=c5 v=74
263790 On ch=1 n=d5 v=75
263798 On ch=1 n=c5 v=0
263962 On ch=1 n=d#5 v=79
263966 On ch=1 n=d5 v=0
264118 On ch=1 n=d#5 v=0
264136 On ch=1 n=f5 v=67
264310 On ch=1 n=g5 v=71
264322 On ch=1 n=f5 v=0
264498 On ch=1 n=g#5 v=76
264518 On ch=1 n=g5 v=0
264694 On ch=1 n=g#5 v=0
264698 On ch=1 n=g5 v=47
264868 On ch=1 n=g5 v=0
264892 On ch=1 n=f5 v=56
265084 On ch=1 n=f5 v=0
265100 On ch=1 n=e5 v=51
265276 On ch=1 n=e5 v=0
265302 On ch=1 n=f5 v=61
265502 On ch=1 n=f5 v=0
265510 On ch=1 n=g5 v=47
265750 On ch=1 n=g#5 v=64
265762 On ch=1 n=g5 v=0
266006 On ch=1 n=g#5 v=0
266006 On ch=1 n=a#3 v=0
266006 On ch=1 n=a5 v=39
266108 On ch=1 n=g#4 v=0
266242 On ch=1 n=f4 v=0
266330 On ch=1 n=d#4 v=52
266366 On ch=1 n=a#5 v=60
266462 On ch=1 n=a5 v=0
266870 On ch=1 n=g4 v=34
267100 Par ch=1 c=64 v=63
267128 Par ch=1 c=64 v=127
267300 On ch=1 n=a#5 v=0
267352 On ch=1 n=a#4 v=27
267496 On ch=1 n=g4 v=0
267610 On ch=1 n=c6 v=51
267808 On ch=1 n=a#4 v=0
267814 On ch=1 n=c6 v=0
267822 On ch=1 n=g4 v=24
267822 On ch=1 n=d6 v=48
267894 On ch=1 n=d#4 v=0
267980 On ch=1 n=d6 v=0
267990 On ch=1 n=d#6 v=70
268130 On ch=1 n=d#6 v=0
268204 On ch=1 n=d#4 v=39
268204 On ch=1 n=d#6 v=64
268262 Par ch=1 c=64 v=63
268338 On ch=1 n=g4 v=0
268368 Par ch=1 c=64 v=127
268552 On ch=1 n=d#6 v=0
268596 On ch=1 n=g4 v=30
268598 On ch=1 n=g5 v=59
268878 On ch=1 n=g5 v=0
268982 On ch=1 n=a#4 v=37
268988 On ch=1 n=g5 v=70
268994 On ch=1 n=g4 v=0
269176 On ch=1 n=g5 v=0
269276 On ch=1 n=a#4 v=0
269360 On ch=1 n=g5 v=79
269370 On ch=1 n=g4 v=57
269382 On ch=1 n=d#4 v=0
269482 On ch=1 n=g4 v=0
269502 On ch=1 n=g5 v=0
269746 On ch=1 n=a#3 v=58
269772 On ch=1 n=g5 v=62
269792 On ch=1 n=d#5 v=58
269848 Par ch=1 c=64 v=63
269930 Par ch=1 c=64 v=127
270154 On ch=1 n=d#4 v=61
270238 On ch=1 n=d#5 v=0
270516 On ch=1 n=g4 v=45
270526 On ch=1 n=g5 v=0
270568 On ch=1 n=d#4 v=0
270640 On ch=1 n=g#5 v=69
270706 On ch=1 n=a#3 v=0
270718 On ch=1 n=g5 v=53
270744 On ch=1 n=g#5 v=0
270796 On ch=1 n=f5 v=72
270802 On ch=1 n=g5 v=0
270908 On ch=1 n=g5 v=68
270920 On ch=1 n=f5 v=0
270952 On ch=1 n=d#4 v=63
270992 On ch=1 n=g4 v=0
271066 On ch=1 n=g#5 v=70
271076 On ch=1 n=g5 v=0
271304 On ch=1 n=g#5 v=0
271338 On ch=1 n=a#3 v=53
271338 Par ch=1 c=64 v=63
271348 On ch=1 n=f5 v=54
271350 On ch=1 n=d5 v=55
271360 On ch=1 n=d#4 v=0
271378 Par ch=1 c=64 v=0
271654 Par ch=1 c=64 v=63
271672 Par ch=1 c=64 v=127
271734 On ch=1 n=d4 v=44
271792 On ch=1 n=d5 v=0
271886 On ch=1 n=f5 v=0
272110 On ch=1 n=f4 v=44
272158 On ch=1 n=d4 v=0
272190 On ch=1 n=a#3 v=0
272260 On ch=1 n=a#5 v=80
272414 On ch=1 n=a5 v=62
272428 On ch=1 n=a#5 v=0
272516 On ch=1 n=d4 v=52
272524 On ch=1 n=g#5 v=87
272560 On ch=1 n=a5 v=0
272602 On ch=1 n=f4 v=0
272652 On ch=1 n=g5 v=79
272660 On ch=1 n=g#5 v=0
272766 On ch=1 n=g5 v=0
272772 On ch=1 n=f5 v=96
272928 On ch=1 n=d#5 v=96
272948 On ch=1 n=d#4 v=65
272956 On ch=1 n=g4 v=54
272964 On ch=1 n=f5 v=0
273050 Par ch=1 c=64 v=63
273054 On ch=1 n=d4 v=0
273098 Par ch=1 c=64 v=0
273458 On ch=1 n=a#4 v=70
273522 Par ch=1 c=64 v=63
273548 Par ch=1 c=64 v=127
273728 On ch=1 n=g4 v=0
273802 On ch=1 n=g4 v=71
273934 On ch=1 n=a#4 v=0
274144 On ch=1 n=a#4 v=86
274284 On ch=1 n=d#5 v=0
274364 On ch=1 n=a#4 v=0
274410 On ch=1 n=g4 v=0
274472 On ch=1 n=a#3 v=65
274508 On ch=1 n=f5 v=98
274522 On ch=1 n=d5 v=86
274620 On ch=1 n=d#4 v=0
274698 Par ch=1 c=64 v=63
274724 Par ch=1 c=64 v=0
274966 On ch=1 n=a#4 v=72
274982 On ch=1 n=d5 v=0
275080 Par ch=1 c=64 v=63
275098 Par ch=1 c=64 v=127
275346 On ch=1 n=d5 v=74
275352 On ch=1 n=a#3 v=0
275412 On ch=1 n=a#4 v=0
275724 On ch=1 n=a#4 v=83
275792 On ch=1 n=f5 v=0
275806 On ch=1 n=a#4 v=0
275808 On ch=1 n=d5 v=0
276044 On ch=1 n=d#3 v=83
276116 On ch=1 n=g5 v=89
276132 On ch=1 n=d#5 v=71
276196 Par ch=1 c=64 v=63
276214 Par ch=1 c=64 v=0
276320 Par ch=1 c=64 v=63
276342 On ch=1 n=d#5 v=0
276344 Par ch=1 c=64 v=127
276388 On ch=1 n=g5 v=0
276408 On ch=1 n=g#5 v=72
276482 On ch=1 n=g5 v=71
276518 On ch=1 n=g#5 v=0
276566 On ch=1 n=g5 v=0
276572 On ch=1 n=f5 v=82
276646 On ch=1 n=g5 v=65
276666 On ch=1 n=f5 v=0
276738 Par ch=1 c=64 v=63
276780 Par ch=1 c=64 v=0
276848 On ch=1 n=g#5 v=79
276882 On ch=1 n=g5 v=0
276892 Par ch=1 c=64 v=63
276924 Par ch=1 c=64 v=127
277052 On ch=1 n=a#5 v=85
277114 On ch=1 n=g#5 v=0
277194 Par ch=1 c=64 v=63
277206 On ch=1 n=a#5 v=0
277206 On ch=1 n=d#3 v=0
277236 On ch=1 n=c6 v=59
277284 Par ch=1 c=64 v=0
277420 On ch=1 n=c6 v=0
277424 On ch=1 n=d6 v=82
277584 On ch=1 n=d#6 v=78
277590 On ch=1 n=d6 v=0
277668 On ch=1 n=d#6 v=0
277836 On ch=1 n=a#5 v=57
278008 Par ch=1 c=64 v=63
278030 Par ch=1 c=64 v=127
278142 On ch=1 n=a#5 v=0
278896 On ch=1 n=d#6 v=72
279022 On ch=1 n=d#6 v=0
279138 On ch=1 n=g6 v=57
279312 On ch=1 n=g6 v=0
279356 On ch=1 n=d6 v=57
279386 Par ch=1 c=64 v=63
279476 On ch=1 n=d6 v=0
279522 On ch=1 n=f6 v=65
279676 On ch=1 n=f6 v=0
279724 On ch=1 n=c6 v=63
279828 Par ch=1 c=64 v=127
279882 On ch=1 n=d#6 v=74
279902 On ch=1 n=c6 v=0
279936 On ch=1 n=d#6 v=0
280074 On ch=1 n=a#5 v=82
280208 On ch=1 n=a#5 v=0
280238 On ch=1 n=d6 v=71
280350 Par ch=1 c=64 v=63
280378 On ch=1 n=d6 v=0
280396 On ch=1 n=d3 v=75
280414 On ch=1 n=g#5 v=86
280434 Par ch=1 c=64 v=127
280560 On ch=1 n=g#5 v=0
280570 On ch=1 n=d3 v=0
280592 On ch=1 n=c6 v=71
280610 On ch=1 n=d4 v=62
280710 On ch=1 n=d4 v=0
280762 On ch=1 n=d#3 v=80
280770 On ch=1 n=g5 v=74
280776 Par ch=1 c=64 v=63
280798 On ch=1 n=c6 v=0
280824 Par ch=1 c=64 v=127
280908 On ch=1 n=d#4 v=76
280916 On ch=1 n=d#3 v=0
280918 On ch=1 n=a#5 v=88
280940 On ch=1 n=g5 v=0
281040 On ch=1 n=d#4 v=0
281062 Par ch=1 c=64 v=63
281082 On ch=1 n=a#5 v=0
281086 On ch=1 n=f5 v=85
281090 On ch=1 n=f3 v=81
281138 Par ch=1 c=64 v=127
281222 On ch=1 n=f3 v=0
281246 On ch=1 n=g#5 v=91
281254 On ch=1 n=f4 v=81
281258 On ch=1 n=f5 v=0
281346 Par ch=1 c=64 v=63
281430 On ch=1 n=g3 v=89
281434 On ch=1 n=d#5 v=94
281448 Par ch=1 c=64 v=127
281450 On ch=1 n=f4 v=0
281450 On ch=1 n=g#5 v=0
281544 On ch=1 n=g3 v=0
281570 On ch=1 n=d#5 v=0
281578 On ch=1 n=g5 v=84
281584 On ch=1 n=g4 v=82
281680 On ch=1 n=g5 v=0
281706 On ch=1 n=g4 v=0
281718 Par ch=1 c=64 v=63
281746 On ch=1 n=g#3 v=100
281756 On ch=1 n=c5 v=88
281762 Par ch=1 c=64 v=127
281870 On ch=1 n=c5 v=0
281882 On ch=1 n=g#3 v=0
281914 On ch=1 n=g#4 v=84
281926 On ch=1 n=c6 v=94
281992 On ch=1 n=g#4 v=0
282098 On ch=1 n=f3 v=92
282100 Par ch=1 c=64 v=63
282102 On ch=1 n=f5 v=87
282106 On ch=1 n=c6 v=0
282168 Par ch=1 c=64 v=127
282208 On ch=1 n=f3 v=0
282268 On ch=1 n=g#5 v=93
282272 On ch=1 n=f4 v=78
282280 On ch=1 n=f5 v=0
282350 On ch=1 n=f4 v=0
282448 On ch=1 n=g#5 v=0
282478 On ch=1 n=a4 v=84
282494 On ch=1 n=g5 v=84
282514 On ch=1 n=d#5 v=71
282560 Par ch=1 c=64 v=63
282586 Par ch=1 c=64 v=0
282752 On ch=1 n=a#4 v=81
282854 Par ch=1 c=64 v=63
282860 On ch=1 n=a4 v=0
282872 Par ch=1 c=64 v=127
282924 On ch=1 n=c5 v=80
282976 On ch=1 n=a#4 v=0
283094 On ch=1 n=a#4 v=89
283144 On ch=1 n=c5 v=0
283282 On ch=1 n=a4 v=83
283288 On ch=1 n=a#4 v=0
283390 Par ch=1 c=64 v=63
283446 Par ch=1 c=64 v=127
283448 On ch=1 n=a#4 v=95
283464 On ch=1 n=a4 v=0
283562 On ch=1 n=a#4 v=0
283644 On ch=1 n=g4 v=65
283826 On ch=1 n=d#4 v=83
283868 On ch=1 n=g4 v=0
284010 On ch=1 n=d#5 v=0
284070 On ch=1 n=a#3 v=57
284094 On ch=1 n=d5 v=47
284096 Par ch=1 c=64 v=63
284098 On ch=1 n=f5 v=74
284120 Par ch=1 c=64 v=0
284142 On ch=1 n=d#4 v=0
284144 On ch=1 n=g5 v=0
284226 Par ch=1 c=64 v=63
284254 Par ch=1 c=64 v=127
284306 On ch=1 n=f5 v=0
284418 On ch=1 n=d#5 v=72
284450 On ch=1 n=d5 v=0
284550 On ch=1 n=d#5 v=0
284612 On ch=1 n=a#3 v=0
284620 Par ch=1 c=64 v=63
284628 On ch=1 n=d5 v=73
284786 On ch=1 n=d5 v=0
284796 On ch=1 n=d#5 v=80
284830 Par ch=1 c=64 v=0
284892 On ch=1 n=d#5 v=0
284984 On ch=1 n=f5 v=79
285114 On ch=1 n=f5 v=0
285146 On ch=1 n=g5 v=82
285248 On ch=1 n=g5 v=0
285322 On ch=1 n=g#5 v=90
285458 On ch=1 n=g#5 v=0
285500 On ch=1 n=a5 v=64
285746 On ch=1 n=a5 v=0
285782 On ch=1 n=d#4 v=51
285822 On ch=1 n=a#5 v=72
285996 Par ch=1 c=64 v=63
286028 Par ch=1 c=64 v=127
286304 On ch=1 n=g4 v=35
286400 On ch=1 n=a#5 v=0
286642 On ch=1 n=a#4 v=45
286714 On ch=1 n=g4 v=0
286826 On ch=1 n=d6 v=65
286906 On ch=1 n=d6 v=0
286944 On ch=1 n=c6 v=54
286974 On ch=1 n=a#4 v=0
287014 On ch=1 n=g4 v=33
287028 On ch=1 n=d#6 v=84
287032 On ch=1 n=c6 v=0
287058 On ch=1 n=d#4 v=0
287122 On ch=1 n=d#6 v=0
287124 On ch=1 n=d6 v=79
287218 On ch=1 n=f6 v=79
287238 On ch=1 n=d6 v=0
287286 On ch=1 n=d#6 v=95
287334 On ch=1 n=f6 v=0
287354 On ch=1 n=d#6 v=0
287402 On ch=1 n=d#4 v=61
287410 On ch=1 n=d#6 v=94
287412 Par ch=1 c=64 v=63
287436 On ch=1 n=g4 v=0
287512 Par ch=1 c=64 v=127
287744 On ch=1 n=d#6 v=0
287776 On ch=1 n=g4 v=46
287792 On ch=1 n=g5 v=86
287916 On ch=1 n=g5 v=0
288058 On ch=1 n=g4 v=0
288134 On ch=1 n=a#4 v=52
288190 On ch=1 n=g5 v=90
288414 On ch=1 n=g5 v=0
288462 On ch=1 n=a#4 v=0
288548 On ch=1 n=d#4 v=0
288564 On ch=1 n=g5 v=94
288576 On ch=1 n=g4 v=57
288672 On ch=1 n=g4 v=0
288772 On ch=1 n=g5 v=0
288912 On ch=1 n=a#3 v=63
289002 On ch=1 n=g5 v=71
289024 On ch=1 n=d#5 v=65
289056 Par ch=1 c=64 v=63
289096 Par ch=1 c=64 v=0
289156 Par ch=1 c=64 v=63
289192 Par ch=1 c=64 v=127
289258 On ch=1 n=d#5 v=0
289368 On ch=1 n=g#5 v=75
289370 On ch=1 n=d#4 v=56
289374 On ch=1 n=g5 v=0
289448 On ch=1 n=g5 v=61
289502 On ch=1 n=g#5 v=0
289538 On ch=1 n=f5 v=97
289558 On ch=1 n=g5 v=0
289610 On ch=1 n=g5 v=89
289656 On ch=1 n=f5 v=0
289776 On ch=1 n=a#5 v=105
289796 On ch=1 n=g4 v=43
289822 On ch=1 n=g5 v=0
289926 Par ch=1 c=64 v=63
289962 On ch=1 n=d#4 v=0
290068 Par ch=1 c=64 v=127
290248 On ch=1 n=d#4 v=77
290426 On ch=1 n=a#3 v=0
290536 On ch=1 n=g4 v=0
290586 On ch=1 n=a#3 v=61
290638 On ch=1 n=d5 v=80
290680 Par ch=1 c=64 v=63
290710 On ch=1 n=d#4 v=0
290798 Par ch=1 c=64 v=127
290912 On ch=1 n=a#5 v=0
290960 On ch=1 n=a5 v=80
291020 On ch=1 n=d5 v=0
291066 On ch=1 n=d4 v=51
291158 On ch=1 n=g#5 v=96
291204 On ch=1 n=a5 v=0
291292 On ch=1 n=g5 v=92
291358 On ch=1 n=g#5 v=0
291438 On ch=1 n=g5 v=0
291476 On ch=1 n=a#5 v=100
291496 On ch=1 n=f4 v=62
291518 On ch=1 n=d4 v=0
291562 Par ch=1 c=64 v=63
291588 Par ch=1 c=64 v=0
291642 Par ch=1 c=64 v=63
291658 On ch=1 n=g#5 v=100
291688 Par ch=1 c=64 v=127
291698 On ch=1 n=a#5 v=0
291840 On ch=1 n=g5 v=96
291872 On ch=1 n=d4 v=84
291912 On ch=1 n=g#5 v=0
291920 On ch=1 n=f4 v=0
291948 On ch=1 n=d4 v=0
291950 On ch=1 n=a#3 v=0
291992 On ch=1 n=f5 v=97
292002 On ch=1 n=g5 v=0
292204 On ch=1 n=f5 v=0
292240 On ch=1 n=d#5 v=105
292246 On ch=1 n=d#4 v=93
292248 On ch=1 n=d#3 v=95
292484 Par ch=1 c=64 v=63
292528 Par ch=1 c=64 v=0
292786 On ch=1 n=a#4 v=81
292950 Par ch=1 c=64 v=63
292954 Par ch=1 c=64 v=127
293190 On ch=1 n=g4 v=63
293250 On ch=1 n=a#4 v=0
293426 On ch=1 n=d#4 v=0
293496 On ch=1 n=g4 v=0
293548 On ch=1 n=a#4 v=68
293552 On ch=1 n=d#3 v=0
293708 On ch=1 n=e5 v=102
293724 On ch=1 n=d#5 v=0
293744 On ch=1 n=a#4 v=0
293820 On ch=1 n=e5 v=0
293894 On ch=1 n=f5 v=99
293902 On ch=1 n=a#3 v=94
293908 On ch=1 n=a#2 v=97
294114 Par ch=1 c=64 v=63
294136 Par ch=1 c=64 v=0
294334 On ch=1 n=d5 v=72
294444 Par ch=1 c=64 v=63
294464 Par ch=1 c=64 v=127
294702 On ch=1 n=a#4 v=88
294762 On ch=1 n=d5 v=0
295048 On ch=1 n=a#4 v=0
295082 On ch=1 n=a#2 v=0
295124 On ch=1 n=d5 v=89
295134 On ch=1 n=f5 v=0
295162 On ch=1 n=a#3 v=0
295308 On ch=1 n=f#5 v=107
295336 On ch=1 n=d5 v=0
295422 On ch=1 n=f#5 v=0
295556 On ch=1 n=d#3 v=76
295646 On ch=1 n=g5 v=97
295648 On ch=1 n=d#4 v=77
295658 On ch=1 n=d#5 v=83
295720 Par ch=1 c=64 v=63
295732 Par ch=1 c=64 v=0
295816 Par ch=1 c=64 v=63
295844 Par ch=1 c=64 v=127
295890 On ch=1 n=d#5 v=0
295898 On ch=1 n=g5 v=0
296072 On ch=1 n=g#5 v=83
296152 On ch=1 n=g5 v=60
296158 On ch=1 n=g#5 v=0
296206 On ch=1 n=g5 v=0
296226 On ch=1 n=f5 v=78
296300 On ch=1 n=g5 v=84
296318 On ch=1 n=f5 v=0
296500 On ch=1 n=g#5 v=95
296538 On ch=1 n=g5 v=0
296676 On ch=1 n=a5 v=80
296722 On ch=1 n=g#5 v=0
296762 Par ch=1 c=64 v=63
296854 On ch=1 n=a#5 v=88
296876 On ch=1 n=a5 v=0
296968 On ch=1 n=d#3 v=0
296994 On ch=1 n=a#5 v=0
297008 On ch=1 n=b5 v=69
297086 On ch=1 n=d#4 v=0
297126 On ch=1 n=c6 v=78
297134 On ch=1 n=b5 v=0
297136 Par ch=1 c=64 v=0
297242 On ch=1 n=c#6 v=94
297296 On ch=1 n=c6 v=0
297352 On ch=1 n=d6 v=65
297374 On ch=1 n=c#6 v=0
297428 On ch=1 n=d#6 v=97
297452 On ch=1 n=d6 v=0
297556 On ch=1 n=d#6 v=0
297588 On ch=1 n=a#5 v=77
297790 Par ch=1 c=64 v=63
297814 Par ch=1 c=64 v=127
297952 On ch=1 n=a#5 v=0
298520 On ch=1 n=d#6 v=71
298640 On ch=1 n=d#6 v=0
298654 Par ch=1 c=64 v=63
298748 On ch=1 n=d6 v=73
298828 On ch=1 n=d6 v=0
298832 Par ch=1 c=64 v=0
298924 On ch=1 n=c#6 v=88
299010 On ch=1 n=c#6 v=0
299064 On ch=1 n=c6 v=84
299072 Par ch=1 c=64 v=63
299164 On ch=1 n=c6 v=0
299246 On ch=1 n=b5 v=84
299252 On ch=1 n=d#5 v=63
299350 On ch=1 n=d#5 v=0
299404 On ch=1 n=d5 v=68
299512 On ch=1 n=d5 v=0
299574 On ch=1 n=c#5 v=81
299584 On ch=1 n=b5 v=0
299664 On ch=1 n=c#5 v=0
299744 On ch=1 n=c5 v=69
299884 On ch=1 n=c5 v=0
299954 On ch=1 n=g4 v=37
299960 On ch=1 n=d#6 v=81
299962 On ch=1 n=b4 v=55
300138 On ch=1 n=d#6 v=0
300150 On ch=1 n=d6 v=76
300260 On ch=1 n=d6 v=0
300312 On ch=1 n=c#6 v=95
300336 On ch=1 n=b4 v=0
300356 On ch=1 n=g4 v=0
300392 On ch=1 n=c#6 v=0
300444 Par ch=1 c=64 v=0
300444 On ch=1 n=c6 v=90
300536 On ch=1 n=c6 v=0
300628 On ch=1 n=b5 v=81
300632 On ch=1 n=d#5 v=77
300732 On ch=1 n=d#5 v=0
300790 On ch=1 n=d5 v=71
300902 On ch=1 n=b5 v=0
300908 On ch=1 n=d5 v=0
300964 On ch=1 n=c#5 v=89
301048 On ch=1 n=c#5 v=0
301114 On ch=1 n=c5 v=83
301228 On ch=1 n=c5 v=0
301294 On ch=1 n=g4 v=76
301296 On ch=1 n=b4 v=84
301298 On ch=1 n=d#6 v=95
301438 On ch=1 n=d#6 v=0
301464 On ch=1 n=d6 v=86
301568 On ch=1 n=d6 v=0
301670 On ch=1 n=c#6 v=99
301772 On ch=1 n=c#6 v=0
301806 Par ch=1 c=64 v=63
301812 Par ch=1 c=64 v=127
301854 On ch=1 n=c6 v=101
301878 On ch=1 n=g4 v=0
302002 On ch=1 n=b4 v=0
302154 On ch=1 n=g4 v=55
302170 On ch=1 n=c6 v=0
302174 On ch=1 n=d#5 v=100
302188 On ch=1 n=b5 v=99
302224 Par ch=1 c=64 v=63
302294 Par ch=1 c=64 v=127
302854 On ch=1 n=b5 v=0
303388 On ch=1 n=c6 v=76
303464 On ch=1 n=b5 v=63
303482 On ch=1 n=c6 v=0
303524 On ch=1 n=b5 v=0
303524 On ch=1 n=a5 v=65
303594 On ch=1 n=b5 v=77
303622 On ch=1 n=g4 v=0
303626 On ch=1 n=a5 v=0
303684 On ch=1 n=d6 v=101
303704 On ch=1 n=d#5 v=0
303736 On ch=1 n=b5 v=0
303926 On ch=1 n=c6 v=97
303974 On ch=1 n=d6 v=0
304068 On ch=1 n=g#4 v=70
304072 On ch=1 n=c6 v=0
304122 On ch=1 n=d#5 v=50
304132 On ch=1 n=c6 v=84
304208 Par ch=1 c=64 v=63
304302 Par ch=1 c=64 v=127
304394 On ch=1 n=g#4 v=0
304424 On ch=1 n=d#5 v=0
304502 On ch=1 n=c6 v=0
305122 On ch=1 n=f5 v=69
305140 Par ch=1 c=64 v=63
305254 On ch=1 n=f5 v=0
305356 On ch=1 n=g5 v=84
305464 On ch=1 n=g5 v=0
305532 On ch=1 n=g#5 v=99
305636 On ch=1 n=g#5 v=0
305674 On ch=1 n=a5 v=88
305700 Par ch=1 c=64 v=0
305806 On ch=1 n=a5 v=0
305976 On ch=1 n=a#5 v=109
306000 Par ch=1 c=64 v=63
306028 Par ch=1 c=64 v=127
306726 On ch=1 n=d#4 v=61
306758 On ch=1 n=g3 v=57
306806 Par ch=1 c=64 v=63
306922 On ch=1 n=b5 v=68
306928 On ch=1 n=a#5 v=0
306942 Par ch=1 c=64 v=127
307072 On ch=1 n=b5 v=0
307076 On ch=1 n=c6 v=91
307158 On ch=1 n=g3 v=0
307206 On ch=1 n=c#6 v=98
307234 On ch=1 n=c6 v=0
307284 On ch=1 n=d#4 v=0
307300 On ch=1 n=d6 v=76
307320 On ch=1 n=c#6 v=0
307402 On ch=1 n=d#6 v=103
307428 On ch=1 n=d6 v=0
307496 On ch=1 n=d#6 v=0
307558 On ch=1 n=a#3 v=78
307576 On ch=1 n=g4 v=74
307594 On ch=1 n=d#5 v=100
307788 Par ch=1 c=64 v=63
307830 Par ch=1 c=64 v=0
307902 Par ch=1 c=64 v=63
307934 Par ch=1 c=64 v=127
308114 On ch=1 n=d#5 v=0
308200 On ch=1 n=f5 v=50
308218 On ch=1 n=g4 v=0
308264 On ch=1 n=d#5 v=88
308300 On ch=1 n=f5 v=0
308346 On ch=1 n=d5 v=74
308348 On ch=1 n=d#5 v=0
308404 On ch=1 n=d#5 v=88
308442 On ch=1 n=d5 v=0
308506 On ch=1 n=g5 v=91
308526 On ch=1 n=d5 v=84
308534 On ch=1 n=g#4 v=71
308584 On ch=1 n=d#5 v=0
308690 Par ch=1 c=64 v=63
308728 Par ch=1 c=64 v=0
308852 Par ch=1 c=64 v=63
308882 Par ch=1 c=64 v=127
309032 On ch=1 n=f5 v=84
309074 On ch=1 n=g5 v=0
309278 On ch=1 n=d5 v=0
309386 On ch=1 n=a#3 v=0
309418 On ch=1 n=f5 v=0
309632 On ch=1 n=d#4 v=61
309692 On ch=1 n=d#5 v=78
309710 On ch=1 n=g#4 v=0
310040 Par ch=1 c=64 v=63
310082 Par ch=1 c=64 v=0
310208 On ch=1 n=g4 v=48
310322 Par ch=1 c=64 v=63
310336 Par ch=1 c=64 v=127
310550 On ch=1 n=a#4 v=63
310654 On ch=1 n=g4 v=0
310740 On ch=1 n=d#5 v=0
310970 On ch=1 n=g4 v=60
311052 On ch=1 n=a#4 v=0
311118 On ch=1 n=d#4 v=0
311356 On ch=1 n=d#4 v=65
311424 On ch=1 n=c6 v=92
311450 On ch=1 n=g4 v=0
311504 Par ch=1 c=64 v=63
311638 Par ch=1 c=64 v=127
311836 On ch=1 n=g#4 v=76
312178 On ch=1 n=c5 v=73
312206 On ch=1 n=g#4 v=0
312220 On ch=1 n=c6 v=0
312268 On ch=1 n=d6 v=83
312322 On ch=1 n=d6 v=0
312342 On ch=1 n=c6 v=75
312408 On ch=1 n=b5 v=73
312410 On ch=1 n=c6 v=0
312474 On ch=1 n=c6 v=88
312502 On ch=1 n=b5 v=0
312594 On ch=1 n=d#6 v=95
312596 On ch=1 n=g#4 v=63
312620 On ch=1 n=c6 v=0
312658 On ch=1 n=d#4 v=0
312790 On ch=1 n=c6 v=90
312798 On ch=1 n=d#6 v=0
312840 On ch=1 n=c5 v=0
312994 On ch=1 n=c6 v=0
313002 On ch=1 n=d#4 v=58
313022 On ch=1 n=a#5 v=81
313088 On ch=1 n=g#4 v=0
313110 Par ch=1 c=64 v=63
313146 Par ch=1 c=64 v=0
313262 Par ch=1 c=64 v=63
313300 Par ch=1 c=64 v=127
313354 On ch=1 n=g6 v=69
313410 On ch=1 n=a#5 v=0
313576 On ch=1 n=g4 v=43
313596 On ch=1 n=f6 v=79
313686 On ch=1 n=g6 v=0
313754 On ch=1 n=d#6 v=100
313834 On ch=1 n=f6 v=0
313938 On ch=1 n=a#4 v=58
313940 On ch=1 n=d6 v=94
313996 On ch=1 n=d#6 v=0
314020 On ch=1 n=g4 v=0
314098 On ch=1 n=d#6 v=106
314152 On ch=1 n=d6 v=0
314268 On ch=1 n=f6 v=93
314298 On ch=1 n=g4 v=52
314314 On ch=1 n=d#4 v=0
314324 On ch=1 n=a#4 v=0
314328 On ch=1 n=d#6 v=0
314430 On ch=1 n=d#6 v=108
314520 On ch=1 n=f6 v=0
314602 On ch=1 n=d#4 v=69
314630 On ch=1 n=d6 v=76
314712 On ch=1 n=d#6 v=0
314770 Par ch=1 c=64 v=63
314782 On ch=1 n=g4 v=0
314816 Par ch=1 c=64 v=0
314858 On ch=1 n=c6 v=88
314924 On ch=1 n=d6 v=0
315104 On ch=1 n=g#4 v=78
315204 Par ch=1 c=64 v=63
315214 Par ch=1 c=64 v=127
315426 On ch=1 n=c6 v=0
315476 On ch=1 n=c5 v=65
315540 On ch=1 n=g#4 v=0
315562 On ch=1 n=d6 v=72
315624 On ch=1 n=d6 v=0
315624 On ch=1 n=c6 v=81
315714 On ch=1 n=c6 v=0
315716 On ch=1 n=b5 v=67
315778 On ch=1 n=c6 v=76
315792 On ch=1 n=b5 v=0
315838 Par ch=1 c=64 v=63
315858 On ch=1 n=g#4 v=66
315890 On ch=1 n=d#6 v=90
315898 On ch=1 n=c5 v=0
315910 On ch=1 n=d#4 v=0
315926 On ch=1 n=c6 v=0
315942 Par ch=1 c=64 v=127
316046 On ch=1 n=c6 v=96
316066 On ch=1 n=d#6 v=0
316244 On ch=1 n=d#4 v=52
316248 On ch=1 n=g#4 v=0
316250 On ch=1 n=g4 v=63
316272 On ch=1 n=a#5 v=94
316274 On ch=1 n=a#4 v=76
316288 On ch=1 n=c6 v=0
316368 Par ch=1 c=64 v=63
316400 Par ch=1 c=64 v=0
316458 Par ch=1 c=64 v=63
316500 Par ch=1 c=64 v=127
316572 On ch=1 n=a#5 v=0
316580 On ch=1 n=g6 v=75
316802 On ch=1 n=f6 v=89
316850 On ch=1 n=g6 v=0
316898 On ch=1 n=a#4 v=0
316936 On ch=1 n=g4 v=0
316954 On ch=1 n=d#6 v=99
317016 On ch=1 n=d#4 v=0
317042 On ch=1 n=f6 v=0
317140 On ch=1 n=d6 v=103
317202 On ch=1 n=d#6 v=0
317296 On ch=1 n=d#6 v=104
317334 Par ch=1 c=64 v=63
317370 On ch=1 n=d6 v=0
317388 Par ch=1 c=64 v=0
317476 On ch=1 n=f6 v=93
317550 On ch=1 n=d#6 v=0
317662 On ch=1 n=d#6 v=92
317774 On ch=1 n=f6 v=0
317846 Par ch=1 c=64 v=63
317876 Par ch=1 c=64 v=127
317892 On ch=1 n=f4 v=61
317894 On ch=1 n=c4 v=55
317900 On ch=1 n=g#3 v=69
317958 On ch=1 n=d#6 v=0
318204 Par ch=1 c=64 v=63
318208 On ch=1 n=d#6 v=82
318240 Par ch=1 c=64 v=0
318268 Par ch=1 c=64 v=63
318328 Par ch=1 c=64 v=127
318422 On ch=1 n=d6 v=83
318492 On ch=1 n=d#6 v=0
318592 On ch=1 n=c6 v=84
318606 On ch=1 n=d6 v=0
318728 On ch=1 n=c6 v=0
318768 On ch=1 n=b5 v=86
318832 Par ch=1 c=64 v=63
318876 Par ch=1 c=64 v=0
318924 On ch=1 n=c6 v=84
318938 Par ch=1 c=64 v=63
318948 On ch=1 n=b5 v=0
318972 On ch=1 n=g#3 v=0
318990 Par ch=1 c=64 v=127
319066 On ch=1 n=c4 v=0
319084 On ch=1 n=f4 v=0
319096 On ch=1 n=d6 v=79
319148 On ch=1 n=c6 v=0
319298 On ch=1 n=c6 v=81
319392 On ch=1 n=d6 v=0
319434 On ch=1 n=c6 v=0
319500 On ch=1 n=g4 v=54
319502 On ch=1 n=a#3 v=64
319648 On ch=1 n=c6 v=75
319684 Par ch=1 c=64 v=63
319692 On ch=1 n=a#5 v=83
319734 On ch=1 n=c6 v=0
319758 Par ch=1 c=64 v=0
319772 On ch=1 n=a#5 v=0
319774 On ch=1 n=a5 v=55
319824 On ch=1 n=a#5 v=83
319860 On ch=1 n=a5 v=0
319952 On ch=1 n=d#6 v=82
319972 On ch=1 n=a#5 v=0
320020 Par ch=1 c=64 v=63
320050 Par ch=1 c=64 v=127
320092 On ch=1 n=a#3 v=0
320148 On ch=1 n=g4 v=0
320162 On ch=1 n=a#5 v=79
320192 On ch=1 n=d#6 v=0
320252 On ch=1 n=a#5 v=0
320324 On ch=1 n=d#4 v=68
320338 On ch=1 n=a#3 v=54
320442 On ch=1 n=g#5 v=89
320516 On ch=1 n=g#5 v=0
320520 On ch=1 n=g5 v=57
320570 On ch=1 n=g5 v=0
320590 On ch=1 n=f5 v=65
320620 Par ch=1 c=64 v=63
320634 On ch=1 n=g5 v=73
320640 On ch=1 n=f5 v=0
320678 Par ch=1 c=64 v=0
320772 On ch=1 n=a#5 v=81
320796 On ch=1 n=g5 v=0
320838 On ch=1 n=a#3 v=0
320856 On ch=1 n=d#4 v=0
320966 On ch=1 n=g5 v=76
321020 On ch=1 n=a#5 v=0
321168 On ch=1 n=f4 v=67
321174 On ch=1 n=a#3 v=65
321216 On ch=1 n=g5 v=0
321332 On ch=1 n=a#5 v=86
321386 On ch=1 n=g#5 v=80
321414 On ch=1 n=a#5 v=0
321452 On ch=1 n=g5 v=65
321458 On ch=1 n=g#5 v=0
321512 On ch=1 n=g#5 v=85
321548 On ch=1 n=g5 v=0
321604 On ch=1 n=c6 v=79
321646 On ch=1 n=g#5 v=0
321774 Par ch=1 c=64 v=63
321802 On ch=1 n=a#3 v=0
321802 Par ch=1 c=64 v=127
321834 On ch=1 n=g#5 v=80
321840 On ch=1 n=f4 v=0
321866 On ch=1 n=c6 v=0
321938 On ch=1 n=g#5 v=0
322060 On ch=1 n=f4 v=48
322072 On ch=1 n=a#3 v=48
322328 On ch=1 n=d#5 v=76
322382 On ch=1 n=d5 v=65
322416 On ch=1 n=d#5 v=0
322442 On ch=1 n=d5 v=0
322456 On ch=1 n=c5 v=61
322522 On ch=1 n=d5 v=63
322526 Par ch=1 c=64 v=63
322550 On ch=1 n=c5 v=0
322622 Par ch=1 c=64 v=0
322628 On ch=1 n=f5 v=63
322664 On ch=1 n=d5 v=0
322768 Par ch=1 c=64 v=63
322828 Par ch=1 c=64 v=127
322948 On ch=1 n=d5 v=66
322960 On ch=1 n=a#3 v=0
322976 On ch=1 n=f5 v=0
323142 On ch=1 n=d5 v=0
323332 On ch=1 n=d#4 v=37
323344 On ch=1 n=d#5 v=70
323350 On ch=1 n=f4 v=0
323666 Par ch=1 c=64 v=63
323742 Par ch=1 c=64 v=0
323788 Par ch=1 c=64 v=63
323860 Par ch=1 c=64 v=127
323902 On ch=1 n=g4 v=43
324126 On ch=1 n=d#5 v=0
324258 On ch=1 n=a#4 v=55
324362 On ch=1 n=g4 v=0
324488 On ch=1 n=d#6 v=81
324658 On ch=1 n=g4 v=48
324684 On ch=1 n=d6 v=90
324724 On ch=1 n=a#4 v=0
324754 On ch=1 n=d#6 v=0
324802 On ch=1 n=d#4 v=0
324828 On ch=1 n=c#6 v=105
324888 On ch=1 n=d6 v=0
325028 On ch=1 n=d#4 v=65
325032 On ch=1 n=b5 v=86
325098 On ch=1 n=c#6 v=0
325106 Par ch=1 c=64 v=63
325128 On ch=1 n=g4 v=0
325154 Par ch=1 c=64 v=0
325216 Par ch=1 c=64 v=63
325262 Par ch=1 c=64 v=127
325402 On ch=1 n=g#4 v=71
325404 On ch=1 n=c6 v=100
325440 Par ch=1 c=64 v=63
325450 On ch=1 n=b5 v=0
325470 Par ch=1 c=64 v=0
325546 Par ch=1 c=64 v=63
325576 Par ch=1 c=64 v=127
325780 On ch=1 n=c5 v=76
325836 On ch=1 n=c6 v=0
325836 On ch=1 n=g#4 v=0
325926 On ch=1 n=d#6 v=89
326020 On ch=1 n=d6 v=83
326046 On ch=1 n=d#6 v=0
326104 On ch=1 n=f6 v=92
326140 On ch=1 n=d6 v=0
326150 On ch=1 n=g#4 v=60
326180 On ch=1 n=d#6 v=98
326234 On ch=1 n=f6 v=0
326248 On ch=1 n=c5 v=0
326266 On ch=1 n=d6 v=87
326278 On ch=1 n=d#4 v=0
326318 On ch=1 n=d#6 v=0
326356 On ch=1 n=c6 v=92
326368 On ch=1 n=d6 v=0
326470 Par ch=1 c=64 v=63
326470 On ch=1 n=a#5 v=109
326492 On ch=1 n=d#4 v=72
326500 Par ch=1 c=64 v=0
326510 On ch=1 n=c6 v=0
326572 On ch=1 n=g#4 v=0
326620 Par ch=1 c=64 v=63
326646 Par ch=1 c=64 v=127
326730 On ch=1 n=a#5 v=0
326764 On ch=1 n=g6 v=87
326988 On ch=1 n=f6 v=96
326992 On ch=1 n=g4 v=68
327054 On ch=1 n=g6 v=0
327168 On ch=1 n=d#6 v=109
327240 On ch=1 n=f6 v=0
327322 Par ch=1 c=64 v=63
327348 Par ch=1 c=64 v=0
327350 On ch=1 n=a#4 v=84
327352 On ch=1 n=d6 v=100
327410 On ch=1 n=d#6 v=0
327442 On ch=1 n=g4 v=0
327492 Par ch=1 c=64 v=63
327514 Par ch=1 c=64 v=127
327528 On ch=1 n=d#6 v=110
327600 On ch=1 n=d6 v=0
327690 On ch=1 n=f6 v=103
327694 On ch=1 n=g4 v=79
327744 On ch=1 n=d#6 v=0
327768 On ch=1 n=a#4 v=0
327780 On ch=1 n=d#4 v=0
327840 Par ch=1 c=64 v=63
327844 On ch=1 n=d#6 v=115
327858 Par ch=1 c=64 v=0
327928 On ch=1 n=f6 v=0
328044 On ch=1 n=d6 v=108
328054 On ch=1 n=d#4 v=98
328104 On ch=1 n=d#6 v=0
328114 Par ch=1 c=64 v=63
328124 Par ch=1 c=64 v=127
328174 On ch=1 n=g4 v=0
328326 On ch=1 n=d6 v=0
328326 On ch=1 n=c6 v=99
328508 On ch=1 n=g#4 v=84
328602 On ch=1 n=c7 v=106
328660 On ch=1 n=c6 v=0
329102 On ch=1 n=c5 v=86
329192 On ch=1 n=g#4 v=0
329292 On ch=1 n=a#6 v=94
329340 On ch=1 n=c7 v=0
329432 On ch=1 n=g#6 v=91
329458 On ch=1 n=a#6 v=0
329520 On ch=1 n=g6 v=84
329568 On ch=1 n=g#6 v=0
329576 On ch=1 n=g#4 v=69
329606 On ch=1 n=f6 v=81
329614 On ch=1 n=g6 v=0
329666 On ch=1 n=d#4 v=0
329698 On ch=1 n=d#6 v=99
329706 On ch=1 n=f6 v=0
329790 On ch=1 n=d6 v=90
329804 On ch=1 n=d#6 v=0
329826 On ch=1 n=g#4 v=0
329862 On ch=1 n=c6 v=97
329876 On ch=1 n=d6 v=0
329908 On ch=1 n=c5 v=0
329946 On ch=1 n=g4 v=55
329966 On ch=1 n=a#5 v=113
329976 Par ch=1 c=64 v=63
329976 On ch=1 n=d#4 v=64
329980 On ch=1 n=a#4 v=86
329998 On ch=1 n=c6 v=0
330002 Par ch=1 c=64 v=0
330258 Par ch=1 c=64 v=63
330280 Par ch=1 c=64 v=127
330282 On ch=1 n=a#5 v=0
330310 On ch=1 n=g6 v=90
330538 On ch=1 n=f6 v=94
330616 On ch=1 n=g6 v=0
330722 On ch=1 n=d#6 v=108
330798 On ch=1 n=f6 v=0
330900 On ch=1 n=d6 v=106
330914 Par ch=1 c=64 v=63
330938 Par ch=1 c=64 v=0
330964 On ch=1 n=d#6 v=0
331070 On ch=1 n=d#6 v=106
331124 On ch=1 n=g4 v=0
331154 On ch=1 n=d6 v=0
331158 Par ch=1 c=64 v=63
331174 Par ch=1 c=64 v=127
331192 On ch=1 n=d#4 v=0
331236 On ch=1 n=a#4 v=0
331256 On ch=1 n=f6 v=101
331274 On ch=1 n=d#6 v=0
331422 On ch=1 n=d#6 v=116
331526 On ch=1 n=f6 v=0
331554 On ch=1 n=d#6 v=0
331594 Par ch=1 c=64 v=63
331604 On ch=1 n=g#4 v=104
331606 On ch=1 n=d5 v=108
331608 On ch=1 n=f4 v=98
331634 Par ch=1 c=64 v=0
331842 On ch=1 n=g#6 v=107
332022 On ch=1 n=g6 v=101
332112 On ch=1 n=g#6 v=0
332184 On ch=1 n=f6 v=102
332228 Par ch=1 c=64 v=63
332232 On ch=1 n=g6 v=0
332246 Par ch=1 c=64 v=127
332356 On ch=1 n=e6 v=112
332410 On ch=1 n=f6 v=0
332528 On ch=1 n=f6 v=109
332550 On ch=1 n=e6 v=0
332698 On ch=1 n=g6 v=101
332738 On ch=1 n=f6 v=0
332808 Par ch=1 c=64 v=63
332822 Par ch=1 c=64 v=0
332886 On ch=1 n=f6 v=106
332926 On ch=1 n=g6 v=0
332942 Par ch=1 c=64 v=63
332952 Par ch=1 c=64 v=127
332972 On ch=1 n=f4 v=0
332996 On ch=1 n=g#4 v=0
333042 On ch=1 n=d5 v=0
333196 Par ch=1 c=64 v=63
333204 On ch=1 n=a#6 v=114
333220 Par ch=1 c=64 v=0
333296 On ch=1 n=f6 v=0
333730 On ch=1 n=g4 v=99
333806 Par ch=1 c=64 v=63
333816 Par ch=1 c=64 v=127
334250 On ch=1 n=a#4 v=99
334570 On ch=1 n=g#6 v=107
334672 On ch=1 n=a#6 v=0
334752 On ch=1 n=g6 v=100
334850 On ch=1 n=g#6 v=0
334932 On ch=1 n=f6 v=93
334962 On ch=1 n=g6 v=0
335054 On ch=1 n=d#5 v=80
335082 On ch=1 n=d#6 v=112
335112 On ch=1 n=f6 v=0
335136 On ch=1 n=g4 v=0
335158 On ch=1 n=a#4 v=0
335206 On ch=1 n=d#5 v=0
335214 On ch=1 n=d6 v=98
335222 On ch=1 n=d#6 v=0
335308 On ch=1 n=c6 v=90
335310 On ch=1 n=d6 v=0
335410 On ch=1 n=a#5 v=101
335416 On ch=1 n=c6 v=0
335490 On ch=1 n=g#5 v=92
335504 On ch=1 n=a#5 v=0
335562 On ch=1 n=g5 v=82
335578 On ch=1 n=g#5 v=0
335620 On ch=1 n=f5 v=84
335634 On ch=1 n=g5 v=0
335698 On ch=1 n=f5 v=0
335706 On ch=1 n=d#5 v=103
335788 On ch=1 n=d#5 v=0
335792 On ch=1 n=d5 v=85
335844 On ch=1 n=c5 v=92
335846 On ch=1 n=d5 v=0
335930 On ch=1 n=a#4 v=101
335942 On ch=1 n=c5 v=0
336014 On ch=1 n=g#4 v=96
336058 On ch=1 n=a#4 v=0
336084 On ch=1 n=g4 v=103
336160 On ch=1 n=g#4 v=0
336362 Par ch=1 c=64 v=63
336410 Par ch=1 c=64 v=0
336702 On ch=1 n=c3 v=103
337276 On ch=1 n=d#3 v=88
337408 Par ch=1 c=64 v=63
337418 Par ch=1 c=64 v=127
337690 On ch=1 n=c4 v=82
337750 On ch=1 n=g4 v=0
337760 On ch=1 n=d#3 v=0
338044 On ch=1 n=c4 v=0
338094 On ch=1 n=f4 v=99
338116 On ch=1 n=c3 v=0
338482 On ch=1 n=g#2 v=100
338876 On ch=1 n=c3 v=76
339008 Par ch=1 c=64 v=63
339046 Par ch=1 c=64 v=0
339198 Par ch=1 c=64 v=63
339224 Par ch=1 c=64 v=127
339318 On ch=1 n=f3 v=84
339392 On ch=1 n=c3 v=0
339436 On ch=1 n=f4 v=0
339752 On ch=1 n=d#4 v=112
340210 On ch=1 n=g#2 v=0
340232 On ch=1 n=f3 v=0
340242 On ch=1 n=a2 v=103
340626 Par ch=1 c=64 v=63
340650 Par ch=1 c=64 v=0
340768 On ch=1 n=c3 v=97
340930 Par ch=1 c=64 v=63
340944 Par ch=1 c=64 v=127
341332 On ch=1 n=f3 v=99
341474 On ch=1 n=c3 v=0
342158 On ch=1 n=a#2 v=107
342252 On ch=1 n=a2 v=0
342414 Par ch=1 c=64 v=63
342478 Par ch=1 c=64 v=0
342868 On ch=1 n=d4 v=98
342928 Par ch=1 c=64 v=63
342952 Par ch=1 c=64 v=127
342966 On ch=1 n=d#4 v=0
343358 On ch=1 n=d#3 v=100
343386 On ch=1 n=f3 v=0
343738 Par ch=1 c=64 v=63
343798 On ch=1 n=c4 v=98
343804 Par ch=1 c=64 v=0
343862 On ch=1 n=d4 v=0
344166 On ch=1 n=d3 v=91
344210 On ch=1 n=d#3 v=0
344236 Par ch=1 c=64 v=63
344270 Par ch=1 c=64 v=127
344664 On ch=1 n=a#3 v=98
344754 On ch=1 n=c4 v=0
345234 On ch=1 n=c3 v=102
345288 On ch=1 n=d3 v=0
345336 Par ch=1 c=64 v=63
345378 Par ch=1 c=64 v=0
345410 On ch=1 n=a#2 v=0
345942 On ch=1 n=a3 v=89
346038 On ch=1 n=a#3 v=0
346038 Par ch=1 c=64 v=63
346046 Par ch=1 c=64 v=127
347252 On ch=1 n=g#3 v=100
347256 On ch=1 n=f3 v=71
347260 On ch=1 n=a#2 v=75
347266 On ch=1 n=d3 v=68
347322 On ch=1 n=a3 v=0
347354 On ch=1 n=c3 v=0
347570 Par ch=1 c=64 v=63
347604 Par ch=1 c=64 v=0
349328 Par ch=1 c=64 v=63
349366 Par ch=1 c=64 v=127
349682 On ch=1 n=g#3 v=0
350190 On ch=1 n=a#3 v=61
350430 On ch=1 n=a#3 v=0
350448 On ch=1 n=g#3 v=58
350636 On ch=1 n=g#3 v=0
350648 On ch=1 n=g3 v=61
350804 On ch=1 n=g3 v=0
350816 On ch=1 n=g#3 v=71
350952 On ch=1 n=a#3 v=67
350992 On ch=1 n=g#3 v=0
351040 On ch=1 n=a#3 v=0
351068 On ch=1 n=c4 v=72
351192 On ch=1 n=c4 v=0
351218 On ch=1 n=d4 v=83
351312 On ch=1 n=d#4 v=85
351324 On ch=1 n=d4 v=0
351396 On ch=1 n=d#4 v=0
351426 On ch=1 n=f4 v=70
351516 On ch=1 n=g4 v=80
351538 On ch=1 n=f4 v=0
351598 On ch=1 n=g#4 v=89
351620 On ch=1 n=g4 v=0
351664 On ch=1 n=a#4 v=80
351684 On ch=1 n=g#4 v=0
351720 On ch=1 n=a#4 v=0
351754 On ch=1 n=c5 v=86
351842 On ch=1 n=d5 v=86
351844 On ch=1 n=c5 v=0
351890 On ch=1 n=d#5 v=101
351912 On ch=1 n=d5 v=0
351960 On ch=1 n=d#5 v=0
351980 On ch=1 n=f5 v=88
352046 On ch=1 n=g5 v=94
352068 On ch=1 n=f5 v=0
352096 On ch=1 n=g#5 v=103
352124 On ch=1 n=g5 v=0
352148 On ch=1 n=a#5 v=85
352162 On ch=1 n=g#5 v=0
352190 On ch=1 n=a#5 v=0
352216 On ch=1 n=c6 v=91
352292 On ch=1 n=d6 v=93
352314 On ch=1 n=c6 v=0
352350 On ch=1 n=d#6 v=100
352368 On ch=1 n=d6 v=0
352412 On ch=1 n=d#6 v=0
352428 On ch=1 n=f6 v=93
352496 On ch=1 n=g6 v=96
352514 On ch=1 n=f6 v=0
352552 On ch=1 n=g#6 v=106
352580 On ch=1 n=g6 v=0
352614 On ch=1 n=a#6 v=88
352628 On ch=1 n=g#6 v=0
352650 On ch=1 n=a#6 v=0
352688 On ch=1 n=c7 v=92
352764 On ch=1 n=d7 v=101
352786 On ch=1 n=c7 v=0
352834 On ch=1 n=d#7 v=114
352882 On ch=1 n=d7 v=0
352950 Par ch=1 c=64 v=63
352958 On ch=1 n=f7 v=97
353004 On ch=1 n=d#7 v=0
353028 On ch=1 n=a#2 v=0
353030 Par ch=1 c=64 v=0
353046 On ch=1 n=f3 v=0
353050 On ch=1 n=d3 v=0
353362 On ch=1 n=d7 v=106
353384 On ch=1 n=f7 v=0
353876 On ch=1 n=a#6 v=83
353986 On ch=1 n=d7 v=0
354578 On ch=1 n=a6 v=58
354666 On ch=1 n=a#6 v=0
356190 On ch=1 n=g#6 v=29
356384 On ch=1 n=a6 v=0
357896 Par ch=1 c=64 v=63
357962 Par ch=1 c=64 v=127
358022 On ch=1 n=g#6 v=0
358384 On ch=1 n=d#4 v=56
358448 Par ch=1 c=64 v=63
358472 Par ch=1 c=64 v=127
358662 On ch=1 n=g#6 v=81
358722 On ch=1 n=g#6 v=0
358748 On ch=1 n=g6 v=61
358802 On ch=1 n=g6 v=0
358824 On ch=1 n=f6 v=58
358874 On ch=1 n=g6 v=57
358876 On ch=1 n=f6 v=0
358914 On ch=1 n=d#4 v=0
358934 Par ch=1 c=64 v=63
358992 On ch=1 n=a#6 v=82
359012 On ch=1 n=g6 v=0
359034 Par ch=1 c=64 v=127
359202 On ch=1 n=g6 v=81
359230 On ch=1 n=a#6 v=0
359284 On ch=1 n=g6 v=0
359374 On ch=1 n=g4 v=59
359530 On ch=1 n=f6 v=81
359612 On ch=1 n=d#6 v=77
359624 On ch=1 n=f6 v=0
359656 On ch=1 n=d#6 v=0
359668 On ch=1 n=d6 v=60
359716 On ch=1 n=d#6 v=85
359724 On ch=1 n=g4 v=0
359734 On ch=1 n=d6 v=0
359796 On ch=1 n=g6 v=93
359830 On ch=1 n=d#6 v=0
360010 On ch=1 n=d#6 v=105
360064 On ch=1 n=g6 v=0
360112 On ch=1 n=d#6 v=0
360188 On ch=1 n=g#4 v=91
360356 On ch=1 n=d6 v=84
360388 Par ch=1 c=64 v=63
360430 On ch=1 n=c6 v=51
360444 On ch=1 n=d6 v=0
360462 On ch=1 n=b5 v=82
360480 On ch=1 n=c6 v=0
360520 On ch=1 n=c6 v=86
360538 On ch=1 n=b5 v=0
360542 Par ch=1 c=64 v=127
360620 On ch=1 n=d#6 v=106
360644 On ch=1 n=c6 v=0
360648 On ch=1 n=g#4 v=0
360844 On ch=1 n=c6 v=96
360872 On ch=1 n=d#6 v=0
360932 On ch=1 n=c6 v=0
361040 On ch=1 n=c5 v=90
361194 Par ch=1 c=64 v=63
361212 On ch=1 n=a#5 v=92
361224 Par ch=1 c=64 v=0
361270 On ch=1 n=g#5 v=88
361300 On ch=1 n=a#5 v=0
361336 Par ch=1 c=64 v=63
361340 On ch=1 n=g#5 v=0
361342 On ch=1 n=g5 v=56
361376 Par ch=1 c=64 v=127
361392 On ch=1 n=g#5 v=88
361398 On ch=1 n=g5 v=0
361472 On ch=1 n=c6 v=96
361510 On ch=1 n=c5 v=0
361512 On ch=1 n=g#5 v=0
361696 On ch=1 n=g#5 v=101
361770 On ch=1 n=c6 v=0
362020 On ch=1 n=g5 v=76
362034 On ch=1 n=a#3 v=74
362104 On ch=1 n=g#5 v=0
362216 Par ch=1 c=64 v=63
362244 Par ch=1 c=64 v=0
362378 On ch=1 n=a#5 v=91
362508 On ch=1 n=g5 v=0
362626 Par ch=1 c=64 v=63
362634 Par ch=1 c=64 v=127
362642 On ch=1 n=g4 v=73
362878 On ch=1 n=a5 v=90
362946 On ch=1 n=a#5 v=0
363056 On ch=1 n=d#4 v=88
363136 On ch=1 n=g4 v=0
363218 On ch=1 n=a5 v=0
363262 On ch=1 n=g#5 v=104
363374 On ch=1 n=g#5 v=0
363454 On ch=1 n=g4 v=72
363524 On ch=1 n=a#3 v=0
363616 On ch=1 n=g5 v=98
363766 On ch=1 n=g5 v=0
363842 On ch=1 n=a#3 v=76
363862 On ch=1 n=g5 v=96
363888 Par ch=1 c=64 v=63
363916 On ch=1 n=g4 v=0
363970 On ch=1 n=d#4 v=0
364000 Par ch=1 c=64 v=127
364142 On ch=1 n=f5 v=77
364148 On ch=1 n=g5 v=0
364328 On ch=1 n=g5 v=79
364330 On ch=1 n=f5 v=0
364408 On ch=1 n=g#4 v=52
364448 On ch=1 n=g5 v=0
364456 On ch=1 n=f5 v=60
364558 On ch=1 n=f5 v=0
364562 On ch=1 n=g5 v=67
364624 On ch=1 n=g5 v=0
364644 On ch=1 n=f5 v=74
364714 On ch=1 n=g5 v=78
364726 On ch=1 n=f5 v=0
364746 On ch=1 n=g#4 v=0
364762 On ch=1 n=g5 v=0
364764 On ch=1 n=d4 v=61
364790 On ch=1 n=f5 v=76
364844 On ch=1 n=g5 v=84
364864 On ch=1 n=f5 v=0
364898 On ch=1 n=g5 v=0
364914 On ch=1 n=f5 v=88
364964 On ch=1 n=g5 v=71
365000 On ch=1 n=f5 v=0
365050 On ch=1 n=f5 v=99
365062 On ch=1 n=g5 v=0
365110 On ch=1 n=g5 v=65
365126 On ch=1 n=f5 v=0
365210 On ch=1 n=g5 v=0
365220 On ch=1 n=f5 v=76
365262 On ch=1 n=g#4 v=58
365298 On ch=1 n=d4 v=0
365326 On ch=1 n=d#5 v=90
365334 On ch=1 n=f5 v=0
365428 On ch=1 n=a#3 v=0
365458 On ch=1 n=f5 v=84
365490 On ch=1 n=d#5 v=0
365720 On ch=1 n=g#4 v=0
365724 On ch=1 n=d#4 v=60
365738 On ch=1 n=d#5 v=87
365790 On ch=1 n=f5 v=0
365974 Par ch=1 c=64 v=63
366026 Par ch=1 c=64 v=0
366048 On ch=1 n=g4 v=50
366142 Par ch=1 c=64 v=63
366176 Par ch=1 c=64 v=127
366286 On ch=1 n=a#4 v=62
366336 On ch=1 n=g4 v=0
366444 On ch=1 n=d#5 v=0
366476 On ch=1 n=g4 v=70
366496 On ch=1 n=a#4 v=0
366658 On ch=1 n=a#4 v=88
366688 On ch=1 n=g4 v=0
366772 On ch=1 n=d#4 v=0
366830 On ch=1 n=g4 v=71
366848 On ch=1 n=a#4 v=0
367026 On ch=1 n=a#4 v=89
367030 On ch=1 n=g4 v=0
367184 On ch=1 n=g4 v=77
367194 On ch=1 n=a#4 v=0
367294 On ch=1 n=g4 v=0
367412 On ch=1 n=g#4 v=81
367420 On ch=1 n=d5 v=81
367430 On ch=1 n=a#3 v=74
367504 Par ch=1 c=64 v=63
367536 Par ch=1 c=64 v=0
367626 On ch=1 n=f5 v=77
367628 On ch=1 n=d5 v=0
367770 On ch=1 n=f5 v=0
367804 On ch=1 n=c6 v=81
367974 On ch=1 n=a#5 v=87
367988 On ch=1 n=c6 v=0
368086 On ch=1 n=a#5 v=0
368176 On ch=1 n=c6 v=72
368336 On ch=1 n=a#5 v=67
368342 On ch=1 n=c6 v=0
368466 On ch=1 n=a#5 v=0
368558 On ch=1 n=c6 v=63
368634 On ch=1 n=a#3 v=0
368712 On ch=1 n=a#5 v=82
368736 On ch=1 n=c6 v=0
368756 On ch=1 n=g#4 v=0
368818 On ch=1 n=a#5 v=0
368910 On ch=1 n=d#4 v=58
368922 On ch=1 n=a#5 v=78
369004 Par ch=1 c=64 v=63
369012 Par ch=1 c=64 v=127
369132 On ch=1 n=g4 v=52
369242 On ch=1 n=d#4 v=0
369314 On ch=1 n=a#4 v=60
369356 On ch=1 n=g4 v=0
369358 On ch=1 n=a#5 v=0
369482 On ch=1 n=g4 v=54
369498 On ch=1 n=a#4 v=0
369670 On ch=1 n=a#4 v=55
369690 On ch=1 n=g4 v=0
369692 On ch=1 n=d#6 v=72
369850 On ch=1 n=a#4 v=0
369860 On ch=1 n=g4 v=42
370028 On ch=1 n=d#6 v=0
370064 On ch=1 n=a#4 v=60
370068 On ch=1 n=g4 v=0
370264 On ch=1 n=g4 v=63
370272 On ch=1 n=a#4 v=0
370392 On ch=1 n=g4 v=0
370562 On ch=1 n=g#4 v=67
370562 On ch=1 n=d5 v=65
370578 On ch=1 n=a#3 v=58
370670 Par ch=1 c=64 v=63
370798 Par ch=1 c=64 v=127
370830 On ch=1 n=f5 v=58
370928 On ch=1 n=d5 v=0
371020 On ch=1 n=c6 v=61
371034 On ch=1 n=f5 v=0
371204 On ch=1 n=a#5 v=87
371230 On ch=1 n=c6 v=0
371378 On ch=1 n=c6 v=76
371380 On ch=1 n=a#5 v=0
371544 On ch=1 n=a#5 v=91
371616 On ch=1 n=c6 v=0
371722 On ch=1 n=c6 v=85
371776 On ch=1 n=a#5 v=0
371798 On ch=1 n=g#4 v=0
371850 On ch=1 n=a#3 v=0
371900 On ch=1 n=a#5 v=100
371980 On ch=1 n=c6 v=0
372024 On ch=1 n=a#5 v=0
372078 On ch=1 n=d#4 v=63
372110 On ch=1 n=a#5 v=81
372326 On ch=1 n=g4 v=60
372340 Par ch=1 c=64 v=63
372374 Par ch=1 c=64 v=0
372526 On ch=1 n=a#4 v=58
372574 On ch=1 n=g4 v=0
372654 Par ch=1 c=64 v=63
372680 Par ch=1 c=64 v=127
372708 On ch=1 n=g4 v=52
372732 On ch=1 n=a#4 v=0
372918 On ch=1 n=d#5 v=72
372922 On ch=1 n=a#4 v=60
372940 On ch=1 n=g4 v=0
372970 On ch=1 n=a#5 v=0
373120 On ch=1 n=a#4 v=0
373120 On ch=1 n=g4 v=51
373276 On ch=1 n=g4 v=0
373276 On ch=1 n=a#4 v=57
373348 On ch=1 n=d#5 v=0
373436 On ch=1 n=d#4 v=0
373452 On ch=1 n=g4 v=57
373462 On ch=1 n=a#4 v=0
373558 On ch=1 n=g4 v=0
373700 On ch=1 n=d5 v=63
373704 On ch=1 n=g#4 v=61
373714 On ch=1 n=a#3 v=66
373826 Par ch=1 c=64 v=63
373904 Par ch=1 c=64 v=0
373934 On ch=1 n=f5 v=54
374014 Par ch=1 c=64 v=63
374024 On ch=1 n=d5 v=0
374062 Par ch=1 c=64 v=127
374118 On ch=1 n=f5 v=0
374160 On ch=1 n=c6 v=65
374352 On ch=1 n=a#5 v=73
374370 On ch=1 n=c6 v=0
374432 On ch=1 n=a#5 v=0
374548 On ch=1 n=c6 v=74
374698 On ch=1 n=a#5 v=82
374730 On ch=1 n=c6 v=0
374800 On ch=1 n=a#5 v=0
374894 On ch=1 n=c6 v=83
374910 On ch=1 n=g#4 v=0
375026 On ch=1 n=a#5 v=80
375080 On ch=1 n=c6 v=0
375116 On ch=1 n=a#3 v=0
375126 On ch=1 n=a#5 v=0
375224 On ch=1 n=g4 v=41
375226 On ch=1 n=d#4 v=60
375232 On ch=1 n=a#5 v=88
375390 On ch=1 n=a#5 v=0
375424 On ch=1 n=d#5 v=74
375456 Par ch=1 c=64 v=63
375484 Par ch=1 c=64 v=0
375580 On ch=1 n=d#5 v=0
375580 Par ch=1 c=64 v=63
375622 On ch=1 n=d#6 v=77
375626 Par ch=1 c=64 v=127
375712 On ch=1 n=d#6 v=0
375788 On ch=1 n=d#6 v=80
375872 On ch=1 n=d#6 v=0
375978 On ch=1 n=d#6 v=101
376046 On ch=1 n=d#4 v=0
376090 On ch=1 n=g4 v=0
376138 On ch=1 n=g5 v=84
376162 On ch=1 n=d#6 v=0
376198 Par ch=1 c=64 v=63
376220 Par ch=1 c=64 v=0
376262 On ch=1 n=g5 v=0
376318 On ch=1 n=g6 v=89
376394 On ch=1 n=g6 v=0
376472 On ch=1 n=g6 v=84
376492 Par ch=1 c=64 v=63
376508 Par ch=1 c=64 v=127
376564 On ch=1 n=g6 v=0
376650 On ch=1 n=g6 v=68
376750 On ch=1 n=g6 v=0
376846 On ch=1 n=a#5 v=76
376980 On ch=1 n=a#5 v=0
377024 On ch=1 n=a#6 v=86
377106 On ch=1 n=a#6 v=0
377224 On ch=1 n=a#6 v=72
377224 Par ch=1 c=64 v=63
377278 On ch=1 n=a#6 v=0
377316 Par ch=1 c=64 v=0
377394 On ch=1 n=a#4 v=40
377396 On ch=1 n=g#5 v=41
377406 On ch=1 n=d5 v=61
377436 On ch=1 n=a#6 v=71
377522 On ch=1 n=a#6 v=0
377608 On ch=1 n=a#6 v=85
377692 On ch=1 n=a#6 v=0
377782 Par ch=1 c=64 v=63
377792 On ch=1 n=a#6 v=94
377860 Par ch=1 c=64 v=127
377872 On ch=1 n=a#6 v=0
377966 On ch=1 n=a#6 v=76
378100 On ch=1 n=g#5 v=0
378126 On ch=1 n=a#6 v=0
378208 On ch=1 n=d#6 v=68
378210 On ch=1 n=d5 v=0
378210 On ch=1 n=d#5 v=43
378212 On ch=1 n=a#4 v=0
378228 On ch=1 n=g5 v=29
378308 Par ch=1 c=64 v=63
378384 Par ch=1 c=64 v=0
378508 On ch=1 n=d#6 v=0
378574 On ch=1 n=g5 v=0
378590 On ch=1 n=d#5 v=0
378958 Par ch=1 c=64 v=63
378998 On ch=1 n=a#4 v=33
378998 Par ch=1 c=64 v=127
379004 On ch=1 n=g#5 v=35
379006 On ch=1 n=a#6 v=72
379022 On ch=1 n=d5 v=55
379106 On ch=1 n=a#6 v=0
379188 On ch=1 n=a#6 v=68
379286 On ch=1 n=a#6 v=0
379428 On ch=1 n=a#6 v=72
379488 On ch=1 n=a#6 v=0
379610 On ch=1 n=a#6 v=44
379614 On ch=1 n=g#5 v=0
379622 On ch=1 n=d5 v=0
379718 On ch=1 n=a#4 v=0
379742 On ch=1 n=a#6 v=0
379842 On ch=1 n=d#6 v=55
379848 On ch=1 n=d#5 v=49
379864 On ch=1 n=g5 v=29
379954 Par ch=1 c=64 v=63
380020 Par ch=1 c=64 v=0
380100 On ch=1 n=d#6 v=0
380188 On ch=1 n=g5 v=0
380212 On ch=1 n=d#5 v=0
380590 Par ch=1 c=64 v=63
380640 Par ch=1 c=64 v=127
380658 On ch=1 n=a#6 v=65
380662 On ch=1 n=g#5 v=32
380670 On ch=1 n=a#4 v=22
380686 On ch=1 n=d5 v=50
380780 On ch=1 n=a#6 v=0
380870 On ch=1 n=a#6 v=52
380980 On ch=1 n=a#6 v=0
381112 On ch=1 n=a#6 v=52
381216 On ch=1 n=a#6 v=0
381354 On ch=1 n=a#6 v=55
381542 On ch=1 n=g#5 v=0
381592 On ch=1 n=a#6 v=0
381622 On ch=1 n=d5 v=0
381710 On ch=1 n=a#4 v=0
381720 On ch=1 n=d#5 v=34
381756 On ch=1 n=g5 v=10
381760 On ch=1 n=d#7 v=60
381874 Par ch=1 c=64 v=63
382006 Par ch=1 c=64 v=127
382116 On ch=1 n=d#7 v=0
382248 On ch=1 n=g5 v=0
382312 On ch=1 n=d#5 v=0
383730 Par ch=1 c=64 v=63
383962 Par ch=1 c=64 v=0
384658 On ch=1 n=g#4 v=40
384662 On ch=1 n=d5 v=69
384664 On ch=1 n=a#3 v=65
384666 On ch=1 n=a#4 v=64
384774 Par ch=1 c=64 v=63
384780 Par ch=1 c=64 v=127
384916 On ch=1 n=a#3 v=0
384988 On ch=1 n=a#3 v=65
385146 On ch=1 n=a#3 v=0
385238 On ch=1 n=a#3 v=50
385386 On ch=1 n=a#3 v=0
385464 On ch=1 n=a#3 v=64
385592 On ch=1 n=a#3 v=0
385692 On ch=1 n=a#3 v=49
385834 On ch=1 n=a#3 v=0
385948 On ch=1 n=a#3 v=46
386092 On ch=1 n=a#3 v=0
386210 On ch=1 n=a#3 v=49
386334 On ch=1 n=a#3 v=0
386418 On ch=1 n=g#4 v=0
386438 On ch=1 n=a#3 v=44
386516 On ch=1 n=d5 v=0
386550 On ch=1 n=a#4 v=0
386598 On ch=1 n=a#3 v=0
386796 On ch=1 n=a#4 v=27
386798 On ch=1 n=d#5 v=57
386806 On ch=1 n=d#3 v=43
386808 On ch=1 n=g4 v=25
386900 Par ch=1 c=64 v=63
386942 Par ch=1 c=64 v=0
387336 On ch=1 n=g4 v=0
387354 On ch=1 n=d#5 v=0
387370 On ch=1 n=a#4 v=0
387386 On ch=1 n=d#3 v=0
387768 On ch=1 n=a#3 v=55
387770 On ch=1 n=g#4 v=60
387776 On ch=1 n=f5 v=68
387782 Par ch=1 c=64 v=63
387786 Par ch=1 c=64 v=127
387798 On ch=1 n=d5 v=65
387800 On ch=1 n=a#4 v=59
387886 On ch=1 n=a#3 v=0
388004 On ch=1 n=a#3 v=58
388084 On ch=1 n=a#3 v=0
388102 On ch=1 n=f5 v=0
388158 On ch=1 n=a#4 v=0
388194 On ch=1 n=g#4 v=0
388210 On ch=1 n=d5 v=0
388280 On ch=1 n=a#3 v=52
388346 On ch=1 n=a#3 v=0
388450 On ch=1 n=a#3 v=40
388638 On ch=1 n=a#3 v=0
388724 On ch=1 n=a#4 v=29
388724 On ch=1 n=d#5 v=62
388730 On ch=1 n=d#3 v=40
388730 On ch=1 n=g4 v=30
388774 Par ch=1 c=64 v=63
388792 Par ch=1 c=64 v=0
388880 Par ch=1 c=64 v=63
388920 Par ch=1 c=64 v=127
389092 On ch=1 n=g4 v=0
389098 On ch=1 n=d#5 v=0
389104 On ch=1 n=a#4 v=0
389132 On ch=1 n=d#3 v=0
389348 Par ch=1 c=64 v=63
389388 Par ch=1 c=64 v=0
389868 Par ch=1 c=64 v=63
389904 Par ch=1 c=64 v=127
389924 On ch=1 n=a#2 v=58
389938 On ch=1 n=g#4 v=12
389944 On ch=1 n=f5 v=47
389944 On ch=1 n=a#4 v=38
389962 On ch=1 n=d5 v=46
390050 On ch=1 n=a#2 v=0
390270 On ch=1 n=a#2 v=45
390362 On ch=1 n=a#2 v=0
390606 On ch=1 n=a#2 v=45
390704 On ch=1 n=a#2 v=0
391014 On ch=1 n=f5 v=0
391044 On ch=1 n=a#2 v=45
391068 On ch=1 n=d5 v=0
391068 On ch=1 n=a#4 v=0
391086 On ch=1 n=g#4 v=0
391150 On ch=1 n=a#2 v=0
391668 On ch=1 n=d#5 v=48
391678 On ch=1 n=a#4 v=29
391680 On ch=1 n=g4 v=22
391698 On ch=1 n=d#3 v=41
391782 Par ch=1 c=64 v=63
391848 Par ch=1 c=64 v=0
392010 Par ch=1 c=64 v=63
392048 Par ch=1 c=64 v=127
392128 On ch=1 n=d#3 v=0
392208 On ch=1 n=a#4 v=0
392208 On ch=1 n=d#5 v=0
392224 On ch=1 n=g4 v=0
392760 Par ch=1 c=64 v=63
392898 Par ch=1 c=64 v=0
395040 Par ch=1 c=64 v=0
395040 Meta TrkEnd
TrkEnd
MTrk
0 SeqSpec 43 00 01 00
0 Meta TrkName "                                    "
0 TimeSig 4/4 24 8
0 Meta TrkEnd
TrkEnd
MTrk
0 SeqSpec 43 00 01 00
0 Meta TrkName "                                    "
0 TimeSig 4/4 24 8
0 Meta TrkEnd
TrkEnd
MTrk
0 SeqSpec 43 00 01 00
0 Meta TrkName "                                    "
0 TimeSig 4/4 24 8
0 Meta TrkEnd
TrkEnd
MTrk
0 SeqSpec 43 00 01 00
0 Meta TrkName "                                    "
0 TimeSig 4/4 24 8
0 Meta TrkEnd
TrkEnd
MTrk
0 SeqSpec 43 00 01 00
0 Meta TrkName "                                    "
0 TimeSig 4/4 24 8
0 Meta TrkEnd
TrkEnd
MTrk
0 SeqSpec 43 00 01 00
0 Meta TrkName "                                    "
0 TimeSig 4/4 24 8
0 Meta TrkEnd
TrkEnd
MTrk
0 SeqSpec 43 00 01 00
0 Meta TrkName "                                    "
0 TimeSig 4/4 24 8
0 Meta TrkEnd
TrkEnd
MTrk
0 SeqSpec 43 00 01 00
0 Meta TrkName "                                    "
0 TimeSig 4/4 24 8
0 Meta TrkEnd
TrkEnd
MTrk
0 SeqSpec 43 00 01 00
0 Meta TrkName "                                    "
0 TimeSig 4/4 24 8
0 Meta TrkEnd
TrkEnd
MTrk
0 SeqSpec 43 00 01 00
0 Meta TrkName "                                    "
0 TimeSig 4/4 24 8
0 Meta TrkEnd
TrkEnd
MTrk
0 SeqSpec 43 00 01 00
0 Meta TrkName "                                    "
0 TimeSig 4/4 24 8
0 Meta TrkEnd
TrkEnd
MTrk
0 SeqSpec 43 00 01 00
0 Meta TrkName "                                    "
0 TimeSig 4/4 24 8
0 Meta TrkEnd
TrkEnd
MTrk
0 SeqSpec 43 00 01 00
0 Meta TrkName "                                    "
0 TimeSig 4/4 24 8
0 Meta TrkEnd
TrkEnd
MTrk
0 SeqSpec 43 00 01 00
0 Meta TrkName "                                    "
0 TimeSig 4/4 24 8
0 Meta TrkEnd
TrkEnd
MTrk
0 SeqSpec 43 00 01 00
0 Meta TrkName "                                    "
0 TimeSig 4/4 24 8
0 Meta TrkEnd
TrkEnd
MTrk
0 SeqSpec 43 00 01 00
0 Meta TrkName "                                    "
0 TimeSig 4/4 24 8
0 Meta TrkEnd
TrkEnd
