MFile 1 18 480
MTrk
0 Tempo 500000
0 TimeSig 3/4 24 8
0 Meta TrkEnd
TrkEnd
MTrk
0 SeqSpec 43 00 01 00
0 Meta TrkName "PIANO                               "
0 TimeSig 3/4 24 8
0 SysEx f0 41 10 42 12 40 00 7f 00 41 f7
0 SysEx f0 41 10 42 12 40 00 04 64 58 f7
340 SysEx f0 41 10 42 12 40 01 30 03 0c f7
340 SysEx f0 41 10 42 12 40 01 33 50 3c f7
340 SysEx f0 41 10 42 12 40 01 34 3c 4f f7
744 Par ch=1 c=0 v=0
748 Par ch=1 c=32 v=1
752 PrCh ch=1 p=0
756 Par ch=1 c=7 v=100
948 Par ch=1 c=11 v=100
1140 Par ch=1 c=10 v=64
1332 Par ch=1 c=1 v=0
1332 Par ch=1 c=91 v=80
1350 Par ch=1 c=99 v=1
1354 Par ch=1 c=98 v=32
1358 Par ch=1 c=6 v=62
1362 Par ch=1 c=99 v=1
1366 Par ch=1 c=98 v=33
1370 Par ch=1 c=6 v=54
1374 Par ch=1 c=99 v=1
1378 Par ch=1 c=98 v=99
1382 Par ch=1 c=6 v=62
1386 Par ch=1 c=99 v=1
1390 Par ch=1 c=98 v=100
1394 Par ch=1 c=6 v=60
1398 Par ch=1 c=99 v=1
1402 Par ch=1 c=98 v=102
1406 Par ch=1 c=6 v=70
2156 On ch=1 n=g6 v=46
2270 Par ch=1 c=64 v=63
2348 Par ch=1 c=64 v=127
2552 On ch=1 n=d#5 v=41
2596 On ch=1 n=c5 v=20
2876 On ch=1 n=d#6 v=61
2908 On ch=1 n=g6 v=0
3168 On ch=1 n=c6 v=58
3210 On ch=1 n=d#6 v=0
3418 On ch=1 n=d#5 v=0
3454 On ch=1 n=d5 v=40
3474 On ch=1 n=f5 v=37
3480 On ch=1 n=c5 v=0
3572 Par ch=1 c=64 v=63
3744 Par ch=1 c=64 v=127
3760 On ch=1 n=b5 v=73
3764 On ch=1 n=c6 v=0
4060 On ch=1 n=g#6 v=83
4116 On ch=1 n=d5 v=0
4272 On ch=1 n=b5 v=0
4358 On ch=1 n=d5 v=52
4366 On ch=1 n=b4 v=44
4368 Par ch=1 c=64 v=63
4434 On ch=1 n=f5 v=0
4458 Par ch=1 c=64 v=127
4642 On ch=1 n=g6 v=66
4660 On ch=1 n=g#6 v=0
4934 On ch=1 n=f6 v=68
5046 On ch=1 n=g6 v=0
5058 On ch=1 n=d5 v=0
5114 On ch=1 n=b4 v=0
5182 Par ch=1 c=64 v=63
5220 On ch=1 n=g5 v=36
5236 On ch=1 n=c5 v=47
5308 Par ch=1 c=64 v=127
5520 On ch=1 n=f6 v=0
5530 On ch=1 n=d#6 v=61
5680 On ch=1 n=c5 v=0
5752 On ch=1 n=d#6 v=0
5770 On ch=1 n=g5 v=0
5824 On ch=1 n=g6 v=69
6074 Par ch=1 c=64 v=63
6110 On ch=1 n=g5 v=47
6122 On ch=1 n=d#5 v=62
6148 Par ch=1 c=64 v=0
6194 Par ch=1 c=64 v=63
6268 Par ch=1 c=64 v=127
6400 On ch=1 n=c7 v=80
6454 On ch=1 n=g6 v=0
6534 On ch=1 n=d#5 v=0
6662 On ch=1 n=a#6 v=91
6680 On ch=1 n=e5 v=54
6730 On ch=1 n=c7 v=0
6788 On ch=1 n=e5 v=0
6942 On ch=1 n=f5 v=52
6944 On ch=1 n=g#5 v=78
6956 On ch=1 n=g5 v=0
7086 Par ch=1 c=64 v=63
7192 Par ch=1 c=64 v=127
7240 On ch=1 n=g#6 v=93
7300 On ch=1 n=f5 v=0
7326 On ch=1 n=a#6 v=0
7486 On ch=1 n=g#5 v=0
7506 On ch=1 n=g6 v=87
7522 On ch=1 n=a#5 v=53
7532 On ch=1 n=g5 v=52
7588 On ch=1 n=g#6 v=0
7712 On ch=1 n=a#5 v=0
7796 On ch=1 n=g5 v=0
7808 On ch=1 n=g#5 v=67
7822 On ch=1 n=c6 v=64
7904 Par ch=1 c=64 v=63
7956 Par ch=1 c=64 v=0
8054 Par ch=1 c=64 v=63
8082 On ch=1 n=f6 v=84
8098 Par ch=1 c=64 v=127
8136 On ch=1 n=g6 v=0
8366 On ch=1 n=f#6 v=84
8374 On ch=1 n=g#5 v=0
8376 On ch=1 n=a5 v=47
8438 On ch=1 n=f6 v=0
8668 On ch=1 n=g5 v=48
8718 Par ch=1 c=64 v=63
8722 On ch=1 n=a5 v=0
8762 Par ch=1 c=64 v=0
8978 Par ch=1 c=64 v=63
8992 On ch=1 n=g6 v=55
9000 On ch=1 n=b5 v=45
9022 Par ch=1 c=64 v=127
9026 On ch=1 n=f#6 v=0
9096 On ch=1 n=c6 v=0
9174 On ch=1 n=g5 v=0
9328 On ch=1 n=g6 v=0
9398 On ch=1 n=g5 v=60
9408 On ch=1 n=b5 v=0
9486 On ch=1 n=g5 v=0
9830 On ch=1 n=d#4 v=49
9862 On ch=1 n=c4 v=38
10120 On ch=1 n=d#5 v=72
10382 On ch=1 n=c5 v=80
10430 On ch=1 n=d#5 v=0
10616 On ch=1 n=d#4 v=0
10674 On ch=1 n=f4 v=59
10676 On ch=1 n=d4 v=58
10722 Par ch=1 c=64 v=63
10740 On ch=1 n=c4 v=0
10752 Par ch=1 c=64 v=0
10936 On ch=1 n=c5 v=0
10938 On ch=1 n=b4 v=88
10974 Par ch=1 c=64 v=63
11010 Par ch=1 c=64 v=127
11198 On ch=1 n=b4 v=0
11230 On ch=1 n=g#5 v=88
11256 On ch=1 n=d4 v=0
11516 On ch=1 n=b3 v=54
11520 On ch=1 n=d4 v=73
11554 Par ch=1 c=64 v=63
11562 On ch=1 n=f4 v=0
11574 Par ch=1 c=64 v=0
11798 Par ch=1 c=64 v=63
11800 On ch=1 n=g5 v=69
11812 On ch=1 n=g#5 v=0
11816 Par ch=1 c=64 v=127
12026 On ch=1 n=d4 v=0
12106 On ch=1 n=f5 v=71
12108 On ch=1 n=b3 v=0
12174 On ch=1 n=g5 v=0
12372 On ch=1 n=c#4 v=58
12376 On ch=1 n=a#3 v=54
12440 Par ch=1 c=64 v=63
12474 Par ch=1 c=64 v=0
12540 Par ch=1 c=64 v=63
12598 Par ch=1 c=64 v=127
12630 On ch=1 n=f5 v=0
12648 On ch=1 n=e5 v=70
12816 On ch=1 n=a#3 v=0
12818 On ch=1 n=c#4 v=0
12856 Par ch=1 c=64 v=63
12868 Par ch=1 c=64 v=0
12888 On ch=1 n=e5 v=0
12936 On ch=1 n=c#6 v=85
13232 On ch=1 n=g4 v=66
13234 On ch=1 n=e4 v=69
13244 Par ch=1 c=64 v=63
13248 Par ch=1 c=64 v=127
13422 On ch=1 n=c#6 v=0
13514 On ch=1 n=c6 v=81
13786 On ch=1 n=g4 v=0
13790 On ch=1 n=a#5 v=88
13804 On ch=1 n=c5 v=60
13844 On ch=1 n=c6 v=0
14070 On ch=1 n=f4 v=63
14082 On ch=1 n=g#5 v=85
14084 On ch=1 n=e4 v=0
14088 Par ch=1 c=64 v=63
14102 Par ch=1 c=64 v=0
14166 On ch=1 n=a#5 v=0
14344 On ch=1 n=g4 v=61
14356 On ch=1 n=f4 v=0
14370 On ch=1 n=g5 v=75
14394 On ch=1 n=g#5 v=0
14564 On ch=1 n=g4 v=0
14636 On ch=1 n=g5 v=0
14648 On ch=1 n=f#5 v=71
14658 On ch=1 n=g#4 v=51
14898 On ch=1 n=f#5 v=0
14936 On ch=1 n=g#4 v=0
14938 On ch=1 n=g4 v=55
14944 On ch=1 n=g5 v=73
14946 On ch=1 n=d#5 v=63
14958 Par ch=1 c=64 v=63
14966 Par ch=1 c=64 v=127
14980 On ch=1 n=c5 v=0
15054 On ch=1 n=g4 v=0
15092 On ch=1 n=d#5 v=0
15168 On ch=1 n=g5 v=0
15214 On ch=1 n=d#5 v=87
15222 On ch=1 n=c5 v=73
15234 Par ch=1 c=64 v=63
15248 Par ch=1 c=64 v=0
15290 On ch=1 n=d#5 v=0
15292 On ch=1 n=c5 v=0
15490 On ch=1 n=d5 v=74
15492 On ch=1 n=b4 v=73
15502 On ch=1 n=g3 v=72
15512 On ch=1 n=f4 v=60
15548 On ch=1 n=d5 v=0
15556 On ch=1 n=g3 v=0
15574 On ch=1 n=b4 v=0
15600 On ch=1 n=f4 v=0
15806 On ch=1 n=d#4 v=61
15814 On ch=1 n=c5 v=71
15820 On ch=1 n=c4 v=54
15856 Par ch=1 c=64 v=63
15860 Par ch=1 c=64 v=127
15950 On ch=1 n=c5 v=0
15958 On ch=1 n=d#4 v=0
15962 On ch=1 n=c4 v=0
16158 Par ch=1 c=64 v=63
16170 Par ch=1 c=64 v=0
16442 On ch=1 n=f6 v=121
16496 On ch=1 n=d#6 v=109
16508 Par ch=1 c=64 v=63
16510 Par ch=1 c=64 v=127
16550 On ch=1 n=d6 v=107
16564 On ch=1 n=f6 v=0
16606 On ch=1 n=d#6 v=0
16626 On ch=1 n=c6 v=93
16658 On ch=1 n=d6 v=0
16676 On ch=1 n=d5 v=113
16678 On ch=1 n=b4 v=114
16702 On ch=1 n=g6 v=117
16748 On ch=1 n=c6 v=0
16806 On ch=1 n=g4 v=93
16820 On ch=1 n=d5 v=0
16822 On ch=1 n=b4 v=0
16858 On ch=1 n=g6 v=0
16970 Par ch=1 c=64 v=63
16972 On ch=1 n=c5 v=91
16980 On ch=1 n=g5 v=86
16982 Par ch=1 c=64 v=0
16984 On ch=1 n=g6 v=91
16984 On ch=1 n=d#5 v=100
16988 On ch=1 n=g4 v=0
17038 On ch=1 n=c5 v=0
17042 On ch=1 n=g5 v=0
17044 On ch=1 n=g6 v=0
17058 On ch=1 n=d#5 v=0
17104 On ch=1 n=g4 v=85
17234 On ch=1 n=g4 v=0
17240 On ch=1 n=g6 v=107
17244 On ch=1 n=g5 v=102
17252 On ch=1 n=f5 v=98
17256 On ch=1 n=d5 v=94
17316 On ch=1 n=g5 v=0
17330 On ch=1 n=d5 v=0
17334 On ch=1 n=g6 v=0
17336 On ch=1 n=f5 v=0
17354 On ch=1 n=g4 v=91
17518 On ch=1 n=g6 v=109
17522 On ch=1 n=g5 v=113
17526 On ch=1 n=c5 v=99
17528 On ch=1 n=g4 v=0
17532 Par ch=1 c=64 v=63
17534 On ch=1 n=d#5 v=105
17536 Par ch=1 c=64 v=127
17628 On ch=1 n=d#5 v=0
17636 On ch=1 n=g5 v=0
17640 On ch=1 n=g4 v=89
17644 On ch=1 n=c5 v=0
17700 On ch=1 n=g6 v=0
17804 On ch=1 n=g4 v=0
17816 On ch=1 n=c5 v=91
17818 On ch=1 n=d#5 v=104
17912 On ch=1 n=g4 v=86
17930 On ch=1 n=d#5 v=0
17948 On ch=1 n=c5 v=0
18078 On ch=1 n=f6 v=114
18084 On ch=1 n=d#5 v=95
18096 On ch=1 n=c5 v=77
18102 On ch=1 n=g4 v=0
18114 Par ch=1 c=64 v=63
18126 Par ch=1 c=64 v=0
18146 On ch=1 n=d#6 v=106
18158 On ch=1 n=d#5 v=0
18178 On ch=1 n=d6 v=100
18182 On ch=1 n=g4 v=68
18204 On ch=1 n=f6 v=0
18218 On ch=1 n=c5 v=0
18246 On ch=1 n=d#6 v=0
18250 On ch=1 n=c6 v=97
18304 On ch=1 n=d6 v=0
18344 On ch=1 n=g6 v=114
18348 On ch=1 n=b4 v=101
18350 On ch=1 n=d5 v=102
18356 On ch=1 n=g4 v=0
18378 On ch=1 n=c6 v=0
18456 On ch=1 n=b4 v=0
18456 On ch=1 n=g4 v=84
18464 On ch=1 n=g6 v=0
18466 On ch=1 n=d5 v=0
18616 On ch=1 n=g5 v=103
18618 On ch=1 n=g6 v=98
18620 On ch=1 n=c5 v=86
18622 On ch=1 n=d#5 v=101
18634 On ch=1 n=g4 v=0
18680 On ch=1 n=g5 v=0
18690 On ch=1 n=g6 v=0
18692 On ch=1 n=c5 v=0
18694 On ch=1 n=d#5 v=0
18752 On ch=1 n=g4 v=85
18866 On ch=1 n=g4 v=0
18888 On ch=1 n=g6 v=109
18890 On ch=1 n=f5 v=94
18892 On ch=1 n=g5 v=113
18894 On ch=1 n=d5 v=89
18954 On ch=1 n=g5 v=0
18964 On ch=1 n=d5 v=0
18968 On ch=1 n=f5 v=0
18972 On ch=1 n=g6 v=0
18992 On ch=1 n=g4 v=85
19166 On ch=1 n=g6 v=111
19168 On ch=1 n=g4 v=0
19172 On ch=1 n=g5 v=116
19172 On ch=1 n=c5 v=96
19178 On ch=1 n=d#5 v=98
19194 Par ch=1 c=64 v=63
19204 Par ch=1 c=64 v=127
19244 On ch=1 n=g5 v=0
19252 On ch=1 n=c5 v=0
19270 On ch=1 n=d#5 v=0
19272 On ch=1 n=g6 v=0
19298 On ch=1 n=g4 v=89
19464 On ch=1 n=g4 v=0
19464 On ch=1 n=c5 v=98
19466 On ch=1 n=d#5 v=105
19572 On ch=1 n=g4 v=91
19594 On ch=1 n=d#5 v=0
19614 On ch=1 n=c5 v=0
19694 Par ch=1 c=64 v=63
19708 On ch=1 n=f6 v=114
19714 Par ch=1 c=64 v=0
19728 On ch=1 n=c5 v=92
19734 On ch=1 n=d#5 v=104
19744 On ch=1 n=g4 v=0
19766 On ch=1 n=d#6 v=106
19818 On ch=1 n=d6 v=96
19822 On ch=1 n=g4 v=90
19832 On ch=1 n=d#5 v=0
19842 On ch=1 n=f6 v=0
19846 On ch=1 n=c5 v=0
19860 On ch=1 n=c6 v=93
19878 On ch=1 n=d#6 v=0
19916 On ch=1 n=g4 v=0
19942 On ch=1 n=d6 v=0
19946 On ch=1 n=c6 v=0
19994 On ch=1 n=d6 v=112
19998 On ch=1 n=b5 v=112
20014 On ch=1 n=g#6 v=114
20024 Par ch=1 c=64 v=63
20026 Par ch=1 c=64 v=127
20250 On ch=1 n=f3 v=90
20274 On ch=1 n=f4 v=114
20326 On ch=1 n=f3 v=0
20346 On ch=1 n=f4 v=0
20368 On ch=1 n=b5 v=0
20430 On ch=1 n=g#6 v=0
20446 On ch=1 n=d6 v=0
20526 On ch=1 n=f5 v=107
20542 On ch=1 n=f4 v=65
20560 On ch=1 n=f5 v=0
20566 Par ch=1 c=64 v=63
20572 Par ch=1 c=64 v=0
20588 On ch=1 n=f4 v=0
20792 On ch=1 n=c6 v=84
20814 On ch=1 n=d#6 v=118
20830 On ch=1 n=g6 v=114
20840 Par ch=1 c=64 v=63
20842 Par ch=1 c=64 v=127
20900 On ch=1 n=c6 v=0
21084 On ch=1 n=d#3 v=106
21086 On ch=1 n=d#4 v=126
21132 On ch=1 n=d#3 v=0
21144 On ch=1 n=d#4 v=0
21160 On ch=1 n=g6 v=0
21198 On ch=1 n=d#6 v=0
21358 On ch=1 n=d#4 v=107
21360 On ch=1 n=d#5 v=107
21382 On ch=1 n=d#4 v=0
21388 On ch=1 n=d#5 v=0
21410 Par ch=1 c=64 v=63
21418 Par ch=1 c=64 v=0
21642 On ch=1 n=d5 v=117
21648 On ch=1 n=d4 v=114
21674 Par ch=1 c=64 v=63
21680 Par ch=1 c=64 v=127
21744 On ch=1 n=d5 v=0
21778 On ch=1 n=d4 v=0
21904 On ch=1 n=d6 v=112
21908 On ch=1 n=f6 v=109
21910 On ch=1 n=b6 v=114
21934 Par ch=1 c=64 v=63
21942 Par ch=1 c=64 v=0
21952 On ch=1 n=f6 v=0
21960 On ch=1 n=d6 v=0
21990 On ch=1 n=b6 v=0
22172 On ch=1 n=f6 v=111
22186 On ch=1 n=b6 v=106
22210 On ch=1 n=d7 v=113
22230 On ch=1 n=f6 v=0
22244 On ch=1 n=b6 v=0
22274 On ch=1 n=d7 v=0
22486 On ch=1 n=g6 v=94
22508 On ch=1 n=d7 v=97
22508 On ch=1 n=b3 v=111
22508 On ch=1 n=b4 v=122
22510 Par ch=1 c=64 v=127
22528 On ch=1 n=f7 v=109
22564 On ch=1 n=g6 v=0
22572 On ch=1 n=b4 v=0
22574 On ch=1 n=d7 v=0
22594 On ch=1 n=f7 v=0
22594 On ch=1 n=b3 v=0
23434 Par ch=1 c=64 v=63
23452 Par ch=1 c=64 v=0
24866 On ch=1 n=d#6 v=51
25032 Par ch=1 c=64 v=63
25046 Par ch=1 c=64 v=127
25420 On ch=1 n=d#6 v=0
25954 On ch=1 n=f#5 v=53
25966 On ch=1 n=d#5 v=39
25986 On ch=1 n=c5 v=34
26040 Par ch=1 c=64 v=63
26066 Par ch=1 c=64 v=0
26084 Par ch=1 c=64 v=63
26152 Par ch=1 c=64 v=127
26420 On ch=1 n=d#5 v=0
26452 On ch=1 n=c5 v=0
26452 On ch=1 n=f#5 v=0
26868 Par ch=1 c=64 v=63
26872 On ch=1 n=b4 v=38
26882 On ch=1 n=f5 v=38
26886 On ch=1 n=d5 v=45
26890 Par ch=1 c=64 v=0
26896 On ch=1 n=g5 v=69
26972 Par ch=1 c=64 v=63
27016 Par ch=1 c=64 v=127
27112 On ch=1 n=g5 v=0
27134 On ch=1 n=b4 v=0
27186 On ch=1 n=d5 v=0
27190 On ch=1 n=f5 v=0
27338 On ch=1 n=g#5 v=70
27380 Par ch=1 c=64 v=63
27452 On ch=1 n=g5 v=76
27458 On ch=1 n=g#5 v=0
27464 Par ch=1 c=64 v=127
27470 On ch=1 n=d#5 v=66
27484 On ch=1 n=c5 v=59
27500 On ch=1 n=g5 v=0
27504 On ch=1 n=d#5 v=0
27528 On ch=1 n=c5 v=0
27666 Par ch=1 c=64 v=63
27754 On ch=1 n=g5 v=78
27768 On ch=1 n=d#5 v=78
27770 On ch=1 n=f4 v=57
27794 Par ch=1 c=64 v=0
27822 On ch=1 n=d#5 v=0
27844 On ch=1 n=f4 v=0
27872 On ch=1 n=g5 v=0
27874 On ch=1 n=d5 v=73
27882 On ch=1 n=f5 v=75
27964 On ch=1 n=d5 v=0
27986 On ch=1 n=f5 v=0
27998 On ch=1 n=d#5 v=92
28002 On ch=1 n=c5 v=73
28022 On ch=1 n=g4 v=64
28066 On ch=1 n=c5 v=0
28074 On ch=1 n=g4 v=0
28078 On ch=1 n=d#5 v=0
28270 On ch=1 n=d5 v=88
28274 On ch=1 n=b4 v=79
28298 On ch=1 n=g3 v=70
28336 On ch=1 n=b4 v=0
28350 On ch=1 n=d5 v=0
28412 On ch=1 n=g3 v=0
28588 On ch=1 n=c5 v=88
28596 On ch=1 n=c4 v=88
28622 Par ch=1 c=64 v=63
28628 Par ch=1 c=64 v=127
28648 On ch=1 n=c5 v=0
28670 On ch=1 n=c4 v=0
28934 Par ch=1 c=64 v=63
28946 Par ch=1 c=64 v=0
29196 On ch=1 n=f6 v=106
29246 On ch=1 n=d#6 v=110
29258 Par ch=1 c=64 v=63
29260 Par ch=1 c=64 v=127
29286 On ch=1 n=d6 v=101
29314 On ch=1 n=f6 v=0
29340 On ch=1 n=c6 v=99
29348 On ch=1 n=d#6 v=0
29394 On ch=1 n=d6 v=0
29436 On ch=1 n=c6 v=0
29442 On ch=1 n=d5 v=116
29444 On ch=1 n=g6 v=113
29446 On ch=1 n=b4 v=112
29554 On ch=1 n=g6 v=0
29556 On ch=1 n=g4 v=93
29568 On ch=1 n=b4 v=0
29568 On ch=1 n=d5 v=0
29712 On ch=1 n=c5 v=94
29712 On ch=1 n=g6 v=101
29714 On ch=1 n=g5 v=103
29722 On ch=1 n=d#5 v=107
29742 Par ch=1 c=64 v=63
29744 On ch=1 n=g4 v=0
29752 Par ch=1 c=64 v=0
29772 On ch=1 n=g5 v=0
29778 On ch=1 n=g6 v=0
29778 On ch=1 n=c5 v=0
29806 On ch=1 n=d#5 v=0
29844 On ch=1 n=g4 v=90
29956 On ch=1 n=g4 v=0
29986 On ch=1 n=g6 v=108
29990 On ch=1 n=g5 v=108
29990 On ch=1 n=d5 v=98
29992 On ch=1 n=f5 v=94
30050 On ch=1 n=g5 v=0
30060 On ch=1 n=d5 v=0
30066 On ch=1 n=g6 v=0
30068 On ch=1 n=f5 v=0
30104 On ch=1 n=g4 v=71
30256 On ch=1 n=g4 v=0
30256 Par ch=1 c=64 v=63
30258 On ch=1 n=g6 v=109
30258 Par ch=1 c=64 v=127
30260 On ch=1 n=g5 v=112
30266 On ch=1 n=c5 v=98
30272 On ch=1 n=d#5 v=99
30320 On ch=1 n=g5 v=0
30338 On ch=1 n=g6 v=0
30346 On ch=1 n=c5 v=0
30348 On ch=1 n=d#5 v=0
30392 On ch=1 n=g4 v=86
30546 On ch=1 n=g4 v=0
30558 On ch=1 n=c5 v=91
30562 On ch=1 n=d#5 v=104
30654 On ch=1 n=g4 v=87
30670 On ch=1 n=d#5 v=0
30692 Par ch=1 c=64 v=63
30704 On ch=1 n=c5 v=0
30708 Par ch=1 c=64 v=0
30810 On ch=1 n=c5 v=84
30812 On ch=1 n=d#5 v=97
30814 On ch=1 n=f6 v=112
30816 On ch=1 n=g4 v=0
30870 On ch=1 n=d#6 v=107
30898 On ch=1 n=d#5 v=0
30912 On ch=1 n=g4 v=87
30918 On ch=1 n=d6 v=91
30924 On ch=1 n=f6 v=0
30942 On ch=1 n=c5 v=0
30966 On ch=1 n=d#6 v=0
30978 On ch=1 n=c6 v=92
31032 On ch=1 n=d6 v=0
31060 Par ch=1 c=64 v=63
31068 On ch=1 n=c6 v=0
31068 Par ch=1 c=64 v=127
31070 On ch=1 n=g4 v=0
31076 On ch=1 n=g6 v=108
31078 On ch=1 n=b4 v=102
31080 On ch=1 n=d5 v=102
31174 On ch=1 n=b4 v=0
31178 On ch=1 n=g6 v=0
31186 On ch=1 n=g4 v=80
31200 On ch=1 n=d5 v=0
31340 Par ch=1 c=64 v=63
31344 On ch=1 n=g6 v=104
31348 On ch=1 n=c5 v=92
31350 On ch=1 n=g5 v=82
31352 Par ch=1 c=64 v=0
31354 On ch=1 n=d#5 v=105
31376 On ch=1 n=g4 v=0
31394 On ch=1 n=g5 v=0
31416 On ch=1 n=g6 v=0
31426 On ch=1 n=c5 v=0
31434 On ch=1 n=d#5 v=0
31470 On ch=1 n=g4 v=83
31604 On ch=1 n=g4 v=0
31616 On ch=1 n=g6 v=108
31618 On ch=1 n=g5 v=109
31618 On ch=1 n=d5 v=96
31620 On ch=1 n=f5 v=96
31672 On ch=1 n=g5 v=0
31690 On ch=1 n=g6 v=0
31692 On ch=1 n=d5 v=0
31694 On ch=1 n=f5 v=0
31710 On ch=1 n=g4 v=88
31890 On ch=1 n=c5 v=98
31890 On ch=1 n=g5 v=120
31892 On ch=1 n=g6 v=116
31896 On ch=1 n=d#5 v=103
31900 Par ch=1 c=64 v=63
31904 Par ch=1 c=64 v=127
31910 On ch=1 n=g4 v=0
31944 On ch=1 n=g5 v=0
31952 On ch=1 n=g6 v=0
31968 On ch=1 n=c5 v=0
31980 On ch=1 n=d#5 v=0
32012 On ch=1 n=g4 v=88
32174 On ch=1 n=d#5 v=104
32174 On ch=1 n=c5 v=93
32182 On ch=1 n=g4 v=0
32282 On ch=1 n=d#5 v=0
32292 On ch=1 n=g4 v=85
32318 Par ch=1 c=64 v=63
32326 On ch=1 n=c5 v=0
32332 Par ch=1 c=64 v=0
32410 On ch=1 n=f6 v=114
32440 On ch=1 n=c5 v=81
32450 On ch=1 n=d#5 v=95
32460 On ch=1 n=g4 v=0
32480 On ch=1 n=d#6 v=96
32530 On ch=1 n=d6 v=89
32552 On ch=1 n=f6 v=0
32558 On ch=1 n=g4 v=90
32562 On ch=1 n=d#5 v=0
32576 On ch=1 n=c6 v=83
32586 On ch=1 n=c5 v=0
32610 On ch=1 n=d#6 v=0
32646 On ch=1 n=g4 v=0
32656 On ch=1 n=c6 v=0
32662 On ch=1 n=d6 v=0
32708 On ch=1 n=b5 v=101
32716 On ch=1 n=d6 v=109
32732 Par ch=1 c=64 v=63
32734 Par ch=1 c=64 v=127
32770 On ch=1 n=g#6 v=115
33002 On ch=1 n=f3 v=97
33022 On ch=1 n=f4 v=113
33076 On ch=1 n=f3 v=0
33090 On ch=1 n=f4 v=0
33146 On ch=1 n=b5 v=0
33212 On ch=1 n=d6 v=0
33216 On ch=1 n=g#6 v=0
33276 On ch=1 n=f5 v=91
33280 On ch=1 n=f4 v=90
33322 On ch=1 n=f4 v=0
33322 On ch=1 n=f5 v=0
33338 Par ch=1 c=64 v=63
33352 Par ch=1 c=64 v=0
33536 On ch=1 n=c6 v=82
33564 Par ch=1 c=64 v=63
33568 On ch=1 n=d#6 v=118
33570 Par ch=1 c=64 v=127
33586 On ch=1 n=g6 v=114
33650 On ch=1 n=c6 v=0
33830 On ch=1 n=d#3 v=97
33834 On ch=1 n=d#4 v=126
33886 On ch=1 n=d#3 v=0
33894 On ch=1 n=d#4 v=0
33906 On ch=1 n=d#6 v=0
33916 On ch=1 n=g6 v=0
34102 On ch=1 n=d#5 v=123
34106 On ch=1 n=d#4 v=118
34162 On ch=1 n=d#5 v=0
34164 On ch=1 n=d#4 v=0
34380 Par ch=1 c=64 v=63
34390 Par ch=1 c=64 v=0
34392 On ch=1 n=d5 v=113
34402 On ch=1 n=d4 v=114
34586 Par ch=1 c=64 v=63
34606 Par ch=1 c=64 v=127
34658 On ch=1 n=d6 v=99
34670 On ch=1 n=f6 v=103
34672 On ch=1 n=b6 v=106
34700 On ch=1 n=f6 v=0
34700 On ch=1 n=d5 v=0
34722 On ch=1 n=d6 v=0
34742 On ch=1 n=d4 v=0
34754 On ch=1 n=b6 v=0
34918 On ch=1 n=f6 v=100
34936 On ch=1 n=b6 v=101
34954 On ch=1 n=d7 v=108
34984 On ch=1 n=f6 v=0
34990 On ch=1 n=b6 v=0
35000 Par ch=1 c=64 v=63
35020 On ch=1 n=d7 v=0
35020 Par ch=1 c=64 v=0
35234 Par ch=1 c=64 v=63
35244 On ch=1 n=g6 v=91
35248 Par ch=1 c=64 v=127
35270 On ch=1 n=d7 v=109
35278 On ch=1 n=b3 v=98
35282 On ch=1 n=b4 v=118
35302 On ch=1 n=f7 v=108
35336 On ch=1 n=g6 v=0
35350 On ch=1 n=d7 v=0
35384 On ch=1 n=f7 v=0
35400 On ch=1 n=b4 v=0
35438 On ch=1 n=b3 v=0
36060 Par ch=1 c=64 v=63
36138 Par ch=1 c=64 v=0
37296 On ch=1 n=d#6 v=60
37304 Par ch=1 c=64 v=63
37352 Par ch=1 c=64 v=127
37524 On ch=1 n=d#6 v=0
38436 On ch=1 n=d#5 v=44
38438 On ch=1 n=f#5 v=50
38456 On ch=1 n=c5 v=33
38566 Par ch=1 c=64 v=63
38668 Par ch=1 c=64 v=127
38930 On ch=1 n=f#5 v=0
38948 On ch=1 n=d#5 v=0
38972 On ch=1 n=c5 v=0
39352 On ch=1 n=f5 v=40
39354 On ch=1 n=g5 v=71
39366 On ch=1 n=d5 v=51
39378 On ch=1 n=b4 v=35
39380 Par ch=1 c=64 v=63
39496 Par ch=1 c=64 v=127
39628 On ch=1 n=g5 v=0
39650 On ch=1 n=b4 v=0
39664 On ch=1 n=d5 v=0
39688 On ch=1 n=f5 v=0
39784 On ch=1 n=g#5 v=83
39846 Par ch=1 c=64 v=63
39886 On ch=1 n=g5 v=78
39890 On ch=1 n=g#5 v=0
39894 On ch=1 n=d#5 v=68
39908 Par ch=1 c=64 v=127
39910 On ch=1 n=c5 v=58
39936 On ch=1 n=d#5 v=0
39960 On ch=1 n=c5 v=0
39962 On ch=1 n=g5 v=0
40184 On ch=1 n=g5 v=73
40190 On ch=1 n=d#5 v=69
40210 On ch=1 n=f4 v=44
40246 Par ch=1 c=64 v=63
40278 On ch=1 n=d#5 v=0
40296 On ch=1 n=d5 v=68
40306 On ch=1 n=f4 v=0
40318 On ch=1 n=g5 v=0
40320 On ch=1 n=f5 v=68
40330 Par ch=1 c=64 v=0
40428 On ch=1 n=f5 v=0
40440 On ch=1 n=c5 v=78
40442 On ch=1 n=d5 v=0
40442 On ch=1 n=d#5 v=88
40452 On ch=1 n=g4 v=63
40512 On ch=1 n=c5 v=0
40522 On ch=1 n=d#5 v=0
40542 On ch=1 n=g4 v=0
40708 On ch=1 n=d5 v=77
40712 On ch=1 n=b4 v=65
40716 On ch=1 n=g3 v=77
40772 On ch=1 n=d5 v=0
40818 On ch=1 n=b4 v=0
40838 On ch=1 n=g3 v=0
41026 On ch=1 n=c5 v=83
41032 Par ch=1 c=64 v=63
41050 On ch=1 n=c4 v=68
41068 Par ch=1 c=64 v=127
41174 On ch=1 n=c5 v=0
41228 On ch=1 n=c4 v=0
41428 Par ch=1 c=64 v=63
41500 Par ch=1 c=64 v=0
41984 Par ch=1 c=64 v=63
42006 On ch=1 n=a#2 v=106
42006 On ch=1 n=d5 v=113
42008 Par ch=1 c=64 v=127
42010 On ch=1 n=a#3 v=125
42016 On ch=1 n=g#4 v=105
42016 On ch=1 n=f4 v=109
42018 On ch=1 n=a#4 v=104
42062 On ch=1 n=a#2 v=0
42086 On ch=1 n=a#3 v=0
43074 On ch=1 n=f4 v=0
43090 On ch=1 n=g#4 v=0
43096 On ch=1 n=a#4 v=0
43126 On ch=1 n=d5 v=0
43858 On ch=1 n=d#4 v=58
43888 Par ch=1 c=64 v=63
43930 Par ch=1 c=64 v=0
44068 Par ch=1 c=64 v=63
44088 On ch=1 n=g4 v=44
44098 Par ch=1 c=64 v=127
44238 On ch=1 n=a#4 v=59
44280 On ch=1 n=g4 v=0
44372 On ch=1 n=g4 v=41
44386 On ch=1 n=a#4 v=0
44416 On ch=1 n=d#4 v=0
44504 On ch=1 n=g4 v=0
44512 On ch=1 n=a#4 v=57
44614 On ch=1 n=g4 v=42
44626 On ch=1 n=a#4 v=0
44772 On ch=1 n=d#4 v=70
44786 On ch=1 n=g4 v=0
44922 On ch=1 n=g4 v=37
45048 Par ch=1 c=64 v=63
45064 On ch=1 n=a#5 v=90
45086 On ch=1 n=a#4 v=57
45100 On ch=1 n=g4 v=0
45166 Par ch=1 c=64 v=127
45176 On ch=1 n=a#5 v=0
45222 On ch=1 n=a#4 v=0
45228 On ch=1 n=g4 v=55
45350 On ch=1 n=g4 v=0
45358 On ch=1 n=a#4 v=62
45366 On ch=1 n=a#5 v=93
45436 On ch=1 n=d#4 v=0
45460 On ch=1 n=g4 v=44
45490 On ch=1 n=a#4 v=0
45506 On ch=1 n=a#5 v=0
45622 On ch=1 n=a#5 v=82
45626 On ch=1 n=d#4 v=66
45662 On ch=1 n=g4 v=0
45664 Par ch=1 c=64 v=63
45666 Par ch=1 c=64 v=127
45724 On ch=1 n=a#5 v=0
45788 On ch=1 n=c6 v=75
45824 On ch=1 n=f4 v=57
45828 On ch=1 n=a#5 v=90
45864 On ch=1 n=c6 v=0
45896 On ch=1 n=a5 v=80
45902 On ch=1 n=a#5 v=0
45954 On ch=1 n=a#5 v=94
45966 On ch=1 n=g#4 v=65
45992 On ch=1 n=f4 v=0
46000 On ch=1 n=a5 v=0
46096 On ch=1 n=c6 v=99
46126 On ch=1 n=d#4 v=0
46138 On ch=1 n=f4 v=66
46144 On ch=1 n=g#4 v=0
46164 On ch=1 n=a#5 v=0
46222 On ch=1 n=a#5 v=98
46272 On ch=1 n=g#4 v=69
46298 On ch=1 n=c6 v=0
46304 On ch=1 n=f4 v=0
46328 On ch=1 n=a#5 v=0
46398 On ch=1 n=g#4 v=0
46398 On ch=1 n=f4 v=60
46514 On ch=1 n=d#4 v=76
46516 On ch=1 n=g#6 v=93
46542 On ch=1 n=f4 v=0
46650 Par ch=1 c=64 v=63
46652 On ch=1 n=f4 v=76
46700 Par ch=1 c=64 v=127
46804 On ch=1 n=g#4 v=93
46840 On ch=1 n=f4 v=0
46924 On ch=1 n=f4 v=78
46944 On ch=1 n=g#4 v=0
46964 On ch=1 n=g#6 v=0
47068 On ch=1 n=g#4 v=80
47072 On ch=1 n=d6 v=101
47082 On ch=1 n=f4 v=0
47146 On ch=1 n=d#4 v=0
47194 On ch=1 n=f4 v=71
47206 On ch=1 n=g#4 v=0
47352 On ch=1 n=d#4 v=77
47354 On ch=1 n=f6 v=96
47404 On ch=1 n=f4 v=0
47404 On ch=1 n=d6 v=0
47412 Par ch=1 c=64 v=63
47432 Par ch=1 c=64 v=0
47524 On ch=1 n=g4 v=55
47614 Par ch=1 c=64 v=63
47636 Par ch=1 c=64 v=127
47648 On ch=1 n=a#4 v=67
47686 On ch=1 n=g4 v=0
47788 On ch=1 n=g4 v=34
47800 On ch=1 n=a#4 v=0
47934 On ch=1 n=a#4 v=52
47942 On ch=1 n=g4 v=0
47950 On ch=1 n=d#6 v=83
48026 On ch=1 n=d#4 v=0
48074 On ch=1 n=a#4 v=0
48080 On ch=1 n=f6 v=0
48084 On ch=1 n=g4 v=44
48160 On ch=1 n=d#6 v=0
48230 On ch=1 n=d#4 v=76
48260 Par ch=1 c=64 v=63
48274 On ch=1 n=g4 v=0
48290 Par ch=1 c=64 v=0
48400 On ch=1 n=g4 v=44
48456 On ch=1 n=a#5 v=81
48492 On ch=1 n=a#5 v=0
48532 On ch=1 n=a#4 v=70
48554 On ch=1 n=g4 v=0
48668 On ch=1 n=a#4 v=0
48678 On ch=1 n=g4 v=54
48762 On ch=1 n=a#5 v=93
48776 On ch=1 n=a#4 v=74
48778 Par ch=1 c=64 v=63
48780 Par ch=1 c=64 v=127
48784 On ch=1 n=g4 v=0
48836 On ch=1 n=a#5 v=0
48868 On ch=1 n=g4 v=51
48894 On ch=1 n=a#4 v=0
48896 On ch=1 n=d#4 v=0
49020 On ch=1 n=d#4 v=72
49028 On ch=1 n=a5 v=80
49038 On ch=1 n=g4 v=0
49148 On ch=1 n=a#5 v=90
49154 Par ch=1 c=64 v=63
49174 On ch=1 n=a5 v=0
49180 On ch=1 n=f4 v=65
49190 Par ch=1 c=64 v=0
49262 On ch=1 n=a#5 v=0
49300 On ch=1 n=c6 v=98
49302 On ch=1 n=g#4 v=82
49346 On ch=1 n=f4 v=0
49422 On ch=1 n=c#6 v=109
49428 On ch=1 n=f4 v=71
49442 On ch=1 n=c6 v=0
49448 On ch=1 n=g#4 v=0
49560 On ch=1 n=g#4 v=77
49564 On ch=1 n=d6 v=101
49580 Par ch=1 c=64 v=63
49586 On ch=1 n=c#6 v=0
49588 Par ch=1 c=64 v=127
49594 On ch=1 n=f4 v=0
49676 On ch=1 n=d#6 v=112
49680 On ch=1 n=f4 v=54
49684 On ch=1 n=d#4 v=0
49712 On ch=1 n=g#4 v=0
49714 On ch=1 n=d6 v=0
49810 On ch=1 n=e6 v=101
49816 On ch=1 n=d#4 v=95
49832 On ch=1 n=d#6 v=0
49848 Par ch=1 c=64 v=63
49860 On ch=1 n=f4 v=0
49880 Par ch=1 c=64 v=0
49900 Par ch=1 c=64 v=63
49938 On ch=1 n=f6 v=108
49940 On ch=1 n=f4 v=76
49946 Par ch=1 c=64 v=127
49992 On ch=1 n=e6 v=0
49994 Par ch=1 c=64 v=63
50018 Par ch=1 c=64 v=0
50066 On ch=1 n=f#6 v=104
50100 On ch=1 n=g#4 v=94
50132 On ch=1 n=f6 v=0
50134 On ch=1 n=f4 v=0
50150 Par ch=1 c=64 v=63
50168 Par ch=1 c=64 v=127
50180 On ch=1 n=g6 v=97
50216 On ch=1 n=f4 v=78
50242 On ch=1 n=f#6 v=0
50244 On ch=1 n=g#4 v=0
50328 On ch=1 n=g#6 v=106
50352 On ch=1 n=g#4 v=87
50378 On ch=1 n=f4 v=0
50388 On ch=1 n=g6 v=0
50408 Par ch=1 c=64 v=63
50448 On ch=1 n=f4 v=68
50462 On ch=1 n=d6 v=90
50468 On ch=1 n=d#4 v=0
50474 On ch=1 n=g#4 v=0
50516 On ch=1 n=g#6 v=0
50566 Par ch=1 c=64 v=0
50592 On ch=1 n=d#4 v=85
50608 On ch=1 n=f4 v=0
50610 On ch=1 n=f6 v=96
50628 On ch=1 n=d6 v=0
50684 Par ch=1 c=64 v=63
50704 Par ch=1 c=64 v=127
50752 On ch=1 n=g4 v=70
50880 On ch=1 n=a#4 v=79
50924 On ch=1 n=g4 v=0
50988 Par ch=1 c=64 v=63
51032 On ch=1 n=g4 v=53
51036 On ch=1 n=a#4 v=0
51100 Par ch=1 c=64 v=127
51152 On ch=1 n=d#6 v=80
51158 On ch=1 n=a#4 v=67
51176 On ch=1 n=g4 v=0
51278 On ch=1 n=f6 v=0
51278 On ch=1 n=d#4 v=0
51308 On ch=1 n=a#4 v=0
51308 On ch=1 n=g4 v=53
51364 On ch=1 n=d#6 v=0
51396 Par ch=1 c=64 v=63
51420 Par ch=1 c=64 v=0
51438 On ch=1 n=d#4 v=82
51458 On ch=1 n=g4 v=0
51542 Par ch=1 c=64 v=63
51572 On ch=1 n=g4 v=42
51590 Par ch=1 c=64 v=127
51704 On ch=1 n=a#4 v=76
51710 On ch=1 n=d#6 v=81
51718 On ch=1 n=g4 v=0
51754 On ch=1 n=d#6 v=0
51810 On ch=1 n=g4 v=50
51818 On ch=1 n=a#4 v=0
51956 On ch=1 n=a#4 v=70
51958 On ch=1 n=g4 v=0
51984 On ch=1 n=d#6 v=107
52052 On ch=1 n=a#4 v=0
52054 On ch=1 n=g4 v=60
52070 On ch=1 n=d#4 v=0
52120 On ch=1 n=d#6 v=0
52228 On ch=1 n=c4 v=76
52248 On ch=1 n=g4 v=0
52254 On ch=1 n=d#6 v=114
52260 Par ch=1 c=64 v=63
52276 Par ch=1 c=64 v=0
52370 Par ch=1 c=64 v=63
52400 Par ch=1 c=64 v=127
52404 On ch=1 n=d#4 v=85
52544 On ch=1 n=a4 v=80
52564 On ch=1 n=d#4 v=0
52622 On ch=1 n=d#6 v=0
52674 On ch=1 n=d#4 v=90
52706 On ch=1 n=f6 v=83
52716 On ch=1 n=a4 v=0
52748 On ch=1 n=d#6 v=101
52788 On ch=1 n=f6 v=0
52804 On ch=1 n=a4 v=70
52806 On ch=1 n=d6 v=84
52814 On ch=1 n=d#4 v=0
52816 On ch=1 n=d#6 v=0
52858 On ch=1 n=d#6 v=109
52906 On ch=1 n=d6 v=0
52926 Par ch=1 c=64 v=63
52938 Par ch=1 c=64 v=0
52958 On ch=1 n=d#4 v=91
52980 On ch=1 n=f6 v=108
52992 On ch=1 n=a4 v=0
53002 On ch=1 n=c4 v=0
53012 On ch=1 n=d#6 v=0
53092 On ch=1 n=d#4 v=0
53114 On ch=1 n=f#6 v=116
53128 On ch=1 n=b3 v=103
53162 Par ch=1 c=64 v=63
53172 On ch=1 n=f6 v=0
53174 Par ch=1 c=64 v=127
53288 On ch=1 n=d#4 v=91
53404 On ch=1 n=d#4 v=0
53410 On ch=1 n=f#4 v=92
53510 On ch=1 n=d#4 v=101
53552 On ch=1 n=f#4 v=0
53582 On ch=1 n=f#6 v=0
53664 On ch=1 n=f#4 v=90
53668 On ch=1 n=a5 v=103
53676 On ch=1 n=d#4 v=0
53784 On ch=1 n=d#4 v=98
53800 On ch=1 n=b3 v=0
53828 On ch=1 n=f#4 v=0
53938 On ch=1 n=a5 v=0
53952 On ch=1 n=d4 v=98
53958 On ch=1 n=a#3 v=87
53960 Par ch=1 c=64 v=63
53960 On ch=1 n=a#5 v=119
53972 Par ch=1 c=64 v=0
53976 On ch=1 n=d#4 v=0
54056 Par ch=1 c=64 v=63
54084 Par ch=1 c=64 v=127
54244 On ch=1 n=a#5 v=0
54264 On ch=1 n=a#4 v=110
54266 Par ch=1 c=64 v=63
54276 Par ch=1 c=64 v=0
54306 On ch=1 n=d4 v=0
54332 On ch=1 n=a#3 v=0
54350 On ch=1 n=a#4 v=0
54392 On ch=1 n=a#5 v=106
54534 On ch=1 n=a#5 v=0
54538 On ch=1 n=a5 v=89
54676 On ch=1 n=a5 v=0
54678 On ch=1 n=a#5 v=92
54784 On ch=1 n=a#5 v=0
54810 On ch=1 n=b5 v=87
54944 On ch=1 n=c6 v=93
54948 On ch=1 n=b5 v=0
55078 On ch=1 n=c#6 v=99
55132 On ch=1 n=c6 v=0
55190 On ch=1 n=d6 v=90
55256 On ch=1 n=c#6 v=0
55336 On ch=1 n=d#6 v=103
55352 On ch=1 n=d#5 v=76
55360 On ch=1 n=b4 v=70
55362 On ch=1 n=d6 v=0
55434 On ch=1 n=d#5 v=0
55436 On ch=1 n=b4 v=0
55470 On ch=1 n=a5 v=72
55472 On ch=1 n=d#6 v=0
55602 On ch=1 n=a5 v=0
55608 On ch=1 n=a#5 v=100
55614 On ch=1 n=a#4 v=84
55624 On ch=1 n=d5 v=71
55640 Par ch=1 c=64 v=63
55646 Par ch=1 c=64 v=127
55664 On ch=1 n=d5 v=0
55674 On ch=1 n=a#5 v=0
55678 On ch=1 n=a#4 v=0
55882 On ch=1 n=a#3 v=74
55980 Par ch=1 c=64 v=63
55990 On ch=1 n=a#3 v=0
55994 Par ch=1 c=64 v=0
56030 On ch=1 n=a#4 v=87
56164 On ch=1 n=a4 v=71
56174 On ch=1 n=a#4 v=0
56290 On ch=1 n=a#4 v=79
56310 On ch=1 n=a4 v=0
56416 On ch=1 n=a#4 v=0
56432 On ch=1 n=b4 v=85
56562 On ch=1 n=c5 v=96
56582 On ch=1 n=b4 v=0
56694 On ch=1 n=c#5 v=99
56744 On ch=1 n=c5 v=0
56810 On ch=1 n=d5 v=99
56860 On ch=1 n=c#5 v=0
56962 On ch=1 n=d#5 v=99
56970 On ch=1 n=d#4 v=80
56978 On ch=1 n=b3 v=68
56984 On ch=1 n=d5 v=0
57046 On ch=1 n=d#4 v=0
57060 On ch=1 n=b3 v=0
57086 On ch=1 n=a4 v=73
57102 On ch=1 n=d#5 v=0
57226 On ch=1 n=a#3 v=81
57232 On ch=1 n=d4 v=69
57242 On ch=1 n=a#4 v=94
57250 Par ch=1 c=64 v=63
57256 Par ch=1 c=64 v=127
57266 On ch=1 n=a4 v=0
57270 On ch=1 n=d4 v=0
57274 On ch=1 n=a#3 v=0
57316 On ch=1 n=a#4 v=0
57538 On ch=1 n=a#2 v=63
57554 Par ch=1 c=64 v=63
57560 Par ch=1 c=64 v=0
57678 Par ch=1 c=64 v=63
57686 Par ch=1 c=64 v=127
57720 On ch=1 n=a6 v=96
57770 On ch=1 n=a#2 v=0
57844 On ch=1 n=a#6 v=116
57886 On ch=1 n=a6 v=0
57958 On ch=1 n=a6 v=111
58016 On ch=1 n=a#6 v=0
58098 On ch=1 n=a#6 v=115
58142 On ch=1 n=a6 v=0
58244 On ch=1 n=a#6 v=0
58382 Par ch=1 c=64 v=63
58386 On ch=1 n=a#4 v=84
58390 Par ch=1 c=64 v=0
58532 On ch=1 n=a5 v=94
58622 Par ch=1 c=64 v=63
58632 Par ch=1 c=64 v=127
58646 On ch=1 n=a#5 v=118
58684 On ch=1 n=a5 v=0
58704 On ch=1 n=a#4 v=0
58768 On ch=1 n=a5 v=109
58792 On ch=1 n=a#5 v=0
58884 On ch=1 n=a#5 v=119
58934 On ch=1 n=a5 v=0
58986 On ch=1 n=a#5 v=0
59192 On ch=1 n=a#3 v=94
59254 Par ch=1 c=64 v=63
59284 Par ch=1 c=64 v=0
59326 On ch=1 n=a4 v=82
59336 Par ch=1 c=64 v=63
59388 Par ch=1 c=64 v=127
59448 On ch=1 n=a#4 v=107
59492 On ch=1 n=a#3 v=0
59502 On ch=1 n=a4 v=0
59574 On ch=1 n=a4 v=103
59628 On ch=1 n=a#4 v=0
59698 On ch=1 n=a#4 v=112
59744 On ch=1 n=a4 v=0
59796 On ch=1 n=a#4 v=0
59996 On ch=1 n=a#2 v=116
60076 Par ch=1 c=64 v=63
60096 Par ch=1 c=64 v=0
60140 On ch=1 n=a3 v=98
60258 On ch=1 n=a#3 v=115
60292 On ch=1 n=a3 v=0
60370 On ch=1 n=a#2 v=0
60370 Par ch=1 c=64 v=63
60384 On ch=1 n=a3 v=112
60390 Par ch=1 c=64 v=127
60444 On ch=1 n=a#3 v=0
60542 On ch=1 n=a#3 v=116
60584 On ch=1 n=a3 v=0
60658 On ch=1 n=b3 v=104
60706 On ch=1 n=a#3 v=0
60750 On ch=1 n=b3 v=0
60800 On ch=1 n=c4 v=96
60836 Par ch=1 c=64 v=63
60880 Par ch=1 c=64 v=0
60890 On ch=1 n=c4 v=0
60936 On ch=1 n=a#3 v=109
61024 On ch=1 n=a#3 v=0
61072 On ch=1 n=g#3 v=116
61166 On ch=1 n=g#3 v=0
61188 On ch=1 n=g3 v=114
61276 On ch=1 n=g3 v=0
61314 On ch=1 n=f3 v=116
61396 On ch=1 n=f3 v=0
61454 On ch=1 n=d#3 v=114
61546 On ch=1 n=d#3 v=0
61584 On ch=1 n=d3 v=107
61680 On ch=1 n=d3 v=0
61720 On ch=1 n=c3 v=111
61852 On ch=1 n=a#2 v=116
61866 On ch=1 n=c3 v=0
61980 On ch=1 n=g#2 v=113
62034 On ch=1 n=a#2 v=0
62102 On ch=1 n=g#2 v=0
62166 On ch=1 n=g2 v=125
62484 Par ch=1 c=64 v=63
62486 Par ch=1 c=64 v=127
63010 On ch=1 n=g3 v=122
63012 On ch=1 n=d#7 v=115
63016 On ch=1 n=d#6 v=121
63080 On ch=1 n=g2 v=0
63108 Par ch=1 c=64 v=63
63116 Par ch=1 c=64 v=0
63298 Par ch=1 c=64 v=63
63310 Par ch=1 c=64 v=127
63546 On ch=1 n=d#6 v=0
63614 On ch=1 n=d#7 v=0
63886 On ch=1 n=g#3 v=113
63932 On ch=1 n=g3 v=0
64064 Par ch=1 c=64 v=63
64082 Par ch=1 c=64 v=0
64108 Par ch=1 c=64 v=63
64150 On ch=1 n=b6 v=104
64152 Par ch=1 c=64 v=127
64154 On ch=1 n=b5 v=101
64248 On ch=1 n=g#3 v=0
64326 On ch=1 n=b5 v=0
64338 On ch=1 n=b6 v=0
64418 On ch=1 n=c7 v=93
64432 On ch=1 n=c6 v=66
64508 On ch=1 n=c7 v=0
64624 On ch=1 n=c6 v=0
64704 On ch=1 n=e6 v=90
64714 On ch=1 n=e5 v=78
64720 On ch=1 n=c5 v=72
64726 On ch=1 n=g#4 v=72
64770 Par ch=1 c=64 v=63
64794 Par ch=1 c=64 v=127
64908 On ch=1 n=e5 v=0
64968 On ch=1 n=f6 v=103
64980 On ch=1 n=f5 v=104
64994 On ch=1 n=e6 v=0
65054 On ch=1 n=f6 v=0
65130 On ch=1 n=f5 v=0
65152 On ch=1 n=c5 v=0
65212 On ch=1 n=g#4 v=0
65236 On ch=1 n=g#6 v=107
65244 On ch=1 n=g#5 v=99
65306 On ch=1 n=g#5 v=0
65330 On ch=1 n=g#6 v=0
65558 On ch=1 n=d#6 v=104
65562 Par ch=1 c=64 v=63
65576 Par ch=1 c=64 v=0
66102 On ch=1 n=f#5 v=80
66120 On ch=1 n=a4 v=51
66152 Par ch=1 c=64 v=63
66160 Par ch=1 c=64 v=127
66274 On ch=1 n=f#5 v=0
66418 On ch=1 n=a4 v=0
66440 On ch=1 n=g5 v=56
66450 On ch=1 n=a#4 v=63
66532 Par ch=1 c=64 v=63
66564 Par ch=1 c=64 v=127
66750 On ch=1 n=g5 v=0
66914 On ch=1 n=d#6 v=0
66946 Par ch=1 c=64 v=63
66958 On ch=1 n=g#5 v=78
66962 On ch=1 n=g6 v=79
66972 On ch=1 n=d6 v=73
67002 Par ch=1 c=64 v=127
67024 On ch=1 n=g#5 v=0
67042 On ch=1 n=a#4 v=0
67114 On ch=1 n=f6 v=84
67142 On ch=1 n=g6 v=0
67150 On ch=1 n=d6 v=0
67236 Par ch=1 c=64 v=63
67270 On ch=1 n=d#6 v=98
67278 On ch=1 n=d#4 v=82
67304 Par ch=1 c=64 v=63
67308 Par ch=1 c=64 v=127
67326 On ch=1 n=f6 v=0
67340 On ch=1 n=d#6 v=0
67356 On ch=1 n=d#4 v=0
67420 On ch=1 n=a#4 v=44
67560 On ch=1 n=a#4 v=0
67578 On ch=1 n=g4 v=52
67642 Par ch=1 c=64 v=63
67648 Par ch=1 c=64 v=0
67688 On ch=1 n=d#6 v=93
67706 On ch=1 n=g4 v=0
67712 On ch=1 n=a#4 v=76
67782 On ch=1 n=d#6 v=0
67824 On ch=1 n=d6 v=86
67826 On ch=1 n=a#4 v=0
67846 On ch=1 n=d#4 v=95
67924 On ch=1 n=d6 v=0
67930 On ch=1 n=d#4 v=0
67956 On ch=1 n=d#6 v=88
67968 On ch=1 n=a#4 v=75
68016 On ch=1 n=d#6 v=0
68058 On ch=1 n=a#4 v=0
68088 On ch=1 n=d4 v=94
68092 On ch=1 n=e6 v=96
68126 Par ch=1 c=64 v=63
68130 Par ch=1 c=64 v=127
68182 On ch=1 n=e6 v=0
68184 On ch=1 n=d4 v=0
68192 On ch=1 n=a#4 v=68
68222 On ch=1 n=f6 v=94
68298 On ch=1 n=f6 v=0
68312 On ch=1 n=a#4 v=0
68348 On ch=1 n=g#4 v=74
68356 Par ch=1 c=64 v=63
68364 Par ch=1 c=64 v=0
68462 On ch=1 n=f6 v=107
68474 On ch=1 n=a#4 v=82
68478 On ch=1 n=g#4 v=0
68594 On ch=1 n=a#4 v=0
68598 On ch=1 n=e6 v=98
68604 On ch=1 n=d4 v=97
68620 On ch=1 n=f6 v=0
68696 Par ch=1 c=64 v=63
68700 Par ch=1 c=64 v=127
68702 On ch=1 n=e6 v=0
68712 On ch=1 n=d4 v=0
68718 On ch=1 n=a#4 v=88
68720 On ch=1 n=f6 v=109
68812 On ch=1 n=f6 v=0
68838 On ch=1 n=a#4 v=0
68854 On ch=1 n=f#6 v=114
68866 On ch=1 n=c#4 v=110
68912 Par ch=1 c=64 v=63
68926 Par ch=1 c=64 v=0
68930 On ch=1 n=f#6 v=0
68972 On ch=1 n=c#4 v=0
68976 On ch=1 n=a#4 v=93
68978 On ch=1 n=g6 v=102
69062 On ch=1 n=g6 v=0
69102 On ch=1 n=a#4 v=0
69140 On ch=1 n=d#4 v=108
69244 On ch=1 n=d#4 v=0
69254 On ch=1 n=a#4 v=98
69264 On ch=1 n=g6 v=108
69378 On ch=1 n=a#4 v=0
69398 On ch=1 n=c#4 v=113
69400 On ch=1 n=f#6 v=108
69408 On ch=1 n=g6 v=0
69486 On ch=1 n=f#6 v=0
69490 On ch=1 n=c#4 v=0
69508 On ch=1 n=a#4 v=98
69516 On ch=1 n=g6 v=99
69594 On ch=1 n=g6 v=0
69598 On ch=1 n=a#4 v=0
69656 On ch=1 n=g6 v=107
69656 On ch=1 n=c4 v=114
69666 Par ch=1 c=64 v=63
69676 Par ch=1 c=64 v=127
69766 On ch=1 n=c4 v=0
69776 On ch=1 n=g#4 v=92
69784 On ch=1 n=g#6 v=118
69816 On ch=1 n=g6 v=0
69860 On ch=1 n=g#6 v=0
69900 On ch=1 n=g#4 v=0
69922 On ch=1 n=d#4 v=110
69948 Par ch=1 c=64 v=63
69964 Par ch=1 c=64 v=0
70046 On ch=1 n=g#6 v=119
70060 On ch=1 n=g#4 v=103
70066 On ch=1 n=d#4 v=0
70176 On ch=1 n=g6 v=102
70178 On ch=1 n=c4 v=93
70186 On ch=1 n=c#4 v=38
70190 On ch=1 n=g#4 v=0
70224 On ch=1 n=g#6 v=0
70230 On ch=1 n=c#4 v=0
70298 On ch=1 n=g#4 v=90
70322 On ch=1 n=c4 v=0
70322 On ch=1 n=g#6 v=110
70346 On ch=1 n=g#4 v=0
70348 On ch=1 n=g6 v=0
70422 On ch=1 n=g3 v=122
70440 Par ch=1 c=64 v=63
70442 Par ch=1 c=64 v=127
70450 On ch=1 n=a#6 v=113
70468 On ch=1 n=g3 v=0
70500 On ch=1 n=g#6 v=0
70568 On ch=1 n=a#6 v=0
70570 On ch=1 n=g6 v=92
70664 On ch=1 n=g6 v=0
70724 On ch=1 n=d#7 v=98
70804 On ch=1 n=d#7 v=0
70846 On ch=1 n=d#7 v=107
70920 On ch=1 n=d#7 v=0
70972 On ch=1 n=d#7 v=104
71054 On ch=1 n=d#7 v=0
71100 On ch=1 n=d#7 v=105
71170 On ch=1 n=d#7 v=0
71228 On ch=1 n=f5 v=106
71228 On ch=1 n=g#4 v=104
71298 Par ch=1 c=64 v=63
71314 Par ch=1 c=64 v=0
71374 On ch=1 n=f6 v=102
71464 On ch=1 n=f6 v=0
71520 On ch=1 n=c7 v=98
71530 Par ch=1 c=64 v=63
71552 Par ch=1 c=64 v=127
71586 On ch=1 n=c7 v=0
71646 On ch=1 n=c7 v=98
71704 On ch=1 n=c7 v=0
71738 On ch=1 n=g#4 v=0
71768 On ch=1 n=c7 v=88
71774 On ch=1 n=f5 v=0
71818 On ch=1 n=c7 v=0
71904 On ch=1 n=c7 v=98
71970 On ch=1 n=c7 v=0
72032 On ch=1 n=g5 v=86
72038 Par ch=1 c=64 v=63
72040 On ch=1 n=a#4 v=82
72062 Par ch=1 c=64 v=0
72172 Par ch=1 c=64 v=63
72184 On ch=1 n=d#6 v=92
72216 Par ch=1 c=64 v=127
72258 On ch=1 n=d#6 v=0
72308 On ch=1 n=a#6 v=92
72384 On ch=1 n=a#6 v=0
72432 On ch=1 n=a#6 v=90
72498 On ch=1 n=a#6 v=0
72550 On ch=1 n=a#6 v=96
72560 On ch=1 n=a#4 v=0
72562 On ch=1 n=g5 v=0
72620 On ch=1 n=a#6 v=0
72692 On ch=1 n=a#6 v=89
72744 On ch=1 n=a#6 v=0
72802 On ch=1 n=a#4 v=76
72812 On ch=1 n=f5 v=72
72818 Par ch=1 c=64 v=63
72854 Par ch=1 c=64 v=0
72874 Par ch=1 c=64 v=63
72946 Par ch=1 c=64 v=127
72958 On ch=1 n=g#5 v=85
73054 On ch=1 n=g#5 v=0
73100 On ch=1 n=d6 v=72
73168 On ch=1 n=d6 v=0
73230 On ch=1 n=d6 v=83
73292 On ch=1 n=d6 v=0
73330 On ch=1 n=f5 v=0
73344 On ch=1 n=d6 v=93
73414 On ch=1 n=d6 v=0
73436 On ch=1 n=a#4 v=0
73492 On ch=1 n=d6 v=99
73570 On ch=1 n=d6 v=0
73648 On ch=1 n=d#4 v=74
73662 On ch=1 n=d#6 v=109
73670 On ch=1 n=a#5 v=105
73674 On ch=1 n=g5 v=80
73718 Par ch=1 c=64 v=63
73734 Par ch=1 c=64 v=0
73794 Par ch=1 c=64 v=63
73840 Par ch=1 c=64 v=127
73844 On ch=1 n=a#4 v=76
73882 On ch=1 n=d#6 v=0
73886 On ch=1 n=g5 v=0
73902 On ch=1 n=a#5 v=0
73942 On ch=1 n=d#4 v=0
73996 On ch=1 n=g4 v=69
73998 On ch=1 n=a#4 v=0
74108 On ch=1 n=a#4 v=70
74114 On ch=1 n=d#5 v=92
74116 On ch=1 n=g4 v=0
74168 On ch=1 n=d5 v=41
74204 On ch=1 n=d#5 v=0
74222 On ch=1 n=d5 v=0
74254 On ch=1 n=a#4 v=0
74254 On ch=1 n=d#4 v=89
74268 On ch=1 n=d5 v=65
74268 On ch=1 n=c5 v=49
74350 On ch=1 n=c5 v=0
74360 On ch=1 n=d5 v=0
74362 On ch=1 n=d#5 v=101
74378 On ch=1 n=a#4 v=77
74384 On ch=1 n=d#4 v=0
74458 Par ch=1 c=64 v=63
74470 Par ch=1 c=64 v=0
74490 On ch=1 n=d#5 v=0
74498 On ch=1 n=e5 v=92
74504 On ch=1 n=d4 v=86
74510 On ch=1 n=a#4 v=0
74622 On ch=1 n=a#4 v=80
74630 On ch=1 n=f5 v=103
74640 On ch=1 n=d4 v=0
74640 On ch=1 n=e5 v=0
74738 On ch=1 n=f5 v=0
74738 On ch=1 n=g#4 v=91
74750 On ch=1 n=a#4 v=0
74870 On ch=1 n=a#4 v=88
74878 On ch=1 n=f5 v=106
74880 On ch=1 n=g#4 v=0
75004 On ch=1 n=d4 v=86
75006 On ch=1 n=e5 v=99
75012 On ch=1 n=a#4 v=0
75024 On ch=1 n=f5 v=0
75122 On ch=1 n=a#4 v=85
75124 On ch=1 n=f5 v=103
75130 On ch=1 n=d4 v=0
75146 On ch=1 n=e5 v=0
75250 On ch=1 n=f#5 v=114
75266 On ch=1 n=c#4 v=106
75278 On ch=1 n=a#4 v=0
75296 On ch=1 n=f5 v=0
75350 Par ch=1 c=64 v=63
75358 Par ch=1 c=64 v=127
75388 On ch=1 n=a#4 v=92
75388 On ch=1 n=g5 v=94
75406 On ch=1 n=c#4 v=0
75412 On ch=1 n=f#5 v=0
75476 On ch=1 n=g5 v=0
75526 On ch=1 n=d#4 v=108
75544 On ch=1 n=a#4 v=0
75610 Par ch=1 c=64 v=63
75618 Par ch=1 c=64 v=0
75650 On ch=1 n=a#4 v=101
75654 On ch=1 n=d#4 v=0
75660 On ch=1 n=g5 v=107
75774 On ch=1 n=f#5 v=110
75790 On ch=1 n=a#4 v=0
75796 On ch=1 n=c#4 v=113
75806 On ch=1 n=g5 v=0
75880 On ch=1 n=f#5 v=0
75896 On ch=1 n=g5 v=102
75900 On ch=1 n=c#4 v=0
75908 On ch=1 n=a#4 v=93
75970 On ch=1 n=g5 v=0
76004 On ch=1 n=a#4 v=0
76038 On ch=1 n=c4 v=108
76054 On ch=1 n=g5 v=112
76056 Par ch=1 c=64 v=63
76060 Par ch=1 c=64 v=127
76152 On ch=1 n=g#4 v=90
76162 On ch=1 n=c4 v=0
76174 On ch=1 n=g#5 v=109
76208 On ch=1 n=g5 v=0
76260 On ch=1 n=g#5 v=0
76286 On ch=1 n=g#4 v=0
76296 On ch=1 n=d#4 v=95
76348 Par ch=1 c=64 v=63
76358 Par ch=1 c=64 v=0
76438 On ch=1 n=d#4 v=0
76448 On ch=1 n=g#4 v=75
76458 On ch=1 n=g#5 v=105
76558 On ch=1 n=c4 v=79
76560 On ch=1 n=g#4 v=0
76574 On ch=1 n=g#5 v=0
76576 On ch=1 n=g5 v=94
76672 On ch=1 n=g#4 v=78
76690 On ch=1 n=c4 v=0
76720 On ch=1 n=g#5 v=109
76736 On ch=1 n=g#4 v=0
76738 On ch=1 n=g5 v=0
76778 Par ch=1 c=64 v=63
76786 Par ch=1 c=64 v=127
76818 On ch=1 n=g3 v=102
76846 On ch=1 n=a#5 v=110
76858 On ch=1 n=g3 v=0
76876 On ch=1 n=g#5 v=0
76966 On ch=1 n=a#5 v=0
76990 On ch=1 n=g5 v=98
77068 On ch=1 n=g5 v=0
77124 Par ch=1 c=64 v=63
77132 On ch=1 n=d#6 v=97
77134 Par ch=1 c=64 v=0
77212 On ch=1 n=d#6 v=0
77254 On ch=1 n=d#6 v=109
77306 On ch=1 n=d#6 v=0
77384 On ch=1 n=d#6 v=103
77452 On ch=1 n=d#6 v=0
77512 On ch=1 n=d#6 v=91
77572 On ch=1 n=d#6 v=0
77634 On ch=1 n=f4 v=86
77638 On ch=1 n=g#3 v=88
77784 On ch=1 n=f5 v=91
77876 On ch=1 n=f5 v=0
77922 On ch=1 n=c6 v=96
77992 On ch=1 n=c6 v=0
78022 On ch=1 n=g#3 v=0
78034 On ch=1 n=f4 v=0
78038 On ch=1 n=c6 v=106
78106 On ch=1 n=c6 v=0
78164 On ch=1 n=c6 v=98
78232 On ch=1 n=c6 v=0
78290 On ch=1 n=c6 v=77
78350 On ch=1 n=c6 v=0
78400 On ch=1 n=g4 v=67
78408 On ch=1 n=a#3 v=74
78554 On ch=1 n=d#5 v=87
78626 On ch=1 n=d#5 v=0
78680 On ch=1 n=a#5 v=82
78752 On ch=1 n=a#5 v=0
78800 On ch=1 n=a#5 v=91
78848 On ch=1 n=g4 v=0
78856 On ch=1 n=a#3 v=0
78868 On ch=1 n=a#5 v=0
78922 On ch=1 n=a#5 v=99
78998 On ch=1 n=a#5 v=0
79056 On ch=1 n=a#5 v=94
79118 On ch=1 n=a#5 v=0
79186 On ch=1 n=f4 v=80
79190 On ch=1 n=a#3 v=80
79326 On ch=1 n=g#4 v=94
79414 On ch=1 n=g#4 v=0
79478 On ch=1 n=d5 v=91
79552 On ch=1 n=d5 v=0
79604 On ch=1 n=d5 v=99
79666 On ch=1 n=d5 v=0
79710 On ch=1 n=a#3 v=0
79730 On ch=1 n=d5 v=86
79738 On ch=1 n=f4 v=0
79782 On ch=1 n=d5 v=0
79784 Par ch=1 c=64 v=63
79846 Par ch=1 c=64 v=127
79856 On ch=1 n=d5 v=93
79934 On ch=1 n=d5 v=0
80002 On ch=1 n=d#4 v=67
80026 On ch=1 n=d#5 v=70
80182 On ch=1 n=a#4 v=65
80194 Par ch=1 c=64 v=63
80230 Par ch=1 c=64 v=0
80280 Par ch=1 c=64 v=63
80330 On ch=1 n=g4 v=56
80336 Par ch=1 c=64 v=127
80340 On ch=1 n=a#4 v=0
80430 On ch=1 n=d#5 v=0
80454 On ch=1 n=a#4 v=82
80474 On ch=1 n=g4 v=0
80562 On ch=1 n=d#4 v=0
80588 On ch=1 n=g4 v=73
80614 On ch=1 n=a#4 v=0
80684 On ch=1 n=a#4 v=77
80750 On ch=1 n=g4 v=0
80838 On ch=1 n=g#4 v=87
80844 On ch=1 n=a#3 v=96
80876 Par ch=1 c=64 v=63
80892 On ch=1 n=a#4 v=0
80912 Par ch=1 c=64 v=0
80958 Par ch=1 c=64 v=63
80972 On ch=1 n=a#4 v=76
81018 On ch=1 n=g#4 v=0
81020 Par ch=1 c=64 v=127
81130 On ch=1 n=g#4 v=89
81136 On ch=1 n=c4 v=114
81166 On ch=1 n=a#4 v=0
81244 On ch=1 n=a#4 v=63
81248 On ch=1 n=a#3 v=0
81284 On ch=1 n=g#4 v=0
81390 On ch=1 n=g#4 v=96
81394 On ch=1 n=d4 v=104
81430 On ch=1 n=a#4 v=0
81450 On ch=1 n=c4 v=0
81514 On ch=1 n=a#4 v=78
81562 On ch=1 n=g#4 v=0
81668 On ch=1 n=d#4 v=99
81680 On ch=1 n=g4 v=76
81708 On ch=1 n=d4 v=0
81708 Par ch=1 c=64 v=63
81712 On ch=1 n=a#4 v=0
81724 Par ch=1 c=64 v=0
81818 On ch=1 n=a#4 v=76
81852 On ch=1 n=g4 v=0
81964 On ch=1 n=g4 v=74
81992 On ch=1 n=a#4 v=0
82006 Par ch=1 c=64 v=63
82014 Par ch=1 c=64 v=127
82044 On ch=1 n=d#4 v=0
82088 On ch=1 n=a#4 v=76
82110 On ch=1 n=g4 v=0
82210 On ch=1 n=g4 v=81
82248 On ch=1 n=a#4 v=0
82316 On ch=1 n=a#4 v=79
82376 On ch=1 n=g4 v=0
82482 On ch=1 n=a#5 v=99
82488 On ch=1 n=g#4 v=95
82546 On ch=1 n=a#4 v=0
82546 Par ch=1 c=64 v=63
82578 Par ch=1 c=64 v=0
82614 On ch=1 n=a#4 v=78
82666 On ch=1 n=g#4 v=0
82670 Par ch=1 c=64 v=63
82722 Par ch=1 c=64 v=127
82758 On ch=1 n=c6 v=108
82760 On ch=1 n=g#4 v=105
82822 On ch=1 n=a#4 v=0
82824 On ch=1 n=a#5 v=0
82876 On ch=1 n=a#4 v=88
82932 On ch=1 n=g#4 v=0
83018 On ch=1 n=g#4 v=103
83028 On ch=1 n=d6 v=103
83050 On ch=1 n=c6 v=0
83086 On ch=1 n=a#4 v=0
83144 On ch=1 n=a#4 v=86
83208 On ch=1 n=g#4 v=0
83284 On ch=1 n=d#6 v=116
83298 Par ch=1 c=64 v=63
83298 On ch=1 n=g4 v=92
83308 Par ch=1 c=64 v=0
83330 On ch=1 n=d6 v=0
83346 On ch=1 n=a#4 v=0
83416 On ch=1 n=a#4 v=85
83434 Par ch=1 c=64 v=63
83458 On ch=1 n=g4 v=0
83462 Par ch=1 c=64 v=127
83562 On ch=1 n=d#6 v=0
83578 On ch=1 n=g4 v=87
83610 On ch=1 n=a#4 v=0
83704 On ch=1 n=a#4 v=87
83728 On ch=1 n=g4 v=0
83768 Par ch=1 c=64 v=63
83792 Par ch=1 c=64 v=0
83830 On ch=1 n=g4 v=78
83856 On ch=1 n=a#4 v=0
83936 On ch=1 n=a#4 v=70
83972 On ch=1 n=g4 v=0
84086 On ch=1 n=g#4 v=106
84086 On ch=1 n=a#6 v=120
84098 Par ch=1 c=64 v=63
84102 Par ch=1 c=64 v=127
84132 On ch=1 n=a#4 v=0
84206 On ch=1 n=a#4 v=91
84256 On ch=1 n=g#4 v=0
84344 On ch=1 n=g#4 v=114
84360 On ch=1 n=c7 v=114
84408 On ch=1 n=a#4 v=0
84426 On ch=1 n=a#6 v=0
84462 On ch=1 n=a#4 v=94
84518 On ch=1 n=g#4 v=0
84604 On ch=1 n=g#4 v=107
84622 On ch=1 n=c7 v=0
84626 On ch=1 n=d7 v=102
84658 On ch=1 n=a#4 v=0
84722 On ch=1 n=a#4 v=90
84770 Par ch=1 c=64 v=63
84776 Par ch=1 c=64 v=0
84784 On ch=1 n=g#4 v=0
84864 On ch=1 n=d#7 v=126
84878 On ch=1 n=g4 v=107
84890 Par ch=1 c=64 v=63
84896 Par ch=1 c=64 v=127
84906 On ch=1 n=a#4 v=0
84906 On ch=1 n=d7 v=0
84992 On ch=1 n=d#7 v=0
85286 On ch=1 n=a#4 v=100
85294 On ch=1 n=g4 v=0
85416 On ch=1 n=d#5 v=103
85452 On ch=1 n=a#4 v=0
85516 On ch=1 n=a#4 v=82
85570 On ch=1 n=d#5 v=0
85616 On ch=1 n=a#4 v=0
85664 On ch=1 n=g5 v=99
85732 On ch=1 n=g5 v=0
85794 On ch=1 n=d#5 v=101
85898 On ch=1 n=d#5 v=0
85936 On ch=1 n=a#5 v=103
86024 On ch=1 n=a#5 v=0
86058 On ch=1 n=g5 v=100
86172 On ch=1 n=g5 v=0
86200 On ch=1 n=d#6 v=108
86260 On ch=1 n=d#6 v=0
86324 On ch=1 n=g5 v=98
86398 On ch=1 n=g5 v=0
86490 On ch=1 n=a3 v=118
86492 On ch=1 n=f3 v=121
86492 On ch=1 n=d#3 v=119
86500 On ch=1 n=f5 v=120
86510 Par ch=1 c=64 v=63
86520 Par ch=1 c=64 v=0
86632 On ch=1 n=c5 v=88
86648 On ch=1 n=f5 v=0
86722 On ch=1 n=c5 v=0
86776 On ch=1 n=a5 v=84
86840 Par ch=1 c=64 v=63
86844 Par ch=1 c=64 v=127
86854 On ch=1 n=a5 v=0
86922 On ch=1 n=f5 v=75
86926 On ch=1 n=d#3 v=0
86926 On ch=1 n=f3 v=0
86946 On ch=1 n=a3 v=0
87006 On ch=1 n=f5 v=0
87050 On ch=1 n=c6 v=79
87126 On ch=1 n=c6 v=0
87168 On ch=1 n=a5 v=87
87252 On ch=1 n=a5 v=0
87292 On ch=1 n=a4 v=118
87296 On ch=1 n=f4 v=117
87298 On ch=1 n=d#4 v=115
87302 On ch=1 n=f6 v=111
87410 On ch=1 n=f6 v=0
87458 On ch=1 n=c6 v=99
87518 On ch=1 n=c6 v=0
87576 On ch=1 n=a6 v=96
87684 On ch=1 n=f6 v=112
87752 On ch=1 n=a6 v=0
87818 On ch=1 n=a4 v=0
87828 On ch=1 n=f4 v=0
87828 On ch=1 n=c7 v=116
87830 On ch=1 n=d#4 v=0
87872 On ch=1 n=f6 v=0
87934 On ch=1 n=a6 v=106
87964 On ch=1 n=c7 v=0
88010 On ch=1 n=a6 v=0
88094 On ch=1 n=f4 v=106
88098 On ch=1 n=g#4 v=121
88102 On ch=1 n=d4 v=102
88108 Par ch=1 c=64 v=63
88120 Par ch=1 c=64 v=0
88122 On ch=1 n=g#5 v=124
88206 On ch=1 n=g#5 v=0
88256 On ch=1 n=f5 v=97
88276 Par ch=1 c=64 v=63
88290 Par ch=1 c=64 v=127
88352 On ch=1 n=f5 v=0
88378 On ch=1 n=b5 v=109
88474 On ch=1 n=f4 v=0
88500 On ch=1 n=g#4 v=0
88514 On ch=1 n=d4 v=0
88518 On ch=1 n=g#5 v=109
88584 On ch=1 n=b5 v=0
88596 On ch=1 n=g#5 v=0
88656 On ch=1 n=d6 v=100
88762 On ch=1 n=b5 v=107
88838 On ch=1 n=d6 v=0
88858 On ch=1 n=b5 v=0
88914 On ch=1 n=g#4 v=123
88916 Par ch=1 c=64 v=63
88918 On ch=1 n=d4 v=102
88920 On ch=1 n=c4 v=111
88924 On ch=1 n=f6 v=118
88930 Par ch=1 c=64 v=0
88978 Par ch=1 c=64 v=63
89000 Par ch=1 c=64 v=127
89060 On ch=1 n=f6 v=0
89062 On ch=1 n=d6 v=102
89140 On ch=1 n=d6 v=0
89188 On ch=1 n=d4 v=0
89190 On ch=1 n=g#4 v=0
89204 On ch=1 n=g#6 v=119
89220 On ch=1 n=c4 v=0
89298 On ch=1 n=g#6 v=0
89342 On ch=1 n=f6 v=106
89418 On ch=1 n=f6 v=0
89494 On ch=1 n=d7 v=109
89622 On ch=1 n=g#6 v=123
89666 On ch=1 n=d7 v=0
89718 On ch=1 n=g#6 v=0
89816 On ch=1 n=b3 v=121
89818 On ch=1 n=g4 v=122
89820 On ch=1 n=d4 v=121
89838 On ch=1 n=f7 v=127
89858 Par ch=1 c=64 v=63
89900 Par ch=1 c=64 v=127
89932 On ch=1 n=f7 v=0
90042 On ch=1 n=g4 v=0
90042 On ch=1 n=b3 v=0
90080 On ch=1 n=d4 v=0
90556 Par ch=1 c=64 v=63
90576 Par ch=1 c=64 v=0
92124 Par ch=1 c=64 v=63
92142 On ch=1 n=g6 v=65
92220 Par ch=1 c=64 v=127
92624 On ch=1 n=d#5 v=48
92662 On ch=1 n=c5 v=28
92982 On ch=1 n=d#6 v=63
93106 On ch=1 n=g6 v=0
93292 On ch=1 n=c6 v=65
93346 On ch=1 n=d#6 v=0
93526 On ch=1 n=d#5 v=0
93556 On ch=1 n=f5 v=61
93564 On ch=1 n=c5 v=0
93578 On ch=1 n=d5 v=47
93676 Par ch=1 c=64 v=63
93706 Par ch=1 c=64 v=0
93804 Par ch=1 c=64 v=63
93814 On ch=1 n=b5 v=82
93824 On ch=1 n=c6 v=0
93864 Par ch=1 c=64 v=127
94082 On ch=1 n=g#6 v=92
94096 On ch=1 n=b5 v=0
94108 On ch=1 n=d5 v=0
94348 On ch=1 n=d5 v=80
94366 On ch=1 n=b4 v=75
94424 On ch=1 n=f5 v=0
94440 Par ch=1 c=64 v=63
94466 Par ch=1 c=64 v=0
94606 On ch=1 n=g#6 v=0
94622 On ch=1 n=g6 v=77
94636 Par ch=1 c=64 v=63
94666 Par ch=1 c=64 v=127
94894 On ch=1 n=f6 v=92
94966 On ch=1 n=g6 v=0
95086 On ch=1 n=d5 v=0
95184 On ch=1 n=g5 v=56
95186 On ch=1 n=b4 v=0
95190 On ch=1 n=f6 v=0
95214 On ch=1 n=c5 v=48
95444 On ch=1 n=d#6 v=74
95524 Par ch=1 c=64 v=63
95672 Par ch=1 c=64 v=127
95728 On ch=1 n=d#6 v=0
95730 On ch=1 n=g6 v=74
95742 On ch=1 n=c5 v=0
95762 On ch=1 n=g5 v=0
96006 On ch=1 n=d#5 v=80
96026 On ch=1 n=g5 v=54
96060 Par ch=1 c=64 v=63
96254 Par ch=1 c=64 v=127
96296 On ch=1 n=c7 v=83
96358 On ch=1 n=g6 v=0
96428 On ch=1 n=d#5 v=0
96532 On ch=1 n=a#6 v=93
96562 On ch=1 n=e5 v=71
96580 On ch=1 n=c7 v=0
96618 Par ch=1 c=64 v=63
96630 Par ch=1 c=64 v=127
96714 On ch=1 n=e5 v=0
96812 On ch=1 n=f5 v=63
96812 On ch=1 n=g#5 v=88
96826 On ch=1 n=g5 v=0
96928 Par ch=1 c=64 v=63
96964 Par ch=1 c=64 v=0
97078 On ch=1 n=g#6 v=103
97080 Par ch=1 c=64 v=63
97108 Par ch=1 c=64 v=127
97170 On ch=1 n=f5 v=0
97198 On ch=1 n=a#6 v=0
97316 On ch=1 n=a#5 v=82
97316 On ch=1 n=g6 v=96
97318 On ch=1 n=g#5 v=0
97340 On ch=1 n=g5 v=65
97406 On ch=1 n=g#6 v=0
97486 On ch=1 n=a#5 v=0
97564 On ch=1 n=g5 v=0
97620 On ch=1 n=c6 v=73
97624 On ch=1 n=g#5 v=76
97674 Par ch=1 c=64 v=63
97718 Par ch=1 c=64 v=0
97894 On ch=1 n=f6 v=83
97914 On ch=1 n=g6 v=0
98146 On ch=1 n=f#6 v=80
98162 On ch=1 n=a5 v=56
98168 On ch=1 n=g#5 v=0
98182 On ch=1 n=f6 v=0
98214 Par ch=1 c=64 v=63
98236 Par ch=1 c=64 v=127
98368 On ch=1 n=c6 v=0
98454 On ch=1 n=a5 v=0
98486 On ch=1 n=g5 v=56
98516 Par ch=1 c=64 v=63
98578 Par ch=1 c=64 v=0
98676 Par ch=1 c=64 v=63
98720 Par ch=1 c=64 v=127
98790 On ch=1 n=g6 v=65
98818 On ch=1 n=b5 v=43
98824 On ch=1 n=f#6 v=0
98886 Par ch=1 c=64 v=63
98918 Par ch=1 c=64 v=0
98938 Par ch=1 c=64 v=63
98980 Par ch=1 c=64 v=127
98996 On ch=1 n=b5 v=0
99062 On ch=1 n=g6 v=0
99074 On ch=1 n=g5 v=0
99178 On ch=1 n=g5 v=70
99278 On ch=1 n=g5 v=0
99562 On ch=1 n=d#4 v=57
99618 On ch=1 n=c4 v=31
99830 On ch=1 n=d#5 v=79
100110 On ch=1 n=c5 v=93
100140 On ch=1 n=d#5 v=0
100318 On ch=1 n=d#4 v=0
100356 On ch=1 n=f4 v=75
100366 On ch=1 n=d4 v=68
100374 Par ch=1 c=64 v=63
100410 On ch=1 n=c4 v=0
100416 Par ch=1 c=64 v=0
100598 Par ch=1 c=64 v=63
100614 On ch=1 n=b4 v=90
100620 On ch=1 n=c5 v=0
100630 Par ch=1 c=64 v=127
100836 On ch=1 n=d4 v=0
100902 On ch=1 n=g#5 v=98
101096 On ch=1 n=b4 v=0
101164 On ch=1 n=d4 v=81
101166 On ch=1 n=b3 v=70
101182 On ch=1 n=f4 v=0
101190 Par ch=1 c=64 v=63
101234 Par ch=1 c=64 v=0
101350 Par ch=1 c=64 v=63
101378 Par ch=1 c=64 v=127
101446 On ch=1 n=g5 v=88
101466 On ch=1 n=g#5 v=0
101670 On ch=1 n=d4 v=0
101706 On ch=1 n=f5 v=89
101712 On ch=1 n=b3 v=0
101776 On ch=1 n=g5 v=0
101936 On ch=1 n=c#4 v=61
101942 On ch=1 n=a#3 v=55
101978 Par ch=1 c=64 v=63
102004 Par ch=1 c=64 v=0
102206 On ch=1 n=f5 v=0
102232 On ch=1 n=e5 v=72
102296 Par ch=1 c=64 v=63
102306 Par ch=1 c=64 v=127
102332 On ch=1 n=a#3 v=0
102334 On ch=1 n=c#4 v=0
102430 On ch=1 n=e5 v=0
102530 On ch=1 n=c#6 v=80
102560 Par ch=1 c=64 v=63
102570 Par ch=1 c=64 v=0
102794 On ch=1 n=g4 v=67
102798 On ch=1 n=e4 v=68
102810 Par ch=1 c=64 v=63
102818 Par ch=1 c=64 v=127
102974 On ch=1 n=c#6 v=0
103058 On ch=1 n=c6 v=79
103306 On ch=1 n=g4 v=0
103320 On ch=1 n=a#5 v=76
103340 On ch=1 n=c6 v=0
103348 On ch=1 n=c5 v=46
103392 Par ch=1 c=64 v=63
103412 Par ch=1 c=64 v=0
103504 On ch=1 n=e4 v=0
103582 On ch=1 n=g#5 v=75
103584 On ch=1 n=f4 v=61
103638 On ch=1 n=a#5 v=0
103836 On ch=1 n=f4 v=0
103846 On ch=1 n=g4 v=59
103866 On ch=1 n=g5 v=72
103878 On ch=1 n=g#5 v=0
104104 On ch=1 n=g4 v=0
104122 On ch=1 n=g#4 v=60
104138 On ch=1 n=f#5 v=79
104150 On ch=1 n=g5 v=0
104322 On ch=1 n=f#5 v=0
104380 On ch=1 n=g5 v=80
104390 On ch=1 n=d#5 v=80
104400 On ch=1 n=g4 v=54
104410 On ch=1 n=g#4 v=0
104410 On ch=1 n=c5 v=0
104454 On ch=1 n=g5 v=0
104462 On ch=1 n=g4 v=0
104466 On ch=1 n=d#5 v=0
104670 On ch=1 n=d#5 v=83
104672 On ch=1 n=c5 v=76
104718 On ch=1 n=d#5 v=0
104726 On ch=1 n=c5 v=0
104922 On ch=1 n=d5 v=87
104930 On ch=1 n=b4 v=71
104950 On ch=1 n=g3 v=69
104958 On ch=1 n=f4 v=59
104988 On ch=1 n=d5 v=0
104998 On ch=1 n=b4 v=0
105000 On ch=1 n=g3 v=0
105026 On ch=1 n=f4 v=0
105220 On ch=1 n=c5 v=89
105222 On ch=1 n=c4 v=68
105226 On ch=1 n=d#4 v=88
105276 Par ch=1 c=64 v=63
105282 Par ch=1 c=64 v=127
105290 On ch=1 n=d#4 v=0
105292 On ch=1 n=c5 v=0
105302 On ch=1 n=c4 v=0
105516 Par ch=1 c=64 v=63
105530 Par ch=1 c=64 v=0
105784 On ch=1 n=f6 v=118
105856 On ch=1 n=d#6 v=110
105856 Par ch=1 c=64 v=63
105860 Par ch=1 c=64 v=127
105894 On ch=1 n=d6 v=104
105906 On ch=1 n=f6 v=0
105944 On ch=1 n=d#6 v=0
105958 On ch=1 n=c6 v=97
106002 On ch=1 n=d6 v=0
106020 On ch=1 n=d5 v=112
106022 On ch=1 n=b4 v=114
106040 On ch=1 n=g6 v=116
106080 On ch=1 n=c6 v=0
106144 On ch=1 n=g4 v=96
106150 Par ch=1 c=64 v=63
106158 On ch=1 n=d5 v=0
106160 On ch=1 n=b4 v=0
106164 On ch=1 n=g6 v=0
106174 Par ch=1 c=64 v=0
106314 On ch=1 n=g5 v=106
106316 On ch=1 n=g6 v=102
106318 On ch=1 n=c5 v=92
106320 On ch=1 n=d#5 v=103
106332 On ch=1 n=g4 v=0
106380 On ch=1 n=g5 v=0
106382 On ch=1 n=c5 v=0
106388 On ch=1 n=g6 v=0
106400 On ch=1 n=d#5 v=0
106448 On ch=1 n=g4 v=84
106572 On ch=1 n=g4 v=0
106582 On ch=1 n=g5 v=106
106584 On ch=1 n=g6 v=103
106590 On ch=1 n=f5 v=97
106592 On ch=1 n=d5 v=93
106648 On ch=1 n=g5 v=0
106664 On ch=1 n=g6 v=0
106674 On ch=1 n=d5 v=0
106680 On ch=1 n=f5 v=0
106700 On ch=1 n=g4 v=74
106854 On ch=1 n=g6 v=111
106858 On ch=1 n=g4 v=0
106860 On ch=1 n=g5 v=112
106862 On ch=1 n=c5 v=96
106864 On ch=1 n=d#5 v=105
106870 Par ch=1 c=64 v=63
106876 Par ch=1 c=64 v=127
106914 On ch=1 n=g5 v=0
106938 On ch=1 n=c5 v=0
106940 On ch=1 n=g6 v=0
106954 On ch=1 n=d#5 v=0
106982 On ch=1 n=g4 v=87
107150 On ch=1 n=g4 v=0
107150 On ch=1 n=c5 v=96
107154 On ch=1 n=d#5 v=105
107262 On ch=1 n=g4 v=90
107292 On ch=1 n=d#5 v=0
107304 On ch=1 n=c5 v=0
107388 On ch=1 n=f6 v=106
107420 On ch=1 n=d#5 v=99
107442 On ch=1 n=c5 v=74
107446 On ch=1 n=g4 v=0
107452 On ch=1 n=d#6 v=104
107504 On ch=1 n=d6 v=96
107506 On ch=1 n=d#5 v=0
107516 On ch=1 n=f6 v=0
107530 On ch=1 n=g4 v=77
107556 On ch=1 n=c6 v=87
107564 On ch=1 n=c5 v=0
107572 On ch=1 n=d#6 v=0
107620 On ch=1 n=d6 v=0
107646 On ch=1 n=g6 v=111
107656 Par ch=1 c=64 v=63
107666 Par ch=1 c=64 v=0
107672 On ch=1 n=c6 v=0
107674 On ch=1 n=b4 v=108
107676 On ch=1 n=d5 v=107
107684 On ch=1 n=g4 v=0
107756 On ch=1 n=g6 v=0
107794 On ch=1 n=d5 v=0
107798 On ch=1 n=b4 v=0
107802 On ch=1 n=g4 v=91
107938 On ch=1 n=g5 v=76
107944 On ch=1 n=c5 v=84
107944 On ch=1 n=g6 v=72
107950 On ch=1 n=d#5 v=98
107970 On ch=1 n=g4 v=0
107986 On ch=1 n=g5 v=0
107990 On ch=1 n=g6 v=0
108030 On ch=1 n=c5 v=0
108038 On ch=1 n=d#5 v=0
108080 On ch=1 n=g4 v=73
108196 On ch=1 n=g6 v=107
108198 On ch=1 n=g5 v=108
108206 On ch=1 n=g4 v=0
108216 On ch=1 n=f5 v=92
108220 On ch=1 n=d5 v=86
108256 On ch=1 n=g5 v=0
108276 On ch=1 n=g6 v=0
108308 On ch=1 n=d5 v=0
108308 On ch=1 n=f5 v=0
108326 On ch=1 n=g4 v=90
108466 On ch=1 n=g6 v=108
108470 On ch=1 n=g5 v=103
108470 Par ch=1 c=64 v=63
108476 Par ch=1 c=64 v=127
108488 On ch=1 n=c5 v=86
108490 On ch=1 n=d#5 v=103
108500 On ch=1 n=g4 v=0
108502 On ch=1 n=g5 v=0
108522 On ch=1 n=g6 v=0
108542 On ch=1 n=c5 v=0
108580 On ch=1 n=d#5 v=0
108606 On ch=1 n=g4 v=79
108748 On ch=1 n=d#5 v=101
108752 On ch=1 n=c5 v=89
108764 On ch=1 n=g4 v=0
108846 On ch=1 n=g4 v=84
108860 On ch=1 n=d#5 v=0
108896 On ch=1 n=c5 v=0
108988 On ch=1 n=f6 v=114
108998 On ch=1 n=d#5 v=98
108998 On ch=1 n=c5 v=85
109006 On ch=1 n=g4 v=0
109062 On ch=1 n=d#6 v=100
109098 On ch=1 n=g4 v=91
109104 On ch=1 n=d#5 v=0
109114 On ch=1 n=d6 v=97
109122 On ch=1 n=c5 v=0
109130 On ch=1 n=f6 v=0
109156 On ch=1 n=c6 v=76
109176 On ch=1 n=d#6 v=0
109190 On ch=1 n=g4 v=0
109192 Par ch=1 c=64 v=63
109204 Par ch=1 c=64 v=0
109214 On ch=1 n=c6 v=0
109228 On ch=1 n=d6 v=0
109270 On ch=1 n=b5 v=108
109272 On ch=1 n=d6 v=108
109312 On ch=1 n=g#6 v=103
109320 Par ch=1 c=64 v=63
109334 Par ch=1 c=64 v=127
109552 On ch=1 n=f3 v=96
109572 On ch=1 n=f4 v=117
109610 On ch=1 n=b5 v=0
109628 On ch=1 n=f3 v=0
109642 On ch=1 n=f4 v=0
109706 On ch=1 n=d6 v=0
109710 On ch=1 n=g#6 v=0
109812 On ch=1 n=f5 v=114
109818 On ch=1 n=f4 v=109
109856 On ch=1 n=f4 v=0
109860 On ch=1 n=f5 v=0
109896 Par ch=1 c=64 v=63
109912 Par ch=1 c=64 v=0
110114 Par ch=1 c=64 v=63
110114 On ch=1 n=c6 v=106
110124 On ch=1 n=d#6 v=115
110126 Par ch=1 c=64 v=127
110134 On ch=1 n=g6 v=113
110198 On ch=1 n=c6 v=0
110304 On ch=1 n=d#6 v=0
110386 On ch=1 n=d#3 v=97
110396 On ch=1 n=d#4 v=121
110422 On ch=1 n=g6 v=0
110440 On ch=1 n=d#3 v=0
110460 On ch=1 n=d#4 v=0
110640 On ch=1 n=d#4 v=116
110642 On ch=1 n=d#5 v=116
110698 On ch=1 n=d#5 v=0
110700 On ch=1 n=d#4 v=0
110938 On ch=1 n=d5 v=116
110944 On ch=1 n=d4 v=111
110972 Par ch=1 c=64 v=63
110984 Par ch=1 c=64 v=0
111144 Par ch=1 c=64 v=63
111164 Par ch=1 c=64 v=127
111186 On ch=1 n=b6 v=114
111190 On ch=1 n=d6 v=106
111192 On ch=1 n=f6 v=104
111206 On ch=1 n=d5 v=0
111226 Par ch=1 c=64 v=63
111236 On ch=1 n=f6 v=0
111246 On ch=1 n=d6 v=0
111250 Par ch=1 c=64 v=0
111256 On ch=1 n=d4 v=0
111278 On ch=1 n=b6 v=0
111450 On ch=1 n=f6 v=120
111458 On ch=1 n=b6 v=106
111458 On ch=1 n=d7 v=117
111502 On ch=1 n=b6 v=0
111508 On ch=1 n=f6 v=0
111538 On ch=1 n=d7 v=0
111742 On ch=1 n=g6 v=108
111766 Par ch=1 c=64 v=63
111768 On ch=1 n=d7 v=106
111770 On ch=1 n=b3 v=96
111772 Par ch=1 c=64 v=127
111774 On ch=1 n=b4 v=122
111790 On ch=1 n=f7 v=112
111822 On ch=1 n=g6 v=0
111832 On ch=1 n=d7 v=0
111858 On ch=1 n=f7 v=0
111876 On ch=1 n=b4 v=0
111908 On ch=1 n=b3 v=0
112530 Par ch=1 c=64 v=63
112640 Par ch=1 c=64 v=0
113502 Par ch=1 c=64 v=63
113672 On ch=1 n=d#6 v=70
113688 Par ch=1 c=64 v=127
113882 On ch=1 n=d#6 v=0
114720 On ch=1 n=f#5 v=76
114728 On ch=1 n=d#5 v=43
114738 On ch=1 n=c5 v=43
114860 Par ch=1 c=64 v=63
114958 Par ch=1 c=64 v=127
115304 On ch=1 n=d#5 v=0
115376 On ch=1 n=c5 v=0
115398 On ch=1 n=f#5 v=0
115612 On ch=1 n=g5 v=72
115620 On ch=1 n=d5 v=53
115620 On ch=1 n=f5 v=53
115632 Par ch=1 c=64 v=63
115632 On ch=1 n=b4 v=42
115652 Par ch=1 c=64 v=0
115720 Par ch=1 c=64 v=63
115768 Par ch=1 c=64 v=127
115866 On ch=1 n=g5 v=0
116006 On ch=1 n=b4 v=0
116016 On ch=1 n=f5 v=0
116028 On ch=1 n=d5 v=0
116050 On ch=1 n=g#5 v=67
116074 Par ch=1 c=64 v=63
116160 On ch=1 n=d#5 v=65
116164 Par ch=1 c=64 v=127
116166 On ch=1 n=g5 v=72
116174 On ch=1 n=g#5 v=0
116178 On ch=1 n=c5 v=55
116200 On ch=1 n=d#5 v=0
116210 On ch=1 n=g5 v=0
116230 On ch=1 n=c5 v=0
116438 On ch=1 n=g5 v=83
116456 On ch=1 n=d#5 v=72
116464 Par ch=1 c=64 v=63
116478 On ch=1 n=f4 v=56
116502 Par ch=1 c=64 v=0
116532 On ch=1 n=d#5 v=0
116550 On ch=1 n=f4 v=0
116556 On ch=1 n=d5 v=71
116580 On ch=1 n=f5 v=72
116590 On ch=1 n=g5 v=0
116702 On ch=1 n=c5 v=66
116702 On ch=1 n=d#5 v=82
116704 On ch=1 n=d5 v=0
116716 On ch=1 n=f5 v=0
116718 On ch=1 n=g4 v=68
116778 On ch=1 n=d#5 v=0
116780 On ch=1 n=g4 v=0
116784 On ch=1 n=c5 v=0
116962 On ch=1 n=d5 v=71
116964 On ch=1 n=b4 v=69
116986 On ch=1 n=g3 v=66
117042 On ch=1 n=d5 v=0
117096 On ch=1 n=b4 v=0
117122 On ch=1 n=g3 v=0
117286 On ch=1 n=c5 v=75
117288 Par ch=1 c=64 v=63
117298 Par ch=1 c=64 v=127
117304 On ch=1 n=c4 v=59
117392 On ch=1 n=c5 v=0
117406 On ch=1 n=c4 v=0
117722 Par ch=1 c=64 v=63
117736 Par ch=1 c=64 v=0
117842 On ch=1 n=f6 v=114
117896 On ch=1 n=d#6 v=115
117942 On ch=1 n=d6 v=100
117956 On ch=1 n=f6 v=0
117960 Par ch=1 c=64 v=63
117962 Par ch=1 c=64 v=127
117990 On ch=1 n=c6 v=108
117992 On ch=1 n=d#6 v=0
118052 On ch=1 n=d6 v=0
118062 On ch=1 n=d5 v=116
118070 On ch=1 n=b4 v=114
118076 On ch=1 n=g6 v=116
118110 On ch=1 n=c6 v=0
118190 On ch=1 n=g6 v=0
118194 On ch=1 n=g4 v=92
118208 On ch=1 n=b4 v=0
118212 On ch=1 n=d5 v=0
118350 On ch=1 n=g6 v=103
118352 On ch=1 n=g5 v=106
118358 On ch=1 n=c5 v=93
118360 On ch=1 n=d#5 v=108
118378 Par ch=1 c=64 v=63
118380 On ch=1 n=g4 v=0
118386 Par ch=1 c=64 v=0
118410 On ch=1 n=c5 v=0
118414 On ch=1 n=g5 v=0
118432 On ch=1 n=g6 v=0
118438 On ch=1 n=d#5 v=0
118478 On ch=1 n=g4 v=90
118586 On ch=1 n=g4 v=0
118618 On ch=1 n=d5 v=97
118620 On ch=1 n=f5 v=99
118626 On ch=1 n=g6 v=91
118630 On ch=1 n=g5 v=87
118682 On ch=1 n=g5 v=0
118692 On ch=1 n=d5 v=0
118696 On ch=1 n=g6 v=0
118702 On ch=1 n=f5 v=0
118720 On ch=1 n=g4 v=93
118886 On ch=1 n=g6 v=109
118888 On ch=1 n=c5 v=102
118890 On ch=1 n=g5 v=112
118894 On ch=1 n=d#5 v=110
118896 Par ch=1 c=64 v=63
118904 Par ch=1 c=64 v=127
118910 On ch=1 n=g4 v=0
118952 On ch=1 n=g5 v=0
118986 On ch=1 n=c5 v=0
118986 On ch=1 n=g6 v=0
118994 On ch=1 n=d#5 v=0
119002 On ch=1 n=g4 v=82
119164 On ch=1 n=c5 v=86
119170 On ch=1 n=g4 v=0
119172 On ch=1 n=d#5 v=99
119264 On ch=1 n=g4 v=92
119286 On ch=1 n=d#5 v=0
119310 On ch=1 n=c5 v=0
119410 On ch=1 n=d#5 v=94
119418 On ch=1 n=c5 v=85
119428 On ch=1 n=f6 v=114
119430 On ch=1 n=g4 v=0
119492 On ch=1 n=d#6 v=114
119494 On ch=1 n=d#5 v=0
119516 On ch=1 n=g4 v=75
119540 On ch=1 n=d6 v=92
119542 On ch=1 n=c5 v=0
119544 On ch=1 n=f6 v=0
119590 On ch=1 n=d#6 v=0
119596 On ch=1 n=c6 v=102
119652 On ch=1 n=d6 v=0
119678 Par ch=1 c=64 v=63
119680 On ch=1 n=g6 v=109
119682 On ch=1 n=b4 v=106
119690 On ch=1 n=g4 v=0
119690 Par ch=1 c=64 v=0
119692 On ch=1 n=c6 v=0
119694 On ch=1 n=d5 v=98
119790 On ch=1 n=g6 v=0
119802 On ch=1 n=g4 v=94
119804 On ch=1 n=d5 v=0
119808 On ch=1 n=b4 v=0
119948 On ch=1 n=g5 v=97
119948 On ch=1 n=g6 v=92
119952 On ch=1 n=c5 v=83
119956 On ch=1 n=d#5 v=104
119980 On ch=1 n=g4 v=0
119996 On ch=1 n=g5 v=0
120022 On ch=1 n=g6 v=0
120036 On ch=1 n=c5 v=0
120042 On ch=1 n=d#5 v=0
120082 On ch=1 n=g4 v=79
120202 On ch=1 n=g4 v=0
120220 On ch=1 n=f5 v=92
120222 On ch=1 n=d5 v=88
120224 On ch=1 n=g6 v=102
120224 On ch=1 n=g5 v=101
120262 On ch=1 n=g5 v=0
120284 On ch=1 n=g6 v=0
120308 On ch=1 n=d5 v=0
120312 On ch=1 n=f5 v=0
120326 On ch=1 n=g4 v=90
120486 On ch=1 n=g6 v=111
120488 On ch=1 n=g5 v=112
120490 Par ch=1 c=64 v=63
120494 On ch=1 n=c5 v=98
120498 Par ch=1 c=64 v=127
120500 On ch=1 n=d#5 v=107
120510 On ch=1 n=g4 v=0
120530 On ch=1 n=g5 v=0
120552 On ch=1 n=g6 v=0
120562 On ch=1 n=c5 v=0
120596 On ch=1 n=d#5 v=0
120612 On ch=1 n=g4 v=85
120772 On ch=1 n=c5 v=96
120784 On ch=1 n=d#5 v=99
120786 On ch=1 n=g4 v=0
120878 On ch=1 n=g4 v=86
120892 On ch=1 n=d#5 v=0
120916 On ch=1 n=c5 v=0
121022 On ch=1 n=f6 v=113
121028 On ch=1 n=c5 v=89
121032 On ch=1 n=d#5 v=103
121052 On ch=1 n=g4 v=0
121078 On ch=1 n=d#6 v=109
121118 On ch=1 n=d6 v=92
121128 On ch=1 n=g4 v=87
121134 On ch=1 n=d#5 v=0
121146 On ch=1 n=c5 v=0
121146 On ch=1 n=f6 v=0
121174 On ch=1 n=c6 v=84
121186 On ch=1 n=d#6 v=0
121220 On ch=1 n=g4 v=0
121258 On ch=1 n=c6 v=0
121260 On ch=1 n=d6 v=0
121280 Par ch=1 c=64 v=63
121290 Par ch=1 c=64 v=0
121308 On ch=1 n=d6 v=108
121314 On ch=1 n=b5 v=107
121330 On ch=1 n=g#6 v=110
121580 On ch=1 n=f3 v=90
121604 On ch=1 n=f4 v=118
121606 Par ch=1 c=64 v=63
121610 Par ch=1 c=64 v=127
121660 On ch=1 n=f3 v=0
121674 On ch=1 n=f4 v=0
121812 On ch=1 n=b5 v=0
121860 On ch=1 n=f4 v=86
121862 On ch=1 n=f5 v=83
121866 On ch=1 n=d6 v=0
121868 On ch=1 n=g#6 v=0
121898 On ch=1 n=f4 v=0
121900 On ch=1 n=f5 v=0
121982 Par ch=1 c=64 v=63
122006 Par ch=1 c=64 v=0
122140 On ch=1 n=c6 v=81
122150 Par ch=1 c=64 v=63
122152 On ch=1 n=d#6 v=121
122162 Par ch=1 c=64 v=127
122170 On ch=1 n=g6 v=114
122236 On ch=1 n=c6 v=0
122418 On ch=1 n=d#3 v=105
122420 On ch=1 n=d#4 v=127
122454 On ch=1 n=d#6 v=0
122456 On ch=1 n=g6 v=0
122468 On ch=1 n=d#3 v=0
122482 On ch=1 n=d#4 v=0
122678 On ch=1 n=d#5 v=123
122678 On ch=1 n=d#4 v=120
122732 On ch=1 n=d#4 v=0
122734 On ch=1 n=d#5 v=0
122950 Par ch=1 c=64 v=63
122958 Par ch=1 c=64 v=0
122980 On ch=1 n=d5 v=120
122984 On ch=1 n=d4 v=116
123162 Par ch=1 c=64 v=63
123180 Par ch=1 c=64 v=127
123220 On ch=1 n=d6 v=106
123228 On ch=1 n=f6 v=111
123258 On ch=1 n=b6 v=106
123284 On ch=1 n=d6 v=0
123292 On ch=1 n=f6 v=0
123338 On ch=1 n=b6 v=0
123402 On ch=1 n=d5 v=0
123466 On ch=1 n=d4 v=0
123514 On ch=1 n=f6 v=106
123514 On ch=1 n=d7 v=114
123516 On ch=1 n=b6 v=99
123546 On ch=1 n=f6 v=0
123558 On ch=1 n=b6 v=0
123582 Par ch=1 c=64 v=63
123588 Par ch=1 c=64 v=0
123594 On ch=1 n=d7 v=0
123842 On ch=1 n=g6 v=98
123860 On ch=1 n=b3 v=96
123860 On ch=1 n=d7 v=99
123866 On ch=1 n=b4 v=122
123872 Par ch=1 c=64 v=63
123872 Par ch=1 c=64 v=127
123880 On ch=1 n=f7 v=112
123916 On ch=1 n=g6 v=0
123930 On ch=1 n=d7 v=0
123968 On ch=1 n=f7 v=0
123970 On ch=1 n=b4 v=0
123988 On ch=1 n=b3 v=0
124396 Par ch=1 c=64 v=63
124458 Par ch=1 c=64 v=0
125424 Par ch=1 c=64 v=63
125426 On ch=1 n=c#5 v=127
125428 Par ch=1 c=64 v=127
125432 On ch=1 n=c#4 v=119
125500 On ch=1 n=c#5 v=0
125532 On ch=1 n=c#4 v=0
125788 On ch=1 n=e6 v=108
125790 On ch=1 n=a#3 v=100
125792 On ch=1 n=a#4 v=104
125794 On ch=1 n=g5 v=104
125796 On ch=1 n=a#5 v=112
125846 On ch=1 n=a#5 v=0
125846 On ch=1 n=g5 v=0
125850 On ch=1 n=a#4 v=0
125852 On ch=1 n=e6 v=0
125854 On ch=1 n=a#3 v=0
126088 On ch=1 n=g4 v=113
126088 On ch=1 n=g6 v=91
126092 On ch=1 n=g3 v=112
126094 On ch=1 n=a#5 v=104
126100 On ch=1 n=e6 v=94
126144 On ch=1 n=e6 v=0
126144 On ch=1 n=a#5 v=0
126156 On ch=1 n=g4 v=0
126158 On ch=1 n=g6 v=0
126170 On ch=1 n=g3 v=0
126396 On ch=1 n=a#6 v=116
126398 On ch=1 n=g6 v=106
126400 On ch=1 n=e3 v=113
126400 On ch=1 n=c#6 v=116
126402 On ch=1 n=e4 v=118
126448 Par ch=1 c=64 v=63
126464 Par ch=1 c=64 v=127
126606 On ch=1 n=e4 v=0
126620 On ch=1 n=e3 v=0
126638 On ch=1 n=c#6 v=0
126660 On ch=1 n=g6 v=0
126696 On ch=1 n=a#6 v=0
127034 Par ch=1 c=64 v=63
127158 Par ch=1 c=64 v=0
128168 Par ch=1 c=64 v=63
128480 On ch=1 n=f4 v=31
128500 Par ch=1 c=64 v=127
128872 On ch=1 n=g#4 v=37
129174 On ch=1 n=c5 v=36
129414 On ch=1 n=e4 v=45
129444 On ch=1 n=f4 v=0
129502 On ch=1 n=g#4 v=0
129570 On ch=1 n=c5 v=0
129670 Par ch=1 c=64 v=63
129690 On ch=1 n=g4 v=52
129724 Par ch=1 c=64 v=127
129972 On ch=1 n=a#4 v=58
130176 On ch=1 n=e4 v=0
130240 On ch=1 n=g4 v=0
130256 On ch=1 n=c6 v=84
130276 On ch=1 n=f4 v=28
130322 On ch=1 n=a#4 v=0
130442 Par ch=1 c=64 v=63
130442 Par ch=1 c=64 v=127
130554 On ch=1 n=g#4 v=51
130828 On ch=1 n=c5 v=50
130868 On ch=1 n=g#4 v=0
130876 On ch=1 n=c6 v=0
131078 On ch=1 n=e4 v=43
131084 On ch=1 n=f4 v=0
131094 On ch=1 n=c6 v=58
131098 On ch=1 n=c5 v=0
131188 Par ch=1 c=64 v=63
131260 Par ch=1 c=64 v=127
131354 On ch=1 n=g4 v=36
131534 On ch=1 n=c6 v=0
131608 On ch=1 n=a#4 v=65
131706 On ch=1 n=g4 v=0
131772 On ch=1 n=c6 v=61
131854 On ch=1 n=a#4 v=0
131880 On ch=1 n=e4 v=0
131888 Par ch=1 c=64 v=63
131894 On ch=1 n=c#6 v=80
131910 On ch=1 n=f4 v=41
131914 On ch=1 n=c6 v=0
132040 Par ch=1 c=64 v=127
132140 On ch=1 n=g#4 v=74
132416 On ch=1 n=c6 v=80
132420 On ch=1 n=c5 v=61
132472 On ch=1 n=c#6 v=0
132688 On ch=1 n=e4 v=84
132740 On ch=1 n=c6 v=0
132750 On ch=1 n=g#4 v=0
132774 On ch=1 n=f4 v=0
132816 On ch=1 n=c5 v=0
132966 On ch=1 n=g4 v=74
133190 Par ch=1 c=64 v=63
133206 Par ch=1 c=64 v=0
133214 On ch=1 n=a#4 v=98
133328 On ch=1 n=c7 v=97
133356 On ch=1 n=g4 v=0
133464 On ch=1 n=c#7 v=116
133466 On ch=1 n=f4 v=84
133506 Par ch=1 c=64 v=63
133516 Par ch=1 c=64 v=127
133518 On ch=1 n=e4 v=0
133526 On ch=1 n=a#4 v=0
133536 On ch=1 n=c7 v=0
133742 On ch=1 n=g#4 v=83
134010 On ch=1 n=c5 v=48
134018 On ch=1 n=c7 v=89
134114 On ch=1 n=c#7 v=0
134122 Par ch=1 c=64 v=63
134140 Par ch=1 c=64 v=0
134224 On ch=1 n=f4 v=0
134270 On ch=1 n=d#4 v=99
134274 Par ch=1 c=64 v=63
134288 Par ch=1 c=64 v=127
134300 On ch=1 n=g#4 v=0
134356 On ch=1 n=c5 v=0
134528 On ch=1 n=c7 v=0
134528 On ch=1 n=g4 v=85
134798 Par ch=1 c=64 v=63
134804 Par ch=1 c=64 v=0
134812 On ch=1 n=c5 v=101
134884 On ch=1 n=g4 v=0
134958 On ch=1 n=c5 v=0
134990 On ch=1 n=d#4 v=0
135060 On ch=1 n=d5 v=120
135080 On ch=1 n=d4 v=126
135088 Par ch=1 c=64 v=127
135130 On ch=1 n=d5 v=0
135168 On ch=1 n=d4 v=0
135362 Par ch=1 c=64 v=63
135366 Par ch=1 c=64 v=0
135368 On ch=1 n=c6 v=101
135370 On ch=1 n=c5 v=114
135372 On ch=1 n=a5 v=88
135376 On ch=1 n=c4 v=111
135378 On ch=1 n=f#6 v=97
135416 On ch=1 n=a5 v=0
135430 On ch=1 n=c5 v=0
135436 On ch=1 n=c6 v=0
135450 On ch=1 n=c4 v=0
135460 On ch=1 n=f#6 v=0
135640 On ch=1 n=a6 v=116
135644 On ch=1 n=c6 v=114
135644 On ch=1 n=a4 v=108
135652 On ch=1 n=a3 v=84
135660 On ch=1 n=f#6 v=87
135692 On ch=1 n=f#6 v=0
135702 On ch=1 n=c6 v=0
135704 On ch=1 n=a4 v=0
135712 On ch=1 n=a3 v=0
135712 On ch=1 n=a6 v=0
135942 On ch=1 n=c7 v=113
135946 On ch=1 n=a6 v=103
135950 On ch=1 n=d#6 v=100
135954 On ch=1 n=f#4 v=120
135956 On ch=1 n=f#3 v=123
135970 Par ch=1 c=64 v=127
135982 On ch=1 n=d#6 v=0
135990 On ch=1 n=a6 v=0
136010 On ch=1 n=f#3 v=0
136014 On ch=1 n=f#4 v=0
136016 On ch=1 n=c7 v=0
136768 Par ch=1 c=64 v=63
136862 Par ch=1 c=64 v=0
137772 Par ch=1 c=64 v=63
137848 Par ch=1 c=64 v=127
137944 Par ch=1 c=64 v=63
138064 Par ch=1 c=64 v=127
138152 On ch=1 n=g4 v=48
138486 On ch=1 n=a#4 v=39
138752 On ch=1 n=g4 v=0
138764 On ch=1 n=d5 v=47
138778 On ch=1 n=a#4 v=0
139008 On ch=1 n=f#4 v=57
139096 On ch=1 n=d5 v=0
139262 On ch=1 n=a4 v=50
139358 Par ch=1 c=64 v=63
139484 Par ch=1 c=64 v=127
139522 On ch=1 n=c5 v=49
139670 On ch=1 n=f#4 v=0
139730 On ch=1 n=a4 v=0
139792 On ch=1 n=g4 v=38
139796 On ch=1 n=d6 v=72
139838 Par ch=1 c=64 v=63
139872 On ch=1 n=c5 v=0
139922 Par ch=1 c=64 v=127
140082 On ch=1 n=a#4 v=65
140326 On ch=1 n=d5 v=70
140334 On ch=1 n=d6 v=0
140336 On ch=1 n=g4 v=0
140532 On ch=1 n=a#4 v=0
140580 On ch=1 n=d6 v=86
140592 On ch=1 n=f#4 v=56
140622 On ch=1 n=d5 v=0
140678 Par ch=1 c=64 v=63
140822 Par ch=1 c=64 v=127
140858 On ch=1 n=a4 v=62
141002 On ch=1 n=d6 v=0
141114 On ch=1 n=c5 v=75
141216 On ch=1 n=d6 v=80
141236 On ch=1 n=f#4 v=0
141358 On ch=1 n=d#6 v=97
141362 On ch=1 n=g4 v=59
141402 On ch=1 n=a4 v=0
141420 Par ch=1 c=64 v=63
141422 On ch=1 n=d6 v=0
141434 On ch=1 n=c5 v=0
141596 Par ch=1 c=64 v=127
141618 On ch=1 n=a#4 v=83
141868 On ch=1 n=d6 v=94
141874 On ch=1 n=d5 v=60
141916 On ch=1 n=g4 v=0
141926 On ch=1 n=d#6 v=0
141974 On ch=1 n=a#4 v=0
142132 On ch=1 n=f#4 v=98
142196 On ch=1 n=d6 v=0
142202 On ch=1 n=d5 v=0
142408 On ch=1 n=a4 v=82
142416 Par ch=1 c=64 v=63
142446 Par ch=1 c=64 v=0
142570 Par ch=1 c=64 v=63
142590 Par ch=1 c=64 v=127
142644 On ch=1 n=c5 v=84
142752 On ch=1 n=d7 v=108
142776 On ch=1 n=f#4 v=0
142796 On ch=1 n=a4 v=0
142906 Par ch=1 c=64 v=63
142918 On ch=1 n=g4 v=65
142922 On ch=1 n=d#7 v=110
142968 Par ch=1 c=64 v=0
142986 Par ch=1 c=64 v=63
142990 On ch=1 n=d7 v=0
143014 On ch=1 n=c5 v=0
143072 Par ch=1 c=64 v=127
143176 On ch=1 n=a#4 v=96
143424 On ch=1 n=d7 v=103
143440 On ch=1 n=d5 v=62
143472 On ch=1 n=d#7 v=0
143488 On ch=1 n=g4 v=0
143516 On ch=1 n=a#4 v=0
143606 On ch=1 n=d7 v=0
143694 On ch=1 n=g4 v=93
143730 On ch=1 n=d5 v=0
143998 Par ch=1 c=64 v=63
144008 On ch=1 n=b4 v=106
144022 Par ch=1 c=64 v=0
144078 Par ch=1 c=64 v=63
144128 Par ch=1 c=64 v=127
144358 On ch=1 n=d5 v=114
144490 On ch=1 n=g6 v=106
144492 On ch=1 n=g5 v=108
144566 On ch=1 n=g5 v=0
144594 On ch=1 n=g6 v=0
144608 On ch=1 n=b4 v=0
144740 On ch=1 n=d5 v=0
144858 On ch=1 n=d5 v=78
144864 On ch=1 n=f5 v=97
144872 On ch=1 n=b4 v=74
144884 On ch=1 n=g#6 v=113
144892 On ch=1 n=g#5 v=104
144986 On ch=1 n=g4 v=0
145134 Par ch=1 c=64 v=63
145162 Par ch=1 c=64 v=0
145280 Par ch=1 c=64 v=63
145298 Par ch=1 c=64 v=127
145416 On ch=1 n=f5 v=0
145438 On ch=1 n=d5 v=0
145458 On ch=1 n=b4 v=0
145730 On ch=1 n=g#6 v=0
145734 On ch=1 n=g#5 v=0
146306 On ch=1 n=g6 v=60
146316 On ch=1 n=g5 v=31
147236 On ch=1 n=g5 v=0
147270 On ch=1 n=g6 v=0
147718 Par ch=1 c=64 v=63
147864 Par ch=1 c=64 v=0
148006 On ch=1 n=c4 v=43
148118 Par ch=1 c=64 v=63
148168 On ch=1 n=d#4 v=52
148182 Par ch=1 c=64 v=127
148236 On ch=1 n=c4 v=0
148318 On ch=1 n=g4 v=53
148320 On ch=1 n=d#4 v=0
148442 On ch=1 n=d#4 v=60
148472 On ch=1 n=g4 v=0
148558 On ch=1 n=d#4 v=0
148586 On ch=1 n=g4 v=49
148678 On ch=1 n=d#4 v=66
148714 On ch=1 n=g4 v=0
148790 On ch=1 n=c4 v=67
148806 On ch=1 n=d#4 v=0
148884 Par ch=1 c=64 v=63
148946 On ch=1 n=d#4 v=70
148992 On ch=1 n=c4 v=0
149022 Par ch=1 c=64 v=127
149092 On ch=1 n=g5 v=68
149104 On ch=1 n=d#4 v=0
149108 On ch=1 n=g4 v=54
149148 On ch=1 n=g5 v=0
149252 On ch=1 n=d#4 v=54
149268 On ch=1 n=g4 v=0
149362 On ch=1 n=d#4 v=0
149374 On ch=1 n=g5 v=86
149398 On ch=1 n=g4 v=55
149474 On ch=1 n=g5 v=0
149496 On ch=1 n=d#4 v=69
149532 On ch=1 n=g4 v=0
149590 On ch=1 n=d#4 v=0
149606 On ch=1 n=g5 v=83
149644 On ch=1 n=c4 v=55
149658 Par ch=1 c=64 v=63
149714 Par ch=1 c=64 v=127
149722 On ch=1 n=g5 v=0
149778 On ch=1 n=g#5 v=90
149786 On ch=1 n=d4 v=73
149824 On ch=1 n=g5 v=80
149830 On ch=1 n=c4 v=0
149862 On ch=1 n=g#5 v=0
149888 On ch=1 n=f#5 v=91
149898 On ch=1 n=g5 v=0
149942 On ch=1 n=d4 v=0
149942 On ch=1 n=f4 v=55
149950 On ch=1 n=g5 v=86
149966 On ch=1 n=f#5 v=0
149986 Par ch=1 c=64 v=63
150008 Par ch=1 c=64 v=127
150066 On ch=1 n=d4 v=67
150074 On ch=1 n=f4 v=0
150110 On ch=1 n=g#5 v=95
150138 On ch=1 n=g5 v=0
150208 On ch=1 n=d4 v=0
150210 On ch=1 n=f4 v=63
150212 On ch=1 n=g5 v=87
150220 On ch=1 n=g#5 v=0
150352 On ch=1 n=d4 v=68
150370 On ch=1 n=f4 v=0
150458 On ch=1 n=g5 v=0
150504 On ch=1 n=f6 v=106
150506 On ch=1 n=d4 v=0
150516 On ch=1 n=c4 v=52
150546 Par ch=1 c=64 v=63
150570 Par ch=1 c=64 v=0
150654 On ch=1 n=d4 v=80
150690 Par ch=1 c=64 v=63
150710 Par ch=1 c=64 v=127
150802 On ch=1 n=f4 v=78
150824 On ch=1 n=d4 v=0
150898 On ch=1 n=d4 v=81
150952 On ch=1 n=f4 v=0
151024 On ch=1 n=f6 v=0
151056 On ch=1 n=d4 v=0
151058 On ch=1 n=f4 v=71
151084 On ch=1 n=b5 v=103
151098 On ch=1 n=c4 v=0
151182 On ch=1 n=d4 v=74
151220 On ch=1 n=f4 v=0
151324 Par ch=1 c=64 v=63
151344 Par ch=1 c=64 v=0
151366 On ch=1 n=d6 v=96
151368 On ch=1 n=c4 v=65
151394 On ch=1 n=d4 v=0
151420 On ch=1 n=b5 v=0
151520 On ch=1 n=d#4 v=75
151656 On ch=1 n=g4 v=68
151668 On ch=1 n=d#4 v=0
151764 On ch=1 n=d#4 v=60
151812 On ch=1 n=g4 v=0
151904 Par ch=1 c=64 v=63
151910 Par ch=1 c=64 v=127
151916 On ch=1 n=d#4 v=0
151934 On ch=1 n=g4 v=53
151938 On ch=1 n=c6 v=73
151940 On ch=1 n=d6 v=0
152068 On ch=1 n=d#4 v=62
152084 On ch=1 n=g4 v=0
152102 On ch=1 n=c4 v=0
152202 On ch=1 n=c4 v=68
152208 On ch=1 n=d#4 v=0
152272 On ch=1 n=c6 v=0
152288 Par ch=1 c=64 v=63
152316 Par ch=1 c=64 v=0
152336 On ch=1 n=d#4 v=76
152396 Par ch=1 c=64 v=63
152426 Par ch=1 c=64 v=127
152472 On ch=1 n=g6 v=86
152508 On ch=1 n=g4 v=58
152514 On ch=1 n=d#4 v=0
152656 On ch=1 n=g4 v=0
152656 On ch=1 n=d#4 v=53
152660 On ch=1 n=g6 v=0
152756 On ch=1 n=d#4 v=0
152770 On ch=1 n=g6 v=100
152778 On ch=1 n=g4 v=53
152870 On ch=1 n=d#4 v=88
152932 On ch=1 n=g4 v=0
152944 On ch=1 n=c4 v=0
153000 On ch=1 n=g6 v=0
153028 On ch=1 n=f#6 v=106
153046 On ch=1 n=c4 v=65
153074 Par ch=1 c=64 v=63
153080 On ch=1 n=d#4 v=0
153106 Par ch=1 c=64 v=0
153132 Par ch=1 c=64 v=63
153158 On ch=1 n=g6 v=99
153188 Par ch=1 c=64 v=127
153190 On ch=1 n=d4 v=88
153212 On ch=1 n=f#6 v=0
153296 On ch=1 n=g#6 v=104
153334 On ch=1 n=f4 v=79
153344 On ch=1 n=g6 v=0
153352 Par ch=1 c=64 v=63
153376 On ch=1 n=d4 v=0
153386 Par ch=1 c=64 v=0
153414 On ch=1 n=g6 v=86
153436 On ch=1 n=g#6 v=0
153442 On ch=1 n=d4 v=83
153480 Par ch=1 c=64 v=63
153488 On ch=1 n=f4 v=0
153516 Par ch=1 c=64 v=127
153550 On ch=1 n=f6 v=103
153576 On ch=1 n=f4 v=77
153602 On ch=1 n=d4 v=0
153606 On ch=1 n=g6 v=0
153680 On ch=1 n=d4 v=87
153680 On ch=1 n=d#6 v=109
153726 On ch=1 n=c4 v=0
153734 On ch=1 n=f4 v=0
153742 On ch=1 n=f6 v=0
153804 On ch=1 n=d6 v=92
153816 On ch=1 n=c4 v=94
153820 On ch=1 n=d#6 v=0
153828 Par ch=1 c=64 v=63
153846 On ch=1 n=d4 v=0
153852 Par ch=1 c=64 v=0
153890 On ch=1 n=d6 v=0
153922 On ch=1 n=c6 v=101
153928 On ch=1 n=d4 v=90
153948 Par ch=1 c=64 v=63
153974 Par ch=1 c=64 v=127
154038 On ch=1 n=c6 v=0
154062 On ch=1 n=b5 v=92
154074 On ch=1 n=f4 v=87
154096 On ch=1 n=d4 v=0
154162 On ch=1 n=d6 v=107
154178 On ch=1 n=d4 v=88
154202 On ch=1 n=b5 v=0
154218 On ch=1 n=f4 v=0
154298 On ch=1 n=f6 v=106
154304 On ch=1 n=c4 v=0
154314 On ch=1 n=f4 v=80
154318 On ch=1 n=d4 v=0
154332 On ch=1 n=d6 v=0
154400 On ch=1 n=d4 v=71
154426 On ch=1 n=b5 v=96
154436 On ch=1 n=f4 v=0
154474 On ch=1 n=f6 v=0
154512 Par ch=1 c=64 v=63
154524 On ch=1 n=d4 v=0
154532 Par ch=1 c=64 v=0
154538 On ch=1 n=c4 v=65
154556 On ch=1 n=b5 v=0
154578 On ch=1 n=d6 v=106
154666 Par ch=1 c=64 v=63
154692 Par ch=1 c=64 v=127
154708 On ch=1 n=d#4 v=98
154848 On ch=1 n=g4 v=88
154866 On ch=1 n=d#4 v=0
154972 On ch=1 n=d#4 v=97
155008 Par ch=1 c=64 v=63
155012 On ch=1 n=g4 v=0
155044 Par ch=1 c=64 v=0
155068 Par ch=1 c=64 v=63
155100 On ch=1 n=d#4 v=0
155122 On ch=1 n=g4 v=67
155124 On ch=1 n=c6 v=93
155142 Par ch=1 c=64 v=127
155218 On ch=1 n=d6 v=0
155248 On ch=1 n=d#4 v=83
155268 On ch=1 n=c4 v=0
155284 On ch=1 n=g4 v=0
155292 Par ch=1 c=64 v=63
155310 Par ch=1 c=64 v=0
155364 On ch=1 n=d#4 v=0
155390 On ch=1 n=a#3 v=113
155440 On ch=1 n=c6 v=0
155532 On ch=1 n=e4 v=84
155622 Par ch=1 c=64 v=63
155628 Par ch=1 c=64 v=127
155698 On ch=1 n=g4 v=73
155702 On ch=1 n=c6 v=100
155706 On ch=1 n=e4 v=0
155830 On ch=1 n=e4 v=81
155852 On ch=1 n=g4 v=0
155866 On ch=1 n=c6 v=0
155954 On ch=1 n=e4 v=0
155974 On ch=1 n=g4 v=81
155974 On ch=1 n=c6 v=109
155986 On ch=1 n=a#3 v=0
156124 On ch=1 n=e4 v=74
156126 On ch=1 n=c6 v=0
156170 On ch=1 n=g4 v=0
156234 On ch=1 n=e4 v=0
156236 On ch=1 n=a3 v=108
156238 Par ch=1 c=64 v=63
156242 On ch=1 n=c6 v=117
156254 Par ch=1 c=64 v=0
156338 Par ch=1 c=64 v=63
156372 Par ch=1 c=64 v=127
156390 On ch=1 n=c4 v=107
156516 On ch=1 n=c6 v=0
156530 On ch=1 n=f4 v=87
156556 On ch=1 n=c4 v=0
156596 On ch=1 n=d6 v=94
156652 On ch=1 n=c6 v=71
156668 On ch=1 n=c4 v=97
156676 On ch=1 n=f4 v=0
156680 On ch=1 n=d6 v=0
156698 On ch=1 n=c6 v=0
156698 On ch=1 n=b5 v=84
156730 Par ch=1 c=64 v=63
156738 Par ch=1 c=64 v=0
156760 On ch=1 n=c6 v=107
156786 On ch=1 n=f4 v=84
156790 On ch=1 n=c4 v=0
156812 On ch=1 n=b5 v=0
156904 On ch=1 n=c4 v=91
156920 On ch=1 n=d6 v=107
156934 On ch=1 n=f4 v=0
156956 On ch=1 n=a3 v=0
156970 On ch=1 n=c6 v=0
157030 On ch=1 n=c4 v=0
157066 On ch=1 n=d#6 v=118
157068 Par ch=1 c=64 v=63
157070 Par ch=1 c=64 v=127
157074 On ch=1 n=g#3 v=114
157108 On ch=1 n=d6 v=0
157160 On ch=1 n=d#6 v=0
157216 On ch=1 n=c4 v=87
157356 On ch=1 n=d#4 v=92
157384 On ch=1 n=c4 v=0
157452 On ch=1 n=c4 v=86
157494 On ch=1 n=d#4 v=0
157604 On ch=1 n=f#5 v=118
157626 On ch=1 n=d#4 v=99
157646 On ch=1 n=c4 v=0
157686 On ch=1 n=f#5 v=0
157690 On ch=1 n=g#3 v=0
157692 Par ch=1 c=64 v=63
157704 Par ch=1 c=64 v=0
157740 On ch=1 n=d#4 v=0
157746 On ch=1 n=c4 v=74
157902 On ch=1 n=b3 v=108
157912 On ch=1 n=g5 v=112
157912 On ch=1 n=g3 v=103
157922 On ch=1 n=c4 v=0
157978 Par ch=1 c=64 v=63
157980 Par ch=1 c=64 v=127
158092 On ch=1 n=b3 v=0
158198 On ch=1 n=g5 v=0
158228 On ch=1 n=g4 v=116
158272 Par ch=1 c=64 v=63
158274 On ch=1 n=g3 v=0
158280 Par ch=1 c=64 v=0
158298 On ch=1 n=g4 v=0
158364 On ch=1 n=g5 v=100
158466 On ch=1 n=g5 v=0
158508 On ch=1 n=f#5 v=100
158612 On ch=1 n=g5 v=96
158622 On ch=1 n=f#5 v=0
158722 On ch=1 n=g5 v=0
158744 On ch=1 n=g#5 v=95
158826 On ch=1 n=g#5 v=0
158848 On ch=1 n=a5 v=96
158954 On ch=1 n=a5 v=0
158984 On ch=1 n=a#5 v=96
159104 On ch=1 n=b5 v=86
159116 On ch=1 n=a#5 v=0
159244 On ch=1 n=c6 v=99
159252 On ch=1 n=b5 v=0
159272 On ch=1 n=g#4 v=95
159274 On ch=1 n=c5 v=89
159322 On ch=1 n=c6 v=0
159340 On ch=1 n=c5 v=0
159358 On ch=1 n=g#4 v=0
159366 On ch=1 n=f#5 v=96
159458 On ch=1 n=f#5 v=0
159514 On ch=1 n=g4 v=101
159522 On ch=1 n=b4 v=102
159524 On ch=1 n=g5 v=103
159542 Par ch=1 c=64 v=63
159546 Par ch=1 c=64 v=127
159584 On ch=1 n=g5 v=0
159584 On ch=1 n=b4 v=0
159598 On ch=1 n=g4 v=0
159842 On ch=1 n=g3 v=103
159900 Par ch=1 c=64 v=63
159904 On ch=1 n=g3 v=0
159912 Par ch=1 c=64 v=0
159952 On ch=1 n=g4 v=87
160092 On ch=1 n=g4 v=0
160094 On ch=1 n=f#4 v=96
160208 On ch=1 n=g4 v=92
160222 On ch=1 n=f#4 v=0
160344 On ch=1 n=g#4 v=100
160366 On ch=1 n=g4 v=0
160460 On ch=1 n=a4 v=93
160466 On ch=1 n=g#4 v=0
160578 On ch=1 n=a#4 v=110
160616 On ch=1 n=a4 v=0
160712 On ch=1 n=b4 v=94
160764 On ch=1 n=a#4 v=0
160830 On ch=1 n=c5 v=107
160848 On ch=1 n=b4 v=0
160856 On ch=1 n=c4 v=106
160860 On ch=1 n=g#3 v=109
160924 On ch=1 n=c5 v=0
160952 On ch=1 n=c4 v=0
160966 On ch=1 n=g#3 v=0
160974 On ch=1 n=f#4 v=103
161058 On ch=1 n=f#4 v=0
161098 On ch=1 n=g3 v=107
161100 On ch=1 n=b3 v=103
161110 On ch=1 n=g4 v=107
161130 Par ch=1 c=64 v=63
161134 Par ch=1 c=64 v=127
161140 On ch=1 n=b3 v=0
161170 On ch=1 n=g3 v=0
161200 On ch=1 n=g4 v=0
161424 On ch=1 n=g2 v=109
161488 Par ch=1 c=64 v=63
161492 Par ch=1 c=64 v=0
161530 On ch=1 n=g2 v=0
161586 Par ch=1 c=64 v=63
161594 On ch=1 n=f#6 v=116
161596 Par ch=1 c=64 v=127
161706 On ch=1 n=g6 v=107
161756 On ch=1 n=f#6 v=0
161830 On ch=1 n=f#6 v=105
161884 On ch=1 n=g6 v=0
161926 On ch=1 n=f#6 v=0
161960 On ch=1 n=g6 v=117
162052 On ch=1 n=g6 v=0
162242 On ch=1 n=g4 v=107
162354 Par ch=1 c=64 v=63
162362 Par ch=1 c=64 v=0
162388 On ch=1 n=f#5 v=114
162488 Par ch=1 c=64 v=63
162492 On ch=1 n=g5 v=102
162494 On ch=1 n=f#5 v=0
162512 Par ch=1 c=64 v=127
162544 On ch=1 n=g4 v=0
162616 On ch=1 n=f#5 v=116
162664 On ch=1 n=g5 v=0
162710 On ch=1 n=f#5 v=0
162748 On ch=1 n=g5 v=114
162838 On ch=1 n=g5 v=0
163026 On ch=1 n=g3 v=118
163062 Par ch=1 c=64 v=63
163094 Par ch=1 c=64 v=0
163166 On ch=1 n=f#4 v=112
163256 On ch=1 n=f#4 v=0
163288 On ch=1 n=g4 v=103
163350 On ch=1 n=g3 v=0
163404 On ch=1 n=f#4 v=114
163454 On ch=1 n=g4 v=0
163494 On ch=1 n=f#4 v=0
163502 Par ch=1 c=64 v=63
163518 Par ch=1 c=64 v=127
163528 On ch=1 n=g4 v=113
163622 On ch=1 n=g4 v=0
163846 On ch=1 n=g2 v=127
164022 On ch=1 n=f#3 v=110
164108 On ch=1 n=f#3 v=0
164172 On ch=1 n=g3 v=112
164298 On ch=1 n=f#3 v=114
164350 On ch=1 n=g3 v=0
164358 Par ch=1 c=64 v=63
164370 Par ch=1 c=64 v=0
164384 On ch=1 n=f#3 v=0
164454 On ch=1 n=g3 v=122
164482 On ch=1 n=g2 v=0
164484 Par ch=1 c=64 v=63
164498 Par ch=1 c=64 v=127
164554 On ch=1 n=g3 v=0
164700 On ch=1 n=d3 v=106
164784 On ch=1 n=d3 v=0
164856 On ch=1 n=d#3 v=114
164950 On ch=1 n=d#3 v=0
164982 On ch=1 n=b2 v=114
165050 On ch=1 n=b2 v=0
165116 On ch=1 n=c3 v=116
165224 On ch=1 n=c3 v=0
165236 On ch=1 n=f#2 v=110
165418 On ch=1 n=g2 v=116
165422 On ch=1 n=f#2 v=0
165538 Par ch=1 c=64 v=63
165556 Par ch=1 c=64 v=0
165586 On ch=1 n=f#2 v=110
165620 On ch=1 n=g2 v=0
165716 On ch=1 n=g2 v=106
165722 Par ch=1 c=64 v=63
165742 Par ch=1 c=64 v=127
165756 On ch=1 n=f#2 v=0
165852 On ch=1 n=f#2 v=113
165876 On ch=1 n=g2 v=0
165984 On ch=1 n=f#2 v=0
165986 On ch=1 n=g2 v=102
166108 On ch=1 n=f#2 v=113
166148 On ch=1 n=g2 v=0
166202 On ch=1 n=f#2 v=0
166282 On ch=1 n=g2 v=116
166448 Par ch=1 c=64 v=63
166456 On ch=1 n=b2 v=106
166472 Par ch=1 c=64 v=0
166602 On ch=1 n=d3 v=112
166612 Par ch=1 c=64 v=63
166616 On ch=1 n=g2 v=0
166630 Par ch=1 c=64 v=127
166672 On ch=1 n=b2 v=0
166720 On ch=1 n=g3 v=111
166724 On ch=1 n=d3 v=0
166810 On ch=1 n=g3 v=0
166854 On ch=1 n=b3 v=112
166974 On ch=1 n=d4 v=112
167106 On ch=1 n=g4 v=112
167246 On ch=1 n=b4 v=107
167324 On ch=1 n=d4 v=0
167356 On ch=1 n=g4 v=0
167374 On ch=1 n=d5 v=112
167380 On ch=1 n=b4 v=0
167420 On ch=1 n=b3 v=0
167490 On ch=1 n=g5 v=108
167510 On ch=1 n=d5 v=0
167562 On ch=1 n=g5 v=0
167632 On ch=1 n=b5 v=104
167696 On ch=1 n=b5 v=0
167738 On ch=1 n=d6 v=97
167798 On ch=1 n=d6 v=0
167924 On ch=1 n=f7 v=107
167932 On ch=1 n=f6 v=101
167986 Par ch=1 c=64 v=127
168178 Par ch=1 c=64 v=63
168186 Par ch=1 c=64 v=0
168240 Par ch=1 c=64 v=63
168248 Par ch=1 c=64 v=127
168326 On ch=1 n=g#2 v=104
168326 On ch=1 n=g#3 v=120
168384 On ch=1 n=g#2 v=0
168394 On ch=1 n=g#3 v=0
168504 On ch=1 n=f7 v=0
168546 On ch=1 n=f6 v=0
168682 On ch=1 n=g#4 v=121
168690 On ch=1 n=g#3 v=113
168962 On ch=1 n=b6 v=109
168966 On ch=1 n=b5 v=109
169040 On ch=1 n=g#4 v=0
169052 On ch=1 n=g#3 v=0
169124 Par ch=1 c=64 v=63
169130 Par ch=1 c=64 v=0
169196 Par ch=1 c=64 v=63
169210 Par ch=1 c=64 v=127
169254 On ch=1 n=g4 v=107
169262 On ch=1 n=g3 v=104
169358 On ch=1 n=g3 v=0
169358 On ch=1 n=g4 v=0
169526 On ch=1 n=f4 v=108
169534 On ch=1 n=f3 v=93
169552 On ch=1 n=b5 v=0
169600 On ch=1 n=f4 v=0
169600 On ch=1 n=b6 v=0
169606 On ch=1 n=f3 v=0
169806 Par ch=1 c=64 v=63
169814 Par ch=1 c=64 v=0
169816 On ch=1 n=e4 v=116
169816 On ch=1 n=e3 v=116
169908 Par ch=1 c=64 v=63
169928 Par ch=1 c=64 v=127
169976 On ch=1 n=e3 v=0
170034 On ch=1 n=e4 v=0
170058 On ch=1 n=c6 v=107
170058 On ch=1 n=c7 v=101
170124 On ch=1 n=c7 v=0
170132 On ch=1 n=c6 v=0
170406 On ch=1 n=a#3 v=95
170410 On ch=1 n=e5 v=112
170410 On ch=1 n=e6 v=114
170412 On ch=1 n=a#4 v=110
170472 On ch=1 n=a#4 v=0
170482 On ch=1 n=a#3 v=0
170716 On ch=1 n=a4 v=117
170724 On ch=1 n=a3 v=107
170734 Par ch=1 c=64 v=63
170742 Par ch=1 c=64 v=0
170834 On ch=1 n=e6 v=0
170858 On ch=1 n=e5 v=0
170906 Par ch=1 c=64 v=63
170926 Par ch=1 c=64 v=127
170982 On ch=1 n=a3 v=0
170984 On ch=1 n=f5 v=109
170986 On ch=1 n=f6 v=111
171044 On ch=1 n=f5 v=0
171068 On ch=1 n=a4 v=0
171076 On ch=1 n=f6 v=0
171112 Par ch=1 c=64 v=63
171126 Par ch=1 c=64 v=0
171292 On ch=1 n=f#6 v=115
171294 On ch=1 n=g#4 v=119
171316 Par ch=1 c=64 v=63
171324 Par ch=1 c=64 v=127
171526 On ch=1 n=g#4 v=0
171628 On ch=1 n=g4 v=81
171674 Par ch=1 c=64 v=63
171704 Par ch=1 c=64 v=0
171738 Par ch=1 c=64 v=63
171784 Par ch=1 c=64 v=127
171906 On ch=1 n=g6 v=91
171962 On ch=1 n=f#6 v=0
172194 On ch=1 n=g6 v=0
172230 Par ch=1 c=64 v=63
172240 On ch=1 n=f#4 v=78
172244 On ch=1 n=a6 v=93
172246 On ch=1 n=c6 v=90
172252 Par ch=1 c=64 v=127
172258 On ch=1 n=d#5 v=58
172266 On ch=1 n=g4 v=0
172354 On ch=1 n=a6 v=0
172382 On ch=1 n=c6 v=0
172476 On ch=1 n=d#5 v=0
172492 On ch=1 n=f#4 v=0
172670 On ch=1 n=d#5 v=66
172676 On ch=1 n=c6 v=83
172678 On ch=1 n=g4 v=57
172692 On ch=1 n=g5 v=63
172792 Par ch=1 c=64 v=63
172816 Par ch=1 c=64 v=0
172894 Par ch=1 c=64 v=63
172928 Par ch=1 c=64 v=127
172976 On ch=1 n=g5 v=0
173022 On ch=1 n=c6 v=0
173036 On ch=1 n=d#5 v=0
173352 Par ch=1 c=64 v=63
173362 On ch=1 n=d#6 v=79
173364 On ch=1 n=f5 v=69
173378 On ch=1 n=b5 v=61
173408 Par ch=1 c=64 v=127
173424 On ch=1 n=f5 v=0
173438 On ch=1 n=g4 v=0
173488 On ch=1 n=d6 v=75
173494 On ch=1 n=d#6 v=0
173506 On ch=1 n=b5 v=0
173666 Par ch=1 c=64 v=63
173708 On ch=1 n=c4 v=59
173728 On ch=1 n=c6 v=78
173736 On ch=1 n=d6 v=0
173760 Par ch=1 c=64 v=127
173908 On ch=1 n=g4 v=38
173998 On ch=1 n=c6 v=0
174042 On ch=1 n=c4 v=0
174066 On ch=1 n=d#4 v=64
174078 On ch=1 n=g4 v=0
174164 On ch=1 n=d#4 v=0
174178 On ch=1 n=c6 v=75
174200 On ch=1 n=g4 v=53
174298 On ch=1 n=c6 v=0
174310 On ch=1 n=b5 v=74
174324 On ch=1 n=g4 v=0
174328 On ch=1 n=c4 v=71
174330 Par ch=1 c=64 v=63
174352 Par ch=1 c=64 v=0
174424 On ch=1 n=b5 v=0
174436 On ch=1 n=g4 v=61
174438 On ch=1 n=c4 v=0
174448 On ch=1 n=c6 v=74
174556 On ch=1 n=c6 v=0
174558 On ch=1 n=g4 v=0
174582 On ch=1 n=b3 v=79
174584 On ch=1 n=c#6 v=87
174656 Par ch=1 c=64 v=63
174666 Par ch=1 c=64 v=127
174670 On ch=1 n=c#6 v=0
174674 On ch=1 n=b3 v=0
174688 On ch=1 n=g4 v=60
174704 On ch=1 n=d6 v=76
174774 On ch=1 n=d6 v=0
174850 On ch=1 n=f4 v=82
174852 On ch=1 n=g4 v=0
174966 On ch=1 n=f4 v=0
174974 On ch=1 n=g4 v=79
174996 On ch=1 n=d6 v=91
175114 On ch=1 n=b3 v=81
175120 On ch=1 n=c#6 v=96
175122 On ch=1 n=g4 v=0
175140 On ch=1 n=d6 v=0
175240 On ch=1 n=b3 v=0
175244 On ch=1 n=g4 v=78
175248 On ch=1 n=d6 v=97
175256 On ch=1 n=c#6 v=0
175276 Par ch=1 c=64 v=63
175296 Par ch=1 c=64 v=0
175382 On ch=1 n=a#3 v=99
175388 On ch=1 n=d#6 v=97
175404 On ch=1 n=d6 v=0
175408 On ch=1 n=g4 v=0
175432 Par ch=1 c=64 v=63
175462 Par ch=1 c=64 v=127
175502 On ch=1 n=e6 v=93
175510 On ch=1 n=d#6 v=0
175518 On ch=1 n=a#3 v=0
175518 On ch=1 n=g4 v=72
175598 On ch=1 n=e6 v=0
175656 On ch=1 n=c4 v=102
175662 Par ch=1 c=64 v=63
175676 On ch=1 n=g4 v=0
175702 Par ch=1 c=64 v=0
175732 Par ch=1 c=64 v=63
175784 On ch=1 n=g4 v=84
175804 On ch=1 n=c4 v=0
175806 On ch=1 n=e6 v=103
175826 Par ch=1 c=64 v=127
175938 On ch=1 n=d#6 v=109
175956 On ch=1 n=a#3 v=99
175960 On ch=1 n=e6 v=0
175962 On ch=1 n=g4 v=0
176048 On ch=1 n=e6 v=102
176064 On ch=1 n=g4 v=86
176072 On ch=1 n=d#6 v=0
176096 On ch=1 n=a#3 v=0
176136 On ch=1 n=e6 v=0
176154 Par ch=1 c=64 v=63
176192 On ch=1 n=g4 v=0
176194 On ch=1 n=g#3 v=108
176196 On ch=1 n=e6 v=112
176238 Par ch=1 c=64 v=127
176328 On ch=1 n=f4 v=94
176340 On ch=1 n=f6 v=117
176386 On ch=1 n=e6 v=0
176392 On ch=1 n=g#3 v=0
176484 On ch=1 n=c4 v=112
176498 On ch=1 n=f4 v=0
176518 On ch=1 n=f6 v=0
176616 On ch=1 n=f4 v=94
176630 On ch=1 n=f6 v=116
176650 On ch=1 n=c4 v=0
176758 On ch=1 n=e6 v=111
176762 On ch=1 n=g#3 v=102
176778 On ch=1 n=f4 v=0
176788 On ch=1 n=f6 v=0
176860 On ch=1 n=f4 v=84
176866 On ch=1 n=e6 v=0
176878 Par ch=1 c=64 v=63
176882 On ch=1 n=f6 v=113
176888 Par ch=1 c=64 v=0
176898 On ch=1 n=g#3 v=0
176940 On ch=1 n=f4 v=0
177014 On ch=1 n=d#3 v=116
177016 On ch=1 n=g6 v=112
177048 On ch=1 n=f6 v=0
177062 Par ch=1 c=64 v=63
177078 Par ch=1 c=64 v=127
177082 On ch=1 n=d#3 v=0
177162 On ch=1 n=c6 v=99
177168 On ch=1 n=g6 v=0
177224 On ch=1 n=c6 v=0
177284 On ch=1 n=c7 v=107
177370 On ch=1 n=c7 v=0
177420 On ch=1 n=c7 v=106
177492 On ch=1 n=c7 v=0
177546 On ch=1 n=c7 v=104
177612 On ch=1 n=c7 v=0
177676 On ch=1 n=c7 v=84
177744 On ch=1 n=c7 v=0
177810 On ch=1 n=d5 v=86
177818 On ch=1 n=f4 v=84
177856 Par ch=1 c=64 v=63
177880 Par ch=1 c=64 v=0
177936 On ch=1 n=d6 v=84
178026 On ch=1 n=d6 v=0
178076 On ch=1 n=g#6 v=92
178154 On ch=1 n=g#6 v=0
178196 On ch=1 n=g#6 v=104
178262 On ch=1 n=g#6 v=0
178322 On ch=1 n=g#6 v=98
178354 Par ch=1 c=64 v=63
178400 Par ch=1 c=64 v=127
178404 On ch=1 n=g#6 v=0
178442 On ch=1 n=f4 v=0
178460 On ch=1 n=g#6 v=96
178490 On ch=1 n=d5 v=0
178538 On ch=1 n=g#6 v=0
178636 On ch=1 n=d#5 v=90
178650 On ch=1 n=g4 v=62
178748 On ch=1 n=c6 v=83
178814 Par ch=1 c=64 v=63
178870 On ch=1 n=c6 v=0
178894 On ch=1 n=g6 v=82
178950 Par ch=1 c=64 v=127
178976 On ch=1 n=g6 v=0
179024 On ch=1 n=g6 v=88
179090 On ch=1 n=g6 v=0
179136 On ch=1 n=g4 v=0
179140 On ch=1 n=g6 v=87
179172 On ch=1 n=d#5 v=0
179224 On ch=1 n=g6 v=0
179272 On ch=1 n=g6 v=76
179338 On ch=1 n=g6 v=0
179404 On ch=1 n=g4 v=74
179406 On ch=1 n=d5 v=84
179456 Par ch=1 c=64 v=63
179562 On ch=1 n=f5 v=76
179580 Par ch=1 c=64 v=127
179682 On ch=1 n=f5 v=0
179690 On ch=1 n=b5 v=83
179772 On ch=1 n=b5 v=0
179774 On ch=1 n=d5 v=0
179812 On ch=1 n=b5 v=86
179870 On ch=1 n=g4 v=0
179878 On ch=1 n=b5 v=0
179940 On ch=1 n=b5 v=88
179992 On ch=1 n=b5 v=0
180062 On ch=1 n=b5 v=82
180182 On ch=1 n=b5 v=0
180200 Par ch=1 c=64 v=63
180256 On ch=1 n=c4 v=76
180256 On ch=1 n=c6 v=75
180280 On ch=1 n=d#5 v=71
180314 Par ch=1 c=64 v=127
180366 On ch=1 n=g4 v=54
180408 On ch=1 n=c6 v=0
180468 On ch=1 n=d#5 v=0
180534 On ch=1 n=d#4 v=84
180540 On ch=1 n=g4 v=0
180566 On ch=1 n=c4 v=0
180690 On ch=1 n=g4 v=59
180692 On ch=1 n=c5 v=91
180698 On ch=1 n=d#4 v=0
180832 On ch=1 n=b4 v=85
180836 On ch=1 n=c5 v=0
180836 On ch=1 n=c4 v=64
180840 On ch=1 n=g4 v=0
180936 On ch=1 n=c5 v=97
180952 On ch=1 n=g4 v=65
180970 On ch=1 n=c4 v=0
180984 On ch=1 n=b4 v=0
181062 On ch=1 n=c#5 v=99
181068 Par ch=1 c=64 v=63
181086 On ch=1 n=b3 v=84
181094 On ch=1 n=c5 v=0
181096 Par ch=1 c=64 v=0
181100 On ch=1 n=g4 v=0
181166 Par ch=1 c=64 v=63
181196 On ch=1 n=g4 v=54
181202 On ch=1 n=d5 v=87
181210 Par ch=1 c=64 v=127
181220 On ch=1 n=c#5 v=0
181228 On ch=1 n=b3 v=0
181302 On ch=1 n=d5 v=0
181358 On ch=1 n=f4 v=93
181374 On ch=1 n=g4 v=0
181394 Par ch=1 c=64 v=63
181470 On ch=1 n=g4 v=84
181488 Par ch=1 c=64 v=127
181490 On ch=1 n=f4 v=0
181498 On ch=1 n=d5 v=103
181602 On ch=1 n=b3 v=90
181616 On ch=1 n=c#5 v=109
181620 On ch=1 n=g4 v=0
181652 On ch=1 n=d5 v=0
181732 On ch=1 n=d5 v=109
181734 On ch=1 n=g4 v=81
181740 On ch=1 n=b3 v=0
181772 On ch=1 n=c#5 v=0
181784 Par ch=1 c=64 v=63
181800 Par ch=1 c=64 v=0
181860 On ch=1 n=d#5 v=112
181878 On ch=1 n=a#3 v=112
181892 On ch=1 n=d5 v=0
181900 On ch=1 n=g4 v=0
181906 Par ch=1 c=64 v=63
181928 Par ch=1 c=64 v=127
181990 On ch=1 n=e5 v=106
182000 On ch=1 n=g4 v=88
182022 On ch=1 n=d#5 v=0
182024 On ch=1 n=a#3 v=0
182078 On ch=1 n=e5 v=0
182146 On ch=1 n=c4 v=111
182162 On ch=1 n=g4 v=0
182242 Par ch=1 c=64 v=63
182258 Par ch=1 c=64 v=0
182264 On ch=1 n=c4 v=0
182266 On ch=1 n=e5 v=107
182270 On ch=1 n=g4 v=89
182390 On ch=1 n=d#5 v=109
182412 On ch=1 n=e5 v=0
182412 On ch=1 n=a#3 v=107
182414 On ch=1 n=g4 v=0
182496 On ch=1 n=e5 v=102
182506 On ch=1 n=d#5 v=0
182514 On ch=1 n=g4 v=86
182520 On ch=1 n=a#3 v=0
182578 On ch=1 n=e5 v=0
182616 On ch=1 n=g4 v=0
182638 On ch=1 n=a3 v=111
182654 On ch=1 n=e5 v=113
182726 Par ch=1 c=64 v=63
182732 Par ch=1 c=64 v=127
182764 On ch=1 n=f4 v=84
182786 On ch=1 n=f5 v=109
182790 On ch=1 n=a3 v=0
182800 On ch=1 n=e5 v=0
182874 On ch=1 n=f5 v=0
182900 On ch=1 n=f4 v=0
182914 On ch=1 n=c4 v=104
182944 Par ch=1 c=64 v=63
182950 Par ch=1 c=64 v=0
183048 On ch=1 n=c4 v=0
183048 On ch=1 n=f4 v=85
183068 On ch=1 n=f5 v=107
183166 On ch=1 n=a3 v=96
183182 On ch=1 n=f4 v=0
183182 On ch=1 n=e5 v=98
183212 On ch=1 n=f5 v=0
183284 On ch=1 n=e5 v=0
183296 On ch=1 n=a3 v=0
183300 On ch=1 n=f4 v=78
183308 On ch=1 n=f5 v=104
183386 On ch=1 n=f5 v=0
183410 On ch=1 n=f4 v=0
183438 On ch=1 n=f5 v=112
183440 Par ch=1 c=64 v=63
183440 On ch=1 n=g#3 v=110
183442 Par ch=1 c=64 v=127
183558 On ch=1 n=g#3 v=0
183560 On ch=1 n=f#5 v=116
183576 On ch=1 n=d#4 v=97
183596 On ch=1 n=f5 v=0
183642 On ch=1 n=f#5 v=0
183702 On ch=1 n=c4 v=94
183706 On ch=1 n=d#4 v=0
183744 Par ch=1 c=64 v=63
183750 Par ch=1 c=64 v=0
183820 On ch=1 n=d#4 v=92
183832 On ch=1 n=f#5 v=118
183854 On ch=1 n=c4 v=0
183950 On ch=1 n=f5 v=104
183974 On ch=1 n=g#3 v=109
183988 On ch=1 n=d#4 v=0
183996 On ch=1 n=f#5 v=0
184064 On ch=1 n=f#5 v=112
184076 On ch=1 n=d#4 v=96
184088 On ch=1 n=f5 v=0
184104 On ch=1 n=g#3 v=0
184136 On ch=1 n=f#5 v=0
184194 On ch=1 n=d#4 v=0
184202 On ch=1 n=f#5 v=120
184204 On ch=1 n=g3 v=111
184216 Par ch=1 c=64 v=127
184324 On ch=1 n=d#4 v=98
184344 On ch=1 n=g5 v=113
184366 On ch=1 n=g3 v=0
184366 On ch=1 n=f#5 v=0
184444 On ch=1 n=g5 v=0
184484 On ch=1 n=c4 v=94
184496 On ch=1 n=d#4 v=0
184548 Par ch=1 c=64 v=63
184560 Par ch=1 c=64 v=0
184620 On ch=1 n=d#4 v=99
184624 On ch=1 n=g5 v=109
184654 On ch=1 n=c4 v=0
184738 On ch=1 n=f#5 v=119
184740 On ch=1 n=c4 v=84
184756 On ch=1 n=d#4 v=0
184776 On ch=1 n=g5 v=0
184850 On ch=1 n=d#4 v=97
184862 On ch=1 n=g5 v=107
184880 On ch=1 n=c4 v=0
184892 On ch=1 n=f#5 v=0
184974 On ch=1 n=f#3 v=116
184984 On ch=1 n=g5 v=0
185004 On ch=1 n=a5 v=113
185028 On ch=1 n=d#4 v=0
185264 Par ch=1 c=64 v=63
185266 Par ch=1 c=64 v=127
185322 On ch=1 n=a5 v=0
185326 On ch=1 n=c6 v=99
185530 On ch=1 n=f#3 v=0
185596 On ch=1 n=d#6 v=110
185654 On ch=1 n=c6 v=0
185870 On ch=1 n=f#4 v=91
185990 Par ch=1 c=64 v=63
186014 Par ch=1 c=64 v=0
186134 Par ch=1 c=64 v=63
186152 Par ch=1 c=64 v=127
186168 On ch=1 n=d6 v=92
186224 On ch=1 n=d#6 v=0
186290 On ch=1 n=f#4 v=0
186426 On ch=1 n=c6 v=92
186518 On ch=1 n=d6 v=0
186694 On ch=1 n=f5 v=70
186710 On ch=1 n=g4 v=52
186710 On ch=1 n=d5 v=71
186834 Par ch=1 c=64 v=63
186860 Par ch=1 c=64 v=0
186954 Par ch=1 c=64 v=63
186958 On ch=1 n=c6 v=0
186966 On ch=1 n=b5 v=85
186988 Par ch=1 c=64 v=127
187098 On ch=1 n=b5 v=0
187144 On ch=1 n=d5 v=0
187152 On ch=1 n=g4 v=0
187158 On ch=1 n=f5 v=0
187208 On ch=1 n=f6 v=112
187482 On ch=1 n=f5 v=99
187484 On ch=1 n=d5 v=94
187484 On ch=1 n=g#4 v=100
187588 Par ch=1 c=64 v=63
187690 On ch=1 n=f6 v=0
187700 Par ch=1 c=64 v=127
187736 On ch=1 n=d6 v=97
187950 On ch=1 n=d6 v=0
188020 On ch=1 n=b6 v=109
188096 On ch=1 n=g#4 v=0
188096 On ch=1 n=d5 v=0
188116 On ch=1 n=f5 v=0
188298 On ch=1 n=g4 v=103
188300 On ch=1 n=f5 v=111
188302 On ch=1 n=d5 v=106
188312 Par ch=1 c=64 v=63
188326 Par ch=1 c=64 v=0
188438 Par ch=1 c=64 v=63
188456 Par ch=1 c=64 v=127
188540 On ch=1 n=b6 v=0
188568 On ch=1 n=f6 v=112
188782 On ch=1 n=g4 v=0
188808 On ch=1 n=f6 v=0
188818 On ch=1 n=d5 v=0
188850 On ch=1 n=f5 v=0
188870 On ch=1 n=d7 v=122
189156 On ch=1 n=d5 v=106
189158 On ch=1 n=f5 v=112
189160 On ch=1 n=g#4 v=110
189428 On ch=1 n=b6 v=108
189432 Par ch=1 c=64 v=63
189462 Par ch=1 c=64 v=0
189478 Par ch=1 c=64 v=63
189500 On ch=1 n=d7 v=0
189516 Par ch=1 c=64 v=127
189784 On ch=1 n=b6 v=0
189800 On ch=1 n=f7 v=118
189848 On ch=1 n=d5 v=0
189860 On ch=1 n=g#4 v=0
189888 On ch=1 n=f5 v=0
190074 On ch=1 n=f7 v=0
190248 On ch=1 n=f5 v=116
190250 On ch=1 n=g4 v=94
190254 On ch=1 n=d5 v=109
190588 On ch=1 n=d7 v=104
190724 Par ch=1 c=64 v=63
190782 Par ch=1 c=64 v=127
190828 On ch=1 n=d7 v=0
190840 On ch=1 n=b6 v=84
191018 On ch=1 n=g#6 v=100
191038 On ch=1 n=b6 v=0
191174 On ch=1 n=f6 v=88
191234 On ch=1 n=g#6 v=0
191302 On ch=1 n=d6 v=77
191306 On ch=1 n=f6 v=0
191376 On ch=1 n=d6 v=0
191436 On ch=1 n=b5 v=98
191468 On ch=1 n=f5 v=0
191562 On ch=1 n=d5 v=0
191566 On ch=1 n=g#5 v=103
191600 On ch=1 n=b5 v=0
191712 On ch=1 n=f5 v=90
191814 On ch=1 n=g#5 v=0
191848 On ch=1 n=d5 v=96
191928 On ch=1 n=f5 v=0
191964 On ch=1 n=g4 v=0
191998 On ch=1 n=b4 v=88
192032 On ch=1 n=d5 v=0
192138 On ch=1 n=g#4 v=97
192166 On ch=1 n=b4 v=0
192338 On ch=1 n=g4 v=84
192400 On ch=1 n=g#4 v=0
192500 Par ch=1 c=64 v=63
192538 Par ch=1 c=64 v=0
192552 On ch=1 n=g5 v=74
192704 On ch=1 n=g#5 v=78
192714 On ch=1 n=g5 v=0
192784 Par ch=1 c=64 v=63
192832 On ch=1 n=g#5 v=0
192840 On ch=1 n=a5 v=72
192946 Par ch=1 c=64 v=0
192960 On ch=1 n=a#5 v=91
192972 On ch=1 n=a5 v=0
193074 On ch=1 n=a#5 v=0
193088 On ch=1 n=b5 v=80
193102 On ch=1 n=g4 v=0
193210 On ch=1 n=c6 v=90
193238 On ch=1 n=b5 v=0
193340 On ch=1 n=d6 v=99
193368 On ch=1 n=c6 v=0
193460 On ch=1 n=d#6 v=78
193468 On ch=1 n=d6 v=0
193596 On ch=1 n=e6 v=91
193604 On ch=1 n=d#6 v=0
193736 On ch=1 n=e6 v=0
193750 On ch=1 n=f6 v=70
193904 On ch=1 n=f#6 v=69
193922 On ch=1 n=f6 v=0
194130 On ch=1 n=f#6 v=0
194162 On ch=1 n=g6 v=67
194178 On ch=1 n=d#5 v=62
194186 On ch=1 n=c5 v=41
194396 Par ch=1 c=64 v=63
194404 Par ch=1 c=64 v=127
194554 On ch=1 n=d#6 v=72
194588 On ch=1 n=g6 v=0
194816 On ch=1 n=c6 v=68
194844 On ch=1 n=d#6 v=0
194966 On ch=1 n=d#5 v=0
195052 On ch=1 n=f5 v=57
195062 On ch=1 n=d5 v=51
195112 On ch=1 n=c5 v=0
195142 Par ch=1 c=64 v=63
195164 Par ch=1 c=64 v=0
195326 Par ch=1 c=64 v=63
195338 On ch=1 n=c6 v=0
195340 On ch=1 n=b5 v=73
195350 Par ch=1 c=64 v=127
195542 On ch=1 n=b5 v=0
195606 On ch=1 n=d5 v=0
195628 On ch=1 n=g#6 v=88
195764 On ch=1 n=f5 v=0
195882 On ch=1 n=b4 v=65
195888 Par ch=1 c=64 v=63
195888 On ch=1 n=d5 v=73
195938 Par ch=1 c=64 v=0
195974 Par ch=1 c=64 v=63
196062 Par ch=1 c=64 v=127
196168 On ch=1 n=g6 v=76
196172 On ch=1 n=g#6 v=0
196432 On ch=1 n=f6 v=78
196446 On ch=1 n=d5 v=0
196510 On ch=1 n=g6 v=0
196578 On ch=1 n=b4 v=0
196700 Par ch=1 c=64 v=63
196706 On ch=1 n=g5 v=42
196712 On ch=1 n=c5 v=51
196810 Par ch=1 c=64 v=127
196836 On ch=1 n=f6 v=0
197004 On ch=1 n=d#6 v=54
197052 On ch=1 n=c5 v=0
197100 On ch=1 n=g5 v=0
197126 On ch=1 n=d#6 v=0
197294 On ch=1 n=g6 v=60
197574 On ch=1 n=d#5 v=70
197578 On ch=1 n=g5 v=50
197650 Par ch=1 c=64 v=63
197684 Par ch=1 c=64 v=0
197820 Par ch=1 c=64 v=63
197842 On ch=1 n=c7 v=79
197844 Par ch=1 c=64 v=127
197900 On ch=1 n=g6 v=0
198068 On ch=1 n=d#5 v=0
198096 On ch=1 n=a#6 v=95
198116 On ch=1 n=e5 v=67
198140 On ch=1 n=c7 v=0
198244 On ch=1 n=e5 v=0
198364 On ch=1 n=g#5 v=77
198366 On ch=1 n=f5 v=63
198384 On ch=1 n=g5 v=0
198546 Par ch=1 c=64 v=63
198588 Par ch=1 c=64 v=0
198630 Par ch=1 c=64 v=63
198634 On ch=1 n=g#6 v=99
198692 Par ch=1 c=64 v=127
198732 On ch=1 n=a#6 v=0
198766 On ch=1 n=f5 v=0
198872 On ch=1 n=g6 v=96
198880 On ch=1 n=g#5 v=0
198888 On ch=1 n=a#5 v=73
198900 On ch=1 n=g5 v=68
198956 On ch=1 n=g#6 v=0
199036 On ch=1 n=a#5 v=0
199104 On ch=1 n=g5 v=0
199186 On ch=1 n=c6 v=74
199190 On ch=1 n=g#5 v=66
199292 Par ch=1 c=64 v=63
199322 Par ch=1 c=64 v=0
199482 On ch=1 n=f6 v=78
199522 On ch=1 n=g6 v=0
199788 On ch=1 n=g#5 v=0
199798 On ch=1 n=f#6 v=73
199800 On ch=1 n=a5 v=45
199842 On ch=1 n=f6 v=0
199894 Par ch=1 c=64 v=63
199906 Par ch=1 c=64 v=127
200138 On ch=1 n=g5 v=44
200192 On ch=1 n=a5 v=0
200234 Par ch=1 c=64 v=63
200282 Par ch=1 c=64 v=127
200534 On ch=1 n=f#6 v=0
200550 On ch=1 n=g6 v=54
200578 On ch=1 n=b5 v=38
200644 Par ch=1 c=64 v=63
200662 On ch=1 n=c6 v=0
200686 Par ch=1 c=64 v=127
200864 On ch=1 n=g5 v=0
200910 On ch=1 n=b5 v=0
200930 On ch=1 n=g6 v=0
201090 On ch=1 n=g5 v=72
201166 On ch=1 n=g5 v=0
201692 On ch=1 n=d#4 v=49
201714 On ch=1 n=c4 v=31
202000 On ch=1 n=d#5 v=72
202292 On ch=1 n=c5 v=85
202346 On ch=1 n=d#5 v=0
202390 On ch=1 n=d#4 v=0
202522 On ch=1 n=c4 v=0
202570 On ch=1 n=c5 v=0
202678 On ch=1 n=c5 v=87
202712 On ch=1 n=g#4 v=40
202746 On ch=1 n=f4 v=50
202748 On ch=1 n=d4 v=51
202954 Par ch=1 c=64 v=63
203034 Par ch=1 c=64 v=0
203550 Par ch=1 c=64 v=63
203608 Par ch=1 c=64 v=127
204076 On ch=1 n=b4 v=44
204130 Par ch=1 c=64 v=63
204248 On ch=1 n=c5 v=0
204308 Par ch=1 c=64 v=127
204634 On ch=1 n=b4 v=0
204724 On ch=1 n=g#4 v=0
204870 On ch=1 n=d4 v=0
204884 On ch=1 n=f4 v=0
205160 Par ch=1 c=64 v=63
205274 Par ch=1 c=64 v=0
205754 Par ch=1 c=64 v=63
205838 Par ch=1 c=64 v=127
205850 On ch=1 n=g#5 v=46
206244 On ch=1 n=g#5 v=0
206246 On ch=1 n=d4 v=36
206248 On ch=1 n=b3 v=35
206588 On ch=1 n=g5 v=50
206884 On ch=1 n=d4 v=0
206898 On ch=1 n=f5 v=70
206908 On ch=1 n=b3 v=0
206958 On ch=1 n=g5 v=0
207248 On ch=1 n=f5 v=0
207370 On ch=1 n=g4 v=32
207378 On ch=1 n=f5 v=59
207378 On ch=1 n=a#3 v=41
207384 On ch=1 n=c#4 v=38
207604 Par ch=1 c=64 v=63
207668 Par ch=1 c=64 v=0
207948 Par ch=1 c=64 v=63
208006 Par ch=1 c=64 v=127
208958 On ch=1 n=e5 v=38
209028 On ch=1 n=f5 v=0
209320 Par ch=1 c=64 v=63
209408 Par ch=1 c=64 v=0
209556 Par ch=1 c=64 v=63
209614 Par ch=1 c=64 v=127
209934 On ch=1 n=c#4 v=0
209956 On ch=1 n=a#3 v=0
209976 On ch=1 n=e5 v=0
209992 On ch=1 n=g4 v=0
210470 Par ch=1 c=64 v=63
210678 Par ch=1 c=64 v=0
211258 Par ch=1 c=64 v=63
211340 Par ch=1 c=64 v=127
211440 On ch=1 n=a#5 v=70
211788 On ch=1 n=c5 v=57
211806 On ch=1 n=e4 v=56
212118 On ch=1 n=g#5 v=81
212208 Par ch=1 c=64 v=63
212216 On ch=1 n=a#5 v=0
212412 Par ch=1 c=64 v=127
212480 On ch=1 n=g5 v=71
212600 On ch=1 n=g#5 v=0
212736 On ch=1 n=c5 v=0
212944 On ch=1 n=g5 v=0
213008 On ch=1 n=g5 v=76
213016 On ch=1 n=c5 v=48
213032 On ch=1 n=f4 v=41
213132 On ch=1 n=e4 v=0
213340 Par ch=1 c=64 v=63
213408 Par ch=1 c=64 v=0
214278 Par ch=1 c=64 v=63
214334 Par ch=1 c=64 v=127
214784 On ch=1 n=g#5 v=34
214922 On ch=1 n=g5 v=0
215186 Par ch=1 c=64 v=63
215226 Par ch=1 c=64 v=0
215418 Par ch=1 c=64 v=63
215444 Par ch=1 c=64 v=127
216034 On ch=1 n=g#5 v=0
216074 On ch=1 n=f4 v=0
216168 On ch=1 n=c5 v=0
216216 Par ch=1 c=64 v=63
216360 Par ch=1 c=64 v=0
217028 Par ch=1 c=64 v=63
217074 Par ch=1 c=64 v=127
217386 On ch=1 n=b5 v=68
217698 On ch=1 n=g#4 v=57
217734 On ch=1 n=f4 v=41
218154 On ch=1 n=c6 v=96
218258 On ch=1 n=b5 v=0
218644 On ch=1 n=d6 v=103
218748 On ch=1 n=c6 v=0
219440 On ch=1 n=d6 v=0
219488 On ch=1 n=f#4 v=80
219494 On ch=1 n=d6 v=100
219502 On ch=1 n=a4 v=71
219596 On ch=1 n=f4 v=0
219662 On ch=1 n=g#4 v=0
219866 Par ch=1 c=64 v=63
219974 Par ch=1 c=64 v=0
220984 Par ch=1 c=64 v=63
221024 Par ch=1 c=64 v=127
221644 On ch=1 n=f6 v=55
221896 On ch=1 n=d#6 v=49
221982 On ch=1 n=d6 v=0
222012 On ch=1 n=f6 v=0
222192 Par ch=1 c=64 v=63
222266 Par ch=1 c=64 v=0
222302 Par ch=1 c=64 v=63
222400 Par ch=1 c=64 v=127
223120 On ch=1 n=d#6 v=0
223180 On ch=1 n=f#4 v=0
223184 On ch=1 n=a4 v=0
223232 Par ch=1 c=64 v=63
223348 Par ch=1 c=64 v=0
223738 Par ch=1 c=64 v=63
223820 Par ch=1 c=64 v=127
223840 On ch=1 n=c6 v=53
223910 On ch=1 n=c6 v=0
224110 On ch=1 n=d6 v=72
224128 On ch=1 n=d#5 v=64
224128 On ch=1 n=a4 v=45
224130 On ch=1 n=c6 v=80
224134 On ch=1 n=f#5 v=67
224174 Par ch=1 c=64 v=63
224198 On ch=1 n=d6 v=0
224272 Par ch=1 c=64 v=0
224304 Par ch=1 c=64 v=63
224378 On ch=1 n=c6 v=0
224388 On ch=1 n=b5 v=69
224462 Par ch=1 c=64 v=127
224556 On ch=1 n=a4 v=0
224562 On ch=1 n=d#5 v=0
224568 On ch=1 n=f#5 v=0
224596 On ch=1 n=b5 v=0
224656 On ch=1 n=c6 v=52
224798 On ch=1 n=c6 v=0
224934 On ch=1 n=d#5 v=71
224940 On ch=1 n=g5 v=64
224942 Par ch=1 c=64 v=63
224952 On ch=1 n=g4 v=50
224964 Par ch=1 c=64 v=0
225008 On ch=1 n=g5 v=0
225010 On ch=1 n=d#5 v=0
225024 On ch=1 n=g4 v=0
225720 On ch=1 n=b4 v=68
225742 On ch=1 n=d4 v=52
225748 On ch=1 n=f4 v=54
225754 On ch=1 n=g3 v=57
225812 On ch=1 n=d4 v=0
225816 On ch=1 n=g3 v=0
225822 On ch=1 n=b4 v=0
225826 On ch=1 n=f4 v=0
226594 On ch=1 n=d#4 v=67
226612 Par ch=1 c=64 v=63
226616 On ch=1 n=c5 v=56
226616 Par ch=1 c=64 v=127
226620 On ch=1 n=c3 v=49
226674 On ch=1 n=c3 v=0
226680 On ch=1 n=d#4 v=0
226694 On ch=1 n=c5 v=0
226828 Par ch=1 c=64 v=63
226834 Par ch=1 c=64 v=0
227146 On ch=1 n=f6 v=116
227172 Par ch=1 c=64 v=127
227206 On ch=1 n=d#6 v=115
227262 On ch=1 n=d6 v=91
227264 On ch=1 n=f6 v=0
227316 On ch=1 n=d#6 v=0
227318 On ch=1 n=c6 v=101
227370 On ch=1 n=d6 v=0
227402 On ch=1 n=d5 v=118
227404 On ch=1 n=c6 v=0
227406 On ch=1 n=b4 v=117
227420 On ch=1 n=g6 v=117
227502 Par ch=1 c=64 v=63
227508 Par ch=1 c=64 v=0
227530 On ch=1 n=g4 v=93
227552 On ch=1 n=b4 v=0
227558 On ch=1 n=g6 v=0
227560 On ch=1 n=d5 v=0
227696 On ch=1 n=g5 v=106
227698 On ch=1 n=g6 v=93
227700 On ch=1 n=c5 v=97
227704 On ch=1 n=d#5 v=106
227718 On ch=1 n=g4 v=0
227732 On ch=1 n=a#4 v=35
227764 On ch=1 n=g5 v=0
227766 On ch=1 n=c5 v=0
227768 On ch=1 n=a#4 v=0
227770 On ch=1 n=g6 v=0
227790 On ch=1 n=d#5 v=0
227830 On ch=1 n=g4 v=89
227952 On ch=1 n=g4 v=0
227978 On ch=1 n=d5 v=100
227978 On ch=1 n=g6 v=104
227978 On ch=1 n=g5 v=106
227982 On ch=1 n=f5 v=101
228046 On ch=1 n=g5 v=0
228050 On ch=1 n=d5 v=0
228058 On ch=1 n=g6 v=0
228060 On ch=1 n=f5 v=0
228082 On ch=1 n=g4 v=89
228232 On ch=1 n=g6 v=108
228238 On ch=1 n=g5 v=109
228242 On ch=1 n=c5 v=90
228246 On ch=1 n=g4 v=0
228246 On ch=1 n=d#5 v=106
228268 Par ch=1 c=64 v=63
228270 Par ch=1 c=64 v=127
228356 On ch=1 n=d#5 v=0
228358 On ch=1 n=g4 v=83
228386 On ch=1 n=c5 v=0
228414 On ch=1 n=g5 v=0
228486 On ch=1 n=g6 v=0
228502 On ch=1 n=g4 v=0
228512 On ch=1 n=c5 v=91
228520 On ch=1 n=d#5 v=100
228606 On ch=1 n=g4 v=87
228620 On ch=1 n=d#5 v=0
228650 On ch=1 n=c5 v=0
228762 On ch=1 n=d#5 v=94
228766 On ch=1 n=c5 v=78
228776 On ch=1 n=f6 v=109
228780 On ch=1 n=g4 v=0
228832 On ch=1 n=d#6 v=113
228850 On ch=1 n=d#5 v=0
228880 On ch=1 n=d6 v=87
228882 On ch=1 n=g4 v=71
228894 On ch=1 n=f6 v=0
228898 On ch=1 n=c5 v=0
228950 On ch=1 n=c6 v=96
228952 On ch=1 n=d#6 v=0
229000 On ch=1 n=d6 v=0
229022 Par ch=1 c=64 v=63
229032 Par ch=1 c=64 v=0
229034 On ch=1 n=g4 v=0
229036 On ch=1 n=b4 v=100
229042 On ch=1 n=d5 v=99
229044 On ch=1 n=g6 v=104
229046 On ch=1 n=c6 v=0
229132 On ch=1 n=b4 v=0
229154 On ch=1 n=g6 v=0
229156 On ch=1 n=g4 v=80
229158 On ch=1 n=d5 v=0
229308 On ch=1 n=c5 v=86
229312 On ch=1 n=d#5 v=101
229316 On ch=1 n=g6 v=91
229318 On ch=1 n=g5 v=86
229330 On ch=1 n=g4 v=0
229356 On ch=1 n=g5 v=0
229364 On ch=1 n=g6 v=0
229386 On ch=1 n=c5 v=0
229392 On ch=1 n=d#5 v=0
229436 On ch=1 n=g4 v=81
229554 On ch=1 n=g4 v=0
229578 On ch=1 n=f5 v=97
229580 On ch=1 n=d5 v=91
229588 On ch=1 n=g6 v=101
229590 On ch=1 n=g5 v=98
229646 On ch=1 n=d5 v=0
229654 On ch=1 n=g5 v=0
229656 On ch=1 n=f5 v=0
229664 On ch=1 n=g6 v=0
229690 On ch=1 n=g4 v=73
229854 On ch=1 n=g6 v=112
229854 On ch=1 n=c5 v=96
229856 On ch=1 n=g5 v=113
229860 On ch=1 n=d#5 v=98
229864 On ch=1 n=g4 v=0
229872 Par ch=1 c=64 v=63
229874 Par ch=1 c=64 v=127
229912 On ch=1 n=g5 v=0
229940 On ch=1 n=g6 v=0
229944 On ch=1 n=c5 v=0
229956 On ch=1 n=d#5 v=0
229986 On ch=1 n=g4 v=85
230136 On ch=1 n=c5 v=93
230144 On ch=1 n=g4 v=0
230146 On ch=1 n=d#5 v=100
230248 On ch=1 n=g4 v=91
230264 On ch=1 n=d#5 v=0
230284 On ch=1 n=c5 v=0
230374 Par ch=1 c=64 v=63
230386 Par ch=1 c=64 v=0
230404 On ch=1 n=f6 v=113
230416 On ch=1 n=c5 v=94
230418 On ch=1 n=d#5 v=103
230426 On ch=1 n=g4 v=0
230464 On ch=1 n=d#6 v=98
230502 On ch=1 n=d6 v=97
230504 On ch=1 n=g4 v=87
230512 On ch=1 n=d#5 v=0
230526 On ch=1 n=c5 v=0
230528 On ch=1 n=f6 v=0
230546 On ch=1 n=c6 v=78
230566 On ch=1 n=d#6 v=0
230598 On ch=1 n=g4 v=0
230634 On ch=1 n=c6 v=0
230654 On ch=1 n=d6 v=0
230682 On ch=1 n=b5 v=106
230688 On ch=1 n=d6 v=111
230718 Par ch=1 c=64 v=63
230720 Par ch=1 c=64 v=127
230742 On ch=1 n=g#6 v=109
230948 On ch=1 n=f3 v=101
230974 On ch=1 n=f4 v=116
231022 On ch=1 n=b5 v=0
231030 On ch=1 n=f3 v=0
231046 On ch=1 n=f4 v=0
231168 On ch=1 n=d6 v=0
231182 On ch=1 n=g#6 v=0
231220 On ch=1 n=f5 v=111
231230 On ch=1 n=f4 v=73
231252 On ch=1 n=f5 v=0
231274 On ch=1 n=f4 v=0
231360 Par ch=1 c=64 v=63
231368 Par ch=1 c=64 v=0
231514 On ch=1 n=c6 v=112
231522 On ch=1 n=d#6 v=118
231526 On ch=1 n=g6 v=114
231552 Par ch=1 c=64 v=63
231562 Par ch=1 c=64 v=127
231766 On ch=1 n=d#3 v=112
231770 On ch=1 n=d#4 v=127
231786 On ch=1 n=c6 v=0
231820 On ch=1 n=d#3 v=0
231828 On ch=1 n=d#4 v=0
231912 On ch=1 n=d#6 v=0
231926 On ch=1 n=g6 v=0
232024 On ch=1 n=d#4 v=118
232026 On ch=1 n=d#5 v=119
232080 On ch=1 n=d#5 v=0
232080 On ch=1 n=d#4 v=0
232312 On ch=1 n=d5 v=113
232318 On ch=1 n=d4 v=109
232324 Par ch=1 c=64 v=63
232334 Par ch=1 c=64 v=0
232528 Par ch=1 c=64 v=63
232554 On ch=1 n=d6 v=102
232558 On ch=1 n=f6 v=107
232566 On ch=1 n=b6 v=104
232582 Par ch=1 c=64 v=0
232610 On ch=1 n=d5 v=0
232612 On ch=1 n=f6 v=0
232612 On ch=1 n=d6 v=0
232650 On ch=1 n=b6 v=0
232656 On ch=1 n=d4 v=0
232828 On ch=1 n=f6 v=104
232828 On ch=1 n=b6 v=103
232834 On ch=1 n=d7 v=112
232864 On ch=1 n=f6 v=0
232870 On ch=1 n=b6 v=0
232910 On ch=1 n=d7 v=0
233136 On ch=1 n=g6 v=108
233150 On ch=1 n=b3 v=108
233150 On ch=1 n=d7 v=117
233152 On ch=1 n=b4 v=124
233158 Par ch=1 c=64 v=63
233160 Par ch=1 c=64 v=127
233176 On ch=1 n=f7 v=108
233206 On ch=1 n=g6 v=0
233224 On ch=1 n=d7 v=0
233236 On ch=1 n=b4 v=0
233252 On ch=1 n=f7 v=0
233288 On ch=1 n=b3 v=0
233872 Par ch=1 c=64 v=63
233890 Par ch=1 c=64 v=0
234818 On ch=1 n=d#6 v=93
234864 Par ch=1 c=64 v=63
234884 Par ch=1 c=64 v=127
235058 On ch=1 n=d#6 v=0
235690 On ch=1 n=f#5 v=77
235708 On ch=1 n=d#5 v=46
235722 On ch=1 n=c5 v=39
235868 Par ch=1 c=64 v=63
235992 Par ch=1 c=64 v=127
236172 On ch=1 n=f#5 v=0
236214 On ch=1 n=d#5 v=0
236270 On ch=1 n=c5 v=0
236516 On ch=1 n=g5 v=62
236536 On ch=1 n=f5 v=36
236546 On ch=1 n=d5 v=47
236556 On ch=1 n=b4 v=34
236568 Par ch=1 c=64 v=63
236590 Par ch=1 c=64 v=0
236700 Par ch=1 c=64 v=63
236730 Par ch=1 c=64 v=127
236798 On ch=1 n=g5 v=0
236916 On ch=1 n=b4 v=0
236928 On ch=1 n=f5 v=0
236952 On ch=1 n=g#5 v=81
236964 On ch=1 n=d5 v=0
237054 On ch=1 n=g#5 v=0
237056 On ch=1 n=g5 v=82
237060 On ch=1 n=d#5 v=67
237082 On ch=1 n=c5 v=55
237100 On ch=1 n=d#5 v=0
237104 On ch=1 n=g5 v=0
237126 On ch=1 n=c5 v=0
237342 On ch=1 n=g5 v=75
237346 On ch=1 n=d#5 v=78
237352 On ch=1 n=f4 v=69
237392 Par ch=1 c=64 v=63
237412 Par ch=1 c=64 v=0
237416 On ch=1 n=d#5 v=0
237438 On ch=1 n=f4 v=0
237460 On ch=1 n=g5 v=0
237466 On ch=1 n=d5 v=65
237478 On ch=1 n=f5 v=76
237550 On ch=1 n=d5 v=0
237576 On ch=1 n=f5 v=0
237602 On ch=1 n=d#5 v=88
237602 On ch=1 n=c5 v=76
237602 On ch=1 n=g4 v=78
237664 On ch=1 n=c5 v=0
237670 On ch=1 n=g4 v=0
237672 On ch=1 n=d#5 v=0
237874 On ch=1 n=d5 v=76
237876 On ch=1 n=b4 v=70
237888 On ch=1 n=g3 v=70
237938 On ch=1 n=d5 v=0
237944 On ch=1 n=b4 v=0
238010 On ch=1 n=g3 v=0
238192 On ch=1 n=c5 v=79
238202 On ch=1 n=c4 v=69
238232 Par ch=1 c=64 v=63
238236 Par ch=1 c=64 v=127
238278 On ch=1 n=c5 v=0
238298 On ch=1 n=c4 v=0
238594 Par ch=1 c=64 v=63
238620 Par ch=1 c=64 v=0
238766 On ch=1 n=f6 v=111
238812 On ch=1 n=d#6 v=108
238850 On ch=1 n=d6 v=96
238876 On ch=1 n=f6 v=0
238916 On ch=1 n=d#6 v=0
238916 On ch=1 n=c6 v=87
238970 On ch=1 n=d6 v=0
238982 On ch=1 n=d5 v=100
238986 On ch=1 n=b4 v=99
238998 On ch=1 n=g6 v=113
239048 On ch=1 n=c6 v=0
239096 On ch=1 n=g4 v=94
239108 On ch=1 n=d5 v=0
239118 On ch=1 n=g6 v=0
239122 On ch=1 n=b4 v=0
239266 On ch=1 n=c5 v=92
239270 On ch=1 n=d#5 v=106
239276 On ch=1 n=g6 v=97
239278 On ch=1 n=g4 v=0
239280 On ch=1 n=g5 v=103
239330 On ch=1 n=g5 v=0
239342 On ch=1 n=c5 v=0
239350 On ch=1 n=g6 v=0
239350 On ch=1 n=d#5 v=0
239392 On ch=1 n=g4 v=83
239526 On ch=1 n=g4 v=0
239536 On ch=1 n=f5 v=100
239538 On ch=1 n=g6 v=101
239538 On ch=1 n=g5 v=106
239538 On ch=1 n=d5 v=98
239606 On ch=1 n=d5 v=0
239606 On ch=1 n=g5 v=0
239610 On ch=1 n=g6 v=0
239614 On ch=1 n=f5 v=0
239634 On ch=1 n=g4 v=89
239796 On ch=1 n=g6 v=113
239798 On ch=1 n=g5 v=117
239804 On ch=1 n=c5 v=102
239806 On ch=1 n=d#5 v=109
239828 On ch=1 n=g4 v=0
239848 Par ch=1 c=64 v=63
239850 Par ch=1 c=64 v=127
239890 On ch=1 n=c5 v=0
239916 On ch=1 n=d#5 v=0
239926 On ch=1 n=g4 v=86
239936 On ch=1 n=g5 v=0
240000 On ch=1 n=g6 v=0
240094 On ch=1 n=c5 v=93
240098 On ch=1 n=d#5 v=104
240114 On ch=1 n=g4 v=0
240196 On ch=1 n=g4 v=85
240218 On ch=1 n=d#5 v=0
240238 On ch=1 n=c5 v=0
240362 On ch=1 n=d#5 v=98
240364 On ch=1 n=f6 v=113
240384 On ch=1 n=c5 v=68
240386 On ch=1 n=g4 v=0
240420 On ch=1 n=d#6 v=108
240448 On ch=1 n=d#5 v=0
240460 On ch=1 n=d6 v=91
240478 On ch=1 n=g4 v=77
240488 On ch=1 n=f6 v=0
240518 On ch=1 n=c5 v=0
240526 On ch=1 n=d#6 v=0
240528 On ch=1 n=c6 v=87
240576 On ch=1 n=d6 v=0
240614 On ch=1 n=g6 v=108
240630 On ch=1 n=b4 v=107
240632 Par ch=1 c=64 v=63
240634 On ch=1 n=d5 v=104
240644 Par ch=1 c=64 v=0
240654 On ch=1 n=c6 v=0
240660 On ch=1 n=g4 v=0
240728 On ch=1 n=g6 v=0
240730 On ch=1 n=b4 v=0
240738 On ch=1 n=g4 v=66
240762 On ch=1 n=d5 v=0
240890 On ch=1 n=g5 v=100
240894 On ch=1 n=g6 v=84
240898 On ch=1 n=c5 v=90
240900 On ch=1 n=d#5 v=108
240930 On ch=1 n=g4 v=0
240942 On ch=1 n=g5 v=0
240946 On ch=1 n=g6 v=0
240968 On ch=1 n=c5 v=0
240992 On ch=1 n=d#5 v=0
241024 On ch=1 n=g4 v=81
241152 On ch=1 n=g4 v=0
241168 On ch=1 n=d5 v=100
241168 On ch=1 n=f5 v=100
241170 On ch=1 n=g5 v=104
241170 On ch=1 n=g6 v=100
241236 On ch=1 n=d5 v=0
241238 On ch=1 n=g5 v=0
241242 On ch=1 n=f5 v=0
241244 On ch=1 n=g6 v=0
241262 On ch=1 n=g4 v=90
241434 On ch=1 n=g6 v=113
241436 On ch=1 n=c5 v=100
241436 On ch=1 n=g5 v=117
241440 On ch=1 n=d#5 v=112
241450 Par ch=1 c=64 v=63
241456 Par ch=1 c=64 v=127
241466 On ch=1 n=g4 v=0
241498 On ch=1 n=g5 v=0
241530 On ch=1 n=g6 v=0
241536 On ch=1 n=c5 v=0
241550 On ch=1 n=d#5 v=0
241568 On ch=1 n=g4 v=90
241726 On ch=1 n=d#5 v=101
241728 On ch=1 n=c5 v=82
241742 On ch=1 n=g4 v=0
241834 On ch=1 n=d#5 v=0
241844 On ch=1 n=g4 v=84
241878 On ch=1 n=c5 v=0
241964 On ch=1 n=f6 v=118
241986 On ch=1 n=c5 v=84
241988 On ch=1 n=d#5 v=90
242004 On ch=1 n=g4 v=0
242034 On ch=1 n=d#6 v=106
242088 On ch=1 n=d#5 v=0
242088 On ch=1 n=d6 v=91
242090 On ch=1 n=g4 v=80
242102 On ch=1 n=f6 v=0
242118 On ch=1 n=c5 v=0
242140 On ch=1 n=d#6 v=0
242140 On ch=1 n=c6 v=87
242184 On ch=1 n=g4 v=0
242222 Par ch=1 c=64 v=63
242230 On ch=1 n=c6 v=0
242232 Par ch=1 c=64 v=0
242252 On ch=1 n=d6 v=0
242286 On ch=1 n=b5 v=101
242296 On ch=1 n=d6 v=112
242338 On ch=1 n=g#6 v=103
242358 Par ch=1 c=64 v=63
242362 Par ch=1 c=64 v=127
242574 On ch=1 n=f3 v=89
242606 On ch=1 n=f4 v=114
242662 On ch=1 n=f3 v=0
242678 On ch=1 n=f4 v=0
242836 On ch=1 n=b5 v=0
242856 On ch=1 n=f5 v=109
242870 On ch=1 n=f4 v=69
242894 On ch=1 n=f5 v=0
242902 On ch=1 n=d6 v=0
242904 On ch=1 n=g#6 v=0
242914 On ch=1 n=f4 v=0
243074 Par ch=1 c=64 v=63
243092 Par ch=1 c=64 v=0
243132 On ch=1 n=c6 v=97
243148 On ch=1 n=d#6 v=119
243164 On ch=1 n=g6 v=111
243178 Par ch=1 c=64 v=63
243190 Par ch=1 c=64 v=127
243394 On ch=1 n=d#3 v=113
243394 On ch=1 n=d#4 v=127
243442 On ch=1 n=d#3 v=0
243456 On ch=1 n=d#4 v=0
243462 On ch=1 n=c6 v=0
243512 On ch=1 n=g6 v=0
243526 On ch=1 n=d#6 v=0
243656 On ch=1 n=d#4 v=99
243656 On ch=1 n=d#5 v=108
243714 On ch=1 n=d#5 v=0
243722 On ch=1 n=d#4 v=0
243944 On ch=1 n=d5 v=117
243948 On ch=1 n=d4 v=112
243958 Par ch=1 c=64 v=63
243966 Par ch=1 c=64 v=0
244120 Par ch=1 c=64 v=63
244186 On ch=1 n=d5 v=0
244196 Par ch=1 c=64 v=0
244196 On ch=1 n=d6 v=106
244204 On ch=1 n=f6 v=111
244212 On ch=1 n=b6 v=104
244240 On ch=1 n=d4 v=0
244266 On ch=1 n=d6 v=0
244268 On ch=1 n=f6 v=0
244296 On ch=1 n=b6 v=0
244450 On ch=1 n=f6 v=109
244468 On ch=1 n=b6 v=100
244484 On ch=1 n=d7 v=107
244514 On ch=1 n=f6 v=0
244526 On ch=1 n=b6 v=0
244566 On ch=1 n=d7 v=0
244772 Par ch=1 c=64 v=63
244774 On ch=1 n=g6 v=90
244782 On ch=1 n=b3 v=94
244790 On ch=1 n=d7 v=112
244794 Par ch=1 c=64 v=127
244798 On ch=1 n=b4 v=125
244808 On ch=1 n=f7 v=113
244852 On ch=1 n=g6 v=0
244864 On ch=1 n=d7 v=0
244896 On ch=1 n=b3 v=0
244900 On ch=1 n=f7 v=0
244920 On ch=1 n=b4 v=0
245784 Par ch=1 c=64 v=63
245830 Par ch=1 c=64 v=0
246406 On ch=1 n=c#4 v=108
246408 On ch=1 n=c#5 v=127
246434 Par ch=1 c=64 v=63
246440 Par ch=1 c=64 v=127
246472 On ch=1 n=c#5 v=0
246500 On ch=1 n=c#4 v=0
246754 On ch=1 n=e6 v=113
246758 On ch=1 n=a#5 v=116
246758 On ch=1 n=a#3 v=107
246758 On ch=1 n=g5 v=111
246760 On ch=1 n=a#4 v=112
246778 Par ch=1 c=64 v=63
246790 Par ch=1 c=64 v=0
246810 On ch=1 n=g5 v=0
246814 On ch=1 n=a#4 v=0
246816 On ch=1 n=a#5 v=0
246816 On ch=1 n=e6 v=0
246824 On ch=1 n=a#3 v=0
247064 On ch=1 n=g6 v=103
247068 On ch=1 n=g4 v=111
247072 On ch=1 n=a#5 v=112
247072 On ch=1 n=g3 v=108
247076 On ch=1 n=e6 v=100
247126 On ch=1 n=a#5 v=0
247138 On ch=1 n=g4 v=0
247144 On ch=1 n=e6 v=0
247148 On ch=1 n=g6 v=0
247150 On ch=1 n=g3 v=0
247416 On ch=1 n=e3 v=106
247418 On ch=1 n=e4 v=117
247418 On ch=1 n=g6 v=93
247420 On ch=1 n=a#6 v=112
247420 On ch=1 n=c#6 v=108
247470 Par ch=1 c=64 v=63
247474 Par ch=1 c=64 v=127
247494 On ch=1 n=e4 v=0
247502 On ch=1 n=c#6 v=0
247514 On ch=1 n=e3 v=0
247524 On ch=1 n=g6 v=0
247550 On ch=1 n=a#6 v=0
248096 Par ch=1 c=64 v=63
248158 Par ch=1 c=64 v=0
249734 On ch=1 n=f4 v=54
249856 Par ch=1 c=64 v=63
249888 Par ch=1 c=64 v=127
250098 On ch=1 n=g#4 v=51
250374 On ch=1 n=c5 v=54
250582 On ch=1 n=g#4 v=0
250638 On ch=1 n=e4 v=49
250650 On ch=1 n=f4 v=0
250678 On ch=1 n=c5 v=0
250788 Par ch=1 c=64 v=63
250796 Par ch=1 c=64 v=0
250910 On ch=1 n=g4 v=59
251050 Par ch=1 c=64 v=63
251056 Par ch=1 c=64 v=127
251190 On ch=1 n=a#4 v=67
251264 On ch=1 n=g4 v=0
251444 On ch=1 n=e4 v=0
251460 On ch=1 n=c6 v=77
251464 On ch=1 n=f4 v=44
251492 On ch=1 n=a#4 v=0
251522 Par ch=1 c=64 v=63
251530 Par ch=1 c=64 v=0
251656 Par ch=1 c=64 v=63
251674 Par ch=1 c=64 v=127
251756 On ch=1 n=g#4 v=49
252012 On ch=1 n=c5 v=48
252014 On ch=1 n=f4 v=0
252022 On ch=1 n=g#4 v=0
252050 On ch=1 n=c6 v=0
252272 On ch=1 n=e4 v=50
252276 On ch=1 n=c6 v=62
252296 On ch=1 n=c5 v=0
252366 Par ch=1 c=64 v=63
252454 Par ch=1 c=64 v=127
252528 On ch=1 n=g4 v=51
252622 On ch=1 n=c6 v=0
252788 On ch=1 n=a#4 v=72
252844 On ch=1 n=g4 v=0
252906 On ch=1 n=c6 v=69
252940 On ch=1 n=e4 v=0
252992 On ch=1 n=a#4 v=0
253050 On ch=1 n=c6 v=0
253054 On ch=1 n=c#6 v=81
253056 Par ch=1 c=64 v=63
253058 On ch=1 n=f4 v=48
253098 Par ch=1 c=64 v=0
253158 Par ch=1 c=64 v=63
253232 Par ch=1 c=64 v=127
253296 On ch=1 n=g#4 v=55
253550 Par ch=1 c=64 v=63
253566 On ch=1 n=c6 v=57
253586 On ch=1 n=c#6 v=0
253606 On ch=1 n=c5 v=27
253632 On ch=1 n=g#4 v=0
253644 On ch=1 n=f4 v=0
253680 Par ch=1 c=64 v=127
253838 On ch=1 n=e4 v=62
253932 On ch=1 n=c6 v=0
253954 On ch=1 n=c5 v=0
254092 On ch=1 n=g4 v=62
254334 On ch=1 n=a#4 v=87
254410 On ch=1 n=g4 v=0
254464 On ch=1 n=c7 v=89
254560 On ch=1 n=a#4 v=0
254618 On ch=1 n=c#7 v=98
254622 On ch=1 n=f4 v=49
254644 On ch=1 n=c7 v=0
254714 On ch=1 n=e4 v=0
254720 Par ch=1 c=64 v=63
254750 Par ch=1 c=64 v=0
254856 Par ch=1 c=64 v=63
254882 Par ch=1 c=64 v=127
254908 On ch=1 n=g#4 v=65
255176 On ch=1 n=c7 v=79
255188 On ch=1 n=c5 v=44
255232 On ch=1 n=f4 v=0
255240 On ch=1 n=c#7 v=0
255248 On ch=1 n=g#4 v=0
255430 On ch=1 n=e4 v=72
255452 On ch=1 n=c7 v=0
255454 On ch=1 n=c5 v=0
255594 Par ch=1 c=64 v=63
255684 On ch=1 n=g4 v=74
255692 Par ch=1 c=64 v=127
255948 On ch=1 n=a#4 v=85
256010 On ch=1 n=g4 v=0
256042 On ch=1 n=c5 v=96
256142 On ch=1 n=a#4 v=0
256178 On ch=1 n=e4 v=0
256192 Par ch=1 c=64 v=63
256192 On ch=1 n=c#5 v=106
256204 On ch=1 n=f4 v=60
256232 On ch=1 n=c5 v=0
256286 Par ch=1 c=64 v=127
256474 On ch=1 n=g#4 v=77
256476 On ch=1 n=f4 v=0
256648 On ch=1 n=g#4 v=0
256720 On ch=1 n=c5 v=77
256732 On ch=1 n=f4 v=57
256770 On ch=1 n=c#5 v=0
256992 On ch=1 n=f#4 v=98
256996 On ch=1 n=f4 v=0
257028 On ch=1 n=c5 v=0
257064 Par ch=1 c=64 v=63
257080 Par ch=1 c=64 v=0
257188 Par ch=1 c=64 v=63
257210 Par ch=1 c=64 v=127
257256 On ch=1 n=a4 v=86
257572 On ch=1 n=d#5 v=94
257646 On ch=1 n=a4 v=0
257656 On ch=1 n=f#4 v=0
257690 On ch=1 n=c7 v=92
257778 On ch=1 n=d#5 v=0
257806 On ch=1 n=c7 v=0
257850 On ch=1 n=c6 v=77
257874 On ch=1 n=g4 v=64
257948 Par ch=1 c=64 v=63
258002 Par ch=1 c=64 v=0
258018 Par ch=1 c=64 v=63
258064 Par ch=1 c=64 v=127
258178 On ch=1 n=c5 v=62
258386 On ch=1 n=d#5 v=81
258484 On ch=1 n=g4 v=0
258508 On ch=1 n=c6 v=0
258512 On ch=1 n=d#5 v=0
258550 On ch=1 n=c5 v=0
258618 On ch=1 n=g4 v=57
258632 On ch=1 n=d6 v=94
258650 Par ch=1 c=64 v=63
258674 Par ch=1 c=64 v=0
258708 Par ch=1 c=64 v=63
258748 Par ch=1 c=64 v=127
258796 On ch=1 n=d6 v=0
258824 On ch=1 n=d#6 v=80
258880 On ch=1 n=b4 v=68
258892 On ch=1 n=d#6 v=0
258912 On ch=1 n=d6 v=77
258980 On ch=1 n=d#6 v=84
258988 On ch=1 n=d6 v=0
259052 On ch=1 n=d6 v=76
259058 On ch=1 n=d#6 v=0
259100 On ch=1 n=d#6 v=101
259104 On ch=1 n=g4 v=0
259114 On ch=1 n=d6 v=0
259114 On ch=1 n=b4 v=0
259114 On ch=1 n=f5 v=59
259160 On ch=1 n=d#6 v=0
259166 On ch=1 n=d6 v=98
259208 On ch=1 n=f5 v=0
259230 On ch=1 n=c6 v=91
259244 On ch=1 n=d6 v=0
259304 On ch=1 n=d6 v=51
259328 On ch=1 n=c6 v=0
259350 Par ch=1 c=64 v=63
259406 On ch=1 n=d#5 v=79
259418 On ch=1 n=c6 v=92
259420 On ch=1 n=c5 v=63
259428 Par ch=1 c=64 v=127
259430 Par ch=1 c=64 v=63
259434 Par ch=1 c=64 v=127
259438 On ch=1 n=d6 v=0
259554 On ch=1 n=g5 v=63
259556 On ch=1 n=c6 v=0
259584 On ch=1 n=d#5 v=0
259642 On ch=1 n=c5 v=0
259674 On ch=1 n=g5 v=0
259690 On ch=1 n=d#5 v=80
259790 On ch=1 n=d#5 v=0
259804 On ch=1 n=g5 v=80
259944 On ch=1 n=d#5 v=77
259950 On ch=1 n=g5 v=0
260048 On ch=1 n=g5 v=66
260058 On ch=1 n=d#5 v=0
260138 Par ch=1 c=64 v=63
260148 Par ch=1 c=64 v=0
260168 On ch=1 n=g4 v=69
260188 On ch=1 n=f5 v=77
260218 On ch=1 n=g5 v=0
260326 On ch=1 n=g5 v=65
260356 On ch=1 n=f5 v=0
260452 On ch=1 n=a4 v=97
260482 Par ch=1 c=64 v=63
260484 On ch=1 n=f5 v=77
260494 Par ch=1 c=64 v=127
260506 On ch=1 n=g5 v=0
260546 On ch=1 n=g4 v=0
260606 On ch=1 n=g5 v=72
260638 On ch=1 n=f5 v=0
260720 On ch=1 n=b4 v=107
260744 On ch=1 n=f5 v=81
260758 On ch=1 n=g5 v=0
260816 On ch=1 n=a4 v=0
260830 Par ch=1 c=64 v=63
260838 On ch=1 n=g5 v=82
260882 On ch=1 n=f5 v=0
260908 Par ch=1 c=64 v=127
260918 On ch=1 n=g5 v=0
260982 On ch=1 n=c5 v=104
261008 On ch=1 n=b4 v=0
261018 On ch=1 n=d#5 v=104
261058 On ch=1 n=c5 v=0
261144 On ch=1 n=c5 v=68
261150 On ch=1 n=d#5 v=0
261228 On ch=1 n=c5 v=0
261264 On ch=1 n=g4 v=63
261346 On ch=1 n=g4 v=0
261386 On ch=1 n=c5 v=86
261478 On ch=1 n=c5 v=0
261532 On ch=1 n=d#4 v=84
261596 On ch=1 n=d#4 v=0
261646 On ch=1 n=g4 v=68
261782 On ch=1 n=g4 v=0
261782 On ch=1 n=g5 v=84
261794 On ch=1 n=f4 v=78
261830 Par ch=1 c=64 v=63
261856 Par ch=1 c=64 v=0
261920 On ch=1 n=g4 v=65
261922 On ch=1 n=f4 v=0
261950 Par ch=1 c=64 v=63
261986 Par ch=1 c=64 v=127
262060 On ch=1 n=a5 v=98
262072 On ch=1 n=f4 v=76
262080 On ch=1 n=g4 v=0
262116 On ch=1 n=g5 v=0
262188 On ch=1 n=f4 v=0
262190 On ch=1 n=g4 v=64
262300 On ch=1 n=b5 v=108
262308 On ch=1 n=f4 v=75
262326 On ch=1 n=g4 v=0
262374 On ch=1 n=a5 v=0
262420 On ch=1 n=g4 v=66
262426 On ch=1 n=f4 v=0
262574 On ch=1 n=d#4 v=92
262580 On ch=1 n=g4 v=0
262580 On ch=1 n=c6 v=113
262640 On ch=1 n=b5 v=0
262642 Par ch=1 c=64 v=63
262680 On ch=1 n=d#4 v=0
262686 On ch=1 n=g4 v=66
262730 Par ch=1 c=64 v=127
262806 On ch=1 n=d#4 v=90
262840 On ch=1 n=g4 v=0
262882 On ch=1 n=c6 v=0
262938 On ch=1 n=g4 v=77
262952 On ch=1 n=d#4 v=0
263060 On ch=1 n=d#4 v=97
263082 On ch=1 n=g4 v=0
263186 On ch=1 n=g4 v=82
263194 On ch=1 n=d#4 v=0
263340 On ch=1 n=g6 v=109
263350 On ch=1 n=f4 v=101
263358 Par ch=1 c=64 v=63
263370 Par ch=1 c=64 v=0
263382 On ch=1 n=g4 v=0
263458 Par ch=1 c=64 v=63
263466 On ch=1 n=g4 v=91
263492 Par ch=1 c=64 v=127
263514 On ch=1 n=f4 v=0
263532 On ch=1 n=g6 v=0
263604 On ch=1 n=a6 v=114
263610 On ch=1 n=f4 v=107
263656 On ch=1 n=g4 v=0
263716 On ch=1 n=g4 v=98
263744 On ch=1 n=a6 v=0
263754 On ch=1 n=f4 v=0
263858 On ch=1 n=f4 v=98
263864 On ch=1 n=b6 v=118
263872 On ch=1 n=g4 v=0
263966 On ch=1 n=g4 v=93
264004 On ch=1 n=f4 v=0
264076 Par ch=1 c=64 v=63
264084 On ch=1 n=g4 v=0
264086 Par ch=1 c=64 v=0
264094 On ch=1 n=b6 v=0
264124 On ch=1 n=c7 v=121
264146 Par ch=1 c=64 v=63
264150 On ch=1 n=d#4 v=108
264166 Par ch=1 c=64 v=127
264266 On ch=1 n=g4 v=78
264274 On ch=1 n=d#4 v=0
264382 On ch=1 n=d#4 v=99
264432 On ch=1 n=g4 v=0
264482 On ch=1 n=c7 v=0
264500 On ch=1 n=g4 v=64
264524 On ch=1 n=d#4 v=0
264628 On ch=1 n=d#4 v=88
264662 On ch=1 n=g4 v=0
264748 On ch=1 n=g4 v=47
264792 On ch=1 n=d#4 v=0
264888 On ch=1 n=a#6 v=125
264912 On ch=1 n=e4 v=101
264920 Par ch=1 c=64 v=63
264924 On ch=1 n=g4 v=0
264934 Par ch=1 c=64 v=0
264978 Par ch=1 c=64 v=63
265010 Par ch=1 c=64 v=127
265034 On ch=1 n=c5 v=88
265054 On ch=1 n=e4 v=0
265156 On ch=1 n=e4 v=90
265194 On ch=1 n=c5 v=0
265264 On ch=1 n=a#6 v=0
265278 On ch=1 n=c5 v=80
265312 On ch=1 n=e4 v=0
265402 On ch=1 n=e4 v=87
265444 On ch=1 n=c5 v=0
265514 On ch=1 n=c5 v=83
265556 On ch=1 n=e4 v=0
265652 On ch=1 n=g#6 v=124
265656 Par ch=1 c=64 v=63
265662 On ch=1 n=f4 v=99
265668 On ch=1 n=c5 v=0
265670 Par ch=1 c=64 v=0
265710 Par ch=1 c=64 v=63
265746 Par ch=1 c=64 v=127
265776 On ch=1 n=c5 v=93
265802 On ch=1 n=f4 v=0
265904 On ch=1 n=f4 v=94
265942 On ch=1 n=c5 v=0
266026 On ch=1 n=g#6 v=0
266042 On ch=1 n=c5 v=98
266052 On ch=1 n=f4 v=0
266146 On ch=1 n=f4 v=86
266170 On ch=1 n=c5 v=0
266264 On ch=1 n=c5 v=93
266314 On ch=1 n=f4 v=0
266392 On ch=1 n=f6 v=118
266400 On ch=1 n=g4 v=98
266420 Par ch=1 c=64 v=63
266432 Par ch=1 c=64 v=0
266446 On ch=1 n=c5 v=0
266502 Par ch=1 c=64 v=63
266528 On ch=1 n=b4 v=106
266528 Par ch=1 c=64 v=127
266564 On ch=1 n=g4 v=0
266656 On ch=1 n=g4 v=98
266690 On ch=1 n=b4 v=0
266758 On ch=1 n=f6 v=0
266786 On ch=1 n=b4 v=98
266818 On ch=1 n=g4 v=0
266892 On ch=1 n=g4 v=59
266902 On ch=1 n=b4 v=0
267012 On ch=1 n=b4 v=84
267044 On ch=1 n=g4 v=0
267144 On ch=1 n=d#6 v=124
267150 Par ch=1 c=64 v=63
267160 On ch=1 n=b4 v=0
267170 On ch=1 n=g#4 v=89
267212 Par ch=1 c=64 v=127
267290 On ch=1 n=c5 v=71
267298 On ch=1 n=g#4 v=0
267410 On ch=1 n=g#4 v=75
267446 On ch=1 n=c5 v=0
267536 On ch=1 n=c5 v=75
267552 On ch=1 n=g#4 v=0
267554 On ch=1 n=d#6 v=0
267638 On ch=1 n=g#4 v=91
267658 On ch=1 n=c5 v=0
267742 On ch=1 n=c5 v=87
267766 On ch=1 n=g#4 v=0
267900 On ch=1 n=c#6 v=125
267912 On ch=1 n=f4 v=96
267918 On ch=1 n=c5 v=0
267934 Par ch=1 c=64 v=63
268010 Par ch=1 c=64 v=127
268048 On ch=1 n=g#4 v=96
268058 On ch=1 n=f4 v=0
268160 On ch=1 n=f4 v=91
268190 On ch=1 n=g#4 v=0
268294 On ch=1 n=g#4 v=105
268334 On ch=1 n=f4 v=0
268338 On ch=1 n=c#6 v=0
268414 On ch=1 n=f4 v=75
268436 On ch=1 n=g#4 v=0
268528 On ch=1 n=g#4 v=96
268572 On ch=1 n=f4 v=0
268626 On ch=1 n=g#4 v=0
268638 On ch=1 n=c6 v=120
268648 Par ch=1 c=64 v=63
268664 On ch=1 n=g4 v=102
268666 Par ch=1 c=64 v=0
268682 Par ch=1 c=64 v=63
268718 Par ch=1 c=64 v=127
268798 On ch=1 n=d#5 v=105
268824 On ch=1 n=g4 v=0
268904 On ch=1 n=g4 v=68
268926 On ch=1 n=d#5 v=0
269010 On ch=1 n=c6 v=0
269030 On ch=1 n=d#5 v=109
269056 On ch=1 n=g4 v=0
269122 On ch=1 n=g4 v=71
269160 On ch=1 n=d#5 v=0
269252 On ch=1 n=d#5 v=104
269286 On ch=1 n=g4 v=0
269376 On ch=1 n=g4 v=96
269380 On ch=1 n=b5 v=116
269390 On ch=1 n=d#5 v=0
269406 Par ch=1 c=64 v=63
269472 Par ch=1 c=64 v=127
269504 On ch=1 n=d5 v=107
269528 On ch=1 n=g4 v=0
269618 On ch=1 n=g4 v=92
269654 On ch=1 n=d5 v=0
269756 On ch=1 n=d5 v=103
269772 On ch=1 n=g4 v=0
269830 On ch=1 n=b5 v=0
269862 On ch=1 n=g4 v=87
269894 On ch=1 n=d5 v=0
269964 On ch=1 n=d5 v=90
270050 On ch=1 n=d5 v=0
270088 On ch=1 n=g4 v=0
270204 On ch=1 n=g#4 v=125
270222 On ch=1 n=d#5 v=116
270238 Par ch=1 c=64 v=127
270412 Par ch=1 c=64 v=63
270416 Par ch=1 c=64 v=0
270474 On ch=1 n=c6 v=93
270492 On ch=1 n=d#5 v=0
270546 Par ch=1 c=64 v=63
270548 Par ch=1 c=64 v=127
270622 On ch=1 n=d#5 v=103
270664 On ch=1 n=c6 v=0
270744 On ch=1 n=g#4 v=0
270760 On ch=1 n=c6 v=91
270770 On ch=1 n=d#5 v=0
270876 On ch=1 n=d#5 v=101
270920 On ch=1 n=c6 v=0
271008 On ch=1 n=c6 v=85
271026 On ch=1 n=d#5 v=0
271130 On ch=1 n=c7 v=122
271136 On ch=1 n=d#5 v=99
271168 On ch=1 n=c6 v=0
271220 On ch=1 n=c7 v=0
271280 On ch=1 n=c6 v=80
271284 On ch=1 n=d#5 v=0
271396 On ch=1 n=d#5 v=100
271432 On ch=1 n=c6 v=0
271508 On ch=1 n=c6 v=72
271536 On ch=1 n=d#5 v=0
271620 On ch=1 n=d#5 v=91
271662 On ch=1 n=c6 v=0
271768 On ch=1 n=c6 v=87
271804 On ch=1 n=d#5 v=0
271860 On ch=1 n=d#7 v=127
271878 On ch=1 n=d#5 v=94
271924 On ch=1 n=c6 v=0
271942 On ch=1 n=d#7 v=0
272024 On ch=1 n=c6 v=76
272040 On ch=1 n=d#5 v=0
272112 On ch=1 n=d#5 v=90
272158 On ch=1 n=c6 v=0
272252 On ch=1 n=d#5 v=0
272254 On ch=1 n=c6 v=91
272358 On ch=1 n=d#5 v=103
272392 On ch=1 n=c6 v=0
272486 On ch=1 n=d#5 v=0
272492 On ch=1 n=c6 v=82
272612 On ch=1 n=f#2 v=126
272622 On ch=1 n=d#5 v=113
272638 On ch=1 n=c6 v=0
272684 Par ch=1 c=64 v=63
272692 Par ch=1 c=64 v=0
272748 Par ch=1 c=64 v=63
272764 On ch=1 n=c6 v=88
272766 On ch=1 n=d#5 v=0
272770 Par ch=1 c=64 v=127
272874 On ch=1 n=d#5 v=105
272908 On ch=1 n=c6 v=0
272996 On ch=1 n=c6 v=83
273002 On ch=1 n=d#5 v=0
273130 On ch=1 n=d#5 v=94
273156 On ch=1 n=f#2 v=0
273158 On ch=1 n=c6 v=0
273258 On ch=1 n=d#5 v=0
273272 On ch=1 n=c6 v=76
273384 On ch=1 n=d#5 v=103
273398 On ch=1 n=c6 v=0
273402 On ch=1 n=g2 v=127
273460 Par ch=1 c=64 v=63
273492 Par ch=1 c=64 v=127
273514 On ch=1 n=d#5 v=0
273526 On ch=1 n=c6 v=77
273660 On ch=1 n=d#5 v=88
273702 On ch=1 n=c6 v=0
273806 On ch=1 n=d#5 v=0
273812 On ch=1 n=c6 v=71
273850 On ch=1 n=g2 v=0
273916 On ch=1 n=d#5 v=98
273944 On ch=1 n=c6 v=0
274054 On ch=1 n=d#5 v=0
274072 On ch=1 n=c6 v=78
274106 On ch=1 n=g#2 v=121
274162 Par ch=1 c=64 v=63
274178 On ch=1 n=d#5 v=103
274208 Par ch=1 c=64 v=127
274222 On ch=1 n=c6 v=0
274290 On ch=1 n=d#5 v=0
274304 On ch=1 n=c6 v=72
274412 On ch=1 n=d#5 v=98
274452 On ch=1 n=c6 v=0
274534 On ch=1 n=d#5 v=0
274548 On ch=1 n=g#2 v=0
274550 On ch=1 n=c6 v=98
274648 On ch=1 n=d#5 v=91
274696 On ch=1 n=c6 v=0
274764 On ch=1 n=c6 v=92
274770 On ch=1 n=d#5 v=0
274906 On ch=1 n=f2 v=125
274916 On ch=1 n=d5 v=106
274922 On ch=1 n=c6 v=0
275024 Par ch=1 c=64 v=63
275028 On ch=1 n=d5 v=0
275048 On ch=1 n=c6 v=101
275070 Par ch=1 c=64 v=127
275168 On ch=1 n=d5 v=99
275174 On ch=1 n=c6 v=0
275282 On ch=1 n=d5 v=0
275294 On ch=1 n=c6 v=102
275400 On ch=1 n=d5 v=92
275404 On ch=1 n=f2 v=0
275414 On ch=1 n=c6 v=0
275516 On ch=1 n=d5 v=0
275520 On ch=1 n=c6 v=99
275660 On ch=1 n=d5 v=106
275668 On ch=1 n=c6 v=0
275670 On ch=1 n=g2 v=127
275686 Par ch=1 c=64 v=63
275702 Par ch=1 c=64 v=0
275798 Par ch=1 c=64 v=63
275804 On ch=1 n=d5 v=0
275804 On ch=1 n=b5 v=102
275824 Par ch=1 c=64 v=127
275924 On ch=1 n=d5 v=91
275984 On ch=1 n=b5 v=0
276022 On ch=1 n=g2 v=0
276074 On ch=1 n=b5 v=102
276094 On ch=1 n=d5 v=0
276216 On ch=1 n=d5 v=87
276230 On ch=1 n=b5 v=0
276322 On ch=1 n=d5 v=0
276338 On ch=1 n=b5 v=100
276428 On ch=1 n=b5 v=0
276540 On ch=1 n=c3 v=127
276546 On ch=1 n=c5 v=107
276554 Par ch=1 c=64 v=63
276562 Par ch=1 c=64 v=0
276674 Par ch=1 c=64 v=63
276686 Par ch=1 c=64 v=127
276806 On ch=1 n=d#5 v=85
276824 On ch=1 n=c3 v=0
276826 On ch=1 n=c5 v=0
276944 On ch=1 n=g5 v=77
276960 On ch=1 n=d#5 v=0
277056 On ch=1 n=d#5 v=95
277104 On ch=1 n=g5 v=0
277170 On ch=1 n=g5 v=63
277180 On ch=1 n=d#5 v=0
277290 On ch=1 n=d#5 v=101
277358 On ch=1 n=g5 v=0
277362 On ch=1 n=d#5 v=0
277410 On ch=1 n=d5 v=114
277464 Par ch=1 c=64 v=63
277476 Par ch=1 c=64 v=0
277528 On ch=1 n=f5 v=100
277546 Par ch=1 c=64 v=63
277584 Par ch=1 c=64 v=127
277662 On ch=1 n=g5 v=84
277688 On ch=1 n=f5 v=0
277696 On ch=1 n=g6 v=94
277790 On ch=1 n=f5 v=84
277796 On ch=1 n=g5 v=0
277796 On ch=1 n=a6 v=104
277824 On ch=1 n=g6 v=0
277866 On ch=1 n=d5 v=0
277892 On ch=1 n=f5 v=0
277898 On ch=1 n=g5 v=65
277920 On ch=1 n=b6 v=102
277958 On ch=1 n=a6 v=0
277988 On ch=1 n=f5 v=81
278002 On ch=1 n=g5 v=0
278012 On ch=1 n=g6 v=96
278038 On ch=1 n=b6 v=0
278104 Par ch=1 c=64 v=63
278110 On ch=1 n=f5 v=0
278128 On ch=1 n=g6 v=0
278140 On ch=1 n=c5 v=96
278150 On ch=1 n=c7 v=109
278190 Par ch=1 c=64 v=127
278214 On ch=1 n=c7 v=0
278268 On ch=1 n=d#5 v=95
278318 On ch=1 n=c5 v=0
278410 On ch=1 n=d#5 v=0
278412 On ch=1 n=g5 v=71
278426 On ch=1 n=c6 v=108
278526 On ch=1 n=d6 v=106
278546 On ch=1 n=g5 v=0
278556 On ch=1 n=d#5 v=70
278618 On ch=1 n=c6 v=0
278620 On ch=1 n=d#5 v=0
278654 On ch=1 n=d#6 v=115
278664 On ch=1 n=g5 v=60
278682 On ch=1 n=d6 v=0
278754 On ch=1 n=g5 v=0
278756 On ch=1 n=d#5 v=82
278762 On ch=1 n=c6 v=106
278772 On ch=1 n=d#6 v=0
278774 Par ch=1 c=64 v=63
278804 Par ch=1 c=64 v=0
278806 On ch=1 n=d#5 v=0
278862 On ch=1 n=c6 v=0
278872 On ch=1 n=d5 v=102
278886 On ch=1 n=g6 v=104
278890 Par ch=1 c=64 v=63
278918 Par ch=1 c=64 v=127
278980 On ch=1 n=g6 v=0
279006 On ch=1 n=f5 v=91
279016 On ch=1 n=d5 v=0
279126 On ch=1 n=f5 v=0
279140 On ch=1 n=g5 v=75
279146 On ch=1 n=b5 v=106
279232 On ch=1 n=c6 v=111
279242 On ch=1 n=b5 v=0
279250 On ch=1 n=f5 v=87
279254 On ch=1 n=g5 v=0
279332 Par ch=1 c=64 v=63
279338 On ch=1 n=f5 v=0
279360 On ch=1 n=g5 v=68
279372 Par ch=1 c=64 v=0
279378 On ch=1 n=d6 v=111
279414 On ch=1 n=c6 v=0
279432 On ch=1 n=g5 v=0
279446 On ch=1 n=f5 v=85
279482 On ch=1 n=b5 v=101
279508 On ch=1 n=d6 v=0
279550 On ch=1 n=f5 v=0
279622 On ch=1 n=b5 v=0
279628 On ch=1 n=c5 v=107
279648 On ch=1 n=c6 v=117
279662 Par ch=1 c=64 v=63
279666 Par ch=1 c=64 v=127
279738 On ch=1 n=c6 v=0
279784 On ch=1 n=d#5 v=103
279848 On ch=1 n=c5 v=0
279918 On ch=1 n=d#5 v=0
279926 On ch=1 n=g5 v=76
280056 On ch=1 n=g5 v=0
280056 On ch=1 n=d#5 v=101
280142 On ch=1 n=d#5 v=0
280176 On ch=1 n=g5 v=77
280272 On ch=1 n=d#5 v=97
280288 On ch=1 n=g5 v=0
280340 On ch=1 n=d#5 v=0
280414 On ch=1 n=d5 v=120
280456 Par ch=1 c=64 v=63
280458 Par ch=1 c=64 v=127
280538 On ch=1 n=f5 v=93
280572 On ch=1 n=d5 v=0
280656 On ch=1 n=g5 v=68
280670 On ch=1 n=f5 v=0
280706 On ch=1 n=g3 v=116
280748 On ch=1 n=f5 v=72
280768 On ch=1 n=g5 v=0
280830 On ch=1 n=a3 v=96
280846 On ch=1 n=g3 v=0
280864 On ch=1 n=f5 v=0
280864 On ch=1 n=g5 v=74
280930 On ch=1 n=b3 v=101
280970 On ch=1 n=a3 v=0
280984 On ch=1 n=g5 v=0
280994 On ch=1 n=f5 v=79
281046 On ch=1 n=g3 v=116
281074 On ch=1 n=b3 v=0
281098 Par ch=1 c=64 v=63
281106 Par ch=1 c=64 v=0
281158 On ch=1 n=f5 v=0
281170 On ch=1 n=c4 v=121
281190 On ch=1 n=c5 v=108
281200 On ch=1 n=g3 v=0
281240 Par ch=1 c=64 v=63
281250 Par ch=1 c=64 v=127
281258 On ch=1 n=c4 v=0
281324 On ch=1 n=d#5 v=100
281418 On ch=1 n=c5 v=0
281450 On ch=1 n=c3 v=122
281468 On ch=1 n=g5 v=75
281490 On ch=1 n=d#5 v=0
281502 On ch=1 n=c5 v=33
281566 On ch=1 n=d#5 v=82
281566 On ch=1 n=d3 v=107
281574 On ch=1 n=c5 v=0
281608 On ch=1 n=g5 v=0
281610 On ch=1 n=c3 v=0
281668 On ch=1 n=d#3 v=112
281706 On ch=1 n=d#5 v=0
281712 On ch=1 n=g5 v=74
281730 On ch=1 n=d3 v=0
281770 Par ch=1 c=64 v=63
281780 Par ch=1 c=64 v=0
281782 On ch=1 n=c3 v=117
281800 On ch=1 n=d#5 v=96
281832 On ch=1 n=d#3 v=0
281846 On ch=1 n=g5 v=0
281896 On ch=1 n=d#5 v=0
281918 On ch=1 n=c3 v=0
281926 On ch=1 n=g3 v=116
281926 On ch=1 n=d5 v=114
281992 Par ch=1 c=64 v=63
281998 Par ch=1 c=64 v=127
282022 On ch=1 n=g3 v=0
282052 On ch=1 n=f5 v=108
282132 On ch=1 n=d5 v=0
282198 On ch=1 n=g5 v=94
282200 On ch=1 n=g2 v=121
282236 On ch=1 n=f5 v=0
282326 On ch=1 n=a2 v=108
282330 On ch=1 n=f5 v=103
282350 Par ch=1 c=64 v=63
282358 On ch=1 n=g5 v=0
282364 Par ch=1 c=64 v=0
282368 On ch=1 n=g2 v=0
282444 On ch=1 n=b2 v=107
282450 On ch=1 n=g5 v=96
282478 On ch=1 n=f5 v=0
282492 On ch=1 n=a2 v=0
282578 On ch=1 n=g2 v=118
282578 On ch=1 n=f5 v=112
282610 On ch=1 n=g5 v=0
282610 On ch=1 n=b2 v=0
282720 On ch=1 n=d#5 v=112
282720 On ch=1 n=c3 v=122
282722 On ch=1 n=d#5 v=0
282722 On ch=1 n=f5 v=0
282738 On ch=1 n=c5 v=122
282752 On ch=1 n=g2 v=0
282778 Par ch=1 c=64 v=127
282816 On ch=1 n=c3 v=0
283086 On ch=1 n=c5 v=0
283148 Par ch=1 c=64 v=63
283158 Par ch=1 c=64 v=0
283524 On ch=1 n=c4 v=107
283526 On ch=1 n=g5 v=107
283526 On ch=1 n=g4 v=117
283526 On ch=1 n=c5 v=126
283528 On ch=1 n=d#4 v=116
283536 On ch=1 n=g6 v=126
283540 On ch=1 n=d#6 v=127
283544 On ch=1 n=c6 v=124
283568 Par ch=1 c=64 v=127
283600 On ch=1 n=c6 v=0
283626 On ch=1 n=g6 v=0
283628 On ch=1 n=d#6 v=0
283646 On ch=1 n=g5 v=0
283706 On ch=1 n=c5 v=0
283738 On ch=1 n=g4 v=0
283796 On ch=1 n=d#4 v=0
283812 On ch=1 n=c4 v=0
284108 Par ch=1 c=64 v=63
284172 Par ch=1 c=64 v=0
284488 On ch=1 n=c3 v=101
284488 On ch=1 n=d#6 v=106
284488 On ch=1 n=d#3 v=116
284488 On ch=1 n=c6 v=104
284488 On ch=1 n=g3 v=122
284488 On ch=1 n=c4 v=127
284488 On ch=1 n=c7 v=106
284488 On ch=1 n=g6 v=96
284492 Par ch=1 c=64 v=127
284554 On ch=1 n=g6 v=0
284554 On ch=1 n=c6 v=0
284564 On ch=1 n=d#6 v=0
284588 On ch=1 n=c7 v=0
284628 On ch=1 n=c4 v=0
284628 On ch=1 n=g3 v=0
284630 On ch=1 n=d#3 v=0
284642 On ch=1 n=c3 v=0
285592 Par ch=1 c=64 v=63
285608 Par ch=1 c=64 v=0
286618 Par ch=1 c=67 v=127
286888 Par ch=1 c=67 v=0
286888 Meta TrkEnd
TrkEnd
MTrk
0 SeqSpec 43 00 01 00
0 Meta TrkName "                                    "
0 TimeSig 3/4 24 8
0 Meta TrkEnd
TrkEnd
MTrk
0 SeqSpec 43 00 01 00
0 Meta TrkName "                                    "
0 TimeSig 3/4 24 8
0 Meta TrkEnd
TrkEnd
MTrk
0 SeqSpec 43 00 01 00
0 Meta TrkName "                                    "
0 TimeSig 3/4 24 8
0 Meta TrkEnd
TrkEnd
MTrk
0 SeqSpec 43 00 01 00
0 Meta TrkName "                                    "
0 TimeSig 3/4 24 8
0 Meta TrkEnd
TrkEnd
MTrk
0 SeqSpec 43 00 01 00
0 Meta TrkName "                                    "
0 TimeSig 3/4 24 8
0 Meta TrkEnd
TrkEnd
MTrk
0 SeqSpec 43 00 01 00
0 Meta TrkName "                                    "
0 TimeSig 3/4 24 8
0 Meta TrkEnd
TrkEnd
MTrk
0 SeqSpec 43 00 01 00
0 Meta TrkName "                                    "
0 TimeSig 3/4 24 8
0 Meta TrkEnd
TrkEnd
MTrk
0 SeqSpec 43 00 01 00
0 Meta TrkName "                                    "
0 TimeSig 3/4 24 8
0 Meta TrkEnd
TrkEnd
MTrk
0 SeqSpec 43 00 01 00
0 Meta TrkName "                                    "
0 TimeSig 3/4 24 8
0 Meta TrkEnd
TrkEnd
MTrk
0 SeqSpec 43 00 01 00
0 Meta TrkName "                                    "
0 TimeSig 3/4 24 8
0 Meta TrkEnd
TrkEnd
MTrk
0 SeqSpec 43 00 01 00
0 Meta TrkName "                                    "
0 TimeSig 3/4 24 8
0 Meta TrkEnd
TrkEnd
MTrk
0 SeqSpec 43 00 01 00
0 Meta TrkName "                                    "
0 TimeSig 3/4 24 8
0 Meta TrkEnd
TrkEnd
MTrk
0 SeqSpec 43 00 01 00
0 Meta TrkName "                                    "
0 TimeSig 3/4 24 8
0 Meta TrkEnd
TrkEnd
MTrk
0 SeqSpec 43 00 01 00
0 Meta TrkName "                                    "
0 TimeSig 3/4 24 8
0 Meta TrkEnd
TrkEnd
MTrk
0 SeqSpec 43 00 01 00
0 Meta TrkName "                                    "
0 TimeSig 3/4 24 8
0 Meta TrkEnd
TrkEnd
MTrk
0 SeqSpec 43 00 01 00
0 Meta TrkName "                                    "
0 TimeSig 3/4 24 8
0 Meta TrkEnd
TrkEnd
