MFile 1 18 480
MTrk
0 Tempo 500000
0 TimeSig 4/4 24 8
0 Meta TrkEnd
TrkEnd
MTrk
0 SeqSpec 43 00 01 00
0 Meta TrkName "PIANO                               "
0 TimeSig 4/4 24 8
0 SysEx f0 41 10 42 12 40 00 7f 00 41 f7
0 SysEx f0 41 10 42 12 40 00 04 64 58 f7
340 SysEx f0 41 10 42 12 40 01 30 03 0c f7
340 SysEx f0 41 10 42 12 40 01 33 50 3c f7
340 SysEx f0 41 10 42 12 40 01 34 3c 4f f7
744 Par ch=1 c=0 v=0
748 Par ch=1 c=32 v=1
752 PrCh ch=1 p=0
756 Par ch=1 c=7 v=100
948 Par ch=1 c=11 v=100
1140 Par ch=1 c=10 v=64
1332 Par ch=1 c=1 v=0
1332 Par ch=1 c=91 v=80
1350 Par ch=1 c=99 v=1
1354 Par ch=1 c=98 v=32
1358 Par ch=1 c=6 v=62
1362 Par ch=1 c=99 v=1
1366 Par ch=1 c=98 v=33
1370 Par ch=1 c=6 v=54
1374 Par ch=1 c=99 v=1
1378 Par ch=1 c=98 v=99
1382 Par ch=1 c=6 v=62
1386 Par ch=1 c=99 v=1
1390 Par ch=1 c=98 v=100
1394 Par ch=1 c=6 v=60
1398 Par ch=1 c=99 v=1
1402 Par ch=1 c=98 v=102
1406 Par ch=1 c=6 v=70
2354 On ch=1 n=c3 v=113
2356 On ch=1 n=c4 v=124
2362 On ch=1 n=c5 v=125
2394 Par ch=1 c=64 v=127
2646 On ch=1 n=c3 v=0
2694 On ch=1 n=c4 v=0
2700 On ch=1 n=c5 v=0
3012 Par ch=1 c=64 v=63
3020 On ch=1 n=d#3 v=108
3024 On ch=1 n=d#4 v=114
3024 Par ch=1 c=64 v=0
3034 On ch=1 n=d#5 v=98
3072 On ch=1 n=d#5 v=0
3078 On ch=1 n=d#3 v=0
3080 On ch=1 n=d#4 v=0
3360 On ch=1 n=g5 v=94
3362 On ch=1 n=g4 v=104
3366 On ch=1 n=g3 v=97
3412 On ch=1 n=g3 v=0
3428 On ch=1 n=g4 v=0
3430 On ch=1 n=g5 v=0
3654 On ch=1 n=c4 v=88
3666 On ch=1 n=c6 v=102
3668 On ch=1 n=c5 v=92
3718 On ch=1 n=c5 v=0
3728 On ch=1 n=c4 v=0
3734 On ch=1 n=c6 v=0
3984 On ch=1 n=d#4 v=91
3988 On ch=1 n=d#5 v=108
3992 On ch=1 n=d#6 v=114
4042 On ch=1 n=d#4 v=0
4044 On ch=1 n=d#5 v=0
4056 On ch=1 n=d#6 v=0
4472 Par ch=1 c=64 v=63
4498 Par ch=1 c=64 v=127
4544 On ch=1 n=d#6 v=100
4582 On ch=1 n=d#6 v=0
4628 On ch=1 n=d#6 v=103
4720 On ch=1 n=d#6 v=0
4736 On ch=1 n=f6 v=92
4768 Par ch=1 c=64 v=63
4792 On ch=1 n=d#6 v=94
4808 Par ch=1 c=64 v=0
4826 On ch=1 n=f6 v=0
4876 On ch=1 n=d#6 v=0
4878 On ch=1 n=d6 v=89
4922 On ch=1 n=d#6 v=99
4966 On ch=1 n=d6 v=0
4994 On ch=1 n=g6 v=103
5022 On ch=1 n=d#6 v=0
5336 On ch=1 n=c6 v=81
5342 On ch=1 n=g6 v=0
5358 On ch=1 n=g5 v=59
5362 On ch=1 n=d#5 v=60
5392 On ch=1 n=c6 v=0
5408 On ch=1 n=d#5 v=0
5418 On ch=1 n=g5 v=0
5662 On ch=1 n=c6 v=88
5678 On ch=1 n=d#5 v=65
5680 On ch=1 n=g5 v=52
5714 On ch=1 n=c6 v=0
5732 On ch=1 n=d#5 v=0
5748 On ch=1 n=g5 v=0
5980 On ch=1 n=d#5 v=95
5982 On ch=1 n=c6 v=102
5986 On ch=1 n=g5 v=76
6042 On ch=1 n=c6 v=0
6050 On ch=1 n=g5 v=0
6050 On ch=1 n=d#5 v=0
6296 Par ch=1 c=64 v=63
6314 On ch=1 n=g#6 v=101
6324 Par ch=1 c=64 v=127
6608 Par ch=1 c=64 v=63
6624 On ch=1 n=g#6 v=0
6630 On ch=1 n=g#5 v=65
6630 On ch=1 n=b5 v=73
6636 On ch=1 n=f5 v=61
6652 Par ch=1 c=64 v=0
6654 On ch=1 n=d5 v=52
6676 On ch=1 n=b5 v=0
6694 On ch=1 n=f5 v=0
6702 On ch=1 n=g#5 v=0
6708 On ch=1 n=d5 v=0
6994 On ch=1 n=b5 v=60
7002 On ch=1 n=g#5 v=52
7006 On ch=1 n=f5 v=57
7022 On ch=1 n=d5 v=59
7044 On ch=1 n=b5 v=0
7066 On ch=1 n=g#5 v=0
7076 On ch=1 n=f5 v=0
7106 On ch=1 n=d5 v=0
7672 Par ch=1 c=64 v=63
7696 Par ch=1 c=64 v=127
7760 On ch=1 n=g2 v=118
7760 On ch=1 n=g3 v=122
7778 On ch=1 n=g4 v=114
7846 On ch=1 n=g4 v=0
7846 On ch=1 n=g2 v=0
7866 On ch=1 n=g3 v=0
8416 On ch=1 n=b2 v=77
8428 On ch=1 n=b3 v=103
8434 On ch=1 n=b4 v=90
8442 Par ch=1 c=64 v=63
8460 Par ch=1 c=64 v=0
8478 On ch=1 n=b2 v=0
8492 On ch=1 n=b4 v=0
8498 On ch=1 n=b3 v=0
8750 On ch=1 n=d5 v=102
8752 On ch=1 n=d3 v=90
8758 On ch=1 n=d4 v=113
8814 On ch=1 n=d5 v=0
8820 On ch=1 n=d3 v=0
8834 On ch=1 n=d4 v=0
9058 On ch=1 n=g3 v=85
9062 On ch=1 n=g5 v=103
9068 On ch=1 n=g4 v=102
9128 On ch=1 n=g5 v=0
9138 On ch=1 n=g4 v=0
9140 On ch=1 n=g3 v=0
9384 On ch=1 n=b3 v=97
9392 On ch=1 n=b4 v=111
9396 On ch=1 n=b5 v=111
9452 On ch=1 n=b5 v=0
9456 On ch=1 n=b3 v=0
9458 On ch=1 n=b4 v=0
9866 Par ch=1 c=64 v=63
9886 Par ch=1 c=64 v=127
9912 On ch=1 n=d6 v=87
9962 On ch=1 n=d6 v=0
10038 On ch=1 n=d6 v=97
10136 On ch=1 n=d#6 v=85
10140 On ch=1 n=d6 v=0
10188 On ch=1 n=d#6 v=0
10202 On ch=1 n=d6 v=79
10272 On ch=1 n=c6 v=73
10274 On ch=1 n=d6 v=0
10330 On ch=1 n=d6 v=70
10346 On ch=1 n=c6 v=0
10430 On ch=1 n=f6 v=91
10448 On ch=1 n=d6 v=0
10494 Par ch=1 c=64 v=63
10554 Par ch=1 c=64 v=0
10744 On ch=1 n=b5 v=79
10762 On ch=1 n=g#5 v=76
10766 On ch=1 n=f5 v=65
10772 On ch=1 n=f6 v=0
10780 On ch=1 n=d5 v=68
10812 On ch=1 n=b5 v=0
10822 On ch=1 n=f5 v=0
10830 On ch=1 n=g#5 v=0
10832 On ch=1 n=d5 v=0
11092 On ch=1 n=b5 v=93
11108 On ch=1 n=f5 v=69
11108 On ch=1 n=g#5 v=70
11118 On ch=1 n=d5 v=70
11150 On ch=1 n=b5 v=0
11158 On ch=1 n=g#5 v=0
11162 On ch=1 n=f5 v=0
11178 On ch=1 n=d5 v=0
11394 On ch=1 n=f5 v=85
11398 On ch=1 n=g#5 v=86
11406 On ch=1 n=d5 v=76
11406 On ch=1 n=b5 v=100
11452 On ch=1 n=g#5 v=0
11464 On ch=1 n=f5 v=0
11470 On ch=1 n=d5 v=0
11476 On ch=1 n=b5 v=0
11668 Par ch=1 c=64 v=63
11692 Par ch=1 c=64 v=127
11706 On ch=1 n=g6 v=78
11992 Par ch=1 c=64 v=63
12020 On ch=1 n=d#5 v=66
12032 On ch=1 n=g5 v=47
12034 On ch=1 n=c6 v=66
12042 Par ch=1 c=64 v=0
12048 On ch=1 n=g6 v=0
12076 On ch=1 n=d#5 v=0
12094 On ch=1 n=c6 v=0
12096 On ch=1 n=g5 v=0
12398 On ch=1 n=c6 v=71
12414 On ch=1 n=g5 v=59
12416 On ch=1 n=d#5 v=60
12462 On ch=1 n=c6 v=0
12502 On ch=1 n=d#5 v=0
12512 On ch=1 n=g5 v=0
13070 On ch=1 n=g3 v=120
13076 On ch=1 n=g5 v=114
13118 Par ch=1 c=64 v=63
13122 Par ch=1 c=64 v=127
13356 On ch=1 n=g4 v=44
13430 On ch=1 n=g3 v=0
13504 On ch=1 n=g3 v=90
13550 On ch=1 n=g4 v=0
13646 On ch=1 n=g4 v=92
13702 On ch=1 n=g5 v=0
13726 On ch=1 n=g3 v=0
13788 On ch=1 n=g3 v=85
13842 On ch=1 n=g4 v=0
13914 On ch=1 n=g4 v=80
14002 On ch=1 n=g3 v=0
14074 On ch=1 n=g3 v=71
14076 On ch=1 n=d#6 v=114
14082 On ch=1 n=g5 v=102
14112 On ch=1 n=g4 v=0
14216 On ch=1 n=g4 v=69
14328 On ch=1 n=g3 v=0
14398 On ch=1 n=g3 v=77
14408 On ch=1 n=f#5 v=90
14438 On ch=1 n=g4 v=0
14504 On ch=1 n=g5 v=0
14538 On ch=1 n=g4 v=55
14600 On ch=1 n=d#6 v=0
14604 On ch=1 n=g3 v=0
14708 On ch=1 n=g3 v=78
14718 On ch=1 n=d6 v=103
14724 On ch=1 n=f5 v=97
14732 On ch=1 n=g4 v=0
14740 On ch=1 n=f#5 v=0
14818 On ch=1 n=g4 v=55
14868 On ch=1 n=g3 v=0
14872 On ch=1 n=d6 v=0
14998 On ch=1 n=g3 v=92
15002 On ch=1 n=e5 v=111
15028 On ch=1 n=g4 v=0
15054 On ch=1 n=f5 v=0
15102 On ch=1 n=e5 v=0
15104 On ch=1 n=g4 v=71
15188 On ch=1 n=g3 v=0
15318 On ch=1 n=c6 v=107
15318 On ch=1 n=g3 v=99
15324 On ch=1 n=d#5 v=110
15350 On ch=1 n=g4 v=0
15460 On ch=1 n=d#5 v=0
15464 On ch=1 n=g4 v=80
15556 On ch=1 n=g3 v=0
15616 Par ch=1 c=64 v=63
15642 Par ch=1 c=64 v=0
15664 On ch=1 n=g3 v=85
15676 Par ch=1 c=64 v=63
15688 On ch=1 n=d5 v=102
15720 On ch=1 n=g4 v=0
15734 Par ch=1 c=64 v=127
15840 On ch=1 n=g4 v=62
15930 On ch=1 n=g3 v=0
15970 On ch=1 n=c6 v=0
15988 On ch=1 n=d5 v=0
16012 On ch=1 n=g3 v=65
16024 On ch=1 n=b5 v=96
16030 On ch=1 n=g4 v=0
16154 On ch=1 n=b5 v=0
16164 On ch=1 n=g4 v=58
16178 On ch=1 n=g3 v=0
16338 On ch=1 n=g3 v=79
16362 On ch=1 n=g4 v=0
16462 On ch=1 n=g4 v=79
16556 On ch=1 n=g3 v=0
16630 On ch=1 n=g3 v=85
16650 On ch=1 n=g6 v=109
16656 On ch=1 n=d#6 v=115
16702 On ch=1 n=g4 v=0
16784 On ch=1 n=g4 v=86
16884 On ch=1 n=g6 v=0
16888 On ch=1 n=g3 v=0
16958 On ch=1 n=g3 v=90
16968 On ch=1 n=f#6 v=114
17012 On ch=1 n=g4 v=0
17082 On ch=1 n=g4 v=89
17154 On ch=1 n=g3 v=0
17202 On ch=1 n=d#6 v=0
17210 On ch=1 n=f#6 v=0
17244 On ch=1 n=g3 v=104
17252 On ch=1 n=f6 v=120
17262 On ch=1 n=d6 v=108
17284 On ch=1 n=g4 v=0
17308 Par ch=1 c=64 v=63
17372 On ch=1 n=g4 v=88
17396 Par ch=1 c=64 v=127
17474 On ch=1 n=g3 v=0
17562 On ch=1 n=g3 v=94
17570 On ch=1 n=e6 v=111
17602 On ch=1 n=g4 v=0
17646 On ch=1 n=f6 v=0
17686 On ch=1 n=g4 v=94
17774 On ch=1 n=d6 v=0
17778 On ch=1 n=g3 v=0
17864 On ch=1 n=g3 v=102
17872 On ch=1 n=d#6 v=121
17880 On ch=1 n=c6 v=108
17904 On ch=1 n=g4 v=0
17926 On ch=1 n=e6 v=0
17996 On ch=1 n=g4 v=97
18072 On ch=1 n=g3 v=0
18112 On ch=1 n=d#6 v=0
18166 On ch=1 n=d6 v=114
18168 On ch=1 n=g3 v=112
18174 Par ch=1 c=64 v=63
18204 Par ch=1 c=64 v=127
18226 On ch=1 n=g4 v=0
18320 On ch=1 n=g4 v=96
18378 On ch=1 n=c6 v=0
18382 On ch=1 n=g3 v=0
18426 On ch=1 n=g4 v=0
18428 Par ch=1 c=64 v=63
18438 Par ch=1 c=64 v=0
18492 On ch=1 n=b5 v=97
18512 On ch=1 n=g4 v=97
18592 On ch=1 n=g4 v=0
18634 On ch=1 n=g4 v=96
18700 On ch=1 n=b5 v=0
18718 On ch=1 n=d6 v=0
18730 On ch=1 n=g4 v=0
18794 On ch=1 n=f3 v=125
18812 Par ch=1 c=64 v=127
18900 On ch=1 n=f3 v=0
18936 On ch=1 n=f4 v=84
19000 On ch=1 n=f4 v=0
19090 On ch=1 n=g#6 v=116
19094 On ch=1 n=d6 v=108
19096 On ch=1 n=b5 v=108
19100 On ch=1 n=f4 v=108
19122 Par ch=1 c=64 v=63
19136 Par ch=1 c=64 v=0
19178 On ch=1 n=f4 v=0
19238 On ch=1 n=f4 v=99
19330 On ch=1 n=f4 v=0
19390 Par ch=1 c=64 v=127
19406 On ch=1 n=d#3 v=120
19494 On ch=1 n=d#3 v=0
19510 On ch=1 n=b5 v=0
19552 On ch=1 n=g#6 v=0
19552 On ch=1 n=d#4 v=100
19628 On ch=1 n=d6 v=0
19638 On ch=1 n=d#4 v=0
19720 On ch=1 n=d#6 v=109
19722 On ch=1 n=c6 v=102
19722 On ch=1 n=g6 v=101
19732 On ch=1 n=d#4 v=105
19776 On ch=1 n=c6 v=0
19782 On ch=1 n=g6 v=0
19782 On ch=1 n=d#6 v=0
19802 On ch=1 n=d#4 v=0
19866 On ch=1 n=d#4 v=98
19872 Par ch=1 c=64 v=63
19892 Par ch=1 c=64 v=0
19942 On ch=1 n=d#4 v=0
20020 Par ch=1 c=64 v=63
20036 On ch=1 n=b2 v=122
20038 Par ch=1 c=64 v=127
20124 On ch=1 n=b2 v=0
20240 On ch=1 n=g5 v=91
20320 On ch=1 n=d6 v=109
20334 On ch=1 n=g5 v=0
20338 On ch=1 n=b3 v=99
20364 Par ch=1 c=64 v=63
20386 Par ch=1 c=64 v=0
20420 On ch=1 n=b3 v=0
20446 On ch=1 n=d6 v=0
20480 On ch=1 n=b3 v=86
20556 On ch=1 n=f6 v=100
20594 On ch=1 n=b3 v=0
20600 Par ch=1 c=64 v=63
20620 Par ch=1 c=64 v=127
20624 On ch=1 n=f6 v=0
20656 On ch=1 n=c3 v=118
20710 On ch=1 n=f6 v=87
20756 On ch=1 n=d#6 v=74
20764 On ch=1 n=c3 v=0
20794 On ch=1 n=c4 v=89
20802 On ch=1 n=f6 v=0
20858 On ch=1 n=d#6 v=0
20860 On ch=1 n=d6 v=100
20904 On ch=1 n=c4 v=0
20912 On ch=1 n=d#6 v=97
20962 On ch=1 n=d6 v=0
20962 On ch=1 n=c4 v=91
20966 On ch=1 n=g6 v=114
20998 On ch=1 n=f6 v=76
21010 On ch=1 n=d#6 v=0
21040 On ch=1 n=f6 v=0
21066 On ch=1 n=c4 v=0
21104 On ch=1 n=c4 v=88
21136 Par ch=1 c=64 v=63
21150 Par ch=1 c=64 v=0
21194 On ch=1 n=g6 v=0
21226 On ch=1 n=c4 v=0
21254 On ch=1 n=f3 v=125
21266 Par ch=1 c=64 v=63
21280 Par ch=1 c=64 v=127
21366 On ch=1 n=f3 v=0
21392 On ch=1 n=f4 v=104
21482 On ch=1 n=f4 v=0
21556 On ch=1 n=g#6 v=124
21562 On ch=1 n=d6 v=116
21564 On ch=1 n=b5 v=120
21578 On ch=1 n=f4 v=107
21668 On ch=1 n=f4 v=0
21710 On ch=1 n=f4 v=96
21810 On ch=1 n=f4 v=0
21822 Par ch=1 c=64 v=63
21876 Par ch=1 c=64 v=127
21892 On ch=1 n=d#3 v=116
21966 On ch=1 n=b5 v=0
21978 On ch=1 n=d#3 v=0
21982 On ch=1 n=g#6 v=0
22018 On ch=1 n=d#4 v=90
22102 On ch=1 n=d#4 v=0
22130 On ch=1 n=d6 v=0
22170 On ch=1 n=d#6 v=115
22172 On ch=1 n=g6 v=102
22172 On ch=1 n=c6 v=104
22192 On ch=1 n=d#4 v=97
22232 On ch=1 n=c6 v=0
22234 On ch=1 n=d#6 v=0
22254 On ch=1 n=g6 v=0
22266 On ch=1 n=d#4 v=0
22312 On ch=1 n=d#4 v=104
22362 Par ch=1 c=64 v=63
22380 Par ch=1 c=64 v=0
22406 On ch=1 n=d#4 v=0
22480 Par ch=1 c=64 v=63
22486 On ch=1 n=d3 v=125
22502 Par ch=1 c=64 v=127
22586 On ch=1 n=d3 v=0
22636 On ch=1 n=d4 v=101
22716 On ch=1 n=f6 v=90
22732 On ch=1 n=d4 v=0
22772 On ch=1 n=b6 v=107
22788 On ch=1 n=d4 v=102
22806 On ch=1 n=f6 v=0
22926 Par ch=1 c=64 v=63
22942 Par ch=1 c=64 v=0
22982 On ch=1 n=b6 v=0
22984 On ch=1 n=d4 v=0
23010 On ch=1 n=f7 v=97
23046 Par ch=1 c=64 v=63
23050 On ch=1 n=c4 v=125
23064 Par ch=1 c=64 v=127
23096 On ch=1 n=d#7 v=108
23146 On ch=1 n=f7 v=0
23182 On ch=1 n=c4 v=0
23244 On ch=1 n=d#7 v=0
23248 On ch=1 n=g6 v=91
23346 On ch=1 n=g6 v=0
23410 On ch=1 n=c7 v=96
23520 Par ch=1 c=64 v=63
23546 On ch=1 n=c7 v=0
23554 On ch=1 n=d#6 v=99
23576 Par ch=1 c=64 v=0
23644 On ch=1 n=d#6 v=0
23724 On ch=1 n=f4 v=83
23890 On ch=1 n=f6 v=76
24040 On ch=1 n=g#6 v=93
24084 On ch=1 n=f6 v=0
24126 On ch=1 n=f4 v=0
24166 On ch=1 n=d6 v=91
24178 On ch=1 n=g#6 v=0
24262 On ch=1 n=d6 v=0
24318 On ch=1 n=g4 v=98
24466 On ch=1 n=d#6 v=107
24610 On ch=1 n=g6 v=91
24628 On ch=1 n=g4 v=0
24686 On ch=1 n=d#6 v=0
24750 On ch=1 n=c6 v=92
24780 On ch=1 n=g6 v=0
24846 On ch=1 n=c6 v=0
24896 On ch=1 n=g3 v=85
25072 On ch=1 n=d6 v=84
25192 On ch=1 n=g3 v=0
25204 On ch=1 n=f6 v=74
25212 On ch=1 n=d6 v=0
25366 On ch=1 n=b5 v=71
25382 On ch=1 n=f6 v=0
25480 On ch=1 n=b5 v=0
25544 On ch=1 n=c6 v=120
25556 On ch=1 n=c5 v=127
25590 Par ch=1 c=64 v=63
25592 Par ch=1 c=64 v=127
25688 On ch=1 n=c6 v=0
25844 On ch=1 n=c5 v=0
26232 On ch=1 n=d#5 v=112
26238 On ch=1 n=d#6 v=105
26244 Par ch=1 c=64 v=63
26250 Par ch=1 c=64 v=0
26300 On ch=1 n=d#6 v=0
26314 On ch=1 n=d#5 v=0
26560 On ch=1 n=g5 v=111
26566 On ch=1 n=g6 v=107
26626 On ch=1 n=g5 v=0
26628 On ch=1 n=g6 v=0
26854 On ch=1 n=c6 v=116
26858 On ch=1 n=c7 v=109
26914 On ch=1 n=c7 v=0
26940 On ch=1 n=c6 v=0
27166 On ch=1 n=d#7 v=124
27172 On ch=1 n=d#6 v=123
27202 Par ch=1 c=64 v=63
27206 Par ch=1 c=64 v=127
27220 On ch=1 n=d#7 v=0
27222 On ch=1 n=d#6 v=0
27652 On ch=1 n=d#6 v=103
27716 On ch=1 n=d#6 v=0
27804 On ch=1 n=d#6 v=115
27884 On ch=1 n=d#6 v=0
27888 On ch=1 n=f6 v=100
27932 On ch=1 n=d#6 v=94
27986 On ch=1 n=f6 v=0
28006 On ch=1 n=d6 v=106
28024 On ch=1 n=d#6 v=0
28064 On ch=1 n=d#6 v=109
28096 On ch=1 n=d6 v=0
28124 On ch=1 n=d#6 v=0
28202 On ch=1 n=a#3 v=113
28204 On ch=1 n=a#2 v=104
28208 On ch=1 n=g#6 v=119
28236 Par ch=1 c=64 v=63
28244 Par ch=1 c=64 v=0
28346 On ch=1 n=a#6 v=109
28386 On ch=1 n=g#6 v=0
28452 On ch=1 n=c7 v=96
28480 On ch=1 n=a#6 v=0
28482 Par ch=1 c=64 v=63
28490 Par ch=1 c=64 v=127
28558 On ch=1 n=a#2 v=0
28562 On ch=1 n=a#6 v=99
28606 On ch=1 n=a#3 v=0
28618 On ch=1 n=c7 v=0
28658 On ch=1 n=g#6 v=110
28700 On ch=1 n=a#6 v=0
28740 On ch=1 n=g6 v=101
28800 On ch=1 n=g#6 v=0
28848 On ch=1 n=f6 v=96
28870 On ch=1 n=g6 v=0
28882 On ch=1 n=d3 v=103
28882 On ch=1 n=d4 v=116
28918 Par ch=1 c=64 v=63
28928 Par ch=1 c=64 v=0
28948 On ch=1 n=d3 v=0
28952 On ch=1 n=d4 v=0
28956 On ch=1 n=f6 v=0
28956 On ch=1 n=g6 v=103
29058 On ch=1 n=g#6 v=110
29094 On ch=1 n=g6 v=0
29170 On ch=1 n=g6 v=98
29178 On ch=1 n=f3 v=94
29182 On ch=1 n=g#6 v=0
29186 On ch=1 n=f4 v=109
29254 On ch=1 n=f3 v=0
29262 On ch=1 n=f4 v=0
29278 On ch=1 n=f6 v=97
29284 On ch=1 n=g6 v=0
29394 On ch=1 n=d#6 v=110
29398 On ch=1 n=f6 v=0
29494 On ch=1 n=a#3 v=97
29494 On ch=1 n=a#4 v=112
29508 On ch=1 n=d6 v=108
29526 On ch=1 n=d#6 v=0
29550 On ch=1 n=a#3 v=0
29558 On ch=1 n=a#4 v=0
29602 On ch=1 n=d#6 v=97
29652 On ch=1 n=d6 v=0
29718 On ch=1 n=f6 v=98
29748 On ch=1 n=d#6 v=0
29800 On ch=1 n=d5 v=118
29806 On ch=1 n=d4 v=104
29812 On ch=1 n=d#6 v=91
29866 On ch=1 n=f6 v=0
29878 On ch=1 n=d5 v=0
29886 On ch=1 n=d4 v=0
29922 On ch=1 n=d6 v=96
29980 On ch=1 n=d#6 v=0
30024 On ch=1 n=c6 v=85
30034 On ch=1 n=d6 v=0
30126 On ch=1 n=a#5 v=109
30136 On ch=1 n=c6 v=0
30234 On ch=1 n=c6 v=90
30250 On ch=1 n=a#5 v=0
30338 On ch=1 n=a#5 v=84
30386 On ch=1 n=c6 v=0
30462 On ch=1 n=g#5 v=85
30510 On ch=1 n=a#5 v=0
30586 On ch=1 n=g#5 v=0
30592 On ch=1 n=a#5 v=70
30726 On ch=1 n=g#5 v=84
30728 On ch=1 n=a#5 v=0
30898 On ch=1 n=d#4 v=58
30908 On ch=1 n=g5 v=78
30954 On ch=1 n=g#5 v=0
31002 Par ch=1 c=64 v=63
31044 Par ch=1 c=64 v=127
31130 On ch=1 n=a#4 v=48
31274 On ch=1 n=g5 v=0
31318 On ch=1 n=g#5 v=81
31350 On ch=1 n=a#4 v=0
31360 On ch=1 n=g4 v=53
31382 On ch=1 n=g5 v=77
31384 On ch=1 n=g#5 v=0
31460 On ch=1 n=d#4 v=0
31468 On ch=1 n=g5 v=0
31468 On ch=1 n=f5 v=71
31504 On ch=1 n=a#4 v=65
31518 On ch=1 n=g4 v=0
31522 On ch=1 n=g5 v=78
31546 On ch=1 n=f5 v=0
31622 On ch=1 n=g#5 v=103
31662 On ch=1 n=a#4 v=0
31664 On ch=1 n=g5 v=0
31674 On ch=1 n=f4 v=52
31718 Par ch=1 c=64 v=63
31796 Par ch=1 c=64 v=127
31818 On ch=1 n=a#4 v=63
31980 On ch=1 n=d5 v=101
32002 On ch=1 n=g#5 v=0
32010 On ch=1 n=g#4 v=81
32030 On ch=1 n=a#4 v=0
32078 On ch=1 n=d5 v=0
32104 On ch=1 n=f4 v=0
32112 On ch=1 n=a#4 v=63
32156 On ch=1 n=g#4 v=0
32294 Par ch=1 c=64 v=63
32304 On ch=1 n=d#5 v=99
32314 Par ch=1 c=64 v=0
32318 On ch=1 n=a#4 v=0
32318 On ch=1 n=g4 v=65
32384 On ch=1 n=d#5 v=0
32444 On ch=1 n=a#4 v=65
32448 On ch=1 n=g4 v=0
32452 On ch=1 n=g5 v=73
32534 On ch=1 n=g5 v=0
32632 On ch=1 n=a#4 v=0
32632 On ch=1 n=d#4 v=76
32648 On ch=1 n=a#5 v=92
32654 Par ch=1 c=64 v=63
32668 Par ch=1 c=64 v=127
32782 On ch=1 n=d#4 v=0
32788 On ch=1 n=a#4 v=60
32958 On ch=1 n=a#4 v=0
32962 On ch=1 n=d4 v=68
33012 On ch=1 n=a#5 v=0
33086 On ch=1 n=d4 v=0
33096 Par ch=1 c=64 v=63
33102 On ch=1 n=a#4 v=66
33112 On ch=1 n=a5 v=84
33142 Par ch=1 c=64 v=0
33244 On ch=1 n=a#4 v=0
33270 On ch=1 n=g#5 v=87
33272 On ch=1 n=a5 v=0
33274 On ch=1 n=a#3 v=91
33364 On ch=1 n=a#3 v=0
33396 On ch=1 n=f#5 v=87
33402 On ch=1 n=a#4 v=54
33422 On ch=1 n=g#5 v=0
33542 On ch=1 n=f#5 v=0
33580 Par ch=1 c=64 v=63
33584 On ch=1 n=a#4 v=0
33584 On ch=1 n=g5 v=85
33586 On ch=1 n=d#4 v=65
33612 Par ch=1 c=64 v=127
33688 On ch=1 n=g5 v=0
33708 On ch=1 n=a#4 v=55
33724 On ch=1 n=d#4 v=0
33900 On ch=1 n=a#4 v=0
33912 On ch=1 n=g4 v=55
33918 On ch=1 n=g#5 v=70
33948 On ch=1 n=g5 v=76
33950 Par ch=1 c=64 v=63
33956 On ch=1 n=g#5 v=0
33998 Par ch=1 c=64 v=0
34018 On ch=1 n=g4 v=0
34024 On ch=1 n=a#4 v=64
34028 On ch=1 n=g5 v=0
34038 On ch=1 n=f5 v=77
34110 On ch=1 n=g5 v=75
34132 On ch=1 n=f5 v=0
34194 On ch=1 n=g#5 v=97
34198 On ch=1 n=a#4 v=0
34218 On ch=1 n=f4 v=47
34242 On ch=1 n=g5 v=0
34324 On ch=1 n=a#4 v=72
34356 On ch=1 n=f4 v=0
34504 Par ch=1 c=64 v=63
34514 Par ch=1 c=64 v=127
34532 On ch=1 n=g#4 v=70
34532 On ch=1 n=d5 v=82
34534 On ch=1 n=a#4 v=0
34546 On ch=1 n=g#5 v=0
34598 On ch=1 n=d5 v=0
34642 On ch=1 n=a#4 v=67
34652 On ch=1 n=g#4 v=0
34842 On ch=1 n=a#4 v=0
34854 On ch=1 n=g4 v=52
34856 On ch=1 n=d#5 v=89
34882 Par ch=1 c=64 v=63
34904 Par ch=1 c=64 v=0
34940 On ch=1 n=d#5 v=0
34988 On ch=1 n=a#4 v=55
35010 On ch=1 n=d#6 v=88
35012 On ch=1 n=g4 v=0
35038 Par ch=1 c=64 v=63
35066 Par ch=1 c=64 v=127
35168 On ch=1 n=d#4 v=69
35170 On ch=1 n=d#6 v=0
35172 On ch=1 n=d6 v=82
35196 On ch=1 n=a#4 v=0
35318 Par ch=1 c=64 v=63
35338 On ch=1 n=c6 v=93
35342 On ch=1 n=a#4 v=61
35350 On ch=1 n=d#4 v=0
35396 Par ch=1 c=64 v=0
35402 On ch=1 n=d6 v=0
35482 On ch=1 n=a#5 v=100
35512 On ch=1 n=d4 v=58
35520 On ch=1 n=a#4 v=0
35540 On ch=1 n=c6 v=0
35632 On ch=1 n=d4 v=0
35636 On ch=1 n=a#4 v=74
35640 On ch=1 n=a5 v=92
35690 On ch=1 n=a#5 v=0
35786 On ch=1 n=a#4 v=0
35796 On ch=1 n=g#5 v=98
35802 On ch=1 n=a#3 v=95
35812 On ch=1 n=a5 v=0
35908 On ch=1 n=a#3 v=0
35914 On ch=1 n=a#4 v=65
35948 On ch=1 n=f#5 v=95
36002 On ch=1 n=g#5 v=0
36098 On ch=1 n=d#4 v=65
36106 On ch=1 n=g5 v=84
36108 On ch=1 n=a#4 v=0
36122 On ch=1 n=f#5 v=0
36174 Par ch=1 c=64 v=63
36224 Par ch=1 c=64 v=127
36230 On ch=1 n=a#4 v=60
36282 On ch=1 n=d#4 v=0
36424 Par ch=1 c=64 v=63
36444 On ch=1 n=g5 v=0
36450 On ch=1 n=a#5 v=84
36456 On ch=1 n=a#4 v=0
36456 On ch=1 n=g4 v=52
36512 Par ch=1 c=64 v=127
36584 On ch=1 n=a#4 v=62
36608 On ch=1 n=g4 v=0
36670 On ch=1 n=a#5 v=0
36730 Par ch=1 c=64 v=63
36760 On ch=1 n=d4 v=76
36772 On ch=1 n=a#4 v=0
36826 Par ch=1 c=64 v=127
36886 On ch=1 n=a#4 v=75
36902 On ch=1 n=d4 v=0
36902 On ch=1 n=a#5 v=90
36976 On ch=1 n=a#5 v=0
37058 On ch=1 n=a#5 v=103
37066 On ch=1 n=f4 v=73
37078 On ch=1 n=a#4 v=0
37132 On ch=1 n=a#5 v=0
37180 On ch=1 n=a#5 v=99
37192 On ch=1 n=a#4 v=86
37210 On ch=1 n=f4 v=0
37286 On ch=1 n=a#5 v=0
37350 On ch=1 n=f6 v=91
37356 On ch=1 n=c4 v=78
37372 On ch=1 n=a#4 v=0
37404 Par ch=1 c=64 v=63
37448 Par ch=1 c=64 v=127
37508 On ch=1 n=a#4 v=57
37514 On ch=1 n=c4 v=0
37534 On ch=1 n=d#6 v=88
37576 On ch=1 n=f6 v=0
37602 On ch=1 n=d#6 v=0
37678 On ch=1 n=g4 v=63
37680 On ch=1 n=a#4 v=0
37684 On ch=1 n=d#6 v=88
37810 On ch=1 n=a#4 v=63
37854 On ch=1 n=g4 v=0
37924 On ch=1 n=d#6 v=0
37976 On ch=1 n=c4 v=92
37994 On ch=1 n=a#4 v=0
38020 Par ch=1 c=64 v=63
38028 Par ch=1 c=64 v=0
38092 On ch=1 n=a#4 v=79
38118 On ch=1 n=c4 v=0
38128 On ch=1 n=d#6 v=101
38200 On ch=1 n=d#6 v=0
38266 On ch=1 n=d#6 v=100
38270 On ch=1 n=g4 v=69
38274 On ch=1 n=a#4 v=0
38308 Par ch=1 c=64 v=63
38312 Par ch=1 c=64 v=127
38330 On ch=1 n=d#6 v=0
38398 On ch=1 n=a#4 v=80
38404 On ch=1 n=d#6 v=98
38430 On ch=1 n=g4 v=0
38470 On ch=1 n=d#6 v=0
38502 On ch=1 n=a#4 v=0
38568 On ch=1 n=d#6 v=116
38574 On ch=1 n=a4 v=101
38578 On ch=1 n=f4 v=100
38592 On ch=1 n=c4 v=85
38606 Par ch=1 c=64 v=63
38614 Par ch=1 c=64 v=0
38732 On ch=1 n=d#6 v=0
38786 On ch=1 n=f6 v=86
38864 On ch=1 n=g6 v=93
38868 On ch=1 n=f6 v=0
38918 On ch=1 n=f6 v=99
38970 On ch=1 n=g6 v=0
39008 On ch=1 n=f6 v=0
39086 On ch=1 n=d#6 v=109
39164 On ch=1 n=d#6 v=0
39244 On ch=1 n=d6 v=100
39328 On ch=1 n=d6 v=0
39400 On ch=1 n=c6 v=89
39492 On ch=1 n=c6 v=0
39532 On ch=1 n=c4 v=0
39560 On ch=1 n=a#5 v=97
39588 On ch=1 n=f4 v=0
39592 On ch=1 n=a4 v=0
39668 On ch=1 n=a#5 v=0
39706 On ch=1 n=a5 v=83
39798 On ch=1 n=a5 v=0
39904 On ch=1 n=c6 v=69
40250 On ch=1 n=a#5 v=72
40264 Par ch=1 c=64 v=63
40266 On ch=1 n=a#4 v=60
40286 On ch=1 n=d5 v=52
40290 Par ch=1 c=64 v=127
40336 On ch=1 n=c6 v=0
40396 On ch=1 n=d5 v=0
40422 On ch=1 n=a#4 v=0
40506 On ch=1 n=a#5 v=0
40602 On ch=1 n=d#5 v=72
40604 On ch=1 n=b4 v=68
40664 Par ch=1 c=64 v=63
40696 Par ch=1 c=64 v=0
40824 Par ch=1 c=64 v=63
40944 On ch=1 n=d#6 v=76
40968 Par ch=1 c=64 v=0
41006 On ch=1 n=d#6 v=0
41070 Par ch=1 c=64 v=63
41086 On ch=1 n=d#6 v=61
41142 On ch=1 n=d#5 v=0
41168 On ch=1 n=b4 v=0
41214 On ch=1 n=d#6 v=0
41292 On ch=1 n=a#6 v=84
41388 Par ch=1 c=64 v=127
41620 On ch=1 n=a#4 v=44
41636 On ch=1 n=d5 v=53
41764 On ch=1 n=d5 v=0
41776 On ch=1 n=a#4 v=0
41844 On ch=1 n=a#6 v=0
41964 On ch=1 n=d#5 v=54
41986 On ch=1 n=b4 v=57
42038 Par ch=1 c=64 v=63
42064 Par ch=1 c=64 v=0
42306 On ch=1 n=d#6 v=75
42366 On ch=1 n=d#6 v=0
42448 On ch=1 n=b4 v=0
42450 On ch=1 n=d#5 v=0
42466 On ch=1 n=d#6 v=66
42548 On ch=1 n=d#6 v=0
42590 Par ch=1 c=64 v=63
42648 Par ch=1 c=64 v=127
42650 On ch=1 n=a#6 v=78
42950 On ch=1 n=a#4 v=52
42968 On ch=1 n=d5 v=41
43066 On ch=1 n=a#4 v=0
43080 On ch=1 n=d5 v=0
43100 On ch=1 n=a#6 v=0
43276 On ch=1 n=d#5 v=48
43296 On ch=1 n=b4 v=54
43400 Par ch=1 c=64 v=63
43448 Par ch=1 c=64 v=0
43480 Par ch=1 c=64 v=63
43546 Par ch=1 c=64 v=127
43614 On ch=1 n=d#6 v=88
43686 On ch=1 n=b4 v=0
43690 On ch=1 n=d#6 v=0
43694 On ch=1 n=d#5 v=0
43744 On ch=1 n=d#6 v=87
43868 On ch=1 n=d#6 v=0
43894 Par ch=1 c=64 v=63
43918 On ch=1 n=a#4 v=55
43938 On ch=1 n=d5 v=25
43942 On ch=1 n=a#6 v=82
43994 Par ch=1 c=64 v=127
44068 On ch=1 n=a#6 v=0
44096 On ch=1 n=a#4 v=0
44126 On ch=1 n=d5 v=0
44222 Par ch=1 c=64 v=63
44258 On ch=1 n=d#5 v=75
44266 Par ch=1 c=64 v=0
44268 On ch=1 n=d#6 v=90
44276 On ch=1 n=b4 v=75
44348 Par ch=1 c=64 v=63
44360 On ch=1 n=d#6 v=0
44390 Par ch=1 c=64 v=127
44412 On ch=1 n=d#6 v=85
44514 On ch=1 n=d#6 v=0
44572 On ch=1 n=a#6 v=100
44580 On ch=1 n=a#4 v=80
44596 On ch=1 n=d5 v=79
44630 On ch=1 n=b4 v=0
44680 On ch=1 n=d#5 v=0
44772 On ch=1 n=a#6 v=0
44872 On ch=1 n=a#4 v=0
44896 On ch=1 n=d#6 v=93
44902 On ch=1 n=d#5 v=92
44904 On ch=1 n=b4 v=67
44972 On ch=1 n=d#6 v=0
44974 On ch=1 n=d5 v=0
45022 On ch=1 n=d#6 v=89
45140 On ch=1 n=d#6 v=0
45218 On ch=1 n=a#4 v=59
45220 On ch=1 n=a#6 v=85
45222 On ch=1 n=d5 v=60
45284 On ch=1 n=b4 v=0
45284 Par ch=1 c=64 v=63
45306 Par ch=1 c=64 v=0
45320 On ch=1 n=d#5 v=0
45460 Par ch=1 c=64 v=63
45496 On ch=1 n=a#6 v=0
45560 On ch=1 n=a#6 v=78
45668 Par ch=1 c=64 v=127
45812 On ch=1 n=a#6 v=0
45838 On ch=1 n=a#4 v=0
45864 On ch=1 n=d5 v=0
45892 On ch=1 n=a#6 v=90
46030 On ch=1 n=a#6 v=0
46192 On ch=1 n=a#6 v=108
46314 On ch=1 n=a#6 v=0
46568 On ch=1 n=a#6 v=95
46790 On ch=1 n=a6 v=81
46882 On ch=1 n=a#6 v=0
46958 On ch=1 n=g#6 v=92
47032 On ch=1 n=a6 v=0
47098 On ch=1 n=f6 v=85
47174 On ch=1 n=g#6 v=0
47244 On ch=1 n=a#6 v=103
47302 On ch=1 n=f6 v=0
47396 On ch=1 n=a6 v=97
47448 Par ch=1 c=64 v=63
47492 On ch=1 n=a#6 v=0
47496 Par ch=1 c=64 v=0
47546 On ch=1 n=g#6 v=96
47604 On ch=1 n=a6 v=0
47662 On ch=1 n=f6 v=83
47688 On ch=1 n=g#6 v=0
47868 On ch=1 n=g5 v=57
47868 On ch=1 n=d#6 v=93
47904 On ch=1 n=f6 v=0
47906 Par ch=1 c=64 v=63
47932 Par ch=1 c=64 v=127
48044 On ch=1 n=a#5 v=54
48046 On ch=1 n=g5 v=0
48206 On ch=1 n=a#5 v=0
48242 On ch=1 n=g5 v=40
48280 On ch=1 n=d#6 v=0
48368 On ch=1 n=a#5 v=55
48374 On ch=1 n=g5 v=0
48380 On ch=1 n=f6 v=66
48432 On ch=1 n=d#6 v=91
48460 On ch=1 n=f6 v=0
48504 On ch=1 n=a#5 v=0
48504 On ch=1 n=d6 v=86
48522 On ch=1 n=f5 v=39
48552 On ch=1 n=d#6 v=0
48636 On ch=1 n=a#5 v=55
48666 Par ch=1 c=64 v=63
48708 Par ch=1 c=64 v=0
48742 On ch=1 n=f5 v=0
48768 On ch=1 n=d6 v=0
48844 On ch=1 n=d#6 v=99
48848 On ch=1 n=a#5 v=0
48848 On ch=1 n=g5 v=63
48992 On ch=1 n=a#5 v=68
49054 On ch=1 n=g5 v=0
49062 On ch=1 n=d#6 v=0
49176 On ch=1 n=e6 v=99
49184 On ch=1 n=a#5 v=0
49200 On ch=1 n=g5 v=56
49204 Par ch=1 c=64 v=63
49224 Par ch=1 c=64 v=127
49334 On ch=1 n=a#5 v=58
49366 On ch=1 n=g5 v=0
49524 On ch=1 n=a#5 v=0
49532 On ch=1 n=g5 v=49
49652 On ch=1 n=a#5 v=55
49692 On ch=1 n=g5 v=0
49744 Par ch=1 c=64 v=63
49852 On ch=1 n=g#5 v=55
49854 On ch=1 n=a#5 v=0
49854 On ch=1 n=f6 v=71
49890 Par ch=1 c=64 v=127
49920 On ch=1 n=e6 v=0
50016 On ch=1 n=g#5 v=0
50016 On ch=1 n=a#5 v=48
50060 On ch=1 n=f6 v=0
50194 On ch=1 n=g#5 v=61
50196 On ch=1 n=a#5 v=0
50320 On ch=1 n=a#5 v=54
50342 On ch=1 n=g#5 v=0
50500 On ch=1 n=a#5 v=0
50506 On ch=1 n=f5 v=44
50520 On ch=1 n=g#4 v=79
50550 Par ch=1 c=64 v=63
50662 Par ch=1 c=64 v=127
50668 On ch=1 n=a#5 v=68
50696 On ch=1 n=f5 v=0
50844 On ch=1 n=a#5 v=0
50866 On ch=1 n=f5 v=68
50950 On ch=1 n=g#4 v=0
50992 On ch=1 n=a#5 v=55
51022 On ch=1 n=g4 v=75
51032 On ch=1 n=f5 v=0
51072 On ch=1 n=g#4 v=83
51110 On ch=1 n=g4 v=0
51140 On ch=1 n=a#5 v=0
51150 On ch=1 n=a#4 v=85
51190 On ch=1 n=f5 v=44
51198 On ch=1 n=g#4 v=0
51212 Par ch=1 c=64 v=63
51284 Par ch=1 c=64 v=127
51296 On ch=1 n=a#5 v=64
51320 On ch=1 n=g#4 v=98
51386 On ch=1 n=f5 v=0
51404 On ch=1 n=a#4 v=0
51476 On ch=1 n=a#5 v=0
51476 On ch=1 n=g4 v=84
51486 On ch=1 n=g5 v=63
51530 Par ch=1 c=64 v=63
51536 On ch=1 n=g#4 v=0
51614 On ch=1 n=f4 v=83
51618 On ch=1 n=a#5 v=72
51620 On ch=1 n=g4 v=0
51662 Par ch=1 c=64 v=0
51702 On ch=1 n=g5 v=0
51790 On ch=1 n=d#4 v=95
51814 On ch=1 n=g#5 v=66
51830 On ch=1 n=a#5 v=0
51834 On ch=1 n=f4 v=0
51958 On ch=1 n=a#5 v=57
52010 On ch=1 n=g#5 v=0
52124 On ch=1 n=f5 v=56
52134 On ch=1 n=a#5 v=0
52266 On ch=1 n=a#5 v=58
52288 On ch=1 n=f5 v=0
52446 On ch=1 n=g#5 v=61
52454 On ch=1 n=a#5 v=0
52454 On ch=1 n=d4 v=64
52506 Par ch=1 c=64 v=63
52528 On ch=1 n=d#4 v=0
52532 Par ch=1 c=64 v=127
52574 On ch=1 n=a#5 v=51
52614 On ch=1 n=g#5 v=0
52680 On ch=1 n=d4 v=0
52766 On ch=1 n=a#5 v=0
52782 On ch=1 n=f5 v=47
52912 On ch=1 n=a#5 v=65
52958 On ch=1 n=f5 v=0
53042 Par ch=1 c=64 v=63
53074 Par ch=1 c=64 v=0
53088 On ch=1 n=a#5 v=0
53092 On ch=1 n=d5 v=66
53102 On ch=1 n=f6 v=84
53198 Par ch=1 c=64 v=63
53234 On ch=1 n=a#5 v=58
53238 Par ch=1 c=64 v=127
53252 On ch=1 n=d5 v=0
53424 On ch=1 n=a#5 v=0
53424 On ch=1 n=d5 v=79
53516 On ch=1 n=f6 v=0
53550 On ch=1 n=d5 v=0
53584 On ch=1 n=a#5 v=60
53616 On ch=1 n=g6 v=54
53644 On ch=1 n=f6 v=93
53668 On ch=1 n=g6 v=0
53710 Par ch=1 c=64 v=63
53720 On ch=1 n=a#5 v=0
53724 On ch=1 n=c5 v=81
53726 On ch=1 n=d#6 v=98
53746 Par ch=1 c=64 v=0
53758 On ch=1 n=f6 v=0
53796 On ch=1 n=d#6 v=0
53856 On ch=1 n=a#5 v=75
53874 On ch=1 n=c5 v=0
54036 On ch=1 n=f6 v=97
54044 On ch=1 n=a#5 v=0
54048 On ch=1 n=d5 v=83
54114 On ch=1 n=f6 v=0
54148 On ch=1 n=a#5 v=87
54206 On ch=1 n=d5 v=0
54368 On ch=1 n=f#6 v=101
54378 On ch=1 n=d5 v=71
54392 On ch=1 n=a#5 v=0
54510 Par ch=1 c=64 v=63
54514 On ch=1 n=a#5 v=65
54522 Par ch=1 c=64 v=127
54570 On ch=1 n=d5 v=0
54712 On ch=1 n=d5 v=74
54718 On ch=1 n=a#5 v=0
54830 On ch=1 n=a#5 v=63
54848 On ch=1 n=d5 v=0
54992 On ch=1 n=f#6 v=0
54996 Par ch=1 c=64 v=63
55030 On ch=1 n=a#5 v=0
55030 On ch=1 n=d#5 v=58
55034 On ch=1 n=g6 v=70
55076 Par ch=1 c=64 v=127
55172 On ch=1 n=d#5 v=0
55178 On ch=1 n=a#5 v=48
55196 On ch=1 n=g6 v=0
55324 On ch=1 n=d#5 v=62
55338 On ch=1 n=a#5 v=0
55476 On ch=1 n=a#5 v=50
55498 On ch=1 n=d#5 v=0
55540 Par ch=1 c=64 v=63
55562 Par ch=1 c=64 v=0
55674 On ch=1 n=a#5 v=0
55674 On ch=1 n=a#4 v=93
55680 Par ch=1 c=64 v=63
55712 Par ch=1 c=64 v=127
55712 On ch=1 n=g5 v=42
55834 On ch=1 n=a#5 v=63
55852 On ch=1 n=g5 v=0
55932 On ch=1 n=a#4 v=0
56002 On ch=1 n=d#5 v=65
56006 On ch=1 n=a#5 v=0
56142 On ch=1 n=a#5 v=58
56164 On ch=1 n=d#5 v=0
56188 On ch=1 n=a4 v=73
56230 On ch=1 n=a#4 v=90
56264 On ch=1 n=a4 v=0
56308 On ch=1 n=a#5 v=0
56316 On ch=1 n=c5 v=87
56338 On ch=1 n=a#4 v=0
56342 On ch=1 n=g5 v=46
56356 Par ch=1 c=64 v=63
56374 Par ch=1 c=64 v=0
56472 On ch=1 n=a#4 v=101
56510 On ch=1 n=a#5 v=67
56522 On ch=1 n=c5 v=0
56552 On ch=1 n=g5 v=0
56640 On ch=1 n=g#4 v=98
56650 On ch=1 n=d#5 v=76
56672 On ch=1 n=a#5 v=0
56698 On ch=1 n=a#4 v=0
56776 On ch=1 n=g4 v=86
56778 On ch=1 n=a#5 v=57
56784 On ch=1 n=g#4 v=0
56898 On ch=1 n=d#5 v=0
56952 On ch=1 n=f4 v=98
56960 On ch=1 n=g4 v=0
56968 On ch=1 n=g#5 v=72
56980 On ch=1 n=a#5 v=0
57000 Par ch=1 c=64 v=63
57106 On ch=1 n=a#5 v=61
57122 Par ch=1 c=64 v=0
57156 On ch=1 n=g#5 v=0
57276 On ch=1 n=f5 v=49
57288 On ch=1 n=a#5 v=0
57416 On ch=1 n=a#5 v=63
57506 On ch=1 n=f5 v=0
57598 On ch=1 n=d#4 v=71
57600 Par ch=1 c=64 v=63
57610 Par ch=1 c=64 v=127
57620 On ch=1 n=a#5 v=0
57620 On ch=1 n=g5 v=56
57634 On ch=1 n=f4 v=0
57748 On ch=1 n=d#4 v=0
57780 On ch=1 n=a#5 v=57
57804 On ch=1 n=g5 v=0
57934 On ch=1 n=d#5 v=75
57946 On ch=1 n=a#5 v=0
58010 Par ch=1 c=64 v=63
58080 Par ch=1 c=64 v=0
58090 On ch=1 n=d#5 v=0
58092 On ch=1 n=a#5 v=70
58192 On ch=1 n=a#5 v=0
58248 Par ch=1 c=64 v=63
58258 On ch=1 n=a#5 v=116
58260 On ch=1 n=a#6 v=114
58260 Par ch=1 c=64 v=127
58270 On ch=1 n=d#5 v=114
58336 On ch=1 n=a#5 v=0
58370 On ch=1 n=a#6 v=0
58394 On ch=1 n=d#5 v=0
58430 On ch=1 n=g5 v=65
58584 On ch=1 n=d#5 v=105
58594 On ch=1 n=g5 v=0
58724 On ch=1 n=g5 v=81
58726 On ch=1 n=d#5 v=0
58902 On ch=1 n=b6 v=106
58910 On ch=1 n=b5 v=107
58918 On ch=1 n=c#5 v=121
58926 On ch=1 n=g5 v=0
58932 Par ch=1 c=64 v=63
58952 Par ch=1 c=64 v=0
59046 On ch=1 n=f5 v=96
59048 Par ch=1 c=64 v=63
59070 Par ch=1 c=64 v=127
59100 On ch=1 n=c#5 v=0
59192 On ch=1 n=b5 v=0
59222 On ch=1 n=c#5 v=119
59230 On ch=1 n=b6 v=0
59244 On ch=1 n=f5 v=0
59346 On ch=1 n=f5 v=94
59420 On ch=1 n=c#5 v=0
59506 On ch=1 n=f5 v=0
59534 On ch=1 n=c6 v=114
59536 On ch=1 n=c7 v=109
59538 On ch=1 n=c5 v=121
59556 Par ch=1 c=64 v=63
59564 Par ch=1 c=64 v=0
59602 On ch=1 n=c6 v=0
59610 On ch=1 n=c7 v=0
59648 On ch=1 n=c5 v=0
59682 On ch=1 n=e5 v=99
59792 On ch=1 n=e5 v=0
59900 On ch=1 n=e5 v=114
59900 On ch=1 n=c#7 v=112
59902 On ch=1 n=c#6 v=118
59906 On ch=1 n=a#4 v=114
59920 Par ch=1 c=64 v=63
59922 Par ch=1 c=64 v=127
59950 On ch=1 n=c#6 v=0
59958 On ch=1 n=e5 v=0
59960 On ch=1 n=a#4 v=0
59970 On ch=1 n=c#7 v=0
60384 Par ch=1 c=64 v=63
60410 Par ch=1 c=64 v=0
61162 On ch=1 n=g#4 v=49
61168 On ch=1 n=f5 v=40
61182 Par ch=1 c=64 v=63
61276 Par ch=1 c=64 v=127
61406 On ch=1 n=c7 v=63
61570 On ch=1 n=a#6 v=80
61606 On ch=1 n=c7 v=0
61708 On ch=1 n=g#6 v=90
61772 On ch=1 n=a#6 v=0
61852 On ch=1 n=g6 v=88
61920 On ch=1 n=g#6 v=0
61984 On ch=1 n=f6 v=87
62000 On ch=1 n=g6 v=0
62140 On ch=1 n=g6 v=88
62144 Par ch=1 c=64 v=63
62158 On ch=1 n=f6 v=0
62164 Par ch=1 c=64 v=0
62292 On ch=1 n=g#6 v=96
62294 On ch=1 n=g#4 v=0
62314 On ch=1 n=f5 v=0
62320 On ch=1 n=g6 v=0
62446 On ch=1 n=g#6 v=0
62480 On ch=1 n=d#6 v=95
62846 On ch=1 n=g5 v=74
62862 On ch=1 n=a#4 v=61
62924 Par ch=1 c=64 v=63
62936 Par ch=1 c=64 v=127
63054 On ch=1 n=g5 v=0
63196 On ch=1 n=g#5 v=89
63530 On ch=1 n=a#4 v=0
63534 On ch=1 n=g6 v=82
63550 On ch=1 n=d6 v=75
63552 On ch=1 n=b4 v=54
63560 On ch=1 n=d#6 v=0
63584 Par ch=1 c=64 v=63
63606 Par ch=1 c=64 v=0
63696 On ch=1 n=f6 v=85
63754 On ch=1 n=g6 v=0
63766 On ch=1 n=d6 v=0
63824 On ch=1 n=g#5 v=0
63842 On ch=1 n=b4 v=0
63880 On ch=1 n=d#6 v=88
63892 On ch=1 n=g5 v=39
63894 On ch=1 n=c5 v=47
63940 On ch=1 n=f6 v=0
64154 Par ch=1 c=64 v=63
64170 Par ch=1 c=64 v=127
64176 On ch=1 n=d#6 v=0
64374 Par ch=1 c=64 v=63
64404 Par ch=1 c=64 v=0
64416 On ch=1 n=d#6 v=80
64418 On ch=1 n=g5 v=0
64492 On ch=1 n=c5 v=0
64554 On ch=1 n=d6 v=81
64632 On ch=1 n=d#6 v=0
64708 Par ch=1 c=64 v=63
64724 On ch=1 n=c#6 v=99
64734 Par ch=1 c=64 v=127
64782 On ch=1 n=d6 v=0
64862 On ch=1 n=c6 v=88
64874 On ch=1 n=c#6 v=0
64966 On ch=1 n=c6 v=0
64992 Par ch=1 c=64 v=63
65004 On ch=1 n=b5 v=102
65020 Par ch=1 c=64 v=0
65164 On ch=1 n=d#4 v=114
65170 On ch=1 n=a#5 v=114
65178 Par ch=1 c=64 v=63
65190 Par ch=1 c=64 v=127
65220 On ch=1 n=b5 v=0
65320 On ch=1 n=g4 v=87
65346 On ch=1 n=d#4 v=0
65364 On ch=1 n=a#5 v=0
65478 On ch=1 n=d#4 v=108
65488 On ch=1 n=g4 v=0
65608 On ch=1 n=g4 v=84
65616 On ch=1 n=d#4 v=0
65782 On ch=1 n=b5 v=109
65786 On ch=1 n=b4 v=104
65800 On ch=1 n=c#4 v=125
65812 On ch=1 n=g4 v=0
65828 Par ch=1 c=64 v=63
65844 Par ch=1 c=64 v=0
65932 Par ch=1 c=64 v=63
65940 On ch=1 n=f4 v=84
65950 Par ch=1 c=64 v=127
65974 On ch=1 n=c#4 v=0
66068 On ch=1 n=b4 v=0
66108 On ch=1 n=c#4 v=119
66110 On ch=1 n=f4 v=0
66116 On ch=1 n=b5 v=0
66226 On ch=1 n=f4 v=98
66284 On ch=1 n=c#4 v=0
66376 On ch=1 n=f4 v=0
66394 Par ch=1 c=64 v=63
66400 Par ch=1 c=64 v=0
66408 On ch=1 n=c5 v=117
66408 On ch=1 n=c6 v=112
66412 On ch=1 n=c4 v=125
66470 On ch=1 n=c5 v=0
66480 On ch=1 n=c6 v=0
66518 On ch=1 n=c4 v=0
66544 On ch=1 n=e4 v=109
66664 On ch=1 n=e4 v=0
66758 On ch=1 n=e4 v=118
66760 On ch=1 n=c#6 v=113
66760 On ch=1 n=c#5 v=120
66762 On ch=1 n=a#3 v=124
66792 Par ch=1 c=64 v=127
66808 On ch=1 n=c#5 v=0
66818 On ch=1 n=e4 v=0
66820 On ch=1 n=a#3 v=0
66824 On ch=1 n=c#6 v=0
67224 Par ch=1 c=64 v=63
67248 Par ch=1 c=64 v=0
67890 Par ch=1 c=64 v=63
67904 Par ch=1 c=64 v=127
67906 On ch=1 n=c4 v=114
67908 On ch=1 n=g#3 v=108
67908 On ch=1 n=f4 v=124
67912 On ch=1 n=c6 v=127
68048 On ch=1 n=c6 v=0
68056 On ch=1 n=f6 v=98
68128 On ch=1 n=f6 v=0
68142 On ch=1 n=g5 v=89
68242 On ch=1 n=g5 v=0
68252 On ch=1 n=g#5 v=109
68348 On ch=1 n=c6 v=91
68362 On ch=1 n=g#5 v=0
68434 On ch=1 n=e5 v=89
68444 On ch=1 n=c6 v=0
68528 On ch=1 n=e5 v=0
68540 On ch=1 n=f5 v=92
68636 On ch=1 n=g#5 v=101
68652 On ch=1 n=f5 v=0
68688 On ch=1 n=f4 v=0
68712 On ch=1 n=c4 v=0
68724 On ch=1 n=g#5 v=0
68746 On ch=1 n=b4 v=71
68754 On ch=1 n=g#3 v=0
68812 On ch=1 n=b4 v=0
68870 On ch=1 n=c5 v=86
68966 On ch=1 n=c5 v=0
68978 On ch=1 n=f5 v=90
69068 On ch=1 n=f5 v=0
69078 On ch=1 n=g4 v=77
69172 On ch=1 n=g4 v=0
69210 On ch=1 n=f3 v=122
69212 On ch=1 n=f2 v=101
69212 On ch=1 n=g#4 v=115
69228 On ch=1 n=f3 v=0
69322 On ch=1 n=c5 v=93
69336 Par ch=1 c=64 v=63
69338 On ch=1 n=g#4 v=0
69356 Par ch=1 c=64 v=0
69396 Par ch=1 c=64 v=63
69412 On ch=1 n=e4 v=94
69428 Par ch=1 c=64 v=127
69432 On ch=1 n=c5 v=0
69520 On ch=1 n=e4 v=0
69524 On ch=1 n=f4 v=96
69624 On ch=1 n=g#4 v=107
69632 On ch=1 n=f4 v=0
69716 On ch=1 n=g#4 v=0
69722 On ch=1 n=b3 v=84
69832 On ch=1 n=b3 v=0
69834 On ch=1 n=c4 v=104
69936 On ch=1 n=f4 v=102
69958 On ch=1 n=c4 v=0
70022 On ch=1 n=f4 v=0
70034 On ch=1 n=g3 v=100
70146 On ch=1 n=g3 v=0
70148 On ch=1 n=g#3 v=110
70266 On ch=1 n=g#3 v=0
70268 On ch=1 n=c4 v=85
70346 On ch=1 n=e3 v=92
70362 On ch=1 n=c4 v=0
70444 On ch=1 n=e3 v=0
70502 On ch=1 n=f3 v=126
70562 Par ch=1 c=64 v=63
70596 Par ch=1 c=64 v=0
70720 Par ch=1 c=64 v=63
70750 Par ch=1 c=64 v=127
70862 On ch=1 n=f2 v=0
70950 On ch=1 n=g#2 v=121
71142 On ch=1 n=f3 v=0
71180 On ch=1 n=c3 v=100
71296 On ch=1 n=c3 v=0
71350 On ch=1 n=g#3 v=103
71474 On ch=1 n=g#3 v=0
71504 On ch=1 n=f3 v=93
71630 On ch=1 n=f3 v=0
71644 On ch=1 n=c4 v=107
71682 On ch=1 n=g#2 v=0
71796 On ch=1 n=g#3 v=110
71856 On ch=1 n=c4 v=0
71886 On ch=1 n=g#3 v=0
71938 On ch=1 n=f4 v=102
72054 On ch=1 n=f4 v=0
72072 On ch=1 n=c4 v=103
72212 On ch=1 n=c4 v=0
72242 On ch=1 n=g#4 v=108
72360 On ch=1 n=g#4 v=0
72394 On ch=1 n=f4 v=90
72546 On ch=1 n=c5 v=106
72586 On ch=1 n=f4 v=0
72690 On ch=1 n=g#4 v=110
72738 On ch=1 n=c5 v=0
72796 On ch=1 n=g#4 v=0
72852 On ch=1 n=f5 v=103
72952 On ch=1 n=f5 v=0
72998 On ch=1 n=c5 v=94
73108 On ch=1 n=c5 v=0
73160 On ch=1 n=g#5 v=114
73270 On ch=1 n=g#5 v=0
73298 On ch=1 n=f5 v=97
73454 On ch=1 n=c6 v=109
73478 On ch=1 n=f5 v=0
73600 On ch=1 n=g#5 v=116
73658 On ch=1 n=c6 v=0
73702 On ch=1 n=g#5 v=0
73764 On ch=1 n=f6 v=111
73854 On ch=1 n=f6 v=0
73920 On ch=1 n=c6 v=100
74018 On ch=1 n=c6 v=0
74080 On ch=1 n=g#6 v=114
74188 On ch=1 n=g#6 v=0
74234 On ch=1 n=f6 v=96
74370 On ch=1 n=f6 v=0
74444 On ch=1 n=c7 v=120
74768 On ch=1 n=f5 v=118
74770 On ch=1 n=g#4 v=106
74770 On ch=1 n=c5 v=109
74774 Par ch=1 c=64 v=63
74786 Par ch=1 c=64 v=0
74826 On ch=1 n=c7 v=0
74906 Par ch=1 c=64 v=63
74966 Par ch=1 c=64 v=0
75090 On ch=1 n=f5 v=0
75100 On ch=1 n=g#4 v=0
75102 On ch=1 n=c5 v=0
75124 On ch=1 n=d#7 v=125
75178 Par ch=1 c=64 v=63
75190 Par ch=1 c=64 v=127
75476 On ch=1 n=d#7 v=0
75488 On ch=1 n=f#5 v=121
75496 On ch=1 n=a4 v=87
75496 On ch=1 n=c5 v=98
75744 On ch=1 n=c5 v=0
75746 On ch=1 n=a4 v=0
75904 On ch=1 n=f#5 v=0
75950 On ch=1 n=g5 v=91
75956 On ch=1 n=a#4 v=81
75958 On ch=1 n=d#5 v=91
76088 Par ch=1 c=64 v=63
76124 Par ch=1 c=64 v=0
76176 On ch=1 n=a#5 v=88
76300 Par ch=1 c=64 v=63
76320 On ch=1 n=a#5 v=0
76324 Par ch=1 c=64 v=127
76362 On ch=1 n=a#6 v=91
76520 On ch=1 n=a#6 v=0
76526 On ch=1 n=a6 v=91
76660 On ch=1 n=g#6 v=106
76714 On ch=1 n=a6 v=0
76824 On ch=1 n=g6 v=83
76846 On ch=1 n=a6 v=68
76882 Par ch=1 c=64 v=63
76888 On ch=1 n=g#6 v=0
76926 Par ch=1 c=64 v=0
76950 On ch=1 n=a6 v=0
77000 On ch=1 n=f#6 v=99
77046 On ch=1 n=g6 v=0
77052 Par ch=1 c=64 v=63
77082 Par ch=1 c=64 v=127
77140 On ch=1 n=a#4 v=0
77140 On ch=1 n=f6 v=99
77148 On ch=1 n=g5 v=0
77150 On ch=1 n=d#5 v=0
77196 On ch=1 n=f#6 v=0
77230 On ch=1 n=f6 v=0
77296 On ch=1 n=f6 v=99
77426 On ch=1 n=d#6 v=101
77480 On ch=1 n=f6 v=0
77532 On ch=1 n=d#6 v=0
77618 On ch=1 n=d#6 v=82
77618 On ch=1 n=g5 v=64
77622 On ch=1 n=a#4 v=67
77626 Par ch=1 c=64 v=63
77684 Par ch=1 c=64 v=0
77728 Par ch=1 c=64 v=63
77768 Par ch=1 c=64 v=127
77844 On ch=1 n=g5 v=0
77976 On ch=1 n=g#5 v=72
78052 Par ch=1 c=64 v=63
78118 Par ch=1 c=64 v=127
78340 On ch=1 n=g6 v=71
78342 On ch=1 n=d#6 v=0
78386 On ch=1 n=d6 v=49
78436 On ch=1 n=a#4 v=0
78512 On ch=1 n=f6 v=70
78528 On ch=1 n=g6 v=0
78530 On ch=1 n=g#5 v=0
78572 On ch=1 n=d6 v=0
78672 Par ch=1 c=64 v=63
78682 On ch=1 n=d#6 v=76
78696 Par ch=1 c=64 v=0
78704 On ch=1 n=d#5 v=51
78734 On ch=1 n=f6 v=0
78788 Par ch=1 c=64 v=63
78836 Par ch=1 c=64 v=127
78852 On ch=1 n=a#5 v=54
78940 On ch=1 n=d#6 v=0
79026 On ch=1 n=g5 v=60
79028 On ch=1 n=a#5 v=0
79114 On ch=1 n=d#5 v=0
79158 On ch=1 n=d#6 v=87
79192 On ch=1 n=a#5 v=60
79218 On ch=1 n=g5 v=0
79252 Par ch=1 c=64 v=63
79286 Par ch=1 c=64 v=0
79310 On ch=1 n=e6 v=83
79316 On ch=1 n=d#6 v=0
79326 On ch=1 n=d5 v=68
79348 On ch=1 n=a#5 v=0
79416 Par ch=1 c=64 v=63
79462 Par ch=1 c=64 v=127
79484 On ch=1 n=f6 v=96
79496 On ch=1 n=a#5 v=62
79498 On ch=1 n=d5 v=0
79524 On ch=1 n=e6 v=0
79654 On ch=1 n=g#5 v=77
79664 On ch=1 n=f6 v=0
79666 On ch=1 n=a#5 v=0
79784 On ch=1 n=g#5 v=0
79798 On ch=1 n=a#5 v=73
79798 On ch=1 n=f6 v=93
79840 Par ch=1 c=64 v=63
79868 Par ch=1 c=64 v=0
79942 On ch=1 n=f#6 v=97
79964 On ch=1 n=d#5 v=79
79966 On ch=1 n=a#5 v=0
79972 On ch=1 n=f6 v=0
79990 Par ch=1 c=64 v=63
80024 Par ch=1 c=64 v=127
80092 On ch=1 n=g6 v=94
80122 On ch=1 n=f#6 v=0
80126 On ch=1 n=a#5 v=72
80144 On ch=1 n=d#5 v=0
80256 On ch=1 n=a#5 v=0
80262 On ch=1 n=g5 v=65
80270 On ch=1 n=g6 v=0
80390 On ch=1 n=g5 v=0
80396 On ch=1 n=a#5 v=94
80428 On ch=1 n=g6 v=96
80460 On ch=1 n=a#5 v=0
80568 On ch=1 n=a#6 v=106
80576 On ch=1 n=f4 v=87
80584 On ch=1 n=g6 v=0
80596 Par ch=1 c=64 v=63
80650 Par ch=1 c=64 v=0
80686 Par ch=1 c=64 v=63
80704 On ch=1 n=d5 v=82
80714 On ch=1 n=g#6 v=99
80798 Par ch=1 c=64 v=127
80844 On ch=1 n=a#6 v=0
80880 On ch=1 n=g#4 v=103
80910 On ch=1 n=d5 v=0
80936 On ch=1 n=g#6 v=0
80938 On ch=1 n=f4 v=0
81030 On ch=1 n=g#6 v=110
81040 On ch=1 n=d5 v=87
81070 On ch=1 n=g#4 v=0
81106 Par ch=1 c=64 v=63
81128 Par ch=1 c=64 v=0
81180 On ch=1 n=a6 v=109
81186 On ch=1 n=d5 v=0
81194 On ch=1 n=g4 v=85
81222 On ch=1 n=g#6 v=0
81264 Par ch=1 c=64 v=63
81288 Par ch=1 c=64 v=127
81324 On ch=1 n=a#6 v=114
81340 On ch=1 n=d#5 v=103
81376 On ch=1 n=a6 v=0
81384 On ch=1 n=g4 v=0
81430 On ch=1 n=a#6 v=0
81480 On ch=1 n=a#4 v=98
81506 On ch=1 n=d#5 v=0
81614 On ch=1 n=d#5 v=101
81630 On ch=1 n=a#6 v=115
81670 On ch=1 n=a#4 v=0
81712 Par ch=1 c=64 v=63
81734 Par ch=1 c=64 v=0
81770 On ch=1 n=b6 v=108
81794 On ch=1 n=g#4 v=101
81796 On ch=1 n=a#6 v=0
81796 On ch=1 n=d#5 v=0
81876 Par ch=1 c=64 v=63
81898 Par ch=1 c=64 v=127
81922 On ch=1 n=c7 v=114
81924 On ch=1 n=d#5 v=92
81952 On ch=1 n=b6 v=0
81968 On ch=1 n=g#4 v=0
82010 On ch=1 n=c7 v=0
82082 On ch=1 n=c5 v=87
82092 On ch=1 n=d#5 v=0
82126 Par ch=1 c=64 v=63
82174 Par ch=1 c=64 v=0
82194 On ch=1 n=c5 v=0
82202 On ch=1 n=d#5 v=92
82230 On ch=1 n=d#7 v=110
82304 On ch=1 n=d#7 v=0
82328 On ch=1 n=d#5 v=0
82382 On ch=1 n=d#7 v=100
82396 On ch=1 n=a#4 v=88
82400 Par ch=1 c=64 v=63
82420 Par ch=1 c=64 v=127
82446 On ch=1 n=d#7 v=0
82524 On ch=1 n=d#6 v=103
82554 On ch=1 n=g5 v=60
82584 On ch=1 n=d#6 v=0
82594 On ch=1 n=a#4 v=0
82694 On ch=1 n=d#6 v=112
82716 On ch=1 n=g5 v=0
82716 On ch=1 n=d#5 v=84
82750 On ch=1 n=d#6 v=0
82840 On ch=1 n=d#5 v=0
82860 On ch=1 n=g5 v=68
82988 On ch=1 n=g5 v=0
83016 On ch=1 n=a#4 v=101
83152 On ch=1 n=a#4 v=0
83152 On ch=1 n=g#5 v=92
83288 Par ch=1 c=64 v=63
83310 On ch=1 n=g#5 v=0
83310 Par ch=1 c=64 v=0
83340 On ch=1 n=d5 v=76
83344 On ch=1 n=g6 v=103
83434 On ch=1 n=d5 v=0
83472 On ch=1 n=f6 v=93
83474 On ch=1 n=g#5 v=89
83482 On ch=1 n=g6 v=0
83526 On ch=1 n=g#5 v=0
83558 On ch=1 n=f6 v=0
83656 On ch=1 n=d#4 v=91
83662 On ch=1 n=d#6 v=101
83672 Par ch=1 c=64 v=63
83674 Par ch=1 c=64 v=127
83712 On ch=1 n=d#6 v=0
83764 Par ch=1 c=64 v=63
83766 On ch=1 n=d#4 v=0
83778 Par ch=1 c=64 v=0
83782 On ch=1 n=d#6 v=85
83816 On ch=1 n=a#4 v=65
83842 On ch=1 n=d#6 v=0
83954 On ch=1 n=d#6 v=112
83994 On ch=1 n=a#4 v=0
84004 On ch=1 n=g4 v=60
84028 On ch=1 n=d#6 v=0
84038 On ch=1 n=f6 v=84
84082 On ch=1 n=d#6 v=80
84098 On ch=1 n=f6 v=0
84098 On ch=1 n=g4 v=0
84108 On ch=1 n=a#4 v=70
84144 On ch=1 n=d6 v=91
84146 On ch=1 n=d#6 v=0
84200 On ch=1 n=d#6 v=88
84212 On ch=1 n=d6 v=0
84262 On ch=1 n=a#4 v=0
84262 On ch=1 n=f6 v=109
84284 On ch=1 n=d4 v=94
84286 Par ch=1 c=64 v=63
84288 Par ch=1 c=64 v=127
84292 On ch=1 n=d#6 v=0
84350 On ch=1 n=f6 v=0
84392 On ch=1 n=d4 v=0
84422 On ch=1 n=a#4 v=75
84436 On ch=1 n=f6 v=87
84462 Par ch=1 c=64 v=63
84472 On ch=1 n=f6 v=0
84472 Par ch=1 c=64 v=0
84532 On ch=1 n=a#4 v=0
84590 On ch=1 n=f6 v=116
84616 On ch=1 n=g#4 v=85
84650 On ch=1 n=g6 v=102
84662 On ch=1 n=f6 v=0
84682 On ch=1 n=g6 v=0
84700 On ch=1 n=g#4 v=0
84706 On ch=1 n=f6 v=87
84726 On ch=1 n=a#4 v=71
84768 On ch=1 n=d#6 v=107
84770 On ch=1 n=f6 v=0
84826 On ch=1 n=d#6 v=0
84828 On ch=1 n=f6 v=82
84888 On ch=1 n=a#4 v=0
84890 On ch=1 n=g6 v=109
84908 On ch=1 n=d#4 v=108
84940 On ch=1 n=f6 v=0
84968 On ch=1 n=g6 v=0
85044 On ch=1 n=d#4 v=0
85056 On ch=1 n=a#4 v=82
85056 On ch=1 n=g6 v=100
85100 On ch=1 n=g6 v=0
85224 On ch=1 n=a#4 v=0
85236 On ch=1 n=g6 v=116
85256 On ch=1 n=g4 v=82
85300 On ch=1 n=g6 v=0
85304 On ch=1 n=g#6 v=107
85358 On ch=1 n=g#6 v=0
85358 On ch=1 n=a#4 v=89
85364 On ch=1 n=g6 v=75
85370 On ch=1 n=g4 v=0
85418 On ch=1 n=f6 v=99
85446 On ch=1 n=g6 v=0
85454 On ch=1 n=a#4 v=0
85484 On ch=1 n=g6 v=85
85490 On ch=1 n=f6 v=0
85534 On ch=1 n=g#6 v=116
85556 On ch=1 n=f4 v=113
85572 On ch=1 n=g6 v=0
85602 On ch=1 n=g#6 v=0
85706 On ch=1 n=g#6 v=110
85706 On ch=1 n=d5 v=94
85740 On ch=1 n=f4 v=0
85770 On ch=1 n=g#6 v=0
85876 On ch=1 n=g#6 v=119
85880 On ch=1 n=d5 v=0
85888 On ch=1 n=a#4 v=109
85942 On ch=1 n=a#6 v=110
85946 On ch=1 n=g#6 v=0
85972 On ch=1 n=a#4 v=0
85992 On ch=1 n=g#6 v=93
85998 On ch=1 n=a#6 v=0
86018 On ch=1 n=d5 v=76
86064 On ch=1 n=g6 v=97
86066 On ch=1 n=g#6 v=0
86088 On ch=1 n=d5 v=0
86120 On ch=1 n=g#6 v=73
86146 On ch=1 n=g6 v=0
86178 On ch=1 n=a#6 v=118
86194 On ch=1 n=a#4 v=110
86196 On ch=1 n=d#5 v=124
86198 On ch=1 n=g4 v=100
86222 On ch=1 n=g#6 v=0
86226 Par ch=1 c=64 v=63
86226 Par ch=1 c=64 v=127
86326 On ch=1 n=a#6 v=0
86334 On ch=1 n=a#4 v=0
86340 On ch=1 n=d#5 v=0
86340 On ch=1 n=c7 v=107
86360 On ch=1 n=g4 v=0
86432 On ch=1 n=c7 v=0
86450 On ch=1 n=d7 v=107
86536 On ch=1 n=d#7 v=113
86564 On ch=1 n=d7 v=0
86634 On ch=1 n=d7 v=104
86648 On ch=1 n=d#7 v=0
86734 On ch=1 n=c7 v=94
86740 On ch=1 n=d7 v=0
86796 Par ch=1 c=64 v=63
86804 Par ch=1 c=64 v=0
86846 On ch=1 n=a#6 v=110
86876 On ch=1 n=c7 v=0
86954 On ch=1 n=g#6 v=105
87000 On ch=1 n=a#6 v=0
87048 On ch=1 n=g6 v=98
87058 On ch=1 n=g#6 v=0
87142 On ch=1 n=f6 v=96
87156 On ch=1 n=g6 v=0
87240 On ch=1 n=d#6 v=112
87262 On ch=1 n=f6 v=0
87328 On ch=1 n=d6 v=107
87356 On ch=1 n=d#6 v=0
87438 On ch=1 n=c6 v=111
87482 On ch=1 n=d6 v=0
87518 On ch=1 n=c6 v=0
87806 On ch=1 n=c7 v=113
87810 On ch=1 n=d#6 v=116
87812 On ch=1 n=g#6 v=107
87812 On ch=1 n=g#4 v=119
87848 On ch=1 n=d#6 v=0
87854 On ch=1 n=g#6 v=0
87870 On ch=1 n=c7 v=0
87874 On ch=1 n=g#4 v=0
88130 On ch=1 n=a#4 v=119
88132 On ch=1 n=d#6 v=114
88132 On ch=1 n=g6 v=104
88136 On ch=1 n=a#6 v=108
88170 On ch=1 n=g6 v=0
88180 On ch=1 n=a#6 v=0
88184 On ch=1 n=d#6 v=0
88188 On ch=1 n=a#4 v=0
88474 On ch=1 n=a#3 v=118
88476 On ch=1 n=d6 v=113
88476 On ch=1 n=g#5 v=118
88480 On ch=1 n=f5 v=106
88516 On ch=1 n=f5 v=0
88526 On ch=1 n=g#5 v=0
88536 On ch=1 n=d6 v=0
88536 On ch=1 n=a#3 v=0
88828 On ch=1 n=d#4 v=121
88832 On ch=1 n=d#6 v=124
88836 On ch=1 n=g5 v=116
88868 Par ch=1 c=64 v=127
88882 On ch=1 n=d#4 v=0
88886 On ch=1 n=g5 v=0
88892 On ch=1 n=d#6 v=0
89262 On ch=1 n=a#6 v=86
89368 On ch=1 n=g#6 v=90
89380 On ch=1 n=a#6 v=0
89482 On ch=1 n=g6 v=91
89530 On ch=1 n=g#6 v=0
89568 On ch=1 n=f6 v=88
89582 On ch=1 n=g6 v=0
89660 On ch=1 n=d#6 v=115
89682 On ch=1 n=f6 v=0
89760 On ch=1 n=d6 v=103
89782 On ch=1 n=d#6 v=0
89786 Par ch=1 c=64 v=63
89802 Par ch=1 c=64 v=0
89878 On ch=1 n=d#6 v=112
89882 On ch=1 n=g5 v=87
89886 On ch=1 n=d#5 v=95
89888 On ch=1 n=d6 v=0
89978 On ch=1 n=c#6 v=105
90012 On ch=1 n=d#5 v=0
90012 On ch=1 n=d#6 v=0
90054 On ch=1 n=g5 v=0
90066 On ch=1 n=b5 v=92
90084 On ch=1 n=c#6 v=0
90200 On ch=1 n=b5 v=0
90202 On ch=1 n=c6 v=102
90220 On ch=1 n=d#5 v=72
90224 On ch=1 n=g#5 v=79
90286 On ch=1 n=c6 v=0
90306 Par ch=1 c=64 v=63
90310 Par ch=1 c=64 v=127
90572 On ch=1 n=g#5 v=0
90596 On ch=1 n=c7 v=76
90598 Par ch=1 c=64 v=63
90612 On ch=1 n=d#5 v=0
90612 Par ch=1 c=64 v=0
90686 On ch=1 n=a#6 v=86
90712 On ch=1 n=c7 v=0
90780 On ch=1 n=g#6 v=97
90814 On ch=1 n=a#6 v=0
90874 On ch=1 n=g6 v=92
90922 On ch=1 n=g#6 v=0
90978 On ch=1 n=g6 v=0
90978 On ch=1 n=f6 v=87
91066 On ch=1 n=f6 v=0
91076 On ch=1 n=d#6 v=103
91188 On ch=1 n=d#6 v=0
91190 On ch=1 n=d6 v=92
91204 On ch=1 n=g#5 v=86
91216 On ch=1 n=a#4 v=63
91226 On ch=1 n=d5 v=75
91236 On ch=1 n=f5 v=57
91284 On ch=1 n=f5 v=0
91292 On ch=1 n=g#5 v=0
91294 On ch=1 n=d5 v=0
91294 On ch=1 n=g#6 v=92
91304 On ch=1 n=d6 v=0
91330 On ch=1 n=a#4 v=0
91402 On ch=1 n=f6 v=80
91452 On ch=1 n=g#6 v=0
91526 On ch=1 n=d#6 v=104
91542 On ch=1 n=d#5 v=88
91548 On ch=1 n=g5 v=76
91560 On ch=1 n=f6 v=0
91590 Par ch=1 c=64 v=63
91594 Par ch=1 c=64 v=127
91604 On ch=1 n=d#6 v=0
91646 On ch=1 n=g5 v=0
91658 On ch=1 n=d#5 v=0
91850 Par ch=1 c=64 v=63
91862 Par ch=1 c=64 v=0
91918 On ch=1 n=a#5 v=100
92008 On ch=1 n=g#5 v=99
92042 On ch=1 n=a#5 v=0
92122 On ch=1 n=g5 v=90
92174 On ch=1 n=g#5 v=0
92214 On ch=1 n=g5 v=0
92214 On ch=1 n=f5 v=87
92312 On ch=1 n=d#5 v=103
92318 On ch=1 n=f5 v=0
92414 On ch=1 n=d5 v=93
92424 On ch=1 n=d#5 v=0
92528 On ch=1 n=d5 v=0
92532 On ch=1 n=d#5 v=99
92544 On ch=1 n=g4 v=86
92550 On ch=1 n=d#4 v=93
92606 On ch=1 n=d#4 v=0
92606 On ch=1 n=g4 v=0
92632 On ch=1 n=c#5 v=101
92684 On ch=1 n=d#5 v=0
92732 On ch=1 n=b4 v=83
92746 On ch=1 n=c#5 v=0
92852 On ch=1 n=b4 v=0
92880 On ch=1 n=c5 v=97
92884 On ch=1 n=g#4 v=85
92888 On ch=1 n=d#4 v=80
92924 Par ch=1 c=64 v=63
92934 Par ch=1 c=64 v=127
92948 On ch=1 n=c5 v=0
92958 On ch=1 n=g#4 v=0
92966 On ch=1 n=d#4 v=0
93228 Par ch=1 c=64 v=63
93234 On ch=1 n=c6 v=74
93248 Par ch=1 c=64 v=0
93332 On ch=1 n=a#5 v=80
93352 On ch=1 n=c6 v=0
93432 On ch=1 n=g#5 v=88
93458 On ch=1 n=a#5 v=0
93544 On ch=1 n=g5 v=79
93550 On ch=1 n=g#5 v=0
93642 On ch=1 n=g5 v=0
93650 On ch=1 n=f5 v=78
93736 On ch=1 n=f5 v=0
93748 On ch=1 n=d#5 v=92
93840 On ch=1 n=a#3 v=78
93842 On ch=1 n=g#4 v=80
93854 On ch=1 n=d#5 v=0
93854 On ch=1 n=d5 v=96
93856 On ch=1 n=f4 v=63
93904 On ch=1 n=f4 v=0
93908 On ch=1 n=a#3 v=0
93932 On ch=1 n=g#4 v=0
93960 On ch=1 n=d5 v=0
93960 On ch=1 n=g#5 v=88
94054 On ch=1 n=f5 v=76
94092 On ch=1 n=g#5 v=0
94176 On ch=1 n=d#5 v=123
94200 On ch=1 n=g4 v=98
94200 On ch=1 n=d#4 v=116
94214 On ch=1 n=f5 v=0
94244 Par ch=1 c=64 v=127
94246 On ch=1 n=d#5 v=0
94288 On ch=1 n=g4 v=0
94296 On ch=1 n=d#4 v=0
94932 On ch=1 n=g5 v=112
94938 Par ch=1 c=64 v=63
94944 Par ch=1 c=64 v=0
95006 On ch=1 n=g5 v=0
95278 On ch=1 n=a#5 v=121
95342 On ch=1 n=a#5 v=0
95612 On ch=1 n=d#6 v=124
95620 On ch=1 n=d#4 v=127
95622 On ch=1 n=d#3 v=123
95658 Par ch=1 c=64 v=63
95660 Par ch=1 c=64 v=127
95688 On ch=1 n=d#6 v=0
95690 On ch=1 n=d#3 v=0
95692 On ch=1 n=d#4 v=0
95956 On ch=1 n=g6 v=116
96030 On ch=1 n=g6 v=0
96284 On ch=1 n=g3 v=88
96288 On ch=1 n=g4 v=108
96294 Par ch=1 c=64 v=63
96300 Par ch=1 c=64 v=0
96354 On ch=1 n=g3 v=0
96362 On ch=1 n=g4 v=0
96470 On ch=1 n=g6 v=102
96520 On ch=1 n=g6 v=0
96624 On ch=1 n=a#3 v=103
96624 On ch=1 n=a#4 v=112
96626 On ch=1 n=g6 v=113
96672 On ch=1 n=a#3 v=0
96674 On ch=1 n=a#4 v=0
96682 On ch=1 n=g#6 v=108
96694 On ch=1 n=g6 v=0
96744 On ch=1 n=g#6 v=0
96748 On ch=1 n=g6 v=84
96802 On ch=1 n=f6 v=100
96814 On ch=1 n=g6 v=0
96872 On ch=1 n=g6 v=75
96888 On ch=1 n=f6 v=0
96944 On ch=1 n=d#5 v=125
96944 On ch=1 n=a#6 v=113
96946 On ch=1 n=d#4 v=113
96954 Par ch=1 c=64 v=63
96956 Par ch=1 c=64 v=127
96972 On ch=1 n=g6 v=0
96992 On ch=1 n=d#4 v=0
97002 On ch=1 n=d#5 v=0
97004 On ch=1 n=a#6 v=0
97282 On ch=1 n=d#6 v=124
97292 On ch=1 n=g5 v=102
97292 On ch=1 n=g4 v=87
97338 On ch=1 n=g4 v=0
97340 On ch=1 n=g5 v=0
97346 On ch=1 n=d#6 v=0
97348 Par ch=1 c=64 v=63
97356 Par ch=1 c=64 v=0
97628 On ch=1 n=d#6 v=115
97682 On ch=1 n=d#6 v=0
97970 On ch=1 n=d#6 v=112
98030 On ch=1 n=d#6 v=0
98312 On ch=1 n=g4 v=82
98316 On ch=1 n=f5 v=84
98328 On ch=1 n=g#6 v=97
98340 On ch=1 n=d5 v=79
98362 Par ch=1 c=64 v=63
98366 Par ch=1 c=64 v=127
98376 On ch=1 n=d5 v=0
98386 On ch=1 n=g4 v=0
98392 On ch=1 n=f5 v=0
98432 On ch=1 n=g#6 v=0
98678 On ch=1 n=b5 v=73
98758 On ch=1 n=b5 v=0
99092 On ch=1 n=b5 v=60
99232 On ch=1 n=b5 v=0
99456 Par ch=1 c=64 v=63
99464 Par ch=1 c=64 v=0
99992 On ch=1 n=c3 v=124
99992 On ch=1 n=c4 v=126
100000 On ch=1 n=c5 v=126
100002 Par ch=1 c=64 v=63
100002 Par ch=1 c=64 v=127
100092 On ch=1 n=c5 v=0
100242 On ch=1 n=c3 v=0
100312 On ch=1 n=c4 v=0
100708 On ch=1 n=e3 v=96
100708 On ch=1 n=e5 v=109
100712 On ch=1 n=e4 v=112
100722 Par ch=1 c=64 v=63
100726 Par ch=1 c=64 v=0
100768 On ch=1 n=e3 v=0
100782 On ch=1 n=e5 v=0
100788 On ch=1 n=e4 v=0
101038 On ch=1 n=g5 v=102
101044 On ch=1 n=g3 v=101
101044 On ch=1 n=g4 v=112
101106 On ch=1 n=g3 v=0
101120 On ch=1 n=g4 v=0
101120 On ch=1 n=g5 v=0
101358 On ch=1 n=c6 v=116
101362 On ch=1 n=c4 v=96
101368 On ch=1 n=c5 v=116
101432 On ch=1 n=c4 v=0
101434 On ch=1 n=c6 v=0
101436 On ch=1 n=c5 v=0
101692 On ch=1 n=e4 v=96
101696 On ch=1 n=e6 v=117
101700 On ch=1 n=e5 v=113
101754 Par ch=1 c=64 v=63
101762 On ch=1 n=e6 v=0
101764 Par ch=1 c=64 v=127
101772 On ch=1 n=e5 v=0
101786 On ch=1 n=e4 v=0
101824 Par ch=1 c=64 v=63
101866 Par ch=1 c=64 v=0
102308 Par ch=1 c=64 v=63
102312 Par ch=1 c=64 v=127
102318 On ch=1 n=g6 v=116
102378 On ch=1 n=g6 v=0
102436 On ch=1 n=g6 v=108
102500 On ch=1 n=g#6 v=104
102512 On ch=1 n=g6 v=0
102578 On ch=1 n=g#6 v=0
102588 On ch=1 n=g6 v=38
102638 On ch=1 n=f6 v=90
102644 On ch=1 n=g6 v=0
102698 On ch=1 n=g6 v=83
102728 On ch=1 n=f6 v=0
102828 On ch=1 n=g6 v=0
102840 On ch=1 n=a#6 v=109
102842 On ch=1 n=a#3 v=127
102844 On ch=1 n=a#2 v=124
102880 Par ch=1 c=64 v=63
102890 Par ch=1 c=64 v=0
102978 Par ch=1 c=64 v=63
102988 On ch=1 n=c7 v=104
103008 Par ch=1 c=64 v=127
103014 On ch=1 n=a#6 v=0
103118 On ch=1 n=c#7 v=110
103168 On ch=1 n=c7 v=0
103228 On ch=1 n=c7 v=94
103270 On ch=1 n=c#7 v=0
103318 On ch=1 n=a#2 v=0
103330 On ch=1 n=a#6 v=108
103376 On ch=1 n=c7 v=0
103378 On ch=1 n=a#3 v=0
103426 On ch=1 n=g#6 v=108
103506 On ch=1 n=a#6 v=0
103558 On ch=1 n=e4 v=109
103560 On ch=1 n=g6 v=94
103562 On ch=1 n=e3 v=102
103600 On ch=1 n=g#6 v=0
103620 On ch=1 n=e3 v=0
103624 On ch=1 n=e4 v=0
103658 Par ch=1 c=64 v=63
103680 Par ch=1 c=64 v=0
103682 On ch=1 n=g6 v=0
103688 On ch=1 n=g#6 v=112
103798 On ch=1 n=a#6 v=105
103844 On ch=1 n=g#6 v=0
103884 On ch=1 n=g3 v=96
103888 On ch=1 n=g4 v=104
103910 On ch=1 n=g#6 v=97
103950 On ch=1 n=g3 v=0
103956 On ch=1 n=a#6 v=0
103970 On ch=1 n=g4 v=0
104010 On ch=1 n=g6 v=101
104088 On ch=1 n=g#6 v=0
104106 On ch=1 n=f6 v=94
104134 On ch=1 n=g6 v=0
104210 On ch=1 n=f6 v=0
104218 On ch=1 n=a#4 v=116
104220 On ch=1 n=a#3 v=101
104228 On ch=1 n=e6 v=106
104276 On ch=1 n=a#3 v=0
104282 On ch=1 n=a#4 v=0
104330 On ch=1 n=g6 v=100
104354 On ch=1 n=e6 v=0
104440 On ch=1 n=e6 v=98
104474 On ch=1 n=g6 v=0
104520 On ch=1 n=c#5 v=110
104524 On ch=1 n=c#4 v=100
104544 On ch=1 n=c#6 v=107
104568 On ch=1 n=e6 v=0
104586 On ch=1 n=c#4 v=0
104586 On ch=1 n=c#5 v=0
104648 On ch=1 n=c#6 v=0
104656 On ch=1 n=e6 v=85
104766 On ch=1 n=c#6 v=96
104784 On ch=1 n=e6 v=0
104856 On ch=1 n=a#5 v=86
104868 On ch=1 n=c#6 v=0
104976 On ch=1 n=c#6 v=96
104988 On ch=1 n=a#5 v=0
105070 On ch=1 n=a#5 v=65
105108 On ch=1 n=c#6 v=0
105184 On ch=1 n=a#5 v=0
105190 On ch=1 n=g5 v=67
105298 On ch=1 n=g5 v=0
105310 On ch=1 n=a#5 v=85
105420 On ch=1 n=a#5 v=0
105430 On ch=1 n=g5 v=61
105594 On ch=1 n=f4 v=45
105624 On ch=1 n=g#5 v=80
105652 On ch=1 n=g5 v=0
105678 Par ch=1 c=64 v=63
105718 Par ch=1 c=64 v=127
105880 On ch=1 n=c5 v=51
105992 On ch=1 n=f4 v=0
106020 On ch=1 n=g#5 v=0
106098 On ch=1 n=a#5 v=65
106102 On ch=1 n=g#4 v=67
106108 On ch=1 n=c5 v=0
106148 On ch=1 n=g#5 v=64
106168 On ch=1 n=a#5 v=0
106232 On ch=1 n=g5 v=67
106238 On ch=1 n=g#5 v=0
106262 On ch=1 n=g#4 v=0
106294 On ch=1 n=c5 v=43
106314 On ch=1 n=g#5 v=80
106354 On ch=1 n=g5 v=0
106412 On ch=1 n=a#5 v=80
106436 Par ch=1 c=64 v=63
106452 On ch=1 n=g4 v=64
106454 On ch=1 n=c5 v=0
106456 On ch=1 n=g#5 v=0
106470 Par ch=1 c=64 v=0
106542 Par ch=1 c=64 v=63
106600 Par ch=1 c=64 v=127
106616 On ch=1 n=g4 v=0
106618 On ch=1 n=c5 v=78
106792 On ch=1 n=a#5 v=0
106796 On ch=1 n=e5 v=87
106796 On ch=1 n=a#4 v=77
106806 On ch=1 n=c5 v=0
106914 On ch=1 n=a#4 v=0
106926 On ch=1 n=c5 v=64
106950 On ch=1 n=e5 v=0
107106 On ch=1 n=g#4 v=76
107108 On ch=1 n=c5 v=0
107108 Par ch=1 c=64 v=63
107116 On ch=1 n=f5 v=87
107128 Par ch=1 c=64 v=0
107190 On ch=1 n=f5 v=0
107230 On ch=1 n=g#4 v=0
107236 On ch=1 n=g#5 v=94
107256 On ch=1 n=c5 v=59
107306 On ch=1 n=g#5 v=0
107436 On ch=1 n=f4 v=57
107438 On ch=1 n=c5 v=0
107452 On ch=1 n=c6 v=92
107512 Par ch=1 c=64 v=63
107526 Par ch=1 c=64 v=127
107624 On ch=1 n=f4 v=0
107630 On ch=1 n=c5 v=54
107822 On ch=1 n=e4 v=77
107826 On ch=1 n=c5 v=0
107968 On ch=1 n=e4 v=0
107968 On ch=1 n=c6 v=0
107978 On ch=1 n=b5 v=90
108002 On ch=1 n=c5 v=63
108102 Par ch=1 c=64 v=63
108126 On ch=1 n=c4 v=81
108128 On ch=1 n=c5 v=0
108136 On ch=1 n=a#5 v=94
108150 On ch=1 n=b5 v=0
108166 Par ch=1 c=64 v=0
108216 On ch=1 n=c4 v=0
108266 On ch=1 n=a#5 v=0
108266 On ch=1 n=g5 v=86
108268 On ch=1 n=c5 v=76
108400 On ch=1 n=g5 v=0
108424 On ch=1 n=c5 v=0
108432 On ch=1 n=f4 v=74
108450 On ch=1 n=g#5 v=96
108454 Par ch=1 c=64 v=63
108484 Par ch=1 c=64 v=127
108534 On ch=1 n=f4 v=0
108548 On ch=1 n=g#5 v=0
108574 On ch=1 n=c5 v=52
108778 On ch=1 n=c5 v=0
108788 On ch=1 n=g#4 v=61
108810 On ch=1 n=a#5 v=80
108856 On ch=1 n=g#5 v=91
108884 On ch=1 n=a#5 v=0
108898 On ch=1 n=g#4 v=0
108918 On ch=1 n=c5 v=54
108936 On ch=1 n=g#5 v=0
108948 On ch=1 n=g5 v=73
109008 On ch=1 n=g#5 v=93
109018 Par ch=1 c=64 v=63
109046 On ch=1 n=g5 v=0
109048 Par ch=1 c=64 v=0
109070 On ch=1 n=c5 v=0
109082 On ch=1 n=a#5 v=105
109086 On ch=1 n=g4 v=61
109132 On ch=1 n=g#5 v=0
109158 Par ch=1 c=64 v=63
109200 Par ch=1 c=64 v=127
109220 On ch=1 n=g4 v=0
109226 On ch=1 n=c5 v=70
109310 Par ch=1 c=64 v=63
109346 Par ch=1 c=64 v=0
109388 Par ch=1 c=64 v=63
109434 On ch=1 n=a#4 v=77
109442 On ch=1 n=c5 v=0
109442 On ch=1 n=a#5 v=0
109448 Par ch=1 c=64 v=127
109452 On ch=1 n=e5 v=98
109530 On ch=1 n=e5 v=0
109558 On ch=1 n=c5 v=72
109568 On ch=1 n=a#4 v=0
109764 On ch=1 n=c5 v=0
109766 On ch=1 n=g#4 v=66
109772 On ch=1 n=f5 v=87
109814 Par ch=1 c=64 v=63
109882 Par ch=1 c=64 v=0
109888 On ch=1 n=f5 v=0
109898 On ch=1 n=c5 v=55
109902 On ch=1 n=g#4 v=0
109932 On ch=1 n=f6 v=90
110100 On ch=1 n=f4 v=68
110106 Par ch=1 c=64 v=63
110108 On ch=1 n=d#6 v=100
110110 On ch=1 n=c5 v=0
110148 Par ch=1 c=64 v=127
110150 On ch=1 n=f6 v=0
110238 On ch=1 n=c5 v=76
110246 On ch=1 n=c#6 v=104
110260 On ch=1 n=f4 v=0
110336 On ch=1 n=d#6 v=0
110350 Par ch=1 c=64 v=63
110398 On ch=1 n=c6 v=96
110410 On ch=1 n=e4 v=86
110418 On ch=1 n=c5 v=0
110434 On ch=1 n=c#6 v=0
110502 On ch=1 n=c6 v=0
110534 On ch=1 n=e4 v=0
110538 On ch=1 n=c5 v=81
110540 On ch=1 n=b5 v=102
110624 Par ch=1 c=64 v=0
110692 On ch=1 n=c5 v=0
110716 On ch=1 n=a#5 v=107
110720 On ch=1 n=c4 v=90
110740 On ch=1 n=b5 v=0
110810 On ch=1 n=c4 v=0
110838 On ch=1 n=a#5 v=0
110848 On ch=1 n=g5 v=90
110864 On ch=1 n=c5 v=69
110968 On ch=1 n=g5 v=0
110994 On ch=1 n=c5 v=0
111058 On ch=1 n=g#5 v=127
111064 On ch=1 n=f4 v=113
111104 Par ch=1 c=64 v=127
111188 On ch=1 n=g#4 v=101
111226 On ch=1 n=f4 v=0
111294 On ch=1 n=c5 v=96
111302 On ch=1 n=g#4 v=0
111364 On ch=1 n=g#5 v=0
111386 On ch=1 n=a#4 v=101
111414 On ch=1 n=c5 v=0
111464 On ch=1 n=g#4 v=100
111504 On ch=1 n=a#4 v=0
111560 On ch=1 n=g4 v=79
111582 On ch=1 n=g#4 v=0
111662 On ch=1 n=f4 v=101
111674 Par ch=1 c=64 v=63
111680 Par ch=1 c=64 v=0
111694 On ch=1 n=c6 v=108
111696 On ch=1 n=g4 v=0
111768 On ch=1 n=c6 v=0
111774 On ch=1 n=g#4 v=101
111808 On ch=1 n=f4 v=0
111892 On ch=1 n=c5 v=84
111902 On ch=1 n=g#4 v=0
111998 On ch=1 n=a#4 v=99
112002 On ch=1 n=f6 v=111
112016 On ch=1 n=c5 v=0
112060 On ch=1 n=f6 v=0
112074 On ch=1 n=g#4 v=96
112108 On ch=1 n=a#4 v=0
112178 On ch=1 n=g4 v=74
112194 On ch=1 n=g#4 v=0
112302 On ch=1 n=f4 v=91
112324 On ch=1 n=g4 v=0
112328 On ch=1 n=g#6 v=123
112376 Par ch=1 c=64 v=63
112378 Par ch=1 c=64 v=127
112400 On ch=1 n=g#6 v=0
112410 On ch=1 n=g#4 v=99
112438 On ch=1 n=f4 v=0
112546 On ch=1 n=c5 v=89
112548 On ch=1 n=g#4 v=0
112630 On ch=1 n=c7 v=118
112658 On ch=1 n=a#4 v=99
112690 Par ch=1 c=64 v=63
112692 On ch=1 n=c5 v=0
112702 Par ch=1 c=64 v=0
112718 On ch=1 n=c7 v=0
112730 On ch=1 n=g#4 v=101
112778 On ch=1 n=a#4 v=0
112846 On ch=1 n=g4 v=76
112862 On ch=1 n=g#4 v=0
112954 On ch=1 n=f4 v=90
113004 On ch=1 n=g4 v=0
113050 On ch=1 n=f4 v=0
113054 On ch=1 n=g4 v=81
113160 On ch=1 n=f4 v=94
113176 On ch=1 n=g4 v=0
113250 On ch=1 n=d#4 v=108
113278 On ch=1 n=f4 v=0
113348 On ch=1 n=f4 v=92
113372 On ch=1 n=d#4 v=0
113444 On ch=1 n=d#4 v=110
113496 On ch=1 n=f4 v=0
113532 On ch=1 n=d#4 v=0
113618 Par ch=1 c=64 v=63
113620 Par ch=1 c=64 v=127
113632 On ch=1 n=d4 v=125
113636 On ch=1 n=c7 v=114
113644 On ch=1 n=d3 v=120
113694 On ch=1 n=d3 v=0
113804 On ch=1 n=d7 v=102
113820 On ch=1 n=c7 v=0
113870 On ch=1 n=d4 v=0
113912 On ch=1 n=d#7 v=112
113932 On ch=1 n=d7 v=0
114010 On ch=1 n=d7 v=101
114038 On ch=1 n=d#7 v=0
114114 On ch=1 n=c7 v=98
114124 On ch=1 n=d7 v=0
114220 On ch=1 n=a#6 v=112
114246 On ch=1 n=c7 v=0
114314 On ch=1 n=f#4 v=125
114320 On ch=1 n=f#3 v=116
114326 Par ch=1 c=64 v=63
114334 Par ch=1 c=64 v=0
114336 On ch=1 n=a6 v=104
114358 On ch=1 n=a#6 v=0
114370 On ch=1 n=f#3 v=0
114376 On ch=1 n=f#4 v=0
114434 On ch=1 n=a#6 v=107
114486 On ch=1 n=a6 v=0
114548 On ch=1 n=c7 v=107
114568 On ch=1 n=a#6 v=0
114636 On ch=1 n=a3 v=93
114640 On ch=1 n=a4 v=86
114646 On ch=1 n=a#6 v=108
114672 On ch=1 n=a3 v=0
114692 On ch=1 n=a4 v=0
114706 On ch=1 n=c7 v=0
114730 On ch=1 n=a6 v=111
114814 On ch=1 n=a#6 v=0
114846 On ch=1 n=g6 v=97
114866 On ch=1 n=a6 v=0
114946 On ch=1 n=d5 v=121
114950 On ch=1 n=d4 v=113
114960 On ch=1 n=f#6 v=115
114982 On ch=1 n=g6 v=0
115004 On ch=1 n=d5 v=0
115006 On ch=1 n=d4 v=0
115064 On ch=1 n=a6 v=104
115090 On ch=1 n=f#6 v=0
115174 On ch=1 n=f#6 v=101
115224 On ch=1 n=a6 v=0
115276 On ch=1 n=f#5 v=127
115278 On ch=1 n=f#4 v=121
115278 On ch=1 n=d#6 v=118
115322 On ch=1 n=f#6 v=0
115328 On ch=1 n=f#5 v=0
115356 On ch=1 n=f#4 v=0
115376 On ch=1 n=a6 v=102
115416 On ch=1 n=d#6 v=0
115472 On ch=1 n=d#6 v=85
115524 On ch=1 n=a6 v=0
115578 On ch=1 n=d6 v=96
115604 On ch=1 n=d#6 v=0
115688 On ch=1 n=a6 v=99
115704 On ch=1 n=d6 v=0
115798 On ch=1 n=d6 v=99
115826 On ch=1 n=a6 v=0
115906 On ch=1 n=c6 v=108
115912 On ch=1 n=d6 v=0
116018 On ch=1 n=a6 v=104
116020 On ch=1 n=c6 v=0
116102 On ch=1 n=a6 v=0
116102 On ch=1 n=c6 v=97
116188 On ch=1 n=c6 v=0
116242 On ch=1 n=a#5 v=123
116250 On ch=1 n=g4 v=114
116264 Par ch=1 c=64 v=63
116272 Par ch=1 c=64 v=127
116314 On ch=1 n=a#5 v=0
116400 On ch=1 n=a#4 v=89
116426 On ch=1 n=g4 v=0
116528 On ch=1 n=a#4 v=0
116546 On ch=1 n=d5 v=69
116644 On ch=1 n=c5 v=82
116664 On ch=1 n=d5 v=0
116726 On ch=1 n=a#4 v=92
116762 On ch=1 n=c5 v=0
116850 On ch=1 n=a4 v=63
116858 On ch=1 n=a#4 v=0
116932 On ch=1 n=g4 v=91
116954 On ch=1 n=d6 v=106
116976 On ch=1 n=a4 v=0
116990 Par ch=1 c=64 v=63
117012 Par ch=1 c=64 v=0
117020 On ch=1 n=d6 v=0
117060 On ch=1 n=a#4 v=103
117098 On ch=1 n=g4 v=0
117172 On ch=1 n=d5 v=92
117196 On ch=1 n=a#4 v=0
117282 On ch=1 n=g6 v=114
117290 On ch=1 n=c5 v=101
117320 On ch=1 n=d5 v=0
117354 On ch=1 n=g6 v=0
117378 On ch=1 n=a#4 v=104
117424 On ch=1 n=c5 v=0
117494 On ch=1 n=a4 v=73
117516 On ch=1 n=a#4 v=0
117584 On ch=1 n=g4 v=101
117602 On ch=1 n=a#6 v=125
117636 On ch=1 n=a4 v=0
117676 On ch=1 n=a#6 v=0
117712 On ch=1 n=a#4 v=105
117766 On ch=1 n=g4 v=0
117820 On ch=1 n=d5 v=87
117850 On ch=1 n=a#4 v=0
117912 On ch=1 n=d7 v=122
117926 On ch=1 n=c5 v=92
117958 On ch=1 n=d5 v=0
117978 On ch=1 n=d7 v=0
118018 On ch=1 n=a#4 v=98
118062 On ch=1 n=c5 v=0
118114 On ch=1 n=a4 v=71
118148 On ch=1 n=a#4 v=0
118226 On ch=1 n=g4 v=93
118266 On ch=1 n=a4 v=0
118332 On ch=1 n=a#4 v=99
118368 On ch=1 n=g4 v=0
118444 On ch=1 n=d5 v=85
118460 On ch=1 n=a#4 v=0
118552 On ch=1 n=g4 v=90
118568 On ch=1 n=d5 v=0
118650 On ch=1 n=a#4 v=88
118702 On ch=1 n=g4 v=0
118754 On ch=1 n=d5 v=73
118784 On ch=1 n=a#4 v=0
118922 On ch=1 n=f4 v=69
118946 On ch=1 n=d5 v=0
118962 Par ch=1 c=64 v=63
118964 On ch=1 n=b5 v=109
118994 Par ch=1 c=64 v=127
119120 On ch=1 n=b4 v=57
119234 On ch=1 n=d5 v=68
119268 On ch=1 n=f4 v=0
119294 On ch=1 n=b4 v=0
119364 On ch=1 n=g4 v=79
119382 On ch=1 n=d5 v=0
119446 On ch=1 n=b4 v=94
119450 On ch=1 n=b5 v=0
119534 On ch=1 n=g4 v=0
119540 On ch=1 n=d5 v=91
119622 On ch=1 n=b4 v=0
119650 On ch=1 n=g#4 v=107
119652 On ch=1 n=d6 v=103
119662 Par ch=1 c=64 v=63
119674 Par ch=1 c=64 v=0
119700 On ch=1 n=d5 v=0
119726 On ch=1 n=d6 v=0
119768 On ch=1 n=b4 v=96
119832 On ch=1 n=g#4 v=0
119838 On ch=1 n=d5 v=91
119910 On ch=1 n=b4 v=0
119942 On ch=1 n=f6 v=106
119962 On ch=1 n=g4 v=111
119982 On ch=1 n=d5 v=0
120004 On ch=1 n=f6 v=0
120064 On ch=1 n=b4 v=106
120140 On ch=1 n=g4 v=0
120160 On ch=1 n=d5 v=101
120238 On ch=1 n=b4 v=0
120256 On ch=1 n=f4 v=109
120280 On ch=1 n=b6 v=108
120300 On ch=1 n=d5 v=0
120348 On ch=1 n=b6 v=0
120364 On ch=1 n=b4 v=99
120428 On ch=1 n=d5 v=100
120446 On ch=1 n=f4 v=0
120542 On ch=1 n=b4 v=0
120574 On ch=1 n=g4 v=103
120586 On ch=1 n=d7 v=121
120618 On ch=1 n=d5 v=0
120666 On ch=1 n=d7 v=0
120702 On ch=1 n=b4 v=92
120772 On ch=1 n=d5 v=78
120780 On ch=1 n=g4 v=0
120870 On ch=1 n=b4 v=0
120908 On ch=1 n=g#4 v=91
120940 On ch=1 n=d5 v=0
121020 On ch=1 n=b4 v=87
121046 On ch=1 n=g#4 v=0
121128 On ch=1 n=d5 v=84
121170 On ch=1 n=b4 v=0
121232 On ch=1 n=f4 v=82
121274 On ch=1 n=d5 v=0
121356 On ch=1 n=b4 v=78
121378 On ch=1 n=f4 v=0
121452 On ch=1 n=d5 v=79
121464 On ch=1 n=b4 v=0
121570 On ch=1 n=c6 v=124
121574 On ch=1 n=d5 v=0
121584 On ch=1 n=d#4 v=101
121584 Par ch=1 c=64 v=63
121590 Par ch=1 c=64 v=127
121652 On ch=1 n=c6 v=0
121720 On ch=1 n=g4 v=78
121730 On ch=1 n=d#4 v=0
121814 On ch=1 n=c5 v=76
121838 On ch=1 n=g4 v=0
121914 On ch=1 n=f4 v=103
121926 On ch=1 n=c5 v=0
122020 On ch=1 n=g#4 v=96
122072 On ch=1 n=f4 v=0
122108 On ch=1 n=c5 v=85
122176 On ch=1 n=g#4 v=0
122222 On ch=1 n=d#4 v=108
122224 On ch=1 n=d#6 v=115
122258 On ch=1 n=c5 v=0
122258 Par ch=1 c=64 v=63
122266 Par ch=1 c=64 v=0
122290 On ch=1 n=d#6 v=0
122356 On ch=1 n=g4 v=73
122394 On ch=1 n=d#4 v=0
122450 On ch=1 n=c5 v=84
122490 On ch=1 n=g4 v=0
122562 On ch=1 n=c5 v=0
122568 On ch=1 n=g6 v=112
122586 On ch=1 n=d4 v=108
122626 On ch=1 n=g6 v=0
122664 On ch=1 n=f4 v=82
122722 On ch=1 n=d4 v=0
122770 On ch=1 n=f4 v=0
122774 On ch=1 n=c5 v=88
122892 On ch=1 n=d#4 v=123
122894 On ch=1 n=c7 v=114
122914 On ch=1 n=c5 v=0
122960 On ch=1 n=c7 v=0
123014 On ch=1 n=g4 v=96
123042 On ch=1 n=d#4 v=0
123104 On ch=1 n=c5 v=81
123142 On ch=1 n=g4 v=0
123226 On ch=1 n=d4 v=113
123228 On ch=1 n=c5 v=0
123234 On ch=1 n=d#7 v=120
123294 On ch=1 n=d#7 v=0
123342 On ch=1 n=f4 v=89
123406 On ch=1 n=d4 v=0
123450 On ch=1 n=c5 v=75
123460 On ch=1 n=f4 v=0
123564 On ch=1 n=d#4 v=118
123588 On ch=1 n=c5 v=0
123674 On ch=1 n=g4 v=97
123718 On ch=1 n=d#4 v=0
123778 On ch=1 n=c5 v=89
123816 On ch=1 n=g4 v=0
123874 On ch=1 n=c5 v=0
123876 On ch=1 n=c4 v=108
124004 On ch=1 n=d#4 v=106
124060 On ch=1 n=c4 v=0
124098 On ch=1 n=g4 v=76
124126 On ch=1 n=d#4 v=0
124224 On ch=1 n=g4 v=0
124228 On ch=1 n=d6 v=113
124228 On ch=1 n=d5 v=116
124238 On ch=1 n=b3 v=122
124258 Par ch=1 c=64 v=63
124264 Par ch=1 c=64 v=127
124444 On ch=1 n=d4 v=90
124472 On ch=1 n=d5 v=0
124530 On ch=1 n=b3 v=0
124536 On ch=1 n=d6 v=0
124550 On ch=1 n=d4 v=0
124576 On ch=1 n=g4 v=61
124654 On ch=1 n=c4 v=121
124702 On ch=1 n=g4 v=0
124766 On ch=1 n=d4 v=100
124852 On ch=1 n=c4 v=0
124872 On ch=1 n=g4 v=79
124898 On ch=1 n=d4 v=0
124958 On ch=1 n=f5 v=111
124958 On ch=1 n=f6 v=111
124958 On ch=1 n=b3 v=116
124980 Par ch=1 c=64 v=63
124982 On ch=1 n=g4 v=0
124990 Par ch=1 c=64 v=0
125028 On ch=1 n=f5 v=0
125050 On ch=1 n=f6 v=0
125090 On ch=1 n=d4 v=106
125162 On ch=1 n=g4 v=76
125196 On ch=1 n=b3 v=0
125216 On ch=1 n=d4 v=0
125274 On ch=1 n=g4 v=0
125292 On ch=1 n=a3 v=117
125294 On ch=1 n=g6 v=111
125296 On ch=1 n=g5 v=106
125344 On ch=1 n=g5 v=0
125372 On ch=1 n=g6 v=0
125422 On ch=1 n=d4 v=94
125480 On ch=1 n=a3 v=0
125520 On ch=1 n=g4 v=68
125536 On ch=1 n=d4 v=0
125618 On ch=1 n=g4 v=0
125622 On ch=1 n=b3 v=125
125638 On ch=1 n=d6 v=101
125640 On ch=1 n=d7 v=97
125678 On ch=1 n=d6 v=0
125712 On ch=1 n=d7 v=0
125762 On ch=1 n=d4 v=97
125844 On ch=1 n=g4 v=79
125904 On ch=1 n=d4 v=0
125906 On ch=1 n=b3 v=0
125974 On ch=1 n=g4 v=0
125990 On ch=1 n=f6 v=106
125990 On ch=1 n=f7 v=109
126002 On ch=1 n=g3 v=127
126010 Par ch=1 c=64 v=63
126014 Par ch=1 c=64 v=127
126054 On ch=1 n=f6 v=0
126056 On ch=1 n=g3 v=0
126060 On ch=1 n=f7 v=0
126508 Par ch=1 c=64 v=63
126524 Par ch=1 c=64 v=0
127504 On ch=1 n=f6 v=56
127980 On ch=1 n=g#6 v=54
128126 On ch=1 n=f6 v=0
128324 On ch=1 n=b5 v=53
128340 On ch=1 n=d5 v=52
128382 On ch=1 n=g#6 v=0
128896 On ch=1 n=b5 v=0
128902 On ch=1 n=d5 v=0
129182 On ch=1 n=d6 v=56
129236 Par ch=1 c=64 v=63
129254 Par ch=1 c=64 v=127
129582 On ch=1 n=f6 v=43
129606 On ch=1 n=d6 v=0
129950 On ch=1 n=f6 v=0
129964 On ch=1 n=g#5 v=31
129994 On ch=1 n=b4 v=34
130028 Par ch=1 c=64 v=63
130062 Par ch=1 c=64 v=0
130668 On ch=1 n=g#5 v=0
130770 On ch=1 n=b4 v=0
130974 On ch=1 n=b5 v=53
131126 Par ch=1 c=64 v=63
131144 Par ch=1 c=64 v=127
131282 On ch=1 n=b5 v=0
131458 On ch=1 n=d6 v=65
131578 On ch=1 n=d6 v=0
131766 Par ch=1 c=64 v=63
131830 Par ch=1 c=64 v=0
131880 Par ch=1 c=64 v=63
131914 On ch=1 n=d5 v=59
131972 Par ch=1 c=64 v=127
132200 On ch=1 n=d5 v=0
132572 On ch=1 n=f5 v=50
132616 Par ch=1 c=64 v=63
132654 Par ch=1 c=64 v=0
132718 Par ch=1 c=64 v=63
132780 Par ch=1 c=64 v=127
132872 On ch=1 n=f5 v=0
133650 On ch=1 n=g#4 v=60
133652 On ch=1 n=b3 v=40
133656 On ch=1 n=d4 v=48
133658 Par ch=1 c=64 v=63
133660 On ch=1 n=f4 v=52
133666 On ch=1 n=b2 v=47
133708 Par ch=1 c=64 v=0
135528 Par ch=1 c=64 v=63
135556 Par ch=1 c=64 v=127
136164 On ch=1 n=g4 v=44
136232 On ch=1 n=g#4 v=0
136782 Par ch=1 c=64 v=63
137098 Par ch=1 c=64 v=0
137620 Par ch=1 c=64 v=63
137804 On ch=1 n=d4 v=0
137856 On ch=1 n=b2 v=0
137858 On ch=1 n=f4 v=0
137876 On ch=1 n=g4 v=0
137894 On ch=1 n=b3 v=0
138302 Par ch=1 c=64 v=0
138820 On ch=1 n=c4 v=122
138822 On ch=1 n=c3 v=117
138834 On ch=1 n=c5 v=127
138852 Par ch=1 c=64 v=127
138894 On ch=1 n=c5 v=0
138944 On ch=1 n=c3 v=0
138946 On ch=1 n=c4 v=0
139472 Par ch=1 c=64 v=63
139480 Par ch=1 c=64 v=0
139522 On ch=1 n=d#3 v=107
139524 On ch=1 n=d#4 v=114
139530 On ch=1 n=d#5 v=118
139546 On ch=1 n=d#3 v=0
139574 On ch=1 n=d#4 v=0
139584 On ch=1 n=d#5 v=0
139856 On ch=1 n=g5 v=112
139860 On ch=1 n=g4 v=103
139862 On ch=1 n=g3 v=103
139894 On ch=1 n=g3 v=0
139906 On ch=1 n=g4 v=0
139924 On ch=1 n=g5 v=0
140178 On ch=1 n=c6 v=111
140180 On ch=1 n=c5 v=111
140186 On ch=1 n=c4 v=84
140236 On ch=1 n=c5 v=0
140238 On ch=1 n=c4 v=0
140242 On ch=1 n=c6 v=0
140494 On ch=1 n=d#4 v=113
140494 On ch=1 n=d#6 v=124
140496 On ch=1 n=d#5 v=119
140546 On ch=1 n=d#4 v=0
140550 On ch=1 n=d#5 v=0
140564 On ch=1 n=d#6 v=0
141106 Par ch=1 c=64 v=63
141116 Par ch=1 c=64 v=127
141130 On ch=1 n=d#6 v=97
141166 On ch=1 n=d#6 v=0
141230 On ch=1 n=d#6 v=80
141306 On ch=1 n=d#6 v=0
141320 On ch=1 n=f6 v=97
141396 On ch=1 n=d#6 v=101
141428 On ch=1 n=f6 v=0
141480 On ch=1 n=d6 v=94
141482 On ch=1 n=d#6 v=0
141532 On ch=1 n=d#6 v=96
141578 On ch=1 n=d6 v=0
141602 On ch=1 n=g6 v=108
141630 On ch=1 n=d#6 v=0
141848 Par ch=1 c=64 v=63
141862 Par ch=1 c=64 v=0
141954 On ch=1 n=c6 v=84
141962 On ch=1 n=g5 v=75
141966 On ch=1 n=d#5 v=81
141972 On ch=1 n=g6 v=0
142012 On ch=1 n=d#5 v=0
142014 On ch=1 n=c6 v=0
142020 On ch=1 n=g5 v=0
142286 On ch=1 n=c6 v=92
142300 On ch=1 n=g5 v=73
142302 On ch=1 n=d#5 v=82
142348 On ch=1 n=d#5 v=0
142350 On ch=1 n=c6 v=0
142352 On ch=1 n=g5 v=0
142616 On ch=1 n=d#5 v=103
142618 On ch=1 n=c6 v=100
142620 On ch=1 n=g5 v=88
142674 On ch=1 n=c6 v=0
142676 On ch=1 n=g5 v=0
142678 On ch=1 n=d#5 v=0
142954 On ch=1 n=g#6 v=103
143008 Par ch=1 c=64 v=63
143016 Par ch=1 c=64 v=127
143296 On ch=1 n=g#5 v=72
143302 On ch=1 n=b5 v=71
143304 On ch=1 n=g#6 v=0
143306 On ch=1 n=f5 v=69
143306 Par ch=1 c=64 v=63
143312 On ch=1 n=d5 v=65
143316 Par ch=1 c=64 v=0
143356 On ch=1 n=b5 v=0
143370 On ch=1 n=f5 v=0
143372 On ch=1 n=g#5 v=0
143384 On ch=1 n=d5 v=0
143672 On ch=1 n=g#5 v=56
143674 On ch=1 n=b5 v=76
143684 Par ch=1 c=64 v=63
143684 On ch=1 n=f5 v=60
143692 On ch=1 n=d5 v=57
143706 Par ch=1 c=64 v=127
143754 On ch=1 n=b5 v=0
143760 On ch=1 n=f5 v=0
143772 On ch=1 n=g#5 v=0
143796 On ch=1 n=d5 v=0
143848 Par ch=1 c=64 v=63
143862 Par ch=1 c=64 v=0
144452 Par ch=1 c=64 v=127
144458 On ch=1 n=g3 v=124
144460 On ch=1 n=g2 v=122
144474 On ch=1 n=g4 v=120
144534 On ch=1 n=g4 v=0
144718 On ch=1 n=g2 v=0
144754 On ch=1 n=g3 v=0
145128 Par ch=1 c=64 v=63
145136 Par ch=1 c=64 v=0
145146 On ch=1 n=b3 v=114
145152 On ch=1 n=b2 v=107
145154 On ch=1 n=b4 v=103
145210 On ch=1 n=b2 v=0
145214 On ch=1 n=b3 v=0
145224 On ch=1 n=b4 v=0
145500 On ch=1 n=d5 v=107
145500 On ch=1 n=d4 v=112
145502 On ch=1 n=d3 v=112
145558 On ch=1 n=d3 v=0
145560 On ch=1 n=d4 v=0
145560 On ch=1 n=d5 v=0
145816 On ch=1 n=g5 v=102
145826 On ch=1 n=g3 v=94
145830 On ch=1 n=g4 v=104
145878 On ch=1 n=g5 v=0
145892 On ch=1 n=g3 v=0
145896 On ch=1 n=g4 v=0
146150 On ch=1 n=b3 v=97
146156 On ch=1 n=b5 v=112
146164 On ch=1 n=b4 v=100
146204 Par ch=1 c=64 v=63
146212 On ch=1 n=b4 v=0
146214 On ch=1 n=b3 v=0
146214 Par ch=1 c=64 v=127
146218 On ch=1 n=b5 v=0
146372 Par ch=1 c=64 v=63
146410 Par ch=1 c=64 v=0
146634 Par ch=1 c=64 v=63
146680 Par ch=1 c=64 v=127
146742 On ch=1 n=d6 v=88
146780 On ch=1 n=d6 v=0
146870 On ch=1 n=d6 v=104
146934 On ch=1 n=d6 v=0
146962 On ch=1 n=d#6 v=104
147024 On ch=1 n=d#6 v=0
147026 On ch=1 n=d6 v=87
147090 Par ch=1 c=64 v=63
147112 On ch=1 n=d6 v=0
147114 On ch=1 n=c6 v=89
147142 Par ch=1 c=64 v=0
147176 On ch=1 n=d6 v=96
147200 On ch=1 n=c6 v=0
147284 On ch=1 n=f6 v=96
147316 On ch=1 n=d6 v=0
147614 On ch=1 n=b5 v=84
147632 On ch=1 n=f6 v=0
147636 On ch=1 n=g#5 v=72
147640 On ch=1 n=f5 v=68
147650 On ch=1 n=d5 v=66
147686 On ch=1 n=b5 v=0
147696 On ch=1 n=f5 v=0
147698 On ch=1 n=g#5 v=0
147700 On ch=1 n=d5 v=0
147958 On ch=1 n=b5 v=92
147980 On ch=1 n=g#5 v=74
147986 On ch=1 n=f5 v=70
147994 On ch=1 n=d5 v=62
148020 On ch=1 n=b5 v=0
148032 On ch=1 n=g#5 v=0
148036 On ch=1 n=f5 v=0
148046 On ch=1 n=d5 v=0
148288 On ch=1 n=b5 v=86
148302 On ch=1 n=g#5 v=86
148314 On ch=1 n=f5 v=70
148314 On ch=1 n=d5 v=72
148334 On ch=1 n=b5 v=0
148354 On ch=1 n=f5 v=0
148364 On ch=1 n=g#5 v=0
148368 On ch=1 n=d5 v=0
148658 On ch=1 n=g6 v=82
148720 Par ch=1 c=64 v=63
148738 Par ch=1 c=64 v=127
148976 On ch=1 n=c6 v=67
148988 Par ch=1 c=64 v=63
148994 On ch=1 n=d#5 v=47
148996 On ch=1 n=g6 v=0
148996 On ch=1 n=g5 v=46
149020 Par ch=1 c=64 v=0
149032 On ch=1 n=c6 v=0
149052 On ch=1 n=d#5 v=0
149066 On ch=1 n=g5 v=0
149378 On ch=1 n=d#5 v=50
149390 On ch=1 n=c6 v=53
149398 On ch=1 n=g5 v=34
149482 On ch=1 n=c6 v=0
149580 On ch=1 n=d#5 v=0
149610 On ch=1 n=g5 v=0
149930 Par ch=1 c=64 v=63
150106 Par ch=1 c=64 v=127
150174 On ch=1 n=g3 v=112
150190 On ch=1 n=g5 v=112
150452 On ch=1 n=g4 v=69
150552 On ch=1 n=g3 v=0
150616 On ch=1 n=g3 v=79
150658 On ch=1 n=g4 v=0
150704 On ch=1 n=g5 v=0
150772 On ch=1 n=g4 v=85
150862 On ch=1 n=g3 v=0
150918 On ch=1 n=g3 v=88
150974 On ch=1 n=g4 v=0
151058 On ch=1 n=g4 v=85
151170 On ch=1 n=g3 v=0
151208 On ch=1 n=d#6 v=113
151214 On ch=1 n=g5 v=99
151234 On ch=1 n=g3 v=89
151256 On ch=1 n=g4 v=0
151350 On ch=1 n=g4 v=79
151434 On ch=1 n=g3 v=0
151536 On ch=1 n=g3 v=76
151542 On ch=1 n=f#5 v=96
151574 Par ch=1 c=64 v=63
151578 On ch=1 n=g4 v=0
151618 On ch=1 n=g5 v=0
151650 Par ch=1 c=64 v=127
151686 On ch=1 n=g4 v=75
151756 On ch=1 n=d#6 v=0
151792 On ch=1 n=g3 v=0
151822 On ch=1 n=f#5 v=0
151856 On ch=1 n=d6 v=108
151866 On ch=1 n=f5 v=96
151878 On ch=1 n=g3 v=72
151890 On ch=1 n=g4 v=0
151948 On ch=1 n=f5 v=0
151996 On ch=1 n=g4 v=79
152044 On ch=1 n=g3 v=0
152166 On ch=1 n=e5 v=102
152168 On ch=1 n=g3 v=92
152200 On ch=1 n=g4 v=0
152268 On ch=1 n=d6 v=0
152294 On ch=1 n=g4 v=89
152342 On ch=1 n=e5 v=0
152380 On ch=1 n=g3 v=0
152474 On ch=1 n=g3 v=89
152478 On ch=1 n=c6 v=112
152484 On ch=1 n=d#5 v=109
152502 On ch=1 n=g4 v=0
152626 On ch=1 n=g4 v=82
152640 On ch=1 n=d#5 v=0
152690 On ch=1 n=g3 v=0
152784 On ch=1 n=g3 v=91
152788 Par ch=1 c=64 v=63
152810 On ch=1 n=d5 v=103
152814 Par ch=1 c=64 v=0
152824 On ch=1 n=g4 v=0
152856 Par ch=1 c=64 v=63
152900 Par ch=1 c=64 v=127
152948 On ch=1 n=g4 v=68
153052 On ch=1 n=g3 v=0
153082 On ch=1 n=c6 v=0
153150 On ch=1 n=g3 v=60
153152 On ch=1 n=b5 v=90
153168 On ch=1 n=g4 v=0
153170 On ch=1 n=d5 v=0
153304 On ch=1 n=g4 v=54
153316 On ch=1 n=g3 v=0
153382 On ch=1 n=b5 v=0
153468 On ch=1 n=g3 v=89
153484 On ch=1 n=g4 v=0
153606 On ch=1 n=g4 v=96
153704 On ch=1 n=g3 v=0
153768 Par ch=1 c=64 v=63
153776 On ch=1 n=g6 v=112
153778 On ch=1 n=g3 v=89
153788 On ch=1 n=d#6 v=110
153832 On ch=1 n=g4 v=0
153862 Par ch=1 c=64 v=127
153920 On ch=1 n=g4 v=94
154022 On ch=1 n=g3 v=0
154056 On ch=1 n=g6 v=0
154090 On ch=1 n=g3 v=82
154116 On ch=1 n=f#6 v=113
154146 On ch=1 n=g4 v=0
154242 On ch=1 n=g4 v=98
154326 On ch=1 n=g3 v=0
154378 On ch=1 n=f#6 v=0
154396 On ch=1 n=d#6 v=0
154412 On ch=1 n=g3 v=93
154424 On ch=1 n=f6 v=114
154434 On ch=1 n=d6 v=104
154446 On ch=1 n=g4 v=0
154510 Par ch=1 c=64 v=63
154526 Par ch=1 c=64 v=127
154554 On ch=1 n=g4 v=90
154636 On ch=1 n=g3 v=0
154730 On ch=1 n=e6 v=113
154734 On ch=1 n=g3 v=104
154774 Par ch=1 c=64 v=63
154780 Par ch=1 c=64 v=127
154784 On ch=1 n=g4 v=0
154796 On ch=1 n=f6 v=0
154870 On ch=1 n=g4 v=96
154914 On ch=1 n=d6 v=0
154956 On ch=1 n=g3 v=0
155016 On ch=1 n=e6 v=0
155040 Par ch=1 c=64 v=63
155056 On ch=1 n=g3 v=107
155058 On ch=1 n=d#6 v=123
155066 On ch=1 n=g4 v=0
155066 On ch=1 n=c6 v=106
155092 Par ch=1 c=64 v=127
155190 On ch=1 n=g4 v=94
155230 On ch=1 n=d#6 v=0
155244 On ch=1 n=g3 v=0
155286 Par ch=1 c=64 v=63
155316 Par ch=1 c=64 v=0
155334 Par ch=1 c=64 v=63
155352 On ch=1 n=g4 v=0
155358 On ch=1 n=g3 v=117
155366 On ch=1 n=d6 v=117
155378 Par ch=1 c=64 v=127
155410 On ch=1 n=d#6 v=48
155450 On ch=1 n=d#6 v=0
155494 On ch=1 n=g3 v=0
155494 On ch=1 n=g4 v=101
155584 On ch=1 n=c6 v=0
155592 On ch=1 n=g4 v=0
155674 On ch=1 n=b5 v=99
155678 Par ch=1 c=64 v=63
155680 On ch=1 n=g4 v=101
155700 Par ch=1 c=64 v=0
155758 On ch=1 n=g4 v=0
155810 On ch=1 n=g4 v=89
155902 On ch=1 n=g4 v=0
155934 On ch=1 n=b5 v=0
155948 On ch=1 n=d6 v=0
155964 Par ch=1 c=64 v=63
155968 Par ch=1 c=64 v=127
155982 On ch=1 n=f3 v=125
156080 On ch=1 n=f3 v=0
156126 On ch=1 n=f4 v=94
156204 On ch=1 n=f4 v=0
156292 On ch=1 n=f4 v=111
156302 On ch=1 n=d6 v=118
156306 On ch=1 n=b5 v=116
156306 On ch=1 n=g#6 v=120
156388 On ch=1 n=f4 v=0
156464 On ch=1 n=f4 v=88
156532 On ch=1 n=f4 v=0
156562 Par ch=1 c=64 v=63
156574 Par ch=1 c=64 v=0
156614 Par ch=1 c=64 v=63
156632 Par ch=1 c=64 v=127
156650 On ch=1 n=d#3 v=103
156746 On ch=1 n=b5 v=0
156758 On ch=1 n=d#3 v=0
156796 On ch=1 n=d#4 v=96
156812 On ch=1 n=g#6 v=0
156878 On ch=1 n=d6 v=0
156904 On ch=1 n=d#4 v=0
156974 On ch=1 n=g6 v=112
156978 On ch=1 n=c6 v=112
156980 On ch=1 n=d#6 v=116
156984 On ch=1 n=d#4 v=76
157034 On ch=1 n=d#4 v=0
157038 On ch=1 n=c6 v=0
157044 On ch=1 n=d#6 v=0
157054 On ch=1 n=g6 v=0
157118 On ch=1 n=d#4 v=108
157190 On ch=1 n=d#4 v=0
157206 Par ch=1 c=64 v=63
157216 Par ch=1 c=64 v=0
157284 Par ch=1 c=64 v=63
157288 On ch=1 n=b2 v=117
157310 Par ch=1 c=64 v=127
157374 On ch=1 n=b2 v=0
157464 On ch=1 n=g5 v=88
157482 On ch=1 n=b3 v=79
157530 On ch=1 n=b3 v=0
157532 On ch=1 n=d6 v=112
157544 Par ch=1 c=64 v=63
157546 On ch=1 n=g5 v=0
157550 Par ch=1 c=64 v=0
157612 On ch=1 n=d6 v=0
157616 On ch=1 n=b3 v=100
157696 On ch=1 n=b3 v=0
157766 On ch=1 n=b3 v=90
157792 On ch=1 n=f6 v=111
157846 On ch=1 n=b3 v=0
157854 On ch=1 n=f6 v=0
157892 Par ch=1 c=64 v=63
157894 Par ch=1 c=64 v=127
157912 On ch=1 n=c3 v=121
157922 On ch=1 n=d#6 v=114
157980 On ch=1 n=f6 v=93
157988 On ch=1 n=d#6 v=0
158010 On ch=1 n=c3 v=0
158042 On ch=1 n=c4 v=102
158044 On ch=1 n=d#6 v=101
158084 On ch=1 n=f6 v=0
158118 On ch=1 n=d6 v=75
158124 On ch=1 n=d#6 v=0
158128 On ch=1 n=c4 v=0
158176 On ch=1 n=d#6 v=94
158196 On ch=1 n=f6 v=108
158210 On ch=1 n=c4 v=92
158216 On ch=1 n=d6 v=0
158232 On ch=1 n=d#6 v=0
158232 Par ch=1 c=64 v=63
158240 Par ch=1 c=64 v=0
158258 On ch=1 n=g6 v=100
158290 On ch=1 n=c4 v=0
158310 On ch=1 n=f6 v=0
158358 On ch=1 n=c4 v=102
158366 On ch=1 n=g6 v=0
158472 On ch=1 n=c4 v=0
158526 On ch=1 n=f3 v=125
158534 Par ch=1 c=64 v=63
158536 Par ch=1 c=64 v=127
158658 On ch=1 n=f3 v=0
158670 On ch=1 n=f4 v=108
158756 On ch=1 n=f4 v=0
158846 Par ch=1 c=64 v=63
158848 On ch=1 n=f4 v=101
158848 On ch=1 n=g#6 v=125
158850 On ch=1 n=d6 v=117
158850 On ch=1 n=b5 v=121
158858 Par ch=1 c=64 v=0
158940 On ch=1 n=f4 v=0
159000 On ch=1 n=f4 v=100
159100 On ch=1 n=f4 v=0
159166 Par ch=1 c=64 v=63
159166 Par ch=1 c=64 v=127
159184 On ch=1 n=d#3 v=119
159308 On ch=1 n=b5 v=0
159330 On ch=1 n=d#4 v=107
159354 On ch=1 n=g#6 v=0
159382 On ch=1 n=d#3 v=0
159392 On ch=1 n=d6 v=0
159418 On ch=1 n=d#4 v=0
159486 On ch=1 n=d#4 v=96
159500 On ch=1 n=g6 v=111
159502 On ch=1 n=d#6 v=113
159506 On ch=1 n=c6 v=103
159514 Par ch=1 c=64 v=63
159528 Par ch=1 c=64 v=0
159546 On ch=1 n=c6 v=0
159558 On ch=1 n=d#6 v=0
159574 On ch=1 n=d#4 v=0
159576 On ch=1 n=g6 v=0
159670 On ch=1 n=d#4 v=98
159744 On ch=1 n=d#4 v=0
159822 On ch=1 n=d3 v=124
159824 Par ch=1 c=64 v=63
159830 Par ch=1 c=64 v=127
159982 On ch=1 n=d4 v=108
160058 On ch=1 n=f6 v=96
160062 On ch=1 n=d4 v=0
160122 On ch=1 n=b6 v=109
160128 Par ch=1 c=64 v=63
160134 On ch=1 n=f6 v=0
160138 Par ch=1 c=64 v=0
160146 On ch=1 n=d4 v=109
160208 On ch=1 n=b6 v=0
160226 On ch=1 n=d4 v=0
160324 On ch=1 n=d4 v=104
160328 On ch=1 n=d3 v=0
160358 On ch=1 n=f7 v=109
160418 On ch=1 n=d4 v=0
160430 Par ch=1 c=64 v=63
160434 Par ch=1 c=64 v=127
160440 On ch=1 n=d#7 v=116
160442 On ch=1 n=c4 v=118
160484 On ch=1 n=f7 v=0
160624 On ch=1 n=g6 v=85
160642 On ch=1 n=d#7 v=0
160728 On ch=1 n=g6 v=0
160744 On ch=1 n=c4 v=0
160776 Par ch=1 c=64 v=63
160792 On ch=1 n=c7 v=73
160810 Par ch=1 c=64 v=0
160912 On ch=1 n=c7 v=0
160930 On ch=1 n=d#6 v=92
160994 On ch=1 n=d#6 v=0
161070 Par ch=1 c=64 v=63
161072 On ch=1 n=f4 v=104
161126 Par ch=1 c=64 v=127
161214 Par ch=1 c=64 v=63
161240 On ch=1 n=f6 v=106
161280 Par ch=1 c=64 v=0
161386 On ch=1 n=f4 v=0
161400 On ch=1 n=g#6 v=110
161444 On ch=1 n=f6 v=0
161528 On ch=1 n=d6 v=94
161556 On ch=1 n=g#6 v=0
161634 On ch=1 n=d6 v=0
161690 On ch=1 n=g4 v=79
161862 On ch=1 n=d#6 v=101
162020 On ch=1 n=g4 v=0
162022 On ch=1 n=g6 v=71
162088 On ch=1 n=d#6 v=0
162156 On ch=1 n=c6 v=71
162194 On ch=1 n=g6 v=0
162264 On ch=1 n=c6 v=0
162304 On ch=1 n=g3 v=78
162482 On ch=1 n=d6 v=79
162624 On ch=1 n=f6 v=64
162632 On ch=1 n=d6 v=0
162664 On ch=1 n=g3 v=0
162778 On ch=1 n=b5 v=71
162828 On ch=1 n=f6 v=0
162896 On ch=1 n=b5 v=0
162946 On ch=1 n=c6 v=118
162986 Par ch=1 c=64 v=63
162988 Par ch=1 c=64 v=127
163038 On ch=1 n=c6 v=0
163682 On ch=1 n=c5 v=127
163684 On ch=1 n=d#6 v=113
163716 Par ch=1 c=64 v=63
163724 Par ch=1 c=64 v=0
163752 On ch=1 n=d#6 v=0
164052 On ch=1 n=g6 v=93
164122 On ch=1 n=g6 v=0
164314 On ch=1 n=c5 v=0
164370 On ch=1 n=c7 v=111
164372 On ch=1 n=d#5 v=127
164436 Par ch=1 c=64 v=63
164442 Par ch=1 c=64 v=127
164456 On ch=1 n=c7 v=0
164522 On ch=1 n=d#5 v=0
164702 On ch=1 n=d#7 v=112
164706 On ch=1 n=g5 v=116
164752 On ch=1 n=g5 v=0
164776 On ch=1 n=d#7 v=0
165054 On ch=1 n=g#3 v=124
165056 On ch=1 n=c6 v=104
165056 On ch=1 n=g#6 v=115
165062 On ch=1 n=g#2 v=119
165072 Par ch=1 c=64 v=63
165082 Par ch=1 c=64 v=0
165112 On ch=1 n=c6 v=0
165130 On ch=1 n=g#6 v=0
165408 On ch=1 n=c7 v=112
165418 Par ch=1 c=64 v=63
165422 On ch=1 n=d#6 v=114
165424 Par ch=1 c=64 v=127
165426 On ch=1 n=g#2 v=0
165438 On ch=1 n=g#3 v=0
165468 On ch=1 n=d#6 v=0
165472 On ch=1 n=c7 v=0
165738 On ch=1 n=c4 v=121
165740 On ch=1 n=c3 v=120
165746 On ch=1 n=g#5 v=109
165750 Par ch=1 c=64 v=63
165752 On ch=1 n=f6 v=111
165758 Par ch=1 c=64 v=0
165798 On ch=1 n=c3 v=0
165800 On ch=1 n=g#5 v=0
165806 On ch=1 n=c4 v=0
165822 On ch=1 n=f6 v=0
166084 On ch=1 n=f4 v=122
166084 On ch=1 n=f3 v=118
166086 On ch=1 n=g#6 v=114
166108 On ch=1 n=c6 v=79
166140 On ch=1 n=g#6 v=0
166146 On ch=1 n=c6 v=0
166146 On ch=1 n=f3 v=0
166150 On ch=1 n=f4 v=0
166432 On ch=1 n=g#4 v=127
166434 On ch=1 n=g#3 v=123
166438 On ch=1 n=c#6 v=107
166438 On ch=1 n=f5 v=97
166488 On ch=1 n=f5 v=0
166504 On ch=1 n=c#6 v=0
166802 On ch=1 n=f6 v=83
166804 On ch=1 n=g#5 v=107
166856 Par ch=1 c=64 v=63
166866 Par ch=1 c=64 v=127
166868 On ch=1 n=g#5 v=0
166868 On ch=1 n=f6 v=0
166890 On ch=1 n=g#3 v=0
166944 On ch=1 n=g#4 v=0
167004 Par ch=1 c=64 v=63
167052 Par ch=1 c=64 v=0
167258 On ch=1 n=c6 v=82
167310 Par ch=1 c=64 v=63
167378 Par ch=1 c=64 v=127
167516 On ch=1 n=f#5 v=39
167624 On ch=1 n=c6 v=0
167714 On ch=1 n=f#5 v=0
167728 On ch=1 n=d#5 v=58
167910 On ch=1 n=f#5 v=61
167918 On ch=1 n=d#5 v=0
168094 On ch=1 n=g#4 v=81
168104 On ch=1 n=f#5 v=0
168268 On ch=1 n=g#4 v=0
168270 On ch=1 n=f#5 v=71
168422 On ch=1 n=g#6 v=99
168462 On ch=1 n=f#5 v=0
168478 On ch=1 n=d#5 v=67
168530 On ch=1 n=g#6 v=0
168618 On ch=1 n=f#5 v=97
168646 On ch=1 n=d#5 v=0
168820 On ch=1 n=g#4 v=67
168836 On ch=1 n=g#6 v=96
168860 On ch=1 n=f#5 v=0
168996 Par ch=1 c=64 v=63
169050 On ch=1 n=f5 v=53
169108 Par ch=1 c=64 v=127
169212 On ch=1 n=c#5 v=78
169252 On ch=1 n=f5 v=0
169350 On ch=1 n=f5 v=55
169356 On ch=1 n=g#4 v=0
169374 On ch=1 n=f6 v=85
169408 On ch=1 n=c#5 v=0
169424 On ch=1 n=g#6 v=0
169504 On ch=1 n=c#6 v=88
169524 On ch=1 n=g#4 v=72
169546 On ch=1 n=f5 v=0
169548 Par ch=1 c=64 v=63
169574 On ch=1 n=f6 v=0
169658 Par ch=1 c=64 v=127
169670 On ch=1 n=f5 v=60
169832 On ch=1 n=c#5 v=83
169854 On ch=1 n=f5 v=0
169910 On ch=1 n=c#6 v=0
169918 On ch=1 n=g#4 v=0
169982 On ch=1 n=f5 v=71
170038 On ch=1 n=c#5 v=0
170148 On ch=1 n=g#4 v=65
170156 On ch=1 n=f5 v=0
170174 On ch=1 n=c6 v=92
170290 Par ch=1 c=64 v=63
170352 On ch=1 n=f#5 v=73
170434 Par ch=1 c=64 v=127
170530 On ch=1 n=d#5 v=80
170536 On ch=1 n=f#5 v=0
170610 On ch=1 n=g#4 v=0
170632 On ch=1 n=c6 v=0
170656 On ch=1 n=f#5 v=81
170724 On ch=1 n=d#5 v=0
170832 On ch=1 n=g#4 v=93
170870 On ch=1 n=f#5 v=0
170986 On ch=1 n=f#5 v=82
170998 On ch=1 n=g#6 v=113
171060 Par ch=1 c=64 v=63
171124 Par ch=1 c=64 v=127
171170 On ch=1 n=a#6 v=106
171180 On ch=1 n=d#5 v=81
171188 On ch=1 n=f#5 v=0
171230 On ch=1 n=g#6 v=0
171300 On ch=1 n=g#4 v=0
171302 On ch=1 n=g#6 v=105
171308 On ch=1 n=f#5 v=88
171370 On ch=1 n=a#6 v=0
171416 On ch=1 n=g#6 v=0
171474 On ch=1 n=g#6 v=100
171488 On ch=1 n=g#4 v=75
171522 On ch=1 n=d#5 v=0
171524 On ch=1 n=f#5 v=0
171638 Par ch=1 c=64 v=63
171646 On ch=1 n=f5 v=67
171814 On ch=1 n=c#5 v=84
171820 Par ch=1 c=64 v=0
171842 On ch=1 n=f5 v=0
171908 On ch=1 n=g#4 v=0
171956 On ch=1 n=f5 v=68
171958 On ch=1 n=f6 v=91
172000 On ch=1 n=g#6 v=0
172008 On ch=1 n=c#5 v=0
172118 Par ch=1 c=64 v=63
172122 On ch=1 n=g#4 v=79
172128 On ch=1 n=c#6 v=96
172142 On ch=1 n=f6 v=0
172150 On ch=1 n=f5 v=0
172162 Par ch=1 c=64 v=127
172226 On ch=1 n=c#6 v=0
172266 On ch=1 n=f5 v=68
172312 On ch=1 n=g#4 v=0
172330 Par ch=1 c=64 v=63
172436 On ch=1 n=c#6 v=108
172446 On ch=1 n=c#5 v=86
172448 Par ch=1 c=64 v=127
172464 On ch=1 n=f5 v=0
172580 On ch=1 n=f5 v=71
172602 On ch=1 n=c#5 v=0
172650 On ch=1 n=f5 v=0
172780 On ch=1 n=f#5 v=98
172794 On ch=1 n=d#5 v=88
172798 On ch=1 n=c5 v=77
172836 On ch=1 n=a4 v=46
172978 On ch=1 n=c#6 v=0
172978 On ch=1 n=b5 v=80
173162 On ch=1 n=c6 v=102
173202 On ch=1 n=b5 v=0
173226 Par ch=1 c=64 v=63
173270 Par ch=1 c=64 v=0
173310 On ch=1 n=d6 v=106
173378 On ch=1 n=c6 v=0
173470 On ch=1 n=f6 v=100
173524 On ch=1 n=d6 v=0
173616 On ch=1 n=d#6 v=107
173638 Par ch=1 c=64 v=63
173656 Par ch=1 c=64 v=127
173664 On ch=1 n=f6 v=0
173770 On ch=1 n=d6 v=100
173826 Par ch=1 c=64 v=63
173846 On ch=1 n=d#6 v=0
173854 Par ch=1 c=64 v=0
173912 On ch=1 n=a4 v=0
173920 On ch=1 n=c6 v=97
173934 On ch=1 n=c5 v=0
173970 On ch=1 n=d6 v=0
173978 On ch=1 n=f#5 v=0
173984 On ch=1 n=d#5 v=0
174098 On ch=1 n=c6 v=0
174128 On ch=1 n=g6 v=97
174480 On ch=1 n=b4 v=77
174482 On ch=1 n=g4 v=65
174572 Par ch=1 c=64 v=63
174586 Par ch=1 c=64 v=127
174714 On ch=1 n=b4 v=0
174806 On ch=1 n=g4 v=0
174814 On ch=1 n=g#4 v=71
174828 On ch=1 n=c5 v=60
174950 Par ch=1 c=64 v=63
175010 Par ch=1 c=64 v=0
175148 On ch=1 n=g6 v=0
175182 On ch=1 n=c6 v=85
175232 On ch=1 n=c6 v=0
175328 On ch=1 n=c6 v=80
175346 On ch=1 n=c5 v=0
175362 On ch=1 n=g#4 v=0
175402 On ch=1 n=c6 v=0
175496 On ch=1 n=g6 v=87
175596 Par ch=1 c=64 v=63
175628 Par ch=1 c=64 v=127
175830 On ch=1 n=b4 v=65
175836 On ch=1 n=g4 v=44
176106 On ch=1 n=b4 v=0
176136 On ch=1 n=g4 v=0
176164 On ch=1 n=g#4 v=45
176170 On ch=1 n=c5 v=49
176276 Par ch=1 c=64 v=63
176314 Par ch=1 c=64 v=0
176364 On ch=1 n=g6 v=0
176528 On ch=1 n=c6 v=91
176580 On ch=1 n=g#4 v=0
176606 On ch=1 n=c6 v=0
176606 On ch=1 n=c5 v=0
176674 On ch=1 n=c6 v=65
176748 On ch=1 n=c6 v=0
176816 Par ch=1 c=64 v=63
176840 Par ch=1 c=64 v=127
176852 On ch=1 n=g6 v=73
176854 On ch=1 n=b4 v=55
176862 On ch=1 n=g4 v=48
177044 On ch=1 n=g6 v=0
177048 On ch=1 n=g4 v=0
177072 On ch=1 n=b4 v=0
177190 On ch=1 n=g#4 v=62
177200 On ch=1 n=c5 v=64
177206 On ch=1 n=c6 v=84
177222 Par ch=1 c=64 v=63
177270 Par ch=1 c=64 v=0
177296 On ch=1 n=c6 v=0
177350 On ch=1 n=c6 v=79
177444 On ch=1 n=c6 v=0
177520 On ch=1 n=b4 v=62
177522 On ch=1 n=g6 v=74
177530 On ch=1 n=c5 v=0
177534 On ch=1 n=g4 v=44
177550 On ch=1 n=g#4 v=0
177678 On ch=1 n=g6 v=0
177852 On ch=1 n=c6 v=76
177854 On ch=1 n=g4 v=0
177862 On ch=1 n=g#4 v=61
177866 On ch=1 n=b4 v=0
177880 On ch=1 n=c5 v=34
177940 On ch=1 n=c6 v=0
177988 On ch=1 n=c6 v=63
178126 On ch=1 n=g#4 v=0
178128 On ch=1 n=c6 v=0
178156 On ch=1 n=c5 v=0
178172 On ch=1 n=g6 v=59
178176 On ch=1 n=b4 v=43
178182 On ch=1 n=g4 v=32
178200 Par ch=1 c=64 v=63
178278 Par ch=1 c=64 v=127
178460 On ch=1 n=g6 v=0
178488 On ch=1 n=g4 v=0
178488 On ch=1 n=b4 v=0
178568 On ch=1 n=g6 v=71
178748 On ch=1 n=g6 v=0
178926 On ch=1 n=g6 v=87
179096 On ch=1 n=g6 v=0
179284 On ch=1 n=g6 v=96
179490 On ch=1 n=g6 v=0
179642 On ch=1 n=g6 v=78
179768 On ch=1 n=f#6 v=88
179780 Par ch=1 c=64 v=63
179838 On ch=1 n=g6 v=0
179874 Par ch=1 c=64 v=0
179940 On ch=1 n=f6 v=75
180034 On ch=1 n=f#6 v=0
180090 On ch=1 n=d6 v=79
180156 On ch=1 n=f6 v=0
180270 On ch=1 n=g6 v=85
180288 On ch=1 n=d6 v=0
180428 On ch=1 n=f#6 v=88
180488 On ch=1 n=g6 v=0
180580 On ch=1 n=f6 v=68
180654 On ch=1 n=f#6 v=0
180726 On ch=1 n=f6 v=0
180732 On ch=1 n=d6 v=65
180872 On ch=1 n=d6 v=0
180904 On ch=1 n=d#5 v=59
180932 On ch=1 n=c6 v=66
180992 Par ch=1 c=64 v=63
181028 Par ch=1 c=64 v=127
181094 On ch=1 n=d#5 v=0
181110 On ch=1 n=g5 v=34
181260 On ch=1 n=d#5 v=72
181276 On ch=1 n=g5 v=0
181314 On ch=1 n=c6 v=0
181404 On ch=1 n=d#5 v=0
181428 On ch=1 n=g5 v=38
181428 On ch=1 n=d6 v=50
181470 On ch=1 n=c6 v=72
181498 On ch=1 n=d6 v=0
181536 On ch=1 n=b5 v=84
181538 Par ch=1 c=64 v=63
181550 On ch=1 n=d5 v=63
181562 On ch=1 n=g5 v=0
181564 On ch=1 n=c6 v=0
181628 Par ch=1 c=64 v=0
181678 On ch=1 n=b5 v=0
181712 On ch=1 n=d5 v=0
181726 On ch=1 n=g5 v=31
181908 On ch=1 n=c6 v=89
181910 On ch=1 n=d#5 v=76
181930 On ch=1 n=g5 v=0
182002 On ch=1 n=c6 v=0
182048 On ch=1 n=d#5 v=0
182050 On ch=1 n=g5 v=41
182254 On ch=1 n=c#6 v=83
182262 On ch=1 n=g5 v=0
182266 On ch=1 n=e5 v=52
182392 On ch=1 n=g5 v=44
182412 On ch=1 n=e5 v=0
182586 On ch=1 n=g5 v=0
182590 On ch=1 n=e5 v=50
182720 On ch=1 n=e5 v=0
182720 On ch=1 n=g5 v=44
182860 Par ch=1 c=64 v=63
182912 On ch=1 n=c#6 v=0
182936 On ch=1 n=d6 v=57
182948 On ch=1 n=f5 v=50
182952 On ch=1 n=g5 v=0
182960 Par ch=1 c=64 v=127
183094 On ch=1 n=f5 v=0
183102 On ch=1 n=g5 v=25
183132 On ch=1 n=d6 v=0
183268 On ch=1 n=f5 v=57
183276 On ch=1 n=g5 v=0
183362 Par ch=1 c=64 v=63
183416 On ch=1 n=g5 v=44
183430 On ch=1 n=f5 v=0
183596 On ch=1 n=f4 v=77
183602 On ch=1 n=d5 v=70
183624 On ch=1 n=g5 v=0
183682 Par ch=1 c=64 v=127
183786 On ch=1 n=d5 v=0
183794 On ch=1 n=g5 v=45
183968 On ch=1 n=g5 v=0
183970 On ch=1 n=d5 v=72
184022 On ch=1 n=f4 v=0
184096 On ch=1 n=e4 v=83
184116 On ch=1 n=d5 v=0
184130 On ch=1 n=g5 v=44
184172 On ch=1 n=f4 v=87
184176 On ch=1 n=e4 v=0
184238 On ch=1 n=g4 v=85
184264 Par ch=1 c=64 v=63
184268 On ch=1 n=d5 v=56
184278 On ch=1 n=g5 v=0
184290 On ch=1 n=f4 v=0
184384 Par ch=1 c=64 v=0
184416 On ch=1 n=f4 v=92
184426 On ch=1 n=d5 v=0
184436 On ch=1 n=g5 v=41
184482 On ch=1 n=g4 v=0
184578 On ch=1 n=d#4 v=105
184612 On ch=1 n=d#5 v=67
184630 On ch=1 n=g5 v=0
184636 On ch=1 n=f4 v=0
184736 On ch=1 n=d4 v=101
184742 On ch=1 n=g5 v=50
184756 On ch=1 n=d#5 v=0
184796 On ch=1 n=d#4 v=0
184922 On ch=1 n=c4 v=84
184940 On ch=1 n=f5 v=67
184942 On ch=1 n=d4 v=0
184948 On ch=1 n=g5 v=0
185080 On ch=1 n=g5 v=62
185110 On ch=1 n=f5 v=0
185266 On ch=1 n=d5 v=67
185282 On ch=1 n=g5 v=0
185408 On ch=1 n=d5 v=0
185418 On ch=1 n=g5 v=46
185596 On ch=1 n=b3 v=61
185602 On ch=1 n=f5 v=52
185608 On ch=1 n=g5 v=0
185644 On ch=1 n=c4 v=0
185734 Par ch=1 c=64 v=63
185740 On ch=1 n=g5 v=43
185742 On ch=1 n=f5 v=0
185748 Par ch=1 c=64 v=127
185848 On ch=1 n=b3 v=0
185934 On ch=1 n=d5 v=64
185942 On ch=1 n=g5 v=0
186040 Par ch=1 c=64 v=63
186080 Par ch=1 c=64 v=0
186090 On ch=1 n=d5 v=0
186096 On ch=1 n=g5 v=51
186238 Par ch=1 c=64 v=63
186270 Par ch=1 c=64 v=127
186272 On ch=1 n=b4 v=71
186276 On ch=1 n=d6 v=81
186292 On ch=1 n=g5 v=0
186410 On ch=1 n=b4 v=0
186416 On ch=1 n=d6 v=0
186440 On ch=1 n=g5 v=34
186608 On ch=1 n=b4 v=71
186612 On ch=1 n=g5 v=0
186678 On ch=1 n=d#6 v=94
186732 On ch=1 n=d6 v=83
186738 On ch=1 n=d#6 v=0
186752 On ch=1 n=g5 v=41
186756 On ch=1 n=b4 v=0
186796 On ch=1 n=d6 v=0
186814 On ch=1 n=c6 v=72
186864 On ch=1 n=d6 v=94
186872 Par ch=1 c=64 v=63
186894 On ch=1 n=c6 v=0
186918 Par ch=1 c=64 v=0
186924 On ch=1 n=d#6 v=113
186928 On ch=1 n=g5 v=0
186932 On ch=1 n=c5 v=76
186966 On ch=1 n=d6 v=0
187002 On ch=1 n=d#6 v=0
187066 On ch=1 n=c5 v=0
187076 On ch=1 n=g5 v=49
187274 On ch=1 n=g5 v=0
187276 On ch=1 n=d5 v=85
187278 On ch=1 n=f6 v=109
187350 On ch=1 n=f6 v=0
187390 On ch=1 n=g5 v=71
187406 On ch=1 n=d5 v=0
187624 On ch=1 n=f#6 v=104
187626 On ch=1 n=d5 v=56
187636 On ch=1 n=g5 v=0
187656 Par ch=1 c=64 v=63
187694 Par ch=1 c=64 v=127
187768 On ch=1 n=g5 v=38
187804 On ch=1 n=d5 v=0
187988 On ch=1 n=d5 v=56
187990 On ch=1 n=g5 v=0
188098 On ch=1 n=g5 v=47
188124 On ch=1 n=d5 v=0
188286 Par ch=1 c=64 v=63
188300 On ch=1 n=d#5 v=52
188304 On ch=1 n=g5 v=0
188324 On ch=1 n=g6 v=71
188360 On ch=1 n=f#6 v=0
188424 Par ch=1 c=64 v=127
188448 On ch=1 n=d#5 v=0
188460 On ch=1 n=g5 v=40
188546 On ch=1 n=g6 v=0
188668 On ch=1 n=d#5 v=51
188670 On ch=1 n=g5 v=0
188796 On ch=1 n=g5 v=49
188804 On ch=1 n=d#5 v=0
188992 On ch=1 n=g4 v=90
188994 Par ch=1 c=64 v=63
189002 On ch=1 n=d#5 v=70
189022 On ch=1 n=g5 v=0
189118 Par ch=1 c=64 v=127
189136 On ch=1 n=d#5 v=0
189160 On ch=1 n=g5 v=43
189318 On ch=1 n=c5 v=61
189322 On ch=1 n=g5 v=0
189456 On ch=1 n=c5 v=0
189456 On ch=1 n=g4 v=0
189490 On ch=1 n=g5 v=36
189516 On ch=1 n=f#4 v=65
189590 On ch=1 n=g4 v=68
189602 On ch=1 n=f#4 v=0
189658 On ch=1 n=g5 v=0
189660 On ch=1 n=d#5 v=67
189680 Par ch=1 c=64 v=63
189682 On ch=1 n=g#4 v=96
189712 On ch=1 n=g4 v=0
189826 On ch=1 n=d#5 v=0
189836 On ch=1 n=g5 v=51
189862 On ch=1 n=g4 v=86
189914 On ch=1 n=g#4 v=0
190024 On ch=1 n=f4 v=100
190034 On ch=1 n=c5 v=48
190044 On ch=1 n=g5 v=0
190088 On ch=1 n=g4 v=0
190104 Par ch=1 c=64 v=0
190166 On ch=1 n=d#4 v=89
190176 On ch=1 n=g5 v=51
190192 On ch=1 n=c5 v=0
190194 On ch=1 n=f4 v=0
190316 On ch=1 n=d4 v=97
190350 On ch=1 n=d#4 v=0
190376 On ch=1 n=f5 v=71
190382 On ch=1 n=g5 v=0
190508 On ch=1 n=g5 v=70
190532 On ch=1 n=f5 v=0
190704 On ch=1 n=d5 v=79
190708 On ch=1 n=g5 v=0
190832 On ch=1 n=g5 v=59
190838 On ch=1 n=d5 v=0
191016 On ch=1 n=d#5 v=76
191020 Par ch=1 c=64 v=63
191022 On ch=1 n=c4 v=89
191026 On ch=1 n=g5 v=0
191034 Par ch=1 c=64 v=127
191042 On ch=1 n=d4 v=0
191138 On ch=1 n=c4 v=0
191154 On ch=1 n=d#5 v=0
191172 On ch=1 n=g5 v=59
191352 On ch=1 n=g5 v=0
191358 On ch=1 n=c5 v=84
191494 On ch=1 n=g5 v=60
191500 On ch=1 n=c5 v=0
191628 Par ch=1 c=64 v=63
191638 Par ch=1 c=64 v=0
191676 On ch=1 n=g5 v=0
191678 On ch=1 n=c7 v=113
191682 On ch=1 n=c6 v=109
191686 On ch=1 n=c5 v=112
191696 On ch=1 n=d#5 v=113
191790 Par ch=1 c=64 v=63
191800 Par ch=1 c=64 v=127
191854 On ch=1 n=g5 v=85
191892 On ch=1 n=c5 v=0
191918 On ch=1 n=d#5 v=0
192034 On ch=1 n=c5 v=81
192044 On ch=1 n=g5 v=0
192046 On ch=1 n=c6 v=0
192046 On ch=1 n=d#5 v=88
192064 On ch=1 n=c7 v=0
192166 On ch=1 n=c5 v=0
192184 On ch=1 n=g5 v=72
192190 On ch=1 n=d#5 v=0
192370 On ch=1 n=e5 v=111
192374 On ch=1 n=c#7 v=115
192378 On ch=1 n=a#4 v=108
192378 On ch=1 n=c#6 v=121
192392 Par ch=1 c=64 v=63
192426 On ch=1 n=g5 v=0
192450 Par ch=1 c=64 v=127
192562 On ch=1 n=a#4 v=0
192564 On ch=1 n=g5 v=88
192618 On ch=1 n=e5 v=0
192658 On ch=1 n=c#6 v=0
192670 On ch=1 n=c#7 v=0
192724 On ch=1 n=a#4 v=85
192750 On ch=1 n=e5 v=76
192752 On ch=1 n=g5 v=0
192874 On ch=1 n=a#4 v=0
192900 On ch=1 n=e5 v=0
192900 On ch=1 n=g5 v=86
193010 On ch=1 n=g5 v=0
193026 Par ch=1 c=64 v=63
193034 Par ch=1 c=64 v=0
193042 On ch=1 n=c6 v=112
193042 On ch=1 n=c7 v=112
193052 On ch=1 n=c5 v=114
193052 On ch=1 n=a4 v=107
193110 On ch=1 n=c6 v=0
193130 On ch=1 n=c5 v=0
193142 On ch=1 n=c7 v=0
193154 On ch=1 n=a4 v=0
193180 On ch=1 n=f5 v=106
193258 On ch=1 n=f5 v=0
193428 On ch=1 n=g#4 v=99
193434 On ch=1 n=c5 v=93
193434 On ch=1 n=f#5 v=115
193438 On ch=1 n=d#7 v=114
193442 On ch=1 n=d#6 v=116
193464 Par ch=1 c=64 v=127
193492 On ch=1 n=f#5 v=0
193498 On ch=1 n=c5 v=0
193506 On ch=1 n=d#6 v=0
193530 On ch=1 n=g#4 v=0
193546 On ch=1 n=d#7 v=0
193990 Par ch=1 c=64 v=63
194102 On ch=1 n=d#7 v=80
194300 On ch=1 n=d7 v=89
194392 On ch=1 n=d#7 v=0
194406 Par ch=1 c=64 v=0
194442 On ch=1 n=c7 v=92
194500 On ch=1 n=d7 v=0
194612 On ch=1 n=b6 v=102
194636 On ch=1 n=c7 v=0
194758 On ch=1 n=d7 v=96
194782 On ch=1 n=b6 v=0
194954 On ch=1 n=f6 v=68
194956 On ch=1 n=b4 v=59
194966 On ch=1 n=g4 v=50
194970 On ch=1 n=d7 v=0
195180 Par ch=1 c=64 v=63
195204 On ch=1 n=b4 v=0
195264 Par ch=1 c=64 v=127
195298 On ch=1 n=f6 v=0
195326 On ch=1 n=d5 v=49
195332 Par ch=1 c=64 v=63
195338 On ch=1 n=b4 v=55
195344 On ch=1 n=g4 v=0
195508 On ch=1 n=g#6 v=87
195680 On ch=1 n=g6 v=82
195764 On ch=1 n=d5 v=0
195770 Par ch=1 c=64 v=127
195784 On ch=1 n=g#6 v=0
195816 On ch=1 n=f6 v=84
195842 On ch=1 n=g6 v=0
195844 On ch=1 n=b4 v=0
195854 Par ch=1 c=64 v=63
195974 On ch=1 n=f6 v=0
195984 On ch=1 n=e6 v=100
196112 On ch=1 n=e6 v=0
196128 On ch=1 n=g6 v=86
196132 Par ch=1 c=64 v=127
196198 Par ch=1 c=64 v=63
196260 Par ch=1 c=64 v=0
196278 On ch=1 n=g6 v=0
196320 On ch=1 n=a#5 v=77
196332 On ch=1 n=c4 v=47
196338 On ch=1 n=e4 v=65
196464 Par ch=1 c=64 v=63
196490 Par ch=1 c=64 v=127
196568 On ch=1 n=e4 v=0
196586 On ch=1 n=a#5 v=0
196684 On ch=1 n=g4 v=57
196702 On ch=1 n=e4 v=57
196706 On ch=1 n=c4 v=0
196776 Par ch=1 c=64 v=63
196842 Par ch=1 c=64 v=0
196876 On ch=1 n=c#6 v=80
196970 Par ch=1 c=64 v=63
197006 On ch=1 n=e4 v=0
197028 Par ch=1 c=64 v=127
197044 On ch=1 n=c6 v=76
197116 On ch=1 n=c#6 v=0
197196 On ch=1 n=a#5 v=98
197230 On ch=1 n=c6 v=0
197348 On ch=1 n=a#5 v=0
197370 On ch=1 n=g#5 v=86
197380 On ch=1 n=g4 v=0
197384 On ch=1 n=f4 v=45
197386 Par ch=1 c=64 v=63
197434 Par ch=1 c=64 v=0
197530 Par ch=1 c=64 v=63
197562 On ch=1 n=g#6 v=80
197580 Par ch=1 c=64 v=127
197596 On ch=1 n=g#5 v=0
197742 On ch=1 n=f4 v=0
197762 On ch=1 n=g6 v=82
197766 On ch=1 n=g#6 v=0
197936 On ch=1 n=f6 v=89
197996 On ch=1 n=g6 v=0
198074 On ch=1 n=d#6 v=104
198140 On ch=1 n=f6 v=0
198212 Par ch=1 c=64 v=63
198234 On ch=1 n=d6 v=101
198268 Par ch=1 c=64 v=0
198286 On ch=1 n=d#6 v=0
198386 On ch=1 n=d#6 v=110
198438 On ch=1 n=d6 v=0
198530 On ch=1 n=f6 v=99
198596 On ch=1 n=d#6 v=0
198722 On ch=1 n=g4 v=84
198724 On ch=1 n=c6 v=94
198792 On ch=1 n=f6 v=0
198844 Par ch=1 c=64 v=63
198870 Par ch=1 c=64 v=127
199088 On ch=1 n=d#5 v=83
199094 On ch=1 n=g5 v=82
199360 On ch=1 n=g5 v=0
199368 On ch=1 n=d#5 v=0
199508 On ch=1 n=f5 v=68
199518 On ch=1 n=d5 v=64
199590 On ch=1 n=c6 v=0
199628 Par ch=1 c=64 v=63
199722 Par ch=1 c=64 v=127
199904 On ch=1 n=d#6 v=82
199906 On ch=1 n=b5 v=69
199942 On ch=1 n=f5 v=0
199972 On ch=1 n=d5 v=0
200024 On ch=1 n=g4 v=0
200032 On ch=1 n=b5 v=0
200060 On ch=1 n=d#6 v=0
200076 On ch=1 n=d6 v=99
200152 On ch=1 n=d6 v=0
200330 On ch=1 n=c4 v=117
200332 On ch=1 n=c6 v=112
200334 On ch=1 n=c5 v=116
200338 On ch=1 n=d#4 v=116
200342 Par ch=1 c=64 v=63
200352 Par ch=1 c=64 v=0
200386 Par ch=1 c=64 v=63
200408 Par ch=1 c=64 v=127
200510 On ch=1 n=d#4 v=0
200526 On ch=1 n=g4 v=65
200538 On ch=1 n=c4 v=0
200676 On ch=1 n=c5 v=0
200682 On ch=1 n=c4 v=92
200690 On ch=1 n=d#4 v=100
200708 On ch=1 n=c6 v=0
200720 On ch=1 n=g4 v=0
200836 On ch=1 n=c4 v=0
200838 On ch=1 n=g4 v=86
200868 On ch=1 n=d#4 v=0
201008 On ch=1 n=e4 v=107
201008 On ch=1 n=c#6 v=118
201010 On ch=1 n=c#5 v=119
201020 On ch=1 n=a#3 v=104
201042 On ch=1 n=g4 v=0
201062 Par ch=1 c=64 v=63
201114 Par ch=1 c=64 v=127
201170 On ch=1 n=g4 v=88
201182 On ch=1 n=a#3 v=0
201216 On ch=1 n=e4 v=0
201328 On ch=1 n=c#5 v=0
201344 On ch=1 n=a#3 v=96
201346 On ch=1 n=c#6 v=0
201354 On ch=1 n=e4 v=83
201378 On ch=1 n=g4 v=0
201484 On ch=1 n=e4 v=0
201490 On ch=1 n=a#3 v=0
201496 On ch=1 n=g4 v=89
201608 On ch=1 n=g4 v=0
201670 On ch=1 n=c6 v=108
201674 On ch=1 n=a3 v=109
201674 On ch=1 n=c5 v=106
201676 On ch=1 n=c4 v=113
201696 Par ch=1 c=64 v=63
201704 Par ch=1 c=64 v=0
201730 On ch=1 n=c5 v=0
201758 On ch=1 n=c6 v=0
201770 On ch=1 n=c4 v=0
201810 On ch=1 n=f4 v=103
201824 On ch=1 n=a3 v=0
201896 On ch=1 n=f4 v=0
202048 On ch=1 n=c4 v=98
202050 On ch=1 n=g#3 v=104
202050 On ch=1 n=f#4 v=119
202054 On ch=1 n=d#6 v=115
202056 On ch=1 n=d#5 v=121
202092 Par ch=1 c=64 v=63
202094 Par ch=1 c=64 v=127
202112 On ch=1 n=f#4 v=0
202112 On ch=1 n=c4 v=0
202116 On ch=1 n=d#5 v=0
202146 On ch=1 n=g#3 v=0
202152 On ch=1 n=d#6 v=0
202552 Par ch=1 c=64 v=63
202608 Par ch=1 c=64 v=0
202704 On ch=1 n=d#6 v=84
202892 On ch=1 n=d6 v=82
202988 On ch=1 n=d#6 v=0
203038 On ch=1 n=c6 v=86
203058 On ch=1 n=d6 v=0
203164 On ch=1 n=c6 v=0
203198 On ch=1 n=b5 v=89
203340 On ch=1 n=d6 v=76
203346 On ch=1 n=b5 v=0
203534 On ch=1 n=b3 v=60
203538 On ch=1 n=f5 v=69
203538 On ch=1 n=g3 v=49
203582 On ch=1 n=d6 v=0
203638 Par ch=1 c=64 v=63
203660 Par ch=1 c=64 v=127
203746 On ch=1 n=b3 v=0
203884 On ch=1 n=g3 v=0
203900 On ch=1 n=d4 v=57
203904 On ch=1 n=b3 v=50
203930 On ch=1 n=f5 v=0
204072 On ch=1 n=g#5 v=91
204162 Par ch=1 c=64 v=63
204238 On ch=1 n=g5 v=84
204292 On ch=1 n=d4 v=0
204326 On ch=1 n=g#5 v=0
204374 On ch=1 n=b3 v=0
204378 On ch=1 n=f5 v=88
204400 On ch=1 n=g5 v=0
204518 On ch=1 n=f5 v=0
204550 On ch=1 n=e5 v=93
204576 Par ch=1 c=64 v=127
204674 On ch=1 n=e5 v=0
204684 On ch=1 n=g5 v=83
204824 Par ch=1 c=64 v=63
204852 On ch=1 n=a#4 v=80
204868 On ch=1 n=g5 v=0
204876 On ch=1 n=e3 v=69
204884 On ch=1 n=c3 v=53
204898 Par ch=1 c=64 v=0
204972 Par ch=1 c=64 v=63
205024 Par ch=1 c=64 v=127
205084 On ch=1 n=e3 v=0
205144 On ch=1 n=a#4 v=0
205222 On ch=1 n=g3 v=63
205232 On ch=1 n=c3 v=0
205236 On ch=1 n=e3 v=64
205292 Par ch=1 c=64 v=63
205332 Par ch=1 c=64 v=0
205372 Par ch=1 c=64 v=63
205406 On ch=1 n=c#5 v=96
205418 Par ch=1 c=64 v=127
205452 On ch=1 n=g3 v=0
205476 On ch=1 n=e3 v=0
205558 On ch=1 n=c5 v=86
205716 On ch=1 n=c#5 v=0
205754 On ch=1 n=a#4 v=109
205798 On ch=1 n=c5 v=0
205868 On ch=1 n=a#4 v=0
205984 On ch=1 n=f3 v=116
205988 On ch=1 n=f2 v=113
205994 On ch=1 n=g#4 v=116
206080 Par ch=1 c=64 v=63
206136 On ch=1 n=c5 v=102
206156 On ch=1 n=g#4 v=0
206160 Par ch=1 c=64 v=127
206260 On ch=1 n=c5 v=0
206260 On ch=1 n=e4 v=90
206360 On ch=1 n=e4 v=0
206362 On ch=1 n=f4 v=92
206452 On ch=1 n=g#4 v=105
206466 On ch=1 n=f4 v=0
206532 On ch=1 n=g#4 v=0
206550 On ch=1 n=b3 v=99
206652 On ch=1 n=c4 v=104
206660 On ch=1 n=b3 v=0
206754 On ch=1 n=f4 v=96
206762 On ch=1 n=c4 v=0
206794 On ch=1 n=f3 v=0
206834 On ch=1 n=f4 v=0
206838 On ch=1 n=g3 v=99
206940 On ch=1 n=g3 v=0
206948 On ch=1 n=g#3 v=110
207046 On ch=1 n=c4 v=91
207056 On ch=1 n=g#3 v=0
207144 On ch=1 n=e3 v=97
207152 On ch=1 n=c4 v=0
207226 On ch=1 n=e3 v=0
207282 On ch=1 n=f3 v=118
207310 Par ch=1 c=64 v=63
207332 Par ch=1 c=64 v=0
207386 Par ch=1 c=64 v=63
207418 Par ch=1 c=64 v=127
207436 On ch=1 n=c3 v=97
207450 On ch=1 n=f3 v=0
207514 On ch=1 n=c3 v=0
207552 On ch=1 n=f3 v=89
207622 On ch=1 n=f3 v=0
207636 On ch=1 n=f2 v=0
207650 On ch=1 n=g#3 v=104
207742 On ch=1 n=g#3 v=0
207770 On ch=1 n=f3 v=70
207852 On ch=1 n=g#3 v=99
207864 On ch=1 n=f3 v=0
207940 On ch=1 n=g#3 v=0
207962 On ch=1 n=c4 v=100
208068 On ch=1 n=g#3 v=108
208080 On ch=1 n=c4 v=0
208152 On ch=1 n=c4 v=85
208158 On ch=1 n=g#3 v=0
208234 On ch=1 n=f4 v=109
208242 On ch=1 n=c4 v=0
208334 On ch=1 n=f4 v=0
208344 On ch=1 n=c4 v=96
208446 On ch=1 n=f4 v=98
208460 On ch=1 n=c4 v=0
208530 On ch=1 n=g#4 v=109
208560 On ch=1 n=f4 v=0
208642 On ch=1 n=g#4 v=0
208652 On ch=1 n=f4 v=86
208738 On ch=1 n=g#4 v=108
208756 On ch=1 n=f4 v=0
208824 On ch=1 n=g#4 v=0
208848 On ch=1 n=c5 v=107
208956 On ch=1 n=c5 v=0
208974 On ch=1 n=g#4 v=81
209024 On ch=1 n=g#4 v=0
209058 On ch=1 n=c5 v=91
209120 On ch=1 n=c5 v=0
209166 On ch=1 n=f5 v=109
209250 On ch=1 n=f5 v=0
209298 On ch=1 n=c5 v=60
209370 On ch=1 n=c5 v=0
209388 On ch=1 n=f5 v=94
209474 On ch=1 n=g#5 v=114
209506 On ch=1 n=f5 v=0
209590 On ch=1 n=f5 v=92
209602 On ch=1 n=g#5 v=0
209684 On ch=1 n=g#5 v=99
209694 On ch=1 n=f5 v=0
209728 On ch=1 n=g#5 v=0
209732 On ch=1 n=a5 v=38
209770 On ch=1 n=c6 v=103
209774 On ch=1 n=a5 v=0
209842 On ch=1 n=c6 v=0
209868 On ch=1 n=g#5 v=104
209954 On ch=1 n=g#5 v=0
209966 On ch=1 n=c6 v=89
210066 On ch=1 n=f6 v=111
210092 On ch=1 n=c6 v=0
210148 On ch=1 n=f6 v=0
210180 On ch=1 n=c6 v=86
210266 On ch=1 n=f6 v=104
210282 On ch=1 n=c6 v=0
210362 On ch=1 n=g#6 v=113
210394 On ch=1 n=f6 v=0
210462 On ch=1 n=f6 v=101
210504 On ch=1 n=g#6 v=0
210568 On ch=1 n=g#6 v=107
210626 On ch=1 n=f6 v=0
210664 Par ch=1 c=64 v=63
210682 Par ch=1 c=64 v=0
210718 On ch=1 n=c7 v=113
210788 On ch=1 n=g#6 v=0
210966 On ch=1 n=g6 v=104
211046 On ch=1 n=c7 v=0
211184 On ch=1 n=g#6 v=107
211228 On ch=1 n=g6 v=0
211232 Par ch=1 c=64 v=63
211246 Par ch=1 c=64 v=127
211338 On ch=1 n=e6 v=91
211368 On ch=1 n=g#6 v=0
211452 On ch=1 n=e6 v=0
211496 On ch=1 n=f6 v=91
211658 On ch=1 n=c#6 v=105
211680 On ch=1 n=f6 v=0
211828 On ch=1 n=d6 v=106
211890 On ch=1 n=c#6 v=0
211992 On ch=1 n=g#6 v=104
212058 On ch=1 n=d6 v=0
212082 Par ch=1 c=64 v=63
212096 Par ch=1 c=64 v=0
212162 On ch=1 n=f6 v=102
212186 On ch=1 n=g#6 v=0
212292 On ch=1 n=d6 v=103
212300 Par ch=1 c=64 v=63
212334 Par ch=1 c=64 v=127
212362 On ch=1 n=f6 v=0
212402 On ch=1 n=d6 v=0
212476 On ch=1 n=d#5 v=72
212478 On ch=1 n=g4 v=46
212484 On ch=1 n=c5 v=69
212626 Par ch=1 c=64 v=63
212660 Par ch=1 c=64 v=0
212678 On ch=1 n=g5 v=82
212776 Par ch=1 c=64 v=63
212802 Par ch=1 c=64 v=127
212854 On ch=1 n=g6 v=90
212856 On ch=1 n=g5 v=0
213034 On ch=1 n=f#6 v=100
213072 On ch=1 n=g6 v=0
213192 On ch=1 n=f6 v=101
213232 On ch=1 n=f#6 v=0
213316 On ch=1 n=f6 v=0
213358 On ch=1 n=e6 v=107
213514 Par ch=1 c=64 v=63
213514 On ch=1 n=d#6 v=114
213576 On ch=1 n=e6 v=0
213576 Par ch=1 c=64 v=0
213608 Par ch=1 c=64 v=63
213656 On ch=1 n=d6 v=102
213656 Par ch=1 c=64 v=127
213664 On ch=1 n=c5 v=0
213672 On ch=1 n=g4 v=0
213684 On ch=1 n=d#5 v=0
213746 On ch=1 n=d#6 v=0
213788 On ch=1 n=d6 v=0
213822 On ch=1 n=d#5 v=85
213858 On ch=1 n=g4 v=54
213866 On ch=1 n=d6 v=91
213874 Par ch=1 c=64 v=63
213966 Par ch=1 c=64 v=127
214020 On ch=1 n=g5 v=68
214048 On ch=1 n=c6 v=88
214062 On ch=1 n=d6 v=0
214072 On ch=1 n=d#5 v=0
214148 On ch=1 n=c6 v=0
214194 On ch=1 n=d#5 v=91
214210 On ch=1 n=g5 v=0
214224 On ch=1 n=c6 v=98
214356 On ch=1 n=g5 v=77
214404 On ch=1 n=d#5 v=0
214410 On ch=1 n=g4 v=0
214436 Par ch=1 c=64 v=63
214464 Par ch=1 c=64 v=127
214538 On ch=1 n=f5 v=91
214554 On ch=1 n=g5 v=0
214678 On ch=1 n=g5 v=80
214716 On ch=1 n=f5 v=0
214750 On ch=1 n=c6 v=0
214858 On ch=1 n=f5 v=76
214874 On ch=1 n=g5 v=0
214894 On ch=1 n=d#6 v=94
214920 On ch=1 n=b5 v=71
214992 On ch=1 n=f5 v=0
215012 On ch=1 n=g5 v=45
215042 On ch=1 n=d#6 v=0
215044 On ch=1 n=d6 v=79
215062 On ch=1 n=b5 v=0
215248 Par ch=1 c=64 v=63
215252 On ch=1 n=c6 v=76
215266 On ch=1 n=c5 v=45
215272 Par ch=1 c=64 v=0
215276 On ch=1 n=g5 v=0
215352 On ch=1 n=d6 v=0
215386 Par ch=1 c=64 v=63
215424 Par ch=1 c=64 v=127
215474 On ch=1 n=g5 v=47
215538 On ch=1 n=c5 v=0
215668 On ch=1 n=c6 v=0
215668 On ch=1 n=d#5 v=80
215682 On ch=1 n=g5 v=0
215762 Par ch=1 c=64 v=63
215788 Par ch=1 c=64 v=0
215802 On ch=1 n=c6 v=91
215808 On ch=1 n=d#5 v=0
215816 On ch=1 n=g5 v=59
215922 On ch=1 n=c6 v=0
215966 Par ch=1 c=64 v=63
215978 On ch=1 n=c#6 v=68
215980 On ch=1 n=b4 v=68
215984 Par ch=1 c=64 v=127
216002 On ch=1 n=g5 v=0
216116 On ch=1 n=b4 v=0
216134 On ch=1 n=d6 v=71
216152 On ch=1 n=g5 v=27
216166 On ch=1 n=c#6 v=0
216322 Par ch=1 c=64 v=63
216340 On ch=1 n=g5 v=0
216342 On ch=1 n=f5 v=68
216346 Par ch=1 c=64 v=0
216408 On ch=1 n=d6 v=0
216486 On ch=1 n=g5 v=68
216496 On ch=1 n=d6 v=87
216498 On ch=1 n=f5 v=0
216634 Par ch=1 c=64 v=63
216656 On ch=1 n=f6 v=90
216658 Par ch=1 c=64 v=127
216668 On ch=1 n=c5 v=87
216684 On ch=1 n=g5 v=0
216698 On ch=1 n=d6 v=0
216808 On ch=1 n=d#6 v=97
216834 On ch=1 n=c5 v=0
216842 On ch=1 n=g5 v=49
216862 On ch=1 n=f6 v=0
216908 On ch=1 n=d#6 v=0
216980 On ch=1 n=d#5 v=80
216990 On ch=1 n=g5 v=0
217054 Par ch=1 c=64 v=63
217070 Par ch=1 c=64 v=0
217128 On ch=1 n=d#5 v=0
217132 On ch=1 n=g5 v=87
217142 On ch=1 n=d#6 v=103
217216 On ch=1 n=g5 v=0
217294 On ch=1 n=e6 v=93
217314 On ch=1 n=d4 v=99
217342 On ch=1 n=d#6 v=0
217370 Par ch=1 c=64 v=63
217374 Par ch=1 c=64 v=127
217456 On ch=1 n=b4 v=70
217468 On ch=1 n=d4 v=0
217470 On ch=1 n=e6 v=0
217474 On ch=1 n=f6 v=106
217608 On ch=1 n=f6 v=0
217628 On ch=1 n=b4 v=0
217634 On ch=1 n=f4 v=96
217752 Par ch=1 c=64 v=63
217758 On ch=1 n=f4 v=0
217770 Par ch=1 c=64 v=0
217770 On ch=1 n=b4 v=77
217814 On ch=1 n=f6 v=101
217970 On ch=1 n=b4 v=0
217976 On ch=1 n=f#6 v=101
217976 On ch=1 n=d#4 v=105
217990 On ch=1 n=f6 v=0
218038 Par ch=1 c=64 v=63
218058 Par ch=1 c=64 v=127
218122 On ch=1 n=g6 v=94
218144 On ch=1 n=c5 v=86
218150 On ch=1 n=d#4 v=0
218150 On ch=1 n=f#6 v=0
218220 Par ch=1 c=64 v=63
218230 Par ch=1 c=64 v=0
218246 On ch=1 n=g6 v=0
218276 On ch=1 n=c5 v=0
218296 On ch=1 n=e4 v=118
218300 Par ch=1 c=64 v=63
218316 Par ch=1 c=64 v=127
218454 On ch=1 n=c5 v=104
218470 On ch=1 n=g6 v=100
218524 On ch=1 n=e4 v=0
218540 Par ch=1 c=64 v=63
218606 Par ch=1 c=64 v=127
218624 On ch=1 n=f4 v=118
218626 On ch=1 n=a#6 v=115
218654 On ch=1 n=c5 v=0
218696 On ch=1 n=g6 v=0
218770 On ch=1 n=f4 v=0
218774 On ch=1 n=g#6 v=113
218782 On ch=1 n=c5 v=106
218846 On ch=1 n=a#6 v=0
218894 On ch=1 n=g#6 v=0
218910 On ch=1 n=c5 v=0
218912 Par ch=1 c=64 v=63
218924 On ch=1 n=f#4 v=116
218996 Par ch=1 c=64 v=127
219028 On ch=1 n=f#4 v=0
219098 On ch=1 n=d#5 v=110
219102 On ch=1 n=c7 v=116
219192 On ch=1 n=d#5 v=0
219224 On ch=1 n=c7 v=0
219280 On ch=1 n=g4 v=92
219290 On ch=1 n=c7 v=104
219318 Par ch=1 c=64 v=63
219374 Par ch=1 c=64 v=127
219424 On ch=1 n=c7 v=0
219472 On ch=1 n=d#5 v=83
219474 On ch=1 n=c6 v=86
219548 On ch=1 n=c6 v=0
219608 On ch=1 n=g4 v=0
219622 On ch=1 n=d#5 v=0
219644 On ch=1 n=c5 v=77
219652 On ch=1 n=c6 v=106
219790 On ch=1 n=d#5 v=92
219808 On ch=1 n=c5 v=0
219902 On ch=1 n=d#5 v=0
219936 Par ch=1 c=64 v=63
219966 On ch=1 n=g4 v=106
220028 Par ch=1 c=64 v=127
220116 On ch=1 n=f5 v=87
220172 On ch=1 n=c6 v=0
220280 On ch=1 n=f5 v=0
220288 Par ch=1 c=64 v=63
220302 Par ch=1 c=64 v=0
220304 On ch=1 n=d#6 v=106
220326 On ch=1 n=d5 v=76
220398 On ch=1 n=g4 v=0
220434 On ch=1 n=d6 v=94
220440 On ch=1 n=d5 v=0
220444 On ch=1 n=f5 v=80
220478 On ch=1 n=f5 v=0
220488 On ch=1 n=d#6 v=0
220572 On ch=1 n=d6 v=0
220616 Par ch=1 c=64 v=63
220626 On ch=1 n=c6 v=102
220628 Par ch=1 c=64 v=127
220634 On ch=1 n=c4 v=111
220690 On ch=1 n=c6 v=0
220770 On ch=1 n=g4 v=68
220790 On ch=1 n=c6 v=90
220824 On ch=1 n=c6 v=0
220854 Par ch=1 c=64 v=63
220868 Par ch=1 c=64 v=0
220888 On ch=1 n=g4 v=0
220962 On ch=1 n=d#4 v=88
220964 On ch=1 n=c6 v=112
220986 On ch=1 n=c4 v=0
221022 On ch=1 n=d6 v=102
221032 On ch=1 n=c6 v=0
221046 On ch=1 n=d#4 v=0
221054 On ch=1 n=d6 v=0
221074 On ch=1 n=c6 v=72
221086 On ch=1 n=g4 v=67
221124 On ch=1 n=b5 v=101
221142 On ch=1 n=c6 v=0
221194 On ch=1 n=c6 v=94
221198 On ch=1 n=g4 v=0
221202 On ch=1 n=b5 v=0
221260 On ch=1 n=d6 v=112
221264 On ch=1 n=b3 v=113
221284 Par ch=1 c=64 v=63
221292 Par ch=1 c=64 v=127
221298 On ch=1 n=c6 v=0
221328 On ch=1 n=d6 v=0
221412 On ch=1 n=g4 v=82
221426 On ch=1 n=d6 v=101
221468 On ch=1 n=d6 v=0
221496 On ch=1 n=b3 v=0
221514 Par ch=1 c=64 v=63
221526 Par ch=1 c=64 v=0
221562 On ch=1 n=g4 v=0
221600 On ch=1 n=f4 v=93
221602 On ch=1 n=d6 v=114
221668 On ch=1 n=d6 v=0
221672 On ch=1 n=d#6 v=110
221684 On ch=1 n=f4 v=0
221712 On ch=1 n=g4 v=73
221740 On ch=1 n=d#6 v=0
221756 On ch=1 n=d6 v=82
221792 On ch=1 n=c6 v=94
221842 On ch=1 n=g4 v=0
221874 On ch=1 n=c6 v=0
221916 On ch=1 n=c4 v=124
221918 On ch=1 n=d#6 v=116
221936 Par ch=1 c=64 v=63
221938 Par ch=1 c=64 v=127
221958 On ch=1 n=d6 v=0
221982 On ch=1 n=d#6 v=0
222072 On ch=1 n=g4 v=84
222104 On ch=1 n=d#6 v=108
222152 On ch=1 n=c4 v=0
222154 On ch=1 n=d#6 v=0
222248 Par ch=1 c=64 v=63
222254 Par ch=1 c=64 v=0
222270 On ch=1 n=g4 v=0
222276 On ch=1 n=d#6 v=121
222280 On ch=1 n=d#4 v=105
222344 On ch=1 n=f6 v=101
222348 On ch=1 n=d#6 v=0
222368 On ch=1 n=d#4 v=0
222400 On ch=1 n=d#6 v=91
222400 On ch=1 n=g4 v=84
222408 On ch=1 n=f6 v=0
222470 On ch=1 n=d6 v=92
222476 On ch=1 n=d#6 v=0
222504 On ch=1 n=g4 v=0
222522 On ch=1 n=d#6 v=97
222534 On ch=1 n=d6 v=0
222578 Par ch=1 c=64 v=63
222582 On ch=1 n=f6 v=106
222584 On ch=1 n=d4 v=124
222584 Par ch=1 c=64 v=127
222626 On ch=1 n=d#6 v=0
222670 On ch=1 n=f6 v=0
222728 On ch=1 n=b4 v=106
222770 On ch=1 n=f6 v=106
222820 On ch=1 n=f6 v=0
222882 On ch=1 n=b4 v=0
222924 On ch=1 n=f6 v=116
222924 On ch=1 n=g4 v=108
222978 On ch=1 n=g6 v=103
222994 On ch=1 n=f6 v=0
223016 On ch=1 n=d4 v=0
223028 On ch=1 n=g6 v=0
223036 On ch=1 n=g4 v=0
223040 On ch=1 n=b4 v=96
223044 On ch=1 n=f6 v=91
223086 Par ch=1 c=64 v=63
223100 Par ch=1 c=64 v=0
223114 On ch=1 n=d#6 v=105
223116 On ch=1 n=f6 v=0
223130 On ch=1 n=b4 v=0
223174 On ch=1 n=f6 v=82
223180 On ch=1 n=d#6 v=0
223250 On ch=1 n=g6 v=108
223264 On ch=1 n=d#4 v=120
223266 On ch=1 n=c5 v=121
223316 On ch=1 n=f6 v=0
223332 Par ch=1 c=64 v=63
223340 Par ch=1 c=64 v=127
223446 On ch=1 n=c7 v=98
223456 On ch=1 n=g6 v=0
223568 On ch=1 n=a#6 v=105
223602 On ch=1 n=c7 v=0
223638 Par ch=1 c=64 v=63
223648 Par ch=1 c=64 v=0
223678 On ch=1 n=g#6 v=110
223716 On ch=1 n=a#6 v=0
223756 Par ch=1 c=64 v=63
223774 On ch=1 n=g6 v=96
223778 Par ch=1 c=64 v=127
223794 On ch=1 n=g#6 v=0
223876 On ch=1 n=f6 v=92
223896 On ch=1 n=g6 v=0
223960 On ch=1 n=d#6 v=115
223984 On ch=1 n=f6 v=0
224068 On ch=1 n=d6 v=112
224112 On ch=1 n=d#6 v=0
224144 On ch=1 n=d#4 v=0
224174 On ch=1 n=c6 v=100
224188 On ch=1 n=d6 v=0
224214 Par ch=1 c=64 v=63
224222 Par ch=1 c=64 v=0
224270 On ch=1 n=e4 v=111
224286 On ch=1 n=a#5 v=114
224326 On ch=1 n=c6 v=0
224386 On ch=1 n=g#5 v=110
224438 On ch=1 n=a#5 v=0
224492 On ch=1 n=g5 v=107
224508 On ch=1 n=e4 v=0
224516 On ch=1 n=g#5 v=0
224576 On ch=1 n=g#5 v=110
224598 On ch=1 n=f4 v=124
224622 On ch=1 n=g5 v=0
224660 On ch=1 n=g#5 v=0
224660 On ch=1 n=c5 v=0
224678 On ch=1 n=f4 v=0
224946 On ch=1 n=f6 v=113
224948 On ch=1 n=g#6 v=115
224952 On ch=1 n=c6 v=103
224954 On ch=1 n=f4 v=122
225004 On ch=1 n=f6 v=0
225006 On ch=1 n=c6 v=0
225034 On ch=1 n=g#6 v=0
225038 On ch=1 n=f4 v=0
225294 On ch=1 n=g6 v=111
225298 On ch=1 n=d#6 v=109
225302 On ch=1 n=g4 v=117
225304 On ch=1 n=c6 v=107
225346 On ch=1 n=c6 v=0
225356 On ch=1 n=d#6 v=0
225356 On ch=1 n=g6 v=0
225390 On ch=1 n=g4 v=0
225630 On ch=1 n=g3 v=127
225636 On ch=1 n=b5 v=107
225638 On ch=1 n=f5 v=103
225642 On ch=1 n=d5 v=101
225692 On ch=1 n=d5 v=0
225696 On ch=1 n=f5 v=0
225720 On ch=1 n=b5 v=0
225800 On ch=1 n=g3 v=0
225990 On ch=1 n=c6 v=113
225994 On ch=1 n=c4 v=127
225996 On ch=1 n=d#5 v=110
226010 Par ch=1 c=64 v=63
226022 Par ch=1 c=64 v=127
226042 On ch=1 n=d#5 v=0
226054 On ch=1 n=c6 v=0
226078 On ch=1 n=c4 v=0
226342 On ch=1 n=g6 v=107
226408 Par ch=1 c=64 v=63
226416 Par ch=1 c=64 v=0
226438 On ch=1 n=f#6 v=108
226486 On ch=1 n=g6 v=0
226542 On ch=1 n=g#6 v=104
226576 On ch=1 n=f#6 v=0
226650 On ch=1 n=g6 v=94
226696 On ch=1 n=g#6 v=0
226754 On ch=1 n=f6 v=89
226802 On ch=1 n=g6 v=0
226862 On ch=1 n=d#6 v=100
226902 On ch=1 n=f6 v=0
226964 On ch=1 n=d#5 v=88
226974 On ch=1 n=d#6 v=0
226976 On ch=1 n=d6 v=79
226978 On ch=1 n=c5 v=64
227040 On ch=1 n=d#5 v=0
227044 On ch=1 n=c5 v=0
227084 On ch=1 n=d#6 v=94
227094 On ch=1 n=d6 v=0
227182 On ch=1 n=c6 v=79
227224 On ch=1 n=d#6 v=0
227310 On ch=1 n=d5 v=79
227312 On ch=1 n=f5 v=73
227312 On ch=1 n=g4 v=64
227318 On ch=1 n=b5 v=78
227322 On ch=1 n=c6 v=0
227324 Par ch=1 c=64 v=63
227342 Par ch=1 c=64 v=127
227400 On ch=1 n=b5 v=0
227622 On ch=1 n=f5 v=0
227624 On ch=1 n=g4 v=0
227648 On ch=1 n=d5 v=0
227648 On ch=1 n=f6 v=111
227668 Par ch=1 c=64 v=63
227702 Par ch=1 c=64 v=0
227750 On ch=1 n=e6 v=98
227818 On ch=1 n=f6 v=0
227854 On ch=1 n=g6 v=92
227888 On ch=1 n=e6 v=0
227954 On ch=1 n=f6 v=100
228026 On ch=1 n=g6 v=0
228048 On ch=1 n=d#6 v=109
228110 On ch=1 n=f6 v=0
228160 On ch=1 n=d6 v=96
228224 On ch=1 n=d#6 v=0
228272 On ch=1 n=c6 v=90
228278 On ch=1 n=d6 v=0
228292 On ch=1 n=g4 v=76
228294 On ch=1 n=f5 v=83
228304 On ch=1 n=d5 v=80
228370 On ch=1 n=d5 v=0
228374 On ch=1 n=g4 v=0
228376 On ch=1 n=c6 v=0
228394 On ch=1 n=b5 v=85
228400 On ch=1 n=f5 v=0
228490 On ch=1 n=d6 v=86
228532 On ch=1 n=b5 v=0
228602 On ch=1 n=c6 v=89
228622 On ch=1 n=d#5 v=75
228636 On ch=1 n=c5 v=68
228666 On ch=1 n=d6 v=0
228686 Par ch=1 c=64 v=63
228694 On ch=1 n=c6 v=0
228702 Par ch=1 c=64 v=127
228958 Par ch=1 c=64 v=63
228966 Par ch=1 c=64 v=0
228994 On ch=1 n=g6 v=113
229048 On ch=1 n=d#5 v=0
229074 On ch=1 n=c5 v=0
229090 On ch=1 n=f#6 v=110
229128 Par ch=1 c=64 v=63
229136 Par ch=1 c=64 v=127
229150 On ch=1 n=g6 v=0
229220 On ch=1 n=g#6 v=110
229240 On ch=1 n=f#6 v=0
229330 On ch=1 n=g6 v=107
229372 On ch=1 n=g#6 v=0
229422 On ch=1 n=f6 v=106
229490 On ch=1 n=g6 v=0
229518 On ch=1 n=d#6 v=116
229578 On ch=1 n=f6 v=0
229628 On ch=1 n=d6 v=108
229632 On ch=1 n=c4 v=114
229640 On ch=1 n=d#4 v=113
229672 Par ch=1 c=64 v=63
229676 Par ch=1 c=64 v=0
229684 On ch=1 n=d#6 v=0
229714 On ch=1 n=d#4 v=0
229728 On ch=1 n=c4 v=0
229732 On ch=1 n=d6 v=0
229740 On ch=1 n=d#6 v=107
229846 On ch=1 n=c6 v=102
229856 On ch=1 n=d#6 v=0
229954 On ch=1 n=c6 v=0
229990 On ch=1 n=d4 v=120
229992 On ch=1 n=b3 v=109
229992 On ch=1 n=f4 v=121
229992 On ch=1 n=g3 v=106
230012 On ch=1 n=g#6 v=112
230034 Par ch=1 c=64 v=127
230146 On ch=1 n=g6 v=101
230192 On ch=1 n=g#6 v=0
230252 On ch=1 n=g6 v=0
230260 On ch=1 n=f6 v=100
230356 On ch=1 n=d#6 v=106
230360 On ch=1 n=f6 v=0
230448 On ch=1 n=d6 v=106
230486 On ch=1 n=d#6 v=0
230550 On ch=1 n=c6 v=85
230562 On ch=1 n=d6 v=0
230638 On ch=1 n=c6 v=0
230648 On ch=1 n=b5 v=104
230756 On ch=1 n=g#5 v=109
230796 On ch=1 n=b5 v=0
230854 On ch=1 n=g5 v=106
230890 On ch=1 n=g#5 v=0
230894 On ch=1 n=f4 v=0
230912 On ch=1 n=d4 v=0
230930 On ch=1 n=b3 v=0
230948 On ch=1 n=f5 v=100
230950 On ch=1 n=g3 v=0
230968 On ch=1 n=g5 v=0
231060 On ch=1 n=d#5 v=114
231082 On ch=1 n=f5 v=0
231150 On ch=1 n=d5 v=109
231182 On ch=1 n=d#5 v=0
231268 On ch=1 n=c5 v=122
231270 On ch=1 n=c4 v=125
231272 On ch=1 n=c3 v=120
231308 On ch=1 n=d5 v=0
231308 Par ch=1 c=64 v=63
231312 On ch=1 n=g3 v=54
231322 Par ch=1 c=64 v=0
231358 On ch=1 n=g3 v=0
231612 Par ch=1 c=64 v=63
231622 Par ch=1 c=64 v=127
231692 On ch=1 n=c5 v=0
231698 On ch=1 n=c3 v=0
231742 On ch=1 n=c4 v=0
232034 On ch=1 n=d#4 v=123
232038 On ch=1 n=d#3 v=114
232042 Par ch=1 c=64 v=63
232050 Par ch=1 c=64 v=0
232064 On ch=1 n=d#3 v=0
232096 On ch=1 n=d#4 v=0
232406 On ch=1 n=g4 v=112
232412 On ch=1 n=g3 v=111
232472 On ch=1 n=g3 v=0
232476 On ch=1 n=g4 v=0
232746 On ch=1 n=c4 v=96
232750 On ch=1 n=c5 v=106
232752 On ch=1 n=c6 v=122
232774 Par ch=1 c=64 v=63
232778 Par ch=1 c=64 v=127
232804 On ch=1 n=c5 v=0
232806 On ch=1 n=c6 v=0
232812 On ch=1 n=c4 v=0
233072 On ch=1 n=d#4 v=112
233076 On ch=1 n=d#5 v=119
233134 On ch=1 n=d#5 v=0
233138 On ch=1 n=d#4 v=0
233410 On ch=1 n=d#6 v=123
233436 Par ch=1 c=64 v=63
233448 Par ch=1 c=64 v=0
233490 On ch=1 n=d#6 v=0
233766 On ch=1 n=g6 v=109
233836 On ch=1 n=g6 v=0
234110 On ch=1 n=c7 v=125
234120 On ch=1 n=g#3 v=126
234122 On ch=1 n=g#2 v=126
234154 Par ch=1 c=64 v=63
234156 Par ch=1 c=64 v=127
234178 On ch=1 n=g#2 v=0
234178 On ch=1 n=c7 v=0
234180 On ch=1 n=g#3 v=0
234488 On ch=1 n=d#7 v=125
234556 On ch=1 n=d#7 v=0
234812 On ch=1 n=c3 v=98
234814 On ch=1 n=c4 v=114
234878 On ch=1 n=c3 v=0
234886 On ch=1 n=c4 v=0
235020 Par ch=1 c=64 v=63
235038 Par ch=1 c=64 v=0
235170 On ch=1 n=d#4 v=119
235172 On ch=1 n=d#3 v=113
235228 On ch=1 n=d#3 v=0
235232 On ch=1 n=d#4 v=0
235526 On ch=1 n=g#4 v=107
235526 On ch=1 n=g#5 v=126
235530 Par ch=1 c=64 v=63
235532 On ch=1 n=g#3 v=87
235534 Par ch=1 c=64 v=127
235560 On ch=1 n=g#3 v=0
235592 On ch=1 n=g#5 v=0
235602 On ch=1 n=g#4 v=0
235866 On ch=1 n=c4 v=106
235868 On ch=1 n=c5 v=107
235916 On ch=1 n=c5 v=0
235940 On ch=1 n=c4 v=0
236180 Par ch=1 c=64 v=63
236188 Par ch=1 c=64 v=0
236200 On ch=1 n=c6 v=108
236276 On ch=1 n=c6 v=0
236556 On ch=1 n=d#6 v=109
236612 On ch=1 n=d#6 v=0
236902 On ch=1 n=a6 v=117
236906 On ch=1 n=f#3 v=123
236912 On ch=1 n=f#2 v=123
236936 Par ch=1 c=64 v=63
236938 Par ch=1 c=64 v=127
236968 On ch=1 n=f#2 v=0
236970 On ch=1 n=f#3 v=0
236976 On ch=1 n=a6 v=0
237258 On ch=1 n=c7 v=120
237366 On ch=1 n=c7 v=0
237584 On ch=1 n=a2 v=109
237586 On ch=1 n=a3 v=116
237600 Par ch=1 c=64 v=63
237608 Par ch=1 c=64 v=0
237648 On ch=1 n=a2 v=0
237654 On ch=1 n=a3 v=0
237902 On ch=1 n=c3 v=98
237912 On ch=1 n=c4 v=107
237922 On ch=1 n=c7 v=121
237966 On ch=1 n=c3 v=0
237980 On ch=1 n=c4 v=0
238022 On ch=1 n=d#7 v=112
238056 On ch=1 n=c7 v=0
238124 On ch=1 n=c7 v=86
238182 On ch=1 n=d#7 v=0
238216 On ch=1 n=f#3 v=106
238218 On ch=1 n=f#4 v=118
238228 On ch=1 n=a6 v=101
238254 On ch=1 n=c7 v=0
238276 On ch=1 n=f#4 v=0
238276 On ch=1 n=f#3 v=0
238312 On ch=1 n=a6 v=0
238346 On ch=1 n=c7 v=101
238452 On ch=1 n=a6 v=87
238472 On ch=1 n=c7 v=0
238530 On ch=1 n=a4 v=112
238538 On ch=1 n=f#6 v=109
238540 On ch=1 n=a3 v=104
238554 On ch=1 n=a6 v=0
238580 On ch=1 n=a3 v=0
238598 On ch=1 n=a4 v=0
238636 On ch=1 n=f#6 v=0
238656 On ch=1 n=a6 v=96
238750 On ch=1 n=f#6 v=101
238792 On ch=1 n=a6 v=0
238842 On ch=1 n=c4 v=90
238842 On ch=1 n=d#6 v=116
238842 On ch=1 n=c5 v=109
238868 On ch=1 n=c5 v=0
238888 On ch=1 n=f#6 v=0
238898 On ch=1 n=c4 v=0
238938 On ch=1 n=f#6 v=97
238980 On ch=1 n=d#6 v=0
239042 On ch=1 n=f#4 v=45
239056 On ch=1 n=d#6 v=85
239086 On ch=1 n=f#4 v=0
239110 On ch=1 n=f#6 v=0
239158 On ch=1 n=c6 v=106
239178 On ch=1 n=d#5 v=123
239190 On ch=1 n=d#4 v=114
239198 On ch=1 n=d#6 v=0
239210 On ch=1 n=d#4 v=0
239226 On ch=1 n=d#5 v=0
239274 On ch=1 n=c6 v=0
239292 On ch=1 n=d#6 v=109
239408 On ch=1 n=c6 v=98
239424 On ch=1 n=d#6 v=0
239494 On ch=1 n=c6 v=0
239544 On ch=1 n=g4 v=111
239550 On ch=1 n=g5 v=102
239592 Par ch=1 c=64 v=63
239596 Par ch=1 c=64 v=127
239628 On ch=1 n=g5 v=0
239740 On ch=1 n=c5 v=77
239766 On ch=1 n=g4 v=0
239866 On ch=1 n=d#5 v=80
239904 On ch=1 n=c5 v=0
239974 On ch=1 n=g4 v=73
239996 On ch=1 n=d#5 v=0
240008 On ch=1 n=g6 v=117
240140 On ch=1 n=g4 v=0
240140 On ch=1 n=c5 v=71
240246 On ch=1 n=d#5 v=86
240280 On ch=1 n=c5 v=0
240336 On ch=1 n=g4 v=87
240370 On ch=1 n=d#5 v=0
240458 On ch=1 n=c5 v=92
240526 On ch=1 n=g4 v=0
240552 On ch=1 n=d#5 v=96
240568 On ch=1 n=g6 v=0
240602 On ch=1 n=c5 v=0
240644 On ch=1 n=g4 v=69
240668 On ch=1 n=f6 v=108
240684 On ch=1 n=d#5 v=0
240726 On ch=1 n=c5 v=65
240742 On ch=1 n=d#6 v=106
240780 On ch=1 n=f6 v=0
240798 On ch=1 n=g4 v=0
240814 On ch=1 n=d6 v=91
240826 On ch=1 n=d#5 v=80
240842 On ch=1 n=d#6 v=0
240866 On ch=1 n=c6 v=91
240884 On ch=1 n=c5 v=0
240890 On ch=1 n=d6 v=0
240910 On ch=1 n=d#5 v=0
240934 Par ch=1 c=64 v=63
240936 On ch=1 n=d6 v=106
240946 Par ch=1 c=64 v=0
240962 On ch=1 n=g4 v=89
240986 On ch=1 n=c6 v=0
240986 Par ch=1 c=64 v=63
241016 Par ch=1 c=64 v=127
241052 On ch=1 n=d#6 v=112
241084 On ch=1 n=d6 v=0
241100 On ch=1 n=b4 v=60
241136 On ch=1 n=g4 v=0
241148 On ch=1 n=d#6 v=0
241164 On ch=1 n=d6 v=89
241192 On ch=1 n=f5 v=65
241200 On ch=1 n=b4 v=0
241258 On ch=1 n=d6 v=0
241262 On ch=1 n=d#6 v=70
241292 On ch=1 n=f5 v=0
241296 On ch=1 n=g4 v=84
241300 On ch=1 n=d#6 v=0
241300 On ch=1 n=d6 v=84
241358 On ch=1 n=d#6 v=99
241384 On ch=1 n=b4 v=89
241388 On ch=1 n=d6 v=0
241428 On ch=1 n=g4 v=0
241438 On ch=1 n=d#6 v=0
241450 On ch=1 n=d6 v=98
241482 On ch=1 n=b4 v=0
241492 On ch=1 n=f5 v=80
241510 On ch=1 n=d#6 v=94
241534 On ch=1 n=d6 v=0
241582 On ch=1 n=d6 v=98
241584 On ch=1 n=d#6 v=0
241590 On ch=1 n=f5 v=0
241608 On ch=1 n=g4 v=107
241634 On ch=1 n=d#6 v=101
241664 On ch=1 n=d6 v=0
241706 On ch=1 n=b4 v=97
241724 On ch=1 n=d#6 v=0
241724 On ch=1 n=d6 v=101
241766 On ch=1 n=g4 v=0
241786 On ch=1 n=d#6 v=87
241802 On ch=1 n=f5 v=83
241804 On ch=1 n=b4 v=0
241820 On ch=1 n=d6 v=0
241860 On ch=1 n=d6 v=49
241876 On ch=1 n=d#6 v=0
241894 On ch=1 n=f5 v=0
241898 On ch=1 n=g4 v=104
241912 On ch=1 n=d#6 v=80
241924 On ch=1 n=d6 v=0
241984 On ch=1 n=d#6 v=0
241984 On ch=1 n=b4 v=94
241990 On ch=1 n=d6 v=94
242064 On ch=1 n=g4 v=0
242086 On ch=1 n=c6 v=100
242090 On ch=1 n=b4 v=0
242098 On ch=1 n=d6 v=0
242106 On ch=1 n=f5 v=59
242148 On ch=1 n=d6 v=93
242198 On ch=1 n=c6 v=0
242238 On ch=1 n=f5 v=0
242244 On ch=1 n=d6 v=0
242294 On ch=1 n=c5 v=98
242396 Par ch=1 c=64 v=63
242478 On ch=1 n=c6 v=86
242532 Par ch=1 c=64 v=127
242612 On ch=1 n=c7 v=91
242630 On ch=1 n=c6 v=0
242666 On ch=1 n=c5 v=0
242706 On ch=1 n=c7 v=0
242746 On ch=1 n=b4 v=85
242872 On ch=1 n=b5 v=90
242930 Par ch=1 c=64 v=63
242960 On ch=1 n=b6 v=72
242970 On ch=1 n=b5 v=0
242970 Par ch=1 c=64 v=127
243058 On ch=1 n=c5 v=87
243062 On ch=1 n=b6 v=0
243068 On ch=1 n=b4 v=0
243166 On ch=1 n=c5 v=0
243178 On ch=1 n=c6 v=62
243278 On ch=1 n=c7 v=72
243284 On ch=1 n=c6 v=0
243322 On ch=1 n=c7 v=0
243392 Par ch=1 c=64 v=63
243410 On ch=1 n=g4 v=113
243490 Par ch=1 c=64 v=127
243522 On ch=1 n=g5 v=71
243626 On ch=1 n=g5 v=0
243630 On ch=1 n=g6 v=93
243740 On ch=1 n=g6 v=0
243750 On ch=1 n=g#4 v=95
243810 On ch=1 n=g4 v=0
243870 On ch=1 n=g#5 v=73
243972 On ch=1 n=g#6 v=75
244018 Par ch=1 c=64 v=63
244074 On ch=1 n=g4 v=76
244078 On ch=1 n=g#6 v=0
244092 On ch=1 n=g#5 v=0
244124 On ch=1 n=g#4 v=0
244176 Par ch=1 c=64 v=127
244212 On ch=1 n=g5 v=70
244302 On ch=1 n=g5 v=0
244302 On ch=1 n=g6 v=77
244414 On ch=1 n=g#4 v=77
244418 On ch=1 n=g6 v=0
244442 On ch=1 n=g4 v=0
244506 On ch=1 n=g#5 v=74
244508 On ch=1 n=g#4 v=0
244604 On ch=1 n=g#6 v=86
244664 On ch=1 n=g#5 v=0
244682 Par ch=1 c=64 v=63
244690 On ch=1 n=g#6 v=0
244706 Par ch=1 c=64 v=0
244746 On ch=1 n=d#4 v=118
244768 Par ch=1 c=64 v=63
244806 Par ch=1 c=64 v=127
244874 On ch=1 n=d#5 v=90
244968 On ch=1 n=d#6 v=89
244990 On ch=1 n=d#5 v=0
245082 On ch=1 n=d#6 v=0
245084 On ch=1 n=f4 v=90
245144 On ch=1 n=d#4 v=0
245192 On ch=1 n=f5 v=66
245226 On ch=1 n=f4 v=0
245286 On ch=1 n=f5 v=0
245290 On ch=1 n=f6 v=90
245380 On ch=1 n=f6 v=0
245386 On ch=1 n=f#4 v=73
245446 Par ch=1 c=64 v=63
245512 On ch=1 n=f#5 v=84
245582 Par ch=1 c=64 v=127
245622 On ch=1 n=f#6 v=82
245646 On ch=1 n=f#5 v=0
245728 On ch=1 n=g4 v=58
245738 On ch=1 n=f#6 v=0
245754 On ch=1 n=f#4 v=0
245838 On ch=1 n=g4 v=0
245840 On ch=1 n=g5 v=55
245926 On ch=1 n=g5 v=0
245930 On ch=1 n=g6 v=83
245980 On ch=1 n=g6 v=0
246104 On ch=1 n=g3 v=76
246112 Par ch=1 c=64 v=63
246204 Par ch=1 c=64 v=127
246218 On ch=1 n=g4 v=75
246314 On ch=1 n=g4 v=0
246344 On ch=1 n=g5 v=81
246440 On ch=1 n=g5 v=0
246504 On ch=1 n=c4 v=76
246516 On ch=1 n=g3 v=0
246614 On ch=1 n=c5 v=71
246690 On ch=1 n=c5 v=0
246726 On ch=1 n=c6 v=85
246802 On ch=1 n=c6 v=0
246840 On ch=1 n=b3 v=79
246844 On ch=1 n=c4 v=0
246860 Par ch=1 c=64 v=63
246896 Par ch=1 c=64 v=0
246934 On ch=1 n=b4 v=66
246944 Par ch=1 c=64 v=63
246994 Par ch=1 c=64 v=127
247036 On ch=1 n=b4 v=0
247062 On ch=1 n=b5 v=57
247140 On ch=1 n=b5 v=0
247164 On ch=1 n=c4 v=66
247166 Par ch=1 c=64 v=63
247180 On ch=1 n=b3 v=0
247256 Par ch=1 c=64 v=127
247302 On ch=1 n=c4 v=0
247372 On ch=1 n=c6 v=76
247418 On ch=1 n=c6 v=0
247436 Par ch=1 c=64 v=63
247476 Par ch=1 c=64 v=0
247510 On ch=1 n=g3 v=92
247518 Par ch=1 c=64 v=63
247564 Par ch=1 c=64 v=127
247606 On ch=1 n=g4 v=76
247700 On ch=1 n=g4 v=0
247730 On ch=1 n=g5 v=71
247818 On ch=1 n=g5 v=0
247846 On ch=1 n=g#3 v=80
247884 On ch=1 n=g3 v=0
247946 Par ch=1 c=64 v=63
247954 On ch=1 n=g#4 v=70
248066 On ch=1 n=g#5 v=76
248066 Par ch=1 c=64 v=127
248180 On ch=1 n=g3 v=65
248200 On ch=1 n=g#5 v=0
248200 On ch=1 n=g#4 v=0
248230 On ch=1 n=g#3 v=0
248272 Par ch=1 c=64 v=63
248332 On ch=1 n=g4 v=60
248374 Par ch=1 c=64 v=127
248418 On ch=1 n=g4 v=0
248418 On ch=1 n=g5 v=70
248492 On ch=1 n=g5 v=0
248534 On ch=1 n=g#3 v=72
248552 On ch=1 n=g3 v=0
248610 On ch=1 n=g#4 v=75
248626 On ch=1 n=g#3 v=0
248724 Par ch=1 c=64 v=63
248730 On ch=1 n=g#5 v=76
248768 Par ch=1 c=64 v=0
248782 On ch=1 n=g#4 v=0
248806 On ch=1 n=g#5 v=0
248850 Par ch=1 c=64 v=63
248896 Par ch=1 c=64 v=127
248896 On ch=1 n=d#3 v=88
249020 On ch=1 n=d#4 v=81
249140 On ch=1 n=d#4 v=0
249142 On ch=1 n=d#5 v=81
249154 On ch=1 n=d#3 v=0
249246 On ch=1 n=f3 v=78
249262 On ch=1 n=d#5 v=0
249330 Par ch=1 c=64 v=63
249330 On ch=1 n=f4 v=76
249380 Par ch=1 c=64 v=0
249400 Par ch=1 c=64 v=63
249428 On ch=1 n=f4 v=0
249450 On ch=1 n=f5 v=71
249460 Par ch=1 c=64 v=127
249524 On ch=1 n=f5 v=0
249560 Par ch=1 c=64 v=63
249576 On ch=1 n=f#3 v=75
249612 On ch=1 n=f3 v=0
249676 Par ch=1 c=64 v=127
249678 On ch=1 n=f#4 v=74
249802 On ch=1 n=f#5 v=72
249820 Par ch=1 c=64 v=63
249834 On ch=1 n=f#4 v=0
249904 Par ch=1 c=64 v=127
249908 On ch=1 n=g3 v=63
249918 On ch=1 n=f#3 v=0
249946 On ch=1 n=f#5 v=0
249998 On ch=1 n=g4 v=67
250016 On ch=1 n=g3 v=0
250096 On ch=1 n=g4 v=0
250130 On ch=1 n=g5 v=79
250188 On ch=1 n=g5 v=0
250238 Par ch=1 c=64 v=63
250294 On ch=1 n=g2 v=88
250354 Par ch=1 c=64 v=127
250440 On ch=1 n=g3 v=72
250530 On ch=1 n=g3 v=0
250542 On ch=1 n=g2 v=0
250584 On ch=1 n=g4 v=65
250678 On ch=1 n=g4 v=0
250736 On ch=1 n=c3 v=84
250898 On ch=1 n=c4 v=55
250974 Par ch=1 c=64 v=63
251012 Par ch=1 c=64 v=0
251036 On ch=1 n=d#4 v=70
251056 On ch=1 n=c4 v=0
251136 Par ch=1 c=64 v=63
251164 On ch=1 n=g4 v=55
251168 On ch=1 n=d#4 v=0
251188 Par ch=1 c=64 v=127
251262 On ch=1 n=d#4 v=65
251300 Par ch=1 c=64 v=63
251320 On ch=1 n=g4 v=0
251358 Par ch=1 c=64 v=0
251398 On ch=1 n=c4 v=57
251432 Par ch=1 c=64 v=63
251450 On ch=1 n=d#4 v=0
251460 On ch=1 n=c3 v=0
251490 On ch=1 n=g4 v=76
251496 Par ch=1 c=64 v=127
251500 On ch=1 n=c4 v=0
251606 On ch=1 n=d#4 v=70
251666 On ch=1 n=g4 v=0
251700 On ch=1 n=c4 v=63
251728 Par ch=1 c=64 v=63
251756 On ch=1 n=d#4 v=0
251798 Par ch=1 c=64 v=0
251800 On ch=1 n=g2 v=68
251820 On ch=1 n=c4 v=0
251826 On ch=1 n=f4 v=71
251916 On ch=1 n=d4 v=65
251928 On ch=1 n=g2 v=0
252000 On ch=1 n=f4 v=0
252026 On ch=1 n=b3 v=62
252058 On ch=1 n=d4 v=0
252092 Par ch=1 c=64 v=63
252122 On ch=1 n=b3 v=0
252158 Par ch=1 c=64 v=127
252160 On ch=1 n=c3 v=76
252284 On ch=1 n=g3 v=59
252314 Par ch=1 c=64 v=63
252386 On ch=1 n=c4 v=76
252386 Par ch=1 c=64 v=0
252388 On ch=1 n=g3 v=0
252520 Par ch=1 c=64 v=63
252522 On ch=1 n=d#4 v=72
252530 On ch=1 n=c4 v=0
252616 On ch=1 n=c4 v=57
252622 On ch=1 n=d#4 v=0
252744 On ch=1 n=g3 v=66
252760 On ch=1 n=c4 v=0
252792 On ch=1 n=c3 v=0
252848 Par ch=1 c=64 v=0
252862 On ch=1 n=d#4 v=81
252876 On ch=1 n=g3 v=0
252976 On ch=1 n=c4 v=67
252988 Par ch=1 c=64 v=63
253014 On ch=1 n=d#4 v=0
253090 On ch=1 n=g3 v=65
253130 On ch=1 n=c4 v=0
253192 On ch=1 n=g2 v=67
253194 On ch=1 n=d4 v=79
253232 On ch=1 n=g3 v=0
253306 On ch=1 n=g2 v=0
253332 On ch=1 n=b3 v=59
253354 On ch=1 n=d4 v=0
253428 On ch=1 n=g3 v=57
253498 On ch=1 n=b3 v=0
253594 Par ch=1 c=64 v=0
253618 On ch=1 n=c4 v=60
253624 On ch=1 n=c3 v=54
253642 On ch=1 n=g3 v=0
253872 On ch=1 n=c3 v=0
253880 On ch=1 n=c4 v=0
254396 Par ch=1 c=64 v=63
254446 On ch=1 n=d#3 v=41
254448 On ch=1 n=g3 v=14
254456 On ch=1 n=c4 v=36
254460 On ch=1 n=c3 v=34
254632 On ch=1 n=d#3 v=0
254636 On ch=1 n=c3 v=0
254666 On ch=1 n=g3 v=0
254682 On ch=1 n=c4 v=0
255328 Par ch=1 c=64 v=127
255336 On ch=1 n=g3 v=19
255348 On ch=1 n=c4 v=35
255352 On ch=1 n=d#3 v=29
255364 On ch=1 n=c3 v=30
255576 On ch=1 n=d#3 v=0
255588 On ch=1 n=c3 v=0
255640 On ch=1 n=c4 v=0
255644 On ch=1 n=g3 v=0
256660 Par ch=1 c=64 v=63
256708 Par ch=1 c=64 v=0
258568 Par ch=1 c=67 v=127
258914 Par ch=1 c=67 v=0
258914 Meta TrkEnd
TrkEnd
MTrk
0 SeqSpec 43 00 01 00
0 Meta TrkName "                                    "
0 TimeSig 4/4 24 8
0 Meta TrkEnd
TrkEnd
MTrk
0 SeqSpec 43 00 01 00
0 Meta TrkName "                                    "
0 TimeSig 4/4 24 8
0 Meta TrkEnd
TrkEnd
MTrk
0 SeqSpec 43 00 01 00
0 Meta TrkName "                                    "
0 TimeSig 4/4 24 8
0 Meta TrkEnd
TrkEnd
MTrk
0 SeqSpec 43 00 01 00
0 Meta TrkName "                                    "
0 TimeSig 4/4 24 8
0 Meta TrkEnd
TrkEnd
MTrk
0 SeqSpec 43 00 01 00
0 Meta TrkName "                                    "
0 TimeSig 4/4 24 8
0 Meta TrkEnd
TrkEnd
MTrk
0 SeqSpec 43 00 01 00
0 Meta TrkName "                                    "
0 TimeSig 4/4 24 8
0 Meta TrkEnd
TrkEnd
MTrk
0 SeqSpec 43 00 01 00
0 Meta TrkName "                                    "
0 TimeSig 4/4 24 8
0 Meta TrkEnd
TrkEnd
MTrk
0 SeqSpec 43 00 01 00
0 Meta TrkName "                                    "
0 TimeSig 4/4 24 8
0 Meta TrkEnd
TrkEnd
MTrk
0 SeqSpec 43 00 01 00
0 Meta TrkName "                                    "
0 TimeSig 4/4 24 8
0 Meta TrkEnd
TrkEnd
MTrk
0 SeqSpec 43 00 01 00
0 Meta TrkName "                                    "
0 TimeSig 4/4 24 8
0 Meta TrkEnd
TrkEnd
MTrk
0 SeqSpec 43 00 01 00
0 Meta TrkName "                                    "
0 TimeSig 4/4 24 8
0 Meta TrkEnd
TrkEnd
MTrk
0 SeqSpec 43 00 01 00
0 Meta TrkName "                                    "
0 TimeSig 4/4 24 8
0 Meta TrkEnd
TrkEnd
MTrk
0 SeqSpec 43 00 01 00
0 Meta TrkName "                                    "
0 TimeSig 4/4 24 8
0 Meta TrkEnd
TrkEnd
MTrk
0 SeqSpec 43 00 01 00
0 Meta TrkName "                                    "
0 TimeSig 4/4 24 8
0 Meta TrkEnd
TrkEnd
MTrk
0 SeqSpec 43 00 01 00
0 Meta TrkName "                                    "
0 TimeSig 4/4 24 8
0 Meta TrkEnd
TrkEnd
MTrk
0 SeqSpec 43 00 01 00
0 Meta TrkName "                                    "
0 TimeSig 4/4 24 8
0 Meta TrkEnd
TrkEnd
