MFile 1 18 480
MTrk
0 Tempo 500000
0 TimeSig 4/4 24 8
0 Meta TrkEnd
TrkEnd
MTrk
0 SeqSpec 43 00 01 00
0 Meta TrkName "PIANO                               "
0 TimeSig 4/4 24 8
0 SysEx f0 41 10 42 12 40 00 7f 00 41 f7
0 SysEx f0 41 10 42 12 40 00 04 64 58 f7
340 SysEx f0 41 10 42 12 40 01 30 03 0c f7
340 SysEx f0 41 10 42 12 40 01 33 50 3c f7
340 SysEx f0 41 10 42 12 40 01 34 3c 4f f7
744 Par ch=1 c=0 v=0
748 Par ch=1 c=32 v=1
752 PrCh ch=1 p=0
756 Par ch=1 c=7 v=100
948 Par ch=1 c=11 v=100
1140 Par ch=1 c=10 v=64
1332 Par ch=1 c=1 v=0
1332 Par ch=1 c=91 v=80
1350 Par ch=1 c=99 v=1
1354 Par ch=1 c=98 v=32
1358 Par ch=1 c=6 v=62
1362 Par ch=1 c=99 v=1
1366 Par ch=1 c=98 v=33
1370 Par ch=1 c=6 v=54
1374 Par ch=1 c=99 v=1
1378 Par ch=1 c=98 v=99
1382 Par ch=1 c=6 v=62
1386 Par ch=1 c=99 v=1
1390 Par ch=1 c=98 v=100
1394 Par ch=1 c=6 v=60
1398 Par ch=1 c=99 v=1
1402 Par ch=1 c=98 v=102
1406 Par ch=1 c=6 v=70
2696 On ch=1 n=c4 v=113
2698 On ch=1 n=c3 v=108
2702 On ch=1 n=c5 v=113
2836 Par ch=1 c=64 v=63
2872 Par ch=1 c=64 v=127
4070 Par ch=1 c=64 v=63
4148 Par ch=1 c=64 v=0
4562 Par ch=1 c=64 v=63
4568 Par ch=1 c=64 v=127
5034 On ch=1 n=c3 v=0
5190 On ch=1 n=c4 v=0
5522 On ch=1 n=d#5 v=65
5546 On ch=1 n=d#3 v=53
5558 On ch=1 n=d#4 v=41
5826 On ch=1 n=c5 v=0
6086 On ch=1 n=d#3 v=0
6172 On ch=1 n=d#4 v=0
6388 On ch=1 n=f#5 v=70
6416 On ch=1 n=f#4 v=32
6440 On ch=1 n=f#3 v=28
6468 On ch=1 n=d#5 v=0
6938 On ch=1 n=f#3 v=0
6966 On ch=1 n=f#4 v=0
7070 On ch=1 n=g5 v=71
7074 On ch=1 n=g4 v=55
7086 On ch=1 n=g3 v=55
7132 On ch=1 n=f#5 v=0
7466 On ch=1 n=g4 v=0
7536 On ch=1 n=g3 v=0
7722 On ch=1 n=g#3 v=49
7732 On ch=1 n=g#5 v=76
7746 On ch=1 n=g#4 v=34
7758 On ch=1 n=g5 v=0
7820 Par ch=1 c=64 v=63
7890 Par ch=1 c=64 v=127
7994 On ch=1 n=g#4 v=0
8062 On ch=1 n=g#3 v=0
8392 On ch=1 n=g#5 v=0
8510 On ch=1 n=c5 v=47
8532 On ch=1 n=c4 v=15
8538 On ch=1 n=c3 v=21
8674 Par ch=1 c=64 v=63
8762 Par ch=1 c=64 v=127
9042 On ch=1 n=c3 v=0
9054 On ch=1 n=c4 v=0
9096 On ch=1 n=c5 v=0
9490 On ch=1 n=b4 v=36
9522 On ch=1 n=b2 v=28
9528 On ch=1 n=b3 v=24
9664 Par ch=1 c=64 v=63
9788 Par ch=1 c=64 v=127
9912 On ch=1 n=b2 v=0
9914 On ch=1 n=b3 v=0
9934 On ch=1 n=b4 v=0
10458 Par ch=1 c=64 v=63
10546 Par ch=1 c=64 v=0
11630 Par ch=1 c=64 v=63
11684 Par ch=1 c=64 v=127
11720 On ch=1 n=f#5 v=37
11724 On ch=1 n=d#6 v=28
11728 On ch=1 n=c6 v=34
11848 On ch=1 n=f#5 v=0
11912 On ch=1 n=c6 v=0
11924 On ch=1 n=d#6 v=0
12572 On ch=1 n=g5 v=25
12598 On ch=1 n=b5 v=16
12608 On ch=1 n=d6 v=36
12686 Par ch=1 c=64 v=63
12758 Par ch=1 c=64 v=0
12810 On ch=1 n=b5 v=0
12816 On ch=1 n=g5 v=0
12818 On ch=1 n=d6 v=0
13508 Par ch=1 c=64 v=63
13530 On ch=1 n=g#5 v=27
13554 On ch=1 n=f#6 v=50
13558 Par ch=1 c=64 v=127
13600 On ch=1 n=c6 v=23
13782 On ch=1 n=c6 v=0
13784 On ch=1 n=g#5 v=0
13816 On ch=1 n=f#6 v=0
14656 On ch=1 n=g6 v=36
14670 On ch=1 n=b5 v=19
14672 On ch=1 n=g5 v=18
14836 Par ch=1 c=64 v=63
14940 Par ch=1 c=64 v=0
15174 On ch=1 n=g6 v=0
15212 On ch=1 n=b5 v=0
15280 On ch=1 n=g5 v=0
17752 On ch=1 n=a#4 v=100
17772 On ch=1 n=a#3 v=113
17780 On ch=1 n=a#2 v=107
19252 Par ch=1 c=64 v=63
19266 Par ch=1 c=64 v=127
19536 On ch=1 n=a#2 v=0
19648 On ch=1 n=a#3 v=0
19868 On ch=1 n=c#5 v=88
19890 On ch=1 n=c#4 v=75
19906 On ch=1 n=c#3 v=77
19976 On ch=1 n=a#4 v=0
20300 On ch=1 n=c#3 v=0
20380 On ch=1 n=c#4 v=0
20596 On ch=1 n=c#5 v=0
20656 On ch=1 n=e5 v=82
20672 On ch=1 n=e4 v=33
20688 On ch=1 n=e3 v=64
21228 On ch=1 n=e5 v=0
21274 On ch=1 n=f5 v=63
21350 On ch=1 n=e5 v=63
21356 On ch=1 n=f5 v=0
21420 On ch=1 n=d5 v=66
21428 On ch=1 n=e5 v=0
21526 On ch=1 n=e5 v=73
21540 On ch=1 n=d5 v=0
21582 Par ch=1 c=64 v=63
21604 Par ch=1 c=64 v=127
21712 On ch=1 n=e3 v=0
21764 On ch=1 n=e4 v=0
21836 On ch=1 n=f5 v=66
21860 On ch=1 n=f3 v=66
21870 On ch=1 n=f4 v=50
21902 On ch=1 n=e5 v=0
22042 On ch=1 n=f3 v=0
22082 On ch=1 n=f4 v=0
22200 On ch=1 n=g5 v=74
22208 On ch=1 n=g4 v=62
22244 On ch=1 n=g3 v=27
22260 On ch=1 n=f5 v=0
22316 Par ch=1 c=64 v=63
22396 Par ch=1 c=64 v=127
22508 On ch=1 n=g4 v=0
22572 On ch=1 n=g5 v=0
22576 On ch=1 n=g3 v=0
22928 On ch=1 n=a#4 v=56
22934 On ch=1 n=a#3 v=48
22950 On ch=1 n=a#2 v=43
23008 Par ch=1 c=64 v=63
23062 Par ch=1 c=64 v=127
23192 On ch=1 n=a#3 v=0
23228 On ch=1 n=a#2 v=0
23320 On ch=1 n=a#4 v=0
23722 On ch=1 n=a4 v=45
23742 On ch=1 n=a2 v=41
23746 On ch=1 n=a3 v=22
23818 Par ch=1 c=64 v=63
23846 Par ch=1 c=64 v=0
23888 Par ch=1 c=64 v=63
23944 Par ch=1 c=64 v=127
24064 On ch=1 n=a2 v=0
24102 On ch=1 n=a4 v=0
24120 On ch=1 n=a3 v=0
24746 Par ch=1 c=64 v=63
24796 Par ch=1 c=64 v=0
25734 Par ch=1 c=64 v=63
25782 Par ch=1 c=64 v=127
25806 On ch=1 n=a#5 v=16
25806 On ch=1 n=c#6 v=53
25838 On ch=1 n=e5 v=30
26054 On ch=1 n=e5 v=0
26086 On ch=1 n=a#5 v=0
26172 On ch=1 n=c#6 v=0
26702 On ch=1 n=f5 v=15
26714 On ch=1 n=c6 v=29
26726 On ch=1 n=a5 v=12
26786 Par ch=1 c=64 v=63
26850 Par ch=1 c=64 v=0
26954 On ch=1 n=a5 v=0
26964 On ch=1 n=c6 v=0
27006 On ch=1 n=f5 v=0
27570 Par ch=1 c=64 v=63
27594 On ch=1 n=e6 v=49
27594 On ch=1 n=a#5 v=31
27604 On ch=1 n=c#6 v=34
27606 Par ch=1 c=64 v=127
27880 On ch=1 n=c#6 v=0
27956 On ch=1 n=a#5 v=0
27970 On ch=1 n=e6 v=0
28740 On ch=1 n=a5 v=18
28744 On ch=1 n=f6 v=27
28764 On ch=1 n=c6 v=19
28970 Par ch=1 c=64 v=63
29062 Par ch=1 c=64 v=0
29238 On ch=1 n=a5 v=0
29270 On ch=1 n=c6 v=0
29272 On ch=1 n=f6 v=0
31978 On ch=1 n=g#3 v=113
31980 On ch=1 n=g#2 v=108
31984 On ch=1 n=g#4 v=107
31998 Par ch=1 c=64 v=63
32078 Par ch=1 c=64 v=127
32576 Par ch=1 c=64 v=63
32596 Par ch=1 c=64 v=0
33340 Par ch=1 c=64 v=63
33344 Par ch=1 c=64 v=127
33638 On ch=1 n=g#2 v=0
33730 On ch=1 n=g#3 v=0
33972 On ch=1 n=g#4 v=0
34060 On ch=1 n=c4 v=80
34064 On ch=1 n=c5 v=93
34074 On ch=1 n=c3 v=82
34664 On ch=1 n=c3 v=0
34728 On ch=1 n=c4 v=0
34922 On ch=1 n=c#5 v=75
34930 On ch=1 n=c#4 v=76
34962 On ch=1 n=c#3 v=54
35008 On ch=1 n=c5 v=0
35092 Par ch=1 c=64 v=63
35114 Par ch=1 c=64 v=127
35294 On ch=1 n=c#3 v=0
35342 On ch=1 n=c#4 v=0
35646 On ch=1 n=f3 v=67
35646 On ch=1 n=f4 v=61
35652 On ch=1 n=f5 v=72
35694 On ch=1 n=c#5 v=0
36084 On ch=1 n=f3 v=0
36174 On ch=1 n=f4 v=0
36450 On ch=1 n=g#5 v=54
36454 On ch=1 n=g#3 v=30
36468 On ch=1 n=g#4 v=29
36478 On ch=1 n=f5 v=0
36656 Par ch=1 c=64 v=63
36704 Par ch=1 c=64 v=127
37334 On ch=1 n=c#5 v=50
37396 On ch=1 n=g#5 v=0
37456 On ch=1 n=g#4 v=0
37462 On ch=1 n=g#3 v=0
38466 On ch=1 n=g#3 v=56
38480 On ch=1 n=c#5 v=0
38510 On ch=1 n=c5 v=54
38828 Par ch=1 c=64 v=63
38878 Par ch=1 c=64 v=127
39022 On ch=1 n=f#4 v=45
39390 On ch=1 n=d#4 v=60
39432 On ch=1 n=f#4 v=0
39690 On ch=1 n=f#4 v=52
39698 On ch=1 n=c5 v=0
39822 On ch=1 n=g#3 v=0
39962 On ch=1 n=g#3 v=51
40062 On ch=1 n=f#4 v=0
40260 On ch=1 n=f#4 v=42
40434 On ch=1 n=d#4 v=0
40542 On ch=1 n=d#4 v=43
40562 On ch=1 n=d5 v=67
40582 On ch=1 n=f#4 v=0
40838 On ch=1 n=f#4 v=33
40922 On ch=1 n=g#3 v=0
41066 On ch=1 n=g#3 v=39
41108 On ch=1 n=d#5 v=89
41152 On ch=1 n=f#4 v=0
41222 On ch=1 n=d5 v=0
41358 On ch=1 n=f#4 v=60
41408 On ch=1 n=d#4 v=0
41640 On ch=1 n=f#5 v=92
41642 On ch=1 n=d#4 v=60
41708 On ch=1 n=f#4 v=0
41810 On ch=1 n=d#5 v=0
41886 On ch=1 n=f#4 v=65
41938 On ch=1 n=g#3 v=0
42152 On ch=1 n=g#3 v=54
42160 On ch=1 n=a#5 v=88
42188 On ch=1 n=f#4 v=0
42298 On ch=1 n=f#5 v=0
42406 On ch=1 n=d#4 v=0
42418 On ch=1 n=f#4 v=41
42732 On ch=1 n=d#4 v=57
42738 On ch=1 n=c5 v=71
42740 On ch=1 n=f#4 v=0
42826 On ch=1 n=a#5 v=0
43022 On ch=1 n=f#4 v=46
43116 On ch=1 n=g#3 v=0
43348 On ch=1 n=g#3 v=36
43368 On ch=1 n=c#5 v=76
43378 On ch=1 n=d#4 v=0
43422 On ch=1 n=f#4 v=0
43504 On ch=1 n=c5 v=0
43614 Par ch=1 c=64 v=63
43662 Par ch=1 c=64 v=0
43714 Par ch=1 c=64 v=63
43762 Par ch=1 c=64 v=127
43774 On ch=1 n=f4 v=42
44034 On ch=1 n=c#4 v=49
44178 On ch=1 n=f4 v=0
44322 On ch=1 n=f4 v=46
44388 On ch=1 n=g#3 v=0
44580 On ch=1 n=g#3 v=59
44646 On ch=1 n=f4 v=0
44700 On ch=1 n=c#4 v=0
44734 On ch=1 n=c#5 v=0
44846 On ch=1 n=f4 v=51
45098 On ch=1 n=c#4 v=64
45102 On ch=1 n=e5 v=78
45104 On ch=1 n=g#3 v=0
45178 On ch=1 n=f4 v=0
45370 On ch=1 n=f4 v=63
45382 On ch=1 n=c#4 v=0
45592 On ch=1 n=f5 v=90
45592 On ch=1 n=g#3 v=72
45680 On ch=1 n=e5 v=0
45684 On ch=1 n=f4 v=0
45844 On ch=1 n=f4 v=67
45886 Par ch=1 c=64 v=63
45938 Par ch=1 c=64 v=127
46114 On ch=1 n=c#4 v=67
46114 On ch=1 n=g#5 v=98
46204 On ch=1 n=f4 v=0
46238 On ch=1 n=f5 v=0
46340 On ch=1 n=f4 v=77
46416 On ch=1 n=g#3 v=0
46588 On ch=1 n=g#3 v=74
46628 On ch=1 n=c#6 v=96
46674 On ch=1 n=f4 v=0
46680 On ch=1 n=g#5 v=0
46864 On ch=1 n=c#4 v=0
46888 On ch=1 n=f4 v=66
47180 On ch=1 n=c#4 v=58
47198 On ch=1 n=c#5 v=110
47228 On ch=1 n=f4 v=0
47242 On ch=1 n=c#6 v=0
47494 On ch=1 n=f4 v=74
47524 On ch=1 n=g#3 v=0
47662 On ch=1 n=c#5 v=0
47892 On ch=1 n=a3 v=59
47918 On ch=1 n=c5 v=106
47968 On ch=1 n=f4 v=0
48008 On ch=1 n=c#4 v=0
48102 Par ch=1 c=64 v=63
48114 Par ch=1 c=64 v=0
48232 Par ch=1 c=64 v=63
48250 Par ch=1 c=64 v=127
48382 On ch=1 n=f#4 v=57
48680 On ch=1 n=d#4 v=75
48746 On ch=1 n=f#4 v=0
48950 On ch=1 n=f#4 v=83
48986 On ch=1 n=c5 v=0
49048 On ch=1 n=a3 v=0
49196 On ch=1 n=a3 v=81
49266 On ch=1 n=f#4 v=0
49290 On ch=1 n=d#4 v=0
49438 On ch=1 n=f#4 v=94
49704 On ch=1 n=d#6 v=105
49716 On ch=1 n=d#4 v=72
49772 On ch=1 n=f#4 v=0
49954 On ch=1 n=f#4 v=83
50028 On ch=1 n=a3 v=0
50208 On ch=1 n=a3 v=60
50218 On ch=1 n=c6 v=98
50264 On ch=1 n=f#4 v=0
50284 On ch=1 n=d#6 v=0
50368 On ch=1 n=d#4 v=0
50424 On ch=1 n=f#4 v=80
50674 On ch=1 n=a5 v=91
50694 On ch=1 n=d#4 v=75
50746 On ch=1 n=f#4 v=0
50774 On ch=1 n=c6 v=0
50890 On ch=1 n=a5 v=0
50908 On ch=1 n=f#4 v=75
50912 On ch=1 n=a3 v=0
51158 On ch=1 n=a3 v=61
51160 On ch=1 n=f#5 v=78
51192 On ch=1 n=f#4 v=0
51268 On ch=1 n=f#5 v=0
51290 On ch=1 n=d#4 v=0
51380 On ch=1 n=f#4 v=74
51640 On ch=1 n=d#5 v=67
51648 On ch=1 n=f#4 v=0
51650 On ch=1 n=a3 v=0
51650 On ch=1 n=d#4 v=73
51712 On ch=1 n=d#5 v=0
51890 On ch=1 n=f#4 v=79
51922 On ch=1 n=d#4 v=0
52252 On ch=1 n=f#4 v=0
52266 On ch=1 n=a#3 v=103
52274 On ch=1 n=a#4 v=108
52600 Par ch=1 c=64 v=63
52616 Par ch=1 c=64 v=0
52710 On ch=1 n=f#4 v=67
52852 Par ch=1 c=64 v=63
52862 Par ch=1 c=64 v=127
53006 On ch=1 n=d#4 v=83
53104 On ch=1 n=f#4 v=0
53262 On ch=1 n=f#4 v=84
53352 On ch=1 n=a#4 v=0
53404 On ch=1 n=a#3 v=0
53512 On ch=1 n=a#3 v=94
53568 On ch=1 n=f#4 v=0
53586 On ch=1 n=d#4 v=0
53750 On ch=1 n=f#4 v=101
54004 On ch=1 n=f#6 v=106
54034 On ch=1 n=d#4 v=80
54128 On ch=1 n=f#4 v=0
54288 On ch=1 n=f#4 v=76
54400 On ch=1 n=a#3 v=0
54540 On ch=1 n=a#3 v=63
54552 On ch=1 n=d#6 v=98
54572 On ch=1 n=f#4 v=0
54704 On ch=1 n=f#6 v=0
54796 On ch=1 n=f#4 v=71
54864 On ch=1 n=d#4 v=0
55076 On ch=1 n=a#5 v=90
55088 On ch=1 n=d#4 v=69
55150 On ch=1 n=f#4 v=0
55220 On ch=1 n=d#6 v=0
55290 On ch=1 n=f#4 v=67
55392 On ch=1 n=a#3 v=0
55558 On ch=1 n=a#3 v=62
55562 On ch=1 n=f#5 v=81
55570 On ch=1 n=f#4 v=0
55658 On ch=1 n=a#5 v=0
55756 On ch=1 n=d#4 v=0
55780 On ch=1 n=f#4 v=67
55826 On ch=1 n=f#5 v=0
56070 On ch=1 n=d#4 v=66
56072 On ch=1 n=d#5 v=68
56094 On ch=1 n=f#4 v=0
56196 On ch=1 n=a#3 v=0
56328 On ch=1 n=d#5 v=0
56334 On ch=1 n=f#4 v=70
56678 On ch=1 n=d#4 v=0
56718 On ch=1 n=f#4 v=0
56750 On ch=1 n=b3 v=96
56772 On ch=1 n=b4 v=70
57200 Par ch=1 c=64 v=63
57226 Par ch=1 c=64 v=0
57278 On ch=1 n=f#5 v=58
57288 On ch=1 n=d#5 v=51
57304 Par ch=1 c=64 v=63
57336 Par ch=1 c=64 v=127
57510 On ch=1 n=d#5 v=0
57514 On ch=1 n=f#5 v=0
57624 On ch=1 n=f#5 v=63
57640 On ch=1 n=d#5 v=57
57768 On ch=1 n=d#5 v=0
57776 On ch=1 n=f#5 v=0
57902 On ch=1 n=f#5 v=70
57906 On ch=1 n=d#5 v=60
57938 On ch=1 n=b3 v=0
58004 On ch=1 n=d#5 v=0
58030 On ch=1 n=f#5 v=0
58140 On ch=1 n=f#5 v=71
58142 On ch=1 n=d#5 v=61
58248 On ch=1 n=d#5 v=0
58254 On ch=1 n=f#5 v=0
58374 On ch=1 n=d#5 v=75
58376 On ch=1 n=f#5 v=74
58472 On ch=1 n=b4 v=0
58532 On ch=1 n=d#5 v=0
58546 On ch=1 n=f#5 v=0
58604 On ch=1 n=d#4 v=91
58636 On ch=1 n=f#5 v=55
58644 On ch=1 n=d#5 v=60
58732 On ch=1 n=d#5 v=0
58744 On ch=1 n=f#5 v=0
58846 On ch=1 n=f#5 v=84
58850 On ch=1 n=d#5 v=82
58972 On ch=1 n=d#5 v=0
58986 On ch=1 n=f#5 v=0
59068 On ch=1 n=f#4 v=104
59088 On ch=1 n=f#5 v=73
59094 On ch=1 n=d#5 v=72
59136 On ch=1 n=d#4 v=0
59182 On ch=1 n=d#5 v=0
59202 On ch=1 n=f#5 v=0
59296 On ch=1 n=f#5 v=75
59300 On ch=1 n=d#5 v=82
59398 On ch=1 n=d#5 v=0
59416 On ch=1 n=f#5 v=0
59520 On ch=1 n=a#4 v=108
59524 On ch=1 n=f#5 v=88
59530 On ch=1 n=d#5 v=70
59588 On ch=1 n=f#4 v=0
59614 On ch=1 n=d#5 v=0
59636 On ch=1 n=f#5 v=0
59744 On ch=1 n=f#5 v=89
59752 On ch=1 n=d#5 v=86
59862 On ch=1 n=d#5 v=0
59886 On ch=1 n=f#5 v=0
59994 On ch=1 n=b4 v=100
59996 On ch=1 n=f#5 v=89
60006 On ch=1 n=d#5 v=83
60074 On ch=1 n=a#4 v=0
60106 On ch=1 n=d#5 v=0
60126 On ch=1 n=f#5 v=0
60246 On ch=1 n=f#5 v=96
60254 On ch=1 n=d#5 v=92
60380 Par ch=1 c=64 v=63
60392 Par ch=1 c=64 v=0
60448 Par ch=1 c=64 v=63
60466 Par ch=1 c=64 v=127
60486 On ch=1 n=d#5 v=0
60500 On ch=1 n=f#5 v=0
60536 On ch=1 n=b3 v=101
60560 On ch=1 n=f#5 v=91
60562 On ch=1 n=d#5 v=88
60706 On ch=1 n=d#5 v=0
60722 On ch=1 n=f#5 v=0
60780 On ch=1 n=b4 v=0
60830 On ch=1 n=f#5 v=100
60840 On ch=1 n=d#5 v=99
60874 On ch=1 n=b3 v=0
61008 On ch=1 n=d#5 v=0
61064 On ch=1 n=f#5 v=0
61196 On ch=1 n=a#3 v=118
61200 On ch=1 n=a#2 v=115
61212 On ch=1 n=f#5 v=90
61220 On ch=1 n=e5 v=65
61358 Par ch=1 c=64 v=63
61370 Par ch=1 c=64 v=0
61504 On ch=1 n=e5 v=0
61510 On ch=1 n=f#5 v=0
61584 On ch=1 n=f#5 v=76
61604 On ch=1 n=e5 v=54
61676 Par ch=1 c=64 v=63
61676 Par ch=1 c=64 v=127
61784 On ch=1 n=e5 v=0
61784 On ch=1 n=f#5 v=0
61862 On ch=1 n=f#5 v=76
61870 On ch=1 n=e5 v=49
62000 On ch=1 n=e5 v=0
62012 On ch=1 n=f#5 v=0
62094 On ch=1 n=f#5 v=76
62110 On ch=1 n=e5 v=57
62214 On ch=1 n=e5 v=0
62238 On ch=1 n=f#5 v=0
62278 On ch=1 n=a#2 v=0
62326 On ch=1 n=f#5 v=74
62334 On ch=1 n=e5 v=66
62416 On ch=1 n=a#3 v=0
62428 On ch=1 n=e5 v=0
62446 On ch=1 n=f#5 v=0
62532 On ch=1 n=f#5 v=86
62544 On ch=1 n=e5 v=70
62644 On ch=1 n=e5 v=0
62678 On ch=1 n=f#5 v=0
62734 On ch=1 n=c#4 v=99
62756 On ch=1 n=f#5 v=69
62778 On ch=1 n=e5 v=55
62848 On ch=1 n=e5 v=0
62882 On ch=1 n=f#5 v=0
62962 On ch=1 n=f#5 v=79
62972 On ch=1 n=e5 v=69
63086 On ch=1 n=e5 v=0
63114 On ch=1 n=f#5 v=0
63204 On ch=1 n=f#4 v=110
63206 On ch=1 n=f#5 v=88
63218 On ch=1 n=e5 v=69
63262 On ch=1 n=c#4 v=0
63308 On ch=1 n=e5 v=0
63340 On ch=1 n=f#5 v=0
63408 On ch=1 n=f#5 v=83
63422 On ch=1 n=e5 v=77
63516 On ch=1 n=e5 v=0
63556 On ch=1 n=f#5 v=0
63646 On ch=1 n=a#4 v=104
63654 On ch=1 n=f#5 v=101
63666 On ch=1 n=e5 v=78
63700 On ch=1 n=f#4 v=0
63740 On ch=1 n=e5 v=0
63768 On ch=1 n=f#5 v=0
63854 On ch=1 n=f#5 v=85
63868 On ch=1 n=e5 v=60
63944 On ch=1 n=e5 v=0
63992 On ch=1 n=f#5 v=0
64098 On ch=1 n=c#5 v=114
64104 On ch=1 n=a#4 v=0
64106 On ch=1 n=f#5 v=95
64116 On ch=1 n=e5 v=78
64196 On ch=1 n=e5 v=0
64222 On ch=1 n=f#5 v=0
64236 On ch=1 n=c#5 v=0
64334 On ch=1 n=f#5 v=94
64338 On ch=1 n=e5 v=82
64478 On ch=1 n=e5 v=0
64518 On ch=1 n=f#5 v=0
64576 On ch=1 n=a#3 v=109
64606 On ch=1 n=e5 v=81
64610 On ch=1 n=f#5 v=92
64660 On ch=1 n=a#3 v=0
64700 On ch=1 n=e5 v=0
64726 On ch=1 n=f#5 v=0
64824 On ch=1 n=f#5 v=110
64832 On ch=1 n=e5 v=93
64930 On ch=1 n=e5 v=0
65000 On ch=1 n=f#5 v=0
65158 On ch=1 n=g5 v=94
65158 On ch=1 n=c#5 v=89
65160 On ch=1 n=a3 v=113
65160 On ch=1 n=e5 v=88
65168 On ch=1 n=a2 v=108
65290 Par ch=1 c=64 v=63
65296 Par ch=1 c=64 v=0
65408 Par ch=1 c=64 v=63
65418 Par ch=1 c=64 v=127
65438 On ch=1 n=c#5 v=0
65458 On ch=1 n=e5 v=0
65464 On ch=1 n=g5 v=0
65500 On ch=1 n=g5 v=51
65510 On ch=1 n=c#5 v=76
65514 On ch=1 n=e5 v=84
65648 On ch=1 n=c#5 v=0
65658 On ch=1 n=g5 v=0
65666 On ch=1 n=e5 v=0
65766 On ch=1 n=g5 v=56
65772 On ch=1 n=c#5 v=67
65776 On ch=1 n=e5 v=76
65890 On ch=1 n=c#5 v=0
65906 On ch=1 n=g5 v=0
65910 On ch=1 n=e5 v=0
66006 On ch=1 n=g5 v=54
66018 On ch=1 n=e5 v=71
66022 On ch=1 n=c#5 v=67
66066 On ch=1 n=a2 v=0
66128 On ch=1 n=c#5 v=0
66136 On ch=1 n=g5 v=0
66146 On ch=1 n=e5 v=0
66236 On ch=1 n=a3 v=0
66246 On ch=1 n=g5 v=54
66248 On ch=1 n=e5 v=64
66254 On ch=1 n=c#5 v=66
66344 On ch=1 n=c#5 v=0
66354 On ch=1 n=g5 v=0
66368 On ch=1 n=e5 v=0
66438 On ch=1 n=g5 v=61
66448 On ch=1 n=e5 v=63
66456 On ch=1 n=c#5 v=76
66586 On ch=1 n=c#5 v=0
66592 On ch=1 n=g5 v=0
66600 On ch=1 n=e5 v=0
66638 On ch=1 n=c#4 v=100
66678 On ch=1 n=e5 v=63
66680 On ch=1 n=g5 v=59
66682 On ch=1 n=c#5 v=62
66770 On ch=1 n=c#5 v=0
66784 On ch=1 n=g5 v=0
66796 On ch=1 n=e5 v=0
66870 On ch=1 n=g5 v=58
66872 On ch=1 n=e5 v=64
66880 On ch=1 n=c#5 v=80
66982 On ch=1 n=c#4 v=0
66996 On ch=1 n=c#5 v=0
67000 On ch=1 n=g5 v=0
67016 On ch=1 n=e5 v=0
67100 On ch=1 n=e4 v=93
67120 On ch=1 n=e5 v=70
67124 On ch=1 n=c#5 v=54
67124 On ch=1 n=g5 v=57
67200 On ch=1 n=c#5 v=0
67222 On ch=1 n=g5 v=0
67230 On ch=1 n=e5 v=0
67328 On ch=1 n=g5 v=60
67328 On ch=1 n=e5 v=72
67336 On ch=1 n=c#5 v=64
67462 On ch=1 n=c#5 v=0
67462 On ch=1 n=g5 v=0
67470 On ch=1 n=e5 v=0
67554 On ch=1 n=g#4 v=108
67562 On ch=1 n=c#5 v=65
67566 On ch=1 n=e5 v=62
67566 On ch=1 n=g5 v=50
67658 On ch=1 n=c#5 v=0
67676 On ch=1 n=g5 v=0
67678 On ch=1 n=e5 v=0
67766 On ch=1 n=e5 v=69
67766 On ch=1 n=g5 v=57
67770 On ch=1 n=c#5 v=80
67800 On ch=1 n=e4 v=0
67886 On ch=1 n=g5 v=0
67888 On ch=1 n=c#5 v=0
67900 On ch=1 n=e5 v=0
67998 On ch=1 n=a4 v=88
68000 On ch=1 n=e5 v=72
68002 On ch=1 n=c#5 v=80
68006 On ch=1 n=g5 v=60
68064 On ch=1 n=g#4 v=0
68094 On ch=1 n=c#5 v=0
68102 On ch=1 n=g5 v=0
68116 On ch=1 n=e5 v=0
68202 On ch=1 n=g5 v=69
68208 On ch=1 n=e5 v=78
68214 On ch=1 n=c#5 v=76
68242 Par ch=1 c=64 v=63
68252 Par ch=1 c=64 v=0
68312 Par ch=1 c=64 v=63
68332 Par ch=1 c=64 v=127
68396 On ch=1 n=g5 v=0
68406 On ch=1 n=c#5 v=0
68416 On ch=1 n=e5 v=0
68446 On ch=1 n=a3 v=102
68468 On ch=1 n=c#5 v=76
68474 On ch=1 n=g5 v=60
68476 On ch=1 n=e5 v=92
68526 On ch=1 n=a4 v=0
68584 On ch=1 n=g5 v=0
68600 On ch=1 n=c#5 v=0
68614 On ch=1 n=e5 v=0
68634 On ch=1 n=a3 v=0
68692 On ch=1 n=e5 v=68
68696 On ch=1 n=c#5 v=87
68698 On ch=1 n=g5 v=80
68870 On ch=1 n=c#5 v=0
68892 On ch=1 n=e5 v=0
69018 On ch=1 n=g5 v=0
69036 On ch=1 n=g#3 v=115
69038 On ch=1 n=g#2 v=110
69040 On ch=1 n=f5 v=84
69042 On ch=1 n=c5 v=78
69146 Par ch=1 c=64 v=63
69154 Par ch=1 c=64 v=0
69270 On ch=1 n=c5 v=0
69294 On ch=1 n=f5 v=0
69300 Par ch=1 c=64 v=63
69308 Par ch=1 c=64 v=127
69350 On ch=1 n=f5 v=84
69352 On ch=1 n=c5 v=68
69486 On ch=1 n=c5 v=0
69502 On ch=1 n=f5 v=0
69572 On ch=1 n=f5 v=78
69580 On ch=1 n=c5 v=69
69664 On ch=1 n=c5 v=0
69696 On ch=1 n=f5 v=0
69780 On ch=1 n=g#2 v=0
69792 On ch=1 n=f5 v=80
69796 On ch=1 n=c5 v=79
69896 On ch=1 n=c5 v=0
69896 On ch=1 n=g#3 v=0
69902 On ch=1 n=f5 v=0
70000 On ch=1 n=f5 v=82
70006 On ch=1 n=c5 v=76
70096 On ch=1 n=c5 v=0
70112 On ch=1 n=f5 v=0
70208 On ch=1 n=f5 v=72
70214 On ch=1 n=c5 v=66
70326 On ch=1 n=c5 v=0
70356 On ch=1 n=f5 v=0
70418 On ch=1 n=c4 v=99
70462 On ch=1 n=f5 v=65
70470 On ch=1 n=c5 v=53
70532 On ch=1 n=c5 v=0
70568 On ch=1 n=f5 v=0
70646 On ch=1 n=f5 v=67
70656 On ch=1 n=c5 v=65
70752 On ch=1 n=c5 v=0
70792 On ch=1 n=f5 v=0
70854 On ch=1 n=f4 v=103
70890 On ch=1 n=c5 v=67
70894 On ch=1 n=f5 v=70
70912 On ch=1 n=c4 v=0
70976 On ch=1 n=c5 v=0
71010 On ch=1 n=f5 v=0
71082 On ch=1 n=f5 v=73
71088 On ch=1 n=c5 v=77
71186 On ch=1 n=c5 v=0
71222 On ch=1 n=f5 v=0
71316 On ch=1 n=f5 v=63
71318 On ch=1 n=g4 v=96
71320 On ch=1 n=c5 v=52
71382 On ch=1 n=f4 v=0
71390 On ch=1 n=c5 v=0
71426 On ch=1 n=f5 v=0
71520 On ch=1 n=f5 v=75
71524 On ch=1 n=c5 v=63
71624 On ch=1 n=c5 v=0
71664 On ch=1 n=f5 v=0
71758 On ch=1 n=g#4 v=88
71766 On ch=1 n=c5 v=52
71770 On ch=1 n=f5 v=66
71792 On ch=1 n=g4 v=0
71844 On ch=1 n=c5 v=0
71884 On ch=1 n=f5 v=0
71984 On ch=1 n=c5 v=59
71986 On ch=1 n=f5 v=57
72164 On ch=1 n=c5 v=0
72188 On ch=1 n=f5 v=0
72244 On ch=1 n=g#3 v=92
72270 On ch=1 n=f5 v=64
72274 On ch=1 n=c5 v=71
72382 On ch=1 n=c5 v=0
72408 On ch=1 n=g#4 v=0
72412 On ch=1 n=f5 v=0
72510 On ch=1 n=g#3 v=0
72514 On ch=1 n=f5 v=92
72514 On ch=1 n=c5 v=83
72640 On ch=1 n=c5 v=0
72732 On ch=1 n=f5 v=0
72908 On ch=1 n=g3 v=102
72914 On ch=1 n=g2 v=101
72926 On ch=1 n=f5 v=80
72928 On ch=1 n=b4 v=69
72934 On ch=1 n=d5 v=79
73074 Par ch=1 c=64 v=63
73082 Par ch=1 c=64 v=0
73240 On ch=1 n=d5 v=0
73242 Par ch=1 c=64 v=63
73248 Par ch=1 c=64 v=127
73250 On ch=1 n=b4 v=0
73262 On ch=1 n=f5 v=0
73314 On ch=1 n=b4 v=57
73336 On ch=1 n=d5 v=61
73336 On ch=1 n=f5 v=73
73442 On ch=1 n=d5 v=0
73466 On ch=1 n=b4 v=0
73470 On ch=1 n=f5 v=0
73590 On ch=1 n=b4 v=59
73600 On ch=1 n=f5 v=59
73604 On ch=1 n=d5 v=63
73712 On ch=1 n=d5 v=0
73720 On ch=1 n=b4 v=0
73744 On ch=1 n=f5 v=0
73864 On ch=1 n=f5 v=57
73874 On ch=1 n=b4 v=32
73876 On ch=1 n=d5 v=52
73914 On ch=1 n=g2 v=0
73942 On ch=1 n=d5 v=0
73980 On ch=1 n=b4 v=0
73982 On ch=1 n=f5 v=0
74048 On ch=1 n=g3 v=0
74114 On ch=1 n=b4 v=54
74132 On ch=1 n=f5 v=51
74136 On ch=1 n=d5 v=52
74202 On ch=1 n=d5 v=0
74218 On ch=1 n=b4 v=0
74236 On ch=1 n=f5 v=0
74362 On ch=1 n=f5 v=47
74364 On ch=1 n=b4 v=30
74378 On ch=1 n=d5 v=39
74444 On ch=1 n=d5 v=0
74456 On ch=1 n=b4 v=0
74484 On ch=1 n=f5 v=0
74574 On ch=1 n=b3 v=80
74616 On ch=1 n=f5 v=36
74636 On ch=1 n=d5 v=25
74696 On ch=1 n=d5 v=0
74712 On ch=1 n=f5 v=0
74814 On ch=1 n=b4 v=27
74824 On ch=1 n=f5 v=51
74832 On ch=1 n=d5 v=42
74908 On ch=1 n=d5 v=0
74918 On ch=1 n=b4 v=0
74948 On ch=1 n=f5 v=0
75006 On ch=1 n=d4 v=92
75034 On ch=1 n=b3 v=0
75052 On ch=1 n=b4 v=41
75062 On ch=1 n=f5 v=41
75064 On ch=1 n=d5 v=49
75132 On ch=1 n=d5 v=0
75140 On ch=1 n=b4 v=0
75152 On ch=1 n=f5 v=0
75240 On ch=1 n=b4 v=42
75250 On ch=1 n=d5 v=60
75260 On ch=1 n=f5 v=43
75334 On ch=1 n=b4 v=0
75340 On ch=1 n=d5 v=0
75360 On ch=1 n=f5 v=0
75466 On ch=1 n=f#4 v=96
75494 On ch=1 n=b4 v=33
75496 On ch=1 n=f5 v=50
75502 On ch=1 n=d5 v=42
75550 On ch=1 n=d4 v=0
75562 On ch=1 n=d5 v=0
75566 On ch=1 n=b4 v=0
75588 On ch=1 n=f5 v=0
75714 On ch=1 n=f5 v=53
75716 On ch=1 n=b4 v=25
75724 On ch=1 n=d5 v=44
75804 On ch=1 n=d5 v=0
75820 On ch=1 n=b4 v=0
75832 On ch=1 n=f5 v=0
75926 On ch=1 n=g4 v=69
75956 On ch=1 n=f5 v=56
75960 On ch=1 n=b4 v=53
75972 On ch=1 n=f#4 v=0
75978 On ch=1 n=d5 v=53
76058 On ch=1 n=d5 v=0
76070 On ch=1 n=f5 v=0
76072 On ch=1 n=b4 v=0
76164 On ch=1 n=b4 v=59
76166 On ch=1 n=f5 v=55
76180 On ch=1 n=d5 v=62
76340 On ch=1 n=d5 v=0
76344 On ch=1 n=b4 v=0
76350 On ch=1 n=f5 v=0
76420 On ch=1 n=g3 v=69
76462 On ch=1 n=b4 v=47
76464 On ch=1 n=f5 v=59
76466 On ch=1 n=d5 v=54
76472 On ch=1 n=g4 v=0
76538 On ch=1 n=b4 v=0
76544 On ch=1 n=d5 v=0
76570 On ch=1 n=f5 v=0
76600 On ch=1 n=g3 v=0
76682 On ch=1 n=b4 v=52
76684 On ch=1 n=f5 v=46
76704 On ch=1 n=d5 v=51
76848 On ch=1 n=b4 v=0
76856 On ch=1 n=f5 v=0
76948 On ch=1 n=d5 v=0
77046 On ch=1 n=f#3 v=82
77054 On ch=1 n=f#2 v=80
77070 On ch=1 n=a#4 v=57
77086 On ch=1 n=d#5 v=65
77176 Par ch=1 c=64 v=63
77234 Par ch=1 c=64 v=127
77328 On ch=1 n=a#4 v=0
77344 On ch=1 n=d#5 v=0
77426 On ch=1 n=a#4 v=52
77434 On ch=1 n=d#5 v=57
77566 On ch=1 n=a#4 v=0
77572 On ch=1 n=d#5 v=0
77688 On ch=1 n=d#5 v=61
77696 On ch=1 n=a#4 v=49
77806 On ch=1 n=d#5 v=0
77816 On ch=1 n=a#4 v=0
77944 On ch=1 n=a#4 v=40
77952 On ch=1 n=d#5 v=62
78070 On ch=1 n=f#2 v=0
78074 On ch=1 n=d#5 v=0
78078 On ch=1 n=a#4 v=0
78154 On ch=1 n=f#3 v=0
78204 On ch=1 n=a#4 v=59
78216 On ch=1 n=d#5 v=60
78322 On ch=1 n=a#4 v=0
78332 On ch=1 n=d#5 v=0
78430 On ch=1 n=a#4 v=54
78432 On ch=1 n=d#5 v=47
78548 On ch=1 n=a#4 v=0
78576 On ch=1 n=d#5 v=0
78660 On ch=1 n=a#3 v=58
78690 On ch=1 n=d#5 v=44
78690 On ch=1 n=a#4 v=48
78796 On ch=1 n=a#4 v=0
78808 On ch=1 n=d#5 v=0
78894 On ch=1 n=a#4 v=39
78900 On ch=1 n=d#5 v=57
79018 On ch=1 n=a#4 v=0
79042 On ch=1 n=d#5 v=0
79160 On ch=1 n=d#4 v=67
79168 On ch=1 n=a#4 v=44
79180 On ch=1 n=d#5 v=48
79278 On ch=1 n=a#4 v=0
79304 On ch=1 n=d#5 v=0
79394 On ch=1 n=d#5 v=52
79394 On ch=1 n=a#4 v=29
79416 On ch=1 n=a#3 v=0
79502 On ch=1 n=a#4 v=0
79532 On ch=1 n=d#5 v=0
79640 On ch=1 n=d#5 v=46
79644 On ch=1 n=f4 v=63
79648 On ch=1 n=a#4 v=35
79688 On ch=1 n=d#4 v=0
79740 On ch=1 n=a#4 v=0
79772 On ch=1 n=d#5 v=0
79838 On ch=1 n=a#4 v=28
79850 On ch=1 n=d#5 v=48
80008 On ch=1 n=a#4 v=0
80012 On ch=1 n=d#5 v=0
80144 On ch=1 n=a#4 v=44
80166 On ch=1 n=d#5 v=50
80174 On ch=1 n=f#4 v=56
80266 On ch=1 n=f4 v=0
80288 On ch=1 n=d#5 v=0
80288 On ch=1 n=a#4 v=0
80380 On ch=1 n=f#4 v=0
80430 On ch=1 n=a#4 v=27
80440 On ch=1 n=d#5 v=51
80582 On ch=1 n=d#5 v=0
80604 On ch=1 n=a#4 v=0
80744 On ch=1 n=f#3 v=35
80754 On ch=1 n=a#4 v=48
80782 On ch=1 n=d#5 v=53
80912 On ch=1 n=d#5 v=0
80918 On ch=1 n=a#4 v=0
81088 On ch=1 n=f#3 v=0
81108 On ch=1 n=d#5 v=60
81112 On ch=1 n=a#4 v=30
81196 On ch=1 n=d#5 v=0
81200 On ch=1 n=a#4 v=0
81700 On ch=1 n=a#4 v=49
81702 On ch=1 n=e4 v=51
81714 On ch=1 n=d#5 v=76
81726 On ch=1 n=f#3 v=33
81748 On ch=1 n=f#4 v=32
81890 Par ch=1 c=64 v=63
81980 Par ch=1 c=64 v=127
82118 On ch=1 n=c#5 v=74
82182 On ch=1 n=d#5 v=0
82324 On ch=1 n=c#5 v=0
82398 On ch=1 n=c#5 v=77
82542 On ch=1 n=c#5 v=0
82644 On ch=1 n=c#5 v=84
82758 On ch=1 n=c#5 v=0
82818 On ch=1 n=e4 v=0
82882 On ch=1 n=c#5 v=76
82888 On ch=1 n=d#4 v=70
82910 On ch=1 n=a#4 v=0
83008 Par ch=1 c=64 v=63
83100 Par ch=1 c=64 v=127
83142 On ch=1 n=b4 v=68
83314 On ch=1 n=c#5 v=0
83336 On ch=1 n=b4 v=0
83394 On ch=1 n=b4 v=88
83532 On ch=1 n=b4 v=0
83592 On ch=1 n=b4 v=81
83650 On ch=1 n=d#4 v=0
83658 On ch=1 n=f#3 v=0
83690 On ch=1 n=b4 v=0
83708 On ch=1 n=f#4 v=0
83918 On ch=1 n=f#4 v=32
83920 On ch=1 n=c#4 v=51
83926 On ch=1 n=f#3 v=36
83936 On ch=1 n=a#4 v=60
83948 On ch=1 n=f#5 v=77
84096 Par ch=1 c=64 v=63
84134 Par ch=1 c=64 v=0
84318 Par ch=1 c=64 v=63
84326 On ch=1 n=e5 v=66
84334 Par ch=1 c=64 v=127
84396 On ch=1 n=f#5 v=0
84496 On ch=1 n=e5 v=0
84608 On ch=1 n=e5 v=70
84724 On ch=1 n=e5 v=0
84846 On ch=1 n=e5 v=68
84970 On ch=1 n=e5 v=0
84998 On ch=1 n=a#4 v=0
85102 On ch=1 n=e5 v=55
85110 On ch=1 n=b4 v=51
85110 On ch=1 n=b3 v=50
85146 Par ch=1 c=64 v=63
85148 On ch=1 n=c#4 v=0
85178 Par ch=1 c=64 v=0
85294 Par ch=1 c=64 v=63
85320 Par ch=1 c=64 v=127
85354 On ch=1 n=d#5 v=77
85378 On ch=1 n=e5 v=0
85492 On ch=1 n=d#5 v=0
85596 On ch=1 n=d#5 v=67
85746 On ch=1 n=d#5 v=0
85802 On ch=1 n=f#3 v=0
85832 On ch=1 n=f#4 v=0
85842 On ch=1 n=b3 v=0
85868 On ch=1 n=d#5 v=76
85934 On ch=1 n=b4 v=0
85960 On ch=1 n=d#5 v=0
86206 On ch=1 n=d#5 v=53
86214 On ch=1 n=f#4 v=47
86220 On ch=1 n=f#3 v=35
86226 On ch=1 n=a#4 v=51
86246 On ch=1 n=e4 v=19
86384 Par ch=1 c=64 v=63
86506 Par ch=1 c=64 v=127
86548 On ch=1 n=c#5 v=76
86636 On ch=1 n=d#5 v=0
86728 On ch=1 n=c#5 v=0
86796 On ch=1 n=c#5 v=80
86928 On ch=1 n=c#5 v=0
87044 On ch=1 n=c#5 v=85
87150 On ch=1 n=e4 v=0
87176 On ch=1 n=c#5 v=0
87182 On ch=1 n=a#4 v=0
87304 On ch=1 n=c#5 v=76
87324 On ch=1 n=d4 v=51
87572 On ch=1 n=b4 v=65
87576 Par ch=1 c=64 v=63
87636 Par ch=1 c=64 v=127
87668 On ch=1 n=c#5 v=0
87802 On ch=1 n=b4 v=0
87876 On ch=1 n=b4 v=72
88028 On ch=1 n=b4 v=0
88144 On ch=1 n=b4 v=51
88206 On ch=1 n=f#3 v=0
88222 On ch=1 n=d4 v=0
88246 On ch=1 n=b4 v=0
88290 On ch=1 n=f#4 v=0
88500 On ch=1 n=f#3 v=32
88512 On ch=1 n=c#4 v=42
88554 On ch=1 n=f#4 v=44
88586 On ch=1 n=f#5 v=65
88586 On ch=1 n=a#4 v=51
88742 Par ch=1 c=64 v=63
88818 Par ch=1 c=64 v=0
88890 Par ch=1 c=64 v=63
88936 Par ch=1 c=64 v=127
89008 On ch=1 n=e5 v=42
89028 On ch=1 n=f#5 v=0
89166 On ch=1 n=e5 v=0
89302 On ch=1 n=e5 v=47
89392 On ch=1 n=e5 v=0
89578 On ch=1 n=e5 v=34
89794 On ch=1 n=e5 v=0
89804 On ch=1 n=a#4 v=0
89932 On ch=1 n=e5 v=48
89936 On ch=1 n=b4 v=43
89944 On ch=1 n=b3 v=21
89980 On ch=1 n=c#4 v=0
90092 Par ch=1 c=64 v=63
90158 Par ch=1 c=64 v=127
90292 On ch=1 n=d5 v=53
90434 On ch=1 n=e5 v=0
90484 On ch=1 n=d5 v=0
90576 On ch=1 n=d5 v=48
90696 On ch=1 n=f#3 v=0
90718 On ch=1 n=d5 v=0
90884 On ch=1 n=f#4 v=0
90916 On ch=1 n=d5 v=48
91050 On ch=1 n=b4 v=0
91122 On ch=1 n=d5 v=0
91420 On ch=1 n=g3 v=29
91448 On ch=1 n=g4 v=10
91468 On ch=1 n=d5 v=47
91474 On ch=1 n=b4 v=35
91496 On ch=1 n=b3 v=0
91582 Par ch=1 c=64 v=63
91688 Par ch=1 c=64 v=127
91846 On ch=1 n=d5 v=0
91978 On ch=1 n=d5 v=47
92126 On ch=1 n=b4 v=0
92132 On ch=1 n=d5 v=0
92288 On ch=1 n=d5 v=48
92402 On ch=1 n=d5 v=0
92544 On ch=1 n=d5 v=40
92656 On ch=1 n=d5 v=0
92772 On ch=1 n=d5 v=40
92864 On ch=1 n=d5 v=0
93002 On ch=1 n=d5 v=41
93090 On ch=1 n=d5 v=0
93234 On ch=1 n=d5 v=37
93314 On ch=1 n=d5 v=0
93460 On ch=1 n=d5 v=39
93552 On ch=1 n=g4 v=0
93564 On ch=1 n=d5 v=0
93636 On ch=1 n=g3 v=0
93718 Par ch=1 c=64 v=63
93720 On ch=1 n=d5 v=45
93744 On ch=1 n=c5 v=27
93784 Par ch=1 c=64 v=127
93826 On ch=1 n=d5 v=0
93838 On ch=1 n=c5 v=0
93948 On ch=1 n=d5 v=40
93962 On ch=1 n=c5 v=22
94050 On ch=1 n=d5 v=0
94058 On ch=1 n=c5 v=0
94188 On ch=1 n=d5 v=43
94198 On ch=1 n=c5 v=30
94274 On ch=1 n=c5 v=0
94284 On ch=1 n=d5 v=0
94410 On ch=1 n=d5 v=53
94410 On ch=1 n=c5 v=37
94492 On ch=1 n=c5 v=0
94494 On ch=1 n=d5 v=0
94604 Par ch=1 c=64 v=63
94634 On ch=1 n=d5 v=53
94642 On ch=1 n=c5 v=38
94682 Par ch=1 c=64 v=127
94726 On ch=1 n=c5 v=0
94740 On ch=1 n=d5 v=0
94746 Par ch=1 c=64 v=63
94792 Par ch=1 c=64 v=0
94856 On ch=1 n=d3 v=63
94864 On ch=1 n=d5 v=62
94868 On ch=1 n=c5 v=52
94944 On ch=1 n=c5 v=0
94958 On ch=1 n=d5 v=0
95000 On ch=1 n=e3 v=57
95050 On ch=1 n=d3 v=0
95076 On ch=1 n=d5 v=59
95084 On ch=1 n=c5 v=38
95090 On ch=1 n=f#3 v=50
95146 On ch=1 n=c5 v=0
95160 On ch=1 n=e3 v=0
95162 On ch=1 n=d5 v=0
95184 On ch=1 n=g3 v=55
95260 On ch=1 n=f#3 v=0
95286 On ch=1 n=c5 v=60
95290 On ch=1 n=g3 v=0
95298 On ch=1 n=d5 v=47
95316 On ch=1 n=a3 v=68
95364 On ch=1 n=c5 v=0
95370 On ch=1 n=d5 v=0
95420 On ch=1 n=f#3 v=66
95446 On ch=1 n=a3 v=0
95522 On ch=1 n=d5 v=54
95536 On ch=1 n=b4 v=52
95538 On ch=1 n=g3 v=68
95552 On ch=1 n=f#3 v=0
95618 Par ch=1 c=64 v=63
95634 Par ch=1 c=64 v=127
95642 On ch=1 n=b4 v=0
95644 On ch=1 n=d5 v=0
95758 On ch=1 n=b4 v=52
95762 On ch=1 n=d5 v=58
95792 Par ch=1 c=64 v=63
95802 Par ch=1 c=64 v=0
95850 On ch=1 n=b4 v=0
95858 On ch=1 n=d5 v=0
95976 On ch=1 n=b4 v=53
95980 On ch=1 n=d5 v=59
96034 Par ch=1 c=64 v=63
96044 Par ch=1 c=64 v=127
96050 On ch=1 n=b4 v=0
96058 On ch=1 n=d5 v=0
96180 On ch=1 n=b4 v=64
96188 On ch=1 n=d5 v=65
96204 On ch=1 n=g3 v=0
96278 On ch=1 n=b4 v=0
96292 On ch=1 n=d5 v=0
96352 Par ch=1 c=64 v=63
96366 Par ch=1 c=64 v=0
96410 On ch=1 n=d5 v=70
96424 On ch=1 n=c5 v=65
96478 On ch=1 n=c5 v=0
96500 On ch=1 n=d5 v=0
96632 On ch=1 n=d3 v=82
96648 On ch=1 n=d5 v=76
96658 On ch=1 n=c5 v=65
96708 On ch=1 n=c5 v=0
96732 On ch=1 n=d5 v=0
96742 On ch=1 n=e3 v=82
96788 On ch=1 n=d3 v=0
96848 On ch=1 n=f#3 v=88
96854 On ch=1 n=d5 v=76
96860 On ch=1 n=c5 v=68
96896 On ch=1 n=e3 v=0
96914 On ch=1 n=c5 v=0
96938 On ch=1 n=d5 v=0
96970 On ch=1 n=g3 v=80
96988 On ch=1 n=f#3 v=0
97064 On ch=1 n=d5 v=76
97066 On ch=1 n=c5 v=66
97078 On ch=1 n=a3 v=68
97084 On ch=1 n=g3 v=0
97122 On ch=1 n=c5 v=0
97162 On ch=1 n=d5 v=0
97172 On ch=1 n=f#3 v=88
97192 On ch=1 n=a3 v=0
97288 On ch=1 n=d5 v=70
97290 On ch=1 n=b4 v=64
97298 On ch=1 n=f#3 v=0
97302 On ch=1 n=g3 v=68
97306 Par ch=1 c=64 v=63
97320 Par ch=1 c=64 v=127
97422 On ch=1 n=d5 v=0
97434 On ch=1 n=b4 v=0
97498 On ch=1 n=g3 v=0
97542 On ch=1 n=d5 v=71
97544 On ch=1 n=d3 v=63
97550 Par ch=1 c=64 v=63
97558 On ch=1 n=c5 v=65
97562 Par ch=1 c=64 v=0
97634 On ch=1 n=c5 v=0
97650 On ch=1 n=e3 v=74
97652 On ch=1 n=d5 v=0
97666 Par ch=1 c=64 v=63
97678 On ch=1 n=d3 v=0
97684 Par ch=1 c=64 v=127
97720 On ch=1 n=d5 v=80
97734 On ch=1 n=c5 v=60
97738 On ch=1 n=f#3 v=90
97792 On ch=1 n=e3 v=0
97796 On ch=1 n=c5 v=0
97824 On ch=1 n=d5 v=0
97828 Par ch=1 c=64 v=63
97844 Par ch=1 c=64 v=0
97846 On ch=1 n=g3 v=92
97890 On ch=1 n=f#3 v=0
97910 On ch=1 n=d5 v=76
97914 On ch=1 n=c5 v=79
97942 On ch=1 n=a3 v=85
97964 On ch=1 n=g3 v=0
98004 On ch=1 n=c5 v=0
98018 On ch=1 n=d5 v=0
98036 On ch=1 n=f#3 v=98
98058 On ch=1 n=a3 v=0
98126 On ch=1 n=d5 v=88
98134 On ch=1 n=b4 v=78
98140 On ch=1 n=g3 v=85
98156 Par ch=1 c=64 v=63
98166 On ch=1 n=f#3 v=0
98166 Par ch=1 c=64 v=127
98248 On ch=1 n=b4 v=0
98272 On ch=1 n=d5 v=0
98286 On ch=1 n=g3 v=0
98362 On ch=1 n=d3 v=69
98378 On ch=1 n=d5 v=84
98386 On ch=1 n=c5 v=76
98422 Par ch=1 c=64 v=63
98442 Par ch=1 c=64 v=0
98462 On ch=1 n=e3 v=72
98490 On ch=1 n=c5 v=0
98496 On ch=1 n=d3 v=0
98500 On ch=1 n=d5 v=0
98546 On ch=1 n=f#3 v=87
98588 On ch=1 n=d5 v=78
98592 On ch=1 n=c5 v=71
98612 On ch=1 n=e3 v=0
98646 On ch=1 n=g3 v=90
98658 On ch=1 n=c5 v=0
98676 On ch=1 n=d5 v=0
98694 On ch=1 n=f#3 v=0
98748 On ch=1 n=a3 v=84
98768 On ch=1 n=g3 v=0
98782 On ch=1 n=d5 v=93
98786 On ch=1 n=c5 v=92
98852 On ch=1 n=f#3 v=99
98854 On ch=1 n=c5 v=0
98870 On ch=1 n=a3 v=0
98878 On ch=1 n=d5 v=0
98994 On ch=1 n=f#3 v=0
98994 On ch=1 n=g3 v=98
99008 On ch=1 n=d5 v=100
99012 On ch=1 n=b4 v=87
99032 Par ch=1 c=64 v=63
99040 Par ch=1 c=64 v=127
99090 On ch=1 n=d5 v=0
99096 On ch=1 n=b4 v=0
99252 On ch=1 n=g4 v=68
99254 On ch=1 n=g3 v=0
99354 On ch=1 n=a4 v=84
99370 On ch=1 n=g4 v=0
99446 Par ch=1 c=64 v=63
99458 On ch=1 n=b4 v=84
99490 Par ch=1 c=64 v=0
99522 On ch=1 n=a4 v=0
99554 On ch=1 n=c5 v=88
99610 On ch=1 n=b4 v=0
99640 On ch=1 n=d5 v=93
99670 On ch=1 n=c5 v=0
99744 On ch=1 n=c5 v=90
99816 On ch=1 n=d5 v=0
99870 On ch=1 n=b4 v=91
99930 On ch=1 n=c5 v=0
99938 Par ch=1 c=64 v=63
99956 Par ch=1 c=64 v=127
100090 On ch=1 n=g5 v=78
100106 On ch=1 n=b4 v=0
100202 Par ch=1 c=64 v=63
100206 On ch=1 n=a5 v=80
100250 On ch=1 n=g5 v=0
100250 Par ch=1 c=64 v=0
100318 On ch=1 n=b5 v=90
100396 On ch=1 n=a5 v=0
100418 On ch=1 n=c6 v=102
100478 On ch=1 n=b5 v=0
100512 On ch=1 n=d6 v=94
100556 On ch=1 n=c6 v=0
100604 On ch=1 n=c6 v=87
100636 On ch=1 n=d6 v=0
100748 On ch=1 n=b5 v=94
100794 On ch=1 n=c6 v=0
100950 Par ch=1 c=64 v=63
100976 On ch=1 n=g6 v=94
100978 Par ch=1 c=64 v=127
101026 On ch=1 n=b5 v=0
101130 On ch=1 n=a6 v=98
101182 On ch=1 n=g6 v=0
101262 On ch=1 n=b6 v=98
101320 On ch=1 n=a6 v=0
101374 On ch=1 n=c7 v=99
101430 On ch=1 n=b6 v=0
101480 On ch=1 n=d7 v=94
101528 On ch=1 n=c7 v=0
101584 On ch=1 n=c7 v=96
101662 On ch=1 n=d7 v=0
101738 On ch=1 n=b6 v=102
101836 On ch=1 n=c7 v=0
102124 On ch=1 n=a6 v=101
102128 Par ch=1 c=64 v=63
102166 Par ch=1 c=64 v=0
102230 On ch=1 n=b6 v=0
102366 Par ch=1 c=64 v=63
102386 Par ch=1 c=64 v=127
102506 On ch=1 n=g6 v=86
102534 On ch=1 n=a6 v=0
102632 Par ch=1 c=64 v=63
102684 Par ch=1 c=64 v=127
102782 On ch=1 n=f#6 v=99
102830 On ch=1 n=g6 v=0
103048 On ch=1 n=f#6 v=0
103072 On ch=1 n=g4 v=71
103166 On ch=1 n=f6 v=85
103306 Par ch=1 c=64 v=63
103412 Par ch=1 c=64 v=127
103610 On ch=1 n=b5 v=61
103812 On ch=1 n=b5 v=0
103830 On ch=1 n=a#5 v=65
103952 On ch=1 n=a#5 v=0
103976 On ch=1 n=b5 v=65
104098 On ch=1 n=c#6 v=84
104102 On ch=1 n=b5 v=0
104196 On ch=1 n=c#6 v=0
104208 On ch=1 n=d6 v=64
104328 On ch=1 n=c#6 v=86
104350 On ch=1 n=d6 v=0
104452 On ch=1 n=c#6 v=0
104472 On ch=1 n=d6 v=86
104608 Par ch=1 c=64 v=63
104680 Par ch=1 c=64 v=127
104742 On ch=1 n=b4 v=63
104760 On ch=1 n=c#6 v=80
104820 On ch=1 n=d6 v=0
104844 On ch=1 n=a#4 v=74
104848 On ch=1 n=b4 v=0
104972 On ch=1 n=b4 v=69
104978 On ch=1 n=a#4 v=0
105020 On ch=1 n=b5 v=76
105030 On ch=1 n=c#6 v=0
105100 On ch=1 n=b4 v=0
105128 On ch=1 n=c#5 v=66
105230 On ch=1 n=d5 v=83
105234 On ch=1 n=c#5 v=0
105252 On ch=1 n=a#5 v=88
105310 On ch=1 n=b5 v=0
105332 On ch=1 n=c#5 v=77
105344 On ch=1 n=d5 v=0
105468 On ch=1 n=d5 v=86
105472 Par ch=1 c=64 v=63
105498 On ch=1 n=c#5 v=0
105498 Par ch=1 c=64 v=0
105520 On ch=1 n=b5 v=84
105574 On ch=1 n=a#5 v=0
105600 Par ch=1 c=64 v=63
105622 Par ch=1 c=64 v=127
105730 On ch=1 n=f6 v=0
105804 On ch=1 n=c#5 v=84
105810 On ch=1 n=a5 v=94
105846 On ch=1 n=d5 v=0
105858 On ch=1 n=b5 v=0
105900 On ch=1 n=a5 v=0
105936 On ch=1 n=c#5 v=0
106116 On ch=1 n=b5 v=82
106120 On ch=1 n=g5 v=76
106128 On ch=1 n=b4 v=65
106224 Par ch=1 c=64 v=63
106348 Par ch=1 c=64 v=127
106440 On ch=1 n=b4 v=0
106446 On ch=1 n=a4 v=59
106446 On ch=1 n=f#5 v=93
106490 On ch=1 n=g5 v=0
106550 On ch=1 n=g4 v=0
106810 On ch=1 n=g4 v=64
106826 On ch=1 n=f5 v=73
106856 On ch=1 n=f#5 v=0
106862 Par ch=1 c=64 v=63
106884 On ch=1 n=a4 v=0
106950 Par ch=1 c=64 v=127
107210 On ch=1 n=b5 v=0
107262 On ch=1 n=b4 v=45
107298 On ch=1 n=d6 v=60
107400 Par ch=1 c=64 v=63
107496 Par ch=1 c=64 v=127
107644 On ch=1 n=c#6 v=80
107648 On ch=1 n=a#4 v=62
107678 On ch=1 n=b4 v=0
107698 On ch=1 n=d6 v=0
107762 Par ch=1 c=64 v=63
107904 Par ch=1 c=64 v=127
107954 On ch=1 n=b4 v=65
107956 On ch=1 n=b5 v=88
108002 On ch=1 n=c#6 v=0
108034 On ch=1 n=a#4 v=0
108090 On ch=1 n=g4 v=0
108152 On ch=1 n=f5 v=0
108308 On ch=1 n=b5 v=0
108386 On ch=1 n=c#5 v=39
108390 On ch=1 n=f#5 v=39
108394 On ch=1 n=a#5 v=75
108426 On ch=1 n=f#4 v=53
108480 On ch=1 n=b4 v=0
108510 Par ch=1 c=64 v=63
108556 Par ch=1 c=64 v=0
108720 Par ch=1 c=64 v=63
108774 Par ch=1 c=64 v=127
109104 On ch=1 n=f#4 v=0
109112 Par ch=1 c=64 v=63
109116 On ch=1 n=f#5 v=0
109116 On ch=1 n=c#5 v=0
109118 On ch=1 n=a#5 v=0
109140 Par ch=1 c=64 v=0
110028 On ch=1 n=b3 v=101
110030 On ch=1 n=b2 v=103
110036 On ch=1 n=d6 v=94
110038 On ch=1 n=f#5 v=103
110042 On ch=1 n=f#6 v=99
110044 On ch=1 n=b5 v=88
110336 Par ch=1 c=64 v=63
110340 Par ch=1 c=64 v=127
110536 On ch=1 n=b2 v=0
110726 On ch=1 n=b3 v=0
110894 On ch=1 n=d4 v=71
110908 On ch=1 n=d3 v=77
111030 Par ch=1 c=64 v=63
111076 Par ch=1 c=64 v=127
111258 On ch=1 n=f#6 v=0
111368 On ch=1 n=f#5 v=0
111380 On ch=1 n=d3 v=0
111418 On ch=1 n=d6 v=0
111466 On ch=1 n=e6 v=79
111512 On ch=1 n=d4 v=0
111574 On ch=1 n=b5 v=0
111668 On ch=1 n=d6 v=81
111698 On ch=1 n=e6 v=0
111838 On ch=1 n=d6 v=0
111940 On ch=1 n=f#3 v=49
111952 On ch=1 n=f#4 v=31
111974 On ch=1 n=c#6 v=72
111998 On ch=1 n=a#5 v=42
112122 Par ch=1 c=64 v=63
112154 Par ch=1 c=64 v=0
112878 On ch=1 n=a#5 v=0
112878 On ch=1 n=f#3 v=0
112896 On ch=1 n=c#6 v=0
112930 On ch=1 n=f#4 v=0
113906 On ch=1 n=d6 v=37
113906 On ch=1 n=b4 v=38
113912 On ch=1 n=g#5 v=34
113928 On ch=1 n=f4 v=22
113948 Par ch=1 c=64 v=63
113968 Par ch=1 c=64 v=127
114138 On ch=1 n=g#5 v=0
114316 On ch=1 n=d6 v=0
114480 On ch=1 n=b4 v=0
114480 On ch=1 n=b5 v=54
114494 On ch=1 n=d5 v=29
114614 Par ch=1 c=64 v=63
114620 On ch=1 n=b5 v=0
114640 On ch=1 n=d5 v=0
114650 On ch=1 n=d6 v=57
114652 On ch=1 n=g#5 v=50
114654 On ch=1 n=b4 v=45
114750 Par ch=1 c=64 v=127
115178 On ch=1 n=g#5 v=0
115252 On ch=1 n=b4 v=0
115258 On ch=1 n=d6 v=0
115260 On ch=1 n=f4 v=0
115272 On ch=1 n=b5 v=59
115272 On ch=1 n=d5 v=44
115414 On ch=1 n=b5 v=0
115456 On ch=1 n=f#5 v=42
115458 On ch=1 n=a#5 v=61
115466 On ch=1 n=d5 v=0
115466 On ch=1 n=c#5 v=45
115478 On ch=1 n=f#4 v=29
115492 Par ch=1 c=64 v=63
115540 Par ch=1 c=64 v=0
116242 On ch=1 n=f#5 v=0
116246 On ch=1 n=f#4 v=0
116256 On ch=1 n=a#5 v=0
116270 On ch=1 n=c#5 v=0
117352 On ch=1 n=f#5 v=61
117474 Par ch=1 c=64 v=63
117496 On ch=1 n=f#5 v=0
117522 Par ch=1 c=64 v=127
118162 On ch=1 n=f#5 v=41
118208 Par ch=1 c=64 v=63
118376 Par ch=1 c=64 v=127
118540 On ch=1 n=f#5 v=0
118616 Par ch=1 c=64 v=63
119112 Par ch=1 c=64 v=127
119156 On ch=1 n=b5 v=34
119336 On ch=1 n=b5 v=0
120508 Par ch=1 c=64 v=63
120834 Par ch=1 c=64 v=0
120918 Par ch=1 c=64 v=63
121258 Par ch=1 c=64 v=127
121294 On ch=1 n=f#4 v=37
121310 On ch=1 n=b4 v=43
121316 On ch=1 n=d4 v=39
121330 On ch=1 n=d3 v=9
121496 On ch=1 n=f#4 v=0
121548 On ch=1 n=d4 v=0
121598 On ch=1 n=b4 v=0
121682 On ch=1 n=d3 v=0
121776 On ch=1 n=b4 v=63
121894 On ch=1 n=b4 v=0
122098 On ch=1 n=b4 v=50
122102 On ch=1 n=d5 v=81
122104 On ch=1 n=b3 v=40
122110 On ch=1 n=b2 v=49
122124 Par ch=1 c=64 v=63
122250 Par ch=1 c=64 v=127
122288 On ch=1 n=b4 v=0
122362 On ch=1 n=d5 v=0
122370 On ch=1 n=b2 v=0
122436 On ch=1 n=d5 v=91
122444 On ch=1 n=b3 v=0
122548 On ch=1 n=d5 v=0
122852 On ch=1 n=f#3 v=45
122852 On ch=1 n=f#5 v=75
122852 On ch=1 n=a#4 v=49
122862 On ch=1 n=f#4 v=39
122874 On ch=1 n=c#5 v=48
122924 Par ch=1 c=64 v=63
122986 Par ch=1 c=64 v=0
123638 On ch=1 n=f#4 v=0
123646 On ch=1 n=c#5 v=0
123646 On ch=1 n=a#4 v=0
123654 On ch=1 n=f#3 v=0
123662 On ch=1 n=f#5 v=0
124746 On ch=1 n=b4 v=52
124752 On ch=1 n=d4 v=31
124754 On ch=1 n=f#4 v=30
124766 On ch=1 n=d3 v=28
124778 Par ch=1 c=64 v=63
124808 Par ch=1 c=64 v=127
124988 On ch=1 n=f#4 v=0
124996 On ch=1 n=d4 v=0
124998 On ch=1 n=b4 v=0
125030 On ch=1 n=d3 v=0
125166 On ch=1 n=b4 v=57
125266 On ch=1 n=b4 v=0
125528 Par ch=1 c=64 v=63
125538 On ch=1 n=d5 v=60
125538 On ch=1 n=b4 v=44
125546 On ch=1 n=b3 v=32
125570 On ch=1 n=b2 v=32
125644 Par ch=1 c=64 v=127
125734 On ch=1 n=b4 v=0
125766 On ch=1 n=b2 v=0
125794 On ch=1 n=d5 v=0
125844 On ch=1 n=b3 v=0
125956 On ch=1 n=d5 v=47
126040 On ch=1 n=d5 v=0
126434 On ch=1 n=a#4 v=37
126436 On ch=1 n=f#3 v=26
126458 On ch=1 n=f#5 v=45
126462 On ch=1 n=f#4 v=17
126488 On ch=1 n=c#5 v=34
126508 Par ch=1 c=64 v=63
126582 Par ch=1 c=64 v=0
126612 Par ch=1 c=64 v=63
126698 Par ch=1 c=64 v=127
126840 On ch=1 n=f#4 v=0
126854 On ch=1 n=f#3 v=0
126862 On ch=1 n=c#5 v=0
126872 On ch=1 n=a#4 v=0
126886 On ch=1 n=f#5 v=0
127538 Par ch=1 c=64 v=63
127620 Par ch=1 c=64 v=0
128504 Par ch=1 c=64 v=63
128612 Par ch=1 c=64 v=127
128626 On ch=1 n=b4 v=38
128640 On ch=1 n=f#4 v=20
128672 On ch=1 n=d3 v=21
128678 On ch=1 n=d4 v=10
128842 On ch=1 n=b4 v=0
128854 On ch=1 n=f#4 v=0
128860 On ch=1 n=d3 v=0
128880 On ch=1 n=d4 v=0
129138 On ch=1 n=b4 v=27
129370 On ch=1 n=b4 v=0
129632 Par ch=1 c=64 v=63
129636 On ch=1 n=d5 v=50
129644 On ch=1 n=b4 v=18
129666 On ch=1 n=b2 v=35
129668 On ch=1 n=b3 v=16
129722 Par ch=1 c=64 v=127
129818 On ch=1 n=b4 v=0
129858 On ch=1 n=b2 v=0
129866 On ch=1 n=d5 v=0
129928 On ch=1 n=b3 v=0
130212 On ch=1 n=d5 v=42
130402 On ch=1 n=d5 v=0
130998 On ch=1 n=f#3 v=17
131012 On ch=1 n=f#5 v=42
131016 On ch=1 n=a#4 v=7
131022 On ch=1 n=f#4 v=10
131026 On ch=1 n=c#5 v=28
131132 Par ch=1 c=64 v=63
131292 Par ch=1 c=64 v=0
132054 On ch=1 n=c#5 v=0
132072 On ch=1 n=f#4 v=0
132072 On ch=1 n=f#5 v=0
132080 On ch=1 n=f#3 v=0
132082 On ch=1 n=a#4 v=0
133216 On ch=1 n=c#5 v=30
133216 On ch=1 n=f#3 v=19
133218 On ch=1 n=f#5 v=46
133224 On ch=1 n=a#4 v=10
133226 On ch=1 n=f#4 v=20
134296 On ch=1 n=c#5 v=0
134330 On ch=1 n=f#5 v=0
134334 On ch=1 n=a#4 v=0
134336 On ch=1 n=f#3 v=0
134340 On ch=1 n=f#4 v=0
135368 Par ch=1 c=64 v=63
135732 On ch=1 n=c#5 v=36
135736 On ch=1 n=a#4 v=14
135740 On ch=1 n=f#5 v=47
135750 On ch=1 n=f#3 v=23
135752 On ch=1 n=f#4 v=25
135828 Par ch=1 c=64 v=127
136280 On ch=1 n=c#5 v=0
136306 On ch=1 n=f#3 v=0
136330 On ch=1 n=f#5 v=0
136352 On ch=1 n=a#4 v=0
136370 On ch=1 n=f#4 v=0
137028 On ch=1 n=f#5 v=39
137486 On ch=1 n=f#5 v=0
137946 On ch=1 n=f#5 v=52
138882 On ch=1 n=f#5 v=0
139176 On ch=1 n=f#5 v=34
139578 On ch=1 n=f#5 v=0
141132 On ch=1 n=f#5 v=47
141150 On ch=1 n=d4 v=35
141746 Par ch=1 c=64 v=63
141778 On ch=1 n=a4 v=36
141922 Par ch=1 c=64 v=127
142194 On ch=1 n=f#4 v=43
142408 On ch=1 n=a4 v=0
142544 On ch=1 n=f#5 v=0
142566 On ch=1 n=a4 v=39
142708 On ch=1 n=d4 v=0
142892 On ch=1 n=d4 v=41
142898 On ch=1 n=f#5 v=75
142978 On ch=1 n=f#4 v=0
142998 On ch=1 n=a4 v=0
143254 On ch=1 n=a4 v=40
143424 On ch=1 n=f#5 v=0
143558 On ch=1 n=f#4 v=69
143580 On ch=1 n=f#5 v=75
143620 On ch=1 n=a4 v=0
143872 On ch=1 n=a4 v=63
143882 On ch=1 n=d4 v=0
144210 On ch=1 n=g4 v=68
144224 On ch=1 n=d4 v=60
144232 On ch=1 n=e5 v=86
144284 On ch=1 n=f#4 v=0
144296 On ch=1 n=a4 v=0
144306 On ch=1 n=f#5 v=0
144428 Par ch=1 c=64 v=63
144450 Par ch=1 c=64 v=127
144730 On ch=1 n=c#5 v=54
144742 On ch=1 n=a5 v=71
144932 On ch=1 n=g5 v=81
144938 On ch=1 n=e5 v=0
145072 On ch=1 n=g5 v=0
145082 On ch=1 n=a5 v=0
145134 On ch=1 n=g5 v=74
145148 On ch=1 n=e4 v=56
145196 On ch=1 n=c#5 v=0
145262 On ch=1 n=g4 v=0
145382 Par ch=1 c=64 v=63
145474 Par ch=1 c=64 v=127
145516 On ch=1 n=c#5 v=55
145600 On ch=1 n=e4 v=0
145858 On ch=1 n=e4 v=63
145884 On ch=1 n=c#5 v=0
146156 On ch=1 n=c#5 v=74
146252 On ch=1 n=e4 v=0
146444 On ch=1 n=f#5 v=71
146448 On ch=1 n=f#4 v=72
146500 On ch=1 n=c#5 v=0
146546 Par ch=1 c=64 v=63
146560 On ch=1 n=g5 v=0
146602 Par ch=1 c=64 v=127
146678 On ch=1 n=d4 v=0
146766 On ch=1 n=d5 v=75
146832 On ch=1 n=f#4 v=0
146882 On ch=1 n=d5 v=0
147102 On ch=1 n=e5 v=87
147110 On ch=1 n=g3 v=69
147180 On ch=1 n=f#5 v=0
147348 Par ch=1 c=64 v=63
147382 Par ch=1 c=64 v=0
147468 Par ch=1 c=64 v=63
147474 On ch=1 n=g4 v=57
147500 Par ch=1 c=64 v=127
147772 On ch=1 n=e4 v=81
147790 On ch=1 n=g4 v=0
147912 On ch=1 n=g5 v=81
147944 On ch=1 n=e5 v=0
148090 On ch=1 n=b5 v=84
148154 On ch=1 n=g5 v=0
148156 On ch=1 n=g4 v=51
148174 On ch=1 n=g3 v=0
148220 On ch=1 n=g5 v=71
148246 On ch=1 n=e4 v=0
148288 On ch=1 n=b5 v=0
148342 On ch=1 n=e5 v=78
148356 On ch=1 n=g5 v=0
148490 On ch=1 n=f#4 v=46
148510 On ch=1 n=a3 v=59
148514 On ch=1 n=d5 v=83
148530 On ch=1 n=e5 v=0
148550 On ch=1 n=g4 v=0
148586 Par ch=1 c=64 v=63
148612 Par ch=1 c=64 v=0
148726 Par ch=1 c=64 v=63
148750 Par ch=1 c=64 v=127
148830 On ch=1 n=a4 v=71
148936 On ch=1 n=f#4 v=0
149052 On ch=1 n=a4 v=0
149158 On ch=1 n=c#5 v=81
149166 On ch=1 n=g4 v=54
149190 On ch=1 n=d5 v=0
149286 Par ch=1 c=64 v=63
149386 Par ch=1 c=64 v=127
149478 On ch=1 n=a3 v=0
149496 On ch=1 n=e4 v=67
149540 On ch=1 n=g4 v=0
149886 On ch=1 n=f#4 v=49
149890 On ch=1 n=c#5 v=0
149898 On ch=1 n=d5 v=71
149902 On ch=1 n=a3 v=39
149982 Par ch=1 c=64 v=63
149986 On ch=1 n=e4 v=0
150012 Par ch=1 c=64 v=0
150148 Par ch=1 c=64 v=63
150170 Par ch=1 c=64 v=127
150594 On ch=1 n=f#4 v=0
150646 On ch=1 n=d5 v=0
150662 On ch=1 n=e5 v=62
150744 On ch=1 n=f#5 v=63
150750 On ch=1 n=e5 v=0
150854 On ch=1 n=a3 v=0
150870 On ch=1 n=f#5 v=0
150878 On ch=1 n=e5 v=50
150948 On ch=1 n=e4 v=50
150950 On ch=1 n=c#4 v=43
150962 On ch=1 n=a3 v=34
151012 Par ch=1 c=64 v=63
151064 Par ch=1 c=64 v=0
151188 Par ch=1 c=64 v=63
151214 Par ch=1 c=64 v=127
151364 On ch=1 n=a3 v=0
151390 On ch=1 n=e4 v=0
151396 On ch=1 n=e5 v=0
151418 On ch=1 n=c#4 v=0
151786 Par ch=1 c=64 v=63
151824 Par ch=1 c=64 v=0
152088 On ch=1 n=a5 v=40
152210 On ch=1 n=a5 v=0
152346 On ch=1 n=b5 v=47
152550 On ch=1 n=b5 v=0
152590 On ch=1 n=c#6 v=56
152720 On ch=1 n=c#6 v=0
152808 On ch=1 n=d6 v=60
152980 On ch=1 n=d6 v=0
153042 On ch=1 n=e6 v=57
153298 On ch=1 n=e6 v=0
153358 On ch=1 n=f#6 v=65
153360 On ch=1 n=d5 v=38
153612 Par ch=1 c=64 v=63
153636 Par ch=1 c=64 v=127
153800 On ch=1 n=a5 v=31
153980 On ch=1 n=f#6 v=0
154120 On ch=1 n=f#5 v=54
154144 On ch=1 n=a5 v=0
154414 On ch=1 n=a5 v=50
154448 On ch=1 n=d5 v=0
154668 On ch=1 n=d5 v=57
154670 On ch=1 n=f#6 v=70
154708 On ch=1 n=a5 v=0
154748 On ch=1 n=f#5 v=0
155004 On ch=1 n=a5 v=51
155190 On ch=1 n=f#6 v=0
155278 On ch=1 n=f#5 v=80
155300 On ch=1 n=f#6 v=81
155330 On ch=1 n=a5 v=0
155562 On ch=1 n=d5 v=0
155586 On ch=1 n=a5 v=64
155890 On ch=1 n=g5 v=70
155912 On ch=1 n=d5 v=60
155922 On ch=1 n=e6 v=97
155926 On ch=1 n=a5 v=0
155944 Par ch=1 c=64 v=63
155982 Par ch=1 c=64 v=0
155988 On ch=1 n=f#5 v=0
156000 On ch=1 n=f#6 v=0
156056 Par ch=1 c=64 v=63
156086 Par ch=1 c=64 v=127
156326 On ch=1 n=c#6 v=73
156364 On ch=1 n=a6 v=81
156434 On ch=1 n=e6 v=0
156516 On ch=1 n=g6 v=98
156574 On ch=1 n=a6 v=0
156634 On ch=1 n=g6 v=0
156684 On ch=1 n=g6 v=92
156696 On ch=1 n=c#6 v=0
156698 On ch=1 n=e5 v=74
156724 On ch=1 n=g5 v=0
157016 On ch=1 n=c#6 v=67
157092 On ch=1 n=e5 v=0
157294 On ch=1 n=e5 v=83
157356 On ch=1 n=c#6 v=0
157578 On ch=1 n=c#6 v=79
157856 On ch=1 n=f#6 v=87
157864 On ch=1 n=f#5 v=76
157880 On ch=1 n=c#6 v=0
157890 Par ch=1 c=64 v=63
157918 Par ch=1 c=64 v=0
157920 On ch=1 n=g6 v=0
157922 On ch=1 n=e5 v=0
157986 Par ch=1 c=64 v=63
158014 Par ch=1 c=64 v=127
158186 On ch=1 n=d6 v=55
158208 On ch=1 n=f#5 v=0
158246 On ch=1 n=d5 v=0
158262 On ch=1 n=d6 v=0
158542 On ch=1 n=f#6 v=0
158552 On ch=1 n=g4 v=58
158612 On ch=1 n=b5 v=82
158742 Par ch=1 c=64 v=63
158858 Par ch=1 c=64 v=127
158978 On ch=1 n=g5 v=60
159190 On ch=1 n=b5 v=0
159202 On ch=1 n=g5 v=0
159236 On ch=1 n=e5 v=74
159348 On ch=1 n=e6 v=84
159380 On ch=1 n=g4 v=0
159448 On ch=1 n=g6 v=80
159458 On ch=1 n=e6 v=0
159504 On ch=1 n=e5 v=0
159524 On ch=1 n=g5 v=63
159550 On ch=1 n=b6 v=78
159570 On ch=1 n=g6 v=0
159654 On ch=1 n=g6 v=70
159692 On ch=1 n=b6 v=0
159752 On ch=1 n=e6 v=85
159772 On ch=1 n=g6 v=0
159790 On ch=1 n=g5 v=0
159828 On ch=1 n=f#5 v=51
159848 On ch=1 n=a4 v=57
159872 On ch=1 n=d6 v=92
159882 On ch=1 n=e6 v=0
159910 Par ch=1 c=64 v=63
159940 Par ch=1 c=64 v=0
160028 Par ch=1 c=64 v=63
160068 Par ch=1 c=64 v=127
160172 On ch=1 n=a5 v=78
160218 On ch=1 n=f#5 v=0
160296 On ch=1 n=d6 v=0
160386 On ch=1 n=a5 v=0
160486 On ch=1 n=f#6 v=80
160506 On ch=1 n=c#6 v=70
160512 On ch=1 n=g5 v=59
160566 Par ch=1 c=64 v=63
160568 Par ch=1 c=64 v=127
160720 On ch=1 n=g5 v=0
160780 On ch=1 n=a4 v=0
160836 On ch=1 n=a5 v=44
160842 On ch=1 n=e6 v=75
160850 On ch=1 n=f#6 v=0
160938 On ch=1 n=c#6 v=0
161240 On ch=1 n=f#5 v=55
161250 On ch=1 n=d5 v=49
161254 On ch=1 n=d6 v=60
161306 On ch=1 n=e6 v=0
161376 Par ch=1 c=64 v=63
161392 Par ch=1 c=64 v=0
161566 Par ch=1 c=64 v=63
161588 Par ch=1 c=64 v=127
161828 On ch=1 n=d6 v=0
162102 On ch=1 n=a5 v=0
162210 On ch=1 n=f#5 v=0
162238 Par ch=1 c=64 v=63
162266 On ch=1 n=d5 v=0
162358 Par ch=1 c=64 v=0
162538 On ch=1 n=b5 v=41
162560 Par ch=1 c=64 v=63
162586 Par ch=1 c=64 v=127
162598 On ch=1 n=d6 v=59
162724 On ch=1 n=b5 v=0
162942 On ch=1 n=a5 v=61
162960 On ch=1 n=d6 v=0
163028 On ch=1 n=c#6 v=67
163220 On ch=1 n=a5 v=0
163318 On ch=1 n=g5 v=64
163364 On ch=1 n=c#6 v=0
163378 On ch=1 n=b5 v=79
163628 On ch=1 n=b5 v=0
163642 On ch=1 n=f#5 v=72
163648 Par ch=1 c=64 v=63
163688 On ch=1 n=g5 v=0
163732 On ch=1 n=a5 v=77
163746 Par ch=1 c=64 v=127
163960 On ch=1 n=f#5 v=0
164012 On ch=1 n=a5 v=0
164112 On ch=1 n=e5 v=62
164162 Par ch=1 c=64 v=63
164174 On ch=1 n=g5 v=67
164222 Par ch=1 c=64 v=127
164420 On ch=1 n=e5 v=0
164586 On ch=1 n=g5 v=0
164792 On ch=1 n=d4 v=30
164874 On ch=1 n=f#5 v=59
165234 Par ch=1 c=64 v=63
165294 Par ch=1 c=64 v=0
165350 Par ch=1 c=64 v=63
165360 On ch=1 n=a4 v=39
165398 Par ch=1 c=64 v=127
165686 On ch=1 n=f#4 v=49
165708 On ch=1 n=f#5 v=0
165768 On ch=1 n=a4 v=0
165976 On ch=1 n=a4 v=59
166052 On ch=1 n=d4 v=0
166134 On ch=1 n=f#4 v=0
166250 On ch=1 n=f#5 v=87
166250 On ch=1 n=d4 v=47
166334 On ch=1 n=a4 v=0
166570 On ch=1 n=a4 v=63
166740 On ch=1 n=f#5 v=0
166860 On ch=1 n=f#4 v=68
166872 On ch=1 n=f#5 v=93
166874 On ch=1 n=a4 v=0
167076 On ch=1 n=d4 v=0
167154 On ch=1 n=a4 v=68
167450 On ch=1 n=g4 v=65
167468 On ch=1 n=d4 v=56
167474 On ch=1 n=a4 v=0
167476 On ch=1 n=f#5 v=0
167488 On ch=1 n=e5 v=86
167516 On ch=1 n=f#4 v=0
167574 Par ch=1 c=64 v=63
167604 Par ch=1 c=64 v=0
167660 Par ch=1 c=64 v=63
167696 Par ch=1 c=64 v=127
167904 On ch=1 n=c#5 v=60
167922 On ch=1 n=a5 v=85
167980 On ch=1 n=e5 v=0
168008 On ch=1 n=g4 v=0
168084 On ch=1 n=g5 v=84
168152 On ch=1 n=a5 v=0
168198 On ch=1 n=g5 v=0
168254 On ch=1 n=g5 v=81
168254 On ch=1 n=e4 v=70
168282 On ch=1 n=c#5 v=0
168370 Par ch=1 c=64 v=63
168506 Par ch=1 c=64 v=127
168568 On ch=1 n=c#5 v=64
168632 On ch=1 n=e4 v=0
168852 On ch=1 n=e4 v=69
168880 On ch=1 n=c#5 v=0
169108 On ch=1 n=c#5 v=76
169378 On ch=1 n=f#4 v=72
169380 On ch=1 n=f#5 v=81
169386 Par ch=1 c=64 v=63
169392 On ch=1 n=g5 v=0
169416 On ch=1 n=c#5 v=0
169418 Par ch=1 c=64 v=0
169426 On ch=1 n=e4 v=0
169526 Par ch=1 c=64 v=63
169546 Par ch=1 c=64 v=127
169688 On ch=1 n=f#4 v=0
169690 On ch=1 n=d5 v=71
169738 On ch=1 n=d4 v=0
169788 On ch=1 n=d5 v=0
169882 On ch=1 n=f#5 v=0
170050 On ch=1 n=g3 v=57
170066 On ch=1 n=e5 v=84
170260 Par ch=1 c=64 v=63
170314 Par ch=1 c=64 v=0
170422 Par ch=1 c=64 v=63
170442 Par ch=1 c=64 v=127
170466 On ch=1 n=g4 v=55
170716 On ch=1 n=g4 v=0
170732 On ch=1 n=e4 v=77
170792 On ch=1 n=g3 v=0
170860 On ch=1 n=g5 v=79
170872 On ch=1 n=e5 v=0
170976 On ch=1 n=b5 v=71
170992 On ch=1 n=g5 v=0
170996 On ch=1 n=e4 v=0
171008 On ch=1 n=g4 v=60
171054 On ch=1 n=g5 v=78
171098 On ch=1 n=b5 v=0
171166 On ch=1 n=e5 v=82
171176 On ch=1 n=g5 v=0
171240 On ch=1 n=g4 v=0
171260 On ch=1 n=f#4 v=60
171262 On ch=1 n=e5 v=0
171290 On ch=1 n=a3 v=47
171300 On ch=1 n=d5 v=88
171308 Par ch=1 c=64 v=63
171338 Par ch=1 c=64 v=0
171444 Par ch=1 c=64 v=63
171468 Par ch=1 c=64 v=127
171580 On ch=1 n=a4 v=77
171684 On ch=1 n=f#4 v=0
171818 On ch=1 n=a4 v=0
171896 On ch=1 n=c#5 v=80
171904 On ch=1 n=d5 v=0
171908 On ch=1 n=g4 v=77
172034 Par ch=1 c=64 v=63
172096 Par ch=1 c=64 v=127
172240 On ch=1 n=e4 v=75
172274 On ch=1 n=g4 v=0
172286 On ch=1 n=a3 v=0
172432 On ch=1 n=c#5 v=0
172596 On ch=1 n=a3 v=32
172624 On ch=1 n=f#4 v=64
172626 On ch=1 n=d5 v=71
172686 Par ch=1 c=64 v=63
172706 On ch=1 n=e4 v=0
172716 Par ch=1 c=64 v=0
172810 Par ch=1 c=64 v=63
172838 Par ch=1 c=64 v=127
172916 On ch=1 n=d5 v=0
172988 On ch=1 n=a3 v=0
173032 On ch=1 n=f#4 v=0
173324 On ch=1 n=e5 v=68
173408 On ch=1 n=f#5 v=57
173426 On ch=1 n=e5 v=0
173482 Par ch=1 c=64 v=63
173518 Par ch=1 c=64 v=0
173544 On ch=1 n=f#5 v=0
173562 On ch=1 n=c#4 v=45
173562 On ch=1 n=e5 v=46
173570 On ch=1 n=e4 v=43
173582 On ch=1 n=a3 v=30
173670 Par ch=1 c=64 v=63
173692 Par ch=1 c=64 v=127
174002 On ch=1 n=a3 v=0
174010 On ch=1 n=e5 v=0
174012 On ch=1 n=c#4 v=0
174018 On ch=1 n=e4 v=0
174478 Par ch=1 c=64 v=63
174518 Par ch=1 c=64 v=0
174924 On ch=1 n=a5 v=32
175000 On ch=1 n=a5 v=0
175152 On ch=1 n=b5 v=47
175214 On ch=1 n=b5 v=0
175344 On ch=1 n=c#6 v=53
175434 On ch=1 n=c#6 v=0
175544 On ch=1 n=d6 v=64
175660 On ch=1 n=d6 v=0
175754 On ch=1 n=e6 v=74
175916 On ch=1 n=e6 v=0
176074 On ch=1 n=d5 v=32
176074 On ch=1 n=f#6 v=72
176346 Par ch=1 c=64 v=63
176382 Par ch=1 c=64 v=127
176526 On ch=1 n=a5 v=29
176810 On ch=1 n=f#6 v=0
176872 On ch=1 n=f#5 v=49
176920 On ch=1 n=a5 v=0
177192 On ch=1 n=a5 v=38
177234 On ch=1 n=d5 v=0
177328 On ch=1 n=f#5 v=0
177420 On ch=1 n=f#6 v=81
177442 On ch=1 n=d5 v=52
177454 On ch=1 n=a5 v=0
177724 On ch=1 n=a5 v=51
177868 On ch=1 n=f#6 v=0
177996 On ch=1 n=f#5 v=74
178010 On ch=1 n=f#6 v=90
178040 On ch=1 n=a5 v=0
178248 On ch=1 n=d5 v=0
178282 On ch=1 n=a5 v=58
178586 On ch=1 n=g5 v=58
178600 On ch=1 n=d5 v=52
178610 On ch=1 n=a5 v=0
178610 On ch=1 n=e6 v=86
178612 Par ch=1 c=64 v=63
178628 Par ch=1 c=64 v=0
178642 On ch=1 n=f#5 v=0
178688 On ch=1 n=f#6 v=0
178744 Par ch=1 c=64 v=63
178760 Par ch=1 c=64 v=127
179016 On ch=1 n=a6 v=55
179026 On ch=1 n=c#6 v=50
179062 On ch=1 n=e6 v=0
179174 On ch=1 n=g6 v=91
179234 On ch=1 n=a6 v=0
179274 On ch=1 n=g6 v=0
179330 On ch=1 n=e5 v=64
179330 On ch=1 n=g6 v=81
179338 On ch=1 n=c#6 v=0
179346 On ch=1 n=g5 v=0
179646 On ch=1 n=c#6 v=76
179754 On ch=1 n=e5 v=0
179918 On ch=1 n=e5 v=75
179984 On ch=1 n=c#6 v=0
180180 On ch=1 n=c#6 v=84
180430 On ch=1 n=f#6 v=93
180448 Par ch=1 c=64 v=63
180452 On ch=1 n=f#5 v=80
180468 Par ch=1 c=64 v=0
180482 On ch=1 n=c#6 v=0
180492 On ch=1 n=g6 v=0
180530 On ch=1 n=e5 v=0
180542 Par ch=1 c=64 v=63
180570 Par ch=1 c=64 v=127
180736 On ch=1 n=d6 v=76
180796 On ch=1 n=f#5 v=0
180804 On ch=1 n=d5 v=0
180852 On ch=1 n=d6 v=0
181048 On ch=1 n=f#6 v=0
181094 On ch=1 n=g4 v=66
181126 On ch=1 n=b5 v=84
181276 Par ch=1 c=64 v=63
181300 Par ch=1 c=64 v=0
181366 Par ch=1 c=64 v=63
181400 Par ch=1 c=64 v=127
181478 On ch=1 n=g5 v=67
181726 On ch=1 n=b5 v=0
181758 On ch=1 n=e5 v=80
181760 On ch=1 n=g5 v=0
181834 On ch=1 n=g4 v=0
181888 On ch=1 n=e6 v=89
181980 On ch=1 n=g6 v=84
181990 On ch=1 n=e5 v=0
182004 On ch=1 n=g5 v=55
182010 On ch=1 n=e6 v=0
182076 On ch=1 n=b6 v=92
182106 On ch=1 n=g6 v=0
182166 On ch=1 n=g6 v=78
182218 On ch=1 n=b6 v=0
182256 On ch=1 n=g5 v=0
182262 On ch=1 n=e6 v=94
182300 On ch=1 n=g6 v=0
182322 On ch=1 n=f#5 v=48
182332 On ch=1 n=a4 v=54
182374 Par ch=1 c=64 v=63
182376 On ch=1 n=d6 v=93
182396 Par ch=1 c=64 v=0
182404 On ch=1 n=e6 v=0
182508 Par ch=1 c=64 v=63
182530 Par ch=1 c=64 v=127
182656 On ch=1 n=a5 v=65
182722 On ch=1 n=f#5 v=0
182806 On ch=1 n=d6 v=0
182886 On ch=1 n=a5 v=0
182948 On ch=1 n=a4 v=0
182956 On ch=1 n=f#6 v=87
182964 On ch=1 n=c#6 v=82
183008 On ch=1 n=g5 v=40
183308 On ch=1 n=a5 v=53
183320 On ch=1 n=e6 v=84
183368 On ch=1 n=f#6 v=0
183398 On ch=1 n=c#6 v=0
183718 On ch=1 n=f#5 v=40
183726 On ch=1 n=d6 v=71
183736 On ch=1 n=d5 v=42
183748 On ch=1 n=g5 v=0
183790 On ch=1 n=e6 v=0
183844 Par ch=1 c=64 v=63
183870 Par ch=1 c=64 v=0
184020 Par ch=1 c=64 v=63
184044 Par ch=1 c=64 v=127
184250 On ch=1 n=d6 v=0
184488 On ch=1 n=a5 v=0
184640 Par ch=1 c=64 v=63
184660 On ch=1 n=d5 v=0
184664 On ch=1 n=f#5 v=0
184684 Par ch=1 c=64 v=0
185062 On ch=1 n=a5 v=47
185414 On ch=1 n=g#5 v=61
185492 On ch=1 n=a5 v=0
185736 On ch=1 n=a5 v=68
185774 On ch=1 n=g#5 v=0
186018 On ch=1 n=b5 v=71
186132 On ch=1 n=a5 v=0
186328 Par ch=1 c=64 v=63
186340 On ch=1 n=a5 v=58
186352 Par ch=1 c=64 v=127
186376 On ch=1 n=b5 v=0
186678 On ch=1 n=a5 v=0
186758 On ch=1 n=a5 v=48
186760 On ch=1 n=c#5 v=65
186772 On ch=1 n=g6 v=62
186776 On ch=1 n=e6 v=55
186830 On ch=1 n=e6 v=0
186840 On ch=1 n=a5 v=0
186846 On ch=1 n=g6 v=0
186850 On ch=1 n=c#5 v=0
186898 Par ch=1 c=64 v=63
186912 Par ch=1 c=64 v=0
187168 On ch=1 n=g6 v=63
187180 On ch=1 n=c#5 v=60
187182 On ch=1 n=a5 v=54
187182 On ch=1 n=e6 v=56
187238 On ch=1 n=e6 v=0
187260 On ch=1 n=g6 v=0
187272 On ch=1 n=c#5 v=0
187276 On ch=1 n=a5 v=0
187776 On ch=1 n=a5 v=68
187838 Par ch=1 c=64 v=63
187846 Par ch=1 c=64 v=127
187954 On ch=1 n=a5 v=0
188068 On ch=1 n=f#6 v=78
188074 On ch=1 n=a5 v=59
188076 On ch=1 n=d6 v=72
188092 On ch=1 n=d5 v=50
188104 Par ch=1 c=64 v=63
188116 Par ch=1 c=64 v=0
188138 On ch=1 n=d6 v=0
188150 On ch=1 n=f#6 v=0
188156 On ch=1 n=d5 v=0
188158 On ch=1 n=a5 v=0
188440 On ch=1 n=f#6 v=72
188446 On ch=1 n=a5 v=46
188448 On ch=1 n=d6 v=57
188450 On ch=1 n=d5 v=58
188508 On ch=1 n=d6 v=0
188540 On ch=1 n=f#6 v=0
188558 On ch=1 n=a5 v=0
188568 On ch=1 n=d5 v=0
189084 On ch=1 n=a5 v=65
189134 Par ch=1 c=64 v=63
189146 Par ch=1 c=64 v=127
189260 On ch=1 n=a5 v=0
189428 On ch=1 n=c#6 v=73
189438 On ch=1 n=e6 v=57
189450 On ch=1 n=a4 v=30
189452 On ch=1 n=a5 v=26
189478 Par ch=1 c=64 v=63
189492 Par ch=1 c=64 v=0
189494 On ch=1 n=c#6 v=0
189522 On ch=1 n=e6 v=0
189528 On ch=1 n=a4 v=0
189534 On ch=1 n=a5 v=0
189840 On ch=1 n=e6 v=57
189844 On ch=1 n=c#6 v=52
189858 On ch=1 n=a4 v=21
189858 On ch=1 n=a5 v=17
189954 On ch=1 n=c#6 v=0
189964 On ch=1 n=e6 v=0
189988 On ch=1 n=a4 v=0
189992 On ch=1 n=a5 v=0
190772 On ch=1 n=a5 v=45
191148 On ch=1 n=g#5 v=51
191266 On ch=1 n=a5 v=0
191466 On ch=1 n=a5 v=63
191538 On ch=1 n=g#5 v=0
191758 On ch=1 n=b5 v=71
191800 On ch=1 n=a5 v=0
192052 On ch=1 n=a5 v=75
192170 On ch=1 n=b5 v=0
192328 On ch=1 n=c#4 v=60
192344 On ch=1 n=a4 v=40
192350 On ch=1 n=e5 v=45
192350 On ch=1 n=g5 v=46
192370 On ch=1 n=a5 v=0
192404 On ch=1 n=g5 v=0
192420 On ch=1 n=e5 v=0
192422 On ch=1 n=a4 v=0
192426 On ch=1 n=c#4 v=0
192668 On ch=1 n=c#4 v=71
192676 On ch=1 n=g5 v=63
192688 On ch=1 n=a4 v=46
192708 On ch=1 n=e5 v=27
192750 On ch=1 n=e5 v=0
192752 On ch=1 n=g5 v=0
192764 On ch=1 n=a4 v=0
192774 On ch=1 n=c#4 v=0
193306 On ch=1 n=a5 v=57
193612 On ch=1 n=f#5 v=72
193620 On ch=1 n=a4 v=39
193622 On ch=1 n=d5 v=26
193626 On ch=1 n=d4 v=51
193628 On ch=1 n=a5 v=0
193688 On ch=1 n=d5 v=0
193698 On ch=1 n=f#5 v=0
193704 On ch=1 n=d4 v=0
193712 On ch=1 n=a4 v=0
193982 On ch=1 n=f#5 v=65
193996 On ch=1 n=d5 v=57
194014 On ch=1 n=a4 v=30
194014 On ch=1 n=d4 v=42
194172 On ch=1 n=d4 v=0
194172 On ch=1 n=a4 v=0
194182 On ch=1 n=d5 v=0
194202 On ch=1 n=f#5 v=0
194620 On ch=1 n=a5 v=57
194766 Par ch=1 c=64 v=63
194786 Par ch=1 c=64 v=127
194942 On ch=1 n=a5 v=0
194960 On ch=1 n=c#5 v=67
194966 On ch=1 n=e5 v=60
194972 On ch=1 n=a4 v=34
194976 Par ch=1 c=64 v=63
194986 On ch=1 n=a3 v=32
194990 Par ch=1 c=64 v=0
195042 On ch=1 n=c#5 v=0
195046 On ch=1 n=e5 v=0
195066 On ch=1 n=a4 v=0
195086 On ch=1 n=a3 v=0
195416 Par ch=1 c=64 v=63
195434 Par ch=1 c=64 v=127
195436 On ch=1 n=c#5 v=40
195438 On ch=1 n=a4 v=25
195442 On ch=1 n=e5 v=54
195444 On ch=1 n=a3 v=31
195538 On ch=1 n=c#5 v=0
195556 On ch=1 n=e5 v=0
195560 On ch=1 n=a4 v=0
195578 On ch=1 n=a3 v=0
195794 Par ch=1 c=64 v=63
195838 Par ch=1 c=64 v=0
196278 On ch=1 n=g#5 v=45
196298 Par ch=1 c=64 v=63
196352 Par ch=1 c=64 v=127
196528 On ch=1 n=b5 v=59
196570 On ch=1 n=g#5 v=0
196710 On ch=1 n=b5 v=0
196728 On ch=1 n=a5 v=59
196910 On ch=1 n=c#6 v=68
196954 On ch=1 n=a5 v=0
197064 On ch=1 n=b5 v=66
197070 On ch=1 n=c#6 v=0
197176 On ch=1 n=d6 v=72
197198 On ch=1 n=b5 v=0
197306 On ch=1 n=c#6 v=80
197328 On ch=1 n=d6 v=0
197400 On ch=1 n=e6 v=69
197430 On ch=1 n=c#6 v=0
197448 Par ch=1 c=64 v=63
197496 On ch=1 n=e6 v=0
197512 On ch=1 n=d6 v=71
197550 Par ch=1 c=64 v=0
197626 On ch=1 n=f#6 v=75
197646 On ch=1 n=d6 v=0
197718 On ch=1 n=e6 v=68
197732 On ch=1 n=f#6 v=0
197822 On ch=1 n=g6 v=64
197868 On ch=1 n=e6 v=0
197934 On ch=1 n=d5 v=59
197974 On ch=1 n=f#6 v=86
197998 Par ch=1 c=64 v=63
198022 On ch=1 n=g6 v=0
198072 Par ch=1 c=64 v=127
198342 On ch=1 n=a5 v=36
198372 Par ch=1 c=64 v=63
198390 Par ch=1 c=64 v=0
198512 Par ch=1 c=64 v=63
198534 Par ch=1 c=64 v=127
198630 On ch=1 n=f#5 v=70
198772 On ch=1 n=a5 v=0
198910 On ch=1 n=a5 v=69
199078 On ch=1 n=f#6 v=0
199084 On ch=1 n=d5 v=0
199188 On ch=1 n=f#6 v=99
199194 On ch=1 n=d5 v=52
199326 On ch=1 n=a5 v=0
199470 On ch=1 n=a5 v=83
199510 On ch=1 n=f#5 v=0
199530 On ch=1 n=f#6 v=0
199744 On ch=1 n=f#5 v=84
199746 On ch=1 n=f#6 v=104
199810 On ch=1 n=a5 v=0
199914 On ch=1 n=d5 v=0
200008 On ch=1 n=a5 v=75
200324 On ch=1 n=g5 v=68
200332 On ch=1 n=d5 v=63
200346 On ch=1 n=a5 v=0
200354 On ch=1 n=e6 v=93
200362 Par ch=1 c=64 v=63
200386 Par ch=1 c=64 v=0
200388 On ch=1 n=f#5 v=0
200420 On ch=1 n=f#6 v=0
200500 Par ch=1 c=64 v=63
200534 Par ch=1 c=64 v=127
200752 On ch=1 n=c#6 v=63
200766 On ch=1 n=a6 v=84
200840 On ch=1 n=e6 v=0
200892 On ch=1 n=g6 v=87
200982 On ch=1 n=a6 v=0
201016 On ch=1 n=g6 v=0
201068 On ch=1 n=g6 v=94
201084 On ch=1 n=e5 v=76
201120 On ch=1 n=c#6 v=0
201134 On ch=1 n=g5 v=0
201196 Par ch=1 c=64 v=63
201340 Par ch=1 c=64 v=127
201402 On ch=1 n=c#6 v=72
201554 On ch=1 n=e5 v=0
201676 On ch=1 n=e5 v=80
201726 On ch=1 n=c#6 v=0
201740 On ch=1 n=g6 v=0
201920 On ch=1 n=c#6 v=88
202182 On ch=1 n=f#6 v=97
202184 On ch=1 n=f#5 v=85
202232 On ch=1 n=e5 v=0
202236 On ch=1 n=c#6 v=0
202248 Par ch=1 c=64 v=63
202328 Par ch=1 c=64 v=127
202470 On ch=1 n=d6 v=86
202534 On ch=1 n=f#5 v=0
202536 On ch=1 n=d5 v=0
202552 On ch=1 n=d6 v=0
202790 On ch=1 n=g4 v=76
202790 On ch=1 n=e6 v=96
202872 On ch=1 n=f#6 v=0
202912 Par ch=1 c=64 v=63
202940 Par ch=1 c=64 v=0
203042 Par ch=1 c=64 v=63
203074 Par ch=1 c=64 v=127
203126 On ch=1 n=g5 v=86
203362 On ch=1 n=g5 v=0
203414 On ch=1 n=e5 v=75
203420 On ch=1 n=e6 v=0
203514 On ch=1 n=g4 v=0
203518 On ch=1 n=g6 v=84
203620 On ch=1 n=b6 v=92
203632 On ch=1 n=e5 v=0
203642 On ch=1 n=g6 v=0
203644 On ch=1 n=g5 v=71
203714 On ch=1 n=g6 v=66
203766 On ch=1 n=b6 v=0
203802 On ch=1 n=e6 v=82
203818 On ch=1 n=g6 v=0
203892 On ch=1 n=g5 v=0
203896 On ch=1 n=e6 v=0
203910 On ch=1 n=a4 v=51
203922 Par ch=1 c=64 v=63
203930 On ch=1 n=d6 v=106
203948 Par ch=1 c=64 v=0
204040 Par ch=1 c=64 v=63
204068 Par ch=1 c=64 v=127
204238 On ch=1 n=f#5 v=95
204246 On ch=1 n=a4 v=0
204256 On ch=1 n=d6 v=0
204534 On ch=1 n=a#4 v=90
204564 On ch=1 n=f#6 v=97
204572 On ch=1 n=c#6 v=92
204678 On ch=1 n=f#5 v=0
204686 Par ch=1 c=64 v=63
204816 Par ch=1 c=64 v=0
204910 On ch=1 n=g5 v=52
204914 On ch=1 n=e6 v=94
204982 On ch=1 n=f#6 v=0
205252 On ch=1 n=a#4 v=0
205332 On ch=1 n=c#6 v=0
205344 On ch=1 n=f#5 v=68
205344 On ch=1 n=d6 v=72
205366 On ch=1 n=b4 v=58
205462 On ch=1 n=e6 v=0
205496 On ch=1 n=g5 v=0
205510 Par ch=1 c=64 v=63
205532 Par ch=1 c=64 v=127
205948 On ch=1 n=d6 v=0
206128 On ch=1 n=f#5 v=0
206174 On ch=1 n=b4 v=0
206458 Par ch=1 c=64 v=63
206530 On ch=1 n=f#6 v=69
206714 On ch=1 n=f#6 v=0
206722 On ch=1 n=e6 v=68
206854 On ch=1 n=d6 v=80
206870 Par ch=1 c=64 v=0
206916 On ch=1 n=e6 v=0
207014 On ch=1 n=c#6 v=80
207046 On ch=1 n=d6 v=0
207128 On ch=1 n=e6 v=77
207162 On ch=1 n=c#6 v=0
207260 On ch=1 n=d6 v=68
207306 On ch=1 n=e6 v=0
207358 On ch=1 n=d6 v=0
207368 On ch=1 n=b5 v=69
207506 On ch=1 n=b5 v=0
207526 On ch=1 n=a#5 v=80
207646 On ch=1 n=c#6 v=82
207650 On ch=1 n=a#5 v=0
207798 On ch=1 n=b5 v=67
207806 On ch=1 n=c#6 v=0
207922 On ch=1 n=b5 v=0
207946 On ch=1 n=g5 v=69
208140 On ch=1 n=d4 v=37
208170 On ch=1 n=g5 v=0
208170 On ch=1 n=f#5 v=76
208434 Par ch=1 c=64 v=63
208456 Par ch=1 c=64 v=127
208506 On ch=1 n=a4 v=41
208690 On ch=1 n=f#5 v=0
208828 On ch=1 n=f#4 v=59
208860 On ch=1 n=a4 v=0
209110 On ch=1 n=a4 v=60
209114 On ch=1 n=d4 v=0
209202 On ch=1 n=f#4 v=0
209366 On ch=1 n=d4 v=52
209368 On ch=1 n=f#5 v=88
209390 On ch=1 n=a4 v=0
209502 On ch=1 n=f#5 v=0
209652 On ch=1 n=f#5 v=101
209656 On ch=1 n=a4 v=41
209764 On ch=1 n=f#5 v=0
209918 On ch=1 n=f#5 v=99
209920 On ch=1 n=f#4 v=66
209932 On ch=1 n=a4 v=0
210052 On ch=1 n=f#5 v=0
210102 On ch=1 n=d4 v=0
210186 On ch=1 n=f#5 v=99
210196 On ch=1 n=a4 v=57
210270 On ch=1 n=f#4 v=0
210470 On ch=1 n=f#5 v=0
210480 On ch=1 n=a4 v=0
210488 On ch=1 n=g4 v=52
210494 On ch=1 n=d4 v=60
210504 On ch=1 n=e5 v=92
210548 Par ch=1 c=64 v=63
210568 Par ch=1 c=64 v=0
210600 Par ch=1 c=64 v=63
210648 Par ch=1 c=64 v=127
210878 On ch=1 n=c#5 v=66
210898 On ch=1 n=a5 v=86
210900 On ch=1 n=e5 v=0
211010 On ch=1 n=g5 v=87
211080 On ch=1 n=a5 v=0
211122 On ch=1 n=g5 v=0
211168 On ch=1 n=g5 v=100
211170 On ch=1 n=e4 v=77
211178 On ch=1 n=g4 v=0
211182 On ch=1 n=c#5 v=0
211320 Par ch=1 c=64 v=63
211384 Par ch=1 c=64 v=127
211456 On ch=1 n=c#5 v=79
211542 On ch=1 n=e4 v=0
211726 On ch=1 n=e4 v=80
211770 On ch=1 n=c#5 v=0
211804 On ch=1 n=g5 v=0
211982 On ch=1 n=c#5 v=95
212192 On ch=1 n=e4 v=0
212254 On ch=1 n=f#5 v=106
212254 On ch=1 n=f#4 v=85
212266 Par ch=1 c=64 v=63
212274 Par ch=1 c=64 v=127
212312 On ch=1 n=c#5 v=0
212450 On ch=1 n=d4 v=0
212536 On ch=1 n=d5 v=92
212580 On ch=1 n=f#4 v=0
212614 On ch=1 n=d5 v=0
212654 On ch=1 n=f#5 v=0
212862 On ch=1 n=g3 v=87
212890 On ch=1 n=b4 v=94
213002 Par ch=1 c=64 v=63
213036 Par ch=1 c=64 v=0
213142 Par ch=1 c=64 v=63
213166 Par ch=1 c=64 v=127
213250 On ch=1 n=g4 v=83
213416 On ch=1 n=b4 v=0
213520 On ch=1 n=e4 v=86
213544 On ch=1 n=g4 v=0
213590 On ch=1 n=g3 v=0
213648 On ch=1 n=e5 v=85
213738 On ch=1 n=g5 v=85
213754 On ch=1 n=e5 v=0
213756 On ch=1 n=e4 v=0
213764 On ch=1 n=g4 v=67
213842 On ch=1 n=b5 v=89
213860 On ch=1 n=g5 v=0
213930 On ch=1 n=g5 v=74
213956 On ch=1 n=b5 v=0
214014 On ch=1 n=g4 v=0
214022 On ch=1 n=e5 v=91
214040 On ch=1 n=g5 v=0
214080 Par ch=1 c=64 v=63
214090 On ch=1 n=f#4 v=47
214092 On ch=1 n=a3 v=62
214108 Par ch=1 c=64 v=0
214126 On ch=1 n=d5 v=99
214146 On ch=1 n=e5 v=0
214250 Par ch=1 c=64 v=63
214268 Par ch=1 c=64 v=127
214406 On ch=1 n=a4 v=81
214410 On ch=1 n=d5 v=0
214432 On ch=1 n=a3 v=0
214462 On ch=1 n=f#4 v=0
214696 On ch=1 n=g4 v=73
214706 On ch=1 n=f#5 v=88
214722 On ch=1 n=c#5 v=77
214748 On ch=1 n=a4 v=0
214830 Par ch=1 c=64 v=63
214934 Par ch=1 c=64 v=127
215034 On ch=1 n=a4 v=52
215058 On ch=1 n=e5 v=83
215098 On ch=1 n=c#5 v=0
215108 On ch=1 n=g4 v=0
215118 On ch=1 n=f#5 v=0
215406 On ch=1 n=e5 v=0
215436 On ch=1 n=d4 v=40
215440 On ch=1 n=f#4 v=52
215444 On ch=1 n=d5 v=74
215496 Par ch=1 c=64 v=63
215528 Par ch=1 c=64 v=0
215744 Par ch=1 c=64 v=63
215762 Par ch=1 c=64 v=127
215966 On ch=1 n=d5 v=0
216062 On ch=1 n=d4 v=0
216072 On ch=1 n=a4 v=0
216134 On ch=1 n=f#4 v=0
216230 Par ch=1 c=64 v=63
216274 Par ch=1 c=64 v=0
216764 On ch=1 n=a5 v=47
217068 Par ch=1 c=64 v=63
217138 Par ch=1 c=64 v=127
217180 On ch=1 n=g#5 v=47
217270 On ch=1 n=a5 v=0
217466 On ch=1 n=a5 v=55
217476 On ch=1 n=g#5 v=0
217732 On ch=1 n=b5 v=63
217786 On ch=1 n=a5 v=0
217966 On ch=1 n=b5 v=0
218012 On ch=1 n=a5 v=65
218160 Par ch=1 c=64 v=63
218226 On ch=1 n=a5 v=0
218272 Par ch=1 c=64 v=0
218300 On ch=1 n=a5 v=48
218302 On ch=1 n=g6 v=68
218304 On ch=1 n=c#5 v=72
218310 On ch=1 n=e6 v=57
218358 On ch=1 n=e6 v=0
218358 On ch=1 n=g6 v=0
218374 On ch=1 n=c#5 v=0
218380 On ch=1 n=a5 v=0
218652 On ch=1 n=g6 v=71
218654 On ch=1 n=a5 v=60
218656 On ch=1 n=c#5 v=63
218718 On ch=1 n=c#5 v=0
218722 On ch=1 n=g6 v=0
218724 On ch=1 n=a5 v=0
219214 On ch=1 n=a5 v=57
219226 Par ch=1 c=64 v=63
219246 Par ch=1 c=64 v=127
219368 On ch=1 n=a5 v=0
219498 Par ch=1 c=64 v=63
219508 On ch=1 n=a5 v=63
219518 On ch=1 n=f#6 v=73
219522 On ch=1 n=d6 v=65
219524 On ch=1 n=d5 v=57
219546 Par ch=1 c=64 v=0
219570 On ch=1 n=d6 v=0
219574 On ch=1 n=f#6 v=0
219580 On ch=1 n=d5 v=0
219584 On ch=1 n=a5 v=0
219870 On ch=1 n=f#6 v=70
219874 On ch=1 n=a5 v=65
219878 On ch=1 n=d6 v=60
219884 On ch=1 n=d5 v=60
219922 On ch=1 n=d6 v=0
219938 On ch=1 n=d5 v=0
219944 On ch=1 n=a5 v=0
219944 On ch=1 n=f#6 v=0
220476 On ch=1 n=a5 v=63
220488 Par ch=1 c=64 v=63
220510 Par ch=1 c=64 v=127
220582 On ch=1 n=a5 v=0
220782 On ch=1 n=e6 v=65
220784 On ch=1 n=c#6 v=72
220790 On ch=1 n=a5 v=57
220794 On ch=1 n=a4 v=48
220810 Par ch=1 c=64 v=63
220834 On ch=1 n=c#6 v=0
220844 Par ch=1 c=64 v=0
220848 On ch=1 n=a5 v=0
220852 On ch=1 n=e6 v=0
220858 On ch=1 n=a4 v=0
221116 Par ch=1 c=64 v=63
221142 Par ch=1 c=64 v=127
221146 On ch=1 n=a4 v=53
221150 On ch=1 n=c#6 v=73
221154 On ch=1 n=e6 v=53
221158 On ch=1 n=a5 v=46
221204 On ch=1 n=e6 v=0
221208 On ch=1 n=c#6 v=0
221246 On ch=1 n=a4 v=0
221250 On ch=1 n=a5 v=0
221280 Par ch=1 c=64 v=63
221332 Par ch=1 c=64 v=0
221818 On ch=1 n=a5 v=40
221842 Par ch=1 c=64 v=63
221878 Par ch=1 c=64 v=127
222166 On ch=1 n=g#5 v=53
222238 On ch=1 n=a5 v=0
222440 On ch=1 n=a5 v=66
222488 On ch=1 n=g#5 v=0
222730 On ch=1 n=b5 v=63
222804 On ch=1 n=a5 v=0
222992 On ch=1 n=a5 v=65
223000 Par ch=1 c=64 v=63
223032 On ch=1 n=b5 v=0
223140 Par ch=1 c=64 v=0
223272 On ch=1 n=a5 v=0
223274 On ch=1 n=g5 v=68
223284 On ch=1 n=c#4 v=65
223288 On ch=1 n=a4 v=48
223294 On ch=1 n=e5 v=47
223344 On ch=1 n=e5 v=0
223346 On ch=1 n=g5 v=0
223358 On ch=1 n=c#4 v=0
223362 On ch=1 n=a4 v=0
223600 On ch=1 n=c#4 v=72
223608 On ch=1 n=a4 v=55
223616 On ch=1 n=g5 v=52
223624 On ch=1 n=e5 v=48
223666 On ch=1 n=a4 v=0
223668 On ch=1 n=g5 v=0
223672 On ch=1 n=c#4 v=0
223674 On ch=1 n=e5 v=0
224182 On ch=1 n=a5 v=54
224452 On ch=1 n=f#5 v=71
224474 On ch=1 n=d5 v=55
224476 On ch=1 n=a4 v=50
224478 On ch=1 n=a5 v=0
224484 On ch=1 n=d4 v=49
224530 On ch=1 n=d5 v=0
224538 On ch=1 n=f#5 v=0
224546 On ch=1 n=a4 v=0
224550 On ch=1 n=d4 v=0
224780 On ch=1 n=f#5 v=70
224792 On ch=1 n=a4 v=56
224796 On ch=1 n=d5 v=59
224798 On ch=1 n=d4 v=59
224842 On ch=1 n=d5 v=0
224850 On ch=1 n=d4 v=0
224850 On ch=1 n=f#5 v=0
224854 On ch=1 n=a4 v=0
225436 Par ch=1 c=64 v=63
225436 On ch=1 n=a5 v=61
225464 Par ch=1 c=64 v=127
225752 On ch=1 n=c#5 v=57
225758 On ch=1 n=a4 v=43
225766 On ch=1 n=a5 v=0
225766 Par ch=1 c=64 v=63
225768 On ch=1 n=e5 v=53
225786 Par ch=1 c=64 v=0
225788 On ch=1 n=a3 v=27
225816 On ch=1 n=c#5 v=0
225826 On ch=1 n=e5 v=0
225840 On ch=1 n=a4 v=0
225866 On ch=1 n=a3 v=0
226040 Par ch=1 c=64 v=63
226072 Par ch=1 c=64 v=127
226158 On ch=1 n=c#5 v=40
226162 On ch=1 n=e5 v=48
226172 On ch=1 n=a4 v=20
226174 On ch=1 n=a3 v=23
226216 On ch=1 n=c#5 v=0
226228 On ch=1 n=e5 v=0
226252 On ch=1 n=a4 v=0
226278 On ch=1 n=a3 v=0
226618 Par ch=1 c=64 v=63
226700 Par ch=1 c=64 v=0
226888 On ch=1 n=g#5 v=61
227106 On ch=1 n=g#5 v=0
227116 On ch=1 n=b5 v=61
227250 On ch=1 n=b5 v=0
227274 Par ch=1 c=64 v=63
227278 On ch=1 n=a5 v=66
227428 On ch=1 n=c#6 v=73
227456 On ch=1 n=a5 v=0
227490 Par ch=1 c=64 v=0
227560 On ch=1 n=b5 v=73
227574 On ch=1 n=c#6 v=0
227672 On ch=1 n=d6 v=74
227700 On ch=1 n=b5 v=0
227796 On ch=1 n=c#6 v=83
227832 On ch=1 n=d6 v=0
227916 On ch=1 n=e6 v=70
227942 On ch=1 n=c#6 v=0
228008 On ch=1 n=e6 v=0
228014 On ch=1 n=d6 v=76
228150 On ch=1 n=f#6 v=89
228192 On ch=1 n=d6 v=0
228258 On ch=1 n=e6 v=77
228290 On ch=1 n=f#6 v=0
228360 On ch=1 n=g6 v=84
228414 On ch=1 n=d5 v=61
228426 On ch=1 n=e6 v=0
228502 On ch=1 n=f#6 v=97
228574 On ch=1 n=g6 v=0
228642 Par ch=1 c=64 v=63
228682 Par ch=1 c=64 v=127
228898 On ch=1 n=a5 v=31
229020 On ch=1 n=f#6 v=0
229208 On ch=1 n=f#5 v=70
229260 On ch=1 n=a5 v=0
229454 On ch=1 n=a5 v=81
229510 On ch=1 n=d5 v=0
229726 On ch=1 n=f#6 v=103
229736 On ch=1 n=d5 v=68
229798 On ch=1 n=a5 v=0
229858 On ch=1 n=f#5 v=0
230046 On ch=1 n=a5 v=82
230212 On ch=1 n=f#6 v=0
230322 On ch=1 n=f#6 v=108
230322 On ch=1 n=f#5 v=89
230388 On ch=1 n=a5 v=0
230590 On ch=1 n=d5 v=0
230630 On ch=1 n=a5 v=76
230976 On ch=1 n=g5 v=71
230980 On ch=1 n=d5 v=59
230986 On ch=1 n=e6 v=91
231010 Par ch=1 c=64 v=63
231032 Par ch=1 c=64 v=0
231052 On ch=1 n=f#6 v=0
231056 On ch=1 n=a5 v=0
231064 On ch=1 n=f#5 v=0
231120 Par ch=1 c=64 v=63
231140 Par ch=1 c=64 v=127
231412 On ch=1 n=c#6 v=77
231424 On ch=1 n=a6 v=90
231514 On ch=1 n=e6 v=0
231562 On ch=1 n=g6 v=88
231638 On ch=1 n=a6 v=0
231672 On ch=1 n=g6 v=0
231718 On ch=1 n=g6 v=99
231738 On ch=1 n=e5 v=71
231748 On ch=1 n=c#6 v=0
231756 On ch=1 n=g5 v=0
232050 On ch=1 n=c#6 v=66
232184 On ch=1 n=e5 v=0
232332 On ch=1 n=e5 v=79
232374 On ch=1 n=c#6 v=0
232592 On ch=1 n=c#6 v=88
232852 On ch=1 n=f#5 v=89
232864 On ch=1 n=f#6 v=98
232878 Par ch=1 c=64 v=63
232912 Par ch=1 c=64 v=0
232918 On ch=1 n=c#6 v=0
232924 On ch=1 n=e5 v=0
232938 On ch=1 n=g6 v=0
232952 Par ch=1 c=64 v=63
232994 Par ch=1 c=64 v=127
233164 On ch=1 n=d6 v=72
233278 On ch=1 n=f#5 v=0
233318 On ch=1 n=d6 v=0
233320 On ch=1 n=d5 v=0
233536 On ch=1 n=g4 v=75
233560 On ch=1 n=e6 v=91
233618 On ch=1 n=f#6 v=0
233732 Par ch=1 c=64 v=63
233856 Par ch=1 c=64 v=127
233924 On ch=1 n=g5 v=72
234212 On ch=1 n=e5 v=82
234248 On ch=1 n=e6 v=0
234254 On ch=1 n=g5 v=0
234314 On ch=1 n=g6 v=81
234336 On ch=1 n=g4 v=0
234410 On ch=1 n=b6 v=90
234426 On ch=1 n=g5 v=68
234434 On ch=1 n=g6 v=0
234440 On ch=1 n=e5 v=0
234502 On ch=1 n=g6 v=78
234552 On ch=1 n=b6 v=0
234612 On ch=1 n=e6 v=83
234616 On ch=1 n=g6 v=0
234662 On ch=1 n=g5 v=0
234696 On ch=1 n=a4 v=71
234700 On ch=1 n=e6 v=0
234724 On ch=1 n=d6 v=102
234744 Par ch=1 c=64 v=63
234770 Par ch=1 c=64 v=0
234870 Par ch=1 c=64 v=63
234920 Par ch=1 c=64 v=127
235008 On ch=1 n=f#5 v=99
235058 On ch=1 n=a4 v=0
235076 On ch=1 n=d6 v=0
235288 On ch=1 n=a#4 v=93
235316 On ch=1 n=f#6 v=99
235324 On ch=1 n=c#6 v=95
235376 Par ch=1 c=64 v=63
235412 Par ch=1 c=64 v=0
235438 On ch=1 n=f#5 v=0
235498 Par ch=1 c=64 v=63
235528 Par ch=1 c=64 v=127
235656 On ch=1 n=g5 v=73
235658 On ch=1 n=e6 v=96
235712 On ch=1 n=f#6 v=0
235918 On ch=1 n=a#4 v=0
236008 On ch=1 n=c#6 v=0
236028 On ch=1 n=d6 v=81
236044 On ch=1 n=f#5 v=70
236054 On ch=1 n=b4 v=48
236128 On ch=1 n=g5 v=0
236136 On ch=1 n=e6 v=0
236152 Par ch=1 c=64 v=63
236170 Par ch=1 c=64 v=0
236378 Par ch=1 c=64 v=63
236394 Par ch=1 c=64 v=127
236580 On ch=1 n=d6 v=0
236662 On ch=1 n=f#5 v=0
236708 On ch=1 n=b4 v=0
236998 Par ch=1 c=64 v=63
237078 Par ch=1 c=64 v=0
237186 On ch=1 n=f#6 v=65
237402 On ch=1 n=e6 v=65
237422 On ch=1 n=f#6 v=0
237534 On ch=1 n=d6 v=83
237624 On ch=1 n=e6 v=0
237690 On ch=1 n=c#6 v=85
237740 On ch=1 n=d6 v=0
237828 On ch=1 n=e6 v=84
237846 On ch=1 n=c#6 v=0
237958 On ch=1 n=d6 v=84
238028 On ch=1 n=e6 v=0
238082 On ch=1 n=b5 v=80
238088 On ch=1 n=d6 v=0
238228 On ch=1 n=a#5 v=90
238240 On ch=1 n=b5 v=0
238350 On ch=1 n=c#6 v=78
238368 On ch=1 n=a#5 v=0
238508 On ch=1 n=b5 v=66
238566 On ch=1 n=c#6 v=0
238622 On ch=1 n=b5 v=0
238624 On ch=1 n=g5 v=63
238822 On ch=1 n=f#5 v=83
238850 On ch=1 n=g5 v=0
238850 On ch=1 n=d4 v=37
239074 Par ch=1 c=64 v=63
239086 Par ch=1 c=64 v=127
239136 On ch=1 n=a4 v=42
239356 On ch=1 n=f#5 v=0
239410 On ch=1 n=f#4 v=72
239458 On ch=1 n=a4 v=0
239680 On ch=1 n=a4 v=76
239766 On ch=1 n=d4 v=0
239930 On ch=1 n=d4 v=80
239944 On ch=1 n=f#5 v=99
240096 On ch=1 n=a4 v=0
240178 On ch=1 n=f#5 v=0
240234 On ch=1 n=a4 v=85
240242 On ch=1 n=f#5 v=88
240278 On ch=1 n=f#4 v=0
240400 On ch=1 n=f#5 v=0
240512 On ch=1 n=f#5 v=104
240514 On ch=1 n=f#4 v=97
240586 On ch=1 n=a4 v=0
240728 On ch=1 n=f#5 v=0
240756 On ch=1 n=d4 v=0
240798 On ch=1 n=f#5 v=103
240816 On ch=1 n=a4 v=89
240912 On ch=1 n=f#4 v=0
240974 On ch=1 n=a4 v=0
241172 On ch=1 n=e5 v=92
241182 On ch=1 n=f#5 v=0
241186 On ch=1 n=c#5 v=103
241198 On ch=1 n=g4 v=68
241206 On ch=1 n=d4 v=59
241236 Par ch=1 c=64 v=63
241286 Par ch=1 c=64 v=0
241312 Par ch=1 c=64 v=63
241358 Par ch=1 c=64 v=127
241528 On ch=1 n=a5 v=100
241534 On ch=1 n=d4 v=0
241556 On ch=1 n=c#5 v=0
241566 On ch=1 n=g4 v=0
241588 On ch=1 n=e5 v=0
241652 On ch=1 n=g5 v=100
241660 Par ch=1 c=64 v=63
241712 Par ch=1 c=64 v=0
241768 On ch=1 n=a5 v=0
241820 On ch=1 n=g5 v=0
241856 On ch=1 n=c#5 v=84
241868 Par ch=1 c=64 v=63
241874 On ch=1 n=d4 v=63
241876 On ch=1 n=g5 v=98
241886 Par ch=1 c=64 v=127
241886 On ch=1 n=e4 v=75
242020 On ch=1 n=c#5 v=0
242028 On ch=1 n=d4 v=0
242052 On ch=1 n=e4 v=0
242110 On ch=1 n=g5 v=0
242512 Par ch=1 c=64 v=63
242526 Par ch=1 c=64 v=0
244216 On ch=1 n=d4 v=54
244220 On ch=1 n=f#5 v=77
244228 On ch=1 n=a4 v=48
244232 On ch=1 n=c5 v=48
244292 Par ch=1 c=64 v=63
244306 Par ch=1 c=64 v=127
244478 On ch=1 n=f#5 v=0
244616 On ch=1 n=d6 v=89
244672 On ch=1 n=d4 v=0
244694 On ch=1 n=a4 v=0
244748 On ch=1 n=c5 v=0
244752 On ch=1 n=c6 v=78
244850 On ch=1 n=d6 v=0
244884 On ch=1 n=c6 v=0
244938 On ch=1 n=c6 v=93
244944 On ch=1 n=f#4 v=67
244948 On ch=1 n=a4 v=57
244952 On ch=1 n=d4 v=44
245048 Par ch=1 c=64 v=63
245096 Par ch=1 c=64 v=0
245664 On ch=1 n=d4 v=0
245676 On ch=1 n=f#4 v=0
245702 On ch=1 n=a4 v=0
245708 On ch=1 n=c6 v=0
247488 On ch=1 n=b5 v=36
247490 On ch=1 n=f#5 v=50
247500 On ch=1 n=d#5 v=48
247506 Par ch=1 c=64 v=63
247538 Par ch=1 c=64 v=127
247860 On ch=1 n=b5 v=0
247876 On ch=1 n=d#5 v=0
247880 On ch=1 n=f#5 v=0
247996 On ch=1 n=b6 v=57
248204 On ch=1 n=a6 v=52
248232 On ch=1 n=b6 v=0
248354 On ch=1 n=a6 v=0
248498 On ch=1 n=d#5 v=27
248502 On ch=1 n=f#5 v=24
248508 On ch=1 n=b5 v=26
248512 On ch=1 n=a6 v=49
248564 Par ch=1 c=64 v=63
248612 Par ch=1 c=64 v=0
248640 Par ch=1 c=64 v=63
248720 Par ch=1 c=64 v=127
248836 On ch=1 n=f#5 v=0
248854 On ch=1 n=b5 v=0
248856 On ch=1 n=d#5 v=0
248958 On ch=1 n=a6 v=0
249634 Par ch=1 c=64 v=63
249700 Par ch=1 c=64 v=0
251770 On ch=1 n=e4 v=126
251772 On ch=1 n=e3 v=127
251790 Par ch=1 c=64 v=127
251828 On ch=1 n=e4 v=0
252762 On ch=1 n=e3 v=0
253004 On ch=1 n=f4 v=118
253004 On ch=1 n=f3 v=112
253060 Par ch=1 c=64 v=63
253108 Par ch=1 c=64 v=127
253260 On ch=1 n=f3 v=0
253300 On ch=1 n=f4 v=0
253384 On ch=1 n=e4 v=121
253392 On ch=1 n=e3 v=122
253506 Par ch=1 c=64 v=63
253514 Par ch=1 c=64 v=0
254112 Par ch=1 c=64 v=127
254230 On ch=1 n=e3 v=0
254280 On ch=1 n=e4 v=0
254488 On ch=1 n=f4 v=117
254492 On ch=1 n=f3 v=109
254590 On ch=1 n=f3 v=0
254604 On ch=1 n=f4 v=0
254840 On ch=1 n=e4 v=121
254844 On ch=1 n=e3 v=120
254850 On ch=1 n=d6 v=124
254854 On ch=1 n=b5 v=117
254870 Par ch=1 c=64 v=63
254902 Par ch=1 c=64 v=127
254926 On ch=1 n=b5 v=0
254944 On ch=1 n=g#6 v=113
254974 On ch=1 n=d6 v=0
255034 On ch=1 n=d6 v=87
255050 On ch=1 n=b5 v=85
255052 On ch=1 n=g#6 v=0
255090 On ch=1 n=b5 v=0
255108 On ch=1 n=g#6 v=100
255148 On ch=1 n=d6 v=0
255192 On ch=1 n=d6 v=102
255206 On ch=1 n=b5 v=97
255208 On ch=1 n=g#6 v=0
255250 On ch=1 n=b5 v=0
255266 On ch=1 n=g#6 v=104
255290 On ch=1 n=d6 v=0
255348 On ch=1 n=d6 v=103
255364 On ch=1 n=b5 v=90
255378 On ch=1 n=g#6 v=0
255400 On ch=1 n=b5 v=0
255416 On ch=1 n=g#6 v=112
255442 On ch=1 n=d6 v=0
255470 On ch=1 n=e3 v=0
255500 On ch=1 n=d6 v=109
255504 On ch=1 n=e4 v=0
255508 On ch=1 n=b5 v=102
255534 On ch=1 n=g#6 v=0
255556 On ch=1 n=b5 v=0
255572 On ch=1 n=g#6 v=110
255604 On ch=1 n=d6 v=0
255650 On ch=1 n=d6 v=102
255672 On ch=1 n=b5 v=90
255696 On ch=1 n=g#6 v=0
255708 On ch=1 n=b5 v=0
255732 On ch=1 n=g#6 v=112
255762 On ch=1 n=d6 v=0
255812 On ch=1 n=d6 v=111
255824 On ch=1 n=b5 v=108
255828 On ch=1 n=f4 v=109
255832 On ch=1 n=f3 v=98
255854 On ch=1 n=g#6 v=0
255882 On ch=1 n=b5 v=0
255892 On ch=1 n=g#6 v=113
255900 On ch=1 n=f4 v=0
255906 On ch=1 n=f3 v=0
255926 On ch=1 n=d6 v=0
255976 On ch=1 n=d6 v=99
255996 On ch=1 n=b5 v=100
256024 On ch=1 n=g#6 v=0
256062 On ch=1 n=b5 v=0
256068 On ch=1 n=g#6 v=106
256110 On ch=1 n=d6 v=0
256138 On ch=1 n=e4 v=121
256138 On ch=1 n=e3 v=117
256154 On ch=1 n=d6 v=111
256166 On ch=1 n=b5 v=107
256180 Par ch=1 c=64 v=63
256194 Par ch=1 c=64 v=127
256200 On ch=1 n=g#6 v=0
256222 On ch=1 n=e4 v=0
256228 On ch=1 n=e3 v=0
256230 On ch=1 n=b5 v=0
256238 On ch=1 n=g#6 v=105
256274 On ch=1 n=d6 v=0
256330 On ch=1 n=d6 v=101
256348 On ch=1 n=b5 v=96
256364 On ch=1 n=g#6 v=0
256394 On ch=1 n=b5 v=0
256414 On ch=1 n=g#6 v=103
256450 On ch=1 n=d6 v=0
256456 Par ch=1 c=64 v=63
256472 Par ch=1 c=64 v=127
256488 On ch=1 n=f3 v=102
256490 On ch=1 n=f4 v=114
256492 On ch=1 n=d6 v=111
256504 On ch=1 n=b5 v=107
256540 On ch=1 n=g#6 v=0
256560 On ch=1 n=f4 v=0
256564 On ch=1 n=b5 v=0
256570 On ch=1 n=f3 v=0
256576 On ch=1 n=g#6 v=112
256606 On ch=1 n=d6 v=0
256658 On ch=1 n=d6 v=98
256674 On ch=1 n=b5 v=94
256704 On ch=1 n=g#6 v=0
256724 On ch=1 n=b5 v=0
256744 On ch=1 n=g#6 v=106
256784 On ch=1 n=d6 v=0
256822 On ch=1 n=e4 v=120
256826 On ch=1 n=d6 v=108
256830 On ch=1 n=e3 v=104
256836 On ch=1 n=b5 v=102
256868 On ch=1 n=g#6 v=0
256890 On ch=1 n=e3 v=0
256890 On ch=1 n=e4 v=0
256896 On ch=1 n=b5 v=0
256906 On ch=1 n=g#6 v=108
256944 On ch=1 n=d6 v=0
256992 On ch=1 n=d6 v=102
257004 On ch=1 n=b5 v=89
257026 On ch=1 n=g#6 v=0
257060 On ch=1 n=b5 v=0
257068 On ch=1 n=g#6 v=106
257112 On ch=1 n=d6 v=0
257150 On ch=1 n=d6 v=99
257154 On ch=1 n=b5 v=100
257164 On ch=1 n=f4 v=120
257168 On ch=1 n=f3 v=116
257192 On ch=1 n=g#6 v=0
257224 On ch=1 n=b5 v=0
257226 On ch=1 n=f4 v=0
257234 On ch=1 n=g#6 v=107
257236 On ch=1 n=f3 v=0
257270 On ch=1 n=d6 v=0
257318 On ch=1 n=d6 v=96
257330 On ch=1 n=b5 v=87
257360 On ch=1 n=g#6 v=0
257404 On ch=1 n=g#6 v=106
257416 On ch=1 n=b5 v=0
257454 On ch=1 n=d6 v=0
257496 On ch=1 n=e4 v=124
257498 On ch=1 n=d6 v=109
257500 On ch=1 n=e3 v=122
257508 On ch=1 n=b5 v=100
257510 Par ch=1 c=64 v=63
257514 Par ch=1 c=64 v=0
257560 On ch=1 n=g#6 v=0
257600 On ch=1 n=b5 v=0
257614 On ch=1 n=d6 v=0
257684 On ch=1 n=d6 v=94
257688 On ch=1 n=b5 v=94
257762 On ch=1 n=b5 v=0
257764 On ch=1 n=d6 v=0
257768 Par ch=1 c=64 v=63
257772 Par ch=1 c=64 v=127
257792 On ch=1 n=e3 v=0
257840 On ch=1 n=e4 v=0
257862 On ch=1 n=b6 v=114
257862 On ch=1 n=g#6 v=118
257928 On ch=1 n=g#6 v=0
257928 On ch=1 n=b6 v=0
258032 On ch=1 n=f3 v=103
258032 On ch=1 n=f4 v=104
258106 On ch=1 n=f4 v=0
258118 On ch=1 n=f3 v=0
258194 On ch=1 n=e4 v=114
258200 On ch=1 n=e3 v=114
258284 Par ch=1 c=64 v=63
258294 Par ch=1 c=64 v=0
258362 On ch=1 n=d6 v=96
258366 On ch=1 n=g#6 v=113
258412 On ch=1 n=d6 v=0
258436 On ch=1 n=g#6 v=0
258484 On ch=1 n=e3 v=0
258526 On ch=1 n=e4 v=0
258536 Par ch=1 c=64 v=63
258538 Par ch=1 c=64 v=127
258544 On ch=1 n=d7 v=121
258554 On ch=1 n=b6 v=106
258612 On ch=1 n=b6 v=0
258620 On ch=1 n=d7 v=0
258726 On ch=1 n=f4 v=106
258728 On ch=1 n=f3 v=104
258796 On ch=1 n=f4 v=0
258804 On ch=1 n=f3 v=0
258878 On ch=1 n=e4 v=111
258888 On ch=1 n=e3 v=109
259050 On ch=1 n=c7 v=96
259054 On ch=1 n=a6 v=88
259108 On ch=1 n=a6 v=0
259122 On ch=1 n=c7 v=0
259214 On ch=1 n=g#6 v=97
259216 On ch=1 n=b6 v=90
259288 On ch=1 n=g#6 v=0
259310 On ch=1 n=b6 v=0
259374 On ch=1 n=a6 v=102
259376 On ch=1 n=f6 v=107
259450 On ch=1 n=f6 v=0
259464 On ch=1 n=a6 v=0
259488 Par ch=1 c=64 v=63
259496 Par ch=1 c=64 v=0
259516 On ch=1 n=e3 v=0
259540 On ch=1 n=e6 v=99
259540 On ch=1 n=g#6 v=103
259552 On ch=1 n=e4 v=0
259602 On ch=1 n=g#6 v=0
259612 On ch=1 n=e6 v=0
259698 On ch=1 n=f6 v=112
259704 On ch=1 n=d6 v=106
259756 On ch=1 n=d6 v=0
259768 On ch=1 n=f6 v=0
259866 On ch=1 n=e6 v=106
259880 On ch=1 n=c6 v=90
259928 On ch=1 n=c6 v=0
259934 On ch=1 n=e6 v=0
260028 On ch=1 n=d6 v=103
260038 On ch=1 n=b5 v=86
260076 On ch=1 n=b5 v=0
260098 On ch=1 n=d6 v=0
260192 On ch=1 n=a4 v=107
260194 On ch=1 n=a3 v=104
260196 Par ch=1 c=64 v=63
260196 On ch=1 n=c6 v=108
260200 Par ch=1 c=64 v=127
260206 On ch=1 n=a5 v=77
260250 On ch=1 n=a5 v=0
260268 On ch=1 n=c6 v=0
260374 On ch=1 n=d6 v=100
260406 Par ch=1 c=64 v=63
260416 On ch=1 n=c6 v=92
260420 Par ch=1 c=64 v=0
260456 On ch=1 n=d6 v=0
260464 On ch=1 n=b5 v=88
260488 On ch=1 n=c6 v=0
260520 On ch=1 n=c6 v=97
260554 On ch=1 n=b5 v=0
260596 On ch=1 n=c6 v=0
260714 On ch=1 n=d6 v=117
260740 On ch=1 n=a3 v=0
260756 On ch=1 n=a4 v=0
260780 On ch=1 n=d6 v=0
260886 On ch=1 n=e6 v=124
260896 Par ch=1 c=64 v=63
260900 Par ch=1 c=64 v=127
260952 On ch=1 n=e6 v=0
261218 Par ch=1 c=64 v=63
261234 Par ch=1 c=64 v=0
261428 On ch=1 n=e5 v=77
261432 On ch=1 n=c5 v=56
261436 On ch=1 n=a5 v=82
261484 On ch=1 n=a5 v=0
261522 On ch=1 n=a#5 v=114
261556 On ch=1 n=f5 v=85
261568 On ch=1 n=d5 v=85
261590 Par ch=1 c=64 v=63
261600 Par ch=1 c=64 v=127
261606 On ch=1 n=c5 v=0
261614 On ch=1 n=e5 v=0
261616 On ch=1 n=a#5 v=0
261796 On ch=1 n=g#5 v=104
261824 On ch=1 n=d5 v=0
261828 On ch=1 n=e5 v=84
261832 On ch=1 n=c5 v=71
261862 Par ch=1 c=64 v=63
261866 On ch=1 n=a5 v=89
261870 Par ch=1 c=64 v=0
261872 On ch=1 n=f5 v=0
261884 On ch=1 n=g#5 v=0
261940 On ch=1 n=a5 v=0
261940 On ch=1 n=c5 v=0
261942 On ch=1 n=e5 v=0
262102 On ch=1 n=a5 v=101
262176 On ch=1 n=a#5 v=116
262178 On ch=1 n=a5 v=0
262180 Par ch=1 c=64 v=63
262182 Par ch=1 c=64 v=127
262184 On ch=1 n=f5 v=100
262184 On ch=1 n=d5 v=96
262264 On ch=1 n=a#5 v=0
262384 On ch=1 n=f5 v=0
262412 On ch=1 n=d5 v=0
262428 On ch=1 n=g#5 v=106
262478 Par ch=1 c=64 v=63
262484 Par ch=1 c=64 v=0
262496 On ch=1 n=a5 v=94
262498 On ch=1 n=e5 v=84
262500 On ch=1 n=c5 v=79
262514 On ch=1 n=g#5 v=0
262554 On ch=1 n=e5 v=0
262566 On ch=1 n=a5 v=0
262576 On ch=1 n=c5 v=0
262750 On ch=1 n=a5 v=83
262800 On ch=1 n=a5 v=0
262840 On ch=1 n=d6 v=113
262848 On ch=1 n=g#5 v=112
262854 On ch=1 n=e5 v=108
262858 On ch=1 n=b4 v=112
262902 On ch=1 n=g#5 v=0
262906 On ch=1 n=d6 v=0
262920 On ch=1 n=e5 v=0
262922 On ch=1 n=b4 v=0
263196 On ch=1 n=c6 v=122
263198 On ch=1 n=a5 v=118
263204 On ch=1 n=a4 v=117
263208 On ch=1 n=e5 v=116
263218 Par ch=1 c=64 v=63
263224 Par ch=1 c=64 v=127
263256 On ch=1 n=a5 v=0
263276 On ch=1 n=e5 v=0
263288 On ch=1 n=c6 v=0
263318 On ch=1 n=a4 v=0
263422 Par ch=1 c=64 v=63
263432 Par ch=1 c=64 v=0
264770 On ch=1 n=d4 v=127
264788 On ch=1 n=d3 v=127
264800 Par ch=1 c=64 v=63
264802 Par ch=1 c=64 v=127
264830 On ch=1 n=d4 v=0
265536 On ch=1 n=d3 v=0
265990 On ch=1 n=d#4 v=124
265992 On ch=1 n=d#3 v=116
266048 Par ch=1 c=64 v=63
266064 Par ch=1 c=64 v=127
266198 On ch=1 n=d#3 v=0
266198 On ch=1 n=d#4 v=0
266386 On ch=1 n=d4 v=122
266392 On ch=1 n=d3 v=114
266478 Par ch=1 c=64 v=63
266492 Par ch=1 c=64 v=0
267024 Par ch=1 c=64 v=63
267024 Par ch=1 c=64 v=127
267168 On ch=1 n=d3 v=0
267210 On ch=1 n=d4 v=0
267488 On ch=1 n=d#3 v=96
267492 On ch=1 n=d#4 v=114
267576 On ch=1 n=d#4 v=0
267590 On ch=1 n=d#3 v=0
267836 On ch=1 n=d4 v=120
267838 On ch=1 n=c6 v=118
267840 On ch=1 n=d3 v=114
267844 On ch=1 n=a5 v=109
267888 Par ch=1 c=64 v=63
267920 Par ch=1 c=64 v=127
267956 On ch=1 n=a5 v=0
267964 On ch=1 n=f#6 v=108
268000 On ch=1 n=c6 v=0
268048 On ch=1 n=c6 v=92
268060 On ch=1 n=a5 v=78
268064 On ch=1 n=f#6 v=0
268112 On ch=1 n=a5 v=0
268124 On ch=1 n=f#6 v=96
268156 On ch=1 n=c6 v=0
268206 On ch=1 n=c6 v=100
268220 On ch=1 n=a5 v=84
268232 On ch=1 n=f#6 v=0
268268 On ch=1 n=a5 v=0
268280 On ch=1 n=f#6 v=98
268316 On ch=1 n=c6 v=0
268364 On ch=1 n=c6 v=102
268378 On ch=1 n=a5 v=91
268398 On ch=1 n=f#6 v=0
268424 On ch=1 n=a5 v=0
268442 On ch=1 n=f#6 v=101
268478 On ch=1 n=c6 v=0
268486 On ch=1 n=d3 v=0
268524 On ch=1 n=c6 v=109
268528 On ch=1 n=d4 v=0
268536 On ch=1 n=a5 v=92
268564 On ch=1 n=f#6 v=0
268584 On ch=1 n=a5 v=0
268602 On ch=1 n=f#6 v=110
268638 On ch=1 n=c6 v=0
268682 On ch=1 n=c6 v=101
268700 On ch=1 n=a5 v=81
268718 On ch=1 n=f#6 v=0
268744 On ch=1 n=a5 v=0
268760 On ch=1 n=f#6 v=101
268796 On ch=1 n=c6 v=0
268842 On ch=1 n=c6 v=111
268844 On ch=1 n=d#3 v=100
268846 On ch=1 n=d#4 v=114
268850 On ch=1 n=a5 v=98
268882 On ch=1 n=f#6 v=0
268916 On ch=1 n=a5 v=0
268916 On ch=1 n=d#4 v=0
268920 On ch=1 n=f#6 v=106
268922 On ch=1 n=d#3 v=0
268958 On ch=1 n=c6 v=0
269008 On ch=1 n=c6 v=102
269024 On ch=1 n=a5 v=91
269048 On ch=1 n=f#6 v=0
269086 On ch=1 n=a5 v=0
269092 On ch=1 n=f#6 v=98
269140 On ch=1 n=c6 v=0
269178 On ch=1 n=d4 v=118
269180 On ch=1 n=d3 v=116
269182 On ch=1 n=c6 v=108
269184 Par ch=1 c=64 v=63
269186 On ch=1 n=a5 v=99
269208 Par ch=1 c=64 v=127
269214 On ch=1 n=f#6 v=0
269240 On ch=1 n=d4 v=0
269242 On ch=1 n=d3 v=0
269250 On ch=1 n=a5 v=0
269262 On ch=1 n=f#6 v=101
269294 On ch=1 n=c6 v=0
269352 On ch=1 n=c6 v=101
269368 On ch=1 n=a5 v=88
269386 On ch=1 n=f#6 v=0
269416 On ch=1 n=a5 v=0
269438 On ch=1 n=f#6 v=97
269462 Par ch=1 c=64 v=63
269476 On ch=1 n=c6 v=0
269486 Par ch=1 c=64 v=127
269518 On ch=1 n=c6 v=109
269528 On ch=1 n=a5 v=101
269528 On ch=1 n=d#4 v=123
269528 On ch=1 n=d#3 v=119
269556 On ch=1 n=f#6 v=0
269590 On ch=1 n=a5 v=0
269594 On ch=1 n=d#4 v=0
269600 On ch=1 n=d#3 v=0
269604 On ch=1 n=f#6 v=104
269638 On ch=1 n=c6 v=0
269688 On ch=1 n=c6 v=100
269712 On ch=1 n=a5 v=76
269734 On ch=1 n=f#6 v=0
269758 On ch=1 n=a5 v=0
269774 On ch=1 n=f#6 v=107
269812 On ch=1 n=c6 v=0
269858 On ch=1 n=c6 v=106
269868 On ch=1 n=a5 v=98
269878 On ch=1 n=d4 v=112
269882 On ch=1 n=d3 v=108
269896 On ch=1 n=f#6 v=0
269912 On ch=1 n=d3 v=0
269914 On ch=1 n=c4 v=38
269932 On ch=1 n=d4 v=0
269934 On ch=1 n=a5 v=0
269938 On ch=1 n=f#6 v=105
269954 On ch=1 n=c4 v=0
269974 On ch=1 n=c6 v=0
270032 On ch=1 n=c6 v=99
270052 On ch=1 n=a5 v=84
270074 On ch=1 n=f#6 v=0
270102 On ch=1 n=a5 v=0
270114 On ch=1 n=f#6 v=107
270152 On ch=1 n=c6 v=0
270194 On ch=1 n=c6 v=104
270202 On ch=1 n=a5 v=98
270216 On ch=1 n=d#3 v=116
270218 On ch=1 n=d#4 v=118
270236 On ch=1 n=f#6 v=0
270272 On ch=1 n=a5 v=0
270278 On ch=1 n=d#4 v=0
270280 On ch=1 n=f#6 v=100
270294 On ch=1 n=d#3 v=0
270324 On ch=1 n=c6 v=0
270360 On ch=1 n=c6 v=61
270374 On ch=1 n=a5 v=74
270412 On ch=1 n=f#6 v=0
270456 On ch=1 n=f#6 v=98
270474 On ch=1 n=a5 v=0
270502 On ch=1 n=c6 v=0
270546 On ch=1 n=d4 v=122
270550 On ch=1 n=d3 v=121
270560 On ch=1 n=c6 v=78
270562 Par ch=1 c=64 v=63
270576 Par ch=1 c=64 v=0
270586 On ch=1 n=a5 v=55
270642 On ch=1 n=a5 v=0
270654 On ch=1 n=f#6 v=0
270682 On ch=1 n=c6 v=0
270714 On ch=1 n=a5 v=85
270756 Par ch=1 c=64 v=63
270768 Par ch=1 c=64 v=127
270802 On ch=1 n=d3 v=0
270806 On ch=1 n=a5 v=0
270848 On ch=1 n=d4 v=0
270888 On ch=1 n=f#6 v=116
270890 On ch=1 n=a6 v=104
271020 On ch=1 n=f#6 v=0
271058 On ch=1 n=d#4 v=110
271060 On ch=1 n=a6 v=0
271068 On ch=1 n=d#3 v=104
271142 On ch=1 n=d#4 v=0
271148 On ch=1 n=d#3 v=0
271260 On ch=1 n=d4 v=100
271272 On ch=1 n=d3 v=90
271292 On ch=1 n=c4 v=50
271358 Par ch=1 c=64 v=63
271384 Par ch=1 c=64 v=0
271392 On ch=1 n=c6 v=88
271394 On ch=1 n=f#6 v=99
271452 On ch=1 n=c6 v=0
271468 On ch=1 n=f#6 v=0
271536 Par ch=1 c=64 v=63
271552 On ch=1 n=c4 v=0
271552 Par ch=1 c=64 v=127
271558 On ch=1 n=c7 v=118
271566 On ch=1 n=a6 v=109
271578 On ch=1 n=d4 v=0
271594 On ch=1 n=d3 v=0
271700 On ch=1 n=a6 v=0
271716 On ch=1 n=c7 v=0
271748 On ch=1 n=d#4 v=119
271752 On ch=1 n=d#3 v=118
271824 On ch=1 n=d#4 v=0
271838 On ch=1 n=d#3 v=0
271926 On ch=1 n=d4 v=100
271934 On ch=1 n=d3 v=100
272078 On ch=1 n=g6 v=94
272078 On ch=1 n=a#6 v=96
272108 Par ch=1 c=64 v=63
272130 On ch=1 n=g6 v=0
272150 On ch=1 n=a#6 v=0
272248 On ch=1 n=a6 v=108
272258 On ch=1 n=f#6 v=100
272290 Par ch=1 c=64 v=0
272318 On ch=1 n=f#6 v=0
272330 On ch=1 n=a6 v=0
272418 On ch=1 n=g6 v=102
272420 On ch=1 n=d#6 v=112
272486 On ch=1 n=d#6 v=0
272492 On ch=1 n=g6 v=0
272522 On ch=1 n=d3 v=0
272576 On ch=1 n=d4 v=0
272582 On ch=1 n=f#6 v=104
272586 On ch=1 n=d6 v=97
272646 On ch=1 n=f#6 v=0
272658 On ch=1 n=d6 v=0
272746 On ch=1 n=d#6 v=109
272752 On ch=1 n=c6 v=99
272792 On ch=1 n=c6 v=0
272826 On ch=1 n=d#6 v=0
272914 On ch=1 n=d6 v=98
272932 On ch=1 n=a#5 v=74
272978 On ch=1 n=a#5 v=0
272980 On ch=1 n=d6 v=0
273074 On ch=1 n=a5 v=74
273074 On ch=1 n=c6 v=102
273118 On ch=1 n=a5 v=0
273146 On ch=1 n=c6 v=0
273230 Par ch=1 c=64 v=63
273254 On ch=1 n=a#5 v=108
273260 On ch=1 n=g4 v=109
273264 On ch=1 n=g5 v=68
273268 On ch=1 n=g3 v=99
273282 Par ch=1 c=64 v=127
273306 On ch=1 n=g5 v=0
273314 On ch=1 n=a#5 v=0
273464 On ch=1 n=c6 v=99
273496 On ch=1 n=a#5 v=104
273536 On ch=1 n=c6 v=0
273570 Par ch=1 c=64 v=63
273578 On ch=1 n=a5 v=85
273634 Par ch=1 c=64 v=0
273652 On ch=1 n=a5 v=0
273680 On ch=1 n=a#5 v=0
273736 On ch=1 n=g3 v=0
273780 On ch=1 n=g4 v=0
273794 On ch=1 n=c6 v=117
273864 On ch=1 n=c6 v=0
273912 Par ch=1 c=64 v=63
273950 Par ch=1 c=64 v=127
273960 On ch=1 n=d6 v=122
274020 On ch=1 n=d6 v=0
274288 Par ch=1 c=64 v=63
274328 Par ch=1 c=64 v=0
274504 On ch=1 n=d5 v=74
274506 On ch=1 n=a#4 v=72
274518 Par ch=1 c=64 v=63
274520 On ch=1 n=g5 v=89
274544 Par ch=1 c=64 v=127
274562 On ch=1 n=a#4 v=0
274568 On ch=1 n=d5 v=0
274584 On ch=1 n=g5 v=0
274632 On ch=1 n=g#5 v=105
274646 On ch=1 n=c5 v=76
274652 On ch=1 n=d#5 v=88
274700 On ch=1 n=g#5 v=0
274910 On ch=1 n=f#5 v=105
274924 On ch=1 n=c5 v=0
274954 On ch=1 n=a#4 v=79
274958 Par ch=1 c=64 v=63
274968 On ch=1 n=g5 v=92
274988 On ch=1 n=d5 v=81
274992 On ch=1 n=f#5 v=0
274994 On ch=1 n=d#5 v=0
274996 Par ch=1 c=64 v=0
275054 On ch=1 n=g5 v=0
275078 On ch=1 n=d5 v=0
275090 On ch=1 n=a#4 v=0
275234 On ch=1 n=g5 v=93
275266 Par ch=1 c=64 v=63
275290 Par ch=1 c=64 v=127
275296 On ch=1 n=d#5 v=99
275302 On ch=1 n=g#5 v=106
275308 On ch=1 n=c5 v=85
275326 On ch=1 n=g5 v=0
275380 On ch=1 n=g#5 v=0
275568 On ch=1 n=f#5 v=104
275608 On ch=1 n=g5 v=99
275608 On ch=1 n=a#4 v=84
275614 Par ch=1 c=64 v=63
275622 On ch=1 n=c5 v=0
275638 On ch=1 n=f#5 v=0
275638 On ch=1 n=d5 v=76
275646 Par ch=1 c=64 v=0
275660 On ch=1 n=d#5 v=0
275684 On ch=1 n=g5 v=0
275724 On ch=1 n=d5 v=0
275736 On ch=1 n=a#4 v=0
275896 On ch=1 n=g5 v=96
275950 On ch=1 n=g5 v=0
275978 On ch=1 n=c6 v=108
275982 On ch=1 n=f#5 v=107
275992 On ch=1 n=d5 v=109
275994 On ch=1 n=a4 v=104
276044 On ch=1 n=f#5 v=0
276060 On ch=1 n=c6 v=0
276068 On ch=1 n=d5 v=0
276080 On ch=1 n=a4 v=0
276330 Par ch=1 c=64 v=63
276354 Par ch=1 c=64 v=127
276362 On ch=1 n=g4 v=113
276366 On ch=1 n=d5 v=113
276370 On ch=1 n=g5 v=111
276376 On ch=1 n=a#5 v=114
276436 On ch=1 n=g5 v=0
276446 On ch=1 n=a#5 v=0
276446 On ch=1 n=d5 v=0
276500 On ch=1 n=g4 v=0
276516 Par ch=1 c=64 v=63
276564 Par ch=1 c=64 v=0
277492 On ch=1 n=g5 v=97
277560 On ch=1 n=g5 v=0
277602 On ch=1 n=e5 v=114
277604 On ch=1 n=d6 v=117
277608 On ch=1 n=a#4 v=107
277608 On ch=1 n=c5 v=112
277682 On ch=1 n=c5 v=0
277682 On ch=1 n=d6 v=0
277702 On ch=1 n=e5 v=0
277714 On ch=1 n=a#4 v=0
277990 Par ch=1 c=64 v=63
278010 Par ch=1 c=64 v=127
278018 On ch=1 n=a4 v=112
278022 On ch=1 n=f5 v=116
278022 On ch=1 n=c5 v=117
278024 On ch=1 n=c6 v=122
278090 On ch=1 n=c6 v=0
278100 On ch=1 n=f5 v=0
278110 On ch=1 n=c5 v=0
278152 On ch=1 n=a4 v=0
278280 Par ch=1 c=64 v=63
278318 Par ch=1 c=64 v=0
278916 Par ch=1 c=64 v=63
279036 Par ch=1 c=64 v=127
279256 On ch=1 n=c6 v=116
279342 On ch=1 n=c6 v=0
279404 On ch=1 n=b5 v=116
279408 On ch=1 n=d5 v=120
279408 On ch=1 n=f5 v=111
279412 On ch=1 n=f6 v=107
279414 On ch=1 n=d4 v=109
279444 On ch=1 n=f5 v=0
279452 Par ch=1 c=64 v=63
279466 On ch=1 n=b5 v=0
279474 On ch=1 n=f6 v=0
279480 Par ch=1 c=64 v=0
279486 On ch=1 n=d5 v=0
279496 On ch=1 n=d4 v=0
279870 Par ch=1 c=64 v=63
279876 On ch=1 n=e6 v=113
279884 On ch=1 n=c6 v=109
279884 On ch=1 n=g5 v=107
279888 On ch=1 n=c4 v=114
279890 Par ch=1 c=64 v=127
279890 On ch=1 n=c5 v=124
279942 On ch=1 n=c6 v=0
279944 On ch=1 n=g5 v=0
279950 On ch=1 n=e6 v=0
279968 On ch=1 n=c5 v=0
280002 On ch=1 n=c4 v=0
280284 Par ch=1 c=64 v=63
280346 Par ch=1 c=64 v=0
281768 Par ch=1 c=64 v=63
281808 On ch=1 n=f4 v=27
281818 Par ch=1 c=64 v=127
282054 On ch=1 n=a4 v=35
282184 On ch=1 n=f4 v=0
282254 On ch=1 n=c5 v=42
282276 On ch=1 n=a4 v=0
282424 On ch=1 n=c5 v=0
282428 On ch=1 n=a4 v=40
282590 On ch=1 n=a4 v=0
282600 On ch=1 n=f4 v=48
282800 On ch=1 n=a4 v=52
282838 On ch=1 n=f4 v=0
282948 On ch=1 n=a4 v=0
282960 On ch=1 n=c5 v=40
283114 On ch=1 n=a4 v=52
283118 On ch=1 n=c5 v=0
283254 On ch=1 n=e4 v=65
283286 On ch=1 n=a4 v=0
283396 Par ch=1 c=64 v=63
283448 On ch=1 n=a#4 v=60
283486 Par ch=1 c=64 v=127
283612 On ch=1 n=c5 v=65
283616 On ch=1 n=a#4 v=0
283770 On ch=1 n=a#4 v=72
283780 On ch=1 n=e4 v=0
283806 On ch=1 n=c5 v=0
283938 On ch=1 n=e4 v=74
283950 On ch=1 n=a#4 v=0
284110 On ch=1 n=a#4 v=80
284268 On ch=1 n=a#4 v=0
284268 On ch=1 n=c5 v=71
284404 On ch=1 n=a#4 v=73
284450 On ch=1 n=c5 v=0
284478 On ch=1 n=e4 v=0
284568 On ch=1 n=a#4 v=0
284600 On ch=1 n=f4 v=60
284608 On ch=1 n=c6 v=91
284806 On ch=1 n=a4 v=51
284956 On ch=1 n=a4 v=0
284964 On ch=1 n=c5 v=59
285086 On ch=1 n=f4 v=0
285122 On ch=1 n=a4 v=60
285128 On ch=1 n=c5 v=0
285296 On ch=1 n=f4 v=57
285302 On ch=1 n=a4 v=0
285308 On ch=1 n=c6 v=0
285410 On ch=1 n=d6 v=66
285464 On ch=1 n=a4 v=53
285470 On ch=1 n=c6 v=75
285484 On ch=1 n=d6 v=0
285526 On ch=1 n=b5 v=71
285528 On ch=1 n=c6 v=0
285546 Par ch=1 c=64 v=63
285580 On ch=1 n=a4 v=0
285586 On ch=1 n=c5 v=51
285588 On ch=1 n=c6 v=98
285594 Par ch=1 c=64 v=127
285626 On ch=1 n=b5 v=0
285732 On ch=1 n=a4 v=58
285746 On ch=1 n=c5 v=0
285764 On ch=1 n=f4 v=0
285766 On ch=1 n=d6 v=98
285790 On ch=1 n=c6 v=0
285858 On ch=1 n=d6 v=0
285864 On ch=1 n=a4 v=0
285924 On ch=1 n=g4 v=52
285934 On ch=1 n=f5 v=84
285980 Par ch=1 c=64 v=63
286068 Par ch=1 c=64 v=127
286084 On ch=1 n=a#4 v=70
286266 On ch=1 n=a#4 v=0
286284 On ch=1 n=c5 v=57
286394 On ch=1 n=a#4 v=70
286430 On ch=1 n=c5 v=0
286462 On ch=1 n=g4 v=0
286588 On ch=1 n=e5 v=75
286590 On ch=1 n=a#4 v=0
286598 On ch=1 n=g4 v=49
286630 Par ch=1 c=64 v=63
286650 Par ch=1 c=64 v=0
286654 On ch=1 n=f5 v=0
286736 Par ch=1 c=64 v=63
286756 On ch=1 n=a#4 v=62
286770 Par ch=1 c=64 v=127
286908 On ch=1 n=e5 v=0
286938 On ch=1 n=a#4 v=0
286958 On ch=1 n=c5 v=55
287092 On ch=1 n=a#4 v=71
287112 On ch=1 n=c5 v=0
287132 On ch=1 n=g4 v=0
287234 Par ch=1 c=64 v=63
287248 Par ch=1 c=64 v=0
287266 On ch=1 n=f4 v=63
287276 On ch=1 n=a#4 v=0
287424 Par ch=1 c=64 v=63
287442 On ch=1 n=f5 v=80
287444 Par ch=1 c=64 v=127
287454 On ch=1 n=a4 v=54
287522 On ch=1 n=f5 v=0
287600 On ch=1 n=a4 v=0
287616 On ch=1 n=a5 v=76
287626 On ch=1 n=c5 v=57
287746 On ch=1 n=c5 v=0
287746 On ch=1 n=a4 v=68
287752 On ch=1 n=a5 v=0
287756 On ch=1 n=c6 v=86
287784 On ch=1 n=f4 v=0
287810 On ch=1 n=c6 v=0
287910 On ch=1 n=a4 v=0
287912 On ch=1 n=f4 v=83
287934 On ch=1 n=f6 v=100
288028 On ch=1 n=f6 v=0
288078 On ch=1 n=a6 v=109
288090 On ch=1 n=a4 v=75
288184 On ch=1 n=a6 v=0
288248 On ch=1 n=a4 v=0
288248 On ch=1 n=c7 v=109
288250 On ch=1 n=c5 v=82
288330 On ch=1 n=c7 v=0
288386 On ch=1 n=a4 v=81
288404 On ch=1 n=c7 v=91
288410 On ch=1 n=c5 v=0
288416 On ch=1 n=f4 v=0
288480 On ch=1 n=c7 v=0
288494 On ch=1 n=b6 v=92
288496 On ch=1 n=a4 v=0
288564 On ch=1 n=c7 v=97
288578 On ch=1 n=b6 v=0
288588 On ch=1 n=e4 v=64
288632 On ch=1 n=d7 v=101
288650 On ch=1 n=c7 v=0
288688 Par ch=1 c=64 v=63
288696 On ch=1 n=c7 v=100
288754 On ch=1 n=d7 v=0
288794 On ch=1 n=g4 v=76
288800 Par ch=1 c=64 v=127
288980 On ch=1 n=c5 v=93
289008 On ch=1 n=g4 v=0
289148 On ch=1 n=g4 v=75
289150 On ch=1 n=c7 v=0
289160 On ch=1 n=a#6 v=98
289192 On ch=1 n=c5 v=0
289194 On ch=1 n=e4 v=0
289240 On ch=1 n=a6 v=86
289270 On ch=1 n=g4 v=0
289292 On ch=1 n=a#6 v=0
289292 On ch=1 n=g6 v=93
289298 On ch=1 n=e4 v=85
289360 Par ch=1 c=64 v=63
289430 Par ch=1 c=64 v=127
289458 On ch=1 n=a6 v=0
289480 On ch=1 n=a#4 v=77
289560 On ch=1 n=g6 v=0
289622 On ch=1 n=a#4 v=0
289672 On ch=1 n=c5 v=43
289786 On ch=1 n=a#4 v=65
289830 On ch=1 n=c5 v=0
289846 On ch=1 n=e4 v=0
290012 On ch=1 n=f4 v=54
290018 On ch=1 n=c6 v=79
290022 On ch=1 n=a#4 v=0
290082 Par ch=1 c=64 v=63
290218 Par ch=1 c=64 v=127
290248 On ch=1 n=g#4 v=54
290386 On ch=1 n=g#4 v=0
290412 On ch=1 n=c5 v=54
290478 On ch=1 n=c6 v=0
290536 On ch=1 n=g#4 v=77
290560 On ch=1 n=c5 v=0
290564 On ch=1 n=f4 v=0
290680 On ch=1 n=f4 v=84
290692 On ch=1 n=g#4 v=0
290804 On ch=1 n=c#6 v=76
290846 Par ch=1 c=64 v=63
290858 On ch=1 n=c6 v=65
290866 On ch=1 n=g#4 v=74
290890 Par ch=1 c=64 v=127
290914 On ch=1 n=c#6 v=0
290918 On ch=1 n=b5 v=90
290936 On ch=1 n=c6 v=0
290986 On ch=1 n=c6 v=96
291004 On ch=1 n=g#4 v=0
291014 On ch=1 n=b5 v=0
291016 On ch=1 n=c5 v=67
291142 On ch=1 n=g#4 v=73
291164 On ch=1 n=c#6 v=108
291168 On ch=1 n=c5 v=0
291174 On ch=1 n=c6 v=0
291230 On ch=1 n=f4 v=0
291274 On ch=1 n=c#6 v=0
291334 On ch=1 n=g4 v=77
291340 On ch=1 n=f5 v=96
291358 On ch=1 n=g#4 v=0
291396 Par ch=1 c=64 v=63
291424 Par ch=1 c=64 v=0
291448 Par ch=1 c=64 v=63
291506 Par ch=1 c=64 v=127
291534 On ch=1 n=a#4 v=76
291694 On ch=1 n=a#4 v=0
291696 On ch=1 n=c5 v=71
291820 On ch=1 n=a#4 v=80
291842 On ch=1 n=c5 v=0
291846 On ch=1 n=g4 v=0
291902 On ch=1 n=f5 v=0
292006 On ch=1 n=e5 v=89
292010 On ch=1 n=a#4 v=0
292016 On ch=1 n=g4 v=64
292058 On ch=1 n=e5 v=0
292170 On ch=1 n=a#4 v=71
292248 On ch=1 n=g4 v=0
292302 On ch=1 n=a#4 v=0
292320 On ch=1 n=c5 v=60
292440 On ch=1 n=c5 v=0
292468 On ch=1 n=a#4 v=76
292646 Par ch=1 c=64 v=63
292650 On ch=1 n=f4 v=71
292664 Par ch=1 c=64 v=0
292666 On ch=1 n=a#4 v=0
292806 Par ch=1 c=64 v=63
292822 On ch=1 n=f5 v=79
292834 On ch=1 n=g#4 v=80
292836 Par ch=1 c=64 v=127
292932 On ch=1 n=f5 v=0
292992 On ch=1 n=g#4 v=0
293002 On ch=1 n=c5 v=68
293004 On ch=1 n=g#5 v=94
293102 On ch=1 n=g#5 v=0
293128 On ch=1 n=g#4 v=84
293136 On ch=1 n=c6 v=98
293142 On ch=1 n=c5 v=0
293154 On ch=1 n=f4 v=0
293210 On ch=1 n=c6 v=0
293288 On ch=1 n=f4 v=93
293292 Par ch=1 c=64 v=63
293318 On ch=1 n=f6 v=97
293324 Par ch=1 c=64 v=0
293346 On ch=1 n=g#4 v=0
293412 Par ch=1 c=64 v=63
293448 Par ch=1 c=64 v=127
293466 On ch=1 n=g#4 v=96
293468 On ch=1 n=g#6 v=113
293478 On ch=1 n=f6 v=0
293594 On ch=1 n=g#6 v=0
293624 On ch=1 n=c5 v=86
293642 On ch=1 n=c7 v=113
293662 On ch=1 n=g#4 v=0
293746 On ch=1 n=c7 v=0
293782 On ch=1 n=g#4 v=81
293810 On ch=1 n=c7 v=116
293812 On ch=1 n=f4 v=0
293840 On ch=1 n=c5 v=0
293998 On ch=1 n=c7 v=0
294010 On ch=1 n=d#4 v=87
294054 On ch=1 n=c7 v=106
294058 On ch=1 n=g#4 v=0
294314 On ch=1 n=f#4 v=79
294326 Par ch=1 c=64 v=63
294392 Par ch=1 c=64 v=0
294424 Par ch=1 c=64 v=63
294468 Par ch=1 c=64 v=127
294478 On ch=1 n=g#4 v=78
294518 On ch=1 n=f#4 v=0
294638 On ch=1 n=f#4 v=78
294682 On ch=1 n=d#4 v=0
294702 On ch=1 n=c7 v=0
294708 On ch=1 n=g#4 v=0
294794 On ch=1 n=d#4 v=89
294836 On ch=1 n=f#4 v=0
294846 Par ch=1 c=64 v=63
294856 Par ch=1 c=64 v=0
294970 On ch=1 n=g#6 v=95
294980 On ch=1 n=f#4 v=76
295040 On ch=1 n=g#6 v=0
295136 On ch=1 n=a#6 v=99
295144 On ch=1 n=g#4 v=73
295146 On ch=1 n=f#4 v=0
295244 On ch=1 n=a#6 v=0
295272 On ch=1 n=c7 v=101
295276 On ch=1 n=f#4 v=89
295328 On ch=1 n=g#4 v=0
295456 On ch=1 n=c#4 v=91
295460 Par ch=1 c=64 v=63
295470 On ch=1 n=c#7 v=109
295478 Par ch=1 c=64 v=127
295528 On ch=1 n=f#4 v=0
295538 On ch=1 n=c7 v=0
295578 On ch=1 n=d#4 v=0
295672 On ch=1 n=f4 v=73
295834 On ch=1 n=g#4 v=88
295856 On ch=1 n=f4 v=0
295996 On ch=1 n=c#7 v=0
295998 On ch=1 n=f4 v=84
296014 On ch=1 n=c#4 v=0
296034 On ch=1 n=g#4 v=0
296166 On ch=1 n=c#4 v=94
296218 On ch=1 n=f4 v=0
296314 On ch=1 n=g#6 v=103
296328 Par ch=1 c=64 v=63
296334 On ch=1 n=f4 v=88
296340 Par ch=1 c=64 v=0
296412 On ch=1 n=g#6 v=0
296490 On ch=1 n=c7 v=99
296490 On ch=1 n=g#4 v=94
296526 On ch=1 n=f4 v=0
296598 On ch=1 n=c7 v=0
296628 On ch=1 n=c#7 v=115
296636 On ch=1 n=f4 v=81
296650 On ch=1 n=g#4 v=0
296808 Par ch=1 c=64 v=63
296812 On ch=1 n=c4 v=91
296830 On ch=1 n=d#7 v=114
296846 Par ch=1 c=64 v=127
296852 On ch=1 n=f4 v=0
296880 On ch=1 n=c#7 v=0
296892 On ch=1 n=c#4 v=0
297026 On ch=1 n=f#4 v=79
297196 On ch=1 n=g#4 v=93
297240 On ch=1 n=f#4 v=0
297348 On ch=1 n=f#4 v=97
297384 On ch=1 n=d#7 v=0
297402 On ch=1 n=g#4 v=0
297418 On ch=1 n=c4 v=0
297512 On ch=1 n=c4 v=87
297552 On ch=1 n=f#4 v=0
297660 Par ch=1 c=64 v=63
297678 On ch=1 n=g#6 v=109
297684 Par ch=1 c=64 v=0
297690 On ch=1 n=f#4 v=91
297810 On ch=1 n=g#6 v=0
297856 On ch=1 n=g#4 v=94
297864 On ch=1 n=c#7 v=110
297872 On ch=1 n=f#4 v=0
297990 On ch=1 n=d#7 v=112
297992 On ch=1 n=f#4 v=89
298040 On ch=1 n=c#7 v=0
298056 On ch=1 n=g#4 v=0
298146 On ch=1 n=c4 v=0
298150 On ch=1 n=d#7 v=0
298184 On ch=1 n=c#4 v=98
298184 On ch=1 n=f7 v=107
298208 Par ch=1 c=64 v=63
298210 On ch=1 n=f#4 v=0
298240 Par ch=1 c=64 v=127
298390 On ch=1 n=f4 v=78
298548 On ch=1 n=g#4 v=88
298564 On ch=1 n=f7 v=0
298586 On ch=1 n=f4 v=0
298700 On ch=1 n=f7 v=112
298726 On ch=1 n=f4 v=74
298748 On ch=1 n=g#4 v=0
298856 On ch=1 n=c#4 v=0
298868 Par ch=1 c=64 v=63
298894 Par ch=1 c=64 v=0
298894 On ch=1 n=b3 v=85
298896 On ch=1 n=d#7 v=115
298944 On ch=1 n=f4 v=0
298960 Par ch=1 c=64 v=63
298968 On ch=1 n=f7 v=0
299004 Par ch=1 c=64 v=127
299072 On ch=1 n=f4 v=67
299148 On ch=1 n=d#7 v=0
299258 On ch=1 n=g#4 v=88
299288 On ch=1 n=f4 v=0
299414 On ch=1 n=b3 v=0
299416 On ch=1 n=d#7 v=98
299420 On ch=1 n=f4 v=65
299470 On ch=1 n=g#4 v=0
299592 On ch=1 n=a#3 v=87
299598 On ch=1 n=d#7 v=0
299602 On ch=1 n=d7 v=87
299622 On ch=1 n=f4 v=0
299680 Par ch=1 c=64 v=63
299786 Par ch=1 c=64 v=127
299788 On ch=1 n=f4 v=56
299934 On ch=1 n=g#4 v=73
299962 On ch=1 n=f4 v=0
300072 On ch=1 n=a#3 v=0
300096 On ch=1 n=f4 v=64
300122 On ch=1 n=g#4 v=0
300138 On ch=1 n=d7 v=0
300262 On ch=1 n=a#3 v=84
300294 On ch=1 n=f4 v=0
300364 Par ch=1 c=64 v=63
300398 Par ch=1 c=64 v=0
300422 Par ch=1 c=64 v=63
300448 On ch=1 n=f4 v=71
300450 On ch=1 n=a#6 v=99
300486 Par ch=1 c=64 v=127
300596 On ch=1 n=g#4 v=81
300620 On ch=1 n=f4 v=0
300620 On ch=1 n=c7 v=96
300658 On ch=1 n=a#6 v=0
300728 On ch=1 n=f4 v=80
300744 On ch=1 n=d7 v=97
300766 On ch=1 n=a#3 v=0
300788 On ch=1 n=g#4 v=0
300792 On ch=1 n=c7 v=0
300910 On ch=1 n=a#3 v=77
300914 Par ch=1 c=64 v=63
300954 On ch=1 n=d#7 v=93
300958 On ch=1 n=f4 v=0
301018 Par ch=1 c=64 v=127
301032 On ch=1 n=d7 v=0
301108 On ch=1 n=f#6 v=88
301128 On ch=1 n=d#4 v=77
301150 On ch=1 n=d#7 v=0
301236 On ch=1 n=f#6 v=0
301278 On ch=1 n=f#4 v=88
301298 On ch=1 n=d#4 v=0
301430 On ch=1 n=d#4 v=85
301444 On ch=1 n=f#6 v=107
301452 On ch=1 n=a#3 v=0
301480 On ch=1 n=f#4 v=0
301602 Par ch=1 c=64 v=63
301610 On ch=1 n=a3 v=86
301622 On ch=1 n=c#7 v=113
301628 Par ch=1 c=64 v=0
301658 On ch=1 n=d#4 v=0
301676 On ch=1 n=f#6 v=0
301724 Par ch=1 c=64 v=63
301760 Par ch=1 c=64 v=127
301778 On ch=1 n=d#4 v=83
301788 On ch=1 n=f#6 v=92
301856 On ch=1 n=c#7 v=0
301910 On ch=1 n=f#6 v=0
301946 On ch=1 n=f#4 v=75
301970 On ch=1 n=d#4 v=0
302072 On ch=1 n=a3 v=0
302098 On ch=1 n=d#4 v=80
302126 On ch=1 n=f#6 v=87
302154 On ch=1 n=f#4 v=0
302268 Par ch=1 c=64 v=63
302274 On ch=1 n=f#6 v=0
302276 On ch=1 n=g#3 v=77
302286 On ch=1 n=d#4 v=0
302296 Par ch=1 c=64 v=0
302302 On ch=1 n=c7 v=81
302378 Par ch=1 c=64 v=63
302406 Par ch=1 c=64 v=127
302478 On ch=1 n=d#4 v=70
302482 On ch=1 n=f#6 v=80
302550 On ch=1 n=c7 v=0
302652 On ch=1 n=f#4 v=68
302658 On ch=1 n=d#4 v=0
302666 On ch=1 n=f#6 v=0
302766 On ch=1 n=g#3 v=0
302814 On ch=1 n=d#4 v=77
302854 On ch=1 n=f#4 v=0
302908 Par ch=1 c=64 v=63
302926 Par ch=1 c=64 v=0
302980 On ch=1 n=g#3 v=79
303002 On ch=1 n=d#4 v=0
303172 On ch=1 n=g#6 v=100
303174 On ch=1 n=d#4 v=78
303264 On ch=1 n=g#6 v=0
303300 On ch=1 n=d#4 v=0
303330 On ch=1 n=f#4 v=69
303334 On ch=1 n=a#6 v=95
303438 On ch=1 n=a#6 v=0
303442 On ch=1 n=d#4 v=98
303454 On ch=1 n=g#3 v=0
303476 On ch=1 n=f#4 v=0
303500 On ch=1 n=c7 v=106
303590 On ch=1 n=c7 v=0
303662 On ch=1 n=d#4 v=0
303668 On ch=1 n=c#7 v=110
303674 On ch=1 n=g#3 v=110
303694 Par ch=1 c=64 v=127
303830 On ch=1 n=c#7 v=0
303858 On ch=1 n=e6 v=90
303866 On ch=1 n=c#4 v=82
303928 On ch=1 n=g#3 v=0
303936 On ch=1 n=e6 v=0
304028 Par ch=1 c=64 v=63
304030 On ch=1 n=e6 v=96
304034 Par ch=1 c=64 v=0
304052 On ch=1 n=c#4 v=0
304056 On ch=1 n=e4 v=80
304094 On ch=1 n=f#6 v=67
304102 On ch=1 n=e6 v=0
304140 On ch=1 n=f#6 v=0
304156 On ch=1 n=e6 v=65
304182 On ch=1 n=c#4 v=67
304196 On ch=1 n=e4 v=0
304204 On ch=1 n=d#6 v=108
304224 On ch=1 n=e6 v=0
304290 On ch=1 n=e6 v=97
304296 On ch=1 n=d#6 v=0
304348 On ch=1 n=c#4 v=0
304350 On ch=1 n=g3 v=111
304354 On ch=1 n=b6 v=108
304358 Par ch=1 c=64 v=127
304412 On ch=1 n=e6 v=0
304526 On ch=1 n=e6 v=97
304536 On ch=1 n=b6 v=0
304542 On ch=1 n=c#4 v=83
304602 On ch=1 n=e6 v=0
304658 On ch=1 n=g3 v=0
304716 On ch=1 n=c#4 v=0
304716 On ch=1 n=e6 v=108
304720 On ch=1 n=e4 v=84
304780 On ch=1 n=f#6 v=107
304796 On ch=1 n=e6 v=0
304838 On ch=1 n=c#4 v=78
304842 On ch=1 n=e4 v=0
304854 On ch=1 n=e6 v=93
304864 On ch=1 n=f#6 v=0
304938 On ch=1 n=d#6 v=110
304948 On ch=1 n=e6 v=0
305012 On ch=1 n=e6 v=86
305038 On ch=1 n=d#6 v=0
305040 On ch=1 n=c#4 v=0
305086 On ch=1 n=e6 v=0
305102 On ch=1 n=f#4 v=121
305112 On ch=1 n=f#3 v=118
305136 Par ch=1 c=64 v=63
305146 Par ch=1 c=64 v=0
305224 On ch=1 n=d#6 v=43
305270 On ch=1 n=d#6 v=0
305330 On ch=1 n=c#6 v=99
305422 Par ch=1 c=64 v=63
305424 Par ch=1 c=64 v=127
305446 On ch=1 n=e6 v=94
305472 On ch=1 n=c#6 v=0
305556 On ch=1 n=a#6 v=114
305602 On ch=1 n=e6 v=0
305676 On ch=1 n=e6 v=91
305770 On ch=1 n=c#6 v=96
305802 On ch=1 n=e6 v=0
305804 On ch=1 n=a#6 v=0
305842 On ch=1 n=f#4 v=0
305844 On ch=1 n=c#6 v=0
305852 On ch=1 n=f#3 v=0
305882 On ch=1 n=b6 v=109
305972 On ch=1 n=b6 v=0
305984 On ch=1 n=d6 v=108
306084 On ch=1 n=b5 v=102
306124 On ch=1 n=d6 v=0
306174 On ch=1 n=b5 v=0
306200 On ch=1 n=a6 v=114
306206 On ch=1 n=f4 v=121
306210 On ch=1 n=f3 v=117
306268 Par ch=1 c=64 v=63
306278 Par ch=1 c=64 v=0
306320 On ch=1 n=d6 v=96
306320 Par ch=1 c=64 v=63
306340 Par ch=1 c=64 v=127
306376 On ch=1 n=a6 v=0
306418 On ch=1 n=b5 v=90
306434 On ch=1 n=f3 v=0
306440 On ch=1 n=f4 v=0
306474 On ch=1 n=d6 v=0
306542 On ch=1 n=b5 v=0
306562 Par ch=1 c=64 v=63
306568 Par ch=1 c=64 v=0
306578 On ch=1 n=e4 v=122
306584 On ch=1 n=e3 v=118
306812 On ch=1 n=b5 v=104
306880 Par ch=1 c=64 v=63
306884 Par ch=1 c=64 v=127
306950 On ch=1 n=d6 v=98
306982 On ch=1 n=b5 v=0
307058 On ch=1 n=g#6 v=105
307096 On ch=1 n=d6 v=0
307162 On ch=1 n=d6 v=77
307234 On ch=1 n=g#6 v=0
307258 On ch=1 n=b5 v=90
307306 On ch=1 n=d6 v=0
307348 On ch=1 n=b5 v=0
307368 On ch=1 n=a6 v=109
307374 On ch=1 n=e4 v=0
307426 On ch=1 n=e3 v=0
307454 On ch=1 n=a6 v=0
307464 On ch=1 n=c6 v=107
307560 On ch=1 n=a5 v=101
307582 On ch=1 n=c6 v=0
307642 On ch=1 n=a5 v=0
307674 On ch=1 n=g6 v=116
307676 On ch=1 n=d#4 v=119
307682 On ch=1 n=d#3 v=116
307724 Par ch=1 c=64 v=63
307762 On ch=1 n=d#3 v=0
307764 On ch=1 n=d#4 v=0
307784 Par ch=1 c=64 v=127
307788 On ch=1 n=c6 v=102
307838 On ch=1 n=g6 v=0
307888 On ch=1 n=a5 v=97
307942 On ch=1 n=c6 v=0
308010 On ch=1 n=a5 v=0
308016 On ch=1 n=d4 v=122
308020 On ch=1 n=d3 v=120
308022 Par ch=1 c=64 v=63
308028 Par ch=1 c=64 v=0
308190 On ch=1 n=a5 v=96
308306 On ch=1 n=c6 v=93
308322 On ch=1 n=a5 v=0
308378 Par ch=1 c=64 v=63
308380 Par ch=1 c=64 v=127
308418 On ch=1 n=f#6 v=113
308462 On ch=1 n=c6 v=0
308524 On ch=1 n=c6 v=79
308604 On ch=1 n=f#6 v=0
308626 On ch=1 n=a5 v=85
308676 On ch=1 n=c6 v=0
308714 On ch=1 n=a5 v=0
308736 On ch=1 n=g6 v=102
308798 On ch=1 n=d4 v=0
308818 On ch=1 n=g6 v=0
308818 On ch=1 n=d3 v=0
308838 On ch=1 n=a#5 v=113
308940 On ch=1 n=g5 v=87
308948 On ch=1 n=a#5 v=0
309028 On ch=1 n=g5 v=0
309058 On ch=1 n=f6 v=113
309066 On ch=1 n=c#4 v=113
309078 On ch=1 n=c#3 v=114
309092 Par ch=1 c=64 v=63
309100 Par ch=1 c=64 v=0
309142 On ch=1 n=c#4 v=0
309152 On ch=1 n=c#3 v=0
309168 On ch=1 n=a#5 v=104
309224 On ch=1 n=f6 v=0
309276 On ch=1 n=g5 v=80
309348 On ch=1 n=a#5 v=0
309378 On ch=1 n=g5 v=0
309390 On ch=1 n=c4 v=122
309394 On ch=1 n=c3 v=121
309400 On ch=1 n=e6 v=118
309416 Par ch=1 c=64 v=63
309418 Par ch=1 c=64 v=127
309532 On ch=1 n=a#5 v=96
309612 On ch=1 n=e6 v=0
309622 On ch=1 n=g5 v=76
309668 On ch=1 n=a#5 v=0
309718 On ch=1 n=g5 v=0
309730 On ch=1 n=f6 v=111
309816 On ch=1 n=f6 v=0
309826 On ch=1 n=c4 v=0
309836 On ch=1 n=a5 v=94
309844 On ch=1 n=c3 v=0
309940 On ch=1 n=f5 v=92
309980 On ch=1 n=a5 v=0
310036 On ch=1 n=f5 v=0
310050 On ch=1 n=b3 v=121
310054 On ch=1 n=b2 v=118
310062 On ch=1 n=d#6 v=115
310066 Par ch=1 c=64 v=63
310076 Par ch=1 c=64 v=0
310148 Par ch=1 c=64 v=63
310166 On ch=1 n=a5 v=73
310168 Par ch=1 c=64 v=127
310272 On ch=1 n=f#5 v=93
310274 On ch=1 n=d#6 v=0
310314 On ch=1 n=a5 v=0
310340 On ch=1 n=f#5 v=0
310402 On ch=1 n=e6 v=97
310418 On ch=1 n=b3 v=0
310440 On ch=1 n=b2 v=0
310462 On ch=1 n=e6 v=0
310496 On ch=1 n=g5 v=89
310598 On ch=1 n=g5 v=0
310598 On ch=1 n=e5 v=88
310694 On ch=1 n=e5 v=0
310706 On ch=1 n=a3 v=121
310708 On ch=1 n=a2 v=120
310716 On ch=1 n=c#6 v=116
310724 Par ch=1 c=64 v=63
310734 Par ch=1 c=64 v=0
310808 Par ch=1 c=64 v=63
310818 On ch=1 n=g5 v=71
310832 Par ch=1 c=64 v=127
310892 On ch=1 n=c#6 v=0
310920 On ch=1 n=e5 v=84
310978 On ch=1 n=g5 v=0
311014 On ch=1 n=e5 v=0
311028 On ch=1 n=d6 v=111
311052 On ch=1 n=a3 v=0
311064 On ch=1 n=a2 v=0
311116 On ch=1 n=d6 v=0
311140 On ch=1 n=f5 v=107
311238 On ch=1 n=d5 v=94
311258 On ch=1 n=f5 v=0
311324 On ch=1 n=d5 v=0
311358 On ch=1 n=g3 v=125
311360 On ch=1 n=b5 v=118
311362 On ch=1 n=g2 v=124
311390 Par ch=1 c=64 v=63
311404 Par ch=1 c=64 v=0
311438 Par ch=1 c=64 v=63
311462 On ch=1 n=f5 v=86
311462 Par ch=1 c=64 v=127
311556 On ch=1 n=d5 v=84
311568 On ch=1 n=b5 v=0
311622 On ch=1 n=f5 v=0
311646 On ch=1 n=d5 v=0
311668 On ch=1 n=g3 v=0
311680 On ch=1 n=c6 v=117
311692 On ch=1 n=g2 v=0
311784 On ch=1 n=c6 v=0
311798 On ch=1 n=e5 v=112
311886 On ch=1 n=c5 v=108
311946 On ch=1 n=e5 v=0
311972 On ch=1 n=c5 v=0
312068 On ch=1 n=f#3 v=126
312074 Par ch=1 c=64 v=63
312076 On ch=1 n=f#2 v=121
312084 Par ch=1 c=64 v=0
312092 On ch=1 n=g#2 v=104
312118 On ch=1 n=g#2 v=0
312372 On ch=1 n=c7 v=118
312444 Par ch=1 c=64 v=127
312660 On ch=1 n=d#7 v=119
312694 On ch=1 n=c7 v=0
312872 On ch=1 n=a6 v=97
312904 On ch=1 n=d#7 v=0
313012 On ch=1 n=a6 v=0
313056 On ch=1 n=c7 v=108
313166 On ch=1 n=c7 v=0
313248 On ch=1 n=f#6 v=109
313398 On ch=1 n=a6 v=108
313410 On ch=1 n=f#6 v=0
313538 On ch=1 n=d#6 v=115
313588 On ch=1 n=a6 v=0
313700 On ch=1 n=f#6 v=110
313738 On ch=1 n=d#6 v=0
313848 On ch=1 n=c6 v=93
313886 On ch=1 n=f#6 v=0
314008 On ch=1 n=d#6 v=116
314032 On ch=1 n=c6 v=0
314160 On ch=1 n=d#6 v=0
314160 On ch=1 n=a5 v=81
314260 On ch=1 n=a5 v=0
314316 On ch=1 n=c6 v=103
314430 On ch=1 n=c6 v=0
314476 On ch=1 n=f#5 v=115
314622 On ch=1 n=a5 v=106
314644 On ch=1 n=f#5 v=0
314766 On ch=1 n=d#5 v=115
314828 On ch=1 n=a5 v=0
314922 On ch=1 n=f#5 v=115
314968 On ch=1 n=d#5 v=0
315082 On ch=1 n=c5 v=106
315120 On ch=1 n=f#5 v=0
315242 On ch=1 n=d#5 v=118
315268 On ch=1 n=c5 v=0
315362 On ch=1 n=d#5 v=0
315378 On ch=1 n=a4 v=91
315466 On ch=1 n=a4 v=0
315498 On ch=1 n=c5 v=87
315596 On ch=1 n=c5 v=0
315624 On ch=1 n=f#4 v=109
315732 On ch=1 n=a4 v=97
315738 On ch=1 n=f#4 v=0
315838 On ch=1 n=d#4 v=107
315864 On ch=1 n=a4 v=0
315946 On ch=1 n=f#4 v=106
315980 On ch=1 n=d#4 v=0
316044 On ch=1 n=c4 v=102
316048 On ch=1 n=f#4 v=0
316144 On ch=1 n=c4 v=0
316154 On ch=1 n=d#4 v=120
316274 On ch=1 n=d#4 v=0
316284 On ch=1 n=a3 v=111
316376 On ch=1 n=a3 v=0
316432 On ch=1 n=c4 v=117
316534 On ch=1 n=f#3 v=0
316600 On ch=1 n=c4 v=0
316694 On ch=1 n=f#3 v=120
316814 On ch=1 n=f#3 v=0
316940 On ch=1 n=a3 v=114
317032 On ch=1 n=a3 v=0
317182 On ch=1 n=d#3 v=120
317280 On ch=1 n=d#3 v=0
317364 On ch=1 n=f#3 v=119
317492 On ch=1 n=f#2 v=0
317502 On ch=1 n=f#3 v=0
317548 On ch=1 n=c3 v=112
317820 On ch=1 n=d#3 v=126
317940 On ch=1 n=c3 v=0
318164 On ch=1 n=a#2 v=123
318180 Par ch=1 c=64 v=63
318184 Par ch=1 c=64 v=0
318398 Par ch=1 c=64 v=63
318402 Par ch=1 c=64 v=127
318470 On ch=1 n=d#3 v=0
318622 On ch=1 n=a#2 v=0
318912 On ch=1 n=a2 v=127
318918 On ch=1 n=f2 v=125
319022 Par ch=1 c=64 v=63
319032 Par ch=1 c=64 v=0
319708 Par ch=1 c=64 v=63
319746 Par ch=1 c=64 v=127
320844 On ch=1 n=c3 v=112
321132 On ch=1 n=d#3 v=104
321194 On ch=1 n=c3 v=0
321354 On ch=1 n=f3 v=99
321366 On ch=1 n=d#3 v=0
321460 On ch=1 n=f3 v=0
321554 On ch=1 n=a3 v=92
321746 On ch=1 n=c4 v=102
321760 On ch=1 n=a3 v=0
321908 On ch=1 n=d#4 v=95
321960 On ch=1 n=c4 v=0
322020 On ch=1 n=f4 v=85
322036 On ch=1 n=d#4 v=0
322090 On ch=1 n=f4 v=0
322162 On ch=1 n=a4 v=85
322280 On ch=1 n=c5 v=98
322288 On ch=1 n=a4 v=0
322366 On ch=1 n=d#5 v=100
322394 On ch=1 n=c5 v=0
322402 On ch=1 n=a2 v=0
322446 On ch=1 n=f5 v=93
322466 On ch=1 n=d#5 v=0
322476 On ch=1 n=f2 v=0
322512 On ch=1 n=f5 v=0
322568 On ch=1 n=a5 v=93
322658 On ch=1 n=c6 v=100
322668 On ch=1 n=a5 v=0
322722 On ch=1 n=d#6 v=105
322770 On ch=1 n=c6 v=0
322796 On ch=1 n=f6 v=91
322818 On ch=1 n=d#6 v=0
322840 On ch=1 n=f6 v=0
322906 On ch=1 n=a6 v=101
323014 On ch=1 n=c7 v=112
323026 On ch=1 n=a6 v=0
323130 On ch=1 n=d#5 v=120
323136 On ch=1 n=c5 v=107
323140 On ch=1 n=f4 v=83
323142 On ch=1 n=a4 v=89
323150 On ch=1 n=d#7 v=125
323192 On ch=1 n=c7 v=0
323218 Par ch=1 c=64 v=63
323230 Par ch=1 c=64 v=0
324698 Par ch=1 c=64 v=63
324718 Par ch=1 c=64 v=127
324938 On ch=1 n=d#7 v=0
324938 On ch=1 n=d7 v=104
325246 On ch=1 n=c7 v=108
325310 On ch=1 n=d7 v=0
325500 On ch=1 n=a#6 v=112
325552 On ch=1 n=c7 v=0
325680 On ch=1 n=a6 v=97
325748 On ch=1 n=a#6 v=0
325840 On ch=1 n=g6 v=98
325910 On ch=1 n=a6 v=0
325996 On ch=1 n=f6 v=93
326022 On ch=1 n=g6 v=0
326124 On ch=1 n=f6 v=0
326142 On ch=1 n=e6 v=101
326282 On ch=1 n=d#6 v=103
326314 On ch=1 n=e6 v=0
326406 On ch=1 n=d6 v=76
326420 On ch=1 n=d#6 v=0
326504 On ch=1 n=d6 v=0
326510 On ch=1 n=c6 v=79
326590 On ch=1 n=c6 v=0
326598 On ch=1 n=a#5 v=101
326604 On ch=1 n=d#5 v=0
326666 On ch=1 n=c5 v=0
326672 On ch=1 n=a4 v=0
326700 On ch=1 n=a5 v=87
326716 On ch=1 n=a#5 v=0
326772 On ch=1 n=f4 v=0
326778 On ch=1 n=g5 v=87
326800 On ch=1 n=a5 v=0
326860 On ch=1 n=f5 v=88
326864 On ch=1 n=g5 v=0
326960 On ch=1 n=e5 v=103
326962 On ch=1 n=f5 v=0
327104 On ch=1 n=e5 v=0
327222 On ch=1 n=f3 v=91
327222 On ch=1 n=d#4 v=114
327224 On ch=1 n=c4 v=104
327228 On ch=1 n=a3 v=76
327232 On ch=1 n=d#5 v=115
327234 On ch=1 n=d#6 v=115
327416 Par ch=1 c=64 v=63
327446 Par ch=1 c=64 v=0
328596 Par ch=1 c=64 v=63
328598 Par ch=1 c=64 v=127
328866 On ch=1 n=f3 v=0
328914 On ch=1 n=a3 v=0
328930 On ch=1 n=d#4 v=0
328932 On ch=1 n=c4 v=0
329022 On ch=1 n=d#5 v=0
329224 On ch=1 n=d#6 v=0
329230 On ch=1 n=d5 v=97
329242 On ch=1 n=d6 v=84
329546 On ch=1 n=d6 v=0
329564 On ch=1 n=d5 v=0
329596 On ch=1 n=c6 v=96
329604 On ch=1 n=c5 v=94
329740 On ch=1 n=c6 v=0
329742 On ch=1 n=c5 v=0
329862 On ch=1 n=a#5 v=100
329878 On ch=1 n=a#4 v=79
329940 On ch=1 n=a#4 v=0
329944 On ch=1 n=a#5 v=0
330056 On ch=1 n=a5 v=88
330058 On ch=1 n=a4 v=78
330148 On ch=1 n=a5 v=0
330166 On ch=1 n=a4 v=0
330226 On ch=1 n=g5 v=84
330244 On ch=1 n=g4 v=76
330316 On ch=1 n=g5 v=0
330364 On ch=1 n=g4 v=0
330386 On ch=1 n=f5 v=86
330396 On ch=1 n=f4 v=87
330520 On ch=1 n=f4 v=0
330524 On ch=1 n=f5 v=0
330530 On ch=1 n=e5 v=88
330542 On ch=1 n=e4 v=77
330644 On ch=1 n=e5 v=0
330682 On ch=1 n=d#5 v=105
330686 On ch=1 n=e4 v=0
330686 On ch=1 n=d#4 v=88
330786 On ch=1 n=d#4 v=0
330820 On ch=1 n=d5 v=98
330822 On ch=1 n=d4 v=72
330876 On ch=1 n=d#5 v=0
330950 On ch=1 n=c4 v=89
330960 On ch=1 n=d5 v=0
330962 On ch=1 n=c5 v=89
330964 On ch=1 n=d4 v=0
331056 On ch=1 n=a#3 v=101
331068 On ch=1 n=a#4 v=108
331072 On ch=1 n=c4 v=0
331074 On ch=1 n=c5 v=0
331160 On ch=1 n=a3 v=87
331170 On ch=1 n=a#3 v=0
331184 On ch=1 n=a4 v=100
331258 On ch=1 n=a#4 v=0
331288 On ch=1 n=g3 v=102
331294 On ch=1 n=g4 v=92
331318 On ch=1 n=a4 v=0
331318 On ch=1 n=a3 v=0
331404 On ch=1 n=g4 v=0
331412 On ch=1 n=f3 v=101
331432 On ch=1 n=f4 v=111
331460 On ch=1 n=g3 v=0
331592 On ch=1 n=e4 v=111
331596 On ch=1 n=e3 v=111
331650 On ch=1 n=f3 v=0
331672 On ch=1 n=e3 v=0
331674 On ch=1 n=f4 v=0
331720 On ch=1 n=e4 v=0
331954 On ch=1 n=d#4 v=121
331956 On ch=1 n=a2 v=90
331956 On ch=1 n=f2 v=86
331958 On ch=1 n=d#3 v=113
331960 On ch=1 n=c3 v=109
332060 Par ch=1 c=64 v=63
332074 Par ch=1 c=64 v=0
334552 Par ch=1 c=64 v=63
334608 Par ch=1 c=64 v=127
334802 On ch=1 n=f4 v=68
334892 On ch=1 n=d#4 v=0
335084 On ch=1 n=d#4 v=86
335144 On ch=1 n=f4 v=0
335304 On ch=1 n=d4 v=83
335360 On ch=1 n=d#4 v=0
335484 On ch=1 n=d#4 v=91
335500 On ch=1 n=d4 v=0
335628 On ch=1 n=d#4 v=0
335642 On ch=1 n=e4 v=77
335782 On ch=1 n=e4 v=0
335798 On ch=1 n=f4 v=78
335906 On ch=1 n=f#4 v=90
335926 On ch=1 n=f4 v=0
336032 On ch=1 n=f#4 v=0
336036 On ch=1 n=g4 v=75
336162 On ch=1 n=g4 v=0
336166 On ch=1 n=g#4 v=88
336268 On ch=1 n=g#4 v=0
336286 On ch=1 n=a4 v=62
336386 On ch=1 n=a4 v=0
336396 On ch=1 n=a#4 v=76
336480 On ch=1 n=a#4 v=0
336492 On ch=1 n=b4 v=80
336592 On ch=1 n=b4 v=0
336600 On ch=1 n=c5 v=80
336666 On ch=1 n=c#5 v=97
336680 On ch=1 n=c5 v=0
336754 On ch=1 n=c#5 v=0
336766 On ch=1 n=d5 v=80
336842 On ch=1 n=d5 v=0
336844 On ch=1 n=d#5 v=98
336914 On ch=1 n=d#5 v=0
336944 On ch=1 n=e5 v=83
337008 On ch=1 n=f5 v=63
337018 On ch=1 n=e5 v=0
337078 On ch=1 n=f#5 v=103
337092 On ch=1 n=f5 v=0
337152 On ch=1 n=f#5 v=0
337162 On ch=1 n=g5 v=81
337232 On ch=1 n=g5 v=0
337234 On ch=1 n=g#5 v=103
337304 On ch=1 n=g#5 v=0
337320 On ch=1 n=a5 v=92
337390 On ch=1 n=a5 v=0
337392 On ch=1 n=a#5 v=103
337450 On ch=1 n=a#5 v=0
337472 On ch=1 n=b5 v=100
337544 On ch=1 n=c6 v=94
337556 On ch=1 n=b5 v=0
337604 On ch=1 n=c#6 v=104
337620 On ch=1 n=c6 v=0
337680 On ch=1 n=d6 v=98
337692 On ch=1 n=c#6 v=0
337750 On ch=1 n=d#6 v=107
337756 On ch=1 n=d6 v=0
337822 On ch=1 n=d#6 v=0
337836 On ch=1 n=e6 v=103
337910 On ch=1 n=f6 v=93
337928 On ch=1 n=e6 v=0
337974 On ch=1 n=f#6 v=109
337990 On ch=1 n=f6 v=0
338052 On ch=1 n=g6 v=93
338070 On ch=1 n=f#6 v=0
338130 On ch=1 n=g#6 v=108
338138 On ch=1 n=g6 v=0
338214 On ch=1 n=g#6 v=0
338218 Par ch=1 c=64 v=63
338228 On ch=1 n=a6 v=102
338236 Par ch=1 c=64 v=0
338308 On ch=1 n=a#6 v=108
338312 On ch=1 n=a6 v=0
338318 Par ch=1 c=64 v=63
338332 Par ch=1 c=64 v=127
338412 On ch=1 n=b6 v=91
338414 On ch=1 n=a#6 v=0
338438 Par ch=1 c=64 v=63
338452 Par ch=1 c=64 v=0
338504 On ch=1 n=c7 v=98
338524 Par ch=1 c=64 v=63
338540 Par ch=1 c=64 v=127
338566 On ch=1 n=b6 v=0
338592 On ch=1 n=f2 v=0
338598 On ch=1 n=c#7 v=101
338612 On ch=1 n=c7 v=0
338658 On ch=1 n=a2 v=0
338664 On ch=1 n=d#3 v=0
338670 On ch=1 n=c3 v=0
338698 On ch=1 n=d7 v=85
338700 On ch=1 n=c#7 v=0
338842 Par ch=1 c=64 v=63
338920 On ch=1 n=d#7 v=100
338964 Par ch=1 c=64 v=127
338996 On ch=1 n=d7 v=0
339184 Par ch=1 c=64 v=63
339302 Par ch=1 c=64 v=0
339390 On ch=1 n=c7 v=86
339512 Par ch=1 c=64 v=63
339550 Par ch=1 c=64 v=127
339650 On ch=1 n=d#7 v=0
339884 On ch=1 n=a6 v=62
339996 On ch=1 n=c7 v=0
340476 On ch=1 n=a6 v=0
340548 On ch=1 n=f6 v=59
340796 Par ch=1 c=64 v=63
340896 Par ch=1 c=64 v=127
341510 On ch=1 n=e6 v=46
341588 On ch=1 n=f6 v=0
341842 Par ch=1 c=64 v=63
341974 Par ch=1 c=64 v=0
342000 Par ch=1 c=64 v=63
342162 Par ch=1 c=64 v=0
342436 Par ch=1 c=64 v=63
342472 Par ch=1 c=64 v=127
342792 On ch=1 n=e6 v=0
343606 On ch=1 n=d#6 v=35
344022 Par ch=1 c=64 v=63
345134 Par ch=1 c=64 v=0
345536 Par ch=1 c=64 v=63
345614 Par ch=1 c=64 v=127
345918 On ch=1 n=d#6 v=0
347124 On ch=1 n=d6 v=38
347136 On ch=1 n=a#4 v=40
347140 On ch=1 n=f5 v=17
347156 On ch=1 n=d5 v=23
347218 Par ch=1 c=64 v=63
347388 Par ch=1 c=64 v=127
347642 On ch=1 n=f5 v=0
347702 On ch=1 n=a#4 v=0
347940 On ch=1 n=d5 v=0
347950 On ch=1 n=d6 v=0
348016 On ch=1 n=c6 v=54
348114 On ch=1 n=a#5 v=45
348132 On ch=1 n=c6 v=0
348260 On ch=1 n=a#5 v=0
348278 On ch=1 n=d#5 v=40
348280 On ch=1 n=a5 v=56
348292 On ch=1 n=c5 v=53
348294 On ch=1 n=f5 v=24
348340 Par ch=1 c=64 v=63
348408 Par ch=1 c=64 v=0
349314 On ch=1 n=f5 v=0
349316 On ch=1 n=d#5 v=0
349324 On ch=1 n=c5 v=0
349324 On ch=1 n=a5 v=0
350652 On ch=1 n=c6 v=63
350716 Par ch=1 c=64 v=63
350730 Par ch=1 c=64 v=127
350770 On ch=1 n=c6 v=0
350846 On ch=1 n=a5 v=54
350846 On ch=1 n=f5 v=34
350856 On ch=1 n=c5 v=46
350860 On ch=1 n=d#6 v=76
351054 Par ch=1 c=64 v=63
351146 Par ch=1 c=64 v=127
351474 On ch=1 n=d#6 v=0
351678 On ch=1 n=d6 v=87
351784 On ch=1 n=a5 v=0
351786 On ch=1 n=c6 v=84
351816 On ch=1 n=c5 v=0
351822 On ch=1 n=d6 v=0
351928 On ch=1 n=a#5 v=84
351954 On ch=1 n=c6 v=0
351964 On ch=1 n=d5 v=57
351966 Par ch=1 c=64 v=63
351988 Par ch=1 c=64 v=0
352128 Par ch=1 c=64 v=63
352152 Par ch=1 c=64 v=127
352386 On ch=1 n=a#5 v=0
352516 On ch=1 n=f5 v=0
352516 Par ch=1 c=64 v=63
352538 Par ch=1 c=64 v=0
352564 On ch=1 n=d5 v=0
352832 Par ch=1 c=64 v=63
352854 Par ch=1 c=64 v=127
352956 On ch=1 n=d6 v=91
353240 On ch=1 n=d5 v=84
353244 On ch=1 n=d4 v=90
353246 On ch=1 n=f6 v=98
353248 On ch=1 n=b5 v=87
353268 On ch=1 n=f5 v=57
353312 On ch=1 n=d6 v=0
353458 Par ch=1 c=64 v=63
353500 Par ch=1 c=64 v=0
353624 Par ch=1 c=64 v=63
353660 Par ch=1 c=64 v=127
354138 On ch=1 n=f5 v=0
354202 On ch=1 n=d5 v=0
354242 On ch=1 n=b5 v=0
354312 On ch=1 n=d#6 v=85
354314 On ch=1 n=d4 v=0
354340 On ch=1 n=f6 v=0
354424 On ch=1 n=d6 v=83
354458 On ch=1 n=d#6 v=0
354554 On ch=1 n=g5 v=76
354554 On ch=1 n=c6 v=102
354564 On ch=1 n=d#4 v=89
354564 On ch=1 n=d#5 v=93
354576 Par ch=1 c=64 v=63
354586 Par ch=1 c=64 v=0
354612 On ch=1 n=d6 v=0
354660 Par ch=1 c=64 v=63
354686 Par ch=1 c=64 v=127
354722 On ch=1 n=d#5 v=0
354746 On ch=1 n=d#4 v=0
354788 On ch=1 n=g5 v=0
354836 On ch=1 n=c6 v=0
355182 On ch=1 n=g6 v=97
355190 On ch=1 n=b4 v=74
355192 On ch=1 n=b3 v=78
355196 On ch=1 n=d6 v=79
355202 On ch=1 n=g5 v=48
355296 Par ch=1 c=64 v=63
355344 Par ch=1 c=64 v=0
355848 On ch=1 n=b4 v=0
355884 On ch=1 n=g6 v=0
355894 On ch=1 n=g5 v=0
355914 On ch=1 n=b3 v=0
355946 On ch=1 n=d6 v=0
356616 On ch=1 n=c4 v=52
356624 On ch=1 n=g5 v=43
356640 On ch=1 n=f6 v=57
356720 Par ch=1 c=64 v=63
356734 Par ch=1 c=64 v=127
357010 On ch=1 n=g5 v=0
357024 On ch=1 n=c4 v=0
357028 On ch=1 n=d#6 v=80
357046 On ch=1 n=f6 v=0
357110 On ch=1 n=d#6 v=0
357296 On ch=1 n=d4 v=63
357298 On ch=1 n=d#6 v=96
357328 On ch=1 n=f5 v=51
357358 Par ch=1 c=64 v=63
357394 Par ch=1 c=64 v=127
357530 On ch=1 n=d#6 v=0
357560 On ch=1 n=d6 v=87
357586 On ch=1 n=d4 v=0
357660 On ch=1 n=f5 v=0
357700 On ch=1 n=d6 v=0
357816 On ch=1 n=d#4 v=75
357834 On ch=1 n=d6 v=71
357836 On ch=1 n=d#5 v=74
357910 Par ch=1 c=64 v=63
357980 Par ch=1 c=64 v=127
358130 On ch=1 n=d#4 v=0
358140 On ch=1 n=c6 v=80
358184 On ch=1 n=d6 v=0
358282 On ch=1 n=d#5 v=0
358508 On ch=1 n=c6 v=0
358518 On ch=1 n=a#5 v=76
358532 On ch=1 n=d5 v=51
358542 On ch=1 n=f4 v=47
358686 Par ch=1 c=64 v=63
358712 Par ch=1 c=64 v=0
359284 Par ch=1 c=64 v=63
359298 Par ch=1 c=64 v=127
359592 On ch=1 n=a#5 v=0
359930 On ch=1 n=d5 v=0
359956 On ch=1 n=a5 v=35
360012 On ch=1 n=c5 v=20
360140 Par ch=1 c=64 v=63
360198 Par ch=1 c=64 v=0
360274 Par ch=1 c=64 v=63
360340 Par ch=1 c=64 v=127
360630 On ch=1 n=a5 v=0
360846 On ch=1 n=f4 v=0
360872 On ch=1 n=c5 v=0
361342 On ch=1 n=f5 v=50
361402 Par ch=1 c=64 v=63
361538 Par ch=1 c=64 v=0
361584 On ch=1 n=f5 v=0
361600 On ch=1 n=g5 v=59
361820 On ch=1 n=a5 v=72
361832 On ch=1 n=g5 v=0
362034 On ch=1 n=a#5 v=79
362044 On ch=1 n=a5 v=0
362224 On ch=1 n=a#5 v=0
362262 On ch=1 n=c6 v=83
362566 On ch=1 n=d6 v=91
362570 On ch=1 n=f5 v=63
362576 On ch=1 n=a#4 v=68
362628 On ch=1 n=c6 v=0
362984 Par ch=1 c=64 v=63
363038 Par ch=1 c=64 v=127
363318 On ch=1 n=a#4 v=0
363512 On ch=1 n=d6 v=0
363532 On ch=1 n=c6 v=78
363542 On ch=1 n=c5 v=54
363638 On ch=1 n=a#5 v=85
363646 On ch=1 n=c5 v=0
363646 On ch=1 n=d5 v=65
363666 On ch=1 n=c6 v=0
363734 Par ch=1 c=64 v=63
363782 Par ch=1 c=64 v=0
363784 On ch=1 n=a5 v=70
363792 On ch=1 n=a#5 v=0
363820 On ch=1 n=d#5 v=65
363826 On ch=1 n=d5 v=0
364432 On ch=1 n=a5 v=0
364450 On ch=1 n=f5 v=0
364452 On ch=1 n=d#5 v=0
364778 Par ch=1 c=64 v=63
364780 On ch=1 n=c6 v=102
364792 Par ch=1 c=64 v=127
364980 On ch=1 n=f5 v=92
364986 On ch=1 n=a4 v=85
364988 On ch=1 n=d#6 v=105
365022 On ch=1 n=c6 v=0
365084 Par ch=1 c=64 v=63
365184 Par ch=1 c=64 v=127
365636 On ch=1 n=d#6 v=0
365694 On ch=1 n=a4 v=0
365910 On ch=1 n=d6 v=104
365926 On ch=1 n=a#4 v=83
365996 On ch=1 n=f5 v=0
366024 On ch=1 n=c6 v=101
366028 On ch=1 n=c5 v=102
366070 On ch=1 n=d6 v=0
366084 On ch=1 n=a#4 v=0
366114 On ch=1 n=c5 v=0
366116 On ch=1 n=c6 v=0
366240 On ch=1 n=d4 v=113
366258 On ch=1 n=f6 v=93
366266 On ch=1 n=b5 v=80
366282 On ch=1 n=f5 v=69
366422 Par ch=1 c=64 v=63
366450 Par ch=1 c=64 v=0
366592 Par ch=1 c=64 v=63
366628 Par ch=1 c=64 v=127
366978 On ch=1 n=f5 v=0
367158 On ch=1 n=b5 v=0
367286 On ch=1 n=d#6 v=103
367296 On ch=1 n=d#4 v=86
367322 On ch=1 n=f6 v=0
367368 On ch=1 n=d4 v=0
367428 On ch=1 n=d6 v=103
367452 On ch=1 n=f4 v=98
367514 On ch=1 n=d#4 v=0
367540 On ch=1 n=d#6 v=0
367628 On ch=1 n=d#4 v=98
367638 On ch=1 n=f#6 v=109
367694 On ch=1 n=d6 v=0
367758 On ch=1 n=f4 v=0
367844 Par ch=1 c=64 v=63
367908 Par ch=1 c=64 v=0
368342 Par ch=1 c=64 v=63
368354 Par ch=1 c=64 v=127
368872 On ch=1 n=f#6 v=0
368964 On ch=1 n=c5 v=89
369286 On ch=1 n=g6 v=98
369332 On ch=1 n=c5 v=0
369590 On ch=1 n=d#6 v=101
369616 On ch=1 n=d#5 v=98
369688 On ch=1 n=g6 v=0
369864 On ch=1 n=c6 v=101
369902 On ch=1 n=d#6 v=0
369950 On ch=1 n=c6 v=0
369958 On ch=1 n=d#5 v=0
369990 On ch=1 n=d#4 v=0
370188 On ch=1 n=d5 v=76
370192 On ch=1 n=f4 v=69
370198 On ch=1 n=f5 v=75
370200 On ch=1 n=c6 v=99
370470 Par ch=1 c=64 v=63
370508 Par ch=1 c=64 v=0
370586 On ch=1 n=a#5 v=98
370688 Par ch=1 c=64 v=63
370708 Par ch=1 c=64 v=127
370754 On ch=1 n=c6 v=0
370842 On ch=1 n=a#5 v=0
370926 On ch=1 n=a#5 v=100
371498 On ch=1 n=a#4 v=80
371512 Par ch=1 c=64 v=63
371582 On ch=1 n=d5 v=0
371638 Par ch=1 c=64 v=127
371768 On ch=1 n=a#5 v=0
371834 On ch=1 n=d6 v=101
372102 On ch=1 n=d5 v=86
372320 On ch=1 n=f4 v=0
372366 On ch=1 n=f6 v=85
372412 On ch=1 n=d6 v=0
372638 On ch=1 n=f4 v=49
372642 On ch=1 n=c5 v=69
372674 On ch=1 n=a#4 v=0
372680 On ch=1 n=d5 v=0
372700 Par ch=1 c=64 v=63
372732 Par ch=1 c=64 v=0
372840 Par ch=1 c=64 v=63
372872 Par ch=1 c=64 v=127
373016 On ch=1 n=d#6 v=83
373066 On ch=1 n=f6 v=0
373328 On ch=1 n=a4 v=57
373378 On ch=1 n=c5 v=0
373628 On ch=1 n=d#6 v=0
373678 On ch=1 n=f5 v=0
373686 On ch=1 n=c6 v=62
373692 On ch=1 n=a4 v=0
373700 On ch=1 n=f4 v=0
373748 On ch=1 n=c6 v=0
374106 On ch=1 n=c6 v=68
374106 On ch=1 n=d#5 v=58
374124 On ch=1 n=a4 v=39
374138 On ch=1 n=a#3 v=43
374260 Par ch=1 c=64 v=63
374384 Par ch=1 c=64 v=127
374552 On ch=1 n=a4 v=0
374556 On ch=1 n=c6 v=0
374614 On ch=1 n=d#5 v=0
374910 On ch=1 n=a#4 v=41
374918 On ch=1 n=a#5 v=55
374924 On ch=1 n=d5 v=41
375078 Par ch=1 c=64 v=63
375144 Par ch=1 c=64 v=127
375424 On ch=1 n=d5 v=0
375426 On ch=1 n=a#5 v=0
375454 On ch=1 n=a#4 v=0
375482 On ch=1 n=a#3 v=0
375832 On ch=1 n=a#3 v=26
375840 On ch=1 n=a#4 v=27
375856 On ch=1 n=a#5 v=42
375862 On ch=1 n=d5 v=22
376038 Par ch=1 c=64 v=63
376230 Par ch=1 c=64 v=127
376716 On ch=1 n=a#3 v=0
376732 On ch=1 n=a#5 v=0
376762 On ch=1 n=a#4 v=0
376772 On ch=1 n=d5 v=0
376920 Par ch=1 c=64 v=63
377126 Par ch=1 c=64 v=0
379434 On ch=1 n=d5 v=71
379444 On ch=1 n=a#3 v=33
379466 Par ch=1 c=64 v=63
379470 On ch=1 n=d4 v=47
379528 Par ch=1 c=64 v=127
379548 On ch=1 n=f4 v=5
380208 On ch=1 n=a#3 v=0
380432 On ch=1 n=d4 v=0
380574 On ch=1 n=c5 v=59
380592 On ch=1 n=d5 v=0
380730 On ch=1 n=a#4 v=70
380770 On ch=1 n=c5 v=0
380872 On ch=1 n=d#4 v=47
380892 On ch=1 n=c4 v=19
380914 On ch=1 n=a4 v=55
380916 On ch=1 n=a#4 v=0
380918 Par ch=1 c=64 v=63
381010 Par ch=1 c=64 v=0
382038 On ch=1 n=a4 v=0
382044 On ch=1 n=d#4 v=0
382056 On ch=1 n=c4 v=0
382080 On ch=1 n=f4 v=0
383204 Par ch=1 c=64 v=63
383242 Par ch=1 c=64 v=127
383268 On ch=1 n=c5 v=69
383480 On ch=1 n=c5 v=0
383518 On ch=1 n=d#5 v=92
383522 On ch=1 n=a4 v=65
383538 On ch=1 n=f4 v=58
383538 On ch=1 n=c4 v=68
384334 On ch=1 n=d#5 v=0
384442 On ch=1 n=d5 v=87
384538 On ch=1 n=c5 v=89
384592 On ch=1 n=d5 v=0
384628 On ch=1 n=c4 v=0
384666 On ch=1 n=d4 v=58
384666 On ch=1 n=a#4 v=88
384710 On ch=1 n=c5 v=0
384710 On ch=1 n=a4 v=0
384746 Par ch=1 c=64 v=63
384758 Par ch=1 c=64 v=0
384942 Par ch=1 c=64 v=63
384966 Par ch=1 c=64 v=127
385188 On ch=1 n=a#4 v=0
385196 On ch=1 n=f4 v=0
385268 On ch=1 n=d4 v=0
385524 On ch=1 n=d5 v=107
385560 Par ch=1 c=64 v=63
385572 Par ch=1 c=64 v=0
385758 On ch=1 n=d3 v=101
385762 On ch=1 n=d4 v=104
385776 On ch=1 n=f5 v=104
385784 On ch=1 n=f4 v=91
385786 On ch=1 n=b4 v=99
385874 On ch=1 n=d5 v=0
386348 Par ch=1 c=64 v=63
386360 Par ch=1 c=64 v=127
386586 On ch=1 n=f4 v=0
386656 On ch=1 n=b4 v=0
386732 On ch=1 n=d4 v=0
386830 On ch=1 n=d#5 v=92
386868 On ch=1 n=f5 v=0
386970 On ch=1 n=d5 v=97
386976 On ch=1 n=d3 v=0
387038 On ch=1 n=d#5 v=0
387128 On ch=1 n=c5 v=100
387136 On ch=1 n=d#3 v=87
387136 On ch=1 n=d#4 v=93
387138 On ch=1 n=g4 v=84
387188 On ch=1 n=d5 v=0
387196 Par ch=1 c=64 v=63
387212 Par ch=1 c=64 v=0
387308 Par ch=1 c=64 v=63
387334 Par ch=1 c=64 v=127
387402 On ch=1 n=d#4 v=0
387422 On ch=1 n=g4 v=0
387432 On ch=1 n=d#3 v=0
387440 On ch=1 n=c5 v=0
387494 Par ch=1 c=64 v=63
387512 Par ch=1 c=64 v=0
387724 Par ch=1 c=64 v=63
387764 Par ch=1 c=64 v=127
387884 On ch=1 n=g5 v=86
387888 On ch=1 n=b3 v=69
387896 On ch=1 n=d5 v=83
387898 On ch=1 n=b2 v=73
387902 On ch=1 n=g4 v=55
388118 On ch=1 n=b3 v=0
388154 On ch=1 n=b2 v=0
388188 On ch=1 n=g4 v=0
388218 On ch=1 n=d5 v=0
388222 On ch=1 n=g5 v=0
388650 Par ch=1 c=64 v=63
388688 Par ch=1 c=64 v=0
389570 On ch=1 n=c3 v=52
389570 On ch=1 n=f5 v=67
389580 On ch=1 n=g4 v=40
389674 Par ch=1 c=64 v=63
389684 Par ch=1 c=64 v=127
390034 On ch=1 n=d#5 v=71
390090 On ch=1 n=f5 v=0
390096 On ch=1 n=g4 v=0
390152 On ch=1 n=d#5 v=0
390330 On ch=1 n=d#5 v=90
390342 On ch=1 n=d3 v=66
390358 On ch=1 n=f4 v=58
390386 On ch=1 n=c3 v=0
390582 On ch=1 n=d#5 v=0
390604 On ch=1 n=d5 v=91
390694 On ch=1 n=f4 v=0
390756 On ch=1 n=d5 v=0
390874 On ch=1 n=d#3 v=81
390874 On ch=1 n=d5 v=88
390894 On ch=1 n=d3 v=0
390898 On ch=1 n=d#4 v=82
390974 Par ch=1 c=64 v=63
391004 Par ch=1 c=64 v=0
391054 Par ch=1 c=64 v=63
391090 Par ch=1 c=64 v=127
391162 On ch=1 n=c5 v=102
391224 On ch=1 n=d5 v=0
391396 On ch=1 n=d#4 v=0
391428 On ch=1 n=c5 v=0
391538 On ch=1 n=a#4 v=90
391548 On ch=1 n=d#3 v=0
391572 On ch=1 n=d4 v=50
391582 On ch=1 n=f3 v=50
391744 Par ch=1 c=64 v=63
391786 Par ch=1 c=64 v=0
392300 Par ch=1 c=64 v=63
392314 Par ch=1 c=64 v=127
392602 On ch=1 n=d4 v=0
392606 On ch=1 n=a#4 v=0
392888 On ch=1 n=f3 v=0
393150 On ch=1 n=a4 v=40
393162 On ch=1 n=c4 v=21
393186 On ch=1 n=f2 v=25
393342 Par ch=1 c=64 v=63
393392 Par ch=1 c=64 v=0
393542 Par ch=1 c=64 v=63
393588 Par ch=1 c=64 v=127
394010 On ch=1 n=c4 v=0
394040 On ch=1 n=a4 v=0
394216 On ch=1 n=f2 v=0
394358 Par ch=1 c=64 v=63
394514 Par ch=1 c=64 v=0
394734 On ch=1 n=f3 v=44
395138 On ch=1 n=g3 v=64
395166 On ch=1 n=f3 v=0
395458 On ch=1 n=a3 v=80
395488 On ch=1 n=g3 v=0
395752 On ch=1 n=a#3 v=90
395842 On ch=1 n=a3 v=0
396018 On ch=1 n=c4 v=94
396100 On ch=1 n=a#3 v=0
396294 On ch=1 n=d4 v=88
396312 On ch=1 n=a#2 v=79
396422 On ch=1 n=c4 v=0
397380 On ch=1 n=c4 v=71
397392 On ch=1 n=d4 v=0
397408 On ch=1 n=c3 v=64
397462 On ch=1 n=a#2 v=0
397500 On ch=1 n=a#3 v=78
397508 On ch=1 n=c3 v=0
397512 On ch=1 n=d3 v=67
397558 On ch=1 n=c4 v=0
397652 On ch=1 n=d#3 v=55
397662 On ch=1 n=d3 v=0
397662 On ch=1 n=a3 v=60
397698 On ch=1 n=a#3 v=0
398414 On ch=1 n=a3 v=0
398432 On ch=1 n=d#3 v=0
398926 On ch=1 n=c4 v=84
399162 On ch=1 n=c3 v=80
399166 On ch=1 n=d#4 v=93
399218 On ch=1 n=c4 v=0
400220 Par ch=1 c=64 v=63
400306 On ch=1 n=d3 v=68
400314 On ch=1 n=d4 v=74
400318 Par ch=1 c=64 v=127
400380 On ch=1 n=c3 v=0
400404 On ch=1 n=d#4 v=0
400412 On ch=1 n=d4 v=0
400428 On ch=1 n=c4 v=76
400454 On ch=1 n=d#3 v=81
400476 On ch=1 n=d3 v=0
400576 Par ch=1 c=64 v=63
400614 On ch=1 n=f4 v=90
400618 On ch=1 n=c4 v=0
400618 On ch=1 n=d3 v=84
400620 On ch=1 n=d#3 v=0
400638 Par ch=1 c=64 v=0
400724 On ch=1 n=a#3 v=69
400800 Par ch=1 c=64 v=63
400838 Par ch=1 c=64 v=127
401078 On ch=1 n=a#4 v=83
401140 On ch=1 n=f4 v=0
401280 Par ch=1 c=64 v=63
401310 Par ch=1 c=64 v=0
401422 On ch=1 n=a4 v=90
401496 Par ch=1 c=64 v=63
401544 On ch=1 n=a#4 v=0
401546 Par ch=1 c=64 v=127
401706 On ch=1 n=g#4 v=107
401740 On ch=1 n=a4 v=0
401998 On ch=1 n=d#3 v=81
402000 On ch=1 n=f#4 v=104
402010 On ch=1 n=g#4 v=0
402086 On ch=1 n=d3 v=0
402202 Par ch=1 c=64 v=63
402264 Par ch=1 c=64 v=0
402668 Par ch=1 c=64 v=63
402672 Par ch=1 c=64 v=127
402676 On ch=1 n=g4 v=98
402748 On ch=1 n=f#4 v=0
403056 On ch=1 n=d#3 v=0
403322 On ch=1 n=c#4 v=91
403366 On ch=1 n=e3 v=68
403476 Par ch=1 c=64 v=63
403478 On ch=1 n=a#3 v=0
403584 Par ch=1 c=64 v=127
403764 On ch=1 n=g4 v=0
403806 On ch=1 n=a4 v=48
403852 On ch=1 n=g4 v=63
403872 On ch=1 n=a4 v=0
403912 On ch=1 n=f#4 v=80
403940 On ch=1 n=g4 v=0
404000 On ch=1 n=g4 v=71
404022 On ch=1 n=f#4 v=0
404126 On ch=1 n=a4 v=91
404172 Par ch=1 c=64 v=63
404192 On ch=1 n=g4 v=0
404204 Par ch=1 c=64 v=0
404284 Par ch=1 c=64 v=63
404322 Par ch=1 c=64 v=127
404448 On ch=1 n=a#4 v=105
404518 On ch=1 n=a4 v=0
404764 On ch=1 n=c#4 v=0
404776 On ch=1 n=a#4 v=0
404822 On ch=1 n=a#4 v=92
404842 On ch=1 n=d4 v=60
404870 On ch=1 n=f3 v=63
404894 On ch=1 n=e3 v=0
405094 Par ch=1 c=64 v=63
405122 Par ch=1 c=64 v=0
405632 On ch=1 n=f4 v=76
405674 On ch=1 n=a#4 v=0
405740 Par ch=1 c=64 v=63
405756 Par ch=1 c=64 v=127
406170 On ch=1 n=f3 v=0
406268 On ch=1 n=d4 v=0
406322 On ch=1 n=f3 v=73
406326 On ch=1 n=f4 v=0
406662 On ch=1 n=d4 v=57
406662 On ch=1 n=f4 v=65
406956 On ch=1 n=d4 v=0
406982 On ch=1 n=f4 v=0
406982 On ch=1 n=d#4 v=84
407008 On ch=1 n=g4 v=66
407232 On ch=1 n=d#4 v=0
407234 Par ch=1 c=64 v=63
407264 Par ch=1 c=64 v=127
407268 On ch=1 n=f4 v=86
407280 On ch=1 n=d4 v=80
407306 On ch=1 n=g4 v=0
407464 On ch=1 n=d4 v=0
407472 On ch=1 n=f3 v=0
407476 On ch=1 n=f4 v=0
407534 On ch=1 n=f2 v=52
407554 On ch=1 n=d4 v=69
407554 On ch=1 n=f4 v=67
407582 Par ch=1 c=64 v=63
407646 Par ch=1 c=64 v=127
407802 On ch=1 n=d4 v=0
407810 On ch=1 n=f4 v=0
407814 On ch=1 n=d#4 v=80
407818 On ch=1 n=c4 v=60
407900 On ch=1 n=d#4 v=0
407948 On ch=1 n=c4 v=0
408098 On ch=1 n=a#3 v=64
408116 Par ch=1 c=64 v=63
408124 On ch=1 n=d4 v=49
408150 Par ch=1 c=64 v=0
408252 Par ch=1 c=64 v=63
408318 Par ch=1 c=64 v=127
408392 On ch=1 n=a#3 v=0
408410 On ch=1 n=c4 v=68
408426 On ch=1 n=a3 v=46
408428 On ch=1 n=d4 v=0
408466 On ch=1 n=f2 v=0
408558 On ch=1 n=c4 v=0
408656 On ch=1 n=a3 v=0
408764 On ch=1 n=c4 v=63
408768 On ch=1 n=a3 v=40
408784 On ch=1 n=d#3 v=52
408788 On ch=1 n=a#2 v=62
408904 Par ch=1 c=64 v=63
408938 Par ch=1 c=64 v=0
409460 On ch=1 n=a#3 v=58
409490 On ch=1 n=a3 v=0
409532 On ch=1 n=d3 v=36
409542 On ch=1 n=d#3 v=0
409596 On ch=1 n=c4 v=0
409598 Par ch=1 c=64 v=63
409616 Par ch=1 c=64 v=0
409836 Par ch=1 c=64 v=63
409860 Par ch=1 c=64 v=127
410054 On ch=1 n=d3 v=0
410060 On ch=1 n=a#3 v=0
410062 On ch=1 n=a#2 v=0
410324 On ch=1 n=a#3 v=63
410346 On ch=1 n=a#2 v=32
410358 On ch=1 n=d3 v=37
410552 Par ch=1 c=64 v=63
412244 Par ch=1 c=64 v=0
412316 On ch=1 n=a#3 v=0
412322 On ch=1 n=a#2 v=0
412328 On ch=1 n=d3 v=0
413596 Par ch=1 c=64 v=63
413874 On ch=1 n=c6 v=42
413880 On ch=1 n=f4 v=25
413906 On ch=1 n=a5 v=19
413932 Par ch=1 c=64 v=127
414508 On ch=1 n=f5 v=34
414736 On ch=1 n=f5 v=0
414868 On ch=1 n=f5 v=35
414974 On ch=1 n=a5 v=0
415018 On ch=1 n=f5 v=0
415134 On ch=1 n=c6 v=0
415154 On ch=1 n=f5 v=29
415248 On ch=1 n=f5 v=0
415406 On ch=1 n=f5 v=32
415544 On ch=1 n=f5 v=0
415664 On ch=1 n=d6 v=47
415670 On ch=1 n=a#5 v=43
415678 On ch=1 n=f5 v=25
415770 On ch=1 n=f5 v=0
415788 On ch=1 n=a#5 v=0
415870 On ch=1 n=d6 v=0
415922 On ch=1 n=d#6 v=85
415940 On ch=1 n=f5 v=34
415976 On ch=1 n=c6 v=25
416022 On ch=1 n=f5 v=0
416090 On ch=1 n=d#6 v=0
416114 On ch=1 n=c6 v=0
416156 On ch=1 n=f6 v=91
416168 On ch=1 n=f5 v=48
416170 On ch=1 n=d6 v=76
416256 On ch=1 n=f5 v=0
416276 On ch=1 n=d6 v=0
416276 On ch=1 n=f6 v=0
416412 On ch=1 n=f5 v=55
416430 On ch=1 n=g6 v=80
416448 On ch=1 n=d#6 v=73
416526 Par ch=1 c=64 v=63
416578 On ch=1 n=f5 v=0
416596 Par ch=1 c=64 v=127
416684 On ch=1 n=f5 v=37
416758 On ch=1 n=d#6 v=0
416772 On ch=1 n=f5 v=0
416786 On ch=1 n=g6 v=0
416874 Par ch=1 c=64 v=63
416894 On ch=1 n=f5 v=44
416902 On ch=1 n=f6 v=80
416936 On ch=1 n=d6 v=50
416964 Par ch=1 c=64 v=127
417032 On ch=1 n=f5 v=0
417120 On ch=1 n=d6 v=0
417130 On ch=1 n=f5 v=51
417136 On ch=1 n=f6 v=0
417244 On ch=1 n=f5 v=0
417400 Par ch=1 c=64 v=63
417408 On ch=1 n=c#6 v=60
417410 On ch=1 n=e6 v=65
417412 On ch=1 n=f5 v=38
417488 Par ch=1 c=64 v=127
417498 On ch=1 n=f4 v=0
417544 On ch=1 n=f5 v=0
417594 On ch=1 n=c#6 v=0
417630 On ch=1 n=e6 v=0
417638 On ch=1 n=f5 v=50
417728 On ch=1 n=f5 v=0
417860 On ch=1 n=d#6 v=76
417870 On ch=1 n=f5 v=42
417888 On ch=1 n=c6 v=53
417970 On ch=1 n=f5 v=0
417986 On ch=1 n=d#6 v=0
418028 On ch=1 n=c6 v=0
418102 On ch=1 n=f5 v=50
418204 On ch=1 n=f5 v=0
418336 On ch=1 n=b5 v=50
418342 Par ch=1 c=64 v=63
418344 On ch=1 n=f5 v=48
418346 On ch=1 n=d6 v=57
418386 Par ch=1 c=64 v=127
418444 On ch=1 n=f5 v=0
418536 On ch=1 n=d6 v=0
418550 On ch=1 n=f5 v=39
418626 On ch=1 n=b5 v=0
418656 On ch=1 n=f5 v=0
418814 On ch=1 n=f5 v=32
418816 On ch=1 n=c#6 v=62
418826 On ch=1 n=a#5 v=55
418902 On ch=1 n=f5 v=0
418976 On ch=1 n=c#6 v=0
419004 On ch=1 n=a#5 v=0
419036 On ch=1 n=f5 v=26
419118 On ch=1 n=f5 v=0
419294 On ch=1 n=f5 v=33
419310 On ch=1 n=c6 v=47
419318 On ch=1 n=a5 v=34
419432 On ch=1 n=f5 v=0
419550 On ch=1 n=f5 v=32
419602 On ch=1 n=a5 v=0
419680 On ch=1 n=f5 v=0
419700 On ch=1 n=c6 v=0
419826 On ch=1 n=f5 v=23
419928 On ch=1 n=f5 v=0
420130 On ch=1 n=f5 v=47
420220 On ch=1 n=f5 v=0
420516 On ch=1 n=a5 v=65
420554 On ch=1 n=c5 v=52
420560 On ch=1 n=f3 v=39
420974 On ch=1 n=f4 v=26
421132 On ch=1 n=f4 v=0
421250 On ch=1 n=f4 v=35
421258 On ch=1 n=c5 v=0
421356 On ch=1 n=f4 v=0
421394 On ch=1 n=a5 v=0
421486 On ch=1 n=f4 v=49
421578 On ch=1 n=f4 v=0
421710 On ch=1 n=f4 v=60
421822 On ch=1 n=f4 v=0
421922 On ch=1 n=a#5 v=81
421928 On ch=1 n=d5 v=65
421950 On ch=1 n=f4 v=45
421998 On ch=1 n=d5 v=0
422034 On ch=1 n=f4 v=0
422082 On ch=1 n=a#5 v=0
422156 On ch=1 n=c6 v=83
422158 On ch=1 n=f4 v=53
422162 On ch=1 n=d#5 v=81
422258 On ch=1 n=f4 v=0
422260 On ch=1 n=d#5 v=0
422286 On ch=1 n=c6 v=0
422378 On ch=1 n=d6 v=90
422388 On ch=1 n=f4 v=56
422396 On ch=1 n=f5 v=70
422492 On ch=1 n=f4 v=0
422510 On ch=1 n=f5 v=0
422512 On ch=1 n=d6 v=0
422652 On ch=1 n=f4 v=48
422678 On ch=1 n=d#6 v=86
422694 On ch=1 n=g5 v=52
422756 Par ch=1 c=64 v=63
422836 On ch=1 n=f4 v=0
422868 Par ch=1 c=64 v=127
422984 On ch=1 n=f4 v=44
423050 On ch=1 n=d#6 v=0
423052 On ch=1 n=g5 v=0
423094 On ch=1 n=f4 v=0
423236 On ch=1 n=f5 v=63
423240 On ch=1 n=d6 v=70
423248 On ch=1 n=f4 v=49
423350 On ch=1 n=f4 v=0
423394 On ch=1 n=f5 v=0
423396 On ch=1 n=d6 v=0
423480 On ch=1 n=f4 v=45
423588 On ch=1 n=f4 v=0
423696 On ch=1 n=c#6 v=76
423702 Par ch=1 c=64 v=63
423710 On ch=1 n=e5 v=44
423732 Par ch=1 c=64 v=127
423736 On ch=1 n=f4 v=44
423842 On ch=1 n=f4 v=0
423890 On ch=1 n=c#6 v=0
423910 On ch=1 n=e5 v=0
423938 On ch=1 n=f4 v=37
424046 On ch=1 n=f4 v=0
424164 On ch=1 n=c6 v=70
424164 On ch=1 n=d#5 v=65
424190 On ch=1 n=f4 v=47
424276 On ch=1 n=f4 v=0
424350 On ch=1 n=c6 v=0
424384 On ch=1 n=f4 v=28
424394 On ch=1 n=d#5 v=0
424466 On ch=1 n=f4 v=0
424638 On ch=1 n=f4 v=39
424644 On ch=1 n=b5 v=64
424660 On ch=1 n=d5 v=57
424764 On ch=1 n=f4 v=0
424812 On ch=1 n=b5 v=0
424826 On ch=1 n=d5 v=0
424880 On ch=1 n=f4 v=30
425004 On ch=1 n=f4 v=0
425136 On ch=1 n=a#5 v=68
425146 On ch=1 n=c#5 v=62
425154 On ch=1 n=f4 v=34
425250 On ch=1 n=f4 v=0
425322 On ch=1 n=a#5 v=0
425346 On ch=1 n=c#5 v=0
425386 On ch=1 n=f4 v=29
425534 On ch=1 n=f4 v=0
425758 On ch=1 n=a5 v=44
425762 On ch=1 n=c5 v=35
425794 On ch=1 n=f4 v=26
425914 Par ch=1 c=64 v=63
426038 Par ch=1 c=64 v=127
426174 On ch=1 n=f3 v=0
426254 On ch=1 n=c5 v=0
426382 On ch=1 n=a5 v=0
426404 On ch=1 n=f4 v=0
426682 Par ch=1 c=64 v=63
426804 Par ch=1 c=64 v=0
427110 On ch=1 n=d6 v=96
427112 On ch=1 n=a#4 v=103
427136 On ch=1 n=f5 v=76
427246 Par ch=1 c=64 v=63
427250 Par ch=1 c=64 v=127
428004 On ch=1 n=c6 v=97
428046 On ch=1 n=c5 v=94
428072 On ch=1 n=d6 v=0
428118 On ch=1 n=a#4 v=0
428136 On ch=1 n=a#5 v=107
428138 On ch=1 n=f5 v=0
428150 On ch=1 n=d5 v=87
428164 On ch=1 n=c5 v=0
428198 On ch=1 n=c6 v=0
428302 On ch=1 n=a5 v=104
428302 On ch=1 n=d#5 v=87
428310 On ch=1 n=d5 v=0
428310 On ch=1 n=f5 v=80
428332 Par ch=1 c=64 v=63
428350 Par ch=1 c=64 v=0
428364 On ch=1 n=a#5 v=0
428536 Par ch=1 c=64 v=63
428560 Par ch=1 c=64 v=127
428694 On ch=1 n=f5 v=0
428744 On ch=1 n=d#5 v=0
428798 On ch=1 n=a5 v=0
429508 On ch=1 n=a6 v=72
429642 Par ch=1 c=64 v=63
429734 Par ch=1 c=64 v=0
429778 On ch=1 n=d#7 v=73
429868 On ch=1 n=a6 v=0
430868 On ch=1 n=c7 v=73
430924 Par ch=1 c=64 v=63
430938 Par ch=1 c=64 v=127
430994 On ch=1 n=a6 v=84
431034 On ch=1 n=d#7 v=0
431160 On ch=1 n=a#5 v=60
431164 On ch=1 n=f7 v=84
431186 On ch=1 n=d5 v=62
431196 On ch=1 n=c7 v=0
431278 Par ch=1 c=64 v=63
431304 Par ch=1 c=64 v=0
431378 Par ch=1 c=64 v=63
431392 On ch=1 n=a6 v=0
431414 Par ch=1 c=64 v=127
431656 On ch=1 n=d7 v=94
431706 On ch=1 n=f7 v=0
431822 On ch=1 n=a#6 v=90
431874 On ch=1 n=d7 v=0
431904 Par ch=1 c=64 v=63
431920 Par ch=1 c=64 v=0
432084 Par ch=1 c=64 v=63
432104 Par ch=1 c=64 v=127
432484 On ch=1 n=d#5 v=81
432520 On ch=1 n=d5 v=0
432690 On ch=1 n=a#6 v=0
432772 On ch=1 n=a6 v=85
432856 On ch=1 n=a6 v=0
432866 On ch=1 n=a#6 v=94
432924 On ch=1 n=a#6 v=0
432932 On ch=1 n=a6 v=69
432998 On ch=1 n=g6 v=89
433006 On ch=1 n=a6 v=0
433066 On ch=1 n=a6 v=82
433090 On ch=1 n=g6 v=0
433234 On ch=1 n=c7 v=86
433296 On ch=1 n=a6 v=0
433644 On ch=1 n=a#6 v=103
433716 On ch=1 n=c7 v=0
433936 On ch=1 n=a6 v=97
433986 On ch=1 n=g5 v=71
434020 On ch=1 n=a#6 v=0
434094 Par ch=1 c=64 v=63
434144 Par ch=1 c=64 v=0
434252 On ch=1 n=g6 v=91
434288 On ch=1 n=d#5 v=0
434306 On ch=1 n=a6 v=0
434374 Par ch=1 c=64 v=63
434396 Par ch=1 c=64 v=127
434462 On ch=1 n=g6 v=0
434512 On ch=1 n=f6 v=86
434788 On ch=1 n=d#6 v=95
434854 On ch=1 n=f6 v=0
434940 On ch=1 n=a#5 v=0
435098 On ch=1 n=d6 v=77
435102 On ch=1 n=a#5 v=31
435128 On ch=1 n=f5 v=35
435180 On ch=1 n=d#6 v=0
435224 On ch=1 n=g5 v=0
435302 Par ch=1 c=64 v=63
435342 Par ch=1 c=64 v=0
435438 On ch=1 n=f6 v=71
435632 On ch=1 n=d6 v=0
435728 Par ch=1 c=64 v=63
435742 On ch=1 n=f6 v=0
435754 Par ch=1 c=64 v=127
435816 On ch=1 n=f6 v=86
435938 On ch=1 n=a#5 v=0
435998 On ch=1 n=f5 v=0
436394 On ch=1 n=a#4 v=70
436426 On ch=1 n=f4 v=48
436708 On ch=1 n=e6 v=86
436770 On ch=1 n=f6 v=0
436976 On ch=1 n=d#6 v=100
436978 Par ch=1 c=64 v=63
437068 On ch=1 n=e6 v=0
437092 Par ch=1 c=64 v=127
437230 On ch=1 n=d6 v=98
437320 On ch=1 n=d#6 v=0
437376 On ch=1 n=f4 v=0
437522 On ch=1 n=a4 v=53
437526 On ch=1 n=f6 v=78
437546 On ch=1 n=f4 v=31
437600 On ch=1 n=d6 v=0
437608 Par ch=1 c=64 v=63
437676 On ch=1 n=a#4 v=0
437728 Par ch=1 c=64 v=127
437832 On ch=1 n=d#6 v=90
437930 On ch=1 n=f6 v=0
438116 On ch=1 n=d#6 v=0
438174 On ch=1 n=d6 v=76
438178 On ch=1 n=a5 v=58
438194 On ch=1 n=d#5 v=54
438256 Par ch=1 c=64 v=63
438288 Par ch=1 c=64 v=0
438370 Par ch=1 c=64 v=63
438414 Par ch=1 c=64 v=127
438508 On ch=1 n=c6 v=82
438602 On ch=1 n=d6 v=0
438718 On ch=1 n=d#5 v=0
438748 On ch=1 n=a5 v=0
438782 On ch=1 n=a4 v=0
438794 On ch=1 n=c6 v=0
438916 On ch=1 n=a#4 v=57
438922 On ch=1 n=d#5 v=58
438930 On ch=1 n=c6 v=60
438934 On ch=1 n=a5 v=45
438988 On ch=1 n=f4 v=0
439050 Par ch=1 c=64 v=63
439078 Par ch=1 c=64 v=0
439308 Par ch=1 c=64 v=63
439340 Par ch=1 c=64 v=127
439526 On ch=1 n=d#5 v=0
439610 On ch=1 n=a#5 v=65
439660 On ch=1 n=c6 v=0
439662 On ch=1 n=d5 v=42
439672 On ch=1 n=a5 v=0
439682 Par ch=1 c=64 v=63
439712 Par ch=1 c=64 v=0
439738 Par ch=1 c=64 v=63
439808 Par ch=1 c=64 v=127
440124 On ch=1 n=a#5 v=0
440164 On ch=1 n=d5 v=0
440176 On ch=1 n=a#4 v=0
440408 On ch=1 n=a#4 v=30
440424 On ch=1 n=a#5 v=60
440438 On ch=1 n=d5 v=40
440632 Par ch=1 c=64 v=63
440728 Par ch=1 c=64 v=0
442154 Par ch=1 c=64 v=63
442180 Par ch=1 c=64 v=127
442272 On ch=1 n=d5 v=0
442280 On ch=1 n=a#4 v=0
442424 Par ch=1 c=64 v=63
442480 Par ch=1 c=64 v=0
443002 On ch=1 n=b5 v=45
443138 On ch=1 n=a#5 v=0
443168 Par ch=1 c=64 v=63
443180 Par ch=1 c=64 v=127
443534 On ch=1 n=b5 v=0
444038 On ch=1 n=c6 v=71
444060 On ch=1 n=a5 v=32
444070 On ch=1 n=f4 v=24
444258 Par ch=1 c=64 v=63
444286 Par ch=1 c=64 v=127
444640 On ch=1 n=f5 v=41
444854 On ch=1 n=f5 v=0
444930 On ch=1 n=a5 v=0
445000 On ch=1 n=f5 v=50
445042 On ch=1 n=c6 v=0
445136 On ch=1 n=f5 v=0
445270 On ch=1 n=f5 v=57
445386 On ch=1 n=f5 v=0
445516 On ch=1 n=f5 v=66
445652 On ch=1 n=f5 v=0
445730 On ch=1 n=f4 v=0
445770 On ch=1 n=d6 v=74
445770 On ch=1 n=f5 v=50
445778 On ch=1 n=a#5 v=66
445868 On ch=1 n=a#5 v=0
445872 On ch=1 n=f5 v=0
445916 On ch=1 n=d6 v=0
446042 On ch=1 n=f5 v=54
446056 On ch=1 n=d#6 v=97
446064 On ch=1 n=c6 v=70
446144 On ch=1 n=f5 v=0
446166 On ch=1 n=c6 v=0
446194 On ch=1 n=d#6 v=0
446254 On ch=1 n=f6 v=93
446278 On ch=1 n=f5 v=57
446280 On ch=1 n=d6 v=76
446380 On ch=1 n=f5 v=0
446436 On ch=1 n=d6 v=0
446468 On ch=1 n=f6 v=0
446504 On ch=1 n=d#6 v=82
446508 On ch=1 n=g6 v=68
446512 Par ch=1 c=64 v=63
446514 On ch=1 n=f5 v=48
446616 Par ch=1 c=64 v=127
446686 On ch=1 n=d#6 v=0
446708 On ch=1 n=f5 v=0
446728 On ch=1 n=g6 v=0
446824 On ch=1 n=g6 v=85
446834 On ch=1 n=f5 v=49
446840 On ch=1 n=d#6 v=83
446972 On ch=1 n=f5 v=0
447028 On ch=1 n=d#6 v=0
447064 On ch=1 n=f6 v=92
447074 On ch=1 n=d6 v=79
447086 On ch=1 n=g6 v=0
447100 On ch=1 n=f5 v=51
447180 On ch=1 n=f5 v=0
447186 On ch=1 n=f6 v=0
447228 On ch=1 n=d6 v=0
447294 On ch=1 n=f6 v=98
447298 On ch=1 n=f5 v=68
447304 On ch=1 n=d6 v=92
447344 Par ch=1 c=64 v=63
447400 Par ch=1 c=64 v=127
447444 On ch=1 n=f5 v=0
447452 On ch=1 n=d6 v=0
447486 On ch=1 n=f6 v=0
447536 On ch=1 n=f5 v=53
447548 On ch=1 n=e6 v=75
447590 On ch=1 n=c#6 v=73
447652 On ch=1 n=c#6 v=0
447654 On ch=1 n=f5 v=0
447666 On ch=1 n=e6 v=0
447784 On ch=1 n=f5 v=59
447792 On ch=1 n=e6 v=77
447794 On ch=1 n=c#6 v=76
447898 Par ch=1 c=64 v=63
447936 Par ch=1 c=64 v=127
447962 On ch=1 n=f5 v=0
448026 On ch=1 n=d#6 v=91
448030 On ch=1 n=c6 v=74
448044 On ch=1 n=f5 v=53
448058 On ch=1 n=c#6 v=0
448092 On ch=1 n=e6 v=0
448146 On ch=1 n=f5 v=0
448154 On ch=1 n=d#6 v=0
448208 On ch=1 n=c6 v=0
448236 Par ch=1 c=64 v=63
448246 On ch=1 n=d#6 v=91
448250 On ch=1 n=f5 v=61
448260 On ch=1 n=c6 v=68
448316 Par ch=1 c=64 v=127
448424 On ch=1 n=f5 v=0
448486 On ch=1 n=b5 v=71
448494 On ch=1 n=d6 v=74
448506 On ch=1 n=f5 v=45
448512 On ch=1 n=c6 v=0
448604 On ch=1 n=d#6 v=0
448620 On ch=1 n=f5 v=0
448628 On ch=1 n=d6 v=0
448686 On ch=1 n=b5 v=0
448728 On ch=1 n=f5 v=57
448738 Par ch=1 c=64 v=63
448740 On ch=1 n=b5 v=78
448742 On ch=1 n=d6 v=84
448814 Par ch=1 c=64 v=127
448898 On ch=1 n=f5 v=0
448940 On ch=1 n=d6 v=0
448994 On ch=1 n=f5 v=47
449008 On ch=1 n=a#5 v=70
449010 On ch=1 n=c#6 v=80
449012 On ch=1 n=b5 v=0
449084 Par ch=1 c=64 v=63
449112 On ch=1 n=f5 v=0
449124 On ch=1 n=c#6 v=0
449156 Par ch=1 c=64 v=127
449200 On ch=1 n=a#5 v=0
449266 On ch=1 n=c#6 v=70
449276 On ch=1 n=f5 v=51
449282 On ch=1 n=a#5 v=70
449432 On ch=1 n=f5 v=0
449520 On ch=1 n=a#5 v=0
449558 On ch=1 n=c6 v=62
449562 On ch=1 n=f5 v=26
449568 On ch=1 n=a5 v=35
449570 On ch=1 n=c#6 v=0
449678 On ch=1 n=f5 v=0
449680 Par ch=1 c=64 v=63
449738 Par ch=1 c=64 v=127
449796 On ch=1 n=f5 v=38
449942 On ch=1 n=f5 v=0
450010 On ch=1 n=a5 v=0
450076 On ch=1 n=f5 v=50
450094 On ch=1 n=c6 v=0
450162 On ch=1 n=f5 v=0
450384 On ch=1 n=f5 v=54
450488 On ch=1 n=f5 v=0
450818 On ch=1 n=f3 v=63
450826 On ch=1 n=a5 v=65
450866 On ch=1 n=c5 v=31
451088 Par ch=1 c=64 v=63
451190 Par ch=1 c=64 v=127
451334 On ch=1 n=f4 v=21
451478 On ch=1 n=f4 v=0
451610 On ch=1 n=f4 v=33
451670 On ch=1 n=c5 v=0
451746 On ch=1 n=f4 v=0
451886 On ch=1 n=f4 v=45
451984 On ch=1 n=f4 v=0
452086 On ch=1 n=a5 v=0
452144 On ch=1 n=f4 v=67
452258 On ch=1 n=f4 v=0
452358 On ch=1 n=a#5 v=82
452368 On ch=1 n=d5 v=66
452398 On ch=1 n=f4 v=46
452470 On ch=1 n=d5 v=0
452496 On ch=1 n=f4 v=0
452604 On ch=1 n=f4 v=47
452620 On ch=1 n=d#5 v=84
452632 On ch=1 n=c6 v=90
452650 On ch=1 n=a#5 v=0
452710 On ch=1 n=f4 v=0
452732 On ch=1 n=d#5 v=0
452840 On ch=1 n=d6 v=100
452844 On ch=1 n=f4 v=64
452856 On ch=1 n=f5 v=84
452878 On ch=1 n=c6 v=0
452956 On ch=1 n=f4 v=0
452966 On ch=1 n=d6 v=0
452968 On ch=1 n=f5 v=0
453090 On ch=1 n=d#6 v=99
453090 On ch=1 n=f4 v=51
453116 On ch=1 n=g5 v=48
453186 Par ch=1 c=64 v=63
453204 Par ch=1 c=64 v=0
453300 On ch=1 n=f4 v=0
453318 Par ch=1 c=64 v=63
453336 Par ch=1 c=64 v=127
453350 On ch=1 n=g5 v=0
453358 On ch=1 n=d#6 v=0
453404 On ch=1 n=f4 v=46
453420 On ch=1 n=g5 v=72
453422 On ch=1 n=d#6 v=88
453548 On ch=1 n=f4 v=0
453584 On ch=1 n=g5 v=0
453596 On ch=1 n=d#6 v=0
453672 On ch=1 n=d6 v=92
453676 On ch=1 n=f4 v=56
453684 On ch=1 n=f5 v=74
453774 On ch=1 n=f4 v=0
453780 On ch=1 n=f5 v=0
453802 On ch=1 n=d6 v=0
453878 On ch=1 n=f4 v=51
453878 On ch=1 n=d6 v=88
453886 On ch=1 n=f5 v=79
453966 On ch=1 n=f5 v=0
454026 On ch=1 n=f4 v=0
454090 On ch=1 n=c#6 v=98
454094 On ch=1 n=d6 v=0
454128 On ch=1 n=e5 v=55
454130 On ch=1 n=f4 v=32
454192 On ch=1 n=e5 v=0
454206 On ch=1 n=f4 v=0
454236 On ch=1 n=c#6 v=0
454298 On ch=1 n=f4 v=55
454306 On ch=1 n=c#6 v=94
454318 On ch=1 n=e5 v=66
454372 On ch=1 n=e5 v=0
454400 On ch=1 n=f3 v=0
454458 On ch=1 n=f4 v=0
454504 On ch=1 n=c#6 v=0
454512 On ch=1 n=c6 v=87
454528 On ch=1 n=d#5 v=74
454542 On ch=1 n=f4 v=59
454644 On ch=1 n=f4 v=0
454648 On ch=1 n=d#5 v=0
454658 On ch=1 n=c6 v=0
454736 On ch=1 n=f4 v=43
454746 On ch=1 n=c6 v=89
454752 On ch=1 n=d#5 v=77
454840 On ch=1 n=f4 v=0
454926 On ch=1 n=d#5 v=0
454970 On ch=1 n=c6 v=0
454978 On ch=1 n=f4 v=55
454982 On ch=1 n=b5 v=83
455004 On ch=1 n=d5 v=68
455082 On ch=1 n=f4 v=0
455114 On ch=1 n=d5 v=0
455128 On ch=1 n=b5 v=0
455218 On ch=1 n=f4 v=48
455224 On ch=1 n=b5 v=87
455228 On ch=1 n=d5 v=78
455318 On ch=1 n=d5 v=0
455340 On ch=1 n=f4 v=0
455456 On ch=1 n=a#5 v=93
455460 On ch=1 n=b5 v=0
455470 On ch=1 n=f4 v=41
455478 On ch=1 n=c#5 v=77
455562 On ch=1 n=f4 v=0
455632 On ch=1 n=c#5 v=0
455632 Par ch=1 c=64 v=63
455654 On ch=1 n=a#5 v=0
455658 Par ch=1 c=64 v=127
455714 On ch=1 n=f4 v=46
455714 On ch=1 n=a#5 v=88
455722 On ch=1 n=c#5 v=69
455856 On ch=1 n=f4 v=0
455900 On ch=1 n=c#5 v=0
455944 On ch=1 n=a#5 v=0
456046 On ch=1 n=a5 v=67
456050 On ch=1 n=f4 v=40
456058 On ch=1 n=c5 v=59
456174 Par ch=1 c=64 v=63
456200 Par ch=1 c=64 v=0
456330 Par ch=1 c=64 v=63
456354 Par ch=1 c=64 v=127
456492 On ch=1 n=c5 v=0
456534 On ch=1 n=a5 v=0
456548 On ch=1 n=f4 v=0
456996 Par ch=1 c=64 v=63
457244 Par ch=1 c=64 v=0
457284 On ch=1 n=f4 v=92
457288 On ch=1 n=a#3 v=90
457292 On ch=1 n=d5 v=112
457654 Par ch=1 c=64 v=63
457664 Par ch=1 c=64 v=127
457848 On ch=1 n=a#3 v=0
458248 On ch=1 n=c5 v=96
458258 On ch=1 n=c4 v=72
458318 On ch=1 n=d5 v=0
458364 On ch=1 n=d4 v=80
458410 On ch=1 n=a#4 v=98
458424 On ch=1 n=c4 v=0
458452 On ch=1 n=c5 v=0
458556 Par ch=1 c=64 v=63
458558 On ch=1 n=d#4 v=72
458574 On ch=1 n=d4 v=0
458584 Par ch=1 c=64 v=0
458590 On ch=1 n=a4 v=77
458634 On ch=1 n=a#4 v=0
459022 Par ch=1 c=64 v=63
459034 Par ch=1 c=64 v=127
459152 On ch=1 n=a4 v=0
459306 On ch=1 n=d#4 v=0
459326 On ch=1 n=f4 v=0
459854 Par ch=1 c=64 v=63
459864 On ch=1 n=a5 v=56
459946 Par ch=1 c=64 v=0
460044 On ch=1 n=d#6 v=73
460186 On ch=1 n=a5 v=0
460824 Par ch=1 c=64 v=63
460850 Par ch=1 c=64 v=127
461056 On ch=1 n=c6 v=60
461140 On ch=1 n=d#6 v=0
461186 On ch=1 n=a5 v=55
461336 On ch=1 n=c6 v=0
461416 On ch=1 n=a#4 v=47
461432 On ch=1 n=f6 v=68
461444 On ch=1 n=d4 v=59
461524 On ch=1 n=a5 v=0
461578 Par ch=1 c=64 v=63
461650 Par ch=1 c=64 v=0
461700 Par ch=1 c=64 v=63
461762 Par ch=1 c=64 v=127
461972 On ch=1 n=d6 v=74
461978 On ch=1 n=f6 v=0
462136 On ch=1 n=a#5 v=72
462156 On ch=1 n=d6 v=0
462286 Par ch=1 c=64 v=63
462328 Par ch=1 c=64 v=0
462412 Par ch=1 c=64 v=63
462456 Par ch=1 c=64 v=127
462878 On ch=1 n=d#4 v=70
462900 On ch=1 n=d4 v=0
462986 On ch=1 n=a#5 v=0
463160 On ch=1 n=a5 v=55
463210 On ch=1 n=a#5 v=68
463226 On ch=1 n=a5 v=0
463264 On ch=1 n=a#5 v=0
463296 On ch=1 n=a5 v=44
463360 On ch=1 n=a5 v=0
463362 On ch=1 n=g5 v=81
463442 On ch=1 n=a5 v=86
463462 On ch=1 n=g5 v=0
463590 On ch=1 n=c6 v=91
463600 Par ch=1 c=64 v=63
463630 On ch=1 n=a5 v=0
463632 Par ch=1 c=64 v=0
463720 Par ch=1 c=64 v=63
463758 Par ch=1 c=64 v=127
463932 On ch=1 n=a#5 v=95
464034 On ch=1 n=c6 v=0
464196 On ch=1 n=a5 v=77
464230 On ch=1 n=g4 v=61
464256 On ch=1 n=d#4 v=0
464260 On ch=1 n=a#5 v=0
464304 Par ch=1 c=64 v=63
464338 Par ch=1 c=64 v=0
464484 Par ch=1 c=64 v=63
464510 On ch=1 n=g5 v=77
464518 Par ch=1 c=64 v=127
464528 On ch=1 n=a5 v=0
464728 Par ch=1 c=64 v=63
464766 Par ch=1 c=64 v=0
464780 On ch=1 n=f5 v=76
464816 On ch=1 n=g5 v=0
465012 Par ch=1 c=64 v=63
465032 Par ch=1 c=64 v=127
465042 On ch=1 n=d#5 v=82
465090 On ch=1 n=f5 v=0
465160 On ch=1 n=a#4 v=0
465330 On ch=1 n=a#4 v=46
465332 On ch=1 n=d5 v=76
465366 On ch=1 n=f4 v=36
465380 On ch=1 n=g4 v=0
465388 On ch=1 n=d#5 v=0
465424 Par ch=1 c=64 v=63
465466 Par ch=1 c=64 v=0
465648 On ch=1 n=f5 v=71
465716 On ch=1 n=d5 v=0
465938 Par ch=1 c=64 v=63
465940 On ch=1 n=f5 v=0
465956 Par ch=1 c=64 v=127
466014 On ch=1 n=f5 v=70
466148 On ch=1 n=a#4 v=0
466158 On ch=1 n=f4 v=0
466782 On ch=1 n=a#4 v=58
466786 On ch=1 n=d4 v=46
466830 On ch=1 n=f3 v=29
466956 Par ch=1 c=64 v=63
467074 On ch=1 n=f5 v=0
467126 Par ch=1 c=64 v=127
467166 On ch=1 n=f5 v=65
467480 On ch=1 n=g5 v=68
467546 On ch=1 n=f5 v=0
467682 On ch=1 n=g5 v=0
467732 On ch=1 n=f5 v=83
467838 On ch=1 n=a#4 v=0
467928 On ch=1 n=f5 v=0
467996 On ch=1 n=f5 v=76
468010 On ch=1 n=c4 v=68
468014 On ch=1 n=a4 v=63
468068 On ch=1 n=d4 v=0
468164 Par ch=1 c=64 v=63
468188 Par ch=1 c=64 v=0
468252 On ch=1 n=d#5 v=85
468256 On ch=1 n=f5 v=0
468334 Par ch=1 c=64 v=63
468362 Par ch=1 c=64 v=127
468532 On ch=1 n=d5 v=85
468596 On ch=1 n=d#5 v=0
468792 On ch=1 n=d#5 v=83
468854 On ch=1 n=c4 v=0
468898 On ch=1 n=d5 v=0
469048 On ch=1 n=a4 v=0
469076 On ch=1 n=d#5 v=0
469156 On ch=1 n=d#5 v=84
469166 On ch=1 n=c4 v=54
469170 On ch=1 n=f#3 v=62
469172 On ch=1 n=a4 v=54
469254 On ch=1 n=f3 v=0
469380 Par ch=1 c=64 v=63
469446 Par ch=1 c=64 v=0
469914 Par ch=1 c=64 v=63
469928 Par ch=1 c=64 v=127
470138 On ch=1 n=f#3 v=0
470266 On ch=1 n=d#5 v=0
470444 On ch=1 n=c4 v=0
470452 On ch=1 n=a4 v=0
470704 On ch=1 n=d5 v=50
470710 On ch=1 n=a#4 v=28
470720 On ch=1 n=a#3 v=44
470764 On ch=1 n=g3 v=34
470908 Par ch=1 c=64 v=63
471000 Par ch=1 c=64 v=0
471932 On ch=1 n=g3 v=0
471940 On ch=1 n=a#3 v=0
471968 On ch=1 n=a#4 v=0
471972 On ch=1 n=d5 v=0
473150 Par ch=1 c=64 v=63
473562 Par ch=1 c=64 v=127
473600 On ch=1 n=d4 v=91
473602 On ch=1 n=f3 v=71
473612 On ch=1 n=a#2 v=66
473904 Par ch=1 c=64 v=63
473942 Par ch=1 c=64 v=0
474086 Par ch=1 c=64 v=63
474100 Par ch=1 c=64 v=127
474324 On ch=1 n=a#2 v=0
474664 On ch=1 n=d4 v=0
474716 On ch=1 n=c4 v=75
474728 On ch=1 n=c3 v=55
474840 On ch=1 n=d3 v=64
474846 On ch=1 n=c3 v=0
474874 On ch=1 n=a#3 v=91
474916 On ch=1 n=c4 v=0
475042 On ch=1 n=d#3 v=69
475052 On ch=1 n=a3 v=75
475054 On ch=1 n=d3 v=0
475070 On ch=1 n=a#3 v=0
475080 Par ch=1 c=64 v=63
475114 Par ch=1 c=64 v=0
475446 Par ch=1 c=64 v=63
475460 Par ch=1 c=64 v=127
475592 On ch=1 n=a3 v=0
475724 On ch=1 n=f3 v=0
475846 On ch=1 n=d#3 v=0
476260 Par ch=1 c=64 v=63
476356 Par ch=1 c=64 v=0
476398 On ch=1 n=a4 v=51
476576 On ch=1 n=d#5 v=73
476738 On ch=1 n=a4 v=0
477520 Par ch=1 c=64 v=63
477548 Par ch=1 c=64 v=127
477800 On ch=1 n=c5 v=57
477898 On ch=1 n=d#5 v=0
477962 On ch=1 n=a4 v=55
478006 On ch=1 n=c5 v=0
478114 On ch=1 n=d4 v=36
478116 On ch=1 n=f4 v=38
478154 On ch=1 n=f5 v=68
478234 Par ch=1 c=64 v=63
478262 On ch=1 n=a4 v=0
478266 Par ch=1 c=64 v=0
478284 Par ch=1 c=64 v=63
478340 Par ch=1 c=64 v=127
478628 On ch=1 n=d5 v=78
478644 On ch=1 n=f5 v=0
478724 Par ch=1 c=64 v=63
478780 Par ch=1 c=64 v=127
478790 On ch=1 n=a#4 v=67
478806 On ch=1 n=d5 v=0
479036 On ch=1 n=f4 v=0
479050 On ch=1 n=a#4 v=0
479060 On ch=1 n=d4 v=0
479754 On ch=1 n=f6 v=51
479774 On ch=1 n=d5 v=38
479774 On ch=1 n=f5 v=28
479816 Par ch=1 c=64 v=63
479840 Par ch=1 c=64 v=0
480460 On ch=1 n=d6 v=39
480676 On ch=1 n=b5 v=36
481120 On ch=1 n=d6 v=0
481186 On ch=1 n=f6 v=0
481530 On ch=1 n=b5 v=0
481574 On ch=1 n=d5 v=0
481578 On ch=1 n=f5 v=0
483138 On ch=1 n=d#4 v=106
483148 On ch=1 n=g3 v=93
483152 On ch=1 n=c3 v=98
483394 Par ch=1 c=64 v=63
483424 Par ch=1 c=64 v=127
484218 On ch=1 n=d#4 v=0
484256 On ch=1 n=d3 v=96
484260 On ch=1 n=d4 v=93
484302 On ch=1 n=c3 v=0
484388 On ch=1 n=d#3 v=103
484396 On ch=1 n=c4 v=101
484442 On ch=1 n=d4 v=0
484458 On ch=1 n=d3 v=0
484532 On ch=1 n=b3 v=91
484534 On ch=1 n=f3 v=98
484544 Par ch=1 c=64 v=63
484572 Par ch=1 c=64 v=0
484574 On ch=1 n=c4 v=0
484598 On ch=1 n=d#3 v=0
485048 Par ch=1 c=64 v=63
485064 Par ch=1 c=64 v=127
485200 On ch=1 n=b3 v=0
485300 On ch=1 n=g3 v=0
485348 On ch=1 n=f3 v=0
485640 Par ch=1 c=64 v=63
485694 Par ch=1 c=64 v=0
485864 On ch=1 n=b4 v=76
486104 On ch=1 n=f5 v=97
486340 On ch=1 n=b4 v=0
486872 Par ch=1 c=64 v=63
486880 Par ch=1 c=64 v=127
487112 On ch=1 n=d5 v=82
487188 On ch=1 n=f5 v=0
487196 On ch=1 n=b4 v=89
487306 On ch=1 n=d5 v=0
487334 On ch=1 n=g4 v=63
487334 On ch=1 n=d#4 v=72
487342 On ch=1 n=g5 v=98
487370 Par ch=1 c=64 v=63
487384 Par ch=1 c=64 v=0
487540 On ch=1 n=b4 v=0
487824 On ch=1 n=d#5 v=80
487864 On ch=1 n=g5 v=0
487966 On ch=1 n=c5 v=54
488052 On ch=1 n=d#5 v=0
488130 Par ch=1 c=64 v=63
488140 Par ch=1 c=64 v=127
488202 On ch=1 n=d#4 v=0
488202 On ch=1 n=g4 v=0
488250 On ch=1 n=c5 v=0
488848 On ch=1 n=g6 v=51
488914 On ch=1 n=g5 v=15
488926 On ch=1 n=e5 v=22
489014 Par ch=1 c=64 v=63
489110 Par ch=1 c=64 v=127
489486 Par ch=1 c=64 v=63
489518 Par ch=1 c=64 v=127
489596 On ch=1 n=e6 v=43
489844 On ch=1 n=c#6 v=46
489882 On ch=1 n=g6 v=0
490192 On ch=1 n=e6 v=0
490348 On ch=1 n=c#6 v=0
490388 On ch=1 n=g5 v=0
490390 On ch=1 n=e5 v=0
490780 Par ch=1 c=64 v=63
490994 Par ch=1 c=64 v=0
491868 Par ch=1 c=64 v=63
492556 On ch=1 n=f4 v=103
492556 On ch=1 n=a3 v=106
492558 On ch=1 n=d3 v=112
492658 Par ch=1 c=64 v=0
492872 Par ch=1 c=64 v=63
492882 Par ch=1 c=64 v=127
493598 On ch=1 n=e4 v=98
493604 On ch=1 n=d3 v=0
493606 On ch=1 n=e3 v=88
493690 On ch=1 n=f4 v=0
493718 On ch=1 n=d4 v=97
493742 On ch=1 n=f3 v=96
493748 On ch=1 n=e4 v=0
493820 On ch=1 n=e3 v=0
493828 Par ch=1 c=64 v=63
493860 Par ch=1 c=64 v=0
493886 On ch=1 n=c#4 v=107
493888 On ch=1 n=g3 v=92
493948 On ch=1 n=f3 v=0
493968 On ch=1 n=d4 v=0
494258 Par ch=1 c=64 v=63
494278 Par ch=1 c=64 v=127
494400 On ch=1 n=c#4 v=0
494570 On ch=1 n=g3 v=0
494598 On ch=1 n=a3 v=0
495324 Par ch=1 c=64 v=63
495412 Par ch=1 c=64 v=0
495426 On ch=1 n=c#5 v=86
495612 On ch=1 n=g5 v=83
495720 On ch=1 n=c#5 v=0
496298 Par ch=1 c=64 v=63
496308 Par ch=1 c=64 v=127
496670 On ch=1 n=e5 v=54
496758 On ch=1 n=g5 v=0
496796 On ch=1 n=c#5 v=72
496852 On ch=1 n=e5 v=0
496926 On ch=1 n=c#5 v=0
496954 On ch=1 n=a4 v=44
496956 On ch=1 n=a5 v=79
496964 On ch=1 n=f4 v=50
497028 Par ch=1 c=64 v=63
497060 Par ch=1 c=64 v=0
497444 On ch=1 n=f5 v=63
497474 On ch=1 n=a5 v=0
497576 On ch=1 n=d5 v=55
497642 On ch=1 n=f5 v=0
497662 Par ch=1 c=64 v=63
497680 Par ch=1 c=64 v=127
497838 On ch=1 n=f4 v=0
497842 On ch=1 n=a4 v=0
497852 On ch=1 n=d5 v=0
498444 On ch=1 n=f5 v=26
498474 On ch=1 n=a6 v=48
498490 On ch=1 n=a5 v=29
498582 Par ch=1 c=64 v=63
498636 Par ch=1 c=64 v=0
498840 Par ch=1 c=64 v=63
498872 Par ch=1 c=64 v=127
499110 On ch=1 n=f6 v=35
499334 On ch=1 n=d6 v=30
499536 On ch=1 n=a6 v=0
499580 On ch=1 n=f6 v=0
499956 Par ch=1 c=64 v=63
500088 Par ch=1 c=64 v=0
500212 On ch=1 n=d6 v=0
500258 On ch=1 n=a5 v=0
500272 On ch=1 n=f5 v=0
501308 Par ch=1 c=64 v=63
501410 Par ch=1 c=64 v=127
501760 On ch=1 n=c6 v=51
501800 On ch=1 n=d5 v=23
501826 On ch=1 n=f#4 v=28
502182 On ch=1 n=d5 v=0
502418 On ch=1 n=a5 v=53
502512 On ch=1 n=c6 v=0
502606 On ch=1 n=d5 v=53
502638 Par ch=1 c=64 v=63
502696 On ch=1 n=a5 v=0
502714 Par ch=1 c=64 v=127
502920 On ch=1 n=f#4 v=0
502932 On ch=1 n=d5 v=0
503762 On ch=1 n=c7 v=38
503776 On ch=1 n=f#5 v=29
503798 On ch=1 n=d6 v=24
503880 Par ch=1 c=64 v=63
503948 Par ch=1 c=64 v=0
504174 Par ch=1 c=64 v=63
504198 Par ch=1 c=64 v=127
504440 On ch=1 n=d6 v=0
504586 On ch=1 n=a6 v=27
504950 On ch=1 n=d6 v=26
505236 On ch=1 n=f#5 v=0
505310 On ch=1 n=a6 v=0
505322 On ch=1 n=c7 v=0
505362 On ch=1 n=d6 v=0
506182 Par ch=1 c=64 v=63
506318 Par ch=1 c=64 v=0
507752 On ch=1 n=g3 v=82
507762 On ch=1 n=g4 v=124
507772 On ch=1 n=d6 v=116
507780 Par ch=1 c=64 v=127
507936 On ch=1 n=d6 v=0
507954 On ch=1 n=a#6 v=98
508072 On ch=1 n=a6 v=99
508098 On ch=1 n=a#6 v=0
508176 On ch=1 n=a#6 v=100
508194 On ch=1 n=a6 v=0
508282 On ch=1 n=d6 v=100
508290 On ch=1 n=a#6 v=0
508374 On ch=1 n=d6 v=0
508390 On ch=1 n=a#6 v=101
508488 On ch=1 n=a6 v=87
508508 On ch=1 n=a#6 v=0
508586 On ch=1 n=a#6 v=97
508594 On ch=1 n=a6 v=0
508640 On ch=1 n=g3 v=0
508656 On ch=1 n=d6 v=94
508664 On ch=1 n=g4 v=0
508676 On ch=1 n=a#6 v=0
508746 On ch=1 n=d6 v=0
508756 On ch=1 n=a#6 v=112
508844 On ch=1 n=g6 v=97
508862 On ch=1 n=a#6 v=0
508932 On ch=1 n=a#6 v=104
508938 Par ch=1 c=64 v=63
508962 On ch=1 n=g6 v=0
508964 Par ch=1 c=64 v=127
508986 On ch=1 n=g3 v=116
508994 On ch=1 n=d6 v=101
509028 On ch=1 n=a#6 v=0
509070 On ch=1 n=g3 v=0
509076 On ch=1 n=g4 v=98
509078 On ch=1 n=d6 v=0
509086 On ch=1 n=a#6 v=101
509184 On ch=1 n=g6 v=88
509196 On ch=1 n=f#4 v=98
509200 On ch=1 n=g4 v=0
509202 On ch=1 n=a#6 v=0
509262 On ch=1 n=f#4 v=0
509272 On ch=1 n=a#6 v=104
509284 On ch=1 n=g4 v=82
509304 On ch=1 n=g6 v=0
509348 On ch=1 n=a3 v=108
509356 On ch=1 n=g4 v=0
509358 On ch=1 n=d6 v=91
509372 On ch=1 n=a#6 v=0
509410 On ch=1 n=a3 v=0
509424 On ch=1 n=a4 v=100
509438 On ch=1 n=d6 v=0
509440 On ch=1 n=a#6 v=95
509532 On ch=1 n=g#4 v=93
509534 On ch=1 n=f6 v=94
509536 On ch=1 n=a4 v=0
509546 On ch=1 n=a#6 v=0
509584 On ch=1 n=g#4 v=0
509600 On ch=1 n=a4 v=64
509614 On ch=1 n=a#6 v=100
509626 On ch=1 n=f6 v=0
509680 On ch=1 n=a4 v=0
509702 On ch=1 n=a#3 v=113
509718 On ch=1 n=d6 v=102
509722 On ch=1 n=a#6 v=0
509762 On ch=1 n=a#3 v=0
509764 On ch=1 n=a#4 v=106
509800 On ch=1 n=a#6 v=106
509802 On ch=1 n=d6 v=0
509804 On ch=1 n=b4 v=46
509848 On ch=1 n=b4 v=0
509866 On ch=1 n=a4 v=68
509876 On ch=1 n=a#4 v=0
509890 On ch=1 n=f6 v=78
509914 On ch=1 n=a#6 v=0
509924 On ch=1 n=a#4 v=99
509950 On ch=1 n=a4 v=0
509972 On ch=1 n=a#6 v=101
509982 On ch=1 n=a#4 v=0
509996 On ch=1 n=f6 v=0
510056 On ch=1 n=c5 v=117
510056 Par ch=1 c=64 v=63
510066 On ch=1 n=c4 v=87
510076 Par ch=1 c=64 v=0
510076 On ch=1 n=c6 v=106
510086 On ch=1 n=a#6 v=0
510160 On ch=1 n=c6 v=0
510166 On ch=1 n=a#6 v=107
510266 On ch=1 n=f6 v=86
510272 On ch=1 n=a#6 v=0
510342 On ch=1 n=a#6 v=97
510374 On ch=1 n=f6 v=0
510412 Par ch=1 c=64 v=63
510416 On ch=1 n=c6 v=106
510418 Par ch=1 c=64 v=127
510442 On ch=1 n=a#6 v=0
510454 On ch=1 n=c5 v=0
510488 On ch=1 n=a#6 v=106
510494 On ch=1 n=c6 v=0
510524 On ch=1 n=c4 v=0
510580 On ch=1 n=f6 v=90
510598 On ch=1 n=a#6 v=0
510666 On ch=1 n=a#6 v=101
510696 On ch=1 n=f6 v=0
510760 On ch=1 n=a#6 v=0
510760 On ch=1 n=c6 v=102
510762 Par ch=1 c=64 v=63
510826 Par ch=1 c=64 v=0
510832 On ch=1 n=a#6 v=103
510844 On ch=1 n=c6 v=0
510914 On ch=1 n=e6 v=83
510946 On ch=1 n=a#6 v=0
510992 On ch=1 n=a#6 v=103
511020 On ch=1 n=e6 v=0
511088 On ch=1 n=c6 v=111
511098 On ch=1 n=c3 v=121
511112 Par ch=1 c=64 v=63
511116 On ch=1 n=a#6 v=0
511118 Par ch=1 c=64 v=127
511170 On ch=1 n=c3 v=0
511170 On ch=1 n=a#6 v=98
511170 On ch=1 n=c4 v=107
511196 On ch=1 n=c6 v=0
511256 On ch=1 n=e6 v=71
511278 On ch=1 n=c4 v=0
511278 On ch=1 n=b3 v=85
511280 On ch=1 n=a#6 v=0
511332 On ch=1 n=b3 v=0
511338 On ch=1 n=a#6 v=95
511356 On ch=1 n=c4 v=81
511364 On ch=1 n=e6 v=0
511374 Par ch=1 c=64 v=63
511402 Par ch=1 c=64 v=127
511406 On ch=1 n=d3 v=116
511416 On ch=1 n=c4 v=0
511422 On ch=1 n=c6 v=104
511450 On ch=1 n=a#6 v=0
511474 On ch=1 n=d3 v=0
511482 On ch=1 n=d4 v=100
511514 On ch=1 n=a#6 v=99
511520 On ch=1 n=c6 v=0
511580 On ch=1 n=c4 v=86
511586 On ch=1 n=d4 v=0
511606 On ch=1 n=f6 v=81
511626 On ch=1 n=a#6 v=0
511642 On ch=1 n=d4 v=91
511660 On ch=1 n=c4 v=0
511680 On ch=1 n=a#6 v=98
511712 On ch=1 n=f6 v=0
511726 Par ch=1 c=64 v=63
511730 On ch=1 n=d4 v=0
511732 On ch=1 n=e3 v=116
511748 Par ch=1 c=64 v=127
511768 On ch=1 n=a#6 v=0
511768 On ch=1 n=c6 v=98
511802 On ch=1 n=e3 v=0
511802 On ch=1 n=e4 v=108
511844 On ch=1 n=c6 v=0
511846 On ch=1 n=a#6 v=101
511902 On ch=1 n=d4 v=103
511904 On ch=1 n=e4 v=0
511932 On ch=1 n=g6 v=90
511954 On ch=1 n=a#6 v=0
511958 On ch=1 n=e4 v=89
511972 On ch=1 n=d4 v=0
512008 On ch=1 n=a#6 v=100
512038 On ch=1 n=e4 v=0
512042 On ch=1 n=g6 v=0
512052 Par ch=1 c=64 v=63
512068 Par ch=1 c=64 v=0
512098 On ch=1 n=a#6 v=0
512104 On ch=1 n=f4 v=120
512108 On ch=1 n=f3 v=109
512116 On ch=1 n=c6 v=102
512200 On ch=1 n=c6 v=0
512206 On ch=1 n=g#6 v=94
512294 On ch=1 n=g6 v=93
512328 On ch=1 n=g#6 v=0
512406 On ch=1 n=g#6 v=99
512424 On ch=1 n=g6 v=0
512480 On ch=1 n=c6 v=100
512508 Par ch=1 c=64 v=63
512510 On ch=1 n=g#6 v=0
512516 Par ch=1 c=64 v=127
512570 On ch=1 n=c6 v=0
512572 On ch=1 n=g#6 v=93
512664 On ch=1 n=g6 v=100
512700 On ch=1 n=g#6 v=0
512700 On ch=1 n=f3 v=0
512736 On ch=1 n=f4 v=0
512756 On ch=1 n=g#6 v=96
512790 On ch=1 n=g6 v=0
512798 Par ch=1 c=64 v=63
512810 Par ch=1 c=64 v=0
512824 On ch=1 n=c6 v=102
512860 On ch=1 n=g#6 v=0
512920 On ch=1 n=c6 v=0
512920 On ch=1 n=g#6 v=104
513004 On ch=1 n=f6 v=91
513032 On ch=1 n=g#6 v=0
513098 On ch=1 n=g#6 v=99
513128 On ch=1 n=f6 v=0
513146 Par ch=1 c=64 v=63
513154 Par ch=1 c=64 v=127
513160 On ch=1 n=f3 v=117
513162 On ch=1 n=c6 v=103
513190 On ch=1 n=g#6 v=0
513234 On ch=1 n=f3 v=0
513236 On ch=1 n=f4 v=103
513250 On ch=1 n=c6 v=0
513252 On ch=1 n=g#6 v=95
513334 On ch=1 n=f6 v=84
513338 On ch=1 n=f4 v=0
513348 On ch=1 n=e4 v=84
513358 On ch=1 n=g#6 v=0
513392 On ch=1 n=e4 v=0
513412 On ch=1 n=g#6 v=97
513412 On ch=1 n=f4 v=84
513436 Par ch=1 c=64 v=63
513440 On ch=1 n=f6 v=0
513450 Par ch=1 c=64 v=127
513476 On ch=1 n=g3 v=117
513480 On ch=1 n=f4 v=0
513496 On ch=1 n=c6 v=101
513508 On ch=1 n=g#6 v=0
513548 On ch=1 n=g3 v=0
513550 On ch=1 n=g4 v=96
513574 On ch=1 n=g#6 v=93
513584 On ch=1 n=c6 v=0
513650 On ch=1 n=f4 v=97
513656 On ch=1 n=d#6 v=98
513660 On ch=1 n=g4 v=0
513680 On ch=1 n=g#6 v=0
513706 On ch=1 n=g4 v=88
513724 On ch=1 n=f4 v=0
513730 On ch=1 n=g#6 v=99
513748 On ch=1 n=d#6 v=0
513792 On ch=1 n=g4 v=0
513816 Par ch=1 c=64 v=63
513816 On ch=1 n=g#3 v=114
513818 On ch=1 n=c6 v=101
513824 On ch=1 n=g#6 v=0
513826 Par ch=1 c=64 v=127
513872 On ch=1 n=g#3 v=0
513876 On ch=1 n=g#4 v=109
513900 On ch=1 n=c6 v=0
513904 On ch=1 n=g#6 v=105
513980 On ch=1 n=g#4 v=0
513986 On ch=1 n=g4 v=82
513992 On ch=1 n=d#6 v=107
514018 On ch=1 n=g#6 v=0
514054 On ch=1 n=g#4 v=100
514064 On ch=1 n=g4 v=0
514070 On ch=1 n=g#6 v=103
514094 On ch=1 n=d#6 v=0
514120 On ch=1 n=g#4 v=0
514122 Par ch=1 c=64 v=63
514142 Par ch=1 c=64 v=0
514164 On ch=1 n=g#6 v=0
514182 On ch=1 n=a#4 v=120
514184 On ch=1 n=a#5 v=120
514192 On ch=1 n=a#3 v=101
514242 On ch=1 n=g#6 v=69
514268 On ch=1 n=a#5 v=0
514344 On ch=1 n=d#6 v=103
514368 On ch=1 n=g#6 v=0
514436 On ch=1 n=d#6 v=0
514442 On ch=1 n=g#6 v=100
514498 Par ch=1 c=64 v=63
514508 Par ch=1 c=64 v=127
514528 On ch=1 n=a#5 v=113
514534 On ch=1 n=g#6 v=0
514582 On ch=1 n=a#4 v=0
514602 On ch=1 n=g#6 v=88
514622 On ch=1 n=a#5 v=0
514648 On ch=1 n=a#3 v=0
514688 On ch=1 n=d#6 v=101
514718 On ch=1 n=g#6 v=0
514778 On ch=1 n=d#6 v=0
514780 On ch=1 n=g#6 v=98
514862 On ch=1 n=g#6 v=0
514864 On ch=1 n=a#5 v=112
514868 Par ch=1 c=64 v=63
514878 Par ch=1 c=64 v=0
514940 On ch=1 n=a#5 v=0
514954 On ch=1 n=g#6 v=107
515038 On ch=1 n=d6 v=88
515070 On ch=1 n=g#6 v=0
515122 On ch=1 n=g#6 v=99
515144 On ch=1 n=d6 v=0
515184 Par ch=1 c=64 v=63
515190 Par ch=1 c=64 v=127
515226 On ch=1 n=a#2 v=116
515232 On ch=1 n=a#5 v=121
515248 On ch=1 n=g#6 v=0
515250 Par ch=1 c=64 v=63
515254 Par ch=1 c=64 v=127
515290 On ch=1 n=a#2 v=0
515300 On ch=1 n=a#3 v=105
515304 On ch=1 n=a#5 v=0
515316 On ch=1 n=g#6 v=110
515398 On ch=1 n=a3 v=76
515408 On ch=1 n=d6 v=97
515420 On ch=1 n=a#3 v=0
515430 On ch=1 n=g#6 v=0
515444 Par ch=1 c=64 v=63
515450 Par ch=1 c=64 v=0
515452 On ch=1 n=a#3 v=70
515476 On ch=1 n=a3 v=0
515490 On ch=1 n=g#6 v=99
515506 On ch=1 n=d6 v=0
515514 On ch=1 n=a#3 v=0
515524 Par ch=1 c=64 v=63
515534 Par ch=1 c=64 v=127
515542 On ch=1 n=c3 v=120
515578 On ch=1 n=a#5 v=116
515592 On ch=1 n=g#6 v=0
515596 On ch=1 n=c3 v=0
515610 On ch=1 n=c4 v=93
515642 On ch=1 n=a#5 v=0
515654 On ch=1 n=g#6 v=105
515708 On ch=1 n=a#3 v=103
515708 Par ch=1 c=64 v=63
515710 On ch=1 n=c4 v=0
515714 Par ch=1 c=64 v=0
515740 On ch=1 n=d#6 v=105
515756 On ch=1 n=g#6 v=0
515776 On ch=1 n=a#3 v=0
515786 On ch=1 n=c4 v=91
515822 On ch=1 n=g#6 v=103
515832 On ch=1 n=d#6 v=0
515854 Par ch=1 c=64 v=63
515856 Par ch=1 c=64 v=127
515870 On ch=1 n=c4 v=0
515880 On ch=1 n=d3 v=116
515912 On ch=1 n=a#5 v=120
515924 On ch=1 n=g#6 v=0
515928 On ch=1 n=d3 v=0
515944 On ch=1 n=d4 v=104
515952 Par ch=1 c=64 v=63
515956 Par ch=1 c=64 v=0
515988 On ch=1 n=g#6 v=107
515992 On ch=1 n=a#5 v=0
516038 On ch=1 n=d4 v=0
516038 On ch=1 n=c4 v=91
516070 On ch=1 n=f6 v=91
516098 On ch=1 n=g#6 v=0
516098 On ch=1 n=d4 v=92
516110 On ch=1 n=c4 v=0
516152 On ch=1 n=g#6 v=95
516166 On ch=1 n=d4 v=0
516174 On ch=1 n=f6 v=0
516218 Par ch=1 c=64 v=127
516226 On ch=1 n=d#4 v=121
516228 On ch=1 n=d#3 v=116
516240 On ch=1 n=g#6 v=0
516250 On ch=1 n=a#5 v=118
516328 On ch=1 n=a#5 v=0
516336 On ch=1 n=f#6 v=98
516440 On ch=1 n=f6 v=87
516474 On ch=1 n=f#6 v=0
516516 On ch=1 n=f#6 v=98
516540 On ch=1 n=f6 v=0
516604 On ch=1 n=f#6 v=0
516606 On ch=1 n=a#5 v=107
516680 On ch=1 n=a#5 v=0
516680 On ch=1 n=f#6 v=100
516782 On ch=1 n=f6 v=89
516812 On ch=1 n=f#6 v=0
516866 On ch=1 n=f#6 v=96
516892 On ch=1 n=d#3 v=0
516894 On ch=1 n=f6 v=0
516922 On ch=1 n=d#4 v=0
516926 Par ch=1 c=64 v=63
516934 Par ch=1 c=64 v=0
516944 On ch=1 n=f#6 v=0
516952 On ch=1 n=a#5 v=113
517020 On ch=1 n=a#5 v=0
517034 On ch=1 n=f#6 v=106
517114 On ch=1 n=d#6 v=104
517120 On ch=1 n=f#6 v=0
517198 On ch=1 n=f#6 v=103
517202 On ch=1 n=d#6 v=0
517258 Par ch=1 c=64 v=127
517268 On ch=1 n=d#3 v=119
517270 On ch=1 n=f#6 v=0
517276 On ch=1 n=a#5 v=119
517330 On ch=1 n=d#4 v=106
517332 On ch=1 n=d#3 v=0
517344 On ch=1 n=a#5 v=0
517358 On ch=1 n=f#6 v=107
517452 On ch=1 n=d#6 v=99
517464 On ch=1 n=f#6 v=0
517476 On ch=1 n=d#4 v=0
517486 On ch=1 n=d4 v=44
517502 On ch=1 n=d#4 v=89
517514 On ch=1 n=f#6 v=87
517524 On ch=1 n=d4 v=0
517536 On ch=1 n=d#6 v=0
517564 On ch=1 n=d#4 v=0
517588 Par ch=1 c=64 v=63
517596 Par ch=1 c=64 v=127
517606 On ch=1 n=f3 v=114
517614 On ch=1 n=f#6 v=0
517624 On ch=1 n=a#5 v=119
517674 On ch=1 n=f3 v=0
517676 On ch=1 n=f4 v=96
517688 On ch=1 n=a#5 v=0
517698 On ch=1 n=f#6 v=99
517782 On ch=1 n=d#4 v=105
517786 On ch=1 n=f4 v=0
517786 On ch=1 n=c#6 v=99
517800 On ch=1 n=f#6 v=0
517848 On ch=1 n=f#6 v=90
517850 On ch=1 n=d#4 v=0
517864 On ch=1 n=f4 v=84
517868 On ch=1 n=c#6 v=0
517916 Par ch=1 c=64 v=63
517940 On ch=1 n=f4 v=0
517944 Par ch=1 c=64 v=127
517952 On ch=1 n=f#6 v=0
517954 On ch=1 n=f#3 v=116
517964 On ch=1 n=a#5 v=120
518010 On ch=1 n=f#3 v=0
518022 On ch=1 n=f#4 v=106
518030 On ch=1 n=a#5 v=0
518044 On ch=1 n=f#6 v=105
518108 On ch=1 n=f#4 v=0
518114 On ch=1 n=f4 v=71
518124 On ch=1 n=c#6 v=101
518144 On ch=1 n=f#6 v=0
518178 On ch=1 n=f#4 v=95
518192 On ch=1 n=f#6 v=91
518194 On ch=1 n=f4 v=0
518208 On ch=1 n=c#6 v=0
518248 On ch=1 n=f#4 v=0
518276 Par ch=1 c=64 v=63
518282 Par ch=1 c=64 v=0
518292 On ch=1 n=f#6 v=0
518308 On ch=1 n=g#3 v=75
518308 On ch=1 n=g#5 v=119
518310 On ch=1 n=g#4 v=115
518372 On ch=1 n=g#5 v=0
518384 On ch=1 n=f#6 v=101
518480 On ch=1 n=c#6 v=100
518494 On ch=1 n=f#6 v=0
518562 On ch=1 n=f#6 v=104
518570 On ch=1 n=c#6 v=0
518658 Par ch=1 c=64 v=63
518660 On ch=1 n=f#6 v=0
518660 Par ch=1 c=64 v=127
518668 On ch=1 n=g#5 v=118
518730 On ch=1 n=g#4 v=0
518734 On ch=1 n=g#5 v=0
518742 On ch=1 n=f#6 v=99
518796 On ch=1 n=g#3 v=0
518834 On ch=1 n=c#6 v=100
518854 On ch=1 n=f#6 v=0
518916 On ch=1 n=f#6 v=95
518922 On ch=1 n=c#6 v=0
518980 Par ch=1 c=64 v=63
518988 Par ch=1 c=64 v=0
519018 On ch=1 n=f#6 v=0
519022 On ch=1 n=g#5 v=119
519088 On ch=1 n=g#5 v=0
519108 On ch=1 n=f#6 v=100
519210 On ch=1 n=c6 v=83
519224 On ch=1 n=f#6 v=0
519292 On ch=1 n=c6 v=0
519292 On ch=1 n=f#6 v=98
519354 On ch=1 n=g#2 v=115
519362 Par ch=1 c=64 v=63
519364 Par ch=1 c=64 v=127
519374 On ch=1 n=g#5 v=118
519414 On ch=1 n=g#2 v=0
519414 On ch=1 n=g#3 v=101
519416 On ch=1 n=f#6 v=0
519448 On ch=1 n=g#5 v=0
519454 On ch=1 n=f#6 v=92
519508 On ch=1 n=g#3 v=0
519528 On ch=1 n=g3 v=70
519548 On ch=1 n=c6 v=78
519570 On ch=1 n=f#6 v=0
519598 On ch=1 n=g#3 v=96
519614 On ch=1 n=g3 v=0
519624 On ch=1 n=f#6 v=94
519630 Par ch=1 c=64 v=63
519640 On ch=1 n=c6 v=0
519668 Par ch=1 c=64 v=127
519674 On ch=1 n=g#3 v=0
519678 On ch=1 n=a#2 v=119
519732 On ch=1 n=g#5 v=119
519748 On ch=1 n=a#2 v=0
519748 On ch=1 n=a#3 v=106
519756 On ch=1 n=f#6 v=0
519800 On ch=1 n=g#5 v=0
519814 On ch=1 n=f#6 v=86
519840 On ch=1 n=a3 v=101
519842 On ch=1 n=a#3 v=0
519864 On ch=1 n=a3 v=0
519894 On ch=1 n=c#6 v=106
519924 On ch=1 n=f#6 v=0
519940 On ch=1 n=b3 v=91
519966 Par ch=1 c=64 v=63
519974 On ch=1 n=f#6 v=92
519986 On ch=1 n=c#6 v=0
520032 On ch=1 n=b3 v=0
520036 On ch=1 n=c3 v=120
520040 Par ch=1 c=64 v=127
520070 On ch=1 n=g#5 v=120
520096 On ch=1 n=c3 v=0
520114 On ch=1 n=f#6 v=0
520142 On ch=1 n=c4 v=83
520144 On ch=1 n=g#5 v=0
520150 On ch=1 n=f#6 v=96
520232 On ch=1 n=d#6 v=103
520238 On ch=1 n=b3 v=82
520254 On ch=1 n=c4 v=0
520258 On ch=1 n=f#6 v=0
520274 On ch=1 n=b3 v=0
520306 On ch=1 n=f#6 v=94
520316 Par ch=1 c=64 v=63
520316 On ch=1 n=c4 v=82
520336 On ch=1 n=d#6 v=0
520352 Par ch=1 c=64 v=0
520362 On ch=1 n=c4 v=0
520406 Par ch=1 c=64 v=63
520424 On ch=1 n=f#6 v=0
520424 On ch=1 n=c#3 v=104
520428 On ch=1 n=c#4 v=125
520428 On ch=1 n=g#5 v=116
520440 Par ch=1 c=64 v=127
520514 On ch=1 n=f6 v=84
520516 On ch=1 n=g#5 v=0
520608 On ch=1 n=d#6 v=107
520636 On ch=1 n=f6 v=0
520692 On ch=1 n=f6 v=96
520696 On ch=1 n=d#6 v=0
520696 On ch=1 n=c#3 v=0
520760 On ch=1 n=c#4 v=0
520790 On ch=1 n=f6 v=0
520800 On ch=1 n=g#5 v=114
520828 Par ch=1 c=64 v=63
520850 Par ch=1 c=64 v=0
520882 On ch=1 n=g#5 v=0
520902 On ch=1 n=f6 v=102
520992 On ch=1 n=c#6 v=105
521004 On ch=1 n=c#4 v=108
521012 On ch=1 n=f6 v=0
521022 Par ch=1 c=64 v=63
521054 On ch=1 n=d#4 v=109
521068 On ch=1 n=f6 v=78
521082 On ch=1 n=c#6 v=0
521088 Par ch=1 c=64 v=127
521116 On ch=1 n=c#4 v=0
521118 On ch=1 n=f4 v=106
521150 On ch=1 n=a#5 v=119
521154 On ch=1 n=f6 v=0
521154 On ch=1 n=g4 v=113
521178 On ch=1 n=d#4 v=0
521216 On ch=1 n=f4 v=0
521224 On ch=1 n=a#5 v=0
521250 On ch=1 n=d#6 v=101
521258 Par ch=1 c=64 v=63
521350 On ch=1 n=c#6 v=105
521364 On ch=1 n=d#6 v=0
521398 Par ch=1 c=64 v=127
521430 On ch=1 n=c#6 v=0
521432 On ch=1 n=d#6 v=72
521474 On ch=1 n=d#6 v=0
521484 On ch=1 n=g4 v=0
521492 On ch=1 n=a#5 v=107
521564 On ch=1 n=a#5 v=0
521566 On ch=1 n=d#6 v=104
521662 On ch=1 n=c#6 v=106
521662 On ch=1 n=d#4 v=86
521674 On ch=1 n=d#6 v=0
521720 On ch=1 n=f4 v=91
521728 On ch=1 n=d#6 v=95
521740 Par ch=1 c=64 v=63
521746 On ch=1 n=c#6 v=0
521766 Par ch=1 c=64 v=0
521788 On ch=1 n=g4 v=88
521800 On ch=1 n=d#4 v=0
521824 On ch=1 n=a4 v=114
521826 On ch=1 n=d#6 v=0
521836 On ch=1 n=f4 v=0
521840 On ch=1 n=f5 v=108
521856 Par ch=1 c=64 v=63
521884 On ch=1 n=g4 v=0
521888 Par ch=1 c=64 v=127
521914 On ch=1 n=f5 v=0
521922 On ch=1 n=d#6 v=108
522024 On ch=1 n=c6 v=94
522042 On ch=1 n=d#6 v=0
522108 On ch=1 n=a4 v=0
522116 On ch=1 n=d#6 v=108
522128 On ch=1 n=c6 v=0
522152 Par ch=1 c=64 v=63
522202 On ch=1 n=d#6 v=0
522206 On ch=1 n=f5 v=104
522220 Par ch=1 c=64 v=0
522276 On ch=1 n=f5 v=0
522292 On ch=1 n=d#6 v=112
522292 Par ch=1 c=64 v=63
522352 On ch=1 n=f4 v=76
522394 On ch=1 n=c6 v=97
522406 On ch=1 n=d#6 v=0
522426 On ch=1 n=g4 v=74
522470 On ch=1 n=d#6 v=103
522490 On ch=1 n=c6 v=0
522496 On ch=1 n=a4 v=85
522500 On ch=1 n=f4 v=0
522542 On ch=1 n=g4 v=0
522546 On ch=1 n=d#6 v=0
522552 Par ch=1 c=64 v=127
522556 On ch=1 n=a#4 v=121
522578 On ch=1 n=f5 v=100
522602 On ch=1 n=a4 v=0
522632 Par ch=1 c=64 v=63
522654 On ch=1 n=f5 v=0
522658 Par ch=1 c=64 v=0
522660 On ch=1 n=c#6 v=107
522704 Par ch=1 c=64 v=63
522738 Par ch=1 c=64 v=127
522764 On ch=1 n=c6 v=90
522772 On ch=1 n=c#6 v=0
522846 On ch=1 n=c#6 v=104
522870 Par ch=1 c=64 v=63
522886 On ch=1 n=c6 v=0
522906 Par ch=1 c=64 v=127
522928 On ch=1 n=f5 v=106
522930 On ch=1 n=c#6 v=0
522934 On ch=1 n=a#4 v=0
522998 On ch=1 n=f5 v=0
523010 On ch=1 n=c#6 v=113
523100 On ch=1 n=a#5 v=77
523106 On ch=1 n=c#6 v=0
523124 Par ch=1 c=64 v=63
523152 On ch=1 n=a#3 v=89
523166 On ch=1 n=c#6 v=105
523172 On ch=1 n=a#5 v=0
523188 Par ch=1 c=64 v=127
523220 On ch=1 n=c4 v=89
523246 On ch=1 n=c#6 v=0
523272 On ch=1 n=c#4 v=97
523288 On ch=1 n=a#3 v=0
523300 On ch=1 n=f#5 v=115
523318 On ch=1 n=c4 v=0
523324 On ch=1 n=d#4 v=123
523346 Par ch=1 c=64 v=63
523368 On ch=1 n=b5 v=96
523372 On ch=1 n=c#4 v=0
523378 On ch=1 n=f#5 v=0
523390 Par ch=1 c=64 v=127
523492 On ch=1 n=a#5 v=106
523516 On ch=1 n=b5 v=0
523584 On ch=1 n=b5 v=86
523616 On ch=1 n=a#5 v=0
523620 On ch=1 n=d#4 v=0
523670 Par ch=1 c=64 v=63
523674 On ch=1 n=f#5 v=114
523680 On ch=1 n=b5 v=0
523758 On ch=1 n=b5 v=99
523764 On ch=1 n=f#5 v=0
523834 On ch=1 n=a#5 v=101
523850 On ch=1 n=b5 v=0
523856 On ch=1 n=b3 v=92
523864 Par ch=1 c=64 v=127
523900 On ch=1 n=b5 v=87
523906 On ch=1 n=c#4 v=107
523958 On ch=1 n=d#4 v=107
523968 On ch=1 n=a#5 v=0
523978 On ch=1 n=b3 v=0
523988 On ch=1 n=b5 v=0
524008 On ch=1 n=f4 v=114
524020 On ch=1 n=c#5 v=112
524036 On ch=1 n=c#4 v=0
524066 On ch=1 n=d#4 v=0
524088 On ch=1 n=c#5 v=0
524114 On ch=1 n=b5 v=97
524124 Par ch=1 c=64 v=63
524190 Par ch=1 c=64 v=127
524206 On ch=1 n=g#5 v=107
524230 On ch=1 n=b5 v=0
524284 On ch=1 n=b5 v=100
524294 On ch=1 n=g#5 v=0
524330 On ch=1 n=f4 v=0
524368 Par ch=1 c=64 v=63
524376 On ch=1 n=b5 v=0
524384 On ch=1 n=c#5 v=109
524394 Par ch=1 c=64 v=0
524448 On ch=1 n=c#5 v=0
524448 On ch=1 n=b5 v=89
524516 Par ch=1 c=64 v=63
524528 On ch=1 n=c#4 v=83
524532 On ch=1 n=g#5 v=101
524548 On ch=1 n=b5 v=0
524580 On ch=1 n=d#4 v=90
524610 On ch=1 n=b5 v=91
524618 On ch=1 n=g#5 v=0
524640 On ch=1 n=f4 v=92
524644 On ch=1 n=c#4 v=0
524648 Par ch=1 c=64 v=127
524678 Par ch=1 c=64 v=63
524692 On ch=1 n=b5 v=0
524696 On ch=1 n=d#4 v=0
524712 On ch=1 n=f#4 v=127
524724 On ch=1 n=c#5 v=108
524730 Par ch=1 c=64 v=0
524754 On ch=1 n=f4 v=0
524800 On ch=1 n=a#5 v=101
524806 On ch=1 n=c#5 v=0
524904 On ch=1 n=g#5 v=104
524906 Par ch=1 c=64 v=63
524926 On ch=1 n=a#5 v=0
524950 Par ch=1 c=64 v=127
524988 On ch=1 n=a#5 v=100
524996 On ch=1 n=g#5 v=0
525040 On ch=1 n=f#4 v=0
525072 On ch=1 n=a#5 v=0
525088 On ch=1 n=c#5 v=114
525124 Par ch=1 c=64 v=63
525162 On ch=1 n=c#5 v=0
525162 On ch=1 n=a#5 v=104
525166 Par ch=1 c=64 v=0
525264 On ch=1 n=f#5 v=103
525268 On ch=1 n=a#5 v=0
525322 On ch=1 n=f#3 v=103
525336 Par ch=1 c=64 v=63
525338 On ch=1 n=a#5 v=100
525350 On ch=1 n=f#5 v=0
525372 Par ch=1 c=64 v=127
525396 On ch=1 n=g#3 v=110
525424 On ch=1 n=a#5 v=0
525440 On ch=1 n=f#3 v=0
525446 On ch=1 n=a#3 v=114
525476 On ch=1 n=d#5 v=113
525492 On ch=1 n=c4 v=104
525498 On ch=1 n=g#3 v=0
525518 Par ch=1 c=64 v=63
525548 On ch=1 n=d#5 v=0
525548 Par ch=1 c=64 v=0
525552 On ch=1 n=a#3 v=0
525566 On ch=1 n=g#5 v=103
525624 Par ch=1 c=64 v=63
525658 Par ch=1 c=64 v=127
525664 On ch=1 n=f#5 v=107
525694 On ch=1 n=g#5 v=0
525750 On ch=1 n=g#5 v=92
525768 On ch=1 n=f#5 v=0
525838 On ch=1 n=d#5 v=102
525846 Par ch=1 c=64 v=63
525850 On ch=1 n=g#5 v=0
525858 On ch=1 n=c4 v=0
525906 On ch=1 n=d#5 v=0
525920 On ch=1 n=g#5 v=97
525956 Par ch=1 c=64 v=0
525984 Par ch=1 c=64 v=63
525996 On ch=1 n=g#3 v=92
526008 On ch=1 n=f#5 v=107
526032 On ch=1 n=g#5 v=0
526054 On ch=1 n=a#3 v=104
526086 On ch=1 n=g#5 v=98
526100 Par ch=1 c=64 v=127
526102 On ch=1 n=f#5 v=0
526118 On ch=1 n=c4 v=100
526124 On ch=1 n=g#3 v=0
526176 On ch=1 n=g#5 v=0
526178 On ch=1 n=d4 v=116
526184 On ch=1 n=a#3 v=0
526206 On ch=1 n=a#4 v=112
526236 On ch=1 n=c4 v=0
526276 On ch=1 n=g#5 v=103
526314 On ch=1 n=a#4 v=0
526332 Par ch=1 c=64 v=63
526370 Par ch=1 c=64 v=0
526372 On ch=1 n=f5 v=85
526398 On ch=1 n=g#5 v=0
526456 Par ch=1 c=64 v=63
526460 On ch=1 n=g#5 v=97
526478 On ch=1 n=f5 v=0
526486 Par ch=1 c=64 v=127
526544 On ch=1 n=d4 v=0
526558 On ch=1 n=a#4 v=110
526576 On ch=1 n=g#5 v=0
526632 On ch=1 n=g#5 v=88
526640 On ch=1 n=a#4 v=0
526644 Par ch=1 c=64 v=63
526644 On ch=1 n=a#3 v=86
526718 Par ch=1 c=64 v=0
526720 On ch=1 n=f5 v=72
526726 On ch=1 n=c4 v=82
526738 On ch=1 n=g#5 v=0
526792 On ch=1 n=d4 v=103
526794 Par ch=1 c=64 v=63
526802 On ch=1 n=g#5 v=91
526806 On ch=1 n=a#3 v=0
526820 On ch=1 n=f5 v=0
526856 On ch=1 n=c4 v=0
526862 Par ch=1 c=64 v=127
526886 On ch=1 n=d#4 v=124
526898 On ch=1 n=g#5 v=0
526916 On ch=1 n=a#4 v=114
526928 On ch=1 n=d4 v=0
526986 On ch=1 n=g#5 v=96
526998 On ch=1 n=a#4 v=0
527076 On ch=1 n=f5 v=91
527106 On ch=1 n=g#5 v=0
527166 On ch=1 n=g#5 v=97
527188 On ch=1 n=f5 v=0
527266 On ch=1 n=g#5 v=0
527278 On ch=1 n=a#4 v=113
527302 On ch=1 n=d#4 v=0
527346 On ch=1 n=g#5 v=93
527364 On ch=1 n=a#4 v=0
527442 On ch=1 n=f5 v=88
527466 On ch=1 n=g#5 v=0
527514 On ch=1 n=g#5 v=82
527550 On ch=1 n=f5 v=0
527618 On ch=1 n=d#3 v=120
527622 On ch=1 n=g#5 v=0
527630 On ch=1 n=c5 v=108
527708 On ch=1 n=f#5 v=106
527724 On ch=1 n=c5 v=0
527730 Par ch=1 c=64 v=63
527756 Par ch=1 c=64 v=0
527800 On ch=1 n=d#5 v=103
527818 On ch=1 n=f#5 v=0
527836 Par ch=1 c=64 v=63
527862 Par ch=1 c=64 v=127
527894 On ch=1 n=f#5 v=108
527908 On ch=1 n=d#5 v=0
527986 On ch=1 n=c5 v=104
527996 On ch=1 n=f#5 v=0
528068 On ch=1 n=f#5 v=107
528084 On ch=1 n=c5 v=0
528146 On ch=1 n=d#5 v=105
528166 On ch=1 n=f#5 v=0
528204 On ch=1 n=d#3 v=0
528238 On ch=1 n=f#5 v=106
528246 On ch=1 n=d#5 v=0
528314 On ch=1 n=f#5 v=0
528326 On ch=1 n=f3 v=122
528340 On ch=1 n=g#4 v=108
528412 On ch=1 n=g#4 v=0
528432 Par ch=1 c=64 v=63
528432 On ch=1 n=f5 v=99
528452 Par ch=1 c=64 v=0
528516 Par ch=1 c=64 v=63
528534 On ch=1 n=f5 v=0
528538 Par ch=1 c=64 v=127
528542 On ch=1 n=c#5 v=103
528600 On ch=1 n=c#5 v=0
528610 On ch=1 n=f5 v=98
528712 On ch=1 n=g#4 v=103
528736 On ch=1 n=f5 v=0
528792 On ch=1 n=g#4 v=0
528832 On ch=1 n=f5 v=83
528868 On ch=1 n=c#5 v=85
528884 On ch=1 n=f5 v=0
528962 On ch=1 n=f5 v=90
528964 On ch=1 n=c#5 v=0
529012 On ch=1 n=f3 v=0
529052 On ch=1 n=f#3 v=113
529064 On ch=1 n=g#4 v=107
529102 On ch=1 n=f5 v=0
529132 Par ch=1 c=64 v=63
529138 On ch=1 n=g#4 v=0
529152 On ch=1 n=f5 v=65
529158 Par ch=1 c=64 v=0
529204 Par ch=1 c=64 v=63
529240 Par ch=1 c=64 v=127
529246 On ch=1 n=a#4 v=105
529256 On ch=1 n=f5 v=0
529328 On ch=1 n=a#4 v=0
529342 On ch=1 n=f5 v=102
529424 On ch=1 n=g#4 v=104
529502 On ch=1 n=g#4 v=0
529572 On ch=1 n=a#4 v=107
529600 On ch=1 n=f5 v=0
529652 On ch=1 n=f5 v=96
529656 On ch=1 n=a#4 v=0
529746 On ch=1 n=f5 v=0
529756 On ch=1 n=f#4 v=113
529758 On ch=1 n=f#2 v=110
529832 On ch=1 n=f#4 v=0
529838 Par ch=1 c=64 v=63
529852 On ch=1 n=d#5 v=91
529858 Par ch=1 c=64 v=0
529924 On ch=1 n=a#4 v=94
529948 Par ch=1 c=64 v=63
529964 On ch=1 n=d#5 v=0
529970 Par ch=1 c=64 v=127
530008 On ch=1 n=d#5 v=94
530012 On ch=1 n=a#4 v=0
530114 On ch=1 n=f#4 v=107
530142 On ch=1 n=d#5 v=0
530186 On ch=1 n=f#4 v=0
530202 On ch=1 n=d#5 v=72
530208 On ch=1 n=f#3 v=0
530266 On ch=1 n=a#4 v=99
530300 On ch=1 n=d#5 v=0
530342 On ch=1 n=f#2 v=0
530348 On ch=1 n=a#4 v=0
530350 On ch=1 n=d#5 v=88
530456 On ch=1 n=f4 v=102
530462 On ch=1 n=g2 v=117
530484 On ch=1 n=d#5 v=0
530534 On ch=1 n=c#5 v=103
530538 On ch=1 n=f4 v=0
530540 Par ch=1 c=64 v=63
530556 Par ch=1 c=64 v=0
530614 Par ch=1 c=64 v=63
530624 On ch=1 n=a#4 v=99
530644 On ch=1 n=c#5 v=0
530646 Par ch=1 c=64 v=127
530702 On ch=1 n=c#5 v=100
530722 On ch=1 n=a#4 v=0
530796 On ch=1 n=f4 v=92
530800 On ch=1 n=c#5 v=0
530870 On ch=1 n=c#5 v=100
530880 On ch=1 n=f4 v=0
530952 On ch=1 n=a#4 v=97
530970 On ch=1 n=c#5 v=0
531044 On ch=1 n=c#5 v=105
531064 On ch=1 n=a#4 v=0
531078 On ch=1 n=g2 v=0
531116 On ch=1 n=g#2 v=118
531126 On ch=1 n=c#5 v=0
531136 On ch=1 n=f4 v=97
531152 Par ch=1 c=64 v=63
531182 Par ch=1 c=64 v=0
531212 Par ch=1 c=64 v=63
531218 On ch=1 n=f4 v=0
531232 On ch=1 n=c#5 v=103
531260 Par ch=1 c=64 v=127
531314 On ch=1 n=g#4 v=94
531346 On ch=1 n=c#5 v=0
531390 On ch=1 n=c#5 v=90
531400 On ch=1 n=g#4 v=0
531494 On ch=1 n=f4 v=87
531504 On ch=1 n=c#5 v=0
531570 On ch=1 n=f4 v=0
531572 On ch=1 n=c#5 v=90
531650 On ch=1 n=g#4 v=97
531666 On ch=1 n=c#5 v=0
531730 On ch=1 n=g#4 v=0
531730 On ch=1 n=c#5 v=91
531818 On ch=1 n=c#5 v=0
531836 On ch=1 n=d#4 v=109
531912 On ch=1 n=c5 v=70
531916 On ch=1 n=d#4 v=0
532008 On ch=1 n=g#4 v=100
532020 On ch=1 n=c5 v=0
532096 On ch=1 n=g#4 v=0
532098 On ch=1 n=c5 v=87
532186 On ch=1 n=d#4 v=104
532188 On ch=1 n=c5 v=0
532262 On ch=1 n=c5 v=68
532270 On ch=1 n=d#4 v=0
532348 On ch=1 n=g#4 v=96
532360 On ch=1 n=c5 v=0
532426 On ch=1 n=c5 v=91
532434 On ch=1 n=g#4 v=0
532512 On ch=1 n=c5 v=0
532538 On ch=1 n=c#4 v=110
532618 On ch=1 n=c#4 v=0
532626 On ch=1 n=a#4 v=99
532722 On ch=1 n=f4 v=84
532744 On ch=1 n=a#4 v=0
532794 On ch=1 n=a#4 v=86
532812 On ch=1 n=f4 v=0
532892 On ch=1 n=a#4 v=0
532902 On ch=1 n=c#4 v=94
532958 On ch=1 n=a#4 v=60
532980 On ch=1 n=c#4 v=0
533048 On ch=1 n=f4 v=77
533070 On ch=1 n=a#4 v=0
533124 On ch=1 n=g#2 v=0
533134 On ch=1 n=a#4 v=80
533148 On ch=1 n=f4 v=0
533196 On ch=1 n=g#2 v=116
533238 On ch=1 n=c#4 v=106
533240 On ch=1 n=a#4 v=0
533318 On ch=1 n=a#4 v=81
533322 On ch=1 n=c#4 v=0
533442 On ch=1 n=a#4 v=0
533460 On ch=1 n=f4 v=17
533486 On ch=1 n=a#4 v=88
533504 On ch=1 n=f4 v=0
533574 On ch=1 n=a#4 v=0
533584 On ch=1 n=c#4 v=97
533646 On ch=1 n=a#4 v=53
533666 On ch=1 n=c#4 v=0
533746 On ch=1 n=f4 v=65
533756 On ch=1 n=a#4 v=0
533828 On ch=1 n=a#4 v=89
533836 On ch=1 n=f4 v=0
533904 On ch=1 n=a#4 v=0
533914 On ch=1 n=c4 v=98
534008 On ch=1 n=c4 v=0
534010 On ch=1 n=g#4 v=90
534106 On ch=1 n=d#4 v=90
534132 On ch=1 n=g#4 v=0
534204 On ch=1 n=d#4 v=0
534206 On ch=1 n=g#4 v=93
534300 On ch=1 n=c4 v=81
534308 On ch=1 n=g#4 v=0
534378 On ch=1 n=c4 v=0
534386 On ch=1 n=g#4 v=86
534464 On ch=1 n=d#4 v=91
534488 On ch=1 n=g#4 v=0
534552 On ch=1 n=d#4 v=0
534558 On ch=1 n=g#4 v=82
534650 On ch=1 n=a#3 v=90
534652 On ch=1 n=g#4 v=0
534736 On ch=1 n=g4 v=75
534746 On ch=1 n=a#3 v=0
534818 On ch=1 n=c#4 v=98
534846 On ch=1 n=g4 v=0
534916 On ch=1 n=c#4 v=0
534926 On ch=1 n=g4 v=77
535032 On ch=1 n=a#3 v=98
535060 On ch=1 n=g4 v=0
535122 On ch=1 n=g4 v=57
535134 On ch=1 n=a#3 v=0
535210 On ch=1 n=c#4 v=98
535246 On ch=1 n=g4 v=0
535272 On ch=1 n=g#2 v=0
535322 On ch=1 n=g4 v=91
535342 On ch=1 n=c#4 v=0
535484 On ch=1 n=g#2 v=109
535500 On ch=1 n=c4 v=99
535578 On ch=1 n=g4 v=0
535752 Par ch=1 c=64 v=63
535780 Par ch=1 c=64 v=0
535920 Par ch=1 c=64 v=63
535940 Par ch=1 c=64 v=127
535960 On ch=1 n=g#4 v=91
536270 On ch=1 n=d#4 v=95
536276 On ch=1 n=c4 v=0
536342 On ch=1 n=g#4 v=0
536466 On ch=1 n=c4 v=85
536476 On ch=1 n=d#4 v=0
536648 On ch=1 n=c4 v=0
536658 On ch=1 n=g#3 v=105
536856 On ch=1 n=d#4 v=91
536904 On ch=1 n=g#3 v=0
537018 On ch=1 n=c4 v=93
537048 On ch=1 n=d#4 v=0
537146 On ch=1 n=g#3 v=106
537226 On ch=1 n=c4 v=0
537312 On ch=1 n=d#3 v=104
537356 On ch=1 n=g#3 v=0
537472 On ch=1 n=c4 v=98
537630 On ch=1 n=g#3 v=107
537650 On ch=1 n=d#3 v=0
537710 On ch=1 n=c4 v=0
537782 On ch=1 n=d#3 v=107
537884 On ch=1 n=g#3 v=0
537910 On ch=1 n=g#2 v=0
537950 On ch=1 n=c3 v=109
537984 On ch=1 n=d#3 v=0
538140 Par ch=1 c=64 v=63
538178 Par ch=1 c=64 v=127
538200 On ch=1 n=g#3 v=108
538304 On ch=1 n=g#3 v=0
538378 On ch=1 n=d#3 v=108
538398 On ch=1 n=c3 v=0
538462 On ch=1 n=d#3 v=0
538516 On ch=1 n=c4 v=96
538594 On ch=1 n=c4 v=0
538666 On ch=1 n=g#3 v=112
538814 On ch=1 n=d#4 v=109
538896 On ch=1 n=d#4 v=0
538900 On ch=1 n=g#3 v=0
538964 On ch=1 n=c4 v=108
539076 On ch=1 n=c4 v=0
539102 On ch=1 n=g#4 v=108
539190 On ch=1 n=g#4 v=0
539260 On ch=1 n=d#4 v=118
539332 On ch=1 n=d#4 v=0
539396 On ch=1 n=c5 v=114
539470 On ch=1 n=c5 v=0
539558 On ch=1 n=g#4 v=113
539700 On ch=1 n=d#5 v=115
539712 On ch=1 n=g#4 v=0
539778 On ch=1 n=d#5 v=0
539852 On ch=1 n=c5 v=112
539954 On ch=1 n=c5 v=0
540000 On ch=1 n=g#5 v=118
540078 On ch=1 n=g#5 v=0
540152 On ch=1 n=d#5 v=120
540226 On ch=1 n=d#5 v=0
540272 On ch=1 n=c6 v=113
540346 On ch=1 n=c6 v=0
540424 On ch=1 n=g#5 v=114
540536 On ch=1 n=g#5 v=0
540562 On ch=1 n=d#6 v=118
540628 On ch=1 n=d#6 v=0
540706 On ch=1 n=c6 v=113
540832 On ch=1 n=c6 v=0
540834 On ch=1 n=g#6 v=120
540914 On ch=1 n=g#6 v=0
540986 On ch=1 n=d#6 v=124
541054 On ch=1 n=d#6 v=0
541104 On ch=1 n=c7 v=118
541184 On ch=1 n=c7 v=0
541254 On ch=1 n=g#6 v=120
541330 On ch=1 n=g#6 v=0
541382 On ch=1 n=d#7 v=126
541444 On ch=1 n=d#7 v=0
541582 Par ch=1 c=64 v=63
541592 On ch=1 n=g4 v=106
541592 On ch=1 n=a#4 v=114
541594 Par ch=1 c=64 v=0
541594 On ch=1 n=c#5 v=123
541598 On ch=1 n=e7 v=125
541622 On ch=1 n=e5 v=98
541636 Par ch=1 c=64 v=127
541652 On ch=1 n=e5 v=0
541820 Par ch=1 c=64 v=63
541824 Par ch=1 c=64 v=0
541920 Par ch=1 c=64 v=63
541924 Par ch=1 c=64 v=127
542076 On ch=1 n=e7 v=0
542146 On ch=1 n=c#5 v=0
542164 On ch=1 n=a#4 v=0
542178 On ch=1 n=g4 v=0
542424 Par ch=1 c=64 v=63
542438 On ch=1 n=a#6 v=97
542440 Par ch=1 c=64 v=0
542604 On ch=1 n=c#7 v=100
542640 On ch=1 n=a#6 v=0
542744 On ch=1 n=g6 v=77
542756 On ch=1 n=c#7 v=0
542856 On ch=1 n=g6 v=0
542872 On ch=1 n=a#6 v=104
542990 On ch=1 n=a#6 v=0
543014 On ch=1 n=e6 v=76
543096 On ch=1 n=e6 v=0
543150 On ch=1 n=g6 v=85
543290 On ch=1 n=g6 v=0
543296 On ch=1 n=c#6 v=109
543406 On ch=1 n=c#6 v=0
543436 On ch=1 n=e6 v=100
543554 On ch=1 n=e6 v=0
543568 On ch=1 n=a#5 v=103
543646 On ch=1 n=a#5 v=0
543708 On ch=1 n=c#6 v=106
543800 On ch=1 n=c#6 v=0
543834 On ch=1 n=g5 v=75
543920 On ch=1 n=g5 v=0
543980 On ch=1 n=a#5 v=106
544042 On ch=1 n=a#5 v=0
544298 On ch=1 n=g4 v=107
544306 On ch=1 n=g3 v=108
544308 On ch=1 n=a#5 v=92
544308 On ch=1 n=c#6 v=98
544312 On ch=1 n=e5 v=90
544342 On ch=1 n=a#5 v=0
544346 On ch=1 n=e5 v=0
544366 On ch=1 n=g4 v=0
544370 On ch=1 n=g3 v=0
544372 On ch=1 n=c#6 v=0
544608 On ch=1 n=g4 v=113
544612 On ch=1 n=c#6 v=118
544614 On ch=1 n=g3 v=113
544616 On ch=1 n=e5 v=114
544618 On ch=1 n=a#5 v=106
544670 On ch=1 n=e5 v=0
544670 On ch=1 n=g4 v=0
544672 On ch=1 n=a#5 v=0
544674 On ch=1 n=g3 v=0
544690 On ch=1 n=c#6 v=0
544906 On ch=1 n=f4 v=113
544910 On ch=1 n=c#6 v=119
544910 On ch=1 n=f5 v=121
544910 On ch=1 n=f3 v=109
544914 On ch=1 n=a#5 v=113
544962 On ch=1 n=f5 v=0
544968 On ch=1 n=f4 v=0
544970 On ch=1 n=f3 v=0
544972 On ch=1 n=a#5 v=0
545002 On ch=1 n=c#6 v=0
545214 On ch=1 n=e4 v=124
545216 On ch=1 n=e3 v=121
545220 On ch=1 n=c6 v=126
545226 On ch=1 n=g5 v=120
545226 On ch=1 n=a#5 v=114
545248 Par ch=1 c=64 v=127
545260 On ch=1 n=e4 v=0
545276 On ch=1 n=g5 v=0
545282 On ch=1 n=a#5 v=0
545282 On ch=1 n=e3 v=0
545294 On ch=1 n=c6 v=0
545814 Par ch=1 c=64 v=63
545826 Par ch=1 c=64 v=0
545994 On ch=1 n=c4 v=77
546156 Par ch=1 c=64 v=63
546158 Par ch=1 c=64 v=127
546192 On ch=1 n=g4 v=75
546204 On ch=1 n=c4 v=0
546338 On ch=1 n=g4 v=0
546340 On ch=1 n=e4 v=86
546462 On ch=1 n=e4 v=0
546486 On ch=1 n=a#4 v=96
546622 On ch=1 n=g4 v=82
546626 On ch=1 n=a#4 v=0
546768 On ch=1 n=c#5 v=105
546794 On ch=1 n=g4 v=0
546900 On ch=1 n=a#4 v=106
546924 On ch=1 n=c#5 v=0
547052 On ch=1 n=e5 v=106
547074 On ch=1 n=a#4 v=0
547182 On ch=1 n=c#5 v=112
547206 On ch=1 n=e5 v=0
547338 On ch=1 n=g5 v=103
547348 On ch=1 n=c#5 v=0
547472 On ch=1 n=e5 v=97
547484 On ch=1 n=g5 v=0
547578 On ch=1 n=e5 v=0
547620 On ch=1 n=a#5 v=121
547680 On ch=1 n=a#5 v=0
547932 On ch=1 n=e6 v=121
547936 On ch=1 n=g5 v=117
547936 On ch=1 n=c#6 v=116
547940 On ch=1 n=a#4 v=124
547946 Par ch=1 c=64 v=63
547950 On ch=1 n=a#3 v=120
547958 Par ch=1 c=64 v=0
547990 On ch=1 n=g5 v=0
547998 On ch=1 n=c#6 v=0
548004 On ch=1 n=a#4 v=0
548006 On ch=1 n=e6 v=0
548008 On ch=1 n=a#3 v=0
548242 On ch=1 n=f6 v=111
548250 On ch=1 n=c6 v=102
548250 On ch=1 n=g#5 v=106
548252 On ch=1 n=g#4 v=121
548260 On ch=1 n=g#3 v=116
548294 On ch=1 n=g#5 v=0
548304 On ch=1 n=c6 v=0
548314 On ch=1 n=f6 v=0
548316 On ch=1 n=g#4 v=0
548326 On ch=1 n=g#3 v=0
548524 On ch=1 n=g6 v=108
548528 On ch=1 n=a#5 v=118
548534 On ch=1 n=e6 v=98
548536 On ch=1 n=g4 v=117
548540 On ch=1 n=g3 v=116
548586 On ch=1 n=a#5 v=0
548602 On ch=1 n=g4 v=0
548602 On ch=1 n=e6 v=0
548602 On ch=1 n=g6 v=0
548610 On ch=1 n=g3 v=0
548830 On ch=1 n=f6 v=101
548834 On ch=1 n=c6 v=102
548836 On ch=1 n=g#6 v=116
548838 On ch=1 n=f3 v=116
548838 On ch=1 n=f4 v=118
548874 Par ch=1 c=64 v=127
548894 On ch=1 n=f4 v=0
548898 On ch=1 n=f3 v=0
548900 On ch=1 n=c6 v=0
548918 On ch=1 n=g#6 v=0
548922 On ch=1 n=f6 v=0
549566 Par ch=1 c=64 v=63
549594 Par ch=1 c=64 v=0
549602 On ch=1 n=g#4 v=79
549818 On ch=1 n=f5 v=76
549894 On ch=1 n=g#4 v=0
549992 On ch=1 n=c5 v=93
550004 Par ch=1 c=64 v=63
550012 On ch=1 n=f5 v=0
550022 Par ch=1 c=64 v=127
550140 On ch=1 n=g#5 v=95
550174 On ch=1 n=c5 v=0
550276 On ch=1 n=f5 v=96
550334 On ch=1 n=g#5 v=0
550416 On ch=1 n=c6 v=103
550422 On ch=1 n=f5 v=0
550542 On ch=1 n=g#5 v=110
550590 On ch=1 n=c6 v=0
550626 On ch=1 n=g#5 v=0
550676 On ch=1 n=f6 v=106
550758 On ch=1 n=f6 v=0
550824 On ch=1 n=c6 v=101
550958 On ch=1 n=c6 v=0
550964 On ch=1 n=g#6 v=115
551084 On ch=1 n=f6 v=114
551152 On ch=1 n=g#6 v=0
551224 On ch=1 n=c7 v=118
551248 On ch=1 n=f6 v=0
551298 On ch=1 n=c7 v=0
551534 On ch=1 n=c6 v=125
551534 On ch=1 n=f4 v=118
551536 On ch=1 n=f3 v=118
551538 On ch=1 n=f5 v=117
551542 On ch=1 n=g#5 v=116
551580 Par ch=1 c=64 v=63
551586 Par ch=1 c=64 v=0
551588 On ch=1 n=f5 v=0
551594 On ch=1 n=g#5 v=0
551594 On ch=1 n=c6 v=0
551616 On ch=1 n=f4 v=0
551636 On ch=1 n=f3 v=0
551850 On ch=1 n=f4 v=121
551850 On ch=1 n=f3 v=118
551856 On ch=1 n=c6 v=127
551858 On ch=1 n=f5 v=125
551862 On ch=1 n=g#5 v=123
551908 On ch=1 n=f5 v=0
551912 On ch=1 n=c6 v=0
551912 On ch=1 n=f4 v=0
551914 On ch=1 n=g#5 v=0
551914 On ch=1 n=f3 v=0
552174 On ch=1 n=c6 v=125
552174 On ch=1 n=d#4 v=119
552176 On ch=1 n=g5 v=122
552176 On ch=1 n=d#3 v=120
552226 On ch=1 n=g5 v=0
552230 On ch=1 n=d#4 v=0
552234 On ch=1 n=c6 v=0
552248 On ch=1 n=d#3 v=0
552498 On ch=1 n=c6 v=118
552500 On ch=1 n=d3 v=122
552502 On ch=1 n=d4 v=124
552506 On ch=1 n=a5 v=103
552506 On ch=1 n=f#5 v=120
552550 Par ch=1 c=64 v=127
552596 On ch=1 n=f#5 v=0
552610 On ch=1 n=a5 v=0
552618 On ch=1 n=c6 v=0
552728 On ch=1 n=d3 v=0
552762 On ch=1 n=d4 v=0
553338 On ch=1 n=a5 v=116
553426 Par ch=1 c=64 v=63
553446 Par ch=1 c=64 v=0
553518 Par ch=1 c=64 v=63
553544 Par ch=1 c=64 v=127
553646 On ch=1 n=c6 v=103
553702 On ch=1 n=a5 v=0
553870 On ch=1 n=f#5 v=114
553878 On ch=1 n=c6 v=0
554052 On ch=1 n=a5 v=98
554082 On ch=1 n=f#5 v=0
554204 On ch=1 n=d#5 v=107
554270 On ch=1 n=a5 v=0
554350 On ch=1 n=f#5 v=108
554406 On ch=1 n=d#5 v=0
554480 On ch=1 n=c5 v=101
554520 On ch=1 n=f#5 v=0
554610 On ch=1 n=d#5 v=110
554638 On ch=1 n=c5 v=0
554694 On ch=1 n=d#5 v=0
554744 On ch=1 n=a4 v=94
554836 On ch=1 n=a4 v=0
554896 On ch=1 n=c5 v=108
555022 On ch=1 n=f#4 v=114
555036 On ch=1 n=c5 v=0
555190 On ch=1 n=a4 v=103
555222 On ch=1 n=f#4 v=0
555354 On ch=1 n=a4 v=0
555496 On ch=1 n=d#6 v=121
555498 On ch=1 n=c5 v=121
555498 On ch=1 n=f#6 v=118
555502 On ch=1 n=c4 v=112
555504 On ch=1 n=a5 v=88
555520 Par ch=1 c=64 v=63
555526 Par ch=1 c=64 v=0
555558 On ch=1 n=a5 v=0
555562 On ch=1 n=d#6 v=0
555568 On ch=1 n=c5 v=0
555592 On ch=1 n=c4 v=0
555600 On ch=1 n=f#6 v=0
555796 On ch=1 n=g6 v=108
555800 On ch=1 n=d6 v=102
555806 On ch=1 n=a#3 v=118
555806 On ch=1 n=a#5 v=101
555806 On ch=1 n=a#4 v=121
555842 On ch=1 n=a#5 v=0
555860 On ch=1 n=a#4 v=0
555860 On ch=1 n=d6 v=0
555882 On ch=1 n=g6 v=0
555884 On ch=1 n=a#3 v=0
556078 On ch=1 n=a6 v=116
556080 On ch=1 n=f#6 v=109
556084 On ch=1 n=c6 v=113
556090 On ch=1 n=a4 v=113
556092 On ch=1 n=a3 v=111
556136 On ch=1 n=f#6 v=0
556138 On ch=1 n=c6 v=0
556152 On ch=1 n=a4 v=0
556154 On ch=1 n=a6 v=0
556164 On ch=1 n=a3 v=0
556386 On ch=1 n=d6 v=112
556386 On ch=1 n=g3 v=118
556388 On ch=1 n=a#6 v=116
556388 On ch=1 n=g4 v=120
556390 On ch=1 n=a#5 v=125
556390 On ch=1 n=g6 v=98
556418 Par ch=1 c=64 v=127
556436 On ch=1 n=g4 v=0
556442 On ch=1 n=a#5 v=0
556442 On ch=1 n=g3 v=0
556444 On ch=1 n=d6 v=0
556472 On ch=1 n=g6 v=0
556492 On ch=1 n=a#6 v=0
557236 On ch=1 n=d5 v=90
557270 Par ch=1 c=64 v=63
557292 Par ch=1 c=64 v=0
557338 Par ch=1 c=64 v=63
557380 Par ch=1 c=64 v=127
557448 On ch=1 n=d5 v=0
557458 On ch=1 n=a#5 v=99
557560 On ch=1 n=a#5 v=0
557610 On ch=1 n=g5 v=85
557714 On ch=1 n=g5 v=0
557748 On ch=1 n=d6 v=99
557868 On ch=1 n=a#5 v=114
557916 On ch=1 n=d6 v=0
557954 On ch=1 n=a#5 v=0
558002 On ch=1 n=g6 v=108
558078 On ch=1 n=g6 v=0
558146 On ch=1 n=d6 v=97
558298 On ch=1 n=d6 v=0
558364 On ch=1 n=a#6 v=123
558714 On ch=1 n=d5 v=114
558714 On ch=1 n=g4 v=103
558716 On ch=1 n=a#4 v=112
558784 On ch=1 n=a#6 v=0
558894 On ch=1 n=d5 v=0
558908 On ch=1 n=a#4 v=0
558926 On ch=1 n=g4 v=0
559120 On ch=1 n=d5 v=109
559120 On ch=1 n=a#4 v=108
559124 On ch=1 n=g4 v=97
559266 On ch=1 n=g5 v=98
559312 Par ch=1 c=64 v=63
559326 Par ch=1 c=64 v=0
559406 On ch=1 n=d6 v=98
559418 Par ch=1 c=64 v=63
559448 Par ch=1 c=64 v=127
559458 On ch=1 n=g5 v=0
559532 On ch=1 n=a#5 v=112
559586 On ch=1 n=d6 v=0
559626 On ch=1 n=a#5 v=0
559656 On ch=1 n=g6 v=101
559730 On ch=1 n=g6 v=0
559792 On ch=1 n=d6 v=102
559934 On ch=1 n=a#6 v=116
559938 On ch=1 n=d6 v=0
560056 On ch=1 n=g6 v=109
560104 On ch=1 n=a#6 v=0
560176 On ch=1 n=g4 v=0
560192 On ch=1 n=g6 v=0
560210 On ch=1 n=a#4 v=0
560212 On ch=1 n=d5 v=0
560214 On ch=1 n=d7 v=121
560466 Par ch=1 c=64 v=63
560476 Par ch=1 c=64 v=0
560498 On ch=1 n=f5 v=118
560498 On ch=1 n=b4 v=113
560502 On ch=1 n=g4 v=106
560576 On ch=1 n=b4 v=0
560576 On ch=1 n=f5 v=0
560600 On ch=1 n=g4 v=0
560640 On ch=1 n=d7 v=0
560866 On ch=1 n=g4 v=114
560866 On ch=1 n=f5 v=124
560868 On ch=1 n=b4 v=118
560892 Par ch=1 c=64 v=127
561088 On ch=1 n=d7 v=117
561288 On ch=1 n=f7 v=104
561330 On ch=1 n=d7 v=0
561412 On ch=1 n=f7 v=0
561426 On ch=1 n=b6 v=106
561556 On ch=1 n=b6 v=0
561582 On ch=1 n=d7 v=106
561694 On ch=1 n=d7 v=0
561702 On ch=1 n=g#6 v=109
561796 On ch=1 n=g#6 v=0
561814 On ch=1 n=b6 v=101
561916 On ch=1 n=b6 v=0
561944 On ch=1 n=f6 v=100
562064 On ch=1 n=f6 v=0
562088 On ch=1 n=g#6 v=110
562206 On ch=1 n=g#6 v=0
562208 On ch=1 n=d6 v=90
562300 On ch=1 n=d6 v=0
562352 On ch=1 n=f6 v=104
562450 On ch=1 n=f6 v=0
562486 On ch=1 n=b5 v=108
562490 On ch=1 n=f5 v=0
562596 On ch=1 n=b5 v=0
562616 On ch=1 n=d6 v=108
562650 On ch=1 n=b4 v=0
562710 On ch=1 n=g4 v=0
562720 On ch=1 n=g#5 v=107
562740 On ch=1 n=d6 v=0
562840 On ch=1 n=b5 v=106
562862 On ch=1 n=g#5 v=0
562966 On ch=1 n=f5 v=103
562974 On ch=1 n=b5 v=0
563124 On ch=1 n=g#5 v=123
563142 On ch=1 n=f5 v=0
563208 On ch=1 n=g#5 v=0
563644 On ch=1 n=g#4 v=114
563644 On ch=1 n=d4 v=111
563646 On ch=1 n=c3 v=113
563646 On ch=1 n=c4 v=121
563646 On ch=1 n=f4 v=107
563768 Par ch=1 c=64 v=63
563784 Par ch=1 c=64 v=0
563958 Par ch=1 c=64 v=63
563972 Par ch=1 c=64 v=127
564172 On ch=1 n=c4 v=0
564178 On ch=1 n=c3 v=0
564186 On ch=1 n=g#4 v=0
564194 On ch=1 n=f4 v=0
564196 On ch=1 n=d4 v=0
564368 On ch=1 n=g#4 v=123
564372 On ch=1 n=d4 v=117
564374 On ch=1 n=b3 v=122
564376 On ch=1 n=f4 v=108
564380 On ch=1 n=b2 v=120
564588 Par ch=1 c=64 v=63
564622 Par ch=1 c=64 v=0
564942 Par ch=1 c=64 v=63
564970 Par ch=1 c=64 v=127
565626 On ch=1 n=g4 v=80
565680 On ch=1 n=g#4 v=0
565730 Par ch=1 c=64 v=63
565816 Par ch=1 c=64 v=127
565876 On ch=1 n=b3 v=0
565910 On ch=1 n=b2 v=0
565940 On ch=1 n=f4 v=0
565962 On ch=1 n=g4 v=0
566030 On ch=1 n=d4 v=0
566250 On ch=1 n=c5 v=99
566256 On ch=1 n=f4 v=91
566260 On ch=1 n=d4 v=96
566268 On ch=1 n=g#3 v=113
566270 On ch=1 n=g#2 v=105
566332 Par ch=1 c=64 v=63
566360 Par ch=1 c=64 v=0
566390 Par ch=1 c=64 v=63
566428 Par ch=1 c=64 v=127
566602 On ch=1 n=c5 v=0
566616 On ch=1 n=d4 v=0
566648 On ch=1 n=f4 v=0
566650 On ch=1 n=g#3 v=0
566652 On ch=1 n=g#2 v=0
566726 On ch=1 n=c5 v=114
566734 On ch=1 n=d4 v=99
566736 On ch=1 n=g#3 v=119
566736 On ch=1 n=f4 v=98
566742 On ch=1 n=g#2 v=113
566858 On ch=1 n=g#3 v=0
566860 On ch=1 n=g#2 v=0
566878 On ch=1 n=f4 v=0
566892 On ch=1 n=d4 v=0
566892 On ch=1 n=c5 v=0
567090 On ch=1 n=c5 v=118
567096 On ch=1 n=d4 v=117
567096 On ch=1 n=g#3 v=119
567098 On ch=1 n=f4 v=109
567102 On ch=1 n=g#2 v=118
567300 On ch=1 n=d4 v=0
567306 On ch=1 n=g#3 v=0
567310 On ch=1 n=f4 v=0
567316 On ch=1 n=g#2 v=0
567326 On ch=1 n=c5 v=0
567448 On ch=1 n=c5 v=121
567448 On ch=1 n=g3 v=120
567450 On ch=1 n=d4 v=121
567452 On ch=1 n=g2 v=118
567454 On ch=1 n=f4 v=112
567584 Par ch=1 c=64 v=63
567612 Par ch=1 c=64 v=0
567650 Par ch=1 c=64 v=63
567694 Par ch=1 c=64 v=127
567910 On ch=1 n=g3 v=0
567962 On ch=1 n=g2 v=0
568080 On ch=1 n=c5 v=0
568158 On ch=1 n=b4 v=87
568224 Par ch=1 c=64 v=63
568268 Par ch=1 c=64 v=0
568328 Par ch=1 c=64 v=63
568362 Par ch=1 c=64 v=127
568388 On ch=1 n=d4 v=0
568434 On ch=1 n=f4 v=0
568460 On ch=1 n=b4 v=0
568692 On ch=1 n=c4 v=84
568692 On ch=1 n=d#5 v=112
568694 On ch=1 n=f#4 v=108
568706 On ch=1 n=c3 v=81
568732 Par ch=1 c=64 v=63
568826 Par ch=1 c=64 v=127
568918 On ch=1 n=f#4 v=0
568934 On ch=1 n=c3 v=0
568938 On ch=1 n=d#5 v=0
568944 On ch=1 n=c4 v=0
569024 On ch=1 n=c4 v=108
569030 On ch=1 n=c3 v=109
569038 On ch=1 n=d#5 v=116
569044 On ch=1 n=f#4 v=116
569172 On ch=1 n=f#4 v=0
569192 On ch=1 n=c3 v=0
569200 On ch=1 n=c4 v=0
569204 On ch=1 n=d#5 v=0
569324 On ch=1 n=c4 v=116
569326 On ch=1 n=c3 v=113
569334 On ch=1 n=d#5 v=116
569334 On ch=1 n=f#4 v=118
569508 On ch=1 n=f#4 v=0
569536 On ch=1 n=d#5 v=0
569546 On ch=1 n=c4 v=0
569556 On ch=1 n=c3 v=0
569644 On ch=1 n=c3 v=109
569644 On ch=1 n=c4 v=109
569658 On ch=1 n=d#5 v=118
569660 On ch=1 n=f#4 v=119
569718 Par ch=1 c=64 v=63
569740 Par ch=1 c=64 v=0
569850 Par ch=1 c=64 v=63
569868 Par ch=1 c=64 v=127
570090 On ch=1 n=c4 v=0
570196 On ch=1 n=f#4 v=0
570298 On ch=1 n=b3 v=94
570314 On ch=1 n=b2 v=85
570322 On ch=1 n=d#5 v=0
570326 On ch=1 n=g4 v=87
570332 On ch=1 n=d5 v=92
570348 On ch=1 n=c3 v=0
570368 Par ch=1 c=64 v=63
570388 Par ch=1 c=64 v=0
570488 Par ch=1 c=64 v=63
570502 On ch=1 n=b2 v=0
570516 Par ch=1 c=64 v=127
570546 On ch=1 n=d5 v=0
570568 On ch=1 n=b3 v=0
570596 On ch=1 n=g4 v=0
570604 Par ch=1 c=64 v=63
570628 Par ch=1 c=64 v=0
570738 Par ch=1 c=64 v=63
570748 On ch=1 n=g5 v=97
570754 On ch=1 n=g4 v=77
570754 On ch=1 n=d#4 v=86
570758 On ch=1 n=d#3 v=80
570762 Par ch=1 c=64 v=127
570768 On ch=1 n=c5 v=84
570910 On ch=1 n=g4 v=0
570916 On ch=1 n=c5 v=0
570930 On ch=1 n=g5 v=0
570948 On ch=1 n=d#3 v=0
570956 On ch=1 n=d#4 v=0
571068 On ch=1 n=g5 v=103
571076 On ch=1 n=g4 v=92
571080 On ch=1 n=c5 v=97
571082 On ch=1 n=d#4 v=115
571086 On ch=1 n=d#3 v=105
571244 On ch=1 n=d#3 v=0
571256 On ch=1 n=g5 v=0
571264 On ch=1 n=g4 v=0
571270 On ch=1 n=d#4 v=0
571294 On ch=1 n=c5 v=0
571366 On ch=1 n=d#4 v=120
571366 On ch=1 n=g5 v=106
571368 On ch=1 n=g4 v=100
571370 On ch=1 n=d#3 v=113
571370 On ch=1 n=c5 v=96
571514 On ch=1 n=g4 v=0
571516 On ch=1 n=d#3 v=0
571520 On ch=1 n=d#4 v=0
571538 On ch=1 n=g5 v=0
571544 On ch=1 n=c5 v=0
571668 On ch=1 n=g5 v=109
571672 On ch=1 n=g4 v=106
571678 On ch=1 n=c5 v=106
571682 On ch=1 n=d#4 v=124
571684 On ch=1 n=d#3 v=119
572034 On ch=1 n=c5 v=0
572084 On ch=1 n=g5 v=0
572148 On ch=1 n=d#4 v=0
572160 On ch=1 n=d#3 v=0
572348 On ch=1 n=d4 v=98
572350 On ch=1 n=f5 v=101
572356 On ch=1 n=d3 v=85
572360 On ch=1 n=b4 v=90
572394 Par ch=1 c=64 v=63
572404 Par ch=1 c=64 v=0
572466 Par ch=1 c=64 v=63
572486 On ch=1 n=g4 v=0
572490 Par ch=1 c=64 v=127
572494 On ch=1 n=b4 v=0
572520 On ch=1 n=d4 v=0
572534 On ch=1 n=d3 v=0
572536 On ch=1 n=f5 v=0
572734 Par ch=1 c=64 v=63
572768 On ch=1 n=c4 v=107
572770 On ch=1 n=g#5 v=107
572772 On ch=1 n=c3 v=103
572774 On ch=1 n=f5 v=97
572774 On ch=1 n=d#5 v=96
572832 Par ch=1 c=64 v=127
573058 On ch=1 n=d#5 v=0
573076 On ch=1 n=c3 v=0
573082 On ch=1 n=f5 v=0
573086 On ch=1 n=c4 v=0
573096 On ch=1 n=g#5 v=0
573160 On ch=1 n=c4 v=102
573162 On ch=1 n=g#5 v=107
573170 On ch=1 n=c3 v=100
573170 On ch=1 n=d#5 v=104
573176 On ch=1 n=f5 v=98
573290 On ch=1 n=d#5 v=0
573300 On ch=1 n=f5 v=0
573308 On ch=1 n=c3 v=0
573318 On ch=1 n=c4 v=0
573330 On ch=1 n=g#5 v=0
573518 On ch=1 n=d#5 v=114
573520 On ch=1 n=g#5 v=113
573524 On ch=1 n=c4 v=113
573526 On ch=1 n=c3 v=109
573528 On ch=1 n=f5 v=99
573780 On ch=1 n=d#5 v=0
573786 On ch=1 n=c4 v=0
573788 On ch=1 n=f5 v=0
573880 On ch=1 n=g#5 v=0
573948 On ch=1 n=b3 v=107
573958 On ch=1 n=b2 v=107
573964 On ch=1 n=g#5 v=112
573966 On ch=1 n=d5 v=106
573968 On ch=1 n=f5 v=93
574016 On ch=1 n=c3 v=0
574120 Par ch=1 c=64 v=63
574138 Par ch=1 c=64 v=0
574400 Par ch=1 c=64 v=63
574406 Par ch=1 c=64 v=127
574910 On ch=1 n=g5 v=76
574966 On ch=1 n=g#5 v=0
575056 Par ch=1 c=64 v=63
575152 Par ch=1 c=64 v=127
575182 On ch=1 n=d5 v=0
575244 On ch=1 n=f5 v=0
575252 On ch=1 n=g5 v=0
575486 On ch=1 n=d6 v=66
575494 On ch=1 n=b5 v=40
575574 On ch=1 n=b5 v=0
575608 On ch=1 n=d6 v=0
575630 On ch=1 n=b3 v=0
575772 On ch=1 n=b2 v=0
575852 On ch=1 n=d6 v=87
575864 On ch=1 n=b5 v=71
575960 On ch=1 n=b5 v=0
575988 On ch=1 n=d6 v=0
576160 On ch=1 n=d6 v=101
576172 On ch=1 n=b5 v=88
576238 Par ch=1 c=64 v=63
576326 Par ch=1 c=64 v=0
576478 On ch=1 n=d6 v=0
576500 On ch=1 n=b5 v=0
576532 On ch=1 n=f6 v=88
576536 On ch=1 n=d6 v=66
576564 Par ch=1 c=64 v=63
576756 Par ch=1 c=64 v=127
576980 Par ch=1 c=64 v=63
576992 On ch=1 n=g#4 v=64
577146 Par ch=1 c=64 v=127
577464 On ch=1 n=d6 v=0
577470 On ch=1 n=g#4 v=0
577494 On ch=1 n=g4 v=43
577502 On ch=1 n=f6 v=0
577878 Par ch=1 c=64 v=63
577916 Par ch=1 c=64 v=0
577962 On ch=1 n=d6 v=36
577964 On ch=1 n=b6 v=57
577992 Par ch=1 c=64 v=63
578028 Par ch=1 c=64 v=127
578158 On ch=1 n=b6 v=0
578182 On ch=1 n=d6 v=0
578308 On ch=1 n=b6 v=69
578310 On ch=1 n=d6 v=54
578424 On ch=1 n=d6 v=0
578456 On ch=1 n=b6 v=0
578468 On ch=1 n=g4 v=0
578624 On ch=1 n=b6 v=89
578632 On ch=1 n=d6 v=79
578716 On ch=1 n=d6 v=0
578992 On ch=1 n=d7 v=85
579004 On ch=1 n=b6 v=0
579024 On ch=1 n=f6 v=34
579060 Par ch=1 c=64 v=63
579114 Par ch=1 c=64 v=0
579404 On ch=1 n=g#5 v=54
579556 Par ch=1 c=64 v=63
579564 Par ch=1 c=64 v=127
579696 On ch=1 n=g#5 v=0
579860 On ch=1 n=g5 v=31
579868 On ch=1 n=f6 v=0
579976 On ch=1 n=d7 v=0
580330 Par ch=1 c=64 v=63
580342 On ch=1 n=d7 v=55
580350 On ch=1 n=b6 v=42
580362 Par ch=1 c=64 v=0
580418 Par ch=1 c=64 v=63
580462 Par ch=1 c=64 v=127
580528 On ch=1 n=d7 v=0
580556 On ch=1 n=b6 v=0
580742 On ch=1 n=d7 v=68
580754 On ch=1 n=b6 v=53
580866 On ch=1 n=b6 v=0
580874 On ch=1 n=d7 v=0
580890 On ch=1 n=g5 v=0
581236 On ch=1 n=d7 v=66
581240 On ch=1 n=b6 v=42
581358 On ch=1 n=b6 v=0
581366 On ch=1 n=d7 v=0
581868 On ch=1 n=f7 v=52
581892 On ch=1 n=d7 v=47
581986 Par ch=1 c=64 v=63
582066 Par ch=1 c=64 v=0
582580 Par ch=1 c=64 v=63
582598 On ch=1 n=g#6 v=47
582614 Par ch=1 c=64 v=127
582844 On ch=1 n=g#6 v=0
583654 On ch=1 n=g6 v=28
584042 Par ch=1 c=64 v=63
584242 Par ch=1 c=64 v=0
585138 On ch=1 n=g6 v=0
585310 On ch=1 n=d7 v=0
585348 On ch=1 n=f7 v=0
587672 On ch=1 n=c3 v=112
587674 On ch=1 n=c4 v=124
587690 Par ch=1 c=64 v=63
587694 Par ch=1 c=64 v=127
587704 On ch=1 n=c5 v=127
587814 On ch=1 n=c5 v=0
587974 On ch=1 n=c4 v=0
587980 On ch=1 n=c3 v=0
590480 On ch=1 n=d#5 v=76
590486 On ch=1 n=d#4 v=69
590492 On ch=1 n=d#3 v=61
590716 Par ch=1 c=64 v=63
590856 Par ch=1 c=64 v=127
591058 On ch=1 n=d#3 v=0
591134 On ch=1 n=d#4 v=0
591362 On ch=1 n=f#5 v=71
591364 On ch=1 n=f#4 v=65
591376 On ch=1 n=f#3 v=62
591402 On ch=1 n=d#5 v=0
591734 On ch=1 n=f#3 v=0
591766 On ch=1 n=f#4 v=0
592028 On ch=1 n=g4 v=72
592030 On ch=1 n=g5 v=84
592042 On ch=1 n=g3 v=70
592120 On ch=1 n=f#5 v=0
592164 Par ch=1 c=64 v=63
592190 Par ch=1 c=64 v=127
592426 On ch=1 n=g3 v=0
592468 On ch=1 n=g4 v=0
592674 On ch=1 n=g#5 v=83
592688 On ch=1 n=g#4 v=79
592704 On ch=1 n=g#3 v=63
592714 On ch=1 n=g5 v=0
592808 Par ch=1 c=64 v=63
592868 Par ch=1 c=64 v=127
592976 On ch=1 n=g#4 v=0
593026 On ch=1 n=g#3 v=0
593422 On ch=1 n=c4 v=55
593432 On ch=1 n=c5 v=63
593436 On ch=1 n=c3 v=51
593440 On ch=1 n=g#5 v=0
593542 Par ch=1 c=64 v=63
593638 Par ch=1 c=64 v=127
593888 On ch=1 n=c4 v=0
593980 On ch=1 n=c5 v=0
594118 On ch=1 n=c3 v=0
594386 On ch=1 n=b4 v=39
594396 On ch=1 n=b3 v=41
594422 On ch=1 n=b2 v=43
594556 Par ch=1 c=64 v=63
594604 Par ch=1 c=64 v=0
594680 Par ch=1 c=64 v=63
594722 Par ch=1 c=64 v=127
594848 On ch=1 n=b2 v=0
594850 On ch=1 n=b4 v=0
594882 On ch=1 n=b3 v=0
595580 Par ch=1 c=64 v=63
595852 Par ch=1 c=64 v=0
595930 Par ch=1 c=64 v=63
596780 Par ch=1 c=64 v=127
596796 On ch=1 n=d#6 v=44
596802 On ch=1 n=f#5 v=44
596834 On ch=1 n=c6 v=37
596924 On ch=1 n=f#5 v=0
596952 On ch=1 n=d#6 v=0
596972 On ch=1 n=c6 v=0
597602 On ch=1 n=d6 v=37
597610 On ch=1 n=b5 v=17
597626 On ch=1 n=g5 v=19
597720 Par ch=1 c=64 v=63
597834 Par ch=1 c=64 v=0
597898 On ch=1 n=g5 v=0
597900 On ch=1 n=b5 v=0
597918 On ch=1 n=d6 v=0
598032 Par ch=1 c=64 v=63
598556 Par ch=1 c=64 v=127
598650 On ch=1 n=f#6 v=58
598660 On ch=1 n=g#5 v=36
598686 On ch=1 n=c6 v=22
598836 On ch=1 n=f#6 v=0
598844 On ch=1 n=g#5 v=0
598890 On ch=1 n=c6 v=0
599774 On ch=1 n=b5 v=16
599776 On ch=1 n=g6 v=21
599804 On ch=1 n=g5 v=15
599956 Par ch=1 c=64 v=63
600342 On ch=1 n=b5 v=0
600348 On ch=1 n=g6 v=0
600358 On ch=1 n=g5 v=0
602790 Par ch=1 c=64 v=127
603074 On ch=1 n=g#4 v=114
603074 On ch=1 n=g#3 v=119
603082 On ch=1 n=g#2 v=110
603860 Par ch=1 c=64 v=63
603952 Par ch=1 c=64 v=0
604298 Par ch=1 c=64 v=63
604624 Par ch=1 c=64 v=127
604892 On ch=1 n=g#2 v=0
604986 On ch=1 n=g#3 v=0
605040 On ch=1 n=g#4 v=0
605516 On ch=1 n=b4 v=79
605522 On ch=1 n=b3 v=66
605534 On ch=1 n=b2 v=67
605712 Par ch=1 c=64 v=63
605806 Par ch=1 c=64 v=127
606028 On ch=1 n=b2 v=0
606086 On ch=1 n=b3 v=0
606280 On ch=1 n=c4 v=66
606288 On ch=1 n=c5 v=84
606296 On ch=1 n=c3 v=70
606336 On ch=1 n=b4 v=0
606838 On ch=1 n=c5 v=0
606870 On ch=1 n=c#5 v=76
606962 On ch=1 n=c5 v=84
607018 On ch=1 n=c#5 v=0
607046 On ch=1 n=a#4 v=92
607078 On ch=1 n=c5 v=0
607096 On ch=1 n=c4 v=0
607142 On ch=1 n=c5 v=87
607164 On ch=1 n=a#4 v=0
607356 On ch=1 n=c3 v=0
607410 On ch=1 n=c#5 v=103
607420 On ch=1 n=c#3 v=87
607422 On ch=1 n=c#4 v=93
607476 On ch=1 n=c5 v=0
607482 Par ch=1 c=64 v=63
607496 Par ch=1 c=64 v=127
607648 On ch=1 n=c#3 v=0
607668 On ch=1 n=c#4 v=0
607762 On ch=1 n=d#5 v=95
607772 On ch=1 n=d#4 v=87
607776 On ch=1 n=d#3 v=77
607828 On ch=1 n=c#5 v=0
607894 Par ch=1 c=64 v=63
607916 Par ch=1 c=64 v=0
607960 Par ch=1 c=64 v=63
608006 Par ch=1 c=64 v=127
608142 On ch=1 n=d#4 v=0
608188 On ch=1 n=d#3 v=0
608544 On ch=1 n=d#5 v=0
608566 On ch=1 n=g#4 v=71
608572 On ch=1 n=g#3 v=65
608584 On ch=1 n=g#2 v=55
608692 Par ch=1 c=64 v=63
608822 Par ch=1 c=64 v=127
608988 On ch=1 n=g#3 v=0
609018 On ch=1 n=g#2 v=0
609078 On ch=1 n=g#4 v=0
609448 On ch=1 n=g4 v=42
609482 On ch=1 n=g3 v=40
609510 On ch=1 n=g2 v=31
609552 Par ch=1 c=64 v=63
609582 Par ch=1 c=64 v=0
609690 Par ch=1 c=64 v=63
609716 Par ch=1 c=64 v=127
609968 On ch=1 n=g4 v=0
610050 On ch=1 n=g2 v=0
610110 On ch=1 n=g3 v=0
610582 Par ch=1 c=64 v=63
610652 Par ch=1 c=64 v=0
611710 Par ch=1 c=64 v=63
611718 On ch=1 n=g#5 v=51
611720 On ch=1 n=b5 v=66
611744 Par ch=1 c=64 v=127
611746 On ch=1 n=d5 v=46
612054 On ch=1 n=g#5 v=0
612078 On ch=1 n=b5 v=0
612110 On ch=1 n=d5 v=0
612658 On ch=1 n=a#5 v=54
612664 On ch=1 n=d#5 v=30
612676 On ch=1 n=g5 v=14
612752 Par ch=1 c=64 v=63
612828 Par ch=1 c=64 v=0
613024 On ch=1 n=g5 v=0
613024 On ch=1 n=a#5 v=0
613030 On ch=1 n=d#5 v=0
613816 Par ch=1 c=64 v=63
613874 On ch=1 n=g#5 v=28
613880 On ch=1 n=d6 v=27
613882 Par ch=1 c=64 v=127
613900 On ch=1 n=b5 v=27
614226 On ch=1 n=b5 v=0
614240 On ch=1 n=g#5 v=0
614250 On ch=1 n=d6 v=0
615208 On ch=1 n=d#6 v=45
615222 On ch=1 n=a#5 v=28
615270 On ch=1 n=g5 v=21
615596 Par ch=1 c=64 v=63
615802 Par ch=1 c=64 v=0
615822 On ch=1 n=a#5 v=0
615838 On ch=1 n=d#6 v=0
615902 On ch=1 n=g5 v=0
618326 On ch=1 n=f3 v=102
618360 On ch=1 n=c#5 v=115
618442 Par ch=1 c=64 v=63
618452 Par ch=1 c=64 v=127
618830 On ch=1 n=c#4 v=72
619194 On ch=1 n=g#3 v=78
619302 On ch=1 n=c#4 v=0
619356 On ch=1 n=c#5 v=0
619506 On ch=1 n=c#4 v=72
619702 On ch=1 n=f3 v=0
619822 On ch=1 n=f3 v=63
619902 On ch=1 n=c#4 v=0
620160 On ch=1 n=c#4 v=62
620272 On ch=1 n=g#3 v=0
620596 On ch=1 n=g#3 v=37
620598 On ch=1 n=c#7 v=64
620698 On ch=1 n=c#4 v=0
620958 On ch=1 n=c#4 v=54
621076 On ch=1 n=f3 v=0
621238 On ch=1 n=g#6 v=81
621270 On ch=1 n=f3 v=55
621328 On ch=1 n=c#4 v=0
621342 On ch=1 n=c#7 v=0
621524 On ch=1 n=c#4 v=76
621580 On ch=1 n=g#3 v=0
621798 On ch=1 n=f6 v=89
621806 On ch=1 n=g#3 v=70
621870 On ch=1 n=g#6 v=0
621882 On ch=1 n=c#4 v=0
621924 On ch=1 n=f6 v=0
622032 On ch=1 n=c#4 v=90
622104 On ch=1 n=f3 v=0
622314 On ch=1 n=c#6 v=99
622324 On ch=1 n=f3 v=72
622428 On ch=1 n=c#4 v=0
622558 On ch=1 n=c#6 v=0
622576 On ch=1 n=g#3 v=0
622582 On ch=1 n=c#4 v=98
622868 On ch=1 n=g#5 v=105
622872 On ch=1 n=g#3 v=94
622946 On ch=1 n=c#4 v=0
622970 On ch=1 n=g#5 v=0
623174 On ch=1 n=f3 v=0
623186 On ch=1 n=c#4 v=115
623388 On ch=1 n=g#3 v=0
623558 On ch=1 n=d#5 v=120
623558 On ch=1 n=f#3 v=115
623558 On ch=1 n=c5 v=114
623558 On ch=1 n=a4 v=101
623648 On ch=1 n=c#4 v=0
623816 Par ch=1 c=64 v=63
623840 Par ch=1 c=64 v=0
623976 Par ch=1 c=64 v=63
623996 Par ch=1 c=64 v=127
624000 On ch=1 n=c4 v=87
624326 On ch=1 n=a3 v=86
624360 On ch=1 n=a4 v=0
624408 On ch=1 n=c4 v=0
624416 On ch=1 n=c5 v=0
624492 On ch=1 n=d#5 v=0
624594 On ch=1 n=c4 v=89
624732 On ch=1 n=f#3 v=0
624868 On ch=1 n=f#3 v=84
624974 On ch=1 n=c4 v=0
625150 On ch=1 n=c4 v=84
625240 On ch=1 n=a3 v=0
625468 On ch=1 n=a3 v=50
625510 On ch=1 n=c7 v=86
625612 On ch=1 n=c4 v=0
625848 On ch=1 n=c4 v=78
625984 On ch=1 n=f#3 v=0
626142 On ch=1 n=f#3 v=63
626146 On ch=1 n=a6 v=91
626184 On ch=1 n=c7 v=0
626272 On ch=1 n=c4 v=0
626430 On ch=1 n=c4 v=84
626492 On ch=1 n=a3 v=0
626710 On ch=1 n=f#6 v=96
626740 On ch=1 n=a3 v=51
626850 On ch=1 n=c4 v=0
626990 On ch=1 n=c4 v=78
626992 On ch=1 n=a6 v=0
627128 On ch=1 n=f#3 v=0
627294 On ch=1 n=d#6 v=76
627312 On ch=1 n=f#3 v=57
627430 On ch=1 n=c4 v=0
627496 On ch=1 n=f#6 v=0
627592 On ch=1 n=a3 v=0
627608 On ch=1 n=c4 v=47
627956 On ch=1 n=c6 v=65
627960 On ch=1 n=a3 v=42
627996 On ch=1 n=c4 v=0
628024 On ch=1 n=d#6 v=0
628256 On ch=1 n=c6 v=0
628316 On ch=1 n=c4 v=52
628492 On ch=1 n=f#3 v=0
628506 On ch=1 n=a3 v=0
628780 On ch=1 n=g3 v=68
628854 On ch=1 n=c4 v=0
629140 Par ch=1 c=64 v=63
629224 On ch=1 n=d#5 v=45
629228 On ch=1 n=c5 v=33
629272 Par ch=1 c=64 v=127
629444 On ch=1 n=d#5 v=0
629456 On ch=1 n=c5 v=0
629596 On ch=1 n=d#5 v=56
629610 On ch=1 n=c5 v=30
629752 On ch=1 n=d#5 v=0
629760 On ch=1 n=c5 v=0
629908 On ch=1 n=d#5 v=60
629916 On ch=1 n=c5 v=48
629938 On ch=1 n=g3 v=0
630104 On ch=1 n=c5 v=0
630126 On ch=1 n=d#5 v=0
630200 On ch=1 n=g#3 v=84
630374 Par ch=1 c=64 v=63
630452 On ch=1 n=c5 v=57
630452 On ch=1 n=d#5 v=67
630490 Par ch=1 c=64 v=127
630612 On ch=1 n=c5 v=0
630620 On ch=1 n=d#5 v=0
630760 On ch=1 n=d#5 v=67
630760 On ch=1 n=c5 v=63
630890 On ch=1 n=d#5 v=0
630894 On ch=1 n=c5 v=0
631036 On ch=1 n=d#5 v=71
631046 On ch=1 n=c5 v=63
631050 On ch=1 n=g#3 v=0
631164 On ch=1 n=d#5 v=0
631166 On ch=1 n=c5 v=0
631308 On ch=1 n=f3 v=82
631552 Par ch=1 c=64 v=63
631582 On ch=1 n=d5 v=69
631584 On ch=1 n=c5 v=55
631600 Par ch=1 c=64 v=0
631704 Par ch=1 c=64 v=63
631754 Par ch=1 c=64 v=127
631776 On ch=1 n=c5 v=0
631784 On ch=1 n=d5 v=0
631898 On ch=1 n=d5 v=58
631902 On ch=1 n=c5 v=48
632032 On ch=1 n=d5 v=0
632038 On ch=1 n=c5 v=0
632188 On ch=1 n=d5 v=57
632190 On ch=1 n=c5 v=45
632228 On ch=1 n=f3 v=0
632368 On ch=1 n=c5 v=0
632368 On ch=1 n=d5 v=0
632472 On ch=1 n=g3 v=63
632632 Par ch=1 c=64 v=63
632752 On ch=1 n=b4 v=47
632756 On ch=1 n=d5 v=55
632794 Par ch=1 c=64 v=127
632924 On ch=1 n=d5 v=0
632934 On ch=1 n=b4 v=0
633096 On ch=1 n=b4 v=34
633096 On ch=1 n=d5 v=46
633270 On ch=1 n=d5 v=0
633284 On ch=1 n=b4 v=0
633322 On ch=1 n=g3 v=0
633440 On ch=1 n=b4 v=28
633446 On ch=1 n=d5 v=45
633642 On ch=1 n=b4 v=0
633706 On ch=1 n=d5 v=0
633884 On ch=1 n=c3 v=36
633886 On ch=1 n=c5 v=44
633982 Par ch=1 c=64 v=63
634118 Par ch=1 c=64 v=127
634346 On ch=1 n=c5 v=0
634360 On ch=1 n=g5 v=32
634430 On ch=1 n=c3 v=0
634640 On ch=1 n=g5 v=0
634734 On ch=1 n=g5 v=52
634918 On ch=1 n=g5 v=0
635036 On ch=1 n=g5 v=61
635218 On ch=1 n=g5 v=0
635316 On ch=1 n=g5 v=48
635334 On ch=1 n=f5 v=65
635404 Par ch=1 c=64 v=63
635434 Par ch=1 c=64 v=127
635516 On ch=1 n=g5 v=0
635518 On ch=1 n=f5 v=0
635612 On ch=1 n=g3 v=60
635614 On ch=1 n=g5 v=72
635618 On ch=1 n=f5 v=56
635684 Par ch=1 c=64 v=63
635714 Par ch=1 c=64 v=0
635734 On ch=1 n=f5 v=0
635736 On ch=1 n=g5 v=0
635754 On ch=1 n=a3 v=66
635770 On ch=1 n=g3 v=0
635806 Par ch=1 c=64 v=63
635834 Par ch=1 c=64 v=127
635852 On ch=1 n=b3 v=78
635856 On ch=1 n=g5 v=67
635866 On ch=1 n=f5 v=57
635930 On ch=1 n=a3 v=0
635970 On ch=1 n=f5 v=0
635976 On ch=1 n=g5 v=0
635986 Par ch=1 c=64 v=63
636004 Par ch=1 c=64 v=0
636008 On ch=1 n=c4 v=82
636050 On ch=1 n=b3 v=0
636104 On ch=1 n=g5 v=76
636116 On ch=1 n=f5 v=69
636142 On ch=1 n=d4 v=84
636158 On ch=1 n=c4 v=0
636200 On ch=1 n=f5 v=0
636204 On ch=1 n=g5 v=0
636230 On ch=1 n=b3 v=84
636252 On ch=1 n=d4 v=0
636352 On ch=1 n=g5 v=60
636360 On ch=1 n=d#5 v=83
636366 On ch=1 n=b3 v=0
636366 On ch=1 n=c4 v=83
636474 On ch=1 n=d#5 v=0
636506 On ch=1 n=g5 v=0
636620 On ch=1 n=d#5 v=61
636622 On ch=1 n=g5 v=64
636702 On ch=1 n=d#5 v=0
636740 On ch=1 n=g5 v=0
636868 On ch=1 n=c4 v=0
636894 On ch=1 n=g5 v=63
636894 On ch=1 n=d#5 v=72
636964 On ch=1 n=d#5 v=0
637004 On ch=1 n=g5 v=0
637148 On ch=1 n=d#5 v=59
637154 On ch=1 n=g5 v=49
637218 On ch=1 n=d#5 v=0
637268 On ch=1 n=g5 v=0
637426 On ch=1 n=g5 v=55
637426 On ch=1 n=f5 v=59
637488 Par ch=1 c=64 v=63
637498 Par ch=1 c=64 v=127
637566 On ch=1 n=f5 v=0
637568 On ch=1 n=g5 v=0
637686 On ch=1 n=g3 v=69
637724 On ch=1 n=g5 v=43
637734 On ch=1 n=f5 v=35
637804 On ch=1 n=f5 v=0
637808 On ch=1 n=g5 v=0
637846 On ch=1 n=a3 v=62
637854 On ch=1 n=g3 v=0
637920 On ch=1 n=b3 v=83
637974 On ch=1 n=g5 v=35
637980 On ch=1 n=f5 v=31
637994 On ch=1 n=a3 v=0
638050 On ch=1 n=f5 v=0
638050 On ch=1 n=g5 v=0
638056 On ch=1 n=c4 v=90
638096 On ch=1 n=b3 v=0
638172 On ch=1 n=f5 v=54
638172 On ch=1 n=g5 v=63
638174 On ch=1 n=d4 v=86
638188 On ch=1 n=c4 v=0
638242 On ch=1 n=f5 v=0
638266 On ch=1 n=g5 v=0
638276 On ch=1 n=b3 v=93
638292 On ch=1 n=d4 v=0
638410 On ch=1 n=g5 v=65
638410 On ch=1 n=c4 v=91
638414 On ch=1 n=d#5 v=78
638422 On ch=1 n=b3 v=0
638478 Par ch=1 c=64 v=63
638512 On ch=1 n=d#5 v=0
638542 On ch=1 n=g5 v=0
638552 Par ch=1 c=64 v=0
638612 Par ch=1 c=64 v=63
638668 On ch=1 n=c4 v=0
638692 On ch=1 n=g5 v=65
638696 On ch=1 n=g3 v=68
638698 On ch=1 n=f5 v=67
638708 Par ch=1 c=64 v=127
638822 On ch=1 n=a3 v=84
638874 On ch=1 n=g5 v=0
638876 On ch=1 n=g3 v=0
638882 On ch=1 n=f5 v=0
638936 On ch=1 n=b3 v=89
638970 On ch=1 n=g5 v=79
638972 On ch=1 n=f5 v=76
639028 On ch=1 n=a3 v=0
639050 Par ch=1 c=64 v=63
639074 On ch=1 n=c4 v=103
639096 On ch=1 n=f5 v=0
639104 On ch=1 n=g5 v=0
639138 On ch=1 n=b3 v=0
639202 On ch=1 n=g5 v=73
639208 On ch=1 n=f5 v=74
639218 On ch=1 n=d4 v=102
639272 On ch=1 n=c4 v=0
639296 On ch=1 n=f5 v=0
639300 On ch=1 n=g5 v=0
639328 On ch=1 n=b3 v=100
639364 On ch=1 n=d4 v=0
639480 On ch=1 n=c4 v=96
639494 On ch=1 n=d#5 v=67
639496 On ch=1 n=g5 v=57
639508 On ch=1 n=b3 v=0
639650 On ch=1 n=d#5 v=0
639724 On ch=1 n=g5 v=0
639728 On ch=1 n=c4 v=0
639776 On ch=1 n=g3 v=84
639794 On ch=1 n=g5 v=71
639798 On ch=1 n=f5 v=81
639806 Par ch=1 c=64 v=127
639910 On ch=1 n=a3 v=91
639976 On ch=1 n=g3 v=0
639988 On ch=1 n=g5 v=0
639992 On ch=1 n=f5 v=0
640038 On ch=1 n=b3 v=94
640056 On ch=1 n=g5 v=76
640060 On ch=1 n=f5 v=76
640142 On ch=1 n=a3 v=0
640194 On ch=1 n=c4 v=104
640204 On ch=1 n=f5 v=0
640210 On ch=1 n=g5 v=0
640254 On ch=1 n=b3 v=0
640316 On ch=1 n=f5 v=98
640324 On ch=1 n=g5 v=92
640338 On ch=1 n=d4 v=94
640368 On ch=1 n=c4 v=0
640426 On ch=1 n=f5 v=0
640448 On ch=1 n=b3 v=103
640464 On ch=1 n=g5 v=0
640476 On ch=1 n=d4 v=0
640544 Par ch=1 c=64 v=63
640558 Par ch=1 c=64 v=0
640610 On ch=1 n=c4 v=106
640624 On ch=1 n=g5 v=86
640632 On ch=1 n=d#5 v=97
640662 Par ch=1 c=64 v=63
640668 On ch=1 n=b3 v=0
640688 Par ch=1 c=64 v=127
640756 On ch=1 n=c4 v=0
640796 On ch=1 n=d#5 v=0
640818 On ch=1 n=g5 v=0
640946 On ch=1 n=c6 v=100
640952 On ch=1 n=e5 v=88
640980 On ch=1 n=a#4 v=86
641000 On ch=1 n=a#3 v=83
641006 Par ch=1 c=64 v=63
641048 Par ch=1 c=64 v=127
641186 On ch=1 n=a#4 v=0
641190 On ch=1 n=e5 v=0
641214 On ch=1 n=c6 v=0
641218 On ch=1 n=a#3 v=0
641272 On ch=1 n=c6 v=92
641280 On ch=1 n=f5 v=86
641290 On ch=1 n=g#4 v=90
641304 On ch=1 n=g#3 v=97
641330 Par ch=1 c=64 v=63
641340 Par ch=1 c=64 v=127
641466 On ch=1 n=g#4 v=0
641474 On ch=1 n=g#3 v=0
641484 On ch=1 n=f5 v=0
641496 On ch=1 n=c6 v=0
641568 On ch=1 n=c6 v=106
641572 On ch=1 n=g5 v=97
641574 On ch=1 n=e5 v=97
641582 On ch=1 n=g4 v=86
641604 On ch=1 n=g3 v=74
641742 On ch=1 n=g5 v=0
641762 On ch=1 n=e5 v=0
641772 On ch=1 n=g4 v=0
641782 On ch=1 n=g3 v=0
641796 On ch=1 n=c6 v=0
641864 On ch=1 n=c6 v=104
641870 On ch=1 n=g#5 v=101
641872 On ch=1 n=f5 v=93
641874 On ch=1 n=f4 v=84
641892 On ch=1 n=f3 v=91
641940 Par ch=1 c=64 v=63
642002 Par ch=1 c=64 v=127
642088 On ch=1 n=f4 v=0
642090 On ch=1 n=f5 v=0
642100 On ch=1 n=f3 v=0
642126 On ch=1 n=c6 v=0
642140 On ch=1 n=g#5 v=0
642188 On ch=1 n=c6 v=89
642194 On ch=1 n=a#5 v=99
642198 On ch=1 n=e4 v=97
642200 On ch=1 n=g5 v=88
642206 On ch=1 n=e3 v=99
642258 Par ch=1 c=64 v=63
642298 Par ch=1 c=64 v=127
642370 On ch=1 n=e3 v=0
642402 On ch=1 n=e4 v=0
642418 On ch=1 n=g5 v=0
642438 On ch=1 n=c6 v=0
642476 On ch=1 n=a#5 v=0
642526 On ch=1 n=f4 v=82
642532 On ch=1 n=c6 v=97
642534 On ch=1 n=f3 v=79
642542 On ch=1 n=g#5 v=88
642544 On ch=1 n=f5 v=80
642598 Par ch=1 c=64 v=63
642634 Par ch=1 c=64 v=127
642744 On ch=1 n=f3 v=0
642758 On ch=1 n=f5 v=0
642766 On ch=1 n=f4 v=0
642794 On ch=1 n=c6 v=0
642830 On ch=1 n=g#5 v=0
642878 On ch=1 n=c6 v=76
642880 On ch=1 n=e4 v=77
642882 On ch=1 n=a#5 v=80
642886 On ch=1 n=e3 v=74
642888 On ch=1 n=g5 v=67
642894 Par ch=1 c=64 v=63
642988 Par ch=1 c=64 v=127
643104 On ch=1 n=e3 v=0
643178 On ch=1 n=e4 v=0
643194 On ch=1 n=g5 v=0
643200 On ch=1 n=c6 v=0
643250 On ch=1 n=a#5 v=0
643356 On ch=1 n=f3 v=54
643356 On ch=1 n=c6 v=76
643362 On ch=1 n=g#5 v=75
643366 On ch=1 n=f4 v=29
643370 On ch=1 n=f5 v=63
643464 Par ch=1 c=64 v=63
643570 Par ch=1 c=64 v=127
643716 On ch=1 n=g#5 v=0
643726 On ch=1 n=c6 v=0
643804 On ch=1 n=f5 v=0
643860 On ch=1 n=f4 v=0
644028 On ch=1 n=g5 v=71
644040 On ch=1 n=f3 v=0
644040 On ch=1 n=a#5 v=67
644042 On ch=1 n=f4 v=53
644124 On ch=1 n=a#5 v=0
644174 On ch=1 n=g5 v=0
644174 On ch=1 n=g#5 v=76
644182 On ch=1 n=f5 v=70
644220 On ch=1 n=f4 v=0
644230 On ch=1 n=g#5 v=0
644270 On ch=1 n=f5 v=0
644350 On ch=1 n=d#5 v=57
644350 On ch=1 n=g5 v=66
644454 On ch=1 n=g5 v=0
644478 On ch=1 n=f5 v=69
644490 On ch=1 n=d5 v=56
644494 On ch=1 n=d#5 v=0
644558 On ch=1 n=f5 v=0
644600 On ch=1 n=d5 v=0
644666 On ch=1 n=d#5 v=70
644680 On ch=1 n=g4 v=41
644684 On ch=1 n=c5 v=68
644756 Par ch=1 c=64 v=63
644782 Par ch=1 c=64 v=0
644934 Par ch=1 c=64 v=63
644972 Par ch=1 c=64 v=127
645116 On ch=1 n=g4 v=0
645160 On ch=1 n=d#5 v=0
645182 On ch=1 n=c5 v=0
645444 On ch=1 n=g3 v=55
645448 On ch=1 n=d5 v=59
645450 On ch=1 n=b4 v=47
645498 Par ch=1 c=64 v=63
645634 Par ch=1 c=64 v=127
645808 On ch=1 n=g3 v=0
645910 On ch=1 n=b4 v=0
645920 On ch=1 n=d5 v=0
646398 On ch=1 n=c5 v=57
646434 On ch=1 n=c4 v=39
646436 Par ch=1 c=64 v=63
646464 Par ch=1 c=64 v=0
646488 Par ch=1 c=64 v=63
646540 Par ch=1 c=64 v=127
646630 On ch=1 n=c4 v=0
646910 On ch=1 n=c5 v=0
647102 On ch=1 n=g5 v=41
647296 On ch=1 n=g5 v=0
647576 On ch=1 n=g5 v=46
647694 On ch=1 n=g5 v=0
647876 On ch=1 n=g5 v=57
648018 On ch=1 n=g5 v=0
648178 On ch=1 n=g5 v=62
648324 On ch=1 n=g5 v=0
648472 On ch=1 n=g5 v=53
648500 On ch=1 n=f#5 v=60
648610 On ch=1 n=f#5 v=0
648658 On ch=1 n=g5 v=0
648758 On ch=1 n=g5 v=68
648776 On ch=1 n=f#5 v=68
648864 On ch=1 n=f#5 v=0
648868 On ch=1 n=g5 v=0
649036 On ch=1 n=g5 v=68
649042 On ch=1 n=f#5 v=77
649140 On ch=1 n=f#5 v=0
649154 On ch=1 n=g5 v=0
649320 On ch=1 n=g5 v=71
649322 On ch=1 n=f#5 v=82
649462 On ch=1 n=g5 v=0
649476 On ch=1 n=f#5 v=0
649632 On ch=1 n=g5 v=69
649644 On ch=1 n=f5 v=79
649770 Par ch=1 c=64 v=63
649828 On ch=1 n=f5 v=0
649846 Par ch=1 c=64 v=127
649856 On ch=1 n=g5 v=0
649954 On ch=1 n=g5 v=51
649962 On ch=1 n=f5 v=68
650070 On ch=1 n=f5 v=0
650080 On ch=1 n=g5 v=0
650220 On ch=1 n=g5 v=49
650232 On ch=1 n=f5 v=56
650360 On ch=1 n=f5 v=0
650362 On ch=1 n=g5 v=0
650542 On ch=1 n=g5 v=41
650548 On ch=1 n=f5 v=39
650684 On ch=1 n=f5 v=0
650694 On ch=1 n=g5 v=0
650854 On ch=1 n=g5 v=34
650856 On ch=1 n=f5 v=40
650866 On ch=1 n=g6 v=49
651002 On ch=1 n=f5 v=0
651004 On ch=1 n=g5 v=0
651008 On ch=1 n=a6 v=61
651012 On ch=1 n=g6 v=0
651142 On ch=1 n=b6 v=75
651152 On ch=1 n=g5 v=42
651156 On ch=1 n=f5 v=45
651172 On ch=1 n=a6 v=0
651252 On ch=1 n=c7 v=75
651268 On ch=1 n=f5 v=0
651278 On ch=1 n=g5 v=0
651314 On ch=1 n=b6 v=0
651376 On ch=1 n=g5 v=50
651380 On ch=1 n=d7 v=85
651388 On ch=1 n=f5 v=51
651430 On ch=1 n=c7 v=0
651496 On ch=1 n=b6 v=87
651500 On ch=1 n=g5 v=0
651516 On ch=1 n=f5 v=0
651538 On ch=1 n=d7 v=0
651652 On ch=1 n=c7 v=78
651658 On ch=1 n=g5 v=50
651662 On ch=1 n=d#5 v=58
651680 On ch=1 n=b6 v=0
651744 Par ch=1 c=64 v=63
651884 On ch=1 n=d#5 v=0
651892 On ch=1 n=g5 v=0
651908 Par ch=1 c=64 v=127
651974 On ch=1 n=g5 v=56
651980 On ch=1 n=d#5 v=61
652008 On ch=1 n=c7 v=0
652082 On ch=1 n=g5 v=0
652090 On ch=1 n=d#5 v=0
652254 On ch=1 n=d#5 v=70
652256 On ch=1 n=g5 v=58
652372 On ch=1 n=g5 v=0
652372 On ch=1 n=d#5 v=0
652534 On ch=1 n=d#5 v=85
652540 On ch=1 n=g5 v=74
652664 On ch=1 n=d#5 v=0
652668 On ch=1 n=g5 v=0
652798 On ch=1 n=g5 v=71
652812 On ch=1 n=f5 v=78
652830 Par ch=1 c=64 v=63
652972 Par ch=1 c=64 v=127
653024 On ch=1 n=f5 v=0
653034 On ch=1 n=g5 v=0
653110 On ch=1 n=g5 v=62
653118 On ch=1 n=f5 v=57
653124 On ch=1 n=g6 v=76
653220 On ch=1 n=f5 v=0
653222 On ch=1 n=g5 v=0
653250 On ch=1 n=a6 v=92
653292 On ch=1 n=g6 v=0
653354 On ch=1 n=g5 v=55
653362 On ch=1 n=f5 v=63
653374 On ch=1 n=b6 v=94
653430 On ch=1 n=a6 v=0
653468 On ch=1 n=g5 v=0
653470 On ch=1 n=f5 v=0
653488 On ch=1 n=c7 v=94
653560 On ch=1 n=b6 v=0
653598 On ch=1 n=g5 v=68
653604 On ch=1 n=f5 v=73
653616 On ch=1 n=d7 v=98
653684 On ch=1 n=c7 v=0
653716 On ch=1 n=g5 v=0
653736 On ch=1 n=f5 v=0
653742 On ch=1 n=b6 v=101
653806 Par ch=1 c=64 v=63
653810 On ch=1 n=d7 v=0
653820 Par ch=1 c=64 v=0
653874 On ch=1 n=d#5 v=78
653878 On ch=1 n=g5 v=55
653884 On ch=1 n=c7 v=97
653948 On ch=1 n=b6 v=0
654090 Par ch=1 c=64 v=63
654096 Par ch=1 c=64 v=127
654112 On ch=1 n=g5 v=0
654124 On ch=1 n=d#5 v=0
654154 On ch=1 n=c7 v=0
654230 On ch=1 n=g5 v=62
654242 On ch=1 n=f5 v=68
654248 On ch=1 n=g6 v=82
654388 On ch=1 n=a6 v=93
654422 On ch=1 n=f5 v=0
654426 On ch=1 n=g5 v=0
654442 On ch=1 n=g6 v=0
654520 On ch=1 n=g5 v=56
654522 On ch=1 n=b6 v=93
654524 On ch=1 n=f5 v=63
654582 On ch=1 n=a6 v=0
654630 On ch=1 n=c7 v=96
654648 On ch=1 n=g5 v=0
654672 On ch=1 n=f5 v=0
654702 On ch=1 n=b6 v=0
654756 On ch=1 n=d7 v=101
654764 On ch=1 n=f5 v=62
654764 On ch=1 n=g5 v=68
654820 On ch=1 n=c7 v=0
654874 On ch=1 n=b6 v=104
654890 On ch=1 n=g5 v=0
654942 On ch=1 n=d7 v=0
654986 Par ch=1 c=64 v=63
654988 On ch=1 n=f5 v=0
654992 Par ch=1 c=64 v=0
655034 On ch=1 n=g5 v=65
655034 On ch=1 n=c7 v=100
655042 On ch=1 n=d#5 v=72
655082 On ch=1 n=b6 v=0
655286 On ch=1 n=g5 v=0
655306 On ch=1 n=c7 v=0
655322 On ch=1 n=d#5 v=0
655376 On ch=1 n=g5 v=76
655384 On ch=1 n=f5 v=83
655388 On ch=1 n=g6 v=90
655486 Par ch=1 c=64 v=63
655488 Par ch=1 c=64 v=127
655524 On ch=1 n=a6 v=94
655594 On ch=1 n=f5 v=0
655602 On ch=1 n=g5 v=0
655604 On ch=1 n=g6 v=0
655654 On ch=1 n=b6 v=101
655666 On ch=1 n=f5 v=75
655670 On ch=1 n=g5 v=73
655724 On ch=1 n=a6 v=0
655786 On ch=1 n=g5 v=0
655796 On ch=1 n=c7 v=104
655806 On ch=1 n=f5 v=0
655878 On ch=1 n=b6 v=0
655896 On ch=1 n=g5 v=78
655904 On ch=1 n=f5 v=84
655936 On ch=1 n=d7 v=108
656002 On ch=1 n=c7 v=0
656046 On ch=1 n=g5 v=0
656058 On ch=1 n=b6 v=107
656102 On ch=1 n=f5 v=0
656116 On ch=1 n=d7 v=0
656202 Par ch=1 c=64 v=63
656214 Par ch=1 c=64 v=0
656222 On ch=1 n=c7 v=107
656232 On ch=1 n=g5 v=92
656240 On ch=1 n=d#5 v=98
656250 Par ch=1 c=64 v=63
656272 On ch=1 n=b6 v=0
656282 Par ch=1 c=64 v=127
656316 On ch=1 n=g5 v=0
656318 On ch=1 n=d#5 v=0
656336 On ch=1 n=c7 v=0
656626 On ch=1 n=c4 v=100
656636 On ch=1 n=g6 v=57
656638 On ch=1 n=c7 v=58
656638 On ch=1 n=a#6 v=76
656652 On ch=1 n=c6 v=76
656686 Par ch=1 c=64 v=63
656720 Par ch=1 c=64 v=127
656796 On ch=1 n=d4 v=94
656848 On ch=1 n=c6 v=0
656852 On ch=1 n=c4 v=0
656858 On ch=1 n=c7 v=0
656870 On ch=1 n=a#6 v=0
656870 On ch=1 n=g6 v=0
656930 On ch=1 n=e4 v=100
656942 On ch=1 n=g6 v=71
656946 On ch=1 n=c7 v=84
656952 On ch=1 n=a#6 v=77
656956 On ch=1 n=c6 v=73
657004 On ch=1 n=d4 v=0
657036 On ch=1 n=c6 v=0
657070 On ch=1 n=c7 v=0
657074 On ch=1 n=g6 v=0
657076 On ch=1 n=f4 v=108
657080 On ch=1 n=a#6 v=0
657142 On ch=1 n=e4 v=0
657184 On ch=1 n=c7 v=82
657184 On ch=1 n=c6 v=84
657188 On ch=1 n=g6 v=77
657192 On ch=1 n=a#6 v=80
657206 On ch=1 n=g4 v=99
657246 On ch=1 n=f4 v=0
657280 On ch=1 n=g6 v=0
657286 On ch=1 n=a#6 v=0
657294 On ch=1 n=c7 v=0
657298 On ch=1 n=c6 v=0
657328 On ch=1 n=e4 v=114
657370 On ch=1 n=g4 v=0
657426 Par ch=1 c=64 v=63
657438 Par ch=1 c=64 v=0
657468 On ch=1 n=c7 v=85
657470 On ch=1 n=f4 v=109
657474 On ch=1 n=g#6 v=88
657476 On ch=1 n=c6 v=64
657484 On ch=1 n=f6 v=77
657534 On ch=1 n=e4 v=0
657586 Par ch=1 c=64 v=63
657602 Par ch=1 c=64 v=127
657666 On ch=1 n=f6 v=0
657672 On ch=1 n=c6 v=0
657682 On ch=1 n=g#6 v=0
657700 On ch=1 n=c7 v=0
657756 On ch=1 n=c7 v=87
657760 On ch=1 n=c4 v=104
657762 On ch=1 n=f4 v=0
657766 On ch=1 n=c6 v=84
657768 On ch=1 n=g6 v=87
657770 On ch=1 n=a#6 v=96
657822 Par ch=1 c=64 v=63
657858 Par ch=1 c=64 v=0
657868 Par ch=1 c=64 v=63
657894 On ch=1 n=d4 v=104
657924 Par ch=1 c=64 v=127
657982 On ch=1 n=c6 v=0
657982 On ch=1 n=c4 v=0
657992 On ch=1 n=c7 v=0
657994 On ch=1 n=g6 v=0
658012 On ch=1 n=a#6 v=0
658028 On ch=1 n=e4 v=104
658066 On ch=1 n=c7 v=94
658070 On ch=1 n=a#6 v=73
658070 On ch=1 n=c6 v=96
658074 On ch=1 n=g6 v=84
658126 On ch=1 n=d4 v=0
658194 On ch=1 n=c6 v=0
658202 On ch=1 n=f4 v=108
658216 On ch=1 n=c7 v=0
658218 On ch=1 n=g6 v=0
658234 On ch=1 n=a#6 v=0
658270 On ch=1 n=e4 v=0
658314 Par ch=1 c=64 v=63
658376 On ch=1 n=c6 v=97
658378 On ch=1 n=g6 v=86
658380 On ch=1 n=c7 v=87
658382 On ch=1 n=g4 v=98
658384 On ch=1 n=a#6 v=86
658388 Par ch=1 c=64 v=127
658444 On ch=1 n=f4 v=0
658514 On ch=1 n=g6 v=0
658518 On ch=1 n=e4 v=108
658522 On ch=1 n=c7 v=0
658534 On ch=1 n=a#6 v=0
658538 On ch=1 n=c6 v=0
658578 On ch=1 n=g4 v=0
658718 On ch=1 n=f4 v=109
658746 On ch=1 n=g#6 v=89
658748 On ch=1 n=c7 v=97
658758 On ch=1 n=f6 v=86
658762 On ch=1 n=c6 v=72
658784 On ch=1 n=e4 v=0
658812 Par ch=1 c=64 v=63
658836 Par ch=1 c=64 v=0
658960 Par ch=1 c=64 v=63
658982 Par ch=1 c=64 v=127
659144 On ch=1 n=f6 v=0
659152 On ch=1 n=c6 v=0
659154 On ch=1 n=c7 v=0
659290 On ch=1 n=f4 v=0
659310 On ch=1 n=g#6 v=0
659434 On ch=1 n=a#6 v=83
659436 On ch=1 n=g6 v=82
659446 On ch=1 n=f4 v=81
659574 On ch=1 n=g#6 v=86
659586 On ch=1 n=a#6 v=0
659586 On ch=1 n=f6 v=85
659598 On ch=1 n=g6 v=0
659650 On ch=1 n=g#6 v=0
659734 On ch=1 n=f6 v=0
659734 On ch=1 n=d#6 v=87
659736 On ch=1 n=g6 v=78
659876 On ch=1 n=f6 v=97
659900 On ch=1 n=g6 v=0
659904 On ch=1 n=d#6 v=0
659906 On ch=1 n=d6 v=63
659970 On ch=1 n=f6 v=0
660016 On ch=1 n=d6 v=0
660078 On ch=1 n=g4 v=70
660090 On ch=1 n=d#6 v=97
660092 On ch=1 n=f4 v=0
660104 On ch=1 n=c6 v=72
660248 Par ch=1 c=64 v=63
660266 Par ch=1 c=64 v=0
660354 Par ch=1 c=64 v=63
660390 Par ch=1 c=64 v=127
660604 On ch=1 n=g4 v=0
660920 On ch=1 n=d#6 v=0
660924 On ch=1 n=d6 v=62
660928 On ch=1 n=c6 v=0
660928 On ch=1 n=g4 v=48
660934 On ch=1 n=b5 v=55
661058 Par ch=1 c=64 v=63
661092 Par ch=1 c=64 v=0
661160 Par ch=1 c=64 v=63
661210 Par ch=1 c=64 v=127
661920 On ch=1 n=c6 v=52
661930 On ch=1 n=g#4 v=54
662000 On ch=1 n=g4 v=0
662002 On ch=1 n=b5 v=0
662006 On ch=1 n=d6 v=0
662496 On ch=1 n=b4 v=55
662882 On ch=1 n=c5 v=68
662920 On ch=1 n=b4 v=0
663212 On ch=1 n=d5 v=77
663298 On ch=1 n=c5 v=0
663416 On ch=1 n=d5 v=0
663430 On ch=1 n=c6 v=0
663554 On ch=1 n=d#5 v=88
663558 On ch=1 n=c6 v=82
663752 Par ch=1 c=64 v=63
663824 Par ch=1 c=64 v=127
663902 On ch=1 n=e5 v=98
663964 On ch=1 n=d#5 v=0
664150 On ch=1 n=c6 v=0
664236 On ch=1 n=f5 v=86
664250 On ch=1 n=c6 v=104
664344 Par ch=1 c=64 v=63
664404 Par ch=1 c=64 v=127
664454 On ch=1 n=e5 v=0
664656 On ch=1 n=f#5 v=93
664716 On ch=1 n=f5 v=0
664870 On ch=1 n=c6 v=0
665104 On ch=1 n=g#4 v=0
665122 On ch=1 n=f#5 v=0
665176 On ch=1 n=c6 v=85
665178 On ch=1 n=g5 v=88
665210 On ch=1 n=g4 v=60
665380 Par ch=1 c=64 v=63
665404 Par ch=1 c=64 v=0
665512 Par ch=1 c=64 v=63
665550 Par ch=1 c=64 v=127
665752 On ch=1 n=c6 v=0
665790 On ch=1 n=d6 v=61
665842 On ch=1 n=c6 v=65
665860 On ch=1 n=d6 v=0
665912 On ch=1 n=b5 v=66
665934 On ch=1 n=c6 v=0
666002 On ch=1 n=c6 v=81
666026 On ch=1 n=b5 v=0
666068 Par ch=1 c=64 v=63
666090 Par ch=1 c=64 v=0
666166 Par ch=1 c=64 v=63
666202 Par ch=1 c=64 v=127
666328 On ch=1 n=d6 v=87
666390 On ch=1 n=c6 v=0
666688 On ch=1 n=g5 v=0
666856 On ch=1 n=g3 v=46
666878 On ch=1 n=d#6 v=76
666884 On ch=1 n=g4 v=0
666904 On ch=1 n=d6 v=0
667542 On ch=1 n=d#6 v=0
667966 On ch=1 n=b5 v=63
667968 On ch=1 n=f5 v=45
668062 Par ch=1 c=64 v=63
668092 Par ch=1 c=64 v=0
668212 Par ch=1 c=64 v=63
668288 Par ch=1 c=64 v=127
668572 On ch=1 n=f5 v=0
668596 On ch=1 n=b5 v=0
669090 On ch=1 n=g3 v=0
669270 On ch=1 n=d#5 v=39
669276 On ch=1 n=c6 v=58
669280 On ch=1 n=g#3 v=55
669842 On ch=1 n=b3 v=56
670240 On ch=1 n=c4 v=65
670294 On ch=1 n=b3 v=0
670358 On ch=1 n=c6 v=0
670446 On ch=1 n=d#5 v=0
670608 On ch=1 n=d4 v=75
670824 On ch=1 n=c4 v=0
670974 On ch=1 n=d#4 v=81
670994 On ch=1 n=c5 v=92
670996 On ch=1 n=d4 v=0
671114 Par ch=1 c=64 v=63
671150 Par ch=1 c=64 v=0
671224 Par ch=1 c=64 v=63
671276 Par ch=1 c=64 v=127
671334 On ch=1 n=e4 v=90
671406 On ch=1 n=d#4 v=0
671556 On ch=1 n=c5 v=0
671694 On ch=1 n=c5 v=96
671714 On ch=1 n=f4 v=91
671756 On ch=1 n=e4 v=0
671966 On ch=1 n=f4 v=0
672096 On ch=1 n=f#4 v=99
672238 On ch=1 n=c5 v=0
672396 On ch=1 n=f#4 v=0
672428 On ch=1 n=g#3 v=0
672602 On ch=1 n=c5 v=93
672604 On ch=1 n=g4 v=89
672630 On ch=1 n=g3 v=74
672806 Par ch=1 c=64 v=63
672830 Par ch=1 c=64 v=0
672938 Par ch=1 c=64 v=63
672964 Par ch=1 c=64 v=127
673176 On ch=1 n=c5 v=0
673266 On ch=1 n=d5 v=65
673312 On ch=1 n=c5 v=77
673346 On ch=1 n=d5 v=0
673380 On ch=1 n=b4 v=75
673396 On ch=1 n=c5 v=0
673398 On ch=1 n=g4 v=0
673454 On ch=1 n=c5 v=86
673498 On ch=1 n=b4 v=0
673804 On ch=1 n=d5 v=101
673888 On ch=1 n=c5 v=0
674090 On ch=1 n=g3 v=0
674282 On ch=1 n=d#5 v=83
674288 On ch=1 n=g2 v=70
674302 On ch=1 n=d5 v=0
674508 Par ch=1 c=64 v=63
674652 Par ch=1 c=64 v=127
674828 On ch=1 n=d#5 v=0
675258 On ch=1 n=f4 v=31
675260 On ch=1 n=b4 v=57
675302 Par ch=1 c=64 v=63
675424 Par ch=1 c=64 v=127
675694 On ch=1 n=b4 v=0
675712 On ch=1 n=f4 v=0
675794 On ch=1 n=g2 v=0
676420 On ch=1 n=d#4 v=29
676428 On ch=1 n=c5 v=50
676434 On ch=1 n=c3 v=34
676548 Par ch=1 c=64 v=63
676712 Par ch=1 c=64 v=127
677436 Par ch=1 c=64 v=63
677444 On ch=1 n=c5 v=0
677458 On ch=1 n=d#4 v=0
677482 On ch=1 n=c3 v=0
677528 Par ch=1 c=64 v=0
678632 On ch=1 n=d#4 v=47
678646 On ch=1 n=c4 v=25
678648 Par ch=1 c=64 v=63
678662 On ch=1 n=g3 v=24
678674 On ch=1 n=g2 v=23
678692 Par ch=1 c=64 v=127
678842 On ch=1 n=d#4 v=0
678866 On ch=1 n=c4 v=0
679158 On ch=1 n=g3 v=0
679938 On ch=1 n=d4 v=51
679938 On ch=1 n=b3 v=17
679950 On ch=1 n=f3 v=33
680080 Par ch=1 c=64 v=63
680288 Par ch=1 c=64 v=127
680748 On ch=1 n=d4 v=0
680760 On ch=1 n=b3 v=0
680906 On ch=1 n=g2 v=0
681030 On ch=1 n=f3 v=0
681790 On ch=1 n=d#3 v=121
681794 On ch=1 n=c3 v=114
681816 On ch=1 n=c4 v=127
681820 Par ch=1 c=64 v=63
681826 Par ch=1 c=64 v=0
682602 Par ch=1 c=64 v=127
682876 On ch=1 n=c3 v=0
682906 On ch=1 n=d#3 v=0
682932 On ch=1 n=c4 v=0
682942 On ch=1 n=d4 v=94
682978 On ch=1 n=d#4 v=97
683000 On ch=1 n=d4 v=0
683042 On ch=1 n=d#4 v=0
683070 On ch=1 n=f4 v=94
683140 On ch=1 n=g4 v=94
683174 On ch=1 n=f4 v=0
683188 On ch=1 n=a4 v=92
683260 On ch=1 n=b4 v=106
683266 On ch=1 n=g4 v=0
683308 On ch=1 n=a4 v=0
683336 On ch=1 n=b4 v=0
683370 On ch=1 n=c5 v=127
683606 Par ch=1 c=64 v=63
683616 Par ch=1 c=64 v=0
683696 On ch=1 n=d5 v=94
683714 Par ch=1 c=64 v=63
683724 Par ch=1 c=64 v=127
683750 On ch=1 n=d#5 v=103
683764 On ch=1 n=d5 v=0
683794 On ch=1 n=d#5 v=0
683832 On ch=1 n=f5 v=93
683838 On ch=1 n=c5 v=0
683898 On ch=1 n=g5 v=98
683918 On ch=1 n=f5 v=0
683946 On ch=1 n=a5 v=98
684010 On ch=1 n=b5 v=103
684014 On ch=1 n=g5 v=0
684068 On ch=1 n=b5 v=0
684074 On ch=1 n=a5 v=0
684082 On ch=1 n=c6 v=127
684146 On ch=1 n=c6 v=0
684388 On ch=1 n=d6 v=108
684450 On ch=1 n=d#6 v=105
684464 Par ch=1 c=64 v=63
684468 On ch=1 n=d6 v=0
684472 Par ch=1 c=64 v=0
684506 On ch=1 n=d#6 v=0
684530 On ch=1 n=f6 v=93
684532 On ch=1 n=e6 v=85
684568 On ch=1 n=e6 v=0
684612 On ch=1 n=g6 v=103
684632 On ch=1 n=f6 v=0
684674 On ch=1 n=a6 v=103
684734 On ch=1 n=g6 v=0
684760 On ch=1 n=b6 v=100
684810 On ch=1 n=a6 v=0
684834 On ch=1 n=c4 v=94
684844 On ch=1 n=g4 v=117
684846 On ch=1 n=d#4 v=110
684848 On ch=1 n=c5 v=127
684856 On ch=1 n=c7 v=124
684884 Par ch=1 c=64 v=127
684952 On ch=1 n=b6 v=0
685394 On ch=1 n=d#4 v=0
685398 On ch=1 n=c5 v=0
685416 On ch=1 n=c4 v=0
685470 On ch=1 n=g4 v=0
685480 On ch=1 n=c7 v=0
686640 Par ch=1 c=64 v=63
686658 Par ch=1 c=64 v=0
688162 Par ch=1 c=64 v=63
688186 Par ch=1 c=64 v=127
688562 Par ch=1 c=64 v=63
688598 Par ch=1 c=64 v=0
688598 Meta TrkEnd
TrkEnd
MTrk
0 SeqSpec 43 00 01 00
0 Meta TrkName "                                    "
0 TimeSig 4/4 24 8
0 Meta TrkEnd
TrkEnd
MTrk
0 SeqSpec 43 00 01 00
0 Meta TrkName "                                    "
0 TimeSig 4/4 24 8
0 Meta TrkEnd
TrkEnd
MTrk
0 SeqSpec 43 00 01 00
0 Meta TrkName "                                    "
0 TimeSig 4/4 24 8
0 Meta TrkEnd
TrkEnd
MTrk
0 SeqSpec 43 00 01 00
0 Meta TrkName "                                    "
0 TimeSig 4/4 24 8
0 Meta TrkEnd
TrkEnd
MTrk
0 SeqSpec 43 00 01 00
0 Meta TrkName "                                    "
0 TimeSig 4/4 24 8
0 Meta TrkEnd
TrkEnd
MTrk
0 SeqSpec 43 00 01 00
0 Meta TrkName "                                    "
0 TimeSig 4/4 24 8
0 Meta TrkEnd
TrkEnd
MTrk
0 SeqSpec 43 00 01 00
0 Meta TrkName "                                    "
0 TimeSig 4/4 24 8
0 Meta TrkEnd
TrkEnd
MTrk
0 SeqSpec 43 00 01 00
0 Meta TrkName "                                    "
0 TimeSig 4/4 24 8
0 Meta TrkEnd
TrkEnd
MTrk
0 SeqSpec 43 00 01 00
0 Meta TrkName "                                    "
0 TimeSig 4/4 24 8
0 Meta TrkEnd
TrkEnd
MTrk
0 SeqSpec 43 00 01 00
0 Meta TrkName "                                    "
0 TimeSig 4/4 24 8
0 Meta TrkEnd
TrkEnd
MTrk
0 SeqSpec 43 00 01 00
0 Meta TrkName "                                    "
0 TimeSig 4/4 24 8
0 Meta TrkEnd
TrkEnd
MTrk
0 SeqSpec 43 00 01 00
0 Meta TrkName "                                    "
0 TimeSig 4/4 24 8
0 Meta TrkEnd
TrkEnd
MTrk
0 SeqSpec 43 00 01 00
0 Meta TrkName "                                    "
0 TimeSig 4/4 24 8
0 Meta TrkEnd
TrkEnd
MTrk
0 SeqSpec 43 00 01 00
0 Meta TrkName "                                    "
0 TimeSig 4/4 24 8
0 Meta TrkEnd
TrkEnd
MTrk
0 SeqSpec 43 00 01 00
0 Meta TrkName "                                    "
0 TimeSig 4/4 24 8
0 Meta TrkEnd
TrkEnd
MTrk
0 SeqSpec 43 00 01 00
0 Meta TrkName "                                    "
0 TimeSig 4/4 24 8
0 Meta TrkEnd
TrkEnd
