MFile 1 18 480
MTrk
0 Tempo 500000
0 TimeSig 4/4 24 8
0 Meta TrkEnd
TrkEnd
MTrk
0 SeqSpec 43 00 01 00
0 Meta TrkName "PIANO                               "
0 TimeSig 4/4 24 8
0 SysEx f0 41 10 42 12 40 00 7f 00 41 f7
0 SysEx f0 41 10 42 12 40 00 04 64 58 f7
340 SysEx f0 41 10 42 12 40 01 30 03 0c f7
340 SysEx f0 41 10 42 12 40 01 33 50 3c f7
340 SysEx f0 41 10 42 12 40 01 34 3c 4f f7
744 Par ch=1 c=0 v=0
748 Par ch=1 c=32 v=1
752 PrCh ch=1 p=0
756 Par ch=1 c=7 v=100
948 Par ch=1 c=11 v=100
1140 Par ch=1 c=10 v=64
1332 Par ch=1 c=1 v=0
1332 Par ch=1 c=91 v=80
1350 Par ch=1 c=99 v=1
1354 Par ch=1 c=98 v=32
1358 Par ch=1 c=6 v=62
1362 Par ch=1 c=99 v=1
1366 Par ch=1 c=98 v=33
1370 Par ch=1 c=6 v=54
1374 Par ch=1 c=99 v=1
1378 Par ch=1 c=98 v=99
1382 Par ch=1 c=6 v=62
1386 Par ch=1 c=99 v=1
1390 Par ch=1 c=98 v=100
1394 Par ch=1 c=6 v=60
1398 Par ch=1 c=99 v=1
1402 Par ch=1 c=98 v=102
1406 Par ch=1 c=6 v=70
2244 Par ch=1 c=64 v=63
2248 On ch=1 n=c6 v=63
2270 On ch=1 n=c5 v=46
2356 Par ch=1 c=64 v=127
2474 On ch=1 n=g5 v=37
2732 On ch=1 n=e5 v=48
2758 On ch=1 n=g5 v=0
2906 On ch=1 n=c5 v=0
2922 On ch=1 n=g5 v=48
3144 On ch=1 n=e6 v=77
3166 On ch=1 n=c5 v=35
3176 On ch=1 n=g5 v=0
3284 On ch=1 n=c6 v=0
3326 On ch=1 n=e5 v=0
3358 On ch=1 n=g5 v=41
3560 On ch=1 n=g6 v=83
3584 On ch=1 n=g5 v=0
3586 On ch=1 n=e5 v=42
3662 On ch=1 n=c5 v=0
3682 On ch=1 n=e6 v=0
3778 On ch=1 n=g5 v=46
4004 On ch=1 n=g5 v=0
4012 On ch=1 n=d5 v=48
4020 On ch=1 n=b5 v=76
4026 On ch=1 n=e5 v=0
4054 On ch=1 n=g6 v=0
4240 On ch=1 n=g5 v=42
4450 On ch=1 n=g5 v=0
4470 On ch=1 n=f5 v=37
4514 On ch=1 n=b5 v=0
4664 On ch=1 n=g5 v=38
4716 On ch=1 n=c6 v=71
4810 On ch=1 n=d6 v=69
4818 On ch=1 n=c6 v=0
4860 On ch=1 n=f5 v=0
4900 On ch=1 n=d6 v=0
4912 On ch=1 n=c6 v=58
4934 On ch=1 n=g5 v=0
4938 On ch=1 n=c5 v=43
4966 On ch=1 n=d5 v=0
5058 Par ch=1 c=64 v=63
5130 Par ch=1 c=64 v=127
5142 On ch=1 n=g5 v=44
5318 On ch=1 n=c6 v=0
5396 On ch=1 n=e5 v=35
5406 On ch=1 n=g5 v=0
5574 On ch=1 n=g5 v=55
5606 On ch=1 n=c5 v=0
5786 On ch=1 n=a6 v=96
5798 On ch=1 n=g5 v=0
5802 On ch=1 n=c5 v=54
5908 Par ch=1 c=64 v=63
5988 On ch=1 n=a5 v=52
6078 Par ch=1 c=64 v=127
6108 On ch=1 n=e5 v=0
6234 On ch=1 n=f5 v=60
6250 On ch=1 n=a5 v=0
6410 On ch=1 n=a5 v=62
6456 On ch=1 n=c5 v=0
6628 On ch=1 n=g6 v=91
6646 On ch=1 n=c5 v=63
6654 On ch=1 n=a5 v=0
6712 On ch=1 n=a6 v=0
6738 Par ch=1 c=64 v=63
6748 Par ch=1 c=64 v=127
6814 On ch=1 n=g5 v=70
6832 On ch=1 n=f5 v=0
7038 On ch=1 n=c7 v=92
7066 On ch=1 n=g6 v=0
7072 On ch=1 n=e5 v=43
7080 On ch=1 n=g5 v=0
7244 On ch=1 n=c5 v=0
7248 On ch=1 n=g5 v=59
7286 On ch=1 n=e5 v=0
7308 On ch=1 n=c7 v=0
7470 On ch=1 n=b4 v=59
7472 On ch=1 n=g6 v=85
7486 On ch=1 n=g5 v=0
7546 Par ch=1 c=64 v=63
7596 Par ch=1 c=64 v=127
7652 On ch=1 n=g5 v=50
7722 On ch=1 n=g6 v=0
7842 On ch=1 n=g5 v=0
7866 On ch=1 n=d5 v=46
7870 On ch=1 n=b4 v=0
7902 On ch=1 n=f6 v=74
7956 On ch=1 n=g6 v=67
7968 On ch=1 n=f6 v=0
8006 On ch=1 n=g6 v=0
8014 On ch=1 n=d5 v=0
8014 On ch=1 n=g5 v=43
8044 On ch=1 n=f6 v=65
8074 On ch=1 n=g6 v=68
8096 On ch=1 n=f6 v=0
8126 On ch=1 n=g6 v=0
8138 On ch=1 n=f6 v=57
8210 On ch=1 n=f6 v=0
8212 On ch=1 n=e6 v=60
8268 On ch=1 n=f6 v=63
8272 On ch=1 n=e6 v=0
8308 On ch=1 n=g5 v=0
8316 Par ch=1 c=64 v=63
8334 On ch=1 n=c5 v=62
8352 On ch=1 n=e6 v=75
8372 On ch=1 n=f6 v=0
8482 Par ch=1 c=64 v=127
8526 On ch=1 n=g5 v=51
8724 On ch=1 n=e6 v=0
8768 On ch=1 n=g5 v=0
8784 On ch=1 n=e5 v=51
8788 On ch=1 n=c5 v=0
8936 On ch=1 n=g5 v=42
8970 On ch=1 n=e5 v=0
9014 Par ch=1 c=64 v=63
9074 Par ch=1 c=64 v=0
9184 On ch=1 n=a5 v=79
9186 On ch=1 n=f5 v=50
9196 On ch=1 n=g5 v=0
9256 Par ch=1 c=64 v=63
9286 Par ch=1 c=64 v=127
9400 On ch=1 n=a5 v=0
9416 On ch=1 n=b5 v=71
9472 Par ch=1 c=64 v=63
9506 Par ch=1 c=64 v=0
9508 On ch=1 n=c6 v=84
9516 On ch=1 n=b5 v=0
9558 On ch=1 n=c6 v=0
9614 On ch=1 n=d6 v=74
9702 On ch=1 n=e6 v=86
9712 On ch=1 n=d6 v=0
9790 On ch=1 n=f6 v=82
9818 On ch=1 n=e6 v=0
9890 On ch=1 n=g6 v=78
9918 On ch=1 n=f6 v=0
9920 On ch=1 n=f5 v=0
9984 On ch=1 n=a6 v=90
9994 On ch=1 n=g6 v=0
10090 On ch=1 n=g6 v=78
10124 On ch=1 n=a6 v=0
10174 On ch=1 n=f6 v=92
10206 On ch=1 n=g6 v=0
10270 On ch=1 n=e6 v=85
10284 On ch=1 n=f6 v=0
10360 On ch=1 n=e6 v=0
10360 On ch=1 n=d6 v=86
10392 On ch=1 n=f4 v=84
10408 On ch=1 n=c5 v=77
10450 On ch=1 n=d6 v=0
10468 On ch=1 n=c5 v=0
10470 On ch=1 n=f4 v=0
10484 On ch=1 n=c6 v=79
10572 On ch=1 n=b5 v=73
10590 On ch=1 n=c6 v=0
10660 On ch=1 n=a5 v=71
10662 On ch=1 n=b5 v=0
10764 On ch=1 n=a5 v=0
10794 On ch=1 n=g5 v=74
10796 On ch=1 n=c5 v=76
10806 On ch=1 n=e4 v=63
11026 On ch=1 n=g5 v=0
11038 On ch=1 n=a5 v=72
11112 On ch=1 n=b5 v=87
11130 On ch=1 n=a5 v=0
11178 On ch=1 n=b5 v=0
11220 On ch=1 n=c6 v=84
11310 On ch=1 n=d6 v=92
11330 On ch=1 n=c6 v=0
11400 On ch=1 n=e6 v=90
11426 On ch=1 n=c5 v=0
11432 On ch=1 n=e4 v=0
11450 On ch=1 n=d6 v=0
11494 On ch=1 n=f6 v=89
11538 On ch=1 n=e6 v=0
11586 On ch=1 n=g6 v=91
11608 On ch=1 n=f6 v=0
11702 On ch=1 n=f6 v=93
11754 On ch=1 n=g6 v=0
11786 On ch=1 n=e6 v=92
11838 On ch=1 n=f6 v=0
11898 On ch=1 n=d6 v=83
11924 On ch=1 n=e6 v=0
11994 On ch=1 n=c6 v=84
11998 On ch=1 n=d6 v=0
12010 On ch=1 n=c5 v=85
12010 On ch=1 n=e4 v=79
12090 On ch=1 n=e4 v=0
12090 On ch=1 n=c5 v=0
12092 On ch=1 n=c6 v=0
12102 On ch=1 n=b5 v=84
12206 On ch=1 n=a5 v=77
12212 On ch=1 n=b5 v=0
12290 On ch=1 n=a5 v=0
12296 On ch=1 n=g5 v=73
12390 On ch=1 n=g5 v=0
12418 On ch=1 n=c5 v=73
12420 On ch=1 n=d4 v=80
12424 On ch=1 n=f5 v=77
12652 On ch=1 n=g5 v=74
12658 On ch=1 n=f5 v=0
12732 On ch=1 n=a5 v=85
12754 On ch=1 n=g5 v=0
12816 On ch=1 n=a5 v=0
12840 On ch=1 n=b5 v=84
12940 On ch=1 n=c6 v=91
12950 On ch=1 n=b5 v=0
13020 On ch=1 n=d6 v=92
13026 On ch=1 n=c5 v=0
13028 On ch=1 n=d4 v=0
13068 On ch=1 n=c6 v=0
13118 On ch=1 n=e6 v=88
13160 On ch=1 n=d6 v=0
13214 On ch=1 n=f6 v=90
13234 On ch=1 n=e6 v=0
13328 On ch=1 n=e6 v=84
13380 On ch=1 n=f6 v=0
13406 On ch=1 n=d6 v=85
13458 On ch=1 n=e6 v=0
13502 On ch=1 n=c6 v=84
13524 On ch=1 n=d6 v=0
13590 On ch=1 n=b5 v=85
13598 On ch=1 n=c6 v=0
13608 On ch=1 n=b4 v=88
13614 On ch=1 n=d4 v=89
13672 On ch=1 n=b4 v=0
13674 On ch=1 n=d4 v=0
13678 On ch=1 n=b5 v=0
13696 On ch=1 n=a5 v=82
13802 On ch=1 n=g5 v=68
13816 On ch=1 n=a5 v=0
13884 On ch=1 n=f5 v=77
13890 On ch=1 n=g5 v=0
13984 On ch=1 n=f5 v=0
14006 On ch=1 n=c5 v=92
14012 On ch=1 n=c4 v=84
14016 On ch=1 n=e5 v=84
14236 On ch=1 n=e5 v=0
14248 On ch=1 n=f5 v=73
14324 On ch=1 n=g5 v=92
14348 On ch=1 n=f5 v=0
14398 On ch=1 n=g5 v=0
14440 On ch=1 n=a5 v=79
14538 On ch=1 n=b5 v=90
14546 On ch=1 n=a5 v=0
14620 On ch=1 n=c6 v=87
14648 On ch=1 n=c5 v=0
14654 On ch=1 n=b5 v=0
14714 On ch=1 n=d6 v=87
14718 On ch=1 n=c4 v=0
14762 On ch=1 n=c6 v=0
14818 On ch=1 n=e6 v=97
14836 On ch=1 n=d6 v=0
14930 On ch=1 n=d6 v=76
14980 On ch=1 n=e6 v=0
15012 On ch=1 n=c6 v=84
15064 On ch=1 n=d6 v=0
15110 On ch=1 n=b5 v=81
15142 On ch=1 n=c6 v=0
15196 On ch=1 n=a5 v=82
15206 On ch=1 n=e4 v=98
15208 On ch=1 n=b5 v=0
15220 On ch=1 n=c4 v=72
15248 On ch=1 n=e4 v=0
15274 On ch=1 n=c4 v=0
15292 On ch=1 n=a5 v=0
15304 On ch=1 n=g5 v=87
15414 On ch=1 n=f5 v=60
15426 On ch=1 n=g5 v=0
15488 On ch=1 n=e5 v=65
15492 On ch=1 n=f5 v=0
15590 On ch=1 n=e5 v=0
15606 On ch=1 n=d5 v=90
15624 On ch=1 n=a4 v=81
15640 On ch=1 n=f4 v=79
15842 On ch=1 n=d5 v=0
15848 On ch=1 n=e5 v=71
15920 On ch=1 n=f5 v=82
15936 On ch=1 n=e5 v=0
15992 On ch=1 n=f5 v=0
16014 On ch=1 n=g5 v=79
16114 On ch=1 n=a5 v=91
16140 On ch=1 n=g5 v=0
16196 On ch=1 n=b5 v=70
16226 On ch=1 n=a5 v=0
16290 On ch=1 n=c#6 v=92
16330 On ch=1 n=b5 v=0
16386 On ch=1 n=d6 v=92
16426 On ch=1 n=c#6 v=0
16492 On ch=1 n=d6 v=0
16496 On ch=1 n=a5 v=83
16576 On ch=1 n=b5 v=87
16604 On ch=1 n=a5 v=0
16658 On ch=1 n=c#6 v=89
16686 On ch=1 n=b5 v=0
16740 On ch=1 n=c#6 v=0
16760 On ch=1 n=d6 v=102
16862 On ch=1 n=e6 v=98
16880 On ch=1 n=d6 v=0
16946 On ch=1 n=f6 v=108
16982 On ch=1 n=e6 v=0
16986 On ch=1 n=f4 v=0
16998 On ch=1 n=a4 v=0
17038 On ch=1 n=f6 v=0
17040 On ch=1 n=g6 v=100
17136 On ch=1 n=f4 v=120
17160 On ch=1 n=a6 v=111
17194 On ch=1 n=g6 v=0
17236 On ch=1 n=b6 v=101
17292 On ch=1 n=a6 v=0
17302 Par ch=1 c=64 v=63
17318 Par ch=1 c=64 v=127
17350 On ch=1 n=c7 v=103
17374 On ch=1 n=b6 v=0
17422 Par ch=1 c=64 v=63
17446 On ch=1 n=b6 v=97
17480 Par ch=1 c=64 v=0
17502 On ch=1 n=c7 v=0
17538 On ch=1 n=a6 v=102
17598 On ch=1 n=b6 v=0
17646 On ch=1 n=f4 v=0
17650 On ch=1 n=g6 v=94
17658 On ch=1 n=a6 v=0
17744 On ch=1 n=g6 v=0
17756 On ch=1 n=f6 v=100
17756 On ch=1 n=g4 v=108
17830 On ch=1 n=g4 v=0
17850 On ch=1 n=e6 v=100
17872 On ch=1 n=f6 v=0
17968 On ch=1 n=f6 v=106
17994 On ch=1 n=a4 v=120
18012 On ch=1 n=e6 v=0
18080 On ch=1 n=g6 v=97
18084 Par ch=1 c=64 v=63
18092 Par ch=1 c=64 v=127
18136 On ch=1 n=f6 v=0
18172 On ch=1 n=a6 v=89
18212 On ch=1 n=g6 v=0
18290 On ch=1 n=g6 v=87
18322 Par ch=1 c=64 v=63
18330 On ch=1 n=a4 v=0
18342 Par ch=1 c=64 v=0
18348 On ch=1 n=a6 v=0
18372 On ch=1 n=f6 v=100
18436 On ch=1 n=g6 v=0
18464 On ch=1 n=e6 v=99
18514 On ch=1 n=f6 v=0
18568 On ch=1 n=d6 v=90
18570 On ch=1 n=f#4 v=114
18582 On ch=1 n=e6 v=0
18636 On ch=1 n=f#4 v=0
18668 On ch=1 n=d6 v=0
18680 On ch=1 n=c6 v=93
18772 On ch=1 n=c6 v=0
18794 On ch=1 n=g3 v=124
18796 On ch=1 n=b5 v=108
18840 Par ch=1 c=64 v=63
18844 Par ch=1 c=64 v=127
18896 Par ch=1 c=64 v=63
18912 Par ch=1 c=64 v=0
18912 On ch=1 n=b3 v=103
18970 On ch=1 n=g3 v=0
19024 On ch=1 n=g6 v=101
19028 On ch=1 n=b5 v=0
19028 On ch=1 n=d4 v=94
19088 On ch=1 n=b3 v=0
19114 On ch=1 n=g4 v=90
19164 On ch=1 n=d4 v=0
19220 On ch=1 n=g3 v=108
19224 On ch=1 n=g4 v=0
19226 On ch=1 n=e6 v=109
19268 On ch=1 n=g6 v=0
19326 On ch=1 n=c4 v=99
19418 On ch=1 n=g3 v=0
19426 On ch=1 n=e4 v=102
19428 On ch=1 n=c6 v=101
19454 On ch=1 n=e6 v=0
19482 On ch=1 n=c4 v=0
19490 On ch=1 n=g4 v=93
19544 On ch=1 n=e4 v=0
19584 On ch=1 n=c6 v=0
19616 On ch=1 n=g4 v=0
19620 On ch=1 n=g3 v=109
19620 On ch=1 n=d6 v=117
19724 On ch=1 n=b3 v=101
19776 On ch=1 n=g3 v=0
19828 On ch=1 n=d4 v=98
19830 On ch=1 n=g6 v=106
19862 On ch=1 n=d6 v=0
19866 On ch=1 n=b3 v=0
19914 On ch=1 n=g4 v=85
19958 On ch=1 n=d4 v=0
20012 On ch=1 n=g6 v=0
20028 On ch=1 n=g4 v=0
20036 On ch=1 n=g3 v=104
20038 On ch=1 n=e6 v=112
20140 On ch=1 n=c4 v=96
20184 On ch=1 n=g3 v=0
20204 On ch=1 n=e6 v=0
20240 On ch=1 n=e4 v=106
20246 On ch=1 n=c6 v=100
20282 On ch=1 n=c4 v=0
20318 On ch=1 n=g4 v=96
20352 On ch=1 n=e4 v=0
20376 On ch=1 n=c6 v=0
20440 On ch=1 n=d6 v=120
20442 On ch=1 n=g4 v=0
20444 On ch=1 n=g3 v=121
20518 On ch=1 n=d6 v=0
20532 On ch=1 n=g3 v=0
20894 On ch=1 n=g4 v=113
20896 On ch=1 n=g6 v=114
20900 On ch=1 n=b5 v=120
20902 On ch=1 n=d6 v=118
20970 On ch=1 n=d6 v=0
20972 On ch=1 n=b5 v=0
20976 On ch=1 n=g6 v=0
21010 On ch=1 n=g4 v=0
21372 On ch=1 n=g3 v=124
21376 On ch=1 n=g5 v=121
21428 Par ch=1 c=64 v=63
21434 Par ch=1 c=64 v=127
21454 On ch=1 n=g5 v=0
21458 On ch=1 n=g3 v=0
21720 Par ch=1 c=64 v=63
21738 Par ch=1 c=64 v=0
22312 On ch=1 n=c#5 v=115
22388 Par ch=1 c=64 v=63
22396 Par ch=1 c=64 v=127
22446 On ch=1 n=c#5 v=0
22456 On ch=1 n=d5 v=77
22574 On ch=1 n=c#5 v=97
22582 On ch=1 n=d5 v=0
22658 On ch=1 n=c#5 v=0
22668 On ch=1 n=d5 v=76
22776 On ch=1 n=c#5 v=84
22780 On ch=1 n=d5 v=0
22848 On ch=1 n=c#5 v=0
22854 On ch=1 n=d5 v=70
22962 On ch=1 n=c#5 v=91
22976 On ch=1 n=d5 v=0
23050 On ch=1 n=c#5 v=0
23068 On ch=1 n=d5 v=80
23184 On ch=1 n=c5 v=81
23190 On ch=1 n=d5 v=0
23234 Par ch=1 c=64 v=63
23268 On ch=1 n=d5 v=68
23274 On ch=1 n=c5 v=0
23280 Par ch=1 c=64 v=127
23388 On ch=1 n=c5 v=72
23394 On ch=1 n=d5 v=0
23476 On ch=1 n=d5 v=60
23486 On ch=1 n=c5 v=0
23606 On ch=1 n=c5 v=61
23608 On ch=1 n=d5 v=0
23686 On ch=1 n=c5 v=0
23688 On ch=1 n=d5 v=68
23810 On ch=1 n=c5 v=57
23812 On ch=1 n=d5 v=0
23900 On ch=1 n=d5 v=60
23924 On ch=1 n=c5 v=0
24080 On ch=1 n=d7 v=76
24088 On ch=1 n=d5 v=0
24090 On ch=1 n=b4 v=52
24090 Par ch=1 c=64 v=63
24114 Par ch=1 c=64 v=127
24228 On ch=1 n=d5 v=40
24260 On ch=1 n=b4 v=0
24334 On ch=1 n=b6 v=84
24360 On ch=1 n=b4 v=56
24384 On ch=1 n=d5 v=0
24386 On ch=1 n=d7 v=0
24472 On ch=1 n=d5 v=45
24490 On ch=1 n=b4 v=0
24564 On ch=1 n=g6 v=86
24580 On ch=1 n=b4 v=55
24590 On ch=1 n=d5 v=0
24590 On ch=1 n=b6 v=0
24680 On ch=1 n=d5 v=55
24694 On ch=1 n=b4 v=0
24806 On ch=1 n=b4 v=57
24810 On ch=1 n=d5 v=0
24916 On ch=1 n=b4 v=0
24918 On ch=1 n=d5 v=64
25014 On ch=1 n=b4 v=71
25030 On ch=1 n=d5 v=0
25122 On ch=1 n=d5 v=52
25128 On ch=1 n=b4 v=0
25154 On ch=1 n=g6 v=0
25216 On ch=1 n=b4 v=61
25228 On ch=1 n=d5 v=0
25242 On ch=1 n=a6 v=97
25312 On ch=1 n=d5 v=60
25314 On ch=1 n=b4 v=0
25326 On ch=1 n=b6 v=100
25344 On ch=1 n=a6 v=0
25404 On ch=1 n=b4 v=64
25420 On ch=1 n=d5 v=0
25434 On ch=1 n=a6 v=84
25474 On ch=1 n=b6 v=0
25498 On ch=1 n=b4 v=0
25502 On ch=1 n=d5 v=57
25616 On ch=1 n=b4 v=62
25620 On ch=1 n=d5 v=0
25630 On ch=1 n=a6 v=0
25648 On ch=1 n=g6 v=91
25712 On ch=1 n=d5 v=59
25726 On ch=1 n=b4 v=0
25736 On ch=1 n=g6 v=0
25838 On ch=1 n=d5 v=0
25862 On ch=1 n=c5 v=62
25864 On ch=1 n=g6 v=84
25872 Par ch=1 c=64 v=63
25900 Par ch=1 c=64 v=127
25902 On ch=1 n=a6 v=74
25922 On ch=1 n=a6 v=0
25936 On ch=1 n=g6 v=0
25944 On ch=1 n=c5 v=0
25944 On ch=1 n=a6 v=74
25944 On ch=1 n=d5 v=66
25990 On ch=1 n=g6 v=65
26000 On ch=1 n=a6 v=0
26032 On ch=1 n=a6 v=63
26042 On ch=1 n=g6 v=0
26058 On ch=1 n=d5 v=0
26060 On ch=1 n=b4 v=59
26076 On ch=1 n=g6 v=64
26084 On ch=1 n=a6 v=0
26148 On ch=1 n=d5 v=65
26156 On ch=1 n=b4 v=0
26168 On ch=1 n=g6 v=0
26180 On ch=1 n=f#6 v=87
26242 On ch=1 n=f#6 v=0
26282 On ch=1 n=d5 v=0
26286 Par ch=1 c=64 v=63
26288 On ch=1 n=f#6 v=97
26306 On ch=1 n=a4 v=60
26310 Par ch=1 c=64 v=0
26402 On ch=1 n=d5 v=63
26422 On ch=1 n=a4 v=0
26528 On ch=1 n=b4 v=62
26534 On ch=1 n=d5 v=0
26614 On ch=1 n=d5 v=65
26618 On ch=1 n=b4 v=0
26744 On ch=1 n=d5 v=0
26744 On ch=1 n=c5 v=57
26830 On ch=1 n=c5 v=0
26832 On ch=1 n=d5 v=54
26942 On ch=1 n=b4 v=54
26946 On ch=1 n=d5 v=0
26978 On ch=1 n=f#6 v=0
27028 On ch=1 n=d5 v=63
27036 On ch=1 n=b4 v=0
27152 On ch=1 n=d5 v=0
27152 On ch=1 n=c5 v=58
27232 On ch=1 n=c5 v=0
27240 On ch=1 n=d5 v=54
27348 On ch=1 n=a4 v=50
27356 On ch=1 n=d5 v=0
27446 On ch=1 n=d5 v=51
27464 On ch=1 n=a4 v=0
27592 On ch=1 n=d7 v=93
27602 On ch=1 n=b4 v=52
27616 On ch=1 n=d5 v=0
27644 Par ch=1 c=64 v=63
27680 Par ch=1 c=64 v=127
27728 On ch=1 n=d5 v=45
27772 On ch=1 n=b4 v=0
27828 On ch=1 n=b6 v=94
27860 On ch=1 n=b4 v=51
27878 On ch=1 n=d5 v=0
27898 On ch=1 n=d7 v=0
27976 On ch=1 n=d5 v=45
27992 On ch=1 n=b4 v=0
28064 On ch=1 n=g6 v=88
28072 On ch=1 n=b4 v=59
28086 On ch=1 n=d5 v=0
28122 On ch=1 n=b6 v=0
28146 Par ch=1 c=64 v=63
28172 On ch=1 n=d5 v=59
28192 On ch=1 n=b4 v=0
28216 Par ch=1 c=64 v=127
28278 On ch=1 n=b4 v=58
28294 On ch=1 n=d5 v=0
28392 On ch=1 n=d5 v=66
28396 On ch=1 n=b4 v=0
28488 On ch=1 n=b4 v=74
28506 On ch=1 n=d5 v=0
28592 On ch=1 n=d5 v=64
28600 On ch=1 n=b4 v=0
28658 On ch=1 n=g6 v=0
28700 On ch=1 n=b4 v=61
28712 On ch=1 n=d5 v=0
28736 On ch=1 n=a6 v=96
28806 On ch=1 n=d5 v=59
28808 On ch=1 n=b4 v=0
28812 On ch=1 n=b6 v=92
28830 On ch=1 n=a6 v=0
28908 On ch=1 n=b4 v=68
28916 On ch=1 n=a6 v=91
28922 On ch=1 n=d5 v=0
28952 On ch=1 n=b6 v=0
29008 On ch=1 n=d5 v=55
29012 On ch=1 n=b4 v=0
29126 On ch=1 n=b4 v=65
29130 On ch=1 n=d5 v=0
29134 On ch=1 n=a6 v=0
29138 On ch=1 n=g6 v=97
29216 On ch=1 n=d5 v=65
29226 On ch=1 n=g6 v=0
29234 On ch=1 n=b4 v=0
29342 On ch=1 n=d5 v=0
29346 Par ch=1 c=64 v=63
29358 On ch=1 n=g6 v=98
29368 On ch=1 n=c5 v=57
29404 On ch=1 n=a6 v=92
29422 Par ch=1 c=64 v=127
29430 On ch=1 n=g6 v=0
29434 On ch=1 n=d5 v=58
29438 On ch=1 n=c5 v=0
29452 On ch=1 n=a6 v=0
29490 On ch=1 n=g6 v=64
29518 On ch=1 n=a6 v=77
29546 On ch=1 n=g6 v=0
29550 On ch=1 n=d5 v=0
29552 On ch=1 n=b4 v=63
29572 On ch=1 n=g6 v=66
29588 On ch=1 n=a6 v=0
29640 On ch=1 n=b4 v=0
29640 On ch=1 n=d5 v=68
29656 On ch=1 n=g6 v=0
29678 On ch=1 n=f#6 v=80
29736 On ch=1 n=f#6 v=0
29772 On ch=1 n=d5 v=0
29774 Par ch=1 c=64 v=63
29788 On ch=1 n=f#6 v=101
29810 On ch=1 n=a4 v=61
29812 Par ch=1 c=64 v=0
29908 On ch=1 n=d5 v=66
29926 On ch=1 n=a4 v=0
30038 On ch=1 n=b4 v=57
30046 On ch=1 n=d5 v=0
30120 On ch=1 n=b4 v=0
30120 On ch=1 n=d5 v=73
30214 Par ch=1 c=64 v=63
30236 Par ch=1 c=64 v=127
30248 On ch=1 n=c5 v=76
30252 On ch=1 n=d5 v=0
30336 On ch=1 n=d5 v=60
30344 On ch=1 n=c5 v=0
30446 On ch=1 n=b4 v=66
30456 On ch=1 n=d5 v=0
30504 On ch=1 n=f#6 v=0
30538 On ch=1 n=d5 v=64
30542 On ch=1 n=b4 v=0
30662 On ch=1 n=d5 v=0
30666 On ch=1 n=c5 v=71
30680 Par ch=1 c=64 v=63
30744 Par ch=1 c=64 v=0
30756 On ch=1 n=c5 v=0
30760 On ch=1 n=d5 v=74
30870 On ch=1 n=a4 v=68
30876 On ch=1 n=d5 v=0
30962 On ch=1 n=a4 v=0
30974 On ch=1 n=d5 v=78
31058 On ch=1 n=d5 v=0
31098 On ch=1 n=d7 v=102
31102 Par ch=1 c=64 v=63
31116 Par ch=1 c=64 v=127
31224 On ch=1 n=b4 v=79
31346 On ch=1 n=d5 v=81
31456 On ch=1 n=g5 v=89
31528 On ch=1 n=d7 v=0
31546 On ch=1 n=b5 v=88
31598 On ch=1 n=d5 v=0
31616 On ch=1 n=g5 v=0
31622 On ch=1 n=b4 v=0
31654 On ch=1 n=d7 v=101
31730 On ch=1 n=b5 v=0
31756 On ch=1 n=b6 v=100
31798 On ch=1 n=d7 v=0
31862 On ch=1 n=g6 v=101
31906 On ch=1 n=b6 v=0
31978 On ch=1 n=e6 v=103
32054 On ch=1 n=g6 v=0
32128 On ch=1 n=c5 v=65
32172 Par ch=1 c=64 v=63
32240 On ch=1 n=e5 v=71
32310 Par ch=1 c=64 v=127
32332 On ch=1 n=g5 v=84
32386 On ch=1 n=e6 v=0
32432 On ch=1 n=c6 v=88
32440 On ch=1 n=e5 v=0
32534 On ch=1 n=g5 v=0
32542 On ch=1 n=e6 v=97
32606 On ch=1 n=c5 v=0
32614 On ch=1 n=c6 v=0
32642 On ch=1 n=g6 v=102
32662 On ch=1 n=e6 v=0
32722 On ch=1 n=e6 v=100
32770 On ch=1 n=g6 v=0
32850 On ch=1 n=c7 v=112
32876 On ch=1 n=e6 v=0
32978 On ch=1 n=a4 v=69
33004 Par ch=1 c=64 v=63
33090 On ch=1 n=c5 v=85
33102 Par ch=1 c=64 v=127
33178 On ch=1 n=a4 v=0
33204 On ch=1 n=f#5 v=92
33292 On ch=1 n=c5 v=0
33292 On ch=1 n=c7 v=0
33296 On ch=1 n=a5 v=80
33362 On ch=1 n=f#5 v=0
33412 On ch=1 n=c7 v=91
33454 On ch=1 n=a5 v=0
33516 On ch=1 n=a6 v=93
33532 On ch=1 n=c7 v=0
33618 On ch=1 n=f#6 v=98
33644 On ch=1 n=a6 v=0
33732 On ch=1 n=d6 v=75
33754 On ch=1 n=f#6 v=0
33826 On ch=1 n=b4 v=71
33854 Par ch=1 c=64 v=63
33890 Par ch=1 c=64 v=0
33964 On ch=1 n=d5 v=67
33976 Par ch=1 c=64 v=63
34030 Par ch=1 c=64 v=127
34054 On ch=1 n=f#5 v=89
34098 On ch=1 n=d6 v=0
34174 On ch=1 n=b5 v=74
34188 On ch=1 n=d5 v=0
34258 On ch=1 n=d6 v=81
34262 On ch=1 n=f#5 v=0
34262 On ch=1 n=b4 v=0
34286 On ch=1 n=b5 v=0
34372 On ch=1 n=f#6 v=106
34374 On ch=1 n=d6 v=0
34476 On ch=1 n=d6 v=94
34494 On ch=1 n=f#6 v=0
34600 On ch=1 n=b6 v=101
34646 On ch=1 n=d6 v=0
34674 Par ch=1 c=64 v=63
34698 On ch=1 n=g4 v=71
34720 Par ch=1 c=64 v=0
34806 On ch=1 n=b4 v=60
34852 Par ch=1 c=64 v=63
34892 Par ch=1 c=64 v=127
34944 On ch=1 n=e5 v=86
35028 On ch=1 n=b6 v=0
35046 On ch=1 n=g5 v=68
35128 On ch=1 n=g4 v=0
35138 On ch=1 n=b4 v=0
35150 On ch=1 n=e5 v=0
35150 On ch=1 n=b6 v=89
35216 On ch=1 n=g5 v=0
35252 On ch=1 n=g6 v=87
35264 On ch=1 n=b6 v=0
35362 On ch=1 n=e6 v=93
35378 On ch=1 n=g6 v=0
35478 On ch=1 n=c6 v=84
35494 On ch=1 n=e6 v=0
35562 Par ch=1 c=64 v=63
35590 Par ch=1 c=64 v=0
35594 On ch=1 n=a4 v=69
35718 On ch=1 n=c5 v=67
35726 Par ch=1 c=64 v=63
35760 Par ch=1 c=64 v=127
35808 On ch=1 n=e5 v=78
35816 On ch=1 n=c6 v=0
35918 On ch=1 n=a5 v=78
35930 On ch=1 n=c5 v=0
35994 On ch=1 n=e5 v=0
35994 On ch=1 n=a4 v=0
35998 On ch=1 n=c6 v=84
36028 On ch=1 n=a5 v=0
36128 On ch=1 n=e6 v=88
36130 On ch=1 n=c6 v=0
36208 On ch=1 n=c6 v=75
36222 On ch=1 n=e6 v=0
36350 Par ch=1 c=64 v=63
36364 On ch=1 n=a6 v=100
36382 Par ch=1 c=64 v=0
36402 On ch=1 n=c6 v=0
36440 On ch=1 n=f#4 v=73
36516 Par ch=1 c=64 v=63
36554 Par ch=1 c=64 v=127
36570 On ch=1 n=a4 v=64
36622 On ch=1 n=f#4 v=0
36676 On ch=1 n=d5 v=78
36732 On ch=1 n=a6 v=0
36770 On ch=1 n=a4 v=0
36796 On ch=1 n=f#5 v=86
36834 On ch=1 n=d5 v=0
36892 On ch=1 n=f#5 v=0
36904 On ch=1 n=a6 v=81
37004 On ch=1 n=f#6 v=93
37022 On ch=1 n=a6 v=0
37038 Par ch=1 c=64 v=63
37082 Par ch=1 c=64 v=0
37102 On ch=1 n=f#6 v=0
37112 On ch=1 n=c6 v=74
37234 On ch=1 n=b5 v=72
37242 On ch=1 n=c6 v=0
37376 On ch=1 n=g4 v=63
37380 Par ch=1 c=64 v=63
37404 Par ch=1 c=64 v=127
37482 On ch=1 n=b4 v=65
37582 On ch=1 n=d5 v=76
37606 On ch=1 n=b5 v=0
37678 On ch=1 n=g5 v=64
37680 On ch=1 n=b4 v=0
37696 On ch=1 n=g4 v=0
37740 Par ch=1 c=64 v=63
37750 On ch=1 n=d5 v=0
37768 Par ch=1 c=64 v=0
37778 On ch=1 n=g6 v=79
37794 On ch=1 n=g5 v=0
37888 On ch=1 n=d6 v=76
37896 On ch=1 n=g6 v=0
37972 On ch=1 n=b5 v=84
37994 On ch=1 n=d6 v=0
38074 On ch=1 n=b5 v=0
38104 On ch=1 n=a5 v=88
38108 On ch=1 n=e5 v=76
38118 On ch=1 n=c5 v=70
38166 On ch=1 n=c5 v=0
38172 On ch=1 n=e5 v=0
38352 On ch=1 n=e5 v=71
38360 On ch=1 n=c5 v=56
38418 On ch=1 n=c5 v=0
38420 On ch=1 n=e5 v=0
38586 On ch=1 n=e5 v=73
38594 On ch=1 n=c5 v=66
38658 On ch=1 n=c5 v=0
38658 On ch=1 n=e5 v=0
38790 On ch=1 n=e5 v=68
38800 On ch=1 n=c5 v=60
38878 On ch=1 n=c5 v=0
38880 On ch=1 n=e5 v=0
38928 On ch=1 n=a5 v=0
38978 On ch=1 n=b5 v=78
39012 On ch=1 n=e5 v=61
39020 On ch=1 n=c5 v=59
39044 On ch=1 n=c6 v=74
39082 On ch=1 n=c5 v=0
39084 On ch=1 n=e5 v=0
39090 On ch=1 n=b5 v=0
39122 On ch=1 n=c6 v=0
39226 On ch=1 n=e5 v=73
39228 On ch=1 n=c5 v=75
39300 On ch=1 n=e5 v=0
39304 On ch=1 n=c5 v=0
39412 On ch=1 n=d#6 v=97
39452 On ch=1 n=c5 v=76
39456 On ch=1 n=e5 v=81
39470 On ch=1 n=e6 v=100
39522 On ch=1 n=d#6 v=0
39524 On ch=1 n=e5 v=0
39532 On ch=1 n=c5 v=0
39566 On ch=1 n=e6 v=0
39656 On ch=1 n=c5 v=89
39660 On ch=1 n=e5 v=91
39734 On ch=1 n=e5 v=0
39750 On ch=1 n=c5 v=0
39842 On ch=1 n=g#6 v=96
39884 On ch=1 n=e5 v=75
39888 On ch=1 n=c5 v=63
39892 On ch=1 n=a6 v=103
39930 Par ch=1 c=64 v=63
39948 Par ch=1 c=64 v=127
39954 On ch=1 n=g#6 v=0
39956 On ch=1 n=e5 v=0
39962 On ch=1 n=c5 v=0
40112 On ch=1 n=c5 v=85
40114 On ch=1 n=e5 v=82
40190 On ch=1 n=e5 v=0
40192 On ch=1 n=c5 v=0
40344 On ch=1 n=c5 v=84
40346 On ch=1 n=a6 v=0
40348 On ch=1 n=e5 v=81
40410 On ch=1 n=e5 v=0
40420 On ch=1 n=c5 v=0
40514 On ch=1 n=b6 v=98
40560 On ch=1 n=a6 v=78
40582 On ch=1 n=c5 v=78
40582 On ch=1 n=e5 v=91
40602 On ch=1 n=b6 v=0
40608 On ch=1 n=g#6 v=98
40624 On ch=1 n=e5 v=0
40626 On ch=1 n=c5 v=0
40628 On ch=1 n=a6 v=0
40686 On ch=1 n=a6 v=96
40704 Par ch=1 c=64 v=63
40712 Par ch=1 c=64 v=0
40714 On ch=1 n=g#6 v=0
40750 On ch=1 n=c5 v=89
40752 On ch=1 n=e5 v=94
40756 On ch=1 n=c7 v=111
40826 On ch=1 n=e5 v=0
40828 On ch=1 n=a6 v=0
40840 On ch=1 n=c5 v=0
40974 On ch=1 n=a6 v=106
40982 On ch=1 n=c5 v=93
40986 On ch=1 n=e5 v=93
41024 On ch=1 n=c7 v=0
41046 On ch=1 n=c5 v=0
41052 On ch=1 n=a6 v=0
41054 On ch=1 n=e5 v=0
41190 On ch=1 n=c7 v=118
41196 On ch=1 n=c5 v=99
41200 On ch=1 n=e5 v=100
41268 On ch=1 n=e5 v=0
41274 On ch=1 n=c5 v=0
41410 On ch=1 n=a6 v=108
41420 On ch=1 n=c5 v=100
41420 On ch=1 n=e5 v=106
41458 On ch=1 n=c7 v=0
41482 On ch=1 n=c5 v=0
41492 On ch=1 n=a6 v=0
41498 On ch=1 n=e5 v=0
41628 On ch=1 n=d5 v=109
41636 On ch=1 n=b6 v=116
41718 Par ch=1 c=64 v=63
41722 Par ch=1 c=64 v=127
41744 On ch=1 n=b5 v=76
41828 On ch=1 n=g6 v=104
41842 On ch=1 n=g5 v=85
41844 On ch=1 n=b6 v=0
41854 On ch=1 n=b5 v=0
41924 On ch=1 n=d5 v=0
41928 On ch=1 n=b5 v=101
42062 On ch=1 n=g6 v=0
42070 On ch=1 n=d5 v=87
42074 On ch=1 n=d7 v=114
42100 On ch=1 n=b5 v=0
42186 On ch=1 n=g5 v=0
42224 On ch=1 n=b5 v=68
42246 Par ch=1 c=64 v=63
42292 Par ch=1 c=64 v=127
42376 On ch=1 n=b5 v=0
42380 On ch=1 n=g5 v=63
42460 On ch=1 n=d5 v=0
42466 On ch=1 n=b5 v=87
42520 On ch=1 n=g5 v=0
42564 On ch=1 n=d5 v=93
42608 On ch=1 n=b5 v=0
42658 On ch=1 n=d7 v=0
42686 On ch=1 n=b5 v=84
42740 On ch=1 n=d5 v=0
42786 On ch=1 n=g5 v=84
42818 On ch=1 n=b5 v=0
42880 On ch=1 n=b5 v=73
42896 On ch=1 n=g5 v=0
42982 On ch=1 n=c7 v=112
42988 On ch=1 n=d5 v=90
43006 On ch=1 n=b5 v=0
43078 On ch=1 n=b6 v=91
43082 On ch=1 n=b5 v=63
43106 On ch=1 n=c7 v=0
43110 On ch=1 n=d5 v=0
43148 On ch=1 n=a6 v=92
43174 On ch=1 n=b6 v=0
43194 On ch=1 n=b5 v=0
43198 On ch=1 n=g5 v=61
43254 On ch=1 n=a6 v=0
43262 On ch=1 n=g6 v=102
43280 On ch=1 n=g5 v=0
43280 On ch=1 n=b5 v=77
43368 On ch=1 n=a6 v=111
43396 On ch=1 n=b5 v=0
43396 On ch=1 n=d5 v=90
43412 Par ch=1 c=64 v=63
43424 On ch=1 n=g6 v=0
43458 Par ch=1 c=64 v=127
43526 On ch=1 n=c6 v=66
43560 On ch=1 n=d5 v=0
43564 On ch=1 n=b6 v=92
43578 On ch=1 n=a6 v=0
43642 On ch=1 n=b6 v=0
43648 On ch=1 n=c6 v=0
43656 On ch=1 n=a6 v=81
43672 On ch=1 n=f#5 v=52
43718 On ch=1 n=b6 v=73
43728 On ch=1 n=f#5 v=0
43732 On ch=1 n=a6 v=0
43734 On ch=1 n=c6 v=63
43762 On ch=1 n=b6 v=0
43784 On ch=1 n=a6 v=86
43836 On ch=1 n=b6 v=93
43844 On ch=1 n=c6 v=0
43846 On ch=1 n=d5 v=84
43860 On ch=1 n=a6 v=0
43900 On ch=1 n=b6 v=0
43912 On ch=1 n=a6 v=90
43930 On ch=1 n=c6 v=65
43946 On ch=1 n=d5 v=0
43974 On ch=1 n=b6 v=86
44002 On ch=1 n=a6 v=0
44036 On ch=1 n=b6 v=0
44040 On ch=1 n=a6 v=66
44044 On ch=1 n=c6 v=0
44056 On ch=1 n=f#5 v=68
44100 On ch=1 n=b6 v=90
44120 On ch=1 n=f#5 v=0
44128 On ch=1 n=a6 v=0
44140 On ch=1 n=c6 v=79
44168 On ch=1 n=b6 v=0
44180 On ch=1 n=a6 v=87
44232 On ch=1 n=b6 v=92
44258 On ch=1 n=c6 v=0
44260 On ch=1 n=a6 v=0
44286 On ch=1 n=d5 v=100
44308 On ch=1 n=b6 v=0
44308 On ch=1 n=a6 v=94
44376 On ch=1 n=c6 v=63
44378 On ch=1 n=b6 v=91
44386 On ch=1 n=d5 v=0
44396 On ch=1 n=a6 v=0
44444 On ch=1 n=b6 v=0
44448 On ch=1 n=a6 v=89
44482 On ch=1 n=c6 v=0
44504 On ch=1 n=f#5 v=70
44510 On ch=1 n=b6 v=92
44532 On ch=1 n=a6 v=0
44554 On ch=1 n=f#5 v=0
44566 On ch=1 n=c6 v=80
44584 On ch=1 n=b6 v=0
44586 On ch=1 n=a6 v=96
44676 On ch=1 n=b6 v=73
44690 On ch=1 n=c6 v=0
44690 On ch=1 n=d5 v=96
44760 On ch=1 n=a6 v=0
44788 On ch=1 n=c6 v=73
44798 On ch=1 n=a6 v=101
44804 On ch=1 n=b6 v=0
44808 On ch=1 n=d5 v=0
44854 On ch=1 n=b6 v=97
44858 On ch=1 n=f#5 v=67
44884 On ch=1 n=a6 v=0
44894 On ch=1 n=c6 v=0
44912 On ch=1 n=b6 v=0
44914 On ch=1 n=a6 v=65
44932 On ch=1 n=f#5 v=0
44968 On ch=1 n=c6 v=68
44976 On ch=1 n=g6 v=92
44990 On ch=1 n=a6 v=0
45034 On ch=1 n=a6 v=96
45052 On ch=1 n=c6 v=0
45076 On ch=1 n=g6 v=0
45092 Par ch=1 c=64 v=63
45104 Par ch=1 c=64 v=0
45146 On ch=1 n=b5 v=118
45148 On ch=1 n=g5 v=113
45154 On ch=1 n=g6 v=117
45162 Par ch=1 c=64 v=63
45202 Par ch=1 c=64 v=127
45212 On ch=1 n=a6 v=0
45222 On ch=1 n=b5 v=0
45232 On ch=1 n=g5 v=0
45262 On ch=1 n=g6 v=0
45644 Par ch=1 c=64 v=63
45660 Par ch=1 c=64 v=0
45666 On ch=1 n=g6 v=112
45746 On ch=1 n=g6 v=0
45748 On ch=1 n=d6 v=83
45862 On ch=1 n=g6 v=93
45874 On ch=1 n=d6 v=0
45960 On ch=1 n=b6 v=102
45990 On ch=1 n=g6 v=0
46070 On ch=1 n=d7 v=103
46088 On ch=1 n=b6 v=0
46180 On ch=1 n=b6 v=93
46234 On ch=1 n=d7 v=0
46284 On ch=1 n=b6 v=0
46286 On ch=1 n=g6 v=80
46368 On ch=1 n=b6 v=88
46390 On ch=1 n=g6 v=0
46480 On ch=1 n=c7 v=101
46488 On ch=1 n=b6 v=0
46494 On ch=1 n=c6 v=108
46500 On ch=1 n=a5 v=97
46504 On ch=1 n=d5 v=93
46536 On ch=1 n=a5 v=0
46560 On ch=1 n=d5 v=0
46562 On ch=1 n=c6 v=0
46592 On ch=1 n=a6 v=87
46620 On ch=1 n=c7 v=0
46698 On ch=1 n=f#6 v=94
46702 On ch=1 n=a6 v=0
46804 On ch=1 n=a6 v=90
46820 On ch=1 n=f#6 v=0
46940 On ch=1 n=g6 v=103
46946 On ch=1 n=b5 v=109
46958 On ch=1 n=g5 v=100
46962 On ch=1 n=a6 v=0
47006 On ch=1 n=g5 v=0
47008 On ch=1 n=g6 v=0
47016 Par ch=1 c=64 v=63
47022 On ch=1 n=b5 v=0
47026 Par ch=1 c=64 v=127
47428 On ch=1 n=g5 v=102
47440 Par ch=1 c=64 v=63
47478 Par ch=1 c=64 v=0
47516 On ch=1 n=g5 v=0
47542 On ch=1 n=d5 v=83
47626 On ch=1 n=g5 v=88
47650 On ch=1 n=d5 v=0
47732 On ch=1 n=b5 v=100
47750 On ch=1 n=g5 v=0
47834 On ch=1 n=d6 v=91
47852 On ch=1 n=b5 v=0
47942 On ch=1 n=b5 v=84
47998 On ch=1 n=d6 v=0
48040 On ch=1 n=g5 v=81
48042 On ch=1 n=b5 v=0
48120 On ch=1 n=b5 v=89
48144 On ch=1 n=g5 v=0
48236 On ch=1 n=c6 v=97
48238 On ch=1 n=b5 v=0
48240 On ch=1 n=d4 v=91
48242 On ch=1 n=c5 v=85
48250 On ch=1 n=a4 v=67
48294 On ch=1 n=a4 v=0
48296 On ch=1 n=c5 v=0
48336 On ch=1 n=a5 v=77
48344 On ch=1 n=d4 v=0
48376 On ch=1 n=c6 v=0
48442 On ch=1 n=f#5 v=95
48450 On ch=1 n=a5 v=0
48558 On ch=1 n=a5 v=71
48560 On ch=1 n=f#5 v=0
48638 On ch=1 n=g5 v=100
48648 On ch=1 n=b4 v=100
48660 On ch=1 n=g4 v=94
48696 On ch=1 n=a5 v=0
48714 On ch=1 n=g4 v=0
48714 On ch=1 n=g5 v=0
48716 On ch=1 n=b4 v=0
49088 On ch=1 n=g4 v=109
49090 On ch=1 n=b6 v=109
49094 On ch=1 n=g3 v=106
49094 On ch=1 n=d6 v=113
49160 On ch=1 n=d6 v=0
49164 On ch=1 n=b6 v=0
49166 On ch=1 n=g3 v=0
49168 On ch=1 n=g4 v=0
49578 On ch=1 n=g6 v=109
49580 On ch=1 n=b5 v=113
49586 On ch=1 n=g4 v=107
49594 On ch=1 n=g3 v=103
49626 Par ch=1 c=64 v=63
49646 Par ch=1 c=64 v=127
49652 On ch=1 n=b5 v=0
49684 On ch=1 n=g4 v=0
49694 On ch=1 n=g3 v=0
49704 On ch=1 n=g6 v=0
49988 Par ch=1 c=64 v=63
50000 Par ch=1 c=64 v=0
50536 On ch=1 n=g5 v=122
50540 On ch=1 n=g4 v=111
50542 On ch=1 n=g3 v=107
50548 Par ch=1 c=64 v=63
50550 Par ch=1 c=64 v=127
50596 On ch=1 n=g5 v=0
50632 On ch=1 n=g4 v=0
50634 On ch=1 n=g3 v=0
51008 On ch=1 n=g6 v=98
51104 On ch=1 n=g6 v=0
51106 On ch=1 n=d6 v=80
51206 On ch=1 n=d6 v=0
51208 On ch=1 n=g6 v=87
51248 Par ch=1 c=64 v=63
51286 Par ch=1 c=64 v=0
51298 On ch=1 n=a#6 v=99
51324 On ch=1 n=g6 v=0
51390 On ch=1 n=d7 v=97
51414 On ch=1 n=a#6 v=0
51496 On ch=1 n=a#6 v=97
51554 On ch=1 n=d7 v=0
51600 On ch=1 n=g6 v=80
51604 On ch=1 n=a#6 v=0
51678 On ch=1 n=a#6 v=96
51710 On ch=1 n=g6 v=0
51806 On ch=1 n=c7 v=97
51822 On ch=1 n=a#6 v=0
51828 On ch=1 n=c6 v=103
51838 On ch=1 n=a5 v=86
51842 On ch=1 n=d5 v=80
51876 On ch=1 n=a5 v=0
51890 On ch=1 n=d5 v=0
51890 On ch=1 n=c6 v=0
51902 On ch=1 n=a6 v=74
51966 On ch=1 n=c7 v=0
52010 On ch=1 n=f#6 v=101
52028 On ch=1 n=a6 v=0
52116 On ch=1 n=a6 v=91
52134 On ch=1 n=f#6 v=0
52224 On ch=1 n=a#5 v=114
52224 On ch=1 n=g5 v=91
52230 On ch=1 n=g6 v=108
52280 On ch=1 n=a6 v=0
52302 On ch=1 n=a#5 v=0
52306 On ch=1 n=g6 v=0
52308 On ch=1 n=g5 v=0
52308 Par ch=1 c=64 v=63
52316 Par ch=1 c=64 v=127
52704 On ch=1 n=g5 v=94
52770 Par ch=1 c=64 v=63
52804 On ch=1 n=d5 v=77
52808 On ch=1 n=g5 v=0
52884 Par ch=1 c=64 v=0
52904 On ch=1 n=g5 v=83
52924 On ch=1 n=d5 v=0
52994 On ch=1 n=a#5 v=101
53022 On ch=1 n=g5 v=0
53092 On ch=1 n=d6 v=86
53112 On ch=1 n=a#5 v=0
53194 On ch=1 n=a#5 v=90
53240 On ch=1 n=d6 v=0
53292 On ch=1 n=g5 v=74
53294 On ch=1 n=a#5 v=0
53374 On ch=1 n=a#5 v=87
53404 On ch=1 n=g5 v=0
53484 On ch=1 n=c5 v=89
53500 On ch=1 n=d4 v=73
53502 On ch=1 n=a4 v=60
53506 On ch=1 n=a#5 v=0
53512 On ch=1 n=c6 v=82
53526 On ch=1 n=c5 v=0
53552 On ch=1 n=a4 v=0
53570 On ch=1 n=d4 v=0
53594 On ch=1 n=a5 v=64
53642 On ch=1 n=c6 v=0
53700 On ch=1 n=f#5 v=88
53702 On ch=1 n=a5 v=0
53800 On ch=1 n=a5 v=63
53802 On ch=1 n=f#5 v=0
53942 On ch=1 n=g5 v=72
53988 On ch=1 n=a5 v=0
53998 On ch=1 n=g3 v=74
54136 On ch=1 n=a3 v=82
54202 On ch=1 n=a3 v=0
54240 On ch=1 n=a3 v=62
54242 On ch=1 n=a#3 v=90
54248 On ch=1 n=g3 v=0
54322 On ch=1 n=g5 v=0
54354 On ch=1 n=a3 v=0
54364 On ch=1 n=c4 v=94
54418 On ch=1 n=a#3 v=0
54462 On ch=1 n=d4 v=88
54490 On ch=1 n=c4 v=0
54570 On ch=1 n=e4 v=86
54588 On ch=1 n=d4 v=0
54678 On ch=1 n=f#4 v=105
54712 On ch=1 n=e4 v=0
54786 On ch=1 n=g4 v=99
54806 On ch=1 n=f#4 v=0
54884 On ch=1 n=g6 v=89
54974 On ch=1 n=a#6 v=103
55006 On ch=1 n=g6 v=0
55092 On ch=1 n=a6 v=98
55144 On ch=1 n=a#6 v=0
55174 On ch=1 n=g6 v=88
55200 On ch=1 n=a6 v=0
55222 On ch=1 n=g4 v=0
55276 On ch=1 n=g6 v=0
55298 On ch=1 n=f6 v=91
55392 On ch=1 n=e6 v=94
55418 On ch=1 n=f6 v=0
55486 On ch=1 n=d6 v=84
55488 On ch=1 n=e6 v=0
55606 On ch=1 n=c#6 v=110
55608 On ch=1 n=d6 v=0
55686 On ch=1 n=a3 v=62
55732 Par ch=1 c=64 v=63
55772 Par ch=1 c=64 v=127
55814 On ch=1 n=b3 v=79
55894 On ch=1 n=a3 v=0
55904 On ch=1 n=c#6 v=0
55922 On ch=1 n=c#4 v=104
56000 On ch=1 n=b3 v=0
56022 On ch=1 n=d4 v=107
56078 On ch=1 n=c#4 v=0
56118 On ch=1 n=e4 v=93
56132 On ch=1 n=d4 v=0
56196 Par ch=1 c=64 v=63
56218 On ch=1 n=f#4 v=110
56238 Par ch=1 c=64 v=0
56256 On ch=1 n=e4 v=0
56322 On ch=1 n=g#4 v=109
56368 On ch=1 n=f#4 v=0
56422 On ch=1 n=a4 v=111
56474 Par ch=1 c=64 v=63
56476 On ch=1 n=g#4 v=0
56502 Par ch=1 c=64 v=127
56544 On ch=1 n=c#7 v=110
56636 Par ch=1 c=64 v=63
56646 On ch=1 n=e7 v=100
56666 Par ch=1 c=64 v=0
56668 On ch=1 n=c#7 v=0
56714 On ch=1 n=a4 v=0
56758 On ch=1 n=d7 v=100
56818 On ch=1 n=e7 v=0
56850 On ch=1 n=c#7 v=104
56896 On ch=1 n=d7 v=0
56940 On ch=1 n=a#6 v=104
57000 On ch=1 n=c#7 v=0
57046 On ch=1 n=a6 v=92
57068 On ch=1 n=a#6 v=0
57142 On ch=1 n=a6 v=0
57158 On ch=1 n=g6 v=100
57246 On ch=1 n=d4 v=121
57254 On ch=1 n=d3 v=117
57260 On ch=1 n=f6 v=117
57304 On ch=1 n=g6 v=0
57314 Par ch=1 c=64 v=63
57316 Par ch=1 c=64 v=127
57354 On ch=1 n=d3 v=0
57358 On ch=1 n=d4 v=0
57368 On ch=1 n=f6 v=0
57724 On ch=1 n=d6 v=107
57810 On ch=1 n=a5 v=76
57816 On ch=1 n=d6 v=0
57880 Par ch=1 c=64 v=63
57898 Par ch=1 c=64 v=0
57908 On ch=1 n=a5 v=0
57914 On ch=1 n=d6 v=99
58008 On ch=1 n=f6 v=100
58038 On ch=1 n=d6 v=0
58110 On ch=1 n=a6 v=96
58132 On ch=1 n=f6 v=0
58232 On ch=1 n=f6 v=87
58286 On ch=1 n=a6 v=0
58334 On ch=1 n=f6 v=0
58334 On ch=1 n=d6 v=79
58432 On ch=1 n=f6 v=91
58446 On ch=1 n=d6 v=0
58534 On ch=1 n=g6 v=97
58540 On ch=1 n=a4 v=98
58542 On ch=1 n=g5 v=97
58552 On ch=1 n=e5 v=83
58554 On ch=1 n=f6 v=0
58588 On ch=1 n=e5 v=0
58610 On ch=1 n=g5 v=0
58620 On ch=1 n=a4 v=0
58654 On ch=1 n=e6 v=88
58670 On ch=1 n=g6 v=0
58758 On ch=1 n=c#6 v=91
58762 On ch=1 n=e6 v=0
58862 On ch=1 n=e6 v=89
58868 On ch=1 n=c#6 v=0
58982 On ch=1 n=d6 v=108
58992 On ch=1 n=f5 v=99
58998 On ch=1 n=d5 v=101
59026 On ch=1 n=e6 v=0
59032 Par ch=1 c=64 v=63
59048 Par ch=1 c=64 v=127
59052 On ch=1 n=d6 v=0
59068 On ch=1 n=d5 v=0
59074 On ch=1 n=f5 v=0
59450 On ch=1 n=d5 v=103
59470 Par ch=1 c=64 v=63
59532 Par ch=1 c=64 v=0
59534 On ch=1 n=d5 v=0
59552 On ch=1 n=a4 v=72
59634 On ch=1 n=d5 v=81
59640 On ch=1 n=a4 v=0
59736 On ch=1 n=f5 v=92
59752 On ch=1 n=d5 v=0
59834 On ch=1 n=a5 v=76
59854 On ch=1 n=f5 v=0
59954 On ch=1 n=f5 v=73
59996 On ch=1 n=a5 v=0
60054 On ch=1 n=f5 v=0
60058 On ch=1 n=d5 v=77
60142 On ch=1 n=f5 v=74
60154 On ch=1 n=d5 v=0
60246 On ch=1 n=f5 v=0
60248 On ch=1 n=g5 v=85
60254 On ch=1 n=g4 v=71
60256 On ch=1 n=a3 v=71
60274 On ch=1 n=e4 v=75
60348 On ch=1 n=g4 v=0
60356 On ch=1 n=e4 v=0
60364 On ch=1 n=a3 v=0
60372 On ch=1 n=e5 v=55
60388 On ch=1 n=g5 v=0
60438 On ch=1 n=c#5 v=75
60450 On ch=1 n=e5 v=0
60552 On ch=1 n=c#5 v=0
60558 On ch=1 n=e5 v=63
60650 On ch=1 n=e5 v=0
60662 On ch=1 n=d4 v=80
60662 On ch=1 n=f4 v=74
60788 On ch=1 n=d5 v=71
60888 On ch=1 n=e5 v=74
60896 On ch=1 n=d5 v=0
60992 On ch=1 n=e5 v=0
60996 On ch=1 n=f5 v=61
61060 On ch=1 n=f5 v=0
61090 On ch=1 n=g5 v=67
61094 On ch=1 n=d4 v=0
61096 On ch=1 n=f4 v=0
61190 On ch=1 n=a5 v=84
61204 On ch=1 n=g5 v=0
61292 On ch=1 n=b5 v=67
61302 On ch=1 n=a5 v=0
61386 On ch=1 n=c#6 v=80
61416 On ch=1 n=b5 v=0
61494 On ch=1 n=c#6 v=0
61504 On ch=1 n=d6 v=82
61592 On ch=1 n=d5 v=82
61714 On ch=1 n=f5 v=70
61722 On ch=1 n=d5 v=0
61818 On ch=1 n=e5 v=73
61848 On ch=1 n=f5 v=0
61920 On ch=1 n=d5 v=84
61954 On ch=1 n=d6 v=0
61960 On ch=1 n=e5 v=0
61996 On ch=1 n=d5 v=0
62010 On ch=1 n=c5 v=94
62120 On ch=1 n=b4 v=88
62130 On ch=1 n=c5 v=0
62200 On ch=1 n=a4 v=77
62230 On ch=1 n=b4 v=0
62348 On ch=1 n=g#4 v=99
62406 On ch=1 n=a4 v=0
62470 On ch=1 n=b5 v=75
62556 On ch=1 n=c6 v=79
62572 On ch=1 n=b5 v=0
62662 On ch=1 n=d6 v=88
62674 On ch=1 n=c6 v=0
62720 On ch=1 n=d6 v=0
62772 On ch=1 n=e6 v=80
62814 On ch=1 n=g#4 v=0
62872 On ch=1 n=f#6 v=100
62898 On ch=1 n=e6 v=0
62980 On ch=1 n=g#6 v=96
63024 On ch=1 n=f#6 v=0
63080 On ch=1 n=a6 v=92
63130 On ch=1 n=g#6 v=0
63192 On ch=1 n=b6 v=111
63238 On ch=1 n=a6 v=0
63296 On ch=1 n=g#4 v=93
63416 On ch=1 n=b4 v=87
63464 On ch=1 n=g#4 v=0
63514 On ch=1 n=a4 v=72
63568 On ch=1 n=b4 v=0
63578 On ch=1 n=b6 v=0
63596 On ch=1 n=g#4 v=108
63644 On ch=1 n=a4 v=0
63708 On ch=1 n=f4 v=87
63710 On ch=1 n=g#4 v=0
63820 On ch=1 n=e4 v=97
63838 On ch=1 n=f4 v=0
63908 On ch=1 n=d4 v=98
63928 On ch=1 n=e4 v=0
64038 On ch=1 n=d4 v=0
64042 On ch=1 n=c4 v=93
64206 On ch=1 n=a6 v=74
64208 Par ch=1 c=64 v=63
64262 Par ch=1 c=64 v=127
64306 On ch=1 n=a6 v=0
64310 On ch=1 n=e7 v=73
64380 On ch=1 n=c4 v=0
64426 On ch=1 n=d7 v=91
64488 On ch=1 n=e7 v=0
64534 On ch=1 n=c7 v=87
64584 On ch=1 n=d7 v=0
64612 On ch=1 n=b6 v=97
64664 On ch=1 n=c7 v=0
64714 On ch=1 n=a6 v=89
64730 On ch=1 n=b6 v=0
64822 On ch=1 n=g6 v=97
64840 On ch=1 n=a6 v=0
64926 On ch=1 n=f6 v=104
64978 Par ch=1 c=64 v=63
64984 On ch=1 n=g6 v=0
65006 Par ch=1 c=64 v=0
65034 On ch=1 n=d5 v=81
65130 Par ch=1 c=64 v=63
65164 On ch=1 n=a5 v=71
65192 Par ch=1 c=64 v=127
65214 On ch=1 n=d5 v=0
65262 On ch=1 n=g5 v=67
65300 On ch=1 n=a5 v=0
65308 On ch=1 n=f6 v=0
65356 On ch=1 n=f5 v=86
65368 Par ch=1 c=64 v=63
65402 On ch=1 n=g5 v=0
65448 On ch=1 n=f5 v=0
65456 Par ch=1 c=64 v=0
65464 On ch=1 n=e5 v=82
65570 On ch=1 n=d5 v=86
65580 On ch=1 n=e5 v=0
65664 On ch=1 n=c5 v=84
65682 On ch=1 n=d5 v=0
65784 On ch=1 n=b4 v=84
65788 On ch=1 n=c5 v=0
65856 Par ch=1 c=64 v=63
65896 On ch=1 n=g6 v=72
65912 Par ch=1 c=64 v=127
65994 On ch=1 n=d7 v=65
66006 On ch=1 n=g6 v=0
66120 On ch=1 n=c7 v=82
66166 Par ch=1 c=64 v=63
66180 On ch=1 n=d7 v=0
66218 On ch=1 n=b6 v=76
66234 Par ch=1 c=64 v=0
66276 On ch=1 n=c7 v=0
66308 On ch=1 n=a6 v=88
66360 On ch=1 n=b6 v=0
66366 On ch=1 n=b4 v=0
66410 On ch=1 n=g6 v=75
66420 On ch=1 n=a6 v=0
66536 On ch=1 n=f6 v=76
66540 On ch=1 n=g6 v=0
66634 On ch=1 n=e6 v=82
66650 Par ch=1 c=64 v=63
66668 On ch=1 n=f6 v=0
66706 Par ch=1 c=64 v=127
66754 On ch=1 n=c5 v=76
66890 On ch=1 n=g5 v=67
66898 Par ch=1 c=64 v=63
66916 On ch=1 n=c5 v=0
66968 On ch=1 n=e6 v=0
66992 On ch=1 n=f5 v=67
67012 On ch=1 n=g5 v=0
67022 Par ch=1 c=64 v=0
67088 On ch=1 n=e5 v=81
67114 On ch=1 n=f5 v=0
67174 On ch=1 n=e5 v=0
67182 On ch=1 n=d5 v=83
67302 On ch=1 n=d5 v=0
67302 On ch=1 n=c5 v=76
67382 On ch=1 n=b4 v=80
67400 On ch=1 n=c5 v=0
67494 Par ch=1 c=64 v=63
67512 On ch=1 n=b4 v=0
67514 On ch=1 n=a4 v=68
67638 On ch=1 n=f6 v=69
67738 On ch=1 n=c7 v=71
67742 On ch=1 n=f6 v=0
67856 On ch=1 n=b6 v=76
67874 Par ch=1 c=64 v=0
67916 On ch=1 n=c7 v=0
67974 On ch=1 n=a6 v=71
68014 On ch=1 n=b6 v=0
68058 On ch=1 n=g6 v=83
68090 Par ch=1 c=64 v=63
68094 On ch=1 n=a6 v=0
68136 Par ch=1 c=64 v=0
68150 On ch=1 n=a4 v=0
68168 On ch=1 n=g6 v=0
68172 On ch=1 n=f6 v=73
68270 On ch=1 n=e6 v=77
68272 On ch=1 n=f6 v=0
68378 On ch=1 n=d6 v=79
68396 On ch=1 n=e6 v=0
68410 Par ch=1 c=64 v=63
68508 On ch=1 n=b4 v=75
68618 On ch=1 n=f5 v=54
68642 On ch=1 n=b4 v=0
68710 On ch=1 n=d6 v=0
68728 On ch=1 n=e5 v=55
68744 On ch=1 n=f5 v=0
68822 On ch=1 n=d5 v=78
68860 On ch=1 n=e5 v=0
68898 On ch=1 n=d5 v=0
68922 On ch=1 n=c5 v=85
69030 On ch=1 n=b4 v=78
69032 On ch=1 n=c5 v=0
69116 On ch=1 n=a4 v=67
69126 On ch=1 n=b4 v=0
69222 On ch=1 n=g#4 v=91
69236 On ch=1 n=a4 v=0
69366 On ch=1 n=e6 v=67
69446 On ch=1 n=b6 v=63
69460 On ch=1 n=e6 v=0
69578 On ch=1 n=a6 v=71
69606 On ch=1 n=b6 v=0
69668 On ch=1 n=g#6 v=83
69698 On ch=1 n=a6 v=0
69706 Par ch=1 c=64 v=0
69790 On ch=1 n=f6 v=73
69822 On ch=1 n=g#6 v=0
69842 On ch=1 n=g#4 v=0
69878 On ch=1 n=e6 v=75
69884 On ch=1 n=f6 v=0
69982 On ch=1 n=e6 v=0
69990 On ch=1 n=d6 v=86
70100 On ch=1 n=c6 v=72
70108 On ch=1 n=d6 v=0
70232 On ch=1 n=a4 v=56
70364 On ch=1 n=a4 v=0
70364 On ch=1 n=c5 v=58
70448 On ch=1 n=b4 v=71
70460 On ch=1 n=c5 v=0
70464 On ch=1 n=c6 v=0
70560 On ch=1 n=a4 v=71
70582 On ch=1 n=b4 v=0
70630 On ch=1 n=a4 v=0
70662 On ch=1 n=g4 v=75
70776 On ch=1 n=f4 v=77
70782 On ch=1 n=g4 v=0
70866 On ch=1 n=e4 v=80
70880 On ch=1 n=f4 v=0
71012 On ch=1 n=e4 v=0
71014 On ch=1 n=d4 v=68
71120 On ch=1 n=a#5 v=75
71210 On ch=1 n=d6 v=63
71228 On ch=1 n=a#5 v=0
71350 On ch=1 n=c6 v=71
71370 On ch=1 n=d6 v=0
71378 Par ch=1 c=64 v=63
71392 Par ch=1 c=64 v=127
71450 On ch=1 n=a#5 v=80
71474 On ch=1 n=c6 v=0
71530 On ch=1 n=d4 v=0
71550 On ch=1 n=a5 v=72
71590 On ch=1 n=a#5 v=0
71660 On ch=1 n=a5 v=0
71664 On ch=1 n=g5 v=70
71770 Par ch=1 c=64 v=63
71784 On ch=1 n=f5 v=80
71786 On ch=1 n=g5 v=0
71786 Par ch=1 c=64 v=0
71888 On ch=1 n=a#4 v=76
71902 On ch=1 n=f5 v=0
71902 On ch=1 n=g4 v=63
71904 On ch=1 n=e5 v=62
71912 On ch=1 n=c4 v=63
71966 Par ch=1 c=64 v=63
71984 Par ch=1 c=64 v=127
72014 On ch=1 n=e5 v=0
72024 On ch=1 n=f5 v=64
72142 On ch=1 n=g5 v=72
72148 On ch=1 n=f5 v=0
72260 On ch=1 n=a5 v=65
72274 On ch=1 n=g5 v=0
72274 On ch=1 n=c4 v=0
72342 On ch=1 n=g4 v=0
72372 On ch=1 n=a#4 v=0
72390 On ch=1 n=a#5 v=82
72418 On ch=1 n=a5 v=0
72476 On ch=1 n=a#5 v=0
72502 On ch=1 n=c6 v=71
72642 On ch=1 n=d6 v=78
72712 On ch=1 n=c6 v=0
72788 On ch=1 n=e6 v=89
72806 On ch=1 n=d6 v=0
72950 On ch=1 n=e6 v=0
72998 On ch=1 n=f6 v=89
73022 On ch=1 n=f5 v=44
73070 Par ch=1 c=64 v=63
73108 Par ch=1 c=64 v=0
73274 Par ch=1 c=64 v=63
73298 Par ch=1 c=64 v=127
73300 On ch=1 n=c6 v=43
73542 On ch=1 n=a5 v=44
73568 On ch=1 n=c6 v=0
73746 On ch=1 n=c6 v=55
73836 On ch=1 n=f5 v=0
73952 On ch=1 n=f6 v=0
73962 On ch=1 n=a6 v=96
73986 On ch=1 n=f5 v=56
74004 On ch=1 n=c6 v=0
74038 On ch=1 n=a5 v=0
74200 On ch=1 n=c6 v=57
74414 On ch=1 n=a5 v=40
74428 On ch=1 n=c6 v=0
74430 On ch=1 n=c7 v=89
74518 On ch=1 n=a6 v=0
74542 On ch=1 n=f5 v=0
74622 On ch=1 n=c6 v=53
74814 On ch=1 n=a5 v=0
74836 On ch=1 n=e6 v=76
74842 On ch=1 n=c7 v=0
74850 On ch=1 n=g5 v=46
74852 On ch=1 n=c6 v=0
74918 Par ch=1 c=64 v=63
74982 Par ch=1 c=64 v=0
75056 Par ch=1 c=64 v=63
75078 On ch=1 n=c6 v=43
75116 Par ch=1 c=64 v=127
75282 On ch=1 n=a#5 v=67
75296 On ch=1 n=c6 v=0
75410 On ch=1 n=g5 v=0
75492 On ch=1 n=a#5 v=0
75506 On ch=1 n=e6 v=0
75510 On ch=1 n=f6 v=71
75546 On ch=1 n=c6 v=54
75598 On ch=1 n=g6 v=65
75602 On ch=1 n=f6 v=0
75702 On ch=1 n=f6 v=77
75708 On ch=1 n=g6 v=0
75710 Par ch=1 c=64 v=63
75720 On ch=1 n=f5 v=41
75734 On ch=1 n=c6 v=0
75742 Par ch=1 c=64 v=0
75918 Par ch=1 c=64 v=63
75948 Par ch=1 c=64 v=127
75954 On ch=1 n=c6 v=37
76002 On ch=1 n=f5 v=0
76080 On ch=1 n=f6 v=0
76170 On ch=1 n=a5 v=44
76200 On ch=1 n=c6 v=0
76378 On ch=1 n=a5 v=0
76386 On ch=1 n=c6 v=54
76612 On ch=1 n=c6 v=0
76618 Par ch=1 c=64 v=63
76620 On ch=1 n=d7 v=92
76632 On ch=1 n=f5 v=34
76658 Par ch=1 c=64 v=0
76826 Par ch=1 c=64 v=63
76852 On ch=1 n=d6 v=51
76856 Par ch=1 c=64 v=127
77060 On ch=1 n=a#5 v=69
77088 On ch=1 n=d6 v=0
77158 On ch=1 n=f5 v=0
77260 On ch=1 n=d6 v=63
77446 On ch=1 n=a#5 v=0
77480 On ch=1 n=d6 v=0
77480 On ch=1 n=c7 v=99
77492 On ch=1 n=f5 v=48
77564 On ch=1 n=d7 v=0
77572 Par ch=1 c=64 v=63
77650 Par ch=1 c=64 v=0
77670 Par ch=1 c=64 v=63
77676 On ch=1 n=c6 v=57
77734 Par ch=1 c=64 v=127
77900 On ch=1 n=c6 v=0
77916 On ch=1 n=a5 v=30
77934 On ch=1 n=f7 v=86
77964 On ch=1 n=c7 v=0
77966 On ch=1 n=f5 v=0
78112 On ch=1 n=a5 v=0
78120 On ch=1 n=c6 v=68
78184 On ch=1 n=f7 v=0
78362 On ch=1 n=c7 v=94
78366 On ch=1 n=c6 v=0
78368 On ch=1 n=e5 v=52
78374 Par ch=1 c=64 v=63
78502 On ch=1 n=c7 v=0
78516 Par ch=1 c=64 v=127
78550 On ch=1 n=c6 v=45
78554 On ch=1 n=e5 v=0
78758 On ch=1 n=c6 v=0
78784 On ch=1 n=g5 v=53
78806 On ch=1 n=a#6 v=87
78862 On ch=1 n=a#6 v=0
78864 On ch=1 n=c7 v=71
78916 On ch=1 n=c7 v=0
78922 On ch=1 n=g5 v=0
78932 On ch=1 n=a#6 v=62
78944 On ch=1 n=c6 v=40
78956 On ch=1 n=c7 v=65
78972 On ch=1 n=a#6 v=0
79022 On ch=1 n=c7 v=0
79026 On ch=1 n=a#6 v=77
79092 On ch=1 n=a#6 v=0
79092 On ch=1 n=a6 v=84
79154 On ch=1 n=a#6 v=87
79172 On ch=1 n=a6 v=0
79192 On ch=1 n=c6 v=0
79196 Par ch=1 c=64 v=63
79216 Par ch=1 c=64 v=0
79248 On ch=1 n=f5 v=49
79250 On ch=1 n=a6 v=92
79260 On ch=1 n=a#6 v=0
79354 Par ch=1 c=64 v=63
79380 Par ch=1 c=64 v=127
79446 On ch=1 n=c6 v=50
79452 On ch=1 n=f5 v=0
79588 On ch=1 n=a6 v=0
79684 On ch=1 n=a5 v=60
79694 On ch=1 n=c6 v=0
79830 On ch=1 n=a5 v=0
79872 On ch=1 n=c6 v=49
79898 Par ch=1 c=64 v=63
79934 Par ch=1 c=64 v=0
80106 On ch=1 n=c6 v=0
80118 On ch=1 n=d6 v=72
80136 On ch=1 n=a#5 v=64
80180 Par ch=1 c=64 v=63
80194 Par ch=1 c=64 v=127
80320 On ch=1 n=d6 v=0
80348 On ch=1 n=e6 v=64
80448 On ch=1 n=f6 v=76
80450 On ch=1 n=e6 v=0
80478 Par ch=1 c=64 v=63
80490 Par ch=1 c=64 v=0
80494 On ch=1 n=f6 v=0
80544 On ch=1 n=g6 v=80
80640 On ch=1 n=a6 v=82
80656 On ch=1 n=g6 v=0
80718 On ch=1 n=a#6 v=85
80758 On ch=1 n=a6 v=0
80838 On ch=1 n=c7 v=80
80846 On ch=1 n=a#6 v=0
80866 On ch=1 n=a#5 v=0
80930 On ch=1 n=d7 v=77
80936 On ch=1 n=c7 v=0
81016 On ch=1 n=c7 v=75
81050 On ch=1 n=d7 v=0
81096 On ch=1 n=a#6 v=76
81118 On ch=1 n=c7 v=0
81204 On ch=1 n=a6 v=77
81208 On ch=1 n=a#6 v=0
81296 On ch=1 n=g6 v=76
81298 On ch=1 n=a6 v=0
81328 On ch=1 n=f5 v=75
81332 On ch=1 n=a#4 v=84
81372 On ch=1 n=a#4 v=0
81378 On ch=1 n=f5 v=0
81402 On ch=1 n=g6 v=0
81406 On ch=1 n=f6 v=84
81520 On ch=1 n=f6 v=0
81520 On ch=1 n=e6 v=82
81600 On ch=1 n=e6 v=0
81616 On ch=1 n=d6 v=71
81728 On ch=1 n=d6 v=0
81736 On ch=1 n=f5 v=88
81738 On ch=1 n=a4 v=86
81762 On ch=1 n=c6 v=78
81954 On ch=1 n=c6 v=0
81988 On ch=1 n=d6 v=65
82084 On ch=1 n=e6 v=85
82096 On ch=1 n=d6 v=0
82164 On ch=1 n=f6 v=89
82178 On ch=1 n=e6 v=0
82240 On ch=1 n=f6 v=0
82270 On ch=1 n=g6 v=84
82372 On ch=1 n=a6 v=75
82382 On ch=1 n=g6 v=0
82452 On ch=1 n=a#6 v=94
82484 On ch=1 n=a6 v=0
82494 On ch=1 n=a4 v=0
82496 On ch=1 n=f5 v=0
82560 On ch=1 n=c7 v=91
82562 On ch=1 n=a#6 v=0
82656 On ch=1 n=a#6 v=83
82670 On ch=1 n=c7 v=0
82754 On ch=1 n=a6 v=77
82756 On ch=1 n=a#6 v=0
82842 On ch=1 n=a6 v=0
82852 On ch=1 n=g6 v=75
82948 On ch=1 n=g6 v=0
82978 On ch=1 n=f6 v=70
83002 On ch=1 n=a4 v=82
83002 On ch=1 n=f5 v=74
83048 On ch=1 n=f5 v=0
83048 On ch=1 n=a4 v=0
83080 On ch=1 n=e6 v=78
83098 On ch=1 n=f6 v=0
83168 On ch=1 n=e6 v=0
83180 On ch=1 n=d6 v=67
83272 On ch=1 n=c6 v=84
83282 On ch=1 n=d6 v=0
83398 On ch=1 n=c6 v=0
83402 On ch=1 n=a#5 v=92
83424 On ch=1 n=f5 v=81
83424 On ch=1 n=g4 v=76
83612 On ch=1 n=a#5 v=0
83640 On ch=1 n=c6 v=71
83738 On ch=1 n=d6 v=84
83752 On ch=1 n=c6 v=0
83830 On ch=1 n=e6 v=87
83840 On ch=1 n=d6 v=0
83858 On ch=1 n=g4 v=0
83876 On ch=1 n=f5 v=0
83914 On ch=1 n=e6 v=0
83930 On ch=1 n=f6 v=89
84034 On ch=1 n=g6 v=82
84048 On ch=1 n=f6 v=0
84114 On ch=1 n=a6 v=92
84144 On ch=1 n=g6 v=0
84218 On ch=1 n=a#6 v=100
84236 On ch=1 n=a6 v=0
84328 On ch=1 n=a6 v=84
84346 On ch=1 n=a#6 v=0
84422 On ch=1 n=g6 v=86
84452 On ch=1 n=a6 v=0
84518 On ch=1 n=g6 v=0
84522 On ch=1 n=f6 v=83
84602 On ch=1 n=e5 v=96
84604 On ch=1 n=g4 v=97
84608 On ch=1 n=f6 v=0
84614 On ch=1 n=e6 v=87
84672 On ch=1 n=e5 v=0
84678 On ch=1 n=g4 v=0
84720 On ch=1 n=d6 v=85
84730 On ch=1 n=e6 v=0
84796 On ch=1 n=d6 v=0
84808 On ch=1 n=c6 v=76
84896 On ch=1 n=a#5 v=83
84916 On ch=1 n=c6 v=0
84992 On ch=1 n=a#5 v=0
85024 On ch=1 n=a5 v=94
85040 On ch=1 n=f5 v=87
85048 On ch=1 n=f4 v=83
85182 Par ch=1 c=64 v=63
85214 Par ch=1 c=64 v=127
85252 On ch=1 n=a5 v=0
85268 On ch=1 n=a#5 v=73
85348 On ch=1 n=a#5 v=0
85356 Par ch=1 c=64 v=63
85380 On ch=1 n=c6 v=84
85388 Par ch=1 c=64 v=0
85456 On ch=1 n=d6 v=93
85470 On ch=1 n=c6 v=0
85548 On ch=1 n=e6 v=88
85554 On ch=1 n=d6 v=0
85604 On ch=1 n=e6 v=0
85644 On ch=1 n=f6 v=86
85698 On ch=1 n=f5 v=0
85744 On ch=1 n=g6 v=84
85748 On ch=1 n=f6 v=0
85788 On ch=1 n=f4 v=0
85832 On ch=1 n=a6 v=89
85850 On ch=1 n=g6 v=0
85950 On ch=1 n=g6 v=83
85952 On ch=1 n=a6 v=0
86034 On ch=1 n=g6 v=0
86038 On ch=1 n=f6 v=75
86108 On ch=1 n=f6 v=0
86136 On ch=1 n=e6 v=83
86240 On ch=1 n=d6 v=81
86242 On ch=1 n=e6 v=0
86312 On ch=1 n=d6 v=0
86328 On ch=1 n=c6 v=73
86400 On ch=1 n=c6 v=0
86408 On ch=1 n=a#5 v=71
86486 On ch=1 n=a#5 v=0
86528 On ch=1 n=a5 v=68
86642 On ch=1 n=f4 v=61
86682 On ch=1 n=a5 v=0
86682 On ch=1 n=a6 v=89
86754 Par ch=1 c=64 v=63
86778 Par ch=1 c=64 v=127
86904 On ch=1 n=g4 v=61
86956 On ch=1 n=f4 v=0
87024 On ch=1 n=a4 v=57
87072 On ch=1 n=g4 v=0
87108 On ch=1 n=a#4 v=68
87132 On ch=1 n=a4 v=0
87200 On ch=1 n=c5 v=75
87208 On ch=1 n=a#4 v=0
87284 On ch=1 n=d5 v=80
87302 On ch=1 n=c5 v=0
87402 On ch=1 n=e5 v=88
87416 On ch=1 n=d5 v=0
87476 Par ch=1 c=64 v=63
87478 On ch=1 n=f5 v=87
87484 Par ch=1 c=64 v=0
87488 On ch=1 n=e5 v=0
87578 On ch=1 n=a6 v=0
87602 On ch=1 n=f5 v=0
87602 On ch=1 n=e5 v=74
87676 On ch=1 n=d5 v=72
87704 On ch=1 n=e5 v=0
87752 On ch=1 n=d5 v=0
87786 On ch=1 n=c5 v=73
87876 On ch=1 n=c6 v=99
87878 On ch=1 n=a6 v=99
87886 On ch=1 n=c5 v=0
87888 On ch=1 n=a#4 v=100
87934 On ch=1 n=c6 v=0
87940 On ch=1 n=a6 v=0
87960 On ch=1 n=a#4 v=0
87998 On ch=1 n=a4 v=84
88090 On ch=1 n=g4 v=67
88096 On ch=1 n=a4 v=0
88166 On ch=1 n=f4 v=80
88174 On ch=1 n=g4 v=0
88296 On ch=1 n=f4 v=0
88306 On ch=1 n=e4 v=72
88310 On ch=1 n=g6 v=100
88324 On ch=1 n=c6 v=85
88442 Par ch=1 c=64 v=63
88470 Par ch=1 c=64 v=127
88560 On ch=1 n=f4 v=86
88598 Par ch=1 c=64 v=63
88606 On ch=1 n=e4 v=0
88632 Par ch=1 c=64 v=0
88648 On ch=1 n=g4 v=85
88676 On ch=1 n=f4 v=0
88736 On ch=1 n=a4 v=79
88748 On ch=1 n=g4 v=0
88850 On ch=1 n=b4 v=85
88862 On ch=1 n=a4 v=0
88872 Par ch=1 c=64 v=63
88966 Par ch=1 c=64 v=0
88970 On ch=1 n=c5 v=80
88998 On ch=1 n=c6 v=0
89006 On ch=1 n=b4 v=0
89052 On ch=1 n=g6 v=0
89052 On ch=1 n=d5 v=93
89068 On ch=1 n=c5 v=0
89140 On ch=1 n=e5 v=93
89144 On ch=1 n=d5 v=0
89248 On ch=1 n=d5 v=80
89252 On ch=1 n=e5 v=0
89330 On ch=1 n=c5 v=85
89360 On ch=1 n=d5 v=0
89426 On ch=1 n=b4 v=92
89464 On ch=1 n=c5 v=0
89506 On ch=1 n=b4 v=0
89522 On ch=1 n=g6 v=99
89524 On ch=1 n=a4 v=94
89524 On ch=1 n=c6 v=103
89590 On ch=1 n=g6 v=0
89592 On ch=1 n=c6 v=0
89628 On ch=1 n=a4 v=0
89628 On ch=1 n=g4 v=88
89714 On ch=1 n=f4 v=84
89726 On ch=1 n=g4 v=0
89800 On ch=1 n=e4 v=94
89816 On ch=1 n=f4 v=0
89920 On ch=1 n=d4 v=101
89924 On ch=1 n=e4 v=0
89944 On ch=1 n=f6 v=111
89952 On ch=1 n=c6 v=98
90004 Par ch=1 c=64 v=63
90088 Par ch=1 c=64 v=127
90166 On ch=1 n=e4 v=90
90222 On ch=1 n=d4 v=0
90274 On ch=1 n=f4 v=88
90336 On ch=1 n=e4 v=0
90346 Par ch=1 c=64 v=63
90352 On ch=1 n=g4 v=85
90392 On ch=1 n=f4 v=0
90448 On ch=1 n=a4 v=84
90452 Par ch=1 c=64 v=0
90460 On ch=1 n=g4 v=0
90540 On ch=1 n=b4 v=96
90566 On ch=1 n=a4 v=0
90652 On ch=1 n=c6 v=0
90652 On ch=1 n=c5 v=102
90672 On ch=1 n=b4 v=0
90690 On ch=1 n=f6 v=0
90742 On ch=1 n=d5 v=99
90748 On ch=1 n=c5 v=0
90850 On ch=1 n=c5 v=89
90856 On ch=1 n=d5 v=0
90918 On ch=1 n=b4 v=81
90958 On ch=1 n=c5 v=0
91022 On ch=1 n=a4 v=90
91064 On ch=1 n=b4 v=0
91120 On ch=1 n=a4 v=0
91122 On ch=1 n=f6 v=114
91126 On ch=1 n=b5 v=111
91130 On ch=1 n=g4 v=96
91182 On ch=1 n=b5 v=0
91192 On ch=1 n=f6 v=0
91244 On ch=1 n=g4 v=0
91244 On ch=1 n=f4 v=98
91330 On ch=1 n=e4 v=87
91346 On ch=1 n=f4 v=0
91402 On ch=1 n=d4 v=106
91440 On ch=1 n=e4 v=0
91534 On ch=1 n=c4 v=104
91540 On ch=1 n=e6 v=116
91544 On ch=1 n=c6 v=113
91548 On ch=1 n=d4 v=0
91668 Par ch=1 c=64 v=63
91710 Par ch=1 c=64 v=127
91782 On ch=1 n=d4 v=96
91838 On ch=1 n=c4 v=0
91868 Par ch=1 c=64 v=63
91872 On ch=1 n=e4 v=94
91910 Par ch=1 c=64 v=0
91932 On ch=1 n=d4 v=0
91976 On ch=1 n=f4 v=99
92010 On ch=1 n=e4 v=0
92080 On ch=1 n=g4 v=89
92094 On ch=1 n=f4 v=0
92162 On ch=1 n=a4 v=99
92188 On ch=1 n=g4 v=0
92230 Par ch=1 c=64 v=63
92250 Par ch=1 c=64 v=127
92278 On ch=1 n=b4 v=98
92304 On ch=1 n=a4 v=0
92306 On ch=1 n=c6 v=0
92322 On ch=1 n=e6 v=0
92354 On ch=1 n=c5 v=99
92374 On ch=1 n=b4 v=0
92462 Par ch=1 c=64 v=63
92468 On ch=1 n=b4 v=86
92474 On ch=1 n=c5 v=0
92490 Par ch=1 c=64 v=0
92554 On ch=1 n=a4 v=89
92594 On ch=1 n=b4 v=0
92636 On ch=1 n=a4 v=0
92652 On ch=1 n=g4 v=96
92754 On ch=1 n=c6 v=112
92754 On ch=1 n=f4 v=98
92756 On ch=1 n=g4 v=0
92758 On ch=1 n=e6 v=112
92814 On ch=1 n=c6 v=0
92834 On ch=1 n=e6 v=0
92848 On ch=1 n=e4 v=88
92862 On ch=1 n=f4 v=0
92944 On ch=1 n=d4 v=100
92978 On ch=1 n=e4 v=0
93040 On ch=1 n=c4 v=99
93096 On ch=1 n=d4 v=0
93152 On ch=1 n=a4 v=112
93160 On ch=1 n=f4 v=109
93170 On ch=1 n=d6 v=116
93198 On ch=1 n=c4 v=0
93252 On ch=1 n=d6 v=0
93294 On ch=1 n=d5 v=94
93402 On ch=1 n=e5 v=94
93420 On ch=1 n=d5 v=0
93476 On ch=1 n=f5 v=96
93498 On ch=1 n=e5 v=0
93548 On ch=1 n=f5 v=0
93574 On ch=1 n=g5 v=94
93666 On ch=1 n=a5 v=98
93694 On ch=1 n=g5 v=0
93760 On ch=1 n=b5 v=86
93802 On ch=1 n=a5 v=0
93860 On ch=1 n=c#6 v=99
93902 On ch=1 n=b5 v=0
93964 On ch=1 n=d6 v=94
93992 On ch=1 n=c#6 v=0
94064 On ch=1 n=a5 v=83
94066 On ch=1 n=d6 v=0
94150 On ch=1 n=b5 v=90
94174 On ch=1 n=a5 v=0
94236 On ch=1 n=c#6 v=107
94260 On ch=1 n=b5 v=0
94318 On ch=1 n=c#6 v=0
94336 On ch=1 n=d6 v=104
94410 On ch=1 n=f4 v=0
94422 On ch=1 n=a4 v=0
94446 On ch=1 n=e6 v=94
94450 On ch=1 n=d6 v=0
94530 On ch=1 n=f6 v=112
94556 On ch=1 n=e6 v=0
94616 On ch=1 n=f6 v=0
94628 On ch=1 n=g6 v=102
94744 On ch=1 n=g6 v=0
94744 On ch=1 n=f4 v=126
94748 On ch=1 n=a6 v=109
94830 Par ch=1 c=64 v=63
94836 Par ch=1 c=64 v=127
94836 On ch=1 n=b6 v=102
94880 On ch=1 n=a6 v=0
94948 On ch=1 n=c7 v=101
94956 On ch=1 n=b6 v=0
95042 On ch=1 n=b6 v=100
95088 On ch=1 n=c7 v=0
95108 Par ch=1 c=64 v=63
95118 Par ch=1 c=64 v=0
95138 On ch=1 n=a6 v=103
95190 On ch=1 n=b6 v=0
95244 On ch=1 n=g6 v=94
95246 On ch=1 n=a6 v=0
95266 On ch=1 n=f4 v=0
95336 On ch=1 n=g6 v=0
95352 On ch=1 n=f6 v=92
95360 On ch=1 n=g4 v=112
95436 On ch=1 n=g4 v=0
95450 On ch=1 n=e6 v=98
95462 On ch=1 n=f6 v=0
95568 On ch=1 n=f6 v=103
95580 On ch=1 n=a4 v=120
95596 On ch=1 n=e6 v=0
95612 Par ch=1 c=64 v=63
95616 Par ch=1 c=64 v=127
95662 On ch=1 n=a4 v=0
95684 On ch=1 n=g6 v=92
95740 On ch=1 n=f6 v=0
95778 On ch=1 n=a6 v=93
95816 On ch=1 n=g6 v=0
95886 On ch=1 n=g6 v=84
95952 On ch=1 n=a6 v=0
95982 On ch=1 n=f6 v=96
96020 Par ch=1 c=64 v=63
96026 Par ch=1 c=64 v=0
96036 On ch=1 n=g6 v=0
96076 On ch=1 n=e6 v=94
96122 On ch=1 n=f6 v=0
96172 On ch=1 n=d6 v=88
96174 On ch=1 n=f#4 v=120
96182 On ch=1 n=e6 v=0
96234 On ch=1 n=f#4 v=0
96250 On ch=1 n=d6 v=0
96270 On ch=1 n=c6 v=98
96376 On ch=1 n=c6 v=0
96410 On ch=1 n=b5 v=102
96422 On ch=1 n=g3 v=116
96426 Par ch=1 c=64 v=63
96428 Par ch=1 c=64 v=127
96530 On ch=1 n=b3 v=99
96562 On ch=1 n=g3 v=0
96606 On ch=1 n=b5 v=0
96616 Par ch=1 c=64 v=63
96622 Par ch=1 c=64 v=0
96640 On ch=1 n=g6 v=102
96644 On ch=1 n=d4 v=97
96668 On ch=1 n=b3 v=0
96746 On ch=1 n=g4 v=71
96756 On ch=1 n=d4 v=0
96780 On ch=1 n=g6 v=0
96834 On ch=1 n=g4 v=0
96848 On ch=1 n=g3 v=101
96854 On ch=1 n=e6 v=116
96866 Par ch=1 c=64 v=63
96868 Par ch=1 c=64 v=127
96938 On ch=1 n=c4 v=93
96976 On ch=1 n=g3 v=0
97054 On ch=1 n=e6 v=0
97056 On ch=1 n=e4 v=87
97056 On ch=1 n=c6 v=100
97058 Par ch=1 c=64 v=63
97066 Par ch=1 c=64 v=0
97082 On ch=1 n=c4 v=0
97116 On ch=1 n=g4 v=87
97164 On ch=1 n=e4 v=0
97190 On ch=1 n=c6 v=0
97234 On ch=1 n=g4 v=0
97252 On ch=1 n=d6 v=118
97258 Par ch=1 c=64 v=63
97260 On ch=1 n=g3 v=109
97262 Par ch=1 c=64 v=127
97354 On ch=1 n=b3 v=99
97402 On ch=1 n=g3 v=0
97450 On ch=1 n=d6 v=0
97454 On ch=1 n=g6 v=106
97464 On ch=1 n=d4 v=100
97478 Par ch=1 c=64 v=63
97490 Par ch=1 c=64 v=0
97508 On ch=1 n=b3 v=0
97564 On ch=1 n=g4 v=86
97588 On ch=1 n=g6 v=0
97606 On ch=1 n=d4 v=0
97668 Par ch=1 c=64 v=63
97670 Par ch=1 c=64 v=127
97672 On ch=1 n=e6 v=117
97674 On ch=1 n=g4 v=0
97676 On ch=1 n=g3 v=104
97784 On ch=1 n=c4 v=97
97818 On ch=1 n=g3 v=0
97828 Par ch=1 c=64 v=63
97832 On ch=1 n=e6 v=0
97834 Par ch=1 c=64 v=0
97884 On ch=1 n=c6 v=102
97888 On ch=1 n=e4 v=100
97916 On ch=1 n=c4 v=0
97972 On ch=1 n=g4 v=88
97990 On ch=1 n=c6 v=0
98008 On ch=1 n=e4 v=0
98078 Par ch=1 c=64 v=63
98080 Par ch=1 c=64 v=127
98090 On ch=1 n=g4 v=0
98092 On ch=1 n=d6 v=122
98102 On ch=1 n=g3 v=121
98162 Par ch=1 c=64 v=63
98164 On ch=1 n=d6 v=0
98170 Par ch=1 c=64 v=0
98196 On ch=1 n=g3 v=0
98542 On ch=1 n=g6 v=117
98542 On ch=1 n=d6 v=121
98544 On ch=1 n=b5 v=121
98546 On ch=1 n=g4 v=112
98604 On ch=1 n=b5 v=0
98608 On ch=1 n=d6 v=0
98614 On ch=1 n=g6 v=0
98690 On ch=1 n=g4 v=0
99024 On ch=1 n=g5 v=121
99026 On ch=1 n=g3 v=124
99028 Par ch=1 c=64 v=63
99030 Par ch=1 c=64 v=127
99096 On ch=1 n=g5 v=0
99128 On ch=1 n=g3 v=0
99452 Par ch=1 c=64 v=63
99462 Par ch=1 c=64 v=0
99996 On ch=1 n=f#5 v=120
100018 Par ch=1 c=64 v=63
100022 Par ch=1 c=64 v=127
100174 On ch=1 n=g5 v=76
100184 On ch=1 n=f#5 v=0
100296 On ch=1 n=f#5 v=100
100316 On ch=1 n=g5 v=0
100384 On ch=1 n=f#5 v=0
100398 On ch=1 n=g5 v=76
100504 On ch=1 n=f#5 v=88
100518 On ch=1 n=g5 v=0
100576 On ch=1 n=f#5 v=0
100580 On ch=1 n=g5 v=79
100692 On ch=1 n=f#5 v=94
100704 On ch=1 n=g5 v=0
100786 On ch=1 n=g5 v=71
100790 On ch=1 n=f#5 v=0
100910 On ch=1 n=f5 v=84
100916 On ch=1 n=g5 v=0
101004 On ch=1 n=g5 v=68
101016 On ch=1 n=f5 v=0
101126 On ch=1 n=g5 v=0
101134 On ch=1 n=f5 v=66
101214 On ch=1 n=g5 v=61
101230 On ch=1 n=f5 v=0
101340 On ch=1 n=g5 v=0
101350 On ch=1 n=f5 v=56
101430 On ch=1 n=g5 v=59
101442 On ch=1 n=f5 v=0
101568 On ch=1 n=g5 v=0
101580 On ch=1 n=f5 v=51
101664 On ch=1 n=g5 v=59
101690 On ch=1 n=f5 v=0
101836 On ch=1 n=g5 v=0
101840 On ch=1 n=g6 v=73
101842 Par ch=1 c=64 v=63
101848 On ch=1 n=e5 v=51
101902 Par ch=1 c=64 v=127
101994 On ch=1 n=g5 v=49
102034 On ch=1 n=e5 v=0
102134 On ch=1 n=e6 v=77
102146 On ch=1 n=e5 v=51
102148 On ch=1 n=g5 v=0
102164 On ch=1 n=g6 v=0
102244 On ch=1 n=g5 v=49
102264 On ch=1 n=e5 v=0
102364 On ch=1 n=c6 v=94
102368 On ch=1 n=g5 v=0
102372 On ch=1 n=e5 v=51
102396 On ch=1 n=e6 v=0
102478 On ch=1 n=g5 v=59
102482 On ch=1 n=e5 v=0
102598 On ch=1 n=g5 v=0
102600 On ch=1 n=e5 v=64
102700 On ch=1 n=g5 v=71
102708 On ch=1 n=e5 v=0
102810 On ch=1 n=e5 v=79
102826 On ch=1 n=g5 v=0
102912 On ch=1 n=c6 v=0
102918 On ch=1 n=g5 v=61
102924 On ch=1 n=e5 v=0
103016 On ch=1 n=d6 v=90
103034 On ch=1 n=g5 v=0
103034 On ch=1 n=e5 v=63
103096 On ch=1 n=e6 v=89
103110 On ch=1 n=d6 v=0
103122 On ch=1 n=g5 v=51
103124 On ch=1 n=e5 v=0
103202 On ch=1 n=d6 v=91
103228 On ch=1 n=e6 v=0
103236 On ch=1 n=g5 v=0
103238 On ch=1 n=e5 v=60
103310 On ch=1 n=g5 v=62
103312 On ch=1 n=e5 v=0
103422 On ch=1 n=e5 v=67
103426 On ch=1 n=g5 v=0
103426 On ch=1 n=c6 v=97
103428 On ch=1 n=d6 v=0
103510 On ch=1 n=g5 v=52
103524 On ch=1 n=c6 v=0
103530 On ch=1 n=e5 v=0
103620 On ch=1 n=g5 v=0
103650 On ch=1 n=f5 v=41
103678 On ch=1 n=c6 v=102
103722 On ch=1 n=g5 v=50
103728 On ch=1 n=f5 v=0
103740 On ch=1 n=d6 v=79
103756 On ch=1 n=c6 v=0
103780 On ch=1 n=d6 v=0
103814 On ch=1 n=g5 v=0
103822 On ch=1 n=c6 v=81
103830 On ch=1 n=e5 v=63
103846 On ch=1 n=d6 v=91
103866 On ch=1 n=c6 v=0
103916 On ch=1 n=d6 v=0
103916 On ch=1 n=e5 v=0
103924 On ch=1 n=c6 v=84
103926 On ch=1 n=g5 v=57
103996 On ch=1 n=b5 v=91
104004 On ch=1 n=c6 v=0
104064 On ch=1 n=g5 v=0
104068 On ch=1 n=b5 v=0
104110 On ch=1 n=d5 v=70
104112 On ch=1 n=b5 v=101
104126 Par ch=1 c=64 v=63
104148 Par ch=1 c=64 v=0
104230 On ch=1 n=g5 v=43
104234 On ch=1 n=d5 v=0
104344 On ch=1 n=e5 v=55
104352 On ch=1 n=g5 v=0
104432 On ch=1 n=g5 v=58
104446 On ch=1 n=e5 v=0
104536 Par ch=1 c=64 v=63
104554 Par ch=1 c=64 v=127
104562 On ch=1 n=g5 v=0
104566 On ch=1 n=f5 v=63
104660 On ch=1 n=g5 v=50
104670 On ch=1 n=f5 v=0
104686 On ch=1 n=b5 v=0
104778 On ch=1 n=g5 v=0
104782 On ch=1 n=e5 v=60
104880 On ch=1 n=e5 v=0
104880 On ch=1 n=g5 v=68
105004 On ch=1 n=g5 v=0
105010 On ch=1 n=f5 v=63
105042 Par ch=1 c=64 v=63
105058 Par ch=1 c=64 v=0
105090 On ch=1 n=g5 v=59
105096 On ch=1 n=f5 v=0
105198 On ch=1 n=d5 v=63
105204 On ch=1 n=g5 v=0
105296 On ch=1 n=d5 v=0
105296 On ch=1 n=g5 v=47
105414 On ch=1 n=g6 v=93
105434 On ch=1 n=g5 v=0
105452 Par ch=1 c=64 v=63
105458 On ch=1 n=e5 v=41
105464 Par ch=1 c=64 v=127
105542 On ch=1 n=g5 v=50
105562 On ch=1 n=e5 v=0
105664 On ch=1 n=e6 v=88
105672 On ch=1 n=e5 v=51
105674 On ch=1 n=g5 v=0
105702 On ch=1 n=g6 v=0
105776 On ch=1 n=g5 v=46
105790 On ch=1 n=e5 v=0
105884 On ch=1 n=c6 v=91
105906 On ch=1 n=g5 v=0
105906 On ch=1 n=e5 v=52
105960 On ch=1 n=e6 v=0
105984 Par ch=1 c=64 v=63
105996 On ch=1 n=g5 v=56
106016 On ch=1 n=e5 v=0
106066 Par ch=1 c=64 v=127
106128 On ch=1 n=e5 v=59
106132 On ch=1 n=g5 v=0
106234 On ch=1 n=g5 v=63
106240 On ch=1 n=e5 v=0
106344 On ch=1 n=e5 v=69
106360 On ch=1 n=g5 v=0
106444 On ch=1 n=c6 v=0
106444 On ch=1 n=g5 v=56
106450 On ch=1 n=e5 v=0
106548 On ch=1 n=d6 v=87
106556 On ch=1 n=e5 v=57
106558 On ch=1 n=g5 v=0
106638 On ch=1 n=g5 v=56
106642 On ch=1 n=e5 v=0
106642 On ch=1 n=e6 v=93
106658 On ch=1 n=d6 v=0
106752 On ch=1 n=d6 v=84
106754 On ch=1 n=e5 v=57
106756 On ch=1 n=g5 v=0
106760 Par ch=1 c=64 v=63
106780 On ch=1 n=e6 v=0
106804 Par ch=1 c=64 v=127
106834 On ch=1 n=e5 v=0
106838 On ch=1 n=g5 v=54
106954 On ch=1 n=g5 v=0
106956 On ch=1 n=e5 v=59
106962 On ch=1 n=d6 v=0
106966 On ch=1 n=c6 v=92
107050 On ch=1 n=g5 v=52
107058 On ch=1 n=c6 v=0
107058 On ch=1 n=e5 v=0
107110 Par ch=1 c=64 v=63
107128 Par ch=1 c=64 v=0
107160 Par ch=1 c=64 v=63
107162 On ch=1 n=g5 v=0
107186 On ch=1 n=f5 v=48
107194 On ch=1 n=c6 v=93
107204 Par ch=1 c=64 v=127
107250 On ch=1 n=d6 v=84
107258 On ch=1 n=g5 v=52
107264 On ch=1 n=f5 v=0
107266 On ch=1 n=c6 v=0
107296 On ch=1 n=d6 v=0
107346 On ch=1 n=c6 v=87
107366 On ch=1 n=d6 v=82
107376 On ch=1 n=g5 v=0
107382 On ch=1 n=e5 v=48
107438 On ch=1 n=d6 v=0
107458 On ch=1 n=g5 v=54
107464 On ch=1 n=e5 v=0
107494 On ch=1 n=b5 v=93
107506 On ch=1 n=c6 v=0
107560 On ch=1 n=b5 v=0
107586 Par ch=1 c=64 v=63
107606 On ch=1 n=g5 v=0
107606 Par ch=1 c=64 v=0
107608 On ch=1 n=b5 v=90
107640 On ch=1 n=d5 v=58
107738 On ch=1 n=d5 v=0
107740 On ch=1 n=g5 v=47
107856 On ch=1 n=e5 v=61
107866 On ch=1 n=g5 v=0
107942 On ch=1 n=g5 v=59
107956 On ch=1 n=e5 v=0
107964 Par ch=1 c=64 v=63
107982 Par ch=1 c=64 v=127
108070 On ch=1 n=g5 v=0
108076 On ch=1 n=f5 v=54
108142 On ch=1 n=b5 v=0
108160 On ch=1 n=g5 v=53
108172 On ch=1 n=f5 v=0
108288 On ch=1 n=g5 v=0
108288 On ch=1 n=e5 v=55
108384 On ch=1 n=e5 v=0
108386 On ch=1 n=g5 v=63
108512 On ch=1 n=g5 v=0
108516 On ch=1 n=f5 v=55
108576 Par ch=1 c=64 v=63
108592 On ch=1 n=f5 v=0
108594 On ch=1 n=g5 v=54
108598 Par ch=1 c=64 v=0
108680 Par ch=1 c=64 v=63
108710 On ch=1 n=g5 v=0
108710 On ch=1 n=d5 v=59
108716 Par ch=1 c=64 v=127
108796 Par ch=1 c=64 v=63
108798 On ch=1 n=d5 v=0
108808 On ch=1 n=g5 v=68
108812 Par ch=1 c=64 v=0
108886 Par ch=1 c=64 v=63
108890 On ch=1 n=g5 v=0
108910 Par ch=1 c=64 v=127
108944 On ch=1 n=g6 v=88
109078 On ch=1 n=e4 v=70
109196 On ch=1 n=g4 v=64
109304 On ch=1 n=c5 v=94
109356 On ch=1 n=g6 v=0
109410 On ch=1 n=e5 v=84
109494 On ch=1 n=c5 v=0
109498 On ch=1 n=g4 v=0
109502 On ch=1 n=g6 v=99
109552 On ch=1 n=e4 v=0
109608 On ch=1 n=e6 v=104
109632 On ch=1 n=e5 v=0
109642 On ch=1 n=g6 v=0
109722 On ch=1 n=c6 v=104
109768 On ch=1 n=e6 v=0
109834 On ch=1 n=a5 v=96
109920 On ch=1 n=c6 v=0
109952 On ch=1 n=f4 v=71
110048 Par ch=1 c=64 v=63
110058 On ch=1 n=a4 v=74
110074 Par ch=1 c=64 v=0
110154 Par ch=1 c=64 v=63
110186 On ch=1 n=c5 v=96
110192 Par ch=1 c=64 v=127
110236 On ch=1 n=a5 v=0
110286 On ch=1 n=f5 v=99
110310 On ch=1 n=a4 v=0
110378 On ch=1 n=c5 v=0
110392 On ch=1 n=a5 v=94
110448 On ch=1 n=f4 v=0
110460 On ch=1 n=f5 v=0
110496 On ch=1 n=c6 v=108
110520 On ch=1 n=a5 v=0
110580 On ch=1 n=a5 v=96
110626 On ch=1 n=c6 v=0
110710 On ch=1 n=f6 v=113
110754 On ch=1 n=a5 v=0
110796 Par ch=1 c=64 v=63
110812 On ch=1 n=d4 v=91
110820 Par ch=1 c=64 v=0
110928 On ch=1 n=f4 v=91
110960 Par ch=1 c=64 v=63
110980 Par ch=1 c=64 v=127
111042 On ch=1 n=b4 v=100
111090 On ch=1 n=d4 v=0
111126 On ch=1 n=f6 v=0
111150 On ch=1 n=d5 v=98
111224 On ch=1 n=f4 v=0
111234 On ch=1 n=b4 v=0
111256 On ch=1 n=f6 v=93
111298 On ch=1 n=d5 v=0
111340 On ch=1 n=d6 v=102
111372 On ch=1 n=f6 v=0
111450 On ch=1 n=b5 v=101
111474 On ch=1 n=d6 v=0
111496 Par ch=1 c=64 v=63
111534 Par ch=1 c=64 v=0
111552 On ch=1 n=g5 v=101
111584 Par ch=1 c=64 v=63
111602 On ch=1 n=b5 v=0
111632 Par ch=1 c=64 v=127
111676 On ch=1 n=e4 v=90
111778 On ch=1 n=g4 v=91
111780 On ch=1 n=g5 v=0
111898 On ch=1 n=b4 v=102
112000 On ch=1 n=e5 v=107
112040 On ch=1 n=g4 v=0
112076 On ch=1 n=b4 v=0
112080 Par ch=1 c=64 v=63
112120 On ch=1 n=g6 v=102
112142 On ch=1 n=e4 v=0
112190 Par ch=1 c=64 v=127
112234 On ch=1 n=b6 v=109
112236 On ch=1 n=e5 v=0
112270 On ch=1 n=g6 v=0
112328 On ch=1 n=g6 v=106
112376 On ch=1 n=b6 v=0
112458 On ch=1 n=e7 v=116
112498 On ch=1 n=g6 v=0
112558 Par ch=1 c=64 v=63
112586 Par ch=1 c=64 v=0
112588 On ch=1 n=c5 v=91
112694 Par ch=1 c=64 v=63
112698 On ch=1 n=e5 v=89
112716 Par ch=1 c=64 v=127
112804 On ch=1 n=a5 v=92
112886 On ch=1 n=e7 v=0
112898 On ch=1 n=c6 v=99
112924 On ch=1 n=c5 v=0
112964 On ch=1 n=a5 v=0
112964 On ch=1 n=e5 v=0
113012 On ch=1 n=e7 v=98
113026 On ch=1 n=c6 v=0
113096 On ch=1 n=c7 v=103
113120 On ch=1 n=e7 v=0
113206 On ch=1 n=a6 v=103
113230 On ch=1 n=c7 v=0
113308 On ch=1 n=f6 v=102
113346 On ch=1 n=a6 v=0
113418 On ch=1 n=d5 v=84
113428 Par ch=1 c=64 v=63
113448 Par ch=1 c=64 v=0
113522 On ch=1 n=f5 v=86
113578 Par ch=1 c=64 v=63
113604 Par ch=1 c=64 v=127
113638 On ch=1 n=f6 v=0
113648 On ch=1 n=a5 v=84
113728 On ch=1 n=d6 v=87
113756 On ch=1 n=f5 v=0
113818 On ch=1 n=a5 v=0
113824 On ch=1 n=f6 v=100
113876 On ch=1 n=d6 v=0
113902 On ch=1 n=d5 v=0
113934 On ch=1 n=a6 v=106
113946 On ch=1 n=f6 v=0
114032 On ch=1 n=f6 v=104
114048 On ch=1 n=a6 v=0
114158 On ch=1 n=d7 v=111
114208 On ch=1 n=f6 v=0
114212 Par ch=1 c=64 v=63
114236 Par ch=1 c=64 v=0
114270 On ch=1 n=b4 v=86
114360 Par ch=1 c=64 v=63
114370 On ch=1 n=d5 v=85
114386 Par ch=1 c=64 v=127
114484 On ch=1 n=g5 v=89
114534 On ch=1 n=b4 v=0
114546 On ch=1 n=d7 v=0
114592 On ch=1 n=b5 v=92
114614 On ch=1 n=d5 v=0
114640 On ch=1 n=g5 v=0
114684 On ch=1 n=d7 v=106
114696 On ch=1 n=b5 v=0
114790 On ch=1 n=b6 v=89
114802 On ch=1 n=d7 v=0
114806 Par ch=1 c=64 v=63
114824 Par ch=1 c=64 v=0
114886 On ch=1 n=f6 v=94
114898 On ch=1 n=b6 v=0
115010 On ch=1 n=e6 v=103
115024 On ch=1 n=f6 v=0
115112 Par ch=1 c=64 v=63
115116 Par ch=1 c=64 v=127
115156 On ch=1 n=c5 v=83
115268 On ch=1 n=e5 v=75
115356 On ch=1 n=e6 v=0
115368 On ch=1 n=g5 v=80
115456 On ch=1 n=e5 v=0
115456 On ch=1 n=c6 v=98
115496 Par ch=1 c=64 v=63
115504 Par ch=1 c=64 v=0
115514 On ch=1 n=g5 v=0
115566 On ch=1 n=c7 v=93
115584 On ch=1 n=c6 v=0
115602 On ch=1 n=c5 v=0
115668 On ch=1 n=g6 v=91
115680 On ch=1 n=c7 v=0
115760 On ch=1 n=g6 v=0
115774 On ch=1 n=e6 v=80
115846 On ch=1 n=e6 v=0
115890 On ch=1 n=d6 v=94
116118 On ch=1 n=a5 v=79
116124 On ch=1 n=f5 v=76
116180 On ch=1 n=f5 v=0
116200 On ch=1 n=a5 v=0
116366 On ch=1 n=a5 v=67
116370 On ch=1 n=f5 v=73
116430 On ch=1 n=f5 v=0
116430 On ch=1 n=a5 v=0
116600 On ch=1 n=a5 v=64
116602 On ch=1 n=f5 v=77
116660 On ch=1 n=f5 v=0
116672 On ch=1 n=a5 v=0
116690 On ch=1 n=d6 v=0
116790 On ch=1 n=c#6 v=87
116818 On ch=1 n=a5 v=63
116824 On ch=1 n=f5 v=67
116840 On ch=1 n=d6 v=98
116876 On ch=1 n=c#6 v=0
116886 On ch=1 n=a5 v=0
116888 On ch=1 n=f5 v=0
116916 On ch=1 n=d6 v=0
117062 On ch=1 n=a5 v=79
117064 On ch=1 n=f5 v=85
117120 On ch=1 n=f5 v=0
117130 On ch=1 n=a5 v=0
117256 On ch=1 n=c#6 v=100
117284 On ch=1 n=f5 v=88
117286 On ch=1 n=a5 v=83
117290 On ch=1 n=d6 v=106
117338 On ch=1 n=c#6 v=0
117344 On ch=1 n=a5 v=0
117354 On ch=1 n=f5 v=0
117372 On ch=1 n=d6 v=0
117506 On ch=1 n=a5 v=92
117508 On ch=1 n=f5 v=99
117570 On ch=1 n=a5 v=0
117572 On ch=1 n=f5 v=0
117732 On ch=1 n=a6 v=117
117832 Par ch=1 c=64 v=63
117848 Par ch=1 c=64 v=127
117970 On ch=1 n=f#4 v=75
117976 On ch=1 n=d#5 v=74
117990 On ch=1 n=c5 v=76
118086 On ch=1 n=d#5 v=0
118102 On ch=1 n=c5 v=0
118116 On ch=1 n=f#4 v=0
118190 On ch=1 n=a6 v=0
118196 On ch=1 n=d#5 v=87
118202 On ch=1 n=f#4 v=59
118206 On ch=1 n=c5 v=80
118294 On ch=1 n=c5 v=0
118294 On ch=1 n=d#5 v=0
118308 On ch=1 n=f#4 v=0
118396 On ch=1 n=d#5 v=92
118402 On ch=1 n=f#4 v=74
118406 On ch=1 n=c5 v=93
118496 On ch=1 n=c5 v=0
118498 On ch=1 n=d#5 v=0
118500 On ch=1 n=f#4 v=0
118610 On ch=1 n=g#6 v=104
118644 On ch=1 n=d#5 v=100
118646 On ch=1 n=c5 v=100
118648 On ch=1 n=f#4 v=93
118654 On ch=1 n=a6 v=109
118702 On ch=1 n=g#6 v=0
118704 On ch=1 n=f#4 v=0
118706 On ch=1 n=d#5 v=0
118708 Par ch=1 c=64 v=63
118710 On ch=1 n=c5 v=0
118720 Par ch=1 c=64 v=0
118730 On ch=1 n=a6 v=0
118846 On ch=1 n=f#4 v=105
118848 On ch=1 n=d#5 v=105
118850 On ch=1 n=c5 v=104
118908 On ch=1 n=c5 v=0
118908 On ch=1 n=d#5 v=0
118928 On ch=1 n=f#4 v=0
119070 On ch=1 n=g#6 v=109
119082 Par ch=1 c=64 v=63
119084 Par ch=1 c=64 v=127
119090 On ch=1 n=a6 v=111
119092 On ch=1 n=c5 v=98
119096 On ch=1 n=f#4 v=88
119098 On ch=1 n=d#5 v=91
119138 On ch=1 n=d#5 v=0
119142 On ch=1 n=g#6 v=0
119150 On ch=1 n=c5 v=0
119162 On ch=1 n=f#4 v=0
119164 On ch=1 n=a6 v=0
119270 On ch=1 n=f#4 v=101
119274 On ch=1 n=d#5 v=101
119282 On ch=1 n=c5 v=94
119286 Par ch=1 c=64 v=63
119292 Par ch=1 c=64 v=0
119360 On ch=1 n=c5 v=0
119366 On ch=1 n=f#4 v=0
119382 On ch=1 n=d#5 v=0
119480 On ch=1 n=g4 v=101
119488 Par ch=1 c=64 v=63
119492 Par ch=1 c=64 v=127
119504 On ch=1 n=g6 v=111
119610 On ch=1 n=e5 v=79
119716 On ch=1 n=g6 v=0
119732 On ch=1 n=e5 v=0
119734 On ch=1 n=c5 v=81
119758 On ch=1 n=g4 v=0
119758 On ch=1 n=a6 v=97
119838 On ch=1 n=b6 v=103
119838 On ch=1 n=e5 v=69
119842 On ch=1 n=c5 v=0
119894 On ch=1 n=a6 v=0
119918 On ch=1 n=b6 v=0
119934 On ch=1 n=c7 v=108
119938 On ch=1 n=g4 v=90
119946 On ch=1 n=e5 v=0
120034 On ch=1 n=e5 v=66
120036 On ch=1 n=d7 v=108
120054 On ch=1 n=c7 v=0
120132 On ch=1 n=e7 v=114
120148 On ch=1 n=c5 v=76
120150 On ch=1 n=e5 v=0
120162 On ch=1 n=d7 v=0
120184 On ch=1 n=g4 v=0
120226 On ch=1 n=e5 v=82
120238 On ch=1 n=d7 v=109
120240 On ch=1 n=c5 v=0
120274 On ch=1 n=e7 v=0
120324 On ch=1 n=c7 v=104
120336 On ch=1 n=d7 v=0
120340 On ch=1 n=e5 v=0
120344 On ch=1 n=g4 v=91
120418 On ch=1 n=e5 v=63
120422 On ch=1 n=c7 v=0
120428 On ch=1 n=b6 v=94
120522 On ch=1 n=a6 v=101
120546 On ch=1 n=e5 v=0
120548 On ch=1 n=c5 v=77
120552 On ch=1 n=g4 v=0
120564 On ch=1 n=b6 v=0
120612 On ch=1 n=g6 v=97
120614 On ch=1 n=e5 v=81
120620 On ch=1 n=a6 v=0
120642 On ch=1 n=c5 v=0
120726 On ch=1 n=g4 v=84
120730 On ch=1 n=e5 v=0
120732 On ch=1 n=f6 v=91
120784 On ch=1 n=g6 v=0
120804 On ch=1 n=e5 v=66
120812 On ch=1 n=e6 v=97
120850 On ch=1 n=g4 v=0
120866 On ch=1 n=f6 v=0
120908 On ch=1 n=d6 v=92
120916 On ch=1 n=e5 v=0
120932 On ch=1 n=c5 v=60
120938 On ch=1 n=e6 v=0
120994 On ch=1 n=c6 v=101
120996 On ch=1 n=e5 v=68
121004 On ch=1 n=c5 v=0
121006 On ch=1 n=d6 v=0
121124 On ch=1 n=d6 v=106
121132 On ch=1 n=e5 v=0
121144 On ch=1 n=g4 v=69
121168 On ch=1 n=c6 v=0
121172 Par ch=1 c=64 v=63
121248 Par ch=1 c=64 v=127
121320 On ch=1 n=f5 v=65
121342 On ch=1 n=d6 v=0
121344 On ch=1 n=e6 v=88
121424 On ch=1 n=e6 v=0
121440 On ch=1 n=d6 v=80
121458 On ch=1 n=f5 v=0
121480 On ch=1 n=b4 v=64
121486 On ch=1 n=g4 v=0
121500 On ch=1 n=e6 v=87
121512 On ch=1 n=d6 v=0
121550 On ch=1 n=e6 v=0
121558 On ch=1 n=f5 v=60
121562 On ch=1 n=b4 v=0
121574 On ch=1 n=d6 v=87
121618 On ch=1 n=e6 v=98
121646 On ch=1 n=d6 v=0
121676 On ch=1 n=f5 v=0
121682 On ch=1 n=e6 v=0
121686 On ch=1 n=g4 v=71
121700 On ch=1 n=d6 v=98
121750 On ch=1 n=e6 v=99
121762 On ch=1 n=f5 v=62
121778 On ch=1 n=d6 v=0
121808 On ch=1 n=g4 v=0
121816 On ch=1 n=e6 v=0
121824 On ch=1 n=d6 v=99
121868 On ch=1 n=e6 v=102
121890 On ch=1 n=f5 v=0
121900 On ch=1 n=b4 v=72
121902 On ch=1 n=d6 v=0
121942 On ch=1 n=e6 v=0
121954 On ch=1 n=d6 v=101
121966 On ch=1 n=f5 v=78
121980 On ch=1 n=b4 v=0
122006 On ch=1 n=e6 v=98
122034 On ch=1 n=d6 v=0
122080 On ch=1 n=d6 v=103
122088 On ch=1 n=f5 v=0
122090 On ch=1 n=e6 v=0
122094 On ch=1 n=g4 v=94
122150 On ch=1 n=e6 v=97
122168 On ch=1 n=f5 v=81
122170 On ch=1 n=d6 v=0
122212 On ch=1 n=g4 v=0
122220 On ch=1 n=d6 v=96
122228 On ch=1 n=e6 v=0
122288 On ch=1 n=e6 v=92
122292 On ch=1 n=f5 v=0
122306 On ch=1 n=b4 v=72
122308 On ch=1 n=d6 v=0
122360 On ch=1 n=e6 v=0
122362 On ch=1 n=d6 v=91
122364 On ch=1 n=b4 v=0
122370 On ch=1 n=f5 v=86
122440 On ch=1 n=e6 v=92
122452 On ch=1 n=d6 v=0
122476 On ch=1 n=f5 v=0
122478 On ch=1 n=g4 v=101
122522 On ch=1 n=d6 v=100
122544 On ch=1 n=e6 v=0
122548 On ch=1 n=f5 v=70
122594 On ch=1 n=e6 v=103
122600 On ch=1 n=d6 v=0
122608 On ch=1 n=g4 v=0
122640 On ch=1 n=e6 v=0
122642 On ch=1 n=b4 v=83
122660 On ch=1 n=d6 v=88
122664 On ch=1 n=f5 v=0
122720 On ch=1 n=c6 v=88
122726 On ch=1 n=d6 v=0
122728 On ch=1 n=b4 v=0
122750 On ch=1 n=f5 v=59
122780 On ch=1 n=d6 v=91
122816 On ch=1 n=c6 v=0
122850 Par ch=1 c=64 v=63
122858 Par ch=1 c=64 v=0
122872 On ch=1 n=f5 v=0
122896 On ch=1 n=d6 v=0
122900 On ch=1 n=c6 v=120
122916 On ch=1 n=c5 v=117
122918 On ch=1 n=e5 v=113
122952 Par ch=1 c=64 v=63
122968 Par ch=1 c=64 v=127
122986 On ch=1 n=c5 v=0
122988 On ch=1 n=e5 v=0
123002 On ch=1 n=c6 v=0
123360 Par ch=1 c=64 v=63
123368 Par ch=1 c=64 v=0
123392 On ch=1 n=c6 v=111
123430 Par ch=1 c=64 v=63
123432 Par ch=1 c=64 v=127
123498 On ch=1 n=c6 v=0
123506 On ch=1 n=g5 v=85
123600 On ch=1 n=c6 v=101
123614 On ch=1 n=g5 v=0
123694 On ch=1 n=e6 v=106
123718 On ch=1 n=c6 v=0
123798 On ch=1 n=g6 v=100
123810 On ch=1 n=e6 v=0
123814 Par ch=1 c=64 v=63
123818 Par ch=1 c=64 v=0
123904 On ch=1 n=e6 v=102
123962 On ch=1 n=g6 v=0
123996 On ch=1 n=c6 v=90
124008 On ch=1 n=e6 v=0
124090 On ch=1 n=e6 v=104
124116 On ch=1 n=c6 v=0
124194 On ch=1 n=e6 v=0
124206 On ch=1 n=f6 v=100
124220 On ch=1 n=f5 v=107
124230 On ch=1 n=d5 v=93
124232 On ch=1 n=g4 v=88
124258 On ch=1 n=d5 v=0
124276 On ch=1 n=f5 v=0
124278 On ch=1 n=g4 v=0
124316 On ch=1 n=d6 v=99
124360 On ch=1 n=f6 v=0
124422 On ch=1 n=d6 v=0
124438 On ch=1 n=b5 v=89
124520 On ch=1 n=d6 v=104
124546 On ch=1 n=b5 v=0
124622 On ch=1 n=d6 v=0
124654 On ch=1 n=c6 v=117
124668 On ch=1 n=e5 v=108
124676 On ch=1 n=c5 v=109
124702 Par ch=1 c=64 v=63
124704 Par ch=1 c=64 v=127
124720 On ch=1 n=c6 v=0
124722 On ch=1 n=c5 v=0
124734 On ch=1 n=e5 v=0
125144 On ch=1 n=c5 v=109
125216 Par ch=1 c=64 v=63
125222 Par ch=1 c=64 v=0
125230 On ch=1 n=c5 v=0
125238 On ch=1 n=g4 v=90
125336 On ch=1 n=c5 v=107
125360 On ch=1 n=g4 v=0
125430 On ch=1 n=e5 v=107
125454 On ch=1 n=c5 v=0
125538 On ch=1 n=g5 v=104
125546 On ch=1 n=e5 v=0
125640 On ch=1 n=e5 v=103
125700 On ch=1 n=g5 v=0
125730 On ch=1 n=c5 v=99
125744 On ch=1 n=e5 v=0
125824 On ch=1 n=e5 v=106
125844 On ch=1 n=c5 v=0
125928 On ch=1 n=f5 v=103
125932 On ch=1 n=e5 v=0
125942 On ch=1 n=f4 v=113
125946 On ch=1 n=g3 v=112
125946 On ch=1 n=d4 v=109
125986 On ch=1 n=d4 v=0
126002 On ch=1 n=f4 v=0
126024 On ch=1 n=g3 v=0
126034 On ch=1 n=d5 v=96
126082 On ch=1 n=f5 v=0
126124 On ch=1 n=b4 v=96
126134 On ch=1 n=d5 v=0
126214 On ch=1 n=d5 v=106
126258 On ch=1 n=b4 v=0
126340 On ch=1 n=c5 v=121
126360 On ch=1 n=c4 v=112
126362 On ch=1 n=e4 v=114
126386 Par ch=1 c=64 v=63
126388 Par ch=1 c=64 v=127
126394 On ch=1 n=d5 v=0
126420 On ch=1 n=c5 v=0
126422 On ch=1 n=c4 v=0
126432 On ch=1 n=e4 v=0
126508 Par ch=1 c=64 v=63
126518 Par ch=1 c=64 v=0
126830 On ch=1 n=g6 v=120
126832 On ch=1 n=c5 v=122
126832 On ch=1 n=c7 v=121
126832 On ch=1 n=e6 v=122
126848 Par ch=1 c=64 v=127
126884 On ch=1 n=c7 v=0
126886 On ch=1 n=e6 v=0
126886 On ch=1 n=g6 v=0
126906 On ch=1 n=c5 v=0
127134 Par ch=1 c=64 v=63
127140 Par ch=1 c=64 v=0
127402 On ch=1 n=c4 v=122
127408 On ch=1 n=c3 v=118
127408 On ch=1 n=c6 v=125
127418 Par ch=1 c=64 v=127
127476 On ch=1 n=c6 v=0
127514 On ch=1 n=c4 v=0
127518 On ch=1 n=c3 v=0
127850 Par ch=1 c=64 v=63
127858 Par ch=1 c=64 v=0
129914 Par ch=1 c=64 v=63
129928 Par ch=1 c=64 v=127
130198 Par ch=1 c=64 v=63
130218 Par ch=1 c=64 v=0
130218 Meta TrkEnd
TrkEnd
MTrk
0 SeqSpec 43 00 01 00
0 Meta TrkName "                                    "
0 TimeSig 4/4 24 8
0 Meta TrkEnd
TrkEnd
MTrk
0 SeqSpec 43 00 01 00
0 Meta TrkName "                                    "
0 TimeSig 4/4 24 8
0 Meta TrkEnd
TrkEnd
MTrk
0 SeqSpec 43 00 01 00
0 Meta TrkName "                                    "
0 TimeSig 4/4 24 8
0 Meta TrkEnd
TrkEnd
MTrk
0 SeqSpec 43 00 01 00
0 Meta TrkName "                                    "
0 TimeSig 4/4 24 8
0 Meta TrkEnd
TrkEnd
MTrk
0 SeqSpec 43 00 01 00
0 Meta TrkName "                                    "
0 TimeSig 4/4 24 8
0 Meta TrkEnd
TrkEnd
MTrk
0 SeqSpec 43 00 01 00
0 Meta TrkName "                                    "
0 TimeSig 4/4 24 8
0 Meta TrkEnd
TrkEnd
MTrk
0 SeqSpec 43 00 01 00
0 Meta TrkName "                                    "
0 TimeSig 4/4 24 8
0 Meta TrkEnd
TrkEnd
MTrk
0 SeqSpec 43 00 01 00
0 Meta TrkName "                                    "
0 TimeSig 4/4 24 8
0 Meta TrkEnd
TrkEnd
MTrk
0 SeqSpec 43 00 01 00
0 Meta TrkName "                                    "
0 TimeSig 4/4 24 8
0 Meta TrkEnd
TrkEnd
MTrk
0 SeqSpec 43 00 01 00
0 Meta TrkName "                                    "
0 TimeSig 4/4 24 8
0 Meta TrkEnd
TrkEnd
MTrk
0 SeqSpec 43 00 01 00
0 Meta TrkName "                                    "
0 TimeSig 4/4 24 8
0 Meta TrkEnd
TrkEnd
MTrk
0 SeqSpec 43 00 01 00
0 Meta TrkName "                                    "
0 TimeSig 4/4 24 8
0 Meta TrkEnd
TrkEnd
MTrk
0 SeqSpec 43 00 01 00
0 Meta TrkName "                                    "
0 TimeSig 4/4 24 8
0 Meta TrkEnd
TrkEnd
MTrk
0 SeqSpec 43 00 01 00
0 Meta TrkName "                                    "
0 TimeSig 4/4 24 8
0 Meta TrkEnd
TrkEnd
MTrk
0 SeqSpec 43 00 01 00
0 Meta TrkName "                                    "
0 TimeSig 4/4 24 8
0 Meta TrkEnd
TrkEnd
MTrk
0 SeqSpec 43 00 01 00
0 Meta TrkName "                                    "
0 TimeSig 4/4 24 8
0 Meta TrkEnd
TrkEnd
