MFile 1 18 480
MTrk
0 Tempo 500000
0 TimeSig 3/4 24 8
0 Meta TrkEnd
TrkEnd
MTrk
0 SeqSpec 43 00 01 00
0 Meta TrkName "PIANO                               "
0 TimeSig 3/4 24 8
0 SysEx f0 41 10 42 12 40 00 7f 00 41 f7
0 SysEx f0 41 10 42 12 40 00 04 64 58 f7
340 SysEx f0 41 10 42 12 40 01 30 03 0c f7
340 SysEx f0 41 10 42 12 40 01 33 50 3c f7
340 SysEx f0 41 10 42 12 40 01 34 3c 4f f7
744 Par ch=1 c=0 v=0
748 Par ch=1 c=32 v=1
752 PrCh ch=1 p=0
756 Par ch=1 c=7 v=100
948 Par ch=1 c=11 v=100
1140 Par ch=1 c=10 v=64
1332 Par ch=1 c=1 v=0
1332 Par ch=1 c=91 v=80
1350 Par ch=1 c=99 v=1
1354 Par ch=1 c=98 v=32
1358 Par ch=1 c=6 v=62
1362 Par ch=1 c=99 v=1
1366 Par ch=1 c=98 v=33
1370 Par ch=1 c=6 v=54
1374 Par ch=1 c=99 v=1
1378 Par ch=1 c=98 v=99
1382 Par ch=1 c=6 v=62
1386 Par ch=1 c=99 v=1
1390 Par ch=1 c=98 v=100
1394 Par ch=1 c=6 v=60
1398 Par ch=1 c=99 v=1
1402 Par ch=1 c=98 v=102
1406 Par ch=1 c=6 v=70
2132 On ch=1 n=g4 v=22
2162 On ch=1 n=b5 v=47
2312 Par ch=1 c=64 v=63
2362 Par ch=1 c=64 v=127
2484 On ch=1 n=d5 v=23
2724 On ch=1 n=b4 v=42
2752 On ch=1 n=d5 v=0
2958 On ch=1 n=d5 v=42
3022 On ch=1 n=g4 v=0
3214 On ch=1 n=g4 v=28
3248 On ch=1 n=d5 v=0
3442 On ch=1 n=b4 v=0
3468 On ch=1 n=d5 v=30
3720 On ch=1 n=b4 v=45
3772 On ch=1 n=d5 v=0
3904 On ch=1 n=b5 v=0
3934 On ch=1 n=g4 v=0
3962 On ch=1 n=d5 v=47
4186 On ch=1 n=d5 v=0
4188 On ch=1 n=a4 v=31
4196 On ch=1 n=d6 v=60
4210 On ch=1 n=b4 v=0
4324 Par ch=1 c=64 v=63
4420 Par ch=1 c=64 v=127
4432 On ch=1 n=c6 v=69
4452 On ch=1 n=d5 v=27
4500 On ch=1 n=d6 v=0
4658 On ch=1 n=b5 v=65
4674 On ch=1 n=d5 v=0
4688 On ch=1 n=c5 v=28
4726 On ch=1 n=c6 v=0
4886 On ch=1 n=d5 v=22
4888 On ch=1 n=c6 v=71
4914 On ch=1 n=a4 v=0
4922 On ch=1 n=b5 v=0
4948 On ch=1 n=c5 v=0
5134 On ch=1 n=g4 v=29
5144 On ch=1 n=d6 v=68
5158 Par ch=1 c=64 v=63
5196 On ch=1 n=d5 v=0
5200 On ch=1 n=c6 v=0
5348 Par ch=1 c=64 v=127
5366 Par ch=1 c=64 v=63
5410 Par ch=1 c=64 v=0
5410 On ch=1 n=d5 v=36
5528 Par ch=1 c=64 v=63
5566 Par ch=1 c=64 v=127
5646 On ch=1 n=b4 v=36
5686 On ch=1 n=d5 v=0
5864 On ch=1 n=b5 v=48
5886 On ch=1 n=d5 v=30
5910 On ch=1 n=d6 v=0
5938 On ch=1 n=g4 v=0
5956 On ch=1 n=b4 v=0
6126 On ch=1 n=g5 v=57
6140 On ch=1 n=g4 v=27
6190 On ch=1 n=d5 v=0
6204 On ch=1 n=b5 v=0
6220 Par ch=1 c=64 v=63
6352 On ch=1 n=d5 v=45
6376 Par ch=1 c=64 v=127
6610 On ch=1 n=b4 v=25
6624 On ch=1 n=d5 v=0
6682 On ch=1 n=g4 v=0
6824 On ch=1 n=g5 v=0
6838 On ch=1 n=d5 v=34
6870 On ch=1 n=b4 v=0
7068 On ch=1 n=g4 v=36
7092 On ch=1 n=d5 v=0
7304 On ch=1 n=d5 v=37
7390 On ch=1 n=g4 v=0
7430 Par ch=1 c=64 v=63
7566 On ch=1 n=b4 v=36
7588 On ch=1 n=d5 v=0
7620 Par ch=1 c=64 v=127
7768 On ch=1 n=b4 v=0
7802 On ch=1 n=d5 v=29
8064 On ch=1 n=d5 v=0
8074 On ch=1 n=g4 v=28
8104 On ch=1 n=g6 v=62
8184 Par ch=1 c=64 v=63
8326 Par ch=1 c=64 v=127
8388 On ch=1 n=e5 v=24
8632 On ch=1 n=c5 v=42
8646 On ch=1 n=e5 v=0
8836 On ch=1 n=g4 v=0
8854 On ch=1 n=e5 v=43
9074 On ch=1 n=c5 v=0
9078 On ch=1 n=g4 v=55
9094 On ch=1 n=e5 v=0
9310 On ch=1 n=e5 v=43
9536 On ch=1 n=a6 v=77
9570 On ch=1 n=e5 v=0
9576 On ch=1 n=c5 v=31
9610 On ch=1 n=g6 v=0
9790 On ch=1 n=g6 v=84
9808 On ch=1 n=g4 v=0
9830 On ch=1 n=e5 v=38
9866 On ch=1 n=c5 v=0
9866 On ch=1 n=a6 v=0
10012 On ch=1 n=f#6 v=86
10042 On ch=1 n=g4 v=27
10098 Par ch=1 c=64 v=63
10100 On ch=1 n=e5 v=0
10104 On ch=1 n=g6 v=0
10246 On ch=1 n=e6 v=84
10260 On ch=1 n=c#5 v=60
10280 Par ch=1 c=64 v=127
10314 On ch=1 n=f#6 v=0
10478 Par ch=1 c=64 v=63
10480 On ch=1 n=d6 v=81
10504 On ch=1 n=a#4 v=58
10512 On ch=1 n=e6 v=0
10516 On ch=1 n=c#5 v=0
10582 On ch=1 n=g4 v=0
10654 Par ch=1 c=64 v=127
10690 On ch=1 n=c#6 v=92
10710 On ch=1 n=c#5 v=65
10720 On ch=1 n=d6 v=0
10764 On ch=1 n=a#4 v=0
10948 On ch=1 n=g4 v=49
10954 On ch=1 n=d6 v=84
10964 On ch=1 n=c#5 v=0
10976 On ch=1 n=c#6 v=0
11052 Par ch=1 c=64 v=63
11104 Par ch=1 c=64 v=0
11180 On ch=1 n=d5 v=55
11244 Par ch=1 c=64 v=63
11294 Par ch=1 c=64 v=127
11380 On ch=1 n=g4 v=0
11428 On ch=1 n=b4 v=57
11474 On ch=1 n=d5 v=0
11660 On ch=1 n=d5 v=44
11670 On ch=1 n=d6 v=0
11670 On ch=1 n=b5 v=65
11698 On ch=1 n=b4 v=0
11918 Par ch=1 c=64 v=63
11918 On ch=1 n=g4 v=27
11920 On ch=1 n=g5 v=62
11946 On ch=1 n=d5 v=0
11950 On ch=1 n=b5 v=0
11990 Par ch=1 c=64 v=0
12064 Par ch=1 c=64 v=63
12118 On ch=1 n=d5 v=42
12138 Par ch=1 c=64 v=127
12144 On ch=1 n=g4 v=0
12368 On ch=1 n=b4 v=42
12396 On ch=1 n=d5 v=0
12576 On ch=1 n=b4 v=0
12582 On ch=1 n=d5 v=37
12786 On ch=1 n=g5 v=0
12808 On ch=1 n=g4 v=44
12842 On ch=1 n=d5 v=0
13034 On ch=1 n=d5 v=48
13048 On ch=1 n=g4 v=0
13114 Par ch=1 c=64 v=63
13262 Par ch=1 c=64 v=0
13288 On ch=1 n=b4 v=45
13314 On ch=1 n=d5 v=0
13522 On ch=1 n=b4 v=0
13528 On ch=1 n=d5 v=48
13794 On ch=1 n=a4 v=29
13798 On ch=1 n=c6 v=68
13804 On ch=1 n=d5 v=0
13884 Par ch=1 c=64 v=63
13972 Par ch=1 c=64 v=127
14076 On ch=1 n=d5 v=32
14300 On ch=1 n=c5 v=38
14308 On ch=1 n=d5 v=0
14416 On ch=1 n=a4 v=0
14512 On ch=1 n=a5 v=62
14524 On ch=1 n=c6 v=0
14528 On ch=1 n=d5 v=23
14700 On ch=1 n=c5 v=0
14754 Par ch=1 c=64 v=63
14760 On ch=1 n=f#5 v=61
14774 On ch=1 n=d5 v=0
14796 On ch=1 n=a4 v=17
14798 On ch=1 n=a5 v=0
14946 Par ch=1 c=64 v=127
14952 On ch=1 n=f#5 v=0
14992 On ch=1 n=d5 v=40
14996 Par ch=1 c=64 v=63
15136 Par ch=1 c=64 v=0
15144 On ch=1 n=a4 v=0
15190 Par ch=1 c=64 v=63
15220 On ch=1 n=a5 v=78
15250 On ch=1 n=c5 v=35
15266 On ch=1 n=d5 v=0
15292 Par ch=1 c=64 v=127
15446 On ch=1 n=d5 v=47
15474 On ch=1 n=a5 v=0
15626 Par ch=1 c=64 v=63
15672 On ch=1 n=c5 v=0
15692 Par ch=1 c=64 v=0
15714 On ch=1 n=b5 v=84
15730 On ch=1 n=a4 v=33
15734 On ch=1 n=d5 v=0
15828 Par ch=1 c=64 v=63
15876 Par ch=1 c=64 v=127
15950 On ch=1 n=d5 v=55
15978 On ch=1 n=b5 v=0
16114 On ch=1 n=a4 v=0
16168 Par ch=1 c=64 v=63
16196 On ch=1 n=c6 v=89
16200 Par ch=1 c=64 v=0
16210 On ch=1 n=c5 v=56
16218 On ch=1 n=d5 v=0
16324 Par ch=1 c=64 v=63
16346 Par ch=1 c=64 v=127
16420 On ch=1 n=c6 v=0
16420 On ch=1 n=d5 v=60
16440 On ch=1 n=c5 v=0
16634 Par ch=1 c=64 v=63
16668 Par ch=1 c=64 v=0
16674 On ch=1 n=d6 v=94
16680 On ch=1 n=g4 v=41
16710 On ch=1 n=d5 v=0
16818 Par ch=1 c=64 v=63
16834 Par ch=1 c=64 v=127
16898 On ch=1 n=d5 v=51
17146 On ch=1 n=b4 v=66
17164 On ch=1 n=d5 v=0
17344 On ch=1 n=g4 v=0
17360 On ch=1 n=d6 v=0
17382 On ch=1 n=b4 v=0
17386 On ch=1 n=b5 v=90
17400 On ch=1 n=d5 v=52
17650 On ch=1 n=e4 v=64
17654 On ch=1 n=d5 v=0
17680 On ch=1 n=g6 v=89
17770 On ch=1 n=b5 v=0
17852 Par ch=1 c=64 v=63
17880 Par ch=1 c=64 v=0
17900 On ch=1 n=b4 v=60
17962 Par ch=1 c=64 v=63
17992 Par ch=1 c=64 v=127
18146 On ch=1 n=g4 v=65
18186 On ch=1 n=b4 v=0
18262 On ch=1 n=e4 v=0
18358 On ch=1 n=g6 v=0
18388 On ch=1 n=g4 v=0
18392 On ch=1 n=b4 v=64
18616 On ch=1 n=b4 v=0
18622 On ch=1 n=b3 v=84
18844 On ch=1 n=g4 v=63
18868 Par ch=1 c=64 v=63
18898 Par ch=1 c=64 v=0
18938 On ch=1 n=b3 v=0
19108 On ch=1 n=d4 v=85
19202 On ch=1 n=g4 v=0
19342 On ch=1 n=g4 v=71
19420 On ch=1 n=d4 v=0
19652 On ch=1 n=c4 v=58
19654 On ch=1 n=e4 v=77
19654 On ch=1 n=a6 v=87
19760 On ch=1 n=g4 v=0
19838 Par ch=1 c=64 v=63
19866 Par ch=1 c=64 v=127
19958 On ch=1 n=g6 v=89
20038 On ch=1 n=a6 v=0
20174 On ch=1 n=f#6 v=95
20266 On ch=1 n=g6 v=0
20404 On ch=1 n=g6 v=90
20490 On ch=1 n=f#6 v=0
20614 On ch=1 n=f#6 v=99
20626 On ch=1 n=g4 v=71
20688 On ch=1 n=g6 v=0
20792 On ch=1 n=e4 v=0
20838 On ch=1 n=e6 v=94
20910 On ch=1 n=f#6 v=0
21078 On ch=1 n=d#6 v=100
21134 On ch=1 n=e6 v=0
21296 On ch=1 n=e6 v=93
21314 On ch=1 n=d#6 v=0
21542 On ch=1 n=d6 v=81
21556 On ch=1 n=e4 v=66
21620 On ch=1 n=e6 v=0
21622 Par ch=1 c=64 v=63
21670 Par ch=1 c=64 v=0
21674 On ch=1 n=c4 v=0
21752 On ch=1 n=c6 v=83
21826 On ch=1 n=d6 v=0
22000 On ch=1 n=b5 v=79
22076 On ch=1 n=c6 v=0
22240 On ch=1 n=c6 v=83
22274 On ch=1 n=b5 v=0
22286 Par ch=1 c=64 v=63
22306 Par ch=1 c=64 v=127
22396 On ch=1 n=g4 v=0
22540 On ch=1 n=b5 v=71
22554 On ch=1 n=g4 v=48
22576 On ch=1 n=c6 v=0
22592 On ch=1 n=d4 v=51
22646 On ch=1 n=e4 v=0
22762 Par ch=1 c=64 v=63
22792 Par ch=1 c=64 v=0
22896 Par ch=1 c=64 v=63
22920 Par ch=1 c=64 v=127
23408 On ch=1 n=b5 v=0
23450 On ch=1 n=c6 v=52
23572 On ch=1 n=b5 v=63
23620 On ch=1 n=c6 v=0
23702 Par ch=1 c=64 v=63
23724 On ch=1 n=b5 v=0
23726 On ch=1 n=f#4 v=49
23732 On ch=1 n=a5 v=44
23740 Par ch=1 c=64 v=0
23776 On ch=1 n=g4 v=0
24028 Par ch=1 c=64 v=63
24084 Par ch=1 c=64 v=127
24096 On ch=1 n=a5 v=0
24104 Par ch=1 c=64 v=63
24226 Par ch=1 c=64 v=0
24304 On ch=1 n=d6 v=47
24350 On ch=1 n=d4 v=0
24424 On ch=1 n=f#4 v=0
24810 On ch=1 n=c#6 v=67
24826 On ch=1 n=d6 v=0
25360 On ch=1 n=c6 v=59
25456 On ch=1 n=c#6 v=0
26000 On ch=1 n=b5 v=63
26004 On ch=1 n=g4 v=29
26080 On ch=1 n=c6 v=0
26082 Par ch=1 c=64 v=63
26134 Par ch=1 c=64 v=127
26324 On ch=1 n=d5 v=38
26568 On ch=1 n=b4 v=49
26606 On ch=1 n=d5 v=0
26818 On ch=1 n=d5 v=46
26850 On ch=1 n=g4 v=0
27074 On ch=1 n=g4 v=36
27078 On ch=1 n=d5 v=0
27102 Par ch=1 c=64 v=63
27230 Par ch=1 c=64 v=127
27300 On ch=1 n=g5 v=54
27308 On ch=1 n=d5 v=36
27314 On ch=1 n=b4 v=0
27324 On ch=1 n=b5 v=0
27544 On ch=1 n=b5 v=67
27566 On ch=1 n=d5 v=0
27568 On ch=1 n=b4 v=35
27610 On ch=1 n=g5 v=0
27688 On ch=1 n=g4 v=0
27752 On ch=1 n=d6 v=74
27762 On ch=1 n=d5 v=49
27808 On ch=1 n=b5 v=0
27876 On ch=1 n=b4 v=0
27982 On ch=1 n=c6 v=80
28006 On ch=1 n=d5 v=0
28008 On ch=1 n=a4 v=38
28052 On ch=1 n=d6 v=0
28060 Par ch=1 c=64 v=63
28136 Par ch=1 c=64 v=0
28190 Par ch=1 c=64 v=63
28206 On ch=1 n=a5 v=68
28230 On ch=1 n=d5 v=43
28276 Par ch=1 c=64 v=127
28294 On ch=1 n=c6 v=0
28458 On ch=1 n=c6 v=78
28462 On ch=1 n=d5 v=0
28496 On ch=1 n=a5 v=0
28496 On ch=1 n=c5 v=35
28626 On ch=1 n=a4 v=0
28676 On ch=1 n=e6 v=84
28686 On ch=1 n=d5 v=35
28706 On ch=1 n=c5 v=0
28718 On ch=1 n=c6 v=0
28880 Par ch=1 c=64 v=63
28948 On ch=1 n=d6 v=82
28950 On ch=1 n=g4 v=37
28950 Par ch=1 c=64 v=0
28952 On ch=1 n=d5 v=0
28994 On ch=1 n=e6 v=0
29186 Par ch=1 c=64 v=63
29206 On ch=1 n=d5 v=40
29212 Par ch=1 c=64 v=127
29422 On ch=1 n=b4 v=51
29442 On ch=1 n=d5 v=0
29642 On ch=1 n=b5 v=70
29668 On ch=1 n=d5 v=38
29684 On ch=1 n=d6 v=0
29690 On ch=1 n=g4 v=0
29762 Par ch=1 c=64 v=63
29896 On ch=1 n=b4 v=0
29904 On ch=1 n=g5 v=63
29908 On ch=1 n=b5 v=0
29908 On ch=1 n=g4 v=31
29918 On ch=1 n=d5 v=0
30066 On ch=1 n=g5 v=0
30136 On ch=1 n=d5 v=51
30140 Par ch=1 c=64 v=0
30140 On ch=1 n=g5 v=60
30236 On ch=1 n=g5 v=0
30388 On ch=1 n=a5 v=62
30392 On ch=1 n=d5 v=0
30394 On ch=1 n=b4 v=40
30494 On ch=1 n=a5 v=0
30598 On ch=1 n=g4 v=0
30606 On ch=1 n=b5 v=69
30610 On ch=1 n=d5 v=41
30702 On ch=1 n=b5 v=0
30764 On ch=1 n=b4 v=0
30836 On ch=1 n=g4 v=50
30838 On ch=1 n=d5 v=0
30838 On ch=1 n=c6 v=77
30954 On ch=1 n=c6 v=0
31052 On ch=1 n=d5 v=52
31060 On ch=1 n=d6 v=85
31200 On ch=1 n=d6 v=0
31280 On ch=1 n=e6 v=82
31286 On ch=1 n=d5 v=0
31300 On ch=1 n=b4 v=53
31388 On ch=1 n=e6 v=0
31486 On ch=1 n=f#6 v=95
31516 On ch=1 n=d5 v=52
31518 On ch=1 n=g4 v=0
31654 On ch=1 n=f#6 v=0
31736 On ch=1 n=d5 v=0
31750 Par ch=1 c=64 v=63
31754 On ch=1 n=g6 v=78
31764 On ch=1 n=g4 v=39
31768 On ch=1 n=b4 v=0
32024 Par ch=1 c=64 v=127
32024 On ch=1 n=e5 v=50
32032 On ch=1 n=f#6 v=84
32126 On ch=1 n=g6 v=0
32278 On ch=1 n=g6 v=97
32278 On ch=1 n=c5 v=55
32294 On ch=1 n=e5 v=0
32358 On ch=1 n=f#6 v=0
32498 On ch=1 n=f#6 v=107
32500 On ch=1 n=g4 v=0
32502 On ch=1 n=e5 v=46
32592 On ch=1 n=g6 v=0
32734 On ch=1 n=g4 v=58
32740 On ch=1 n=a6 v=94
32764 On ch=1 n=e5 v=0
32824 On ch=1 n=f#6 v=0
32936 On ch=1 n=c5 v=0
32956 Par ch=1 c=64 v=63
32962 On ch=1 n=e5 v=55
32964 On ch=1 n=g6 v=99
32990 Par ch=1 c=64 v=0
33046 On ch=1 n=a6 v=0
33200 On ch=1 n=f#6 v=103
33222 On ch=1 n=c5 v=68
33252 On ch=1 n=e5 v=0
33290 Par ch=1 c=64 v=63
33300 On ch=1 n=g6 v=0
33316 Par ch=1 c=64 v=127
33422 On ch=1 n=g6 v=89
33448 On ch=1 n=e5 v=57
33498 On ch=1 n=f#6 v=0
33516 On ch=1 n=g4 v=0
33616 On ch=1 n=c5 v=0
33642 On ch=1 n=f#6 v=101
33662 On ch=1 n=g4 v=54
33724 On ch=1 n=g6 v=0
33730 Par ch=1 c=64 v=63
33760 On ch=1 n=e5 v=0
33762 Par ch=1 c=64 v=0
33876 On ch=1 n=e6 v=85
33892 On ch=1 n=c#5 v=76
33922 On ch=1 n=f#6 v=0
33950 Par ch=1 c=64 v=63
33998 Par ch=1 c=64 v=127
34108 On ch=1 n=d6 v=80
34116 On ch=1 n=a#4 v=67
34126 On ch=1 n=e6 v=0
34132 On ch=1 n=c#5 v=0
34132 Par ch=1 c=64 v=63
34172 Par ch=1 c=64 v=0
34262 Par ch=1 c=64 v=63
34326 On ch=1 n=c#6 v=86
34336 Par ch=1 c=64 v=127
34350 On ch=1 n=c#5 v=66
34354 On ch=1 n=d6 v=0
34380 On ch=1 n=g4 v=0
34518 On ch=1 n=a#4 v=0
34546 Par ch=1 c=64 v=63
34568 On ch=1 n=g4 v=57
34582 On ch=1 n=d6 v=77
34584 Par ch=1 c=64 v=0
34602 On ch=1 n=c#5 v=0
34622 On ch=1 n=c#6 v=0
34712 Par ch=1 c=64 v=63
34766 Par ch=1 c=64 v=127
34802 On ch=1 n=d5 v=42
34806 On ch=1 n=b5 v=69
34846 On ch=1 n=d6 v=0
34936 Par ch=1 c=64 v=63
35032 On ch=1 n=d6 v=70
35048 On ch=1 n=b4 v=41
35056 On ch=1 n=b5 v=0
35090 Par ch=1 c=64 v=127
35096 On ch=1 n=d5 v=0
35268 On ch=1 n=b5 v=63
35284 On ch=1 n=d5 v=45
35302 On ch=1 n=d6 v=0
35310 On ch=1 n=g4 v=0
35512 Par ch=1 c=64 v=63
35518 On ch=1 n=g5 v=65
35520 On ch=1 n=g4 v=38
35526 On ch=1 n=b5 v=0
35532 On ch=1 n=d5 v=0
35548 Par ch=1 c=64 v=0
35594 On ch=1 n=b4 v=0
35726 On ch=1 n=d5 v=44
35726 Par ch=1 c=64 v=63
35762 Par ch=1 c=64 v=127
35962 On ch=1 n=b4 v=42
35978 On ch=1 n=d5 v=0
36182 On ch=1 n=g4 v=0
36206 On ch=1 n=d5 v=40
36256 On ch=1 n=b4 v=0
36444 On ch=1 n=g4 v=45
36460 On ch=1 n=d5 v=0
36462 On ch=1 n=g5 v=0
36626 Par ch=1 c=64 v=63
36690 On ch=1 n=d5 v=30
36772 Par ch=1 c=64 v=0
36930 On ch=1 n=b4 v=38
36958 On ch=1 n=d5 v=0
37180 On ch=1 n=d5 v=39
37218 On ch=1 n=b4 v=0
37308 On ch=1 n=g4 v=0
37418 On ch=1 n=c6 v=48
37420 On ch=1 n=d5 v=0
37430 On ch=1 n=a4 v=26
37432 Par ch=1 c=64 v=63
37466 Par ch=1 c=64 v=127
37676 On ch=1 n=a5 v=54
37688 On ch=1 n=d5 v=26
37740 On ch=1 n=c6 v=0
37910 On ch=1 n=d5 v=0
37916 On ch=1 n=c5 v=35
37918 On ch=1 n=c6 v=65
37964 On ch=1 n=a5 v=0
38118 On ch=1 n=a4 v=0
38120 On ch=1 n=a5 v=68
38132 On ch=1 n=d5 v=36
38182 On ch=1 n=c6 v=0
38336 Par ch=1 c=64 v=63
38366 On ch=1 n=d5 v=0
38370 On ch=1 n=f#5 v=76
38382 On ch=1 n=a4 v=34
38382 Par ch=1 c=64 v=0
38438 On ch=1 n=c5 v=0
38450 On ch=1 n=a5 v=0
38534 Par ch=1 c=64 v=63
38544 On ch=1 n=f#5 v=0
38564 Par ch=1 c=64 v=0
38612 On ch=1 n=d5 v=34
38640 On ch=1 n=a5 v=73
38804 Par ch=1 c=64 v=63
38834 Par ch=1 c=64 v=127
38872 On ch=1 n=g#5 v=88
38876 On ch=1 n=c5 v=41
38902 On ch=1 n=d5 v=0
38920 On ch=1 n=a5 v=0
39080 On ch=1 n=a4 v=0
39090 On ch=1 n=d5 v=57
39090 On ch=1 n=a5 v=84
39118 On ch=1 n=g#5 v=0
39312 On ch=1 n=a#5 v=92
39330 Par ch=1 c=64 v=63
39330 On ch=1 n=a4 v=53
39352 On ch=1 n=a5 v=0
39362 On ch=1 n=d5 v=0
39406 On ch=1 n=c5 v=0
39490 Par ch=1 c=64 v=127
39530 On ch=1 n=b5 v=89
39548 On ch=1 n=d5 v=66
39576 On ch=1 n=a#5 v=0
39734 Par ch=1 c=64 v=63
39760 Par ch=1 c=64 v=0
39766 On ch=1 n=c6 v=98
39794 On ch=1 n=c5 v=68
39798 On ch=1 n=d5 v=0
39808 On ch=1 n=b5 v=0
39876 Par ch=1 c=64 v=63
39904 Par ch=1 c=64 v=127
39968 On ch=1 n=c#6 v=98
39988 On ch=1 n=d5 v=73
40022 On ch=1 n=c6 v=0
40048 On ch=1 n=a4 v=0
40050 On ch=1 n=c5 v=0
40160 Par ch=1 c=64 v=63
40200 On ch=1 n=d6 v=98
40212 On ch=1 n=g4 v=61
40252 On ch=1 n=d5 v=0
40254 Par ch=1 c=64 v=127
40266 On ch=1 n=c#6 v=0
40442 On ch=1 n=d5 v=80
40452 On ch=1 n=b5 v=86
40478 On ch=1 n=d6 v=0
40564 Par ch=1 c=64 v=63
40628 Par ch=1 c=64 v=127
40676 On ch=1 n=d6 v=96
40686 On ch=1 n=d5 v=0
40692 On ch=1 n=b4 v=76
40716 On ch=1 n=b5 v=0
40816 On ch=1 n=g4 v=0
40908 On ch=1 n=b5 v=101
40916 On ch=1 n=d5 v=83
40928 On ch=1 n=b4 v=0
40940 On ch=1 n=d6 v=0
41168 On ch=1 n=e4 v=85
41190 On ch=1 n=g6 v=100
41192 On ch=1 n=d5 v=0
41262 On ch=1 n=b5 v=0
41316 Par ch=1 c=64 v=63
41348 Par ch=1 c=64 v=0
41398 On ch=1 n=b4 v=78
41402 Par ch=1 c=64 v=63
41446 Par ch=1 c=64 v=127
41596 On ch=1 n=e4 v=0
41632 On ch=1 n=g4 v=75
41666 On ch=1 n=g6 v=0
41690 On ch=1 n=b4 v=0
41816 On ch=1 n=g4 v=0
41836 On ch=1 n=b4 v=86
42078 On ch=1 n=b4 v=0
42090 On ch=1 n=b3 v=98
42166 Par ch=1 c=64 v=63
42178 Par ch=1 c=64 v=0
42350 On ch=1 n=g4 v=54
42390 Par ch=1 c=64 v=63
42392 On ch=1 n=b6 v=94
42400 Par ch=1 c=64 v=127
42528 On ch=1 n=b3 v=0
42640 On ch=1 n=f#6 v=103
42654 On ch=1 n=d4 v=84
42672 On ch=1 n=b6 v=0
42704 On ch=1 n=g4 v=0
42856 On ch=1 n=g4 v=73
42872 On ch=1 n=g6 v=93
42884 On ch=1 n=d4 v=0
42906 On ch=1 n=f#6 v=0
43102 On ch=1 n=d#6 v=100
43108 On ch=1 n=c4 v=73
43132 Par ch=1 c=64 v=63
43136 On ch=1 n=g6 v=0
43154 On ch=1 n=g4 v=0
43168 Par ch=1 c=64 v=0
43248 Par ch=1 c=64 v=63
43284 Par ch=1 c=64 v=127
43336 On ch=1 n=e6 v=96
43338 On ch=1 n=a4 v=60
43392 On ch=1 n=d#6 v=0
43482 On ch=1 n=c4 v=0
43518 Par ch=1 c=64 v=63
43544 Par ch=1 c=64 v=0
43558 On ch=1 n=c6 v=90
43580 On ch=1 n=e4 v=78
43584 On ch=1 n=e6 v=0
43612 On ch=1 n=a4 v=0
43644 Par ch=1 c=64 v=63
43676 Par ch=1 c=64 v=127
43774 On ch=1 n=a4 v=70
43776 On ch=1 n=a5 v=78
43788 On ch=1 n=c6 v=0
43794 On ch=1 n=e4 v=0
43822 Par ch=1 c=64 v=63
43866 Par ch=1 c=64 v=0
44004 On ch=1 n=d4 v=59
44018 On ch=1 n=g5 v=72
44044 On ch=1 n=a4 v=0
44068 On ch=1 n=a5 v=0
44166 Par ch=1 c=64 v=63
44190 Par ch=1 c=64 v=127
44240 On ch=1 n=b4 v=57
44504 On ch=1 n=g4 v=70
44514 On ch=1 n=d4 v=0
44518 On ch=1 n=b4 v=0
44520 On ch=1 n=g5 v=0
44728 On ch=1 n=g5 v=88
44728 On ch=1 n=b4 v=54
44780 On ch=1 n=g4 v=0
44948 On ch=1 n=d4 v=60
44968 On ch=1 n=b4 v=0
44976 On ch=1 n=f#5 v=72
44978 On ch=1 n=b5 v=83
44982 Par ch=1 c=64 v=63
44984 On ch=1 n=g5 v=0
45024 Par ch=1 c=64 v=0
45108 Par ch=1 c=64 v=63
45158 Par ch=1 c=64 v=127
45202 On ch=1 n=c5 v=46
45206 On ch=1 n=a5 v=74
45228 On ch=1 n=b5 v=0
45448 On ch=1 n=g5 v=69
45464 On ch=1 n=c5 v=0
45464 On ch=1 n=a4 v=39
45482 Par ch=1 c=64 v=63
45510 On ch=1 n=a5 v=0
45546 Par ch=1 c=64 v=0
45634 On ch=1 n=d4 v=0
45634 Par ch=1 c=64 v=63
45670 On ch=1 n=c5 v=51
45676 On ch=1 n=a5 v=61
45694 Par ch=1 c=64 v=127
45722 On ch=1 n=g5 v=0
45758 On ch=1 n=f#5 v=0
45788 On ch=1 n=a4 v=0
45852 On ch=1 n=c5 v=0
45890 On ch=1 n=a5 v=0
46014 On ch=1 n=a5 v=65
46022 On ch=1 n=c5 v=48
46022 On ch=1 n=g4 v=37
46034 On ch=1 n=f#5 v=70
46138 Par ch=1 c=64 v=63
46174 Par ch=1 c=64 v=0
46652 Par ch=1 c=64 v=63
46714 Par ch=1 c=64 v=127
46888 On ch=1 n=f#5 v=0
46920 On ch=1 n=c5 v=0
47188 On ch=1 n=a5 v=0
47270 On ch=1 n=g5 v=51
47292 On ch=1 n=b4 v=42
47460 Par ch=1 c=64 v=63
47514 Par ch=1 c=64 v=0
47668 Par ch=1 c=64 v=63
47710 Par ch=1 c=64 v=127
48628 On ch=1 n=g5 v=0
48630 Par ch=1 c=64 v=63
48660 On ch=1 n=g4 v=0
48680 On ch=1 n=b4 v=0
48852 Par ch=1 c=64 v=0
49570 Par ch=1 c=64 v=63
49860 Par ch=1 c=64 v=127
50088 On ch=1 n=d5 v=47
50094 On ch=1 n=d6 v=53
50470 On ch=1 n=a5 v=18
50748 On ch=1 n=f#5 v=20
50828 On ch=1 n=a5 v=0
51020 On ch=1 n=a5 v=21
51128 On ch=1 n=d5 v=0
51270 On ch=1 n=d5 v=53
51300 On ch=1 n=a5 v=0
51500 On ch=1 n=c#6 v=69
51522 On ch=1 n=f#5 v=0
51522 On ch=1 n=a5 v=37
51580 On ch=1 n=d6 v=0
51746 On ch=1 n=e6 v=76
51746 On ch=1 n=f#5 v=45
51772 On ch=1 n=a5 v=0
51772 On ch=1 n=c#6 v=0
51956 On ch=1 n=d6 v=74
51960 On ch=1 n=e6 v=0
51984 On ch=1 n=a5 v=30
51992 On ch=1 n=d5 v=0
52192 On ch=1 n=g6 v=70
52202 On ch=1 n=d5 v=29
52206 On ch=1 n=a5 v=0
52220 On ch=1 n=d6 v=0
52268 Par ch=1 c=64 v=63
52340 On ch=1 n=f#5 v=0
52416 On ch=1 n=f#6 v=74
52424 On ch=1 n=a5 v=19
52458 Par ch=1 c=64 v=127
52474 On ch=1 n=g6 v=0
52652 On ch=1 n=e6 v=59
52664 On ch=1 n=a5 v=0
52664 On ch=1 n=f#5 v=50
52690 On ch=1 n=f#6 v=0
52890 On ch=1 n=d6 v=64
52890 On ch=1 n=a5 v=25
52898 On ch=1 n=e6 v=0
52902 On ch=1 n=d5 v=0
53136 On ch=1 n=e5 v=43
53140 On ch=1 n=c#6 v=76
53142 On ch=1 n=a5 v=0
53152 Par ch=1 c=64 v=63
53156 On ch=1 n=f#5 v=0
53168 On ch=1 n=d6 v=0
53232 Par ch=1 c=64 v=0
53384 On ch=1 n=a5 v=24
53384 Par ch=1 c=64 v=63
53444 Par ch=1 c=64 v=127
53638 On ch=1 n=g5 v=35
53644 On ch=1 n=a5 v=0
53858 On ch=1 n=d6 v=65
53864 On ch=1 n=c#6 v=0
53878 On ch=1 n=a5 v=27
53882 On ch=1 n=e5 v=0
54124 On ch=1 n=e6 v=48
54146 On ch=1 n=a5 v=0
54158 On ch=1 n=e5 v=24
54210 On ch=1 n=d6 v=0
54252 Par ch=1 c=64 v=63
54322 Par ch=1 c=64 v=0
54334 On ch=1 n=g5 v=0
54396 On ch=1 n=a5 v=19
54454 Par ch=1 c=64 v=63
54512 Par ch=1 c=64 v=127
54658 On ch=1 n=g5 v=27
54664 On ch=1 n=a5 v=0
54836 On ch=1 n=e5 v=0
54886 On ch=1 n=a5 v=34
55124 On ch=1 n=e5 v=38
55136 On ch=1 n=g5 v=0
55146 On ch=1 n=a5 v=0
55214 On ch=1 n=e6 v=0
55386 On ch=1 n=a5 v=33
55518 Par ch=1 c=64 v=63
55660 On ch=1 n=g5 v=28
55682 On ch=1 n=a5 v=0
55752 Par ch=1 c=64 v=127
55770 On ch=1 n=e5 v=0
55906 On ch=1 n=a5 v=27
55924 On ch=1 n=g5 v=0
56142 On ch=1 n=e6 v=78
56146 On ch=1 n=c#5 v=42
56182 On ch=1 n=a5 v=0
56214 Par ch=1 c=64 v=63
56358 Par ch=1 c=64 v=127
56374 On ch=1 n=a5 v=38
56648 On ch=1 n=g5 v=32
56658 On ch=1 n=a5 v=0
56852 On ch=1 n=a5 v=40
56874 On ch=1 n=c#5 v=0
56992 On ch=1 n=g5 v=0
57088 On ch=1 n=c#5 v=56
57126 On ch=1 n=a5 v=0
57316 On ch=1 n=d#6 v=71
57326 On ch=1 n=a5 v=38
57388 On ch=1 n=e6 v=0
57558 On ch=1 n=f#6 v=92
57574 On ch=1 n=a5 v=0
57590 On ch=1 n=g5 v=22
57616 On ch=1 n=d#6 v=0
57780 On ch=1 n=f#6 v=0
57782 On ch=1 n=c#5 v=0
57782 On ch=1 n=a5 v=41
57786 On ch=1 n=e6 v=88
57874 On ch=1 n=g5 v=0
58012 On ch=1 n=c#5 v=66
58018 On ch=1 n=a6 v=84
58030 Par ch=1 c=64 v=63
58048 On ch=1 n=e6 v=0
58072 Par ch=1 c=64 v=0
58076 On ch=1 n=a5 v=0
58242 On ch=1 n=a5 v=49
58252 On ch=1 n=g6 v=83
58312 On ch=1 n=a6 v=0
58478 On ch=1 n=f#6 v=86
58490 On ch=1 n=g5 v=50
58496 On ch=1 n=a5 v=0
58530 On ch=1 n=g6 v=0
58624 Par ch=1 c=64 v=63
58650 Par ch=1 c=64 v=127
58704 On ch=1 n=a5 v=60
58712 On ch=1 n=e6 v=83
58742 On ch=1 n=f#6 v=0
58748 On ch=1 n=g5 v=0
58846 On ch=1 n=c#5 v=0
58956 On ch=1 n=d6 v=92
58966 On ch=1 n=d5 v=66
58988 On ch=1 n=a5 v=0
59022 On ch=1 n=e6 v=0
59094 Par ch=1 c=64 v=63
59162 On ch=1 n=a5 v=51
59228 Par ch=1 c=64 v=127
59418 On ch=1 n=f#5 v=72
59454 On ch=1 n=a5 v=0
59626 On ch=1 n=d5 v=0
59634 On ch=1 n=e6 v=87
59636 On ch=1 n=a5 v=52
59650 On ch=1 n=f#5 v=0
59668 On ch=1 n=d6 v=0
59886 On ch=1 n=c#5 v=55
59892 On ch=1 n=f#6 v=88
59954 On ch=1 n=a5 v=0
59988 On ch=1 n=e6 v=0
60024 Par ch=1 c=64 v=63
60060 Par ch=1 c=64 v=0
60146 On ch=1 n=a5 v=46
60170 Par ch=1 c=64 v=63
60206 Par ch=1 c=64 v=127
60222 On ch=1 n=c#5 v=0
60366 On ch=1 n=d5 v=70
60458 On ch=1 n=a5 v=0
60502 Par ch=1 c=64 v=63
60596 On ch=1 n=a5 v=48
60622 Par ch=1 c=64 v=127
60656 On ch=1 n=d5 v=0
60836 On ch=1 n=f#6 v=0
60850 On ch=1 n=b4 v=80
60914 On ch=1 n=a5 v=0
60946 Par ch=1 c=64 v=63
61012 Par ch=1 c=64 v=127
61078 On ch=1 n=g5 v=56
61184 On ch=1 n=b4 v=0
61336 On ch=1 n=d5 v=75
61392 Par ch=1 c=64 v=63
61396 Par ch=1 c=64 v=127
61406 On ch=1 n=g5 v=0
61568 On ch=1 n=g5 v=52
61608 On ch=1 n=d5 v=0
61876 On ch=1 n=f#6 v=98
61878 On ch=1 n=a4 v=57
61906 On ch=1 n=g5 v=0
61950 Par ch=1 c=64 v=63
62030 Par ch=1 c=64 v=0
62040 Par ch=1 c=64 v=63
62088 Par ch=1 c=64 v=127
62150 On ch=1 n=f#5 v=78
62382 On ch=1 n=d5 v=73
62384 On ch=1 n=a4 v=0
62400 On ch=1 n=f#5 v=0
62602 On ch=1 n=f#5 v=86
62624 On ch=1 n=d5 v=0
62792 On ch=1 n=f#5 v=0
62826 On ch=1 n=g4 v=84
62964 Par ch=1 c=64 v=63
63030 Par ch=1 c=64 v=0
63048 On ch=1 n=e5 v=68
63052 Par ch=1 c=64 v=63
63066 On ch=1 n=e6 v=92
63098 Par ch=1 c=64 v=127
63114 On ch=1 n=f#6 v=0
63296 On ch=1 n=g6 v=97
63300 On ch=1 n=c#5 v=83
63358 On ch=1 n=e6 v=0
63366 On ch=1 n=g4 v=0
63368 On ch=1 n=e5 v=0
63504 On ch=1 n=f#6 v=107
63532 On ch=1 n=e5 v=80
63554 On ch=1 n=g6 v=0
63560 On ch=1 n=c#5 v=0
63750 On ch=1 n=b6 v=94
63752 On ch=1 n=f#4 v=84
63792 On ch=1 n=e5 v=0
63796 Par ch=1 c=64 v=63
63806 On ch=1 n=f#6 v=0
63826 Par ch=1 c=64 v=0
63970 Par ch=1 c=64 v=63
63976 On ch=1 n=a6 v=98
63988 On ch=1 n=d5 v=77
63990 Par ch=1 c=64 v=127
64050 On ch=1 n=b6 v=0
64196 On ch=1 n=f#4 v=0
64202 On ch=1 n=g6 v=96
64216 On ch=1 n=a4 v=59
64252 Par ch=1 c=64 v=63
64260 On ch=1 n=d5 v=0
64280 On ch=1 n=a6 v=0
64318 Par ch=1 c=64 v=127
64402 On ch=1 n=a4 v=0
64422 On ch=1 n=d5 v=78
64426 On ch=1 n=f#6 v=103
64486 On ch=1 n=g6 v=0
64658 On ch=1 n=d5 v=0
64668 On ch=1 n=b4 v=72
64670 On ch=1 n=e6 v=89
64734 On ch=1 n=f#6 v=0
64742 Par ch=1 c=64 v=63
64768 Par ch=1 c=64 v=0
64900 On ch=1 n=g5 v=54
64906 Par ch=1 c=64 v=63
64926 Par ch=1 c=64 v=127
65164 On ch=1 n=e5 v=67
65184 On ch=1 n=g5 v=0
65308 On ch=1 n=b4 v=0
65360 On ch=1 n=g5 v=71
65402 On ch=1 n=e5 v=0
65548 Par ch=1 c=64 v=63
65554 On ch=1 n=a4 v=72
65598 On ch=1 n=g5 v=0
65670 Par ch=1 c=64 v=127
65794 On ch=1 n=d#6 v=80
65822 On ch=1 n=f#5 v=57
65860 On ch=1 n=e6 v=0
66044 On ch=1 n=f#5 v=0
66050 On ch=1 n=f#6 v=95
66072 On ch=1 n=d#5 v=66
66118 On ch=1 n=d#6 v=0
66218 On ch=1 n=a4 v=0
66274 On ch=1 n=e6 v=100
66276 On ch=1 n=f#5 v=84
66318 On ch=1 n=d#5 v=0
66352 On ch=1 n=f#6 v=0
66460 On ch=1 n=f#5 v=0
66528 On ch=1 n=a6 v=94
66534 On ch=1 n=g4 v=63
66590 On ch=1 n=e6 v=0
66724 Par ch=1 c=64 v=63
66742 On ch=1 n=e5 v=50
66760 Par ch=1 c=64 v=0
66774 On ch=1 n=g6 v=87
66852 On ch=1 n=a6 v=0
66898 Par ch=1 c=64 v=63
66920 Par ch=1 c=64 v=127
66982 On ch=1 n=f#6 v=90
66998 On ch=1 n=b4 v=63
67006 On ch=1 n=e5 v=0
67080 On ch=1 n=g6 v=0
67164 On ch=1 n=g4 v=0
67198 On ch=1 n=e5 v=63
67202 On ch=1 n=e6 v=88
67242 On ch=1 n=f#6 v=0
67286 On ch=1 n=b4 v=0
67364 On ch=1 n=e6 v=0
67418 On ch=1 n=e5 v=0
67440 On ch=1 n=a4 v=47
67450 On ch=1 n=e6 v=72
67496 Par ch=1 c=64 v=63
67524 Par ch=1 c=64 v=0
67682 On ch=1 n=d6 v=79
67696 On ch=1 n=f#5 v=53
67778 Par ch=1 c=64 v=63
67804 On ch=1 n=e6 v=0
67808 Par ch=1 c=64 v=127
67888 On ch=1 n=d6 v=0
67934 On ch=1 n=d5 v=57
67936 On ch=1 n=f#5 v=0
67962 On ch=1 n=d6 v=92
67972 On ch=1 n=a4 v=0
68178 On ch=1 n=f#5 v=65
68302 On ch=1 n=d5 v=0
68332 Par ch=1 c=64 v=63
68366 Par ch=1 c=64 v=0
68404 On ch=1 n=a4 v=64
68422 On ch=1 n=f#5 v=0
68480 Par ch=1 c=64 v=63
68508 Par ch=1 c=64 v=127
68600 On ch=1 n=a5 v=81
68616 On ch=1 n=f#5 v=68
68652 On ch=1 n=d6 v=0
68832 Par ch=1 c=64 v=63
68838 On ch=1 n=f#5 v=0
68846 On ch=1 n=d6 v=94
68866 On ch=1 n=d5 v=53
68922 On ch=1 n=a4 v=0
68928 Par ch=1 c=64 v=127
69044 On ch=1 n=f#5 v=64
69070 On ch=1 n=a5 v=0
69090 On ch=1 n=f#6 v=101
69136 On ch=1 n=d5 v=0
69166 On ch=1 n=d6 v=0
69244 On ch=1 n=f#5 v=0
69286 On ch=1 n=f#6 v=0
69316 On ch=1 n=a4 v=55
69334 On ch=1 n=f#6 v=93
69366 On ch=1 n=c#6 v=72
69480 Par ch=1 c=64 v=63
69530 On ch=1 n=g5 v=52
69544 Par ch=1 c=64 v=0
69576 Par ch=1 c=64 v=63
69582 On ch=1 n=e6 v=91
69632 On ch=1 n=f#6 v=0
69632 Par ch=1 c=64 v=127
69816 On ch=1 n=d6 v=92
69838 On ch=1 n=e5 v=51
69862 On ch=1 n=g5 v=0
69890 On ch=1 n=a4 v=0
69898 On ch=1 n=e6 v=0
70048 On ch=1 n=e6 v=94
70066 On ch=1 n=c#6 v=0
70084 On ch=1 n=g5 v=52
70116 On ch=1 n=d6 v=0
70226 On ch=1 n=g5 v=0
70298 On ch=1 n=e6 v=0
70338 On ch=1 n=e5 v=0
70386 On ch=1 n=e6 v=84
70418 On ch=1 n=c#6 v=65
70420 On ch=1 n=d5 v=44
70426 On ch=1 n=g5 v=26
70590 Par ch=1 c=64 v=63
70638 Par ch=1 c=64 v=0
70966 Par ch=1 c=64 v=63
70984 Par ch=1 c=64 v=127
71322 On ch=1 n=c#6 v=0
71552 On ch=1 n=e6 v=0
71572 On ch=1 n=d6 v=46
71596 On ch=1 n=f#5 v=46
71680 On ch=1 n=g5 v=0
71754 Par ch=1 c=64 v=63
71886 Par ch=1 c=64 v=127
71902 On ch=1 n=d#6 v=61
72000 On ch=1 n=d6 v=0
72168 On ch=1 n=e6 v=63
72208 On ch=1 n=d#6 v=0
72398 On ch=1 n=d#6 v=72
72450 On ch=1 n=e6 v=0
72646 Par ch=1 c=64 v=63
72682 On ch=1 n=f#6 v=67
72720 On ch=1 n=d#6 v=0
72768 On ch=1 n=f#5 v=0
72798 On ch=1 n=d5 v=0
72830 Par ch=1 c=64 v=0
72954 On ch=1 n=e6 v=55
72990 On ch=1 n=f#6 v=0
73190 Par ch=1 c=64 v=63
73250 On ch=1 n=d6 v=48
73422 Par ch=1 c=64 v=0
73430 On ch=1 n=e6 v=0
73574 On ch=1 n=c6 v=42
73592 On ch=1 n=d6 v=0
73978 Par ch=1 c=64 v=63
73988 On ch=1 n=g4 v=22
74012 On ch=1 n=b5 v=57
74060 Par ch=1 c=64 v=127
74064 On ch=1 n=c6 v=0
74308 On ch=1 n=d5 v=35
74572 On ch=1 n=b4 v=38
74614 On ch=1 n=d5 v=0
74826 On ch=1 n=d5 v=40
74848 On ch=1 n=g4 v=0
75062 On ch=1 n=g4 v=32
75084 On ch=1 n=d5 v=0
75100 On ch=1 n=b4 v=0
75310 On ch=1 n=b5 v=0
75310 On ch=1 n=g5 v=51
75318 On ch=1 n=d5 v=28
75332 Par ch=1 c=64 v=63
75408 Par ch=1 c=64 v=127
75558 On ch=1 n=b4 v=39
75576 On ch=1 n=b5 v=53
75586 On ch=1 n=d5 v=0
75638 On ch=1 n=g5 v=0
75790 On ch=1 n=d5 v=43
75806 On ch=1 n=d6 v=67
75842 On ch=1 n=b5 v=0
75860 On ch=1 n=b4 v=0
75890 Par ch=1 c=64 v=63
75988 On ch=1 n=g4 v=0
76040 On ch=1 n=c6 v=75
76042 On ch=1 n=a4 v=32
76052 On ch=1 n=d5 v=0
76090 On ch=1 n=d6 v=0
76098 Par ch=1 c=64 v=127
76272 On ch=1 n=d5 v=45
76274 On ch=1 n=a5 v=62
76322 On ch=1 n=c6 v=0
76360 Par ch=1 c=64 v=63
76494 Par ch=1 c=64 v=0
76504 On ch=1 n=c6 v=68
76518 On ch=1 n=d5 v=0
76518 On ch=1 n=c5 v=47
76542 On ch=1 n=a5 v=0
76608 On ch=1 n=a4 v=0
76728 On ch=1 n=d5 v=42
76738 On ch=1 n=e6 v=63
76752 On ch=1 n=c5 v=0
76780 On ch=1 n=c6 v=0
76968 On ch=1 n=g4 v=39
77002 On ch=1 n=d6 v=65
77020 On ch=1 n=d5 v=0
77050 On ch=1 n=e6 v=0
77212 Par ch=1 c=64 v=63
77242 Par ch=1 c=64 v=127
77248 On ch=1 n=d5 v=35
77486 On ch=1 n=b4 v=42
77506 On ch=1 n=d5 v=0
77722 On ch=1 n=b5 v=55
77722 On ch=1 n=d5 v=33
77732 On ch=1 n=d6 v=0
77740 On ch=1 n=g4 v=0
77956 Par ch=1 c=64 v=63
77968 On ch=1 n=g5 v=54
77970 On ch=1 n=b5 v=0
77980 On ch=1 n=g4 v=31
77994 On ch=1 n=d5 v=0
78006 On ch=1 n=b4 v=0
78068 Par ch=1 c=64 v=0
78086 On ch=1 n=g5 v=0
78192 On ch=1 n=g5 v=54
78194 On ch=1 n=d5 v=42
78272 On ch=1 n=g5 v=0
78420 On ch=1 n=a5 v=54
78434 On ch=1 n=b4 v=39
78436 On ch=1 n=d5 v=0
78536 On ch=1 n=a5 v=0
78630 On ch=1 n=d5 v=44
78644 On ch=1 n=b5 v=58
78648 On ch=1 n=g4 v=0
78664 On ch=1 n=b4 v=0
78726 On ch=1 n=b5 v=0
78874 On ch=1 n=g4 v=50
78878 On ch=1 n=c6 v=65
78880 On ch=1 n=d5 v=0
79000 On ch=1 n=c6 v=0
79088 On ch=1 n=d5 v=46
79116 On ch=1 n=d6 v=71
79224 On ch=1 n=d6 v=0
79346 On ch=1 n=e6 v=69
79360 On ch=1 n=d5 v=0
79380 On ch=1 n=b4 v=38
79466 On ch=1 n=e6 v=0
79564 On ch=1 n=f#6 v=72
79598 On ch=1 n=g4 v=0
79610 On ch=1 n=d5 v=40
79694 On ch=1 n=f#6 v=0
79826 Par ch=1 c=64 v=63
79838 On ch=1 n=d5 v=0
79854 On ch=1 n=b4 v=0
79856 On ch=1 n=g4 v=31
79862 On ch=1 n=g6 v=66
79942 Par ch=1 c=64 v=127
80122 On ch=1 n=e5 v=28
80134 On ch=1 n=f#6 v=76
80218 On ch=1 n=g6 v=0
80380 On ch=1 n=g6 v=84
80384 On ch=1 n=c5 v=48
80398 On ch=1 n=e5 v=0
80460 On ch=1 n=f#6 v=0
80588 On ch=1 n=f#6 v=94
80604 On ch=1 n=e5 v=42
80622 On ch=1 n=g4 v=0
80706 On ch=1 n=g6 v=0
80830 On ch=1 n=g4 v=46
80834 On ch=1 n=a6 v=83
80872 On ch=1 n=c5 v=0
80882 On ch=1 n=e5 v=0
80924 On ch=1 n=f#6 v=0
80996 Par ch=1 c=64 v=63
81060 On ch=1 n=g6 v=96
81062 On ch=1 n=e5 v=50
81090 Par ch=1 c=64 v=0
81130 On ch=1 n=a6 v=0
81212 Par ch=1 c=64 v=63
81258 Par ch=1 c=64 v=127
81300 On ch=1 n=f#6 v=93
81334 On ch=1 n=c5 v=60
81340 On ch=1 n=e5 v=0
81400 On ch=1 n=g6 v=0
81524 On ch=1 n=g6 v=87
81548 On ch=1 n=g4 v=0
81550 On ch=1 n=e5 v=50
81594 On ch=1 n=c5 v=0
81602 On ch=1 n=f#6 v=0
81712 Par ch=1 c=64 v=63
81748 On ch=1 n=g4 v=52
81750 On ch=1 n=f#6 v=98
81762 Par ch=1 c=64 v=0
81836 On ch=1 n=e5 v=0
81836 On ch=1 n=g6 v=0
81938 Par ch=1 c=64 v=63
81964 Par ch=1 c=64 v=127
81980 On ch=1 n=e6 v=87
82002 On ch=1 n=c#5 v=77
82022 On ch=1 n=f#6 v=0
82200 Par ch=1 c=64 v=63
82216 On ch=1 n=d6 v=82
82230 On ch=1 n=a#4 v=65
82238 On ch=1 n=c#5 v=0
82240 On ch=1 n=e6 v=0
82240 Par ch=1 c=64 v=0
82370 Par ch=1 c=64 v=63
82398 Par ch=1 c=64 v=127
82426 On ch=1 n=g4 v=0
82436 On ch=1 n=c#6 v=88
82442 On ch=1 n=c#5 v=75
82466 On ch=1 n=d6 v=0
82514 On ch=1 n=a#4 v=0
82678 On ch=1 n=d6 v=72
82680 On ch=1 n=g4 v=46
82704 On ch=1 n=c#6 v=0
82706 Par ch=1 c=64 v=63
82720 On ch=1 n=c#5 v=0
82750 Par ch=1 c=64 v=0
82906 On ch=1 n=b5 v=72
82908 On ch=1 n=d5 v=49
82950 On ch=1 n=d6 v=0
83142 On ch=1 n=d6 v=71
83150 On ch=1 n=b4 v=49
83162 On ch=1 n=b5 v=0
83188 On ch=1 n=d5 v=0
83358 On ch=1 n=b5 v=68
83384 On ch=1 n=d5 v=45
83394 On ch=1 n=d6 v=0
83426 On ch=1 n=g4 v=0
83550 On ch=1 n=b4 v=0
83620 On ch=1 n=g5 v=53
83624 On ch=1 n=b5 v=0
83624 On ch=1 n=g4 v=36
83660 On ch=1 n=d5 v=0
83720 Par ch=1 c=64 v=63
83750 Par ch=1 c=64 v=127
83850 On ch=1 n=d5 v=43
84038 Par ch=1 c=64 v=63
84126 On ch=1 n=b4 v=32
84132 On ch=1 n=d5 v=0
84162 Par ch=1 c=64 v=127
84292 On ch=1 n=g4 v=0
84330 On ch=1 n=d5 v=40
84466 On ch=1 n=b4 v=0
84480 On ch=1 n=g5 v=0
84544 On ch=1 n=g4 v=43
84568 On ch=1 n=d5 v=0
84700 Par ch=1 c=64 v=63
84782 On ch=1 n=d5 v=44
84914 Par ch=1 c=64 v=0
85042 On ch=1 n=b4 v=36
85064 On ch=1 n=g4 v=0
85078 On ch=1 n=d5 v=0
85290 On ch=1 n=d5 v=35
85372 On ch=1 n=b4 v=0
85466 Par ch=1 c=64 v=63
85542 On ch=1 n=c6 v=50
85546 On ch=1 n=a4 v=33
85560 On ch=1 n=d5 v=0
85580 Par ch=1 c=64 v=127
85796 On ch=1 n=a5 v=61
85802 On ch=1 n=d5 v=42
85852 On ch=1 n=c6 v=0
86052 On ch=1 n=c6 v=72
86056 On ch=1 n=d5 v=0
86072 On ch=1 n=c5 v=43
86094 On ch=1 n=a5 v=0
86204 On ch=1 n=a4 v=0
86256 On ch=1 n=a5 v=75
86270 On ch=1 n=d5 v=44
86306 On ch=1 n=c6 v=0
86492 Par ch=1 c=64 v=63
86494 On ch=1 n=f#5 v=88
86506 On ch=1 n=c5 v=0
86514 On ch=1 n=d5 v=0
86524 On ch=1 n=a4 v=35
86558 On ch=1 n=a5 v=0
86558 Par ch=1 c=64 v=0
86654 Par ch=1 c=64 v=63
86690 Par ch=1 c=64 v=127
86716 On ch=1 n=f#5 v=0
86734 On ch=1 n=d5 v=48
86746 On ch=1 n=a5 v=74
86972 On ch=1 n=g#5 v=88
86998 On ch=1 n=d5 v=0
87002 On ch=1 n=c5 v=40
87010 On ch=1 n=a5 v=0
87098 Par ch=1 c=64 v=63
87174 On ch=1 n=a4 v=0
87174 On ch=1 n=a5 v=85
87176 Par ch=1 c=64 v=0
87190 On ch=1 n=d5 v=52
87192 On ch=1 n=g#5 v=0
87296 Par ch=1 c=64 v=63
87338 Par ch=1 c=64 v=127
87410 On ch=1 n=a#5 v=86
87416 On ch=1 n=a4 v=53
87426 On ch=1 n=c5 v=0
87442 On ch=1 n=d5 v=0
87456 On ch=1 n=a5 v=0
87634 On ch=1 n=d5 v=68
87636 On ch=1 n=b5 v=83
87640 Par ch=1 c=64 v=63
87654 On ch=1 n=a#5 v=0
87684 Par ch=1 c=64 v=0
87864 On ch=1 n=c6 v=92
87884 Par ch=1 c=64 v=63
87894 On ch=1 n=c5 v=61
87896 On ch=1 n=d5 v=0
87898 On ch=1 n=b5 v=0
87904 Par ch=1 c=64 v=127
88078 On ch=1 n=a4 v=0
88080 On ch=1 n=c#6 v=93
88088 On ch=1 n=d5 v=63
88100 On ch=1 n=c5 v=0
88114 On ch=1 n=c6 v=0
88232 Par ch=1 c=64 v=63
88276 Par ch=1 c=64 v=0
88298 On ch=1 n=d6 v=87
88314 On ch=1 n=g4 v=60
88332 Par ch=1 c=64 v=63
88358 On ch=1 n=c#6 v=0
88362 On ch=1 n=d5 v=0
88370 Par ch=1 c=64 v=127
88538 On ch=1 n=b5 v=82
88538 On ch=1 n=d5 v=60
88582 On ch=1 n=d6 v=0
88684 Par ch=1 c=64 v=63
88706 Par ch=1 c=64 v=127
88768 On ch=1 n=d6 v=96
88768 On ch=1 n=b4 v=68
88800 On ch=1 n=d5 v=0
88834 On ch=1 n=b5 v=0
88998 On ch=1 n=g4 v=0
89006 On ch=1 n=b5 v=97
89018 On ch=1 n=d5 v=73
89068 On ch=1 n=b4 v=0
89068 On ch=1 n=d6 v=0
89250 On ch=1 n=e4 v=84
89262 On ch=1 n=d5 v=0
89278 On ch=1 n=g6 v=102
89284 Par ch=1 c=64 v=63
89328 Par ch=1 c=64 v=0
89354 On ch=1 n=b5 v=0
89400 Par ch=1 c=64 v=63
89426 Par ch=1 c=64 v=127
89488 On ch=1 n=b4 v=65
89682 On ch=1 n=e4 v=0
89750 On ch=1 n=g4 v=65
89798 On ch=1 n=b4 v=0
89864 On ch=1 n=g6 v=0
89966 On ch=1 n=b4 v=80
89970 On ch=1 n=g4 v=0
90238 On ch=1 n=b3 v=86
90248 On ch=1 n=b4 v=0
90334 Par ch=1 c=64 v=63
90360 Par ch=1 c=64 v=0
90484 Par ch=1 c=64 v=63
90504 Par ch=1 c=64 v=127
90514 On ch=1 n=g4 v=53
90522 On ch=1 n=b6 v=91
90660 On ch=1 n=b3 v=0
90780 On ch=1 n=f#6 v=97
90798 On ch=1 n=d4 v=86
90810 On ch=1 n=b6 v=0
90836 On ch=1 n=g4 v=0
90998 On ch=1 n=g4 v=64
91016 On ch=1 n=g6 v=90
91018 On ch=1 n=d4 v=0
91050 On ch=1 n=f#6 v=0
91230 On ch=1 n=c4 v=71
91242 On ch=1 n=d#6 v=96
91274 On ch=1 n=g4 v=0
91282 On ch=1 n=g6 v=0
91302 Par ch=1 c=64 v=63
91332 Par ch=1 c=64 v=0
91456 On ch=1 n=a4 v=66
91464 On ch=1 n=e6 v=87
91508 On ch=1 n=d#6 v=0
91514 Par ch=1 c=64 v=63
91536 Par ch=1 c=64 v=127
91620 On ch=1 n=c4 v=0
91696 On ch=1 n=c6 v=79
91710 On ch=1 n=e6 v=0
91732 On ch=1 n=e4 v=68
91740 On ch=1 n=a4 v=0
91898 On ch=1 n=a5 v=77
91906 On ch=1 n=a4 v=52
91912 On ch=1 n=e4 v=0
91916 On ch=1 n=c6 v=0
92124 Par ch=1 c=64 v=63
92144 On ch=1 n=d4 v=66
92152 On ch=1 n=g5 v=76
92152 Par ch=1 c=64 v=0
92158 On ch=1 n=a4 v=0
92194 On ch=1 n=a5 v=0
92378 On ch=1 n=b4 v=62
92420 Par ch=1 c=64 v=63
92432 Par ch=1 c=64 v=127
92440 On ch=1 n=d4 v=0
92648 On ch=1 n=g4 v=57
92658 On ch=1 n=b4 v=0
92664 On ch=1 n=g5 v=0
92848 On ch=1 n=g5 v=84
92858 On ch=1 n=b4 v=54
92862 On ch=1 n=g4 v=0
93088 On ch=1 n=d4 v=64
93090 On ch=1 n=g5 v=0
93092 On ch=1 n=b4 v=0
93092 Par ch=1 c=64 v=63
93108 On ch=1 n=f#5 v=66
93110 On ch=1 n=b5 v=71
93114 Par ch=1 c=64 v=0
93254 Par ch=1 c=64 v=63
93272 Par ch=1 c=64 v=127
93324 On ch=1 n=b5 v=0
93326 On ch=1 n=a5 v=77
93344 On ch=1 n=c5 v=43
93500 Par ch=1 c=64 v=63
93522 Par ch=1 c=64 v=0
93590 On ch=1 n=g5 v=77
93602 On ch=1 n=a4 v=43
93608 On ch=1 n=c5 v=0
93610 On ch=1 n=f#5 v=0
93622 Par ch=1 c=64 v=63
93640 Par ch=1 c=64 v=127
93668 On ch=1 n=a5 v=0
93812 On ch=1 n=a5 v=82
93826 On ch=1 n=c5 v=59
93846 On ch=1 n=g5 v=0
93932 On ch=1 n=c5 v=0
93932 On ch=1 n=d4 v=0
93954 On ch=1 n=a5 v=0
94016 On ch=1 n=a4 v=0
94160 On ch=1 n=a5 v=71
94170 On ch=1 n=f#5 v=61
94172 On ch=1 n=c5 v=38
94182 On ch=1 n=g4 v=29
94250 Par ch=1 c=64 v=63
94268 Par ch=1 c=64 v=0
94462 Par ch=1 c=64 v=63
94480 Par ch=1 c=64 v=127
95154 On ch=1 n=c5 v=0
95334 On ch=1 n=f#5 v=0
95466 On ch=1 n=g5 v=54
95492 On ch=1 n=b4 v=34
95500 On ch=1 n=a5 v=0
95536 Par ch=1 c=64 v=63
95578 Par ch=1 c=64 v=0
95604 Par ch=1 c=64 v=63
95650 Par ch=1 c=64 v=127
95782 On ch=1 n=g4 v=0
95786 On ch=1 n=b4 v=0
96890 On ch=1 n=g5 v=0
97154 Par ch=1 c=64 v=63
97264 Par ch=1 c=64 v=0
98330 Par ch=1 c=64 v=63
98474 Par ch=1 c=64 v=127
98490 On ch=1 n=g4 v=27
98526 On ch=1 n=a#5 v=48
98870 On ch=1 n=d5 v=33
99132 On ch=1 n=a#4 v=43
99178 On ch=1 n=d5 v=0
99384 On ch=1 n=d5 v=34
99412 On ch=1 n=g4 v=0
99620 On ch=1 n=g4 v=26
99638 On ch=1 n=d5 v=0
99690 On ch=1 n=a#4 v=0
99860 On ch=1 n=a5 v=51
99880 On ch=1 n=d5 v=33
99954 On ch=1 n=a#5 v=0
99970 Par ch=1 c=64 v=63
100072 Par ch=1 c=64 v=127
100138 On ch=1 n=a#4 v=39
100172 On ch=1 n=c6 v=60
100180 On ch=1 n=d5 v=0
100236 On ch=1 n=a5 v=0
100404 On ch=1 n=a#5 v=72
100410 On ch=1 n=d5 v=29
100468 On ch=1 n=g4 v=0
100538 On ch=1 n=a#5 v=0
100540 On ch=1 n=c6 v=0
100630 On ch=1 n=a#5 v=71
100652 On ch=1 n=a4 v=37
100666 On ch=1 n=d5 v=0
100742 On ch=1 n=a#4 v=0
100778 Par ch=1 c=64 v=63
100830 Par ch=1 c=64 v=0
100862 On ch=1 n=a5 v=71
100872 Par ch=1 c=64 v=63
100876 On ch=1 n=d5 v=49
100926 On ch=1 n=a#5 v=0
100934 Par ch=1 c=64 v=127
101128 On ch=1 n=g5 v=68
101128 On ch=1 n=c5 v=49
101136 On ch=1 n=d5 v=0
101136 On ch=1 n=a5 v=0
101186 Par ch=1 c=64 v=63
101270 Par ch=1 c=64 v=127
101344 On ch=1 n=d5 v=40
101354 On ch=1 n=f#5 v=64
101366 On ch=1 n=c5 v=0
101378 On ch=1 n=a4 v=0
101384 On ch=1 n=g5 v=0
101618 On ch=1 n=g5 v=64
101618 On ch=1 n=g4 v=31
101660 On ch=1 n=d5 v=0
101666 On ch=1 n=f#5 v=0
101678 Par ch=1 c=64 v=63
101714 Par ch=1 c=64 v=0
101828 Par ch=1 c=64 v=63
101860 Par ch=1 c=64 v=127
101880 On ch=1 n=d5 v=44
102048 Par ch=1 c=64 v=63
102098 Par ch=1 c=64 v=127
102108 On ch=1 n=a#4 v=54
102160 On ch=1 n=d5 v=0
102352 On ch=1 n=a#5 v=70
102372 On ch=1 n=d5 v=34
102430 On ch=1 n=g4 v=0
102432 On ch=1 n=g5 v=0
102628 On ch=1 n=g4 v=38
102638 On ch=1 n=d6 v=69
102652 Par ch=1 c=64 v=63
102666 On ch=1 n=d5 v=0
102694 Par ch=1 c=64 v=0
102704 On ch=1 n=a#5 v=0
102742 On ch=1 n=a#4 v=0
102872 On ch=1 n=d5 v=31
103124 On ch=1 n=a#4 v=43
103198 On ch=1 n=d5 v=0
103296 Par ch=1 c=64 v=63
103312 Par ch=1 c=64 v=127
103402 On ch=1 n=d5 v=31
103468 On ch=1 n=g4 v=0
103658 On ch=1 n=g4 v=37
103696 On ch=1 n=d5 v=0
103700 On ch=1 n=a#4 v=0
103844 Par ch=1 c=64 v=63
103856 On ch=1 n=d6 v=0
103886 On ch=1 n=d5 v=35
103890 Par ch=1 c=64 v=0
104144 On ch=1 n=a#4 v=46
104204 On ch=1 n=d5 v=0
104260 Par ch=1 c=64 v=63
104276 Par ch=1 c=64 v=127
104406 On ch=1 n=g4 v=0
104426 On ch=1 n=a#4 v=0
104432 On ch=1 n=d5 v=26
104740 On ch=1 n=f#4 v=42
104748 On ch=1 n=d6 v=66
104794 On ch=1 n=d5 v=0
104874 Par ch=1 c=64 v=63
104916 Par ch=1 c=64 v=0
104944 Par ch=1 c=64 v=63
105000 Par ch=1 c=64 v=127
105044 On ch=1 n=d5 v=47
105298 On ch=1 n=a4 v=41
105330 On ch=1 n=d5 v=0
105514 On ch=1 n=f#4 v=0
105516 On ch=1 n=d5 v=48
105756 On ch=1 n=f#4 v=63
105782 On ch=1 n=d5 v=0
105860 On ch=1 n=a4 v=0
105996 On ch=1 n=d5 v=41
106012 On ch=1 n=c#6 v=86
106040 Par ch=1 c=64 v=63
106064 On ch=1 n=d6 v=0
106072 Par ch=1 c=64 v=0
106154 Par ch=1 c=64 v=63
106190 Par ch=1 c=64 v=127
106262 On ch=1 n=a4 v=34
106280 On ch=1 n=d5 v=0
106292 On ch=1 n=d#6 v=89
106356 On ch=1 n=c#6 v=0
106476 On ch=1 n=f#4 v=0
106488 On ch=1 n=d5 v=46
106510 On ch=1 n=d6 v=81
106532 On ch=1 n=a4 v=0
106536 On ch=1 n=d#6 v=0
106668 On ch=1 n=d6 v=0
106732 On ch=1 n=d6 v=77
106740 On ch=1 n=d4 v=63
106770 On ch=1 n=d5 v=0
106882 Par ch=1 c=64 v=63
106926 Par ch=1 c=64 v=0
106960 On ch=1 n=d5 v=48
106966 On ch=1 n=c6 v=87
107038 On ch=1 n=d6 v=0
107088 Par ch=1 c=64 v=63
107112 Par ch=1 c=64 v=127
107202 On ch=1 n=f#4 v=66
107208 On ch=1 n=a#5 v=88
107230 On ch=1 n=d5 v=0
107250 On ch=1 n=c6 v=0
107298 On ch=1 n=d4 v=0
107422 On ch=1 n=d5 v=57
107428 On ch=1 n=a5 v=84
107464 On ch=1 n=f#4 v=0
107492 On ch=1 n=a#5 v=0
107726 On ch=1 n=g4 v=44
107736 On ch=1 n=a#5 v=88
107802 On ch=1 n=d5 v=0
107844 Par ch=1 c=64 v=63
107878 Par ch=1 c=64 v=0
107910 On ch=1 n=a5 v=0
108018 On ch=1 n=d5 v=58
108072 Par ch=1 c=64 v=63
108090 Par ch=1 c=64 v=127
108278 On ch=1 n=a#4 v=76
108340 On ch=1 n=d5 v=0
108496 On ch=1 n=d6 v=86
108516 On ch=1 n=a#5 v=0
108524 On ch=1 n=d5 v=49
108588 On ch=1 n=g4 v=0
108780 On ch=1 n=g4 v=42
108796 On ch=1 n=g6 v=87
108816 Par ch=1 c=64 v=63
108860 Par ch=1 c=64 v=0
108874 On ch=1 n=d5 v=0
108910 On ch=1 n=d6 v=0
109034 Par ch=1 c=64 v=63
109048 Par ch=1 c=64 v=127
109072 On ch=1 n=d5 v=62
109088 On ch=1 n=a#4 v=0
109302 On ch=1 n=a#4 v=78
109382 On ch=1 n=d5 v=0
109412 On ch=1 n=g4 v=0
109540 On ch=1 n=d5 v=76
109726 Par ch=1 c=64 v=63
109766 On ch=1 n=g4 v=71
109768 Par ch=1 c=64 v=0
109774 On ch=1 n=a#4 v=0
109790 On ch=1 n=d5 v=0
109842 Par ch=1 c=64 v=63
109888 Par ch=1 c=64 v=127
109988 On ch=1 n=d#5 v=85
110050 On ch=1 n=g6 v=0
110150 On ch=1 n=g4 v=0
110260 On ch=1 n=a#4 v=80
110326 On ch=1 n=d#5 v=0
110468 On ch=1 n=d#5 v=98
110528 On ch=1 n=a#4 v=0
110756 On ch=1 n=f6 v=106
110762 On ch=1 n=a4 v=70
110774 On ch=1 n=d#5 v=0
110838 Par ch=1 c=64 v=63
110864 Par ch=1 c=64 v=0
111100 On ch=1 n=f5 v=72
111346 Par ch=1 c=64 v=63
111358 On ch=1 n=c5 v=77
111360 Par ch=1 c=64 v=127
111422 On ch=1 n=f5 v=0
111456 On ch=1 n=a4 v=0
111590 On ch=1 n=f5 v=77
111606 On ch=1 n=c5 v=0
111826 On ch=1 n=a4 v=88
111860 On ch=1 n=f5 v=0
112064 On ch=1 n=a6 v=104
112066 On ch=1 n=f5 v=57
112120 On ch=1 n=f6 v=0
112172 On ch=1 n=a4 v=0
112324 On ch=1 n=c7 v=98
112340 On ch=1 n=c5 v=73
112398 On ch=1 n=a6 v=0
112400 On ch=1 n=f5 v=0
112556 On ch=1 n=a#6 v=105
112572 On ch=1 n=f5 v=71
112626 On ch=1 n=c7 v=0
112636 On ch=1 n=c5 v=0
112776 Par ch=1 c=64 v=63
112788 On ch=1 n=a6 v=101
112798 On ch=1 n=a4 v=71
112804 Par ch=1 c=64 v=0
112844 On ch=1 n=f5 v=0
112872 On ch=1 n=a#6 v=0
112990 Par ch=1 c=64 v=63
112994 On ch=1 n=g6 v=101
113004 Par ch=1 c=64 v=127
113004 On ch=1 n=f5 v=66
113066 On ch=1 n=a6 v=0
113236 On ch=1 n=f6 v=96
113240 On ch=1 n=c5 v=58
113244 On ch=1 n=f5 v=0
113280 On ch=1 n=g6 v=0
113298 Par ch=1 c=64 v=63
113342 Par ch=1 c=64 v=0
113350 On ch=1 n=a4 v=0
113472 On ch=1 n=f5 v=59
113472 On ch=1 n=d#6 v=104
113524 On ch=1 n=f6 v=0
113536 On ch=1 n=c5 v=0
113712 On ch=1 n=d6 v=89
113726 On ch=1 n=a#4 v=85
113762 On ch=1 n=d#6 v=0
113772 On ch=1 n=f5 v=0
113862 Par ch=1 c=64 v=63
113874 Par ch=1 c=64 v=127
113968 On ch=1 n=f5 v=49
114054 On ch=1 n=a#4 v=0
114202 On ch=1 n=d5 v=83
114226 On ch=1 n=f5 v=0
114426 On ch=1 n=d5 v=0
114438 On ch=1 n=f5 v=67
114668 On ch=1 n=g4 v=71
114702 Par ch=1 c=64 v=63
114704 On ch=1 n=f5 v=0
114824 Par ch=1 c=64 v=127
114918 On ch=1 n=d5 v=63
114932 On ch=1 n=g6 v=84
114988 On ch=1 n=d6 v=0
115100 Par ch=1 c=64 v=63
115120 Par ch=1 c=64 v=0
115188 On ch=1 n=a#6 v=88
115192 Par ch=1 c=64 v=63
115200 On ch=1 n=a#4 v=63
115222 Par ch=1 c=64 v=127
115258 On ch=1 n=g6 v=0
115282 On ch=1 n=d5 v=0
115410 On ch=1 n=g4 v=0
115424 On ch=1 n=a6 v=91
115428 On ch=1 n=a#4 v=0
115442 On ch=1 n=d5 v=76
115492 On ch=1 n=a#6 v=0
115630 On ch=1 n=d5 v=0
115638 On ch=1 n=d4 v=79
115650 On ch=1 n=g6 v=87
115676 Par ch=1 c=64 v=63
115692 Par ch=1 c=64 v=0
115724 On ch=1 n=a6 v=0
115802 Par ch=1 c=64 v=63
115824 Par ch=1 c=64 v=127
115868 On ch=1 n=a#4 v=73
115880 On ch=1 n=f6 v=81
115904 On ch=1 n=g6 v=0
116108 On ch=1 n=d#6 v=92
116120 On ch=1 n=a#4 v=0
116122 On ch=1 n=f4 v=59
116126 On ch=1 n=d4 v=0
116154 On ch=1 n=f6 v=0
116172 Par ch=1 c=64 v=63
116204 Par ch=1 c=64 v=0
116236 Par ch=1 c=64 v=63
116286 Par ch=1 c=64 v=127
116306 On ch=1 n=a#4 v=65
116318 On ch=1 n=d6 v=80
116326 On ch=1 n=f4 v=0
116358 On ch=1 n=d#6 v=0
116560 Par ch=1 c=64 v=63
116566 On ch=1 n=d#4 v=72
116570 On ch=1 n=b5 v=87
116572 On ch=1 n=d6 v=0
116590 On ch=1 n=a#4 v=0
116600 Par ch=1 c=64 v=0
116742 Par ch=1 c=64 v=63
116782 Par ch=1 c=64 v=127
116792 On ch=1 n=c5 v=57
116794 On ch=1 n=c6 v=94
116818 On ch=1 n=b5 v=0
116908 On ch=1 n=d#4 v=0
116970 Par ch=1 c=64 v=63
117014 Par ch=1 c=64 v=127
117020 On ch=1 n=d#6 v=89
117046 On ch=1 n=c6 v=0
117046 On ch=1 n=g4 v=51
117082 On ch=1 n=c5 v=0
117248 On ch=1 n=g4 v=0
117252 On ch=1 n=g6 v=79
117272 On ch=1 n=c5 v=60
117286 On ch=1 n=d#6 v=0
117496 On ch=1 n=c5 v=0
117528 On ch=1 n=f4 v=46
117538 Par ch=1 c=64 v=63
117540 On ch=1 n=a#5 v=77
117542 On ch=1 n=g6 v=0
117554 Par ch=1 c=64 v=0
117756 On ch=1 n=d5 v=42
117986 On ch=1 n=a#4 v=69
118034 Par ch=1 c=64 v=63
118042 On ch=1 n=d5 v=0
118044 On ch=1 n=f4 v=0
118050 Par ch=1 c=64 v=127
118124 On ch=1 n=a#5 v=0
118244 On ch=1 n=a#5 v=91
118280 On ch=1 n=d5 v=41
118298 On ch=1 n=a#4 v=0
118486 On ch=1 n=d5 v=0
118500 On ch=1 n=f4 v=55
118512 On ch=1 n=d6 v=79
118556 Par ch=1 c=64 v=63
118560 On ch=1 n=a#5 v=0
118576 Par ch=1 c=64 v=0
118752 On ch=1 n=d#5 v=65
118756 On ch=1 n=c6 v=84
118792 On ch=1 n=f4 v=0
118820 On ch=1 n=d6 v=0
118862 Par ch=1 c=64 v=63
118894 Par ch=1 c=64 v=127
118992 On ch=1 n=a#5 v=95
119020 On ch=1 n=c5 v=52
119032 On ch=1 n=d#5 v=0
119078 On ch=1 n=c6 v=0
119232 On ch=1 n=a#5 v=0
119238 On ch=1 n=c6 v=97
119242 On ch=1 n=d#5 v=65
119250 On ch=1 n=c5 v=0
119408 On ch=1 n=d#5 v=0
119438 On ch=1 n=c6 v=0
119596 On ch=1 n=d#5 v=62
119600 On ch=1 n=c6 v=91
119608 On ch=1 n=a#4 v=55
119618 On ch=1 n=a5 v=63
119860 Par ch=1 c=64 v=63
119902 Par ch=1 c=64 v=0
120456 Par ch=1 c=64 v=63
120468 Par ch=1 c=64 v=127
120854 On ch=1 n=a#5 v=60
120878 On ch=1 n=d5 v=41
120900 On ch=1 n=d#5 v=0
120920 On ch=1 n=a5 v=0
120956 On ch=1 n=c6 v=0
121046 Par ch=1 c=64 v=63
121066 Par ch=1 c=64 v=0
121146 On ch=1 n=a5 v=65
121164 Par ch=1 c=64 v=63
121196 Par ch=1 c=64 v=127
121208 On ch=1 n=a#5 v=0
121404 On ch=1 n=c6 v=66
121572 On ch=1 n=a5 v=0
121598 On ch=1 n=a#5 v=76
121726 On ch=1 n=c6 v=0
121746 Par ch=1 c=64 v=63
121834 Par ch=1 c=64 v=0
121836 On ch=1 n=d6 v=84
121896 On ch=1 n=a#5 v=0
121896 On ch=1 n=d5 v=0
121964 On ch=1 n=a#4 v=0
122088 On ch=1 n=c6 v=77
122354 On ch=1 n=d#6 v=88
122398 On ch=1 n=d6 v=0
122416 On ch=1 n=c6 v=0
122604 On ch=1 n=d6 v=90
122734 On ch=1 n=d#6 v=0
122958 On ch=1 n=f6 v=101
122962 Par ch=1 c=64 v=63
122966 On ch=1 n=g#4 v=72
123036 On ch=1 n=d6 v=0
123036 Par ch=1 c=64 v=127
123276 On ch=1 n=f5 v=67
123512 On ch=1 n=c5 v=78
123532 On ch=1 n=g#4 v=0
123552 On ch=1 n=f5 v=0
123756 On ch=1 n=f5 v=71
123994 On ch=1 n=g4 v=82
124044 On ch=1 n=f5 v=0
124076 On ch=1 n=c5 v=0
124188 Par ch=1 c=64 v=63
124226 Par ch=1 c=64 v=0
124268 On ch=1 n=g#6 v=94
124290 On ch=1 n=d5 v=56
124328 On ch=1 n=f6 v=0
124368 Par ch=1 c=64 v=63
124394 Par ch=1 c=64 v=127
124504 On ch=1 n=g6 v=98
124508 On ch=1 n=b4 v=76
124534 On ch=1 n=d5 v=0
124584 On ch=1 n=g#6 v=0
124722 On ch=1 n=g4 v=0
124722 On ch=1 n=f6 v=103
124722 On ch=1 n=d5 v=85
124736 On ch=1 n=b4 v=0
124772 On ch=1 n=g6 v=0
124948 On ch=1 n=d#6 v=108
124960 On ch=1 n=f4 v=84
125000 On ch=1 n=f6 v=0
125014 On ch=1 n=d5 v=0
125080 Par ch=1 c=64 v=63
125112 Par ch=1 c=64 v=0
125176 On ch=1 n=d6 v=100
125180 On ch=1 n=d5 v=76
125244 On ch=1 n=d#6 v=0
125292 Par ch=1 c=64 v=63
125330 Par ch=1 c=64 v=127
125382 On ch=1 n=g4 v=81
125396 On ch=1 n=f4 v=0
125412 On ch=1 n=c6 v=92
125426 On ch=1 n=d5 v=0
125438 On ch=1 n=d6 v=0
125586 On ch=1 n=g4 v=0
125600 On ch=1 n=d5 v=81
125606 On ch=1 n=b5 v=103
125660 On ch=1 n=c6 v=0
125834 On ch=1 n=d5 v=0
125844 On ch=1 n=c6 v=106
125844 On ch=1 n=d#4 v=92
125844 Par ch=1 c=64 v=63
125856 On ch=1 n=b5 v=0
125874 Par ch=1 c=64 v=0
126086 On ch=1 n=c5 v=80
126100 Par ch=1 c=64 v=63
126122 Par ch=1 c=64 v=127
126294 On ch=1 n=d#4 v=0
126294 On ch=1 n=g4 v=76
126340 On ch=1 n=c5 v=0
126532 On ch=1 n=c5 v=74
126540 On ch=1 n=d#6 v=108
126560 On ch=1 n=g4 v=0
126570 On ch=1 n=c6 v=0
126790 Par ch=1 c=64 v=63
126800 On ch=1 n=d4 v=78
126822 Par ch=1 c=64 v=0
126822 On ch=1 n=g6 v=97
126846 On ch=1 n=c5 v=0
126866 On ch=1 n=d#6 v=0
126992 Par ch=1 c=64 v=63
127016 Par ch=1 c=64 v=127
127048 On ch=1 n=b4 v=68
127276 On ch=1 n=f4 v=74
127322 On ch=1 n=b4 v=0
127406 Par ch=1 c=64 v=63
127444 Par ch=1 c=64 v=0
127448 On ch=1 n=d4 v=0
127500 On ch=1 n=b4 v=70
127524 On ch=1 n=f4 v=0
127616 Par ch=1 c=64 v=63
127638 Par ch=1 c=64 v=127
127748 On ch=1 n=c4 v=85
127770 On ch=1 n=b4 v=0
127986 On ch=1 n=c5 v=79
128030 On ch=1 n=g6 v=0
128044 On ch=1 n=c4 v=0
128246 On ch=1 n=d#4 v=82
128292 On ch=1 n=c5 v=0
128372 Par ch=1 c=64 v=63
128426 Par ch=1 c=64 v=0
128492 On ch=1 n=c5 v=85
128596 On ch=1 n=d#4 v=0
128782 On ch=1 n=c#4 v=76
128796 On ch=1 n=c5 v=0
128806 On ch=1 n=g6 v=102
128938 Par ch=1 c=64 v=63
128960 Par ch=1 c=64 v=127
129106 On ch=1 n=a#4 v=67
129220 On ch=1 n=c#4 v=0
129368 On ch=1 n=e4 v=75
129410 On ch=1 n=a#4 v=0
129592 On ch=1 n=a#4 v=80
129644 On ch=1 n=e4 v=0
129836 On ch=1 n=d4 v=88
129886 On ch=1 n=a#4 v=0
129948 Par ch=1 c=64 v=63
130050 On ch=1 n=f#6 v=106
130058 On ch=1 n=a#4 v=80
130100 Par ch=1 c=64 v=127
130124 On ch=1 n=g6 v=0
130300 On ch=1 n=a6 v=103
130330 On ch=1 n=g4 v=74
130334 On ch=1 n=d4 v=0
130354 On ch=1 n=f#6 v=0
130396 On ch=1 n=a#4 v=0
130530 On ch=1 n=g6 v=103
130556 On ch=1 n=a#4 v=90
130600 On ch=1 n=a6 v=0
130634 On ch=1 n=g4 v=0
130770 On ch=1 n=a#6 v=104
130786 On ch=1 n=d#4 v=82
130840 On ch=1 n=g6 v=0
130854 On ch=1 n=a#4 v=0
130872 Par ch=1 c=64 v=63
130902 Par ch=1 c=64 v=0
131016 On ch=1 n=c#6 v=101
131020 Par ch=1 c=64 v=63
131028 On ch=1 n=a#4 v=75
131058 Par ch=1 c=64 v=127
131094 On ch=1 n=a#6 v=0
131272 On ch=1 n=a#6 v=107
131280 On ch=1 n=g4 v=57
131300 On ch=1 n=a#4 v=0
131326 On ch=1 n=c#6 v=0
131434 On ch=1 n=d#4 v=0
131546 On ch=1 n=c#6 v=104
131556 On ch=1 n=a#4 v=63
131592 On ch=1 n=a#6 v=0
131646 On ch=1 n=g4 v=0
131754 On ch=1 n=c#6 v=0
131890 On ch=1 n=d4 v=74
131896 On ch=1 n=c#6 v=109
131920 On ch=1 n=a#4 v=0
132116 Par ch=1 c=64 v=63
132136 Par ch=1 c=64 v=0
132194 On ch=1 n=a#4 v=64
132266 Par ch=1 c=64 v=63
132296 Par ch=1 c=64 v=127
132452 On ch=1 n=g4 v=65
132488 On ch=1 n=a#4 v=0
132592 On ch=1 n=d4 v=0
132666 On ch=1 n=a#4 v=84
132766 On ch=1 n=g4 v=0
132938 On ch=1 n=d6 v=81
132940 On ch=1 n=d4 v=57
132986 On ch=1 n=a#4 v=0
133010 On ch=1 n=c#6 v=0
133060 Par ch=1 c=64 v=63
133096 Par ch=1 c=64 v=0
133188 On ch=1 n=a4 v=55
133236 Par ch=1 c=64 v=63
133276 Par ch=1 c=64 v=127
133420 On ch=1 n=f#4 v=61
133462 On ch=1 n=a4 v=0
133584 On ch=1 n=d4 v=0
133670 On ch=1 n=a4 v=53
133740 On ch=1 n=f#4 v=0
133826 Par ch=1 c=64 v=63
133906 On ch=1 n=d4 v=66
133968 On ch=1 n=a4 v=0
133968 Par ch=1 c=64 v=127
134160 On ch=1 n=a4 v=55
134208 On ch=1 n=d6 v=0
134338 On ch=1 n=d4 v=0
134420 On ch=1 n=f#4 v=65
134486 On ch=1 n=a4 v=0
134708 On ch=1 n=a4 v=72
134834 On ch=1 n=f#4 v=0
135088 On ch=1 n=d#6 v=105
135090 On ch=1 n=c4 v=84
135138 On ch=1 n=a4 v=0
135308 Par ch=1 c=64 v=63
135356 Par ch=1 c=64 v=0
135450 Par ch=1 c=64 v=63
135464 On ch=1 n=a4 v=46
135478 Par ch=1 c=64 v=127
135710 On ch=1 n=f#4 v=68
135812 On ch=1 n=a4 v=0
135972 On ch=1 n=a4 v=59
136010 On ch=1 n=c4 v=0
136190 On ch=1 n=c4 v=88
136206 On ch=1 n=f#4 v=0
136232 On ch=1 n=a4 v=0
136404 On ch=1 n=d#6 v=0
136432 On ch=1 n=c6 v=97
136440 On ch=1 n=a4 v=71
136682 On ch=1 n=f#4 v=85
136688 On ch=1 n=a6 v=93
136752 On ch=1 n=a4 v=0
136760 On ch=1 n=c6 v=0
136806 On ch=1 n=c4 v=0
136908 On ch=1 n=f#6 v=103
136924 On ch=1 n=a4 v=76
136954 On ch=1 n=a6 v=0
137128 On ch=1 n=f#4 v=0
137138 On ch=1 n=c7 v=99
137142 On ch=1 n=c4 v=93
137152 On ch=1 n=f#6 v=0
137212 On ch=1 n=a4 v=0
137382 On ch=1 n=a6 v=101
137394 On ch=1 n=a4 v=92
137408 On ch=1 n=c7 v=0
137672 On ch=1 n=d#7 v=107
137680 On ch=1 n=f#4 v=79
137710 On ch=1 n=a6 v=0
137740 On ch=1 n=c4 v=0
137752 On ch=1 n=a4 v=0
137950 On ch=1 n=f#6 v=104
137962 On ch=1 n=d#7 v=0
137980 On ch=1 n=a4 v=71
137998 On ch=1 n=f#4 v=0
138254 On ch=1 n=a#3 v=86
138294 On ch=1 n=a4 v=0
138308 On ch=1 n=d7 v=100
138350 On ch=1 n=f#6 v=0
138522 Par ch=1 c=64 v=63
138546 Par ch=1 c=64 v=0
138602 On ch=1 n=g4 v=68
138740 Par ch=1 c=64 v=63
138758 Par ch=1 c=64 v=127
138818 On ch=1 n=a#3 v=0
138836 On ch=1 n=d4 v=70
138906 On ch=1 n=g4 v=0
139066 On ch=1 n=g4 v=67
139140 On ch=1 n=d4 v=0
139290 On ch=1 n=a#3 v=94
139338 On ch=1 n=g4 v=0
139506 On ch=1 n=a6 v=92
139522 On ch=1 n=d7 v=0
139522 On ch=1 n=g4 v=65
139752 On ch=1 n=a#6 v=96
139762 On ch=1 n=d4 v=75
139774 On ch=1 n=a6 v=0
139808 On ch=1 n=g4 v=0
139848 On ch=1 n=a#3 v=0
139958 On ch=1 n=a#6 v=0
139988 On ch=1 n=f#6 v=95
140010 On ch=1 n=g4 v=67
140102 On ch=1 n=d4 v=0
140118 On ch=1 n=f#6 v=0
140232 On ch=1 n=g6 v=84
140238 On ch=1 n=a#3 v=76
140280 On ch=1 n=g4 v=0
140472 On ch=1 n=g6 v=0
140484 On ch=1 n=g4 v=51
140494 On ch=1 n=c#6 v=83
140552 Par ch=1 c=64 v=63
140596 Par ch=1 c=64 v=0
140628 Par ch=1 c=64 v=63
140692 Par ch=1 c=64 v=127
140764 On ch=1 n=d6 v=84
140774 On ch=1 n=d4 v=58
140802 On ch=1 n=c#6 v=0
140820 On ch=1 n=g4 v=0
140914 On ch=1 n=a#3 v=0
140998 On ch=1 n=a#5 v=93
141006 On ch=1 n=g4 v=45
141030 On ch=1 n=d4 v=0
141060 On ch=1 n=d6 v=0
141166 On ch=1 n=a#5 v=0
141224 On ch=1 n=c4 v=62
141240 On ch=1 n=a#5 v=93
141258 On ch=1 n=g4 v=0
141458 Par ch=1 c=64 v=63
141468 On ch=1 n=a4 v=60
141484 On ch=1 n=a5 v=84
141490 Par ch=1 c=64 v=0
141532 On ch=1 n=a#5 v=0
141722 Par ch=1 c=64 v=63
141726 On ch=1 n=d#4 v=76
141728 On ch=1 n=c6 v=72
141742 Par ch=1 c=64 v=127
141750 On ch=1 n=c4 v=0
141752 On ch=1 n=a5 v=0
141804 On ch=1 n=a4 v=0
141956 On ch=1 n=d#6 v=80
141972 On ch=1 n=d#4 v=0
141980 On ch=1 n=a4 v=36
141998 On ch=1 n=c6 v=0
142218 On ch=1 n=a4 v=0
142220 On ch=1 n=d4 v=54
142226 On ch=1 n=g5 v=76
142238 On ch=1 n=d#6 v=0
142290 Par ch=1 c=64 v=63
142364 Par ch=1 c=64 v=0
142416 Par ch=1 c=64 v=63
142462 On ch=1 n=a#4 v=52
142494 Par ch=1 c=64 v=127
142674 On ch=1 n=d4 v=0
142706 On ch=1 n=g4 v=52
142732 On ch=1 n=a#4 v=0
142748 On ch=1 n=g5 v=0
142962 On ch=1 n=g5 v=72
142982 On ch=1 n=a#4 v=60
143024 On ch=1 n=g4 v=0
143222 On ch=1 n=a#5 v=75
143224 On ch=1 n=a#4 v=0
143250 On ch=1 n=d4 v=52
143300 Par ch=1 c=64 v=63
143330 Par ch=1 c=64 v=0
143360 On ch=1 n=g5 v=0
143468 On ch=1 n=a5 v=66
143470 On ch=1 n=c5 v=67
143528 On ch=1 n=a#5 v=0
143592 Par ch=1 c=64 v=63
143626 Par ch=1 c=64 v=127
143722 On ch=1 n=d4 v=0
143738 On ch=1 n=a4 v=52
143740 On ch=1 n=g5 v=71
143766 On ch=1 n=c5 v=0
143776 On ch=1 n=a5 v=0
143844 Par ch=1 c=64 v=63
143944 Par ch=1 c=64 v=127
144008 On ch=1 n=c5 v=47
144016 On ch=1 n=a5 v=67
144052 On ch=1 n=a4 v=0
144062 On ch=1 n=g5 v=0
144196 On ch=1 n=a5 v=0
144226 On ch=1 n=c5 v=0
144414 On ch=1 n=a5 v=68
144426 On ch=1 n=g4 v=33
144438 On ch=1 n=c5 v=36
144442 On ch=1 n=f#5 v=50
144682 Par ch=1 c=64 v=63
144744 Par ch=1 c=64 v=0
145176 Par ch=1 c=64 v=63
145192 Par ch=1 c=64 v=127
145522 On ch=1 n=f#5 v=0
145868 On ch=1 n=g5 v=53
145870 On ch=1 n=a5 v=0
145874 On ch=1 n=c5 v=0
145884 On ch=1 n=a#4 v=35
146268 On ch=1 n=f#5 v=52
146308 On ch=1 n=g5 v=0
146532 On ch=1 n=f#5 v=0
146538 On ch=1 n=g5 v=53
146770 On ch=1 n=g#5 v=68
146796 On ch=1 n=g5 v=0
146936 On ch=1 n=a#4 v=0
146938 On ch=1 n=g4 v=0
147008 On ch=1 n=a5 v=65
147024 On ch=1 n=g#5 v=0
147196 Par ch=1 c=64 v=63
147272 On ch=1 n=g#5 v=65
147294 On ch=1 n=a5 v=0
147302 Par ch=1 c=64 v=0
147540 On ch=1 n=a5 v=50
147572 On ch=1 n=g#5 v=0
147868 On ch=1 n=a#5 v=45
147958 On ch=1 n=a5 v=0
148356 On ch=1 n=g4 v=19
148360 On ch=1 n=b5 v=60
148364 On ch=1 n=a#5 v=0
148492 Par ch=1 c=64 v=63
148590 Par ch=1 c=64 v=127
148722 On ch=1 n=d5 v=35
148992 On ch=1 n=d5 v=0
148998 On ch=1 n=b4 v=38
149218 On ch=1 n=g4 v=0
149234 On ch=1 n=d5 v=41
149330 On ch=1 n=b4 v=0
149486 On ch=1 n=g4 v=34
149514 On ch=1 n=d5 v=0
149750 On ch=1 n=d5 v=24
149992 On ch=1 n=b4 v=41
150002 On ch=1 n=d5 v=0
150004 On ch=1 n=b5 v=0
150106 On ch=1 n=g4 v=0
150242 On ch=1 n=d5 v=39
150370 On ch=1 n=b4 v=0
150486 On ch=1 n=d6 v=58
150498 On ch=1 n=a4 v=30
150538 On ch=1 n=d5 v=0
150666 Par ch=1 c=64 v=63
150748 On ch=1 n=c6 v=71
150770 On ch=1 n=d5 v=31
150808 On ch=1 n=d6 v=0
150880 Par ch=1 c=64 v=127
150992 On ch=1 n=b5 v=75
151014 On ch=1 n=c5 v=42
151016 On ch=1 n=d5 v=0
151036 On ch=1 n=c6 v=0
151076 On ch=1 n=a4 v=0
151190 On ch=1 n=c6 v=85
151200 On ch=1 n=b5 v=0
151222 On ch=1 n=d5 v=36
151236 On ch=1 n=c5 v=0
151384 Par ch=1 c=64 v=63
151444 On ch=1 n=d6 v=77
151446 On ch=1 n=g4 v=47
151452 Par ch=1 c=64 v=0
151482 On ch=1 n=d5 v=0
151504 On ch=1 n=c6 v=0
151608 Par ch=1 c=64 v=63
151664 Par ch=1 c=64 v=127
151690 On ch=1 n=d5 v=41
151710 Par ch=1 c=64 v=63
151758 Par ch=1 c=64 v=0
151922 On ch=1 n=b4 v=58
151950 On ch=1 n=d5 v=0
151956 On ch=1 n=g4 v=0
151962 Par ch=1 c=64 v=63
152000 Par ch=1 c=64 v=127
152164 On ch=1 n=b5 v=73
152184 On ch=1 n=d5 v=42
152194 On ch=1 n=d6 v=0
152200 On ch=1 n=b4 v=0
152410 On ch=1 n=g5 v=65
152412 On ch=1 n=g4 v=42
152456 On ch=1 n=b5 v=0
152458 On ch=1 n=d5 v=0
152478 Par ch=1 c=64 v=63
152568 Par ch=1 c=64 v=0
152634 On ch=1 n=d5 v=48
152714 On ch=1 n=g4 v=0
152740 Par ch=1 c=64 v=63
152786 Par ch=1 c=64 v=127
152896 On ch=1 n=b4 v=47
152932 On ch=1 n=d5 v=0
153130 On ch=1 n=d5 v=34
153138 On ch=1 n=b4 v=0
153358 On ch=1 n=g4 v=38
153394 On ch=1 n=g5 v=0
153404 On ch=1 n=d5 v=0
153562 Par ch=1 c=64 v=63
153594 On ch=1 n=d5 v=38
153608 On ch=1 n=g4 v=0
153696 Par ch=1 c=64 v=0
153848 On ch=1 n=b4 v=49
153882 On ch=1 n=d5 v=0
154010 Par ch=1 c=64 v=63
154076 On ch=1 n=b4 v=0
154102 On ch=1 n=d5 v=51
154420 On ch=1 n=g6 v=81
154424 On ch=1 n=g4 v=27
154456 On ch=1 n=d5 v=0
154546 Par ch=1 c=64 v=127
154708 On ch=1 n=e5 v=40
154784 On ch=1 n=g4 v=0
154948 On ch=1 n=c5 v=45
154984 On ch=1 n=e5 v=0
155202 On ch=1 n=e5 v=47
155210 On ch=1 n=c5 v=0
155418 On ch=1 n=g4 v=65
155436 On ch=1 n=e5 v=0
155562 Par ch=1 c=64 v=63
155652 On ch=1 n=e5 v=46
155686 Par ch=1 c=64 v=127
155840 On ch=1 n=g4 v=0
155864 On ch=1 n=a6 v=67
155896 On ch=1 n=c5 v=49
155910 On ch=1 n=e5 v=0
155950 On ch=1 n=g6 v=0
156092 On ch=1 n=c5 v=0
156106 On ch=1 n=g6 v=88
156132 On ch=1 n=e5 v=31
156176 On ch=1 n=a6 v=0
156342 On ch=1 n=f#6 v=89
156346 On ch=1 n=g4 v=48
156376 On ch=1 n=e5 v=0
156446 On ch=1 n=g6 v=0
156462 Par ch=1 c=64 v=63
156512 Par ch=1 c=64 v=0
156600 On ch=1 n=e6 v=87
156608 On ch=1 n=c#5 v=74
156660 On ch=1 n=f#6 v=0
156696 Par ch=1 c=64 v=63
156698 On ch=1 n=g4 v=0
156740 Par ch=1 c=64 v=127
156842 On ch=1 n=d6 v=84
156842 On ch=1 n=a#4 v=57
156880 On ch=1 n=c#5 v=0
156880 On ch=1 n=e6 v=0
156974 Par ch=1 c=64 v=63
157042 Par ch=1 c=64 v=0
157062 On ch=1 n=c#5 v=70
157070 On ch=1 n=c#6 v=94
157106 On ch=1 n=a#4 v=0
157112 On ch=1 n=d6 v=0
157314 On ch=1 n=g4 v=50
157330 On ch=1 n=d6 v=82
157380 On ch=1 n=c#6 v=0
157382 On ch=1 n=c#5 v=0
157460 Par ch=1 c=64 v=63
157494 Par ch=1 c=64 v=127
157556 On ch=1 n=d5 v=60
157594 On ch=1 n=g4 v=0
157786 On ch=1 n=b4 v=59
157834 On ch=1 n=d5 v=0
158020 On ch=1 n=b5 v=69
158034 On ch=1 n=d5 v=45
158040 On ch=1 n=d6 v=0
158050 On ch=1 n=b4 v=0
158266 On ch=1 n=g4 v=51
158280 On ch=1 n=g5 v=55
158298 Par ch=1 c=64 v=63
158300 On ch=1 n=d5 v=0
158304 On ch=1 n=b5 v=0
158356 Par ch=1 c=64 v=0
158494 Par ch=1 c=64 v=63
158508 On ch=1 n=d5 v=46
158522 On ch=1 n=g4 v=0
158548 Par ch=1 c=64 v=127
158748 On ch=1 n=b4 v=50
158770 On ch=1 n=d5 v=0
158966 On ch=1 n=b4 v=0
158974 On ch=1 n=d5 v=38
159052 On ch=1 n=g5 v=0
159204 On ch=1 n=g4 v=48
159252 On ch=1 n=d5 v=0
159352 Par ch=1 c=64 v=63
159426 On ch=1 n=g4 v=0
159446 On ch=1 n=d5 v=40
159694 On ch=1 n=b4 v=45
159720 On ch=1 n=d5 v=0
159936 On ch=1 n=d5 v=34
159940 On ch=1 n=b4 v=0
160198 On ch=1 n=c6 v=76
160212 On ch=1 n=a4 v=33
160222 On ch=1 n=d5 v=0
160314 Par ch=1 c=64 v=127
160446 On ch=1 n=d5 v=44
160498 On ch=1 n=a4 v=0
160690 On ch=1 n=c5 v=52
160698 On ch=1 n=d5 v=0
160876 On ch=1 n=a5 v=66
160894 On ch=1 n=d5 v=41
160898 On ch=1 n=c6 v=0
160938 On ch=1 n=c5 v=0
161066 Par ch=1 c=64 v=63
161122 On ch=1 n=d5 v=0
161136 On ch=1 n=f#5 v=72
161142 On ch=1 n=a4 v=30
161192 Par ch=1 c=64 v=0
161262 On ch=1 n=a5 v=0
161294 On ch=1 n=f#5 v=0
161338 On ch=1 n=d5 v=36
161352 On ch=1 n=a4 v=0
161496 Par ch=1 c=64 v=63
161570 On ch=1 n=a5 v=63
161588 On ch=1 n=c5 v=44
161590 On ch=1 n=d5 v=0
161726 On ch=1 n=a5 v=0
161754 On ch=1 n=d5 v=43
161770 On ch=1 n=c5 v=0
162034 On ch=1 n=b5 v=83
162038 On ch=1 n=a4 v=40
162050 On ch=1 n=d5 v=0
162250 On ch=1 n=b5 v=0
162254 On ch=1 n=d5 v=49
162272 On ch=1 n=a4 v=0
162508 On ch=1 n=c6 v=84
162514 On ch=1 n=c5 v=57
162522 On ch=1 n=d5 v=0
162712 On ch=1 n=d5 v=54
162720 On ch=1 n=c5 v=0
162732 On ch=1 n=c6 v=0
162990 On ch=1 n=g4 v=54
163006 On ch=1 n=d6 v=73
163012 On ch=1 n=d5 v=0
163096 Par ch=1 c=64 v=127
163200 On ch=1 n=g4 v=0
163212 On ch=1 n=d5 v=41
163444 On ch=1 n=d5 v=0
163458 On ch=1 n=b4 v=60
163640 On ch=1 n=b4 v=0
163640 On ch=1 n=d6 v=0
163676 On ch=1 n=b5 v=81
163690 On ch=1 n=d5 v=54
163918 On ch=1 n=d5 v=0
163930 On ch=1 n=e4 v=67
163962 On ch=1 n=g6 v=94
164038 On ch=1 n=b5 v=0
164062 Par ch=1 c=64 v=63
164140 Par ch=1 c=64 v=0
164168 On ch=1 n=b4 v=51
164178 Par ch=1 c=64 v=63
164232 Par ch=1 c=64 v=127
164360 On ch=1 n=e4 v=0
164418 On ch=1 n=g4 v=46
164446 On ch=1 n=b4 v=0
164524 On ch=1 n=g6 v=0
164602 On ch=1 n=g4 v=0
164644 On ch=1 n=b4 v=71
164880 On ch=1 n=b4 v=0
164900 On ch=1 n=b3 v=73
165106 On ch=1 n=g4 v=75
165146 Par ch=1 c=64 v=63
165174 Par ch=1 c=64 v=0
165210 On ch=1 n=b3 v=0
165312 Par ch=1 c=64 v=63
165354 Par ch=1 c=64 v=127
165370 On ch=1 n=d4 v=81
165434 On ch=1 n=g4 v=0
165582 On ch=1 n=g4 v=79
165638 On ch=1 n=d4 v=0
165858 On ch=1 n=a6 v=87
165864 On ch=1 n=c4 v=51
165868 On ch=1 n=e4 v=71
165968 On ch=1 n=g4 v=0
165972 Par ch=1 c=64 v=63
165996 Par ch=1 c=64 v=0
166130 On ch=1 n=g6 v=86
166178 Par ch=1 c=64 v=63
166210 On ch=1 n=a6 v=0
166210 Par ch=1 c=64 v=127
166344 On ch=1 n=f#6 v=93
166442 On ch=1 n=g6 v=0
166558 On ch=1 n=g6 v=91
166664 On ch=1 n=f#6 v=0
166810 On ch=1 n=f#6 v=96
166822 On ch=1 n=g4 v=63
166882 Par ch=1 c=64 v=63
166888 On ch=1 n=g6 v=0
166898 On ch=1 n=e4 v=0
166924 Par ch=1 c=64 v=0
167046 On ch=1 n=e6 v=92
167106 On ch=1 n=f#6 v=0
167126 Par ch=1 c=64 v=63
167160 Par ch=1 c=64 v=127
167282 On ch=1 n=d#6 v=95
167334 On ch=1 n=e6 v=0
167504 On ch=1 n=d#6 v=0
167506 On ch=1 n=e6 v=71
167746 Par ch=1 c=64 v=63
167758 On ch=1 n=d6 v=68
167782 On ch=1 n=e4 v=55
167792 Par ch=1 c=64 v=0
167810 On ch=1 n=e6 v=0
167920 On ch=1 n=c4 v=0
167972 Par ch=1 c=64 v=63
167988 On ch=1 n=c6 v=76
168032 Par ch=1 c=64 v=127
168042 On ch=1 n=d6 v=0
168232 On ch=1 n=b5 v=74
168242 Par ch=1 c=64 v=63
168250 On ch=1 n=c6 v=0
168414 Par ch=1 c=64 v=127
168480 On ch=1 n=c6 v=68
168484 On ch=1 n=b5 v=0
168690 On ch=1 n=g4 v=0
168816 On ch=1 n=b5 v=70
168820 On ch=1 n=g4 v=47
168850 On ch=1 n=d4 v=43
168856 On ch=1 n=c6 v=0
168904 On ch=1 n=e4 v=0
169002 Par ch=1 c=64 v=63
169048 Par ch=1 c=64 v=0
169330 Par ch=1 c=64 v=63
169362 Par ch=1 c=64 v=127
169704 On ch=1 n=b5 v=0
169728 On ch=1 n=c6 v=43
169862 On ch=1 n=b5 v=45
169920 On ch=1 n=c6 v=0
169952 On ch=1 n=g4 v=0
169990 Par ch=1 c=64 v=63
169994 On ch=1 n=f#4 v=20
170018 On ch=1 n=a5 v=48
170042 Par ch=1 c=64 v=0
170054 On ch=1 n=b5 v=0
170210 Par ch=1 c=64 v=63
170244 Par ch=1 c=64 v=127
170332 On ch=1 n=a5 v=0
170564 On ch=1 n=d6 v=44
170682 Par ch=1 c=64 v=63
170732 Par ch=1 c=64 v=0
170858 Par ch=1 c=64 v=63
170898 Par ch=1 c=64 v=127
170908 On ch=1 n=d4 v=0
170934 On ch=1 n=f#4 v=0
171190 On ch=1 n=c#6 v=58
171264 On ch=1 n=d6 v=0
171786 On ch=1 n=c6 v=68
171902 Par ch=1 c=64 v=63
171980 On ch=1 n=c#6 v=0
172082 Par ch=1 c=64 v=0
172548 On ch=1 n=g4 v=31
172560 On ch=1 n=b5 v=53
172582 On ch=1 n=c6 v=0
172628 Par ch=1 c=64 v=63
172682 Par ch=1 c=64 v=127
172906 On ch=1 n=d5 v=42
173162 On ch=1 n=b4 v=51
173186 On ch=1 n=d5 v=0
173352 On ch=1 n=g4 v=0
173402 On ch=1 n=d5 v=55
173612 On ch=1 n=b4 v=0
173626 On ch=1 n=g4 v=48
173640 On ch=1 n=d5 v=0
173832 On ch=1 n=g5 v=68
173858 On ch=1 n=d5 v=47
173908 On ch=1 n=b5 v=0
174096 On ch=1 n=b5 v=84
174110 On ch=1 n=d5 v=0
174122 On ch=1 n=b4 v=47
174130 On ch=1 n=g4 v=0
174176 On ch=1 n=g5 v=0
174330 On ch=1 n=d5 v=49
174336 On ch=1 n=d6 v=87
174400 On ch=1 n=b5 v=0
174466 On ch=1 n=b4 v=0
174568 On ch=1 n=a4 v=45
174580 On ch=1 n=c6 v=80
174592 On ch=1 n=d5 v=0
174638 On ch=1 n=d6 v=0
174670 Par ch=1 c=64 v=63
174700 Par ch=1 c=64 v=0
174804 On ch=1 n=a5 v=84
174814 On ch=1 n=d5 v=60
174892 On ch=1 n=c6 v=0
174940 Par ch=1 c=64 v=63
174964 Par ch=1 c=64 v=127
175026 On ch=1 n=a4 v=0
175030 On ch=1 n=c6 v=89
175050 On ch=1 n=d5 v=0
175054 On ch=1 n=c5 v=55
175084 On ch=1 n=a5 v=0
175244 On ch=1 n=e6 v=88
175254 On ch=1 n=d5 v=46
175262 On ch=1 n=c5 v=0
175292 On ch=1 n=c6 v=0
175512 On ch=1 n=g4 v=42
175512 On ch=1 n=d6 v=80
175530 Par ch=1 c=64 v=63
175538 On ch=1 n=d5 v=0
175574 Par ch=1 c=64 v=0
175582 On ch=1 n=e6 v=0
175750 On ch=1 n=d5 v=52
175814 Par ch=1 c=64 v=63
175836 Par ch=1 c=64 v=127
175920 On ch=1 n=g4 v=0
175994 On ch=1 n=b4 v=59
176014 On ch=1 n=d5 v=0
176226 On ch=1 n=d5 v=48
176228 On ch=1 n=b5 v=76
176238 On ch=1 n=b4 v=0
176248 On ch=1 n=d6 v=0
176462 On ch=1 n=g5 v=65
176466 On ch=1 n=b5 v=0
176466 On ch=1 n=g4 v=38
176472 On ch=1 n=d5 v=0
176572 Par ch=1 c=64 v=63
176588 On ch=1 n=g5 v=0
176690 On ch=1 n=g5 v=76
176708 On ch=1 n=d5 v=46
176720 On ch=1 n=g4 v=0
176770 Par ch=1 c=64 v=0
176784 On ch=1 n=g5 v=0
176934 On ch=1 n=a5 v=74
176946 On ch=1 n=b4 v=53
176948 On ch=1 n=d5 v=0
177064 On ch=1 n=a5 v=0
177162 On ch=1 n=b5 v=81
177174 On ch=1 n=d5 v=53
177178 On ch=1 n=b4 v=0
177262 On ch=1 n=b5 v=0
177382 On ch=1 n=c6 v=96
177382 On ch=1 n=g4 v=58
177398 On ch=1 n=d5 v=0
177496 On ch=1 n=c6 v=0
177594 On ch=1 n=g4 v=0
177600 On ch=1 n=d5 v=63
177602 On ch=1 n=d6 v=94
177730 On ch=1 n=d6 v=0
177740 Par ch=1 c=64 v=63
177820 On ch=1 n=e6 v=92
177854 On ch=1 n=b4 v=60
177864 On ch=1 n=d5 v=0
177866 Par ch=1 c=64 v=127
177938 On ch=1 n=e6 v=0
178016 On ch=1 n=f#6 v=103
178060 On ch=1 n=d5 v=65
178074 On ch=1 n=b4 v=0
178170 On ch=1 n=f#6 v=0
178288 On ch=1 n=g6 v=93
178294 On ch=1 n=g4 v=60
178306 On ch=1 n=d5 v=0
178500 Par ch=1 c=64 v=63
178588 On ch=1 n=f#6 v=87
178616 On ch=1 n=e5 v=47
178654 On ch=1 n=g6 v=0
178654 Par ch=1 c=64 v=127
178824 On ch=1 n=g6 v=98
178836 On ch=1 n=c5 v=72
178868 On ch=1 n=e5 v=0
178894 On ch=1 n=f#6 v=0
179048 On ch=1 n=f#6 v=108
179062 On ch=1 n=g4 v=0
179068 On ch=1 n=e5 v=66
179140 On ch=1 n=g6 v=0
179300 On ch=1 n=a6 v=94
179302 On ch=1 n=g4 v=65
179376 On ch=1 n=e5 v=0
179388 On ch=1 n=f#6 v=0
179432 Par ch=1 c=64 v=63
179452 Par ch=1 c=64 v=0
179456 On ch=1 n=c5 v=0
179534 On ch=1 n=e5 v=68
179538 On ch=1 n=g6 v=100
179618 On ch=1 n=a6 v=0
179656 Par ch=1 c=64 v=63
179672 Par ch=1 c=64 v=127
179750 On ch=1 n=c5 v=77
179754 On ch=1 n=f#6 v=98
179776 On ch=1 n=e5 v=0
179848 On ch=1 n=g6 v=0
179852 On ch=1 n=g4 v=0
179964 On ch=1 n=g6 v=93
179980 On ch=1 n=c5 v=0
179986 On ch=1 n=e5 v=60
180032 On ch=1 n=f#6 v=0
180204 On ch=1 n=g4 v=53
180206 On ch=1 n=f#6 v=97
180222 On ch=1 n=e5 v=0
180268 Par ch=1 c=64 v=63
180298 Par ch=1 c=64 v=0
180334 On ch=1 n=g6 v=0
180440 On ch=1 n=e6 v=91
180452 Par ch=1 c=64 v=63
180456 On ch=1 n=c#5 v=76
180474 Par ch=1 c=64 v=127
180496 On ch=1 n=f#6 v=0
180546 On ch=1 n=g4 v=0
180654 Par ch=1 c=64 v=63
180670 On ch=1 n=a#4 v=69
180672 On ch=1 n=d6 v=84
180676 Par ch=1 c=64 v=0
180706 On ch=1 n=e6 v=0
180726 On ch=1 n=c#5 v=0
180876 Par ch=1 c=64 v=63
180894 On ch=1 n=c#6 v=92
180896 Par ch=1 c=64 v=127
180910 On ch=1 n=c#5 v=76
180926 On ch=1 n=d6 v=0
180966 On ch=1 n=a#4 v=0
181126 On ch=1 n=d6 v=85
181136 On ch=1 n=g4 v=54
181158 On ch=1 n=c#6 v=0
181166 On ch=1 n=c#5 v=0
181212 Par ch=1 c=64 v=63
181238 Par ch=1 c=64 v=0
181356 On ch=1 n=d5 v=65
181358 On ch=1 n=b5 v=77
181362 Par ch=1 c=64 v=63
181386 Par ch=1 c=64 v=127
181390 On ch=1 n=g4 v=0
181406 On ch=1 n=d6 v=0
181562 Par ch=1 c=64 v=63
181584 On ch=1 n=d6 v=78
181596 Par ch=1 c=64 v=0
181602 On ch=1 n=b5 v=0
181602 On ch=1 n=b4 v=57
181626 On ch=1 n=d5 v=0
181642 Par ch=1 c=64 v=63
181696 Par ch=1 c=64 v=127
181804 On ch=1 n=b5 v=73
181816 On ch=1 n=d5 v=55
181826 On ch=1 n=d6 v=0
181840 On ch=1 n=b4 v=0
182046 On ch=1 n=g4 v=43
182064 On ch=1 n=g5 v=60
182078 On ch=1 n=d5 v=0
182082 On ch=1 n=b5 v=0
182144 Par ch=1 c=64 v=63
182182 Par ch=1 c=64 v=0
182266 On ch=1 n=d5 v=51
182302 On ch=1 n=g4 v=0
182334 Par ch=1 c=64 v=63
182362 Par ch=1 c=64 v=127
182530 On ch=1 n=b4 v=49
182540 On ch=1 n=d5 v=0
182720 On ch=1 n=g5 v=0
182736 On ch=1 n=d5 v=41
182750 On ch=1 n=b4 v=0
182976 On ch=1 n=g4 v=45
183022 On ch=1 n=d5 v=0
183152 Par ch=1 c=64 v=63
183198 Par ch=1 c=64 v=0
183220 On ch=1 n=d5 v=47
183222 On ch=1 n=g4 v=0
183476 On ch=1 n=b4 v=42
183500 On ch=1 n=d5 v=0
183734 On ch=1 n=d5 v=39
183760 On ch=1 n=b4 v=0
184010 On ch=1 n=a4 v=31
184012 On ch=1 n=c6 v=51
184030 On ch=1 n=d5 v=0
184036 Par ch=1 c=64 v=63
184062 Par ch=1 c=64 v=127
184266 On ch=1 n=d5 v=36
184280 On ch=1 n=a5 v=51
184332 On ch=1 n=c6 v=0
184500 On ch=1 n=d5 v=0
184518 On ch=1 n=c6 v=59
184520 On ch=1 n=c5 v=30
184556 On ch=1 n=a5 v=0
184710 On ch=1 n=a4 v=0
184734 On ch=1 n=a5 v=57
184742 On ch=1 n=d5 v=42
184796 On ch=1 n=c6 v=0
184946 On ch=1 n=f#5 v=57
184972 On ch=1 n=d5 v=0
184990 On ch=1 n=a4 v=30
185020 On ch=1 n=a5 v=0
185022 On ch=1 n=c5 v=0
185030 Par ch=1 c=64 v=63
185068 Par ch=1 c=64 v=0
185122 Par ch=1 c=64 v=63
185176 Par ch=1 c=64 v=127
185194 On ch=1 n=f#5 v=0
185204 On ch=1 n=d5 v=35
185218 On ch=1 n=a5 v=63
185448 On ch=1 n=g#5 v=68
185458 On ch=1 n=d5 v=0
185466 On ch=1 n=c5 v=42
185484 On ch=1 n=a5 v=0
185518 Par ch=1 c=64 v=63
185566 Par ch=1 c=64 v=127
185658 On ch=1 n=d5 v=54
185662 On ch=1 n=a5 v=74
185670 On ch=1 n=a4 v=0
185682 On ch=1 n=g#5 v=0
185886 On ch=1 n=d5 v=0
185886 On ch=1 n=a#5 v=88
185898 On ch=1 n=a4 v=49
185900 Par ch=1 c=64 v=63
185920 On ch=1 n=a5 v=0
185922 On ch=1 n=c5 v=0
186034 Par ch=1 c=64 v=127
186114 On ch=1 n=b5 v=88
186122 On ch=1 n=d5 v=58
186138 On ch=1 n=a#5 v=0
186280 Par ch=1 c=64 v=63
186316 Par ch=1 c=64 v=0
186358 On ch=1 n=c6 v=94
186360 On ch=1 n=d5 v=0
186374 Par ch=1 c=64 v=63
186374 On ch=1 n=c5 v=55
186386 On ch=1 n=b5 v=0
186422 Par ch=1 c=64 v=127
186572 On ch=1 n=c#6 v=96
186576 On ch=1 n=d5 v=60
186582 On ch=1 n=c5 v=0
186610 On ch=1 n=c6 v=0
186626 On ch=1 n=a4 v=0
186660 Par ch=1 c=64 v=63
186700 Par ch=1 c=64 v=0
186720 Par ch=1 c=64 v=63
186774 Par ch=1 c=64 v=127
186794 On ch=1 n=d6 v=93
186810 On ch=1 n=g4 v=67
186844 On ch=1 n=d5 v=0
186876 On ch=1 n=c#6 v=0
187008 Par ch=1 c=64 v=63
187022 On ch=1 n=b5 v=88
187026 On ch=1 n=d5 v=70
187058 On ch=1 n=d6 v=0
187096 Par ch=1 c=64 v=127
187244 On ch=1 n=d5 v=0
187254 On ch=1 n=d6 v=101
187254 On ch=1 n=b4 v=72
187316 On ch=1 n=b5 v=0
187504 On ch=1 n=d5 v=81
187508 On ch=1 n=b5 v=100
187530 On ch=1 n=g4 v=0
187564 On ch=1 n=d6 v=0
187602 On ch=1 n=b4 v=0
187768 On ch=1 n=e4 v=80
187782 On ch=1 n=g6 v=99
187800 On ch=1 n=d5 v=0
187844 Par ch=1 c=64 v=63
187870 Par ch=1 c=64 v=0
187880 On ch=1 n=b5 v=0
187948 Par ch=1 c=64 v=63
187972 Par ch=1 c=64 v=127
188006 On ch=1 n=b4 v=78
188226 On ch=1 n=g4 v=83
188290 On ch=1 n=g6 v=0
188292 On ch=1 n=b4 v=0
188298 On ch=1 n=e4 v=0
188446 On ch=1 n=b4 v=84
188458 On ch=1 n=g4 v=0
188714 On ch=1 n=b3 v=97
188724 On ch=1 n=b4 v=0
188878 Par ch=1 c=64 v=63
188912 Par ch=1 c=64 v=0
189002 On ch=1 n=g4 v=55
189014 On ch=1 n=b6 v=98
189036 Par ch=1 c=64 v=63
189056 Par ch=1 c=64 v=127
189248 On ch=1 n=f#6 v=100
189258 On ch=1 n=d4 v=87
189260 On ch=1 n=b3 v=0
189270 On ch=1 n=b6 v=0
189298 On ch=1 n=g4 v=0
189464 On ch=1 n=g4 v=73
189476 On ch=1 n=g6 v=94
189500 On ch=1 n=d4 v=0
189524 On ch=1 n=f#6 v=0
189686 On ch=1 n=c4 v=80
189712 On ch=1 n=d#6 v=95
189740 On ch=1 n=g4 v=0
189748 On ch=1 n=g6 v=0
189758 Par ch=1 c=64 v=63
189790 Par ch=1 c=64 v=0
189920 On ch=1 n=a4 v=69
189926 On ch=1 n=e6 v=98
189988 On ch=1 n=d#6 v=0
190154 On ch=1 n=c6 v=93
190160 On ch=1 n=c4 v=0
190172 On ch=1 n=e4 v=73
190196 On ch=1 n=e6 v=0
190220 On ch=1 n=a4 v=0
190382 On ch=1 n=a5 v=81
190388 Par ch=1 c=64 v=63
190394 On ch=1 n=a4 v=59
190396 Par ch=1 c=64 v=127
190404 On ch=1 n=c6 v=0
190406 On ch=1 n=e4 v=0
190614 On ch=1 n=d4 v=72
190626 On ch=1 n=g5 v=86
190638 On ch=1 n=a4 v=0
190676 On ch=1 n=a5 v=0
190776 Par ch=1 c=64 v=63
190790 Par ch=1 c=64 v=0
190850 On ch=1 n=b4 v=60
190898 On ch=1 n=d4 v=0
190944 Par ch=1 c=64 v=63
190960 Par ch=1 c=64 v=127
191094 On ch=1 n=g4 v=67
191102 On ch=1 n=g5 v=0
191134 On ch=1 n=b4 v=0
191312 On ch=1 n=g5 v=96
191318 On ch=1 n=b4 v=71
191346 On ch=1 n=g4 v=0
191572 On ch=1 n=f#5 v=79
191574 On ch=1 n=b4 v=0
191578 On ch=1 n=d4 v=59
191578 On ch=1 n=b5 v=79
191590 On ch=1 n=g5 v=0
191666 Par ch=1 c=64 v=63
191686 Par ch=1 c=64 v=0
191806 On ch=1 n=c5 v=60
191806 On ch=1 n=a5 v=62
191818 On ch=1 n=b5 v=0
191850 On ch=1 n=d4 v=0
191882 Par ch=1 c=64 v=63
191902 Par ch=1 c=64 v=127
192052 On ch=1 n=g5 v=68
192064 On ch=1 n=c5 v=0
192070 On ch=1 n=a5 v=0
192070 On ch=1 n=a4 v=44
192268 On ch=1 n=a5 v=77
192282 On ch=1 n=c5 v=53
192300 On ch=1 n=a4 v=0
192318 On ch=1 n=g5 v=0
192342 On ch=1 n=f#5 v=0
192558 On ch=1 n=g5 v=70
192570 On ch=1 n=b4 v=56
192576 On ch=1 n=g4 v=34
192582 On ch=1 n=c5 v=0
192638 On ch=1 n=a5 v=0
192648 Par ch=1 c=64 v=63
192674 Par ch=1 c=64 v=0
192792 On ch=1 n=f#5 v=72
192818 Par ch=1 c=64 v=63
192848 Par ch=1 c=64 v=127
192880 On ch=1 n=g5 v=0
193044 On ch=1 n=a5 v=68
193090 On ch=1 n=f#5 v=0
193272 On ch=1 n=g5 v=73
193274 On ch=1 n=a5 v=0
193510 On ch=1 n=b4 v=0
193510 On ch=1 n=b5 v=69
193556 On ch=1 n=g4 v=0
193630 On ch=1 n=g5 v=0
193742 On ch=1 n=a5 v=72
193820 On ch=1 n=b5 v=0
193982 On ch=1 n=c6 v=87
194032 On ch=1 n=a5 v=0
194200 On ch=1 n=b5 v=91
194214 On ch=1 n=c6 v=0
194432 On ch=1 n=d6 v=89
194532 On ch=1 n=b5 v=0
194650 Par ch=1 c=64 v=63
194660 On ch=1 n=c6 v=98
194708 Par ch=1 c=64 v=0
194766 On ch=1 n=d6 v=0
194910 On ch=1 n=e6 v=96
194974 On ch=1 n=c6 v=0
195168 On ch=1 n=d6 v=94
195184 Par ch=1 c=64 v=63
195188 Par ch=1 c=64 v=127
195208 On ch=1 n=e6 v=0
195498 On ch=1 n=f6 v=103
195514 On ch=1 n=a4 v=58
195564 On ch=1 n=d6 v=0
195644 Par ch=1 c=64 v=63
195658 Par ch=1 c=64 v=0
195750 Par ch=1 c=64 v=63
195766 Par ch=1 c=64 v=127
195834 On ch=1 n=f5 v=65
196054 On ch=1 n=c5 v=86
196112 On ch=1 n=f5 v=0
196166 On ch=1 n=a4 v=0
196308 On ch=1 n=f5 v=80
196408 On ch=1 n=c5 v=0
196552 On ch=1 n=a4 v=89
196574 Par ch=1 c=64 v=63
196602 On ch=1 n=f5 v=0
196606 Par ch=1 c=64 v=0
196700 Par ch=1 c=64 v=63
196732 Par ch=1 c=64 v=127
196806 On ch=1 n=f5 v=76
197016 On ch=1 n=f6 v=0
197054 On ch=1 n=c5 v=76
197058 On ch=1 n=g6 v=94
197098 On ch=1 n=f5 v=0
197276 On ch=1 n=a4 v=0
197300 On ch=1 n=a6 v=96
197306 On ch=1 n=f5 v=54
197368 On ch=1 n=c5 v=0
197386 On ch=1 n=g6 v=0
197512 Par ch=1 c=64 v=63
197530 On ch=1 n=g6 v=93
197532 On ch=1 n=b4 v=76
197544 Par ch=1 c=64 v=0
197564 On ch=1 n=f5 v=0
197576 On ch=1 n=a6 v=0
197672 Par ch=1 c=64 v=63
197692 Par ch=1 c=64 v=127
197760 On ch=1 n=f6 v=89
197800 On ch=1 n=g5 v=60
197862 On ch=1 n=g6 v=0
197998 On ch=1 n=d5 v=70
198000 On ch=1 n=e6 v=81
198010 On ch=1 n=b4 v=0
198016 On ch=1 n=g5 v=0
198068 On ch=1 n=f6 v=0
198230 On ch=1 n=d6 v=88
198236 On ch=1 n=g5 v=76
198242 On ch=1 n=g5 v=0
198256 On ch=1 n=e6 v=0
198476 On ch=1 n=d#6 v=97
198486 On ch=1 n=c5 v=66
198490 On ch=1 n=d5 v=0
198516 Par ch=1 c=64 v=63
198528 On ch=1 n=d6 v=0
198538 Par ch=1 c=64 v=0
198712 Par ch=1 c=64 v=63
198728 On ch=1 n=g5 v=58
198738 Par ch=1 c=64 v=127
198976 On ch=1 n=e5 v=64
198990 On ch=1 n=g5 v=0
199076 On ch=1 n=c5 v=0
199188 On ch=1 n=g5 v=68
199262 On ch=1 n=e5 v=0
199358 On ch=1 n=d#6 v=0
199408 On ch=1 n=e6 v=78
199414 On ch=1 n=c5 v=59
199446 On ch=1 n=g5 v=0
199472 Par ch=1 c=64 v=63
199502 Par ch=1 c=64 v=0
199646 On ch=1 n=g5 v=46
199664 Par ch=1 c=64 v=63
199686 Par ch=1 c=64 v=127
199894 On ch=1 n=g5 v=0
199896 On ch=1 n=e5 v=43
199970 On ch=1 n=e6 v=0
200058 On ch=1 n=c5 v=0
200106 On ch=1 n=g5 v=50
200186 On ch=1 n=e5 v=0
200342 On ch=1 n=c5 v=71
200368 On ch=1 n=g5 v=0
200568 Par ch=1 c=64 v=63
200568 On ch=1 n=g6 v=81
200596 On ch=1 n=g5 v=39
200606 Par ch=1 c=64 v=0
200764 Par ch=1 c=64 v=63
200796 Par ch=1 c=64 v=127
200826 On ch=1 n=f#6 v=92
200844 On ch=1 n=g5 v=0
200860 On ch=1 n=e5 v=50
200884 On ch=1 n=g6 v=0
200964 On ch=1 n=c5 v=0
201038 On ch=1 n=e6 v=96
201072 On ch=1 n=g5 v=52
201090 On ch=1 n=e5 v=0
201112 On ch=1 n=f#6 v=0
201236 Par ch=1 c=64 v=63
201268 On ch=1 n=d6 v=84
201272 Par ch=1 c=64 v=0
201274 On ch=1 n=b4 v=70
201298 On ch=1 n=g5 v=0
201358 On ch=1 n=e6 v=0
201386 Par ch=1 c=64 v=63
201446 Par ch=1 c=64 v=127
201498 On ch=1 n=b5 v=83
201504 On ch=1 n=d5 v=70
201522 On ch=1 n=d6 v=0
201590 On ch=1 n=b4 v=0
201658 Par ch=1 c=64 v=63
201688 Par ch=1 c=64 v=0
201728 On ch=1 n=a5 v=89
201742 On ch=1 n=c5 v=65
201788 On ch=1 n=b5 v=0
201814 On ch=1 n=d5 v=0
201816 Par ch=1 c=64 v=63
201838 Par ch=1 c=64 v=127
201960 On ch=1 n=e6 v=87
201962 On ch=1 n=c5 v=0
201968 On ch=1 n=a5 v=0
201980 On ch=1 n=e5 v=49
202172 On ch=1 n=e5 v=0
202244 On ch=1 n=e6 v=0
202244 On ch=1 n=g5 v=79
202254 On ch=1 n=d4 v=60
202408 Par ch=1 c=64 v=63
202432 Par ch=1 c=64 v=0
202466 On ch=1 n=b4 v=73
202556 Par ch=1 c=64 v=63
202580 Par ch=1 c=64 v=127
202710 On ch=1 n=g4 v=77
202764 On ch=1 n=b4 v=0
202772 On ch=1 n=g5 v=0
202774 On ch=1 n=d4 v=0
202930 On ch=1 n=b4 v=74
202930 On ch=1 n=g5 v=98
203038 On ch=1 n=g4 v=0
203168 On ch=1 n=d4 v=63
203190 On ch=1 n=b5 v=87
203196 On ch=1 n=b4 v=0
203198 On ch=1 n=f#5 v=84
203204 On ch=1 n=g5 v=0
203254 Par ch=1 c=64 v=63
203272 Par ch=1 c=64 v=0
203404 On ch=1 n=a5 v=81
203414 On ch=1 n=c5 v=34
203426 Par ch=1 c=64 v=63
203442 Par ch=1 c=64 v=127
203452 On ch=1 n=b5 v=0
203642 On ch=1 n=g5 v=89
203662 On ch=1 n=a4 v=54
203670 On ch=1 n=c5 v=0
203716 Par ch=1 c=64 v=63
203740 On ch=1 n=a5 v=0
203812 Par ch=1 c=64 v=127
203814 On ch=1 n=d4 v=0
203860 On ch=1 n=a5 v=89
203874 On ch=1 n=c5 v=68
203890 On ch=1 n=f#5 v=0
203912 On ch=1 n=a4 v=0
203998 On ch=1 n=g5 v=0
204118 On ch=1 n=g5 v=85
204132 On ch=1 n=c5 v=0
204146 On ch=1 n=a5 v=0
204148 On ch=1 n=g4 v=51
204154 On ch=1 n=b4 v=71
204264 Par ch=1 c=64 v=63
204282 Par ch=1 c=64 v=0
204366 On ch=1 n=f#5 v=88
204442 On ch=1 n=g5 v=0
204596 Par ch=1 c=64 v=63
204602 Par ch=1 c=64 v=127
204626 On ch=1 n=a5 v=75
204654 On ch=1 n=f#5 v=0
204828 On ch=1 n=a5 v=0
204842 On ch=1 n=g5 v=76
204978 On ch=1 n=b4 v=0
205040 On ch=1 n=g4 v=0
205082 On ch=1 n=b5 v=83
205258 On ch=1 n=g5 v=0
205298 On ch=1 n=a5 v=86
205410 On ch=1 n=b5 v=0
205460 Par ch=1 c=64 v=63
205476 Par ch=1 c=64 v=0
205532 On ch=1 n=c6 v=99
205594 On ch=1 n=a5 v=0
205776 On ch=1 n=b5 v=100
205972 On ch=1 n=c6 v=0
206030 On ch=1 n=d6 v=99
206082 On ch=1 n=b5 v=0
206288 On ch=1 n=c6 v=100
206372 On ch=1 n=d6 v=0
206576 On ch=1 n=e6 v=109
206682 On ch=1 n=c6 v=0
206880 On ch=1 n=d6 v=101
206948 On ch=1 n=e6 v=0
207292 On ch=1 n=a3 v=98
207314 On ch=1 n=f6 v=111
207318 Par ch=1 c=64 v=63
207332 Par ch=1 c=64 v=127
207374 On ch=1 n=d6 v=0
207658 On ch=1 n=f4 v=73
207792 On ch=1 n=a3 v=0
207918 On ch=1 n=c4 v=96
207962 On ch=1 n=f4 v=0
208146 On ch=1 n=f4 v=71
208168 On ch=1 n=c4 v=0
208372 On ch=1 n=b3 v=104
208408 Par ch=1 c=64 v=63
208422 Par ch=1 c=64 v=0
208438 On ch=1 n=f4 v=0
208494 Par ch=1 c=64 v=63
208526 Par ch=1 c=64 v=127
208662 On ch=1 n=g4 v=72
208740 On ch=1 n=b3 v=0
208894 On ch=1 n=g6 v=98
208922 On ch=1 n=d4 v=96
208936 On ch=1 n=f6 v=0
208984 On ch=1 n=g4 v=0
209130 On ch=1 n=g4 v=82
209150 On ch=1 n=a6 v=101
209184 On ch=1 n=d4 v=0
209230 On ch=1 n=g6 v=0
209380 On ch=1 n=g3 v=103
209388 On ch=1 n=g6 v=102
209414 Par ch=1 c=64 v=63
209430 Par ch=1 c=64 v=0
209450 On ch=1 n=a6 v=0
209460 On ch=1 n=g4 v=0
209514 Par ch=1 c=64 v=63
209550 Par ch=1 c=64 v=127
209616 On ch=1 n=g4 v=78
209624 On ch=1 n=f6 v=99
209748 On ch=1 n=g6 v=0
209810 On ch=1 n=g3 v=0
209858 On ch=1 n=e6 v=100
209858 On ch=1 n=b3 v=96
209898 Par ch=1 c=64 v=63
209918 Par ch=1 c=64 v=0
209922 On ch=1 n=g4 v=0
209932 On ch=1 n=f6 v=0
209950 Par ch=1 c=64 v=63
209996 Par ch=1 c=64 v=127
210074 On ch=1 n=g4 v=84
210080 On ch=1 n=d6 v=101
210128 On ch=1 n=b3 v=0
210144 On ch=1 n=e6 v=0
210342 Par ch=1 c=64 v=63
210356 On ch=1 n=c4 v=107
210360 Par ch=1 c=64 v=0
210376 On ch=1 n=e6 v=109
210424 On ch=1 n=d6 v=0
210436 On ch=1 n=g4 v=0
210488 Par ch=1 c=64 v=63
210506 Par ch=1 c=64 v=127
210624 On ch=1 n=g4 v=63
210876 On ch=1 n=e6 v=0
210900 On ch=1 n=e4 v=88
210910 On ch=1 n=g4 v=0
211006 On ch=1 n=c4 v=0
211112 On ch=1 n=e4 v=0
211116 On ch=1 n=g4 v=92
211332 On ch=1 n=c4 v=101
211360 Par ch=1 c=64 v=63
211370 On ch=1 n=f#6 v=113
211382 Par ch=1 c=64 v=0
211404 On ch=1 n=g4 v=0
211490 Par ch=1 c=64 v=63
211508 Par ch=1 c=64 v=127
211648 On ch=1 n=a4 v=86
211910 On ch=1 n=d#4 v=103
211912 On ch=1 n=f#6 v=0
211980 On ch=1 n=a4 v=0
212170 On ch=1 n=a4 v=88
212182 On ch=1 n=c4 v=0
212272 On ch=1 n=d#4 v=0
212450 On ch=1 n=c#4 v=90
212464 On ch=1 n=g6 v=114
212540 On ch=1 n=a4 v=0
212578 Par ch=1 c=64 v=63
212592 Par ch=1 c=64 v=0
212662 Par ch=1 c=64 v=63
212692 Par ch=1 c=64 v=127
212810 On ch=1 n=a#4 v=91
213046 On ch=1 n=g6 v=0
213072 On ch=1 n=a#4 v=0
213110 On ch=1 n=c#4 v=0
213116 On ch=1 n=e4 v=79
213470 On ch=1 n=a#4 v=78
213476 On ch=1 n=e4 v=0
213824 On ch=1 n=d4 v=60
213886 On ch=1 n=g5 v=101
213904 On ch=1 n=a#4 v=0
214168 Par ch=1 c=64 v=63
214194 Par ch=1 c=64 v=0
214226 On ch=1 n=b4 v=71
214332 Par ch=1 c=64 v=63
214352 Par ch=1 c=64 v=127
214448 On ch=1 n=g4 v=59
214528 On ch=1 n=b4 v=0
214690 On ch=1 n=b4 v=74
214718 On ch=1 n=d4 v=0
214938 On ch=1 n=d4 v=71
214960 On ch=1 n=b4 v=0
214984 On ch=1 n=g4 v=0
215184 On ch=1 n=b4 v=68
215362 On ch=1 n=g5 v=0
215450 On ch=1 n=b4 v=0
215452 On ch=1 n=g4 v=42
215474 On ch=1 n=a5 v=75
215578 On ch=1 n=g5 v=72
215602 On ch=1 n=a5 v=0
215606 On ch=1 n=d4 v=0
215666 On ch=1 n=f#5 v=92
215686 On ch=1 n=g5 v=0
215696 On ch=1 n=b4 v=42
215774 On ch=1 n=g5 v=87
215786 On ch=1 n=f#5 v=0
215844 On ch=1 n=g4 v=0
215880 On ch=1 n=b4 v=0
215910 On ch=1 n=d4 v=57
215912 On ch=1 n=b5 v=81
215920 On ch=1 n=f#5 v=78
215930 On ch=1 n=g5 v=0
215972 Par ch=1 c=64 v=63
216000 Par ch=1 c=64 v=0
216136 Par ch=1 c=64 v=63
216142 On ch=1 n=c5 v=59
216158 Par ch=1 c=64 v=127
216306 On ch=1 n=d4 v=0
216430 On ch=1 n=a5 v=78
216440 On ch=1 n=a4 v=42
216450 On ch=1 n=b5 v=0
216466 On ch=1 n=c5 v=0
216586 Par ch=1 c=64 v=63
216682 Par ch=1 c=64 v=127
216684 On ch=1 n=c5 v=54
216690 On ch=1 n=a4 v=0
216862 On ch=1 n=f#5 v=0
216934 On ch=1 n=c5 v=0
216954 On ch=1 n=a5 v=0
216956 On ch=1 n=b4 v=39
216958 On ch=1 n=g5 v=65
216966 On ch=1 n=g4 v=22
217018 Par ch=1 c=64 v=63
217112 Par ch=1 c=64 v=127
217232 On ch=1 n=d5 v=64
217252 On ch=1 n=g5 v=0
217460 On ch=1 n=d5 v=0
217470 On ch=1 n=b5 v=76
217496 On ch=1 n=b4 v=0
217520 On ch=1 n=g4 v=0
217556 On ch=1 n=b5 v=0
217584 Par ch=1 c=64 v=63
217652 Par ch=1 c=64 v=0
217674 On ch=1 n=b5 v=78
217762 On ch=1 n=b5 v=0
217918 On ch=1 n=b5 v=75
218158 On ch=1 n=g5 v=63
218172 On ch=1 n=b5 v=0
218394 On ch=1 n=d6 v=60
218426 On ch=1 n=g5 v=0
218480 On ch=1 n=d6 v=0
218620 On ch=1 n=d6 v=71
218718 On ch=1 n=d6 v=0
218882 On ch=1 n=d6 v=59
219114 On ch=1 n=b5 v=55
219142 On ch=1 n=d6 v=0
219362 On ch=1 n=a5 v=52
219374 On ch=1 n=b5 v=0
219382 On ch=1 n=c5 v=46
219386 On ch=1 n=d4 v=48
219554 On ch=1 n=d4 v=0
219584 On ch=1 n=c5 v=0
219610 On ch=1 n=b5 v=63
219612 On ch=1 n=a5 v=0
219882 On ch=1 n=g5 v=56
219884 On ch=1 n=b4 v=38
219888 On ch=1 n=b5 v=0
219892 Par ch=1 c=64 v=63
219892 On ch=1 n=g4 v=32
219922 Par ch=1 c=64 v=127
220168 On ch=1 n=d5 v=59
220174 On ch=1 n=g5 v=0
220262 Par ch=1 c=64 v=63
220360 On ch=1 n=b4 v=0
220374 On ch=1 n=g4 v=0
220418 Par ch=1 c=64 v=0
220424 On ch=1 n=d5 v=0
220428 On ch=1 n=b5 v=64
220504 On ch=1 n=b5 v=0
220652 On ch=1 n=b5 v=65
220738 On ch=1 n=b5 v=0
220894 On ch=1 n=b5 v=57
221146 On ch=1 n=b5 v=0
221146 On ch=1 n=g5 v=49
221372 On ch=1 n=d6 v=68
221410 On ch=1 n=g5 v=0
221470 On ch=1 n=d6 v=0
221622 On ch=1 n=d6 v=70
221736 On ch=1 n=d6 v=0
221912 On ch=1 n=d6 v=58
222206 On ch=1 n=b5 v=51
222236 On ch=1 n=d6 v=0
222506 On ch=1 n=a5 v=44
222508 On ch=1 n=d4 v=63
222520 On ch=1 n=c5 v=42
222526 On ch=1 n=b5 v=0
222626 On ch=1 n=d4 v=0
222660 On ch=1 n=c5 v=0
222808 On ch=1 n=b5 v=43
222814 On ch=1 n=a5 v=0
223186 On ch=1 n=b5 v=0
223204 On ch=1 n=b4 v=41
223206 On ch=1 n=g4 v=35
223210 On ch=1 n=g5 v=44
223424 On ch=1 n=b4 v=0
223432 On ch=1 n=g4 v=0
223490 On ch=1 n=g5 v=0
224502 Par ch=1 c=64 v=63
224758 On ch=1 n=b4 v=37
224774 On ch=1 n=g5 v=31
224776 On ch=1 n=g3 v=38
224776 Par ch=1 c=64 v=127
224954 On ch=1 n=b4 v=0
224972 On ch=1 n=g3 v=0
224976 On ch=1 n=g5 v=0
225454 Par ch=1 c=64 v=63
225612 Par ch=1 c=64 v=0
227274 Par ch=1 c=67 v=127
227688 Par ch=1 c=67 v=0
227688 Meta TrkEnd
TrkEnd
MTrk
0 SeqSpec 43 00 01 00
0 Meta TrkName "                                    "
0 TimeSig 3/4 24 8
0 Meta TrkEnd
TrkEnd
MTrk
0 SeqSpec 43 00 01 00
0 Meta TrkName "                                    "
0 TimeSig 3/4 24 8
0 Meta TrkEnd
TrkEnd
MTrk
0 SeqSpec 43 00 01 00
0 Meta TrkName "                                    "
0 TimeSig 3/4 24 8
0 Meta TrkEnd
TrkEnd
MTrk
0 SeqSpec 43 00 01 00
0 Meta TrkName "                                    "
0 TimeSig 3/4 24 8
0 Meta TrkEnd
TrkEnd
MTrk
0 SeqSpec 43 00 01 00
0 Meta TrkName "                                    "
0 TimeSig 3/4 24 8
0 Meta TrkEnd
TrkEnd
MTrk
0 SeqSpec 43 00 01 00
0 Meta TrkName "                                    "
0 TimeSig 3/4 24 8
0 Meta TrkEnd
TrkEnd
MTrk
0 SeqSpec 43 00 01 00
0 Meta TrkName "                                    "
0 TimeSig 3/4 24 8
0 Meta TrkEnd
TrkEnd
MTrk
0 SeqSpec 43 00 01 00
0 Meta TrkName "                                    "
0 TimeSig 3/4 24 8
0 Meta TrkEnd
TrkEnd
MTrk
0 SeqSpec 43 00 01 00
0 Meta TrkName "                                    "
0 TimeSig 3/4 24 8
0 Meta TrkEnd
TrkEnd
MTrk
0 SeqSpec 43 00 01 00
0 Meta TrkName "                                    "
0 TimeSig 3/4 24 8
0 Meta TrkEnd
TrkEnd
MTrk
0 SeqSpec 43 00 01 00
0 Meta TrkName "                                    "
0 TimeSig 3/4 24 8
0 Meta TrkEnd
TrkEnd
MTrk
0 SeqSpec 43 00 01 00
0 Meta TrkName "                                    "
0 TimeSig 3/4 24 8
0 Meta TrkEnd
TrkEnd
MTrk
0 SeqSpec 43 00 01 00
0 Meta TrkName "                                    "
0 TimeSig 3/4 24 8
0 Meta TrkEnd
TrkEnd
MTrk
0 SeqSpec 43 00 01 00
0 Meta TrkName "                                    "
0 TimeSig 3/4 24 8
0 Meta TrkEnd
TrkEnd
MTrk
0 SeqSpec 43 00 01 00
0 Meta TrkName "                                    "
0 TimeSig 3/4 24 8
0 Meta TrkEnd
TrkEnd
MTrk
0 SeqSpec 43 00 01 00
0 Meta TrkName "                                    "
0 TimeSig 3/4 24 8
0 Meta TrkEnd
TrkEnd
