MFile 1 18 480
MTrk
0 Tempo 500000
0 TimeSig 2/4 24 8
0 Meta TrkEnd
TrkEnd
MTrk
0 SeqSpec 43 00 01 00
0 Meta TrkName "PIANO                               "
0 TimeSig 2/4 24 8
0 SysEx f0 41 10 42 12 40 00 7f 00 41 f7
0 SysEx f0 41 10 42 12 40 00 04 64 58 f7
340 SysEx f0 41 10 42 12 40 01 30 03 0c f7
340 SysEx f0 41 10 42 12 40 01 33 50 3c f7
340 SysEx f0 41 10 42 12 40 01 34 3c 4f f7
744 Par ch=1 c=0 v=0
748 Par ch=1 c=32 v=1
752 PrCh ch=1 p=0
756 Par ch=1 c=7 v=100
948 Par ch=1 c=11 v=100
1140 Par ch=1 c=10 v=64
1332 Par ch=1 c=1 v=0
1332 Par ch=1 c=91 v=80
1350 Par ch=1 c=99 v=1
1354 Par ch=1 c=98 v=32
1358 Par ch=1 c=6 v=62
1362 Par ch=1 c=99 v=1
1366 Par ch=1 c=98 v=33
1370 Par ch=1 c=6 v=54
1374 Par ch=1 c=99 v=1
1378 Par ch=1 c=98 v=99
1382 Par ch=1 c=6 v=62
1386 Par ch=1 c=99 v=1
1390 Par ch=1 c=98 v=100
1394 Par ch=1 c=6 v=60
1398 Par ch=1 c=99 v=1
1402 Par ch=1 c=98 v=102
1406 Par ch=1 c=6 v=70
2616 On ch=1 n=e6 v=89
2620 On ch=1 n=g6 v=79
2664 On ch=1 n=e6 v=0
2678 On ch=1 n=g6 v=0
2928 On ch=1 n=g6 v=85
2934 On ch=1 n=e6 v=89
2990 On ch=1 n=e6 v=0
3030 On ch=1 n=g6 v=0
3220 On ch=1 n=e6 v=98
3222 On ch=1 n=c6 v=87
3240 On ch=1 n=c5 v=76
3248 On ch=1 n=a4 v=62
3264 On ch=1 n=c6 v=0
3268 On ch=1 n=e6 v=0
3304 On ch=1 n=c5 v=0
3306 On ch=1 n=a4 v=0
3516 On ch=1 n=c5 v=80
3528 On ch=1 n=a4 v=63
3570 On ch=1 n=c5 v=0
3578 On ch=1 n=a4 v=0
3792 On ch=1 n=a4 v=89
3796 On ch=1 n=f4 v=86
3798 On ch=1 n=f6 v=87
3800 On ch=1 n=d6 v=82
3832 On ch=1 n=a4 v=0
3844 On ch=1 n=f4 v=0
3846 On ch=1 n=d6 v=0
3870 On ch=1 n=f6 v=0
4100 On ch=1 n=d6 v=89
4102 On ch=1 n=f6 v=84
4160 On ch=1 n=f6 v=0
4166 On ch=1 n=d6 v=0
4384 On ch=1 n=d6 v=93
4388 On ch=1 n=b5 v=89
4390 On ch=1 n=b4 v=89
4392 On ch=1 n=g4 v=86
4428 On ch=1 n=b5 v=0
4428 On ch=1 n=d6 v=0
4442 On ch=1 n=g4 v=0
4444 On ch=1 n=b4 v=0
4686 On ch=1 n=b4 v=101
4706 On ch=1 n=g4 v=72
4748 On ch=1 n=g4 v=0
4756 On ch=1 n=b4 v=0
4964 On ch=1 n=g4 v=109
4974 On ch=1 n=e4 v=97
4990 On ch=1 n=c6 v=102
5026 On ch=1 n=g4 v=0
5036 On ch=1 n=e4 v=0
5096 On ch=1 n=d6 v=84
5116 On ch=1 n=c6 v=0
5240 On ch=1 n=e6 v=83
5256 On ch=1 n=d6 v=0
5374 On ch=1 n=c6 v=87
5398 On ch=1 n=e6 v=0
5504 On ch=1 n=c6 v=0
5528 On ch=1 n=f4 v=92
5538 On ch=1 n=a5 v=84
5674 On ch=1 n=b5 v=92
5688 On ch=1 n=a5 v=0
5820 On ch=1 n=c6 v=84
5834 On ch=1 n=b5 v=0
5922 On ch=1 n=c#6 v=100
5948 On ch=1 n=c6 v=0
6016 On ch=1 n=c#6 v=0
6054 On ch=1 n=d6 v=99
6174 On ch=1 n=e6 v=99
6198 On ch=1 n=d6 v=0
6314 On ch=1 n=d4 v=100
6318 On ch=1 n=f4 v=0
6320 On ch=1 n=f6 v=106
6360 On ch=1 n=e6 v=0
6422 On ch=1 n=d4 v=0
6434 On ch=1 n=f6 v=0
6440 On ch=1 n=d6 v=97
6554 On ch=1 n=d6 v=0
6596 On ch=1 n=c6 v=97
6596 On ch=1 n=g4 v=102
6720 On ch=1 n=b5 v=86
6762 On ch=1 n=c6 v=0
6870 On ch=1 n=a5 v=77
6882 On ch=1 n=b5 v=0
6976 On ch=1 n=a5 v=0
7004 On ch=1 n=g5 v=73
7084 On ch=1 n=g5 v=0
7128 On ch=1 n=g4 v=0
7136 On ch=1 n=g6 v=94
7148 On ch=1 n=e6 v=68
7192 On ch=1 n=e6 v=0
7208 On ch=1 n=g6 v=0
7428 On ch=1 n=g6 v=98
7436 On ch=1 n=e6 v=84
7482 On ch=1 n=e6 v=0
7498 On ch=1 n=g6 v=0
7702 On ch=1 n=e6 v=103
7710 On ch=1 n=c6 v=89
7716 On ch=1 n=a4 v=89
7720 On ch=1 n=c5 v=87
7746 On ch=1 n=c6 v=0
7748 On ch=1 n=e6 v=0
7760 On ch=1 n=c5 v=0
7772 On ch=1 n=a4 v=0
7996 On ch=1 n=c5 v=108
8002 On ch=1 n=a4 v=96
8046 On ch=1 n=a4 v=0
8054 On ch=1 n=c5 v=0
8286 On ch=1 n=f4 v=89
8286 On ch=1 n=d4 v=99
8286 On ch=1 n=f6 v=103
8286 On ch=1 n=a6 v=96
8330 On ch=1 n=f4 v=0
8348 On ch=1 n=d4 v=0
8350 On ch=1 n=f6 v=0
8362 On ch=1 n=a6 v=0
8578 On ch=1 n=a6 v=94
8586 On ch=1 n=f6 v=89
8630 On ch=1 n=f6 v=0
8644 On ch=1 n=a6 v=0
8852 On ch=1 n=d6 v=101
8854 On ch=1 n=b5 v=94
8856 On ch=1 n=g4 v=88
8858 On ch=1 n=b4 v=81
8890 On ch=1 n=b5 v=0
8892 On ch=1 n=d6 v=0
8904 On ch=1 n=g4 v=0
8908 On ch=1 n=b4 v=0
9136 On ch=1 n=b4 v=102
9140 On ch=1 n=g4 v=98
9196 On ch=1 n=g4 v=0
9200 On ch=1 n=b4 v=0
9400 On ch=1 n=e4 v=112
9402 On ch=1 n=c4 v=104
9426 On ch=1 n=a6 v=104
9438 On ch=1 n=e4 v=0
9456 On ch=1 n=c4 v=0
9542 On ch=1 n=g6 v=70
9556 On ch=1 n=a6 v=0
9670 On ch=1 n=f6 v=78
9686 On ch=1 n=g6 v=0
9770 On ch=1 n=f6 v=0
9794 On ch=1 n=e6 v=76
9904 On ch=1 n=e6 v=0
9966 On ch=1 n=c#6 v=92
9986 On ch=1 n=f4 v=68
9986 On ch=1 n=a4 v=71
10088 On ch=1 n=c#6 v=0
10092 On ch=1 n=d6 v=91
10234 On ch=1 n=e6 v=93
10274 On ch=1 n=d6 v=0
10360 On ch=1 n=f6 v=91
10388 On ch=1 n=e6 v=0
10500 On ch=1 n=a5 v=90
10514 On ch=1 n=f6 v=0
10590 On ch=1 n=f4 v=0
10614 On ch=1 n=c6 v=104
10652 On ch=1 n=a5 v=0
10746 On ch=1 n=g4 v=89
10746 On ch=1 n=b5 v=104
10750 On ch=1 n=f5 v=86
10762 On ch=1 n=a4 v=0
10790 On ch=1 n=c6 v=0
10814 On ch=1 n=f5 v=0
10840 On ch=1 n=g4 v=0
10858 On ch=1 n=d6 v=102
10888 On ch=1 n=b5 v=0
11024 On ch=1 n=e5 v=85
11032 On ch=1 n=c5 v=78
11034 On ch=1 n=c6 v=100
11070 On ch=1 n=c5 v=0
11082 On ch=1 n=d6 v=0
11116 On ch=1 n=e5 v=0
11142 Par ch=1 c=64 v=63
11164 Par ch=1 c=64 v=127
11324 On ch=1 n=c6 v=0
11330 On ch=1 n=c4 v=98
11388 On ch=1 n=c4 v=0
11562 Par ch=1 c=64 v=63
11570 Par ch=1 c=64 v=0
11626 On ch=1 n=e6 v=76
11634 On ch=1 n=g6 v=76
11670 On ch=1 n=e6 v=0
11690 On ch=1 n=g6 v=0
11920 On ch=1 n=g6 v=89
11930 On ch=1 n=e6 v=87
11990 On ch=1 n=g6 v=0
11992 On ch=1 n=e6 v=0
12194 On ch=1 n=e6 v=96
12198 On ch=1 n=c6 v=94
12202 On ch=1 n=c5 v=83
12202 On ch=1 n=a4 v=80
12246 On ch=1 n=e6 v=0
12248 On ch=1 n=c6 v=0
12254 On ch=1 n=c5 v=0
12260 On ch=1 n=a4 v=0
12494 On ch=1 n=c5 v=86
12500 On ch=1 n=a4 v=81
12544 On ch=1 n=c5 v=0
12546 On ch=1 n=a4 v=0
12756 On ch=1 n=a4 v=94
12760 On ch=1 n=f4 v=87
12770 On ch=1 n=d6 v=88
12774 On ch=1 n=f6 v=87
12806 On ch=1 n=a4 v=0
12822 On ch=1 n=f4 v=0
12836 On ch=1 n=d6 v=0
12848 On ch=1 n=f6 v=0
13060 On ch=1 n=f6 v=90
13060 On ch=1 n=d6 v=87
13126 On ch=1 n=d6 v=0
13132 On ch=1 n=f6 v=0
13334 On ch=1 n=d6 v=100
13336 On ch=1 n=g4 v=88
13340 On ch=1 n=b5 v=92
13340 On ch=1 n=b4 v=85
13380 On ch=1 n=b5 v=0
13386 On ch=1 n=d6 v=0
13390 On ch=1 n=b4 v=0
13396 On ch=1 n=g4 v=0
13630 On ch=1 n=b4 v=90
13634 On ch=1 n=g4 v=88
13684 On ch=1 n=b4 v=0
13694 On ch=1 n=g4 v=0
13902 On ch=1 n=g4 v=88
13902 On ch=1 n=e4 v=89
13924 On ch=1 n=c6 v=102
13954 On ch=1 n=g4 v=0
13978 On ch=1 n=e4 v=0
14040 On ch=1 n=d6 v=84
14066 On ch=1 n=c6 v=0
14190 On ch=1 n=e6 v=87
14204 On ch=1 n=d6 v=0
14322 On ch=1 n=c6 v=91
14348 On ch=1 n=e6 v=0
14460 On ch=1 n=c6 v=0
14462 On ch=1 n=f4 v=100
14470 On ch=1 n=a5 v=86
14586 Par ch=1 c=64 v=63
14606 On ch=1 n=b5 v=96
14616 Par ch=1 c=64 v=127
14628 On ch=1 n=a5 v=0
14742 On ch=1 n=c6 v=84
14780 On ch=1 n=b5 v=0
14856 On ch=1 n=c#6 v=98
14898 On ch=1 n=c6 v=0
14966 On ch=1 n=c#6 v=0
15000 On ch=1 n=d6 v=94
15112 On ch=1 n=e6 v=100
15126 On ch=1 n=d6 v=0
15208 On ch=1 n=f4 v=0
15220 Par ch=1 c=64 v=63
15230 Par ch=1 c=64 v=0
15250 On ch=1 n=f6 v=106
15258 On ch=1 n=d4 v=86
15284 On ch=1 n=e6 v=0
15370 On ch=1 n=f6 v=0
15372 On ch=1 n=d6 v=97
15388 On ch=1 n=d4 v=0
15480 On ch=1 n=d6 v=0
15532 On ch=1 n=c6 v=99
15540 On ch=1 n=g4 v=88
15660 On ch=1 n=b5 v=90
15708 On ch=1 n=c6 v=0
15800 On ch=1 n=a5 v=76
15826 On ch=1 n=b5 v=0
15916 On ch=1 n=a5 v=0
15922 On ch=1 n=g5 v=76
16016 On ch=1 n=g5 v=0
16064 On ch=1 n=g6 v=94
16072 On ch=1 n=e6 v=86
16080 On ch=1 n=g4 v=0
16114 On ch=1 n=e6 v=0
16134 On ch=1 n=g6 v=0
16372 On ch=1 n=g6 v=94
16372 On ch=1 n=e6 v=101
16436 On ch=1 n=e6 v=0
16438 On ch=1 n=g6 v=0
16648 On ch=1 n=e6 v=104
16654 On ch=1 n=c6 v=94
16656 On ch=1 n=a4 v=90
16660 On ch=1 n=c5 v=86
16690 On ch=1 n=e6 v=0
16692 On ch=1 n=c6 v=0
16704 On ch=1 n=c5 v=0
16706 On ch=1 n=a4 v=0
16934 On ch=1 n=c5 v=101
16942 On ch=1 n=a4 v=87
16986 On ch=1 n=a4 v=0
17000 On ch=1 n=c5 v=0
17210 On ch=1 n=f4 v=101
17210 On ch=1 n=d4 v=104
17216 On ch=1 n=a6 v=111
17222 On ch=1 n=f6 v=101
17246 On ch=1 n=f4 v=0
17276 On ch=1 n=d4 v=0
17286 On ch=1 n=f6 v=0
17304 On ch=1 n=a6 v=0
17502 On ch=1 n=a6 v=106
17510 On ch=1 n=f6 v=92
17558 On ch=1 n=f6 v=0
17572 On ch=1 n=a6 v=0
17778 On ch=1 n=d6 v=112
17780 On ch=1 n=b5 v=104
17790 On ch=1 n=b4 v=84
17792 On ch=1 n=g4 v=85
17826 On ch=1 n=b5 v=0
17838 On ch=1 n=d6 v=0
17842 On ch=1 n=b4 v=0
17856 On ch=1 n=g4 v=0
18068 On ch=1 n=b4 v=93
18074 On ch=1 n=g4 v=88
18136 On ch=1 n=g4 v=0
18136 On ch=1 n=b4 v=0
18338 On ch=1 n=e4 v=101
18346 On ch=1 n=c4 v=87
18352 On ch=1 n=a6 v=108
18368 On ch=1 n=e4 v=0
18386 On ch=1 n=c4 v=0
18386 Par ch=1 c=64 v=63
18392 Par ch=1 c=64 v=127
18478 On ch=1 n=g6 v=72
18484 On ch=1 n=a6 v=0
18588 Par ch=1 c=64 v=63
18594 Par ch=1 c=64 v=0
18602 On ch=1 n=f6 v=85
18620 On ch=1 n=g6 v=0
18702 On ch=1 n=f6 v=0
18720 On ch=1 n=e6 v=78
18866 Par ch=1 c=64 v=63
18868 On ch=1 n=c#6 v=107
18868 Par ch=1 c=64 v=127
18880 On ch=1 n=e6 v=0
18890 On ch=1 n=a4 v=102
18908 On ch=1 n=f4 v=78
19004 On ch=1 n=d6 v=100
19008 On ch=1 n=c#6 v=0
19136 On ch=1 n=e6 v=93
19168 On ch=1 n=d6 v=0
19266 On ch=1 n=f6 v=86
19280 On ch=1 n=e6 v=0
19418 On ch=1 n=f6 v=0
19420 On ch=1 n=a5 v=84
19478 On ch=1 n=f4 v=0
19482 On ch=1 n=a4 v=0
19538 On ch=1 n=c6 v=104
19548 Par ch=1 c=64 v=63
19550 On ch=1 n=a5 v=0
19558 Par ch=1 c=64 v=0
19670 On ch=1 n=g4 v=82
19674 On ch=1 n=b5 v=103
19688 On ch=1 n=f5 v=74
19698 On ch=1 n=c6 v=0
19754 On ch=1 n=f5 v=0
19788 On ch=1 n=g4 v=0
19788 On ch=1 n=d6 v=100
19804 On ch=1 n=b5 v=0
19894 On ch=1 n=d6 v=0
19932 On ch=1 n=c6 v=107
19942 On ch=1 n=e5 v=93
19944 On ch=1 n=c5 v=92
19982 Par ch=1 c=64 v=63
19984 On ch=1 n=c5 v=0
19984 Par ch=1 c=64 v=127
20010 On ch=1 n=e5 v=0
20052 On ch=1 n=c6 v=0
20210 On ch=1 n=c4 v=103
20290 On ch=1 n=c4 v=0
20344 Par ch=1 c=64 v=63
20350 Par ch=1 c=64 v=0
20498 On ch=1 n=c5 v=88
20510 On ch=1 n=e6 v=93
20534 Par ch=1 c=64 v=63
20540 Par ch=1 c=64 v=127
20598 On ch=1 n=c5 v=0
20618 On ch=1 n=e6 v=0
20624 On ch=1 n=f#6 v=99
20638 On ch=1 n=g5 v=57
20722 On ch=1 n=f#6 v=0
20752 On ch=1 n=g5 v=0
20762 On ch=1 n=g6 v=93
20780 On ch=1 n=e5 v=62
20832 On ch=1 n=g6 v=0
20848 On ch=1 n=e5 v=0
20866 On ch=1 n=g5 v=75
20880 On ch=1 n=g6 v=100
20978 On ch=1 n=g5 v=0
21008 On ch=1 n=b4 v=89
21014 On ch=1 n=a6 v=103
21016 On ch=1 n=g6 v=0
21038 Par ch=1 c=64 v=63
21056 Par ch=1 c=64 v=0
21120 Par ch=1 c=64 v=63
21122 On ch=1 n=g5 v=60
21144 On ch=1 n=b4 v=0
21152 Par ch=1 c=64 v=127
21166 On ch=1 n=g6 v=98
21220 On ch=1 n=a6 v=0
21260 On ch=1 n=g5 v=0
21266 On ch=1 n=d5 v=76
21292 On ch=1 n=f#6 v=106
21350 On ch=1 n=d5 v=0
21352 On ch=1 n=g6 v=0
21386 On ch=1 n=g5 v=74
21414 On ch=1 n=e6 v=89
21428 On ch=1 n=f#6 v=0
21460 On ch=1 n=g5 v=0
21492 Par ch=1 c=64 v=63
21506 On ch=1 n=e6 v=0
21546 On ch=1 n=f#4 v=83
21550 On ch=1 n=d6 v=100
21582 Par ch=1 c=64 v=127
21626 On ch=1 n=d6 v=0
21688 On ch=1 n=d5 v=68
21692 On ch=1 n=d6 v=89
21694 On ch=1 n=f#4 v=0
21762 On ch=1 n=d6 v=0
21806 On ch=1 n=d5 v=0
21824 On ch=1 n=d6 v=92
21826 On ch=1 n=a4 v=63
21898 On ch=1 n=d6 v=0
21914 On ch=1 n=a4 v=0
21932 On ch=1 n=d5 v=66
21944 On ch=1 n=d6 v=99
22016 On ch=1 n=d6 v=0
22018 Par ch=1 c=64 v=63
22044 On ch=1 n=d5 v=0
22048 Par ch=1 c=64 v=0
22062 On ch=1 n=e6 v=109
22068 On ch=1 n=g4 v=91
22106 Par ch=1 c=64 v=63
22150 Par ch=1 c=64 v=127
22176 On ch=1 n=d5 v=75
22186 On ch=1 n=d6 v=103
22188 On ch=1 n=g4 v=0
22254 On ch=1 n=e6 v=0
22310 On ch=1 n=c6 v=100
22320 On ch=1 n=b4 v=80
22322 On ch=1 n=d5 v=0
22366 On ch=1 n=d6 v=0
22390 On ch=1 n=b4 v=0
22396 On ch=1 n=d5 v=93
22420 On ch=1 n=b5 v=97
22428 On ch=1 n=c6 v=0
22478 On ch=1 n=b5 v=0
22480 On ch=1 n=d5 v=0
22582 On ch=1 n=b3 v=101
22596 On ch=1 n=e7 v=109
22704 Par ch=1 c=64 v=63
22732 On ch=1 n=d7 v=111
22734 On ch=1 n=g4 v=91
22784 Par ch=1 c=64 v=127
22804 On ch=1 n=e7 v=0
22866 On ch=1 n=c7 v=106
22876 On ch=1 n=d4 v=107
22898 On ch=1 n=g4 v=0
22918 On ch=1 n=d7 v=0
22972 On ch=1 n=g4 v=89
22982 On ch=1 n=b6 v=90
22986 On ch=1 n=c7 v=0
22992 On ch=1 n=b3 v=0
23042 On ch=1 n=d4 v=0
23076 On ch=1 n=b6 v=0
23110 On ch=1 n=c4 v=107
23126 On ch=1 n=g#6 v=100
23134 On ch=1 n=g4 v=0
23150 Par ch=1 c=64 v=63
23164 Par ch=1 c=64 v=0
23234 On ch=1 n=a4 v=74
23240 On ch=1 n=a6 v=96
23260 On ch=1 n=g#6 v=0
23376 On ch=1 n=e4 v=93
23378 On ch=1 n=b6 v=92
23396 On ch=1 n=a4 v=0
23434 On ch=1 n=a6 v=0
23490 On ch=1 n=a4 v=84
23496 On ch=1 n=e4 v=0
23500 On ch=1 n=c7 v=91
23532 On ch=1 n=b6 v=0
23554 On ch=1 n=c4 v=0
23612 On ch=1 n=c7 v=0
23616 On ch=1 n=e6 v=86
23652 On ch=1 n=c#4 v=103
23656 On ch=1 n=a4 v=0
23756 On ch=1 n=a4 v=72
23766 On ch=1 n=e6 v=0
23768 On ch=1 n=f#6 v=106
23822 On ch=1 n=c#4 v=0
23896 On ch=1 n=g6 v=88
23898 On ch=1 n=f#6 v=0
23900 On ch=1 n=e4 v=85
23914 On ch=1 n=a4 v=0
24000 On ch=1 n=a4 v=71
24020 On ch=1 n=e4 v=0
24020 On ch=1 n=a6 v=91
24048 On ch=1 n=g6 v=0
24144 On ch=1 n=a4 v=0
24172 On ch=1 n=d4 v=94
24174 On ch=1 n=g6 v=94
24202 On ch=1 n=a6 v=0
24314 On ch=1 n=f#6 v=100
24352 On ch=1 n=g6 v=0
24426 On ch=1 n=f#6 v=0
24452 On ch=1 n=e6 v=78
24524 Par ch=1 c=64 v=63
24538 Par ch=1 c=64 v=127
24552 On ch=1 n=e6 v=0
24566 On ch=1 n=d6 v=78
24580 On ch=1 n=d4 v=0
24606 On ch=1 n=d6 v=0
24720 Par ch=1 c=64 v=63
24724 On ch=1 n=d7 v=112
24728 Par ch=1 c=64 v=0
24730 On ch=1 n=b6 v=90
24766 On ch=1 n=b6 v=0
24800 On ch=1 n=d7 v=0
25056 On ch=1 n=b6 v=86
25058 On ch=1 n=d7 v=84
25104 On ch=1 n=b6 v=0
25132 On ch=1 n=d7 v=0
25338 On ch=1 n=b6 v=80
25338 On ch=1 n=g6 v=79
25356 On ch=1 n=g5 v=78
25370 On ch=1 n=e5 v=65
25382 On ch=1 n=g6 v=0
25384 On ch=1 n=b6 v=0
25414 On ch=1 n=e5 v=0
25430 On ch=1 n=g5 v=0
25644 On ch=1 n=g5 v=75
25652 On ch=1 n=e5 v=76
25702 On ch=1 n=g5 v=0
25722 On ch=1 n=e5 v=0
25918 On ch=1 n=c5 v=94
25922 On ch=1 n=a6 v=89
25926 On ch=1 n=c7 v=88
25926 On ch=1 n=e5 v=73
25968 On ch=1 n=e5 v=0
25984 On ch=1 n=a6 v=0
25984 On ch=1 n=c5 v=0
25998 On ch=1 n=c7 v=0
26218 On ch=1 n=c7 v=96
26226 On ch=1 n=a6 v=71
26268 On ch=1 n=a6 v=0
26296 On ch=1 n=c7 v=0
26498 On ch=1 n=a6 v=98
26508 On ch=1 n=f#6 v=97
26512 On ch=1 n=f#5 v=70
26520 On ch=1 n=d5 v=66
26540 On ch=1 n=f#6 v=0
26556 On ch=1 n=f#5 v=0
26562 On ch=1 n=a6 v=0
26568 On ch=1 n=d5 v=0
26790 On ch=1 n=f#5 v=79
26810 On ch=1 n=d5 v=51
26846 On ch=1 n=f#5 v=0
26860 On ch=1 n=d5 v=0
27070 On ch=1 n=d5 v=80
27078 On ch=1 n=b4 v=69
27090 On ch=1 n=g6 v=101
27148 Par ch=1 c=64 v=63
27158 On ch=1 n=d5 v=0
27164 Par ch=1 c=64 v=127
27198 On ch=1 n=b4 v=0
27224 On ch=1 n=a6 v=88
27270 On ch=1 n=g6 v=0
27328 On ch=1 n=b6 v=87
27358 On ch=1 n=a6 v=0
27454 On ch=1 n=b6 v=0
27460 On ch=1 n=g6 v=93
27588 On ch=1 n=g4 v=77
27592 On ch=1 n=c4 v=84
27606 On ch=1 n=d#6 v=98
27624 On ch=1 n=g6 v=0
27646 On ch=1 n=e6 v=48
27686 Par ch=1 c=64 v=63
27702 On ch=1 n=e6 v=0
27704 Par ch=1 c=64 v=0
27706 On ch=1 n=d#6 v=0
27762 On ch=1 n=e6 v=85
27774 Par ch=1 c=64 v=63
27806 Par ch=1 c=64 v=127
27916 On ch=1 n=g6 v=96
27944 On ch=1 n=e6 v=0
28018 On ch=1 n=e6 v=90
28068 On ch=1 n=g6 v=0
28154 On ch=1 n=d6 v=101
28192 On ch=1 n=d4 v=96
28200 On ch=1 n=e6 v=0
28224 On ch=1 n=c4 v=0
28236 Par ch=1 c=64 v=63
28286 On ch=1 n=b5 v=99
28296 On ch=1 n=d6 v=0
28300 Par ch=1 c=64 v=127
28404 On ch=1 n=b5 v=0
28430 On ch=1 n=c6 v=104
28430 On ch=1 n=f#4 v=93
28442 Par ch=1 c=64 v=63
28456 On ch=1 n=g4 v=0
28460 Par ch=1 c=64 v=0
28500 On ch=1 n=f#4 v=0
28540 On ch=1 n=c6 v=0
28548 On ch=1 n=a5 v=98
28564 On ch=1 n=d4 v=0
28656 On ch=1 n=a5 v=0
28722 On ch=1 n=g5 v=93
28728 On ch=1 n=g4 v=81
28782 Par ch=1 c=64 v=63
28796 Par ch=1 c=64 v=127
28844 On ch=1 n=g4 v=0
28990 On ch=1 n=g3 v=109
28994 On ch=1 n=g5 v=0
29032 Par ch=1 c=64 v=63
29044 On ch=1 n=g3 v=0
29050 Par ch=1 c=64 v=0
29288 On ch=1 n=g5 v=91
29388 On ch=1 n=g5 v=0
29420 On ch=1 n=a5 v=94
29538 On ch=1 n=b5 v=100
29574 On ch=1 n=a5 v=0
29676 On ch=1 n=c6 v=101
29712 On ch=1 n=b5 v=0
29806 On ch=1 n=b4 v=98
29808 Par ch=1 c=64 v=63
29816 On ch=1 n=g4 v=71
29818 On ch=1 n=d6 v=116
29824 Par ch=1 c=64 v=127
29858 On ch=1 n=g4 v=0
29864 On ch=1 n=c6 v=0
29876 On ch=1 n=b4 v=0
29904 On ch=1 n=d6 v=0
30106 On ch=1 n=g3 v=116
30112 Par ch=1 c=64 v=63
30128 Par ch=1 c=64 v=0
30180 On ch=1 n=g3 v=0
30404 On ch=1 n=b5 v=100
30512 On ch=1 n=b5 v=0
30526 On ch=1 n=c6 v=102
30648 On ch=1 n=d6 v=104
30716 On ch=1 n=c6 v=0
30770 On ch=1 n=e6 v=113
30842 On ch=1 n=d6 v=0
30874 Par ch=1 c=64 v=63
30892 Par ch=1 c=64 v=127
30920 On ch=1 n=g4 v=94
30922 On ch=1 n=b4 v=94
30926 On ch=1 n=f6 v=117
30978 On ch=1 n=e6 v=0
30988 On ch=1 n=g4 v=0
30990 On ch=1 n=b4 v=0
31024 On ch=1 n=f6 v=0
31212 On ch=1 n=g3 v=114
31292 On ch=1 n=g3 v=0
31516 On ch=1 n=d6 v=103
31566 Par ch=1 c=64 v=63
31616 Par ch=1 c=64 v=0
31646 On ch=1 n=e6 v=109
31694 On ch=1 n=d6 v=0
31756 On ch=1 n=f6 v=109
31846 On ch=1 n=e6 v=0
31892 On ch=1 n=g6 v=106
31976 On ch=1 n=f6 v=0
32054 On ch=1 n=a6 v=113
32106 On ch=1 n=g6 v=0
32158 On ch=1 n=a6 v=0
32368 On ch=1 n=g#6 v=108
32462 On ch=1 n=g#6 v=0
32670 On ch=1 n=g6 v=84
32766 On ch=1 n=g6 v=0
32980 On ch=1 n=f#6 v=76
33096 On ch=1 n=f#6 v=0
33340 On ch=1 n=f6 v=59
33468 Par ch=1 c=64 v=63
33500 Par ch=1 c=64 v=127
33726 On ch=1 n=f6 v=0
34046 Par ch=1 c=64 v=63
34054 Par ch=1 c=64 v=0
34078 On ch=1 n=g6 v=84
34082 On ch=1 n=e6 v=81
34120 On ch=1 n=e6 v=0
34136 On ch=1 n=g6 v=0
34380 On ch=1 n=g6 v=83
34400 On ch=1 n=e6 v=74
34464 On ch=1 n=e6 v=0
34478 On ch=1 n=g6 v=0
34674 On ch=1 n=c6 v=87
34678 On ch=1 n=e6 v=78
34694 On ch=1 n=c5 v=79
34694 On ch=1 n=a4 v=72
34716 On ch=1 n=c6 v=0
34718 On ch=1 n=e6 v=0
34746 On ch=1 n=c5 v=0
34754 On ch=1 n=a4 v=0
34982 On ch=1 n=c5 v=90
34986 On ch=1 n=a4 v=84
35038 On ch=1 n=c5 v=0
35042 On ch=1 n=a4 v=0
35250 On ch=1 n=a4 v=86
35256 On ch=1 n=f4 v=84
35256 On ch=1 n=f6 v=94
35266 On ch=1 n=d6 v=74
35294 On ch=1 n=a4 v=0
35310 On ch=1 n=d6 v=0
35312 On ch=1 n=f4 v=0
35330 On ch=1 n=f6 v=0
35554 On ch=1 n=f6 v=94
35556 On ch=1 n=d6 v=89
35608 On ch=1 n=d6 v=0
35624 On ch=1 n=f6 v=0
35838 On ch=1 n=b4 v=90
35840 On ch=1 n=d6 v=92
35840 On ch=1 n=g4 v=91
35842 On ch=1 n=b5 v=88
35876 On ch=1 n=d6 v=0
35880 On ch=1 n=b5 v=0
35902 On ch=1 n=b4 v=0
35908 On ch=1 n=g4 v=0
36138 On ch=1 n=b4 v=98
36140 On ch=1 n=g4 v=93
36196 On ch=1 n=b4 v=0
36210 On ch=1 n=g4 v=0
36424 On ch=1 n=g4 v=100
36426 On ch=1 n=e4 v=99
36446 On ch=1 n=c6 v=108
36474 Par ch=1 c=64 v=63
36476 On ch=1 n=g4 v=0
36492 On ch=1 n=e4 v=0
36500 Par ch=1 c=64 v=127
36560 On ch=1 n=d6 v=86
36590 Par ch=1 c=64 v=63
36604 On ch=1 n=c6 v=0
36622 Par ch=1 c=64 v=0
36694 On ch=1 n=e6 v=83
36734 On ch=1 n=d6 v=0
36840 On ch=1 n=c6 v=93
36876 On ch=1 n=e6 v=0
36966 On ch=1 n=f4 v=87
36990 Par ch=1 c=64 v=63
36992 On ch=1 n=c6 v=0
37002 On ch=1 n=a5 v=76
37020 Par ch=1 c=64 v=127
37130 On ch=1 n=b5 v=96
37154 On ch=1 n=a5 v=0
37270 On ch=1 n=c6 v=86
37292 On ch=1 n=b5 v=0
37346 Par ch=1 c=64 v=63
37382 On ch=1 n=c#6 v=91
37390 Par ch=1 c=64 v=0
37414 Par ch=1 c=64 v=63
37420 On ch=1 n=c6 v=0
37470 Par ch=1 c=64 v=127
37484 On ch=1 n=c#6 v=0
37510 On ch=1 n=d6 v=90
37630 On ch=1 n=e6 v=102
37654 On ch=1 n=d6 v=0
37756 On ch=1 n=f4 v=0
37770 On ch=1 n=f6 v=104
37772 On ch=1 n=d4 v=81
37818 On ch=1 n=e6 v=0
37840 Par ch=1 c=64 v=63
37862 Par ch=1 c=64 v=0
37892 On ch=1 n=d6 v=91
37896 On ch=1 n=f6 v=0
37912 On ch=1 n=d4 v=0
37998 On ch=1 n=d6 v=0
38048 On ch=1 n=c6 v=97
38056 On ch=1 n=g4 v=82
38168 On ch=1 n=b5 v=80
38174 Par ch=1 c=64 v=63
38196 Par ch=1 c=64 v=127
38208 On ch=1 n=c6 v=0
38330 On ch=1 n=a5 v=67
38332 On ch=1 n=b5 v=0
38440 On ch=1 n=a5 v=0
38458 On ch=1 n=g5 v=68
38532 On ch=1 n=g5 v=0
38556 Par ch=1 c=64 v=63
38562 On ch=1 n=g4 v=0
38570 Par ch=1 c=64 v=0
38590 On ch=1 n=g6 v=96
38608 On ch=1 n=e6 v=76
38646 On ch=1 n=e6 v=0
38672 On ch=1 n=g6 v=0
38892 On ch=1 n=g6 v=92
38896 On ch=1 n=e6 v=98
38944 On ch=1 n=g6 v=0
38956 On ch=1 n=e6 v=0
39170 On ch=1 n=e6 v=103
39176 On ch=1 n=c6 v=89
39178 On ch=1 n=c5 v=91
39182 On ch=1 n=a4 v=84
39216 On ch=1 n=c6 v=0
39218 On ch=1 n=e6 v=0
39232 On ch=1 n=c5 v=0
39238 On ch=1 n=a4 v=0
39454 On ch=1 n=c5 v=101
39460 On ch=1 n=a4 v=90
39506 On ch=1 n=a4 v=0
39516 On ch=1 n=c5 v=0
39736 On ch=1 n=a6 v=111
39742 On ch=1 n=d4 v=89
39744 On ch=1 n=f4 v=77
39748 On ch=1 n=f6 v=93
39784 On ch=1 n=f6 v=0
39788 On ch=1 n=f4 v=0
39794 On ch=1 n=d4 v=0
39808 On ch=1 n=a6 v=0
40016 On ch=1 n=a6 v=112
40020 On ch=1 n=f6 v=104
40086 On ch=1 n=f6 v=0
40092 On ch=1 n=a6 v=0
40292 On ch=1 n=d6 v=92
40296 On ch=1 n=b5 v=85
40308 On ch=1 n=b4 v=93
40310 On ch=1 n=g4 v=97
40332 On ch=1 n=d6 v=0
40334 On ch=1 n=b5 v=0
40360 On ch=1 n=b4 v=0
40364 On ch=1 n=g4 v=0
40594 On ch=1 n=b4 v=107
40604 On ch=1 n=g4 v=96
40646 On ch=1 n=g4 v=0
40658 On ch=1 n=b4 v=0
40886 On ch=1 n=c4 v=90
40892 On ch=1 n=e4 v=87
40896 On ch=1 n=a6 v=102
40952 On ch=1 n=e4 v=0
40970 Par ch=1 c=64 v=63
40974 On ch=1 n=c4 v=0
40982 Par ch=1 c=64 v=127
41030 On ch=1 n=g6 v=87
41062 Par ch=1 c=64 v=63
41064 On ch=1 n=a6 v=0
41078 Par ch=1 c=64 v=0
41170 On ch=1 n=f6 v=96
41194 On ch=1 n=g6 v=0
41280 On ch=1 n=f6 v=0
41290 On ch=1 n=e6 v=92
41436 On ch=1 n=c#6 v=105
41440 On ch=1 n=e6 v=0
41456 On ch=1 n=f4 v=97
41458 On ch=1 n=a4 v=100
41472 Par ch=1 c=64 v=63
41484 Par ch=1 c=64 v=127
41564 On ch=1 n=d6 v=96
41570 On ch=1 n=c#6 v=0
41714 On ch=1 n=e6 v=96
41758 On ch=1 n=d6 v=0
41844 On ch=1 n=f6 v=86
41898 On ch=1 n=e6 v=0
41986 On ch=1 n=a5 v=82
42000 On ch=1 n=f6 v=0
42014 On ch=1 n=f4 v=0
42092 On ch=1 n=c6 v=101
42132 On ch=1 n=a5 v=0
42198 Par ch=1 c=64 v=63
42216 Par ch=1 c=64 v=0
42238 On ch=1 n=g4 v=70
42238 On ch=1 n=b5 v=102
42246 On ch=1 n=f5 v=65
42266 On ch=1 n=a4 v=0
42284 On ch=1 n=c6 v=0
42322 On ch=1 n=f5 v=0
42354 On ch=1 n=d6 v=98
42378 On ch=1 n=b5 v=0
42386 On ch=1 n=g4 v=0
42504 On ch=1 n=d6 v=0
42516 On ch=1 n=e5 v=70
42522 On ch=1 n=c6 v=97
42524 On ch=1 n=c5 v=51
42570 On ch=1 n=c5 v=0
42576 Par ch=1 c=64 v=63
42580 On ch=1 n=e5 v=0
42586 Par ch=1 c=64 v=127
42808 On ch=1 n=c4 v=84
42816 On ch=1 n=c6 v=0
42886 On ch=1 n=c4 v=0
43110 Par ch=1 c=64 v=63
43116 On ch=1 n=e5 v=85
43118 Par ch=1 c=64 v=0
43130 On ch=1 n=c5 v=66
43170 On ch=1 n=c5 v=0
43176 On ch=1 n=e5 v=0
43416 On ch=1 n=e5 v=77
43432 On ch=1 n=c5 v=59
43482 On ch=1 n=c5 v=0
43514 On ch=1 n=e5 v=0
43714 On ch=1 n=c5 v=80
43728 On ch=1 n=a4 v=55
43732 On ch=1 n=e6 v=55
43852 On ch=1 n=e6 v=0
43870 On ch=1 n=d#6 v=70
43986 On ch=1 n=d#6 v=0
43986 On ch=1 n=f6 v=68
44018 On ch=1 n=c5 v=0
44072 On ch=1 n=a4 v=0
44114 On ch=1 n=e6 v=82
44146 On ch=1 n=f6 v=0
44192 On ch=1 n=e6 v=0
44242 On ch=1 n=d5 v=86
44252 On ch=1 n=b4 v=75
44298 On ch=1 n=b4 v=0
44318 On ch=1 n=d5 v=0
44526 On ch=1 n=d5 v=93
44548 On ch=1 n=b4 v=72
44596 On ch=1 n=b4 v=0
44606 On ch=1 n=d5 v=0
44808 On ch=1 n=b4 v=65
44830 On ch=1 n=e6 v=81
44834 On ch=1 n=g#4 v=64
44952 On ch=1 n=e6 v=0
44966 On ch=1 n=d#6 v=72
44968 Par ch=1 c=64 v=63
45002 Par ch=1 c=64 v=127
45098 On ch=1 n=f6 v=76
45102 On ch=1 n=d#6 v=0
45176 On ch=1 n=b4 v=0
45232 On ch=1 n=e6 v=65
45236 On ch=1 n=g#4 v=0
45268 On ch=1 n=f6 v=0
45286 On ch=1 n=e6 v=0
45382 On ch=1 n=c7 v=106
45396 Par ch=1 c=64 v=63
45404 Par ch=1 c=64 v=0
45404 On ch=1 n=e6 v=77
45444 On ch=1 n=c7 v=0
45448 On ch=1 n=e6 v=0
45692 On ch=1 n=c7 v=101
45702 On ch=1 n=e6 v=77
45744 On ch=1 n=e6 v=0
45758 On ch=1 n=c7 v=0
45990 On ch=1 n=a6 v=85
45996 On ch=1 n=e5 v=52
46012 On ch=1 n=c6 v=40
46032 Par ch=1 c=64 v=63
46042 Par ch=1 c=64 v=127
46126 On ch=1 n=e5 v=0
46126 On ch=1 n=d#5 v=78
46194 On ch=1 n=c6 v=0
46230 On ch=1 n=a6 v=0
46258 On ch=1 n=f5 v=76
46260 On ch=1 n=d#5 v=0
46358 On ch=1 n=e5 v=92
46374 On ch=1 n=f5 v=0
46452 On ch=1 n=e5 v=0
46456 Par ch=1 c=64 v=63
46464 Par ch=1 c=64 v=0
46548 On ch=1 n=b6 v=99
46552 On ch=1 n=d6 v=91
46594 On ch=1 n=d6 v=0
46610 On ch=1 n=b6 v=0
46842 On ch=1 n=b6 v=94
46854 On ch=1 n=d6 v=84
46896 On ch=1 n=d6 v=0
46908 On ch=1 n=b6 v=0
47118 On ch=1 n=g#6 v=92
47130 On ch=1 n=e5 v=59
47132 On ch=1 n=b5 v=72
47144 Par ch=1 c=64 v=63
47152 Par ch=1 c=64 v=127
47200 On ch=1 n=b5 v=0
47228 On ch=1 n=g#6 v=0
47260 On ch=1 n=d#5 v=81
47288 On ch=1 n=e5 v=0
47398 On ch=1 n=f5 v=71
47402 On ch=1 n=d#5 v=0
47504 On ch=1 n=e5 v=98
47524 On ch=1 n=f5 v=0
47592 On ch=1 n=e5 v=0
47668 On ch=1 n=a6 v=101
47684 Par ch=1 c=64 v=63
47686 On ch=1 n=e5 v=84
47696 On ch=1 n=c5 v=78
47704 Par ch=1 c=64 v=0
47780 Par ch=1 c=64 v=63
47790 On ch=1 n=e6 v=104
47816 Par ch=1 c=64 v=127
47824 On ch=1 n=a6 v=0
47932 On ch=1 n=c6 v=107
47970 On ch=1 n=e6 v=0
48042 On ch=1 n=a5 v=102
48064 On ch=1 n=c6 v=0
48190 On ch=1 n=a5 v=0
48206 On ch=1 n=d5 v=96
48208 On ch=1 n=f5 v=89
48208 On ch=1 n=c6 v=94
48226 Par ch=1 c=64 v=63
48242 On ch=1 n=c5 v=0
48246 Par ch=1 c=64 v=0
48254 On ch=1 n=e5 v=0
48298 Par ch=1 c=64 v=63
48324 On ch=1 n=a#5 v=99
48334 On ch=1 n=c6 v=0
48342 Par ch=1 c=64 v=127
48408 On ch=1 n=a#5 v=0
48474 On ch=1 n=a#5 v=92
48492 On ch=1 n=f5 v=0
48530 On ch=1 n=a#5 v=0
48584 On ch=1 n=a#5 v=89
48686 On ch=1 n=a#5 v=0
48706 On ch=1 n=d5 v=0
48760 On ch=1 n=d6 v=103
48770 On ch=1 n=g5 v=92
48774 On ch=1 n=e5 v=90
48796 Par ch=1 c=64 v=63
48882 On ch=1 n=c#6 v=109
48888 Par ch=1 c=64 v=127
48908 On ch=1 n=d6 v=0
48968 On ch=1 n=c#6 v=0
49028 On ch=1 n=c#6 v=107
49066 On ch=1 n=e5 v=0
49086 On ch=1 n=c#6 v=0
49090 On ch=1 n=g5 v=0
49150 On ch=1 n=c#6 v=98
49290 On ch=1 n=a5 v=92
49298 On ch=1 n=f5 v=85
49298 On ch=1 n=e6 v=102
49314 On ch=1 n=c#6 v=0
49366 Par ch=1 c=64 v=63
49420 Par ch=1 c=64 v=127
49424 On ch=1 n=d6 v=104
49426 On ch=1 n=e6 v=0
49560 On ch=1 n=c#5 v=98
49562 On ch=1 n=f6 v=108
49604 On ch=1 n=d6 v=0
49676 On ch=1 n=e6 v=112
49754 On ch=1 n=f6 v=0
49778 On ch=1 n=f5 v=0
49790 On ch=1 n=c#5 v=0
49822 Par ch=1 c=64 v=63
49826 On ch=1 n=d5 v=99
49828 On ch=1 n=g6 v=108
49840 On ch=1 n=e6 v=0
49920 Par ch=1 c=64 v=127
49938 On ch=1 n=f6 v=107
50018 On ch=1 n=g6 v=0
50050 On ch=1 n=f6 v=0
50092 On ch=1 n=f6 v=111
50100 On ch=1 n=e5 v=111
50134 Par ch=1 c=64 v=63
50160 Par ch=1 c=64 v=127
50162 On ch=1 n=d5 v=0
50218 On ch=1 n=e6 v=111
50296 On ch=1 n=f6 v=0
50330 On ch=1 n=a5 v=0
50332 On ch=1 n=e6 v=0
50358 Par ch=1 c=64 v=63
50366 Par ch=1 c=64 v=0
50382 On ch=1 n=a5 v=99
50388 On ch=1 n=e6 v=107
50390 On ch=1 n=f5 v=106
50442 Par ch=1 c=64 v=63
50456 Par ch=1 c=64 v=127
50458 On ch=1 n=e5 v=0
50528 On ch=1 n=d#6 v=116
50548 On ch=1 n=e6 v=0
50634 On ch=1 n=d#6 v=0
50708 Par ch=1 c=64 v=63
50724 Par ch=1 c=64 v=0
50736 On ch=1 n=c7 v=111
50754 Par ch=1 c=64 v=63
50778 Par ch=1 c=64 v=127
50992 On ch=1 n=a5 v=0
51000 On ch=1 n=f5 v=0
51080 On ch=1 n=a5 v=86
51088 On ch=1 n=f5 v=81
51168 On ch=1 n=a5 v=0
51176 On ch=1 n=f5 v=0
51438 On ch=1 n=d#6 v=107
51482 On ch=1 n=c7 v=0
51754 On ch=1 n=d#6 v=0
51824 On ch=1 n=e6 v=99
51826 On ch=1 n=e4 v=73
51888 Par ch=1 c=64 v=63
51904 Par ch=1 c=64 v=127
52022 On ch=1 n=e5 v=71
52112 On ch=1 n=e4 v=0
52192 On ch=1 n=g#4 v=88
52200 On ch=1 n=e6 v=0
52208 On ch=1 n=e5 v=0
52296 On ch=1 n=e5 v=76
52352 On ch=1 n=g#4 v=0
52420 On ch=1 n=b6 v=88
52446 On ch=1 n=b4 v=78
52458 On ch=1 n=e5 v=0
52482 Par ch=1 c=64 v=63
52538 On ch=1 n=g#6 v=99
52548 On ch=1 n=e5 v=69
52560 On ch=1 n=b4 v=0
52564 Par ch=1 c=64 v=127
52576 On ch=1 n=b6 v=0
52678 On ch=1 n=e6 v=90
52700 On ch=1 n=g#4 v=88
52708 On ch=1 n=g#6 v=0
52718 On ch=1 n=e5 v=0
52804 On ch=1 n=e5 v=64
52810 On ch=1 n=d6 v=99
52828 On ch=1 n=e6 v=0
52842 On ch=1 n=g#4 v=0
52902 Par ch=1 c=64 v=63
52942 On ch=1 n=d6 v=0
52952 On ch=1 n=c6 v=104
52958 On ch=1 n=e4 v=81
52968 On ch=1 n=e5 v=0
52972 Par ch=1 c=64 v=127
53052 On ch=1 n=e5 v=70
53088 On ch=1 n=e4 v=0
53098 On ch=1 n=e6 v=96
53108 On ch=1 n=c6 v=0
53196 On ch=1 n=e6 v=0
53216 On ch=1 n=a4 v=85
53222 On ch=1 n=a6 v=79
53238 On ch=1 n=e5 v=0
53332 On ch=1 n=e5 v=71
53352 On ch=1 n=g#6 v=98
53366 On ch=1 n=a4 v=0
53388 On ch=1 n=a6 v=0
53460 On ch=1 n=g#6 v=0
53482 On ch=1 n=c5 v=84
53482 On ch=1 n=a6 v=106
53496 On ch=1 n=e5 v=0
53572 On ch=1 n=e5 v=72
53592 On ch=1 n=c5 v=0
53596 Par ch=1 c=64 v=63
53604 On ch=1 n=e6 v=104
53612 On ch=1 n=a6 v=0
53690 Par ch=1 c=64 v=127
53728 On ch=1 n=a4 v=76
53730 On ch=1 n=c6 v=111
53740 On ch=1 n=e5 v=0
53750 On ch=1 n=e6 v=0
53830 On ch=1 n=e5 v=68
53840 On ch=1 n=c6 v=0
53846 On ch=1 n=a4 v=0
53854 On ch=1 n=a5 v=92
53894 Par ch=1 c=64 v=63
53982 Par ch=1 c=64 v=127
53994 On ch=1 n=e4 v=96
53998 On ch=1 n=g#5 v=108
54012 On ch=1 n=e5 v=0
54020 On ch=1 n=a5 v=0
54092 On ch=1 n=g#5 v=0
54126 On ch=1 n=b5 v=97
54134 On ch=1 n=e5 v=75
54146 On ch=1 n=e4 v=0
54224 On ch=1 n=b5 v=0
54264 On ch=1 n=e6 v=92
54272 On ch=1 n=e5 v=0
54282 On ch=1 n=g#4 v=100
54390 On ch=1 n=e5 v=74
54402 On ch=1 n=g#6 v=104
54410 On ch=1 n=g#4 v=0
54414 On ch=1 n=e6 v=0
54530 On ch=1 n=b4 v=82
54544 On ch=1 n=b6 v=97
54548 On ch=1 n=e5 v=0
54550 On ch=1 n=g#6 v=0
54606 Par ch=1 c=64 v=63
54628 Par ch=1 c=64 v=0
54638 On ch=1 n=b4 v=0
54642 On ch=1 n=g#6 v=98
54650 On ch=1 n=e5 v=75
54678 On ch=1 n=b6 v=0
54698 Par ch=1 c=64 v=63
54734 Par ch=1 c=64 v=127
54768 On ch=1 n=e6 v=94
54790 On ch=1 n=g#6 v=0
54792 On ch=1 n=g#4 v=87
54814 On ch=1 n=e5 v=0
54898 On ch=1 n=d6 v=101
54898 On ch=1 n=e5 v=60
54904 On ch=1 n=e6 v=0
54922 On ch=1 n=g#4 v=0
54940 Par ch=1 c=64 v=63
55008 On ch=1 n=d6 v=0
55022 On ch=1 n=c6 v=102
55030 On ch=1 n=e4 v=75
55038 Par ch=1 c=64 v=127
55046 On ch=1 n=e5 v=0
55140 On ch=1 n=c6 v=0
55144 On ch=1 n=e5 v=68
55154 On ch=1 n=e4 v=0
55154 On ch=1 n=e6 v=90
55242 On ch=1 n=e6 v=0
55280 On ch=1 n=a6 v=91
55296 Par ch=1 c=64 v=63
55300 On ch=1 n=a4 v=79
55306 Par ch=1 c=64 v=0
55320 On ch=1 n=e5 v=0
55402 On ch=1 n=e5 v=66
55404 On ch=1 n=g#6 v=98
55412 On ch=1 n=a4 v=0
55426 On ch=1 n=a6 v=0
55520 On ch=1 n=g#6 v=0
55544 On ch=1 n=a6 v=94
55550 On ch=1 n=c5 v=80
55566 On ch=1 n=e5 v=0
55642 On ch=1 n=e5 v=71
55644 On ch=1 n=c5 v=0
55662 On ch=1 n=e6 v=90
55664 On ch=1 n=a6 v=0
55778 On ch=1 n=e6 v=0
55784 On ch=1 n=c6 v=101
55796 On ch=1 n=e5 v=0
55804 On ch=1 n=a4 v=68
55880 On ch=1 n=c6 v=0
55900 On ch=1 n=a4 v=0
55906 On ch=1 n=e5 v=69
55908 On ch=1 n=a5 v=85
55988 On ch=1 n=a5 v=0
56022 On ch=1 n=e5 v=0
56074 On ch=1 n=e4 v=85
56076 On ch=1 n=e5 v=92
56104 Par ch=1 c=64 v=63
56106 Par ch=1 c=64 v=127
56166 On ch=1 n=e5 v=0
56172 On ch=1 n=e4 v=0
56670 Par ch=1 c=64 v=63
56676 Par ch=1 c=64 v=0
56696 On ch=1 n=c6 v=74
56704 On ch=1 n=e6 v=76
56740 On ch=1 n=c6 v=0
56754 On ch=1 n=e6 v=0
56996 On ch=1 n=e6 v=65
57004 On ch=1 n=c6 v=68
57058 On ch=1 n=c6 v=0
57080 On ch=1 n=e6 v=0
57248 Par ch=1 c=64 v=63
57256 Par ch=1 c=64 v=127
57288 On ch=1 n=c6 v=71
57292 On ch=1 n=a5 v=55
57314 On ch=1 n=e5 v=41
57350 On ch=1 n=a5 v=0
57356 On ch=1 n=c6 v=0
57422 On ch=1 n=d#5 v=77
57428 On ch=1 n=e5 v=0
57548 On ch=1 n=d#5 v=0
57554 On ch=1 n=f5 v=56
57666 Par ch=1 c=64 v=63
57670 On ch=1 n=e5 v=71
57682 On ch=1 n=f5 v=0
57688 Par ch=1 c=64 v=0
57768 On ch=1 n=e5 v=0
57818 On ch=1 n=b5 v=71
57826 On ch=1 n=d6 v=62
57866 On ch=1 n=b5 v=0
57878 On ch=1 n=d6 v=0
58100 On ch=1 n=d6 v=76
58104 On ch=1 n=b5 v=77
58160 On ch=1 n=b5 v=0
58188 On ch=1 n=d6 v=0
58350 Par ch=1 c=64 v=63
58364 Par ch=1 c=64 v=127
58398 On ch=1 n=b5 v=89
58402 On ch=1 n=e5 v=58
58408 On ch=1 n=g#5 v=86
58442 On ch=1 n=b5 v=0
58452 On ch=1 n=g#5 v=0
58528 On ch=1 n=e5 v=0
58528 On ch=1 n=d#5 v=80
58634 On ch=1 n=d#5 v=0
58652 On ch=1 n=f5 v=60
58762 On ch=1 n=e5 v=76
58776 On ch=1 n=f5 v=0
58810 On ch=1 n=e5 v=0
58922 Par ch=1 c=64 v=63
58932 Par ch=1 c=64 v=0
58932 On ch=1 n=e4 v=65
58934 On ch=1 n=c5 v=73
58972 On ch=1 n=c5 v=0
58978 On ch=1 n=e4 v=0
59244 On ch=1 n=c5 v=98
59252 On ch=1 n=e4 v=82
59288 On ch=1 n=c5 v=0
59292 On ch=1 n=e4 v=0
59528 On ch=1 n=a4 v=89
59532 On ch=1 n=c4 v=92
59562 Par ch=1 c=64 v=63
59562 On ch=1 n=e5 v=67
59566 Par ch=1 c=64 v=127
59574 On ch=1 n=a4 v=0
59576 On ch=1 n=c4 v=0
59672 On ch=1 n=e5 v=0
59692 On ch=1 n=d#5 v=76
59826 On ch=1 n=d#5 v=0
59838 On ch=1 n=f5 v=68
59932 On ch=1 n=e5 v=91
59944 Par ch=1 c=64 v=63
59954 Par ch=1 c=64 v=0
59982 On ch=1 n=f5 v=0
60002 On ch=1 n=e5 v=0
60094 On ch=1 n=b4 v=97
60102 On ch=1 n=d4 v=97
60160 On ch=1 n=b4 v=0
60164 On ch=1 n=d4 v=0
60400 On ch=1 n=b4 v=103
60402 On ch=1 n=d4 v=103
60444 Par ch=1 c=64 v=63
60450 On ch=1 n=b4 v=0
60452 Par ch=1 c=64 v=127
60458 On ch=1 n=d4 v=0
60704 Par ch=1 c=64 v=63
60718 Par ch=1 c=64 v=0
60746 On ch=1 n=g#4 v=100
60750 On ch=1 n=e7 v=102
60752 On ch=1 n=b3 v=97
60786 Par ch=1 c=64 v=63
60800 Par ch=1 c=64 v=127
60948 On ch=1 n=d#7 v=105
61000 On ch=1 n=e7 v=0
61064 On ch=1 n=b3 v=0
61074 On ch=1 n=f7 v=106
61112 On ch=1 n=d#7 v=0
61150 On ch=1 n=g#4 v=0
61210 On ch=1 n=e7 v=112
61290 On ch=1 n=f7 v=0
61314 On ch=1 n=e7 v=0
61354 On ch=1 n=d7 v=107
61368 On ch=1 n=b4 v=97
61380 On ch=1 n=g#4 v=93
61422 Par ch=1 c=64 v=63
61434 Par ch=1 c=64 v=127
61550 On ch=1 n=c#7 v=104
61614 On ch=1 n=d7 v=0
61688 On ch=1 n=e7 v=107
61722 On ch=1 n=c#7 v=0
61804 On ch=1 n=d7 v=104
61870 On ch=1 n=e7 v=0
61896 On ch=1 n=d7 v=0
61922 On ch=1 n=g#4 v=0
61940 On ch=1 n=d7 v=106
61944 On ch=1 n=c5 v=100
61948 On ch=1 n=a4 v=81
61976 On ch=1 n=b4 v=0
62028 Par ch=1 c=64 v=63
62080 On ch=1 n=c7 v=99
62094 Par ch=1 c=64 v=127
62124 On ch=1 n=c5 v=0
62136 On ch=1 n=d7 v=0
62168 On ch=1 n=c7 v=0
62210 On ch=1 n=d5 v=98
62214 On ch=1 n=c7 v=106
62220 On ch=1 n=b4 v=84
62276 On ch=1 n=a4 v=0
62330 On ch=1 n=b6 v=102
62338 On ch=1 n=b4 v=0
62382 On ch=1 n=c7 v=0
62382 On ch=1 n=d5 v=0
62422 On ch=1 n=b6 v=0
62466 On ch=1 n=e5 v=99
62472 On ch=1 n=c5 v=97
62474 On ch=1 n=b6 v=96
62522 Par ch=1 c=64 v=63
62600 On ch=1 n=a6 v=101
62608 Par ch=1 c=64 v=127
62660 On ch=1 n=b6 v=0
62698 On ch=1 n=a6 v=0
62730 Par ch=1 c=64 v=63
62736 On ch=1 n=c#5 v=93
62756 On ch=1 n=a6 v=92
62784 On ch=1 n=c5 v=0
62810 Par ch=1 c=64 v=127
62844 On ch=1 n=c#5 v=0
62856 On ch=1 n=e5 v=0
62858 On ch=1 n=g6 v=97
62912 On ch=1 n=a6 v=0
62958 On ch=1 n=g6 v=0
63006 On ch=1 n=d5 v=92
63010 On ch=1 n=g6 v=92
63014 On ch=1 n=a5 v=80
63020 Par ch=1 c=64 v=63
63046 Par ch=1 c=64 v=0
63134 On ch=1 n=f6 v=97
63178 On ch=1 n=g6 v=0
63196 Par ch=1 c=64 v=63
63216 Par ch=1 c=64 v=127
63230 On ch=1 n=f6 v=0
63256 On ch=1 n=d5 v=0
63262 On ch=1 n=e5 v=74
63290 On ch=1 n=f6 v=85
63406 On ch=1 n=e6 v=96
63454 On ch=1 n=f6 v=0
63502 On ch=1 n=e6 v=0
63538 On ch=1 n=e5 v=0
63544 On ch=1 n=f5 v=70
63554 On ch=1 n=e6 v=96
63582 Par ch=1 c=64 v=63
63642 Par ch=1 c=64 v=127
63662 On ch=1 n=d6 v=93
63708 On ch=1 n=e6 v=0
63760 On ch=1 n=d6 v=0
63808 On ch=1 n=e5 v=84
63810 On ch=1 n=d6 v=98
63848 On ch=1 n=f5 v=0
63938 On ch=1 n=c6 v=92
63964 On ch=1 n=d6 v=0
64006 On ch=1 n=c6 v=0
64090 On ch=1 n=e5 v=0
64102 On ch=1 n=a#5 v=101
64108 On ch=1 n=f5 v=73
64116 On ch=1 n=a5 v=0
64118 On ch=1 n=d5 v=58
64172 Par ch=1 c=64 v=63
64232 On ch=1 n=a#5 v=0
64246 On ch=1 n=f6 v=89
64264 Par ch=1 c=64 v=127
64328 On ch=1 n=f5 v=0
64346 On ch=1 n=d5 v=0
64382 On ch=1 n=d6 v=94
64400 On ch=1 n=f6 v=0
64504 On ch=1 n=a#5 v=99
64528 On ch=1 n=d6 v=0
64650 Par ch=1 c=64 v=63
64664 Par ch=1 c=64 v=0
64666 On ch=1 n=a5 v=89
64670 On ch=1 n=c5 v=93
64676 On ch=1 n=a#5 v=0
64682 On ch=1 n=e4 v=82
64998 On ch=1 n=c5 v=0
65000 On ch=1 n=b4 v=76
65002 On ch=1 n=a5 v=0
65004 On ch=1 n=g#5 v=72
65190 On ch=1 n=e4 v=0
65342 On ch=1 n=a4 v=56
65348 On ch=1 n=a5 v=59
65352 On ch=1 n=b4 v=0
65372 On ch=1 n=g#5 v=0
65420 Par ch=1 c=64 v=63
65428 Par ch=1 c=64 v=127
65510 On ch=1 n=c5 v=71
65532 On ch=1 n=a4 v=0
65614 On ch=1 n=a5 v=0
65640 On ch=1 n=c5 v=0
65646 On ch=1 n=e5 v=64
65790 On ch=1 n=c5 v=63
65792 On ch=1 n=e5 v=0
65886 Par ch=1 c=64 v=63
65888 On ch=1 n=c5 v=0
65906 On ch=1 n=e4 v=66
65908 Par ch=1 c=64 v=0
65920 On ch=1 n=g#5 v=89
65986 Par ch=1 c=64 v=63
66022 Par ch=1 c=64 v=127
66046 On ch=1 n=d6 v=85
66050 On ch=1 n=b4 v=70
66072 On ch=1 n=e4 v=0
66078 On ch=1 n=g#5 v=0
66164 On ch=1 n=b4 v=0
66176 On ch=1 n=b5 v=84
66184 On ch=1 n=d6 v=0
66188 On ch=1 n=d5 v=64
66282 On ch=1 n=b4 v=60
66298 On ch=1 n=d5 v=0
66302 On ch=1 n=g#5 v=93
66314 On ch=1 n=b5 v=0
66374 Par ch=1 c=64 v=63
66402 Par ch=1 c=64 v=0
66426 On ch=1 n=b4 v=0
66434 On ch=1 n=a4 v=62
66440 On ch=1 n=g#5 v=0
66446 On ch=1 n=a5 v=85
66518 Par ch=1 c=64 v=63
66548 Par ch=1 c=64 v=127
66586 On ch=1 n=a4 v=0
66598 On ch=1 n=c5 v=68
66684 On ch=1 n=c5 v=0
66696 On ch=1 n=a5 v=0
66720 On ch=1 n=e5 v=68
66810 Par ch=1 c=64 v=63
66816 Par ch=1 c=64 v=0
66834 On ch=1 n=e5 v=0
66850 On ch=1 n=c5 v=77
66958 On ch=1 n=c5 v=0
66994 On ch=1 n=e4 v=69
67016 On ch=1 n=g#5 v=95
67016 Par ch=1 c=64 v=63
67020 Par ch=1 c=64 v=127
67134 On ch=1 n=b4 v=76
67148 On ch=1 n=e4 v=0
67150 On ch=1 n=d6 v=84
67180 On ch=1 n=g#5 v=0
67242 On ch=1 n=b4 v=0
67276 On ch=1 n=d5 v=64
67284 On ch=1 n=b5 v=94
67298 On ch=1 n=d6 v=0
67376 On ch=1 n=b4 v=76
67380 On ch=1 n=d5 v=0
67398 On ch=1 n=g#5 v=97
67408 On ch=1 n=b5 v=0
67456 Par ch=1 c=64 v=63
67462 Par ch=1 c=64 v=0
67522 On ch=1 n=b4 v=0
67528 On ch=1 n=a4 v=69
67534 On ch=1 n=a5 v=96
67546 On ch=1 n=g#5 v=0
67610 Par ch=1 c=64 v=63
67616 Par ch=1 c=64 v=127
67688 On ch=1 n=c5 v=83
67702 On ch=1 n=a4 v=0
67756 On ch=1 n=a5 v=0
67798 On ch=1 n=c5 v=0
67816 On ch=1 n=e5 v=81
67844 Par ch=1 c=64 v=63
67848 Par ch=1 c=64 v=0
67930 On ch=1 n=e5 v=0
67954 On ch=1 n=c5 v=86
68036 On ch=1 n=c5 v=0
68056 Par ch=1 c=64 v=63
68058 Par ch=1 c=64 v=127
68082 On ch=1 n=e4 v=87
68094 On ch=1 n=g#5 v=105
68224 On ch=1 n=b4 v=86
68226 On ch=1 n=d6 v=94
68252 On ch=1 n=g#5 v=0
68252 On ch=1 n=e4 v=0
68324 On ch=1 n=b4 v=0
68346 On ch=1 n=b5 v=98
68366 On ch=1 n=d5 v=60
68374 On ch=1 n=d6 v=0
68446 On ch=1 n=d5 v=0
68462 On ch=1 n=b4 v=84
68472 On ch=1 n=g#5 v=106
68496 On ch=1 n=b5 v=0
68570 On ch=1 n=b4 v=0
68600 On ch=1 n=a4 v=98
68604 On ch=1 n=g#5 v=0
68612 On ch=1 n=a5 v=103
68614 Par ch=1 c=64 v=63
68622 Par ch=1 c=64 v=0
68702 Par ch=1 c=64 v=63
68732 On ch=1 n=e6 v=109
68734 Par ch=1 c=64 v=127
68752 On ch=1 n=c5 v=106
68770 On ch=1 n=a5 v=0
68782 On ch=1 n=a4 v=0
68876 On ch=1 n=c6 v=104
68884 On ch=1 n=c5 v=0
68894 On ch=1 n=e5 v=84
68918 On ch=1 n=e6 v=0
69012 On ch=1 n=a5 v=102
69014 On ch=1 n=c5 v=87
69022 On ch=1 n=c6 v=0
69028 On ch=1 n=e5 v=0
69108 On ch=1 n=c5 v=0
69136 On ch=1 n=a5 v=0
69150 On ch=1 n=g4 v=103
69170 On ch=1 n=b5 v=113
69192 Par ch=1 c=64 v=63
69200 Par ch=1 c=64 v=0
69324 On ch=1 n=f6 v=109
69328 On ch=1 n=d5 v=111
69332 Par ch=1 c=64 v=63
69346 On ch=1 n=b5 v=0
69350 Par ch=1 c=64 v=127
69390 On ch=1 n=g4 v=0
69472 On ch=1 n=d6 v=104
69510 On ch=1 n=f5 v=91
69530 On ch=1 n=f6 v=0
69540 On ch=1 n=d5 v=0
69634 On ch=1 n=b5 v=102
69646 On ch=1 n=d6 v=0
69672 On ch=1 n=d5 v=73
69698 On ch=1 n=f5 v=0
69840 Par ch=1 c=64 v=63
69846 On ch=1 n=b5 v=0
69866 Par ch=1 c=64 v=0
69868 On ch=1 n=d5 v=0
71242 On ch=1 n=e6 v=85
71244 On ch=1 n=g6 v=84
71280 On ch=1 n=e6 v=0
71306 On ch=1 n=g6 v=0
71556 On ch=1 n=g6 v=90
71564 On ch=1 n=e6 v=83
71608 On ch=1 n=e6 v=0
71624 On ch=1 n=g6 v=0
71852 On ch=1 n=e6 v=83
71852 On ch=1 n=c6 v=83
71886 On ch=1 n=a4 v=56
71888 On ch=1 n=c5 v=55
71900 On ch=1 n=c6 v=0
71906 On ch=1 n=e6 v=0
71944 On ch=1 n=c5 v=0
71960 On ch=1 n=a4 v=0
72144 On ch=1 n=c5 v=79
72154 On ch=1 n=a4 v=62
72206 On ch=1 n=c5 v=0
72212 On ch=1 n=a4 v=0
72432 On ch=1 n=d6 v=82
72434 On ch=1 n=a4 v=76
72436 On ch=1 n=f6 v=81
72438 On ch=1 n=f4 v=75
72476 On ch=1 n=a4 v=0
72480 On ch=1 n=d6 v=0
72488 On ch=1 n=f4 v=0
72490 On ch=1 n=f6 v=0
72760 On ch=1 n=d6 v=69
72760 On ch=1 n=f6 v=78
72806 On ch=1 n=f6 v=0
72810 On ch=1 n=d6 v=0
73042 On ch=1 n=d6 v=91
73050 On ch=1 n=b5 v=80
73054 On ch=1 n=b4 v=70
73062 On ch=1 n=g4 v=61
73088 On ch=1 n=b5 v=0
73092 On ch=1 n=d6 v=0
73110 On ch=1 n=g4 v=0
73114 On ch=1 n=b4 v=0
73342 On ch=1 n=b4 v=83
73344 On ch=1 n=g4 v=84
73390 On ch=1 n=b4 v=0
73402 On ch=1 n=g4 v=0
73626 On ch=1 n=e4 v=84
73626 On ch=1 n=g4 v=86
73640 On ch=1 n=c6 v=94
73666 On ch=1 n=g4 v=0
73680 On ch=1 n=e4 v=0
73702 Par ch=1 c=64 v=63
73714 Par ch=1 c=64 v=127
73760 On ch=1 n=d6 v=90
73806 On ch=1 n=c6 v=0
73880 Par ch=1 c=64 v=63
73898 Par ch=1 c=64 v=0
73900 On ch=1 n=e6 v=77
73914 On ch=1 n=d6 v=0
74040 On ch=1 n=c6 v=86
74060 On ch=1 n=e6 v=0
74160 On ch=1 n=c6 v=0
74168 On ch=1 n=f4 v=68
74188 Par ch=1 c=64 v=63
74194 Par ch=1 c=64 v=127
74196 On ch=1 n=a5 v=70
74328 On ch=1 n=b5 v=93
74352 On ch=1 n=a5 v=0
74476 On ch=1 n=c6 v=85
74488 On ch=1 n=b5 v=0
74602 On ch=1 n=c#6 v=96
74616 On ch=1 n=c6 v=0
74706 On ch=1 n=c#6 v=0
74734 On ch=1 n=d6 v=94
74842 On ch=1 n=e6 v=99
74862 On ch=1 n=d6 v=0
74948 On ch=1 n=f4 v=0
74960 Par ch=1 c=64 v=63
74974 Par ch=1 c=64 v=0
74988 On ch=1 n=f6 v=104
75004 On ch=1 n=d4 v=90
75016 On ch=1 n=e6 v=0
75098 On ch=1 n=f6 v=0
75114 On ch=1 n=d4 v=0
75116 On ch=1 n=d6 v=96
75212 On ch=1 n=d6 v=0
75268 On ch=1 n=c6 v=99
75278 On ch=1 n=g4 v=88
75392 On ch=1 n=b5 v=88
75404 On ch=1 n=c6 v=0
75410 Par ch=1 c=64 v=63
75416 Par ch=1 c=64 v=127
75518 On ch=1 n=b5 v=0
75528 On ch=1 n=a5 v=82
75622 On ch=1 n=a5 v=0
75662 On ch=1 n=g5 v=79
75724 On ch=1 n=g4 v=0
75756 On ch=1 n=g5 v=0
75810 On ch=1 n=g6 v=94
75810 Par ch=1 c=64 v=63
75812 On ch=1 n=e6 v=89
75820 Par ch=1 c=64 v=0
75858 On ch=1 n=e6 v=0
75884 On ch=1 n=g6 v=0
76112 On ch=1 n=g6 v=103
76112 On ch=1 n=e6 v=108
76172 On ch=1 n=e6 v=0
76174 On ch=1 n=g6 v=0
76400 On ch=1 n=e6 v=113
76410 On ch=1 n=c5 v=96
76410 On ch=1 n=c6 v=90
76412 On ch=1 n=a4 v=91
76438 On ch=1 n=e6 v=0
76446 On ch=1 n=c6 v=0
76462 On ch=1 n=c5 v=0
76470 On ch=1 n=a4 v=0
76708 On ch=1 n=c5 v=108
76716 On ch=1 n=a4 v=93
76760 On ch=1 n=a4 v=0
76768 On ch=1 n=c5 v=0
76992 On ch=1 n=f4 v=100
76998 On ch=1 n=d4 v=89
77000 On ch=1 n=f6 v=108
77002 On ch=1 n=a6 v=107
77034 On ch=1 n=f4 v=0
77050 On ch=1 n=d4 v=0
77062 On ch=1 n=f6 v=0
77068 On ch=1 n=a6 v=0
77300 On ch=1 n=a6 v=99
77302 On ch=1 n=f6 v=101
77348 On ch=1 n=f6 v=0
77356 On ch=1 n=a6 v=0
77584 On ch=1 n=b5 v=94
77584 On ch=1 n=d6 v=100
77588 On ch=1 n=b4 v=94
77592 On ch=1 n=g4 v=87
77616 On ch=1 n=d6 v=0
77618 On ch=1 n=b5 v=0
77654 On ch=1 n=g4 v=0
77656 On ch=1 n=b4 v=0
77882 On ch=1 n=b4 v=102
77888 On ch=1 n=g4 v=96
77936 On ch=1 n=g4 v=0
77948 On ch=1 n=b4 v=0
78158 On ch=1 n=e4 v=102
78158 On ch=1 n=c4 v=99
78172 On ch=1 n=a6 v=106
78210 Par ch=1 c=64 v=63
78212 Par ch=1 c=64 v=127
78224 On ch=1 n=e4 v=0
78232 On ch=1 n=c4 v=0
78292 On ch=1 n=g6 v=83
78316 On ch=1 n=a6 v=0
78418 On ch=1 n=f6 v=89
78436 On ch=1 n=g6 v=0
78528 On ch=1 n=f6 v=0
78544 On ch=1 n=e6 v=85
78654 On ch=1 n=e6 v=0
78696 On ch=1 n=a4 v=102
78700 On ch=1 n=f4 v=97
78702 On ch=1 n=c#6 v=101
78736 Par ch=1 c=64 v=63
78744 Par ch=1 c=64 v=0
78810 On ch=1 n=c#6 v=0
78830 On ch=1 n=d6 v=100
78900 Par ch=1 c=64 v=63
78914 Par ch=1 c=64 v=127
78974 On ch=1 n=e6 v=99
79016 On ch=1 n=d6 v=0
79106 On ch=1 n=f6 v=89
79118 On ch=1 n=e6 v=0
79244 On ch=1 n=a5 v=86
79252 On ch=1 n=f6 v=0
79274 Par ch=1 c=64 v=63
79282 Par ch=1 c=64 v=0
79284 On ch=1 n=f4 v=0
79302 On ch=1 n=a4 v=0
79366 On ch=1 n=c6 v=100
79382 On ch=1 n=a5 v=0
79500 On ch=1 n=b5 v=102
79514 On ch=1 n=f5 v=80
79520 On ch=1 n=c6 v=0
79526 On ch=1 n=g4 v=65
79570 On ch=1 n=f5 v=0
79588 On ch=1 n=g4 v=0
79612 On ch=1 n=d6 v=91
79616 On ch=1 n=b5 v=0
79728 On ch=1 n=d6 v=0
79776 On ch=1 n=c6 v=104
79778 On ch=1 n=e5 v=88
79786 On ch=1 n=c5 v=67
79822 On ch=1 n=c5 v=0
79828 On ch=1 n=e5 v=0
79832 Par ch=1 c=64 v=63
79834 Par ch=1 c=64 v=127
79870 On ch=1 n=c6 v=0
80068 On ch=1 n=c4 v=90
80132 Par ch=1 c=64 v=63
80138 Par ch=1 c=64 v=0
80156 On ch=1 n=c4 v=0
80324 Par ch=1 c=64 v=63
80330 Par ch=1 c=64 v=127
80370 On ch=1 n=b5 v=91
80374 On ch=1 n=f4 v=99
80484 On ch=1 n=b5 v=0
80514 On ch=1 n=f6 v=101
80546 On ch=1 n=b4 v=54
80578 On ch=1 n=f4 v=0
80660 On ch=1 n=d6 v=101
80680 On ch=1 n=b4 v=0
80680 On ch=1 n=g4 v=79
80720 On ch=1 n=f6 v=0
80774 On ch=1 n=b5 v=102
80778 On ch=1 n=b4 v=84
80782 On ch=1 n=d6 v=0
80802 On ch=1 n=g4 v=0
80882 On ch=1 n=b5 v=0
80906 On ch=1 n=a6 v=101
80916 On ch=1 n=e4 v=85
80922 On ch=1 n=b4 v=0
80980 Par ch=1 c=64 v=63
80994 Par ch=1 c=64 v=0
81038 On ch=1 n=g6 v=89
81064 On ch=1 n=c5 v=71
81100 On ch=1 n=a6 v=0
81106 Par ch=1 c=64 v=63
81114 On ch=1 n=e4 v=0
81130 Par ch=1 c=64 v=127
81152 On ch=1 n=f6 v=99
81188 On ch=1 n=c5 v=0
81196 On ch=1 n=g4 v=63
81200 On ch=1 n=g6 v=0
81284 On ch=1 n=e6 v=99
81302 On ch=1 n=g4 v=0
81306 On ch=1 n=c5 v=67
81308 On ch=1 n=f6 v=0
81336 Par ch=1 c=64 v=63
81354 Par ch=1 c=64 v=0
81406 On ch=1 n=d6 v=98
81412 On ch=1 n=c5 v=0
81418 On ch=1 n=e6 v=0
81428 Par ch=1 c=64 v=63
81432 On ch=1 n=f4 v=106
81458 Par ch=1 c=64 v=127
81526 On ch=1 n=d6 v=0
81544 On ch=1 n=f6 v=106
81568 On ch=1 n=b4 v=87
81626 On ch=1 n=f4 v=0
81694 On ch=1 n=d6 v=103
81718 On ch=1 n=b4 v=0
81720 On ch=1 n=g4 v=84
81734 On ch=1 n=f6 v=0
81812 On ch=1 n=b4 v=92
81820 On ch=1 n=b5 v=101
81848 On ch=1 n=g4 v=0
81858 On ch=1 n=d6 v=0
81934 On ch=1 n=b5 v=0
81942 On ch=1 n=e4 v=81
81956 On ch=1 n=b4 v=0
81958 On ch=1 n=a6 v=107
82024 Par ch=1 c=64 v=63
82042 Par ch=1 c=64 v=0
82092 On ch=1 n=g6 v=94
82094 On ch=1 n=c5 v=72
82130 On ch=1 n=e4 v=0
82148 Par ch=1 c=64 v=63
82160 On ch=1 n=a6 v=0
82178 Par ch=1 c=64 v=127
82200 On ch=1 n=f6 v=96
82238 On ch=1 n=c5 v=0
82242 On ch=1 n=g4 v=76
82268 On ch=1 n=g6 v=0
82310 On ch=1 n=e6 v=99
82348 On ch=1 n=c5 v=77
82358 On ch=1 n=f6 v=0
82362 On ch=1 n=g4 v=0
82364 Par ch=1 c=64 v=63
82386 Par ch=1 c=64 v=0
82392 On ch=1 n=e6 v=0
82466 On ch=1 n=c5 v=0
82472 On ch=1 n=f4 v=107
82478 Par ch=1 c=64 v=63
82486 On ch=1 n=d7 v=112
82510 Par ch=1 c=64 v=127
82618 On ch=1 n=d5 v=77
82626 On ch=1 n=c7 v=109
82688 On ch=1 n=d7 v=0
82742 On ch=1 n=b6 v=109
82772 On ch=1 n=f4 v=0
82772 On ch=1 n=a4 v=80
82774 On ch=1 n=d5 v=0
82812 On ch=1 n=c7 v=0
82858 On ch=1 n=a6 v=101
82872 On ch=1 n=d5 v=84
82888 On ch=1 n=b6 v=0
82894 On ch=1 n=a4 v=0
82938 On ch=1 n=a6 v=0
82984 On ch=1 n=d5 v=0
82986 Par ch=1 c=64 v=63
82992 On ch=1 n=g4 v=85
82994 Par ch=1 c=64 v=0
83008 On ch=1 n=a6 v=116
83116 On ch=1 n=g6 v=97
83128 On ch=1 n=a6 v=0
83130 On ch=1 n=e5 v=49
83146 On ch=1 n=g4 v=0
83200 On ch=1 n=g6 v=0
83256 On ch=1 n=f6 v=92
83272 On ch=1 n=e5 v=0
83298 On ch=1 n=c5 v=65
83322 On ch=1 n=f6 v=0
83388 On ch=1 n=e6 v=94
83392 On ch=1 n=c5 v=0
83406 On ch=1 n=e5 v=71
83454 On ch=1 n=e6 v=0
83504 On ch=1 n=e5 v=0
83532 On ch=1 n=e6 v=113
83538 On ch=1 n=g4 v=86
83570 Par ch=1 c=64 v=63
83572 Par ch=1 c=64 v=127
83642 On ch=1 n=g4 v=0
83652 On ch=1 n=d6 v=102
83656 On ch=1 n=f5 v=72
83658 On ch=1 n=e6 v=0
83740 On ch=1 n=d6 v=0
83750 Par ch=1 c=64 v=63
83758 Par ch=1 c=64 v=0
83768 On ch=1 n=f5 v=0
83784 On ch=1 n=c6 v=89
83804 On ch=1 n=d5 v=71
83854 On ch=1 n=c6 v=0
83866 On ch=1 n=d5 v=0
83902 On ch=1 n=b5 v=97
83910 On ch=1 n=f5 v=67
83988 On ch=1 n=b5 v=0
83998 On ch=1 n=f5 v=0
84048 On ch=1 n=c5 v=72
84052 On ch=1 n=d6 v=102
84054 Par ch=1 c=64 v=63
84056 Par ch=1 c=64 v=127
84158 On ch=1 n=c5 v=0
84190 On ch=1 n=g5 v=55
84328 On ch=1 n=g5 v=0
84336 On ch=1 n=c6 v=78
84342 On ch=1 n=e5 v=71
84358 On ch=1 n=d6 v=0
84420 On ch=1 n=c6 v=0
84430 On ch=1 n=e5 v=0
84466 On ch=1 n=g5 v=59
84518 On ch=1 n=g5 v=0
84568 Par ch=1 c=64 v=63
84578 Par ch=1 c=64 v=0
84636 On ch=1 n=f4 v=106
84640 On ch=1 n=b5 v=97
84684 Par ch=1 c=64 v=63
84708 Par ch=1 c=64 v=127
84756 On ch=1 n=b5 v=0
84768 On ch=1 n=b4 v=81
84770 On ch=1 n=f6 v=102
84912 On ch=1 n=b4 v=0
84914 On ch=1 n=d6 v=101
84920 On ch=1 n=g4 v=89
84940 On ch=1 n=f4 v=0
84974 On ch=1 n=f6 v=0
85028 On ch=1 n=d6 v=0
85028 On ch=1 n=b5 v=102
85030 On ch=1 n=b4 v=87
85050 On ch=1 n=g4 v=0
85152 On ch=1 n=b5 v=0
85168 On ch=1 n=e4 v=102
85170 On ch=1 n=a6 v=106
85176 On ch=1 n=b4 v=0
85210 Par ch=1 c=64 v=63
85218 Par ch=1 c=64 v=0
85302 On ch=1 n=c5 v=76
85312 On ch=1 n=g6 v=91
85328 On ch=1 n=e4 v=0
85382 On ch=1 n=a6 v=0
85382 Par ch=1 c=64 v=63
85396 Par ch=1 c=64 v=127
85438 On ch=1 n=c5 v=0
85448 On ch=1 n=g4 v=73
85452 On ch=1 n=f6 v=91
85490 Par ch=1 c=64 v=63
85500 Par ch=1 c=64 v=0
85504 On ch=1 n=g6 v=0
85552 On ch=1 n=g4 v=0
85556 On ch=1 n=c5 v=84
85560 On ch=1 n=e6 v=94
85608 On ch=1 n=f6 v=0
85666 On ch=1 n=c5 v=0
85702 On ch=1 n=f4 v=113
85708 On ch=1 n=d6 v=101
85714 Par ch=1 c=64 v=63
85720 Par ch=1 c=64 v=127
85722 On ch=1 n=e6 v=0
85822 On ch=1 n=d6 v=0
85846 On ch=1 n=b4 v=90
85846 On ch=1 n=f6 v=98
85930 On ch=1 n=f4 v=0
85978 On ch=1 n=d6 v=109
85984 On ch=1 n=g4 v=83
85988 On ch=1 n=b4 v=0
86014 On ch=1 n=f6 v=0
86090 On ch=1 n=b5 v=107
86092 On ch=1 n=b4 v=90
86130 On ch=1 n=g4 v=0
86144 On ch=1 n=d6 v=0
86228 On ch=1 n=b5 v=0
86238 On ch=1 n=a6 v=108
86244 On ch=1 n=b4 v=0
86246 On ch=1 n=e4 v=103
86248 Par ch=1 c=64 v=63
86258 Par ch=1 c=64 v=0
86370 On ch=1 n=c5 v=82
86378 On ch=1 n=g6 v=99
86404 Par ch=1 c=64 v=63
86418 On ch=1 n=e4 v=0
86422 Par ch=1 c=64 v=127
86456 On ch=1 n=a6 v=0
86506 On ch=1 n=f6 v=103
86518 On ch=1 n=c5 v=0
86522 On ch=1 n=g4 v=85
86588 On ch=1 n=g6 v=0
86632 On ch=1 n=e6 v=106
86636 On ch=1 n=c5 v=89
86654 On ch=1 n=g4 v=0
86668 Par ch=1 c=64 v=63
86676 On ch=1 n=f6 v=0
86680 Par ch=1 c=64 v=0
86702 On ch=1 n=e6 v=0
86746 On ch=1 n=c5 v=0
86766 On ch=1 n=f4 v=111
86786 On ch=1 n=d7 v=117
86798 Par ch=1 c=64 v=63
86818 Par ch=1 c=64 v=127
86916 On ch=1 n=d5 v=80
86932 On ch=1 n=c7 v=111
86962 On ch=1 n=f4 v=0
87002 On ch=1 n=d7 v=0
87058 On ch=1 n=d5 v=0
87058 On ch=1 n=a4 v=90
87060 On ch=1 n=b6 v=114
87126 On ch=1 n=c7 v=0
87176 On ch=1 n=d5 v=86
87182 On ch=1 n=a4 v=0
87182 On ch=1 n=a6 v=108
87224 On ch=1 n=b6 v=0
87260 Par ch=1 c=64 v=63
87262 On ch=1 n=a6 v=0
87272 Par ch=1 c=64 v=0
87276 On ch=1 n=d5 v=0
87306 On ch=1 n=g4 v=112
87324 On ch=1 n=a6 v=117
87362 Par ch=1 c=64 v=63
87392 Par ch=1 c=64 v=127
87440 Par ch=1 c=64 v=63
87442 On ch=1 n=e5 v=85
87452 On ch=1 n=g6 v=103
87458 Par ch=1 c=64 v=0
87468 On ch=1 n=g4 v=0
87492 On ch=1 n=a6 v=0
87542 On ch=1 n=e5 v=0
87546 On ch=1 n=g6 v=0
87586 On ch=1 n=f6 v=101
87596 On ch=1 n=c5 v=98
87662 On ch=1 n=c5 v=0
87670 On ch=1 n=f6 v=0
87706 On ch=1 n=e6 v=97
87710 On ch=1 n=e5 v=90
87782 On ch=1 n=e6 v=0
87790 On ch=1 n=e5 v=0
87856 On ch=1 n=e6 v=120
87856 On ch=1 n=g4 v=109
87872 Par ch=1 c=64 v=63
87874 Par ch=1 c=64 v=127
87958 On ch=1 n=g4 v=0
87980 On ch=1 n=d6 v=108
87980 On ch=1 n=f5 v=89
88032 On ch=1 n=e6 v=0
88080 On ch=1 n=f5 v=0
88116 On ch=1 n=c6 v=101
88122 Par ch=1 c=64 v=63
88128 On ch=1 n=d5 v=80
88132 Par ch=1 c=64 v=0
88142 On ch=1 n=d6 v=0
88206 On ch=1 n=d5 v=0
88224 On ch=1 n=f5 v=84
88230 On ch=1 n=c6 v=0
88234 On ch=1 n=b5 v=94
88302 On ch=1 n=f5 v=0
88304 On ch=1 n=b5 v=0
88380 On ch=1 n=c5 v=121
88380 On ch=1 n=c6 v=125
88390 Par ch=1 c=64 v=63
88392 Par ch=1 c=64 v=127
88466 On ch=1 n=c5 v=0
88476 On ch=1 n=c6 v=0
88494 On ch=1 n=e5 v=88
88516 On ch=1 n=e6 v=100
88528 Par ch=1 c=64 v=63
88540 Par ch=1 c=64 v=0
88580 On ch=1 n=e6 v=0
88582 On ch=1 n=e5 v=0
88654 On ch=1 n=g4 v=104
88660 On ch=1 n=g5 v=106
88740 On ch=1 n=g5 v=0
88760 On ch=1 n=g4 v=0
88790 On ch=1 n=c5 v=100
88792 On ch=1 n=c6 v=96
88854 On ch=1 n=c6 v=0
88860 On ch=1 n=c5 v=0
88926 On ch=1 n=e4 v=114
88936 On ch=1 n=e5 v=104
89014 On ch=1 n=e5 v=0
89016 On ch=1 n=e4 v=0
89058 On ch=1 n=g4 v=108
89070 On ch=1 n=g5 v=87
89118 On ch=1 n=g5 v=0
89132 On ch=1 n=g4 v=0
89194 On ch=1 n=c5 v=103
89202 On ch=1 n=c4 v=113
89286 On ch=1 n=c5 v=0
89320 On ch=1 n=e5 v=96
89322 On ch=1 n=e4 v=108
89356 On ch=1 n=c4 v=0
89374 On ch=1 n=e5 v=0
89386 On ch=1 n=e4 v=0
89460 On ch=1 n=g4 v=118
89476 On ch=1 n=g5 v=113
89508 Par ch=1 c=64 v=63
89514 Par ch=1 c=64 v=127
89556 On ch=1 n=g4 v=0
89560 On ch=1 n=g5 v=0
89606 On ch=1 n=c6 v=114
89682 On ch=1 n=c6 v=0
89692 Par ch=1 c=64 v=63
89702 Par ch=1 c=64 v=0
89728 On ch=1 n=e6 v=112
89732 On ch=1 n=c6 v=106
89794 On ch=1 n=c6 v=0
89816 On ch=1 n=e6 v=0
89848 On ch=1 n=e6 v=96
89858 On ch=1 n=g6 v=103
89882 On ch=1 n=e6 v=0
89922 On ch=1 n=g6 v=0
89976 On ch=1 n=e6 v=120
89976 On ch=1 n=g6 v=108
89986 On ch=1 n=g3 v=125
89998 Par ch=1 c=64 v=63
90000 Par ch=1 c=64 v=127
90046 On ch=1 n=e6 v=0
90072 On ch=1 n=g3 v=0
90100 On ch=1 n=d6 v=111
90104 On ch=1 n=f6 v=103
90158 On ch=1 n=g6 v=0
90160 On ch=1 n=d6 v=0
90184 On ch=1 n=f6 v=0
90228 On ch=1 n=e6 v=108
90244 On ch=1 n=c6 v=94
90286 Par ch=1 c=64 v=63
90292 Par ch=1 c=64 v=0
90298 On ch=1 n=e6 v=0
90322 On ch=1 n=c6 v=0
90372 On ch=1 n=d6 v=106
90374 On ch=1 n=b5 v=108
90438 On ch=1 n=b5 v=0
90456 On ch=1 n=d6 v=0
90518 On ch=1 n=c6 v=118
90524 On ch=1 n=c5 v=125
90548 Par ch=1 c=64 v=63
90552 Par ch=1 c=64 v=127
90608 On ch=1 n=c5 v=0
90620 On ch=1 n=c6 v=0
90636 On ch=1 n=e6 v=103
90648 On ch=1 n=e5 v=89
90652 Par ch=1 c=64 v=63
90662 Par ch=1 c=64 v=0
90720 On ch=1 n=e6 v=0
90728 On ch=1 n=e5 v=0
90774 On ch=1 n=g4 v=102
90788 On ch=1 n=g5 v=97
90852 On ch=1 n=g4 v=0
90864 On ch=1 n=g5 v=0
90906 On ch=1 n=c5 v=98
90918 On ch=1 n=c6 v=84
90970 On ch=1 n=c6 v=0
90974 On ch=1 n=c5 v=0
91036 On ch=1 n=e4 v=109
91060 On ch=1 n=e5 v=90
91118 On ch=1 n=e4 v=0
91136 On ch=1 n=e5 v=0
91176 On ch=1 n=g4 v=100
91182 On ch=1 n=g5 v=74
91224 On ch=1 n=g5 v=0
91246 On ch=1 n=g4 v=0
91306 On ch=1 n=c5 v=99
91316 On ch=1 n=c4 v=109
91398 On ch=1 n=c5 v=0
91422 On ch=1 n=e5 v=86
91434 On ch=1 n=e4 v=99
91468 On ch=1 n=c4 v=0
91484 On ch=1 n=e5 v=0
91496 On ch=1 n=e4 v=0
91570 On ch=1 n=g4 v=118
91580 On ch=1 n=g5 v=117
91598 Par ch=1 c=64 v=63
91598 Par ch=1 c=64 v=127
91656 On ch=1 n=g4 v=0
91668 On ch=1 n=g5 v=0
91704 On ch=1 n=c6 v=114
91796 On ch=1 n=c6 v=0
91832 On ch=1 n=e6 v=114
91912 On ch=1 n=e6 v=0
91920 Par ch=1 c=64 v=63
91928 Par ch=1 c=64 v=0
91948 On ch=1 n=g6 v=113
91954 On ch=1 n=e6 v=112
91968 On ch=1 n=f6 v=76
92010 On ch=1 n=e6 v=0
92012 On ch=1 n=f6 v=0
92026 On ch=1 n=g6 v=0
92068 On ch=1 n=g6 v=114
92072 On ch=1 n=e6 v=121
92080 On ch=1 n=g3 v=127
92096 Par ch=1 c=64 v=63
92096 Par ch=1 c=64 v=127
92144 On ch=1 n=e6 v=0
92172 On ch=1 n=g3 v=0
92194 On ch=1 n=f6 v=107
92196 On ch=1 n=d6 v=111
92248 On ch=1 n=g6 v=0
92270 On ch=1 n=d6 v=0
92294 On ch=1 n=f6 v=0
92316 On ch=1 n=e6 v=113
92326 Par ch=1 c=64 v=63
92330 On ch=1 n=d6 v=96
92332 Par ch=1 c=64 v=0
92338 On ch=1 n=c6 v=98
92376 On ch=1 n=d6 v=0
92392 On ch=1 n=e6 v=0
92410 On ch=1 n=c6 v=0
92460 On ch=1 n=d6 v=113
92460 On ch=1 n=b5 v=117
92528 On ch=1 n=b5 v=0
92550 On ch=1 n=d6 v=0
92604 On ch=1 n=c6 v=124
92608 On ch=1 n=c4 v=126
92608 On ch=1 n=c3 v=124
92628 Par ch=1 c=64 v=127
92670 On ch=1 n=c3 v=0
92674 On ch=1 n=c4 v=0
92674 On ch=1 n=c6 v=0
92936 On ch=1 n=e4 v=120
92936 On ch=1 n=g6 v=118
92938 On ch=1 n=e6 v=126
92938 On ch=1 n=c7 v=124
92938 On ch=1 n=e3 v=117
92988 On ch=1 n=e6 v=0
92988 On ch=1 n=g6 v=0
92990 On ch=1 n=c7 v=0
92998 On ch=1 n=e3 v=0
93002 On ch=1 n=e4 v=0
93254 On ch=1 n=c6 v=126
93258 On ch=1 n=e5 v=122
93260 On ch=1 n=g4 v=113
93266 On ch=1 n=g3 v=109
93280 Par ch=1 c=64 v=63
93288 Par ch=1 c=64 v=0
93308 On ch=1 n=e5 v=0
93310 On ch=1 n=c6 v=0
93328 On ch=1 n=g4 v=0
93340 On ch=1 n=g3 v=0
93608 On ch=1 n=c6 v=125
93608 On ch=1 n=e5 v=124
93612 On ch=1 n=e4 v=121
93616 On ch=1 n=e3 v=118
93664 On ch=1 n=e5 v=0
93664 On ch=1 n=c6 v=0
93684 On ch=1 n=e4 v=0
93704 On ch=1 n=e3 v=0
94044 On ch=1 n=c4 v=124
94048 On ch=1 n=c3 v=124
94054 On ch=1 n=c6 v=127
94056 On ch=1 n=e5 v=125
94062 Par ch=1 c=64 v=127
94112 On ch=1 n=e5 v=0
94130 On ch=1 n=c3 v=0
94134 On ch=1 n=c4 v=0
94140 On ch=1 n=c6 v=0
95042 Par ch=1 c=64 v=63
95050 Par ch=1 c=64 v=0
95050 Meta TrkEnd
TrkEnd
MTrk
0 SeqSpec 43 00 01 00
0 Meta TrkName "                                    "
0 TimeSig 2/4 24 8
0 Meta TrkEnd
TrkEnd
MTrk
0 SeqSpec 43 00 01 00
0 Meta TrkName "                                    "
0 TimeSig 2/4 24 8
0 Meta TrkEnd
TrkEnd
MTrk
0 SeqSpec 43 00 01 00
0 Meta TrkName "                                    "
0 TimeSig 2/4 24 8
0 Meta TrkEnd
TrkEnd
MTrk
0 SeqSpec 43 00 01 00
0 Meta TrkName "                                    "
0 TimeSig 2/4 24 8
0 Meta TrkEnd
TrkEnd
MTrk
0 SeqSpec 43 00 01 00
0 Meta TrkName "                                    "
0 TimeSig 2/4 24 8
0 Meta TrkEnd
TrkEnd
MTrk
0 SeqSpec 43 00 01 00
0 Meta TrkName "                                    "
0 TimeSig 2/4 24 8
0 Meta TrkEnd
TrkEnd
MTrk
0 SeqSpec 43 00 01 00
0 Meta TrkName "                                    "
0 TimeSig 2/4 24 8
0 Meta TrkEnd
TrkEnd
MTrk
0 SeqSpec 43 00 01 00
0 Meta TrkName "                                    "
0 TimeSig 2/4 24 8
0 Meta TrkEnd
TrkEnd
MTrk
0 SeqSpec 43 00 01 00
0 Meta TrkName "                                    "
0 TimeSig 2/4 24 8
0 Meta TrkEnd
TrkEnd
MTrk
0 SeqSpec 43 00 01 00
0 Meta TrkName "                                    "
0 TimeSig 2/4 24 8
0 Meta TrkEnd
TrkEnd
MTrk
0 SeqSpec 43 00 01 00
0 Meta TrkName "                                    "
0 TimeSig 2/4 24 8
0 Meta TrkEnd
TrkEnd
MTrk
0 SeqSpec 43 00 01 00
0 Meta TrkName "                                    "
0 TimeSig 2/4 24 8
0 Meta TrkEnd
TrkEnd
MTrk
0 SeqSpec 43 00 01 00
0 Meta TrkName "                                    "
0 TimeSig 2/4 24 8
0 Meta TrkEnd
TrkEnd
MTrk
0 SeqSpec 43 00 01 00
0 Meta TrkName "                                    "
0 TimeSig 2/4 24 8
0 Meta TrkEnd
TrkEnd
MTrk
0 SeqSpec 43 00 01 00
0 Meta TrkName "                                    "
0 TimeSig 2/4 24 8
0 Meta TrkEnd
TrkEnd
MTrk
0 SeqSpec 43 00 01 00
0 Meta TrkName "                                    "
0 TimeSig 2/4 24 8
0 Meta TrkEnd
TrkEnd
