MFile 1 18 240
MTrk
0 Tempo 500000
0 TimeSig 4/4 24 8
0 Meta Text "Mozart  Sonate B dur K.V.570 (2nd.mov.)  Play by Katsuhiro Oguri"
0 Meta TrkEnd
TrkEnd
MTrk
0 TimeSig 4/4 24 8
0 Meta TrkName "PIANO                               "
0 SysEx f0 41 10 42 12 40 00 7f 00 41 f7
0 SysEx f0 41 10 42 12 40 00 04 64 58 f7
170 SysEx f0 41 10 42 12 40 01 30 03 0c f7
170 SysEx f0 41 10 42 12 40 01 33 50 3c f7
170 SysEx f0 41 10 42 12 40 01 34 3c 4f f7
372 Par ch=1 c=0 v=0
374 Par ch=1 c=32 v=1
376 PrCh ch=1 p=0
378 Par ch=1 c=7 v=100
474 Par ch=1 c=11 v=100
570 Par ch=1 c=10 v=64
666 Par ch=1 c=1 v=0
666 Par ch=1 c=91 v=80
675 Par ch=1 c=99 v=1
677 Par ch=1 c=98 v=32
679 Par ch=1 c=6 v=62
681 Par ch=1 c=99 v=1
683 Par ch=1 c=98 v=33
685 Par ch=1 c=6 v=54
687 Par ch=1 c=99 v=1
689 Par ch=1 c=98 v=99
691 Par ch=1 c=6 v=62
693 Par ch=1 c=99 v=1
695 Par ch=1 c=98 v=100
697 Par ch=1 c=6 v=60
699 Par ch=1 c=99 v=1
701 Par ch=1 c=98 v=102
703 Par ch=1 c=6 v=70
1249 Par ch=1 c=64 v=63
1350 Par ch=1 c=64 v=127
1373 On ch=1 n=a#5 v=69
1377 On ch=1 n=g5 v=39
1379 On ch=1 n=d#4 v=40
1387 On ch=1 n=d#3 v=29
1970 On ch=1 n=g5 v=0
2156 On ch=1 n=a#5 v=0
2160 On ch=1 n=g5 v=49
2176 On ch=1 n=d#5 v=39
2361 On ch=1 n=d#4 v=0
2511 On ch=1 n=d#5 v=0
2518 On ch=1 n=a#3 v=51
2521 On ch=1 n=f5 v=65
2529 On ch=1 n=a#4 v=36
2531 On ch=1 n=g5 v=0
2576 On ch=1 n=d#3 v=0
2754 On ch=1 n=a#4 v=0
2867 On ch=1 n=f5 v=0
2891 On ch=1 n=a#3 v=0
2901 On ch=1 n=d#5 v=67
2913 On ch=1 n=d#4 v=37
2917 On ch=1 n=g4 v=47
3012 Par ch=1 c=64 v=63
3034 Par ch=1 c=64 v=0
3052 Par ch=1 c=64 v=63
3078 Par ch=1 c=64 v=127
3250 On ch=1 n=g4 v=0
3265 On ch=1 n=d#4 v=0
3274 On ch=1 n=a#4 v=66
3303 On ch=1 n=d#5 v=0
3630 On ch=1 n=d#5 v=75
3703 On ch=1 n=a#4 v=0
3732 Par ch=1 c=64 v=63
3799 Par ch=1 c=64 v=127
3965 On ch=1 n=d#5 v=0
4003 On ch=1 n=a#3 v=55
4009 On ch=1 n=f5 v=76
4020 On ch=1 n=d5 v=36
4070 Par ch=1 c=64 v=63
4091 Par ch=1 c=64 v=127
4198 On ch=1 n=d5 v=0
4228 On ch=1 n=f5 v=0
4366 On ch=1 n=a#3 v=0
4389 On ch=1 n=d#5 v=57
4393 On ch=1 n=g5 v=74
4403 On ch=1 n=d#4 v=34
4479 Par ch=1 c=64 v=63
4489 Par ch=1 c=64 v=0
4755 On ch=1 n=g#5 v=81
4759 On ch=1 n=c4 v=60
4763 Par ch=1 c=64 v=63
4773 Par ch=1 c=64 v=127
4808 On ch=1 n=d#4 v=0
4809 On ch=1 n=g5 v=0
5114 On ch=1 n=g3 v=71
5116 On ch=1 n=a#5 v=78
5172 On ch=1 n=g#5 v=0
5231 Par ch=1 c=64 v=63
5236 On ch=1 n=c4 v=0
5254 Par ch=1 c=64 v=0
5487 On ch=1 n=g#3 v=72
5493 On ch=1 n=c6 v=69
5526 On ch=1 n=a#5 v=0
5543 On ch=1 n=g3 v=0
5655 Par ch=1 c=64 v=63
5663 Par ch=1 c=64 v=127
5776 On ch=1 n=c6 v=0
5777 On ch=1 n=d#5 v=0
5850 On ch=1 n=g#3 v=0
5905 On ch=1 n=a#3 v=58
5907 On ch=1 n=g5 v=66
5911 On ch=1 n=d#5 v=49
6010 Par ch=1 c=64 v=63
6030 Par ch=1 c=64 v=0
6113 Par ch=1 c=64 v=63
6128 Par ch=1 c=64 v=127
6367 On ch=1 n=d#5 v=0
6477 On ch=1 n=g#5 v=60
6484 On ch=1 n=g5 v=0
6654 On ch=1 n=g#5 v=0
6656 On ch=1 n=f5 v=49
6667 On ch=1 n=d5 v=43
6692 Par ch=1 c=64 v=63
6707 Par ch=1 c=64 v=0
6793 Par ch=1 c=64 v=63
6804 Par ch=1 c=64 v=127
6843 On ch=1 n=g5 v=50
6878 On ch=1 n=a#3 v=0
6888 On ch=1 n=f5 v=0
6904 On ch=1 n=d5 v=0
7010 On ch=1 n=g#5 v=72
7032 On ch=1 n=g5 v=0
7165 On ch=1 n=g#5 v=0
7181 On ch=1 n=a5 v=82
7437 On ch=1 n=a#6 v=93
7444 On ch=1 n=a#5 v=65
7453 On ch=1 n=g5 v=54
7481 On ch=1 n=a5 v=0
7590 Par ch=1 c=64 v=63
7623 Par ch=1 c=64 v=0
7903 Par ch=1 c=64 v=63
7909 Par ch=1 c=64 v=127
8230 On ch=1 n=g6 v=63
8237 On ch=1 n=d#5 v=47
8291 On ch=1 n=a#6 v=0
8301 Par ch=1 c=64 v=63
8326 Par ch=1 c=64 v=127
8477 On ch=1 n=g5 v=0
8512 On ch=1 n=d#5 v=0
8600 On ch=1 n=g6 v=0
8604 On ch=1 n=a#4 v=54
8611 On ch=1 n=f6 v=56
8662 Par ch=1 c=64 v=63
8710 Par ch=1 c=64 v=127
8996 On ch=1 n=d#6 v=61
9003 On ch=1 n=f6 v=0
9009 On ch=1 n=g4 v=26
9012 Par ch=1 c=64 v=63
9028 Par ch=1 c=64 v=0
9053 On ch=1 n=a#4 v=0
9064 Par ch=1 c=64 v=63
9084 Par ch=1 c=64 v=127
9143 On ch=1 n=g4 v=0
9147 On ch=1 n=a#5 v=0
9150 On ch=1 n=d#6 v=0
9160 Par ch=1 c=64 v=63
9188 Par ch=1 c=64 v=0
9312 Par ch=1 c=64 v=63
9324 Par ch=1 c=64 v=127
9349 On ch=1 n=a#4 v=52
9354 On ch=1 n=f6 v=66
9361 On ch=1 n=d6 v=52
9426 On ch=1 n=d6 v=0
9431 On ch=1 n=a#4 v=0
9471 On ch=1 n=f6 v=0
9474 Par ch=1 c=64 v=63
9490 Par ch=1 c=64 v=0
9680 Par ch=1 c=64 v=63
9694 Par ch=1 c=64 v=127
9723 On ch=1 n=g6 v=66
9725 On ch=1 n=d#5 v=57
9730 On ch=1 n=d#6 v=54
9814 On ch=1 n=d#6 v=0
9832 On ch=1 n=d#5 v=0
9832 Par ch=1 c=64 v=63
9842 On ch=1 n=g6 v=0
9853 Par ch=1 c=64 v=0
10036 Par ch=1 c=64 v=63
10096 Par ch=1 c=64 v=127
10100 On ch=1 n=g#6 v=79
10109 On ch=1 n=c5 v=51
10113 On ch=1 n=d#6 v=45
10197 On ch=1 n=d#6 v=0
10237 On ch=1 n=c5 v=0
10252 On ch=1 n=g#6 v=0
10527 On ch=1 n=a#6 v=86
10535 On ch=1 n=d#6 v=45
10535 On ch=1 n=g4 v=35
10556 Par ch=1 c=64 v=63
10566 Par ch=1 c=64 v=0
10640 Par ch=1 c=64 v=63
10649 Par ch=1 c=64 v=127
10696 On ch=1 n=d#6 v=0
10740 On ch=1 n=a#6 v=0
10904 On ch=1 n=g4 v=0
10907 On ch=1 n=b6 v=65
10908 On ch=1 n=g#4 v=52
10912 On ch=1 n=f5 v=40
10962 Par ch=1 c=64 v=63
10977 Par ch=1 c=64 v=0
10999 Par ch=1 c=64 v=63
11009 On ch=1 n=c7 v=83
11024 Par ch=1 c=64 v=127
11031 On ch=1 n=b6 v=0
11100 On ch=1 n=f5 v=0
11102 On ch=1 n=g#6 v=92
11112 On ch=1 n=c7 v=0
11173 On ch=1 n=f6 v=85
11188 On ch=1 n=g#6 v=0
11270 On ch=1 n=d#6 v=97
11279 On ch=1 n=a#4 v=54
11286 On ch=1 n=f6 v=0
11288 On ch=1 n=g5 v=43
11297 On ch=1 n=g#4 v=0
11322 Par ch=1 c=64 v=63
11331 Par ch=1 c=64 v=0
11436 Par ch=1 c=64 v=63
11444 Par ch=1 c=64 v=127
11478 On ch=1 n=g5 v=0
11662 On ch=1 n=g6 v=62
11666 On ch=1 n=g#5 v=51
11680 On ch=1 n=d#6 v=0
11731 Par ch=1 c=64 v=63
11746 Par ch=1 c=64 v=0
11757 On ch=1 n=f6 v=72
11772 Par ch=1 c=64 v=63
11795 On ch=1 n=g6 v=0
11798 Par ch=1 c=64 v=127
11842 On ch=1 n=e6 v=79
11878 On ch=1 n=f6 v=0
11908 On ch=1 n=g#5 v=0
11910 On ch=1 n=f6 v=82
11942 On ch=1 n=e6 v=0
12012 On ch=1 n=f6 v=0
12036 On ch=1 n=a#4 v=0
12046 On ch=1 n=f6 v=92
12053 On ch=1 n=g#5 v=48
12062 On ch=1 n=d#5 v=61
12062 On ch=1 n=d6 v=60
12137 Par ch=1 c=64 v=63
12163 Par ch=1 c=64 v=0
12477 Par ch=1 c=64 v=63
12483 Par ch=1 c=64 v=127
12698 On ch=1 n=g#5 v=0
12836 On ch=1 n=d6 v=0
12886 On ch=1 n=f6 v=0
12891 On ch=1 n=d#6 v=50
12913 On ch=1 n=g5 v=21
13020 Par ch=1 c=64 v=63
13051 Par ch=1 c=64 v=0
13133 Par ch=1 c=64 v=63
13147 Par ch=1 c=64 v=127
13314 On ch=1 n=d#6 v=0
13395 Par ch=1 c=64 v=63
13405 On ch=1 n=g5 v=0
13419 On ch=1 n=d#5 v=0
13429 Par ch=1 c=64 v=0
13755 Par ch=1 c=64 v=63
13846 Par ch=1 c=64 v=127
13847 On ch=1 n=f6 v=66
13859 On ch=1 n=d5 v=45
14239 On ch=1 n=a#4 v=62
14367 On ch=1 n=d5 v=0
14516 On ch=1 n=f6 v=0
14595 On ch=1 n=g6 v=89
14605 On ch=1 n=d#5 v=58
14707 Par ch=1 c=64 v=63
14721 Par ch=1 c=64 v=0
14760 On ch=1 n=a#4 v=0
14782 Par ch=1 c=64 v=63
14799 Par ch=1 c=64 v=127
14972 On ch=1 n=a#4 v=58
14972 On ch=1 n=d#6 v=87
15015 On ch=1 n=g6 v=0
15056 Par ch=1 c=64 v=63
15082 Par ch=1 c=64 v=0
15092 Par ch=1 c=64 v=63
15127 Par ch=1 c=64 v=127
15153 On ch=1 n=d#5 v=0
15208 On ch=1 n=a#4 v=0
15398 On ch=1 n=g#6 v=81
15405 On ch=1 n=f5 v=38
15409 On ch=1 n=a#4 v=22
15435 On ch=1 n=d#6 v=0
15477 Par ch=1 c=64 v=63
15495 Par ch=1 c=64 v=0
15547 Par ch=1 c=64 v=63
15566 Par ch=1 c=64 v=127
15854 Par ch=1 c=64 v=63
15915 Par ch=1 c=64 v=127
15963 On ch=1 n=f6 v=59
15983 On ch=1 n=g#6 v=0
16123 On ch=1 n=d6 v=61
16134 On ch=1 n=f6 v=0
16168 On ch=1 n=f5 v=0
16206 Par ch=1 c=64 v=63
16247 Par ch=1 c=64 v=0
16256 On ch=1 n=d6 v=0
16285 On ch=1 n=a#4 v=0
16292 On ch=1 n=d#6 v=74
16385 On ch=1 n=d#6 v=0
16444 On ch=1 n=f6 v=79
16548 On ch=1 n=f6 v=0
16603 On ch=1 n=f#6 v=82
16737 On ch=1 n=f#6 v=0
16784 On ch=1 n=g6 v=71
16786 On ch=1 n=d#5 v=65
16829 Par ch=1 c=64 v=63
16845 Par ch=1 c=64 v=127
16979 On ch=1 n=g6 v=0
16996 On ch=1 n=d#5 v=0
17110 Par ch=1 c=64 v=63
17126 On ch=1 n=g6 v=87
17127 Par ch=1 c=64 v=0
17131 On ch=1 n=d#5 v=83
17222 Par ch=1 c=64 v=63
17232 Par ch=1 c=64 v=127
17349 On ch=1 n=g6 v=0
17349 On ch=1 n=d#5 v=0
17472 On ch=1 n=g#6 v=97
17473 On ch=1 n=f5 v=63
17477 On ch=1 n=d#5 v=60
17521 Par ch=1 c=64 v=63
17548 Par ch=1 c=64 v=0
17567 Par ch=1 c=64 v=63
17604 Par ch=1 c=64 v=127
17683 On ch=1 n=d#5 v=0
17745 On ch=1 n=g#6 v=0
17764 On ch=1 n=f5 v=0
17824 On ch=1 n=a6 v=94
17832 On ch=1 n=f#5 v=70
17833 On ch=1 n=d#5 v=55
17904 Par ch=1 c=64 v=63
17916 Par ch=1 c=64 v=0
17970 Par ch=1 c=64 v=63
17985 Par ch=1 c=64 v=127
18098 On ch=1 n=d#5 v=0
18180 On ch=1 n=a6 v=0
18203 On ch=1 n=f#5 v=0
18208 On ch=1 n=a#6 v=96
18214 On ch=1 n=g5 v=45
18219 On ch=1 n=d#5 v=36
18276 Par ch=1 c=64 v=63
18286 Par ch=1 c=64 v=0
18358 Par ch=1 c=64 v=63
18372 Par ch=1 c=64 v=127
18746 On ch=1 n=a#6 v=0
18776 On ch=1 n=c7 v=57
18818 On ch=1 n=a#6 v=77
18836 On ch=1 n=c7 v=0
18867 On ch=1 n=g#6 v=70
18886 On ch=1 n=a#6 v=0
18922 Par ch=1 c=64 v=63
18930 On ch=1 n=g6 v=82
18940 On ch=1 n=g#6 v=0
18952 Par ch=1 c=64 v=0
19061 On ch=1 n=g5 v=0
19083 On ch=1 n=g#6 v=91
19093 On ch=1 n=d#5 v=0
19104 On ch=1 n=g6 v=0
19243 On ch=1 n=a#6 v=96
19275 On ch=1 n=g#6 v=0
19404 On ch=1 n=b6 v=98
19446 On ch=1 n=a#6 v=0
19604 On ch=1 n=c7 v=101
19652 On ch=1 n=b6 v=0
19807 Par ch=1 c=64 v=63
19827 Par ch=1 c=64 v=127
19961 On ch=1 n=g#5 v=50
19961 On ch=1 n=d#6 v=44
20027 On ch=1 n=c7 v=0
20057 On ch=1 n=g#5 v=0
20075 On ch=1 n=d#6 v=0
20330 On ch=1 n=a#6 v=84
20685 On ch=1 n=d#6 v=47
20692 On ch=1 n=f#5 v=50
20717 Par ch=1 c=64 v=63
20726 Par ch=1 c=64 v=0
20846 Par ch=1 c=64 v=63
20853 Par ch=1 c=64 v=127
20863 On ch=1 n=f#5 v=0
20870 On ch=1 n=d#6 v=0
21049 On ch=1 n=a6 v=77
21053 Par ch=1 c=64 v=63
21063 Par ch=1 c=64 v=0
21072 On ch=1 n=a#6 v=0
21410 On ch=1 n=d#6 v=37
21416 On ch=1 n=f5 v=44
21442 Par ch=1 c=64 v=63
21449 Par ch=1 c=64 v=127
21513 On ch=1 n=d#6 v=0
21514 On ch=1 n=f5 v=0
21591 On ch=1 n=a6 v=0
21742 Par ch=1 c=64 v=63
21764 Par ch=1 c=64 v=0
21773 On ch=1 n=g#6 v=67
22147 On ch=1 n=d5 v=42
22148 Par ch=1 c=64 v=63
22152 On ch=1 n=b4 v=45
22156 Par ch=1 c=64 v=127
22380 On ch=1 n=b4 v=0
22390 On ch=1 n=g#6 v=0
22396 On ch=1 n=d5 v=0
22552 On ch=1 n=d#5 v=54
22555 On ch=1 n=g6 v=58
22561 On ch=1 n=c5 v=47
22610 Par ch=1 c=64 v=63
22629 Par ch=1 c=64 v=0
22674 Par ch=1 c=64 v=63
22689 Par ch=1 c=64 v=127
22969 On ch=1 n=d#7 v=73
23039 On ch=1 n=g6 v=0
23127 On ch=1 n=c5 v=0
23166 On ch=1 n=d#5 v=0
23308 On ch=1 n=d#7 v=0
23318 On ch=1 n=f6 v=76
23329 On ch=1 n=c5 v=49
23329 On ch=1 n=g#4 v=55
23396 Par ch=1 c=64 v=63
23418 Par ch=1 c=64 v=0
23463 Par ch=1 c=64 v=63
23478 Par ch=1 c=64 v=127
23633 On ch=1 n=f6 v=0
23703 On ch=1 n=c5 v=0
23706 On ch=1 n=c7 v=50
23712 On ch=1 n=g#5 v=37
23847 Par ch=1 c=64 v=63
23856 Par ch=1 c=64 v=0
23888 Par ch=1 c=64 v=63
23898 Par ch=1 c=64 v=127
24028 On ch=1 n=g#5 v=0
24085 On ch=1 n=c7 v=0
24089 On ch=1 n=g#4 v=0
24095 On ch=1 n=d#6 v=60
24097 On ch=1 n=a#4 v=49
24116 On ch=1 n=g5 v=27
24197 Par ch=1 c=64 v=63
24209 Par ch=1 c=64 v=0
24476 Par ch=1 c=64 v=63
24480 Par ch=1 c=64 v=127
24738 On ch=1 n=d#6 v=0
24757 On ch=1 n=f6 v=54
24801 On ch=1 n=g5 v=0
24837 On ch=1 n=d#6 v=62
24863 On ch=1 n=f6 v=0
24926 On ch=1 n=d#6 v=0
24927 On ch=1 n=d6 v=47
24941 On ch=1 n=f5 v=20
25012 Par ch=1 c=64 v=63
25022 Par ch=1 c=64 v=0
25375 On ch=1 n=d6 v=0
25390 On ch=1 n=f5 v=0
25436 On ch=1 n=a#4 v=0
25921 Par ch=1 c=64 v=63
25941 Par ch=1 c=64 v=127
25953 On ch=1 n=a#5 v=65
25961 On ch=1 n=d#4 v=42
25965 On ch=1 n=d#3 v=31
25965 On ch=1 n=g5 v=26
26522 On ch=1 n=g5 v=0
26744 On ch=1 n=a#5 v=0
26745 On ch=1 n=g5 v=60
26750 On ch=1 n=d#5 v=54
27058 On ch=1 n=d#5 v=0
27098 On ch=1 n=d#4 v=0
27113 On ch=1 n=f5 v=77
27121 On ch=1 n=a#4 v=32
27124 On ch=1 n=a#3 v=59
27133 On ch=1 n=g5 v=0
27185 On ch=1 n=d#3 v=0
27201 Par ch=1 c=64 v=63
27245 Par ch=1 c=64 v=127
27380 On ch=1 n=a#4 v=0
27490 On ch=1 n=d#4 v=39
27497 On ch=1 n=d#5 v=84
27503 On ch=1 n=g4 v=41
27522 On ch=1 n=f5 v=0
27540 On ch=1 n=a#3 v=0
27596 Par ch=1 c=64 v=63
27618 Par ch=1 c=64 v=0
27698 Par ch=1 c=64 v=63
27715 Par ch=1 c=64 v=127
27871 On ch=1 n=a#4 v=74
27888 On ch=1 n=d#5 v=0
28053 On ch=1 n=g4 v=0
28098 On ch=1 n=d#4 v=0
28237 On ch=1 n=d#5 v=80
28290 On ch=1 n=a#4 v=0
28326 Par ch=1 c=64 v=63
28353 Par ch=1 c=64 v=0
28617 On ch=1 n=a#3 v=52
28625 On ch=1 n=f5 v=77
28632 On ch=1 n=d5 v=52
28644 On ch=1 n=d#5 v=0
28656 Par ch=1 c=64 v=63
28660 Par ch=1 c=64 v=127
28787 On ch=1 n=d5 v=0
28815 On ch=1 n=f5 v=0
29001 On ch=1 n=g5 v=74
29003 On ch=1 n=d#4 v=60
29009 On ch=1 n=d#5 v=46
29051 On ch=1 n=a#3 v=0
29108 Par ch=1 c=64 v=63
29123 Par ch=1 c=64 v=0
29370 On ch=1 n=g#5 v=83
29388 On ch=1 n=c4 v=52
29392 On ch=1 n=d#4 v=0
29438 On ch=1 n=g5 v=0
29490 Par ch=1 c=64 v=63
29502 Par ch=1 c=64 v=127
29759 On ch=1 n=g3 v=60
29761 On ch=1 n=a#5 v=91
29809 On ch=1 n=g#5 v=0
29836 On ch=1 n=c4 v=0
29953 Par ch=1 c=64 v=63
29983 Par ch=1 c=64 v=0
30146 On ch=1 n=c6 v=81
30154 On ch=1 n=g#3 v=71
30156 Par ch=1 c=64 v=63
30163 On ch=1 n=a#5 v=0
30177 Par ch=1 c=64 v=0
30200 On ch=1 n=g3 v=0
30309 Par ch=1 c=64 v=63
30320 Par ch=1 c=64 v=127
30533 On ch=1 n=d#5 v=0
30579 On ch=1 n=c6 v=0
30584 On ch=1 n=g5 v=76
30592 On ch=1 n=a#3 v=55
30592 On ch=1 n=d#5 v=40
30632 On ch=1 n=g#3 v=0
30723 Par ch=1 c=64 v=63
30745 Par ch=1 c=64 v=0
30927 Par ch=1 c=64 v=63
30934 Par ch=1 c=64 v=127
31176 On ch=1 n=g#5 v=63
31226 On ch=1 n=g5 v=0
31337 On ch=1 n=d#5 v=0
31370 On ch=1 n=f5 v=63
31377 On ch=1 n=d5 v=46
31392 On ch=1 n=g#5 v=0
31424 Par ch=1 c=64 v=63
31435 Par ch=1 c=64 v=0
31505 Par ch=1 c=64 v=63
31516 Par ch=1 c=64 v=127
31541 On ch=1 n=g5 v=66
31559 On ch=1 n=d5 v=0
31583 On ch=1 n=a#3 v=0
31584 On ch=1 n=f5 v=0
31714 On ch=1 n=g#5 v=77
31721 On ch=1 n=g5 v=0
31814 On ch=1 n=g#5 v=0
31883 On ch=1 n=a5 v=82
32150 On ch=1 n=g5 v=43
32152 On ch=1 n=a#6 v=90
32158 On ch=1 n=a#5 v=58
32162 On ch=1 n=a5 v=0
32198 Par ch=1 c=64 v=63
32220 Par ch=1 c=64 v=0
32633 Par ch=1 c=64 v=63
32640 Par ch=1 c=64 v=127
32964 On ch=1 n=g6 v=74
32969 On ch=1 n=d#5 v=46
33024 On ch=1 n=a#6 v=0
33207 On ch=1 n=g5 v=0
33260 On ch=1 n=d#5 v=0
33351 On ch=1 n=f6 v=62
33353 On ch=1 n=a#4 v=29
33356 On ch=1 n=g6 v=0
33439 Par ch=1 c=64 v=63
33460 Par ch=1 c=64 v=0
33505 Par ch=1 c=64 v=63
33526 Par ch=1 c=64 v=127
33721 On ch=1 n=f6 v=0
33722 Par ch=1 c=64 v=63
33725 On ch=1 n=d#6 v=64
33731 On ch=1 n=g4 v=29
33786 On ch=1 n=a#4 v=0
33789 Par ch=1 c=64 v=127
33855 On ch=1 n=g4 v=0
33865 Par ch=1 c=64 v=63
33874 On ch=1 n=d#6 v=0
33888 Par ch=1 c=64 v=0
33897 On ch=1 n=a#5 v=0
34056 Par ch=1 c=64 v=63
34070 Par ch=1 c=64 v=127
34099 On ch=1 n=a#4 v=48
34107 On ch=1 n=f6 v=59
34116 On ch=1 n=d6 v=46
34185 On ch=1 n=d6 v=0
34186 On ch=1 n=a#4 v=0
34226 On ch=1 n=f6 v=0
34250 Par ch=1 c=64 v=63
34267 Par ch=1 c=64 v=0
34399 Par ch=1 c=64 v=63
34419 Par ch=1 c=64 v=127
34474 On ch=1 n=d#5 v=53
34476 On ch=1 n=g6 v=66
34480 On ch=1 n=d#6 v=25
34578 On ch=1 n=d#6 v=0
34590 On ch=1 n=d#5 v=0
34598 Par ch=1 c=64 v=63
34605 On ch=1 n=g6 v=0
34616 Par ch=1 c=64 v=0
34842 Par ch=1 c=64 v=63
34843 On ch=1 n=g#6 v=78
34852 On ch=1 n=d#6 v=49
34859 Par ch=1 c=64 v=127
34867 On ch=1 n=c5 v=31
34947 On ch=1 n=d#6 v=0
34984 On ch=1 n=g#6 v=0
34988 On ch=1 n=c5 v=0
35269 On ch=1 n=a#6 v=88
35272 On ch=1 n=d#6 v=57
35283 On ch=1 n=g4 v=29
35325 Par ch=1 c=64 v=63
35337 Par ch=1 c=64 v=0
35424 Par ch=1 c=64 v=63
35432 Par ch=1 c=64 v=127
35522 On ch=1 n=a#6 v=0
35549 On ch=1 n=d#6 v=0
35705 On ch=1 n=b6 v=72
35714 On ch=1 n=g4 v=0
35719 On ch=1 n=f5 v=28
35720 On ch=1 n=g#4 v=40
35767 Par ch=1 c=64 v=63
35784 Par ch=1 c=64 v=0
35804 Par ch=1 c=64 v=63
35808 On ch=1 n=c7 v=72
35815 On ch=1 n=b6 v=0
35829 Par ch=1 c=64 v=127
35895 On ch=1 n=g#6 v=81
35905 On ch=1 n=c7 v=0
35934 On ch=1 n=f5 v=0
35967 On ch=1 n=f6 v=89
35976 On ch=1 n=g#6 v=0
36064 On ch=1 n=d#6 v=94
36079 On ch=1 n=f6 v=0
36080 On ch=1 n=g5 v=46
36087 On ch=1 n=a#4 v=65
36091 On ch=1 n=g#4 v=0
36109 Par ch=1 c=64 v=63
36124 Par ch=1 c=64 v=0
36192 Par ch=1 c=64 v=63
36201 Par ch=1 c=64 v=127
36292 On ch=1 n=g5 v=0
36449 On ch=1 n=g#5 v=66
36459 On ch=1 n=d#6 v=0
36460 On ch=1 n=g6 v=68
36509 Par ch=1 c=64 v=63
36521 Par ch=1 c=64 v=0
36553 On ch=1 n=f6 v=84
36569 Par ch=1 c=64 v=63
36579 Par ch=1 c=64 v=127
36591 On ch=1 n=g6 v=0
36640 On ch=1 n=e6 v=93
36666 On ch=1 n=f6 v=0
36676 On ch=1 n=g#5 v=0
36705 On ch=1 n=f6 v=90
36736 On ch=1 n=e6 v=0
36790 On ch=1 n=f6 v=0
36830 On ch=1 n=f6 v=73
36833 On ch=1 n=g#5 v=50
36844 On ch=1 n=d6 v=71
36846 On ch=1 n=d#5 v=60
36891 On ch=1 n=a#4 v=0
36912 Par ch=1 c=64 v=63
36937 Par ch=1 c=64 v=0
37297 Par ch=1 c=64 v=63
37303 Par ch=1 c=64 v=127
37510 On ch=1 n=f6 v=0
37546 On ch=1 n=g#5 v=0
37711 On ch=1 n=d6 v=0
37753 On ch=1 n=d#6 v=58
37769 On ch=1 n=g5 v=29
37943 Par ch=1 c=64 v=63
38010 Par ch=1 c=64 v=127
38180 On ch=1 n=d#6 v=0
38237 On ch=1 n=g5 v=0
38252 On ch=1 n=d#5 v=0
38333 Par ch=1 c=64 v=63
38404 Par ch=1 c=64 v=0
38480 Par ch=1 c=64 v=63
38609 Par ch=1 c=64 v=127
38919 On ch=1 n=g6 v=89
38924 On ch=1 n=d#6 v=73
38929 On ch=1 n=c4 v=64
39185 On ch=1 n=c5 v=72
39286 On ch=1 n=c5 v=0
39353 On ch=1 n=c5 v=64
39393 On ch=1 n=d#6 v=0
39421 On ch=1 n=c5 v=0
39500 On ch=1 n=c4 v=0
39506 On ch=1 n=f6 v=86
39513 On ch=1 n=g6 v=0
39514 On ch=1 n=d6 v=65
39520 On ch=1 n=c5 v=55
39582 On ch=1 n=c5 v=0
39650 On ch=1 n=d6 v=0
39686 On ch=1 n=d#6 v=87
39691 On ch=1 n=c5 v=56
39696 On ch=1 n=c6 v=42
39736 On ch=1 n=f6 v=0
39756 On ch=1 n=c5 v=0
39807 On ch=1 n=c6 v=0
39844 On ch=1 n=c5 v=64
39865 On ch=1 n=d#6 v=0
39900 On ch=1 n=c5 v=0
39995 On ch=1 n=c5 v=68
40071 On ch=1 n=c5 v=0
40150 On ch=1 n=c5 v=70
40309 On ch=1 n=b3 v=79
40319 On ch=1 n=c5 v=0
40325 On ch=1 n=g#6 v=104
40332 On ch=1 n=f6 v=84
40400 Par ch=1 c=64 v=63
40412 Par ch=1 c=64 v=0
40497 Par ch=1 c=64 v=63
40504 Par ch=1 c=64 v=127
40510 On ch=1 n=b4 v=71
40593 On ch=1 n=b3 v=0
40603 On ch=1 n=b4 v=0
40659 On ch=1 n=b4 v=74
40663 On ch=1 n=f6 v=0
40723 On ch=1 n=b4 v=0
40782 On ch=1 n=g#6 v=0
40798 On ch=1 n=b4 v=59
40808 On ch=1 n=d#6 v=82
40809 On ch=1 n=g6 v=84
40845 On ch=1 n=b4 v=0
40899 On ch=1 n=d#6 v=0
40974 On ch=1 n=f6 v=74
40980 On ch=1 n=b4 v=51
40985 On ch=1 n=g6 v=0
40988 On ch=1 n=d6 v=29
41055 On ch=1 n=b4 v=0
41128 On ch=1 n=b4 v=59
41172 On ch=1 n=d6 v=0
41184 On ch=1 n=b4 v=0
41235 On ch=1 n=f6 v=0
41277 On ch=1 n=b4 v=63
41328 On ch=1 n=b4 v=0
41415 Par ch=1 c=64 v=63
41432 On ch=1 n=b4 v=70
41453 Par ch=1 c=64 v=0
41595 On ch=1 n=c5 v=88
41685 On ch=1 n=b4 v=0
41775 On ch=1 n=d#6 v=90
41794 On ch=1 n=c6 v=54
41841 Par ch=1 c=64 v=63
41851 Par ch=1 c=64 v=127
41921 On ch=1 n=f6 v=97
41925 On ch=1 n=d6 v=88
41941 On ch=1 n=c6 v=0
41956 On ch=1 n=d#6 v=0
42052 On ch=1 n=c5 v=0
42062 On ch=1 n=g6 v=97
42064 On ch=1 n=d#6 v=96
42078 On ch=1 n=d6 v=0
42088 On ch=1 n=f6 v=0
42180 On ch=1 n=d#6 v=0
42185 On ch=1 n=g6 v=0
42218 On ch=1 n=g#4 v=85
42222 On ch=1 n=d#6 v=86
42224 On ch=1 n=g6 v=84
42289 Par ch=1 c=64 v=63
42314 Par ch=1 c=64 v=0
42373 On ch=1 n=f6 v=91
42380 On ch=1 n=d6 v=87
42386 Par ch=1 c=64 v=63
42400 Par ch=1 c=64 v=127
42407 On ch=1 n=g6 v=0
42408 On ch=1 n=d#6 v=0
42463 On ch=1 n=g#4 v=0
42487 On ch=1 n=f6 v=0
42492 On ch=1 n=d6 v=0
42531 On ch=1 n=f6 v=84
42535 On ch=1 n=d6 v=71
42547 On ch=1 n=f#4 v=79
42589 Par ch=1 c=64 v=63
42612 Par ch=1 c=64 v=0
42679 Par ch=1 c=64 v=63
42695 On ch=1 n=d#6 v=92
42695 Par ch=1 c=64 v=127
42696 On ch=1 n=c6 v=71
42698 On ch=1 n=d6 v=0
42743 On ch=1 n=f6 v=0
42770 On ch=1 n=d#6 v=0
42841 On ch=1 n=c6 v=0
42881 On ch=1 n=f#4 v=0
42901 On ch=1 n=d#6 v=93
42902 On ch=1 n=g4 v=72
42907 On ch=1 n=c6 v=68
43014 Par ch=1 c=64 v=63
43038 Par ch=1 c=64 v=0
43078 On ch=1 n=g3 v=79
43094 Par ch=1 c=64 v=63
43115 Par ch=1 c=64 v=127
43136 On ch=1 n=g4 v=0
43225 On ch=1 n=g4 v=69
43243 On ch=1 n=g3 v=0
43314 On ch=1 n=g4 v=0
43373 On ch=1 n=g4 v=52
43443 On ch=1 n=g4 v=0
43526 On ch=1 n=g4 v=51
43528 On ch=1 n=c6 v=0
43535 On ch=1 n=d#6 v=0
43547 On ch=1 n=d6 v=48
43557 On ch=1 n=b5 v=23
43599 Par ch=1 c=64 v=63
43621 Par ch=1 c=64 v=0
43680 On ch=1 n=f4 v=51
43695 Par ch=1 c=64 v=63
43696 On ch=1 n=g4 v=0
43719 Par ch=1 c=64 v=127
43803 On ch=1 n=b5 v=0
43830 On ch=1 n=d#4 v=61
43850 On ch=1 n=d6 v=0
43858 On ch=1 n=f4 v=0
43983 On ch=1 n=d4 v=55
44008 On ch=1 n=d#4 v=0
44056 Par ch=1 c=64 v=63
44113 Par ch=1 c=64 v=0
44156 On ch=1 n=c4 v=41
44194 On ch=1 n=d4 v=0
44338 On ch=1 n=d#6 v=66
44456 Par ch=1 c=64 v=63
44468 Par ch=1 c=64 v=127
44484 On ch=1 n=c6 v=65
44521 On ch=1 n=d#6 v=0
44551 On ch=1 n=c4 v=0
44627 On ch=1 n=g#5 v=81
44662 On ch=1 n=c6 v=0
44774 On ch=1 n=g5 v=82
44840 On ch=1 n=g#5 v=0
44913 Par ch=1 c=64 v=63
44918 On ch=1 n=d#5 v=81
44930 On ch=1 n=c5 v=71
44970 Par ch=1 c=64 v=0
44985 Par ch=1 c=64 v=63
44999 On ch=1 n=d#5 v=0
45010 On ch=1 n=c5 v=0
45019 Par ch=1 c=64 v=127
45077 On ch=1 n=f#5 v=97
45078 On ch=1 n=d#5 v=67
45093 On ch=1 n=c5 v=43
45102 On ch=1 n=g5 v=0
45132 On ch=1 n=d#5 v=0
45143 On ch=1 n=c5 v=0
45212 On ch=1 n=d#5 v=70
45226 On ch=1 n=c5 v=54
45228 On ch=1 n=f#5 v=0
45338 On ch=1 n=c5 v=0
45355 On ch=1 n=d#5 v=0
45379 On ch=1 n=d5 v=39
45383 On ch=1 n=a#4 v=51
45448 Par ch=1 c=64 v=63
45469 Par ch=1 c=64 v=0
45533 On ch=1 n=a#6 v=65
45624 Par ch=1 c=64 v=63
45631 Par ch=1 c=64 v=127
45674 On ch=1 n=g6 v=66
45685 On ch=1 n=a#6 v=0
45719 On ch=1 n=d5 v=0
45721 On ch=1 n=a#4 v=0
45815 On ch=1 n=d#6 v=82
45877 On ch=1 n=g6 v=0
45963 On ch=1 n=d6 v=72
46019 On ch=1 n=d#6 v=0
46029 Par ch=1 c=64 v=63
46057 Par ch=1 c=64 v=0
46115 On ch=1 n=g5 v=57
46136 On ch=1 n=e5 v=30
46163 On ch=1 n=g5 v=0
46167 On ch=1 n=e5 v=0
46276 On ch=1 n=g5 v=46
46277 On ch=1 n=c#6 v=73
46295 On ch=1 n=e5 v=18
46300 On ch=1 n=d6 v=0
46325 On ch=1 n=g5 v=0
46325 On ch=1 n=e5 v=0
46419 On ch=1 n=g5 v=49
46422 On ch=1 n=e5 v=46
46474 On ch=1 n=g5 v=0
46482 On ch=1 n=e5 v=0
46575 On ch=1 n=f#5 v=49
46576 On ch=1 n=c#6 v=0
46583 On ch=1 n=d5 v=48
46682 On ch=1 n=f#5 v=0
46684 On ch=1 n=d5 v=0
46727 On ch=1 n=d6 v=54
46820 On ch=1 n=d6 v=0
46885 On ch=1 n=d#5 v=56
46988 On ch=1 n=d#5 v=0
47025 On ch=1 n=a#5 v=68
47032 On ch=1 n=g5 v=37
47098 On ch=1 n=a#5 v=0
47103 On ch=1 n=g5 v=0
47176 On ch=1 n=c5 v=62
47276 On ch=1 n=c5 v=0
47330 On ch=1 n=c6 v=59
47335 On ch=1 n=a5 v=41
47426 On ch=1 n=c6 v=0
47440 On ch=1 n=a5 v=0
47479 On ch=1 n=d5 v=58
47556 On ch=1 n=d5 v=0
47635 On ch=1 n=f#5 v=44
47638 On ch=1 n=a5 v=43
47762 On ch=1 n=a5 v=0
47765 On ch=1 n=f#5 v=0
47796 On ch=1 n=g4 v=46
47952 On ch=1 n=g5 v=44
48044 Par ch=1 c=64 v=63
48079 Par ch=1 c=64 v=127
48102 On ch=1 n=a5 v=38
48150 On ch=1 n=g5 v=0
48187 On ch=1 n=g4 v=0
48263 On ch=1 n=b5 v=57
48270 On ch=1 n=a5 v=0
48414 On ch=1 n=b5 v=0
48417 On ch=1 n=c6 v=60
48432 On ch=1 n=a5 v=16
48479 Par ch=1 c=64 v=63
48512 Par ch=1 c=64 v=0
48531 Par ch=1 c=64 v=63
48561 Par ch=1 c=64 v=127
48563 On ch=1 n=b5 v=63
48574 On ch=1 n=d6 v=64
48583 On ch=1 n=c6 v=0
48587 On ch=1 n=a5 v=0
48724 On ch=1 n=d#6 v=83
48725 On ch=1 n=c6 v=66
48731 On ch=1 n=b5 v=0
48748 On ch=1 n=d6 v=0
48802 Par ch=1 c=64 v=63
48865 Par ch=1 c=64 v=127
48884 On ch=1 n=f6 v=93
48885 On ch=1 n=d6 v=79
48891 On ch=1 n=d#6 v=0
49009 On ch=1 n=c6 v=0
49079 On ch=1 n=g6 v=96
49093 On ch=1 n=c5 v=68
49095 On ch=1 n=d6 v=0
49096 On ch=1 n=e6 v=76
49110 On ch=1 n=f6 v=0
49190 Par ch=1 c=64 v=63
49255 Par ch=1 c=64 v=127
49279 On ch=1 n=a#5 v=64
49288 On ch=1 n=g5 v=59
49362 On ch=1 n=g5 v=0
49364 On ch=1 n=a#5 v=0
49429 On ch=1 n=a#5 v=87
49436 On ch=1 n=g5 v=76
49485 On ch=1 n=a#5 v=0
49500 On ch=1 n=g5 v=0
49502 On ch=1 n=c5 v=0
49517 On ch=1 n=g6 v=0
49573 On ch=1 n=a#5 v=91
49576 On ch=1 n=g5 v=82
49638 On ch=1 n=g5 v=0
49645 On ch=1 n=a#5 v=0
49649 On ch=1 n=e6 v=0
49710 On ch=1 n=g#6 v=105
49711 On ch=1 n=c5 v=82
49717 On ch=1 n=f6 v=92
49800 Par ch=1 c=64 v=63
49834 Par ch=1 c=64 v=127
49870 On ch=1 n=g#5 v=76
49877 On ch=1 n=f5 v=78
49936 On ch=1 n=g#5 v=0
49937 On ch=1 n=c5 v=0
49949 On ch=1 n=f5 v=0
50007 On ch=1 n=f6 v=0
50024 On ch=1 n=g#5 v=86
50026 On ch=1 n=f5 v=75
50074 On ch=1 n=g#6 v=0
50084 On ch=1 n=g#5 v=0
50101 On ch=1 n=f5 v=0
50155 On ch=1 n=g#5 v=91
50161 On ch=1 n=f5 v=84
50300 On ch=1 n=c5 v=74
50312 On ch=1 n=a#6 v=105
50321 On ch=1 n=g6 v=75
50352 On ch=1 n=g#5 v=0
50363 On ch=1 n=f5 v=0
50421 Par ch=1 c=64 v=63
50436 Par ch=1 c=64 v=0
50478 On ch=1 n=g5 v=68
50488 Par ch=1 c=64 v=63
50492 On ch=1 n=e5 v=69
50496 Par ch=1 c=64 v=127
50551 On ch=1 n=g5 v=0
50565 On ch=1 n=e5 v=0
50627 On ch=1 n=g5 v=71
50632 On ch=1 n=e5 v=69
50670 On ch=1 n=g5 v=0
50676 On ch=1 n=e5 v=0
50753 On ch=1 n=g5 v=62
50757 On ch=1 n=e5 v=65
50778 On ch=1 n=c5 v=0
50817 On ch=1 n=g5 v=0
50861 On ch=1 n=e5 v=0
50871 On ch=1 n=g6 v=0
50917 On ch=1 n=g#6 v=82
50921 On ch=1 n=c5 v=63
50925 On ch=1 n=f6 v=34
50943 On ch=1 n=a#6 v=0
50973 Par ch=1 c=64 v=63
50994 Par ch=1 c=64 v=0
51061 Par ch=1 c=64 v=63
51063 On ch=1 n=g#5 v=57
51069 Par ch=1 c=64 v=127
51078 On ch=1 n=f5 v=57
51128 On ch=1 n=c5 v=0
51171 On ch=1 n=f6 v=0
51187 On ch=1 n=f5 v=0
51191 On ch=1 n=g#5 v=0
51232 On ch=1 n=g#6 v=0
51232 On ch=1 n=b4 v=63
51254 Par ch=1 c=64 v=63
51270 Par ch=1 c=64 v=0
51397 Par ch=1 c=64 v=63
51402 Par ch=1 c=64 v=127
51403 On ch=1 n=g#5 v=42
51412 On ch=1 n=f5 v=42
51503 On ch=1 n=b4 v=0
51525 On ch=1 n=f5 v=0
51609 On ch=1 n=a#4 v=45
51617 On ch=1 n=f6 v=69
51622 On ch=1 n=g#5 v=0
51629 On ch=1 n=d6 v=50
51664 Par ch=1 c=64 v=63
51673 Par ch=1 c=64 v=0
51708 Par ch=1 c=64 v=63
51718 Par ch=1 c=64 v=127
51810 On ch=1 n=g#5 v=60
51822 On ch=1 n=f5 v=52
51871 On ch=1 n=g#5 v=0
51879 On ch=1 n=f5 v=0
51967 On ch=1 n=g#5 v=65
51979 On ch=1 n=f5 v=54
52017 On ch=1 n=g#5 v=0
52024 On ch=1 n=f5 v=0
52101 On ch=1 n=g#5 v=72
52116 On ch=1 n=f5 v=55
52124 On ch=1 n=a#4 v=0
52194 On ch=1 n=f5 v=0
52213 On ch=1 n=g#5 v=0
52231 On ch=1 n=a#4 v=67
52235 On ch=1 n=f6 v=0
52245 On ch=1 n=g6 v=93
52250 On ch=1 n=d#6 v=76
52267 On ch=1 n=d6 v=0
52361 Par ch=1 c=64 v=63
52404 On ch=1 n=g5 v=59
52408 On ch=1 n=d#5 v=70
52410 Par ch=1 c=64 v=127
52482 On ch=1 n=d#5 v=0
52499 On ch=1 n=g5 v=0
52561 On ch=1 n=g5 v=69
52567 On ch=1 n=d#5 v=75
52577 On ch=1 n=d#6 v=0
52620 On ch=1 n=g5 v=0
52621 On ch=1 n=g6 v=0
52629 On ch=1 n=d#5 v=0
52697 On ch=1 n=d#5 v=80
52698 On ch=1 n=g5 v=68
52734 On ch=1 n=a#4 v=0
52832 On ch=1 n=a#4 v=74
52837 On ch=1 n=g5 v=0
52840 On ch=1 n=g#6 v=104
52850 On ch=1 n=f6 v=88
52897 On ch=1 n=d#5 v=0
52911 Par ch=1 c=64 v=63
52919 Par ch=1 c=64 v=0
52999 On ch=1 n=f5 v=63
53010 On ch=1 n=d5 v=73
53015 Par ch=1 c=64 v=63
53021 Par ch=1 c=64 v=127
53074 On ch=1 n=f5 v=0
53084 On ch=1 n=d5 v=0
53151 On ch=1 n=f5 v=69
53157 On ch=1 n=d5 v=66
53197 On ch=1 n=f5 v=0
53214 On ch=1 n=d5 v=0
53296 On ch=1 n=f5 v=57
53307 On ch=1 n=d5 v=36
53336 On ch=1 n=f5 v=0
53365 On ch=1 n=d5 v=0
53371 On ch=1 n=a#4 v=0
53425 On ch=1 n=f6 v=0
53430 On ch=1 n=g#6 v=0
53444 On ch=1 n=a#4 v=60
53448 On ch=1 n=g6 v=75
53456 On ch=1 n=d#6 v=73
53531 Par ch=1 c=64 v=63
53542 Par ch=1 c=64 v=0
53602 On ch=1 n=g5 v=55
53608 On ch=1 n=d#5 v=67
53617 Par ch=1 c=64 v=63
53625 Par ch=1 c=64 v=127
53666 On ch=1 n=g5 v=0
53669 On ch=1 n=d#5 v=0
53755 On ch=1 n=a#4 v=0
53762 On ch=1 n=g5 v=49
53765 On ch=1 n=d#5 v=60
53824 On ch=1 n=g5 v=0
53827 On ch=1 n=d#5 v=0
53867 On ch=1 n=d#6 v=0
53886 On ch=1 n=g6 v=0
53922 On ch=1 n=g5 v=41
53927 On ch=1 n=d#5 v=44
54011 Par ch=1 c=64 v=63
54023 Par ch=1 c=64 v=0
54101 On ch=1 n=d#5 v=0
54121 On ch=1 n=c5 v=50
54131 On ch=1 n=a4 v=55
54181 On ch=1 n=g5 v=0
54264 Par ch=1 c=64 v=63
54274 Par ch=1 c=64 v=127
54311 On ch=1 n=f#6 v=70
54460 On ch=1 n=g6 v=71
54486 On ch=1 n=f#6 v=0
54542 On ch=1 n=a4 v=0
54575 On ch=1 n=c5 v=0
54597 On ch=1 n=f#6 v=104
54622 On ch=1 n=g6 v=0
54765 On ch=1 n=d7 v=102
54859 On ch=1 n=f#6 v=0
54909 On ch=1 n=g5 v=74
54912 On ch=1 n=b4 v=72
55004 On ch=1 n=g5 v=0
55013 On ch=1 n=b4 v=0
55055 On ch=1 n=f6 v=93
55056 On ch=1 n=g5 v=67
55061 On ch=1 n=b4 v=54
55062 On ch=1 n=d7 v=0
55093 Par ch=1 c=64 v=63
55105 Par ch=1 c=64 v=0
55115 On ch=1 n=b4 v=0
55118 On ch=1 n=g5 v=0
55199 On ch=1 n=g5 v=62
55203 On ch=1 n=b4 v=63
55256 On ch=1 n=g5 v=0
55297 On ch=1 n=b4 v=0
55348 On ch=1 n=g5 v=51
55365 On ch=1 n=c5 v=47
55495 On ch=1 n=f6 v=0
55498 On ch=1 n=e6 v=64
55601 Par ch=1 c=64 v=63
55617 Par ch=1 c=64 v=127
55646 On ch=1 n=f6 v=83
55686 On ch=1 n=e6 v=0
55798 On ch=1 n=e6 v=99
55830 On ch=1 n=f6 v=0
55832 On ch=1 n=g5 v=0
55925 On ch=1 n=c5 v=0
55975 On ch=1 n=c7 v=86
56011 On ch=1 n=e6 v=0
56134 On ch=1 n=c5 v=71
56140 Par ch=1 c=64 v=63
56141 On ch=1 n=g#4 v=57
56158 Par ch=1 c=64 v=0
56197 On ch=1 n=c5 v=0
56204 On ch=1 n=g#4 v=0
56287 On ch=1 n=d#6 v=80
56291 On ch=1 n=c5 v=66
56295 On ch=1 n=g#4 v=53
56324 On ch=1 n=c7 v=0
56334 On ch=1 n=c5 v=0
56346 On ch=1 n=g#4 v=0
56368 Par ch=1 c=64 v=63
56380 Par ch=1 c=64 v=127
56425 On ch=1 n=c5 v=60
56434 On ch=1 n=g#4 v=51
56474 On ch=1 n=c5 v=0
56476 On ch=1 n=g#4 v=0
56579 On ch=1 n=d#6 v=0
56589 On ch=1 n=g#4 v=57
56600 On ch=1 n=f4 v=59
56696 Par ch=1 c=64 v=63
56718 Par ch=1 c=64 v=0
56753 On ch=1 n=c#6 v=65
56896 On ch=1 n=c6 v=71
56908 On ch=1 n=c#6 v=0
57021 On ch=1 n=c#6 v=78
57033 Par ch=1 c=64 v=63
57042 Par ch=1 c=64 v=127
57051 On ch=1 n=c6 v=0
57090 On ch=1 n=f4 v=0
57157 On ch=1 n=g#4 v=0
57179 On ch=1 n=e6 v=85
57190 On ch=1 n=c#6 v=0
57323 On ch=1 n=f6 v=88
57362 On ch=1 n=e6 v=0
57479 On ch=1 n=g6 v=89
57490 Par ch=1 c=64 v=63
57516 Par ch=1 c=64 v=0
57521 On ch=1 n=f6 v=0
57633 On ch=1 n=g#6 v=91
57675 On ch=1 n=g6 v=0
57808 On ch=1 n=c6 v=77
57813 On ch=1 n=d#5 v=56
57823 On ch=1 n=g4 v=55
57833 On ch=1 n=g#6 v=0
57906 Par ch=1 c=64 v=63
57925 Par ch=1 c=64 v=127
57978 On ch=1 n=e5 v=77
58013 On ch=1 n=d#5 v=0
58121 On ch=1 n=f5 v=78
58131 On ch=1 n=g4 v=0
58145 On ch=1 n=e5 v=0
58190 On ch=1 n=f5 v=0
58274 On ch=1 n=f#5 v=78
58334 On ch=1 n=f#5 v=0
58446 On ch=1 n=c6 v=0
58471 On ch=1 n=b5 v=54
58489 On ch=1 n=g5 v=38
58642 Par ch=1 c=64 v=63
58660 Par ch=1 c=64 v=0
58680 On ch=1 n=d6 v=47
58718 On ch=1 n=b5 v=0
58848 On ch=1 n=d#6 v=61
58875 On ch=1 n=d6 v=0
58953 On ch=1 n=g5 v=0
59040 On ch=1 n=f6 v=41
59058 On ch=1 n=d#6 v=0
59311 On ch=1 n=c4 v=60
59312 On ch=1 n=d#6 v=61
59314 On ch=1 n=f6 v=0
59316 Par ch=1 c=64 v=63
59320 On ch=1 n=g6 v=77
59324 Par ch=1 c=64 v=127
59526 On ch=1 n=c4 v=0
59527 On ch=1 n=c5 v=47
59572 On ch=1 n=c5 v=0
59591 On ch=1 n=d#6 v=0
59669 On ch=1 n=c5 v=49
59706 On ch=1 n=c5 v=0
59802 On ch=1 n=g6 v=0
59803 On ch=1 n=c5 v=59
59808 On ch=1 n=f6 v=73
59810 On ch=1 n=d6 v=70
59840 On ch=1 n=c5 v=0
59944 On ch=1 n=d6 v=0
59964 On ch=1 n=d#6 v=78
59965 On ch=1 n=c5 v=55
59976 On ch=1 n=c6 v=35
59986 On ch=1 n=f6 v=0
60008 On ch=1 n=c5 v=0
60071 On ch=1 n=c6 v=0
60100 On ch=1 n=c5 v=68
60110 On ch=1 n=d#6 v=0
60156 On ch=1 n=c5 v=0
60237 On ch=1 n=c5 v=74
60305 On ch=1 n=c5 v=0
60317 Par ch=1 c=64 v=63
60332 Par ch=1 c=64 v=0
60401 On ch=1 n=c5 v=79
60560 On ch=1 n=g#6 v=100
60564 On ch=1 n=b3 v=76
60571 On ch=1 n=f6 v=82
60574 On ch=1 n=c5 v=0
60638 Par ch=1 c=64 v=63
60650 Par ch=1 c=64 v=127
60753 On ch=1 n=b4 v=55
60775 On ch=1 n=b3 v=0
60813 On ch=1 n=b4 v=0
60884 On ch=1 n=b4 v=65
60893 On ch=1 n=g#6 v=0
60917 On ch=1 n=f6 v=0
60943 On ch=1 n=b4 v=0
61020 On ch=1 n=b4 v=64
61021 On ch=1 n=d#6 v=77
61026 On ch=1 n=g6 v=80
61080 On ch=1 n=b4 v=0
61153 On ch=1 n=d#6 v=0
61174 On ch=1 n=f6 v=72
61178 On ch=1 n=g6 v=0
61178 On ch=1 n=b4 v=59
61182 On ch=1 n=d6 v=48
61208 Par ch=1 c=64 v=63
61217 Par ch=1 c=64 v=0
61235 On ch=1 n=b4 v=0
61315 On ch=1 n=b4 v=63
61360 Par ch=1 c=64 v=63
61364 Par ch=1 c=64 v=127
61366 On ch=1 n=b4 v=0
61376 On ch=1 n=d6 v=0
61427 On ch=1 n=f6 v=0
61462 On ch=1 n=b4 v=68
61496 Par ch=1 c=64 v=63
61501 Par ch=1 c=64 v=0
61507 On ch=1 n=b4 v=0
61589 Par ch=1 c=64 v=63
61593 Par ch=1 c=64 v=127
61599 On ch=1 n=b4 v=68
61654 On ch=1 n=b4 v=0
61767 On ch=1 n=c5 v=64
61784 Par ch=1 c=64 v=63
61802 Par ch=1 c=64 v=0
61919 On ch=1 n=d#6 v=76
61929 On ch=1 n=c6 v=44
61959 Par ch=1 c=64 v=63
61965 Par ch=1 c=64 v=127
62058 On ch=1 n=d#6 v=0
62059 On ch=1 n=c6 v=0
62068 On ch=1 n=f6 v=87
62078 On ch=1 n=d6 v=56
62111 On ch=1 n=c5 v=0
62150 On ch=1 n=d6 v=0
62167 On ch=1 n=f6 v=0
62204 On ch=1 n=g6 v=88
62211 On ch=1 n=d#6 v=84
62287 On ch=1 n=g6 v=0
62297 On ch=1 n=d#6 v=0
62350 On ch=1 n=g#4 v=88
62354 On ch=1 n=d#6 v=86
62356 On ch=1 n=g6 v=83
62424 Par ch=1 c=64 v=63
62434 Par ch=1 c=64 v=0
62484 On ch=1 n=d#6 v=0
62503 On ch=1 n=f6 v=88
62504 On ch=1 n=d6 v=84
62526 On ch=1 n=g6 v=0
62610 On ch=1 n=d6 v=0
62613 On ch=1 n=f6 v=0
62645 Par ch=1 c=64 v=63
62651 Par ch=1 c=64 v=127
62652 On ch=1 n=f6 v=69
62653 On ch=1 n=f#4 v=79
62655 On ch=1 n=d6 v=68
62698 On ch=1 n=g#4 v=0
62803 On ch=1 n=d6 v=0
62804 On ch=1 n=d#6 v=86
62815 On ch=1 n=c6 v=65
62832 On ch=1 n=f6 v=0
62873 On ch=1 n=d#6 v=0
62913 On ch=1 n=c6 v=0
62961 On ch=1 n=d#6 v=76
62965 On ch=1 n=f#4 v=0
62972 On ch=1 n=g4 v=64
62972 On ch=1 n=c6 v=52
62979 Par ch=1 c=64 v=63
62985 Par ch=1 c=64 v=0
63119 On ch=1 n=g3 v=70
63130 On ch=1 n=g4 v=0
63265 On ch=1 n=g4 v=61
63266 On ch=1 n=g3 v=0
63309 On ch=1 n=g4 v=0
63411 On ch=1 n=g4 v=60
63455 On ch=1 n=g4 v=0
63534 On ch=1 n=d#6 v=0
63552 On ch=1 n=c6 v=0
63555 On ch=1 n=g4 v=58
63558 Par ch=1 c=64 v=63
63560 On ch=1 n=d6 v=54
63560 On ch=1 n=b5 v=46
63562 Par ch=1 c=64 v=127
63618 On ch=1 n=b5 v=0
63634 On ch=1 n=d6 v=0
63670 On ch=1 n=g4 v=0
63701 On ch=1 n=f4 v=60
63847 On ch=1 n=d#4 v=62
63857 On ch=1 n=f4 v=0
63987 On ch=1 n=d4 v=66
63991 On ch=1 n=d#4 v=0
64015 Par ch=1 c=64 v=63
64031 Par ch=1 c=64 v=0
64159 On ch=1 n=d4 v=0
64160 On ch=1 n=c4 v=50
64272 Par ch=1 c=64 v=63
64277 Par ch=1 c=64 v=127
64341 On ch=1 n=g6 v=45
64406 On ch=1 n=c4 v=0
64482 On ch=1 n=d#6 v=70
64514 On ch=1 n=g6 v=0
64621 On ch=1 n=b5 v=81
64647 On ch=1 n=d#6 v=0
64782 On ch=1 n=d6 v=78
64797 Par ch=1 c=64 v=63
64830 On ch=1 n=b5 v=0
64837 Par ch=1 c=64 v=0
64917 On ch=1 n=e5 v=69
64927 On ch=1 n=g5 v=49
64960 On ch=1 n=e5 v=0
64961 On ch=1 n=g5 v=0
65077 On ch=1 n=c6 v=97
65082 On ch=1 n=e5 v=74
65082 On ch=1 n=g5 v=68
65098 On ch=1 n=d6 v=0
65128 On ch=1 n=e5 v=0
65133 On ch=1 n=g5 v=0
65229 On ch=1 n=g5 v=82
65231 On ch=1 n=e5 v=88
65259 Par ch=1 c=64 v=63
65265 Par ch=1 c=64 v=127
65285 On ch=1 n=g5 v=0
65304 On ch=1 n=e5 v=0
65335 On ch=1 n=c6 v=0
65399 On ch=1 n=g#5 v=85
65404 On ch=1 n=f5 v=65
65568 On ch=1 n=c7 v=80
65607 Par ch=1 c=64 v=63
65626 Par ch=1 c=64 v=0
65722 On ch=1 n=g#6 v=99
65760 On ch=1 n=c7 v=0
65861 On ch=1 n=e6 v=96
65886 Par ch=1 c=64 v=63
65888 On ch=1 n=f5 v=0
65892 Par ch=1 c=64 v=127
65904 On ch=1 n=g#6 v=0
65916 On ch=1 n=g#5 v=0
66025 On ch=1 n=g6 v=97
66061 On ch=1 n=e6 v=0
66166 On ch=1 n=g#5 v=69
66171 On ch=1 n=c6 v=59
66186 Par ch=1 c=64 v=63
66196 Par ch=1 c=64 v=0
66217 On ch=1 n=g#5 v=0
66217 On ch=1 n=c6 v=0
66328 On ch=1 n=g#5 v=63
66330 On ch=1 n=c6 v=57
66331 On ch=1 n=f#6 v=83
66354 On ch=1 n=g6 v=0
66357 Par ch=1 c=64 v=63
66363 Par ch=1 c=64 v=127
66377 On ch=1 n=g#5 v=0
66378 On ch=1 n=c6 v=0
66478 On ch=1 n=g#5 v=69
66486 On ch=1 n=f#6 v=0
66487 On ch=1 n=c6 v=65
66532 On ch=1 n=g#5 v=0
66534 On ch=1 n=c6 v=0
66605 Par ch=1 c=64 v=63
66628 Par ch=1 c=64 v=127
66650 On ch=1 n=b5 v=65
66660 On ch=1 n=g5 v=51
66782 Par ch=1 c=64 v=63
66790 Par ch=1 c=64 v=0
66796 On ch=1 n=g6 v=64
66819 On ch=1 n=g5 v=0
66826 On ch=1 n=b5 v=0
66873 On ch=1 n=g6 v=0
66945 On ch=1 n=g#5 v=70
67069 On ch=1 n=g#5 v=0
67091 On ch=1 n=d#6 v=72
67096 On ch=1 n=c6 v=64
67157 On ch=1 n=c6 v=0
67167 On ch=1 n=d#6 v=0
67245 On ch=1 n=f5 v=57
67377 On ch=1 n=f5 v=0
67388 On ch=1 n=f6 v=66
67399 On ch=1 n=d6 v=48
67448 On ch=1 n=d6 v=0
67460 On ch=1 n=f6 v=0
67561 On ch=1 n=g5 v=49
67689 On ch=1 n=d6 v=46
67701 On ch=1 n=b5 v=32
67730 On ch=1 n=g5 v=0
67764 On ch=1 n=b5 v=0
67780 On ch=1 n=d6 v=0
67857 On ch=1 n=c5 v=53
68008 On ch=1 n=b5 v=39
68057 Par ch=1 c=64 v=63
68080 Par ch=1 c=64 v=127
68163 On ch=1 n=c6 v=56
68169 On ch=1 n=c5 v=0
68188 On ch=1 n=b5 v=0
68309 On ch=1 n=b5 v=66
68347 On ch=1 n=c6 v=0
68460 On ch=1 n=c6 v=62
68543 On ch=1 n=b5 v=0
68669 On ch=1 n=f#5 v=50
68670 On ch=1 n=d#5 v=42
68691 Par ch=1 c=64 v=63
68729 Par ch=1 c=64 v=127
68813 On ch=1 n=d#5 v=0
68827 On ch=1 n=g5 v=51
68842 On ch=1 n=e5 v=43
68851 On ch=1 n=f#5 v=0
68957 On ch=1 n=f#5 v=60
68963 On ch=1 n=d#5 v=52
69004 On ch=1 n=e5 v=0
69009 On ch=1 n=g5 v=0
69103 On ch=1 n=g5 v=61
69113 On ch=1 n=e5 v=65
69140 On ch=1 n=d#5 v=0
69154 On ch=1 n=f#5 v=0
69224 Par ch=1 c=64 v=63
69249 Par ch=1 c=64 v=0
69263 On ch=1 n=c#6 v=82
69284 Par ch=1 c=64 v=63
69311 On ch=1 n=c6 v=0
69312 Par ch=1 c=64 v=127
69407 On ch=1 n=c6 v=81
69417 Par ch=1 c=64 v=63
69456 On ch=1 n=c#6 v=0
69481 Par ch=1 c=64 v=127
69545 On ch=1 n=c#6 v=85
69619 On ch=1 n=c6 v=0
69692 Par ch=1 c=64 v=63
69699 On ch=1 n=c6 v=68
69736 On ch=1 n=c#6 v=0
69740 Par ch=1 c=64 v=127
69776 On ch=1 n=e5 v=0
69782 On ch=1 n=g5 v=0
69870 On ch=1 n=g5 v=55
69889 On ch=1 n=e5 v=48
70010 On ch=1 n=e5 v=0
70017 On ch=1 n=g#5 v=60
70029 On ch=1 n=f5 v=59
70032 On ch=1 n=g5 v=0
70144 On ch=1 n=g#5 v=0
70145 On ch=1 n=g5 v=68
70155 On ch=1 n=e5 v=67
70167 On ch=1 n=f5 v=0
70296 On ch=1 n=g#5 v=78
70298 On ch=1 n=e5 v=0
70299 On ch=1 n=f5 v=79
70326 On ch=1 n=g5 v=0
70448 On ch=1 n=e6 v=97
70476 Par ch=1 c=64 v=63
70481 On ch=1 n=c6 v=0
70496 Par ch=1 c=64 v=0
70586 On ch=1 n=f6 v=94
70617 On ch=1 n=e6 v=0
70633 Par ch=1 c=64 v=63
70644 Par ch=1 c=64 v=127
70733 On ch=1 n=g#6 v=93
70775 On ch=1 n=f6 v=0
70908 On ch=1 n=b5 v=88
70924 On ch=1 n=g#6 v=0
70959 On ch=1 n=g#5 v=0
71014 On ch=1 n=f5 v=0
71060 On ch=1 n=f#5 v=87
71068 On ch=1 n=d#5 v=79
71112 Par ch=1 c=64 v=63
71129 Par ch=1 c=64 v=127
71214 On ch=1 n=d5 v=63
71219 On ch=1 n=f5 v=59
71230 On ch=1 n=d#5 v=0
71257 On ch=1 n=f#5 v=0
71295 Par ch=1 c=64 v=63
71359 Par ch=1 c=64 v=127
71362 On ch=1 n=d#5 v=65
71362 On ch=1 n=f#5 v=67
71378 On ch=1 n=d5 v=0
71408 On ch=1 n=f5 v=0
71517 On ch=1 n=f5 v=61
71523 On ch=1 n=d#5 v=0
71525 On ch=1 n=d5 v=39
71554 On ch=1 n=f#5 v=0
71615 Par ch=1 c=64 v=63
71634 Par ch=1 c=64 v=0
71664 On ch=1 n=b5 v=0
71680 On ch=1 n=a5 v=52
71690 Par ch=1 c=64 v=63
71711 Par ch=1 c=64 v=127
71826 Par ch=1 c=64 v=63
71838 On ch=1 n=a#5 v=67
71871 On ch=1 n=a5 v=0
71895 Par ch=1 c=64 v=127
71977 On ch=1 n=a5 v=76
71997 On ch=1 n=a#5 v=0
72116 On ch=1 n=a#5 v=85
72155 On ch=1 n=a5 v=0
72167 On ch=1 n=f5 v=0
72259 On ch=1 n=d5 v=0
72260 On ch=1 n=g5 v=79
72264 On ch=1 n=e5 v=71
72415 On ch=1 n=e5 v=0
72416 On ch=1 n=g#5 v=89
72425 On ch=1 n=f5 v=59
72431 On ch=1 n=g5 v=0
72496 Par ch=1 c=64 v=63
72507 Par ch=1 c=64 v=0
72558 Par ch=1 c=64 v=63
72559 On ch=1 n=g5 v=76
72563 On ch=1 n=e5 v=79
72571 Par ch=1 c=64 v=127
72589 On ch=1 n=g#5 v=0
72589 On ch=1 n=f5 v=0
72737 On ch=1 n=g#5 v=76
72740 On ch=1 n=f5 v=67
72750 On ch=1 n=e5 v=0
72760 Par ch=1 c=64 v=63
72761 On ch=1 n=g5 v=0
72779 Par ch=1 c=64 v=0
72839 Par ch=1 c=64 v=63
72849 Par ch=1 c=64 v=127
72922 On ch=1 n=c#6 v=80
72949 On ch=1 n=a#5 v=0
73088 On ch=1 n=c#6 v=0
73091 On ch=1 n=d6 v=87
73240 On ch=1 n=d#6 v=98
73264 On ch=1 n=d6 v=0
73334 Par ch=1 c=64 v=63
73350 Par ch=1 c=64 v=0
73380 On ch=1 n=e6 v=98
73406 On ch=1 n=d#6 v=0
73452 Par ch=1 c=64 v=63
73458 Par ch=1 c=64 v=127
73551 On ch=1 n=f6 v=104
73590 On ch=1 n=e6 v=0
73666 On ch=1 n=f5 v=0
73667 On ch=1 n=g#5 v=0
73724 On ch=1 n=f#6 v=101
73766 On ch=1 n=f6 v=0
73824 Par ch=1 c=64 v=63
73847 Par ch=1 c=64 v=0
73935 Par ch=1 c=64 v=63
73938 On ch=1 n=g6 v=82
73942 Par ch=1 c=64 v=127
73984 On ch=1 n=f#6 v=0
74270 On ch=1 n=a#5 v=45
74275 On ch=1 n=a#6 v=101
74281 On ch=1 n=d5 v=49
74282 On ch=1 n=f5 v=55
74319 On ch=1 n=g6 v=0
74506 Par ch=1 c=64 v=63
74549 Par ch=1 c=64 v=0
74804 Par ch=1 c=64 v=63
74810 Par ch=1 c=64 v=127
74995 On ch=1 n=a6 v=71
75150 On ch=1 n=a#6 v=0
75255 On ch=1 n=g#6 v=45
75326 On ch=1 n=a6 v=0
75435 Par ch=1 c=64 v=63
75473 Par ch=1 c=64 v=0
75676 Par ch=1 c=64 v=63
75686 Par ch=1 c=64 v=127
75825 On ch=1 n=g#6 v=0
75840 On ch=1 n=a#5 v=0
75846 On ch=1 n=f5 v=0
75858 On ch=1 n=d5 v=0
75900 Par ch=1 c=64 v=63
75933 Par ch=1 c=64 v=0
76468 On ch=1 n=e5 v=47
76488 Par ch=1 c=64 v=63
76523 Par ch=1 c=64 v=127
76647 On ch=1 n=f5 v=60
76693 On ch=1 n=e5 v=0
76802 On ch=1 n=g5 v=75
76846 On ch=1 n=f5 v=0
76941 On ch=1 n=g#5 v=83
76975 On ch=1 n=g5 v=0
77062 Par ch=1 c=64 v=63
77091 On ch=1 n=g5 v=80
77101 Par ch=1 c=64 v=0
77116 On ch=1 n=g#5 v=0
77247 On ch=1 n=g#5 v=76
77279 On ch=1 n=g5 v=0
77432 On ch=1 n=a5 v=70
77471 Par ch=1 c=64 v=63
77483 Par ch=1 c=64 v=127
77516 On ch=1 n=g#5 v=0
77675 On ch=1 n=a5 v=0
77683 On ch=1 n=a#5 v=86
77691 On ch=1 n=d#4 v=49
77699 On ch=1 n=g5 v=43
77707 On ch=1 n=d#3 v=40
77887 Par ch=1 c=64 v=63
77914 Par ch=1 c=64 v=0
78142 Par ch=1 c=64 v=63
78146 Par ch=1 c=64 v=127
78264 On ch=1 n=g5 v=0
78529 On ch=1 n=a#5 v=0
78530 On ch=1 n=g5 v=57
78534 On ch=1 n=d#5 v=63
78673 Par ch=1 c=64 v=63
78740 Par ch=1 c=64 v=127
78886 On ch=1 n=f5 v=71
78887 On ch=1 n=d#5 v=0
78894 On ch=1 n=a#4 v=23
78900 On ch=1 n=a#3 v=60
78903 On ch=1 n=g5 v=0
78912 On ch=1 n=d#4 v=0
78926 On ch=1 n=d#3 v=0
78926 Par ch=1 c=64 v=63
78966 Par ch=1 c=64 v=127
79239 On ch=1 n=a#4 v=0
79251 On ch=1 n=d#4 v=46
79252 On ch=1 n=d#5 v=70
79260 On ch=1 n=g4 v=38
79270 On ch=1 n=f5 v=0
79317 On ch=1 n=a#3 v=0
79362 Par ch=1 c=64 v=63
79395 Par ch=1 c=64 v=0
79609 On ch=1 n=a#4 v=63
79629 On ch=1 n=d#5 v=0
79668 Par ch=1 c=64 v=63
79680 Par ch=1 c=64 v=127
79931 On ch=1 n=g4 v=0
79961 On ch=1 n=d#5 v=89
79991 On ch=1 n=d#4 v=0
80007 On ch=1 n=a#4 v=0
80310 On ch=1 n=a#3 v=62
80314 On ch=1 n=d#5 v=0
80318 On ch=1 n=f5 v=87
80329 On ch=1 n=d5 v=52
80348 Par ch=1 c=64 v=63
80360 Par ch=1 c=64 v=0
80437 Par ch=1 c=64 v=63
80445 Par ch=1 c=64 v=127
80523 On ch=1 n=d5 v=0
80552 On ch=1 n=f5 v=0
80658 On ch=1 n=a#3 v=0
80689 On ch=1 n=g5 v=86
80690 On ch=1 n=d#5 v=78
80693 On ch=1 n=d#4 v=61
80788 Par ch=1 c=64 v=63
80808 Par ch=1 c=64 v=0
81043 On ch=1 n=g#5 v=90
81055 On ch=1 n=c4 v=68
81063 Par ch=1 c=64 v=63
81070 Par ch=1 c=64 v=127
81082 On ch=1 n=d#4 v=0
81092 On ch=1 n=g5 v=0
81412 On ch=1 n=g3 v=65
81415 On ch=1 n=a#5 v=89
81461 On ch=1 n=g#5 v=0
81467 On ch=1 n=c4 v=0
81508 Par ch=1 c=64 v=63
81532 Par ch=1 c=64 v=0
81766 On ch=1 n=g#3 v=68
81771 On ch=1 n=c6 v=80
81794 On ch=1 n=a#5 v=0
81838 On ch=1 n=g3 v=0
82028 Par ch=1 c=64 v=63
82036 Par ch=1 c=64 v=127
82108 On ch=1 n=d#5 v=0
82160 On ch=1 n=c6 v=0
82163 On ch=1 n=g5 v=73
82167 On ch=1 n=d#5 v=46
82168 On ch=1 n=a#3 v=65
82185 On ch=1 n=g#3 v=0
82321 Par ch=1 c=64 v=63
82344 Par ch=1 c=64 v=0
82548 Par ch=1 c=64 v=63
82555 Par ch=1 c=64 v=127
82698 On ch=1 n=g#5 v=67
82746 On ch=1 n=g5 v=0
82836 On ch=1 n=d#5 v=0
82870 On ch=1 n=d5 v=46
82871 On ch=1 n=f5 v=60
82874 On ch=1 n=g#5 v=0
82929 Par ch=1 c=64 v=63
82940 Par ch=1 c=64 v=0
83014 Par ch=1 c=64 v=63
83022 Par ch=1 c=64 v=127
83031 On ch=1 n=g5 v=60
83082 On ch=1 n=f5 v=0
83102 On ch=1 n=a#3 v=0
83131 On ch=1 n=d5 v=0
83199 On ch=1 n=g#5 v=76
83225 On ch=1 n=g5 v=0
83345 On ch=1 n=g#5 v=0
83371 On ch=1 n=a5 v=84
83621 On ch=1 n=a#6 v=96
83621 On ch=1 n=a#5 v=80
83623 On ch=1 n=g5 v=48
83658 On ch=1 n=a5 v=0
83712 Par ch=1 c=64 v=63
83738 Par ch=1 c=64 v=0
83983 Par ch=1 c=64 v=63
83987 Par ch=1 c=64 v=127
84388 On ch=1 n=g6 v=75
84398 On ch=1 n=d#5 v=53
84440 Par ch=1 c=64 v=63
84441 On ch=1 n=a#6 v=0
84449 On ch=1 n=g5 v=0
84453 Par ch=1 c=64 v=0
84501 Par ch=1 c=64 v=63
84517 Par ch=1 c=64 v=127
84772 On ch=1 n=f6 v=54
84778 On ch=1 n=a#4 v=40
84787 Par ch=1 c=64 v=63
84788 On ch=1 n=g6 v=0
84855 Par ch=1 c=64 v=127
84862 On ch=1 n=d#5 v=0
85128 Par ch=1 c=64 v=63
85129 On ch=1 n=d#6 v=63
85131 On ch=1 n=g4 v=36
85142 On ch=1 n=f6 v=0
85143 Par ch=1 c=64 v=0
85194 On ch=1 n=a#4 v=0
85205 Par ch=1 c=64 v=63
85227 Par ch=1 c=64 v=0
85279 On ch=1 n=g4 v=0
85282 On ch=1 n=d#6 v=0
85310 On ch=1 n=a#5 v=0
85496 On ch=1 n=f6 v=59
85499 On ch=1 n=a#4 v=42
85506 Par ch=1 c=64 v=63
85510 On ch=1 n=d6 v=46
85512 Par ch=1 c=64 v=127
85593 On ch=1 n=a#4 v=0
85594 On ch=1 n=d6 v=0
85614 On ch=1 n=f6 v=0
85624 Par ch=1 c=64 v=63
85634 Par ch=1 c=64 v=0
85830 Par ch=1 c=64 v=63
85839 Par ch=1 c=64 v=127
85849 On ch=1 n=d#5 v=57
85854 On ch=1 n=g6 v=59
85862 On ch=1 n=d#6 v=46
85965 On ch=1 n=d#5 v=0
85971 On ch=1 n=d#6 v=0
85977 Par ch=1 c=64 v=63
85985 Par ch=1 c=64 v=0
85993 On ch=1 n=g6 v=0
86201 On ch=1 n=g#6 v=75
86204 On ch=1 n=d#6 v=49
86208 Par ch=1 c=64 v=63
86217 On ch=1 n=c5 v=59
86225 Par ch=1 c=64 v=127
86317 On ch=1 n=d#6 v=0
86326 On ch=1 n=c5 v=0
86345 On ch=1 n=g#6 v=0
86415 Par ch=1 c=64 v=63
86425 Par ch=1 c=64 v=0
86562 Par ch=1 c=64 v=63
86578 Par ch=1 c=64 v=127
86579 On ch=1 n=a#6 v=83
86598 On ch=1 n=g4 v=41
86601 On ch=1 n=d#6 v=41
86733 On ch=1 n=d#6 v=0
86796 On ch=1 n=a#6 v=0
87012 On ch=1 n=b6 v=69
87028 On ch=1 n=f5 v=33
87029 On ch=1 n=g#4 v=43
87055 On ch=1 n=g4 v=0
87072 Par ch=1 c=64 v=63
87083 Par ch=1 c=64 v=0
87127 On ch=1 n=c7 v=77
87139 On ch=1 n=b6 v=0
87146 Par ch=1 c=64 v=63
87158 Par ch=1 c=64 v=127
87219 On ch=1 n=g#6 v=81
87235 On ch=1 n=c7 v=0
87267 On ch=1 n=f5 v=0
87295 On ch=1 n=f6 v=90
87309 On ch=1 n=g#6 v=0
87394 On ch=1 n=d#6 v=94
87406 On ch=1 n=f6 v=0
87406 On ch=1 n=a#4 v=59
87407 On ch=1 n=g5 v=37
87440 On ch=1 n=g#4 v=0
87440 Par ch=1 c=64 v=63
87450 Par ch=1 c=64 v=0
87541 Par ch=1 c=64 v=63
87548 Par ch=1 c=64 v=127
87595 On ch=1 n=g5 v=0
87764 On ch=1 n=d#6 v=0
87773 On ch=1 n=g6 v=69
87774 On ch=1 n=g#5 v=53
87810 Par ch=1 c=64 v=63
87821 Par ch=1 c=64 v=0
87865 On ch=1 n=f6 v=84
87866 Par ch=1 c=64 v=63
87878 Par ch=1 c=64 v=127
87897 On ch=1 n=g6 v=0
87949 On ch=1 n=e6 v=92
87977 On ch=1 n=f6 v=0
87987 On ch=1 n=g#5 v=0
88013 On ch=1 n=f6 v=90
88039 On ch=1 n=e6 v=0
88088 On ch=1 n=f6 v=0
88124 On ch=1 n=f6 v=74
88129 On ch=1 n=g#5 v=50
88136 On ch=1 n=d6 v=65
88141 On ch=1 n=d#5 v=56
88150 On ch=1 n=a#4 v=0
88210 Par ch=1 c=64 v=63
88231 Par ch=1 c=64 v=0
88535 Par ch=1 c=64 v=63
88543 Par ch=1 c=64 v=127
89018 On ch=1 n=d#6 v=35
89021 On ch=1 n=f6 v=0
89021 On ch=1 n=g5 v=33
89049 On ch=1 n=d6 v=0
89051 On ch=1 n=g#5 v=0
89134 Par ch=1 c=64 v=63
89170 Par ch=1 c=64 v=0
89334 Par ch=1 c=64 v=63
89465 Par ch=1 c=64 v=0
89547 On ch=1 n=g5 v=0
89556 On ch=1 n=d#6 v=0
89565 On ch=1 n=d#5 v=0
89694 Par ch=1 c=64 v=63
90000 Par ch=1 c=64 v=127
90104 On ch=1 n=g#4 v=29
90124 On ch=1 n=c6 v=59
90292 On ch=1 n=d#5 v=39
90447 On ch=1 n=d#5 v=0
90454 On ch=1 n=c5 v=48
90601 On ch=1 n=d#5 v=52
90637 On ch=1 n=c5 v=0
90746 On ch=1 n=d#6 v=63
90754 On ch=1 n=a#4 v=64
90764 On ch=1 n=d#5 v=0
90778 On ch=1 n=c6 v=0
90813 On ch=1 n=g#4 v=0
90856 Par ch=1 c=64 v=63
90884 Par ch=1 c=64 v=0
90905 On ch=1 n=c#6 v=70
90908 On ch=1 n=d#5 v=50
90930 On ch=1 n=d#6 v=0
91055 On ch=1 n=a#5 v=75
91066 On ch=1 n=c#5 v=71
91074 On ch=1 n=d#5 v=0
91084 On ch=1 n=c#6 v=0
91099 Par ch=1 c=64 v=63
91107 Par ch=1 c=64 v=127
91200 On ch=1 n=g5 v=74
91206 On ch=1 n=d#5 v=54
91213 On ch=1 n=a#4 v=0
91239 On ch=1 n=a#5 v=0
91248 On ch=1 n=c#5 v=0
91357 On ch=1 n=g#5 v=76
91362 On ch=1 n=d#5 v=0
91362 On ch=1 n=c5 v=49
91391 Par ch=1 c=64 v=63
91394 On ch=1 n=g5 v=0
91403 Par ch=1 c=64 v=0
91478 Par ch=1 c=64 v=63
91490 Par ch=1 c=64 v=127
91511 On ch=1 n=d#5 v=68
91531 On ch=1 n=c5 v=0
91664 On ch=1 n=g#4 v=70
91674 On ch=1 n=d#5 v=0
91705 Par ch=1 c=64 v=63
91761 Par ch=1 c=64 v=127
91821 On ch=1 n=g#5 v=0
91821 On ch=1 n=a#5 v=76
91833 On ch=1 n=d#5 v=48
91858 On ch=1 n=g#4 v=0
91889 On ch=1 n=c6 v=69
91896 On ch=1 n=a#5 v=0
91964 On ch=1 n=a#5 v=76
91967 On ch=1 n=d#5 v=0
91972 On ch=1 n=g4 v=56
91986 On ch=1 n=c6 v=0
92019 Par ch=1 c=64 v=63
92034 Par ch=1 c=64 v=0
92104 On ch=1 n=d#5 v=53
92109 On ch=1 n=g4 v=0
92109 Par ch=1 c=64 v=63
92120 Par ch=1 c=64 v=127
92233 On ch=1 n=a#5 v=0
92252 On ch=1 n=d#4 v=64
92263 On ch=1 n=d#5 v=0
92363 Par ch=1 c=64 v=63
92383 Par ch=1 c=64 v=0
92403 On ch=1 n=d#4 v=0
92408 On ch=1 n=d#5 v=54
92551 Par ch=1 c=64 v=63
92560 Par ch=1 c=64 v=127
92584 On ch=1 n=d#5 v=0
92585 On ch=1 n=g4 v=32
92596 On ch=1 n=c#6 v=87
92757 On ch=1 n=d#5 v=57
92836 On ch=1 n=g4 v=0
92908 On ch=1 n=a#4 v=63
92912 On ch=1 n=d#5 v=0
93049 On ch=1 n=d#5 v=80
93076 On ch=1 n=a#4 v=0
93189 On ch=1 n=f6 v=79
93196 On ch=1 n=g#4 v=56
93205 Par ch=1 c=64 v=63
93216 Par ch=1 c=64 v=0
93219 On ch=1 n=d#5 v=0
93234 On ch=1 n=c#6 v=0
93299 Par ch=1 c=64 v=63
93306 Par ch=1 c=64 v=127
93352 On ch=1 n=d#5 v=55
93355 On ch=1 n=d#6 v=94
93395 On ch=1 n=f6 v=0
93496 On ch=1 n=c#6 v=92
93504 On ch=1 n=d#5 v=0
93506 On ch=1 n=c5 v=63
93533 On ch=1 n=g#4 v=0
93543 On ch=1 n=d#6 v=0
93634 On ch=1 n=d#5 v=75
93639 On ch=1 n=c6 v=90
93649 On ch=1 n=c5 v=0
93671 On ch=1 n=c#6 v=0
93789 On ch=1 n=a#5 v=93
93796 On ch=1 n=d#5 v=0
93797 On ch=1 n=g4 v=51
93800 Par ch=1 c=64 v=63
93811 Par ch=1 c=64 v=0
93820 On ch=1 n=c6 v=0
93881 Par ch=1 c=64 v=63
93892 Par ch=1 c=64 v=127
93942 On ch=1 n=d#5 v=72
93961 On ch=1 n=g4 v=0
94099 On ch=1 n=d#4 v=74
94100 On ch=1 n=d#5 v=0
94142 Par ch=1 c=64 v=63
94203 Par ch=1 c=64 v=127
94252 On ch=1 n=d#5 v=55
94256 On ch=1 n=d#4 v=0
94259 On ch=1 n=c6 v=76
94267 On ch=1 n=a#5 v=0
94334 On ch=1 n=c#6 v=78
94339 On ch=1 n=c6 v=0
94402 On ch=1 n=c#6 v=0
94414 On ch=1 n=g#4 v=58
94416 On ch=1 n=c6 v=76
94420 On ch=1 n=d#5 v=0
94421 Par ch=1 c=64 v=63
94431 Par ch=1 c=64 v=0
94519 Par ch=1 c=64 v=63
94530 Par ch=1 c=64 v=127
94557 On ch=1 n=d#5 v=63
94576 On ch=1 n=g#4 v=0
94660 On ch=1 n=c6 v=0
94720 On ch=1 n=c5 v=60
94731 On ch=1 n=d#5 v=0
94861 On ch=1 n=d#5 v=72
94866 On ch=1 n=c5 v=0
95002 On ch=1 n=d#5 v=0
95034 On ch=1 n=a#4 v=50
95053 On ch=1 n=c7 v=93
95168 Par ch=1 c=64 v=63
95182 Par ch=1 c=64 v=0
95236 Par ch=1 c=64 v=63
95247 Par ch=1 c=64 v=127
95251 On ch=1 n=g5 v=62
95386 On ch=1 n=e5 v=71
95427 On ch=1 n=g5 v=0
95521 On ch=1 n=e6 v=91
95524 On ch=1 n=g5 v=70
95525 On ch=1 n=c7 v=0
95548 On ch=1 n=e5 v=0
95586 On ch=1 n=a#4 v=0
95667 On ch=1 n=f6 v=90
95678 On ch=1 n=g#4 v=66
95681 On ch=1 n=g5 v=0
95695 On ch=1 n=e6 v=0
95722 Par ch=1 c=64 v=63
95746 Par ch=1 c=64 v=0
95792 On ch=1 n=f6 v=0
95820 On ch=1 n=g6 v=84
95825 On ch=1 n=f5 v=57
95841 On ch=1 n=g#4 v=0
95915 On ch=1 n=g6 v=0
95969 On ch=1 n=g#6 v=97
95973 On ch=1 n=c5 v=58
95974 On ch=1 n=f5 v=0
95994 Par ch=1 c=64 v=63
96003 Par ch=1 c=64 v=127
96084 On ch=1 n=g#6 v=0
96117 Par ch=1 c=64 v=63
96121 On ch=1 n=a6 v=102
96128 On ch=1 n=f5 v=63
96132 On ch=1 n=c5 v=0
96144 Par ch=1 c=64 v=127
96266 On ch=1 n=a6 v=0
96301 On ch=1 n=g#4 v=57
96311 On ch=1 n=a#6 v=95
96315 On ch=1 n=f5 v=0
96375 Par ch=1 c=64 v=63
96429 Par ch=1 c=64 v=127
96470 On ch=1 n=f5 v=49
96600 On ch=1 n=d5 v=68
96619 On ch=1 n=f5 v=0
96741 On ch=1 n=d6 v=86
96744 On ch=1 n=a#6 v=0
96758 On ch=1 n=f5 v=57
96764 On ch=1 n=d5 v=0
96765 On ch=1 n=g#4 v=0
96883 On ch=1 n=f5 v=0
96888 On ch=1 n=d#6 v=93
96898 On ch=1 n=g4 v=59
96902 Par ch=1 c=64 v=63
96910 Par ch=1 c=64 v=0
96921 On ch=1 n=d6 v=0
97035 On ch=1 n=d#5 v=52
97042 On ch=1 n=f6 v=80
97044 Par ch=1 c=64 v=63
97051 Par ch=1 c=64 v=127
97056 On ch=1 n=d#6 v=0
97062 On ch=1 n=g4 v=0
97141 On ch=1 n=f6 v=0
97176 Par ch=1 c=64 v=63
97186 On ch=1 n=a#4 v=64
97190 On ch=1 n=d#5 v=0
97190 On ch=1 n=f#6 v=81
97195 Par ch=1 c=64 v=127
97314 On ch=1 n=f#6 v=0
97328 On ch=1 n=g6 v=82
97333 On ch=1 n=d#5 v=55
97345 On ch=1 n=a#4 v=0
97402 Par ch=1 c=64 v=63
97408 Par ch=1 c=64 v=0
97466 On ch=1 n=g6 v=0
97471 Par ch=1 c=64 v=63
97478 Par ch=1 c=64 v=127
97489 On ch=1 n=g#4 v=57
97499 On ch=1 n=g6 v=80
97530 On ch=1 n=d#5 v=0
97571 Par ch=1 c=64 v=63
97580 Par ch=1 c=64 v=0
97679 On ch=1 n=c6 v=72
97681 On ch=1 n=f5 v=55
97699 On ch=1 n=g6 v=0
97833 On ch=1 n=c5 v=63
97840 On ch=1 n=g#6 v=90
97866 On ch=1 n=f5 v=0
97881 On ch=1 n=c6 v=0
97969 Par ch=1 c=64 v=63
97973 Par ch=1 c=64 v=127
97985 On ch=1 n=f6 v=97
97989 On ch=1 n=f5 v=58
98016 On ch=1 n=g#6 v=0
98019 On ch=1 n=c5 v=0
98091 On ch=1 n=f6 v=0
98123 On ch=1 n=f6 v=81
98130 On ch=1 n=a#4 v=74
98138 On ch=1 n=f5 v=0
98150 Par ch=1 c=64 v=63
98159 Par ch=1 c=64 v=0
98169 On ch=1 n=g#4 v=0
98193 Par ch=1 c=64 v=63
98203 Par ch=1 c=64 v=127
98275 On ch=1 n=d#6 v=89
98279 On ch=1 n=g5 v=56
98315 On ch=1 n=f6 v=0
98319 On ch=1 n=a#4 v=0
98390 On ch=1 n=d#6 v=0
98410 On ch=1 n=a#4 v=75
98418 On ch=1 n=d#6 v=88
98419 On ch=1 n=g5 v=0
98525 Par ch=1 c=64 v=63
98535 Par ch=1 c=64 v=0
98569 On ch=1 n=g#5 v=63
98570 On ch=1 n=d6 v=86
98597 Par ch=1 c=64 v=63
98606 Par ch=1 c=64 v=127
98616 On ch=1 n=d#6 v=0
98730 On ch=1 n=g#5 v=0
98745 On ch=1 n=d#6 v=85
98748 On ch=1 n=a#4 v=0
98753 On ch=1 n=d#5 v=56
98755 On ch=1 n=g5 v=54
98756 On ch=1 n=d6 v=0
98827 Par ch=1 c=64 v=63
98845 Par ch=1 c=64 v=0
98898 On ch=1 n=d6 v=88
98941 Par ch=1 c=64 v=63
98947 On ch=1 n=d#6 v=0
98953 Par ch=1 c=64 v=127
99041 On ch=1 n=d#6 v=88
99069 On ch=1 n=d6 v=0
99189 On ch=1 n=f6 v=61
99217 On ch=1 n=d#6 v=0
99336 Par ch=1 c=64 v=63
99343 On ch=1 n=d#6 v=69
99362 Par ch=1 c=64 v=0
99367 On ch=1 n=f6 v=0
99484 On ch=1 n=d6 v=57
99487 On ch=1 n=d#6 v=0
99656 On ch=1 n=c#6 v=62
99666 On ch=1 n=d6 v=0
99759 On ch=1 n=d#5 v=0
99791 On ch=1 n=g5 v=0
99818 Par ch=1 c=64 v=63
99823 Par ch=1 c=64 v=127
99834 On ch=1 n=a#5 v=61
99852 On ch=1 n=c#6 v=0
100025 On ch=1 n=a#5 v=0
100060 On ch=1 n=d#5 v=45
100069 On ch=1 n=c6 v=65
100079 On ch=1 n=a5 v=45
100131 Par ch=1 c=64 v=63
100187 Par ch=1 c=64 v=127
100256 On ch=1 n=f#5 v=49
100311 On ch=1 n=d#5 v=0
100397 On ch=1 n=d#5 v=53
100411 On ch=1 n=f#5 v=0
100548 On ch=1 n=f#5 v=53
100579 On ch=1 n=d#5 v=0
100694 On ch=1 n=d#5 v=57
100703 On ch=1 n=f#5 v=0
100704 On ch=1 n=c6 v=0
100714 On ch=1 n=b5 v=59
100763 Par ch=1 c=64 v=63
100834 Par ch=1 c=64 v=127
100876 On ch=1 n=f5 v=43
100879 On ch=1 n=c6 v=73
100889 On ch=1 n=b5 v=0
100931 On ch=1 n=d#5 v=0
101017 On ch=1 n=c#6 v=85
101025 On ch=1 n=d#5 v=60
101047 On ch=1 n=f5 v=0
101066 On ch=1 n=c6 v=0
101147 On ch=1 n=c6 v=88
101157 On ch=1 n=f5 v=71
101173 On ch=1 n=c#6 v=0
101178 On ch=1 n=d#5 v=0
101210 On ch=1 n=a5 v=0
101311 On ch=1 n=d5 v=45
101317 On ch=1 n=f5 v=0
101318 On ch=1 n=f6 v=88
101326 On ch=1 n=g#5 v=53
101392 On ch=1 n=c6 v=0
101409 Par ch=1 c=64 v=63
101421 Par ch=1 c=64 v=0
101479 On ch=1 n=f5 v=39
101483 Par ch=1 c=64 v=63
101493 Par ch=1 c=64 v=127
101529 On ch=1 n=d5 v=0
101645 On ch=1 n=a#5 v=73
101652 On ch=1 n=f6 v=0
101652 On ch=1 n=d5 v=42
101667 On ch=1 n=f5 v=0
101799 On ch=1 n=f5 v=41
101805 On ch=1 n=d5 v=0
101878 On ch=1 n=g#5 v=0
101990 On ch=1 n=a5 v=66
101990 On ch=1 n=c#5 v=54
101999 On ch=1 n=g5 v=40
102007 On ch=1 n=f5 v=0
102025 On ch=1 n=a#5 v=0
102041 Par ch=1 c=64 v=63
102107 Par ch=1 c=64 v=127
102146 On ch=1 n=a#5 v=83
102150 On ch=1 n=d#5 v=65
102178 On ch=1 n=a5 v=0
102188 On ch=1 n=c#5 v=0
102284 On ch=1 n=c6 v=84
102289 On ch=1 n=c#5 v=69
102320 On ch=1 n=a#5 v=0
102320 On ch=1 n=d#5 v=0
102429 On ch=1 n=a#5 v=99
102433 On ch=1 n=d#5 v=73
102452 On ch=1 n=g5 v=0
102460 On ch=1 n=c#5 v=0
102475 On ch=1 n=c6 v=0
102589 On ch=1 n=c5 v=59
102596 On ch=1 n=d#6 v=90
102600 On ch=1 n=d#5 v=0
102604 On ch=1 n=f#5 v=69
102610 On ch=1 n=a#5 v=0
102663 Par ch=1 c=64 v=63
102673 Par ch=1 c=64 v=0
102742 Par ch=1 c=64 v=63
102751 On ch=1 n=d#5 v=68
102752 Par ch=1 c=64 v=127
102776 On ch=1 n=c5 v=0
102896 On ch=1 n=g#5 v=85
102899 On ch=1 n=d#6 v=0
102910 On ch=1 n=c5 v=54
102919 On ch=1 n=d#5 v=0
102958 Par ch=1 c=64 v=63
103009 Par ch=1 c=64 v=127
103046 On ch=1 n=d#5 v=63
103065 On ch=1 n=c5 v=0
103124 On ch=1 n=f#5 v=0
103202 On ch=1 n=f5 v=58
103204 Par ch=1 c=64 v=63
103210 On ch=1 n=c#5 v=61
103228 On ch=1 n=d#5 v=0
103244 Par ch=1 c=64 v=127
103313 On ch=1 n=f5 v=0
103352 On ch=1 n=g#5 v=0
103386 On ch=1 n=c#5 v=0
103391 On ch=1 n=a#5 v=81
103398 On ch=1 n=g5 v=58
103536 On ch=1 n=g5 v=0
103546 On ch=1 n=a#5 v=0
103546 On ch=1 n=a#4 v=64
103553 On ch=1 n=c6 v=80
103553 On ch=1 n=g#5 v=60
103557 Par ch=1 c=64 v=63
103582 Par ch=1 c=64 v=0
103625 Par ch=1 c=64 v=63
103654 Par ch=1 c=64 v=127
103694 On ch=1 n=c#6 v=86
103702 On ch=1 n=a#5 v=74
103707 On ch=1 n=g#5 v=0
103708 On ch=1 n=c6 v=0
103791 On ch=1 n=a#4 v=0
103835 On ch=1 n=a#5 v=0
103857 On ch=1 n=c#6 v=0
103860 On ch=1 n=c6 v=85
103867 On ch=1 n=g#5 v=54
103870 On ch=1 n=d#5 v=58
103899 Par ch=1 c=64 v=63
103917 Par ch=1 c=64 v=0
104008 Par ch=1 c=64 v=63
104017 Par ch=1 c=64 v=127
104018 On ch=1 n=d5 v=69
104038 On ch=1 n=d#5 v=0
104176 On ch=1 n=d#5 v=71
104209 On ch=1 n=d5 v=0
104313 On ch=1 n=d5 v=65
104325 On ch=1 n=d#5 v=0
104461 On ch=1 n=g#5 v=0
104466 On ch=1 n=g5 v=34
104467 On ch=1 n=d#5 v=57
104467 On ch=1 n=a#5 v=57
104473 On ch=1 n=d5 v=0
104514 On ch=1 n=c6 v=0
104628 On ch=1 n=a#4 v=53
104680 On ch=1 n=d#5 v=0
104724 Par ch=1 c=64 v=63
104789 On ch=1 n=g4 v=49
104793 On ch=1 n=a#4 v=0
104796 Par ch=1 c=64 v=127
104816 On ch=1 n=g5 v=0
104890 On ch=1 n=a#5 v=0
104960 On ch=1 n=d#4 v=54
105035 On ch=1 n=g4 v=0
105180 On ch=1 n=g#6 v=80
105180 On ch=1 n=f4 v=49
105190 On ch=1 n=d#4 v=0
105282 Par ch=1 c=64 v=63
105318 Par ch=1 c=64 v=0
105388 Par ch=1 c=64 v=63
105397 On ch=1 n=c5 v=50
105402 Par ch=1 c=64 v=127
105535 On ch=1 n=g#4 v=52
105564 On ch=1 n=c5 v=0
105663 On ch=1 n=f4 v=0
105685 On ch=1 n=c5 v=54
105729 On ch=1 n=g#4 v=0
105840 On ch=1 n=g6 v=89
105841 On ch=1 n=g#6 v=0
105842 On ch=1 n=g#4 v=67
105877 On ch=1 n=c5 v=0
105927 Par ch=1 c=64 v=63
105948 Par ch=1 c=64 v=0
105972 Par ch=1 c=64 v=63
105993 Par ch=1 c=64 v=127
106007 On ch=1 n=f6 v=92
106014 On ch=1 n=f5 v=54
106061 On ch=1 n=g6 v=0
106153 On ch=1 n=a#4 v=72
106162 On ch=1 n=d#6 v=99
106189 On ch=1 n=f6 v=0
106193 On ch=1 n=f5 v=0
106298 On ch=1 n=g#4 v=0
106308 On ch=1 n=d6 v=100
106314 On ch=1 n=f5 v=74
106316 On ch=1 n=d#6 v=0
106357 On ch=1 n=a#4 v=0
106488 On ch=1 n=g4 v=61
106505 On ch=1 n=f5 v=0
106506 On ch=1 n=d6 v=0
106507 On ch=1 n=c#7 v=104
106586 Par ch=1 c=64 v=63
106654 Par ch=1 c=64 v=127
106693 On ch=1 n=d#5 v=69
106836 On ch=1 n=a#4 v=76
106843 On ch=1 n=d#5 v=0
106880 On ch=1 n=g4 v=0
106973 On ch=1 n=d#5 v=94
107002 On ch=1 n=a#4 v=0
107112 On ch=1 n=c#7 v=0
107124 On ch=1 n=c#5 v=95
107126 On ch=1 n=c7 v=100
107141 On ch=1 n=d#5 v=0
107157 Par ch=1 c=64 v=63
107223 Par ch=1 c=64 v=127
107283 On ch=1 n=a#6 v=92
107294 On ch=1 n=a#5 v=76
107319 On ch=1 n=c7 v=0
107329 On ch=1 n=c#5 v=0
107434 On ch=1 n=d#5 v=78
107437 On ch=1 n=g#6 v=95
107439 On ch=1 n=a#5 v=0
107475 On ch=1 n=a#6 v=0
107574 On ch=1 n=g6 v=92
107579 On ch=1 n=a#5 v=88
107589 On ch=1 n=g#6 v=0
107592 On ch=1 n=d#5 v=0
107663 On ch=1 n=a#5 v=0
107728 On ch=1 n=g6 v=0
107738 On ch=1 n=g#5 v=56
107741 On ch=1 n=g#6 v=87
107751 On ch=1 n=c5 v=51
107792 Par ch=1 c=64 v=63
107847 Par ch=1 c=64 v=127
107893 On ch=1 n=g#6 v=0
107895 On ch=1 n=c6 v=65
107934 On ch=1 n=g#5 v=0
108048 On ch=1 n=c5 v=0
108052 On ch=1 n=a#5 v=80
108055 On ch=1 n=c#5 v=52
108061 On ch=1 n=f5 v=55
108071 Par ch=1 c=64 v=63
108083 On ch=1 n=c6 v=0
108091 Par ch=1 c=64 v=0
108148 Par ch=1 c=64 v=63
108159 Par ch=1 c=64 v=127
108185 On ch=1 n=f5 v=0
108208 On ch=1 n=c#5 v=0
108211 On ch=1 n=f6 v=63
108229 On ch=1 n=a#5 v=0
108377 On ch=1 n=d#6 v=72
108380 On ch=1 n=f6 v=0
108389 On ch=1 n=d#4 v=47
108391 On ch=1 n=c5 v=41
108391 Par ch=1 c=64 v=63
108406 Par ch=1 c=64 v=0
108468 Par ch=1 c=64 v=63
108479 Par ch=1 c=64 v=127
108528 On ch=1 n=g#5 v=57
108529 On ch=1 n=d#6 v=0
108620 On ch=1 n=d#4 v=0
108692 On ch=1 n=c5 v=0
108696 On ch=1 n=d#4 v=31
108707 On ch=1 n=a#4 v=55
108711 On ch=1 n=c#6 v=62
108715 On ch=1 n=g#5 v=0
108750 Par ch=1 c=64 v=63
108768 Par ch=1 c=64 v=0
108823 Par ch=1 c=64 v=63
108837 Par ch=1 c=64 v=127
108870 On ch=1 n=g5 v=54
108886 On ch=1 n=c#6 v=0
109074 On ch=1 n=a#5 v=65
109082 On ch=1 n=a#4 v=0
109089 On ch=1 n=g5 v=0
109089 On ch=1 n=c#5 v=27
109090 On ch=1 n=g#4 v=45
109118 On ch=1 n=d#4 v=0
109165 Par ch=1 c=64 v=63
109190 Par ch=1 c=64 v=0
109460 Par ch=1 c=64 v=63
109465 Par ch=1 c=64 v=127
109850 On ch=1 n=g#5 v=38
109858 On ch=1 n=a#5 v=0
109858 On ch=1 n=c5 v=26
109873 On ch=1 n=c#5 v=0
109907 Par ch=1 c=64 v=63
109923 Par ch=1 c=64 v=0
109980 Par ch=1 c=64 v=63
109990 Par ch=1 c=64 v=127
110035 On ch=1 n=g#5 v=0
110073 On ch=1 n=a#5 v=43
110232 On ch=1 n=c5 v=0
110235 On ch=1 n=a#5 v=0
110238 On ch=1 n=g#4 v=0
110238 On ch=1 n=b5 v=55
110375 Par ch=1 c=64 v=63
110402 On ch=1 n=c6 v=49
110408 On ch=1 n=b5 v=0
110484 Par ch=1 c=64 v=0
110561 On ch=1 n=g5 v=46
110580 On ch=1 n=c6 v=0
110587 On ch=1 n=e5 v=30
110720 On ch=1 n=c6 v=60
110843 Par ch=1 c=64 v=63
110866 On ch=1 n=c#6 v=74
110903 On ch=1 n=c6 v=0
110959 On ch=1 n=g5 v=0
111015 On ch=1 n=c6 v=60
111063 On ch=1 n=c#6 v=0
111130 On ch=1 n=e5 v=0
111168 On ch=1 n=g#5 v=46
111177 On ch=1 n=f5 v=51
111179 On ch=1 n=c6 v=0
111326 On ch=1 n=c6 v=60
111367 Par ch=1 c=64 v=0
111486 On ch=1 n=c7 v=68
111529 On ch=1 n=g#5 v=0
111544 On ch=1 n=f5 v=0
111583 On ch=1 n=c6 v=0
111649 On ch=1 n=c7 v=0
111660 On ch=1 n=c6 v=37
111799 On ch=1 n=c6 v=0
111818 On ch=1 n=f5 v=48
111825 On ch=1 n=d5 v=45
111906 Par ch=1 c=64 v=63
111980 On ch=1 n=a#5 v=61
111990 Par ch=1 c=64 v=127
112128 On ch=1 n=b5 v=71
112135 On ch=1 n=a#5 v=0
112225 On ch=1 n=f5 v=0
112260 Par ch=1 c=64 v=63
112269 On ch=1 n=a#5 v=68
112279 On ch=1 n=b5 v=0
112320 Par ch=1 c=64 v=0
112358 On ch=1 n=d5 v=0
112414 On ch=1 n=a#5 v=0
112419 On ch=1 n=d#5 v=60
112420 On ch=1 n=g5 v=45
112575 On ch=1 n=a#5 v=75
112619 Par ch=1 c=64 v=63
112633 Par ch=1 c=64 v=127
112691 Par ch=1 c=64 v=63
112707 Par ch=1 c=64 v=0
112739 On ch=1 n=a#6 v=67
112770 Par ch=1 c=64 v=63
112772 On ch=1 n=a#5 v=0
112782 Par ch=1 c=64 v=127
112833 On ch=1 n=d#5 v=0
112885 On ch=1 n=g5 v=0
112888 On ch=1 n=a#6 v=0
112889 On ch=1 n=a#5 v=50
112893 Par ch=1 c=64 v=63
112905 Par ch=1 c=64 v=0
113042 On ch=1 n=d#5 v=62
113054 On ch=1 n=a#5 v=0
113058 On ch=1 n=c5 v=51
113220 On ch=1 n=a5 v=55
113372 On ch=1 n=a#5 v=68
113390 On ch=1 n=a5 v=0
113412 Par ch=1 c=64 v=63
113422 Par ch=1 c=64 v=127
113507 On ch=1 n=a5 v=77
113524 On ch=1 n=a#5 v=0
113662 On ch=1 n=d#6 v=85
113731 Par ch=1 c=64 v=63
113737 On ch=1 n=a5 v=0
113781 Par ch=1 c=64 v=0
113803 On ch=1 n=a5 v=83
113843 On ch=1 n=d#6 v=0
113864 Par ch=1 c=64 v=63
113873 Par ch=1 c=64 v=127
113951 Par ch=1 c=64 v=63
113962 Par ch=1 c=64 v=0
113971 On ch=1 n=f#6 v=79
114014 On ch=1 n=a5 v=0
114025 Par ch=1 c=64 v=63
114033 Par ch=1 c=64 v=127
114114 On ch=1 n=c5 v=0
114132 On ch=1 n=f#6 v=0
114132 On ch=1 n=a5 v=72
114154 On ch=1 n=d#5 v=0
114310 On ch=1 n=a#5 v=63
114316 On ch=1 n=a5 v=0
114341 Par ch=1 c=64 v=63
114383 Par ch=1 c=64 v=0
114473 On ch=1 n=a#4 v=67
114547 Par ch=1 c=64 v=63
114566 Par ch=1 c=64 v=127
114630 On ch=1 n=d5 v=84
114767 On ch=1 n=f5 v=83
114819 On ch=1 n=d5 v=0
114916 On ch=1 n=f#5 v=72
114926 Par ch=1 c=64 v=63
114940 Par ch=1 c=64 v=0
114961 On ch=1 n=f5 v=0
115023 Par ch=1 c=64 v=63
115032 Par ch=1 c=64 v=127
115078 On ch=1 n=a5 v=54
115086 On ch=1 n=a#5 v=0
115246 On ch=1 n=d#5 v=56
115248 On ch=1 n=a5 v=0
115248 Par ch=1 c=64 v=63
115249 On ch=1 n=f#6 v=58
115264 Par ch=1 c=64 v=0
115298 On ch=1 n=f#5 v=0
115397 On ch=1 n=a5 v=59
115405 Par ch=1 c=64 v=63
115413 On ch=1 n=f#6 v=0
115413 Par ch=1 c=64 v=127
115492 On ch=1 n=a#4 v=0
115531 On ch=1 n=d#5 v=0
115536 On ch=1 n=a#5 v=71
115562 On ch=1 n=a5 v=0
115684 On ch=1 n=a#4 v=80
115753 Par ch=1 c=64 v=63
115791 Par ch=1 c=64 v=0
115836 On ch=1 n=d5 v=91
115920 Par ch=1 c=64 v=63
115928 Par ch=1 c=64 v=127
115980 On ch=1 n=f5 v=91
116062 On ch=1 n=d5 v=0
116144 On ch=1 n=f#5 v=75
116181 On ch=1 n=f5 v=0
116209 Par ch=1 c=64 v=63
116229 Par ch=1 c=64 v=0
116290 Par ch=1 c=64 v=63
116302 On ch=1 n=a5 v=72
116303 Par ch=1 c=64 v=127
116304 On ch=1 n=a#5 v=0
116461 On ch=1 n=f#5 v=0
116462 On ch=1 n=a5 v=0
116465 On ch=1 n=f#6 v=76
116469 On ch=1 n=d#5 v=53
116470 Par ch=1 c=64 v=63
116480 Par ch=1 c=64 v=0
116637 On ch=1 n=a5 v=63
116651 On ch=1 n=f#6 v=0
116700 Par ch=1 c=64 v=63
116702 Par ch=1 c=64 v=127
116797 On ch=1 n=a#4 v=0
116797 On ch=1 n=d#5 v=0
116818 On ch=1 n=a#5 v=69
116827 On ch=1 n=a5 v=0
116886 Par ch=1 c=64 v=63
116903 Par ch=1 c=64 v=0
117008 On ch=1 n=a#4 v=71
117117 Par ch=1 c=64 v=63
117123 Par ch=1 c=64 v=127
117196 On ch=1 n=d5 v=80
117349 On ch=1 n=f5 v=86
117491 On ch=1 n=g#5 v=101
117658 On ch=1 n=d6 v=97
117694 On ch=1 n=a#5 v=0
117838 On ch=1 n=f6 v=100
117941 On ch=1 n=d6 v=0
118028 On ch=1 n=g#6 v=99
118069 On ch=1 n=f6 v=0
118273 On ch=1 n=g#6 v=0
118284 On ch=1 n=b6 v=77
118550 On ch=1 n=c7 v=93
118575 On ch=1 n=b6 v=0
118743 On ch=1 n=d7 v=91
118786 On ch=1 n=c7 v=0
118868 On ch=1 n=f5 v=0
118876 On ch=1 n=d5 v=0
118901 On ch=1 n=c7 v=93
118945 On ch=1 n=d7 v=0
119054 On ch=1 n=a#6 v=93
119098 On ch=1 n=c7 v=0
119217 On ch=1 n=g#6 v=93
119262 On ch=1 n=a#6 v=0
119408 On ch=1 n=g6 v=82
119447 On ch=1 n=g#6 v=0
119614 On ch=1 n=f6 v=87
119638 On ch=1 n=g6 v=0
119899 On ch=1 n=d#6 v=70
119954 On ch=1 n=f6 v=0
119990 Par ch=1 c=64 v=63
120155 Par ch=1 c=64 v=0
120461 Par ch=1 c=64 v=63
120470 Par ch=1 c=64 v=127
120863 On ch=1 n=f6 v=52
120877 On ch=1 n=d#6 v=0
120971 On ch=1 n=d#6 v=64
120989 On ch=1 n=f6 v=0
121098 On ch=1 n=d6 v=50
121114 On ch=1 n=d#6 v=0
121146 Par ch=1 c=64 v=63
121228 Par ch=1 c=64 v=0
121319 Par ch=1 c=64 v=63
121916 On ch=1 n=g#5 v=0
121936 On ch=1 n=d6 v=0
121940 On ch=1 n=a#4 v=0
122557 Par ch=1 c=64 v=127
122718 On ch=1 n=a#5 v=58
122727 On ch=1 n=g5 v=35
122730 On ch=1 n=d#4 v=29
122742 On ch=1 n=d#3 v=31
123450 On ch=1 n=g5 v=0
123586 On ch=1 n=a#5 v=0
123610 On ch=1 n=g5 v=47
123611 On ch=1 n=d#5 v=31
123803 On ch=1 n=d#5 v=0
123928 On ch=1 n=d#4 v=0
123980 On ch=1 n=g5 v=0
123992 On ch=1 n=f5 v=54
123997 On ch=1 n=a#4 v=37
124008 On ch=1 n=a#3 v=51
124053 On ch=1 n=d#3 v=0
124068 Par ch=1 c=64 v=63
124118 Par ch=1 c=64 v=127
124304 On ch=1 n=a#4 v=0
124360 On ch=1 n=d#5 v=65
124363 On ch=1 n=f5 v=0
124364 On ch=1 n=d#4 v=41
124372 On ch=1 n=g4 v=37
124419 On ch=1 n=a#3 v=0
124509 Par ch=1 c=64 v=63
124537 Par ch=1 c=64 v=0
124733 On ch=1 n=a#4 v=63
124753 Par ch=1 c=64 v=63
124767 Par ch=1 c=64 v=127
124768 On ch=1 n=d#5 v=0
125041 On ch=1 n=g4 v=0
125075 On ch=1 n=d#5 v=74
125186 Par ch=1 c=64 v=63
125200 Par ch=1 c=64 v=127
125258 On ch=1 n=a#4 v=0
125282 On ch=1 n=d#4 v=0
125431 On ch=1 n=a#3 v=52
125436 On ch=1 n=d#5 v=0
125441 On ch=1 n=f5 v=67
125445 On ch=1 n=d5 v=55
125455 Par ch=1 c=64 v=63
125513 Par ch=1 c=64 v=127
125655 On ch=1 n=d5 v=0
125687 On ch=1 n=f5 v=0
125809 On ch=1 n=d#4 v=50
125819 On ch=1 n=g5 v=69
125822 On ch=1 n=d#5 v=47
125860 On ch=1 n=a#3 v=0
125958 Par ch=1 c=64 v=63
125973 Par ch=1 c=64 v=0
126171 On ch=1 n=g#5 v=84
126187 On ch=1 n=c4 v=61
126201 On ch=1 n=g5 v=0
126209 On ch=1 n=d#4 v=0
126552 On ch=1 n=g3 v=53
126555 On ch=1 n=a#5 v=81
126605 On ch=1 n=c4 v=0
126608 On ch=1 n=g#5 v=0
126942 On ch=1 n=c6 v=76
126943 On ch=1 n=g#3 v=55
126953 On ch=1 n=a#5 v=0
126979 On ch=1 n=g3 v=0
127117 Par ch=1 c=64 v=63
127123 Par ch=1 c=64 v=127
127202 On ch=1 n=d#5 v=0
127237 On ch=1 n=c6 v=0
127350 On ch=1 n=g5 v=65
127362 On ch=1 n=a#3 v=42
127366 On ch=1 n=g#3 v=0
127367 On ch=1 n=d#5 v=43
127489 Par ch=1 c=64 v=63
127507 Par ch=1 c=64 v=0
127713 Par ch=1 c=64 v=63
127718 Par ch=1 c=64 v=127
127943 On ch=1 n=g#5 v=66
127986 On ch=1 n=g5 v=0
128065 On ch=1 n=d#5 v=0
128120 On ch=1 n=g#5 v=0
128128 On ch=1 n=f5 v=61
128142 On ch=1 n=d5 v=35
128182 Par ch=1 c=64 v=63
128197 Par ch=1 c=64 v=0
128261 Par ch=1 c=64 v=63
128275 Par ch=1 c=64 v=127
128301 On ch=1 n=g5 v=54
128340 On ch=1 n=f5 v=0
128349 On ch=1 n=a#3 v=0
128365 On ch=1 n=d5 v=0
128467 On ch=1 n=g#5 v=71
128474 On ch=1 n=g5 v=0
128590 On ch=1 n=g#5 v=0
128633 On ch=1 n=a5 v=75
128895 On ch=1 n=a#6 v=82
128905 On ch=1 n=g5 v=45
128912 On ch=1 n=a#5 v=36
128917 On ch=1 n=a5 v=0
128958 Par ch=1 c=64 v=63
128981 Par ch=1 c=64 v=0
129364 Par ch=1 c=64 v=63
129369 Par ch=1 c=64 v=127
129684 On ch=1 n=d#5 v=52
129692 On ch=1 n=g6 v=71
129749 On ch=1 n=a#6 v=0
129750 Par ch=1 c=64 v=63
129768 On ch=1 n=g5 v=0
129774 Par ch=1 c=64 v=0
130066 On ch=1 n=f6 v=62
130066 On ch=1 n=a#4 v=48
130090 On ch=1 n=g6 v=0
130149 On ch=1 n=d#5 v=0
130444 On ch=1 n=g4 v=36
130448 On ch=1 n=d#6 v=60
130449 On ch=1 n=f6 v=0
130489 On ch=1 n=a#4 v=0
130541 On ch=1 n=g4 v=0
130575 On ch=1 n=d#6 v=0
130611 On ch=1 n=a#5 v=0
130798 On ch=1 n=a#4 v=38
130807 On ch=1 n=f6 v=55
130815 On ch=1 n=d6 v=50
130889 On ch=1 n=a#4 v=0
130901 On ch=1 n=d6 v=0
130927 On ch=1 n=f6 v=0
131164 On ch=1 n=g6 v=62
131165 On ch=1 n=d#5 v=65
131171 On ch=1 n=d#6 v=32
131242 On ch=1 n=d#6 v=0
131246 On ch=1 n=d#5 v=0
131277 On ch=1 n=g6 v=0
131518 On ch=1 n=g#6 v=79
131529 On ch=1 n=d#6 v=43
131535 On ch=1 n=c5 v=57
131592 On ch=1 n=d#6 v=0
131603 On ch=1 n=c5 v=0
131624 On ch=1 n=g#6 v=0
131895 On ch=1 n=a#6 v=73
131902 On ch=1 n=d#6 v=33
131903 Par ch=1 c=64 v=63
131906 On ch=1 n=g4 v=38
131924 Par ch=1 c=64 v=127
132005 On ch=1 n=d#6 v=0
132021 On ch=1 n=g4 v=0
132046 On ch=1 n=a#6 v=0
132281 On ch=1 n=b6 v=69
132290 On ch=1 n=f5 v=33
132295 On ch=1 n=g#4 v=36
132316 Par ch=1 c=64 v=63
132339 Par ch=1 c=64 v=0
132381 On ch=1 n=c7 v=74
132386 Par ch=1 c=64 v=63
132395 On ch=1 n=b6 v=0
132403 Par ch=1 c=64 v=127
132471 On ch=1 n=g#6 v=82
132480 On ch=1 n=c7 v=0
132483 On ch=1 n=f5 v=0
132546 On ch=1 n=f6 v=91
132562 On ch=1 n=g#6 v=0
132642 On ch=1 n=a#4 v=54
132647 On ch=1 n=d#6 v=92
132652 On ch=1 n=g5 v=44
132653 On ch=1 n=g#4 v=0
132664 On ch=1 n=f6 v=0
132707 Par ch=1 c=64 v=63
132734 Par ch=1 c=64 v=0
132852 Par ch=1 c=64 v=63
132860 Par ch=1 c=64 v=127
132877 On ch=1 n=g5 v=0
133019 On ch=1 n=g#5 v=51
133021 On ch=1 n=g6 v=60
133028 On ch=1 n=d#6 v=0
133058 Par ch=1 c=64 v=63
133075 Par ch=1 c=64 v=0
133114 On ch=1 n=f6 v=85
133128 Par ch=1 c=64 v=63
133148 On ch=1 n=g6 v=0
133149 Par ch=1 c=64 v=127
133203 On ch=1 n=e6 v=85
133227 On ch=1 n=f6 v=0
133237 On ch=1 n=g#5 v=0
133269 On ch=1 n=f6 v=87
133301 On ch=1 n=e6 v=0
133355 On ch=1 n=f6 v=0
133382 On ch=1 n=a#4 v=0
133402 On ch=1 n=f6 v=67
133405 On ch=1 n=g#5 v=47
133413 On ch=1 n=d6 v=49
133416 On ch=1 n=d#5 v=52
133506 Par ch=1 c=64 v=63
133558 Par ch=1 c=64 v=0
133852 Par ch=1 c=64 v=63
133857 Par ch=1 c=64 v=127
134140 On ch=1 n=f6 v=0
134172 On ch=1 n=g#5 v=0
134280 On ch=1 n=d6 v=0
134303 On ch=1 n=d#6 v=53
134333 On ch=1 n=g5 v=23
134452 Par ch=1 c=64 v=63
134823 On ch=1 n=d#6 v=0
134823 On ch=1 n=g5 v=0
134855 On ch=1 n=d#5 v=0
135402 On ch=1 n=d#4 v=42
135408 On ch=1 n=c6 v=54
135424 Par ch=1 c=64 v=127
135587 On ch=1 n=c5 v=43
135606 On ch=1 n=d#4 v=0
135736 On ch=1 n=g#4 v=57
135750 On ch=1 n=c5 v=0
135881 On ch=1 n=d6 v=77
135883 On ch=1 n=g#4 v=0
135892 On ch=1 n=c5 v=37
135904 On ch=1 n=c6 v=0
136026 Par ch=1 c=64 v=63
136040 On ch=1 n=d#6 v=87
136044 Par ch=1 c=64 v=0
136051 On ch=1 n=d#4 v=40
136054 On ch=1 n=c5 v=0
136064 On ch=1 n=d6 v=0
136149 Par ch=1 c=64 v=63
136155 Par ch=1 c=64 v=127
136203 On ch=1 n=c5 v=53
136215 On ch=1 n=d#4 v=0
136243 On ch=1 n=d#6 v=0
136352 On ch=1 n=c5 v=0
136355 On ch=1 n=d#6 v=87
136360 On ch=1 n=g#4 v=57
136515 On ch=1 n=g#4 v=0
136525 On ch=1 n=d#6 v=0
136530 On ch=1 n=c5 v=33
136681 On ch=1 n=d#6 v=80
136689 On ch=1 n=d#4 v=57
136698 On ch=1 n=c5 v=0
136739 Par ch=1 c=64 v=63
136754 Par ch=1 c=64 v=0
136845 On ch=1 n=a#4 v=53
136883 Par ch=1 c=64 v=63
136893 Par ch=1 c=64 v=127
136941 On ch=1 n=d#4 v=0
136979 On ch=1 n=g4 v=51
136986 On ch=1 n=a#4 v=0
137131 On ch=1 n=a#4 v=54
137137 On ch=1 n=d#6 v=0
137153 On ch=1 n=d6 v=71
137167 On ch=1 n=g4 v=0
137222 On ch=1 n=c6 v=69
137230 On ch=1 n=d6 v=0
137257 Par ch=1 c=64 v=63
137285 Par ch=1 c=64 v=0
137288 On ch=1 n=d#4 v=58
137300 On ch=1 n=a#5 v=69
137303 On ch=1 n=a#4 v=0
137310 On ch=1 n=c6 v=0
137423 On ch=1 n=a#4 v=48
137464 On ch=1 n=d#4 v=0
137569 On ch=1 n=g4 v=46
137583 On ch=1 n=a#4 v=0
137611 On ch=1 n=a#5 v=0
137721 On ch=1 n=a#4 v=47
137746 On ch=1 n=g4 v=0
137861 Par ch=1 c=64 v=63
137890 On ch=1 n=d#4 v=55
137896 Par ch=1 c=64 v=127
137902 On ch=1 n=a#4 v=0
137903 On ch=1 n=c6 v=74
138043 On ch=1 n=c5 v=61
138045 On ch=1 n=d#4 v=0
138183 On ch=1 n=g#4 v=83
138202 On ch=1 n=c5 v=0
138330 On ch=1 n=d6 v=88
138331 On ch=1 n=c6 v=0
138332 On ch=1 n=g#4 v=0
138332 On ch=1 n=c5 v=58
138483 On ch=1 n=d#6 v=98
138485 On ch=1 n=d#4 v=59
138502 On ch=1 n=d6 v=0
138511 On ch=1 n=c5 v=0
138576 On ch=1 n=d#6 v=0
138630 On ch=1 n=d#4 v=0
138632 On ch=1 n=d#6 v=105
138632 On ch=1 n=c5 v=59
138679 On ch=1 n=d#6 v=0
138779 On ch=1 n=g#4 v=65
138782 On ch=1 n=d#6 v=101
138783 On ch=1 n=c5 v=0
138858 On ch=1 n=d#6 v=0
138913 Par ch=1 c=64 v=63
138924 Par ch=1 c=64 v=0
138932 On ch=1 n=g#4 v=0
138932 On ch=1 n=d#6 v=106
138940 On ch=1 n=c5 v=47
138982 Par ch=1 c=64 v=63
138992 Par ch=1 c=64 v=127
139036 On ch=1 n=d#6 v=0
139078 On ch=1 n=c5 v=0
139090 On ch=1 n=d#6 v=96
139091 On ch=1 n=d#4 v=62
139165 On ch=1 n=g6 v=71
139175 On ch=1 n=d#6 v=0
139233 Par ch=1 c=64 v=63
139235 On ch=1 n=f6 v=82
139246 On ch=1 n=a#4 v=49
139246 Par ch=1 c=64 v=0
139248 On ch=1 n=g6 v=0
139299 On ch=1 n=d#6 v=85
139323 On ch=1 n=f6 v=0
139369 On ch=1 n=d6 v=69
139378 On ch=1 n=g4 v=33
139381 On ch=1 n=d#6 v=0
139389 On ch=1 n=a#4 v=0
139430 On ch=1 n=f6 v=76
139444 On ch=1 n=d6 v=0
139470 On ch=1 n=d#4 v=0
139507 On ch=1 n=a#4 v=50
139515 On ch=1 n=d#6 v=84
139521 On ch=1 n=f6 v=0
139541 On ch=1 n=g4 v=0
139575 On ch=1 n=d#6 v=0
139579 On ch=1 n=c6 v=65
139672 On ch=1 n=d#4 v=45
139674 On ch=1 n=a#5 v=72
139680 On ch=1 n=c6 v=0
139704 On ch=1 n=a#4 v=0
139786 Par ch=1 c=64 v=63
139798 Par ch=1 c=64 v=127
139810 On ch=1 n=a#4 v=59
139827 On ch=1 n=d#4 v=0
139943 On ch=1 n=a#5 v=0
139963 On ch=1 n=a#4 v=0
139963 On ch=1 n=g4 v=38
140108 On ch=1 n=a#4 v=37
140109 On ch=1 n=g4 v=0
140154 Par ch=1 c=64 v=63
140279 On ch=1 n=c4 v=55
140325 On ch=1 n=a#4 v=0
140339 Par ch=1 c=64 v=127
140431 Par ch=1 c=64 v=63
140446 Par ch=1 c=64 v=0
140451 On ch=1 n=g6 v=51
140535 Par ch=1 c=64 v=63
140544 Par ch=1 c=64 v=127
140600 On ch=1 n=c4 v=0
140602 On ch=1 n=g#6 v=71
140644 On ch=1 n=g6 v=0
140730 On ch=1 n=c7 v=77
140785 On ch=1 n=g#6 v=0
140869 Par ch=1 c=64 v=63
140893 Par ch=1 c=64 v=0
140893 On ch=1 n=e6 v=84
140895 On ch=1 n=c7 v=0
141025 On ch=1 n=a#5 v=77
141036 On ch=1 n=d5 v=55
141061 On ch=1 n=a#5 v=0
141063 On ch=1 n=d5 v=0
141188 On ch=1 n=f6 v=88
141195 On ch=1 n=a#5 v=73
141199 On ch=1 n=e6 v=0
141223 On ch=1 n=a#5 v=0
141338 On ch=1 n=a#5 v=57
141342 On ch=1 n=d5 v=46
141380 On ch=1 n=a#5 v=0
141387 On ch=1 n=d5 v=0
141495 On ch=1 n=a#5 v=42
141501 On ch=1 n=d#5 v=60
141502 On ch=1 n=f6 v=0
141617 Par ch=1 c=64 v=63
141627 Par ch=1 c=64 v=127
141662 On ch=1 n=f#6 v=66
141810 On ch=1 n=g6 v=75
141821 On ch=1 n=f#6 v=0
141832 On ch=1 n=a#5 v=0
141863 On ch=1 n=d#5 v=0
141943 On ch=1 n=a#6 v=88
141982 On ch=1 n=g6 v=0
142042 Par ch=1 c=64 v=63
142067 Par ch=1 c=64 v=0
142092 On ch=1 n=d6 v=86
142109 On ch=1 n=a#6 v=0
142236 On ch=1 n=a#5 v=78
142246 On ch=1 n=g5 v=44
142277 On ch=1 n=a#5 v=0
142287 On ch=1 n=g5 v=0
142385 On ch=1 n=d#6 v=91
142390 On ch=1 n=a#5 v=70
142396 On ch=1 n=g5 v=44
142404 On ch=1 n=d6 v=0
142433 On ch=1 n=a#5 v=0
142436 On ch=1 n=g5 v=0
142530 On ch=1 n=a#5 v=67
142544 On ch=1 n=g5 v=34
142584 On ch=1 n=a#5 v=0
142591 On ch=1 n=g5 v=0
142682 On ch=1 n=c6 v=73
142682 On ch=1 n=g#5 v=75
142697 On ch=1 n=d#6 v=0
142851 On ch=1 n=e6 v=84
142910 Par ch=1 c=64 v=63
142928 Par ch=1 c=64 v=127
143001 On ch=1 n=f6 v=92
143024 On ch=1 n=e6 v=0
143082 On ch=1 n=c6 v=0
143137 On ch=1 n=g#5 v=0
143146 On ch=1 n=f6 v=0
143151 On ch=1 n=g#6 v=90
143307 On ch=1 n=g#6 v=0
143317 On ch=1 n=b5 v=83
143414 Par ch=1 c=64 v=63
143440 Par ch=1 c=64 v=0
143474 On ch=1 n=c6 v=88
143520 On ch=1 n=b5 v=0
143647 On ch=1 n=d#6 v=93
143648 On ch=1 n=g#5 v=69
143656 On ch=1 n=a#4 v=62
143675 On ch=1 n=c6 v=0
143781 Par ch=1 c=64 v=63
143789 Par ch=1 c=64 v=127
143826 On ch=1 n=d6 v=87
143851 On ch=1 n=d#6 v=0
143919 On ch=1 n=g#5 v=0
143996 On ch=1 n=a#4 v=0
144050 On ch=1 n=g#5 v=61
144052 On ch=1 n=f6 v=92
144075 On ch=1 n=b4 v=53
144092 On ch=1 n=d6 v=0
144157 Par ch=1 c=64 v=63
144188 Par ch=1 c=64 v=0
144565 Par ch=1 c=64 v=63
144574 Par ch=1 c=64 v=127
144752 On ch=1 n=g#5 v=0
144950 On ch=1 n=d#6 v=54
144953 On ch=1 n=b4 v=0
144973 On ch=1 n=c5 v=31
144977 On ch=1 n=g5 v=17
144979 On ch=1 n=f6 v=0
145069 Par ch=1 c=64 v=63
145096 Par ch=1 c=64 v=0
145464 On ch=1 n=g5 v=0
145495 On ch=1 n=c5 v=0
145562 On ch=1 n=d#6 v=0
145915 On ch=1 n=d#6 v=75
145920 Par ch=1 c=64 v=63
145927 On ch=1 n=f4 v=39
145964 Par ch=1 c=64 v=127
146115 On ch=1 n=c5 v=45
146265 On ch=1 n=a4 v=55
146271 On ch=1 n=c5 v=0
146336 On ch=1 n=f4 v=0
146406 On ch=1 n=c5 v=71
146421 On ch=1 n=a4 v=0
146559 On ch=1 n=d#4 v=64
146569 On ch=1 n=d6 v=90
146572 On ch=1 n=d#6 v=0
146580 On ch=1 n=c5 v=0
146663 Par ch=1 c=64 v=63
146718 Par ch=1 c=64 v=127
146739 On ch=1 n=c5 v=60
146740 On ch=1 n=c6 v=92
146788 On ch=1 n=d6 v=0
146884 On ch=1 n=f4 v=68
146884 On ch=1 n=a#5 v=99
146907 On ch=1 n=d#4 v=0
146911 On ch=1 n=c5 v=0
146911 On ch=1 n=c6 v=0
146945 Par ch=1 c=64 v=63
146961 Par ch=1 c=64 v=0
146987 Par ch=1 c=64 v=63
147010 Par ch=1 c=64 v=127
147026 On ch=1 n=a5 v=93
147027 On ch=1 n=a#5 v=0
147037 On ch=1 n=c5 v=85
147072 On ch=1 n=f4 v=0
147181 On ch=1 n=c5 v=0
147199 On ch=1 n=a5 v=0
147205 On ch=1 n=d4 v=71
147219 On ch=1 n=g#6 v=100
147319 Par ch=1 c=64 v=63
147337 Par ch=1 c=64 v=0
147393 Par ch=1 c=64 v=63
147395 On ch=1 n=a#4 v=65
147404 Par ch=1 c=64 v=127
147411 On ch=1 n=d4 v=0
147543 On ch=1 n=f4 v=76
147551 On ch=1 n=a#4 v=0
147682 On ch=1 n=a#4 v=88
147684 On ch=1 n=f4 v=0
147824 On ch=1 n=g#6 v=0
147827 On ch=1 n=g#4 v=92
147831 On ch=1 n=a#4 v=0
147835 On ch=1 n=g6 v=93
147942 Par ch=1 c=64 v=63
147962 Par ch=1 c=64 v=0
147984 On ch=1 n=f6 v=92
147990 On ch=1 n=f5 v=77
148019 On ch=1 n=g6 v=0
148021 On ch=1 n=g#4 v=0
148045 Par ch=1 c=64 v=63
148053 Par ch=1 c=64 v=127
148125 On ch=1 n=a#4 v=77
148145 On ch=1 n=d#6 v=96
148152 On ch=1 n=f5 v=0
148157 On ch=1 n=f6 v=0
148223 On ch=1 n=a#4 v=0
148279 On ch=1 n=d6 v=91
148282 On ch=1 n=d#6 v=0
148291 On ch=1 n=f5 v=72
148350 On ch=1 n=f5 v=0
148394 On ch=1 n=d6 v=0
148458 On ch=1 n=d#6 v=78
148461 On ch=1 n=d#5 v=50
148471 On ch=1 n=g4 v=43
148505 Par ch=1 c=64 v=63
148515 Par ch=1 c=64 v=0
148577 Par ch=1 c=64 v=63
148588 Par ch=1 c=64 v=127
148611 On ch=1 n=d#6 v=0
148636 On ch=1 n=g5 v=58
148656 On ch=1 n=g4 v=0
148667 On ch=1 n=d#5 v=0
148794 On ch=1 n=f5 v=68
148797 On ch=1 n=g#4 v=48
148805 On ch=1 n=c5 v=50
148811 Par ch=1 c=64 v=63
148817 On ch=1 n=g5 v=0
148825 Par ch=1 c=64 v=0
148892 Par ch=1 c=64 v=63
148902 Par ch=1 c=64 v=127
148925 On ch=1 n=c5 v=0
148949 On ch=1 n=g#4 v=0
148961 On ch=1 n=c6 v=50
148964 On ch=1 n=f5 v=0
149128 On ch=1 n=c6 v=0
149130 On ch=1 n=a#5 v=70
149140 On ch=1 n=a#3 v=63
149155 On ch=1 n=g4 v=51
149160 Par ch=1 c=64 v=63
149174 Par ch=1 c=64 v=0
149239 Par ch=1 c=64 v=63
149248 Par ch=1 c=64 v=127
149275 On ch=1 n=a#3 v=0
149283 On ch=1 n=d#5 v=59
149295 On ch=1 n=a#5 v=0
149350 On ch=1 n=g4 v=0
149459 On ch=1 n=a#3 v=32
149460 On ch=1 n=g#5 v=61
149466 On ch=1 n=d#5 v=0
149469 On ch=1 n=f4 v=36
149484 Par ch=1 c=64 v=63
149500 Par ch=1 c=64 v=0
149590 Par ch=1 c=64 v=63
149600 Par ch=1 c=64 v=127
149621 On ch=1 n=g#5 v=0
149627 On ch=1 n=d5 v=54
149639 On ch=1 n=a#3 v=0
149658 On ch=1 n=f4 v=0
149826 On ch=1 n=d#5 v=54
149840 On ch=1 n=d#4 v=30
149858 On ch=1 n=d5 v=0
149859 Par ch=1 c=64 v=63
149879 Par ch=1 c=64 v=0
149946 Par ch=1 c=64 v=63
149962 Par ch=1 c=64 v=127
150017 On ch=1 n=g4 v=41
150078 On ch=1 n=d#4 v=0
150163 On ch=1 n=a#4 v=50
150189 On ch=1 n=g4 v=0
150203 Par ch=1 c=64 v=63
150212 On ch=1 n=a#4 v=0
150222 Par ch=1 c=64 v=0
150323 On ch=1 n=a#4 v=58
150362 On ch=1 n=d#5 v=0
150365 On ch=1 n=a#4 v=0
150518 On ch=1 n=a#4 v=38
150728 On ch=1 n=g#6 v=54
150745 Par ch=1 c=64 v=63
150753 Par ch=1 c=64 v=127
150850 On ch=1 n=a#4 v=0
150893 On ch=1 n=f6 v=64
150909 On ch=1 n=g#6 v=0
151046 On ch=1 n=d6 v=71
151075 On ch=1 n=f6 v=0
151212 On ch=1 n=d#5 v=35
151215 On ch=1 n=a#6 v=63
151227 On ch=1 n=d6 v=0
151230 Par ch=1 c=64 v=63
151252 Par ch=1 c=64 v=0
151387 On ch=1 n=g5 v=32
151389 Par ch=1 c=64 v=63
151400 Par ch=1 c=64 v=127
151411 On ch=1 n=d#5 v=0
151469 Par ch=1 c=64 v=63
151484 Par ch=1 c=64 v=0
151499 On ch=1 n=g5 v=0
151534 On ch=1 n=a#5 v=53
151574 On ch=1 n=a#5 v=0
151687 On ch=1 n=a#5 v=57
151733 On ch=1 n=a#5 v=0
151795 On ch=1 n=a#6 v=0
151858 On ch=1 n=a#5 v=48
152031 On ch=1 n=g#6 v=53
152074 Par ch=1 c=64 v=63
152081 Par ch=1 c=64 v=127
152140 On ch=1 n=a#5 v=0
152186 On ch=1 n=f6 v=69
152214 On ch=1 n=g#6 v=0
152333 On ch=1 n=d6 v=81
152341 On ch=1 n=f6 v=0
152498 On ch=1 n=d#6 v=78
152499 On ch=1 n=d6 v=0
152509 On ch=1 n=d#3 v=49
152538 Par ch=1 c=64 v=63
152548 Par ch=1 c=64 v=0
152655 Par ch=1 c=64 v=63
152663 Par ch=1 c=64 v=127
152674 On ch=1 n=g3 v=48
152677 On ch=1 n=d#3 v=0
152815 On ch=1 n=d#6 v=0
152838 On ch=1 n=a#3 v=55
152853 On ch=1 n=g3 v=0
152889 On ch=1 n=a#3 v=0
152897 Par ch=1 c=64 v=63
152925 Par ch=1 c=64 v=0
153023 On ch=1 n=a#3 v=65
153070 On ch=1 n=a#3 v=0
153227 On ch=1 n=a#3 v=48
153424 On ch=1 n=g#5 v=53
153653 On ch=1 n=f5 v=48
153657 On ch=1 n=g#5 v=0
153878 Par ch=1 c=64 v=63
153886 Par ch=1 c=64 v=127
153903 On ch=1 n=d5 v=46
153918 On ch=1 n=f5 v=0
153943 On ch=1 n=a#3 v=0
153988 On ch=1 n=d5 v=0
154314 On ch=1 n=a#3 v=27
154315 On ch=1 n=g#4 v=35
154316 On ch=1 n=f5 v=52
154340 On ch=1 n=a#2 v=29
154402 Par ch=1 c=64 v=63
154424 Par ch=1 c=64 v=0
155586 Par ch=1 c=64 v=63
155594 Par ch=1 c=64 v=127
155717 On ch=1 n=g#4 v=0
155722 On ch=1 n=a#3 v=0
155727 On ch=1 n=a#2 v=0
155752 On ch=1 n=f5 v=0
156153 On ch=1 n=d#3 v=23
156167 On ch=1 n=d#5 v=34
156185 On ch=1 n=g4 v=14
156252 Par ch=1 c=64 v=63
156277 Par ch=1 c=64 v=0
156343 Par ch=1 c=64 v=63
156362 Par ch=1 c=64 v=127
156437 On ch=1 n=d#3 v=0
156449 On ch=1 n=d#5 v=0
156455 On ch=1 n=g4 v=0
156928 Par ch=1 c=64 v=63
156991 Par ch=1 c=64 v=0
157816 Par ch=1 c=67 v=127
158378 Par ch=1 c=67 v=0
158378 Meta TrkEnd
TrkEnd
MTrk
0 TimeSig 4/4 24 8
0 Meta TrkName "                                    "
0 Meta TrkEnd
TrkEnd
MTrk
0 TimeSig 4/4 24 8
0 Meta TrkName "                                    "
0 Meta TrkEnd
TrkEnd
MTrk
0 TimeSig 4/4 24 8
0 Meta TrkName "                                    "
0 Meta TrkEnd
TrkEnd
MTrk
0 TimeSig 4/4 24 8
0 Meta TrkName "                                    "
0 Meta TrkEnd
TrkEnd
MTrk
0 TimeSig 4/4 24 8
0 Meta TrkName "                                    "
0 Meta TrkEnd
TrkEnd
MTrk
0 TimeSig 4/4 24 8
0 Meta TrkName "                                    "
0 Meta TrkEnd
TrkEnd
MTrk
0 TimeSig 4/4 24 8
0 Meta TrkName "                                    "
0 Meta TrkEnd
TrkEnd
MTrk
0 TimeSig 4/4 24 8
0 Meta TrkName "                                    "
0 Meta TrkEnd
TrkEnd
MTrk
0 TimeSig 4/4 24 8
0 Meta TrkName "                                    "
0 Meta TrkEnd
TrkEnd
MTrk
0 TimeSig 4/4 24 8
0 Meta TrkName "                                    "
0 Meta TrkEnd
TrkEnd
MTrk
0 TimeSig 4/4 24 8
0 Meta TrkName "                                    "
0 Meta TrkEnd
TrkEnd
MTrk
0 TimeSig 4/4 24 8
0 Meta TrkName "                                    "
0 Meta TrkEnd
TrkEnd
MTrk
0 TimeSig 4/4 24 8
0 Meta TrkName "                                    "
0 Meta TrkEnd
TrkEnd
MTrk
0 TimeSig 4/4 24 8
0 Meta TrkName "                                    "
0 Meta TrkEnd
TrkEnd
MTrk
0 TimeSig 4/4 24 8
0 Meta TrkName "                                    "
0 Meta TrkEnd
TrkEnd
MTrk
0 TimeSig 4/4 24 8
0 Meta TrkName "                                    "
0 Meta TrkEnd
TrkEnd
MTrk
0 TimeSig 4/4 24 8
0 Meta TrkName "                                    "
0 Meta TrkEnd
TrkEnd
