MFile 1 18 240
MTrk
0 Tempo 500000
0 TimeSig 4/4 24 8
0 Meta Text "Mozart  Sonate B dur K.V.570 (3rd.mov.)  Play by Katsuhiro Oguri"
0 Meta TrkEnd
TrkEnd
MTrk
0 TimeSig 4/4 24 8
0 Meta TrkName "PIANO                               "
0 SysEx f0 41 10 42 12 40 00 7f 00 41 f7
0 SysEx f0 41 10 42 12 40 00 04 64 58 f7
170 SysEx f0 41 10 42 12 40 01 30 03 0c f7
170 SysEx f0 41 10 42 12 40 01 33 50 3c f7
170 SysEx f0 41 10 42 12 40 01 34 3c 4f f7
372 Par ch=1 c=0 v=0
374 Par ch=1 c=32 v=1
376 PrCh ch=1 p=0
378 Par ch=1 c=7 v=100
474 Par ch=1 c=11 v=100
570 Par ch=1 c=10 v=64
666 Par ch=1 c=1 v=0
666 Par ch=1 c=91 v=80
675 Par ch=1 c=99 v=1
677 Par ch=1 c=98 v=32
679 Par ch=1 c=6 v=62
681 Par ch=1 c=99 v=1
683 Par ch=1 c=98 v=33
685 Par ch=1 c=6 v=54
687 Par ch=1 c=99 v=1
689 Par ch=1 c=98 v=99
691 Par ch=1 c=6 v=62
693 Par ch=1 c=99 v=1
695 Par ch=1 c=98 v=100
697 Par ch=1 c=6 v=60
699 Par ch=1 c=99 v=1
701 Par ch=1 c=98 v=102
703 Par ch=1 c=6 v=70
1268 On ch=1 n=a#5 v=82
1323 On ch=1 n=a#5 v=0
1375 On ch=1 n=d6 v=90
1385 On ch=1 n=a#4 v=72
1407 On ch=1 n=d6 v=0
1452 On ch=1 n=a#4 v=0
1488 On ch=1 n=f5 v=52
1579 On ch=1 n=f5 v=0
1595 On ch=1 n=d#6 v=92
1599 On ch=1 n=c5 v=60
1619 On ch=1 n=d#6 v=0
1649 On ch=1 n=c5 v=0
1688 On ch=1 n=f5 v=41
1792 On ch=1 n=f5 v=0
1800 On ch=1 n=e6 v=102
1804 On ch=1 n=d5 v=68
1862 Par ch=1 c=64 v=63
1874 Par ch=1 c=64 v=127
1885 On ch=1 n=d5 v=0
1903 On ch=1 n=f5 v=43
1971 Par ch=1 c=64 v=63
1979 Par ch=1 c=64 v=0
1995 On ch=1 n=f6 v=93
2004 On ch=1 n=a#4 v=53
2013 On ch=1 n=e6 v=0
2016 On ch=1 n=f5 v=0
2030 On ch=1 n=f6 v=0
2077 On ch=1 n=a#4 v=0
2100 On ch=1 n=f5 v=55
2110 On ch=1 n=d6 v=76
2133 On ch=1 n=d6 v=0
2196 On ch=1 n=d6 v=91
2199 On ch=1 n=f5 v=0
2200 On ch=1 n=a4 v=55
2210 On ch=1 n=c6 v=94
2241 On ch=1 n=d6 v=0
2255 On ch=1 n=c6 v=0
2289 On ch=1 n=a4 v=0
2311 On ch=1 n=f5 v=41
2315 On ch=1 n=b5 v=85
2354 On ch=1 n=b5 v=0
2408 On ch=1 n=a#4 v=73
2410 On ch=1 n=c6 v=91
2413 On ch=1 n=f5 v=0
2437 On ch=1 n=c6 v=0
2478 On ch=1 n=a#4 v=0
2497 On ch=1 n=d6 v=106
2502 On ch=1 n=f5 v=64
2535 On ch=1 n=d6 v=0
2587 On ch=1 n=f5 v=0
2605 On ch=1 n=f6 v=104
2609 On ch=1 n=c5 v=69
2636 Par ch=1 c=64 v=63
2645 Par ch=1 c=64 v=127
2688 On ch=1 n=c5 v=0
2700 On ch=1 n=f5 v=60
2773 Par ch=1 c=64 v=63
2781 Par ch=1 c=64 v=0
2808 On ch=1 n=d#6 v=91
2811 On ch=1 n=d#5 v=74
2814 On ch=1 n=f6 v=0
2814 On ch=1 n=f5 v=0
2848 On ch=1 n=d#6 v=0
2881 On ch=1 n=d#5 v=0
2901 On ch=1 n=f5 v=59
2904 On ch=1 n=a5 v=78
2947 On ch=1 n=a5 v=0
3001 On ch=1 n=f5 v=0
3004 On ch=1 n=d5 v=74
3012 On ch=1 n=a#5 v=85
3030 On ch=1 n=a#5 v=0
3081 On ch=1 n=d5 v=0
3121 On ch=1 n=f5 v=32
3125 On ch=1 n=a#5 v=112
3132 Par ch=1 c=64 v=63
3134 Par ch=1 c=64 v=127
3152 On ch=1 n=a#5 v=0
3217 On ch=1 n=f5 v=0
3228 On ch=1 n=d5 v=60
3306 On ch=1 n=d5 v=0
3321 On ch=1 n=b5 v=97
3328 On ch=1 n=f5 v=53
3372 Par ch=1 c=64 v=63
3378 Par ch=1 c=64 v=0
3393 On ch=1 n=b5 v=0
3423 On ch=1 n=c6 v=84
3426 On ch=1 n=a4 v=70
3429 On ch=1 n=f5 v=0
3443 On ch=1 n=c6 v=0
3502 On ch=1 n=a4 v=0
3535 On ch=1 n=f5 v=56
3536 On ch=1 n=c6 v=109
3554 Par ch=1 c=64 v=63
3556 Par ch=1 c=64 v=127
3568 On ch=1 n=c6 v=0
3618 On ch=1 n=f5 v=0
3635 On ch=1 n=a4 v=73
3698 On ch=1 n=a4 v=0
3735 On ch=1 n=c#6 v=101
3737 On ch=1 n=f5 v=45
3778 On ch=1 n=c#6 v=0
3831 On ch=1 n=a#4 v=69
3831 On ch=1 n=d6 v=96
3838 On ch=1 n=f5 v=0
3838 Par ch=1 c=64 v=63
3843 Par ch=1 c=64 v=0
3868 On ch=1 n=d6 v=0
3882 On ch=1 n=a#4 v=0
3927 On ch=1 n=a4 v=73
3931 On ch=1 n=c6 v=91
3967 On ch=1 n=c6 v=0
3975 On ch=1 n=a4 v=0
4029 On ch=1 n=a#4 v=78
4032 On ch=1 n=d6 v=92
4050 On ch=1 n=a#4 v=0
4056 On ch=1 n=d6 v=0
4123 On ch=1 n=c6 v=94
4124 On ch=1 n=d#6 v=107
4127 On ch=1 n=d#4 v=97
4154 On ch=1 n=d#6 v=0
4157 On ch=1 n=c6 v=0
4183 On ch=1 n=d#4 v=0
4235 On ch=1 n=f4 v=99
4238 On ch=1 n=d6 v=109
4240 On ch=1 n=a#5 v=107
4242 Par ch=1 c=64 v=63
4244 Par ch=1 c=64 v=127
4265 On ch=1 n=f4 v=0
4267 On ch=1 n=a#5 v=0
4277 On ch=1 n=d6 v=0
4447 On ch=1 n=c6 v=98
4453 Par ch=1 c=64 v=63
4454 On ch=1 n=a5 v=69
4456 Par ch=1 c=64 v=0
4475 On ch=1 n=a5 v=0
4483 On ch=1 n=c6 v=0
4568 On ch=1 n=a#5 v=91
4599 On ch=1 n=c6 v=81
4600 On ch=1 n=a#5 v=0
4639 On ch=1 n=d6 v=102
4649 On ch=1 n=a#4 v=76
4654 On ch=1 n=c6 v=0
4666 On ch=1 n=d6 v=0
4714 On ch=1 n=a#4 v=0
4746 On ch=1 n=f5 v=48
4839 On ch=1 n=f5 v=0
4842 On ch=1 n=d#6 v=112
4853 On ch=1 n=c5 v=70
4871 On ch=1 n=d#6 v=0
4907 On ch=1 n=c5 v=0
4939 On ch=1 n=f5 v=46
5051 On ch=1 n=e6 v=109
5053 On ch=1 n=d5 v=80
5061 On ch=1 n=f5 v=0
5072 Par ch=1 c=64 v=63
5076 Par ch=1 c=64 v=127
5114 On ch=1 n=d5 v=0
5139 On ch=1 n=f5 v=51
5219 Par ch=1 c=64 v=63
5222 Par ch=1 c=64 v=0
5232 On ch=1 n=e6 v=0
5241 On ch=1 n=f6 v=83
5247 On ch=1 n=a#4 v=73
5252 On ch=1 n=f5 v=0
5274 On ch=1 n=f6 v=0
5304 On ch=1 n=a#4 v=0
5346 On ch=1 n=f5 v=45
5348 On ch=1 n=d6 v=86
5373 On ch=1 n=d6 v=0
5428 On ch=1 n=d6 v=80
5432 On ch=1 n=f5 v=0
5433 On ch=1 n=a4 v=73
5444 On ch=1 n=c6 v=84
5456 On ch=1 n=d6 v=0
5479 On ch=1 n=c6 v=0
5506 On ch=1 n=a4 v=0
5541 On ch=1 n=b5 v=85
5541 On ch=1 n=f5 v=54
5582 On ch=1 n=b5 v=0
5602 On ch=1 n=f5 v=0
5634 On ch=1 n=a#4 v=89
5636 On ch=1 n=c6 v=94
5671 On ch=1 n=c6 v=0
5685 On ch=1 n=a#4 v=0
5728 On ch=1 n=d6 v=101
5732 On ch=1 n=f5 v=65
5761 On ch=1 n=d6 v=0
5772 On ch=1 n=f5 v=0
5830 On ch=1 n=f6 v=109
5831 On ch=1 n=c5 v=79
5911 On ch=1 n=c5 v=0
5921 On ch=1 n=f5 v=71
6013 On ch=1 n=f5 v=0
6022 On ch=1 n=d#6 v=97
6025 On ch=1 n=f6 v=0
6030 On ch=1 n=d#5 v=88
6053 On ch=1 n=d#6 v=0
6072 On ch=1 n=d#5 v=0
6123 On ch=1 n=a5 v=89
6126 On ch=1 n=f5 v=57
6160 On ch=1 n=f5 v=0
6161 On ch=1 n=a5 v=0
6216 On ch=1 n=d5 v=107
6227 On ch=1 n=a#5 v=99
6229 Par ch=1 c=64 v=63
6232 Par ch=1 c=64 v=127
6239 On ch=1 n=d5 v=0
6248 On ch=1 n=a#5 v=0
6316 On ch=1 n=a#6 v=106
6325 Par ch=1 c=64 v=63
6330 Par ch=1 c=64 v=0
6356 On ch=1 n=a#6 v=0
6420 On ch=1 n=a#6 v=96
6455 On ch=1 n=a#6 v=0
6503 On ch=1 n=a#6 v=91
6539 On ch=1 n=a#6 v=0
6588 Par ch=1 c=64 v=63
6592 Par ch=1 c=64 v=127
6602 On ch=1 n=d#5 v=103
6604 On ch=1 n=c6 v=90
6612 On ch=1 n=g5 v=46
6617 On ch=1 n=d#5 v=0
6635 On ch=1 n=g5 v=0
6652 On ch=1 n=c6 v=0
6706 On ch=1 n=g6 v=68
6726 Par ch=1 c=64 v=63
6730 Par ch=1 c=64 v=0
6735 On ch=1 n=g6 v=0
6798 On ch=1 n=g6 v=88
6835 On ch=1 n=g6 v=0
6890 On ch=1 n=g6 v=88
6924 On ch=1 n=g6 v=0
6974 Par ch=1 c=64 v=63
6976 Par ch=1 c=64 v=127
6994 On ch=1 n=a#5 v=112
6997 On ch=1 n=d5 v=81
7001 On ch=1 n=f4 v=84
7019 On ch=1 n=d5 v=0
7024 On ch=1 n=a#5 v=0
7032 On ch=1 n=f4 v=0
7103 On ch=1 n=a#5 v=104
7129 On ch=1 n=a#5 v=0
7178 Par ch=1 c=64 v=63
7181 Par ch=1 c=64 v=0
7198 On ch=1 n=d#5 v=88
7202 On ch=1 n=c6 v=107
7224 On ch=1 n=d6 v=97
7236 On ch=1 n=d#5 v=0
7236 On ch=1 n=c6 v=0
7250 On ch=1 n=d6 v=0
7261 On ch=1 n=c6 v=100
7296 On ch=1 n=c6 v=0
7300 On ch=1 n=a#5 v=78
7325 On ch=1 n=c6 v=81
7336 On ch=1 n=a#5 v=0
7360 On ch=1 n=d6 v=86
7370 On ch=1 n=c6 v=0
7397 Par ch=1 c=64 v=63
7398 On ch=1 n=d6 v=0
7398 Par ch=1 c=64 v=127
7400 On ch=1 n=a#5 v=116
7409 On ch=1 n=a#4 v=96
7412 On ch=1 n=d5 v=82
7430 On ch=1 n=a#5 v=0
7430 On ch=1 n=d5 v=0
7431 On ch=1 n=a#4 v=0
7602 Par ch=1 c=64 v=63
7606 Par ch=1 c=64 v=0
7713 On ch=1 n=a#5 v=91
7752 On ch=1 n=a#5 v=0
7759 On ch=1 n=d6 v=80
7787 On ch=1 n=f6 v=107
7794 On ch=1 n=f4 v=113
7806 On ch=1 n=d6 v=0
7821 On ch=1 n=f6 v=0
7889 On ch=1 n=a4 v=89
7916 On ch=1 n=f4 v=0
7993 On ch=1 n=g4 v=103
7996 On ch=1 n=e6 v=112
8022 On ch=1 n=a4 v=0
8030 On ch=1 n=e6 v=0
8078 On ch=1 n=a#4 v=112
8098 On ch=1 n=g#4 v=40
8122 On ch=1 n=g4 v=0
8128 On ch=1 n=g#4 v=0
8178 On ch=1 n=c7 v=113
8182 On ch=1 n=a4 v=109
8184 On ch=1 n=a#4 v=0
8216 On ch=1 n=c7 v=0
8291 On ch=1 n=c5 v=104
8292 On ch=1 n=a4 v=0
8298 On ch=1 n=d#6 v=118
8312 Par ch=1 c=64 v=63
8313 Par ch=1 c=64 v=127
8380 On ch=1 n=d#6 v=0
8398 On ch=1 n=a#4 v=105
8404 On ch=1 n=c5 v=0
8475 On ch=1 n=a#4 v=0
8494 On ch=1 n=d6 v=113
8505 On ch=1 n=f5 v=60
8550 Par ch=1 c=64 v=63
8558 Par ch=1 c=64 v=0
8595 On ch=1 n=d#5 v=108
8596 On ch=1 n=f5 v=0
8700 On ch=1 n=b5 v=99
8701 On ch=1 n=d6 v=0
8789 On ch=1 n=b5 v=0
8801 On ch=1 n=c6 v=93
8876 On ch=1 n=d#5 v=0
8877 On ch=1 n=c6 v=0
8896 On ch=1 n=g6 v=90
8899 On ch=1 n=e5 v=84
8937 On ch=1 n=g6 v=0
8968 On ch=1 n=e5 v=0
9000 On ch=1 n=a#5 v=112
9002 On ch=1 n=f5 v=86
9010 Par ch=1 c=64 v=63
9013 Par ch=1 c=64 v=127
9037 On ch=1 n=a#5 v=0
9046 On ch=1 n=f5 v=0
9163 On ch=1 n=c6 v=71
9180 On ch=1 n=a#5 v=95
9202 On ch=1 n=c6 v=0
9206 Par ch=1 c=64 v=63
9208 Par ch=1 c=64 v=0
9209 On ch=1 n=a5 v=94
9219 On ch=1 n=a#5 v=0
9244 On ch=1 n=a5 v=0
9325 On ch=1 n=a5 v=97
9363 On ch=1 n=a5 v=0
9370 On ch=1 n=c6 v=103
9408 On ch=1 n=f6 v=112
9414 On ch=1 n=c6 v=0
9425 On ch=1 n=f4 v=96
9445 On ch=1 n=f6 v=0
9531 On ch=1 n=a4 v=94
9545 On ch=1 n=f4 v=0
9624 On ch=1 n=e6 v=113
9625 On ch=1 n=g4 v=100
9656 On ch=1 n=a4 v=0
9665 On ch=1 n=e6 v=0
9706 On ch=1 n=a#4 v=106
9734 On ch=1 n=g4 v=0
9801 On ch=1 n=c7 v=103
9806 On ch=1 n=a4 v=91
9829 On ch=1 n=a#4 v=0
9836 On ch=1 n=c7 v=0
9913 On ch=1 n=c5 v=79
9917 On ch=1 n=a4 v=0
9922 On ch=1 n=d#6 v=115
9939 Par ch=1 c=64 v=63
9941 Par ch=1 c=64 v=127
10020 On ch=1 n=a#4 v=106
10030 On ch=1 n=c5 v=0
10069 On ch=1 n=d#6 v=0
10116 On ch=1 n=a#4 v=0
10118 On ch=1 n=d6 v=104
10125 On ch=1 n=f5 v=73
10163 On ch=1 n=f5 v=0
10164 On ch=1 n=d6 v=0
10232 On ch=1 n=a#5 v=91
10237 On ch=1 n=g5 v=64
10243 Par ch=1 c=64 v=63
10245 Par ch=1 c=64 v=127
10334 On ch=1 n=a#6 v=99
10352 Par ch=1 c=64 v=63
10354 Par ch=1 c=64 v=0
10448 On ch=1 n=g6 v=94
10465 On ch=1 n=a#6 v=0
10543 On ch=1 n=e6 v=88
10552 On ch=1 n=g6 v=0
10622 On ch=1 n=a#5 v=0
10640 On ch=1 n=e6 v=0
10643 On ch=1 n=f6 v=99
10645 On ch=1 n=g5 v=0
10652 On ch=1 n=a5 v=59
10667 On ch=1 n=f5 v=42
10741 On ch=1 n=a6 v=88
10745 On ch=1 n=f6 v=0
10816 On ch=1 n=a6 v=0
10842 On ch=1 n=c7 v=84
10859 On ch=1 n=f5 v=0
10865 On ch=1 n=c7 v=0
10871 On ch=1 n=a5 v=0
10954 On ch=1 n=c7 v=94
10976 On ch=1 n=c7 v=0
11056 On ch=1 n=g5 v=97
11060 On ch=1 n=a#5 v=97
11164 On ch=1 n=c7 v=103
11174 Par ch=1 c=64 v=63
11177 Par ch=1 c=64 v=127
11213 On ch=1 n=a#6 v=105
11223 On ch=1 n=c7 v=0
11265 On ch=1 n=a6 v=89
11276 On ch=1 n=a#6 v=0
11311 On ch=1 n=g6 v=86
11312 On ch=1 n=a6 v=0
11342 On ch=1 n=a#5 v=0
11354 On ch=1 n=f6 v=94
11358 On ch=1 n=g6 v=0
11400 On ch=1 n=e6 v=100
11407 On ch=1 n=g5 v=0
11408 On ch=1 n=f6 v=0
11431 Par ch=1 c=64 v=63
11435 Par ch=1 c=64 v=0
11444 On ch=1 n=a5 v=76
11446 On ch=1 n=e6 v=0
11451 On ch=1 n=f6 v=91
11455 On ch=1 n=f5 v=60
11489 On ch=1 n=f6 v=0
11496 On ch=1 n=c6 v=89
11542 On ch=1 n=c6 v=0
11544 On ch=1 n=f6 v=80
11586 On ch=1 n=a6 v=102
11597 On ch=1 n=f6 v=0
11626 On ch=1 n=a6 v=0
11636 On ch=1 n=c7 v=103
11663 On ch=1 n=f5 v=0
11666 On ch=1 n=c7 v=0
11675 On ch=1 n=a5 v=0
11743 On ch=1 n=c7 v=121
11774 On ch=1 n=c7 v=0
11852 On ch=1 n=g5 v=107
11856 On ch=1 n=a#5 v=112
11912 On ch=1 n=a6 v=104
11951 On ch=1 n=c7 v=99
11960 On ch=1 n=a6 v=0
12000 On ch=1 n=a#6 v=103
12018 On ch=1 n=c7 v=0
12048 On ch=1 n=a6 v=98
12072 On ch=1 n=a#6 v=0
12095 On ch=1 n=a6 v=0
12096 On ch=1 n=g6 v=90
12143 On ch=1 n=f6 v=86
12149 On ch=1 n=g6 v=0
12178 On ch=1 n=e6 v=76
12182 On ch=1 n=f6 v=0
12197 On ch=1 n=a#5 v=0
12217 On ch=1 n=e6 v=0
12219 Par ch=1 c=64 v=63
12222 On ch=1 n=g5 v=0
12224 Par ch=1 c=64 v=127
12228 On ch=1 n=f6 v=81
12238 On ch=1 n=a5 v=63
12259 On ch=1 n=f5 v=60
12283 On ch=1 n=f#6 v=95
12290 On ch=1 n=f6 v=0
12310 Par ch=1 c=64 v=63
12316 Par ch=1 c=64 v=0
12334 On ch=1 n=f#6 v=0
12341 On ch=1 n=a6 v=84
12360 Par ch=1 c=64 v=63
12371 Par ch=1 c=64 v=127
12382 On ch=1 n=g6 v=89
12404 On ch=1 n=a6 v=0
12428 On ch=1 n=f6 v=90
12444 Par ch=1 c=64 v=63
12448 On ch=1 n=g6 v=0
12450 Par ch=1 c=64 v=0
12456 On ch=1 n=a5 v=0
12464 On ch=1 n=f5 v=0
12475 On ch=1 n=d#6 v=101
12485 On ch=1 n=f6 v=0
12515 On ch=1 n=d#6 v=0
12520 On ch=1 n=d6 v=80
12569 On ch=1 n=c#6 v=76
12570 On ch=1 n=d6 v=0
12601 On ch=1 n=c#6 v=0
12626 On ch=1 n=d6 v=92
12640 On ch=1 n=a#4 v=76
12660 On ch=1 n=d6 v=0
12747 On ch=1 n=a#4 v=0
12757 On ch=1 n=f5 v=41
12856 On ch=1 n=d#6 v=104
12867 On ch=1 n=c5 v=68
12869 On ch=1 n=f5 v=0
12877 On ch=1 n=d#6 v=0
12946 On ch=1 n=c5 v=0
12951 On ch=1 n=f5 v=36
13065 On ch=1 n=e6 v=102
13068 On ch=1 n=d5 v=58
13070 On ch=1 n=f5 v=0
13085 Par ch=1 c=64 v=63
13089 Par ch=1 c=64 v=127
13142 On ch=1 n=d5 v=0
13158 On ch=1 n=f5 v=50
13228 Par ch=1 c=64 v=63
13233 Par ch=1 c=64 v=0
13252 On ch=1 n=e6 v=0
13264 On ch=1 n=f6 v=88
13272 On ch=1 n=a#4 v=65
13277 On ch=1 n=f5 v=0
13305 On ch=1 n=f6 v=0
13349 On ch=1 n=a#4 v=0
13368 On ch=1 n=f5 v=56
13373 On ch=1 n=d6 v=93
13403 On ch=1 n=d6 v=0
13465 On ch=1 n=d6 v=94
13468 On ch=1 n=f5 v=0
13469 On ch=1 n=a4 v=57
13479 On ch=1 n=c6 v=88
13496 On ch=1 n=d6 v=0
13519 On ch=1 n=c6 v=0
13543 On ch=1 n=a4 v=0
13564 On ch=1 n=f5 v=45
13579 On ch=1 n=b5 v=91
13617 On ch=1 n=b5 v=0
13669 On ch=1 n=a#4 v=76
13671 On ch=1 n=c6 v=97
13672 On ch=1 n=f5 v=0
13709 On ch=1 n=c6 v=0
13742 On ch=1 n=a#4 v=0
13757 On ch=1 n=d6 v=101
13759 On ch=1 n=f5 v=70
13792 On ch=1 n=d6 v=0
13845 On ch=1 n=f5 v=0
13868 On ch=1 n=f6 v=112
13868 On ch=1 n=c5 v=76
13886 Par ch=1 c=64 v=63
13891 Par ch=1 c=64 v=127
13951 On ch=1 n=c5 v=0
13951 On ch=1 n=f5 v=68
14017 Par ch=1 c=64 v=63
14023 Par ch=1 c=64 v=0
14054 On ch=1 n=f6 v=0
14058 On ch=1 n=d#6 v=98
14074 On ch=1 n=f5 v=0
14076 On ch=1 n=d#5 v=73
14095 On ch=1 n=d#6 v=0
14136 On ch=1 n=d#5 v=0
14161 On ch=1 n=f5 v=53
14164 On ch=1 n=a5 v=83
14205 On ch=1 n=a5 v=0
14264 On ch=1 n=f5 v=0
14267 On ch=1 n=a#5 v=107
14268 On ch=1 n=d5 v=75
14298 On ch=1 n=a#5 v=0
14332 On ch=1 n=d5 v=0
14375 On ch=1 n=f5 v=43
14385 On ch=1 n=a#5 v=109
14400 Par ch=1 c=64 v=63
14403 Par ch=1 c=64 v=127
14413 On ch=1 n=a#5 v=0
14475 On ch=1 n=f5 v=0
14490 On ch=1 n=d5 v=76
14569 On ch=1 n=d5 v=0
14585 On ch=1 n=f5 v=54
14587 On ch=1 n=b5 v=98
14639 Par ch=1 c=64 v=63
14646 Par ch=1 c=64 v=0
14648 On ch=1 n=b5 v=0
14680 On ch=1 n=c6 v=96
14685 On ch=1 n=a4 v=63
14687 On ch=1 n=f5 v=0
14711 On ch=1 n=c6 v=0
14749 On ch=1 n=a4 v=0
14793 On ch=1 n=f5 v=48
14794 On ch=1 n=c6 v=117
14803 Par ch=1 c=64 v=63
14805 Par ch=1 c=64 v=127
14833 On ch=1 n=c6 v=0
14898 On ch=1 n=a4 v=77
14899 On ch=1 n=f5 v=0
14980 On ch=1 n=a4 v=0
14986 On ch=1 n=c#6 v=104
14986 On ch=1 n=f5 v=65
15031 On ch=1 n=c#6 v=0
15061 Par ch=1 c=64 v=63
15065 Par ch=1 c=64 v=0
15087 On ch=1 n=a#4 v=88
15088 On ch=1 n=d6 v=97
15090 On ch=1 n=f5 v=0
15122 On ch=1 n=d6 v=0
15129 On ch=1 n=a#4 v=0
15186 On ch=1 n=c6 v=90
15190 On ch=1 n=a4 v=61
15219 On ch=1 n=c6 v=0
15220 On ch=1 n=a4 v=0
15290 On ch=1 n=d6 v=88
15293 On ch=1 n=a#4 v=82
15314 On ch=1 n=d6 v=0
15323 On ch=1 n=a#4 v=0
15386 On ch=1 n=d#6 v=110
15388 On ch=1 n=c6 v=91
15395 On ch=1 n=d#4 v=91
15413 On ch=1 n=c6 v=0
15417 On ch=1 n=d#4 v=0
15418 On ch=1 n=d#6 v=0
15499 On ch=1 n=f4 v=101
15502 Par ch=1 c=64 v=63
15503 On ch=1 n=a#5 v=101
15504 Par ch=1 c=64 v=127
15505 On ch=1 n=d6 v=101
15525 On ch=1 n=a#5 v=0
15528 On ch=1 n=f4 v=0
15536 On ch=1 n=d6 v=0
15711 On ch=1 n=a5 v=89
15716 On ch=1 n=c6 v=86
15736 On ch=1 n=a5 v=0
15736 Par ch=1 c=64 v=63
15739 Par ch=1 c=64 v=0
15743 On ch=1 n=c6 v=0
15839 On ch=1 n=a#5 v=74
15859 On ch=1 n=a#5 v=0
15877 On ch=1 n=c6 v=78
15906 On ch=1 n=d6 v=92
15914 On ch=1 n=a#4 v=82
15920 On ch=1 n=c6 v=0
15936 On ch=1 n=d6 v=0
16000 On ch=1 n=a#4 v=0
16018 On ch=1 n=f5 v=57
16111 On ch=1 n=f5 v=0
16114 On ch=1 n=d#6 v=113
16129 On ch=1 n=c5 v=76
16139 On ch=1 n=d#6 v=0
16202 On ch=1 n=c5 v=0
16216 On ch=1 n=f5 v=41
16313 On ch=1 n=f5 v=0
16315 On ch=1 n=e6 v=111
16317 On ch=1 n=d5 v=72
16322 Par ch=1 c=64 v=63
16325 Par ch=1 c=64 v=127
16390 On ch=1 n=d5 v=0
16406 On ch=1 n=f5 v=54
16482 Par ch=1 c=64 v=63
16489 Par ch=1 c=64 v=0
16498 On ch=1 n=e6 v=0
16508 On ch=1 n=f6 v=88
16512 On ch=1 n=a#4 v=66
16531 On ch=1 n=f5 v=0
16547 On ch=1 n=f6 v=0
16588 On ch=1 n=a#4 v=0
16605 On ch=1 n=f5 v=56
16610 On ch=1 n=d6 v=96
16647 On ch=1 n=d6 v=0
16694 On ch=1 n=d6 v=94
16698 On ch=1 n=f5 v=0
16699 On ch=1 n=a4 v=62
16717 On ch=1 n=c6 v=84
16731 On ch=1 n=d6 v=0
16758 On ch=1 n=c6 v=0
16790 On ch=1 n=a4 v=0
16811 On ch=1 n=b5 v=90
16811 On ch=1 n=f5 v=38
16849 On ch=1 n=b5 v=0
16897 On ch=1 n=c6 v=101
16902 On ch=1 n=a#4 v=78
16906 On ch=1 n=f5 v=0
16938 On ch=1 n=c6 v=0
16989 On ch=1 n=a#4 v=0
16995 On ch=1 n=f5 v=68
16999 On ch=1 n=d6 v=101
17035 On ch=1 n=d6 v=0
17084 On ch=1 n=f5 v=0
17104 On ch=1 n=f6 v=113
17104 On ch=1 n=c5 v=97
17105 Par ch=1 c=64 v=63
17107 Par ch=1 c=64 v=127
17197 On ch=1 n=f5 v=66
17200 On ch=1 n=c5 v=0
17290 On ch=1 n=f6 v=0
17292 Par ch=1 c=64 v=63
17297 Par ch=1 c=64 v=0
17309 On ch=1 n=d#6 v=91
17315 On ch=1 n=f5 v=0
17316 On ch=1 n=d#5 v=76
17357 On ch=1 n=d#6 v=0
17371 On ch=1 n=d#5 v=0
17402 On ch=1 n=a5 v=75
17407 On ch=1 n=f5 v=49
17456 On ch=1 n=a5 v=0
17478 On ch=1 n=f5 v=0
17488 Par ch=1 c=64 v=63
17489 Par ch=1 c=64 v=127
17500 On ch=1 n=a#5 v=99
17501 On ch=1 n=d5 v=101
17525 On ch=1 n=a#5 v=0
17528 On ch=1 n=d5 v=0
17597 Par ch=1 c=64 v=63
17600 Par ch=1 c=64 v=0
17603 On ch=1 n=a#6 v=104
17640 On ch=1 n=a#6 v=0
17715 On ch=1 n=a#6 v=84
17735 On ch=1 n=a#6 v=0
17807 On ch=1 n=a#6 v=89
17828 On ch=1 n=a#6 v=0
17885 Par ch=1 c=64 v=63
17886 Par ch=1 c=64 v=127
17904 On ch=1 n=d#5 v=104
17905 On ch=1 n=g5 v=87
17912 On ch=1 n=c6 v=97
17927 On ch=1 n=d#5 v=0
17930 On ch=1 n=g5 v=0
17958 On ch=1 n=c6 v=0
18008 On ch=1 n=g6 v=89
18011 Par ch=1 c=64 v=63
18016 Par ch=1 c=64 v=0
18045 On ch=1 n=g6 v=0
18108 On ch=1 n=g6 v=104
18143 On ch=1 n=g6 v=0
18203 On ch=1 n=g6 v=97
18237 On ch=1 n=g6 v=0
18279 Par ch=1 c=64 v=63
18280 Par ch=1 c=64 v=127
18303 On ch=1 n=d5 v=101
18305 On ch=1 n=a#5 v=116
18308 On ch=1 n=f4 v=97
18335 On ch=1 n=a#5 v=0
18338 On ch=1 n=d5 v=0
18408 On ch=1 n=a#5 v=98
18440 On ch=1 n=a#5 v=0
18474 Par ch=1 c=64 v=63
18478 Par ch=1 c=64 v=0
18501 On ch=1 n=c6 v=102
18506 On ch=1 n=d#5 v=83
18529 On ch=1 n=d6 v=96
18538 On ch=1 n=c6 v=0
18547 On ch=1 n=d6 v=0
18548 On ch=1 n=d#5 v=0
18554 On ch=1 n=f4 v=0
18559 On ch=1 n=c6 v=87
18594 On ch=1 n=c6 v=0
18594 On ch=1 n=a#5 v=94
18625 On ch=1 n=c6 v=78
18633 On ch=1 n=a#5 v=0
18662 On ch=1 n=d6 v=91
18674 On ch=1 n=c6 v=0
18701 On ch=1 n=d6 v=0
18709 On ch=1 n=a#5 v=118
18715 Par ch=1 c=64 v=127
18716 On ch=1 n=d5 v=108
18717 On ch=1 n=a#4 v=106
18739 On ch=1 n=a#5 v=0
18879 On ch=1 n=d5 v=0
18887 On ch=1 n=a#4 v=0
18940 Par ch=1 c=64 v=63
18947 Par ch=1 c=64 v=0
19049 On ch=1 n=f5 v=125
19063 Par ch=1 c=64 v=63
19065 Par ch=1 c=64 v=127
19158 On ch=1 n=d6 v=111
19161 On ch=1 n=a#3 v=115
19184 On ch=1 n=f5 v=0
19204 On ch=1 n=d6 v=0
19227 Par ch=1 c=64 v=63
19231 Par ch=1 c=64 v=0
19273 On ch=1 n=d6 v=121
19275 On ch=1 n=f5 v=120
19277 On ch=1 n=a#4 v=112
19287 Par ch=1 c=64 v=63
19291 Par ch=1 c=64 v=127
19307 On ch=1 n=f5 v=0
19314 On ch=1 n=d6 v=0
19332 On ch=1 n=a#4 v=0
19358 On ch=1 n=a#3 v=0
19377 On ch=1 n=a#4 v=80
19413 On ch=1 n=a#4 v=0
19470 On ch=1 n=a#4 v=81
19479 On ch=1 n=d5 v=102
19479 On ch=1 n=a#5 v=112
19509 On ch=1 n=d5 v=0
19534 On ch=1 n=a#5 v=0
19539 Par ch=1 c=64 v=63
19543 Par ch=1 c=64 v=0
19562 On ch=1 n=a#4 v=0
19571 On ch=1 n=a#3 v=90
19586 On ch=1 n=g5 v=99
19586 On ch=1 n=d#6 v=106
19605 On ch=1 n=g5 v=0
19607 On ch=1 n=d#6 v=0
19694 On ch=1 n=d#6 v=119
19697 On ch=1 n=g5 v=111
19698 Par ch=1 c=64 v=63
19699 On ch=1 n=a#3 v=0
19699 Par ch=1 c=64 v=127
19701 On ch=1 n=a#4 v=88
19718 On ch=1 n=g5 v=0
19727 On ch=1 n=d#6 v=0
19745 On ch=1 n=a#4 v=0
19799 On ch=1 n=a#4 v=89
19844 On ch=1 n=a#4 v=0
19890 On ch=1 n=a#4 v=85
19895 On ch=1 n=c6 v=102
19902 On ch=1 n=d#5 v=89
19920 On ch=1 n=d#5 v=0
19922 On ch=1 n=a#4 v=0
20000 On ch=1 n=g5 v=93
20002 On ch=1 n=d#5 v=105
20008 On ch=1 n=a#4 v=77
20009 On ch=1 n=c6 v=0
20019 Par ch=1 c=64 v=63
20027 Par ch=1 c=64 v=0
20100 On ch=1 n=a#5 v=101
20116 On ch=1 n=g5 v=0
20201 On ch=1 n=a5 v=78
20211 On ch=1 n=c5 v=74
20221 On ch=1 n=d#5 v=0
20225 On ch=1 n=a#5 v=0
20291 On ch=1 n=c6 v=87
20299 On ch=1 n=a5 v=0
20369 On ch=1 n=c6 v=0
20399 On ch=1 n=d5 v=61
20401 On ch=1 n=a#5 v=98
20411 On ch=1 n=c5 v=0
20421 Par ch=1 c=64 v=63
20426 Par ch=1 c=64 v=127
20444 On ch=1 n=a#5 v=0
20451 On ch=1 n=a5 v=87
20496 On ch=1 n=a#5 v=94
20508 On ch=1 n=a5 v=0
20522 Par ch=1 c=64 v=63
20529 Par ch=1 c=64 v=0
20538 On ch=1 n=c6 v=91
20544 On ch=1 n=a#5 v=0
20582 On ch=1 n=a#5 v=94
20589 On ch=1 n=d5 v=0
20598 On ch=1 n=c6 v=0
20615 On ch=1 n=a#4 v=0
20616 On ch=1 n=a#5 v=0
20704 On ch=1 n=a#5 v=116
20797 On ch=1 n=a#5 v=0
20799 Par ch=1 c=64 v=63
20799 Par ch=1 c=64 v=127
20802 On ch=1 n=a#3 v=113
20811 On ch=1 n=f6 v=96
20813 On ch=1 n=d6 v=98
20849 On ch=1 n=d6 v=0
20866 On ch=1 n=f6 v=0
20898 Par ch=1 c=64 v=63
20902 Par ch=1 c=64 v=0
20926 On ch=1 n=f6 v=116
20930 On ch=1 n=d6 v=116
20930 Par ch=1 c=64 v=63
20931 On ch=1 n=a#4 v=104
20939 Par ch=1 c=64 v=127
20983 On ch=1 n=a#4 v=0
21000 On ch=1 n=d6 v=0
21011 On ch=1 n=f6 v=0
21036 On ch=1 n=a#4 v=88
21079 On ch=1 n=a#4 v=0
21118 On ch=1 n=a#3 v=0
21126 On ch=1 n=a#4 v=87
21130 On ch=1 n=d6 v=106
21134 On ch=1 n=a#5 v=94
21194 On ch=1 n=a#5 v=0
21218 On ch=1 n=a#4 v=0
21223 On ch=1 n=d6 v=0
21229 On ch=1 n=d#6 v=107
21232 On ch=1 n=g6 v=92
21236 On ch=1 n=a#3 v=98
21238 Par ch=1 c=64 v=63
21243 Par ch=1 c=64 v=0
21264 On ch=1 n=d#6 v=0
21272 On ch=1 n=g6 v=0
21347 On ch=1 n=g6 v=116
21347 On ch=1 n=d#6 v=125
21352 On ch=1 n=a#4 v=96
21357 Par ch=1 c=64 v=63
21358 Par ch=1 c=64 v=127
21398 On ch=1 n=d#6 v=0
21401 On ch=1 n=g6 v=0
21406 On ch=1 n=a#4 v=0
21448 On ch=1 n=a#4 v=78
21473 On ch=1 n=a#3 v=0
21494 On ch=1 n=a#4 v=0
21541 On ch=1 n=a#4 v=78
21547 On ch=1 n=d#6 v=105
21561 On ch=1 n=c6 v=55
21568 On ch=1 n=a#4 v=0
21588 On ch=1 n=d#6 v=0
21588 On ch=1 n=c6 v=0
21646 On ch=1 n=g5 v=86
21650 On ch=1 n=a#4 v=91
21656 On ch=1 n=a#5 v=93
21696 Par ch=1 c=64 v=63
21704 Par ch=1 c=64 v=0
21742 On ch=1 n=a#5 v=0
21745 On ch=1 n=d6 v=83
21770 On ch=1 n=g5 v=0
21842 Par ch=1 c=64 v=63
21846 On ch=1 n=a5 v=83
21848 Par ch=1 c=64 v=127
21852 On ch=1 n=c6 v=84
21878 On ch=1 n=d6 v=0
21900 On ch=1 n=a5 v=0
21936 On ch=1 n=c6 v=0
21955 On ch=1 n=d#6 v=91
21998 On ch=1 n=d#6 v=0
22003 Par ch=1 c=64 v=63
22012 Par ch=1 c=64 v=0
22047 On ch=1 n=a#5 v=83
22056 On ch=1 n=d6 v=91
22058 Par ch=1 c=64 v=63
22068 Par ch=1 c=64 v=127
22088 On ch=1 n=d6 v=0
22096 On ch=1 n=c6 v=74
22137 On ch=1 n=d6 v=85
22144 Par ch=1 c=64 v=63
22147 On ch=1 n=c6 v=0
22161 Par ch=1 c=64 v=0
22181 Par ch=1 c=64 v=63
22184 On ch=1 n=d#6 v=93
22191 On ch=1 n=d6 v=0
22201 Par ch=1 c=64 v=127
22231 On ch=1 n=d#6 v=0
22235 On ch=1 n=d6 v=84
22249 On ch=1 n=a#4 v=0
22270 On ch=1 n=a#5 v=0
22274 On ch=1 n=d6 v=0
22344 Par ch=1 c=64 v=63
22351 Par ch=1 c=64 v=0
22358 On ch=1 n=d6 v=84
22443 Par ch=1 c=64 v=63
22447 On ch=1 n=d6 v=0
22451 Par ch=1 c=64 v=127
22472 On ch=1 n=d7 v=84
22473 On ch=1 n=f#5 v=67
22511 On ch=1 n=d7 v=0
22573 On ch=1 n=f#5 v=0
22596 On ch=1 n=a5 v=43
22596 On ch=1 n=d7 v=92
22704 On ch=1 n=a#6 v=101
22709 On ch=1 n=g5 v=69
22738 On ch=1 n=d7 v=0
22741 On ch=1 n=a5 v=0
22793 On ch=1 n=a#5 v=92
22799 On ch=1 n=g6 v=94
22833 On ch=1 n=a#6 v=0
22833 On ch=1 n=g5 v=0
22901 On ch=1 n=a5 v=88
22902 On ch=1 n=f#6 v=108
22923 On ch=1 n=a#5 v=0
22929 On ch=1 n=g6 v=0
22967 Par ch=1 c=64 v=63
23009 On ch=1 n=c6 v=94
23027 Par ch=1 c=64 v=127
23045 On ch=1 n=a5 v=0
23086 Par ch=1 c=64 v=63
23109 On ch=1 n=g6 v=103
23111 On ch=1 n=f#6 v=0
23115 On ch=1 n=a#5 v=93
23126 On ch=1 n=c6 v=0
23198 On ch=1 n=d7 v=101
23199 On ch=1 n=g6 v=0
23202 On ch=1 n=d6 v=82
23204 On ch=1 n=a#5 v=0
23246 On ch=1 n=d7 v=0
23287 On ch=1 n=d6 v=0
23298 On ch=1 n=e5 v=83
23301 On ch=1 n=b6 v=99
23343 Par ch=1 c=64 v=0
23343 On ch=1 n=c7 v=98
23348 On ch=1 n=b6 v=0
23393 On ch=1 n=g5 v=68
23394 On ch=1 n=d7 v=97
23398 On ch=1 n=c7 v=0
23401 On ch=1 n=e5 v=0
23444 On ch=1 n=c7 v=80
23456 On ch=1 n=d7 v=0
23478 On ch=1 n=a#6 v=103
23488 On ch=1 n=f5 v=66
23490 On ch=1 n=c7 v=0
23501 On ch=1 n=g5 v=0
23533 On ch=1 n=a6 v=84
23542 On ch=1 n=a#6 v=0
23571 On ch=1 n=a6 v=0
23575 On ch=1 n=g6 v=82
23583 On ch=1 n=a5 v=68
23584 On ch=1 n=f5 v=0
23619 On ch=1 n=g6 v=0
23619 On ch=1 n=f6 v=89
23659 On ch=1 n=f6 v=0
23669 On ch=1 n=e6 v=83
23684 On ch=1 n=g5 v=63
23685 On ch=1 n=a5 v=0
23774 On ch=1 n=a#5 v=72
23790 On ch=1 n=g5 v=0
23857 On ch=1 n=e6 v=0
23867 On ch=1 n=a#5 v=0
23877 On ch=1 n=f6 v=81
23881 On ch=1 n=a5 v=63
23928 On ch=1 n=f6 v=0
23961 On ch=1 n=a5 v=0
23973 On ch=1 n=c7 v=84
23979 On ch=1 n=c6 v=77
24003 On ch=1 n=c7 v=0
24009 On ch=1 n=c6 v=0
24067 Par ch=1 c=64 v=63
24076 Par ch=1 c=64 v=127
24079 On ch=1 n=f7 v=120
24086 On ch=1 n=a4 v=112
24090 On ch=1 n=f5 v=108
24104 On ch=1 n=f5 v=0
24118 On ch=1 n=a4 v=0
24135 On ch=1 n=e7 v=102
24165 On ch=1 n=f7 v=0
24179 On ch=1 n=d7 v=97
24194 On ch=1 n=e7 v=0
24226 On ch=1 n=d7 v=0
24232 On ch=1 n=c7 v=88
24284 On ch=1 n=a#6 v=109
24294 On ch=1 n=c7 v=0
24306 Par ch=1 c=64 v=63
24316 Par ch=1 c=64 v=0
24331 On ch=1 n=a6 v=101
24358 On ch=1 n=a#6 v=0
24375 On ch=1 n=g6 v=96
24402 On ch=1 n=a6 v=0
24416 On ch=1 n=f6 v=99
24438 On ch=1 n=g6 v=0
24468 On ch=1 n=f6 v=0
24470 On ch=1 n=a#4 v=101
24474 On ch=1 n=f5 v=111
24474 On ch=1 n=g5 v=104
24479 On ch=1 n=d7 v=107
24491 Par ch=1 c=64 v=63
24495 Par ch=1 c=64 v=127
24503 On ch=1 n=f5 v=0
24506 On ch=1 n=g5 v=0
24507 On ch=1 n=a#4 v=0
24526 On ch=1 n=c7 v=93
24555 On ch=1 n=d7 v=0
24570 On ch=1 n=a#6 v=99
24591 On ch=1 n=c7 v=0
24619 On ch=1 n=a#6 v=0
24619 On ch=1 n=a6 v=96
24663 On ch=1 n=g6 v=93
24665 Par ch=1 c=64 v=63
24671 On ch=1 n=a6 v=0
24677 Par ch=1 c=64 v=0
24712 On ch=1 n=g6 v=0
24715 On ch=1 n=f6 v=99
24755 On ch=1 n=e6 v=94
24769 On ch=1 n=f6 v=0
24795 On ch=1 n=d6 v=88
24801 Par ch=1 c=64 v=63
24802 On ch=1 n=e6 v=0
24812 Par ch=1 c=64 v=127
24830 On ch=1 n=d6 v=0
24860 On ch=1 n=a5 v=108
24860 On ch=1 n=c5 v=107
24865 On ch=1 n=c6 v=94
24883 Par ch=1 c=64 v=63
24888 On ch=1 n=c5 v=0
24891 On ch=1 n=a5 v=0
24895 Par ch=1 c=64 v=0
24904 On ch=1 n=f6 v=102
24914 On ch=1 n=c6 v=0
24971 On ch=1 n=a6 v=92
24981 On ch=1 n=f6 v=0
25004 On ch=1 n=c7 v=77
25022 On ch=1 n=a6 v=0
25028 On ch=1 n=c7 v=0
25057 On ch=1 n=c7 v=97
25059 On ch=1 n=a#5 v=120
25060 On ch=1 n=c5 v=101
25096 On ch=1 n=a#6 v=103
25119 On ch=1 n=a#5 v=0
25124 On ch=1 n=c7 v=0
25150 On ch=1 n=a6 v=100
25184 On ch=1 n=a#6 v=0
25187 On ch=1 n=g6 v=101
25214 On ch=1 n=a6 v=0
25234 On ch=1 n=g6 v=0
25256 On ch=1 n=a#5 v=118
25257 On ch=1 n=g6 v=116
25260 On ch=1 n=f5 v=99
25261 On ch=1 n=c5 v=0
25289 Par ch=1 c=64 v=63
25293 Par ch=1 c=64 v=127
25400 On ch=1 n=a#5 v=0
25473 On ch=1 n=f6 v=104
25478 On ch=1 n=a5 v=84
25480 On ch=1 n=g6 v=0
25497 Par ch=1 c=64 v=63
25508 Par ch=1 c=64 v=0
25510 On ch=1 n=a5 v=0
25518 On ch=1 n=f6 v=0
25519 On ch=1 n=f5 v=0
25619 On ch=1 n=f5 v=120
25657 Par ch=1 c=64 v=127
25740 On ch=1 n=f5 v=0
25747 On ch=1 n=f6 v=113
25748 On ch=1 n=d3 v=117
25751 On ch=1 n=d6 v=104
25790 On ch=1 n=d6 v=0
25804 On ch=1 n=f6 v=0
25887 On ch=1 n=f6 v=120
25892 On ch=1 n=d6 v=111
25893 On ch=1 n=d4 v=107
25894 On ch=1 n=d3 v=0
25919 On ch=1 n=d6 v=0
25926 On ch=1 n=f6 v=0
25947 On ch=1 n=d4 v=0
25992 On ch=1 n=d4 v=88
26036 On ch=1 n=d4 v=0
26089 On ch=1 n=d4 v=97
26095 On ch=1 n=g#6 v=101
26099 On ch=1 n=f6 v=94
26137 On ch=1 n=d4 v=0
26142 Par ch=1 c=64 v=63
26147 Par ch=1 c=64 v=0
26166 On ch=1 n=g#6 v=0
26177 On ch=1 n=f6 v=0
26186 On ch=1 n=d6 v=100
26189 On ch=1 n=b5 v=94
26192 On ch=1 n=g3 v=108
26211 On ch=1 n=b5 v=0
26218 On ch=1 n=d6 v=0
26281 On ch=1 n=g3 v=0
26312 On ch=1 n=b5 v=117
26312 On ch=1 n=d6 v=120
26314 On ch=1 n=g4 v=91
26317 Par ch=1 c=64 v=127
26342 On ch=1 n=b5 v=0
26343 On ch=1 n=d6 v=0
26359 On ch=1 n=g4 v=0
26399 On ch=1 n=g4 v=79
26450 On ch=1 n=g4 v=0
26505 On ch=1 n=g4 v=88
26520 On ch=1 n=f6 v=104
26522 On ch=1 n=d6 v=107
26540 On ch=1 n=g4 v=0
26556 On ch=1 n=d6 v=0
26566 On ch=1 n=f6 v=0
26603 Par ch=1 c=64 v=63
26607 Par ch=1 c=64 v=0
26607 On ch=1 n=d#6 v=119
26609 On ch=1 n=c3 v=117
26612 On ch=1 n=c6 v=94
26632 On ch=1 n=c6 v=0
26641 On ch=1 n=c3 v=0
26645 On ch=1 n=d#6 v=0
26737 On ch=1 n=c4 v=103
26742 On ch=1 n=d#6 v=124
26745 On ch=1 n=c6 v=113
26746 Par ch=1 c=64 v=63
26747 Par ch=1 c=64 v=127
26779 On ch=1 n=c6 v=0
26790 On ch=1 n=d#6 v=0
26793 On ch=1 n=c4 v=0
26839 On ch=1 n=c4 v=97
26891 On ch=1 n=c4 v=0
26947 On ch=1 n=c4 v=90
26949 On ch=1 n=g6 v=112
26953 On ch=1 n=d#6 v=106
26975 Par ch=1 c=64 v=63
26979 Par ch=1 c=64 v=0
26990 On ch=1 n=c4 v=0
27023 On ch=1 n=g6 v=0
27038 On ch=1 n=d#6 v=0
27048 On ch=1 n=f3 v=118
27049 On ch=1 n=a5 v=97
27050 On ch=1 n=c6 v=101
27085 On ch=1 n=a5 v=0
27085 On ch=1 n=c6 v=0
27154 On ch=1 n=f3 v=0
27170 On ch=1 n=f4 v=106
27173 On ch=1 n=c6 v=121
27173 On ch=1 n=a5 v=116
27174 Par ch=1 c=64 v=63
27175 Par ch=1 c=64 v=127
27207 On ch=1 n=a5 v=0
27208 On ch=1 n=c6 v=0
27220 On ch=1 n=f4 v=0
27268 On ch=1 n=f4 v=88
27316 On ch=1 n=f4 v=0
27368 On ch=1 n=f4 v=66
27380 On ch=1 n=d#6 v=104
27383 On ch=1 n=c6 v=91
27402 On ch=1 n=c6 v=0
27408 On ch=1 n=f4 v=0
27422 On ch=1 n=d#6 v=0
27485 On ch=1 n=a#4 v=92
27487 On ch=1 n=d#6 v=105
27533 Par ch=1 c=64 v=63
27547 Par ch=1 c=64 v=0
27549 On ch=1 n=c#6 v=94
27556 On ch=1 n=d#6 v=0
27587 On ch=1 n=a#4 v=0
27588 On ch=1 n=c#6 v=0
27594 On ch=1 n=c6 v=81
27596 On ch=1 n=c#5 v=83
27644 On ch=1 n=a#5 v=83
27647 On ch=1 n=c6 v=0
27692 On ch=1 n=a#5 v=0
27695 On ch=1 n=c#5 v=0
27696 On ch=1 n=a5 v=97
27701 On ch=1 n=a#4 v=86
27730 On ch=1 n=a#5 v=77
27754 On ch=1 n=a5 v=0
27774 On ch=1 n=c6 v=86
27780 On ch=1 n=a#5 v=0
27808 On ch=1 n=g#4 v=85
27826 On ch=1 n=a#5 v=88
27829 On ch=1 n=a#4 v=0
27838 On ch=1 n=c6 v=0
27861 Par ch=1 c=64 v=63
27864 Par ch=1 c=64 v=0
27874 On ch=1 n=g#4 v=0
27875 On ch=1 n=a#5 v=0
27881 On ch=1 n=d#6 v=93
27887 On ch=1 n=f#4 v=94
27929 On ch=1 n=c#6 v=95
27935 On ch=1 n=f#4 v=0
27946 On ch=1 n=d#6 v=0
27977 On ch=1 n=c6 v=85
28001 On ch=1 n=a#4 v=64
28004 On ch=1 n=c#6 v=0
28026 On ch=1 n=a#5 v=97
28032 On ch=1 n=a#4 v=0
28035 On ch=1 n=c6 v=0
28067 On ch=1 n=a#5 v=0
28075 On ch=1 n=a5 v=81
28093 On ch=1 n=f#4 v=91
28112 On ch=1 n=a#5 v=91
28127 On ch=1 n=a5 v=0
28135 On ch=1 n=f#4 v=0
28159 On ch=1 n=c6 v=89
28162 On ch=1 n=a#5 v=0
28187 On ch=1 n=f4 v=85
28203 On ch=1 n=a#5 v=92
28214 On ch=1 n=c6 v=0
28232 On ch=1 n=f4 v=0
28238 On ch=1 n=a#5 v=0
28278 On ch=1 n=e4 v=107
28279 On ch=1 n=a#6 v=109
28311 On ch=1 n=e4 v=0
28312 Par ch=1 c=64 v=63
28314 On ch=1 n=a#6 v=0
28314 Par ch=1 c=64 v=127
28401 On ch=1 n=a#6 v=118
28447 On ch=1 n=a#6 v=0
28515 On ch=1 n=c5 v=108
28516 On ch=1 n=g5 v=97
28608 On ch=1 n=e6 v=108
28612 On ch=1 n=a#5 v=103
28676 On ch=1 n=a#5 v=0
28696 On ch=1 n=g5 v=0
28729 On ch=1 n=f5 v=65
28733 On ch=1 n=e6 v=0
28733 Par ch=1 c=64 v=63
28736 On ch=1 n=g6 v=100
28739 On ch=1 n=a#5 v=98
28741 Par ch=1 c=64 v=0
28753 On ch=1 n=c5 v=0
28804 Par ch=1 c=64 v=63
28807 Par ch=1 c=64 v=0
28942 On ch=1 n=a#5 v=0
28985 On ch=1 n=f6 v=78
28989 On ch=1 n=g6 v=0
28990 On ch=1 n=a5 v=61
29009 On ch=1 n=f5 v=0
29021 On ch=1 n=a5 v=0
29026 On ch=1 n=f6 v=0
29135 On ch=1 n=f5 v=120
29153 Par ch=1 c=64 v=63
29156 Par ch=1 c=64 v=127
29226 On ch=1 n=f5 v=0
29265 On ch=1 n=a#3 v=99
29271 On ch=1 n=d6 v=114
29272 On ch=1 n=f5 v=112
29289 Par ch=1 c=64 v=63
29292 Par ch=1 c=64 v=0
29299 On ch=1 n=f5 v=0
29302 On ch=1 n=d6 v=0
29406 On ch=1 n=d6 v=122
29411 On ch=1 n=f5 v=111
29413 Par ch=1 c=64 v=63
29414 Par ch=1 c=64 v=127
29421 On ch=1 n=a#4 v=85
29430 On ch=1 n=f5 v=0
29438 On ch=1 n=d6 v=0
29439 On ch=1 n=a#3 v=0
29463 On ch=1 n=a#4 v=0
29502 On ch=1 n=a#4 v=76
29552 On ch=1 n=a#4 v=0
29607 On ch=1 n=a#4 v=84
29619 On ch=1 n=a#5 v=112
29620 On ch=1 n=d5 v=102
29632 Par ch=1 c=64 v=63
29639 Par ch=1 c=64 v=0
29660 On ch=1 n=d5 v=0
29694 On ch=1 n=a#5 v=0
29711 On ch=1 n=a#3 v=84
29719 On ch=1 n=a#4 v=0
29723 On ch=1 n=d#6 v=113
29759 On ch=1 n=d#6 v=0
29835 On ch=1 n=a#3 v=0
29837 On ch=1 n=d#6 v=116
29837 On ch=1 n=g5 v=111
29838 On ch=1 n=a#4 v=83
29843 Par ch=1 c=64 v=63
29844 Par ch=1 c=64 v=127
29864 On ch=1 n=g5 v=0
29869 On ch=1 n=d#6 v=0
29883 On ch=1 n=a#4 v=0
29937 On ch=1 n=a#4 v=76
29981 On ch=1 n=a#4 v=0
30037 On ch=1 n=a#4 v=80
30039 On ch=1 n=c6 v=99
30058 On ch=1 n=d#5 v=89
30069 On ch=1 n=c6 v=0
30076 On ch=1 n=a#4 v=0
30079 On ch=1 n=d#5 v=0
30142 On ch=1 n=a#4 v=68
30145 On ch=1 n=d#5 v=89
30147 On ch=1 n=g5 v=103
30162 Par ch=1 c=64 v=63
30170 Par ch=1 c=64 v=0
30244 On ch=1 n=a#5 v=98
30271 On ch=1 n=g5 v=0
30344 On ch=1 n=a#5 v=0
30359 On ch=1 n=d#5 v=0
30364 On ch=1 n=a5 v=84
30371 On ch=1 n=c5 v=72
30442 On ch=1 n=a5 v=0
30454 On ch=1 n=c6 v=96
30490 On ch=1 n=c6 v=0
30559 On ch=1 n=d5 v=74
30567 On ch=1 n=a#5 v=109
30570 On ch=1 n=c5 v=0
30616 On ch=1 n=a#5 v=0
30620 On ch=1 n=a5 v=81
30665 On ch=1 n=a#5 v=107
30686 On ch=1 n=a5 v=0
30707 On ch=1 n=c6 v=91
30717 On ch=1 n=a#5 v=0
30747 On ch=1 n=a#5 v=98
30771 On ch=1 n=c6 v=0
30772 On ch=1 n=d5 v=0
30782 On ch=1 n=a#5 v=0
30792 On ch=1 n=a#4 v=0
30865 On ch=1 n=a#5 v=114
30947 On ch=1 n=a#5 v=0
30956 Par ch=1 c=64 v=127
30967 On ch=1 n=a#3 v=96
30969 On ch=1 n=f6 v=98
30972 On ch=1 n=d6 v=92
31017 On ch=1 n=f6 v=0
31017 On ch=1 n=d6 v=0
31050 Par ch=1 c=64 v=63
31052 Par ch=1 c=64 v=0
31095 On ch=1 n=f6 v=116
31098 On ch=1 n=d6 v=113
31100 On ch=1 n=a#4 v=80
31107 Par ch=1 c=64 v=63
31109 Par ch=1 c=64 v=127
31133 On ch=1 n=a#3 v=0
31159 On ch=1 n=a#4 v=0
31162 On ch=1 n=d6 v=0
31167 On ch=1 n=f6 v=0
31206 On ch=1 n=a#4 v=79
31255 On ch=1 n=a#4 v=0
31294 On ch=1 n=a#4 v=80
31309 On ch=1 n=d6 v=99
31313 On ch=1 n=a#5 v=89
31369 On ch=1 n=d6 v=0
31374 On ch=1 n=a#5 v=0
31395 On ch=1 n=a#4 v=0
31400 Par ch=1 c=64 v=63
31404 Par ch=1 c=64 v=0
31407 On ch=1 n=d#6 v=98
31408 On ch=1 n=g6 v=89
31408 On ch=1 n=a#3 v=94
31438 On ch=1 n=d#6 v=0
31445 On ch=1 n=g6 v=0
31516 On ch=1 n=g6 v=107
31516 On ch=1 n=d#6 v=115
31518 Par ch=1 c=64 v=63
31519 Par ch=1 c=64 v=127
31519 On ch=1 n=a#4 v=90
31530 On ch=1 n=a#3 v=0
31558 On ch=1 n=d#6 v=0
31560 On ch=1 n=g6 v=0
31568 On ch=1 n=a#4 v=0
31621 On ch=1 n=a#4 v=84
31656 On ch=1 n=a#4 v=0
31712 On ch=1 n=a#4 v=75
31726 On ch=1 n=d#6 v=101
31730 On ch=1 n=a#4 v=0
31733 On ch=1 n=c6 v=67
31758 On ch=1 n=c6 v=0
31768 On ch=1 n=d#6 v=0
31827 On ch=1 n=g5 v=81
31831 On ch=1 n=a#4 v=77
31838 On ch=1 n=a#5 v=96
31876 Par ch=1 c=64 v=63
31888 Par ch=1 c=64 v=0
31931 On ch=1 n=d6 v=81
31934 On ch=1 n=a#5 v=0
31944 Par ch=1 c=64 v=63
31953 Par ch=1 c=64 v=127
31982 On ch=1 n=g5 v=0
32036 On ch=1 n=c6 v=89
32040 On ch=1 n=a5 v=90
32065 On ch=1 n=d6 v=0
32118 On ch=1 n=a5 v=0
32132 On ch=1 n=c6 v=0
32140 On ch=1 n=d#6 v=103
32188 On ch=1 n=d#6 v=0
32233 Par ch=1 c=64 v=63
32242 Par ch=1 c=64 v=0
32246 On ch=1 n=a#5 v=97
32258 On ch=1 n=d6 v=94
32293 On ch=1 n=d6 v=0
32294 On ch=1 n=c6 v=89
32301 Par ch=1 c=64 v=63
32312 Par ch=1 c=64 v=127
32335 On ch=1 n=d6 v=87
32347 On ch=1 n=c6 v=0
32383 On ch=1 n=d#6 v=106
32395 On ch=1 n=d6 v=0
32410 On ch=1 n=a#5 v=0
32435 On ch=1 n=d6 v=84
32439 On ch=1 n=d#6 v=0
32473 On ch=1 n=d6 v=0
32476 On ch=1 n=a#4 v=0
32488 Par ch=1 c=64 v=63
32495 Par ch=1 c=64 v=0
32550 On ch=1 n=d6 v=94
32636 Par ch=1 c=64 v=63
32642 Par ch=1 c=64 v=127
32663 On ch=1 n=d6 v=0
32667 On ch=1 n=g6 v=76
32671 On ch=1 n=b4 v=44
32705 On ch=1 n=g6 v=0
32782 Par ch=1 c=64 v=63
32789 On ch=1 n=d5 v=56
32790 On ch=1 n=g6 v=90
32791 Par ch=1 c=64 v=0
32860 On ch=1 n=b4 v=0
32897 On ch=1 n=d#6 v=97
32902 On ch=1 n=c5 v=84
32927 On ch=1 n=g6 v=0
32930 On ch=1 n=d5 v=0
32994 On ch=1 n=c6 v=94
32995 On ch=1 n=d#5 v=86
33004 On ch=1 n=d#6 v=0
33023 On ch=1 n=c5 v=0
33097 On ch=1 n=b5 v=102
33098 On ch=1 n=d5 v=82
33109 On ch=1 n=d#5 v=0
33125 On ch=1 n=c6 v=0
33168 Par ch=1 c=64 v=63
33173 Par ch=1 c=64 v=127
33183 On ch=1 n=b5 v=0
33199 On ch=1 n=f5 v=76
33203 On ch=1 n=d5 v=0
33271 On ch=1 n=f5 v=0
33303 On ch=1 n=d#5 v=82
33318 Par ch=1 c=64 v=63
33318 On ch=1 n=c6 v=89
33325 Par ch=1 c=64 v=0
33344 On ch=1 n=c6 v=0
33373 On ch=1 n=d#5 v=0
33396 On ch=1 n=g5 v=68
33399 On ch=1 n=g6 v=80
33429 On ch=1 n=g6 v=0
33480 On ch=1 n=g5 v=0
33482 Par ch=1 c=64 v=63
33488 Par ch=1 c=64 v=127
33504 On ch=1 n=a4 v=76
33506 On ch=1 n=e6 v=107
33550 On ch=1 n=f6 v=86
33553 On ch=1 n=e6 v=0
33594 On ch=1 n=c5 v=74
33601 On ch=1 n=a4 v=0
33601 On ch=1 n=g6 v=89
33604 On ch=1 n=f6 v=0
33645 On ch=1 n=f6 v=71
33655 On ch=1 n=g6 v=0
33671 Par ch=1 c=64 v=63
33686 On ch=1 n=d#6 v=103
33687 On ch=1 n=c5 v=0
33691 Par ch=1 c=64 v=0
33693 On ch=1 n=a#4 v=74
33698 On ch=1 n=f6 v=0
33740 On ch=1 n=d6 v=87
33754 On ch=1 n=d#6 v=0
33781 On ch=1 n=d6 v=0
33782 On ch=1 n=d5 v=74
33784 On ch=1 n=a#4 v=0
33784 On ch=1 n=c6 v=85
33825 On ch=1 n=c6 v=0
33826 On ch=1 n=a#5 v=106
33836 On ch=1 n=d5 v=0
33867 On ch=1 n=a#5 v=0
33870 On ch=1 n=c5 v=70
33878 On ch=1 n=a5 v=107
33879 Par ch=1 c=64 v=63
33900 Par ch=1 c=64 v=127
33972 On ch=1 n=d#5 v=90
33975 On ch=1 n=c5 v=0
34006 Par ch=1 c=64 v=63
34018 Par ch=1 c=64 v=0
34050 On ch=1 n=a5 v=0
34054 On ch=1 n=d#5 v=0
34081 On ch=1 n=a#5 v=105
34087 On ch=1 n=d5 v=88
34115 On ch=1 n=a#5 v=0
34151 On ch=1 n=d5 v=0
34182 On ch=1 n=f6 v=97
34182 On ch=1 n=f5 v=78
34207 On ch=1 n=f5 v=0
34217 On ch=1 n=f6 v=0
34293 On ch=1 n=d4 v=102
34294 On ch=1 n=a#6 v=115
34299 Par ch=1 c=64 v=63
34300 Par ch=1 c=64 v=127
34306 On ch=1 n=a#4 v=94
34342 On ch=1 n=d4 v=0
34352 On ch=1 n=a6 v=98
34357 On ch=1 n=a#4 v=0
34373 On ch=1 n=a#6 v=0
34401 On ch=1 n=g6 v=94
34411 On ch=1 n=a6 v=0
34443 On ch=1 n=f6 v=86
34448 On ch=1 n=g6 v=0
34483 On ch=1 n=d#6 v=113
34494 On ch=1 n=f6 v=0
34540 On ch=1 n=d#6 v=0
34540 On ch=1 n=d6 v=102
34574 On ch=1 n=c6 v=90
34580 On ch=1 n=d6 v=0
34590 Par ch=1 c=64 v=63
34595 Par ch=1 c=64 v=0
34622 On ch=1 n=a#5 v=108
34634 On ch=1 n=c6 v=0
34656 On ch=1 n=a#5 v=0
34680 Par ch=1 c=64 v=63
34683 On ch=1 n=c5 v=118
34683 Par ch=1 c=64 v=127
34684 On ch=1 n=d#4 v=119
34685 On ch=1 n=g6 v=103
34686 On ch=1 n=a#4 v=113
34708 On ch=1 n=d#4 v=0
34709 On ch=1 n=c5 v=0
34713 On ch=1 n=a#4 v=0
34744 On ch=1 n=f6 v=85
34766 On ch=1 n=g6 v=0
34785 On ch=1 n=d#6 v=100
34804 On ch=1 n=f6 v=0
34834 On ch=1 n=d#6 v=0
34835 On ch=1 n=d6 v=89
34877 On ch=1 n=c6 v=97
34879 On ch=1 n=d6 v=0
34905 Par ch=1 c=64 v=63
34910 Par ch=1 c=64 v=0
34925 On ch=1 n=a#5 v=105
34932 On ch=1 n=c6 v=0
34974 On ch=1 n=a5 v=90
34984 On ch=1 n=a#5 v=0
35024 On ch=1 n=g5 v=76
35028 On ch=1 n=a5 v=0
35046 On ch=1 n=g5 v=0
35067 Par ch=1 c=64 v=63
35070 Par ch=1 c=64 v=127
35085 On ch=1 n=d5 v=112
35087 On ch=1 n=f4 v=107
35091 On ch=1 n=f5 v=88
35114 On ch=1 n=d5 v=0
35116 On ch=1 n=f4 v=0
35130 Par ch=1 c=64 v=63
35133 On ch=1 n=f5 v=0
35138 On ch=1 n=a#5 v=103
35138 Par ch=1 c=64 v=0
35190 On ch=1 n=a#5 v=0
35191 On ch=1 n=d6 v=91
35228 On ch=1 n=f6 v=91
35245 On ch=1 n=d6 v=0
35261 On ch=1 n=f6 v=0
35284 On ch=1 n=f4 v=98
35288 On ch=1 n=d#5 v=119
35298 On ch=1 n=f6 v=89
35314 On ch=1 n=d#5 v=0
35315 On ch=1 n=f4 v=0
35329 On ch=1 n=d#6 v=105
35361 On ch=1 n=f6 v=0
35382 On ch=1 n=d6 v=88
35416 On ch=1 n=d#6 v=0
35419 On ch=1 n=c6 v=102
35443 On ch=1 n=d6 v=0
35463 On ch=1 n=c6 v=0
35490 On ch=1 n=c6 v=112
35491 On ch=1 n=d#5 v=116
35495 On ch=1 n=a#4 v=106
35509 Par ch=1 c=64 v=63
35509 Par ch=1 c=64 v=127
35541 On ch=1 n=c6 v=0
35713 On ch=1 n=a#5 v=99
35715 On ch=1 n=d#5 v=0
35730 On ch=1 n=d5 v=57
35738 On ch=1 n=a#5 v=0
35748 Par ch=1 c=64 v=63
35755 Par ch=1 c=64 v=0
35803 On ch=1 n=d5 v=0
35805 On ch=1 n=a#4 v=0
35837 On ch=1 n=a#5 v=85
35869 On ch=1 n=a#5 v=0
35872 On ch=1 n=c6 v=80
35925 On ch=1 n=d6 v=83
35943 On ch=1 n=c6 v=0
35962 On ch=1 n=d6 v=0
36038 On ch=1 n=d5 v=79
36042 On ch=1 n=a#4 v=67
36073 On ch=1 n=d5 v=0
36075 On ch=1 n=a#4 v=0
36145 On ch=1 n=a#4 v=97
36151 On ch=1 n=d5 v=74
36171 On ch=1 n=d5 v=0
36173 On ch=1 n=a#4 v=0
36257 On ch=1 n=d6 v=88
36287 On ch=1 n=d#6 v=105
36298 On ch=1 n=d6 v=0
36332 On ch=1 n=f6 v=109
36349 On ch=1 n=d#6 v=0
36371 On ch=1 n=f6 v=0
36450 On ch=1 n=d5 v=113
36451 On ch=1 n=a#4 v=106
36481 On ch=1 n=d5 v=0
36484 On ch=1 n=a#4 v=0
36562 On ch=1 n=a#4 v=113
36564 On ch=1 n=d5 v=117
36589 On ch=1 n=d5 v=0
36592 On ch=1 n=a#4 v=0
36678 On ch=1 n=f6 v=98
36729 On ch=1 n=g6 v=102
36740 On ch=1 n=f6 v=0
36806 On ch=1 n=g#6 v=107
36816 On ch=1 n=g6 v=0
36825 Par ch=1 c=64 v=63
36830 Par ch=1 c=64 v=127
36948 On ch=1 n=f6 v=91
36958 On ch=1 n=g#6 v=0
37011 On ch=1 n=f6 v=0
37069 On ch=1 n=d6 v=84
37132 On ch=1 n=d6 v=0
37166 On ch=1 n=a#5 v=88
37271 On ch=1 n=a#5 v=0
37278 On ch=1 n=a5 v=76
37366 Par ch=1 c=64 v=63
37377 On ch=1 n=a#5 v=73
37384 Par ch=1 c=64 v=0
37394 On ch=1 n=a5 v=0
37490 On ch=1 n=g#5 v=76
37507 On ch=1 n=a#5 v=0
37590 On ch=1 n=g#5 v=0
37597 On ch=1 n=f5 v=61
37703 On ch=1 n=f5 v=0
37704 On ch=1 n=d#5 v=84
37727 On ch=1 n=d#5 v=0
37820 On ch=1 n=d#5 v=82
37845 On ch=1 n=d#5 v=0
37924 On ch=1 n=a#4 v=88
37925 On ch=1 n=d#5 v=96
37929 On ch=1 n=g4 v=70
37951 On ch=1 n=g4 v=0
37954 On ch=1 n=a#4 v=0
37958 On ch=1 n=d#5 v=0
38040 On ch=1 n=d#5 v=77
38085 On ch=1 n=d#5 v=0
38148 On ch=1 n=c6 v=85
38187 On ch=1 n=c6 v=0
38248 On ch=1 n=c6 v=93
38287 On ch=1 n=c6 v=0
38360 On ch=1 n=d#5 v=95
38361 On ch=1 n=c6 v=91
38366 Par ch=1 c=64 v=63
38367 On ch=1 n=g#4 v=75
38370 Par ch=1 c=64 v=127
38384 On ch=1 n=g#4 v=0
38386 On ch=1 n=d#5 v=0
38397 On ch=1 n=c6 v=0
38442 Par ch=1 c=64 v=63
38448 Par ch=1 c=64 v=0
38463 On ch=1 n=c6 v=85
38503 On ch=1 n=c6 v=0
38574 On ch=1 n=f5 v=76
38617 On ch=1 n=f5 v=0
38665 On ch=1 n=f5 v=64
38709 On ch=1 n=f5 v=0
38774 On ch=1 n=a#5 v=85
38781 On ch=1 n=f4 v=54
38790 On ch=1 n=d4 v=58
38817 On ch=1 n=a#5 v=0
38856 On ch=1 n=f4 v=0
38870 On ch=1 n=a#5 v=92
38925 On ch=1 n=a#5 v=0
38941 On ch=1 n=d4 v=0
38986 On ch=1 n=g#5 v=96
38988 On ch=1 n=a#4 v=80
38992 On ch=1 n=d#4 v=72
39090 On ch=1 n=g5 v=78
39108 On ch=1 n=g#5 v=0
39130 On ch=1 n=g5 v=0
39160 On ch=1 n=d#4 v=0
39169 On ch=1 n=a#4 v=0
39211 On ch=1 n=f5 v=73
39237 On ch=1 n=f5 v=0
39299 On ch=1 n=d#5 v=84
39322 On ch=1 n=d#5 v=0
39417 On ch=1 n=g6 v=92
39462 On ch=1 n=g6 v=0
39493 Par ch=1 c=64 v=63
39514 On ch=1 n=d#5 v=89
39515 On ch=1 n=g6 v=103
39519 Par ch=1 c=64 v=127
39548 Par ch=1 c=64 v=63
39583 Par ch=1 c=64 v=0
39600 On ch=1 n=g6 v=0
39616 On ch=1 n=d#5 v=0
39626 On ch=1 n=f#6 v=106
39629 On ch=1 n=d5 v=89
39675 On ch=1 n=f#6 v=0
39719 On ch=1 n=b4 v=96
39723 On ch=1 n=f6 v=112
39727 On ch=1 n=d5 v=0
39774 On ch=1 n=f6 v=0
39786 On ch=1 n=b4 v=0
39827 On ch=1 n=e6 v=112
39827 On ch=1 n=c5 v=98
39874 On ch=1 n=e6 v=0
39891 On ch=1 n=c5 v=0
39917 On ch=1 n=d#6 v=115
39920 On ch=1 n=a4 v=103
39969 On ch=1 n=d#6 v=0
39987 On ch=1 n=a4 v=0
40022 On ch=1 n=d6 v=102
40024 On ch=1 n=a#4 v=98
40064 On ch=1 n=d6 v=0
40106 On ch=1 n=e4 v=99
40116 On ch=1 n=c#6 v=112
40175 On ch=1 n=c#6 v=0
40201 On ch=1 n=e4 v=0
40206 On ch=1 n=f4 v=96
40216 On ch=1 n=c6 v=99
40258 On ch=1 n=c6 v=0
40314 On ch=1 n=c6 v=93
40362 On ch=1 n=c6 v=0
40423 On ch=1 n=a4 v=79
40425 On ch=1 n=f6 v=90
40444 On ch=1 n=a#4 v=0
40465 On ch=1 n=f6 v=0
40493 Par ch=1 c=64 v=63
40502 Par ch=1 c=64 v=127
40512 On ch=1 n=f6 v=101
40516 On ch=1 n=f4 v=0
40526 On ch=1 n=a4 v=0
40565 On ch=1 n=f6 v=0
40615 Par ch=1 c=64 v=63
40621 Par ch=1 c=64 v=0
40622 On ch=1 n=a#5 v=92
40624 On ch=1 n=a#4 v=64
40706 Par ch=1 c=64 v=63
40715 Par ch=1 c=64 v=127
40733 On ch=1 n=a#4 v=0
40737 On ch=1 n=f4 v=60
40751 On ch=1 n=a#5 v=0
40840 On ch=1 n=d4 v=68
40844 On ch=1 n=f4 v=0
40942 On ch=1 n=a#3 v=67
40960 On ch=1 n=d4 v=0
41006 Par ch=1 c=64 v=63
41012 Par ch=1 c=64 v=0
41019 On ch=1 n=a#3 v=0
41061 On ch=1 n=d#5 v=90
41095 On ch=1 n=d#5 v=0
41164 On ch=1 n=d#5 v=90
41195 On ch=1 n=d#5 v=0
41274 On ch=1 n=a#4 v=93
41277 On ch=1 n=g4 v=81
41279 On ch=1 n=d#5 v=94
41294 On ch=1 n=a#4 v=0
41298 On ch=1 n=g4 v=0
41308 On ch=1 n=d#5 v=0
41363 On ch=1 n=d#5 v=88
41405 On ch=1 n=d#5 v=0
41475 On ch=1 n=c6 v=93
41517 On ch=1 n=c6 v=0
41575 On ch=1 n=c6 v=85
41611 On ch=1 n=c6 v=0
41678 On ch=1 n=c6 v=87
41679 Par ch=1 c=64 v=63
41679 On ch=1 n=d#5 v=81
41684 Par ch=1 c=64 v=127
41685 On ch=1 n=g#4 v=67
41699 On ch=1 n=d#5 v=0
41703 On ch=1 n=g#4 v=0
41713 On ch=1 n=c6 v=0
41750 Par ch=1 c=64 v=63
41758 Par ch=1 c=64 v=0
41774 On ch=1 n=c6 v=89
41820 On ch=1 n=c6 v=0
41881 On ch=1 n=f5 v=80
41919 On ch=1 n=f5 v=0
41979 On ch=1 n=f5 v=81
42020 On ch=1 n=f5 v=0
42086 On ch=1 n=f4 v=64
42087 On ch=1 n=d4 v=71
42090 On ch=1 n=a#5 v=79
42113 On ch=1 n=a#5 v=0
42136 On ch=1 n=f4 v=0
42188 On ch=1 n=a#5 v=89
42233 On ch=1 n=a#5 v=0
42250 On ch=1 n=d4 v=0
42287 On ch=1 n=a#4 v=73
42288 On ch=1 n=g#5 v=96
42294 On ch=1 n=d#4 v=67
42392 On ch=1 n=g5 v=76
42404 On ch=1 n=g#5 v=0
42432 On ch=1 n=g5 v=0
42454 On ch=1 n=a#4 v=0
42472 On ch=1 n=d#4 v=0
42496 On ch=1 n=f5 v=70
42534 On ch=1 n=f5 v=0
42586 On ch=1 n=d#5 v=86
42624 On ch=1 n=d#5 v=0
42722 On ch=1 n=g6 v=85
42730 Par ch=1 c=64 v=63
42733 Par ch=1 c=64 v=127
42771 On ch=1 n=g6 v=0
42828 On ch=1 n=g6 v=84
42830 On ch=1 n=d#5 v=90
42932 On ch=1 n=f#6 v=100
42936 On ch=1 n=d5 v=91
42944 On ch=1 n=d#5 v=0
42960 On ch=1 n=g6 v=0
43005 On ch=1 n=f#6 v=0
43033 On ch=1 n=f6 v=102
43036 On ch=1 n=b4 v=99
43041 On ch=1 n=d5 v=0
43075 Par ch=1 c=64 v=63
43084 Par ch=1 c=64 v=0
43135 On ch=1 n=c5 v=96
43137 On ch=1 n=b4 v=0
43139 On ch=1 n=e6 v=103
43176 On ch=1 n=f6 v=0
43237 On ch=1 n=a4 v=98
43240 On ch=1 n=d#6 v=110
43265 On ch=1 n=c5 v=0
43266 On ch=1 n=e6 v=0
43341 On ch=1 n=a#4 v=95
43342 On ch=1 n=d6 v=103
43354 On ch=1 n=a4 v=0
43363 On ch=1 n=d#6 v=0
43441 On ch=1 n=e4 v=84
43442 On ch=1 n=c#6 v=112
43461 On ch=1 n=d6 v=0
43521 On ch=1 n=e4 v=0
43539 On ch=1 n=f4 v=71
43543 On ch=1 n=c6 v=100
43558 On ch=1 n=c#6 v=0
43593 On ch=1 n=c6 v=0
43642 On ch=1 n=c6 v=92
43704 On ch=1 n=c6 v=0
43745 On ch=1 n=f6 v=90
43752 Par ch=1 c=64 v=63
43758 Par ch=1 c=64 v=127
43759 On ch=1 n=a4 v=68
43776 On ch=1 n=a#4 v=0
43798 On ch=1 n=f6 v=0
43835 On ch=1 n=a4 v=0
43837 On ch=1 n=f4 v=0
43843 On ch=1 n=f6 v=89
43910 On ch=1 n=f6 v=0
43953 On ch=1 n=a#4 v=60
43961 On ch=1 n=a#5 v=76
43980 Par ch=1 c=64 v=63
43987 Par ch=1 c=64 v=0
44073 On ch=1 n=f4 v=63
44084 On ch=1 n=a#4 v=0
44179 On ch=1 n=d4 v=65
44183 On ch=1 n=f4 v=0
44191 On ch=1 n=a#5 v=0
44273 On ch=1 n=a#3 v=72
44289 Par ch=1 c=64 v=63
44292 Par ch=1 c=64 v=127
44295 On ch=1 n=d4 v=0
44313 On ch=1 n=a#3 v=0
44338 Par ch=1 c=64 v=63
44343 Par ch=1 c=64 v=0
44403 Par ch=1 c=64 v=63
44405 Par ch=1 c=64 v=127
44406 On ch=1 n=c#5 v=108
44479 On ch=1 n=c#5 v=0
44526 On ch=1 n=a#5 v=90
44532 On ch=1 n=c#5 v=88
44583 On ch=1 n=c#5 v=0
44629 On ch=1 n=c#5 v=99
44633 On ch=1 n=c#6 v=104
44647 On ch=1 n=a#5 v=0
44678 On ch=1 n=c#5 v=0
44711 On ch=1 n=c#5 v=96
44717 On ch=1 n=e6 v=99
44735 On ch=1 n=c#6 v=0
44797 On ch=1 n=c#5 v=0
44821 On ch=1 n=e4 v=82
44827 On ch=1 n=g6 v=85
44842 Par ch=1 c=64 v=63
44846 Par ch=1 c=64 v=0
44858 On ch=1 n=e6 v=0
44910 On ch=1 n=e4 v=0
44936 Par ch=1 c=64 v=63
44940 Par ch=1 c=64 v=127
44945 On ch=1 n=e4 v=79
44945 On ch=1 n=c#6 v=84
44946 On ch=1 n=g6 v=0
44998 On ch=1 n=e4 v=0
45052 On ch=1 n=e4 v=76
45053 On ch=1 n=c#6 v=0
45053 On ch=1 n=c6 v=85
45101 On ch=1 n=e4 v=0
45141 On ch=1 n=a#5 v=104
45143 On ch=1 n=c6 v=0
45154 On ch=1 n=e4 v=83
45217 Par ch=1 c=64 v=63
45221 Par ch=1 c=64 v=0
45236 On ch=1 n=a#5 v=0
45246 On ch=1 n=e4 v=0
45256 On ch=1 n=c5 v=111
45265 On ch=1 n=a5 v=78
45284 Par ch=1 c=64 v=63
45291 Par ch=1 c=64 v=127
45366 On ch=1 n=g#5 v=86
45377 On ch=1 n=a5 v=0
45414 On ch=1 n=g#5 v=0
45418 On ch=1 n=c5 v=0
45467 On ch=1 n=c5 v=84
45475 On ch=1 n=d6 v=80
45506 On ch=1 n=c5 v=0
45563 On ch=1 n=c5 v=78
45566 On ch=1 n=d#6 v=88
45585 On ch=1 n=d6 v=0
45618 On ch=1 n=c5 v=0
45664 Par ch=1 c=64 v=63
45668 Par ch=1 c=64 v=0
45668 On ch=1 n=f6 v=83
45669 On ch=1 n=d4 v=87
45679 On ch=1 n=d#6 v=0
45731 Par ch=1 c=64 v=63
45737 Par ch=1 c=64 v=127
45759 On ch=1 n=d4 v=0
45761 On ch=1 n=f6 v=0
45778 On ch=1 n=b5 v=79
45786 On ch=1 n=d4 v=91
45840 On ch=1 n=d4 v=0
45888 On ch=1 n=d4 v=68
45889 On ch=1 n=a#5 v=93
45899 On ch=1 n=b5 v=0
45930 On ch=1 n=d4 v=0
45973 On ch=1 n=a#5 v=0
45978 On ch=1 n=g#5 v=97
45992 On ch=1 n=d4 v=71
46053 On ch=1 n=g#5 v=0
46071 On ch=1 n=d4 v=0
46085 Par ch=1 c=64 v=63
46090 On ch=1 n=g5 v=80
46097 On ch=1 n=d#4 v=80
46142 Par ch=1 c=64 v=63
46162 On ch=1 n=d#4 v=0
46170 Par ch=1 c=64 v=127
46194 On ch=1 n=d#4 v=82
46196 On ch=1 n=f#5 v=100
46227 On ch=1 n=g5 v=0
46235 Par ch=1 c=64 v=63
46244 Par ch=1 c=64 v=0
46280 On ch=1 n=d#4 v=0
46296 On ch=1 n=d4 v=91
46307 On ch=1 n=f5 v=93
46328 On ch=1 n=f#5 v=0
46397 On ch=1 n=c#4 v=96
46401 On ch=1 n=a#5 v=98
46425 On ch=1 n=f5 v=0
46428 On ch=1 n=d4 v=0
46505 On ch=1 n=d#5 v=101
46511 On ch=1 n=c4 v=88
46528 On ch=1 n=a#5 v=0
46530 On ch=1 n=c#4 v=0
46602 On ch=1 n=a5 v=88
46613 On ch=1 n=b3 v=101
46636 On ch=1 n=d#5 v=0
46639 On ch=1 n=c4 v=0
46703 On ch=1 n=a#3 v=94
46715 On ch=1 n=d5 v=94
46725 On ch=1 n=b3 v=0
46730 On ch=1 n=a5 v=0
46810 On ch=1 n=a3 v=83
46810 On ch=1 n=f#5 v=94
46815 On ch=1 n=d#5 v=80
46820 On ch=1 n=d5 v=0
46842 On ch=1 n=a#3 v=0
46915 On ch=1 n=f#5 v=0
46916 On ch=1 n=a#3 v=86
46921 On ch=1 n=d#5 v=0
46921 On ch=1 n=f5 v=84
46931 On ch=1 n=d5 v=73
46938 On ch=1 n=a3 v=0
47024 On ch=1 n=a3 v=63
47024 On ch=1 n=f#5 v=71
47026 On ch=1 n=d5 v=0
47026 On ch=1 n=d#5 v=76
47038 On ch=1 n=a#3 v=0
47063 On ch=1 n=f5 v=0
47129 On ch=1 n=a#3 v=75
47140 On ch=1 n=d5 v=63
47140 On ch=1 n=f5 v=72
47142 On ch=1 n=d#5 v=0
47152 On ch=1 n=a3 v=0
47155 On ch=1 n=f#5 v=0
47235 On ch=1 n=f#5 v=76
47236 On ch=1 n=d#5 v=76
47236 On ch=1 n=a3 v=55
47241 On ch=1 n=d5 v=0
47246 On ch=1 n=a#3 v=0
47258 On ch=1 n=f5 v=0
47330 On ch=1 n=f#5 v=0
47335 On ch=1 n=a#3 v=72
47341 On ch=1 n=d#5 v=0
47348 On ch=1 n=f5 v=65
47352 On ch=1 n=d5 v=53
47358 On ch=1 n=a3 v=0
47451 On ch=1 n=d#5 v=67
47456 On ch=1 n=d5 v=0
47460 On ch=1 n=g5 v=67
47472 On ch=1 n=f5 v=0
47515 Par ch=1 c=64 v=63
47518 Par ch=1 c=64 v=127
47542 On ch=1 n=a#3 v=0
47560 On ch=1 n=g5 v=0
47562 On ch=1 n=d#5 v=0
47576 On ch=1 n=f5 v=51
47582 On ch=1 n=g#5 v=70
47625 Par ch=1 c=64 v=63
47627 Par ch=1 c=64 v=0
47635 On ch=1 n=f5 v=0
47667 Par ch=1 c=64 v=63
47670 Par ch=1 c=64 v=127
47672 On ch=1 n=f5 v=52
47683 On ch=1 n=d5 v=65
47705 On ch=1 n=g#5 v=0
47748 Par ch=1 c=64 v=63
47751 Par ch=1 c=64 v=0
47787 On ch=1 n=d5 v=0
47803 On ch=1 n=f5 v=0
47805 On ch=1 n=d#5 v=80
47850 On ch=1 n=d#5 v=0
47907 On ch=1 n=d#5 v=79
47940 On ch=1 n=d#5 v=0
48015 On ch=1 n=a#4 v=87
48017 On ch=1 n=d#5 v=87
48021 On ch=1 n=g4 v=70
48041 On ch=1 n=d#5 v=0
48045 On ch=1 n=g4 v=0
48047 On ch=1 n=a#4 v=0
48115 On ch=1 n=d#5 v=91
48177 On ch=1 n=d#5 v=0
48230 On ch=1 n=c6 v=76
48270 On ch=1 n=c6 v=0
48324 On ch=1 n=c6 v=78
48364 On ch=1 n=c6 v=0
48421 On ch=1 n=d#5 v=84
48425 On ch=1 n=c6 v=91
48426 Par ch=1 c=64 v=63
48428 On ch=1 n=g#4 v=67
48429 Par ch=1 c=64 v=127
48448 On ch=1 n=d#5 v=0
48449 On ch=1 n=g#4 v=0
48471 On ch=1 n=c6 v=0
48515 Par ch=1 c=64 v=63
48519 On ch=1 n=c6 v=84
48519 Par ch=1 c=64 v=0
48563 On ch=1 n=c6 v=0
48622 On ch=1 n=f5 v=71
48662 On ch=1 n=f5 v=0
48714 On ch=1 n=f5 v=80
48757 On ch=1 n=f5 v=0
48824 On ch=1 n=a#5 v=86
48828 On ch=1 n=f4 v=59
48832 On ch=1 n=d4 v=55
48863 On ch=1 n=a#5 v=0
48885 On ch=1 n=f4 v=0
48914 On ch=1 n=a#5 v=91
48932 On ch=1 n=d4 v=0
48957 On ch=1 n=a#5 v=0
49026 On ch=1 n=a#4 v=78
49027 On ch=1 n=d#4 v=72
49027 On ch=1 n=g#5 v=95
49050 Par ch=1 c=64 v=63
49053 Par ch=1 c=64 v=127
49134 Par ch=1 c=64 v=63
49137 On ch=1 n=g5 v=71
49140 Par ch=1 c=64 v=0
49141 On ch=1 n=g#5 v=0
49147 On ch=1 n=a#4 v=0
49165 On ch=1 n=d#4 v=0
49176 On ch=1 n=g5 v=0
49245 On ch=1 n=f5 v=60
49291 On ch=1 n=f5 v=0
49333 On ch=1 n=d#5 v=82
49366 On ch=1 n=d#5 v=0
49461 Par ch=1 c=64 v=63
49461 On ch=1 n=c6 v=89
49464 Par ch=1 c=64 v=127
49560 On ch=1 n=c6 v=0
49590 On ch=1 n=g#5 v=98
49597 On ch=1 n=c7 v=102
49709 On ch=1 n=g5 v=94
49712 On ch=1 n=b6 v=100
49729 On ch=1 n=c7 v=0
49730 On ch=1 n=g#5 v=0
49806 On ch=1 n=a#6 v=107
49813 On ch=1 n=e5 v=104
49835 On ch=1 n=g5 v=0
49838 On ch=1 n=b6 v=0
49908 On ch=1 n=a6 v=106
49911 On ch=1 n=f5 v=107
49912 On ch=1 n=e5 v=0
49922 On ch=1 n=a#6 v=0
49929 Par ch=1 c=64 v=63
49941 Par ch=1 c=64 v=0
49988 Par ch=1 c=64 v=63
49998 Par ch=1 c=64 v=127
50003 On ch=1 n=a6 v=0
50004 On ch=1 n=g#6 v=109
50006 On ch=1 n=d5 v=116
50105 On ch=1 n=g6 v=101
50111 On ch=1 n=d#5 v=108
50134 On ch=1 n=f5 v=0
50139 On ch=1 n=g#6 v=0
50150 On ch=1 n=d5 v=0
50199 On ch=1 n=f#6 v=108
50204 On ch=1 n=a4 v=82
50223 On ch=1 n=g6 v=0
50269 Par ch=1 c=64 v=63
50279 Par ch=1 c=64 v=0
50304 On ch=1 n=a4 v=0
50305 On ch=1 n=a#4 v=89
50306 On ch=1 n=f6 v=93
50313 On ch=1 n=f#6 v=0
50355 On ch=1 n=f6 v=0
50362 Par ch=1 c=64 v=63
50374 Par ch=1 c=64 v=127
50397 On ch=1 n=f6 v=99
50418 Par ch=1 c=64 v=63
50426 Par ch=1 c=64 v=0
50506 On ch=1 n=f6 v=0
50516 On ch=1 n=d5 v=84
50517 On ch=1 n=a#6 v=98
50523 Par ch=1 c=64 v=63
50531 Par ch=1 c=64 v=127
50542 On ch=1 n=d#5 v=0
50561 On ch=1 n=a#6 v=0
50612 On ch=1 n=a#6 v=101
50628 On ch=1 n=d5 v=0
50648 On ch=1 n=a#4 v=0
50674 On ch=1 n=a#6 v=0
50721 On ch=1 n=d#5 v=80
50727 On ch=1 n=d#6 v=91
50738 Par ch=1 c=64 v=63
50746 Par ch=1 c=64 v=0
50812 Par ch=1 c=64 v=63
50820 Par ch=1 c=64 v=127
50838 On ch=1 n=a#4 v=65
50862 On ch=1 n=d#5 v=0
50902 On ch=1 n=d#6 v=0
50957 On ch=1 n=g4 v=53
50965 On ch=1 n=a#4 v=0
51057 On ch=1 n=d#4 v=64
51081 On ch=1 n=g4 v=0
51110 Par ch=1 c=64 v=63
51120 Par ch=1 c=64 v=0
51125 On ch=1 n=d#4 v=0
51169 Par ch=1 c=64 v=63
51178 Par ch=1 c=64 v=127
51190 On ch=1 n=c#5 v=99
51275 On ch=1 n=c#5 v=0
51312 On ch=1 n=a#5 v=97
51313 On ch=1 n=c#5 v=88
51370 On ch=1 n=c#5 v=0
51410 On ch=1 n=c#6 v=107
51411 On ch=1 n=c#5 v=97
51429 On ch=1 n=a#5 v=0
51466 On ch=1 n=c#5 v=0
51494 On ch=1 n=c#5 v=95
51499 On ch=1 n=e6 v=101
51521 On ch=1 n=c#6 v=0
51582 On ch=1 n=c#5 v=0
51604 On ch=1 n=e4 v=90
51606 On ch=1 n=g6 v=88
51617 Par ch=1 c=64 v=63
51620 Par ch=1 c=64 v=0
51644 On ch=1 n=e6 v=0
51697 On ch=1 n=e4 v=0
51716 Par ch=1 c=64 v=63
51720 Par ch=1 c=64 v=127
51730 On ch=1 n=g6 v=0
51731 On ch=1 n=c#6 v=96
51734 On ch=1 n=e4 v=74
51792 On ch=1 n=e4 v=0
51831 On ch=1 n=e4 v=90
51837 On ch=1 n=c6 v=91
51841 On ch=1 n=c#6 v=0
51890 On ch=1 n=e4 v=0
51925 On ch=1 n=a#5 v=109
51930 On ch=1 n=e4 v=83
51939 On ch=1 n=c6 v=0
52021 Par ch=1 c=64 v=63
52024 Par ch=1 c=64 v=0
52033 On ch=1 n=c5 v=108
52034 On ch=1 n=a5 v=72
52042 On ch=1 n=e4 v=0
52044 On ch=1 n=a#5 v=0
52086 Par ch=1 c=64 v=63
52089 Par ch=1 c=64 v=127
52126 On ch=1 n=c5 v=0
52144 On ch=1 n=c5 v=102
52147 On ch=1 n=g#5 v=89
52164 On ch=1 n=a5 v=0
52198 On ch=1 n=g#5 v=0
52207 On ch=1 n=c5 v=0
52246 On ch=1 n=c5 v=100
52261 On ch=1 n=d6 v=84
52295 On ch=1 n=c5 v=0
52332 On ch=1 n=c5 v=87
52355 On ch=1 n=d#6 v=101
52377 On ch=1 n=d6 v=0
52404 On ch=1 n=c5 v=0
52427 Par ch=1 c=64 v=63
52431 Par ch=1 c=64 v=0
52452 On ch=1 n=d4 v=91
52454 On ch=1 n=f6 v=87
52480 On ch=1 n=d#6 v=0
52498 Par ch=1 c=64 v=63
52503 Par ch=1 c=64 v=127
52531 On ch=1 n=d4 v=0
52559 On ch=1 n=b5 v=85
52564 On ch=1 n=d4 v=88
52566 On ch=1 n=f6 v=0
52614 On ch=1 n=d4 v=0
52657 On ch=1 n=a#5 v=99
52659 On ch=1 n=d4 v=94
52678 On ch=1 n=b5 v=0
52707 On ch=1 n=d4 v=0
52745 On ch=1 n=a#5 v=0
52754 On ch=1 n=d4 v=94
52755 On ch=1 n=g#5 v=99
52775 Par ch=1 c=64 v=63
52779 Par ch=1 c=64 v=0
52851 On ch=1 n=d#4 v=92
52855 On ch=1 n=d4 v=0
52858 On ch=1 n=g5 v=82
52869 On ch=1 n=g#5 v=0
52906 On ch=1 n=d#4 v=0
52935 Par ch=1 c=64 v=63
52937 Par ch=1 c=64 v=127
52948 On ch=1 n=d#4 v=65
52960 On ch=1 n=f#5 v=94
52975 On ch=1 n=g5 v=0
53042 On ch=1 n=d#4 v=0
53061 On ch=1 n=d4 v=66
53070 On ch=1 n=f#5 v=0
53071 On ch=1 n=f5 v=78
53109 Par ch=1 c=64 v=63
53117 Par ch=1 c=64 v=0
53165 On ch=1 n=a#5 v=80
53170 On ch=1 n=f5 v=0
53177 On ch=1 n=c#4 v=78
53209 On ch=1 n=d4 v=0
53255 On ch=1 n=a#5 v=0
53277 On ch=1 n=d#5 v=88
53284 On ch=1 n=c4 v=84
53303 On ch=1 n=c#4 v=0
53376 On ch=1 n=a5 v=82
53387 On ch=1 n=b3 v=92
53405 On ch=1 n=d#5 v=0
53417 On ch=1 n=c4 v=0
53476 On ch=1 n=a#3 v=93
53482 On ch=1 n=a5 v=0
53482 On ch=1 n=d5 v=84
53507 On ch=1 n=b3 v=0
53571 On ch=1 n=a3 v=71
53583 On ch=1 n=d#5 v=83
53584 On ch=1 n=f#5 v=89
53587 On ch=1 n=d5 v=0
53601 On ch=1 n=a#3 v=0
53671 On ch=1 n=f#5 v=0
53679 On ch=1 n=a#3 v=73
53681 On ch=1 n=d#5 v=0
53685 On ch=1 n=f5 v=78
53693 On ch=1 n=d5 v=63
53694 On ch=1 n=a3 v=0
53780 On ch=1 n=d#5 v=71
53782 On ch=1 n=f#5 v=67
53787 On ch=1 n=a3 v=51
53794 On ch=1 n=d5 v=0
53801 On ch=1 n=a#3 v=0
53811 On ch=1 n=f5 v=0
53884 On ch=1 n=f#5 v=0
53885 On ch=1 n=d#5 v=0
53888 On ch=1 n=a#3 v=75
53896 On ch=1 n=f5 v=48
53898 On ch=1 n=d5 v=46
53902 On ch=1 n=a3 v=0
53985 On ch=1 n=f#5 v=70
53985 On ch=1 n=d#5 v=66
53990 On ch=1 n=d5 v=0
53992 On ch=1 n=f5 v=0
53993 On ch=1 n=a3 v=48
53997 On ch=1 n=a#3 v=0
54082 On ch=1 n=f#5 v=0
54088 On ch=1 n=d#5 v=0
54089 On ch=1 n=a#3 v=72
54100 On ch=1 n=f5 v=60
54109 On ch=1 n=a3 v=0
54110 On ch=1 n=d5 v=47
54137 Par ch=1 c=64 v=63
54140 Par ch=1 c=64 v=127
54194 On ch=1 n=d5 v=0
54197 On ch=1 n=d#5 v=60
54205 Par ch=1 c=64 v=63
54205 On ch=1 n=g5 v=63
54209 On ch=1 n=f5 v=0
54211 Par ch=1 c=64 v=0
54250 Par ch=1 c=64 v=63
54255 Par ch=1 c=64 v=127
54292 On ch=1 n=g5 v=0
54293 On ch=1 n=a#3 v=0
54298 On ch=1 n=d#5 v=0
54320 On ch=1 n=g#5 v=70
54327 On ch=1 n=f5 v=23
54371 On ch=1 n=f5 v=0
54416 On ch=1 n=g#5 v=0
54418 On ch=1 n=f5 v=57
54423 On ch=1 n=d5 v=59
54460 Par ch=1 c=64 v=63
54464 Par ch=1 c=64 v=0
54531 On ch=1 n=d5 v=0
54546 On ch=1 n=d#5 v=72
54557 On ch=1 n=f5 v=0
54578 On ch=1 n=d#5 v=0
54641 On ch=1 n=d#5 v=70
54679 On ch=1 n=d#5 v=0
54753 On ch=1 n=d#5 v=86
54758 On ch=1 n=a#4 v=78
54764 On ch=1 n=g4 v=63
54780 On ch=1 n=d#5 v=0
54794 On ch=1 n=g4 v=0
54796 On ch=1 n=a#4 v=0
54864 On ch=1 n=d#5 v=75
54900 On ch=1 n=d#5 v=0
54972 On ch=1 n=c6 v=68
55010 On ch=1 n=c6 v=0
55062 On ch=1 n=c6 v=82
55107 On ch=1 n=c6 v=0
55164 On ch=1 n=d#5 v=83
55170 On ch=1 n=c6 v=87
55171 On ch=1 n=g#4 v=72
55197 On ch=1 n=g#4 v=0
55201 On ch=1 n=d#5 v=0
55211 On ch=1 n=c6 v=0
55261 On ch=1 n=c6 v=83
55312 On ch=1 n=c6 v=0
55365 On ch=1 n=f5 v=71
55405 On ch=1 n=f5 v=0
55460 On ch=1 n=f5 v=72
55502 On ch=1 n=f5 v=0
55567 On ch=1 n=a#5 v=86
55569 On ch=1 n=f4 v=72
55572 On ch=1 n=d4 v=71
55596 On ch=1 n=f4 v=0
55601 On ch=1 n=d4 v=0
55603 On ch=1 n=a#5 v=0
55664 On ch=1 n=a#5 v=91
55708 On ch=1 n=a#5 v=0
55768 On ch=1 n=a#4 v=72
55769 On ch=1 n=d#4 v=76
55770 On ch=1 n=g#5 v=91
55776 Par ch=1 c=64 v=63
55778 Par ch=1 c=64 v=127
55810 On ch=1 n=a#4 v=0
55811 On ch=1 n=d#4 v=0
55844 On ch=1 n=g#5 v=0
55877 On ch=1 n=g5 v=89
55894 Par ch=1 c=64 v=63
55898 Par ch=1 c=64 v=0
55916 On ch=1 n=g5 v=0
55987 On ch=1 n=f5 v=73
56051 On ch=1 n=f5 v=0
56078 Par ch=1 c=64 v=63
56080 Par ch=1 c=64 v=127
56082 On ch=1 n=d#5 v=70
56127 On ch=1 n=d#5 v=0
56216 On ch=1 n=c6 v=76
56341 On ch=1 n=c6 v=0
56347 On ch=1 n=g#5 v=85
56351 On ch=1 n=c7 v=99
56464 On ch=1 n=b6 v=100
56465 On ch=1 n=g5 v=86
56489 On ch=1 n=c7 v=0
56492 On ch=1 n=g#5 v=0
56565 On ch=1 n=a#6 v=107
56567 On ch=1 n=e5 v=108
56593 On ch=1 n=g5 v=0
56598 On ch=1 n=b6 v=0
56610 Par ch=1 c=64 v=63
56619 Par ch=1 c=64 v=0
56662 On ch=1 n=a6 v=103
56667 On ch=1 n=f5 v=100
56692 On ch=1 n=e5 v=0
56698 On ch=1 n=a#6 v=0
56709 Par ch=1 c=64 v=63
56716 Par ch=1 c=64 v=127
56764 On ch=1 n=g#6 v=109
56768 On ch=1 n=d5 v=107
56791 On ch=1 n=a6 v=0
56863 On ch=1 n=g6 v=98
56866 On ch=1 n=d#5 v=110
56895 On ch=1 n=g#6 v=0
56898 On ch=1 n=f5 v=0
56901 On ch=1 n=d5 v=0
56902 Par ch=1 c=64 v=63
56925 Par ch=1 c=64 v=0
56956 On ch=1 n=f#6 v=108
56962 On ch=1 n=a4 v=90
56983 On ch=1 n=g6 v=0
57046 On ch=1 n=a4 v=0
57060 On ch=1 n=f6 v=98
57062 On ch=1 n=a#4 v=95
57069 On ch=1 n=f#6 v=0
57080 Par ch=1 c=64 v=63
57090 Par ch=1 c=64 v=127
57109 On ch=1 n=f6 v=0
57123 Par ch=1 c=64 v=63
57135 Par ch=1 c=64 v=0
57159 On ch=1 n=f6 v=92
57237 On ch=1 n=f6 v=0
57274 On ch=1 n=d5 v=90
57286 On ch=1 n=a#6 v=108
57303 On ch=1 n=d#5 v=0
57333 On ch=1 n=a#6 v=0
57344 On ch=1 n=a#4 v=0
57371 On ch=1 n=a#6 v=97
57396 On ch=1 n=d5 v=0
57464 On ch=1 n=a#6 v=0
57474 On ch=1 n=d#6 v=105
57476 On ch=1 n=d#5 v=99
57479 Par ch=1 c=64 v=63
57483 Par ch=1 c=64 v=127
57514 On ch=1 n=d#6 v=0
57573 On ch=1 n=d#5 v=0
57580 On ch=1 n=a#4 v=77
57633 On ch=1 n=a#4 v=0
57692 On ch=1 n=g4 v=59
57742 On ch=1 n=g4 v=0
57784 On ch=1 n=d#4 v=72
57820 Par ch=1 c=64 v=63
57824 Par ch=1 c=64 v=127
57840 On ch=1 n=d#4 v=0
57878 Par ch=1 c=64 v=63
57883 Par ch=1 c=64 v=0
57901 On ch=1 n=g4 v=87
57927 Par ch=1 c=64 v=63
57930 Par ch=1 c=64 v=127
57971 On ch=1 n=g4 v=0
58026 On ch=1 n=g5 v=65
58139 On ch=1 n=f#5 v=82
58155 On ch=1 n=g5 v=0
58236 On ch=1 n=f#5 v=0
58238 On ch=1 n=f5 v=85
58244 On ch=1 n=b5 v=87
58349 On ch=1 n=d#5 v=90
58350 On ch=1 n=c6 v=104
58358 On ch=1 n=f5 v=0
58366 On ch=1 n=b5 v=0
58441 Par ch=1 c=64 v=63
58441 On ch=1 n=d5 v=98
58444 Par ch=1 c=64 v=0
58453 On ch=1 n=d6 v=100
58456 On ch=1 n=d#5 v=0
58477 On ch=1 n=c6 v=0
58510 Par ch=1 c=64 v=63
58515 Par ch=1 c=64 v=127
58544 On ch=1 n=c5 v=103
58556 On ch=1 n=d#6 v=108
58568 On ch=1 n=d5 v=0
58582 On ch=1 n=d6 v=0
58638 On ch=1 n=d#6 v=0
58639 On ch=1 n=a#4 v=106
58645 On ch=1 n=e6 v=94
58667 On ch=1 n=c5 v=0
58697 On ch=1 n=e6 v=0
58731 On ch=1 n=a#4 v=0
58737 Par ch=1 c=64 v=63
58741 On ch=1 n=f6 v=96
58741 Par ch=1 c=64 v=0
58744 On ch=1 n=a4 v=99
58789 Par ch=1 c=64 v=63
58799 Par ch=1 c=64 v=127
58846 On ch=1 n=f6 v=0
58870 On ch=1 n=a4 v=0
58878 On ch=1 n=f7 v=85
58980 On ch=1 n=e7 v=92
58983 On ch=1 n=f7 v=0
59078 On ch=1 n=a5 v=101
59079 On ch=1 n=d#7 v=103
59100 On ch=1 n=e7 v=0
59155 Par ch=1 c=64 v=63
59164 Par ch=1 c=64 v=0
59187 On ch=1 n=a#5 v=109
59188 On ch=1 n=d7 v=102
59219 On ch=1 n=d#7 v=0
59229 On ch=1 n=a5 v=0
59271 Par ch=1 c=64 v=63
59278 Par ch=1 c=64 v=127
59286 On ch=1 n=c6 v=111
59286 On ch=1 n=c7 v=104
59314 On ch=1 n=d7 v=0
59322 On ch=1 n=a#5 v=0
59382 On ch=1 n=d6 v=102
59390 On ch=1 n=a#6 v=112
59413 On ch=1 n=c7 v=0
59417 On ch=1 n=c6 v=0
59481 On ch=1 n=a#5 v=94
59487 On ch=1 n=g#6 v=110
59508 On ch=1 n=d6 v=0
59518 On ch=1 n=a#6 v=0
59569 Par ch=1 c=64 v=63
59570 On ch=1 n=a#5 v=0
59585 Par ch=1 c=64 v=0
59594 On ch=1 n=g6 v=98
59605 On ch=1 n=g#6 v=0
59614 On ch=1 n=b5 v=89
59624 Par ch=1 c=64 v=63
59640 Par ch=1 c=64 v=127
59665 On ch=1 n=b5 v=0
59692 On ch=1 n=d#7 v=98
59697 On ch=1 n=c6 v=84
59699 On ch=1 n=g6 v=0
59769 On ch=1 n=c6 v=0
59778 On ch=1 n=d#7 v=0
59792 On ch=1 n=a5 v=96
59814 On ch=1 n=f6 v=89
59847 Par ch=1 c=64 v=63
59871 On ch=1 n=f6 v=0
59877 Par ch=1 c=64 v=0
59886 Par ch=1 c=64 v=63
59895 On ch=1 n=d7 v=101
59899 On ch=1 n=a#5 v=105
59921 Par ch=1 c=64 v=127
59928 On ch=1 n=a5 v=0
60001 On ch=1 n=d7 v=0
60004 On ch=1 n=g5 v=99
60005 On ch=1 n=d#6 v=110
60008 On ch=1 n=a#5 v=0
60018 Par ch=1 c=64 v=63
60055 Par ch=1 c=64 v=127
60091 On ch=1 n=c7 v=107
60097 On ch=1 n=a5 v=103
60105 On ch=1 n=g5 v=0
60113 On ch=1 n=d#6 v=0
60190 Par ch=1 c=64 v=63
60204 On ch=1 n=f#5 v=118
60205 On ch=1 n=d6 v=106
60209 On ch=1 n=c7 v=0
60219 On ch=1 n=a5 v=0
60229 Par ch=1 c=64 v=127
60296 On ch=1 n=g5 v=102
60301 On ch=1 n=a#6 v=113
60313 On ch=1 n=f#5 v=0
60325 On ch=1 n=d6 v=0
60362 On ch=1 n=a#6 v=0
60380 On ch=1 n=g5 v=0
60380 Par ch=1 c=64 v=63
60386 Par ch=1 c=64 v=0
60403 On ch=1 n=a#5 v=103
60403 On ch=1 n=g5 v=72
60516 On ch=1 n=a#6 v=89
60615 On ch=1 n=a#6 v=0
60619 On ch=1 n=g6 v=77
60719 On ch=1 n=e6 v=83
60725 On ch=1 n=g6 v=0
60768 On ch=1 n=a#5 v=0
60811 On ch=1 n=g5 v=0
60823 On ch=1 n=f6 v=86
60824 On ch=1 n=a5 v=42
60825 On ch=1 n=e6 v=0
60827 On ch=1 n=f5 v=39
60921 On ch=1 n=f6 v=0
60924 On ch=1 n=a6 v=88
60977 On ch=1 n=a6 v=0
61014 On ch=1 n=f5 v=0
61021 On ch=1 n=c7 v=90
61027 On ch=1 n=a5 v=0
61056 On ch=1 n=c7 v=0
61125 On ch=1 n=c7 v=91
61152 On ch=1 n=c7 v=0
61225 On ch=1 n=g5 v=81
61230 On ch=1 n=a#5 v=91
61334 On ch=1 n=c7 v=97
61359 Par ch=1 c=64 v=63
61364 Par ch=1 c=64 v=127
61374 On ch=1 n=a#6 v=100
61384 On ch=1 n=c7 v=0
61419 On ch=1 n=a6 v=98
61440 On ch=1 n=a#6 v=0
61447 On ch=1 n=a#5 v=0
61465 On ch=1 n=g6 v=92
61469 On ch=1 n=a6 v=0
61500 On ch=1 n=g5 v=0
61509 On ch=1 n=f6 v=100
61511 On ch=1 n=g6 v=0
61555 On ch=1 n=e6 v=99
61558 On ch=1 n=f6 v=0
61582 Par ch=1 c=64 v=63
61587 Par ch=1 c=64 v=0
61594 On ch=1 n=a5 v=65
61599 On ch=1 n=e6 v=0
61603 On ch=1 n=f5 v=52
61610 On ch=1 n=f6 v=85
61648 On ch=1 n=f6 v=0
61651 On ch=1 n=c6 v=90
61703 On ch=1 n=c6 v=0
61703 On ch=1 n=f6 v=94
61744 On ch=1 n=a6 v=99
61753 On ch=1 n=f6 v=0
61784 On ch=1 n=a6 v=0
61792 On ch=1 n=c7 v=109
61821 On ch=1 n=f5 v=0
61826 On ch=1 n=c7 v=0
61827 On ch=1 n=a5 v=0
61896 On ch=1 n=c7 v=114
61927 On ch=1 n=c7 v=0
62000 On ch=1 n=g5 v=111
62001 On ch=1 n=a#5 v=119
62020 Par ch=1 c=64 v=63
62024 Par ch=1 c=64 v=127
62053 On ch=1 n=a6 v=104
62096 On ch=1 n=c7 v=100
62107 On ch=1 n=a6 v=0
62143 On ch=1 n=a#6 v=109
62167 On ch=1 n=c7 v=0
62186 On ch=1 n=a6 v=102
62215 On ch=1 n=a#6 v=0
62230 On ch=1 n=g6 v=90
62239 On ch=1 n=a6 v=0
62279 On ch=1 n=f6 v=98
62282 On ch=1 n=g6 v=0
62320 On ch=1 n=e6 v=85
62325 On ch=1 n=a#5 v=0
62329 On ch=1 n=f6 v=0
62353 On ch=1 n=g5 v=0
62373 On ch=1 n=f6 v=98
62374 On ch=1 n=e6 v=0
62381 On ch=1 n=a5 v=102
62385 On ch=1 n=f5 v=94
62400 Par ch=1 c=64 v=63
62406 Par ch=1 c=64 v=0
62426 On ch=1 n=f#6 v=106
62435 On ch=1 n=f6 v=0
62468 Par ch=1 c=64 v=63
62474 On ch=1 n=a6 v=94
62478 Par ch=1 c=64 v=127
62480 On ch=1 n=f#6 v=0
62521 On ch=1 n=g6 v=99
62548 On ch=1 n=a5 v=0
62549 Par ch=1 c=64 v=63
62554 On ch=1 n=a6 v=0
62560 On ch=1 n=f5 v=0
62561 Par ch=1 c=64 v=0
62568 On ch=1 n=f6 v=94
62595 On ch=1 n=g6 v=0
62616 On ch=1 n=d#6 v=112
62637 On ch=1 n=f6 v=0
62666 On ch=1 n=d6 v=77
62669 On ch=1 n=d#6 v=0
62721 On ch=1 n=c#6 v=106
62727 On ch=1 n=d6 v=0
62756 On ch=1 n=c#6 v=0
62782 On ch=1 n=d6 v=93
62782 On ch=1 n=a#4 v=63
62815 On ch=1 n=d6 v=0
62901 On ch=1 n=a#4 v=0
62901 On ch=1 n=f5 v=50
63003 On ch=1 n=d#6 v=98
63012 On ch=1 n=c5 v=63
63018 On ch=1 n=f5 v=0
63029 On ch=1 n=d#6 v=0
63081 On ch=1 n=c5 v=0
63100 On ch=1 n=f5 v=48
63206 On ch=1 n=e6 v=98
63210 Par ch=1 c=64 v=63
63214 Par ch=1 c=64 v=127
63216 On ch=1 n=d5 v=62
63218 On ch=1 n=f5 v=0
63241 On ch=1 n=e6 v=0
63279 On ch=1 n=d5 v=0
63299 On ch=1 n=f5 v=52
63385 Par ch=1 c=64 v=63
63389 Par ch=1 c=64 v=0
63401 On ch=1 n=f6 v=92
63406 On ch=1 n=a#4 v=61
63410 On ch=1 n=f5 v=0
63439 On ch=1 n=f6 v=0
63473 On ch=1 n=a#4 v=0
63497 On ch=1 n=f5 v=50
63514 On ch=1 n=d6 v=65
63537 On ch=1 n=d6 v=0
63596 On ch=1 n=d6 v=90
63598 On ch=1 n=f5 v=0
63603 On ch=1 n=a4 v=51
63620 On ch=1 n=c6 v=86
63627 On ch=1 n=d6 v=0
63657 On ch=1 n=c6 v=0
63697 On ch=1 n=a4 v=0
63709 On ch=1 n=f5 v=46
63713 On ch=1 n=b5 v=84
63746 On ch=1 n=b5 v=0
63812 On ch=1 n=c6 v=94
63813 On ch=1 n=a#4 v=65
63821 On ch=1 n=f5 v=0
63847 On ch=1 n=c6 v=0
63902 On ch=1 n=a#4 v=0
63907 On ch=1 n=d6 v=89
63912 On ch=1 n=f5 v=47
63945 On ch=1 n=d6 v=0
64001 On ch=1 n=f5 v=0
64016 On ch=1 n=f6 v=101
64021 On ch=1 n=c5 v=66
64032 Par ch=1 c=64 v=63
64037 Par ch=1 c=64 v=127
64110 On ch=1 n=c5 v=0
64117 On ch=1 n=f5 v=39
64188 Par ch=1 c=64 v=63
64194 Par ch=1 c=64 v=0
64202 On ch=1 n=f6 v=0
64211 On ch=1 n=d#6 v=96
64228 On ch=1 n=d#5 v=74
64230 On ch=1 n=f5 v=0
64248 On ch=1 n=d#6 v=0
64295 On ch=1 n=d#5 v=0
64321 On ch=1 n=a5 v=86
64324 On ch=1 n=f5 v=44
64369 On ch=1 n=a5 v=0
64423 On ch=1 n=f5 v=0
64426 On ch=1 n=d5 v=69
64426 On ch=1 n=a#5 v=94
64448 On ch=1 n=a#5 v=0
64506 On ch=1 n=d5 v=0
64541 On ch=1 n=a#5 v=116
64541 Par ch=1 c=64 v=63
64544 Par ch=1 c=64 v=127
64544 On ch=1 n=f5 v=48
64571 On ch=1 n=a#5 v=0
64636 On ch=1 n=f5 v=0
64644 On ch=1 n=d5 v=77
64720 On ch=1 n=d5 v=0
64738 On ch=1 n=f5 v=70
64740 On ch=1 n=b5 v=96
64757 Par ch=1 c=64 v=63
64765 Par ch=1 c=64 v=0
64797 On ch=1 n=b5 v=0
64842 On ch=1 n=c6 v=87
64848 On ch=1 n=a4 v=60
64850 On ch=1 n=f5 v=0
64868 On ch=1 n=c6 v=0
64938 On ch=1 n=a4 v=0
64945 Par ch=1 c=64 v=63
64948 Par ch=1 c=64 v=127
64955 On ch=1 n=c6 v=118
64956 On ch=1 n=f5 v=55
64996 On ch=1 n=c6 v=0
65046 On ch=1 n=f5 v=0
65058 On ch=1 n=a4 v=75
65139 On ch=1 n=a4 v=0
65151 On ch=1 n=c#6 v=103
65155 On ch=1 n=f5 v=61
65220 On ch=1 n=c#6 v=0
65226 Par ch=1 c=64 v=63
65234 Par ch=1 c=64 v=0
65244 On ch=1 n=a#4 v=74
65248 On ch=1 n=d6 v=84
65258 On ch=1 n=f5 v=0
65282 On ch=1 n=d6 v=0
65308 On ch=1 n=a#4 v=0
65344 On ch=1 n=a4 v=61
65345 On ch=1 n=c6 v=90
65388 On ch=1 n=c6 v=0
65407 On ch=1 n=a4 v=0
65440 On ch=1 n=a#4 v=86
65443 On ch=1 n=d6 v=91
65476 On ch=1 n=a#4 v=0
65482 On ch=1 n=d6 v=0
65537 On ch=1 n=d#6 v=106
65541 On ch=1 n=d#4 v=97
65542 On ch=1 n=c6 v=82
65570 On ch=1 n=d#6 v=0
65570 On ch=1 n=c6 v=0
65588 On ch=1 n=d#4 v=0
65645 On ch=1 n=f4 v=102
65652 On ch=1 n=a#5 v=104
65652 Par ch=1 c=64 v=63
65653 On ch=1 n=d6 v=102
65654 Par ch=1 c=64 v=127
65676 On ch=1 n=f4 v=0
65680 On ch=1 n=a#5 v=0
65694 On ch=1 n=d6 v=0
65861 On ch=1 n=a5 v=84
65865 On ch=1 n=c6 v=85
65874 Par ch=1 c=64 v=63
65876 Par ch=1 c=64 v=0
65885 On ch=1 n=a5 v=0
65895 On ch=1 n=c6 v=0
65981 On ch=1 n=a#5 v=89
66014 On ch=1 n=a#5 v=0
66016 On ch=1 n=c6 v=78
66054 On ch=1 n=d6 v=102
66064 On ch=1 n=a#4 v=72
66070 On ch=1 n=c6 v=0
66080 On ch=1 n=d6 v=0
66141 On ch=1 n=a#4 v=0
66163 On ch=1 n=f5 v=52
66266 On ch=1 n=d#6 v=112
66269 On ch=1 n=f5 v=0
66270 On ch=1 n=c5 v=76
66294 On ch=1 n=d#6 v=0
66345 On ch=1 n=c5 v=0
66355 On ch=1 n=f5 v=52
66469 On ch=1 n=d5 v=77
66470 On ch=1 n=e6 v=112
66474 On ch=1 n=f5 v=0
66477 Par ch=1 c=64 v=63
66480 Par ch=1 c=64 v=127
66544 On ch=1 n=d5 v=0
66563 On ch=1 n=f5 v=55
66651 On ch=1 n=e6 v=0
66660 Par ch=1 c=64 v=63
66664 Par ch=1 c=64 v=0
66669 On ch=1 n=a#4 v=70
66670 On ch=1 n=f6 v=84
66681 On ch=1 n=f5 v=0
66705 On ch=1 n=f6 v=0
66748 On ch=1 n=a#4 v=0
66762 On ch=1 n=f5 v=57
66772 On ch=1 n=d6 v=84
66790 On ch=1 n=d6 v=0
66858 On ch=1 n=f5 v=0
66859 On ch=1 n=d6 v=89
66864 On ch=1 n=a4 v=60
66875 On ch=1 n=c6 v=101
66883 On ch=1 n=d6 v=0
66914 On ch=1 n=c6 v=0
66956 On ch=1 n=a4 v=0
66967 On ch=1 n=f5 v=51
66973 On ch=1 n=b5 v=94
67012 On ch=1 n=b5 v=0
67066 On ch=1 n=c6 v=102
67069 On ch=1 n=a#4 v=82
67076 On ch=1 n=f5 v=0
67104 On ch=1 n=c6 v=0
67155 On ch=1 n=a#4 v=0
67155 On ch=1 n=d6 v=102
67160 On ch=1 n=f5 v=73
67194 On ch=1 n=d6 v=0
67236 On ch=1 n=f5 v=0
67260 On ch=1 n=c5 v=103
67263 On ch=1 n=f6 v=116
67352 On ch=1 n=f5 v=68
67354 On ch=1 n=c5 v=0
67452 On ch=1 n=f6 v=0
67459 On ch=1 n=d#6 v=98
67477 On ch=1 n=d#5 v=72
67484 On ch=1 n=f5 v=0
67504 On ch=1 n=d#6 v=0
67533 On ch=1 n=d#5 v=0
67561 On ch=1 n=a5 v=85
67565 On ch=1 n=f5 v=55
67608 On ch=1 n=a5 v=0
67631 On ch=1 n=f5 v=0
67647 Par ch=1 c=64 v=63
67649 Par ch=1 c=64 v=127
67654 On ch=1 n=a#5 v=108
67660 On ch=1 n=d5 v=100
67684 On ch=1 n=a#5 v=0
67688 On ch=1 n=d5 v=0
67750 Par ch=1 c=64 v=63
67753 On ch=1 n=a#6 v=106
67753 Par ch=1 c=64 v=0
67789 On ch=1 n=a#6 v=0
67851 On ch=1 n=a#6 v=101
67881 On ch=1 n=a#6 v=0
67946 On ch=1 n=a#6 v=100
67979 On ch=1 n=a#6 v=0
68037 Par ch=1 c=64 v=63
68038 Par ch=1 c=64 v=127
68050 On ch=1 n=c6 v=108
68051 On ch=1 n=d#5 v=109
68052 On ch=1 n=g5 v=88
68080 On ch=1 n=g5 v=0
68081 On ch=1 n=d#5 v=0
68097 On ch=1 n=c6 v=0
68150 On ch=1 n=g6 v=92
68188 On ch=1 n=g6 v=0
68196 Par ch=1 c=64 v=63
68201 Par ch=1 c=64 v=0
68262 On ch=1 n=g6 v=90
68295 On ch=1 n=g6 v=0
68343 On ch=1 n=g6 v=98
68386 On ch=1 n=g6 v=0
68426 Par ch=1 c=64 v=63
68428 Par ch=1 c=64 v=127
68443 On ch=1 n=d5 v=92
68451 On ch=1 n=a#5 v=113
68452 On ch=1 n=f4 v=75
68482 On ch=1 n=a#5 v=0
68501 On ch=1 n=d5 v=0
68549 On ch=1 n=a#5 v=108
68583 On ch=1 n=a#5 v=0
68652 On ch=1 n=c6 v=116
68652 On ch=1 n=d#5 v=92
68663 Par ch=1 c=64 v=63
68667 Par ch=1 c=64 v=0
68679 On ch=1 n=d6 v=100
68687 On ch=1 n=f4 v=0
68690 On ch=1 n=c6 v=0
68708 On ch=1 n=d#5 v=0
68715 On ch=1 n=c6 v=97
68738 On ch=1 n=d6 v=0
68758 On ch=1 n=a#5 v=98
68768 On ch=1 n=c6 v=0
68800 On ch=1 n=c6 v=86
68804 On ch=1 n=a#5 v=0
68827 On ch=1 n=d6 v=103
68845 On ch=1 n=c6 v=0
68871 On ch=1 n=a#5 v=126
68871 On ch=1 n=d5 v=117
68874 On ch=1 n=a#4 v=109
68875 Par ch=1 c=64 v=63
68875 Par ch=1 c=64 v=127
68882 On ch=1 n=d6 v=0
68908 On ch=1 n=a#5 v=0
69031 On ch=1 n=d5 v=0
69058 On ch=1 n=a#4 v=0
69203 On ch=1 n=a#5 v=126
69221 Par ch=1 c=64 v=63
69225 Par ch=1 c=64 v=0
69336 On ch=1 n=a#3 v=116
69339 On ch=1 n=g6 v=96
69342 On ch=1 n=a#6 v=107
69349 Par ch=1 c=64 v=63
69350 Par ch=1 c=64 v=127
69367 On ch=1 n=a#5 v=0
69434 On ch=1 n=a#6 v=0
69448 On ch=1 n=g6 v=0
69473 On ch=1 n=a#6 v=107
69475 On ch=1 n=g6 v=99
69486 On ch=1 n=a#4 v=108
69515 On ch=1 n=a#6 v=0
69525 On ch=1 n=g6 v=0
69528 On ch=1 n=a#4 v=0
69569 On ch=1 n=a#3 v=0
69584 On ch=1 n=a#4 v=104
69630 On ch=1 n=a#4 v=0
69672 On ch=1 n=a#4 v=92
69676 On ch=1 n=g6 v=109
69677 On ch=1 n=d#6 v=112
69749 On ch=1 n=d#6 v=0
69763 On ch=1 n=a#4 v=0
69767 On ch=1 n=g6 v=0
69774 Par ch=1 c=64 v=63
69774 On ch=1 n=a#3 v=106
69779 Par ch=1 c=64 v=0
69779 On ch=1 n=d6 v=100
69781 On ch=1 n=f6 v=88
69807 On ch=1 n=d6 v=0
69814 On ch=1 n=f6 v=0
69888 On ch=1 n=f6 v=118
69891 On ch=1 n=d6 v=117
69893 Par ch=1 c=64 v=63
69894 Par ch=1 c=64 v=127
69897 On ch=1 n=a#4 v=101
69927 On ch=1 n=d6 v=0
69936 On ch=1 n=a#3 v=0
69941 On ch=1 n=f6 v=0
69944 On ch=1 n=a#4 v=0
69977 On ch=1 n=a#4 v=70
70025 On ch=1 n=a#4 v=0
70092 On ch=1 n=a#4 v=96
70100 On ch=1 n=d6 v=101
70102 On ch=1 n=a#5 v=94
70123 On ch=1 n=a#4 v=0
70154 On ch=1 n=a#5 v=0
70190 On ch=1 n=f3 v=111
70193 On ch=1 n=a5 v=92
70196 On ch=1 n=c6 v=93
70206 Par ch=1 c=64 v=63
70207 On ch=1 n=d6 v=0
70212 Par ch=1 c=64 v=0
70232 On ch=1 n=a5 v=0
70240 On ch=1 n=c6 v=0
70306 Par ch=1 c=64 v=63
70307 On ch=1 n=c6 v=120
70307 On ch=1 n=f4 v=108
70308 Par ch=1 c=64 v=127
70309 On ch=1 n=a5 v=109
70353 On ch=1 n=c6 v=0
70354 On ch=1 n=a5 v=0
70357 On ch=1 n=f4 v=0
70397 On ch=1 n=f3 v=0
70403 On ch=1 n=f4 v=97
70447 On ch=1 n=f4 v=0
70503 On ch=1 n=d#6 v=103
70506 On ch=1 n=c6 v=101
70506 On ch=1 n=f4 v=56
70546 On ch=1 n=f4 v=0
70564 On ch=1 n=c6 v=0
70588 On ch=1 n=d#6 v=0
70600 On ch=1 n=a#3 v=81
70601 Par ch=1 c=64 v=63
70605 Par ch=1 c=64 v=0
70611 On ch=1 n=a5 v=87
70614 On ch=1 n=c#6 v=97
70702 On ch=1 n=a5 v=0
70703 On ch=1 n=d6 v=90
70705 On ch=1 n=a#5 v=84
70707 On ch=1 n=c#6 v=0
70708 On ch=1 n=a#4 v=92
70730 On ch=1 n=a#5 v=0
70740 On ch=1 n=d6 v=0
70748 On ch=1 n=a#4 v=0
70762 On ch=1 n=a#3 v=0
70806 On ch=1 n=d6 v=104
70809 On ch=1 n=a#5 v=107
70811 On ch=1 n=a#4 v=79
70835 On ch=1 n=a#5 v=0
70837 On ch=1 n=d6 v=0
70843 On ch=1 n=a#4 v=0
70912 On ch=1 n=a#4 v=89
70916 Par ch=1 c=64 v=63
70916 Par ch=1 c=64 v=127
70918 On ch=1 n=a#5 v=115
70995 Par ch=1 c=64 v=63
70999 Par ch=1 c=64 v=0
71024 On ch=1 n=a#3 v=94
71029 On ch=1 n=a#4 v=0
71029 On ch=1 n=a#6 v=104
71031 On ch=1 n=g6 v=90
71035 On ch=1 n=a#5 v=0
71037 Par ch=1 c=64 v=63
71041 Par ch=1 c=64 v=127
71078 On ch=1 n=g6 v=0
71089 On ch=1 n=a#6 v=0
71129 On ch=1 n=a#6 v=101
71133 On ch=1 n=g6 v=92
71137 On ch=1 n=a#4 v=97
71183 On ch=1 n=a#3 v=0
71184 On ch=1 n=g6 v=0
71189 On ch=1 n=a#4 v=0
71197 On ch=1 n=a#6 v=0
71241 On ch=1 n=a#4 v=94
71284 On ch=1 n=a#4 v=0
71333 On ch=1 n=d#6 v=104
71335 On ch=1 n=g6 v=89
71336 On ch=1 n=a#4 v=74
71404 On ch=1 n=d#6 v=0
71421 On ch=1 n=a#4 v=0
71431 On ch=1 n=g6 v=0
71433 On ch=1 n=d6 v=82
71435 On ch=1 n=f6 v=85
71435 On ch=1 n=a#3 v=77
71437 Par ch=1 c=64 v=63
71440 Par ch=1 c=64 v=0
71450 On ch=1 n=d6 v=0
71466 On ch=1 n=f6 v=0
71538 Par ch=1 c=64 v=63
71540 Par ch=1 c=64 v=127
71543 On ch=1 n=a#4 v=93
71544 On ch=1 n=f6 v=116
71546 On ch=1 n=a#3 v=0
71546 On ch=1 n=d6 v=114
71585 On ch=1 n=d6 v=0
71592 On ch=1 n=f6 v=0
71595 On ch=1 n=a#4 v=0
71645 On ch=1 n=a#4 v=70
71681 On ch=1 n=a#4 v=0
71731 On ch=1 n=a#4 v=80
71754 On ch=1 n=d6 v=88
71754 On ch=1 n=a#5 v=86
71770 On ch=1 n=a#4 v=0
71808 On ch=1 n=a#5 v=0
71845 On ch=1 n=d6 v=0
71848 On ch=1 n=f3 v=102
71853 On ch=1 n=c6 v=89
71854 On ch=1 n=a5 v=86
71855 Par ch=1 c=64 v=63
71860 Par ch=1 c=64 v=0
71900 On ch=1 n=a5 v=0
71912 On ch=1 n=c6 v=0
71948 Par ch=1 c=64 v=63
71951 Par ch=1 c=64 v=127
71957 On ch=1 n=f4 v=108
71957 On ch=1 n=a5 v=88
71958 On ch=1 n=c6 v=102
71977 On ch=1 n=f3 v=0
72011 On ch=1 n=f4 v=0
72018 On ch=1 n=a5 v=0
72034 On ch=1 n=c6 v=0
72062 On ch=1 n=f4 v=88
72105 On ch=1 n=f4 v=0
72155 On ch=1 n=d#6 v=103
72162 On ch=1 n=c6 v=92
72168 On ch=1 n=f4 v=48
72199 On ch=1 n=f4 v=0
72204 On ch=1 n=c6 v=0
72229 On ch=1 n=d#6 v=0
72234 Par ch=1 c=64 v=63
72238 Par ch=1 c=64 v=0
72249 On ch=1 n=a#3 v=87
72255 On ch=1 n=c#6 v=101
72256 On ch=1 n=a5 v=89
72315 Par ch=1 c=64 v=63
72320 Par ch=1 c=64 v=127
72347 On ch=1 n=a#5 v=99
72349 On ch=1 n=a#4 v=97
72355 On ch=1 n=d6 v=86
72361 On ch=1 n=a5 v=0
72371 On ch=1 n=a#3 v=0
72371 On ch=1 n=c#6 v=0
72385 On ch=1 n=a#5 v=0
72391 On ch=1 n=a#4 v=0
72397 On ch=1 n=d6 v=0
72441 On ch=1 n=d6 v=97
72445 On ch=1 n=a#5 v=96
72450 On ch=1 n=a#4 v=92
72467 Par ch=1 c=64 v=127
72475 On ch=1 n=a#5 v=0
72476 On ch=1 n=d6 v=0
72498 On ch=1 n=a#4 v=0
72546 On ch=1 n=a#5 v=100
72551 Par ch=1 c=64 v=63
72555 Par ch=1 c=64 v=0
72657 On ch=1 n=a#5 v=0
72667 On ch=1 n=a#6 v=109
72710 On ch=1 n=a#6 v=0
72763 On ch=1 n=a#6 v=106
72803 On ch=1 n=a#6 v=0
72869 On ch=1 n=a#6 v=100
72878 On ch=1 n=g4 v=102
72915 On ch=1 n=a#6 v=0
72975 On ch=1 n=a#6 v=100
73027 On ch=1 n=a#6 v=0
73073 Par ch=1 c=64 v=63
73075 Par ch=1 c=64 v=127
73087 On ch=1 n=e6 v=93
73131 On ch=1 n=e6 v=0
73177 On ch=1 n=a4 v=77
73185 On ch=1 n=g4 v=0
73194 On ch=1 n=e6 v=102
73217 On ch=1 n=a#4 v=103
73227 Par ch=1 c=64 v=63
73233 Par ch=1 c=64 v=0
73238 On ch=1 n=e6 v=0
73249 On ch=1 n=a4 v=0
73284 On ch=1 n=c5 v=113
73293 On ch=1 n=e6 v=90
73314 On ch=1 n=a#4 v=0
73328 On ch=1 n=e6 v=0
73382 On ch=1 n=a#4 v=114
73384 On ch=1 n=e6 v=104
73412 On ch=1 n=c5 v=0
73438 On ch=1 n=e6 v=0
73478 Par ch=1 c=64 v=63
73480 Par ch=1 c=64 v=127
73498 On ch=1 n=c7 v=106
73542 On ch=1 n=c7 v=0
73578 Par ch=1 c=64 v=63
73581 Par ch=1 c=64 v=0
73582 On ch=1 n=a4 v=99
73591 On ch=1 n=a#4 v=0
73597 On ch=1 n=c7 v=104
73620 Par ch=1 c=64 v=63
73625 Par ch=1 c=64 v=127
73640 On ch=1 n=c7 v=0
73650 On ch=1 n=a4 v=0
73680 Par ch=1 c=64 v=63
73683 Par ch=1 c=64 v=0
73690 On ch=1 n=c7 v=97
73742 On ch=1 n=c7 v=0
73775 On ch=1 n=f3 v=88
73792 On ch=1 n=c7 v=81
73827 Par ch=1 c=64 v=63
73830 Par ch=1 c=64 v=127
73878 On ch=1 n=c7 v=0
73888 On ch=1 n=f#3 v=76
73898 On ch=1 n=d#6 v=86
73944 On ch=1 n=d#6 v=0
73947 On ch=1 n=f3 v=0
73980 On ch=1 n=g3 v=98
73988 On ch=1 n=d#6 v=95
74005 On ch=1 n=f#3 v=0
74039 On ch=1 n=d#6 v=0
74081 On ch=1 n=d#6 v=101
74083 On ch=1 n=g#3 v=110
74110 On ch=1 n=g3 v=0
74122 Par ch=1 c=64 v=63
74126 On ch=1 n=d#6 v=0
74128 Par ch=1 c=64 v=0
74176 On ch=1 n=d#6 v=110
74178 On ch=1 n=a3 v=104
74205 On ch=1 n=g#3 v=0
74222 On ch=1 n=d#6 v=0
74272 Par ch=1 c=64 v=63
74273 Par ch=1 c=64 v=127
74277 On ch=1 n=a#3 v=104
74282 On ch=1 n=d6 v=92
74292 On ch=1 n=a3 v=0
74307 On ch=1 n=a#3 v=0
74326 On ch=1 n=d6 v=0
74394 On ch=1 n=a#6 v=81
74395 Par ch=1 c=64 v=63
74395 On ch=1 n=a#4 v=93
74402 Par ch=1 c=64 v=0
74499 On ch=1 n=a6 v=91
74506 On ch=1 n=a#6 v=0
74516 On ch=1 n=c5 v=80
74552 On ch=1 n=a#4 v=0
74606 On ch=1 n=g#6 v=98
74607 On ch=1 n=d5 v=97
74621 On ch=1 n=c5 v=0
74628 On ch=1 n=a6 v=0
74710 On ch=1 n=g6 v=91
74715 On ch=1 n=d#5 v=101
74732 On ch=1 n=g#6 v=0
74742 On ch=1 n=d5 v=0
74768 On ch=1 n=d#5 v=0
74812 On ch=1 n=f#6 v=109
74813 On ch=1 n=d#5 v=116
74833 On ch=1 n=g6 v=0
74911 On ch=1 n=f6 v=107
74912 On ch=1 n=f5 v=106
74938 On ch=1 n=d#5 v=0
74945 On ch=1 n=f#6 v=0
75013 On ch=1 n=f#5 v=116
75014 On ch=1 n=e6 v=112
75034 On ch=1 n=f5 v=0
75036 On ch=1 n=f6 v=0
75092 On ch=1 n=f#5 v=0
75122 Par ch=1 c=64 v=63
75123 Par ch=1 c=64 v=127
75125 On ch=1 n=f6 v=106
75126 On ch=1 n=f5 v=113
75140 On ch=1 n=e6 v=0
75213 On ch=1 n=f6 v=0
75228 On ch=1 n=d6 v=90
75231 Par ch=1 c=64 v=63
75240 Par ch=1 c=64 v=127
75242 On ch=1 n=a#5 v=79
75271 On ch=1 n=d6 v=0
75273 On ch=1 n=f5 v=0
75281 On ch=1 n=a#5 v=0
75302 Par ch=1 c=64 v=63
75312 Par ch=1 c=64 v=0
75335 Par ch=1 c=64 v=63
75336 On ch=1 n=f5 v=99
75339 On ch=1 n=a5 v=85
75341 On ch=1 n=c6 v=94
75346 Par ch=1 c=64 v=127
75417 On ch=1 n=c6 v=0
75438 On ch=1 n=f6 v=108
75457 On ch=1 n=a5 v=0
75505 On ch=1 n=f5 v=0
75508 On ch=1 n=f6 v=0
75540 On ch=1 n=d#6 v=105
75544 On ch=1 n=c6 v=92
75547 On ch=1 n=f#5 v=115
75599 Par ch=1 c=64 v=63
75608 Par ch=1 c=64 v=0
75638 Par ch=1 c=64 v=63
75657 Par ch=1 c=64 v=127
75749 On ch=1 n=d#6 v=0
75779 Par ch=1 c=64 v=63
75784 On ch=1 n=a#5 v=55
75785 On ch=1 n=c6 v=0
75789 Par ch=1 c=64 v=0
75795 On ch=1 n=g5 v=89
75796 On ch=1 n=f#5 v=0
75798 On ch=1 n=d6 v=86
75816 Par ch=1 c=64 v=63
75824 On ch=1 n=g5 v=0
75830 Par ch=1 c=64 v=127
75933 On ch=1 n=g3 v=102
75947 Par ch=1 c=64 v=63
75954 Par ch=1 c=64 v=0
75962 On ch=1 n=a#5 v=0
75972 Par ch=1 c=64 v=127
75989 On ch=1 n=d6 v=0
76024 On ch=1 n=g3 v=0
76109 On ch=1 n=a#4 v=101
76205 On ch=1 n=a#4 v=0
76242 On ch=1 n=a#4 v=85
76243 On ch=1 n=f#6 v=103
76300 On ch=1 n=a#4 v=0
76340 On ch=1 n=a#4 v=92
76344 On ch=1 n=g6 v=100
76354 On ch=1 n=f#6 v=0
76358 Par ch=1 c=64 v=63
76361 Par ch=1 c=64 v=0
76392 On ch=1 n=a#4 v=0
76425 On ch=1 n=a#6 v=107
76429 On ch=1 n=a#4 v=89
76439 On ch=1 n=g6 v=0
76493 On ch=1 n=a#4 v=0
76535 On ch=1 n=e4 v=101
76539 On ch=1 n=c#7 v=110
76555 Par ch=1 c=64 v=63
76557 On ch=1 n=a#6 v=0
76557 Par ch=1 c=64 v=127
76613 On ch=1 n=e4 v=0
76659 On ch=1 n=e4 v=91
76679 On ch=1 n=c#7 v=0
76701 On ch=1 n=d#7 v=93
76710 On ch=1 n=e4 v=0
76735 On ch=1 n=c#7 v=90
76751 On ch=1 n=e4 v=97
76756 On ch=1 n=d#7 v=0
76761 On ch=1 n=c7 v=92
76764 Par ch=1 c=64 v=63
76769 Par ch=1 c=64 v=0
76801 On ch=1 n=e4 v=0
76804 On ch=1 n=c#7 v=0
76830 On ch=1 n=c7 v=0
76861 On ch=1 n=a#6 v=110
76866 On ch=1 n=e4 v=98
76929 On ch=1 n=e4 v=0
76954 On ch=1 n=a#6 v=0
76960 On ch=1 n=a6 v=94
76962 Par ch=1 c=64 v=63
76963 Par ch=1 c=64 v=127
76970 On ch=1 n=f#4 v=93
76996 On ch=1 n=a6 v=0
77020 On ch=1 n=f#4 v=0
77086 On ch=1 n=f#4 v=90
77095 On ch=1 n=a5 v=94
77142 On ch=1 n=f#4 v=0
77191 On ch=1 n=a5 v=0
77192 On ch=1 n=c6 v=100
77199 On ch=1 n=f#4 v=104
77247 On ch=1 n=f#4 v=0
77269 On ch=1 n=f#4 v=98
77275 On ch=1 n=d#6 v=107
77279 On ch=1 n=c6 v=0
77314 On ch=1 n=f#4 v=0
77365 On ch=1 n=d#6 v=0
77387 Par ch=1 c=64 v=63
77388 On ch=1 n=f#6 v=106
77392 Par ch=1 c=64 v=0
77395 On ch=1 n=a3 v=96
77443 Par ch=1 c=64 v=63
77450 Par ch=1 c=64 v=127
77466 On ch=1 n=a3 v=0
77502 On ch=1 n=a3 v=85
77528 On ch=1 n=f#6 v=0
77545 On ch=1 n=a3 v=0
77548 On ch=1 n=g#6 v=85
77581 On ch=1 n=f#6 v=94
77587 On ch=1 n=a3 v=101
77601 On ch=1 n=g#6 v=0
77602 Par ch=1 c=64 v=63
77605 Par ch=1 c=64 v=0
77609 On ch=1 n=f6 v=99
77634 On ch=1 n=a3 v=0
77648 On ch=1 n=f#6 v=0
77668 On ch=1 n=f6 v=0
77702 On ch=1 n=a3 v=96
77704 On ch=1 n=d#6 v=115
77745 On ch=1 n=d#6 v=0
77754 On ch=1 n=a3 v=0
77804 On ch=1 n=a#3 v=100
77805 On ch=1 n=d6 v=104
77808 Par ch=1 c=64 v=127
77836 On ch=1 n=a#3 v=0
77842 On ch=1 n=d6 v=0
77899 Par ch=1 c=64 v=63
77902 Par ch=1 c=64 v=0
77916 On ch=1 n=a#5 v=97
77919 On ch=1 n=a#4 v=99
77959 On ch=1 n=a#4 v=0
77966 On ch=1 n=a#5 v=0
78022 On ch=1 n=c6 v=97
78023 On ch=1 n=a4 v=93
78060 On ch=1 n=c6 v=0
78069 On ch=1 n=a4 v=0
78121 On ch=1 n=d6 v=100
78122 On ch=1 n=g#4 v=101
78155 On ch=1 n=d6 v=0
78157 On ch=1 n=g#4 v=0
78225 On ch=1 n=g4 v=92
78228 On ch=1 n=d#6 v=106
78264 On ch=1 n=d#6 v=0
78274 On ch=1 n=g4 v=0
78325 On ch=1 n=e6 v=103
78328 On ch=1 n=f#4 v=91
78363 On ch=1 n=e6 v=0
78366 On ch=1 n=f#4 v=0
78426 On ch=1 n=f4 v=103
78429 On ch=1 n=f6 v=114
78463 On ch=1 n=f6 v=0
78473 On ch=1 n=f4 v=0
78525 On ch=1 n=f#6 v=121
78525 On ch=1 n=d4 v=117
78564 On ch=1 n=f#6 v=0
78578 On ch=1 n=d4 v=0
78640 On ch=1 n=d#4 v=127
78644 On ch=1 n=g6 v=116
78669 On ch=1 n=d#4 v=0
78677 On ch=1 n=g6 v=0
78910 On ch=1 n=a#6 v=114
78911 On ch=1 n=e3 v=102
78912 On ch=1 n=c#6 v=116
78913 On ch=1 n=g6 v=103
78916 On ch=1 n=e4 v=120
78936 Par ch=1 c=64 v=127
78988 On ch=1 n=e4 v=0
78994 On ch=1 n=e3 v=0
78994 On ch=1 n=c#6 v=0
79006 On ch=1 n=g6 v=0
79024 On ch=1 n=a#6 v=0
79283 Par ch=1 c=64 v=63
79298 Par ch=1 c=64 v=0
79323 On ch=1 n=g6 v=109
79368 Par ch=1 c=64 v=63
79369 Par ch=1 c=64 v=127
79461 On ch=1 n=a6 v=116
79471 On ch=1 n=g6 v=0
79544 On ch=1 n=a6 v=0
79566 On ch=1 n=a#6 v=119
79651 On ch=1 n=a#6 v=0
79682 On ch=1 n=f4 v=113
79683 Par ch=1 c=64 v=63
79684 On ch=1 n=a#6 v=101
79686 Par ch=1 c=64 v=0
79729 Par ch=1 c=64 v=63
79734 Par ch=1 c=64 v=127
79755 On ch=1 n=a#6 v=0
79773 On ch=1 n=c7 v=94
79832 On ch=1 n=d5 v=79
79841 On ch=1 n=d7 v=104
79849 On ch=1 n=c7 v=0
79887 On ch=1 n=d#7 v=108
79908 On ch=1 n=d7 v=0
79940 On ch=1 n=f7 v=100
79944 On ch=1 n=a#4 v=88
79950 On ch=1 n=d#7 v=0
79984 On ch=1 n=d5 v=0
79998 On ch=1 n=d#7 v=112
80023 On ch=1 n=f7 v=0
80038 On ch=1 n=f4 v=0
80043 On ch=1 n=d7 v=104
80050 On ch=1 n=d5 v=87
80066 On ch=1 n=d#7 v=0
80095 On ch=1 n=a#4 v=0
80098 On ch=1 n=c7 v=98
80101 On ch=1 n=d7 v=0
80150 On ch=1 n=a#6 v=110
80152 On ch=1 n=d5 v=0
80161 On ch=1 n=f4 v=97
80163 On ch=1 n=c7 v=0
80202 On ch=1 n=a6 v=94
80226 On ch=1 n=a#6 v=0
80251 On ch=1 n=g6 v=92
80254 On ch=1 n=d5 v=84
80266 On ch=1 n=a6 v=0
80297 On ch=1 n=f6 v=91
80298 On ch=1 n=g6 v=0
80345 On ch=1 n=d#6 v=110
80354 On ch=1 n=f6 v=0
80356 On ch=1 n=a#4 v=86
80381 On ch=1 n=d5 v=0
80398 On ch=1 n=d6 v=98
80408 On ch=1 n=d#6 v=0
80440 On ch=1 n=f4 v=0
80441 On ch=1 n=c6 v=97
80442 On ch=1 n=d6 v=0
80452 On ch=1 n=d5 v=88
80478 On ch=1 n=a#4 v=0
80487 On ch=1 n=a#5 v=108
80497 On ch=1 n=c6 v=0
80537 On ch=1 n=a#5 v=0
80548 Par ch=1 c=64 v=63
80549 On ch=1 n=d5 v=0
80552 On ch=1 n=f4 v=94
80554 On ch=1 n=c6 v=111
80557 Par ch=1 c=64 v=0
80603 Par ch=1 c=64 v=63
80607 Par ch=1 c=64 v=127
80666 On ch=1 n=c6 v=0
80684 On ch=1 n=d#5 v=70
80690 On ch=1 n=d6 v=80
80735 On ch=1 n=d6 v=0
80755 On ch=1 n=c6 v=71
80763 On ch=1 n=f4 v=0
80763 On ch=1 n=d#5 v=0
80786 On ch=1 n=a4 v=57
80796 On ch=1 n=c6 v=0
80799 On ch=1 n=d6 v=71
80833 On ch=1 n=d6 v=0
80847 On ch=1 n=c6 v=79
80886 On ch=1 n=d6 v=84
80888 On ch=1 n=d#5 v=69
80890 On ch=1 n=c6 v=0
80911 On ch=1 n=d6 v=0
80915 On ch=1 n=a4 v=0
80923 On ch=1 n=c6 v=87
80953 On ch=1 n=d6 v=97
80963 On ch=1 n=c6 v=0
80979 On ch=1 n=d6 v=0
80986 On ch=1 n=c6 v=92
80996 On ch=1 n=d#5 v=0
80996 On ch=1 n=f4 v=79
81010 On ch=1 n=d6 v=100
81027 On ch=1 n=c6 v=0
81044 On ch=1 n=d6 v=0
81050 On ch=1 n=c6 v=104
81076 On ch=1 n=d6 v=96
81087 On ch=1 n=f4 v=0
81089 On ch=1 n=d#5 v=80
81094 On ch=1 n=c6 v=0
81110 On ch=1 n=d6 v=0
81113 On ch=1 n=c6 v=99
81143 On ch=1 n=d6 v=92
81159 On ch=1 n=c6 v=0
81182 On ch=1 n=c6 v=38
81186 On ch=1 n=a4 v=78
81191 On ch=1 n=d#5 v=0
81206 On ch=1 n=c6 v=0
81226 On ch=1 n=c6 v=90
81236 On ch=1 n=d6 v=0
81262 On ch=1 n=d6 v=96
81267 On ch=1 n=c6 v=0
81281 On ch=1 n=d#5 v=83
81287 On ch=1 n=a4 v=0
81294 On ch=1 n=d6 v=0
81298 On ch=1 n=c6 v=87
81324 On ch=1 n=d#5 v=0
81340 On ch=1 n=a#5 v=90
81344 On ch=1 n=c6 v=0
81376 On ch=1 n=c6 v=84
81379 On ch=1 n=a#5 v=0
81456 On ch=1 n=a#5 v=95
81459 On ch=1 n=a#3 v=80
81477 On ch=1 n=c6 v=0
81484 Par ch=1 c=64 v=63
81494 Par ch=1 c=64 v=0
81560 Par ch=1 c=64 v=63
81567 Par ch=1 c=64 v=127
81615 On ch=1 n=a#4 v=81
81629 On ch=1 n=a#3 v=0
81638 On ch=1 n=a#5 v=0
81659 On ch=1 n=a#4 v=0
81734 On ch=1 n=a#4 v=72
81743 Par ch=1 c=64 v=63
81752 Par ch=1 c=64 v=0
81768 On ch=1 n=a#4 v=0
81835 On ch=1 n=a#4 v=68
81871 On ch=1 n=a#4 v=0
81937 On ch=1 n=a#4 v=56
82003 Par ch=1 c=64 v=63
82009 Par ch=1 c=64 v=127
82060 On ch=1 n=f6 v=68
82062 On ch=1 n=d6 v=54
82170 On ch=1 n=d6 v=0
82191 On ch=1 n=d#6 v=94
82194 On ch=1 n=c6 v=77
82195 On ch=1 n=a#4 v=0
82205 On ch=1 n=f6 v=0
82269 On ch=1 n=d#6 v=0
82270 On ch=1 n=c6 v=0
82298 On ch=1 n=d6 v=79
82312 On ch=1 n=a#5 v=75
82349 On ch=1 n=d6 v=0
82366 On ch=1 n=a#5 v=0
82419 On ch=1 n=a#3 v=54
82421 On ch=1 n=d#6 v=84
82423 On ch=1 n=g6 v=86
82448 Par ch=1 c=64 v=63
82453 Par ch=1 c=64 v=0
82506 Par ch=1 c=64 v=63
82515 Par ch=1 c=64 v=127
82540 On ch=1 n=a#3 v=0
82541 On ch=1 n=a#4 v=63
82588 On ch=1 n=a#4 v=0
82591 On ch=1 n=g6 v=0
82615 On ch=1 n=d#6 v=0
82659 On ch=1 n=a#4 v=60
82665 Par ch=1 c=64 v=63
82669 Par ch=1 c=64 v=0
82691 On ch=1 n=a#4 v=0
82759 On ch=1 n=a#4 v=58
82794 On ch=1 n=a#4 v=0
82862 On ch=1 n=a#4 v=54
82899 Par ch=1 c=64 v=63
82901 Par ch=1 c=64 v=127
82985 On ch=1 n=d#6 v=52
82989 On ch=1 n=g6 v=58
83063 On ch=1 n=d#6 v=0
83098 On ch=1 n=f6 v=71
83105 On ch=1 n=a6 v=75
83139 On ch=1 n=g6 v=0
83156 On ch=1 n=a#4 v=0
83191 On ch=1 n=a#6 v=91
83193 On ch=1 n=g6 v=73
83218 On ch=1 n=f6 v=0
83229 On ch=1 n=a6 v=0
83291 On ch=1 n=a#3 v=63
83292 On ch=1 n=a#6 v=0
83297 On ch=1 n=f6 v=87
83304 On ch=1 n=d6 v=67
83322 Par ch=1 c=64 v=63
83326 Par ch=1 c=64 v=0
83333 On ch=1 n=g6 v=0
83395 Par ch=1 c=64 v=63
83402 Par ch=1 c=64 v=127
83414 On ch=1 n=a#4 v=70
83419 On ch=1 n=a#3 v=0
83457 On ch=1 n=a#4 v=0
83476 On ch=1 n=d6 v=0
83501 On ch=1 n=f6 v=0
83529 On ch=1 n=a#4 v=70
83531 Par ch=1 c=64 v=63
83537 Par ch=1 c=64 v=0
83562 On ch=1 n=a#4 v=0
83629 On ch=1 n=a#4 v=73
83661 On ch=1 n=a#4 v=0
83711 Par ch=1 c=64 v=63
83714 Par ch=1 c=64 v=127
83736 On ch=1 n=a#4 v=67
83845 On ch=1 n=a#5 v=53
83849 On ch=1 n=d6 v=63
83852 On ch=1 n=a#4 v=0
83910 On ch=1 n=a#5 v=0
83955 On ch=1 n=d#6 v=80
83963 On ch=1 n=c6 v=59
83975 On ch=1 n=d6 v=0
84038 On ch=1 n=d#6 v=0
84055 On ch=1 n=c6 v=0
84059 On ch=1 n=d6 v=68
84060 On ch=1 n=f6 v=76
84121 On ch=1 n=d6 v=0
84144 On ch=1 n=f6 v=0
84171 Par ch=1 c=64 v=63
84172 On ch=1 n=d#6 v=86
84174 On ch=1 n=f3 v=61
84179 Par ch=1 c=64 v=0
84182 On ch=1 n=c6 v=68
84241 Par ch=1 c=64 v=63
84251 Par ch=1 c=64 v=127
84284 On ch=1 n=f3 v=0
84289 On ch=1 n=f4 v=51
84308 On ch=1 n=c6 v=0
84325 On ch=1 n=d#6 v=0
84333 On ch=1 n=f4 v=0
84401 On ch=1 n=f4 v=59
84410 Par ch=1 c=64 v=63
84416 Par ch=1 c=64 v=0
84438 On ch=1 n=f4 v=0
84500 On ch=1 n=f4 v=59
84533 On ch=1 n=f4 v=0
84622 On ch=1 n=f4 v=61
84641 Par ch=1 c=64 v=63
84642 Par ch=1 c=64 v=127
84724 On ch=1 n=f5 v=72
84733 On ch=1 n=f4 v=0
84824 On ch=1 n=f5 v=0
84844 On ch=1 n=e5 v=81
84845 On ch=1 n=g5 v=84
84884 On ch=1 n=e5 v=0
84921 On ch=1 n=g5 v=0
84937 On ch=1 n=a5 v=102
84941 On ch=1 n=d#5 v=99
84984 On ch=1 n=d#5 v=0
85030 On ch=1 n=a5 v=0
85047 Par ch=1 c=64 v=63
85049 On ch=1 n=a#5 v=114
85051 On ch=1 n=a#3 v=116
85052 Par ch=1 c=64 v=0
85052 On ch=1 n=d5 v=109
85082 On ch=1 n=d5 v=0
85083 On ch=1 n=a#3 v=0
85097 On ch=1 n=a#5 v=0
85302 On ch=1 n=a#4 v=121
85302 On ch=1 n=d6 v=121
85306 On ch=1 n=f5 v=116
85332 On ch=1 n=f5 v=0
85333 On ch=1 n=d6 v=0
85338 On ch=1 n=a#4 v=0
85573 On ch=1 n=a#3 v=116
85578 On ch=1 n=a#5 v=118
85578 On ch=1 n=d5 v=116
85597 Par ch=1 c=64 v=127
85631 On ch=1 n=a#3 v=0
85669 On ch=1 n=d5 v=0
85689 On ch=1 n=a#5 v=0
85863 Par ch=1 c=64 v=63
85867 Par ch=1 c=64 v=0
86952 Par ch=1 c=67 v=127
87339 Par ch=1 c=67 v=0
87339 Meta TrkEnd
TrkEnd
MTrk
0 TimeSig 4/4 24 8
0 Meta TrkName "                                    "
0 Meta TrkEnd
TrkEnd
MTrk
0 TimeSig 4/4 24 8
0 Meta TrkName "                                    "
0 Meta TrkEnd
TrkEnd
MTrk
0 TimeSig 4/4 24 8
0 Meta TrkName "                                    "
0 Meta TrkEnd
TrkEnd
MTrk
0 TimeSig 4/4 24 8
0 Meta TrkName "                                    "
0 Meta TrkEnd
TrkEnd
MTrk
0 TimeSig 4/4 24 8
0 Meta TrkName "                                    "
0 Meta TrkEnd
TrkEnd
MTrk
0 TimeSig 4/4 24 8
0 Meta TrkName "                                    "
0 Meta TrkEnd
TrkEnd
MTrk
0 TimeSig 4/4 24 8
0 Meta TrkName "                                    "
0 Meta TrkEnd
TrkEnd
MTrk
0 TimeSig 4/4 24 8
0 Meta TrkName "                                    "
0 Meta TrkEnd
TrkEnd
MTrk
0 TimeSig 4/4 24 8
0 Meta TrkName "                                    "
0 Meta TrkEnd
TrkEnd
MTrk
0 TimeSig 4/4 24 8
0 Meta TrkName "                                    "
0 Meta TrkEnd
TrkEnd
MTrk
0 TimeSig 4/4 24 8
0 Meta TrkName "                                    "
0 Meta TrkEnd
TrkEnd
MTrk
0 TimeSig 4/4 24 8
0 Meta TrkName "                                    "
0 Meta TrkEnd
TrkEnd
MTrk
0 TimeSig 4/4 24 8
0 Meta TrkName "                                    "
0 Meta TrkEnd
TrkEnd
MTrk
0 TimeSig 4/4 24 8
0 Meta TrkName "                                    "
0 Meta TrkEnd
TrkEnd
MTrk
0 TimeSig 4/4 24 8
0 Meta TrkName "                                    "
0 Meta TrkEnd
TrkEnd
MTrk
0 TimeSig 4/4 24 8
0 Meta TrkName "                                    "
0 Meta TrkEnd
TrkEnd
MTrk
0 TimeSig 4/4 24 8
0 Meta TrkName "                                    "
0 Meta TrkEnd
TrkEnd
