MFile 1 18 240
MTrk
0 Tempo 500000
0 TimeSig 3/4 24 8
0 Meta Text "Mozart  Sonate B dur K.V.570 (1st.mov.)  Play by Katsuhiro Oguri"
0 Meta TrkEnd
TrkEnd
MTrk
0 TimeSig 3/4 24 8
0 Meta TrkName "PIANO                               "
0 SysEx f0 41 10 42 12 40 00 7f 00 41 f7
0 SysEx f0 41 10 42 12 40 00 04 64 58 f7
170 SysEx f0 41 10 42 12 40 01 30 03 0c f7
170 SysEx f0 41 10 42 12 40 01 33 50 3c f7
170 SysEx f0 41 10 42 12 40 01 34 3c 4f f7
372 Par ch=1 c=0 v=0
374 Par ch=1 c=32 v=1
376 PrCh ch=1 p=0
378 Par ch=1 c=7 v=100
474 Par ch=1 c=11 v=100
570 Par ch=1 c=10 v=64
666 Par ch=1 c=1 v=0
666 Par ch=1 c=91 v=80
675 Par ch=1 c=99 v=1
677 Par ch=1 c=98 v=32
679 Par ch=1 c=6 v=62
681 Par ch=1 c=99 v=1
683 Par ch=1 c=98 v=33
685 Par ch=1 c=6 v=54
687 Par ch=1 c=99 v=1
689 Par ch=1 c=98 v=99
691 Par ch=1 c=6 v=62
693 Par ch=1 c=99 v=1
695 Par ch=1 c=98 v=100
697 Par ch=1 c=6 v=60
699 Par ch=1 c=99 v=1
701 Par ch=1 c=98 v=102
703 Par ch=1 c=6 v=70
1428 On ch=1 n=a#5 v=52
1436 On ch=1 n=a#4 v=50
1522 Par ch=1 c=64 v=63
1559 Par ch=1 c=64 v=127
1778 On ch=1 n=a#5 v=0
1784 On ch=1 n=f5 v=46
1789 On ch=1 n=f4 v=32
1830 On ch=1 n=a#4 v=0
1966 On ch=1 n=d5 v=60
1977 On ch=1 n=d4 v=48
2007 On ch=1 n=f5 v=0
2081 On ch=1 n=f4 v=0
2304 On ch=1 n=f5 v=70
2307 On ch=1 n=f4 v=39
2323 On ch=1 n=d5 v=0
2334 On ch=1 n=d4 v=0
2485 On ch=1 n=a#4 v=58
2496 On ch=1 n=a#5 v=79
2518 On ch=1 n=f5 v=0
2554 Par ch=1 c=64 v=63
2585 On ch=1 n=f4 v=0
2601 Par ch=1 c=64 v=127
2677 On ch=1 n=a#5 v=0
2825 On ch=1 n=d6 v=83
2832 On ch=1 n=d5 v=72
2840 On ch=1 n=a#4 v=0
2976 On ch=1 n=d6 v=0
3005 On ch=1 n=d5 v=0
3009 On ch=1 n=f6 v=78
3011 On ch=1 n=f5 v=54
3068 Par ch=1 c=64 v=63
3131 Par ch=1 c=64 v=127
3167 On ch=1 n=f6 v=0
3190 Par ch=1 c=64 v=63
3199 Par ch=1 c=64 v=0
3219 On ch=1 n=f5 v=0
3343 On ch=1 n=a#6 v=88
3420 On ch=1 n=d6 v=78
3431 On ch=1 n=a#6 v=0
3491 On ch=1 n=d6 v=0
3510 On ch=1 n=f6 v=76
3517 On ch=1 n=d#5 v=63
3521 On ch=1 n=c5 v=79
3523 On ch=1 n=f4 v=53
3591 On ch=1 n=d#6 v=89
3601 On ch=1 n=f6 v=0
3674 On ch=1 n=d6 v=85
3681 On ch=1 n=d#6 v=0
3734 On ch=1 n=d6 v=0
3744 On ch=1 n=c6 v=76
3827 On ch=1 n=a#5 v=83
3831 On ch=1 n=c6 v=0
3899 On ch=1 n=a5 v=80
3917 On ch=1 n=a#5 v=0
3979 On ch=1 n=g5 v=82
3989 On ch=1 n=a5 v=0
4052 On ch=1 n=g5 v=0
4056 On ch=1 n=f5 v=75
4134 On ch=1 n=f5 v=0
4144 On ch=1 n=e5 v=67
4205 On ch=1 n=e5 v=0
4225 On ch=1 n=f5 v=63
4298 On ch=1 n=f5 v=0
4305 On ch=1 n=g5 v=63
4361 On ch=1 n=f4 v=0
4375 On ch=1 n=a5 v=71
4376 On ch=1 n=d#5 v=0
4379 On ch=1 n=g5 v=0
4444 On ch=1 n=a5 v=0
4456 On ch=1 n=a#4 v=55
4457 On ch=1 n=a#5 v=86
4458 On ch=1 n=c5 v=0
4459 On ch=1 n=d5 v=44
4491 On ch=1 n=a#5 v=0
4548 On ch=1 n=c6 v=73
4572 On ch=1 n=a#5 v=76
4583 On ch=1 n=c6 v=0
4601 On ch=1 n=a5 v=84
4603 On ch=1 n=a#5 v=0
4626 On ch=1 n=a#5 v=87
4636 On ch=1 n=a5 v=0
4670 On ch=1 n=a#5 v=0
4697 On ch=1 n=c6 v=87
4769 On ch=1 n=c6 v=0
4780 On ch=1 n=d6 v=93
4811 On ch=1 n=d5 v=0
4827 On ch=1 n=a#4 v=0
4853 On ch=1 n=d#6 v=101
4855 On ch=1 n=d6 v=0
4918 On ch=1 n=d#6 v=0
4944 On ch=1 n=e6 v=98
5018 On ch=1 n=f6 v=102
5028 On ch=1 n=e6 v=0
5097 On ch=1 n=g6 v=103
5113 On ch=1 n=f6 v=0
5173 On ch=1 n=f6 v=100
5201 On ch=1 n=g6 v=0
5250 On ch=1 n=a#6 v=97
5269 On ch=1 n=f6 v=0
5326 On ch=1 n=d6 v=97
5348 On ch=1 n=a#6 v=0
5411 On ch=1 n=f6 v=100
5417 On ch=1 n=d#5 v=97
5420 On ch=1 n=c5 v=89
5421 On ch=1 n=f4 v=73
5431 On ch=1 n=d6 v=0
5498 On ch=1 n=d#6 v=95
5518 On ch=1 n=f6 v=0
5580 On ch=1 n=d6 v=87
5606 On ch=1 n=d#6 v=0
5652 On ch=1 n=c6 v=78
5654 On ch=1 n=d6 v=0
5733 On ch=1 n=c6 v=0
5735 On ch=1 n=a#5 v=81
5809 On ch=1 n=a5 v=73
5831 On ch=1 n=a#5 v=0
5891 On ch=1 n=g5 v=76
5908 On ch=1 n=a5 v=0
5971 On ch=1 n=g5 v=0
5971 On ch=1 n=f5 v=75
6045 On ch=1 n=f5 v=0
6059 On ch=1 n=e5 v=61
6123 On ch=1 n=e5 v=0
6138 On ch=1 n=f5 v=68
6222 On ch=1 n=f5 v=0
6223 On ch=1 n=g5 v=78
6252 On ch=1 n=f4 v=0
6297 On ch=1 n=a5 v=76
6300 On ch=1 n=d#5 v=0
6301 On ch=1 n=g5 v=0
6370 On ch=1 n=a#4 v=61
6374 On ch=1 n=d5 v=49
6376 On ch=1 n=a#5 v=86
6383 On ch=1 n=a5 v=0
6385 On ch=1 n=c5 v=0
6395 On ch=1 n=a#4 v=0
6400 On ch=1 n=d5 v=0
6407 On ch=1 n=a#5 v=0
6545 On ch=1 n=a#5 v=91
6547 On ch=1 n=d5 v=71
6550 On ch=1 n=a#4 v=67
6574 On ch=1 n=a#4 v=0
6576 On ch=1 n=a#5 v=0
6580 On ch=1 n=d5 v=0
6708 On ch=1 n=d6 v=77
6715 On ch=1 n=f5 v=53
6718 On ch=1 n=a#4 v=54
6747 On ch=1 n=a#4 v=0
6751 On ch=1 n=d6 v=0
6761 On ch=1 n=f5 v=0
6899 On ch=1 n=a#5 v=71
6906 On ch=1 n=d5 v=46
6907 On ch=1 n=a#4 v=39
7032 On ch=1 n=a#5 v=0
7042 On ch=1 n=d5 v=0
7051 On ch=1 n=a#4 v=0
7188 On ch=1 n=a#5 v=107
7220 On ch=1 n=a#5 v=0
7225 On ch=1 n=c6 v=98
7259 On ch=1 n=c6 v=0
7263 On ch=1 n=a#5 v=88
7296 On ch=1 n=a#5 v=0
7304 On ch=1 n=a5 v=85
7332 On ch=1 n=a#5 v=80
7346 On ch=1 n=a5 v=0
7364 On ch=1 n=a#5 v=0
7381 On ch=1 n=g6 v=118
7389 Par ch=1 c=64 v=127
7425 On ch=1 n=g6 v=0
7548 On ch=1 n=g4 v=106
7549 On ch=1 n=a#4 v=109
7551 On ch=1 n=d#4 v=105
7578 On ch=1 n=g4 v=0
7579 On ch=1 n=a#4 v=0
7585 On ch=1 n=d#4 v=0
7685 On ch=1 n=a#5 v=113
7713 Par ch=1 c=64 v=63
7714 Par ch=1 c=64 v=0
7720 On ch=1 n=c6 v=88
7722 On ch=1 n=a#5 v=0
7742 On ch=1 n=c6 v=0
7761 On ch=1 n=a#5 v=83
7781 On ch=1 n=a#5 v=0
7790 On ch=1 n=a5 v=84
7827 On ch=1 n=a#5 v=85
7833 On ch=1 n=a5 v=0
7864 On ch=1 n=a#5 v=0
7878 Par ch=1 c=64 v=127
7888 On ch=1 n=f6 v=117
7936 On ch=1 n=f6 v=0
8061 On ch=1 n=d4 v=100
8064 On ch=1 n=a#4 v=104
8064 On ch=1 n=f4 v=101
8096 On ch=1 n=d4 v=0
8097 On ch=1 n=f4 v=0
8100 On ch=1 n=a#4 v=0
8199 On ch=1 n=a#5 v=108
8225 Par ch=1 c=64 v=63
8228 Par ch=1 c=64 v=0
8233 On ch=1 n=a#5 v=0
8235 On ch=1 n=c6 v=86
8275 On ch=1 n=a#5 v=84
8280 On ch=1 n=c6 v=0
8309 On ch=1 n=a#5 v=0
8318 On ch=1 n=a5 v=78
8348 On ch=1 n=a#5 v=67
8359 On ch=1 n=a5 v=0
8396 On ch=1 n=a#5 v=0
8403 On ch=1 n=c6 v=78
8420 On ch=1 n=a4 v=60
8420 On ch=1 n=f5 v=59
8596 On ch=1 n=f6 v=70
8632 On ch=1 n=c6 v=0
8778 On ch=1 n=d#6 v=77
8787 On ch=1 n=f6 v=0
8959 On ch=1 n=c#6 v=65
8960 On ch=1 n=a#4 v=43
8972 On ch=1 n=d#6 v=0
9007 On ch=1 n=a4 v=0
9141 On ch=1 n=d6 v=72
9150 On ch=1 n=c#6 v=0
9181 On ch=1 n=d6 v=0
9255 On ch=1 n=f5 v=0
9275 On ch=1 n=a#4 v=0
9277 On ch=1 n=a#5 v=113
9306 On ch=1 n=c6 v=93
9307 On ch=1 n=a#5 v=0
9346 On ch=1 n=a#5 v=84
9354 On ch=1 n=c6 v=0
9378 On ch=1 n=a#5 v=0
9392 On ch=1 n=a5 v=75
9411 On ch=1 n=a#5 v=74
9431 On ch=1 n=a5 v=0
9448 On ch=1 n=a#5 v=0
9468 On ch=1 n=g6 v=118
9477 Par ch=1 c=64 v=127
9523 On ch=1 n=g6 v=0
9637 On ch=1 n=g4 v=106
9639 On ch=1 n=a#4 v=108
9642 On ch=1 n=d#4 v=101
9670 On ch=1 n=g4 v=0
9672 On ch=1 n=a#4 v=0
9679 On ch=1 n=d#4 v=0
9772 On ch=1 n=a#5 v=110
9809 On ch=1 n=a#5 v=0
9813 Par ch=1 c=64 v=63
9814 On ch=1 n=c6 v=92
9815 Par ch=1 c=64 v=0
9837 On ch=1 n=c6 v=0
9856 On ch=1 n=a#5 v=85
9877 On ch=1 n=a#5 v=0
9892 On ch=1 n=a5 v=81
9925 On ch=1 n=a#5 v=77
9928 On ch=1 n=a5 v=0
9959 On ch=1 n=a#5 v=0
9971 Par ch=1 c=64 v=63
9972 Par ch=1 c=64 v=127
9982 On ch=1 n=f6 v=120
10119 On ch=1 n=f6 v=0
10151 On ch=1 n=d4 v=102
10152 On ch=1 n=a#4 v=109
10153 On ch=1 n=f4 v=100
10181 On ch=1 n=d4 v=0
10186 On ch=1 n=a#4 v=0
10186 On ch=1 n=f4 v=0
10285 On ch=1 n=a#5 v=110
10325 On ch=1 n=c6 v=96
10327 On ch=1 n=a#5 v=0
10328 Par ch=1 c=64 v=63
10331 Par ch=1 c=64 v=0
10359 On ch=1 n=a#5 v=90
10376 On ch=1 n=c6 v=0
10400 On ch=1 n=a#5 v=0
10407 On ch=1 n=a5 v=82
10437 On ch=1 n=a#5 v=75
10449 On ch=1 n=a5 v=0
10489 On ch=1 n=c6 v=84
10496 On ch=1 n=a4 v=66
10497 On ch=1 n=a#5 v=0
10497 On ch=1 n=f4 v=49
10659 On ch=1 n=d#6 v=87
10665 On ch=1 n=c6 v=0
10673 On ch=1 n=c5 v=71
10693 On ch=1 n=a4 v=0
10831 On ch=1 n=d#6 v=0
10831 On ch=1 n=a5 v=65
10833 On ch=1 n=d#5 v=61
10864 On ch=1 n=c5 v=0
11009 On ch=1 n=f4 v=0
11027 On ch=1 n=a#5 v=76
11030 On ch=1 n=d5 v=59
11031 On ch=1 n=a#4 v=51
11055 On ch=1 n=d#5 v=0
11064 On ch=1 n=a5 v=0
11234 On ch=1 n=d5 v=0
11241 On ch=1 n=a#5 v=0
11249 On ch=1 n=a#4 v=0
11580 On ch=1 n=g6 v=114
11582 On ch=1 n=a#5 v=113
11582 On ch=1 n=d6 v=112
11584 On ch=1 n=g4 v=120
11587 Par ch=1 c=64 v=127
11624 On ch=1 n=d6 v=0
11628 On ch=1 n=g6 v=0
11636 On ch=1 n=a#5 v=0
11637 On ch=1 n=g4 v=0
11766 On ch=1 n=g5 v=117
11766 On ch=1 n=g3 v=127
11802 On ch=1 n=g5 v=0
11820 On ch=1 n=g3 v=0
11824 Par ch=1 c=64 v=63
11827 Par ch=1 c=64 v=0
12126 On ch=1 n=d6 v=120
12127 On ch=1 n=a5 v=116
12128 On ch=1 n=d4 v=126
12129 On ch=1 n=f#5 v=118
12135 Par ch=1 c=64 v=63
12135 Par ch=1 c=64 v=127
12169 On ch=1 n=f#5 v=0
12176 On ch=1 n=d6 v=0
12179 On ch=1 n=a5 v=0
12190 On ch=1 n=d4 v=0
12334 On ch=1 n=d3 v=127
12335 On ch=1 n=d5 v=125
12372 On ch=1 n=d5 v=0
12384 On ch=1 n=d3 v=0
12481 Par ch=1 c=64 v=63
12488 Par ch=1 c=64 v=0
12824 Par ch=1 c=64 v=63
12858 On ch=1 n=d#4 v=48
12861 On ch=1 n=d#5 v=77
12866 Par ch=1 c=64 v=127
12866 On ch=1 n=g4 v=49
13003 On ch=1 n=a#4 v=51
13036 On ch=1 n=g4 v=0
13097 On ch=1 n=d#5 v=0
13097 On ch=1 n=a#4 v=0
13098 On ch=1 n=g4 v=52
13176 On ch=1 n=a#4 v=59
13197 On ch=1 n=g4 v=0
13255 On ch=1 n=f5 v=54
13261 On ch=1 n=a#4 v=0
13269 On ch=1 n=g4 v=42
13291 On ch=1 n=f5 v=0
13292 On ch=1 n=d#5 v=62
13333 On ch=1 n=d#5 v=0
13335 On ch=1 n=g4 v=0
13338 On ch=1 n=a#4 v=43
13341 On ch=1 n=d5 v=71
13377 On ch=1 n=d#5 v=87
13381 On ch=1 n=d#4 v=0
13388 On ch=1 n=d5 v=0
13432 On ch=1 n=a#4 v=0
13434 On ch=1 n=d#5 v=0
13440 On ch=1 n=g#4 v=58
13441 On ch=1 n=d4 v=46
13442 On ch=1 n=c6 v=76
13451 Par ch=1 c=64 v=63
13471 Par ch=1 c=64 v=0
13524 On ch=1 n=a#4 v=45
13533 On ch=1 n=a#5 v=90
13541 Par ch=1 c=64 v=63
13542 On ch=1 n=c6 v=0
13544 On ch=1 n=g#4 v=0
13562 Par ch=1 c=64 v=127
13587 On ch=1 n=a#5 v=0
13614 On ch=1 n=a#5 v=86
13622 On ch=1 n=a#4 v=0
13625 On ch=1 n=g#4 v=60
13690 On ch=1 n=a#4 v=61
13712 On ch=1 n=g#4 v=0
13729 On ch=1 n=a#5 v=0
13794 On ch=1 n=g#4 v=67
13803 On ch=1 n=a#4 v=0
13803 On ch=1 n=a#5 v=101
13868 On ch=1 n=a#4 v=65
13882 On ch=1 n=a#5 v=0
13885 On ch=1 n=g#4 v=0
13984 On ch=1 n=d4 v=0
13986 On ch=1 n=g4 v=47
13987 On ch=1 n=a#5 v=73
13993 On ch=1 n=d#4 v=57
14003 On ch=1 n=a#4 v=0
14059 Par ch=1 c=64 v=63
14090 On ch=1 n=a#4 v=61
14092 Par ch=1 c=64 v=0
14098 On ch=1 n=d#6 v=82
14118 On ch=1 n=g4 v=0
14129 On ch=1 n=a#5 v=0
14151 Par ch=1 c=64 v=63
14179 Par ch=1 c=64 v=127
14197 On ch=1 n=d6 v=77
14207 On ch=1 n=g4 v=50
14208 On ch=1 n=a#4 v=0
14215 On ch=1 n=d#6 v=0
14276 On ch=1 n=c#6 v=75
14280 On ch=1 n=a#4 v=60
14296 On ch=1 n=d6 v=0
14306 On ch=1 n=g4 v=0
14369 On ch=1 n=c6 v=72
14377 On ch=1 n=g4 v=59
14382 On ch=1 n=a#4 v=0
14404 On ch=1 n=c#6 v=0
14442 On ch=1 n=a#4 v=67
14443 On ch=1 n=b5 v=84
14454 On ch=1 n=c6 v=0
14457 On ch=1 n=g4 v=0
14502 On ch=1 n=d#4 v=0
14543 On ch=1 n=a#5 v=88
14544 On ch=1 n=g#4 v=67
14548 On ch=1 n=a#4 v=0
14549 On ch=1 n=d4 v=45
14564 On ch=1 n=b5 v=0
14599 Par ch=1 c=64 v=63
14620 Par ch=1 c=64 v=0
14632 On ch=1 n=a#4 v=54
14651 On ch=1 n=g#4 v=0
14730 On ch=1 n=g#4 v=67
14740 On ch=1 n=a#4 v=0
14780 Par ch=1 c=64 v=63
14789 Par ch=1 c=64 v=127
14810 On ch=1 n=a#4 v=60
14830 On ch=1 n=g#4 v=0
14833 On ch=1 n=a#5 v=0
14906 On ch=1 n=g#4 v=69
14908 On ch=1 n=a#4 v=0
14955 Par ch=1 c=64 v=63
14965 Par ch=1 c=64 v=0
14979 On ch=1 n=a#4 v=55
14983 On ch=1 n=g#4 v=0
15035 On ch=1 n=d4 v=0
15079 On ch=1 n=a#4 v=0
15089 On ch=1 n=d#5 v=88
15089 On ch=1 n=g4 v=44
15092 On ch=1 n=d#4 v=43
15103 Par ch=1 c=64 v=63
15106 Par ch=1 c=64 v=127
15172 On ch=1 n=a#4 v=59
15190 On ch=1 n=g4 v=0
15221 On ch=1 n=d#5 v=0
15268 On ch=1 n=a#4 v=0
15274 On ch=1 n=g4 v=57
15334 On ch=1 n=a#4 v=70
15348 On ch=1 n=g4 v=0
15417 On ch=1 n=a#4 v=0
15431 On ch=1 n=g4 v=45
15439 On ch=1 n=f5 v=63
15471 On ch=1 n=d#5 v=84
15472 On ch=1 n=f5 v=0
15484 On ch=1 n=a#4 v=63
15491 On ch=1 n=d#4 v=0
15498 On ch=1 n=g4 v=0
15509 On ch=1 n=d#5 v=0
15513 On ch=1 n=d5 v=80
15541 On ch=1 n=d#5 v=77
15561 On ch=1 n=d5 v=0
15584 On ch=1 n=a#4 v=0
15592 On ch=1 n=d4 v=42
15595 On ch=1 n=d#5 v=0
15595 Par ch=1 c=64 v=63
15603 On ch=1 n=c6 v=87
15606 On ch=1 n=f4 v=65
15610 Par ch=1 c=64 v=0
15695 On ch=1 n=b5 v=94
15696 On ch=1 n=g#4 v=73
15712 On ch=1 n=f4 v=0
15716 Par ch=1 c=64 v=63
15728 On ch=1 n=c6 v=0
15730 Par ch=1 c=64 v=127
15761 On ch=1 n=b5 v=0
15772 On ch=1 n=g#4 v=0
15779 On ch=1 n=f4 v=71
15788 On ch=1 n=b5 v=91
15843 On ch=1 n=g#4 v=79
15853 On ch=1 n=f4 v=0
15910 On ch=1 n=b5 v=0
15921 On ch=1 n=g#4 v=0
15930 On ch=1 n=f4 v=69
15966 On ch=1 n=b5 v=107
16013 On ch=1 n=d4 v=0
16015 On ch=1 n=g#4 v=77
16022 On ch=1 n=b5 v=0
16026 On ch=1 n=f4 v=0
16111 On ch=1 n=g#4 v=0
16140 On ch=1 n=c6 v=97
16148 On ch=1 n=d#4 v=58
16153 On ch=1 n=g4 v=58
16201 Par ch=1 c=64 v=63
16216 Par ch=1 c=64 v=0
16235 On ch=1 n=c5 v=68
16241 On ch=1 n=g6 v=88
16259 On ch=1 n=g4 v=0
16269 On ch=1 n=c6 v=0
16293 Par ch=1 c=64 v=63
16304 Par ch=1 c=64 v=127
16322 On ch=1 n=d#6 v=106
16330 On ch=1 n=g4 v=65
16342 On ch=1 n=c5 v=0
16350 On ch=1 n=g6 v=0
16399 On ch=1 n=c5 v=72
16404 On ch=1 n=d6 v=98
16411 On ch=1 n=g4 v=0
16437 Par ch=1 c=64 v=63
16439 On ch=1 n=d#6 v=0
16453 Par ch=1 c=64 v=0
16485 On ch=1 n=c6 v=90
16492 On ch=1 n=d6 v=0
16494 Par ch=1 c=64 v=63
16495 On ch=1 n=g4 v=65
16499 On ch=1 n=c5 v=0
16511 Par ch=1 c=64 v=127
16559 On ch=1 n=a#5 v=103
16560 On ch=1 n=d#4 v=0
16569 On ch=1 n=c5 v=65
16573 On ch=1 n=g4 v=0
16576 On ch=1 n=c6 v=0
16644 On ch=1 n=a5 v=86
16647 On ch=1 n=a#5 v=0
16647 On ch=1 n=c5 v=0
16652 On ch=1 n=f4 v=68
16654 Par ch=1 c=64 v=63
16661 On ch=1 n=d#4 v=70
16668 Par ch=1 c=64 v=0
16733 On ch=1 n=c5 v=68
16757 Par ch=1 c=64 v=63
16759 On ch=1 n=f4 v=0
16767 Par ch=1 c=64 v=127
16817 On ch=1 n=a5 v=0
16831 On ch=1 n=f4 v=56
16834 On ch=1 n=c5 v=0
16912 On ch=1 n=c5 v=50
16914 On ch=1 n=f4 v=0
17016 On ch=1 n=f4 v=55
17017 On ch=1 n=c5 v=0
17077 Par ch=1 c=64 v=63
17081 Par ch=1 c=64 v=0
17085 On ch=1 n=c5 v=57
17087 On ch=1 n=d#4 v=0
17090 On ch=1 n=f4 v=0
17161 Par ch=1 c=64 v=63
17167 Par ch=1 c=64 v=127
17179 On ch=1 n=a#5 v=78
17185 On ch=1 n=c5 v=0
17188 On ch=1 n=f4 v=56
17194 On ch=1 n=d4 v=68
17235 On ch=1 n=a#5 v=0
17280 On ch=1 n=f4 v=0
17282 On ch=1 n=a#4 v=67
17298 On ch=1 n=d7 v=79
17378 On ch=1 n=a#6 v=86
17379 On ch=1 n=f4 v=66
17381 On ch=1 n=a#4 v=0
17389 On ch=1 n=d7 v=0
17457 On ch=1 n=a#4 v=61
17462 On ch=1 n=a6 v=93
17472 On ch=1 n=f4 v=0
17501 On ch=1 n=a#6 v=0
17545 On ch=1 n=g6 v=99
17550 On ch=1 n=f4 v=66
17552 On ch=1 n=a#4 v=0
17573 On ch=1 n=a6 v=0
17590 On ch=1 n=d4 v=0
17620 On ch=1 n=a#4 v=56
17626 On ch=1 n=f6 v=106
17649 On ch=1 n=g6 v=0
17703 On ch=1 n=f4 v=0
17715 On ch=1 n=e6 v=94
17718 On ch=1 n=a#4 v=0
17718 On ch=1 n=g4 v=56
17721 On ch=1 n=c4 v=54
17752 On ch=1 n=f6 v=0
17763 Par ch=1 c=64 v=63
17771 Par ch=1 c=64 v=0
17810 On ch=1 n=a#4 v=76
17850 On ch=1 n=g4 v=0
17862 Par ch=1 c=64 v=63
17871 Par ch=1 c=64 v=127
17918 On ch=1 n=g4 v=59
17921 On ch=1 n=a#4 v=0
17937 On ch=1 n=e6 v=0
17996 On ch=1 n=a#4 v=67
18016 On ch=1 n=g4 v=0
18094 On ch=1 n=a#4 v=0
18096 On ch=1 n=c4 v=0
18100 On ch=1 n=g4 v=56
18157 On ch=1 n=a#4 v=65
18185 On ch=1 n=g4 v=0
18201 Par ch=1 c=64 v=63
18213 Par ch=1 c=64 v=0
18223 On ch=1 n=a#4 v=0
18258 On ch=1 n=f6 v=79
18265 On ch=1 n=f4 v=47
18270 On ch=1 n=d4 v=31
18286 Par ch=1 c=64 v=63
18298 Par ch=1 c=64 v=127
18354 On ch=1 n=a6 v=82
18363 On ch=1 n=a4 v=54
18392 On ch=1 n=f6 v=0
18392 On ch=1 n=f4 v=0
18433 On ch=1 n=f6 v=81
18454 On ch=1 n=f4 v=67
18462 On ch=1 n=a4 v=0
18466 On ch=1 n=a6 v=0
18507 On ch=1 n=e6 v=100
18525 On ch=1 n=a4 v=54
18541 On ch=1 n=f4 v=0
18546 On ch=1 n=f6 v=0
18595 On ch=1 n=d6 v=91
18605 On ch=1 n=e6 v=0
18611 On ch=1 n=f4 v=71
18612 On ch=1 n=a4 v=0
18636 On ch=1 n=d4 v=0
18662 On ch=1 n=a4 v=57
18663 On ch=1 n=d6 v=0
18664 On ch=1 n=f4 v=0
18669 On ch=1 n=c6 v=97
18713 On ch=1 n=a4 v=0
18751 On ch=1 n=b5 v=88
18767 On ch=1 n=d5 v=65
18767 On ch=1 n=g4 v=68
18781 On ch=1 n=c6 v=0
18800 Par ch=1 c=64 v=63
18811 Par ch=1 c=64 v=0
18859 On ch=1 n=f5 v=75
18870 On ch=1 n=d5 v=0
18905 Par ch=1 c=64 v=63
18916 Par ch=1 c=64 v=127
18952 On ch=1 n=d5 v=68
18963 On ch=1 n=f5 v=0
19025 On ch=1 n=f5 v=63
19034 On ch=1 n=d5 v=0
19127 On ch=1 n=d5 v=67
19130 On ch=1 n=f5 v=0
19154 On ch=1 n=g4 v=0
19173 On ch=1 n=b5 v=0
19205 On ch=1 n=d5 v=0
19208 On ch=1 n=f5 v=53
19301 Par ch=1 c=64 v=63
19302 On ch=1 n=f5 v=0
19303 On ch=1 n=e5 v=83
19307 Par ch=1 c=64 v=0
19308 On ch=1 n=c5 v=68
19347 On ch=1 n=c6 v=76
19386 On ch=1 n=c6 v=0
19386 On ch=1 n=b5 v=75
19426 On ch=1 n=c5 v=0
19427 On ch=1 n=e5 v=0
19435 On ch=1 n=b5 v=0
19436 On ch=1 n=c6 v=67
19471 On ch=1 n=c6 v=0
19472 On ch=1 n=d6 v=92
19520 On ch=1 n=c6 v=66
19528 On ch=1 n=d6 v=0
19557 On ch=1 n=b5 v=90
19562 On ch=1 n=c6 v=0
19598 On ch=1 n=c6 v=86
19606 On ch=1 n=b5 v=0
19625 On ch=1 n=c6 v=0
19630 On ch=1 n=a#5 v=107
19659 On ch=1 n=a#5 v=0
19687 On ch=1 n=c6 v=85
19719 On ch=1 n=e6 v=89
19725 On ch=1 n=c6 v=0
19749 On ch=1 n=e6 v=0
19764 On ch=1 n=c6 v=84
19801 On ch=1 n=c6 v=0
19804 On ch=1 n=a5 v=99
19837 On ch=1 n=a5 v=0
19847 On ch=1 n=c6 v=74
19891 On ch=1 n=c6 v=0
19891 On ch=1 n=f6 v=71
19927 On ch=1 n=f6 v=0
19929 On ch=1 n=c6 v=60
19973 On ch=1 n=c6 v=0
19974 On ch=1 n=e5 v=109
20004 On ch=1 n=e5 v=0
20020 On ch=1 n=c6 v=64
20068 On ch=1 n=a#6 v=89
20069 On ch=1 n=c6 v=0
20101 On ch=1 n=c6 v=55
20116 On ch=1 n=a#6 v=0
20146 On ch=1 n=c6 v=0
20152 On ch=1 n=f5 v=114
20180 On ch=1 n=f5 v=0
20189 On ch=1 n=c6 v=87
20231 On ch=1 n=a6 v=89
20243 On ch=1 n=c6 v=0
20276 On ch=1 n=c6 v=72
20280 On ch=1 n=a6 v=0
20315 On ch=1 n=c5 v=114
20319 On ch=1 n=c6 v=0
20327 On ch=1 n=g6 v=92
20338 Par ch=1 c=64 v=63
20340 Par ch=1 c=64 v=127
20350 On ch=1 n=c5 v=0
20378 On ch=1 n=e6 v=79
20398 On ch=1 n=g6 v=0
20419 On ch=1 n=d6 v=69
20420 On ch=1 n=e6 v=0
20456 On ch=1 n=d6 v=0
20456 On ch=1 n=c6 v=81
20490 Par ch=1 c=64 v=63
20493 Par ch=1 c=64 v=0
20499 On ch=1 n=c6 v=0
20500 On ch=1 n=b5 v=86
20545 On ch=1 n=c6 v=88
20554 On ch=1 n=b5 v=0
20582 On ch=1 n=d6 v=84
20589 On ch=1 n=c6 v=0
20615 On ch=1 n=c6 v=101
20635 On ch=1 n=d6 v=0
20654 On ch=1 n=c6 v=0
20660 On ch=1 n=a#5 v=116
20689 On ch=1 n=a#5 v=0
20717 On ch=1 n=c6 v=96
20753 On ch=1 n=e6 v=87
20762 On ch=1 n=c6 v=0
20790 On ch=1 n=c6 v=93
20792 On ch=1 n=e6 v=0
20830 On ch=1 n=c6 v=0
20832 On ch=1 n=a5 v=107
20875 On ch=1 n=c6 v=99
20876 On ch=1 n=a5 v=0
20917 On ch=1 n=f6 v=99
20924 On ch=1 n=c6 v=0
20954 On ch=1 n=c6 v=87
20958 On ch=1 n=f6 v=0
20997 On ch=1 n=c6 v=0
21006 On ch=1 n=e5 v=114
21041 On ch=1 n=c6 v=88
21042 On ch=1 n=e5 v=0
21091 On ch=1 n=a#6 v=108
21092 On ch=1 n=c6 v=0
21131 On ch=1 n=c6 v=77
21142 On ch=1 n=a#6 v=0
21170 On ch=1 n=c6 v=0
21177 On ch=1 n=f5 v=117
21213 On ch=1 n=f5 v=0
21221 On ch=1 n=c6 v=103
21271 On ch=1 n=a6 v=94
21273 On ch=1 n=c6 v=0
21309 On ch=1 n=c6 v=79
21314 On ch=1 n=a6 v=0
21348 On ch=1 n=c5 v=124
21356 On ch=1 n=c6 v=0
21356 On ch=1 n=g6 v=100
21362 Par ch=1 c=64 v=63
21362 Par ch=1 c=64 v=127
21388 On ch=1 n=c5 v=0
21400 On ch=1 n=g6 v=0
21403 On ch=1 n=c7 v=106
21448 On ch=1 n=g6 v=99
21457 On ch=1 n=c7 v=0
21491 On ch=1 n=e6 v=96
21495 On ch=1 n=g6 v=0
21529 On ch=1 n=e6 v=0
21530 On ch=1 n=c6 v=97
21571 On ch=1 n=c6 v=0
21574 On ch=1 n=g6 v=85
21618 On ch=1 n=e6 v=99
21625 On ch=1 n=g6 v=0
21663 On ch=1 n=c6 v=97
21672 On ch=1 n=e6 v=0
21701 On ch=1 n=c6 v=0
21706 On ch=1 n=g5 v=82
21724 Par ch=1 c=64 v=63
21729 Par ch=1 c=64 v=0
21739 On ch=1 n=g5 v=0
21743 On ch=1 n=c5 v=111
21748 On ch=1 n=c6 v=113
21788 On ch=1 n=g4 v=97
21789 On ch=1 n=g5 v=87
21791 On ch=1 n=c5 v=0
21801 On ch=1 n=c6 v=0
21830 On ch=1 n=e4 v=101
21832 On ch=1 n=e5 v=101
21835 On ch=1 n=g5 v=0
21846 On ch=1 n=g4 v=0
21873 On ch=1 n=e5 v=0
21874 On ch=1 n=c5 v=120
21882 Par ch=1 c=64 v=63
21882 On ch=1 n=c4 v=120
21883 Par ch=1 c=64 v=127
21905 On ch=1 n=e4 v=0
21912 On ch=1 n=c5 v=0
21914 Par ch=1 c=64 v=63
21922 On ch=1 n=c4 v=0
21923 Par ch=1 c=64 v=0
22099 On ch=1 n=c3 v=118
22100 On ch=1 n=c4 v=121
22103 On ch=1 n=c6 v=120
22103 On ch=1 n=g5 v=116
22103 On ch=1 n=e5 v=121
22111 Par ch=1 c=64 v=63
22112 Par ch=1 c=64 v=127
22136 On ch=1 n=c3 v=0
22137 On ch=1 n=c4 v=0
22137 On ch=1 n=e5 v=0
22144 On ch=1 n=g5 v=0
22160 On ch=1 n=c6 v=0
22365 Par ch=1 c=64 v=63
22385 Par ch=1 c=64 v=0
22726 On ch=1 n=f4 v=50
22772 Par ch=1 c=64 v=63
22782 Par ch=1 c=64 v=127
22971 On ch=1 n=f4 v=0
23127 On ch=1 n=c4 v=60
23315 On ch=1 n=a3 v=65
23323 On ch=1 n=c4 v=0
23360 Par ch=1 c=64 v=63
23377 Par ch=1 c=64 v=0
23426 Par ch=1 c=64 v=63
23444 Par ch=1 c=64 v=127
23694 On ch=1 n=c4 v=68
23711 On ch=1 n=a3 v=0
23892 On ch=1 n=f4 v=71
23935 Par ch=1 c=64 v=63
23941 On ch=1 n=c4 v=0
23957 Par ch=1 c=64 v=0
23991 On ch=1 n=c7 v=79
24044 Par ch=1 c=64 v=63
24045 On ch=1 n=c7 v=0
24062 Par ch=1 c=64 v=127
24074 On ch=1 n=c7 v=86
24121 On ch=1 n=c7 v=0
24146 On ch=1 n=c7 v=103
24184 On ch=1 n=f4 v=0
24185 On ch=1 n=c7 v=0
24234 On ch=1 n=c7 v=102
24238 On ch=1 n=a4 v=88
24275 On ch=1 n=c7 v=0
24319 On ch=1 n=c7 v=101
24390 On ch=1 n=c7 v=0
24422 On ch=1 n=d7 v=82
24436 On ch=1 n=c5 v=55
24456 On ch=1 n=a4 v=0
24473 Par ch=1 c=64 v=63
24492 Par ch=1 c=64 v=0
24536 On ch=1 n=c7 v=82
24561 On ch=1 n=d7 v=0
24620 On ch=1 n=a#6 v=89
24644 On ch=1 n=c7 v=0
24704 On ch=1 n=a6 v=79
24741 On ch=1 n=a#6 v=0
24762 Par ch=1 c=64 v=63
24769 Par ch=1 c=64 v=127
24798 On ch=1 n=g6 v=84
24807 On ch=1 n=a6 v=0
24827 On ch=1 n=c5 v=0
24858 On ch=1 n=g6 v=0
24881 On ch=1 n=f6 v=75
24918 On ch=1 n=f6 v=0
24959 On ch=1 n=f6 v=92
24969 On ch=1 n=a#4 v=61
24986 On ch=1 n=g6 v=85
24996 On ch=1 n=f6 v=0
25006 On ch=1 n=g6 v=0
25020 Par ch=1 c=64 v=63
25023 On ch=1 n=f6 v=63
25033 Par ch=1 c=64 v=0
25082 On ch=1 n=f6 v=0
25083 On ch=1 n=e6 v=84
25130 On ch=1 n=e6 v=0
25137 Par ch=1 c=64 v=63
25147 Par ch=1 c=64 v=127
25181 On ch=1 n=e6 v=69
25244 On ch=1 n=a#4 v=0
25378 On ch=1 n=g4 v=57
25387 On ch=1 n=e6 v=0
25571 On ch=1 n=e4 v=76
25637 Par ch=1 c=64 v=63
25672 On ch=1 n=g4 v=0
25699 Par ch=1 c=64 v=0
25957 On ch=1 n=g4 v=80
25987 Par ch=1 c=64 v=63
26006 Par ch=1 c=64 v=127
26033 On ch=1 n=e4 v=0
26162 On ch=1 n=a#4 v=84
26194 Par ch=1 c=64 v=63
26217 Par ch=1 c=64 v=0
26244 On ch=1 n=g4 v=0
26262 On ch=1 n=a#6 v=96
26267 Par ch=1 c=64 v=63
26285 Par ch=1 c=64 v=127
26317 On ch=1 n=a#6 v=0
26342 On ch=1 n=a#6 v=95
26395 On ch=1 n=a#6 v=0
26417 On ch=1 n=a#6 v=103
26461 On ch=1 n=a#6 v=0
26503 On ch=1 n=e5 v=100
26507 On ch=1 n=a#6 v=97
26526 On ch=1 n=a#4 v=0
26549 On ch=1 n=a#6 v=0
26594 On ch=1 n=a#6 v=94
26692 On ch=1 n=c7 v=75
26693 On ch=1 n=a#6 v=0
26695 On ch=1 n=g5 v=76
26730 On ch=1 n=e5 v=0
26735 Par ch=1 c=64 v=63
26752 Par ch=1 c=64 v=0
26788 On ch=1 n=a#6 v=88
26814 On ch=1 n=c7 v=0
26824 Par ch=1 c=64 v=63
26836 Par ch=1 c=64 v=127
26871 On ch=1 n=a6 v=86
26903 On ch=1 n=a#6 v=0
26940 On ch=1 n=g6 v=87
26971 On ch=1 n=a6 v=0
26980 Par ch=1 c=64 v=63
26992 Par ch=1 c=64 v=0
27031 On ch=1 n=g5 v=0
27035 On ch=1 n=f6 v=83
27041 On ch=1 n=g6 v=0
27121 On ch=1 n=e6 v=86
27132 On ch=1 n=f6 v=0
27215 On ch=1 n=f6 v=82
27221 On ch=1 n=a5 v=50
27230 On ch=1 n=e6 v=0
27233 Par ch=1 c=64 v=63
27238 Par ch=1 c=64 v=127
27310 On ch=1 n=c6 v=57
27325 On ch=1 n=a5 v=0
27379 On ch=1 n=f6 v=0
27399 Par ch=1 c=64 v=63
27405 Par ch=1 c=64 v=0
27410 On ch=1 n=a5 v=59
27417 On ch=1 n=c6 v=0
27496 On ch=1 n=c6 v=38
27496 On ch=1 n=a6 v=78
27501 On ch=1 n=a5 v=0
27531 Par ch=1 c=64 v=63
27537 Par ch=1 c=64 v=127
27596 On ch=1 n=g6 v=74
27599 On ch=1 n=a5 v=46
27600 On ch=1 n=c6 v=0
27618 On ch=1 n=a6 v=0
27672 On ch=1 n=f6 v=87
27675 On ch=1 n=a5 v=0
27680 On ch=1 n=c6 v=56
27716 On ch=1 n=g6 v=0
27768 On ch=1 n=e6 v=80
27771 On ch=1 n=f6 v=0
27775 Par ch=1 c=64 v=63
27776 On ch=1 n=a#5 v=54
27779 On ch=1 n=c6 v=0
27784 Par ch=1 c=64 v=0
27854 Par ch=1 c=64 v=63
27859 On ch=1 n=a#5 v=0
27859 On ch=1 n=c6 v=40
27863 Par ch=1 c=64 v=127
27927 On ch=1 n=e6 v=0
27951 On ch=1 n=a#5 v=71
27961 Par ch=1 c=64 v=63
27965 On ch=1 n=c6 v=0
27973 Par ch=1 c=64 v=0
28027 On ch=1 n=d7 v=73
28037 On ch=1 n=a#5 v=0
28040 On ch=1 n=c6 v=51
28130 On ch=1 n=d7 v=0
28130 On ch=1 n=c7 v=72
28132 On ch=1 n=a#5 v=63
28153 On ch=1 n=c6 v=0
28212 On ch=1 n=e6 v=78
28216 On ch=1 n=c7 v=0
28217 On ch=1 n=c6 v=45
28229 On ch=1 n=a#5 v=0
28301 On ch=1 n=f6 v=79
28309 On ch=1 n=e6 v=0
28313 Par ch=1 c=64 v=63
28314 On ch=1 n=a5 v=43
28315 On ch=1 n=c6 v=0
28320 Par ch=1 c=64 v=127
28405 On ch=1 n=c6 v=49
28422 On ch=1 n=a5 v=0
28461 On ch=1 n=f6 v=0
28494 On ch=1 n=a5 v=58
28500 On ch=1 n=c6 v=0
28566 On ch=1 n=a5 v=0
28572 On ch=1 n=c6 v=47
28572 On ch=1 n=a6 v=91
28607 Par ch=1 c=64 v=63
28624 Par ch=1 c=64 v=0
28659 On ch=1 n=g6 v=85
28669 On ch=1 n=c6 v=0
28669 On ch=1 n=a5 v=45
28693 On ch=1 n=a6 v=0
28734 On ch=1 n=f6 v=89
28756 On ch=1 n=c6 v=34
28762 On ch=1 n=g6 v=0
28764 On ch=1 n=a5 v=0
28837 On ch=1 n=f6 v=0
28841 On ch=1 n=e6 v=76
28847 On ch=1 n=a#5 v=52
28857 On ch=1 n=c6 v=0
28876 Par ch=1 c=64 v=63
28881 Par ch=1 c=64 v=127
28940 On ch=1 n=a#5 v=0
28945 On ch=1 n=c6 v=33
28985 On ch=1 n=e6 v=0
29037 On ch=1 n=a#5 v=62
29046 On ch=1 n=c6 v=0
29118 On ch=1 n=d7 v=80
29119 On ch=1 n=a#5 v=0
29126 On ch=1 n=c6 v=47
29163 Par ch=1 c=64 v=63
29200 Par ch=1 c=64 v=0
29205 On ch=1 n=d7 v=0
29210 On ch=1 n=a#5 v=65
29211 On ch=1 n=c7 v=72
29220 On ch=1 n=c6 v=0
29286 On ch=1 n=c6 v=45
29289 On ch=1 n=a#5 v=0
29292 On ch=1 n=c7 v=0
29300 On ch=1 n=e6 v=75
29386 Par ch=1 c=64 v=63
29394 Par ch=1 c=64 v=127
29395 On ch=1 n=e6 v=0
29396 On ch=1 n=c6 v=0
29396 On ch=1 n=f6 v=71
29397 On ch=1 n=a5 v=44
29484 On ch=1 n=a5 v=0
29486 On ch=1 n=c6 v=52
29500 On ch=1 n=f6 v=0
29580 On ch=1 n=a5 v=52
29589 On ch=1 n=c6 v=0
29655 On ch=1 n=c7 v=86
29667 On ch=1 n=c6 v=59
29670 On ch=1 n=a5 v=0
29749 On ch=1 n=a6 v=101
29764 On ch=1 n=a5 v=64
29771 On ch=1 n=c6 v=0
29778 On ch=1 n=c7 v=0
29821 On ch=1 n=g6 v=92
29830 On ch=1 n=a6 v=0
29832 On ch=1 n=c6 v=62
29838 On ch=1 n=a5 v=0
29917 On ch=1 n=f#6 v=106
29920 Par ch=1 c=64 v=63
29931 On ch=1 n=g6 v=0
29931 On ch=1 n=a5 v=76
29937 On ch=1 n=d5 v=68
29942 Par ch=1 c=64 v=0
29943 On ch=1 n=c6 v=0
29968 Par ch=1 c=64 v=63
29993 Par ch=1 c=64 v=127
30018 On ch=1 n=c6 v=79
30037 On ch=1 n=a5 v=0
30060 On ch=1 n=f#6 v=0
30112 On ch=1 n=a5 v=89
30137 On ch=1 n=c6 v=0
30191 On ch=1 n=c6 v=84
30207 On ch=1 n=d#7 v=100
30216 On ch=1 n=a5 v=0
30280 On ch=1 n=d7 v=96
30304 On ch=1 n=d#7 v=0
30306 On ch=1 n=a5 v=74
30315 On ch=1 n=c6 v=0
30366 On ch=1 n=c6 v=85
30368 On ch=1 n=f#6 v=101
30372 Par ch=1 c=64 v=63
30375 On ch=1 n=a5 v=0
30380 On ch=1 n=d7 v=0
30385 On ch=1 n=d5 v=0
30386 Par ch=1 c=64 v=0
30433 Par ch=1 c=64 v=63
30450 On ch=1 n=f#6 v=0
30465 On ch=1 n=a6 v=101
30465 On ch=1 n=a#5 v=77
30466 On ch=1 n=g5 v=68
30470 Par ch=1 c=64 v=63
30472 Par ch=1 c=64 v=127
30510 On ch=1 n=c6 v=0
30552 On ch=1 n=g6 v=97
30572 On ch=1 n=a6 v=0
30650 On ch=1 n=c7 v=108
30656 On ch=1 n=c6 v=90
30663 On ch=1 n=g5 v=0
30663 On ch=1 n=e5 v=79
30670 On ch=1 n=g6 v=0
30689 On ch=1 n=a#5 v=0
30699 Par ch=1 c=64 v=63
30702 Par ch=1 c=64 v=0
30740 On ch=1 n=b6 v=104
30767 On ch=1 n=c7 v=0
30829 On ch=1 n=a#6 v=107
30832 On ch=1 n=f5 v=83
30853 On ch=1 n=e5 v=0
30858 On ch=1 n=b6 v=0
30866 Par ch=1 c=64 v=63
30867 Par ch=1 c=64 v=127
30885 On ch=1 n=c6 v=0
30900 On ch=1 n=f5 v=0
30908 On ch=1 n=a6 v=100
30922 On ch=1 n=a#6 v=0
30970 On ch=1 n=a6 v=0
30995 Par ch=1 c=64 v=63
31001 Par ch=1 c=64 v=0
31007 On ch=1 n=g6 v=111
31009 On ch=1 n=a#5 v=96
31021 On ch=1 n=a#4 v=78
31029 Par ch=1 c=64 v=63
31040 Par ch=1 c=64 v=127
31079 On ch=1 n=a#5 v=0
31109 On ch=1 n=g6 v=0
31109 On ch=1 n=a#4 v=0
31152 Par ch=1 c=64 v=63
31158 On ch=1 n=a6 v=94
31158 Par ch=1 c=64 v=0
31191 Par ch=1 c=64 v=63
31194 On ch=1 n=a5 v=76
31200 On ch=1 n=f6 v=102
31202 On ch=1 n=c5 v=76
31202 Par ch=1 c=64 v=127
31210 On ch=1 n=a6 v=0
31236 On ch=1 n=f6 v=0
31261 On ch=1 n=a5 v=0
31364 Par ch=1 c=64 v=63
31368 Par ch=1 c=64 v=0
31370 On ch=1 n=g5 v=73
31371 On ch=1 n=e6 v=96
31373 On ch=1 n=c5 v=0
31399 On ch=1 n=f6 v=84
31406 On ch=1 n=g5 v=0
31407 On ch=1 n=e6 v=0
31417 On ch=1 n=f6 v=0
31434 On ch=1 n=e6 v=81
31467 On ch=1 n=e6 v=0
31472 On ch=1 n=d6 v=83
31494 On ch=1 n=e6 v=90
31512 On ch=1 n=d6 v=0
31542 On ch=1 n=e6 v=0
31563 On ch=1 n=a5 v=100
31567 On ch=1 n=f5 v=94
31568 On ch=1 n=f6 v=94
31570 Par ch=1 c=64 v=63
31572 Par ch=1 c=64 v=127
31591 On ch=1 n=a5 v=0
31593 On ch=1 n=f5 v=0
31603 On ch=1 n=f6 v=0
31603 On ch=1 n=c6 v=102
31651 On ch=1 n=c6 v=0
31656 On ch=1 n=b5 v=85
31693 On ch=1 n=b5 v=0
31693 On ch=1 n=c6 v=85
31733 On ch=1 n=c6 v=0
31733 On ch=1 n=d6 v=85
31744 Par ch=1 c=64 v=63
31747 Par ch=1 c=64 v=0
31781 On ch=1 n=c6 v=85
31788 On ch=1 n=d6 v=0
31812 On ch=1 n=a4 v=73
31820 On ch=1 n=b5 v=90
31828 On ch=1 n=c6 v=0
31857 On ch=1 n=a4 v=0
31858 On ch=1 n=b5 v=0
31863 On ch=1 n=c6 v=90
31905 On ch=1 n=g4 v=84
31908 On ch=1 n=a#5 v=101
31918 On ch=1 n=c6 v=0
31935 On ch=1 n=g4 v=0
31947 On ch=1 n=c6 v=86
31953 On ch=1 n=a#5 v=0
31990 On ch=1 n=a5 v=83
31992 On ch=1 n=c6 v=0
31992 On ch=1 n=f4 v=88
32017 On ch=1 n=f4 v=0
32027 On ch=1 n=a5 v=0
32027 On ch=1 n=c6 v=73
32063 On ch=1 n=c6 v=0
32077 On ch=1 n=g5 v=89
32080 On ch=1 n=e4 v=113
32095 Par ch=1 c=64 v=63
32096 Par ch=1 c=64 v=127
32110 On ch=1 n=e4 v=0
32120 On ch=1 n=c6 v=82
32126 On ch=1 n=g5 v=0
32168 On ch=1 n=b5 v=90
32172 On ch=1 n=c6 v=0
32205 On ch=1 n=c6 v=83
32211 On ch=1 n=b5 v=0
32258 On ch=1 n=d6 v=100
32260 Par ch=1 c=64 v=63
32264 Par ch=1 c=64 v=0
32266 On ch=1 n=c6 v=0
32294 On ch=1 n=c6 v=89
32314 On ch=1 n=d6 v=0
32329 On ch=1 n=b5 v=102
32340 On ch=1 n=c6 v=0
32362 On ch=1 n=d5 v=102
32370 On ch=1 n=b5 v=0
32372 On ch=1 n=c6 v=93
32421 On ch=1 n=c6 v=0
32422 On ch=1 n=d5 v=0
32425 On ch=1 n=a#6 v=109
32442 On ch=1 n=c5 v=106
32443 Par ch=1 c=64 v=63
32444 Par ch=1 c=64 v=127
32468 On ch=1 n=c6 v=75
32478 On ch=1 n=a#6 v=0
32482 On ch=1 n=c5 v=0
32516 On ch=1 n=c6 v=0
32522 On ch=1 n=a#6 v=101
32523 On ch=1 n=e4 v=97
32532 Par ch=1 c=64 v=63
32535 Par ch=1 c=64 v=0
32574 On ch=1 n=e4 v=0
32575 On ch=1 n=a#6 v=0
32577 On ch=1 n=c6 v=75
32613 On ch=1 n=a6 v=100
32616 On ch=1 n=f4 v=118
32618 On ch=1 n=c6 v=0
32627 Par ch=1 c=64 v=63
32628 Par ch=1 c=64 v=127
32655 On ch=1 n=a6 v=0
32655 On ch=1 n=f4 v=0
32661 On ch=1 n=c6 v=99
32708 On ch=1 n=c6 v=0
32713 On ch=1 n=b5 v=87
32752 On ch=1 n=b5 v=0
32755 On ch=1 n=c6 v=90
32799 On ch=1 n=c6 v=0
32800 Par ch=1 c=64 v=63
32800 On ch=1 n=d6 v=76
32803 Par ch=1 c=64 v=0
32848 On ch=1 n=c6 v=78
32852 On ch=1 n=d6 v=0
32877 On ch=1 n=a4 v=74
32880 On ch=1 n=b5 v=84
32888 On ch=1 n=c6 v=0
32917 On ch=1 n=b5 v=0
32919 On ch=1 n=c6 v=81
32938 On ch=1 n=a4 v=0
32964 On ch=1 n=a#5 v=90
32965 On ch=1 n=g4 v=76
32971 On ch=1 n=c6 v=0
33008 On ch=1 n=g4 v=0
33011 On ch=1 n=c6 v=76
33012 On ch=1 n=a#5 v=0
33049 On ch=1 n=f4 v=93
33053 On ch=1 n=a5 v=76
33055 On ch=1 n=c6 v=0
33083 On ch=1 n=f4 v=0
33091 On ch=1 n=c6 v=81
33094 On ch=1 n=a5 v=0
33133 On ch=1 n=c6 v=0
33140 On ch=1 n=e4 v=114
33146 On ch=1 n=g5 v=91
33151 Par ch=1 c=64 v=63
33152 Par ch=1 c=64 v=127
33180 On ch=1 n=c6 v=71
33184 On ch=1 n=e4 v=0
33189 On ch=1 n=g5 v=0
33225 On ch=1 n=b5 v=88
33230 On ch=1 n=c6 v=0
33264 On ch=1 n=c6 v=85
33272 On ch=1 n=b5 v=0
33313 Par ch=1 c=64 v=63
33316 Par ch=1 c=64 v=0
33318 On ch=1 n=c6 v=0
33319 On ch=1 n=d6 v=97
33353 On ch=1 n=c6 v=84
33375 On ch=1 n=d6 v=0
33398 On ch=1 n=b5 v=88
33405 On ch=1 n=c6 v=0
33425 On ch=1 n=d5 v=108
33435 On ch=1 n=c6 v=98
33436 On ch=1 n=b5 v=0
33475 Par ch=1 c=64 v=63
33478 Par ch=1 c=64 v=127
33488 On ch=1 n=c6 v=0
33499 On ch=1 n=a#6 v=108
33517 On ch=1 n=c5 v=99
33527 On ch=1 n=d5 v=0
33545 On ch=1 n=c6 v=84
33552 On ch=1 n=c5 v=0
33554 On ch=1 n=a#6 v=0
33562 Par ch=1 c=64 v=63
33565 Par ch=1 c=64 v=0
33596 On ch=1 n=c6 v=0
33601 On ch=1 n=e4 v=97
33602 On ch=1 n=a#6 v=106
33648 On ch=1 n=c6 v=82
33650 On ch=1 n=a#6 v=0
33658 On ch=1 n=e4 v=0
33687 On ch=1 n=c6 v=0
33689 On ch=1 n=a6 v=98
33692 On ch=1 n=f4 v=118
33694 Par ch=1 c=64 v=63
33695 Par ch=1 c=64 v=127
33726 On ch=1 n=f4 v=0
33728 On ch=1 n=a6 v=0
33738 On ch=1 n=c6 v=96
33781 On ch=1 n=c6 v=0
33785 On ch=1 n=b5 v=89
33824 On ch=1 n=c6 v=92
33826 On ch=1 n=b5 v=0
33860 Par ch=1 c=64 v=63
33863 Par ch=1 c=64 v=0
33871 On ch=1 n=d6 v=98
33876 On ch=1 n=c6 v=0
33911 On ch=1 n=c6 v=83
33912 On ch=1 n=d6 v=0
33955 On ch=1 n=c6 v=0
33956 On ch=1 n=b5 v=83
33961 On ch=1 n=c5 v=79
33991 On ch=1 n=c5 v=0
33998 On ch=1 n=c6 v=78
34003 On ch=1 n=b5 v=0
34042 On ch=1 n=d#6 v=98
34052 On ch=1 n=c6 v=0
34053 On ch=1 n=a4 v=100
34060 Par ch=1 c=64 v=63
34061 Par ch=1 c=64 v=127
34089 On ch=1 n=c6 v=81
34092 On ch=1 n=d#6 v=0
34124 On ch=1 n=a4 v=0
34127 On ch=1 n=a#5 v=90
34134 On ch=1 n=c6 v=0
34140 On ch=1 n=g4 v=91
34172 On ch=1 n=c6 v=60
34175 On ch=1 n=a#5 v=0
34190 Par ch=1 c=64 v=63
34193 Par ch=1 c=64 v=0
34195 On ch=1 n=g4 v=0
34220 On ch=1 n=c6 v=0
34230 On ch=1 n=a5 v=97
34231 On ch=1 n=f#4 v=121
34240 Par ch=1 c=64 v=63
34245 Par ch=1 c=64 v=127
34262 On ch=1 n=f#4 v=0
34277 On ch=1 n=d6 v=93
34288 On ch=1 n=a5 v=0
34322 On ch=1 n=d6 v=0
34324 On ch=1 n=c#6 v=95
34377 On ch=1 n=d6 v=92
34380 Par ch=1 c=64 v=63
34381 On ch=1 n=c#6 v=0
34383 Par ch=1 c=64 v=0
34417 On ch=1 n=e6 v=101
34427 On ch=1 n=d6 v=0
34466 On ch=1 n=d6 v=89
34481 On ch=1 n=e6 v=0
34503 On ch=1 n=c#6 v=113
34510 Par ch=1 c=64 v=63
34511 Par ch=1 c=64 v=127
34514 On ch=1 n=d#5 v=113
34517 On ch=1 n=d6 v=0
34544 On ch=1 n=c#6 v=0
34547 On ch=1 n=d6 v=90
34596 On ch=1 n=d#5 v=0
34597 On ch=1 n=c7 v=111
34598 On ch=1 n=d5 v=91
34600 On ch=1 n=d6 v=0
34625 Par ch=1 c=64 v=63
34627 Par ch=1 c=64 v=0
34642 On ch=1 n=c7 v=0
34645 On ch=1 n=d6 v=93
34654 On ch=1 n=d5 v=0
34659 Par ch=1 c=64 v=63
34662 Par ch=1 c=64 v=127
34671 On ch=1 n=f#4 v=103
34681 On ch=1 n=d6 v=0
34691 On ch=1 n=c7 v=104
34697 Par ch=1 c=64 v=63
34703 Par ch=1 c=64 v=0
34715 On ch=1 n=f#4 v=0
34727 On ch=1 n=d6 v=85
34733 On ch=1 n=c7 v=0
34763 On ch=1 n=d6 v=0
34768 On ch=1 n=g4 v=120
34773 On ch=1 n=b6 v=111
34775 Par ch=1 c=64 v=63
34777 Par ch=1 c=64 v=127
34825 On ch=1 n=b6 v=0
34827 On ch=1 n=d5 v=96
34843 On ch=1 n=g4 v=0
34879 On ch=1 n=b4 v=102
34881 On ch=1 n=d5 v=0
34895 Par ch=1 c=64 v=63
34900 Par ch=1 c=64 v=0
34920 On ch=1 n=b4 v=0
34923 On ch=1 n=d5 v=87
34930 Par ch=1 c=64 v=63
34939 Par ch=1 c=64 v=127
34963 On ch=1 n=d5 v=0
34964 On ch=1 n=a#6 v=125
34965 On ch=1 n=e4 v=114
35013 On ch=1 n=a#6 v=0
35018 On ch=1 n=e4 v=0
35021 On ch=1 n=c#5 v=87
35057 On ch=1 n=c#5 v=0
35063 On ch=1 n=g4 v=89
35092 Par ch=1 c=64 v=63
35097 Par ch=1 c=64 v=0
35104 On ch=1 n=c#5 v=97
35115 On ch=1 n=g4 v=0
35138 Par ch=1 c=64 v=63
35146 On ch=1 n=a6 v=126
35147 Par ch=1 c=64 v=127
35148 On ch=1 n=c#5 v=0
35149 On ch=1 n=f4 v=109
35190 On ch=1 n=c5 v=101
35194 On ch=1 n=a6 v=0
35203 On ch=1 n=f4 v=0
35239 On ch=1 n=a4 v=76
35243 On ch=1 n=c5 v=0
35244 On ch=1 n=b4 v=73
35258 Par ch=1 c=64 v=63
35261 Par ch=1 c=64 v=0
35265 On ch=1 n=b4 v=0
35268 On ch=1 n=c5 v=101
35275 On ch=1 n=a4 v=0
35300 On ch=1 n=c5 v=0
35318 Par ch=1 c=64 v=63
35322 Par ch=1 c=64 v=127
35332 On ch=1 n=a#3 v=115
35333 On ch=1 n=g6 v=120
35333 On ch=1 n=a#4 v=124
35359 On ch=1 n=a#4 v=0
35361 On ch=1 n=a#3 v=0
35375 On ch=1 n=d7 v=107
35381 On ch=1 n=g6 v=0
35420 Par ch=1 c=64 v=63
35424 On ch=1 n=a#6 v=105
35427 Par ch=1 c=64 v=0
35434 On ch=1 n=d7 v=0
35475 On ch=1 n=g6 v=89
35481 On ch=1 n=a#6 v=0
35519 Par ch=1 c=64 v=63
35519 On ch=1 n=c4 v=122
35520 On ch=1 n=a4 v=118
35521 On ch=1 n=f6 v=102
35524 Par ch=1 c=64 v=127
35529 On ch=1 n=g6 v=0
35554 On ch=1 n=a4 v=0
35566 On ch=1 n=c7 v=102
35568 On ch=1 n=f6 v=0
35569 On ch=1 n=c4 v=0
35570 Par ch=1 c=64 v=63
35577 Par ch=1 c=64 v=0
35606 On ch=1 n=a6 v=85
35627 On ch=1 n=c7 v=0
35648 On ch=1 n=f6 v=98
35664 On ch=1 n=a6 v=0
35686 Par ch=1 c=64 v=63
35689 Par ch=1 c=64 v=127
35696 On ch=1 n=f6 v=0
35702 On ch=1 n=e6 v=91
35709 On ch=1 n=g4 v=116
35710 On ch=1 n=a#3 v=125
35741 On ch=1 n=g4 v=0
35746 On ch=1 n=a#6 v=96
35748 On ch=1 n=a#3 v=0
35754 On ch=1 n=e6 v=0
35770 Par ch=1 c=64 v=63
35775 Par ch=1 c=64 v=0
35796 On ch=1 n=g6 v=87
35800 On ch=1 n=a#6 v=0
35836 On ch=1 n=e6 v=85
35847 On ch=1 n=g6 v=0
35877 On ch=1 n=e6 v=0
35887 On ch=1 n=a3 v=125
35889 Par ch=1 c=64 v=63
35889 On ch=1 n=f4 v=120
35890 Par ch=1 c=64 v=127
35897 On ch=1 n=f6 v=106
35919 On ch=1 n=f4 v=0
35926 On ch=1 n=a3 v=0
35942 On ch=1 n=a6 v=102
35956 On ch=1 n=f6 v=0
35990 On ch=1 n=c7 v=84
35993 On ch=1 n=a6 v=0
36033 On ch=1 n=a#6 v=100
36061 On ch=1 n=c7 v=0
36084 On ch=1 n=a6 v=98
36115 On ch=1 n=a#6 v=0
36132 On ch=1 n=g6 v=92
36151 On ch=1 n=a6 v=0
36167 On ch=1 n=f6 v=93
36177 On ch=1 n=g6 v=0
36214 On ch=1 n=f6 v=0
36223 On ch=1 n=e6 v=99
36252 On ch=1 n=c5 v=112
36253 On ch=1 n=a4 v=106
36258 Par ch=1 c=64 v=63
36263 On ch=1 n=d6 v=93
36264 Par ch=1 c=64 v=0
36281 On ch=1 n=e6 v=0
36305 On ch=1 n=c6 v=97
36307 On ch=1 n=d6 v=0
36324 On ch=1 n=c5 v=0
36335 On ch=1 n=a4 v=0
36347 On ch=1 n=a#5 v=110
36354 On ch=1 n=c6 v=0
36393 On ch=1 n=a5 v=99
36402 On ch=1 n=a#5 v=0
36424 On ch=1 n=g5 v=92
36434 On ch=1 n=d5 v=121
36436 On ch=1 n=a#4 v=113
36439 On ch=1 n=a5 v=0
36468 Par ch=1 c=64 v=63
36469 On ch=1 n=a#5 v=107
36471 Par ch=1 c=64 v=127
36478 On ch=1 n=g5 v=0
36522 On ch=1 n=d6 v=88
36526 On ch=1 n=a#5 v=0
36547 On ch=1 n=d5 v=0
36557 On ch=1 n=c6 v=97
36587 On ch=1 n=d6 v=0
36595 On ch=1 n=a#5 v=107
36602 On ch=1 n=a#4 v=0
36624 On ch=1 n=c6 v=0
36644 On ch=1 n=a5 v=91
36670 On ch=1 n=a#5 v=0
36680 On ch=1 n=g5 v=93
36682 Par ch=1 c=64 v=63
36688 Par ch=1 c=64 v=0
36690 On ch=1 n=a5 v=0
36727 On ch=1 n=g5 v=0
36730 On ch=1 n=f5 v=99
36772 On ch=1 n=e5 v=102
36776 On ch=1 n=g4 v=106
36776 On ch=1 n=d4 v=113
36779 On ch=1 n=f4 v=102
36787 On ch=1 n=f5 v=0
36797 On ch=1 n=f4 v=0
36797 Par ch=1 c=64 v=63
36806 On ch=1 n=g4 v=0
36808 On ch=1 n=d4 v=0
36818 On ch=1 n=e5 v=0
36818 Par ch=1 c=64 v=0
36819 On ch=1 n=d5 v=93
36860 On ch=1 n=c5 v=100
36861 On ch=1 n=d5 v=0
36908 On ch=1 n=c5 v=0
36912 On ch=1 n=b4 v=86
36941 On ch=1 n=c4 v=125
36951 On ch=1 n=c5 v=109
36954 Par ch=1 c=64 v=63
36955 Par ch=1 c=64 v=127
36975 On ch=1 n=b4 v=0
36996 On ch=1 n=c5 v=0
37015 On ch=1 n=a4 v=91
37086 On ch=1 n=c6 v=107
37087 On ch=1 n=a4 v=0
37090 On ch=1 n=f4 v=86
37112 On ch=1 n=c4 v=0
37126 On ch=1 n=a4 v=79
37130 On ch=1 n=c6 v=0
37136 On ch=1 n=f4 v=0
37181 On ch=1 n=c4 v=117
37184 On ch=1 n=a4 v=0
37188 On ch=1 n=f6 v=114
37228 On ch=1 n=a4 v=92
37263 On ch=1 n=f6 v=0
37269 On ch=1 n=f4 v=104
37276 On ch=1 n=a6 v=108
37283 On ch=1 n=c4 v=0
37283 On ch=1 n=a4 v=0
37313 On ch=1 n=a6 v=0
37319 On ch=1 n=a4 v=94
37330 On ch=1 n=f4 v=0
37357 On ch=1 n=c4 v=112
37363 On ch=1 n=c7 v=100
37373 On ch=1 n=a4 v=0
37408 On ch=1 n=c7 v=0
37409 On ch=1 n=a4 v=100
37441 On ch=1 n=f7 v=117
37449 On ch=1 n=c4 v=0
37451 On ch=1 n=f4 v=103
37469 On ch=1 n=a4 v=0
37479 On ch=1 n=f7 v=0
37494 On ch=1 n=a4 v=84
37504 On ch=1 n=f4 v=0
37547 Par ch=1 c=64 v=63
37548 On ch=1 n=a4 v=0
37549 On ch=1 n=c4 v=90
37553 On ch=1 n=g6 v=120
37557 Par ch=1 c=64 v=0
37586 Par ch=1 c=64 v=63
37604 Par ch=1 c=64 v=127
37613 On ch=1 n=a#4 v=80
37652 On ch=1 n=a6 v=97
37657 On ch=1 n=g6 v=0
37675 On ch=1 n=c4 v=0
37678 On ch=1 n=a#4 v=0
37681 On ch=1 n=e4 v=72
37687 On ch=1 n=a6 v=0
37693 On ch=1 n=g6 v=90
37711 On ch=1 n=a#4 v=72
37714 On ch=1 n=a6 v=99
37728 On ch=1 n=e4 v=0
37729 On ch=1 n=g6 v=0
37748 On ch=1 n=c4 v=92
37749 On ch=1 n=a6 v=0
37754 On ch=1 n=g6 v=101
37759 On ch=1 n=a#4 v=0
37777 On ch=1 n=a6 v=92
37791 On ch=1 n=g6 v=0
37791 On ch=1 n=a#4 v=68
37810 On ch=1 n=c4 v=0
37812 On ch=1 n=a6 v=0
37818 On ch=1 n=g6 v=103
37844 On ch=1 n=a#4 v=0
37844 On ch=1 n=a6 v=89
37844 On ch=1 n=e4 v=84
37855 On ch=1 n=g6 v=0
37878 On ch=1 n=a6 v=0
37882 On ch=1 n=a#4 v=85
37885 On ch=1 n=g6 v=102
37894 On ch=1 n=e4 v=0
37912 On ch=1 n=a6 v=98
37923 On ch=1 n=g6 v=0
37939 On ch=1 n=a#4 v=0
37940 On ch=1 n=c4 v=96
37949 On ch=1 n=g6 v=104
37952 On ch=1 n=a6 v=0
37974 On ch=1 n=a#4 v=80
37986 On ch=1 n=a6 v=98
37989 On ch=1 n=g6 v=0
38024 On ch=1 n=g6 v=103
38028 On ch=1 n=e4 v=90
38031 On ch=1 n=c4 v=0
38034 On ch=1 n=a#4 v=0
38058 On ch=1 n=g6 v=0
38066 On ch=1 n=a6 v=0
38071 On ch=1 n=e4 v=0
38076 On ch=1 n=g6 v=82
38081 On ch=1 n=a#4 v=65
38100 On ch=1 n=f6 v=103
38102 On ch=1 n=a#4 v=0
38108 On ch=1 n=g6 v=0
38133 On ch=1 n=g6 v=91
38148 Par ch=1 c=64 v=63
38154 On ch=1 n=f6 v=0
38156 Par ch=1 c=64 v=0
38187 On ch=1 n=f4 v=76
38212 On ch=1 n=f6 v=104
38240 Par ch=1 c=64 v=63
38242 On ch=1 n=g6 v=0
38250 Par ch=1 c=64 v=127
38324 On ch=1 n=a4 v=70
38430 On ch=1 n=c5 v=101
38460 On ch=1 n=f6 v=0
38526 On ch=1 n=a4 v=0
38526 On ch=1 n=f5 v=97
38531 On ch=1 n=f4 v=0
38554 On ch=1 n=c5 v=0
38623 On ch=1 n=e5 v=98
38657 On ch=1 n=f5 v=0
38659 Par ch=1 c=64 v=63
38698 Par ch=1 c=64 v=0
38699 On ch=1 n=d#5 v=101
38732 On ch=1 n=e5 v=0
38803 On ch=1 n=a#6 v=101
38809 On ch=1 n=d5 v=80
38828 Par ch=1 c=64 v=63
38834 On ch=1 n=d#5 v=0
38837 Par ch=1 c=64 v=127
38907 On ch=1 n=f5 v=72
38916 On ch=1 n=d5 v=0
39001 On ch=1 n=c5 v=82
39003 On ch=1 n=c7 v=101
39012 Par ch=1 c=64 v=63
39018 On ch=1 n=f5 v=0
39024 On ch=1 n=a#6 v=0
39035 Par ch=1 c=64 v=0
39058 Par ch=1 c=64 v=63
39080 On ch=1 n=c5 v=0
39094 Par ch=1 c=64 v=127
39096 On ch=1 n=f5 v=59
39185 On ch=1 n=a#4 v=60
39186 On ch=1 n=d7 v=90
39209 On ch=1 n=f5 v=0
39211 Par ch=1 c=64 v=63
39214 On ch=1 n=c7 v=0
39237 Par ch=1 c=64 v=0
39249 Par ch=1 c=64 v=63
39292 Par ch=1 c=64 v=127
39297 On ch=1 n=f5 v=61
39314 On ch=1 n=a#4 v=0
39401 On ch=1 n=c7 v=92
39405 On ch=1 n=a4 v=64
39406 On ch=1 n=f5 v=0
39416 Par ch=1 c=64 v=63
39424 Par ch=1 c=64 v=127
39429 On ch=1 n=d7 v=0
39496 On ch=1 n=f5 v=84
39610 On ch=1 n=e5 v=84
39617 On ch=1 n=f5 v=0
39654 On ch=1 n=c7 v=0
39706 On ch=1 n=e5 v=0
39708 On ch=1 n=f5 v=69
39713 On ch=1 n=a4 v=0
39727 On ch=1 n=d7 v=90
39764 On ch=1 n=c7 v=90
39786 On ch=1 n=d7 v=0
39811 On ch=1 n=f5 v=0
39811 On ch=1 n=a#4 v=83
39813 Par ch=1 c=64 v=63
39816 On ch=1 n=a#6 v=88
39826 Par ch=1 c=64 v=0
39830 On ch=1 n=c7 v=0
39857 On ch=1 n=a6 v=85
39862 On ch=1 n=a#6 v=0
39893 On ch=1 n=a#4 v=0
39901 On ch=1 n=g6 v=87
39903 On ch=1 n=a6 v=0
39918 On ch=1 n=g5 v=54
39939 On ch=1 n=f6 v=100
39946 On ch=1 n=g6 v=0
39980 On ch=1 n=g5 v=0
39995 On ch=1 n=f6 v=0
39997 On ch=1 n=a6 v=97
40002 On ch=1 n=c5 v=63
40042 Par ch=1 c=64 v=63
40048 Par ch=1 c=64 v=127
40093 On ch=1 n=a5 v=51
40101 On ch=1 n=c5 v=0
40164 On ch=1 n=a6 v=0
40194 On ch=1 n=a5 v=0
40197 On ch=1 n=f5 v=68
40263 On ch=1 n=f5 v=0
40287 On ch=1 n=a5 v=63
40292 On ch=1 n=a#6 v=100
40365 Par ch=1 c=64 v=63
40366 On ch=1 n=a5 v=0
40382 Par ch=1 c=64 v=0
40390 On ch=1 n=g6 v=85
40395 On ch=1 n=a#6 v=0
40397 On ch=1 n=c5 v=76
40484 On ch=1 n=c5 v=0
40492 On ch=1 n=a#5 v=72
40559 On ch=1 n=a#5 v=0
40584 On ch=1 n=g6 v=0
40587 On ch=1 n=f6 v=79
40594 On ch=1 n=a5 v=64
40634 Par ch=1 c=64 v=63
40641 Par ch=1 c=64 v=127
40657 On ch=1 n=a5 v=0
40704 On ch=1 n=f5 v=76
40786 On ch=1 n=f6 v=0
40809 On ch=1 n=f5 v=0
40810 On ch=1 n=e5 v=85
40903 On ch=1 n=d#5 v=103
40917 On ch=1 n=e5 v=0
40997 On ch=1 n=d5 v=96
41006 On ch=1 n=d#5 v=0
41014 Par ch=1 c=64 v=63
41023 Par ch=1 c=64 v=0
41071 On ch=1 n=c#5 v=112
41094 On ch=1 n=d5 v=0
41161 On ch=1 n=c#5 v=0
41179 Par ch=1 c=64 v=63
41180 On ch=1 n=d5 v=100
41181 Par ch=1 c=64 v=127
41181 On ch=1 n=a#5 v=109
41273 On ch=1 n=d5 v=0
41276 On ch=1 n=f5 v=79
41281 On ch=1 n=a#6 v=98
41293 On ch=1 n=a#5 v=0
41343 On ch=1 n=a#6 v=0
41350 On ch=1 n=f5 v=0
41354 Par ch=1 c=64 v=63
41369 On ch=1 n=c5 v=116
41374 On ch=1 n=c6 v=99
41384 Par ch=1 c=64 v=127
41442 On ch=1 n=c6 v=0
41454 On ch=1 n=e5 v=101
41456 On ch=1 n=c7 v=113
41474 On ch=1 n=c5 v=0
41539 Par ch=1 c=64 v=63
41546 On ch=1 n=e5 v=0
41551 On ch=1 n=d6 v=98
41553 On ch=1 n=c7 v=0
41556 On ch=1 n=b4 v=108
41563 Par ch=1 c=64 v=127
41643 On ch=1 n=d6 v=0
41654 On ch=1 n=d7 v=111
41659 On ch=1 n=g#5 v=105
41670 On ch=1 n=b4 v=0
41707 On ch=1 n=d7 v=0
41713 On ch=1 n=g#5 v=0
41783 On ch=1 n=c5 v=102
41788 On ch=1 n=c7 v=104
41800 Par ch=1 c=64 v=63
41866 Par ch=1 c=64 v=127
41900 On ch=1 n=c7 v=0
41915 On ch=1 n=d7 v=97
41918 On ch=1 n=a5 v=57
41956 On ch=1 n=e7 v=89
41961 On ch=1 n=c5 v=0
41972 On ch=1 n=d7 v=0
41993 On ch=1 n=f7 v=96
42001 On ch=1 n=e7 v=0
42001 On ch=1 n=f5 v=76
42004 On ch=1 n=a5 v=0
42044 On ch=1 n=e7 v=91
42055 On ch=1 n=f5 v=0
42062 On ch=1 n=f7 v=0
42066 On ch=1 n=a5 v=69
42076 On ch=1 n=d7 v=101
42091 Par ch=1 c=64 v=63
42095 On ch=1 n=e7 v=0
42104 Par ch=1 c=64 v=0
42118 On ch=1 n=d7 v=0
42119 On ch=1 n=c7 v=93
42131 On ch=1 n=a5 v=0
42153 On ch=1 n=c5 v=84
42161 On ch=1 n=c7 v=0
42162 On ch=1 n=a#6 v=103
42199 On ch=1 n=a6 v=90
42211 On ch=1 n=a#6 v=0
42237 On ch=1 n=c5 v=0
42239 On ch=1 n=g6 v=84
42245 On ch=1 n=a6 v=0
42250 On ch=1 n=a5 v=82
42271 On ch=1 n=f6 v=89
42277 On ch=1 n=g6 v=0
42305 On ch=1 n=a5 v=0
42314 On ch=1 n=f6 v=0
42325 On ch=1 n=a6 v=116
42329 Par ch=1 c=64 v=63
42331 Par ch=1 c=64 v=127
42334 On ch=1 n=c5 v=85
42366 On ch=1 n=c5 v=0
42431 On ch=1 n=c6 v=67
42482 On ch=1 n=a6 v=0
42494 On ch=1 n=c6 v=0
42540 On ch=1 n=a5 v=104
42592 On ch=1 n=a5 v=0
42627 On ch=1 n=c6 v=72
42638 On ch=1 n=a#6 v=114
42675 On ch=1 n=c6 v=0
42692 On ch=1 n=a#6 v=0
42696 Par ch=1 c=64 v=63
42701 Par ch=1 c=64 v=0
42728 On ch=1 n=c5 v=79
42730 On ch=1 n=g6 v=114
42755 Par ch=1 c=64 v=63
42762 Par ch=1 c=64 v=127
42771 On ch=1 n=c5 v=0
42799 On ch=1 n=g6 v=0
42820 On ch=1 n=a#5 v=90
42844 On ch=1 n=a#5 v=0
42896 Par ch=1 c=64 v=63
42901 Par ch=1 c=64 v=0
42917 On ch=1 n=f6 v=111
42966 On ch=1 n=f4 v=109
42986 Par ch=1 c=64 v=63
42987 Par ch=1 c=64 v=127
43016 On ch=1 n=a4 v=91
43026 On ch=1 n=f6 v=0
43035 On ch=1 n=f4 v=0
43057 On ch=1 n=c5 v=103
43077 On ch=1 n=a4 v=0
43088 On ch=1 n=f5 v=113
43089 Par ch=1 c=64 v=63
43092 Par ch=1 c=64 v=0
43104 On ch=1 n=c5 v=0
43120 On ch=1 n=f5 v=0
43142 On ch=1 n=c7 v=108
43190 On ch=1 n=c7 v=0
43191 On ch=1 n=d7 v=83
43230 On ch=1 n=c7 v=81
43246 On ch=1 n=d7 v=0
43274 On ch=1 n=a#6 v=96
43278 On ch=1 n=c5 v=113
43279 On ch=1 n=e5 v=106
43283 On ch=1 n=c7 v=0
43294 On ch=1 n=e5 v=0
43306 On ch=1 n=c5 v=0
43311 On ch=1 n=a6 v=80
43315 On ch=1 n=a#6 v=0
43353 On ch=1 n=a#6 v=99
43364 On ch=1 n=a6 v=0
43405 On ch=1 n=a#6 v=0
43413 On ch=1 n=g6 v=91
43449 On ch=1 n=g6 v=0
43460 On ch=1 n=f6 v=117
43464 Par ch=1 c=64 v=63
43465 Par ch=1 c=64 v=127
43501 On ch=1 n=f6 v=0
43509 On ch=1 n=f3 v=98
43546 On ch=1 n=a3 v=94
43572 On ch=1 n=f3 v=0
43598 On ch=1 n=c4 v=93
43618 On ch=1 n=a3 v=0
43632 On ch=1 n=f4 v=111
43646 Par ch=1 c=64 v=63
43649 Par ch=1 c=64 v=0
43650 On ch=1 n=c4 v=0
43666 On ch=1 n=f4 v=0
43689 On ch=1 n=c6 v=108
43730 On ch=1 n=d6 v=92
43738 On ch=1 n=c6 v=0
43768 On ch=1 n=c6 v=83
43789 On ch=1 n=d6 v=0
43811 On ch=1 n=a#5 v=97
43820 On ch=1 n=c4 v=106
43821 On ch=1 n=e4 v=103
43825 On ch=1 n=c6 v=0
43835 On ch=1 n=e4 v=0
43845 On ch=1 n=c4 v=0
43850 On ch=1 n=a#5 v=0
43851 On ch=1 n=a5 v=77
43888 On ch=1 n=a#5 v=98
43902 On ch=1 n=a5 v=0
43934 On ch=1 n=a#5 v=0
43939 On ch=1 n=g5 v=93
43979 On ch=1 n=g5 v=0
43985 On ch=1 n=f5 v=117
43994 On ch=1 n=f4 v=112
44004 Par ch=1 c=64 v=63
44005 Par ch=1 c=64 v=127
44021 On ch=1 n=f5 v=0
44037 On ch=1 n=f4 v=0
44205 On ch=1 n=f3 v=127
44206 On ch=1 n=c6 v=121
44206 On ch=1 n=a5 v=118
44207 On ch=1 n=f6 v=121
44252 Par ch=1 c=64 v=63
44259 On ch=1 n=c6 v=0
44259 Par ch=1 c=64 v=0
44266 On ch=1 n=a5 v=0
44277 On ch=1 n=f6 v=0
44283 On ch=1 n=f3 v=0
44657 On ch=1 n=d#4 v=124
44660 On ch=1 n=f#5 v=127
44667 Par ch=1 c=64 v=63
44668 Par ch=1 c=64 v=127
44690 On ch=1 n=d#4 v=0
44692 On ch=1 n=f#5 v=0
44892 On ch=1 n=d#3 v=123
44895 On ch=1 n=f#6 v=119
44896 On ch=1 n=c6 v=112
44897 On ch=1 n=g#5 v=112
44959 On ch=1 n=d#3 v=0
45003 On ch=1 n=g#5 v=0
45007 On ch=1 n=c6 v=0
45018 Par ch=1 c=64 v=63
45020 On ch=1 n=f#6 v=0
45042 Par ch=1 c=64 v=0
45525 On ch=1 n=c#5 v=80
45544 On ch=1 n=c#4 v=51
45549 On ch=1 n=f4 v=38
45597 Par ch=1 c=64 v=63
45605 Par ch=1 c=64 v=127
45681 On ch=1 n=g#4 v=43
45714 On ch=1 n=f4 v=0
45773 On ch=1 n=g#4 v=0
45782 On ch=1 n=f4 v=47
45862 On ch=1 n=g#4 v=53
45868 On ch=1 n=f4 v=0
45892 On ch=1 n=c#5 v=0
45957 On ch=1 n=g#4 v=0
45971 On ch=1 n=d#5 v=73
45981 On ch=1 n=f4 v=38
46012 On ch=1 n=c#5 v=83
46024 On ch=1 n=d#5 v=0
46045 On ch=1 n=c#4 v=0
46049 On ch=1 n=f4 v=0
46049 On ch=1 n=c#5 v=0
46055 On ch=1 n=g#4 v=50
46062 On ch=1 n=c5 v=69
46092 On ch=1 n=c#5 v=95
46099 On ch=1 n=c5 v=0
46144 On ch=1 n=c#5 v=0
46168 On ch=1 n=c4 v=38
46169 On ch=1 n=g#4 v=0
46169 On ch=1 n=a#5 v=76
46173 On ch=1 n=f#4 v=58
46200 Par ch=1 c=64 v=63
46216 Par ch=1 c=64 v=0
46270 On ch=1 n=g#5 v=90
46282 On ch=1 n=g#4 v=43
46283 On ch=1 n=a#5 v=0
46284 Par ch=1 c=64 v=63
46301 On ch=1 n=f#4 v=0
46305 Par ch=1 c=64 v=127
46344 On ch=1 n=g#5 v=0
46372 On ch=1 n=g#5 v=94
46387 On ch=1 n=f#4 v=66
46396 On ch=1 n=g#4 v=0
46405 Par ch=1 c=64 v=63
46427 Par ch=1 c=64 v=0
46445 Par ch=1 c=64 v=63
46473 On ch=1 n=g#4 v=65
46478 Par ch=1 c=64 v=127
46488 On ch=1 n=f#4 v=0
46537 On ch=1 n=g#5 v=0
46570 On ch=1 n=g#5 v=97
46579 On ch=1 n=g#4 v=0
46584 On ch=1 n=f#4 v=61
46648 On ch=1 n=g#5 v=0
46659 On ch=1 n=g#4 v=61
46665 On ch=1 n=f#4 v=0
46746 On ch=1 n=c4 v=0
46763 On ch=1 n=g#5 v=86
46765 On ch=1 n=g#4 v=0
46775 On ch=1 n=c#4 v=37
46778 On ch=1 n=f4 v=48
46806 Par ch=1 c=64 v=63
46834 Par ch=1 c=64 v=0
46856 On ch=1 n=g#4 v=70
46863 On ch=1 n=c#6 v=89
46866 Par ch=1 c=64 v=63
46883 On ch=1 n=f4 v=0
46895 On ch=1 n=g#5 v=0
46898 Par ch=1 c=64 v=127
46960 On ch=1 n=c#6 v=0
46960 On ch=1 n=c6 v=84
46970 On ch=1 n=f4 v=59
46972 On ch=1 n=g#4 v=0
47030 Par ch=1 c=64 v=63
47041 On ch=1 n=g#4 v=62
47048 Par ch=1 c=64 v=0
47050 On ch=1 n=b5 v=93
47055 On ch=1 n=f4 v=0
47079 On ch=1 n=c6 v=0
47142 On ch=1 n=g#4 v=0
47146 On ch=1 n=a#5 v=93
47153 On ch=1 n=f4 v=46
47170 On ch=1 n=b5 v=0
47227 On ch=1 n=g#4 v=60
47237 On ch=1 n=a5 v=76
47239 On ch=1 n=f4 v=0
47241 On ch=1 n=a#5 v=0
47284 On ch=1 n=c#4 v=0
47333 On ch=1 n=g#4 v=0
47338 On ch=1 n=g#5 v=79
47340 On ch=1 n=f#4 v=61
47344 On ch=1 n=c4 v=48
47352 On ch=1 n=a5 v=0
47432 On ch=1 n=g#4 v=56
47458 On ch=1 n=f#4 v=0
47493 Par ch=1 c=64 v=63
47508 Par ch=1 c=64 v=127
47542 On ch=1 n=f#4 v=65
47552 On ch=1 n=g#4 v=0
47604 On ch=1 n=g#5 v=0
47634 On ch=1 n=g#4 v=55
47643 On ch=1 n=f#4 v=0
47738 On ch=1 n=f#4 v=64
47744 On ch=1 n=g#4 v=0
47820 Par ch=1 c=64 v=63
47823 On ch=1 n=g#4 v=65
47830 On ch=1 n=f#4 v=0
47853 Par ch=1 c=64 v=0
47917 On ch=1 n=c4 v=0
47922 On ch=1 n=c#5 v=87
47923 On ch=1 n=f4 v=58
47929 On ch=1 n=g#4 v=0
47933 On ch=1 n=c#4 v=57
47963 Par ch=1 c=64 v=63
47975 Par ch=1 c=64 v=127
48024 On ch=1 n=g#4 v=58
48036 On ch=1 n=f4 v=0
48124 On ch=1 n=g#4 v=0
48131 On ch=1 n=f4 v=63
48213 On ch=1 n=g#4 v=74
48214 On ch=1 n=c#5 v=0
48228 On ch=1 n=f4 v=0
48293 On ch=1 n=g#4 v=0
48309 On ch=1 n=f4 v=50
48320 On ch=1 n=d#5 v=80
48344 On ch=1 n=c#4 v=0
48353 On ch=1 n=c#5 v=94
48367 On ch=1 n=d#5 v=0
48374 On ch=1 n=g#4 v=62
48383 On ch=1 n=f4 v=0
48390 On ch=1 n=c#5 v=0
48401 On ch=1 n=c5 v=84
48422 On ch=1 n=c#5 v=88
48438 On ch=1 n=c5 v=0
48465 On ch=1 n=g#4 v=0
48482 On ch=1 n=c#5 v=0
48493 On ch=1 n=d#4 v=68
48495 On ch=1 n=a#5 v=101
48498 On ch=1 n=c4 v=47
48510 Par ch=1 c=64 v=63
48520 Par ch=1 c=64 v=0
48578 Par ch=1 c=64 v=63
48585 On ch=1 n=f#4 v=80
48589 On ch=1 n=a#5 v=0
48589 On ch=1 n=a5 v=94
48591 Par ch=1 c=64 v=127
48602 On ch=1 n=d#4 v=0
48653 On ch=1 n=a5 v=0
48681 On ch=1 n=a5 v=93
48685 On ch=1 n=f#4 v=0
48686 Par ch=1 c=64 v=63
48691 On ch=1 n=d#4 v=82
48732 Par ch=1 c=64 v=127
48771 On ch=1 n=f#4 v=80
48792 On ch=1 n=d#4 v=0
48829 On ch=1 n=a5 v=0
48864 On ch=1 n=a5 v=108
48870 On ch=1 n=f#4 v=0
48878 On ch=1 n=d#4 v=75
48953 On ch=1 n=a5 v=0
48955 On ch=1 n=f#4 v=70
48965 On ch=1 n=d#4 v=0
49049 On ch=1 n=f#4 v=0
49063 On ch=1 n=a#5 v=95
49070 On ch=1 n=c#4 v=72
49071 On ch=1 n=f4 v=62
49077 On ch=1 n=c4 v=0
49122 Par ch=1 c=64 v=63
49171 On ch=1 n=f6 v=82
49182 On ch=1 n=a#4 v=70
49198 Par ch=1 c=64 v=127
49205 On ch=1 n=a#5 v=0
49214 On ch=1 n=f4 v=0
49272 On ch=1 n=c#6 v=104
49281 On ch=1 n=f4 v=71
49293 On ch=1 n=a#4 v=0
49302 On ch=1 n=f6 v=0
49356 On ch=1 n=a#4 v=83
49362 On ch=1 n=c6 v=92
49380 On ch=1 n=c#6 v=0
49382 On ch=1 n=f4 v=0
49463 On ch=1 n=a#4 v=0
49463 On ch=1 n=a#5 v=110
49467 On ch=1 n=f4 v=67
49486 On ch=1 n=c6 v=0
49505 On ch=1 n=c#4 v=0
49532 On ch=1 n=f4 v=0
49534 On ch=1 n=a#4 v=80
49546 On ch=1 n=g#5 v=110
49563 On ch=1 n=a#5 v=0
49583 On ch=1 n=a#4 v=0
49643 On ch=1 n=g5 v=102
49649 On ch=1 n=a#4 v=84
49660 On ch=1 n=e4 v=80
49671 On ch=1 n=g#5 v=0
49690 On ch=1 n=b4 v=30
49713 Par ch=1 c=64 v=63
49728 Par ch=1 c=64 v=0
49732 On ch=1 n=b4 v=0
49741 On ch=1 n=a#4 v=0
49742 On ch=1 n=c#5 v=88
49780 Par ch=1 c=64 v=63
49794 Par ch=1 c=64 v=127
49844 On ch=1 n=a#4 v=77
49858 On ch=1 n=c#5 v=0
49894 On ch=1 n=g5 v=0
49938 On ch=1 n=c#5 v=76
49949 On ch=1 n=a#4 v=0
50037 On ch=1 n=c#5 v=0
50044 On ch=1 n=a#4 v=67
50114 On ch=1 n=c#5 v=76
50117 On ch=1 n=a#4 v=0
50178 On ch=1 n=e4 v=0
50197 On ch=1 n=c#5 v=0
50212 Par ch=1 c=64 v=63
50218 On ch=1 n=g#4 v=71
50226 On ch=1 n=g#5 v=80
50227 Par ch=1 c=64 v=0
50232 On ch=1 n=f4 v=41
50279 Par ch=1 c=64 v=63
50299 Par ch=1 c=64 v=127
50320 On ch=1 n=c5 v=60
50326 On ch=1 n=g#5 v=0
50334 On ch=1 n=g#6 v=88
50352 On ch=1 n=g#4 v=0
50423 On ch=1 n=g#4 v=73
50424 On ch=1 n=f6 v=93
50446 On ch=1 n=g#6 v=0
50450 On ch=1 n=c5 v=0
50510 On ch=1 n=d#6 v=107
50530 On ch=1 n=c5 v=76
50540 On ch=1 n=g#4 v=0
50549 On ch=1 n=f6 v=0
50598 On ch=1 n=d6 v=103
50609 On ch=1 n=g#4 v=76
50610 On ch=1 n=c5 v=0
50648 On ch=1 n=d#6 v=0
50653 On ch=1 n=f4 v=0
50684 On ch=1 n=c6 v=99
50684 On ch=1 n=c5 v=76
50688 On ch=1 n=g#4 v=0
50722 On ch=1 n=d6 v=0
50758 On ch=1 n=c5 v=0
50790 On ch=1 n=g4 v=65
50794 On ch=1 n=b5 v=103
50796 On ch=1 n=d5 v=79
50828 On ch=1 n=c6 v=0
50833 Par ch=1 c=64 v=63
50851 Par ch=1 c=64 v=0
50884 On ch=1 n=f5 v=72
50901 Par ch=1 c=64 v=63
50918 Par ch=1 c=64 v=127
50922 On ch=1 n=d5 v=0
50992 On ch=1 n=d5 v=63
50996 On ch=1 n=f5 v=0
51077 On ch=1 n=f5 v=53
51082 On ch=1 n=d5 v=0
51114 On ch=1 n=b5 v=0
51178 On ch=1 n=f5 v=0
51188 On ch=1 n=d5 v=63
51248 On ch=1 n=d5 v=0
51262 On ch=1 n=f5 v=65
51311 On ch=1 n=g4 v=0
51329 Par ch=1 c=64 v=63
51362 On ch=1 n=f5 v=0
51363 On ch=1 n=c6 v=87
51370 On ch=1 n=c5 v=62
51371 Par ch=1 c=64 v=127
51380 On ch=1 n=g#4 v=58
51407 On ch=1 n=c6 v=0
51468 On ch=1 n=d#5 v=85
51480 On ch=1 n=d#7 v=88
51483 On ch=1 n=c5 v=0
51575 On ch=1 n=d#7 v=0
51575 On ch=1 n=c5 v=76
51582 On ch=1 n=c7 v=99
51585 On ch=1 n=d#5 v=0
51659 On ch=1 n=a#6 v=112
51661 On ch=1 n=d#5 v=81
51678 On ch=1 n=c5 v=0
51689 On ch=1 n=c7 v=0
51751 On ch=1 n=g#6 v=108
51766 On ch=1 n=d#5 v=0
51766 On ch=1 n=c5 v=73
51797 On ch=1 n=a#6 v=0
51826 On ch=1 n=d#5 v=82
51829 On ch=1 n=g6 v=101
51865 On ch=1 n=g#6 v=0
51869 On ch=1 n=c5 v=0
51914 On ch=1 n=d#5 v=0
51921 On ch=1 n=g#4 v=0
51936 On ch=1 n=f#6 v=98
51947 On ch=1 n=a4 v=39
51947 On ch=1 n=c5 v=60
51956 Par ch=1 c=64 v=63
51965 Par ch=1 c=64 v=0
51966 On ch=1 n=g6 v=0
52030 Par ch=1 c=64 v=63
52034 On ch=1 n=d5 v=65
52036 Par ch=1 c=64 v=127
52063 On ch=1 n=c5 v=0
52128 On ch=1 n=c5 v=67
52144 On ch=1 n=d5 v=0
52217 On ch=1 n=c5 v=0
52221 On ch=1 n=d5 v=58
52320 On ch=1 n=d5 v=0
52321 On ch=1 n=c5 v=66
52326 On ch=1 n=f#6 v=0
52374 On ch=1 n=a4 v=0
52396 On ch=1 n=c5 v=0
52410 On ch=1 n=d5 v=60
52515 Par ch=1 c=64 v=63
52518 On ch=1 n=g6 v=67
52521 On ch=1 n=a#4 v=56
52525 Par ch=1 c=64 v=0
52579 Par ch=1 c=64 v=63
52589 Par ch=1 c=64 v=127
52624 On ch=1 n=d5 v=0
52627 On ch=1 n=a#6 v=77
52632 On ch=1 n=g5 v=46
52639 On ch=1 n=g6 v=0
52715 On ch=1 n=g6 v=76
52725 On ch=1 n=a#6 v=0
52726 On ch=1 n=d5 v=71
52731 On ch=1 n=g5 v=0
52807 On ch=1 n=g5 v=61
52809 On ch=1 n=f6 v=84
52810 On ch=1 n=g6 v=0
52814 On ch=1 n=d5 v=0
52896 On ch=1 n=f6 v=0
52902 On ch=1 n=d#6 v=88
52913 On ch=1 n=d5 v=65
52915 On ch=1 n=g5 v=0
52968 On ch=1 n=a#4 v=0
52974 On ch=1 n=d5 v=0
52979 On ch=1 n=d#6 v=0
52981 On ch=1 n=d6 v=82
52987 On ch=1 n=g5 v=62
53045 On ch=1 n=g5 v=0
53060 Par ch=1 c=64 v=63
53068 Par ch=1 c=64 v=0
53073 On ch=1 n=d6 v=0
53085 On ch=1 n=c#6 v=88
53088 On ch=1 n=g5 v=50
53093 On ch=1 n=d#5 v=53
53124 Par ch=1 c=64 v=63
53133 Par ch=1 c=64 v=127
53176 On ch=1 n=g5 v=0
53181 On ch=1 n=a5 v=34
53279 On ch=1 n=a5 v=0
53289 On ch=1 n=g5 v=34
53373 On ch=1 n=g5 v=0
53377 On ch=1 n=a5 v=43
53473 On ch=1 n=a5 v=0
53482 On ch=1 n=g5 v=50
53571 On ch=1 n=c#6 v=0
53571 On ch=1 n=g5 v=0
53572 On ch=1 n=a5 v=50
53606 On ch=1 n=d#5 v=0
53643 Par ch=1 c=64 v=63
53646 Par ch=1 c=64 v=0
53665 On ch=1 n=a5 v=0
53679 On ch=1 n=f#5 v=87
53683 On ch=1 n=d5 v=77
53684 Par ch=1 c=64 v=63
53685 Par ch=1 c=64 v=127
53706 On ch=1 n=d5 v=0
53710 On ch=1 n=f#5 v=0
53726 On ch=1 n=d6 v=75
53761 On ch=1 n=d6 v=0
53786 On ch=1 n=c#6 v=65
53816 On ch=1 n=d6 v=66
53818 On ch=1 n=c#6 v=0
53854 Par ch=1 c=64 v=63
53856 Par ch=1 c=64 v=0
53862 On ch=1 n=d6 v=0
53868 On ch=1 n=e6 v=84
53908 On ch=1 n=d6 v=80
53917 On ch=1 n=e6 v=0
53955 On ch=1 n=d6 v=0
53955 On ch=1 n=c#6 v=89
53982 Par ch=1 c=64 v=63
53983 Par ch=1 c=64 v=127
53984 On ch=1 n=d6 v=84
53990 On ch=1 n=c#6 v=0
54021 On ch=1 n=d6 v=0
54046 On ch=1 n=c6 v=65
54048 Par ch=1 c=64 v=63
54051 Par ch=1 c=64 v=0
54070 On ch=1 n=c6 v=0
54089 On ch=1 n=d6 v=76
54133 On ch=1 n=d6 v=0
54133 On ch=1 n=f#6 v=92
54166 On ch=1 n=f#6 v=0
54173 On ch=1 n=d6 v=84
54192 Par ch=1 c=64 v=63
54193 Par ch=1 c=64 v=127
54215 On ch=1 n=d6 v=0
54235 On ch=1 n=a#5 v=94
54259 On ch=1 n=a#5 v=0
54267 On ch=1 n=d6 v=77
54272 Par ch=1 c=64 v=63
54275 Par ch=1 c=64 v=0
54311 On ch=1 n=d6 v=0
54314 On ch=1 n=g6 v=84
54348 On ch=1 n=d6 v=68
54352 On ch=1 n=g6 v=0
54393 On ch=1 n=d6 v=0
54397 Par ch=1 c=64 v=63
54398 Par ch=1 c=64 v=127
54416 On ch=1 n=f#5 v=109
54434 On ch=1 n=d6 v=77
54449 On ch=1 n=f#5 v=0
54450 Par ch=1 c=64 v=63
54454 Par ch=1 c=64 v=0
54487 On ch=1 n=d6 v=0
54499 On ch=1 n=c7 v=88
54535 On ch=1 n=d6 v=80
54546 On ch=1 n=c7 v=0
54583 Par ch=1 c=64 v=63
54584 Par ch=1 c=64 v=127
54585 On ch=1 n=d6 v=0
54599 On ch=1 n=g5 v=108
54623 On ch=1 n=d6 v=71
54635 On ch=1 n=g5 v=0
54643 Par ch=1 c=64 v=63
54646 Par ch=1 c=64 v=0
54672 On ch=1 n=d6 v=0
54673 On ch=1 n=a#6 v=101
54711 On ch=1 n=a#6 v=0
54713 On ch=1 n=d6 v=86
54758 On ch=1 n=d6 v=0
54763 Par ch=1 c=64 v=63
54764 Par ch=1 c=64 v=127
54766 On ch=1 n=d5 v=118
54784 On ch=1 n=a6 v=94
54815 On ch=1 n=d5 v=0
54825 On ch=1 n=f#6 v=99
54835 On ch=1 n=a6 v=0
54867 On ch=1 n=f#6 v=0
54873 On ch=1 n=e6 v=74
54905 On ch=1 n=d6 v=87
54910 On ch=1 n=e6 v=0
54951 On ch=1 n=c#6 v=109
54952 Par ch=1 c=64 v=63
54956 On ch=1 n=d6 v=0
54956 Par ch=1 c=64 v=0
54996 On ch=1 n=d6 v=98
55002 On ch=1 n=c#6 v=0
55038 On ch=1 n=e6 v=93
55046 On ch=1 n=d6 v=0
55075 On ch=1 n=d6 v=98
55098 On ch=1 n=e6 v=0
55115 On ch=1 n=d6 v=0
55126 On ch=1 n=c6 v=106
55164 On ch=1 n=c6 v=0
55171 On ch=1 n=d6 v=96
55211 On ch=1 n=f#6 v=101
55214 On ch=1 n=d6 v=0
55247 On ch=1 n=f#6 v=0
55253 On ch=1 n=d6 v=94
55293 On ch=1 n=d6 v=0
55304 On ch=1 n=a#5 v=121
55333 On ch=1 n=a#5 v=0
55337 On ch=1 n=d6 v=92
55381 On ch=1 n=g6 v=102
55384 On ch=1 n=d6 v=0
55421 On ch=1 n=d6 v=93
55429 On ch=1 n=g6 v=0
55465 On ch=1 n=d6 v=0
55482 On ch=1 n=f#5 v=123
55516 On ch=1 n=d6 v=96
55517 On ch=1 n=f#5 v=0
55564 On ch=1 n=d6 v=0
55570 On ch=1 n=c7 v=104
55604 On ch=1 n=d6 v=92
55613 On ch=1 n=c7 v=0
55648 On ch=1 n=d6 v=0
55667 On ch=1 n=g5 v=121
55696 On ch=1 n=d6 v=97
55705 On ch=1 n=g5 v=0
55744 On ch=1 n=d6 v=0
55750 On ch=1 n=a#6 v=107
55784 On ch=1 n=d6 v=79
55794 On ch=1 n=a#6 v=0
55826 On ch=1 n=d6 v=0
55844 Par ch=1 c=64 v=63
55845 Par ch=1 c=64 v=127
55850 On ch=1 n=d5 v=127
55856 On ch=1 n=a6 v=113
55905 On ch=1 n=d7 v=104
55912 On ch=1 n=a6 v=0
55951 On ch=1 n=a6 v=101
55955 On ch=1 n=d7 v=0
55997 On ch=1 n=f#6 v=107
55999 On ch=1 n=a6 v=0
56011 On ch=1 n=d5 v=0
56034 On ch=1 n=f#6 v=0
56048 On ch=1 n=d6 v=89
56077 On ch=1 n=d6 v=0
56087 On ch=1 n=a6 v=100
56133 On ch=1 n=f#6 v=97
56144 On ch=1 n=a6 v=0
56172 On ch=1 n=d6 v=91
56181 On ch=1 n=f#6 v=0
56213 On ch=1 n=d6 v=0
56219 On ch=1 n=a5 v=74
56250 On ch=1 n=a5 v=0
56268 On ch=1 n=d5 v=102
56271 On ch=1 n=d6 v=106
56279 Par ch=1 c=64 v=63
56282 Par ch=1 c=64 v=0
56311 On ch=1 n=a5 v=93
56312 On ch=1 n=d5 v=0
56313 On ch=1 n=a4 v=87
56322 On ch=1 n=d6 v=0
56355 On ch=1 n=a5 v=0
56357 On ch=1 n=f#4 v=106
56360 On ch=1 n=f#5 v=107
56368 On ch=1 n=a4 v=0
56393 On ch=1 n=f#5 v=0
56405 Par ch=1 c=64 v=63
56406 Par ch=1 c=64 v=127
56409 On ch=1 n=f#4 v=0
56414 On ch=1 n=d5 v=88
56416 On ch=1 n=d4 v=122
56434 On ch=1 n=d5 v=0
56458 Par ch=1 c=64 v=63
56460 On ch=1 n=d4 v=0
56464 Par ch=1 c=64 v=0
56643 On ch=1 n=d6 v=109
56643 On ch=1 n=f#5 v=114
56644 On ch=1 n=a5 v=108
56644 On ch=1 n=d3 v=127
56651 Par ch=1 c=64 v=63
56652 Par ch=1 c=64 v=127
56674 On ch=1 n=f#5 v=0
56684 On ch=1 n=a5 v=0
56692 On ch=1 n=d3 v=0
56694 On ch=1 n=d6 v=0
56885 Par ch=1 c=64 v=63
56892 Par ch=1 c=64 v=0
57305 On ch=1 n=g4 v=60
57719 On ch=1 n=d4 v=70
57926 On ch=1 n=b3 v=69
57941 On ch=1 n=g4 v=0
58028 On ch=1 n=d4 v=0
58335 On ch=1 n=d4 v=70
58390 On ch=1 n=b3 v=0
58549 On ch=1 n=g4 v=76
58607 Par ch=1 c=64 v=63
58619 Par ch=1 c=64 v=127
58630 On ch=1 n=d4 v=0
58649 On ch=1 n=d7 v=84
58703 On ch=1 n=d7 v=0
58743 On ch=1 n=d7 v=80
58782 On ch=1 n=d7 v=0
58817 On ch=1 n=d7 v=97
58846 On ch=1 n=g4 v=0
58857 On ch=1 n=d7 v=0
58912 On ch=1 n=d7 v=91
58916 On ch=1 n=b4 v=97
58957 On ch=1 n=d7 v=0
59007 On ch=1 n=d7 v=90
59062 On ch=1 n=d7 v=0
59132 On ch=1 n=d#7 v=93
59133 On ch=1 n=d5 v=79
59192 On ch=1 n=b4 v=0
59206 Par ch=1 c=64 v=63
59222 Par ch=1 c=64 v=0
59243 On ch=1 n=d7 v=89
59274 On ch=1 n=d#7 v=0
59288 Par ch=1 c=64 v=63
59299 Par ch=1 c=64 v=127
59336 On ch=1 n=c7 v=93
59344 On ch=1 n=d7 v=0
59397 On ch=1 n=c7 v=0
59423 On ch=1 n=b6 v=93
59448 On ch=1 n=d5 v=0
59516 On ch=1 n=g#6 v=101
59534 On ch=1 n=b6 v=0
59588 On ch=1 n=g6 v=88
59592 On ch=1 n=g#6 v=0
59638 On ch=1 n=g6 v=0
59684 On ch=1 n=g6 v=82
59685 On ch=1 n=g4 v=77
59694 Par ch=1 c=64 v=63
59709 Par ch=1 c=64 v=0
59719 On ch=1 n=g#6 v=81
59727 On ch=1 n=g6 v=0
59737 Par ch=1 c=64 v=63
59760 Par ch=1 c=64 v=127
59763 On ch=1 n=g6 v=73
59767 On ch=1 n=g#6 v=0
59813 On ch=1 n=g6 v=0
59817 On ch=1 n=f6 v=92
59865 On ch=1 n=f6 v=0
59913 On ch=1 n=f6 v=68
59974 Par ch=1 c=64 v=63
59981 Par ch=1 c=64 v=0
60090 Par ch=1 c=64 v=63
60102 Par ch=1 c=64 v=127
60113 On ch=1 n=d4 v=72
60140 On ch=1 n=g4 v=0
60223 On ch=1 n=f6 v=0
60304 On ch=1 n=b3 v=72
60339 On ch=1 n=d4 v=0
60385 Par ch=1 c=64 v=63
60408 Par ch=1 c=64 v=0
60698 On ch=1 n=d4 v=70
60743 On ch=1 n=b3 v=0
60894 On ch=1 n=g4 v=68
60946 On ch=1 n=d4 v=0
60990 On ch=1 n=f6 v=81
61036 On ch=1 n=f6 v=0
61074 On ch=1 n=f6 v=82
61118 On ch=1 n=f6 v=0
61134 Par ch=1 c=64 v=63
61150 Par ch=1 c=64 v=127
61160 On ch=1 n=f6 v=98
61200 On ch=1 n=f6 v=0
61256 On ch=1 n=f6 v=87
61266 On ch=1 n=b4 v=88
61296 On ch=1 n=f6 v=0
61319 On ch=1 n=g4 v=0
61353 On ch=1 n=f6 v=91
61412 On ch=1 n=f6 v=0
61473 On ch=1 n=d5 v=65
61478 On ch=1 n=g6 v=84
61508 On ch=1 n=b4 v=0
61578 Par ch=1 c=64 v=63
61586 On ch=1 n=f6 v=85
61592 Par ch=1 c=64 v=0
61602 On ch=1 n=g6 v=0
61682 On ch=1 n=d#6 v=100
61706 On ch=1 n=f6 v=0
61709 Par ch=1 c=64 v=63
61721 Par ch=1 c=64 v=127
61778 On ch=1 n=d6 v=90
61792 On ch=1 n=d#6 v=0
61876 On ch=1 n=c6 v=98
61896 On ch=1 n=d6 v=0
61913 On ch=1 n=d5 v=0
61952 On ch=1 n=b5 v=101
61989 On ch=1 n=c6 v=0
62057 On ch=1 n=c6 v=101
62066 On ch=1 n=b5 v=0
62144 Par ch=1 c=64 v=63
62168 Par ch=1 c=64 v=0
62454 On ch=1 n=g5 v=75
62476 On ch=1 n=c6 v=0
62659 On ch=1 n=d#5 v=82
62716 On ch=1 n=g5 v=0
63046 On ch=1 n=g5 v=78
63097 On ch=1 n=d#5 v=0
63247 On ch=1 n=c6 v=84
63298 Par ch=1 c=64 v=63
63300 On ch=1 n=g5 v=0
63304 Par ch=1 c=64 v=127
63335 On ch=1 n=g4 v=62
63367 On ch=1 n=c6 v=0
63384 On ch=1 n=g4 v=0
63434 On ch=1 n=g4 v=76
63481 On ch=1 n=g4 v=0
63511 On ch=1 n=g4 v=77
63572 On ch=1 n=g4 v=0
63616 On ch=1 n=g4 v=73
63619 On ch=1 n=d#6 v=104
63656 On ch=1 n=g4 v=0
63697 On ch=1 n=g4 v=88
63700 On ch=1 n=d#6 v=0
63740 On ch=1 n=g4 v=0
63808 On ch=1 n=g#4 v=76
63816 On ch=1 n=g6 v=82
63922 On ch=1 n=g4 v=74
63932 On ch=1 n=g#4 v=0
63961 Par ch=1 c=64 v=63
63973 Par ch=1 c=64 v=0
64017 On ch=1 n=f4 v=92
64040 On ch=1 n=g4 v=0
64082 Par ch=1 c=64 v=63
64092 Par ch=1 c=64 v=127
64102 On ch=1 n=d#4 v=96
64112 On ch=1 n=f4 v=0
64174 On ch=1 n=g6 v=0
64189 On ch=1 n=d4 v=84
64197 On ch=1 n=d#4 v=0
64258 On ch=1 n=d4 v=0
64278 On ch=1 n=c4 v=86
64321 On ch=1 n=c4 v=0
64379 On ch=1 n=c4 v=77
64381 On ch=1 n=e6 v=100
64415 Par ch=1 c=64 v=63
64429 Par ch=1 c=64 v=0
64476 On ch=1 n=a#3 v=87
64506 On ch=1 n=c4 v=0
64543 On ch=1 n=a#3 v=0
64545 Par ch=1 c=64 v=63
64554 Par ch=1 c=64 v=127
64588 On ch=1 n=a#3 v=90
64744 On ch=1 n=a#3 v=0
64782 On ch=1 n=c6 v=99
64793 On ch=1 n=e6 v=0
64998 On ch=1 n=g5 v=97
65006 Par ch=1 c=64 v=63
65034 Par ch=1 c=64 v=0
65062 On ch=1 n=c6 v=0
65403 On ch=1 n=c6 v=103
65438 On ch=1 n=g5 v=0
65602 On ch=1 n=e6 v=100
65631 On ch=1 n=c6 v=0
65695 On ch=1 n=a#4 v=91
65744 On ch=1 n=a#4 v=0
65789 On ch=1 n=a#4 v=97
65832 On ch=1 n=a#4 v=0
65843 Par ch=1 c=64 v=63
65849 Par ch=1 c=64 v=127
65871 On ch=1 n=a#4 v=88
65920 On ch=1 n=a#4 v=0
65973 On ch=1 n=a#4 v=91
65974 On ch=1 n=g6 v=109
65990 On ch=1 n=e6 v=0
66010 On ch=1 n=a#4 v=0
66057 On ch=1 n=a#4 v=94
66162 On ch=1 n=c5 v=86
66183 On ch=1 n=a#6 v=97
66197 On ch=1 n=a#4 v=0
66205 On ch=1 n=g6 v=0
66238 Par ch=1 c=64 v=63
66254 Par ch=1 c=64 v=0
66280 On ch=1 n=a#4 v=87
66299 Par ch=1 c=64 v=63
66309 On ch=1 n=c5 v=0
66311 Par ch=1 c=64 v=127
66375 On ch=1 n=g#4 v=98
66409 On ch=1 n=a#4 v=0
66453 On ch=1 n=g4 v=88
66461 Par ch=1 c=64 v=63
66467 On ch=1 n=g#4 v=0
66470 Par ch=1 c=64 v=0
66554 On ch=1 n=f4 v=98
66577 On ch=1 n=g4 v=0
66594 On ch=1 n=a#6 v=0
66639 On ch=1 n=e4 v=107
66657 On ch=1 n=f4 v=0
66736 On ch=1 n=f4 v=84
66758 On ch=1 n=e4 v=0
66824 On ch=1 n=g#6 v=96
66854 Par ch=1 c=64 v=63
66869 Par ch=1 c=64 v=127
66877 On ch=1 n=g#6 v=0
66917 On ch=1 n=g#6 v=89
66941 On ch=1 n=f4 v=0
66958 On ch=1 n=g#6 v=0
67003 On ch=1 n=g#6 v=103
67042 On ch=1 n=g#6 v=0
67095 On ch=1 n=g#6 v=104
67138 On ch=1 n=g#6 v=0
67173 On ch=1 n=g#6 v=106
67262 On ch=1 n=a#6 v=91
67277 On ch=1 n=g#6 v=0
67284 On ch=1 n=d5 v=78
67285 On ch=1 n=f5 v=82
67295 On ch=1 n=a#4 v=65
67342 Par ch=1 c=64 v=63
67352 Par ch=1 c=64 v=0
67362 On ch=1 n=g#6 v=104
67390 On ch=1 n=a#6 v=0
67418 Par ch=1 c=64 v=63
67429 Par ch=1 c=64 v=127
67431 On ch=1 n=f5 v=0
67455 On ch=1 n=g6 v=97
67466 On ch=1 n=d#5 v=86
67466 On ch=1 n=g5 v=79
67495 On ch=1 n=d5 v=0
67513 On ch=1 n=g#6 v=0
67536 On ch=1 n=f6 v=81
67545 On ch=1 n=g6 v=0
67565 On ch=1 n=d#5 v=0
67569 On ch=1 n=g5 v=0
67635 On ch=1 n=d#6 v=100
67641 On ch=1 n=g#5 v=57
67641 On ch=1 n=f5 v=57
67650 On ch=1 n=f6 v=0
67710 Par ch=1 c=64 v=63
67720 On ch=1 n=d6 v=76
67720 Par ch=1 c=64 v=0
67740 On ch=1 n=d#6 v=0
67792 On ch=1 n=d6 v=0
67796 On ch=1 n=g#5 v=0
67815 On ch=1 n=g5 v=62
67817 On ch=1 n=f5 v=0
67823 On ch=1 n=a#4 v=0
67823 On ch=1 n=d#5 v=66
67911 On ch=1 n=g6 v=78
67964 On ch=1 n=g6 v=0
67972 Par ch=1 c=64 v=63
67979 Par ch=1 c=64 v=127
68008 On ch=1 n=g6 v=86
68050 On ch=1 n=g6 v=0
68055 On ch=1 n=g5 v=0
68083 On ch=1 n=d#5 v=0
68092 On ch=1 n=g6 v=99
68138 On ch=1 n=g6 v=0
68178 On ch=1 n=g6 v=96
68218 On ch=1 n=g6 v=0
68260 On ch=1 n=g6 v=111
68335 On ch=1 n=g6 v=0
68361 On ch=1 n=d#5 v=94
68365 On ch=1 n=c5 v=85
68366 On ch=1 n=g#4 v=74
68376 On ch=1 n=g#6 v=100
68411 Par ch=1 c=64 v=63
68417 Par ch=1 c=64 v=0
68460 On ch=1 n=g6 v=93
68483 Par ch=1 c=64 v=63
68492 Par ch=1 c=64 v=127
68504 On ch=1 n=g#6 v=0
68521 On ch=1 n=d#5 v=0
68556 On ch=1 n=f6 v=86
68560 On ch=1 n=d5 v=81
68561 On ch=1 n=g6 v=0
68561 On ch=1 n=f5 v=75
68633 On ch=1 n=d#6 v=100
68635 On ch=1 n=c5 v=0
68647 On ch=1 n=f6 v=0
68650 On ch=1 n=d5 v=0
68666 On ch=1 n=f5 v=0
68728 On ch=1 n=g5 v=76
68735 On ch=1 n=d6 v=81
68739 On ch=1 n=d#5 v=63
68753 On ch=1 n=d#6 v=0
68777 Par ch=1 c=64 v=63
68784 Par ch=1 c=64 v=0
68825 On ch=1 n=c6 v=89
68831 On ch=1 n=d6 v=0
68841 On ch=1 n=g5 v=0
68896 On ch=1 n=c6 v=0
68900 On ch=1 n=g#4 v=0
68911 On ch=1 n=d#5 v=0
68913 On ch=1 n=d5 v=74
68918 On ch=1 n=f5 v=63
69008 On ch=1 n=f6 v=83
69050 On ch=1 n=f6 v=0
69100 On ch=1 n=f6 v=87
69145 On ch=1 n=f6 v=0
69169 Par ch=1 c=64 v=63
69176 Par ch=1 c=64 v=127
69177 On ch=1 n=f5 v=0
69186 On ch=1 n=f6 v=87
69198 On ch=1 n=d5 v=0
69228 On ch=1 n=f6 v=0
69274 Par ch=1 c=64 v=63
69277 Par ch=1 c=64 v=0
69278 On ch=1 n=f6 v=87
69319 On ch=1 n=f6 v=0
69338 Par ch=1 c=64 v=63
69342 Par ch=1 c=64 v=127
69357 On ch=1 n=f6 v=80
69415 Par ch=1 c=64 v=63
69420 Par ch=1 c=64 v=0
69422 On ch=1 n=f6 v=0
69451 On ch=1 n=d5 v=84
69454 On ch=1 n=b4 v=79
69460 On ch=1 n=g4 v=65
69461 Par ch=1 c=64 v=63
69462 On ch=1 n=g6 v=82
69466 Par ch=1 c=64 v=127
69548 On ch=1 n=f6 v=90
69563 On ch=1 n=d5 v=0
69581 On ch=1 n=b4 v=0
69583 On ch=1 n=g6 v=0
69642 On ch=1 n=d#6 v=104
69653 On ch=1 n=d#5 v=87
69660 On ch=1 n=c5 v=50
69669 On ch=1 n=f6 v=0
69727 On ch=1 n=c5 v=0
69729 On ch=1 n=d6 v=94
69745 On ch=1 n=d#6 v=0
69749 On ch=1 n=d#5 v=0
69801 On ch=1 n=d6 v=0
69822 On ch=1 n=d5 v=73
69826 On ch=1 n=c6 v=100
69827 On ch=1 n=f5 v=71
69874 Par ch=1 c=64 v=63
69882 On ch=1 n=d5 v=0
69900 On ch=1 n=b5 v=97
69908 Par ch=1 c=64 v=127
69920 On ch=1 n=c6 v=0
69923 On ch=1 n=g4 v=0
69965 On ch=1 n=f5 v=0
69972 Par ch=1 c=64 v=63
69978 Par ch=1 c=64 v=0
69984 On ch=1 n=b5 v=0
69994 On ch=1 n=d#5 v=73
69994 On ch=1 n=f6 v=88
69999 On ch=1 n=c5 v=68
70070 Par ch=1 c=64 v=63
70077 Par ch=1 c=64 v=127
70085 On ch=1 n=d#6 v=97
70124 On ch=1 n=f6 v=0
70139 On ch=1 n=d#5 v=0
70148 On ch=1 n=c5 v=0
70181 On ch=1 n=d6 v=99
70216 On ch=1 n=d#6 v=0
70262 On ch=1 n=c6 v=97
70276 On ch=1 n=d6 v=0
70340 On ch=1 n=d#5 v=96
70344 On ch=1 n=f4 v=86
70350 On ch=1 n=a#5 v=108
70351 Par ch=1 c=64 v=63
70361 On ch=1 n=c6 v=0
70389 Par ch=1 c=64 v=127
70418 On ch=1 n=a#5 v=0
70428 On ch=1 n=a5 v=100
70478 On ch=1 n=a5 v=0
70483 On ch=1 n=d#5 v=0
70521 On ch=1 n=f4 v=0
70528 On ch=1 n=d5 v=78
70533 On ch=1 n=g4 v=59
70535 On ch=1 n=c7 v=84
70578 Par ch=1 c=64 v=63
70589 Par ch=1 c=64 v=0
70634 On ch=1 n=a#6 v=88
70644 On ch=1 n=c7 v=0
70648 Par ch=1 c=64 v=63
70659 Par ch=1 c=64 v=127
70703 On ch=1 n=g4 v=0
70713 On ch=1 n=d5 v=0
70721 On ch=1 n=a6 v=102
70761 On ch=1 n=a#6 v=0
70797 On ch=1 n=g6 v=99
70819 On ch=1 n=a6 v=0
70821 Par ch=1 c=64 v=63
70831 Par ch=1 c=64 v=0
70888 On ch=1 n=f6 v=103
70897 On ch=1 n=a#5 v=76
70901 On ch=1 n=g5 v=61
70906 On ch=1 n=g6 v=0
70914 Par ch=1 c=64 v=63
70924 Par ch=1 c=64 v=127
70969 On ch=1 n=e6 v=94
70970 Par ch=1 c=64 v=63
70979 Par ch=1 c=64 v=0
70991 On ch=1 n=f6 v=0
71009 On ch=1 n=a#5 v=0
71024 On ch=1 n=g5 v=0
71043 On ch=1 n=e6 v=0
71065 On ch=1 n=f6 v=94
71137 Par ch=1 c=64 v=63
71146 Par ch=1 c=64 v=127
71166 On ch=1 n=f5 v=61
71197 On ch=1 n=f5 v=0
71229 On ch=1 n=f6 v=0
71248 On ch=1 n=f5 v=69
71286 On ch=1 n=f5 v=0
71335 On ch=1 n=f5 v=89
71385 On ch=1 n=f5 v=0
71431 On ch=1 n=f5 v=89
71438 On ch=1 n=a5 v=71
71439 On ch=1 n=d#6 v=88
71474 On ch=1 n=f5 v=0
71489 On ch=1 n=a5 v=0
71489 On ch=1 n=d#6 v=0
71507 On ch=1 n=f5 v=90
71607 On ch=1 n=f#5 v=100
71609 On ch=1 n=f5 v=0
71611 On ch=1 n=a#5 v=67
71614 On ch=1 n=c#6 v=80
71661 Par ch=1 c=64 v=63
71672 Par ch=1 c=64 v=0
71714 On ch=1 n=f5 v=86
71732 On ch=1 n=f#5 v=0
71735 Par ch=1 c=64 v=63
71746 Par ch=1 c=64 v=127
71766 On ch=1 n=a#5 v=0
71807 On ch=1 n=d#5 v=89
71811 On ch=1 n=c#6 v=0
71820 On ch=1 n=f5 v=0
71889 On ch=1 n=c#5 v=95
71892 Par ch=1 c=64 v=63
71901 Par ch=1 c=64 v=0
71911 On ch=1 n=d#5 v=0
71978 Par ch=1 c=64 v=63
71980 On ch=1 n=c#5 v=0
71980 On ch=1 n=a#6 v=93
71981 On ch=1 n=c#6 v=90
71986 On ch=1 n=c5 v=73
71988 Par ch=1 c=64 v=127
72072 On ch=1 n=a#4 v=73
72079 On ch=1 n=c5 v=0
72089 On ch=1 n=a#6 v=0
72092 On ch=1 n=c#6 v=0
72121 Par ch=1 c=64 v=63
72123 On ch=1 n=a#4 v=0
72129 Par ch=1 c=64 v=0
72177 On ch=1 n=a6 v=67
72180 On ch=1 n=c6 v=54
72217 Par ch=1 c=64 v=63
72228 Par ch=1 c=64 v=127
72272 On ch=1 n=f4 v=76
72286 On ch=1 n=a6 v=0
72308 On ch=1 n=c6 v=0
72316 On ch=1 n=f4 v=0
72363 On ch=1 n=f4 v=85
72391 Par ch=1 c=64 v=63
72399 Par ch=1 c=64 v=0
72405 On ch=1 n=f4 v=0
72439 On ch=1 n=f4 v=69
72489 On ch=1 n=f4 v=0
72510 Par ch=1 c=64 v=63
72517 Par ch=1 c=64 v=127
72546 On ch=1 n=d#5 v=91
72547 On ch=1 n=a5 v=80
72548 On ch=1 n=f4 v=83
72585 On ch=1 n=f4 v=0
72600 On ch=1 n=a5 v=0
72603 On ch=1 n=d#5 v=0
72625 On ch=1 n=f4 v=86
72657 On ch=1 n=f4 v=0
72727 On ch=1 n=f#4 v=72
72735 On ch=1 n=c#5 v=77
72743 On ch=1 n=a#5 v=76
72769 Par ch=1 c=64 v=63
72779 Par ch=1 c=64 v=0
72803 On ch=1 n=f#4 v=0
72813 On ch=1 n=f4 v=66
72825 Par ch=1 c=64 v=63
72840 Par ch=1 c=64 v=127
72902 On ch=1 n=a#5 v=0
72907 On ch=1 n=d#4 v=74
72918 On ch=1 n=f4 v=0
72939 On ch=1 n=c#5 v=0
73001 On ch=1 n=c#4 v=72
73008 On ch=1 n=d#4 v=0
73086 On ch=1 n=c#4 v=0
73091 On ch=1 n=c#5 v=75
73095 On ch=1 n=a#4 v=50
73101 On ch=1 n=c4 v=57
73101 Par ch=1 c=64 v=63
73119 Par ch=1 c=64 v=0
73130 Par ch=1 c=64 v=63
73169 Par ch=1 c=64 v=127
73188 On ch=1 n=a#3 v=54
73217 On ch=1 n=c4 v=0
73240 On ch=1 n=a#4 v=0
73280 Par ch=1 c=64 v=63
73290 Par ch=1 c=64 v=0
73298 On ch=1 n=f3 v=63
73301 On ch=1 n=a#3 v=0
73311 On ch=1 n=a4 v=63
73313 On ch=1 n=c#5 v=0
73317 On ch=1 n=c5 v=72
73368 Par ch=1 c=64 v=63
73378 Par ch=1 c=64 v=127
73428 On ch=1 n=a4 v=0
73438 On ch=1 n=f5 v=69
73450 On ch=1 n=c5 v=0
73496 On ch=1 n=f3 v=0
73504 On ch=1 n=f5 v=0
73536 On ch=1 n=f5 v=80
73581 On ch=1 n=f5 v=0
73614 On ch=1 n=f5 v=79
73665 On ch=1 n=f5 v=0
73702 On ch=1 n=f5 v=86
73747 On ch=1 n=f5 v=0
73786 On ch=1 n=f5 v=94
73846 On ch=1 n=f5 v=0
73889 On ch=1 n=d#5 v=92
73891 On ch=1 n=e5 v=91
73896 On ch=1 n=f4 v=57
73899 On ch=1 n=a4 v=66
73999 Par ch=1 c=64 v=63
74004 On ch=1 n=f5 v=86
74023 Par ch=1 c=64 v=0
74032 On ch=1 n=e5 v=0
74099 On ch=1 n=g5 v=84
74127 On ch=1 n=f5 v=0
74170 On ch=1 n=g5 v=0
74176 On ch=1 n=f5 v=76
74210 Par ch=1 c=64 v=63
74215 Par ch=1 c=64 v=127
74275 On ch=1 n=a#5 v=90
74284 On ch=1 n=f5 v=0
74359 On ch=1 n=a#5 v=0
74365 On ch=1 n=a5 v=83
74469 On ch=1 n=d6 v=96
74481 On ch=1 n=a5 v=0
74492 Par ch=1 c=64 v=63
74506 Par ch=1 c=64 v=0
74550 Par ch=1 c=64 v=63
74565 On ch=1 n=c6 v=98
74567 Par ch=1 c=64 v=127
74573 On ch=1 n=d6 v=0
74670 On ch=1 n=d#6 v=109
74713 On ch=1 n=c6 v=0
74736 Par ch=1 c=64 v=63
74759 Par ch=1 c=64 v=0
74761 On ch=1 n=d6 v=104
74786 Par ch=1 c=64 v=63
74809 On ch=1 n=d#6 v=0
74809 Par ch=1 c=64 v=127
74887 On ch=1 n=g6 v=88
74903 Par ch=1 c=64 v=63
74913 Par ch=1 c=64 v=0
74937 On ch=1 n=d6 v=0
74984 Par ch=1 c=64 v=63
74995 Par ch=1 c=64 v=127
75009 On ch=1 n=f6 v=102
75069 On ch=1 n=g6 v=0
75149 On ch=1 n=f6 v=0
75179 On ch=1 n=f6 v=90
75334 Par ch=1 c=64 v=63
75344 Par ch=1 c=64 v=0
75661 On ch=1 n=e6 v=72
75671 On ch=1 n=f6 v=0
75730 Par ch=1 c=64 v=63
75745 Par ch=1 c=64 v=127
75793 On ch=1 n=d#6 v=80
75819 On ch=1 n=f4 v=0
75824 On ch=1 n=e6 v=0
75848 On ch=1 n=d#5 v=0
75853 On ch=1 n=a4 v=0
75899 On ch=1 n=c6 v=79
75905 On ch=1 n=d#6 v=0
76010 On ch=1 n=a#5 v=70
76012 On ch=1 n=a#4 v=71
76024 Par ch=1 c=64 v=63
76025 On ch=1 n=c6 v=0
76036 Par ch=1 c=64 v=0
76123 Par ch=1 c=64 v=63
76132 Par ch=1 c=64 v=127
76270 Par ch=1 c=64 v=63
76300 Par ch=1 c=64 v=0
76383 On ch=1 n=f5 v=71
76391 On ch=1 n=f4 v=63
76398 On ch=1 n=a#5 v=0
76415 On ch=1 n=a#4 v=0
76578 On ch=1 n=d4 v=71
76585 On ch=1 n=d5 v=76
76617 On ch=1 n=f5 v=0
76635 On ch=1 n=f4 v=0
76941 On ch=1 n=f5 v=62
76942 On ch=1 n=f4 v=60
76949 On ch=1 n=d4 v=0
76959 On ch=1 n=d5 v=0
77128 On ch=1 n=a#4 v=61
77138 On ch=1 n=a#5 v=78
77147 On ch=1 n=f5 v=0
77200 On ch=1 n=f4 v=0
77287 Par ch=1 c=64 v=63
77292 Par ch=1 c=64 v=127
77322 On ch=1 n=a#5 v=0
77502 On ch=1 n=a#4 v=0
77510 On ch=1 n=d6 v=69
77512 On ch=1 n=d5 v=53
77645 Par ch=1 c=64 v=63
77687 Par ch=1 c=64 v=0
77696 On ch=1 n=f6 v=63
77707 On ch=1 n=d6 v=0
77708 On ch=1 n=f5 v=38
77732 On ch=1 n=d5 v=0
77895 On ch=1 n=f6 v=0
77900 On ch=1 n=f5 v=0
78047 Par ch=1 c=64 v=63
78063 Par ch=1 c=64 v=127
78072 On ch=1 n=a#6 v=73
78167 On ch=1 n=d6 v=80
78177 On ch=1 n=a#6 v=0
78257 On ch=1 n=f6 v=91
78264 On ch=1 n=d6 v=0
78266 On ch=1 n=d#5 v=49
78274 On ch=1 n=f4 v=43
78280 On ch=1 n=c5 v=60
78343 On ch=1 n=d#6 v=96
78349 Par ch=1 c=64 v=63
78361 On ch=1 n=f6 v=0
78368 Par ch=1 c=64 v=0
78431 On ch=1 n=d6 v=82
78455 On ch=1 n=d#6 v=0
78510 On ch=1 n=c6 v=82
78514 On ch=1 n=d6 v=0
78598 On ch=1 n=a#5 v=95
78607 On ch=1 n=c6 v=0
78680 On ch=1 n=a5 v=84
78698 On ch=1 n=a#5 v=0
78768 On ch=1 n=g5 v=89
78784 On ch=1 n=a5 v=0
78845 On ch=1 n=f5 v=83
78850 On ch=1 n=g5 v=0
78924 On ch=1 n=f5 v=0
78954 On ch=1 n=e5 v=80
79017 On ch=1 n=e5 v=0
79022 On ch=1 n=f5 v=75
79109 On ch=1 n=g5 v=82
79115 On ch=1 n=f5 v=0
79177 On ch=1 n=d#5 v=0
79193 On ch=1 n=a5 v=77
79197 On ch=1 n=g5 v=0
79230 On ch=1 n=f4 v=0
79262 On ch=1 n=a#4 v=53
79268 On ch=1 n=d5 v=49
79273 On ch=1 n=a5 v=0
79273 On ch=1 n=a#5 v=81
79277 On ch=1 n=c5 v=0
79310 On ch=1 n=a#5 v=0
79374 On ch=1 n=c6 v=72
79404 On ch=1 n=a#5 v=78
79413 On ch=1 n=c6 v=0
79432 On ch=1 n=a#5 v=0
79437 On ch=1 n=a5 v=82
79456 On ch=1 n=a#5 v=89
79467 On ch=1 n=a5 v=0
79497 On ch=1 n=a#5 v=0
79546 On ch=1 n=c6 v=81
79627 On ch=1 n=d5 v=0
79631 On ch=1 n=c6 v=0
79636 On ch=1 n=d6 v=90
79664 On ch=1 n=a#4 v=0
79698 On ch=1 n=d6 v=0
79722 On ch=1 n=d#6 v=98
79792 On ch=1 n=d#6 v=0
79822 On ch=1 n=e6 v=98
79916 On ch=1 n=f6 v=101
79935 On ch=1 n=e6 v=0
80003 On ch=1 n=g6 v=99
80027 On ch=1 n=f6 v=0
80083 On ch=1 n=f6 v=100
80114 On ch=1 n=g6 v=0
80173 On ch=1 n=a#6 v=98
80192 On ch=1 n=f6 v=0
80254 On ch=1 n=d6 v=98
80278 On ch=1 n=a#6 v=0
80347 On ch=1 n=f6 v=99
80357 On ch=1 n=d#5 v=88
80360 On ch=1 n=d6 v=0
80361 On ch=1 n=c5 v=81
80361 On ch=1 n=f4 v=71
80434 On ch=1 n=d#6 v=101
80459 On ch=1 n=f6 v=0
80518 On ch=1 n=d6 v=85
80540 On ch=1 n=d#6 v=0
80594 On ch=1 n=d6 v=0
80598 On ch=1 n=c6 v=83
80686 On ch=1 n=a#5 v=92
80700 On ch=1 n=c6 v=0
80769 On ch=1 n=a5 v=76
80784 On ch=1 n=a#5 v=0
80855 On ch=1 n=g5 v=86
80862 On ch=1 n=a5 v=0
80937 On ch=1 n=g5 v=0
80937 On ch=1 n=f5 v=76
81038 On ch=1 n=f5 v=0
81038 On ch=1 n=e5 v=71
81116 On ch=1 n=e5 v=0
81125 On ch=1 n=f5 v=76
81213 On ch=1 n=g5 v=76
81217 On ch=1 n=f5 v=0
81252 On ch=1 n=f4 v=0
81271 On ch=1 n=d#5 v=0
81293 On ch=1 n=a5 v=76
81297 On ch=1 n=g5 v=0
81363 On ch=1 n=a5 v=0
81387 On ch=1 n=a#5 v=87
81396 On ch=1 n=a#4 v=49
81397 On ch=1 n=d5 v=53
81407 On ch=1 n=c5 v=0
81412 On ch=1 n=a#5 v=0
81418 On ch=1 n=a#4 v=0
81430 On ch=1 n=d5 v=0
81577 On ch=1 n=d5 v=80
81580 On ch=1 n=a#4 v=72
81580 On ch=1 n=a#5 v=80
81599 On ch=1 n=a#5 v=0
81602 On ch=1 n=d5 v=0
81607 On ch=1 n=a#4 v=0
81764 On ch=1 n=f5 v=73
81767 On ch=1 n=a#4 v=67
81771 On ch=1 n=d6 v=72
81794 On ch=1 n=a#4 v=0
81795 On ch=1 n=d6 v=0
81799 On ch=1 n=f5 v=0
81965 On ch=1 n=a#5 v=83
81971 On ch=1 n=d5 v=55
81972 On ch=1 n=a#4 v=50
82002 Par ch=1 c=64 v=63
82024 On ch=1 n=a#5 v=0
82031 On ch=1 n=d5 v=0
82037 On ch=1 n=a#4 v=0
82049 Par ch=1 c=64 v=127
82112 Par ch=1 c=64 v=63
82118 Par ch=1 c=64 v=0
82281 On ch=1 n=a#5 v=115
82290 Par ch=1 c=64 v=127
82314 On ch=1 n=a#5 v=0
82320 On ch=1 n=c6 v=96
82360 On ch=1 n=a#5 v=85
82368 On ch=1 n=c6 v=0
82371 Par ch=1 c=64 v=63
82374 Par ch=1 c=64 v=0
82397 On ch=1 n=a#5 v=0
82403 On ch=1 n=a5 v=86
82436 On ch=1 n=a#5 v=85
82445 Par ch=1 c=64 v=63
82447 On ch=1 n=a5 v=0
82447 Par ch=1 c=64 v=127
82470 On ch=1 n=a#5 v=0
82488 On ch=1 n=g6 v=120
82604 On ch=1 n=g6 v=0
82666 On ch=1 n=g4 v=97
82666 On ch=1 n=a#4 v=99
82668 On ch=1 n=d#4 v=97
82689 On ch=1 n=g4 v=0
82695 On ch=1 n=a#4 v=0
82700 On ch=1 n=d#4 v=0
82782 Par ch=1 c=64 v=63
82786 Par ch=1 c=64 v=0
82828 On ch=1 n=a#5 v=114
82863 On ch=1 n=a#5 v=0
82868 On ch=1 n=c6 v=86
82902 On ch=1 n=a#5 v=78
82911 On ch=1 n=c6 v=0
82933 On ch=1 n=a#5 v=0
82947 On ch=1 n=a5 v=74
82980 On ch=1 n=a#5 v=77
82991 On ch=1 n=a5 v=0
83016 On ch=1 n=a#5 v=0
83036 On ch=1 n=f6 v=118
83052 Par ch=1 c=64 v=63
83053 Par ch=1 c=64 v=127
83185 On ch=1 n=f6 v=0
83225 On ch=1 n=a#4 v=109
83225 On ch=1 n=d4 v=101
83227 On ch=1 n=f4 v=99
83258 On ch=1 n=a#4 v=0
83258 On ch=1 n=d4 v=0
83260 On ch=1 n=f4 v=0
83359 On ch=1 n=a#5 v=104
83368 Par ch=1 c=64 v=63
83371 Par ch=1 c=64 v=0
83401 On ch=1 n=a#5 v=0
83405 On ch=1 n=c6 v=84
83443 On ch=1 n=a#5 v=81
83455 On ch=1 n=c6 v=0
83478 On ch=1 n=a#5 v=0
83485 On ch=1 n=a5 v=75
83527 On ch=1 n=a#5 v=79
83537 On ch=1 n=a5 v=0
83579 On ch=1 n=a#5 v=0
83594 On ch=1 n=c6 v=86
83604 On ch=1 n=f5 v=69
83606 On ch=1 n=a4 v=60
83693 Par ch=1 c=64 v=63
83707 Par ch=1 c=64 v=127
83801 On ch=1 n=f6 v=71
83844 On ch=1 n=c6 v=0
83950 Par ch=1 c=64 v=63
83961 Par ch=1 c=64 v=0
83990 On ch=1 n=d#6 v=71
84017 On ch=1 n=f6 v=0
84168 On ch=1 n=c#6 v=80
84168 On ch=1 n=a#4 v=54
84182 On ch=1 n=d#6 v=0
84218 On ch=1 n=a4 v=0
84375 On ch=1 n=d6 v=55
84384 On ch=1 n=c#6 v=0
84394 Par ch=1 c=64 v=63
84404 Par ch=1 c=64 v=127
84413 On ch=1 n=d6 v=0
84417 Par ch=1 c=64 v=63
84429 Par ch=1 c=64 v=0
84454 On ch=1 n=f5 v=0
84475 On ch=1 n=a#4 v=0
84522 On ch=1 n=a#5 v=116
84553 On ch=1 n=c6 v=96
84557 On ch=1 n=a#5 v=0
84591 On ch=1 n=a#5 v=92
84603 On ch=1 n=c6 v=0
84628 On ch=1 n=a#5 v=0
84636 On ch=1 n=a5 v=88
84674 On ch=1 n=a#5 v=79
84688 On ch=1 n=a5 v=0
84709 On ch=1 n=a#5 v=0
84720 Par ch=1 c=64 v=63
84721 Par ch=1 c=64 v=127
84727 On ch=1 n=g6 v=120
84819 On ch=1 n=g6 v=0
84917 On ch=1 n=a#4 v=110
84917 On ch=1 n=g4 v=103
84920 On ch=1 n=d#4 v=100
84945 On ch=1 n=g4 v=0
84947 On ch=1 n=a#4 v=0
84947 On ch=1 n=d#4 v=0
85061 Par ch=1 c=64 v=63
85065 Par ch=1 c=64 v=0
85079 On ch=1 n=a#5 v=118
85113 On ch=1 n=a#5 v=0
85122 On ch=1 n=c6 v=94
85154 On ch=1 n=a#5 v=86
85160 On ch=1 n=c6 v=0
85191 On ch=1 n=a#5 v=0
85198 On ch=1 n=a5 v=86
85239 On ch=1 n=a#5 v=79
85249 On ch=1 n=a5 v=0
85267 Par ch=1 c=64 v=63
85268 Par ch=1 c=64 v=127
85269 On ch=1 n=a#5 v=0
85278 On ch=1 n=f6 v=118
85431 On ch=1 n=f6 v=0
85468 On ch=1 n=d4 v=100
85470 On ch=1 n=a#4 v=107
85471 On ch=1 n=f4 v=100
85497 On ch=1 n=d4 v=0
85505 On ch=1 n=f4 v=0
85510 On ch=1 n=a#4 v=0
85597 On ch=1 n=a#5 v=103
85639 On ch=1 n=a#5 v=0
85643 On ch=1 n=c6 v=88
85647 Par ch=1 c=64 v=63
85653 Par ch=1 c=64 v=0
85680 On ch=1 n=a#5 v=84
85696 On ch=1 n=c6 v=0
85714 On ch=1 n=a5 v=78
85718 On ch=1 n=a#5 v=0
85759 On ch=1 n=a#5 v=90
85770 On ch=1 n=a5 v=0
85809 On ch=1 n=c6 v=85
85812 On ch=1 n=a4 v=60
85818 On ch=1 n=a#5 v=0
85824 On ch=1 n=f4 v=47
86011 On ch=1 n=d#6 v=80
86015 On ch=1 n=c5 v=71
86026 On ch=1 n=c6 v=0
86040 On ch=1 n=a4 v=0
86197 On ch=1 n=a5 v=74
86204 On ch=1 n=d#6 v=0
86218 On ch=1 n=d#5 v=68
86247 On ch=1 n=c5 v=0
86363 On ch=1 n=d#5 v=0
86392 On ch=1 n=a#5 v=71
86393 On ch=1 n=f4 v=0
86394 On ch=1 n=a#4 v=57
86409 On ch=1 n=a5 v=0
86410 On ch=1 n=d5 v=50
86587 On ch=1 n=a#5 v=0
86592 On ch=1 n=a#4 v=0
86593 On ch=1 n=d5 v=0
86955 Par ch=1 c=64 v=63
86955 Par ch=1 c=64 v=127
86960 On ch=1 n=g6 v=116
86961 On ch=1 n=d6 v=116
86961 On ch=1 n=a#5 v=125
86965 On ch=1 n=g4 v=122
86989 On ch=1 n=a#5 v=0
86993 On ch=1 n=g6 v=0
86995 On ch=1 n=d6 v=0
87000 On ch=1 n=g4 v=0
87152 On ch=1 n=g5 v=121
87155 On ch=1 n=g3 v=126
87189 On ch=1 n=g5 v=0
87221 On ch=1 n=g3 v=0
87262 Par ch=1 c=64 v=63
87267 Par ch=1 c=64 v=0
87518 Par ch=1 c=64 v=63
87519 On ch=1 n=d6 v=117
87520 Par ch=1 c=64 v=127
87521 On ch=1 n=a5 v=108
87522 On ch=1 n=f#5 v=116
87525 On ch=1 n=d4 v=126
87554 On ch=1 n=f#5 v=0
87559 On ch=1 n=a5 v=0
87561 On ch=1 n=d6 v=0
87567 On ch=1 n=d4 v=0
87738 On ch=1 n=d3 v=125
87739 On ch=1 n=d5 v=118
87781 On ch=1 n=d5 v=0
87837 On ch=1 n=d3 v=0
87899 Par ch=1 c=64 v=63
87944 Par ch=1 c=64 v=0
88326 On ch=1 n=d#5 v=60
88345 On ch=1 n=d#4 v=44
88352 On ch=1 n=g4 v=41
88368 Par ch=1 c=64 v=63
88383 Par ch=1 c=64 v=127
88461 On ch=1 n=a#4 v=43
88498 On ch=1 n=g4 v=0
88558 On ch=1 n=g4 v=54
88566 On ch=1 n=a#4 v=0
88634 On ch=1 n=a#4 v=60
88650 On ch=1 n=g4 v=0
88699 On ch=1 n=d#5 v=0
88725 On ch=1 n=f5 v=68
88729 On ch=1 n=a#4 v=0
88731 On ch=1 n=g4 v=48
88768 On ch=1 n=d#5 v=69
88775 On ch=1 n=f5 v=0
88795 On ch=1 n=d#4 v=0
88796 On ch=1 n=a#4 v=57
88800 On ch=1 n=g4 v=0
88804 On ch=1 n=d#5 v=0
88809 On ch=1 n=d5 v=74
88856 On ch=1 n=d#5 v=84
88866 On ch=1 n=d5 v=0
88901 On ch=1 n=d#5 v=0
88913 On ch=1 n=g#4 v=70
88915 On ch=1 n=c6 v=85
88916 Par ch=1 c=64 v=63
88922 On ch=1 n=d4 v=49
88928 On ch=1 n=a#4 v=0
88931 Par ch=1 c=64 v=0
89005 Par ch=1 c=64 v=63
89013 On ch=1 n=a#4 v=62
89016 On ch=1 n=a#5 v=91
89021 On ch=1 n=c6 v=0
89025 Par ch=1 c=64 v=127
89037 On ch=1 n=g#4 v=0
89079 On ch=1 n=a#5 v=0
89110 On ch=1 n=a#5 v=80
89125 On ch=1 n=a#4 v=0
89126 On ch=1 n=g#4 v=53
89180 Par ch=1 c=64 v=63
89208 On ch=1 n=a#4 v=52
89219 On ch=1 n=g#4 v=0
89235 Par ch=1 c=64 v=127
89273 On ch=1 n=a#5 v=0
89302 On ch=1 n=a#5 v=94
89308 On ch=1 n=g#4 v=58
89312 On ch=1 n=a#4 v=0
89381 On ch=1 n=a#4 v=65
89383 On ch=1 n=g#4 v=0
89387 On ch=1 n=a#5 v=0
89473 On ch=1 n=d4 v=0
89489 On ch=1 n=a#4 v=0
89489 On ch=1 n=a#5 v=78
89492 On ch=1 n=g4 v=51
89498 On ch=1 n=d#4 v=53
89529 Par ch=1 c=64 v=63
89551 Par ch=1 c=64 v=0
89575 On ch=1 n=d#6 v=88
89580 On ch=1 n=a#4 v=65
89590 On ch=1 n=a#5 v=0
89609 On ch=1 n=g4 v=0
89673 On ch=1 n=d6 v=86
89684 On ch=1 n=g4 v=59
89692 On ch=1 n=a#4 v=0
89713 On ch=1 n=d#6 v=0
89747 On ch=1 n=c#6 v=95
89759 On ch=1 n=a#4 v=65
89782 On ch=1 n=d6 v=0
89785 On ch=1 n=g4 v=0
89837 On ch=1 n=c6 v=85
89849 On ch=1 n=c#6 v=0
89856 On ch=1 n=a#4 v=0
89857 On ch=1 n=g4 v=55
89920 On ch=1 n=b5 v=84
89920 On ch=1 n=a#4 v=68
89930 On ch=1 n=c6 v=0
89930 On ch=1 n=g4 v=0
89944 On ch=1 n=d#4 v=0
90018 On ch=1 n=a#5 v=75
90027 On ch=1 n=g#4 v=63
90028 On ch=1 n=b5 v=0
90031 On ch=1 n=a#4 v=0
90032 On ch=1 n=d4 v=43
90115 On ch=1 n=a#4 v=51
90139 On ch=1 n=g#4 v=0
90225 On ch=1 n=g#4 v=65
90233 On ch=1 n=a#4 v=0
90302 On ch=1 n=a#4 v=49
90320 On ch=1 n=g#4 v=0
90374 On ch=1 n=a#5 v=0
90404 On ch=1 n=g#4 v=63
90407 On ch=1 n=a#4 v=0
90484 On ch=1 n=g#4 v=0
90486 On ch=1 n=a#4 v=49
90580 On ch=1 n=d4 v=0
90592 On ch=1 n=d#5 v=88
90595 On ch=1 n=g4 v=50
90603 On ch=1 n=a#4 v=0
90612 On ch=1 n=d#4 v=46
90639 Par ch=1 c=64 v=63
90655 Par ch=1 c=64 v=127
90686 On ch=1 n=a#4 v=63
90708 On ch=1 n=g4 v=0
90790 On ch=1 n=a#4 v=0
90793 On ch=1 n=g4 v=59
90865 On ch=1 n=a#4 v=66
90875 On ch=1 n=g4 v=0
90915 On ch=1 n=d#5 v=0
90943 On ch=1 n=a#4 v=0
90954 On ch=1 n=g4 v=46
90969 On ch=1 n=f5 v=59
90998 On ch=1 n=f5 v=0
91002 On ch=1 n=d#5 v=68
91013 On ch=1 n=d#4 v=0
91019 On ch=1 n=a#4 v=71
91034 On ch=1 n=g4 v=0
91039 On ch=1 n=d#5 v=0
91041 On ch=1 n=d5 v=81
91078 On ch=1 n=d#5 v=81
91094 On ch=1 n=d5 v=0
91112 On ch=1 n=a#4 v=0
91122 On ch=1 n=f4 v=68
91129 On ch=1 n=d#5 v=0
91129 On ch=1 n=d4 v=50
91131 On ch=1 n=c6 v=87
91151 Par ch=1 c=64 v=63
91170 Par ch=1 c=64 v=0
91217 On ch=1 n=g#4 v=74
91226 On ch=1 n=f4 v=0
91228 On ch=1 n=b5 v=99
91245 Par ch=1 c=64 v=63
91255 On ch=1 n=c6 v=0
91261 Par ch=1 c=64 v=127
91288 On ch=1 n=b5 v=0
91308 On ch=1 n=g#4 v=0
91309 On ch=1 n=f4 v=72
91314 On ch=1 n=b5 v=97
91335 Par ch=1 c=64 v=63
91384 On ch=1 n=g#4 v=85
91401 On ch=1 n=f4 v=0
91409 Par ch=1 c=64 v=127
91463 On ch=1 n=b5 v=0
91489 On ch=1 n=g#4 v=0
91489 On ch=1 n=b5 v=96
91494 On ch=1 n=f4 v=72
91557 On ch=1 n=b5 v=0
91565 On ch=1 n=g#4 v=84
91574 On ch=1 n=d4 v=0
91583 On ch=1 n=f4 v=0
91676 On ch=1 n=g#4 v=0
91680 On ch=1 n=c6 v=97
91681 On ch=1 n=g4 v=71
91688 On ch=1 n=d#4 v=64
91717 Par ch=1 c=64 v=63
91744 Par ch=1 c=64 v=0
91766 On ch=1 n=g6 v=93
91772 On ch=1 n=c5 v=80
91788 On ch=1 n=g4 v=0
91792 On ch=1 n=c6 v=0
91865 On ch=1 n=d#6 v=107
91867 On ch=1 n=g4 v=74
91870 Par ch=1 c=64 v=63
91877 On ch=1 n=c5 v=0
91892 Par ch=1 c=64 v=127
91893 On ch=1 n=g6 v=0
91943 On ch=1 n=d6 v=98
91952 On ch=1 n=c5 v=89
91964 Par ch=1 c=64 v=63
91973 On ch=1 n=g4 v=0
91981 On ch=1 n=d#6 v=0
91981 Par ch=1 c=64 v=0
92030 On ch=1 n=c6 v=94
92041 On ch=1 n=d6 v=0
92047 On ch=1 n=g4 v=72
92053 On ch=1 n=c5 v=0
92056 Par ch=1 c=64 v=63
92064 Par ch=1 c=64 v=127
92100 On ch=1 n=d#4 v=0
92111 On ch=1 n=g4 v=0
92114 On ch=1 n=a#5 v=109
92122 On ch=1 n=c5 v=91
92138 On ch=1 n=c6 v=0
92164 On ch=1 n=c5 v=0
92214 On ch=1 n=a5 v=93
92219 On ch=1 n=f#4 v=77
92221 On ch=1 n=c5 v=66
92222 Par ch=1 c=64 v=63
92237 Par ch=1 c=64 v=0
92254 On ch=1 n=a#5 v=0
92290 Par ch=1 c=64 v=63
92302 Par ch=1 c=64 v=127
92313 On ch=1 n=d#5 v=84
92335 On ch=1 n=c5 v=0
92418 On ch=1 n=d#5 v=0
92422 On ch=1 n=c5 v=71
92462 On ch=1 n=a5 v=0
92507 On ch=1 n=d#5 v=84
92519 On ch=1 n=c5 v=0
92595 On ch=1 n=d#5 v=0
92605 On ch=1 n=c5 v=68
92630 On ch=1 n=f#4 v=0
92668 On ch=1 n=d#5 v=88
92680 On ch=1 n=c5 v=0
92690 Par ch=1 c=64 v=63
92743 On ch=1 n=d#5 v=0
92752 Par ch=1 c=64 v=127
92766 On ch=1 n=a#5 v=94
92767 On ch=1 n=a#4 v=76
92777 On ch=1 n=g4 v=60
92806 On ch=1 n=a#5 v=0
92864 On ch=1 n=d5 v=64
92865 On ch=1 n=a#4 v=0
92869 On ch=1 n=d7 v=98
92966 On ch=1 n=a#6 v=103
92969 On ch=1 n=a#4 v=81
92985 On ch=1 n=d5 v=0
92986 On ch=1 n=d7 v=0
93050 On ch=1 n=a6 v=108
93052 On ch=1 n=d5 v=83
93069 On ch=1 n=a#4 v=0
93080 On ch=1 n=a#6 v=0
93137 On ch=1 n=d5 v=0
93137 On ch=1 n=g6 v=106
93141 On ch=1 n=a#4 v=89
93165 On ch=1 n=a6 v=0
93182 On ch=1 n=g4 v=0
93207 On ch=1 n=d5 v=79
93208 On ch=1 n=a#4 v=0
93215 On ch=1 n=f6 v=106
93235 On ch=1 n=g6 v=0
93255 On ch=1 n=d5 v=0
93302 On ch=1 n=e6 v=108
93309 On ch=1 n=g5 v=77
93316 On ch=1 n=c5 v=74
93344 On ch=1 n=f6 v=0
93364 Par ch=1 c=64 v=63
93381 Par ch=1 c=64 v=0
93396 On ch=1 n=a#5 v=84
93411 On ch=1 n=g5 v=0
93430 Par ch=1 c=64 v=63
93446 Par ch=1 c=64 v=127
93499 On ch=1 n=a#5 v=0
93502 On ch=1 n=g5 v=68
93580 On ch=1 n=a#5 v=78
93581 On ch=1 n=g5 v=0
93629 On ch=1 n=e6 v=0
93657 On ch=1 n=a#5 v=0
93678 On ch=1 n=g5 v=59
93738 On ch=1 n=c5 v=0
93744 On ch=1 n=a#5 v=77
93758 On ch=1 n=g5 v=0
93793 On ch=1 n=a#5 v=0
93840 Par ch=1 c=64 v=63
93842 On ch=1 n=a5 v=83
93844 On ch=1 n=f5 v=68
93852 Par ch=1 c=64 v=0
93871 Par ch=1 c=64 v=63
93900 Par ch=1 c=64 v=127
93905 On ch=1 n=f6 v=85
93943 On ch=1 n=e6 v=87
93945 On ch=1 n=f6 v=0
93954 Par ch=1 c=64 v=63
93961 On ch=1 n=f5 v=0
93967 Par ch=1 c=64 v=0
93984 On ch=1 n=a5 v=0
93985 On ch=1 n=f6 v=92
93995 On ch=1 n=e6 v=0
94032 On ch=1 n=f6 v=0
94033 On ch=1 n=g6 v=91
94065 On ch=1 n=f6 v=80
94087 On ch=1 n=g6 v=0
94111 On ch=1 n=e6 v=96
94115 On ch=1 n=f6 v=0
94152 On ch=1 n=f6 v=90
94163 On ch=1 n=e6 v=0
94190 On ch=1 n=f6 v=0
94209 On ch=1 n=d#6 v=97
94238 On ch=1 n=d#6 v=0
94245 On ch=1 n=f6 v=92
94292 On ch=1 n=a6 v=86
94294 On ch=1 n=f6 v=0
94331 On ch=1 n=a6 v=0
94337 On ch=1 n=f6 v=86
94376 On ch=1 n=f6 v=0
94382 On ch=1 n=d6 v=99
94418 On ch=1 n=f6 v=81
94420 On ch=1 n=d6 v=0
94460 On ch=1 n=a#6 v=97
94467 On ch=1 n=f6 v=0
94500 On ch=1 n=f6 v=80
94502 On ch=1 n=a#6 v=0
94542 On ch=1 n=f6 v=0
94552 On ch=1 n=a5 v=116
94587 On ch=1 n=f6 v=89
94590 On ch=1 n=a5 v=0
94642 On ch=1 n=f6 v=0
94647 On ch=1 n=d#7 v=105
94681 On ch=1 n=f6 v=87
94698 On ch=1 n=d#7 v=0
94722 On ch=1 n=f6 v=0
94738 On ch=1 n=a#5 v=119
94774 On ch=1 n=f6 v=97
94776 On ch=1 n=a#5 v=0
94817 On ch=1 n=d7 v=106
94821 On ch=1 n=f6 v=0
94857 On ch=1 n=f6 v=74
94867 On ch=1 n=d7 v=0
94901 On ch=1 n=f6 v=0
94912 On ch=1 n=c7 v=117
94915 On ch=1 n=f5 v=113
94920 Par ch=1 c=64 v=63
94922 Par ch=1 c=64 v=127
94943 On ch=1 n=f5 v=0
94963 On ch=1 n=a6 v=74
94964 On ch=1 n=c7 v=0
95005 On ch=1 n=a6 v=0
95006 On ch=1 n=g6 v=84
95047 On ch=1 n=g6 v=0
95050 On ch=1 n=f6 v=81
95096 Par ch=1 c=64 v=63
95096 On ch=1 n=e6 v=93
95097 On ch=1 n=f6 v=0
95098 Par ch=1 c=64 v=0
95141 On ch=1 n=f6 v=99
95151 On ch=1 n=e6 v=0
95184 On ch=1 n=g6 v=80
95188 On ch=1 n=f6 v=0
95217 On ch=1 n=f6 v=96
95236 On ch=1 n=g6 v=0
95255 On ch=1 n=f6 v=0
95265 On ch=1 n=d#6 v=119
95294 On ch=1 n=d#6 v=0
95316 On ch=1 n=f6 v=93
95359 On ch=1 n=a6 v=98
95365 On ch=1 n=f6 v=0
95398 On ch=1 n=a6 v=0
95403 On ch=1 n=f6 v=94
95440 On ch=1 n=f6 v=0
95445 On ch=1 n=d6 v=114
95483 On ch=1 n=d6 v=0
95487 On ch=1 n=f6 v=98
95529 On ch=1 n=a#6 v=100
95532 On ch=1 n=f6 v=0
95559 On ch=1 n=f6 v=91
95561 On ch=1 n=a#6 v=0
95601 On ch=1 n=f6 v=0
95627 On ch=1 n=a5 v=124
95660 On ch=1 n=a5 v=0
95661 On ch=1 n=f6 v=92
95706 On ch=1 n=f6 v=0
95712 On ch=1 n=d#7 v=105
95744 On ch=1 n=f6 v=85
95768 On ch=1 n=d#7 v=0
95788 On ch=1 n=f6 v=0
95809 On ch=1 n=a#5 v=127
95844 On ch=1 n=a#5 v=0
95844 On ch=1 n=f6 v=99
95886 On ch=1 n=d7 v=103
95897 On ch=1 n=f6 v=0
95929 On ch=1 n=f6 v=86
95945 On ch=1 n=d7 v=0
95979 On ch=1 n=c7 v=121
95981 On ch=1 n=f6 v=0
95982 On ch=1 n=f5 v=122
95987 Par ch=1 c=64 v=63
95988 Par ch=1 c=64 v=127
96017 On ch=1 n=f5 v=0
96020 On ch=1 n=f7 v=99
96031 On ch=1 n=c7 v=0
96062 On ch=1 n=c7 v=96
96074 On ch=1 n=f7 v=0
96113 On ch=1 n=c7 v=0
96121 On ch=1 n=a6 v=83
96159 On ch=1 n=f6 v=98
96165 On ch=1 n=a6 v=0
96204 Par ch=1 c=64 v=63
96207 On ch=1 n=f6 v=0
96207 Par ch=1 c=64 v=0
96211 On ch=1 n=c7 v=106
96250 On ch=1 n=a6 v=99
96261 On ch=1 n=c7 v=0
96295 On ch=1 n=f6 v=102
96301 On ch=1 n=a6 v=0
96335 On ch=1 n=f6 v=0
96345 On ch=1 n=c6 v=85
96373 On ch=1 n=c6 v=0
96382 On ch=1 n=f5 v=100
96390 On ch=1 n=f6 v=114
96429 On ch=1 n=f5 v=0
96430 On ch=1 n=c5 v=104
96431 On ch=1 n=c6 v=104
96443 On ch=1 n=f6 v=0
96470 On ch=1 n=a4 v=99
96474 On ch=1 n=c6 v=0
96477 On ch=1 n=a5 v=107
96479 On ch=1 n=c5 v=0
96512 On ch=1 n=a5 v=0
96518 On ch=1 n=f5 v=113
96524 Par ch=1 c=64 v=63
96524 On ch=1 n=f4 v=116
96526 Par ch=1 c=64 v=127
96544 On ch=1 n=a4 v=0
96554 On ch=1 n=f5 v=0
96558 Par ch=1 c=64 v=63
96564 On ch=1 n=f4 v=0
96565 Par ch=1 c=64 v=0
96736 Par ch=1 c=64 v=63
96737 On ch=1 n=f3 v=126
96739 Par ch=1 c=64 v=127
96741 On ch=1 n=a5 v=118
96741 On ch=1 n=c6 v=117
96743 On ch=1 n=f6 v=113
96769 On ch=1 n=a5 v=0
96775 On ch=1 n=c6 v=0
96777 On ch=1 n=f3 v=0
96782 On ch=1 n=f6 v=0
96952 Par ch=1 c=64 v=63
96960 Par ch=1 c=64 v=0
97329 On ch=1 n=a#4 v=70
97495 Par ch=1 c=64 v=63
97527 Par ch=1 c=64 v=127
97713 On ch=1 n=f4 v=54
97746 On ch=1 n=a#4 v=0
97914 On ch=1 n=d4 v=71
97971 On ch=1 n=f4 v=0
98296 On ch=1 n=f4 v=92
98329 On ch=1 n=d4 v=0
98445 Par ch=1 c=64 v=63
98462 Par ch=1 c=64 v=0
98497 On ch=1 n=a#4 v=88
98516 Par ch=1 c=64 v=63
98538 Par ch=1 c=64 v=127
98544 On ch=1 n=f4 v=0
98592 On ch=1 n=f6 v=86
98645 On ch=1 n=f6 v=0
98678 On ch=1 n=f6 v=83
98720 Par ch=1 c=64 v=63
98725 On ch=1 n=f6 v=0
98749 Par ch=1 c=64 v=127
98758 On ch=1 n=f6 v=102
98805 On ch=1 n=f6 v=0
98846 On ch=1 n=d5 v=100
98855 On ch=1 n=f6 v=90
98884 On ch=1 n=a#4 v=0
98898 On ch=1 n=f6 v=0
98941 On ch=1 n=f6 v=102
99023 On ch=1 n=f6 v=0
99043 On ch=1 n=f5 v=56
99055 On ch=1 n=g6 v=83
99083 On ch=1 n=d5 v=0
99138 Par ch=1 c=64 v=63
99156 Par ch=1 c=64 v=0
99159 On ch=1 n=f6 v=90
99192 On ch=1 n=g6 v=0
99231 Par ch=1 c=64 v=63
99237 Par ch=1 c=64 v=127
99256 On ch=1 n=d#6 v=100
99279 On ch=1 n=f6 v=0
99336 On ch=1 n=d6 v=86
99348 On ch=1 n=d#6 v=0
99371 On ch=1 n=f5 v=0
99402 On ch=1 n=d6 v=0
99427 On ch=1 n=c6 v=76
99496 On ch=1 n=c6 v=0
99502 On ch=1 n=a#5 v=88
99535 On ch=1 n=a#5 v=0
99572 Par ch=1 c=64 v=63
99577 Par ch=1 c=64 v=0
99584 On ch=1 n=d#4 v=86
99587 On ch=1 n=a#5 v=98
99624 On ch=1 n=a#5 v=0
99624 On ch=1 n=c6 v=75
99649 On ch=1 n=a#5 v=85
99650 On ch=1 n=c6 v=0
99694 On ch=1 n=a#5 v=0
99694 On ch=1 n=a5 v=84
99736 On ch=1 n=a5 v=0
99790 On ch=1 n=a5 v=69
99985 On ch=1 n=c4 v=77
99987 On ch=1 n=d#4 v=0
100127 On ch=1 n=a5 v=0
100179 On ch=1 n=a3 v=71
100227 On ch=1 n=c4 v=0
100558 On ch=1 n=c4 v=89
100598 On ch=1 n=a3 v=0
100763 On ch=1 n=d#4 v=101
100851 On ch=1 n=c4 v=0
100861 On ch=1 n=d#6 v=94
100914 On ch=1 n=d#6 v=0
100916 Par ch=1 c=64 v=63
100928 Par ch=1 c=64 v=127
100953 On ch=1 n=d#6 v=88
100997 On ch=1 n=d#6 v=0
101029 On ch=1 n=d#6 v=96
101071 On ch=1 n=d#6 v=0
101123 On ch=1 n=a4 v=97
101126 On ch=1 n=d#6 v=103
101136 On ch=1 n=d#4 v=0
101163 On ch=1 n=d#6 v=0
101210 On ch=1 n=d#6 v=98
101274 On ch=1 n=d#6 v=0
101295 Par ch=1 c=64 v=63
101301 On ch=1 n=c5 v=98
101305 Par ch=1 c=64 v=0
101315 On ch=1 n=f6 v=84
101323 On ch=1 n=a4 v=0
101328 Par ch=1 c=64 v=63
101356 Par ch=1 c=64 v=127
101370 On ch=1 n=c5 v=0
101396 On ch=1 n=d#6 v=107
101412 On ch=1 n=f6 v=0
101480 On ch=1 n=d6 v=92
101504 On ch=1 n=d#6 v=0
101562 On ch=1 n=c6 v=78
101565 On ch=1 n=d6 v=0
101575 Par ch=1 c=64 v=63
101590 Par ch=1 c=64 v=0
101654 On ch=1 n=a#5 v=81
101658 On ch=1 n=c6 v=0
101716 On ch=1 n=a#5 v=0
101743 On ch=1 n=a5 v=85
101844 On ch=1 n=a#5 v=86
101855 On ch=1 n=a5 v=0
101855 On ch=1 n=d5 v=54
101889 Par ch=1 c=64 v=63
101908 Par ch=1 c=64 v=127
101937 On ch=1 n=f5 v=51
101952 On ch=1 n=d5 v=0
102005 On ch=1 n=a#5 v=0
102026 On ch=1 n=d5 v=71
102034 On ch=1 n=f5 v=0
102116 On ch=1 n=d5 v=0
102116 On ch=1 n=f5 v=45
102117 On ch=1 n=d6 v=90
102127 Par ch=1 c=64 v=63
102151 Par ch=1 c=64 v=0
102212 On ch=1 n=d5 v=68
102214 On ch=1 n=c6 v=89
102216 On ch=1 n=f5 v=0
102234 On ch=1 n=d6 v=0
102290 On ch=1 n=d5 v=0
102296 On ch=1 n=f5 v=68
102300 On ch=1 n=a#5 v=101
102330 On ch=1 n=c6 v=0
102393 On ch=1 n=a5 v=91
102398 On ch=1 n=d#5 v=70
102402 On ch=1 n=f5 v=0
102402 On ch=1 n=a#5 v=0
102431 Par ch=1 c=64 v=63
102472 Par ch=1 c=64 v=127
102482 On ch=1 n=f5 v=70
102501 On ch=1 n=d#5 v=0
102556 On ch=1 n=a5 v=0
102578 On ch=1 n=d#5 v=88
102597 On ch=1 n=f5 v=0
102661 On ch=1 n=g6 v=85
102671 On ch=1 n=f5 v=62
102673 On ch=1 n=d#5 v=0
102687 Par ch=1 c=64 v=63
102731 Par ch=1 c=64 v=0
102760 On ch=1 n=f6 v=86
102762 On ch=1 n=d#5 v=79
102771 On ch=1 n=f5 v=0
102794 On ch=1 n=g6 v=0
102839 On ch=1 n=f5 v=63
102843 On ch=1 n=f6 v=0
102848 On ch=1 n=a5 v=87
102856 On ch=1 n=d#5 v=0
102951 On ch=1 n=d5 v=64
102952 On ch=1 n=a#5 v=76
102961 On ch=1 n=a5 v=0
102964 On ch=1 n=f5 v=0
103025 Par ch=1 c=64 v=63
103042 Par ch=1 c=64 v=127
103052 On ch=1 n=f5 v=57
103081 On ch=1 n=d5 v=0
103099 On ch=1 n=a#5 v=0
103153 On ch=1 n=d5 v=77
103167 On ch=1 n=f5 v=0
103236 On ch=1 n=f5 v=57
103242 On ch=1 n=d5 v=0
103245 On ch=1 n=d6 v=94
103336 On ch=1 n=c6 v=96
103342 On ch=1 n=d5 v=73
103351 On ch=1 n=f5 v=0
103373 On ch=1 n=d6 v=0
103413 On ch=1 n=a#5 v=103
103421 On ch=1 n=f5 v=62
103437 On ch=1 n=c6 v=0
103437 On ch=1 n=d5 v=0
103515 On ch=1 n=a#5 v=0
103516 On ch=1 n=a5 v=86
103522 On ch=1 n=d#5 v=66
103533 Par ch=1 c=64 v=63
103535 On ch=1 n=f5 v=0
103556 Par ch=1 c=64 v=0
103614 On ch=1 n=f5 v=60
103639 On ch=1 n=d#5 v=0
103640 Par ch=1 c=64 v=63
103662 Par ch=1 c=64 v=127
103673 On ch=1 n=a5 v=0
103711 On ch=1 n=d#5 v=69
103732 On ch=1 n=f5 v=0
103796 On ch=1 n=f#6 v=80
103820 On ch=1 n=f5 v=41
103837 On ch=1 n=d#5 v=0
103898 On ch=1 n=f6 v=70
103914 On ch=1 n=d#5 v=63
103935 On ch=1 n=f5 v=0
103940 On ch=1 n=f#6 v=0
103999 On ch=1 n=f6 v=0
104004 On ch=1 n=a5 v=71
104014 On ch=1 n=f5 v=40
104038 On ch=1 n=d#5 v=0
104113 On ch=1 n=a#5 v=72
104118 On ch=1 n=c#5 v=63
104122 On ch=1 n=a5 v=0
104123 Par ch=1 c=64 v=63
104130 On ch=1 n=f5 v=0
104138 Par ch=1 c=64 v=0
104201 Par ch=1 c=64 v=63
104207 On ch=1 n=f5 v=48
104219 On ch=1 n=c#5 v=0
104220 Par ch=1 c=64 v=127
104281 On ch=1 n=a#5 v=0
104300 On ch=1 n=c#5 v=87
104323 On ch=1 n=f5 v=0
104382 On ch=1 n=f5 v=57
104389 On ch=1 n=f6 v=90
104393 On ch=1 n=c#5 v=0
104464 On ch=1 n=c#5 v=83
104475 On ch=1 n=c#6 v=103
104483 On ch=1 n=f5 v=0
104506 On ch=1 n=f6 v=0
104540 On ch=1 n=f5 v=71
104556 On ch=1 n=c6 v=102
104563 On ch=1 n=c#5 v=0
104583 On ch=1 n=c#6 v=0
104641 On ch=1 n=b5 v=92
104645 On ch=1 n=d5 v=83
104647 On ch=1 n=g4 v=79
104658 On ch=1 n=c6 v=0
104660 Par ch=1 c=64 v=63
104678 On ch=1 n=f5 v=0
104679 Par ch=1 c=64 v=0
104729 Par ch=1 c=64 v=63
104730 On ch=1 n=f5 v=86
104748 Par ch=1 c=64 v=127
104773 On ch=1 n=d5 v=0
104826 On ch=1 n=b5 v=0
104833 On ch=1 n=d5 v=101
104867 On ch=1 n=f5 v=0
104925 On ch=1 n=f5 v=83
104931 On ch=1 n=g#6 v=97
104959 On ch=1 n=d5 v=0
105025 On ch=1 n=g6 v=101
105026 On ch=1 n=g#6 v=0
105028 On ch=1 n=d5 v=83
105033 On ch=1 n=f5 v=0
105102 On ch=1 n=f5 v=77
105107 On ch=1 n=b5 v=102
105110 On ch=1 n=d5 v=0
105116 On ch=1 n=g4 v=0
105124 On ch=1 n=g6 v=0
105199 On ch=1 n=d6 v=98
105200 On ch=1 n=d#5 v=94
105215 On ch=1 n=b5 v=0
105215 On ch=1 n=c5 v=63
105221 Par ch=1 c=64 v=63
105230 On ch=1 n=f5 v=0
105231 Par ch=1 c=64 v=0
105285 On ch=1 n=d#5 v=0
105288 On ch=1 n=c6 v=94
105289 On ch=1 n=c5 v=0
105362 On ch=1 n=d6 v=0
105373 On ch=1 n=c6 v=0
105377 On ch=1 n=f6 v=106
105379 On ch=1 n=f5 v=100
105382 On ch=1 n=a4 v=91
105472 On ch=1 n=e6 v=103
105511 On ch=1 n=f6 v=0
105566 On ch=1 n=d#6 v=113
105567 On ch=1 n=a#4 v=98
105596 On ch=1 n=a4 v=0
105597 On ch=1 n=e6 v=0
105612 Par ch=1 c=64 v=63
105615 Par ch=1 c=64 v=127
105616 On ch=1 n=f5 v=0
105636 On ch=1 n=a#4 v=0
105644 On ch=1 n=d6 v=103
105654 On ch=1 n=d#6 v=0
105704 On ch=1 n=d6 v=0
105740 On ch=1 n=c6 v=106
105750 On ch=1 n=d#5 v=97
105751 Par ch=1 c=64 v=63
105757 On ch=1 n=d#4 v=97
105758 Par ch=1 c=64 v=0
105789 Par ch=1 c=64 v=63
105803 Par ch=1 c=64 v=127
105855 On ch=1 n=c6 v=0
105870 On ch=1 n=d#5 v=0
105876 Par ch=1 c=64 v=63
105880 Par ch=1 c=64 v=0
105880 On ch=1 n=d6 v=83
105883 On ch=1 n=d#4 v=0
105925 On ch=1 n=a#5 v=113
105933 On ch=1 n=d5 v=85
105934 On ch=1 n=d6 v=0
105936 On ch=1 n=f4 v=81
105962 Par ch=1 c=64 v=63
105966 Par ch=1 c=64 v=127
105974 On ch=1 n=a#5 v=0
106085 Par ch=1 c=64 v=63
106089 Par ch=1 c=64 v=0
106094 On ch=1 n=d5 v=0
106122 On ch=1 n=c5 v=71
106123 On ch=1 n=a5 v=104
106146 On ch=1 n=a#5 v=101
106155 On ch=1 n=a5 v=0
106165 On ch=1 n=c5 v=0
106179 On ch=1 n=a#5 v=0
106190 On ch=1 n=a5 v=97
106225 On ch=1 n=a5 v=0
106225 On ch=1 n=g5 v=82
106250 On ch=1 n=a5 v=77
106260 On ch=1 n=g5 v=0
106287 On ch=1 n=f4 v=0
106291 On ch=1 n=a5 v=0
106302 Par ch=1 c=64 v=63
106305 Par ch=1 c=64 v=127
106308 On ch=1 n=a#5 v=110
106310 On ch=1 n=a#4 v=89
106326 On ch=1 n=a#4 v=0
106353 On ch=1 n=a#5 v=0
106353 On ch=1 n=f5 v=62
106399 On ch=1 n=f5 v=0
106405 On ch=1 n=e5 v=74
106446 On ch=1 n=f5 v=73
106447 On ch=1 n=e5 v=0
106484 On ch=1 n=g5 v=84
106490 On ch=1 n=f5 v=0
106492 Par ch=1 c=64 v=63
106497 Par ch=1 c=64 v=0
106538 On ch=1 n=f5 v=84
106545 On ch=1 n=g5 v=0
106582 On ch=1 n=e5 v=73
106583 On ch=1 n=f5 v=0
106590 On ch=1 n=d4 v=87
106616 On ch=1 n=e5 v=0
106616 On ch=1 n=f5 v=81
106662 On ch=1 n=d#5 v=95
106665 On ch=1 n=d4 v=0
106667 On ch=1 n=c4 v=83
106670 On ch=1 n=f5 v=0
106703 On ch=1 n=f5 v=80
106712 On ch=1 n=d#5 v=0
106740 On ch=1 n=c4 v=0
106749 On ch=1 n=a#3 v=85
106751 On ch=1 n=f5 v=0
106753 On ch=1 n=d5 v=83
106782 On ch=1 n=f5 v=74
106785 On ch=1 n=d5 v=0
106805 On ch=1 n=a#3 v=0
106824 On ch=1 n=f5 v=0
106838 On ch=1 n=c5 v=84
106843 On ch=1 n=a3 v=103
106877 Par ch=1 c=64 v=63
106879 Par ch=1 c=64 v=127
106884 On ch=1 n=c5 v=0
106884 On ch=1 n=f5 v=65
106920 On ch=1 n=e5 v=87
106928 On ch=1 n=f5 v=0
106959 On ch=1 n=f5 v=81
106971 On ch=1 n=e5 v=0
107007 On ch=1 n=a3 v=0
107010 On ch=1 n=f5 v=0
107013 On ch=1 n=g5 v=84
107049 On ch=1 n=f5 v=63
107076 On ch=1 n=g5 v=0
107082 Par ch=1 c=64 v=63
107087 Par ch=1 c=64 v=0
107090 On ch=1 n=g4 v=99
107107 On ch=1 n=e5 v=68
107113 On ch=1 n=f5 v=0
107143 On ch=1 n=e5 v=0
107144 On ch=1 n=f5 v=89
107149 Par ch=1 c=64 v=63
107157 Par ch=1 c=64 v=127
107194 On ch=1 n=f5 v=0
107195 On ch=1 n=f4 v=96
107206 On ch=1 n=d#6 v=103
107216 On ch=1 n=g4 v=0
107242 On ch=1 n=f5 v=75
107247 On ch=1 n=f4 v=0
107255 On ch=1 n=d#6 v=0
107271 On ch=1 n=a3 v=85
107285 Par ch=1 c=64 v=63
107292 Par ch=1 c=64 v=0
107293 On ch=1 n=f5 v=0
107294 On ch=1 n=d#6 v=99
107328 On ch=1 n=f5 v=63
107350 On ch=1 n=f5 v=0
107361 On ch=1 n=d#6 v=0
107368 On ch=1 n=a#3 v=108
107375 On ch=1 n=d6 v=81
107375 Par ch=1 c=64 v=63
107376 Par ch=1 c=64 v=127
107397 On ch=1 n=a#3 v=0
107402 On ch=1 n=a3 v=0
107421 On ch=1 n=f6 v=90
107425 On ch=1 n=d6 v=0
107474 On ch=1 n=f6 v=0
107474 On ch=1 n=e6 v=90
107506 On ch=1 n=f6 v=89
107522 On ch=1 n=e6 v=0
107551 On ch=1 n=g6 v=98
107558 On ch=1 n=f6 v=0
107597 On ch=1 n=f6 v=89
107619 On ch=1 n=g6 v=0
107624 Par ch=1 c=64 v=63
107628 Par ch=1 c=64 v=0
107642 On ch=1 n=e6 v=99
107649 On ch=1 n=f6 v=0
107650 On ch=1 n=d5 v=101
107678 On ch=1 n=f6 v=91
107683 On ch=1 n=e6 v=0
107727 On ch=1 n=d#6 v=108
107730 On ch=1 n=c5 v=103
107736 On ch=1 n=f6 v=0
107748 On ch=1 n=d5 v=0
107770 On ch=1 n=f6 v=94
107778 On ch=1 n=d#6 v=0
107813 On ch=1 n=d6 v=94
107817 On ch=1 n=f6 v=0
107818 On ch=1 n=a#4 v=101
107830 On ch=1 n=c5 v=0
107849 On ch=1 n=f6 v=90
107861 On ch=1 n=d6 v=0
107881 On ch=1 n=a#4 v=0
107898 On ch=1 n=f6 v=0
107906 On ch=1 n=c6 v=99
107915 On ch=1 n=a4 v=118
107925 Par ch=1 c=64 v=63
107926 Par ch=1 c=64 v=127
107949 On ch=1 n=f6 v=84
107961 On ch=1 n=c6 v=0
108003 On ch=1 n=e6 v=98
108007 On ch=1 n=f6 v=0
108019 On ch=1 n=a4 v=0
108041 On ch=1 n=f6 v=89
108053 On ch=1 n=e6 v=0
108091 On ch=1 n=f6 v=0
108092 On ch=1 n=g6 v=102
108114 Par ch=1 c=64 v=63
108117 Par ch=1 c=64 v=0
108129 On ch=1 n=f6 v=88
108154 On ch=1 n=g6 v=0
108176 On ch=1 n=e6 v=97
108180 On ch=1 n=f6 v=0
108190 On ch=1 n=g5 v=109
108197 Par ch=1 c=64 v=63
108198 Par ch=1 c=64 v=127
108213 On ch=1 n=e6 v=0
108214 On ch=1 n=f6 v=96
108258 On ch=1 n=g5 v=0
108266 On ch=1 n=f6 v=0
108271 On ch=1 n=d#7 v=112
108273 On ch=1 n=f5 v=99
108302 On ch=1 n=f5 v=0
108311 On ch=1 n=f6 v=87
108321 On ch=1 n=d#7 v=0
108353 On ch=1 n=a4 v=96
108356 On ch=1 n=f6 v=0
108363 On ch=1 n=d#7 v=107
108401 On ch=1 n=f6 v=87
108411 On ch=1 n=d#7 v=0
108427 On ch=1 n=a4 v=0
108439 On ch=1 n=f6 v=0
108439 Par ch=1 c=64 v=63
108443 On ch=1 n=d7 v=111
108445 Par ch=1 c=64 v=0
108445 On ch=1 n=a#4 v=118
108470 Par ch=1 c=64 v=63
108480 Par ch=1 c=64 v=127
108482 On ch=1 n=f6 v=102
108496 On ch=1 n=d7 v=0
108534 On ch=1 n=f6 v=0
108542 On ch=1 n=e6 v=99
108586 On ch=1 n=f6 v=93
108588 On ch=1 n=a#4 v=0
108588 On ch=1 n=e6 v=0
108631 On ch=1 n=g6 v=100
108637 On ch=1 n=f6 v=0
108661 Par ch=1 c=64 v=63
108665 Par ch=1 c=64 v=0
108673 On ch=1 n=f6 v=97
108676 On ch=1 n=g6 v=0
108711 On ch=1 n=f5 v=101
108716 On ch=1 n=e6 v=93
108720 On ch=1 n=f6 v=0
108750 On ch=1 n=e6 v=0
108760 On ch=1 n=f6 v=92
108813 Par ch=1 c=64 v=63
108814 Par ch=1 c=64 v=127
108815 On ch=1 n=d5 v=117
108818 On ch=1 n=g#6 v=106
108819 On ch=1 n=f6 v=0
108828 On ch=1 n=f5 v=0
108858 On ch=1 n=f6 v=73
108868 On ch=1 n=g#6 v=0
108896 On ch=1 n=d5 v=0
108900 On ch=1 n=d#6 v=107
108908 On ch=1 n=f6 v=0
108922 On ch=1 n=c5 v=101
108945 On ch=1 n=d#6 v=0
108959 On ch=1 n=f6 v=81
108973 On ch=1 n=c5 v=0
108982 Par ch=1 c=64 v=63
108986 Par ch=1 c=64 v=0
108998 On ch=1 n=f6 v=0
109002 On ch=1 n=d6 v=101
109006 On ch=1 n=b4 v=121
109016 Par ch=1 c=64 v=63
109024 Par ch=1 c=64 v=127
109043 On ch=1 n=g6 v=99
109044 On ch=1 n=d6 v=0
109091 On ch=1 n=f#6 v=101
109098 On ch=1 n=g6 v=0
109115 On ch=1 n=b4 v=0
109126 On ch=1 n=g6 v=91
109136 On ch=1 n=f#6 v=0
109175 On ch=1 n=a6 v=101
109185 On ch=1 n=g6 v=0
109226 On ch=1 n=g6 v=99
109246 On ch=1 n=a6 v=0
109263 Par ch=1 c=64 v=63
109266 On ch=1 n=f#6 v=106
109267 Par ch=1 c=64 v=0
109273 On ch=1 n=g#5 v=109
109279 On ch=1 n=g6 v=0
109306 Par ch=1 c=64 v=63
109309 On ch=1 n=f#6 v=0
109309 On ch=1 n=g6 v=99
109314 Par ch=1 c=64 v=127
109353 On ch=1 n=g#5 v=0
109358 On ch=1 n=f7 v=112
109360 On ch=1 n=g6 v=0
109360 On ch=1 n=g5 v=94
109402 On ch=1 n=g6 v=103
109414 On ch=1 n=g5 v=0
109415 On ch=1 n=f7 v=0
109445 On ch=1 n=g6 v=0
109448 On ch=1 n=b4 v=107
109451 On ch=1 n=f7 v=112
109488 On ch=1 n=g6 v=97
109500 On ch=1 n=f7 v=0
109501 Par ch=1 c=64 v=63
109503 On ch=1 n=b4 v=0
109504 Par ch=1 c=64 v=0
109529 On ch=1 n=g6 v=0
109559 On ch=1 n=c5 v=120
109565 On ch=1 n=e7 v=124
109585 Par ch=1 c=64 v=63
109587 Par ch=1 c=64 v=127
109640 On ch=1 n=g5 v=81
109650 On ch=1 n=c5 v=0
109701 On ch=1 n=e5 v=93
109703 On ch=1 n=g5 v=0
109723 On ch=1 n=e7 v=0
109733 On ch=1 n=e5 v=0
109740 On ch=1 n=g5 v=93
109781 On ch=1 n=g5 v=0
109781 On ch=1 n=a4 v=104
109785 On ch=1 n=d#7 v=124
109785 Par ch=1 c=64 v=63
109814 Par ch=1 c=64 v=127
109824 On ch=1 n=f#5 v=95
109843 On ch=1 n=a4 v=0
109871 On ch=1 n=c5 v=88
109878 On ch=1 n=f#5 v=0
109922 On ch=1 n=d#7 v=0
109924 On ch=1 n=f#5 v=105
109925 On ch=1 n=c5 v=0
109972 On ch=1 n=a#4 v=116
109973 On ch=1 n=d7 v=124
109977 On ch=1 n=f#5 v=0
109977 Par ch=1 c=64 v=63
109999 Par ch=1 c=64 v=127
110019 On ch=1 n=f5 v=99
110024 On ch=1 n=a#4 v=0
110066 On ch=1 n=d7 v=0
110073 On ch=1 n=d5 v=103
110078 On ch=1 n=f5 v=0
110106 On ch=1 n=f5 v=100
110113 On ch=1 n=d5 v=0
110143 Par ch=1 c=64 v=63
110150 On ch=1 n=f5 v=0
110153 Par ch=1 c=64 v=0
110163 Par ch=1 c=64 v=63
110174 On ch=1 n=d#5 v=120
110175 Par ch=1 c=64 v=127
110180 On ch=1 n=d#4 v=116
110181 On ch=1 n=d7 v=117
110203 On ch=1 n=d#4 v=0
110208 On ch=1 n=d#5 v=0
110230 On ch=1 n=c7 v=99
110232 On ch=1 n=d7 v=0
110279 On ch=1 n=d#7 v=107
110280 On ch=1 n=c7 v=0
110310 On ch=1 n=c7 v=86
110320 On ch=1 n=d#7 v=0
110341 On ch=1 n=c7 v=0
110351 Par ch=1 c=64 v=63
110358 On ch=1 n=c7 v=107
110361 On ch=1 n=d5 v=113
110362 On ch=1 n=f4 v=116
110377 Par ch=1 c=64 v=127
110387 On ch=1 n=d5 v=0
110394 On ch=1 n=f4 v=0
110394 On ch=1 n=a#6 v=113
110408 On ch=1 n=c7 v=0
110445 On ch=1 n=d7 v=103
110452 On ch=1 n=a#6 v=0
110484 On ch=1 n=a#6 v=98
110500 On ch=1 n=d7 v=0
110508 Par ch=1 c=64 v=63
110523 On ch=1 n=a#6 v=0
110531 Par ch=1 c=64 v=0
110541 Par ch=1 c=64 v=63
110549 On ch=1 n=c5 v=117
110553 On ch=1 n=a#6 v=109
110553 On ch=1 n=d#4 v=118
110565 Par ch=1 c=64 v=127
110587 On ch=1 n=c5 v=0
110606 On ch=1 n=a6 v=109
110609 On ch=1 n=d#4 v=0
110611 On ch=1 n=a#6 v=0
110657 On ch=1 n=c7 v=112
110662 On ch=1 n=a6 v=0
110700 On ch=1 n=a6 v=102
110716 On ch=1 n=c7 v=0
110745 Par ch=1 c=64 v=63
110755 Par ch=1 c=64 v=0
110762 On ch=1 n=a#6 v=113
110762 On ch=1 n=a#4 v=120
110764 On ch=1 n=a6 v=0
110764 On ch=1 n=d4 v=106
110788 Par ch=1 c=64 v=63
110809 Par ch=1 c=64 v=127
110828 On ch=1 n=a#6 v=0
110854 On ch=1 n=d7 v=89
110906 On ch=1 n=f7 v=87
110907 On ch=1 n=d7 v=0
110921 On ch=1 n=d4 v=0
110952 On ch=1 n=a#4 v=0
110953 On ch=1 n=d#7 v=97
110977 On ch=1 n=f7 v=0
110999 On ch=1 n=d7 v=96
111020 On ch=1 n=d#7 v=0
111040 On ch=1 n=c7 v=86
111043 On ch=1 n=d7 v=0
111079 On ch=1 n=a#6 v=108
111086 On ch=1 n=c7 v=0
111124 On ch=1 n=a6 v=99
111144 On ch=1 n=a#6 v=0
111172 On ch=1 n=g6 v=89
111177 On ch=1 n=f5 v=111
111178 On ch=1 n=a6 v=0
111178 On ch=1 n=d5 v=112
111209 On ch=1 n=f6 v=94
111212 On ch=1 n=g6 v=0
111255 On ch=1 n=d#6 v=112
111263 On ch=1 n=f6 v=0
111279 On ch=1 n=f5 v=0
111305 On ch=1 n=d6 v=104
111337 On ch=1 n=d#6 v=0
111346 On ch=1 n=c6 v=101
111351 On ch=1 n=d#5 v=115
111351 On ch=1 n=g5 v=111
111359 On ch=1 n=d6 v=0
111362 Par ch=1 c=64 v=63
111367 Par ch=1 c=64 v=0
111377 On ch=1 n=d5 v=0
111393 On ch=1 n=d#6 v=110
111411 On ch=1 n=c6 v=0
111443 On ch=1 n=g6 v=97
111455 On ch=1 n=d#6 v=0
111490 Par ch=1 c=64 v=63
111491 On ch=1 n=f6 v=99
111493 Par ch=1 c=64 v=127
111512 On ch=1 n=g5 v=0
111519 On ch=1 n=g6 v=0
111534 On ch=1 n=d#6 v=112
111538 On ch=1 n=d#5 v=0
111557 On ch=1 n=f6 v=0
111583 On ch=1 n=d6 v=101
111590 On ch=1 n=d#6 v=0
111622 On ch=1 n=c6 v=88
111629 On ch=1 n=d6 v=0
111670 On ch=1 n=a#5 v=108
111676 On ch=1 n=c6 v=0
111711 On ch=1 n=a5 v=92
111723 On ch=1 n=a#5 v=0
111730 On ch=1 n=g4 v=109
111734 On ch=1 n=c5 v=104
111740 On ch=1 n=a#4 v=105
111747 On ch=1 n=g5 v=102
111758 On ch=1 n=a5 v=0
111766 Par ch=1 c=64 v=63
111770 Par ch=1 c=64 v=0
111797 On ch=1 n=g5 v=0
111798 On ch=1 n=f5 v=98
111838 On ch=1 n=e5 v=101
111847 On ch=1 n=c5 v=0
111851 On ch=1 n=f5 v=0
111852 On ch=1 n=a#4 v=0
111875 On ch=1 n=g4 v=0
111883 On ch=1 n=e5 v=0
111905 On ch=1 n=f4 v=124
111906 On ch=1 n=f5 v=107
111915 Par ch=1 c=64 v=63
111917 Par ch=1 c=64 v=127
111977 On ch=1 n=d5 v=88
111978 On ch=1 n=f5 v=0
112030 On ch=1 n=a#5 v=99
112033 On ch=1 n=d5 v=0
112035 On ch=1 n=a#4 v=88
112040 On ch=1 n=f4 v=0
112073 On ch=1 n=d5 v=91
112081 On ch=1 n=a#5 v=0
112082 On ch=1 n=a#4 v=0
112110 Par ch=1 c=64 v=63
112114 Par ch=1 c=64 v=0
112117 On ch=1 n=d6 v=102
112120 On ch=1 n=f4 v=107
112124 On ch=1 n=d5 v=0
112150 On ch=1 n=d6 v=0
112157 On ch=1 n=d5 v=81
112189 On ch=1 n=f4 v=0
112207 On ch=1 n=a#4 v=105
112214 On ch=1 n=f6 v=101
112219 On ch=1 n=d5 v=0
112246 On ch=1 n=f6 v=0
112252 On ch=1 n=d5 v=92
112259 On ch=1 n=a#4 v=0
112314 On ch=1 n=f4 v=107
112316 On ch=1 n=d5 v=0
112317 On ch=1 n=a#6 v=120
112355 On ch=1 n=a#6 v=0
112358 On ch=1 n=d5 v=79
112376 On ch=1 n=f4 v=0
112404 On ch=1 n=a#4 v=94
112406 On ch=1 n=d7 v=113
112412 On ch=1 n=d5 v=0
112434 On ch=1 n=d7 v=0
112444 On ch=1 n=d5 v=75
112452 On ch=1 n=a#4 v=0
112526 On ch=1 n=d5 v=0
112535 Par ch=1 c=64 v=63
112536 Par ch=1 c=64 v=127
112545 On ch=1 n=f4 v=63
112548 On ch=1 n=c6 v=114
112601 On ch=1 n=c6 v=0
112638 On ch=1 n=d#5 v=57
112653 On ch=1 n=d6 v=80
112669 On ch=1 n=f4 v=0
112679 On ch=1 n=d6 v=0
112686 On ch=1 n=d#5 v=0
112692 On ch=1 n=c6 v=82
112696 On ch=1 n=a4 v=51
112711 On ch=1 n=d6 v=87
112721 On ch=1 n=c6 v=0
112737 On ch=1 n=d#5 v=78
112745 On ch=1 n=a4 v=0
112745 On ch=1 n=d6 v=0
112748 On ch=1 n=c6 v=88
112766 On ch=1 n=d6 v=101
112782 On ch=1 n=c6 v=0
112784 On ch=1 n=f4 v=80
112788 On ch=1 n=d#5 v=0
112802 On ch=1 n=d6 v=0
112810 On ch=1 n=c6 v=99
112824 On ch=1 n=d#5 v=70
112832 On ch=1 n=d6 v=91
112851 On ch=1 n=c6 v=0
112860 On ch=1 n=f4 v=0
112871 On ch=1 n=d6 v=0
112874 On ch=1 n=c6 v=101
112886 On ch=1 n=d#5 v=0
112889 On ch=1 n=a4 v=59
112898 On ch=1 n=d6 v=88
112915 On ch=1 n=c6 v=0
112918 On ch=1 n=d#5 v=77
112932 On ch=1 n=d6 v=0
112935 On ch=1 n=a4 v=0
112939 On ch=1 n=c6 v=97
112959 On ch=1 n=d6 v=90
112970 On ch=1 n=f4 v=71
112977 On ch=1 n=c6 v=0
112983 On ch=1 n=d#5 v=0
113000 On ch=1 n=c6 v=106
113009 On ch=1 n=d6 v=0
113025 On ch=1 n=a4 v=61
113025 On ch=1 n=d6 v=79
113032 On ch=1 n=f4 v=0
113036 On ch=1 n=c6 v=0
113046 On ch=1 n=d6 v=0
113053 On ch=1 n=c6 v=58
113057 On ch=1 n=a4 v=0
113063 On ch=1 n=d#5 v=88
113091 On ch=1 n=a#5 v=95
113095 On ch=1 n=c6 v=0
113118 On ch=1 n=d#5 v=0
113125 On ch=1 n=c6 v=84
113137 On ch=1 n=a#5 v=0
113203 On ch=1 n=a#4 v=90
113204 On ch=1 n=a#5 v=92
113213 On ch=1 n=c6 v=0
113281 Par ch=1 c=64 v=63
113293 Par ch=1 c=64 v=0
113354 On ch=1 n=d5 v=77
113366 Par ch=1 c=64 v=63
113375 Par ch=1 c=64 v=127
113387 On ch=1 n=a#4 v=0
113431 On ch=1 n=a#5 v=0
113464 On ch=1 n=f5 v=79
113509 On ch=1 n=d5 v=0
113560 On ch=1 n=a#5 v=81
113570 On ch=1 n=f5 v=0
113640 On ch=1 n=a#5 v=0
113657 On ch=1 n=a5 v=68
113752 On ch=1 n=g#5 v=78
113766 On ch=1 n=a5 v=0
113771 Par ch=1 c=64 v=63
113801 Par ch=1 c=64 v=0
113878 Par ch=1 c=64 v=63
113890 On ch=1 n=d#6 v=79
113892 On ch=1 n=g#5 v=0
113893 Par ch=1 c=64 v=127
113894 On ch=1 n=g5 v=63
114040 On ch=1 n=a#5 v=57
114060 On ch=1 n=g5 v=0
114110 On ch=1 n=d#6 v=0
114125 On ch=1 n=f6 v=80
114135 On ch=1 n=a#5 v=0
114135 On ch=1 n=f5 v=68
114240 On ch=1 n=a#5 v=57
114256 On ch=1 n=f5 v=0
114317 On ch=1 n=f6 v=0
114340 On ch=1 n=d#5 v=72
114342 On ch=1 n=g6 v=82
114346 On ch=1 n=a#5 v=0
114356 Par ch=1 c=64 v=63
114366 Par ch=1 c=64 v=127
114446 On ch=1 n=a#5 v=60
114455 On ch=1 n=d#5 v=0
114539 On ch=1 n=a#5 v=0
114544 On ch=1 n=g6 v=0
114546 On ch=1 n=d5 v=61
114549 On ch=1 n=f6 v=86
114556 Par ch=1 c=64 v=63
114606 Par ch=1 c=64 v=127
114636 On ch=1 n=d5 v=0
114643 On ch=1 n=a#5 v=61
114679 On ch=1 n=f6 v=0
114736 On ch=1 n=a#5 v=0
114745 On ch=1 n=a5 v=64
114819 On ch=1 n=a5 v=0
114850 On ch=1 n=a#5 v=79
114856 On ch=1 n=g6 v=74
114891 On ch=1 n=a#5 v=0
114906 On ch=1 n=f6 v=76
114921 On ch=1 n=g6 v=0
114945 On ch=1 n=d#6 v=72
114947 On ch=1 n=g4 v=82
114958 On ch=1 n=f6 v=0
114966 Par ch=1 c=64 v=63
114989 On ch=1 n=d6 v=69
114992 Par ch=1 c=64 v=0
114995 On ch=1 n=d#6 v=0
115014 On ch=1 n=d6 v=0
115015 Par ch=1 c=64 v=63
115024 On ch=1 n=c6 v=66
115050 On ch=1 n=d#5 v=76
115055 On ch=1 n=g4 v=0
115067 Par ch=1 c=64 v=0
115071 On ch=1 n=a#5 v=80
115079 On ch=1 n=c6 v=0
115107 On ch=1 n=a#5 v=0
115126 On ch=1 n=d#5 v=0
115133 On ch=1 n=d6 v=81
115147 On ch=1 n=f4 v=51
115178 Par ch=1 c=64 v=63
115184 Par ch=1 c=64 v=127
115223 On ch=1 n=d5 v=61
115312 On ch=1 n=d6 v=0
115321 On ch=1 n=f4 v=0
115328 On ch=1 n=a#4 v=72
115332 On ch=1 n=d5 v=0
115421 On ch=1 n=a#4 v=0
115422 On ch=1 n=d#6 v=94
115432 On ch=1 n=d5 v=48
115518 On ch=1 n=d5 v=0
115530 On ch=1 n=c6 v=78
115532 On ch=1 n=d#6 v=0
115539 On ch=1 n=f4 v=66
115558 Par ch=1 c=64 v=63
115565 Par ch=1 c=64 v=0
115633 On ch=1 n=d#5 v=76
115705 On ch=1 n=f4 v=0
115705 On ch=1 n=d#5 v=0
115707 Par ch=1 c=64 v=63
115711 Par ch=1 c=64 v=127
115736 On ch=1 n=a#5 v=68
115742 On ch=1 n=d5 v=63
115749 On ch=1 n=c6 v=0
115786 Par ch=1 c=64 v=63
115793 Par ch=1 c=64 v=0
115798 On ch=1 n=d5 v=0
115828 Par ch=1 c=64 v=63
115837 Par ch=1 c=64 v=127
115852 On ch=1 n=a#4 v=77
115953 On ch=1 n=a4 v=79
115969 On ch=1 n=a#4 v=0
115981 On ch=1 n=a#5 v=0
116050 On ch=1 n=g#4 v=101
116081 On ch=1 n=a4 v=0
116154 On ch=1 n=g4 v=92
116175 On ch=1 n=g#4 v=0
116238 On ch=1 n=f#4 v=114
116245 Par ch=1 c=64 v=63
116251 Par ch=1 c=64 v=0
116266 On ch=1 n=g4 v=0
116340 On ch=1 n=g4 v=98
116341 On ch=1 n=d#5 v=115
116348 Par ch=1 c=64 v=63
116352 On ch=1 n=f#4 v=0
116360 Par ch=1 c=64 v=127
116442 On ch=1 n=a#4 v=98
116444 On ch=1 n=d#6 v=103
116459 On ch=1 n=g4 v=0
116467 On ch=1 n=d#5 v=0
116503 On ch=1 n=a#4 v=0
116535 On ch=1 n=d#6 v=0
116535 Par ch=1 c=64 v=63
116537 On ch=1 n=f4 v=108
116540 On ch=1 n=f5 v=103
116552 Par ch=1 c=64 v=0
116567 Par ch=1 c=64 v=63
116592 Par ch=1 c=64 v=127
116628 On ch=1 n=a4 v=98
116635 On ch=1 n=f5 v=0
116635 On ch=1 n=f6 v=111
116651 On ch=1 n=f4 v=0
116711 On ch=1 n=a4 v=0
116721 On ch=1 n=g5 v=100
116722 On ch=1 n=e4 v=106
116724 On ch=1 n=f6 v=0
116726 Par ch=1 c=64 v=63
116783 Par ch=1 c=64 v=127
116816 On ch=1 n=g5 v=0
116825 On ch=1 n=g6 v=106
116836 On ch=1 n=c#5 v=100
116882 On ch=1 n=g6 v=0
116901 On ch=1 n=e4 v=0
116909 On ch=1 n=c#5 v=0
116948 On ch=1 n=f4 v=100
116954 On ch=1 n=f6 v=107
116973 Par ch=1 c=64 v=63
116985 Par ch=1 c=64 v=0
117030 Par ch=1 c=64 v=63
117045 Par ch=1 c=64 v=127
117093 On ch=1 n=d5 v=83
117097 On ch=1 n=f6 v=0
117097 On ch=1 n=g6 v=100
117150 On ch=1 n=a6 v=98
117165 On ch=1 n=g6 v=0
117188 On ch=1 n=a#4 v=88
117188 On ch=1 n=a#6 v=99
117198 On ch=1 n=a6 v=0
117202 On ch=1 n=d5 v=0
117239 On ch=1 n=a6 v=87
117247 On ch=1 n=f4 v=0
117257 On ch=1 n=a#6 v=0
117274 On ch=1 n=d5 v=83
117280 On ch=1 n=g6 v=81
117289 On ch=1 n=a6 v=0
117297 On ch=1 n=a#4 v=0
117316 On ch=1 n=f6 v=85
117318 On ch=1 n=g6 v=0
117347 On ch=1 n=f4 v=103
117356 Par ch=1 c=64 v=63
117358 On ch=1 n=d#6 v=106
117361 On ch=1 n=f6 v=0
117363 On ch=1 n=d5 v=0
117367 Par ch=1 c=64 v=0
117407 On ch=1 n=d#6 v=0
117407 On ch=1 n=d6 v=97
117441 On ch=1 n=d6 v=0
117447 On ch=1 n=c6 v=84
117451 On ch=1 n=d5 v=81
117485 On ch=1 n=f4 v=0
117490 On ch=1 n=a#5 v=106
117504 On ch=1 n=c6 v=0
117523 On ch=1 n=a#5 v=0
117531 On ch=1 n=d5 v=0
117547 On ch=1 n=f4 v=108
117549 On ch=1 n=d6 v=116
117556 Par ch=1 c=64 v=63
117559 Par ch=1 c=64 v=127
117663 On ch=1 n=f5 v=59
117671 On ch=1 n=f4 v=0
117732 On ch=1 n=f5 v=0
117749 On ch=1 n=d6 v=0
117764 On ch=1 n=d5 v=108
117824 On ch=1 n=d5 v=0
117848 On ch=1 n=d#6 v=116
117854 On ch=1 n=f5 v=81
117907 On ch=1 n=f5 v=0
117929 Par ch=1 c=64 v=63
117933 Par ch=1 c=64 v=0
117940 On ch=1 n=d#6 v=0
117943 On ch=1 n=f4 v=99
117952 On ch=1 n=c6 v=106
118031 On ch=1 n=f4 v=0
118051 On ch=1 n=d#5 v=104
118075 Par ch=1 c=64 v=63
118077 Par ch=1 c=64 v=127
118088 On ch=1 n=d#5 v=0
118105 On ch=1 n=c6 v=0
118128 Par ch=1 c=64 v=63
118135 Par ch=1 c=64 v=0
118150 On ch=1 n=a#5 v=116
118192 Par ch=1 c=64 v=63
118193 Par ch=1 c=64 v=127
118201 On ch=1 n=a#4 v=94
118228 On ch=1 n=a#5 v=0
118250 On ch=1 n=d5 v=96
118273 On ch=1 n=a#4 v=0
118300 On ch=1 n=f5 v=88
118326 On ch=1 n=d5 v=0
118334 On ch=1 n=a#5 v=112
118337 Par ch=1 c=64 v=63
118341 Par ch=1 c=64 v=0
118352 On ch=1 n=f5 v=0
118361 On ch=1 n=a#5 v=0
118384 On ch=1 n=f6 v=108
118434 On ch=1 n=g6 v=86
118437 On ch=1 n=f6 v=0
118469 On ch=1 n=f6 v=76
118498 On ch=1 n=g6 v=0
118515 On ch=1 n=d#6 v=109
118525 On ch=1 n=a4 v=102
118527 On ch=1 n=f4 v=107
118532 On ch=1 n=f6 v=0
118553 On ch=1 n=a4 v=0
118556 On ch=1 n=f4 v=0
118562 On ch=1 n=d6 v=88
118564 On ch=1 n=d#6 v=0
118609 On ch=1 n=d#6 v=97
118621 On ch=1 n=d6 v=0
118653 On ch=1 n=d#6 v=0
118655 On ch=1 n=c6 v=94
118704 On ch=1 n=a#5 v=121
118721 Par ch=1 c=64 v=63
118722 On ch=1 n=c6 v=0
118723 Par ch=1 c=64 v=127
118735 On ch=1 n=a#3 v=99
118758 On ch=1 n=a#5 v=0
118779 On ch=1 n=d4 v=96
118809 On ch=1 n=a#3 v=0
118847 On ch=1 n=f4 v=68
118878 On ch=1 n=d4 v=0
118899 On ch=1 n=a#4 v=105
118908 Par ch=1 c=64 v=63
118912 Par ch=1 c=64 v=0
118913 On ch=1 n=f4 v=0
118927 On ch=1 n=a#4 v=0
118950 On ch=1 n=f5 v=112
119005 On ch=1 n=f5 v=0
119005 On ch=1 n=g5 v=84
119047 On ch=1 n=f5 v=81
119065 On ch=1 n=g5 v=0
119089 On ch=1 n=d#5 v=108
119093 On ch=1 n=a3 v=111
119097 On ch=1 n=f3 v=106
119107 On ch=1 n=f5 v=0
119122 On ch=1 n=a3 v=0
119124 On ch=1 n=f3 v=0
119129 On ch=1 n=d5 v=99
119139 On ch=1 n=d#5 v=0
119175 On ch=1 n=d#5 v=99
119191 On ch=1 n=d5 v=0
119225 On ch=1 n=c5 v=101
119229 On ch=1 n=d#5 v=0
119280 On ch=1 n=a#3 v=125
119281 On ch=1 n=a#4 v=123
119287 Par ch=1 c=64 v=127
119294 On ch=1 n=c5 v=0
119310 On ch=1 n=a#3 v=0
119315 On ch=1 n=a#4 v=0
119514 On ch=1 n=a#2 v=123
119518 On ch=1 n=d6 v=106
119518 On ch=1 n=a#6 v=118
119519 On ch=1 n=f6 v=111
119552 Par ch=1 c=64 v=63
119560 Par ch=1 c=64 v=0
119775 On ch=1 n=f6 v=0
119776 On ch=1 n=d6 v=0
119781 On ch=1 n=a#6 v=0
119782 On ch=1 n=a#2 v=0
120477 Par ch=1 c=64 v=127
120717 Par ch=1 c=64 v=0
120717 Meta TrkEnd
TrkEnd
MTrk
0 TimeSig 3/4 24 8
0 Meta TrkName "                                    "
0 Meta TrkEnd
TrkEnd
MTrk
0 TimeSig 3/4 24 8
0 Meta TrkName "                                    "
0 Meta TrkEnd
TrkEnd
MTrk
0 TimeSig 3/4 24 8
0 Meta TrkName "                                    "
0 Meta TrkEnd
TrkEnd
MTrk
0 TimeSig 3/4 24 8
0 Meta TrkName "                                    "
0 Meta TrkEnd
TrkEnd
MTrk
0 TimeSig 3/4 24 8
0 Meta TrkName "                                    "
0 Meta TrkEnd
TrkEnd
MTrk
0 TimeSig 3/4 24 8
0 Meta TrkName "                                    "
0 Meta TrkEnd
TrkEnd
MTrk
0 TimeSig 3/4 24 8
0 Meta TrkName "                                    "
0 Meta TrkEnd
TrkEnd
MTrk
0 TimeSig 3/4 24 8
0 Meta TrkName "                                    "
0 Meta TrkEnd
TrkEnd
MTrk
0 TimeSig 3/4 24 8
0 Meta TrkName "                                    "
0 Meta TrkEnd
TrkEnd
MTrk
0 TimeSig 3/4 24 8
0 Meta TrkName "                                    "
0 Meta TrkEnd
TrkEnd
MTrk
0 TimeSig 3/4 24 8
0 Meta TrkName "                                    "
0 Meta TrkEnd
TrkEnd
MTrk
0 TimeSig 3/4 24 8
0 Meta TrkName "                                    "
0 Meta TrkEnd
TrkEnd
MTrk
0 TimeSig 3/4 24 8
0 Meta TrkName "                                    "
0 Meta TrkEnd
TrkEnd
MTrk
0 TimeSig 3/4 24 8
0 Meta TrkName "                                    "
0 Meta TrkEnd
TrkEnd
MTrk
0 TimeSig 3/4 24 8
0 Meta TrkName "                                    "
0 Meta TrkEnd
TrkEnd
MTrk
0 TimeSig 3/4 24 8
0 Meta TrkName "                                    "
0 Meta TrkEnd
TrkEnd
MTrk
0 TimeSig 3/4 24 8
0 Meta TrkName "                                    "
0 Meta TrkEnd
TrkEnd
