MFile 1 18 240
MTrk
0 Tempo 500000
0 TimeSig 2/4 24 8
0 Meta Text "Mozart  Sonate D dur K.V.576 (3rd.mov.)  Play by Katsuhiro Oguri"
0 Meta TrkEnd
TrkEnd
MTrk
0 TimeSig 2/4 24 8
0 Meta TrkName "PIANO                               "
0 SysEx f0 41 10 42 12 40 00 7f 00 41 f7
0 SysEx f0 41 10 42 12 40 00 04 64 58 f7
170 SysEx f0 41 10 42 12 40 01 30 03 0c f7
170 SysEx f0 41 10 42 12 40 01 33 50 3c f7
170 SysEx f0 41 10 42 12 40 01 34 3c 4f f7
372 Par ch=1 c=0 v=0
374 Par ch=1 c=32 v=1
376 PrCh ch=1 p=0
378 Par ch=1 c=7 v=100
474 Par ch=1 c=11 v=100
570 Par ch=1 c=10 v=64
666 Par ch=1 c=1 v=0
666 Par ch=1 c=91 v=80
675 Par ch=1 c=99 v=1
677 Par ch=1 c=98 v=32
679 Par ch=1 c=6 v=62
681 Par ch=1 c=99 v=1
683 Par ch=1 c=98 v=33
685 Par ch=1 c=6 v=54
687 Par ch=1 c=99 v=1
689 Par ch=1 c=98 v=99
691 Par ch=1 c=6 v=62
693 Par ch=1 c=99 v=1
695 Par ch=1 c=98 v=100
697 Par ch=1 c=6 v=60
699 Par ch=1 c=99 v=1
701 Par ch=1 c=98 v=102
703 Par ch=1 c=6 v=70
1232 Par ch=1 c=64 v=63
1236 Par ch=1 c=64 v=127
1240 On ch=1 n=d6 v=85
1274 On ch=1 n=d6 v=0
1419 On ch=1 n=f#5 v=72
1420 On ch=1 n=a5 v=52
1449 On ch=1 n=f#5 v=0
1455 On ch=1 n=a5 v=0
1519 On ch=1 n=e6 v=84
1538 On ch=1 n=d6 v=86
1555 On ch=1 n=e6 v=0
1561 Par ch=1 c=64 v=63
1564 Par ch=1 c=64 v=0
1573 On ch=1 n=c#6 v=97
1580 On ch=1 n=d6 v=0
1586 On ch=1 n=a5 v=50
1587 On ch=1 n=f#5 v=57
1596 On ch=1 n=c#6 v=0
1610 On ch=1 n=f#5 v=0
1617 On ch=1 n=a5 v=0
1748 On ch=1 n=d6 v=96
1750 On ch=1 n=f#5 v=88
1755 On ch=1 n=a5 v=65
1772 On ch=1 n=d6 v=0
1780 On ch=1 n=f#5 v=0
1781 On ch=1 n=a5 v=0
1908 On ch=1 n=d#6 v=104
1920 Par ch=1 c=64 v=63
1921 Par ch=1 c=64 v=127
2042 On ch=1 n=d#6 v=0
2067 Par ch=1 c=64 v=63
2072 Par ch=1 c=64 v=0
2072 On ch=1 n=e6 v=94
2073 On ch=1 n=b5 v=71
2077 On ch=1 n=g5 v=63
2103 On ch=1 n=g5 v=0
2108 On ch=1 n=e6 v=0
2108 On ch=1 n=b5 v=0
2244 On ch=1 n=e6 v=94
2246 On ch=1 n=b5 v=78
2248 On ch=1 n=g5 v=71
2263 On ch=1 n=e6 v=0
2278 On ch=1 n=g5 v=0
2286 On ch=1 n=b5 v=0
2416 On ch=1 n=b5 v=88
2417 On ch=1 n=g5 v=87
2437 On ch=1 n=g5 v=0
2440 On ch=1 n=b5 v=0
2568 Par ch=1 c=64 v=63
2570 Par ch=1 c=64 v=127
2576 On ch=1 n=e6 v=107
2611 On ch=1 n=e6 v=0
2739 On ch=1 n=a5 v=73
2744 On ch=1 n=c#5 v=72
2769 On ch=1 n=c#5 v=0
2772 On ch=1 n=a5 v=0
2834 On ch=1 n=f#6 v=80
2861 On ch=1 n=e6 v=87
2882 On ch=1 n=f#6 v=0
2884 Par ch=1 c=64 v=63
2887 Par ch=1 c=64 v=0
2893 On ch=1 n=d6 v=100
2903 On ch=1 n=e6 v=0
2904 On ch=1 n=c#5 v=72
2905 On ch=1 n=a5 v=57
2915 On ch=1 n=d6 v=0
2921 On ch=1 n=c#5 v=0
2928 On ch=1 n=a5 v=0
3057 On ch=1 n=e6 v=104
3065 On ch=1 n=a5 v=84
3067 On ch=1 n=c#5 v=94
3089 On ch=1 n=e6 v=0
3090 On ch=1 n=a5 v=0
3096 On ch=1 n=c#5 v=0
3218 On ch=1 n=f6 v=104
3238 Par ch=1 c=64 v=63
3238 Par ch=1 c=64 v=127
3378 On ch=1 n=f#6 v=90
3384 Par ch=1 c=64 v=63
3386 On ch=1 n=f6 v=0
3386 On ch=1 n=a5 v=65
3390 On ch=1 n=d5 v=64
3391 Par ch=1 c=64 v=0
3408 On ch=1 n=f#6 v=0
3417 On ch=1 n=d5 v=0
3418 On ch=1 n=a5 v=0
3545 On ch=1 n=f#6 v=104
3548 On ch=1 n=a5 v=64
3551 On ch=1 n=d5 v=62
3573 On ch=1 n=f#6 v=0
3579 On ch=1 n=a5 v=0
3579 On ch=1 n=d5 v=0
3714 On ch=1 n=d5 v=91
3715 On ch=1 n=a5 v=77
3738 On ch=1 n=d5 v=0
3738 On ch=1 n=a5 v=0
3869 Par ch=1 c=64 v=63
3872 Par ch=1 c=64 v=127
3875 On ch=1 n=a6 v=108
3876 On ch=1 n=f#5 v=87
3876 On ch=1 n=a5 v=74
3996 On ch=1 n=a6 v=0
4005 On ch=1 n=b6 v=82
4033 Par ch=1 c=64 v=63
4038 Par ch=1 c=64 v=0
4038 On ch=1 n=g6 v=92
4045 On ch=1 n=e5 v=73
4065 On ch=1 n=b6 v=0
4069 On ch=1 n=f#5 v=0
4149 On ch=1 n=e5 v=0
4156 On ch=1 n=g6 v=0
4161 On ch=1 n=a6 v=83
4191 On ch=1 n=f#6 v=104
4206 On ch=1 n=a6 v=0
4208 On ch=1 n=d5 v=77
4224 On ch=1 n=f#6 v=0
4264 On ch=1 n=d5 v=0
4355 On ch=1 n=d6 v=94
4356 On ch=1 n=a5 v=0
4390 On ch=1 n=d6 v=0
4518 On ch=1 n=a5 v=79
4519 On ch=1 n=e5 v=84
4519 On ch=1 n=g6 v=112
4536 Par ch=1 c=64 v=63
4539 Par ch=1 c=64 v=127
4608 On ch=1 n=e5 v=0
4617 On ch=1 n=g6 v=0
4651 On ch=1 n=a6 v=91
4667 On ch=1 n=f#5 v=80
4673 Par ch=1 c=64 v=63
4676 Par ch=1 c=64 v=0
4690 On ch=1 n=f#6 v=96
4719 On ch=1 n=a6 v=0
4722 On ch=1 n=f#5 v=0
4804 On ch=1 n=f#6 v=0
4808 On ch=1 n=g6 v=72
4834 On ch=1 n=e6 v=96
4841 On ch=1 n=g5 v=73
4844 On ch=1 n=g6 v=0
4865 On ch=1 n=e6 v=0
4900 On ch=1 n=g5 v=0
4946 On ch=1 n=a5 v=0
5010 On ch=1 n=c#6 v=108
5041 On ch=1 n=c#6 v=0
5161 On ch=1 n=f#5 v=88
5163 On ch=1 n=d6 v=99
5167 On ch=1 n=a5 v=65
5182 On ch=1 n=f#5 v=0
5190 On ch=1 n=a5 v=0
5196 On ch=1 n=d6 v=0
5340 On ch=1 n=d6 v=97
5361 On ch=1 n=d6 v=0
5499 On ch=1 n=c#6 v=96
5500 On ch=1 n=a5 v=68
5504 On ch=1 n=e5 v=72
5522 On ch=1 n=c#6 v=0
5524 On ch=1 n=a5 v=0
5528 On ch=1 n=e5 v=0
5670 On ch=1 n=c#6 v=88
5687 On ch=1 n=c#6 v=0
5823 On ch=1 n=e4 v=82
5830 On ch=1 n=d5 v=69
5830 On ch=1 n=b5 v=88
5833 Par ch=1 c=64 v=63
5835 Par ch=1 c=64 v=127
5845 On ch=1 n=c#6 v=86
5861 On ch=1 n=b5 v=0
5876 On ch=1 n=c#6 v=0
5886 On ch=1 n=b5 v=87
5938 On ch=1 n=e4 v=0
5975 On ch=1 n=b5 v=0
5985 On ch=1 n=a5 v=79
6002 Par ch=1 c=64 v=63
6004 Par ch=1 c=64 v=0
6016 On ch=1 n=b5 v=85
6030 On ch=1 n=a5 v=0
6137 On ch=1 n=b5 v=0
6141 On ch=1 n=c#6 v=84
6174 On ch=1 n=a5 v=93
6175 Par ch=1 c=64 v=63
6177 On ch=1 n=a4 v=59
6177 Par ch=1 c=64 v=127
6181 On ch=1 n=c#6 v=0
6181 On ch=1 n=c#5 v=78
6210 On ch=1 n=a5 v=0
6214 On ch=1 n=d5 v=0
6312 On ch=1 n=a4 v=0
6322 On ch=1 n=c#5 v=0
6328 Par ch=1 c=64 v=63
6331 Par ch=1 c=64 v=0
6515 On ch=1 n=d6 v=124
6520 On ch=1 n=d5 v=109
6520 Par ch=1 c=64 v=127
6578 On ch=1 n=e5 v=93
6580 On ch=1 n=d5 v=0
6605 On ch=1 n=d6 v=0
6633 On ch=1 n=e5 v=0
6634 On ch=1 n=f#5 v=97
6677 On ch=1 n=e5 v=71
6678 On ch=1 n=f#5 v=0
6726 On ch=1 n=d5 v=94
6737 On ch=1 n=e5 v=0
6780 On ch=1 n=e6 v=100
6789 On ch=1 n=c#5 v=84
6804 On ch=1 n=d6 v=99
6805 On ch=1 n=d5 v=0
6824 On ch=1 n=e6 v=0
6841 On ch=1 n=c#6 v=116
6849 Par ch=1 c=64 v=63
6850 On ch=1 n=b4 v=90
6851 On ch=1 n=c#5 v=0
6852 Par ch=1 c=64 v=0
6857 On ch=1 n=d6 v=0
6879 On ch=1 n=c#6 v=0
6906 On ch=1 n=c#5 v=96
6931 On ch=1 n=b4 v=0
6969 On ch=1 n=c#5 v=0
6971 On ch=1 n=d5 v=82
7005 On ch=1 n=d6 v=97
7015 On ch=1 n=e6 v=55
7016 On ch=1 n=c#5 v=97
7022 On ch=1 n=d5 v=0
7038 On ch=1 n=d6 v=0
7040 On ch=1 n=e6 v=0
7055 On ch=1 n=c#5 v=0
7070 On ch=1 n=b4 v=97
7115 On ch=1 n=a4 v=86
7123 On ch=1 n=b4 v=0
7162 On ch=1 n=d#6 v=115
7163 On ch=1 n=g4 v=103
7172 On ch=1 n=a4 v=0
7210 On ch=1 n=a4 v=99
7229 On ch=1 n=g4 v=0
7262 On ch=1 n=b4 v=93
7271 On ch=1 n=a4 v=0
7320 On ch=1 n=a4 v=77
7320 On ch=1 n=e6 v=109
7327 On ch=1 n=b4 v=0
7328 On ch=1 n=d#6 v=0
7354 On ch=1 n=e6 v=0
7359 On ch=1 n=g4 v=84
7367 On ch=1 n=a4 v=0
7427 On ch=1 n=f#4 v=94
7431 On ch=1 n=g4 v=0
7479 On ch=1 n=e4 v=85
7481 On ch=1 n=f#4 v=0
7491 On ch=1 n=e6 v=89
7522 On ch=1 n=e6 v=0
7542 On ch=1 n=f#4 v=89
7561 On ch=1 n=e4 v=0
7600 On ch=1 n=g4 v=91
7601 On ch=1 n=f#4 v=0
7644 On ch=1 n=f#4 v=106
7659 On ch=1 n=g4 v=0
7688 On ch=1 n=f#4 v=0
7704 On ch=1 n=e4 v=108
7752 On ch=1 n=d4 v=106
7762 On ch=1 n=e4 v=0
7798 On ch=1 n=c#4 v=114
7810 On ch=1 n=d4 v=0
7813 On ch=1 n=e6 v=122
7859 On ch=1 n=d4 v=107
7881 On ch=1 n=c#4 v=0
7883 Par ch=1 c=64 v=63
7890 Par ch=1 c=64 v=127
7911 On ch=1 n=e4 v=98
7916 On ch=1 n=d4 v=0
7949 On ch=1 n=e6 v=0
7963 On ch=1 n=d4 v=99
7978 On ch=1 n=e4 v=0
7998 On ch=1 n=c#4 v=109
8021 On ch=1 n=d4 v=0
8053 On ch=1 n=c#4 v=0
8064 On ch=1 n=b3 v=100
8075 On ch=1 n=f#6 v=95
8105 On ch=1 n=e6 v=108
8122 On ch=1 n=f#6 v=0
8125 On ch=1 n=b3 v=0
8129 On ch=1 n=a3 v=99
8152 On ch=1 n=d6 v=102
8161 Par ch=1 c=64 v=63
8169 Par ch=1 c=64 v=0
8171 On ch=1 n=e6 v=0
8180 On ch=1 n=b3 v=94
8182 On ch=1 n=a3 v=0
8204 On ch=1 n=d6 v=0
8230 On ch=1 n=a3 v=88
8244 On ch=1 n=b3 v=0
8288 On ch=1 n=g3 v=97
8295 On ch=1 n=a3 v=0
8303 Par ch=1 c=64 v=63
8305 On ch=1 n=e6 v=116
8309 Par ch=1 c=64 v=127
8340 On ch=1 n=f#3 v=101
8344 On ch=1 n=e6 v=0
8348 On ch=1 n=g3 v=0
8403 On ch=1 n=e3 v=109
8407 On ch=1 n=f#3 v=0
8442 Par ch=1 c=64 v=63
8447 On ch=1 n=e3 v=0
8448 Par ch=1 c=64 v=0
8457 On ch=1 n=d3 v=81
8459 On ch=1 n=f6 v=116
8462 On ch=1 n=e3 v=86
8472 Par ch=1 c=64 v=63
8484 Par ch=1 c=64 v=127
8517 On ch=1 n=f#3 v=107
8522 On ch=1 n=e3 v=0
8539 On ch=1 n=d3 v=0
8571 On ch=1 n=g3 v=111
8581 On ch=1 n=f#3 v=0
8613 On ch=1 n=a3 v=98
8622 On ch=1 n=f#6 v=114
8624 On ch=1 n=g3 v=0
8639 On ch=1 n=f6 v=0
8654 Par ch=1 c=64 v=63
8661 On ch=1 n=f#6 v=0
8661 On ch=1 n=b3 v=106
8665 Par ch=1 c=64 v=0
8679 On ch=1 n=a3 v=0
8721 On ch=1 n=c#4 v=115
8743 On ch=1 n=b3 v=0
8771 On ch=1 n=d4 v=104
8772 On ch=1 n=f#6 v=119
8779 On ch=1 n=c#4 v=0
8807 On ch=1 n=f#6 v=0
8828 On ch=1 n=e4 v=80
8842 On ch=1 n=d4 v=0
8867 On ch=1 n=f#4 v=104
8898 On ch=1 n=e4 v=0
8930 On ch=1 n=g4 v=103
8944 On ch=1 n=f#4 v=0
8968 On ch=1 n=a4 v=90
8983 On ch=1 n=g4 v=0
9019 On ch=1 n=b4 v=108
9034 On ch=1 n=a4 v=0
9076 On ch=1 n=c5 v=126
9086 On ch=1 n=d5 v=107
9103 On ch=1 n=b4 v=0
9117 Par ch=1 c=64 v=63
9118 Par ch=1 c=64 v=127
9147 On ch=1 n=d5 v=0
9148 On ch=1 n=f#5 v=105
9188 On ch=1 n=a5 v=93
9193 On ch=1 n=f#5 v=0
9205 On ch=1 n=a5 v=0
9244 On ch=1 n=d6 v=112
9297 On ch=1 n=d6 v=0
9303 On ch=1 n=e6 v=93
9310 On ch=1 n=c5 v=0
9339 On ch=1 n=f#6 v=108
9365 On ch=1 n=e6 v=0
9397 On ch=1 n=g6 v=93
9400 On ch=1 n=b4 v=117
9415 On ch=1 n=f#6 v=0
9432 Par ch=1 c=64 v=63
9442 Par ch=1 c=64 v=0
9445 On ch=1 n=f#6 v=88
9462 On ch=1 n=g6 v=0
9506 On ch=1 n=b4 v=0
9506 On ch=1 n=g6 v=97
9529 On ch=1 n=f#6 v=0
9564 On ch=1 n=b6 v=99
9569 On ch=1 n=g6 v=0
9606 On ch=1 n=g6 v=93
9616 On ch=1 n=b6 v=0
9660 On ch=1 n=d6 v=91
9667 On ch=1 n=g6 v=0
9694 On ch=1 n=d6 v=0
9713 Par ch=1 c=64 v=63
9715 Par ch=1 c=64 v=127
9716 On ch=1 n=g4 v=118
9719 On ch=1 n=a5 v=92
9775 On ch=1 n=c#6 v=106
9778 On ch=1 n=a5 v=0
9821 On ch=1 n=e6 v=87
9827 On ch=1 n=c#6 v=0
9852 On ch=1 n=e6 v=0
9862 On ch=1 n=g4 v=0
9879 On ch=1 n=a6 v=109
9929 On ch=1 n=b6 v=98
9932 On ch=1 n=a6 v=0
9974 On ch=1 n=c#7 v=112
9998 On ch=1 n=b6 v=0
10027 On ch=1 n=f#4 v=115
10030 On ch=1 n=d7 v=103
10044 On ch=1 n=c#7 v=0
10060 Par ch=1 c=64 v=63
10066 Par ch=1 c=64 v=0
10084 On ch=1 n=c#7 v=101
10094 Par ch=1 c=64 v=63
10097 On ch=1 n=d7 v=0
10107 Par ch=1 c=64 v=127
10127 On ch=1 n=b6 v=99
10134 On ch=1 n=f#4 v=0
10139 On ch=1 n=c#7 v=0
10172 Par ch=1 c=64 v=63
10181 Par ch=1 c=64 v=0
10183 On ch=1 n=b6 v=0
10183 On ch=1 n=a6 v=81
10215 On ch=1 n=a6 v=0
10226 On ch=1 n=g6 v=96
10277 On ch=1 n=f#6 v=108
10289 On ch=1 n=g6 v=0
10315 On ch=1 n=f#6 v=0
10326 On ch=1 n=d#6 v=114
10349 Par ch=1 c=64 v=63
10354 Par ch=1 c=64 v=127
10380 On ch=1 n=d#6 v=0
10381 On ch=1 n=e6 v=112
10432 On ch=1 n=g6 v=108
10442 On ch=1 n=e6 v=0
10479 On ch=1 n=b6 v=106
10479 Par ch=1 c=64 v=63
10482 On ch=1 n=g5 v=114
10485 Par ch=1 c=64 v=0
10486 On ch=1 n=g4 v=99
10492 On ch=1 n=g6 v=0
10511 On ch=1 n=g4 v=0
10516 On ch=1 n=g5 v=0
10525 On ch=1 n=g6 v=93
10559 On ch=1 n=b6 v=0
10574 On ch=1 n=e6 v=97
10580 On ch=1 n=g6 v=0
10621 On ch=1 n=e6 v=0
10637 On ch=1 n=f#5 v=113
10638 On ch=1 n=a4 v=87
10641 On ch=1 n=a6 v=106
10669 On ch=1 n=f#5 v=0
10671 On ch=1 n=a4 v=0
10689 On ch=1 n=f#6 v=101
10714 On ch=1 n=a6 v=0
10741 On ch=1 n=d6 v=88
10751 On ch=1 n=f#6 v=0
10787 On ch=1 n=d6 v=0
10793 On ch=1 n=g6 v=94
10797 On ch=1 n=e5 v=104
10799 On ch=1 n=a4 v=100
10828 On ch=1 n=e5 v=0
10832 On ch=1 n=a4 v=0
10836 On ch=1 n=e6 v=89
10852 On ch=1 n=g6 v=0
10889 On ch=1 n=c#6 v=101
10892 On ch=1 n=e6 v=0
10939 On ch=1 n=c#6 v=0
10946 On ch=1 n=d4 v=98
10949 On ch=1 n=d6 v=109
10977 Par ch=1 c=64 v=63
10979 Par ch=1 c=64 v=127
11005 On ch=1 n=f#4 v=98
11032 On ch=1 n=d4 v=0
11052 On ch=1 n=a4 v=97
11056 On ch=1 n=d6 v=0
11081 On ch=1 n=f#4 v=0
11096 On ch=1 n=d5 v=101
11105 On ch=1 n=a4 v=0
11154 On ch=1 n=a4 v=84
11162 On ch=1 n=d5 v=0
11190 On ch=1 n=f#4 v=99
11200 On ch=1 n=a4 v=0
11245 On ch=1 n=f#4 v=0
11254 On ch=1 n=d4 v=92
11278 Par ch=1 c=64 v=63
11303 On ch=1 n=f#4 v=82
11318 Par ch=1 c=64 v=127
11359 On ch=1 n=a4 v=66
11376 On ch=1 n=f#4 v=0
11420 On ch=1 n=d7 v=107
11424 On ch=1 n=d5 v=74
11429 On ch=1 n=a4 v=0
11485 On ch=1 n=d5 v=0
11489 On ch=1 n=d4 v=0
11490 On ch=1 n=a4 v=56
11523 On ch=1 n=f#4 v=90
11546 On ch=1 n=a4 v=0
11584 On ch=1 n=d4 v=87
11593 On ch=1 n=c#7 v=106
11599 On ch=1 n=f#4 v=0
11602 Par ch=1 c=64 v=63
11623 Par ch=1 c=64 v=127
11625 On ch=1 n=d7 v=0
11648 On ch=1 n=e4 v=88
11669 On ch=1 n=a6 v=101
11674 On ch=1 n=d4 v=0
11699 On ch=1 n=c#7 v=0
11711 On ch=1 n=g4 v=82
11736 On ch=1 n=e4 v=0
11736 On ch=1 n=a6 v=0
11758 On ch=1 n=g6 v=111
11767 On ch=1 n=c#5 v=93
11768 On ch=1 n=g4 v=0
11812 On ch=1 n=c#5 v=0
11813 On ch=1 n=g4 v=40
11852 On ch=1 n=e4 v=88
11867 On ch=1 n=g4 v=0
11903 On ch=1 n=d4 v=96
11910 On ch=1 n=e4 v=0
11943 On ch=1 n=g6 v=0
11961 On ch=1 n=e4 v=91
11968 On ch=1 n=d4 v=0
12028 On ch=1 n=g4 v=79
12035 On ch=1 n=e4 v=0
12073 On ch=1 n=g4 v=0
12073 On ch=1 n=e6 v=101
12087 On ch=1 n=c#5 v=92
12121 On ch=1 n=c#5 v=0
12131 On ch=1 n=g4 v=50
12143 On ch=1 n=e6 v=0
12154 On ch=1 n=c#6 v=106
12162 On ch=1 n=e4 v=84
12176 On ch=1 n=g4 v=0
12219 On ch=1 n=d4 v=83
12220 Par ch=1 c=64 v=63
12222 On ch=1 n=e4 v=0
12226 Par ch=1 c=64 v=0
12231 On ch=1 n=d6 v=101
12241 On ch=1 n=c#6 v=0
12273 Par ch=1 c=64 v=63
12285 Par ch=1 c=64 v=127
12286 On ch=1 n=f#4 v=91
12289 On ch=1 n=d4 v=0
12342 On ch=1 n=a4 v=70
12344 On ch=1 n=f#4 v=0
12367 On ch=1 n=d6 v=0
12384 On ch=1 n=a4 v=0
12388 On ch=1 n=d5 v=82
12444 On ch=1 n=d5 v=0
12454 On ch=1 n=a4 v=55
12492 On ch=1 n=f#4 v=88
12500 On ch=1 n=a4 v=0
12542 On ch=1 n=f#4 v=0
12554 On ch=1 n=d4 v=84
12569 Par ch=1 c=64 v=63
12602 Par ch=1 c=64 v=127
12604 On ch=1 n=f#4 v=87
12618 On ch=1 n=d4 v=0
12661 On ch=1 n=a4 v=68
12668 On ch=1 n=f#4 v=0
12715 On ch=1 n=a4 v=0
12715 On ch=1 n=d7 v=92
12721 On ch=1 n=d5 v=60
12772 On ch=1 n=d5 v=0
12780 On ch=1 n=a4 v=49
12812 On ch=1 n=f#4 v=80
12829 On ch=1 n=a4 v=0
12882 On ch=1 n=d4 v=72
12883 Par ch=1 c=64 v=63
12888 On ch=1 n=c#7 v=95
12891 On ch=1 n=f#4 v=0
12902 On ch=1 n=d7 v=0
12912 Par ch=1 c=64 v=127
12939 On ch=1 n=e4 v=78
12957 On ch=1 n=a6 v=89
12960 On ch=1 n=c#7 v=0
12962 On ch=1 n=d4 v=0
13015 On ch=1 n=g4 v=77
13018 On ch=1 n=a6 v=0
13024 On ch=1 n=e4 v=0
13050 On ch=1 n=g6 v=76
13060 On ch=1 n=c#5 v=87
13066 On ch=1 n=g4 v=0
13074 Par ch=1 c=64 v=63
13095 Par ch=1 c=64 v=127
13105 On ch=1 n=c#5 v=0
13107 On ch=1 n=g4 v=73
13153 On ch=1 n=e4 v=76
13171 On ch=1 n=g4 v=0
13202 On ch=1 n=g6 v=0
13209 On ch=1 n=d4 v=88
13217 On ch=1 n=e4 v=0
13260 On ch=1 n=e4 v=83
13270 On ch=1 n=d4 v=0
13322 On ch=1 n=g4 v=62
13329 On ch=1 n=e4 v=0
13368 On ch=1 n=g4 v=0
13376 On ch=1 n=c#5 v=96
13383 On ch=1 n=e6 v=101
13414 On ch=1 n=c#5 v=0
13433 On ch=1 n=g4 v=38
13436 On ch=1 n=e6 v=0
13440 On ch=1 n=c#6 v=100
13466 On ch=1 n=e4 v=83
13475 On ch=1 n=g4 v=0
13486 On ch=1 n=c#6 v=0
13513 Par ch=1 c=64 v=63
13519 Par ch=1 c=64 v=0
13521 On ch=1 n=d4 v=109
13528 On ch=1 n=d6 v=107
13532 On ch=1 n=e4 v=0
13548 Par ch=1 c=64 v=63
13553 On ch=1 n=d4 v=0
13562 Par ch=1 c=64 v=127
13572 On ch=1 n=d6 v=0
13577 On ch=1 n=a5 v=93
13594 Par ch=1 c=64 v=63
13609 Par ch=1 c=64 v=0
13623 On ch=1 n=a5 v=0
13624 On ch=1 n=f#6 v=104
13675 On ch=1 n=f#6 v=0
13676 On ch=1 n=e6 v=97
13724 On ch=1 n=c#6 v=110
13736 On ch=1 n=e6 v=0
13767 On ch=1 n=c#6 v=0
13769 On ch=1 n=g6 v=102
13816 On ch=1 n=f#6 v=109
13831 On ch=1 n=g6 v=0
13864 On ch=1 n=d6 v=106
13869 On ch=1 n=f#6 v=0
13910 On ch=1 n=d6 v=0
13915 On ch=1 n=a6 v=97
13967 On ch=1 n=g6 v=92
13971 On ch=1 n=a4 v=99
13972 On ch=1 n=g5 v=109
13975 On ch=1 n=e5 v=102
13992 On ch=1 n=e5 v=0
13993 On ch=1 n=a6 v=0
14001 On ch=1 n=g5 v=0
14006 On ch=1 n=a4 v=0
14016 On ch=1 n=e6 v=101
14024 On ch=1 n=g6 v=0
14063 On ch=1 n=e6 v=0
14065 On ch=1 n=c#6 v=105
14095 On ch=1 n=c#6 v=0
14125 On ch=1 n=d5 v=113
14126 On ch=1 n=d6 v=111
14127 On ch=1 n=f#5 v=118
14143 Par ch=1 c=64 v=63
14146 Par ch=1 c=64 v=127
14151 On ch=1 n=f#5 v=0
14153 On ch=1 n=d5 v=0
14167 On ch=1 n=d6 v=0
14176 On ch=1 n=a5 v=90
14215 On ch=1 n=a5 v=0
14227 On ch=1 n=f#6 v=104
14277 On ch=1 n=e6 v=96
14280 On ch=1 n=f#6 v=0
14282 Par ch=1 c=64 v=63
14287 Par ch=1 c=64 v=0
14333 On ch=1 n=c#6 v=104
14334 On ch=1 n=e6 v=0
14377 On ch=1 n=c#6 v=0
14378 On ch=1 n=g6 v=96
14425 On ch=1 n=f#6 v=107
14435 On ch=1 n=g6 v=0
14466 On ch=1 n=d6 v=104
14475 On ch=1 n=f#6 v=0
14513 On ch=1 n=d6 v=0
14517 On ch=1 n=a6 v=93
14568 On ch=1 n=g6 v=97
14576 On ch=1 n=g5 v=113
14578 On ch=1 n=e5 v=108
14578 On ch=1 n=a4 v=106
14593 On ch=1 n=a6 v=0
14597 On ch=1 n=g5 v=0
14604 On ch=1 n=e5 v=0
14614 On ch=1 n=a4 v=0
14619 On ch=1 n=e6 v=93
14625 On ch=1 n=g6 v=0
14663 On ch=1 n=c#6 v=103
14666 On ch=1 n=e6 v=0
14699 On ch=1 n=c#6 v=0
14727 On ch=1 n=d6 v=108
14732 On ch=1 n=d5 v=109
14733 On ch=1 n=d4 v=114
14747 On ch=1 n=d5 v=0
14766 On ch=1 n=d4 v=0
14781 On ch=1 n=f#6 v=103
14792 On ch=1 n=d6 v=0
14820 On ch=1 n=d6 v=87
14836 On ch=1 n=f#6 v=0
14873 On ch=1 n=d6 v=0
14882 On ch=1 n=a5 v=96
14883 On ch=1 n=a4 v=109
14884 On ch=1 n=a3 v=100
14912 On ch=1 n=a4 v=0
14915 On ch=1 n=a3 v=0
14917 On ch=1 n=a5 v=0
14934 On ch=1 n=d6 v=104
14978 On ch=1 n=a5 v=98
14989 On ch=1 n=d6 v=0
15034 On ch=1 n=f#5 v=109
15038 On ch=1 n=a5 v=0
15042 On ch=1 n=f#4 v=120
15043 On ch=1 n=f#3 v=119
15067 On ch=1 n=f#4 v=0
15075 On ch=1 n=f#3 v=0
15081 On ch=1 n=a5 v=101
15092 On ch=1 n=f#5 v=0
15141 On ch=1 n=f#5 v=95
15151 On ch=1 n=a5 v=0
15185 On ch=1 n=f#5 v=0
15188 On ch=1 n=d5 v=103
15189 On ch=1 n=d4 v=109
15194 On ch=1 n=d3 v=111
15216 On ch=1 n=d3 v=0
15218 On ch=1 n=d4 v=0
15236 On ch=1 n=d5 v=0
15243 On ch=1 n=f#5 v=108
15285 On ch=1 n=d5 v=97
15293 On ch=1 n=f#5 v=0
15318 On ch=1 n=d5 v=0
15344 On ch=1 n=a2 v=127
15344 On ch=1 n=a4 v=121
15360 Par ch=1 c=64 v=63
15360 Par ch=1 c=64 v=127
15379 On ch=1 n=a4 v=0
15403 On ch=1 n=c#3 v=109
15430 On ch=1 n=a2 v=0
15462 On ch=1 n=e3 v=100
15481 On ch=1 n=c#3 v=0
15499 On ch=1 n=e3 v=0
15503 On ch=1 n=a3 v=98
15546 On ch=1 n=a3 v=0
15556 On ch=1 n=c#4 v=113
15602 On ch=1 n=c#4 v=0
15607 Par ch=1 c=64 v=63
15610 On ch=1 n=e4 v=108
15612 Par ch=1 c=64 v=0
15649 On ch=1 n=e4 v=0
15656 Par ch=1 c=64 v=63
15665 Par ch=1 c=64 v=127
15666 On ch=1 n=d3 v=121
15667 On ch=1 n=d6 v=122
15668 On ch=1 n=f#6 v=121
15669 On ch=1 n=a5 v=117
15700 On ch=1 n=a5 v=0
15701 On ch=1 n=d6 v=0
15715 On ch=1 n=f#6 v=0
15725 On ch=1 n=f#3 v=97
15741 On ch=1 n=d3 v=0
15774 On ch=1 n=a3 v=92
15793 On ch=1 n=f#3 v=0
15814 On ch=1 n=a3 v=0
15817 On ch=1 n=d4 v=82
15857 On ch=1 n=d4 v=0
15883 On ch=1 n=f#4 v=106
15935 On ch=1 n=f#4 v=0
15935 On ch=1 n=a4 v=104
15982 On ch=1 n=a4 v=0
15984 Par ch=1 c=64 v=63
15989 Par ch=1 c=64 v=0
15995 On ch=1 n=a3 v=107
15998 On ch=1 n=c#4 v=105
16005 On ch=1 n=a4 v=98
16025 Par ch=1 c=64 v=63
16037 Par ch=1 c=64 v=127
16057 On ch=1 n=c#5 v=114
16075 On ch=1 n=a4 v=0
16102 On ch=1 n=c#5 v=0
16104 On ch=1 n=e5 v=96
16126 On ch=1 n=e5 v=0
16136 On ch=1 n=a3 v=0
16153 On ch=1 n=c#4 v=0
16165 On ch=1 n=a5 v=101
16200 On ch=1 n=a5 v=0
16203 On ch=1 n=c#6 v=105
16255 On ch=1 n=e6 v=109
16264 On ch=1 n=c#6 v=0
16287 On ch=1 n=e6 v=0
16306 On ch=1 n=d4 v=98
16316 On ch=1 n=a3 v=108
16322 Par ch=1 c=64 v=63
16323 On ch=1 n=f#6 v=110
16329 Par ch=1 c=64 v=0
16359 Par ch=1 c=64 v=63
16366 On ch=1 n=a6 v=102
16373 Par ch=1 c=64 v=127
16377 On ch=1 n=f#6 v=0
16398 On ch=1 n=a3 v=0
16404 On ch=1 n=d4 v=0
16419 On ch=1 n=d7 v=113
16429 On ch=1 n=a6 v=0
16441 Par ch=1 c=64 v=63
16448 Par ch=1 c=64 v=0
16463 On ch=1 n=a6 v=107
16485 On ch=1 n=d7 v=0
16516 On ch=1 n=f#6 v=114
16533 On ch=1 n=a6 v=0
16561 On ch=1 n=d6 v=97
16582 On ch=1 n=f#6 v=0
16610 On ch=1 n=d6 v=0
16624 On ch=1 n=a6 v=114
16626 On ch=1 n=c#4 v=119
16626 On ch=1 n=a3 v=108
16654 Par ch=1 c=64 v=63
16656 On ch=1 n=a6 v=0
16656 Par ch=1 c=64 v=127
16668 On ch=1 n=c#4 v=0
16668 On ch=1 n=a3 v=0
16816 On ch=1 n=a5 v=120
16854 On ch=1 n=a5 v=0
16999 Par ch=1 c=64 v=63
17009 Par ch=1 c=64 v=0
17354 On ch=1 n=a4 v=102
17386 Par ch=1 c=64 v=63
17397 Par ch=1 c=64 v=127
17539 On ch=1 n=a4 v=0
17666 On ch=1 n=b4 v=74
17692 On ch=1 n=a4 v=78
17709 On ch=1 n=b4 v=0
17728 Par ch=1 c=64 v=63
17738 On ch=1 n=g#4 v=96
17744 Par ch=1 c=64 v=0
17749 On ch=1 n=a4 v=0
17772 On ch=1 n=g#4 v=0
17922 On ch=1 n=a4 v=102
17957 On ch=1 n=a4 v=0
18095 On ch=1 n=a#4 v=104
18105 Par ch=1 c=64 v=63
18114 Par ch=1 c=64 v=127
18264 On ch=1 n=d7 v=89
18265 On ch=1 n=b4 v=76
18275 On ch=1 n=a#4 v=0
18290 Par ch=1 c=64 v=63
18305 Par ch=1 c=64 v=0
18309 On ch=1 n=b4 v=0
18331 On ch=1 n=f#6 v=87
18342 On ch=1 n=d7 v=0
18414 On ch=1 n=f#6 v=0
18418 On ch=1 n=a6 v=76
18424 On ch=1 n=b4 v=84
18590 On ch=1 n=b4 v=0
18600 On ch=1 n=g#6 v=76
18610 On ch=1 n=a6 v=0
18724 On ch=1 n=g#6 v=0
18759 On ch=1 n=b4 v=102
18771 Par ch=1 c=64 v=63
18783 Par ch=1 c=64 v=127
18884 On ch=1 n=b4 v=0
19054 On ch=1 n=c#5 v=86
19078 On ch=1 n=b4 v=86
19080 On ch=1 n=c#5 v=0
19100 Par ch=1 c=64 v=63
19111 Par ch=1 c=64 v=0
19119 On ch=1 n=a4 v=93
19133 On ch=1 n=b4 v=0
19162 On ch=1 n=a4 v=0
19280 On ch=1 n=b4 v=108
19313 On ch=1 n=b4 v=0
19449 On ch=1 n=c5 v=107
19467 Par ch=1 c=64 v=63
19478 Par ch=1 c=64 v=127
19617 On ch=1 n=c5 v=0
19624 On ch=1 n=c#5 v=74
19628 On ch=1 n=e7 v=84
19635 Par ch=1 c=64 v=63
19641 On ch=1 n=c#5 v=0
19648 Par ch=1 c=64 v=0
19697 On ch=1 n=g#6 v=82
19699 On ch=1 n=e7 v=0
19787 On ch=1 n=b6 v=83
19788 On ch=1 n=g#6 v=0
19789 Par ch=1 c=64 v=63
19790 On ch=1 n=c#5 v=88
19801 Par ch=1 c=64 v=127
19919 On ch=1 n=c#5 v=0
19961 On ch=1 n=b6 v=0
19965 On ch=1 n=a#6 v=76
19974 Par ch=1 c=64 v=63
19999 Par ch=1 c=64 v=0
20038 On ch=1 n=a#6 v=0
20137 On ch=1 n=b6 v=68
20138 Par ch=1 c=64 v=63
20154 Par ch=1 c=64 v=127
20293 On ch=1 n=b6 v=0
20315 On ch=1 n=f#6 v=54
20319 On ch=1 n=d6 v=52
20354 On ch=1 n=f#6 v=0
20354 On ch=1 n=d6 v=0
20410 On ch=1 n=a#6 v=84
20439 On ch=1 n=b6 v=84
20449 On ch=1 n=a#6 v=0
20469 Par ch=1 c=64 v=63
20471 On ch=1 n=c#6 v=80
20474 Par ch=1 c=64 v=0
20476 On ch=1 n=e6 v=69
20482 On ch=1 n=c#7 v=85
20491 On ch=1 n=b6 v=0
20520 On ch=1 n=c#7 v=0
20629 On ch=1 n=c#6 v=0
20635 On ch=1 n=e6 v=0
20642 On ch=1 n=d7 v=88
20652 On ch=1 n=b5 v=69
20653 On ch=1 n=d6 v=74
20682 On ch=1 n=d7 v=0
20818 On ch=1 n=g6 v=84
20823 On ch=1 n=b5 v=0
20827 On ch=1 n=e6 v=56
20829 On ch=1 n=a#5 v=68
20837 On ch=1 n=d6 v=0
20845 Par ch=1 c=64 v=63
20850 Par ch=1 c=64 v=127
20995 On ch=1 n=f#6 v=73
21005 On ch=1 n=g6 v=0
21042 On ch=1 n=f#6 v=0
21043 Par ch=1 c=64 v=63
21068 Par ch=1 c=64 v=0
21103 On ch=1 n=a#5 v=0
21154 On ch=1 n=e6 v=0
21159 On ch=1 n=d6 v=76
21160 On ch=1 n=b5 v=73
21203 Par ch=1 c=64 v=63
21215 Par ch=1 c=64 v=127
21321 On ch=1 n=d7 v=97
21355 On ch=1 n=b5 v=0
21387 On ch=1 n=d7 v=0
21492 On ch=1 n=f6 v=77
21501 On ch=1 n=g#5 v=48
21567 Par ch=1 c=64 v=63
21598 Par ch=1 c=64 v=0
21675 On ch=1 n=e6 v=71
21704 On ch=1 n=f6 v=0
21801 On ch=1 n=e6 v=0
21809 On ch=1 n=g#5 v=0
21827 On ch=1 n=c#6 v=80
21833 On ch=1 n=a5 v=65
21866 On ch=1 n=d6 v=0
21940 Par ch=1 c=64 v=63
21959 Par ch=1 c=64 v=127
21997 On ch=1 n=e6 v=91
22055 On ch=1 n=c#7 v=97
22091 On ch=1 n=e6 v=0
22143 On ch=1 n=c#7 v=0
22143 On ch=1 n=b6 v=87
22146 On ch=1 n=f#5 v=88
22193 On ch=1 n=a5 v=0
22214 Par ch=1 c=64 v=63
22261 On ch=1 n=c#6 v=0
22282 Par ch=1 c=64 v=127
22319 On ch=1 n=a6 v=98
22321 On ch=1 n=c6 v=96
22364 On ch=1 n=b6 v=0
22437 On ch=1 n=f#5 v=0
22474 On ch=1 n=c6 v=0
22485 On ch=1 n=b5 v=94
22486 On ch=1 n=f5 v=93
22542 Par ch=1 c=64 v=63
22547 On ch=1 n=a6 v=0
22563 Par ch=1 c=64 v=127
22650 On ch=1 n=a5 v=93
22652 On ch=1 n=d#6 v=112
22676 On ch=1 n=b5 v=0
22687 On ch=1 n=f5 v=0
22698 On ch=1 n=a5 v=0
22719 On ch=1 n=d#6 v=0
22848 On ch=1 n=g#5 v=110
22850 On ch=1 n=e6 v=124
22851 On ch=1 n=e5 v=104
22874 Par ch=1 c=64 v=127
22957 Par ch=1 c=64 v=63
22959 Par ch=1 c=64 v=0
23019 Par ch=1 c=64 v=63
23021 Par ch=1 c=64 v=127
23115 On ch=1 n=e6 v=0
23121 On ch=1 n=f#6 v=81
23152 On ch=1 n=e6 v=94
23162 Par ch=1 c=64 v=63
23163 Par ch=1 c=64 v=0
23170 On ch=1 n=f#6 v=0
23174 On ch=1 n=g#5 v=0
23183 On ch=1 n=d#6 v=108
23187 On ch=1 n=e5 v=0
23194 On ch=1 n=e6 v=0
23212 On ch=1 n=d#6 v=0
23356 On ch=1 n=e6 v=108
23389 On ch=1 n=e6 v=0
23504 On ch=1 n=e4 v=92
23525 Par ch=1 c=64 v=127
23526 On ch=1 n=e5 v=114
23527 On ch=1 n=f6 v=116
23528 On ch=1 n=a5 v=114
23555 On ch=1 n=e4 v=0
23567 On ch=1 n=e5 v=0
23591 On ch=1 n=f6 v=0
23695 On ch=1 n=f#6 v=105
23766 On ch=1 n=f#6 v=0
23793 On ch=1 n=d#5 v=97
23828 On ch=1 n=d#5 v=0
23832 On ch=1 n=e5 v=97
23863 On ch=1 n=f#5 v=103
23867 Par ch=1 c=64 v=63
23870 Par ch=1 c=64 v=0
23874 On ch=1 n=f#6 v=105
23878 On ch=1 n=e5 v=0
23890 On ch=1 n=f#5 v=0
23930 On ch=1 n=f#6 v=0
24035 On ch=1 n=e5 v=103
24062 On ch=1 n=a5 v=0
24073 On ch=1 n=e5 v=0
24193 On ch=1 n=e4 v=85
24203 On ch=1 n=e5 v=120
24207 On ch=1 n=g#6 v=118
24208 On ch=1 n=b5 v=112
24215 Par ch=1 c=64 v=63
24216 Par ch=1 c=64 v=127
24282 On ch=1 n=e5 v=0
24377 On ch=1 n=g#6 v=0
24379 On ch=1 n=d5 v=107
24412 On ch=1 n=d5 v=0
24480 On ch=1 n=a6 v=84
24508 Par ch=1 c=64 v=63
24510 Par ch=1 c=64 v=0
24518 On ch=1 n=g#6 v=105
24535 On ch=1 n=d5 v=104
24541 On ch=1 n=a6 v=0
24551 On ch=1 n=f#6 v=94
24569 On ch=1 n=d5 v=0
24570 On ch=1 n=g#6 v=0
24575 On ch=1 n=e4 v=0
24590 On ch=1 n=f#6 v=0
24678 On ch=1 n=b5 v=0
24710 On ch=1 n=g#6 v=107
24745 On ch=1 n=g#6 v=0
24869 On ch=1 n=e4 v=84
24872 On ch=1 n=c#5 v=119
24872 On ch=1 n=e6 v=114
24874 On ch=1 n=g#6 v=112
24879 Par ch=1 c=64 v=63
24880 Par ch=1 c=64 v=127
24931 On ch=1 n=e4 v=0
24985 On ch=1 n=c#5 v=0
24988 On ch=1 n=g#6 v=0
25046 On ch=1 n=a6 v=103
25133 On ch=1 n=b4 v=89
25164 On ch=1 n=a6 v=0
25176 On ch=1 n=c#5 v=105
25190 On ch=1 n=b4 v=0
25202 On ch=1 n=d5 v=114
25203 Par ch=1 c=64 v=63
25206 Par ch=1 c=64 v=0
25208 On ch=1 n=a6 v=90
25218 On ch=1 n=c#5 v=0
25241 On ch=1 n=d5 v=0
25261 On ch=1 n=a6 v=0
25355 On ch=1 n=e6 v=0
25376 On ch=1 n=c#5 v=116
25406 On ch=1 n=c#5 v=0
25532 On ch=1 n=b6 v=112
25535 On ch=1 n=g#6 v=113
25536 On ch=1 n=c#5 v=118
25538 On ch=1 n=e4 v=104
25544 Par ch=1 c=64 v=63
25545 Par ch=1 c=64 v=127
25598 On ch=1 n=c#5 v=0
25710 On ch=1 n=b4 v=107
25749 On ch=1 n=b4 v=0
25752 On ch=1 n=b6 v=0
25810 On ch=1 n=c#7 v=80
25826 On ch=1 n=g#6 v=0
25835 On ch=1 n=b6 v=75
25847 On ch=1 n=c#7 v=0
25872 On ch=1 n=a6 v=94
25875 On ch=1 n=b4 v=106
25881 Par ch=1 c=64 v=63
25884 Par ch=1 c=64 v=0
25892 On ch=1 n=b6 v=0
25904 On ch=1 n=a6 v=0
25936 On ch=1 n=e4 v=0
25942 On ch=1 n=b4 v=0
26031 On ch=1 n=b6 v=107
26072 On ch=1 n=b6 v=0
26195 On ch=1 n=e5 v=116
26196 On ch=1 n=c#7 v=118
26197 On ch=1 n=e6 v=112
26200 On ch=1 n=a5 v=108
26212 Par ch=1 c=64 v=63
26213 Par ch=1 c=64 v=127
26223 On ch=1 n=e6 v=0
26235 On ch=1 n=c#7 v=0
26241 On ch=1 n=a5 v=0
26276 On ch=1 n=e5 v=0
26450 On ch=1 n=d7 v=91
26451 On ch=1 n=b5 v=69
26488 On ch=1 n=c#7 v=88
26489 On ch=1 n=a5 v=86
26494 On ch=1 n=b5 v=0
26505 On ch=1 n=d7 v=0
26519 On ch=1 n=b6 v=100
26526 On ch=1 n=g#5 v=103
26532 Par ch=1 c=64 v=63
26535 Par ch=1 c=64 v=0
26539 On ch=1 n=c#7 v=0
26540 On ch=1 n=a5 v=0
26550 On ch=1 n=b6 v=0
26557 On ch=1 n=g#5 v=0
26674 On ch=1 n=c#7 v=113
26675 On ch=1 n=a#5 v=114
26706 On ch=1 n=a#5 v=0
26713 On ch=1 n=c#7 v=0
26836 On ch=1 n=b5 v=109
26837 On ch=1 n=d7 v=116
26838 On ch=1 n=e5 v=103
26855 Par ch=1 c=64 v=127
26869 On ch=1 n=b5 v=0
26876 On ch=1 n=e5 v=0
26891 On ch=1 n=b6 v=88
26907 On ch=1 n=d7 v=0
26940 On ch=1 n=g#6 v=99
26946 On ch=1 n=b6 v=0
26991 On ch=1 n=g#6 v=0
26992 On ch=1 n=e6 v=83
27028 On ch=1 n=e6 v=0
27053 On ch=1 n=d6 v=86
27102 On ch=1 n=b5 v=74
27107 On ch=1 n=d6 v=0
27145 On ch=1 n=b5 v=0
27148 On ch=1 n=g#5 v=84
27204 On ch=1 n=b5 v=81
27207 On ch=1 n=g#5 v=0
27249 On ch=1 n=b5 v=0
27254 On ch=1 n=d6 v=89
27288 On ch=1 n=d6 v=0
27305 On ch=1 n=e6 v=94
27354 On ch=1 n=g#6 v=101
27366 On ch=1 n=e6 v=0
27394 On ch=1 n=b6 v=97
27404 On ch=1 n=g#6 v=0
27440 On ch=1 n=d7 v=103
27451 On ch=1 n=b6 v=0
27489 On ch=1 n=b6 v=88
27509 On ch=1 n=d7 v=0
27536 On ch=1 n=g#6 v=108
27548 On ch=1 n=b6 v=0
27583 On ch=1 n=g#6 v=0
27583 On ch=1 n=e6 v=97
27623 On ch=1 n=e6 v=0
27640 On ch=1 n=d6 v=81
27690 On ch=1 n=b5 v=89
27691 On ch=1 n=d6 v=0
27735 On ch=1 n=b5 v=0
27736 On ch=1 n=g#5 v=97
27783 Par ch=1 c=64 v=63
27788 Par ch=1 c=64 v=0
27791 On ch=1 n=b5 v=87
27793 On ch=1 n=g#5 v=0
27836 On ch=1 n=b5 v=0
27845 On ch=1 n=d6 v=91
27885 On ch=1 n=d6 v=0
27899 On ch=1 n=e6 v=94
27942 On ch=1 n=g#6 v=92
27948 On ch=1 n=e6 v=0
27987 On ch=1 n=b6 v=89
27996 On ch=1 n=g#6 v=0
28042 On ch=1 n=d7 v=103
28046 On ch=1 n=b5 v=101
28048 On ch=1 n=b6 v=0
28082 On ch=1 n=b5 v=0
28094 On ch=1 n=b6 v=84
28101 On ch=1 n=d7 v=0
28130 On ch=1 n=d7 v=84
28142 On ch=1 n=b6 v=0
28192 On ch=1 n=c#7 v=103
28195 On ch=1 n=d7 v=0
28200 On ch=1 n=a5 v=99
28234 On ch=1 n=a5 v=0
28246 On ch=1 n=c#7 v=0
28253 On ch=1 n=a6 v=87
28294 On ch=1 n=c#7 v=80
28304 On ch=1 n=a6 v=0
28341 On ch=1 n=b6 v=74
28355 On ch=1 n=g#5 v=105
28361 On ch=1 n=c#7 v=0
28389 On ch=1 n=g#5 v=0
28397 On ch=1 n=g#6 v=97
28399 On ch=1 n=b6 v=0
28445 On ch=1 n=b6 v=84
28449 On ch=1 n=g#6 v=0
28498 On ch=1 n=a6 v=79
28510 On ch=1 n=f#5 v=100
28513 On ch=1 n=b6 v=0
28543 On ch=1 n=f#6 v=88
28544 On ch=1 n=f#5 v=0
28550 On ch=1 n=a6 v=0
28592 On ch=1 n=f#6 v=0
28593 On ch=1 n=a6 v=82
28648 On ch=1 n=g#6 v=90
28657 On ch=1 n=e5 v=91
28661 On ch=1 n=a6 v=0
28691 On ch=1 n=e5 v=0
28699 On ch=1 n=g#6 v=0
28703 On ch=1 n=e6 v=68
28752 On ch=1 n=e6 v=0
28755 On ch=1 n=g#6 v=81
28801 On ch=1 n=d5 v=86
28807 On ch=1 n=f#6 v=89
28824 On ch=1 n=g#6 v=0
28829 On ch=1 n=d5 v=0
28853 On ch=1 n=f#6 v=0
28859 On ch=1 n=d6 v=60
28903 On ch=1 n=d6 v=0
28904 On ch=1 n=f#6 v=71
28949 On ch=1 n=e6 v=80
28964 On ch=1 n=f#6 v=0
28964 On ch=1 n=c#5 v=84
28987 On ch=1 n=c#5 v=0
29002 On ch=1 n=e6 v=0
29005 On ch=1 n=c#6 v=87
29051 On ch=1 n=e6 v=85
29053 On ch=1 n=c#6 v=0
29098 On ch=1 n=b4 v=80
29106 On ch=1 n=d6 v=72
29115 On ch=1 n=e6 v=0
29135 On ch=1 n=b4 v=0
29146 On ch=1 n=d6 v=0
29158 On ch=1 n=b5 v=64
29197 On ch=1 n=b5 v=0
29204 On ch=1 n=d6 v=68
29247 On ch=1 n=c#6 v=95
29257 On ch=1 n=a4 v=78
29258 On ch=1 n=d6 v=0
29269 Par ch=1 c=64 v=63
29271 Par ch=1 c=64 v=127
29277 On ch=1 n=c#6 v=0
29299 On ch=1 n=a4 v=0
29361 Par ch=1 c=64 v=63
29366 Par ch=1 c=64 v=0
29427 On ch=1 n=e7 v=98
29473 On ch=1 n=c#7 v=97
29483 On ch=1 n=e7 v=0
29511 On ch=1 n=c#7 v=0
29521 On ch=1 n=a6 v=82
29559 On ch=1 n=a6 v=0
29575 On ch=1 n=e6 v=76
29576 On ch=1 n=d6 v=76
29577 On ch=1 n=g#6 v=99
29581 Par ch=1 c=64 v=63
29582 Par ch=1 c=64 v=127
29600 On ch=1 n=e6 v=0
29605 On ch=1 n=d6 v=0
29623 On ch=1 n=b6 v=89
29630 On ch=1 n=g#6 v=0
29674 On ch=1 n=b6 v=0
29676 On ch=1 n=e6 v=89
29710 On ch=1 n=e6 v=0
29728 On ch=1 n=e7 v=109
29733 Par ch=1 c=64 v=63
29736 Par ch=1 c=64 v=0
29775 On ch=1 n=d7 v=96
29802 On ch=1 n=e7 v=0
29826 On ch=1 n=b6 v=100
29835 On ch=1 n=d7 v=0
29871 On ch=1 n=b6 v=0
29873 On ch=1 n=e6 v=90
29873 Par ch=1 c=64 v=63
29874 Par ch=1 c=64 v=127
29876 On ch=1 n=c#6 v=100
29881 On ch=1 n=a6 v=86
29893 On ch=1 n=e6 v=0
29897 On ch=1 n=c#6 v=0
29918 On ch=1 n=a6 v=0
29928 On ch=1 n=c#7 v=107
29967 On ch=1 n=c#7 v=0
29982 On ch=1 n=e6 v=99
30002 Par ch=1 c=64 v=63
30004 Par ch=1 c=64 v=0
30014 On ch=1 n=e6 v=0
30029 On ch=1 n=e7 v=106
30082 On ch=1 n=c#7 v=99
30096 On ch=1 n=e7 v=0
30129 On ch=1 n=c#7 v=0
30132 On ch=1 n=a6 v=84
30156 Par ch=1 c=64 v=63
30156 Par ch=1 c=64 v=127
30167 On ch=1 n=a6 v=0
30173 On ch=1 n=e6 v=81
30181 On ch=1 n=d6 v=52
30185 On ch=1 n=g#6 v=90
30194 On ch=1 n=e6 v=0
30204 On ch=1 n=d6 v=0
30230 On ch=1 n=b6 v=91
30240 On ch=1 n=g#6 v=0
30280 On ch=1 n=b6 v=0
30284 On ch=1 n=e6 v=87
30318 On ch=1 n=e6 v=0
30335 On ch=1 n=e7 v=99
30381 On ch=1 n=d7 v=94
30409 On ch=1 n=e7 v=0
30430 On ch=1 n=b6 v=96
30449 On ch=1 n=d7 v=0
30455 Par ch=1 c=64 v=63
30459 Par ch=1 c=64 v=0
30484 On ch=1 n=e6 v=97
30486 On ch=1 n=c#6 v=103
30487 On ch=1 n=b6 v=0
30487 On ch=1 n=a6 v=86
30506 On ch=1 n=e6 v=0
30507 On ch=1 n=c#6 v=0
30517 On ch=1 n=a6 v=0
30537 On ch=1 n=c#7 v=93
30580 On ch=1 n=e6 v=93
30582 On ch=1 n=c#7 v=0
30616 On ch=1 n=e6 v=0
30650 Par ch=1 c=64 v=63
30650 Par ch=1 c=64 v=127
30668 On ch=1 n=e7 v=92
30671 On ch=1 n=c#6 v=88
30672 On ch=1 n=g6 v=88
30698 On ch=1 n=g6 v=0
30703 On ch=1 n=e7 v=0
30727 On ch=1 n=c#6 v=0
30752 On ch=1 n=e6 v=78
30783 On ch=1 n=c#6 v=90
30790 On ch=1 n=e6 v=0
30845 On ch=1 n=c#6 v=0
30847 On ch=1 n=a#5 v=76
30855 On ch=1 n=f#6 v=98
30901 On ch=1 n=c#6 v=84
30904 On ch=1 n=a#5 v=0
30951 On ch=1 n=a#5 v=70
30959 On ch=1 n=c#6 v=0
30989 On ch=1 n=b5 v=90
31007 On ch=1 n=d7 v=108
31017 On ch=1 n=a#5 v=0
31033 On ch=1 n=b5 v=0
31054 On ch=1 n=d6 v=83
31102 On ch=1 n=b5 v=96
31108 On ch=1 n=d6 v=0
31113 On ch=1 n=f#6 v=0
31152 On ch=1 n=g#5 v=96
31156 On ch=1 n=e6 v=111
31158 On ch=1 n=b5 v=0
31179 On ch=1 n=g#6 v=40
31199 On ch=1 n=g#6 v=0
31209 On ch=1 n=g#5 v=0
31217 On ch=1 n=b5 v=88
31242 On ch=1 n=d7 v=0
31261 On ch=1 n=g#5 v=96
31269 On ch=1 n=b5 v=0
31305 On ch=1 n=a5 v=87
31310 On ch=1 n=c#7 v=119
31312 On ch=1 n=g#5 v=0
31365 On ch=1 n=a5 v=0
31369 On ch=1 n=c#6 v=85
31411 On ch=1 n=e6 v=0
31413 On ch=1 n=c#6 v=0
31418 On ch=1 n=a5 v=68
31455 Par ch=1 c=64 v=63
31460 On ch=1 n=f#5 v=100
31463 On ch=1 n=a5 v=0
31469 On ch=1 n=d6 v=108
31475 Par ch=1 c=64 v=127
31482 On ch=1 n=e6 v=61
31509 On ch=1 n=e6 v=0
31513 On ch=1 n=f#5 v=0
31519 On ch=1 n=c#7 v=0
31522 On ch=1 n=a5 v=88
31558 On ch=1 n=f#5 v=95
31574 On ch=1 n=a5 v=0
31623 On ch=1 n=g#5 v=99
31625 On ch=1 n=b6 v=109
31627 Par ch=1 c=64 v=63
31630 On ch=1 n=f#5 v=0
31650 Par ch=1 c=64 v=127
31670 On ch=1 n=g#5 v=0
31676 On ch=1 n=b5 v=93
31716 On ch=1 n=d6 v=0
31728 On ch=1 n=g#5 v=98
31736 On ch=1 n=b5 v=0
31782 On ch=1 n=g#5 v=0
31784 Par ch=1 c=64 v=63
31789 On ch=1 n=f5 v=97
31791 On ch=1 n=c#6 v=113
31803 Par ch=1 c=64 v=127
31852 On ch=1 n=g#5 v=92
31857 On ch=1 n=f5 v=0
31865 On ch=1 n=b6 v=0
31884 On ch=1 n=f5 v=90
31901 On ch=1 n=g#5 v=0
31933 On ch=1 n=c#6 v=0
31942 On ch=1 n=f#5 v=108
31948 On ch=1 n=a6 v=113
31954 On ch=1 n=f5 v=0
31960 Par ch=1 c=64 v=63
31976 Par ch=1 c=64 v=127
31993 On ch=1 n=f#5 v=0
31997 On ch=1 n=a5 v=94
32052 On ch=1 n=f#5 v=107
32063 On ch=1 n=a5 v=0
32094 Par ch=1 c=64 v=63
32103 On ch=1 n=d#5 v=106
32104 On ch=1 n=b5 v=106
32106 On ch=1 n=f#5 v=0
32123 Par ch=1 c=64 v=127
32132 On ch=1 n=a6 v=0
32159 On ch=1 n=d#5 v=0
32163 On ch=1 n=f#5 v=101
32213 On ch=1 n=d#5 v=92
32217 Par ch=1 c=64 v=63
32226 On ch=1 n=f#5 v=0
32252 Par ch=1 c=64 v=127
32262 On ch=1 n=d5 v=106
32265 On ch=1 n=d#5 v=0
32271 On ch=1 n=b5 v=0
32272 On ch=1 n=g#6 v=113
32314 On ch=1 n=d5 v=0
32317 On ch=1 n=g#6 v=0
32326 On ch=1 n=e5 v=99
32370 On ch=1 n=d5 v=101
32388 On ch=1 n=e5 v=0
32412 Par ch=1 c=64 v=63
32422 Par ch=1 c=64 v=0
32424 On ch=1 n=c#5 v=118
32431 Par ch=1 c=64 v=63
32437 On ch=1 n=a6 v=107
32446 On ch=1 n=d5 v=0
32457 On ch=1 n=c#5 v=0
32494 On ch=1 n=a6 v=0
32498 Par ch=1 c=64 v=0
32499 On ch=1 n=c#7 v=101
32541 On ch=1 n=e6 v=87
32549 On ch=1 n=c#7 v=0
32589 On ch=1 n=e6 v=0
32594 On ch=1 n=d5 v=111
32594 On ch=1 n=f#6 v=103
32625 On ch=1 n=d5 v=0
32645 On ch=1 n=a6 v=94
32655 On ch=1 n=f#6 v=0
32697 On ch=1 n=d6 v=83
32702 On ch=1 n=a6 v=0
32742 On ch=1 n=e5 v=102
32745 On ch=1 n=d6 v=0
32752 On ch=1 n=c#6 v=108
32778 On ch=1 n=e5 v=0
32806 On ch=1 n=e6 v=90
32807 On ch=1 n=c#6 v=0
32850 On ch=1 n=a5 v=80
32856 On ch=1 n=e6 v=0
32896 On ch=1 n=a5 v=0
32899 On ch=1 n=b5 v=96
32901 On ch=1 n=e4 v=97
32939 On ch=1 n=e4 v=0
32945 On ch=1 n=b5 v=0
32951 On ch=1 n=d6 v=90
33001 On ch=1 n=d6 v=0
33001 On ch=1 n=g#5 v=90
33040 On ch=1 n=g#5 v=0
33065 On ch=1 n=a5 v=84
33075 On ch=1 n=a4 v=83
33103 Par ch=1 c=64 v=63
33107 Par ch=1 c=64 v=127
33204 On ch=1 n=a4 v=0
33205 On ch=1 n=a5 v=0
33279 Par ch=1 c=64 v=63
33291 Par ch=1 c=64 v=0
33457 Par ch=1 c=64 v=63
33467 Par ch=1 c=64 v=127
33477 On ch=1 n=c#7 v=75
33479 On ch=1 n=a5 v=43
33481 On ch=1 n=e6 v=51
33534 On ch=1 n=e6 v=0
33574 On ch=1 n=a5 v=0
33575 On ch=1 n=c#7 v=0
33680 On ch=1 n=g#5 v=75
33684 On ch=1 n=b6 v=98
33686 On ch=1 n=f6 v=83
33711 On ch=1 n=f6 v=0
33727 On ch=1 n=b6 v=0
33731 On ch=1 n=g#5 v=0
33862 On ch=1 n=f#6 v=94
33866 On ch=1 n=a6 v=98
33870 On ch=1 n=f#5 v=83
33888 Par ch=1 c=64 v=63
33926 Par ch=1 c=64 v=127
33966 On ch=1 n=a6 v=0
34001 On ch=1 n=f#5 v=0
34026 On ch=1 n=f#6 v=0
34029 On ch=1 n=g#6 v=108
34034 On ch=1 n=e5 v=76
34036 Par ch=1 c=64 v=63
34037 On ch=1 n=c#6 v=86
34056 Par ch=1 c=64 v=127
34144 On ch=1 n=c#6 v=0
34188 Par ch=1 c=64 v=63
34196 On ch=1 n=f#6 v=108
34201 On ch=1 n=d5 v=83
34204 On ch=1 n=d6 v=90
34212 Par ch=1 c=64 v=127
34226 On ch=1 n=e5 v=0
34228 On ch=1 n=g#6 v=0
34252 On ch=1 n=d6 v=0
34254 On ch=1 n=f#6 v=0
34258 On ch=1 n=d5 v=0
34366 On ch=1 n=e6 v=98
34369 Par ch=1 c=64 v=63
34370 On ch=1 n=c#5 v=87
34381 On ch=1 n=a5 v=45
34404 Par ch=1 c=64 v=127
34450 On ch=1 n=c#5 v=0
34484 On ch=1 n=e6 v=0
34486 On ch=1 n=a5 v=0
34518 Par ch=1 c=64 v=63
34526 On ch=1 n=e6 v=77
34536 On ch=1 n=g#5 v=67
34542 On ch=1 n=b4 v=62
34592 On ch=1 n=d6 v=74
34596 On ch=1 n=e6 v=0
34612 On ch=1 n=g#5 v=0
34633 Par ch=1 c=64 v=0
34685 On ch=1 n=c#6 v=76
34689 On ch=1 n=d6 v=0
34699 On ch=1 n=a5 v=62
34702 On ch=1 n=a4 v=61
34707 On ch=1 n=b4 v=0
34789 On ch=1 n=a4 v=0
34790 On ch=1 n=c#6 v=0
34839 On ch=1 n=a5 v=0
34864 On ch=1 n=e6 v=92
35040 On ch=1 n=c#5 v=57
35042 On ch=1 n=e5 v=69
35058 Par ch=1 c=64 v=63
35065 Par ch=1 c=64 v=127
35123 On ch=1 n=e5 v=0
35159 On ch=1 n=c#5 v=0
35231 On ch=1 n=a5 v=47
35232 On ch=1 n=f#5 v=62
35299 Par ch=1 c=64 v=63
35324 Par ch=1 c=64 v=0
35328 On ch=1 n=d6 v=82
35346 Par ch=1 c=64 v=63
35353 On ch=1 n=e6 v=0
35369 Par ch=1 c=64 v=127
35402 On ch=1 n=f#5 v=0
35412 On ch=1 n=g#5 v=84
35421 On ch=1 n=e5 v=65
35430 On ch=1 n=a5 v=0
35493 On ch=1 n=g#5 v=0
35498 On ch=1 n=c#6 v=103
35532 On ch=1 n=d6 v=0
35535 On ch=1 n=e5 v=0
35584 On ch=1 n=f#5 v=94
35591 On ch=1 n=d5 v=77
35608 Par ch=1 c=64 v=63
35630 Par ch=1 c=64 v=0
35650 On ch=1 n=f#5 v=0
35650 Par ch=1 c=64 v=63
35662 On ch=1 n=b5 v=102
35673 Par ch=1 c=64 v=127
35702 On ch=1 n=c#6 v=0
35736 On ch=1 n=d5 v=0
35737 On ch=1 n=d#5 v=91
35738 On ch=1 n=f#5 v=95
35752 Par ch=1 c=64 v=63
35762 Par ch=1 c=64 v=0
35801 On ch=1 n=f#5 v=0
35803 On ch=1 n=d#5 v=0
35813 On ch=1 n=a5 v=94
35820 On ch=1 n=b5 v=0
35858 On ch=1 n=a5 v=0
35898 On ch=1 n=c#6 v=106
35900 On ch=1 n=e5 v=76
35902 On ch=1 n=a5 v=86
36022 On ch=1 n=a5 v=0
36062 Par ch=1 c=64 v=63
36064 Par ch=1 c=64 v=127
36064 On ch=1 n=g#5 v=86
36066 On ch=1 n=b5 v=86
36071 On ch=1 n=c#6 v=0
36081 On ch=1 n=e5 v=0
36086 On ch=1 n=g#5 v=0
36101 On ch=1 n=b5 v=0
36140 Par ch=1 c=64 v=63
36146 Par ch=1 c=64 v=0
36228 On ch=1 n=c#7 v=116
36230 On ch=1 n=a5 v=97
36231 Par ch=1 c=64 v=63
36232 On ch=1 n=e6 v=103
36234 Par ch=1 c=64 v=127
36277 On ch=1 n=d7 v=101
36280 On ch=1 n=c#7 v=0
36309 On ch=1 n=a5 v=0
36331 On ch=1 n=c#7 v=100
36346 On ch=1 n=d7 v=0
36374 On ch=1 n=c#7 v=0
36375 Par ch=1 c=64 v=63
36380 On ch=1 n=g#5 v=90
36381 Par ch=1 c=64 v=0
36383 On ch=1 n=b6 v=89
36435 On ch=1 n=b6 v=0
36436 On ch=1 n=e6 v=0
36437 On ch=1 n=d#7 v=100
36460 On ch=1 n=g#5 v=0
36487 On ch=1 n=e7 v=79
36491 On ch=1 n=d#7 v=0
36540 On ch=1 n=e7 v=0
36541 Par ch=1 c=64 v=63
36544 Par ch=1 c=64 v=127
36545 On ch=1 n=a6 v=90
36548 On ch=1 n=c#6 v=115
36550 On ch=1 n=f#5 v=112
36586 On ch=1 n=a6 v=0
36601 On ch=1 n=f#5 v=0
36605 On ch=1 n=b6 v=81
36658 On ch=1 n=a6 v=86
36668 On ch=1 n=b6 v=0
36707 On ch=1 n=e5 v=67
36708 On ch=1 n=a6 v=0
36710 On ch=1 n=g#6 v=94
36714 Par ch=1 c=64 v=63
36720 Par ch=1 c=64 v=0
36754 On ch=1 n=c#6 v=0
36770 On ch=1 n=c7 v=86
36771 On ch=1 n=g#6 v=0
36795 On ch=1 n=e5 v=0
36821 On ch=1 n=c#7 v=99
36827 On ch=1 n=c7 v=0
36856 Par ch=1 c=64 v=63
36857 On ch=1 n=c#7 v=0
36860 Par ch=1 c=64 v=127
36868 On ch=1 n=a5 v=103
36871 On ch=1 n=d5 v=103
36880 On ch=1 n=f#6 v=105
36906 On ch=1 n=d5 v=0
36916 On ch=1 n=f#6 v=0
36926 On ch=1 n=g6 v=83
36979 On ch=1 n=f#6 v=104
36987 On ch=1 n=g6 v=0
37003 Par ch=1 c=64 v=63
37008 Par ch=1 c=64 v=0
37022 On ch=1 n=f#6 v=0
37027 On ch=1 n=e6 v=90
37035 On ch=1 n=c#5 v=85
37062 On ch=1 n=a5 v=0
37070 On ch=1 n=c#5 v=0
37078 On ch=1 n=g#6 v=105
37086 On ch=1 n=e6 v=0
37129 On ch=1 n=a6 v=87
37138 On ch=1 n=g#6 v=0
37181 On ch=1 n=a6 v=0
37189 On ch=1 n=e6 v=97
37192 Par ch=1 c=64 v=63
37196 Par ch=1 c=64 v=127
37197 On ch=1 n=g#5 v=78
37200 On ch=1 n=b4 v=68
37245 On ch=1 n=e6 v=0
37249 On ch=1 n=b4 v=0
37257 On ch=1 n=g#5 v=0
37277 On ch=1 n=d6 v=85
37346 Par ch=1 c=64 v=63
37356 Par ch=1 c=64 v=0
37360 On ch=1 n=d6 v=0
37360 On ch=1 n=a5 v=82
37363 On ch=1 n=c#6 v=101
37370 On ch=1 n=a4 v=41
37394 On ch=1 n=c#6 v=0
37438 On ch=1 n=a5 v=0
37486 On ch=1 n=a4 v=0
37543 On ch=1 n=e6 v=117
37562 Par ch=1 c=64 v=63
37566 Par ch=1 c=64 v=127
37712 On ch=1 n=a4 v=94
37715 On ch=1 n=c#4 v=103
37736 Par ch=1 c=64 v=63
37741 Par ch=1 c=64 v=0
37788 On ch=1 n=c#4 v=0
37887 Par ch=1 c=64 v=63
37888 On ch=1 n=d4 v=84
37892 Par ch=1 c=64 v=127
37964 On ch=1 n=f#6 v=93
37971 Par ch=1 c=64 v=63
37972 On ch=1 n=e6 v=0
37977 Par ch=1 c=64 v=0
38040 On ch=1 n=a4 v=0
38055 On ch=1 n=d5 v=108
38055 Par ch=1 c=64 v=63
38056 On ch=1 n=d6 v=93
38061 Par ch=1 c=64 v=127
38064 On ch=1 n=d4 v=0
38073 On ch=1 n=f#6 v=0
38122 On ch=1 n=b5 v=96
38126 On ch=1 n=d6 v=0
38128 On ch=1 n=d5 v=0
38190 On ch=1 n=b5 v=0
38212 On ch=1 n=a5 v=109
38214 Par ch=1 c=64 v=63
38216 On ch=1 n=c#5 v=112
38220 Par ch=1 c=64 v=0
38222 On ch=1 n=e4 v=94
38256 Par ch=1 c=64 v=63
38264 Par ch=1 c=64 v=127
38275 On ch=1 n=a5 v=0
38323 On ch=1 n=c#5 v=0
38383 On ch=1 n=g#4 v=105
38393 On ch=1 n=c#6 v=108
38403 Par ch=1 c=64 v=63
38410 Par ch=1 c=64 v=0
38413 On ch=1 n=e4 v=0
38423 On ch=1 n=g#4 v=0
38452 On ch=1 n=b5 v=100
38456 On ch=1 n=c#6 v=0
38521 On ch=1 n=b5 v=0
38542 On ch=1 n=a5 v=108
38545 On ch=1 n=a3 v=121
38567 Par ch=1 c=64 v=63
38570 Par ch=1 c=64 v=127
38605 On ch=1 n=c#4 v=109
38632 On ch=1 n=a3 v=0
38648 On ch=1 n=a5 v=0
38653 On ch=1 n=e4 v=100
38675 On ch=1 n=c#4 v=0
38694 On ch=1 n=a4 v=94
38695 On ch=1 n=e4 v=0
38742 On ch=1 n=a4 v=0
38752 On ch=1 n=c#5 v=106
38810 On ch=1 n=e5 v=93
38861 On ch=1 n=a5 v=113
38870 On ch=1 n=a6 v=107
38888 On ch=1 n=c#5 v=0
38892 On ch=1 n=e5 v=0
38901 On ch=1 n=a5 v=0
38918 On ch=1 n=e6 v=101
38929 On ch=1 n=a6 v=0
38973 On ch=1 n=c#6 v=110
38980 On ch=1 n=e6 v=0
39004 On ch=1 n=c#6 v=0
39015 On ch=1 n=a5 v=107
39025 Par ch=1 c=64 v=63
39030 Par ch=1 c=64 v=0
39035 On ch=1 n=a5 v=0
39069 On ch=1 n=e5 v=98
39115 On ch=1 n=c#5 v=106
39123 On ch=1 n=e5 v=0
39151 On ch=1 n=c#5 v=0
39178 On ch=1 n=b4 v=118
39179 On ch=1 n=a3 v=94
39205 Par ch=1 c=64 v=127
39232 On ch=1 n=b4 v=0
39242 On ch=1 n=d4 v=88
39260 On ch=1 n=a3 v=0
39281 On ch=1 n=g#4 v=99
39282 On ch=1 n=d4 v=0
39302 On ch=1 n=g#4 v=0
39337 On ch=1 n=b4 v=112
39386 On ch=1 n=d5 v=84
39435 On ch=1 n=e5 v=102
39472 On ch=1 n=d5 v=0
39489 On ch=1 n=g#5 v=118
39492 On ch=1 n=b6 v=107
39511 On ch=1 n=b4 v=0
39511 On ch=1 n=e5 v=0
39521 On ch=1 n=g#5 v=0
39544 On ch=1 n=g#6 v=106
39565 On ch=1 n=b6 v=0
39600 On ch=1 n=d6 v=109
39609 On ch=1 n=g#6 v=0
39636 On ch=1 n=d6 v=0
39651 On ch=1 n=b5 v=101
39673 Par ch=1 c=64 v=63
39678 Par ch=1 c=64 v=0
39697 On ch=1 n=b5 v=0
39707 On ch=1 n=g#5 v=97
39752 On ch=1 n=g#5 v=0
39760 On ch=1 n=d5 v=117
39791 On ch=1 n=d5 v=0
39826 On ch=1 n=a3 v=122
39826 On ch=1 n=c#5 v=124
39848 Par ch=1 c=64 v=127
39882 On ch=1 n=c#4 v=98
39903 On ch=1 n=a3 v=0
39907 On ch=1 n=c#5 v=0
39945 On ch=1 n=e4 v=74
39957 On ch=1 n=c#4 v=0
39980 On ch=1 n=e4 v=0
39981 On ch=1 n=a4 v=93
40018 On ch=1 n=a4 v=0
40035 On ch=1 n=c#5 v=108
40093 On ch=1 n=e5 v=93
40136 On ch=1 n=c#7 v=118
40138 On ch=1 n=g5 v=104
40162 On ch=1 n=e5 v=0
40165 On ch=1 n=c#5 v=0
40174 On ch=1 n=g5 v=0
40190 On ch=1 n=a6 v=103
40200 On ch=1 n=c#7 v=0
40234 On ch=1 n=a6 v=0
40238 On ch=1 n=e6 v=83
40268 On ch=1 n=e6 v=0
40296 On ch=1 n=c#6 v=114
40326 Par ch=1 c=64 v=63
40331 Par ch=1 c=64 v=0
40346 On ch=1 n=a5 v=104
40350 On ch=1 n=c#6 v=0
40381 On ch=1 n=a5 v=0
40398 On ch=1 n=e5 v=84
40429 On ch=1 n=e5 v=0
40443 On ch=1 n=a3 v=88
40450 On ch=1 n=d5 v=121
40458 Par ch=1 c=64 v=63
40459 Par ch=1 c=64 v=127
40499 On ch=1 n=d5 v=0
40503 On ch=1 n=d4 v=83
40518 On ch=1 n=a3 v=0
40558 On ch=1 n=f#4 v=105
40568 On ch=1 n=d4 v=0
40592 On ch=1 n=f#4 v=0
40597 On ch=1 n=a4 v=83
40615 On ch=1 n=a4 v=0
40643 On ch=1 n=d5 v=100
40703 On ch=1 n=f#5 v=113
40723 On ch=1 n=d5 v=0
40756 On ch=1 n=d7 v=116
40759 On ch=1 n=a5 v=108
40766 On ch=1 n=f#5 v=0
40797 On ch=1 n=a5 v=0
40799 On ch=1 n=a6 v=109
40814 On ch=1 n=d7 v=0
40855 On ch=1 n=a6 v=0
40861 On ch=1 n=f#6 v=109
40896 On ch=1 n=f#6 v=0
40900 On ch=1 n=d6 v=76
40920 On ch=1 n=d6 v=0
40952 On ch=1 n=a5 v=103
40995 Par ch=1 c=64 v=63
40999 On ch=1 n=a5 v=0
41000 Par ch=1 c=64 v=0
41001 On ch=1 n=f#5 v=107
41039 On ch=1 n=f#5 v=0
41056 On ch=1 n=e5 v=107
41065 On ch=1 n=a3 v=97
41084 Par ch=1 c=64 v=63
41087 Par ch=1 c=64 v=127
41098 On ch=1 n=e5 v=0
41118 On ch=1 n=c#4 v=89
41136 On ch=1 n=a3 v=0
41161 On ch=1 n=e4 v=82
41184 On ch=1 n=c#4 v=0
41202 On ch=1 n=e4 v=0
41203 On ch=1 n=a4 v=87
41236 On ch=1 n=a4 v=0
41259 On ch=1 n=c#5 v=97
41306 On ch=1 n=e5 v=86
41343 On ch=1 n=c#5 v=0
41348 On ch=1 n=g5 v=109
41372 On ch=1 n=e5 v=0
41382 On ch=1 n=g5 v=0
41397 On ch=1 n=a5 v=87
41448 On ch=1 n=c#6 v=100
41455 On ch=1 n=a5 v=0
41485 On ch=1 n=e6 v=98
41492 On ch=1 n=c#6 v=0
41510 On ch=1 n=e6 v=0
41548 On ch=1 n=a6 v=108
41591 On ch=1 n=a6 v=0
41597 On ch=1 n=c#7 v=113
41632 On ch=1 n=c#7 v=0
41649 On ch=1 n=e7 v=120
41709 On ch=1 n=g6 v=78
41719 On ch=1 n=e7 v=0
41743 On ch=1 n=g6 v=0
41754 On ch=1 n=e7 v=76
41806 On ch=1 n=d7 v=93
41813 On ch=1 n=e7 v=0
41855 On ch=1 n=d7 v=0
41858 On ch=1 n=f#6 v=91
41902 On ch=1 n=f#6 v=0
41912 On ch=1 n=d7 v=84
41961 On ch=1 n=c#7 v=99
41977 On ch=1 n=d7 v=0
42018 On ch=1 n=e6 v=89
42023 On ch=1 n=c#7 v=0
42057 On ch=1 n=c#7 v=70
42064 On ch=1 n=e6 v=0
42118 On ch=1 n=b6 v=96
42142 On ch=1 n=c#7 v=0
42178 On ch=1 n=b6 v=0
42180 On ch=1 n=g6 v=84
42220 On ch=1 n=g6 v=0
42235 On ch=1 n=b6 v=63
42281 On ch=1 n=a6 v=80
42300 On ch=1 n=b6 v=0
42322 Par ch=1 c=64 v=63
42330 On ch=1 n=f#6 v=91
42341 Par ch=1 c=64 v=0
42342 On ch=1 n=a6 v=0
42373 On ch=1 n=a6 v=82
42382 On ch=1 n=f#6 v=0
42433 On ch=1 n=g6 v=84
42457 On ch=1 n=a6 v=0
42483 On ch=1 n=e6 v=80
42487 On ch=1 n=g6 v=0
42538 On ch=1 n=e6 v=0
42539 On ch=1 n=g6 v=84
42589 On ch=1 n=f#6 v=92
42603 On ch=1 n=g6 v=0
42637 On ch=1 n=f#6 v=0
42647 On ch=1 n=d6 v=68
42692 On ch=1 n=f#6 v=82
42699 On ch=1 n=d6 v=0
42749 On ch=1 n=e6 v=79
42769 On ch=1 n=f#6 v=0
42803 On ch=1 n=c#6 v=85
42808 On ch=1 n=e6 v=0
42857 On ch=1 n=c#6 v=0
42859 On ch=1 n=e6 v=76
42930 On ch=1 n=e6 v=0
42930 On ch=1 n=d6 v=92
42956 Par ch=1 c=64 v=63
42957 Par ch=1 c=64 v=127
43113 On ch=1 n=a5 v=39
43117 On ch=1 n=f#5 v=51
43144 On ch=1 n=f#5 v=0
43153 On ch=1 n=a5 v=0
43176 On ch=1 n=d6 v=0
43210 On ch=1 n=e6 v=78
43239 On ch=1 n=d6 v=80
43254 On ch=1 n=e6 v=0
43265 On ch=1 n=c#6 v=97
43266 On ch=1 n=a5 v=63
43269 On ch=1 n=f#5 v=60
43270 Par ch=1 c=64 v=63
43274 Par ch=1 c=64 v=0
43277 On ch=1 n=d6 v=0
43291 On ch=1 n=c#6 v=0
43291 On ch=1 n=f#5 v=0
43293 On ch=1 n=a5 v=0
43454 On ch=1 n=f#5 v=89
43455 On ch=1 n=d6 v=85
43459 On ch=1 n=a5 v=65
43477 On ch=1 n=d6 v=0
43483 On ch=1 n=a5 v=0
43485 On ch=1 n=f#5 v=0
43628 On ch=1 n=d#6 v=104
43638 Par ch=1 c=64 v=63
43640 Par ch=1 c=64 v=127
43773 On ch=1 n=d#6 v=0
43794 Par ch=1 c=64 v=63
43798 On ch=1 n=e6 v=93
43802 Par ch=1 c=64 v=0
43803 On ch=1 n=b5 v=64
43805 On ch=1 n=g5 v=57
43827 On ch=1 n=e6 v=0
43830 On ch=1 n=g5 v=0
43832 On ch=1 n=b5 v=0
43969 On ch=1 n=e6 v=98
43975 On ch=1 n=b5 v=69
43975 On ch=1 n=g5 v=62
44002 On ch=1 n=e6 v=0
44006 On ch=1 n=g5 v=0
44007 On ch=1 n=b5 v=0
44151 On ch=1 n=g5 v=83
44152 On ch=1 n=b5 v=82
44171 On ch=1 n=g5 v=0
44173 On ch=1 n=b5 v=0
44322 On ch=1 n=e6 v=99
44326 Par ch=1 c=64 v=63
44328 Par ch=1 c=64 v=127
44343 On ch=1 n=e6 v=0
44493 On ch=1 n=a5 v=63
44500 On ch=1 n=c#5 v=70
44524 On ch=1 n=a5 v=0
44528 On ch=1 n=c#5 v=0
44592 On ch=1 n=f#6 v=82
44622 On ch=1 n=e6 v=84
44645 On ch=1 n=f#6 v=0
44653 Par ch=1 c=64 v=63
44654 On ch=1 n=d6 v=87
44657 Par ch=1 c=64 v=0
44666 On ch=1 n=a5 v=64
44667 On ch=1 n=e6 v=0
44672 On ch=1 n=c#5 v=64
44691 On ch=1 n=d6 v=0
44694 On ch=1 n=a5 v=0
44694 On ch=1 n=c#5 v=0
44836 On ch=1 n=a5 v=82
44836 On ch=1 n=e6 v=101
44838 On ch=1 n=c#5 v=91
44857 On ch=1 n=c#5 v=0
44861 On ch=1 n=a5 v=0
44864 On ch=1 n=e6 v=0
45006 On ch=1 n=f6 v=91
45010 Par ch=1 c=64 v=63
45014 Par ch=1 c=64 v=127
45157 On ch=1 n=f6 v=0
45168 On ch=1 n=f#6 v=97
45175 Par ch=1 c=64 v=63
45176 On ch=1 n=a5 v=63
45182 On ch=1 n=d5 v=61
45184 Par ch=1 c=64 v=0
45202 On ch=1 n=f#6 v=0
45202 On ch=1 n=a5 v=0
45206 On ch=1 n=d5 v=0
45348 On ch=1 n=a5 v=69
45349 On ch=1 n=f#6 v=105
45352 On ch=1 n=d5 v=70
45375 On ch=1 n=f#6 v=0
45379 On ch=1 n=a5 v=0
45381 On ch=1 n=d5 v=0
45519 On ch=1 n=d5 v=94
45521 On ch=1 n=a5 v=75
45545 On ch=1 n=d5 v=0
45545 On ch=1 n=a5 v=0
45694 On ch=1 n=a6 v=106
45695 On ch=1 n=f#5 v=82
45696 On ch=1 n=a5 v=71
45826 On ch=1 n=b6 v=85
45836 On ch=1 n=a6 v=0
45861 On ch=1 n=e5 v=82
45866 On ch=1 n=g6 v=93
45871 On ch=1 n=f#5 v=0
45881 On ch=1 n=b6 v=0
45986 On ch=1 n=a6 v=94
45992 On ch=1 n=g6 v=0
46027 On ch=1 n=d5 v=71
46029 On ch=1 n=f#6 v=112
46036 On ch=1 n=e5 v=0
46037 On ch=1 n=a6 v=0
46057 On ch=1 n=f#6 v=0
46085 On ch=1 n=d5 v=0
46187 On ch=1 n=a5 v=0
46197 On ch=1 n=d6 v=103
46229 On ch=1 n=d6 v=0
46367 On ch=1 n=e5 v=85
46368 On ch=1 n=a5 v=81
46371 On ch=1 n=g6 v=102
46475 On ch=1 n=g6 v=0
46505 On ch=1 n=a6 v=91
46527 On ch=1 n=f#5 v=87
46530 On ch=1 n=e5 v=0
46542 On ch=1 n=f#6 v=96
46575 On ch=1 n=a6 v=0
46638 On ch=1 n=f#5 v=0
46649 On ch=1 n=f#6 v=0
46665 On ch=1 n=g6 v=76
46699 On ch=1 n=e6 v=92
46699 On ch=1 n=g5 v=69
46708 On ch=1 n=g6 v=0
46730 On ch=1 n=e6 v=0
46806 On ch=1 n=g5 v=0
46831 On ch=1 n=a5 v=0
46876 On ch=1 n=c#6 v=105
46906 On ch=1 n=c#6 v=0
47048 On ch=1 n=d6 v=97
47049 On ch=1 n=f#5 v=88
47051 On ch=1 n=a5 v=73
47077 On ch=1 n=f#5 v=0
47078 On ch=1 n=d6 v=0
47080 On ch=1 n=a5 v=0
47223 On ch=1 n=d6 v=92
47249 On ch=1 n=d6 v=0
47387 On ch=1 n=c#6 v=103
47387 On ch=1 n=a5 v=74
47392 On ch=1 n=e5 v=76
47416 On ch=1 n=a5 v=0
47416 On ch=1 n=e5 v=0
47419 On ch=1 n=c#6 v=0
47568 On ch=1 n=c#6 v=93
47590 On ch=1 n=c#6 v=0
47722 On ch=1 n=b5 v=100
47729 On ch=1 n=d5 v=85
47734 On ch=1 n=e4 v=79
47735 Par ch=1 c=64 v=63
47740 On ch=1 n=c#6 v=107
47745 Par ch=1 c=64 v=127
47751 On ch=1 n=b5 v=0
47779 On ch=1 n=c#6 v=0
47780 On ch=1 n=b5 v=88
47833 Par ch=1 c=64 v=63
47837 Par ch=1 c=64 v=0
47898 On ch=1 n=b5 v=0
47901 On ch=1 n=a5 v=80
47909 Par ch=1 c=64 v=63
47912 Par ch=1 c=64 v=127
47930 On ch=1 n=b5 v=87
47940 On ch=1 n=a5 v=0
47951 On ch=1 n=e4 v=0
48053 On ch=1 n=c#6 v=88
48054 On ch=1 n=b5 v=0
48062 Par ch=1 c=64 v=63
48065 Par ch=1 c=64 v=0
48092 On ch=1 n=a5 v=90
48094 On ch=1 n=a4 v=57
48095 On ch=1 n=c#5 v=88
48104 On ch=1 n=c#6 v=0
48114 On ch=1 n=d5 v=0
48143 On ch=1 n=a5 v=0
48224 On ch=1 n=a4 v=0
48234 On ch=1 n=c#5 v=0
48436 Par ch=1 c=64 v=127
48442 On ch=1 n=d6 v=126
48443 On ch=1 n=d5 v=111
48477 On ch=1 n=d6 v=0
48493 On ch=1 n=e5 v=88
48495 On ch=1 n=d5 v=0
48549 On ch=1 n=e5 v=0
48556 On ch=1 n=f#5 v=98
48595 On ch=1 n=f#5 v=0
48614 On ch=1 n=e5 v=67
48663 On ch=1 n=d5 v=93
48667 On ch=1 n=e5 v=0
48720 On ch=1 n=c#5 v=85
48721 On ch=1 n=e6 v=99
48724 On ch=1 n=d5 v=0
48757 On ch=1 n=d6 v=100
48774 On ch=1 n=e6 v=0
48777 On ch=1 n=c#5 v=0
48778 Par ch=1 c=64 v=63
48779 On ch=1 n=b4 v=83
48783 Par ch=1 c=64 v=0
48789 On ch=1 n=c#6 v=116
48804 On ch=1 n=d6 v=0
48823 On ch=1 n=c#6 v=0
48833 On ch=1 n=c#5 v=93
48855 On ch=1 n=b4 v=0
48892 On ch=1 n=c#5 v=0
48902 On ch=1 n=d5 v=76
48945 On ch=1 n=d6 v=107
48948 On ch=1 n=c#5 v=100
48953 On ch=1 n=d5 v=0
48977 On ch=1 n=d6 v=0
48987 On ch=1 n=c#5 v=0
49010 On ch=1 n=b4 v=83
49051 On ch=1 n=a4 v=83
49054 On ch=1 n=b4 v=0
49104 On ch=1 n=a4 v=0
49112 On ch=1 n=g4 v=104
49114 On ch=1 n=d#6 v=123
49143 Par ch=1 c=64 v=63
49145 Par ch=1 c=64 v=127
49167 On ch=1 n=a4 v=89
49174 On ch=1 n=g4 v=0
49219 On ch=1 n=b4 v=86
49221 On ch=1 n=a4 v=0
49264 Par ch=1 c=64 v=63
49270 Par ch=1 c=64 v=0
49272 On ch=1 n=a4 v=74
49277 On ch=1 n=e6 v=103
49278 On ch=1 n=b4 v=0
49284 On ch=1 n=d#6 v=0
49310 On ch=1 n=e6 v=0
49314 On ch=1 n=g4 v=80
49321 On ch=1 n=a4 v=0
49372 On ch=1 n=f#4 v=82
49403 On ch=1 n=g4 v=0
49433 On ch=1 n=e4 v=79
49438 On ch=1 n=f#4 v=0
49455 On ch=1 n=e6 v=112
49484 On ch=1 n=e6 v=0
49498 On ch=1 n=f#4 v=89
49518 On ch=1 n=e4 v=0
49555 On ch=1 n=f#4 v=0
49565 On ch=1 n=g4 v=84
49611 On ch=1 n=f#4 v=108
49625 On ch=1 n=g4 v=0
49650 On ch=1 n=f#4 v=0
49672 On ch=1 n=e4 v=102
49716 On ch=1 n=d4 v=99
49724 On ch=1 n=e4 v=0
49764 On ch=1 n=c#4 v=114
49772 On ch=1 n=d4 v=0
49775 On ch=1 n=e6 v=122
49810 Par ch=1 c=64 v=63
49812 Par ch=1 c=64 v=127
49819 On ch=1 n=d4 v=107
49833 On ch=1 n=c#4 v=0
49873 On ch=1 n=d4 v=0
49877 On ch=1 n=e4 v=100
49920 On ch=1 n=e6 v=0
49926 On ch=1 n=d4 v=98
49938 On ch=1 n=e4 v=0
49971 On ch=1 n=c#4 v=113
49989 On ch=1 n=d4 v=0
50024 On ch=1 n=c#4 v=0
50038 On ch=1 n=b3 v=103
50042 On ch=1 n=f#6 v=98
50077 On ch=1 n=e6 v=107
50095 On ch=1 n=b3 v=0
50096 On ch=1 n=f#6 v=0
50102 On ch=1 n=a3 v=103
50110 Par ch=1 c=64 v=63
50115 Par ch=1 c=64 v=0
50122 On ch=1 n=d6 v=104
50142 On ch=1 n=e6 v=0
50158 On ch=1 n=b3 v=100
50159 On ch=1 n=a3 v=0
50168 On ch=1 n=d6 v=0
50208 On ch=1 n=a3 v=84
50223 On ch=1 n=b3 v=0
50260 On ch=1 n=g3 v=94
50269 On ch=1 n=a3 v=0
50285 Par ch=1 c=64 v=63
50288 Par ch=1 c=64 v=127
50295 On ch=1 n=e6 v=114
50316 On ch=1 n=f#3 v=95
50325 On ch=1 n=g3 v=0
50334 On ch=1 n=e6 v=0
50385 On ch=1 n=f#3 v=0
50390 On ch=1 n=e3 v=108
50431 Par ch=1 c=64 v=63
50433 On ch=1 n=e3 v=0
50436 Par ch=1 c=64 v=0
50447 On ch=1 n=d3 v=100
50449 On ch=1 n=f6 v=117
50456 On ch=1 n=c3 v=67
50467 Par ch=1 c=64 v=63
50475 Par ch=1 c=64 v=127
50478 On ch=1 n=c3 v=0
50511 On ch=1 n=f#3 v=114
50545 On ch=1 n=d3 v=0
50566 On ch=1 n=g3 v=112
50593 On ch=1 n=f#3 v=0
50616 On ch=1 n=a3 v=102
50622 Par ch=1 c=64 v=63
50627 Par ch=1 c=64 v=0
50629 On ch=1 n=g3 v=0
50629 On ch=1 n=f#6 v=112
50643 On ch=1 n=f6 v=0
50664 On ch=1 n=f#6 v=0
50669 On ch=1 n=b3 v=106
50683 On ch=1 n=a3 v=0
50729 On ch=1 n=c#4 v=113
50753 On ch=1 n=b3 v=0
50787 On ch=1 n=f#6 v=119
50789 On ch=1 n=d4 v=109
50794 On ch=1 n=c#4 v=0
50819 On ch=1 n=f#6 v=0
50847 On ch=1 n=e4 v=87
50855 On ch=1 n=d4 v=0
50888 On ch=1 n=f#4 v=105
50916 On ch=1 n=e4 v=0
50944 On ch=1 n=g4 v=107
50967 On ch=1 n=f#4 v=0
50996 On ch=1 n=a4 v=94
51008 On ch=1 n=g4 v=0
51045 On ch=1 n=b4 v=108
51050 On ch=1 n=a4 v=0
51087 On ch=1 n=b4 v=0
51116 On ch=1 n=c5 v=125
51122 On ch=1 n=d5 v=102
51140 Par ch=1 c=64 v=127
51174 On ch=1 n=d5 v=0
51176 On ch=1 n=f#5 v=97
51213 On ch=1 n=a5 v=90
51214 On ch=1 n=f#5 v=0
51235 On ch=1 n=a5 v=0
51279 On ch=1 n=d6 v=98
51296 On ch=1 n=c5 v=0
51328 On ch=1 n=d6 v=0
51334 On ch=1 n=e6 v=90
51379 On ch=1 n=f#6 v=104
51402 On ch=1 n=e6 v=0
51441 On ch=1 n=g6 v=92
51441 On ch=1 n=b4 v=116
51448 On ch=1 n=f#6 v=0
51455 Par ch=1 c=64 v=63
51459 Par ch=1 c=64 v=0
51499 On ch=1 n=f#6 v=109
51504 On ch=1 n=g6 v=0
51509 On ch=1 n=b4 v=0
51555 On ch=1 n=g6 v=87
51559 On ch=1 n=f#6 v=0
51602 On ch=1 n=b6 v=91
51604 On ch=1 n=g6 v=0
51646 On ch=1 n=g6 v=88
51653 On ch=1 n=b6 v=0
51700 On ch=1 n=g6 v=0
51706 On ch=1 n=d6 v=101
51745 On ch=1 n=d6 v=0
51763 On ch=1 n=a5 v=80
51764 On ch=1 n=g4 v=120
51771 Par ch=1 c=64 v=127
51819 On ch=1 n=a5 v=0
51821 On ch=1 n=c#6 v=101
51866 On ch=1 n=e6 v=93
51874 On ch=1 n=c#6 v=0
51899 On ch=1 n=e6 v=0
51927 On ch=1 n=g4 v=0
51929 On ch=1 n=a6 v=106
51982 On ch=1 n=a6 v=0
51984 On ch=1 n=b6 v=91
52033 On ch=1 n=c#7 v=104
52050 On ch=1 n=b6 v=0
52086 On ch=1 n=f#4 v=108
52094 On ch=1 n=d7 v=96
52103 On ch=1 n=c#7 v=0
52123 Par ch=1 c=64 v=63
52139 Par ch=1 c=64 v=0
52140 On ch=1 n=f#4 v=0
52150 On ch=1 n=c#7 v=103
52160 On ch=1 n=d7 v=0
52202 On ch=1 n=b6 v=94
52231 On ch=1 n=c#7 v=0
52256 On ch=1 n=b6 v=0
52257 On ch=1 n=a6 v=84
52293 On ch=1 n=a6 v=0
52304 On ch=1 n=g6 v=99
52360 On ch=1 n=f#6 v=104
52364 On ch=1 n=g6 v=0
52400 On ch=1 n=f#6 v=0
52407 On ch=1 n=d#6 v=110
52455 On ch=1 n=e6 v=103
52457 On ch=1 n=d#6 v=0
52507 On ch=1 n=g6 v=101
52514 On ch=1 n=e6 v=0
52561 On ch=1 n=g4 v=70
52562 On ch=1 n=b6 v=103
52566 On ch=1 n=g5 v=101
52575 On ch=1 n=g6 v=0
52599 On ch=1 n=g4 v=0
52599 On ch=1 n=g5 v=0
52611 On ch=1 n=g6 v=92
52640 On ch=1 n=b6 v=0
52662 On ch=1 n=e6 v=90
52668 On ch=1 n=g6 v=0
52710 On ch=1 n=e6 v=0
52720 On ch=1 n=f#5 v=114
52723 On ch=1 n=a6 v=101
52724 On ch=1 n=a4 v=94
52758 On ch=1 n=f#5 v=0
52758 On ch=1 n=a4 v=0
52775 On ch=1 n=f#6 v=100
52800 On ch=1 n=a6 v=0
52829 On ch=1 n=d6 v=88
52841 On ch=1 n=f#6 v=0
52875 On ch=1 n=d6 v=0
52880 On ch=1 n=g6 v=96
52882 On ch=1 n=e5 v=98
52883 On ch=1 n=a4 v=97
52913 On ch=1 n=e5 v=0
52918 On ch=1 n=a4 v=0
52925 On ch=1 n=e6 v=98
52945 On ch=1 n=g6 v=0
52981 On ch=1 n=c#6 v=105
52988 On ch=1 n=e6 v=0
53024 On ch=1 n=c#6 v=0
53038 On ch=1 n=d4 v=114
53039 On ch=1 n=d6 v=106
53102 Par ch=1 c=64 v=63
53102 On ch=1 n=f#4 v=97
53107 Par ch=1 c=64 v=127
53115 On ch=1 n=d4 v=0
53154 On ch=1 n=d6 v=0
53159 On ch=1 n=a4 v=81
53165 On ch=1 n=f#4 v=0
53198 On ch=1 n=a4 v=0
53206 On ch=1 n=d5 v=89
53252 On ch=1 n=d5 v=0
53255 On ch=1 n=a4 v=84
53298 On ch=1 n=f#4 v=106
53308 On ch=1 n=a4 v=0
53349 On ch=1 n=f#4 v=0
53361 On ch=1 n=d4 v=116
53375 Par ch=1 c=64 v=63
53389 Par ch=1 c=64 v=0
53420 Par ch=1 c=64 v=63
53425 On ch=1 n=f#4 v=113
53436 Par ch=1 c=64 v=127
53484 On ch=1 n=a4 v=106
53533 On ch=1 n=f#4 v=0
53535 On ch=1 n=d7 v=120
53545 On ch=1 n=d5 v=83
53560 On ch=1 n=a4 v=0
53611 On ch=1 n=d5 v=0
53612 On ch=1 n=a4 v=80
53632 On ch=1 n=d4 v=0
53655 On ch=1 n=f#4 v=98
53680 On ch=1 n=a4 v=0
53715 On ch=1 n=d4 v=93
53734 On ch=1 n=c#7 v=112
53742 Par ch=1 c=64 v=63
53751 On ch=1 n=f#4 v=0
53763 Par ch=1 c=64 v=127
53770 On ch=1 n=d7 v=0
53818 On ch=1 n=e4 v=89
53846 On ch=1 n=d4 v=0
53847 On ch=1 n=a6 v=107
53880 On ch=1 n=c#7 v=0
53895 On ch=1 n=g4 v=71
53914 On ch=1 n=e4 v=0
53945 On ch=1 n=c#5 v=91
53947 On ch=1 n=g4 v=0
53948 On ch=1 n=g6 v=111
53981 On ch=1 n=a6 v=0
53989 On ch=1 n=c#5 v=0
53989 On ch=1 n=g4 v=43
54045 On ch=1 n=e4 v=85
54061 On ch=1 n=g4 v=0
54081 On ch=1 n=g6 v=0
54099 On ch=1 n=d4 v=89
54106 On ch=1 n=e4 v=0
54153 On ch=1 n=e4 v=96
54170 On ch=1 n=d4 v=0
54215 On ch=1 n=g4 v=81
54224 On ch=1 n=e4 v=0
54261 On ch=1 n=g4 v=0
54264 On ch=1 n=e6 v=109
54271 On ch=1 n=c#5 v=92
54308 On ch=1 n=c#5 v=0
54318 On ch=1 n=g4 v=45
54343 On ch=1 n=c#6 v=112
54351 On ch=1 n=e4 v=81
54355 On ch=1 n=e6 v=0
54371 On ch=1 n=g4 v=0
54400 On ch=1 n=c#6 v=0
54412 On ch=1 n=e4 v=0
54416 On ch=1 n=d4 v=84
54432 On ch=1 n=d6 v=96
54442 Par ch=1 c=64 v=63
54448 Par ch=1 c=64 v=0
54484 On ch=1 n=f4 v=75
54489 Par ch=1 c=64 v=63
54499 Par ch=1 c=64 v=127
54509 On ch=1 n=d4 v=0
54538 On ch=1 n=a4 v=78
54545 On ch=1 n=f4 v=0
54582 On ch=1 n=a4 v=0
54585 On ch=1 n=d5 v=82
54604 On ch=1 n=d6 v=0
54639 On ch=1 n=d5 v=0
54639 On ch=1 n=a4 v=63
54681 On ch=1 n=f4 v=76
54686 On ch=1 n=a4 v=0
54748 On ch=1 n=d4 v=89
54750 On ch=1 n=f4 v=0
54775 Par ch=1 c=64 v=63
54791 Par ch=1 c=64 v=127
54824 On ch=1 n=f4 v=72
54898 On ch=1 n=a4 v=59
54918 On ch=1 n=f4 v=0
54955 On ch=1 n=d7 v=90
54956 On ch=1 n=d5 v=66
54959 On ch=1 n=a4 v=0
55018 On ch=1 n=d5 v=0
55020 On ch=1 n=a4 v=46
55042 On ch=1 n=d4 v=0
55059 On ch=1 n=f4 v=71
55090 On ch=1 n=a4 v=0
55121 On ch=1 n=d4 v=89
55132 On ch=1 n=c#7 v=83
55143 On ch=1 n=f4 v=0
55163 On ch=1 n=d7 v=0
55199 On ch=1 n=e4 v=82
55217 On ch=1 n=a6 v=92
55218 On ch=1 n=d4 v=0
55227 On ch=1 n=c#7 v=0
55263 On ch=1 n=g4 v=57
55277 On ch=1 n=a6 v=0
55287 On ch=1 n=e4 v=0
55302 On ch=1 n=g6 v=96
55316 On ch=1 n=c#5 v=87
55322 On ch=1 n=g4 v=0
55358 On ch=1 n=c#5 v=0
55368 On ch=1 n=g4 v=47
55404 On ch=1 n=e4 v=81
55424 On ch=1 n=g4 v=0
55460 On ch=1 n=d4 v=93
55466 On ch=1 n=e4 v=0
55478 On ch=1 n=g6 v=0
55520 On ch=1 n=e4 v=84
55527 On ch=1 n=d4 v=0
55574 On ch=1 n=g4 v=74
55584 On ch=1 n=e4 v=0
55619 On ch=1 n=g4 v=0
55635 On ch=1 n=c#5 v=90
55636 On ch=1 n=e6 v=99
55670 On ch=1 n=c#5 v=0
55677 On ch=1 n=g4 v=41
55687 On ch=1 n=e6 v=0
55702 On ch=1 n=c#6 v=94
55712 On ch=1 n=e4 v=86
55730 On ch=1 n=g4 v=0
55747 On ch=1 n=c#6 v=0
55780 On ch=1 n=d6 v=96
55781 On ch=1 n=d4 v=99
55788 On ch=1 n=e4 v=0
55791 Par ch=1 c=64 v=63
55798 Par ch=1 c=64 v=0
55819 Par ch=1 c=64 v=63
55834 Par ch=1 c=64 v=127
55838 On ch=1 n=d6 v=0
55842 On ch=1 n=a5 v=84
55857 On ch=1 n=d4 v=0
55885 On ch=1 n=a5 v=0
55893 On ch=1 n=f6 v=94
55940 On ch=1 n=e6 v=87
55950 Par ch=1 c=64 v=63
55960 Par ch=1 c=64 v=0
55962 On ch=1 n=f6 v=0
55988 On ch=1 n=c#6 v=99
55996 On ch=1 n=e6 v=0
56034 On ch=1 n=c#6 v=0
56035 On ch=1 n=g6 v=94
56083 On ch=1 n=f6 v=91
56102 On ch=1 n=g6 v=0
56139 On ch=1 n=d6 v=89
56140 On ch=1 n=f6 v=0
56186 On ch=1 n=d6 v=0
56188 On ch=1 n=a6 v=88
56254 On ch=1 n=g6 v=72
56257 On ch=1 n=a4 v=63
56261 On ch=1 n=g5 v=67
56267 On ch=1 n=e5 v=71
56271 On ch=1 n=a6 v=0
56292 On ch=1 n=g5 v=0
56297 On ch=1 n=e5 v=0
56302 On ch=1 n=a4 v=0
56306 On ch=1 n=e6 v=89
56314 On ch=1 n=g6 v=0
56355 On ch=1 n=e6 v=0
56362 On ch=1 n=c#6 v=95
56405 On ch=1 n=c#6 v=0
56414 On ch=1 n=d6 v=88
56422 On ch=1 n=f5 v=76
56422 On ch=1 n=d5 v=72
56441 Par ch=1 c=64 v=63
56447 Par ch=1 c=64 v=127
56470 On ch=1 n=d6 v=0
56473 On ch=1 n=a5 v=87
56496 On ch=1 n=f5 v=0
56502 On ch=1 n=d5 v=0
56520 On ch=1 n=a5 v=0
56528 On ch=1 n=f6 v=88
56574 On ch=1 n=e6 v=84
56599 On ch=1 n=f6 v=0
56631 On ch=1 n=c#6 v=100
56639 On ch=1 n=e6 v=0
56654 Par ch=1 c=64 v=63
56678 On ch=1 n=g6 v=97
56682 On ch=1 n=c#6 v=0
56706 Par ch=1 c=64 v=0
56727 On ch=1 n=f6 v=91
56750 On ch=1 n=g6 v=0
56753 Par ch=1 c=64 v=63
56784 On ch=1 n=d6 v=93
56788 On ch=1 n=f6 v=0
56825 On ch=1 n=a6 v=89
56834 Par ch=1 c=64 v=127
56837 On ch=1 n=d6 v=0
56859 On ch=1 n=a6 v=0
56861 Par ch=1 c=64 v=63
56870 Par ch=1 c=64 v=0
56884 On ch=1 n=a#5 v=109
56888 On ch=1 n=g5 v=94
56889 On ch=1 n=c5 v=88
56890 On ch=1 n=a#6 v=118
56931 Par ch=1 c=64 v=63
56933 On ch=1 n=c5 v=0
56939 Par ch=1 c=64 v=0
56943 On ch=1 n=a#5 v=0
56944 On ch=1 n=g5 v=0
56946 On ch=1 n=g6 v=74
56965 On ch=1 n=a#6 v=0
56991 On ch=1 n=e6 v=84
57002 On ch=1 n=g6 v=0
57032 On ch=1 n=e6 v=0
57056 On ch=1 n=f5 v=106
57056 On ch=1 n=a5 v=101
57059 On ch=1 n=f6 v=104
57086 Par ch=1 c=64 v=63
57088 Par ch=1 c=64 v=127
57095 On ch=1 n=a5 v=0
57096 On ch=1 n=f5 v=0
57103 On ch=1 n=f6 v=0
57107 On ch=1 n=c6 v=90
57143 On ch=1 n=c6 v=0
57169 On ch=1 n=a6 v=97
57217 On ch=1 n=g6 v=91
57242 On ch=1 n=a6 v=0
57243 Par ch=1 c=64 v=63
57250 Par ch=1 c=64 v=0
57273 On ch=1 n=e6 v=73
57275 On ch=1 n=g6 v=0
57315 On ch=1 n=e6 v=0
57321 On ch=1 n=a#6 v=107
57366 On ch=1 n=a6 v=98
57400 On ch=1 n=a#6 v=0
57419 On ch=1 n=f6 v=93
57427 On ch=1 n=a6 v=0
57470 On ch=1 n=c7 v=103
57471 On ch=1 n=f6 v=0
57517 On ch=1 n=a#6 v=110
57521 On ch=1 n=a#5 v=118
57525 On ch=1 n=g5 v=100
57528 On ch=1 n=c5 v=87
57531 Par ch=1 c=64 v=63
57533 Par ch=1 c=64 v=127
57543 Par ch=1 c=64 v=63
57544 On ch=1 n=c7 v=0
57547 On ch=1 n=c5 v=0
57548 Par ch=1 c=64 v=0
57551 On ch=1 n=a#5 v=0
57554 On ch=1 n=g5 v=0
57576 On ch=1 n=g6 v=100
57599 On ch=1 n=a#6 v=0
57627 On ch=1 n=e6 v=91
57638 On ch=1 n=g6 v=0
57665 On ch=1 n=e6 v=0
57670 On ch=1 n=f6 v=111
57670 Par ch=1 c=64 v=127
57675 On ch=1 n=f5 v=84
57676 On ch=1 n=a5 v=67
57693 On ch=1 n=f5 v=0
57699 On ch=1 n=a5 v=0
57717 On ch=1 n=f6 v=0
57721 On ch=1 n=c6 v=91
57763 On ch=1 n=c6 v=0
57780 On ch=1 n=a6 v=88
57826 On ch=1 n=g6 v=84
57837 On ch=1 n=a6 v=0
57873 Par ch=1 c=64 v=63
57874 On ch=1 n=g6 v=0
57875 On ch=1 n=e6 v=88
57878 Par ch=1 c=64 v=0
57921 On ch=1 n=e6 v=0
57927 On ch=1 n=a#6 v=101
57969 On ch=1 n=a6 v=97
57999 On ch=1 n=a#6 v=0
58024 On ch=1 n=f6 v=90
58027 On ch=1 n=a6 v=0
58067 On ch=1 n=f6 v=0
58068 On ch=1 n=c7 v=108
58104 On ch=1 n=c7 v=0
58122 On ch=1 n=d6 v=116
58123 On ch=1 n=d7 v=111
58125 On ch=1 n=e5 v=100
58126 On ch=1 n=b5 v=106
58156 On ch=1 n=d6 v=0
58157 On ch=1 n=b5 v=0
58167 On ch=1 n=e5 v=0
58177 On ch=1 n=b6 v=100
58191 On ch=1 n=d7 v=0
58226 On ch=1 n=g#6 v=107
58236 On ch=1 n=b6 v=0
58257 On ch=1 n=g#6 v=0
58283 On ch=1 n=a6 v=113
58285 On ch=1 n=a5 v=121
58296 Par ch=1 c=64 v=63
58298 Par ch=1 c=64 v=127
58352 On ch=1 n=e5 v=88
58353 On ch=1 n=a5 v=0
58417 On ch=1 n=c6 v=89
58418 On ch=1 n=e5 v=0
58471 On ch=1 n=b5 v=96
58473 On ch=1 n=c6 v=0
58513 On ch=1 n=g#5 v=106
58525 On ch=1 n=b5 v=0
58561 On ch=1 n=a6 v=0
58569 On ch=1 n=d6 v=99
58573 On ch=1 n=g#5 v=0
58616 On ch=1 n=c6 v=100
58648 On ch=1 n=d6 v=0
58659 On ch=1 n=a5 v=102
58675 On ch=1 n=c6 v=0
58726 On ch=1 n=e6 v=101
58733 On ch=1 n=a5 v=0
58749 Par ch=1 c=64 v=63
58780 Par ch=1 c=64 v=127
58781 On ch=1 n=e6 v=0
58801 On ch=1 n=d7 v=122
58805 On ch=1 n=f6 v=112
58807 On ch=1 n=d6 v=102
58832 On ch=1 n=f6 v=0
58839 On ch=1 n=d7 v=0
58862 On ch=1 n=d6 v=0
58876 On ch=1 n=b5 v=90
58944 On ch=1 n=g#5 v=96
58945 On ch=1 n=b5 v=0
59013 On ch=1 n=g#5 v=0
59027 On ch=1 n=c#7 v=121
59030 On ch=1 n=e6 v=120
59037 On ch=1 n=a5 v=87
59061 On ch=1 n=e6 v=0
59071 On ch=1 n=c#7 v=0
59095 On ch=1 n=a5 v=0
59105 On ch=1 n=c#6 v=96
59153 On ch=1 n=c#6 v=0
59153 On ch=1 n=a5 v=80
59204 On ch=1 n=f#5 v=108
59208 On ch=1 n=a5 v=0
59216 On ch=1 n=c7 v=120
59218 On ch=1 n=d#6 v=119
59244 On ch=1 n=f#5 v=0
59254 On ch=1 n=d#6 v=0
59257 On ch=1 n=c7 v=0
59277 On ch=1 n=a5 v=94
59295 On ch=1 n=f#5 v=59
59296 On ch=1 n=b5 v=37
59315 On ch=1 n=b5 v=0
59322 On ch=1 n=a5 v=0
59354 On ch=1 n=f#5 v=0
59374 On ch=1 n=b6 v=117
59376 On ch=1 n=d6 v=114
59377 On ch=1 n=g5 v=100
59411 On ch=1 n=d6 v=0
59420 On ch=1 n=g5 v=0
59421 On ch=1 n=b6 v=0
59431 On ch=1 n=b5 v=98
59477 On ch=1 n=g5 v=82
59484 On ch=1 n=b5 v=0
59514 On ch=1 n=g5 v=0
59517 Par ch=1 c=64 v=63
59525 On ch=1 n=e5 v=106
59537 Par ch=1 c=64 v=127
59539 On ch=1 n=a#6 v=115
59539 On ch=1 n=c#6 v=119
59566 On ch=1 n=c#6 v=0
59567 On ch=1 n=e5 v=0
59581 On ch=1 n=a#6 v=0
59588 On ch=1 n=g5 v=80
59625 On ch=1 n=e5 v=90
59636 On ch=1 n=g5 v=0
59645 Par ch=1 c=64 v=63
59663 Par ch=1 c=64 v=0
59670 On ch=1 n=e5 v=0
59677 Par ch=1 c=64 v=63
59694 On ch=1 n=f5 v=106
59699 On ch=1 n=a6 v=116
59701 On ch=1 n=c6 v=109
59702 Par ch=1 c=64 v=127
59729 On ch=1 n=c6 v=0
59731 On ch=1 n=a6 v=0
59732 On ch=1 n=f5 v=0
59746 On ch=1 n=a5 v=86
59794 On ch=1 n=f5 v=84
59800 On ch=1 n=a5 v=0
59805 Par ch=1 c=64 v=63
59815 On ch=1 n=f5 v=0
59834 Par ch=1 c=64 v=127
59858 On ch=1 n=c#5 v=120
59858 On ch=1 n=g6 v=107
59862 On ch=1 n=a#5 v=106
59888 On ch=1 n=g6 v=0
59888 On ch=1 n=a#5 v=0
59893 On ch=1 n=c#5 v=0
59923 On ch=1 n=e5 v=92
59962 On ch=1 n=c#5 v=91
59970 On ch=1 n=e5 v=0
59998 On ch=1 n=c#5 v=0
60000 Par ch=1 c=64 v=63
60025 On ch=1 n=f6 v=120
60026 On ch=1 n=d5 v=117
60026 On ch=1 n=a5 v=117
60034 Par ch=1 c=64 v=127
60053 On ch=1 n=a5 v=0
60055 On ch=1 n=f6 v=0
60069 On ch=1 n=d5 v=0
60086 On ch=1 n=f5 v=88
60134 On ch=1 n=d5 v=98
60138 On ch=1 n=f5 v=0
60142 Par ch=1 c=64 v=63
60152 Par ch=1 c=64 v=0
60179 On ch=1 n=d5 v=0
60183 Par ch=1 c=64 v=63
60191 On ch=1 n=a4 v=112
60197 Par ch=1 c=64 v=127
60200 On ch=1 n=f#5 v=118
60201 On ch=1 n=d#6 v=108
60228 On ch=1 n=f#5 v=0
60236 On ch=1 n=a4 v=0
60246 On ch=1 n=d#6 v=0
60248 On ch=1 n=c5 v=91
60283 On ch=1 n=a4 v=102
60293 Par ch=1 c=64 v=63
60295 On ch=1 n=c5 v=0
60298 Par ch=1 c=64 v=0
60348 On ch=1 n=a#4 v=119
60357 On ch=1 n=d6 v=116
60364 On ch=1 n=a4 v=0
60368 Par ch=1 c=64 v=63
60371 Par ch=1 c=64 v=127
60386 On ch=1 n=a#4 v=0
60403 On ch=1 n=g5 v=84
60406 On ch=1 n=d6 v=0
60456 On ch=1 n=a#5 v=104
60464 On ch=1 n=g5 v=0
60486 On ch=1 n=a#5 v=0
60520 On ch=1 n=d6 v=103
60562 On ch=1 n=d6 v=0
60568 On ch=1 n=g6 v=92
60617 On ch=1 n=a#6 v=114
60637 On ch=1 n=g6 v=0
60661 On ch=1 n=a#6 v=0
60673 On ch=1 n=d7 v=117
60723 On ch=1 n=c7 v=106
60750 On ch=1 n=d7 v=0
60769 On ch=1 n=a#6 v=108
60793 On ch=1 n=c7 v=0
60813 On ch=1 n=a6 v=108
60823 On ch=1 n=b4 v=118
60838 Par ch=1 c=64 v=63
60839 On ch=1 n=a#6 v=0
60843 Par ch=1 c=64 v=0
60857 On ch=1 n=b4 v=0
60866 On ch=1 n=g6 v=99
60871 On ch=1 n=a6 v=0
60914 On ch=1 n=g6 v=0
60921 On ch=1 n=f6 v=106
60968 On ch=1 n=f6 v=0
60992 On ch=1 n=e6 v=120
60996 On ch=1 n=c3 v=127
61001 Par ch=1 c=64 v=63
61002 Par ch=1 c=64 v=127
61050 On ch=1 n=e3 v=99
61057 On ch=1 n=e6 v=0
61074 On ch=1 n=c3 v=0
61109 On ch=1 n=g3 v=104
61125 On ch=1 n=e3 v=0
61153 On ch=1 n=c4 v=102
61155 On ch=1 n=g3 v=0
61193 Par ch=1 c=64 v=63
61194 On ch=1 n=c4 v=0
61197 Par ch=1 c=64 v=0
61209 On ch=1 n=e4 v=103
61254 On ch=1 n=e4 v=0
61263 On ch=1 n=g4 v=88
61297 On ch=1 n=g4 v=0
61311 Par ch=1 c=64 v=63
61312 Par ch=1 c=64 v=127
61324 On ch=1 n=f3 v=125
61329 On ch=1 n=a6 v=117
61330 On ch=1 n=f6 v=116
61331 On ch=1 n=c6 v=120
61358 Par ch=1 c=64 v=127
61381 On ch=1 n=a3 v=98
61408 On ch=1 n=f3 v=0
61439 On ch=1 n=c6 v=0
61440 On ch=1 n=a6 v=0
61443 On ch=1 n=c4 v=103
61445 On ch=1 n=f6 v=0
61455 On ch=1 n=a3 v=0
61491 On ch=1 n=c4 v=0
61493 On ch=1 n=f4 v=94
61527 On ch=1 n=f4 v=0
61549 On ch=1 n=a4 v=107
61590 On ch=1 n=a4 v=0
61597 On ch=1 n=c5 v=104
61633 Par ch=1 c=64 v=63
61636 On ch=1 n=c5 v=0
61637 Par ch=1 c=64 v=0
61656 On ch=1 n=c5 v=111
61665 On ch=1 n=e4 v=108
61665 On ch=1 n=c4 v=104
61708 Par ch=1 c=64 v=63
61713 Par ch=1 c=64 v=127
61715 On ch=1 n=e5 v=107
61716 On ch=1 n=c5 v=0
61740 On ch=1 n=e4 v=0
61751 On ch=1 n=c4 v=0
61770 On ch=1 n=g5 v=99
61777 On ch=1 n=e5 v=0
61799 On ch=1 n=g5 v=0
61831 On ch=1 n=c6 v=112
61879 On ch=1 n=c6 v=0
61879 On ch=1 n=e6 v=107
61924 On ch=1 n=g6 v=91
61936 On ch=1 n=e6 v=0
61958 On ch=1 n=g6 v=0
61988 On ch=1 n=a6 v=111
61991 On ch=1 n=c4 v=120
61993 On ch=1 n=f4 v=117
61994 Par ch=1 c=64 v=63
62004 Par ch=1 c=64 v=0
62028 Par ch=1 c=64 v=63
62038 On ch=1 n=c7 v=109
62039 On ch=1 n=a6 v=0
62044 Par ch=1 c=64 v=127
62096 On ch=1 n=c7 v=0
62097 On ch=1 n=f7 v=113
62122 On ch=1 n=c4 v=0
62123 On ch=1 n=f4 v=0
62144 On ch=1 n=c7 v=108
62156 On ch=1 n=f7 v=0
62189 On ch=1 n=c7 v=0
62201 On ch=1 n=a6 v=106
62228 Par ch=1 c=64 v=63
62233 On ch=1 n=a6 v=0
62243 On ch=1 n=f6 v=83
62249 Par ch=1 c=64 v=0
62285 On ch=1 n=f6 v=0
62305 On ch=1 n=c7 v=121
62315 On ch=1 n=c4 v=120
62316 On ch=1 n=e4 v=118
62335 Par ch=1 c=64 v=63
62346 On ch=1 n=c7 v=0
62347 Par ch=1 c=64 v=127
62453 Par ch=1 c=64 v=63
62463 Par ch=1 c=64 v=0
62485 Par ch=1 c=64 v=63
62491 On ch=1 n=c6 v=120
62502 Par ch=1 c=64 v=127
62526 On ch=1 n=c6 v=0
62542 On ch=1 n=e4 v=0
62554 On ch=1 n=c4 v=0
62654 Par ch=1 c=64 v=63
62664 Par ch=1 c=64 v=0
63082 On ch=1 n=f6 v=80
63097 Par ch=1 c=64 v=63
63108 Par ch=1 c=64 v=127
63237 On ch=1 n=f6 v=0
63370 On ch=1 n=g6 v=81
63414 On ch=1 n=f6 v=85
63421 On ch=1 n=g6 v=0
63450 On ch=1 n=e6 v=85
63451 On ch=1 n=f6 v=0
63452 Par ch=1 c=64 v=63
63463 Par ch=1 c=64 v=0
63489 On ch=1 n=e6 v=0
63617 On ch=1 n=f6 v=100
63650 On ch=1 n=f6 v=0
63799 Par ch=1 c=64 v=63
63801 On ch=1 n=f#6 v=98
63809 Par ch=1 c=64 v=127
63991 On ch=1 n=g6 v=92
63998 On ch=1 n=a#5 v=72
64022 On ch=1 n=f#6 v=0
64027 Par ch=1 c=64 v=63
64058 Par ch=1 c=64 v=0
64060 On ch=1 n=g6 v=0
64070 On ch=1 n=a#5 v=0
64077 On ch=1 n=d5 v=87
64162 On ch=1 n=g6 v=78
64167 On ch=1 n=f5 v=77
64205 On ch=1 n=d5 v=0
64210 Par ch=1 c=64 v=63
64220 Par ch=1 c=64 v=127
64333 On ch=1 n=e5 v=65
64339 Par ch=1 c=64 v=63
64350 Par ch=1 c=64 v=0
64359 On ch=1 n=f5 v=0
64397 On ch=1 n=g6 v=0
64533 On ch=1 n=e5 v=0
64534 On ch=1 n=g6 v=94
64694 Par ch=1 c=64 v=63
64699 Par ch=1 c=64 v=127
64781 On ch=1 n=g6 v=0
64815 On ch=1 n=a6 v=78
64843 On ch=1 n=g6 v=79
64851 Par ch=1 c=64 v=63
64858 Par ch=1 c=64 v=0
64860 On ch=1 n=a6 v=0
64875 On ch=1 n=f#6 v=103
64889 On ch=1 n=g6 v=0
64908 On ch=1 n=f#6 v=0
65054 On ch=1 n=g6 v=92
65089 On ch=1 n=g6 v=0
65231 On ch=1 n=g#6 v=106
65251 Par ch=1 c=64 v=63
65256 Par ch=1 c=64 v=127
65418 On ch=1 n=a6 v=94
65418 On ch=1 n=c6 v=69
65437 Par ch=1 c=64 v=63
65452 Par ch=1 c=64 v=0
65454 On ch=1 n=g#6 v=0
65475 On ch=1 n=a6 v=0
65499 On ch=1 n=e5 v=83
65510 On ch=1 n=c6 v=0
65587 On ch=1 n=g5 v=66
65589 On ch=1 n=a6 v=84
65592 On ch=1 n=e5 v=0
65696 Par ch=1 c=64 v=63
65705 Par ch=1 c=64 v=127
65749 On ch=1 n=a6 v=0
65770 On ch=1 n=f#5 v=83
65780 On ch=1 n=g5 v=0
65798 On ch=1 n=f#5 v=0
65905 Par ch=1 c=64 v=63
65911 Par ch=1 c=64 v=0
65962 On ch=1 n=g4 v=122
65967 On ch=1 n=a#6 v=114
65981 Par ch=1 c=64 v=127
66032 On ch=1 n=c7 v=104
66033 On ch=1 n=a#6 v=0
66097 On ch=1 n=d7 v=106
66099 On ch=1 n=g4 v=0
66104 On ch=1 n=c7 v=0
66152 On ch=1 n=c7 v=102
66181 On ch=1 n=d7 v=0
66208 On ch=1 n=a#6 v=107
66226 On ch=1 n=c7 v=0
66246 On ch=1 n=a4 v=100
66271 On ch=1 n=a6 v=101
66276 On ch=1 n=g4 v=101
66280 On ch=1 n=a#6 v=0
66297 On ch=1 n=a4 v=0
66301 Par ch=1 c=64 v=63
66305 Par ch=1 c=64 v=0
66331 On ch=1 n=f#4 v=118
66333 On ch=1 n=g6 v=97
66335 On ch=1 n=a6 v=0
66353 On ch=1 n=g4 v=0
66380 On ch=1 n=f#4 v=0
66382 On ch=1 n=g6 v=0
66391 On ch=1 n=a6 v=101
66451 On ch=1 n=g6 v=98
66470 On ch=1 n=a6 v=0
66484 On ch=1 n=g4 v=113
66505 On ch=1 n=g6 v=0
66508 On ch=1 n=f6 v=89
66523 On ch=1 n=g4 v=0
66562 On ch=1 n=d#6 v=109
66569 On ch=1 n=f6 v=0
66617 On ch=1 n=d6 v=102
66621 On ch=1 n=d#6 v=0
66650 On ch=1 n=g#4 v=115
66670 On ch=1 n=d6 v=0
66670 On ch=1 n=c6 v=101
66684 Par ch=1 c=64 v=63
66687 Par ch=1 c=64 v=127
66719 On ch=1 n=d6 v=101
66731 On ch=1 n=c6 v=0
66773 On ch=1 n=d#6 v=112
66784 On ch=1 n=d6 v=0
66813 Par ch=1 c=64 v=63
66818 Par ch=1 c=64 v=0
66818 On ch=1 n=a4 v=104
66823 On ch=1 n=d6 v=98
66829 On ch=1 n=d#6 v=0
66831 On ch=1 n=g#4 v=0
66863 On ch=1 n=a4 v=0
66874 On ch=1 n=d6 v=0
66878 On ch=1 n=c6 v=86
66931 On ch=1 n=a#5 v=100
66932 On ch=1 n=c6 v=0
66985 On ch=1 n=a#5 v=0
66989 On ch=1 n=a5 v=97
66989 On ch=1 n=a4 v=97
67030 On ch=1 n=a4 v=0
67040 On ch=1 n=a#5 v=97
67054 On ch=1 n=a5 v=0
67091 On ch=1 n=c6 v=88
67093 On ch=1 n=a#5 v=0
67146 On ch=1 n=a#5 v=100
67165 On ch=1 n=c6 v=0
67197 On ch=1 n=a5 v=91
67215 On ch=1 n=a#5 v=0
67251 On ch=1 n=g5 v=86
67257 On ch=1 n=a5 v=0
67286 On ch=1 n=g5 v=0
67322 On ch=1 n=a4 v=116
67324 On ch=1 n=f#5 v=107
67330 Par ch=1 c=64 v=63
67331 Par ch=1 c=64 v=127
67363 On ch=1 n=a4 v=0
67369 On ch=1 n=f#5 v=0
67385 On ch=1 n=c6 v=77
67447 On ch=1 n=d6 v=69
67453 On ch=1 n=c6 v=0
67499 On ch=1 n=d#6 v=96
67507 On ch=1 n=d6 v=0
67558 On ch=1 n=d6 v=89
67583 On ch=1 n=d#6 v=0
67585 On ch=1 n=a#4 v=103
67609 On ch=1 n=d6 v=0
67621 On ch=1 n=c6 v=86
67631 On ch=1 n=a4 v=91
67638 On ch=1 n=a#4 v=0
67653 On ch=1 n=c6 v=0
67669 On ch=1 n=g4 v=103
67677 Par ch=1 c=64 v=63
67677 On ch=1 n=a6 v=96
67681 Par ch=1 c=64 v=0
67699 On ch=1 n=a4 v=0
67724 On ch=1 n=g4 v=0
67725 On ch=1 n=g6 v=91
67742 On ch=1 n=a6 v=0
67774 On ch=1 n=f#6 v=103
67782 On ch=1 n=g6 v=0
67811 On ch=1 n=f#6 v=0
67835 On ch=1 n=a4 v=118
67836 On ch=1 n=c7 v=107
67874 On ch=1 n=a4 v=0
67899 On ch=1 n=b6 v=98
67921 On ch=1 n=c7 v=0
67940 On ch=1 n=a6 v=100
67955 On ch=1 n=b6 v=0
67955 On ch=1 n=g#4 v=24
67973 On ch=1 n=g#4 v=0
67987 On ch=1 n=a6 v=0
67997 On ch=1 n=a#4 v=119
68001 On ch=1 n=f7 v=117
68026 Par ch=1 c=64 v=63
68030 Par ch=1 c=64 v=127
68051 On ch=1 n=e7 v=103
68102 On ch=1 n=f7 v=0
68103 On ch=1 n=d7 v=107
68140 On ch=1 n=e7 v=0
68161 On ch=1 n=c7 v=103
68163 On ch=1 n=a#4 v=0
68168 On ch=1 n=d7 v=0
68172 On ch=1 n=b4 v=114
68201 On ch=1 n=c7 v=0
68212 On ch=1 n=b4 v=0
68215 Par ch=1 c=64 v=63
68224 On ch=1 n=b6 v=101
68229 Par ch=1 c=64 v=0
68282 On ch=1 n=a6 v=103
68305 On ch=1 n=b6 v=0
68337 On ch=1 n=g#6 v=106
68337 On ch=1 n=b4 v=102
68353 On ch=1 n=a6 v=0
68372 On ch=1 n=b4 v=0
68390 On ch=1 n=g#6 v=0
68394 On ch=1 n=f6 v=82
68441 On ch=1 n=f6 v=0
68449 On ch=1 n=e6 v=89
68503 On ch=1 n=d6 v=91
68506 On ch=1 n=e6 v=0
68545 On ch=1 n=d6 v=0
68560 On ch=1 n=c6 v=67
68608 On ch=1 n=c6 v=0
68608 On ch=1 n=b5 v=87
68676 On ch=1 n=a5 v=99
68681 On ch=1 n=b5 v=0
68724 Par ch=1 c=64 v=63
68735 Par ch=1 c=64 v=127
68812 On ch=1 n=a5 v=0
68969 On ch=1 n=b5 v=68
69001 On ch=1 n=a5 v=71
69017 On ch=1 n=b5 v=0
69044 Par ch=1 c=64 v=63
69045 On ch=1 n=g#5 v=98
69053 Par ch=1 c=64 v=0
69056 On ch=1 n=a5 v=0
69078 On ch=1 n=g#5 v=0
69222 On ch=1 n=a5 v=94
69259 On ch=1 n=a5 v=0
69403 On ch=1 n=a#5 v=88
69414 On ch=1 n=d5 v=102
69443 Par ch=1 c=64 v=63
69458 Par ch=1 c=64 v=127
69564 On ch=1 n=a#5 v=0
69578 On ch=1 n=d5 v=0
69594 On ch=1 n=b5 v=89
69643 On ch=1 n=b5 v=0
69695 On ch=1 n=e5 v=81
69711 On ch=1 n=d5 v=89
69735 On ch=1 n=e5 v=0
69758 Par ch=1 c=64 v=63
69763 On ch=1 n=b5 v=96
69764 Par ch=1 c=64 v=0
69765 On ch=1 n=a5 v=82
69769 On ch=1 n=c#5 v=101
69786 On ch=1 n=d5 v=0
69809 On ch=1 n=c#5 v=0
69939 On ch=1 n=d5 v=113
69973 On ch=1 n=d5 v=0
70122 On ch=1 n=d#5 v=110
70149 Par ch=1 c=64 v=63
70154 Par ch=1 c=64 v=127
70303 On ch=1 n=e5 v=80
70304 On ch=1 n=g#5 v=82
70306 Par ch=1 c=64 v=63
70308 On ch=1 n=d#5 v=0
70324 On ch=1 n=a5 v=0
70326 Par ch=1 c=64 v=0
70340 On ch=1 n=e5 v=0
70397 On ch=1 n=b5 v=0
70406 On ch=1 n=c6 v=72
70436 On ch=1 n=g#5 v=0
70446 On ch=1 n=b5 v=92
70470 On ch=1 n=c6 v=0
70475 Par ch=1 c=64 v=63
70486 On ch=1 n=a5 v=90
70488 On ch=1 n=b5 v=0
70489 On ch=1 n=e5 v=56
70504 Par ch=1 c=64 v=0
70527 On ch=1 n=a5 v=0
70661 On ch=1 n=b5 v=99
70676 On ch=1 n=e5 v=0
70697 On ch=1 n=b5 v=0
70826 On ch=1 n=c6 v=91
70831 On ch=1 n=f5 v=103
70863 Par ch=1 c=64 v=63
70866 Par ch=1 c=64 v=127
70903 On ch=1 n=f5 v=0
70904 On ch=1 n=c6 v=0
71013 On ch=1 n=c#6 v=113
71052 On ch=1 n=c#6 v=0
71089 On ch=1 n=f#5 v=100
71129 On ch=1 n=f5 v=73
71146 On ch=1 n=f#5 v=0
71178 On ch=1 n=c#6 v=115
71179 On ch=1 n=d#5 v=98
71182 On ch=1 n=b5 v=99
71188 Par ch=1 c=64 v=63
71192 Par ch=1 c=64 v=0
71202 On ch=1 n=f5 v=0
71223 On ch=1 n=d#5 v=0
71362 On ch=1 n=f5 v=107
71394 On ch=1 n=f5 v=0
71537 On ch=1 n=f5 v=116
71564 Par ch=1 c=64 v=63
71566 Par ch=1 c=64 v=127
71704 On ch=1 n=b5 v=0
71711 On ch=1 n=a#5 v=96
71718 On ch=1 n=f#5 v=93
71726 On ch=1 n=f5 v=0
71730 Par ch=1 c=64 v=63
71737 Par ch=1 c=64 v=0
71743 On ch=1 n=f#5 v=0
71807 On ch=1 n=c#6 v=0
71814 On ch=1 n=d6 v=79
71850 On ch=1 n=a#5 v=0
71860 On ch=1 n=c#6 v=91
71880 On ch=1 n=d6 v=0
71899 On ch=1 n=b5 v=101
71904 On ch=1 n=c#6 v=0
71905 On ch=1 n=f#5 v=98
71944 On ch=1 n=b5 v=0
72014 On ch=1 n=f#5 v=0
72075 On ch=1 n=c#6 v=116
72122 On ch=1 n=c#6 v=0
72251 On ch=1 n=d6 v=121
72251 On ch=1 n=b4 v=127
72274 Par ch=1 c=64 v=127
72320 On ch=1 n=f#5 v=116
72336 On ch=1 n=d6 v=0
72339 On ch=1 n=b4 v=0
72376 On ch=1 n=b5 v=96
72378 On ch=1 n=f#5 v=0
72408 On ch=1 n=b5 v=0
72447 On ch=1 n=d6 v=106
72483 On ch=1 n=c#5 v=100
72494 On ch=1 n=d6 v=0
72498 On ch=1 n=f#6 v=110
72540 On ch=1 n=b4 v=80
72545 On ch=1 n=c#5 v=0
72546 On ch=1 n=f#6 v=0
72553 On ch=1 n=b6 v=107
72598 On ch=1 n=a#4 v=112
72602 On ch=1 n=d7 v=116
72607 Par ch=1 c=64 v=63
72610 Par ch=1 c=64 v=0
72617 On ch=1 n=b6 v=0
72620 On ch=1 n=b4 v=0
72641 On ch=1 n=a#4 v=0
72647 On ch=1 n=b6 v=96
72662 On ch=1 n=d7 v=0
72701 On ch=1 n=f#6 v=118
72706 On ch=1 n=b6 v=0
72742 On ch=1 n=f#6 v=0
72754 On ch=1 n=b4 v=107
72758 On ch=1 n=b6 v=100
72784 On ch=1 n=b4 v=0
72813 On ch=1 n=f#6 v=110
72823 On ch=1 n=b6 v=0
72860 On ch=1 n=d6 v=90
72863 On ch=1 n=f#6 v=0
72893 On ch=1 n=d6 v=0
72912 On ch=1 n=e4 v=113
72919 On ch=1 n=g6 v=125
72924 Par ch=1 c=64 v=63
72925 Par ch=1 c=64 v=127
72962 On ch=1 n=e4 v=0
72971 On ch=1 n=e3 v=102
73017 On ch=1 n=g3 v=93
73046 On ch=1 n=e3 v=0
73086 On ch=1 n=b3 v=96
73106 On ch=1 n=g3 v=0
73127 On ch=1 n=e4 v=103
73131 On ch=1 n=b3 v=0
73135 On ch=1 n=g6 v=0
73171 On ch=1 n=e4 v=0
73173 On ch=1 n=a6 v=103
73198 On ch=1 n=g4 v=94
73208 On ch=1 n=g6 v=97
73228 On ch=1 n=a6 v=0
73230 On ch=1 n=g4 v=0
73238 On ch=1 n=b4 v=106
73249 On ch=1 n=f#6 v=116
73251 Par ch=1 c=64 v=63
73255 Par ch=1 c=64 v=0
73270 On ch=1 n=g6 v=0
73281 On ch=1 n=f#6 v=0
73292 On ch=1 n=g4 v=98
73300 On ch=1 n=b4 v=0
73340 On ch=1 n=e4 v=101
73352 On ch=1 n=g4 v=0
73401 On ch=1 n=g4 v=93
73402 On ch=1 n=e4 v=0
73410 On ch=1 n=g6 v=113
73444 On ch=1 n=g6 v=0
73454 On ch=1 n=e4 v=101
73455 On ch=1 n=g4 v=0
73511 On ch=1 n=b3 v=87
73521 On ch=1 n=e4 v=0
73583 On ch=1 n=b3 v=0
73583 On ch=1 n=a4 v=121
73584 On ch=1 n=c#6 v=125
73596 Par ch=1 c=64 v=63
73596 Par ch=1 c=64 v=127
73645 On ch=1 n=e5 v=98
73652 On ch=1 n=c#6 v=0
73672 On ch=1 n=a4 v=0
73693 On ch=1 n=a5 v=93
73707 On ch=1 n=e5 v=0
73751 On ch=1 n=c#6 v=104
73760 On ch=1 n=a5 v=0
73784 On ch=1 n=c#6 v=0
73818 On ch=1 n=e6 v=96
73834 On ch=1 n=b4 v=96
73855 On ch=1 n=e6 v=0
73865 On ch=1 n=a6 v=109
73866 On ch=1 n=a4 v=87
73883 On ch=1 n=b4 v=0
73914 On ch=1 n=g#4 v=116
73917 On ch=1 n=c#7 v=114
73927 Par ch=1 c=64 v=63
73929 On ch=1 n=a6 v=0
73930 Par ch=1 c=64 v=0
73931 On ch=1 n=a4 v=0
73952 On ch=1 n=g#4 v=0
73973 On ch=1 n=a6 v=102
73985 On ch=1 n=c#7 v=0
74017 On ch=1 n=a6 v=0
74021 On ch=1 n=e6 v=90
74057 On ch=1 n=e6 v=0
74069 On ch=1 n=a4 v=104
74074 On ch=1 n=a6 v=117
74105 On ch=1 n=a4 v=0
74120 On ch=1 n=e6 v=99
74128 On ch=1 n=a6 v=0
74172 On ch=1 n=e6 v=0
74174 On ch=1 n=c#6 v=109
74209 On ch=1 n=c#6 v=0
74228 On ch=1 n=d4 v=118
74231 Par ch=1 c=64 v=63
74232 Par ch=1 c=64 v=127
74235 On ch=1 n=f#6 v=125
74282 On ch=1 n=d4 v=0
74283 On ch=1 n=f#6 v=0
74290 On ch=1 n=d3 v=112
74349 On ch=1 n=f#3 v=106
74367 On ch=1 n=d3 v=0
74396 On ch=1 n=a3 v=99
74418 On ch=1 n=f#3 v=0
74443 On ch=1 n=a3 v=0
74445 On ch=1 n=d4 v=92
74482 On ch=1 n=g6 v=94
74490 On ch=1 n=d4 v=0
74511 On ch=1 n=f#4 v=104
74520 On ch=1 n=f#6 v=103
74544 On ch=1 n=g6 v=0
74547 On ch=1 n=f#4 v=0
74566 On ch=1 n=e6 v=112
74567 On ch=1 n=a4 v=96
74568 Par ch=1 c=64 v=63
74572 Par ch=1 c=64 v=0
74586 On ch=1 n=f#6 v=0
74601 On ch=1 n=e6 v=0
74617 On ch=1 n=f#4 v=106
74627 On ch=1 n=a4 v=0
74646 On ch=1 n=f4 v=48
74676 On ch=1 n=f4 v=0
74679 On ch=1 n=d4 v=98
74682 On ch=1 n=f#4 v=0
74731 On ch=1 n=d4 v=0
74734 On ch=1 n=f#4 v=106
74739 On ch=1 n=f#6 v=115
74768 On ch=1 n=f#6 v=0
74786 On ch=1 n=d4 v=96
74797 On ch=1 n=f#4 v=0
74834 On ch=1 n=a3 v=99
74856 On ch=1 n=d4 v=0
74885 On ch=1 n=b5 v=118
74887 On ch=1 n=g4 v=117
74893 On ch=1 n=a3 v=0
74895 Par ch=1 c=64 v=63
74896 Par ch=1 c=64 v=127
74917 On ch=1 n=g4 v=0
74940 On ch=1 n=b5 v=0
74943 On ch=1 n=e5 v=98
74997 On ch=1 n=e5 v=0
74997 On ch=1 n=g5 v=102
75049 On ch=1 n=b5 v=102
75061 On ch=1 n=g5 v=0
75098 On ch=1 n=b5 v=0
75108 On ch=1 n=g5 v=92
75160 On ch=1 n=b5 v=104
75165 On ch=1 n=g5 v=0
75210 On ch=1 n=e6 v=106
75219 On ch=1 n=b5 v=0
75265 On ch=1 n=e6 v=0
75268 On ch=1 n=b5 v=93
75315 On ch=1 n=b5 v=0
75320 On ch=1 n=e6 v=104
75371 On ch=1 n=g6 v=104
75375 On ch=1 n=e6 v=0
75407 On ch=1 n=g6 v=0
75427 On ch=1 n=e6 v=86
75461 On ch=1 n=e6 v=0
75470 On ch=1 n=g6 v=98
75515 On ch=1 n=g6 v=0
75522 On ch=1 n=b6 v=107
75583 On ch=1 n=c7 v=107
75593 On ch=1 n=b6 v=0
75635 On ch=1 n=b6 v=101
75668 On ch=1 n=c7 v=0
75674 On ch=1 n=a6 v=99
75704 On ch=1 n=b6 v=0
75724 On ch=1 n=g6 v=101
75726 On ch=1 n=a6 v=0
75759 On ch=1 n=g6 v=0
75785 On ch=1 n=f#6 v=101
75819 On ch=1 n=f#6 v=0
75835 On ch=1 n=g6 v=101
75860 Par ch=1 c=64 v=63
75864 Par ch=1 c=64 v=0
75890 On ch=1 n=a6 v=104
75899 On ch=1 n=g6 v=0
75942 On ch=1 n=g6 v=98
75972 On ch=1 n=a6 v=0
75991 On ch=1 n=f#6 v=108
75999 On ch=1 n=g#4 v=125
76011 On ch=1 n=g6 v=0
76031 On ch=1 n=g#4 v=0
76046 On ch=1 n=f#6 v=0
76051 On ch=1 n=e6 v=92
76086 On ch=1 n=e6 v=0
76106 On ch=1 n=d6 v=96
76153 On ch=1 n=d6 v=0
76165 On ch=1 n=c#6 v=123
76168 On ch=1 n=a2 v=124
76174 Par ch=1 c=64 v=63
76175 Par ch=1 c=64 v=127
76228 On ch=1 n=c#3 v=109
76255 On ch=1 n=a2 v=0
76284 On ch=1 n=e3 v=102
76286 On ch=1 n=c#6 v=0
76304 On ch=1 n=c#3 v=0
76326 On ch=1 n=e3 v=0
76334 On ch=1 n=a3 v=76
76367 On ch=1 n=a3 v=0
76389 On ch=1 n=c#4 v=96
76401 On ch=1 n=d4 v=66
76417 Par ch=1 c=64 v=63
76420 On ch=1 n=c#4 v=0
76422 On ch=1 n=d4 v=0
76423 Par ch=1 c=64 v=0
76440 On ch=1 n=e4 v=104
76481 On ch=1 n=e4 v=0
76506 On ch=1 n=d3 v=122
76508 On ch=1 n=d6 v=120
76508 On ch=1 n=f#6 v=120
76508 On ch=1 n=a5 v=117
76510 Par ch=1 c=64 v=63
76512 Par ch=1 c=64 v=127
76537 On ch=1 n=a5 v=0
76538 On ch=1 n=d6 v=0
76550 On ch=1 n=f#6 v=0
76573 On ch=1 n=f#3 v=104
76591 On ch=1 n=d3 v=0
76627 On ch=1 n=a3 v=99
76651 On ch=1 n=f#3 v=0
76672 On ch=1 n=a3 v=0
76676 On ch=1 n=d4 v=88
76716 On ch=1 n=d4 v=0
76739 Par ch=1 c=64 v=63
76744 On ch=1 n=f#4 v=106
76744 Par ch=1 c=64 v=0
76786 On ch=1 n=f#4 v=0
76793 On ch=1 n=a4 v=93
76830 On ch=1 n=a4 v=0
76859 On ch=1 n=a4 v=103
76863 On ch=1 n=c#4 v=108
76866 On ch=1 n=a3 v=92
76876 Par ch=1 c=64 v=127
76904 On ch=1 n=c#5 v=108
76914 On ch=1 n=a4 v=0
76948 On ch=1 n=c#5 v=0
76950 On ch=1 n=e5 v=87
76969 On ch=1 n=e5 v=0
77000 On ch=1 n=a3 v=0
77007 On ch=1 n=c#4 v=0
77008 On ch=1 n=a5 v=108
77060 On ch=1 n=c#6 v=115
77063 On ch=1 n=a5 v=0
77111 On ch=1 n=c#6 v=0
77113 On ch=1 n=e6 v=96
77139 On ch=1 n=e6 v=0
77170 On ch=1 n=a3 v=90
77172 On ch=1 n=d4 v=111
77174 On ch=1 n=f#6 v=116
77196 Par ch=1 c=64 v=63
77200 Par ch=1 c=64 v=0
77219 On ch=1 n=a6 v=107
77224 On ch=1 n=f#6 v=0
77277 On ch=1 n=d7 v=112
77280 On ch=1 n=a6 v=0
77326 On ch=1 n=a6 v=107
77334 On ch=1 n=d7 v=0
77353 On ch=1 n=a3 v=0
77372 On ch=1 n=d4 v=0
77372 On ch=1 n=a6 v=0
77382 On ch=1 n=f#6 v=110
77419 On ch=1 n=f#6 v=0
77430 On ch=1 n=d6 v=97
77472 On ch=1 n=d6 v=0
77495 On ch=1 n=a6 v=112
77499 On ch=1 n=a3 v=96
77501 On ch=1 n=c#4 v=105
77530 On ch=1 n=a6 v=0
77539 Par ch=1 c=64 v=63
77540 Par ch=1 c=64 v=127
77675 On ch=1 n=a5 v=108
77692 On ch=1 n=a3 v=0
77701 On ch=1 n=c#4 v=0
77712 On ch=1 n=a5 v=0
77846 Par ch=1 c=64 v=63
77850 Par ch=1 c=64 v=0
78293 On ch=1 n=d5 v=78
78341 Par ch=1 c=64 v=63
78347 Par ch=1 c=64 v=127
78498 On ch=1 n=d5 v=0
78611 On ch=1 n=e5 v=75
78633 On ch=1 n=d5 v=84
78640 On ch=1 n=e5 v=0
78664 Par ch=1 c=64 v=63
78672 Par ch=1 c=64 v=0
78690 On ch=1 n=c#5 v=83
78696 On ch=1 n=d5 v=0
78734 On ch=1 n=c#5 v=0
78873 On ch=1 n=d5 v=100
78914 On ch=1 n=d5 v=0
79042 On ch=1 n=d#5 v=108
79083 Par ch=1 c=64 v=63
79093 Par ch=1 c=64 v=127
79224 On ch=1 n=g6 v=89
79226 Par ch=1 c=64 v=63
79230 On ch=1 n=e5 v=76
79242 On ch=1 n=d#5 v=0
79246 Par ch=1 c=64 v=0
79270 On ch=1 n=e5 v=0
79290 On ch=1 n=b5 v=77
79300 On ch=1 n=g6 v=0
79382 On ch=1 n=d6 v=81
79393 On ch=1 n=b5 v=0
79394 On ch=1 n=e5 v=78
79561 On ch=1 n=c#6 v=67
79564 On ch=1 n=d6 v=0
79564 On ch=1 n=e5 v=0
79698 On ch=1 n=c#6 v=0
79743 On ch=1 n=e5 v=80
79777 Par ch=1 c=64 v=63
79785 Par ch=1 c=64 v=127
79884 On ch=1 n=e5 v=0
80026 On ch=1 n=f#5 v=85
80067 On ch=1 n=e5 v=81
80068 On ch=1 n=f#5 v=0
80106 On ch=1 n=d5 v=91
80107 Par ch=1 c=64 v=63
80117 On ch=1 n=e5 v=0
80119 Par ch=1 c=64 v=0
80145 On ch=1 n=d5 v=0
80276 On ch=1 n=e5 v=106
80317 On ch=1 n=e5 v=0
80456 On ch=1 n=f5 v=106
80492 Par ch=1 c=64 v=63
80499 Par ch=1 c=64 v=127
80630 Par ch=1 c=64 v=63
80632 On ch=1 n=f#5 v=110
80642 Par ch=1 c=64 v=0
80642 On ch=1 n=a6 v=84
80645 On ch=1 n=f5 v=0
80667 On ch=1 n=f#5 v=0
80711 On ch=1 n=c#6 v=94
80725 On ch=1 n=a6 v=0
80802 On ch=1 n=c#6 v=0
80809 On ch=1 n=e6 v=84
80826 On ch=1 n=f#5 v=87
80849 Par ch=1 c=64 v=63
80859 Par ch=1 c=64 v=127
80975 Par ch=1 c=64 v=63
80986 On ch=1 n=f#5 v=0
80991 Par ch=1 c=64 v=0
80992 On ch=1 n=d#6 v=75
81006 On ch=1 n=e6 v=0
81056 On ch=1 n=d#6 v=0
81180 Par ch=1 c=64 v=63
81181 On ch=1 n=e6 v=86
81187 Par ch=1 c=64 v=127
81304 On ch=1 n=e6 v=0
81365 On ch=1 n=g5 v=65
81366 On ch=1 n=b5 v=72
81458 On ch=1 n=d#6 v=92
81483 On ch=1 n=b5 v=0
81493 On ch=1 n=e6 v=94
81503 On ch=1 n=d#6 v=0
81515 On ch=1 n=g5 v=0
81517 Par ch=1 c=64 v=63
81518 On ch=1 n=f#5 v=70
81520 On ch=1 n=a5 v=68
81524 Par ch=1 c=64 v=0
81534 On ch=1 n=f#6 v=107
81550 On ch=1 n=e6 v=0
81572 On ch=1 n=f#6 v=0
81688 On ch=1 n=f#5 v=0
81700 On ch=1 n=g5 v=73
81704 On ch=1 n=g6 v=101
81711 On ch=1 n=a5 v=0
81713 On ch=1 n=e5 v=82
81739 Par ch=1 c=64 v=63
81744 Par ch=1 c=64 v=127
81756 On ch=1 n=g6 v=0
81790 On ch=1 n=e5 v=0
81886 On ch=1 n=c6 v=97
81886 On ch=1 n=a5 v=88
81890 On ch=1 n=d#5 v=89
81969 On ch=1 n=g5 v=0
81978 Par ch=1 c=64 v=63
81988 Par ch=1 c=64 v=0
82069 On ch=1 n=b5 v=79
82088 On ch=1 n=c6 v=0
82177 On ch=1 n=b5 v=0
82223 On ch=1 n=d#5 v=0
82248 On ch=1 n=g5 v=63
82255 On ch=1 n=e5 v=54
82283 On ch=1 n=a5 v=0
82429 On ch=1 n=g6 v=83
82467 Par ch=1 c=64 v=63
82473 Par ch=1 c=64 v=127
82529 On ch=1 n=g6 v=0
82593 On ch=1 n=c#5 v=90
82607 On ch=1 n=a#5 v=90
82628 On ch=1 n=e5 v=0
82801 On ch=1 n=a5 v=72
82809 On ch=1 n=a#5 v=0
82956 On ch=1 n=c#5 v=0
82966 On ch=1 n=d5 v=62
82967 On ch=1 n=f#5 v=69
82976 On ch=1 n=a5 v=0
83024 On ch=1 n=g5 v=0
83054 Par ch=1 c=64 v=63
83066 Par ch=1 c=64 v=0
83150 Par ch=1 c=64 v=63
83158 On ch=1 n=a5 v=69
83165 Par ch=1 c=64 v=127
83224 On ch=1 n=a5 v=0
83227 On ch=1 n=f#6 v=94
83313 On ch=1 n=f#6 v=0
83316 On ch=1 n=b4 v=80
83325 On ch=1 n=e6 v=92
83365 On ch=1 n=d5 v=0
83380 Par ch=1 c=64 v=63
83444 Par ch=1 c=64 v=127
83489 On ch=1 n=d6 v=100
83495 On ch=1 n=f5 v=79
83531 On ch=1 n=e6 v=0
83541 On ch=1 n=f#5 v=0
83552 On ch=1 n=b4 v=0
83666 On ch=1 n=e5 v=98
83670 On ch=1 n=a#4 v=98
83696 On ch=1 n=d6 v=0
83699 On ch=1 n=f5 v=0
83823 Par ch=1 c=64 v=63
83830 Par ch=1 c=64 v=0
83842 On ch=1 n=d5 v=96
83845 On ch=1 n=g#5 v=103
83860 Par ch=1 c=64 v=63
83869 Par ch=1 c=64 v=127
83877 On ch=1 n=e5 v=0
83948 On ch=1 n=d5 v=0
83988 On ch=1 n=g#5 v=0
83989 On ch=1 n=a#4 v=0
84032 On ch=1 n=a4 v=86
84033 On ch=1 n=a5 v=100
84034 On ch=1 n=c#5 v=107
84051 Par ch=1 c=64 v=63
84054 Par ch=1 c=64 v=0
84101 Par ch=1 c=64 v=63
84107 Par ch=1 c=64 v=127
84258 On ch=1 n=a5 v=0
84317 On ch=1 n=b5 v=92
84347 On ch=1 n=a5 v=99
84356 Par ch=1 c=64 v=63
84359 Par ch=1 c=64 v=0
84363 On ch=1 n=b5 v=0
84377 On ch=1 n=c#5 v=0
84381 On ch=1 n=g#5 v=112
84385 On ch=1 n=a4 v=0
84392 On ch=1 n=a5 v=0
84409 On ch=1 n=g#5 v=0
84557 On ch=1 n=a5 v=112
84594 On ch=1 n=a5 v=0
84721 On ch=1 n=a3 v=87
84733 On ch=1 n=a#5 v=115
84734 On ch=1 n=a4 v=117
84736 On ch=1 n=d5 v=102
84759 Par ch=1 c=64 v=63
84761 Par ch=1 c=64 v=127
84802 On ch=1 n=a3 v=0
84873 On ch=1 n=a#5 v=0
84912 On ch=1 n=b5 v=103
84916 On ch=1 n=a4 v=0
85008 On ch=1 n=g#4 v=103
85012 On ch=1 n=b5 v=0
85059 On ch=1 n=g#4 v=0
85061 On ch=1 n=a4 v=100
85073 Par ch=1 c=64 v=63
85075 Par ch=1 c=64 v=0
85084 On ch=1 n=b5 v=106
85089 On ch=1 n=b4 v=98
85112 On ch=1 n=a4 v=0
85120 On ch=1 n=b4 v=0
85141 On ch=1 n=b5 v=0
85254 On ch=1 n=a4 v=111
85280 On ch=1 n=d5 v=0
85297 On ch=1 n=a4 v=0
85418 On ch=1 n=a3 v=78
85426 On ch=1 n=c#6 v=119
85427 On ch=1 n=e5 v=106
85428 On ch=1 n=a4 v=114
85446 Par ch=1 c=64 v=63
85448 Par ch=1 c=64 v=127
85525 On ch=1 n=a4 v=0
85607 On ch=1 n=g4 v=104
85645 On ch=1 n=g4 v=0
85672 On ch=1 n=c#6 v=0
85717 On ch=1 n=d6 v=85
85747 On ch=1 n=c#6 v=103
85770 Par ch=1 c=64 v=63
85775 On ch=1 n=d6 v=0
85775 Par ch=1 c=64 v=0
85782 On ch=1 n=g4 v=98
85784 On ch=1 n=b5 v=96
85807 On ch=1 n=c#6 v=0
85821 On ch=1 n=b5 v=0
85829 On ch=1 n=g4 v=0
85879 On ch=1 n=a3 v=0
85956 On ch=1 n=c#6 v=118
85962 On ch=1 n=e5 v=0
85994 On ch=1 n=c#6 v=0
86133 On ch=1 n=a3 v=86
86134 On ch=1 n=a5 v=111
86134 On ch=1 n=f#4 v=118
86136 On ch=1 n=c#6 v=116
86153 Par ch=1 c=64 v=63
86155 Par ch=1 c=64 v=127
86238 On ch=1 n=a3 v=0
86277 On ch=1 n=c#6 v=0
86314 On ch=1 n=f#4 v=0
86318 On ch=1 n=d6 v=112
86410 On ch=1 n=d6 v=0
86419 On ch=1 n=e4 v=78
86461 On ch=1 n=f#4 v=109
86484 On ch=1 n=e4 v=0
86489 Par ch=1 c=64 v=63
86493 On ch=1 n=g4 v=109
86493 Par ch=1 c=64 v=0
86498 On ch=1 n=d6 v=107
86516 On ch=1 n=f#4 v=0
86535 On ch=1 n=g4 v=0
86550 On ch=1 n=d6 v=0
86641 On ch=1 n=a5 v=0
86667 On ch=1 n=f#4 v=114
86701 On ch=1 n=f#4 v=0
86834 On ch=1 n=e6 v=116
86834 On ch=1 n=a3 v=94
86835 On ch=1 n=f#4 v=118
86839 On ch=1 n=c#6 v=113
86853 Par ch=1 c=64 v=63
86855 Par ch=1 c=64 v=127
86923 On ch=1 n=f#4 v=0
87015 On ch=1 n=e4 v=104
87053 On ch=1 n=e4 v=0
87083 On ch=1 n=e6 v=0
87127 On ch=1 n=f#6 v=79
87149 On ch=1 n=e6 v=92
87169 Par ch=1 c=64 v=63
87173 Par ch=1 c=64 v=0
87175 On ch=1 n=f#6 v=0
87182 On ch=1 n=e4 v=98
87183 On ch=1 n=d6 v=104
87201 On ch=1 n=e6 v=0
87215 On ch=1 n=e4 v=0
87237 On ch=1 n=d6 v=0
87308 On ch=1 n=c#6 v=0
87312 On ch=1 n=a3 v=0
87361 On ch=1 n=e6 v=111
87400 On ch=1 n=e6 v=0
87521 On ch=1 n=a4 v=104
87524 On ch=1 n=d5 v=112
87529 On ch=1 n=f#6 v=115
87531 On ch=1 n=a5 v=111
87541 Par ch=1 c=64 v=63
87543 Par ch=1 c=64 v=127
87591 On ch=1 n=d5 v=0
87603 On ch=1 n=a5 v=0
87610 On ch=1 n=f#6 v=0
87792 On ch=1 n=e5 v=68
87800 On ch=1 n=g6 v=98
87809 On ch=1 n=d5 v=87
87826 On ch=1 n=e5 v=0
87832 On ch=1 n=f#6 v=90
87857 On ch=1 n=g6 v=0
87860 On ch=1 n=c#5 v=112
87865 Par ch=1 c=64 v=63
87865 On ch=1 n=e6 v=109
87868 Par ch=1 c=64 v=0
87876 On ch=1 n=d5 v=0
87886 On ch=1 n=f#6 v=0
87896 On ch=1 n=e6 v=0
87900 On ch=1 n=c#5 v=0
88035 On ch=1 n=d#5 v=115
88036 On ch=1 n=f#6 v=115
88052 On ch=1 n=a4 v=0
88072 On ch=1 n=d#5 v=0
88080 On ch=1 n=f#6 v=0
88218 On ch=1 n=e5 v=111
88219 On ch=1 n=a4 v=100
88221 On ch=1 n=g6 v=114
88241 Par ch=1 c=64 v=63
88242 Par ch=1 c=64 v=127
88280 On ch=1 n=e6 v=96
88285 On ch=1 n=g6 v=0
88301 On ch=1 n=e5 v=0
88307 On ch=1 n=a4 v=0
88339 On ch=1 n=c#6 v=95
88344 On ch=1 n=e6 v=0
88398 On ch=1 n=a5 v=79
88399 On ch=1 n=c#6 v=0
88448 On ch=1 n=a5 v=0
88456 On ch=1 n=g5 v=79
88508 On ch=1 n=e5 v=75
88514 On ch=1 n=g5 v=0
88556 On ch=1 n=c#5 v=90
88558 On ch=1 n=e5 v=0
88611 On ch=1 n=e5 v=77
88616 On ch=1 n=c#5 v=0
88665 On ch=1 n=g5 v=80
88667 On ch=1 n=e5 v=0
88705 On ch=1 n=g5 v=0
88710 On ch=1 n=a5 v=88
88765 On ch=1 n=c#6 v=81
88776 On ch=1 n=a5 v=0
88816 On ch=1 n=e6 v=87
88825 On ch=1 n=c#6 v=0
88868 On ch=1 n=g6 v=96
88877 On ch=1 n=e6 v=0
88914 On ch=1 n=e6 v=100
88916 Par ch=1 c=64 v=63
88920 Par ch=1 c=64 v=0
88926 On ch=1 n=g6 v=0
88964 On ch=1 n=c#6 v=104
88975 On ch=1 n=e6 v=0
89012 On ch=1 n=a5 v=88
89019 On ch=1 n=c#6 v=0
89054 On ch=1 n=g5 v=68
89066 On ch=1 n=a5 v=0
89109 On ch=1 n=e5 v=76
89112 On ch=1 n=g5 v=0
89151 On ch=1 n=c#5 v=87
89157 On ch=1 n=e5 v=0
89211 On ch=1 n=e5 v=78
89214 On ch=1 n=c#5 v=0
89260 On ch=1 n=e5 v=0
89268 On ch=1 n=g5 v=78
89301 On ch=1 n=g5 v=0
89311 On ch=1 n=a5 v=84
89364 On ch=1 n=c#6 v=93
89366 On ch=1 n=a5 v=0
89412 On ch=1 n=e6 v=85
89415 On ch=1 n=c#6 v=0
89459 On ch=1 n=e6 v=0
89468 On ch=1 n=g6 v=100
89470 On ch=1 n=e5 v=96
89501 On ch=1 n=e5 v=0
89518 On ch=1 n=e6 v=80
89525 On ch=1 n=g6 v=0
89557 On ch=1 n=g6 v=79
89567 On ch=1 n=e6 v=0
89603 On ch=1 n=g6 v=0
89618 On ch=1 n=f#6 v=101
89626 On ch=1 n=d5 v=97
89661 On ch=1 n=d5 v=0
89675 On ch=1 n=f#6 v=0
89682 On ch=1 n=d6 v=84
89722 On ch=1 n=f#6 v=77
89732 On ch=1 n=d6 v=0
89773 On ch=1 n=e6 v=96
89785 On ch=1 n=c#5 v=95
89795 On ch=1 n=f#6 v=0
89811 On ch=1 n=c#5 v=0
89830 On ch=1 n=e6 v=0
89830 On ch=1 n=c#6 v=98
89876 On ch=1 n=e6 v=84
89880 On ch=1 n=c#6 v=0
89929 On ch=1 n=d6 v=78
89937 On ch=1 n=b4 v=94
89951 On ch=1 n=e6 v=0
89975 On ch=1 n=b4 v=0
89976 On ch=1 n=d6 v=0
89976 On ch=1 n=b5 v=78
90029 On ch=1 n=b5 v=0
90032 On ch=1 n=d6 v=76
90084 On ch=1 n=c#6 v=92
90090 On ch=1 n=a4 v=88
90100 On ch=1 n=d6 v=0
90129 On ch=1 n=a4 v=0
90133 On ch=1 n=c#6 v=0
90143 On ch=1 n=a5 v=60
90185 On ch=1 n=c#6 v=83
90191 On ch=1 n=a5 v=0
90240 On ch=1 n=b5 v=76
90247 On ch=1 n=g4 v=84
90259 On ch=1 n=c#6 v=0
90283 On ch=1 n=g4 v=0
90292 On ch=1 n=b5 v=0
90295 On ch=1 n=g5 v=67
90348 On ch=1 n=g5 v=0
90348 On ch=1 n=b5 v=70
90395 On ch=1 n=a5 v=77
90402 On ch=1 n=f#4 v=81
90407 On ch=1 n=b5 v=0
90446 On ch=1 n=f#4 v=0
90446 On ch=1 n=f#5 v=86
90456 On ch=1 n=a5 v=0
90496 On ch=1 n=a5 v=77
90501 On ch=1 n=f#5 v=0
90547 On ch=1 n=e4 v=76
90553 On ch=1 n=g5 v=69
90567 On ch=1 n=a5 v=0
90594 On ch=1 n=e4 v=0
90613 On ch=1 n=g5 v=0
90613 On ch=1 n=e5 v=60
90661 On ch=1 n=g5 v=65
90667 On ch=1 n=e5 v=0
90724 On ch=1 n=f#5 v=83
90735 On ch=1 n=g5 v=0
90735 On ch=1 n=d4 v=63
90743 Par ch=1 c=64 v=63
90745 Par ch=1 c=64 v=127
90755 On ch=1 n=f#5 v=0
90808 On ch=1 n=d4 v=0
90919 On ch=1 n=a6 v=86
90925 Par ch=1 c=64 v=63
90932 Par ch=1 c=64 v=0
90975 On ch=1 n=f#6 v=88
90987 On ch=1 n=a6 v=0
91023 On ch=1 n=f#6 v=0
91024 On ch=1 n=d6 v=78
91070 On ch=1 n=d6 v=0
91079 On ch=1 n=c#6 v=99
91081 On ch=1 n=a5 v=56
91082 On ch=1 n=g5 v=65
91086 Par ch=1 c=64 v=63
91089 Par ch=1 c=64 v=127
91113 On ch=1 n=a5 v=0
91130 On ch=1 n=e6 v=87
91139 On ch=1 n=c#6 v=0
91162 On ch=1 n=g5 v=0
91183 On ch=1 n=a5 v=61
91185 On ch=1 n=e6 v=0
91224 On ch=1 n=a5 v=0
91239 On ch=1 n=a6 v=96
91260 Par ch=1 c=64 v=63
91267 Par ch=1 c=64 v=0
91291 On ch=1 n=g6 v=82
91311 On ch=1 n=a6 v=0
91344 On ch=1 n=e6 v=98
91354 On ch=1 n=g6 v=0
91394 On ch=1 n=e6 v=0
91396 On ch=1 n=a5 v=76
91399 Par ch=1 c=64 v=63
91401 On ch=1 n=f#5 v=81
91403 Par ch=1 c=64 v=127
91405 On ch=1 n=d6 v=74
91431 On ch=1 n=d6 v=0
91441 On ch=1 n=a5 v=0
91451 On ch=1 n=f#6 v=96
91459 On ch=1 n=f#5 v=0
91494 On ch=1 n=f#6 v=0
91499 On ch=1 n=a5 v=91
91524 Par ch=1 c=64 v=63
91529 Par ch=1 c=64 v=0
91537 On ch=1 n=a5 v=0
91554 On ch=1 n=a6 v=102
91615 On ch=1 n=f#6 v=98
91623 On ch=1 n=a6 v=0
91660 On ch=1 n=d6 v=84
91663 On ch=1 n=f#6 v=0
91690 Par ch=1 c=64 v=63
91692 Par ch=1 c=64 v=127
91700 On ch=1 n=a5 v=70
91703 On ch=1 n=d6 v=0
91704 On ch=1 n=g5 v=76
91714 On ch=1 n=c#6 v=105
91768 On ch=1 n=e6 v=94
91773 On ch=1 n=c#6 v=0
91774 On ch=1 n=a5 v=0
91821 On ch=1 n=a5 v=90
91823 On ch=1 n=e6 v=0
91839 On ch=1 n=g5 v=0
91858 On ch=1 n=a5 v=0
91870 Par ch=1 c=64 v=63
91874 Par ch=1 c=64 v=0
91876 On ch=1 n=a6 v=99
91920 On ch=1 n=g6 v=87
91947 On ch=1 n=a6 v=0
91977 On ch=1 n=e6 v=91
91988 On ch=1 n=g6 v=0
92023 Par ch=1 c=64 v=63
92024 Par ch=1 c=64 v=127
92026 On ch=1 n=e6 v=0
92029 On ch=1 n=a5 v=77
92032 On ch=1 n=f#5 v=80
92035 On ch=1 n=d6 v=72
92052 On ch=1 n=a5 v=0
92057 On ch=1 n=f#5 v=0
92063 On ch=1 n=d6 v=0
92080 On ch=1 n=f#6 v=95
92096 Par ch=1 c=64 v=63
92101 Par ch=1 c=64 v=0
92126 On ch=1 n=f#6 v=0
92132 On ch=1 n=a5 v=89
92139 Par ch=1 c=64 v=63
92146 Par ch=1 c=64 v=127
92172 On ch=1 n=a5 v=0
92237 On ch=1 n=a6 v=109
92238 On ch=1 n=c6 v=102
92241 On ch=1 n=f#5 v=80
92272 On ch=1 n=c6 v=0
92307 On ch=1 n=f#5 v=0
92330 On ch=1 n=a5 v=50
92371 On ch=1 n=a5 v=0
92378 On ch=1 n=f#5 v=83
92438 On ch=1 n=d#5 v=80
92439 On ch=1 n=f#5 v=0
92457 On ch=1 n=b5 v=106
92497 On ch=1 n=f#5 v=82
92501 On ch=1 n=d#5 v=0
92524 On ch=1 n=a6 v=0
92548 On ch=1 n=d#5 v=72
92558 On ch=1 n=f#5 v=0
92598 On ch=1 n=e5 v=84
92615 On ch=1 n=d#5 v=0
92616 On ch=1 n=g6 v=111
92655 On ch=1 n=e5 v=0
92659 Par ch=1 c=64 v=63
92662 On ch=1 n=g5 v=80
92670 Par ch=1 c=64 v=127
92713 On ch=1 n=b5 v=0
92717 On ch=1 n=g5 v=0
92718 On ch=1 n=e5 v=92
92761 On ch=1 n=c#5 v=103
92768 On ch=1 n=e5 v=0
92773 On ch=1 n=a5 v=109
92813 On ch=1 n=c#5 v=0
92830 On ch=1 n=e5 v=90
92841 On ch=1 n=g6 v=0
92874 On ch=1 n=c#5 v=88
92876 On ch=1 n=e5 v=0
92930 On ch=1 n=d5 v=86
92934 On ch=1 n=f#6 v=115
92936 On ch=1 n=c#5 v=0
92955 Par ch=1 c=64 v=63
92982 Par ch=1 c=64 v=127
92989 On ch=1 n=d5 v=0
92992 On ch=1 n=f#5 v=94
93037 On ch=1 n=f#5 v=0
93043 On ch=1 n=a5 v=0
93043 On ch=1 n=d5 v=81
93083 Par ch=1 c=64 v=63
93092 Par ch=1 c=64 v=0
93093 On ch=1 n=d5 v=0
93095 On ch=1 n=b4 v=93
93105 On ch=1 n=g5 v=98
93126 On ch=1 n=f#6 v=0
93127 Par ch=1 c=64 v=63
93137 Par ch=1 c=64 v=127
93149 On ch=1 n=b4 v=0
93152 On ch=1 n=d5 v=81
93198 On ch=1 n=b4 v=85
93204 On ch=1 n=d5 v=0
93259 On ch=1 n=e6 v=106
93263 On ch=1 n=b4 v=0
93264 On ch=1 n=c#5 v=96
93266 Par ch=1 c=64 v=63
93302 On ch=1 n=c#5 v=0
93303 Par ch=1 c=64 v=127
93321 On ch=1 n=e5 v=73
93330 On ch=1 n=g5 v=0
93372 On ch=1 n=e5 v=0
93372 On ch=1 n=c#5 v=91
93417 On ch=1 n=a#4 v=84
93419 On ch=1 n=c#5 v=0
93420 Par ch=1 c=64 v=63
93421 On ch=1 n=f#5 v=112
93439 Par ch=1 c=64 v=127
93477 On ch=1 n=a#4 v=0
93480 On ch=1 n=c#5 v=91
93494 On ch=1 n=e6 v=0
93535 On ch=1 n=a#4 v=78
93541 On ch=1 n=c#5 v=0
93579 On ch=1 n=b4 v=88
93580 On ch=1 n=d6 v=104
93602 Par ch=1 c=64 v=63
93604 On ch=1 n=a#4 v=0
93633 Par ch=1 c=64 v=127
93637 On ch=1 n=b4 v=0
93641 On ch=1 n=d5 v=91
93669 On ch=1 n=f#5 v=0
93689 On ch=1 n=b4 v=93
93691 On ch=1 n=d5 v=0
93736 On ch=1 n=g#4 v=98
93737 Par ch=1 c=64 v=63
93738 On ch=1 n=e5 v=102
93743 On ch=1 n=b4 v=0
93763 Par ch=1 c=64 v=127
93780 On ch=1 n=d6 v=0
93789 On ch=1 n=g#4 v=0
93800 On ch=1 n=b4 v=92
93850 On ch=1 n=g#4 v=98
93859 On ch=1 n=b4 v=0
93877 Par ch=1 c=64 v=63
93898 On ch=1 n=g#4 v=0
93898 On ch=1 n=c#6 v=113
93905 On ch=1 n=e5 v=0
93906 Par ch=1 c=64 v=127
93912 On ch=1 n=g#4 v=50
93923 Par ch=1 c=64 v=63
93930 On ch=1 n=g#4 v=0
93931 On ch=1 n=g4 v=81
93934 Par ch=1 c=64 v=0
93938 On ch=1 n=c#6 v=0
93971 On ch=1 n=g4 v=0
93972 On ch=1 n=a4 v=93
94025 On ch=1 n=g4 v=102
94031 On ch=1 n=a4 v=0
94034 Par ch=1 c=64 v=63
94040 Par ch=1 c=64 v=0
94063 Par ch=1 c=64 v=127
94066 Par ch=1 c=64 v=63
94072 On ch=1 n=d6 v=98
94073 On ch=1 n=f#4 v=96
94076 Par ch=1 c=64 v=127
94112 On ch=1 n=g4 v=0
94120 On ch=1 n=d6 v=0
94123 On ch=1 n=f#4 v=0
94133 On ch=1 n=d7 v=90
94148 Par ch=1 c=64 v=63
94152 Par ch=1 c=64 v=0
94193 On ch=1 n=d7 v=0
94194 On ch=1 n=a6 v=89
94235 On ch=1 n=g4 v=85
94238 On ch=1 n=b6 v=91
94243 On ch=1 n=a6 v=0
94269 On ch=1 n=g4 v=0
94297 On ch=1 n=d7 v=83
94301 On ch=1 n=b6 v=0
94337 On ch=1 n=g6 v=75
94340 On ch=1 n=d7 v=0
94363 Par ch=1 c=64 v=63
94364 Par ch=1 c=64 v=127
94383 On ch=1 n=g6 v=0
94388 Par ch=1 c=64 v=63
94390 On ch=1 n=a4 v=94
94393 Par ch=1 c=64 v=0
94399 On ch=1 n=f#6 v=99
94425 On ch=1 n=a4 v=0
94459 On ch=1 n=a6 v=79
94463 On ch=1 n=f#6 v=0
94504 On ch=1 n=d6 v=88
94507 On ch=1 n=a6 v=0
94545 On ch=1 n=a3 v=88
94548 On ch=1 n=d6 v=0
94551 On ch=1 n=e6 v=96
94582 On ch=1 n=a3 v=0
94597 On ch=1 n=g6 v=92
94598 On ch=1 n=e6 v=0
94651 On ch=1 n=g6 v=0
94655 On ch=1 n=c#6 v=90
94689 On ch=1 n=c#6 v=0
94719 On ch=1 n=d6 v=92
94724 On ch=1 n=d4 v=88
94768 Par ch=1 c=64 v=63
94771 Par ch=1 c=64 v=127
94851 On ch=1 n=d4 v=0
94862 On ch=1 n=d6 v=0
94912 Par ch=1 c=64 v=63
94918 Par ch=1 c=64 v=0
95105 Par ch=1 c=64 v=63
95117 On ch=1 n=f#6 v=75
95118 Par ch=1 c=64 v=127
95122 On ch=1 n=d5 v=63
95127 On ch=1 n=a5 v=48
95192 On ch=1 n=a5 v=0
95196 On ch=1 n=f#6 v=0
95231 On ch=1 n=d5 v=0
95329 On ch=1 n=e6 v=88
95332 On ch=1 n=a#5 v=88
95334 On ch=1 n=c#5 v=72
95362 On ch=1 n=a#5 v=0
95386 On ch=1 n=e6 v=0
95389 On ch=1 n=c#5 v=0
95506 On ch=1 n=d6 v=97
95510 On ch=1 n=b4 v=76
95512 On ch=1 n=b5 v=84
95526 Par ch=1 c=64 v=63
95538 Par ch=1 c=64 v=127
95574 On ch=1 n=b5 v=0
95585 On ch=1 n=d6 v=0
95690 On ch=1 n=c#6 v=96
95693 On ch=1 n=f#5 v=85
95695 On ch=1 n=a4 v=65
95711 On ch=1 n=b4 v=0
95713 Par ch=1 c=64 v=63
95728 Par ch=1 c=64 v=127
95766 On ch=1 n=a4 v=0
95809 On ch=1 n=f#5 v=0
95848 On ch=1 n=c#6 v=0
95873 On ch=1 n=g4 v=76
95873 On ch=1 n=b5 v=86
95877 On ch=1 n=g5 v=82
95896 Par ch=1 c=64 v=63
95907 Par ch=1 c=64 v=127
95941 On ch=1 n=g5 v=0
95944 On ch=1 n=g4 v=0
95949 On ch=1 n=b5 v=0
96058 On ch=1 n=a5 v=86
96069 On ch=1 n=d5 v=71
96070 On ch=1 n=f#4 v=82
96078 Par ch=1 c=64 v=63
96106 Par ch=1 c=64 v=127
96154 On ch=1 n=f#4 v=0
96175 On ch=1 n=a5 v=0
96176 On ch=1 n=d5 v=0
96227 On ch=1 n=a5 v=76
96232 On ch=1 n=c#5 v=70
96237 On ch=1 n=e4 v=62
96238 Par ch=1 c=64 v=63
96285 Par ch=1 c=64 v=127
96297 On ch=1 n=a5 v=0
96299 On ch=1 n=g5 v=68
96318 On ch=1 n=c#5 v=0
96377 On ch=1 n=e4 v=0
96391 On ch=1 n=f#5 v=78
96400 On ch=1 n=g5 v=0
96409 On ch=1 n=d5 v=64
96414 On ch=1 n=d4 v=72
96416 Par ch=1 c=64 v=63
96426 Par ch=1 c=64 v=0
96513 On ch=1 n=f#5 v=0
96524 On ch=1 n=d4 v=0
96552 On ch=1 n=d5 v=0
96582 On ch=1 n=a5 v=84
96759 On ch=1 n=a4 v=73
96762 On ch=1 n=f#4 v=77
96784 Par ch=1 c=64 v=63
96788 Par ch=1 c=64 v=127
96847 On ch=1 n=a4 v=0
96862 On ch=1 n=f#4 v=0
96943 On ch=1 n=b4 v=73
96949 On ch=1 n=d5 v=74
97025 On ch=1 n=b4 v=0
97034 Par ch=1 c=64 v=63
97035 Par ch=1 c=64 v=127
97045 On ch=1 n=a5 v=0
97046 On ch=1 n=g5 v=80
97136 On ch=1 n=c#5 v=89
97140 On ch=1 n=a4 v=58
97150 On ch=1 n=d5 v=0
97187 Par ch=1 c=64 v=63
97214 On ch=1 n=f#5 v=106
97230 Par ch=1 c=64 v=127
97248 On ch=1 n=g5 v=0
97303 On ch=1 n=a4 v=0
97307 On ch=1 n=g4 v=78
97310 On ch=1 n=b4 v=80
97321 On ch=1 n=c#5 v=0
97344 Par ch=1 c=64 v=63
97385 On ch=1 n=e5 v=103
97396 On ch=1 n=b4 v=0
97397 Par ch=1 c=64 v=127
97422 On ch=1 n=f#5 v=0
97462 Par ch=1 c=64 v=63
97463 On ch=1 n=b4 v=75
97465 On ch=1 n=g#4 v=83
97469 On ch=1 n=g4 v=0
97470 Par ch=1 c=64 v=0
97527 On ch=1 n=g#4 v=0
97535 On ch=1 n=b4 v=0
97545 On ch=1 n=e5 v=0
97554 On ch=1 n=d5 v=96
97604 On ch=1 n=d5 v=0
97640 On ch=1 n=a4 v=61
97643 On ch=1 n=d5 v=69
97647 On ch=1 n=f#5 v=92
97683 Par ch=1 c=64 v=63
97685 Par ch=1 c=64 v=127
97771 Par ch=1 c=64 v=63
97774 On ch=1 n=d5 v=0
97774 Par ch=1 c=64 v=0
97816 Par ch=1 c=64 v=63
97817 On ch=1 n=c#5 v=88
97821 On ch=1 n=e5 v=87
97823 On ch=1 n=f#5 v=0
97823 Par ch=1 c=64 v=127
97833 On ch=1 n=a4 v=0
97843 On ch=1 n=c#5 v=0
97854 On ch=1 n=e5 v=0
97876 Par ch=1 c=64 v=63
97880 Par ch=1 c=64 v=0
97981 On ch=1 n=f#6 v=108
97984 Par ch=1 c=64 v=63
97986 On ch=1 n=a5 v=66
97988 Par ch=1 c=64 v=127
97989 On ch=1 n=d5 v=76
98030 On ch=1 n=g6 v=93
98039 On ch=1 n=f#6 v=0
98092 On ch=1 n=f#6 v=103
98108 On ch=1 n=g6 v=0
98142 On ch=1 n=f#6 v=0
98143 Par ch=1 c=64 v=63
98145 On ch=1 n=e6 v=84
98149 On ch=1 n=d5 v=0
98149 Par ch=1 c=64 v=0
98153 On ch=1 n=c#5 v=74
98205 On ch=1 n=a5 v=0
98206 On ch=1 n=e6 v=0
98206 On ch=1 n=g#6 v=98
98210 On ch=1 n=c#5 v=0
98254 On ch=1 n=a6 v=82
98264 On ch=1 n=g#6 v=0
98297 On ch=1 n=a6 v=0
98304 On ch=1 n=d6 v=99
98305 Par ch=1 c=64 v=63
98307 On ch=1 n=b4 v=86
98308 On ch=1 n=f#5 v=103
98308 Par ch=1 c=64 v=127
98357 On ch=1 n=d6 v=0
98362 On ch=1 n=e6 v=96
98417 On ch=1 n=d6 v=90
98427 On ch=1 n=e6 v=0
98464 On ch=1 n=c#6 v=100
98465 On ch=1 n=d6 v=0
98475 Par ch=1 c=64 v=63
98477 On ch=1 n=a4 v=65
98480 Par ch=1 c=64 v=0
98490 On ch=1 n=b4 v=0
98511 On ch=1 n=c#6 v=0
98521 On ch=1 n=f6 v=97
98528 On ch=1 n=f#5 v=0
98536 On ch=1 n=a4 v=0
98577 On ch=1 n=f6 v=0
98577 On ch=1 n=f#6 v=106
98635 On ch=1 n=f#6 v=0
98640 On ch=1 n=g4 v=88
98642 On ch=1 n=d5 v=86
98648 On ch=1 n=b5 v=82
98651 Par ch=1 c=64 v=63
98654 Par ch=1 c=64 v=127
98688 On ch=1 n=b5 v=0
98700 On ch=1 n=c6 v=82
98710 On ch=1 n=g4 v=0
98746 On ch=1 n=b5 v=94
98761 On ch=1 n=c6 v=0
98785 Par ch=1 c=64 v=63
98789 Par ch=1 c=64 v=0
98791 On ch=1 n=b5 v=0
98802 On ch=1 n=a5 v=79
98806 On ch=1 n=f#4 v=86
98855 On ch=1 n=a5 v=0
98858 On ch=1 n=c#6 v=94
98864 On ch=1 n=d5 v=0
98869 On ch=1 n=f#4 v=0
98902 On ch=1 n=d6 v=83
98909 On ch=1 n=c#6 v=0
98954 On ch=1 n=d6 v=0
98960 On ch=1 n=a5 v=84
98970 On ch=1 n=c#5 v=78
98976 On ch=1 n=e4 v=65
98987 Par ch=1 c=64 v=63
98992 Par ch=1 c=64 v=127
99041 On ch=1 n=a5 v=0
99041 Par ch=1 c=64 v=63
99052 On ch=1 n=c#5 v=0
99057 Par ch=1 c=64 v=0
99060 On ch=1 n=g5 v=77
99140 On ch=1 n=e4 v=0
99145 On ch=1 n=g5 v=0
99154 On ch=1 n=f#5 v=88
99155 On ch=1 n=d5 v=60
99156 On ch=1 n=d4 v=57
99159 Par ch=1 c=64 v=63
99165 Par ch=1 c=64 v=127
99194 On ch=1 n=f#5 v=0
99196 Par ch=1 c=64 v=63
99204 Par ch=1 c=64 v=0
99242 On ch=1 n=d4 v=0
99262 On ch=1 n=d5 v=0
99347 On ch=1 n=a6 v=120
99372 Par ch=1 c=64 v=63
99374 Par ch=1 c=64 v=127
99521 On ch=1 n=d5 v=107
99524 On ch=1 n=f#4 v=97
99583 On ch=1 n=f#4 v=0
99698 On ch=1 n=g4 v=103
99786 Par ch=1 c=64 v=63
99789 On ch=1 n=b6 v=101
99801 Par ch=1 c=64 v=0
99831 On ch=1 n=a6 v=0
99857 Par ch=1 c=64 v=63
99865 Par ch=1 c=64 v=127
99866 On ch=1 n=g5 v=104
99870 On ch=1 n=g6 v=103
99879 On ch=1 n=g4 v=0
99899 On ch=1 n=d5 v=0
99899 On ch=1 n=b6 v=0
99942 On ch=1 n=e6 v=99
99956 On ch=1 n=g6 v=0
100009 On ch=1 n=e6 v=0
100011 Par ch=1 c=64 v=63
100025 Par ch=1 c=64 v=0
100025 On ch=1 n=f#5 v=91
100032 On ch=1 n=a4 v=50
100033 On ch=1 n=g5 v=0
100033 On ch=1 n=d6 v=112
100041 Par ch=1 c=64 v=63
100063 Par ch=1 c=64 v=127
100130 On ch=1 n=f#5 v=0
100155 On ch=1 n=d6 v=0
100180 Par ch=1 c=64 v=63
100191 Par ch=1 c=64 v=0
100210 On ch=1 n=f#6 v=105
100211 On ch=1 n=c#5 v=108
100213 Par ch=1 c=64 v=63
100230 Par ch=1 c=64 v=127
100241 On ch=1 n=a4 v=0
100241 On ch=1 n=c#5 v=0
100287 On ch=1 n=f#6 v=0
100288 On ch=1 n=e6 v=97
100337 Par ch=1 c=64 v=63
100340 Par ch=1 c=64 v=0
100369 On ch=1 n=e6 v=0
100379 On ch=1 n=d3 v=121
100381 On ch=1 n=d6 v=116
100402 Par ch=1 c=64 v=63
100407 Par ch=1 c=64 v=127
100442 On ch=1 n=f#3 v=107
100469 On ch=1 n=d3 v=0
100496 On ch=1 n=a3 v=100
100502 On ch=1 n=d6 v=0
100521 On ch=1 n=f#3 v=0
100541 On ch=1 n=a3 v=0
100547 On ch=1 n=d4 v=92
100588 On ch=1 n=d4 v=0
100609 On ch=1 n=f#4 v=107
100658 On ch=1 n=a4 v=96
100699 Par ch=1 c=64 v=63
100706 Par ch=1 c=64 v=0
100709 On ch=1 n=d7 v=118
100714 On ch=1 n=d5 v=112
100721 Par ch=1 c=64 v=63
100736 Par ch=1 c=64 v=127
100747 On ch=1 n=a4 v=0
100754 On ch=1 n=d5 v=0
100757 On ch=1 n=a6 v=109
100765 On ch=1 n=f#4 v=0
100773 On ch=1 n=d7 v=0
100820 On ch=1 n=a6 v=0
100822 On ch=1 n=f#6 v=110
100859 On ch=1 n=f#6 v=0
100866 On ch=1 n=d6 v=79
100886 On ch=1 n=d6 v=0
100911 Par ch=1 c=64 v=63
100917 On ch=1 n=a5 v=102
100918 Par ch=1 c=64 v=0
100963 On ch=1 n=a5 v=0
100970 On ch=1 n=f#5 v=104
101012 On ch=1 n=f#5 v=0
101033 On ch=1 n=d3 v=112
101037 On ch=1 n=e5 v=116
101040 Par ch=1 c=64 v=63
101041 Par ch=1 c=64 v=127
101078 On ch=1 n=e5 v=0
101096 On ch=1 n=g3 v=94
101117 On ch=1 n=d3 v=0
101141 On ch=1 n=g3 v=0
101142 On ch=1 n=c#4 v=99
101160 On ch=1 n=c#4 v=0
101201 On ch=1 n=e4 v=104
101255 On ch=1 n=g4 v=87
101312 On ch=1 n=a4 v=85
101337 On ch=1 n=g4 v=0
101361 On ch=1 n=e7 v=114
101369 On ch=1 n=c#5 v=118
101383 On ch=1 n=e4 v=0
101384 On ch=1 n=a4 v=0
101399 On ch=1 n=c#5 v=0
101410 On ch=1 n=c#7 v=105
101420 On ch=1 n=e7 v=0
101469 On ch=1 n=c#7 v=0
101471 On ch=1 n=g6 v=101
101506 On ch=1 n=g6 v=0
101523 On ch=1 n=e6 v=91
101558 On ch=1 n=e6 v=0
101590 On ch=1 n=c#6 v=109
101626 On ch=1 n=c#6 v=0
101631 On ch=1 n=g5 v=108
101639 Par ch=1 c=64 v=63
101645 Par ch=1 c=64 v=0
101661 On ch=1 n=g5 v=0
101680 On ch=1 n=d3 v=120
101691 On ch=1 n=f#5 v=121
101698 Par ch=1 c=64 v=63
101703 Par ch=1 c=64 v=127
101725 On ch=1 n=f#5 v=0
101739 On ch=1 n=f#3 v=100
101767 On ch=1 n=d3 v=0
101791 On ch=1 n=a3 v=86
101817 On ch=1 n=f#3 v=0
101834 On ch=1 n=a3 v=0
101839 On ch=1 n=d4 v=97
101874 On ch=1 n=d4 v=0
101901 On ch=1 n=f#4 v=100
101955 On ch=1 n=a4 v=81
102008 Par ch=1 c=64 v=63
102008 On ch=1 n=c7 v=116
102009 On ch=1 n=d5 v=112
102025 Par ch=1 c=64 v=127
102029 On ch=1 n=a4 v=0
102035 On ch=1 n=f#4 v=0
102045 On ch=1 n=d5 v=0
102057 On ch=1 n=a6 v=103
102082 On ch=1 n=c7 v=0
102119 On ch=1 n=f#6 v=108
102131 On ch=1 n=a6 v=0
102160 On ch=1 n=f#6 v=0
102170 On ch=1 n=d6 v=85
102202 On ch=1 n=d6 v=0
102223 On ch=1 n=c6 v=84
102266 On ch=1 n=a5 v=102
102269 On ch=1 n=c6 v=0
102302 On ch=1 n=a5 v=0
102332 On ch=1 n=a5 v=92
102337 On ch=1 n=d#5 v=99
102351 Par ch=1 c=64 v=63
102360 Par ch=1 c=64 v=0
102397 On ch=1 n=b5 v=88
102422 Par ch=1 c=64 v=63
102430 Par ch=1 c=64 v=127
102456 On ch=1 n=d#6 v=109
102466 On ch=1 n=b5 v=0
102507 On ch=1 n=f#6 v=105
102528 On ch=1 n=d#6 v=0
102567 On ch=1 n=b6 v=67
102577 On ch=1 n=f#6 v=0
102599 On ch=1 n=b6 v=0
102601 On ch=1 n=b5 v=102
102637 On ch=1 n=b5 v=0
102663 On ch=1 n=g#5 v=94
102664 On ch=1 n=d5 v=90
102668 On ch=1 n=d#5 v=0
102678 On ch=1 n=a5 v=0
102685 Par ch=1 c=64 v=63
102695 Par ch=1 c=64 v=0
102726 On ch=1 n=e6 v=88
102777 On ch=1 n=g#6 v=100
102787 On ch=1 n=e6 v=0
102795 Par ch=1 c=64 v=63
102805 Par ch=1 c=64 v=127
102827 On ch=1 n=b6 v=97
102836 On ch=1 n=g#6 v=0
102877 On ch=1 n=e7 v=88
102879 On ch=1 n=d5 v=0
102889 On ch=1 n=b6 v=0
102915 On ch=1 n=e7 v=0
102929 On ch=1 n=e6 v=82
102948 On ch=1 n=g#5 v=0
102958 On ch=1 n=e6 v=0
102998 On ch=1 n=g5 v=76
103003 On ch=1 n=c#5 v=82
103017 Par ch=1 c=64 v=63
103028 Par ch=1 c=64 v=0
103062 On ch=1 n=a5 v=83
103088 Par ch=1 c=64 v=63
103096 Par ch=1 c=64 v=127
103119 On ch=1 n=c#6 v=103
103134 On ch=1 n=a5 v=0
103173 On ch=1 n=e6 v=88
103175 On ch=1 n=c#6 v=0
103231 On ch=1 n=a6 v=84
103240 On ch=1 n=e6 v=0
103259 On ch=1 n=c#5 v=0
103266 On ch=1 n=a6 v=0
103277 On ch=1 n=a5 v=73
103307 On ch=1 n=a5 v=0
103331 On ch=1 n=f#5 v=104
103332 On ch=1 n=c5 v=92
103347 On ch=1 n=g5 v=0
103356 Par ch=1 c=64 v=63
103365 Par ch=1 c=64 v=0
103397 On ch=1 n=d6 v=73
103409 Par ch=1 c=64 v=63
103423 Par ch=1 c=64 v=127
103448 On ch=1 n=f#6 v=95
103462 On ch=1 n=d6 v=0
103502 On ch=1 n=f#6 v=0
103502 On ch=1 n=a6 v=91
103523 On ch=1 n=f#5 v=0
103529 On ch=1 n=c5 v=0
103552 On ch=1 n=d7 v=83
103571 On ch=1 n=a6 v=0
103590 On ch=1 n=d7 v=0
103606 On ch=1 n=d6 v=90
103644 On ch=1 n=d6 v=0
103652 Par ch=1 c=64 v=63
103660 On ch=1 n=d5 v=86
103661 Par ch=1 c=64 v=0
103665 On ch=1 n=b4 v=73
103724 On ch=1 n=a6 v=87
103775 On ch=1 n=g6 v=91
103797 On ch=1 n=a6 v=0
103818 On ch=1 n=c#5 v=99
103820 On ch=1 n=g6 v=0
103826 On ch=1 n=a4 v=68
103845 On ch=1 n=d5 v=0
103846 On ch=1 n=b4 v=0
103887 On ch=1 n=g6 v=94
103921 Par ch=1 c=64 v=63
103929 Par ch=1 c=64 v=127
103935 On ch=1 n=f#6 v=105
103958 On ch=1 n=g6 v=0
103979 On ch=1 n=f#6 v=0
103986 On ch=1 n=g4 v=91
103990 On ch=1 n=b4 v=93
103991 On ch=1 n=a4 v=0
104002 On ch=1 n=c#5 v=0
104003 Par ch=1 c=64 v=63
104012 Par ch=1 c=64 v=0
104047 On ch=1 n=f#6 v=99
104058 Par ch=1 c=64 v=63
104070 Par ch=1 c=64 v=127
104092 On ch=1 n=e6 v=103
104101 On ch=1 n=b4 v=0
104125 On ch=1 n=f#6 v=0
104132 On ch=1 n=b4 v=86
104139 On ch=1 n=g#4 v=95
104146 On ch=1 n=e6 v=0
104156 On ch=1 n=g4 v=0
104163 Par ch=1 c=64 v=63
104185 Par ch=1 c=64 v=127
104204 On ch=1 n=e6 v=91
104248 On ch=1 n=d6 v=91
104260 On ch=1 n=e6 v=0
104275 On ch=1 n=d6 v=0
104278 On ch=1 n=g#4 v=0
104285 On ch=1 n=b4 v=0
104297 Par ch=1 c=64 v=63
104304 On ch=1 n=a4 v=63
104309 Par ch=1 c=64 v=0
104317 On ch=1 n=c#6 v=95
104366 On ch=1 n=c#6 v=0
104367 Par ch=1 c=64 v=63
104379 On ch=1 n=a5 v=49
104380 Par ch=1 c=64 v=0
104427 On ch=1 n=a5 v=0
104430 On ch=1 n=e6 v=79
104488 On ch=1 n=c#6 v=96
104495 On ch=1 n=e6 v=0
104513 Par ch=1 c=64 v=63
104523 Par ch=1 c=64 v=127
104535 On ch=1 n=c#6 v=0
104538 On ch=1 n=a6 v=85
104580 On ch=1 n=a6 v=0
104596 On ch=1 n=e6 v=90
104634 On ch=1 n=a4 v=0
104641 On ch=1 n=e6 v=0
104650 On ch=1 n=c#7 v=112
104700 Par ch=1 c=64 v=63
104704 On ch=1 n=a6 v=91
104705 Par ch=1 c=64 v=0
104712 On ch=1 n=c#7 v=0
104757 On ch=1 n=a6 v=0
104759 On ch=1 n=e7 v=89
104803 On ch=1 n=c#7 v=97
104813 On ch=1 n=e7 v=0
104861 On ch=1 n=a6 v=83
104867 On ch=1 n=c#7 v=0
104901 On ch=1 n=a6 v=0
104911 On ch=1 n=e6 v=71
104955 On ch=1 n=e6 v=0
104972 On ch=1 n=f#6 v=82
104977 On ch=1 n=d5 v=92
104983 On ch=1 n=a4 v=71
105007 Par ch=1 c=64 v=63
105012 Par ch=1 c=64 v=127
105029 On ch=1 n=f#6 v=0
105031 On ch=1 n=d6 v=76
105087 On ch=1 n=d6 v=0
105087 On ch=1 n=a6 v=94
105139 On ch=1 n=f#6 v=99
105147 On ch=1 n=a6 v=0
105185 On ch=1 n=f#6 v=0
105187 On ch=1 n=d7 v=93
105241 On ch=1 n=a6 v=90
105249 On ch=1 n=d7 v=0
105257 On ch=1 n=a4 v=0
105284 On ch=1 n=f#6 v=104
105288 On ch=1 n=d5 v=0
105291 On ch=1 n=a6 v=0
105337 On ch=1 n=a6 v=99
105338 On ch=1 n=f#6 v=0
105385 On ch=1 n=a6 v=0
105396 On ch=1 n=d6 v=88
105437 On ch=1 n=d6 v=0
105444 On ch=1 n=f#6 v=108
105460 Par ch=1 c=64 v=63
105468 Par ch=1 c=64 v=0
105490 On ch=1 n=f#6 v=0
105496 On ch=1 n=a5 v=93
105541 On ch=1 n=a5 v=0
105546 On ch=1 n=d6 v=97
105604 On ch=1 n=d6 v=0
105605 On ch=1 n=e5 v=99
105607 On ch=1 n=a4 v=89
105608 On ch=1 n=c#6 v=104
105608 On ch=1 n=c#5 v=98
105624 Par ch=1 c=64 v=63
105628 Par ch=1 c=64 v=127
105656 On ch=1 n=a5 v=92
105657 On ch=1 n=c#6 v=0
105705 On ch=1 n=a5 v=0
105713 On ch=1 n=e6 v=97
105760 On ch=1 n=a4 v=0
105764 On ch=1 n=e6 v=0
105771 On ch=1 n=c#6 v=107
105794 On ch=1 n=e5 v=0
105800 On ch=1 n=c#5 v=0
105812 On ch=1 n=a6 v=98
105815 On ch=1 n=c#6 v=0
105861 On ch=1 n=a6 v=0
105883 On ch=1 n=e6 v=92
105924 On ch=1 n=e6 v=0
105934 On ch=1 n=c#7 v=110
105985 On ch=1 n=a6 v=100
105989 On ch=1 n=c#7 v=0
106037 On ch=1 n=a6 v=0
106044 On ch=1 n=e7 v=97
106088 On ch=1 n=c#7 v=100
106100 On ch=1 n=e7 v=0
106104 Par ch=1 c=64 v=63
106127 Par ch=1 c=64 v=0
106137 On ch=1 n=a6 v=96
106148 On ch=1 n=c#7 v=0
106187 On ch=1 n=a6 v=0
106189 On ch=1 n=e6 v=92
106205 Par ch=1 c=64 v=63
106228 On ch=1 n=a4 v=54
106231 Par ch=1 c=64 v=127
106242 On ch=1 n=e6 v=0
106249 On ch=1 n=d5 v=68
106273 On ch=1 n=f5 v=55
106294 On ch=1 n=f6 v=43
106346 On ch=1 n=d6 v=59
106349 On ch=1 n=f6 v=0
106408 On ch=1 n=d6 v=0
106412 On ch=1 n=a6 v=84
106458 On ch=1 n=f6 v=82
106460 On ch=1 n=a6 v=0
106503 On ch=1 n=f6 v=0
106511 On ch=1 n=d7 v=93
106560 On ch=1 n=a6 v=82
106567 On ch=1 n=d7 v=0
106607 On ch=1 n=f6 v=84
106614 On ch=1 n=a6 v=0
106657 On ch=1 n=a6 v=97
106661 On ch=1 n=f6 v=0
106703 On ch=1 n=a6 v=0
106710 On ch=1 n=d6 v=85
106738 On ch=1 n=f5 v=0
106739 On ch=1 n=d5 v=0
106751 On ch=1 n=d6 v=0
106762 On ch=1 n=f6 v=88
106774 On ch=1 n=a4 v=0
106799 On ch=1 n=f6 v=0
106815 On ch=1 n=a5 v=90
106862 On ch=1 n=a5 v=0
106865 On ch=1 n=d6 v=73
106903 Par ch=1 c=64 v=63
106915 Par ch=1 c=64 v=0
106925 On ch=1 n=c#6 v=93
106936 On ch=1 n=d6 v=0
106961 Par ch=1 c=64 v=63
106983 Par ch=1 c=64 v=127
106984 On ch=1 n=a4 v=53
107048 On ch=1 n=c#5 v=80
107075 On ch=1 n=c#6 v=0
107084 On ch=1 n=a4 v=0
107099 On ch=1 n=e5 v=81
107142 On ch=1 n=c#5 v=0
107143 On ch=1 n=a5 v=82
107164 On ch=1 n=e5 v=0
107174 On ch=1 n=a5 v=0
107195 Par ch=1 c=64 v=63
107200 On ch=1 n=a5 v=80
107202 Par ch=1 c=64 v=0
107207 On ch=1 n=c#6 v=95
107240 On ch=1 n=a5 v=0
107261 On ch=1 n=c#6 v=0
107278 On ch=1 n=d6 v=85
107278 On ch=1 n=b5 v=79
107304 Par ch=1 c=64 v=63
107310 Par ch=1 c=64 v=127
107332 On ch=1 n=a4 v=55
107399 On ch=1 n=b4 v=79
107409 On ch=1 n=a4 v=0
107430 On ch=1 n=b5 v=0
107437 On ch=1 n=d6 v=0
107457 On ch=1 n=d5 v=76
107484 On ch=1 n=b4 v=0
107511 On ch=1 n=g#5 v=93
107521 On ch=1 n=d5 v=0
107551 On ch=1 n=g#5 v=0
107553 Par ch=1 c=64 v=63
107554 On ch=1 n=b5 v=89
107556 On ch=1 n=d6 v=93
107560 Par ch=1 c=64 v=0
107593 On ch=1 n=b5 v=0
107598 On ch=1 n=d6 v=0
107622 Par ch=1 c=64 v=63
107623 On ch=1 n=e6 v=98
107624 On ch=1 n=c#6 v=97
107630 Par ch=1 c=64 v=127
107692 On ch=1 n=a4 v=74
107746 On ch=1 n=c#5 v=95
107765 On ch=1 n=e6 v=0
107772 On ch=1 n=c#6 v=0
107804 On ch=1 n=e5 v=102
107857 On ch=1 n=c#5 v=0
107858 On ch=1 n=g5 v=85
107877 On ch=1 n=e5 v=0
107891 On ch=1 n=a4 v=0
107900 On ch=1 n=e6 v=93
107901 On ch=1 n=g5 v=0
107902 On ch=1 n=c#6 v=92
107945 On ch=1 n=c#6 v=0
107949 Par ch=1 c=64 v=63
107959 Par ch=1 c=64 v=0
107963 On ch=1 n=f#6 v=107
107965 On ch=1 n=d6 v=101
107991 On ch=1 n=e6 v=0
108014 Par ch=1 c=64 v=63
108024 Par ch=1 c=64 v=127
108030 On ch=1 n=a4 v=69
108068 On ch=1 n=c#5 v=91
108098 On ch=1 n=d6 v=0
108120 On ch=1 n=f#6 v=0
108127 On ch=1 n=d5 v=96
108142 On ch=1 n=a4 v=0
108176 On ch=1 n=c#5 v=0
108178 On ch=1 n=f#5 v=108
108195 On ch=1 n=d5 v=0
108216 On ch=1 n=f#5 v=0
108253 On ch=1 n=d6 v=90
108253 On ch=1 n=f#6 v=115
108302 On ch=1 n=d6 v=0
108332 On ch=1 n=f#6 v=0
108386 On ch=1 n=a3 v=94
108386 On ch=1 n=a4 v=109
108387 On ch=1 n=g6 v=112
108434 Par ch=1 c=64 v=63
108445 Par ch=1 c=64 v=0
108473 Par ch=1 c=64 v=63
108490 Par ch=1 c=64 v=127
108495 On ch=1 n=c#7 v=100
108536 On ch=1 n=g6 v=0
108557 On ch=1 n=e7 v=85
108568 On ch=1 n=c#7 v=0
108618 On ch=1 n=f#6 v=106
108629 On ch=1 n=e7 v=0
108663 On ch=1 n=f#6 v=0
108677 On ch=1 n=e7 v=92
108724 On ch=1 n=d7 v=98
108743 On ch=1 n=e7 v=0
108767 On ch=1 n=d7 v=0
108772 On ch=1 n=e6 v=97
108822 On ch=1 n=g6 v=101
108830 On ch=1 n=e6 v=0
108861 Par ch=1 c=64 v=63
108868 Par ch=1 c=64 v=127
108872 On ch=1 n=c#7 v=107
108883 On ch=1 n=g6 v=0
108921 On ch=1 n=c#7 v=0
108932 On ch=1 n=d6 v=87
108976 On ch=1 n=d6 v=0
108986 On ch=1 n=c#7 v=108
109041 On ch=1 n=b6 v=89
109042 On ch=1 n=c#7 v=0
109093 On ch=1 n=b6 v=0
109100 On ch=1 n=c#6 v=109
109155 On ch=1 n=e6 v=84
109159 On ch=1 n=c#6 v=0
109174 Par ch=1 c=64 v=63
109200 Par ch=1 c=64 v=127
109210 On ch=1 n=a6 v=92
109218 On ch=1 n=e6 v=0
109264 On ch=1 n=a6 v=0
109265 On ch=1 n=b5 v=86
109311 On ch=1 n=b5 v=0
109321 On ch=1 n=a6 v=94
109375 On ch=1 n=g6 v=85
109390 On ch=1 n=a6 v=0
109431 On ch=1 n=g6 v=0
109435 On ch=1 n=a5 v=89
109439 Par ch=1 c=64 v=63
109446 Par ch=1 c=64 v=127
109496 On ch=1 n=c#6 v=91
109502 On ch=1 n=a5 v=0
109543 On ch=1 n=f#6 v=85
109547 On ch=1 n=c#6 v=0
109602 On ch=1 n=f#6 v=0
109602 On ch=1 n=g5 v=82
109611 On ch=1 n=a3 v=0
109649 On ch=1 n=a4 v=0
109654 On ch=1 n=g5 v=0
109662 On ch=1 n=f#6 v=84
109723 On ch=1 n=e6 v=82
109760 On ch=1 n=f#6 v=0
109775 Par ch=1 c=64 v=63
109792 On ch=1 n=d6 v=74
109800 Par ch=1 c=64 v=0
109822 On ch=1 n=e6 v=0
109980 On ch=1 n=a5 v=63
109984 On ch=1 n=f#5 v=68
110008 On ch=1 n=f#5 v=0
110017 On ch=1 n=a5 v=0
110081 On ch=1 n=d6 v=0
110095 On ch=1 n=e6 v=64
110121 On ch=1 n=d6 v=63
110128 On ch=1 n=e6 v=0
110150 On ch=1 n=c#6 v=93
110158 On ch=1 n=f#5 v=69
110159 On ch=1 n=a5 v=52
110161 On ch=1 n=d6 v=0
110180 On ch=1 n=c#6 v=0
110182 On ch=1 n=f#5 v=0
110189 On ch=1 n=a5 v=0
110322 On ch=1 n=d6 v=96
110329 On ch=1 n=a5 v=73
110332 On ch=1 n=f#5 v=80
110357 On ch=1 n=d6 v=0
110358 On ch=1 n=f#5 v=0
110370 On ch=1 n=a5 v=0
110503 On ch=1 n=d#6 v=99
110527 Par ch=1 c=64 v=63
110532 Par ch=1 c=64 v=127
110643 Par ch=1 c=64 v=63
110651 Par ch=1 c=64 v=0
110678 On ch=1 n=b5 v=67
110678 On ch=1 n=e6 v=90
110685 On ch=1 n=g5 v=58
110687 On ch=1 n=d#6 v=0
110710 On ch=1 n=g5 v=0
110711 On ch=1 n=e6 v=0
110712 On ch=1 n=b5 v=0
110857 On ch=1 n=e6 v=92
110864 On ch=1 n=g5 v=62
110865 On ch=1 n=b5 v=60
110887 On ch=1 n=e6 v=0
110895 On ch=1 n=g5 v=0
110898 On ch=1 n=b5 v=0
111034 On ch=1 n=b5 v=75
111036 On ch=1 n=g5 v=77
111061 On ch=1 n=b5 v=0
111061 On ch=1 n=g5 v=0
111210 On ch=1 n=e6 v=92
111217 Par ch=1 c=64 v=63
111221 Par ch=1 c=64 v=127
111253 On ch=1 n=e6 v=0
111375 On ch=1 n=a5 v=49
111381 On ch=1 n=c#5 v=64
111411 On ch=1 n=c#5 v=0
111418 On ch=1 n=a5 v=0
111462 On ch=1 n=f#6 v=75
111494 On ch=1 n=e6 v=85
111514 On ch=1 n=f#6 v=0
111516 Par ch=1 c=64 v=63
111522 Par ch=1 c=64 v=0
111528 On ch=1 n=d6 v=90
111539 On ch=1 n=e6 v=0
111546 On ch=1 n=a5 v=66
111549 On ch=1 n=c#5 v=72
111568 On ch=1 n=d6 v=0
111571 On ch=1 n=c#5 v=0
111578 On ch=1 n=a5 v=0
111712 On ch=1 n=e6 v=103
111714 On ch=1 n=a5 v=82
111716 On ch=1 n=c#5 v=93
111739 On ch=1 n=e6 v=0
111741 On ch=1 n=a5 v=0
111743 On ch=1 n=c#5 v=0
111893 On ch=1 n=f6 v=101
111902 Par ch=1 c=64 v=63
111907 Par ch=1 c=64 v=127
111939 On ch=1 n=f6 v=0
112071 On ch=1 n=a5 v=68
112072 On ch=1 n=f#6 v=100
112072 Par ch=1 c=64 v=63
112075 On ch=1 n=d5 v=69
112080 Par ch=1 c=64 v=0
112105 On ch=1 n=f#6 v=0
112106 On ch=1 n=d5 v=0
112107 On ch=1 n=a5 v=0
112252 On ch=1 n=f#6 v=101
112257 On ch=1 n=d5 v=65
112261 On ch=1 n=a5 v=28
112269 On ch=1 n=f#6 v=0
112285 On ch=1 n=d5 v=0
112293 On ch=1 n=a5 v=0
112420 On ch=1 n=a5 v=76
112420 On ch=1 n=d5 v=87
112440 On ch=1 n=d5 v=0
112446 On ch=1 n=a5 v=0
112586 Par ch=1 c=64 v=63
112596 On ch=1 n=f#5 v=87
112597 On ch=1 n=a5 v=69
112597 Par ch=1 c=64 v=127
112598 On ch=1 n=a6 v=96
112722 On ch=1 n=a6 v=0
112733 On ch=1 n=b6 v=82
112775 On ch=1 n=g6 v=89
112776 Par ch=1 c=64 v=63
112783 On ch=1 n=e5 v=67
112788 On ch=1 n=f#5 v=0
112794 Par ch=1 c=64 v=0
112812 On ch=1 n=b6 v=0
112899 On ch=1 n=g6 v=0
112906 On ch=1 n=a6 v=75
112941 On ch=1 n=f#6 v=98
112951 On ch=1 n=d5 v=69
112956 On ch=1 n=a6 v=0
112963 On ch=1 n=e5 v=0
112973 On ch=1 n=f#6 v=0
113095 On ch=1 n=d5 v=0
113126 On ch=1 n=d6 v=97
113132 On ch=1 n=a5 v=0
113161 On ch=1 n=d6 v=0
113297 On ch=1 n=e5 v=85
113299 On ch=1 n=a5 v=77
113301 On ch=1 n=g6 v=98
113309 Par ch=1 c=64 v=63
113313 Par ch=1 c=64 v=127
113414 On ch=1 n=g6 v=0
113438 On ch=1 n=a6 v=83
113464 On ch=1 n=f#5 v=80
113466 Par ch=1 c=64 v=63
113469 On ch=1 n=f#6 v=97
113473 On ch=1 n=e5 v=0
113475 Par ch=1 c=64 v=0
113500 On ch=1 n=a6 v=0
113598 On ch=1 n=f#6 v=0
113612 On ch=1 n=g6 v=84
113638 On ch=1 n=f#5 v=0
113639 On ch=1 n=g5 v=66
113641 On ch=1 n=e6 v=87
113659 On ch=1 n=g6 v=0
113662 On ch=1 n=e6 v=0
113783 On ch=1 n=g5 v=0
113795 On ch=1 n=a5 v=0
113819 On ch=1 n=c#6 v=99
113850 On ch=1 n=c#6 v=0
113988 On ch=1 n=d6 v=92
113991 On ch=1 n=f#5 v=87
113992 On ch=1 n=a5 v=72
114008 On ch=1 n=d6 v=0
114024 On ch=1 n=f#5 v=0
114031 On ch=1 n=a5 v=0
114167 On ch=1 n=d6 v=86
114190 On ch=1 n=d6 v=0
114346 On ch=1 n=a5 v=77
114348 On ch=1 n=c#6 v=92
114358 On ch=1 n=e5 v=52
114370 On ch=1 n=c#6 v=0
114375 On ch=1 n=a5 v=0
114381 On ch=1 n=e5 v=0
114529 On ch=1 n=c#6 v=92
114549 On ch=1 n=c#6 v=0
114694 On ch=1 n=e4 v=76
114694 On ch=1 n=b5 v=103
114695 On ch=1 n=d5 v=81
114711 On ch=1 n=c#6 v=100
114713 Par ch=1 c=64 v=63
114718 Par ch=1 c=64 v=127
114725 On ch=1 n=b5 v=0
114748 On ch=1 n=c#6 v=0
114753 On ch=1 n=b5 v=77
114846 On ch=1 n=b5 v=0
114851 On ch=1 n=a5 v=77
114852 Par ch=1 c=64 v=63
114858 Par ch=1 c=64 v=0
114887 On ch=1 n=b5 v=85
114903 On ch=1 n=a5 v=0
114908 On ch=1 n=e4 v=0
115015 On ch=1 n=c#6 v=87
115026 On ch=1 n=b5 v=0
115062 On ch=1 n=a5 v=76
115067 On ch=1 n=c#5 v=61
115069 On ch=1 n=a4 v=44
115071 Par ch=1 c=64 v=63
115075 Par ch=1 c=64 v=127
115078 On ch=1 n=c#6 v=0
115101 On ch=1 n=d5 v=0
115210 Par ch=1 c=64 v=63
115211 On ch=1 n=a5 v=0
115214 Par ch=1 c=64 v=0
115220 On ch=1 n=a4 v=0
115228 On ch=1 n=c#5 v=0
115412 On ch=1 n=d5 v=118
115415 On ch=1 n=d6 v=124
115432 Par ch=1 c=64 v=63
115434 Par ch=1 c=64 v=127
115467 On ch=1 n=e5 v=100
115468 On ch=1 n=d5 v=0
115516 On ch=1 n=d6 v=0
115526 On ch=1 n=e5 v=0
115530 On ch=1 n=f#5 v=100
115576 On ch=1 n=f#5 v=0
115576 On ch=1 n=e5 v=81
115630 On ch=1 n=d5 v=96
115637 On ch=1 n=e5 v=0
115689 On ch=1 n=c#5 v=92
115691 On ch=1 n=d5 v=0
115693 On ch=1 n=e6 v=101
115728 On ch=1 n=d6 v=99
115729 On ch=1 n=c#5 v=0
115729 On ch=1 n=b4 v=88
115739 Par ch=1 c=64 v=63
115743 On ch=1 n=e6 v=0
115743 Par ch=1 c=64 v=0
115765 On ch=1 n=c#6 v=115
115777 On ch=1 n=d6 v=0
115792 On ch=1 n=c#5 v=82
115800 On ch=1 n=c#6 v=0
115802 On ch=1 n=b4 v=0
115844 On ch=1 n=c#5 v=0
115858 On ch=1 n=d5 v=105
115910 On ch=1 n=d5 v=0
115910 On ch=1 n=c#5 v=94
115930 On ch=1 n=d6 v=109
115940 On ch=1 n=c#5 v=0
115960 On ch=1 n=d6 v=0
115967 On ch=1 n=b4 v=89
116012 On ch=1 n=b4 v=0
116013 On ch=1 n=a4 v=80
116057 On ch=1 n=a4 v=0
116075 On ch=1 n=g4 v=97
116086 On ch=1 n=d#6 v=121
116110 Par ch=1 c=64 v=63
116111 Par ch=1 c=64 v=127
116130 On ch=1 n=a4 v=90
116136 On ch=1 n=g4 v=0
116182 On ch=1 n=a4 v=0
116187 On ch=1 n=b4 v=84
116241 Par ch=1 c=64 v=63
116242 On ch=1 n=d#6 v=0
116242 On ch=1 n=a4 v=75
116243 On ch=1 n=b4 v=0
116247 Par ch=1 c=64 v=0
116253 On ch=1 n=e6 v=112
116286 On ch=1 n=g4 v=87
116288 On ch=1 n=e6 v=0
116293 On ch=1 n=a4 v=0
116354 On ch=1 n=f#4 v=88
116360 On ch=1 n=g4 v=0
116411 On ch=1 n=f#4 v=0
116411 On ch=1 n=e4 v=81
116419 On ch=1 n=e6 v=114
116447 On ch=1 n=e6 v=0
116478 On ch=1 n=f#4 v=91
116499 On ch=1 n=e4 v=0
116530 On ch=1 n=f#4 v=0
116537 On ch=1 n=g4 v=81
116584 On ch=1 n=f#4 v=105
116594 On ch=1 n=g4 v=0
116621 On ch=1 n=f#4 v=0
116639 On ch=1 n=e4 v=100
116686 On ch=1 n=d4 v=94
116692 On ch=1 n=e4 v=0
116738 On ch=1 n=c#4 v=116
116739 On ch=1 n=d4 v=0
116746 On ch=1 n=e6 v=122
116770 Par ch=1 c=64 v=63
116772 Par ch=1 c=64 v=127
116792 On ch=1 n=d4 v=109
116807 On ch=1 n=c#4 v=0
116844 On ch=1 n=d4 v=0
116847 On ch=1 n=e4 v=94
116848 On ch=1 n=e6 v=0
116899 On ch=1 n=d4 v=92
116908 On ch=1 n=e4 v=0
116951 On ch=1 n=c#4 v=103
116961 On ch=1 n=d4 v=0
117014 On ch=1 n=c#4 v=0
117018 On ch=1 n=f#6 v=99
117019 On ch=1 n=b3 v=80
117054 On ch=1 n=e6 v=90
117071 Par ch=1 c=64 v=63
117073 On ch=1 n=f#6 v=0
117076 Par ch=1 c=64 v=0
117080 On ch=1 n=a3 v=97
117082 On ch=1 n=b3 v=0
117092 On ch=1 n=d6 v=106
117107 On ch=1 n=e6 v=0
117125 On ch=1 n=a3 v=0
117136 On ch=1 n=d6 v=0
117137 On ch=1 n=b3 v=92
117184 On ch=1 n=a3 v=83
117195 On ch=1 n=b3 v=0
117246 On ch=1 n=a3 v=0
117246 On ch=1 n=g3 v=96
117264 On ch=1 n=e6 v=113
117301 On ch=1 n=f#3 v=104
117302 On ch=1 n=e6 v=0
117309 On ch=1 n=g3 v=0
117367 On ch=1 n=e3 v=100
117375 On ch=1 n=f#3 v=0
117413 On ch=1 n=e3 v=0
117422 On ch=1 n=d3 v=112
117427 On ch=1 n=f6 v=112
117456 Par ch=1 c=64 v=63
117457 Par ch=1 c=64 v=127
117489 On ch=1 n=f#3 v=112
117519 On ch=1 n=d3 v=0
117545 On ch=1 n=g3 v=114
117570 On ch=1 n=f#3 v=0
117574 On ch=1 n=f6 v=0
117594 On ch=1 n=a3 v=101
117596 On ch=1 n=f#6 v=115
117606 On ch=1 n=g3 v=0
117614 Par ch=1 c=64 v=63
117617 Par ch=1 c=64 v=0
117636 On ch=1 n=f#6 v=0
117647 On ch=1 n=b3 v=108
117663 On ch=1 n=a3 v=0
117713 On ch=1 n=c#4 v=116
117737 On ch=1 n=b3 v=0
117755 On ch=1 n=f#6 v=118
117767 On ch=1 n=d4 v=107
117775 On ch=1 n=c#4 v=0
117786 On ch=1 n=f#6 v=0
117819 On ch=1 n=e4 v=100
117830 On ch=1 n=d4 v=0
117865 On ch=1 n=f#4 v=108
117892 On ch=1 n=e4 v=0
117917 On ch=1 n=g4 v=109
117941 On ch=1 n=f#4 v=0
117967 On ch=1 n=a4 v=97
117978 On ch=1 n=g4 v=0
118013 On ch=1 n=b4 v=108
118019 On ch=1 n=a4 v=0
118052 On ch=1 n=b4 v=0
118078 On ch=1 n=c5 v=127
118087 On ch=1 n=d5 v=108
118101 Par ch=1 c=64 v=63
118101 Par ch=1 c=64 v=127
118143 On ch=1 n=d5 v=0
118150 On ch=1 n=f#5 v=104
118195 On ch=1 n=a5 v=88
118200 On ch=1 n=f#5 v=0
118210 On ch=1 n=a5 v=0
118249 On ch=1 n=d6 v=103
118258 On ch=1 n=c6 v=58
118276 On ch=1 n=c5 v=0
118284 On ch=1 n=c6 v=0
118288 On ch=1 n=d6 v=0
118306 On ch=1 n=e6 v=99
118354 On ch=1 n=f#6 v=106
118375 On ch=1 n=e6 v=0
118415 On ch=1 n=b4 v=120
118419 On ch=1 n=g6 v=94
118425 On ch=1 n=f#6 v=0
118426 Par ch=1 c=64 v=63
118431 Par ch=1 c=64 v=0
118471 On ch=1 n=b4 v=0
118477 On ch=1 n=f#6 v=106
118482 On ch=1 n=g6 v=0
118529 On ch=1 n=g6 v=88
118535 On ch=1 n=f#6 v=0
118576 On ch=1 n=b6 v=99
118581 On ch=1 n=g6 v=0
118618 On ch=1 n=g6 v=93
118628 On ch=1 n=b6 v=0
118677 On ch=1 n=g6 v=0
118677 On ch=1 n=d6 v=109
118717 On ch=1 n=d6 v=0
118741 On ch=1 n=a5 v=89
118742 On ch=1 n=g4 v=121
118748 Par ch=1 c=64 v=63
118750 Par ch=1 c=64 v=127
118796 On ch=1 n=c#6 v=106
118799 On ch=1 n=a5 v=0
118840 On ch=1 n=e6 v=96
118847 On ch=1 n=c#6 v=0
118875 On ch=1 n=e6 v=0
118892 On ch=1 n=g4 v=0
118907 On ch=1 n=a6 v=96
118951 On ch=1 n=a6 v=0
118961 On ch=1 n=b6 v=92
119010 On ch=1 n=c#7 v=108
119033 On ch=1 n=b6 v=0
119062 On ch=1 n=f#4 v=113
119069 On ch=1 n=d7 v=72
119073 On ch=1 n=c#7 v=0
119126 On ch=1 n=c#7 v=110
119141 Par ch=1 c=64 v=63
119142 On ch=1 n=d7 v=0
119154 On ch=1 n=f#4 v=0
119158 Par ch=1 c=64 v=0
119180 On ch=1 n=b6 v=99
119190 On ch=1 n=c#7 v=0
119231 On ch=1 n=b6 v=0
119232 On ch=1 n=a6 v=84
119280 On ch=1 n=g6 v=93
119315 On ch=1 n=a6 v=0
119336 On ch=1 n=f#6 v=89
119341 On ch=1 n=g6 v=0
119363 On ch=1 n=f#6 v=0
119389 On ch=1 n=d#6 v=106
119419 Par ch=1 c=64 v=63
119437 Par ch=1 c=64 v=0
119440 On ch=1 n=e6 v=108
119443 On ch=1 n=d#6 v=0
119494 On ch=1 n=g6 v=108
119501 On ch=1 n=e6 v=0
119540 On ch=1 n=g4 v=80
119546 On ch=1 n=g5 v=111
119547 On ch=1 n=b6 v=113
119555 On ch=1 n=g6 v=0
119578 On ch=1 n=g4 v=0
119580 On ch=1 n=g5 v=0
119595 On ch=1 n=g6 v=100
119628 On ch=1 n=b6 v=0
119646 On ch=1 n=e6 v=97
119653 On ch=1 n=g6 v=0
119692 On ch=1 n=e6 v=0
119702 On ch=1 n=f#5 v=116
119704 On ch=1 n=a4 v=98
119708 On ch=1 n=a6 v=112
119735 On ch=1 n=f#5 v=0
119735 On ch=1 n=a4 v=0
119758 On ch=1 n=f#6 v=106
119784 On ch=1 n=a6 v=0
119815 On ch=1 n=d6 v=94
119826 On ch=1 n=f#6 v=0
119857 On ch=1 n=d6 v=0
119867 On ch=1 n=e5 v=111
119868 On ch=1 n=a4 v=107
119869 On ch=1 n=g6 v=103
119901 On ch=1 n=e5 v=0
119911 On ch=1 n=e6 v=100
119916 On ch=1 n=a4 v=0
119933 On ch=1 n=g6 v=0
119966 On ch=1 n=c#6 v=100
119971 On ch=1 n=e6 v=0
120000 On ch=1 n=c#6 v=0
120025 On ch=1 n=a4 v=104
120025 On ch=1 n=d5 v=112
120027 On ch=1 n=d6 v=109
120029 On ch=1 n=f#4 v=99
120044 Par ch=1 c=64 v=63
120046 Par ch=1 c=64 v=127
120048 On ch=1 n=g4 v=48
120078 On ch=1 n=d6 v=0
120086 On ch=1 n=f#6 v=104
120112 On ch=1 n=g4 v=0
120117 On ch=1 n=f#4 v=0
120122 On ch=1 n=f#6 v=0
120130 On ch=1 n=a6 v=102
120169 On ch=1 n=a6 v=0
120180 On ch=1 n=d7 v=107
120221 On ch=1 n=d7 v=0
120239 On ch=1 n=d6 v=102
120279 On ch=1 n=d6 v=0
120293 On ch=1 n=d7 v=94
120313 On ch=1 n=d7 v=0
120346 On ch=1 n=d7 v=94
120400 On ch=1 n=c#7 v=101
120435 On ch=1 n=d7 v=0
120455 On ch=1 n=b6 v=96
120478 On ch=1 n=c#7 v=0
120498 On ch=1 n=a4 v=0
120507 On ch=1 n=a6 v=97
120522 On ch=1 n=b6 v=0
120524 On ch=1 n=d5 v=0
120555 On ch=1 n=g6 v=91
120562 On ch=1 n=a6 v=0
120597 On ch=1 n=g6 v=0
120603 On ch=1 n=f#6 v=107
120644 On ch=1 n=f#6 v=0
120667 On ch=1 n=d5 v=108
120667 On ch=1 n=e5 v=111
120667 On ch=1 n=b5 v=101
120669 On ch=1 n=g4 v=87
120688 Par ch=1 c=64 v=63
120693 Par ch=1 c=64 v=0
120718 On ch=1 n=b5 v=0
120727 On ch=1 n=e6 v=103
120766 Par ch=1 c=64 v=63
120776 Par ch=1 c=64 v=127
120780 On ch=1 n=g6 v=94
120790 On ch=1 n=e6 v=0
120821 On ch=1 n=b6 v=102
120832 On ch=1 n=g6 v=0
120865 On ch=1 n=b6 v=0
120880 On ch=1 n=b5 v=96
120919 On ch=1 n=b5 v=0
120927 On ch=1 n=b6 v=96
120960 On ch=1 n=b6 v=0
120986 On ch=1 n=b6 v=79
121034 On ch=1 n=a6 v=98
121062 On ch=1 n=b6 v=0
121088 On ch=1 n=g6 v=97
121102 On ch=1 n=g4 v=0
121110 On ch=1 n=a6 v=0
121133 On ch=1 n=f#6 v=104
121147 On ch=1 n=e5 v=0
121153 On ch=1 n=d5 v=0
121155 On ch=1 n=g6 v=0
121176 On ch=1 n=e6 v=81
121183 On ch=1 n=f#6 v=0
121221 On ch=1 n=e6 v=0
121231 On ch=1 n=d6 v=101
121280 On ch=1 n=d6 v=0
121296 On ch=1 n=f#5 v=109
121297 On ch=1 n=a5 v=91
121298 On ch=1 n=d5 v=89
121301 On ch=1 n=a4 v=75
121303 Par ch=1 c=64 v=63
121308 Par ch=1 c=64 v=0
121349 On ch=1 n=a5 v=0
121352 On ch=1 n=d6 v=104
121360 On ch=1 n=d5 v=0
121366 On ch=1 n=a4 v=0
121371 On ch=1 n=f#5 v=0
121414 On ch=1 n=f#6 v=106
121428 On ch=1 n=d6 v=0
121463 On ch=1 n=a6 v=87
121469 On ch=1 n=f#6 v=0
121513 On ch=1 n=f#6 v=88
121521 On ch=1 n=a6 v=0
121564 On ch=1 n=d6 v=99
121580 On ch=1 n=f#6 v=0
121613 On ch=1 n=d6 v=0
121631 On ch=1 n=a5 v=81
121642 On ch=1 n=g5 v=106
121642 On ch=1 n=a4 v=84
121648 On ch=1 n=e5 v=93
121655 Par ch=1 c=64 v=63
121657 Par ch=1 c=64 v=127
121667 On ch=1 n=e5 v=0
121673 On ch=1 n=g5 v=0
121678 On ch=1 n=a4 v=0
121683 On ch=1 n=a5 v=0
121687 On ch=1 n=c#6 v=103
121741 On ch=1 n=c#6 v=0
121747 On ch=1 n=e6 v=93
121796 Par ch=1 c=64 v=63
121802 Par ch=1 c=64 v=0
121803 On ch=1 n=g6 v=85
121806 On ch=1 n=e6 v=0
121849 On ch=1 n=e6 v=78
121854 On ch=1 n=g6 v=0
121903 On ch=1 n=c#6 v=101
121906 On ch=1 n=e6 v=0
121939 On ch=1 n=c#6 v=0
121966 Par ch=1 c=64 v=63
121970 Par ch=1 c=64 v=127
121971 On ch=1 n=a4 v=54
121974 On ch=1 n=f#4 v=63
121974 On ch=1 n=d5 v=68
121982 On ch=1 n=d6 v=75
122029 On ch=1 n=d6 v=0
122043 On ch=1 n=f#6 v=95
122093 On ch=1 n=f#6 v=0
122098 On ch=1 n=a6 v=82
122128 On ch=1 n=a6 v=0
122153 On ch=1 n=d7 v=87
122189 On ch=1 n=d7 v=0
122216 On ch=1 n=d6 v=84
122243 On ch=1 n=d6 v=0
122262 On ch=1 n=d7 v=74
122292 On ch=1 n=d7 v=0
122322 On ch=1 n=d7 v=89
122373 On ch=1 n=c#7 v=91
122398 On ch=1 n=d7 v=0
122432 On ch=1 n=b6 v=92
122449 On ch=1 n=a4 v=0
122451 On ch=1 n=c#7 v=0
122455 On ch=1 n=f#4 v=0
122470 On ch=1 n=d5 v=0
122487 On ch=1 n=b6 v=0
122488 On ch=1 n=a6 v=87
122516 On ch=1 n=a6 v=0
122537 On ch=1 n=g6 v=87
122587 On ch=1 n=f#6 v=104
122598 On ch=1 n=g6 v=0
122634 On ch=1 n=f#6 v=0
122639 On ch=1 n=g4 v=71
122643 On ch=1 n=b5 v=96
122648 On ch=1 n=e5 v=80
122648 On ch=1 n=d5 v=83
122649 Par ch=1 c=64 v=63
122656 Par ch=1 c=64 v=0
122699 On ch=1 n=b5 v=0
122700 On ch=1 n=e6 v=101
122735 Par ch=1 c=64 v=63
122750 On ch=1 n=g6 v=86
122755 Par ch=1 c=64 v=127
122763 On ch=1 n=e6 v=0
122799 On ch=1 n=b6 v=90
122804 On ch=1 n=g6 v=0
122837 On ch=1 n=b6 v=0
122848 Par ch=1 c=64 v=63
122858 Par ch=1 c=64 v=0
122858 On ch=1 n=b5 v=84
122894 On ch=1 n=b5 v=0
122908 On ch=1 n=b6 v=94
122941 On ch=1 n=b6 v=0
122963 On ch=1 n=b6 v=82
122987 Par ch=1 c=64 v=63
122990 Par ch=1 c=64 v=127
123020 On ch=1 n=a6 v=87
123036 On ch=1 n=b6 v=0
123082 On ch=1 n=g6 v=81
123090 On ch=1 n=a6 v=0
123114 On ch=1 n=g4 v=0
123121 On ch=1 n=f#6 v=99
123144 On ch=1 n=g6 v=0
123154 On ch=1 n=d5 v=0
123155 On ch=1 n=e5 v=0
123172 On ch=1 n=f#6 v=0
123176 On ch=1 n=e6 v=73
123216 On ch=1 n=e6 v=0
123222 On ch=1 n=d6 v=92
123270 On ch=1 n=d6 v=0
123279 Par ch=1 c=64 v=63
123284 Par ch=1 c=64 v=0
123284 On ch=1 n=f#5 v=101
123286 On ch=1 n=a5 v=88
123287 On ch=1 n=a4 v=79
123291 On ch=1 n=d5 v=75
123312 On ch=1 n=d5 v=0
123318 On ch=1 n=a4 v=0
123319 On ch=1 n=f#5 v=0
123329 On ch=1 n=a5 v=0
123332 On ch=1 n=d6 v=94
123391 On ch=1 n=f#6 v=99
123399 On ch=1 n=d6 v=0
123444 On ch=1 n=a6 v=84
123447 On ch=1 n=f#6 v=0
123495 On ch=1 n=f#6 v=66
123501 On ch=1 n=a6 v=0
123547 On ch=1 n=d6 v=76
123563 On ch=1 n=f#6 v=0
123596 On ch=1 n=d6 v=0
123606 On ch=1 n=a5 v=78
123609 On ch=1 n=g5 v=86
123611 On ch=1 n=a4 v=78
123616 On ch=1 n=e5 v=75
123635 On ch=1 n=e5 v=0
123642 On ch=1 n=g5 v=0
123642 On ch=1 n=a4 v=0
123656 On ch=1 n=a5 v=0
123661 On ch=1 n=c#6 v=88
123708 On ch=1 n=c#6 v=0
123715 On ch=1 n=e6 v=80
123759 On ch=1 n=e6 v=0
123767 On ch=1 n=g6 v=73
123811 On ch=1 n=e6 v=65
123816 On ch=1 n=g6 v=0
123868 On ch=1 n=e6 v=0
123877 On ch=1 n=c#6 v=78
123908 On ch=1 n=c#6 v=0
123929 On ch=1 n=d4 v=81
123932 On ch=1 n=d6 v=88
123942 Par ch=1 c=64 v=63
123944 Par ch=1 c=64 v=127
123959 On ch=1 n=d4 v=0
123961 On ch=1 n=d6 v=0
123985 On ch=1 n=d5 v=75
124025 Par ch=1 c=64 v=63
124035 Par ch=1 c=64 v=0
124038 On ch=1 n=c#5 v=82
124043 On ch=1 n=d5 v=0
124080 On ch=1 n=c#5 v=0
124081 On ch=1 n=d5 v=64
124148 On ch=1 n=c#5 v=76
124154 On ch=1 n=d5 v=0
124194 On ch=1 n=c#5 v=0
124204 On ch=1 n=d5 v=67
124243 Par ch=1 c=64 v=63
124250 Par ch=1 c=64 v=0
124254 On ch=1 n=d5 v=0
124261 On ch=1 n=b6 v=90
124268 On ch=1 n=g6 v=76
124278 On ch=1 n=d4 v=71
124285 On ch=1 n=g6 v=0
124297 On ch=1 n=b6 v=0
124299 On ch=1 n=d4 v=0
124323 On ch=1 n=d5 v=68
124378 On ch=1 n=d5 v=0
124390 On ch=1 n=c#5 v=67
124415 On ch=1 n=c#5 v=0
124427 On ch=1 n=d5 v=60
124491 On ch=1 n=d5 v=0
124491 On ch=1 n=c#5 v=76
124533 On ch=1 n=c#5 v=0
124541 On ch=1 n=d5 v=74
124593 On ch=1 n=d5 v=0
124605 On ch=1 n=a6 v=97
124610 On ch=1 n=d4 v=91
124612 On ch=1 n=f#6 v=85
124630 On ch=1 n=f#6 v=0
124640 On ch=1 n=a6 v=0
124645 On ch=1 n=d4 v=0
124664 On ch=1 n=d5 v=71
124723 On ch=1 n=d5 v=0
124735 On ch=1 n=c#5 v=63
124761 On ch=1 n=c#5 v=0
124775 On ch=1 n=d5 v=67
124836 On ch=1 n=d5 v=0
124836 On ch=1 n=c#5 v=76
124877 On ch=1 n=c#5 v=0
124884 On ch=1 n=d5 v=69
124936 On ch=1 n=d5 v=0
124950 On ch=1 n=d4 v=91
124954 On ch=1 n=g6 v=83
124956 On ch=1 n=c#6 v=87
124976 On ch=1 n=c#6 v=0
124983 On ch=1 n=d4 v=0
124988 On ch=1 n=g6 v=0
125007 On ch=1 n=d5 v=65
125073 On ch=1 n=d5 v=0
125076 On ch=1 n=c#5 v=66
125108 On ch=1 n=c#5 v=0
125116 On ch=1 n=d5 v=63
125180 On ch=1 n=d5 v=0
125181 On ch=1 n=c#5 v=83
125222 On ch=1 n=c#5 v=0
125229 On ch=1 n=d5 v=69
125280 On ch=1 n=d5 v=0
125300 On ch=1 n=f#6 v=87
125300 On ch=1 n=d4 v=79
125302 On ch=1 n=d6 v=76
125324 On ch=1 n=d4 v=0
125325 On ch=1 n=d6 v=0
125335 On ch=1 n=f#6 v=0
125344 On ch=1 n=d5 v=59
125399 On ch=1 n=d5 v=0
125414 On ch=1 n=c#5 v=60
125442 On ch=1 n=c#5 v=0
125457 On ch=1 n=d5 v=63
125519 On ch=1 n=d5 v=0
125521 On ch=1 n=c#5 v=77
125557 On ch=1 n=c#5 v=0
125564 On ch=1 n=d5 v=66
125616 On ch=1 n=d5 v=0
125636 On ch=1 n=d4 v=79
125640 On ch=1 n=g6 v=74
125641 On ch=1 n=b5 v=76
125661 On ch=1 n=d4 v=0
125671 On ch=1 n=b5 v=0
125676 On ch=1 n=g6 v=0
125687 On ch=1 n=d5 v=69
125746 On ch=1 n=d5 v=0
125761 On ch=1 n=c#5 v=55
125788 On ch=1 n=c#5 v=0
125798 On ch=1 n=d5 v=53
125861 On ch=1 n=d5 v=0
125861 On ch=1 n=c#5 v=72
125904 On ch=1 n=c#5 v=0
125914 On ch=1 n=d5 v=64
125958 On ch=1 n=d5 v=0
125975 On ch=1 n=f#6 v=83
125980 On ch=1 n=d4 v=70
125981 On ch=1 n=a5 v=62
126002 On ch=1 n=d4 v=0
126014 On ch=1 n=a5 v=0
126017 On ch=1 n=f#6 v=0
126028 On ch=1 n=d5 v=65
126083 On ch=1 n=d5 v=0
126101 On ch=1 n=c#5 v=46
126126 On ch=1 n=c#5 v=0
126138 On ch=1 n=d5 v=52
126198 On ch=1 n=d5 v=0
126198 On ch=1 n=c#5 v=71
126234 On ch=1 n=c#5 v=0
126245 On ch=1 n=d5 v=56
126291 On ch=1 n=d5 v=0
126312 On ch=1 n=c#6 v=79
126313 On ch=1 n=g5 v=60
126317 On ch=1 n=d4 v=63
126337 On ch=1 n=d4 v=0
126341 On ch=1 n=g5 v=0
126350 On ch=1 n=c#6 v=0
126358 On ch=1 n=d5 v=55
126418 On ch=1 n=d5 v=0
126436 On ch=1 n=c#5 v=46
126461 On ch=1 n=c#5 v=0
126476 On ch=1 n=d5 v=49
126531 On ch=1 n=d5 v=0
126534 On ch=1 n=c#5 v=70
126565 On ch=1 n=c#5 v=0
126582 On ch=1 n=d5 v=59
126634 On ch=1 n=d5 v=0
126656 On ch=1 n=f#5 v=73
126657 On ch=1 n=d4 v=79
126657 On ch=1 n=d6 v=68
126679 On ch=1 n=d4 v=0
126687 On ch=1 n=f#5 v=0
126693 On ch=1 n=d6 v=0
127027 On ch=1 n=f#6 v=66
127033 On ch=1 n=d5 v=59
127038 On ch=1 n=a5 v=39
127066 On ch=1 n=a5 v=0
127069 On ch=1 n=f#6 v=0
127069 On ch=1 n=d5 v=0
127420 Par ch=1 c=64 v=63
127434 Par ch=1 c=64 v=127
127446 On ch=1 n=d6 v=49
127448 On ch=1 n=f#5 v=27
127449 On ch=1 n=d4 v=43
127497 On ch=1 n=d4 v=0
127637 On ch=1 n=f#5 v=0
127955 On ch=1 n=d6 v=0
128072 Par ch=1 c=64 v=63
128105 Par ch=1 c=64 v=0
128494 Par ch=1 c=67 v=127
128838 Par ch=1 c=67 v=0
128838 Meta TrkEnd
TrkEnd
MTrk
0 TimeSig 2/4 24 8
0 Meta TrkName "                                    "
0 Meta TrkEnd
TrkEnd
MTrk
0 TimeSig 2/4 24 8
0 Meta TrkName "                                    "
0 Meta TrkEnd
TrkEnd
MTrk
0 TimeSig 2/4 24 8
0 Meta TrkName "                                    "
0 Meta TrkEnd
TrkEnd
MTrk
0 TimeSig 2/4 24 8
0 Meta TrkName "                                    "
0 Meta TrkEnd
TrkEnd
MTrk
0 TimeSig 2/4 24 8
0 Meta TrkName "                                    "
0 Meta TrkEnd
TrkEnd
MTrk
0 TimeSig 2/4 24 8
0 Meta TrkName "                                    "
0 Meta TrkEnd
TrkEnd
MTrk
0 TimeSig 2/4 24 8
0 Meta TrkName "                                    "
0 Meta TrkEnd
TrkEnd
MTrk
0 TimeSig 2/4 24 8
0 Meta TrkName "                                    "
0 Meta TrkEnd
TrkEnd
MTrk
0 TimeSig 2/4 24 8
0 Meta TrkName "                                    "
0 Meta TrkEnd
TrkEnd
MTrk
0 TimeSig 2/4 24 8
0 Meta TrkName "                                    "
0 Meta TrkEnd
TrkEnd
MTrk
0 TimeSig 2/4 24 8
0 Meta TrkName "                                    "
0 Meta TrkEnd
TrkEnd
MTrk
0 TimeSig 2/4 24 8
0 Meta TrkName "                                    "
0 Meta TrkEnd
TrkEnd
MTrk
0 TimeSig 2/4 24 8
0 Meta TrkName "                                    "
0 Meta TrkEnd
TrkEnd
MTrk
0 TimeSig 2/4 24 8
0 Meta TrkName "                                    "
0 Meta TrkEnd
TrkEnd
MTrk
0 TimeSig 2/4 24 8
0 Meta TrkName "                                    "
0 Meta TrkEnd
TrkEnd
MTrk
0 TimeSig 2/4 24 8
0 Meta TrkName "                                    "
0 Meta TrkEnd
TrkEnd
MTrk
0 TimeSig 2/4 24 8
0 Meta TrkName "                                    "
0 Meta TrkEnd
TrkEnd
