MFile 1 18 240
MTrk
0 Tempo 500000
0 TimeSig 3/4 24 8
0 Meta Text "Mozart  Sonate D dur K.V.576 (2nd.mov.)  Play by Katsuhiro Oguri"
0 Meta TrkEnd
TrkEnd
MTrk
0 TimeSig 3/4 24 8
0 Meta TrkName "PIANO                               "
0 SysEx f0 41 10 42 12 40 00 7f 00 41 f7
0 SysEx f0 41 10 42 12 40 00 04 64 58 f7
170 SysEx f0 41 10 42 12 40 01 30 03 0c f7
170 SysEx f0 41 10 42 12 40 01 33 50 3c f7
170 SysEx f0 41 10 42 12 40 01 34 3c 4f f7
372 Par ch=1 c=0 v=0
374 Par ch=1 c=32 v=1
376 PrCh ch=1 p=0
378 Par ch=1 c=7 v=100
474 Par ch=1 c=11 v=100
570 Par ch=1 c=10 v=64
666 Par ch=1 c=1 v=0
666 Par ch=1 c=91 v=80
675 Par ch=1 c=99 v=1
677 Par ch=1 c=98 v=32
679 Par ch=1 c=6 v=62
681 Par ch=1 c=99 v=1
683 Par ch=1 c=98 v=33
685 Par ch=1 c=6 v=54
687 Par ch=1 c=99 v=1
689 Par ch=1 c=98 v=99
691 Par ch=1 c=6 v=62
693 Par ch=1 c=99 v=1
695 Par ch=1 c=98 v=100
697 Par ch=1 c=6 v=60
699 Par ch=1 c=99 v=1
701 Par ch=1 c=98 v=102
703 Par ch=1 c=6 v=70
1198 On ch=1 n=c#6 v=72
1208 On ch=1 n=e5 v=34
1212 On ch=1 n=a4 v=29
1217 Par ch=1 c=64 v=63
1251 Par ch=1 c=64 v=127
1660 On ch=1 n=c#6 v=0
1839 On ch=1 n=d6 v=59
1886 On ch=1 n=c#6 v=70
1893 On ch=1 n=d6 v=0
1927 On ch=1 n=c#6 v=0
1927 On ch=1 n=b5 v=68
1971 On ch=1 n=c#6 v=70
1986 On ch=1 n=b5 v=0
2007 On ch=1 n=a4 v=0
2018 On ch=1 n=e6 v=71
2028 On ch=1 n=b4 v=42
2031 On ch=1 n=c#6 v=0
2046 Par ch=1 c=64 v=63
2064 Par ch=1 c=64 v=0
2166 Par ch=1 c=64 v=63
2177 Par ch=1 c=64 v=127
2337 On ch=1 n=d6 v=59
2355 On ch=1 n=e6 v=0
2648 On ch=1 n=d6 v=0
2653 On ch=1 n=b5 v=59
2663 On ch=1 n=d5 v=41
2708 Par ch=1 c=64 v=63
2718 On ch=1 n=b4 v=0
2741 Par ch=1 c=64 v=0
2774 Par ch=1 c=64 v=63
2804 Par ch=1 c=64 v=127
2986 On ch=1 n=g#5 v=55
2998 On ch=1 n=b5 v=0
3259 On ch=1 n=g#5 v=0
3330 On ch=1 n=a5 v=63
3339 On ch=1 n=c#5 v=49
3353 On ch=1 n=d5 v=0
3447 Par ch=1 c=64 v=63
3531 Par ch=1 c=64 v=127
3663 On ch=1 n=a5 v=0
3877 On ch=1 n=e5 v=0
3905 On ch=1 n=c#5 v=0
3910 On ch=1 n=c#6 v=59
3978 On ch=1 n=a5 v=57
3985 On ch=1 n=c#6 v=0
4034 Par ch=1 c=64 v=63
4077 Par ch=1 c=64 v=0
4089 On ch=1 n=e6 v=69
4095 On ch=1 n=a5 v=0
4402 Par ch=1 c=64 v=63
4414 Par ch=1 c=64 v=127
4442 On ch=1 n=g#5 v=49
4445 On ch=1 n=d6 v=46
4517 On ch=1 n=g#5 v=0
4527 On ch=1 n=d6 v=0
4764 On ch=1 n=d6 v=50
4766 On ch=1 n=g#5 v=59
4804 Par ch=1 c=64 v=63
4838 Par ch=1 c=64 v=127
4969 On ch=1 n=g#5 v=0
4979 On ch=1 n=d6 v=0
5109 On ch=1 n=g#5 v=42
5113 On ch=1 n=d6 v=42
5180 On ch=1 n=g#5 v=0
5192 On ch=1 n=d6 v=0
5466 On ch=1 n=c#6 v=51
5474 On ch=1 n=a5 v=32
5551 Par ch=1 c=64 v=63
5641 Par ch=1 c=64 v=127
5686 On ch=1 n=e6 v=0
5695 On ch=1 n=a6 v=44
5873 On ch=1 n=g#6 v=67
5897 On ch=1 n=a6 v=0
5900 On ch=1 n=c#6 v=0
5927 On ch=1 n=a5 v=0
6033 On ch=1 n=g6 v=79
6072 On ch=1 n=g#6 v=0
6190 On ch=1 n=f6 v=74
6191 On ch=1 n=d6 v=45
6198 On ch=1 n=d5 v=49
6218 On ch=1 n=g6 v=0
6244 Par ch=1 c=64 v=63
6317 Par ch=1 c=64 v=127
6341 On ch=1 n=f#6 v=84
6342 On ch=1 n=f6 v=0
6350 On ch=1 n=d6 v=0
6485 On ch=1 n=e6 v=71
6512 On ch=1 n=f#6 v=0
6640 On ch=1 n=d6 v=69
6643 On ch=1 n=e6 v=0
6666 On ch=1 n=d5 v=0
6735 Par ch=1 c=64 v=63
6767 Par ch=1 c=64 v=0
6787 On ch=1 n=c#6 v=66
6794 On ch=1 n=d6 v=0
6934 On ch=1 n=b5 v=60
6952 On ch=1 n=c#6 v=0
7086 On ch=1 n=d6 v=66
7120 On ch=1 n=b5 v=0
7245 On ch=1 n=f#6 v=62
7287 On ch=1 n=d6 v=0
7451 On ch=1 n=a5 v=52
7456 On ch=1 n=c#5 v=48
7472 On ch=1 n=f#6 v=0
7480 On ch=1 n=e4 v=38
7682 Par ch=1 c=64 v=63
7730 Par ch=1 c=64 v=127
7902 On ch=1 n=c#5 v=0
7990 On ch=1 n=a5 v=0
8017 On ch=1 n=b5 v=55
8075 On ch=1 n=a5 v=56
8081 On ch=1 n=b5 v=0
8162 On ch=1 n=g#5 v=51
8165 On ch=1 n=a5 v=0
8188 On ch=1 n=b4 v=35
8198 Par ch=1 c=64 v=63
8222 Par ch=1 c=64 v=0
8285 On ch=1 n=g#5 v=0
8318 Par ch=1 c=64 v=63
8339 Par ch=1 c=64 v=127
8389 On ch=1 n=e5 v=45
8541 On ch=1 n=f#5 v=65
8553 On ch=1 n=e5 v=0
8632 On ch=1 n=e4 v=0
8666 On ch=1 n=b4 v=0
8689 On ch=1 n=g#5 v=72
8710 On ch=1 n=f#5 v=0
8796 Par ch=1 c=64 v=63
8818 Par ch=1 c=64 v=0
8839 On ch=1 n=a5 v=75
8871 On ch=1 n=g#5 v=0
8985 On ch=1 n=a#5 v=88
9022 On ch=1 n=a5 v=0
9138 On ch=1 n=b5 v=85
9168 On ch=1 n=a#5 v=0
9293 On ch=1 n=c6 v=93
9324 On ch=1 n=b5 v=0
9502 On ch=1 n=c#6 v=99
9503 On ch=1 n=a5 v=76
9509 On ch=1 n=a4 v=58
9529 On ch=1 n=c6 v=0
9714 Par ch=1 c=64 v=63
9721 Par ch=1 c=64 v=127
9878 On ch=1 n=c#6 v=0
9971 On ch=1 n=a5 v=0
10077 On ch=1 n=a4 v=0
10123 On ch=1 n=d6 v=76
10166 On ch=1 n=c#6 v=87
10182 On ch=1 n=d6 v=0
10207 On ch=1 n=b5 v=77
10213 On ch=1 n=c#6 v=0
10245 On ch=1 n=c#6 v=86
10268 On ch=1 n=b5 v=0
10301 On ch=1 n=e6 v=72
10304 On ch=1 n=g#5 v=59
10315 On ch=1 n=b4 v=51
10322 On ch=1 n=c#6 v=0
10333 Par ch=1 c=64 v=63
10354 Par ch=1 c=64 v=0
10626 On ch=1 n=d6 v=74
10664 On ch=1 n=e6 v=0
10682 Par ch=1 c=64 v=63
10692 Par ch=1 c=64 v=127
10773 On ch=1 n=g#5 v=0
10835 On ch=1 n=b4 v=0
10960 On ch=1 n=d6 v=0
10960 On ch=1 n=b5 v=67
10974 On ch=1 n=e5 v=45
10981 On ch=1 n=d5 v=44
11004 Par ch=1 c=64 v=63
11036 Par ch=1 c=64 v=0
11313 On ch=1 n=g#5 v=65
11314 Par ch=1 c=64 v=63
11330 Par ch=1 c=64 v=127
11335 On ch=1 n=b5 v=0
11552 On ch=1 n=e5 v=0
11584 On ch=1 n=g#5 v=0
11667 On ch=1 n=d5 v=0
11686 On ch=1 n=a5 v=57
11693 On ch=1 n=e5 v=17
11696 On ch=1 n=c#5 v=31
11763 Par ch=1 c=64 v=63
11787 Par ch=1 c=64 v=0
11906 Par ch=1 c=64 v=63
11918 Par ch=1 c=64 v=127
12161 On ch=1 n=e5 v=0
12167 On ch=1 n=c#5 v=0
12234 On ch=1 n=a5 v=0
12254 On ch=1 n=c#6 v=70
12323 On ch=1 n=a5 v=55
12325 On ch=1 n=c#6 v=0
12363 Par ch=1 c=64 v=63
12405 Par ch=1 c=64 v=0
12419 On ch=1 n=f6 v=82
12449 On ch=1 n=a5 v=0
12751 On ch=1 n=b5 v=76
12766 On ch=1 n=d5 v=59
12820 Par ch=1 c=64 v=63
12835 Par ch=1 c=64 v=127
12959 On ch=1 n=b5 v=0
13095 On ch=1 n=c6 v=69
13097 On ch=1 n=d#5 v=69
13122 On ch=1 n=d5 v=0
13144 Par ch=1 c=64 v=63
13176 Par ch=1 c=64 v=0
13188 Par ch=1 c=64 v=63
13209 Par ch=1 c=64 v=127
13300 On ch=1 n=f#6 v=81
13332 On ch=1 n=f6 v=0
13344 On ch=1 n=d#5 v=0
13362 On ch=1 n=c6 v=0
13464 On ch=1 n=g#6 v=100
13474 On ch=1 n=d#5 v=70
13475 On ch=1 n=c6 v=67
13499 On ch=1 n=f#6 v=0
13596 On ch=1 n=d#5 v=0
13606 On ch=1 n=g#6 v=0
13628 On ch=1 n=a6 v=101
13629 On ch=1 n=c6 v=0
13808 On ch=1 n=a6 v=0
13828 On ch=1 n=c#6 v=79
13833 On ch=1 n=a6 v=100
13843 On ch=1 n=e5 v=61
13921 Par ch=1 c=64 v=63
13950 Par ch=1 c=64 v=0
14119 Par ch=1 c=64 v=63
14127 Par ch=1 c=64 v=127
14333 On ch=1 n=b6 v=60
14343 On ch=1 n=a6 v=0
14397 On ch=1 n=c#7 v=76
14418 On ch=1 n=b6 v=0
14468 On ch=1 n=a6 v=68
14475 On ch=1 n=c#6 v=0
14493 On ch=1 n=c#7 v=0
14553 On ch=1 n=e6 v=84
14564 On ch=1 n=a6 v=0
14611 Par ch=1 c=64 v=63
14628 Par ch=1 c=64 v=0
14707 On ch=1 n=a6 v=76
14723 On ch=1 n=e6 v=0
14861 On ch=1 n=e5 v=0
14863 On ch=1 n=a6 v=0
14865 Par ch=1 c=64 v=63
14875 Par ch=1 c=64 v=127
14875 On ch=1 n=c#6 v=74
15023 On ch=1 n=c#6 v=0
15028 On ch=1 n=f#6 v=67
15056 Par ch=1 c=64 v=63
15078 Par ch=1 c=64 v=0
15192 On ch=1 n=e6 v=67
15225 On ch=1 n=f#6 v=0
15369 On ch=1 n=d#6 v=61
15401 On ch=1 n=e6 v=0
15533 On ch=1 n=d5 v=46
15544 Par ch=1 c=64 v=63
15545 On ch=1 n=d6 v=63
15545 On ch=1 n=e4 v=51
15550 Par ch=1 c=64 v=127
15551 On ch=1 n=d#6 v=0
15695 On ch=1 n=d6 v=0
15707 On ch=1 n=e4 v=0
15716 On ch=1 n=b5 v=66
15732 On ch=1 n=d5 v=0
15785 On ch=1 n=b5 v=0
15911 On ch=1 n=b5 v=75
15916 On ch=1 n=d5 v=48
15924 On ch=1 n=a4 v=47
15991 Par ch=1 c=64 v=63
16023 Par ch=1 c=64 v=0
16551 Par ch=1 c=64 v=63
16561 Par ch=1 c=64 v=127
16750 On ch=1 n=a5 v=54
16752 On ch=1 n=c#5 v=39
16775 On ch=1 n=b5 v=0
16780 On ch=1 n=d5 v=0
16836 Par ch=1 c=64 v=63
16888 Par ch=1 c=64 v=127
16944 On ch=1 n=c#5 v=0
16968 On ch=1 n=a4 v=0
17168 On ch=1 n=e4 v=41
17214 Par ch=1 c=64 v=63
17242 Par ch=1 c=64 v=0
17406 On ch=1 n=a5 v=0
17524 On ch=1 n=c#4 v=50
17592 On ch=1 n=e4 v=0
17878 On ch=1 n=a3 v=52
17921 On ch=1 n=c#4 v=0
18303 On ch=1 n=d6 v=64
18322 On ch=1 n=e4 v=51
18337 On ch=1 n=a3 v=0
18370 Par ch=1 c=64 v=63
18378 Par ch=1 c=64 v=127
18576 Par ch=1 c=64 v=63
18581 Par ch=1 c=64 v=0
18611 Par ch=1 c=64 v=63
18623 Par ch=1 c=64 v=127
18730 On ch=1 n=b4 v=41
18731 On ch=1 n=g#4 v=51
18794 On ch=1 n=g#4 v=0
18814 On ch=1 n=b4 v=0
18824 On ch=1 n=f#6 v=75
18859 On ch=1 n=d6 v=0
18904 On ch=1 n=e6 v=78
18911 On ch=1 n=f#6 v=0
18964 On ch=1 n=f#6 v=89
18976 On ch=1 n=e6 v=0
19034 On ch=1 n=f#6 v=0
19044 On ch=1 n=d6 v=72
19051 On ch=1 n=g#4 v=45
19054 On ch=1 n=b4 v=48
19057 Par ch=1 c=64 v=63
19095 Par ch=1 c=64 v=127
19102 On ch=1 n=d6 v=0
19114 On ch=1 n=e6 v=77
19163 On ch=1 n=b4 v=0
19188 On ch=1 n=c#6 v=74
19191 On ch=1 n=e6 v=0
19254 On ch=1 n=d6 v=81
19265 On ch=1 n=c#6 v=0
19316 On ch=1 n=g#4 v=0
19321 On ch=1 n=c#5 v=76
19322 On ch=1 n=a4 v=77
19323 On ch=1 n=d6 v=0
19332 Par ch=1 c=64 v=63
19333 On ch=1 n=b5 v=57
19343 Par ch=1 c=64 v=0
19366 Par ch=1 c=64 v=63
19398 Par ch=1 c=64 v=127
19402 On ch=1 n=c#6 v=76
19406 On ch=1 n=b5 v=0
19471 On ch=1 n=c#6 v=0
19475 On ch=1 n=a5 v=73
19505 On ch=1 n=a4 v=0
19526 On ch=1 n=b5 v=73
19531 On ch=1 n=c#5 v=0
19532 On ch=1 n=a5 v=0
19614 On ch=1 n=g#5 v=75
19619 On ch=1 n=b4 v=59
19622 On ch=1 n=d5 v=64
19626 On ch=1 n=b5 v=0
19656 Par ch=1 c=64 v=63
19670 Par ch=1 c=64 v=0
19767 Par ch=1 c=64 v=63
19775 Par ch=1 c=64 v=127
19819 On ch=1 n=b4 v=0
19836 On ch=1 n=d5 v=0
19862 On ch=1 n=g#5 v=0
19946 On ch=1 n=d5 v=54
19955 On ch=1 n=b4 v=46
20053 Par ch=1 c=64 v=63
20061 Par ch=1 c=64 v=0
20281 On ch=1 n=e4 v=0
20303 On ch=1 n=b4 v=0
20311 On ch=1 n=d5 v=0
20320 On ch=1 n=e6 v=84
20329 On ch=1 n=a4 v=23
20479 Par ch=1 c=64 v=63
20486 Par ch=1 c=64 v=127
20684 On ch=1 n=c#5 v=63
20701 On ch=1 n=e5 v=53
20709 On ch=1 n=e6 v=0
20761 On ch=1 n=c#5 v=0
20775 On ch=1 n=d#6 v=72
20783 On ch=1 n=e5 v=0
20848 On ch=1 n=f#6 v=88
20865 On ch=1 n=d#6 v=0
20904 On ch=1 n=f#6 v=0
20915 On ch=1 n=e6 v=84
20985 On ch=1 n=e6 v=0
20987 On ch=1 n=a6 v=94
20993 On ch=1 n=c#5 v=65
20994 On ch=1 n=e5 v=48
21057 On ch=1 n=g#6 v=94
21067 On ch=1 n=a6 v=0
21071 Par ch=1 c=64 v=63
21104 Par ch=1 c=64 v=127
21118 On ch=1 n=b6 v=90
21128 On ch=1 n=g#6 v=0
21165 On ch=1 n=c#5 v=0
21170 On ch=1 n=b6 v=0
21171 On ch=1 n=e5 v=0
21174 On ch=1 n=a6 v=96
21260 On ch=1 n=c#7 v=97
21267 On ch=1 n=d5 v=59
21268 On ch=1 n=b4 v=65
21272 On ch=1 n=a6 v=0
21332 Par ch=1 c=64 v=63
21334 On ch=1 n=b6 v=86
21345 On ch=1 n=c#7 v=0
21385 Par ch=1 c=64 v=127
21397 On ch=1 n=d7 v=96
21416 On ch=1 n=b6 v=0
21433 On ch=1 n=d5 v=0
21450 On ch=1 n=a4 v=0
21456 On ch=1 n=c#7 v=101
21491 On ch=1 n=d7 v=0
21565 On ch=1 n=e7 v=94
21575 On ch=1 n=c#5 v=54
21578 On ch=1 n=a4 v=44
21588 On ch=1 n=c#7 v=0
21594 On ch=1 n=b4 v=0
21646 Par ch=1 c=64 v=63
21665 Par ch=1 c=64 v=0
21744 Par ch=1 c=64 v=63
21753 Par ch=1 c=64 v=127
21864 On ch=1 n=c#5 v=0
21893 On ch=1 n=a4 v=0
21915 On ch=1 n=e7 v=0
21920 On ch=1 n=b4 v=60
21921 On ch=1 n=g#4 v=55
21977 Par ch=1 c=64 v=63
21995 Par ch=1 c=64 v=0
22334 On ch=1 n=a6 v=85
22334 On ch=1 n=f#4 v=54
22349 On ch=1 n=g#4 v=0
22394 Par ch=1 c=64 v=63
22397 Par ch=1 c=64 v=127
22404 On ch=1 n=b4 v=0
22698 On ch=1 n=c#5 v=52
22705 On ch=1 n=a4 v=52
22780 On ch=1 n=a6 v=0
22794 On ch=1 n=a4 v=0
22796 On ch=1 n=c#7 v=78
22800 On ch=1 n=c#5 v=0
22871 On ch=1 n=b6 v=75
22875 On ch=1 n=c#7 v=0
22930 On ch=1 n=c#7 v=89
22941 On ch=1 n=b6 v=0
22993 On ch=1 n=c#7 v=0
23002 On ch=1 n=a6 v=73
23014 On ch=1 n=c#5 v=47
23021 On ch=1 n=a4 v=41
23054 On ch=1 n=a6 v=0
23066 On ch=1 n=b6 v=78
23097 On ch=1 n=c#5 v=0
23107 On ch=1 n=a4 v=0
23138 On ch=1 n=b6 v=0
23144 On ch=1 n=g#6 v=85
23205 On ch=1 n=a6 v=78
23206 On ch=1 n=g#6 v=0
23275 On ch=1 n=a6 v=0
23281 On ch=1 n=f#6 v=92
23284 On ch=1 n=c#5 v=52
23292 On ch=1 n=a4 v=45
23319 Par ch=1 c=64 v=63
23324 Par ch=1 c=64 v=0
23354 On ch=1 n=g#6 v=92
23359 Par ch=1 c=64 v=63
23361 On ch=1 n=f#6 v=0
23373 Par ch=1 c=64 v=127
23417 On ch=1 n=g#6 v=0
23425 On ch=1 n=e6 v=68
23475 On ch=1 n=c#5 v=0
23482 On ch=1 n=a4 v=0
23485 On ch=1 n=f#6 v=90
23490 On ch=1 n=e6 v=0
23572 On ch=1 n=a4 v=42
23573 On ch=1 n=b4 v=55
23577 On ch=1 n=d#6 v=85
23581 On ch=1 n=f#6 v=0
23606 Par ch=1 c=64 v=63
23638 Par ch=1 c=64 v=127
23642 On ch=1 n=d#6 v=0
23644 On ch=1 n=e6 v=83
23713 On ch=1 n=a4 v=0
23724 On ch=1 n=f#6 v=95
23730 On ch=1 n=b4 v=0
23734 On ch=1 n=e6 v=0
23784 On ch=1 n=g#6 v=99
23806 On ch=1 n=f#6 v=0
23869 On ch=1 n=b6 v=94
23872 On ch=1 n=a4 v=44
23872 On ch=1 n=b4 v=59
23886 On ch=1 n=g#6 v=0
23889 Par ch=1 c=64 v=63
23912 Par ch=1 c=64 v=127
23949 On ch=1 n=a6 v=93
23964 On ch=1 n=b6 v=0
24026 On ch=1 n=f#6 v=97
24029 On ch=1 n=a6 v=0
24036 On ch=1 n=a4 v=0
24046 On ch=1 n=b4 v=0
24055 On ch=1 n=f#4 v=0
24090 On ch=1 n=f#6 v=0
24096 On ch=1 n=d#6 v=93
24207 On ch=1 n=b4 v=51
24208 On ch=1 n=f#6 v=99
24209 On ch=1 n=e4 v=52
24210 On ch=1 n=a4 v=58
24224 On ch=1 n=d#6 v=0
24264 Par ch=1 c=64 v=63
24287 Par ch=1 c=64 v=0
24916 On ch=1 n=g#4 v=45
24983 On ch=1 n=a4 v=0
25020 Par ch=1 c=64 v=63
25064 Par ch=1 c=64 v=127
25106 On ch=1 n=d#6 v=55
25109 On ch=1 n=f#6 v=0
25258 On ch=1 n=e6 v=79
25262 On ch=1 n=d#6 v=0
25407 On ch=1 n=f6 v=96
25440 On ch=1 n=e6 v=0
25541 On ch=1 n=e4 v=0
25578 On ch=1 n=g#6 v=85
25588 On ch=1 n=b4 v=0
25602 On ch=1 n=g#4 v=0
25616 On ch=1 n=f6 v=0
25679 Par ch=1 c=64 v=63
25732 On ch=1 n=f#6 v=92
25739 Par ch=1 c=64 v=0
25792 On ch=1 n=g#6 v=0
25900 On ch=1 n=e6 v=88
25936 On ch=1 n=f#6 v=0
26067 On ch=1 n=d6 v=82
26111 On ch=1 n=e6 v=0
26284 On ch=1 n=c#6 v=98
26299 On ch=1 n=g5 v=68
26303 On ch=1 n=a#4 v=67
26311 On ch=1 n=d6 v=0
26474 Par ch=1 c=64 v=63
26529 Par ch=1 c=64 v=127
26613 On ch=1 n=c#6 v=0
26930 On ch=1 n=d6 v=77
26955 On ch=1 n=a#4 v=0
26976 On ch=1 n=c#6 v=83
26984 On ch=1 n=d6 v=0
26991 On ch=1 n=g5 v=0
27017 On ch=1 n=c#6 v=0
27018 On ch=1 n=b5 v=80
27057 On ch=1 n=c#6 v=80
27083 On ch=1 n=b5 v=0
27115 On ch=1 n=e6 v=75
27130 On ch=1 n=b4 v=29
27137 On ch=1 n=f#5 v=50
27147 On ch=1 n=c#6 v=0
27148 Par ch=1 c=64 v=63
27215 Par ch=1 c=64 v=0
27436 Par ch=1 c=64 v=63
27445 Par ch=1 c=64 v=127
27455 On ch=1 n=d6 v=63
27497 On ch=1 n=e6 v=0
27576 On ch=1 n=b4 v=0
27584 On ch=1 n=f#5 v=0
27649 On ch=1 n=d6 v=0
27778 On ch=1 n=b5 v=67
27789 On ch=1 n=f5 v=36
27791 On ch=1 n=d5 v=54
27857 Par ch=1 c=64 v=63
27879 Par ch=1 c=64 v=0
27957 Par ch=1 c=64 v=63
27995 Par ch=1 c=64 v=127
28117 On ch=1 n=g#5 v=70
28128 On ch=1 n=b5 v=0
28266 On ch=1 n=d5 v=0
28305 On ch=1 n=f5 v=0
28387 On ch=1 n=g#5 v=0
28492 On ch=1 n=a5 v=54
28497 On ch=1 n=c#5 v=52
28505 On ch=1 n=e5 v=34
28603 Par ch=1 c=64 v=63
28639 Par ch=1 c=64 v=0
28776 Par ch=1 c=64 v=63
28786 Par ch=1 c=64 v=127
29044 On ch=1 n=a5 v=0
29050 On ch=1 n=c#6 v=63
29122 On ch=1 n=a5 v=70
29152 On ch=1 n=c#6 v=0
29153 Par ch=1 c=64 v=63
29170 On ch=1 n=e5 v=0
29176 On ch=1 n=c#5 v=0
29213 Par ch=1 c=64 v=0
29223 On ch=1 n=g6 v=87
29269 On ch=1 n=a5 v=0
29540 On ch=1 n=a#5 v=80
29545 On ch=1 n=c#5 v=75
29570 Par ch=1 c=64 v=63
29580 Par ch=1 c=64 v=127
29780 On ch=1 n=a#5 v=0
29809 On ch=1 n=c#5 v=0
29878 On ch=1 n=b5 v=92
29881 On ch=1 n=d5 v=91
29928 Par ch=1 c=64 v=63
29991 Par ch=1 c=64 v=127
30087 On ch=1 n=b5 v=0
30124 On ch=1 n=d5 v=0
30231 On ch=1 n=c#6 v=100
30233 On ch=1 n=e5 v=85
30273 Par ch=1 c=64 v=63
30315 Par ch=1 c=64 v=127
30387 On ch=1 n=g6 v=0
30428 On ch=1 n=e5 v=0
30435 On ch=1 n=c#6 v=0
30635 On ch=1 n=f6 v=88
30639 On ch=1 n=d6 v=68
30642 On ch=1 n=d5 v=56
30661 Par ch=1 c=64 v=63
30708 On ch=1 n=f#6 v=89
30708 Par ch=1 c=64 v=127
30715 On ch=1 n=f6 v=0
30777 On ch=1 n=f#6 v=0
30778 On ch=1 n=g#6 v=80
30785 On ch=1 n=d6 v=0
30814 On ch=1 n=d5 v=0
30835 On ch=1 n=f#6 v=84
30856 On ch=1 n=g#6 v=0
30910 Par ch=1 c=64 v=63
30916 On ch=1 n=e6 v=82
30922 On ch=1 n=f#6 v=0
30940 Par ch=1 c=64 v=0
30977 On ch=1 n=e6 v=0
30980 On ch=1 n=d6 v=71
31055 On ch=1 n=d6 v=0
31059 On ch=1 n=c#6 v=84
31127 On ch=1 n=c#6 v=0
31131 On ch=1 n=b5 v=80
31221 On ch=1 n=b5 v=0
31241 On ch=1 n=a5 v=72
31244 On ch=1 n=c#5 v=48
31271 On ch=1 n=a5 v=0
31272 On ch=1 n=e4 v=40
31411 On ch=1 n=c#6 v=80
31443 On ch=1 n=c#6 v=0
31625 On ch=1 n=e6 v=60
31639 Par ch=1 c=64 v=63
31646 Par ch=1 c=64 v=127
31695 On ch=1 n=e4 v=0
31709 On ch=1 n=c#5 v=0
31958 On ch=1 n=d5 v=38
31968 On ch=1 n=e4 v=26
32046 On ch=1 n=e6 v=0
32126 On ch=1 n=e5 v=69
32221 Par ch=1 c=64 v=63
32248 Par ch=1 c=64 v=0
32288 On ch=1 n=f#5 v=82
32326 On ch=1 n=e5 v=0
32333 Par ch=1 c=64 v=63
32362 Par ch=1 c=64 v=127
32437 On ch=1 n=g#5 v=91
32473 On ch=1 n=f#5 v=0
32548 On ch=1 n=d5 v=0
32628 On ch=1 n=b5 v=84
32636 On ch=1 n=e4 v=0
32638 On ch=1 n=d5 v=47
32647 On ch=1 n=a4 v=39
32678 On ch=1 n=g#5 v=0
32748 Par ch=1 c=64 v=63
32775 Par ch=1 c=64 v=0
32996 Par ch=1 c=64 v=63
33005 Par ch=1 c=64 v=127
33396 On ch=1 n=a5 v=35
33408 On ch=1 n=b5 v=0
33412 On ch=1 n=c#5 v=29
33433 Par ch=1 c=64 v=63
33464 Par ch=1 c=64 v=0
33468 On ch=1 n=d5 v=0
33504 Par ch=1 c=64 v=63
33531 Par ch=1 c=64 v=127
33636 On ch=1 n=a5 v=0
33793 On ch=1 n=a#5 v=63
33814 On ch=1 n=c#5 v=0
33819 Par ch=1 c=64 v=63
33893 On ch=1 n=a4 v=0
33894 Par ch=1 c=64 v=127
33994 On ch=1 n=a#5 v=0
34151 On ch=1 n=b5 v=87
34165 Par ch=1 c=64 v=63
34199 Par ch=1 c=64 v=0
34239 Par ch=1 c=64 v=63
34263 Par ch=1 c=64 v=127
34499 On ch=1 n=b5 v=0
34566 On ch=1 n=c6 v=97
34586 Par ch=1 c=64 v=63
34616 Par ch=1 c=64 v=0
34651 Par ch=1 c=64 v=63
34672 Par ch=1 c=64 v=127
34806 On ch=1 n=c6 v=0
35109 On ch=1 n=f#4 v=82
35117 On ch=1 n=c#6 v=95
35156 Par ch=1 c=64 v=63
35178 Par ch=1 c=64 v=0
35213 Par ch=1 c=64 v=63
35225 Par ch=1 c=64 v=127
35300 On ch=1 n=f#4 v=0
35452 On ch=1 n=f#5 v=70
35461 On ch=1 n=a5 v=59
35520 On ch=1 n=f#5 v=0
35541 On ch=1 n=a5 v=0
35652 On ch=1 n=a5 v=51
35653 On ch=1 n=f#5 v=60
35708 On ch=1 n=a5 v=0
35710 On ch=1 n=f#5 v=0
35806 On ch=1 n=a5 v=59
35813 On ch=1 n=f#5 v=49
35885 On ch=1 n=a5 v=0
35885 On ch=1 n=f#5 v=0
35897 On ch=1 n=c#6 v=0
35946 On ch=1 n=a5 v=73
35953 On ch=1 n=f#5 v=72
36010 On ch=1 n=f#5 v=0
36022 On ch=1 n=a5 v=0
36093 On ch=1 n=a5 v=61
36095 On ch=1 n=f#6 v=98
36097 On ch=1 n=f#5 v=67
36153 On ch=1 n=f#5 v=0
36169 On ch=1 n=a5 v=0
36239 On ch=1 n=a5 v=59
36241 On ch=1 n=f#5 v=63
36244 On ch=1 n=a6 v=90
36282 On ch=1 n=f#6 v=0
36299 On ch=1 n=f#5 v=0
36306 On ch=1 n=a5 v=0
36368 On ch=1 n=f6 v=96
36371 On ch=1 n=f#5 v=78
36371 On ch=1 n=a5 v=69
36397 On ch=1 n=a6 v=0
36428 On ch=1 n=f#5 v=0
36430 On ch=1 n=a5 v=0
36512 On ch=1 n=a5 v=49
36512 On ch=1 n=f#5 v=58
36514 On ch=1 n=f#6 v=90
36521 On ch=1 n=f6 v=0
36560 On ch=1 n=f#5 v=0
36563 On ch=1 n=a5 v=0
36651 On ch=1 n=c6 v=86
36656 On ch=1 n=f#5 v=65
36656 On ch=1 n=a5 v=57
36662 On ch=1 n=f#6 v=0
36719 Par ch=1 c=64 v=63
36756 Par ch=1 c=64 v=127
36772 On ch=1 n=f#5 v=0
36783 On ch=1 n=a5 v=0
36808 On ch=1 n=f#5 v=67
36808 On ch=1 n=d6 v=83
36814 On ch=1 n=a5 v=46
36832 On ch=1 n=c6 v=0
36870 On ch=1 n=f#5 v=0
36876 On ch=1 n=a5 v=0
36964 On ch=1 n=f#5 v=71
36970 On ch=1 n=a5 v=48
36970 On ch=1 n=c#6 v=77
36981 On ch=1 n=d6 v=0
37011 On ch=1 n=a5 v=0
37012 On ch=1 n=f#5 v=0
37046 On ch=1 n=c#6 v=0
37166 On ch=1 n=f4 v=93
37172 On ch=1 n=c#6 v=87
37190 Par ch=1 c=64 v=63
37197 Par ch=1 c=64 v=0
37222 Par ch=1 c=64 v=63
37231 Par ch=1 c=64 v=127
37269 On ch=1 n=f4 v=0
37407 On ch=1 n=g#5 v=57
37412 On ch=1 n=f5 v=59
37452 On ch=1 n=c#6 v=0
37454 On ch=1 n=g#5 v=0
37462 On ch=1 n=f5 v=0
37558 On ch=1 n=g#5 v=53
37566 On ch=1 n=f5 v=60
37620 On ch=1 n=f5 v=0
37622 On ch=1 n=g#5 v=0
37694 On ch=1 n=g#5 v=70
37701 On ch=1 n=f5 v=71
37743 On ch=1 n=g#5 v=0
37746 On ch=1 n=f5 v=0
37829 On ch=1 n=g#5 v=75
37833 On ch=1 n=f5 v=82
37889 On ch=1 n=g#5 v=0
37894 On ch=1 n=f5 v=0
37973 On ch=1 n=g#6 v=98
37977 On ch=1 n=g#5 v=49
37981 On ch=1 n=f5 v=51
38029 On ch=1 n=g#5 v=0
38039 On ch=1 n=f5 v=0
38120 On ch=1 n=g#5 v=62
38125 On ch=1 n=f5 v=66
38128 On ch=1 n=b6 v=92
38168 On ch=1 n=g#6 v=0
38177 On ch=1 n=g#5 v=0
38183 On ch=1 n=f5 v=0
38256 On ch=1 n=f6 v=92
38261 On ch=1 n=g#5 v=68
38265 On ch=1 n=f5 v=71
38288 On ch=1 n=b6 v=0
38321 On ch=1 n=g#5 v=0
38328 On ch=1 n=f5 v=0
38384 On ch=1 n=g#6 v=98
38389 On ch=1 n=f6 v=0
38395 On ch=1 n=g#5 v=55
38401 On ch=1 n=f5 v=60
38450 On ch=1 n=g#5 v=0
38458 On ch=1 n=f5 v=0
38523 On ch=1 n=g#6 v=0
38525 On ch=1 n=c6 v=93
38532 On ch=1 n=g#5 v=65
38539 On ch=1 n=f5 v=62
38624 On ch=1 n=f5 v=0
38628 On ch=1 n=g#5 v=0
38668 On ch=1 n=d6 v=85
38671 On ch=1 n=g#5 v=61
38679 On ch=1 n=c6 v=0
38679 On ch=1 n=f5 v=73
38726 On ch=1 n=g#5 v=0
38734 On ch=1 n=f5 v=0
38801 On ch=1 n=g#5 v=60
38801 On ch=1 n=f5 v=57
38811 On ch=1 n=c#6 v=94
38813 On ch=1 n=d6 v=0
38833 On ch=1 n=f5 v=0
38842 On ch=1 n=g#5 v=0
38906 On ch=1 n=c#6 v=0
38961 On ch=1 n=c#6 v=82
38972 On ch=1 n=f#5 v=78
39046 Par ch=1 c=64 v=63
39069 Par ch=1 c=64 v=0
39161 On ch=1 n=a6 v=82
39251 Par ch=1 c=64 v=63
39259 Par ch=1 c=64 v=127
39310 On ch=1 n=e5 v=82
39322 On ch=1 n=a6 v=0
39341 On ch=1 n=f#5 v=0
39407 Par ch=1 c=64 v=63
39419 Par ch=1 c=64 v=0
39454 On ch=1 n=g#6 v=104
39465 Par ch=1 c=64 v=63
39473 Par ch=1 c=64 v=127
39594 On ch=1 n=d5 v=90
39608 On ch=1 n=g#6 v=0
39658 On ch=1 n=e5 v=0
39740 On ch=1 n=f6 v=98
39794 Par ch=1 c=64 v=63
39844 Par ch=1 c=64 v=0
39889 On ch=1 n=f#6 v=108
39929 On ch=1 n=f6 v=0
39939 Par ch=1 c=64 v=63
39951 Par ch=1 c=64 v=127
40028 On ch=1 n=g#6 v=107
40067 On ch=1 n=f#6 v=0
40168 On ch=1 n=c#6 v=0
40172 On ch=1 n=b6 v=92
40180 On ch=1 n=c6 v=60
40211 On ch=1 n=g#6 v=0
40287 Par ch=1 c=64 v=63
40305 Par ch=1 c=64 v=0
40365 On ch=1 n=a6 v=89
40414 On ch=1 n=b6 v=0
40491 Par ch=1 c=64 v=63
40496 Par ch=1 c=64 v=127
40508 On ch=1 n=g#6 v=88
40550 On ch=1 n=a6 v=0
40643 On ch=1 n=f#6 v=91
40652 On ch=1 n=c6 v=0
40667 On ch=1 n=g#6 v=0
40681 On ch=1 n=d5 v=0
40792 On ch=1 n=c#6 v=60
40798 On ch=1 n=c#5 v=58
40868 Par ch=1 c=64 v=63
40882 Par ch=1 c=64 v=0
40928 On ch=1 n=f6 v=71
40940 On ch=1 n=f#6 v=0
40949 Par ch=1 c=64 v=63
40957 Par ch=1 c=64 v=127
41090 On ch=1 n=g#6 v=71
41099 On ch=1 n=f6 v=0
41103 On ch=1 n=c#6 v=0
41249 On ch=1 n=c6 v=57
41254 On ch=1 n=g#6 v=0
41413 On ch=1 n=c#6 v=60
41456 On ch=1 n=c6 v=0
41495 Par ch=1 c=64 v=63
41557 Par ch=1 c=64 v=127
41561 On ch=1 n=f5 v=57
41577 On ch=1 n=c#5 v=0
41664 On ch=1 n=c#6 v=0
41703 On ch=1 n=g#5 v=61
41728 On ch=1 n=f5 v=0
41843 On ch=1 n=g#5 v=0
41843 On ch=1 n=c#5 v=66
41983 On ch=1 n=d5 v=71
41997 On ch=1 n=c#5 v=0
42103 Par ch=1 c=64 v=63
42136 On ch=1 n=g#4 v=66
42187 Par ch=1 c=64 v=0
42189 On ch=1 n=d5 v=0
42297 On ch=1 n=b4 v=60
42338 On ch=1 n=g#4 v=0
42483 On ch=1 n=f4 v=61
42519 On ch=1 n=b4 v=0
42702 On ch=1 n=f#4 v=79
42716 On ch=1 n=c#6 v=87
42718 On ch=1 n=f4 v=0
42736 Par ch=1 c=64 v=63
42744 Par ch=1 c=64 v=127
42872 On ch=1 n=f#4 v=0
42965 On ch=1 n=f#5 v=68
42966 On ch=1 n=a5 v=52
43029 On ch=1 n=f#5 v=0
43030 On ch=1 n=c#6 v=0
43036 On ch=1 n=a5 v=0
43153 On ch=1 n=f#5 v=61
43157 On ch=1 n=a5 v=43
43203 On ch=1 n=f#5 v=0
43207 On ch=1 n=a5 v=0
43300 On ch=1 n=a5 v=59
43301 On ch=1 n=f#5 v=66
43384 On ch=1 n=f#5 v=0
43389 On ch=1 n=a5 v=0
43438 On ch=1 n=a5 v=71
43442 On ch=1 n=f#5 v=70
43521 On ch=1 n=f#5 v=0
43526 On ch=1 n=a5 v=0
43563 On ch=1 n=a5 v=68
43564 On ch=1 n=f#5 v=72
43568 On ch=1 n=f#6 v=100
43654 On ch=1 n=f#5 v=0
43669 On ch=1 n=a5 v=0
43726 On ch=1 n=a5 v=61
43727 On ch=1 n=f#5 v=71
43741 On ch=1 n=a6 v=98
43763 Par ch=1 c=64 v=63
43772 Par ch=1 c=64 v=0
43782 On ch=1 n=f#6 v=0
43796 Par ch=1 c=64 v=63
43806 Par ch=1 c=64 v=127
43845 On ch=1 n=f#5 v=0
43852 On ch=1 n=a5 v=0
43877 On ch=1 n=f#5 v=80
43878 On ch=1 n=f6 v=99
43882 On ch=1 n=a5 v=73
43900 On ch=1 n=a6 v=0
43939 On ch=1 n=f#5 v=0
43941 On ch=1 n=a5 v=0
44007 On ch=1 n=a5 v=59
44008 On ch=1 n=f#6 v=98
44010 On ch=1 n=f#5 v=70
44027 On ch=1 n=f6 v=0
44080 On ch=1 n=f#5 v=0
44088 On ch=1 n=a5 v=0
44134 On ch=1 n=c6 v=94
44136 On ch=1 n=f#5 v=76
44139 On ch=1 n=a5 v=69
44154 On ch=1 n=f#6 v=0
44170 Par ch=1 c=64 v=63
44194 Par ch=1 c=64 v=127
44244 On ch=1 n=f#5 v=0
44256 On ch=1 n=a5 v=0
44274 On ch=1 n=d6 v=99
44278 On ch=1 n=f#5 v=77
44282 On ch=1 n=a5 v=72
44297 On ch=1 n=c6 v=0
44345 On ch=1 n=a5 v=0
44347 On ch=1 n=f#5 v=0
44411 On ch=1 n=f#5 v=84
44411 On ch=1 n=a5 v=76
44412 On ch=1 n=c#6 v=103
44421 On ch=1 n=d6 v=0
44445 On ch=1 n=f#5 v=0
44448 On ch=1 n=a5 v=0
44522 On ch=1 n=c#6 v=0
44569 Par ch=1 c=64 v=63
44574 On ch=1 n=e4 v=101
44579 Par ch=1 c=64 v=0
44582 On ch=1 n=c#6 v=103
44600 Par ch=1 c=64 v=63
44617 Par ch=1 c=64 v=127
44683 On ch=1 n=e4 v=0
44777 On ch=1 n=g5 v=63
44779 On ch=1 n=e5 v=65
44836 On ch=1 n=e5 v=0
44838 On ch=1 n=g5 v=0
44856 On ch=1 n=c#6 v=0
44906 On ch=1 n=g5 v=78
44912 On ch=1 n=e5 v=76
44973 On ch=1 n=g5 v=0
44976 On ch=1 n=e5 v=0
45037 On ch=1 n=g5 v=83
45042 On ch=1 n=e5 v=76
45103 On ch=1 n=g5 v=0
45111 On ch=1 n=e5 v=0
45175 On ch=1 n=g5 v=88
45180 On ch=1 n=e5 v=79
45236 On ch=1 n=g5 v=0
45247 On ch=1 n=e5 v=0
45303 On ch=1 n=g5 v=77
45307 On ch=1 n=g6 v=99
45308 On ch=1 n=e5 v=71
45368 On ch=1 n=g5 v=0
45377 On ch=1 n=e5 v=0
45454 On ch=1 n=b6 v=86
45455 On ch=1 n=g5 v=64
45460 On ch=1 n=e5 v=65
45513 On ch=1 n=g6 v=0
45525 On ch=1 n=g5 v=0
45532 On ch=1 n=e5 v=0
45604 On ch=1 n=b6 v=0
45604 On ch=1 n=e6 v=94
45609 On ch=1 n=g5 v=72
45614 On ch=1 n=e5 v=72
45666 On ch=1 n=g5 v=0
45671 On ch=1 n=e5 v=0
45725 On ch=1 n=g6 v=84
45730 On ch=1 n=g5 v=65
45736 On ch=1 n=e5 v=60
45744 On ch=1 n=e6 v=0
45786 On ch=1 n=g5 v=0
45795 On ch=1 n=e5 v=0
45864 On ch=1 n=b5 v=80
45868 On ch=1 n=g6 v=0
45869 On ch=1 n=g5 v=65
45881 On ch=1 n=e5 v=55
45954 Par ch=1 c=64 v=63
45959 On ch=1 n=e5 v=0
45969 On ch=1 n=g5 v=0
46004 On ch=1 n=d6 v=76
46008 Par ch=1 c=64 v=127
46010 On ch=1 n=g5 v=55
46015 On ch=1 n=b5 v=0
46022 On ch=1 n=e5 v=51
46066 On ch=1 n=g5 v=0
46070 On ch=1 n=e5 v=0
46139 On ch=1 n=c#6 v=78
46141 On ch=1 n=g5 v=52
46142 On ch=1 n=e5 v=50
46153 On ch=1 n=d6 v=0
46168 On ch=1 n=e5 v=0
46187 On ch=1 n=g5 v=0
46227 On ch=1 n=c#6 v=0
46281 On ch=1 n=a5 v=57
46296 On ch=1 n=f#5 v=62
46371 Par ch=1 c=64 v=63
46394 Par ch=1 c=64 v=0
46437 On ch=1 n=d6 v=59
46585 On ch=1 n=d6 v=0
46595 On ch=1 n=c6 v=76
46638 On ch=1 n=a5 v=0
46732 On ch=1 n=d#6 v=94
46766 Par ch=1 c=64 v=63
46773 Par ch=1 c=64 v=127
46834 On ch=1 n=f#5 v=0
46846 On ch=1 n=d#6 v=0
46868 On ch=1 n=g5 v=82
46872 On ch=1 n=b5 v=87
46876 On ch=1 n=c6 v=0
46917 Par ch=1 c=64 v=63
46925 Par ch=1 c=64 v=0
46999 Par ch=1 c=64 v=63
47006 On ch=1 n=e6 v=100
47006 Par ch=1 c=64 v=127
47133 On ch=1 n=e6 v=0
47154 On ch=1 n=d6 v=102
47162 On ch=1 n=g#5 v=88
47183 On ch=1 n=g5 v=0
47209 On ch=1 n=b5 v=0
47293 Par ch=1 c=64 v=63
47305 On ch=1 n=f6 v=106
47307 Par ch=1 c=64 v=0
47456 On ch=1 n=f6 v=0
47464 On ch=1 n=a5 v=93
47489 On ch=1 n=g#5 v=0
47575 Par ch=1 c=64 v=63
47578 Par ch=1 c=64 v=127
47622 On ch=1 n=f#6 v=105
47633 On ch=1 n=d6 v=0
47640 On ch=1 n=a5 v=0
47791 On ch=1 n=g5 v=68
47799 On ch=1 n=a6 v=84
47805 On ch=1 n=a4 v=41
47830 On ch=1 n=f#6 v=0
47841 Par ch=1 c=64 v=63
47851 Par ch=1 c=64 v=0
47882 Par ch=1 c=64 v=63
47894 Par ch=1 c=64 v=127
47944 On ch=1 n=a4 v=0
47960 On ch=1 n=a6 v=0
47962 On ch=1 n=c#6 v=71
48104 On ch=1 n=c#6 v=0
48144 On ch=1 n=d5 v=41
48146 On ch=1 n=f#5 v=45
48160 On ch=1 n=d6 v=61
48183 On ch=1 n=g5 v=0
48197 Par ch=1 c=64 v=63
48247 Par ch=1 c=64 v=127
48267 On ch=1 n=e6 v=65
48275 On ch=1 n=d6 v=0
48335 On ch=1 n=e6 v=0
48337 On ch=1 n=a5 v=41
48338 On ch=1 n=d6 v=63
48377 On ch=1 n=f#5 v=0
48396 On ch=1 n=a5 v=0
48402 On ch=1 n=c#6 v=83
48407 On ch=1 n=d6 v=0
48462 Par ch=1 c=64 v=63
48463 On ch=1 n=c#6 v=0
48472 On ch=1 n=d6 v=76
48474 On ch=1 n=a5 v=47
48490 Par ch=1 c=64 v=0
48521 Par ch=1 c=64 v=63
48532 On ch=1 n=e6 v=83
48539 On ch=1 n=d6 v=0
48546 On ch=1 n=a5 v=0
48547 Par ch=1 c=64 v=127
48602 On ch=1 n=a5 v=60
48602 On ch=1 n=f#6 v=95
48608 On ch=1 n=e6 v=0
48653 On ch=1 n=a5 v=0
48665 On ch=1 n=g6 v=93
48666 On ch=1 n=f#6 v=0
48735 On ch=1 n=f#5 v=73
48739 On ch=1 n=g6 v=0
48743 On ch=1 n=a6 v=93
48757 Par ch=1 c=64 v=63
48782 Par ch=1 c=64 v=0
48802 Par ch=1 c=64 v=63
48810 On ch=1 n=b6 v=88
48819 On ch=1 n=a6 v=0
48824 Par ch=1 c=64 v=127
48877 On ch=1 n=a6 v=97
48885 On ch=1 n=a5 v=67
48900 On ch=1 n=b6 v=0
48932 On ch=1 n=g#6 v=99
48935 On ch=1 n=f#5 v=0
48941 On ch=1 n=a5 v=0
48947 On ch=1 n=a6 v=0
48987 Par ch=1 c=64 v=63
48999 On ch=1 n=a6 v=96
49003 On ch=1 n=g#6 v=0
49006 Par ch=1 c=64 v=0
49008 On ch=1 n=a5 v=73
49057 On ch=1 n=a5 v=0
49057 Par ch=1 c=64 v=63
49069 Par ch=1 c=64 v=127
49071 On ch=1 n=b6 v=97
49081 On ch=1 n=a6 v=0
49127 On ch=1 n=a5 v=60
49129 On ch=1 n=c#7 v=104
49143 On ch=1 n=d5 v=0
49152 On ch=1 n=b6 v=0
49180 On ch=1 n=a5 v=0
49190 On ch=1 n=d7 v=100
49212 Par ch=1 c=64 v=63
49215 On ch=1 n=c#7 v=0
49222 Par ch=1 c=64 v=0
49256 On ch=1 n=g5 v=74
49265 On ch=1 n=a4 v=59
49268 Par ch=1 c=64 v=63
49269 On ch=1 n=c#7 v=106
49277 Par ch=1 c=64 v=127
49292 On ch=1 n=d7 v=0
49317 On ch=1 n=g5 v=0
49335 On ch=1 n=e7 v=90
49349 On ch=1 n=c#7 v=0
49402 On ch=1 n=c#7 v=93
49410 On ch=1 n=a5 v=67
49411 On ch=1 n=e7 v=0
49456 On ch=1 n=c#7 v=0
49456 On ch=1 n=a5 v=0
49461 On ch=1 n=a6 v=84
49517 On ch=1 n=a6 v=0
49540 On ch=1 n=a5 v=68
49542 On ch=1 n=g6 v=83
49581 On ch=1 n=a5 v=0
49611 On ch=1 n=a6 v=76
49613 On ch=1 n=g6 v=0
49674 On ch=1 n=a5 v=59
49679 On ch=1 n=g6 v=68
49684 On ch=1 n=a4 v=0
49688 On ch=1 n=a6 v=0
49732 On ch=1 n=g6 v=0
49739 On ch=1 n=e6 v=82
49803 On ch=1 n=e6 v=0
49814 On ch=1 n=f#5 v=60
49817 On ch=1 n=a5 v=0
49817 On ch=1 n=d5 v=60
49822 On ch=1 n=d6 v=76
49853 Par ch=1 c=64 v=63
49874 Par ch=1 c=64 v=0
49902 On ch=1 n=e6 v=71
49907 On ch=1 n=d6 v=0
49965 On ch=1 n=a5 v=59
49968 On ch=1 n=d6 v=72
49973 On ch=1 n=e6 v=0
49994 On ch=1 n=a5 v=0
50030 On ch=1 n=c#6 v=82
50036 On ch=1 n=d6 v=0
50091 On ch=1 n=c#6 v=0
50100 On ch=1 n=d6 v=76
50100 On ch=1 n=a5 v=57
50128 On ch=1 n=a5 v=0
50163 On ch=1 n=d6 v=0
50163 On ch=1 n=e6 v=79
50226 On ch=1 n=a5 v=76
50231 On ch=1 n=f#6 v=93
50239 On ch=1 n=e6 v=0
50246 On ch=1 n=f#5 v=0
50252 Par ch=1 c=64 v=63
50255 Par ch=1 c=64 v=127
50263 On ch=1 n=a5 v=0
50292 On ch=1 n=f#6 v=0
50297 On ch=1 n=g6 v=84
50352 Par ch=1 c=64 v=63
50362 On ch=1 n=g6 v=0
50362 Par ch=1 c=64 v=0
50364 On ch=1 n=f#5 v=86
50368 On ch=1 n=a6 v=90
50387 Par ch=1 c=64 v=63
50397 Par ch=1 c=64 v=127
50436 On ch=1 n=b6 v=89
50448 On ch=1 n=a6 v=0
50500 On ch=1 n=a6 v=97
50507 On ch=1 n=a5 v=71
50521 On ch=1 n=f#5 v=0
50526 On ch=1 n=b6 v=0
50537 On ch=1 n=a5 v=0
50556 On ch=1 n=g#6 v=98
50568 Par ch=1 c=64 v=63
50574 On ch=1 n=a6 v=0
50581 Par ch=1 c=64 v=0
50623 On ch=1 n=a6 v=93
50626 On ch=1 n=g#6 v=0
50637 On ch=1 n=a5 v=87
50674 On ch=1 n=a5 v=0
50697 On ch=1 n=b6 v=98
50699 On ch=1 n=a6 v=0
50755 On ch=1 n=c#7 v=104
50759 On ch=1 n=a5 v=83
50773 On ch=1 n=b6 v=0
50796 Par ch=1 c=64 v=63
50799 On ch=1 n=a5 v=0
50799 Par ch=1 c=64 v=127
50802 On ch=1 n=d5 v=0
50819 On ch=1 n=d7 v=98
50842 On ch=1 n=c#7 v=0
50851 Par ch=1 c=64 v=63
50863 Par ch=1 c=64 v=0
50891 On ch=1 n=a4 v=81
50892 On ch=1 n=g5 v=84
50898 On ch=1 n=c#7 v=105
50900 Par ch=1 c=64 v=63
50905 Par ch=1 c=64 v=127
50925 On ch=1 n=d7 v=0
50971 On ch=1 n=g5 v=0
50972 On ch=1 n=e7 v=89
50990 On ch=1 n=c#7 v=0
51043 On ch=1 n=c#7 v=93
51051 On ch=1 n=a5 v=72
51055 On ch=1 n=e7 v=0
51079 On ch=1 n=a5 v=0
51099 On ch=1 n=c#7 v=0
51104 On ch=1 n=a6 v=84
51157 On ch=1 n=a6 v=0
51173 Par ch=1 c=64 v=63
51178 On ch=1 n=a5 v=78
51182 On ch=1 n=g6 v=85
51182 Par ch=1 c=64 v=0
51210 On ch=1 n=a5 v=0
51233 Par ch=1 c=64 v=63
51241 Par ch=1 c=64 v=127
51248 On ch=1 n=a6 v=73
51253 On ch=1 n=g6 v=0
51314 On ch=1 n=a5 v=72
51328 On ch=1 n=g6 v=70
51333 On ch=1 n=a6 v=0
51342 On ch=1 n=a5 v=0
51358 On ch=1 n=a4 v=0
51383 On ch=1 n=g6 v=0
51390 On ch=1 n=e6 v=73
51470 On ch=1 n=e6 v=0
51470 On ch=1 n=d6 v=78
51481 Par ch=1 c=64 v=63
51491 Par ch=1 c=64 v=127
51550 On ch=1 n=d4 v=68
51585 Par ch=1 c=64 v=63
51630 On ch=1 n=e4 v=68
51637 Par ch=1 c=64 v=127
51666 On ch=1 n=d4 v=0
51700 On ch=1 n=f#4 v=90
51741 On ch=1 n=e4 v=0
51770 On ch=1 n=g4 v=88
51792 On ch=1 n=f#4 v=0
51827 On ch=1 n=a4 v=79
51835 On ch=1 n=g4 v=0
51888 On ch=1 n=b4 v=86
51898 Par ch=1 c=64 v=63
51908 On ch=1 n=a4 v=0
51918 Par ch=1 c=64 v=0
51925 On ch=1 n=d6 v=0
51954 On ch=1 n=c#5 v=96
51977 On ch=1 n=b4 v=0
52016 On ch=1 n=d5 v=88
52026 On ch=1 n=c#5 v=0
52076 On ch=1 n=c#5 v=98
52095 On ch=1 n=d5 v=0
52144 On ch=1 n=e5 v=82
52148 On ch=1 n=c#5 v=0
52198 On ch=1 n=d5 v=86
52210 On ch=1 n=e5 v=0
52267 On ch=1 n=f#5 v=85
52282 On ch=1 n=d5 v=0
52336 On ch=1 n=e5 v=87
52352 On ch=1 n=f#5 v=0
52402 On ch=1 n=g5 v=88
52411 On ch=1 n=e5 v=0
52461 On ch=1 n=f#5 v=102
52481 On ch=1 n=g5 v=0
52521 On ch=1 n=a5 v=88
52532 On ch=1 n=f#5 v=0
52571 Par ch=1 c=64 v=63
52577 On ch=1 n=g#5 v=98
52579 Par ch=1 c=64 v=127
52593 On ch=1 n=a5 v=0
52594 Par ch=1 c=64 v=63
52599 Par ch=1 c=64 v=0
52643 On ch=1 n=c6 v=87
52651 On ch=1 n=g#5 v=0
52653 Par ch=1 c=64 v=63
52658 Par ch=1 c=64 v=127
52711 On ch=1 n=b5 v=87
52726 On ch=1 n=c6 v=0
52767 On ch=1 n=a5 v=80
52782 On ch=1 n=b5 v=0
52823 On ch=1 n=a5 v=0
52840 On ch=1 n=g5 v=82
52911 On ch=1 n=f#5 v=89
52913 On ch=1 n=g5 v=0
52928 Par ch=1 c=64 v=63
52951 Par ch=1 c=64 v=0
52965 On ch=1 n=f#5 v=0
52981 On ch=1 n=e5 v=78
53055 On ch=1 n=e5 v=0
53062 On ch=1 n=d#5 v=87
53130 On ch=1 n=b5 v=76
53133 Par ch=1 c=64 v=63
53140 Par ch=1 c=64 v=127
53205 On ch=1 n=c#6 v=85
53209 On ch=1 n=b5 v=0
53270 On ch=1 n=d#6 v=83
53280 On ch=1 n=c#6 v=0
53330 On ch=1 n=d#6 v=0
53338 On ch=1 n=e6 v=85
53409 On ch=1 n=f#6 v=98
53416 On ch=1 n=e6 v=0
53475 On ch=1 n=g#6 v=101
53495 On ch=1 n=f#6 v=0
53545 On ch=1 n=a#6 v=103
53576 On ch=1 n=g#6 v=0
53581 Par ch=1 c=64 v=63
53591 Par ch=1 c=64 v=0
53607 On ch=1 n=b6 v=90
53623 On ch=1 n=a#6 v=0
53642 Par ch=1 c=64 v=63
53652 Par ch=1 c=64 v=127
53676 On ch=1 n=a6 v=97
53688 On ch=1 n=b6 v=0
53714 On ch=1 n=d#5 v=0
53734 On ch=1 n=a6 v=0
53741 On ch=1 n=c7 v=98
53790 Par ch=1 c=64 v=63
53799 On ch=1 n=b6 v=100
53811 On ch=1 n=c7 v=0
53863 On ch=1 n=b6 v=0
53868 On ch=1 n=a6 v=103
53910 On ch=1 n=a6 v=0
53928 On ch=1 n=g6 v=98
53938 Par ch=1 c=64 v=0
53995 On ch=1 n=f#6 v=105
54009 On ch=1 n=g6 v=0
54053 On ch=1 n=f#6 v=0
54054 On ch=1 n=e6 v=101
54109 On ch=1 n=e6 v=0
54121 On ch=1 n=d#6 v=106
54180 On ch=1 n=d#6 v=0
54182 On ch=1 n=e6 v=105
54241 On ch=1 n=f#6 v=103
54245 On ch=1 n=e6 v=0
54309 On ch=1 n=e6 v=98
54318 On ch=1 n=f#6 v=0
54367 On ch=1 n=d#6 v=89
54377 On ch=1 n=e6 v=0
54430 On ch=1 n=c6 v=87
54431 On ch=1 n=d#6 v=0
54486 On ch=1 n=c6 v=0
54490 On ch=1 n=b5 v=86
54550 On ch=1 n=b5 v=0
54557 On ch=1 n=a5 v=86
54630 On ch=1 n=g5 v=89
54652 On ch=1 n=a5 v=0
54682 Par ch=1 c=64 v=63
54692 Par ch=1 c=64 v=127
54698 On ch=1 n=e4 v=80
54775 On ch=1 n=f#4 v=88
54806 On ch=1 n=e4 v=0
54839 On ch=1 n=g4 v=87
54876 On ch=1 n=f#4 v=0
54902 Par ch=1 c=64 v=63
54907 On ch=1 n=a4 v=94
54914 Par ch=1 c=64 v=0
54930 On ch=1 n=g4 v=0
54952 On ch=1 n=g5 v=0
54967 On ch=1 n=b4 v=93
54974 On ch=1 n=a4 v=0
55029 On ch=1 n=c#5 v=112
55045 On ch=1 n=b4 v=0
55099 On ch=1 n=d#5 v=115
55117 On ch=1 n=c#5 v=0
55158 On ch=1 n=e5 v=97
55165 On ch=1 n=d#5 v=0
55216 On ch=1 n=d#5 v=108
55235 On ch=1 n=e5 v=0
55280 On ch=1 n=f#5 v=114
55295 On ch=1 n=d#5 v=0
55348 On ch=1 n=d#5 v=66
55349 On ch=1 n=e5 v=109
55355 On ch=1 n=f#5 v=0
55367 On ch=1 n=d#5 v=0
55415 On ch=1 n=g5 v=98
55430 On ch=1 n=e5 v=0
55472 On ch=1 n=f#5 v=113
55493 On ch=1 n=g5 v=0
55526 Par ch=1 c=64 v=63
55528 On ch=1 n=a5 v=97
55532 Par ch=1 c=64 v=127
55544 On ch=1 n=f#5 v=0
55577 Par ch=1 c=64 v=63
55581 Par ch=1 c=64 v=0
55591 On ch=1 n=g#5 v=110
55609 On ch=1 n=a5 v=0
55647 On ch=1 n=b5 v=93
55657 Par ch=1 c=64 v=63
55660 Par ch=1 c=64 v=127
55666 On ch=1 n=g#5 v=0
55713 On ch=1 n=a#5 v=107
55721 Par ch=1 c=64 v=63
55728 On ch=1 n=b5 v=0
55728 Par ch=1 c=64 v=0
55751 Par ch=1 c=64 v=63
55757 Par ch=1 c=64 v=127
55766 On ch=1 n=a#5 v=0
55767 On ch=1 n=b5 v=32
55777 On ch=1 n=d6 v=101
55785 On ch=1 n=b5 v=0
55853 On ch=1 n=c#6 v=106
55864 On ch=1 n=d6 v=0
55922 On ch=1 n=c#6 v=0
55922 On ch=1 n=b5 v=102
55986 On ch=1 n=a5 v=103
56006 On ch=1 n=b5 v=0
56051 On ch=1 n=g#5 v=105
56061 On ch=1 n=a5 v=0
56077 Par ch=1 c=64 v=63
56086 Par ch=1 c=64 v=0
56120 On ch=1 n=f#5 v=109
56146 On ch=1 n=g#5 v=0
56196 On ch=1 n=f5 v=97
56200 On ch=1 n=f#5 v=0
56283 On ch=1 n=c#6 v=82
56303 Par ch=1 c=64 v=63
56304 Par ch=1 c=64 v=127
56358 On ch=1 n=c#6 v=0
56358 On ch=1 n=d#6 v=88
56408 On ch=1 n=d#6 v=0
56430 On ch=1 n=f6 v=85
56501 On ch=1 n=f#6 v=96
56502 On ch=1 n=f6 v=0
56561 On ch=1 n=g#6 v=104
56580 On ch=1 n=f#6 v=0
56626 On ch=1 n=a#6 v=107
56652 On ch=1 n=g#6 v=0
56689 On ch=1 n=a#6 v=0
56698 On ch=1 n=c7 v=101
56732 Par ch=1 c=64 v=63
56736 Par ch=1 c=64 v=0
56771 On ch=1 n=c#7 v=113
56781 On ch=1 n=c7 v=0
56819 Par ch=1 c=64 v=63
56824 Par ch=1 c=64 v=127
56838 On ch=1 n=b6 v=103
56853 On ch=1 n=c#7 v=0
56888 On ch=1 n=f5 v=0
56899 On ch=1 n=d7 v=102
56913 On ch=1 n=b6 v=0
56962 On ch=1 n=c#7 v=110
56984 On ch=1 n=d7 v=0
57023 On ch=1 n=b6 v=104
57062 On ch=1 n=c#7 v=0
57086 On ch=1 n=a6 v=99
57094 On ch=1 n=b6 v=0
57151 On ch=1 n=g#6 v=98
57153 On ch=1 n=a6 v=0
57221 On ch=1 n=f#6 v=105
57237 On ch=1 n=g#6 v=0
57284 On ch=1 n=f6 v=94
57289 On ch=1 n=f#6 v=0
57327 Par ch=1 c=64 v=63
57333 Par ch=1 c=64 v=0
57342 On ch=1 n=f#6 v=108
57358 On ch=1 n=f6 v=0
57412 On ch=1 n=g#6 v=103
57427 On ch=1 n=f#6 v=0
57481 On ch=1 n=f#6 v=108
57513 On ch=1 n=g#6 v=0
57545 On ch=1 n=f6 v=86
57548 On ch=1 n=f#6 v=0
57590 On ch=1 n=f6 v=0
57616 On ch=1 n=d6 v=87
57688 On ch=1 n=c#6 v=99
57694 On ch=1 n=d6 v=0
57745 On ch=1 n=c#6 v=0
57746 On ch=1 n=b5 v=80
57795 On ch=1 n=b5 v=0
57824 On ch=1 n=a5 v=76
57830 On ch=1 n=f#4 v=86
57853 Par ch=1 c=64 v=63
57859 Par ch=1 c=64 v=127
57881 On ch=1 n=a5 v=0
57902 On ch=1 n=f#5 v=93
57956 Par ch=1 c=64 v=63
57963 On ch=1 n=g#5 v=90
57969 On ch=1 n=f#5 v=0
57981 Par ch=1 c=64 v=127
58029 On ch=1 n=g#5 v=0
58033 On ch=1 n=a5 v=83
58101 On ch=1 n=b5 v=94
58106 On ch=1 n=a5 v=0
58161 On ch=1 n=c#6 v=108
58178 On ch=1 n=b5 v=0
58212 On ch=1 n=f#4 v=0
58213 Par ch=1 c=64 v=63
58217 Par ch=1 c=64 v=0
58229 On ch=1 n=d#6 v=110
58257 On ch=1 n=c#6 v=0
58279 Par ch=1 c=64 v=63
58283 Par ch=1 c=64 v=127
58293 On ch=1 n=f6 v=108
58294 On ch=1 n=d#6 v=0
58366 On ch=1 n=b4 v=104
58371 On ch=1 n=d#4 v=104
58374 On ch=1 n=f#6 v=106
58384 Par ch=1 c=64 v=63
58387 On ch=1 n=f6 v=0
58391 Par ch=1 c=64 v=0
58421 Par ch=1 c=64 v=63
58432 Par ch=1 c=64 v=127
58451 On ch=1 n=g#6 v=107
58467 On ch=1 n=f#6 v=0
58514 On ch=1 n=f#6 v=107
58548 On ch=1 n=g#6 v=0
58556 Par ch=1 c=64 v=63
58579 On ch=1 n=f6 v=103
58600 On ch=1 n=f#6 v=0
58604 Par ch=1 c=64 v=127
58644 On ch=1 n=f#6 v=110
58670 On ch=1 n=f6 v=0
58711 On ch=1 n=g#6 v=114
58730 On ch=1 n=f#6 v=0
58735 On ch=1 n=d#4 v=0
58746 On ch=1 n=b4 v=0
58775 On ch=1 n=f#6 v=112
58811 On ch=1 n=g#6 v=0
58840 On ch=1 n=f6 v=107
58867 On ch=1 n=f#6 v=0
58908 On ch=1 n=c5 v=113
58911 On ch=1 n=d4 v=108
58913 On ch=1 n=f#6 v=105
58940 On ch=1 n=f6 v=0
58983 On ch=1 n=g#6 v=113
58990 Par ch=1 c=64 v=63
58997 Par ch=1 c=64 v=0
59008 On ch=1 n=f#6 v=0
59050 Par ch=1 c=64 v=63
59058 On ch=1 n=a6 v=102
59059 Par ch=1 c=64 v=127
59079 On ch=1 n=g#6 v=0
59105 Par ch=1 c=64 v=63
59112 Par ch=1 c=64 v=0
59127 On ch=1 n=g#6 v=115
59148 Par ch=1 c=64 v=63
59158 Par ch=1 c=64 v=127
59159 On ch=1 n=a6 v=0
59200 On ch=1 n=b6 v=98
59227 On ch=1 n=g#6 v=0
59279 On ch=1 n=a6 v=102
59305 On ch=1 n=d4 v=0
59307 On ch=1 n=c5 v=0
59313 On ch=1 n=b6 v=0
59334 On ch=1 n=g#6 v=103
59366 On ch=1 n=a6 v=0
59393 On ch=1 n=f#6 v=108
59428 On ch=1 n=g#6 v=0
59479 On ch=1 n=f6 v=92
59483 On ch=1 n=c#5 v=115
59488 On ch=1 n=c#4 v=105
59492 On ch=1 n=f#6 v=0
59566 Par ch=1 c=64 v=63
59576 Par ch=1 c=64 v=0
59577 On ch=1 n=f#6 v=100
59596 On ch=1 n=f6 v=0
59640 Par ch=1 c=64 v=63
59651 Par ch=1 c=64 v=127
59659 On ch=1 n=g#6 v=99
59673 On ch=1 n=f#6 v=0
59729 On ch=1 n=f#6 v=100
59761 On ch=1 n=g#6 v=0
59785 On ch=1 n=f6 v=84
59789 On ch=1 n=f#6 v=0
59795 On ch=1 n=c#4 v=0
59829 On ch=1 n=c#5 v=0
59852 On ch=1 n=f6 v=0
59853 On ch=1 n=d#6 v=93
59918 On ch=1 n=c#6 v=95
59936 On ch=1 n=d#6 v=0
59983 On ch=1 n=c6 v=79
59988 On ch=1 n=c#6 v=0
60051 On ch=1 n=c#6 v=99
60057 On ch=1 n=c6 v=0
60120 On ch=1 n=b5 v=90
60127 On ch=1 n=c#6 v=0
60198 On ch=1 n=d6 v=80
60204 On ch=1 n=b5 v=0
60261 On ch=1 n=c#6 v=90
60263 Par ch=1 c=64 v=63
60282 On ch=1 n=d6 v=0
60313 Par ch=1 c=64 v=0
60331 On ch=1 n=b5 v=84
60349 On ch=1 n=c#6 v=0
60394 On ch=1 n=b5 v=0
60403 On ch=1 n=a5 v=74
60464 On ch=1 n=a5 v=0
60474 On ch=1 n=g#5 v=79
60533 On ch=1 n=f#5 v=86
60544 On ch=1 n=g#5 v=0
60559 Par ch=1 c=64 v=63
60581 Par ch=1 c=64 v=127
60619 On ch=1 n=f5 v=77
60629 On ch=1 n=f#5 v=0
60632 Par ch=1 c=64 v=63
60684 On ch=1 n=d5 v=73
60769 On ch=1 n=c#5 v=78
60770 On ch=1 n=d5 v=0
60773 On ch=1 n=f5 v=0
60840 On ch=1 n=c#5 v=0
60840 On ch=1 n=c5 v=78
60865 Par ch=1 c=64 v=0
60921 On ch=1 n=c#5 v=76
60930 On ch=1 n=c5 v=0
60991 On ch=1 n=c#5 v=0
60992 On ch=1 n=b4 v=70
61090 On ch=1 n=a4 v=74
61096 On ch=1 n=b4 v=0
61177 On ch=1 n=a4 v=0
61179 On ch=1 n=g#4 v=73
61290 On ch=1 n=g#4 v=0
61318 On ch=1 n=f#4 v=59
61328 On ch=1 n=c#6 v=82
61334 Par ch=1 c=64 v=63
61371 Par ch=1 c=64 v=127
61471 On ch=1 n=f#4 v=0
61618 On ch=1 n=f#5 v=49
61626 On ch=1 n=a5 v=21
61637 On ch=1 n=c#6 v=0
61671 On ch=1 n=f#5 v=0
61701 On ch=1 n=a5 v=0
61828 On ch=1 n=a5 v=29
61835 On ch=1 n=f#5 v=30
61868 On ch=1 n=f#5 v=0
61883 On ch=1 n=a5 v=0
61979 On ch=1 n=a5 v=46
61983 On ch=1 n=f#5 v=52
62046 On ch=1 n=f#5 v=0
62053 On ch=1 n=a5 v=0
62124 On ch=1 n=a5 v=55
62127 On ch=1 n=f#5 v=56
62203 On ch=1 n=f#5 v=0
62213 On ch=1 n=a5 v=0
62248 On ch=1 n=f#6 v=88
62259 On ch=1 n=a5 v=43
62262 On ch=1 n=f#5 v=62
62336 On ch=1 n=f#5 v=0
62352 On ch=1 n=a5 v=0
62425 On ch=1 n=a6 v=88
62430 On ch=1 n=a5 v=50
62431 On ch=1 n=f#5 v=51
62461 On ch=1 n=f#6 v=0
62515 On ch=1 n=f#5 v=0
62524 On ch=1 n=a5 v=0
62587 On ch=1 n=f6 v=92
62589 On ch=1 n=a5 v=65
62590 On ch=1 n=f#5 v=71
62614 On ch=1 n=a6 v=0
62644 On ch=1 n=f#5 v=0
62653 On ch=1 n=a5 v=0
62712 On ch=1 n=f#6 v=100
62718 On ch=1 n=a5 v=66
62721 On ch=1 n=f#5 v=68
62726 On ch=1 n=f6 v=0
62784 On ch=1 n=f#5 v=0
62789 On ch=1 n=a5 v=0
62841 On ch=1 n=c6 v=96
62851 On ch=1 n=a5 v=65
62852 On ch=1 n=f#5 v=71
62861 On ch=1 n=f#6 v=0
62879 Par ch=1 c=64 v=63
62886 Par ch=1 c=64 v=0
62923 Par ch=1 c=64 v=63
62939 Par ch=1 c=64 v=127
62949 On ch=1 n=f#5 v=0
62956 On ch=1 n=a5 v=0
62984 On ch=1 n=d6 v=94
62985 On ch=1 n=f#5 v=67
62991 On ch=1 n=a5 v=68
63013 On ch=1 n=c6 v=0
63054 On ch=1 n=f#5 v=0
63055 On ch=1 n=a5 v=0
63128 On ch=1 n=f#5 v=82
63129 On ch=1 n=a5 v=67
63130 On ch=1 n=c#6 v=107
63132 On ch=1 n=d6 v=0
63162 On ch=1 n=a5 v=0
63163 On ch=1 n=f#5 v=0
63204 On ch=1 n=c#6 v=0
63299 On ch=1 n=f4 v=94
63304 Par ch=1 c=64 v=63
63305 On ch=1 n=c#6 v=92
63311 Par ch=1 c=64 v=0
63339 Par ch=1 c=64 v=63
63351 Par ch=1 c=64 v=127
63385 On ch=1 n=f4 v=0
63520 On ch=1 n=g#5 v=49
63525 On ch=1 n=f5 v=38
63566 On ch=1 n=g#5 v=0
63570 On ch=1 n=f5 v=0
63610 On ch=1 n=c#6 v=0
63654 On ch=1 n=g#5 v=61
63659 On ch=1 n=f5 v=67
63712 On ch=1 n=f5 v=0
63717 On ch=1 n=g#5 v=0
63780 On ch=1 n=g#5 v=66
63787 On ch=1 n=f5 v=78
63848 On ch=1 n=f5 v=0
63851 On ch=1 n=g#5 v=0
63909 On ch=1 n=g#5 v=72
63912 On ch=1 n=f5 v=79
63987 On ch=1 n=g#5 v=0
63990 On ch=1 n=f5 v=0
64043 On ch=1 n=g#6 v=104
64044 On ch=1 n=g#5 v=69
64052 On ch=1 n=f5 v=65
64120 On ch=1 n=g#5 v=0
64127 On ch=1 n=f5 v=0
64190 On ch=1 n=b6 v=88
64195 On ch=1 n=g#5 v=64
64201 On ch=1 n=f5 v=66
64243 On ch=1 n=g#6 v=0
64259 On ch=1 n=g#5 v=0
64264 On ch=1 n=f5 v=0
64317 On ch=1 n=f6 v=76
64324 On ch=1 n=g#5 v=58
64329 On ch=1 n=f5 v=63
64330 On ch=1 n=b6 v=0
64413 On ch=1 n=g#5 v=0
64413 On ch=1 n=f5 v=0
64453 On ch=1 n=g#5 v=56
64455 On ch=1 n=f5 v=59
64458 On ch=1 n=g#6 v=85
64463 On ch=1 n=f6 v=0
64511 On ch=1 n=g#5 v=0
64525 On ch=1 n=f5 v=0
64585 On ch=1 n=g#6 v=0
64586 On ch=1 n=c6 v=88
64590 On ch=1 n=g#5 v=61
64592 On ch=1 n=f5 v=63
64691 On ch=1 n=f5 v=0
64694 On ch=1 n=g#5 v=0
64695 Par ch=1 c=64 v=63
64700 Par ch=1 c=64 v=127
64729 On ch=1 n=g#5 v=68
64734 On ch=1 n=d6 v=74
64735 On ch=1 n=f5 v=57
64765 On ch=1 n=c6 v=0
64799 On ch=1 n=g#5 v=0
64807 On ch=1 n=f5 v=0
64867 On ch=1 n=g#5 v=51
64868 On ch=1 n=f5 v=51
64878 On ch=1 n=c#6 v=86
64881 On ch=1 n=d6 v=0
64896 On ch=1 n=f5 v=0
64913 On ch=1 n=g#5 v=0
64938 On ch=1 n=c#6 v=0
65038 On ch=1 n=c#6 v=74
65048 On ch=1 n=f#5 v=67
65136 Par ch=1 c=64 v=63
65165 Par ch=1 c=64 v=0
65219 On ch=1 n=a6 v=63
65352 Par ch=1 c=64 v=63
65362 Par ch=1 c=64 v=127
65364 On ch=1 n=e5 v=76
65389 On ch=1 n=a6 v=0
65399 On ch=1 n=f#5 v=0
65489 On ch=1 n=g#6 v=92
65600 On ch=1 n=g#6 v=0
65611 On ch=1 n=d5 v=89
65657 On ch=1 n=e5 v=0
65748 On ch=1 n=f6 v=98
65752 Par ch=1 c=64 v=63
65773 Par ch=1 c=64 v=0
65889 Par ch=1 c=64 v=63
65896 On ch=1 n=f#6 v=109
65899 Par ch=1 c=64 v=127
65933 On ch=1 n=f6 v=0
66019 On ch=1 n=g#6 v=110
66055 On ch=1 n=f#6 v=0
66135 On ch=1 n=c#6 v=0
66155 On ch=1 n=b6 v=96
66163 On ch=1 n=c6 v=87
66200 On ch=1 n=g#6 v=0
66274 Par ch=1 c=64 v=63
66294 Par ch=1 c=64 v=0
66305 On ch=1 n=a6 v=100
66340 On ch=1 n=b6 v=0
66418 Par ch=1 c=64 v=63
66425 Par ch=1 c=64 v=127
66449 On ch=1 n=g#6 v=94
66486 On ch=1 n=a6 v=0
66577 On ch=1 n=d5 v=0
66577 On ch=1 n=f#6 v=96
66587 On ch=1 n=c6 v=0
66604 On ch=1 n=g#6 v=0
66725 On ch=1 n=c#6 v=72
66735 On ch=1 n=c#5 v=59
66807 Par ch=1 c=64 v=63
66822 Par ch=1 c=64 v=0
66865 On ch=1 n=f6 v=68
66890 On ch=1 n=f#6 v=0
66923 Par ch=1 c=64 v=63
66932 Par ch=1 c=64 v=127
67011 On ch=1 n=g#6 v=77
67023 On ch=1 n=f6 v=0
67067 On ch=1 n=c#6 v=0
67141 On ch=1 n=g#6 v=0
67146 On ch=1 n=c6 v=68
67297 On ch=1 n=c#6 v=61
67299 Par ch=1 c=64 v=63
67304 On ch=1 n=c#5 v=0
67314 Par ch=1 c=64 v=0
67318 On ch=1 n=c6 v=0
67418 Par ch=1 c=64 v=63
67430 Par ch=1 c=64 v=127
67455 On ch=1 n=f5 v=55
67540 On ch=1 n=c#6 v=0
67597 On ch=1 n=g#5 v=66
67609 On ch=1 n=f5 v=0
67727 On ch=1 n=g#5 v=0
67732 On ch=1 n=c#5 v=81
67862 On ch=1 n=d5 v=75
67864 On ch=1 n=c#5 v=0
67932 Par ch=1 c=64 v=63
67953 Par ch=1 c=64 v=0
68020 On ch=1 n=g#4 v=60
68029 On ch=1 n=d5 v=0
68163 On ch=1 n=b4 v=70
68213 On ch=1 n=g#4 v=0
68313 On ch=1 n=f4 v=69
68350 On ch=1 n=b4 v=0
68468 On ch=1 n=f4 v=0
68512 On ch=1 n=f#4 v=57
68514 On ch=1 n=c#6 v=76
68551 Par ch=1 c=64 v=63
68556 Par ch=1 c=64 v=127
68604 On ch=1 n=f#4 v=0
68760 On ch=1 n=f#5 v=44
68763 On ch=1 n=c#6 v=0
68767 On ch=1 n=a5 v=30
68808 On ch=1 n=f#5 v=0
68818 On ch=1 n=a5 v=0
68928 On ch=1 n=a5 v=51
68937 On ch=1 n=f#5 v=48
68973 On ch=1 n=f#5 v=0
68990 On ch=1 n=a5 v=0
69062 On ch=1 n=a5 v=72
69064 On ch=1 n=f#5 v=80
69137 On ch=1 n=a5 v=0
69141 On ch=1 n=f#5 v=0
69203 On ch=1 n=a5 v=76
69206 On ch=1 n=f#5 v=87
69284 On ch=1 n=f#5 v=0
69288 On ch=1 n=a5 v=0
69338 On ch=1 n=f#6 v=99
69344 On ch=1 n=a5 v=64
69361 On ch=1 n=f#5 v=51
69401 On ch=1 n=f#5 v=0
69417 On ch=1 n=a5 v=0
69478 On ch=1 n=a5 v=71
69486 On ch=1 n=a6 v=91
69488 On ch=1 n=f#5 v=76
69545 On ch=1 n=f#6 v=0
69574 On ch=1 n=a5 v=0
69574 On ch=1 n=f#5 v=0
69614 On ch=1 n=f6 v=98
69620 On ch=1 n=a5 v=74
69625 On ch=1 n=f#5 v=80
69643 On ch=1 n=a6 v=0
69687 On ch=1 n=a5 v=0
69702 On ch=1 n=f#5 v=0
69740 On ch=1 n=f#6 v=96
69746 On ch=1 n=a5 v=75
69747 On ch=1 n=f#5 v=78
69759 On ch=1 n=f6 v=0
69767 Par ch=1 c=64 v=63
69771 Par ch=1 c=64 v=0
69796 Par ch=1 c=64 v=63
69808 Par ch=1 c=64 v=127
69853 On ch=1 n=a5 v=0
69855 On ch=1 n=f#5 v=0
69878 On ch=1 n=c6 v=99
69884 On ch=1 n=a5 v=81
69885 On ch=1 n=f#5 v=89
69889 On ch=1 n=f#6 v=0
69978 On ch=1 n=f#5 v=0
69992 On ch=1 n=a5 v=0
70022 On ch=1 n=d6 v=92
70025 On ch=1 n=a5 v=62
70029 On ch=1 n=f#5 v=65
70036 On ch=1 n=c6 v=0
70102 On ch=1 n=f#5 v=0
70109 On ch=1 n=a5 v=0
70163 On ch=1 n=d6 v=0
70182 On ch=1 n=c#6 v=88
70184 On ch=1 n=a5 v=67
70189 On ch=1 n=f#5 v=75
70238 On ch=1 n=f#5 v=0
70244 On ch=1 n=a5 v=0
70290 On ch=1 n=c#6 v=0
70357 On ch=1 n=e4 v=89
70367 Par ch=1 c=64 v=63
70370 On ch=1 n=c#6 v=91
70373 Par ch=1 c=64 v=0
70406 Par ch=1 c=64 v=63
70416 Par ch=1 c=64 v=127
70479 On ch=1 n=e4 v=0
70566 On ch=1 n=e5 v=63
70575 On ch=1 n=g5 v=54
70632 On ch=1 n=g5 v=0
70641 On ch=1 n=e5 v=0
70718 On ch=1 n=g5 v=65
70730 On ch=1 n=e5 v=57
70788 On ch=1 n=g5 v=0
70790 On ch=1 n=e5 v=0
70850 On ch=1 n=g5 v=81
70855 On ch=1 n=e5 v=73
70857 On ch=1 n=c#6 v=0
70912 On ch=1 n=g5 v=0
70923 On ch=1 n=e5 v=0
70977 On ch=1 n=g5 v=91
70985 On ch=1 n=e5 v=83
71056 On ch=1 n=g5 v=0
71063 On ch=1 n=e5 v=0
71109 On ch=1 n=g5 v=78
71114 On ch=1 n=g6 v=102
71117 On ch=1 n=e5 v=78
71224 On ch=1 n=g5 v=0
71228 On ch=1 n=e5 v=0
71288 On ch=1 n=a#6 v=97
71291 On ch=1 n=g5 v=69
71300 On ch=1 n=e5 v=69
71318 On ch=1 n=g6 v=0
71370 On ch=1 n=g5 v=0
71379 On ch=1 n=e5 v=0
71434 On ch=1 n=a#6 v=0
71443 On ch=1 n=e6 v=94
71445 On ch=1 n=g5 v=84
71451 On ch=1 n=e5 v=80
71519 On ch=1 n=g5 v=0
71529 On ch=1 n=e5 v=0
71567 On ch=1 n=e6 v=0
71568 On ch=1 n=g6 v=84
71574 On ch=1 n=g5 v=77
71579 On ch=1 n=e5 v=77
71639 On ch=1 n=g5 v=0
71644 On ch=1 n=e5 v=0
71701 On ch=1 n=g6 v=0
71702 On ch=1 n=g5 v=70
71702 On ch=1 n=c#6 v=92
71714 On ch=1 n=e5 v=60
71760 On ch=1 n=e5 v=0
71762 On ch=1 n=g5 v=0
71835 On ch=1 n=e6 v=79
71839 On ch=1 n=g5 v=62
71844 Par ch=1 c=64 v=63
71847 On ch=1 n=c#6 v=0
71849 On ch=1 n=e5 v=64
71859 Par ch=1 c=64 v=0
71869 Par ch=1 c=64 v=63
71900 Par ch=1 c=64 v=127
71910 On ch=1 n=g5 v=0
71915 On ch=1 n=e5 v=0
71978 On ch=1 n=a#5 v=81
71981 On ch=1 n=e5 v=48
71985 On ch=1 n=e6 v=0
71986 On ch=1 n=g5 v=42
72011 On ch=1 n=e5 v=0
72048 On ch=1 n=a#5 v=0
72048 On ch=1 n=g5 v=0
72125 On ch=1 n=f#5 v=74
72139 On ch=1 n=d#5 v=64
72171 Par ch=1 c=64 v=63
72189 Par ch=1 c=64 v=0
72266 On ch=1 n=b5 v=60
72371 On ch=1 n=b5 v=0
72388 On ch=1 n=d#5 v=0
72420 On ch=1 n=d5 v=76
72490 Par ch=1 c=64 v=63
72493 Par ch=1 c=64 v=127
72564 On ch=1 n=c6 v=83
72611 On ch=1 n=d5 v=0
72699 On ch=1 n=c6 v=0
72729 On ch=1 n=c#5 v=59
72774 Par ch=1 c=64 v=63
72800 Par ch=1 c=64 v=0
72913 On ch=1 n=c#6 v=67
72945 Par ch=1 c=64 v=63
72953 Par ch=1 c=64 v=127
73066 On ch=1 n=f#6 v=75
73071 On ch=1 n=f#5 v=0
73100 On ch=1 n=c#5 v=0
73138 On ch=1 n=c#6 v=0
73189 On ch=1 n=f#6 v=0
73198 On ch=1 n=a5 v=73
73341 On ch=1 n=a5 v=0
73341 On ch=1 n=c#6 v=81
73346 On ch=1 n=a4 v=46
73351 On ch=1 n=c#4 v=49
73395 Par ch=1 c=64 v=63
73413 Par ch=1 c=64 v=0
73466 Par ch=1 c=64 v=63
73476 On ch=1 n=f#5 v=79
73481 Par ch=1 c=64 v=127
73491 On ch=1 n=c#6 v=0
73630 On ch=1 n=g#4 v=51
73635 On ch=1 n=b5 v=67
73646 On ch=1 n=a4 v=0
73657 On ch=1 n=f#5 v=0
73661 Par ch=1 c=64 v=63
73672 Par ch=1 c=64 v=0
73761 Par ch=1 c=64 v=63
73773 Par ch=1 c=64 v=127
73796 On ch=1 n=f5 v=63
73804 On ch=1 n=b5 v=0
73820 On ch=1 n=c#4 v=0
73830 On ch=1 n=g#4 v=0
73957 On ch=1 n=f5 v=0
73967 On ch=1 n=f#5 v=63
73981 On ch=1 n=a4 v=22
73982 On ch=1 n=f#4 v=44
73998 Par ch=1 c=64 v=63
74012 Par ch=1 c=64 v=0
74039 Par ch=1 c=64 v=63
74068 Par ch=1 c=64 v=127
74128 On ch=1 n=f#5 v=0
74192 On ch=1 n=g#5 v=58
74194 On ch=1 n=c#5 v=53
74241 On ch=1 n=c#5 v=0
74264 On ch=1 n=g#5 v=0
74272 On ch=1 n=a5 v=55
74342 On ch=1 n=a5 v=0
74349 On ch=1 n=b5 v=79
74352 On ch=1 n=c#5 v=66
74375 Par ch=1 c=64 v=63
74396 On ch=1 n=c#5 v=0
74413 On ch=1 n=b5 v=0
74417 On ch=1 n=c#6 v=94
74440 On ch=1 n=a4 v=0
74442 Par ch=1 c=64 v=127
74473 On ch=1 n=c#5 v=70
74481 On ch=1 n=d#6 v=96
74498 On ch=1 n=c#6 v=0
74514 On ch=1 n=c#5 v=0
74533 On ch=1 n=d#6 v=0
74544 On ch=1 n=f6 v=89
74596 Par ch=1 c=64 v=63
74612 On ch=1 n=a4 v=69
74619 On ch=1 n=f6 v=0
74620 On ch=1 n=f#6 v=101
74661 Par ch=1 c=64 v=127
74683 On ch=1 n=g#6 v=99
74698 On ch=1 n=f#6 v=0
74746 On ch=1 n=g#6 v=0
74746 On ch=1 n=c#5 v=88
74750 On ch=1 n=a6 v=94
74794 On ch=1 n=c#5 v=0
74810 On ch=1 n=a6 v=0
74810 On ch=1 n=b6 v=104
74888 On ch=1 n=c#5 v=82
74890 On ch=1 n=b6 v=0
74891 On ch=1 n=c#7 v=107
74898 Par ch=1 c=64 v=63
74930 On ch=1 n=c#5 v=0
74949 On ch=1 n=c#7 v=0
74952 On ch=1 n=a6 v=91
74959 Par ch=1 c=64 v=127
75006 On ch=1 n=a6 v=0
75020 On ch=1 n=a4 v=0
75020 On ch=1 n=c#5 v=88
75021 On ch=1 n=g#6 v=100
75063 On ch=1 n=c#5 v=0
75081 On ch=1 n=f#6 v=96
75099 On ch=1 n=g#6 v=0
75101 Par ch=1 c=64 v=63
75109 On ch=1 n=f#4 v=0
75109 Par ch=1 c=64 v=0
75144 On ch=1 n=f6 v=84
75145 On ch=1 n=b4 v=87
75146 On ch=1 n=f#6 v=0
75151 On ch=1 n=c#4 v=88
75156 Par ch=1 c=64 v=63
75168 Par ch=1 c=64 v=127
75187 On ch=1 n=b4 v=0
75207 On ch=1 n=f6 v=0
75214 On ch=1 n=g#6 v=95
75269 On ch=1 n=g#6 v=0
75278 On ch=1 n=f6 v=77
75287 On ch=1 n=c#5 v=80
75313 On ch=1 n=c#5 v=0
75323 On ch=1 n=f6 v=0
75345 On ch=1 n=c#6 v=94
75396 On ch=1 n=c#6 v=0
75413 On ch=1 n=b5 v=84
75423 On ch=1 n=c#5 v=77
75449 Par ch=1 c=64 v=63
75463 On ch=1 n=c#5 v=0
75469 On ch=1 n=b5 v=0
75479 On ch=1 n=c#6 v=94
75498 Par ch=1 c=64 v=127
75539 On ch=1 n=c#6 v=0
75550 On ch=1 n=b5 v=66
75555 On ch=1 n=c#5 v=73
75579 Par ch=1 c=64 v=63
75588 On ch=1 n=c#4 v=0
75603 Par ch=1 c=64 v=0
75607 On ch=1 n=b5 v=0
75611 On ch=1 n=g#5 v=87
75680 On ch=1 n=c#5 v=0
75685 On ch=1 n=g#5 v=0
75697 On ch=1 n=f#4 v=66
75697 On ch=1 n=f#5 v=83
75708 On ch=1 n=a4 v=47
75765 Par ch=1 c=64 v=63
75769 Par ch=1 c=64 v=127
75860 On ch=1 n=g#5 v=80
75862 On ch=1 n=c#5 v=68
75868 On ch=1 n=f#5 v=0
75886 On ch=1 n=c#5 v=0
75925 On ch=1 n=g#5 v=0
75931 On ch=1 n=a5 v=78
75994 On ch=1 n=c#5 v=71
75997 On ch=1 n=a5 v=0
76000 On ch=1 n=b5 v=86
76010 Par ch=1 c=64 v=63
76017 On ch=1 n=c#5 v=0
76039 Par ch=1 c=64 v=0
76057 On ch=1 n=c#6 v=86
76068 On ch=1 n=b5 v=0
76119 On ch=1 n=c#5 v=88
76127 On ch=1 n=d#6 v=90
76146 On ch=1 n=c#6 v=0
76149 On ch=1 n=a4 v=0
76175 On ch=1 n=c#5 v=0
76182 On ch=1 n=d#6 v=0
76189 On ch=1 n=f6 v=92
76214 Par ch=1 c=64 v=63
76236 Par ch=1 c=64 v=127
76262 On ch=1 n=f#6 v=98
76263 On ch=1 n=f6 v=0
76265 On ch=1 n=a4 v=68
76320 On ch=1 n=g#6 v=96
76335 On ch=1 n=f#6 v=0
76385 Par ch=1 c=64 v=63
76387 On ch=1 n=c#5 v=90
76389 On ch=1 n=g#6 v=0
76391 On ch=1 n=a6 v=85
76399 Par ch=1 c=64 v=0
76427 On ch=1 n=c#5 v=0
76445 On ch=1 n=a6 v=0
76454 On ch=1 n=b6 v=83
76514 On ch=1 n=b6 v=0
76518 On ch=1 n=c#5 v=77
76528 On ch=1 n=c#7 v=96
76550 On ch=1 n=c#5 v=0
76567 Par ch=1 c=64 v=63
76570 Par ch=1 c=64 v=127
76576 On ch=1 n=c#7 v=0
76586 On ch=1 n=a6 v=76
76593 On ch=1 n=a4 v=0
76638 On ch=1 n=a6 v=0
76653 On ch=1 n=g#6 v=90
76655 On ch=1 n=c#5 v=73
76703 On ch=1 n=c#5 v=0
76719 On ch=1 n=f#6 v=80
76726 On ch=1 n=g#6 v=0
76753 Par ch=1 c=64 v=63
76758 Par ch=1 c=64 v=0
76782 On ch=1 n=f#6 v=0
76787 On ch=1 n=b4 v=74
76790 On ch=1 n=c#4 v=70
76794 On ch=1 n=f6 v=69
76795 Par ch=1 c=64 v=63
76805 On ch=1 n=f#4 v=0
76806 Par ch=1 c=64 v=127
76836 On ch=1 n=b4 v=0
76855 On ch=1 n=f6 v=0
76864 On ch=1 n=g#6 v=82
76919 On ch=1 n=g#6 v=0
76929 On ch=1 n=c#5 v=67
76932 On ch=1 n=f6 v=63
76953 On ch=1 n=c#5 v=0
76979 On ch=1 n=f6 v=0
77004 On ch=1 n=c#6 v=80
77063 On ch=1 n=c#6 v=0
77082 On ch=1 n=b5 v=72
77084 On ch=1 n=c#5 v=62
77123 On ch=1 n=c#5 v=0
77141 On ch=1 n=b5 v=0
77151 On ch=1 n=c#6 v=89
77208 On ch=1 n=c#6 v=0
77229 On ch=1 n=b5 v=54
77231 On ch=1 n=c#5 v=65
77285 On ch=1 n=c#4 v=0
77288 On ch=1 n=c#5 v=0
77289 On ch=1 n=b5 v=0
77295 On ch=1 n=g#5 v=79
77408 On ch=1 n=f#5 v=72
77429 On ch=1 n=g#5 v=0
77508 On ch=1 n=f#3 v=67
77581 Par ch=1 c=64 v=63
77602 On ch=1 n=g#3 v=74
77609 Par ch=1 c=64 v=0
77630 On ch=1 n=f#3 v=0
77669 On ch=1 n=a3 v=87
77695 On ch=1 n=g#3 v=0
77731 On ch=1 n=b3 v=88
77734 On ch=1 n=a3 v=0
77802 On ch=1 n=c#4 v=103
77827 On ch=1 n=b3 v=0
77872 On ch=1 n=d#4 v=101
77894 On ch=1 n=c#4 v=0
77895 On ch=1 n=f#5 v=0
77928 On ch=1 n=f4 v=89
77942 On ch=1 n=d#4 v=0
78009 On ch=1 n=f#4 v=101
78026 On ch=1 n=f4 v=0
78076 On ch=1 n=f#5 v=88
78136 On ch=1 n=g#5 v=80
78151 On ch=1 n=f#5 v=0
78202 On ch=1 n=g#5 v=0
78207 On ch=1 n=a5 v=74
78278 On ch=1 n=a5 v=0
78279 On ch=1 n=b5 v=83
78310 Par ch=1 c=64 v=63
78313 Par ch=1 c=64 v=127
78339 On ch=1 n=c#6 v=94
78344 On ch=1 n=b5 v=0
78408 On ch=1 n=d#6 v=98
78416 On ch=1 n=c#6 v=0
78457 On ch=1 n=d#6 v=0
78479 On ch=1 n=f6 v=84
78491 Par ch=1 c=64 v=63
78533 Par ch=1 c=64 v=127
78540 On ch=1 n=f6 v=0
78554 On ch=1 n=f#6 v=90
78616 On ch=1 n=g#6 v=96
78620 On ch=1 n=f#6 v=0
78680 On ch=1 n=a6 v=94
78692 On ch=1 n=g#6 v=0
78744 On ch=1 n=b6 v=101
78752 On ch=1 n=a6 v=0
78814 On ch=1 n=b6 v=0
78814 On ch=1 n=c#7 v=99
78840 Par ch=1 c=64 v=63
78861 On ch=1 n=f#4 v=0
78872 On ch=1 n=a6 v=97
78881 Par ch=1 c=64 v=127
78895 On ch=1 n=c#7 v=0
78956 On ch=1 n=f#6 v=92
78967 On ch=1 n=a6 v=0
79005 On ch=1 n=c#6 v=81
79045 On ch=1 n=f#6 v=0
79056 On ch=1 n=c#6 v=0
79100 On ch=1 n=d6 v=87
79172 On ch=1 n=f4 v=70
79180 Par ch=1 c=64 v=63
79195 Par ch=1 c=64 v=0
79259 On ch=1 n=g4 v=76
79277 Par ch=1 c=64 v=63
79289 Par ch=1 c=64 v=127
79291 On ch=1 n=f4 v=0
79329 On ch=1 n=a4 v=88
79372 On ch=1 n=g4 v=0
79402 On ch=1 n=b4 v=94
79404 On ch=1 n=a4 v=0
79464 On ch=1 n=c#5 v=110
79471 On ch=1 n=d6 v=0
79483 On ch=1 n=b4 v=0
79531 Par ch=1 c=64 v=63
79543 On ch=1 n=d5 v=102
79549 Par ch=1 c=64 v=0
79564 On ch=1 n=c#5 v=0
79600 On ch=1 n=e5 v=96
79610 On ch=1 n=d5 v=0
79657 On ch=1 n=e5 v=0
79679 On ch=1 n=f5 v=106
79755 On ch=1 n=a5 v=80
79788 Par ch=1 c=64 v=63
79793 Par ch=1 c=64 v=127
79826 On ch=1 n=b5 v=89
79836 On ch=1 n=a5 v=0
79892 On ch=1 n=c#6 v=99
79904 On ch=1 n=b5 v=0
79958 On ch=1 n=c#6 v=0
79961 On ch=1 n=d6 v=96
79997 Par ch=1 c=64 v=63
80001 Par ch=1 c=64 v=0
80027 On ch=1 n=e6 v=108
80045 On ch=1 n=d6 v=0
80090 On ch=1 n=f6 v=109
80120 On ch=1 n=e6 v=0
80156 On ch=1 n=g6 v=106
80192 On ch=1 n=f6 v=0
80233 On ch=1 n=a6 v=101
80238 Par ch=1 c=64 v=63
80240 Par ch=1 c=64 v=127
80248 On ch=1 n=f5 v=0
80259 On ch=1 n=g6 v=0
80298 On ch=1 n=d6 v=99
80305 On ch=1 n=a6 v=0
80365 On ch=1 n=f6 v=106
80392 On ch=1 n=d6 v=0
80415 Par ch=1 c=64 v=63
80424 On ch=1 n=a6 v=108
80425 Par ch=1 c=64 v=0
80449 On ch=1 n=f6 v=0
80457 Par ch=1 c=64 v=63
80465 Par ch=1 c=64 v=127
80507 On ch=1 n=d7 v=107
80523 On ch=1 n=a6 v=0
80587 On ch=1 n=c7 v=108
80630 On ch=1 n=d7 v=0
80661 On ch=1 n=b6 v=103
80699 On ch=1 n=c7 v=0
80722 On ch=1 n=a6 v=109
80744 On ch=1 n=b6 v=0
80790 On ch=1 n=a6 v=0
80829 On ch=1 n=e4 v=82
80830 On ch=1 n=d5 v=97
80830 On ch=1 n=b4 v=88
80835 On ch=1 n=a6 v=104
80933 On ch=1 n=a6 v=0
80944 On ch=1 n=g#6 v=97
81005 Par ch=1 c=64 v=63
81026 On ch=1 n=g#6 v=0
81029 On ch=1 n=b6 v=91
81030 Par ch=1 c=64 v=0
81097 Par ch=1 c=64 v=63
81106 On ch=1 n=a#6 v=96
81116 Par ch=1 c=64 v=127
81126 On ch=1 n=b6 v=0
81181 On ch=1 n=c#7 v=92
81187 On ch=1 n=a#6 v=0
81252 On ch=1 n=b6 v=86
81255 On ch=1 n=c#7 v=0
81324 On ch=1 n=b6 v=0
81326 On ch=1 n=a6 v=85
81385 On ch=1 n=a6 v=0
81391 On ch=1 n=g#6 v=73
81467 On ch=1 n=f#6 v=83
81477 On ch=1 n=g#6 v=0
81543 On ch=1 n=e6 v=83
81545 On ch=1 n=f#6 v=0
81617 On ch=1 n=e6 v=0
81618 On ch=1 n=f#6 v=81
81674 Par ch=1 c=64 v=63
81691 On ch=1 n=f6 v=77
81702 On ch=1 n=f#6 v=0
81706 Par ch=1 c=64 v=0
81765 On ch=1 n=g#6 v=74
81772 On ch=1 n=f6 v=0
81824 Par ch=1 c=64 v=63
81843 On ch=1 n=f#6 v=84
81853 Par ch=1 c=64 v=127
81859 On ch=1 n=g#6 v=0
81927 On ch=1 n=e6 v=65
81936 On ch=1 n=f#6 v=0
82009 On ch=1 n=e6 v=0
82011 On ch=1 n=d6 v=69
82076 On ch=1 n=g#4 v=37
82101 On ch=1 n=c#6 v=80
82106 On ch=1 n=d6 v=0
82149 Par ch=1 c=64 v=63
82170 On ch=1 n=b4 v=0
82188 On ch=1 n=b5 v=75
82194 Par ch=1 c=64 v=0
82199 On ch=1 n=c#6 v=0
82291 On ch=1 n=d6 v=71
82294 On ch=1 n=b5 v=0
82394 On ch=1 n=d6 v=0
82394 On ch=1 n=c#6 v=68
82442 Par ch=1 c=64 v=63
82454 Par ch=1 c=64 v=127
82516 On ch=1 n=e6 v=57
82522 On ch=1 n=c#6 v=0
82577 Par ch=1 c=64 v=63
82591 Par ch=1 c=64 v=0
82628 Par ch=1 c=64 v=63
82648 Par ch=1 c=64 v=127
82650 On ch=1 n=d6 v=58
82657 On ch=1 n=e6 v=0
82673 On ch=1 n=e4 v=0
82777 On ch=1 n=c#6 v=64
82782 On ch=1 n=d6 v=0
82804 On ch=1 n=g#4 v=0
82806 On ch=1 n=d5 v=0
82933 On ch=1 n=c6 v=48
82937 On ch=1 n=c#6 v=0
83155 On ch=1 n=c#6 v=65
83174 On ch=1 n=c6 v=0
83176 On ch=1 n=a4 v=38
83179 On ch=1 n=e5 v=41
83229 Par ch=1 c=64 v=63
83264 Par ch=1 c=64 v=0
83514 Par ch=1 c=64 v=63
83518 Par ch=1 c=64 v=127
83573 On ch=1 n=c#6 v=0
83789 On ch=1 n=d6 v=46
83828 On ch=1 n=d6 v=0
83831 On ch=1 n=c#6 v=68
83869 On ch=1 n=c#6 v=0
83871 On ch=1 n=b5 v=65
83909 On ch=1 n=c#6 v=72
83923 On ch=1 n=b5 v=0
83932 Par ch=1 c=64 v=63
83958 On ch=1 n=e6 v=67
83962 On ch=1 n=b4 v=46
83966 Par ch=1 c=64 v=0
83968 On ch=1 n=a4 v=0
83971 On ch=1 n=c#6 v=0
84271 On ch=1 n=d6 v=47
84281 Par ch=1 c=64 v=63
84287 On ch=1 n=e6 v=0
84297 Par ch=1 c=64 v=127
84456 On ch=1 n=d6 v=0
84592 On ch=1 n=b5 v=43
84599 On ch=1 n=d5 v=37
84689 On ch=1 n=b4 v=0
84694 Par ch=1 c=64 v=63
84726 Par ch=1 c=64 v=0
84888 Par ch=1 c=64 v=63
84912 On ch=1 n=g#5 v=44
84928 Par ch=1 c=64 v=127
84946 On ch=1 n=b5 v=0
85013 Par ch=1 c=64 v=63
85055 Par ch=1 c=64 v=127
85165 On ch=1 n=g#5 v=0
85265 On ch=1 n=a5 v=46
85285 On ch=1 n=c#5 v=42
85347 Par ch=1 c=64 v=63
85354 On ch=1 n=d5 v=0
85372 Par ch=1 c=64 v=0
85442 Par ch=1 c=64 v=63
85456 Par ch=1 c=64 v=127
85695 On ch=1 n=a5 v=0
85707 On ch=1 n=e5 v=0
85727 On ch=1 n=c#5 v=0
85837 On ch=1 n=c#6 v=63
85909 On ch=1 n=a5 v=57
85910 On ch=1 n=c#6 v=0
85943 Par ch=1 c=64 v=63
85981 Par ch=1 c=64 v=0
86002 On ch=1 n=e6 v=62
86017 On ch=1 n=a5 v=0
86312 On ch=1 n=d6 v=49
86314 On ch=1 n=g#5 v=47
86354 Par ch=1 c=64 v=63
86361 Par ch=1 c=64 v=127
86397 On ch=1 n=g#5 v=0
86407 On ch=1 n=d6 v=0
86616 On ch=1 n=g#5 v=66
86616 On ch=1 n=d6 v=62
86653 Par ch=1 c=64 v=63
86677 Par ch=1 c=64 v=0
86751 Par ch=1 c=64 v=63
86787 Par ch=1 c=64 v=127
86813 On ch=1 n=d6 v=0
86814 On ch=1 n=g#5 v=0
86874 Par ch=1 c=64 v=63
86897 Par ch=1 c=64 v=0
86943 On ch=1 n=g#5 v=74
86947 On ch=1 n=d6 v=71
86952 Par ch=1 c=64 v=63
86972 Par ch=1 c=64 v=127
87041 On ch=1 n=g#5 v=0
87043 On ch=1 n=d6 v=0
87259 Par ch=1 c=64 v=63
87301 On ch=1 n=c#6 v=57
87306 On ch=1 n=a5 v=42
87315 Par ch=1 c=64 v=0
87451 Par ch=1 c=64 v=63
87493 Par ch=1 c=64 v=127
87520 On ch=1 n=a6 v=51
87524 On ch=1 n=e6 v=0
87672 On ch=1 n=g#6 v=65
87700 On ch=1 n=a6 v=0
87703 On ch=1 n=c#6 v=0
87725 On ch=1 n=a5 v=0
87816 On ch=1 n=g6 v=80
87859 On ch=1 n=g#6 v=0
87961 On ch=1 n=d6 v=65
87964 On ch=1 n=f6 v=91
87966 On ch=1 n=d5 v=51
87988 On ch=1 n=g6 v=0
88075 Par ch=1 c=64 v=63
88111 On ch=1 n=f#6 v=88
88129 On ch=1 n=f6 v=0
88153 Par ch=1 c=64 v=127
88184 On ch=1 n=d6 v=0
88227 Par ch=1 c=64 v=63
88249 On ch=1 n=e6 v=81
88263 On ch=1 n=f#6 v=0
88294 Par ch=1 c=64 v=0
88392 On ch=1 n=d6 v=79
88399 On ch=1 n=e6 v=0
88532 On ch=1 n=c#6 v=72
88550 On ch=1 n=d6 v=0
88627 On ch=1 n=d5 v=0
88681 On ch=1 n=b5 v=63
88703 On ch=1 n=c#6 v=0
88824 On ch=1 n=d6 v=69
88854 On ch=1 n=b5 v=0
88981 On ch=1 n=f#6 v=62
89007 On ch=1 n=d6 v=0
89159 On ch=1 n=a5 v=61
89162 On ch=1 n=c#5 v=54
89171 On ch=1 n=f#6 v=0
89176 On ch=1 n=e4 v=37
89403 Par ch=1 c=64 v=63
89413 Par ch=1 c=64 v=127
89536 On ch=1 n=c#5 v=0
89692 On ch=1 n=a5 v=0
89695 On ch=1 n=b5 v=57
89755 On ch=1 n=a5 v=51
89764 On ch=1 n=b5 v=0
89833 On ch=1 n=g#5 v=48
89838 On ch=1 n=a5 v=0
89847 On ch=1 n=b4 v=47
89878 Par ch=1 c=64 v=63
89898 Par ch=1 c=64 v=0
89943 On ch=1 n=g#5 v=0
90023 On ch=1 n=e5 v=61
90149 Par ch=1 c=64 v=63
90159 Par ch=1 c=64 v=127
90161 On ch=1 n=f#5 v=65
90189 On ch=1 n=e5 v=0
90297 On ch=1 n=g#5 v=80
90311 On ch=1 n=b4 v=0
90326 On ch=1 n=f#5 v=0
90347 On ch=1 n=e4 v=0
90443 On ch=1 n=a5 v=85
90466 Par ch=1 c=64 v=63
90474 On ch=1 n=g#5 v=0
90496 Par ch=1 c=64 v=0
90592 On ch=1 n=a#5 v=88
90631 On ch=1 n=a5 v=0
90740 On ch=1 n=b5 v=88
90771 On ch=1 n=a#5 v=0
90890 On ch=1 n=c6 v=99
90917 On ch=1 n=b5 v=0
90999 Par ch=1 c=64 v=63
91021 Par ch=1 c=64 v=127
91095 On ch=1 n=c#6 v=97
91101 On ch=1 n=a5 v=76
91102 On ch=1 n=a4 v=65
91112 On ch=1 n=c6 v=0
91241 Par ch=1 c=64 v=63
91257 Par ch=1 c=64 v=0
91327 Par ch=1 c=64 v=63
91339 Par ch=1 c=64 v=127
91424 On ch=1 n=c#6 v=0
91595 On ch=1 n=a5 v=0
91621 On ch=1 n=a4 v=0
91710 On ch=1 n=d6 v=72
91748 On ch=1 n=c#6 v=87
91766 On ch=1 n=d6 v=0
91795 On ch=1 n=b5 v=78
91798 On ch=1 n=c#6 v=0
91827 On ch=1 n=c#6 v=84
91851 On ch=1 n=b5 v=0
91873 On ch=1 n=e6 v=76
91877 On ch=1 n=g#5 v=61
91888 On ch=1 n=b4 v=54
91898 On ch=1 n=c#6 v=0
91909 Par ch=1 c=64 v=63
91938 Par ch=1 c=64 v=0
92190 On ch=1 n=d6 v=76
92228 On ch=1 n=e6 v=0
92342 Par ch=1 c=64 v=63
92356 Par ch=1 c=64 v=127
92412 On ch=1 n=g#5 v=0
92469 On ch=1 n=d6 v=0
92486 On ch=1 n=b4 v=0
92493 On ch=1 n=b5 v=63
92510 On ch=1 n=d5 v=50
92511 On ch=1 n=e5 v=48
92605 Par ch=1 c=64 v=63
92628 Par ch=1 c=64 v=0
92830 On ch=1 n=g#5 v=67
92845 On ch=1 n=b5 v=0
92849 Par ch=1 c=64 v=63
92859 Par ch=1 c=64 v=127
93110 On ch=1 n=e5 v=0
93112 On ch=1 n=g#5 v=0
93164 On ch=1 n=d5 v=0
93195 On ch=1 n=a5 v=60
93197 On ch=1 n=c#5 v=45
93202 On ch=1 n=e5 v=20
93269 Par ch=1 c=64 v=63
93296 Par ch=1 c=64 v=0
93467 Par ch=1 c=64 v=63
93477 Par ch=1 c=64 v=127
93604 On ch=1 n=e5 v=0
93613 On ch=1 n=c#5 v=0
93710 On ch=1 n=c#6 v=70
93717 On ch=1 n=a5 v=0
93788 On ch=1 n=a5 v=69
93794 On ch=1 n=c#6 v=0
93805 Par ch=1 c=64 v=63
93853 Par ch=1 c=64 v=0
93869 On ch=1 n=f6 v=85
93899 On ch=1 n=a5 v=0
94173 On ch=1 n=b5 v=86
94183 On ch=1 n=d5 v=71
94241 Par ch=1 c=64 v=63
94256 Par ch=1 c=64 v=127
94401 On ch=1 n=b5 v=0
94496 On ch=1 n=c6 v=89
94499 On ch=1 n=d#5 v=89
94517 On ch=1 n=d5 v=0
94561 Par ch=1 c=64 v=63
94586 Par ch=1 c=64 v=0
94630 Par ch=1 c=64 v=63
94652 Par ch=1 c=64 v=127
94661 On ch=1 n=f#6 v=97
94684 On ch=1 n=f6 v=0
94783 On ch=1 n=c6 v=0
94789 On ch=1 n=d#5 v=0
94821 On ch=1 n=g#6 v=105
94825 On ch=1 n=c6 v=59
94825 On ch=1 n=d#5 v=70
94855 On ch=1 n=f#6 v=0
94957 On ch=1 n=d#5 v=0
94977 On ch=1 n=a6 v=100
94986 On ch=1 n=c6 v=0
95008 On ch=1 n=g#6 v=0
95137 On ch=1 n=a6 v=0
95182 On ch=1 n=c#6 v=80
95188 On ch=1 n=a6 v=100
95199 On ch=1 n=e5 v=54
95299 Par ch=1 c=64 v=63
95335 Par ch=1 c=64 v=0
95545 Par ch=1 c=64 v=63
95550 Par ch=1 c=64 v=127
95656 On ch=1 n=b6 v=71
95665 On ch=1 n=a6 v=0
95733 On ch=1 n=c#7 v=88
95743 On ch=1 n=b6 v=0
95811 On ch=1 n=a6 v=90
95832 On ch=1 n=c#7 v=0
95904 On ch=1 n=e6 v=88
95906 On ch=1 n=a6 v=0
95917 Par ch=1 c=64 v=63
95935 Par ch=1 c=64 v=0
95987 On ch=1 n=e5 v=0
96005 On ch=1 n=c#6 v=0
96043 On ch=1 n=a6 v=75
96060 On ch=1 n=e6 v=0
96203 On ch=1 n=c#6 v=68
96232 On ch=1 n=a6 v=0
96372 On ch=1 n=f#6 v=72
96401 On ch=1 n=c#6 v=0
96518 On ch=1 n=e6 v=73
96539 On ch=1 n=f#6 v=0
96681 On ch=1 n=d#6 v=72
96700 On ch=1 n=e6 v=0
96831 On ch=1 n=d5 v=53
96841 On ch=1 n=d#6 v=0
96841 On ch=1 n=d6 v=66
96843 On ch=1 n=e4 v=44
96860 Par ch=1 c=64 v=63
96866 Par ch=1 c=64 v=127
96972 On ch=1 n=e4 v=0
96973 On ch=1 n=d6 v=0
96985 On ch=1 n=d5 v=0
96999 On ch=1 n=b5 v=72
97067 On ch=1 n=b5 v=0
97181 On ch=1 n=b5 v=68
97192 On ch=1 n=d5 v=36
97199 On ch=1 n=a4 v=38
97251 Par ch=1 c=64 v=63
97270 Par ch=1 c=64 v=0
97509 Par ch=1 c=64 v=63
97514 Par ch=1 c=64 v=127
97876 On ch=1 n=a5 v=34
97885 On ch=1 n=d5 v=0
97890 On ch=1 n=c#5 v=31
97897 On ch=1 n=b5 v=0
97923 Par ch=1 c=64 v=63
97994 Par ch=1 c=64 v=127
98034 On ch=1 n=c#5 v=0
98064 On ch=1 n=a4 v=0
98217 On ch=1 n=e4 v=60
98287 Par ch=1 c=64 v=63
98297 On ch=1 n=a5 v=0
98323 Par ch=1 c=64 v=0
98549 On ch=1 n=c#4 v=55
98613 On ch=1 n=e4 v=0
98932 On ch=1 n=a3 v=51
98966 On ch=1 n=c#4 v=0
99328 On ch=1 n=d6 v=76
99337 On ch=1 n=e4 v=48
99347 On ch=1 n=a3 v=0
99404 Par ch=1 c=64 v=63
99421 Par ch=1 c=64 v=127
99606 Par ch=1 c=64 v=63
99613 Par ch=1 c=64 v=0
99643 Par ch=1 c=64 v=63
99660 Par ch=1 c=64 v=127
99723 On ch=1 n=g#4 v=50
99727 On ch=1 n=b4 v=35
99794 On ch=1 n=g#4 v=0
99808 On ch=1 n=b4 v=0
99826 On ch=1 n=f#6 v=72
99849 On ch=1 n=d6 v=0
99903 On ch=1 n=e6 v=76
99914 On ch=1 n=f#6 v=0
99974 On ch=1 n=f#6 v=72
99983 On ch=1 n=e6 v=0
100045 On ch=1 n=f#6 v=0
100057 On ch=1 n=d6 v=70
100057 On ch=1 n=g#4 v=51
100063 On ch=1 n=b4 v=49
100097 Par ch=1 c=64 v=63
100119 On ch=1 n=d6 v=0
100121 Par ch=1 c=64 v=0
100127 On ch=1 n=e6 v=73
100192 Par ch=1 c=64 v=63
100199 On ch=1 n=c#6 v=72
100202 On ch=1 n=e6 v=0
100221 On ch=1 n=g#4 v=0
100239 Par ch=1 c=64 v=127
100273 On ch=1 n=d6 v=76
100275 On ch=1 n=c#6 v=0
100328 On ch=1 n=a4 v=45
100338 On ch=1 n=c#5 v=82
100339 On ch=1 n=d6 v=0
100347 On ch=1 n=b5 v=75
100357 On ch=1 n=b4 v=0
100393 Par ch=1 c=64 v=63
100414 Par ch=1 c=64 v=127
100416 On ch=1 n=b5 v=0
100416 On ch=1 n=c#6 v=73
100471 On ch=1 n=c#5 v=0
100471 On ch=1 n=c#6 v=0
100479 On ch=1 n=a5 v=65
100536 On ch=1 n=a4 v=0
100540 On ch=1 n=a5 v=0
100543 On ch=1 n=b5 v=64
100625 On ch=1 n=b5 v=0
100631 On ch=1 n=g#5 v=73
100632 On ch=1 n=b4 v=38
100635 On ch=1 n=d5 v=42
100638 Par ch=1 c=64 v=63
100652 Par ch=1 c=64 v=0
100769 On ch=1 n=b4 v=0
100779 On ch=1 n=d5 v=0
100795 Par ch=1 c=64 v=63
100805 Par ch=1 c=64 v=127
100890 On ch=1 n=g#5 v=0
100947 On ch=1 n=b4 v=39
100951 On ch=1 n=d5 v=46
101087 On ch=1 n=e4 v=0
101179 On ch=1 n=b4 v=0
101222 On ch=1 n=d5 v=0
101271 On ch=1 n=e6 v=79
101280 On ch=1 n=a4 v=48
101311 Par ch=1 c=64 v=63
101325 Par ch=1 c=64 v=0
101393 Par ch=1 c=64 v=63
101403 Par ch=1 c=64 v=127
101477 On ch=1 n=e6 v=0
101589 On ch=1 n=c#5 v=48
101606 On ch=1 n=e5 v=47
101645 On ch=1 n=c#5 v=0
101652 On ch=1 n=e5 v=0
101664 On ch=1 n=d#6 v=74
101729 On ch=1 n=f#6 v=82
101747 On ch=1 n=d#6 v=0
101784 On ch=1 n=f#6 v=0
101791 On ch=1 n=e6 v=84
101858 On ch=1 n=e6 v=0
101877 On ch=1 n=a6 v=83
101879 On ch=1 n=c#5 v=51
101893 On ch=1 n=e5 v=47
101941 On ch=1 n=g#6 v=92
101950 On ch=1 n=a6 v=0
102005 On ch=1 n=b6 v=91
102015 On ch=1 n=g#6 v=0
102022 On ch=1 n=e5 v=0
102056 On ch=1 n=b6 v=0
102062 On ch=1 n=a6 v=98
102142 On ch=1 n=c#5 v=0
102145 On ch=1 n=c#7 v=104
102160 On ch=1 n=d5 v=56
102161 On ch=1 n=b4 v=51
102165 On ch=1 n=a6 v=0
102217 On ch=1 n=b6 v=90
102227 On ch=1 n=c#7 v=0
102239 Par ch=1 c=64 v=63
102274 Par ch=1 c=64 v=0
102277 On ch=1 n=d7 v=98
102301 On ch=1 n=b6 v=0
102340 On ch=1 n=c#7 v=107
102372 On ch=1 n=d7 v=0
102441 On ch=1 n=e7 v=99
102442 On ch=1 n=b4 v=0
102453 On ch=1 n=c#5 v=71
102460 On ch=1 n=c#7 v=0
102469 On ch=1 n=d5 v=0
102549 Par ch=1 c=64 v=63
102553 Par ch=1 c=64 v=127
102616 On ch=1 n=c#5 v=0
102630 On ch=1 n=a4 v=0
102777 On ch=1 n=b4 v=53
102783 On ch=1 n=g#4 v=69
102859 Par ch=1 c=64 v=63
102871 Par ch=1 c=64 v=0
102917 Par ch=1 c=64 v=63
102927 Par ch=1 c=64 v=127
102978 On ch=1 n=e7 v=0
103091 On ch=1 n=b4 v=0
103165 On ch=1 n=f#4 v=67
103168 On ch=1 n=a6 v=76
103186 On ch=1 n=g#4 v=0
103274 Par ch=1 c=64 v=63
103285 Par ch=1 c=64 v=0
103353 Par ch=1 c=64 v=63
103361 Par ch=1 c=64 v=127
103493 On ch=1 n=c#5 v=56
103503 On ch=1 n=a4 v=35
103552 On ch=1 n=c#5 v=0
103577 On ch=1 n=a4 v=0
103578 On ch=1 n=c#7 v=76
103596 On ch=1 n=a6 v=0
103649 On ch=1 n=b6 v=78
103658 On ch=1 n=c#7 v=0
103714 On ch=1 n=c#7 v=95
103725 On ch=1 n=b6 v=0
103777 On ch=1 n=c#7 v=0
103785 On ch=1 n=a6 v=78
103788 On ch=1 n=c#5 v=69
103799 On ch=1 n=a4 v=41
103832 On ch=1 n=a6 v=0
103841 On ch=1 n=c#5 v=0
103849 On ch=1 n=b6 v=83
103859 On ch=1 n=a4 v=0
103924 On ch=1 n=g#6 v=97
103941 On ch=1 n=b6 v=0
103994 On ch=1 n=a6 v=87
104012 On ch=1 n=g#6 v=0
104064 On ch=1 n=c#5 v=76
104069 Par ch=1 c=64 v=63
104072 On ch=1 n=a4 v=57
104076 On ch=1 n=f#6 v=99
104084 On ch=1 n=a6 v=0
104136 Par ch=1 c=64 v=127
104148 On ch=1 n=g#6 v=97
104158 On ch=1 n=f#6 v=0
104180 On ch=1 n=c#5 v=0
104185 On ch=1 n=a4 v=0
104203 On ch=1 n=g#6 v=0
104207 On ch=1 n=e6 v=78
104266 On ch=1 n=f#6 v=101
104273 On ch=1 n=e6 v=0
104340 On ch=1 n=b4 v=74
104344 On ch=1 n=a4 v=65
104346 On ch=1 n=f#6 v=0
104346 On ch=1 n=d#6 v=93
104373 Par ch=1 c=64 v=63
104391 Par ch=1 c=64 v=0
104406 On ch=1 n=e6 v=87
104408 On ch=1 n=d#6 v=0
104461 Par ch=1 c=64 v=63
104472 Par ch=1 c=64 v=127
104481 On ch=1 n=f#6 v=98
104497 On ch=1 n=e6 v=0
104529 On ch=1 n=a4 v=0
104538 On ch=1 n=b4 v=0
104538 On ch=1 n=g#6 v=105
104561 On ch=1 n=f#6 v=0
104615 On ch=1 n=b6 v=92
104622 On ch=1 n=b4 v=73
104622 On ch=1 n=a4 v=63
104634 On ch=1 n=g#6 v=0
104634 Par ch=1 c=64 v=63
104688 On ch=1 n=a6 v=99
104689 Par ch=1 c=64 v=127
104706 On ch=1 n=b6 v=0
104720 On ch=1 n=a4 v=0
104741 On ch=1 n=b4 v=0
104763 On ch=1 n=f#6 v=103
104768 On ch=1 n=a6 v=0
104819 On ch=1 n=f#6 v=0
104819 On ch=1 n=d#6 v=101
104843 On ch=1 n=f#4 v=0
104914 On ch=1 n=e4 v=57
104914 On ch=1 n=b4 v=66
104915 On ch=1 n=f#6 v=100
104918 On ch=1 n=a4 v=57
104920 On ch=1 n=d#6 v=0
104999 Par ch=1 c=64 v=63
105025 Par ch=1 c=64 v=0
105547 On ch=1 n=g#4 v=61
105593 On ch=1 n=a4 v=0
105732 On ch=1 n=d#6 v=66
105738 Par ch=1 c=64 v=63
105748 On ch=1 n=f#6 v=0
105763 Par ch=1 c=64 v=127
105872 On ch=1 n=e6 v=84
105892 On ch=1 n=d#6 v=0
106001 On ch=1 n=f6 v=96
106031 On ch=1 n=e6 v=0
106143 Par ch=1 c=64 v=63
106155 On ch=1 n=g#6 v=91
106178 On ch=1 n=f6 v=0
106189 Par ch=1 c=64 v=0
106191 On ch=1 n=e4 v=0
106242 On ch=1 n=b4 v=0
106256 On ch=1 n=g#4 v=0
106297 On ch=1 n=f#6 v=97
106356 On ch=1 n=g#6 v=0
106433 On ch=1 n=e6 v=97
106474 On ch=1 n=f#6 v=0
106574 On ch=1 n=d6 v=91
106604 On ch=1 n=e6 v=0
106759 On ch=1 n=c#6 v=93
106765 On ch=1 n=g5 v=81
106776 On ch=1 n=a#4 v=70
106782 On ch=1 n=d6 v=0
106988 Par ch=1 c=64 v=63
106999 Par ch=1 c=64 v=127
107121 On ch=1 n=c#6 v=0
107293 On ch=1 n=a#4 v=0
107371 On ch=1 n=d6 v=76
107378 On ch=1 n=g5 v=0
107409 On ch=1 n=c#6 v=80
107418 On ch=1 n=d6 v=0
107442 On ch=1 n=b5 v=84
107445 On ch=1 n=c#6 v=0
107478 On ch=1 n=c#6 v=85
107502 On ch=1 n=b5 v=0
107521 On ch=1 n=e6 v=87
107523 Par ch=1 c=64 v=63
107534 On ch=1 n=f#5 v=78
107536 On ch=1 n=b4 v=60
107546 On ch=1 n=c#6 v=0
107547 Par ch=1 c=64 v=0
107823 On ch=1 n=d6 v=81
107839 Par ch=1 c=64 v=63
107843 On ch=1 n=e6 v=0
107853 Par ch=1 c=64 v=127
107928 On ch=1 n=b4 v=0
107963 On ch=1 n=f#5 v=0
107969 On ch=1 n=d6 v=0
108100 On ch=1 n=b5 v=71
108115 On ch=1 n=d5 v=49
108115 On ch=1 n=f5 v=46
108181 Par ch=1 c=64 v=63
108205 Par ch=1 c=64 v=0
108397 On ch=1 n=g#5 v=73
108405 On ch=1 n=b5 v=0
108416 Par ch=1 c=64 v=63
108423 Par ch=1 c=64 v=127
108521 On ch=1 n=d5 v=0
108596 On ch=1 n=f5 v=0
108624 On ch=1 n=g#5 v=0
108722 On ch=1 n=a5 v=63
108724 On ch=1 n=c#5 v=47
108735 On ch=1 n=e5 v=33
108799 Par ch=1 c=64 v=63
108823 Par ch=1 c=64 v=0
109014 Par ch=1 c=64 v=63
109026 Par ch=1 c=64 v=127
109240 On ch=1 n=a5 v=0
109241 On ch=1 n=e5 v=0
109252 On ch=1 n=c#6 v=70
109267 On ch=1 n=c#5 v=0
109313 On ch=1 n=a5 v=68
109345 On ch=1 n=c#6 v=0
109370 Par ch=1 c=64 v=63
109396 On ch=1 n=g6 v=88
109434 Par ch=1 c=64 v=0
109465 On ch=1 n=a5 v=0
109701 Par ch=1 c=64 v=63
109717 On ch=1 n=a#5 v=80
109726 On ch=1 n=c#5 v=78
109750 Par ch=1 c=64 v=127
109825 Par ch=1 c=64 v=63
109860 Par ch=1 c=64 v=127
109961 On ch=1 n=a#5 v=0
109983 On ch=1 n=c#5 v=0
110038 On ch=1 n=b5 v=92
110042 On ch=1 n=d5 v=89
110066 Par ch=1 c=64 v=63
110123 Par ch=1 c=64 v=127
110215 On ch=1 n=b5 v=0
110241 On ch=1 n=d5 v=0
110375 On ch=1 n=c#6 v=105
110379 On ch=1 n=e5 v=84
110403 On ch=1 n=g6 v=0
110419 On ch=1 n=c#6 v=0
110420 On ch=1 n=e5 v=0
110775 On ch=1 n=f6 v=87
110779 On ch=1 n=d6 v=78
110788 On ch=1 n=d5 v=64
110797 Par ch=1 c=64 v=63
110859 Par ch=1 c=64 v=127
110859 On ch=1 n=f#6 v=88
110864 On ch=1 n=f6 v=0
110929 On ch=1 n=f#6 v=0
110934 On ch=1 n=g#6 v=81
110961 On ch=1 n=d6 v=0
110988 On ch=1 n=f#6 v=85
111006 On ch=1 n=g#6 v=0
111030 On ch=1 n=d5 v=0
111057 Par ch=1 c=64 v=63
111058 Par ch=1 c=64 v=127
111063 Par ch=1 c=64 v=63
111064 On ch=1 n=e6 v=87
111074 On ch=1 n=f#6 v=0
111095 Par ch=1 c=64 v=0
111122 On ch=1 n=e6 v=0
111128 On ch=1 n=d6 v=78
111193 On ch=1 n=d6 v=0
111198 On ch=1 n=c#6 v=88
111258 On ch=1 n=b5 v=87
111261 On ch=1 n=c#6 v=0
111327 On ch=1 n=b5 v=0
111349 On ch=1 n=c#5 v=61
111350 On ch=1 n=a5 v=73
111368 On ch=1 n=e4 v=39
111382 On ch=1 n=a5 v=0
111505 On ch=1 n=c#6 v=82
111536 On ch=1 n=c#6 v=0
111674 On ch=1 n=e4 v=0
111686 On ch=1 n=c#5 v=0
111696 On ch=1 n=e6 v=73
112061 On ch=1 n=d5 v=45
112071 On ch=1 n=e4 v=38
112079 Par ch=1 c=64 v=63
112089 Par ch=1 c=64 v=127
112224 On ch=1 n=e6 v=0
112246 On ch=1 n=e5 v=56
112438 On ch=1 n=f#5 v=62
112448 On ch=1 n=d5 v=0
112462 On ch=1 n=e5 v=0
112494 On ch=1 n=e4 v=0
112647 On ch=1 n=g#5 v=76
112678 On ch=1 n=f#5 v=0
112928 On ch=1 n=a5 v=65
112933 On ch=1 n=a3 v=46
112942 On ch=1 n=g#5 v=0
112945 Par ch=1 c=64 v=63
112960 Par ch=1 c=64 v=0
112997 Par ch=1 c=64 v=63
113008 Par ch=1 c=64 v=127
113049 On ch=1 n=a3 v=0
113234 On ch=1 n=c#5 v=67
113243 On ch=1 n=a4 v=48
113284 On ch=1 n=a5 v=0
113291 On ch=1 n=c#5 v=0
113311 On ch=1 n=a4 v=0
113413 On ch=1 n=c#5 v=75
113424 On ch=1 n=a4 v=60
113494 On ch=1 n=c#5 v=0
113509 On ch=1 n=a4 v=0
113561 On ch=1 n=c#5 v=89
113565 On ch=1 n=a4 v=67
113634 On ch=1 n=c#5 v=0
113649 On ch=1 n=a4 v=0
113705 On ch=1 n=c#5 v=95
113707 On ch=1 n=a4 v=66
113798 On ch=1 n=c#5 v=0
113808 On ch=1 n=a4 v=0
113834 On ch=1 n=a6 v=94
113843 On ch=1 n=c#5 v=70
113848 On ch=1 n=a4 v=62
113940 On ch=1 n=c#5 v=0
113957 On ch=1 n=a4 v=0
113998 On ch=1 n=a4 v=50
113999 On ch=1 n=c#5 v=80
114002 On ch=1 n=c#7 v=100
114023 On ch=1 n=a6 v=0
114072 On ch=1 n=c#5 v=0
114082 On ch=1 n=a4 v=0
114135 On ch=1 n=c#7 v=0
114139 On ch=1 n=e6 v=96
114144 On ch=1 n=c#5 v=90
114148 On ch=1 n=a4 v=68
114236 On ch=1 n=a4 v=0
114258 On ch=1 n=c#5 v=0
114277 On ch=1 n=f6 v=97
114279 On ch=1 n=d5 v=81
114280 On ch=1 n=a4 v=55
114308 On ch=1 n=e6 v=0
114330 Par ch=1 c=64 v=63
114342 Par ch=1 c=64 v=0
114383 Par ch=1 c=64 v=63
114394 On ch=1 n=a4 v=0
114395 Par ch=1 c=64 v=127
114396 On ch=1 n=d5 v=0
114422 On ch=1 n=f#6 v=105
114431 On ch=1 n=d5 v=70
114433 On ch=1 n=a4 v=55
114443 On ch=1 n=f6 v=0
114495 On ch=1 n=d5 v=0
114501 On ch=1 n=a4 v=0
114553 On ch=1 n=a6 v=94
114571 On ch=1 n=d5 v=80
114575 On ch=1 n=a4 v=64
114598 On ch=1 n=f#6 v=0
114629 On ch=1 n=d5 v=0
114646 On ch=1 n=a4 v=0
114698 On ch=1 n=a4 v=68
114698 On ch=1 n=d5 v=79
114702 On ch=1 n=f#6 v=97
114731 On ch=1 n=d5 v=0
114737 On ch=1 n=a6 v=0
114738 On ch=1 n=a4 v=0
114845 Par ch=1 c=64 v=63
114847 On ch=1 n=d#6 v=96
114856 Par ch=1 c=64 v=0
114861 On ch=1 n=a3 v=96
114864 On ch=1 n=f#6 v=0
114899 Par ch=1 c=64 v=63
114913 Par ch=1 c=64 v=127
114962 On ch=1 n=a3 v=0
115056 On ch=1 n=a4 v=63
115071 On ch=1 n=c#5 v=80
115123 On ch=1 n=c#5 v=0
115135 On ch=1 n=d#6 v=0
115135 On ch=1 n=a4 v=0
115218 On ch=1 n=c#5 v=74
115224 On ch=1 n=a4 v=46
115232 On ch=1 n=e6 v=84
115266 On ch=1 n=c#5 v=0
115275 On ch=1 n=a4 v=0
115301 On ch=1 n=e6 v=0
115351 On ch=1 n=c#5 v=80
115358 On ch=1 n=a4 v=52
115403 On ch=1 n=c#5 v=0
115422 On ch=1 n=a4 v=0
115487 On ch=1 n=c#5 v=91
115489 On ch=1 n=a4 v=62
115569 On ch=1 n=c#5 v=0
115577 On ch=1 n=a4 v=0
115616 On ch=1 n=a6 v=96
115625 On ch=1 n=c#5 v=88
115630 On ch=1 n=a4 v=60
115698 On ch=1 n=c#5 v=0
115708 On ch=1 n=a4 v=0
115757 On ch=1 n=c#7 v=108
115757 On ch=1 n=c#5 v=83
115763 On ch=1 n=a4 v=61
115777 On ch=1 n=a6 v=0
115817 On ch=1 n=c#5 v=0
115825 On ch=1 n=a4 v=0
115888 On ch=1 n=c#7 v=0
115893 On ch=1 n=e6 v=98
115896 On ch=1 n=c#5 v=92
115904 On ch=1 n=a4 v=63
115972 On ch=1 n=a4 v=0
115995 On ch=1 n=c#5 v=0
116031 On ch=1 n=d5 v=80
116033 On ch=1 n=a4 v=60
116033 On ch=1 n=f6 v=98
116051 Par ch=1 c=64 v=63
116057 On ch=1 n=e6 v=0
116059 Par ch=1 c=64 v=0
116120 Par ch=1 c=64 v=63
116131 Par ch=1 c=64 v=127
116140 On ch=1 n=d5 v=0
116143 On ch=1 n=a4 v=0
116174 On ch=1 n=f#6 v=91
116182 On ch=1 n=d5 v=60
116187 On ch=1 n=f6 v=0
116192 On ch=1 n=a4 v=42
116237 On ch=1 n=d5 v=0
116240 On ch=1 n=a4 v=0
116311 On ch=1 n=a6 v=83
116315 On ch=1 n=d5 v=67
116325 On ch=1 n=a4 v=43
116345 On ch=1 n=f#6 v=0
116371 On ch=1 n=d5 v=0
116381 On ch=1 n=a4 v=0
116417 Par ch=1 c=64 v=63
116453 On ch=1 n=f#6 v=85
116456 On ch=1 n=d5 v=68
116459 On ch=1 n=a4 v=52
116466 On ch=1 n=a6 v=0
116467 Par ch=1 c=64 v=127
116502 On ch=1 n=f#6 v=0
116510 On ch=1 n=d5 v=0
116520 On ch=1 n=a4 v=0
116598 On ch=1 n=a4 v=38
116598 On ch=1 n=c#5 v=64
116606 On ch=1 n=d#6 v=80
116631 Par ch=1 c=64 v=63
116672 On ch=1 n=e6 v=59
116691 On ch=1 n=d#6 v=0
116706 Par ch=1 c=64 v=127
116734 On ch=1 n=f#6 v=73
116737 On ch=1 n=e6 v=0
116808 On ch=1 n=e6 v=60
116812 On ch=1 n=f#6 v=0
116859 On ch=1 n=e6 v=0
116863 On ch=1 n=c#5 v=0
116871 On ch=1 n=d6 v=71
116882 On ch=1 n=a4 v=0
116915 Par ch=1 c=64 v=63
116935 On ch=1 n=c#6 v=78
116938 On ch=1 n=d6 v=0
116953 Par ch=1 c=64 v=0
117001 On ch=1 n=c#6 v=0
117003 On ch=1 n=b5 v=82
117058 On ch=1 n=b5 v=0
117058 On ch=1 n=a5 v=83
117156 On ch=1 n=a5 v=0
117159 On ch=1 n=c#6 v=88
117160 On ch=1 n=e5 v=50
117164 On ch=1 n=e4 v=47
117336 Par ch=1 c=64 v=63
117343 Par ch=1 c=64 v=127
117491 On ch=1 n=c#6 v=0
117547 On ch=1 n=e4 v=0
117548 On ch=1 n=e5 v=0
117567 Par ch=1 c=64 v=63
117594 Par ch=1 c=64 v=0
117752 Par ch=1 c=64 v=63
117773 Par ch=1 c=64 v=127
117839 On ch=1 n=d5 v=51
117848 On ch=1 n=e4 v=41
117891 On ch=1 n=b5 v=51
117926 On ch=1 n=b5 v=0
117928 On ch=1 n=c#6 v=76
117957 On ch=1 n=c#6 v=0
117966 On ch=1 n=b5 v=69
118164 On ch=1 n=b5 v=0
118171 On ch=1 n=a5 v=60
118227 On ch=1 n=b5 v=71
118230 Par ch=1 c=64 v=63
118234 On ch=1 n=a5 v=0
118283 Par ch=1 c=64 v=127
118359 On ch=1 n=d5 v=0
118386 On ch=1 n=e4 v=0
118532 On ch=1 n=c#6 v=73
118540 On ch=1 n=b5 v=0
118594 Par ch=1 c=64 v=63
118604 On ch=1 n=c#6 v=0
118612 On ch=1 n=a5 v=59
118620 On ch=1 n=a3 v=52
118655 Par ch=1 c=64 v=127
118700 On ch=1 n=a3 v=0
118815 On ch=1 n=a5 v=0
118845 On ch=1 n=c#5 v=57
118906 On ch=1 n=c#5 v=0
118996 On ch=1 n=c#5 v=82
118998 On ch=1 n=a4 v=60
119063 On ch=1 n=c#5 v=0
119080 On ch=1 n=a4 v=0
119131 On ch=1 n=c#5 v=84
119134 On ch=1 n=a4 v=59
119206 On ch=1 n=c#5 v=0
119221 On ch=1 n=a4 v=0
119261 On ch=1 n=c#5 v=94
119263 On ch=1 n=a4 v=63
119343 On ch=1 n=c#5 v=0
119361 On ch=1 n=a4 v=0
119394 On ch=1 n=c#5 v=85
119395 On ch=1 n=a4 v=54
119397 On ch=1 n=a6 v=99
119479 On ch=1 n=c#5 v=0
119494 On ch=1 n=a4 v=0
119533 On ch=1 n=c#5 v=80
119535 On ch=1 n=a4 v=59
119550 On ch=1 n=c#7 v=106
119578 On ch=1 n=a6 v=0
119606 On ch=1 n=c#5 v=0
119625 On ch=1 n=a4 v=0
119671 On ch=1 n=c#5 v=86
119673 On ch=1 n=a4 v=55
119678 On ch=1 n=c#7 v=0
119679 On ch=1 n=e6 v=102
119763 On ch=1 n=a4 v=0
119769 On ch=1 n=c#5 v=0
119812 On ch=1 n=d5 v=75
119814 On ch=1 n=f6 v=100
119817 On ch=1 n=a4 v=57
119844 On ch=1 n=e6 v=0
119860 Par ch=1 c=64 v=63
119876 Par ch=1 c=64 v=0
119898 Par ch=1 c=64 v=63
119918 On ch=1 n=d5 v=0
119919 Par ch=1 c=64 v=127
119930 On ch=1 n=a4 v=0
119954 On ch=1 n=f#6 v=101
119958 On ch=1 n=d5 v=63
119965 On ch=1 n=a4 v=64
119975 On ch=1 n=f6 v=0
120018 On ch=1 n=d5 v=0
120023 On ch=1 n=a4 v=0
120083 On ch=1 n=a6 v=84
120093 On ch=1 n=d5 v=50
120097 On ch=1 n=a4 v=34
120121 On ch=1 n=f#6 v=0
120146 On ch=1 n=d5 v=0
120157 On ch=1 n=a4 v=0
120223 On ch=1 n=f#6 v=88
120230 On ch=1 n=d5 v=66
120231 On ch=1 n=a4 v=57
120242 On ch=1 n=a6 v=0
120264 On ch=1 n=a4 v=0
120266 On ch=1 n=d5 v=0
120361 Par ch=1 c=64 v=63
120367 Par ch=1 c=64 v=0
120381 On ch=1 n=f#6 v=0
120383 On ch=1 n=d#6 v=84
120392 On ch=1 n=a3 v=79
120419 Par ch=1 c=64 v=63
120427 Par ch=1 c=64 v=127
120478 On ch=1 n=a3 v=0
120601 On ch=1 n=a4 v=25
120602 On ch=1 n=c#5 v=74
120658 On ch=1 n=c#5 v=0
120681 On ch=1 n=a4 v=0
120697 On ch=1 n=d#6 v=0
120751 On ch=1 n=a4 v=49
120756 On ch=1 n=c#5 v=68
120760 On ch=1 n=e6 v=92
120804 On ch=1 n=c#5 v=0
120819 On ch=1 n=a4 v=0
120882 On ch=1 n=c#5 v=86
120884 On ch=1 n=a4 v=66
120939 On ch=1 n=e6 v=0
120942 On ch=1 n=c#5 v=0
120963 On ch=1 n=a4 v=0
121018 On ch=1 n=a4 v=67
121021 On ch=1 n=c#5 v=93
121106 On ch=1 n=c#5 v=0
121124 On ch=1 n=a4 v=0
121157 On ch=1 n=a6 v=99
121159 On ch=1 n=a4 v=54
121161 On ch=1 n=c#5 v=88
121232 On ch=1 n=c#5 v=0
121250 On ch=1 n=a4 v=0
121304 On ch=1 n=c#5 v=84
121306 On ch=1 n=c#7 v=106
121307 On ch=1 n=a4 v=61
121334 On ch=1 n=a6 v=0
121356 On ch=1 n=c#5 v=0
121368 On ch=1 n=a4 v=0
121430 On ch=1 n=c#5 v=89
121435 On ch=1 n=c#7 v=0
121435 On ch=1 n=a4 v=66
121440 On ch=1 n=e6 v=100
121508 On ch=1 n=a4 v=0
121509 On ch=1 n=c#5 v=0
121571 On ch=1 n=d5 v=74
121574 On ch=1 n=a4 v=67
121574 On ch=1 n=f6 v=100
121594 On ch=1 n=e6 v=0
121616 Par ch=1 c=64 v=63
121625 Par ch=1 c=64 v=0
121666 Par ch=1 c=64 v=63
121680 Par ch=1 c=64 v=127
121683 On ch=1 n=d5 v=0
121688 On ch=1 n=a4 v=0
121716 On ch=1 n=f#6 v=99
121721 On ch=1 n=d5 v=65
121723 On ch=1 n=a4 v=61
121727 On ch=1 n=f6 v=0
121779 On ch=1 n=d5 v=0
121786 On ch=1 n=a4 v=0
121848 On ch=1 n=a6 v=84
121855 On ch=1 n=d5 v=59
121857 On ch=1 n=a4 v=43
121882 On ch=1 n=f#6 v=0
121898 On ch=1 n=d5 v=0
121910 On ch=1 n=a4 v=0
121961 Par ch=1 c=64 v=63
121985 On ch=1 n=f#6 v=84
121993 On ch=1 n=a4 v=48
121998 On ch=1 n=d5 v=50
122002 On ch=1 n=a6 v=0
122007 Par ch=1 c=64 v=127
122033 On ch=1 n=f#6 v=0
122050 On ch=1 n=a4 v=0
122050 On ch=1 n=d5 v=0
122134 On ch=1 n=c#5 v=72
122138 On ch=1 n=a4 v=37
122142 On ch=1 n=d#6 v=73
122165 Par ch=1 c=64 v=63
122183 Par ch=1 c=64 v=0
122202 On ch=1 n=e6 v=76
122206 On ch=1 n=d#6 v=0
122232 Par ch=1 c=64 v=63
122246 Par ch=1 c=64 v=127
122267 On ch=1 n=f#6 v=80
122273 On ch=1 n=e6 v=0
122333 On ch=1 n=e6 v=67
122345 On ch=1 n=f#6 v=0
122383 On ch=1 n=e6 v=0
122393 On ch=1 n=c#5 v=0
122394 On ch=1 n=d6 v=76
122414 On ch=1 n=a4 v=0
122422 Par ch=1 c=64 v=63
122443 Par ch=1 c=64 v=0
122458 On ch=1 n=d6 v=0
122459 On ch=1 n=c#6 v=70
122525 On ch=1 n=b5 v=60
122528 On ch=1 n=c#6 v=0
122579 On ch=1 n=b5 v=0
122580 On ch=1 n=a5 v=54
122663 On ch=1 n=a5 v=0
122695 On ch=1 n=e5 v=58
122697 On ch=1 n=c#6 v=70
122700 On ch=1 n=e4 v=48
122763 Par ch=1 c=64 v=63
122767 Par ch=1 c=64 v=127
123015 On ch=1 n=c#6 v=0
123091 On ch=1 n=e4 v=0
123107 On ch=1 n=e5 v=0
123347 On ch=1 n=e4 v=42
123379 On ch=1 n=d5 v=46
123384 On ch=1 n=b5 v=77
123415 On ch=1 n=b5 v=0
123418 On ch=1 n=c#6 v=76
123437 Par ch=1 c=64 v=63
123452 On ch=1 n=c#6 v=0
123453 On ch=1 n=b5 v=63
123455 Par ch=1 c=64 v=0
123686 On ch=1 n=b5 v=0
123695 On ch=1 n=a5 v=60
123712 Par ch=1 c=64 v=63
123719 Par ch=1 c=64 v=127
123761 On ch=1 n=a5 v=0
123763 On ch=1 n=b5 v=51
123777 On ch=1 n=e4 v=0
123846 On ch=1 n=d5 v=0
123996 On ch=1 n=b5 v=0
123996 On ch=1 n=c#6 v=65
124094 On ch=1 n=c#6 v=0
124097 Par ch=1 c=64 v=63
124108 On ch=1 n=a5 v=59
124110 On ch=1 n=c#5 v=60
124115 Par ch=1 c=64 v=0
124117 On ch=1 n=a4 v=36
124145 Par ch=1 c=64 v=63
124161 On ch=1 n=a5 v=0
124176 Par ch=1 c=64 v=127
124210 On ch=1 n=e5 v=59
124218 On ch=1 n=c#5 v=0
124276 On ch=1 n=a4 v=0
124285 On ch=1 n=f#5 v=77
124291 Par ch=1 c=64 v=63
124293 On ch=1 n=e5 v=0
124334 Par ch=1 c=64 v=0
124337 On ch=1 n=f#5 v=0
124347 On ch=1 n=g#5 v=86
124392 On ch=1 n=g#5 v=0
124413 On ch=1 n=a5 v=71
124452 On ch=1 n=a5 v=0
124472 On ch=1 n=b5 v=79
124509 On ch=1 n=b5 v=0
124528 On ch=1 n=c#6 v=81
124549 On ch=1 n=c#6 v=0
124596 On ch=1 n=d6 v=85
124641 On ch=1 n=d6 v=0
124658 On ch=1 n=e6 v=91
124709 On ch=1 n=e6 v=0
124719 On ch=1 n=f#6 v=96
124767 On ch=1 n=f#6 v=0
124781 On ch=1 n=g#6 v=95
124826 On ch=1 n=g#6 v=0
124836 On ch=1 n=a6 v=93
124887 On ch=1 n=a6 v=0
124905 On ch=1 n=a#6 v=98
124949 On ch=1 n=a#6 v=0
124961 On ch=1 n=b6 v=93
125011 On ch=1 n=b6 v=0
125025 On ch=1 n=c7 v=97
125072 On ch=1 n=c#7 v=112
125096 On ch=1 n=c7 v=0
125164 On ch=1 n=d7 v=104
125165 On ch=1 n=c#7 v=0
125252 Par ch=1 c=64 v=63
125261 Par ch=1 c=64 v=127
125523 On ch=1 n=d7 v=0
125539 On ch=1 n=d6 v=38
125540 On ch=1 n=g#6 v=75
125550 On ch=1 n=e5 v=36
125586 Par ch=1 c=64 v=63
125630 Par ch=1 c=64 v=127
125683 On ch=1 n=e5 v=0
125704 On ch=1 n=g#6 v=0
125753 On ch=1 n=d6 v=0
125891 On ch=1 n=a6 v=68
125894 On ch=1 n=c#6 v=45
125899 On ch=1 n=a5 v=36
125920 Par ch=1 c=64 v=63
125962 Par ch=1 c=64 v=127
125981 On ch=1 n=a6 v=0
125997 On ch=1 n=c#7 v=70
126047 On ch=1 n=c#7 v=0
126086 On ch=1 n=a6 v=58
126114 On ch=1 n=c#6 v=0
126124 On ch=1 n=a5 v=0
126128 On ch=1 n=a6 v=0
126153 On ch=1 n=g#6 v=77
126188 On ch=1 n=g#6 v=0
126205 On ch=1 n=f#6 v=90
126258 On ch=1 n=f#6 v=0
126269 On ch=1 n=e6 v=91
126308 Par ch=1 c=64 v=63
126309 On ch=1 n=e6 v=0
126335 On ch=1 n=d6 v=82
126360 Par ch=1 c=64 v=0
126378 On ch=1 n=d6 v=0
126389 On ch=1 n=c#6 v=78
126441 On ch=1 n=c#6 v=0
126452 On ch=1 n=b5 v=73
126498 On ch=1 n=b5 v=0
126519 On ch=1 n=a5 v=65
126566 On ch=1 n=a5 v=0
126582 On ch=1 n=g#5 v=70
126635 On ch=1 n=g#5 v=0
126649 On ch=1 n=g5 v=73
126699 On ch=1 n=g5 v=0
126717 On ch=1 n=f#5 v=76
126778 On ch=1 n=f#5 v=0
126788 On ch=1 n=f5 v=71
126844 On ch=1 n=f5 v=0
126866 On ch=1 n=e5 v=62
126934 On ch=1 n=e5 v=0
126938 On ch=1 n=d#5 v=79
127037 On ch=1 n=d#5 v=0
127044 On ch=1 n=d5 v=84
127198 Par ch=1 c=64 v=63
127209 Par ch=1 c=64 v=127
127496 On ch=1 n=g#4 v=75
127500 On ch=1 n=d5 v=0
127504 On ch=1 n=d4 v=42
127520 On ch=1 n=e3 v=41
127586 Par ch=1 c=64 v=63
127606 Par ch=1 c=64 v=0
127706 Par ch=1 c=64 v=63
127720 Par ch=1 c=64 v=127
127814 On ch=1 n=e3 v=0
127859 On ch=1 n=d4 v=0
127889 On ch=1 n=g#4 v=0
128117 On ch=1 n=b4 v=64
128129 On ch=1 n=d4 v=30
128143 On ch=1 n=a3 v=24
128224 Par ch=1 c=64 v=63
128256 Par ch=1 c=64 v=0
128660 Par ch=1 c=64 v=63
128670 Par ch=1 c=64 v=127
129251 On ch=1 n=a4 v=30
129277 On ch=1 n=c#4 v=20
129316 On ch=1 n=b4 v=0
129356 On ch=1 n=d4 v=0
129395 Par ch=1 c=64 v=63
129444 Par ch=1 c=64 v=0
129572 Par ch=1 c=64 v=63
129596 Par ch=1 c=64 v=127
130213 Par ch=1 c=64 v=63
130234 On ch=1 n=c#4 v=0
130252 Par ch=1 c=64 v=0
130261 On ch=1 n=a3 v=0
130272 On ch=1 n=a4 v=0
131135 Par ch=1 c=67 v=127
131495 Par ch=1 c=67 v=0
131495 Meta TrkEnd
TrkEnd
MTrk
0 TimeSig 3/4 24 8
0 Meta TrkName "                                    "
0 Meta TrkEnd
TrkEnd
MTrk
0 TimeSig 3/4 24 8
0 Meta TrkName "                                    "
0 Meta TrkEnd
TrkEnd
MTrk
0 TimeSig 3/4 24 8
0 Meta TrkName "                                    "
0 Meta TrkEnd
TrkEnd
MTrk
0 TimeSig 3/4 24 8
0 Meta TrkName "                                    "
0 Meta TrkEnd
TrkEnd
MTrk
0 TimeSig 3/4 24 8
0 Meta TrkName "                                    "
0 Meta TrkEnd
TrkEnd
MTrk
0 TimeSig 3/4 24 8
0 Meta TrkName "                                    "
0 Meta TrkEnd
TrkEnd
MTrk
0 TimeSig 3/4 24 8
0 Meta TrkName "                                    "
0 Meta TrkEnd
TrkEnd
MTrk
0 TimeSig 3/4 24 8
0 Meta TrkName "                                    "
0 Meta TrkEnd
TrkEnd
MTrk
0 TimeSig 3/4 24 8
0 Meta TrkName "                                    "
0 Meta TrkEnd
TrkEnd
MTrk
0 TimeSig 3/4 24 8
0 Meta TrkName "                                    "
0 Meta TrkEnd
TrkEnd
MTrk
0 TimeSig 3/4 24 8
0 Meta TrkName "                                    "
0 Meta TrkEnd
TrkEnd
MTrk
0 TimeSig 3/4 24 8
0 Meta TrkName "                                    "
0 Meta TrkEnd
TrkEnd
MTrk
0 TimeSig 3/4 24 8
0 Meta TrkName "                                    "
0 Meta TrkEnd
TrkEnd
MTrk
0 TimeSig 3/4 24 8
0 Meta TrkName "                                    "
0 Meta TrkEnd
TrkEnd
MTrk
0 TimeSig 3/4 24 8
0 Meta TrkName "                                    "
0 Meta TrkEnd
TrkEnd
MTrk
0 TimeSig 3/4 24 8
0 Meta TrkName "                                    "
0 Meta TrkEnd
TrkEnd
MTrk
0 TimeSig 3/4 24 8
0 Meta TrkName "                                    "
0 Meta TrkEnd
TrkEnd
