MFile 1 18 240
MTrk
0 Tempo 500000
0 TimeSig 6/8 24 8
0 Meta Text "Mozart  Sonate D dur K.V.576 (1st.mov.)  Play by Katsuhiro Oguri"
0 Meta TrkEnd
TrkEnd
MTrk
0 TimeSig 6/8 24 8
0 Meta TrkName "PIANO                               "
0 SysEx f0 41 10 42 12 40 00 7f 00 41 f7
0 SysEx f0 41 10 42 12 40 00 04 64 58 f7
170 SysEx f0 41 10 42 12 40 01 30 03 0c f7
170 SysEx f0 41 10 42 12 40 01 33 50 3c f7
170 SysEx f0 41 10 42 12 40 01 34 3c 4f f7
372 Par ch=1 c=0 v=0
374 Par ch=1 c=32 v=1
376 PrCh ch=1 p=0
378 Par ch=1 c=7 v=100
474 Par ch=1 c=11 v=100
570 Par ch=1 c=10 v=64
666 Par ch=1 c=1 v=0
666 Par ch=1 c=91 v=80
675 Par ch=1 c=99 v=1
677 Par ch=1 c=98 v=32
679 Par ch=1 c=6 v=62
681 Par ch=1 c=99 v=1
683 Par ch=1 c=98 v=33
685 Par ch=1 c=6 v=54
687 Par ch=1 c=99 v=1
689 Par ch=1 c=98 v=99
691 Par ch=1 c=6 v=62
693 Par ch=1 c=99 v=1
695 Par ch=1 c=98 v=100
697 Par ch=1 c=6 v=60
699 Par ch=1 c=99 v=1
701 Par ch=1 c=98 v=102
703 Par ch=1 c=6 v=70
1069 On ch=1 n=a3 v=71
1072 On ch=1 n=a4 v=82
1100 On ch=1 n=a3 v=0
1104 On ch=1 n=a4 v=0
1170 On ch=1 n=d5 v=101
1184 On ch=1 n=d4 v=85
1201 On ch=1 n=d4 v=0
1202 On ch=1 n=d5 v=0
1267 On ch=1 n=a3 v=76
1269 On ch=1 n=a4 v=84
1298 On ch=1 n=a3 v=0
1304 On ch=1 n=a4 v=0
1360 On ch=1 n=d5 v=90
1365 On ch=1 n=d4 v=94
1396 On ch=1 n=d5 v=0
1400 On ch=1 n=d4 v=0
1463 On ch=1 n=f#5 v=99
1465 On ch=1 n=f#4 v=94
1493 On ch=1 n=f#4 v=0
1500 On ch=1 n=f#5 v=0
1559 On ch=1 n=d4 v=91
1562 On ch=1 n=d5 v=101
1593 On ch=1 n=d5 v=0
1601 On ch=1 n=d4 v=0
1652 On ch=1 n=f#5 v=107
1653 On ch=1 n=f#4 v=91
1682 On ch=1 n=f#4 v=0
1686 On ch=1 n=f#5 v=0
1754 On ch=1 n=a5 v=111
1761 On ch=1 n=a4 v=90
1779 Par ch=1 c=64 v=63
1779 Par ch=1 c=64 v=127
1789 On ch=1 n=a5 v=0
1794 On ch=1 n=a4 v=0
1955 On ch=1 n=a4 v=86
1963 On ch=1 n=a5 v=85
1991 On ch=1 n=a5 v=0
2001 On ch=1 n=a4 v=0
2064 On ch=1 n=a4 v=79
2064 On ch=1 n=a5 v=97
2089 On ch=1 n=a5 v=0
2095 On ch=1 n=a4 v=0
2271 On ch=1 n=a5 v=71
2274 On ch=1 n=c#6 v=85
2275 On ch=1 n=g5 v=63
2292 Par ch=1 c=64 v=63
2296 On ch=1 n=g5 v=0
2298 On ch=1 n=a5 v=0
2302 On ch=1 n=d6 v=83
2306 On ch=1 n=c#6 v=0
2324 On ch=1 n=d6 v=0
2332 On ch=1 n=c#6 v=73
2332 Par ch=1 c=64 v=0
2368 On ch=1 n=b5 v=77
2405 On ch=1 n=b5 v=0
2410 Par ch=1 c=64 v=63
2414 Par ch=1 c=64 v=127
2421 On ch=1 n=d6 v=92
2428 On ch=1 n=a5 v=75
2429 On ch=1 n=f#5 v=87
2436 On ch=1 n=c#6 v=0
2451 On ch=1 n=d6 v=0
2452 On ch=1 n=f#5 v=0
2453 On ch=1 n=a5 v=0
2484 Par ch=1 c=64 v=63
2495 Par ch=1 c=64 v=0
2628 On ch=1 n=a5 v=77
2631 On ch=1 n=c#5 v=70
2637 On ch=1 n=e6 v=89
2638 On ch=1 n=a5 v=0
2653 On ch=1 n=c#5 v=0
2656 On ch=1 n=f#6 v=78
2661 On ch=1 n=e6 v=0
2678 On ch=1 n=f#6 v=0
2693 On ch=1 n=e6 v=73
2710 On ch=1 n=d6 v=80
2714 On ch=1 n=e6 v=0
2743 On ch=1 n=e6 v=78
2748 On ch=1 n=d6 v=0
2756 Par ch=1 c=64 v=63
2759 Par ch=1 c=64 v=127
2765 On ch=1 n=f#6 v=95
2769 On ch=1 n=a5 v=86
2771 On ch=1 n=d5 v=96
2782 On ch=1 n=e6 v=0
2792 On ch=1 n=f#6 v=0
2793 On ch=1 n=a5 v=0
2795 On ch=1 n=d5 v=0
2892 Par ch=1 c=64 v=63
2899 Par ch=1 c=64 v=0
2981 On ch=1 n=e5 v=97
2984 On ch=1 n=g4 v=93
2985 On ch=1 n=a6 v=113
3030 On ch=1 n=g6 v=100
3033 On ch=1 n=g4 v=0
3051 On ch=1 n=a6 v=0
3094 On ch=1 n=f#6 v=107
3102 On ch=1 n=a4 v=86
3102 On ch=1 n=d5 v=90
3112 On ch=1 n=g6 v=0
3116 On ch=1 n=e5 v=0
3439 On ch=1 n=c#5 v=70
3448 On ch=1 n=f#6 v=0
3452 On ch=1 n=e6 v=73
3474 On ch=1 n=d5 v=0
3515 Par ch=1 c=64 v=63
3517 Par ch=1 c=64 v=127
3523 On ch=1 n=e6 v=0
3531 On ch=1 n=c#5 v=0
3536 On ch=1 n=a4 v=0
3560 Par ch=1 c=64 v=63
3570 Par ch=1 c=64 v=0
3676 On ch=1 n=b4 v=91
3677 On ch=1 n=b3 v=102
3683 Par ch=1 c=64 v=63
3685 Par ch=1 c=64 v=127
3708 Par ch=1 c=64 v=63
3715 Par ch=1 c=64 v=0
3716 On ch=1 n=b4 v=0
3732 On ch=1 n=b3 v=0
3776 On ch=1 n=e5 v=98
3787 On ch=1 n=e4 v=101
3806 On ch=1 n=e4 v=0
3809 On ch=1 n=e5 v=0
3876 On ch=1 n=b3 v=85
3878 On ch=1 n=b4 v=91
3909 On ch=1 n=b3 v=0
3911 On ch=1 n=b4 v=0
3965 On ch=1 n=e5 v=93
3966 On ch=1 n=e4 v=108
3999 On ch=1 n=e4 v=0
4002 On ch=1 n=e5 v=0
4059 On ch=1 n=g5 v=100
4063 On ch=1 n=g4 v=106
4092 On ch=1 n=g5 v=0
4095 On ch=1 n=g4 v=0
4154 On ch=1 n=e4 v=109
4158 On ch=1 n=e5 v=99
4196 On ch=1 n=e5 v=0
4198 On ch=1 n=e4 v=0
4244 On ch=1 n=g5 v=104
4248 On ch=1 n=g4 v=97
4283 On ch=1 n=g5 v=0
4286 On ch=1 n=g4 v=0
4348 On ch=1 n=b5 v=118
4350 On ch=1 n=b4 v=103
4356 Par ch=1 c=64 v=63
4357 Par ch=1 c=64 v=127
4383 On ch=1 n=b4 v=0
4386 On ch=1 n=b5 v=0
4548 On ch=1 n=b5 v=99
4550 On ch=1 n=b4 v=94
4586 On ch=1 n=b5 v=0
4610 On ch=1 n=b4 v=0
4652 On ch=1 n=b4 v=112
4654 On ch=1 n=b5 v=116
4694 On ch=1 n=b5 v=0
4717 On ch=1 n=b4 v=0
4855 On ch=1 n=d#6 v=95
4861 On ch=1 n=a5 v=63
4864 On ch=1 n=f#5 v=67
4890 On ch=1 n=f#5 v=0
4896 On ch=1 n=d#6 v=0
4897 On ch=1 n=a5 v=0
4965 On ch=1 n=f#6 v=105
4969 On ch=1 n=b5 v=84
4974 On ch=1 n=g5 v=78
4991 Par ch=1 c=64 v=63
4998 Par ch=1 c=64 v=0
5009 On ch=1 n=f#6 v=0
5015 On ch=1 n=e6 v=92
5059 On ch=1 n=g6 v=93
5069 On ch=1 n=e6 v=0
5105 On ch=1 n=f#6 v=104
5113 On ch=1 n=g6 v=0
5152 On ch=1 n=a6 v=100
5159 On ch=1 n=f#6 v=0
5192 On ch=1 n=g6 v=101
5243 On ch=1 n=b6 v=111
5249 On ch=1 n=g5 v=0
5256 On ch=1 n=g6 v=0
5260 On ch=1 n=b5 v=0
5265 On ch=1 n=a6 v=0
5277 On ch=1 n=b6 v=0
5459 On ch=1 n=c#6 v=90
5470 On ch=1 n=a4 v=80
5471 On ch=1 n=e5 v=84
5489 On ch=1 n=c#6 v=0
5506 On ch=1 n=a4 v=0
5514 On ch=1 n=e5 v=0
5606 On ch=1 n=e6 v=92
5613 On ch=1 n=d5 v=73
5618 On ch=1 n=g5 v=77
5645 Par ch=1 c=64 v=63
5648 Par ch=1 c=64 v=127
5933 On ch=1 n=e6 v=0
5939 Par ch=1 c=64 v=63
5946 On ch=1 n=d6 v=64
5947 Par ch=1 c=64 v=0
5948 On ch=1 n=g5 v=0
5960 On ch=1 n=f#5 v=55
5993 Par ch=1 c=64 v=63
6001 On ch=1 n=f#5 v=0
6003 Par ch=1 c=64 v=127
6014 On ch=1 n=d5 v=0
6069 On ch=1 n=d6 v=0
6149 Par ch=1 c=64 v=63
6154 On ch=1 n=a3 v=90
6156 Par ch=1 c=64 v=0
6194 On ch=1 n=a3 v=0
6265 On ch=1 n=d4 v=112
6295 On ch=1 n=d4 v=0
6360 On ch=1 n=a3 v=104
6372 On ch=1 n=d6 v=87
6400 On ch=1 n=a3 v=0
6410 On ch=1 n=d6 v=0
6458 On ch=1 n=d4 v=108
6465 On ch=1 n=f#6 v=99
6489 On ch=1 n=d4 v=0
6492 On ch=1 n=f#6 v=0
6552 On ch=1 n=a6 v=104
6556 On ch=1 n=f#4 v=112
6587 On ch=1 n=a6 v=0
6589 On ch=1 n=f#4 v=0
6646 On ch=1 n=f#6 v=115
6647 On ch=1 n=d4 v=109
6676 On ch=1 n=f#6 v=0
6698 On ch=1 n=d4 v=0
6747 On ch=1 n=d7 v=116
6750 On ch=1 n=f#4 v=110
6793 On ch=1 n=f#4 v=0
6863 On ch=1 n=a4 v=118
6873 Par ch=1 c=64 v=63
6875 Par ch=1 c=64 v=127
6902 On ch=1 n=d7 v=0
6919 On ch=1 n=c#7 v=93
6972 On ch=1 n=e7 v=86
6975 On ch=1 n=a4 v=0
6975 On ch=1 n=c#7 v=0
7018 On ch=1 n=d7 v=82
7045 On ch=1 n=a4 v=101
7051 On ch=1 n=e7 v=0
7056 On ch=1 n=c#7 v=91
7073 On ch=1 n=d7 v=0
7099 On ch=1 n=a4 v=0
7100 On ch=1 n=b6 v=74
7110 On ch=1 n=c#7 v=0
7149 On ch=1 n=a4 v=108
7151 On ch=1 n=b6 v=0
7151 On ch=1 n=a6 v=85
7198 On ch=1 n=a6 v=0
7200 On ch=1 n=b6 v=86
7248 On ch=1 n=a6 v=89
7255 On ch=1 n=b6 v=0
7264 On ch=1 n=a4 v=0
7284 On ch=1 n=a6 v=0
7290 On ch=1 n=g6 v=85
7331 On ch=1 n=f#6 v=104
7336 On ch=1 n=g6 v=0
7336 On ch=1 n=c#5 v=108
7375 Par ch=1 c=64 v=63
7380 On ch=1 n=e6 v=99
7381 On ch=1 n=f#6 v=0
7384 Par ch=1 c=64 v=0
7385 On ch=1 n=c#5 v=0
7430 On ch=1 n=f#6 v=104
7436 On ch=1 n=d5 v=112
7437 On ch=1 n=e6 v=0
7447 Par ch=1 c=64 v=63
7455 Par ch=1 c=64 v=127
7481 On ch=1 n=a6 v=97
7487 On ch=1 n=f#6 v=0
7525 On ch=1 n=f#6 v=86
7548 On ch=1 n=d5 v=0
7550 On ch=1 n=a6 v=0
7569 On ch=1 n=f#6 v=0
7571 On ch=1 n=d6 v=88
7609 On ch=1 n=d6 v=0
7617 On ch=1 n=e5 v=112
7620 On ch=1 n=c#6 v=104
7660 On ch=1 n=c#6 v=0
7669 On ch=1 n=a5 v=98
7694 Par ch=1 c=64 v=63
7702 Par ch=1 c=64 v=0
7714 On ch=1 n=e5 v=0
7714 On ch=1 n=a5 v=0
7718 On ch=1 n=d6 v=98
7738 On ch=1 n=f#5 v=116
7755 Par ch=1 c=64 v=63
7763 Par ch=1 c=64 v=127
7769 On ch=1 n=c#6 v=101
7775 On ch=1 n=d6 v=0
7815 On ch=1 n=c#6 v=0
7817 On ch=1 n=d6 v=94
7861 On ch=1 n=f#6 v=105
7867 On ch=1 n=d6 v=0
7878 On ch=1 n=f#6 v=0
7881 On ch=1 n=f6 v=76
7905 Par ch=1 c=64 v=63
7907 On ch=1 n=f6 v=0
7909 On ch=1 n=e6 v=100
7914 Par ch=1 c=64 v=0
7930 On ch=1 n=g5 v=96
7931 On ch=1 n=f#5 v=0
7966 On ch=1 n=g6 v=98
7969 On ch=1 n=e6 v=0
7999 On ch=1 n=g5 v=0
8030 On ch=1 n=g6 v=0
8048 On ch=1 n=d6 v=93
8048 On ch=1 n=f#5 v=96
8054 On ch=1 n=a4 v=59
8095 Par ch=1 c=64 v=63
8097 Par ch=1 c=64 v=127
8380 On ch=1 n=d6 v=0
8388 Par ch=1 c=64 v=63
8394 On ch=1 n=c#6 v=76
8395 Par ch=1 c=64 v=0
8398 On ch=1 n=f#5 v=0
8402 On ch=1 n=e5 v=51
8427 Par ch=1 c=64 v=63
8438 Par ch=1 c=64 v=127
8458 On ch=1 n=a4 v=0
8459 On ch=1 n=e5 v=0
8489 On ch=1 n=c#6 v=0
8562 Par ch=1 c=64 v=63
8568 Par ch=1 c=64 v=0
8605 On ch=1 n=b3 v=106
8649 On ch=1 n=b3 v=0
8720 On ch=1 n=e4 v=103
8754 On ch=1 n=e4 v=0
8810 On ch=1 n=b3 v=90
8820 On ch=1 n=e6 v=97
8846 On ch=1 n=b3 v=0
8855 On ch=1 n=e6 v=0
8907 On ch=1 n=g6 v=104
8910 On ch=1 n=e4 v=108
8940 On ch=1 n=g6 v=0
8944 On ch=1 n=e4 v=0
8998 On ch=1 n=b6 v=108
9004 On ch=1 n=g4 v=103
9029 On ch=1 n=b6 v=0
9040 On ch=1 n=g4 v=0
9094 On ch=1 n=e4 v=116
9098 On ch=1 n=g6 v=101
9135 On ch=1 n=g6 v=0
9138 On ch=1 n=e4 v=0
9190 On ch=1 n=g4 v=109
9194 On ch=1 n=e7 v=114
9228 On ch=1 n=g4 v=0
9300 On ch=1 n=b4 v=125
9310 Par ch=1 c=64 v=63
9311 Par ch=1 c=64 v=127
9347 On ch=1 n=d#7 v=99
9365 On ch=1 n=e7 v=0
9395 On ch=1 n=b4 v=0
9404 On ch=1 n=c7 v=86
9407 On ch=1 n=d#7 v=0
9436 On ch=1 n=b6 v=84
9453 On ch=1 n=c7 v=0
9480 On ch=1 n=b6 v=0
9481 On ch=1 n=b4 v=100
9481 On ch=1 n=a6 v=79
9528 On ch=1 n=b4 v=0
9529 On ch=1 n=g6 v=89
9533 On ch=1 n=a6 v=0
9578 On ch=1 n=f#6 v=103
9586 On ch=1 n=b4 v=114
9592 On ch=1 n=g6 v=0
9623 On ch=1 n=f#6 v=0
9629 On ch=1 n=e6 v=82
9680 On ch=1 n=d#6 v=106
9690 On ch=1 n=e6 v=0
9702 On ch=1 n=b4 v=0
9727 On ch=1 n=c6 v=86
9730 On ch=1 n=d#6 v=0
9768 On ch=1 n=b5 v=93
9768 On ch=1 n=d#5 v=110
9783 On ch=1 n=c6 v=0
9813 On ch=1 n=a5 v=90
9816 On ch=1 n=b5 v=0
9840 On ch=1 n=d#5 v=0
9854 On ch=1 n=a5 v=0
9877 On ch=1 n=e5 v=101
9882 On ch=1 n=g5 v=97
9908 Par ch=1 c=64 v=63
9915 Par ch=1 c=64 v=0
9925 On ch=1 n=b5 v=100
9936 On ch=1 n=g5 v=0
9969 Par ch=1 c=64 v=63
9972 On ch=1 n=e6 v=101
9978 On ch=1 n=b5 v=0
9978 Par ch=1 c=64 v=127
10016 On ch=1 n=b5 v=97
10017 On ch=1 n=e6 v=0
10025 Par ch=1 c=64 v=63
10034 Par ch=1 c=64 v=0
10035 On ch=1 n=e5 v=0
10054 On ch=1 n=b5 v=0
10063 On ch=1 n=g6 v=101
10104 On ch=1 n=e6 v=111
10114 On ch=1 n=g6 v=0
10154 On ch=1 n=e6 v=0
10154 On ch=1 n=b6 v=109
10183 On ch=1 n=b6 v=0
10267 On ch=1 n=b5 v=96
10342 Par ch=1 c=64 v=63
10344 Par ch=1 c=64 v=127
10371 On ch=1 n=c#6 v=95
10374 On ch=1 n=a4 v=68
10376 On ch=1 n=b5 v=0
10380 On ch=1 n=g5 v=58
10414 On ch=1 n=a4 v=0
10487 On ch=1 n=g5 v=0
10502 On ch=1 n=c#6 v=0
10502 On ch=1 n=d5 v=67
10507 On ch=1 n=d6 v=83
10521 Par ch=1 c=64 v=63
10541 Par ch=1 c=64 v=0
10552 Par ch=1 c=64 v=63
10574 Par ch=1 c=64 v=127
10615 On ch=1 n=f#5 v=65
10669 On ch=1 n=d6 v=0
10695 On ch=1 n=d5 v=0
10709 On ch=1 n=a5 v=49
10712 On ch=1 n=f#5 v=0
10795 On ch=1 n=a5 v=0
10814 On ch=1 n=d5 v=56
10878 Par ch=1 c=64 v=63
10927 On ch=1 n=f#5 v=61
10934 Par ch=1 c=64 v=127
10937 On ch=1 n=d7 v=80
10984 On ch=1 n=c#7 v=86
10991 On ch=1 n=d7 v=0
11008 On ch=1 n=d5 v=0
11015 On ch=1 n=c#7 v=0
11025 On ch=1 n=b6 v=80
11031 On ch=1 n=f#5 v=0
11032 On ch=1 n=a5 v=49
11062 On ch=1 n=b6 v=0
11071 On ch=1 n=a6 v=61
11114 On ch=1 n=g#6 v=100
11118 On ch=1 n=a6 v=0
11120 On ch=1 n=a5 v=0
11121 On ch=1 n=c#5 v=85
11148 Par ch=1 c=64 v=63
11158 On ch=1 n=g#6 v=0
11163 On ch=1 n=a6 v=79
11194 Par ch=1 c=64 v=127
11204 On ch=1 n=g#6 v=87
11206 On ch=1 n=a6 v=0
11223 On ch=1 n=e5 v=62
11249 On ch=1 n=a6 v=83
11256 On ch=1 n=g#6 v=0
11288 On ch=1 n=b6 v=92
11294 On ch=1 n=c#5 v=0
11302 On ch=1 n=a6 v=0
11313 On ch=1 n=e5 v=0
11322 On ch=1 n=a5 v=45
11336 On ch=1 n=a6 v=88
11360 On ch=1 n=b6 v=0
11368 Par ch=1 c=64 v=63
11373 On ch=1 n=a6 v=0
11373 Par ch=1 c=64 v=0
11397 On ch=1 n=a5 v=0
11400 On ch=1 n=e5 v=79
11510 On ch=1 n=a6 v=92
11519 On ch=1 n=g5 v=55
11538 Par ch=1 c=64 v=63
11542 Par ch=1 c=64 v=127
11553 On ch=1 n=g6 v=76
11563 On ch=1 n=a6 v=0
11607 On ch=1 n=g5 v=0
11608 On ch=1 n=f#6 v=90
11610 On ch=1 n=e5 v=0
11612 On ch=1 n=a5 v=38
11618 On ch=1 n=g6 v=0
11645 On ch=1 n=f#6 v=0
11647 On ch=1 n=e6 v=87
11677 On ch=1 n=e6 v=0
11707 On ch=1 n=a5 v=0
11709 On ch=1 n=c#6 v=101
11713 On ch=1 n=d5 v=76
11743 Par ch=1 c=64 v=63
11749 On ch=1 n=d6 v=84
11750 On ch=1 n=c#6 v=0
11750 Par ch=1 c=64 v=0
11802 On ch=1 n=c#6 v=96
11803 On ch=1 n=d6 v=0
11813 On ch=1 n=f#5 v=71
11844 On ch=1 n=c#6 v=0
11851 On ch=1 n=d6 v=86
11897 On ch=1 n=e6 v=85
11901 On ch=1 n=d5 v=0
11902 On ch=1 n=d6 v=0
11914 On ch=1 n=f#5 v=0
11924 On ch=1 n=a5 v=56
11931 On ch=1 n=d6 v=91
11957 On ch=1 n=e6 v=0
11967 On ch=1 n=d6 v=0
12006 On ch=1 n=d5 v=74
12007 On ch=1 n=a5 v=0
12117 On ch=1 n=d7 v=92
12123 On ch=1 n=f#5 v=69
12126 Par ch=1 c=64 v=63
12129 Par ch=1 c=64 v=127
12163 On ch=1 n=c#7 v=86
12169 On ch=1 n=d7 v=0
12211 On ch=1 n=d5 v=0
12215 On ch=1 n=c#7 v=0
12218 On ch=1 n=f#5 v=0
12220 On ch=1 n=b6 v=76
12227 On ch=1 n=a5 v=48
12245 On ch=1 n=b6 v=0
12260 On ch=1 n=a6 v=66
12294 On ch=1 n=a6 v=0
12304 On ch=1 n=g#6 v=96
12307 Par ch=1 c=64 v=63
12312 On ch=1 n=c#5 v=59
12312 Par ch=1 c=64 v=0
12330 On ch=1 n=a5 v=0
12348 On ch=1 n=g#6 v=0
12350 On ch=1 n=a6 v=82
12399 On ch=1 n=a6 v=0
12399 On ch=1 n=g#6 v=89
12418 On ch=1 n=e5 v=68
12444 On ch=1 n=a6 v=88
12449 On ch=1 n=g#6 v=0
12479 On ch=1 n=c#5 v=0
12484 On ch=1 n=b6 v=90
12496 On ch=1 n=a6 v=0
12505 On ch=1 n=e5 v=0
12524 On ch=1 n=a5 v=37
12530 On ch=1 n=a6 v=92
12548 On ch=1 n=b6 v=0
12558 On ch=1 n=a6 v=0
12580 On ch=1 n=a5 v=0
12604 On ch=1 n=e5 v=89
12705 On ch=1 n=a6 v=104
12714 On ch=1 n=g5 v=76
12750 On ch=1 n=g6 v=85
12760 On ch=1 n=a6 v=0
12797 On ch=1 n=e5 v=0
12799 On ch=1 n=f#6 v=104
12802 On ch=1 n=a5 v=65
12810 On ch=1 n=g5 v=0
12815 On ch=1 n=g6 v=0
12848 On ch=1 n=e6 v=84
12850 On ch=1 n=f#6 v=0
12860 On ch=1 n=a5 v=0
12882 On ch=1 n=e6 v=0
12892 On ch=1 n=a5 v=68
12895 On ch=1 n=c#6 v=103
12895 On ch=1 n=f#5 v=77
12907 Par ch=1 c=64 v=63
12909 Par ch=1 c=64 v=127
12935 On ch=1 n=c#6 v=0
12945 On ch=1 n=d6 v=78
12954 Par ch=1 c=64 v=63
12959 Par ch=1 c=64 v=0
12969 On ch=1 n=f#5 v=0
12971 On ch=1 n=a5 v=0
12981 On ch=1 n=c#6 v=95
12983 On ch=1 n=d6 v=0
13020 On ch=1 n=c#6 v=0
13030 On ch=1 n=d6 v=81
13068 On ch=1 n=d6 v=0
13073 On ch=1 n=g6 v=82
13127 On ch=1 n=f#6 v=94
13138 On ch=1 n=g6 v=0
13175 On ch=1 n=f#6 v=0
13184 On ch=1 n=d#6 v=87
13185 On ch=1 n=a5 v=68
13187 Par ch=1 c=64 v=63
13188 On ch=1 n=c#5 v=78
13189 Par ch=1 c=64 v=127
13214 Par ch=1 c=64 v=63
13221 Par ch=1 c=64 v=0
13222 On ch=1 n=d#6 v=0
13227 On ch=1 n=e6 v=81
13271 On ch=1 n=e6 v=0
13271 On ch=1 n=d#6 v=92
13286 On ch=1 n=a5 v=0
13293 On ch=1 n=c#5 v=0
13315 On ch=1 n=d#6 v=0
13320 On ch=1 n=e6 v=93
13365 On ch=1 n=a6 v=94
13370 On ch=1 n=e6 v=0
13418 On ch=1 n=g6 v=92
13435 On ch=1 n=a6 v=0
13464 On ch=1 n=g6 v=0
13467 On ch=1 n=f6 v=93
13477 Par ch=1 c=64 v=63
13479 Par ch=1 c=64 v=127
13479 On ch=1 n=d5 v=98
13479 On ch=1 n=a5 v=88
13519 On ch=1 n=f6 v=0
13523 On ch=1 n=d5 v=0
13524 On ch=1 n=f#6 v=100
13525 On ch=1 n=a5 v=0
13552 Par ch=1 c=64 v=63
13557 Par ch=1 c=64 v=0
13565 On ch=1 n=f#6 v=0
13567 On ch=1 n=f6 v=93
13614 On ch=1 n=f#6 v=109
13623 On ch=1 n=f6 v=0
13654 On ch=1 n=b6 v=91
13666 On ch=1 n=f#6 v=0
13708 On ch=1 n=a6 v=102
13737 On ch=1 n=b6 v=0
13744 Par ch=1 c=64 v=63
13745 Par ch=1 c=64 v=127
13750 On ch=1 n=a6 v=0
13769 On ch=1 n=e5 v=107
13769 On ch=1 n=a5 v=100
13770 On ch=1 n=a6 v=108
13794 Par ch=1 c=64 v=63
13799 Par ch=1 c=64 v=0
13824 On ch=1 n=g6 v=101
13838 On ch=1 n=a6 v=0
13863 On ch=1 n=e5 v=0
13868 On ch=1 n=f#5 v=96
13869 On ch=1 n=f#6 v=101
13885 On ch=1 n=g6 v=0
13903 On ch=1 n=f#5 v=0
13913 On ch=1 n=a5 v=0
13914 On ch=1 n=f#6 v=0
13914 On ch=1 n=e6 v=84
13960 On ch=1 n=g5 v=96
13962 On ch=1 n=a5 v=76
13966 On ch=1 n=d6 v=92
13970 On ch=1 n=e6 v=0
13989 On ch=1 n=a5 v=0
13997 On ch=1 n=g5 v=0
14009 On ch=1 n=c#6 v=107
14015 On ch=1 n=d6 v=0
14041 On ch=1 n=c#6 v=0
14069 Par ch=1 c=64 v=63
14070 Par ch=1 c=64 v=127
14070 On ch=1 n=a5 v=107
14074 On ch=1 n=f#5 v=113
14076 On ch=1 n=c#6 v=113
14104 On ch=1 n=f#5 v=0
14108 On ch=1 n=a5 v=0
14117 On ch=1 n=d6 v=93
14119 On ch=1 n=c#6 v=0
14145 Par ch=1 c=64 v=63
14149 Par ch=1 c=64 v=0
14164 On ch=1 n=c#6 v=107
14165 On ch=1 n=d6 v=0
14212 On ch=1 n=c#6 v=0
14213 On ch=1 n=d6 v=97
14256 On ch=1 n=g6 v=87
14259 On ch=1 n=d6 v=0
14314 On ch=1 n=f#6 v=98
14332 On ch=1 n=g6 v=0
14355 Par ch=1 c=64 v=63
14356 Par ch=1 c=64 v=127
14366 On ch=1 n=f#6 v=0
14367 On ch=1 n=d#6 v=99
14370 On ch=1 n=a5 v=99
14370 On ch=1 n=c#5 v=114
14392 On ch=1 n=a5 v=0
14398 On ch=1 n=c#5 v=0
14415 On ch=1 n=d#6 v=0
14415 On ch=1 n=e6 v=92
14458 On ch=1 n=d#6 v=98
14461 Par ch=1 c=64 v=63
14464 Par ch=1 c=64 v=0
14465 On ch=1 n=e6 v=0
14511 On ch=1 n=d#6 v=0
14511 On ch=1 n=e6 v=93
14552 On ch=1 n=a6 v=88
14558 On ch=1 n=e6 v=0
14603 On ch=1 n=g6 v=94
14628 On ch=1 n=a6 v=0
14640 Par ch=1 c=64 v=63
14640 Par ch=1 c=64 v=127
14646 On ch=1 n=g6 v=0
14647 On ch=1 n=f6 v=101
14657 On ch=1 n=a5 v=103
14657 On ch=1 n=d5 v=111
14678 On ch=1 n=d5 v=0
14687 On ch=1 n=a5 v=0
14693 On ch=1 n=f6 v=0
14702 On ch=1 n=f#6 v=107
14743 On ch=1 n=f6 v=92
14747 On ch=1 n=f#6 v=0
14794 On ch=1 n=f6 v=0
14796 On ch=1 n=f#6 v=107
14801 Par ch=1 c=64 v=63
14806 Par ch=1 c=64 v=0
14838 On ch=1 n=b6 v=90
14846 On ch=1 n=f#6 v=0
14879 On ch=1 n=a6 v=100
14908 On ch=1 n=b6 v=0
14913 On ch=1 n=a6 v=0
14934 Par ch=1 c=64 v=63
14936 Par ch=1 c=64 v=127
14944 On ch=1 n=a6 v=114
14945 On ch=1 n=e5 v=114
14946 On ch=1 n=a5 v=108
14997 On ch=1 n=g6 v=106
15024 On ch=1 n=a6 v=0
15043 On ch=1 n=f#5 v=105
15047 On ch=1 n=f#6 v=107
15068 On ch=1 n=e5 v=0
15070 On ch=1 n=g6 v=0
15096 On ch=1 n=e6 v=96
15097 On ch=1 n=f#6 v=0
15137 On ch=1 n=g5 v=94
15138 Par ch=1 c=64 v=63
15145 Par ch=1 c=64 v=0
15146 On ch=1 n=d6 v=101
15147 On ch=1 n=f#5 v=0
15151 On ch=1 n=e6 v=0
15165 On ch=1 n=a5 v=0
15186 On ch=1 n=c#6 v=108
15194 On ch=1 n=g5 v=0
15196 On ch=1 n=d6 v=0
15218 On ch=1 n=c#6 v=0
15249 On ch=1 n=f#5 v=80
15253 On ch=1 n=a5 v=75
15298 Par ch=1 c=64 v=63
15299 Par ch=1 c=64 v=127
15304 On ch=1 n=d6 v=84
15334 On ch=1 n=f#5 v=0
15360 On ch=1 n=d6 v=0
15368 On ch=1 n=f#6 v=93
15372 On ch=1 n=a5 v=0
15411 On ch=1 n=f#6 v=0
15422 On ch=1 n=a6 v=88
15451 On ch=1 n=a6 v=0
15454 On ch=1 n=e5 v=83
15457 On ch=1 n=g5 v=76
15459 On ch=1 n=d7 v=76
15516 On ch=1 n=c#7 v=89
15532 On ch=1 n=d7 v=0
15542 On ch=1 n=e5 v=0
15545 On ch=1 n=g5 v=0
15562 On ch=1 n=c#7 v=0
15572 On ch=1 n=f#5 v=93
15576 On ch=1 n=d5 v=91
15616 On ch=1 n=b5 v=99
15638 On ch=1 n=f#5 v=0
15650 On ch=1 n=d5 v=0
15672 On ch=1 n=d6 v=104
15687 On ch=1 n=b5 v=0
15712 On ch=1 n=f#6 v=109
15735 On ch=1 n=d6 v=0
15759 On ch=1 n=b6 v=101
15769 On ch=1 n=f#6 v=0
15772 On ch=1 n=c#5 v=108
15773 On ch=1 n=e5 v=101
15816 On ch=1 n=a6 v=106
15832 On ch=1 n=c#5 v=0
15833 On ch=1 n=e5 v=0
15839 On ch=1 n=b6 v=0
15861 On ch=1 n=a6 v=0
15868 On ch=1 n=b4 v=112
15871 On ch=1 n=d5 v=112
15911 On ch=1 n=g5 v=99
15912 Par ch=1 c=64 v=63
15920 Par ch=1 c=64 v=0
15961 Par ch=1 c=64 v=63
15971 On ch=1 n=b5 v=108
15973 Par ch=1 c=64 v=127
15992 On ch=1 n=g5 v=0
16015 On ch=1 n=d6 v=100
16019 On ch=1 n=d5 v=0
16030 On ch=1 n=b5 v=0
16034 On ch=1 n=b4 v=0
16058 On ch=1 n=g6 v=88
16063 On ch=1 n=d6 v=0
16077 On ch=1 n=c#5 v=112
16080 On ch=1 n=a4 v=100
16115 On ch=1 n=f#6 v=108
16121 On ch=1 n=c#5 v=0
16130 On ch=1 n=a4 v=0
16134 On ch=1 n=g6 v=0
16157 On ch=1 n=f#6 v=0
16166 Par ch=1 c=64 v=63
16173 Par ch=1 c=64 v=0
16178 On ch=1 n=g4 v=114
16179 On ch=1 n=b4 v=117
16207 Par ch=1 c=64 v=63
16217 On ch=1 n=e5 v=93
16219 Par ch=1 c=64 v=127
16279 On ch=1 n=g5 v=106
16290 On ch=1 n=e5 v=0
16298 On ch=1 n=b4 v=0
16307 On ch=1 n=g4 v=0
16324 On ch=1 n=b5 v=103
16336 On ch=1 n=g5 v=0
16368 On ch=1 n=b4 v=116
16370 On ch=1 n=g#4 v=121
16371 On ch=1 n=e6 v=97
16374 On ch=1 n=b5 v=0
16412 On ch=1 n=b4 v=0
16414 On ch=1 n=g#4 v=0
16419 On ch=1 n=d6 v=101
16430 Par ch=1 c=64 v=63
16434 Par ch=1 c=64 v=0
16443 On ch=1 n=e6 v=0
16459 On ch=1 n=d6 v=0
16479 On ch=1 n=a4 v=122
16489 On ch=1 n=c#6 v=118
16492 Par ch=1 c=64 v=63
16497 Par ch=1 c=64 v=127
16535 On ch=1 n=c#6 v=0
16550 On ch=1 n=e5 v=94
16599 On ch=1 n=a6 v=83
16609 On ch=1 n=e5 v=0
16612 On ch=1 n=c#5 v=99
16612 Par ch=1 c=64 v=63
16617 Par ch=1 c=64 v=0
16637 On ch=1 n=a4 v=0
16652 On ch=1 n=e5 v=86
16654 On ch=1 n=c#5 v=0
16659 On ch=1 n=a6 v=0
16683 On ch=1 n=f#6 v=108
16684 On ch=1 n=d6 v=96
16693 On ch=1 n=d5 v=98
16696 Par ch=1 c=64 v=63
16699 Par ch=1 c=64 v=127
16702 On ch=1 n=e5 v=0
16729 On ch=1 n=d6 v=0
16741 On ch=1 n=f#5 v=106
16747 On ch=1 n=d5 v=0
16753 On ch=1 n=f#6 v=0
16780 On ch=1 n=f#5 v=0
16786 On ch=1 n=e6 v=109
16787 On ch=1 n=c#6 v=109
16791 On ch=1 n=a4 v=101
16792 Par ch=1 c=64 v=63
16800 Par ch=1 c=64 v=0
16810 Par ch=1 c=64 v=63
16824 Par ch=1 c=64 v=127
16836 On ch=1 n=e5 v=89
16848 On ch=1 n=c#6 v=0
16857 On ch=1 n=a4 v=0
16880 On ch=1 n=a6 v=106
16887 On ch=1 n=c#5 v=96
16891 On ch=1 n=e5 v=0
16893 Par ch=1 c=64 v=63
16895 On ch=1 n=e6 v=0
16900 Par ch=1 c=64 v=0
16925 On ch=1 n=e5 v=71
16937 On ch=1 n=c#5 v=0
16963 On ch=1 n=a6 v=0
16974 On ch=1 n=e5 v=0
16975 On ch=1 n=d5 v=96
16980 Par ch=1 c=64 v=63
16983 On ch=1 n=f#6 v=106
16983 Par ch=1 c=64 v=127
16985 On ch=1 n=d6 v=94
17016 Par ch=1 c=64 v=63
17020 On ch=1 n=d5 v=0
17022 On ch=1 n=f#5 v=110
17023 On ch=1 n=d6 v=0
17023 Par ch=1 c=64 v=0
17040 On ch=1 n=f#6 v=0
17063 On ch=1 n=f#5 v=0
17099 On ch=1 n=e6 v=112
17099 On ch=1 n=a4 v=101
17099 On ch=1 n=c#5 v=110
17101 On ch=1 n=c#6 v=108
17102 On ch=1 n=e5 v=108
17111 Par ch=1 c=64 v=63
17112 Par ch=1 c=64 v=127
17126 On ch=1 n=c#5 v=0
17128 On ch=1 n=e5 v=0
17142 On ch=1 n=a4 v=0
17149 On ch=1 n=c#6 v=0
17175 On ch=1 n=e6 v=0
17195 On ch=1 n=a6 v=108
17215 Par ch=1 c=64 v=63
17219 Par ch=1 c=64 v=0
17229 On ch=1 n=a6 v=0
17308 On ch=1 n=a4 v=109
17308 On ch=1 n=a5 v=125
17313 On ch=1 n=a3 v=106
17336 On ch=1 n=a5 v=0
17341 On ch=1 n=a4 v=0
17342 On ch=1 n=a3 v=0
17442 On ch=1 n=a5 v=122
17445 Par ch=1 c=64 v=63
17446 Par ch=1 c=64 v=127
17447 On ch=1 n=a4 v=120
17448 On ch=1 n=a3 v=121
17468 On ch=1 n=a5 v=0
17479 On ch=1 n=a4 v=0
17481 On ch=1 n=a3 v=0
17732 Par ch=1 c=64 v=63
17737 Par ch=1 c=64 v=0
17743 On ch=1 n=e6 v=111
17780 On ch=1 n=e6 v=0
17867 On ch=1 n=e5 v=120
17869 On ch=1 n=a6 v=118
17902 On ch=1 n=a6 v=0
17917 On ch=1 n=e5 v=0
17981 On ch=1 n=e6 v=101
17985 On ch=1 n=a5 v=112
18017 On ch=1 n=e6 v=0
18017 On ch=1 n=a5 v=0
18079 On ch=1 n=e5 v=111
18080 On ch=1 n=a6 v=99
18116 On ch=1 n=a6 v=0
18135 On ch=1 n=e5 v=0
18179 On ch=1 n=a5 v=100
18185 On ch=1 n=c#7 v=95
18215 On ch=1 n=a5 v=0
18223 On ch=1 n=c#7 v=0
18288 On ch=1 n=c#6 v=104
18293 On ch=1 n=a6 v=89
18323 On ch=1 n=c#6 v=0
18327 On ch=1 n=a6 v=0
18380 On ch=1 n=c#7 v=107
18382 On ch=1 n=a5 v=75
18417 On ch=1 n=c#7 v=0
18428 On ch=1 n=a5 v=0
18485 On ch=1 n=e7 v=114
18487 On ch=1 n=c#6 v=109
18524 On ch=1 n=c#6 v=0
18542 On ch=1 n=d7 v=103
18563 On ch=1 n=e7 v=0
18588 On ch=1 n=c#7 v=108
18590 On ch=1 n=e6 v=107
18608 On ch=1 n=d7 v=0
18637 On ch=1 n=b6 v=96
18638 On ch=1 n=c#7 v=0
18647 On ch=1 n=e6 v=0
18647 On ch=1 n=d6 v=83
18687 On ch=1 n=a#6 v=107
18689 On ch=1 n=c#6 v=104
18696 On ch=1 n=d6 v=0
18701 On ch=1 n=b6 v=0
18732 On ch=1 n=c#6 v=0
18734 On ch=1 n=b5 v=81
18738 On ch=1 n=g#6 v=107
18756 On ch=1 n=a#6 v=0
18779 On ch=1 n=f#6 v=110
18783 On ch=1 n=a#5 v=105
18789 On ch=1 n=b5 v=0
18803 On ch=1 n=g#6 v=0
18822 On ch=1 n=g#5 v=98
18830 On ch=1 n=f#6 v=0
18830 On ch=1 n=e6 v=72
18832 On ch=1 n=a#5 v=0
18871 On ch=1 n=e6 v=0
18871 On ch=1 n=f#5 v=97
18876 On ch=1 n=d6 v=92
18886 On ch=1 n=g#5 v=0
18910 On ch=1 n=f#5 v=0
18912 On ch=1 n=e5 v=88
18922 On ch=1 n=c#6 v=105
18928 On ch=1 n=d6 v=0
18951 On ch=1 n=c#6 v=0
18961 On ch=1 n=b5 v=87
18963 On ch=1 n=e5 v=0
18966 On ch=1 n=d5 v=83
19001 On ch=1 n=b5 v=0
19004 On ch=1 n=a#5 v=101
19009 On ch=1 n=c#5 v=100
19013 On ch=1 n=d5 v=0
19039 On ch=1 n=a#5 v=0
19049 On ch=1 n=c#5 v=0
19060 On ch=1 n=b5 v=106
19062 On ch=1 n=b4 v=94
19101 On ch=1 n=b5 v=0
19110 On ch=1 n=a#4 v=105
19118 On ch=1 n=b4 v=0
19142 On ch=1 n=a#4 v=0
19164 On ch=1 n=f#5 v=97
19166 On ch=1 n=b4 v=93
19196 On ch=1 n=f#5 v=0
19202 On ch=1 n=b4 v=0
19274 On ch=1 n=f#4 v=91
19275 On ch=1 n=b5 v=86
19294 On ch=1 n=f#4 v=0
19296 On ch=1 n=b5 v=0
19374 On ch=1 n=d6 v=94
19381 On ch=1 n=b4 v=81
19400 On ch=1 n=b4 v=0
19410 On ch=1 n=d6 v=0
19475 On ch=1 n=d5 v=77
19479 On ch=1 n=b5 v=86
19508 On ch=1 n=d5 v=0
19512 On ch=1 n=b5 v=0
19577 On ch=1 n=d6 v=89
19577 On ch=1 n=b4 v=89
19605 On ch=1 n=d6 v=0
19608 On ch=1 n=b4 v=0
19677 On ch=1 n=d5 v=74
19679 On ch=1 n=f#6 v=99
19706 On ch=1 n=d5 v=0
19727 On ch=1 n=e6 v=77
19728 On ch=1 n=f#6 v=0
19766 On ch=1 n=d6 v=84
19776 On ch=1 n=e6 v=0
19783 On ch=1 n=f#5 v=95
19803 On ch=1 n=f#5 v=0
19812 On ch=1 n=d6 v=0
19816 On ch=1 n=e5 v=94
19819 On ch=1 n=c#6 v=88
19859 On ch=1 n=c#6 v=0
19862 On ch=1 n=b5 v=68
19868 On ch=1 n=e5 v=0
19874 On ch=1 n=d5 v=81
19909 On ch=1 n=c#5 v=99
19912 On ch=1 n=b5 v=0
19913 On ch=1 n=a#5 v=103
19914 On ch=1 n=d5 v=0
19938 On ch=1 n=c#5 v=0
19944 On ch=1 n=a#5 v=0
19960 On ch=1 n=b4 v=89
19961 On ch=1 n=d6 v=79
20005 On ch=1 n=b4 v=0
20006 On ch=1 n=c#6 v=96
20013 On ch=1 n=a#4 v=97
20021 On ch=1 n=d6 v=0
20050 On ch=1 n=a#4 v=0
20062 On ch=1 n=d5 v=88
20065 On ch=1 n=b5 v=89
20067 On ch=1 n=c#6 v=0
20090 On ch=1 n=b5 v=0
20101 On ch=1 n=a5 v=84
20103 On ch=1 n=d5 v=0
20105 On ch=1 n=c#5 v=107
20135 On ch=1 n=c#5 v=0
20143 On ch=1 n=a5 v=0
20147 On ch=1 n=g#5 v=98
20151 On ch=1 n=b4 v=94
20190 On ch=1 n=f#5 v=108
20195 On ch=1 n=a4 v=71
20196 On ch=1 n=b4 v=0
20202 On ch=1 n=g#5 v=0
20235 On ch=1 n=f#5 v=0
20241 On ch=1 n=g#4 v=97
20244 On ch=1 n=a4 v=0
20245 On ch=1 n=e5 v=86
20282 On ch=1 n=f#4 v=96
20291 On ch=1 n=g#4 v=0
20298 On ch=1 n=e5 v=0
20333 On ch=1 n=f#4 v=0
20335 On ch=1 n=e4 v=89
20339 On ch=1 n=b4 v=94
20376 On ch=1 n=b4 v=0
20385 On ch=1 n=e4 v=0
20447 On ch=1 n=b3 v=100
20451 On ch=1 n=e5 v=86
20471 On ch=1 n=e5 v=0
20487 On ch=1 n=b3 v=0
20549 On ch=1 n=e4 v=88
20552 On ch=1 n=g#5 v=95
20583 On ch=1 n=e4 v=0
20593 On ch=1 n=g#5 v=0
20656 On ch=1 n=e5 v=85
20661 On ch=1 n=g#4 v=84
20681 On ch=1 n=g#4 v=0
20688 On ch=1 n=e5 v=0
20758 On ch=1 n=g#5 v=101
20758 On ch=1 n=e4 v=82
20797 On ch=1 n=g#5 v=0
20803 On ch=1 n=e4 v=0
20870 On ch=1 n=g#4 v=100
20881 On ch=1 n=b5 v=100
20905 On ch=1 n=g#4 v=0
20921 On ch=1 n=c#6 v=94
20930 On ch=1 n=b5 v=0
20975 On ch=1 n=c#6 v=0
20977 On ch=1 n=d6 v=87
20978 On ch=1 n=b4 v=78
21025 On ch=1 n=c#5 v=88
21026 On ch=1 n=c#6 v=101
21036 On ch=1 n=b4 v=0
21042 On ch=1 n=d6 v=0
21048 Par ch=1 c=64 v=63
21053 Par ch=1 c=64 v=127
21071 On ch=1 n=b5 v=93
21079 On ch=1 n=c#5 v=0
21083 On ch=1 n=d5 v=83
21086 On ch=1 n=c#6 v=0
21109 On ch=1 n=c#5 v=79
21117 On ch=1 n=b5 v=0
21124 Par ch=1 c=64 v=63
21125 On ch=1 n=a5 v=76
21127 On ch=1 n=d5 v=0
21133 Par ch=1 c=64 v=0
21147 On ch=1 n=c#5 v=0
21170 On ch=1 n=g#5 v=96
21171 On ch=1 n=b4 v=94
21175 On ch=1 n=a5 v=0
21207 On ch=1 n=a4 v=76
21213 On ch=1 n=f#5 v=99
21215 On ch=1 n=b4 v=0
21222 On ch=1 n=g#5 v=0
21254 On ch=1 n=g#4 v=92
21261 On ch=1 n=a4 v=0
21264 On ch=1 n=f#5 v=0
21264 On ch=1 n=e5 v=73
21299 On ch=1 n=f#4 v=90
21300 On ch=1 n=g#4 v=0
21300 On ch=1 n=e5 v=0
21306 On ch=1 n=f#5 v=91
21350 On ch=1 n=f#5 v=0
21353 On ch=1 n=d5 v=86
21367 On ch=1 n=f#4 v=0
21367 On ch=1 n=g#4 v=80
21396 On ch=1 n=d5 v=0
21396 On ch=1 n=e5 v=76
21419 On ch=1 n=e4 v=68
21422 On ch=1 n=e5 v=0
21426 Par ch=1 c=64 v=63
21435 Par ch=1 c=64 v=127
21439 On ch=1 n=g#4 v=0
21453 On ch=1 n=c#5 v=108
21471 On ch=1 n=a4 v=100
21486 Par ch=1 c=64 v=63
21491 On ch=1 n=e4 v=0
21493 On ch=1 n=e5 v=72
21496 On ch=1 n=c#5 v=0
21497 Par ch=1 c=64 v=0
21507 On ch=1 n=a4 v=0
21540 On ch=1 n=d#5 v=106
21552 On ch=1 n=e5 v=0
21591 On ch=1 n=e5 v=82
21611 On ch=1 n=d#5 v=0
21641 On ch=1 n=f#5 v=105
21650 On ch=1 n=e5 v=0
21690 On ch=1 n=e5 v=90
21705 On ch=1 n=f#5 v=0
21748 On ch=1 n=e5 v=0
21749 On ch=1 n=a5 v=87
21750 On ch=1 n=c#5 v=105
21751 On ch=1 n=a4 v=83
21791 On ch=1 n=e5 v=83
21801 On ch=1 n=a5 v=0
21805 On ch=1 n=c#5 v=0
21814 On ch=1 n=a4 v=0
21845 On ch=1 n=e5 v=0
21852 On ch=1 n=d#5 v=86
21889 On ch=1 n=e5 v=76
21899 On ch=1 n=d#5 v=0
21941 On ch=1 n=f#5 v=88
21946 On ch=1 n=e5 v=0
21986 On ch=1 n=e5 v=73
21996 On ch=1 n=f#5 v=0
22021 On ch=1 n=e5 v=0
22045 On ch=1 n=g#4 v=107
22063 On ch=1 n=b4 v=83
22067 Par ch=1 c=64 v=63
22072 On ch=1 n=g#4 v=0
22073 Par ch=1 c=64 v=127
22112 On ch=1 n=b4 v=0
22112 On ch=1 n=e5 v=78
22171 On ch=1 n=d#5 v=88
22173 On ch=1 n=e5 v=0
22213 On ch=1 n=d#5 v=0
22221 On ch=1 n=e5 v=78
22237 Par ch=1 c=64 v=63
22244 Par ch=1 c=64 v=0
22254 On ch=1 n=a4 v=98
22262 On ch=1 n=e5 v=0
22262 On ch=1 n=c#5 v=98
22291 On ch=1 n=a4 v=0
22292 On ch=1 n=e5 v=85
22302 On ch=1 n=c#5 v=0
22347 On ch=1 n=b4 v=74
22348 On ch=1 n=d5 v=93
22358 On ch=1 n=e5 v=0
22377 On ch=1 n=b4 v=0
22397 On ch=1 n=d5 v=0
22401 On ch=1 n=e5 v=72
22452 On ch=1 n=c#5 v=91
22453 On ch=1 n=e5 v=0
22454 On ch=1 n=a4 v=56
22483 On ch=1 n=a4 v=0
22503 On ch=1 n=c#5 v=0
22503 On ch=1 n=e5 v=71
22541 On ch=1 n=g#4 v=78
22542 On ch=1 n=e5 v=0
22547 On ch=1 n=b4 v=80
22579 On ch=1 n=g#4 v=0
22590 On ch=1 n=e5 v=76
22595 On ch=1 n=b4 v=0
22617 On ch=1 n=e5 v=0
22661 On ch=1 n=c#5 v=98
22662 On ch=1 n=a4 v=75
22673 Par ch=1 c=64 v=63
22674 Par ch=1 c=64 v=127
22700 On ch=1 n=c#5 v=0
22700 On ch=1 n=a4 v=0
22710 On ch=1 n=e5 v=71
22741 Par ch=1 c=64 v=63
22747 Par ch=1 c=64 v=0
22756 On ch=1 n=e5 v=0
22757 On ch=1 n=d#5 v=94
22801 On ch=1 n=e5 v=71
22805 On ch=1 n=d#5 v=0
22849 On ch=1 n=f#5 v=95
22855 On ch=1 n=e5 v=0
22898 On ch=1 n=e5 v=92
22912 On ch=1 n=f#5 v=0
22949 On ch=1 n=e5 v=0
22955 On ch=1 n=a5 v=92
22963 On ch=1 n=c#5 v=94
22963 Par ch=1 c=64 v=63
22964 Par ch=1 c=64 v=127
22965 On ch=1 n=a4 v=76
22993 On ch=1 n=c#5 v=0
22995 On ch=1 n=a4 v=0
23005 On ch=1 n=e5 v=73
23008 On ch=1 n=a5 v=0
23056 On ch=1 n=e5 v=0
23056 Par ch=1 c=64 v=63
23060 Par ch=1 c=64 v=0
23062 On ch=1 n=d#5 v=86
23107 On ch=1 n=e5 v=79
23110 On ch=1 n=d#5 v=0
23161 On ch=1 n=f#5 v=84
23163 On ch=1 n=e5 v=0
23209 On ch=1 n=e5 v=86
23224 On ch=1 n=f#5 v=0
23260 On ch=1 n=e5 v=0
23266 Par ch=1 c=64 v=63
23267 Par ch=1 c=64 v=127
23274 On ch=1 n=g#4 v=103
23278 On ch=1 n=b4 v=85
23304 On ch=1 n=g#4 v=0
23323 On ch=1 n=e5 v=78
23327 On ch=1 n=b4 v=0
23375 On ch=1 n=d#5 v=91
23381 On ch=1 n=e5 v=0
23425 On ch=1 n=d#5 v=0
23435 On ch=1 n=e5 v=62
23477 On ch=1 n=e5 v=0
23477 On ch=1 n=c#5 v=99
23487 On ch=1 n=a4 v=82
23511 On ch=1 n=e5 v=75
23521 On ch=1 n=c#5 v=0
23526 On ch=1 n=a4 v=0
23538 Par ch=1 c=64 v=63
23542 Par ch=1 c=64 v=0
23573 On ch=1 n=d5 v=91
23576 On ch=1 n=b4 v=88
23581 On ch=1 n=e5 v=0
23600 On ch=1 n=b4 v=0
23623 On ch=1 n=e5 v=78
23631 On ch=1 n=d5 v=0
23677 On ch=1 n=e5 v=0
23678 On ch=1 n=c#5 v=95
23681 On ch=1 n=a4 v=77
23706 On ch=1 n=a4 v=0
23725 On ch=1 n=e5 v=88
23730 On ch=1 n=c#5 v=0
23774 On ch=1 n=e5 v=0
23775 On ch=1 n=b4 v=83
23780 On ch=1 n=g#4 v=81
23818 On ch=1 n=e5 v=84
23819 On ch=1 n=g#4 v=0
23822 On ch=1 n=b4 v=0
23852 On ch=1 n=e5 v=0
23878 Par ch=1 c=64 v=63
23879 Par ch=1 c=64 v=127
23879 On ch=1 n=a4 v=85
23913 On ch=1 n=a4 v=0
23935 On ch=1 n=c#5 v=98
23970 On ch=1 n=c#5 v=0
23992 On ch=1 n=e5 v=88
24032 On ch=1 n=e5 v=0
24034 On ch=1 n=a5 v=82
24073 On ch=1 n=c#6 v=80
24079 On ch=1 n=a5 v=0
24125 On ch=1 n=c#6 v=0
24136 On ch=1 n=e6 v=84
24165 On ch=1 n=e6 v=0
24182 On ch=1 n=a6 v=87
24187 On ch=1 n=c#5 v=85
24192 On ch=1 n=a4 v=67
24239 On ch=1 n=g#6 v=91
24264 On ch=1 n=a6 v=0
24286 On ch=1 n=d5 v=93
24291 On ch=1 n=b4 v=81
24291 On ch=1 n=f#6 v=108
24297 On ch=1 n=c#5 v=0
24302 On ch=1 n=g#6 v=0
24303 On ch=1 n=a4 v=0
24341 On ch=1 n=e6 v=96
24356 On ch=1 n=f#6 v=0
24384 On ch=1 n=d6 v=91
24388 On ch=1 n=c#5 v=95
24388 On ch=1 n=e5 v=77
24392 On ch=1 n=e6 v=0
24395 On ch=1 n=d5 v=0
24402 On ch=1 n=b4 v=0
24422 On ch=1 n=e5 v=0
24437 On ch=1 n=c#6 v=114
24444 On ch=1 n=d6 v=0
24470 On ch=1 n=c#5 v=0
24472 Par ch=1 c=64 v=63
24474 On ch=1 n=c#6 v=0
24480 Par ch=1 c=64 v=0
24494 On ch=1 n=d5 v=93
24495 On ch=1 n=f#5 v=104
24544 On ch=1 n=a#5 v=101
24587 On ch=1 n=a#5 v=0
24593 On ch=1 n=b5 v=97
24607 Par ch=1 c=64 v=63
24610 Par ch=1 c=64 v=127
24641 On ch=1 n=c#6 v=105
24647 On ch=1 n=b5 v=0
24667 On ch=1 n=d5 v=0
24670 On ch=1 n=f#5 v=0
24682 On ch=1 n=d6 v=89
24687 On ch=1 n=c#6 v=0
24740 On ch=1 n=e6 v=84
24749 Par ch=1 c=64 v=63
24750 On ch=1 n=d6 v=0
24755 Par ch=1 c=64 v=0
24797 On ch=1 n=f#6 v=99
24799 On ch=1 n=d5 v=89
24804 On ch=1 n=e6 v=0
24805 On ch=1 n=b4 v=78
24815 Par ch=1 c=64 v=63
24824 Par ch=1 c=64 v=127
24834 On ch=1 n=e6 v=78
24850 On ch=1 n=f#6 v=0
24876 On ch=1 n=d5 v=0
24893 On ch=1 n=d6 v=79
24901 On ch=1 n=e6 v=0
24903 On ch=1 n=c#5 v=97
24912 Par ch=1 c=64 v=63
24913 On ch=1 n=e5 v=66
24919 On ch=1 n=b4 v=0
24937 Par ch=1 c=64 v=127
24937 On ch=1 n=c#6 v=99
24940 On ch=1 n=e5 v=0
24957 On ch=1 n=d6 v=0
24985 On ch=1 n=b5 v=78
24987 On ch=1 n=c#6 v=0
24993 On ch=1 n=c#5 v=0
25002 On ch=1 n=d5 v=80
25003 On ch=1 n=f#5 v=91
25024 On ch=1 n=d5 v=0
25030 On ch=1 n=b5 v=0
25031 Par ch=1 c=64 v=63
25032 On ch=1 n=f#5 v=0
25040 Par ch=1 c=64 v=0
25041 On ch=1 n=a5 v=102
25078 On ch=1 n=a5 v=0
25080 On ch=1 n=e4 v=80
25087 Par ch=1 c=64 v=63
25087 Par ch=1 c=64 v=127
25089 On ch=1 n=e5 v=87
25097 Par ch=1 c=64 v=63
25104 Par ch=1 c=64 v=127
25114 On ch=1 n=e4 v=0
25122 On ch=1 n=c#6 v=92
25128 On ch=1 n=e5 v=0
25170 On ch=1 n=a5 v=85
25171 On ch=1 n=c#6 v=0
25179 On ch=1 n=c#5 v=90
25181 On ch=1 n=a4 v=65
25205 Par ch=1 c=64 v=63
25207 On ch=1 n=a4 v=0
25208 Par ch=1 c=64 v=0
25209 On ch=1 n=c#5 v=0
25221 On ch=1 n=a5 v=0
25221 On ch=1 n=e6 v=97
25270 On ch=1 n=c#6 v=105
25276 On ch=1 n=e6 v=0
25276 On ch=1 n=a4 v=76
25282 On ch=1 n=c#5 v=77
25303 On ch=1 n=c#5 v=0
25313 On ch=1 n=c#6 v=0
25319 On ch=1 n=a4 v=0
25325 On ch=1 n=a6 v=97
25362 On ch=1 n=a6 v=0
25379 Par ch=1 c=64 v=63
25380 Par ch=1 c=64 v=127
25400 On ch=1 n=e4 v=84
25425 On ch=1 n=b5 v=98
25442 On ch=1 n=e4 v=0
25467 On ch=1 n=b5 v=0
25487 On ch=1 n=c#6 v=96
25518 On ch=1 n=c#6 v=0
25524 On ch=1 n=b5 v=86
25532 On ch=1 n=g#4 v=80
25534 On ch=1 n=d5 v=68
25554 On ch=1 n=c#6 v=91
25557 On ch=1 n=b5 v=0
25559 On ch=1 n=d5 v=0
25560 On ch=1 n=g#4 v=0
25576 On ch=1 n=c#6 v=0
25605 On ch=1 n=c#6 v=95
25612 On ch=1 n=g#4 v=82
25613 On ch=1 n=d5 v=87
25623 On ch=1 n=c#6 v=0
25625 On ch=1 n=b5 v=84
25655 On ch=1 n=d5 v=0
25657 On ch=1 n=g#4 v=0
25672 On ch=1 n=a5 v=98
25673 On ch=1 n=b5 v=0
25701 Par ch=1 c=64 v=63
25702 On ch=1 n=b5 v=80
25705 Par ch=1 c=64 v=0
25707 On ch=1 n=a5 v=0
25739 On ch=1 n=c#5 v=98
25741 Par ch=1 c=64 v=63
25741 On ch=1 n=a5 v=104
25742 On ch=1 n=a4 v=80
25747 On ch=1 n=b5 v=0
25748 Par ch=1 c=64 v=127
25770 On ch=1 n=c#5 v=0
25771 On ch=1 n=a4 v=0
25781 On ch=1 n=a5 v=0
25853 Par ch=1 c=64 v=63
25854 On ch=1 n=a4 v=96
25856 Par ch=1 c=64 v=0
25867 On ch=1 n=a3 v=82
25887 On ch=1 n=a4 v=0
25893 On ch=1 n=a3 v=0
25968 On ch=1 n=a4 v=96
25968 On ch=1 n=a3 v=100
26003 On ch=1 n=a4 v=0
26005 On ch=1 n=a3 v=0
26116 On ch=1 n=a4 v=90
26119 On ch=1 n=a3 v=85
26123 Par ch=1 c=64 v=63
26126 Par ch=1 c=64 v=127
26152 On ch=1 n=a3 v=0
26156 On ch=1 n=a4 v=0
26435 Par ch=1 c=64 v=63
26444 Par ch=1 c=64 v=0
26468 On ch=1 n=c#6 v=67
26524 Par ch=1 c=64 v=63
26533 Par ch=1 c=64 v=127
26541 On ch=1 n=c#6 v=0
26655 On ch=1 n=d6 v=76
26877 On ch=1 n=e6 v=86
26892 On ch=1 n=d6 v=0
26991 On ch=1 n=f#6 v=93
27038 On ch=1 n=e6 v=0
27112 Par ch=1 c=64 v=63
27116 On ch=1 n=f#6 v=0
27122 On ch=1 n=e6 v=93
27123 Par ch=1 c=64 v=0
27172 On ch=1 n=d6 v=83
27190 On ch=1 n=e6 v=0
27214 On ch=1 n=c#6 v=98
27239 On ch=1 n=d6 v=0
27259 On ch=1 n=b5 v=86
27260 On ch=1 n=c#6 v=0
27304 On ch=1 n=b5 v=0
27316 On ch=1 n=a5 v=97
27326 On ch=1 n=d5 v=70
27332 On ch=1 n=e4 v=55
27335 On ch=1 n=b4 v=67
27392 Par ch=1 c=64 v=63
27397 Par ch=1 c=64 v=127
27653 Par ch=1 c=64 v=63
27663 Par ch=1 c=64 v=0
27677 On ch=1 n=g#5 v=66
27681 On ch=1 n=a5 v=0
27699 Par ch=1 c=64 v=63
27718 Par ch=1 c=64 v=127
27732 On ch=1 n=b4 v=0
27757 On ch=1 n=e4 v=0
27760 On ch=1 n=g#5 v=0
27781 On ch=1 n=d5 v=0
27796 Par ch=1 c=64 v=63
27803 Par ch=1 c=64 v=0
27891 On ch=1 n=f#5 v=83
27894 On ch=1 n=g#4 v=80
27904 On ch=1 n=d4 v=72
27923 On ch=1 n=f#5 v=0
27926 On ch=1 n=g#4 v=0
27932 On ch=1 n=d4 v=0
28033 On ch=1 n=f#5 v=80
28035 On ch=1 n=a4 v=58
28036 On ch=1 n=c#4 v=61
28053 Par ch=1 c=64 v=63
28055 Par ch=1 c=64 v=127
28141 On ch=1 n=f#5 v=0
28160 On ch=1 n=e5 v=68
28206 On ch=1 n=e5 v=0
28214 Par ch=1 c=64 v=63
28219 Par ch=1 c=64 v=0
28262 On ch=1 n=e5 v=76
28304 On ch=1 n=e5 v=0
28343 On ch=1 n=c#4 v=0
28352 On ch=1 n=a4 v=0
28369 On ch=1 n=e5 v=76
28474 On ch=1 n=e5 v=0
28484 On ch=1 n=a5 v=76
28484 On ch=1 n=c#4 v=73
28561 On ch=1 n=c#4 v=0
28577 On ch=1 n=a5 v=0
28589 On ch=1 n=a3 v=71
28595 On ch=1 n=c#6 v=88
28599 On ch=1 n=a5 v=77
28635 On ch=1 n=a5 v=0
28646 On ch=1 n=a3 v=0
28657 On ch=1 n=c#6 v=0
28705 On ch=1 n=c#6 v=78
28708 On ch=1 n=a5 v=68
28714 On ch=1 n=e4 v=63
28726 Par ch=1 c=64 v=63
28729 Par ch=1 c=64 v=127
28930 On ch=1 n=d6 v=77
28947 On ch=1 n=c#6 v=0
29014 On ch=1 n=d6 v=0
29037 On ch=1 n=a5 v=0
29037 Par ch=1 c=64 v=63
29042 Par ch=1 c=64 v=0
29064 On ch=1 n=b5 v=60
29065 On ch=1 n=g#5 v=54
29107 Par ch=1 c=64 v=63
29115 Par ch=1 c=64 v=127
29170 On ch=1 n=b5 v=0
29199 On ch=1 n=e4 v=0
29210 Par ch=1 c=64 v=63
29214 Par ch=1 c=64 v=0
29246 On ch=1 n=g#5 v=0
29280 On ch=1 n=c#6 v=83
29286 Par ch=1 c=64 v=63
29294 Par ch=1 c=64 v=127
29326 On ch=1 n=c#6 v=0
29399 On ch=1 n=d6 v=86
29440 On ch=1 n=d6 v=0
29497 Par ch=1 c=64 v=63
29505 Par ch=1 c=64 v=0
29522 On ch=1 n=d6 v=94
29523 Par ch=1 c=64 v=63
29540 Par ch=1 c=64 v=127
29580 On ch=1 n=d6 v=0
29580 On ch=1 n=c#6 v=90
29625 On ch=1 n=e6 v=81
29633 On ch=1 n=c#6 v=0
29669 On ch=1 n=d6 v=86
29681 On ch=1 n=e6 v=0
29720 On ch=1 n=d6 v=0
29722 On ch=1 n=f#6 v=98
29765 On ch=1 n=e6 v=84
29773 On ch=1 n=f#6 v=0
29807 On ch=1 n=d6 v=90
29824 On ch=1 n=e6 v=0
29846 Par ch=1 c=64 v=63
29852 Par ch=1 c=64 v=0
29856 On ch=1 n=c#6 v=94
29867 On ch=1 n=d6 v=0
29906 On ch=1 n=c#6 v=0
29907 On ch=1 n=d6 v=74
29956 On ch=1 n=b5 v=84
29961 On ch=1 n=d6 v=0
30004 On ch=1 n=b5 v=0
30009 On ch=1 n=a5 v=75
30017 On ch=1 n=d5 v=78
30023 On ch=1 n=b4 v=76
30023 On ch=1 n=e4 v=59
30026 Par ch=1 c=64 v=63
30030 Par ch=1 c=64 v=127
30061 On ch=1 n=g#5 v=89
30064 On ch=1 n=a5 v=0
30100 On ch=1 n=g#5 v=0
30110 On ch=1 n=b5 v=88
30156 On ch=1 n=b5 v=0
30164 On ch=1 n=a5 v=87
30174 Par ch=1 c=64 v=63
30204 Par ch=1 c=64 v=127
30213 On ch=1 n=c#6 v=101
30219 On ch=1 n=a5 v=0
30256 Par ch=1 c=64 v=63
30260 On ch=1 n=b5 v=97
30266 On ch=1 n=c#6 v=0
30267 Par ch=1 c=64 v=0
30277 Par ch=1 c=64 v=63
30289 Par ch=1 c=64 v=127
30295 On ch=1 n=e4 v=0
30315 On ch=1 n=b4 v=0
30318 On ch=1 n=d6 v=99
30324 On ch=1 n=b5 v=0
30343 On ch=1 n=d5 v=0
30365 On ch=1 n=c#6 v=107
30375 On ch=1 n=d6 v=0
30408 On ch=1 n=e6 v=98
30422 On ch=1 n=c#6 v=0
30451 On ch=1 n=e6 v=0
30460 On ch=1 n=d6 v=101
30513 On ch=1 n=f#6 v=109
30515 On ch=1 n=d6 v=0
30519 On ch=1 n=g#5 v=95
30522 On ch=1 n=d5 v=91
30561 On ch=1 n=f#6 v=0
30562 On ch=1 n=e6 v=98
30567 On ch=1 n=d5 v=0
30568 On ch=1 n=g#5 v=0
30599 Par ch=1 c=64 v=63
30603 On ch=1 n=e6 v=0
30604 Par ch=1 c=64 v=0
30630 On ch=1 n=a5 v=103
30630 On ch=1 n=e6 v=90
30634 On ch=1 n=c#5 v=114
30663 Par ch=1 c=64 v=63
30671 Par ch=1 c=64 v=127
30687 On ch=1 n=e6 v=0
30688 On ch=1 n=a6 v=92
30739 On ch=1 n=g#6 v=97
30750 On ch=1 n=a6 v=0
30780 On ch=1 n=c#5 v=0
30783 On ch=1 n=g6 v=87
30787 On ch=1 n=g#6 v=0
30793 On ch=1 n=a5 v=0
30828 On ch=1 n=f#6 v=109
30836 On ch=1 n=g6 v=0
30839 On ch=1 n=a5 v=86
30844 On ch=1 n=d5 v=89
30877 On ch=1 n=f6 v=104
30883 On ch=1 n=a5 v=0
30887 On ch=1 n=d5 v=0
30914 On ch=1 n=f#6 v=0
30928 Par ch=1 c=64 v=63
30929 On ch=1 n=e6 v=106
30934 Par ch=1 c=64 v=0
30939 On ch=1 n=a5 v=101
30942 On ch=1 n=c#5 v=115
30943 On ch=1 n=f6 v=0
30983 Par ch=1 c=64 v=63
30991 Par ch=1 c=64 v=127
30993 On ch=1 n=a6 v=103
31002 On ch=1 n=e6 v=0
31047 On ch=1 n=g#6 v=107
31065 On ch=1 n=a6 v=0
31099 On ch=1 n=g6 v=98
31101 On ch=1 n=c#5 v=0
31102 On ch=1 n=g#6 v=0
31109 On ch=1 n=a5 v=0
31137 Par ch=1 c=64 v=63
31141 Par ch=1 c=64 v=0
31142 On ch=1 n=a5 v=88
31144 On ch=1 n=d5 v=98
31148 On ch=1 n=f#6 v=110
31154 On ch=1 n=g6 v=0
31180 On ch=1 n=d5 v=0
31182 On ch=1 n=a5 v=0
31193 On ch=1 n=f6 v=107
31207 On ch=1 n=f#6 v=0
31265 On ch=1 n=e6 v=121
31269 On ch=1 n=a5 v=108
31271 On ch=1 n=c#5 v=118
31285 Par ch=1 c=64 v=63
31287 Par ch=1 c=64 v=127
31289 On ch=1 n=f6 v=0
31410 On ch=1 n=e6 v=0
31446 Par ch=1 c=64 v=63
31461 Par ch=1 c=64 v=0
31566 On ch=1 n=a5 v=0
31620 On ch=1 n=b5 v=116
31621 On ch=1 n=g#5 v=113
31622 On ch=1 n=f6 v=121
31640 Par ch=1 c=64 v=63
31643 Par ch=1 c=64 v=127
31936 On ch=1 n=b5 v=0
31944 On ch=1 n=c#5 v=0
31965 On ch=1 n=g#5 v=0
32002 On ch=1 n=f#6 v=120
32003 On ch=1 n=a5 v=112
32004 On ch=1 n=f#5 v=113
32005 On ch=1 n=d5 v=109
32024 On ch=1 n=f6 v=0
32033 Par ch=1 c=64 v=63
32037 Par ch=1 c=64 v=0
32093 Par ch=1 c=64 v=63
32098 Par ch=1 c=64 v=127
32146 On ch=1 n=f#6 v=0
32270 On ch=1 n=f#6 v=112
32321 On ch=1 n=g#6 v=97
32343 On ch=1 n=f#6 v=0
32368 On ch=1 n=a6 v=86
32386 On ch=1 n=g#6 v=0
32407 On ch=1 n=f6 v=93
32419 On ch=1 n=a6 v=0
32423 On ch=1 n=f#5 v=0
32442 On ch=1 n=a5 v=0
32454 On ch=1 n=d5 v=0
32456 On ch=1 n=f#6 v=97
32467 On ch=1 n=f6 v=0
32501 On ch=1 n=f#6 v=0
32509 On ch=1 n=c#6 v=95
32544 On ch=1 n=c#6 v=0
32567 On ch=1 n=d6 v=88
32605 Par ch=1 c=64 v=63
32610 On ch=1 n=b5 v=91
32611 Par ch=1 c=64 v=0
32618 On ch=1 n=d6 v=0
32668 On ch=1 n=b5 v=0
32672 On ch=1 n=a5 v=103
32722 Par ch=1 c=64 v=63
32725 Par ch=1 c=64 v=127
32919 On ch=1 n=c#5 v=87
32923 On ch=1 n=e4 v=76
33045 On ch=1 n=c#5 v=0
33064 On ch=1 n=d5 v=100
33067 On ch=1 n=f4 v=93
33079 On ch=1 n=e4 v=0
33103 Par ch=1 c=64 v=63
33111 Par ch=1 c=64 v=0
33161 Par ch=1 c=64 v=63
33175 Par ch=1 c=64 v=127
33231 On ch=1 n=d5 v=0
33277 On ch=1 n=f4 v=0
33287 On ch=1 n=a5 v=0
33293 On ch=1 n=d#5 v=114
33294 On ch=1 n=f#4 v=95
33392 On ch=1 n=d#5 v=0
33427 On ch=1 n=f#4 v=0
33432 On ch=1 n=c#6 v=114
33435 On ch=1 n=e4 v=76
33436 On ch=1 n=e5 v=78
33437 On ch=1 n=a5 v=90
33491 Par ch=1 c=64 v=63
33499 Par ch=1 c=64 v=0
33580 Par ch=1 c=64 v=63
33587 Par ch=1 c=64 v=127
33692 On ch=1 n=e5 v=0
33693 On ch=1 n=c#6 v=0
33779 On ch=1 n=c#6 v=91
33781 On ch=1 n=g#5 v=89
33782 On ch=1 n=a5 v=0
33802 On ch=1 n=d5 v=75
33807 On ch=1 n=b5 v=72
33818 Par ch=1 c=64 v=63
33824 Par ch=1 c=64 v=0
33833 On ch=1 n=c#6 v=0
33900 On ch=1 n=b5 v=0
33921 On ch=1 n=a5 v=69
33967 On ch=1 n=e4 v=0
34040 On ch=1 n=b5 v=77
34041 On ch=1 n=a5 v=0
34045 On ch=1 n=g#5 v=0
34119 On ch=1 n=b5 v=0
34139 On ch=1 n=d5 v=0
34161 On ch=1 n=a5 v=65
34164 On ch=1 n=a4 v=73
34193 Par ch=1 c=64 v=63
34198 Par ch=1 c=64 v=127
34265 On ch=1 n=a5 v=0
34276 On ch=1 n=c#5 v=66
34318 On ch=1 n=a4 v=0
34383 On ch=1 n=c#5 v=0
34398 On ch=1 n=d#6 v=79
34402 On ch=1 n=e5 v=73
34444 On ch=1 n=d#6 v=0
34444 On ch=1 n=e6 v=83
34469 Par ch=1 c=64 v=63
34479 Par ch=1 c=64 v=0
34497 Par ch=1 c=64 v=63
34506 On ch=1 n=f#6 v=88
34507 On ch=1 n=e6 v=0
34507 On ch=1 n=a4 v=48
34517 On ch=1 n=e5 v=0
34523 Par ch=1 c=64 v=127
34545 On ch=1 n=e6 v=83
34561 On ch=1 n=f#6 v=0
34603 On ch=1 n=d6 v=78
34618 On ch=1 n=e6 v=0
34634 On ch=1 n=c#5 v=63
34654 On ch=1 n=c#6 v=93
34672 On ch=1 n=d6 v=0
34693 On ch=1 n=a4 v=0
34696 On ch=1 n=c#6 v=0
34703 On ch=1 n=b5 v=63
34715 On ch=1 n=c#5 v=0
34720 On ch=1 n=e5 v=63
34752 On ch=1 n=a5 v=91
34762 On ch=1 n=b5 v=0
34803 Par ch=1 c=64 v=63
34806 On ch=1 n=e5 v=0
34810 On ch=1 n=e4 v=40
34815 On ch=1 n=a5 v=0
34815 On ch=1 n=g#5 v=80
34823 Par ch=1 c=64 v=0
34858 On ch=1 n=g#5 v=0
34864 On ch=1 n=a5 v=68
34876 Par ch=1 c=64 v=63
34905 Par ch=1 c=64 v=127
34919 On ch=1 n=g#4 v=79
34924 On ch=1 n=b5 v=84
34932 On ch=1 n=a5 v=0
34953 Par ch=1 c=64 v=63
34973 On ch=1 n=c#6 v=91
34979 On ch=1 n=b5 v=0
34995 Par ch=1 c=64 v=0
35017 On ch=1 n=c#6 v=0
35018 On ch=1 n=b4 v=71
35026 On ch=1 n=d6 v=86
35033 On ch=1 n=e4 v=0
35059 On ch=1 n=g#4 v=0
35076 On ch=1 n=e6 v=92
35081 On ch=1 n=d6 v=0
35124 On ch=1 n=f#6 v=105
35126 On ch=1 n=e4 v=80
35138 On ch=1 n=e6 v=0
35148 On ch=1 n=b4 v=0
35180 On ch=1 n=g#6 v=101
35203 On ch=1 n=f#6 v=0
35232 On ch=1 n=g#6 v=0
35235 On ch=1 n=g#4 v=83
35239 On ch=1 n=a6 v=97
35289 On ch=1 n=b6 v=84
35298 On ch=1 n=a6 v=0
35331 On ch=1 n=b4 v=71
35335 On ch=1 n=c#7 v=106
35336 On ch=1 n=e4 v=0
35346 On ch=1 n=g#4 v=0
35353 On ch=1 n=b6 v=0
35379 On ch=1 n=d7 v=103
35402 On ch=1 n=c#7 v=0
35433 On ch=1 n=a4 v=76
35436 On ch=1 n=c#7 v=105
35437 On ch=1 n=b4 v=0
35454 Par ch=1 c=64 v=63
35460 Par ch=1 c=64 v=127
35468 On ch=1 n=d7 v=0
35524 On ch=1 n=c#7 v=0
35552 On ch=1 n=c#5 v=98
35664 On ch=1 n=d#6 v=103
35670 On ch=1 n=a4 v=0
35679 On ch=1 n=e5 v=59
35680 Par ch=1 c=64 v=63
35694 Par ch=1 c=64 v=0
35719 On ch=1 n=c#5 v=0
35726 On ch=1 n=e6 v=85
35729 On ch=1 n=d#6 v=0
35751 On ch=1 n=e6 v=0
35768 Par ch=1 c=64 v=63
35771 On ch=1 n=a4 v=63
35773 On ch=1 n=f#6 v=97
35779 Par ch=1 c=64 v=127
35780 On ch=1 n=e5 v=0
35816 On ch=1 n=e6 v=83
35826 On ch=1 n=f#6 v=0
35864 On ch=1 n=d6 v=92
35882 On ch=1 n=c#5 v=67
35885 On ch=1 n=e6 v=0
35918 On ch=1 n=c#6 v=100
35940 On ch=1 n=d6 v=0
35944 On ch=1 n=a4 v=0
35966 On ch=1 n=b5 v=68
35967 On ch=1 n=c#6 v=0
35967 On ch=1 n=e5 v=60
35970 On ch=1 n=c#5 v=0
36002 On ch=1 n=b5 v=0
36011 On ch=1 n=a5 v=100
36054 On ch=1 n=e5 v=0
36063 Par ch=1 c=64 v=63
36066 On ch=1 n=e4 v=80
36071 On ch=1 n=a5 v=0
36072 On ch=1 n=g#5 v=94
36079 Par ch=1 c=64 v=0
36118 On ch=1 n=f#5 v=94
36134 On ch=1 n=g#5 v=0
36171 On ch=1 n=f#5 v=0
36176 On ch=1 n=e5 v=81
36180 On ch=1 n=b4 v=64
36219 On ch=1 n=f#5 v=88
36225 On ch=1 n=e5 v=0
36265 On ch=1 n=g#5 v=95
36276 On ch=1 n=e4 v=0
36277 On ch=1 n=d5 v=62
36284 On ch=1 n=f#5 v=0
36308 On ch=1 n=b4 v=0
36320 On ch=1 n=g#5 v=0
36327 On ch=1 n=a5 v=75
36368 On ch=1 n=e4 v=72
36379 On ch=1 n=b5 v=86
36381 On ch=1 n=a5 v=0
36392 On ch=1 n=d5 v=0
36423 On ch=1 n=c#6 v=94
36431 On ch=1 n=b5 v=0
36473 On ch=1 n=c#6 v=0
36481 On ch=1 n=b4 v=60
36487 On ch=1 n=d6 v=69
36497 On ch=1 n=e4 v=0
36528 On ch=1 n=e6 v=87
36536 On ch=1 n=d6 v=0
36558 On ch=1 n=b4 v=0
36568 On ch=1 n=d5 v=56
36574 On ch=1 n=f#6 v=99
36584 On ch=1 n=e6 v=0
36624 On ch=1 n=g#6 v=81
36643 On ch=1 n=f#6 v=0
36679 On ch=1 n=a6 v=84
36684 On ch=1 n=c#5 v=73
36685 On ch=1 n=a4 v=49
36693 On ch=1 n=d5 v=0
36694 Par ch=1 c=64 v=63
36695 On ch=1 n=g#6 v=0
36711 Par ch=1 c=64 v=127
36785 On ch=1 n=a6 v=0
36800 On ch=1 n=e6 v=83
36898 On ch=1 n=e6 v=0
36903 On ch=1 n=e5 v=45
36903 On ch=1 n=c#7 v=83
36921 On ch=1 n=c#5 v=0
36928 Par ch=1 c=64 v=63
36937 On ch=1 n=a4 v=0
36975 Par ch=1 c=64 v=0
36986 Par ch=1 c=64 v=63
37006 On ch=1 n=c#7 v=0
37014 On ch=1 n=c#5 v=80
37015 On ch=1 n=a6 v=76
37019 On ch=1 n=a4 v=61
37029 On ch=1 n=e5 v=0
37140 On ch=1 n=e6 v=67
37162 On ch=1 n=a6 v=0
37231 On ch=1 n=e5 v=41
37234 Par ch=1 c=64 v=0
37235 On ch=1 n=e6 v=0
37242 On ch=1 n=c#7 v=72
37257 On ch=1 n=c#5 v=0
37260 On ch=1 n=a4 v=0
37329 On ch=1 n=c#7 v=0
37370 On ch=1 n=a6 v=61
37372 On ch=1 n=c#5 v=76
37377 On ch=1 n=a4 v=58
37383 Par ch=1 c=64 v=63
37388 On ch=1 n=e5 v=0
37388 Par ch=1 c=64 v=127
37421 On ch=1 n=a4 v=0
37426 On ch=1 n=c#5 v=0
37688 On ch=1 n=a6 v=0
37769 Par ch=1 c=64 v=63
37796 Par ch=1 c=64 v=0
38179 Par ch=1 c=64 v=63
38184 On ch=1 n=a6 v=58
38193 On ch=1 n=a4 v=36
38197 On ch=1 n=c5 v=41
38201 Par ch=1 c=64 v=127
38309 On ch=1 n=e6 v=44
38319 On ch=1 n=a6 v=0
38391 On ch=1 n=c5 v=0
38403 On ch=1 n=e5 v=33
38419 On ch=1 n=e6 v=0
38421 On ch=1 n=c7 v=50
38462 On ch=1 n=a4 v=0
38523 On ch=1 n=c7 v=0
38524 On ch=1 n=a6 v=52
38527 On ch=1 n=a4 v=34
38537 On ch=1 n=c5 v=44
38544 On ch=1 n=e5 v=0
38571 Par ch=1 c=64 v=63
38636 On ch=1 n=e6 v=49
38642 Par ch=1 c=64 v=127
38651 On ch=1 n=a6 v=0
38748 On ch=1 n=e5 v=37
38760 On ch=1 n=c5 v=0
38761 On ch=1 n=c7 v=47
38766 On ch=1 n=e6 v=0
38788 On ch=1 n=a4 v=0
38884 On ch=1 n=c7 v=0
38891 On ch=1 n=a4 v=28
38893 On ch=1 n=c5 v=48
38896 On ch=1 n=a6 v=48
38912 Par ch=1 c=64 v=63
38926 Par ch=1 c=64 v=0
38983 Par ch=1 c=64 v=63
38998 Par ch=1 c=64 v=127
39063 On ch=1 n=e5 v=0
39211 On ch=1 n=a6 v=0
39235 On ch=1 n=c5 v=0
39245 On ch=1 n=a4 v=0
39266 Par ch=1 c=64 v=63
39275 Par ch=1 c=64 v=0
39588 On ch=1 n=d#5 v=114
39589 On ch=1 n=f4 v=92
39591 On ch=1 n=c5 v=104
39591 On ch=1 n=a6 v=100
39619 Par ch=1 c=64 v=63
39624 Par ch=1 c=64 v=127
39726 On ch=1 n=d#6 v=107
39758 On ch=1 n=a6 v=0
39784 On ch=1 n=f4 v=0
39828 On ch=1 n=c7 v=99
39829 On ch=1 n=f#4 v=94
39849 On ch=1 n=d#6 v=0
39894 On ch=1 n=c5 v=0
39898 On ch=1 n=d#5 v=0
39912 On ch=1 n=f#4 v=0
39933 On ch=1 n=a6 v=97
39937 On ch=1 n=c5 v=93
39937 On ch=1 n=d#5 v=96
39941 On ch=1 n=f4 v=76
39948 On ch=1 n=c7 v=0
39955 Par ch=1 c=64 v=63
39960 Par ch=1 c=64 v=0
40001 Par ch=1 c=64 v=63
40012 Par ch=1 c=64 v=127
40043 On ch=1 n=d#6 v=97
40093 On ch=1 n=a6 v=0
40143 On ch=1 n=f#4 v=81
40148 On ch=1 n=c7 v=99
40149 On ch=1 n=f4 v=0
40161 On ch=1 n=d#6 v=0
40239 On ch=1 n=c5 v=0
40246 On ch=1 n=d#5 v=0
40286 Par ch=1 c=64 v=63
40289 Par ch=1 c=64 v=0
40291 On ch=1 n=d#5 v=84
40291 On ch=1 n=c5 v=84
40292 On ch=1 n=f4 v=76
40295 On ch=1 n=a6 v=93
40302 On ch=1 n=f#4 v=0
40312 On ch=1 n=c7 v=0
40380 Par ch=1 c=64 v=63
40387 Par ch=1 c=64 v=127
40515 On ch=1 n=a6 v=0
40649 On ch=1 n=d#5 v=0
40677 On ch=1 n=f4 v=0
40686 On ch=1 n=c5 v=0
40686 Par ch=1 c=64 v=63
40690 Par ch=1 c=64 v=0
40944 On ch=1 n=f5 v=96
40978 On ch=1 n=f5 v=0
41060 On ch=1 n=a#5 v=118
41096 On ch=1 n=a#5 v=0
41174 On ch=1 n=f5 v=92
41207 On ch=1 n=f5 v=0
41268 On ch=1 n=a#5 v=105
41304 On ch=1 n=a#5 v=0
41373 On ch=1 n=d6 v=99
41416 On ch=1 n=d6 v=0
41482 On ch=1 n=a#5 v=107
41518 On ch=1 n=a#5 v=0
41571 On ch=1 n=f4 v=93
41577 On ch=1 n=d6 v=99
41621 On ch=1 n=d6 v=0
41635 On ch=1 n=f4 v=0
41688 On ch=1 n=f6 v=111
41691 On ch=1 n=a#4 v=104
41715 Par ch=1 c=64 v=63
41718 Par ch=1 c=64 v=127
41740 On ch=1 n=f6 v=0
41748 On ch=1 n=a#4 v=0
41796 On ch=1 n=f4 v=80
41853 On ch=1 n=f4 v=0
41859 Par ch=1 c=64 v=63
41862 Par ch=1 c=64 v=0
41892 On ch=1 n=f6 v=99
41899 On ch=1 n=a#4 v=92
41927 On ch=1 n=f6 v=0
41937 On ch=1 n=a#4 v=0
42005 On ch=1 n=f6 v=113
42006 On ch=1 n=d5 v=92
42014 Par ch=1 c=64 v=63
42016 Par ch=1 c=64 v=127
42048 On ch=1 n=f6 v=0
42052 On ch=1 n=d5 v=0
42103 On ch=1 n=a#4 v=101
42137 Par ch=1 c=64 v=63
42144 Par ch=1 c=64 v=0
42147 On ch=1 n=a#4 v=0
42206 On ch=1 n=d5 v=100
42207 On ch=1 n=a#6 v=112
42242 On ch=1 n=d5 v=0
42247 On ch=1 n=a#6 v=0
42303 Par ch=1 c=64 v=63
42306 On ch=1 n=f5 v=112
42306 Par ch=1 c=64 v=127
42308 On ch=1 n=a6 v=112
42357 On ch=1 n=f5 v=0
42357 On ch=1 n=g6 v=107
42366 On ch=1 n=a6 v=0
42405 On ch=1 n=g6 v=0
42406 On ch=1 n=f6 v=98
42447 On ch=1 n=g6 v=94
42455 On ch=1 n=f6 v=0
42477 On ch=1 n=g6 v=0
42510 On ch=1 n=f5 v=104
42511 On ch=1 n=a6 v=95
42514 Par ch=1 c=64 v=63
42523 Par ch=1 c=64 v=0
42547 On ch=1 n=f5 v=0
42557 On ch=1 n=a6 v=0
42561 On ch=1 n=a#6 v=93
42600 On ch=1 n=a#6 v=0
42626 On ch=1 n=c7 v=92
42628 On ch=1 n=f5 v=117
42638 Par ch=1 c=64 v=63
42641 Par ch=1 c=64 v=127
42652 On ch=1 n=f5 v=0
42667 On ch=1 n=a#6 v=103
42679 On ch=1 n=c7 v=0
42719 On ch=1 n=a#6 v=0
42725 On ch=1 n=a6 v=80
42777 On ch=1 n=a#6 v=95
42788 On ch=1 n=a6 v=0
42826 On ch=1 n=c7 v=89
42828 On ch=1 n=a#5 v=92
42829 Par ch=1 c=64 v=63
42834 On ch=1 n=a#6 v=0
42837 Par ch=1 c=64 v=0
42860 On ch=1 n=a#5 v=0
42875 On ch=1 n=d7 v=96
42892 On ch=1 n=c7 v=0
42929 On ch=1 n=a5 v=94
42931 On ch=1 n=d#7 v=99
42934 On ch=1 n=d7 v=0
42965 On ch=1 n=d#7 v=0
42983 On ch=1 n=a5 v=0
42985 On ch=1 n=g5 v=80
43032 On ch=1 n=f6 v=90
43036 On ch=1 n=f5 v=85
43041 On ch=1 n=g5 v=0
43063 On ch=1 n=f6 v=0
43078 On ch=1 n=g5 v=68
43106 On ch=1 n=f5 v=0
43121 On ch=1 n=a5 v=89
43143 On ch=1 n=d#7 v=119
43144 On ch=1 n=g5 v=0
43161 Par ch=1 c=64 v=63
43166 Par ch=1 c=64 v=127
43183 On ch=1 n=a#5 v=99
43193 On ch=1 n=a5 v=0
43237 On ch=1 n=a#5 v=0
43238 On ch=1 n=c6 v=96
43273 Par ch=1 c=64 v=63
43277 On ch=1 n=a#5 v=79
43281 Par ch=1 c=64 v=0
43302 On ch=1 n=c6 v=0
43324 On ch=1 n=d#7 v=0
43334 On ch=1 n=f6 v=90
43336 On ch=1 n=a5 v=91
43337 On ch=1 n=a#5 v=0
43367 On ch=1 n=f6 v=0
43392 On ch=1 n=a#5 v=100
43412 On ch=1 n=a5 v=0
43436 On ch=1 n=d#7 v=116
43446 On ch=1 n=c6 v=86
43455 On ch=1 n=a#5 v=0
43489 On ch=1 n=d6 v=101
43504 On ch=1 n=c6 v=0
43514 On ch=1 n=d#7 v=0
43535 Par ch=1 c=64 v=63
43537 Par ch=1 c=64 v=127
43540 On ch=1 n=d#6 v=121
43562 On ch=1 n=d6 v=0
43592 On ch=1 n=f7 v=99
43609 On ch=1 n=d#6 v=0
43637 On ch=1 n=d#7 v=106
43658 On ch=1 n=f7 v=0
43680 On ch=1 n=d7 v=98
43687 On ch=1 n=f6 v=99
43711 On ch=1 n=d#7 v=0
43725 On ch=1 n=c7 v=92
43729 On ch=1 n=d7 v=0
43733 On ch=1 n=d#6 v=105
43741 On ch=1 n=f6 v=0
43748 Par ch=1 c=64 v=63
43758 Par ch=1 c=64 v=0
43770 On ch=1 n=a#6 v=112
43776 On ch=1 n=c7 v=0
43777 On ch=1 n=d#6 v=0
43787 On ch=1 n=d6 v=93
43819 On ch=1 n=a6 v=113
43828 On ch=1 n=a#6 v=0
43828 Par ch=1 c=64 v=63
43836 On ch=1 n=d6 v=0
43836 On ch=1 n=c6 v=92
43843 Par ch=1 c=64 v=0
43869 On ch=1 n=a#6 v=109
43871 On ch=1 n=d6 v=88
43877 On ch=1 n=c6 v=0
43883 On ch=1 n=a6 v=0
43917 On ch=1 n=c6 v=90
43917 On ch=1 n=a6 v=98
43925 On ch=1 n=d6 v=0
43951 On ch=1 n=a#6 v=0
43968 On ch=1 n=g6 v=83
43970 On ch=1 n=a6 v=0
43972 On ch=1 n=a#5 v=100
43979 On ch=1 n=c6 v=0
44012 On ch=1 n=g6 v=0
44013 On ch=1 n=f6 v=100
44019 On ch=1 n=a#5 v=0
44022 On ch=1 n=a5 v=83
44060 On ch=1 n=d#6 v=106
44061 On ch=1 n=f6 v=0
44068 On ch=1 n=g5 v=83
44077 On ch=1 n=a5 v=0
44108 On ch=1 n=d#6 v=0
44112 On ch=1 n=g5 v=0
44126 On ch=1 n=f#5 v=119
44130 On ch=1 n=d6 v=69
44134 Par ch=1 c=64 v=63
44139 On ch=1 n=e6 v=71
44141 Par ch=1 c=64 v=127
44162 On ch=1 n=e6 v=0
44178 On ch=1 n=d6 v=0
44185 On ch=1 n=d#6 v=97
44233 On ch=1 n=d#6 v=0
44234 On ch=1 n=d6 v=94
44269 On ch=1 n=d6 v=0
44276 On ch=1 n=c7 v=104
44284 On ch=1 n=f#5 v=0
44320 On ch=1 n=c7 v=0
44321 Par ch=1 c=64 v=63
44323 On ch=1 n=g5 v=87
44324 On ch=1 n=d#6 v=110
44328 Par ch=1 c=64 v=0
44364 On ch=1 n=d#6 v=0
44374 On ch=1 n=g5 v=0
44374 On ch=1 n=c7 v=90
44416 On ch=1 n=c7 v=0
44426 Par ch=1 c=64 v=63
44428 On ch=1 n=f#5 v=109
44429 On ch=1 n=d6 v=98
44430 Par ch=1 c=64 v=127
44477 On ch=1 n=d6 v=0
44482 On ch=1 n=d#6 v=99
44533 On ch=1 n=d6 v=97
44534 On ch=1 n=d#6 v=0
44573 On ch=1 n=d6 v=0
44576 On ch=1 n=f#5 v=0
44583 On ch=1 n=c7 v=101
44600 Par ch=1 c=64 v=63
44605 Par ch=1 c=64 v=0
44624 On ch=1 n=c7 v=0
44629 On ch=1 n=d#6 v=112
44632 On ch=1 n=g5 v=86
44671 On ch=1 n=g5 v=0
44674 On ch=1 n=d#6 v=0
44682 On ch=1 n=c7 v=92
44725 On ch=1 n=c7 v=0
44739 On ch=1 n=f#5 v=99
44739 On ch=1 n=d6 v=91
44746 Par ch=1 c=64 v=63
44749 Par ch=1 c=64 v=127
44773 On ch=1 n=d6 v=0
44785 On ch=1 n=c7 v=90
44848 On ch=1 n=c7 v=0
44855 On ch=1 n=a6 v=91
44879 On ch=1 n=a6 v=0
44897 On ch=1 n=g6 v=88
44943 On ch=1 n=g6 v=0
44945 On ch=1 n=f#6 v=103
45000 On ch=1 n=d#6 v=103
45007 On ch=1 n=f#6 v=0
45016 On ch=1 n=f#5 v=0
45047 On ch=1 n=d6 v=93
45052 On ch=1 n=d#6 v=0
45093 On ch=1 n=d#6 v=98
45102 On ch=1 n=d6 v=0
45136 Par ch=1 c=64 v=63
45142 On ch=1 n=d6 v=88
45143 Par ch=1 c=64 v=0
45172 On ch=1 n=d#6 v=0
45187 On ch=1 n=c6 v=90
45193 On ch=1 n=d6 v=0
45236 On ch=1 n=a#5 v=100
45238 On ch=1 n=c6 v=0
45245 On ch=1 n=d4 v=116
45291 On ch=1 n=a5 v=88
45292 On ch=1 n=a#5 v=0
45333 On ch=1 n=d4 v=0
45352 On ch=1 n=g4 v=112
45354 On ch=1 n=g5 v=90
45364 On ch=1 n=a5 v=0
45426 On ch=1 n=g4 v=0
45427 On ch=1 n=g5 v=0
45473 On ch=1 n=d4 v=88
45503 On ch=1 n=d4 v=0
45572 On ch=1 n=d5 v=82
45572 On ch=1 n=g4 v=84
45598 On ch=1 n=d5 v=0
45605 On ch=1 n=g4 v=0
45672 On ch=1 n=g5 v=86
45674 On ch=1 n=a#4 v=104
45709 On ch=1 n=g5 v=0
45717 On ch=1 n=a#4 v=0
45781 On ch=1 n=d5 v=96
45781 On ch=1 n=g4 v=88
45816 On ch=1 n=d5 v=0
45817 On ch=1 n=g4 v=0
45886 On ch=1 n=a#4 v=97
45886 On ch=1 n=g5 v=96
45920 On ch=1 n=g5 v=0
45923 On ch=1 n=a#4 v=0
45995 On ch=1 n=d5 v=112
45996 On ch=1 n=a#5 v=106
46036 On ch=1 n=a#5 v=0
46100 On ch=1 n=g5 v=87
46130 On ch=1 n=d5 v=0
46135 On ch=1 n=g5 v=0
46196 On ch=1 n=a#5 v=119
46202 On ch=1 n=d5 v=93
46229 On ch=1 n=a#5 v=0
46239 On ch=1 n=d5 v=0
46325 On ch=1 n=d6 v=121
46329 On ch=1 n=d5 v=102
46354 Par ch=1 c=64 v=63
46356 Par ch=1 c=64 v=127
46377 On ch=1 n=d6 v=0
46380 On ch=1 n=d5 v=0
46543 On ch=1 n=d6 v=103
46550 On ch=1 n=g5 v=66
46580 On ch=1 n=d6 v=0
46580 On ch=1 n=g5 v=0
46595 Par ch=1 c=64 v=63
46601 Par ch=1 c=64 v=0
46655 On ch=1 n=f#5 v=99
46664 On ch=1 n=d6 v=116
46671 Par ch=1 c=64 v=63
46677 Par ch=1 c=64 v=127
46704 On ch=1 n=f#5 v=0
46719 On ch=1 n=e5 v=74
46729 On ch=1 n=d6 v=0
46745 On ch=1 n=d6 v=71
46757 On ch=1 n=f#5 v=98
46777 On ch=1 n=e5 v=0
46793 On ch=1 n=d6 v=0
46802 On ch=1 n=d5 v=90
46824 On ch=1 n=f#5 v=0
46855 On ch=1 n=g6 v=103
46867 On ch=1 n=a#5 v=96
46869 Par ch=1 c=64 v=63
46874 On ch=1 n=d5 v=0
46874 Par ch=1 c=64 v=0
46884 On ch=1 n=a#5 v=0
46890 On ch=1 n=g6 v=0
46973 On ch=1 n=a5 v=99
46976 On ch=1 n=f#6 v=109
47006 Par ch=1 c=64 v=63
47010 Par ch=1 c=64 v=127
47022 On ch=1 n=e6 v=97
47026 On ch=1 n=f#6 v=0
47066 On ch=1 n=f#6 v=88
47084 On ch=1 n=e6 v=0
47098 On ch=1 n=a5 v=0
47106 On ch=1 n=d6 v=94
47112 Par ch=1 c=64 v=63
47116 On ch=1 n=f#6 v=0
47119 Par ch=1 c=64 v=0
47156 On ch=1 n=d6 v=0
47172 On ch=1 n=a#6 v=109
47177 On ch=1 n=g5 v=93
47205 On ch=1 n=g5 v=0
47206 On ch=1 n=a#6 v=0
47290 On ch=1 n=f#5 v=100
47296 On ch=1 n=a6 v=118
47298 Par ch=1 c=64 v=63
47300 Par ch=1 c=64 v=127
47353 On ch=1 n=f#5 v=0
47356 On ch=1 n=e5 v=76
47400 On ch=1 n=f#5 v=101
47422 On ch=1 n=e5 v=0
47438 On ch=1 n=a6 v=0
47441 On ch=1 n=d5 v=102
47468 On ch=1 n=f#5 v=0
47499 On ch=1 n=a6 v=117
47500 On ch=1 n=d5 v=0
47501 On ch=1 n=c6 v=113
47504 Par ch=1 c=64 v=63
47507 Par ch=1 c=64 v=0
47541 On ch=1 n=c6 v=0
47545 On ch=1 n=a6 v=0
47618 On ch=1 n=g6 v=102
47620 On ch=1 n=a#5 v=110
47653 On ch=1 n=f#6 v=101
47663 On ch=1 n=g6 v=0
47707 On ch=1 n=g6 v=96
47716 On ch=1 n=f#6 v=0
47754 On ch=1 n=d6 v=98
47772 On ch=1 n=g6 v=0
47801 On ch=1 n=d6 v=0
47805 On ch=1 n=c7 v=109
47809 On ch=1 n=a#5 v=0
47817 On ch=1 n=a5 v=87
47845 On ch=1 n=c7 v=0
47856 On ch=1 n=a5 v=0
47923 On ch=1 n=g5 v=113
47930 On ch=1 n=a#6 v=115
47947 Par ch=1 c=64 v=63
47949 Par ch=1 c=64 v=127
47978 On ch=1 n=a#6 v=0
47981 On ch=1 n=d6 v=85
48029 On ch=1 n=d6 v=0
48032 On ch=1 n=d#6 v=101
48080 On ch=1 n=d6 v=79
48081 On ch=1 n=d#6 v=0
48114 On ch=1 n=d#6 v=72
48120 On ch=1 n=g5 v=0
48120 On ch=1 n=d6 v=0
48156 On ch=1 n=d6 v=81
48162 On ch=1 n=d#6 v=0
48201 On ch=1 n=d6 v=0
48217 On ch=1 n=a6 v=96
48218 On ch=1 n=f5 v=121
48225 Par ch=1 c=64 v=63
48230 Par ch=1 c=64 v=0
48260 On ch=1 n=d#6 v=109
48261 Par ch=1 c=64 v=63
48265 On ch=1 n=a6 v=0
48270 Par ch=1 c=64 v=127
48312 On ch=1 n=d#6 v=0
48312 On ch=1 n=e6 v=96
48360 On ch=1 n=d#6 v=105
48369 On ch=1 n=e6 v=0
48395 On ch=1 n=f5 v=0
48398 On ch=1 n=e6 v=98
48408 On ch=1 n=d#6 v=0
48447 On ch=1 n=d#6 v=104
48459 On ch=1 n=e6 v=0
48488 On ch=1 n=d#6 v=0
48514 Par ch=1 c=64 v=63
48519 Par ch=1 c=64 v=0
48534 On ch=1 n=e5 v=113
48548 On ch=1 n=g#6 v=107
48562 Par ch=1 c=64 v=63
48572 Par ch=1 c=64 v=127
48595 On ch=1 n=g#6 v=0
48611 On ch=1 n=a6 v=101
48664 On ch=1 n=a6 v=0
48666 On ch=1 n=b6 v=98
48699 On ch=1 n=c7 v=106
48721 On ch=1 n=b6 v=0
48747 On ch=1 n=d7 v=99
48759 On ch=1 n=c7 v=0
48785 On ch=1 n=e5 v=0
48805 On ch=1 n=c7 v=97
48820 On ch=1 n=d7 v=0
48848 On ch=1 n=b6 v=100
48866 On ch=1 n=c7 v=0
48894 On ch=1 n=b6 v=0
48899 On ch=1 n=a6 v=94
48950 On ch=1 n=g#6 v=87
48953 Par ch=1 c=64 v=63
48955 On ch=1 n=a6 v=0
48963 Par ch=1 c=64 v=0
48979 On ch=1 n=g#6 v=0
48989 On ch=1 n=f6 v=97
49041 On ch=1 n=e6 v=99
49044 On ch=1 n=f6 v=0
49077 On ch=1 n=d6 v=90
49085 On ch=1 n=e6 v=0
49120 On ch=1 n=d6 v=0
49139 On ch=1 n=c6 v=121
49146 On ch=1 n=a4 v=117
49150 Par ch=1 c=64 v=63
49151 Par ch=1 c=64 v=127
49201 On ch=1 n=e5 v=102
49208 On ch=1 n=a4 v=0
49250 On ch=1 n=f5 v=86
49252 On ch=1 n=e5 v=0
49303 On ch=1 n=e5 v=84
49310 On ch=1 n=f5 v=0
49341 On ch=1 n=e5 v=0
49344 On ch=1 n=f5 v=86
49368 Par ch=1 c=64 v=63
49374 Par ch=1 c=64 v=0
49376 On ch=1 n=e5 v=84
49400 On ch=1 n=f5 v=0
49411 On ch=1 n=c6 v=0
49421 On ch=1 n=e5 v=0
49425 Par ch=1 c=64 v=63
49431 Par ch=1 c=64 v=127
49434 On ch=1 n=g4 v=114
49440 On ch=1 n=b5 v=125
49479 On ch=1 n=g4 v=0
49491 On ch=1 n=f5 v=92
49545 On ch=1 n=f#5 v=105
49555 On ch=1 n=f5 v=0
49579 On ch=1 n=b5 v=0
49580 On ch=1 n=f#5 v=0
49596 On ch=1 n=f5 v=88
49634 On ch=1 n=f#5 v=109
49648 On ch=1 n=f5 v=0
49668 On ch=1 n=f#5 v=0
49671 On ch=1 n=f5 v=91
49709 On ch=1 n=f5 v=0
49732 Par ch=1 c=64 v=63
49736 Par ch=1 c=64 v=0
49755 On ch=1 n=f#5 v=115
49758 On ch=1 n=f#4 v=108
49792 Par ch=1 c=64 v=63
49799 Par ch=1 c=64 v=127
49809 On ch=1 n=a#5 v=94
49857 On ch=1 n=c#6 v=95
49861 On ch=1 n=a#5 v=0
49902 On ch=1 n=f#6 v=88
49903 On ch=1 n=c#6 v=0
49921 On ch=1 n=f#6 v=0
49960 On ch=1 n=a#6 v=106
49994 On ch=1 n=a#6 v=0
50006 On ch=1 n=c#7 v=106
50067 On ch=1 n=e7 v=112
50077 On ch=1 n=c#7 v=0
50115 On ch=1 n=c#7 v=100
50117 On ch=1 n=f#4 v=0
50141 On ch=1 n=e7 v=0
50143 On ch=1 n=f#5 v=0
50164 On ch=1 n=a#6 v=106
50181 On ch=1 n=c#7 v=0
50209 On ch=1 n=g6 v=76
50210 On ch=1 n=a#6 v=0
50226 Par ch=1 c=64 v=63
50230 Par ch=1 c=64 v=0
50256 On ch=1 n=f#6 v=106
50261 On ch=1 n=g6 v=0
50302 On ch=1 n=e6 v=109
50309 On ch=1 n=f#6 v=0
50358 On ch=1 n=d6 v=118
50379 On ch=1 n=e6 v=0
50380 Par ch=1 c=64 v=63
50381 Par ch=1 c=64 v=127
50408 On ch=1 n=b4 v=97
50458 On ch=1 n=d5 v=93
50469 On ch=1 n=d6 v=0
50479 On ch=1 n=b4 v=0
50519 On ch=1 n=f#5 v=110
50529 On ch=1 n=d5 v=0
50553 On ch=1 n=b5 v=102
50563 On ch=1 n=f#5 v=0
50571 Par ch=1 c=64 v=63
50575 Par ch=1 c=64 v=0
50582 On ch=1 n=b5 v=0
50607 On ch=1 n=d6 v=117
50650 On ch=1 n=d6 v=0
50666 On ch=1 n=b5 v=113
50666 On ch=1 n=f6 v=118
50685 Par ch=1 c=64 v=63
50687 Par ch=1 c=64 v=127
50716 On ch=1 n=g4 v=96
50768 On ch=1 n=b4 v=85
50798 On ch=1 n=g4 v=0
50802 On ch=1 n=f6 v=0
50826 On ch=1 n=d5 v=99
50836 On ch=1 n=b5 v=0
50846 On ch=1 n=b4 v=0
50867 On ch=1 n=g5 v=101
50879 On ch=1 n=d5 v=0
50903 On ch=1 n=g5 v=0
50914 On ch=1 n=f6 v=100
50921 On ch=1 n=b5 v=97
50965 On ch=1 n=b5 v=0
50968 On ch=1 n=f6 v=0
50997 On ch=1 n=f#4 v=112
51004 On ch=1 n=f#6 v=115
51035 Par ch=1 c=64 v=63
51043 Par ch=1 c=64 v=0
51061 On ch=1 n=f#6 v=0
51067 Par ch=1 c=64 v=63
51077 Par ch=1 c=64 v=127
51081 On ch=1 n=c#6 v=80
51122 On ch=1 n=c#5 v=88
51123 On ch=1 n=a#4 v=87
51124 On ch=1 n=f#6 v=103
51125 On ch=1 n=c#6 v=0
51156 On ch=1 n=c#5 v=0
51172 On ch=1 n=a#4 v=0
51176 On ch=1 n=a#6 v=100
51186 On ch=1 n=f#6 v=0
51216 On ch=1 n=c#5 v=82
51218 On ch=1 n=a#4 v=67
51223 On ch=1 n=c#7 v=99
51231 On ch=1 n=a#6 v=0
51243 On ch=1 n=f#4 v=0
51263 On ch=1 n=c#5 v=0
51266 On ch=1 n=a#4 v=0
51269 On ch=1 n=a#6 v=91
51283 On ch=1 n=c#7 v=0
51315 On ch=1 n=f#4 v=96
51320 On ch=1 n=a#6 v=0
51320 On ch=1 n=d7 v=108
51321 Par ch=1 c=64 v=63
51325 Par ch=1 c=64 v=0
51366 On ch=1 n=b6 v=102
51375 Par ch=1 c=64 v=63
51383 Par ch=1 c=64 v=127
51385 On ch=1 n=d7 v=0
51418 On ch=1 n=d5 v=83
51421 On ch=1 n=b4 v=71
51422 On ch=1 n=d7 v=94
51429 On ch=1 n=b6 v=0
51456 On ch=1 n=b6 v=85
51464 On ch=1 n=d5 v=0
51469 On ch=1 n=b4 v=0
51478 On ch=1 n=d7 v=0
51520 On ch=1 n=d5 v=74
51521 On ch=1 n=g#6 v=108
51527 On ch=1 n=b4 v=69
51530 On ch=1 n=b6 v=0
51553 On ch=1 n=f#4 v=0
51560 On ch=1 n=b4 v=0
51565 On ch=1 n=d5 v=0
51573 On ch=1 n=g#6 v=0
51573 On ch=1 n=f6 v=93
51612 On ch=1 n=f6 v=0
51617 Par ch=1 c=64 v=63
51622 Par ch=1 c=64 v=0
51633 On ch=1 n=f#4 v=84
51633 On ch=1 n=f#6 v=100
51653 Par ch=1 c=64 v=63
51663 Par ch=1 c=64 v=127
51683 On ch=1 n=f#6 v=0
51690 On ch=1 n=c#6 v=96
51736 On ch=1 n=c#6 v=0
51737 On ch=1 n=a#4 v=73
51741 On ch=1 n=c#5 v=72
51742 On ch=1 n=f#6 v=92
51780 On ch=1 n=c#5 v=0
51787 On ch=1 n=a#4 v=0
51792 On ch=1 n=a#6 v=101
51803 On ch=1 n=f#6 v=0
51847 On ch=1 n=c#7 v=94
51850 On ch=1 n=a#4 v=64
51850 On ch=1 n=c#5 v=77
51854 On ch=1 n=a#6 v=0
51870 On ch=1 n=f#4 v=0
51894 On ch=1 n=a#6 v=82
51900 On ch=1 n=c#5 v=0
51911 On ch=1 n=c#7 v=0
51912 On ch=1 n=a#4 v=0
51950 On ch=1 n=f#4 v=80
51953 On ch=1 n=d7 v=91
51963 On ch=1 n=a#6 v=0
51965 Par ch=1 c=64 v=63
51971 Par ch=1 c=64 v=0
52005 On ch=1 n=b6 v=90
52006 Par ch=1 c=64 v=63
52012 On ch=1 n=d7 v=0
52018 Par ch=1 c=64 v=127
52042 On ch=1 n=d5 v=57
52046 On ch=1 n=b4 v=60
52060 On ch=1 n=d7 v=87
52064 On ch=1 n=b6 v=0
52088 On ch=1 n=d5 v=0
52094 On ch=1 n=b4 v=0
52098 On ch=1 n=b6 v=80
52117 On ch=1 n=d7 v=0
52148 On ch=1 n=d5 v=62
52157 On ch=1 n=b4 v=52
52159 On ch=1 n=g#6 v=98
52166 On ch=1 n=b6 v=0
52178 On ch=1 n=d5 v=0
52210 On ch=1 n=g#6 v=0
52212 On ch=1 n=f6 v=74
52221 On ch=1 n=f#4 v=0
52238 On ch=1 n=b4 v=0
52276 On ch=1 n=f6 v=0
52292 On ch=1 n=a#4 v=59
52293 On ch=1 n=c#5 v=53
52293 On ch=1 n=f#6 v=78
52301 On ch=1 n=f#4 v=45
52335 Par ch=1 c=64 v=63
52344 Par ch=1 c=64 v=0
52400 Par ch=1 c=64 v=63
52408 Par ch=1 c=64 v=127
52445 On ch=1 n=f#6 v=0
52451 On ch=1 n=c#6 v=67
52556 On ch=1 n=a#6 v=66
52558 On ch=1 n=c#6 v=0
52671 On ch=1 n=f#6 v=70
52676 On ch=1 n=a#6 v=0
52714 On ch=1 n=f#4 v=0
52749 On ch=1 n=a#4 v=0
52767 On ch=1 n=c#5 v=0
52771 On ch=1 n=c#6 v=82
52827 On ch=1 n=f#6 v=0
52873 On ch=1 n=a#6 v=91
52874 On ch=1 n=c#6 v=0
52977 On ch=1 n=f#6 v=82
52988 On ch=1 n=f#5 v=76
53000 Par ch=1 c=64 v=63
53002 On ch=1 n=a#6 v=0
53011 Par ch=1 c=64 v=0
53102 On ch=1 n=c#5 v=72
53148 On ch=1 n=f#5 v=0
53179 Par ch=1 c=64 v=63
53188 Par ch=1 c=64 v=127
53203 On ch=1 n=a#5 v=65
53247 On ch=1 n=c#5 v=0
53326 On ch=1 n=f#5 v=60
53330 On ch=1 n=a#5 v=0
53410 On ch=1 n=f#6 v=0
53414 On ch=1 n=c#5 v=63
53428 On ch=1 n=f#5 v=0
53436 Par ch=1 c=64 v=63
53464 Par ch=1 c=64 v=0
53518 On ch=1 n=a#5 v=61
53523 On ch=1 n=c#5 v=0
53643 On ch=1 n=a#5 v=0
53644 On ch=1 n=f#5 v=53
53649 On ch=1 n=f#6 v=55
53664 Par ch=1 c=64 v=63
53668 Par ch=1 c=64 v=127
53762 On ch=1 n=c#6 v=58
53772 On ch=1 n=f#6 v=0
53871 On ch=1 n=c#6 v=0
53879 On ch=1 n=a6 v=48
53985 On ch=1 n=f#6 v=67
54024 On ch=1 n=a6 v=0
54087 On ch=1 n=c#6 v=53
54123 On ch=1 n=f#5 v=0
54195 On ch=1 n=a6 v=72
54215 On ch=1 n=f#6 v=0
54236 On ch=1 n=c#6 v=0
54323 On ch=1 n=b5 v=71
54324 On ch=1 n=f#5 v=72
54332 On ch=1 n=a6 v=0
54334 On ch=1 n=g#6 v=68
54381 Par ch=1 c=64 v=63
54418 Par ch=1 c=64 v=127
54441 On ch=1 n=c#6 v=81
54544 On ch=1 n=g#6 v=0
54547 On ch=1 n=b6 v=87
54566 On ch=1 n=f#5 v=0
54569 On ch=1 n=c#6 v=0
54662 On ch=1 n=g#6 v=90
54668 On ch=1 n=f5 v=92
54703 On ch=1 n=b6 v=0
54779 On ch=1 n=c#6 v=100
54882 On ch=1 n=b6 v=96
54892 On ch=1 n=b5 v=0
54903 On ch=1 n=g#6 v=0
54913 On ch=1 n=c#6 v=0
54972 On ch=1 n=f5 v=0
54988 On ch=1 n=g5 v=98
54990 On ch=1 n=e5 v=96
54994 On ch=1 n=a#6 v=99
55016 On ch=1 n=b6 v=0
55070 Par ch=1 c=64 v=63
55101 On ch=1 n=c#6 v=104
55113 Par ch=1 c=64 v=127
55151 On ch=1 n=a#6 v=0
55212 On ch=1 n=c#7 v=106
55251 On ch=1 n=c#6 v=0
55319 On ch=1 n=f#5 v=105
55327 On ch=1 n=a#6 v=97
55337 On ch=1 n=g5 v=0
55351 On ch=1 n=c#7 v=0
55371 Par ch=1 c=64 v=63
55381 Par ch=1 c=64 v=127
55445 On ch=1 n=c#6 v=105
55490 On ch=1 n=f#5 v=0
55510 On ch=1 n=e5 v=0
55528 On ch=1 n=a#6 v=0
55552 On ch=1 n=c#7 v=106
55579 On ch=1 n=c#6 v=0
55673 On ch=1 n=b4 v=87
55674 On ch=1 n=b6 v=96
55696 On ch=1 n=c#7 v=0
55772 Par ch=1 c=64 v=63
55796 On ch=1 n=f#4 v=76
55826 Par ch=1 c=64 v=127
55900 On ch=1 n=b4 v=0
55904 On ch=1 n=d5 v=73
55969 On ch=1 n=f#4 v=0
55988 On ch=1 n=b6 v=0
56017 On ch=1 n=b4 v=71
56045 On ch=1 n=d5 v=0
56115 On ch=1 n=f#4 v=81
56186 On ch=1 n=b4 v=0
56215 On ch=1 n=d5 v=94
56250 On ch=1 n=f#4 v=0
56328 On ch=1 n=c#5 v=92
56331 On ch=1 n=b6 v=92
56331 On ch=1 n=e6 v=94
56375 On ch=1 n=d5 v=0
56397 Par ch=1 c=64 v=63
56407 Par ch=1 c=64 v=0
56435 On ch=1 n=f#4 v=92
56463 Par ch=1 c=64 v=63
56471 Par ch=1 c=64 v=127
56542 On ch=1 n=e5 v=91
56568 On ch=1 n=c#5 v=0
56651 On ch=1 n=c#5 v=93
56652 On ch=1 n=a#6 v=107
56684 On ch=1 n=b6 v=0
56691 On ch=1 n=f#4 v=0
56744 On ch=1 n=e5 v=0
56745 On ch=1 n=f#4 v=96
56820 On ch=1 n=e6 v=0
56826 On ch=1 n=a#6 v=0
56853 On ch=1 n=c#5 v=0
56855 On ch=1 n=e5 v=102
56956 On ch=1 n=d#5 v=94
56958 On ch=1 n=a6 v=106
56962 On ch=1 n=f#4 v=0
56964 On ch=1 n=c6 v=92
56984 On ch=1 n=e5 v=0
56989 Par ch=1 c=64 v=63
56997 Par ch=1 c=64 v=0
57044 Par ch=1 c=64 v=63
57053 Par ch=1 c=64 v=127
57072 On ch=1 n=f#4 v=94
57111 On ch=1 n=d#5 v=0
57160 On ch=1 n=c6 v=0
57163 On ch=1 n=f#4 v=0
57172 On ch=1 n=f#5 v=101
57269 On ch=1 n=f#5 v=0
57272 On ch=1 n=b5 v=97
57275 On ch=1 n=d#5 v=80
57349 Par ch=1 c=64 v=63
57374 On ch=1 n=d#5 v=0
57375 On ch=1 n=f#4 v=79
57393 Par ch=1 c=64 v=127
57458 On ch=1 n=f#4 v=0
57489 On ch=1 n=f#5 v=86
57535 On ch=1 n=b5 v=0
57586 On ch=1 n=f#5 v=0
57595 On ch=1 n=e6 v=75
57601 On ch=1 n=e5 v=68
57615 On ch=1 n=a6 v=0
57645 Par ch=1 c=64 v=63
57656 Par ch=1 c=64 v=0
57713 On ch=1 n=b5 v=65
57719 Par ch=1 c=64 v=63
57730 Par ch=1 c=64 v=127
57751 On ch=1 n=e6 v=0
57837 On ch=1 n=b5 v=0
57837 On ch=1 n=g6 v=52
57929 Par ch=1 c=64 v=63
57938 On ch=1 n=e6 v=61
57942 Par ch=1 c=64 v=0
57954 On ch=1 n=g6 v=0
58004 On ch=1 n=e5 v=0
58009 Par ch=1 c=64 v=63
58017 Par ch=1 c=64 v=127
58027 On ch=1 n=b5 v=65
58082 On ch=1 n=e6 v=0
58146 On ch=1 n=g6 v=62
58194 On ch=1 n=b5 v=0
58255 On ch=1 n=f#6 v=84
58260 On ch=1 n=e5 v=74
58261 On ch=1 n=b4 v=71
58275 On ch=1 n=g6 v=0
58313 Par ch=1 c=64 v=63
58330 Par ch=1 c=64 v=0
58371 On ch=1 n=b5 v=77
58380 Par ch=1 c=64 v=63
58397 Par ch=1 c=64 v=127
58399 On ch=1 n=f#6 v=0
58480 On ch=1 n=a6 v=86
58540 On ch=1 n=b5 v=0
58579 On ch=1 n=d#5 v=96
58581 On ch=1 n=f#6 v=89
58620 On ch=1 n=e5 v=0
58623 On ch=1 n=a6 v=0
58693 On ch=1 n=b5 v=89
58760 On ch=1 n=b4 v=0
58760 On ch=1 n=d#5 v=0
58770 On ch=1 n=f#6 v=0
58797 On ch=1 n=a6 v=106
58823 On ch=1 n=b5 v=0
58900 On ch=1 n=g#6 v=99
58903 On ch=1 n=d5 v=101
58906 Par ch=1 c=64 v=63
58910 On ch=1 n=f4 v=85
58915 Par ch=1 c=64 v=0
58922 On ch=1 n=a6 v=0
58974 Par ch=1 c=64 v=63
58984 Par ch=1 c=64 v=127
59005 On ch=1 n=b5 v=89
59036 On ch=1 n=g#6 v=0
59084 On ch=1 n=b5 v=0
59108 On ch=1 n=b6 v=96
59214 On ch=1 n=e4 v=99
59219 Par ch=1 c=64 v=63
59221 On ch=1 n=b6 v=0
59222 On ch=1 n=g#6 v=95
59234 Par ch=1 c=64 v=0
59243 On ch=1 n=f4 v=0
59274 Par ch=1 c=64 v=63
59289 Par ch=1 c=64 v=127
59321 On ch=1 n=b5 v=96
59345 On ch=1 n=g#6 v=0
59413 On ch=1 n=b5 v=0
59428 On ch=1 n=e4 v=0
59429 On ch=1 n=b6 v=101
59540 On ch=1 n=c#5 v=72
59547 On ch=1 n=a6 v=97
59568 On ch=1 n=d5 v=0
59576 On ch=1 n=b6 v=0
59593 Par ch=1 c=64 v=63
59607 Par ch=1 c=64 v=0
59645 On ch=1 n=a4 v=59
59654 Par ch=1 c=64 v=63
59664 Par ch=1 c=64 v=127
59686 On ch=1 n=c#5 v=0
59761 On ch=1 n=e5 v=60
59798 On ch=1 n=a4 v=0
59833 On ch=1 n=a6 v=0
59871 On ch=1 n=c#5 v=73
59897 On ch=1 n=e5 v=0
59973 On ch=1 n=a4 v=57
59974 On ch=1 n=c#5 v=0
60082 On ch=1 n=e5 v=51
60087 On ch=1 n=a4 v=0
60177 Par ch=1 c=64 v=63
60187 Par ch=1 c=64 v=0
60188 On ch=1 n=a6 v=81
60197 On ch=1 n=d5 v=66
60204 On ch=1 n=a#5 v=71
60207 On ch=1 n=e5 v=0
60228 Par ch=1 c=64 v=63
60240 Par ch=1 c=64 v=127
60312 On ch=1 n=a4 v=57
60367 On ch=1 n=d5 v=0
60406 On ch=1 n=f5 v=73
60468 On ch=1 n=a#5 v=0
60504 Par ch=1 c=64 v=63
60509 On ch=1 n=d#5 v=83
60510 On ch=1 n=b5 v=93
60517 Par ch=1 c=64 v=0
60531 On ch=1 n=a4 v=0
60538 On ch=1 n=f5 v=0
60541 Par ch=1 c=64 v=63
60560 Par ch=1 c=64 v=127
60613 On ch=1 n=a4 v=75
60717 On ch=1 n=f#5 v=98
60726 On ch=1 n=b5 v=0
60740 On ch=1 n=d#5 v=0
60782 On ch=1 n=a4 v=0
60791 On ch=1 n=a6 v=0
60812 On ch=1 n=f#5 v=0
60821 On ch=1 n=a6 v=93
60823 On ch=1 n=c6 v=104
60828 On ch=1 n=e5 v=84
60837 Par ch=1 c=64 v=63
60883 Par ch=1 c=64 v=127
60926 On ch=1 n=a4 v=91
61012 On ch=1 n=c6 v=0
61036 On ch=1 n=g5 v=101
61065 On ch=1 n=e5 v=0
61143 On ch=1 n=c#6 v=108
61149 On ch=1 n=e5 v=89
61171 On ch=1 n=a4 v=0
61191 On ch=1 n=g5 v=0
61237 On ch=1 n=a4 v=97
61266 On ch=1 n=e5 v=0
61330 On ch=1 n=c#6 v=0
61344 On ch=1 n=g5 v=107
61353 On ch=1 n=a6 v=0
61427 On ch=1 n=a4 v=0
61438 Par ch=1 c=64 v=63
61439 On ch=1 n=f#5 v=104
61441 On ch=1 n=a6 v=108
61441 On ch=1 n=d6 v=111
61445 Par ch=1 c=64 v=0
61462 On ch=1 n=g5 v=0
61499 Par ch=1 c=64 v=63
61503 Par ch=1 c=64 v=127
61539 On ch=1 n=f#5 v=0
61555 On ch=1 n=a4 v=98
61657 On ch=1 n=a5 v=104
61664 On ch=1 n=d6 v=0
61726 On ch=1 n=a5 v=0
61728 On ch=1 n=a4 v=0
61757 On ch=1 n=f5 v=104
61758 On ch=1 n=d#6 v=119
61847 On ch=1 n=f5 v=0
61859 On ch=1 n=a4 v=103
61954 On ch=1 n=a5 v=103
61962 On ch=1 n=d#6 v=0
62025 On ch=1 n=a6 v=0
62027 On ch=1 n=a5 v=0
62045 Par ch=1 c=64 v=63
62049 On ch=1 n=a4 v=0
62049 Par ch=1 c=64 v=0
62063 On ch=1 n=e5 v=118
62064 On ch=1 n=a6 v=121
62065 On ch=1 n=e6 v=121
62144 Par ch=1 c=64 v=63
62145 Par ch=1 c=64 v=127
62159 On ch=1 n=a4 v=100
62213 On ch=1 n=e5 v=0
62265 On ch=1 n=a5 v=111
62314 On ch=1 n=e6 v=0
62356 Par ch=1 c=64 v=63
62360 On ch=1 n=f#6 v=119
62362 Par ch=1 c=64 v=0
62368 On ch=1 n=d5 v=117
62370 On ch=1 n=a5 v=0
62385 Par ch=1 c=64 v=63
62396 Par ch=1 c=64 v=127
62408 On ch=1 n=a4 v=0
62460 On ch=1 n=a4 v=109
62503 On ch=1 n=d5 v=0
62508 On ch=1 n=a6 v=0
62518 On ch=1 n=f#6 v=0
62561 On ch=1 n=a5 v=112
62616 On ch=1 n=a4 v=0
62655 On ch=1 n=c#5 v=118
62656 On ch=1 n=a4 v=99
62663 On ch=1 n=g6 v=107
62666 Par ch=1 c=64 v=63
62671 Par ch=1 c=64 v=0
62679 On ch=1 n=a5 v=0
62707 Par ch=1 c=64 v=63
62710 On ch=1 n=a6 v=107
62716 Par ch=1 c=64 v=127
62728 On ch=1 n=g6 v=0
62760 On ch=1 n=b6 v=98
62770 On ch=1 n=a6 v=0
62784 On ch=1 n=a4 v=0
62804 On ch=1 n=a6 v=99
62814 On ch=1 n=c#5 v=0
62822 On ch=1 n=b6 v=0
62846 On ch=1 n=g6 v=105
62849 On ch=1 n=a6 v=0
62897 On ch=1 n=f#6 v=108
62906 On ch=1 n=g6 v=0
62950 On ch=1 n=f#6 v=0
62955 On ch=1 n=e6 v=107
62996 On ch=1 n=f#6 v=98
63017 On ch=1 n=e6 v=0
63021 Par ch=1 c=64 v=63
63026 Par ch=1 c=64 v=0
63052 On ch=1 n=g6 v=91
63057 On ch=1 n=f#6 v=0
63090 On ch=1 n=f#6 v=86
63112 On ch=1 n=g6 v=0
63139 On ch=1 n=e6 v=102
63162 On ch=1 n=f#6 v=0
63189 On ch=1 n=e6 v=0
63192 On ch=1 n=d6 v=88
63237 On ch=1 n=c#6 v=112
63239 On ch=1 n=d6 v=0
63292 On ch=1 n=d6 v=100
63315 On ch=1 n=c#6 v=0
63347 On ch=1 n=e6 v=98
63354 On ch=1 n=d6 v=0
63390 On ch=1 n=d6 v=83
63415 On ch=1 n=e6 v=0
63434 On ch=1 n=c#6 v=104
63444 On ch=1 n=d6 v=0
63480 On ch=1 n=b5 v=89
63484 On ch=1 n=c#6 v=0
63517 On ch=1 n=a5 v=90
63523 On ch=1 n=b5 v=0
63557 On ch=1 n=a5 v=0
63561 On ch=1 n=b5 v=100
63610 On ch=1 n=a5 v=102
63615 On ch=1 n=b5 v=0
63650 On ch=1 n=a5 v=0
63654 On ch=1 n=g5 v=89
63698 On ch=1 n=g5 v=0
63700 On ch=1 n=f#5 v=108
63703 On ch=1 n=a3 v=120
63743 On ch=1 n=a3 v=0
63748 On ch=1 n=e5 v=102
63751 On ch=1 n=f#5 v=0
63803 On ch=1 n=d5 v=104
63804 On ch=1 n=e5 v=0
63809 On ch=1 n=d4 v=124
63837 On ch=1 n=d4 v=0
63842 On ch=1 n=d5 v=0
63913 On ch=1 n=a3 v=106
63925 On ch=1 n=a4 v=64
63954 On ch=1 n=a4 v=0
63955 On ch=1 n=a3 v=0
64011 On ch=1 n=d4 v=111
64016 On ch=1 n=d5 v=65
64046 On ch=1 n=d5 v=0
64047 On ch=1 n=d4 v=0
64111 On ch=1 n=f#4 v=113
64115 On ch=1 n=f#5 v=105
64149 On ch=1 n=f#4 v=0
64159 On ch=1 n=f#5 v=0
64213 On ch=1 n=d5 v=108
64214 On ch=1 n=d4 v=107
64249 On ch=1 n=d5 v=0
64261 On ch=1 n=d4 v=0
64308 On ch=1 n=f#5 v=120
64311 On ch=1 n=f#4 v=107
64343 On ch=1 n=f#5 v=0
64349 On ch=1 n=f#4 v=0
64417 On ch=1 n=a5 v=122
64420 On ch=1 n=a4 v=109
64434 Par ch=1 c=64 v=127
64464 On ch=1 n=a5 v=0
64466 On ch=1 n=a4 v=0
64620 On ch=1 n=a5 v=100
64625 On ch=1 n=a4 v=90
64661 On ch=1 n=a5 v=0
64665 Par ch=1 c=64 v=63
64668 Par ch=1 c=64 v=0
64670 On ch=1 n=a4 v=0
64729 On ch=1 n=a4 v=112
64730 Par ch=1 c=64 v=63
64735 Par ch=1 c=64 v=127
64738 On ch=1 n=a5 v=109
64772 On ch=1 n=a4 v=0
64773 On ch=1 n=a5 v=0
64929 On ch=1 n=a5 v=76
64932 On ch=1 n=g5 v=69
64933 On ch=1 n=c#6 v=93
64955 On ch=1 n=a5 v=0
64955 On ch=1 n=g5 v=0
64959 Par ch=1 c=64 v=63
64960 On ch=1 n=d6 v=91
64962 On ch=1 n=c#6 v=0
64966 Par ch=1 c=64 v=0
64988 On ch=1 n=c#6 v=93
65007 On ch=1 n=d6 v=0
65028 On ch=1 n=b5 v=100
65032 On ch=1 n=c#6 v=0
65059 On ch=1 n=c#6 v=93
65080 On ch=1 n=b5 v=0
65090 Par ch=1 c=64 v=63
65093 Par ch=1 c=64 v=127
65095 On ch=1 n=a5 v=94
65096 On ch=1 n=d6 v=100
65097 On ch=1 n=f#5 v=105
65119 On ch=1 n=c#6 v=0
65126 On ch=1 n=f#5 v=0
65127 On ch=1 n=d6 v=0
65129 On ch=1 n=a5 v=0
65185 Par ch=1 c=64 v=63
65192 Par ch=1 c=64 v=0
65293 On ch=1 n=e6 v=100
65300 On ch=1 n=c#5 v=77
65304 On ch=1 n=a5 v=88
65326 On ch=1 n=f#6 v=99
65334 On ch=1 n=e6 v=0
65354 On ch=1 n=f#6 v=0
65357 On ch=1 n=e6 v=92
65361 On ch=1 n=a5 v=0
65387 On ch=1 n=c#5 v=0
65393 On ch=1 n=d6 v=97
65397 On ch=1 n=e6 v=0
65425 On ch=1 n=e6 v=84
65429 Par ch=1 c=64 v=63
65432 Par ch=1 c=64 v=127
65442 On ch=1 n=d6 v=0
65443 On ch=1 n=d5 v=91
65447 On ch=1 n=a5 v=65
65456 On ch=1 n=f#6 v=98
65475 On ch=1 n=e6 v=0
65485 On ch=1 n=f#6 v=0
65493 On ch=1 n=a5 v=0
65514 On ch=1 n=d5 v=0
65523 Par ch=1 c=64 v=63
65529 Par ch=1 c=64 v=0
65663 Par ch=1 c=64 v=63
65667 Par ch=1 c=64 v=127
65668 On ch=1 n=a6 v=97
65672 On ch=1 n=e5 v=84
65675 On ch=1 n=g4 v=82
65714 On ch=1 n=g6 v=91
65733 On ch=1 n=a6 v=0
65758 On ch=1 n=g4 v=0
65772 On ch=1 n=f#6 v=104
65782 On ch=1 n=a4 v=66
65785 On ch=1 n=d5 v=83
65786 Par ch=1 c=64 v=63
65793 Par ch=1 c=64 v=0
65796 On ch=1 n=e5 v=0
65796 On ch=1 n=g6 v=0
65909 Par ch=1 c=64 v=63
65915 Par ch=1 c=64 v=127
66040 Par ch=1 c=64 v=63
66047 Par ch=1 c=64 v=0
66138 On ch=1 n=e6 v=64
66147 On ch=1 n=c#5 v=65
66154 Par ch=1 c=64 v=63
66157 On ch=1 n=f#6 v=0
66157 On ch=1 n=d5 v=0
66159 Par ch=1 c=64 v=127
66190 On ch=1 n=e6 v=0
66197 On ch=1 n=a4 v=0
66199 On ch=1 n=c#5 v=0
66303 Par ch=1 c=64 v=63
66309 Par ch=1 c=64 v=0
66358 On ch=1 n=b4 v=101
66358 On ch=1 n=b3 v=109
66392 On ch=1 n=b4 v=0
66402 On ch=1 n=b3 v=0
66452 On ch=1 n=e5 v=104
66459 On ch=1 n=e4 v=116
66485 On ch=1 n=e5 v=0
66494 On ch=1 n=e4 v=0
66554 On ch=1 n=b3 v=100
66557 On ch=1 n=b4 v=93
66592 On ch=1 n=b4 v=0
66595 On ch=1 n=b3 v=0
66652 On ch=1 n=e5 v=99
66654 On ch=1 n=e4 v=114
66691 On ch=1 n=e4 v=0
66692 On ch=1 n=e5 v=0
66747 On ch=1 n=g5 v=102
66753 On ch=1 n=g4 v=107
66785 On ch=1 n=g5 v=0
66787 On ch=1 n=g4 v=0
66854 On ch=1 n=e5 v=91
66854 On ch=1 n=e4 v=107
66889 On ch=1 n=e5 v=0
66891 On ch=1 n=e4 v=0
66948 On ch=1 n=g5 v=98
66949 On ch=1 n=g4 v=99
66986 On ch=1 n=g5 v=0
66990 On ch=1 n=g4 v=0
67051 On ch=1 n=b5 v=111
67059 On ch=1 n=b4 v=114
67076 Par ch=1 c=64 v=63
67078 Par ch=1 c=64 v=127
67095 On ch=1 n=b5 v=0
67100 On ch=1 n=b4 v=0
67262 On ch=1 n=b4 v=106
67263 On ch=1 n=b5 v=106
67304 On ch=1 n=b5 v=0
67322 On ch=1 n=b4 v=0
67337 Par ch=1 c=64 v=63
67344 Par ch=1 c=64 v=0
67374 On ch=1 n=b5 v=102
67376 On ch=1 n=b4 v=106
67381 Par ch=1 c=64 v=63
67391 Par ch=1 c=64 v=127
67417 On ch=1 n=b5 v=0
67423 On ch=1 n=b4 v=0
67580 Par ch=1 c=64 v=63
67588 Par ch=1 c=64 v=0
67588 On ch=1 n=a5 v=64
67589 On ch=1 n=f#5 v=75
67590 On ch=1 n=d#6 v=103
67628 Par ch=1 c=64 v=63
67635 On ch=1 n=a5 v=0
67637 On ch=1 n=d#6 v=0
67640 Par ch=1 c=64 v=127
67658 On ch=1 n=f#5 v=0
67695 On ch=1 n=f#6 v=105
67704 On ch=1 n=g5 v=77
67706 On ch=1 n=b5 v=78
67743 On ch=1 n=f#6 v=0
67752 On ch=1 n=e6 v=84
67795 On ch=1 n=g6 v=90
67803 On ch=1 n=e6 v=0
67832 Par ch=1 c=64 v=63
67839 Par ch=1 c=64 v=0
67846 On ch=1 n=f#6 v=101
67852 On ch=1 n=g6 v=0
67891 On ch=1 n=a6 v=92
67897 On ch=1 n=f#6 v=0
67939 On ch=1 n=g6 v=93
67946 On ch=1 n=g5 v=0
67951 On ch=1 n=b5 v=0
67980 On ch=1 n=b6 v=107
67992 On ch=1 n=g6 v=0
68001 On ch=1 n=a6 v=0
68020 On ch=1 n=b6 v=0
68210 On ch=1 n=a4 v=60
68211 On ch=1 n=c#6 v=99
68216 On ch=1 n=e5 v=56
68241 On ch=1 n=c#6 v=0
68256 On ch=1 n=e5 v=0
68259 On ch=1 n=a4 v=0
68356 On ch=1 n=g5 v=49
68361 On ch=1 n=e6 v=78
68362 On ch=1 n=d5 v=62
68387 Par ch=1 c=64 v=63
68393 Par ch=1 c=64 v=127
68635 On ch=1 n=g5 v=0
68730 On ch=1 n=d6 v=84
68730 On ch=1 n=f#5 v=73
68739 On ch=1 n=e6 v=0
68756 Par ch=1 c=64 v=63
68760 On ch=1 n=f#5 v=0
68765 Par ch=1 c=64 v=0
68807 On ch=1 n=d5 v=0
68810 On ch=1 n=d6 v=0
68972 On ch=1 n=a3 v=112
69004 Par ch=1 c=64 v=63
69005 Par ch=1 c=64 v=127
69066 On ch=1 n=a3 v=0
69086 On ch=1 n=d4 v=121
69113 Par ch=1 c=64 v=63
69117 Par ch=1 c=64 v=0
69127 On ch=1 n=d4 v=0
69181 On ch=1 n=a3 v=106
69189 On ch=1 n=d6 v=92
69226 On ch=1 n=d6 v=0
69232 On ch=1 n=a3 v=0
69280 On ch=1 n=d4 v=106
69281 On ch=1 n=f#6 v=106
69311 On ch=1 n=d4 v=0
69316 On ch=1 n=f#6 v=0
69376 On ch=1 n=a6 v=97
69377 On ch=1 n=f#4 v=113
69412 On ch=1 n=a6 v=0
69417 On ch=1 n=f#4 v=0
69476 On ch=1 n=f#6 v=110
69478 On ch=1 n=d4 v=112
69507 On ch=1 n=f#6 v=0
69532 On ch=1 n=d4 v=0
69580 On ch=1 n=d7 v=120
69582 On ch=1 n=f#4 v=119
69606 Par ch=1 c=64 v=63
69608 Par ch=1 c=64 v=127
69685 On ch=1 n=f#4 v=0
69694 On ch=1 n=a4 v=120
69710 Par ch=1 c=64 v=63
69715 Par ch=1 c=64 v=0
69738 On ch=1 n=d7 v=0
69747 Par ch=1 c=64 v=63
69755 Par ch=1 c=64 v=127
69756 On ch=1 n=c#7 v=98
69815 On ch=1 n=e7 v=93
69819 On ch=1 n=c#7 v=0
69823 On ch=1 n=a4 v=0
69867 On ch=1 n=d7 v=85
69887 On ch=1 n=e7 v=0
69897 On ch=1 n=a4 v=112
69901 On ch=1 n=c#7 v=103
69924 On ch=1 n=d7 v=0
69953 On ch=1 n=a4 v=0
69953 On ch=1 n=b6 v=82
69960 On ch=1 n=c#7 v=0
70000 On ch=1 n=a6 v=88
70002 On ch=1 n=b6 v=0
70002 On ch=1 n=a4 v=117
70014 Par ch=1 c=64 v=63
70023 Par ch=1 c=64 v=0
70046 On ch=1 n=a6 v=0
70047 Par ch=1 c=64 v=63
70047 On ch=1 n=b6 v=91
70065 Par ch=1 c=64 v=127
70075 On ch=1 n=a4 v=0
70099 On ch=1 n=a6 v=85
70104 On ch=1 n=b6 v=0
70134 On ch=1 n=a6 v=0
70139 On ch=1 n=g6 v=83
70186 On ch=1 n=f#6 v=105
70187 On ch=1 n=g6 v=0
70193 Par ch=1 c=64 v=63
70198 On ch=1 n=g5 v=118
70200 Par ch=1 c=64 v=0
70243 On ch=1 n=f#6 v=0
70243 On ch=1 n=e6 v=101
70298 On ch=1 n=d6 v=118
70308 Par ch=1 c=64 v=63
70311 Par ch=1 c=64 v=127
70321 On ch=1 n=e6 v=0
70330 On ch=1 n=g5 v=0
70354 On ch=1 n=f#5 v=98
70389 On ch=1 n=d6 v=0
70395 On ch=1 n=a5 v=81
70405 On ch=1 n=f#5 v=0
70450 On ch=1 n=g5 v=67
70454 On ch=1 n=a5 v=0
70481 On ch=1 n=d6 v=101
70486 On ch=1 n=f#5 v=101
70503 On ch=1 n=g5 v=0
70514 On ch=1 n=d6 v=0
70530 On ch=1 n=f#5 v=0
70541 Par ch=1 c=64 v=63
70541 On ch=1 n=e5 v=90
70546 Par ch=1 c=64 v=0
70589 On ch=1 n=e5 v=0
70600 On ch=1 n=d5 v=92
70604 On ch=1 n=d6 v=109
70613 Par ch=1 c=64 v=63
70620 Par ch=1 c=64 v=127
70643 On ch=1 n=e5 v=86
70645 On ch=1 n=d5 v=0
70645 On ch=1 n=d6 v=0
70691 On ch=1 n=e5 v=0
70692 On ch=1 n=d5 v=60
70741 On ch=1 n=c5 v=88
70745 On ch=1 n=d5 v=0
70763 Par ch=1 c=64 v=63
70769 Par ch=1 c=64 v=0
70777 On ch=1 n=c5 v=0
70793 On ch=1 n=b4 v=92
70805 On ch=1 n=d5 v=100
70836 On ch=1 n=b4 v=0
70840 On ch=1 n=d5 v=0
70840 On ch=1 n=a4 v=94
70887 On ch=1 n=a4 v=0
70896 Par ch=1 c=64 v=63
70901 Par ch=1 c=64 v=127
70901 On ch=1 n=g4 v=112
70910 On ch=1 n=g5 v=102
70924 Par ch=1 c=64 v=63
70928 On ch=1 n=g4 v=0
70929 Par ch=1 c=64 v=0
70943 On ch=1 n=g5 v=0
71009 On ch=1 n=g3 v=108
71011 On ch=1 n=d5 v=90
71048 On ch=1 n=d5 v=0
71049 On ch=1 n=g3 v=0
71109 On ch=1 n=b3 v=101
71113 On ch=1 n=g5 v=84
71136 On ch=1 n=g5 v=0
71144 On ch=1 n=b3 v=0
71212 On ch=1 n=b5 v=88
71213 On ch=1 n=d4 v=101
71241 On ch=1 n=b5 v=0
71249 On ch=1 n=d4 v=0
71301 On ch=1 n=b3 v=84
71309 On ch=1 n=g5 v=77
71338 On ch=1 n=b3 v=0
71344 On ch=1 n=g5 v=0
71404 On ch=1 n=g4 v=114
71413 On ch=1 n=b5 v=103
71421 Par ch=1 c=64 v=63
71423 Par ch=1 c=64 v=127
71477 On ch=1 n=b5 v=0
71507 Par ch=1 c=64 v=63
71509 Par ch=1 c=64 v=0
71515 On ch=1 n=d6 v=116
71549 Par ch=1 c=64 v=63
71554 Par ch=1 c=64 v=127
71580 On ch=1 n=g4 v=0
71588 On ch=1 n=f#4 v=100
71633 On ch=1 n=a4 v=85
71641 On ch=1 n=f#4 v=0
71668 On ch=1 n=d6 v=0
71684 On ch=1 n=g4 v=70
71692 On ch=1 n=a4 v=0
71711 On ch=1 n=d6 v=107
71717 Par ch=1 c=64 v=63
71722 Par ch=1 c=64 v=0
71723 On ch=1 n=f#4 v=98
71733 On ch=1 n=g4 v=0
71741 On ch=1 n=d6 v=0
71760 On ch=1 n=f#4 v=0
71771 On ch=1 n=e4 v=91
71819 On ch=1 n=e4 v=0
71826 On ch=1 n=d6 v=112
71832 Par ch=1 c=64 v=63
71834 Par ch=1 c=64 v=127
71835 On ch=1 n=d4 v=86
71863 On ch=1 n=d6 v=0
71873 On ch=1 n=d4 v=0
71877 On ch=1 n=e4 v=76
71923 On ch=1 n=e4 v=0
71925 On ch=1 n=d4 v=70
71947 Par ch=1 c=64 v=63
71952 Par ch=1 c=64 v=0
71963 On ch=1 n=c4 v=84
71971 On ch=1 n=d4 v=0
72003 On ch=1 n=c4 v=0
72018 On ch=1 n=b3 v=84
72019 On ch=1 n=c6 v=106
72054 On ch=1 n=b3 v=0
72065 On ch=1 n=a3 v=84
72101 On ch=1 n=a3 v=0
72128 On ch=1 n=g3 v=114
72144 Par ch=1 c=64 v=127
72161 On ch=1 n=g3 v=0
72172 On ch=1 n=c6 v=0
72184 On ch=1 n=b5 v=87
72228 On ch=1 n=d6 v=80
72233 On ch=1 n=b5 v=0
72271 On ch=1 n=c6 v=90
72294 On ch=1 n=d6 v=0
72297 Par ch=1 c=64 v=63
72300 Par ch=1 c=64 v=0
72322 On ch=1 n=c5 v=120
72323 On ch=1 n=b5 v=91
72335 On ch=1 n=c6 v=0
72361 On ch=1 n=a5 v=100
72363 On ch=1 n=b5 v=0
72371 Par ch=1 c=64 v=63
72374 Par ch=1 c=64 v=127
72407 On ch=1 n=a5 v=0
72417 On ch=1 n=c5 v=0
72419 On ch=1 n=g5 v=104
72469 On ch=1 n=g5 v=0
72480 On ch=1 n=b4 v=99
72521 On ch=1 n=d5 v=82
72522 On ch=1 n=b4 v=0
72539 Par ch=1 c=64 v=63
72550 Par ch=1 c=64 v=0
72579 On ch=1 n=d5 v=0
72582 On ch=1 n=c5 v=70
72626 On ch=1 n=c7 v=99
72630 On ch=1 n=c5 v=0
72636 On ch=1 n=b4 v=73
72680 On ch=1 n=a4 v=68
72681 On ch=1 n=b4 v=0
72723 On ch=1 n=a4 v=0
72737 On ch=1 n=g4 v=106
72760 Par ch=1 c=64 v=63
72761 Par ch=1 c=64 v=127
72777 On ch=1 n=g4 v=0
72788 On ch=1 n=c7 v=0
72802 On ch=1 n=b6 v=88
72849 On ch=1 n=d7 v=92
72856 On ch=1 n=b6 v=0
72893 On ch=1 n=c7 v=92
72924 On ch=1 n=d7 v=0
72930 Par ch=1 c=64 v=63
72935 Par ch=1 c=64 v=0
72937 On ch=1 n=b6 v=91
72938 On ch=1 n=c6 v=125
72965 On ch=1 n=c7 v=0
72986 On ch=1 n=b6 v=0
72991 On ch=1 n=a6 v=92
73006 Par ch=1 c=64 v=63
73013 Par ch=1 c=64 v=127
73029 On ch=1 n=a6 v=0
73038 On ch=1 n=c6 v=0
73044 On ch=1 n=g#6 v=113
73079 On ch=1 n=g#6 v=0
73091 On ch=1 n=b5 v=76
73135 On ch=1 n=e6 v=89
73137 Par ch=1 c=64 v=63
73144 On ch=1 n=b5 v=0
73145 Par ch=1 c=64 v=0
73182 On ch=1 n=e6 v=0
73190 On ch=1 n=d6 v=82
73229 On ch=1 n=d6 v=0
73239 On ch=1 n=d6 v=108
73239 On ch=1 n=c6 v=104
73278 On ch=1 n=c6 v=0
73298 On ch=1 n=b5 v=100
73349 On ch=1 n=b5 v=0
73365 On ch=1 n=a5 v=113
73369 Par ch=1 c=64 v=63
73370 Par ch=1 c=64 v=127
73406 On ch=1 n=a5 v=0
73417 On ch=1 n=d6 v=0
73421 On ch=1 n=c6 v=94
73462 On ch=1 n=c6 v=0
73462 On ch=1 n=e6 v=101
73490 Par ch=1 c=64 v=63
73496 Par ch=1 c=64 v=0
73510 On ch=1 n=d6 v=99
73531 On ch=1 n=e6 v=0
73555 On ch=1 n=c6 v=100
73561 On ch=1 n=d5 v=121
73576 On ch=1 n=d6 v=0
73596 On ch=1 n=b5 v=99
73600 Par ch=1 c=64 v=63
73602 Par ch=1 c=64 v=127
73604 On ch=1 n=c6 v=0
73646 On ch=1 n=b5 v=0
73653 On ch=1 n=a5 v=112
73686 On ch=1 n=d5 v=0
73702 On ch=1 n=a5 v=0
73717 On ch=1 n=c5 v=98
73749 Par ch=1 c=64 v=63
73756 Par ch=1 c=64 v=0
73762 On ch=1 n=c5 v=0
73762 On ch=1 n=e5 v=81
73805 On ch=1 n=d5 v=82
73815 On ch=1 n=e5 v=0
73862 On ch=1 n=d7 v=116
73864 On ch=1 n=d5 v=0
73869 On ch=1 n=c5 v=72
73911 On ch=1 n=b4 v=77
73917 On ch=1 n=c5 v=0
73957 On ch=1 n=b4 v=0
73974 On ch=1 n=a4 v=116
73993 Par ch=1 c=64 v=63
73995 Par ch=1 c=64 v=127
73996 On ch=1 n=d7 v=0
74014 On ch=1 n=a4 v=0
74036 On ch=1 n=c7 v=89
74084 On ch=1 n=e7 v=81
74085 On ch=1 n=c7 v=0
74092 Par ch=1 c=64 v=63
74095 Par ch=1 c=64 v=0
74128 On ch=1 n=d7 v=84
74149 On ch=1 n=e7 v=0
74179 On ch=1 n=c7 v=87
74183 On ch=1 n=d6 v=120
74188 Par ch=1 c=64 v=63
74190 Par ch=1 c=64 v=127
74194 On ch=1 n=d7 v=0
74219 On ch=1 n=c7 v=0
74220 On ch=1 n=d6 v=0
74230 On ch=1 n=b6 v=87
74270 On ch=1 n=b6 v=0
74286 On ch=1 n=a#6 v=114
74325 On ch=1 n=a#6 v=0
74343 On ch=1 n=c#6 v=92
74389 On ch=1 n=f#6 v=92
74397 On ch=1 n=c#6 v=0
74399 Par ch=1 c=64 v=63
74402 Par ch=1 c=64 v=0
74428 On ch=1 n=f#6 v=0
74429 On ch=1 n=e6 v=77
74474 On ch=1 n=e6 v=0
74488 On ch=1 n=d6 v=86
74491 On ch=1 n=e6 v=120
74546 On ch=1 n=c#6 v=95
74552 On ch=1 n=d6 v=0
74582 On ch=1 n=c#6 v=0
74592 On ch=1 n=b5 v=112
74606 Par ch=1 c=64 v=63
74608 Par ch=1 c=64 v=127
74628 On ch=1 n=b5 v=0
74636 On ch=1 n=e6 v=0
74654 On ch=1 n=d6 v=96
74692 On ch=1 n=f#6 v=106
74700 On ch=1 n=d6 v=0
74708 Par ch=1 c=64 v=63
74716 Par ch=1 c=64 v=0
74737 On ch=1 n=e6 v=100
74759 On ch=1 n=f#6 v=0
74792 On ch=1 n=e6 v=0
74792 On ch=1 n=d6 v=96
74797 On ch=1 n=e5 v=120
74836 On ch=1 n=d6 v=0
74843 On ch=1 n=c#6 v=108
74885 On ch=1 n=c#6 v=0
74895 On ch=1 n=b5 v=98
74903 Par ch=1 c=64 v=63
74905 Par ch=1 c=64 v=127
74923 On ch=1 n=e5 v=0
74935 On ch=1 n=b5 v=0
74956 On ch=1 n=d5 v=91
74993 On ch=1 n=g5 v=89
74999 On ch=1 n=d5 v=0
75005 Par ch=1 c=64 v=63
75010 Par ch=1 c=64 v=0
75034 On ch=1 n=f#5 v=98
75051 On ch=1 n=g5 v=0
75075 On ch=1 n=f#6 v=120
75085 On ch=1 n=e5 v=84
75091 On ch=1 n=f#5 v=0
75133 On ch=1 n=d5 v=90
75151 On ch=1 n=e5 v=0
75194 On ch=1 n=c#5 v=120
75195 Par ch=1 c=64 v=63
75196 Par ch=1 c=64 v=127
75217 On ch=1 n=d5 v=0
75232 On ch=1 n=c#5 v=0
75243 On ch=1 n=f#6 v=0
75253 On ch=1 n=e6 v=100
75275 Par ch=1 c=64 v=63
75280 Par ch=1 c=64 v=0
75290 On ch=1 n=g6 v=99
75300 On ch=1 n=e6 v=0
75340 On ch=1 n=f#6 v=107
75365 On ch=1 n=g6 v=0
75386 On ch=1 n=e6 v=101
75387 On ch=1 n=f#5 v=121
75401 Par ch=1 c=64 v=63
75402 On ch=1 n=f#6 v=0
75403 Par ch=1 c=64 v=127
75434 On ch=1 n=d6 v=101
75439 On ch=1 n=e6 v=0
75482 On ch=1 n=c#6 v=116
75491 On ch=1 n=d6 v=0
75495 On ch=1 n=f#5 v=0
75517 On ch=1 n=c#6 v=0
75545 On ch=1 n=e5 v=86
75565 Par ch=1 c=64 v=63
75570 Par ch=1 c=64 v=0
75584 On ch=1 n=a5 v=80
75596 On ch=1 n=e5 v=0
75634 On ch=1 n=g5 v=71
75646 On ch=1 n=a5 v=0
75678 On ch=1 n=g6 v=111
75684 On ch=1 n=f#5 v=92
75694 On ch=1 n=g5 v=0
75735 On ch=1 n=e5 v=87
75737 On ch=1 n=f#5 v=0
75762 Par ch=1 c=64 v=63
75764 Par ch=1 c=64 v=127
75789 On ch=1 n=g6 v=0
75791 On ch=1 n=d5 v=117
75798 On ch=1 n=f#6 v=109
75817 On ch=1 n=e5 v=0
75843 On ch=1 n=d5 v=0
75844 On ch=1 n=f#6 v=0
75847 Par ch=1 c=64 v=63
75850 On ch=1 n=d6 v=90
75855 Par ch=1 c=64 v=0
75893 On ch=1 n=d6 v=0
75896 On ch=1 n=f#6 v=101
75947 On ch=1 n=f#6 v=0
75948 On ch=1 n=a6 v=85
75981 On ch=1 n=a6 v=0
75993 On ch=1 n=d7 v=84
76003 Par ch=1 c=64 v=63
76007 Par ch=1 c=64 v=127
76010 On ch=1 n=g5 v=87
76012 On ch=1 n=e5 v=82
76048 On ch=1 n=c#7 v=106
76058 On ch=1 n=d7 v=0
76081 On ch=1 n=g5 v=0
76082 On ch=1 n=e5 v=0
76096 On ch=1 n=c#7 v=0
76103 On ch=1 n=f#5 v=109
76112 On ch=1 n=d5 v=98
76164 On ch=1 n=f#5 v=0
76165 On ch=1 n=b5 v=84
76174 On ch=1 n=d5 v=0
76217 On ch=1 n=d6 v=101
76227 On ch=1 n=b5 v=0
76256 On ch=1 n=f#6 v=103
76264 Par ch=1 c=64 v=63
76272 Par ch=1 c=64 v=0
76277 On ch=1 n=d6 v=0
76296 On ch=1 n=c#5 v=113
76299 On ch=1 n=e5 v=103
76310 On ch=1 n=b6 v=86
76317 On ch=1 n=f#6 v=0
76342 Par ch=1 c=64 v=63
76352 Par ch=1 c=64 v=127
76364 On ch=1 n=a6 v=100
76371 On ch=1 n=c#5 v=0
76371 On ch=1 n=e5 v=0
76380 Par ch=1 c=64 v=63
76381 On ch=1 n=b6 v=0
76386 Par ch=1 c=64 v=0
76404 On ch=1 n=b4 v=108
76407 On ch=1 n=a6 v=0
76407 On ch=1 n=d5 v=112
76450 Par ch=1 c=64 v=63
76457 Par ch=1 c=64 v=127
76464 On ch=1 n=g5 v=100
76497 On ch=1 n=d5 v=0
76499 On ch=1 n=b4 v=0
76509 On ch=1 n=b5 v=108
76523 On ch=1 n=g5 v=0
76550 On ch=1 n=d6 v=102
76564 On ch=1 n=b5 v=0
76599 On ch=1 n=d6 v=0
76599 On ch=1 n=g6 v=87
76604 On ch=1 n=a4 v=101
76606 On ch=1 n=c#5 v=106
76648 On ch=1 n=c#5 v=0
76649 On ch=1 n=f#6 v=104
76652 On ch=1 n=a4 v=0
76662 On ch=1 n=g6 v=0
76662 Par ch=1 c=64 v=63
76667 Par ch=1 c=64 v=0
76688 On ch=1 n=f#6 v=0
76713 On ch=1 n=b4 v=117
76714 On ch=1 n=g4 v=116
76742 Par ch=1 c=64 v=63
76750 Par ch=1 c=64 v=127
76753 On ch=1 n=e5 v=94
76809 On ch=1 n=b4 v=0
76813 On ch=1 n=e5 v=0
76813 On ch=1 n=g5 v=98
76854 On ch=1 n=b5 v=100
76857 On ch=1 n=g4 v=0
76865 On ch=1 n=g5 v=0
76904 On ch=1 n=e6 v=94
76907 On ch=1 n=b5 v=0
76912 On ch=1 n=b4 v=108
76914 On ch=1 n=g#4 v=112
76939 Par ch=1 c=64 v=63
76944 Par ch=1 c=64 v=0
76951 On ch=1 n=g#4 v=0
76955 On ch=1 n=d6 v=91
76957 On ch=1 n=b4 v=0
76974 On ch=1 n=e6 v=0
76997 On ch=1 n=d6 v=0
77025 Par ch=1 c=64 v=63
77028 On ch=1 n=a4 v=120
77028 Par ch=1 c=64 v=127
77033 On ch=1 n=c#6 v=114
77069 On ch=1 n=c#6 v=0
77093 On ch=1 n=e5 v=86
77117 On ch=1 n=a4 v=0
77143 On ch=1 n=a6 v=99
77146 On ch=1 n=e5 v=0
77147 On ch=1 n=c#5 v=96
77155 Par ch=1 c=64 v=63
77160 Par ch=1 c=64 v=0
77182 On ch=1 n=e5 v=78
77187 On ch=1 n=a6 v=0
77192 On ch=1 n=c#5 v=0
77230 On ch=1 n=e5 v=0
77231 On ch=1 n=d5 v=94
77236 On ch=1 n=f#6 v=108
77238 On ch=1 n=d6 v=96
77266 On ch=1 n=d6 v=0
77267 On ch=1 n=f#6 v=0
77282 On ch=1 n=d5 v=0
77288 On ch=1 n=f#5 v=100
77327 On ch=1 n=f#5 v=0
77337 On ch=1 n=e6 v=100
77340 Par ch=1 c=64 v=63
77342 On ch=1 n=c#6 v=105
77342 Par ch=1 c=64 v=127
77343 On ch=1 n=a4 v=96
77392 On ch=1 n=e5 v=69
77398 On ch=1 n=c#6 v=0
77403 On ch=1 n=a4 v=0
77436 On ch=1 n=a6 v=99
77439 On ch=1 n=e6 v=0
77444 On ch=1 n=e5 v=0
77444 On ch=1 n=c#5 v=101
77447 Par ch=1 c=64 v=63
77453 Par ch=1 c=64 v=0
77492 On ch=1 n=a6 v=0
77492 On ch=1 n=e5 v=77
77494 On ch=1 n=c#5 v=0
77524 On ch=1 n=e5 v=0
77526 On ch=1 n=d5 v=91
77534 On ch=1 n=d6 v=92
77535 On ch=1 n=f#6 v=103
77566 On ch=1 n=d5 v=0
77572 On ch=1 n=d6 v=0
77579 On ch=1 n=f#5 v=104
77587 On ch=1 n=f#6 v=0
77614 On ch=1 n=f#5 v=0
77643 On ch=1 n=a4 v=98
77644 On ch=1 n=e5 v=108
77648 On ch=1 n=c#5 v=103
77648 On ch=1 n=e6 v=104
77649 On ch=1 n=c#6 v=108
77652 Par ch=1 c=64 v=63
77654 Par ch=1 c=64 v=127
77673 On ch=1 n=c#5 v=0
77676 On ch=1 n=e5 v=0
77688 On ch=1 n=a4 v=0
77700 On ch=1 n=c#6 v=0
77735 On ch=1 n=e6 v=0
77743 On ch=1 n=a6 v=98
77774 On ch=1 n=a6 v=0
77797 Par ch=1 c=64 v=63
77803 Par ch=1 c=64 v=0
77854 On ch=1 n=a4 v=103
77854 On ch=1 n=a5 v=121
77859 On ch=1 n=a3 v=98
77880 On ch=1 n=a3 v=0
77882 On ch=1 n=a5 v=0
77887 On ch=1 n=a4 v=0
78000 On ch=1 n=a5 v=122
78005 On ch=1 n=a4 v=103
78005 On ch=1 n=a3 v=99
78006 Par ch=1 c=64 v=63
78007 Par ch=1 c=64 v=127
78029 On ch=1 n=a5 v=0
78038 On ch=1 n=a4 v=0
78040 On ch=1 n=a3 v=0
78341 Par ch=1 c=64 v=63
78367 Par ch=1 c=64 v=0
78384 On ch=1 n=f#5 v=76
78588 On ch=1 n=g5 v=88
78673 On ch=1 n=f#5 v=0
78750 Par ch=1 c=64 v=63
78766 Par ch=1 c=64 v=127
78826 On ch=1 n=a5 v=100
78854 On ch=1 n=g5 v=0
78962 On ch=1 n=b5 v=97
78996 On ch=1 n=a5 v=0
79026 Par ch=1 c=64 v=63
79048 Par ch=1 c=64 v=0
79089 On ch=1 n=a5 v=89
79099 On ch=1 n=b5 v=0
79141 On ch=1 n=g5 v=88
79157 On ch=1 n=a5 v=0
79187 On ch=1 n=f#5 v=103
79214 On ch=1 n=g5 v=0
79230 On ch=1 n=e5 v=85
79235 On ch=1 n=f#5 v=0
79293 On ch=1 n=d5 v=102
79304 On ch=1 n=g4 v=69
79310 On ch=1 n=e4 v=76
79311 On ch=1 n=a3 v=66
79320 On ch=1 n=e5 v=0
79431 Par ch=1 c=64 v=63
79442 Par ch=1 c=64 v=127
79696 Par ch=1 c=64 v=63
79697 On ch=1 n=c#5 v=75
79711 Par ch=1 c=64 v=0
79732 On ch=1 n=d5 v=0
79776 On ch=1 n=e4 v=0
79781 Par ch=1 c=64 v=63
79793 Par ch=1 c=64 v=127
79801 On ch=1 n=a3 v=0
79824 On ch=1 n=c#5 v=0
79829 On ch=1 n=g4 v=0
79916 On ch=1 n=c#4 v=75
79917 On ch=1 n=b4 v=82
79931 On ch=1 n=g3 v=52
79948 Par ch=1 c=64 v=63
79955 On ch=1 n=c#4 v=0
79956 On ch=1 n=b4 v=0
79958 On ch=1 n=g3 v=0
79962 Par ch=1 c=64 v=0
80045 On ch=1 n=b4 v=81
80050 On ch=1 n=f#3 v=66
80057 On ch=1 n=d4 v=51
80086 Par ch=1 c=64 v=63
80101 Par ch=1 c=64 v=127
80162 Par ch=1 c=64 v=63
80167 On ch=1 n=b4 v=0
80169 On ch=1 n=a4 v=70
80174 Par ch=1 c=64 v=0
80204 On ch=1 n=a4 v=0
80275 On ch=1 n=a4 v=81
80311 On ch=1 n=a4 v=0
80366 On ch=1 n=f#3 v=0
80370 On ch=1 n=d4 v=0
80376 Par ch=1 c=64 v=63
80377 On ch=1 n=a4 v=84
80386 Par ch=1 c=64 v=0
80482 On ch=1 n=d5 v=93
80485 On ch=1 n=f#3 v=80
80495 Par ch=1 c=64 v=63
80503 On ch=1 n=a4 v=0
80509 Par ch=1 c=64 v=127
80526 Par ch=1 c=64 v=63
80537 Par ch=1 c=64 v=0
80544 On ch=1 n=d5 v=0
80555 On ch=1 n=f#3 v=0
80587 On ch=1 n=f#5 v=96
80588 On ch=1 n=d3 v=65
80591 On ch=1 n=d5 v=76
80601 Par ch=1 c=64 v=63
80615 Par ch=1 c=64 v=127
80623 Par ch=1 c=64 v=63
80632 On ch=1 n=d5 v=0
80635 Par ch=1 c=64 v=0
80644 On ch=1 n=d3 v=0
80649 On ch=1 n=f#5 v=0
80706 On ch=1 n=f#5 v=86
80710 On ch=1 n=d5 v=81
80714 On ch=1 n=a3 v=68
80726 Par ch=1 c=64 v=63
80735 Par ch=1 c=64 v=127
80898 On ch=1 n=f#5 v=0
80925 On ch=1 n=d5 v=0
80932 On ch=1 n=g5 v=69
80933 On ch=1 n=e5 v=70
80996 On ch=1 n=e5 v=0
81034 On ch=1 n=g5 v=0
81071 On ch=1 n=e5 v=63
81078 On ch=1 n=c#5 v=60
81088 Par ch=1 c=64 v=63
81095 Par ch=1 c=64 v=0
81156 Par ch=1 c=64 v=63
81167 Par ch=1 c=64 v=127
81192 On ch=1 n=e5 v=0
81249 On ch=1 n=a3 v=0
81252 On ch=1 n=c#5 v=0
81322 On ch=1 n=f#5 v=62
81422 Par ch=1 c=64 v=63
81431 Par ch=1 c=64 v=0
81441 On ch=1 n=f#5 v=0
81444 On ch=1 n=g5 v=73
81556 Par ch=1 c=64 v=63
81564 Par ch=1 c=64 v=127
81665 On ch=1 n=a5 v=93
81684 On ch=1 n=g5 v=0
81775 On ch=1 n=b5 v=98
81814 On ch=1 n=a5 v=0
81874 Par ch=1 c=64 v=63
81889 Par ch=1 c=64 v=0
81891 On ch=1 n=a5 v=90
81896 On ch=1 n=b5 v=0
81940 On ch=1 n=g5 v=89
81959 On ch=1 n=a5 v=0
81981 On ch=1 n=f#5 v=99
82004 On ch=1 n=g5 v=0
82024 On ch=1 n=e5 v=83
82028 On ch=1 n=f#5 v=0
82080 On ch=1 n=d5 v=100
82086 On ch=1 n=g4 v=80
82089 On ch=1 n=e5 v=0
82089 On ch=1 n=a3 v=68
82092 On ch=1 n=e4 v=85
82214 Par ch=1 c=64 v=63
82221 Par ch=1 c=64 v=127
82275 On ch=1 n=d5 v=0
82440 On ch=1 n=c#5 v=95
82494 On ch=1 n=e4 v=0
82501 On ch=1 n=a3 v=0
82505 Par ch=1 c=64 v=63
82511 Par ch=1 c=64 v=0
82542 On ch=1 n=c#5 v=0
82556 On ch=1 n=b5 v=81
82657 On ch=1 n=g4 v=0
82659 On ch=1 n=a5 v=84
82665 On ch=1 n=c#4 v=81
82672 On ch=1 n=b5 v=0
82673 On ch=1 n=g3 v=70
82692 On ch=1 n=c#4 v=0
82699 On ch=1 n=a5 v=0
82699 On ch=1 n=g3 v=0
82772 On ch=1 n=a5 v=89
82775 On ch=1 n=d4 v=84
82776 On ch=1 n=f#3 v=91
82800 Par ch=1 c=64 v=63
82802 Par ch=1 c=64 v=127
82820 On ch=1 n=f#3 v=0
82826 On ch=1 n=d4 v=0
82877 On ch=1 n=a5 v=0
82880 Par ch=1 c=64 v=63
82886 On ch=1 n=d6 v=70
82889 Par ch=1 c=64 v=0
82910 On ch=1 n=d6 v=0
82985 On ch=1 n=d5 v=91
82987 On ch=1 n=g4 v=69
82993 On ch=1 n=b3 v=61
83017 On ch=1 n=g4 v=0
83017 On ch=1 n=b3 v=0
83022 On ch=1 n=d5 v=0
83101 On ch=1 n=a4 v=92
83104 On ch=1 n=a3 v=84
83105 On ch=1 n=f#5 v=101
83106 On ch=1 n=d5 v=84
83127 On ch=1 n=d5 v=0
83135 On ch=1 n=a4 v=0
83139 On ch=1 n=f#5 v=0
83140 On ch=1 n=a3 v=0
83322 On ch=1 n=a3 v=68
83327 On ch=1 n=c#5 v=75
83330 On ch=1 n=e5 v=68
83332 On ch=1 n=g4 v=86
83346 On ch=1 n=a3 v=0
83351 On ch=1 n=c#5 v=0
83355 On ch=1 n=e5 v=0
83362 On ch=1 n=g4 v=0
83477 On ch=1 n=g4 v=59
83480 On ch=1 n=e5 v=59
83481 On ch=1 n=d4 v=52
83484 On ch=1 n=c#5 v=70
83509 Par ch=1 c=64 v=63
83512 Par ch=1 c=64 v=127
83837 On ch=1 n=c#5 v=0
83881 On ch=1 n=d5 v=66
83886 On ch=1 n=f#4 v=52
83904 Par ch=1 c=64 v=63
83910 On ch=1 n=e5 v=0
83913 Par ch=1 c=64 v=0
83918 On ch=1 n=g4 v=0
83960 Par ch=1 c=64 v=63
83975 Par ch=1 c=64 v=127
84000 On ch=1 n=d5 v=0
84047 On ch=1 n=f#4 v=0
84052 On ch=1 n=d4 v=0
84132 Par ch=1 c=64 v=63
84143 Par ch=1 c=64 v=0
84180 On ch=1 n=f#6 v=63
84218 Par ch=1 c=64 v=63
84227 Par ch=1 c=64 v=127
84297 On ch=1 n=f#6 v=0
84307 On ch=1 n=g6 v=72
84368 On ch=1 n=g6 v=0
84425 On ch=1 n=g6 v=90
84472 On ch=1 n=f#6 v=94
84478 On ch=1 n=g6 v=0
84516 On ch=1 n=a6 v=96
84526 On ch=1 n=f#6 v=0
84561 On ch=1 n=g6 v=91
84580 On ch=1 n=a6 v=0
84607 On ch=1 n=b6 v=97
84617 On ch=1 n=g6 v=0
84647 On ch=1 n=a6 v=90
84675 On ch=1 n=b6 v=0
84684 Par ch=1 c=64 v=63
84686 On ch=1 n=g6 v=97
84698 Par ch=1 c=64 v=0
84715 On ch=1 n=a6 v=0
84727 On ch=1 n=f#6 v=103
84744 On ch=1 n=g6 v=0
84774 On ch=1 n=g6 v=90
84783 On ch=1 n=f#6 v=0
84823 On ch=1 n=e6 v=104
84851 On ch=1 n=g6 v=0
84887 On ch=1 n=d6 v=103
84901 On ch=1 n=g5 v=94
84907 On ch=1 n=e5 v=88
84908 On ch=1 n=e6 v=0
84909 On ch=1 n=a4 v=76
85049 Par ch=1 c=64 v=63
85059 Par ch=1 c=64 v=127
85149 On ch=1 n=d6 v=0
85157 On ch=1 n=e6 v=79
85197 On ch=1 n=d6 v=88
85208 On ch=1 n=e6 v=0
85218 Par ch=1 c=64 v=63
85228 Par ch=1 c=64 v=0
85244 On ch=1 n=c#6 v=92
85256 Par ch=1 c=64 v=63
85257 On ch=1 n=d6 v=0
85280 Par ch=1 c=64 v=127
85300 On ch=1 n=a4 v=0
85341 On ch=1 n=g5 v=0
85352 On ch=1 n=c#6 v=0
85382 On ch=1 n=e5 v=0
85459 On ch=1 n=g#5 v=81
85464 On ch=1 n=b5 v=82
85474 On ch=1 n=b4 v=49
85475 On ch=1 n=d5 v=57
85492 Par ch=1 c=64 v=63
85504 Par ch=1 c=64 v=0
85505 On ch=1 n=b5 v=0
85506 On ch=1 n=d5 v=0
85516 On ch=1 n=g#5 v=0
85521 On ch=1 n=b4 v=0
85587 On ch=1 n=g5 v=70
85589 On ch=1 n=b5 v=85
85589 On ch=1 n=c#5 v=65
85596 On ch=1 n=e5 v=66
85626 Par ch=1 c=64 v=63
85635 Par ch=1 c=64 v=127
85699 On ch=1 n=a5 v=81
85702 On ch=1 n=b5 v=0
85706 Par ch=1 c=64 v=63
85720 Par ch=1 c=64 v=0
85742 On ch=1 n=a5 v=0
85800 On ch=1 n=a5 v=96
85801 On ch=1 n=e5 v=0
85816 On ch=1 n=c#5 v=0
85830 On ch=1 n=g5 v=0
85840 On ch=1 n=a5 v=0
85901 On ch=1 n=f#5 v=96
85907 On ch=1 n=a5 v=98
85908 On ch=1 n=d5 v=81
85936 Par ch=1 c=64 v=63
85945 Par ch=1 c=64 v=127
85996 Par ch=1 c=64 v=63
86006 Par ch=1 c=64 v=0
86010 On ch=1 n=d6 v=96
86021 On ch=1 n=a5 v=0
86044 Par ch=1 c=64 v=63
86060 Par ch=1 c=64 v=127
86079 On ch=1 n=d6 v=0
86091 On ch=1 n=d5 v=0
86092 On ch=1 n=f#5 v=0
86116 On ch=1 n=f#6 v=94
86120 On ch=1 n=d6 v=78
86139 Par ch=1 c=64 v=63
86147 On ch=1 n=d6 v=0
86167 Par ch=1 c=64 v=0
86168 On ch=1 n=f#6 v=0
86253 Par ch=1 c=64 v=63
86254 On ch=1 n=f#6 v=91
86259 On ch=1 n=d6 v=73
86261 On ch=1 n=a5 v=64
86262 On ch=1 n=a4 v=63
86282 Par ch=1 c=64 v=127
86468 On ch=1 n=f#6 v=0
86478 On ch=1 n=d6 v=0
86494 On ch=1 n=g6 v=78
86497 On ch=1 n=e6 v=61
86574 On ch=1 n=e6 v=0
86624 On ch=1 n=g6 v=0
86627 On ch=1 n=e6 v=73
86637 On ch=1 n=c#6 v=70
86662 Par ch=1 c=64 v=63
86672 Par ch=1 c=64 v=0
86710 Par ch=1 c=64 v=63
86727 Par ch=1 c=64 v=127
86742 On ch=1 n=e6 v=0
86752 On ch=1 n=a5 v=0
86796 On ch=1 n=a4 v=0
86827 On ch=1 n=c#6 v=0
86839 On ch=1 n=f#6 v=72
86953 Par ch=1 c=64 v=63
86957 On ch=1 n=g6 v=70
86961 On ch=1 n=f#6 v=0
86969 Par ch=1 c=64 v=0
86993 Par ch=1 c=64 v=63
87020 Par ch=1 c=64 v=127
87041 On ch=1 n=g6 v=0
87078 On ch=1 n=g6 v=86
87122 On ch=1 n=f#6 v=93
87133 On ch=1 n=g6 v=0
87166 On ch=1 n=a6 v=92
87174 On ch=1 n=f#6 v=0
87215 On ch=1 n=g6 v=94
87233 On ch=1 n=a6 v=0
87262 On ch=1 n=b6 v=96
87272 On ch=1 n=g6 v=0
87277 Par ch=1 c=64 v=63
87306 Par ch=1 c=64 v=0
87310 On ch=1 n=a6 v=86
87334 On ch=1 n=b6 v=0
87345 On ch=1 n=g6 v=96
87374 On ch=1 n=a6 v=0
87391 On ch=1 n=f#6 v=103
87407 On ch=1 n=g6 v=0
87442 On ch=1 n=f#6 v=0
87443 On ch=1 n=g6 v=91
87494 On ch=1 n=e6 v=96
87501 On ch=1 n=g6 v=0
87541 On ch=1 n=e6 v=0
87555 On ch=1 n=d6 v=81
87561 On ch=1 n=a5 v=78
87562 On ch=1 n=g5 v=82
87585 Par ch=1 c=64 v=63
87591 Par ch=1 c=64 v=127
87596 On ch=1 n=c#6 v=99
87602 On ch=1 n=d6 v=0
87635 On ch=1 n=c#6 v=0
87657 On ch=1 n=e6 v=85
87695 On ch=1 n=e6 v=0
87709 Par ch=1 c=64 v=63
87710 On ch=1 n=d6 v=84
87714 Par ch=1 c=64 v=0
87761 On ch=1 n=d6 v=0
87768 On ch=1 n=f#6 v=96
87787 Par ch=1 c=64 v=63
87792 Par ch=1 c=64 v=127
87816 On ch=1 n=e6 v=96
87821 On ch=1 n=f#6 v=0
87859 Par ch=1 c=64 v=63
87864 On ch=1 n=g6 v=100
87868 Par ch=1 c=64 v=0
87875 On ch=1 n=e6 v=0
87903 Par ch=1 c=64 v=63
87910 On ch=1 n=f#6 v=110
87911 Par ch=1 c=64 v=127
87931 On ch=1 n=g6 v=0
87959 On ch=1 n=a6 v=97
87973 On ch=1 n=f#6 v=0
88002 On ch=1 n=g6 v=100
88012 On ch=1 n=a6 v=0
88023 On ch=1 n=g5 v=0
88046 On ch=1 n=a5 v=0
88052 On ch=1 n=g6 v=0
88053 On ch=1 n=b6 v=107
88099 On ch=1 n=a6 v=111
88131 On ch=1 n=b6 v=0
88157 On ch=1 n=a6 v=0
88177 On ch=1 n=a6 v=109
88325 On ch=1 n=d#6 v=79
88335 Par ch=1 c=64 v=63
88340 Par ch=1 c=64 v=0
88340 On ch=1 n=f5 v=59
88388 On ch=1 n=d#6 v=0
88399 Par ch=1 c=64 v=63
88402 On ch=1 n=f5 v=0
88405 Par ch=1 c=64 v=127
88463 On ch=1 n=d#6 v=84
88467 On ch=1 n=f5 v=75
88532 On ch=1 n=f5 v=0
88550 On ch=1 n=a6 v=0
88553 On ch=1 n=d#6 v=0
88563 On ch=1 n=g#6 v=107
88666 Par ch=1 c=64 v=63
88677 On ch=1 n=d6 v=68
88679 Par ch=1 c=64 v=0
88685 On ch=1 n=e5 v=51
88729 Par ch=1 c=64 v=63
88732 On ch=1 n=d6 v=0
88739 On ch=1 n=e5 v=0
88741 Par ch=1 c=64 v=127
88797 On ch=1 n=d6 v=70
88799 On ch=1 n=e5 v=67
88840 On ch=1 n=g#6 v=0
88851 On ch=1 n=e5 v=0
88869 On ch=1 n=d6 v=0
88905 On ch=1 n=g6 v=80
88941 Par ch=1 c=64 v=63
88951 Par ch=1 c=64 v=0
89016 On ch=1 n=d6 v=60
89024 On ch=1 n=b5 v=59
89030 Par ch=1 c=64 v=63
89040 Par ch=1 c=64 v=127
89060 On ch=1 n=b5 v=0
89064 On ch=1 n=d6 v=0
89117 Par ch=1 c=64 v=63
89125 Par ch=1 c=64 v=0
89166 On ch=1 n=d6 v=60
89171 On ch=1 n=b5 v=55
89181 Par ch=1 c=64 v=63
89189 Par ch=1 c=64 v=127
89197 On ch=1 n=b5 v=0
89212 On ch=1 n=d6 v=0
89254 Par ch=1 c=64 v=63
89297 Par ch=1 c=64 v=0
89337 On ch=1 n=c#6 v=71
89337 On ch=1 n=f#6 v=61
89342 On ch=1 n=g6 v=0
89370 On ch=1 n=a#5 v=33
89397 Par ch=1 c=64 v=63
89401 Par ch=1 c=64 v=127
89419 On ch=1 n=c#6 v=0
89434 On ch=1 n=a#5 v=0
89467 On ch=1 n=f#6 v=0
89719 Par ch=1 c=64 v=63
89723 Par ch=1 c=64 v=0
89739 On ch=1 n=f#5 v=116
89768 On ch=1 n=f#5 v=0
89859 On ch=1 n=b5 v=107
89859 On ch=1 n=f#4 v=119
89890 On ch=1 n=b5 v=0
89900 On ch=1 n=f#4 v=0
89974 On ch=1 n=f#5 v=81
89977 On ch=1 n=b4 v=92
90001 On ch=1 n=f#5 v=0
90001 On ch=1 n=b4 v=0
90071 On ch=1 n=f#4 v=91
90073 On ch=1 n=b5 v=83
90100 On ch=1 n=b5 v=0
90108 On ch=1 n=f#4 v=0
90181 On ch=1 n=d6 v=90
90186 On ch=1 n=b4 v=86
90211 On ch=1 n=b4 v=0
90217 On ch=1 n=d6 v=0
90288 On ch=1 n=d5 v=80
90289 On ch=1 n=b5 v=77
90315 On ch=1 n=b5 v=0
90324 On ch=1 n=d5 v=0
90386 On ch=1 n=d6 v=88
90388 On ch=1 n=b4 v=84
90420 On ch=1 n=d6 v=0
90421 On ch=1 n=b4 v=0
90485 On ch=1 n=f#6 v=93
90488 On ch=1 n=d5 v=85
90512 On ch=1 n=d5 v=0
90536 On ch=1 n=f#6 v=0
90538 On ch=1 n=e6 v=71
90581 On ch=1 n=d6 v=77
90586 On ch=1 n=f#5 v=95
90588 On ch=1 n=e6 v=0
90607 On ch=1 n=f#5 v=0
90626 On ch=1 n=d6 v=0
90626 On ch=1 n=e5 v=96
90636 On ch=1 n=c#6 v=80
90668 On ch=1 n=e5 v=0
90669 On ch=1 n=c#6 v=0
90674 On ch=1 n=b5 v=74
90679 On ch=1 n=d5 v=87
90719 On ch=1 n=a#5 v=105
90721 On ch=1 n=c#5 v=100
90722 On ch=1 n=d5 v=0
90727 On ch=1 n=b5 v=0
90754 On ch=1 n=c#5 v=0
90757 On ch=1 n=a#5 v=0
90766 On ch=1 n=b4 v=87
90776 On ch=1 n=d6 v=76
90811 On ch=1 n=b4 v=0
90819 On ch=1 n=a#4 v=93
90821 On ch=1 n=c#6 v=87
90831 On ch=1 n=d6 v=0
90848 On ch=1 n=a#4 v=0
90867 On ch=1 n=b5 v=89
90871 On ch=1 n=d5 v=84
90874 On ch=1 n=c#6 v=0
90907 On ch=1 n=b5 v=0
90910 On ch=1 n=d5 v=0
90915 On ch=1 n=c#5 v=100
90916 On ch=1 n=a5 v=83
90946 On ch=1 n=c#5 v=0
90952 On ch=1 n=a5 v=0
90959 On ch=1 n=b4 v=91
90966 On ch=1 n=g5 v=97
91004 On ch=1 n=b4 v=0
91004 On ch=1 n=a4 v=81
91015 On ch=1 n=f#5 v=103
91021 On ch=1 n=g5 v=0
91049 On ch=1 n=g4 v=93
91050 On ch=1 n=a4 v=0
91056 On ch=1 n=e5 v=96
91061 On ch=1 n=f#5 v=0
91089 On ch=1 n=f#4 v=103
91091 On ch=1 n=e5 v=0
91101 On ch=1 n=g4 v=0
91131 On ch=1 n=f#4 v=0
91166 On ch=1 n=e4 v=97
91170 On ch=1 n=b4 v=94
91203 On ch=1 n=b4 v=0
91208 On ch=1 n=e4 v=0
91272 On ch=1 n=b3 v=98
91274 On ch=1 n=e5 v=100
91300 On ch=1 n=e5 v=0
91301 On ch=1 n=b3 v=0
91376 On ch=1 n=g5 v=102
91379 On ch=1 n=e4 v=73
91401 On ch=1 n=e4 v=0
91409 On ch=1 n=g5 v=0
91480 On ch=1 n=g4 v=84
91481 On ch=1 n=e5 v=96
91503 On ch=1 n=g4 v=0
91514 On ch=1 n=e5 v=0
91573 On ch=1 n=e4 v=104
91574 On ch=1 n=g5 v=96
91601 On ch=1 n=g5 v=0
91607 On ch=1 n=e4 v=0
91673 Par ch=1 c=64 v=63
91675 Par ch=1 c=64 v=127
91682 On ch=1 n=b5 v=97
91683 On ch=1 n=g4 v=84
91709 On ch=1 n=g4 v=0
91732 On ch=1 n=a5 v=77
91743 On ch=1 n=b5 v=0
91774 Par ch=1 c=64 v=63
91777 Par ch=1 c=64 v=0
91780 On ch=1 n=g5 v=81
91782 On ch=1 n=b4 v=91
91786 On ch=1 n=a5 v=0
91828 On ch=1 n=g5 v=0
91831 On ch=1 n=a4 v=77
91832 On ch=1 n=f#5 v=99
91834 On ch=1 n=b4 v=0
91835 Par ch=1 c=64 v=63
91839 Par ch=1 c=64 v=127
91870 On ch=1 n=f#5 v=0
91875 On ch=1 n=g4 v=73
91877 On ch=1 n=a4 v=0
91889 On ch=1 n=e5 v=70
91901 Par ch=1 c=64 v=63
91907 Par ch=1 c=64 v=0
91919 On ch=1 n=d#5 v=107
91921 On ch=1 n=f#4 v=95
91930 On ch=1 n=e5 v=0
91937 On ch=1 n=g4 v=0
91941 On ch=1 n=d#5 v=0
91962 On ch=1 n=g6 v=108
91965 On ch=1 n=e4 v=84
91974 On ch=1 n=f#4 v=0
91988 Par ch=1 c=64 v=63
91990 Par ch=1 c=64 v=127
92016 On ch=1 n=f#6 v=100
92024 On ch=1 n=e4 v=0
92025 On ch=1 n=d#4 v=65
92028 On ch=1 n=g6 v=0
92042 On ch=1 n=d#4 v=0
92061 On ch=1 n=e6 v=98
92066 On ch=1 n=g5 v=101
92086 Par ch=1 c=64 v=63
92088 On ch=1 n=f#6 v=0
92091 Par ch=1 c=64 v=0
92108 On ch=1 n=d6 v=97
92110 On ch=1 n=e6 v=0
92119 On ch=1 n=g5 v=0
92119 On ch=1 n=f#5 v=105
92149 On ch=1 n=d6 v=0
92150 On ch=1 n=f#5 v=0
92150 On ch=1 n=c#6 v=104
92171 On ch=1 n=e5 v=98
92200 On ch=1 n=b5 v=94
92205 On ch=1 n=c#6 v=0
92217 On ch=1 n=d5 v=94
92220 On ch=1 n=e5 v=0
92252 On ch=1 n=a5 v=93
92256 On ch=1 n=d5 v=0
92258 On ch=1 n=c#5 v=100
92265 On ch=1 n=b5 v=0
92275 Par ch=1 c=64 v=63
92298 On ch=1 n=b4 v=92
92299 Par ch=1 c=64 v=0
92303 On ch=1 n=c#5 v=0
92304 On ch=1 n=a5 v=0
92334 On ch=1 n=e5 v=94
92344 On ch=1 n=a4 v=94
92356 On ch=1 n=b4 v=0
92367 On ch=1 n=e5 v=0
92393 On ch=1 n=a4 v=0
92437 On ch=1 n=e4 v=96
92443 On ch=1 n=a5 v=84
92463 On ch=1 n=a5 v=0
92475 On ch=1 n=e4 v=0
92543 On ch=1 n=a4 v=83
92546 On ch=1 n=c#6 v=94
92570 On ch=1 n=a4 v=0
92585 On ch=1 n=c#6 v=0
92645 On ch=1 n=a5 v=91
92650 On ch=1 n=c#5 v=92
92674 On ch=1 n=c#5 v=0
92682 On ch=1 n=a5 v=0
92751 On ch=1 n=a4 v=88
92754 On ch=1 n=c#6 v=96
92790 On ch=1 n=c#6 v=0
92792 On ch=1 n=a4 v=0
92851 On ch=1 n=c#5 v=109
92867 Par ch=1 c=64 v=63
92868 On ch=1 n=e6 v=100
92873 Par ch=1 c=64 v=127
92882 On ch=1 n=c#5 v=0
92908 On ch=1 n=e6 v=0
92911 On ch=1 n=f#6 v=96
92957 On ch=1 n=f#6 v=0
92959 On ch=1 n=e5 v=100
92961 On ch=1 n=g6 v=79
92976 Par ch=1 c=64 v=63
92983 Par ch=1 c=64 v=0
93000 On ch=1 n=f#6 v=79
93008 On ch=1 n=e5 v=0
93017 On ch=1 n=f#5 v=96
93022 On ch=1 n=g6 v=0
93050 On ch=1 n=e6 v=96
93061 On ch=1 n=f#6 v=0
93069 On ch=1 n=f#5 v=0
93069 On ch=1 n=g5 v=93
93096 On ch=1 n=e6 v=0
93105 On ch=1 n=d6 v=87
93113 On ch=1 n=f#5 v=92
93120 On ch=1 n=g5 v=0
93146 On ch=1 n=f#5 v=0
93156 On ch=1 n=c#6 v=104
93156 On ch=1 n=e5 v=97
93158 On ch=1 n=d6 v=0
93204 On ch=1 n=d5 v=93
93206 On ch=1 n=e5 v=0
93206 On ch=1 n=b5 v=92
93208 On ch=1 n=c#6 v=0
93241 On ch=1 n=c#5 v=98
93244 On ch=1 n=d5 v=0
93258 On ch=1 n=a5 v=91
93266 On ch=1 n=b5 v=0
93297 On ch=1 n=c#5 v=0
93297 On ch=1 n=b4 v=80
93306 On ch=1 n=a5 v=0
93309 On ch=1 n=b5 v=98
93351 On ch=1 n=c#5 v=98
93353 On ch=1 n=b5 v=0
93358 On ch=1 n=b4 v=0
93359 On ch=1 n=g5 v=81
93394 On ch=1 n=g5 v=0
93395 On ch=1 n=a4 v=86
93404 On ch=1 n=c#5 v=0
93405 On ch=1 n=a5 v=91
93456 On ch=1 n=a4 v=0
93456 On ch=1 n=a5 v=0
93461 On ch=1 n=f#5 v=101
93469 Par ch=1 c=64 v=63
93471 Par ch=1 c=64 v=127
93471 On ch=1 n=d5 v=88
93490 On ch=1 n=d5 v=0
93506 On ch=1 n=f#5 v=0
93515 On ch=1 n=a5 v=63
93537 Par ch=1 c=64 v=63
93545 Par ch=1 c=64 v=0
93559 On ch=1 n=a5 v=0
93562 On ch=1 n=g#5 v=87
93614 On ch=1 n=a5 v=72
93621 On ch=1 n=g#5 v=0
93665 On ch=1 n=b5 v=86
93672 On ch=1 n=a5 v=0
93705 On ch=1 n=a5 v=90
93723 On ch=1 n=b5 v=0
93750 On ch=1 n=a5 v=0
93754 On ch=1 n=f#5 v=101
93758 On ch=1 n=d5 v=90
93758 On ch=1 n=d6 v=103
93759 Par ch=1 c=64 v=63
93760 Par ch=1 c=64 v=127
93785 On ch=1 n=d5 v=0
93786 On ch=1 n=f#5 v=0
93802 On ch=1 n=a5 v=82
93809 On ch=1 n=d6 v=0
93854 On ch=1 n=a5 v=0
93855 On ch=1 n=g#5 v=89
93891 Par ch=1 c=64 v=63
93895 Par ch=1 c=64 v=0
93903 On ch=1 n=a5 v=82
93908 On ch=1 n=g#5 v=0
93956 On ch=1 n=b5 v=73
93961 On ch=1 n=a5 v=0
94005 On ch=1 n=a5 v=76
94015 On ch=1 n=b5 v=0
94037 On ch=1 n=a5 v=0
94047 Par ch=1 c=64 v=63
94048 Par ch=1 c=64 v=127
94069 On ch=1 n=c#5 v=91
94079 On ch=1 n=e5 v=83
94084 On ch=1 n=c#5 v=0
94123 On ch=1 n=e5 v=0
94127 On ch=1 n=a5 v=72
94180 On ch=1 n=g#5 v=89
94189 On ch=1 n=a5 v=0
94231 On ch=1 n=g#5 v=0
94237 On ch=1 n=a5 v=70
94274 On ch=1 n=a5 v=0
94279 On ch=1 n=f#5 v=97
94283 Par ch=1 c=64 v=63
94286 Par ch=1 c=64 v=0
94293 On ch=1 n=d5 v=94
94320 On ch=1 n=d5 v=0
94321 On ch=1 n=f#5 v=0
94324 On ch=1 n=a5 v=76
94378 On ch=1 n=g5 v=84
94387 On ch=1 n=a5 v=0
94390 On ch=1 n=e5 v=76
94413 On ch=1 n=e5 v=0
94423 On ch=1 n=a5 v=68
94424 On ch=1 n=g5 v=0
94473 On ch=1 n=a5 v=0
94479 On ch=1 n=f#5 v=89
94489 On ch=1 n=d5 v=81
94511 On ch=1 n=d5 v=0
94521 On ch=1 n=f#5 v=0
94527 On ch=1 n=a5 v=86
94566 On ch=1 n=c#5 v=92
94573 On ch=1 n=a5 v=0
94582 On ch=1 n=e5 v=83
94603 On ch=1 n=c#5 v=0
94618 On ch=1 n=a5 v=78
94626 On ch=1 n=e5 v=0
94647 On ch=1 n=a5 v=0
94686 Par ch=1 c=64 v=63
94689 Par ch=1 c=64 v=127
94700 On ch=1 n=d5 v=76
94712 On ch=1 n=f#5 v=69
94765 On ch=1 n=a6 v=81
94777 On ch=1 n=d5 v=0
94793 On ch=1 n=f#5 v=0
94817 On ch=1 n=a6 v=0
94820 On ch=1 n=g#6 v=88
94859 On ch=1 n=a6 v=90
94865 On ch=1 n=g#6 v=0
94906 On ch=1 n=b6 v=93
94917 On ch=1 n=a6 v=0
94948 On ch=1 n=a6 v=101
94977 On ch=1 n=b6 v=0
95000 On ch=1 n=f#6 v=101
95002 On ch=1 n=d7 v=108
95006 On ch=1 n=d6 v=84
95011 On ch=1 n=a6 v=0
95033 Par ch=1 c=64 v=63
95038 Par ch=1 c=64 v=0
95056 On ch=1 n=a6 v=101
95066 On ch=1 n=d7 v=0
95076 Par ch=1 c=64 v=63
95085 Par ch=1 c=64 v=127
95107 On ch=1 n=g#6 v=100
95115 On ch=1 n=a6 v=0
95127 On ch=1 n=f#6 v=0
95144 On ch=1 n=d6 v=0
95153 On ch=1 n=a6 v=94
95169 On ch=1 n=g#6 v=0
95192 Par ch=1 c=64 v=63
95195 Par ch=1 c=64 v=0
95200 On ch=1 n=b6 v=91
95214 On ch=1 n=a6 v=0
95240 On ch=1 n=a6 v=89
95270 On ch=1 n=b6 v=0
95297 On ch=1 n=a6 v=0
95297 Par ch=1 c=64 v=63
95299 Par ch=1 c=64 v=127
95304 On ch=1 n=c#6 v=92
95314 On ch=1 n=e6 v=72
95333 On ch=1 n=c#6 v=0
95360 On ch=1 n=a6 v=87
95365 On ch=1 n=e6 v=0
95410 On ch=1 n=g#6 v=97
95422 On ch=1 n=a6 v=0
95461 On ch=1 n=a6 v=83
95464 On ch=1 n=g#6 v=0
95504 On ch=1 n=f#6 v=99
95505 Par ch=1 c=64 v=63
95507 On ch=1 n=a6 v=0
95509 Par ch=1 c=64 v=0
95511 On ch=1 n=d6 v=71
95534 On ch=1 n=d6 v=0
95535 On ch=1 n=a6 v=84
95545 On ch=1 n=f#6 v=0
95597 On ch=1 n=g6 v=96
95606 On ch=1 n=e6 v=70
95607 On ch=1 n=a6 v=0
95629 On ch=1 n=e6 v=0
95646 On ch=1 n=a6 v=84
95651 On ch=1 n=g6 v=0
95703 On ch=1 n=a6 v=0
95706 On ch=1 n=f#6 v=94
95707 On ch=1 n=d6 v=68
95732 On ch=1 n=d6 v=0
95748 On ch=1 n=a6 v=93
95753 On ch=1 n=f#6 v=0
95792 On ch=1 n=a6 v=0
95799 On ch=1 n=c#6 v=74
95801 On ch=1 n=e6 v=86
95832 On ch=1 n=c#6 v=0
95841 On ch=1 n=a6 v=90
95851 On ch=1 n=e6 v=0
95881 On ch=1 n=a6 v=0
95909 On ch=1 n=d6 v=80
95926 Par ch=1 c=64 v=63
95927 Par ch=1 c=64 v=127
95968 On ch=1 n=f#6 v=92
96013 On ch=1 n=f#6 v=0
96014 On ch=1 n=g6 v=88
96019 On ch=1 n=d6 v=0
96068 On ch=1 n=a6 v=100
96075 On ch=1 n=g6 v=0
96108 On ch=1 n=b6 v=92
96125 On ch=1 n=a6 v=0
96158 On ch=1 n=c#7 v=95
96178 On ch=1 n=b6 v=0
96208 On ch=1 n=d7 v=101
96218 On ch=1 n=c#7 v=0
96219 On ch=1 n=d5 v=94
96224 On ch=1 n=f#5 v=101
96257 On ch=1 n=c#7 v=78
96278 Par ch=1 c=64 v=63
96285 Par ch=1 c=64 v=0
96286 On ch=1 n=d7 v=0
96311 On ch=1 n=b6 v=86
96327 On ch=1 n=g5 v=99
96332 On ch=1 n=e5 v=94
96335 On ch=1 n=c#7 v=0
96339 Par ch=1 c=64 v=63
96342 On ch=1 n=d5 v=0
96349 On ch=1 n=f#5 v=0
96350 Par ch=1 c=64 v=127
96364 On ch=1 n=a6 v=98
96389 On ch=1 n=b6 v=0
96416 On ch=1 n=a6 v=0
96417 On ch=1 n=g6 v=84
96431 On ch=1 n=a5 v=97
96435 On ch=1 n=f#5 v=103
96457 On ch=1 n=g5 v=0
96458 On ch=1 n=f#6 v=106
96463 On ch=1 n=e5 v=0
96471 On ch=1 n=g6 v=0
96479 On ch=1 n=a5 v=0
96505 On ch=1 n=f#5 v=0
96507 On ch=1 n=f#6 v=0
96524 On ch=1 n=b5 v=109
96526 On ch=1 n=g5 v=103
96568 Par ch=1 c=64 v=63
96573 On ch=1 n=d#6 v=104
96576 Par ch=1 c=64 v=0
96620 On ch=1 n=d#6 v=0
96621 On ch=1 n=e6 v=97
96660 Par ch=1 c=64 v=63
96667 Par ch=1 c=64 v=127
96677 On ch=1 n=f#6 v=110
96691 On ch=1 n=e6 v=0
96716 On ch=1 n=g5 v=0
96723 On ch=1 n=g6 v=94
96734 On ch=1 n=f#6 v=0
96738 On ch=1 n=b5 v=0
96770 On ch=1 n=a6 v=91
96797 On ch=1 n=g6 v=0
96814 On ch=1 n=g5 v=102
96818 On ch=1 n=e5 v=98
96823 Par ch=1 c=64 v=63
96824 On ch=1 n=b6 v=100
96827 Par ch=1 c=64 v=0
96835 On ch=1 n=a6 v=0
96873 On ch=1 n=a6 v=93
96904 On ch=1 n=b6 v=0
96918 On ch=1 n=g6 v=100
96919 Par ch=1 c=64 v=63
96924 Par ch=1 c=64 v=127
96932 On ch=1 n=g5 v=0
96935 On ch=1 n=f#5 v=105
96942 On ch=1 n=a5 v=76
96943 On ch=1 n=a6 v=0
96955 On ch=1 n=e5 v=0
96966 On ch=1 n=f#6 v=110
96983 On ch=1 n=a5 v=0
96991 On ch=1 n=g6 v=0
97013 On ch=1 n=f#5 v=0
97017 On ch=1 n=e6 v=91
97022 On ch=1 n=f#6 v=0
97032 On ch=1 n=b5 v=91
97040 On ch=1 n=g5 v=71
97060 On ch=1 n=e6 v=0
97060 On ch=1 n=g5 v=0
97063 On ch=1 n=d6 v=109
97064 On ch=1 n=b5 v=0
97092 On ch=1 n=d6 v=0
97134 On ch=1 n=a4 v=111
97140 Par ch=1 c=64 v=63
97146 Par ch=1 c=64 v=0
97164 Par ch=1 c=64 v=127
97228 On ch=1 n=g#5 v=101
97277 Par ch=1 c=64 v=63
97283 Par ch=1 c=64 v=0
97294 Par ch=1 c=64 v=63
97305 Par ch=1 c=64 v=127
97306 On ch=1 n=f#5 v=91
97308 On ch=1 n=b5 v=94
97311 On ch=1 n=d5 v=79
97313 On ch=1 n=g#5 v=0
97343 On ch=1 n=f#5 v=0
97352 On ch=1 n=d5 v=0
97354 On ch=1 n=b5 v=0
97365 On ch=1 n=a5 v=96
97413 On ch=1 n=d5 v=70
97418 On ch=1 n=a5 v=0
97419 On ch=1 n=f#5 v=69
97423 On ch=1 n=c#6 v=106
97441 On ch=1 n=f#5 v=0
97458 On ch=1 n=d5 v=0
97474 On ch=1 n=b5 v=103
97475 On ch=1 n=c#6 v=0
97510 On ch=1 n=a4 v=0
97528 On ch=1 n=d6 v=98
97530 On ch=1 n=b5 v=0
97535 On ch=1 n=a4 v=92
97577 On ch=1 n=c#6 v=112
97589 On ch=1 n=d6 v=0
97632 On ch=1 n=e6 v=91
97635 On ch=1 n=f#5 v=88
97636 On ch=1 n=d5 v=76
97638 On ch=1 n=c#6 v=0
97669 On ch=1 n=f#5 v=0
97676 On ch=1 n=e6 v=0
97678 On ch=1 n=d5 v=0
97680 On ch=1 n=d6 v=96
97722 On ch=1 n=d5 v=63
97722 On ch=1 n=f#5 v=87
97732 On ch=1 n=f#6 v=104
97738 On ch=1 n=d6 v=0
97754 On ch=1 n=a4 v=0
97756 On ch=1 n=f#5 v=0
97765 On ch=1 n=d5 v=0
97776 On ch=1 n=e6 v=103
97783 On ch=1 n=f#6 v=0
97816 On ch=1 n=a4 v=111
97832 On ch=1 n=g6 v=94
97838 On ch=1 n=e6 v=0
97839 Par ch=1 c=64 v=63
97844 Par ch=1 c=64 v=0
97866 Par ch=1 c=64 v=63
97877 Par ch=1 c=64 v=127
97879 On ch=1 n=f#6 v=108
97891 On ch=1 n=g6 v=0
97923 On ch=1 n=d5 v=84
97924 On ch=1 n=f#5 v=88
97934 On ch=1 n=a6 v=92
97940 On ch=1 n=f#6 v=0
97954 On ch=1 n=f#5 v=0
97964 On ch=1 n=d5 v=0
97978 On ch=1 n=a6 v=0
97983 On ch=1 n=g6 v=100
98017 On ch=1 n=f#5 v=91
98026 On ch=1 n=d5 v=72
98031 On ch=1 n=b6 v=102
98047 On ch=1 n=g6 v=0
98061 On ch=1 n=a4 v=0
98063 On ch=1 n=f#5 v=0
98065 On ch=1 n=d5 v=0
98075 On ch=1 n=a6 v=104
98086 On ch=1 n=b6 v=0
98112 On ch=1 n=a4 v=112
98122 On ch=1 n=c#7 v=115
98130 On ch=1 n=a6 v=0
98166 On ch=1 n=b6 v=100
98182 On ch=1 n=c#7 v=0
98213 On ch=1 n=d7 v=107
98216 On ch=1 n=f#5 v=103
98219 On ch=1 n=d5 v=76
98226 On ch=1 n=b6 v=0
98256 On ch=1 n=f#5 v=0
98270 On ch=1 n=d5 v=0
98271 On ch=1 n=c#7 v=112
98286 On ch=1 n=d7 v=0
98300 On ch=1 n=f#5 v=90
98307 On ch=1 n=d5 v=57
98325 On ch=1 n=a4 v=0
98327 On ch=1 n=c#7 v=0
98330 On ch=1 n=e7 v=112
98346 On ch=1 n=f#5 v=0
98358 On ch=1 n=d5 v=0
98377 On ch=1 n=d7 v=112
98410 On ch=1 n=e7 v=0
98456 On ch=1 n=g#4 v=92
98458 On ch=1 n=b4 v=99
98459 Par ch=1 c=64 v=63
98460 On ch=1 n=d5 v=111
98461 On ch=1 n=d7 v=0
98461 On ch=1 n=f5 v=117
98462 Par ch=1 c=64 v=0
98463 On ch=1 n=f7 v=125
98524 Par ch=1 c=64 v=63
98526 Par ch=1 c=64 v=127
98610 On ch=1 n=f7 v=0
98769 On ch=1 n=b6 v=102
98832 On ch=1 n=c#7 v=108
98861 On ch=1 n=b6 v=0
98884 On ch=1 n=d7 v=84
98894 On ch=1 n=c#7 v=0
98921 On ch=1 n=d7 v=0
98922 On ch=1 n=g#6 v=107
98971 On ch=1 n=b6 v=99
98972 On ch=1 n=g#6 v=0
99015 On ch=1 n=d6 v=85
99023 On ch=1 n=b6 v=0
99045 On ch=1 n=b4 v=0
99049 On ch=1 n=g#4 v=0
99056 On ch=1 n=d5 v=0
99057 On ch=1 n=d6 v=0
99067 On ch=1 n=f6 v=103
99073 On ch=1 n=f5 v=0
99117 On ch=1 n=f6 v=0
99120 On ch=1 n=b5 v=103
99161 On ch=1 n=b5 v=0
99169 Par ch=1 c=64 v=63
99171 On ch=1 n=d6 v=116
99177 Par ch=1 c=64 v=0
99405 On ch=1 n=f#5 v=98
99406 On ch=1 n=a4 v=86
99440 Par ch=1 c=64 v=63
99443 Par ch=1 c=64 v=127
99516 On ch=1 n=f#5 v=0
99545 On ch=1 n=g5 v=102
99550 On ch=1 n=a#4 v=93
99562 On ch=1 n=a4 v=0
99581 Par ch=1 c=64 v=63
99588 Par ch=1 c=64 v=0
99614 Par ch=1 c=64 v=63
99620 Par ch=1 c=64 v=127
99685 On ch=1 n=g5 v=0
99727 On ch=1 n=a#4 v=0
99745 On ch=1 n=d6 v=0
99760 On ch=1 n=b4 v=76
99763 On ch=1 n=g#5 v=93
99807 On ch=1 n=b4 v=0
99808 On ch=1 n=g#5 v=0
99922 On ch=1 n=a5 v=66
99923 On ch=1 n=f#6 v=93
99923 On ch=1 n=d6 v=77
99926 On ch=1 n=a4 v=47
99964 Par ch=1 c=64 v=63
99968 Par ch=1 c=64 v=0
100019 Par ch=1 c=64 v=63
100026 Par ch=1 c=64 v=127
100106 On ch=1 n=d6 v=0
100124 On ch=1 n=a5 v=0
100127 On ch=1 n=f#6 v=0
100277 On ch=1 n=f#6 v=66
100293 On ch=1 n=c#6 v=70
100301 On ch=1 n=e6 v=84
100303 On ch=1 n=f#6 v=0
100310 On ch=1 n=g5 v=54
100341 Par ch=1 c=64 v=63
100346 Par ch=1 c=64 v=0
100368 On ch=1 n=e6 v=0
100424 On ch=1 n=d6 v=67
100471 On ch=1 n=a4 v=0
100488 On ch=1 n=d6 v=0
100543 On ch=1 n=e6 v=64
100601 On ch=1 n=c#6 v=0
100610 On ch=1 n=e6 v=0
100675 On ch=1 n=d5 v=51
100678 On ch=1 n=d6 v=72
100694 On ch=1 n=g5 v=0
100708 Par ch=1 c=64 v=63
100710 Par ch=1 c=64 v=127
100789 On ch=1 n=d6 v=0
100823 On ch=1 n=f#5 v=69
100932 On ch=1 n=g#6 v=97
100939 On ch=1 n=a5 v=55
100940 On ch=1 n=f#5 v=0
100942 On ch=1 n=d5 v=0
100993 On ch=1 n=a6 v=72
100995 On ch=1 n=g#6 v=0
101032 On ch=1 n=b6 v=86
101037 On ch=1 n=a6 v=0
101038 On ch=1 n=d5 v=75
101040 On ch=1 n=a5 v=0
101063 Par ch=1 c=64 v=63
101072 Par ch=1 c=64 v=0
101086 On ch=1 n=a6 v=84
101098 On ch=1 n=b6 v=0
101123 Par ch=1 c=64 v=63
101135 Par ch=1 c=64 v=127
101136 On ch=1 n=g6 v=84
101145 On ch=1 n=a6 v=0
101147 On ch=1 n=f#5 v=65
101184 On ch=1 n=f#6 v=97
101196 On ch=1 n=g6 v=0
101205 On ch=1 n=d5 v=0
101226 On ch=1 n=f#5 v=0
101227 On ch=1 n=f#6 v=0
101229 On ch=1 n=a5 v=62
101234 On ch=1 n=e6 v=63
101278 On ch=1 n=d6 v=90
101287 Par ch=1 c=64 v=63
101288 On ch=1 n=e6 v=0
101299 Par ch=1 c=64 v=0
101318 On ch=1 n=a5 v=0
101328 On ch=1 n=d6 v=0
101336 On ch=1 n=c#6 v=88
101347 On ch=1 n=a4 v=65
101377 Par ch=1 c=64 v=63
101378 On ch=1 n=c#6 v=0
101383 On ch=1 n=d6 v=78
101389 Par ch=1 c=64 v=127
101436 On ch=1 n=d#6 v=100
101439 On ch=1 n=d6 v=0
101448 On ch=1 n=c#5 v=76
101477 On ch=1 n=d#6 v=0
101493 On ch=1 n=e6 v=83
101541 On ch=1 n=f6 v=92
101548 On ch=1 n=e6 v=0
101551 Par ch=1 c=64 v=63
101554 On ch=1 n=e5 v=60
101559 On ch=1 n=a4 v=0
101570 Par ch=1 c=64 v=0
101573 On ch=1 n=c#5 v=0
101593 On ch=1 n=f#6 v=100
101603 On ch=1 n=f6 v=0
101633 Par ch=1 c=64 v=63
101644 On ch=1 n=f#6 v=0
101646 On ch=1 n=g6 v=78
101646 Par ch=1 c=64 v=127
101651 On ch=1 n=a4 v=62
101655 On ch=1 n=e5 v=0
101693 On ch=1 n=g6 v=0
101695 On ch=1 n=g#6 v=92
101746 On ch=1 n=g#6 v=0
101749 On ch=1 n=a6 v=79
101753 On ch=1 n=c#5 v=72
101769 Par ch=1 c=64 v=63
101790 Par ch=1 c=64 v=0
101802 On ch=1 n=a#6 v=92
101809 On ch=1 n=a6 v=0
101835 On ch=1 n=a4 v=0
101850 On ch=1 n=c#5 v=0
101856 On ch=1 n=e5 v=54
101860 On ch=1 n=b6 v=71
101862 On ch=1 n=a#6 v=0
101902 On ch=1 n=g6 v=77
101911 On ch=1 n=b6 v=0
101963 On ch=1 n=g6 v=0
101963 On ch=1 n=f#6 v=87
101964 On ch=1 n=e5 v=0
101964 On ch=1 n=d5 v=65
102009 Par ch=1 c=64 v=63
102011 Par ch=1 c=64 v=127
102047 On ch=1 n=f#6 v=0
102073 On ch=1 n=f#5 v=76
102090 On ch=1 n=d5 v=0
102136 Par ch=1 c=64 v=63
102142 Par ch=1 c=64 v=0
102182 On ch=1 n=f#5 v=0
102188 On ch=1 n=g#6 v=90
102192 On ch=1 n=a5 v=48
102246 On ch=1 n=a6 v=74
102256 On ch=1 n=g#6 v=0
102284 On ch=1 n=d5 v=61
102289 On ch=1 n=a5 v=0
102290 On ch=1 n=b6 v=80
102294 On ch=1 n=a6 v=0
102311 Par ch=1 c=64 v=63
102313 Par ch=1 c=64 v=127
102342 On ch=1 n=a6 v=81
102348 On ch=1 n=b6 v=0
102388 On ch=1 n=g6 v=84
102393 On ch=1 n=f#5 v=68
102397 On ch=1 n=a6 v=0
102407 On ch=1 n=d5 v=0
102434 On ch=1 n=f#6 v=95
102445 On ch=1 n=g6 v=0
102468 On ch=1 n=f#5 v=0
102473 On ch=1 n=a5 v=58
102475 On ch=1 n=f#6 v=0
102484 On ch=1 n=e6 v=58
102494 Par ch=1 c=64 v=63
102500 Par ch=1 c=64 v=0
102528 On ch=1 n=d6 v=87
102537 On ch=1 n=e6 v=0
102569 On ch=1 n=a4 v=68
102570 On ch=1 n=a5 v=0
102582 On ch=1 n=d6 v=0
102584 Par ch=1 c=64 v=63
102586 Par ch=1 c=64 v=127
102587 On ch=1 n=c#6 v=85
102627 On ch=1 n=d6 v=76
102628 On ch=1 n=c#6 v=0
102677 Par ch=1 c=64 v=63
102681 On ch=1 n=d#6 v=100
102682 On ch=1 n=d6 v=0
102691 On ch=1 n=e5 v=63
102697 On ch=1 n=a4 v=0
102699 Par ch=1 c=64 v=127
102722 On ch=1 n=d#6 v=0
102736 On ch=1 n=e6 v=82
102782 On ch=1 n=f6 v=84
102789 On ch=1 n=g5 v=50
102791 On ch=1 n=e6 v=0
102792 On ch=1 n=e5 v=0
102794 Par ch=1 c=64 v=63
102820 Par ch=1 c=64 v=127
102830 On ch=1 n=f#6 v=94
102839 On ch=1 n=f6 v=0
102880 On ch=1 n=g6 v=80
102881 On ch=1 n=f#6 v=0
102884 On ch=1 n=g5 v=0
102884 On ch=1 n=a4 v=66
102895 Par ch=1 c=64 v=63
102914 Par ch=1 c=64 v=127
102929 On ch=1 n=g6 v=0
102935 On ch=1 n=a6 v=84
102985 On ch=1 n=e5 v=59
102991 On ch=1 n=a4 v=0
102992 On ch=1 n=b6 v=91
102995 On ch=1 n=a6 v=0
103015 Par ch=1 c=64 v=63
103034 On ch=1 n=g6 v=84
103036 Par ch=1 c=64 v=127
103043 On ch=1 n=b6 v=0
103078 On ch=1 n=e5 v=0
103083 On ch=1 n=g5 v=56
103092 On ch=1 n=g6 v=0
103092 On ch=1 n=e6 v=88
103142 On ch=1 n=c#6 v=95
103145 On ch=1 n=e6 v=0
103180 On ch=1 n=c#6 v=0
103181 On ch=1 n=g5 v=0
103210 On ch=1 n=d6 v=86
103217 Par ch=1 c=64 v=63
103218 On ch=1 n=f#5 v=68
103223 On ch=1 n=d5 v=54
103226 Par ch=1 c=64 v=0
103248 Par ch=1 c=64 v=63
103258 Par ch=1 c=64 v=127
103327 On ch=1 n=d6 v=0
103329 On ch=1 n=a5 v=81
103396 On ch=1 n=a5 v=0
103434 On ch=1 n=f#5 v=0
103438 On ch=1 n=f#6 v=91
103439 On ch=1 n=a5 v=60
103487 On ch=1 n=d5 v=0
103527 On ch=1 n=a5 v=0
103564 On ch=1 n=f#5 v=76
103568 On ch=1 n=d5 v=70
103569 On ch=1 n=d6 v=68
103573 On ch=1 n=f#6 v=0
103583 Par ch=1 c=64 v=63
103593 Par ch=1 c=64 v=0
103618 Par ch=1 c=64 v=63
103633 Par ch=1 c=64 v=127
103690 On ch=1 n=a5 v=55
103698 On ch=1 n=d6 v=0
103759 On ch=1 n=a5 v=0
103802 On ch=1 n=f#5 v=0
103805 On ch=1 n=a5 v=43
103806 On ch=1 n=d5 v=0
103814 On ch=1 n=f#6 v=69
103892 Par ch=1 c=64 v=63
103921 Par ch=1 c=64 v=0
103981 On ch=1 n=d6 v=55
103983 On ch=1 n=f#5 v=43
103986 On ch=1 n=d5 v=38
103988 On ch=1 n=f#6 v=0
104019 Par ch=1 c=64 v=63
104028 Par ch=1 c=64 v=127
104081 On ch=1 n=a5 v=0
104099 On ch=1 n=f#5 v=0
104099 On ch=1 n=d5 v=0
104126 On ch=1 n=d6 v=0
104413 Par ch=1 c=64 v=63
104428 Par ch=1 c=64 v=0
105205 Par ch=1 c=67 v=127
105436 Par ch=1 c=67 v=0
105436 Meta TrkEnd
TrkEnd
MTrk
0 TimeSig 6/8 24 8
0 Meta TrkName "                                    "
0 Meta TrkEnd
TrkEnd
MTrk
0 TimeSig 6/8 24 8
0 Meta TrkName "                                    "
0 Meta TrkEnd
TrkEnd
MTrk
0 TimeSig 6/8 24 8
0 Meta TrkName "                                    "
0 Meta TrkEnd
TrkEnd
MTrk
0 TimeSig 6/8 24 8
0 Meta TrkName "                                    "
0 Meta TrkEnd
TrkEnd
MTrk
0 TimeSig 6/8 24 8
0 Meta TrkName "                                    "
0 Meta TrkEnd
TrkEnd
MTrk
0 TimeSig 6/8 24 8
0 Meta TrkName "                                    "
0 Meta TrkEnd
TrkEnd
MTrk
0 TimeSig 6/8 24 8
0 Meta TrkName "                                    "
0 Meta TrkEnd
TrkEnd
MTrk
0 TimeSig 6/8 24 8
0 Meta TrkName "                                    "
0 Meta TrkEnd
TrkEnd
MTrk
0 TimeSig 6/8 24 8
0 Meta TrkName "                                    "
0 Meta TrkEnd
TrkEnd
MTrk
0 TimeSig 6/8 24 8
0 Meta TrkName "                                    "
0 Meta TrkEnd
TrkEnd
MTrk
0 TimeSig 6/8 24 8
0 Meta TrkName "                                    "
0 Meta TrkEnd
TrkEnd
MTrk
0 TimeSig 6/8 24 8
0 Meta TrkName "                                    "
0 Meta TrkEnd
TrkEnd
MTrk
0 TimeSig 6/8 24 8
0 Meta TrkName "                                    "
0 Meta TrkEnd
TrkEnd
MTrk
0 TimeSig 6/8 24 8
0 Meta TrkName "                                    "
0 Meta TrkEnd
TrkEnd
MTrk
0 TimeSig 6/8 24 8
0 Meta TrkName "                                    "
0 Meta TrkEnd
TrkEnd
MTrk
0 TimeSig 6/8 24 8
0 Meta TrkName "                                    "
0 Meta TrkEnd
TrkEnd
MTrk
0 TimeSig 6/8 24 8
0 Meta TrkName "                                    "
0 Meta TrkEnd
TrkEnd
