MFile 1 7 240
MTrk
0 TimeSig 4/4 24 8
0 Tempo 500000
0 Meta Marker "Chopin: Mazurka, Op. 6 No. 1"
0 Meta TrkEnd
TrkEnd
MTrk
0 Meta TrkName "Chopin: Op. 6 No. 1"
0 PrCh ch=1 p=0
0 Par ch=1 c=7 v=127
107 Par ch=1 c=64 v=0
107 Par ch=1 c=64 v=0
135 On ch=1 n=f#5 v=63
166 Par ch=1 c=64 v=127
166 Par ch=1 c=64 v=127
355 On ch=1 n=c#3 v=61
371 Par ch=1 c=64 v=0
371 Par ch=1 c=64 v=0
403 Par ch=1 c=64 v=127
403 Par ch=1 c=64 v=127
501 On ch=1 n=g#5 v=52
519 Off ch=1 n=f#5 v=64
536 On ch=1 n=f#5 v=62
557 Off ch=1 n=g#5 v=64
564 On ch=1 n=c#4 v=55
566 Off ch=1 n=c#3 v=64
576 On ch=1 n=f5 v=63
586 On ch=1 n=b4 v=42
588 Off ch=1 n=f#5 v=64
594 Par ch=1 c=64 v=0
594 Par ch=1 c=64 v=0
615 Par ch=1 c=64 v=127
615 Par ch=1 c=64 v=127
645 Off ch=1 n=c#4 v=64
655 Off ch=1 n=b4 v=64
669 Off ch=1 n=f5 v=64
669 On ch=1 n=f#5 v=70
768 Par ch=1 c=64 v=0
768 Par ch=1 c=64 v=0
773 On ch=1 n=g#5 v=55
775 On ch=1 n=c#4 v=53
783 On ch=1 n=b4 v=48
786 Off ch=1 n=f#5 v=64
786 On ch=1 n=f4 v=53
802 Par ch=1 c=64 v=127
802 Par ch=1 c=64 v=127
814 Off ch=1 n=f4 v=64
814 Off ch=1 n=b4 v=64
828 Off ch=1 n=c#4 v=64
914 On ch=1 n=d5 v=58
933 Off ch=1 n=g#5 v=64
972 On ch=1 n=c#5 v=66
972 Par ch=1 c=64 v=0
972 Par ch=1 c=64 v=0
979 On ch=1 n=f#3 v=50
996 Off ch=1 n=d5 v=64
1028 Par ch=1 c=64 v=127
1028 Par ch=1 c=64 v=127
1125 On ch=1 n=f#5 v=55
1145 Off ch=1 n=c#5 v=64
1161 On ch=1 n=c#5 v=55
1162 On ch=1 n=a5 v=66
1168 On ch=1 n=f#4 v=57
1172 Par ch=1 c=64 v=0
1172 Par ch=1 c=64 v=0
1190 Off ch=1 n=f#3 v=64
1202 Off ch=1 n=f#5 v=64
1205 Off ch=1 n=c#5 v=64
1212 Off ch=1 n=f#4 v=64
1230 Par ch=1 c=64 v=127
1230 Par ch=1 c=64 v=127
1261 Par ch=1 c=64 v=127
1261 Par ch=1 c=64 v=127
1361 Off ch=1 n=a5 v=64
1366 Par ch=1 c=64 v=0
1366 Par ch=1 c=64 v=0
1381 On ch=1 n=f#5 v=61
1381 On ch=1 n=f#4 v=53
1384 On ch=1 n=a5 v=61
1384 On ch=1 n=c#5 v=23
1422 Off ch=1 n=f#4 v=64
1425 Off ch=1 n=c#5 v=64
1430 Par ch=1 c=64 v=127
1430 Par ch=1 c=64 v=127
1603 On ch=1 n=e3 v=58
1603 Par ch=1 c=64 v=0
1603 Par ch=1 c=64 v=0
1630 Par ch=1 c=64 v=127
1630 Par ch=1 c=64 v=127
1722 On ch=1 n=b5 v=55
1738 Off ch=1 n=a5 v=64
1752 Off ch=1 n=f#5 v=64
1764 On ch=1 n=a5 v=55
1783 Off ch=1 n=b5 v=64
1797 On ch=1 n=g#5 v=61
1797 On ch=1 n=e5 v=50
1797 On ch=1 n=e4 v=48
1804 On ch=1 n=d5 v=52
1814 Off ch=1 n=e3 v=64
1815 Off ch=1 n=a5 v=64
1816 Par ch=1 c=64 v=0
1816 Par ch=1 c=64 v=0
1849 Off ch=1 n=e4 v=64
1854 Off ch=1 n=d5 v=64
1855 Par ch=1 c=64 v=127
1855 Par ch=1 c=64 v=127
1901 On ch=1 n=a5 v=58
1911 Off ch=1 n=e5 v=64
1921 Off ch=1 n=g#5 v=64
1988 On ch=1 n=d5 v=61
1992 Par ch=1 c=64 v=0
1992 Par ch=1 c=64 v=0
1998 On ch=1 n=b5 v=61
1998 On ch=1 n=e4 v=58
2003 On ch=1 n=b4 v=55
2014 Off ch=1 n=a5 v=64
2026 Par ch=1 c=64 v=127
2026 Par ch=1 c=64 v=127
2036 Off ch=1 n=b4 v=64
2046 Off ch=1 n=e4 v=64
2139 On ch=1 n=f#5 v=44
2147 Off ch=1 n=b5 v=64
2183 On ch=1 n=a3 v=61
2186 On ch=1 n=e5 v=53
2194 Par ch=1 c=64 v=0
2194 Par ch=1 c=64 v=0
2219 Off ch=1 n=f#5 v=64
2242 Par ch=1 c=64 v=127
2242 Par ch=1 c=64 v=127
2342 On ch=1 n=a5 v=37
2361 Off ch=1 n=e5 v=64
2366 Off ch=1 n=d5 v=64
2380 On ch=1 n=c#6 v=74
2383 On ch=1 n=c#5 v=37
2383 On ch=1 n=a4 v=58
2383 Par ch=1 c=64 v=0
2383 Par ch=1 c=64 v=0
2402 Off ch=1 n=a5 v=64
2410 Off ch=1 n=a3 v=64
2412 Par ch=1 c=64 v=127
2412 Par ch=1 c=64 v=127
2427 Off ch=1 n=a4 v=64
2427 Off ch=1 n=c#5 v=64
2567 Off ch=1 n=c#6 v=64
2583 On ch=1 n=c#6 v=70
2587 On ch=1 n=e5 v=58
2590 On ch=1 n=a4 v=57
2606 Par ch=1 c=64 v=0
2606 Par ch=1 c=64 v=0
2636 Par ch=1 c=64 v=127
2636 Par ch=1 c=64 v=127
2675 Off ch=1 n=a4 v=64
2675 Off ch=1 n=e5 v=64
2794 On ch=1 n=a4 v=54
2799 On ch=1 n=d#5 v=22
2801 On ch=1 n=f#5 v=52
2819 Par ch=1 c=64 v=0
2819 Par ch=1 c=64 v=0
2842 Par ch=1 c=64 v=127
2842 Par ch=1 c=64 v=127
2919 On ch=1 n=d#6 v=46
2922 Off ch=1 n=c#6 v=64
2962 On ch=1 n=c#6 v=54
2976 Off ch=1 n=d#6 v=64
3001 On ch=1 n=g#4 v=55
3003 On ch=1 n=c6 v=57
3013 Off ch=1 n=a4 v=64
3017 Par ch=1 c=64 v=0
3017 Par ch=1 c=64 v=0
3020 Off ch=1 n=c#6 v=64
3039 Par ch=1 c=64 v=127
3039 Par ch=1 c=64 v=127
3139 On ch=1 n=g#5 v=54
3142 Off ch=1 n=c6 v=64
3204 On ch=1 n=b5 v=55
3204 On ch=1 n=f5 v=45
3207 On ch=1 n=c#5 v=52
3213 Off ch=1 n=d#5 v=64
3214 Off ch=1 n=g#5 v=64
3215 Off ch=1 n=f#5 v=64
3217 Par ch=1 c=64 v=0
3217 Par ch=1 c=64 v=0
3250 Par ch=1 c=64 v=127
3250 Par ch=1 c=64 v=127
3395 Off ch=1 n=c#5 v=64
3406 On ch=1 n=g4 v=27
3411 On ch=1 n=e5 v=32
3415 Off ch=1 n=f5 v=64
3417 On ch=1 n=c#5 v=26
3420 Off ch=1 n=g#4 v=64
3424 Par ch=1 c=64 v=0
3424 Par ch=1 c=64 v=0
3447 Par ch=1 c=64 v=127
3447 Par ch=1 c=64 v=127
3532 On ch=1 n=c#6 v=45
3550 Off ch=1 n=b5 v=64
3581 On ch=1 n=b5 v=48
3597 Off ch=1 n=c#6 v=64
3604 On ch=1 n=f#4 v=44
3614 Off ch=1 n=g4 v=64
3618 On ch=1 n=a#5 v=54
3625 Par ch=1 c=64 v=0
3625 Par ch=1 c=64 v=0
3631 Off ch=1 n=b5 v=64
3660 Par ch=1 c=64 v=127
3660 Par ch=1 c=64 v=127
3735 Off ch=1 n=a#5 v=64
3738 On ch=1 n=f#5 v=50
3803 On ch=1 n=d#5 v=40
3804 On ch=1 n=a5 v=55
3807 On ch=1 n=c5 v=39
3811 Off ch=1 n=e5 v=64
3817 Off ch=1 n=f#5 v=64
3817 Off ch=1 n=c#5 v=64
3827 Par ch=1 c=64 v=0
3827 Par ch=1 c=64 v=0
3850 Par ch=1 c=64 v=127
3850 Par ch=1 c=64 v=127
4013 On ch=1 n=f4 v=39
4016 On ch=1 n=d5 v=41
4016 On ch=1 n=b4 v=42
4022 Off ch=1 n=f#4 v=64
4024 Off ch=1 n=d#5 v=64
4028 Off ch=1 n=c5 v=64
4037 Par ch=1 c=64 v=0
4037 Par ch=1 c=64 v=0
4049 Par ch=1 c=64 v=127
4049 Par ch=1 c=64 v=127
4154 On ch=1 n=b5 v=39
4164 Off ch=1 n=a5 v=64
4190 On ch=1 n=a5 v=39
4213 Off ch=1 n=b5 v=64
4214 On ch=1 n=e4 v=39
4220 Off ch=1 n=f4 v=64
4222 On ch=1 n=g#5 v=37
4243 Par ch=1 c=64 v=0
4243 Par ch=1 c=64 v=0
4252 Off ch=1 n=a5 v=64
4266 Par ch=1 c=64 v=127
4266 Par ch=1 c=64 v=127
4356 On ch=1 n=e5 v=48
4357 Off ch=1 n=g#5 v=64
4419 On ch=1 n=g5 v=57
4425 On ch=1 n=c#5 v=39
4425 On ch=1 n=a#4 v=45
4435 Off ch=1 n=b4 v=64
4435 Off ch=1 n=d5 v=64
4440 Par ch=1 c=64 v=0
4440 Par ch=1 c=64 v=0
4444 Off ch=1 n=e5 v=64
4464 Par ch=1 c=64 v=127
4464 Par ch=1 c=64 v=127
4630 Off ch=1 n=c#5 v=64
4632 On ch=1 n=c#5 v=36
4632 On ch=1 n=d#4 v=36
4636 On ch=1 n=a4 v=24
4645 Off ch=1 n=a#4 v=64
4646 Par ch=1 c=64 v=0
4646 Par ch=1 c=64 v=0
4651 Off ch=1 n=e4 v=64
4662 Par ch=1 c=64 v=127
4662 Par ch=1 c=64 v=127
4772 On ch=1 n=a5 v=37
4790 Off ch=1 n=g5 v=64
4810 On ch=1 n=g5 v=46
4828 Off ch=1 n=a5 v=64
4840 On ch=1 n=d4 v=39
4845 Off ch=1 n=d#4 v=64
4848 Par ch=1 c=64 v=0
4848 Par ch=1 c=64 v=0
4854 On ch=1 n=f#5 v=48
4872 Off ch=1 n=g5 v=64
4887 Par ch=1 c=64 v=127
4887 Par ch=1 c=64 v=127
4969 On ch=1 n=d5 v=42
4978 Off ch=1 n=f#5 v=64
5003 Off ch=1 n=c#5 v=64
5087 On ch=1 n=f#5 v=52
5097 On ch=1 n=g#4 v=40
5100 On ch=1 n=b4 v=37
5100 Par ch=1 c=64 v=0
5100 Par ch=1 c=64 v=0
5114 Off ch=1 n=d5 v=64
5115 Off ch=1 n=a4 v=64
5125 Par ch=1 c=64 v=127
5125 Par ch=1 c=64 v=127
5334 Off ch=1 n=g#4 v=64
5337 Off ch=1 n=b4 v=64
5340 Par ch=1 c=64 v=0
5340 Par ch=1 c=64 v=0
5348 On ch=1 n=c#4 v=59
5348 On ch=1 n=c#3 v=61
5374 Off ch=1 n=d4 v=64
5381 Par ch=1 c=64 v=127
5381 Par ch=1 c=64 v=127
5517 Off ch=1 n=f#5 v=64
5527 On ch=1 n=g#5 v=44
5559 Off ch=1 n=c#3 v=64
5559 Off ch=1 n=c#4 v=64
5564 On ch=1 n=f#5 v=70
5584 On ch=1 n=c#4 v=42
5588 Off ch=1 n=g#5 v=64
5590 On ch=1 n=g#4 v=45
5596 On ch=1 n=f5 v=61
5596 On ch=1 n=b4 v=48
5612 Par ch=1 c=64 v=0
5612 Par ch=1 c=64 v=0
5616 Off ch=1 n=f#5 v=64
5635 Par ch=1 c=64 v=127
5635 Par ch=1 c=64 v=127
5666 Off ch=1 n=c#4 v=64
5672 Off ch=1 n=b4 v=64
5681 Off ch=1 n=g#4 v=64
5702 On ch=1 n=f#5 v=72
5704 Off ch=1 n=f5 v=64
5798 Par ch=1 c=64 v=0
5798 Par ch=1 c=64 v=0
5807 On ch=1 n=g#5 v=66
5807 On ch=1 n=c#4 v=55
5810 On ch=1 n=b4 v=61
5817 On ch=1 n=f4 v=55
5822 Off ch=1 n=f#5 v=64
5841 Par ch=1 c=64 v=127
5841 Par ch=1 c=64 v=127
5852 Off ch=1 n=f4 v=64
5852 Off ch=1 n=b4 v=64
5862 Off ch=1 n=c#4 v=64
5961 On ch=1 n=d5 v=52
5970 Off ch=1 n=g#5 v=64
5998 On ch=1 n=f#3 v=59
6000 Par ch=1 c=64 v=0
6000 Par ch=1 c=64 v=0
6010 On ch=1 n=c#5 v=65
6038 Off ch=1 n=d5 v=64
6050 Par ch=1 c=64 v=127
6050 Par ch=1 c=64 v=127
6162 On ch=1 n=f#5 v=54
6180 Off ch=1 n=c#5 v=64
6202 On ch=1 n=f#4 v=66
6203 Par ch=1 c=64 v=0
6203 Par ch=1 c=64 v=0
6209 Off ch=1 n=f#3 v=64
6210 On ch=1 n=a5 v=65
6214 On ch=1 n=c#5 v=55
6241 Off ch=1 n=f#5 v=64
6255 Off ch=1 n=f#4 v=64
6258 Off ch=1 n=c#5 v=64
6358 Par ch=1 c=64 v=127
6358 Par ch=1 c=64 v=127
6409 Off ch=1 n=a5 v=64
6426 On ch=1 n=f#4 v=61
6430 On ch=1 n=f#5 v=72
6433 On ch=1 n=a5 v=70
6433 On ch=1 n=c#5 v=55
6454 Par ch=1 c=64 v=127
6454 Par ch=1 c=64 v=127
6462 Off ch=1 n=f#4 v=64
6468 Off ch=1 n=c#5 v=64
6642 On ch=1 n=e3 v=65
6652 Par ch=1 c=64 v=0
6652 Par ch=1 c=64 v=0
6684 Par ch=1 c=64 v=127
6684 Par ch=1 c=64 v=127
6762 On ch=1 n=b5 v=48
6785 Off ch=1 n=a5 v=64
6791 Off ch=1 n=f#5 v=64
6802 On ch=1 n=a5 v=57
6812 Off ch=1 n=b5 v=64
6835 On ch=1 n=g#5 v=66
6838 On ch=1 n=e4 v=52
6843 On ch=1 n=b4 v=50
6848 On ch=1 n=e5 v=28
6850 Off ch=1 n=e3 v=64
6854 Off ch=1 n=a5 v=64
6858 Par ch=1 c=64 v=0
6858 Par ch=1 c=64 v=0
6890 Off ch=1 n=b4 v=64
6890 Par ch=1 c=64 v=127
6890 Par ch=1 c=64 v=127
6896 Off ch=1 n=e4 v=64
6929 Off ch=1 n=e5 v=64
6939 On ch=1 n=a5 v=61
6960 Off ch=1 n=g#5 v=64
7026 Par ch=1 c=64 v=0
7026 Par ch=1 c=64 v=0
7033 On ch=1 n=b5 v=66
7033 On ch=1 n=d5 v=57
7033 On ch=1 n=e4 v=58
7045 Off ch=1 n=a5 v=64
7074 Par ch=1 c=64 v=127
7074 Par ch=1 c=64 v=127
7085 Off ch=1 n=e4 v=64
7179 On ch=1 n=f#5 v=49
7194 Off ch=1 n=b5 v=64
7217 On ch=1 n=a3 v=58
7218 On ch=1 n=e5 v=66
7228 Par ch=1 c=64 v=0
7228 Par ch=1 c=64 v=0
7251 Off ch=1 n=f#5 v=64
7261 Par ch=1 c=64 v=127
7261 Par ch=1 c=64 v=127
7361 On ch=1 n=a5 v=54
7388 Par ch=1 c=64 v=0
7388 Par ch=1 c=64 v=0
7392 Off ch=1 n=e5 v=64
7397 Off ch=1 n=d5 v=64
7397 On ch=1 n=c#5 v=53
7397 On ch=1 n=a4 v=58
7401 On ch=1 n=c#6 v=79
7424 Off ch=1 n=a3 v=64
7426 Off ch=1 n=a5 v=64
7441 Off ch=1 n=a4 v=64
7441 Off ch=1 n=c#5 v=64
7600 Off ch=1 n=c#6 v=64
7630 On ch=1 n=c#6 v=66
7632 On ch=1 n=a4 v=58
7638 On ch=1 n=e5 v=57
7654 Par ch=1 c=64 v=127
7654 Par ch=1 c=64 v=127
7771 Off ch=1 n=e5 v=64
7858 On ch=1 n=e6 v=61
7866 On ch=1 n=f5 v=52
7866 On ch=1 n=d4 v=46
7871 Off ch=1 n=c#6 v=64
7887 Par ch=1 c=64 v=0
7887 Par ch=1 c=64 v=0
7928 Par ch=1 c=64 v=127
7928 Par ch=1 c=64 v=127
7956 Off ch=1 n=d4 v=64
7962 Off ch=1 n=a4 v=64
8001 Off ch=1 n=e6 v=64
8011 Off ch=1 n=f5 v=64
8015 On ch=1 n=d6 v=52
8040 On ch=1 n=c#6 v=55
8070 Off ch=1 n=d6 v=64
8085 On ch=1 n=b5 v=53
8089 On ch=1 n=d4 v=46
8094 On ch=1 n=f5 v=29
8094 On ch=1 n=a4 v=40
8102 Par ch=1 c=64 v=0
8102 Par ch=1 c=64 v=0
8114 Off ch=1 n=c#6 v=64
8144 Par ch=1 c=64 v=127
8144 Par ch=1 c=64 v=127
8154 Off ch=1 n=a4 v=64
8155 Off ch=1 n=d4 v=64
8187 Off ch=1 n=f5 v=64
8307 On ch=1 n=c#6 v=55
8311 On ch=1 n=e5 v=49
8315 On ch=1 n=a3 v=46
8318 Par ch=1 c=64 v=0
8318 Par ch=1 c=64 v=0
8326 Off ch=1 n=b5 v=64
8328 On ch=1 n=a4 v=29
8377 Par ch=1 c=64 v=127
8377 Par ch=1 c=64 v=127
8431 Off ch=1 n=e5 v=64
8452 Off ch=1 n=a3 v=64
8529 On ch=1 n=e6 v=58
8529 On ch=1 n=f5 v=57
8536 On ch=1 n=d4 v=52
8544 Off ch=1 n=c#6 v=64
8554 Par ch=1 c=64 v=0
8554 Par ch=1 c=64 v=0
8590 Par ch=1 c=64 v=127
8590 Par ch=1 c=64 v=127
8591 Off ch=1 n=a4 v=64
8606 Off ch=1 n=d4 v=64
8670 Off ch=1 n=e6 v=64
8675 On ch=1 n=d6 v=50
8681 Off ch=1 n=f5 v=64
8708 On ch=1 n=c#6 v=70
8732 Off ch=1 n=d6 v=64
8756 On ch=1 n=a4 v=49
8756 On ch=1 n=d4 v=28
8757 On ch=1 n=b5 v=55
8763 On ch=1 n=f5 v=50
8769 Par ch=1 c=64 v=0
8769 Par ch=1 c=64 v=0
8779 Off ch=1 n=c#6 v=64
8815 Par ch=1 c=64 v=127
8815 Par ch=1 c=64 v=127
8848 Off ch=1 n=d4 v=64
8870 Off ch=1 n=f5 v=64
8910 Off ch=1 n=a4 v=64
8973 On ch=1 n=c#6 v=58
8983 On ch=1 n=e5 v=52
8983 On ch=1 n=a3 v=53
8989 Off ch=1 n=b5 v=64
8991 On ch=1 n=a4 v=57
9001 Par ch=1 c=64 v=0
9001 Par ch=1 c=64 v=0
9033 Par ch=1 c=64 v=127
9033 Par ch=1 c=64 v=127
9076 Off ch=1 n=e5 v=64
9130 Off ch=1 n=a3 v=64
9228 On ch=1 n=e6 v=59
9228 On ch=1 n=f#5 v=58
9235 On ch=1 n=d4 v=52
9245 Par ch=1 c=64 v=0
9245 Par ch=1 c=64 v=0
9249 Off ch=1 n=c#6 v=64
9292 Par ch=1 c=64 v=127
9292 Par ch=1 c=64 v=127
9297 Off ch=1 n=d4 v=64
9372 On ch=1 n=d6 v=57
9394 Off ch=1 n=e6 v=64
9420 On ch=1 n=c#6 v=58
9425 Off ch=1 n=a4 v=64
9428 Off ch=1 n=d6 v=64
9464 On ch=1 n=g#4 v=46
9468 On ch=1 n=b5 v=62
9478 Par ch=1 c=64 v=0
9478 Par ch=1 c=64 v=0
9490 Off ch=1 n=c#6 v=64
9525 Par ch=1 c=64 v=127
9525 Par ch=1 c=64 v=127
9639 Off ch=1 n=f#5 v=64
9721 On ch=1 n=c#6 v=62
9724 On ch=1 n=c#4 v=46
9728 On ch=1 n=c#5 v=44
9730 Off ch=1 n=g#4 v=64
9733 On ch=1 n=f5 v=50
9739 Par ch=1 c=64 v=0
9739 Par ch=1 c=64 v=0
9747 Off ch=1 n=b5 v=64
9773 Par ch=1 c=64 v=127
9773 Par ch=1 c=64 v=127
9805 Off ch=1 n=c#4 v=64
9839 Off ch=1 n=c#5 v=64
9841 Off ch=1 n=f5 v=64
9988 On ch=1 n=f#4 v=28
9993 On ch=1 n=b5 v=55
9993 On ch=1 n=f#5 v=44
10003 On ch=1 n=d5 v=36
10017 Par ch=1 c=64 v=0
10017 Par ch=1 c=64 v=0
10020 Off ch=1 n=c#6 v=64
10050 Par ch=1 c=64 v=127
10050 Par ch=1 c=64 v=127
10098 Off ch=1 n=b5 v=64
10104 On ch=1 n=a5 v=54
10104 On ch=1 n=c#5 v=44
10160 Off ch=1 n=d5 v=64
10185 Off ch=1 n=f#5 v=64
10187 On ch=1 n=g#5 v=55
10193 Off ch=1 n=a5 v=64
10196 On ch=1 n=b4 v=44
10208 Off ch=1 n=c#5 v=64
10286 On ch=1 n=f#5 v=53
10296 On ch=1 n=a4 v=41
10300 Off ch=1 n=g#5 v=64
10307 Off ch=1 n=b4 v=64
10307 Par ch=1 c=64 v=0
10307 Par ch=1 c=64 v=0
10381 Par ch=1 c=64 v=127
10381 Par ch=1 c=64 v=127
10460 Off ch=1 n=f#5 v=64
10496 Off ch=1 n=f#4 v=64
10576 Off ch=1 n=a4 v=64
10620 Par ch=1 c=64 v=0
10620 Par ch=1 c=64 v=0
10626 On ch=1 n=f#5 v=65
10659 Par ch=1 c=64 v=127
10659 Par ch=1 c=64 v=127
10870 On ch=1 n=c#3 v=57
10885 Par ch=1 c=64 v=0
10885 Par ch=1 c=64 v=0
10911 Par ch=1 c=64 v=127
10911 Par ch=1 c=64 v=127
10999 On ch=1 n=g#5 v=48
11008 Off ch=1 n=f#5 v=64
11034 On ch=1 n=f#5 v=66
11049 Off ch=1 n=g#5 v=64
11071 On ch=1 n=f5 v=58
11078 On ch=1 n=c#4 v=37
11081 Off ch=1 n=c#3 v=64
11085 On ch=1 n=b4 v=40
11087 Off ch=1 n=f#5 v=64
11096 Par ch=1 c=64 v=0
11096 Par ch=1 c=64 v=0
11131 Par ch=1 c=64 v=127
11131 Par ch=1 c=64 v=127
11147 Off ch=1 n=b4 v=64
11152 Off ch=1 n=c#4 v=64
11176 On ch=1 n=f#5 v=55
11179 Off ch=1 n=f5 v=64
11278 On ch=1 n=g#5 v=63
11282 On ch=1 n=c#4 v=55
11285 Off ch=1 n=f#5 v=64
11289 Par ch=1 c=64 v=0
11289 Par ch=1 c=64 v=0
11294 On ch=1 n=f4 v=36
11298 On ch=1 n=b4 v=29
11314 Par ch=1 c=64 v=127
11314 Par ch=1 c=64 v=127
11324 Off ch=1 n=b4 v=64
11324 Off ch=1 n=f4 v=64
11350 Off ch=1 n=c#4 v=64
11426 On ch=1 n=d5 v=48
11436 Off ch=1 n=g#5 v=64
11470 On ch=1 n=c#5 v=59
11475 On ch=1 n=f#3 v=49
11480 Par ch=1 c=64 v=0
11480 Par ch=1 c=64 v=0
11501 Off ch=1 n=d5 v=64
11535 Par ch=1 c=64 v=127
11535 Par ch=1 c=64 v=127
11628 On ch=1 n=f#5 v=52
11645 Off ch=1 n=c#5 v=64
11663 On ch=1 n=c#5 v=55
11667 On ch=1 n=f#4 v=58
11668 On ch=1 n=a5 v=66
11668 Par ch=1 c=64 v=0
11668 Par ch=1 c=64 v=0
11686 Off ch=1 n=f#3 v=64
11697 Off ch=1 n=f#5 v=64
11707 Off ch=1 n=c#5 v=64
11711 Off ch=1 n=f#4 v=64
11783 Par ch=1 c=64 v=127
11783 Par ch=1 c=64 v=127
11867 Off ch=1 n=a5 v=64
11895 On ch=1 n=a5 v=70
11895 On ch=1 n=c#5 v=49
11900 On ch=1 n=f#5 v=70
11906 On ch=1 n=f#4 v=58
11915 Par ch=1 c=64 v=127
11915 Par ch=1 c=64 v=127
11935 Off ch=1 n=c#5 v=64
11947 Off ch=1 n=f#4 v=64
12110 On ch=1 n=e3 v=54
12122 Par ch=1 c=64 v=0
12122 Par ch=1 c=64 v=0
12132 Par ch=1 c=64 v=127
12132 Par ch=1 c=64 v=127
12191 Off ch=1 n=a5 v=64
12216 On ch=1 n=b5 v=55
12256 On ch=1 n=a5 v=52
12265 Off ch=1 n=f#5 v=64
12286 Off ch=1 n=b5 v=64
12294 On ch=1 n=g#5 v=63
12294 On ch=1 n=e5 v=26
12296 On ch=1 n=b4 v=44
12298 On ch=1 n=e4 v=54
12300 Off ch=1 n=a5 v=64
12310 Par ch=1 c=64 v=0
12310 Par ch=1 c=64 v=0
12315 Off ch=1 n=e3 v=64
12347 Off ch=1 n=b4 v=64
12354 Par ch=1 c=64 v=127
12354 Par ch=1 c=64 v=127
12357 Off ch=1 n=e4 v=64
12383 Off ch=1 n=e5 v=64
12395 On ch=1 n=a5 v=57
12421 Off ch=1 n=g#5 v=64
12482 Par ch=1 c=64 v=0
12482 Par ch=1 c=64 v=0
12489 On ch=1 n=b5 v=63
12489 On ch=1 n=d5 v=52
12495 On ch=1 n=e4 v=58
12507 Off ch=1 n=a5 v=64
12525 Par ch=1 c=64 v=127
12525 Par ch=1 c=64 v=127
12545 Off ch=1 n=e4 v=64
12633 On ch=1 n=f#5 v=48
12649 Off ch=1 n=b5 v=64
12666 Par ch=1 c=64 v=0
12666 Par ch=1 c=64 v=0
12673 On ch=1 n=a3 v=57
12678 On ch=1 n=e5 v=55
12717 Off ch=1 n=f#5 v=64
12726 Par ch=1 c=64 v=127
12726 Par ch=1 c=64 v=127
12817 On ch=1 n=a5 v=48
12847 Off ch=1 n=e5 v=64
12847 Par ch=1 c=64 v=0
12847 Par ch=1 c=64 v=0
12861 On ch=1 n=c#6 v=71
12861 On ch=1 n=c#5 v=55
12861 On ch=1 n=a4 v=61
12877 Off ch=1 n=d5 v=64
12879 Off ch=1 n=a3 v=64
12885 Off ch=1 n=a5 v=64
12905 Off ch=1 n=a4 v=64
12905 Off ch=1 n=c#5 v=64
13048 Off ch=1 n=c#6 v=64
13075 On ch=1 n=c#6 v=66
13082 On ch=1 n=a4 v=58
13088 On ch=1 n=e5 v=58
13111 Par ch=1 c=64 v=127
13111 Par ch=1 c=64 v=127
13157 Off ch=1 n=a4 v=64
13167 Off ch=1 n=e5 v=64
13278 On ch=1 n=f#5 v=45
13278 On ch=1 n=a4 v=57
13282 On ch=1 n=d#5 v=28
13305 Par ch=1 c=64 v=0
13305 Par ch=1 c=64 v=0
13351 Par ch=1 c=64 v=127
13351 Par ch=1 c=64 v=127
13398 On ch=1 n=d#6 v=52
13403 Off ch=1 n=c#6 v=64
13446 On ch=1 n=c#6 v=55
13456 Off ch=1 n=d#6 v=64
13483 On ch=1 n=g#4 v=55
13487 On ch=1 n=c6 v=59
13497 Off ch=1 n=a4 v=64
13498 Off ch=1 n=c#6 v=64
13498 Par ch=1 c=64 v=0
13498 Par ch=1 c=64 v=0
13544 Par ch=1 c=64 v=127
13544 Par ch=1 c=64 v=127
13613 Off ch=1 n=c6 v=64
13613 On ch=1 n=g#5 v=62
13672 On ch=1 n=b5 v=62
13679 Off ch=1 n=f#5 v=64
13681 On ch=1 n=f5 v=57
13681 On ch=1 n=c#5 v=53
13683 Off ch=1 n=d#5 v=64
13688 Off ch=1 n=g#5 v=64
13688 Par ch=1 c=64 v=0
13688 Par ch=1 c=64 v=0
13733 Par ch=1 c=64 v=127
13733 Par ch=1 c=64 v=127
13868 Off ch=1 n=c#5 v=64
13869 On ch=1 n=g4 v=49
13876 On ch=1 n=c#5 v=37
13879 On ch=1 n=e5 v=41
13890 Off ch=1 n=f5 v=64
13891 Par ch=1 c=64 v=0
13891 Par ch=1 c=64 v=0
13900 Off ch=1 n=g#4 v=64
13943 Par ch=1 c=64 v=127
13943 Par ch=1 c=64 v=127
13991 On ch=1 n=c#6 v=52
14016 Off ch=1 n=b5 v=64
14036 On ch=1 n=b5 v=53
14056 Off ch=1 n=c#6 v=64
14074 On ch=1 n=f#4 v=52
14077 Par ch=1 c=64 v=0
14077 Par ch=1 c=64 v=0
14084 On ch=1 n=a#5 v=55
14090 Off ch=1 n=g4 v=64
14097 Off ch=1 n=b5 v=64
14134 Par ch=1 c=64 v=127
14134 Par ch=1 c=64 v=127
14198 On ch=1 n=f#5 v=59
14208 Off ch=1 n=a#5 v=64
14256 On ch=1 n=a5 v=58
14260 On ch=1 n=d#5 v=49
14266 On ch=1 n=c5 v=50
14269 Off ch=1 n=f#5 v=64
14277 Par ch=1 c=64 v=0
14277 Par ch=1 c=64 v=0
14282 Off ch=1 n=c#5 v=64
14285 Off ch=1 n=e5 v=64
14318 Par ch=1 c=64 v=127
14318 Par ch=1 c=64 v=127
14448 On ch=1 n=b4 v=37
14449 On ch=1 n=d5 v=48
14451 On ch=1 n=f4 v=46
14455 Off ch=1 n=d#5 v=64
14458 Off ch=1 n=f#4 v=64
14461 Off ch=1 n=c5 v=64
14472 Par ch=1 c=64 v=0
14472 Par ch=1 c=64 v=0
14519 Par ch=1 c=64 v=127
14519 Par ch=1 c=64 v=127
14578 On ch=1 n=b5 v=49
14582 Off ch=1 n=a5 v=64
14607 On ch=1 n=a5 v=52
14628 Off ch=1 n=b5 v=64
14643 On ch=1 n=e4 v=50
14645 On ch=1 n=g#5 v=46
14647 Par ch=1 c=64 v=0
14647 Par ch=1 c=64 v=0
14656 Off ch=1 n=f4 v=64
14668 Off ch=1 n=a5 v=64
14703 Par ch=1 c=64 v=127
14703 Par ch=1 c=64 v=127
14760 On ch=1 n=e5 v=44
14765 Off ch=1 n=g#5 v=64
14828 Par ch=1 c=64 v=0
14828 Par ch=1 c=64 v=0
14835 On ch=1 n=g5 v=61
14835 On ch=1 n=c#5 v=45
14842 On ch=1 n=a#4 v=48
14851 Off ch=1 n=b4 v=64
14852 Off ch=1 n=d5 v=64
14854 Off ch=1 n=e5 v=64
14890 Par ch=1 c=64 v=127
14890 Par ch=1 c=64 v=127
15022 Off ch=1 n=c#5 v=64
15025 On ch=1 n=d#4 v=46
15032 On ch=1 n=a4 v=39
15033 On ch=1 n=c#5 v=44
15034 Par ch=1 c=64 v=0
15034 Par ch=1 c=64 v=0
15040 Off ch=1 n=e4 v=64
15071 Off ch=1 n=a#4 v=64
15094 Par ch=1 c=64 v=127
15094 Par ch=1 c=64 v=127
15160 On ch=1 n=a5 v=40
15174 Off ch=1 n=g5 v=64
15200 On ch=1 n=g5 v=48
15220 Off ch=1 n=a5 v=64
15225 On ch=1 n=d4 v=48
15230 Par ch=1 c=64 v=0
15230 Par ch=1 c=64 v=0
15240 On ch=1 n=f#5 v=48
15241 Off ch=1 n=d#4 v=64
15269 Off ch=1 n=g5 v=64
15277 Par ch=1 c=64 v=127
15277 Par ch=1 c=64 v=127
15339 On ch=1 n=d5 v=50
15348 Off ch=1 n=f#5 v=64
15400 Off ch=1 n=c#5 v=64
15468 On ch=1 n=f#5 v=59
15475 On ch=1 n=g#4 v=45
15478 On ch=1 n=b4 v=45
15482 Par ch=1 c=64 v=0
15482 Par ch=1 c=64 v=0
15483 Off ch=1 n=a4 v=64
15491 Off ch=1 n=d5 v=64
15528 Par ch=1 c=64 v=127
15528 Par ch=1 c=64 v=127
15695 Par ch=1 c=64 v=0
15695 Par ch=1 c=64 v=0
15705 On ch=1 n=c#3 v=63
15708 On ch=1 n=c#4 v=66
15711 Off ch=1 n=g#4 v=64
15714 Off ch=1 n=b4 v=64
15732 Off ch=1 n=d4 v=64
15761 Par ch=1 c=64 v=127
15761 Par ch=1 c=64 v=127
15862 On ch=1 n=g#5 v=57
15865 Off ch=1 n=f#5 v=64
15887 Off ch=1 n=c#4 v=64
15895 On ch=1 n=f#5 v=70
15916 Off ch=1 n=c#3 v=64
15917 On ch=1 n=c#4 v=46
15920 Off ch=1 n=g#5 v=64
15924 On ch=1 n=g#4 v=52
15926 Par ch=1 c=64 v=0
15926 Par ch=1 c=64 v=0
15933 On ch=1 n=f5 v=63
15933 On ch=1 n=b4 v=48
15947 Off ch=1 n=f#5 v=64
15967 Par ch=1 c=64 v=127
15967 Par ch=1 c=64 v=127
15993 Off ch=1 n=c#4 v=64
15994 Off ch=1 n=b4 v=64
16004 Off ch=1 n=g#4 v=64
16026 On ch=1 n=f#5 v=72
16037 Off ch=1 n=f5 v=64
16109 Par ch=1 c=64 v=0
16109 Par ch=1 c=64 v=0
16124 On ch=1 n=g#5 v=66
16130 On ch=1 n=b4 v=58
16132 On ch=1 n=c#4 v=61
16136 On ch=1 n=f4 v=59
16137 Off ch=1 n=f#5 v=64
16166 Par ch=1 c=64 v=127
16166 Par ch=1 c=64 v=127
16175 Off ch=1 n=b4 v=64
16176 Off ch=1 n=f4 v=64
16190 Off ch=1 n=c#4 v=64
16267 On ch=1 n=d5 v=58
16282 Off ch=1 n=g#5 v=64
16297 Par ch=1 c=64 v=0
16297 Par ch=1 c=64 v=0
16312 On ch=1 n=c#5 v=66
16318 On ch=1 n=f#3 v=55
16341 Off ch=1 n=d5 v=64
16356 Par ch=1 c=64 v=127
16356 Par ch=1 c=64 v=127
16455 On ch=1 n=f#5 v=54
16469 Off ch=1 n=c#5 v=64
16493 On ch=1 n=a5 v=66
16493 On ch=1 n=c#5 v=55
16493 On ch=1 n=f#4 v=66
16494 Par ch=1 c=64 v=0
16494 Par ch=1 c=64 v=0
16524 Off ch=1 n=f#5 v=64
16529 Off ch=1 n=f#3 v=64
16537 Off ch=1 n=f#4 v=64
16537 Off ch=1 n=c#5 v=64
16609 Par ch=1 c=64 v=127
16609 Par ch=1 c=64 v=127
16692 Off ch=1 n=a5 v=64
16720 On ch=1 n=c#5 v=70
16720 On ch=1 n=f#4 v=71
16723 On ch=1 n=a5 v=72
16728 On ch=1 n=f#5 v=70
16737 Par ch=1 c=64 v=127
16737 Par ch=1 c=64 v=127
16757 Off ch=1 n=c#5 v=64
16767 Off ch=1 n=f#4 v=64
16920 On ch=1 n=e3 v=67
16925 Par ch=1 c=64 v=0
16925 Par ch=1 c=64 v=0
16956 Par ch=1 c=64 v=127
16956 Par ch=1 c=64 v=127
17053 On ch=1 n=b5 v=52
17059 Off ch=1 n=a5 v=64
17086 Off ch=1 n=f#5 v=64
17089 On ch=1 n=a5 v=55
17106 Off ch=1 n=b5 v=64
17113 On ch=1 n=e5 v=41
17115 On ch=1 n=e4 v=52
17123 On ch=1 n=b4 v=44
17128 On ch=1 n=g#5 v=70
17131 Off ch=1 n=e3 v=64
17132 Par ch=1 c=64 v=0
17132 Par ch=1 c=64 v=0
17135 Off ch=1 n=a5 v=64
17166 Par ch=1 c=64 v=127
17166 Par ch=1 c=64 v=127
17181 Off ch=1 n=b4 v=64
17182 Off ch=1 n=e4 v=64
17194 Off ch=1 n=e5 v=64
17226 On ch=1 n=a5 v=58
17243 Off ch=1 n=g#5 v=64
17298 Par ch=1 c=64 v=0
17298 Par ch=1 c=64 v=0
17309 On ch=1 n=b5 v=66
17313 On ch=1 n=d5 v=58
17318 Off ch=1 n=a5 v=64
17318 On ch=1 n=e4 v=58
17354 Par ch=1 c=64 v=127
17354 Par ch=1 c=64 v=127
17368 Off ch=1 n=e4 v=64
17437 On ch=1 n=f#5 v=58
17456 Off ch=1 n=b5 v=64
17482 On ch=1 n=e5 v=59
17484 Par ch=1 c=64 v=0
17484 Par ch=1 c=64 v=0
17492 On ch=1 n=a3 v=55
17497 Off ch=1 n=f#5 v=64
17498 Off ch=1 n=d5 v=64
17544 Par ch=1 c=64 v=127
17544 Par ch=1 c=64 v=127
17637 On ch=1 n=a5 v=44
17652 Off ch=1 n=e5 v=64
17662 Par ch=1 c=64 v=0
17662 Par ch=1 c=64 v=0
17673 On ch=1 n=c#5 v=49
17673 On ch=1 n=a4 v=58
17677 On ch=1 n=c#6 v=76
17687 Off ch=1 n=a5 v=64
17696 Off ch=1 n=a3 v=64
17717 Off ch=1 n=a4 v=64
17717 Off ch=1 n=c#5 v=64
17864 Off ch=1 n=c#6 v=64
17882 On ch=1 n=c#6 v=80
17891 On ch=1 n=e5 v=70
17891 On ch=1 n=a4 v=55
17914 Par ch=1 c=64 v=127
17914 Par ch=1 c=64 v=127
18048 Off ch=1 n=e5 v=64
18126 On ch=1 n=e6 v=59
18136 On ch=1 n=d4 v=37
18139 On ch=1 n=f5 v=44
18149 Off ch=1 n=c#6 v=64
18163 Par ch=1 c=64 v=0
18163 Par ch=1 c=64 v=0
18228 Par ch=1 c=64 v=127
18228 Par ch=1 c=64 v=127
18252 Off ch=1 n=a4 v=64
18254 Off ch=1 n=d4 v=64
18280 On ch=1 n=d6 v=52
18291 Off ch=1 n=f5 v=64
18291 Off ch=1 n=e6 v=64
18308 On ch=1 n=c#6 v=53
18342 Off ch=1 n=d6 v=64
18359 On ch=1 n=b5 v=61
18369 On ch=1 n=f5 v=46
18369 On ch=1 n=a4 v=52
18369 On ch=1 n=d4 v=52
18383 Par ch=1 c=64 v=0
18383 Par ch=1 c=64 v=0
18388 Off ch=1 n=c#6 v=64
18428 Par ch=1 c=64 v=127
18428 Par ch=1 c=64 v=127
18437 Off ch=1 n=d4 v=64
18437 Off ch=1 n=a4 v=64
18470 Off ch=1 n=f5 v=64
18573 On ch=1 n=c#6 v=59
18575 On ch=1 n=e5 v=48
18585 On ch=1 n=a4 v=44
18585 On ch=1 n=a3 v=44
18588 Par ch=1 c=64 v=0
18588 Par ch=1 c=64 v=0
18594 Off ch=1 n=b5 v=64
18654 Par ch=1 c=64 v=127
18654 Par ch=1 c=64 v=127
18699 Off ch=1 n=e5 v=64
18790 Off ch=1 n=a3 v=64
18791 On ch=1 n=e6 v=61
18791 On ch=1 n=f5 v=53
18798 On ch=1 n=d4 v=57
18798 Par ch=1 c=64 v=0
18798 Par ch=1 c=64 v=0
18807 Off ch=1 n=c#6 v=64
18848 Off ch=1 n=d4 v=64
18857 Par ch=1 c=64 v=127
18857 Par ch=1 c=64 v=127
18895 Off ch=1 n=a4 v=64
18916 On ch=1 n=d6 v=58
18920 Off ch=1 n=e6 v=64
18925 Off ch=1 n=f5 v=64
18954 On ch=1 n=c#6 v=61
18981 Off ch=1 n=d6 v=64
18999 On ch=1 n=b5 v=57
19002 On ch=1 n=f5 v=44
19002 On ch=1 n=a4 v=37
19008 On ch=1 n=d4 v=36
19008 Par ch=1 c=64 v=0
19008 Par ch=1 c=64 v=0
19030 Off ch=1 n=c#6 v=64
19056 Par ch=1 c=64 v=127
19056 Par ch=1 c=64 v=127
19085 Off ch=1 n=d4 v=64
19101 Off ch=1 n=f5 v=64
19151 Off ch=1 n=a4 v=64
19220 On ch=1 n=c#6 v=53
19226 On ch=1 n=e5 v=44
19229 On ch=1 n=a4 v=44
19231 On ch=1 n=a3 v=42
19236 Off ch=1 n=b5 v=64
19242 Par ch=1 c=64 v=0
19242 Par ch=1 c=64 v=0
19302 Par ch=1 c=64 v=127
19302 Par ch=1 c=64 v=127
19332 Off ch=1 n=e5 v=64
19410 Off ch=1 n=a3 v=64
19482 On ch=1 n=f#5 v=58
19484 On ch=1 n=e6 v=54
19491 Off ch=1 n=c#6 v=64
19492 On ch=1 n=d4 v=49
19517 Par ch=1 c=64 v=0
19517 Par ch=1 c=64 v=0
19561 Par ch=1 c=64 v=127
19561 Par ch=1 c=64 v=127
19635 On ch=1 n=d6 v=45
19643 Off ch=1 n=e6 v=64
19651 Off ch=1 n=d4 v=64
19668 On ch=1 n=c#6 v=45
19688 Off ch=1 n=d6 v=64
19708 Off ch=1 n=a4 v=64
19711 On ch=1 n=b5 v=55
19721 On ch=1 n=g#4 v=54
19731 Off ch=1 n=c#6 v=64
19747 Par ch=1 c=64 v=0
19747 Par ch=1 c=64 v=0
19778 Par ch=1 c=64 v=127
19778 Par ch=1 c=64 v=127
19849 Off ch=1 n=f#5 v=64
19874 Off ch=1 n=g#4 v=64
19968 On ch=1 n=c#6 v=50
19974 On ch=1 n=c#4 v=40
19979 On ch=1 n=c#5 v=31
19983 On ch=1 n=f5 v=44
19984 Off ch=1 n=b5 v=64
20004 Par ch=1 c=64 v=0
20004 Par ch=1 c=64 v=0
20041 Par ch=1 c=64 v=127
20041 Par ch=1 c=64 v=127
20078 Off ch=1 n=c#4 v=64
20119 Off ch=1 n=f5 v=64
20123 Off ch=1 n=c#5 v=64
20177 Off ch=1 n=c#6 v=64
20238 On ch=1 n=f#5 v=37
20241 On ch=1 n=f#4 v=33
20242 On ch=1 n=b5 v=48
20251 On ch=1 n=d5 v=33
20267 Par ch=1 c=64 v=0
20267 Par ch=1 c=64 v=0
20291 Par ch=1 c=64 v=127
20291 Par ch=1 c=64 v=127
20319 Off ch=1 n=b5 v=64
20333 On ch=1 n=c#5 v=44
20337 On ch=1 n=a5 v=33
20380 Off ch=1 n=d5 v=64
20389 Off ch=1 n=f#5 v=64
20411 On ch=1 n=g#5 v=49
20419 Off ch=1 n=a5 v=64
20423 On ch=1 n=b4 v=44
20435 Off ch=1 n=c#5 v=64
20494 On ch=1 n=f#5 v=40
20503 On ch=1 n=a4 v=33
20506 Off ch=1 n=b4 v=64
20510 Par ch=1 c=64 v=0
20510 Par ch=1 c=64 v=0
20516 Off ch=1 n=g#5 v=64
20554 Off ch=1 n=f#4 v=64
20586 Par ch=1 c=64 v=127
20586 Par ch=1 c=64 v=127
20634 Off ch=1 n=f#5 v=64
20681 Off ch=1 n=a4 v=64
20743 On ch=1 n=c#6 v=65
21003 Par ch=1 c=64 v=0
21003 Par ch=1 c=64 v=0
21011 Off ch=1 n=c#6 v=64
21023 On ch=1 n=c#6 v=83
21026 On ch=1 n=c#7 v=83
21026 On ch=1 n=c#3 v=76
21030 On ch=1 n=c#4 v=79
21054 Par ch=1 c=64 v=127
21054 Par ch=1 c=64 v=127
21134 Par ch=1 c=64 v=127
21134 Par ch=1 c=64 v=127
21179 Off ch=1 n=c#6 v=64
21229 On ch=1 n=g#4 v=44
21236 On ch=1 n=c#6 v=66
21303 Off ch=1 n=c#6 v=64
21321 On ch=1 n=g#5 v=80
21326 On ch=1 n=c#5 v=58
21401 Off ch=1 n=c#5 v=64
21409 On ch=1 n=c6 v=66
21409 On ch=1 n=d#5 v=44
21475 On ch=1 n=f#5 v=63
21486 On ch=1 n=d6 v=66
21492 Off ch=1 n=c6 v=64
21506 Off ch=1 n=d#5 v=64
21532 Off ch=1 n=g#5 v=64
21569 Par ch=1 c=64 v=0
21569 Par ch=1 c=64 v=0
21575 Off ch=1 n=f#5 v=64
21577 On ch=1 n=c#6 v=63
21584 On ch=1 n=f5 v=67
21599 Off ch=1 n=d6 v=64
21623 Par ch=1 c=64 v=127
21623 Par ch=1 c=64 v=127
21640 Off ch=1 n=c#4 v=64
21650 Off ch=1 n=c#3 v=64
21659 Off ch=1 n=c#7 v=64
21718 On ch=1 n=c6 v=63
21724 On ch=1 n=d#5 v=58
21727 Off ch=1 n=f5 v=64
21732 Off ch=1 n=c#6 v=64
21770 On ch=1 n=b5 v=62
21770 On ch=1 n=d5 v=65
21774 Par ch=1 c=64 v=0
21774 Par ch=1 c=64 v=0
21782 Off ch=1 n=c6 v=64
21784 Off ch=1 n=d#5 v=64
21812 Par ch=1 c=64 v=127
21812 Par ch=1 c=64 v=127
21844 Off ch=1 n=b5 v=64
21946 Off ch=1 n=g#4 v=64
21974 On ch=1 n=b4 v=59
21976 On ch=1 n=b5 v=67
21978 Off ch=1 n=d5 v=64
22005 Off ch=1 n=b4 v=64
22019 Off ch=1 n=b5 v=64
22194 Par ch=1 c=64 v=0
22194 Par ch=1 c=64 v=0
22203 On ch=1 n=c#7 v=80
22210 On ch=1 n=c#3 v=71
22211 On ch=1 n=c#6 v=85
22211 On ch=1 n=c#4 v=83
22239 Par ch=1 c=64 v=127
22239 Par ch=1 c=64 v=127
22367 Off ch=1 n=c#6 v=64
22428 On ch=1 n=g#4 v=62
22435 On ch=1 n=c#6 v=66
22518 Off ch=1 n=c#6 v=64
22524 On ch=1 n=g#5 v=80
22531 On ch=1 n=c#5 v=59
22601 Off ch=1 n=c#5 v=64
22607 On ch=1 n=d#5 v=61
22611 On ch=1 n=c6 v=66
22621 Off ch=1 n=g#5 v=64
22680 On ch=1 n=f#5 v=66
22689 On ch=1 n=d6 v=66
22704 Off ch=1 n=c6 v=64
22706 Off ch=1 n=d#5 v=64
22724 Off ch=1 n=c#3 v=64
22729 Off ch=1 n=c#4 v=64
22731 Off ch=1 n=c#7 v=64
22774 Off ch=1 n=f#5 v=64
22782 Par ch=1 c=64 v=0
22782 Par ch=1 c=64 v=0
22788 On ch=1 n=c#6 v=72
22792 On ch=1 n=f5 v=65
22803 Off ch=1 n=d6 v=64
22830 Par ch=1 c=64 v=127
22830 Par ch=1 c=64 v=127
22870 On ch=1 n=c6 v=48
22873 On ch=1 n=d#5 v=54
22879 Off ch=1 n=c#6 v=64
22899 Off ch=1 n=f5 v=64
22964 On ch=1 n=d5 v=53
22965 Off ch=1 n=c6 v=64
22970 On ch=1 n=g#6 v=81
22970 On ch=1 n=b5 v=66
22977 Off ch=1 n=d#5 v=64
22981 Par ch=1 c=64 v=0
22981 Par ch=1 c=64 v=0
23014 Par ch=1 c=64 v=127
23014 Par ch=1 c=64 v=127
23125 Off ch=1 n=g#4 v=64
23162 On ch=1 n=b4 v=65
23172 Off ch=1 n=d5 v=64
23193 Off ch=1 n=b4 v=64
23258 On ch=1 n=f#6 v=57
23265 Off ch=1 n=b5 v=64
23266 Off ch=1 n=g#6 v=64
23397 On ch=1 n=c#7 v=88
23401 On ch=1 n=f6 v=80
23401 On ch=1 n=c#6 v=80
23403 Par ch=1 c=64 v=0
23403 Par ch=1 c=64 v=0
23410 On ch=1 n=c#4 v=80
23410 On ch=1 n=c#3 v=72
23417 Off ch=1 n=f#6 v=64
23445 Par ch=1 c=64 v=127
23445 Par ch=1 c=64 v=127
23557 Off ch=1 n=c#6 v=64
23634 On ch=1 n=g#4 v=61
23636 On ch=1 n=c#6 v=62
23658 Par ch=1 c=64 v=0
23658 Par ch=1 c=64 v=0
23682 Par ch=1 c=64 v=127
23682 Par ch=1 c=64 v=127
23728 On ch=1 n=g#5 v=79
23732 On ch=1 n=c#5 v=62
23737 Off ch=1 n=c#6 v=64
23809 On ch=1 n=d#5 v=50
23810 Off ch=1 n=c#5 v=64
23815 On ch=1 n=c6 v=66
23836 Off ch=1 n=g#5 v=64
23890 On ch=1 n=f#5 v=67
23897 On ch=1 n=d6 v=66
23913 Off ch=1 n=c6 v=64
23913 Off ch=1 n=d#5 v=64
23919 Off ch=1 n=c#7 v=64
23931 Off ch=1 n=c#3 v=64
23932 Off ch=1 n=c#4 v=64
23936 Off ch=1 n=f6 v=64
23982 Off ch=1 n=f#5 v=64
23987 On ch=1 n=c#6 v=70
24003 On ch=1 n=f5 v=66
24006 Par ch=1 c=64 v=0
24006 Par ch=1 c=64 v=0
24013 Off ch=1 n=d6 v=64
24041 Par ch=1 c=64 v=127
24041 Par ch=1 c=64 v=127
24127 On ch=1 n=d#5 v=63
24132 Off ch=1 n=f5 v=64
24141 On ch=1 n=c6 v=66
24163 Off ch=1 n=c#6 v=64
24177 On ch=1 n=b5 v=70
24185 On ch=1 n=d5 v=67
24186 Par ch=1 c=64 v=0
24186 Par ch=1 c=64 v=0
24192 Off ch=1 n=d#5 v=64
24194 Off ch=1 n=c6 v=64
24232 Par ch=1 c=64 v=127
24232 Par ch=1 c=64 v=127
24238 Off ch=1 n=b5 v=64
24393 Off ch=1 n=d5 v=64
24398 On ch=1 n=b4 v=65
24399 On ch=1 n=b5 v=66
24411 Par ch=1 c=64 v=0
24411 Par ch=1 c=64 v=0
24415 Off ch=1 n=g#4 v=64
24441 Par ch=1 c=64 v=127
24441 Par ch=1 c=64 v=127
24449 Off ch=1 n=b5 v=64
24501 Off ch=1 n=b4 v=64
24633 On ch=1 n=c#7 v=79
24638 On ch=1 n=c#6 v=79
24638 On ch=1 n=c#3 v=66
24643 On ch=1 n=c#4 v=81
24654 Par ch=1 c=64 v=0
24654 Par ch=1 c=64 v=0
24668 Par ch=1 c=64 v=127
24668 Par ch=1 c=64 v=127
24794 Off ch=1 n=c#6 v=64
24873 On ch=1 n=g#4 v=59
24879 On ch=1 n=c#6 v=67
24980 Off ch=1 n=c#6 v=64
24982 On ch=1 n=g#5 v=79
24982 On ch=1 n=c#5 v=59
25066 Off ch=1 n=c#5 v=64
25069 On ch=1 n=d#5 v=55
25073 On ch=1 n=c6 v=66
25085 Off ch=1 n=g#5 v=64
25153 On ch=1 n=f#5 v=65
25159 On ch=1 n=d6 v=63
25160 Off ch=1 n=c#3 v=64
25168 Off ch=1 n=c6 v=64
25171 Off ch=1 n=d#5 v=64
25172 Off ch=1 n=c#4 v=64
25175 Off ch=1 n=c#7 v=64
25270 On ch=1 n=c#6 v=63
25275 On ch=1 n=f5 v=58
25281 Off ch=1 n=d6 v=64
25284 Off ch=1 n=f#5 v=64
25298 Par ch=1 c=64 v=0
25298 Par ch=1 c=64 v=0
25342 Par ch=1 c=64 v=127
25342 Par ch=1 c=64 v=127
25396 On ch=1 n=d#5 v=57
25406 On ch=1 n=c6 v=61
25413 Off ch=1 n=f5 v=64
25445 Off ch=1 n=c#6 v=64
25552 On ch=1 n=b5 v=57
25552 On ch=1 n=d5 v=39
25558 Off ch=1 n=c6 v=64
25558 Off ch=1 n=d#5 v=64
25748 On ch=1 n=c#5 v=42
25751 On ch=1 n=a5 v=57
25755 Off ch=1 n=g#4 v=64
25770 Off ch=1 n=d5 v=64
25787 Off ch=1 n=b5 v=64
25787 Par ch=1 c=64 v=0
25787 Par ch=1 c=64 v=0
25797 Par ch=1 c=64 v=127
25797 Par ch=1 c=64 v=127
25911 On ch=1 n=b4 v=46
25917 Off ch=1 n=c#5 v=64
25971 On ch=1 n=g#5 v=58
25993 Off ch=1 n=a5 v=64
26000 Par ch=1 c=64 v=0
26000 Par ch=1 c=64 v=0
26045 On ch=1 n=f#5 v=59
26054 On ch=1 n=a4 v=59
26065 Off ch=1 n=g#5 v=64
26076 Off ch=1 n=b4 v=64
26095 Par ch=1 c=64 v=127
26095 Par ch=1 c=64 v=127
26196 On ch=1 n=g#5 v=37
26202 Off ch=1 n=f#5 v=64
26228 On ch=1 n=f#5 v=61
26248 Off ch=1 n=g#5 v=64
26258 On ch=1 n=g#4 v=58
26268 On ch=1 n=f5 v=55
26269 Off ch=1 n=a4 v=64
26280 Par ch=1 c=64 v=0
26280 Par ch=1 c=64 v=0
26290 Off ch=1 n=f#5 v=64
26317 Par ch=1 c=64 v=127
26317 Par ch=1 c=64 v=127
26373 On ch=1 n=f#5 v=67
26387 Off ch=1 n=f5 v=64
26470 On ch=1 n=g#5 v=67
26471 On ch=1 n=c#4 v=52
26477 Par ch=1 c=64 v=0
26477 Par ch=1 c=64 v=0
26480 Off ch=1 n=f#5 v=64
26480 On ch=1 n=f4 v=52
26486 On ch=1 n=b4 v=50
26487 Off ch=1 n=g#4 v=64
26515 Off ch=1 n=b4 v=64
26519 Par ch=1 c=64 v=127
26519 Par ch=1 c=64 v=127
26523 Off ch=1 n=f4 v=64
26533 Off ch=1 n=c#4 v=64
26637 On ch=1 n=d5 v=55
26646 Off ch=1 n=g#5 v=64
26676 On ch=1 n=c#5 v=66
26681 On ch=1 n=f#3 v=57
26683 Par ch=1 c=64 v=0
26683 Par ch=1 c=64 v=0
26706 Off ch=1 n=d5 v=64
26748 Par ch=1 c=64 v=127
26748 Par ch=1 c=64 v=127
26835 On ch=1 n=f#5 v=52
26856 Off ch=1 n=c#5 v=64
26875 On ch=1 n=c#5 v=55
26877 On ch=1 n=f#4 v=59
26877 Par ch=1 c=64 v=0
26877 Par ch=1 c=64 v=0
26882 On ch=1 n=a5 v=65
26892 Off ch=1 n=f#3 v=64
26906 Off ch=1 n=f#5 v=64
26916 Off ch=1 n=c#5 v=64
26918 Off ch=1 n=f#4 v=64
26988 Par ch=1 c=64 v=127
26988 Par ch=1 c=64 v=127
27078 Off ch=1 n=a5 v=64
27096 On ch=1 n=f#4 v=58
27100 On ch=1 n=f#5 v=61
27103 On ch=1 n=a5 v=62
27103 On ch=1 n=c#5 v=57
27128 Off ch=1 n=f#4 v=64
27128 Par ch=1 c=64 v=127
27128 Par ch=1 c=64 v=127
27132 Off ch=1 n=c#5 v=64
27302 Par ch=1 c=64 v=0
27302 Par ch=1 c=64 v=0
27312 On ch=1 n=e3 v=59
27350 Par ch=1 c=64 v=127
27350 Par ch=1 c=64 v=127
27426 On ch=1 n=b5 v=55
27440 Off ch=1 n=a5 v=64
27460 Off ch=1 n=f#5 v=64
27470 On ch=1 n=a5 v=45
27485 Off ch=1 n=b5 v=64
27502 On ch=1 n=e5 v=36
27508 On ch=1 n=e4 v=39
27509 On ch=1 n=g#5 v=66
27509 On ch=1 n=b4 v=54
27520 Off ch=1 n=e3 v=64
27523 Off ch=1 n=a5 v=64
27526 Par ch=1 c=64 v=0
27526 Par ch=1 c=64 v=0
27560 Off ch=1 n=b4 v=64
27561 Off ch=1 n=e4 v=64
27561 Par ch=1 c=64 v=127
27561 Par ch=1 c=64 v=127
27585 Off ch=1 n=e5 v=64
27616 On ch=1 n=a5 v=58
27643 Off ch=1 n=g#5 v=64
27698 On ch=1 n=d5 v=56
27702 On ch=1 n=b5 v=66
27705 Par ch=1 c=64 v=0
27705 Par ch=1 c=64 v=0
27713 On ch=1 n=e4 v=70
27725 Off ch=1 n=a5 v=64
27737 Par ch=1 c=64 v=127
27737 Par ch=1 c=64 v=127
27757 Off ch=1 n=e4 v=64
27832 On ch=1 n=f#5 v=63
27839 Off ch=1 n=b5 v=64
27868 Off ch=1 n=d5 v=64
27877 Par ch=1 c=64 v=0
27877 Par ch=1 c=64 v=0
27886 On ch=1 n=e5 v=58
27888 On ch=1 n=a3 v=59
27925 Par ch=1 c=64 v=127
27925 Par ch=1 c=64 v=127
27933 Off ch=1 n=f#5 v=64
28032 On ch=1 n=a5 v=36
28051 Off ch=1 n=e5 v=64
28058 Par ch=1 c=64 v=0
28058 Par ch=1 c=64 v=0
28069 On ch=1 n=c#6 v=72
28069 On ch=1 n=c#5 v=35
28073 On ch=1 n=a4 v=58
28083 Off ch=1 n=a3 v=64
28091 Off ch=1 n=a5 v=64
28098 Par ch=1 c=64 v=127
28098 Par ch=1 c=64 v=127
28113 Off ch=1 n=c#5 v=64
28117 Off ch=1 n=a4 v=64
28255 Par ch=1 c=64 v=0
28255 Par ch=1 c=64 v=0
28265 Off ch=1 n=c#6 v=64
28285 On ch=1 n=c#6 v=80
28288 On ch=1 n=a4 v=57
28290 On ch=1 n=e5 v=55
28344 Par ch=1 c=64 v=127
28344 Par ch=1 c=64 v=127
28396 Off ch=1 n=a4 v=64
28418 Off ch=1 n=e5 v=64
28487 On ch=1 n=a4 v=57
28490 On ch=1 n=d#5 v=48
28497 On ch=1 n=f#5 v=44
28507 Par ch=1 c=64 v=0
28507 Par ch=1 c=64 v=0
28549 Par ch=1 c=64 v=127
28549 Par ch=1 c=64 v=127
28606 On ch=1 n=d#6 v=53
28612 Off ch=1 n=c#6 v=64
28651 On ch=1 n=c#6 v=65
28668 Off ch=1 n=d#6 v=64
28699 On ch=1 n=c6 v=61
28700 On ch=1 n=g#4 v=61
28704 Off ch=1 n=a4 v=64
28710 Par ch=1 c=64 v=0
28710 Par ch=1 c=64 v=0
28713 Off ch=1 n=c#6 v=64
28762 Par ch=1 c=64 v=127
28762 Par ch=1 c=64 v=127
28818 Off ch=1 n=c6 v=64
28827 On ch=1 n=g#5 v=57
28886 On ch=1 n=b5 v=66
28892 On ch=1 n=f5 v=54
28892 On ch=1 n=c#5 v=58
28896 Off ch=1 n=d#5 v=64
28900 Off ch=1 n=g#5 v=64
28903 Off ch=1 n=f#5 v=64
28910 Par ch=1 c=64 v=0
28910 Par ch=1 c=64 v=0
28945 Par ch=1 c=64 v=127
28945 Par ch=1 c=64 v=127
29084 Off ch=1 n=c#5 v=64
29089 On ch=1 n=g4 v=54
29097 On ch=1 n=e5 v=57
29097 On ch=1 n=c#5 v=52
29106 Par ch=1 c=64 v=0
29106 Par ch=1 c=64 v=0
29108 Off ch=1 n=f5 v=64
29117 Off ch=1 n=g#4 v=64
29151 Par ch=1 c=64 v=127
29151 Par ch=1 c=64 v=127
29217 On ch=1 n=c#6 v=57
29228 Off ch=1 n=b5 v=64
29251 On ch=1 n=b5 v=59
29271 Off ch=1 n=c#6 v=64
29283 Par ch=1 c=64 v=0
29283 Par ch=1 c=64 v=0
29294 On ch=1 n=a#5 v=52
29294 On ch=1 n=f#4 v=58
29308 Off ch=1 n=b5 v=64
29308 Off ch=1 n=g4 v=64
29356 Par ch=1 c=64 v=127
29356 Par ch=1 c=64 v=127
29429 On ch=1 n=f#5 v=66
29440 Off ch=1 n=a#5 v=64
29479 On ch=1 n=a5 v=63
29483 On ch=1 n=c5 v=54
29485 Off ch=1 n=f#5 v=64
29485 On ch=1 n=d#5 v=48
29504 Par ch=1 c=64 v=0
29504 Par ch=1 c=64 v=0
29507 Off ch=1 n=c#5 v=64
29507 Off ch=1 n=e5 v=64
29537 Par ch=1 c=64 v=127
29537 Par ch=1 c=64 v=127
29685 Par ch=1 c=64 v=0
29685 Par ch=1 c=64 v=0
29690 On ch=1 n=b4 v=45
29690 On ch=1 n=f4 v=52
29691 On ch=1 n=d5 v=55
29696 Off ch=1 n=c5 v=64
29698 Off ch=1 n=d#5 v=64
29701 Off ch=1 n=f#4 v=64
29742 Par ch=1 c=64 v=127
29742 Par ch=1 c=64 v=127
29813 On ch=1 n=b5 v=55
29827 Off ch=1 n=a5 v=64
29852 On ch=1 n=a5 v=54
29872 Off ch=1 n=b5 v=64
29882 On ch=1 n=g#5 v=63
29888 On ch=1 n=e4 v=61
29895 Par ch=1 c=64 v=0
29895 Par ch=1 c=64 v=0
29900 Off ch=1 n=f4 v=64
29910 Off ch=1 n=a5 v=64
29931 Par ch=1 c=64 v=127
29931 Par ch=1 c=64 v=127
30017 Off ch=1 n=g#5 v=64
30017 On ch=1 n=e5 v=54
30078 On ch=1 n=g5 v=70
30079 On ch=1 n=c#5 v=61
30080 On ch=1 n=a#4 v=65
30085 Off ch=1 n=d5 v=64
30093 Par ch=1 c=64 v=0
30093 Par ch=1 c=64 v=0
30099 Off ch=1 n=e5 v=64
30100 Off ch=1 n=b4 v=64
30127 Par ch=1 c=64 v=127
30127 Par ch=1 c=64 v=127
30278 On ch=1 n=d#4 v=65
30283 Off ch=1 n=c#5 v=64
30287 Off ch=1 n=e4 v=64
30287 On ch=1 n=c#5 v=70
30288 On ch=1 n=a4 v=66
30295 Off ch=1 n=a#4 v=64
30300 Par ch=1 c=64 v=0
30300 Par ch=1 c=64 v=0
30333 Par ch=1 c=64 v=127
30333 Par ch=1 c=64 v=127
30425 On ch=1 n=a5 v=52
30433 Off ch=1 n=g5 v=64
30463 On ch=1 n=g5 v=62
30481 Off ch=1 n=a5 v=64
30495 On ch=1 n=d4 v=66
30501 On ch=1 n=f#5 v=72
30507 Par ch=1 c=64 v=0
30507 Par ch=1 c=64 v=0
30523 Off ch=1 n=d#4 v=64
30526 Off ch=1 n=g5 v=64
30549 Par ch=1 c=64 v=127
30549 Par ch=1 c=64 v=127
30618 On ch=1 n=d5 v=61
30630 Off ch=1 n=f#5 v=64
30654 Off ch=1 n=c#5 v=64
30727 Par ch=1 c=64 v=0
30727 Par ch=1 c=64 v=0
30734 On ch=1 n=f#5 v=76
30737 Off ch=1 n=d5 v=64
30742 On ch=1 n=b4 v=61
30742 On ch=1 n=g#4 v=65
30747 Off ch=1 n=a4 v=64
30770 Par ch=1 c=64 v=127
30770 Par ch=1 c=64 v=127
31002 On ch=1 n=c#3 v=66
31007 Off ch=1 n=g#4 v=64
31007 Off ch=1 n=b4 v=64
31007 On ch=1 n=c#4 v=72
31013 Off ch=1 n=d4 v=64
31017 Par ch=1 c=64 v=0
31017 Par ch=1 c=64 v=0
31066 Par ch=1 c=64 v=127
31066 Par ch=1 c=64 v=127
31171 On ch=1 n=g#5 v=52
31180 Off ch=1 n=f#5 v=64
31202 On ch=1 n=f#5 v=66
31213 Off ch=1 n=c#3 v=64
31218 Off ch=1 n=c#4 v=64
31228 Off ch=1 n=g#5 v=64
31238 On ch=1 n=g#4 v=65
31244 On ch=1 n=c#4 v=58
31250 On ch=1 n=f5 v=66
31250 On ch=1 n=b4 v=59
31260 Off ch=1 n=f#5 v=64
31261 Par ch=1 c=64 v=0
31261 Par ch=1 c=64 v=0
31296 Par ch=1 c=64 v=127
31296 Par ch=1 c=64 v=127
31306 Off ch=1 n=c#4 v=64
31323 Off ch=1 n=b4 v=64
31328 Off ch=1 n=g#4 v=64
31353 On ch=1 n=f#5 v=55
31361 Off ch=1 n=f5 v=64
31461 On ch=1 n=g#5 v=70
31461 On ch=1 n=c#4 v=59
31461 Par ch=1 c=64 v=0
31461 Par ch=1 c=64 v=0
31470 Off ch=1 n=f#5 v=64
31470 On ch=1 n=b4 v=66
31470 On ch=1 n=f4 v=59
31502 Par ch=1 c=64 v=127
31502 Par ch=1 c=64 v=127
31508 Off ch=1 n=b4 v=64
31517 Off ch=1 n=f4 v=64
31528 Off ch=1 n=c#4 v=64
31607 On ch=1 n=d5 v=57
31630 Off ch=1 n=g#5 v=64
31654 Par ch=1 c=64 v=0
31654 Par ch=1 c=64 v=0
31660 On ch=1 n=c#5 v=70
31665 On ch=1 n=f#3 v=58
31686 Off ch=1 n=d5 v=64
31724 Par ch=1 c=64 v=127
31724 Par ch=1 c=64 v=127
31820 On ch=1 n=f#5 v=58
31842 Off ch=1 n=c#5 v=64
31852 Par ch=1 c=64 v=0
31852 Par ch=1 c=64 v=0
31853 On ch=1 n=c#5 v=55
31858 On ch=1 n=f#4 v=63
31860 On ch=1 n=a5 v=66
31876 Off ch=1 n=f#3 v=64
31891 Off ch=1 n=f#5 v=64
31897 Off ch=1 n=c#5 v=64
31902 Off ch=1 n=f#4 v=64
31902 Par ch=1 c=64 v=127
31902 Par ch=1 c=64 v=127
31957 Par ch=1 c=64 v=0
31957 Par ch=1 c=64 v=0
31981 Par ch=1 c=64 v=127
31981 Par ch=1 c=64 v=127
32059 Off ch=1 n=a5 v=64
32086 On ch=1 n=a5 v=66
32086 On ch=1 n=f#5 v=65
32091 On ch=1 n=c#5 v=65
32095 On ch=1 n=f#4 v=62
32109 Par ch=1 c=64 v=127
32109 Par ch=1 c=64 v=127
32125 Off ch=1 n=c#5 v=64
32137 Off ch=1 n=f#4 v=64
32298 On ch=1 n=e3 v=70
32302 Par ch=1 c=64 v=0
32302 Par ch=1 c=64 v=0
32343 Par ch=1 c=64 v=127
32343 Par ch=1 c=64 v=127
32426 On ch=1 n=b5 v=50
32446 Off ch=1 n=a5 v=64
32462 Off ch=1 n=f#5 v=64
32464 On ch=1 n=a5 v=62
32484 Off ch=1 n=b5 v=64
32494 Par ch=1 c=64 v=0
32494 Par ch=1 c=64 v=0
32500 On ch=1 n=e5 v=35
32501 On ch=1 n=g#5 v=70
32506 Off ch=1 n=e3 v=64
32506 On ch=1 n=e4 v=42
32507 On ch=1 n=b4 v=52
32515 Off ch=1 n=a5 v=64
32547 Par ch=1 c=64 v=127
32547 Par ch=1 c=64 v=127
32556 Off ch=1 n=b4 v=64
32560 Off ch=1 n=e4 v=64
32604 Off ch=1 n=e5 v=64
32604 On ch=1 n=a5 v=53
32612 Off ch=1 n=g#5 v=64
32681 Par ch=1 c=64 v=0
32681 Par ch=1 c=64 v=0
32691 On ch=1 n=b5 v=63
32691 On ch=1 n=d5 v=61
32701 On ch=1 n=e4 v=58
32707 Off ch=1 n=a5 v=64
32744 Off ch=1 n=e4 v=64
32746 Par ch=1 c=64 v=127
32746 Par ch=1 c=64 v=127
32823 On ch=1 n=f#5 v=52
32851 Off ch=1 n=b5 v=64
32871 On ch=1 n=e5 v=66
32881 On ch=1 n=a3 v=59
32887 Par ch=1 c=64 v=0
32887 Par ch=1 c=64 v=0
32904 Off ch=1 n=f#5 v=64
32932 Par ch=1 c=64 v=127
32932 Par ch=1 c=64 v=127
33026 On ch=1 n=a5 v=48
33037 Par ch=1 c=64 v=0
33037 Par ch=1 c=64 v=0
33044 Off ch=1 n=e5 v=64
33056 On ch=1 n=c#5 v=31
33056 On ch=1 n=a4 v=58
33059 On ch=1 n=c#6 v=71
33071 Off ch=1 n=d5 v=64
33078 Par ch=1 c=64 v=127
33078 Par ch=1 c=64 v=127
33084 Off ch=1 n=a3 v=64
33087 Off ch=1 n=a5 v=64
33095 Par ch=1 c=64 v=0
33095 Par ch=1 c=64 v=0
33100 Off ch=1 n=a4 v=64
33100 Off ch=1 n=c#5 v=64
33142 Par ch=1 c=64 v=127
33142 Par ch=1 c=64 v=127
33186 Par ch=1 c=64 v=0
33186 Par ch=1 c=64 v=0
33258 Off ch=1 n=c#6 v=64
33276 On ch=1 n=e5 v=58
33278 On ch=1 n=c#6 v=66
33282 On ch=1 n=a4 v=59
33309 Par ch=1 c=64 v=127
33309 Par ch=1 c=64 v=127
33430 Off ch=1 n=e5 v=64
33536 On ch=1 n=d4 v=39
33539 On ch=1 n=e6 v=65
33548 On ch=1 n=f5 v=44
33558 Off ch=1 n=c#6 v=64
33564 Par ch=1 c=64 v=0
33564 Par ch=1 c=64 v=0
33617 Par ch=1 c=64 v=127
33617 Par ch=1 c=64 v=127
33661 Off ch=1 n=d4 v=64
33689 Off ch=1 n=e6 v=64
33692 On ch=1 n=d6 v=55
33712 Off ch=1 n=f5 v=64
33728 Off ch=1 n=a4 v=64
33729 On ch=1 n=c#6 v=55
33757 Off ch=1 n=d6 v=64
33774 On ch=1 n=a4 v=44
33777 On ch=1 n=b5 v=58
33777 On ch=1 n=f5 v=42
33777 On ch=1 n=d4 v=37
33794 Par ch=1 c=64 v=0
33794 Par ch=1 c=64 v=0
33805 Off ch=1 n=c#6 v=64
33837 Par ch=1 c=64 v=127
33837 Par ch=1 c=64 v=127
33849 Off ch=1 n=d4 v=64
33855 Off ch=1 n=a4 v=64
33888 Off ch=1 n=f5 v=64
33994 On ch=1 n=c#6 v=59
34003 On ch=1 n=e5 v=50
34009 Off ch=1 n=b5 v=64
34009 On ch=1 n=a4 v=52
34009 On ch=1 n=a3 v=55
34025 Par ch=1 c=64 v=0
34025 Par ch=1 c=64 v=0
34079 Par ch=1 c=64 v=127
34079 Par ch=1 c=64 v=127
34137 Off ch=1 n=e5 v=64
34173 Off ch=1 n=a3 v=64
34237 On ch=1 n=f5 v=55
34245 On ch=1 n=e6 v=59
34250 On ch=1 n=d4 v=52
34254 Par ch=1 c=64 v=0
34254 Par ch=1 c=64 v=0
34259 Off ch=1 n=c#6 v=64
34298 Par ch=1 c=64 v=127
34298 Par ch=1 c=64 v=127
34353 Off ch=1 n=a4 v=64
34354 Off ch=1 n=d4 v=64
34389 Off ch=1 n=e6 v=64
34399 On ch=1 n=d6 v=48
34418 Off ch=1 n=f5 v=64
34430 On ch=1 n=c#6 v=66
34463 Off ch=1 n=d6 v=64
34486 On ch=1 n=b5 v=53
34486 On ch=1 n=f5 v=53
34492 On ch=1 n=a4 v=55
34492 On ch=1 n=d4 v=58
34508 Off ch=1 n=c#6 v=64
34509 Par ch=1 c=64 v=0
34509 Par ch=1 c=64 v=0
34540 Par ch=1 c=64 v=127
34540 Par ch=1 c=64 v=127
34581 Off ch=1 n=d4 v=64
34590 Off ch=1 n=f5 v=64
34710 On ch=1 n=c#6 v=61
34713 On ch=1 n=e5 v=55
34718 On ch=1 n=a3 v=52
34723 Off ch=1 n=b5 v=64
34740 Par ch=1 c=64 v=0
34740 Par ch=1 c=64 v=0
34785 Par ch=1 c=64 v=127
34785 Par ch=1 c=64 v=127
34819 Off ch=1 n=e5 v=64
34984 Off ch=1 n=a3 v=64
34989 On ch=1 n=f#5 v=44
34996 Off ch=1 n=c#6 v=64
34996 On ch=1 n=e6 v=65
35006 On ch=1 n=d4 v=27
35026 Par ch=1 c=64 v=0
35026 Par ch=1 c=64 v=0
35071 Par ch=1 c=64 v=127
35071 Par ch=1 c=64 v=127
35133 Off ch=1 n=d4 v=64
35162 On ch=1 n=d6 v=46
35174 Off ch=1 n=e6 v=64
35199 On ch=1 n=c#6 v=55
35215 Off ch=1 n=d6 v=64
35248 On ch=1 n=g#4 v=53
35254 On ch=1 n=b5 v=58
35270 Off ch=1 n=c#6 v=64
35277 Par ch=1 c=64 v=0
35277 Par ch=1 c=64 v=0
35308 Off ch=1 n=a4 v=64
35322 Par ch=1 c=64 v=127
35322 Par ch=1 c=64 v=127
35418 Off ch=1 n=g#4 v=64
35427 Off ch=1 n=f#5 v=64
35516 On ch=1 n=c#6 v=46
35522 On ch=1 n=c#5 v=27
35522 On ch=1 n=c#4 v=39
35527 On ch=1 n=f5 v=44
35532 Off ch=1 n=b5 v=64
35549 Par ch=1 c=64 v=0
35549 Par ch=1 c=64 v=0
35592 Par ch=1 c=64 v=127
35592 Par ch=1 c=64 v=127
35614 Off ch=1 n=c#4 v=64
35655 Off ch=1 n=c#5 v=64
35673 Off ch=1 n=f5 v=64
35800 On ch=1 n=f#4 v=26
35801 On ch=1 n=b5 v=46
35801 On ch=1 n=f#5 v=37
35807 Off ch=1 n=c#6 v=64
35813 On ch=1 n=d5 v=29
35829 Par ch=1 c=64 v=0
35829 Par ch=1 c=64 v=0
35860 Par ch=1 c=64 v=127
35860 Par ch=1 c=64 v=127
35917 On ch=1 n=a5 v=29
35919 On ch=1 n=c#5 v=33
35927 Off ch=1 n=b5 v=64
35984 Off ch=1 n=f#5 v=64
35994 On ch=1 n=g#5 v=39
36002 Off ch=1 n=a5 v=64
36016 On ch=1 n=b4 v=37
36023 Off ch=1 n=c#5 v=64
36023 Off ch=1 n=d5 v=64
36078 On ch=1 n=f#5 v=39
36087 Par ch=1 c=64 v=0
36087 Par ch=1 c=64 v=0
36098 Off ch=1 n=g#5 v=64
36101 Off ch=1 n=b4 v=64
36102 On ch=1 n=a4 v=22
36108 Off ch=1 n=f#4 v=64
36177 Par ch=1 c=64 v=127
36177 Par ch=1 c=64 v=127
36227 Off ch=1 n=f#5 v=64
36366 Off ch=1 n=a4 v=64
36373 On ch=1 n=c#6 v=79
36583 Par ch=1 c=64 v=0
36583 Par ch=1 c=64 v=0
36589 Off ch=1 n=c#6 v=64
36595 On ch=1 n=c#3 v=71
36602 On ch=1 n=c#7 v=74
36602 On ch=1 n=c#4 v=76
36605 On ch=1 n=c#6 v=71
36641 Par ch=1 c=64 v=127
36641 Par ch=1 c=64 v=127
36761 Off ch=1 n=c#6 v=64
36811 On ch=1 n=g#4 v=55
36813 On ch=1 n=c#6 v=72
36903 Off ch=1 n=c#6 v=64
36904 On ch=1 n=c#5 v=46
36910 On ch=1 n=g#5 v=83
36980 On ch=1 n=d#5 v=66
36992 On ch=1 n=c6 v=66
37001 Off ch=1 n=c#5 v=64
37017 Off ch=1 n=g#5 v=64
37066 On ch=1 n=f#5 v=70
37074 On ch=1 n=d6 v=66
37085 Off ch=1 n=d#5 v=64
37086 Off ch=1 n=c6 v=64
37113 Off ch=1 n=c#3 v=64
37118 Off ch=1 n=c#4 v=64
37128 Off ch=1 n=c#7 v=64
37145 Off ch=1 n=f#5 v=64
37155 On ch=1 n=c#6 v=72
37159 On ch=1 n=f5 v=70
37169 Par ch=1 c=64 v=0
37169 Par ch=1 c=64 v=0
37176 Off ch=1 n=d6 v=64
37203 Par ch=1 c=64 v=127
37203 Par ch=1 c=64 v=127
37284 On ch=1 n=d#5 v=66
37292 Off ch=1 n=f5 v=64
37294 On ch=1 n=c6 v=58
37304 Off ch=1 n=c#6 v=64
37333 On ch=1 n=b5 v=71
37339 Off ch=1 n=d#5 v=64
37343 On ch=1 n=d5 v=71
37346 Off ch=1 n=c6 v=64
37349 Par ch=1 c=64 v=0
37349 Par ch=1 c=64 v=0
37382 Par ch=1 c=64 v=127
37382 Par ch=1 c=64 v=127
37388 Off ch=1 n=b5 v=64
37470 Off ch=1 n=d5 v=64
37529 Off ch=1 n=g#4 v=64
37539 On ch=1 n=b4 v=61
37540 On ch=1 n=b5 v=74
37552 Par ch=1 c=64 v=0
37552 Par ch=1 c=64 v=0
37562 Par ch=1 c=64 v=127
37562 Par ch=1 c=64 v=127
37572 Off ch=1 n=b4 v=64
37579 Off ch=1 n=b5 v=64
37740 On ch=1 n=c#7 v=80
37740 Par ch=1 c=64 v=0
37740 Par ch=1 c=64 v=0
37747 On ch=1 n=c#6 v=74
37747 On ch=1 n=c#4 v=80
37747 On ch=1 n=c#3 v=66
37770 Par ch=1 c=64 v=127
37770 Par ch=1 c=64 v=127
37903 Off ch=1 n=c#6 v=64
37926 On ch=1 n=g#4 v=27
37942 On ch=1 n=c#6 v=67
38019 Off ch=1 n=c#6 v=64
38021 On ch=1 n=c#5 v=55
38032 On ch=1 n=g#5 v=80
38099 On ch=1 n=d#5 v=65
38103 Off ch=1 n=c#5 v=64
38118 On ch=1 n=c6 v=67
38138 Off ch=1 n=g#5 v=64
38197 On ch=1 n=f#5 v=63
38200 On ch=1 n=d6 v=66
38214 Off ch=1 n=c6 v=64
38217 Off ch=1 n=d#5 v=64
38261 Off ch=1 n=c#3 v=64
38263 Off ch=1 n=c#4 v=64
38263 Off ch=1 n=c#7 v=64
38282 Off ch=1 n=f#5 v=64
38286 On ch=1 n=c#6 v=67
38296 On ch=1 n=f5 v=63
38305 Off ch=1 n=d6 v=64
38367 On ch=1 n=c6 v=55
38372 On ch=1 n=d#5 v=65
38379 Off ch=1 n=c#6 v=64
38395 Off ch=1 n=f5 v=64
38454 Par ch=1 c=64 v=0
38454 Par ch=1 c=64 v=0
38458 On ch=1 n=g#6 v=70
38464 Off ch=1 n=c6 v=64
38467 Off ch=1 n=d#5 v=64
38467 On ch=1 n=b5 v=66
38472 On ch=1 n=d5 v=63
38525 Par ch=1 c=64 v=127
38525 Par ch=1 c=64 v=127
38631 Off ch=1 n=g#4 v=64
38654 On ch=1 n=b4 v=59
38666 Off ch=1 n=d5 v=64
38689 Off ch=1 n=b4 v=64
38745 On ch=1 n=f#6 v=61
38750 Off ch=1 n=g#6 v=64
38758 Off ch=1 n=b5 v=64
38884 Par ch=1 c=64 v=0
38884 Par ch=1 c=64 v=0
38889 On ch=1 n=c#7 v=83
38895 On ch=1 n=c#3 v=71
38897 On ch=1 n=f6 v=71
38897 On ch=1 n=c#6 v=76
38897 On ch=1 n=c#4 v=79
38907 Off ch=1 n=f#6 v=64
38926 Par ch=1 c=64 v=127
38926 Par ch=1 c=64 v=127
39050 Off ch=1 n=c#6 v=64
39111 On ch=1 n=g#4 v=53
39115 On ch=1 n=c#6 v=67
39207 On ch=1 n=c#5 v=61
39212 Off ch=1 n=c#6 v=64
39216 On ch=1 n=g#5 v=80
39285 On ch=1 n=d#5 v=50
39294 Off ch=1 n=c#5 v=64
39294 On ch=1 n=c6 v=66
39300 Off ch=1 n=g#5 v=64
39377 On ch=1 n=d6 v=65
39379 On ch=1 n=f#5 v=72
39393 Off ch=1 n=c6 v=64
39398 Off ch=1 n=d#5 v=64
39410 Off ch=1 n=c#3 v=64
39417 Off ch=1 n=c#4 v=64
39423 Off ch=1 n=c#7 v=64
39430 Off ch=1 n=f6 v=64
39452 Off ch=1 n=f#5 v=64
39468 On ch=1 n=c#6 v=70
39470 Par ch=1 c=64 v=0
39470 Par ch=1 c=64 v=0
39479 On ch=1 n=f5 v=67
39495 Off ch=1 n=d6 v=64
39521 Par ch=1 c=64 v=127
39521 Par ch=1 c=64 v=127
39601 Off ch=1 n=f5 v=64
39601 On ch=1 n=d#5 v=55
39611 On ch=1 n=c6 v=66
39633 Off ch=1 n=c#6 v=64
39652 On ch=1 n=b5 v=70
39652 On ch=1 n=d5 v=66
39661 Off ch=1 n=d#5 v=64
39665 Off ch=1 n=c6 v=64
39667 Par ch=1 c=64 v=0
39667 Par ch=1 c=64 v=0
39696 Par ch=1 c=64 v=127
39696 Par ch=1 c=64 v=127
39707 Off ch=1 n=b5 v=64
39735 Off ch=1 n=d5 v=64
39834 Off ch=1 n=g#4 v=64
39848 On ch=1 n=b4 v=65
39850 On ch=1 n=b5 v=70
39880 Off ch=1 n=b4 v=64
39890 Off ch=1 n=b5 v=64
40045 Par ch=1 c=64 v=0
40045 Par ch=1 c=64 v=0
40055 On ch=1 n=c#7 v=79
40055 On ch=1 n=c#3 v=66
40061 On ch=1 n=c#6 v=83
40061 On ch=1 n=c#4 v=80
40080 Par ch=1 c=64 v=127
40080 Par ch=1 c=64 v=127
40217 Off ch=1 n=c#6 v=64
40260 On ch=1 n=g#4 v=59
40270 On ch=1 n=c#6 v=66
40300 Par ch=1 c=64 v=0
40300 Par ch=1 c=64 v=0
40315 Par ch=1 c=64 v=127
40315 Par ch=1 c=64 v=127
40358 Off ch=1 n=c#6 v=64
40365 On ch=1 n=g#5 v=80
40368 On ch=1 n=c#5 v=58
40450 On ch=1 n=d#5 v=66
40453 On ch=1 n=c6 v=66
40458 Off ch=1 n=c#5 v=64
40458 Off ch=1 n=g#5 v=64
40539 On ch=1 n=f#5 v=70
40546 On ch=1 n=d6 v=66
40557 Off ch=1 n=c6 v=64
40562 Off ch=1 n=d#5 v=64
40576 Off ch=1 n=c#3 v=64
40578 Off ch=1 n=c#7 v=64
40581 Off ch=1 n=c#4 v=64
40650 On ch=1 n=c#6 v=61
40656 On ch=1 n=f5 v=49
40664 Off ch=1 n=d6 v=64
40670 Off ch=1 n=f#5 v=64
40677 Par ch=1 c=64 v=0
40677 Par ch=1 c=64 v=0
40699 Par ch=1 c=64 v=127
40699 Par ch=1 c=64 v=127
40758 On ch=1 n=d#5 v=55
40762 On ch=1 n=c6 v=63
40774 Off ch=1 n=f5 v=64
40789 Off ch=1 n=c#6 v=64
40876 On ch=1 n=b5 v=58
40883 Off ch=1 n=c6 v=64
40883 On ch=1 n=d5 v=40
40893 Off ch=1 n=d#5 v=64
40895 Par ch=1 c=64 v=0
40895 Par ch=1 c=64 v=0
40918 Par ch=1 c=64 v=127
40918 Par ch=1 c=64 v=127
41042 On ch=1 n=c#5 v=42
41052 On ch=1 n=a5 v=55
41069 Off ch=1 n=d5 v=64
41075 Off ch=1 n=g#4 v=64
41085 Off ch=1 n=b5 v=64
41196 On ch=1 n=b4 v=48
41216 Off ch=1 n=c#5 v=64
41271 On ch=1 n=g#5 v=54
41299 Off ch=1 n=a5 v=64
41338 Par ch=1 c=64 v=0
41338 Par ch=1 c=64 v=0
41360 On ch=1 n=f#5 v=57
41360 On ch=1 n=a4 v=50
41370 Off ch=1 n=g#5 v=64
41379 Off ch=1 n=b4 v=64
41395 Par ch=1 c=64 v=127
41395 Par ch=1 c=64 v=127
41506 On ch=1 n=g#5 v=44
41509 Off ch=1 n=f#5 v=64
41541 On ch=1 n=f#5 v=62
41560 Off ch=1 n=g#5 v=64
41576 On ch=1 n=g#4 v=48
41580 On ch=1 n=f5 v=57
41581 Off ch=1 n=a4 v=64
41593 Par ch=1 c=64 v=0
41593 Par ch=1 c=64 v=0
41600 Off ch=1 n=f#5 v=64
41626 Par ch=1 c=64 v=127
41626 Par ch=1 c=64 v=127
41681 On ch=1 n=f#5 v=67
41688 Off ch=1 n=f5 v=64
41779 Par ch=1 c=64 v=0
41779 Par ch=1 c=64 v=0
41784 On ch=1 n=g#5 v=67
41784 On ch=1 n=c#4 v=58
41792 Off ch=1 n=f#5 v=64
41792 On ch=1 n=f4 v=55
41796 On ch=1 n=b4 v=52
41811 Off ch=1 n=g#4 v=64
41818 Par ch=1 c=64 v=127
41818 Par ch=1 c=64 v=127
41828 Off ch=1 n=b4 v=64
41829 Off ch=1 n=f4 v=64
41841 Off ch=1 n=c#4 v=64
41940 On ch=1 n=d5 v=52
41945 Off ch=1 n=g#5 v=64
41980 On ch=1 n=c#5 v=58
41990 On ch=1 n=f#3 v=58
41999 Par ch=1 c=64 v=0
41999 Par ch=1 c=64 v=0
42021 Off ch=1 n=d5 v=64
42052 Par ch=1 c=64 v=127
42052 Par ch=1 c=64 v=127
42140 On ch=1 n=f#5 v=53
42157 Off ch=1 n=c#5 v=64
42173 On ch=1 n=f#4 v=58
42175 On ch=1 n=a5 v=66
42176 On ch=1 n=c#5 v=55
42188 Par ch=1 c=64 v=0
42188 Par ch=1 c=64 v=0
42198 Off ch=1 n=f#3 v=64
42208 Off ch=1 n=f#5 v=64
42214 Off ch=1 n=f#4 v=64
42217 Off ch=1 n=c#5 v=64
42285 Par ch=1 c=64 v=127
42285 Par ch=1 c=64 v=127
42371 Off ch=1 n=a5 v=64
42405 On ch=1 n=a5 v=66
42405 On ch=1 n=f#5 v=63
42411 On ch=1 n=c#5 v=58
42418 On ch=1 n=f#4 v=48
42429 Par ch=1 c=64 v=127
42429 Par ch=1 c=64 v=127
42438 Off ch=1 n=c#5 v=64
42442 Off ch=1 n=f#4 v=64
42605 On ch=1 n=e3 v=63
42605 Par ch=1 c=64 v=0
42605 Par ch=1 c=64 v=0
42647 Par ch=1 c=64 v=127
42647 Par ch=1 c=64 v=127
42728 On ch=1 n=b5 v=53
42738 Off ch=1 n=a5 v=64
42756 Off ch=1 n=f#5 v=64
42765 On ch=1 n=a5 v=48
42772 Off ch=1 n=b5 v=64
42795 On ch=1 n=g#5 v=66
42811 On ch=1 n=e5 v=29
42811 On ch=1 n=e4 v=52
42813 Off ch=1 n=e3 v=64
42817 Off ch=1 n=a5 v=64
42818 On ch=1 n=b4 v=49
42827 Par ch=1 c=64 v=0
42827 Par ch=1 c=64 v=0
42851 Off ch=1 n=e4 v=64
42856 Off ch=1 n=b4 v=64
42863 Par ch=1 c=64 v=127
42863 Par ch=1 c=64 v=127
42910 Off ch=1 n=e5 v=64
42912 On ch=1 n=a5 v=55
42932 Off ch=1 n=g#5 v=64
43000 Par ch=1 c=64 v=0
43000 Par ch=1 c=64 v=0
43008 On ch=1 n=b5 v=72
43008 On ch=1 n=d5 v=66
43008 On ch=1 n=e4 v=63
43015 Off ch=1 n=a5 v=64
43035 Par ch=1 c=64 v=127
43035 Par ch=1 c=64 v=127
43056 Off ch=1 n=e4 v=64
43138 Off ch=1 n=b5 v=64
43150 On ch=1 n=f#5 v=48
43181 On ch=1 n=e5 v=62
43186 Par ch=1 c=64 v=0
43186 Par ch=1 c=64 v=0
43195 On ch=1 n=a3 v=58
43227 Off ch=1 n=f#5 v=64
43234 Par ch=1 c=64 v=127
43234 Par ch=1 c=64 v=127
43314 On ch=1 n=a5 v=48
43341 Off ch=1 n=e5 v=64
43357 Par ch=1 c=64 v=0
43357 Par ch=1 c=64 v=0
43362 On ch=1 n=c#5 v=58
43366 On ch=1 n=a4 v=55
43367 On ch=1 n=c#6 v=74
43368 Off ch=1 n=a5 v=64
43375 Off ch=1 n=d5 v=64
43390 Off ch=1 n=a3 v=64
43406 Off ch=1 n=c#5 v=64
43407 Par ch=1 c=64 v=127
43407 Par ch=1 c=64 v=127
43410 Off ch=1 n=a4 v=64
43501 Par ch=1 c=64 v=0
43501 Par ch=1 c=64 v=0
43551 Par ch=1 c=64 v=127
43551 Par ch=1 c=64 v=127
43562 On ch=1 n=e5 v=58
43565 Par ch=1 c=64 v=0
43565 Par ch=1 c=64 v=0
43566 Off ch=1 n=c#6 v=64
43566 On ch=1 n=a4 v=55
43573 On ch=1 n=c#6 v=85
43620 Par ch=1 c=64 v=127
43620 Par ch=1 c=64 v=127
43769 Off ch=1 n=a4 v=64
43783 Off ch=1 n=e5 v=64
43783 On ch=1 n=a4 v=59
43785 On ch=1 n=d#5 v=58
43790 On ch=1 n=f#5 v=59
43800 Par ch=1 c=64 v=0
43800 Par ch=1 c=64 v=0
43843 Par ch=1 c=64 v=127
43843 Par ch=1 c=64 v=127
43884 Off ch=1 n=c#6 v=64
43894 On ch=1 n=d#6 v=55
43936 On ch=1 n=c#6 v=61
43953 Off ch=1 n=d#6 v=64
43976 On ch=1 n=c6 v=66
43982 On ch=1 n=g#4 v=66
43994 Off ch=1 n=a4 v=64
43997 Off ch=1 n=c#6 v=64
44004 Par ch=1 c=64 v=0
44004 Par ch=1 c=64 v=0
44048 Par ch=1 c=64 v=127
44048 Par ch=1 c=64 v=127
44107 Off ch=1 n=c6 v=64
44110 On ch=1 n=g#5 v=63
44170 On ch=1 n=b5 v=63
44178 On ch=1 n=f5 v=58
44178 On ch=1 n=c#5 v=58
44185 Off ch=1 n=g#5 v=64
44192 Off ch=1 n=d#5 v=64
44195 Par ch=1 c=64 v=0
44195 Par ch=1 c=64 v=0
44197 Off ch=1 n=f#5 v=64
44226 Par ch=1 c=64 v=127
44226 Par ch=1 c=64 v=127
44369 Off ch=1 n=c#5 v=64
44375 On ch=1 n=g4 v=59
44380 On ch=1 n=e5 v=58
44380 On ch=1 n=c#5 v=50
44387 Off ch=1 n=f5 v=64
44392 Par ch=1 c=64 v=0
44392 Par ch=1 c=64 v=0
44404 Off ch=1 n=g#4 v=64
44437 Par ch=1 c=64 v=127
44437 Par ch=1 c=64 v=127
44496 Off ch=1 n=b5 v=64
44496 On ch=1 n=c#6 v=57
44535 On ch=1 n=b5 v=58
44557 Off ch=1 n=c#6 v=64
44569 Par ch=1 c=64 v=0
44569 Par ch=1 c=64 v=0
44572 On ch=1 n=f#4 v=61
44579 On ch=1 n=a#5 v=53
44585 Off ch=1 n=g4 v=64
44594 Off ch=1 n=b5 v=64
44632 Par ch=1 c=64 v=127
44632 Par ch=1 c=64 v=127
44706 On ch=1 n=f#5 v=66
44714 Off ch=1 n=a#5 v=64
44764 On ch=1 n=a5 v=57
44764 On ch=1 n=d#5 v=54
44769 On ch=1 n=c5 v=57
44774 Par ch=1 c=64 v=0
44774 Par ch=1 c=64 v=0
44775 Off ch=1 n=c#5 v=64
44775 Off ch=1 n=e5 v=64
44778 Off ch=1 n=f#5 v=64
44828 Par ch=1 c=64 v=127
44828 Par ch=1 c=64 v=127
44958 On ch=1 n=d5 v=53
44964 On ch=1 n=f4 v=48
44965 On ch=1 n=b4 v=50
44971 Off ch=1 n=d#5 v=64
44973 Off ch=1 n=f#4 v=64
44976 Off ch=1 n=c5 v=64
44981 Par ch=1 c=64 v=0
44981 Par ch=1 c=64 v=0
45027 Par ch=1 c=64 v=127
45027 Par ch=1 c=64 v=127
45082 On ch=1 n=b5 v=53
45091 Off ch=1 n=a5 v=64
45115 On ch=1 n=a5 v=58
45129 Off ch=1 n=b5 v=64
45141 On ch=1 n=g#5 v=63
45155 On ch=1 n=e4 v=58
45161 Off ch=1 n=f4 v=64
45166 Par ch=1 c=64 v=0
45166 Par ch=1 c=64 v=0
45170 Off ch=1 n=a5 v=64
45217 Par ch=1 c=64 v=127
45217 Par ch=1 c=64 v=127
45268 On ch=1 n=e5 v=48
45270 Off ch=1 n=g#5 v=64
45340 On ch=1 n=g5 v=72
45342 On ch=1 n=a#4 v=58
45345 On ch=1 n=c#5 v=58
45350 Off ch=1 n=d5 v=64
45351 Par ch=1 c=64 v=0
45351 Par ch=1 c=64 v=0
45357 Off ch=1 n=b4 v=64
45365 Off ch=1 n=e5 v=64
45409 Par ch=1 c=64 v=127
45409 Par ch=1 c=64 v=127
45521 Off ch=1 n=c#5 v=64
45533 On ch=1 n=c#5 v=57
45534 On ch=1 n=a4 v=55
45535 On ch=1 n=d#4 v=53
45551 Off ch=1 n=a#4 v=64
45555 Par ch=1 c=64 v=0
45555 Par ch=1 c=64 v=0
45565 Off ch=1 n=e4 v=64
45606 Par ch=1 c=64 v=127
45606 Par ch=1 c=64 v=127
45663 On ch=1 n=a5 v=54
45679 Off ch=1 n=g5 v=64
45704 On ch=1 n=g5 v=55
45718 Off ch=1 n=a5 v=64
45733 Par ch=1 c=64 v=0
45733 Par ch=1 c=64 v=0
45739 On ch=1 n=d4 v=58
45741 On ch=1 n=f#5 v=70
45751 Off ch=1 n=d#4 v=64
45760 Off ch=1 n=g5 v=64
45802 Par ch=1 c=64 v=127
45802 Par ch=1 c=64 v=127
45845 On ch=1 n=d5 v=57
45853 Off ch=1 n=f#5 v=64
45897 Off ch=1 n=c#5 v=64
45958 On ch=1 n=f#5 v=76
45960 Par ch=1 c=64 v=0
45960 Par ch=1 c=64 v=0
45966 On ch=1 n=g#4 v=65
45967 On ch=1 n=b4 v=62
45968 Off ch=1 n=a4 v=64
45979 Off ch=1 n=d5 v=64
45989 Par ch=1 c=64 v=127
45989 Par ch=1 c=64 v=127
46173 Off ch=1 n=g#4 v=64
46174 Off ch=1 n=b4 v=64
46186 Par ch=1 c=64 v=0
46186 Par ch=1 c=64 v=0
46190 On ch=1 n=c#3 v=66
46194 On ch=1 n=c#4 v=72
46204 Off ch=1 n=d4 v=64
46244 Par ch=1 c=64 v=127
46244 Par ch=1 c=64 v=127
46344 Off ch=1 n=f#5 v=64
46350 On ch=1 n=g#5 v=54
46387 On ch=1 n=f#5 v=70
46401 Off ch=1 n=c#3 v=64
46405 Off ch=1 n=c#4 v=64
46410 Off ch=1 n=g#5 v=64
46417 On ch=1 n=c#4 v=59
46418 On ch=1 n=b4 v=62
46421 On ch=1 n=g#4 v=61
46422 Par ch=1 c=64 v=0
46422 Par ch=1 c=64 v=0
46428 On ch=1 n=f5 v=63
46439 Off ch=1 n=f#5 v=64
46472 Par ch=1 c=64 v=127
46472 Par ch=1 c=64 v=127
46480 Off ch=1 n=c#4 v=64
46484 Off ch=1 n=g#4 v=64
46486 Off ch=1 n=b4 v=64
46522 On ch=1 n=f#5 v=71
46532 Off ch=1 n=f5 v=64
46615 Par ch=1 c=64 v=0
46615 Par ch=1 c=64 v=0
46621 On ch=1 n=g#5 v=63
46621 On ch=1 n=c#4 v=58
46630 On ch=1 n=b4 v=62
46630 On ch=1 n=f4 v=58
46633 Off ch=1 n=f#5 v=64
46668 Off ch=1 n=b4 v=64
46670 Off ch=1 n=f4 v=64
46671 Par ch=1 c=64 v=127
46671 Par ch=1 c=64 v=127
46682 Off ch=1 n=c#4 v=64
46763 On ch=1 n=d5 v=54
46773 Off ch=1 n=g#5 v=64
46808 On ch=1 n=c#5 v=63
46817 On ch=1 n=f#3 v=59
46821 Par ch=1 c=64 v=0
46821 Par ch=1 c=64 v=0
46840 Off ch=1 n=d5 v=64
46876 Par ch=1 c=64 v=127
46876 Par ch=1 c=64 v=127
46956 On ch=1 n=f#5 v=54
46979 Off ch=1 n=c#5 v=64
46989 Par ch=1 c=64 v=0
46989 Par ch=1 c=64 v=0
46994 On ch=1 n=c#5 v=55
46995 On ch=1 n=a5 v=63
46995 On ch=1 n=f#4 v=66
47022 Off ch=1 n=f#5 v=64
47025 Off ch=1 n=f#3 v=64
47035 Off ch=1 n=c#5 v=64
47036 Off ch=1 n=f#4 v=64
47111 Par ch=1 c=64 v=127
47111 Par ch=1 c=64 v=127
47191 Off ch=1 n=a5 v=64
47218 On ch=1 n=a5 v=62
47218 On ch=1 n=f#5 v=62
47227 On ch=1 n=c#5 v=58
47227 On ch=1 n=f#4 v=63
47243 Par ch=1 c=64 v=127
47243 Par ch=1 c=64 v=127
47253 Off ch=1 n=c#5 v=64
47261 Off ch=1 n=f#4 v=64
47412 Par ch=1 c=64 v=0
47412 Par ch=1 c=64 v=0
47420 On ch=1 n=e3 v=61
47427 On ch=1 n=e4 v=58
47463 Par ch=1 c=64 v=127
47463 Par ch=1 c=64 v=127
47479 Off ch=1 n=e4 v=64
47502 Off ch=1 n=a5 v=64
47526 On ch=1 n=b5 v=55
47577 On ch=1 n=a5 v=55
47580 Off ch=1 n=f#5 v=64
47587 Off ch=1 n=b5 v=64
47607 Par ch=1 c=64 v=0
47607 Par ch=1 c=64 v=0
47612 On ch=1 n=g#5 v=59
47612 On ch=1 n=e4 v=48
47618 On ch=1 n=b4 v=52
47626 On ch=1 n=e5 v=44
47631 Off ch=1 n=a5 v=64
47631 Off ch=1 n=e3 v=64
47656 Off ch=1 n=e4 v=64
47660 Off ch=1 n=b4 v=64
47663 Par ch=1 c=64 v=127
47663 Par ch=1 c=64 v=127
47721 Off ch=1 n=e5 v=64
47721 On ch=1 n=a5 v=58
47751 Off ch=1 n=g#5 v=64
47797 Par ch=1 c=64 v=0
47797 Par ch=1 c=64 v=0
47803 On ch=1 n=d5 v=65
47804 On ch=1 n=b5 v=66
47808 On ch=1 n=e4 v=62
47818 Off ch=1 n=a5 v=64
47841 Par ch=1 c=64 v=127
47841 Par ch=1 c=64 v=127
47852 Off ch=1 n=e4 v=64
47942 Off ch=1 n=b5 v=64
47945 On ch=1 n=f#5 v=50
47980 Par ch=1 c=64 v=0
47980 Par ch=1 c=64 v=0
47986 On ch=1 n=e5 v=59
47988 On ch=1 n=a3 v=63
48016 Off ch=1 n=f#5 v=64
48051 Par ch=1 c=64 v=127
48051 Par ch=1 c=64 v=127
48125 On ch=1 n=a5 v=37
48144 Off ch=1 n=e5 v=64
48166 Par ch=1 c=64 v=0
48166 Par ch=1 c=64 v=0
48176 On ch=1 n=c#6 v=76
48176 On ch=1 n=c#5 v=28
48180 On ch=1 n=a4 v=63
48190 Off ch=1 n=d5 v=64
48194 Off ch=1 n=a5 v=64
48197 Off ch=1 n=a3 v=64
48217 Off ch=1 n=c#5 v=64
48221 Off ch=1 n=a4 v=64
48372 Off ch=1 n=c#6 v=64
48396 On ch=1 n=c#6 v=66
48401 On ch=1 n=a4 v=62
48403 On ch=1 n=e5 v=61
48421 Par ch=1 c=64 v=127
48421 Par ch=1 c=64 v=127
48569 Off ch=1 n=e5 v=64
48666 On ch=1 n=d4 v=55
48667 On ch=1 n=e6 v=61
48671 On ch=1 n=f5 v=54
48677 Off ch=1 n=c#6 v=64
48687 Par ch=1 c=64 v=0
48687 Par ch=1 c=64 v=0
48741 Par ch=1 c=64 v=127
48741 Par ch=1 c=64 v=127
48790 Off ch=1 n=a4 v=64
48792 Off ch=1 n=d4 v=64
48825 Off ch=1 n=e6 v=64
48826 On ch=1 n=d6 v=52
48841 Off ch=1 n=f5 v=64
48861 On ch=1 n=c#6 v=58
48893 Off ch=1 n=d6 v=64
48903 On ch=1 n=b5 v=57
48908 On ch=1 n=a4 v=53
48912 On ch=1 n=d4 v=53
48914 On ch=1 n=f5 v=44
48921 Par ch=1 c=64 v=0
48921 Par ch=1 c=64 v=0
48930 Off ch=1 n=c#6 v=64
48959 Par ch=1 c=64 v=127
48959 Par ch=1 c=64 v=127
48967 Off ch=1 n=a4 v=64
48973 Off ch=1 n=d4 v=64
48998 Off ch=1 n=f5 v=64
49107 On ch=1 n=c#6 v=62
49114 On ch=1 n=e5 v=53
49123 On ch=1 n=a4 v=52
49123 On ch=1 n=a3 v=50
49131 Off ch=1 n=b5 v=64
49136 Par ch=1 c=64 v=0
49136 Par ch=1 c=64 v=0
49176 Par ch=1 c=64 v=127
49176 Par ch=1 c=64 v=127
49241 Off ch=1 n=e5 v=64
49296 Off ch=1 n=a3 v=64
49319 On ch=1 n=f5 v=66
49323 On ch=1 n=e6 v=59
49329 On ch=1 n=d4 v=53
49333 Par ch=1 c=64 v=0
49333 Par ch=1 c=64 v=0
49343 Off ch=1 n=c#6 v=64
49366 Par ch=1 c=64 v=127
49366 Par ch=1 c=64 v=127
49398 Off ch=1 n=d4 v=64
49420 Off ch=1 n=a4 v=64
49449 On ch=1 n=d6 v=61
49454 Off ch=1 n=e6 v=64
49463 Off ch=1 n=f5 v=64
49483 On ch=1 n=c#6 v=66
49514 Off ch=1 n=d6 v=64
49524 On ch=1 n=d4 v=48
49530 On ch=1 n=b5 v=66
49530 On ch=1 n=f5 v=58
49530 On ch=1 n=a4 v=53
49541 Par ch=1 c=64 v=0
49541 Par ch=1 c=64 v=0
49562 Off ch=1 n=c#6 v=64
49578 Par ch=1 c=64 v=127
49578 Par ch=1 c=64 v=127
49643 Off ch=1 n=d4 v=64
49650 Off ch=1 n=f5 v=64
49705 Off ch=1 n=a4 v=64
49758 On ch=1 n=c#6 v=61
49766 On ch=1 n=e5 v=50
49769 On ch=1 n=a3 v=44
49776 On ch=1 n=a4 v=44
49781 Off ch=1 n=b5 v=64
49795 Par ch=1 c=64 v=0
49795 Par ch=1 c=64 v=0
49840 Par ch=1 c=64 v=127
49840 Par ch=1 c=64 v=127
49864 Off ch=1 n=e5 v=64
49964 Off ch=1 n=a3 v=64
50032 On ch=1 n=e6 v=57
50036 On ch=1 n=f#5 v=41
50040 Off ch=1 n=c#6 v=64
50040 On ch=1 n=d4 v=39
50070 Par ch=1 c=64 v=0
50070 Par ch=1 c=64 v=0
50105 Par ch=1 c=64 v=127
50105 Par ch=1 c=64 v=127
50116 Off ch=1 n=d4 v=64
50196 On ch=1 n=d6 v=45
50226 Off ch=1 n=e6 v=64
50235 On ch=1 n=c#6 v=52
50255 Off ch=1 n=d6 v=64
50279 On ch=1 n=g#4 v=49
50283 Off ch=1 n=a4 v=64
50287 On ch=1 n=b5 v=55
50304 Off ch=1 n=c#6 v=64
50312 Par ch=1 c=64 v=0
50312 Par ch=1 c=64 v=0
50346 Par ch=1 c=64 v=127
50346 Par ch=1 c=64 v=127
50448 Off ch=1 n=f#5 v=64
50469 Off ch=1 n=g#4 v=64
50544 On ch=1 n=c#6 v=50
50550 On ch=1 n=c#4 v=35
50555 On ch=1 n=c#5 v=27
50560 On ch=1 n=f5 v=44
50561 Off ch=1 n=b5 v=64
50571 Par ch=1 c=64 v=0
50571 Par ch=1 c=64 v=0
50604 Par ch=1 c=64 v=127
50604 Par ch=1 c=64 v=127
50648 Off ch=1 n=c#4 v=64
50678 Off ch=1 n=f5 v=64
50684 Off ch=1 n=c#5 v=64
50826 On ch=1 n=f#4 v=24
50828 On ch=1 n=f#5 v=37
50831 On ch=1 n=b5 v=45
50837 On ch=1 n=d5 v=29
50845 Off ch=1 n=c#6 v=64
50850 Par ch=1 c=64 v=0
50850 Par ch=1 c=64 v=0
50875 Par ch=1 c=64 v=127
50875 Par ch=1 c=64 v=127
50924 Off ch=1 n=b5 v=64
50930 On ch=1 n=c#5 v=44
50935 On ch=1 n=a5 v=32
50990 Off ch=1 n=d5 v=64
51010 Off ch=1 n=f#5 v=64
51018 On ch=1 n=g#5 v=46
51024 On ch=1 n=b4 v=37
51035 Off ch=1 n=a5 v=64
51041 Off ch=1 n=c#5 v=64
51105 On ch=1 n=f#5 v=46
51115 On ch=1 n=a4 v=24
51115 Par ch=1 c=64 v=0
51115 Par ch=1 c=64 v=0
51123 Off ch=1 n=b4 v=64
51127 Off ch=1 n=g#5 v=64
51150 Off ch=1 n=f#4 v=64
51174 Par ch=1 c=64 v=127
51174 Par ch=1 c=64 v=127
51189 Off ch=1 n=f#5 v=64
51369 On ch=1 n=g#6 v=65
51377 On ch=1 n=c#7 v=61
51382 On ch=1 n=f#6 v=58
51385 Off ch=1 n=a4 v=64
51403 Off ch=1 n=g#6 v=64
51498 Off ch=1 n=f#6 v=64
51609 Off ch=1 n=c#7 v=64
51610 On ch=1 n=f#3 v=65
51612 On ch=1 n=f#6 v=66
51613 On ch=1 n=d7 v=70
51619 On ch=1 n=g#6 v=63
51651 Off ch=1 n=g#6 v=64
51658 Off ch=1 n=f#6 v=64
51724 On ch=1 n=f#4 v=66
51726 On ch=1 n=f#6 v=66
51728 On ch=1 n=c#7 v=65
51735 On ch=1 n=g#6 v=55
51739 Off ch=1 n=f#3 v=64
51742 Off ch=1 n=d7 v=64
51761 Off ch=1 n=g#6 v=64
51765 Off ch=1 n=f#4 v=64
51770 Off ch=1 n=f#6 v=64
51838 On ch=1 n=g#6 v=62
51838 On ch=1 n=f#6 v=66
51838 On ch=1 n=f#5 v=70
51841 On ch=1 n=d5 v=63
51847 On ch=1 n=b6 v=57
51859 Off ch=1 n=c#7 v=64
51861 Par ch=1 c=64 v=0
51861 Par ch=1 c=64 v=0
51894 Par ch=1 c=64 v=127
51894 Par ch=1 c=64 v=127
51935 Off ch=1 n=f#6 v=64
51954 Off ch=1 n=g#6 v=64
52030 Off ch=1 n=b6 v=64
52032 On ch=1 n=d7 v=67
52036 On ch=1 n=f#6 v=70
52037 On ch=1 n=g#6 v=65
52043 On ch=1 n=b5 v=76
52064 Off ch=1 n=g#6 v=64
52073 Off ch=1 n=d5 v=64
52097 Off ch=1 n=f#6 v=64
52230 On ch=1 n=g#6 v=65
52230 On ch=1 n=c#5 v=54
52234 On ch=1 n=a5 v=48
52236 On ch=1 n=c#7 v=62
52236 On ch=1 n=f#6 v=67
52242 Off ch=1 n=b5 v=64
52242 Off ch=1 n=d7 v=64
52274 Off ch=1 n=g#6 v=64
52277 Off ch=1 n=f#6 v=64
52318 On ch=1 n=b4 v=57
52328 On ch=1 n=d7 v=65
52332 On ch=1 n=g#5 v=57
52334 On ch=1 n=f#6 v=70
52335 Off ch=1 n=c#5 v=64
52336 Off ch=1 n=a5 v=64
52338 On ch=1 n=g#6 v=66
52343 Off ch=1 n=c#7 v=64
52367 Off ch=1 n=g#6 v=64
52383 Off ch=1 n=f#6 v=64
52424 Par ch=1 c=64 v=0
52424 Par ch=1 c=64 v=0
52434 On ch=1 n=g#6 v=66
52438 On ch=1 n=c#7 v=71
52439 On ch=1 n=f#6 v=70
52439 On ch=1 n=c#5 v=58
52449 Off ch=1 n=b4 v=64
52449 On ch=1 n=a5 v=44
52450 Off ch=1 n=d7 v=64
52462 Par ch=1 c=64 v=127
52462 Par ch=1 c=64 v=127
52463 Off ch=1 n=g#5 v=64
52471 Off ch=1 n=f#6 v=64
52471 Off ch=1 n=g#6 v=64
52582 Off ch=1 n=c#5 v=64
52592 Off ch=1 n=a5 v=64
52606 Off ch=1 n=f#5 v=64
52620 Off ch=1 n=c#7 v=64
52622 On ch=1 n=f#6 v=70
52626 On ch=1 n=f#7 v=72
52626 On ch=1 n=f#4 v=55
52632 On ch=1 n=g#6 v=55
52646 Off ch=1 n=g#6 v=64
52678 Off ch=1 n=f#6 v=64
52807 Off ch=1 n=f#4 v=64
52814 On ch=1 n=g#6 v=65
52822 On ch=1 n=d7 v=67
52828 On ch=1 n=f#3 v=63
52829 On ch=1 n=f#6 v=59
52835 Par ch=1 c=64 v=0
52835 Par ch=1 c=64 v=0
52836 Off ch=1 n=f#7 v=64
52853 Off ch=1 n=g#6 v=64
52863 Par ch=1 c=64 v=127
52863 Par ch=1 c=64 v=127
52867 Off ch=1 n=f#6 v=64
52907 On ch=1 n=g#6 v=63
52915 On ch=1 n=c#7 v=74
52918 Off ch=1 n=d7 v=64
52921 On ch=1 n=f#6 v=66
52923 On ch=1 n=f#4 v=66
52940 Off ch=1 n=f#3 v=64
52943 Off ch=1 n=g#6 v=64
52961 Off ch=1 n=f#6 v=64
52963 Off ch=1 n=f#4 v=64
53018 On ch=1 n=f#6 v=55
53020 Off ch=1 n=c#7 v=64
53022 On ch=1 n=g#6 v=61
53029 On ch=1 n=d5 v=67
53033 On ch=1 n=b6 v=50
53035 On ch=1 n=f#5 v=70
53075 Off ch=1 n=f#6 v=64
53078 Off ch=1 n=g#6 v=64
53199 On ch=1 n=d7 v=66
53205 On ch=1 n=f#6 v=70
53211 Off ch=1 n=d5 v=64
53211 On ch=1 n=b5 v=66
53231 Off ch=1 n=b6 v=64
53238 Off ch=1 n=f#6 v=64
53325 Off ch=1 n=d7 v=64
53337 On ch=1 n=c#7 v=76
53344 On ch=1 n=f#6 v=70
53378 Off ch=1 n=c#7 v=64
53397 Off ch=1 n=b5 v=64
53401 On ch=1 n=c#8 v=83
53401 On ch=1 n=a5 v=58
53408 On ch=1 n=c#5 v=61
53497 On ch=1 n=g#5 v=66
53504 On ch=1 n=b4 v=70
53511 Off ch=1 n=a5 v=64
53518 Off ch=1 n=c#5 v=64
53559 Off ch=1 n=c#8 v=64
53591 On ch=1 n=c#6 v=83
53596 On ch=1 n=c#5 v=70
53598 On ch=1 n=a5 v=61
53601 Off ch=1 n=g#5 v=64
53608 Off ch=1 n=b4 v=64
53738 Off ch=1 n=f#6 v=64
53749 Off ch=1 n=c#6 v=64
53766 Off ch=1 n=c#5 v=64
53768 Off ch=1 n=a5 v=64
53789 On ch=1 n=c#4 v=78
53803 Off ch=1 n=f#5 v=64
53969 Par ch=1 c=64 v=0
53969 Par ch=1 c=64 v=0
53970 Off ch=1 n=c#4 v=64
53971 On ch=1 n=d6 v=57
53978 On ch=1 n=c#6 v=65
53978 On ch=1 n=c#3 v=67
53984 On ch=1 n=g#6 v=58
54005 Par ch=1 c=64 v=127
54005 Par ch=1 c=64 v=127
54008 Off ch=1 n=d6 v=64
54015 Off ch=1 n=c#6 v=64
54055 On ch=1 n=d6 v=57
54070 Off ch=1 n=g#6 v=64
54072 On ch=1 n=c#4 v=74
54079 On ch=1 n=b6 v=66
54082 On ch=1 n=c#6 v=66
54092 Off ch=1 n=d6 v=64
54093 Par ch=1 c=64 v=0
54093 Par ch=1 c=64 v=0
54102 On ch=1 n=c#6 v=65
54116 Off ch=1 n=c#4 v=64
54118 Off ch=1 n=c#6 v=64
54119 Off ch=1 n=c#3 v=64
54139 Off ch=1 n=c#6 v=64
54167 On ch=1 n=d6 v=57
54175 On ch=1 n=b4 v=55
54177 On ch=1 n=c#5 v=79
54180 On ch=1 n=a6 v=58
54180 On ch=1 n=c#6 v=71
54196 Off ch=1 n=b6 v=64
54204 Off ch=1 n=d6 v=64
54231 Off ch=1 n=c#6 v=64
54347 On ch=1 n=d6 v=57
54355 On ch=1 n=g#6 v=66
54355 On ch=1 n=g#5 v=70
54361 On ch=1 n=c#6 v=72
54370 Off ch=1 n=a6 v=64
54379 Par ch=1 c=64 v=0
54379 Par ch=1 c=64 v=0
54384 Off ch=1 n=d6 v=64
54396 Par ch=1 c=64 v=127
54396 Par ch=1 c=64 v=127
54406 Off ch=1 n=c#6 v=64
54524 On ch=1 n=d6 v=57
54532 On ch=1 n=f#6 v=71
54532 On ch=1 n=c#6 v=66
54532 On ch=1 n=f#5 v=53
54541 On ch=1 n=a4 v=65
54547 Off ch=1 n=g#6 v=64
54550 Off ch=1 n=g#5 v=64
54554 Off ch=1 n=b4 v=64
54561 Off ch=1 n=d6 v=64
54571 Off ch=1 n=c#6 v=64
54617 On ch=1 n=d6 v=57
54625 On ch=1 n=g#6 v=70
54627 On ch=1 n=c#6 v=66
54631 Off ch=1 n=f#6 v=64
54636 On ch=1 n=f5 v=54
54637 On ch=1 n=g#4 v=58
54643 Off ch=1 n=f#5 v=64
54652 Off ch=1 n=a4 v=64
54654 Off ch=1 n=d6 v=64
54665 Off ch=1 n=c#6 v=64
54709 On ch=1 n=d6 v=57
54718 Par ch=1 c=64 v=0
54718 Par ch=1 c=64 v=0
54720 Off ch=1 n=g#6 v=64
54724 On ch=1 n=f#6 v=80
54724 On ch=1 n=c#6 v=79
54729 On ch=1 n=a4 v=61
54734 On ch=1 n=f#5 v=70
54741 Par ch=1 c=64 v=127
54741 Par ch=1 c=64 v=127
54746 Off ch=1 n=d6 v=64
54753 Off ch=1 n=f5 v=64
54754 Off ch=1 n=g#4 v=64
54764 Off ch=1 n=c#6 v=64
54885 On ch=1 n=d6 v=57
54897 On ch=1 n=c#7 v=80
54898 On ch=1 n=c#6 v=70
54899 Off ch=1 n=f#6 v=64
54904 Off ch=1 n=a4 v=64
54906 Off ch=1 n=c#5 v=64
54909 Off ch=1 n=f#5 v=64
54914 On ch=1 n=c#4 v=80
54922 Off ch=1 n=d6 v=64
54940 Off ch=1 n=c#6 v=64
55076 Off ch=1 n=c#4 v=64
55077 On ch=1 n=d6 v=58
55081 Par ch=1 c=64 v=0
55081 Par ch=1 c=64 v=0
55086 On ch=1 n=g#6 v=66
55087 Off ch=1 n=c#7 v=64
55091 On ch=1 n=c#6 v=72
55095 On ch=1 n=c#3 v=53
55111 Par ch=1 c=64 v=127
55111 Par ch=1 c=64 v=127
55122 Off ch=1 n=d6 v=64
55126 Off ch=1 n=c#6 v=64
55177 On ch=1 n=d6 v=57
55180 On ch=1 n=b6 v=66
55181 Off ch=1 n=g#6 v=64
55185 On ch=1 n=c#4 v=79
55190 On ch=1 n=c#6 v=71
55214 Off ch=1 n=d6 v=64
55217 Off ch=1 n=c#4 v=64
55223 Off ch=1 n=c#6 v=64
55259 Off ch=1 n=c#3 v=64
55261 On ch=1 n=d6 v=57
55273 On ch=1 n=b4 v=58
55276 On ch=1 n=c#5 v=76
55278 On ch=1 n=c#6 v=74
55285 On ch=1 n=a6 v=66
55295 Off ch=1 n=d6 v=64
55299 Off ch=1 n=b6 v=64
55330 Off ch=1 n=c#6 v=64
55426 On ch=1 n=d6 v=57
55438 On ch=1 n=c#6 v=59
55443 On ch=1 n=g#6 v=66
55449 On ch=1 n=g#5 v=83
55463 Off ch=1 n=d6 v=64
55471 Off ch=1 n=c#6 v=64
55477 Off ch=1 n=a6 v=64
55576 On ch=1 n=f#6 v=70
55594 Off ch=1 n=g#6 v=64
55628 On ch=1 n=f#7 v=88
55631 On ch=1 n=f#5 v=72
55632 Off ch=1 n=g#5 v=64
55637 On ch=1 n=a4 v=63
55649 Off ch=1 n=b4 v=64
55713 Off ch=1 n=f#7 v=64
55742 On ch=1 n=g#4 v=58
55745 Off ch=1 n=f#6 v=64
55749 On ch=1 n=f5 v=71
55752 Off ch=1 n=f#5 v=64
55758 Off ch=1 n=a4 v=64
55825 Par ch=1 c=64 v=0
55825 Par ch=1 c=64 v=0
55830 Off ch=1 n=c#5 v=64
55836 On ch=1 n=f#3 v=88
55841 On ch=1 n=a4 v=61
55847 Par ch=1 c=64 v=127
55847 Par ch=1 c=64 v=127
55851 On ch=1 n=f#5 v=79
55863 Off ch=1 n=g#4 v=64
55870 Off ch=1 n=f5 v=64
55965 Off ch=1 n=f#5 v=64
55982 Off ch=1 n=a4 v=64
56035 Off ch=1 n=f#3 v=64
56067 On ch=1 n=f#3 v=80
56263 On ch=1 n=g#6 v=66
56267 On ch=1 n=f#2 v=70
56267 Par ch=1 c=64 v=0
56267 Par ch=1 c=64 v=0
56270 Off ch=1 n=f#3 v=64
56274 On ch=1 n=d7 v=70
56274 On ch=1 n=f#6 v=70
56296 Par ch=1 c=64 v=127
56296 Par ch=1 c=64 v=127
56304 Off ch=1 n=f#6 v=64
56310 Off ch=1 n=g#6 v=64
56357 On ch=1 n=f#4 v=72
56358 On ch=1 n=g#6 v=74
56363 On ch=1 n=c#7 v=74
56368 On ch=1 n=f#6 v=72
56375 Off ch=1 n=d7 v=64
56383 Off ch=1 n=g#6 v=64
56385 Off ch=1 n=f#4 v=64
56400 Off ch=1 n=f#6 v=64
56450 On ch=1 n=g#6 v=76
56462 On ch=1 n=b6 v=70
56462 On ch=1 n=f#6 v=71
56462 On ch=1 n=f#5 v=72
56462 On ch=1 n=d5 v=67
56479 Par ch=1 c=64 v=0
56479 Par ch=1 c=64 v=0
56480 Off ch=1 n=c#7 v=64
56492 Par ch=1 c=64 v=127
56492 Par ch=1 c=64 v=127
56523 Off ch=1 n=g#6 v=64
56537 Off ch=1 n=f#6 v=64
56572 Off ch=1 n=f#2 v=64
56634 On ch=1 n=b5 v=66
56642 On ch=1 n=g#6 v=71
56652 On ch=1 n=d7 v=66
56656 On ch=1 n=f#6 v=72
56657 Off ch=1 n=b6 v=64
56664 Off ch=1 n=g#6 v=64
56703 Off ch=1 n=f#6 v=64
56826 On ch=1 n=g#6 v=79
56831 On ch=1 n=c#7 v=66
56831 On ch=1 n=c#5 v=57
56835 On ch=1 n=a5 v=55
56836 Off ch=1 n=b5 v=64
56837 Par ch=1 c=64 v=0
56837 Par ch=1 c=64 v=0
56842 On ch=1 n=f#6 v=74
56844 Off ch=1 n=d7 v=64
56855 Par ch=1 c=64 v=127
56855 Par ch=1 c=64 v=127
56858 Off ch=1 n=g#6 v=64
56865 Off ch=1 n=d5 v=64
56871 Off ch=1 n=f#6 v=64
56922 On ch=1 n=g#6 v=72
56922 On ch=1 n=b4 v=66
56927 On ch=1 n=g#5 v=66
56928 On ch=1 n=d7 v=66
56934 Off ch=1 n=c#5 v=64
56934 On ch=1 n=f#6 v=70
56938 Off ch=1 n=a5 v=64
56941 Off ch=1 n=c#7 v=64
56956 Off ch=1 n=g#6 v=64
56974 Off ch=1 n=f#6 v=64
57014 On ch=1 n=g#6 v=80
57017 Off ch=1 n=b4 v=64
57020 On ch=1 n=c#5 v=58
57022 Off ch=1 n=g#5 v=64
57022 On ch=1 n=a5 v=54
57026 On ch=1 n=c#7 v=79
57029 Par ch=1 c=64 v=0
57029 Par ch=1 c=64 v=0
57036 On ch=1 n=f#6 v=72
57041 Off ch=1 n=d7 v=64
57046 Par ch=1 c=64 v=127
57046 Par ch=1 c=64 v=127
57052 Off ch=1 n=g#6 v=64
57059 Off ch=1 n=f#6 v=64
57192 On ch=1 n=f#6 v=57
57195 On ch=1 n=g#6 v=65
57196 Off ch=1 n=f#5 v=64
57197 Off ch=1 n=a5 v=64
57202 On ch=1 n=f#7 v=74
57202 On ch=1 n=f#4 v=88
57218 Par ch=1 c=64 v=0
57218 Par ch=1 c=64 v=0
57223 Off ch=1 n=c#5 v=64
57225 Off ch=1 n=c#7 v=64
57231 Off ch=1 n=g#6 v=64
57241 Par ch=1 c=64 v=127
57241 Par ch=1 c=64 v=127
57246 Off ch=1 n=f#6 v=64
57385 On ch=1 n=g#6 v=63
57394 On ch=1 n=f#6 v=61
57398 On ch=1 n=f#3 v=66
57401 Off ch=1 n=f#4 v=64
57406 On ch=1 n=d7 v=66
57408 Off ch=1 n=f#7 v=64
57419 Off ch=1 n=g#6 v=64
57438 Off ch=1 n=f#6 v=64
57474 On ch=1 n=g#6 v=70
57483 On ch=1 n=c#7 v=72
57483 On ch=1 n=f#4 v=74
57488 On ch=1 n=f#6 v=66
57493 Off ch=1 n=d7 v=64
57503 Off ch=1 n=g#6 v=64
57520 Off ch=1 n=f#6 v=64
57526 Off ch=1 n=f#4 v=64
57566 On ch=1 n=g#6 v=70
57578 On ch=1 n=f#6 v=67
57581 On ch=1 n=b6 v=66
57582 On ch=1 n=f#5 v=67
57585 On ch=1 n=d5 v=65
57589 Off ch=1 n=c#7 v=64
57609 Off ch=1 n=f#3 v=64
57621 Off ch=1 n=g#6 v=64
57625 Off ch=1 n=f#6 v=64
57734 On ch=1 n=g#6 v=67
57746 On ch=1 n=b5 v=72
57748 On ch=1 n=d7 v=66
57752 On ch=1 n=f#6 v=70
57771 Off ch=1 n=g#6 v=64
57771 Off ch=1 n=b6 v=64
57791 Off ch=1 n=f#6 v=64
57868 On ch=1 n=c#7 v=80
57874 On ch=1 n=f#6 v=79
57886 Off ch=1 n=d7 v=64
57903 Off ch=1 n=c#7 v=64
57920 On ch=1 n=a5 v=61
57925 On ch=1 n=c#5 v=66
57932 On ch=1 n=c#8 v=88
57933 Off ch=1 n=b5 v=64
57973 Off ch=1 n=d5 v=64
58017 On ch=1 n=g#5 v=70
58017 On ch=1 n=b4 v=70
58022 Off ch=1 n=a5 v=64
58027 Off ch=1 n=c#5 v=64
58093 Off ch=1 n=c#8 v=64
58095 Off ch=1 n=b4 v=64
58115 On ch=1 n=c#5 v=67
58116 Off ch=1 n=g#5 v=64
58121 On ch=1 n=a5 v=70
58122 On ch=1 n=c#6 v=88
58129 Off ch=1 n=f#5 v=64
58214 Off ch=1 n=c#6 v=64
58245 Off ch=1 n=f#6 v=64
58296 Par ch=1 c=64 v=0
58296 Par ch=1 c=64 v=0
58298 Off ch=1 n=c#5 v=64
58300 On ch=1 n=c#4 v=80
58304 Off ch=1 n=a5 v=64
58331 Par ch=1 c=64 v=127
58331 Par ch=1 c=64 v=127
58474 On ch=1 n=d6 v=46
58495 On ch=1 n=c#6 v=72
58499 On ch=1 n=g#6 v=65
58499 On ch=1 n=c#3 v=66
58499 Par ch=1 c=64 v=0
58499 Par ch=1 c=64 v=0
58506 Off ch=1 n=c#4 v=64
58511 Off ch=1 n=d6 v=64
58518 Par ch=1 c=64 v=127
58518 Par ch=1 c=64 v=127
58532 Off ch=1 n=c#6 v=64
58570 On ch=1 n=d6 v=46
58592 On ch=1 n=c#4 v=80
58593 On ch=1 n=c#6 v=66
58597 Off ch=1 n=g#6 v=64
58597 On ch=1 n=b6 v=62
58607 Off ch=1 n=d6 v=64
58626 Off ch=1 n=c#6 v=64
58646 Off ch=1 n=c#4 v=64
58670 On ch=1 n=d6 v=46
58684 On ch=1 n=a6 v=61
58686 On ch=1 n=c#6 v=76
58690 On ch=1 n=b4 v=52
58693 On ch=1 n=c#5 v=76
58707 Off ch=1 n=d6 v=64
58710 Off ch=1 n=c#3 v=64
58713 Off ch=1 n=b6 v=64
58739 Off ch=1 n=c#6 v=64
58842 On ch=1 n=d6 v=46
58858 On ch=1 n=g#6 v=66
58862 On ch=1 n=g#5 v=80
58866 On ch=1 n=c#6 v=79
58876 Off ch=1 n=d6 v=64
58880 Off ch=1 n=a6 v=64
58905 Off ch=1 n=c#6 v=64
59007 On ch=1 n=d6 v=46
59030 On ch=1 n=c#6 v=71
59035 On ch=1 n=f#5 v=54
59038 Off ch=1 n=g#6 v=64
59038 On ch=1 n=f#6 v=74
59042 Off ch=1 n=g#5 v=64
59044 Off ch=1 n=d6 v=64
59047 On ch=1 n=a4 v=61
59074 Off ch=1 n=c#6 v=64
59074 Off ch=1 n=b4 v=64
59123 On ch=1 n=d6 v=46
59126 On ch=1 n=g#6 v=70
59133 On ch=1 n=c#6 v=66
59134 On ch=1 n=f5 v=55
59137 Off ch=1 n=f#6 v=64
59147 Off ch=1 n=f#5 v=64
59149 On ch=1 n=g#4 v=55
59159 Off ch=1 n=a4 v=64
59160 Off ch=1 n=d6 v=64
59163 Off ch=1 n=c#6 v=64
59203 On ch=1 n=d6 v=46
59221 On ch=1 n=c#6 v=71
59225 On ch=1 n=f#6 v=76
59230 Off ch=1 n=f5 v=64
59234 On ch=1 n=a4 v=63
59236 On ch=1 n=f#5 v=72
59240 Off ch=1 n=d6 v=64
59245 Off ch=1 n=g#4 v=64
59251 Off ch=1 n=g#6 v=64
59255 Off ch=1 n=c#6 v=64
59302 Off ch=1 n=c#5 v=64
59391 On ch=1 n=d6 v=46
59392 On ch=1 n=c#4 v=72
59394 Off ch=1 n=f#6 v=64
59404 Off ch=1 n=a4 v=64
59405 On ch=1 n=c#6 v=80
59406 Off ch=1 n=f#5 v=64
59420 On ch=1 n=c#7 v=76
59428 Off ch=1 n=d6 v=64
59444 Off ch=1 n=c#6 v=64
59555 Off ch=1 n=c#4 v=64
59576 Off ch=1 n=c#7 v=64
59587 On ch=1 n=d6 v=46
59601 On ch=1 n=c#6 v=70
59609 On ch=1 n=g#6 v=83
59609 On ch=1 n=c#3 v=66
59624 Off ch=1 n=d6 v=64
59647 Off ch=1 n=c#6 v=64
59691 On ch=1 n=d6 v=46
59699 On ch=1 n=c#4 v=76
59703 On ch=1 n=b6 v=66
59704 On ch=1 n=c#6 v=70
59712 Off ch=1 n=g#6 v=64
59728 Off ch=1 n=d6 v=64
59744 Off ch=1 n=c#4 v=64
59763 Off ch=1 n=c#6 v=64
59791 On ch=1 n=d6 v=46
59797 On ch=1 n=c#5 v=79
59802 On ch=1 n=c#6 v=66
59803 On ch=1 n=a6 v=80
59811 Off ch=1 n=b6 v=64
59820 Off ch=1 n=c#3 v=64
59828 Off ch=1 n=d6 v=64
59903 Off ch=1 n=c#6 v=64
59991 On ch=1 n=d6 v=46
59991 On ch=1 n=c#5 v=2
59995 On ch=1 n=g#6 v=70
59999 On ch=1 n=g#5 v=67
60003 On ch=1 n=c#6 v=70
60009 Off ch=1 n=a6 v=64
60028 Off ch=1 n=d6 v=64
60077 Off ch=1 n=c#5 v=64
60086 Off ch=1 n=c#5 v=64
60101 Off ch=1 n=c#6 v=64
60170 Off ch=1 n=g#6 v=64
60188 On ch=1 n=c#6 v=67
60194 On ch=1 n=c6 v=67
60196 On ch=1 n=f#5 v=58
60201 On ch=1 n=g#6 v=66
60206 On ch=1 n=d#5 v=54
60206 On ch=1 n=g#4 v=66
60209 Off ch=1 n=g#5 v=64
60229 Off ch=1 n=c#6 v=64
60261 Off ch=1 n=c6 v=64
60273 Off ch=1 n=g#6 v=64
60309 On ch=1 n=c#6 v=70
60314 On ch=1 n=g#6 v=67
60319 On ch=1 n=d#6 v=71
60321 On ch=1 n=c6 v=66
60351 Off ch=1 n=c#6 v=64
60353 Off ch=1 n=d#6 v=64
60373 Off ch=1 n=c6 v=64
60387 Off ch=1 n=g#6 v=64
60404 Off ch=1 n=d#5 v=64
60405 Off ch=1 n=g#4 v=64
60406 Off ch=1 n=f#5 v=64
60440 On ch=1 n=c#6 v=70
60447 On ch=1 n=b5 v=59
60459 On ch=1 n=g#6 v=72
60459 On ch=1 n=f5 v=67
60459 On ch=1 n=c#5 v=59
60483 Off ch=1 n=c#6 v=64
60498 Par ch=1 c=64 v=0
60498 Par ch=1 c=64 v=0
60534 Par ch=1 c=64 v=127
60534 Par ch=1 c=64 v=127
60576 Off ch=1 n=g#6 v=64
60629 Off ch=1 n=b5 v=64
60632 Off ch=1 n=c#5 v=64
60632 Off ch=1 n=f5 v=64
60695 On ch=1 n=a5 v=65
60731 On ch=1 n=c#6 v=65
60733 On ch=1 n=g#5 v=80
60745 Off ch=1 n=a5 v=64
60747 Par ch=1 c=64 v=0
60747 Par ch=1 c=64 v=0
60799 Par ch=1 c=64 v=127
60799 Par ch=1 c=64 v=127
61010 Off ch=1 n=c#6 v=64
61053 On ch=1 n=f#5 v=76
61063 On ch=1 n=c#3 v=58
61079 Off ch=1 n=g#5 v=64
61086 Par ch=1 c=64 v=0
61086 Par ch=1 c=64 v=0
61129 Par ch=1 c=64 v=127
61129 Par ch=1 c=64 v=127
61205 On ch=1 n=g#5 v=50
61211 Off ch=1 n=f#5 v=64
61238 On ch=1 n=f#5 v=55
61267 Off ch=1 n=g#5 v=64
61274 Off ch=1 n=c#3 v=64
61279 On ch=1 n=f5 v=66
61291 On ch=1 n=c#4 v=61
61296 On ch=1 n=b4 v=44
61296 Par ch=1 c=64 v=0
61296 Par ch=1 c=64 v=0
61300 Off ch=1 n=f#5 v=64
61338 Par ch=1 c=64 v=127
61338 Par ch=1 c=64 v=127
61385 Off ch=1 n=c#4 v=64
61394 On ch=1 n=f#5 v=63
61395 Off ch=1 n=b4 v=64
61396 Off ch=1 n=f5 v=64
61493 On ch=1 n=g#5 v=70
61502 On ch=1 n=f4 v=57
61509 Off ch=1 n=f#5 v=64
61509 On ch=1 n=b4 v=42
61515 On ch=1 n=c#4 v=29
61516 Par ch=1 c=64 v=0
61516 Par ch=1 c=64 v=0
61538 Off ch=1 n=b4 v=64
61540 Par ch=1 c=64 v=127
61540 Par ch=1 c=64 v=127
61548 Off ch=1 n=f4 v=64
61569 Off ch=1 n=c#4 v=64
61650 On ch=1 n=d5 v=58
61661 Off ch=1 n=g#5 v=64
61698 On ch=1 n=c#5 v=67
61708 On ch=1 n=f#3 v=58
61716 Par ch=1 c=64 v=0
61716 Par ch=1 c=64 v=0
61724 Off ch=1 n=d5 v=64
61769 Par ch=1 c=64 v=127
61769 Par ch=1 c=64 v=127
61848 On ch=1 n=f#5 v=48
61879 Off ch=1 n=c#5 v=64
61886 Par ch=1 c=64 v=0
61886 Par ch=1 c=64 v=0
61892 On ch=1 n=f#4 v=62
61896 On ch=1 n=c#5 v=55
61897 On ch=1 n=a5 v=65
61916 Off ch=1 n=f#5 v=64
61919 Off ch=1 n=f#3 v=64
61936 Off ch=1 n=f#4 v=64
61940 Off ch=1 n=c#5 v=64
62004 Par ch=1 c=64 v=127
62004 Par ch=1 c=64 v=127
62096 Off ch=1 n=a5 v=64
62111 On ch=1 n=f#5 v=62
62115 On ch=1 n=a5 v=62
62119 On ch=1 n=f#4 v=61
62131 Par ch=1 c=64 v=127
62131 Par ch=1 c=64 v=127
62160 Off ch=1 n=f#4 v=64
62302 Par ch=1 c=64 v=0
62302 Par ch=1 c=64 v=0
62314 On ch=1 n=e3 v=63
62350 Par ch=1 c=64 v=127
62350 Par ch=1 c=64 v=127
62435 On ch=1 n=b5 v=55
62440 Off ch=1 n=a5 v=64
62466 Off ch=1 n=f#5 v=64
62476 On ch=1 n=a5 v=57
62491 Off ch=1 n=b5 v=64
62509 Par ch=1 c=64 v=0
62509 Par ch=1 c=64 v=0
62517 On ch=1 n=e5 v=41
62517 On ch=1 n=b4 v=54
62517 On ch=1 n=e4 v=53
62518 On ch=1 n=g#5 v=62
62522 Off ch=1 n=e3 v=64
62532 Off ch=1 n=a5 v=64
62553 Par ch=1 c=64 v=127
62553 Par ch=1 c=64 v=127
62563 Off ch=1 n=b4 v=64
62566 Off ch=1 n=e4 v=64
62601 Off ch=1 n=e5 v=64
62615 On ch=1 n=a5 v=57
62644 Off ch=1 n=g#5 v=64
62689 On ch=1 n=d5 v=55
62689 On ch=1 n=e4 v=57
62693 On ch=1 n=b5 v=58
62711 Par ch=1 c=64 v=0
62711 Par ch=1 c=64 v=0
62720 Off ch=1 n=a5 v=64
62739 Par ch=1 c=64 v=127
62739 Par ch=1 c=64 v=127
62741 Off ch=1 n=e4 v=64
62837 On ch=1 n=f#5 v=44
62852 Off ch=1 n=b5 v=64
62879 On ch=1 n=e5 v=55
62891 Par ch=1 c=64 v=0
62891 Par ch=1 c=64 v=0
62894 On ch=1 n=a3 v=55
62915 Off ch=1 n=f#5 v=64
62949 Par ch=1 c=64 v=127
62949 Par ch=1 c=64 v=127
63021 On ch=1 n=a5 v=40
63038 Off ch=1 n=e5 v=64
63061 On ch=1 n=a4 v=58
63066 On ch=1 n=c#6 v=72
63069 On ch=1 n=c#5 v=55
63080 Par ch=1 c=64 v=0
63080 Par ch=1 c=64 v=0
63082 Off ch=1 n=a5 v=64
63087 Off ch=1 n=a3 v=64
63092 Off ch=1 n=d5 v=64
63102 Off ch=1 n=a4 v=64
63103 Par ch=1 c=64 v=127
63103 Par ch=1 c=64 v=127
63110 Off ch=1 n=c#5 v=64
63174 Par ch=1 c=64 v=127
63174 Par ch=1 c=64 v=127
63250 Off ch=1 n=c#6 v=64
63270 On ch=1 n=c#6 v=71
63276 Par ch=1 c=64 v=0
63276 Par ch=1 c=64 v=0
63282 On ch=1 n=a4 v=59
63286 On ch=1 n=e5 v=57
63324 Par ch=1 c=64 v=127
63324 Par ch=1 c=64 v=127
63350 Off ch=1 n=a4 v=64
63366 Off ch=1 n=e5 v=64
63470 On ch=1 n=d#5 v=1
63477 On ch=1 n=f#5 v=55
63477 On ch=1 n=a4 v=58
63497 Par ch=1 c=64 v=0
63497 Par ch=1 c=64 v=0
63527 Par ch=1 c=64 v=127
63527 Par ch=1 c=64 v=127
63585 On ch=1 n=d#6 v=46
63596 Off ch=1 n=c#6 v=64
63629 On ch=1 n=c#6 v=54
63644 Off ch=1 n=d#6 v=64
63664 On ch=1 n=c6 v=62
63676 On ch=1 n=g#4 v=58
63680 Off ch=1 n=c#6 v=64
63683 Off ch=1 n=a4 v=64
63687 Par ch=1 c=64 v=0
63687 Par ch=1 c=64 v=0
63723 Par ch=1 c=64 v=127
63723 Par ch=1 c=64 v=127
63789 Off ch=1 n=c6 v=64
63795 On ch=1 n=g#5 v=57
63856 On ch=1 n=b5 v=65
63866 On ch=1 n=f5 v=55
63866 On ch=1 n=c#5 v=55
63873 Off ch=1 n=g#5 v=64
63875 Off ch=1 n=d#5 v=64
63880 Par ch=1 c=64 v=0
63880 Par ch=1 c=64 v=0
63882 Off ch=1 n=f#5 v=64
63916 Par ch=1 c=64 v=127
63916 Par ch=1 c=64 v=127
64064 Off ch=1 n=c#5 v=64
64070 On ch=1 n=c#5 v=36
64076 On ch=1 n=e5 v=49
64076 On ch=1 n=g4 v=44
64086 Par ch=1 c=64 v=0
64086 Par ch=1 c=64 v=0
64092 Off ch=1 n=g#4 v=64
64102 Off ch=1 n=f5 v=64
64132 Par ch=1 c=64 v=127
64132 Par ch=1 c=64 v=127
64189 Off ch=1 n=b5 v=64
64190 On ch=1 n=c#6 v=48
64234 On ch=1 n=b5 v=53
64253 Off ch=1 n=c#6 v=64
64272 On ch=1 n=a#5 v=49
64275 On ch=1 n=f#4 v=49
64281 Par ch=1 c=64 v=0
64281 Par ch=1 c=64 v=0
64282 Off ch=1 n=g4 v=64
64292 Off ch=1 n=b5 v=64
64326 Par ch=1 c=64 v=127
64326 Par ch=1 c=64 v=127
64396 On ch=1 n=f#5 v=50
64404 Off ch=1 n=a#5 v=64
64459 On ch=1 n=a5 v=58
64460 On ch=1 n=d#5 v=42
64465 On ch=1 n=c5 v=53
64466 Off ch=1 n=f#5 v=64
64481 Par ch=1 c=64 v=0
64481 Par ch=1 c=64 v=0
64490 Off ch=1 n=c#5 v=64
64496 Off ch=1 n=e5 v=64
64512 Par ch=1 c=64 v=127
64512 Par ch=1 c=64 v=127
64662 On ch=1 n=d5 v=46
64666 On ch=1 n=f4 v=39
64668 On ch=1 n=b4 v=45
64669 Off ch=1 n=d#5 v=64
64674 Off ch=1 n=c5 v=64
64676 Off ch=1 n=f#4 v=64
64686 Par ch=1 c=64 v=0
64686 Par ch=1 c=64 v=0
64730 Par ch=1 c=64 v=127
64730 Par ch=1 c=64 v=127
64783 On ch=1 n=b5 v=48
64799 Off ch=1 n=a5 v=64
64811 On ch=1 n=a5 v=50
64836 Off ch=1 n=b5 v=64
64846 On ch=1 n=g#5 v=49
64858 On ch=1 n=e4 v=52
64872 Off ch=1 n=a5 v=64
64877 Off ch=1 n=f4 v=64
64882 Par ch=1 c=64 v=0
64882 Par ch=1 c=64 v=0
64915 Par ch=1 c=64 v=127
64915 Par ch=1 c=64 v=127
64974 On ch=1 n=e5 v=45
64980 Off ch=1 n=g#5 v=64
65049 On ch=1 n=g5 v=59
65049 On ch=1 n=c#5 v=46
65056 On ch=1 n=a#4 v=49
65057 Off ch=1 n=d5 v=64
65063 Off ch=1 n=b4 v=64
65067 Par ch=1 c=64 v=0
65067 Par ch=1 c=64 v=0
65074 Off ch=1 n=e5 v=64
65103 Par ch=1 c=64 v=127
65103 Par ch=1 c=64 v=127
65224 Off ch=1 n=c#5 v=64
65255 On ch=1 n=d#4 v=44
65256 Off ch=1 n=e4 v=64
65267 On ch=1 n=a4 v=46
65273 Off ch=1 n=a#4 v=64
65275 On ch=1 n=c#5 v=48
65275 Par ch=1 c=64 v=0
65275 Par ch=1 c=64 v=0
65302 Par ch=1 c=64 v=127
65302 Par ch=1 c=64 v=127
65393 On ch=1 n=a5 v=42
65403 Off ch=1 n=g5 v=64
65426 On ch=1 n=g5 v=45
65453 Off ch=1 n=a5 v=64
65455 On ch=1 n=d4 v=48
65462 On ch=1 n=f#5 v=48
65468 Par ch=1 c=64 v=0
65468 Par ch=1 c=64 v=0
65482 Off ch=1 n=d#4 v=64
65491 Off ch=1 n=g5 v=64
65514 Par ch=1 c=64 v=127
65514 Par ch=1 c=64 v=127
65578 On ch=1 n=d5 v=53
65583 Off ch=1 n=f#5 v=64
65643 Off ch=1 n=c#5 v=64
65681 Par ch=1 c=64 v=0
65681 Par ch=1 c=64 v=0
65691 On ch=1 n=f#5 v=65
65700 On ch=1 n=g#4 v=53
65702 On ch=1 n=b4 v=46
65706 Off ch=1 n=a4 v=64
65709 Par ch=1 c=64 v=127
65709 Par ch=1 c=64 v=127
65716 Off ch=1 n=d5 v=64
65971 On ch=1 n=c#4 v=76
65973 On ch=1 n=c#3 v=66
65974 Off ch=1 n=g#4 v=64
65976 Off ch=1 n=b4 v=64
65982 Par ch=1 c=64 v=0
65982 Par ch=1 c=64 v=0
66004 Off ch=1 n=d4 v=64
66025 Par ch=1 c=64 v=127
66025 Par ch=1 c=64 v=127
66149 Off ch=1 n=f#5 v=64
66152 On ch=1 n=g#5 v=53
66182 Off ch=1 n=c#4 v=64
66184 Off ch=1 n=c#3 v=64
66189 On ch=1 n=f#5 v=70
66214 Off ch=1 n=g#5 v=64
66230 On ch=1 n=c#4 v=65
66233 On ch=1 n=f5 v=70
66233 On ch=1 n=g#4 v=58
66237 On ch=1 n=b4 v=63
66246 Off ch=1 n=f#5 v=64
66246 Par ch=1 c=64 v=0
66246 Par ch=1 c=64 v=0
66271 Par ch=1 c=64 v=127
66271 Par ch=1 c=64 v=127
66289 Off ch=1 n=c#4 v=64
66305 Off ch=1 n=b4 v=64
66341 Off ch=1 n=g#4 v=64
66348 On ch=1 n=f#5 v=66
66349 Off ch=1 n=f5 v=64
66440 Par ch=1 c=64 v=0
66440 Par ch=1 c=64 v=0
66452 On ch=1 n=g#5 v=71
66452 On ch=1 n=c#4 v=63
66457 On ch=1 n=b4 v=66
66457 On ch=1 n=f4 v=66
66462 Off ch=1 n=f#5 v=64
66489 Par ch=1 c=64 v=127
66489 Par ch=1 c=64 v=127
66501 Off ch=1 n=b4 v=64
66519 Off ch=1 n=f4 v=64
66524 Off ch=1 n=c#4 v=64
66609 On ch=1 n=d5 v=53
66624 Off ch=1 n=g#5 v=64
66649 Par ch=1 c=64 v=0
66649 Par ch=1 c=64 v=0
66657 On ch=1 n=c#5 v=70
66662 On ch=1 n=f#3 v=65
66682 Off ch=1 n=d5 v=64
66719 Par ch=1 c=64 v=127
66719 Par ch=1 c=64 v=127
66806 On ch=1 n=f#5 v=53
66833 Off ch=1 n=c#5 v=64
66845 Par ch=1 c=64 v=0
66845 Par ch=1 c=64 v=0
66850 On ch=1 n=a5 v=63
66852 On ch=1 n=f#4 v=67
66853 On ch=1 n=c#5 v=55
66873 Off ch=1 n=f#3 v=64
66883 Off ch=1 n=f#5 v=64
66893 Off ch=1 n=f#4 v=64
66894 Off ch=1 n=c#5 v=64
66958 Par ch=1 c=64 v=127
66958 Par ch=1 c=64 v=127
67046 Off ch=1 n=a5 v=64
67075 On ch=1 n=c#5 v=61
67081 On ch=1 n=a5 v=65
67082 On ch=1 n=f#5 v=65
67086 On ch=1 n=f#4 v=63
67097 Par ch=1 c=64 v=127
67097 Par ch=1 c=64 v=127
67115 Off ch=1 n=c#5 v=64
67125 Off ch=1 n=f#4 v=64
67285 On ch=1 n=e3 v=70
67295 Par ch=1 c=64 v=0
67295 Par ch=1 c=64 v=0
67317 Par ch=1 c=64 v=127
67317 Par ch=1 c=64 v=127
67415 On ch=1 n=b5 v=52
67437 Off ch=1 n=a5 v=64
67447 Off ch=1 n=f#5 v=64
67454 On ch=1 n=a5 v=55
67464 Off ch=1 n=b5 v=64
67486 On ch=1 n=g#5 v=67
67490 On ch=1 n=e5 v=44
67493 Off ch=1 n=e3 v=64
67495 On ch=1 n=e4 v=58
67499 On ch=1 n=b4 v=66
67499 Par ch=1 c=64 v=0
67499 Par ch=1 c=64 v=0
67513 Off ch=1 n=a5 v=64
67538 Off ch=1 n=b4 v=64
67546 Par ch=1 c=64 v=127
67546 Par ch=1 c=64 v=127
67553 Off ch=1 n=e4 v=64
67595 Off ch=1 n=e5 v=64
67603 On ch=1 n=a5 v=55
67632 Off ch=1 n=g#5 v=64
67693 On ch=1 n=b5 v=66
67693 On ch=1 n=d5 v=61
67699 On ch=1 n=e4 v=65
67709 Par ch=1 c=64 v=0
67709 Par ch=1 c=64 v=0
67720 Off ch=1 n=a5 v=64
67724 Par ch=1 c=64 v=127
67724 Par ch=1 c=64 v=127
67749 Off ch=1 n=e4 v=64
67828 On ch=1 n=f#5 v=50
67840 Off ch=1 n=b5 v=64
67883 On ch=1 n=a3 v=66
67884 Par ch=1 c=64 v=0
67884 Par ch=1 c=64 v=0
67893 On ch=1 n=e5 v=50
67933 Off ch=1 n=f#5 v=64
67943 Par ch=1 c=64 v=127
67943 Par ch=1 c=64 v=127
68030 On ch=1 n=a5 v=52
68064 Off ch=1 n=e5 v=64
68071 Par ch=1 c=64 v=0
68071 Par ch=1 c=64 v=0
68072 Off ch=1 n=d5 v=64
68081 On ch=1 n=c#6 v=74
68083 On ch=1 n=c#5 v=58
68083 On ch=1 n=a4 v=59
68109 Off ch=1 n=a5 v=64
68113 Par ch=1 c=64 v=127
68113 Par ch=1 c=64 v=127
68121 Off ch=1 n=a3 v=64
68127 Off ch=1 n=a4 v=64
68127 Off ch=1 n=c#5 v=64
68280 Off ch=1 n=c#6 v=64
68312 On ch=1 n=c#6 v=61
68312 On ch=1 n=a4 v=61
68316 On ch=1 n=e5 v=61
68326 Par ch=1 c=64 v=0
68326 Par ch=1 c=64 v=0
68390 Par ch=1 c=64 v=127
68390 Par ch=1 c=64 v=127
68469 Off ch=1 n=e5 v=64
68580 Off ch=1 n=c#6 v=64
68589 On ch=1 n=e6 v=52
68598 On ch=1 n=d4 v=28
68602 On ch=1 n=f5 v=26
68626 Par ch=1 c=64 v=0
68626 Par ch=1 c=64 v=0
68660 Par ch=1 c=64 v=127
68660 Par ch=1 c=64 v=127
68702 Off ch=1 n=a4 v=64
68712 Off ch=1 n=d4 v=64
68737 On ch=1 n=d6 v=52
68745 Off ch=1 n=e6 v=64
68764 Off ch=1 n=f5 v=64
68771 On ch=1 n=c#6 v=61
68802 Off ch=1 n=d6 v=64
68822 On ch=1 n=b5 v=57
68827 On ch=1 n=a4 v=46
68829 On ch=1 n=d4 v=40
68837 On ch=1 n=f5 v=42
68843 Par ch=1 c=64 v=0
68843 Par ch=1 c=64 v=0
68852 Off ch=1 n=c#6 v=64
68869 Par ch=1 c=64 v=127
68869 Par ch=1 c=64 v=127
68904 Off ch=1 n=d4 v=64
68911 Off ch=1 n=a4 v=64
68927 Off ch=1 n=f5 v=64
69042 On ch=1 n=c#6 v=58
69049 On ch=1 n=e5 v=44
69057 On ch=1 n=a3 v=44
69060 On ch=1 n=a4 v=46
69065 Off ch=1 n=b5 v=64
69076 Par ch=1 c=64 v=0
69076 Par ch=1 c=64 v=0
69118 Par ch=1 c=64 v=127
69118 Par ch=1 c=64 v=127
69191 Off ch=1 n=e5 v=64
69236 Off ch=1 n=a3 v=64
69292 On ch=1 n=f5 v=52
69299 On ch=1 n=e6 v=57
69304 Off ch=1 n=c#6 v=64
69304 On ch=1 n=d4 v=44
69323 Par ch=1 c=64 v=0
69323 Par ch=1 c=64 v=0
69346 Par ch=1 c=64 v=127
69346 Par ch=1 c=64 v=127
69400 Off ch=1 n=a4 v=64
69426 Off ch=1 n=d4 v=64
69449 On ch=1 n=d6 v=52
69464 Off ch=1 n=f5 v=64
69474 Off ch=1 n=e6 v=64
69485 On ch=1 n=c#6 v=63
69521 On ch=1 n=a4 v=40
69524 On ch=1 n=d4 v=35
69530 Off ch=1 n=d6 v=64
69532 On ch=1 n=b5 v=42
69537 On ch=1 n=f5 v=39
69554 Par ch=1 c=64 v=0
69554 Par ch=1 c=64 v=0
69561 Off ch=1 n=c#6 v=64
69580 Par ch=1 c=64 v=127
69580 Par ch=1 c=64 v=127
69635 Off ch=1 n=f5 v=64
69638 Off ch=1 n=d4 v=64
69710 Off ch=1 n=a4 v=64
69779 On ch=1 n=c#6 v=55
69782 On ch=1 n=e5 v=42
69788 On ch=1 n=a3 v=35
69793 Off ch=1 n=b5 v=64
69798 On ch=1 n=a4 v=31
69818 Par ch=1 c=64 v=0
69818 Par ch=1 c=64 v=0
69854 Par ch=1 c=64 v=127
69854 Par ch=1 c=64 v=127
69900 Off ch=1 n=e5 v=64
69968 Off ch=1 n=a3 v=64
70081 On ch=1 n=e6 v=57
70089 On ch=1 n=f#5 v=48
70089 On ch=1 n=d4 v=48
70096 Off ch=1 n=c#6 v=64
70121 Par ch=1 c=64 v=0
70121 Par ch=1 c=64 v=0
70152 Par ch=1 c=64 v=127
70152 Par ch=1 c=64 v=127
70172 Off ch=1 n=d4 v=64
70247 On ch=1 n=d6 v=52
70275 Off ch=1 n=e6 v=64
70277 On ch=1 n=c#6 v=58
70298 Off ch=1 n=d6 v=64
70332 On ch=1 n=b5 v=61
70335 On ch=1 n=g#4 v=52
70349 Off ch=1 n=c#6 v=64
70369 Par ch=1 c=64 v=0
70369 Par ch=1 c=64 v=0
70391 Off ch=1 n=a4 v=64
70407 Par ch=1 c=64 v=127
70407 Par ch=1 c=64 v=127
70551 Off ch=1 n=f#5 v=64
70633 Off ch=1 n=g#4 v=64
70656 On ch=1 n=c#6 v=57
70661 On ch=1 n=c#5 v=29
70661 On ch=1 n=c#4 v=39
70662 Off ch=1 n=b5 v=64
70668 On ch=1 n=f5 v=53
70692 Par ch=1 c=64 v=0
70692 Par ch=1 c=64 v=0
70726 Par ch=1 c=64 v=127
70726 Par ch=1 c=64 v=127
70798 Off ch=1 n=c#4 v=64
70835 Off ch=1 n=c#5 v=64
70855 Off ch=1 n=f5 v=64
71048 On ch=1 n=f#4 v=42
71056 On ch=1 n=f#5 v=39
71059 On ch=1 n=b5 v=46
71064 On ch=1 n=d5 v=31
71085 Off ch=1 n=c#6 v=64
71085 Par ch=1 c=64 v=0
71085 Par ch=1 c=64 v=0
71119 Par ch=1 c=64 v=127
71119 Par ch=1 c=64 v=127
71184 Off ch=1 n=b5 v=64
71187 On ch=1 n=c#5 v=52
71192 On ch=1 n=a5 v=52
71240 Off ch=1 n=d5 v=64
71292 On ch=1 n=g#5 v=54
71300 Off ch=1 n=f#5 v=64
71300 On ch=1 n=b4 v=50
71303 Off ch=1 n=c#5 v=64
71305 Off ch=1 n=a5 v=64
71421 On ch=1 n=f#5 v=48
71423 Off ch=1 n=b4 v=64
71428 On ch=1 n=a4 v=40
71435 Off ch=1 n=g#5 v=64
71474 Par ch=1 c=64 v=0
71474 Par ch=1 c=64 v=0
72456 Off ch=1 n=f#4 v=64
72473 Off ch=1 n=a4 v=64
72485 Off ch=1 n=f#5 v=64
72485 Meta TrkEnd
TrkEnd
MTrk
0 Meta TrkName "Played by Dr. Ron Lubetsky"
0 Meta TrkEnd
TrkEnd
MTrk
0 Meta TrkName "Jan. 25, 1"
