MFile 1 7 240
MTrk
0 TimeSig 4/4 24 8
0 Tempo 500000
0 Meta Marker "Chopin : Mazurka, Op. 7 No. 1- Vivace"
0 Meta TrkEnd
TrkEnd
MTrk
0 Meta TrkName "Chopin : Op. 7 No. 1"
0 PrCh ch=1 p=0
0 Par ch=1 c=7 v=127
131 Par ch=1 c=64 v=127
131 Par ch=1 c=64 v=127
161 On ch=1 n=f3 v=58
167 On ch=1 n=f5 v=58
223 Off ch=1 n=f5 v=64
248 Off ch=1 n=f3 v=64
308 On ch=1 n=f5 v=53
341 On ch=1 n=g5 v=63
351 On ch=1 n=f4 v=54
357 On ch=1 n=c5 v=58
358 On ch=1 n=d#5 v=61
362 Off ch=1 n=f5 v=64
393 Off ch=1 n=f4 v=64
399 Off ch=1 n=d#5 v=64
401 Off ch=1 n=c5 v=64
518 Par ch=1 c=64 v=0
518 Par ch=1 c=64 v=0
533 On ch=1 n=a5 v=62
533 On ch=1 n=d#5 v=35
541 On ch=1 n=c5 v=59
541 On ch=1 n=f4 v=55
548 Off ch=1 n=g5 v=64
567 Off ch=1 n=c5 v=64
568 Off ch=1 n=d#5 v=64
572 Off ch=1 n=f4 v=64
576 Par ch=1 c=64 v=127
576 Par ch=1 c=64 v=127
719 On ch=1 n=a#5 v=66
719 On ch=1 n=a#3 v=66
730 Par ch=1 c=64 v=0
730 Par ch=1 c=64 v=0
740 Par ch=1 c=64 v=127
740 Par ch=1 c=64 v=127
750 Off ch=1 n=a5 v=64
796 Off ch=1 n=a#5 v=64
803 Off ch=1 n=a#3 v=64
842 On ch=1 n=c6 v=61
878 Par ch=1 c=64 v=0
878 Par ch=1 c=64 v=0
883 On ch=1 n=a#4 v=63
887 On ch=1 n=f4 v=61
891 On ch=1 n=d5 v=49
894 On ch=1 n=d6 v=72
909 Off ch=1 n=c6 v=64
919 Off ch=1 n=d5 v=64
925 Off ch=1 n=a#4 v=64
931 Par ch=1 c=64 v=127
931 Par ch=1 c=64 v=127
934 Off ch=1 n=f4 v=64
1053 Par ch=1 c=64 v=0
1053 Par ch=1 c=64 v=0
1059 On ch=1 n=a#3 v=67
1063 On ch=1 n=d#6 v=67
1080 Off ch=1 n=d6 v=64
1094 Par ch=1 c=64 v=127
1094 Par ch=1 c=64 v=127
1146 Off ch=1 n=a#3 v=64
1167 On ch=1 n=f6 v=65
1179 Off ch=1 n=d#6 v=64
1234 On ch=1 n=d#3 v=71
1241 On ch=1 n=g6 v=78
1242 On ch=1 n=d#4 v=67
1247 Par ch=1 c=64 v=0
1247 Par ch=1 c=64 v=0
1254 Off ch=1 n=f6 v=64
1290 Par ch=1 c=64 v=127
1290 Par ch=1 c=64 v=127
1370 On ch=1 n=a6 v=67
1378 On ch=1 n=g4 v=62
1379 Off ch=1 n=g6 v=64
1442 On ch=1 n=a#4 v=53
1474 Off ch=1 n=d#3 v=64
1482 Off ch=1 n=d#4 v=64
1490 On ch=1 n=d#5 v=45
1509 On ch=1 n=c7 v=78
1516 Off ch=1 n=a6 v=64
1519 Par ch=1 c=64 v=0
1519 Par ch=1 c=64 v=0
1538 On ch=1 n=g5 v=53
1540 On ch=1 n=a#6 v=83
1546 Par ch=1 c=64 v=127
1546 Par ch=1 c=64 v=127
1550 Off ch=1 n=c7 v=64
1579 On ch=1 n=c7 v=79
1589 Off ch=1 n=a#6 v=64
1589 Off ch=1 n=g4 v=64
1610 On ch=1 n=a#6 v=74
1620 Off ch=1 n=c7 v=64
1627 Off ch=1 n=a#4 v=64
1639 Off ch=1 n=a#6 v=64
1639 On ch=1 n=c7 v=70
1660 Off ch=1 n=d#5 v=64
1663 On ch=1 n=a#6 v=71
1668 Off ch=1 n=g5 v=64
1687 Off ch=1 n=c7 v=64
1727 On ch=1 n=a6 v=72
1735 Off ch=1 n=a#6 v=64
1793 On ch=1 n=g6 v=72
1817 Off ch=1 n=a6 v=64
1886 On ch=1 n=f6 v=66
1903 Off ch=1 n=g6 v=64
1922 On ch=1 n=a#6 v=72
1927 On ch=1 n=a#3 v=57
1931 Off ch=1 n=f6 v=64
1935 Par ch=1 c=64 v=0
1935 Par ch=1 c=64 v=0
1955 Off ch=1 n=a#6 v=64
1993 Par ch=1 c=64 v=127
1993 Par ch=1 c=64 v=127
2011 Par ch=1 c=64 v=127
2011 Par ch=1 c=64 v=127
2014 Off ch=1 n=a#3 v=64
2057 On ch=1 n=a#6 v=52
2087 Par ch=1 c=64 v=0
2087 Par ch=1 c=64 v=0
2096 On ch=1 n=d6 v=62
2104 On ch=1 n=d5 v=45
2111 On ch=1 n=a#4 v=42
2111 On ch=1 n=f4 v=41
2133 Off ch=1 n=a#4 v=64
2135 Off ch=1 n=a#6 v=64
2141 Off ch=1 n=f4 v=64
2150 Off ch=1 n=d5 v=64
2270 On ch=1 n=d5 v=39
2278 On ch=1 n=a#4 v=41
2279 On ch=1 n=f4 v=39
2281 Par ch=1 c=64 v=127
2281 Par ch=1 c=64 v=127
2300 Off ch=1 n=a#4 v=64
2300 Off ch=1 n=d5 v=64
2309 Off ch=1 n=f4 v=64
2400 On ch=1 n=d#6 v=49
2415 Off ch=1 n=d6 v=64
2438 On ch=1 n=f3 v=52
2443 On ch=1 n=g6 v=53
2451 Par ch=1 c=64 v=0
2451 Par ch=1 c=64 v=0
2460 Off ch=1 n=d#6 v=64
2480 Off ch=1 n=g6 v=64
2525 Off ch=1 n=f3 v=64
2563 On ch=1 n=g6 v=41
2603 On ch=1 n=a5 v=46
2606 On ch=1 n=f4 v=31
2615 Off ch=1 n=g6 v=64
2617 On ch=1 n=c5 v=45
2619 On ch=1 n=d#5 v=24
2649 Off ch=1 n=f4 v=64
2656 Off ch=1 n=c5 v=64
2658 Off ch=1 n=d#5 v=64
2663 Par ch=1 c=64 v=127
2663 Par ch=1 c=64 v=127
2767 On ch=1 n=d#5 v=32
2771 On ch=1 n=c5 v=36
2771 On ch=1 n=f4 v=36
2806 Off ch=1 n=d#5 v=64
2810 Off ch=1 n=f4 v=64
2810 Off ch=1 n=c5 v=64
2890 On ch=1 n=a#5 v=41
2900 Off ch=1 n=a5 v=64
2918 On ch=1 n=a#3 v=41
2926 On ch=1 n=d6 v=45
2938 Par ch=1 c=64 v=0
2938 Par ch=1 c=64 v=0
2943 Off ch=1 n=a#5 v=64
2963 Off ch=1 n=d6 v=64
3005 Off ch=1 n=a#3 v=64
3052 On ch=1 n=d6 v=39
3084 On ch=1 n=a#4 v=32
3086 On ch=1 n=e5 v=42
3092 On ch=1 n=f4 v=33
3098 On ch=1 n=d5 v=20
3114 Off ch=1 n=d6 v=64
3124 Off ch=1 n=a#4 v=64
3126 Off ch=1 n=f4 v=64
3131 Off ch=1 n=d5 v=64
3233 On ch=1 n=a#4 v=31
3239 On ch=1 n=d5 v=31
3239 On ch=1 n=f4 v=32
3255 Par ch=1 c=64 v=127
3255 Par ch=1 c=64 v=127
3262 Off ch=1 n=a#4 v=64
3268 Off ch=1 n=d5 v=64
3276 Off ch=1 n=f4 v=64
3383 Par ch=1 c=64 v=127
3383 Par ch=1 c=64 v=127
3405 On ch=1 n=f3 v=48
3412 On ch=1 n=f5 v=52
3419 Par ch=1 c=64 v=0
3419 Par ch=1 c=64 v=0
3425 Off ch=1 n=e5 v=64
3462 Par ch=1 c=64 v=127
3462 Par ch=1 c=64 v=127
3492 Off ch=1 n=f3 v=64
3529 On ch=1 n=a5 v=58
3531 Off ch=1 n=f5 v=64
3577 Par ch=1 c=64 v=0
3577 Par ch=1 c=64 v=0
3581 On ch=1 n=d#5 v=26
3585 On ch=1 n=f4 v=48
3593 On ch=1 n=c6 v=62
3604 Par ch=1 c=64 v=127
3604 Par ch=1 c=64 v=127
3609 Off ch=1 n=a5 v=64
3646 Off ch=1 n=f4 v=64
3649 On ch=1 n=d#6 v=53
3655 Off ch=1 n=d#5 v=64
3713 Off ch=1 n=c6 v=64
3725 On ch=1 n=g6 v=41
3729 On ch=1 n=d#5 v=52
3732 On ch=1 n=f4 v=44
3747 Off ch=1 n=d#6 v=64
3781 Off ch=1 n=d#5 v=64
3796 Off ch=1 n=f4 v=64
3821 On ch=1 n=f6 v=65
3851 Off ch=1 n=g6 v=64
3867 Off ch=1 n=f6 v=64
3873 On ch=1 n=f6 v=74
3891 Par ch=1 c=64 v=0
3891 Par ch=1 c=64 v=0
3897 On ch=1 n=a#3 v=66
3912 On ch=1 n=d7 v=67
3921 Off ch=1 n=f6 v=64
3937 Par ch=1 c=64 v=127
3937 Par ch=1 c=64 v=127
3984 Off ch=1 n=a#3 v=64
4014 On ch=1 n=c7 v=67
4041 Off ch=1 n=d7 v=64
4073 On ch=1 n=f4 v=41
4074 On ch=1 n=a#6 v=74
4083 On ch=1 n=d5 v=39
4084 On ch=1 n=a#4 v=29
4086 Off ch=1 n=c7 v=64
4091 Par ch=1 c=64 v=0
4091 Par ch=1 c=64 v=0
4101 On ch=1 n=c7 v=65
4108 Off ch=1 n=a#4 v=64
4114 Off ch=1 n=a#6 v=64
4116 Par ch=1 c=64 v=127
4116 Par ch=1 c=64 v=127
4123 Off ch=1 n=f4 v=64
4126 Off ch=1 n=d5 v=64
4136 On ch=1 n=a#6 v=59
4159 Off ch=1 n=c7 v=64
4194 On ch=1 n=g6 v=54
4211 Off ch=1 n=a#6 v=64
4242 Par ch=1 c=64 v=0
4242 Par ch=1 c=64 v=0
4249 On ch=1 n=d5 v=46
4249 On ch=1 n=f4 v=45
4250 On ch=1 n=a#4 v=44
4253 On ch=1 n=f6 v=54
4273 Off ch=1 n=f4 v=64
4274 Off ch=1 n=a#4 v=64
4274 Off ch=1 n=d5 v=64
4276 Off ch=1 n=g6 v=64
4278 Par ch=1 c=64 v=127
4278 Par ch=1 c=64 v=127
4398 On ch=1 n=g6 v=66
4404 Par ch=1 c=64 v=0
4404 Par ch=1 c=64 v=0
4412 Off ch=1 n=f6 v=64
4438 On ch=1 n=a#6 v=67
4438 On ch=1 n=a#3 v=58
4452 Off ch=1 n=g6 v=64
4456 Par ch=1 c=64 v=127
4456 Par ch=1 c=64 v=127
4471 Off ch=1 n=a#6 v=64
4525 Off ch=1 n=a#3 v=64
4590 On ch=1 n=a#6 v=59
4611 Par ch=1 c=64 v=0
4611 Par ch=1 c=64 v=0
4638 On ch=1 n=c5 v=45
4638 On ch=1 n=f4 v=35
4639 Off ch=1 n=a#6 v=64
4642 On ch=1 n=a5 v=58
4642 On ch=1 n=d#5 v=49
4670 Off ch=1 n=c5 v=64
4677 Off ch=1 n=f4 v=64
4684 Off ch=1 n=d#5 v=64
4755 Par ch=1 c=64 v=0
4755 Par ch=1 c=64 v=0
4794 On ch=1 n=c5 v=45
4800 On ch=1 n=d#5 v=41
4807 On ch=1 n=f4 v=39
4815 Par ch=1 c=64 v=127
4815 Par ch=1 c=64 v=127
4826 Off ch=1 n=c5 v=64
4834 Off ch=1 n=d#5 v=64
4844 Off ch=1 n=f4 v=64
4913 On ch=1 n=a#5 v=46
4922 Off ch=1 n=a5 v=64
4936 On ch=1 n=d6 v=41
4950 Off ch=1 n=a#5 v=64
4966 On ch=1 n=a#3 v=52
4969 Par ch=1 c=64 v=0
4969 Par ch=1 c=64 v=0
4974 On ch=1 n=f6 v=59
4993 Off ch=1 n=d6 v=64
5014 Off ch=1 n=f6 v=64
5053 Off ch=1 n=a#3 v=64
5089 On ch=1 n=f6 v=54
5127 On ch=1 n=f4 v=35
5132 Off ch=1 n=f6 v=64
5132 On ch=1 n=a#4 v=42
5135 On ch=1 n=e5 v=62
5136 On ch=1 n=d5 v=41
5174 Off ch=1 n=a#4 v=64
5178 Off ch=1 n=f4 v=64
5181 Off ch=1 n=d5 v=64
5300 On ch=1 n=d5 v=41
5300 On ch=1 n=f4 v=45
5302 On ch=1 n=a#4 v=45
5312 Par ch=1 c=64 v=127
5312 Par ch=1 c=64 v=127
5331 Off ch=1 n=a#4 v=64
5340 Off ch=1 n=d5 v=64
5344 Off ch=1 n=f4 v=64
5472 On ch=1 n=f3 v=44
5473 On ch=1 n=f5 v=62
5473 Par ch=1 c=64 v=0
5473 Par ch=1 c=64 v=0
5502 Off ch=1 n=e5 v=64
5517 Par ch=1 c=64 v=127
5517 Par ch=1 c=64 v=127
5559 Off ch=1 n=f3 v=64
5587 On ch=1 n=a5 v=53
5613 Off ch=1 n=f5 v=64
5623 Par ch=1 c=64 v=0
5623 Par ch=1 c=64 v=0
5633 On ch=1 n=d#5 v=53
5637 On ch=1 n=c6 v=53
5640 On ch=1 n=f4 v=36
5663 Par ch=1 c=64 v=127
5663 Par ch=1 c=64 v=127
5700 Off ch=1 n=f4 v=64
5703 Off ch=1 n=a5 v=64
5711 Off ch=1 n=d#5 v=64
5715 On ch=1 n=d#6 v=37
5726 Off ch=1 n=c6 v=64
5811 On ch=1 n=d6 v=55
5820 On ch=1 n=a4 v=41
5823 On ch=1 n=f4 v=55
5824 On ch=1 n=d#5 v=46
5830 Off ch=1 n=d#6 v=64
5837 On ch=1 n=d#6 v=53
5849 Off ch=1 n=a4 v=64
5856 Off ch=1 n=d6 v=64
5866 Off ch=1 n=d#5 v=64
5875 Off ch=1 n=f4 v=64
5882 On ch=1 n=d6 v=37
5891 Off ch=1 n=d#6 v=64
5945 On ch=1 n=c6 v=57
5962 Off ch=1 n=d6 v=64
5970 Par ch=1 c=64 v=127
5970 Par ch=1 c=64 v=127
6013 On ch=1 n=d6 v=66
6013 On ch=1 n=a#3 v=57
6016 Off ch=1 n=c6 v=64
6023 Par ch=1 c=64 v=0
6023 Par ch=1 c=64 v=0
6058 Par ch=1 c=64 v=127
6058 Par ch=1 c=64 v=127
6119 On ch=1 n=f5 v=59
6176 Par ch=1 c=64 v=0
6176 Par ch=1 c=64 v=0
6180 On ch=1 n=a#5 v=66
6183 Off ch=1 n=d6 v=64
6186 On ch=1 n=d5 v=41
6186 On ch=1 n=a#4 v=41
6188 On ch=1 n=f4 v=45
6193 Off ch=1 n=f5 v=64
6208 Off ch=1 n=a#3 v=64
6232 Par ch=1 c=64 v=127
6232 Par ch=1 c=64 v=127
6342 Off ch=1 n=a#4 v=64
6344 Off ch=1 n=f4 v=64
6356 Off ch=1 n=d5 v=64
6359 On ch=1 n=a5 v=49
6363 Off ch=1 n=a#5 v=64
6380 Par ch=1 c=64 v=0
6380 Par ch=1 c=64 v=0
6390 Par ch=1 c=64 v=127
6390 Par ch=1 c=64 v=127
6473 On ch=1 n=g5 v=45
6489 Off ch=1 n=a5 v=64
6524 On ch=1 n=f5 v=66
6532 Par ch=1 c=64 v=0
6532 Par ch=1 c=64 v=0
6538 On ch=1 n=f3 v=57
6546 Off ch=1 n=g5 v=64
6581 Par ch=1 c=64 v=127
6581 Par ch=1 c=64 v=127
6586 Off ch=1 n=f5 v=64
6625 Off ch=1 n=f3 v=64
6646 On ch=1 n=f5 v=63
6677 Par ch=1 c=64 v=0
6677 Par ch=1 c=64 v=0
6697 On ch=1 n=g5 v=75
6697 On ch=1 n=f4 v=44
6705 On ch=1 n=d#5 v=66
6705 On ch=1 n=c5 v=37
6713 Off ch=1 n=f5 v=64
6729 Off ch=1 n=f4 v=64
6733 Off ch=1 n=c5 v=64
6752 Off ch=1 n=d#5 v=64
6852 On ch=1 n=a5 v=55
6857 On ch=1 n=f4 v=44
6858 On ch=1 n=d#5 v=44
6868 Off ch=1 n=g5 v=64
6868 On ch=1 n=c5 v=35
6880 Par ch=1 c=64 v=127
6880 Par ch=1 c=64 v=127
6889 Off ch=1 n=f4 v=64
6890 Off ch=1 n=c5 v=64
6890 Off ch=1 n=d#5 v=64
6960 Par ch=1 c=64 v=127
6960 Par ch=1 c=64 v=127
7018 On ch=1 n=a#3 v=59
7018 Par ch=1 c=64 v=0
7018 Par ch=1 c=64 v=0
7022 On ch=1 n=a#5 v=65
7047 Off ch=1 n=a5 v=64
7057 Par ch=1 c=64 v=127
7057 Par ch=1 c=64 v=127
7067 Off ch=1 n=a#5 v=64
7102 Off ch=1 n=a#3 v=64
7129 On ch=1 n=c6 v=57
7166 On ch=1 n=a#4 v=45
7171 On ch=1 n=d5 v=36
7175 Par ch=1 c=64 v=0
7175 Par ch=1 c=64 v=0
7183 On ch=1 n=d6 v=68
7183 On ch=1 n=f4 v=55
7203 Off ch=1 n=c6 v=64
7205 Par ch=1 c=64 v=127
7205 Par ch=1 c=64 v=127
7212 Off ch=1 n=d5 v=64
7214 Off ch=1 n=a#4 v=64
7218 Off ch=1 n=f4 v=64
7327 Par ch=1 c=64 v=0
7327 Par ch=1 c=64 v=0
7334 On ch=1 n=d#6 v=72
7336 On ch=1 n=a#3 v=72
7360 Off ch=1 n=d6 v=64
7365 Par ch=1 c=64 v=127
7365 Par ch=1 c=64 v=127
7423 Off ch=1 n=a#3 v=64
7440 On ch=1 n=f6 v=67
7461 Off ch=1 n=d#6 v=64
7497 Par ch=1 c=64 v=0
7497 Par ch=1 c=64 v=0
7507 On ch=1 n=d#3 v=74
7510 On ch=1 n=g6 v=63
7511 On ch=1 n=d#4 v=71
7538 Off ch=1 n=f6 v=64
7538 Par ch=1 c=64 v=127
7538 Par ch=1 c=64 v=127
7617 On ch=1 n=a6 v=70
7623 On ch=1 n=g4 v=63
7630 Off ch=1 n=g6 v=64
7663 On ch=1 n=a#4 v=54
7695 On ch=1 n=d#5 v=46
7734 On ch=1 n=c7 v=78
7735 Off ch=1 n=a6 v=64
7744 Par ch=1 c=64 v=0
7744 Par ch=1 c=64 v=0
7747 Off ch=1 n=d#3 v=64
7751 Off ch=1 n=d#4 v=64
7759 On ch=1 n=g5 v=53
7765 On ch=1 n=a#6 v=84
7771 Par ch=1 c=64 v=127
7771 Par ch=1 c=64 v=127
7775 Off ch=1 n=c7 v=64
7802 Off ch=1 n=a#6 v=64
7804 On ch=1 n=c7 v=79
7834 Off ch=1 n=g4 v=64
7837 Off ch=1 n=c7 v=64
7848 On ch=1 n=a#6 v=74
7851 Off ch=1 n=a#4 v=64
7867 On ch=1 n=c7 v=70
7868 Off ch=1 n=d#5 v=64
7872 Off ch=1 n=a#6 v=64
7892 Off ch=1 n=g5 v=64
7895 On ch=1 n=a#6 v=71
7915 Off ch=1 n=c7 v=64
7948 On ch=1 n=a6 v=72
7949 Off ch=1 n=a#6 v=64
7998 Off ch=1 n=a6 v=64
8020 On ch=1 n=g6 v=76
8067 Off ch=1 n=g6 v=64
8075 On ch=1 n=f6 v=62
8092 Par ch=1 c=64 v=0
8092 Par ch=1 c=64 v=0
8099 On ch=1 n=a#3 v=66
8104 On ch=1 n=a#6 v=66
8118 Off ch=1 n=f6 v=64
8135 Off ch=1 n=a#6 v=64
8186 Off ch=1 n=a#3 v=64
8227 On ch=1 n=a#6 v=50
8250 On ch=1 n=a#4 v=22
8256 On ch=1 n=f4 v=36
8258 On ch=1 n=d6 v=62
8264 On ch=1 n=d5 v=35
8283 Off ch=1 n=a#6 v=64
8300 Off ch=1 n=a#4 v=64
8301 Off ch=1 n=f4 v=64
8307 Off ch=1 n=d5 v=64
8409 On ch=1 n=d5 v=49
8415 On ch=1 n=a#4 v=52
8415 On ch=1 n=f4 v=46
8425 Par ch=1 c=64 v=127
8425 Par ch=1 c=64 v=127
8435 Off ch=1 n=a#4 v=64
8442 Off ch=1 n=d5 v=64
8447 Off ch=1 n=f4 v=64
8546 On ch=1 n=d#6 v=52
8562 Off ch=1 n=d6 v=64
8570 On ch=1 n=f3 v=42
8570 Par ch=1 c=64 v=0
8570 Par ch=1 c=64 v=0
8580 On ch=1 n=g6 v=57
8597 Off ch=1 n=d#6 v=64
8620 Off ch=1 n=g6 v=64
8657 Off ch=1 n=f3 v=64
8710 On ch=1 n=g6 v=45
8730 On ch=1 n=f4 v=39
8739 On ch=1 n=d#5 v=41
8739 On ch=1 n=c5 v=32
8741 On ch=1 n=a5 v=49
8746 Off ch=1 n=g6 v=64
8778 Off ch=1 n=c5 v=64
8783 Off ch=1 n=f4 v=64
8785 Off ch=1 n=d#5 v=64
8796 Par ch=1 c=64 v=127
8796 Par ch=1 c=64 v=127
8891 On ch=1 n=c5 v=36
8891 On ch=1 n=f4 v=36
8892 On ch=1 n=d#5 v=49
8920 Off ch=1 n=f4 v=64
8920 Off ch=1 n=c5 v=64
8929 Off ch=1 n=d#5 v=64
9011 On ch=1 n=a#5 v=50
9038 Off ch=1 n=a5 v=64
9048 On ch=1 n=d6 v=57
9048 On ch=1 n=a#3 v=52
9056 Par ch=1 c=64 v=0
9056 Par ch=1 c=64 v=0
9067 Off ch=1 n=a#5 v=64
9090 Off ch=1 n=d6 v=64
9135 Off ch=1 n=a#3 v=64
9163 On ch=1 n=d6 v=52
9194 On ch=1 n=a#4 v=44
9201 On ch=1 n=f4 v=41
9208 On ch=1 n=d5 v=46
9211 On ch=1 n=e5 v=53
9238 Off ch=1 n=d6 v=64
9252 Off ch=1 n=a#4 v=64
9255 Off ch=1 n=d5 v=64
9255 Off ch=1 n=f4 v=64
9371 On ch=1 n=a#4 v=40
9374 On ch=1 n=d5 v=46
9378 On ch=1 n=f4 v=41
9397 Par ch=1 c=64 v=127
9397 Par ch=1 c=64 v=127
9400 Off ch=1 n=a#4 v=64
9405 Off ch=1 n=d5 v=64
9407 Off ch=1 n=f4 v=64
9532 On ch=1 n=f3 v=66
9541 Par ch=1 c=64 v=0
9541 Par ch=1 c=64 v=0
9545 On ch=1 n=f5 v=54
9562 Off ch=1 n=e5 v=64
9587 Par ch=1 c=64 v=127
9587 Par ch=1 c=64 v=127
9619 Off ch=1 n=f3 v=64
9656 On ch=1 n=a5 v=54
9676 Off ch=1 n=f5 v=64
9685 Par ch=1 c=64 v=0
9685 Par ch=1 c=64 v=0
9699 On ch=1 n=c6 v=50
9701 On ch=1 n=d#5 v=49
9708 On ch=1 n=f4 v=19
9735 Par ch=1 c=64 v=127
9735 Par ch=1 c=64 v=127
9745 Off ch=1 n=f4 v=64
9747 Off ch=1 n=d#5 v=64
9761 Off ch=1 n=a5 v=64
9783 On ch=1 n=d#6 v=39
9828 Off ch=1 n=c6 v=64
9855 On ch=1 n=g6 v=55
9856 On ch=1 n=f4 v=44
9859 On ch=1 n=d#5 v=46
9867 On ch=1 n=a4 v=22
9887 Off ch=1 n=d#6 v=64
9895 Off ch=1 n=a4 v=64
9898 Off ch=1 n=d#5 v=64
9899 Off ch=1 n=f4 v=64
9910 Off ch=1 n=g6 v=64
9935 On ch=1 n=f6 v=71
9965 Off ch=1 n=f6 v=64
9983 On ch=1 n=f6 v=60
10015 On ch=1 n=a#3 v=67
10025 Par ch=1 c=64 v=0
10025 Par ch=1 c=64 v=0
10034 On ch=1 n=d7 v=74
10039 Off ch=1 n=f6 v=64
10059 Par ch=1 c=64 v=127
10059 Par ch=1 c=64 v=127
10102 Off ch=1 n=a#3 v=64
10117 Off ch=1 n=d7 v=64
10137 On ch=1 n=c7 v=62
10176 Off ch=1 n=c7 v=64
10190 On ch=1 n=a#6 v=63
10197 On ch=1 n=f4 v=41
10198 On ch=1 n=a#4 v=45
10202 On ch=1 n=d5 v=50
10210 Par ch=1 c=64 v=0
10210 Par ch=1 c=64 v=0
10229 Off ch=1 n=a#4 v=64
10230 On ch=1 n=c7 v=59
10232 Off ch=1 n=a#6 v=64
10244 Off ch=1 n=d5 v=64
10245 Off ch=1 n=f4 v=64
10250 Par ch=1 c=64 v=127
10250 Par ch=1 c=64 v=127
10267 On ch=1 n=a#6 v=58
10278 Off ch=1 n=c7 v=64
10304 Off ch=1 n=a#6 v=64
10313 On ch=1 n=g6 v=44
10348 Par ch=1 c=64 v=0
10348 Par ch=1 c=64 v=0
10360 On ch=1 n=a#4 v=46
10367 On ch=1 n=d5 v=42
10367 On ch=1 n=f4 v=41
10369 On ch=1 n=f6 v=46
10375 Off ch=1 n=g6 v=64
10392 Off ch=1 n=a#4 v=64
10395 Off ch=1 n=d5 v=64
10396 Off ch=1 n=f4 v=64
10405 Par ch=1 c=64 v=127
10405 Par ch=1 c=64 v=127
10419 Off ch=1 n=f6 v=64
10496 On ch=1 n=g6 v=58
10503 Par ch=1 c=64 v=0
10503 Par ch=1 c=64 v=0
10519 On ch=1 n=a#3 v=63
10520 On ch=1 n=a#6 v=66
10537 Off ch=1 n=g6 v=64
10554 Off ch=1 n=a#6 v=64
10586 Par ch=1 c=64 v=0
10586 Par ch=1 c=64 v=0
10606 Off ch=1 n=a#3 v=64
10651 On ch=1 n=a#6 v=62
10688 Off ch=1 n=a#6 v=64
10693 On ch=1 n=a5 v=59
10696 On ch=1 n=d#5 v=51
10696 On ch=1 n=f4 v=43
10706 On ch=1 n=c5 v=39
10726 Off ch=1 n=c5 v=64
10729 Off ch=1 n=f4 v=64
10731 Off ch=1 n=d#5 v=64
10766 Par ch=1 c=64 v=127
10766 Par ch=1 c=64 v=127
10782 Par ch=1 c=64 v=0
10782 Par ch=1 c=64 v=0
10806 Par ch=1 c=64 v=127
10806 Par ch=1 c=64 v=127
10851 On ch=1 n=c5 v=37
10857 On ch=1 n=d#5 v=37
10865 On ch=1 n=f4 v=23
10870 Par ch=1 c=64 v=127
10870 Par ch=1 c=64 v=127
10876 Off ch=1 n=c5 v=64
10882 Off ch=1 n=d#5 v=64
10890 Off ch=1 n=f4 v=64
10955 On ch=1 n=a#5 v=45
10979 Off ch=1 n=a5 v=64
10984 On ch=1 n=d6 v=50
11001 Off ch=1 n=a#5 v=64
11003 Par ch=1 c=64 v=0
11003 Par ch=1 c=64 v=0
11009 On ch=1 n=a#3 v=52
11020 On ch=1 n=f6 v=44
11042 Off ch=1 n=d6 v=64
11060 Off ch=1 n=f6 v=64
11096 Off ch=1 n=a#3 v=64
11147 On ch=1 n=f6 v=46
11175 On ch=1 n=a#4 v=27
11175 On ch=1 n=f4 v=27
11176 On ch=1 n=d5 v=31
11184 Off ch=1 n=f6 v=64
11187 On ch=1 n=e5 v=59
11215 Par ch=1 c=64 v=127
11215 Par ch=1 c=64 v=127
11223 Off ch=1 n=a#4 v=64
11227 Off ch=1 n=d5 v=64
11227 Off ch=1 n=f4 v=64
11337 On ch=1 n=d5 v=35
11342 On ch=1 n=a#4 v=35
11345 On ch=1 n=f4 v=26
11370 Off ch=1 n=a#4 v=64
11374 Off ch=1 n=d5 v=64
11380 Off ch=1 n=f4 v=64
11470 Par ch=1 c=64 v=127
11470 Par ch=1 c=64 v=127
11496 Par ch=1 c=64 v=0
11496 Par ch=1 c=64 v=0
11502 On ch=1 n=f5 v=58
11502 On ch=1 n=f3 v=46
11509 Off ch=1 n=e5 v=64
11557 Par ch=1 c=64 v=127
11557 Par ch=1 c=64 v=127
11589 Off ch=1 n=f3 v=64
11599 On ch=1 n=a5 v=55
11631 Off ch=1 n=f5 v=64
11650 Par ch=1 c=64 v=0
11650 Par ch=1 c=64 v=0
11658 On ch=1 n=c6 v=53
11659 On ch=1 n=f4 v=27
11665 On ch=1 n=d#5 v=54
11682 Par ch=1 c=64 v=127
11682 Par ch=1 c=64 v=127
11684 Off ch=1 n=f4 v=64
11719 Off ch=1 n=d#5 v=64
11723 Off ch=1 n=a5 v=64
11733 On ch=1 n=d#6 v=54
11753 Off ch=1 n=c6 v=64
11824 On ch=1 n=d6 v=48
11829 On ch=1 n=d#5 v=54
11836 Off ch=1 n=d#6 v=64
11840 On ch=1 n=a4 v=44
11840 On ch=1 n=f4 v=44
11845 On ch=1 n=d#6 v=55
11857 Off ch=1 n=d6 v=64
11860 Off ch=1 n=d#5 v=64
11865 Off ch=1 n=a4 v=64
11867 Off ch=1 n=f4 v=64
11890 On ch=1 n=d6 v=48
11897 Off ch=1 n=d#6 v=64
11937 On ch=1 n=c6 v=63
11959 Off ch=1 n=d6 v=64
12027 On ch=1 n=d6 v=63
12030 On ch=1 n=a#3 v=58
12039 Off ch=1 n=c6 v=64
12040 Par ch=1 c=64 v=0
12040 Par ch=1 c=64 v=0
12096 Par ch=1 c=64 v=127
12096 Par ch=1 c=64 v=127
12117 Off ch=1 n=a#3 v=64
12144 On ch=1 n=f5 v=59
12158 Off ch=1 n=d6 v=64
12210 Par ch=1 c=64 v=0
12210 Par ch=1 c=64 v=0
12216 On ch=1 n=a#5 v=64
12223 On ch=1 n=d5 v=52
12228 On ch=1 n=a#4 v=48
12229 On ch=1 n=f4 v=49
12248 Off ch=1 n=f5 v=64
12253 Par ch=1 c=64 v=127
12253 Par ch=1 c=64 v=127
12285 Off ch=1 n=a#4 v=64
12327 Off ch=1 n=d5 v=64
12331 Off ch=1 n=f4 v=64
12387 On ch=1 n=a5 v=63
12403 Off ch=1 n=a#5 v=64
12517 On ch=1 n=a#5 v=53
12539 Off ch=1 n=a5 v=64
12570 Off ch=1 n=a#5 v=64
12572 On ch=1 n=c6 v=63
12572 On ch=1 n=f3 v=45
12586 Par ch=1 c=64 v=0
12586 Par ch=1 c=64 v=0
12639 Par ch=1 c=64 v=127
12639 Par ch=1 c=64 v=127
12690 Off ch=1 n=c6 v=64
12705 Par ch=1 c=64 v=0
12705 Par ch=1 c=64 v=0
12710 On ch=1 n=d6 v=39
12739 On ch=1 n=a4 v=42
12739 On ch=1 n=c4 v=36
12744 On ch=1 n=c6 v=58
12751 Off ch=1 n=d6 v=64
12795 Off ch=1 n=f3 v=64
12817 Off ch=1 n=a4 v=64
12820 Off ch=1 n=c4 v=64
12913 On ch=1 n=e6 v=46
12913 On ch=1 n=a4 v=32
12913 On ch=1 n=c4 v=37
13012 Off ch=1 n=c4 v=64
13012 Off ch=1 n=a4 v=64
13024 On ch=1 n=f6 v=35
13042 Off ch=1 n=e6 v=64
13069 Off ch=1 n=c6 v=64
13083 Par ch=1 c=64 v=127
13083 Par ch=1 c=64 v=127
13092 On ch=1 n=f3 v=48
13093 On ch=1 n=g6 v=49
13099 Off ch=1 n=f6 v=64
13224 Par ch=1 c=64 v=0
13224 Par ch=1 c=64 v=0
13236 On ch=1 n=a6 v=48
13238 Off ch=1 n=g6 v=64
13276 On ch=1 n=g6 v=55
13276 On ch=1 n=a#4 v=40
13276 On ch=1 n=d4 v=32
13291 Off ch=1 n=a6 v=64
13315 Off ch=1 n=f3 v=64
13351 Off ch=1 n=d4 v=64
13369 Off ch=1 n=a#4 v=64
13413 Par ch=1 c=64 v=127
13413 Par ch=1 c=64 v=127
13460 On ch=1 n=f6 v=55
13460 On ch=1 n=a#4 v=36
13460 On ch=1 n=d4 v=29
13481 Off ch=1 n=g6 v=64
13534 Off ch=1 n=d4 v=64
13551 Off ch=1 n=a#4 v=64
13552 Off ch=1 n=f6 v=64
13560 On ch=1 n=d6 v=31
13615 Par ch=1 c=64 v=0
13615 Par ch=1 c=64 v=0
13621 On ch=1 n=f3 v=48
13628 On ch=1 n=c6 v=50
13644 Off ch=1 n=d6 v=64
13674 Par ch=1 c=64 v=127
13674 Par ch=1 c=64 v=127
13740 Off ch=1 n=c6 v=64
13742 On ch=1 n=d6 v=36
13751 Par ch=1 c=64 v=0
13751 Par ch=1 c=64 v=0
13784 On ch=1 n=a4 v=27
13784 On ch=1 n=c4 v=40
13795 On ch=1 n=c6 v=53
13804 Off ch=1 n=d6 v=64
13844 Off ch=1 n=f3 v=64
13869 Off ch=1 n=c4 v=64
13898 Off ch=1 n=a4 v=64
13945 On ch=1 n=a4 v=28
13948 On ch=1 n=e6 v=44
13948 On ch=1 n=c4 v=36
13965 Par ch=1 c=64 v=127
13965 Par ch=1 c=64 v=127
14022 Off ch=1 n=c4 v=64
14059 Off ch=1 n=c6 v=64
14066 On ch=1 n=f6 v=35
14070 Off ch=1 n=e6 v=64
14078 Off ch=1 n=a4 v=64
14112 On ch=1 n=g6 v=52
14118 On ch=1 n=f3 v=52
14122 Par ch=1 c=64 v=0
14122 Par ch=1 c=64 v=0
14128 Off ch=1 n=f6 v=64
14136 Par ch=1 c=64 v=127
14136 Par ch=1 c=64 v=127
14181 On ch=1 n=a6 v=52
14190 Off ch=1 n=g6 v=64
14225 On ch=1 n=g6 v=56
14242 Off ch=1 n=a6 v=64
14271 On ch=1 n=a#4 v=29
14275 On ch=1 n=d4 v=24
14275 On ch=1 n=f6 v=67
14286 Par ch=1 c=64 v=0
14286 Par ch=1 c=64 v=0
14292 Off ch=1 n=g6 v=64
14331 Par ch=1 c=64 v=127
14331 Par ch=1 c=64 v=127
14341 Off ch=1 n=f3 v=64
14379 Off ch=1 n=d4 v=64
14416 Off ch=1 n=a#4 v=64
14435 Par ch=1 c=64 v=0
14435 Par ch=1 c=64 v=0
14440 On ch=1 n=f3 v=37
14481 Par ch=1 c=64 v=127
14481 Par ch=1 c=64 v=127
14529 On ch=1 n=d6 v=49
14567 Off ch=1 n=f3 v=64
14567 Off ch=1 n=f6 v=64
14599 Par ch=1 c=64 v=0
14599 Par ch=1 c=64 v=0
14617 On ch=1 n=a4 v=31
14620 On ch=1 n=c6 v=54
14620 On ch=1 n=c4 v=32
14635 Off ch=1 n=d6 v=64
14655 Par ch=1 c=64 v=127
14655 Par ch=1 c=64 v=127
14702 On ch=1 n=d6 v=51
14720 Off ch=1 n=c6 v=64
14761 Off ch=1 n=a4 v=64
14772 Par ch=1 c=64 v=0
14772 Par ch=1 c=64 v=0
14778 Off ch=1 n=c4 v=64
14778 On ch=1 n=f3 v=55
14792 On ch=1 n=c6 v=53
14794 Off ch=1 n=d6 v=64
14822 Par ch=1 c=64 v=127
14822 Par ch=1 c=64 v=127
14923 Off ch=1 n=f3 v=64
14933 On ch=1 n=e6 v=44
14936 On ch=1 n=a4 v=46
14936 On ch=1 n=c4 v=49
14950 Par ch=1 c=64 v=0
14950 Par ch=1 c=64 v=0
14972 Par ch=1 c=64 v=127
14972 Par ch=1 c=64 v=127
14979 Off ch=1 n=c6 v=64
15018 On ch=1 n=f6 v=51
15045 Off ch=1 n=e6 v=64
15052 Off ch=1 n=c4 v=64
15094 Par ch=1 c=64 v=0
15094 Par ch=1 c=64 v=0
15100 On ch=1 n=g6 v=52
15107 On ch=1 n=f3 v=45
15129 Off ch=1 n=f6 v=64
15133 Off ch=1 n=a4 v=64
15139 Par ch=1 c=64 v=127
15139 Par ch=1 c=64 v=127
15173 On ch=1 n=a6 v=49
15185 Off ch=1 n=g6 v=64
15211 Off ch=1 n=f3 v=64
15245 On ch=1 n=g6 v=49
15254 Off ch=1 n=a6 v=64
15260 On ch=1 n=a#4 v=54
15272 On ch=1 n=d4 v=44
15277 Par ch=1 c=64 v=0
15277 Par ch=1 c=64 v=0
15281 Par ch=1 c=64 v=127
15281 Par ch=1 c=64 v=127
15290 Par ch=1 c=64 v=127
15290 Par ch=1 c=64 v=127
15297 Par ch=1 c=64 v=127
15297 Par ch=1 c=64 v=127
15301 On ch=1 n=a6 v=53
15307 Off ch=1 n=g6 v=64
15325 On ch=1 n=g6 v=43
15346 Off ch=1 n=a6 v=64
15369 On ch=1 n=a6 v=51
15376 Off ch=1 n=g6 v=64
15393 Off ch=1 n=a#4 v=64
15394 Off ch=1 n=d4 v=64
15395 On ch=1 n=g6 v=39
15410 Off ch=1 n=a6 v=64
15426 On ch=1 n=f3 v=41
15427 Par ch=1 c=64 v=0
15427 Par ch=1 c=64 v=0
15429 Par ch=1 c=64 v=0
15429 Par ch=1 c=64 v=0
15433 On ch=1 n=f6 v=71
15433 On ch=1 n=f3 v=48
15441 Off ch=1 n=g6 v=64
15442 On ch=1 n=f3 v=41
15445 Par ch=1 c=64 v=0
15445 Par ch=1 c=64 v=0
15477 Par ch=1 c=64 v=127
15477 Par ch=1 c=64 v=127
15499 On ch=1 n=d6 v=44
15523 Off ch=1 n=f6 v=64
15573 Off ch=1 n=f3 v=64
15576 Off ch=1 n=f3 v=64
15584 On ch=1 n=a4 v=49
15584 On ch=1 n=c4 v=49
15591 On ch=1 n=c6 v=59
15592 Off ch=1 n=f3 v=64
15594 Off ch=1 n=d6 v=64
15601 Par ch=1 c=64 v=0
15601 Par ch=1 c=64 v=0
15634 Par ch=1 c=64 v=127
15634 Par ch=1 c=64 v=127
15673 On ch=1 n=d6 v=39
15682 Off ch=1 n=c6 v=64
15751 Off ch=1 n=c4 v=64
15751 On ch=1 n=c6 v=52
15757 On ch=1 n=f3 v=52
15758 Par ch=1 c=64 v=0
15758 Par ch=1 c=64 v=0
15765 Off ch=1 n=d6 v=64
15784 Par ch=1 c=64 v=127
15784 Par ch=1 c=64 v=127
15794 Off ch=1 n=a4 v=64
15878 Off ch=1 n=f3 v=64
15923 On ch=1 n=e6 v=49
15923 On ch=1 n=c4 v=49
15933 On ch=1 n=a4 v=48
15945 Off ch=1 n=c6 v=64
16028 Off ch=1 n=c4 v=64
16034 On ch=1 n=f6 v=52
16041 Off ch=1 n=a4 v=64
16047 Off ch=1 n=e6 v=64
16124 Off ch=1 n=f6 v=64
16151 On ch=1 n=c4 v=24
16151 On ch=1 n=a#4 v=44
16155 On ch=1 n=e4 v=46
16161 On ch=1 n=g6 v=39
16255 On ch=1 n=a6 v=52
16262 Off ch=1 n=g6 v=64
16324 Off ch=1 n=e4 v=64
16328 On ch=1 n=g6 v=63
16335 Off ch=1 n=a6 v=64
16337 Off ch=1 n=a#4 v=64
16403 On ch=1 n=f6 v=59
16419 On ch=1 n=f4 v=35
16427 Off ch=1 n=g6 v=64
16430 On ch=1 n=a4 v=28
16440 Par ch=1 c=64 v=0
16440 Par ch=1 c=64 v=0
16502 Par ch=1 c=64 v=127
16502 Par ch=1 c=64 v=127
16567 Off ch=1 n=f6 v=64
16574 On ch=1 n=g5 v=62
16658 On ch=1 n=f6 v=62
16675 Off ch=1 n=g5 v=64
16675 Off ch=1 n=a4 v=64
16683 Off ch=1 n=f4 v=64
16698 Off ch=1 n=c4 v=64
16744 Off ch=1 n=f6 v=64
16749 On ch=1 n=f#5 v=75
16824 On ch=1 n=f6 v=66
16842 Off ch=1 n=f#5 v=64
16861 Off ch=1 n=f6 v=64
16887 On ch=1 n=f6 v=72
16932 On ch=1 n=f5 v=74
16932 Par ch=1 c=64 v=0
16932 Par ch=1 c=64 v=0
16940 Off ch=1 n=f6 v=64
16945 On ch=1 n=f3 v=66
16983 Par ch=1 c=64 v=127
16983 Par ch=1 c=64 v=127
17007 Off ch=1 n=f5 v=64
17032 Off ch=1 n=f3 v=64
17078 On ch=1 n=f5 v=74
17090 Par ch=1 c=64 v=0
17090 Par ch=1 c=64 v=0
17120 On ch=1 n=g5 v=87
17127 On ch=1 n=d#5 v=48
17127 On ch=1 n=f4 v=44
17134 On ch=1 n=c5 v=50
17140 Off ch=1 n=f5 v=64
17165 Off ch=1 n=f4 v=64
17165 Off ch=1 n=d#5 v=64
17172 Off ch=1 n=c5 v=64
17176 Par ch=1 c=64 v=127
17176 Par ch=1 c=64 v=127
17273 Par ch=1 c=64 v=0
17273 Par ch=1 c=64 v=0
17288 On ch=1 n=a5 v=74
17292 On ch=1 n=f4 v=32
17297 On ch=1 n=d#5 v=41
17297 On ch=1 n=c5 v=41
17307 Off ch=1 n=g5 v=64
17318 Off ch=1 n=c5 v=64
17323 Off ch=1 n=f4 v=64
17328 Off ch=1 n=d#5 v=64
17330 Par ch=1 c=64 v=127
17330 Par ch=1 c=64 v=127
17434 On ch=1 n=a#3 v=78
17443 On ch=1 n=a#5 v=78
17448 Par ch=1 c=64 v=0
17448 Par ch=1 c=64 v=0
17472 Off ch=1 n=a5 v=64
17472 Par ch=1 c=64 v=127
17472 Par ch=1 c=64 v=127
17512 Off ch=1 n=a#5 v=64
17521 Off ch=1 n=a#3 v=64
17558 On ch=1 n=c6 v=72
17596 On ch=1 n=a#4 v=49
17596 On ch=1 n=f4 v=47
17601 On ch=1 n=d5 v=36
17605 On ch=1 n=d6 v=75
17611 Par ch=1 c=64 v=0
17611 Par ch=1 c=64 v=0
17622 Off ch=1 n=c6 v=64
17630 Off ch=1 n=d5 v=64
17637 Par ch=1 c=64 v=127
17637 Par ch=1 c=64 v=127
17641 Off ch=1 n=f4 v=64
17642 Off ch=1 n=a#4 v=64
17759 On ch=1 n=d#6 v=75
17760 On ch=1 n=a#3 v=70
17767 Par ch=1 c=64 v=0
17767 Par ch=1 c=64 v=0
17781 Off ch=1 n=d6 v=64
17798 Par ch=1 c=64 v=127
17798 Par ch=1 c=64 v=127
17847 Off ch=1 n=a#3 v=64
17857 On ch=1 n=f6 v=71
17867 Off ch=1 n=d#6 v=64
17911 On ch=1 n=d#3 v=75
17917 On ch=1 n=d#4 v=75
17917 Par ch=1 c=64 v=0
17917 Par ch=1 c=64 v=0
17925 On ch=1 n=g6 v=84
17950 Off ch=1 n=f6 v=64
17962 Par ch=1 c=64 v=127
17962 Par ch=1 c=64 v=127
18020 On ch=1 n=a6 v=70
18021 On ch=1 n=g4 v=50
18041 Off ch=1 n=g6 v=64
18069 On ch=1 n=a#4 v=57
18117 On ch=1 n=d#5 v=55
18135 On ch=1 n=c7 v=84
18138 Par ch=1 c=64 v=0
18138 Par ch=1 c=64 v=0
18150 Off ch=1 n=a6 v=64
18151 Off ch=1 n=d#3 v=64
18155 Off ch=1 n=g4 v=64
18157 Off ch=1 n=d#4 v=64
18164 Par ch=1 c=64 v=127
18164 Par ch=1 c=64 v=127
18165 On ch=1 n=g5 v=63
18169 On ch=1 n=a#6 v=88
18174 Off ch=1 n=c7 v=64
18191 Off ch=1 n=a#4 v=64
18193 On ch=1 n=c7 v=72
18202 Off ch=1 n=a#6 v=64
18217 Off ch=1 n=d#5 v=64
18217 On ch=1 n=a#6 v=78
18221 Off ch=1 n=c7 v=64
18241 On ch=1 n=c7 v=70
18242 Off ch=1 n=g5 v=64
18247 Off ch=1 n=a#6 v=64
18269 On ch=1 n=a#6 v=71
18289 Off ch=1 n=c7 v=64
18309 On ch=1 n=a6 v=78
18323 Off ch=1 n=a#6 v=64
18366 Off ch=1 n=a6 v=64
18393 On ch=1 n=g6 v=78
18447 Off ch=1 n=g6 v=64
18455 On ch=1 n=f6 v=70
18460 Par ch=1 c=64 v=0
18460 Par ch=1 c=64 v=0
18470 On ch=1 n=a#3 v=70
18479 On ch=1 n=a#6 v=70
18498 Off ch=1 n=f6 v=64
18504 Off ch=1 n=a#6 v=64
18509 Par ch=1 c=64 v=127
18509 Par ch=1 c=64 v=127
18557 Off ch=1 n=a#3 v=64
18593 On ch=1 n=a#6 v=67
18616 Par ch=1 c=64 v=0
18616 Par ch=1 c=64 v=0
18625 Off ch=1 n=a#6 v=64
18626 On ch=1 n=a#4 v=46
18630 On ch=1 n=d6 v=72
18631 On ch=1 n=d5 v=44
18631 On ch=1 n=f4 v=29
18668 Off ch=1 n=a#4 v=64
18670 Par ch=1 c=64 v=127
18670 Par ch=1 c=64 v=127
18675 Off ch=1 n=f4 v=64
18682 Off ch=1 n=d5 v=64
18782 On ch=1 n=d5 v=41
18782 On ch=1 n=f4 v=35
18783 On ch=1 n=a#4 v=45
18807 Off ch=1 n=d5 v=64
18812 Off ch=1 n=a#4 v=64
18812 Off ch=1 n=f4 v=64
18904 On ch=1 n=d#6 v=71
18921 Off ch=1 n=d6 v=64
18928 Par ch=1 c=64 v=0
18928 Par ch=1 c=64 v=0
18936 On ch=1 n=f3 v=71
18947 On ch=1 n=g6 v=78
18964 Off ch=1 n=d#6 v=64
18974 Off ch=1 n=g6 v=64
18975 Par ch=1 c=64 v=127
18975 Par ch=1 c=64 v=127
19020 Off ch=1 n=f3 v=64
19067 On ch=1 n=g6 v=66
19073 Par ch=1 c=64 v=0
19073 Par ch=1 c=64 v=0
19098 On ch=1 n=f4 v=41
19103 Off ch=1 n=g6 v=64
19103 On ch=1 n=a5 v=62
19106 On ch=1 n=d#5 v=66
19106 On ch=1 n=c5 v=50
19129 Par ch=1 c=64 v=127
19129 Par ch=1 c=64 v=127
19141 Off ch=1 n=f4 v=64
19143 Off ch=1 n=c5 v=64
19143 Off ch=1 n=d#5 v=64
19247 On ch=1 n=f4 v=52
19255 On ch=1 n=d#5 v=52
19256 On ch=1 n=c5 v=48
19262 Par ch=1 c=64 v=0
19262 Par ch=1 c=64 v=0
19278 Par ch=1 c=64 v=127
19278 Par ch=1 c=64 v=127
19287 Off ch=1 n=f4 v=64
19295 Off ch=1 n=c5 v=64
19298 Off ch=1 n=d#5 v=64
19362 On ch=1 n=a#5 v=58
19376 Off ch=1 n=a5 v=64
19395 On ch=1 n=a#3 v=60
19400 Par ch=1 c=64 v=0
19400 Par ch=1 c=64 v=0
19408 On ch=1 n=d6 v=81
19429 Off ch=1 n=a#5 v=64
19434 Off ch=1 n=d6 v=64
19446 Par ch=1 c=64 v=127
19446 Par ch=1 c=64 v=127
19482 Off ch=1 n=a#3 v=64
19519 On ch=1 n=d6 v=51
19540 Par ch=1 c=64 v=0
19540 Par ch=1 c=64 v=0
19551 On ch=1 n=a#4 v=33
19555 On ch=1 n=d5 v=19
19555 On ch=1 n=f4 v=25
19559 On ch=1 n=e5 v=67
19562 Off ch=1 n=d6 v=64
19603 Par ch=1 c=64 v=127
19603 Par ch=1 c=64 v=127
19606 Off ch=1 n=a#4 v=64
19608 Off ch=1 n=f4 v=64
19610 Off ch=1 n=d5 v=64
19706 On ch=1 n=d5 v=28
19710 On ch=1 n=a#4 v=36
19716 On ch=1 n=f4 v=25
19739 Off ch=1 n=d5 v=64
19743 Off ch=1 n=f4 v=64
19743 Off ch=1 n=a#4 v=64
19863 On ch=1 n=f5 v=59
19864 Par ch=1 c=64 v=0
19864 Par ch=1 c=64 v=0
19873 On ch=1 n=f3 v=59
19887 Off ch=1 n=e5 v=64
19916 Par ch=1 c=64 v=127
19916 Par ch=1 c=64 v=127
19960 Off ch=1 n=f3 v=64
19971 On ch=1 n=a5 v=64
19986 Off ch=1 n=f5 v=64
20005 Par ch=1 c=64 v=0
20005 Par ch=1 c=64 v=0
20011 On ch=1 n=f4 v=33
20019 On ch=1 n=c6 v=74
20019 On ch=1 n=d#5 v=36
20019 On ch=1 n=c5 v=36
20044 Par ch=1 c=64 v=127
20044 Par ch=1 c=64 v=127
20047 Off ch=1 n=c5 v=64
20051 Off ch=1 n=d#5 v=64
20051 Off ch=1 n=f4 v=64
20103 On ch=1 n=d#6 v=44
20106 Off ch=1 n=a5 v=64
20140 Off ch=1 n=c6 v=64
20163 On ch=1 n=g6 v=74
20165 On ch=1 n=f4 v=25
20169 On ch=1 n=d#5 v=28
20175 On ch=1 n=c5 v=24
20194 Off ch=1 n=d#5 v=64
20195 Off ch=1 n=d#6 v=64
20196 Off ch=1 n=c5 v=64
20198 Off ch=1 n=f4 v=64
20239 On ch=1 n=f6 v=74
20247 Off ch=1 n=g6 v=64
20269 Off ch=1 n=f6 v=64
20293 On ch=1 n=f6 v=74
20319 On ch=1 n=a#3 v=64
20322 Par ch=1 c=64 v=0
20322 Par ch=1 c=64 v=0
20336 On ch=1 n=d7 v=68
20358 Par ch=1 c=64 v=127
20358 Par ch=1 c=64 v=127
20372 Off ch=1 n=f6 v=64
20406 Off ch=1 n=a#3 v=64
20436 On ch=1 n=c7 v=64
20448 Off ch=1 n=d7 v=64
20483 On ch=1 n=a#4 v=20
20487 On ch=1 n=d5 v=43
20487 On ch=1 n=f4 v=29
20493 On ch=1 n=a#6 v=70
20495 Par ch=1 c=64 v=0
20495 Par ch=1 c=64 v=0
20504 Off ch=1 n=c7 v=64
20515 On ch=1 n=c7 v=68
20519 Off ch=1 n=d5 v=64
20523 Off ch=1 n=f4 v=64
20524 Par ch=1 c=64 v=127
20524 Par ch=1 c=64 v=127
20526 Off ch=1 n=a#4 v=64
20536 Off ch=1 n=a#6 v=64
20551 On ch=1 n=a#6 v=45
20568 Off ch=1 n=c7 v=64
20584 On ch=1 n=g6 v=70
20618 Off ch=1 n=a#6 v=64
20650 On ch=1 n=f6 v=75
20661 Par ch=1 c=64 v=0
20661 Par ch=1 c=64 v=0
20666 Off ch=1 n=g6 v=64
20666 On ch=1 n=f4 v=41
20667 On ch=1 n=d5 v=41
20667 On ch=1 n=a#4 v=41
20695 Off ch=1 n=a#4 v=64
20695 Off ch=1 n=d5 v=64
20695 Par ch=1 c=64 v=127
20695 Par ch=1 c=64 v=127
20701 Off ch=1 n=f4 v=64
20770 On ch=1 n=g6 v=63
20773 Off ch=1 n=f6 v=64
20800 Par ch=1 c=64 v=0
20800 Par ch=1 c=64 v=0
20804 On ch=1 n=a#3 v=66
20806 On ch=1 n=a#6 v=75
20817 Off ch=1 n=g6 v=64
20827 Off ch=1 n=a#6 v=64
20847 Par ch=1 c=64 v=127
20847 Par ch=1 c=64 v=127
20888 Off ch=1 n=a#3 v=64
20914 On ch=1 n=a#6 v=74
20944 Off ch=1 n=a#6 v=64
20952 Par ch=1 c=64 v=0
20952 Par ch=1 c=64 v=0
20962 On ch=1 n=a5 v=67
20976 On ch=1 n=d#5 v=46
20977 On ch=1 n=c5 v=41
20977 On ch=1 n=f4 v=33
21006 Par ch=1 c=64 v=127
21006 Par ch=1 c=64 v=127
21008 Off ch=1 n=c5 v=64
21020 Off ch=1 n=f4 v=64
21021 Off ch=1 n=d#5 v=64
21115 Par ch=1 c=64 v=0
21115 Par ch=1 c=64 v=0
21119 On ch=1 n=d#5 v=40
21121 On ch=1 n=c5 v=31
21124 On ch=1 n=f4 v=33
21150 Off ch=1 n=c5 v=64
21153 Off ch=1 n=d#5 v=64
21155 Off ch=1 n=f4 v=64
21157 Par ch=1 c=64 v=127
21157 Par ch=1 c=64 v=127
21213 On ch=1 n=a#5 v=58
21239 On ch=1 n=d6 v=63
21249 Off ch=1 n=a5 v=64
21255 Off ch=1 n=a#5 v=64
21267 Par ch=1 c=64 v=0
21267 Par ch=1 c=64 v=0
21269 On ch=1 n=f6 v=72
21269 On ch=1 n=a#3 v=63
21291 Off ch=1 n=d6 v=64
21293 Off ch=1 n=f6 v=64
21346 Par ch=1 c=64 v=127
21346 Par ch=1 c=64 v=127
21356 Off ch=1 n=a#3 v=64
21389 Par ch=1 c=64 v=0
21389 Par ch=1 c=64 v=0
21407 On ch=1 n=f6 v=63
21437 On ch=1 n=a#4 v=23
21441 Off ch=1 n=f6 v=64
21441 On ch=1 n=e5 v=66
21441 On ch=1 n=f4 v=36
21445 On ch=1 n=d5 v=18
21460 Off ch=1 n=a#4 v=64
21464 Off ch=1 n=f4 v=64
21470 Off ch=1 n=d5 v=64
21473 Par ch=1 c=64 v=127
21473 Par ch=1 c=64 v=127
21595 On ch=1 n=d5 v=36
21596 On ch=1 n=a#4 v=46
21602 On ch=1 n=f4 v=36
21621 Off ch=1 n=d5 v=64
21624 Off ch=1 n=a#4 v=64
21625 Off ch=1 n=f4 v=64
21752 On ch=1 n=f5 v=68
21756 Off ch=1 n=e5 v=64
21766 Par ch=1 c=64 v=0
21766 Par ch=1 c=64 v=0
21770 On ch=1 n=f3 v=58
21803 Par ch=1 c=64 v=127
21803 Par ch=1 c=64 v=127
21844 On ch=1 n=a5 v=60
21854 Off ch=1 n=f3 v=64
21880 Off ch=1 n=f5 v=64
21886 On ch=1 n=d#5 v=36
21894 On ch=1 n=f4 v=46
21898 On ch=1 n=c6 v=51
21912 Off ch=1 n=d#5 v=64
21922 Off ch=1 n=f4 v=64
21953 Off ch=1 n=a5 v=64
21962 On ch=1 n=d#6 v=63
21989 Off ch=1 n=c6 v=64
22048 On ch=1 n=d6 v=55
22058 On ch=1 n=d#5 v=23
22062 On ch=1 n=f4 v=46
22064 Off ch=1 n=d#6 v=64
22067 On ch=1 n=a4 v=46
22071 On ch=1 n=d#6 v=63
22078 Off ch=1 n=d6 v=64
22090 Off ch=1 n=d#5 v=64
22095 Off ch=1 n=a4 v=64
22103 Off ch=1 n=f4 v=64
22115 On ch=1 n=d6 v=53
22133 Off ch=1 n=d#6 v=64
22154 On ch=1 n=c6 v=68
22164 Off ch=1 n=d6 v=64
22227 On ch=1 n=d6 v=75
22230 Off ch=1 n=c6 v=64
22231 On ch=1 n=a#3 v=59
22241 Par ch=1 c=64 v=0
22241 Par ch=1 c=64 v=0
22284 Par ch=1 c=64 v=127
22284 Par ch=1 c=64 v=127
22328 On ch=1 n=f5 v=56
22366 Off ch=1 n=d6 v=64
22389 On ch=1 n=a#5 v=75
22397 Par ch=1 c=64 v=0
22397 Par ch=1 c=64 v=0
22403 On ch=1 n=d5 v=49
22403 On ch=1 n=a#4 v=51
22403 On ch=1 n=f4 v=51
22423 Off ch=1 n=a#3 v=64
22446 Par ch=1 c=64 v=127
22446 Par ch=1 c=64 v=127
22457 Off ch=1 n=f5 v=64
22525 Off ch=1 n=d5 v=64
22526 Off ch=1 n=a#4 v=64
22533 Off ch=1 n=f4 v=64
22565 On ch=1 n=a5 v=53
22575 Off ch=1 n=a#5 v=64
22680 On ch=1 n=a#5 v=52
22706 Off ch=1 n=a5 v=64
22744 Par ch=1 c=64 v=0
22744 Par ch=1 c=64 v=0
22756 On ch=1 n=f3 v=61
22756 On ch=1 n=c6 v=58
22782 Off ch=1 n=a#5 v=64
22812 Par ch=1 c=64 v=127
22812 Par ch=1 c=64 v=127
22881 On ch=1 n=d6 v=52
22895 Off ch=1 n=c6 v=64
22916 Par ch=1 c=64 v=0
22916 Par ch=1 c=64 v=0
22921 On ch=1 n=c4 v=44
22921 On ch=1 n=a4 v=41
22928 Off ch=1 n=d6 v=64
22928 On ch=1 n=c6 v=57
22956 Par ch=1 c=64 v=127
22956 Par ch=1 c=64 v=127
22979 Off ch=1 n=f3 v=64
22989 Off ch=1 n=c4 v=64
23000 Off ch=1 n=a4 v=64
23077 On ch=1 n=e6 v=55
23083 On ch=1 n=a4 v=27
23085 Par ch=1 c=64 v=0
23085 Par ch=1 c=64 v=0
23087 On ch=1 n=c4 v=41
23095 Off ch=1 n=c6 v=64
23112 Par ch=1 c=64 v=127
23112 Par ch=1 c=64 v=127
23190 On ch=1 n=f6 v=49
23200 Off ch=1 n=a4 v=64
23200 Off ch=1 n=e6 v=64
23204 Off ch=1 n=c4 v=64
23236 Par ch=1 c=64 v=0
23236 Par ch=1 c=64 v=0
23242 On ch=1 n=g6 v=57
23243 On ch=1 n=f3 v=57
23253 Off ch=1 n=f6 v=64
23283 Par ch=1 c=64 v=127
23283 Par ch=1 c=64 v=127
23338 On ch=1 n=a6 v=45
23348 Off ch=1 n=g6 v=64
23384 On ch=1 n=g6 v=57
23394 On ch=1 n=a#4 v=55
23398 Off ch=1 n=a6 v=64
23398 On ch=1 n=d4 v=44
23398 Par ch=1 c=64 v=0
23398 Par ch=1 c=64 v=0
23432 Par ch=1 c=64 v=127
23432 Par ch=1 c=64 v=127
23463 Off ch=1 n=f3 v=64
23479 Off ch=1 n=d4 v=64
23485 Off ch=1 n=a#4 v=64
23551 Par ch=1 c=64 v=0
23551 Par ch=1 c=64 v=0
23557 On ch=1 n=f6 v=53
23557 On ch=1 n=a#4 v=32
23565 On ch=1 n=d4 v=42
23593 Off ch=1 n=g6 v=64
23594 Par ch=1 c=64 v=127
23594 Par ch=1 c=64 v=127
23643 Off ch=1 n=d4 v=64
23655 Off ch=1 n=a#4 v=64
23675 On ch=1 n=d6 v=48
23698 Off ch=1 n=f6 v=64
23709 On ch=1 n=f3 v=55
23724 Par ch=1 c=64 v=0
23724 Par ch=1 c=64 v=0
23731 On ch=1 n=c6 v=59
23741 Off ch=1 n=d6 v=64
23758 Par ch=1 c=64 v=127
23758 Par ch=1 c=64 v=127
23833 On ch=1 n=d6 v=49
23839 Off ch=1 n=c6 v=64
23869 On ch=1 n=c4 v=48
23870 Par ch=1 c=64 v=0
23870 Par ch=1 c=64 v=0
23878 On ch=1 n=a4 v=31
23892 On ch=1 n=c6 v=53
23908 Off ch=1 n=d6 v=64
23909 Par ch=1 c=64 v=127
23909 Par ch=1 c=64 v=127
23929 Off ch=1 n=f3 v=64
23943 Off ch=1 n=c4 v=64
23959 Off ch=1 n=a4 v=64
24036 On ch=1 n=e6 v=45
24036 On ch=1 n=a4 v=37
24040 On ch=1 n=c4 v=42
24059 Off ch=1 n=c6 v=64
24130 On ch=1 n=f6 v=50
24131 Off ch=1 n=c4 v=64
24141 Off ch=1 n=e6 v=64
24142 Off ch=1 n=a4 v=64
24191 Par ch=1 c=64 v=0
24191 Par ch=1 c=64 v=0
24197 On ch=1 n=g6 v=44
24209 On ch=1 n=f3 v=50
24217 Off ch=1 n=f6 v=64
24232 Par ch=1 c=64 v=127
24232 Par ch=1 c=64 v=127
24253 On ch=1 n=a6 v=48
24267 Off ch=1 n=g6 v=64
24302 On ch=1 n=g6 v=50
24317 Off ch=1 n=a6 v=64
24350 On ch=1 n=a#4 v=50
24354 Par ch=1 c=64 v=0
24354 Par ch=1 c=64 v=0
24357 On ch=1 n=d4 v=42
24360 On ch=1 n=f6 v=49
24370 Off ch=1 n=g6 v=64
24388 Par ch=1 c=64 v=127
24388 Par ch=1 c=64 v=127
24429 Off ch=1 n=f3 v=64
24440 Off ch=1 n=a#4 v=64
24445 Off ch=1 n=d4 v=64
24507 On ch=1 n=f3 v=41
24596 On ch=1 n=d6 v=52
24619 Off ch=1 n=f6 v=64
24658 Off ch=1 n=f3 v=64
24688 On ch=1 n=c6 v=55
24691 On ch=1 n=a4 v=41
24696 Off ch=1 n=d6 v=64
24697 Par ch=1 c=64 v=0
24697 Par ch=1 c=64 v=0
24704 On ch=1 n=c4 v=28
24732 Par ch=1 c=64 v=127
24732 Par ch=1 c=64 v=127
24780 On ch=1 n=d6 v=41
24798 Off ch=1 n=c6 v=64
24831 Off ch=1 n=a4 v=64
24842 Par ch=1 c=64 v=0
24842 Par ch=1 c=64 v=0
24849 Off ch=1 n=c4 v=64
24855 On ch=1 n=c6 v=57
24855 On ch=1 n=f3 v=45
24864 Off ch=1 n=d6 v=64
24900 Par ch=1 c=64 v=127
24900 Par ch=1 c=64 v=127
25003 Off ch=1 n=f3 v=64
25014 On ch=1 n=e6 v=55
25018 On ch=1 n=a4 v=29
25018 On ch=1 n=c4 v=40
25032 Off ch=1 n=c6 v=64
25098 On ch=1 n=f6 v=52
25122 Off ch=1 n=e6 v=64
25173 Off ch=1 n=c4 v=64
25181 On ch=1 n=g6 v=53
25185 Par ch=1 c=64 v=0
25185 Par ch=1 c=64 v=0
25189 On ch=1 n=f3 v=52
25195 Off ch=1 n=a4 v=64
25204 Off ch=1 n=f6 v=64
25233 Par ch=1 c=64 v=127
25233 Par ch=1 c=64 v=127
25257 On ch=1 n=a6 v=52
25275 Off ch=1 n=g6 v=64
25321 Off ch=1 n=f3 v=64
25338 On ch=1 n=a#4 v=50
25341 On ch=1 n=g6 v=47
25342 On ch=1 n=d4 v=28
25345 Par ch=1 c=64 v=0
25345 Par ch=1 c=64 v=0
25355 Off ch=1 n=a6 v=64
25374 Par ch=1 c=64 v=127
25374 Par ch=1 c=64 v=127
25394 On ch=1 n=a6 v=53
25397 Off ch=1 n=g6 v=64
25418 On ch=1 n=g6 v=48
25439 Off ch=1 n=a6 v=64
25446 Off ch=1 n=d4 v=64
25462 Off ch=1 n=a#4 v=64
25462 On ch=1 n=a6 v=57
25469 Off ch=1 n=g6 v=64
25488 On ch=1 n=g6 v=44
25503 Off ch=1 n=a6 v=64
25519 On ch=1 n=f3 v=41
25522 On ch=1 n=f6 v=52
25522 Par ch=1 c=64 v=0
25522 Par ch=1 c=64 v=0
25534 Off ch=1 n=g6 v=64
25556 Par ch=1 c=64 v=127
25556 Par ch=1 c=64 v=127
25602 On ch=1 n=d6 v=41
25628 Off ch=1 n=f6 v=64
25669 Off ch=1 n=f3 v=64
25692 On ch=1 n=c6 v=61
25695 On ch=1 n=a4 v=39
25695 On ch=1 n=c4 v=39
25695 Par ch=1 c=64 v=0
25695 Par ch=1 c=64 v=0
25703 Off ch=1 n=d6 v=64
25734 Par ch=1 c=64 v=127
25734 Par ch=1 c=64 v=127
25788 On ch=1 n=d6 v=48
25800 Off ch=1 n=c6 v=64
25843 Off ch=1 n=c4 v=64
25867 On ch=1 n=c6 v=53
25869 On ch=1 n=f3 v=57
25873 Off ch=1 n=a4 v=64
25882 Off ch=1 n=d6 v=64
25888 Par ch=1 c=64 v=0
25888 Par ch=1 c=64 v=0
25909 Par ch=1 c=64 v=127
25909 Par ch=1 c=64 v=127
26036 Off ch=1 n=f3 v=64
26045 On ch=1 n=e6 v=50
26050 On ch=1 n=c4 v=44
26059 On ch=1 n=a4 v=29
26064 Par ch=1 c=64 v=0
26064 Par ch=1 c=64 v=0
26068 Off ch=1 n=c6 v=64
26079 Par ch=1 c=64 v=127
26079 Par ch=1 c=64 v=127
26140 On ch=1 n=f6 v=44
26142 Off ch=1 n=c4 v=64
26151 Off ch=1 n=a4 v=64
26170 Off ch=1 n=e6 v=64
26238 On ch=1 n=c4 v=41
26243 On ch=1 n=g6 v=61
26245 On ch=1 n=a#4 v=42
26251 On ch=1 n=e4 v=33
26262 Off ch=1 n=f6 v=64
26292 Par ch=1 c=64 v=0
26292 Par ch=1 c=64 v=0
26323 Par ch=1 c=64 v=127
26323 Par ch=1 c=64 v=127
26358 On ch=1 n=a6 v=52
26370 Off ch=1 n=g6 v=64
26428 Off ch=1 n=e4 v=64
26436 Off ch=1 n=a#4 v=64
26436 On ch=1 n=g6 v=50
26451 Off ch=1 n=a6 v=64
26514 On ch=1 n=a4 v=22
26516 On ch=1 n=f6 v=53
26518 On ch=1 n=f4 v=29
26533 Off ch=1 n=g6 v=64
26564 Par ch=1 c=64 v=0
26564 Par ch=1 c=64 v=0
26607 Par ch=1 c=64 v=127
26607 Par ch=1 c=64 v=127
26706 On ch=1 n=g5 v=57
26740 Off ch=1 n=c4 v=64
26743 Off ch=1 n=f4 v=64
26745 Off ch=1 n=f6 v=64
26748 Off ch=1 n=a4 v=64
26798 On ch=1 n=f6 v=76
26821 Off ch=1 n=g5 v=64
26890 On ch=1 n=f#5 v=87
26916 Off ch=1 n=f6 v=64
26951 On ch=1 n=f6 v=78
26968 Off ch=1 n=f#5 v=64
26994 Off ch=1 n=f6 v=64
27025 On ch=1 n=f6 v=76
27066 On ch=1 n=f5 v=72
27066 On ch=1 n=f3 v=66
27073 Off ch=1 n=f6 v=64
27101 Par ch=1 c=64 v=0
27101 Par ch=1 c=64 v=0
27146 Par ch=1 c=64 v=127
27146 Par ch=1 c=64 v=127
27153 Off ch=1 n=f3 v=64
27156 Off ch=1 n=f5 v=64
27225 On ch=1 n=f5 v=67
27272 On ch=1 n=g5 v=80
27276 Par ch=1 c=64 v=0
27276 Par ch=1 c=64 v=0
27282 On ch=1 n=d#5 v=67
27282 On ch=1 n=f4 v=57
27289 Off ch=1 n=f5 v=64
27295 On ch=1 n=c5 v=63
27318 Off ch=1 n=f4 v=64
27326 Off ch=1 n=d#5 v=64
27328 Off ch=1 n=c5 v=64
27334 Par ch=1 c=64 v=127
27334 Par ch=1 c=64 v=127
27439 On ch=1 n=f4 v=55
27441 Par ch=1 c=64 v=0
27441 Par ch=1 c=64 v=0
27448 On ch=1 n=a5 v=83
27448 On ch=1 n=d#5 v=59
27452 On ch=1 n=c5 v=55
27468 Off ch=1 n=g5 v=64
27473 Off ch=1 n=c5 v=64
27478 Off ch=1 n=d#5 v=64
27481 Off ch=1 n=f4 v=64
27484 Par ch=1 c=64 v=127
27484 Par ch=1 c=64 v=127
27591 Par ch=1 c=64 v=0
27591 Par ch=1 c=64 v=0
27598 On ch=1 n=a#3 v=70
27599 On ch=1 n=a#5 v=66
27628 Off ch=1 n=a5 v=64
27640 Par ch=1 c=64 v=127
27640 Par ch=1 c=64 v=127
27673 Off ch=1 n=a#5 v=64
27685 Off ch=1 n=a#3 v=64
27713 On ch=1 n=c6 v=70
27746 Par ch=1 c=64 v=0
27746 Par ch=1 c=64 v=0
27750 On ch=1 n=a#4 v=36
27753 On ch=1 n=d5 v=37
27753 On ch=1 n=f4 v=48
27763 On ch=1 n=d6 v=83
27784 Off ch=1 n=c6 v=64
27788 Off ch=1 n=d5 v=64
27794 Par ch=1 c=64 v=127
27794 Par ch=1 c=64 v=127
27799 Off ch=1 n=a#4 v=64
27803 Off ch=1 n=f4 v=64
27918 On ch=1 n=d#6 v=75
27920 On ch=1 n=a#3 v=72
27925 Par ch=1 c=64 v=0
27925 Par ch=1 c=64 v=0
27940 Off ch=1 n=d6 v=64
27961 Par ch=1 c=64 v=127
27961 Par ch=1 c=64 v=127
28007 Off ch=1 n=a#3 v=64
28023 On ch=1 n=f6 v=76
28033 Off ch=1 n=d#6 v=64
28066 On ch=1 n=d#3 v=78
28069 On ch=1 n=d#4 v=78
28079 Par ch=1 c=64 v=0
28079 Par ch=1 c=64 v=0
28085 On ch=1 n=g6 v=87
28103 Off ch=1 n=f6 v=64
28108 Par ch=1 c=64 v=127
28108 Par ch=1 c=64 v=127
28175 On ch=1 n=g4 v=36
28178 On ch=1 n=a6 v=83
28193 Off ch=1 n=g6 v=64
28207 On ch=1 n=a#4 v=46
28263 On ch=1 n=d#5 v=48
28283 On ch=1 n=c7 v=87
28289 Off ch=1 n=g4 v=64
28295 On ch=1 n=g5 v=65
28303 Off ch=1 n=d#3 v=64
28304 Off ch=1 n=a6 v=64
28306 Off ch=1 n=d#4 v=64
28315 On ch=1 n=a#6 v=91
28320 Off ch=1 n=c7 v=64
28331 Off ch=1 n=a#4 v=64
28343 On ch=1 n=c7 v=45
28359 Off ch=1 n=a#6 v=64
28374 Off ch=1 n=c7 v=64
28375 Off ch=1 n=d#5 v=64
28375 On ch=1 n=a#6 v=79
28398 Off ch=1 n=g5 v=64
28399 On ch=1 n=c7 v=76
28410 Off ch=1 n=a#6 v=64
28439 On ch=1 n=a#6 v=83
28455 Off ch=1 n=c7 v=64
28486 On ch=1 n=a6 v=84
28495 Off ch=1 n=a#6 v=64
28540 On ch=1 n=g6 v=83
28561 Off ch=1 n=a6 v=64
28607 On ch=1 n=f6 v=66
28609 Par ch=1 c=64 v=0
28609 Par ch=1 c=64 v=0
28611 Off ch=1 n=g6 v=64
28646 Off ch=1 n=f6 v=64
28647 On ch=1 n=a#3 v=62
28649 Par ch=1 c=64 v=127
28649 Par ch=1 c=64 v=127
28655 On ch=1 n=a#6 v=85
28688 Off ch=1 n=a#6 v=64
28734 Off ch=1 n=a#3 v=64
28769 Par ch=1 c=64 v=0
28787 On ch=1 n=a#6 v=63
28811 Off ch=1 n=a#6 v=64
28819 Par ch=1 c=64 v=127
28819 On ch=1 n=d6 v=71
28819 On ch=1 n=a#4 v=57
28823 On ch=1 n=d5 v=39
28823 On ch=1 n=f4 v=46
28829 Par ch=1 c=64 v=0
28847 Off ch=1 n=f4 v=64
28853 Off ch=1 n=a#4 v=64
28879 Par ch=1 c=64 v=127
28882 Off ch=1 n=d5 v=64
28989 On ch=1 n=d5 v=52
28989 On ch=1 n=a#4 v=57
28995 On ch=1 n=f4 v=46
29016 Off ch=1 n=d5 v=64
29019 Off ch=1 n=f4 v=64
29023 Off ch=1 n=a#4 v=64
29092 Par ch=1 c=64 v=0
29108 On ch=1 n=d#6 v=53
29126 Off ch=1 n=d6 v=64
29127 Par ch=1 c=64 v=127
29144 On ch=1 n=f3 v=50
29148 On ch=1 n=g6 v=81
29152 Par ch=1 c=64 v=0
29168 Off ch=1 n=d#6 v=64
29178 Off ch=1 n=g6 v=64
29187 Par ch=1 c=64 v=127
29222 Par ch=1 c=64 v=0
29231 Off ch=1 n=f3 v=64
29275 On ch=1 n=g6 v=57
29280 Par ch=1 c=64 v=127
29282 Par ch=1 c=64 v=0
29299 Off ch=1 n=g6 v=64
29303 On ch=1 n=c5 v=50
29303 On ch=1 n=f4 v=41
29304 On ch=1 n=d#5 v=52
29312 On ch=1 n=a5 v=62
29340 Par ch=1 c=64 v=127
29347 Off ch=1 n=c5 v=64
29357 Off ch=1 n=d#5 v=64
29363 Off ch=1 n=f4 v=64
29443 On ch=1 n=c5 v=49
29447 On ch=1 n=f4 v=52
29452 On ch=1 n=d#5 v=52
29487 Off ch=1 n=c5 v=64
29491 Off ch=1 n=f4 v=64
29496 Off ch=1 n=d#5 v=64
29552 Par ch=1 c=64 v=0
29564 On ch=1 n=a#5 v=57
29576 Off ch=1 n=a5 v=64
29590 Par ch=1 c=64 v=127
29599 On ch=1 n=a#3 v=57
29602 On ch=1 n=d6 v=71
29612 Par ch=1 c=64 v=0
29623 Off ch=1 n=a#5 v=64
29632 Off ch=1 n=d6 v=64
29650 Par ch=1 c=64 v=127
29684 Par ch=1 c=64 v=0
29686 Off ch=1 n=a#3 v=64
29731 On ch=1 n=d6 v=59
29738 Par ch=1 c=64 v=127
29744 Par ch=1 c=64 v=0
29754 On ch=1 n=f4 v=31
29756 On ch=1 n=a#4 v=41
29760 On ch=1 n=e5 v=72
29763 Off ch=1 n=d6 v=64
29770 On ch=1 n=d5 v=36
29795 Par ch=1 c=64 v=127
29805 Off ch=1 n=a#4 v=64
29806 Off ch=1 n=f4 v=64
29810 Off ch=1 n=d5 v=64
29905 On ch=1 n=d5 v=35
29905 On ch=1 n=a#4 v=52
29910 On ch=1 n=f4 v=35
29933 Off ch=1 n=d5 v=64
29936 Off ch=1 n=f4 v=64
29936 Off ch=1 n=a#4 v=64
29946 Off ch=1 n=e5 v=64
30002 Par ch=1 c=64 v=0
30044 Par ch=1 c=64 v=127
30051 On ch=1 n=f3 v=57
30057 On ch=1 n=f5 v=70
30062 Par ch=1 c=64 v=0
30104 Par ch=1 c=64 v=127
30138 Off ch=1 n=f3 v=64
30142 Par ch=1 c=64 v=0
30157 On ch=1 n=a5 v=63
30168 Par ch=1 c=64 v=127
30186 Off ch=1 n=f5 v=64
30202 Par ch=1 c=64 v=0
30205 On ch=1 n=c6 v=80
30206 On ch=1 n=f4 v=55
30211 On ch=1 n=d#5 v=61
30228 Par ch=1 c=64 v=127
30238 Off ch=1 n=f4 v=64
30246 Off ch=1 n=d#5 v=64
30268 On ch=1 n=d#6 v=45
30277 Off ch=1 n=a5 v=64
30329 Off ch=1 n=c6 v=64
30336 On ch=1 n=g6 v=83
30358 On ch=1 n=d#5 v=55
30364 On ch=1 n=f4 v=52
30369 Off ch=1 n=d#6 v=64
30389 Off ch=1 n=d#5 v=64
30398 Off ch=1 n=f4 v=64
30433 On ch=1 n=f6 v=87
30448 Off ch=1 n=g6 v=64
30452 Par ch=1 c=64 v=0
30457 Off ch=1 n=f6 v=64
30487 On ch=1 n=f6 v=83
30493 Par ch=1 c=64 v=127
30512 Par ch=1 c=64 v=0
30523 On ch=1 n=a#3 v=71
30530 On ch=1 n=d7 v=83
30553 Off ch=1 n=f6 v=64
30553 Par ch=1 c=64 v=127
30610 Off ch=1 n=a#3 v=64
30622 On ch=1 n=c7 v=66
30626 Par ch=1 c=64 v=0
30627 Off ch=1 n=d7 v=64
30672 Par ch=1 c=64 v=127
30686 Par ch=1 c=64 v=0
30693 On ch=1 n=a#6 v=84
30696 Off ch=1 n=c7 v=64
30698 On ch=1 n=a#4 v=26
30698 On ch=1 n=f4 v=24
30699 On ch=1 n=d5 v=53
30723 On ch=1 n=c7 v=78
30729 Off ch=1 n=a#4 v=64
30732 Off ch=1 n=d5 v=64
30732 Par ch=1 c=64 v=127
30739 Off ch=1 n=f4 v=64
30745 Off ch=1 n=a#6 v=64
30757 On ch=1 n=a#6 v=70
30780 Off ch=1 n=c7 v=64
30803 Par ch=1 c=64 v=0
30804 On ch=1 n=g6 v=78
30822 Off ch=1 n=a#6 v=64
30826 Par ch=1 c=64 v=127
30851 On ch=1 n=f4 v=52
30857 On ch=1 n=d5 v=56
30857 On ch=1 n=a#4 v=49
30863 On ch=1 n=f6 v=75
30863 Par ch=1 c=64 v=0
30880 Off ch=1 n=f4 v=64
30880 Off ch=1 n=g6 v=64
30881 Off ch=1 n=a#4 v=64
30882 Off ch=1 n=d5 v=64
30886 Par ch=1 c=64 v=127
30955 Par ch=1 c=64 v=0
30981 On ch=1 n=g6 v=65
30992 Par ch=1 c=64 v=127
30993 Off ch=1 n=f6 v=64
31007 On ch=1 n=a#3 v=71
31015 Par ch=1 c=64 v=0
31021 On ch=1 n=a#6 v=80
31032 Off ch=1 n=g6 v=64
31051 Off ch=1 n=a#6 v=64
31052 Par ch=1 c=64 v=127
31094 Off ch=1 n=a#3 v=64
31108 Par ch=1 c=64 v=0
31138 On ch=1 n=a#6 v=70
31163 Par ch=1 c=64 v=127
31168 Par ch=1 c=64 v=0
31178 On ch=1 n=f4 v=59
31181 Off ch=1 n=a#6 v=64
31181 On ch=1 n=d#5 v=55
31187 On ch=1 n=a5 v=70
31188 On ch=1 n=c5 v=52
31220 Par ch=1 c=64 v=127
31225 Off ch=1 n=d#5 v=64
31225 Off ch=1 n=f4 v=64
31228 Off ch=1 n=c5 v=64
31332 On ch=1 n=c5 v=59
31338 On ch=1 n=d#5 v=50
31341 On ch=1 n=f4 v=44
31366 Off ch=1 n=c5 v=64
31369 Off ch=1 n=d#5 v=64
31376 Off ch=1 n=f4 v=64
31421 On ch=1 n=a#5 v=58
31433 Par ch=1 c=64 v=0
31442 Off ch=1 n=a5 v=64
31446 On ch=1 n=d6 v=61
31469 Off ch=1 n=a#5 v=64
31481 Par ch=1 c=64 v=127
31489 On ch=1 n=f6 v=73
31493 On ch=1 n=a#3 v=70
31493 Par ch=1 c=64 v=0
31508 Off ch=1 n=d6 v=64
31519 Off ch=1 n=f6 v=64
31541 Par ch=1 c=64 v=127
31580 Off ch=1 n=a#3 v=64
31590 Par ch=1 c=64 v=0
31612 On ch=1 n=f6 v=74
31648 Par ch=1 c=64 v=127
31650 Par ch=1 c=64 v=0
31656 On ch=1 n=e5 v=83
31659 On ch=1 n=a#4 v=48
31661 Off ch=1 n=f6 v=64
31665 On ch=1 n=f4 v=29
31671 On ch=1 n=d5 v=27
31707 Off ch=1 n=f4 v=64
31708 Off ch=1 n=a#4 v=64
31708 Par ch=1 c=64 v=127
31714 Off ch=1 n=d5 v=64
31813 On ch=1 n=d5 v=48
31819 On ch=1 n=a#4 v=48
31822 On ch=1 n=f4 v=41
31844 Off ch=1 n=a#4 v=64
31845 Off ch=1 n=d5 v=64
31849 Off ch=1 n=f4 v=64
31920 Par ch=1 c=64 v=0
31972 Par ch=1 c=64 v=127
31973 On ch=1 n=f5 v=78
31980 Par ch=1 c=64 v=0
31987 On ch=1 n=f3 v=76
32012 Off ch=1 n=e5 v=64
32032 Par ch=1 c=64 v=127
32062 On ch=1 n=a5 v=65
32074 Off ch=1 n=f3 v=64
32110 Off ch=1 n=f5 v=64
32138 On ch=1 n=c6 v=45
32150 On ch=1 n=f4 v=52
32154 On ch=1 n=d#5 v=66
32156 On ch=1 n=a4 v=52
32192 Off ch=1 n=a5 v=64
32208 On ch=1 n=d#6 v=70
32209 Off ch=1 n=f4 v=64
32215 Off ch=1 n=a4 v=64
32225 Off ch=1 n=c6 v=64
32236 Off ch=1 n=d#5 v=64
32305 On ch=1 n=d6 v=67
32314 Off ch=1 n=d#6 v=64
32320 On ch=1 n=a4 v=57
32323 On ch=1 n=f4 v=57
32329 On ch=1 n=d#5 v=55
32341 On ch=1 n=d#6 v=70
32352 Off ch=1 n=d6 v=64
32368 On ch=1 n=d6 v=57
32373 Off ch=1 n=d#5 v=64
32375 Off ch=1 n=a4 v=64
32389 Off ch=1 n=d#6 v=64
32389 Off ch=1 n=f4 v=64
32441 On ch=1 n=c6 v=67
32457 Off ch=1 n=d6 v=64
32525 Par ch=1 c=64 v=0
32547 On ch=1 n=d6 v=70
32561 On ch=1 n=a#3 v=63
32568 Par ch=1 c=64 v=127
32578 Off ch=1 n=c6 v=64
32585 Par ch=1 c=64 v=0
32628 Par ch=1 c=64 v=127
32698 On ch=1 n=f5 v=67
32745 Par ch=1 c=64 v=0
32756 Off ch=1 n=a#3 v=64
32767 Off ch=1 n=d6 v=64
32769 On ch=1 n=a#5 v=70
32777 Par ch=1 c=64 v=127
32787 On ch=1 n=d5 v=46
32791 On ch=1 n=f4 v=48
32802 Par ch=1 c=64 v=0
32811 Off ch=1 n=f5 v=64
32834 Par ch=1 c=64 v=127
32857 Off ch=1 n=d5 v=64
32867 Off ch=1 n=f4 v=64
33053 On ch=1 n=a#3 v=58
33084 Off ch=1 n=a#3 v=64
33087 On ch=1 n=c4 v=58
33097 Off ch=1 n=a#5 v=64
33123 On ch=1 n=a#3 v=72
33130 Off ch=1 n=c4 v=64
33148 Off ch=1 n=a#3 v=64
33153 On ch=1 n=c4 v=62
33188 Off ch=1 n=c4 v=64
33191 On ch=1 n=a#3 v=65
33215 Off ch=1 n=a#3 v=64
33223 On ch=1 n=c4 v=53
33249 Off ch=1 n=c4 v=64
33250 On ch=1 n=a#3 v=58
33277 On ch=1 n=c4 v=50
33281 Off ch=1 n=a#3 v=64
33297 Par ch=1 c=64 v=0
33302 On ch=1 n=a#3 v=52
33310 Off ch=1 n=c4 v=64
33314 Par ch=1 c=64 v=0
33332 Off ch=1 n=a#3 v=64
33341 On ch=1 n=f#3 v=46
33348 On ch=1 n=f6 v=70
33354 Par ch=1 c=64 v=127
33354 On ch=1 n=c#4 v=42
33357 Par ch=1 c=64 v=0
33374 Par ch=1 c=64 v=0
33414 Par ch=1 c=64 v=127
33429 Off ch=1 n=f6 v=64
33459 Off ch=1 n=f#3 v=64
33475 Off ch=1 n=c#4 v=64
33513 On ch=1 n=f6 v=71
33514 Par ch=1 c=64 v=0
33548 On ch=1 n=c#4 v=57
33554 On ch=1 n=f#3 v=63
33559 Par ch=1 c=64 v=127
33564 On ch=1 n=e6 v=67
33574 Par ch=1 c=64 v=0
33579 Off ch=1 n=f6 v=64
33613 Off ch=1 n=c#4 v=64
33619 Off ch=1 n=f#3 v=64
33619 Par ch=1 c=64 v=127
33737 On ch=1 n=c#4 v=57
33743 On ch=1 n=f#3 v=55
33750 On ch=1 n=c#6 v=66
33777 Off ch=1 n=e6 v=64
33798 Off ch=1 n=c#4 v=64
33800 Off ch=1 n=f#3 v=64
33845 On ch=1 n=c6 v=55
33856 Off ch=1 n=c#6 v=64
33878 Par ch=1 c=64 v=0
33900 Par ch=1 c=64 v=127
33921 On ch=1 n=c#4 v=45
33924 On ch=1 n=a#5 v=66
33929 On ch=1 n=f#3 v=36
33937 Off ch=1 n=c6 v=64
33938 Par ch=1 c=64 v=0
33960 Par ch=1 c=64 v=127
33989 Off ch=1 n=f#3 v=64
34005 Off ch=1 n=c#4 v=64
34037 On ch=1 n=c#6 v=52
34077 Off ch=1 n=a#5 v=64
34096 Par ch=1 c=64 v=0
34098 On ch=1 n=c6 v=50
34109 Off ch=1 n=c#6 v=64
34110 Par ch=1 c=64 v=127
34120 On ch=1 n=c#6 v=62
34123 On ch=1 n=c#4 v=44
34129 Off ch=1 n=c6 v=64
34129 On ch=1 n=f#3 v=46
34151 On ch=1 n=c6 v=62
34153 Par ch=1 c=64 v=0
34159 Off ch=1 n=c#6 v=64
34167 Par ch=1 c=64 v=127
34198 Off ch=1 n=f#3 v=64
34205 Off ch=1 n=c#4 v=64
34329 On ch=1 n=c#4 v=45
34333 On ch=1 n=a#5 v=74
34336 On ch=1 n=f#3 v=55
34343 Off ch=1 n=c6 v=64
34400 Off ch=1 n=f#3 v=64
34406 Off ch=1 n=c#4 v=64
34423 On ch=1 n=e5 v=61
34432 Off ch=1 n=a#5 v=64
34473 Par ch=1 c=64 v=0
34513 On ch=1 n=f6 v=72
34518 On ch=1 n=c#4 v=48
34520 Par ch=1 c=64 v=127
34529 On ch=1 n=f#3 v=35
34533 Par ch=1 c=64 v=0
34552 Off ch=1 n=e5 v=64
34576 Off ch=1 n=f6 v=64
34579 Off ch=1 n=c#4 v=64
34580 Off ch=1 n=f#3 v=64
34580 Par ch=1 c=64 v=127
34650 On ch=1 n=f6 v=65
34660 Par ch=1 c=64 v=0
34685 Par ch=1 c=64 v=127
34687 On ch=1 n=e6 v=72
34691 On ch=1 n=c#4 v=59
34695 On ch=1 n=f#3 v=50
34703 Off ch=1 n=f6 v=64
34720 Par ch=1 c=64 v=0
34745 Par ch=1 c=64 v=127
34751 Off ch=1 n=c#4 v=64
34755 Off ch=1 n=f#3 v=64
34865 On ch=1 n=c#6 v=55
34874 On ch=1 n=c#4 v=62
34880 Off ch=1 n=e6 v=64
34883 On ch=1 n=f#3 v=33
34926 Off ch=1 n=c#4 v=64
34930 Off ch=1 n=f#3 v=64
34957 On ch=1 n=c6 v=70
34976 Off ch=1 n=c#6 v=64
35046 On ch=1 n=a#5 v=67
35052 Off ch=1 n=c6 v=64
35053 On ch=1 n=c#4 v=57
35059 On ch=1 n=f#3 v=46
35105 On ch=1 n=c6 v=72
35115 Off ch=1 n=c#4 v=64
35118 Off ch=1 n=a#5 v=64
35120 Off ch=1 n=f#3 v=64
35171 On ch=1 n=a#5 v=62
35183 Par ch=1 c=64 v=0
35194 Off ch=1 n=c6 v=64
35214 Par ch=1 c=64 v=127
35231 On ch=1 n=c#4 v=57
35236 On ch=1 n=e5 v=66
35236 On ch=1 n=f#3 v=46
35240 Off ch=1 n=a#5 v=64
35243 Par ch=1 c=64 v=0
35274 Par ch=1 c=64 v=127
35292 Off ch=1 n=c#4 v=64
35295 Off ch=1 n=f#3 v=64
35354 Par ch=1 c=64 v=0
35383 Par ch=1 c=64 v=127
35411 On ch=1 n=c#4 v=53
35414 Par ch=1 c=64 v=0
35420 On ch=1 n=f#3 v=44
35443 Par ch=1 c=64 v=127
35475 Off ch=1 n=c#4 v=64
35482 Off ch=1 n=f#3 v=64
35596 On ch=1 n=f6 v=66
35601 Off ch=1 n=e5 v=64
35602 On ch=1 n=c#4 v=53
35602 On ch=1 n=f#3 v=52
35665 Off ch=1 n=c#4 v=64
35672 Off ch=1 n=f6 v=64
35679 Off ch=1 n=f#3 v=64
35740 On ch=1 n=f6 v=53
35746 Par ch=1 c=64 v=0
35762 Par ch=1 c=64 v=127
35779 On ch=1 n=f#3 v=45
35780 On ch=1 n=e6 v=65
35780 On ch=1 n=c#4 v=46
35803 Off ch=1 n=f6 v=64
35806 Par ch=1 c=64 v=0
35822 Par ch=1 c=64 v=127
35848 Off ch=1 n=c#4 v=64
35853 Off ch=1 n=f#3 v=64
35957 On ch=1 n=c#6 v=70
35961 On ch=1 n=c#4 v=57
35966 On ch=1 n=f#3 v=45
35982 Off ch=1 n=e6 v=64
36028 Off ch=1 n=c#4 v=64
36035 Off ch=1 n=f#3 v=64
36058 On ch=1 n=c6 v=53
36092 Off ch=1 n=c#6 v=64
36133 On ch=1 n=a#5 v=70
36136 On ch=1 n=c#4 v=57
36147 On ch=1 n=f#3 v=42
36166 Off ch=1 n=c6 v=64
36207 Off ch=1 n=c#4 v=64
36208 Off ch=1 n=f#3 v=64
36246 On ch=1 n=c#6 v=45
36284 Off ch=1 n=a#5 v=64
36320 On ch=1 n=f#3 v=66
36322 On ch=1 n=c6 v=48
36328 Off ch=1 n=c#6 v=64
36331 On ch=1 n=c#4 v=42
36348 On ch=1 n=f#3 v=50
36353 On ch=1 n=c#6 v=50
36360 On ch=1 n=c#4 v=40
36363 Off ch=1 n=c6 v=64
36388 On ch=1 n=c6 v=52
36390 Off ch=1 n=c#4 v=64
36396 Off ch=1 n=c#6 v=64
36398 Off ch=1 n=f#3 v=64
36417 On ch=1 n=c#6 v=55
36421 Off ch=1 n=f#3 v=64
36427 Off ch=1 n=c6 v=64
36427 Off ch=1 n=c#4 v=64
36443 On ch=1 n=c6 v=57
36461 Off ch=1 n=c#6 v=64
36492 On ch=1 n=c#6 v=44
36499 Par ch=1 c=64 v=0
36501 Off ch=1 n=c6 v=64
36519 On ch=1 n=a#5 v=65
36521 Par ch=1 c=64 v=127
36528 Off ch=1 n=c#6 v=64
36529 On ch=1 n=c#4 v=59
36529 On ch=1 n=f#3 v=52
36559 Par ch=1 c=64 v=0
36581 Par ch=1 c=64 v=127
36600 Off ch=1 n=c#4 v=64
36601 Off ch=1 n=f#3 v=64
36630 On ch=1 n=e5 v=54
36662 Off ch=1 n=a#5 v=64
36679 Par ch=1 c=64 v=0
36703 Par ch=1 c=64 v=127
36719 On ch=1 n=f6 v=67
36727 On ch=1 n=f#3 v=53
36729 On ch=1 n=c#4 v=58
36739 Par ch=1 c=64 v=0
36759 Off ch=1 n=e5 v=64
36763 Par ch=1 c=64 v=127
36782 Off ch=1 n=c#4 v=64
36782 Off ch=1 n=f6 v=64
36784 Off ch=1 n=f#3 v=64
36866 On ch=1 n=f6 v=52
36883 Par ch=1 c=64 v=0
36898 Par ch=1 c=64 v=127
36912 On ch=1 n=e6 v=66
36912 On ch=1 n=c#4 v=79
36912 On ch=1 n=f#3 v=67
36926 Off ch=1 n=f6 v=64
36943 Par ch=1 c=64 v=0
36958 Par ch=1 c=64 v=127
37013 Off ch=1 n=c#4 v=64
37032 Off ch=1 n=f#3 v=64
37108 On ch=1 n=f#3 v=45
37114 On ch=1 n=c#4 v=52
37117 On ch=1 n=c#6 v=70
37152 Off ch=1 n=e6 v=64
37210 Off ch=1 n=f#3 v=64
37214 Off ch=1 n=c#4 v=64
37270 On ch=1 n=c6 v=70
37280 Off ch=1 n=c#6 v=64
37349 Par ch=1 c=64 v=0
37361 On ch=1 n=a#5 v=76
37361 On ch=1 n=c#4 v=53
37361 On ch=1 n=f3 v=63
37372 Par ch=1 c=64 v=127
37376 Off ch=1 n=c6 v=64
37409 Par ch=1 c=64 v=0
37432 Par ch=1 c=64 v=127
37495 On ch=1 n=c6 v=63
37518 Off ch=1 n=a#5 v=64
37570 On ch=1 n=a#5 v=83
37599 Off ch=1 n=c6 v=64
37662 Off ch=1 n=c#4 v=64
37682 Par ch=1 c=64 v=0
37686 On ch=1 n=a5 v=71
37694 On ch=1 n=c4 v=66
37697 Off ch=1 n=a#5 v=64
37742 Par ch=1 c=64 v=0
37762 Par ch=1 c=64 v=127
37822 Par ch=1 c=64 v=127
37855 Off ch=1 n=f3 v=64
38128 On ch=1 n=g5 v=46
38138 Off ch=1 n=a5 v=64
38155 Par ch=1 c=64 v=0
38207 Par ch=1 c=64 v=127
38212 Off ch=1 n=c4 v=64
38215 Par ch=1 c=64 v=0
38222 On ch=1 n=f3 v=63
38227 On ch=1 n=f5 v=67
38252 Par ch=1 c=64 v=0
38254 Off ch=1 n=g5 v=64
38264 Par ch=1 c=64 v=127
38288 Off ch=1 n=f5 v=64
38306 Off ch=1 n=f3 v=64
38309 Par ch=1 c=64 v=0
38361 Par ch=1 c=64 v=0
38369 On ch=1 n=f5 v=68
38386 Par ch=1 c=64 v=127
38405 On ch=1 n=g5 v=66
38405 On ch=1 n=f4 v=33
38412 On ch=1 n=d#5 v=31
38421 On ch=1 n=c5 v=50
38421 Par ch=1 c=64 v=0
38441 Off ch=1 n=f5 v=64
38446 Par ch=1 c=64 v=127
38451 Off ch=1 n=f4 v=64
38460 Off ch=1 n=c5 v=64
38460 Off ch=1 n=d#5 v=64
38513 Par ch=1 c=64 v=0
38546 Par ch=1 c=64 v=127
38573 Par ch=1 c=64 v=0
38579 On ch=1 n=c5 v=49
38581 On ch=1 n=a5 v=78
38581 On ch=1 n=d#5 v=49
38581 On ch=1 n=f4 v=42
38602 Off ch=1 n=g5 v=64
38606 Par ch=1 c=64 v=127
38612 Off ch=1 n=c5 v=64
38614 Off ch=1 n=d#5 v=64
38621 Off ch=1 n=f4 v=64
38685 Par ch=1 c=64 v=0
38719 Par ch=1 c=64 v=127
38740 On ch=1 n=a#5 v=76
38743 On ch=1 n=a#3 v=72
38745 Par ch=1 c=64 v=0
38775 Off ch=1 n=a5 v=64
38779 Par ch=1 c=64 v=127
38830 Off ch=1 n=a#3 v=64
38853 Par ch=1 c=64 v=0
38853 On ch=1 n=c6 v=70
38861 Off ch=1 n=a#5 v=64
38889 Par ch=1 c=64 v=127
38897 On ch=1 n=a#4 v=57
38899 On ch=1 n=d5 v=41
38899 On ch=1 n=f4 v=62
38903 On ch=1 n=d6 v=87
38913 Par ch=1 c=64 v=0
38923 Off ch=1 n=c6 v=64
38933 Off ch=1 n=f4 v=64
38936 Off ch=1 n=d5 v=64
38938 Off ch=1 n=a#4 v=64
38943 Par ch=1 c=64 v=127
39007 Par ch=1 c=64 v=0
39032 Par ch=1 c=64 v=127
39056 On ch=1 n=a#3 v=75
39059 On ch=1 n=d#6 v=78
39067 Par ch=1 c=64 v=0
39083 Off ch=1 n=d6 v=64
39092 Par ch=1 c=64 v=127
39143 Off ch=1 n=a#3 v=64
39158 On ch=1 n=f6 v=71
39163 Par ch=1 c=64 v=0
39178 Off ch=1 n=d#6 v=64
39189 Par ch=1 c=64 v=127
39218 On ch=1 n=d#4 v=83
39218 On ch=1 n=d#3 v=78
39223 Par ch=1 c=64 v=0
39228 On ch=1 n=g6 v=83
39249 Par ch=1 c=64 v=127
39299 Off ch=1 n=f6 v=64
39333 On ch=1 n=g4 v=41
39336 On ch=1 n=a6 v=72
39353 Off ch=1 n=g6 v=64
39381 On ch=1 n=a#4 v=41
39429 On ch=1 n=d#5 v=78
39443 On ch=1 n=c7 v=87
39458 Off ch=1 n=a6 v=64
39458 Off ch=1 n=d#3 v=64
39458 Off ch=1 n=d#4 v=64
39474 Off ch=1 n=g4 v=64
39477 On ch=1 n=g5 v=37
39481 On ch=1 n=a#6 v=87
39501 Off ch=1 n=c7 v=64
39519 On ch=1 n=c7 v=70
39522 Off ch=1 n=a#4 v=64
39526 Off ch=1 n=a#6 v=64
39534 Off ch=1 n=d#5 v=64
39554 On ch=1 n=a#6 v=83
39563 Off ch=1 n=g5 v=64
39570 Off ch=1 n=c7 v=64
39575 On ch=1 n=c7 v=63
39585 Off ch=1 n=a#6 v=64
39604 On ch=1 n=a#6 v=79
39621 Off ch=1 n=c7 v=64
39655 On ch=1 n=a6 v=83
39663 Off ch=1 n=a#6 v=64
39712 On ch=1 n=g6 v=80
39737 Par ch=1 c=64 v=0
39738 Off ch=1 n=a6 v=64
39785 On ch=1 n=f6 v=62
39797 Par ch=1 c=64 v=0
39799 Par ch=1 c=64 v=127
39805 Off ch=1 n=g6 v=64
39812 On ch=1 n=a#3 v=52
39815 On ch=1 n=a#6 v=86
39826 Off ch=1 n=f6 v=64
39850 Off ch=1 n=a#6 v=64
39859 Par ch=1 c=64 v=127
39899 Off ch=1 n=a#3 v=64
39913 Par ch=1 c=64 v=0
39935 On ch=1 n=a#6 v=57
39946 Par ch=1 c=64 v=127
39971 On ch=1 n=a#4 v=52
39971 On ch=1 n=f4 v=23
39973 Par ch=1 c=64 v=0
39983 On ch=1 n=d6 v=71
39983 On ch=1 n=d5 v=53
39994 Off ch=1 n=a#6 v=64
40006 Par ch=1 c=64 v=127
40017 Off ch=1 n=a#4 v=64
40024 Off ch=1 n=d5 v=64
40035 Off ch=1 n=f4 v=64
40130 On ch=1 n=d5 v=32
40133 On ch=1 n=a#4 v=55
40136 On ch=1 n=f4 v=45
40165 Off ch=1 n=d5 v=64
40170 Off ch=1 n=a#4 v=64
40175 Off ch=1 n=f4 v=64
40232 Par ch=1 c=64 v=0
40249 On ch=1 n=d#6 v=50
40269 Off ch=1 n=d6 v=64
40269 Par ch=1 c=64 v=127
40277 On ch=1 n=f3 v=61
40284 On ch=1 n=g6 v=66
40292 Par ch=1 c=64 v=0
40311 Off ch=1 n=d#6 v=64
40312 Off ch=1 n=g6 v=64
40329 Par ch=1 c=64 v=127
40364 Off ch=1 n=f3 v=64
40376 Par ch=1 c=64 v=0
40409 On ch=1 n=g6 v=49
40434 Par ch=1 c=64 v=127
40436 Par ch=1 c=64 v=0
40441 On ch=1 n=f4 v=41
40443 On ch=1 n=a5 v=63
40449 On ch=1 n=c5 v=44
40451 On ch=1 n=d#5 v=63
40463 Off ch=1 n=g6 v=64
40482 Off ch=1 n=c5 v=64
40487 Off ch=1 n=f4 v=64
40494 Off ch=1 n=d#5 v=64
40494 Par ch=1 c=64 v=127
40602 On ch=1 n=d#5 v=46
40607 On ch=1 n=c5 v=52
40607 On ch=1 n=f4 v=52
40634 Off ch=1 n=c5 v=64
40640 Off ch=1 n=f4 v=64
40647 Off ch=1 n=d#5 v=64
40701 Par ch=1 c=64 v=0
40705 On ch=1 n=a#5 v=50
40729 Off ch=1 n=a5 v=64
40736 Par ch=1 c=64 v=127
40750 On ch=1 n=d6 v=62
40750 On ch=1 n=a#3 v=61
40761 Par ch=1 c=64 v=0
40773 Off ch=1 n=a#5 v=64
40780 Off ch=1 n=d6 v=64
40796 Par ch=1 c=64 v=127
40833 Par ch=1 c=64 v=0
40837 Off ch=1 n=a#3 v=64
40877 On ch=1 n=d6 v=57
40887 Par ch=1 c=64 v=127
40893 Par ch=1 c=64 v=0
40911 On ch=1 n=a#4 v=24
40911 On ch=1 n=f4 v=33
40912 On ch=1 n=e5 v=65
40913 On ch=1 n=d5 v=26
40920 Off ch=1 n=d6 v=64
40947 Par ch=1 c=64 v=127
40964 Off ch=1 n=a#4 v=64
40968 Off ch=1 n=d5 v=64
40969 Off ch=1 n=f4 v=64
41069 On ch=1 n=f4 v=46
41070 On ch=1 n=d5 v=44
41075 On ch=1 n=a#4 v=46
41110 Off ch=1 n=f4 v=64
41116 Off ch=1 n=a#4 v=64
41118 Off ch=1 n=d5 v=64
41163 Par ch=1 c=64 v=0
41200 Par ch=1 c=64 v=127
41223 On ch=1 n=f5 v=72
41223 Par ch=1 c=64 v=0
41229 On ch=1 n=f3 v=42
41260 Par ch=1 c=64 v=127
41276 Off ch=1 n=e5 v=64
41316 Off ch=1 n=f3 v=64
41317 On ch=1 n=a5 v=71
41347 Off ch=1 n=f5 v=64
41366 On ch=1 n=d#5 v=58
41373 On ch=1 n=c6 v=67
41373 On ch=1 n=f4 v=46
41400 Off ch=1 n=f4 v=64
41423 Off ch=1 n=a5 v=64
41424 Off ch=1 n=d#5 v=64
41453 On ch=1 n=d#6 v=48
41501 On ch=1 n=g6 v=72
41510 Off ch=1 n=c6 v=64
41513 On ch=1 n=f4 v=35
41517 On ch=1 n=d#5 v=46
41517 On ch=1 n=a4 v=42
41532 Off ch=1 n=d#6 v=64
41540 Off ch=1 n=a4 v=64
41545 Off ch=1 n=d#5 v=64
41547 Off ch=1 n=f4 v=64
41590 On ch=1 n=f6 v=84
41606 Off ch=1 n=g6 v=64
41616 Off ch=1 n=f6 v=64
41625 Par ch=1 c=64 v=0
41642 On ch=1 n=f6 v=63
41656 Par ch=1 c=64 v=127
41683 On ch=1 n=a#3 v=74
41685 Par ch=1 c=64 v=0
41693 On ch=1 n=d7 v=77
41709 Off ch=1 n=f6 v=64
41716 Par ch=1 c=64 v=127
41770 Off ch=1 n=a#3 v=64
41776 On ch=1 n=c7 v=76
41783 Off ch=1 n=d7 v=64
41808 Par ch=1 c=64 v=0
41827 Par ch=1 c=64 v=127
41831 Par ch=1 c=64 v=127
41848 On ch=1 n=a#6 v=84
41852 On ch=1 n=a#4 v=52
41853 On ch=1 n=a#4 v=22
41853 On ch=1 n=f4 v=20
41854 Off ch=1 n=c7 v=64
41854 On ch=1 n=d5 v=44
41855 On ch=1 n=d5 v=52
41855 On ch=1 n=f4 v=29
41865 Par ch=1 c=64 v=0
41875 On ch=1 n=c7 v=78
41881 Off ch=1 n=a#4 v=64
41884 Off ch=1 n=d5 v=64
41884 Par ch=1 c=64 v=127
41888 Par ch=1 c=64 v=127
41891 Off ch=1 n=f4 v=64
41895 Off ch=1 n=d5 v=64
41895 Off ch=1 n=a#4 v=64
41897 Off ch=1 n=a#6 v=64
41901 Off ch=1 n=f4 v=64
41909 On ch=1 n=a#6 v=70
41932 Off ch=1 n=c7 v=64
41954 On ch=1 n=g6 v=65
41959 Par ch=1 c=64 v=0
41974 Off ch=1 n=a#6 v=64
41976 Par ch=1 c=64 v=127
42009 On ch=1 n=d5 v=55
42009 On ch=1 n=f4 v=49
42011 On ch=1 n=a#4 v=52
42017 On ch=1 n=f6 v=83
42019 Par ch=1 c=64 v=0
42036 Off ch=1 n=g6 v=64
42036 Par ch=1 c=64 v=127
42050 Off ch=1 n=d5 v=64
42052 Off ch=1 n=a#4 v=64
42058 Off ch=1 n=f4 v=64
42109 Par ch=1 c=64 v=0
42130 On ch=1 n=g6 v=57
42137 Par ch=1 c=64 v=127
42138 Off ch=1 n=f6 v=64
42159 On ch=1 n=a#3 v=78
42161 On ch=1 n=a#6 v=83
42169 Par ch=1 c=64 v=0
42184 Off ch=1 n=g6 v=64
42189 Off ch=1 n=a#6 v=64
42197 Par ch=1 c=64 v=127
42246 Off ch=1 n=a#3 v=64
42266 Par ch=1 c=64 v=0
42275 On ch=1 n=a#6 v=66
42309 Par ch=1 c=64 v=127
42326 Par ch=1 c=64 v=0
42334 On ch=1 n=a5 v=75
42339 On ch=1 n=d#5 v=48
42342 Off ch=1 n=a#6 v=64
42343 On ch=1 n=f4 v=29
42354 On ch=1 n=c5 v=45
42369 Par ch=1 c=64 v=127
42385 Off ch=1 n=c5 v=64
42393 Off ch=1 n=f4 v=64
42393 Off ch=1 n=d#5 v=64
42501 On ch=1 n=f4 v=45
42503 On ch=1 n=c5 v=59
42508 On ch=1 n=d#5 v=36
42526 Off ch=1 n=c5 v=64
42529 Off ch=1 n=d#5 v=64
42536 Off ch=1 n=f4 v=64
42591 On ch=1 n=a#5 v=54
42601 Par ch=1 c=64 v=0
42606 Off ch=1 n=a5 v=64
42608 On ch=1 n=d6 v=67
42631 Off ch=1 n=a#5 v=64
42640 Par ch=1 c=64 v=127
42647 On ch=1 n=f6 v=78
42651 On ch=1 n=a#3 v=70
42661 Par ch=1 c=64 v=0
42676 Off ch=1 n=d6 v=64
42681 Off ch=1 n=f6 v=64
42700 Par ch=1 c=64 v=127
42738 Off ch=1 n=a#3 v=64
42748 Par ch=1 c=64 v=0
42766 On ch=1 n=f6 v=72
42781 Par ch=1 c=64 v=127
42808 Par ch=1 c=64 v=0
42816 On ch=1 n=e5 v=80
42816 On ch=1 n=f4 v=36
42821 Off ch=1 n=f6 v=64
42821 On ch=1 n=a#4 v=45
42822 On ch=1 n=d5 v=53
42841 Par ch=1 c=64 v=127
42865 Off ch=1 n=a#4 v=64
42865 Off ch=1 n=f4 v=64
42867 Off ch=1 n=d5 v=64
42978 On ch=1 n=d5 v=48
42980 On ch=1 n=a#4 v=29
42981 On ch=1 n=f4 v=29
43008 Off ch=1 n=a#4 v=64
43012 Off ch=1 n=f4 v=64
43022 Off ch=1 n=d5 v=64
43085 Par ch=1 c=64 v=0
43118 Par ch=1 c=64 v=127
43128 On ch=1 n=f5 v=78
43130 On ch=1 n=f3 v=55
43140 Off ch=1 n=e5 v=64
43142 Par ch=1 c=64 v=0
43175 Par ch=1 c=64 v=127
43217 Off ch=1 n=f3 v=64
43225 On ch=1 n=a5 v=67
43258 Off ch=1 n=f5 v=64
43294 On ch=1 n=c6 v=46
43297 On ch=1 n=f4 v=44
43298 On ch=1 n=d#5 v=65
43334 Off ch=1 n=f4 v=64
43348 Off ch=1 n=d#5 v=64
43368 Off ch=1 n=a5 v=64
43371 On ch=1 n=d#6 v=72
43404 Off ch=1 n=c6 v=64
43449 On ch=1 n=d#5 v=57
43450 On ch=1 n=f4 v=48
43457 On ch=1 n=a4 v=36
43466 On ch=1 n=d6 v=63
43477 Off ch=1 n=d#6 v=64
43482 Off ch=1 n=d#5 v=64
43485 Off ch=1 n=a4 v=64
43485 Off ch=1 n=f4 v=64
43492 On ch=1 n=d#6 v=83
43502 Off ch=1 n=d6 v=64
43525 On ch=1 n=d6 v=68
43532 Off ch=1 n=d#6 v=64
43576 On ch=1 n=c6 v=72
43596 Off ch=1 n=d6 v=64
43602 Par ch=1 c=64 v=0
43647 Par ch=1 c=64 v=127
43649 On ch=1 n=a#3 v=66
43655 On ch=1 n=d6 v=84
43662 Par ch=1 c=64 v=0
43667 Off ch=1 n=c6 v=64
43707 Par ch=1 c=64 v=127
43782 On ch=1 n=f5 v=46
43786 Par ch=1 c=64 v=0
43822 Par ch=1 c=64 v=127
43839 On ch=1 n=a#5 v=75
43844 Off ch=1 n=a#3 v=64
43846 Par ch=1 c=64 v=0
43853 Off ch=1 n=d6 v=64
43857 On ch=1 n=d5 v=57
43858 On ch=1 n=a#4 v=36
43858 On ch=1 n=f4 v=36
43882 Par ch=1 c=64 v=127
43906 Off ch=1 n=f4 v=64
43908 Off ch=1 n=d5 v=64
43913 Off ch=1 n=a#4 v=64
44082 On ch=1 n=a#3 v=49
44113 Off ch=1 n=a#3 v=64
44116 On ch=1 n=c4 v=48
44117 Off ch=1 n=f5 v=64
44148 Off ch=1 n=a#5 v=64
44152 On ch=1 n=a#3 v=58
44159 Off ch=1 n=c4 v=64
44177 Off ch=1 n=a#3 v=64
44182 On ch=1 n=c4 v=49
44217 Off ch=1 n=c4 v=64
44220 On ch=1 n=a#3 v=49
44244 Off ch=1 n=a#3 v=64
44252 On ch=1 n=c4 v=40
44278 Off ch=1 n=c4 v=64
44279 On ch=1 n=a#3 v=42
44306 On ch=1 n=c4 v=36
44310 Off ch=1 n=a#3 v=64
44326 Par ch=1 c=64 v=0
44331 On ch=1 n=a#3 v=36
44339 Off ch=1 n=c4 v=64
44359 Par ch=1 c=64 v=0
44361 Off ch=1 n=a#3 v=64
44376 On ch=1 n=f#3 v=53
44381 On ch=1 n=c#4 v=57
44386 Par ch=1 c=64 v=0
44390 On ch=1 n=f6 v=57
44401 Par ch=1 c=64 v=127
44419 Par ch=1 c=64 v=0
44461 Par ch=1 c=64 v=127
44466 Off ch=1 n=f6 v=64
44540 On ch=1 n=f6 v=53
44546 Off ch=1 n=f#3 v=64
44548 Par ch=1 c=64 v=0
44553 Off ch=1 n=c#4 v=64
44584 Par ch=1 c=64 v=127
44593 On ch=1 n=e6 v=54
44602 On ch=1 n=c#4 v=44
44608 Par ch=1 c=64 v=0
44614 Off ch=1 n=f6 v=64
44615 On ch=1 n=f#3 v=40
44644 Par ch=1 c=64 v=127
44677 Off ch=1 n=f#3 v=64
44682 Off ch=1 n=c#4 v=64
44726 Par ch=1 c=64 v=0
44742 Par ch=1 c=64 v=127
44766 On ch=1 n=c#6 v=54
44772 On ch=1 n=c#4 v=37
44780 On ch=1 n=f#3 v=31
44786 Par ch=1 c=64 v=0
44791 Off ch=1 n=e6 v=64
44802 Par ch=1 c=64 v=127
44832 Off ch=1 n=f#3 v=64
44832 Off ch=1 n=c#4 v=64
44858 On ch=1 n=c6 v=52
44860 Off ch=1 n=c#6 v=64
44940 On ch=1 n=a#5 v=52
44946 On ch=1 n=c#4 v=46
44955 On ch=1 n=f#3 v=37
44962 Off ch=1 n=c6 v=64
45022 Off ch=1 n=f#3 v=64
45032 On ch=1 n=c#6 v=52
45036 Off ch=1 n=c#4 v=64
45044 Off ch=1 n=a#5 v=64
45077 Par ch=1 c=64 v=0
45079 On ch=1 n=c6 v=40
45091 Par ch=1 c=64 v=127
45092 Off ch=1 n=c#6 v=64
45104 On ch=1 n=c#6 v=49
45113 Off ch=1 n=c6 v=64
45135 On ch=1 n=c6 v=49
45137 Par ch=1 c=64 v=0
45143 Off ch=1 n=c#6 v=64
45144 On ch=1 n=f#3 v=33
45145 On ch=1 n=c#4 v=36
45151 Par ch=1 c=64 v=127
45228 Off ch=1 n=f#3 v=64
45233 Off ch=1 n=c#4 v=64
45299 Par ch=1 c=64 v=0
45324 Par ch=1 c=64 v=127
45332 On ch=1 n=a#5 v=57
45335 On ch=1 n=c#4 v=36
45339 Off ch=1 n=c6 v=64
45341 On ch=1 n=f#3 v=44
45359 Par ch=1 c=64 v=0
45384 Par ch=1 c=64 v=127
45408 Off ch=1 n=f#3 v=64
45418 On ch=1 n=e5 v=42
45426 Off ch=1 n=c#4 v=64
45446 Off ch=1 n=a#5 v=64
45478 Par ch=1 c=64 v=0
45505 Par ch=1 c=64 v=127
45515 On ch=1 n=c#4 v=45
45517 On ch=1 n=f6 v=52
45521 On ch=1 n=f#3 v=45
45538 Par ch=1 c=64 v=0
45542 Off ch=1 n=e5 v=64
45565 Par ch=1 c=64 v=127
45591 Off ch=1 n=f6 v=64
45596 Off ch=1 n=f#3 v=64
45603 Off ch=1 n=c#4 v=64
45650 On ch=1 n=f6 v=41
45654 Par ch=1 c=64 v=0
45676 On ch=1 n=e6 v=59
45682 On ch=1 n=c#4 v=50
45684 Par ch=1 c=64 v=127
45690 On ch=1 n=f#3 v=41
45695 Off ch=1 n=f6 v=64
45714 Par ch=1 c=64 v=0
45744 Par ch=1 c=64 v=127
45754 Off ch=1 n=c#4 v=64
45764 Off ch=1 n=f#3 v=64
45852 On ch=1 n=c#6 v=55
45858 On ch=1 n=f#3 v=52
45861 On ch=1 n=c#4 v=50
45871 Off ch=1 n=e6 v=64
45915 Off ch=1 n=c#4 v=64
45930 Off ch=1 n=f#3 v=64
45930 On ch=1 n=c6 v=53
45963 Off ch=1 n=c#6 v=64
45989 Par ch=1 c=64 v=0
46022 Par ch=1 c=64 v=127
46031 On ch=1 n=c#4 v=50
46032 On ch=1 n=a#5 v=48
46032 On ch=1 n=f#3 v=41
46049 Par ch=1 c=64 v=0
46067 Off ch=1 n=c6 v=64
46082 Par ch=1 c=64 v=127
46088 On ch=1 n=c6 v=46
46098 Off ch=1 n=c#4 v=64
46104 Off ch=1 n=f#3 v=64
46107 Off ch=1 n=a#5 v=64
46135 On ch=1 n=a#5 v=66
46139 Par ch=1 c=64 v=0
46150 Off ch=1 n=c6 v=64
46180 Par ch=1 c=64 v=127
46199 Par ch=1 c=64 v=0
46200 On ch=1 n=e5 v=52
46207 On ch=1 n=c#4 v=49
46209 Off ch=1 n=a#5 v=64
46209 On ch=1 n=f#3 v=52
46240 Par ch=1 c=64 v=127
46266 Off ch=1 n=c#4 v=64
46276 Off ch=1 n=f#3 v=64
46317 Par ch=1 c=64 v=0
46343 Par ch=1 c=64 v=127
46362 On ch=1 n=c#4 v=48
46364 On ch=1 n=f#3 v=49
46374 Par ch=1 c=64 v=0
46400 Par ch=1 c=64 v=127
46433 Off ch=1 n=c#4 v=64
46440 Off ch=1 n=f#3 v=64
46534 On ch=1 n=f6 v=55
46541 On ch=1 n=c#4 v=46
46541 On ch=1 n=f#3 v=44
46555 Off ch=1 n=e5 v=64
46592 Off ch=1 n=f6 v=64
46602 Off ch=1 n=c#4 v=64
46606 Off ch=1 n=f#3 v=64
46661 On ch=1 n=f6 v=39
46681 Par ch=1 c=64 v=0
46692 Par ch=1 c=64 v=127
46697 On ch=1 n=e6 v=57
46698 On ch=1 n=c#4 v=45
46706 On ch=1 n=f#3 v=36
46713 Off ch=1 n=f6 v=64
46741 Par ch=1 c=64 v=0
46752 Par ch=1 c=64 v=127
46764 Off ch=1 n=c#4 v=64
46766 Off ch=1 n=f#3 v=64
46868 On ch=1 n=c#6 v=49
46869 On ch=1 n=c#4 v=42
46879 On ch=1 n=f#3 v=35
46888 Off ch=1 n=e6 v=64
46945 Off ch=1 n=c#4 v=64
46947 Off ch=1 n=f#3 v=64
46958 On ch=1 n=c6 v=50
46982 Off ch=1 n=c#6 v=64
47038 On ch=1 n=c#4 v=42
47043 On ch=1 n=a#5 v=40
47046 On ch=1 n=f#3 v=32
47066 Off ch=1 n=c6 v=64
47104 Off ch=1 n=c#4 v=64
47107 Off ch=1 n=f#3 v=64
47117 On ch=1 n=c#6 v=44
47136 Off ch=1 n=a#5 v=64
47198 On ch=1 n=c6 v=45
47218 Off ch=1 n=c#6 v=64
47224 On ch=1 n=f#3 v=40
47229 On ch=1 n=c#6 v=46
47236 On ch=1 n=c#4 v=31
47239 Off ch=1 n=c6 v=64
47264 On ch=1 n=c6 v=49
47272 Off ch=1 n=c#6 v=64
47293 On ch=1 n=c#6 v=52
47297 Off ch=1 n=f#3 v=64
47303 Off ch=1 n=c6 v=64
47303 Off ch=1 n=c#4 v=64
47319 On ch=1 n=c6 v=53
47337 Off ch=1 n=c#6 v=64
47368 On ch=1 n=c#6 v=41
47377 Off ch=1 n=c6 v=64
47386 Par ch=1 c=64 v=0
47418 Par ch=1 c=64 v=127
47418 On ch=1 n=c#4 v=44
47422 On ch=1 n=a#5 v=45
47426 On ch=1 n=f#3 v=48
47432 Off ch=1 n=c#6 v=64
47446 Par ch=1 c=64 v=0
47478 Par ch=1 c=64 v=127
47488 Off ch=1 n=c#4 v=64
47495 Off ch=1 n=f#3 v=64
47512 On ch=1 n=e5 v=46
47539 Off ch=1 n=a#5 v=64
47558 Par ch=1 c=64 v=0
47574 Par ch=1 c=64 v=127
47604 On ch=1 n=f6 v=54
47610 On ch=1 n=c#4 v=49
47614 On ch=1 n=f#3 v=45
47618 Par ch=1 c=64 v=0
47634 Par ch=1 c=64 v=127
47645 Off ch=1 n=e5 v=64
47664 Off ch=1 n=f6 v=64
47669 Off ch=1 n=c#4 v=64
47676 Off ch=1 n=f#3 v=64
47748 On ch=1 n=f6 v=45
47791 On ch=1 n=c#4 v=65
47792 On ch=1 n=f#3 v=65
47797 On ch=1 n=e6 v=57
47806 Off ch=1 n=f6 v=64
47908 Off ch=1 n=c#4 v=64
47917 Off ch=1 n=f#3 v=64
48000 On ch=1 n=f#3 v=40
48004 On ch=1 n=c#6 v=58
48008 On ch=1 n=c#4 v=36
48040 Off ch=1 n=e6 v=64
48141 Off ch=1 n=f#3 v=64
48147 Off ch=1 n=c#4 v=64
48153 On ch=1 n=c6 v=52
48187 Off ch=1 n=c#6 v=64
48192 Par ch=1 c=64 v=0
48220 On ch=1 n=a#5 v=55
48222 Par ch=1 c=64 v=127
48225 On ch=1 n=c#4 v=44
48229 On ch=1 n=f3 v=37
48239 Off ch=1 n=c6 v=64
48249 Par ch=1 c=64 v=0
48279 Par ch=1 c=64 v=127
48311 On ch=1 n=c6 v=54
48316 Off ch=1 n=a#5 v=64
48380 On ch=1 n=a#5 v=41
48400 Off ch=1 n=c6 v=64
48455 Off ch=1 n=c#4 v=64
48474 Par ch=1 c=64 v=0
48496 On ch=1 n=a5 v=54
48511 On ch=1 n=c4 v=46
48534 Par ch=1 c=64 v=0
48540 Off ch=1 n=a#5 v=64
48585 Par ch=1 c=64 v=127
48645 Par ch=1 c=64 v=127
48771 Off ch=1 n=f3 v=64
48949 On ch=1 n=g5 v=58
48971 Off ch=1 n=a5 v=64
49054 Par ch=1 c=64 v=0
49094 Par ch=1 c=64 v=127
49113 On ch=1 n=f5 v=57
49114 Par ch=1 c=64 v=0
49120 On ch=1 n=f3 v=57
49126 Off ch=1 n=g5 v=64
49133 Off ch=1 n=c4 v=64
49152 Off ch=1 n=f3 v=64
49154 Par ch=1 c=64 v=127
49213 Off ch=1 n=f5 v=64
49279 Par ch=1 c=64 v=0
49289 On ch=1 n=f5 v=54
49317 On ch=1 n=g5 v=54
49319 Par ch=1 c=64 v=127
49328 On ch=1 n=d#5 v=57
49334 On ch=1 n=f4 v=22
49336 On ch=1 n=c5 v=52
49336 Par ch=1 c=64 v=0
49357 Off ch=1 n=f5 v=64
49367 Off ch=1 n=d#5 v=64
49371 Off ch=1 n=f4 v=64
49373 Off ch=1 n=c5 v=64
49379 Par ch=1 c=64 v=127
49437 Par ch=1 c=64 v=0
49461 Par ch=1 c=64 v=127
49497 On ch=1 n=a5 v=62
49497 Par ch=1 c=64 v=0
49503 On ch=1 n=d#5 v=54
49507 On ch=1 n=f4 v=45
49509 On ch=1 n=c5 v=36
49517 Off ch=1 n=g5 v=64
49521 Par ch=1 c=64 v=127
49538 Off ch=1 n=c5 v=64
49538 Off ch=1 n=f4 v=64
49542 Off ch=1 n=d#5 v=64
49600 Par ch=1 c=64 v=0
49624 Par ch=1 c=64 v=127
49650 On ch=1 n=a#5 v=62
49652 On ch=1 n=a#3 v=54
49660 Par ch=1 c=64 v=0
49681 Off ch=1 n=a5 v=64
49684 Par ch=1 c=64 v=127
49699 Off ch=1 n=a#3 v=64
49761 On ch=1 n=c6 v=65
49761 Par ch=1 c=64 v=0
49764 Off ch=1 n=a#5 v=64
49774 Par ch=1 c=64 v=127
49798 On ch=1 n=a#4 v=37
49801 On ch=1 n=d5 v=28
49806 On ch=1 n=d6 v=71
49814 On ch=1 n=f4 v=52
49818 Par ch=1 c=64 v=0
49827 Off ch=1 n=c6 v=64
49834 Par ch=1 c=64 v=127
49840 Off ch=1 n=d5 v=64
49844 Off ch=1 n=f4 v=64
49844 Off ch=1 n=a#4 v=64
49958 On ch=1 n=a#3 v=67
49959 On ch=1 n=d#6 v=70
49984 Off ch=1 n=d6 v=64
50011 Off ch=1 n=a#3 v=64
50057 On ch=1 n=f6 v=61
50059 Par ch=1 c=64 v=0
50064 Off ch=1 n=d#6 v=64
50098 Par ch=1 c=64 v=127
50119 Par ch=1 c=64 v=0
50126 On ch=1 n=g6 v=72
50126 On ch=1 n=d#3 v=67
50130 On ch=1 n=d#4 v=68
50148 Off ch=1 n=f6 v=64
50158 Par ch=1 c=64 v=127
50270 On ch=1 n=a6 v=68
50278 On ch=1 n=g4 v=52
50288 Off ch=1 n=g6 v=64
50318 On ch=1 n=a#4 v=54
50358 On ch=1 n=d#5 v=76
50366 Off ch=1 n=d#3 v=64
50370 Off ch=1 n=d#4 v=64
50372 On ch=1 n=c7 v=85
50379 Off ch=1 n=a6 v=64
50390 Off ch=1 n=g4 v=64
50398 On ch=1 n=g5 v=36
50410 On ch=1 n=a#6 v=87
50415 Off ch=1 n=c7 v=64
50438 Off ch=1 n=a#4 v=64
50448 On ch=1 n=c7 v=70
50455 Off ch=1 n=a#6 v=64
50482 Off ch=1 n=d#5 v=64
50483 On ch=1 n=a#6 v=83
50499 Off ch=1 n=c7 v=64
50499 Off ch=1 n=g5 v=64
50510 On ch=1 n=c7 v=63
50514 Off ch=1 n=a#6 v=64
50533 On ch=1 n=a#6 v=79
50556 Off ch=1 n=c7 v=64
50564 On ch=1 n=a6 v=75
50574 Off ch=1 n=a#6 v=64
50647 On ch=1 n=g6 v=63
50674 Off ch=1 n=a6 v=64
50700 Par ch=1 c=64 v=0
50715 Par ch=1 c=64 v=127
50727 On ch=1 n=f6 v=59
50734 Off ch=1 n=g6 v=64
50750 On ch=1 n=a#3 v=62
50755 On ch=1 n=a#6 v=80
50760 Par ch=1 c=64 v=0
50768 Off ch=1 n=f6 v=64
50775 Par ch=1 c=64 v=127
50786 Off ch=1 n=a#6 v=64
50837 Off ch=1 n=a#3 v=64
50874 Par ch=1 c=64 v=0
50892 On ch=1 n=a#6 v=59
50901 Par ch=1 c=64 v=127
50915 On ch=1 n=a#4 v=53
50918 On ch=1 n=f4 v=48
50922 Off ch=1 n=a#6 v=64
50922 On ch=1 n=d5 v=52
50924 On ch=1 n=d6 v=66
50934 Par ch=1 c=64 v=0
50957 Off ch=1 n=d5 v=64
50960 Off ch=1 n=a#4 v=64
50961 Par ch=1 c=64 v=127
50966 Off ch=1 n=f4 v=64
51079 On ch=1 n=d5 v=52
51083 On ch=1 n=a#4 v=55
51083 On ch=1 n=f4 v=40
51107 Off ch=1 n=f4 v=64
51107 Off ch=1 n=a#4 v=64
51111 Off ch=1 n=d5 v=64
51173 Par ch=1 c=64 v=0
51203 On ch=1 n=d#6 v=55
51222 Par ch=1 c=64 v=127
51223 On ch=1 n=f3 v=57
51226 Off ch=1 n=d6 v=64
51233 Par ch=1 c=64 v=0
51239 On ch=1 n=g6 v=59
51258 Off ch=1 n=d#6 v=64
51268 Off ch=1 n=g6 v=64
51279 Par ch=1 c=64 v=127
51307 Off ch=1 n=f3 v=64
51316 Par ch=1 c=64 v=0
51360 On ch=1 n=g6 v=54
51369 Par ch=1 c=64 v=127
51376 Par ch=1 c=64 v=0
51388 On ch=1 n=f4 v=45
51392 Off ch=1 n=g6 v=64
51392 On ch=1 n=a5 v=61
51396 On ch=1 n=d#5 v=57
51399 On ch=1 n=c5 v=41
51429 Par ch=1 c=64 v=127
51439 Off ch=1 n=c5 v=64
51441 Off ch=1 n=f4 v=64
51446 Off ch=1 n=d#5 v=64
51539 On ch=1 n=d#5 v=52
51545 On ch=1 n=c5 v=41
51546 On ch=1 n=f4 v=48
51578 Off ch=1 n=d#5 v=64
51584 Off ch=1 n=c5 v=64
51593 Off ch=1 n=f4 v=64
51644 Par ch=1 c=64 v=0
51659 On ch=1 n=a#5 v=57
51664 Off ch=1 n=a5 v=64
51673 Par ch=1 c=64 v=127
51691 On ch=1 n=a#3 v=66
51701 Par ch=1 c=64 v=0
51709 On ch=1 n=d6 v=46
51718 Off ch=1 n=a#5 v=64
51730 Par ch=1 c=64 v=127
51733 Off ch=1 n=d6 v=64
51775 Off ch=1 n=a#3 v=64
51776 Par ch=1 c=64 v=0
51822 On ch=1 n=d6 v=55
51829 Par ch=1 c=64 v=127
51836 Par ch=1 c=64 v=0
51846 On ch=1 n=a#4 v=44
51847 On ch=1 n=e5 v=62
51850 Off ch=1 n=d6 v=64
51854 On ch=1 n=d5 v=45
51855 On ch=1 n=f4 v=32
51889 Par ch=1 c=64 v=127
51903 Off ch=1 n=d5 v=64
51906 Off ch=1 n=f4 v=64
51906 Off ch=1 n=a#4 v=64
52003 On ch=1 n=a#4 v=50
52008 On ch=1 n=d5 v=44
52011 On ch=1 n=f4 v=37
52042 Off ch=1 n=f4 v=64
52048 Off ch=1 n=a#4 v=64
52052 Off ch=1 n=d5 v=64
52098 Par ch=1 c=64 v=0
52140 Par ch=1 c=64 v=127
52154 On ch=1 n=f5 v=57
52158 On ch=1 n=f3 v=45
52158 Par ch=1 c=64 v=0
52180 Off ch=1 n=e5 v=64
52200 Par ch=1 c=64 v=127
52245 Off ch=1 n=f3 v=64
52266 On ch=1 n=a5 v=52
52283 Off ch=1 n=f5 v=64
52291 On ch=1 n=c6 v=66
52301 On ch=1 n=d#5 v=53
52306 On ch=1 n=c5 v=41
52310 On ch=1 n=f4 v=29
52337 Off ch=1 n=f4 v=64
52338 Off ch=1 n=c5 v=64
52350 Off ch=1 n=d#5 v=64
52384 On ch=1 n=d#6 v=44
52401 Off ch=1 n=a5 v=64
52434 On ch=1 n=g6 v=65
52448 On ch=1 n=d#5 v=50
52451 Off ch=1 n=c6 v=64
52456 On ch=1 n=c5 v=48
52460 On ch=1 n=f4 v=35
52466 Off ch=1 n=d#6 v=64
52487 Off ch=1 n=f4 v=64
52488 Off ch=1 n=c5 v=64
52488 Off ch=1 n=d#5 v=64
52529 Off ch=1 n=g6 v=64
52532 On ch=1 n=f6 v=70
52556 Par ch=1 c=64 v=0
52563 Off ch=1 n=f6 v=64
52593 On ch=1 n=f6 v=72
52603 Par ch=1 c=64 v=127
52607 On ch=1 n=a#3 v=68
52613 Par ch=1 c=64 v=0
52627 On ch=1 n=d7 v=82
52651 Off ch=1 n=f6 v=64
52663 Par ch=1 c=64 v=127
52694 Off ch=1 n=a#3 v=64
52704 On ch=1 n=c7 v=64
52744 Par ch=1 c=64 v=0
52761 Off ch=1 n=d7 v=64
52776 Par ch=1 c=64 v=127
52780 On ch=1 n=a#6 v=52
52784 On ch=1 n=d5 v=53
52784 On ch=1 n=f4 v=55
52787 Off ch=1 n=c7 v=64
52788 On ch=1 n=a#4 v=60
52804 On ch=1 n=c7 v=70
52804 Par ch=1 c=64 v=0
52815 Off ch=1 n=a#6 v=64
52816 Off ch=1 n=f4 v=64
52825 Off ch=1 n=d5 v=64
52832 Off ch=1 n=a#4 v=64
52836 On ch=1 n=a#6 v=70
52836 Par ch=1 c=64 v=127
52861 Off ch=1 n=c7 v=64
52888 On ch=1 n=g6 v=68
52903 Off ch=1 n=a#6 v=64
52951 Off ch=1 n=g6 v=64
52965 On ch=1 n=f6 v=75
52965 On ch=1 n=d5 v=55
52965 On ch=1 n=a#4 v=59
52971 On ch=1 n=f4 v=47
53004 Off ch=1 n=a#4 v=64
53007 Off ch=1 n=f4 v=64
53012 Off ch=1 n=d5 v=64
53072 Par ch=1 c=64 v=0
53095 On ch=1 n=g6 v=67
53096 Par ch=1 c=64 v=127
53117 Off ch=1 n=f6 v=64
53123 On ch=1 n=a#3 v=68
53128 On ch=1 n=a#6 v=78
53132 Par ch=1 c=64 v=0
53142 Off ch=1 n=g6 v=64
53156 Par ch=1 c=64 v=127
53160 Off ch=1 n=a#6 v=64
53210 Off ch=1 n=a#3 v=64
53233 Par ch=1 c=64 v=0
53259 On ch=1 n=a#6 v=63
53291 Off ch=1 n=a#6 v=64
53291 Par ch=1 c=64 v=127
53293 Par ch=1 c=64 v=0
53303 On ch=1 n=f4 v=58
53311 On ch=1 n=a5 v=76
53311 On ch=1 n=d#5 v=63
53313 On ch=1 n=c5 v=59
53348 Par ch=1 c=64 v=127
53349 Off ch=1 n=c5 v=64
53354 Off ch=1 n=d#5 v=64
53357 Off ch=1 n=f4 v=64
53493 On ch=1 n=f4 v=55
53498 On ch=1 n=d#5 v=60
53501 On ch=1 n=c5 v=59
53524 Off ch=1 n=c5 v=64
53529 Off ch=1 n=d#5 v=64
53531 Off ch=1 n=f4 v=64
53622 Par ch=1 c=64 v=0
53634 On ch=1 n=a#5 v=66
53654 Off ch=1 n=a5 v=64
53663 On ch=1 n=d6 v=68
53671 Par ch=1 c=64 v=127
53681 Off ch=1 n=a#5 v=64
53681 On ch=1 n=a#3 v=68
53682 Par ch=1 c=64 v=0
53691 On ch=1 n=f6 v=74
53717 Off ch=1 n=f6 v=64
53717 Off ch=1 n=d6 v=64
53731 Par ch=1 c=64 v=127
53768 Off ch=1 n=a#3 v=64
53806 Par ch=1 c=64 v=0
53832 On ch=1 n=f6 v=63
53850 Par ch=1 c=64 v=127
53861 On ch=1 n=a#4 v=63
53865 On ch=1 n=e5 v=78
53865 On ch=1 n=d5 v=60
53865 On ch=1 n=f4 v=46
53866 Off ch=1 n=f6 v=64
53866 Par ch=1 c=64 v=0
53902 Off ch=1 n=f4 v=64
53904 Off ch=1 n=a#4 v=64
53907 Off ch=1 n=d5 v=64
53910 Par ch=1 c=64 v=127
54072 On ch=1 n=d5 v=60
54075 On ch=1 n=a#4 v=60
54075 On ch=1 n=f4 v=59
54104 Off ch=1 n=a#4 v=64
54115 Off ch=1 n=d5 v=64
54118 Off ch=1 n=f4 v=64
54227 Par ch=1 c=64 v=0
54264 Par ch=1 c=64 v=127
54278 On ch=1 n=f3 v=64
54281 On ch=1 n=f5 v=81
54287 Par ch=1 c=64 v=0
54301 Off ch=1 n=e5 v=64
54324 Par ch=1 c=64 v=127
54365 Off ch=1 n=f3 v=64
54425 On ch=1 n=a5 v=64
54478 Off ch=1 n=f5 v=64
54480 On ch=1 n=c6 v=63
54489 On ch=1 n=d#5 v=51
54496 On ch=1 n=f4 v=40
54519 Off ch=1 n=a5 v=64
54529 Off ch=1 n=f4 v=64
54539 Off ch=1 n=d#5 v=64
54577 On ch=1 n=d#6 v=63
54602 Off ch=1 n=c6 v=64
54676 On ch=1 n=d6 v=60
54683 On ch=1 n=d#5 v=60
54683 On ch=1 n=f4 v=58
54686 On ch=1 n=a4 v=51
54696 Off ch=1 n=d#6 v=64
54698 On ch=1 n=d#6 v=59
54708 Off ch=1 n=d6 v=64
54713 Off ch=1 n=d#5 v=64
54721 Off ch=1 n=f4 v=64
54731 On ch=1 n=d6 v=55
54733 Off ch=1 n=a4 v=64
54743 Off ch=1 n=d#6 v=64
54798 On ch=1 n=c6 v=55
54821 Off ch=1 n=d6 v=64
54870 Par ch=1 c=64 v=0
54892 Par ch=1 c=64 v=127
54914 On ch=1 n=d6 v=71
54916 On ch=1 n=a#3 v=74
54926 Off ch=1 n=c6 v=64
54930 Par ch=1 c=64 v=0
54952 Par ch=1 c=64 v=127
55028 On ch=1 n=f5 v=71
55032 Off ch=1 n=d6 v=64
55040 Off ch=1 n=a#3 v=64
55193 On ch=1 n=d5 v=74
55195 Par ch=1 c=64 v=0
55197 On ch=1 n=a#5 v=90
55197 On ch=1 n=a#3 v=59
55202 On ch=1 n=a#6 v=90
55202 On ch=1 n=f4 v=66
55234 Off ch=1 n=f5 v=64
55255 Par ch=1 c=64 v=0
55772 Par ch=1 c=64 v=127
55832 Par ch=1 c=64 v=127
56342 Par ch=1 c=64 v=0
56356 Off ch=1 n=a#3 v=64
56362 Off ch=1 n=a#5 v=64
56363 Off ch=1 n=d5 v=64
56367 Off ch=1 n=f4 v=64
56367 Off ch=1 n=a#6 v=64
56402 Par ch=1 c=64 v=0
57710 Par ch=1 c=64 v=0
57874 Par ch=1 c=64 v=127
57992 Par ch=1 c=64 v=0
58048 Par ch=1 c=64 v=127
58302 Par ch=1 c=64 v=0
58302 Meta TrkEnd
TrkEnd
MTrk
0 Meta TrkName "Played by Dr. Ron Lubetsky"
0 Meta TrkEnd
TrkEnd
MTrk
0 Meta TrkName "Jan. 23, 1"
