MFile 1 7 240
MTrk
0 TimeSig 4/4 24 8
0 Tempo 500000
0 Meta Marker "Chopin: Mazurka, Op. 7 No. 4- Presto ma non troppo"
0 Meta TrkEnd
TrkEnd
MTrk
0 Meta TrkName "Chopin: Op. 7 No. 4"
0 PrCh ch=1 p=0
0 Par ch=1 c=7 v=127
20 Par ch=1 c=64 v=127
118 Par ch=1 c=64 v=0
156 Par ch=1 c=64 v=127
245 Par ch=1 c=64 v=0
260 On ch=1 n=d#5 v=42
272 Par ch=1 c=64 v=127
288 Par ch=1 c=64 v=127
360 Par ch=1 c=64 v=0
370 Par ch=1 c=64 v=0
372 Off ch=1 n=d#5 v=64
376 On ch=1 n=d#5 v=46
376 On ch=1 n=c5 v=36
376 On ch=1 n=g#4 v=31
377 On ch=1 n=g#5 v=48
404 Par ch=1 c=64 v=127
408 Par ch=1 c=64 v=127
422 Off ch=1 n=g#4 v=64
422 Off ch=1 n=c5 v=64
422 Off ch=1 n=d#5 v=64
429 Off ch=1 n=g#5 v=64
430 On ch=1 n=a#5 v=28
466 On ch=1 n=g#5 v=49
476 Off ch=1 n=a#5 v=64
486 Par ch=1 c=64 v=0
497 Par ch=1 c=64 v=0
518 On ch=1 n=e5 v=37
518 On ch=1 n=c#5 v=36
520 On ch=1 n=g#4 v=23
521 On ch=1 n=g5 v=49
524 Off ch=1 n=g#5 v=64
538 Par ch=1 c=64 v=127
540 Par ch=1 c=64 v=127
564 Off ch=1 n=c#5 v=64
564 Off ch=1 n=e5 v=64
566 Off ch=1 n=g#4 v=64
569 On ch=1 n=g#5 v=53
588 Off ch=1 n=g5 v=64
612 Par ch=1 c=64 v=0
624 Par ch=1 c=64 v=0
632 On ch=1 n=g#4 v=22
633 On ch=1 n=a#5 v=52
633 On ch=1 n=c#5 v=29
636 On ch=1 n=e5 v=28
646 Off ch=1 n=g#5 v=64
656 Par ch=1 c=64 v=127
666 Par ch=1 c=64 v=127
678 Off ch=1 n=g#4 v=64
679 Off ch=1 n=c#5 v=64
682 Off ch=1 n=e5 v=64
692 On ch=1 n=c6 v=50
699 Off ch=1 n=a#5 v=64
738 Par ch=1 c=64 v=0
744 Par ch=1 c=64 v=0
752 On ch=1 n=a#4 v=35
752 On ch=1 n=g4 v=37
756 On ch=1 n=e5 v=44
757 On ch=1 n=c#6 v=57
778 Par ch=1 c=64 v=127
779 Off ch=1 n=c6 v=64
779 Par ch=1 c=64 v=127
790 Par ch=1 c=64 v=127
798 Off ch=1 n=g4 v=64
798 Off ch=1 n=a#4 v=64
800 On ch=1 n=d#6 v=54
802 Off ch=1 n=e5 v=64
807 Off ch=1 n=c#6 v=64
846 On ch=1 n=c#6 v=55
853 Off ch=1 n=d#6 v=64
853 Par ch=1 c=64 v=0
876 On ch=1 n=d#5 v=46
876 On ch=1 n=c5 v=41
876 On ch=1 n=g#4 v=40
876 Par ch=1 c=64 v=0
887 On ch=1 n=c6 v=54
895 Off ch=1 n=c#6 v=64
902 Par ch=1 c=64 v=127
902 Par ch=1 c=64 v=127
918 Par ch=1 c=64 v=127
922 Off ch=1 n=g#4 v=64
922 Off ch=1 n=c5 v=64
922 Off ch=1 n=d#5 v=64
931 On ch=1 n=c#6 v=57
943 Off ch=1 n=c6 v=64
993 Par ch=1 c=64 v=0
996 Par ch=1 c=64 v=0
1000 On ch=1 n=g4 v=36
1003 Off ch=1 n=c#6 v=64
1004 On ch=1 n=d#6 v=55
1004 On ch=1 n=d#5 v=48
1004 On ch=1 n=a#4 v=40
1030 Par ch=1 c=64 v=127
1031 Par ch=1 c=64 v=127
1038 Par ch=1 c=64 v=127
1046 Off ch=1 n=g4 v=64
1050 Off ch=1 n=a#4 v=64
1050 Off ch=1 n=d#5 v=64
1108 Par ch=1 c=64 v=0
1140 Off ch=1 n=d#6 v=64
1144 On ch=1 n=f5 v=44
1144 On ch=1 n=g#4 v=41
1146 On ch=1 n=c#5 v=49
1146 On ch=1 n=f4 v=46
1147 On ch=1 n=g#6 v=67
1173 Off ch=1 n=f5 v=64
1180 Off ch=1 n=f4 v=64
1182 Off ch=1 n=c#5 v=64
1183 Off ch=1 n=g#4 v=64
1184 Par ch=1 c=64 v=127
1184 Par ch=1 c=64 v=127
1202 Par ch=1 c=64 v=0
1213 Off ch=1 n=g#6 v=64
1242 On ch=1 n=c#6 v=50
1245 Par ch=1 c=64 v=127
1246 Off ch=1 n=c#6 v=64
1246 On ch=1 n=c#6 v=54
1275 Par ch=1 c=64 v=0
1294 On ch=1 n=c6 v=41
1294 On ch=1 n=g#4 v=27
1294 On ch=1 n=d#4 v=40
1296 On ch=1 n=d#5 v=40
1308 Off ch=1 n=c#6 v=64
1320 Par ch=1 c=64 v=127
1338 Par ch=1 c=64 v=0
1340 Off ch=1 n=d#4 v=64
1340 Off ch=1 n=g#4 v=64
1342 Off ch=1 n=d#5 v=64
1354 On ch=1 n=d#6 v=48
1362 Off ch=1 n=c6 v=64
1368 Par ch=1 c=64 v=127
1390 Par ch=1 c=64 v=0
1412 On ch=1 n=g#5 v=55
1412 On ch=1 n=d#5 v=37
1412 On ch=1 n=c5 v=31
1412 On ch=1 n=d#4 v=36
1420 Off ch=1 n=d#6 v=64
1435 Par ch=1 c=64 v=127
1451 Par ch=1 c=64 v=0
1458 Off ch=1 n=d#4 v=64
1458 Off ch=1 n=c5 v=64
1458 Off ch=1 n=d#5 v=64
1468 On ch=1 n=a5 v=50
1479 Off ch=1 n=g#5 v=64
1491 Par ch=1 c=64 v=127
1511 Par ch=1 c=64 v=0
1537 On ch=1 n=a#5 v=50
1537 On ch=1 n=d#5 v=40
1537 On ch=1 n=c#5 v=31
1537 On ch=1 n=d#4 v=31
1544 Off ch=1 n=a5 v=64
1554 Par ch=1 c=64 v=127
1579 Par ch=1 c=64 v=0
1583 Off ch=1 n=d#4 v=64
1583 Off ch=1 n=c#5 v=64
1583 Off ch=1 n=d#5 v=64
1593 On ch=1 n=c#6 v=55
1600 Off ch=1 n=a#5 v=64
1607 Par ch=1 c=64 v=127
1644 Par ch=1 c=64 v=0
1646 On ch=1 n=d#4 v=36
1648 On ch=1 n=d#5 v=36
1649 On ch=1 n=f5 v=55
1650 On ch=1 n=c#5 v=36
1657 Off ch=1 n=c#6 v=64
1674 Par ch=1 c=64 v=127
1692 Off ch=1 n=d#4 v=64
1692 Par ch=1 c=64 v=0
1694 Off ch=1 n=d#5 v=64
1696 Off ch=1 n=c#5 v=64
1708 On ch=1 n=g5 v=52
1717 Off ch=1 n=f5 v=64
1738 Par ch=1 c=64 v=127
1757 Par ch=1 c=64 v=0
1768 On ch=1 n=g#4 v=20
1769 On ch=1 n=g#5 v=54
1770 On ch=1 n=d#5 v=40
1770 On ch=1 n=c5 v=27
1788 Off ch=1 n=g5 v=64
1800 Par ch=1 c=64 v=127
1810 Par ch=1 c=64 v=0
1814 Off ch=1 n=g#4 v=64
1816 Off ch=1 n=c5 v=64
1816 Off ch=1 n=d#5 v=64
1841 Par ch=1 c=64 v=127
1918 Par ch=1 c=64 v=0
1926 On ch=1 n=d#5 v=41
1926 On ch=1 n=c5 v=36
1926 On ch=1 n=g#4 v=22
1938 Par ch=1 c=64 v=0
1949 Par ch=1 c=64 v=127
1968 Par ch=1 c=64 v=127
1968 On ch=1 n=a#5 v=44
1972 Off ch=1 n=g#4 v=64
1972 Off ch=1 n=c5 v=64
1972 Off ch=1 n=d#5 v=64
1987 Off ch=1 n=g#5 v=64
2004 On ch=1 n=g#5 v=58
2024 Off ch=1 n=a#5 v=64
2034 Par ch=1 c=64 v=0
2043 Par ch=1 c=64 v=0
2046 On ch=1 n=e5 v=36
2046 On ch=1 n=g#4 v=31
2048 On ch=1 n=g5 v=53
2050 On ch=1 n=c#5 v=28
2052 Off ch=1 n=g#5 v=64
2072 Par ch=1 c=64 v=127
2080 Par ch=1 c=64 v=127
2092 Off ch=1 n=g#4 v=64
2092 Off ch=1 n=e5 v=64
2096 Off ch=1 n=c#5 v=64
2110 On ch=1 n=g#5 v=55
2120 Off ch=1 n=g5 v=64
2149 Par ch=1 c=64 v=0
2165 Par ch=1 c=64 v=0
2165 On ch=1 n=c#5 v=41
2167 On ch=1 n=a#5 v=44
2167 On ch=1 n=e5 v=40
2167 On ch=1 n=g#4 v=40
2176 Off ch=1 n=g#5 v=64
2180 Par ch=1 c=64 v=127
2194 Par ch=1 c=64 v=127
2211 Off ch=1 n=c#5 v=64
2213 Off ch=1 n=g#4 v=64
2213 Off ch=1 n=e5 v=64
2213 On ch=1 n=c6 v=55
2239 Off ch=1 n=a#5 v=64
2263 Par ch=1 c=64 v=127
2272 On ch=1 n=c#6 v=53
2277 On ch=1 n=g4 v=41
2277 Par ch=1 c=64 v=0
2279 On ch=1 n=e5 v=44
2279 On ch=1 n=a#4 v=44
2289 Par ch=1 c=64 v=0
2294 Off ch=1 n=c6 v=64
2304 Par ch=1 c=64 v=127
2316 On ch=1 n=d#6 v=55
2320 Off ch=1 n=g4 v=64
2322 Off ch=1 n=a#4 v=64
2322 Off ch=1 n=e5 v=64
2323 Off ch=1 n=c#6 v=64
2337 Par ch=1 c=64 v=127
2352 On ch=1 n=c#6 v=52
2366 Off ch=1 n=d#6 v=64
2376 Par ch=1 c=64 v=0
2394 On ch=1 n=c6 v=53
2395 On ch=1 n=d#5 v=39
2395 On ch=1 n=c5 v=46
2397 On ch=1 n=g#4 v=49
2405 Par ch=1 c=64 v=127
2407 Off ch=1 n=c#6 v=64
2439 On ch=1 n=c#6 v=61
2441 Off ch=1 n=c5 v=64
2441 Off ch=1 n=d#5 v=64
2443 Off ch=1 n=g#4 v=64
2446 Off ch=1 n=c6 v=64
2446 Par ch=1 c=64 v=0
2491 On ch=1 n=d6 v=55
2495 On ch=1 n=d#5 v=41
2495 On ch=1 n=a#4 v=36
2495 On ch=1 n=g4 v=44
2498 Par ch=1 c=64 v=127
2501 Par ch=1 c=64 v=0
2505 Off ch=1 n=c#6 v=64
2530 Par ch=1 c=64 v=127
2541 Off ch=1 n=g4 v=64
2541 Off ch=1 n=a#4 v=64
2541 Off ch=1 n=d#5 v=64
2544 On ch=1 n=d#6 v=63
2565 Off ch=1 n=d6 v=64
2568 Par ch=1 c=64 v=0
2569 Off ch=1 n=d#6 v=64
2591 Par ch=1 c=64 v=127
2599 Par ch=1 c=64 v=127
2613 On ch=1 n=d#6 v=62
2625 Par ch=1 c=64 v=0
2653 On ch=1 n=f4 v=46
2655 On ch=1 n=f5 v=24
2655 On ch=1 n=c#5 v=36
2658 On ch=1 n=g#6 v=67
2667 Off ch=1 n=d#6 v=64
2676 Par ch=1 c=64 v=127
2691 Par ch=1 c=64 v=0
2699 Off ch=1 n=f4 v=64
2701 Off ch=1 n=c#5 v=64
2701 Off ch=1 n=f5 v=64
2709 Off ch=1 n=g#6 v=64
2734 Par ch=1 c=64 v=127
2766 On ch=1 n=c#6 v=54
2788 Par ch=1 c=64 v=0
2821 On ch=1 n=g#4 v=32
2821 On ch=1 n=d#4 v=28
2822 On ch=1 n=d#5 v=36
2824 On ch=1 n=c6 v=46
2827 Par ch=1 c=64 v=0
2836 Off ch=1 n=c#6 v=64
2840 Par ch=1 c=64 v=127
2843 Par ch=1 c=64 v=127
2867 Off ch=1 n=d#4 v=64
2867 Off ch=1 n=g#4 v=64
2868 Off ch=1 n=d#5 v=64
2873 On ch=1 n=d#6 v=42
2882 Off ch=1 n=c6 v=64
2910 Par ch=1 c=64 v=0
2933 Par ch=1 c=64 v=127
2935 On ch=1 n=g#5 v=55
2935 On ch=1 n=d#5 v=40
2935 On ch=1 n=c5 v=36
2935 On ch=1 n=d#4 v=36
2938 Par ch=1 c=64 v=0
2941 Off ch=1 n=d#6 v=64
2981 Off ch=1 n=d#4 v=64
2981 Off ch=1 n=c5 v=64
2981 Off ch=1 n=d#5 v=64
2989 Par ch=1 c=64 v=127
2997 On ch=1 n=a5 v=49
3001 Off ch=1 n=g#5 v=64
3033 Par ch=1 c=64 v=0
3055 On ch=1 n=d#5 v=41
3055 On ch=1 n=c#5 v=28
3055 On ch=1 n=d#4 v=36
3056 On ch=1 n=a#5 v=49
3061 Off ch=1 n=a5 v=64
3076 Par ch=1 c=64 v=127
3101 Off ch=1 n=d#4 v=64
3101 Off ch=1 n=c#5 v=64
3101 Off ch=1 n=d#5 v=64
3119 On ch=1 n=c#6 v=50
3126 Off ch=1 n=a#5 v=64
3148 Par ch=1 c=64 v=0
3167 On ch=1 n=d#5 v=36
3167 On ch=1 n=c#5 v=36
3167 On ch=1 n=d#4 v=36
3169 On ch=1 n=f5 v=50
3169 Par ch=1 c=64 v=0
3175 Off ch=1 n=c#6 v=64
3185 Par ch=1 c=64 v=127
3202 Par ch=1 c=64 v=127
3213 Off ch=1 n=d#4 v=64
3213 Off ch=1 n=c#5 v=64
3213 Off ch=1 n=d#5 v=64
3234 On ch=1 n=g5 v=48
3249 Off ch=1 n=f5 v=64
3280 Par ch=1 c=64 v=0
3290 On ch=1 n=g#5 v=54
3291 Par ch=1 c=64 v=0
3292 On ch=1 n=d#5 v=40
3292 On ch=1 n=c5 v=36
3292 On ch=1 n=g#4 v=36
3313 Off ch=1 n=g5 v=64
3328 Par ch=1 c=64 v=127
3336 Par ch=1 c=64 v=127
3338 Off ch=1 n=g#4 v=64
3338 Off ch=1 n=c5 v=64
3338 Off ch=1 n=d#5 v=64
3346 Off ch=1 n=g#5 v=64
3405 Par ch=1 c=64 v=0
3436 Par ch=1 c=64 v=127
3452 On ch=1 n=b5 v=41
3487 Par ch=1 c=64 v=0
3492 On ch=1 n=c4 v=58
3497 On ch=1 n=c6 v=57
3509 Off ch=1 n=b5 v=64
3536 Par ch=1 c=64 v=0
3541 Par ch=1 c=64 v=127
3572 Par ch=1 c=64 v=127
3633 Off ch=1 n=c4 v=64
3633 Par ch=1 c=64 v=0
3638 On ch=1 n=g4 v=31
3639 On ch=1 n=c7 v=65
3640 On ch=1 n=e5 v=36
3640 On ch=1 n=c5 v=39
3647 Off ch=1 n=c6 v=64
3662 Par ch=1 c=64 v=0
3678 Par ch=1 c=64 v=127
3684 Off ch=1 n=g4 v=64
3686 Off ch=1 n=c5 v=64
3686 Off ch=1 n=e5 v=64
3694 Par ch=1 c=64 v=127
3715 Off ch=1 n=c7 v=64
3725 On ch=1 n=a#6 v=54
3744 Par ch=1 c=64 v=0
3755 On ch=1 n=f5 v=48
3758 On ch=1 n=g#6 v=66
3758 On ch=1 n=f4 v=46
3759 On ch=1 n=c5 v=46
3769 Off ch=1 n=a#6 v=64
3772 Par ch=1 c=64 v=0
3775 Par ch=1 c=64 v=127
3801 Off ch=1 n=f5 v=64
3804 Off ch=1 n=f4 v=64
3805 Off ch=1 n=c5 v=64
3816 Par ch=1 c=64 v=127
3875 Par ch=1 c=64 v=0
3885 On ch=1 n=b4 v=40
3885 On ch=1 n=g4 v=46
3888 On ch=1 n=f5 v=46
3907 Par ch=1 c=64 v=0
3911 Par ch=1 c=64 v=127
3931 Off ch=1 n=g4 v=64
3931 Off ch=1 n=b4 v=64
3934 Off ch=1 n=f5 v=64
3939 Par ch=1 c=64 v=127
3942 On ch=1 n=g6 v=49
3951 Off ch=1 n=g#6 v=64
3975 On ch=1 n=a#6 v=55
3984 Off ch=1 n=g6 v=64
4001 Par ch=1 c=64 v=0
4007 On ch=1 n=g#6 v=74
4009 On ch=1 n=f5 v=42
4009 On ch=1 n=b4 v=44
4009 On ch=1 n=g4 v=42
4021 Par ch=1 c=64 v=0
4033 Off ch=1 n=a#6 v=64
4033 Par ch=1 c=64 v=127
4055 Off ch=1 n=g4 v=64
4055 Off ch=1 n=b4 v=64
4055 Off ch=1 n=f5 v=64
4059 On ch=1 n=g6 v=59
4076 Par ch=1 c=64 v=127
4081 Off ch=1 n=g#6 v=64
4114 Par ch=1 c=64 v=0
4128 On ch=1 n=d6 v=50
4131 On ch=1 n=b4 v=44
4131 On ch=1 n=g4 v=42
4135 On ch=1 n=f5 v=45
4143 Off ch=1 n=g6 v=64
4148 Par ch=1 c=64 v=0
4158 Par ch=1 c=64 v=127
4177 Off ch=1 n=g4 v=64
4177 Off ch=1 n=b4 v=64
4181 Off ch=1 n=f5 v=64
4189 Par ch=1 c=64 v=127
4225 Off ch=1 n=d6 v=64
4249 Par ch=1 c=64 v=0
4253 On ch=1 n=g#4 v=45
4255 On ch=1 n=c6 v=59
4255 On ch=1 n=c5 v=41
4258 On ch=1 n=d#5 v=49
4279 Par ch=1 c=64 v=0
4281 Par ch=1 c=64 v=127
4287 Off ch=1 n=c6 v=64
4299 Off ch=1 n=g#4 v=64
4301 Off ch=1 n=c5 v=64
4304 Off ch=1 n=d#5 v=64
4318 Par ch=1 c=64 v=127
4327 On ch=1 n=c6 v=58
4363 Par ch=1 c=64 v=0
4379 On ch=1 n=c7 v=66
4379 On ch=1 n=g4 v=45
4383 On ch=1 n=e5 v=39
4383 On ch=1 n=c5 v=35
4413 Par ch=1 c=64 v=0
4418 Par ch=1 c=64 v=127
4425 Off ch=1 n=g4 v=64
4429 Off ch=1 n=c5 v=64
4429 Off ch=1 n=e5 v=64
4434 Par ch=1 c=64 v=127
4439 Off ch=1 n=c6 v=64
4461 Off ch=1 n=c7 v=64
4477 On ch=1 n=a#6 v=58
4487 Par ch=1 c=64 v=0
4498 On ch=1 n=g#6 v=62
4498 On ch=1 n=f4 v=45
4500 On ch=1 n=f5 v=44
4500 On ch=1 n=c5 v=42
4518 Off ch=1 n=a#6 v=64
4522 Par ch=1 c=64 v=0
4528 Par ch=1 c=64 v=127
4544 Off ch=1 n=f4 v=64
4546 Off ch=1 n=c5 v=64
4546 Off ch=1 n=f5 v=64
4565 Par ch=1 c=64 v=127
4618 Par ch=1 c=64 v=0
4630 On ch=1 n=f5 v=46
4630 On ch=1 n=g4 v=45
4632 On ch=1 n=b4 v=49
4657 Par ch=1 c=64 v=127
4665 Off ch=1 n=g#6 v=64
4669 Par ch=1 c=64 v=0
4676 Off ch=1 n=g4 v=64
4676 Off ch=1 n=f5 v=64
4678 Off ch=1 n=b4 v=64
4685 Par ch=1 c=64 v=127
4688 On ch=1 n=g6 v=50
4724 On ch=1 n=a#6 v=61
4728 Off ch=1 n=g6 v=64
4750 On ch=1 n=g#6 v=58
4752 On ch=1 n=b4 v=45
4752 On ch=1 n=g4 v=40
4752 Par ch=1 c=64 v=0
4754 On ch=1 n=f5 v=39
4773 Par ch=1 c=64 v=127
4775 Par ch=1 c=64 v=0
4780 Off ch=1 n=a#6 v=64
4798 Off ch=1 n=g4 v=64
4798 Off ch=1 n=b4 v=64
4800 Off ch=1 n=f5 v=64
4814 Par ch=1 c=64 v=127
4819 Off ch=1 n=g#6 v=64
4840 On ch=1 n=g6 v=49
4864 Par ch=1 c=64 v=0
4872 On ch=1 n=g4 v=42
4877 On ch=1 n=d6 v=58
4877 On ch=1 n=f5 v=46
4880 Off ch=1 n=g6 v=64
4907 Par ch=1 c=64 v=127
4909 Par ch=1 c=64 v=0
4918 Off ch=1 n=g4 v=64
4923 Off ch=1 n=f5 v=64
4939 Par ch=1 c=64 v=127
4998 Off ch=1 n=d6 v=64
4998 On ch=1 n=d#5 v=32
4998 On ch=1 n=g#4 v=28
4999 On ch=1 n=c6 v=42
4999 On ch=1 n=c5 v=26
5011 Par ch=1 c=64 v=0
5027 Par ch=1 c=64 v=127
5044 Off ch=1 n=g#4 v=64
5044 Off ch=1 n=d#5 v=64
5045 Off ch=1 n=c5 v=64
5045 Par ch=1 c=64 v=0
5057 Par ch=1 c=64 v=127
5078 Par ch=1 c=64 v=127
5117 Par ch=1 c=64 v=0
5123 On ch=1 n=c#6 v=40
5130 On ch=1 n=f4 v=33
5132 On ch=1 n=c#5 v=36
5132 On ch=1 n=g#4 v=24
5133 Off ch=1 n=c6 v=64
5156 Par ch=1 c=64 v=127
5176 Off ch=1 n=f4 v=64
5177 Par ch=1 c=64 v=0
5178 Off ch=1 n=g#4 v=64
5178 Off ch=1 n=c#5 v=64
5206 Par ch=1 c=64 v=127
5212 Off ch=1 n=c#6 v=64
5220 On ch=1 n=f6 v=33
5251 Par ch=1 c=64 v=0
5258 On ch=1 n=c6 v=44
5258 On ch=1 n=f4 v=28
5260 On ch=1 n=d5 v=36
5260 On ch=1 n=g#4 v=35
5264 Off ch=1 n=f6 v=64
5281 Par ch=1 c=64 v=127
5298 Par ch=1 c=64 v=0
5304 Off ch=1 n=f4 v=64
5306 Off ch=1 n=g#4 v=64
5306 Off ch=1 n=d5 v=64
5343 Par ch=1 c=64 v=127
5376 On ch=1 n=g4 v=28
5378 On ch=1 n=f5 v=28
5378 On ch=1 n=d5 v=36
5379 On ch=1 n=b5 v=41
5380 On ch=1 n=d5 v=24
5387 Par ch=1 c=64 v=0
5395 Off ch=1 n=c6 v=64
5399 Par ch=1 c=64 v=127
5420 Par ch=1 c=64 v=127
5422 Off ch=1 n=g4 v=64
5424 Off ch=1 n=d5 v=64
5424 Off ch=1 n=f5 v=64
5426 Off ch=1 n=d5 v=64
5446 Par ch=1 c=64 v=0
5461 Off ch=1 n=b5 v=64
5468 Par ch=1 c=64 v=127
5480 On ch=1 n=g5 v=37
5516 On ch=1 n=f5 v=31
5518 On ch=1 n=b5 v=41
5518 On ch=1 n=d5 v=28
5518 On ch=1 n=g4 v=33
5519 Par ch=1 c=64 v=0
5526 Off ch=1 n=g5 v=64
5548 Par ch=1 c=64 v=127
5562 Off ch=1 n=f5 v=64
5564 Off ch=1 n=g4 v=64
5564 Off ch=1 n=d5 v=64
5584 On ch=1 n=d6 v=39
5596 Par ch=1 c=64 v=0
5598 Off ch=1 n=b5 v=64
5622 Par ch=1 c=64 v=127
5640 Par ch=1 c=64 v=0
5656 On ch=1 n=d#5 v=28
5657 On ch=1 n=c6 v=39
5658 On ch=1 n=c5 v=32
5660 Off ch=1 n=d6 v=64
5685 Par ch=1 c=64 v=127
5704 Off ch=1 n=c5 v=64
5710 Par ch=1 c=64 v=0
5743 Par ch=1 c=64 v=127
5782 On ch=1 n=g#4 v=33
5783 On ch=1 n=c5 v=33
5788 Par ch=1 c=64 v=0
5810 Par ch=1 c=64 v=127
5828 Off ch=1 n=g#4 v=64
5829 Off ch=1 n=c5 v=64
5849 Off ch=1 n=d#5 v=64
5876 Par ch=1 c=64 v=0
5901 Par ch=1 c=64 v=127
5922 On ch=1 n=c#5 v=36
5924 On ch=1 n=c#6 v=44
5924 On ch=1 n=g#4 v=33
5924 On ch=1 n=f4 v=33
5938 Par ch=1 c=64 v=0
5952 Off ch=1 n=c6 v=64
5964 Par ch=1 c=64 v=127
5970 Off ch=1 n=f4 v=64
5970 Off ch=1 n=g#4 v=64
6006 Off ch=1 n=c#6 v=64
6007 On ch=1 n=f6 v=39
6045 Par ch=1 c=64 v=0
6052 Par ch=1 c=64 v=0
6060 On ch=1 n=f4 v=33
6062 On ch=1 n=c6 v=42
6062 On ch=1 n=d5 v=33
6062 On ch=1 n=g#4 v=35
6067 Off ch=1 n=c#5 v=64
6068 Par ch=1 c=64 v=127
6085 Par ch=1 c=64 v=127
6088 Off ch=1 n=f6 v=64
6106 Off ch=1 n=f4 v=64
6108 Off ch=1 n=g#4 v=64
6212 On ch=1 n=a#4 v=39
6212 On ch=1 n=g4 v=37
6218 Par ch=1 c=64 v=0
6233 Par ch=1 c=64 v=0
6243 Par ch=1 c=64 v=127
6260 Off ch=1 n=g4 v=64
6277 Par ch=1 c=64 v=127
6279 Off ch=1 n=a#4 v=64
6376 On ch=1 n=a#4 v=39
6377 On ch=1 n=d#5 v=40
6377 On ch=1 n=g4 v=36
6384 Off ch=1 n=d5 v=64
6387 Par ch=1 c=64 v=0
6410 Par ch=1 c=64 v=127
6413 Par ch=1 c=64 v=0
6443 Par ch=1 c=64 v=127
6451 Off ch=1 n=a#4 v=64
6452 Off ch=1 n=g4 v=64
6477 On ch=1 n=a#5 v=53
6489 Off ch=1 n=c6 v=64
6526 Par ch=1 c=64 v=0
6554 On ch=1 n=e5 v=36
6556 On ch=1 n=c#5 v=32
6556 On ch=1 n=g4 v=32
6557 On ch=1 n=c6 v=50
6568 Off ch=1 n=a#5 v=64
6571 Par ch=1 c=64 v=127
6575 Par ch=1 c=64 v=0
6578 Off ch=1 n=d#5 v=64
6619 Par ch=1 c=64 v=127
6623 Off ch=1 n=c#5 v=64
6634 Off ch=1 n=g4 v=64
6650 Par ch=1 c=64 v=0
6679 Par ch=1 c=64 v=127
6684 On ch=1 n=a#5 v=54
6702 Off ch=1 n=c6 v=64
6755 Par ch=1 c=64 v=0
6761 Off ch=1 n=e5 v=64
6766 On ch=1 n=c5 v=33
6766 On ch=1 n=g#4 v=24
6768 On ch=1 n=g#5 v=52
6768 On ch=1 n=d#5 v=35
6774 Off ch=1 n=a#5 v=64
6777 Par ch=1 c=64 v=0
6785 Par ch=1 c=64 v=127
6796 On ch=1 n=a#5 v=49
6806 Off ch=1 n=g#5 v=64
6809 Off ch=1 n=g#4 v=64
6809 Off ch=1 n=c5 v=64
6811 Off ch=1 n=d#5 v=64
6813 Par ch=1 c=64 v=127
6841 On ch=1 n=g#5 v=48
6851 Off ch=1 n=a#5 v=64
6865 Par ch=1 c=64 v=0
6887 On ch=1 n=c#5 v=18
6887 On ch=1 n=g#4 v=23
6888 On ch=1 n=g5 v=46
6889 On ch=1 n=e5 v=35
6896 Par ch=1 c=64 v=0
6910 Par ch=1 c=64 v=127
6911 Off ch=1 n=g#5 v=64
6912 Par ch=1 c=64 v=127
6933 Off ch=1 n=g#4 v=64
6933 Off ch=1 n=c#5 v=64
6935 Off ch=1 n=e5 v=64
6936 Par ch=1 c=64 v=127
6943 On ch=1 n=g#5 v=53
6963 Off ch=1 n=g5 v=64
6989 Par ch=1 c=64 v=0
7003 On ch=1 n=e5 v=37
7003 On ch=1 n=c#5 v=37
7003 On ch=1 n=g#4 v=36
7004 On ch=1 n=a#5 v=55
7018 Off ch=1 n=g#5 v=64
7018 Par ch=1 c=64 v=127
7049 Off ch=1 n=g#4 v=64
7049 Off ch=1 n=c#5 v=64
7049 Off ch=1 n=e5 v=64
7064 On ch=1 n=c6 v=49
7070 Off ch=1 n=a#5 v=64
7116 Par ch=1 c=64 v=0
7121 On ch=1 n=g4 v=40
7123 On ch=1 n=c#6 v=55
7123 On ch=1 n=e5 v=42
7123 On ch=1 n=a#4 v=40
7137 Off ch=1 n=c6 v=64
7144 Par ch=1 c=64 v=0
7155 Par ch=1 c=64 v=127
7163 On ch=1 n=d#6 v=53
7167 Off ch=1 n=g4 v=64
7169 Off ch=1 n=a#4 v=64
7169 Off ch=1 n=e5 v=64
7172 Off ch=1 n=c#6 v=64
7183 Par ch=1 c=64 v=127
7207 On ch=1 n=c#6 v=52
7212 Off ch=1 n=d#6 v=64
7238 Par ch=1 c=64 v=0
7254 On ch=1 n=c6 v=55
7254 Par ch=1 c=64 v=127
7255 On ch=1 n=c5 v=45
7255 On ch=1 n=g#4 v=36
7257 On ch=1 n=d#5 v=44
7257 On ch=1 n=g#4 v=42
7258 Off ch=1 n=c#6 v=64
7272 Par ch=1 c=64 v=0
7278 Par ch=1 c=64 v=127
7300 On ch=1 n=c#6 v=55
7301 Off ch=1 n=g#4 v=64
7301 Off ch=1 n=c5 v=64
7303 Off ch=1 n=g#4 v=64
7303 Off ch=1 n=d#5 v=64
7310 Off ch=1 n=c6 v=64
7318 Par ch=1 c=64 v=127
7369 On ch=1 n=d#6 v=53
7369 On ch=1 n=d#5 v=40
7371 On ch=1 n=a#4 v=35
7371 On ch=1 n=g4 v=28
7380 Off ch=1 n=c#6 v=64
7389 Par ch=1 c=64 v=0
7405 Par ch=1 c=64 v=127
7415 Off ch=1 n=d#5 v=64
7417 Off ch=1 n=g4 v=64
7417 Off ch=1 n=a#4 v=64
7486 Par ch=1 c=64 v=0
7496 On ch=1 n=f5 v=48
7496 On ch=1 n=c#5 v=49
7496 On ch=1 n=f4 v=42
7499 On ch=1 n=g#6 v=72
7502 Par ch=1 c=64 v=0
7513 Off ch=1 n=d#6 v=64
7522 Par ch=1 c=64 v=127
7542 Off ch=1 n=f4 v=64
7542 Off ch=1 n=c#5 v=64
7542 Off ch=1 n=f5 v=64
7546 Par ch=1 c=64 v=127
7564 Off ch=1 n=g#6 v=64
7590 On ch=1 n=c#6 v=58
7611 Par ch=1 c=64 v=0
7626 Par ch=1 c=64 v=0
7642 On ch=1 n=d#4 v=44
7644 On ch=1 n=c6 v=55
7644 On ch=1 n=d#5 v=48
7644 On ch=1 n=g#4 v=15
7654 Off ch=1 n=c#6 v=64
7654 Par ch=1 c=64 v=127
7659 Par ch=1 c=64 v=127
7685 Off ch=1 n=d#4 v=64
7686 On ch=1 n=d#6 v=49
7687 Off ch=1 n=g#4 v=64
7687 Off ch=1 n=d#5 v=64
7692 Off ch=1 n=c6 v=64
7725 Par ch=1 c=64 v=0
7741 Par ch=1 c=64 v=127
7750 Par ch=1 c=64 v=0
7753 On ch=1 n=d#5 v=44
7753 On ch=1 n=c5 v=43
7755 On ch=1 n=g#5 v=55
7755 On ch=1 n=d#4 v=39
7764 Off ch=1 n=d#6 v=64
7790 Par ch=1 c=64 v=127
7799 Off ch=1 n=c5 v=64
7799 Off ch=1 n=d#5 v=64
7801 Off ch=1 n=d#4 v=64
7801 On ch=1 n=a5 v=46
7817 Off ch=1 n=g#5 v=64
7841 Par ch=1 c=64 v=0
7859 On ch=1 n=a#5 v=55
7861 On ch=1 n=d#5 v=49
7861 On ch=1 n=c#5 v=44
7861 On ch=1 n=d#4 v=42
7867 Off ch=1 n=a5 v=64
7878 Par ch=1 c=64 v=0
7885 Par ch=1 c=64 v=127
7895 Par ch=1 c=64 v=127
7907 Off ch=1 n=d#4 v=64
7907 Off ch=1 n=c#5 v=64
7907 Off ch=1 n=d#5 v=64
7912 Par ch=1 c=64 v=127
7914 On ch=1 n=c#6 v=61
7925 Off ch=1 n=a#5 v=64
7965 Par ch=1 c=64 v=0
7969 On ch=1 n=d#5 v=37
7971 On ch=1 n=f5 v=57
7971 On ch=1 n=c#5 v=40
7973 On ch=1 n=d#4 v=36
7982 Off ch=1 n=c#6 v=64
7986 Par ch=1 c=64 v=0
8001 Par ch=1 c=64 v=127
8011 Off ch=1 n=c#5 v=64
8012 Off ch=1 n=d#5 v=64
8016 Off ch=1 n=d#4 v=64
8022 Par ch=1 c=64 v=127
8023 On ch=1 n=g5 v=54
8037 Off ch=1 n=f5 v=64
8082 On ch=1 n=d#5 v=45
8086 On ch=1 n=c5 v=48
8088 On ch=1 n=g#4 v=27
8089 On ch=1 n=g#5 v=58
8089 Par ch=1 c=64 v=0
8091 Par ch=1 c=64 v=0
8101 Par ch=1 c=64 v=127
8105 Off ch=1 n=g5 v=64
8125 Off ch=1 n=d#5 v=64
8126 Par ch=1 c=64 v=127
8129 Off ch=1 n=c5 v=64
8131 Off ch=1 n=g#4 v=64
8225 Par ch=1 c=64 v=127
8227 On ch=1 n=d#5 v=35
8227 On ch=1 n=c5 v=29
8231 On ch=1 n=g#4 v=31
8241 Par ch=1 c=64 v=0
8258 Par ch=1 c=64 v=127
8270 Off ch=1 n=c5 v=64
8270 Off ch=1 n=d#5 v=64
8274 Off ch=1 n=g#4 v=64
8275 Par ch=1 c=64 v=127
8297 On ch=1 n=a#5 v=29
8309 Off ch=1 n=g#5 v=64
8316 Par ch=1 c=64 v=0
8326 On ch=1 n=g#5 v=47
8333 Par ch=1 c=64 v=127
8340 Off ch=1 n=a#5 v=64
8349 Par ch=1 c=64 v=0
8356 On ch=1 n=e5 v=45
8358 On ch=1 n=c#5 v=48
8358 On ch=1 n=g#4 v=36
8364 On ch=1 n=g5 v=54
8376 Off ch=1 n=g#5 v=64
8388 Par ch=1 c=64 v=127
8402 Off ch=1 n=e5 v=64
8404 Off ch=1 n=g#4 v=64
8404 Off ch=1 n=c#5 v=64
8435 Off ch=1 n=g5 v=64
8457 Par ch=1 c=64 v=0
8460 On ch=1 n=g#5 v=48
8470 Par ch=1 c=64 v=127
8476 On ch=1 n=a#5 v=41
8480 On ch=1 n=e5 v=29
8480 On ch=1 n=c#5 v=36
8480 On ch=1 n=g#4 v=33
8490 Off ch=1 n=g#5 v=64
8526 Off ch=1 n=g#4 v=64
8526 Off ch=1 n=c#5 v=64
8526 Off ch=1 n=e5 v=64
8541 On ch=1 n=c6 v=47
8546 Off ch=1 n=a#5 v=64
8562 Par ch=1 c=64 v=0
8584 On ch=1 n=e5 v=52
8584 On ch=1 n=a#4 v=46
8584 On ch=1 n=g4 v=48
8584 Par ch=1 c=64 v=0
8595 On ch=1 n=c#6 v=55
8614 Off ch=1 n=c6 v=64
8617 Par ch=1 c=64 v=127
8624 Par ch=1 c=64 v=127
8630 Off ch=1 n=g4 v=64
8630 Off ch=1 n=a#4 v=64
8630 Off ch=1 n=e5 v=64
8636 On ch=1 n=d#6 v=55
8646 Off ch=1 n=c#6 v=64
8675 On ch=1 n=c#6 v=47
8680 Off ch=1 n=d#6 v=64
8702 Par ch=1 c=64 v=0
8706 On ch=1 n=d#5 v=41
8706 On ch=1 n=c5 v=36
8706 On ch=1 n=g#4 v=36
8711 On ch=1 n=c6 v=55
8718 Par ch=1 c=64 v=0
8724 Off ch=1 n=c#6 v=64
8735 Par ch=1 c=64 v=127
8745 Par ch=1 c=64 v=127
8752 Off ch=1 n=g#4 v=64
8752 Off ch=1 n=c5 v=64
8752 Off ch=1 n=d#5 v=64
8761 Off ch=1 n=c6 v=64
8764 On ch=1 n=c#6 v=50
8774 Off ch=1 n=c#6 v=64
8784 On ch=1 n=c#6 v=52
8802 Off ch=1 n=c#6 v=64
8808 On ch=1 n=d6 v=51
8812 On ch=1 n=d#5 v=40
8812 On ch=1 n=c5 v=33
8812 On ch=1 n=g#4 v=35
8826 Par ch=1 c=64 v=0
8840 Par ch=1 c=64 v=127
8847 On ch=1 n=d#6 v=67
8858 Off ch=1 n=g#4 v=64
8858 Off ch=1 n=c5 v=64
8858 Off ch=1 n=d#5 v=64
8869 Off ch=1 n=d6 v=64
8872 Off ch=1 n=d#6 v=64
8910 On ch=1 n=d#6 v=58
8951 Par ch=1 c=64 v=0
8954 On ch=1 n=g#6 v=62
8954 On ch=1 n=c#5 v=48
8954 On ch=1 n=g#4 v=55
8954 On ch=1 n=f4 v=49
8956 On ch=1 n=f5 v=40
8964 Par ch=1 c=64 v=0
8970 Off ch=1 n=d#6 v=64
8981 Par ch=1 c=64 v=127
9010 Off ch=1 n=f5 v=64
9019 Off ch=1 n=c#5 v=64
9019 Par ch=1 c=64 v=127
9035 Off ch=1 n=f4 v=64
9042 Off ch=1 n=g#6 v=64
9043 Off ch=1 n=g#4 v=64
9073 On ch=1 n=c#6 v=58
9104 Par ch=1 c=64 v=0
9118 On ch=1 n=c6 v=53
9122 On ch=1 n=d#5 v=45
9124 On ch=1 n=g#4 v=32
9124 On ch=1 n=d#4 v=40
9127 Off ch=1 n=c#6 v=64
9147 Par ch=1 c=64 v=127
9168 Off ch=1 n=d#5 v=64
9170 Off ch=1 n=d#4 v=64
9170 Off ch=1 n=g#4 v=64
9180 Par ch=1 c=64 v=0
9180 On ch=1 n=d#6 v=48
9187 Off ch=1 n=c6 v=64
9225 Par ch=1 c=64 v=0
9234 Par ch=1 c=64 v=127
9239 Par ch=1 c=64 v=127
9245 On ch=1 n=g#5 v=65
9245 On ch=1 n=d#5 v=44
9247 On ch=1 n=c5 v=40
9247 On ch=1 n=d#4 v=36
9256 Off ch=1 n=d#6 v=64
9291 Off ch=1 n=d#5 v=64
9293 Off ch=1 n=d#4 v=64
9293 Off ch=1 n=c5 v=64
9298 On ch=1 n=a5 v=46
9305 Off ch=1 n=g#5 v=64
9350 Par ch=1 c=64 v=0
9357 On ch=1 n=d#5 v=45
9359 On ch=1 n=c#5 v=40
9360 On ch=1 n=a#5 v=58
9361 On ch=1 n=d#4 v=44
9376 Off ch=1 n=a5 v=64
9378 Par ch=1 c=64 v=0
9380 Par ch=1 c=64 v=127
9403 Off ch=1 n=d#5 v=64
9405 Off ch=1 n=c#5 v=64
9407 Off ch=1 n=d#4 v=64
9428 On ch=1 n=c#6 v=59
9430 Par ch=1 c=64 v=127
9435 Off ch=1 n=a#5 v=64
9483 On ch=1 n=d#5 v=41
9483 On ch=1 n=d#4 v=37
9485 On ch=1 n=f5 v=58
9485 On ch=1 n=c#5 v=36
9502 Off ch=1 n=c#6 v=64
9505 Par ch=1 c=64 v=0
9529 Off ch=1 n=d#4 v=64
9529 Off ch=1 n=d#5 v=64
9531 Off ch=1 n=c#5 v=64
9548 Par ch=1 c=64 v=127
9558 On ch=1 n=g5 v=54
9570 Off ch=1 n=f5 v=64
9579 Par ch=1 c=64 v=0
9614 On ch=1 n=d#5 v=49
9614 On ch=1 n=c5 v=48
9614 On ch=1 n=g#4 v=36
9615 On ch=1 n=g#5 v=65
9633 Par ch=1 c=64 v=127
9638 Off ch=1 n=g5 v=64
9645 Par ch=1 c=64 v=0
9660 Off ch=1 n=g#4 v=64
9660 Off ch=1 n=c5 v=64
9660 Off ch=1 n=d#5 v=64
9675 Par ch=1 c=64 v=127
9715 Off ch=1 n=g#5 v=64
9753 Par ch=1 c=64 v=0
9780 Par ch=1 c=64 v=127
9837 Par ch=1 c=64 v=0
9847 On ch=1 n=c6 v=58
9847 On ch=1 n=c4 v=58
9872 Par ch=1 c=64 v=0
9889 Par ch=1 c=64 v=127
9907 Par ch=1 c=64 v=127
9964 Par ch=1 c=64 v=0
9976 On ch=1 n=c7 v=49
9976 On ch=1 n=e5 v=36
9976 On ch=1 n=c5 v=24
9978 On ch=1 n=g4 v=36
9987 Par ch=1 c=64 v=0
9994 Off ch=1 n=c4 v=64
10004 Par ch=1 c=64 v=127
10019 Off ch=1 n=c5 v=64
10019 Off ch=1 n=e5 v=64
10021 Off ch=1 n=g4 v=64
10026 Par ch=1 c=64 v=127
10035 Off ch=1 n=c6 v=64
10046 Off ch=1 n=c7 v=64
10069 On ch=1 n=a#6 v=58
10099 On ch=1 n=f5 v=49
10099 On ch=1 n=c5 v=48
10099 On ch=1 n=f4 v=36
10103 On ch=1 n=g#6 v=59
10104 Par ch=1 c=64 v=0
10114 Par ch=1 c=64 v=0
10117 Off ch=1 n=a#6 v=64
10134 Par ch=1 c=64 v=127
10145 Off ch=1 n=f4 v=64
10145 Off ch=1 n=c5 v=64
10145 Off ch=1 n=f5 v=64
10160 Par ch=1 c=64 v=127
10212 Par ch=1 c=64 v=0
10223 On ch=1 n=f5 v=46
10223 On ch=1 n=g4 v=42
10225 On ch=1 n=b4 v=49
10235 Par ch=1 c=64 v=0
10236 Par ch=1 c=64 v=127
10266 Off ch=1 n=g4 v=64
10266 Off ch=1 n=f5 v=64
10268 Off ch=1 n=b4 v=64
10277 Par ch=1 c=64 v=127
10278 On ch=1 n=g6 v=52
10284 Off ch=1 n=g#6 v=64
10315 On ch=1 n=a#6 v=61
10318 Off ch=1 n=g6 v=64
10328 Par ch=1 c=64 v=0
10344 On ch=1 n=g4 v=36
10346 On ch=1 n=f5 v=40
10346 On ch=1 n=b4 v=42
10348 On ch=1 n=g#6 v=55
10363 Par ch=1 c=64 v=127
10367 Off ch=1 n=a#6 v=64
10374 Par ch=1 c=64 v=0
10390 Off ch=1 n=g4 v=64
10392 Off ch=1 n=b4 v=64
10392 Off ch=1 n=f5 v=64
10392 Par ch=1 c=64 v=127
10394 On ch=1 n=g6 v=55
10417 Off ch=1 n=g#6 v=64
10443 Par ch=1 c=64 v=0
10453 On ch=1 n=d6 v=46
10453 On ch=1 n=f5 v=36
10455 On ch=1 n=b4 v=49
10455 On ch=1 n=g4 v=39
10476 Off ch=1 n=g6 v=64
10482 Par ch=1 c=64 v=127
10485 Par ch=1 c=64 v=0
10499 Off ch=1 n=f5 v=64
10501 Off ch=1 n=g4 v=64
10501 Off ch=1 n=b4 v=64
10507 Par ch=1 c=64 v=127
10570 Par ch=1 c=64 v=0
10579 On ch=1 n=c6 v=48
10579 On ch=1 n=c5 v=36
10579 On ch=1 n=g#4 v=40
10580 On ch=1 n=d#5 v=42
10589 Off ch=1 n=d6 v=64
10600 Par ch=1 c=64 v=0
10616 Par ch=1 c=64 v=127
10625 Off ch=1 n=g#4 v=64
10625 Off ch=1 n=c5 v=64
10626 Off ch=1 n=d#5 v=64
10635 Par ch=1 c=64 v=127
10655 Off ch=1 n=c6 v=64
10662 On ch=1 n=c6 v=55
10694 Par ch=1 c=64 v=0
10710 On ch=1 n=e5 v=42
10711 On ch=1 n=c7 v=58
10711 On ch=1 n=c5 v=37
10711 On ch=1 n=g4 v=49
10719 Par ch=1 c=64 v=0
10736 Par ch=1 c=64 v=127
10748 Off ch=1 n=c6 v=64
10752 Par ch=1 c=64 v=127
10756 Off ch=1 n=e5 v=64
10757 Off ch=1 n=g4 v=64
10757 Off ch=1 n=c5 v=64
10787 Off ch=1 n=c7 v=64
10805 On ch=1 n=a#6 v=61
10831 On ch=1 n=f4 v=48
10833 On ch=1 n=g#6 v=59
10833 On ch=1 n=f5 v=46
10833 Par ch=1 c=64 v=0
10835 On ch=1 n=c5 v=45
10847 Off ch=1 n=a#6 v=64
10851 Par ch=1 c=64 v=127
10852 Par ch=1 c=64 v=0
10877 Off ch=1 n=f4 v=64
10879 Off ch=1 n=f5 v=64
10881 Off ch=1 n=c5 v=64
10904 Par ch=1 c=64 v=127
10947 Par ch=1 c=64 v=0
10959 On ch=1 n=f5 v=48
10959 On ch=1 n=b4 v=50
10960 On ch=1 n=g4 v=49
10969 Par ch=1 c=64 v=127
10979 Par ch=1 c=64 v=0
11002 Off ch=1 n=b4 v=64
11002 Off ch=1 n=f5 v=64
11003 Off ch=1 n=g4 v=64
11005 On ch=1 n=g6 v=54
11014 Off ch=1 n=g#6 v=64
11020 Par ch=1 c=64 v=127
11038 On ch=1 n=a#6 v=58
11045 Off ch=1 n=g6 v=64
11059 Par ch=1 c=64 v=0
11069 On ch=1 n=g#6 v=61
11069 On ch=1 n=f5 v=48
11069 On ch=1 n=b4 v=49
11071 On ch=1 n=g4 v=42
11087 Off ch=1 n=a#6 v=64
11091 Par ch=1 c=64 v=127
11107 Par ch=1 c=64 v=0
11115 Off ch=1 n=b4 v=64
11115 Off ch=1 n=f5 v=64
11117 Off ch=1 n=g4 v=64
11129 Off ch=1 n=g#6 v=64
11132 Par ch=1 c=64 v=127
11157 On ch=1 n=g6 v=58
11175 Par ch=1 c=64 v=0
11191 On ch=1 n=f5 v=49
11191 On ch=1 n=g4 v=45
11196 On ch=1 n=d6 v=49
11196 On ch=1 n=b4 v=44
11203 Off ch=1 n=g6 v=64
11208 Par ch=1 c=64 v=127
11231 Par ch=1 c=64 v=0
11237 Off ch=1 n=g4 v=64
11237 Off ch=1 n=f5 v=64
11242 Off ch=1 n=b4 v=64
11270 Par ch=1 c=64 v=127
11308 Par ch=1 c=64 v=0
11313 On ch=1 n=d#5 v=32
11313 On ch=1 n=g#4 v=28
11314 On ch=1 n=c6 v=44
11314 On ch=1 n=c5 v=22
11317 Off ch=1 n=d6 v=64
11359 Off ch=1 n=g#4 v=64
11359 Off ch=1 n=d#5 v=64
11359 Par ch=1 c=64 v=0
11360 Off ch=1 n=c5 v=64
11360 Par ch=1 c=64 v=127
11404 Par ch=1 c=64 v=127
11437 On ch=1 n=c#6 v=36
11438 Par ch=1 c=64 v=0
11439 On ch=1 n=c#5 v=31
11439 On ch=1 n=f4 v=28
11441 On ch=1 n=g#4 v=28
11463 Off ch=1 n=c6 v=64
11479 Par ch=1 c=64 v=127
11485 Off ch=1 n=f4 v=64
11485 Off ch=1 n=c#5 v=64
11487 Off ch=1 n=g#4 v=64
11493 Par ch=1 c=64 v=0
11527 On ch=1 n=f6 v=31
11532 Off ch=1 n=c#6 v=64
11533 Par ch=1 c=64 v=127
11563 On ch=1 n=d5 v=28
11567 On ch=1 n=g#4 v=29
11569 Par ch=1 c=64 v=0
11571 On ch=1 n=f4 v=28
11581 On ch=1 n=c6 v=37
11593 Off ch=1 n=f6 v=64
11594 Par ch=1 c=64 v=127
11609 Off ch=1 n=d5 v=64
11613 Off ch=1 n=g#4 v=64
11617 Off ch=1 n=f4 v=64
11637 Par ch=1 c=64 v=0
11651 Par ch=1 c=64 v=127
11693 Par ch=1 c=64 v=0
11699 On ch=1 n=b5 v=39
11699 On ch=1 n=f5 v=32
11699 On ch=1 n=d5 v=31
11699 On ch=1 n=g4 v=28
11704 Off ch=1 n=c6 v=64
11732 Par ch=1 c=64 v=127
11742 Off ch=1 n=g4 v=64
11742 Off ch=1 n=d5 v=64
11742 Off ch=1 n=f5 v=64
11752 Par ch=1 c=64 v=0
11769 Off ch=1 n=b5 v=64
11779 Par ch=1 c=64 v=127
11781 On ch=1 n=g5 v=31
11815 Par ch=1 c=64 v=0
11831 On ch=1 n=b5 v=39
11831 On ch=1 n=f5 v=24
11831 On ch=1 n=d5 v=16
11833 On ch=1 n=g4 v=28
11850 Off ch=1 n=g5 v=64
11860 Par ch=1 c=64 v=127
11877 Off ch=1 n=d5 v=64
11877 Off ch=1 n=f5 v=64
11879 Off ch=1 n=g4 v=64
11891 Par ch=1 c=64 v=0
11905 On ch=1 n=d6 v=28
11915 Par ch=1 c=64 v=127
11919 Off ch=1 n=b5 v=64
11949 Par ch=1 c=64 v=0
11955 On ch=1 n=d#5 v=26
11955 On ch=1 n=c5 v=28
11959 On ch=1 n=c6 v=39
11977 Off ch=1 n=d6 v=64
11989 Par ch=1 c=64 v=127
12001 Off ch=1 n=c5 v=64
12021 Off ch=1 n=c6 v=64
12039 Par ch=1 c=64 v=0
12062 Par ch=1 c=64 v=127
12133 On ch=1 n=g#4 v=27
12135 On ch=1 n=c5 v=22
12153 Par ch=1 c=64 v=0
12167 Par ch=1 c=64 v=127
12182 Off ch=1 n=c5 v=64
12186 Off ch=1 n=g#4 v=64
12194 Par ch=1 c=64 v=0
12219 Par ch=1 c=64 v=127
12263 On ch=1 n=c#5 v=26
12265 On ch=1 n=c#6 v=39
12265 On ch=1 n=g#4 v=18
12265 On ch=1 n=f4 v=26
12267 Off ch=1 n=d#5 v=64
12274 Par ch=1 c=64 v=0
12300 Off ch=1 n=f4 v=64
12301 Par ch=1 c=64 v=127
12303 Off ch=1 n=g#4 v=64
12356 On ch=1 n=f6 v=33
12359 Off ch=1 n=c#6 v=64
12390 Par ch=1 c=64 v=0
12395 On ch=1 n=c6 v=36
12395 On ch=1 n=g#4 v=27
12395 On ch=1 n=f4 v=27
12396 On ch=1 n=d5 v=27
12408 Off ch=1 n=c#5 v=64
12413 Par ch=1 c=64 v=0
12424 Par ch=1 c=64 v=127
12426 Off ch=1 n=f4 v=64
12437 Off ch=1 n=f6 v=64
12437 Par ch=1 c=64 v=127
12441 Off ch=1 n=g#4 v=64
12517 Off ch=1 n=d5 v=64
12548 On ch=1 n=d5 v=36
12548 On ch=1 n=a#4 v=36
12552 On ch=1 n=g4 v=32
12554 Par ch=1 c=64 v=0
12561 Par ch=1 c=64 v=0
12584 Par ch=1 c=64 v=127
12589 Par ch=1 c=64 v=127
12614 Off ch=1 n=g4 v=64
12616 Off ch=1 n=a#4 v=64
12662 Par ch=1 c=64 v=0
12702 On ch=1 n=d#5 v=37
12706 On ch=1 n=a#4 v=31
12711 Off ch=1 n=d5 v=64
12712 On ch=1 n=g4 v=24
12716 Par ch=1 c=64 v=0
12718 Par ch=1 c=64 v=127
12729 Off ch=1 n=c6 v=64
12741 Par ch=1 c=64 v=127
12775 Off ch=1 n=g4 v=64
12779 Off ch=1 n=a#4 v=64
12789 Par ch=1 c=64 v=0
12799 Par ch=1 c=64 v=127
12801 On ch=1 n=a#5 v=57
12892 On ch=1 n=c6 v=46
12892 On ch=1 n=g4 v=32
12896 Off ch=1 n=a#5 v=64
12896 On ch=1 n=c#5 v=31
12900 Off ch=1 n=d#5 v=64
12901 On ch=1 n=e5 v=33
12909 Par ch=1 c=64 v=0
12915 Par ch=1 c=64 v=0
12943 Par ch=1 c=64 v=127
12946 Par ch=1 c=64 v=127
12956 Off ch=1 n=e5 v=64
12962 Off ch=1 n=c#5 v=64
12963 Off ch=1 n=g4 v=64
12995 On ch=1 n=a#5 v=57
13005 Off ch=1 n=c6 v=64
13007 Par ch=1 c=64 v=0
13022 Par ch=1 c=64 v=127
13031 Off ch=1 n=a#5 v=64
13070 Par ch=1 c=64 v=0
13080 On ch=1 n=d#5 v=36
13082 On ch=1 n=c5 v=29
13083 On ch=1 n=g#5 v=59
13083 On ch=1 n=g#4 v=24
13102 Par ch=1 c=64 v=127
13117 Par ch=1 c=64 v=0
13119 On ch=1 n=a#5 v=55
13122 Off ch=1 n=g#5 v=64
13126 Off ch=1 n=d#5 v=64
13128 Off ch=1 n=c5 v=64
13128 Par ch=1 c=64 v=127
13129 Off ch=1 n=g#4 v=64
13164 On ch=1 n=g#5 v=50
13174 Off ch=1 n=a#5 v=64
13175 Par ch=1 c=64 v=0
13216 On ch=1 n=g5 v=57
13218 On ch=1 n=c#5 v=18
13220 On ch=1 n=e5 v=35
13220 On ch=1 n=g#4 v=28
13228 Off ch=1 n=g#5 v=64
13231 Par ch=1 c=64 v=127
13261 On ch=1 n=g#5 v=50
13264 Off ch=1 n=c#5 v=64
13266 Off ch=1 n=g#4 v=64
13266 Off ch=1 n=e5 v=64
13274 Par ch=1 c=64 v=0
13284 Par ch=1 c=64 v=127
13285 Off ch=1 n=g5 v=64
13299 Par ch=1 c=64 v=0
13309 Par ch=1 c=64 v=127
13316 On ch=1 n=a#5 v=55
13316 On ch=1 n=e5 v=36
13318 On ch=1 n=g#4 v=33
13319 On ch=1 n=c#5 v=37
13330 Off ch=1 n=g#5 v=64
13362 Off ch=1 n=e5 v=64
13364 Off ch=1 n=g#4 v=64
13365 Off ch=1 n=c#5 v=64
13372 On ch=1 n=c6 v=52
13374 Off ch=1 n=a#5 v=64
13374 Par ch=1 c=64 v=0
13417 Par ch=1 c=64 v=127
13425 Par ch=1 c=64 v=0
13428 On ch=1 n=c#6 v=55
13432 On ch=1 n=e5 v=42
13434 On ch=1 n=a#4 v=44
13435 On ch=1 n=g4 v=42
13447 Off ch=1 n=c6 v=64
13456 Par ch=1 c=64 v=127
13461 On ch=1 n=d#6 v=55
13478 Off ch=1 n=e5 v=64
13478 Off ch=1 n=c#6 v=64
13480 Off ch=1 n=a#4 v=64
13481 Off ch=1 n=g4 v=64
13482 Par ch=1 c=64 v=0
13494 Par ch=1 c=64 v=127
13503 On ch=1 n=c#6 v=49
13510 Off ch=1 n=d#6 v=64
13520 Par ch=1 c=64 v=0
13535 Par ch=1 c=64 v=127
13552 On ch=1 n=d#5 v=45
13552 On ch=1 n=c5 v=16
13554 On ch=1 n=c6 v=55
13554 On ch=1 n=g#4 v=48
13560 Off ch=1 n=c#6 v=64
13597 Par ch=1 c=64 v=0
13598 Off ch=1 n=c5 v=64
13598 Off ch=1 n=d#5 v=64
13600 Off ch=1 n=g#4 v=64
13600 On ch=1 n=c#6 v=36
13605 Off ch=1 n=c6 v=64
13633 Par ch=1 c=64 v=0
13636 Par ch=1 c=64 v=127
13644 Par ch=1 c=64 v=127
13653 On ch=1 n=d#6 v=62
13664 On ch=1 n=d#5 v=44
13664 On ch=1 n=g4 v=36
13665 Off ch=1 n=c#6 v=64
13666 On ch=1 n=a#4 v=28
13710 Off ch=1 n=g4 v=64
13710 Off ch=1 n=d#5 v=64
13712 Off ch=1 n=a#4 v=64
13733 Par ch=1 c=64 v=0
13764 Par ch=1 c=64 v=127
13768 On ch=1 n=c#5 v=49
13768 On ch=1 n=g#4 v=45
13770 On ch=1 n=g#6 v=61
13770 On ch=1 n=f4 v=49
13772 On ch=1 n=f5 v=45
13782 Off ch=1 n=d#6 v=64
13787 Par ch=1 c=64 v=0
13797 Par ch=1 c=64 v=127
13838 Off ch=1 n=g#4 v=64
13838 Off ch=1 n=c#5 v=64
13839 Par ch=1 c=64 v=0
13840 Off ch=1 n=f4 v=64
13840 Off ch=1 n=g#6 v=64
13842 Off ch=1 n=f5 v=64
13873 On ch=1 n=c#6 v=52
13881 Par ch=1 c=64 v=127
13890 Par ch=1 c=64 v=0
13910 On ch=1 n=c6 v=48
13910 On ch=1 n=d#5 v=40
13912 On ch=1 n=g#4 v=24
13915 On ch=1 n=d#4 v=36
13926 Off ch=1 n=c#6 v=64
13933 Par ch=1 c=64 v=127
13956 Off ch=1 n=d#5 v=64
13958 Off ch=1 n=g#4 v=64
13960 Par ch=1 c=64 v=0
13961 Off ch=1 n=d#4 v=64
13975 On ch=1 n=d#6 v=45
13976 Par ch=1 c=64 v=127
13980 Off ch=1 n=c6 v=64
13998 Par ch=1 c=64 v=0
14010 Par ch=1 c=64 v=127
14026 On ch=1 n=c5 v=15
14026 On ch=1 n=d#4 v=28
14028 On ch=1 n=d#5 v=36
14030 On ch=1 n=g#5 v=50
14039 Off ch=1 n=d#6 v=64
14061 Par ch=1 c=64 v=0
14072 Off ch=1 n=d#4 v=64
14072 Off ch=1 n=c5 v=64
14074 Off ch=1 n=d#5 v=64
14088 Par ch=1 c=64 v=127
14089 On ch=1 n=a5 v=48
14104 Off ch=1 n=g#5 v=64
14113 Par ch=1 c=64 v=0
14142 On ch=1 n=d#4 v=32
14145 On ch=1 n=a#5 v=50
14145 On ch=1 n=d#5 v=41
14146 On ch=1 n=c#5 v=15
14152 Par ch=1 c=64 v=127
14157 Off ch=1 n=a5 v=64
14188 Off ch=1 n=d#4 v=64
14191 Off ch=1 n=d#5 v=64
14192 Off ch=1 n=c#5 v=64
14210 On ch=1 n=c#6 v=54
14222 Off ch=1 n=a#5 v=64
14249 Par ch=1 c=64 v=0
14264 On ch=1 n=f5 v=50
14266 On ch=1 n=d#5 v=37
14266 On ch=1 n=c#5 v=36
14266 On ch=1 n=d#4 v=36
14273 Off ch=1 n=c#6 v=64
14280 Par ch=1 c=64 v=127
14294 Par ch=1 c=64 v=0
14312 Off ch=1 n=d#4 v=64
14312 Off ch=1 n=c#5 v=64
14312 Off ch=1 n=d#5 v=64
14316 On ch=1 n=g5 v=50
14324 Par ch=1 c=64 v=127
14329 Off ch=1 n=f5 v=64
14361 Par ch=1 c=64 v=0
14378 On ch=1 n=g#5 v=50
14380 On ch=1 n=d#5 v=36
14380 On ch=1 n=c5 v=35
14380 On ch=1 n=g#4 v=28
14386 Par ch=1 c=64 v=0
14394 Off ch=1 n=g5 v=64
14403 Par ch=1 c=64 v=127
14405 Par ch=1 c=64 v=127
14426 Off ch=1 n=g#4 v=64
14426 Off ch=1 n=c5 v=64
14426 Off ch=1 n=d#5 v=64
14542 Par ch=1 c=64 v=0
14548 On ch=1 n=d#5 v=31
14548 On ch=1 n=c5 v=29
14548 On ch=1 n=g#4 v=31
14558 Par ch=1 c=64 v=127
14594 Off ch=1 n=g#4 v=64
14594 Off ch=1 n=c5 v=64
14594 Off ch=1 n=d#5 v=64
14604 On ch=1 n=a#5 v=37
14618 Off ch=1 n=g#5 v=64
14638 On ch=1 n=g#5 v=55
14643 Par ch=1 c=64 v=0
14663 Off ch=1 n=a#5 v=64
14666 Par ch=1 c=64 v=0
14670 Par ch=1 c=64 v=127
14678 On ch=1 n=g5 v=50
14678 On ch=1 n=e5 v=37
14678 On ch=1 n=c#5 v=35
14678 On ch=1 n=g#4 v=40
14697 Off ch=1 n=g#5 v=64
14713 Par ch=1 c=64 v=127
14724 Off ch=1 n=g#4 v=64
14724 Off ch=1 n=c#5 v=64
14724 Off ch=1 n=e5 v=64
14754 Off ch=1 n=g5 v=64
14756 On ch=1 n=g#5 v=53
14784 On ch=1 n=g#4 v=24
14788 On ch=1 n=a#5 v=52
14788 On ch=1 n=e5 v=19
14788 On ch=1 n=c#5 v=28
14790 Off ch=1 n=g#5 v=64
14822 Par ch=1 c=64 v=0
14830 Off ch=1 n=g#4 v=64
14834 Off ch=1 n=c#5 v=64
14834 Off ch=1 n=e5 v=64
14848 On ch=1 n=c6 v=54
14850 Off ch=1 n=a#5 v=64
14866 Par ch=1 c=64 v=127
14876 Par ch=1 c=64 v=0
14900 On ch=1 n=c#6 v=63
14900 On ch=1 n=e5 v=40
14900 On ch=1 n=a#4 v=42
14900 On ch=1 n=g4 v=42
14906 Par ch=1 c=64 v=127
14920 Off ch=1 n=c6 v=64
14940 On ch=1 n=d#6 v=54
14946 Off ch=1 n=g4 v=64
14946 Off ch=1 n=a#4 v=64
14946 Off ch=1 n=e5 v=64
14946 Off ch=1 n=c#6 v=64
14968 Par ch=1 c=64 v=0
14976 On ch=1 n=c#6 v=50
14987 Par ch=1 c=64 v=127
14994 Off ch=1 n=d#6 v=64
15016 On ch=1 n=c6 v=55
15016 On ch=1 n=d#5 v=32
15016 On ch=1 n=c5 v=31
15016 On ch=1 n=g#4 v=32
15032 Off ch=1 n=c#6 v=64
15060 On ch=1 n=c#6 v=55
15062 Off ch=1 n=g#4 v=64
15062 Off ch=1 n=c5 v=64
15062 Off ch=1 n=d#5 v=64
15079 Off ch=1 n=c6 v=64
15084 Off ch=1 n=c#6 v=64
15092 On ch=1 n=c#6 v=55
15112 Off ch=1 n=c#6 v=64
15124 On ch=1 n=d6 v=55
15128 On ch=1 n=d#5 v=26
15128 On ch=1 n=a#4 v=26
15132 On ch=1 n=g4 v=23
15164 On ch=1 n=d#6 v=61
15174 Off ch=1 n=a#4 v=64
15174 Off ch=1 n=d#5 v=64
15175 Par ch=1 c=64 v=0
15178 Off ch=1 n=g4 v=64
15182 Off ch=1 n=d6 v=64
15190 Off ch=1 n=d#6 v=64
15201 Par ch=1 c=64 v=127
15207 On ch=1 n=d#6 v=55
15248 Par ch=1 c=64 v=0
15252 On ch=1 n=c#5 v=46
15255 On ch=1 n=g#6 v=76
15255 On ch=1 n=f4 v=50
15256 On ch=1 n=g#4 v=55
15258 On ch=1 n=f5 v=33
15266 Off ch=1 n=d#6 v=64
15295 Par ch=1 c=64 v=127
15302 Off ch=1 n=g#4 v=64
15331 Par ch=1 c=64 v=0
15370 On ch=1 n=c#6 v=50
15376 Off ch=1 n=c#5 v=64
15379 Off ch=1 n=f4 v=64
15379 Off ch=1 n=g#6 v=64
15382 Off ch=1 n=f5 v=64
15404 Par ch=1 c=64 v=0
15415 On ch=1 n=c6 v=45
15426 Par ch=1 c=64 v=127
15426 On ch=1 n=d#5 v=36
15429 On ch=1 n=g#4 v=36
15433 Off ch=1 n=c#6 v=64
15435 On ch=1 n=d#4 v=36
15445 Par ch=1 c=64 v=127
15469 Off ch=1 n=d#5 v=64
15472 Off ch=1 n=g#4 v=64
15474 Off ch=1 n=c6 v=64
15478 Off ch=1 n=d#4 v=64
15478 On ch=1 n=d#6 v=44
15520 Off ch=1 n=d#6 v=64
15541 On ch=1 n=g#5 v=55
15549 On ch=1 n=d#5 v=40
15550 On ch=1 n=c5 v=27
15554 On ch=1 n=d#4 v=36
15581 Par ch=1 c=64 v=127
15595 Off ch=1 n=d#5 v=64
15596 Off ch=1 n=c5 v=64
15599 On ch=1 n=a5 v=48
15600 Off ch=1 n=d#4 v=64
15609 Off ch=1 n=g#5 v=64
15643 Par ch=1 c=64 v=0
15658 On ch=1 n=d#4 v=36
15659 On ch=1 n=a#5 v=50
15661 On ch=1 n=c#5 v=41
15664 Off ch=1 n=a5 v=64
15664 On ch=1 n=d#5 v=42
15670 Par ch=1 c=64 v=127
15704 Off ch=1 n=d#4 v=64
15707 Off ch=1 n=c#5 v=64
15710 Off ch=1 n=d#5 v=64
15727 On ch=1 n=c#6 v=54
15737 Off ch=1 n=a#5 v=64
15754 Par ch=1 c=64 v=0
15775 Off ch=1 n=c#6 v=64
15780 Par ch=1 c=64 v=127
15788 On ch=1 n=f5 v=50
15788 On ch=1 n=d#4 v=37
15790 Par ch=1 c=64 v=0
15790 On ch=1 n=d#5 v=36
15790 On ch=1 n=c#5 v=36
15825 Par ch=1 c=64 v=127
15834 Off ch=1 n=d#4 v=64
15836 Off ch=1 n=c#5 v=64
15836 Off ch=1 n=d#5 v=64
15857 On ch=1 n=g5 v=50
15880 Off ch=1 n=f5 v=64
15909 On ch=1 n=g#5 v=59
15910 Par ch=1 c=64 v=0
15913 On ch=1 n=g#4 v=35
15917 Par ch=1 c=64 v=0
15917 On ch=1 n=d#5 v=48
15917 On ch=1 n=c5 v=45
15941 Off ch=1 n=g5 v=64
15953 Par ch=1 c=64 v=127
16005 Par ch=1 c=64 v=127
16034 Par ch=1 c=64 v=0
16053 Off ch=1 n=g#5 v=64
16054 Par ch=1 c=64 v=127
16057 Off ch=1 n=g#4 v=64
16061 Off ch=1 n=c5 v=64
16061 Off ch=1 n=d#5 v=64
16161 Par ch=1 c=64 v=0
16193 Par ch=1 c=64 v=127
16247 On ch=1 n=f#6 v=50
16250 On ch=1 n=f#5 v=52
16256 On ch=1 n=c#4 v=40
16259 On ch=1 n=c5 v=39
16259 On ch=1 n=g#4 v=36
16283 Off ch=1 n=c#4 v=64
16283 Par ch=1 c=64 v=127
16286 Off ch=1 n=g#4 v=64
16286 Off ch=1 n=c5 v=64
16287 Par ch=1 c=64 v=0
16302 On ch=1 n=f6 v=46
16312 Off ch=1 n=f#5 v=64
16314 Par ch=1 c=64 v=127
16330 Off ch=1 n=f#6 v=64
16342 Par ch=1 c=64 v=0
16365 On ch=1 n=d#6 v=28
16369 Par ch=1 c=64 v=127
16375 Off ch=1 n=f6 v=64
16378 On ch=1 n=g#4 v=35
16380 On ch=1 n=c5 v=44
16381 On ch=1 n=c#4 v=39
16388 On ch=1 n=f#5 v=54
16402 Par ch=1 c=64 v=0
16405 Off ch=1 n=g#4 v=64
16407 Off ch=1 n=c5 v=64
16408 Off ch=1 n=c#4 v=64
16418 Par ch=1 c=64 v=127
16424 On ch=1 n=f6 v=49
16433 Off ch=1 n=d#6 v=64
16442 Off ch=1 n=f#5 v=64
16486 Par ch=1 c=64 v=0
16493 On ch=1 n=c#6 v=65
16494 Off ch=1 n=f6 v=64
16499 On ch=1 n=f5 v=74
16499 On ch=1 n=c#5 v=46
16499 On ch=1 n=g#4 v=27
16499 On ch=1 n=c#4 v=42
16519 Par ch=1 c=64 v=0
16521 Par ch=1 c=64 v=127
16526 Off ch=1 n=c#4 v=64
16526 Off ch=1 n=g#4 v=64
16526 Off ch=1 n=c#5 v=64
16528 Off ch=1 n=f5 v=64
16553 Par ch=1 c=64 v=127
16575 Off ch=1 n=c#6 v=64
16613 Par ch=1 c=64 v=0
16620 On ch=1 n=a#5 v=62
16620 On ch=1 n=g5 v=62
16623 On ch=1 n=d#5 v=44
16630 On ch=1 n=a#4 v=49
16633 On ch=1 n=c#4 v=23
16649 Par ch=1 c=64 v=127
16650 Off ch=1 n=d#5 v=64
16652 Par ch=1 c=64 v=0
16657 Off ch=1 n=a#4 v=64
16660 Off ch=1 n=c#4 v=64
16666 Off ch=1 n=g5 v=64
16675 On ch=1 n=d#6 v=58
16689 Par ch=1 c=64 v=127
16691 Off ch=1 n=a#5 v=64
16730 Par ch=1 c=64 v=0
16735 On ch=1 n=f#5 v=62
16739 On ch=1 n=d#5 v=44
16740 On ch=1 n=a#5 v=65
16743 On ch=1 n=a4 v=58
16744 On ch=1 n=c#4 v=39
16747 Off ch=1 n=d#6 v=64
16750 Par ch=1 c=64 v=127
16766 Off ch=1 n=d#5 v=64
16770 Off ch=1 n=a4 v=64
16771 Off ch=1 n=c#4 v=64
16771 Par ch=1 c=64 v=0
16789 Off ch=1 n=f#5 v=64
16799 Par ch=1 c=64 v=127
16800 On ch=1 n=c6 v=54
16810 Off ch=1 n=a#5 v=64
16851 Par ch=1 c=64 v=0
16857 On ch=1 n=f#5 v=58
16859 On ch=1 n=g#5 v=70
16861 On ch=1 n=c5 v=44
16861 On ch=1 n=c#4 v=36
16863 On ch=1 n=g#4 v=58
16868 Off ch=1 n=c6 v=64
16883 Par ch=1 c=64 v=127
16887 Par ch=1 c=64 v=0
16888 Off ch=1 n=c#4 v=64
16888 Off ch=1 n=c5 v=64
16890 Off ch=1 n=g#4 v=64
16902 Off ch=1 n=f#5 v=64
16925 Off ch=1 n=g#5 v=64
16933 Par ch=1 c=64 v=127
16977 Par ch=1 c=64 v=0
16991 On ch=1 n=c#4 v=44
16994 On ch=1 n=g#4 v=49
16996 On ch=1 n=f#6 v=50
16996 On ch=1 n=f#5 v=67
16996 On ch=1 n=c5 v=46
17007 Par ch=1 c=64 v=127
17018 Off ch=1 n=c#4 v=64
17021 Off ch=1 n=g#4 v=64
17023 Off ch=1 n=c5 v=64
17027 Par ch=1 c=64 v=0
17052 On ch=1 n=f6 v=49
17062 Off ch=1 n=f#5 v=64
17082 Off ch=1 n=f#6 v=64
17092 Par ch=1 c=64 v=0
17106 On ch=1 n=g#4 v=35
17109 On ch=1 n=d#6 v=40
17110 On ch=1 n=f#5 v=71
17110 On ch=1 n=c5 v=44
17111 Par ch=1 c=64 v=127
17114 On ch=1 n=c#4 v=44
17129 Off ch=1 n=f6 v=64
17133 Off ch=1 n=g#4 v=64
17137 Off ch=1 n=c5 v=64
17141 Off ch=1 n=c#4 v=64
17157 Off ch=1 n=f#5 v=64
17158 On ch=1 n=f6 v=53
17172 Par ch=1 c=64 v=127
17197 Off ch=1 n=d#6 v=64
17212 Par ch=1 c=64 v=0
17232 On ch=1 n=f5 v=74
17236 On ch=1 n=c#6 v=58
17236 On ch=1 n=c#4 v=44
17238 On ch=1 n=c#5 v=39
17240 On ch=1 n=g#4 v=46
17242 Off ch=1 n=f6 v=64
17246 Par ch=1 c=64 v=127
17263 Off ch=1 n=c#4 v=64
17265 Off ch=1 n=c#5 v=64
17267 Off ch=1 n=g#4 v=64
17275 Off ch=1 n=f5 v=64
17277 Par ch=1 c=64 v=0
17318 Off ch=1 n=c#6 v=64
17322 Par ch=1 c=64 v=127
17345 Par ch=1 c=64 v=0
17357 On ch=1 n=a#5 v=55
17358 On ch=1 n=g5 v=58
17358 On ch=1 n=a#4 v=44
17360 On ch=1 n=d#5 v=50
17362 On ch=1 n=c#4 v=19
17382 Par ch=1 c=64 v=127
17385 Off ch=1 n=a#4 v=64
17387 Off ch=1 n=d#5 v=64
17389 Off ch=1 n=c#4 v=64
17408 Off ch=1 n=g5 v=64
17415 On ch=1 n=d#6 v=58
17423 Par ch=1 c=64 v=0
17431 Off ch=1 n=a#5 v=64
17453 Par ch=1 c=64 v=127
17464 Par ch=1 c=64 v=0
17474 On ch=1 n=g#5 v=65
17475 On ch=1 n=f#5 v=61
17478 On ch=1 n=d#5 v=46
17478 On ch=1 n=g#4 v=28
17479 On ch=1 n=c#4 v=40
17491 Off ch=1 n=d#6 v=64
17495 Par ch=1 c=64 v=127
17505 Off ch=1 n=g#4 v=64
17505 Off ch=1 n=d#5 v=64
17506 Off ch=1 n=c#4 v=64
17520 Off ch=1 n=f#5 v=64
17525 Par ch=1 c=64 v=0
17534 On ch=1 n=c6 v=52
17556 Off ch=1 n=g#5 v=64
17558 Par ch=1 c=64 v=127
17586 Par ch=1 c=64 v=0
17602 On ch=1 n=c#5 v=46
17602 On ch=1 n=g#4 v=28
17602 On ch=1 n=c#4 v=41
17603 On ch=1 n=c#6 v=54
17603 On ch=1 n=f5 v=55
17618 Off ch=1 n=c6 v=64
17629 Off ch=1 n=c#4 v=64
17629 Off ch=1 n=g#4 v=64
17629 Off ch=1 n=c#5 v=64
17632 Par ch=1 c=64 v=127
17643 Off ch=1 n=f5 v=64
17663 Par ch=1 c=64 v=0
17686 Par ch=1 c=64 v=127
17692 Off ch=1 n=c#6 v=64
17786 Par ch=1 c=64 v=0
17803 On ch=1 n=f#6 v=48
17804 On ch=1 n=c5 v=44
17806 On ch=1 n=g#4 v=46
17806 On ch=1 n=c#4 v=42
17807 On ch=1 n=f#5 v=44
17825 Off ch=1 n=f#6 v=64
17874 On ch=1 n=f6 v=53
17896 Off ch=1 n=f6 v=64
17934 Par ch=1 c=64 v=127
17935 Off ch=1 n=c5 v=64
17937 Off ch=1 n=c#4 v=64
17937 Off ch=1 n=g#4 v=64
17940 On ch=1 n=g#4 v=40
17942 On ch=1 n=c5 v=42
17945 On ch=1 n=c#4 v=35
17948 Off ch=1 n=f#5 v=64
17951 On ch=1 n=d#6 v=42
17951 On ch=1 n=f#5 v=46
17973 Off ch=1 n=d#6 v=64
17998 On ch=1 n=f6 v=51
18020 Off ch=1 n=f6 v=64
18039 Par ch=1 c=64 v=0
18042 Par ch=1 c=64 v=0
18052 Off ch=1 n=c#4 v=64
18055 Off ch=1 n=g#4 v=64
18061 On ch=1 n=c#4 v=40
18063 On ch=1 n=f5 v=42
18064 On ch=1 n=g#4 v=46
18066 On ch=1 n=c#5 v=46
18072 Off ch=1 n=f#5 v=64
18075 Off ch=1 n=c5 v=64
18076 On ch=1 n=c#6 v=29
18079 Par ch=1 c=64 v=127
18084 Par ch=1 c=64 v=127
18098 Off ch=1 n=c#6 v=64
18118 On ch=1 n=g#5 v=58
18140 Off ch=1 n=g#5 v=64
18160 Par ch=1 c=64 v=0
18163 Off ch=1 n=c#4 v=64
18178 On ch=1 n=d#5 v=48
18179 Off ch=1 n=g#4 v=64
18182 On ch=1 n=g5 v=35
18182 On ch=1 n=a#4 v=31
18182 On ch=1 n=c#4 v=44
18184 Par ch=1 c=64 v=127
18185 On ch=1 n=a#5 v=55
18185 Par ch=1 c=64 v=0
18197 Off ch=1 n=c#5 v=64
18198 Off ch=1 n=f5 v=64
18207 Off ch=1 n=a#5 v=64
18215 Par ch=1 c=64 v=127
18244 On ch=1 n=d#6 v=58
18266 Off ch=1 n=d#6 v=64
18287 Par ch=1 c=64 v=0
18288 Off ch=1 n=c#4 v=64
18299 Off ch=1 n=d#5 v=64
18300 On ch=1 n=a#5 v=61
18301 On ch=1 n=f#5 v=50
18302 On ch=1 n=d#5 v=54
18302 On ch=1 n=a4 v=22
18302 On ch=1 n=c#4 v=32
18313 Off ch=1 n=a#4 v=64
18313 Off ch=1 n=g5 v=64
18320 Par ch=1 c=64 v=127
18322 Off ch=1 n=a#5 v=64
18363 On ch=1 n=c6 v=48
18385 Off ch=1 n=c6 v=64
18419 Off ch=1 n=f#5 v=64
18423 Off ch=1 n=d#5 v=64
18425 Par ch=1 c=64 v=0
18428 Off ch=1 n=c#4 v=64
18432 On ch=1 n=g#5 v=70
18432 On ch=1 n=f#5 v=48
18432 On ch=1 n=c#4 v=42
18435 On ch=1 n=g#4 v=46
18436 On ch=1 n=d#5 v=44
18439 Off ch=1 n=a4 v=64
18448 Par ch=1 c=64 v=127
18454 Off ch=1 n=g#5 v=64
18480 Par ch=1 c=64 v=0
18500 On ch=1 n=g#6 v=55
18503 Par ch=1 c=64 v=127
18522 Off ch=1 n=g#6 v=64
18562 Off ch=1 n=c#4 v=64
18566 Off ch=1 n=g#4 v=64
18567 Off ch=1 n=d#5 v=64
18570 On ch=1 n=c#4 v=40
18572 On ch=1 n=c5 v=44
18572 On ch=1 n=g#4 v=44
18574 On ch=1 n=f#6 v=66
18579 Off ch=1 n=f#5 v=64
18581 On ch=1 n=f#5 v=52
18596 Off ch=1 n=f#6 v=64
18636 On ch=1 n=f6 v=53
18658 Off ch=1 n=f6 v=64
18691 Off ch=1 n=c#4 v=64
18693 Off ch=1 n=g#4 v=64
18693 Off ch=1 n=c5 v=64
18694 On ch=1 n=c#4 v=44
18695 Off ch=1 n=f#5 v=64
18696 On ch=1 n=g#4 v=44
18697 On ch=1 n=d#6 v=49
18697 On ch=1 n=c5 v=46
18700 On ch=1 n=f#5 v=44
18719 Off ch=1 n=d#6 v=64
18762 On ch=1 n=f6 v=58
18784 Off ch=1 n=f6 v=64
18804 Par ch=1 c=64 v=0
18805 Par ch=1 c=64 v=0
18815 Off ch=1 n=c#4 v=64
18816 On ch=1 n=c#4 v=40
18817 Off ch=1 n=g#4 v=64
18818 Off ch=1 n=c5 v=64
18820 On ch=1 n=f5 v=40
18820 On ch=1 n=c#5 v=46
18820 On ch=1 n=g#4 v=46
18821 Off ch=1 n=f#5 v=64
18822 On ch=1 n=c#6 v=55
18841 Par ch=1 c=64 v=127
18844 Off ch=1 n=c#6 v=64
18850 Par ch=1 c=64 v=127
18900 On ch=1 n=g#5 v=62
18922 Off ch=1 n=g#5 v=64
18937 Off ch=1 n=c#4 v=64
18941 Off ch=1 n=g#4 v=64
18941 Off ch=1 n=c#5 v=64
18941 Off ch=1 n=f5 v=64
18950 On ch=1 n=g5 v=50
18950 On ch=1 n=d#5 v=50
18952 On ch=1 n=a#4 v=39
18952 On ch=1 n=c#4 v=39
18954 On ch=1 n=a#5 v=74
18971 Par ch=1 c=64 v=127
18976 Off ch=1 n=a#5 v=64
19012 Par ch=1 c=64 v=0
19028 On ch=1 n=d#6 v=66
19036 Par ch=1 c=64 v=127
19050 Off ch=1 n=d#6 v=64
19052 Off ch=1 n=c#4 v=64
19071 Off ch=1 n=d#5 v=64
19071 Off ch=1 n=g5 v=64
19073 Off ch=1 n=a#4 v=64
19094 On ch=1 n=g#5 v=80
19094 On ch=1 n=f#5 v=57
19094 On ch=1 n=c#4 v=41
19096 On ch=1 n=d#5 v=53
19096 On ch=1 n=g#4 v=42
19116 Off ch=1 n=g#5 v=64
19180 Par ch=1 c=64 v=0
19198 On ch=1 n=c6 v=52
19212 Par ch=1 c=64 v=127
19215 Off ch=1 n=c#4 v=64
19215 Off ch=1 n=f#5 v=64
19217 Off ch=1 n=g#4 v=64
19217 Off ch=1 n=d#5 v=64
19220 Off ch=1 n=c6 v=64
19257 Par ch=1 c=64 v=127
19307 On ch=1 n=f5 v=48
19308 On ch=1 n=c#4 v=52
19310 On ch=1 n=c#6 v=78
19310 On ch=1 n=g#4 v=45
19332 Par ch=1 c=64 v=0
19355 Par ch=1 c=64 v=127
19375 Off ch=1 n=f5 v=64
19376 Off ch=1 n=c#4 v=64
19378 Off ch=1 n=g#4 v=64
19378 Off ch=1 n=c#6 v=64
19438 Par ch=1 c=64 v=0
19500 Par ch=1 c=64 v=127
19624 On ch=1 n=c#6 v=39
19624 On ch=1 n=e5 v=44
19629 On ch=1 n=a4 v=44
19629 On ch=1 n=a3 v=44
19630 On ch=1 n=e6 v=44
19657 Par ch=1 c=64 v=0
19702 Par ch=1 c=64 v=127
19709 On ch=1 n=b5 v=39
19717 On ch=1 n=d6 v=39
19718 Off ch=1 n=e6 v=64
19730 Off ch=1 n=c#6 v=64
19786 On ch=1 n=a5 v=39
19793 On ch=1 n=c#6 v=44
19803 Off ch=1 n=b5 v=64
19806 Off ch=1 n=d6 v=64
19806 Par ch=1 c=64 v=0
19850 Par ch=1 c=64 v=127
19976 Off ch=1 n=a4 v=64
20000 Off ch=1 n=a5 v=64
20005 On ch=1 n=d4 v=39
20010 On ch=1 n=a4 v=39
20012 Off ch=1 n=e5 v=64
20016 Off ch=1 n=a3 v=64
20016 On ch=1 n=a5 v=44
20016 On ch=1 n=f#5 v=45
20017 On ch=1 n=f#6 v=39
20029 Off ch=1 n=c#6 v=64
20059 Par ch=1 c=64 v=0
20091 Par ch=1 c=64 v=127
20250 Off ch=1 n=a4 v=64
20265 On ch=1 n=a4 v=37
20266 On ch=1 n=e5 v=39
20269 On ch=1 n=c#6 v=40
20272 On ch=1 n=e6 v=40
20272 On ch=1 n=a3 v=35
20300 Off ch=1 n=d4 v=64
20311 Off ch=1 n=f#5 v=64
20311 Off ch=1 n=a5 v=64
20312 Off ch=1 n=f#6 v=64
20317 Par ch=1 c=64 v=0
20352 Par ch=1 c=64 v=0
20368 Par ch=1 c=64 v=127
20379 Par ch=1 c=64 v=127
20685 Par ch=1 c=64 v=0
20721 Par ch=1 c=64 v=127
20726 Off ch=1 n=c#6 v=64
20756 On ch=1 n=c#6 v=42
20756 On ch=1 n=a5 v=39
20775 Off ch=1 n=e6 v=64
20861 Off ch=1 n=a3 v=64
20865 Off ch=1 n=a4 v=64
20899 Off ch=1 n=a5 v=64
20901 Off ch=1 n=c#6 v=64
20910 Off ch=1 n=e5 v=64
21065 On ch=1 n=e6 v=39
21065 On ch=1 n=c#6 v=39
21069 On ch=1 n=a4 v=37
21073 On ch=1 n=e5 v=37
21141 On ch=1 n=d6 v=39
21141 On ch=1 n=b5 v=42
21156 Off ch=1 n=c#6 v=64
21159 Off ch=1 n=e6 v=64
21215 On ch=1 n=a5 v=39
21220 On ch=1 n=c#6 v=48
21234 Par ch=1 c=64 v=0
21235 Par ch=1 c=64 v=0
21240 Off ch=1 n=b5 v=64
21240 Off ch=1 n=d6 v=64
21250 Par ch=1 c=64 v=127
21328 Par ch=1 c=64 v=127
21500 Off ch=1 n=a4 v=64
21504 Off ch=1 n=a5 v=64
21513 On ch=1 n=a5 v=39
21513 On ch=1 n=f#5 v=37
21521 On ch=1 n=f#6 v=35
21524 On ch=1 n=a4 v=28
21525 On ch=1 n=d4 v=35
21529 Off ch=1 n=e5 v=64
21536 Off ch=1 n=c#6 v=64
21567 Par ch=1 c=64 v=0
21603 Par ch=1 c=64 v=127
21891 Par ch=1 c=64 v=0
21946 Par ch=1 c=64 v=127
22003 Off ch=1 n=a5 v=64
22005 On ch=1 n=c#6 v=35
22006 On ch=1 n=e5 v=35
22009 On ch=1 n=e6 v=39
22010 Off ch=1 n=a4 v=64
22015 On ch=1 n=a5 v=39
22015 On ch=1 n=a4 v=32
22020 On ch=1 n=a3 v=26
22029 Off ch=1 n=f#5 v=64
22037 Off ch=1 n=f#6 v=64
22041 Off ch=1 n=d4 v=64
22092 Par ch=1 c=64 v=0
22110 Par ch=1 c=64 v=127
22117 Par ch=1 c=64 v=0
22192 Par ch=1 c=64 v=0
22210 Par ch=1 c=64 v=127
22239 Par ch=1 c=64 v=127
22309 Par ch=1 c=64 v=0
22332 Par ch=1 c=64 v=127
22433 Par ch=1 c=64 v=0
22466 Par ch=1 c=64 v=127
22541 Par ch=1 c=64 v=0
22570 Par ch=1 c=64 v=127
22649 Par ch=1 c=64 v=0
22672 Par ch=1 c=64 v=127
22726 Off ch=1 n=e5 v=64
22743 On ch=1 n=a#5 v=57
22745 On ch=1 n=c#5 v=45
22745 On ch=1 n=g4 v=48
22747 On ch=1 n=e5 v=49
22771 Off ch=1 n=c#6 v=64
22773 Par ch=1 c=64 v=0
22773 Par ch=1 c=64 v=0
22777 Off ch=1 n=e6 v=64
22781 Off ch=1 n=a4 v=64
22781 Off ch=1 n=a5 v=64
22786 Off ch=1 n=a3 v=64
22819 Par ch=1 c=64 v=127
22828 Par ch=1 c=64 v=127
22912 Par ch=1 c=64 v=0
22954 Par ch=1 c=64 v=127
22964 On ch=1 n=g#4 v=32
22966 On ch=1 n=d#5 v=37
22966 On ch=1 n=c5 v=31
22969 On ch=1 n=g#5 v=48
22971 Par ch=1 c=64 v=0
22989 Par ch=1 c=64 v=127
22992 Off ch=1 n=a#5 v=64
22994 Off ch=1 n=g4 v=64
22994 Off ch=1 n=c#5 v=64
22996 Off ch=1 n=e5 v=64
23010 Off ch=1 n=g#4 v=64
23012 Off ch=1 n=c5 v=64
23012 Off ch=1 n=d#5 v=64
23013 Par ch=1 c=64 v=0
23017 On ch=1 n=a#5 v=49
23023 Off ch=1 n=g#5 v=64
23038 Par ch=1 c=64 v=127
23061 On ch=1 n=g#5 v=50
23071 Par ch=1 c=64 v=0
23076 Off ch=1 n=a#5 v=64
23096 On ch=1 n=g5 v=42
23096 On ch=1 n=e5 v=44
23099 On ch=1 n=c#5 v=45
23099 On ch=1 n=g#4 v=44
23113 Off ch=1 n=g#5 v=64
23118 Par ch=1 c=64 v=127
23128 Par ch=1 c=64 v=0
23139 Off ch=1 n=e5 v=64
23142 Off ch=1 n=g#4 v=64
23142 Off ch=1 n=c#5 v=64
23151 Par ch=1 c=64 v=127
23158 On ch=1 n=g#5 v=50
23167 Off ch=1 n=g5 v=64
23185 Par ch=1 c=64 v=0
23208 Par ch=1 c=64 v=127
23211 On ch=1 n=g#4 v=28
23215 On ch=1 n=e5 v=35
23215 On ch=1 n=c#5 v=28
23223 On ch=1 n=a#5 v=44
23242 Off ch=1 n=g#5 v=64
23253 Par ch=1 c=64 v=0
23257 Off ch=1 n=g#4 v=64
23261 Off ch=1 n=c#5 v=64
23261 Off ch=1 n=e5 v=64
23269 On ch=1 n=c6 v=50
23287 Par ch=1 c=64 v=127
23291 Off ch=1 n=a#5 v=64
23309 Par ch=1 c=64 v=0
23319 On ch=1 n=g4 v=44
23323 On ch=1 n=e5 v=44
23323 On ch=1 n=a#4 v=44
23331 On ch=1 n=c#6 v=55
23342 Off ch=1 n=c6 v=64
23342 Par ch=1 c=64 v=127
23365 Off ch=1 n=g4 v=64
23369 Off ch=1 n=a#4 v=64
23369 Off ch=1 n=e5 v=64
23369 On ch=1 n=d#6 v=54
23376 Par ch=1 c=64 v=0
23381 Off ch=1 n=c#6 v=64
23395 On ch=1 n=c#6 v=54
23417 Par ch=1 c=64 v=0
23418 Off ch=1 n=d#6 v=64
23421 Par ch=1 c=64 v=127
23444 On ch=1 n=c6 v=61
23444 On ch=1 n=g#4 v=44
23446 Par ch=1 c=64 v=127
23451 On ch=1 n=d#5 v=45
23451 On ch=1 n=c5 v=44
23456 Off ch=1 n=c#6 v=64
23490 Off ch=1 n=g#4 v=64
23495 Par ch=1 c=64 v=0
23497 Off ch=1 n=c5 v=64
23497 Off ch=1 n=d#5 v=64
23503 On ch=1 n=c#6 v=58
23510 Off ch=1 n=c6 v=64
23520 Par ch=1 c=64 v=127
23525 Par ch=1 c=64 v=0
23548 Par ch=1 c=64 v=127
23579 On ch=1 n=d#6 v=65
23579 On ch=1 n=d#5 v=44
23579 On ch=1 n=a#4 v=36
23579 On ch=1 n=g4 v=40
23586 Off ch=1 n=c#6 v=64
23605 Par ch=1 c=64 v=0
23625 Off ch=1 n=g4 v=64
23625 Off ch=1 n=a#4 v=64
23625 Off ch=1 n=d#5 v=64
23634 Par ch=1 c=64 v=127
23665 Off ch=1 n=d#6 v=64
23701 On ch=1 n=g#4 v=54
23707 On ch=1 n=g#6 v=65
23707 On ch=1 n=f5 v=53
23707 On ch=1 n=c#5 v=54
23707 On ch=1 n=f4 v=50
23709 Par ch=1 c=64 v=0
23719 Par ch=1 c=64 v=0
23747 Par ch=1 c=64 v=127
23755 Par ch=1 c=64 v=127
23787 Off ch=1 n=g#4 v=64
23793 Off ch=1 n=f4 v=64
23793 Off ch=1 n=c#5 v=64
23793 Off ch=1 n=f5 v=64
23793 Off ch=1 n=g#6 v=64
23825 On ch=1 n=c#6 v=52
23834 Par ch=1 c=64 v=0
23848 Par ch=1 c=64 v=0
23859 On ch=1 n=d#5 v=36
23859 On ch=1 n=g#4 v=32
23859 On ch=1 n=d#4 v=37
23864 Par ch=1 c=64 v=127
23869 On ch=1 n=c6 v=49
23888 Off ch=1 n=c#6 v=64
23890 Par ch=1 c=64 v=127
23905 Off ch=1 n=d#4 v=64
23905 Off ch=1 n=g#4 v=64
23905 Off ch=1 n=d#5 v=64
23939 On ch=1 n=d#6 v=42
23945 Off ch=1 n=c6 v=64
23952 Par ch=1 c=64 v=0
23977 Par ch=1 c=64 v=127
23989 On ch=1 n=d#4 v=41
23991 On ch=1 n=c5 v=32
23993 On ch=1 n=g#5 v=55
23993 On ch=1 n=d#5 v=40
24001 Off ch=1 n=d#6 v=64
24035 Off ch=1 n=d#4 v=64
24037 Off ch=1 n=c5 v=64
24039 Off ch=1 n=d#5 v=64
24044 On ch=1 n=a5 v=49
24048 Par ch=1 c=64 v=0
24052 Off ch=1 n=g#5 v=64
24070 Par ch=1 c=64 v=0
24093 Par ch=1 c=64 v=127
24094 Par ch=1 c=64 v=127
24099 On ch=1 n=d#4 v=37
24102 On ch=1 n=d#5 v=40
24102 On ch=1 n=c#5 v=37
24103 On ch=1 n=a#5 v=50
24113 Off ch=1 n=a5 v=64
24145 Off ch=1 n=d#4 v=64
24148 Off ch=1 n=c#5 v=64
24148 Off ch=1 n=d#5 v=64
24158 On ch=1 n=c#6 v=50
24164 Off ch=1 n=a#5 v=64
24195 Par ch=1 c=64 v=0
24217 On ch=1 n=d#4 v=32
24221 On ch=1 n=f5 v=55
24221 On ch=1 n=d#5 v=37
24221 On ch=1 n=c#5 v=36
24229 Par ch=1 c=64 v=127
24239 Off ch=1 n=c#6 v=64
24241 Par ch=1 c=64 v=0
24263 Off ch=1 n=d#4 v=64
24267 Off ch=1 n=c#5 v=64
24267 Off ch=1 n=d#5 v=64
24269 Par ch=1 c=64 v=127
24275 On ch=1 n=g5 v=54
24286 Off ch=1 n=f5 v=64
24318 Par ch=1 c=64 v=0
24334 On ch=1 n=g#5 v=67
24337 On ch=1 n=c5 v=28
24339 On ch=1 n=d#5 v=44
24339 On ch=1 n=g#4 v=36
24357 Off ch=1 n=g5 v=64
24363 Par ch=1 c=64 v=127
24383 Off ch=1 n=c5 v=64
24385 Off ch=1 n=g#4 v=64
24385 Off ch=1 n=d#5 v=64
24437 Par ch=1 c=64 v=0
24465 Par ch=1 c=64 v=0
24483 On ch=1 n=d#5 v=32
24483 On ch=1 n=c5 v=23
24483 On ch=1 n=g#4 v=32
24492 Par ch=1 c=64 v=127
24519 Par ch=1 c=64 v=127
24525 On ch=1 n=a#5 v=40
24529 Off ch=1 n=g#4 v=64
24529 Off ch=1 n=c5 v=64
24529 Off ch=1 n=d#5 v=64
24545 Off ch=1 n=g#5 v=64
24565 On ch=1 n=g#5 v=59
24577 Par ch=1 c=64 v=0
24591 Off ch=1 n=a#5 v=64
24597 On ch=1 n=g5 v=54
24601 On ch=1 n=e5 v=40
24601 On ch=1 n=c#5 v=36
24601 On ch=1 n=g#4 v=32
24606 Par ch=1 c=64 v=127
24621 Off ch=1 n=g#5 v=64
24647 Off ch=1 n=g#4 v=64
24647 Off ch=1 n=c#5 v=64
24647 Off ch=1 n=e5 v=64
24662 Off ch=1 n=g5 v=64
24666 On ch=1 n=g#5 v=55
24691 Par ch=1 c=64 v=0
24706 Par ch=1 c=64 v=0
24715 On ch=1 n=a#5 v=53
24715 On ch=1 n=e5 v=31
24715 On ch=1 n=c#5 v=35
24718 On ch=1 n=g#4 v=32
24719 Par ch=1 c=64 v=127
24729 Off ch=1 n=g#5 v=64
24745 Par ch=1 c=64 v=127
24755 Off ch=1 n=c#5 v=64
24755 Off ch=1 n=e5 v=64
24758 Off ch=1 n=g#4 v=64
24765 On ch=1 n=c6 v=56
24774 Off ch=1 n=a#5 v=64
24800 Par ch=1 c=64 v=0
24819 On ch=1 n=e5 v=46
24819 On ch=1 n=g4 v=45
24820 On ch=1 n=a#4 v=46
24821 On ch=1 n=c#6 v=56
24830 Par ch=1 c=64 v=127
24838 Par ch=1 c=64 v=0
24840 Off ch=1 n=c6 v=64
24856 On ch=1 n=d#6 v=59
24860 Par ch=1 c=64 v=127
24865 Off ch=1 n=g4 v=64
24865 Off ch=1 n=e5 v=64
24866 Off ch=1 n=a#4 v=64
24878 Off ch=1 n=c#6 v=64
24897 On ch=1 n=c#6 v=55
24911 Off ch=1 n=d#6 v=64
24921 On ch=1 n=g#4 v=32
24922 On ch=1 n=d#5 v=35
24923 On ch=1 n=c6 v=56
24923 On ch=1 n=c5 v=33
24939 Off ch=1 n=c#6 v=64
24967 Off ch=1 n=g#4 v=64
24968 Off ch=1 n=d#5 v=64
24969 Off ch=1 n=c5 v=64
24972 Off ch=1 n=c6 v=64
24975 On ch=1 n=c#6 v=59
24991 Off ch=1 n=c#6 v=64
25003 On ch=1 n=c#6 v=56
25010 Par ch=1 c=64 v=0
25014 Par ch=1 c=64 v=0
25025 Off ch=1 n=c#6 v=64
25033 On ch=1 n=a#4 v=24
25033 On ch=1 n=g4 v=35
25035 On ch=1 n=d6 v=58
25035 On ch=1 n=d#5 v=36
25060 Par ch=1 c=64 v=127
25072 On ch=1 n=d#6 v=63
25079 Off ch=1 n=d6 v=64
25079 Off ch=1 n=g4 v=64
25079 Off ch=1 n=a#4 v=64
25081 Off ch=1 n=d#5 v=64
25091 Off ch=1 n=d#6 v=64
25135 On ch=1 n=d#6 v=66
25177 On ch=1 n=f5 v=51
25179 On ch=1 n=g#6 v=84
25179 On ch=1 n=c#5 v=51
25179 On ch=1 n=g#4 v=45
25179 On ch=1 n=f4 v=54
25194 Off ch=1 n=d#6 v=64
25204 Par ch=1 c=64 v=0
25232 Par ch=1 c=64 v=127
25298 Off ch=1 n=f5 v=64
25300 Off ch=1 n=f4 v=64
25300 Off ch=1 n=g#4 v=64
25300 Off ch=1 n=c#5 v=64
25300 Off ch=1 n=g#6 v=64
25412 On ch=1 n=c#6 v=40
25428 Par ch=1 c=64 v=0
25428 Par ch=1 c=64 v=0
25452 On ch=1 n=c6 v=57
25452 On ch=1 n=d#5 v=49
25452 On ch=1 n=g#4 v=45
25452 On ch=1 n=d#4 v=49
25476 Off ch=1 n=c#6 v=64
25482 Par ch=1 c=64 v=127
25485 Off ch=1 n=d#4 v=64
25486 Off ch=1 n=d#5 v=64
25498 Off ch=1 n=g#4 v=64
25509 On ch=1 n=d#6 v=50
25540 Off ch=1 n=c6 v=64
25572 On ch=1 n=g#5 v=70
25580 On ch=1 n=c5 v=52
25583 On ch=1 n=d#5 v=53
25588 On ch=1 n=d#4 v=49
25591 Off ch=1 n=d#6 v=64
25614 Off ch=1 n=d#4 v=64
25617 Off ch=1 n=d#5 v=64
25621 Off ch=1 n=c5 v=64
25623 On ch=1 n=a5 v=62
25640 Off ch=1 n=g#5 v=64
25669 Par ch=1 c=64 v=0
25691 On ch=1 n=a#5 v=58
25691 On ch=1 n=d#4 v=49
25695 On ch=1 n=d#5 v=54
25695 On ch=1 n=c#5 v=53
25701 Off ch=1 n=a5 v=64
25711 Par ch=1 c=64 v=127
25729 Off ch=1 n=d#5 v=64
25731 Off ch=1 n=d#4 v=64
25737 Off ch=1 n=c#5 v=64
25751 On ch=1 n=c#6 v=67
25765 Off ch=1 n=a#5 v=64
25807 Par ch=1 c=64 v=0
25812 On ch=1 n=d#5 v=54
25812 On ch=1 n=d#4 v=52
25813 On ch=1 n=f5 v=75
25815 On ch=1 n=c#5 v=49
25829 Par ch=1 c=64 v=127
25837 Off ch=1 n=c#6 v=64
25849 Off ch=1 n=d#5 v=64
25857 Off ch=1 n=d#4 v=64
25865 Off ch=1 n=c#5 v=64
25875 On ch=1 n=g5 v=61
25885 Off ch=1 n=f5 v=64
25945 On ch=1 n=c5 v=59
25948 On ch=1 n=g#5 v=80
25949 On ch=1 n=d#5 v=71
25953 On ch=1 n=g#4 v=59
25964 Off ch=1 n=g5 v=64
25976 Par ch=1 c=64 v=0
26210 Off ch=1 n=g#4 v=64
26215 Off ch=1 n=d#5 v=64
26222 Off ch=1 n=c5 v=64
26228 Off ch=1 n=g#5 v=64
26397 Par ch=1 c=64 v=0
26431 Par ch=1 c=64 v=0
26477 Par ch=1 c=64 v=127
26477 Meta TrkEnd
TrkEnd
MTrk
0 Meta TrkName "Played by Dr. Ron Lubetsky"
0 Meta TrkEnd
TrkEnd
MTrk
0 Meta TrkName "Jan. 12, 1"
