MFile 1 7 240
MTrk
0 TimeSig 4/4 24 8
0 Tempo 600000
0 Meta Marker "Chopin: Mazurka, Op. 6 No. 2- Sotto voce"
0 Meta TrkEnd
TrkEnd
MTrk
0 Meta TrkName "Chopin: Op. 6 No. 2"
0 PrCh ch=1 p=0
0 Par ch=1 c=7 v=127
40 Par ch=1 c=64 v=127
48 Par ch=1 c=64 v=127
53 Par ch=1 c=64 v=0
61 Par ch=1 c=64 v=0
530 Par ch=1 c=64 v=0
538 Par ch=1 c=64 v=0
605 On ch=1 n=g#5 v=36
605 On ch=1 n=d#4 v=27
613 On ch=1 n=c5 v=31
614 Par ch=1 c=64 v=127
615 On ch=1 n=g#3 v=16
622 Par ch=1 c=64 v=127
666 Off ch=1 n=d#4 v=64
673 Off ch=1 n=g#5 v=64
680 Off ch=1 n=g#3 v=64
709 Off ch=1 n=c5 v=64
771 On ch=1 n=g#5 v=35
774 On ch=1 n=a#4 v=39
778 On ch=1 n=d#4 v=31
780 Par ch=1 c=64 v=0
781 On ch=1 n=g#3 v=31
788 Par ch=1 c=64 v=0
825 Par ch=1 c=64 v=127
831 Off ch=1 n=a#4 v=64
833 Par ch=1 c=64 v=127
912 Off ch=1 n=g#5 v=64
927 On ch=1 n=c5 v=36
960 Off ch=1 n=d#4 v=64
974 Off ch=1 n=g#3 v=64
984 On ch=1 n=c#5 v=49
1001 Off ch=1 n=c5 v=64
1061 On ch=1 n=g#5 v=44
1066 On ch=1 n=d#4 v=35
1071 Par ch=1 c=64 v=0
1072 On ch=1 n=d#5 v=41
1072 On ch=1 n=g#3 v=35
1079 Par ch=1 c=64 v=0
1087 Off ch=1 n=c#5 v=64
1097 Par ch=1 c=64 v=127
1105 Par ch=1 c=64 v=127
1128 Off ch=1 n=d#4 v=64
1129 Off ch=1 n=g#3 v=64
1136 Off ch=1 n=g#5 v=64
1136 On ch=1 n=c5 v=40
1153 Off ch=1 n=d#5 v=64
1208 On ch=1 n=g#5 v=40
1208 On ch=1 n=c#5 v=48
1218 On ch=1 n=d#4 v=35
1223 On ch=1 n=g#3 v=33
1228 Par ch=1 c=64 v=0
1231 Off ch=1 n=c5 v=64
1236 Par ch=1 c=64 v=0
1270 Par ch=1 c=64 v=127
1278 Par ch=1 c=64 v=127
1338 Off ch=1 n=g#5 v=64
1394 Off ch=1 n=c#5 v=64
1413 Off ch=1 n=g#3 v=64
1416 Off ch=1 n=d#4 v=64
1444 On ch=1 n=a#4 v=32
1482 Off ch=1 n=a#4 v=64
1534 Par ch=1 c=64 v=0
1542 Par ch=1 c=64 v=0
1546 On ch=1 n=d#4 v=31
1548 On ch=1 n=g#5 v=33
1548 On ch=1 n=c5 v=45
1548 On ch=1 n=g#3 v=33
1569 Par ch=1 c=64 v=127
1577 Par ch=1 c=64 v=127
1586 On ch=1 n=c#5 v=45
1597 Off ch=1 n=c5 v=64
1598 Off ch=1 n=g#3 v=64
1601 Off ch=1 n=d#4 v=64
1628 On ch=1 n=c5 v=45
1634 Off ch=1 n=g#5 v=64
1636 Off ch=1 n=c#5 v=64
1664 Par ch=1 c=64 v=0
1672 Par ch=1 c=64 v=0
1676 On ch=1 n=a#4 v=50
1680 On ch=1 n=g#5 v=29
1683 On ch=1 n=d#4 v=29
1689 On ch=1 n=g#3 v=33
1695 Off ch=1 n=c5 v=64
1709 Par ch=1 c=64 v=127
1717 Par ch=1 c=64 v=127
1756 Off ch=1 n=a#4 v=64
1765 Off ch=1 n=g#5 v=64
1816 On ch=1 n=c5 v=37
1822 On ch=1 n=g#5 v=37
1871 Off ch=1 n=d#4 v=64
1881 Off ch=1 n=g#3 v=64
1884 On ch=1 n=c#5 v=46
1888 Off ch=1 n=c5 v=64
1910 Off ch=1 n=g#5 v=64
1951 Off ch=1 n=c#5 v=64
1953 Par ch=1 c=64 v=0
1961 Par ch=1 c=64 v=0
1968 On ch=1 n=d#5 v=44
1970 On ch=1 n=d#4 v=35
1970 On ch=1 n=g#3 v=35
1981 On ch=1 n=g#5 v=37
1996 Par ch=1 c=64 v=127
2004 Par ch=1 c=64 v=127
2013 Off ch=1 n=d#5 v=64
2025 On ch=1 n=f#5 v=33
2035 Off ch=1 n=d#4 v=64
2045 Off ch=1 n=g#3 v=64
2048 Off ch=1 n=g#5 v=64
2063 On ch=1 n=e5 v=32
2117 Off ch=1 n=f#5 v=64
2128 On ch=1 n=d#5 v=29
2137 On ch=1 n=d#4 v=32
2137 On ch=1 n=g#3 v=35
2138 Off ch=1 n=e5 v=64
2140 On ch=1 n=g#5 v=45
2148 Par ch=1 c=64 v=0
2156 Par ch=1 c=64 v=0
2214 Par ch=1 c=64 v=127
2222 Par ch=1 c=64 v=127
2268 Off ch=1 n=g#5 v=64
2328 Off ch=1 n=d#5 v=64
2350 Off ch=1 n=d#4 v=64
2357 Off ch=1 n=g#3 v=64
2433 On ch=1 n=c5 v=29
2436 On ch=1 n=g#5 v=35
2440 Par ch=1 c=64 v=0
2441 On ch=1 n=d#4 v=32
2441 On ch=1 n=g#3 v=35
2448 Par ch=1 c=64 v=0
2455 Par ch=1 c=64 v=127
2463 Par ch=1 c=64 v=127
2478 On ch=1 n=c#5 v=41
2488 Off ch=1 n=c5 v=64
2494 Off ch=1 n=d#4 v=64
2498 Off ch=1 n=g#3 v=64
2517 Off ch=1 n=g#5 v=64
2531 Off ch=1 n=c#5 v=64
2531 On ch=1 n=c5 v=41
2558 Par ch=1 c=64 v=0
2566 Par ch=1 c=64 v=0
2571 On ch=1 n=a#4 v=46
2572 On ch=1 n=g#5 v=26
2579 On ch=1 n=d#4 v=29
2587 On ch=1 n=g#3 v=27
2588 Off ch=1 n=c5 v=64
2606 Par ch=1 c=64 v=127
2614 Par ch=1 c=64 v=127
2628 Off ch=1 n=a#4 v=64
2638 Off ch=1 n=g#3 v=64
2638 Off ch=1 n=d#4 v=64
2658 Off ch=1 n=g#5 v=64
2716 On ch=1 n=g#5 v=31
2721 On ch=1 n=c5 v=37
2723 On ch=1 n=d#4 v=23
2738 On ch=1 n=g#3 v=16
2765 Off ch=1 n=d#4 v=64
2768 Off ch=1 n=g#3 v=64
2773 On ch=1 n=c#5 v=37
2777 Off ch=1 n=c5 v=64
2806 Off ch=1 n=g#5 v=64
2841 Off ch=1 n=c#5 v=64
2851 On ch=1 n=g#5 v=37
2856 Par ch=1 c=64 v=0
2858 On ch=1 n=d#4 v=27
2864 On ch=1 n=d#5 v=22
2864 On ch=1 n=g#3 v=20
2864 Par ch=1 c=64 v=0
2885 Par ch=1 c=64 v=127
2893 Par ch=1 c=64 v=127
2903 Off ch=1 n=d#5 v=64
2909 Off ch=1 n=d#4 v=64
2916 Off ch=1 n=g#5 v=64
2919 Off ch=1 n=g#3 v=64
2919 On ch=1 n=c5 v=37
2966 On ch=1 n=d#5 v=33
2976 On ch=1 n=g#5 v=36
2981 Off ch=1 n=c5 v=64
2989 On ch=1 n=c#5 v=32
2990 Par ch=1 c=64 v=0
2998 On ch=1 n=d#4 v=28
2998 Par ch=1 c=64 v=0
3010 On ch=1 n=g#3 v=20
3031 Off ch=1 n=d#5 v=64
3037 Par ch=1 c=64 v=127
3045 Par ch=1 c=64 v=127
3053 Off ch=1 n=d#4 v=64
3055 Off ch=1 n=g#3 v=64
3063 On ch=1 n=c5 v=44
3064 Off ch=1 n=c#5 v=64
3101 Off ch=1 n=g#5 v=64
3122 Off ch=1 n=c5 v=64
3122 On ch=1 n=c#5 v=46
3132 On ch=1 n=g#5 v=35
3137 On ch=1 n=d#4 v=26
3140 Par ch=1 c=64 v=0
3145 On ch=1 n=g#3 v=23
3148 Par ch=1 c=64 v=0
3163 Par ch=1 c=64 v=127
3171 Par ch=1 c=64 v=127
3182 Off ch=1 n=c#5 v=64
3191 Off ch=1 n=d#4 v=64
3197 Off ch=1 n=g#3 v=64
3197 On ch=1 n=a#4 v=46
3201 Off ch=1 n=g#5 v=64
3228 Off ch=1 n=a#4 v=64
3275 Par ch=1 c=64 v=0
3283 On ch=1 n=g#5 v=28
3283 Par ch=1 c=64 v=0
3297 On ch=1 n=d#4 v=18
3297 On ch=1 n=g#3 v=27
3299 On ch=1 n=c5 v=41
3310 Par ch=1 c=64 v=127
3318 Par ch=1 c=64 v=127
3333 On ch=1 n=c#5 v=36
3342 Off ch=1 n=c5 v=64
3342 Off ch=1 n=g#3 v=64
3342 Off ch=1 n=d#4 v=64
3379 On ch=1 n=c5 v=44
3382 Off ch=1 n=c#5 v=64
3401 Off ch=1 n=g#5 v=64
3426 On ch=1 n=g#5 v=35
3433 Par ch=1 c=64 v=0
3433 On ch=1 n=d#4 v=32
3435 On ch=1 n=a#4 v=46
3436 On ch=1 n=g#3 v=26
3441 Par ch=1 c=64 v=0
3447 Off ch=1 n=c5 v=64
3456 Par ch=1 c=64 v=127
3464 Par ch=1 c=64 v=127
3472 Off ch=1 n=a#4 v=64
3487 Off ch=1 n=d#4 v=64
3494 Off ch=1 n=g#3 v=64
3494 Off ch=1 n=g#5 v=64
3586 On ch=1 n=g#5 v=36
3586 On ch=1 n=c5 v=37
3590 On ch=1 n=d#4 v=27
3597 On ch=1 n=g#3 v=20
3636 Off ch=1 n=g#3 v=64
3639 Off ch=1 n=d#4 v=64
3639 Off ch=1 n=c5 v=64
3643 Off ch=1 n=g#5 v=64
3652 On ch=1 n=c#5 v=44
3704 Off ch=1 n=c#5 v=64
3752 On ch=1 n=d#5 v=41
3759 On ch=1 n=g#5 v=44
3771 On ch=1 n=d#4 v=24
3771 On ch=1 n=g#3 v=27
3787 Off ch=1 n=d#5 v=64
3797 Off ch=1 n=g#5 v=64
3813 Off ch=1 n=d#4 v=64
3813 On ch=1 n=f#5 v=35
3818 Off ch=1 n=g#3 v=64
3820 On ch=1 n=g#5 v=40
3853 Off ch=1 n=g#5 v=64
3856 Off ch=1 n=f#5 v=64
3875 On ch=1 n=e5 v=41
3885 On ch=1 n=g#5 v=32
3914 Off ch=1 n=g#5 v=64
3929 Off ch=1 n=e5 v=64
3951 On ch=1 n=g#5 v=40
3957 On ch=1 n=d#5 v=44
3965 On ch=1 n=d#4 v=27
3967 On ch=1 n=g#3 v=23
3970 Par ch=1 c=64 v=0
3978 Par ch=1 c=64 v=0
4022 Par ch=1 c=64 v=127
4030 Par ch=1 c=64 v=127
4040 Off ch=1 n=d#5 v=64
4058 Off ch=1 n=g#5 v=64
4121 Off ch=1 n=g#3 v=64
4135 Off ch=1 n=d#4 v=64
4222 On ch=1 n=g#5 v=53
4457 On ch=1 n=g#6 v=50
4461 Off ch=1 n=g#5 v=64
4463 Par ch=1 c=64 v=0
4465 On ch=1 n=c4 v=50
4471 Par ch=1 c=64 v=0
4519 Par ch=1 c=64 v=127
4527 Par ch=1 c=64 v=127
4597 On ch=1 n=a6 v=46
4624 Par ch=1 c=64 v=0
4632 Off ch=1 n=g#6 v=64
4632 Par ch=1 c=64 v=0
4638 On ch=1 n=g#4 v=30
4642 On ch=1 n=f#6 v=57
4649 On ch=1 n=f#5 v=34
4653 Off ch=1 n=a6 v=64
4658 On ch=1 n=d#5 v=19
4682 Off ch=1 n=g#4 v=64
4682 Par ch=1 c=64 v=127
4688 Off ch=1 n=d#5 v=64
4690 Par ch=1 c=64 v=127
4697 Off ch=1 n=f#5 v=64
4705 Off ch=1 n=c4 v=64
4799 On ch=1 n=g#4 v=37
4803 On ch=1 n=f#5 v=33
4805 On ch=1 n=d#5 v=37
4834 Off ch=1 n=d#5 v=64
4834 Off ch=1 n=f#5 v=64
4840 Off ch=1 n=g#4 v=64
4854 Off ch=1 n=f#6 v=64
4874 On ch=1 n=g#6 v=50
4939 On ch=1 n=e6 v=52
4939 On ch=1 n=c#4 v=50
4941 Par ch=1 c=64 v=0
4949 Par ch=1 c=64 v=0
4955 Off ch=1 n=g#6 v=64
4985 Par ch=1 c=64 v=127
4993 Par ch=1 c=64 v=127
5046 On ch=1 n=g#6 v=49
5053 Off ch=1 n=e6 v=64
5075 Par ch=1 c=64 v=0
5080 On ch=1 n=c#6 v=49
5083 Par ch=1 c=64 v=0
5088 On ch=1 n=g#4 v=38
5093 On ch=1 n=e5 v=30
5098 On ch=1 n=c#5 v=39
5106 Off ch=1 n=g#6 v=64
5116 Par ch=1 c=64 v=127
5124 Par ch=1 c=64 v=127
5136 Off ch=1 n=g#4 v=64
5140 Off ch=1 n=c#5 v=64
5149 Off ch=1 n=e5 v=64
5179 Off ch=1 n=c#4 v=64
5196 Off ch=1 n=c#6 v=64
5225 On ch=1 n=e5 v=25
5229 On ch=1 n=e6 v=55
5229 On ch=1 n=c#5 v=34
5234 On ch=1 n=g#4 v=31
5258 Off ch=1 n=e5 v=64
5263 Off ch=1 n=c#5 v=64
5264 Off ch=1 n=g#4 v=64
5361 Off ch=1 n=e6 v=64
5361 Par ch=1 c=64 v=0
5365 On ch=1 n=g#6 v=54
5369 Par ch=1 c=64 v=0
5378 On ch=1 n=c4 v=50
5404 Par ch=1 c=64 v=127
5412 Par ch=1 c=64 v=127
5464 Off ch=1 n=g#6 v=64
5469 On ch=1 n=a6 v=49
5490 Par ch=1 c=64 v=0
5498 Par ch=1 c=64 v=0
5507 On ch=1 n=f#6 v=50
5507 On ch=1 n=g#4 v=34
5510 On ch=1 n=d#5 v=30
5514 On ch=1 n=f#5 v=34
5518 Off ch=1 n=a6 v=64
5545 Par ch=1 c=64 v=127
5546 Off ch=1 n=d#5 v=64
5549 Off ch=1 n=g#4 v=64
5553 Par ch=1 c=64 v=127
5568 Off ch=1 n=f#5 v=64
5618 Off ch=1 n=c4 v=64
5649 On ch=1 n=f#5 v=30
5650 On ch=1 n=g#4 v=34
5653 Off ch=1 n=f#6 v=64
5654 On ch=1 n=g#6 v=55
5659 On ch=1 n=d#5 v=19
5676 Off ch=1 n=d#5 v=64
5687 Off ch=1 n=f#5 v=64
5692 Off ch=1 n=g#4 v=64
5777 Par ch=1 c=64 v=0
5784 On ch=1 n=e6 v=50
5785 Par ch=1 c=64 v=0
5793 Off ch=1 n=g#6 v=64
5795 On ch=1 n=c#4 v=44
5834 Par ch=1 c=64 v=127
5842 Par ch=1 c=64 v=127
5853 On ch=1 n=f#6 v=41
5862 Off ch=1 n=e6 v=64
5885 On ch=1 n=g#6 v=59
5902 Off ch=1 n=f#6 v=64
5921 Off ch=1 n=g#6 v=64
5944 On ch=1 n=g#6 v=58
5964 On ch=1 n=c#5 v=39
5974 On ch=1 n=g#4 v=20
5978 Par ch=1 c=64 v=0
5979 On ch=1 n=c#6 v=55
5983 On ch=1 n=e5 v=18
5986 Par ch=1 c=64 v=0
6000 Off ch=1 n=g#6 v=64
6032 Off ch=1 n=c#4 v=64
6034 Par ch=1 c=64 v=127
6042 Par ch=1 c=64 v=127
6062 Off ch=1 n=c#5 v=64
6065 Off ch=1 n=e5 v=64
6076 Off ch=1 n=g#4 v=64
6191 Off ch=1 n=c#6 v=64
6229 On ch=1 n=d6 v=55
6328 On ch=1 n=d#6 v=66
6329 Par ch=1 c=64 v=0
6330 On ch=1 n=g3 v=42
6334 Off ch=1 n=d6 v=64
6337 Par ch=1 c=64 v=0
6382 Par ch=1 c=64 v=127
6390 Par ch=1 c=64 v=127
6436 On ch=1 n=e6 v=59
6446 Off ch=1 n=d#6 v=64
6446 Par ch=1 c=64 v=0
6454 Par ch=1 c=64 v=0
6475 On ch=1 n=a#4 v=33
6477 On ch=1 n=c#6 v=72
6477 On ch=1 n=c#5 v=33
6481 On ch=1 n=d#4 v=17
6497 Off ch=1 n=e6 v=64
6512 Off ch=1 n=c#5 v=64
6523 Off ch=1 n=d#4 v=64
6524 Off ch=1 n=a#4 v=64
6526 Par ch=1 c=64 v=127
6534 Par ch=1 c=64 v=127
6552 Par ch=1 c=64 v=127
6560 Par ch=1 c=64 v=127
6567 Off ch=1 n=g3 v=64
6571 Par ch=1 c=64 v=0
6579 Par ch=1 c=64 v=0
6607 On ch=1 n=c#5 v=49
6613 On ch=1 n=d#4 v=48
6615 On ch=1 n=a#4 v=34
6643 Off ch=1 n=a#4 v=64
6653 Off ch=1 n=c#5 v=64
6659 Off ch=1 n=d#4 v=64
6679 On ch=1 n=d#6 v=61
6687 Off ch=1 n=c#6 v=64
6736 On ch=1 n=c6 v=63
6746 Par ch=1 c=64 v=0
6754 Par ch=1 c=64 v=0
6756 On ch=1 n=g#3 v=61
6759 Off ch=1 n=d#6 v=64
6789 Par ch=1 c=64 v=127
6797 Par ch=1 c=64 v=127
6847 Off ch=1 n=c6 v=64
6847 On ch=1 n=d#6 v=46
6870 Par ch=1 c=64 v=0
6878 Par ch=1 c=64 v=0
6887 On ch=1 n=g#5 v=59
6898 Off ch=1 n=d#6 v=64
6898 On ch=1 n=f#4 v=42
6903 On ch=1 n=c5 v=44
6903 On ch=1 n=d#4 v=39
6912 Par ch=1 c=64 v=127
6920 Par ch=1 c=64 v=127
6936 Off ch=1 n=d#4 v=64
6941 Off ch=1 n=f#4 v=64
6944 Off ch=1 n=c5 v=64
6978 Off ch=1 n=g#5 v=64
6996 Off ch=1 n=g#3 v=64
7031 On ch=1 n=b5 v=59
7049 On ch=1 n=c5 v=51
7053 On ch=1 n=f#4 v=40
7053 On ch=1 n=d#4 v=50
7067 On ch=1 n=a5 v=48
7068 Off ch=1 n=b5 v=64
7093 Off ch=1 n=d#4 v=64
7095 On ch=1 n=b5 v=71
7098 Off ch=1 n=f#4 v=64
7101 Off ch=1 n=c5 v=64
7103 Off ch=1 n=a5 v=64
7126 On ch=1 n=a5 v=63
7128 Off ch=1 n=b5 v=64
7157 On ch=1 n=b5 v=68
7165 Off ch=1 n=a5 v=64
7181 On ch=1 n=a5 v=62
7190 Off ch=1 n=b5 v=64
7205 Par ch=1 c=64 v=0
7208 On ch=1 n=g#5 v=76
7213 Par ch=1 c=64 v=0
7221 Off ch=1 n=a5 v=64
7221 On ch=1 n=g#3 v=48
7242 Off ch=1 n=g#5 v=64
7264 Par ch=1 c=64 v=127
7272 Par ch=1 c=64 v=127
7328 On ch=1 n=f#5 v=49
7340 Par ch=1 c=64 v=0
7348 Par ch=1 c=64 v=0
7368 On ch=1 n=f#4 v=41
7369 On ch=1 n=c5 v=48
7369 On ch=1 n=d#4 v=45
7372 On ch=1 n=d#5 v=68
7378 Off ch=1 n=f#5 v=64
7407 Par ch=1 c=64 v=127
7413 Off ch=1 n=d#4 v=64
7414 Off ch=1 n=f#4 v=64
7415 Par ch=1 c=64 v=127
7424 Off ch=1 n=c5 v=64
7461 Off ch=1 n=g#3 v=64
7522 On ch=1 n=g#5 v=70
7525 On ch=1 n=f#4 v=31
7528 On ch=1 n=c5 v=35
7529 On ch=1 n=d#4 v=41
7541 Off ch=1 n=d#5 v=64
7565 Off ch=1 n=g#5 v=64
7570 Off ch=1 n=c5 v=64
7573 Off ch=1 n=d#4 v=64
7573 Off ch=1 n=f#4 v=64
7674 On ch=1 n=g#5 v=54
7694 Par ch=1 c=64 v=0
7694 On ch=1 n=c#3 v=57
7702 Par ch=1 c=64 v=0
7709 On ch=1 n=c#5 v=66
7719 Off ch=1 n=g#5 v=64
7740 Par ch=1 c=64 v=127
7748 Par ch=1 c=64 v=127
7870 On ch=1 n=c#4 v=48
7910 On ch=1 n=g#4 v=39
7931 Off ch=1 n=c#3 v=64
7941 On ch=1 n=e5 v=55
8110 Off ch=1 n=c#4 v=64
8139 On ch=1 n=g#5 v=57
8151 Off ch=1 n=e5 v=64
8165 Off ch=1 n=g#4 v=64
8175 Off ch=1 n=c#5 v=64
8317 Par ch=1 c=64 v=0
8319 On ch=1 n=g#6 v=58
8319 On ch=1 n=c4 v=61
8325 Par ch=1 c=64 v=0
8379 Par ch=1 c=64 v=127
8387 Par ch=1 c=64 v=127
8422 On ch=1 n=a6 v=58
8429 Par ch=1 c=64 v=0
8431 Off ch=1 n=g#5 v=64
8433 Off ch=1 n=g#6 v=64
8437 Par ch=1 c=64 v=0
8470 On ch=1 n=f#6 v=65
8470 On ch=1 n=g#4 v=49
8474 On ch=1 n=f#5 v=24
8474 On ch=1 n=d#5 v=37
8484 Off ch=1 n=a6 v=64
8492 Par ch=1 c=64 v=127
8500 Par ch=1 c=64 v=127
8512 Off ch=1 n=d#5 v=64
8520 Off ch=1 n=f#5 v=64
8525 Off ch=1 n=g#4 v=64
8559 Off ch=1 n=c4 v=64
8610 On ch=1 n=f#5 v=56
8610 On ch=1 n=d#5 v=51
8610 On ch=1 n=g#4 v=30
8645 Off ch=1 n=d#5 v=64
8649 Off ch=1 n=f#5 v=64
8654 Off ch=1 n=g#4 v=64
8687 On ch=1 n=g#6 v=52
8698 Off ch=1 n=f#6 v=64
8743 Par ch=1 c=64 v=0
8743 On ch=1 n=e6 v=59
8743 On ch=1 n=c#4 v=63
8751 Par ch=1 c=64 v=0
8759 Off ch=1 n=g#6 v=64
8808 Par ch=1 c=64 v=127
8816 Par ch=1 c=64 v=127
8849 On ch=1 n=g#6 v=54
8853 Par ch=1 c=64 v=0
8861 Off ch=1 n=e6 v=64
8861 Par ch=1 c=64 v=0
8882 On ch=1 n=e5 v=46
8884 On ch=1 n=c#6 v=70
8887 On ch=1 n=c#5 v=40
8887 On ch=1 n=g#4 v=30
8909 Off ch=1 n=g#6 v=64
8914 Par ch=1 c=64 v=127
8922 Off ch=1 n=e5 v=64
8922 Par ch=1 c=64 v=127
8930 Off ch=1 n=g#4 v=64
8940 Off ch=1 n=c#5 v=64
8980 Off ch=1 n=c#4 v=64
9019 On ch=1 n=e6 v=61
9019 On ch=1 n=c#5 v=49
9025 Off ch=1 n=c#6 v=64
9025 On ch=1 n=e5 v=49
9025 On ch=1 n=g#4 v=40
9054 Off ch=1 n=g#4 v=64
9057 Off ch=1 n=e5 v=64
9057 Off ch=1 n=c#5 v=64
9158 On ch=1 n=g#6 v=65
9164 Par ch=1 c=64 v=0
9166 Off ch=1 n=e6 v=64
9172 Par ch=1 c=64 v=0
9178 On ch=1 n=c4 v=53
9213 Par ch=1 c=64 v=127
9221 Par ch=1 c=64 v=127
9252 Off ch=1 n=g#6 v=64
9252 On ch=1 n=a6 v=63
9291 Par ch=1 c=64 v=0
9299 Par ch=1 c=64 v=0
9311 On ch=1 n=d#5 v=35
9314 Off ch=1 n=a6 v=64
9319 On ch=1 n=f#5 v=46
9320 On ch=1 n=g#4 v=45
9329 On ch=1 n=f#6 v=71
9353 Off ch=1 n=d#5 v=64
9364 Par ch=1 c=64 v=127
9365 Off ch=1 n=g#4 v=64
9368 Off ch=1 n=f#5 v=64
9372 Par ch=1 c=64 v=127
9418 Off ch=1 n=c4 v=64
9456 Off ch=1 n=f#6 v=64
9480 On ch=1 n=g#6 v=57
9490 On ch=1 n=f#5 v=49
9490 On ch=1 n=d#5 v=48
9490 On ch=1 n=g#4 v=42
9520 Off ch=1 n=f#5 v=64
9526 Off ch=1 n=d#5 v=64
9530 Off ch=1 n=g#4 v=64
9582 Off ch=1 n=g#6 v=64
9653 On ch=1 n=c#4 v=53
9654 On ch=1 n=e6 v=58
9656 Par ch=1 c=64 v=0
9664 Par ch=1 c=64 v=0
9691 Par ch=1 c=64 v=127
9699 Par ch=1 c=64 v=127
9720 On ch=1 n=f#6 v=66
9742 Off ch=1 n=e6 v=64
9772 On ch=1 n=g#6 v=66
9791 Off ch=1 n=f#6 v=64
9794 Off ch=1 n=g#6 v=64
9800 Par ch=1 c=64 v=0
9808 Par ch=1 c=64 v=0
9815 On ch=1 n=g#6 v=76
9851 On ch=1 n=c#6 v=70
9851 On ch=1 n=e5 v=46
9855 On ch=1 n=c#5 v=46
9855 On ch=1 n=g#4 v=22
9860 Off ch=1 n=g#6 v=64
9878 Par ch=1 c=64 v=127
9886 Par ch=1 c=64 v=127
9893 Off ch=1 n=c#4 v=64
9935 Off ch=1 n=e5 v=64
9943 Off ch=1 n=g#4 v=64
9953 Off ch=1 n=c#5 v=64
10105 On ch=1 n=d6 v=65
10109 Off ch=1 n=c#6 v=64
10187 On ch=1 n=g3 v=52
10194 On ch=1 n=d#6 v=61
10224 Off ch=1 n=d6 v=64
10301 Off ch=1 n=d#6 v=64
10301 On ch=1 n=e6 v=55
10310 Par ch=1 c=64 v=0
10318 Par ch=1 c=64 v=0
10328 On ch=1 n=c#5 v=48
10334 On ch=1 n=d#4 v=24
10338 On ch=1 n=c#6 v=74
10338 On ch=1 n=a#4 v=48
10361 Off ch=1 n=e6 v=64
10387 Off ch=1 n=a#4 v=64
10387 Off ch=1 n=c#5 v=64
10388 Off ch=1 n=d#4 v=64
10424 Off ch=1 n=g3 v=64
10470 On ch=1 n=c#5 v=50
10478 On ch=1 n=d#4 v=44
10481 On ch=1 n=a#4 v=24
10503 Par ch=1 c=64 v=127
10510 Off ch=1 n=a#4 v=64
10511 Par ch=1 c=64 v=127
10517 Off ch=1 n=c#5 v=64
10527 Off ch=1 n=d#4 v=64
10545 On ch=1 n=d#6 v=63
10560 Off ch=1 n=c#6 v=64
10563 Par ch=1 c=64 v=0
10571 Par ch=1 c=64 v=0
10606 On ch=1 n=c6 v=62
10614 On ch=1 n=g#3 v=66
10625 Off ch=1 n=d#6 v=64
10643 Par ch=1 c=64 v=127
10651 Par ch=1 c=64 v=127
10707 On ch=1 n=d#6 v=62
10714 Off ch=1 n=c6 v=64
10720 Par ch=1 c=64 v=0
10728 Par ch=1 c=64 v=0
10743 Par ch=1 c=64 v=127
10751 Par ch=1 c=64 v=127
10758 On ch=1 n=g#5 v=55
10758 On ch=1 n=d#4 v=41
10763 On ch=1 n=c5 v=31
10768 Off ch=1 n=d#6 v=64
10799 Off ch=1 n=d#4 v=64
10805 Off ch=1 n=c5 v=64
10828 Off ch=1 n=g#5 v=64
10854 Off ch=1 n=g#3 v=64
10894 On ch=1 n=b5 v=66
10905 On ch=1 n=f#4 v=45
10911 On ch=1 n=c5 v=42
10911 On ch=1 n=d#4 v=42
10933 On ch=1 n=a5 v=55
10936 Off ch=1 n=b5 v=64
10950 Off ch=1 n=d#4 v=64
10955 Off ch=1 n=c5 v=64
10959 Off ch=1 n=f#4 v=64
10963 On ch=1 n=b5 v=70
10971 Off ch=1 n=a5 v=64
10992 Off ch=1 n=b5 v=64
10994 On ch=1 n=a5 v=63
11021 On ch=1 n=b5 v=61
11048 Off ch=1 n=b5 v=64
11068 On ch=1 n=g#5 v=87
11072 Par ch=1 c=64 v=0
11076 Off ch=1 n=a5 v=64
11080 On ch=1 n=g#3 v=61
11080 Par ch=1 c=64 v=0
11104 Off ch=1 n=g#5 v=64
11116 Par ch=1 c=64 v=127
11124 Par ch=1 c=64 v=127
11185 On ch=1 n=f#5 v=63
11195 Par ch=1 c=64 v=0
11203 Par ch=1 c=64 v=0
11206 Off ch=1 n=f#5 v=64
11216 On ch=1 n=f#4 v=48
11218 On ch=1 n=d#4 v=52
11225 On ch=1 n=c5 v=44
11232 On ch=1 n=d#5 v=68
11255 Par ch=1 c=64 v=127
11263 Par ch=1 c=64 v=127
11268 Off ch=1 n=d#4 v=64
11271 Off ch=1 n=f#4 v=64
11280 Off ch=1 n=c5 v=64
11317 Off ch=1 n=g#3 v=64
11375 On ch=1 n=c5 v=45
11383 On ch=1 n=g#5 v=75
11389 On ch=1 n=d#4 v=33
11391 On ch=1 n=f#4 v=33
11409 Off ch=1 n=c5 v=64
11413 Off ch=1 n=d#4 v=64
11414 Off ch=1 n=f#4 v=64
11414 Off ch=1 n=d#5 v=64
11431 Off ch=1 n=g#5 v=64
11520 On ch=1 n=g#5 v=50
11545 Par ch=1 c=64 v=0
11547 On ch=1 n=c#5 v=72
11553 Par ch=1 c=64 v=0
11561 On ch=1 n=c#3 v=61
11567 Off ch=1 n=g#5 v=64
11596 Par ch=1 c=64 v=127
11604 Par ch=1 c=64 v=127
11717 On ch=1 n=c#4 v=40
11778 On ch=1 n=g#4 v=55
11801 Off ch=1 n=c#3 v=64
11811 On ch=1 n=e5 v=50
11855 Off ch=1 n=c#5 v=64
11922 On ch=1 n=d5 v=50
11981 Off ch=1 n=c#4 v=64
12051 Par ch=1 c=64 v=0
12053 Off ch=1 n=g#4 v=64
12056 Off ch=1 n=e5 v=64
12059 Par ch=1 c=64 v=0
12070 On ch=1 n=d#5 v=53
12076 On ch=1 n=g#3 v=53
12083 Off ch=1 n=d5 v=64
12104 Par ch=1 c=64 v=127
12112 Par ch=1 c=64 v=127
12197 On ch=1 n=g5 v=46
12203 Par ch=1 c=64 v=0
12211 Par ch=1 c=64 v=0
12227 Off ch=1 n=d#5 v=64
12239 On ch=1 n=d#4 v=35
12243 On ch=1 n=c5 v=37
12244 Off ch=1 n=g5 v=64
12247 On ch=1 n=g#4 v=36
12251 On ch=1 n=g#5 v=46
12256 Par ch=1 c=64 v=127
12259 Par ch=1 c=64 v=0
12264 Off ch=1 n=g#4 v=64
12264 Par ch=1 c=64 v=127
12267 Par ch=1 c=64 v=0
12300 Par ch=1 c=64 v=127
12301 Off ch=1 n=d#4 v=64
12305 Off ch=1 n=c5 v=64
12308 Par ch=1 c=64 v=127
12316 Off ch=1 n=g#3 v=64
12364 Off ch=1 n=g#5 v=64
12371 On ch=1 n=c6 v=50
12375 On ch=1 n=c5 v=31
12375 On ch=1 n=d#4 v=35
12382 On ch=1 n=g#4 v=36
12411 Off ch=1 n=c5 v=64
12416 Off ch=1 n=g#4 v=64
12417 Off ch=1 n=d#4 v=64
12449 Off ch=1 n=c6 v=64
12455 On ch=1 n=d#6 v=55
12506 Par ch=1 c=64 v=0
12508 Off ch=1 n=d#6 v=64
12514 Par ch=1 c=64 v=0
12525 On ch=1 n=d#5 v=55
12525 On ch=1 n=g#3 v=57
12537 Par ch=1 c=64 v=127
12545 Par ch=1 c=64 v=127
12560 Off ch=1 n=d#5 v=64
12627 On ch=1 n=g5 v=54
12660 On ch=1 n=g#5 v=52
12666 On ch=1 n=g#4 v=33
12666 On ch=1 n=d#4 v=37
12671 On ch=1 n=c5 v=24
12694 Off ch=1 n=g5 v=64
12710 Off ch=1 n=d#4 v=64
12711 Off ch=1 n=c5 v=64
12719 Off ch=1 n=g#4 v=64
12752 Off ch=1 n=g#5 v=64
12752 On ch=1 n=c6 v=49
12762 Off ch=1 n=g#3 v=64
12796 On ch=1 n=c5 v=31
12800 On ch=1 n=g#4 v=40
12807 On ch=1 n=d#6 v=55
12809 On ch=1 n=d#4 v=27
12824 Off ch=1 n=c6 v=64
12839 Off ch=1 n=c5 v=64
12840 Off ch=1 n=d#4 v=64
12858 Off ch=1 n=g#4 v=64
12897 Off ch=1 n=d#6 v=64
12927 Par ch=1 c=64 v=0
12935 Par ch=1 c=64 v=0
12943 On ch=1 n=d6 v=48
12943 On ch=1 n=a#4 v=46
12943 On ch=1 n=g#4 v=46
12944 On ch=1 n=f4 v=44
12978 Par ch=1 c=64 v=127
12986 Par ch=1 c=64 v=127
13003 Off ch=1 n=g#4 v=64
13025 Off ch=1 n=d6 v=64
13034 Off ch=1 n=f4 v=64
13044 On ch=1 n=a#5 v=46
13054 Par ch=1 c=64 v=0
13062 Par ch=1 c=64 v=0
13076 On ch=1 n=c#6 v=46
13076 On ch=1 n=d#4 v=44
13084 On ch=1 n=g4 v=44
13116 Par ch=1 c=64 v=127
13117 Off ch=1 n=a#5 v=64
13124 Par ch=1 c=64 v=127
13138 Off ch=1 n=d#4 v=64
13141 Off ch=1 n=g4 v=64
13203 Off ch=1 n=c#6 v=64
13214 Par ch=1 c=64 v=0
13220 On ch=1 n=c6 v=50
13222 Par ch=1 c=64 v=0
13228 On ch=1 n=g#4 v=50
13232 On ch=1 n=g#3 v=55
13235 Off ch=1 n=a#4 v=64
13251 Par ch=1 c=64 v=127
13259 Par ch=1 c=64 v=127
13266 Off ch=1 n=g#3 v=64
13278 Off ch=1 n=g#4 v=64
13288 On ch=1 n=g#5 v=62
13291 Off ch=1 n=c6 v=64
13344 Off ch=1 n=g#5 v=64
13352 Par ch=1 c=64 v=0
13360 Par ch=1 c=64 v=0
13370 On ch=1 n=d6 v=49
13370 On ch=1 n=g#4 v=44
13379 On ch=1 n=a#4 v=40
13386 On ch=1 n=f4 v=31
13398 Par ch=1 c=64 v=127
13406 Par ch=1 c=64 v=127
13430 On ch=1 n=a#5 v=58
13432 Off ch=1 n=d6 v=64
13434 Off ch=1 n=g#4 v=64
13458 On ch=1 n=c6 v=50
13489 Off ch=1 n=a#5 v=64
13489 On ch=1 n=g4 v=45
13496 Par ch=1 c=64 v=0
13500 On ch=1 n=c#6 v=59
13504 Par ch=1 c=64 v=0
13508 Off ch=1 n=f4 v=64
13519 Off ch=1 n=c6 v=64
13522 On ch=1 n=d#4 v=42
13552 Par ch=1 c=64 v=127
13560 Par ch=1 c=64 v=127
13590 Off ch=1 n=d#4 v=64
13590 Off ch=1 n=g4 v=64
13649 Par ch=1 c=64 v=0
13657 Par ch=1 c=64 v=0
13664 On ch=1 n=c6 v=49
13668 On ch=1 n=g#4 v=36
13674 Off ch=1 n=a#4 v=64
13676 On ch=1 n=g#3 v=58
13681 Par ch=1 c=64 v=127
13685 Off ch=1 n=c#6 v=64
13689 Par ch=1 c=64 v=127
13707 Off ch=1 n=g#4 v=64
13718 Off ch=1 n=g#3 v=64
13723 Off ch=1 n=c6 v=64
13749 On ch=1 n=g#5 v=55
13774 Off ch=1 n=g#5 v=64
13806 Par ch=1 c=64 v=0
13814 On ch=1 n=g#2 v=53
13814 Par ch=1 c=64 v=0
13821 On ch=1 n=g#3 v=24
13829 On ch=1 n=d#5 v=57
13838 Par ch=1 c=64 v=0
13846 Par ch=1 c=64 v=0
13854 Par ch=1 c=64 v=127
13862 Par ch=1 c=64 v=127
13879 Par ch=1 c=64 v=127
13887 Par ch=1 c=64 v=127
13942 On ch=1 n=g5 v=54
13953 Par ch=1 c=64 v=0
13958 On ch=1 n=d#4 v=36
13961 Par ch=1 c=64 v=0
13969 On ch=1 n=c5 v=40
13969 On ch=1 n=g#4 v=22
13976 Off ch=1 n=d#5 v=64
13976 On ch=1 n=g#5 v=55
13996 Par ch=1 c=64 v=127
14001 Off ch=1 n=g5 v=64
14004 Par ch=1 c=64 v=127
14011 Off ch=1 n=d#4 v=64
14014 Off ch=1 n=c5 v=64
14017 Off ch=1 n=g#4 v=64
14054 Off ch=1 n=g#2 v=64
14061 Off ch=1 n=g#3 v=64
14082 Par ch=1 c=64 v=0
14090 Par ch=1 c=64 v=0
14102 Off ch=1 n=g#5 v=64
14109 On ch=1 n=c6 v=50
14109 On ch=1 n=c5 v=42
14116 On ch=1 n=g#4 v=28
14119 On ch=1 n=d#4 v=35
14126 Par ch=1 c=64 v=127
14134 Par ch=1 c=64 v=127
14149 Off ch=1 n=g#4 v=64
14151 Off ch=1 n=c5 v=64
14155 Off ch=1 n=d#4 v=64
14176 On ch=1 n=d#6 v=58
14179 Off ch=1 n=c6 v=64
14224 Par ch=1 c=64 v=0
14232 Par ch=1 c=64 v=0
14247 On ch=1 n=g#3 v=58
14251 On ch=1 n=d#5 v=61
14265 Par ch=1 c=64 v=127
14273 Par ch=1 c=64 v=127
14282 Off ch=1 n=d#6 v=64
14283 Off ch=1 n=d#5 v=64
14339 On ch=1 n=g5 v=58
14366 Par ch=1 c=64 v=0
14374 Par ch=1 c=64 v=0
14381 On ch=1 n=g#5 v=55
14384 On ch=1 n=d#4 v=40
14388 On ch=1 n=c5 v=37
14388 On ch=1 n=g#4 v=36
14410 Off ch=1 n=g5 v=64
14410 Par ch=1 c=64 v=127
14418 Par ch=1 c=64 v=127
14433 Off ch=1 n=d#4 v=64
14438 Off ch=1 n=g#4 v=64
14440 Off ch=1 n=c5 v=64
14460 On ch=1 n=c6 v=53
14472 Off ch=1 n=g#5 v=64
14487 Off ch=1 n=g#3 v=64
14490 Par ch=1 c=64 v=0
14498 Par ch=1 c=64 v=0
14522 On ch=1 n=g#4 v=40
14525 On ch=1 n=d#4 v=31
14529 On ch=1 n=d#6 v=66
14531 On ch=1 n=c5 v=28
14533 Par ch=1 c=64 v=127
14541 Par ch=1 c=64 v=127
14546 Off ch=1 n=c6 v=64
14572 Off ch=1 n=c5 v=64
14580 Off ch=1 n=d#4 v=64
14580 Off ch=1 n=g#4 v=64
14636 Off ch=1 n=d#6 v=64
14641 Par ch=1 c=64 v=0
14649 Par ch=1 c=64 v=0
14669 On ch=1 n=d6 v=50
14669 On ch=1 n=g#4 v=49
14673 On ch=1 n=a#4 v=58
14682 On ch=1 n=f4 v=31
14698 Par ch=1 c=64 v=127
14706 Par ch=1 c=64 v=127
14736 Off ch=1 n=g#4 v=64
14750 On ch=1 n=a#5 v=67
14762 Off ch=1 n=d6 v=64
14772 Off ch=1 n=f4 v=64
14790 Par ch=1 c=64 v=0
14798 Par ch=1 c=64 v=0
14806 On ch=1 n=c#6 v=50
14807 On ch=1 n=g4 v=49
14810 On ch=1 n=d#4 v=45
14825 Off ch=1 n=a#5 v=64
14834 Par ch=1 c=64 v=127
14842 Par ch=1 c=64 v=127
14875 Off ch=1 n=g4 v=64
14878 Off ch=1 n=d#4 v=64
14912 Off ch=1 n=c#6 v=64
14932 Par ch=1 c=64 v=0
14940 Par ch=1 c=64 v=0
14956 On ch=1 n=c6 v=50
14956 On ch=1 n=g#4 v=53
14960 On ch=1 n=g#3 v=55
14968 Off ch=1 n=a#4 v=64
15002 Par ch=1 c=64 v=127
15010 Par ch=1 c=64 v=127
15038 On ch=1 n=g#5 v=53
15039 Off ch=1 n=g#3 v=64
15042 Off ch=1 n=g#4 v=64
15061 Off ch=1 n=c6 v=64
15072 Par ch=1 c=64 v=0
15080 Par ch=1 c=64 v=0
15098 On ch=1 n=g#6 v=65
15107 Off ch=1 n=g#5 v=64
15127 Par ch=1 c=64 v=127
15135 Par ch=1 c=64 v=127
15222 Off ch=1 n=g#6 v=64
15222 On ch=1 n=g#5 v=66
15227 Par ch=1 c=64 v=0
15235 Par ch=1 c=64 v=0
15268 On ch=1 n=g#6 v=59
15294 Off ch=1 n=g#5 v=64
15294 Par ch=1 c=64 v=127
15302 Par ch=1 c=64 v=127
15410 Off ch=1 n=g#6 v=64
15419 On ch=1 n=g#5 v=58
15469 On ch=1 n=g#6 v=62
15500 Off ch=1 n=g#5 v=64
15651 Off ch=1 n=g#6 v=64
15654 On ch=1 n=g#5 v=48
15750 Par ch=1 c=64 v=0
15752 On ch=1 n=c4 v=50
15758 Par ch=1 c=64 v=0
15763 On ch=1 n=g#6 v=49
15781 Off ch=1 n=g#5 v=64
15798 Par ch=1 c=64 v=127
15806 Par ch=1 c=64 v=127
15926 Off ch=1 n=g#6 v=64
15927 On ch=1 n=a6 v=44
15953 Par ch=1 c=64 v=0
15956 On ch=1 n=g#4 v=27
15961 Par ch=1 c=64 v=0
15965 On ch=1 n=f#5 v=30
15975 On ch=1 n=f#6 v=59
15975 On ch=1 n=d#5 v=20
15987 Off ch=1 n=a6 v=64
15992 Off ch=1 n=c4 v=64
15996 Par ch=1 c=64 v=127
16004 Par ch=1 c=64 v=127
16012 Off ch=1 n=d#5 v=64
16015 Off ch=1 n=g#4 v=64
16022 Off ch=1 n=f#5 v=64
16112 On ch=1 n=f#5 v=37
16112 On ch=1 n=g#4 v=39
16116 On ch=1 n=d#5 v=37
16142 Off ch=1 n=d#5 v=64
16143 Off ch=1 n=f#5 v=64
16149 Off ch=1 n=g#4 v=64
16166 Off ch=1 n=f#6 v=64
16166 On ch=1 n=g#6 v=44
16218 Par ch=1 c=64 v=0
16226 Par ch=1 c=64 v=0
16233 On ch=1 n=e6 v=54
16234 On ch=1 n=c#4 v=58
16249 Off ch=1 n=g#6 v=64
16266 Par ch=1 c=64 v=127
16274 Par ch=1 c=64 v=127
16322 On ch=1 n=g#6 v=55
16332 Par ch=1 c=64 v=0
16340 Par ch=1 c=64 v=0
16344 Off ch=1 n=e6 v=64
16352 On ch=1 n=e5 v=30
16359 On ch=1 n=g#4 v=24
16364 On ch=1 n=c#5 v=34
16366 On ch=1 n=c#6 v=62
16371 Off ch=1 n=g#6 v=64
16404 Off ch=1 n=g#4 v=64
16407 Par ch=1 c=64 v=127
16415 Par ch=1 c=64 v=127
16420 Off ch=1 n=c#5 v=64
16421 Off ch=1 n=e5 v=64
16464 Par ch=1 c=64 v=0
16471 Off ch=1 n=c#4 v=64
16472 Par ch=1 c=64 v=0
16490 On ch=1 n=e6 v=54
16496 On ch=1 n=e5 v=45
16500 On ch=1 n=c#5 v=41
16502 Off ch=1 n=c#6 v=64
16505 On ch=1 n=g#4 v=26
16520 Par ch=1 c=64 v=127
16525 Off ch=1 n=g#4 v=64
16525 Off ch=1 n=c#5 v=64
16528 Par ch=1 c=64 v=127
16537 Off ch=1 n=e5 v=64
16616 Par ch=1 c=64 v=0
16624 Par ch=1 c=64 v=0
16630 Off ch=1 n=e6 v=64
16630 On ch=1 n=g#6 v=54
16635 On ch=1 n=c4 v=40
16667 Par ch=1 c=64 v=127
16675 Par ch=1 c=64 v=127
16724 Off ch=1 n=g#6 v=64
16729 On ch=1 n=a6 v=53
16743 Par ch=1 c=64 v=0
16751 Par ch=1 c=64 v=0
16771 On ch=1 n=g#4 v=39
16773 On ch=1 n=f#6 v=55
16773 On ch=1 n=f#5 v=49
16775 On ch=1 n=d#5 v=42
16789 Off ch=1 n=a6 v=64
16795 Par ch=1 c=64 v=127
16803 Par ch=1 c=64 v=127
16809 Off ch=1 n=g#4 v=64
16810 Off ch=1 n=d#5 v=64
16812 Off ch=1 n=f#5 v=64
16812 Par ch=1 c=64 v=127
16820 Par ch=1 c=64 v=127
16857 Par ch=1 c=64 v=0
16865 Par ch=1 c=64 v=0
16875 Off ch=1 n=c4 v=64
16891 Off ch=1 n=f#6 v=64
16903 On ch=1 n=g#6 v=50
16907 On ch=1 n=f#5 v=38
16907 On ch=1 n=d#5 v=39
16912 On ch=1 n=g#4 v=35
16939 Off ch=1 n=f#5 v=64
16947 Off ch=1 n=d#5 v=64
16950 Off ch=1 n=g#4 v=64
17011 Off ch=1 n=g#6 v=64
17038 Par ch=1 c=64 v=0
17040 On ch=1 n=e6 v=49
17046 Par ch=1 c=64 v=0
17052 On ch=1 n=c#4 v=50
17086 Par ch=1 c=64 v=127
17094 Par ch=1 c=64 v=127
17108 On ch=1 n=f#6 v=46
17123 Off ch=1 n=e6 v=64
17155 On ch=1 n=g#6 v=48
17169 Off ch=1 n=f#6 v=64
17179 Off ch=1 n=g#6 v=64
17195 Par ch=1 c=64 v=0
17200 On ch=1 n=g#6 v=48
17203 Par ch=1 c=64 v=0
17222 On ch=1 n=g#4 v=28
17237 On ch=1 n=c#6 v=58
17237 On ch=1 n=e5 v=20
17242 On ch=1 n=c#5 v=24
17259 Par ch=1 c=64 v=127
17267 Par ch=1 c=64 v=127
17269 Off ch=1 n=g#6 v=64
17279 Off ch=1 n=e5 v=64
17281 Off ch=1 n=c#5 v=64
17285 Off ch=1 n=g#4 v=64
17289 Off ch=1 n=c#4 v=64
17559 On ch=1 n=d6 v=61
17579 Off ch=1 n=c#6 v=64
17667 On ch=1 n=d#6 v=62
17678 Off ch=1 n=d6 v=64
17679 Par ch=1 c=64 v=0
17685 On ch=1 n=g3 v=63
17687 Par ch=1 c=64 v=0
17734 Par ch=1 c=64 v=127
17742 Par ch=1 c=64 v=127
17752 On ch=1 n=e6 v=72
17773 Off ch=1 n=d#6 v=64
17801 Par ch=1 c=64 v=0
17809 Par ch=1 c=64 v=0
17828 On ch=1 n=c#6 v=84
17832 On ch=1 n=c#5 v=44
17834 On ch=1 n=d#4 v=40
17848 Off ch=1 n=e6 v=64
17862 Par ch=1 c=64 v=127
17870 Par ch=1 c=64 v=127
17875 Off ch=1 n=c#5 v=64
17876 Off ch=1 n=d#4 v=64
17894 Off ch=1 n=c#6 v=64
17960 On ch=1 n=d#6 v=70
17960 On ch=1 n=d#4 v=59
17964 On ch=1 n=c#5 v=45
17999 Off ch=1 n=d#4 v=64
18003 Off ch=1 n=c#5 v=64
18026 Off ch=1 n=d#6 v=64
18094 Par ch=1 c=64 v=0
18102 Par ch=1 c=64 v=0
18108 On ch=1 n=c6 v=66
18112 On ch=1 n=g#3 v=66
18124 Off ch=1 n=g3 v=64
18134 Par ch=1 c=64 v=127
18142 Par ch=1 c=64 v=127
18201 On ch=1 n=d#6 v=57
18211 Off ch=1 n=c6 v=64
18219 Par ch=1 c=64 v=0
18227 Par ch=1 c=64 v=0
18245 On ch=1 n=d#4 v=31
18251 On ch=1 n=g#5 v=80
18251 On ch=1 n=f#4 v=29
18253 On ch=1 n=c5 v=44
18255 Par ch=1 c=64 v=127
18262 Off ch=1 n=d#6 v=64
18263 Par ch=1 c=64 v=127
18289 Off ch=1 n=d#4 v=64
18296 Off ch=1 n=c5 v=64
18303 Off ch=1 n=f#4 v=64
18348 Off ch=1 n=g#5 v=64
18349 Off ch=1 n=g#3 v=64
18363 On ch=1 n=b5 v=59
18399 On ch=1 n=a5 v=48
18400 Off ch=1 n=b5 v=64
18427 On ch=1 n=b5 v=71
18435 Off ch=1 n=a5 v=64
18458 On ch=1 n=a5 v=63
18460 Off ch=1 n=b5 v=64
18489 On ch=1 n=b5 v=68
18497 Off ch=1 n=a5 v=64
18513 On ch=1 n=a5 v=62
18522 Off ch=1 n=b5 v=64
18532 On ch=1 n=g#5 v=80
18533 Par ch=1 c=64 v=0
18541 Par ch=1 c=64 v=0
18547 On ch=1 n=g#3 v=52
18553 Off ch=1 n=a5 v=64
18576 Par ch=1 c=64 v=127
18584 Par ch=1 c=64 v=127
18602 Off ch=1 n=g#5 v=64
18652 On ch=1 n=f#5 v=48
18667 Par ch=1 c=64 v=0
18675 Par ch=1 c=64 v=0
18685 On ch=1 n=d#4 v=37
18690 On ch=1 n=f#4 v=39
18694 On ch=1 n=d#5 v=66
18695 Off ch=1 n=f#5 v=64
18695 On ch=1 n=c5 v=45
18710 Par ch=1 c=64 v=127
18718 Par ch=1 c=64 v=127
18742 Off ch=1 n=d#4 v=64
18745 Off ch=1 n=f#4 v=64
18749 Off ch=1 n=c5 v=64
18787 Off ch=1 n=g#3 v=64
18834 On ch=1 n=c5 v=44
18837 On ch=1 n=d#4 v=28
18840 On ch=1 n=f#4 v=40
18844 On ch=1 n=g#5 v=58
18856 Off ch=1 n=c5 v=64
18864 Off ch=1 n=d#4 v=64
18867 Off ch=1 n=f#4 v=64
18870 Off ch=1 n=d#5 v=64
18893 Off ch=1 n=g#5 v=64
18977 On ch=1 n=g#5 v=53
19006 Par ch=1 c=64 v=0
19008 On ch=1 n=c#3 v=58
19014 Par ch=1 c=64 v=0
19019 On ch=1 n=c#5 v=61
19039 Off ch=1 n=g#5 v=64
19053 Par ch=1 c=64 v=127
19061 Par ch=1 c=64 v=127
19186 On ch=1 n=c#4 v=22
19230 On ch=1 n=g#4 v=41
19248 Off ch=1 n=c#3 v=64
19262 On ch=1 n=e5 v=37
19316 Off ch=1 n=c#5 v=64
19426 Off ch=1 n=c#4 v=64
19436 Off ch=1 n=g#4 v=64
19447 On ch=1 n=d5 v=55
19483 Off ch=1 n=e5 v=64
19632 On ch=1 n=d#5 v=55
19634 Par ch=1 c=64 v=0
19642 Par ch=1 c=64 v=0
19649 On ch=1 n=g#3 v=28
19670 Off ch=1 n=d5 v=64
19688 Par ch=1 c=64 v=127
19696 Par ch=1 c=64 v=127
19750 On ch=1 n=g5 v=40
19755 Off ch=1 n=d#5 v=64
19769 Par ch=1 c=64 v=0
19777 Par ch=1 c=64 v=0
19792 On ch=1 n=g#5 v=55
19797 On ch=1 n=c5 v=37
19799 On ch=1 n=g#4 v=31
19806 On ch=1 n=d#4 v=17
19814 Off ch=1 n=g5 v=64
19814 Par ch=1 c=64 v=127
19822 Par ch=1 c=64 v=127
19839 Off ch=1 n=d#4 v=64
19849 Off ch=1 n=g#4 v=64
19851 Off ch=1 n=c5 v=64
19886 Off ch=1 n=g#3 v=64
19904 Off ch=1 n=g#5 v=64
19922 On ch=1 n=c6 v=56
19933 On ch=1 n=d#4 v=37
19934 On ch=1 n=c5 v=45
19945 On ch=1 n=g#4 v=20
19963 Off ch=1 n=g#4 v=64
19970 Off ch=1 n=c5 v=64
19973 Off ch=1 n=d#4 v=64
20015 On ch=1 n=d#6 v=59
20022 Off ch=1 n=c6 v=64
20055 Par ch=1 c=64 v=0
20063 Par ch=1 c=64 v=0
20071 On ch=1 n=g#3 v=50
20085 On ch=1 n=d#5 v=63
20087 Off ch=1 n=d#6 v=64
20094 Par ch=1 c=64 v=127
20102 Par ch=1 c=64 v=127
20195 On ch=1 n=g5 v=29
20205 Par ch=1 c=64 v=0
20211 Off ch=1 n=d#5 v=64
20213 Par ch=1 c=64 v=0
20218 On ch=1 n=c5 v=28
20225 On ch=1 n=g#5 v=67
20225 On ch=1 n=g#4 v=38
20228 On ch=1 n=d#4 v=37
20237 Off ch=1 n=g5 v=64
20262 Par ch=1 c=64 v=127
20270 Par ch=1 c=64 v=127
20278 Off ch=1 n=d#4 v=64
20278 Off ch=1 n=g#4 v=64
20283 Off ch=1 n=c5 v=64
20307 On ch=1 n=c6 v=49
20308 Off ch=1 n=g#3 v=64
20311 Off ch=1 n=g#5 v=64
20339 Par ch=1 c=64 v=0
20347 Par ch=1 c=64 v=0
20355 On ch=1 n=g#4 v=40
20363 On ch=1 n=c5 v=24
20369 On ch=1 n=d#4 v=30
20370 On ch=1 n=d#6 v=63
20384 Par ch=1 c=64 v=127
20386 Off ch=1 n=c6 v=64
20392 Par ch=1 c=64 v=127
20406 Off ch=1 n=c5 v=64
20413 Off ch=1 n=d#4 v=64
20420 Off ch=1 n=g#4 v=64
20493 Par ch=1 c=64 v=0
20500 Off ch=1 n=d#6 v=64
20501 Par ch=1 c=64 v=0
20508 On ch=1 n=d6 v=55
20508 On ch=1 n=a#4 v=49
20508 On ch=1 n=g#4 v=46
20508 On ch=1 n=f4 v=46
20536 Par ch=1 c=64 v=127
20544 Par ch=1 c=64 v=127
20576 Off ch=1 n=g#4 v=64
20586 Off ch=1 n=d6 v=64
20589 On ch=1 n=a#5 v=58
20609 Off ch=1 n=f4 v=64
20624 Par ch=1 c=64 v=0
20632 Par ch=1 c=64 v=0
20641 On ch=1 n=g4 v=50
20641 On ch=1 n=d#4 v=44
20644 On ch=1 n=c#6 v=41
20670 Off ch=1 n=a#5 v=64
20679 Par ch=1 c=64 v=127
20687 Par ch=1 c=64 v=127
20696 Off ch=1 n=d#4 v=64
20704 Off ch=1 n=g4 v=64
20767 Par ch=1 c=64 v=0
20775 Par ch=1 c=64 v=0
20790 On ch=1 n=c6 v=49
20792 On ch=1 n=g#3 v=54
20796 On ch=1 n=g#4 v=36
20803 Off ch=1 n=a#4 v=64
20817 Off ch=1 n=c#6 v=64
20820 Par ch=1 c=64 v=127
20828 Par ch=1 c=64 v=127
20860 On ch=1 n=g#5 v=54
20861 Off ch=1 n=c6 v=64
20899 Off ch=1 n=g#5 v=64
20908 Par ch=1 c=64 v=0
20912 Off ch=1 n=g#4 v=64
20916 Par ch=1 c=64 v=0
20934 On ch=1 n=g#4 v=36
20935 Off ch=1 n=g#3 v=64
20938 On ch=1 n=d6 v=49
20938 On ch=1 n=a#4 v=48
20945 On ch=1 n=f4 v=28
20961 Par ch=1 c=64 v=127
20969 Par ch=1 c=64 v=127
20976 On ch=1 n=a#5 v=58
20991 Off ch=1 n=d6 v=64
21027 On ch=1 n=c6 v=55
21034 Off ch=1 n=g#4 v=64
21036 Off ch=1 n=f4 v=64
21037 Off ch=1 n=a#5 v=64
21053 Par ch=1 c=64 v=0
21061 Par ch=1 c=64 v=0
21066 On ch=1 n=c#6 v=58
21071 On ch=1 n=g4 v=35
21083 Off ch=1 n=c6 v=64
21086 On ch=1 n=d#4 v=45
21116 Off ch=1 n=c#6 v=64
21118 Par ch=1 c=64 v=127
21126 Par ch=1 c=64 v=127
21132 Off ch=1 n=g4 v=64
21139 Off ch=1 n=d#4 v=64
21224 On ch=1 n=g#3 v=50
21232 On ch=1 n=g#4 v=41
21233 Off ch=1 n=a#4 v=64
21238 On ch=1 n=c6 v=59
21245 Par ch=1 c=64 v=0
21253 Off ch=1 n=g#3 v=64
21253 Par ch=1 c=64 v=0
21269 Par ch=1 c=64 v=127
21277 Par ch=1 c=64 v=127
21304 Off ch=1 n=g#4 v=64
21305 Off ch=1 n=c6 v=64
21344 On ch=1 n=g#5 v=45
21372 Par ch=1 c=64 v=0
21380 Par ch=1 c=64 v=0
21390 Off ch=1 n=g#5 v=64
21392 On ch=1 n=d#5 v=62
21398 On ch=1 n=g#3 v=58
21400 On ch=1 n=g#2 v=74
21410 Par ch=1 c=64 v=127
21417 Par ch=1 c=64 v=127
21418 Par ch=1 c=64 v=127
21425 Par ch=1 c=64 v=127
21455 Par ch=1 c=64 v=0
21463 Par ch=1 c=64 v=0
21515 On ch=1 n=g5 v=40
21517 Par ch=1 c=64 v=0
21519 Off ch=1 n=d#5 v=64
21525 Par ch=1 c=64 v=0
21531 On ch=1 n=c5 v=48
21531 On ch=1 n=d#4 v=42
21538 On ch=1 n=g#4 v=29
21545 On ch=1 n=g#5 v=62
21559 Par ch=1 c=64 v=127
21567 Par ch=1 c=64 v=127
21573 Off ch=1 n=d#4 v=64
21577 Off ch=1 n=c5 v=64
21577 Off ch=1 n=g5 v=64
21581 Off ch=1 n=g#4 v=64
21635 Off ch=1 n=g#3 v=64
21637 Off ch=1 n=g#2 v=64
21647 Off ch=1 n=g#5 v=64
21662 On ch=1 n=c6 v=50
21668 On ch=1 n=c5 v=53
21677 On ch=1 n=d#4 v=44
21709 Off ch=1 n=c5 v=64
21715 Off ch=1 n=d#4 v=64
21741 On ch=1 n=d#6 v=57
21745 Off ch=1 n=c6 v=64
21789 Par ch=1 c=64 v=0
21792 Off ch=1 n=d#6 v=64
21797 Par ch=1 c=64 v=0
21801 On ch=1 n=g#3 v=55
21806 Par ch=1 c=64 v=127
21807 On ch=1 n=d#5 v=58
21814 Par ch=1 c=64 v=127
21836 Off ch=1 n=d#5 v=64
21902 On ch=1 n=g5 v=57
21924 Par ch=1 c=64 v=0
21928 On ch=1 n=g#5 v=53
21930 On ch=1 n=c5 v=36
21932 Par ch=1 c=64 v=0
21942 On ch=1 n=g#4 v=36
21942 On ch=1 n=d#4 v=32
21963 Par ch=1 c=64 v=127
21971 Par ch=1 c=64 v=127
21975 Off ch=1 n=g5 v=64
21982 Off ch=1 n=d#4 v=64
21982 Off ch=1 n=g#4 v=64
21996 Off ch=1 n=c5 v=64
22005 On ch=1 n=c6 v=50
22019 Off ch=1 n=g#5 v=64
22041 Off ch=1 n=g#3 v=64
22057 Par ch=1 c=64 v=0
22065 Par ch=1 c=64 v=0
22070 On ch=1 n=c5 v=36
22072 On ch=1 n=g#4 v=40
22076 On ch=1 n=d#4 v=36
22078 On ch=1 n=d#6 v=62
22086 Off ch=1 n=c6 v=64
22087 Par ch=1 c=64 v=127
22095 Par ch=1 c=64 v=127
22114 Off ch=1 n=c5 v=64
22124 Off ch=1 n=d#4 v=64
22124 Off ch=1 n=g#4 v=64
22130 Off ch=1 n=d#6 v=64
22238 On ch=1 n=d6 v=50
22242 On ch=1 n=g#4 v=45
22242 On ch=1 n=f4 v=48
22246 On ch=1 n=a#4 v=55
22266 Par ch=1 c=64 v=0
22274 Par ch=1 c=64 v=0
22297 Par ch=1 c=64 v=127
22298 Off ch=1 n=d6 v=64
22305 Par ch=1 c=64 v=127
22326 Off ch=1 n=g#4 v=64
22326 On ch=1 n=a#5 v=49
22347 Off ch=1 n=f4 v=64
22390 On ch=1 n=c#6 v=49
22396 On ch=1 n=d#4 v=46
22397 Par ch=1 c=64 v=0
22400 On ch=1 n=g4 v=54
22405 Par ch=1 c=64 v=0
22425 Off ch=1 n=a#5 v=64
22431 Par ch=1 c=64 v=127
22439 Par ch=1 c=64 v=127
22462 Off ch=1 n=g4 v=64
22463 Off ch=1 n=d#4 v=64
22506 Off ch=1 n=c#6 v=64
22534 On ch=1 n=c6 v=55
22539 Par ch=1 c=64 v=0
22539 On ch=1 n=g#4 v=50
22541 Off ch=1 n=a#4 v=64
22545 On ch=1 n=g#3 v=58
22547 Par ch=1 c=64 v=0
22579 Par ch=1 c=64 v=127
22587 Par ch=1 c=64 v=127
22603 Off ch=1 n=g#3 v=64
22620 Off ch=1 n=g#4 v=64
22622 On ch=1 n=g#5 v=52
22631 Off ch=1 n=c6 v=64
22665 Par ch=1 c=64 v=0
22665 On ch=1 n=g#6 v=52
22673 Par ch=1 c=64 v=0
22694 Off ch=1 n=g#5 v=64
22704 Par ch=1 c=64 v=127
22712 Par ch=1 c=64 v=127
22773 On ch=1 n=g#5 v=58
22780 Off ch=1 n=g#6 v=64
22792 Par ch=1 c=64 v=0
22800 Par ch=1 c=64 v=0
22823 On ch=1 n=g#6 v=66
22838 Par ch=1 c=64 v=127
22846 Par ch=1 c=64 v=127
22850 Off ch=1 n=g#5 v=64
22940 Off ch=1 n=g#6 v=64
22960 On ch=1 n=g#5 v=58
23003 On ch=1 n=g#6 v=59
23038 Off ch=1 n=g#5 v=64
23159 Off ch=1 n=g#6 v=64
23170 On ch=1 n=g#5 v=49
23238 Par ch=1 c=64 v=0
23241 On ch=1 n=g#6 v=49
23245 On ch=1 n=c4 v=53
23246 Par ch=1 c=64 v=0
23269 Off ch=1 n=g#5 v=64
23284 Par ch=1 c=64 v=127
23292 Par ch=1 c=64 v=127
23366 Off ch=1 n=g#6 v=64
23366 On ch=1 n=a6 v=50
23381 Par ch=1 c=64 v=0
23389 Par ch=1 c=64 v=0
23396 On ch=1 n=g#4 v=26
23413 On ch=1 n=d#5 v=37
23415 On ch=1 n=f#6 v=54
23421 On ch=1 n=f#5 v=37
23439 Par ch=1 c=64 v=127
23442 Off ch=1 n=a6 v=64
23444 Off ch=1 n=g#4 v=64
23447 Par ch=1 c=64 v=127
23464 Off ch=1 n=d#5 v=64
23468 Off ch=1 n=f#5 v=64
23485 Off ch=1 n=c4 v=64
23549 On ch=1 n=g#4 v=40
23552 On ch=1 n=f#5 v=39
23556 On ch=1 n=d#5 v=37
23583 Off ch=1 n=d#5 v=64
23588 Off ch=1 n=f#5 v=64
23588 Off ch=1 n=g#4 v=64
23621 On ch=1 n=g#6 v=44
23627 Off ch=1 n=f#6 v=64
23672 Par ch=1 c=64 v=0
23677 On ch=1 n=c#4 v=55
23680 Par ch=1 c=64 v=0
23688 On ch=1 n=e6 v=50
23699 Off ch=1 n=g#6 v=64
23722 Par ch=1 c=64 v=127
23730 Par ch=1 c=64 v=127
23783 On ch=1 n=g#6 v=53
23792 Off ch=1 n=e6 v=64
23799 Par ch=1 c=64 v=0
23807 Par ch=1 c=64 v=0
23814 On ch=1 n=e5 v=30
23815 On ch=1 n=g#4 v=20
23819 On ch=1 n=c#5 v=40
23823 On ch=1 n=c#6 v=59
23844 Off ch=1 n=g#6 v=64
23853 Par ch=1 c=64 v=127
23861 Off ch=1 n=g#4 v=64
23861 Par ch=1 c=64 v=127
23867 Off ch=1 n=e5 v=64
23869 Off ch=1 n=c#5 v=64
23917 Off ch=1 n=c#4 v=64
23929 Par ch=1 c=64 v=0
23937 Par ch=1 c=64 v=0
23949 Off ch=1 n=c#6 v=64
23952 On ch=1 n=e6 v=53
23955 On ch=1 n=e5 v=37
23959 On ch=1 n=c#5 v=27
23959 On ch=1 n=g#4 v=30
23960 Par ch=1 c=64 v=127
23968 Par ch=1 c=64 v=127
23983 Off ch=1 n=g#4 v=64
23988 Off ch=1 n=c#5 v=64
23998 Off ch=1 n=e5 v=64
24079 Par ch=1 c=64 v=0
24083 Off ch=1 n=e6 v=64
24087 Par ch=1 c=64 v=0
24094 On ch=1 n=g#6 v=48
24099 On ch=1 n=c4 v=44
24130 Par ch=1 c=64 v=127
24138 Par ch=1 c=64 v=127
24177 Off ch=1 n=g#6 v=64
24185 On ch=1 n=a6 v=54
24243 On ch=1 n=d#5 v=42
24244 On ch=1 n=f#6 v=52
24244 On ch=1 n=f#5 v=46
24245 Par ch=1 c=64 v=0
24248 On ch=1 n=g#4 v=33
24253 Par ch=1 c=64 v=0
24262 Off ch=1 n=a6 v=64
24278 Off ch=1 n=d#5 v=64
24282 Par ch=1 c=64 v=127
24287 Off ch=1 n=g#4 v=64
24290 Par ch=1 c=64 v=127
24296 Off ch=1 n=f#5 v=64
24339 Off ch=1 n=c4 v=64
24349 Off ch=1 n=f#6 v=64
24375 On ch=1 n=g#6 v=62
24391 On ch=1 n=d#5 v=42
24396 On ch=1 n=f#5 v=34
24397 On ch=1 n=g#4 v=39
24419 Off ch=1 n=f#5 v=64
24426 Off ch=1 n=d#5 v=64
24437 Off ch=1 n=g#4 v=64
24497 Off ch=1 n=g#6 v=64
24556 Par ch=1 c=64 v=0
24563 On ch=1 n=c#4 v=39
24564 Par ch=1 c=64 v=0
24568 On ch=1 n=e6 v=49
24605 Par ch=1 c=64 v=127
24613 Par ch=1 c=64 v=127
24639 On ch=1 n=f#6 v=50
24655 Off ch=1 n=e6 v=64
24692 On ch=1 n=g#6 v=55
24715 Off ch=1 n=f#6 v=64
24740 Off ch=1 n=g#6 v=64
24751 On ch=1 n=g#6 v=62
24783 On ch=1 n=c#5 v=19
24786 On ch=1 n=e5 v=33
24789 On ch=1 n=g#4 v=18
24791 Par ch=1 c=64 v=0
24797 On ch=1 n=c#6 v=54
24799 Par ch=1 c=64 v=0
24803 Off ch=1 n=c#4 v=64
24807 Off ch=1 n=g#6 v=64
24838 Par ch=1 c=64 v=127
24846 Par ch=1 c=64 v=127
25022 Off ch=1 n=c#5 v=64
25025 Off ch=1 n=e5 v=64
25028 Off ch=1 n=g#4 v=64
25036 Off ch=1 n=c#6 v=64
25147 On ch=1 n=d6 v=58
25214 Off ch=1 n=d6 v=64
25223 Par ch=1 c=64 v=0
25224 On ch=1 n=d#6 v=70
25228 On ch=1 n=g3 v=57
25231 Par ch=1 c=64 v=0
25258 Par ch=1 c=64 v=127
25266 Par ch=1 c=64 v=127
25303 On ch=1 n=e6 v=67
25312 Off ch=1 n=d#6 v=64
25346 Par ch=1 c=64 v=0
25354 Par ch=1 c=64 v=0
25364 Off ch=1 n=e6 v=64
25364 On ch=1 n=c#5 v=56
25369 On ch=1 n=d#4 v=37
25372 On ch=1 n=c#6 v=72
25376 On ch=1 n=a#4 v=22
25417 Off ch=1 n=d#4 v=64
25421 Off ch=1 n=a#4 v=64
25426 Off ch=1 n=c#5 v=64
25427 Par ch=1 c=64 v=127
25435 Par ch=1 c=64 v=127
25466 Off ch=1 n=c#6 v=64
25468 Off ch=1 n=g3 v=64
25478 Par ch=1 c=64 v=0
25486 Par ch=1 c=64 v=0
25496 On ch=1 n=d#6 v=66
25496 On ch=1 n=a#4 v=30
25499 On ch=1 n=c#5 v=46
25503 On ch=1 n=d#4 v=49
25505 Par ch=1 c=64 v=127
25513 Par ch=1 c=64 v=127
25524 Off ch=1 n=a#4 v=64
25534 Off ch=1 n=c#5 v=64
25539 Off ch=1 n=d#4 v=64
25565 Off ch=1 n=d#6 v=64
25620 Par ch=1 c=64 v=0
25628 Par ch=1 c=64 v=0
25637 On ch=1 n=g#3 v=59
25640 On ch=1 n=c6 v=50
25665 Par ch=1 c=64 v=127
25673 Par ch=1 c=64 v=127
25724 On ch=1 n=d#6 v=44
25739 Off ch=1 n=c6 v=64
25746 Par ch=1 c=64 v=0
25754 Par ch=1 c=64 v=0
25772 On ch=1 n=g#5 v=72
25777 Par ch=1 c=64 v=127
25778 On ch=1 n=c5 v=44
25780 On ch=1 n=d#4 v=40
25785 Off ch=1 n=d#6 v=64
25785 On ch=1 n=f#4 v=39
25785 Par ch=1 c=64 v=127
25818 Off ch=1 n=d#4 v=64
25827 Off ch=1 n=c5 v=64
25829 Off ch=1 n=f#4 v=64
25873 Off ch=1 n=g#5 v=64
25877 Off ch=1 n=g#3 v=64
25902 On ch=1 n=b5 v=59
25938 On ch=1 n=a5 v=48
25939 Off ch=1 n=b5 v=64
25966 On ch=1 n=b5 v=71
25974 Off ch=1 n=a5 v=64
25997 On ch=1 n=a5 v=63
25999 Off ch=1 n=b5 v=64
26028 On ch=1 n=b5 v=68
26036 Off ch=1 n=a5 v=64
26052 On ch=1 n=a5 v=62
26061 Off ch=1 n=b5 v=64
26076 On ch=1 n=g#5 v=59
26086 On ch=1 n=g#3 v=57
26090 Par ch=1 c=64 v=0
26092 Off ch=1 n=a5 v=64
26098 Par ch=1 c=64 v=0
26124 Par ch=1 c=64 v=127
26132 Par ch=1 c=64 v=127
26157 Off ch=1 n=g#5 v=64
26201 On ch=1 n=f#5 v=53
26232 Par ch=1 c=64 v=0
26240 Par ch=1 c=64 v=0
26249 Off ch=1 n=f#5 v=64
26249 On ch=1 n=f#4 v=41
26249 On ch=1 n=d#4 v=46
26255 On ch=1 n=d#5 v=62
26255 On ch=1 n=c5 v=46
26256 Par ch=1 c=64 v=127
26264 Par ch=1 c=64 v=127
26308 Off ch=1 n=c5 v=64
26308 Off ch=1 n=f#4 v=64
26311 Off ch=1 n=d#4 v=64
26326 Off ch=1 n=g#3 v=64
26404 Off ch=1 n=d#5 v=64
26429 On ch=1 n=c5 v=37
26433 On ch=1 n=g#5 v=66
26436 On ch=1 n=f#4 v=42
26436 On ch=1 n=d#4 v=42
26458 Off ch=1 n=c5 v=64
26465 Off ch=1 n=f#4 v=64
26467 Off ch=1 n=d#4 v=64
26486 Off ch=1 n=g#5 v=64
26609 On ch=1 n=g#5 v=55
26642 On ch=1 n=c#3 v=54
26647 Par ch=1 c=64 v=0
26655 Par ch=1 c=64 v=0
26661 On ch=1 n=c#5 v=70
26670 Off ch=1 n=g#5 v=64
26693 Par ch=1 c=64 v=127
26701 Par ch=1 c=64 v=127
26882 Off ch=1 n=c#3 v=64
26888 On ch=1 n=c#4 v=23
26932 On ch=1 n=g#4 v=37
26964 On ch=1 n=e5 v=35
27078 Off ch=1 n=c#5 v=64
27161 Off ch=1 n=g#4 v=64
27164 Off ch=1 n=c#4 v=64
27189 On ch=1 n=c#5 v=44
27212 Off ch=1 n=e5 v=64
27345 Off ch=1 n=c#5 v=64
27371 On ch=1 n=a3 v=42
27372 Par ch=1 c=64 v=0
27372 On ch=1 n=c#6 v=50
27380 Par ch=1 c=64 v=0
27415 Par ch=1 c=64 v=127
27423 Par ch=1 c=64 v=127
27443 On ch=1 n=d#6 v=41
27477 Off ch=1 n=c#6 v=64
27501 Par ch=1 c=64 v=0
27509 Par ch=1 c=64 v=0
27538 On ch=1 n=c#5 v=35
27539 On ch=1 n=e6 v=44
27539 Par ch=1 c=64 v=127
27539 On ch=1 n=e4 v=44
27547 Par ch=1 c=64 v=127
27557 Off ch=1 n=d#6 v=64
27594 Off ch=1 n=e4 v=64
27602 Off ch=1 n=c#5 v=64
27610 Off ch=1 n=a3 v=64
27681 On ch=1 n=c#5 v=41
27688 On ch=1 n=e4 v=37
27721 Off ch=1 n=c#5 v=64
27728 Off ch=1 n=e4 v=64
27738 On ch=1 n=c#6 v=46
27775 Off ch=1 n=e6 v=64
27816 On ch=1 n=b5 v=44
27821 Par ch=1 c=64 v=0
27823 On ch=1 n=e3 v=44
27829 Par ch=1 c=64 v=0
27839 Off ch=1 n=c#6 v=64
27883 On ch=1 n=g#5 v=44
27916 Off ch=1 n=b5 v=64
27951 On ch=1 n=e4 v=40
27957 On ch=1 n=e5 v=48
27960 On ch=1 n=b4 v=22
27962 Off ch=1 n=g#5 v=64
27990 Off ch=1 n=b4 v=64
28004 Off ch=1 n=e4 v=64
28063 Off ch=1 n=e3 v=64
28068 Par ch=1 c=64 v=127
28076 Par ch=1 c=64 v=127
28096 On ch=1 n=e4 v=40
28106 On ch=1 n=b4 v=41
28167 Off ch=1 n=e4 v=64
28169 Off ch=1 n=b4 v=64
28193 Off ch=1 n=e5 v=64
28221 Par ch=1 c=64 v=0
28229 Par ch=1 c=64 v=0
28237 On ch=1 n=c#6 v=29
28239 On ch=1 n=a3 v=41
28241 Par ch=1 c=64 v=127
28249 Par ch=1 c=64 v=127
28343 On ch=1 n=d#6 v=33
28382 Off ch=1 n=c#6 v=64
28399 On ch=1 n=e6 v=40
28404 Par ch=1 c=64 v=0
28405 On ch=1 n=e4 v=44
28412 Par ch=1 c=64 v=0
28418 Par ch=1 c=64 v=127
28419 Off ch=1 n=d#6 v=64
28424 On ch=1 n=c#5 v=20
28426 Par ch=1 c=64 v=127
28464 Off ch=1 n=c#5 v=64
28465 Off ch=1 n=e4 v=64
28479 Off ch=1 n=a3 v=64
28502 On ch=1 n=f#6 v=50
28528 Off ch=1 n=e6 v=64
28538 On ch=1 n=e6 v=41
28545 Par ch=1 c=64 v=0
28545 On ch=1 n=c#5 v=35
28547 On ch=1 n=e4 v=44
28553 Par ch=1 c=64 v=0
28559 Off ch=1 n=f#6 v=64
28559 Par ch=1 c=64 v=127
28567 Off ch=1 n=c#5 v=64
28567 Par ch=1 c=64 v=127
28585 Off ch=1 n=e4 v=64
28612 On ch=1 n=c#6 v=44
28628 Off ch=1 n=e6 v=64
28676 Par ch=1 c=64 v=0
28677 On ch=1 n=b5 v=44
28677 On ch=1 n=e3 v=44
28684 Par ch=1 c=64 v=0
28698 Par ch=1 c=64 v=127
28700 Off ch=1 n=c#6 v=64
28706 Par ch=1 c=64 v=127
28743 On ch=1 n=g#5 v=44
28771 Off ch=1 n=b5 v=64
28790 Par ch=1 c=64 v=0
28798 Par ch=1 c=64 v=0
28817 On ch=1 n=b4 v=37
28820 On ch=1 n=e4 v=44
28821 On ch=1 n=e5 v=41
28833 Par ch=1 c=64 v=127
28834 Off ch=1 n=g#5 v=64
28841 Par ch=1 c=64 v=127
28867 Off ch=1 n=b4 v=64
28871 Off ch=1 n=e4 v=64
28917 Off ch=1 n=e3 v=64
28950 On ch=1 n=e4 v=44
28955 On ch=1 n=b4 v=44
29002 Off ch=1 n=b4 v=64
29007 Off ch=1 n=e4 v=64
29068 Par ch=1 c=64 v=0
29076 Par ch=1 c=64 v=0
29083 On ch=1 n=c#5 v=45
29089 On ch=1 n=e4 v=42
29093 On ch=1 n=a3 v=40
29107 Par ch=1 c=64 v=127
29115 Par ch=1 c=64 v=127
29129 Off ch=1 n=e4 v=64
29137 Off ch=1 n=a3 v=64
29142 On ch=1 n=a5 v=32
29158 Off ch=1 n=c#5 v=64
29191 Par ch=1 c=64 v=0
29199 Par ch=1 c=64 v=0
29204 Off ch=1 n=e5 v=64
29222 On ch=1 n=e3 v=50
29226 On ch=1 n=b4 v=50
29230 On ch=1 n=g#5 v=50
29230 On ch=1 n=e4 v=42
29244 Off ch=1 n=a5 v=64
29255 Off ch=1 n=e3 v=64
29256 Off ch=1 n=e4 v=64
29268 Off ch=1 n=b4 v=64
29350 On ch=1 n=e4 v=53
29351 On ch=1 n=b4 v=45
29366 On ch=1 n=e3 v=45
29390 Off ch=1 n=e4 v=64
29397 Off ch=1 n=e3 v=64
29402 Off ch=1 n=b4 v=64
29420 Par ch=1 c=64 v=0
29428 Par ch=1 c=64 v=0
29458 Par ch=1 c=64 v=127
29466 Par ch=1 c=64 v=127
29482 On ch=1 n=e5 v=44
29485 On ch=1 n=c#5 v=50
29486 On ch=1 n=e4 v=50
29486 On ch=1 n=a3 v=44
29488 Off ch=1 n=g#5 v=64
29491 Par ch=1 c=64 v=127
29499 Par ch=1 c=64 v=127
29557 On ch=1 n=b5 v=32
29574 Off ch=1 n=c#5 v=64
29576 Off ch=1 n=a3 v=64
29577 Off ch=1 n=e5 v=64
29587 On ch=1 n=a5 v=54
29594 Off ch=1 n=e4 v=64
29600 Par ch=1 c=64 v=0
29608 Par ch=1 c=64 v=0
29616 Off ch=1 n=b5 v=64
29619 On ch=1 n=g#5 v=42
29625 Off ch=1 n=a5 v=64
29625 On ch=1 n=b4 v=35
29630 On ch=1 n=e3 v=42
29633 On ch=1 n=e4 v=41
29670 Off ch=1 n=e3 v=64
29670 Off ch=1 n=e4 v=64
29701 Off ch=1 n=b4 v=64
29775 On ch=1 n=b4 v=46
29775 On ch=1 n=e4 v=44
29780 On ch=1 n=e3 v=41
29782 Par ch=1 c=64 v=127
29790 Par ch=1 c=64 v=127
29820 Off ch=1 n=e3 v=64
29826 Off ch=1 n=e4 v=64
29826 Off ch=1 n=b4 v=64
29837 Off ch=1 n=g#5 v=64
29921 Par ch=1 c=64 v=0
29921 On ch=1 n=e5 v=44
29921 On ch=1 n=c#5 v=54
29928 On ch=1 n=e4 v=50
29928 On ch=1 n=a3 v=50
29929 Par ch=1 c=64 v=0
29959 Par ch=1 c=64 v=127
29966 Off ch=1 n=a3 v=64
29967 Par ch=1 c=64 v=127
29974 Off ch=1 n=e4 v=64
29986 Off ch=1 n=c#5 v=64
29990 On ch=1 n=a5 v=41
30016 Off ch=1 n=e5 v=64
30017 Par ch=1 c=64 v=0
30025 Par ch=1 c=64 v=0
30042 On ch=1 n=g#5 v=50
30057 On ch=1 n=b4 v=50
30059 On ch=1 n=e4 v=44
30059 On ch=1 n=e3 v=45
30065 Off ch=1 n=a5 v=64
30094 Off ch=1 n=e3 v=64
30095 Off ch=1 n=b4 v=64
30101 Off ch=1 n=e4 v=64
30110 Off ch=1 n=g#5 v=64
30177 Par ch=1 c=64 v=127
30185 Par ch=1 c=64 v=127
30191 On ch=1 n=g#5 v=50
30191 On ch=1 n=b4 v=44
30197 On ch=1 n=e3 v=44
30204 On ch=1 n=e4 v=42
30242 Off ch=1 n=b4 v=64
30245 Off ch=1 n=e4 v=64
30255 Off ch=1 n=e3 v=64
30256 Off ch=1 n=g#5 v=64
30312 Par ch=1 c=64 v=0
30320 On ch=1 n=e4 v=33
30320 Par ch=1 c=64 v=0
30325 On ch=1 n=e5 v=44
30325 On ch=1 n=c#5 v=53
30334 On ch=1 n=a3 v=32
30344 Par ch=1 c=64 v=127
30352 Par ch=1 c=64 v=127
30444 On ch=1 n=a5 v=41
30470 Off ch=1 n=e5 v=64
30496 On ch=1 n=b3 v=32
30500 Off ch=1 n=c#5 v=64
30500 Off ch=1 n=e4 v=64
30510 Off ch=1 n=a3 v=64
30520 Par ch=1 c=64 v=0
30528 Par ch=1 c=64 v=0
30557 On ch=1 n=g#5 v=54
30557 On ch=1 n=g#4 v=57
30557 On ch=1 n=c#4 v=54
30572 Off ch=1 n=a5 v=64
30583 Off ch=1 n=b3 v=64
30588 Par ch=1 c=64 v=127
30596 Par ch=1 c=64 v=127
30773 On ch=1 n=c#3 v=54
30789 Off ch=1 n=g#4 v=64
30789 Off ch=1 n=g#5 v=64
30797 Off ch=1 n=c#4 v=64
30957 On ch=1 n=f6 v=52
31013 Off ch=1 n=c#3 v=64
31033 On ch=1 n=g6 v=58
31047 Off ch=1 n=f6 v=64
31087 Par ch=1 c=64 v=0
31095 On ch=1 n=g#6 v=65
31095 Par ch=1 c=64 v=0
31114 On ch=1 n=c#5 v=37
31117 Off ch=1 n=g6 v=64
31118 On ch=1 n=f4 v=35
31121 On ch=1 n=g#4 v=31
31125 On ch=1 n=f5 v=36
31135 Par ch=1 c=64 v=127
31143 Par ch=1 c=64 v=127
31155 Off ch=1 n=g#4 v=64
31156 Off ch=1 n=f4 v=64
31166 Off ch=1 n=c#5 v=64
31169 Off ch=1 n=f5 v=64
31241 On ch=1 n=c#5 v=40
31241 On ch=1 n=f4 v=40
31245 On ch=1 n=f5 v=31
31245 On ch=1 n=g#4 v=44
31274 Off ch=1 n=f5 v=64
31276 Off ch=1 n=c#5 v=64
31283 Off ch=1 n=g#4 v=64
31283 Off ch=1 n=f4 v=64
31322 On ch=1 n=f6 v=32
31334 Off ch=1 n=g#6 v=64
31393 On ch=1 n=d#6 v=55
31393 On ch=1 n=g#3 v=49
31408 Par ch=1 c=64 v=0
31413 Off ch=1 n=f6 v=64
31416 Par ch=1 c=64 v=0
31451 Par ch=1 c=64 v=127
31459 Par ch=1 c=64 v=127
31477 On ch=1 n=c6 v=49
31500 Off ch=1 n=d#6 v=64
31533 Par ch=1 c=64 v=0
31541 Par ch=1 c=64 v=0
31545 On ch=1 n=g#5 v=58
31545 On ch=1 n=d#4 v=35
31549 On ch=1 n=g#4 v=46
31553 On ch=1 n=c5 v=37
31559 Off ch=1 n=c6 v=64
31574 Par ch=1 c=64 v=127
31582 Par ch=1 c=64 v=127
31607 Off ch=1 n=d#4 v=64
31615 Off ch=1 n=c5 v=64
31633 Off ch=1 n=g#3 v=64
31635 Off ch=1 n=g#5 v=64
31639 Off ch=1 n=g#4 v=64
31701 On ch=1 n=d#4 v=35
31709 On ch=1 n=c5 v=37
31711 On ch=1 n=g#4 v=16
31717 Par ch=1 c=64 v=0
31725 Par ch=1 c=64 v=0
31734 Off ch=1 n=g#4 v=64
31758 Par ch=1 c=64 v=127
31763 Off ch=1 n=d#4 v=64
31766 Par ch=1 c=64 v=127
31771 Off ch=1 n=c5 v=64
31840 On ch=1 n=f6 v=55
31849 Par ch=1 c=64 v=0
31851 On ch=1 n=c#4 v=44
31857 Par ch=1 c=64 v=0
31884 Par ch=1 c=64 v=127
31892 Par ch=1 c=64 v=127
31957 On ch=1 n=g6 v=31
31985 Off ch=1 n=f6 v=64
31996 On ch=1 n=g#6 v=63
31997 On ch=1 n=c#5 v=39
31997 On ch=1 n=g#4 v=37
31997 On ch=1 n=f4 v=35
32000 On ch=1 n=f5 v=18
32010 Par ch=1 c=64 v=0
32018 Par ch=1 c=64 v=0
32021 Off ch=1 n=g6 v=64
32051 Par ch=1 c=64 v=127
32056 Off ch=1 n=f5 v=64
32056 Off ch=1 n=f4 v=64
32056 Off ch=1 n=g#4 v=64
32059 Par ch=1 c=64 v=127
32073 Off ch=1 n=g#6 v=64
32079 On ch=1 n=a#6 v=65
32083 Off ch=1 n=c#5 v=64
32088 Off ch=1 n=c#4 v=64
32120 On ch=1 n=g#6 v=65
32126 On ch=1 n=f5 v=36
32126 On ch=1 n=c#5 v=37
32126 On ch=1 n=g#4 v=36
32126 On ch=1 n=f4 v=31
32135 Off ch=1 n=a#6 v=64
32161 Off ch=1 n=f5 v=64
32168 Off ch=1 n=c#5 v=64
32170 Off ch=1 n=g#4 v=64
32171 Off ch=1 n=f4 v=64
32193 On ch=1 n=f6 v=55
32207 Off ch=1 n=g#6 v=64
32235 Par ch=1 c=64 v=127
32243 Par ch=1 c=64 v=127
32248 Par ch=1 c=64 v=0
32256 Par ch=1 c=64 v=0
32258 On ch=1 n=d#6 v=58
32262 On ch=1 n=g#3 v=54
32269 Off ch=1 n=f6 v=64
32270 Par ch=1 c=64 v=127
32278 Par ch=1 c=64 v=127
32280 Par ch=1 c=64 v=0
32288 Par ch=1 c=64 v=0
32323 On ch=1 n=c6 v=57
32354 Off ch=1 n=d#6 v=64
32376 Par ch=1 c=64 v=0
32384 Par ch=1 c=64 v=0
32390 Par ch=1 c=64 v=127
32398 Par ch=1 c=64 v=127
32402 On ch=1 n=g#5 v=67
32402 On ch=1 n=g#4 v=41
32402 On ch=1 n=d#4 v=41
32406 On ch=1 n=c5 v=41
32417 Off ch=1 n=c6 v=64
32437 Off ch=1 n=g#4 v=64
32457 Off ch=1 n=c5 v=64
32465 Off ch=1 n=d#4 v=64
32502 Off ch=1 n=g#3 v=64
32546 On ch=1 n=g#4 v=41
32546 On ch=1 n=d#4 v=41
32550 On ch=1 n=c5 v=41
32585 Off ch=1 n=c5 v=64
32586 Off ch=1 n=g#4 v=64
32594 Off ch=1 n=d#4 v=64
32686 On ch=1 n=f5 v=53
32690 On ch=1 n=c#4 v=45
32694 On ch=1 n=c#5 v=55
32694 On ch=1 n=g#4 v=52
32711 Off ch=1 n=g#5 v=64
32716 Par ch=1 c=64 v=0
32724 Par ch=1 c=64 v=0
32729 Off ch=1 n=g#4 v=64
32732 Off ch=1 n=c#5 v=64
32735 Off ch=1 n=c#4 v=64
32744 Par ch=1 c=64 v=127
32752 Par ch=1 c=64 v=127
32772 On ch=1 n=c#6 v=46
32776 Off ch=1 n=f5 v=64
32829 Par ch=1 c=64 v=0
32837 Par ch=1 c=64 v=0
32845 On ch=1 n=c6 v=55
32847 On ch=1 n=d#5 v=70
32852 Off ch=1 n=c#6 v=64
32852 On ch=1 n=g#4 v=55
32856 On ch=1 n=g#3 v=53
32876 Off ch=1 n=g#3 v=64
32879 Off ch=1 n=g#4 v=64
32882 Off ch=1 n=d#5 v=64
32985 On ch=1 n=g#4 v=57
32991 On ch=1 n=g#3 v=52
32995 On ch=1 n=d#5 v=59
33023 Off ch=1 n=g#3 v=64
33023 Off ch=1 n=g#4 v=64
33038 Off ch=1 n=d#5 v=64
33070 Off ch=1 n=c6 v=64
33121 On ch=1 n=g#5 v=52
33123 On ch=1 n=g#4 v=49
33131 On ch=1 n=f5 v=35
33131 On ch=1 n=c#4 v=20
33137 Par ch=1 c=64 v=127
33145 Par ch=1 c=64 v=127
33175 Off ch=1 n=c#4 v=64
33182 Off ch=1 n=g#4 v=64
33190 Off ch=1 n=f5 v=64
33191 On ch=1 n=d#6 v=26
33215 Off ch=1 n=g#5 v=64
33227 On ch=1 n=c#6 v=49
33229 Par ch=1 c=64 v=0
33237 Par ch=1 c=64 v=0
33243 Off ch=1 n=d#6 v=64
33255 On ch=1 n=d#5 v=53
33262 On ch=1 n=g#4 v=44
33262 On ch=1 n=g#3 v=44
33269 On ch=1 n=c6 v=55
33290 Off ch=1 n=g#3 v=64
33290 Off ch=1 n=c#6 v=64
33291 Off ch=1 n=g#4 v=64
33318 Off ch=1 n=d#5 v=64
33401 On ch=1 n=d#5 v=57
33410 On ch=1 n=g#4 v=48
33410 On ch=1 n=g#3 v=45
33447 Off ch=1 n=g#3 v=64
33447 Off ch=1 n=g#4 v=64
33451 Off ch=1 n=d#5 v=64
33521 Off ch=1 n=c6 v=64
33542 On ch=1 n=c#4 v=39
33547 On ch=1 n=g#4 v=42
33548 On ch=1 n=g#5 v=41
33554 On ch=1 n=f5 v=36
33560 Par ch=1 c=64 v=127
33568 Par ch=1 c=64 v=127
33582 Off ch=1 n=c#4 v=64
33593 Off ch=1 n=g#4 v=64
33598 Off ch=1 n=f5 v=64
33619 On ch=1 n=c#6 v=50
33628 Off ch=1 n=g#5 v=64
33651 Par ch=1 c=64 v=0
33659 Par ch=1 c=64 v=0
33667 On ch=1 n=c6 v=49
33673 On ch=1 n=d#5 v=53
33677 On ch=1 n=g#4 v=41
33677 On ch=1 n=g#3 v=39
33684 Off ch=1 n=c#6 v=64
33704 Off ch=1 n=d#5 v=64
33711 Off ch=1 n=g#3 v=64
33712 Off ch=1 n=g#4 v=64
33724 Off ch=1 n=c6 v=64
33802 On ch=1 n=c6 v=37
33804 On ch=1 n=d#5 v=50
33814 On ch=1 n=g#3 v=41
33821 On ch=1 n=g#4 v=41
33825 Par ch=1 c=64 v=127
33833 Par ch=1 c=64 v=127
33852 Off ch=1 n=g#4 v=64
33852 Off ch=1 n=d#5 v=64
33855 Off ch=1 n=c6 v=64
33856 Off ch=1 n=g#3 v=64
33912 Par ch=1 c=64 v=0
33920 Par ch=1 c=64 v=0
33949 On ch=1 n=g#5 v=42
33949 On ch=1 n=c#4 v=39
33954 On ch=1 n=f5 v=37
33954 On ch=1 n=g#4 v=40
33977 Par ch=1 c=64 v=127
33985 Par ch=1 c=64 v=127
34003 Off ch=1 n=f5 v=64
34013 Off ch=1 n=c#4 v=64
34028 On ch=1 n=c#6 v=37
34035 Off ch=1 n=g#5 v=64
34059 Off ch=1 n=g#4 v=64
34064 Par ch=1 c=64 v=0
34072 Par ch=1 c=64 v=0
34082 On ch=1 n=c6 v=40
34087 On ch=1 n=d#5 v=48
34088 Off ch=1 n=c#6 v=64
34091 On ch=1 n=g#4 v=27
34091 On ch=1 n=g#3 v=32
34109 Par ch=1 c=64 v=127
34117 Par ch=1 c=64 v=127
34143 Off ch=1 n=g#4 v=64
34148 Off ch=1 n=d#5 v=64
34155 Off ch=1 n=g#3 v=64
34209 Off ch=1 n=c6 v=64
34254 On ch=1 n=g#3 v=27
34261 On ch=1 n=d#5 v=31
34263 On ch=1 n=d#5 v=28
34269 On ch=1 n=g#4 v=26
34298 Off ch=1 n=d#5 v=64
34307 Off ch=1 n=g#3 v=64
34309 Off ch=1 n=g#4 v=64
34313 Off ch=1 n=d#5 v=64
34339 On ch=1 n=c#5 v=42
34435 On ch=1 n=g#5 v=40
34442 On ch=1 n=c5 v=35
34446 On ch=1 n=g#3 v=40
34451 Off ch=1 n=c#5 v=64
34454 Par ch=1 c=64 v=0
34462 Par ch=1 c=64 v=0
34496 Par ch=1 c=64 v=127
34504 Par ch=1 c=64 v=127
34518 Off ch=1 n=g#3 v=64
34540 Off ch=1 n=c5 v=64
34570 Off ch=1 n=g#5 v=64
34616 On ch=1 n=g#5 v=40
34619 On ch=1 n=a#4 v=50
34620 Par ch=1 c=64 v=0
34625 On ch=1 n=d#4 v=36
34627 On ch=1 n=g#3 v=31
34628 Par ch=1 c=64 v=0
34656 Par ch=1 c=64 v=127
34664 Par ch=1 c=64 v=127
34685 Off ch=1 n=a#4 v=64
34722 Off ch=1 n=g#5 v=64
34766 On ch=1 n=c5 v=39
34804 Off ch=1 n=d#4 v=64
34814 Off ch=1 n=g#3 v=64
34828 On ch=1 n=c#5 v=48
34857 Off ch=1 n=c5 v=64
34888 Par ch=1 c=64 v=0
34890 On ch=1 n=g#5 v=48
34896 Par ch=1 c=64 v=0
34900 On ch=1 n=g#3 v=40
34903 On ch=1 n=d#4 v=36
34905 On ch=1 n=d#5 v=49
34920 Par ch=1 c=64 v=127
34928 Par ch=1 c=64 v=127
34932 Off ch=1 n=c#5 v=64
34948 Off ch=1 n=d#4 v=64
34964 Off ch=1 n=g#3 v=64
34967 Off ch=1 n=g#5 v=64
34971 On ch=1 n=c5 v=44
34994 Off ch=1 n=d#5 v=64
35061 Par ch=1 c=64 v=0
35069 Par ch=1 c=64 v=0
35077 On ch=1 n=g#3 v=18
35079 On ch=1 n=d#4 v=22
35089 On ch=1 n=g#5 v=41
35092 On ch=1 n=c#5 v=42
35120 Off ch=1 n=c5 v=64
35130 Par ch=1 c=64 v=127
35138 Par ch=1 c=64 v=127
35272 Off ch=1 n=g#5 v=64
35309 Off ch=1 n=d#4 v=64
35311 Off ch=1 n=g#3 v=64
35313 On ch=1 n=a#4 v=40
35319 Off ch=1 n=c#5 v=64
35361 Off ch=1 n=a#4 v=64
35400 On ch=1 n=d#4 v=31
35400 On ch=1 n=g#3 v=36
35405 On ch=1 n=g#5 v=36
35410 On ch=1 n=c5 v=44
35411 Par ch=1 c=64 v=0
35419 Par ch=1 c=64 v=0
35433 Par ch=1 c=64 v=127
35441 Par ch=1 c=64 v=127
35460 Off ch=1 n=d#4 v=64
35474 Off ch=1 n=g#3 v=64
35474 On ch=1 n=c#5 v=49
35491 Off ch=1 n=c5 v=64
35522 Off ch=1 n=c#5 v=64
35527 On ch=1 n=c5 v=48
35543 Par ch=1 c=64 v=0
35551 Par ch=1 c=64 v=0
35560 On ch=1 n=d#4 v=39
35567 On ch=1 n=a#4 v=49
35567 On ch=1 n=g#3 v=36
35581 Par ch=1 c=64 v=127
35583 Off ch=1 n=c5 v=64
35589 Par ch=1 c=64 v=127
35623 Off ch=1 n=d#4 v=64
35628 Off ch=1 n=g#3 v=64
35636 Off ch=1 n=g#5 v=64
35664 Off ch=1 n=a#4 v=64
35702 On ch=1 n=c5 v=42
35710 On ch=1 n=g#5 v=36
35763 On ch=1 n=c#5 v=44
35770 Off ch=1 n=c5 v=64
35773 Off ch=1 n=g#5 v=64
35822 Off ch=1 n=c#5 v=64
35845 On ch=1 n=d#5 v=36
35847 Par ch=1 c=64 v=0
35850 On ch=1 n=g#5 v=42
35850 On ch=1 n=d#4 v=36
35855 Par ch=1 c=64 v=0
35862 On ch=1 n=g#3 v=31
35863 Par ch=1 c=64 v=127
35871 Par ch=1 c=64 v=127
35894 Off ch=1 n=d#5 v=64
35897 On ch=1 n=f#5 v=28
35907 Off ch=1 n=d#4 v=64
35915 Off ch=1 n=g#3 v=64
35915 Off ch=1 n=g#5 v=64
35951 On ch=1 n=e5 v=39
35996 On ch=1 n=d#4 v=32
35999 On ch=1 n=g#5 v=44
36000 On ch=1 n=g#3 v=36
36009 Par ch=1 c=64 v=0
36012 On ch=1 n=d#5 v=42
36017 Par ch=1 c=64 v=0
36023 Off ch=1 n=f#5 v=64
36029 Off ch=1 n=e5 v=64
36055 Par ch=1 c=64 v=127
36063 Par ch=1 c=64 v=127
36121 Off ch=1 n=g#5 v=64
36189 Off ch=1 n=d#5 v=64
36215 Off ch=1 n=g#3 v=64
36218 Off ch=1 n=d#4 v=64
36296 Par ch=1 c=64 v=0
36300 On ch=1 n=d#4 v=36
36304 Par ch=1 c=64 v=0
36310 On ch=1 n=c5 v=46
36310 On ch=1 n=g#3 v=36
36316 On ch=1 n=g#5 v=31
36316 Par ch=1 c=64 v=127
36324 Par ch=1 c=64 v=127
36362 On ch=1 n=c#5 v=36
36369 Off ch=1 n=g#3 v=64
36369 Off ch=1 n=d#4 v=64
36372 Off ch=1 n=c5 v=64
36406 Off ch=1 n=g#5 v=64
36406 On ch=1 n=c5 v=46
36412 Off ch=1 n=c#5 v=64
36432 Par ch=1 c=64 v=0
36434 On ch=1 n=g#5 v=40
36440 Par ch=1 c=64 v=0
36450 On ch=1 n=a#4 v=49
36450 On ch=1 n=d#4 v=28
36457 On ch=1 n=g#3 v=31
36461 Off ch=1 n=c5 v=64
36462 Par ch=1 c=64 v=127
36470 Par ch=1 c=64 v=127
36504 Off ch=1 n=g#3 v=64
36507 Off ch=1 n=d#4 v=64
36518 Off ch=1 n=g#5 v=64
36528 Off ch=1 n=a#4 v=64
36586 On ch=1 n=c5 v=44
36589 On ch=1 n=g#5 v=44
36594 On ch=1 n=d#4 v=29
36601 On ch=1 n=g#3 v=23
36645 On ch=1 n=c#5 v=49
36647 Off ch=1 n=d#4 v=64
36649 Off ch=1 n=g#3 v=64
36656 Off ch=1 n=g#5 v=64
36656 Off ch=1 n=c5 v=64
36709 Off ch=1 n=c#5 v=64
36719 On ch=1 n=d#5 v=44
36724 Par ch=1 c=64 v=0
36726 On ch=1 n=g#5 v=48
36728 On ch=1 n=d#4 v=24
36732 Par ch=1 c=64 v=0
36738 On ch=1 n=g#3 v=29
36750 Par ch=1 c=64 v=127
36758 Par ch=1 c=64 v=127
36781 Off ch=1 n=d#5 v=64
36786 Off ch=1 n=d#4 v=64
36789 Off ch=1 n=g#3 v=64
36794 On ch=1 n=c5 v=46
36827 Off ch=1 n=g#5 v=64
36861 On ch=1 n=d#5 v=37
36870 Off ch=1 n=c5 v=64
36875 On ch=1 n=c#5 v=49
36880 On ch=1 n=g#5 v=23
36880 On ch=1 n=d#4 v=28
36883 On ch=1 n=g#3 v=22
36892 Off ch=1 n=d#5 v=64
36948 Off ch=1 n=g#3 v=64
36952 Off ch=1 n=d#4 v=64
36958 On ch=1 n=c5 v=49
36961 Off ch=1 n=c#5 v=64
36964 Off ch=1 n=g#5 v=64
37016 On ch=1 n=c#5 v=49
37020 Off ch=1 n=c5 v=64
37029 On ch=1 n=g#5 v=18
37031 On ch=1 n=d#4 v=36
37046 On ch=1 n=g#3 v=19
37075 Off ch=1 n=g#5 v=64
37089 Off ch=1 n=g#3 v=64
37092 Off ch=1 n=c#5 v=64
37108 Off ch=1 n=d#4 v=64
37109 On ch=1 n=a#4 v=55
37150 Off ch=1 n=a#4 v=64
37197 On ch=1 n=d#4 v=36
37202 Par ch=1 c=64 v=0
37203 On ch=1 n=g#3 v=36
37205 On ch=1 n=g#5 v=36
37205 On ch=1 n=c5 v=49
37210 Par ch=1 c=64 v=0
37235 On ch=1 n=c#5 v=46
37238 Par ch=1 c=64 v=127
37246 Par ch=1 c=64 v=127
37249 Off ch=1 n=c5 v=64
37259 Off ch=1 n=g#3 v=64
37263 Off ch=1 n=d#4 v=64
37279 On ch=1 n=c5 v=48
37285 Off ch=1 n=c#5 v=64
37305 Off ch=1 n=g#5 v=64
37325 On ch=1 n=g#5 v=40
37330 On ch=1 n=a#4 v=53
37333 Par ch=1 c=64 v=0
37336 On ch=1 n=d#4 v=29
37341 Off ch=1 n=c5 v=64
37341 Par ch=1 c=64 v=0
37350 Par ch=1 c=64 v=127
37354 On ch=1 n=g#3 v=22
37358 Par ch=1 c=64 v=127
37406 Off ch=1 n=g#3 v=64
37420 Off ch=1 n=d#4 v=64
37427 Off ch=1 n=g#5 v=64
37429 Off ch=1 n=a#4 v=64
37466 On ch=1 n=d#4 v=31
37469 On ch=1 n=c5 v=42
37470 On ch=1 n=g#5 v=36
37470 On ch=1 n=g#3 v=36
37551 On ch=1 n=c#5 v=46
37554 Off ch=1 n=d#4 v=64
37556 Off ch=1 n=g#3 v=64
37564 Off ch=1 n=c5 v=64
37571 Off ch=1 n=g#5 v=64
37609 Off ch=1 n=c#5 v=64
37642 Par ch=1 c=64 v=0
37647 On ch=1 n=d#4 v=24
37650 Par ch=1 c=64 v=0
37658 On ch=1 n=g#3 v=20
37662 On ch=1 n=d#5 v=36
37673 On ch=1 n=g#5 v=35
37678 Par ch=1 c=64 v=127
37686 Par ch=1 c=64 v=127
37700 Off ch=1 n=g#5 v=64
37700 Off ch=1 n=d#5 v=64
37709 Off ch=1 n=d#4 v=64
37715 Off ch=1 n=g#3 v=64
37731 On ch=1 n=g#5 v=37
37731 On ch=1 n=f#5 v=44
37764 Off ch=1 n=g#5 v=64
37784 Off ch=1 n=f#5 v=64
37799 On ch=1 n=e5 v=42
37804 On ch=1 n=g#5 v=42
37848 Off ch=1 n=g#5 v=64
37850 Off ch=1 n=e5 v=64
37882 On ch=1 n=g#5 v=44
37892 On ch=1 n=d#5 v=40
37909 Par ch=1 c=64 v=0
37912 On ch=1 n=g#3 v=19
37916 On ch=1 n=d#4 v=16
37917 Par ch=1 c=64 v=0
37956 Par ch=1 c=64 v=127
37964 Par ch=1 c=64 v=127
37994 Off ch=1 n=d#5 v=64
38009 Off ch=1 n=g#5 v=64
38103 Off ch=1 n=g#3 v=64
38120 Off ch=1 n=d#4 v=64
38176 On ch=1 n=g#5 v=55
38374 Par ch=1 c=64 v=0
38380 On ch=1 n=c4 v=52
38382 Par ch=1 c=64 v=0
38398 On ch=1 n=g#6 v=59
38431 Par ch=1 c=64 v=127
38439 Par ch=1 c=64 v=127
38450 Off ch=1 n=g#5 v=64
38548 On ch=1 n=a6 v=46
38552 Off ch=1 n=g#6 v=64
38570 Par ch=1 c=64 v=0
38578 On ch=1 n=g#4 v=31
38578 Par ch=1 c=64 v=0
38592 On ch=1 n=f#6 v=55
38592 On ch=1 n=d#5 v=35
38598 On ch=1 n=f#5 v=23
38606 Off ch=1 n=a6 v=64
38620 Off ch=1 n=c4 v=64
38622 Par ch=1 c=64 v=127
38630 Par ch=1 c=64 v=127
38638 Off ch=1 n=g#4 v=64
38646 Off ch=1 n=f#5 v=64
38648 Off ch=1 n=d#5 v=64
38731 On ch=1 n=g#4 v=34
38737 On ch=1 n=f#5 v=42
38744 On ch=1 n=d#5 v=28
38761 Off ch=1 n=d#5 v=64
38768 Off ch=1 n=f#5 v=64
38774 Off ch=1 n=g#4 v=64
38811 On ch=1 n=g#6 v=46
38814 Off ch=1 n=f#6 v=64
38855 Par ch=1 c=64 v=0
38863 Par ch=1 c=64 v=0
38868 On ch=1 n=c#4 v=48
38870 On ch=1 n=e6 v=55
38880 Off ch=1 n=g#6 v=64
38894 Par ch=1 c=64 v=127
38902 Par ch=1 c=64 v=127
38971 On ch=1 n=g#6 v=44
38974 Off ch=1 n=e6 v=64
38996 Par ch=1 c=64 v=0
38999 On ch=1 n=g#4 v=26
39001 On ch=1 n=c#6 v=57
39004 Par ch=1 c=64 v=0
39010 On ch=1 n=c#5 v=37
39015 Par ch=1 c=64 v=127
39017 On ch=1 n=e5 v=19
39023 Par ch=1 c=64 v=127
39031 Off ch=1 n=g#6 v=64
39050 Off ch=1 n=g#4 v=64
39060 Off ch=1 n=c#5 v=64
39069 Off ch=1 n=e5 v=64
39108 Off ch=1 n=c#4 v=64
39146 Off ch=1 n=c#6 v=64
39146 On ch=1 n=e6 v=46
39146 On ch=1 n=c#5 v=34
39150 On ch=1 n=e5 v=28
39150 On ch=1 n=g#4 v=37
39170 Off ch=1 n=c#5 v=64
39185 Off ch=1 n=e5 v=64
39190 Off ch=1 n=g#4 v=64
39275 Off ch=1 n=e6 v=64
39278 On ch=1 n=g#6 v=52
39282 Par ch=1 c=64 v=0
39285 On ch=1 n=c4 v=46
39290 Par ch=1 c=64 v=0
39306 Par ch=1 c=64 v=127
39314 Par ch=1 c=64 v=127
39375 Off ch=1 n=g#6 v=64
39380 On ch=1 n=a6 v=52
39408 Par ch=1 c=64 v=0
39416 Par ch=1 c=64 v=0
39417 On ch=1 n=g#4 v=42
39423 On ch=1 n=f#6 v=52
39428 On ch=1 n=f#5 v=29
39428 On ch=1 n=d#5 v=18
39438 Off ch=1 n=a6 v=64
39448 Par ch=1 c=64 v=127
39456 Par ch=1 c=64 v=127
39463 Off ch=1 n=g#4 v=64
39470 Off ch=1 n=d#5 v=64
39482 Off ch=1 n=f#5 v=64
39525 Off ch=1 n=c4 v=64
39562 On ch=1 n=d#5 v=40
39566 On ch=1 n=f#5 v=34
39567 On ch=1 n=g#4 v=37
39569 On ch=1 n=g#6 v=52
39576 Off ch=1 n=f#6 v=64
39597 Off ch=1 n=d#5 v=64
39599 Off ch=1 n=f#5 v=64
39613 Off ch=1 n=g#4 v=64
39697 On ch=1 n=e6 v=44
39702 On ch=1 n=c#4 v=44
39711 Par ch=1 c=64 v=0
39712 Off ch=1 n=g#6 v=64
39719 Par ch=1 c=64 v=0
39734 Par ch=1 c=64 v=127
39742 Par ch=1 c=64 v=127
39769 On ch=1 n=f#6 v=44
39773 Off ch=1 n=e6 v=64
39803 On ch=1 n=g#6 v=41
39818 Off ch=1 n=f#6 v=64
39837 Off ch=1 n=g#6 v=64
39864 On ch=1 n=g#6 v=55
39870 Par ch=1 c=64 v=0
39878 Par ch=1 c=64 v=0
39894 On ch=1 n=e5 v=31
39895 On ch=1 n=c#5 v=29
39899 On ch=1 n=c#6 v=55
39899 On ch=1 n=g#4 v=22
39917 Off ch=1 n=g#6 v=64
39927 Par ch=1 c=64 v=127
39935 Par ch=1 c=64 v=127
39939 Off ch=1 n=c#4 v=64
39987 Off ch=1 n=c#5 v=64
39992 Off ch=1 n=g#4 v=64
39997 Off ch=1 n=e5 v=64
40111 Off ch=1 n=c#6 v=64
40132 On ch=1 n=d6 v=58
40220 Par ch=1 c=64 v=0
40223 On ch=1 n=d#6 v=58
40223 On ch=1 n=g3 v=55
40228 Par ch=1 c=64 v=0
40242 Off ch=1 n=d6 v=64
40268 Par ch=1 c=64 v=127
40276 Par ch=1 c=64 v=127
40313 Par ch=1 c=64 v=0
40321 Par ch=1 c=64 v=0
40329 On ch=1 n=e6 v=61
40343 Off ch=1 n=d#6 v=64
40358 On ch=1 n=a#4 v=46
40361 On ch=1 n=c#5 v=46
40367 On ch=1 n=d#4 v=37
40375 On ch=1 n=c#6 v=70
40383 Off ch=1 n=a#4 v=64
40392 Off ch=1 n=d#4 v=64
40398 Off ch=1 n=e6 v=64
40403 Off ch=1 n=c#5 v=64
40463 Off ch=1 n=g3 v=64
40491 On ch=1 n=c#5 v=40
40496 On ch=1 n=d#4 v=44
40506 On ch=1 n=a#4 v=48
40513 Par ch=1 c=64 v=127
40521 Par ch=1 c=64 v=127
40529 Off ch=1 n=a#4 v=64
40539 Off ch=1 n=c#5 v=64
40542 Off ch=1 n=d#4 v=64
40577 On ch=1 n=d#6 v=52
40585 Off ch=1 n=c#6 v=64
40594 Par ch=1 c=64 v=0
40602 Par ch=1 c=64 v=0
40622 On ch=1 n=c6 v=58
40638 Off ch=1 n=d#6 v=64
40641 On ch=1 n=g#3 v=66
40663 Par ch=1 c=64 v=127
40671 Par ch=1 c=64 v=127
40723 On ch=1 n=d#6 v=59
40730 Off ch=1 n=c6 v=64
40740 Par ch=1 c=64 v=0
40748 Par ch=1 c=64 v=0
40768 On ch=1 n=g#5 v=66
40771 On ch=1 n=d#4 v=45
40775 On ch=1 n=f#4 v=44
40783 Off ch=1 n=d#6 v=64
40783 On ch=1 n=c5 v=44
40785 Par ch=1 c=64 v=127
40793 Par ch=1 c=64 v=127
40818 Off ch=1 n=d#4 v=64
40829 Off ch=1 n=c5 v=64
40829 Off ch=1 n=f#4 v=64
40881 Off ch=1 n=g#3 v=64
40892 Off ch=1 n=g#5 v=64
40906 On ch=1 n=b5 v=57
40920 On ch=1 n=f#4 v=45
40923 On ch=1 n=c5 v=48
40931 On ch=1 n=d#4 v=38
40942 On ch=1 n=a5 v=58
40943 Off ch=1 n=b5 v=64
40964 Off ch=1 n=d#4 v=64
40965 Off ch=1 n=c5 v=64
40967 Off ch=1 n=f#4 v=64
40972 On ch=1 n=b5 v=70
40975 Off ch=1 n=a5 v=64
41006 Off ch=1 n=b5 v=64
41010 On ch=1 n=a5 v=70
41033 On ch=1 n=b5 v=70
41039 Off ch=1 n=a5 v=64
41069 On ch=1 n=a5 v=63
41072 Off ch=1 n=b5 v=64
41087 Par ch=1 c=64 v=0
41092 On ch=1 n=g#3 v=44
41095 On ch=1 n=g#5 v=58
41095 Par ch=1 c=64 v=0
41102 Off ch=1 n=a5 v=64
41136 Par ch=1 c=64 v=127
41144 Par ch=1 c=64 v=127
41174 Off ch=1 n=g#5 v=64
41220 On ch=1 n=f#5 v=54
41232 Par ch=1 c=64 v=0
41240 Par ch=1 c=64 v=0
41252 On ch=1 n=d#4 v=41
41257 On ch=1 n=f#4 v=40
41260 On ch=1 n=d#5 v=67
41268 On ch=1 n=c5 v=45
41269 Off ch=1 n=f#5 v=64
41277 Par ch=1 c=64 v=127
41285 Par ch=1 c=64 v=127
41313 Off ch=1 n=f#4 v=64
41313 Off ch=1 n=d#4 v=64
41315 Off ch=1 n=c5 v=64
41332 Off ch=1 n=g#3 v=64
41410 On ch=1 n=g#5 v=70
41417 On ch=1 n=c5 v=40
41419 On ch=1 n=f#4 v=37
41419 On ch=1 n=d#4 v=46
41439 Off ch=1 n=d#5 v=64
41453 Off ch=1 n=f#4 v=64
41455 Off ch=1 n=c5 v=64
41459 Off ch=1 n=d#4 v=64
41462 Off ch=1 n=g#5 v=64
41464 Par ch=1 c=64 v=127
41472 Par ch=1 c=64 v=127
41509 Par ch=1 c=64 v=0
41517 Par ch=1 c=64 v=0
41561 On ch=1 n=g#5 v=57
41600 On ch=1 n=c#5 v=67
41600 On ch=1 n=c#3 v=50
41606 Par ch=1 c=64 v=0
41614 Par ch=1 c=64 v=0
41624 Off ch=1 n=g#5 v=64
41649 Par ch=1 c=64 v=127
41657 Par ch=1 c=64 v=127
41779 On ch=1 n=c#4 v=19
41823 On ch=1 n=g#4 v=40
41837 Off ch=1 n=c#3 v=64
41852 On ch=1 n=e5 v=29
41996 On ch=1 n=g#5 v=50
42012 Off ch=1 n=g#4 v=64
42027 Off ch=1 n=c#4 v=64
42034 Off ch=1 n=c#5 v=64
42062 Off ch=1 n=e5 v=64
42136 Par ch=1 c=64 v=0
42144 Par ch=1 c=64 v=0
42150 On ch=1 n=g#6 v=46
42153 On ch=1 n=c4 v=48
42186 Par ch=1 c=64 v=127
42194 Par ch=1 c=64 v=127
42212 Off ch=1 n=g#5 v=64
42224 On ch=1 n=a6 v=46
42247 Off ch=1 n=g#6 v=64
42253 Par ch=1 c=64 v=0
42261 Par ch=1 c=64 v=0
42284 On ch=1 n=f#6 v=52
42290 On ch=1 n=g#4 v=35
42293 Off ch=1 n=a6 v=64
42300 On ch=1 n=d#5 v=35
42303 On ch=1 n=f#5 v=18
42329 Par ch=1 c=64 v=127
42330 Off ch=1 n=g#4 v=64
42337 Par ch=1 c=64 v=127
42344 Off ch=1 n=f#5 v=64
42344 Off ch=1 n=d#5 v=64
42393 Off ch=1 n=c4 v=64
42413 Par ch=1 c=64 v=0
42421 Par ch=1 c=64 v=0
42432 Par ch=1 c=64 v=127
42437 On ch=1 n=g#4 v=39
42440 On ch=1 n=g#6 v=46
42440 On ch=1 n=f#5 v=28
42440 Par ch=1 c=64 v=127
42444 On ch=1 n=d#5 v=35
42452 Off ch=1 n=f#6 v=64
42467 Off ch=1 n=f#5 v=64
42474 Off ch=1 n=d#5 v=64
42481 Off ch=1 n=g#4 v=64
42570 On ch=1 n=e6 v=46
42573 Par ch=1 c=64 v=0
42575 Off ch=1 n=g#6 v=64
42575 On ch=1 n=c#4 v=50
42581 Par ch=1 c=64 v=0
42592 Par ch=1 c=64 v=127
42600 Par ch=1 c=64 v=127
42639 On ch=1 n=g#6 v=55
42650 Off ch=1 n=e6 v=64
42671 Par ch=1 c=64 v=0
42679 Par ch=1 c=64 v=0
42694 On ch=1 n=c#6 v=57
42694 On ch=1 n=e5 v=31
42694 On ch=1 n=g#4 v=37
42696 On ch=1 n=c#5 v=37
42707 Off ch=1 n=g#6 v=64
42718 Par ch=1 c=64 v=127
42722 Off ch=1 n=g#4 v=64
42726 Off ch=1 n=c#5 v=64
42726 Off ch=1 n=e5 v=64
42726 Par ch=1 c=64 v=127
42815 Off ch=1 n=c#4 v=64
42825 On ch=1 n=e5 v=28
42833 On ch=1 n=e6 v=50
42833 On ch=1 n=g#4 v=22
42839 On ch=1 n=c#5 v=28
42856 Off ch=1 n=c#6 v=64
42870 Off ch=1 n=c#5 v=64
42871 Off ch=1 n=g#4 v=64
42871 Off ch=1 n=e5 v=64
42954 Off ch=1 n=e6 v=64
42971 On ch=1 n=g#6 v=44
42981 Par ch=1 c=64 v=0
42987 On ch=1 n=c4 v=42
42989 Par ch=1 c=64 v=0
42994 Par ch=1 c=64 v=127
43002 Par ch=1 c=64 v=127
43025 Off ch=1 n=g#6 v=64
43028 On ch=1 n=b6 v=52
43062 On ch=1 n=a6 v=48
43087 Off ch=1 n=b6 v=64
43105 On ch=1 n=g#6 v=61
43125 Off ch=1 n=a6 v=64
43129 On ch=1 n=d#5 v=35
43129 On ch=1 n=g#4 v=33
43131 On ch=1 n=f#5 v=37
43137 Par ch=1 c=64 v=0
43145 Par ch=1 c=64 v=0
43152 On ch=1 n=d#6 v=55
43173 Off ch=1 n=g#4 v=64
43175 Off ch=1 n=d#5 v=64
43175 Off ch=1 n=g#6 v=64
43176 Par ch=1 c=64 v=127
43181 Off ch=1 n=f#5 v=64
43184 Par ch=1 c=64 v=127
43227 Off ch=1 n=c4 v=64
43313 On ch=1 n=d#5 v=31
43321 On ch=1 n=f#5 v=31
43321 On ch=1 n=g#4 v=29
43322 On ch=1 n=g#6 v=49
43349 Off ch=1 n=f#5 v=64
43353 Off ch=1 n=d#5 v=64
43357 Off ch=1 n=g#4 v=64
43357 Off ch=1 n=d#6 v=64
43414 Off ch=1 n=g#6 v=64
43419 On ch=1 n=g#6 v=39
43461 On ch=1 n=e6 v=36
43475 Off ch=1 n=g#6 v=64
43485 On ch=1 n=c#4 v=35
43487 Par ch=1 c=64 v=0
43495 Par ch=1 c=64 v=0
43530 Par ch=1 c=64 v=127
43537 On ch=1 n=f#6 v=46
43538 Par ch=1 c=64 v=127
43553 Off ch=1 n=e6 v=64
43581 On ch=1 n=g#6 v=48
43601 Off ch=1 n=f#6 v=64
43622 Off ch=1 n=g#6 v=64
43648 On ch=1 n=g#6 v=53
43684 On ch=1 n=c#5 v=22
43685 On ch=1 n=c#6 v=55
43685 On ch=1 n=e5 v=23
43685 On ch=1 n=g#4 v=22
43689 Par ch=1 c=64 v=0
43697 Par ch=1 c=64 v=0
43711 Off ch=1 n=g#6 v=64
43722 Par ch=1 c=64 v=127
43725 Off ch=1 n=c#4 v=64
43730 Par ch=1 c=64 v=127
43772 Off ch=1 n=e5 v=64
43772 Off ch=1 n=c#5 v=64
43775 Off ch=1 n=g#4 v=64
43886 Off ch=1 n=c#6 v=64
43932 On ch=1 n=d6 v=63
44028 On ch=1 n=d#6 v=62
44032 On ch=1 n=g3 v=66
44051 Off ch=1 n=d6 v=64
44162 On ch=1 n=e6 v=66
44166 Off ch=1 n=d#6 v=64
44172 Par ch=1 c=64 v=0
44180 Par ch=1 c=64 v=0
44187 On ch=1 n=d#4 v=49
44189 On ch=1 n=c#5 v=24
44194 On ch=1 n=a#4 v=52
44197 On ch=1 n=c#6 v=79
44218 Off ch=1 n=e6 v=64
44226 Par ch=1 c=64 v=127
44234 Par ch=1 c=64 v=127
44239 Off ch=1 n=c#5 v=64
44242 Off ch=1 n=a#4 v=64
44246 Off ch=1 n=d#4 v=64
44272 Off ch=1 n=g3 v=64
44339 On ch=1 n=c#5 v=41
44341 On ch=1 n=d#4 v=52
44348 On ch=1 n=d#6 v=70
44352 On ch=1 n=a#4 v=56
44359 Off ch=1 n=c#6 v=64
44375 Off ch=1 n=a#4 v=64
44380 Off ch=1 n=c#5 v=64
44389 Off ch=1 n=d#4 v=64
44490 On ch=1 n=c6 v=71
44496 Par ch=1 c=64 v=0
44497 On ch=1 n=g#3 v=66
44501 Off ch=1 n=d#6 v=64
44504 Par ch=1 c=64 v=0
44560 Par ch=1 c=64 v=127
44568 Par ch=1 c=64 v=127
44619 On ch=1 n=d#6 v=75
44626 Off ch=1 n=c6 v=64
44650 On ch=1 n=d#4 v=50
44656 On ch=1 n=f#4 v=52
44662 On ch=1 n=g#5 v=79
44665 On ch=1 n=c5 v=37
44675 Off ch=1 n=d#6 v=64
44698 Off ch=1 n=d#4 v=64
44702 Off ch=1 n=c5 v=64
44704 Off ch=1 n=f#4 v=64
44734 Off ch=1 n=g#3 v=64
44760 Off ch=1 n=g#5 v=64
44837 On ch=1 n=b5 v=57
44873 On ch=1 n=a5 v=58
44874 Off ch=1 n=b5 v=64
44903 On ch=1 n=b5 v=70
44906 Off ch=1 n=a5 v=64
44937 Off ch=1 n=b5 v=64
44941 On ch=1 n=a5 v=70
44964 On ch=1 n=b5 v=70
44970 Off ch=1 n=a5 v=64
45003 Off ch=1 n=b5 v=64
45010 On ch=1 n=a5 v=63
45025 Par ch=1 c=64 v=0
45033 Par ch=1 c=64 v=0
45039 On ch=1 n=g#5 v=89
45041 On ch=1 n=g#3 v=66
45043 Off ch=1 n=a5 v=64
45085 Par ch=1 c=64 v=127
45093 Par ch=1 c=64 v=127
45113 Off ch=1 n=g#5 v=64
45199 On ch=1 n=f#5 v=66
45222 Par ch=1 c=64 v=0
45230 Par ch=1 c=64 v=0
45251 On ch=1 n=f#4 v=48
45252 On ch=1 n=d#5 v=79
45255 On ch=1 n=d#4 v=44
45256 On ch=1 n=c5 v=50
45263 Off ch=1 n=f#5 v=64
45273 Par ch=1 c=64 v=127
45278 Off ch=1 n=g#3 v=64
45281 Par ch=1 c=64 v=127
45300 Off ch=1 n=d#4 v=64
45310 Off ch=1 n=f#4 v=64
45315 Off ch=1 n=c5 v=64
45475 On ch=1 n=g#5 v=74
45476 On ch=1 n=f#4 v=37
45482 On ch=1 n=d#4 v=38
45485 On ch=1 n=c5 v=40
45489 Off ch=1 n=d#5 v=64
45526 Off ch=1 n=c5 v=64
45528 Off ch=1 n=f#4 v=64
45529 Off ch=1 n=d#4 v=64
45544 Off ch=1 n=g#5 v=64
45724 On ch=1 n=c#3 v=66
45749 Par ch=1 c=64 v=0
45757 Par ch=1 c=64 v=0
45767 On ch=1 n=g#5 v=70
45813 Par ch=1 c=64 v=127
45821 Par ch=1 c=64 v=127
45840 On ch=1 n=c#5 v=79
45855 Off ch=1 n=g#5 v=64
46025 On ch=1 n=c#4 v=41
46091 On ch=1 n=g#4 v=48
46160 On ch=1 n=e5 v=54
46228 Off ch=1 n=c#4 v=64
46282 Off ch=1 n=g#4 v=64
46343 Off ch=1 n=e5 v=64
46425 Off ch=1 n=c#5 v=64
46557 Off ch=1 n=c#3 v=64
46557 Meta TrkEnd
TrkEnd
MTrk
0 Meta TrkName "Played by Dr. Ron Lubetsky"
0 Meta TrkEnd
TrkEnd
MTrk
0 Meta TrkName "Jan. 11, 1"
