MFile 1 7 240
MTrk
0 TimeSig 4/4 24 8
0 Tempo 500000
0 Meta Marker "Chopin: Mazurka, Op. 6 No. 4- Presto ma non troppo"
0 Meta TrkEnd
TrkEnd
MTrk
0 Meta TrkName "Chopin: Op. 6 No. 4"
0 PrCh ch=1 p=0
0 Par ch=1 c=7 v=127
233 Par ch=1 c=64 v=127
241 Par ch=1 c=64 v=127
496 On ch=1 n=a#5 v=52
680 Par ch=1 c=64 v=0
684 On ch=1 n=f#5 v=46
684 On ch=1 n=d#3 v=52
688 Par ch=1 c=64 v=0
720 Par ch=1 c=64 v=127
728 Par ch=1 c=64 v=127
771 On ch=1 n=d#6 v=46
808 Off ch=1 n=a#5 v=64
814 Off ch=1 n=f#5 v=64
864 On ch=1 n=d#4 v=42
867 On ch=1 n=c#6 v=53
870 On ch=1 n=g5 v=59
874 On ch=1 n=a#4 v=46
878 Off ch=1 n=d#6 v=64
1003 Off ch=1 n=g5 v=64
1018 Off ch=1 n=c#6 v=64
1021 On ch=1 n=b5 v=44
1028 On ch=1 n=b4 v=41
1038 Off ch=1 n=a#4 v=64
1095 On ch=1 n=a#5 v=65
1099 On ch=1 n=c#5 v=46
1101 Off ch=1 n=b4 v=64
1108 Off ch=1 n=b5 v=64
1165 On ch=1 n=g#5 v=62
1167 On ch=1 n=b4 v=46
1171 Off ch=1 n=a#5 v=64
1177 Off ch=1 n=c#5 v=64
1205 Off ch=1 n=d#3 v=64
1234 On ch=1 n=b5 v=54
1239 On ch=1 n=g#4 v=53
1242 Off ch=1 n=g#5 v=64
1246 Off ch=1 n=b4 v=64
1278 Par ch=1 c=64 v=0
1286 Par ch=1 c=64 v=0
1309 On ch=1 n=f5 v=53
1309 On ch=1 n=d5 v=53
1317 Off ch=1 n=b5 v=64
1328 Off ch=1 n=g#4 v=64
1350 Par ch=1 c=64 v=127
1358 Par ch=1 c=64 v=127
1416 Par ch=1 c=64 v=0
1424 Par ch=1 c=64 v=0
1449 On ch=1 n=a#4 v=62
1456 On ch=1 n=a#5 v=62
1466 Par ch=1 c=64 v=127
1474 Par ch=1 c=64 v=127
1481 Off ch=1 n=f5 v=64
1496 Off ch=1 n=d5 v=64
1590 On ch=1 n=f#5 v=46
1590 On ch=1 n=d#5 v=44
1640 Par ch=1 c=64 v=0
1644 Off ch=1 n=a#4 v=64
1658 On ch=1 n=d#6 v=52
1662 Off ch=1 n=a#5 v=64
1678 Par ch=1 c=64 v=0
1693 Par ch=1 c=64 v=127
1701 Par ch=1 c=64 v=127
1719 Par ch=1 c=64 v=0
1727 Par ch=1 c=64 v=0
1738 On ch=1 n=a#4 v=32
1740 Par ch=1 c=64 v=127
1742 On ch=1 n=c#6 v=59
1742 On ch=1 n=g5 v=59
1748 Par ch=1 c=64 v=127
1765 Off ch=1 n=d#5 v=64
1765 Off ch=1 n=f#5 v=64
1768 Off ch=1 n=d#6 v=64
1843 Par ch=1 c=64 v=0
1851 Par ch=1 c=64 v=0
1896 Par ch=1 c=64 v=127
1898 On ch=1 n=d#5 v=53
1901 Off ch=1 n=a#4 v=64
1902 On ch=1 n=b5 v=46
1904 Par ch=1 c=64 v=127
1905 Off ch=1 n=g5 v=64
1905 Off ch=1 n=c#6 v=64
1982 On ch=1 n=a#5 v=55
1983 Off ch=1 n=d#5 v=64
1986 On ch=1 n=c#5 v=41
1987 Off ch=1 n=b5 v=64
2054 On ch=1 n=g#5 v=59
2054 On ch=1 n=b4 v=41
2066 Off ch=1 n=a#5 v=64
2070 Off ch=1 n=c#5 v=64
2101 Par ch=1 c=64 v=0
2109 Par ch=1 c=64 v=0
2117 Par ch=1 c=64 v=127
2125 Par ch=1 c=64 v=127
2134 On ch=1 n=g#4 v=53
2138 On ch=1 n=f5 v=52
2150 Off ch=1 n=b4 v=64
2150 Off ch=1 n=g#5 v=64
2218 On ch=1 n=d5 v=58
2224 Par ch=1 c=64 v=0
2232 Off ch=1 n=g#4 v=64
2232 Par ch=1 c=64 v=0
2236 Off ch=1 n=f5 v=64
2251 Par ch=1 c=64 v=127
2259 Par ch=1 c=64 v=127
2382 On ch=1 n=d#5 v=60
2382 On ch=1 n=f#4 v=45
2392 Off ch=1 n=d5 v=64
2492 Off ch=1 n=d#4 v=64
2548 Par ch=1 c=64 v=0
2549 On ch=1 n=a#5 v=55
2549 On ch=1 n=f#5 v=52
2549 On ch=1 n=d#4 v=46
2556 Off ch=1 n=f#4 v=64
2556 Off ch=1 n=d#5 v=64
2556 Par ch=1 c=64 v=0
2570 Par ch=1 c=64 v=127
2578 Par ch=1 c=64 v=127
2623 On ch=1 n=d#6 v=52
2649 Off ch=1 n=a#5 v=64
2691 On ch=1 n=g5 v=59
2695 On ch=1 n=c#6 v=46
2695 On ch=1 n=a#4 v=46
2706 Off ch=1 n=f#5 v=64
2709 Off ch=1 n=d#6 v=64
2829 On ch=1 n=b4 v=24
2830 On ch=1 n=b5 v=46
2844 Off ch=1 n=g5 v=64
2854 Off ch=1 n=a#4 v=64
2854 Off ch=1 n=c#6 v=64
2893 On ch=1 n=c#5 v=52
2899 On ch=1 n=a#5 v=61
2904 Off ch=1 n=b4 v=64
2905 Off ch=1 n=b5 v=64
2948 Par ch=1 c=64 v=0
2956 Par ch=1 c=64 v=0
2961 On ch=1 n=g#5 v=63
2967 On ch=1 n=b4 v=48
2972 Off ch=1 n=c#5 v=64
2978 Off ch=1 n=a#5 v=64
2988 Par ch=1 c=64 v=127
2996 Par ch=1 c=64 v=127
3032 On ch=1 n=b5 v=59
3034 On ch=1 n=g#4 v=29
3043 Off ch=1 n=g#5 v=64
3049 Off ch=1 n=b4 v=64
3089 Par ch=1 c=64 v=0
3097 Par ch=1 c=64 v=0
3106 On ch=1 n=d5 v=53
3108 On ch=1 n=f5 v=53
3120 Off ch=1 n=b5 v=64
3122 Off ch=1 n=g#4 v=64
3125 Par ch=1 c=64 v=127
3133 Par ch=1 c=64 v=127
3234 Par ch=1 c=64 v=0
3242 Par ch=1 c=64 v=0
3248 On ch=1 n=a#5 v=72
3259 On ch=1 n=a#4 v=67
3282 Par ch=1 c=64 v=127
3290 Par ch=1 c=64 v=127
3382 Par ch=1 c=64 v=0
3390 Par ch=1 c=64 v=0
3398 On ch=1 n=f#5 v=53
3402 On ch=1 n=d#5 v=53
3417 Par ch=1 c=64 v=127
3419 Off ch=1 n=f5 v=64
3423 Off ch=1 n=d5 v=64
3425 Par ch=1 c=64 v=127
3433 Par ch=1 c=64 v=0
3439 Off ch=1 n=a#4 v=64
3441 Par ch=1 c=64 v=0
3451 Par ch=1 c=64 v=127
3459 Par ch=1 c=64 v=127
3474 On ch=1 n=d#6 v=46
3485 Off ch=1 n=a#5 v=64
3492 Off ch=1 n=d#4 v=64
3503 Off ch=1 n=f#5 v=64
3543 On ch=1 n=c#6 v=52
3547 On ch=1 n=d#4 v=46
3551 On ch=1 n=g5 v=61
3554 Par ch=1 c=64 v=0
3562 Par ch=1 c=64 v=0
3570 Off ch=1 n=d#6 v=64
3607 Par ch=1 c=64 v=127
3615 Par ch=1 c=64 v=127
3689 Off ch=1 n=d#5 v=64
3693 On ch=1 n=b5 v=48
3695 On ch=1 n=d#5 v=46
3698 Off ch=1 n=c#6 v=64
3706 Off ch=1 n=g5 v=64
3767 On ch=1 n=a#5 v=61
3767 On ch=1 n=c#5 v=41
3779 Off ch=1 n=b5 v=64
3781 Off ch=1 n=d#5 v=64
3835 On ch=1 n=b4 v=44
3836 On ch=1 n=g#5 v=55
3857 Off ch=1 n=c#5 v=64
3857 Off ch=1 n=a#5 v=64
3912 On ch=1 n=f5 v=52
3915 On ch=1 n=g#4 v=40
3929 Off ch=1 n=b4 v=64
3930 Off ch=1 n=g#5 v=64
3975 Par ch=1 c=64 v=0
3983 Par ch=1 c=64 v=0
4005 On ch=1 n=d5 v=52
4017 Off ch=1 n=g#4 v=64
4028 Par ch=1 c=64 v=127
4036 Par ch=1 c=64 v=127
4107 Off ch=1 n=f5 v=64
4155 On ch=1 n=d#5 v=60
4198 Off ch=1 n=d5 v=64
4267 Off ch=1 n=d#4 v=64
4303 Par ch=1 c=64 v=0
4307 On ch=1 n=d#4 v=46
4311 Par ch=1 c=64 v=0
4317 On ch=1 n=a#5 v=55
4318 On ch=1 n=f#5 v=53
4337 Par ch=1 c=64 v=127
4345 Par ch=1 c=64 v=127
4386 Par ch=1 c=64 v=127
4394 Par ch=1 c=64 v=127
4457 Par ch=1 c=64 v=0
4457 On ch=1 n=c6 v=52
4459 On ch=1 n=g#4 v=53
4465 Par ch=1 c=64 v=0
4474 Off ch=1 n=a#5 v=64
4475 Off ch=1 n=f#5 v=64
4487 Par ch=1 c=64 v=127
4495 Par ch=1 c=64 v=127
4502 On ch=1 n=c#6 v=53
4504 Off ch=1 n=c6 v=64
4545 On ch=1 n=c6 v=53
4571 Off ch=1 n=c#6 v=64
4577 Par ch=1 c=64 v=0
4585 Par ch=1 c=64 v=0
4594 On ch=1 n=a#5 v=46
4601 Off ch=1 n=c6 v=64
4603 On ch=1 n=g#3 v=55
4631 Par ch=1 c=64 v=127
4639 Par ch=1 c=64 v=127
4655 On ch=1 n=c6 v=48
4662 Off ch=1 n=a#5 v=64
4690 Off ch=1 n=d#5 v=64
4721 Par ch=1 c=64 v=0
4723 On ch=1 n=c#4 v=53
4727 On ch=1 n=f5 v=46
4729 On ch=1 n=d#6 v=47
4729 Par ch=1 c=64 v=0
4735 Off ch=1 n=g#3 v=64
4736 Off ch=1 n=c6 v=64
4738 Off ch=1 n=d#4 v=64
4766 Par ch=1 c=64 v=127
4774 Par ch=1 c=64 v=127
4790 On ch=1 n=c#6 v=47
4799 Off ch=1 n=f5 v=64
4799 Off ch=1 n=d#6 v=64
4834 Off ch=1 n=g#4 v=64
4855 On ch=1 n=g#4 v=41
4859 On ch=1 n=e5 v=41
4862 On ch=1 n=g#5 v=54
4873 Off ch=1 n=c#6 v=64
4958 On ch=1 n=a#5 v=57
4972 Off ch=1 n=g#5 v=64
4975 Off ch=1 n=e5 v=64
5003 On ch=1 n=b5 v=52
5010 On ch=1 n=f#3 v=46
5015 On ch=1 n=f#4 v=53
5019 Off ch=1 n=a#5 v=64
5029 Off ch=1 n=c#4 v=64
5039 On ch=1 n=a#5 v=62
5048 Off ch=1 n=g#4 v=64
5049 Off ch=1 n=b5 v=64
5087 On ch=1 n=g#5 v=63
5104 Off ch=1 n=a#5 v=64
5132 On ch=1 n=a#5 v=62
5140 Off ch=1 n=g#5 v=64
5161 On ch=1 n=b3 v=50
5162 Par ch=1 c=64 v=0
5170 Par ch=1 c=64 v=0
5179 On ch=1 n=c#6 v=58
5184 Off ch=1 n=a#5 v=64
5184 On ch=1 n=d#5 v=56
5190 Off ch=1 n=f#3 v=64
5207 Par ch=1 c=64 v=127
5215 Par ch=1 c=64 v=127
5241 On ch=1 n=b5 v=46
5245 Off ch=1 n=c#6 v=64
5266 Off ch=1 n=f#4 v=64
5293 Par ch=1 c=64 v=0
5301 Par ch=1 c=64 v=0
5315 On ch=1 n=f#5 v=51
5327 On ch=1 n=f#4 v=50
5330 Off ch=1 n=b5 v=64
5348 Par ch=1 c=64 v=127
5356 Par ch=1 c=64 v=127
5372 Off ch=1 n=f#5 v=64
5413 On ch=1 n=g#5 v=66
5440 Off ch=1 n=d#5 v=64
5455 On ch=1 n=a#5 v=59
5463 Off ch=1 n=g#5 v=64
5467 On ch=1 n=f3 v=46
5471 On ch=1 n=g#5 v=61
5471 On ch=1 n=f4 v=46
5488 Off ch=1 n=f#4 v=64
5489 Off ch=1 n=b3 v=64
5490 Off ch=1 n=a#5 v=64
5507 On ch=1 n=a#5 v=59
5532 Off ch=1 n=g#5 v=64
5535 On ch=1 n=g#5 v=61
5553 Off ch=1 n=a#5 v=64
5567 On ch=1 n=f#5 v=53
5577 Off ch=1 n=g#5 v=64
5587 On ch=1 n=g#5 v=53
5595 Off ch=1 n=f#5 v=64
5613 Par ch=1 c=64 v=0
5621 Par ch=1 c=64 v=0
5629 On ch=1 n=d5 v=55
5631 On ch=1 n=b5 v=59
5633 Off ch=1 n=g#5 v=64
5669 On ch=1 n=a#3 v=53
5676 Par ch=1 c=64 v=127
5684 Par ch=1 c=64 v=127
5714 On ch=1 n=a#5 v=59
5726 Off ch=1 n=b5 v=64
5728 Off ch=1 n=d5 v=64
5752 Par ch=1 c=64 v=0
5760 Par ch=1 c=64 v=0
5779 Off ch=1 n=f3 v=64
5783 Off ch=1 n=f4 v=64
5783 On ch=1 n=f5 v=53
5783 On ch=1 n=g#4 v=46
5800 Par ch=1 c=64 v=127
5801 Off ch=1 n=a#5 v=64
5808 Par ch=1 c=64 v=127
5919 Par ch=1 c=64 v=0
5927 On ch=1 n=d#5 v=65
5927 Par ch=1 c=64 v=0
5933 Off ch=1 n=f5 v=64
5936 On ch=1 n=f#4 v=48
5936 On ch=1 n=d#4 v=52
5961 Off ch=1 n=a#3 v=64
5966 Off ch=1 n=g#4 v=64
5966 Par ch=1 c=64 v=127
5974 Par ch=1 c=64 v=127
6069 Par ch=1 c=64 v=0
6077 Par ch=1 c=64 v=0
6092 Off ch=1 n=d#5 v=64
6094 On ch=1 n=f#5 v=48
6094 On ch=1 n=d#5 v=46
6097 On ch=1 n=a#5 v=51
6106 Par ch=1 c=64 v=127
6114 Par ch=1 c=64 v=127
6139 Off ch=1 n=d#4 v=64
6139 Off ch=1 n=f#4 v=64
6187 Off ch=1 n=f#5 v=64
6229 Par ch=1 c=64 v=0
6237 Par ch=1 c=64 v=0
6247 On ch=1 n=g#4 v=21
6251 On ch=1 n=c6 v=26
6262 Par ch=1 c=64 v=127
6268 Off ch=1 n=a#5 v=64
6270 Par ch=1 c=64 v=127
6280 On ch=1 n=c#6 v=36
6291 Off ch=1 n=c6 v=64
6328 On ch=1 n=c6 v=32
6333 Off ch=1 n=d#5 v=64
6340 Off ch=1 n=c#6 v=64
6371 On ch=1 n=a#5 v=45
6381 On ch=1 n=g#3 v=36
6389 Off ch=1 n=c6 v=64
6441 On ch=1 n=c6 v=36
6456 Off ch=1 n=g#4 v=64
6457 Off ch=1 n=a#5 v=64
6477 On ch=1 n=c#4 v=42
6517 On ch=1 n=d#6 v=37
6518 On ch=1 n=f5 v=47
6523 Par ch=1 c=64 v=0
6526 Off ch=1 n=g#3 v=64
6529 Off ch=1 n=c6 v=64
6531 Par ch=1 c=64 v=0
6543 Par ch=1 c=64 v=127
6551 Par ch=1 c=64 v=127
6613 On ch=1 n=c#6 v=36
6627 Off ch=1 n=d#6 v=64
6645 Par ch=1 c=64 v=0
6649 On ch=1 n=g#5 v=47
6649 On ch=1 n=e5 v=28
6653 On ch=1 n=f#4 v=32
6653 Par ch=1 c=64 v=0
6655 Off ch=1 n=f5 v=64
6664 Off ch=1 n=c#4 v=64
6674 Off ch=1 n=c#6 v=64
6681 Par ch=1 c=64 v=127
6689 Par ch=1 c=64 v=127
6736 On ch=1 n=a#5 v=46
6740 Off ch=1 n=g#5 v=64
6803 On ch=1 n=g#5 v=47
6808 Par ch=1 c=64 v=0
6811 On ch=1 n=f#3 v=32
6816 Par ch=1 c=64 v=0
6821 Off ch=1 n=a#5 v=64
6821 Par ch=1 c=64 v=127
6829 Par ch=1 c=64 v=127
6830 Off ch=1 n=e5 v=64
6878 On ch=1 n=a#5 v=46
6893 Off ch=1 n=g#5 v=64
6901 On ch=1 n=b3 v=36
6921 On ch=1 n=b4 v=28
6925 On ch=1 n=c#6 v=41
6925 On ch=1 n=d#5 v=47
6937 Off ch=1 n=f#3 v=64
6942 Off ch=1 n=a#5 v=64
6948 Par ch=1 c=64 v=0
6956 Par ch=1 c=64 v=0
6964 Off ch=1 n=f#4 v=64
6967 Par ch=1 c=64 v=127
6975 Par ch=1 c=64 v=127
7015 Par ch=1 c=64 v=127
7021 On ch=1 n=b5 v=41
7023 Par ch=1 c=64 v=127
7028 Off ch=1 n=c#6 v=64
7064 Off ch=1 n=b3 v=64
7093 On ch=1 n=f4 v=36
7101 On ch=1 n=f#5 v=51
7116 Off ch=1 n=b5 v=64
7173 On ch=1 n=g#5 v=47
7196 Off ch=1 n=f#5 v=64
7224 Off ch=1 n=b4 v=64
7234 On ch=1 n=f3 v=36
7242 On ch=1 n=f#5 v=39
7247 Par ch=1 c=64 v=0
7254 Off ch=1 n=g#5 v=64
7255 Par ch=1 c=64 v=0
7301 Par ch=1 c=64 v=127
7306 On ch=1 n=g#5 v=46
7309 Par ch=1 c=64 v=127
7324 Off ch=1 n=f#5 v=64
7370 On ch=1 n=a#3 v=47
7378 On ch=1 n=b5 v=41
7378 On ch=1 n=d5 v=45
7388 Par ch=1 c=64 v=0
7396 Par ch=1 c=64 v=0
7397 Off ch=1 n=g#5 v=64
7398 Off ch=1 n=f3 v=64
7423 Off ch=1 n=d#5 v=64
7443 Par ch=1 c=64 v=127
7451 Par ch=1 c=64 v=127
7454 Off ch=1 n=f4 v=64
7507 On ch=1 n=a#5 v=46
7511 Off ch=1 n=b5 v=64
7525 Par ch=1 c=64 v=0
7533 Par ch=1 c=64 v=0
7549 On ch=1 n=f5 v=41
7551 On ch=1 n=g#4 v=36
7582 Par ch=1 c=64 v=127
7590 Par ch=1 c=64 v=127
7592 Off ch=1 n=a#5 v=64
7671 Off ch=1 n=d5 v=64
7683 Par ch=1 c=64 v=0
7684 Off ch=1 n=a#3 v=64
7691 Par ch=1 c=64 v=0
7695 On ch=1 n=f#4 v=36
7695 On ch=1 n=d#4 v=36
7700 On ch=1 n=d#5 v=45
7710 Off ch=1 n=f5 v=64
7713 Off ch=1 n=g#4 v=64
7736 Par ch=1 c=64 v=127
7744 Par ch=1 c=64 v=127
7830 Par ch=1 c=64 v=0
7838 Off ch=1 n=d#5 v=64
7838 Par ch=1 c=64 v=0
7854 On ch=1 n=f#5 v=60
7856 On ch=1 n=a#5 v=55
7859 On ch=1 n=a#4 v=48
7871 Off ch=1 n=f#4 v=64
7877 Par ch=1 c=64 v=127
7885 Par ch=1 c=64 v=127
7929 On ch=1 n=d#6 v=50
7953 Off ch=1 n=a#5 v=64
7970 Off ch=1 n=d#4 v=64
7990 Par ch=1 c=64 v=0
7996 On ch=1 n=c#6 v=47
7996 On ch=1 n=g5 v=60
7996 On ch=1 n=d#4 v=63
7997 Off ch=1 n=f#5 v=64
7998 Par ch=1 c=64 v=0
8014 Off ch=1 n=d#6 v=64
8021 Par ch=1 c=64 v=127
8029 Par ch=1 c=64 v=127
8059 Off ch=1 n=a#4 v=64
8139 Par ch=1 c=64 v=0
8140 On ch=1 n=b4 v=40
8141 On ch=1 n=b5 v=46
8147 Par ch=1 c=64 v=0
8159 Par ch=1 c=64 v=127
8167 Par ch=1 c=64 v=127
8169 Off ch=1 n=c#6 v=64
8208 On ch=1 n=a#5 v=60
8212 On ch=1 n=c#5 v=50
8227 Off ch=1 n=b4 v=64
8228 Off ch=1 n=b5 v=64
8260 Par ch=1 c=64 v=0
8268 Par ch=1 c=64 v=0
8278 Off ch=1 n=g5 v=64
8281 On ch=1 n=b4 v=47
8283 On ch=1 n=g#5 v=62
8292 Par ch=1 c=64 v=127
8296 Off ch=1 n=a#5 v=64
8300 Off ch=1 n=c#5 v=64
8300 Par ch=1 c=64 v=127
8356 On ch=1 n=b5 v=52
8367 On ch=1 n=g#4 v=35
8370 Off ch=1 n=b4 v=64
8372 Off ch=1 n=g#5 v=64
8403 Par ch=1 c=64 v=0
8411 Par ch=1 c=64 v=0
8433 On ch=1 n=d5 v=48
8437 On ch=1 n=f5 v=55
8448 Off ch=1 n=b5 v=64
8456 Par ch=1 c=64 v=127
8459 Off ch=1 n=g#4 v=64
8464 Par ch=1 c=64 v=127
8548 Par ch=1 c=64 v=0
8556 Par ch=1 c=64 v=0
8578 On ch=1 n=a#5 v=71
8588 On ch=1 n=a#4 v=70
8594 Off ch=1 n=d5 v=64
8598 Off ch=1 n=f5 v=64
8610 Par ch=1 c=64 v=127
8618 Par ch=1 c=64 v=127
8694 Par ch=1 c=64 v=0
8702 Par ch=1 c=64 v=0
8726 On ch=1 n=d#5 v=42
8730 On ch=1 n=f#5 v=63
8755 Par ch=1 c=64 v=127
8763 Par ch=1 c=64 v=127
8784 Off ch=1 n=a#4 v=64
8784 Off ch=1 n=a#5 v=64
8798 On ch=1 n=d#6 v=53
8800 Off ch=1 n=d#5 v=64
8802 Off ch=1 n=f#5 v=64
8872 On ch=1 n=a#4 v=53
8876 On ch=1 n=c#6 v=49
8876 On ch=1 n=g5 v=60
8901 Off ch=1 n=d#6 v=64
9025 Off ch=1 n=a#4 v=64
9028 On ch=1 n=d#5 v=48
9029 Off ch=1 n=g5 v=64
9029 Off ch=1 n=c#6 v=64
9034 On ch=1 n=b5 v=44
9104 On ch=1 n=c#5 v=36
9109 On ch=1 n=a#5 v=54
9126 Off ch=1 n=d#5 v=64
9132 Off ch=1 n=b5 v=64
9184 On ch=1 n=g#5 v=59
9184 On ch=1 n=b4 v=41
9210 Off ch=1 n=c#5 v=64
9215 Off ch=1 n=a#5 v=64
9215 Par ch=1 c=64 v=0
9223 Par ch=1 c=64 v=0
9234 Par ch=1 c=64 v=127
9242 Par ch=1 c=64 v=127
9244 On ch=1 n=f5 v=50
9264 On ch=1 n=g#4 v=32
9287 Off ch=1 n=b4 v=64
9287 Off ch=1 n=g#5 v=64
9307 Par ch=1 c=64 v=0
9315 Par ch=1 c=64 v=0
9340 On ch=1 n=d5 v=54
9366 Off ch=1 n=f5 v=64
9367 Par ch=1 c=64 v=127
9375 Par ch=1 c=64 v=127
9467 Par ch=1 c=64 v=0
9475 Par ch=1 c=64 v=0
9485 On ch=1 n=f#4 v=45
9486 On ch=1 n=d#5 v=54
9488 Off ch=1 n=g#4 v=64
9494 Off ch=1 n=d5 v=64
9499 Par ch=1 c=64 v=127
9507 Par ch=1 c=64 v=127
9633 Par ch=1 c=64 v=0
9641 Par ch=1 c=64 v=0
9647 On ch=1 n=a#5 v=55
9647 On ch=1 n=f#5 v=60
9649 On ch=1 n=d#4 v=49
9656 Off ch=1 n=f#4 v=64
9657 Off ch=1 n=d#5 v=64
9659 Par ch=1 c=64 v=127
9667 Par ch=1 c=64 v=127
9711 On ch=1 n=d#6 v=53
9729 Off ch=1 n=a#5 v=64
9748 Off ch=1 n=d#4 v=64
9781 On ch=1 n=c#6 v=53
9781 On ch=1 n=g5 v=63
9781 On ch=1 n=a#4 v=46
9798 Off ch=1 n=f#5 v=64
9799 Off ch=1 n=d#6 v=64
9925 On ch=1 n=b5 v=54
9927 On ch=1 n=b4 v=53
9942 Off ch=1 n=a#4 v=64
9942 Off ch=1 n=g5 v=64
9942 Off ch=1 n=c#6 v=64
10000 On ch=1 n=a#5 v=64
10001 On ch=1 n=c#5 v=54
10009 Off ch=1 n=b5 v=64
10011 Off ch=1 n=b4 v=64
10045 Par ch=1 c=64 v=0
10053 Par ch=1 c=64 v=0
10062 On ch=1 n=g#5 v=64
10065 On ch=1 n=b4 v=42
10073 Par ch=1 c=64 v=127
10077 Off ch=1 n=a#5 v=64
10078 Off ch=1 n=c#5 v=64
10081 Par ch=1 c=64 v=127
10135 On ch=1 n=b5 v=58
10137 On ch=1 n=g#4 v=42
10144 Off ch=1 n=g#5 v=64
10150 Off ch=1 n=b4 v=64
10181 Par ch=1 c=64 v=0
10189 Par ch=1 c=64 v=0
10213 On ch=1 n=d5 v=60
10217 On ch=1 n=f5 v=63
10234 Par ch=1 c=64 v=127
10236 Off ch=1 n=b5 v=64
10242 Par ch=1 c=64 v=127
10335 Par ch=1 c=64 v=0
10343 Par ch=1 c=64 v=0
10349 On ch=1 n=a#4 v=63
10354 On ch=1 n=a#5 v=64
10366 Off ch=1 n=g#4 v=64
10381 Par ch=1 c=64 v=127
10389 Par ch=1 c=64 v=127
10485 Par ch=1 c=64 v=0
10493 Par ch=1 c=64 v=0
10497 On ch=1 n=f#5 v=55
10497 On ch=1 n=d#5 v=57
10511 Off ch=1 n=d5 v=64
10515 Off ch=1 n=f5 v=64
10525 Off ch=1 n=a#4 v=64
10525 Par ch=1 c=64 v=127
10533 Par ch=1 c=64 v=127
10556 On ch=1 n=d#6 v=48
10570 Off ch=1 n=a#5 v=64
10577 Off ch=1 n=d#4 v=64
10626 On ch=1 n=g5 v=54
10628 On ch=1 n=c#6 v=50
10630 On ch=1 n=d#4 v=54
10634 Off ch=1 n=d#6 v=64
10645 Off ch=1 n=f#5 v=64
10770 Off ch=1 n=d#5 v=64
10775 On ch=1 n=b5 v=44
10780 On ch=1 n=d#5 v=40
10789 Off ch=1 n=c#6 v=64
10851 On ch=1 n=c#5 v=44
10852 On ch=1 n=a#5 v=59
10880 Off ch=1 n=b5 v=64
10885 Off ch=1 n=d#5 v=64
10910 On ch=1 n=g#5 v=56
10910 On ch=1 n=b4 v=32
10928 Off ch=1 n=g5 v=64
10942 Off ch=1 n=a#5 v=64
10948 Off ch=1 n=c#5 v=64
10984 On ch=1 n=f5 v=50
10984 On ch=1 n=g#4 v=50
11009 Off ch=1 n=b4 v=64
11009 Off ch=1 n=g#5 v=64
11055 Par ch=1 c=64 v=0
11063 Par ch=1 c=64 v=0
11078 On ch=1 n=d5 v=53
11087 Off ch=1 n=g#4 v=64
11087 Off ch=1 n=f5 v=64
11096 Par ch=1 c=64 v=127
11104 Par ch=1 c=64 v=127
11221 On ch=1 n=d#5 v=63
11275 Off ch=1 n=d5 v=64
11371 On ch=1 n=f#5 v=59
11372 Par ch=1 c=64 v=0
11375 On ch=1 n=a#5 v=36
11380 Par ch=1 c=64 v=0
11383 Par ch=1 c=64 v=127
11391 Par ch=1 c=64 v=127
11513 Par ch=1 c=64 v=0
11515 On ch=1 n=c6 v=48
11515 On ch=1 n=g#4 v=52
11521 Par ch=1 c=64 v=0
11530 Off ch=1 n=a#5 v=64
11534 Par ch=1 c=64 v=127
11542 Par ch=1 c=64 v=127
11552 Off ch=1 n=d#4 v=64
11552 On ch=1 n=c#6 v=52
11567 Off ch=1 n=c6 v=64
11602 On ch=1 n=c6 v=53
11626 On ch=1 n=g#3 v=27
11627 Off ch=1 n=c#6 v=64
11634 Par ch=1 c=64 v=0
11635 On ch=1 n=a#5 v=52
11642 Par ch=1 c=64 v=0
11649 Off ch=1 n=c6 v=64
11687 Par ch=1 c=64 v=127
11690 On ch=1 n=c6 v=53
11695 Par ch=1 c=64 v=127
11698 Off ch=1 n=a#5 v=64
11765 Par ch=1 c=64 v=0
11773 Par ch=1 c=64 v=0
11779 On ch=1 n=d#6 v=53
11780 On ch=1 n=f5 v=42
11787 Off ch=1 n=f#5 v=64
11788 On ch=1 n=c#4 v=35
11790 Off ch=1 n=c6 v=64
11819 Par ch=1 c=64 v=127
11827 Par ch=1 c=64 v=127
11831 Off ch=1 n=g#3 v=64
11836 On ch=1 n=c#6 v=46
11847 Off ch=1 n=d#6 v=64
11861 Off ch=1 n=d#5 v=64
11887 Off ch=1 n=g#4 v=64
11911 On ch=1 n=g#5 v=53
11915 On ch=1 n=e5 v=36
11915 On ch=1 n=g#4 v=32
11919 Off ch=1 n=f5 v=64
11922 Off ch=1 n=c#6 v=64
11999 On ch=1 n=a#5 v=46
12019 Off ch=1 n=g#5 v=64
12052 On ch=1 n=b5 v=46
12061 Off ch=1 n=a#5 v=64
12062 Par ch=1 c=64 v=0
12063 On ch=1 n=f#3 v=46
12064 On ch=1 n=f#4 v=52
12070 Par ch=1 c=64 v=0
12078 Off ch=1 n=c#4 v=64
12083 Par ch=1 c=64 v=127
12086 Off ch=1 n=g#4 v=64
12091 Par ch=1 c=64 v=127
12094 On ch=1 n=a#5 v=52
12106 Off ch=1 n=b5 v=64
12136 On ch=1 n=g#5 v=45
12151 Off ch=1 n=a#5 v=64
12173 On ch=1 n=a#5 v=53
12179 Off ch=1 n=g#5 v=64
12186 Par ch=1 c=64 v=0
12194 Par ch=1 c=64 v=0
12204 Par ch=1 c=64 v=0
12212 Par ch=1 c=64 v=0
12220 On ch=1 n=b3 v=42
12223 On ch=1 n=c#6 v=57
12226 On ch=1 n=d#5 v=55
12233 Off ch=1 n=a#5 v=64
12239 Par ch=1 c=64 v=127
12242 Par ch=1 c=64 v=127
12243 Off ch=1 n=f#3 v=64
12243 Off ch=1 n=e5 v=64
12247 Par ch=1 c=64 v=127
12250 Par ch=1 c=64 v=127
12282 On ch=1 n=b5 v=46
12294 Off ch=1 n=c#6 v=64
12309 Off ch=1 n=f#4 v=64
12339 Par ch=1 c=64 v=0
12347 Par ch=1 c=64 v=0
12355 On ch=1 n=f#5 v=48
12366 Par ch=1 c=64 v=0
12368 On ch=1 n=f#4 v=52
12368 Par ch=1 c=64 v=127
12371 Off ch=1 n=b5 v=64
12374 Par ch=1 c=64 v=0
12376 Par ch=1 c=64 v=127
12387 Par ch=1 c=64 v=127
12395 Par ch=1 c=64 v=127
12450 On ch=1 n=g#5 v=46
12457 Off ch=1 n=f#5 v=64
12479 On ch=1 n=a#5 v=55
12490 Par ch=1 c=64 v=0
12491 On ch=1 n=f4 v=46
12491 On ch=1 n=f3 v=46
12493 Off ch=1 n=g#5 v=64
12498 Par ch=1 c=64 v=0
12505 Off ch=1 n=f#4 v=64
12515 Off ch=1 n=b3 v=64
12515 On ch=1 n=g#5 v=52
12520 Off ch=1 n=a#5 v=64
12543 Par ch=1 c=64 v=127
12551 Par ch=1 c=64 v=127
12561 On ch=1 n=f#5 v=53
12564 Off ch=1 n=g#5 v=64
12601 On ch=1 n=g#5 v=50
12608 Off ch=1 n=f#5 v=64
12640 On ch=1 n=d5 v=53
12644 On ch=1 n=b5 v=53
12645 On ch=1 n=a#3 v=46
12646 Off ch=1 n=g#5 v=64
12646 Par ch=1 c=64 v=0
12654 Par ch=1 c=64 v=0
12670 Off ch=1 n=d#5 v=64
12675 Off ch=1 n=f3 v=64
12686 Par ch=1 c=64 v=127
12694 Par ch=1 c=64 v=127
12728 On ch=1 n=a#5 v=52
12744 Off ch=1 n=b5 v=64
12755 Off ch=1 n=f4 v=64
12774 Par ch=1 c=64 v=0
12782 Par ch=1 c=64 v=0
12796 On ch=1 n=f5 v=52
12796 On ch=1 n=g#4 v=52
12812 Off ch=1 n=a#5 v=64
12828 Par ch=1 c=64 v=127
12836 Par ch=1 c=64 v=127
12920 Par ch=1 c=64 v=0
12928 Par ch=1 c=64 v=0
12940 On ch=1 n=d#5 v=52
12940 On ch=1 n=f#4 v=41
12940 On ch=1 n=d#4 v=41
12956 Off ch=1 n=g#4 v=64
12956 Off ch=1 n=f5 v=64
12958 Off ch=1 n=d5 v=64
12960 Off ch=1 n=a#3 v=64
12967 Par ch=1 c=64 v=127
12975 Par ch=1 c=64 v=127
13079 Par ch=1 c=64 v=0
13087 Par ch=1 c=64 v=0
13091 Off ch=1 n=d#5 v=64
13095 On ch=1 n=a#5 v=41
13095 On ch=1 n=f#5 v=42
13096 On ch=1 n=d#5 v=18
13097 Par ch=1 c=64 v=127
13105 Par ch=1 c=64 v=127
13165 Off ch=1 n=f#4 v=64
13229 On ch=1 n=c6 v=39
13236 Par ch=1 c=64 v=0
13239 On ch=1 n=g#4 v=42
13240 Off ch=1 n=a#5 v=64
13241 Off ch=1 n=d#5 v=64
13244 Par ch=1 c=64 v=0
13259 Par ch=1 c=64 v=127
13267 Par ch=1 c=64 v=127
13273 On ch=1 n=c#6 v=38
13283 Off ch=1 n=c6 v=64
13314 On ch=1 n=c6 v=38
13340 Off ch=1 n=c#6 v=64
13357 On ch=1 n=g#3 v=32
13359 On ch=1 n=a#5 v=39
13367 Par ch=1 c=64 v=0
13371 Off ch=1 n=c6 v=64
13374 Off ch=1 n=d#4 v=64
13375 Par ch=1 c=64 v=0
13399 Par ch=1 c=64 v=127
13407 Par ch=1 c=64 v=127
13417 On ch=1 n=c6 v=31
13419 Off ch=1 n=a#5 v=64
13442 On ch=1 n=c#4 v=34
13474 Off ch=1 n=g#4 v=64
13494 On ch=1 n=f5 v=34
13496 Par ch=1 c=64 v=0
13498 On ch=1 n=c#5 v=39
13499 On ch=1 n=d#6 v=36
13504 Par ch=1 c=64 v=0
13505 Off ch=1 n=c6 v=64
13515 Off ch=1 n=g#3 v=64
13519 Off ch=1 n=f#5 v=64
13529 Par ch=1 c=64 v=127
13537 Par ch=1 c=64 v=127
13599 On ch=1 n=c#6 v=38
13615 Off ch=1 n=d#6 v=64
13624 Par ch=1 c=64 v=0
13632 Par ch=1 c=64 v=0
13643 On ch=1 n=e5 v=32
13643 On ch=1 n=f#4 v=31
13647 On ch=1 n=g#5 v=43
13663 Par ch=1 c=64 v=127
13665 Off ch=1 n=f5 v=64
13669 Off ch=1 n=c#5 v=64
13671 Par ch=1 c=64 v=127
13675 Off ch=1 n=c#6 v=64
13727 On ch=1 n=a#5 v=42
13745 Off ch=1 n=g#5 v=64
13751 Off ch=1 n=c#4 v=64
13771 Par ch=1 c=64 v=0
13779 Par ch=1 c=64 v=0
13787 On ch=1 n=g#5 v=46
13790 On ch=1 n=f#3 v=36
13795 Off ch=1 n=a#5 v=64
13799 Par ch=1 c=64 v=127
13807 Par ch=1 c=64 v=127
13832 Off ch=1 n=f#4 v=64
13857 On ch=1 n=a#5 v=42
13862 Off ch=1 n=g#5 v=64
13863 On ch=1 n=b3 v=28
13924 Par ch=1 c=64 v=0
13927 On ch=1 n=b4 v=32
13931 On ch=1 n=c#6 v=46
13931 On ch=1 n=d#5 v=42
13932 Par ch=1 c=64 v=0
13939 Off ch=1 n=f#3 v=64
13940 Par ch=1 c=64 v=127
13941 Off ch=1 n=a#5 v=64
13945 Off ch=1 n=e5 v=64
13948 Par ch=1 c=64 v=127
14005 On ch=1 n=b5 v=32
14010 Off ch=1 n=c#6 v=64
14055 Par ch=1 c=64 v=0
14063 Par ch=1 c=64 v=0
14079 Par ch=1 c=64 v=127
14081 On ch=1 n=f#5 v=36
14087 Par ch=1 c=64 v=127
14091 Off ch=1 n=b5 v=64
14095 On ch=1 n=f4 v=32
14120 Off ch=1 n=b4 v=64
14147 On ch=1 n=g#5 v=37
14163 Off ch=1 n=f#5 v=64
14177 Off ch=1 n=b3 v=64
14195 Par ch=1 c=64 v=0
14203 Par ch=1 c=64 v=0
14214 On ch=1 n=f#5 v=38
14219 On ch=1 n=f3 v=32
14222 Off ch=1 n=g#5 v=64
14239 Par ch=1 c=64 v=127
14247 Par ch=1 c=64 v=127
14274 On ch=1 n=g#5 v=39
14291 Off ch=1 n=f#5 v=64
14347 Par ch=1 c=64 v=0
14355 Par ch=1 c=64 v=0
14360 On ch=1 n=b5 v=37
14363 On ch=1 n=d5 v=36
14366 On ch=1 n=a#3 v=36
14368 Off ch=1 n=f4 v=64
14376 Off ch=1 n=d#5 v=64
14376 Off ch=1 n=g#5 v=64
14388 Off ch=1 n=f3 v=64
14404 Par ch=1 c=64 v=127
14412 Par ch=1 c=64 v=127
14460 On ch=1 n=a#5 v=42
14468 Off ch=1 n=b5 v=64
14491 Par ch=1 c=64 v=0
14499 Par ch=1 c=64 v=0
14507 On ch=1 n=f5 v=39
14511 On ch=1 n=g#4 v=37
14525 Off ch=1 n=a#5 v=64
14548 Par ch=1 c=64 v=127
14556 Par ch=1 c=64 v=127
14605 Off ch=1 n=a#3 v=64
14641 Par ch=1 c=64 v=0
14649 Par ch=1 c=64 v=0
14659 On ch=1 n=f#4 v=37
14659 On ch=1 n=d#4 v=37
14663 On ch=1 n=d#5 v=42
14670 Off ch=1 n=d5 v=64
14672 Off ch=1 n=f5 v=64
14674 Off ch=1 n=g#4 v=64
14696 Par ch=1 c=64 v=127
14704 Par ch=1 c=64 v=127
14799 Par ch=1 c=64 v=0
14807 Par ch=1 c=64 v=0
14822 On ch=1 n=a#5 v=52
14822 On ch=1 n=f#5 v=55
14825 On ch=1 n=a#4 v=54
14836 Off ch=1 n=f#4 v=64
14837 Par ch=1 c=64 v=127
14840 Off ch=1 n=d#5 v=64
14845 Par ch=1 c=64 v=127
14898 Off ch=1 n=d#4 v=64
14898 On ch=1 n=d#6 v=46
14927 Off ch=1 n=a#5 v=64
14943 Off ch=1 n=a#4 v=64
14955 Par ch=1 c=64 v=0
14963 On ch=1 n=g5 v=59
14963 Par ch=1 c=64 v=0
14966 On ch=1 n=c#6 v=53
14967 On ch=1 n=d#4 v=63
14973 Off ch=1 n=d#6 v=64
14983 Par ch=1 c=64 v=0
14988 Par ch=1 c=64 v=127
14990 Off ch=1 n=f#5 v=64
14991 Par ch=1 c=64 v=0
14996 Par ch=1 c=64 v=127
15004 Par ch=1 c=64 v=127
15012 Par ch=1 c=64 v=127
15107 Par ch=1 c=64 v=0
15115 Par ch=1 c=64 v=0
15120 On ch=1 n=b5 v=52
15123 On ch=1 n=b4 v=52
15137 Off ch=1 n=g5 v=64
15140 Off ch=1 n=c#6 v=64
15160 Par ch=1 c=64 v=127
15168 Par ch=1 c=64 v=127
15192 On ch=1 n=c#5 v=65
15196 On ch=1 n=a#5 v=53
15221 Off ch=1 n=b5 v=64
15224 Off ch=1 n=b4 v=64
15260 On ch=1 n=b4 v=54
15262 On ch=1 n=g#5 v=61
15277 Off ch=1 n=c#5 v=64
15281 Off ch=1 n=a#5 v=64
15299 Par ch=1 c=64 v=0
15307 Par ch=1 c=64 v=0
15331 Par ch=1 c=64 v=127
15332 On ch=1 n=g#4 v=35
15334 On ch=1 n=b5 v=53
15339 Par ch=1 c=64 v=127
15353 Off ch=1 n=b4 v=64
15355 Off ch=1 n=g#5 v=64
15408 On ch=1 n=d5 v=65
15411 On ch=1 n=f5 v=59
15416 Par ch=1 c=64 v=0
15424 Par ch=1 c=64 v=0
15436 Off ch=1 n=g#4 v=64
15438 Off ch=1 n=b5 v=64
15455 Par ch=1 c=64 v=127
15463 Par ch=1 c=64 v=127
15537 Par ch=1 c=64 v=0
15545 Par ch=1 c=64 v=0
15559 On ch=1 n=a#5 v=53
15560 On ch=1 n=a#4 v=55
15575 Off ch=1 n=f5 v=64
15583 Par ch=1 c=64 v=127
15590 Off ch=1 n=d5 v=64
15591 Par ch=1 c=64 v=127
15686 Par ch=1 c=64 v=0
15694 Par ch=1 c=64 v=0
15700 On ch=1 n=d#5 v=55
15703 On ch=1 n=f#5 v=65
15729 Par ch=1 c=64 v=127
15737 Par ch=1 c=64 v=127
15778 On ch=1 n=d#6 v=52
15785 Off ch=1 n=a#4 v=64
15795 Off ch=1 n=a#5 v=64
15849 On ch=1 n=c#6 v=52
15853 On ch=1 n=g5 v=54
15858 On ch=1 n=a#4 v=62
15863 Off ch=1 n=d#6 v=64
15873 Off ch=1 n=d#5 v=64
15876 Off ch=1 n=f#5 v=64
15948 Off ch=1 n=a#4 v=64
15994 On ch=1 n=b5 v=52
15994 On ch=1 n=d#5 v=63
16009 Off ch=1 n=c#6 v=64
16073 On ch=1 n=a#5 v=65
16076 On ch=1 n=c#5 v=52
16093 Off ch=1 n=d#5 v=64
16093 Off ch=1 n=b5 v=64
16144 On ch=1 n=g#5 v=65
16146 On ch=1 n=b4 v=59
16151 Off ch=1 n=g5 v=64
16167 Off ch=1 n=a#5 v=64
16170 Off ch=1 n=c#5 v=64
16218 On ch=1 n=f5 v=62
16233 On ch=1 n=g#4 v=50
16239 Off ch=1 n=g#5 v=64
16241 Off ch=1 n=b4 v=64
16278 Par ch=1 c=64 v=0
16286 Par ch=1 c=64 v=0
16309 On ch=1 n=d5 v=65
16330 Par ch=1 c=64 v=127
16334 Off ch=1 n=f5 v=64
16338 Par ch=1 c=64 v=127
16349 Off ch=1 n=g#4 v=64
16460 On ch=1 n=d#5 v=53
16468 On ch=1 n=f#4 v=52
16478 Off ch=1 n=d5 v=64
16534 Off ch=1 n=d#4 v=64
16606 Par ch=1 c=64 v=0
16614 Par ch=1 c=64 v=0
16622 On ch=1 n=d#4 v=50
16628 On ch=1 n=a#5 v=57
16629 On ch=1 n=f#5 v=62
16631 Off ch=1 n=d#5 v=64
16635 Par ch=1 c=64 v=127
16639 Off ch=1 n=f#4 v=64
16643 Par ch=1 c=64 v=127
16709 On ch=1 n=d#6 v=46
16714 Off ch=1 n=a#5 v=64
16778 On ch=1 n=c#6 v=52
16778 On ch=1 n=a#4 v=52
16781 On ch=1 n=g5 v=55
16791 Off ch=1 n=d#6 v=64
16792 Off ch=1 n=f#5 v=64
16929 On ch=1 n=b4 v=37
16936 On ch=1 n=b5 v=45
16953 Off ch=1 n=a#4 v=64
16953 Off ch=1 n=c#6 v=64
17010 On ch=1 n=c#5 v=53
17013 On ch=1 n=a#5 v=67
17036 Off ch=1 n=b4 v=64
17043 Off ch=1 n=b5 v=64
17087 On ch=1 n=g#5 v=67
17090 On ch=1 n=b4 v=45
17101 Off ch=1 n=c#5 v=64
17102 Off ch=1 n=g5 v=64
17104 Off ch=1 n=a#5 v=64
17109 Par ch=1 c=64 v=0
17117 Par ch=1 c=64 v=0
17141 Par ch=1 c=64 v=127
17149 Par ch=1 c=64 v=127
17154 On ch=1 n=b5 v=50
17154 On ch=1 n=g#4 v=29
17185 Off ch=1 n=g#5 v=64
17188 Off ch=1 n=b4 v=64
17230 Par ch=1 c=64 v=0
17238 Par ch=1 c=64 v=0
17242 On ch=1 n=d5 v=62
17244 On ch=1 n=f5 v=59
17256 Off ch=1 n=g#4 v=64
17256 Off ch=1 n=b5 v=64
17283 Par ch=1 c=64 v=127
17291 Par ch=1 c=64 v=127
17402 On ch=1 n=a#5 v=55
17410 On ch=1 n=a#4 v=53
17558 On ch=1 n=d#5 v=41
17565 On ch=1 n=f#5 v=66
17576 Off ch=1 n=f5 v=64
17605 Off ch=1 n=d5 v=64
17655 On ch=1 n=d#6 v=52
17688 Off ch=1 n=d#4 v=64
17703 Off ch=1 n=a#5 v=64
17736 Off ch=1 n=a#4 v=64
17746 On ch=1 n=d#4 v=44
17747 On ch=1 n=c#6 v=52
17747 On ch=1 n=d#5 v=67
17750 On ch=1 n=g5 v=62
17761 Off ch=1 n=d#6 v=64
17780 Off ch=1 n=f#5 v=64
17798 Off ch=1 n=d#5 v=64
17873 Off ch=1 n=g5 v=64
17880 Off ch=1 n=d#5 v=64
17925 On ch=1 n=b5 v=52
17926 On ch=1 n=d#5 v=53
17932 Off ch=1 n=c#6 v=64
18018 On ch=1 n=c#5 v=46
18019 On ch=1 n=a#5 v=66
18041 Off ch=1 n=b5 v=64
18112 On ch=1 n=g#5 v=61
18114 On ch=1 n=b4 v=59
18132 Off ch=1 n=c#5 v=64
18133 Off ch=1 n=a#5 v=64
18210 On ch=1 n=g#4 v=24
18215 On ch=1 n=f5 v=50
18223 Par ch=1 c=64 v=0
18231 Par ch=1 c=64 v=0
18237 Off ch=1 n=g#5 v=64
18239 Off ch=1 n=b4 v=64
18263 Par ch=1 c=64 v=127
18271 Par ch=1 c=64 v=127
18323 Par ch=1 c=64 v=0
18326 On ch=1 n=d5 v=61
18331 Par ch=1 c=64 v=0
18345 Off ch=1 n=g#4 v=64
18345 Off ch=1 n=d#5 v=64
18350 Off ch=1 n=f5 v=64
18390 Par ch=1 c=64 v=127
18398 Par ch=1 c=64 v=127
18647 On ch=1 n=d#5 v=63
18647 Par ch=1 c=64 v=0
18655 Par ch=1 c=64 v=0
18660 Off ch=1 n=d5 v=64
18804 Par ch=1 c=64 v=127
18812 Par ch=1 c=64 v=127
19549 Off ch=1 n=d#4 v=64
19555 Off ch=1 n=d#5 v=64
19555 Meta TrkEnd
TrkEnd
MTrk
0 Meta TrkName "Played by Dr. Ron Lubetsky"
0 Meta TrkEnd
TrkEnd
MTrk
0 Meta TrkName "Jan. 6, 1998"
0 Meta TrkEnd
TrkEnd
MTrk
0 Meta TrkName "email: acuity2020@aol.com"
0 Meta TrkEnd
TrkEnd
MTrk
0 Meta TrkName "Copyright \xffffffa9 1998"
0 Meta TrkEnd
TrkEnd
MTrk
0 Meta TrkName "All Rights Reserved"
0 Meta TrkEnd
TrkEnd
