MFile 1 7 240
MTrk
0 TimeSig 4/4 24 8
0 Tempo 500000
0 Meta Marker "Chopin: Mazurka, Op. 7 No. 2- Vivo  ma non troppo"
0 Meta TrkEnd
TrkEnd
MTrk
0 Meta TrkName "Chopin: Op. 7 No. 2"
0 PrCh ch=1 p=0
0 Par ch=1 c=7 v=127
328 Par ch=1 c=64 v=127
400 Par ch=1 c=64 v=127
542 Par ch=1 c=64 v=0
614 Par ch=1 c=64 v=0
681 Par ch=1 c=64 v=127
717 On ch=1 n=e6 v=50
753 Par ch=1 c=64 v=127
816 Par ch=1 c=64 v=0
888 Par ch=1 c=64 v=0
892 Par ch=1 c=64 v=127
911 On ch=1 n=f6 v=59
925 Off ch=1 n=e6 v=64
964 Par ch=1 c=64 v=127
1033 Par ch=1 c=64 v=0
1049 On ch=1 n=e6 v=55
1067 Off ch=1 n=f6 v=64
1094 On ch=1 n=a4 v=29
1100 On ch=1 n=f5 v=33
1101 On ch=1 n=d5 v=35
1104 Par ch=1 c=64 v=127
1105 Par ch=1 c=64 v=0
1110 On ch=1 n=d6 v=59
1125 Off ch=1 n=e6 v=64
1176 Par ch=1 c=64 v=127
1238 Par ch=1 c=64 v=0
1272 Off ch=1 n=d6 v=64
1272 Off ch=1 n=d5 v=64
1272 Off ch=1 n=f5 v=64
1272 Off ch=1 n=a4 v=64
1294 Par ch=1 c=64 v=127
1344 On ch=1 n=f6 v=58
1344 On ch=1 n=d5 v=28
1344 On ch=1 n=a4 v=37
1360 On ch=1 n=f5 v=31
1430 Par ch=1 c=64 v=0
1486 Par ch=1 c=64 v=127
1527 Off ch=1 n=a4 v=64
1528 Off ch=1 n=d5 v=64
1545 Off ch=1 n=f5 v=64
1555 Off ch=1 n=f6 v=64
1603 On ch=1 n=f6 v=57
1628 Par ch=1 c=64 v=0
1683 Par ch=1 c=64 v=127
1789 On ch=1 n=a4 v=29
1794 On ch=1 n=c5 v=28
1802 On ch=1 n=f5 v=37
1820 Par ch=1 c=64 v=0
1875 Par ch=1 c=64 v=127
1880 Par ch=1 c=64 v=0
1937 Par ch=1 c=64 v=127
1974 Off ch=1 n=a4 v=64
1979 Off ch=1 n=c5 v=64
1987 Off ch=1 n=f5 v=64
2042 On ch=1 n=e6 v=44
2048 On ch=1 n=c5 v=24
2056 On ch=1 n=a4 v=22
2058 On ch=1 n=e5 v=27
2061 Off ch=1 n=f6 v=64
2072 Par ch=1 c=64 v=0
2129 Par ch=1 c=64 v=127
2205 Off ch=1 n=e6 v=64
2215 Off ch=1 n=e5 v=64
2219 Off ch=1 n=c5 v=64
2227 Par ch=1 c=64 v=0
2229 Off ch=1 n=a4 v=64
2239 On ch=1 n=d6 v=44
2277 Par ch=1 c=64 v=127
2278 Off ch=1 n=d6 v=64
2286 On ch=1 n=e6 v=45
2318 On ch=1 n=d6 v=46
2326 Off ch=1 n=e6 v=64
2370 On ch=1 n=c#6 v=47
2376 Off ch=1 n=d6 v=64
2416 Par ch=1 c=64 v=0
2420 Par ch=1 c=64 v=0
2423 On ch=1 n=d5 v=45
2427 On ch=1 n=g#4 v=32
2428 On ch=1 n=e4 v=44
2436 Off ch=1 n=c#6 v=64
2436 On ch=1 n=d6 v=49
2454 Par ch=1 c=64 v=127
2469 Par ch=1 c=64 v=127
2514 On ch=1 n=d#6 v=52
2550 Off ch=1 n=d6 v=64
2564 Par ch=1 c=64 v=0
2583 Off ch=1 n=d5 v=64
2587 Off ch=1 n=g#4 v=64
2588 Off ch=1 n=e4 v=64
2598 On ch=1 n=d5 v=42
2598 On ch=1 n=g#4 v=28
2603 On ch=1 n=e6 v=55
2603 On ch=1 n=e4 v=40
2611 Off ch=1 n=d#6 v=64
2612 Par ch=1 c=64 v=127
2612 Par ch=1 c=64 v=0
2646 Par ch=1 c=64 v=127
2680 On ch=1 n=b5 v=56
2697 Off ch=1 n=e6 v=64
2749 Off ch=1 n=g#4 v=64
2751 Off ch=1 n=d5 v=64
2756 Par ch=1 c=64 v=0
2762 Off ch=1 n=e4 v=64
2771 On ch=1 n=d6 v=63
2792 Off ch=1 n=b5 v=64
2804 Par ch=1 c=64 v=127
2977 On ch=1 n=a3 v=44
3049 Par ch=1 c=64 v=0
3092 Par ch=1 c=64 v=127
3217 On ch=1 n=c6 v=53
3217 On ch=1 n=e4 v=33
3221 On ch=1 n=c5 v=33
3237 Off ch=1 n=d6 v=64
3241 Par ch=1 c=64 v=0
3284 Par ch=1 c=64 v=127
3338 Off ch=1 n=a3 v=64
3444 Off ch=1 n=c6 v=64
3451 Par ch=1 c=64 v=0
3461 Off ch=1 n=e4 v=64
3466 On ch=1 n=a5 v=52
3470 Off ch=1 n=c5 v=64
3480 Par ch=1 c=64 v=127
3536 On ch=1 n=b5 v=36
3542 Off ch=1 n=a5 v=64
3579 On ch=1 n=a5 v=58
3591 Off ch=1 n=b5 v=64
3618 Par ch=1 c=64 v=0
3621 On ch=1 n=e4 v=46
3627 On ch=1 n=c5 v=40
3630 On ch=1 n=g#5 v=72
3636 Off ch=1 n=a5 v=64
3643 Par ch=1 c=64 v=0
3660 Par ch=1 c=64 v=127
3672 Par ch=1 c=64 v=127
3800 On ch=1 n=a5 v=65
3804 On ch=1 n=a3 v=49
3810 Par ch=1 c=64 v=0
3814 Off ch=1 n=g#5 v=64
3850 Off ch=1 n=e4 v=64
3852 Par ch=1 c=64 v=127
3860 Off ch=1 n=c5 v=64
3929 Off ch=1 n=a3 v=64
3964 Par ch=1 c=64 v=0
3964 On ch=1 n=b5 v=79
3988 Off ch=1 n=a5 v=64
4038 Par ch=1 c=64 v=127
4126 On ch=1 n=e6 v=75
4132 On ch=1 n=g4 v=26
4134 On ch=1 n=e4 v=26
4138 Off ch=1 n=b5 v=64
4138 On ch=1 n=b4 v=24
4156 Par ch=1 c=64 v=0
4230 Par ch=1 c=64 v=127
4317 Off ch=1 n=e6 v=64
4322 On ch=1 n=b3 v=24
4332 Par ch=1 c=64 v=0
4365 Par ch=1 c=64 v=127
4465 Off ch=1 n=b3 v=64
4475 Off ch=1 n=g4 v=64
4477 Off ch=1 n=e4 v=64
4479 Off ch=1 n=b4 v=64
4520 Par ch=1 c=64 v=0
4521 Par ch=1 c=64 v=0
4526 On ch=1 n=b5 v=70
4553 Par ch=1 c=64 v=127
4554 Par ch=1 c=64 v=127
4606 On ch=1 n=g5 v=74
4629 Off ch=1 n=b5 v=64
4699 On ch=1 n=b3 v=61
4700 Off ch=1 n=g5 v=64
4700 On ch=1 n=e5 v=78
4700 On ch=1 n=b4 v=58
4704 Par ch=1 c=64 v=0
4706 On ch=1 n=g4 v=58
4712 Par ch=1 c=64 v=0
4745 Par ch=1 c=64 v=127
4768 Par ch=1 c=64 v=127
4778 On ch=1 n=b5 v=72
4798 Off ch=1 n=e5 v=64
4861 Off ch=1 n=b3 v=64
4862 Off ch=1 n=b4 v=64
4868 Off ch=1 n=g4 v=64
4871 On ch=1 n=f#4 v=62
4873 On ch=1 n=b4 v=66
4877 On ch=1 n=d#5 v=81
4877 On ch=1 n=b3 v=62
4884 Off ch=1 n=b5 v=64
4893 Par ch=1 c=64 v=0
4934 Par ch=1 c=64 v=0
4957 Par ch=1 c=64 v=127
5001 Par ch=1 c=64 v=127
5036 Off ch=1 n=f#4 v=64
5038 Off ch=1 n=b4 v=64
5042 Off ch=1 n=b3 v=64
5110 On ch=1 n=e5 v=70
5116 Off ch=1 n=d#5 v=64
5118 On ch=1 n=b4 v=57
5118 On ch=1 n=e4 v=62
5119 On ch=1 n=g4 v=61
5126 Par ch=1 c=64 v=0
5193 Par ch=1 c=64 v=127
5250 Par ch=1 c=64 v=0
5283 Off ch=1 n=e4 v=64
5283 Off ch=1 n=b4 v=64
5284 Off ch=1 n=g4 v=64
5294 Par ch=1 c=64 v=127
5424 On ch=1 n=e3 v=68
5442 Par ch=1 c=64 v=0
5486 Par ch=1 c=64 v=127
5534 Off ch=1 n=e5 v=64
5706 Par ch=1 c=64 v=0
5709 Off ch=1 n=e3 v=64
5715 On ch=1 n=e6 v=53
5770 Par ch=1 c=64 v=127
5886 On ch=1 n=f6 v=55
5896 Par ch=1 c=64 v=0
5898 Par ch=1 c=64 v=0
5905 Off ch=1 n=e6 v=64
5929 Par ch=1 c=64 v=127
5962 Par ch=1 c=64 v=127
6016 On ch=1 n=e6 v=48
6022 Off ch=1 n=f6 v=64
6051 Par ch=1 c=64 v=0
6052 On ch=1 n=f5 v=33
6052 On ch=1 n=d5 v=36
6052 On ch=1 n=a4 v=47
6060 On ch=1 n=d6 v=52
6081 Off ch=1 n=e6 v=64
6088 Par ch=1 c=64 v=0
6103 Par ch=1 c=64 v=127
6121 Par ch=1 c=64 v=127
6226 Par ch=1 c=64 v=0
6235 On ch=1 n=f6 v=59
6237 Off ch=1 n=a4 v=64
6237 Off ch=1 n=d5 v=64
6237 Off ch=1 n=f5 v=64
6243 Par ch=1 c=64 v=0
6249 Off ch=1 n=d6 v=64
6252 On ch=1 n=f5 v=37
6252 On ch=1 n=d5 v=29
6252 On ch=1 n=a4 v=43
6270 Par ch=1 c=64 v=127
6295 Par ch=1 c=64 v=127
6314 Off ch=1 n=f6 v=64
6402 Off ch=1 n=d5 v=64
6403 Off ch=1 n=a4 v=64
6409 Off ch=1 n=f5 v=64
6410 Par ch=1 c=64 v=0
6415 On ch=1 n=f6 v=67
6418 Par ch=1 c=64 v=0
6434 Par ch=1 c=64 v=127
6462 Par ch=1 c=64 v=127
6580 On ch=1 n=a4 v=31
6584 On ch=1 n=c5 v=36
6595 On ch=1 n=f5 v=32
6602 Par ch=1 c=64 v=0
6612 Par ch=1 c=64 v=0
6626 Par ch=1 c=64 v=127
6656 Par ch=1 c=64 v=127
6765 Off ch=1 n=a4 v=64
6769 Off ch=1 n=c5 v=64
6774 On ch=1 n=e6 v=52
6775 On ch=1 n=a4 v=36
6780 Off ch=1 n=f5 v=64
6780 On ch=1 n=c5 v=29
6786 On ch=1 n=e5 v=26
6802 Off ch=1 n=f6 v=64
6804 Par ch=1 c=64 v=0
6848 Par ch=1 c=64 v=127
6896 Off ch=1 n=e6 v=64
6930 Off ch=1 n=c5 v=64
6933 Off ch=1 n=e5 v=64
6936 Off ch=1 n=a4 v=64
6937 Par ch=1 c=64 v=0
6963 On ch=1 n=d6 v=53
6990 Par ch=1 c=64 v=127
6999 On ch=1 n=e6 v=41
7006 Off ch=1 n=d6 v=64
7036 On ch=1 n=d6 v=59
7047 Off ch=1 n=e6 v=64
7090 Off ch=1 n=d6 v=64
7090 On ch=1 n=c#6 v=67
7094 Par ch=1 c=64 v=0
7108 On ch=1 n=e4 v=40
7116 On ch=1 n=d5 v=40
7116 On ch=1 n=g#4 v=32
7126 Par ch=1 c=64 v=0
7134 Par ch=1 c=64 v=127
7150 On ch=1 n=d6 v=62
7160 Off ch=1 n=c#6 v=64
7176 Par ch=1 c=64 v=127
7213 On ch=1 n=d#6 v=55
7250 Off ch=1 n=d6 v=64
7267 Off ch=1 n=e4 v=64
7275 Off ch=1 n=g#4 v=64
7275 Off ch=1 n=d5 v=64
7280 Par ch=1 c=64 v=0
7286 Par ch=1 c=64 v=0
7288 On ch=1 n=g#4 v=23
7289 On ch=1 n=d5 v=31
7293 On ch=1 n=e6 v=59
7296 On ch=1 n=e4 v=32
7303 Off ch=1 n=d#6 v=64
7323 Par ch=1 c=64 v=127
7333 Par ch=1 c=64 v=127
7355 On ch=1 n=b5 v=62
7374 Off ch=1 n=e6 v=64
7408 Off ch=1 n=b5 v=64
7440 On ch=1 n=b5 v=59
7450 Off ch=1 n=e4 v=64
7464 Off ch=1 n=g#4 v=64
7472 Par ch=1 c=64 v=0
7481 Off ch=1 n=d5 v=64
7493 On ch=1 n=d6 v=62
7500 Off ch=1 n=b5 v=64
7522 Par ch=1 c=64 v=127
7596 Par ch=1 c=64 v=0
7642 Par ch=1 c=64 v=127
7784 On ch=1 n=a4 v=31
7788 On ch=1 n=f4 v=31
7788 Par ch=1 c=64 v=0
7792 On ch=1 n=d5 v=32
7834 Par ch=1 c=64 v=127
7922 Par ch=1 c=64 v=0
7974 Off ch=1 n=a4 v=64
7975 Par ch=1 c=64 v=127
7978 Off ch=1 n=f4 v=64
7982 Off ch=1 n=d5 v=64
8043 On ch=1 n=c6 v=46
8066 On ch=1 n=a4 v=29
8076 Off ch=1 n=d6 v=64
8076 On ch=1 n=f4 v=24
8077 On ch=1 n=c5 v=32
8114 Par ch=1 c=64 v=0
8167 Par ch=1 c=64 v=127
8260 Off ch=1 n=f4 v=64
8286 Off ch=1 n=a4 v=64
8291 Off ch=1 n=c6 v=64
8293 On ch=1 n=a5 v=59
8303 Off ch=1 n=c5 v=64
8342 Par ch=1 c=64 v=0
8378 On ch=1 n=a#5 v=75
8389 Par ch=1 c=64 v=127
8401 Off ch=1 n=a5 v=64
8445 On ch=1 n=a5 v=61
8460 Off ch=1 n=a#5 v=64
8513 On ch=1 n=d#5 v=40
8517 On ch=1 n=g5 v=70
8517 On ch=1 n=f4 v=40
8524 Off ch=1 n=a5 v=64
8524 On ch=1 n=c5 v=36
8534 Par ch=1 c=64 v=0
8581 Par ch=1 c=64 v=127
8587 Par ch=1 c=64 v=0
8628 Par ch=1 c=64 v=127
8703 Off ch=1 n=d#5 v=64
8707 Off ch=1 n=f4 v=64
8714 Off ch=1 n=c5 v=64
8744 On ch=1 n=a5 v=65
8759 On ch=1 n=d#5 v=37
8765 On ch=1 n=c5 v=50
8770 Off ch=1 n=g5 v=64
8770 On ch=1 n=f4 v=36
8779 Par ch=1 c=64 v=0
8820 Par ch=1 c=64 v=127
8912 Par ch=1 c=64 v=0
8949 Off ch=1 n=d#5 v=64
8955 Off ch=1 n=c5 v=64
8960 Off ch=1 n=f4 v=64
8974 Par ch=1 c=64 v=127
9051 On ch=1 n=a#5 v=66
9054 On ch=1 n=a#4 v=35
9055 On ch=1 n=d5 v=41
9062 Off ch=1 n=a5 v=64
9104 Par ch=1 c=64 v=0
9166 Par ch=1 c=64 v=127
9281 Par ch=1 c=64 v=0
9382 Par ch=1 c=64 v=127
9440 On ch=1 n=d6 v=41
9448 On ch=1 n=f5 v=28
9456 Off ch=1 n=a#5 v=64
9460 Off ch=1 n=d5 v=64
9470 Par ch=1 c=64 v=0
9571 Par ch=1 c=64 v=127
9739 Off ch=1 n=a#4 v=64
9877 Off ch=1 n=f5 v=64
9909 Off ch=1 n=d6 v=64
10081 Par ch=1 c=64 v=0
10174 On ch=1 n=a5 v=55
10246 Par ch=1 c=64 v=127
10273 Par ch=1 c=64 v=0
10317 On ch=1 n=g#5 v=66
10329 Off ch=1 n=a5 v=64
10376 On ch=1 n=e5 v=44
10384 On ch=1 n=d5 v=57
10391 Off ch=1 n=g#5 v=64
10391 On ch=1 n=b4 v=45
10391 On ch=1 n=e4 v=40
10395 Par ch=1 c=64 v=0
10429 Par ch=1 c=64 v=127
10438 Par ch=1 c=64 v=127
10544 Off ch=1 n=d5 v=64
10551 Off ch=1 n=e4 v=64
10551 Off ch=1 n=b4 v=64
10567 On ch=1 n=e4 v=48
10572 On ch=1 n=g#5 v=66
10575 On ch=1 n=d5 v=54
10580 On ch=1 n=b4 v=36
10582 Off ch=1 n=e5 v=64
10587 Par ch=1 c=64 v=0
10606 Par ch=1 c=64 v=0
10621 Par ch=1 c=64 v=127
10650 Par ch=1 c=64 v=127
10727 Off ch=1 n=e4 v=64
10735 Off ch=1 n=d5 v=64
10740 Off ch=1 n=b4 v=64
10777 On ch=1 n=a5 v=67
10778 On ch=1 n=c5 v=65
10785 On ch=1 n=a3 v=36
10786 Off ch=1 n=g#5 v=64
10791 On ch=1 n=e4 v=33
10798 Par ch=1 c=64 v=0
10842 Par ch=1 c=64 v=127
10904 Par ch=1 c=64 v=0
10948 Par ch=1 c=64 v=127
10995 Off ch=1 n=e4 v=64
11043 Off ch=1 n=a3 v=64
11075 On ch=1 n=a2 v=44
11096 Par ch=1 c=64 v=0
11133 Off ch=1 n=c5 v=64
11140 Par ch=1 c=64 v=127
11155 Par ch=1 c=64 v=0
11179 Off ch=1 n=a5 v=64
11211 Par ch=1 c=64 v=127
11340 On ch=1 n=e6 v=45
11347 Par ch=1 c=64 v=0
11356 Off ch=1 n=a2 v=64
11403 Par ch=1 c=64 v=127
11495 Par ch=1 c=64 v=0
11517 On ch=1 n=f6 v=44
11532 Off ch=1 n=e6 v=64
11554 Par ch=1 c=64 v=127
11641 On ch=1 n=e6 v=36
11645 Off ch=1 n=f6 v=64
11676 Par ch=1 c=64 v=0
11677 On ch=1 n=a4 v=39
11684 On ch=1 n=d5 v=32
11687 Par ch=1 c=64 v=0
11693 On ch=1 n=f5 v=26
11697 On ch=1 n=d6 v=41
11707 Off ch=1 n=e6 v=64
11727 Par ch=1 c=64 v=127
11746 Par ch=1 c=64 v=127
11837 Off ch=1 n=a4 v=64
11844 Off ch=1 n=d5 v=64
11853 Off ch=1 n=f5 v=64
11859 On ch=1 n=f6 v=45
11868 On ch=1 n=d5 v=28
11868 Par ch=1 c=64 v=0
11875 On ch=1 n=a4 v=27
11876 On ch=1 n=f5 v=24
11886 Off ch=1 n=d6 v=64
11916 Par ch=1 c=64 v=127
11939 Off ch=1 n=f6 v=64
12013 Par ch=1 c=64 v=0
12022 Off ch=1 n=a4 v=64
12031 Off ch=1 n=d5 v=64
12037 Off ch=1 n=f5 v=64
12037 On ch=1 n=f6 v=49
12057 Par ch=1 c=64 v=127
12196 On ch=1 n=c5 v=35
12201 On ch=1 n=a4 v=24
12205 Par ch=1 c=64 v=0
12210 On ch=1 n=f5 v=28
12216 Par ch=1 c=64 v=0
12247 Par ch=1 c=64 v=127
12249 Par ch=1 c=64 v=127
12356 Off ch=1 n=c5 v=64
12361 Off ch=1 n=a4 v=64
12369 Par ch=1 c=64 v=0
12370 Off ch=1 n=f5 v=64
12386 On ch=1 n=c5 v=26
12388 On ch=1 n=a4 v=31
12390 On ch=1 n=e6 v=36
12390 On ch=1 n=e5 v=26
12404 Par ch=1 c=64 v=127
12407 Off ch=1 n=f6 v=64
12408 Par ch=1 c=64 v=0
12439 Par ch=1 c=64 v=127
12507 Off ch=1 n=e6 v=64
12533 Par ch=1 c=64 v=0
12534 On ch=1 n=d6 v=36
12548 Off ch=1 n=c5 v=64
12550 Off ch=1 n=e5 v=64
12558 Off ch=1 n=a4 v=64
12561 Par ch=1 c=64 v=0
12566 Par ch=1 c=64 v=127
12571 On ch=1 n=e6 v=37
12593 Off ch=1 n=d6 v=64
12596 Par ch=1 c=64 v=127
12613 On ch=1 n=d6 v=44
12619 Off ch=1 n=e6 v=64
12663 On ch=1 n=c#6 v=52
12671 Off ch=1 n=d6 v=64
12687 Par ch=1 c=64 v=0
12711 On ch=1 n=g#4 v=40
12715 On ch=1 n=d5 v=31
12721 On ch=1 n=e4 v=23
12725 Par ch=1 c=64 v=0
12735 On ch=1 n=d6 v=49
12750 Par ch=1 c=64 v=127
12753 Off ch=1 n=c#6 v=64
12758 Par ch=1 c=64 v=127
12796 On ch=1 n=d#6 v=42
12816 Off ch=1 n=d6 v=64
12831 Par ch=1 c=64 v=0
12871 Off ch=1 n=g#4 v=64
12875 Off ch=1 n=d5 v=64
12876 Par ch=1 c=64 v=127
12878 On ch=1 n=g#4 v=29
12879 On ch=1 n=e6 v=44
12879 Par ch=1 c=64 v=0
12881 Off ch=1 n=e4 v=64
12887 On ch=1 n=d5 v=36
12887 On ch=1 n=e4 v=36
12889 Off ch=1 n=d#6 v=64
12942 Par ch=1 c=64 v=127
12950 On ch=1 n=b5 v=41
12968 Off ch=1 n=e6 v=64
13004 Off ch=1 n=d5 v=64
13012 Off ch=1 n=g#4 v=64
13021 Off ch=1 n=e4 v=64
13023 Par ch=1 c=64 v=0
13034 On ch=1 n=d6 v=46
13038 Par ch=1 c=64 v=0
13060 Off ch=1 n=b5 v=64
13068 Par ch=1 c=64 v=127
13079 Par ch=1 c=64 v=127
13196 On ch=1 n=a3 v=36
13230 Par ch=1 c=64 v=0
13231 Par ch=1 c=64 v=0
13271 Par ch=1 c=64 v=127
13275 Par ch=1 c=64 v=127
13395 On ch=1 n=c6 v=41
13405 On ch=1 n=e4 v=24
13413 On ch=1 n=c5 v=19
13423 Par ch=1 c=64 v=0
13428 Off ch=1 n=d6 v=64
13467 Par ch=1 c=64 v=127
13481 Off ch=1 n=a3 v=64
13555 Par ch=1 c=64 v=0
13593 Off ch=1 n=c6 v=64
13593 On ch=1 n=a5 v=45
13602 Par ch=1 c=64 v=127
13626 Off ch=1 n=e4 v=64
13641 Off ch=1 n=c5 v=64
13648 On ch=1 n=b5 v=39
13655 Off ch=1 n=a5 v=64
13703 Off ch=1 n=b5 v=64
13703 On ch=1 n=a5 v=46
13737 Par ch=1 c=64 v=0
13746 On ch=1 n=c5 v=32
13746 On ch=1 n=e4 v=32
13747 Par ch=1 c=64 v=0
13754 On ch=1 n=g#5 v=48
13779 Off ch=1 n=a5 v=64
13789 Par ch=1 c=64 v=127
13794 Par ch=1 c=64 v=127
13917 On ch=1 n=a5 v=48
13925 On ch=1 n=a3 v=27
13929 Par ch=1 c=64 v=0
13933 Off ch=1 n=g#5 v=64
13981 Par ch=1 c=64 v=127
13986 Off ch=1 n=e4 v=64
13986 Off ch=1 n=c5 v=64
14079 On ch=1 n=b5 v=52
14085 Off ch=1 n=a3 v=64
14093 Par ch=1 c=64 v=0
14099 Off ch=1 n=a5 v=64
14149 Par ch=1 c=64 v=127
14267 On ch=1 n=e6 v=57
14270 On ch=1 n=b4 v=27
14276 On ch=1 n=g4 v=33
14276 On ch=1 n=e4 v=33
14279 Off ch=1 n=b5 v=64
14285 Par ch=1 c=64 v=0
14303 Par ch=1 c=64 v=0
14340 Par ch=1 c=64 v=127
14341 Par ch=1 c=64 v=127
14490 Off ch=1 n=e4 v=64
14495 Par ch=1 c=64 v=0
14501 On ch=1 n=b3 v=39
14532 Par ch=1 c=64 v=127
14547 Off ch=1 n=e6 v=64
14671 Par ch=1 c=64 v=0
14674 Off ch=1 n=b3 v=64
14681 Off ch=1 n=g4 v=64
14692 Off ch=1 n=b4 v=64
14725 Par ch=1 c=64 v=127
14737 On ch=1 n=b5 v=62
14803 On ch=1 n=g5 v=52
14828 Off ch=1 n=b5 v=64
14863 Par ch=1 c=64 v=0
14867 Par ch=1 c=64 v=0
14873 On ch=1 n=e5 v=62
14880 On ch=1 n=b4 v=52
14880 On ch=1 n=b3 v=49
14881 On ch=1 n=g4 v=52
14888 Off ch=1 n=g5 v=64
14917 Par ch=1 c=64 v=127
14921 Par ch=1 c=64 v=127
14956 On ch=1 n=b5 v=58
14980 Off ch=1 n=e5 v=64
14983 Off ch=1 n=g4 v=64
14983 Off ch=1 n=b3 v=64
14985 Off ch=1 n=b4 v=64
15035 On ch=1 n=d#5 v=62
15038 On ch=1 n=b4 v=54
15038 On ch=1 n=f#4 v=54
15045 On ch=1 n=b3 v=49
15055 Off ch=1 n=b5 v=64
15059 Par ch=1 c=64 v=0
15069 Par ch=1 c=64 v=0
15110 Par ch=1 c=64 v=127
15131 Par ch=1 c=64 v=127
15165 Off ch=1 n=b3 v=64
15182 Off ch=1 n=f#4 v=64
15206 Off ch=1 n=b4 v=64
15259 On ch=1 n=e5 v=54
15261 Par ch=1 c=64 v=0
15267 On ch=1 n=b4 v=46
15267 On ch=1 n=e4 v=50
15268 On ch=1 n=g4 v=49
15271 Off ch=1 n=d#5 v=64
15323 Par ch=1 c=64 v=127
15373 Par ch=1 c=64 v=0
15417 Par ch=1 c=64 v=127
15510 Off ch=1 n=b4 v=64
15526 Off ch=1 n=g4 v=64
15550 Off ch=1 n=e4 v=64
15550 On ch=1 n=e3 v=55
15565 Par ch=1 c=64 v=0
15609 Par ch=1 c=64 v=127
15633 Par ch=1 c=64 v=0
15680 Par ch=1 c=64 v=127
15692 Off ch=1 n=e5 v=64
15773 Par ch=1 c=64 v=0
15793 On ch=1 n=e6 v=41
15810 Par ch=1 c=64 v=127
15825 Par ch=1 c=64 v=0
15835 Off ch=1 n=e3 v=64
15872 Par ch=1 c=64 v=127
15949 Par ch=1 c=64 v=0
15965 Par ch=1 c=64 v=0
15970 On ch=1 n=f6 v=41
15989 Off ch=1 n=e6 v=64
15991 Par ch=1 c=64 v=127
16002 Par ch=1 c=64 v=127
16088 On ch=1 n=e6 v=36
16108 Off ch=1 n=f6 v=64
16111 Par ch=1 c=64 v=0
16118 On ch=1 n=a4 v=29
16125 On ch=1 n=f5 v=26
16131 On ch=1 n=d5 v=23
16133 On ch=1 n=d6 v=32
16141 Par ch=1 c=64 v=0
16153 Off ch=1 n=e6 v=64
16155 Par ch=1 c=64 v=127
16183 Par ch=1 c=64 v=127
16288 Off ch=1 n=a4 v=64
16295 Off ch=1 n=f5 v=64
16297 On ch=1 n=f6 v=41
16301 Off ch=1 n=d5 v=64
16303 Par ch=1 c=64 v=0
16308 On ch=1 n=f5 v=23
16308 On ch=1 n=d5 v=24
16309 On ch=1 n=a4 v=24
16321 Off ch=1 n=d6 v=64
16347 Par ch=1 c=64 v=127
16376 Off ch=1 n=f6 v=64
16445 Par ch=1 c=64 v=0
16467 On ch=1 n=f6 v=45
16478 Off ch=1 n=a4 v=64
16479 Par ch=1 c=64 v=127
16482 Off ch=1 n=f5 v=64
16486 Off ch=1 n=d5 v=64
16604 Par ch=1 c=64 v=0
16614 On ch=1 n=c5 v=28
16616 On ch=1 n=a4 v=27
16620 On ch=1 n=f5 v=26
16634 Par ch=1 c=64 v=0
16655 Par ch=1 c=64 v=127
16665 Par ch=1 c=64 v=127
16767 Par ch=1 c=64 v=0
16781 Off ch=1 n=c5 v=64
16783 Off ch=1 n=a4 v=64
16787 Off ch=1 n=f5 v=64
16790 Par ch=1 c=64 v=0
16798 On ch=1 n=e5 v=29
16798 On ch=1 n=c5 v=28
16798 On ch=1 n=a4 v=28
16803 On ch=1 n=e6 v=45
16808 Par ch=1 c=64 v=127
16818 Off ch=1 n=f6 v=64
16841 Par ch=1 c=64 v=127
16904 Off ch=1 n=e6 v=64
16938 Par ch=1 c=64 v=0
16948 On ch=1 n=d6 v=31
16956 Par ch=1 c=64 v=0
16965 Off ch=1 n=a4 v=64
16965 Off ch=1 n=c5 v=64
16965 Off ch=1 n=e5 v=64
16969 Par ch=1 c=64 v=127
16983 On ch=1 n=e6 v=40
16997 Par ch=1 c=64 v=127
17003 Off ch=1 n=d6 v=64
17020 On ch=1 n=d6 v=41
17029 Off ch=1 n=e6 v=64
17066 On ch=1 n=c#6 v=46
17075 Off ch=1 n=d6 v=64
17096 Par ch=1 c=64 v=0
17119 On ch=1 n=g#4 v=24
17119 On ch=1 n=e4 v=26
17123 Par ch=1 c=64 v=127
17125 On ch=1 n=d6 v=42
17125 On ch=1 n=d5 v=28
17130 Par ch=1 c=64 v=0
17151 Off ch=1 n=c#6 v=64
17161 Par ch=1 c=64 v=127
17194 On ch=1 n=d#6 v=41
17216 Off ch=1 n=d6 v=64
17257 Par ch=1 c=64 v=0
17269 Off ch=1 n=e4 v=64
17269 Off ch=1 n=g#4 v=64
17275 Off ch=1 n=d5 v=64
17281 On ch=1 n=e6 v=40
17281 On ch=1 n=d5 v=26
17286 On ch=1 n=g#4 v=20
17288 Par ch=1 c=64 v=0
17295 Off ch=1 n=d#6 v=64
17295 On ch=1 n=e4 v=24
17305 Par ch=1 c=64 v=127
17315 Par ch=1 c=64 v=127
17334 On ch=1 n=b5 v=46
17360 Off ch=1 n=e6 v=64
17371 Off ch=1 n=b5 v=64
17405 On ch=1 n=b5 v=45
17431 Off ch=1 n=d5 v=64
17436 Off ch=1 n=g#4 v=64
17445 Off ch=1 n=e4 v=64
17449 Par ch=1 c=64 v=0
17459 On ch=1 n=d6 v=46
17468 Off ch=1 n=b5 v=64
17497 Par ch=1 c=64 v=127
17528 Par ch=1 c=64 v=0
17568 Par ch=1 c=64 v=127
17700 On ch=1 n=f4 v=19
17710 On ch=1 n=d5 v=19
17710 On ch=1 n=a4 v=26
17720 Par ch=1 c=64 v=0
17760 Par ch=1 c=64 v=127
17819 Par ch=1 c=64 v=0
17881 Par ch=1 c=64 v=127
17885 Off ch=1 n=f4 v=64
17895 Off ch=1 n=a4 v=64
17895 Off ch=1 n=d5 v=64
17954 On ch=1 n=c6 v=41
17975 On ch=1 n=a4 v=18
17979 Off ch=1 n=d6 v=64
17979 On ch=1 n=c5 v=22
17979 On ch=1 n=f4 v=16
18011 Par ch=1 c=64 v=0
18073 Par ch=1 c=64 v=127
18185 Off ch=1 n=f4 v=64
18192 Par ch=1 c=64 v=0
18193 Off ch=1 n=a4 v=64
18193 Off ch=1 n=c6 v=64
18195 On ch=1 n=a5 v=46
18201 Off ch=1 n=c5 v=64
18242 Par ch=1 c=64 v=127
18256 On ch=1 n=a#5 v=49
18274 Off ch=1 n=a5 v=64
18325 On ch=1 n=a5 v=46
18336 Off ch=1 n=a#5 v=64
18382 On ch=1 n=d#5 v=31
18384 Par ch=1 c=64 v=0
18390 On ch=1 n=c5 v=33
18390 On ch=1 n=f4 v=39
18391 On ch=1 n=g5 v=49
18397 Off ch=1 n=a5 v=64
18434 Par ch=1 c=64 v=127
18437 Par ch=1 c=64 v=0
18493 Par ch=1 c=64 v=127
18567 Off ch=1 n=d#5 v=64
18575 Off ch=1 n=f4 v=64
18575 Off ch=1 n=c5 v=64
18590 On ch=1 n=c5 v=26
18594 On ch=1 n=a5 v=52
18598 On ch=1 n=f4 v=31
18599 On ch=1 n=d#5 v=31
18619 Off ch=1 n=g5 v=64
18629 Par ch=1 c=64 v=0
18685 Par ch=1 c=64 v=127
18738 Par ch=1 c=64 v=0
18775 Off ch=1 n=c5 v=64
18783 Off ch=1 n=f4 v=64
18784 Off ch=1 n=d#5 v=64
18791 Par ch=1 c=64 v=127
18870 On ch=1 n=d5 v=32
18870 On ch=1 n=a#4 v=26
18873 On ch=1 n=a#5 v=49
18898 Off ch=1 n=a5 v=64
18930 Par ch=1 c=64 v=0
18983 Par ch=1 c=64 v=127
19131 Par ch=1 c=64 v=0
19197 Par ch=1 c=64 v=127
19254 On ch=1 n=f5 v=23
19260 On ch=1 n=d6 v=41
19278 Off ch=1 n=a#5 v=64
19285 Off ch=1 n=d5 v=64
19323 Par ch=1 c=64 v=0
19389 Par ch=1 c=64 v=127
19573 Par ch=1 c=64 v=0
19590 Off ch=1 n=d6 v=64
19590 Off ch=1 n=f5 v=64
19590 Off ch=1 n=a#4 v=64
19765 Par ch=1 c=64 v=0
19779 Par ch=1 c=64 v=0
19822 Par ch=1 c=64 v=127
19939 Par ch=1 c=64 v=0
19939 On ch=1 n=a5 v=57
19971 Par ch=1 c=64 v=0
19988 Par ch=1 c=64 v=127
20014 Par ch=1 c=64 v=127
20075 On ch=1 n=g#5 v=41
20085 Off ch=1 n=a5 v=64
20116 On ch=1 n=e5 v=57
20122 On ch=1 n=e4 v=48
20127 On ch=1 n=b4 v=44
20131 Par ch=1 c=64 v=0
20133 Par ch=1 c=64 v=0
20137 Off ch=1 n=g#5 v=64
20137 On ch=1 n=d5 v=36
20164 Par ch=1 c=64 v=127
20180 Par ch=1 c=64 v=127
20272 Off ch=1 n=e4 v=64
20277 Off ch=1 n=b4 v=64
20287 Off ch=1 n=d5 v=64
20310 On ch=1 n=g#5 v=55
20311 On ch=1 n=e4 v=52
20319 On ch=1 n=d5 v=39
20319 On ch=1 n=b4 v=41
20323 Par ch=1 c=64 v=0
20325 Par ch=1 c=64 v=0
20331 Off ch=1 n=e5 v=64
20356 Par ch=1 c=64 v=127
20374 Par ch=1 c=64 v=127
20461 Off ch=1 n=e4 v=64
20469 Off ch=1 n=b4 v=64
20469 Off ch=1 n=d5 v=64
20494 On ch=1 n=a5 v=57
20494 On ch=1 n=c5 v=52
20498 On ch=1 n=e4 v=55
20504 On ch=1 n=a3 v=57
20515 Par ch=1 c=64 v=0
20522 Off ch=1 n=g#5 v=64
20566 Par ch=1 c=64 v=127
20574 Par ch=1 c=64 v=0
20611 Par ch=1 c=64 v=127
20747 Off ch=1 n=e4 v=64
20750 On ch=1 n=a2 v=66
20753 Off ch=1 n=a3 v=64
20763 Par ch=1 c=64 v=0
20782 Off ch=1 n=c5 v=64
20800 Par ch=1 c=64 v=127
20838 Off ch=1 n=a5 v=64
20956 Off ch=1 n=a2 v=64
20982 Par ch=1 c=64 v=0
21017 Par ch=1 c=64 v=127
21027 On ch=1 n=b5 v=53
21174 Par ch=1 c=64 v=0
21188 Off ch=1 n=b5 v=64
21191 On ch=1 n=c6 v=57
21209 Par ch=1 c=64 v=127
21219 Par ch=1 c=64 v=0
21222 Par ch=1 c=64 v=0
21256 Par ch=1 c=64 v=127
21262 Par ch=1 c=64 v=127
21298 On ch=1 n=d6 v=53
21324 Off ch=1 n=c6 v=64
21379 Par ch=1 c=64 v=0
21381 On ch=1 n=d#6 v=62
21387 On ch=1 n=c5 v=35
21387 On ch=1 n=g#4 v=45
21392 On ch=1 n=f#5 v=41
21402 Off ch=1 n=d6 v=64
21411 Par ch=1 c=64 v=0
21414 Par ch=1 c=64 v=0
21422 Par ch=1 c=64 v=127
21448 Par ch=1 c=64 v=127
21454 Par ch=1 c=64 v=127
21507 Off ch=1 n=d#6 v=64
21539 Par ch=1 c=64 v=0
21553 Par ch=1 c=64 v=127
21557 Off ch=1 n=g#4 v=64
21557 Off ch=1 n=c5 v=64
21561 On ch=1 n=d#6 v=63
21562 Off ch=1 n=f#5 v=64
21564 On ch=1 n=g#4 v=45
21569 On ch=1 n=f#5 v=32
21569 On ch=1 n=c5 v=41
21571 Par ch=1 c=64 v=0
21614 Par ch=1 c=64 v=127
21693 Off ch=1 n=d#6 v=64
21695 On ch=1 n=f6 v=54
21726 Par ch=1 c=64 v=0
21729 On ch=1 n=d#6 v=63
21731 Par ch=1 c=64 v=0
21734 Off ch=1 n=g#4 v=64
21739 Off ch=1 n=c5 v=64
21739 Off ch=1 n=f#5 v=64
21745 Par ch=1 c=64 v=127
21747 Par ch=1 c=64 v=127
21752 Off ch=1 n=f6 v=64
21899 On ch=1 n=f#5 v=44
21903 On ch=1 n=c5 v=45
21903 On ch=1 n=g4 v=41
21913 Par ch=1 c=64 v=0
21915 Par ch=1 c=64 v=0
21936 Par ch=1 c=64 v=127
21947 Par ch=1 c=64 v=127
22053 Par ch=1 c=64 v=0
22063 Off ch=1 n=f#5 v=64
22067 Off ch=1 n=g4 v=64
22067 Off ch=1 n=c5 v=64
22068 On ch=1 n=d6 v=53
22080 Par ch=1 c=64 v=127
22084 On ch=1 n=g4 v=36
22088 On ch=1 n=g5 v=36
22092 Off ch=1 n=d#6 v=64
22097 On ch=1 n=b4 v=35
22102 Par ch=1 c=64 v=0
22136 Par ch=1 c=64 v=127
22227 Par ch=1 c=64 v=0
22242 Par ch=1 c=64 v=0
22247 Off ch=1 n=b4 v=64
22247 On ch=1 n=c6 v=58
22259 Off ch=1 n=d6 v=64
22260 Off ch=1 n=g5 v=64
22263 Par ch=1 c=64 v=127
22272 Par ch=1 c=64 v=127
22276 Off ch=1 n=g4 v=64
22318 On ch=1 n=d6 v=52
22341 Off ch=1 n=c6 v=64
22381 On ch=1 n=f#5 v=36
22386 Par ch=1 c=64 v=0
22389 On ch=1 n=c5 v=36
22396 On ch=1 n=d#6 v=62
22396 On ch=1 n=g#4 v=37
22419 Par ch=1 c=64 v=0
22427 Off ch=1 n=d6 v=64
22430 Par ch=1 c=64 v=127
22455 Par ch=1 c=64 v=127
22501 Off ch=1 n=d#6 v=64
22551 Off ch=1 n=f#5 v=64
22559 Off ch=1 n=c5 v=64
22560 On ch=1 n=d#6 v=62
22564 On ch=1 n=f#5 v=44
22566 Off ch=1 n=g#4 v=64
22574 On ch=1 n=g#4 v=41
22576 On ch=1 n=c5 v=42
22578 Par ch=1 c=64 v=0
22622 Par ch=1 c=64 v=127
22675 Off ch=1 n=g#4 v=64
22682 Off ch=1 n=c5 v=64
22684 On ch=1 n=f6 v=53
22689 Off ch=1 n=d#6 v=64
22720 Par ch=1 c=64 v=0
22727 Off ch=1 n=f#5 v=64
22733 On ch=1 n=d#6 v=66
22752 Off ch=1 n=f6 v=64
22757 Par ch=1 c=64 v=127
22894 On ch=1 n=g#4 v=32
22903 On ch=1 n=b4 v=41
22905 Par ch=1 c=64 v=0
22906 On ch=1 n=f5 v=32
22912 Par ch=1 c=64 v=0
22936 Par ch=1 c=64 v=127
22946 Par ch=1 c=64 v=127
23040 Par ch=1 c=64 v=0
23056 Off ch=1 n=g#4 v=64
23065 Off ch=1 n=b4 v=64
23068 Off ch=1 n=f5 v=64
23072 On ch=1 n=g#4 v=45
23076 On ch=1 n=d6 v=53
23077 On ch=1 n=a#4 v=42
23082 On ch=1 n=f5 v=36
23086 Off ch=1 n=d#6 v=64
23092 Par ch=1 c=64 v=127
23094 Par ch=1 c=64 v=0
23125 Par ch=1 c=64 v=127
23221 Off ch=1 n=a#4 v=64
23232 Par ch=1 c=64 v=0
23233 Par ch=1 c=64 v=0
23238 Off ch=1 n=g#4 v=64
23245 Par ch=1 c=64 v=127
23247 Off ch=1 n=f5 v=64
23248 On ch=1 n=a#6 v=76
23255 Off ch=1 n=d6 v=64
23284 Par ch=1 c=64 v=127
23404 On ch=1 n=g4 v=36
23408 On ch=1 n=f5 v=47
23409 Par ch=1 c=64 v=0
23409 On ch=1 n=a#4 v=51
23425 Par ch=1 c=64 v=0
23437 Par ch=1 c=64 v=127
23455 Par ch=1 c=64 v=127
23564 Off ch=1 n=g4 v=64
23564 Par ch=1 c=64 v=0
23568 Off ch=1 n=f5 v=64
23569 Off ch=1 n=a#4 v=64
23584 On ch=1 n=e5 v=32
23588 On ch=1 n=c#6 v=50
23588 On ch=1 n=g4 v=27
23593 On ch=1 n=a#4 v=27
23598 Par ch=1 c=64 v=127
23601 Par ch=1 c=64 v=0
23611 Off ch=1 n=a#6 v=64
23644 Par ch=1 c=64 v=127
23675 Off ch=1 n=a#4 v=64
23681 Off ch=1 n=g4 v=64
23704 Off ch=1 n=e5 v=64
23752 Off ch=1 n=c#6 v=64
23752 On ch=1 n=a6 v=65
23753 Par ch=1 c=64 v=0
23787 Par ch=1 c=64 v=127
23903 On ch=1 n=e5 v=36
23903 On ch=1 n=g4 v=36
23907 On ch=1 n=a4 v=36
23911 Par ch=1 c=64 v=0
23944 Par ch=1 c=64 v=127
24063 Off ch=1 n=g4 v=64
24063 Off ch=1 n=e5 v=64
24067 Off ch=1 n=a4 v=64
24082 On ch=1 n=c6 v=46
24082 On ch=1 n=f#4 v=31
24085 On ch=1 n=d#5 v=28
24089 On ch=1 n=a4 v=24
24098 Off ch=1 n=a6 v=64
24103 Par ch=1 c=64 v=0
24136 Par ch=1 c=64 v=127
24234 Off ch=1 n=f#4 v=64
24237 Par ch=1 c=64 v=0
24243 On ch=1 n=g#6 v=53
24249 Off ch=1 n=a4 v=64
24259 Off ch=1 n=d#5 v=64
24260 Par ch=1 c=64 v=127
24277 Off ch=1 n=c6 v=64
24403 On ch=1 n=f4 v=36
24406 On ch=1 n=d#5 v=41
24408 On ch=1 n=g#4 v=37
24417 Par ch=1 c=64 v=0
24426 Par ch=1 c=64 v=0
24452 Par ch=1 c=64 v=127
24470 Par ch=1 c=64 v=127
24563 Off ch=1 n=f4 v=64
24566 Off ch=1 n=d#5 v=64
24568 Off ch=1 n=g#4 v=64
24585 On ch=1 n=b5 v=49
24597 On ch=1 n=g#4 v=24
24597 On ch=1 n=f4 v=28
24603 Off ch=1 n=g#6 v=64
24603 On ch=1 n=d5 v=24
24609 Par ch=1 c=64 v=0
24662 Par ch=1 c=64 v=127
24735 Off ch=1 n=g#4 v=64
24737 Off ch=1 n=f4 v=64
24747 Off ch=1 n=d5 v=64
24756 On ch=1 n=g6 v=52
24763 Par ch=1 c=64 v=0
24765 Off ch=1 n=b5 v=64
24821 Par ch=1 c=64 v=127
24944 On ch=1 n=d5 v=26
24944 On ch=1 n=g4 v=26
24945 On ch=1 n=e4 v=26
24955 Par ch=1 c=64 v=0
24997 Par ch=1 c=64 v=0
25013 Par ch=1 c=64 v=127
25041 Par ch=1 c=64 v=127
25048 On ch=1 n=a#5 v=46
25081 Off ch=1 n=g6 v=64
25104 Off ch=1 n=g4 v=64
25104 Off ch=1 n=d5 v=64
25105 Off ch=1 n=e4 v=64
25169 On ch=1 n=e4 v=24
25176 On ch=1 n=g4 v=28
25180 On ch=1 n=a5 v=40
25180 On ch=1 n=c#5 v=27
25189 Par ch=1 c=64 v=0
25193 Off ch=1 n=a#5 v=64
25214 Par ch=1 c=64 v=0
25233 Par ch=1 c=64 v=127
25243 Par ch=1 c=64 v=127
25277 On ch=1 n=e6 v=54
25293 Off ch=1 n=a5 v=64
25331 Off ch=1 n=e4 v=64
25338 Off ch=1 n=g4 v=64
25342 Off ch=1 n=c#5 v=64
25377 Par ch=1 c=64 v=0
25380 On ch=1 n=f6 v=49
25387 On ch=1 n=f4 v=39
25390 Par ch=1 c=64 v=0
25392 On ch=1 n=d5 v=44
25392 On ch=1 n=d4 v=44
25402 Off ch=1 n=e6 v=64
25403 Par ch=1 c=64 v=0
25413 Par ch=1 c=64 v=127
25430 Par ch=1 c=64 v=127
25432 Par ch=1 c=64 v=127
25481 On ch=1 n=e6 v=52
25503 Off ch=1 n=f6 v=64
25558 Par ch=1 c=64 v=0
25564 Off ch=1 n=f4 v=64
25566 On ch=1 n=d6 v=59
25566 Par ch=1 c=64 v=0
25569 Off ch=1 n=d4 v=64
25569 Off ch=1 n=d5 v=64
25571 On ch=1 n=d5 v=1
25572 On ch=1 n=f5 v=36
25572 On ch=1 n=a4 v=45
25579 Par ch=1 c=64 v=0
25582 Off ch=1 n=e6 v=64
25593 Par ch=1 c=64 v=127
25605 Par ch=1 c=64 v=127
25622 Par ch=1 c=64 v=127
25685 Off ch=1 n=d5 v=64
25709 Off ch=1 n=a4 v=64
25712 Off ch=1 n=f5 v=64
25733 On ch=1 n=d5 v=39
25736 On ch=1 n=f5 v=39
25737 On ch=1 n=a4 v=36
25739 Par ch=1 c=64 v=0
25746 On ch=1 n=f6 v=62
25750 Par ch=1 c=64 v=0
25769 Off ch=1 n=d6 v=64
25776 Par ch=1 c=64 v=127
25785 Par ch=1 c=64 v=127
25826 Off ch=1 n=f6 v=64
25924 On ch=1 n=f6 v=65
25931 Par ch=1 c=64 v=0
25959 Off ch=1 n=a4 v=64
25962 Off ch=1 n=d5 v=64
25965 Off ch=1 n=f5 v=64
25968 Par ch=1 c=64 v=127
26074 Par ch=1 c=64 v=0
26083 On ch=1 n=c5 v=33
26084 On ch=1 n=f5 v=39
26096 On ch=1 n=a4 v=32
26106 Par ch=1 c=64 v=127
26230 Off ch=1 n=c5 v=64
26231 Off ch=1 n=f5 v=64
26243 Off ch=1 n=a4 v=64
26246 On ch=1 n=c5 v=36
26248 On ch=1 n=e6 v=50
26253 On ch=1 n=a4 v=37
26256 On ch=1 n=e5 v=29
26263 Par ch=1 c=64 v=0
26275 Off ch=1 n=f6 v=64
26298 Par ch=1 c=64 v=127
26374 Off ch=1 n=e6 v=64
26407 Off ch=1 n=e5 v=64
26410 Off ch=1 n=c5 v=64
26414 Par ch=1 c=64 v=0
26418 Off ch=1 n=a4 v=64
26418 On ch=1 n=d6 v=54
26454 Par ch=1 c=64 v=127
26456 On ch=1 n=e6 v=48
26472 Off ch=1 n=d6 v=64
26505 On ch=1 n=d6 v=56
26515 Off ch=1 n=e6 v=64
26561 On ch=1 n=c#6 v=60
26578 Off ch=1 n=d6 v=64
26606 Par ch=1 c=64 v=0
26610 On ch=1 n=d6 v=44
26615 Par ch=1 c=64 v=0
26616 On ch=1 n=d5 v=26
26616 On ch=1 n=g#4 v=49
26617 On ch=1 n=e4 v=31
26628 Off ch=1 n=c#6 v=64
26646 Par ch=1 c=64 v=127
26647 Par ch=1 c=64 v=127
26695 On ch=1 n=d#6 v=53
26712 Off ch=1 n=d6 v=64
26766 Off ch=1 n=g#4 v=64
26766 Off ch=1 n=d5 v=64
26767 Off ch=1 n=e4 v=64
26784 On ch=1 n=g#4 v=39
26784 On ch=1 n=e4 v=44
26785 On ch=1 n=e6 v=51
26793 On ch=1 n=d5 v=35
26807 Par ch=1 c=64 v=0
26808 Off ch=1 n=d#6 v=64
26830 Par ch=1 c=64 v=0
26839 Par ch=1 c=64 v=127
26863 Par ch=1 c=64 v=127
26882 On ch=1 n=b5 v=39
26932 Off ch=1 n=e6 v=64
26999 On ch=1 n=d6 v=53
27011 Off ch=1 n=b5 v=64
27015 Off ch=1 n=e4 v=64
27022 Par ch=1 c=64 v=0
27024 Off ch=1 n=g#4 v=64
27026 Par ch=1 c=64 v=0
27042 Off ch=1 n=d5 v=64
27052 Par ch=1 c=64 v=127
27056 Par ch=1 c=64 v=127
27186 On ch=1 n=d5 v=36
27186 On ch=1 n=a4 v=35
27197 On ch=1 n=f4 v=29
27215 Par ch=1 c=64 v=0
27248 Par ch=1 c=64 v=127
27258 Par ch=1 c=64 v=0
27295 Par ch=1 c=64 v=127
27348 Off ch=1 n=a4 v=64
27348 Off ch=1 n=d5 v=64
27359 Off ch=1 n=f4 v=64
27418 On ch=1 n=c6 v=36
27421 On ch=1 n=f4 v=27
27426 On ch=1 n=a4 v=27
27429 On ch=1 n=c5 v=35
27440 Off ch=1 n=d6 v=64
27450 Par ch=1 c=64 v=0
27487 Par ch=1 c=64 v=127
27623 Off ch=1 n=f4 v=64
27635 Off ch=1 n=a4 v=64
27638 Off ch=1 n=c6 v=64
27638 On ch=1 n=a5 v=52
27645 Off ch=1 n=c5 v=64
27682 Par ch=1 c=64 v=0
27719 Par ch=1 c=64 v=127
27724 On ch=1 n=a#5 v=59
27747 Off ch=1 n=a5 v=64
27796 On ch=1 n=a5 v=44
27802 Off ch=1 n=a#5 v=64
27848 On ch=1 n=d#5 v=40
27855 On ch=1 n=f4 v=31
27858 On ch=1 n=c5 v=36
27862 On ch=1 n=g5 v=66
27874 Par ch=1 c=64 v=0
27884 Off ch=1 n=a5 v=64
27908 Par ch=1 c=64 v=127
27920 Par ch=1 c=64 v=0
27943 Par ch=1 c=64 v=127
28030 Off ch=1 n=d#5 v=64
28037 Off ch=1 n=f4 v=64
28040 Off ch=1 n=c5 v=64
28088 On ch=1 n=a5 v=63
28094 On ch=1 n=f4 v=37
28097 On ch=1 n=d#5 v=41
28097 On ch=1 n=c5 v=39
28112 Par ch=1 c=64 v=0
28117 Off ch=1 n=g5 v=64
28135 Par ch=1 c=64 v=127
28212 Par ch=1 c=64 v=0
28266 Par ch=1 c=64 v=127
28276 Off ch=1 n=f4 v=64
28279 Off ch=1 n=c5 v=64
28279 Off ch=1 n=d#5 v=64
28370 On ch=1 n=a#5 v=70
28375 On ch=1 n=d5 v=49
28382 On ch=1 n=a#4 v=40
28392 Off ch=1 n=a5 v=64
28401 Par ch=1 c=64 v=0
28455 Par ch=1 c=64 v=127
28543 Par ch=1 c=64 v=0
28599 Par ch=1 c=64 v=127
28697 On ch=1 n=d6 v=53
28708 On ch=1 n=f5 v=28
28715 Off ch=1 n=a#5 v=64
28735 Par ch=1 c=64 v=0
28759 Off ch=1 n=d5 v=64
28791 Par ch=1 c=64 v=127
28833 Off ch=1 n=a#4 v=64
29045 Off ch=1 n=f5 v=64
29063 Off ch=1 n=d6 v=64
29311 Par ch=1 c=64 v=0
29334 Par ch=1 c=64 v=127
29457 On ch=1 n=a5 v=59
29501 Par ch=1 c=64 v=0
29503 Par ch=1 c=64 v=0
29526 Par ch=1 c=64 v=127
29534 Par ch=1 c=64 v=127
29611 On ch=1 n=g#5 v=55
29634 Off ch=1 n=a5 v=64
29665 On ch=1 n=e5 v=63
29668 Par ch=1 c=64 v=0
29676 On ch=1 n=d5 v=63
29685 On ch=1 n=e4 v=58
29688 Off ch=1 n=g#5 v=64
29691 Par ch=1 c=64 v=127
29693 Par ch=1 c=64 v=0
29726 Par ch=1 c=64 v=127
29826 Off ch=1 n=d5 v=64
29835 Off ch=1 n=e4 v=64
29836 Par ch=1 c=64 v=0
29840 On ch=1 n=g#5 v=60
29846 On ch=1 n=d5 v=63
29846 On ch=1 n=e4 v=55
29855 Off ch=1 n=e5 v=64
29860 Par ch=1 c=64 v=0
29877 Par ch=1 c=64 v=127
29883 Par ch=1 c=64 v=127
29996 Off ch=1 n=e4 v=64
29996 Off ch=1 n=d5 v=64
30013 On ch=1 n=a5 v=64
30019 On ch=1 n=c5 v=56
30019 On ch=1 n=a3 v=48
30026 Off ch=1 n=g#5 v=64
30028 On ch=1 n=e4 v=33
30028 Par ch=1 c=64 v=0
30069 Par ch=1 c=64 v=127
30167 Off ch=1 n=c5 v=64
30200 On ch=1 n=a2 v=60
30217 Off ch=1 n=a5 v=64
30221 Par ch=1 c=64 v=0
30236 Par ch=1 c=64 v=127
30259 Off ch=1 n=a3 v=64
30268 Off ch=1 n=e4 v=64
30356 Off ch=1 n=a2 v=64
30390 On ch=1 n=b5 v=45
30413 Par ch=1 c=64 v=0
30428 Par ch=1 c=64 v=127
30582 Par ch=1 c=64 v=0
30603 On ch=1 n=c6 v=44
30611 Off ch=1 n=b5 v=64
30645 Par ch=1 c=64 v=127
30696 On ch=1 n=d6 v=41
30718 Off ch=1 n=c6 v=64
30774 Par ch=1 c=64 v=0
30780 Par ch=1 c=64 v=0
30780 On ch=1 n=d#6 v=46
30780 On ch=1 n=g#4 v=28
30785 On ch=1 n=f#5 v=24
30788 On ch=1 n=c5 v=31
30798 Off ch=1 n=d6 v=64
30808 Par ch=1 c=64 v=127
30834 Par ch=1 c=64 v=127
30904 Off ch=1 n=d#6 v=64
30927 Off ch=1 n=g#4 v=64
30932 Off ch=1 n=f#5 v=64
30935 Off ch=1 n=c5 v=64
30946 On ch=1 n=d#6 v=49
30949 On ch=1 n=g#4 v=31
30955 On ch=1 n=f#5 v=26
30959 On ch=1 n=c5 v=31
30969 Par ch=1 c=64 v=0
31000 Par ch=1 c=64 v=127
31084 Off ch=1 n=d#6 v=64
31089 Off ch=1 n=c5 v=64
31089 On ch=1 n=f6 v=41
31099 Off ch=1 n=g#4 v=64
31109 Off ch=1 n=f#5 v=64
31124 Par ch=1 c=64 v=0
31130 On ch=1 n=d#6 v=49
31155 Off ch=1 n=f6 v=64
31159 Par ch=1 c=64 v=127
31294 On ch=1 n=g4 v=26
31305 On ch=1 n=c5 v=31
31308 On ch=1 n=f#5 v=15
31316 Par ch=1 c=64 v=0
31326 Par ch=1 c=64 v=0
31348 Par ch=1 c=64 v=127
31354 Par ch=1 c=64 v=127
31441 Off ch=1 n=g4 v=64
31452 Off ch=1 n=c5 v=64
31455 Off ch=1 n=f#5 v=64
31482 Par ch=1 c=64 v=0
31484 On ch=1 n=g4 v=23
31489 On ch=1 n=d6 v=41
31489 On ch=1 n=b4 v=35
31505 On ch=1 n=g5 v=32
31510 Off ch=1 n=d#6 v=64
31510 Par ch=1 c=64 v=127
31518 Par ch=1 c=64 v=0
31546 Par ch=1 c=64 v=127
31658 Par ch=1 c=64 v=0
31668 On ch=1 n=c6 v=41
31671 Par ch=1 c=64 v=0
31676 Off ch=1 n=d6 v=64
31682 Off ch=1 n=g4 v=64
31687 Off ch=1 n=b4 v=64
31688 Par ch=1 c=64 v=127
31691 Off ch=1 n=g5 v=64
31699 Par ch=1 c=64 v=127
31746 On ch=1 n=d6 v=36
31772 Off ch=1 n=c6 v=64
31816 Par ch=1 c=64 v=0
31823 On ch=1 n=c5 v=33
31826 On ch=1 n=g#4 v=31
31828 On ch=1 n=d#6 v=46
31828 On ch=1 n=f#5 v=26
31847 Par ch=1 c=64 v=0
31859 Par ch=1 c=64 v=127
31879 Off ch=1 n=d6 v=64
31880 Par ch=1 c=64 v=127
31922 Off ch=1 n=d#6 v=64
31973 Off ch=1 n=c5 v=64
31976 Off ch=1 n=g#4 v=64
31978 Off ch=1 n=f#5 v=64
31990 On ch=1 n=d#6 v=49
31997 On ch=1 n=f#5 v=36
31997 On ch=1 n=g#4 v=36
32001 On ch=1 n=c5 v=36
32008 Par ch=1 c=64 v=0
32051 Par ch=1 c=64 v=127
32111 Off ch=1 n=c5 v=64
32118 Off ch=1 n=d#6 v=64
32118 On ch=1 n=f6 v=41
32133 Off ch=1 n=g#4 v=64
32148 Off ch=1 n=f#5 v=64
32155 Par ch=1 c=64 v=0
32161 On ch=1 n=d#6 v=46
32177 Off ch=1 n=f6 v=64
32187 Par ch=1 c=64 v=127
32325 On ch=1 n=g#4 v=31
32332 On ch=1 n=b4 v=37
32335 Par ch=1 c=64 v=0
32336 On ch=1 n=f5 v=27
32347 Par ch=1 c=64 v=0
32378 Par ch=1 c=64 v=127
32379 Par ch=1 c=64 v=127
32475 Off ch=1 n=g#4 v=64
32482 Off ch=1 n=b4 v=64
32486 Off ch=1 n=f5 v=64
32493 Par ch=1 c=64 v=0
32507 On ch=1 n=g#4 v=28
32508 On ch=1 n=d6 v=40
32508 On ch=1 n=a#4 v=31
32516 Off ch=1 n=d#6 v=64
32520 On ch=1 n=f5 v=26
32527 Par ch=1 c=64 v=0
32531 Par ch=1 c=64 v=127
32570 Par ch=1 c=64 v=127
32670 Par ch=1 c=64 v=0
32680 Off ch=1 n=a#4 v=64
32685 Off ch=1 n=g#4 v=64
32685 Par ch=1 c=64 v=0
32691 On ch=1 n=a#6 v=63
32694 Off ch=1 n=f5 v=64
32705 Par ch=1 c=64 v=127
32717 Off ch=1 n=d6 v=64
32723 Par ch=1 c=64 v=127
32845 On ch=1 n=f5 v=32
32845 On ch=1 n=a#4 v=28
32845 On ch=1 n=g4 v=35
32854 Par ch=1 c=64 v=0
32862 Par ch=1 c=64 v=0
32897 Par ch=1 c=64 v=127
32897 Par ch=1 c=64 v=127
32995 Off ch=1 n=g4 v=64
32995 Off ch=1 n=a#4 v=64
32995 Off ch=1 n=f5 v=64
33014 On ch=1 n=c#6 v=41
33020 On ch=1 n=a#4 v=29
33026 On ch=1 n=g4 v=32
33027 On ch=1 n=e5 v=27
33036 Off ch=1 n=a#6 v=64
33046 Par ch=1 c=64 v=0
33089 Par ch=1 c=64 v=127
33176 Off ch=1 n=g4 v=64
33177 Par ch=1 c=64 v=0
33186 Off ch=1 n=a#4 v=64
33195 On ch=1 n=a6 v=55
33200 Off ch=1 n=e5 v=64
33204 Off ch=1 n=c#6 v=64
33207 Par ch=1 c=64 v=127
33346 On ch=1 n=g4 v=27
33348 On ch=1 n=e5 v=28
33348 On ch=1 n=a4 v=33
33357 Par ch=1 c=64 v=0
33369 Par ch=1 c=64 v=0
33399 Par ch=1 c=64 v=127
33402 Par ch=1 c=64 v=127
33496 Off ch=1 n=g4 v=64
33498 Off ch=1 n=a4 v=64
33498 Off ch=1 n=e5 v=64
33527 On ch=1 n=d#5 v=35
33531 On ch=1 n=a4 v=1
33532 On ch=1 n=c6 v=35
33532 On ch=1 n=f#4 v=28
33539 Off ch=1 n=a6 v=64
33549 Par ch=1 c=64 v=0
33594 Par ch=1 c=64 v=127
33680 Par ch=1 c=64 v=0
33685 Off ch=1 n=f#4 v=64
33693 Off ch=1 n=a4 v=64
33693 Off ch=1 n=d#5 v=64
33697 On ch=1 n=g#6 v=45
33726 Par ch=1 c=64 v=127
33728 Off ch=1 n=c6 v=64
33862 On ch=1 n=d#5 v=26
33862 On ch=1 n=g#4 v=31
33862 On ch=1 n=f4 v=31
33872 Par ch=1 c=64 v=0
33876 Par ch=1 c=64 v=0
33918 Par ch=1 c=64 v=127
33927 Par ch=1 c=64 v=127
34012 Off ch=1 n=f4 v=64
34012 Off ch=1 n=g#4 v=64
34012 Off ch=1 n=d#5 v=64
34030 On ch=1 n=b5 v=44
34045 Off ch=1 n=g#6 v=64
34045 On ch=1 n=g#4 v=26
34051 On ch=1 n=f4 v=26
34052 On ch=1 n=d5 v=28
34068 Par ch=1 c=64 v=0
34119 Par ch=1 c=64 v=127
34184 Off ch=1 n=f4 v=64
34196 Off ch=1 n=g#4 v=64
34203 On ch=1 n=g6 v=46
34212 Off ch=1 n=d5 v=64
34217 Par ch=1 c=64 v=0
34219 Off ch=1 n=b5 v=64
34266 Par ch=1 c=64 v=127
34387 On ch=1 n=d5 v=26
34387 On ch=1 n=g4 v=28
34387 On ch=1 n=e4 v=24
34409 Par ch=1 c=64 v=0
34450 Par ch=1 c=64 v=0
34458 Par ch=1 c=64 v=127
34483 Par ch=1 c=64 v=127
34500 On ch=1 n=a#5 v=42
34525 Off ch=1 n=g6 v=64
34577 Off ch=1 n=e4 v=64
34577 Off ch=1 n=g4 v=64
34577 Off ch=1 n=d5 v=64
34619 On ch=1 n=e4 v=24
34622 On ch=1 n=a5 v=36
34628 Off ch=1 n=a#5 v=64
34628 On ch=1 n=c#5 v=23
34632 On ch=1 n=g4 v=24
34642 Par ch=1 c=64 v=0
34656 Par ch=1 c=64 v=0
34675 Par ch=1 c=64 v=127
34689 Par ch=1 c=64 v=127
34703 Off ch=1 n=e4 v=64
34711 Off ch=1 n=g4 v=64
34719 On ch=1 n=e6 v=41
34725 Off ch=1 n=a5 v=64
34727 Off ch=1 n=c#5 v=64
34818 On ch=1 n=f6 v=41
34823 Par ch=1 c=64 v=0
34833 Off ch=1 n=e6 v=64
34835 On ch=1 n=d5 v=31
34835 On ch=1 n=f4 v=27
34841 On ch=1 n=d4 v=29
34842 Par ch=1 c=64 v=127
34848 Par ch=1 c=64 v=0
34881 Par ch=1 c=64 v=127
34920 On ch=1 n=e6 v=52
34950 Off ch=1 n=f6 v=64
34985 Off ch=1 n=f4 v=64
34985 Off ch=1 n=d5 v=64
34991 Off ch=1 n=d4 v=64
34995 Par ch=1 c=64 v=0
35006 On ch=1 n=d6 v=52
35007 On ch=1 n=d5 v=33
35011 On ch=1 n=a4 v=23
35014 On ch=1 n=f5 v=35
35015 Par ch=1 c=64 v=0
35019 Par ch=1 c=64 v=127
35024 Off ch=1 n=e6 v=64
35034 Par ch=1 c=64 v=127
35153 Par ch=1 c=64 v=0
35157 Off ch=1 n=d5 v=64
35161 Off ch=1 n=a4 v=64
35164 Off ch=1 n=f5 v=64
35174 On ch=1 n=d5 v=27
35174 On ch=1 n=a4 v=32
35178 On ch=1 n=f6 v=52
35178 On ch=1 n=f5 v=27
35187 Par ch=1 c=64 v=0
35197 Off ch=1 n=d6 v=64
35202 Par ch=1 c=64 v=127
35211 Par ch=1 c=64 v=127
35335 Off ch=1 n=f6 v=64
35345 Par ch=1 c=64 v=0
35355 On ch=1 n=f6 v=55
35367 Off ch=1 n=a4 v=64
35368 Off ch=1 n=f5 v=64
35379 Off ch=1 n=d5 v=64
35394 Par ch=1 c=64 v=127
35513 On ch=1 n=f5 v=36
35517 On ch=1 n=c5 v=37
35520 Par ch=1 c=64 v=0
35521 On ch=1 n=a4 v=35
35554 Par ch=1 c=64 v=127
35663 Off ch=1 n=f5 v=64
35667 Off ch=1 n=c5 v=64
35671 Off ch=1 n=a4 v=64
35693 On ch=1 n=e6 v=41
35696 On ch=1 n=e5 v=28
35696 On ch=1 n=c5 v=27
35701 On ch=1 n=a4 v=28
35712 Off ch=1 n=f6 v=64
35712 Par ch=1 c=64 v=0
35746 Par ch=1 c=64 v=127
35802 Off ch=1 n=e6 v=64
35818 Par ch=1 c=64 v=0
35838 On ch=1 n=d6 v=41
35850 Off ch=1 n=e5 v=64
35853 Off ch=1 n=c5 v=64
35860 Off ch=1 n=a4 v=64
35868 Par ch=1 c=64 v=127
35886 On ch=1 n=e6 v=36
35909 Off ch=1 n=d6 v=64
35919 On ch=1 n=d6 v=41
35934 Off ch=1 n=e6 v=64
35973 On ch=1 n=c#6 v=49
35992 Off ch=1 n=d6 v=64
35999 On ch=1 n=g#4 v=27
36003 On ch=1 n=e4 v=18
36004 Par ch=1 c=64 v=0
36004 On ch=1 n=d5 v=27
36010 Par ch=1 c=64 v=0
36027 On ch=1 n=d6 v=45
36031 Par ch=1 c=64 v=127
36045 Off ch=1 n=c#6 v=64
36060 Par ch=1 c=64 v=127
36106 On ch=1 n=d#6 v=46
36127 Off ch=1 n=d6 v=64
36139 Off ch=1 n=g#4 v=64
36143 Off ch=1 n=e4 v=64
36144 Off ch=1 n=d5 v=64
36176 On ch=1 n=g#4 v=18
36181 On ch=1 n=d5 v=22
36183 On ch=1 n=e4 v=23
36193 Par ch=1 c=64 v=0
36199 On ch=1 n=e6 v=39
36220 Par ch=1 c=64 v=127
36226 Off ch=1 n=d#6 v=64
36279 On ch=1 n=b5 v=41
36324 Off ch=1 n=e6 v=64
36336 Off ch=1 n=b5 v=64
36374 Off ch=1 n=e4 v=64
36382 On ch=1 n=d6 v=44
36394 Off ch=1 n=g#4 v=64
36423 Off ch=1 n=d5 v=64
36469 Par ch=1 c=64 v=0
36515 Par ch=1 c=64 v=127
36629 On ch=1 n=a4 v=22
36636 On ch=1 n=d5 v=22
36638 On ch=1 n=f4 v=22
36661 Par ch=1 c=64 v=0
36707 Par ch=1 c=64 v=127
36792 Par ch=1 c=64 v=0
36824 Off ch=1 n=a4 v=64
36831 Off ch=1 n=d5 v=64
36833 Off ch=1 n=f4 v=64
36839 Par ch=1 c=64 v=127
36934 On ch=1 n=c6 v=32
36944 On ch=1 n=a4 v=26
36951 On ch=1 n=c5 v=27
36951 On ch=1 n=f4 v=20
36959 Off ch=1 n=d6 v=64
36984 Par ch=1 c=64 v=0
37031 Par ch=1 c=64 v=127
37123 Off ch=1 n=a4 v=64
37172 Off ch=1 n=f4 v=64
37184 Off ch=1 n=c6 v=64
37188 On ch=1 n=a5 v=48
37194 Off ch=1 n=c5 v=64
37196 Par ch=1 c=64 v=0
37238 Par ch=1 c=64 v=127
37254 On ch=1 n=a#5 v=59
37271 Off ch=1 n=a5 v=64
37320 On ch=1 n=a5 v=45
37337 Off ch=1 n=a#5 v=64
37371 On ch=1 n=d#5 v=41
37378 On ch=1 n=g5 v=52
37380 On ch=1 n=f4 v=33
37381 On ch=1 n=c5 v=32
37388 Par ch=1 c=64 v=0
37404 Off ch=1 n=a5 v=64
37430 Par ch=1 c=64 v=127
37457 Par ch=1 c=64 v=0
37472 Par ch=1 c=64 v=127
37561 Off ch=1 n=d#5 v=64
37570 Off ch=1 n=f4 v=64
37571 Off ch=1 n=c5 v=64
37611 On ch=1 n=a5 v=52
37619 On ch=1 n=d#5 v=32
37621 On ch=1 n=f4 v=28
37626 On ch=1 n=c5 v=31
37644 Off ch=1 n=g5 v=64
37649 Par ch=1 c=64 v=0
37664 Par ch=1 c=64 v=127
37752 Par ch=1 c=64 v=0
37804 Par ch=1 c=64 v=127
37809 Off ch=1 n=d#5 v=64
37811 Off ch=1 n=f4 v=64
37816 Off ch=1 n=c5 v=64
37899 On ch=1 n=a#5 v=48
37906 On ch=1 n=a#4 v=32
37907 On ch=1 n=d5 v=36
37921 Off ch=1 n=a5 v=64
37944 Par ch=1 c=64 v=0
37996 Par ch=1 c=64 v=127
38155 Par ch=1 c=64 v=0
38206 Par ch=1 c=64 v=127
38286 On ch=1 n=d6 v=41
38295 On ch=1 n=f5 v=23
38305 Off ch=1 n=a#5 v=64
38347 Par ch=1 c=64 v=0
38357 Off ch=1 n=d5 v=64
38395 Par ch=1 c=64 v=127
38583 Off ch=1 n=a#4 v=64
38648 Par ch=1 c=64 v=0
38686 Par ch=1 c=64 v=127
38700 Off ch=1 n=f5 v=64
38712 Off ch=1 n=d6 v=64
38817 On ch=1 n=a5 v=45
38840 Par ch=1 c=64 v=0
38842 Par ch=1 c=64 v=0
38864 Par ch=1 c=64 v=127
38878 Par ch=1 c=64 v=127
38958 On ch=1 n=g#5 v=49
38967 Off ch=1 n=a5 v=64
39003 On ch=1 n=e5 v=46
39011 On ch=1 n=e4 v=52
39014 On ch=1 n=d5 v=53
39017 On ch=1 n=b4 v=49
39018 Off ch=1 n=g#5 v=64
39019 Par ch=1 c=64 v=0
39034 Par ch=1 c=64 v=0
39044 Par ch=1 c=64 v=127
39056 Par ch=1 c=64 v=127
39161 Off ch=1 n=e4 v=64
39164 Off ch=1 n=d5 v=64
39167 Off ch=1 n=b4 v=64
39189 On ch=1 n=g#5 v=55
39196 On ch=1 n=e4 v=46
39198 On ch=1 n=d5 v=55
39203 On ch=1 n=b4 v=41
39205 Off ch=1 n=e5 v=64
39211 Par ch=1 c=64 v=0
39211 Par ch=1 c=64 v=0
39236 Par ch=1 c=64 v=127
39242 Par ch=1 c=64 v=127
39346 Off ch=1 n=e4 v=64
39348 Off ch=1 n=d5 v=64
39353 Off ch=1 n=b4 v=64
39386 On ch=1 n=a5 v=61
39398 Off ch=1 n=g#5 v=64
39403 Par ch=1 c=64 v=0
39434 Par ch=1 c=64 v=127
39570 On ch=1 n=a3 v=35
39573 On ch=1 n=a4 v=28
39581 On ch=1 n=c#5 v=39
39583 On ch=1 n=e5 v=41
39720 Off ch=1 n=a3 v=64
39723 Off ch=1 n=a4 v=64
39726 Off ch=1 n=c#5 v=64
39728 Off ch=1 n=e5 v=64
39757 On ch=1 n=c#5 v=39
39763 Off ch=1 n=a5 v=64
39764 On ch=1 n=a3 v=29
39765 On ch=1 n=e5 v=39
39769 On ch=1 n=a4 v=28
39902 Off ch=1 n=c#5 v=64
39910 Off ch=1 n=e5 v=64
39945 On ch=1 n=g5 v=46
39947 On ch=1 n=c#6 v=52
39993 Off ch=1 n=g5 v=64
39997 Off ch=1 n=c#6 v=64
40074 On ch=1 n=g5 v=39
40076 On ch=1 n=c#6 v=48
40109 Off ch=1 n=g5 v=64
40132 On ch=1 n=d6 v=52
40133 Off ch=1 n=c#6 v=64
40134 On ch=1 n=f#5 v=50
40134 Par ch=1 c=64 v=0
40141 On ch=1 n=d4 v=48
40147 Off ch=1 n=a4 v=64
40161 Par ch=1 c=64 v=127
40164 Off ch=1 n=a3 v=64
40281 Off ch=1 n=f#5 v=64
40293 Off ch=1 n=d6 v=64
40316 On ch=1 n=b5 v=45
40316 On ch=1 n=f5 v=39
40316 On ch=1 n=d3 v=52
40323 Par ch=1 c=64 v=0
40326 Par ch=1 c=64 v=0
40331 Off ch=1 n=d4 v=64
40353 Par ch=1 c=64 v=127
40358 Par ch=1 c=64 v=127
40490 On ch=1 n=g#5 v=50
40493 Off ch=1 n=f5 v=64
40493 Off ch=1 n=b5 v=64
40498 On ch=1 n=e3 v=46
40503 On ch=1 n=d5 v=46
40507 Par ch=1 c=64 v=0
40515 Par ch=1 c=64 v=0
40531 Off ch=1 n=d3 v=64
40550 Par ch=1 c=64 v=127
40557 Par ch=1 c=64 v=127
40591 Off ch=1 n=d5 v=64
40632 Off ch=1 n=g#5 v=64
40638 On ch=1 n=e5 v=36
40678 On ch=1 n=a5 v=46
40678 On ch=1 n=c#5 v=46
40678 On ch=1 n=a3 v=45
40699 Par ch=1 c=64 v=0
40704 Off ch=1 n=e5 v=64
40713 Off ch=1 n=e3 v=64
40749 Par ch=1 c=64 v=127
40784 Off ch=1 n=c#5 v=64
40802 Off ch=1 n=a5 v=64
40864 Par ch=1 c=64 v=0
40874 On ch=1 n=e4 v=36
40893 Off ch=1 n=a3 v=64
40905 Par ch=1 c=64 v=127
40959 On ch=1 n=b5 v=37
40961 On ch=1 n=g#5 v=45
41048 Par ch=1 c=64 v=0
41056 On ch=1 n=c#6 v=46
41056 Par ch=1 c=64 v=0
41061 On ch=1 n=a4 v=46
41066 Off ch=1 n=g#5 v=64
41066 On ch=1 n=g5 v=50
41077 Off ch=1 n=e4 v=64
41079 Off ch=1 n=b5 v=64
41080 Par ch=1 c=64 v=127
41097 Par ch=1 c=64 v=127
41138 Off ch=1 n=c#6 v=64
41185 Off ch=1 n=g5 v=64
41193 On ch=1 n=e6 v=36
41240 Par ch=1 c=64 v=0
41240 On ch=1 n=d6 v=44
41240 Par ch=1 c=64 v=0
41249 On ch=1 n=f#5 v=57
41253 On ch=1 n=d4 v=49
41256 Off ch=1 n=e6 v=64
41272 Par ch=1 c=64 v=127
41276 Off ch=1 n=a4 v=64
41280 Par ch=1 c=64 v=127
41341 Off ch=1 n=f#5 v=64
41397 Off ch=1 n=d6 v=64
41424 On ch=1 n=d3 v=39
41429 On ch=1 n=b5 v=46
41429 On ch=1 n=f5 v=41
41432 Par ch=1 c=64 v=0
41433 Par ch=1 c=64 v=0
41467 Par ch=1 c=64 v=127
41468 Off ch=1 n=d4 v=64
41472 Par ch=1 c=64 v=127
41606 Off ch=1 n=f5 v=64
41606 Off ch=1 n=b5 v=64
41608 On ch=1 n=g#5 v=48
41610 Par ch=1 c=64 v=0
41610 On ch=1 n=d5 v=36
41616 On ch=1 n=e3 v=50
41625 Par ch=1 c=64 v=0
41639 Off ch=1 n=d3 v=64
41659 Par ch=1 c=64 v=127
41666 Par ch=1 c=64 v=127
41668 On ch=1 n=f#5 v=45
41673 Off ch=1 n=g#5 v=64
41689 Off ch=1 n=d5 v=64
41727 On ch=1 n=e5 v=37
41737 Off ch=1 n=f#5 v=64
41792 On ch=1 n=a5 v=50
41793 On ch=1 n=c#5 v=49
41798 On ch=1 n=a3 v=36
41802 Par ch=1 c=64 v=0
41812 Off ch=1 n=e5 v=64
41831 Off ch=1 n=e3 v=64
41858 Par ch=1 c=64 v=127
41962 Par ch=1 c=64 v=0
41964 On ch=1 n=e4 v=42
41969 Off ch=1 n=a5 v=64
41970 Off ch=1 n=c#5 v=64
42006 Par ch=1 c=64 v=127
42013 Off ch=1 n=a3 v=64
42061 On ch=1 n=b5 v=28
42064 On ch=1 n=g#5 v=31
42104 Off ch=1 n=b5 v=64
42128 Off ch=1 n=g#5 v=64
42154 Par ch=1 c=64 v=0
42163 On ch=1 n=c#6 v=53
42163 On ch=1 n=g5 v=57
42168 On ch=1 n=a4 v=44
42171 Par ch=1 c=64 v=0
42175 Off ch=1 n=e4 v=64
42189 Off ch=1 n=c#6 v=64
42191 Par ch=1 c=64 v=127
42195 Off ch=1 n=g5 v=64
42198 Par ch=1 c=64 v=127
42232 On ch=1 n=g5 v=50
42237 On ch=1 n=c#6 v=53
42264 Off ch=1 n=g5 v=64
42266 Off ch=1 n=c#6 v=64
42289 On ch=1 n=c#6 v=50
42297 On ch=1 n=g5 v=45
42327 Off ch=1 n=g5 v=64
42327 Off ch=1 n=c#6 v=64
42363 Par ch=1 c=64 v=0
42367 On ch=1 n=d6 v=54
42370 Par ch=1 c=64 v=0
42370 On ch=1 n=f#5 v=58
42373 Off ch=1 n=a4 v=64
42380 On ch=1 n=d4 v=46
42383 Par ch=1 c=64 v=127
42392 Par ch=1 c=64 v=127
42448 Off ch=1 n=f#5 v=64
42526 Off ch=1 n=d6 v=64
42549 On ch=1 n=b5 v=52
42553 On ch=1 n=f5 v=50
42553 On ch=1 n=d3 v=41
42562 Par ch=1 c=64 v=0
42584 Par ch=1 c=64 v=127
42588 Off ch=1 n=b5 v=64
42595 Off ch=1 n=d4 v=64
42605 Off ch=1 n=f5 v=64
42721 On ch=1 n=d5 v=36
42727 On ch=1 n=g#5 v=53
42739 Par ch=1 c=64 v=0
42740 On ch=1 n=e3 v=41
42751 Off ch=1 n=d5 v=64
42768 Off ch=1 n=d3 v=64
42769 Off ch=1 n=g#5 v=64
42783 Par ch=1 c=64 v=127
42785 On ch=1 n=d5 v=37
42786 On ch=1 n=f#5 v=59
42837 Off ch=1 n=f#5 v=64
42839 Off ch=1 n=d5 v=64
42849 On ch=1 n=d5 v=37
42853 On ch=1 n=e5 v=50
42899 Off ch=1 n=e5 v=64
42903 Off ch=1 n=d5 v=64
42919 On ch=1 n=a5 v=52
42919 On ch=1 n=c#5 v=58
42923 On ch=1 n=a3 v=37
42931 Par ch=1 c=64 v=0
42955 Off ch=1 n=e3 v=64
42975 Par ch=1 c=64 v=127
43035 Off ch=1 n=c#5 v=64
43039 Off ch=1 n=a5 v=64
43089 Par ch=1 c=64 v=0
43100 On ch=1 n=e4 v=41
43109 Par ch=1 c=64 v=127
43138 Off ch=1 n=a3 v=64
43181 On ch=1 n=g#5 v=46
43183 On ch=1 n=b5 v=50
43220 Off ch=1 n=b5 v=64
43226 Off ch=1 n=g#5 v=64
43281 On ch=1 n=g5 v=48
43281 Par ch=1 c=64 v=0
43288 On ch=1 n=c#6 v=65
43288 On ch=1 n=a4 v=48
43298 Par ch=1 c=64 v=127
43301 Off ch=1 n=g5 v=64
43312 Off ch=1 n=e4 v=64
43313 Par ch=1 c=64 v=0
43320 Off ch=1 n=c#6 v=64
43327 Par ch=1 c=64 v=127
43357 On ch=1 n=d6 v=52
43358 On ch=1 n=g5 v=42
43392 Off ch=1 n=g5 v=64
43411 Off ch=1 n=d6 v=64
43422 On ch=1 n=e6 v=57
43426 On ch=1 n=g5 v=50
43472 Off ch=1 n=e6 v=64
43477 Off ch=1 n=g5 v=64
43495 On ch=1 n=f#5 v=62
43496 On ch=1 n=d6 v=52
43500 Off ch=1 n=a4 v=64
43505 On ch=1 n=d4 v=45
43505 Par ch=1 c=64 v=0
43510 Par ch=1 c=64 v=0
43519 Par ch=1 c=64 v=127
43548 Par ch=1 c=64 v=127
43573 Off ch=1 n=d6 v=64
43577 Off ch=1 n=f#5 v=64
43682 On ch=1 n=f5 v=50
43688 On ch=1 n=b5 v=45
43695 Par ch=1 c=64 v=0
43699 On ch=1 n=d3 v=29
43702 Par ch=1 c=64 v=0
43713 Par ch=1 c=64 v=127
43715 Off ch=1 n=d4 v=64
43737 Off ch=1 n=b5 v=64
43740 Par ch=1 c=64 v=127
43747 Off ch=1 n=f5 v=64
43887 On ch=1 n=g#5 v=52
43887 Par ch=1 c=64 v=0
43892 On ch=1 n=d5 v=45
43892 On ch=1 n=e3 v=55
43895 Par ch=1 c=64 v=0
43905 Par ch=1 c=64 v=127
43914 Off ch=1 n=d3 v=64
43935 Off ch=1 n=d5 v=64
43947 On ch=1 n=f#5 v=59
43948 Par ch=1 c=64 v=127
43955 On ch=1 n=d5 v=35
43958 Off ch=1 n=g#5 v=64
44005 Off ch=1 n=d5 v=64
44005 Off ch=1 n=f#5 v=64
44015 On ch=1 n=e5 v=45
44015 On ch=1 n=d5 v=45
44061 Off ch=1 n=e5 v=64
44066 On ch=1 n=c#5 v=50
44069 Off ch=1 n=d5 v=64
44069 On ch=1 n=a5 v=53
44075 On ch=1 n=a3 v=45
44084 Par ch=1 c=64 v=0
44104 Off ch=1 n=e3 v=64
44137 Par ch=1 c=64 v=127
44226 Off ch=1 n=c#5 v=64
44240 Off ch=1 n=a5 v=64
44273 On ch=1 n=a4 v=49
44283 Par ch=1 c=64 v=0
44290 Off ch=1 n=a3 v=64
44322 Par ch=1 c=64 v=127
44455 On ch=1 n=c#5 v=61
44458 On ch=1 n=c#6 v=63
44458 On ch=1 n=f#4 v=55
44459 On ch=1 n=a5 v=54
44470 Par ch=1 c=64 v=0
44475 Par ch=1 c=64 v=0
44485 Off ch=1 n=a4 v=64
44492 Off ch=1 n=a5 v=64
44500 Par ch=1 c=64 v=127
44507 Off ch=1 n=c#6 v=64
44507 Off ch=1 n=c#5 v=64
44511 Par ch=1 c=64 v=127
44575 On ch=1 n=c#6 v=61
44576 On ch=1 n=a5 v=54
44579 On ch=1 n=c#5 v=53
44607 Off ch=1 n=a5 v=64
44608 Off ch=1 n=c#6 v=64
44628 On ch=1 n=b5 v=66
44630 On ch=1 n=d6 v=57
44638 On ch=1 n=d5 v=67
44641 Off ch=1 n=c#5 v=64
44642 Par ch=1 c=64 v=0
44659 Par ch=1 c=64 v=0
44666 Par ch=1 c=64 v=127
44689 Off ch=1 n=b5 v=64
44692 Par ch=1 c=64 v=127
44820 On ch=1 n=b4 v=55
44824 On ch=1 n=g#5 v=59
44825 Off ch=1 n=d6 v=64
44827 On ch=1 n=b5 v=49
44834 Par ch=1 c=64 v=0
44854 Off ch=1 n=d5 v=64
44858 Par ch=1 c=64 v=127
44875 Off ch=1 n=g#5 v=64
44885 Off ch=1 n=b4 v=64
44895 Off ch=1 n=b5 v=64
44907 Off ch=1 n=f#4 v=64
44985 On ch=1 n=f#4 v=33
44997 Par ch=1 c=64 v=0
44998 On ch=1 n=c#6 v=57
44998 On ch=1 n=c#5 v=62
45003 On ch=1 n=a5 v=62
45044 Par ch=1 c=64 v=127
45051 Off ch=1 n=c#6 v=64
45057 On ch=1 n=g#5 v=57
45058 Off ch=1 n=a5 v=64
45058 On ch=1 n=b4 v=57
45061 Off ch=1 n=c#5 v=64
45061 On ch=1 n=b5 v=53
45103 Off ch=1 n=g#5 v=64
45117 On ch=1 n=a4 v=53
45119 On ch=1 n=a5 v=57
45121 On ch=1 n=f#5 v=59
45122 Off ch=1 n=b5 v=64
45130 Off ch=1 n=b4 v=64
45149 Off ch=1 n=f#5 v=64
45158 Off ch=1 n=a5 v=64
45181 On ch=1 n=d6 v=66
45181 On ch=1 n=b5 v=53
45188 On ch=1 n=d5 v=59
45189 Par ch=1 c=64 v=0
45205 Off ch=1 n=a4 v=64
45236 Par ch=1 c=64 v=127
45246 Off ch=1 n=b5 v=64
45369 Off ch=1 n=d6 v=64
45369 Par ch=1 c=64 v=0
45374 On ch=1 n=b5 v=55
45374 On ch=1 n=g#5 v=57
45374 On ch=1 n=b4 v=57
45405 Off ch=1 n=d5 v=64
45408 Par ch=1 c=64 v=127
45418 Off ch=1 n=g#5 v=64
45427 Off ch=1 n=b4 v=64
45429 Off ch=1 n=b5 v=64
45437 Off ch=1 n=f#4 v=64
45545 On ch=1 n=f#4 v=61
45546 On ch=1 n=c#6 v=62
45549 On ch=1 n=a5 v=66
45549 On ch=1 n=c#5 v=62
45560 Par ch=1 c=64 v=0
45561 Par ch=1 c=64 v=0
45573 Par ch=1 c=64 v=127
45592 Off ch=1 n=c#6 v=64
45594 Off ch=1 n=a5 v=64
45600 Par ch=1 c=64 v=127
45606 Off ch=1 n=c#5 v=64
45666 On ch=1 n=a5 v=61
45669 On ch=1 n=c#6 v=52
45676 On ch=1 n=c#5 v=59
45705 Off ch=1 n=a5 v=64
45708 Off ch=1 n=c#6 v=64
45734 On ch=1 n=d6 v=66
45734 On ch=1 n=b5 v=59
45743 On ch=1 n=d5 v=68
45747 Off ch=1 n=c#5 v=64
45752 Par ch=1 c=64 v=0
45762 Par ch=1 c=64 v=127
45785 Off ch=1 n=b5 v=64
45905 Par ch=1 c=64 v=0
45915 On ch=1 n=b5 v=59
45916 Off ch=1 n=d6 v=64
45919 On ch=1 n=b4 v=55
45921 On ch=1 n=g#5 v=63
45929 Par ch=1 c=64 v=127
45932 Off ch=1 n=d5 v=64
45967 Off ch=1 n=b4 v=64
45973 Off ch=1 n=g#5 v=64
45981 Off ch=1 n=b5 v=64
45997 Off ch=1 n=f#4 v=64
46045 Par ch=1 c=64 v=127
46079 On ch=1 n=f#4 v=46
46081 On ch=1 n=c#6 v=57
46081 On ch=1 n=a5 v=58
46081 On ch=1 n=c#5 v=63
46097 Par ch=1 c=64 v=0
46121 On ch=1 n=g#5 v=22
46121 Par ch=1 c=64 v=127
46123 On ch=1 n=b5 v=49
46123 On ch=1 n=b4 v=53
46140 Off ch=1 n=c#6 v=64
46145 Off ch=1 n=a5 v=64
46165 Off ch=1 n=c#5 v=64
46181 On ch=1 n=a5 v=59
46181 On ch=1 n=f#5 v=62
46181 On ch=1 n=a4 v=57
46207 Off ch=1 n=g#5 v=64
46208 Off ch=1 n=f#4 v=64
46209 Off ch=1 n=b4 v=64
46209 Off ch=1 n=b5 v=64
46237 Par ch=1 c=64 v=127
46243 On ch=1 n=f#7 v=94
46243 On ch=1 n=f#6 v=62
46243 On ch=1 n=f#4 v=68
46243 On ch=1 n=f#3 v=62
46341 Off ch=1 n=a4 v=64
46341 Off ch=1 n=f#5 v=64
46341 Off ch=1 n=a5 v=64
46395 Off ch=1 n=f#3 v=64
46395 Off ch=1 n=f#4 v=64
46395 Off ch=1 n=f#6 v=64
46395 Off ch=1 n=f#7 v=64
46453 Par ch=1 c=64 v=0
46475 On ch=1 n=f#6 v=55
46477 On ch=1 n=f#7 v=91
46477 On ch=1 n=f#3 v=68
46478 On ch=1 n=f#4 v=58
46487 Par ch=1 c=64 v=127
46631 Par ch=1 c=64 v=0
46655 Off ch=1 n=f#6 v=64
46657 Off ch=1 n=f#3 v=64
46657 Off ch=1 n=f#7 v=64
46658 Off ch=1 n=f#4 v=64
46677 Par ch=1 c=64 v=127
46687 On ch=1 n=c#6 v=63
46687 On ch=1 n=c#5 v=57
46687 On ch=1 n=f#4 v=57
46688 On ch=1 n=a5 v=61
46705 Par ch=1 c=64 v=0
46730 Off ch=1 n=a5 v=64
46733 Off ch=1 n=c#6 v=64
46738 Off ch=1 n=c#5 v=64
46739 Par ch=1 c=64 v=127
46814 On ch=1 n=c#5 v=50
46819 On ch=1 n=a5 v=55
46823 On ch=1 n=c#6 v=50
46852 On ch=1 n=d6 v=57
46858 Off ch=1 n=c#6 v=64
46865 On ch=1 n=d5 v=66
46869 On ch=1 n=b5 v=52
46875 Off ch=1 n=c#5 v=64
46880 Off ch=1 n=a5 v=64
46883 Par ch=1 c=64 v=0
46922 Off ch=1 n=b5 v=64
46929 Par ch=1 c=64 v=127
47056 On ch=1 n=b5 v=57
47056 On ch=1 n=b4 v=61
47057 On ch=1 n=g#5 v=57
47064 Off ch=1 n=d6 v=64
47081 Off ch=1 n=d5 v=64
47101 Off ch=1 n=g#5 v=64
47109 Off ch=1 n=b5 v=64
47116 Off ch=1 n=b4 v=64
47142 Off ch=1 n=f#4 v=64
47184 Par ch=1 c=64 v=0
47222 Par ch=1 c=64 v=127
47238 On ch=1 n=c#6 v=62
47238 On ch=1 n=a5 v=62
47238 On ch=1 n=c#5 v=66
47238 On ch=1 n=f#4 v=55
47279 On ch=1 n=g#5 v=57
47285 Off ch=1 n=a5 v=64
47291 Off ch=1 n=c#6 v=64
47297 On ch=1 n=b4 v=57
47305 On ch=1 n=b5 v=50
47309 Off ch=1 n=c#5 v=64
47326 Off ch=1 n=g#5 v=64
47353 On ch=1 n=a5 v=53
47356 On ch=1 n=f#5 v=66
47358 Off ch=1 n=b5 v=64
47374 Off ch=1 n=b4 v=64
47374 On ch=1 n=a4 v=52
47384 Off ch=1 n=f#5 v=64
47394 Off ch=1 n=a5 v=64
47414 On ch=1 n=d6 v=63
47419 On ch=1 n=d5 v=66
47421 On ch=1 n=b5 v=62
47433 Par ch=1 c=64 v=0
47443 Off ch=1 n=a4 v=64
47471 Par ch=1 c=64 v=127
47477 Off ch=1 n=b5 v=64
47596 Off ch=1 n=d6 v=64
47600 On ch=1 n=g#5 v=62
47606 On ch=1 n=b4 v=54
47607 On ch=1 n=b5 v=61
47636 Off ch=1 n=g#5 v=64
47640 Off ch=1 n=b5 v=64
47646 Off ch=1 n=d5 v=64
47727 Off ch=1 n=b4 v=64
47772 On ch=1 n=c#5 v=50
47776 On ch=1 n=a5 v=55
47778 On ch=1 n=c#6 v=57
47798 Par ch=1 c=64 v=0
47871 Off ch=1 n=c#5 v=64
47876 On ch=1 n=d#6 v=59
47882 On ch=1 n=b4 v=40
47891 Off ch=1 n=c#6 v=64
47911 Par ch=1 c=64 v=127
47923 Off ch=1 n=a5 v=64
47993 On ch=1 n=e6 v=59
47993 On ch=1 n=g#5 v=63
47999 On ch=1 n=e4 v=52
48007 Off ch=1 n=d#6 v=64
48019 Off ch=1 n=f#4 v=64
48050 Par ch=1 c=64 v=0
48163 Par ch=1 c=64 v=127
48232 Off ch=1 n=b4 v=64
48248 Off ch=1 n=g#5 v=64
48300 Off ch=1 n=e6 v=64
48378 On ch=1 n=c#6 v=53
48378 On ch=1 n=a5 v=52
48386 On ch=1 n=c#5 v=49
48444 Par ch=1 c=64 v=0
48484 On ch=1 n=d#6 v=36
48489 On ch=1 n=b4 v=36
48498 Off ch=1 n=c#6 v=64
48500 Off ch=1 n=a5 v=64
48507 Off ch=1 n=c#5 v=64
48577 Par ch=1 c=64 v=127
48604 Off ch=1 n=e4 v=64
48616 Off ch=1 n=d#6 v=64
48619 On ch=1 n=f#6 v=54
48626 On ch=1 n=g#5 v=40
48628 On ch=1 n=e4 v=26
48684 On ch=1 n=e6 v=52
48687 Off ch=1 n=f#6 v=64
48696 Par ch=1 c=64 v=0
48829 Par ch=1 c=64 v=127
48862 Off ch=1 n=e6 v=64
48973 Off ch=1 n=b4 v=64
49017 Par ch=1 c=64 v=0
49063 Par ch=1 c=64 v=127
49094 On ch=1 n=d6 v=41
49119 Off ch=1 n=g#5 v=64
49221 Par ch=1 c=64 v=0
49233 Off ch=1 n=e4 v=64
49253 On ch=1 n=c#6 v=50
49257 Off ch=1 n=d6 v=64
49257 On ch=1 n=g5 v=46
49262 On ch=1 n=a4 v=49
49266 Par ch=1 c=64 v=127
49269 Par ch=1 c=64 v=0
49309 Off ch=1 n=g5 v=64
49315 Par ch=1 c=64 v=127
49322 Off ch=1 n=c#6 v=64
49392 On ch=1 n=c#6 v=45
49398 On ch=1 n=g5 v=36
49426 Off ch=1 n=g5 v=64
49449 On ch=1 n=d6 v=50
49455 On ch=1 n=f#5 v=45
49457 Off ch=1 n=c#6 v=64
49471 On ch=1 n=d4 v=27
49473 Par ch=1 c=64 v=0
49477 Off ch=1 n=a4 v=64
49518 Par ch=1 c=64 v=127
49609 Off ch=1 n=f#5 v=64
49623 Off ch=1 n=d6 v=64
49632 Par ch=1 c=64 v=0
49655 On ch=1 n=b5 v=52
49657 On ch=1 n=f5 v=50
49667 On ch=1 n=d3 v=45
49676 Par ch=1 c=64 v=127
49686 Off ch=1 n=d4 v=64
49700 Off ch=1 n=b5 v=64
49722 Off ch=1 n=f5 v=64
49810 Par ch=1 c=64 v=0
49831 Par ch=1 c=64 v=127
49860 On ch=1 n=d5 v=49
49864 On ch=1 n=g#5 v=53
49869 On ch=1 n=e3 v=46
49879 Off ch=1 n=d3 v=64
49881 Par ch=1 c=64 v=0
49925 Par ch=1 c=64 v=127
49994 Off ch=1 n=d5 v=64
49999 On ch=1 n=e5 v=41
50006 Off ch=1 n=g#5 v=64
50042 On ch=1 n=a5 v=46
50053 On ch=1 n=c#5 v=58
50058 On ch=1 n=a3 v=32
50059 Par ch=1 c=64 v=0
50069 Off ch=1 n=e5 v=64
50080 Par ch=1 c=64 v=127
50081 Off ch=1 n=e3 v=64
50187 Off ch=1 n=a5 v=64
50194 Off ch=1 n=c#5 v=64
50196 Par ch=1 c=64 v=0
50231 Par ch=1 c=64 v=127
50246 On ch=1 n=e4 v=44
50273 Off ch=1 n=a3 v=64
50331 On ch=1 n=b5 v=52
50331 On ch=1 n=g#5 v=52
50382 Par ch=1 c=64 v=0
50404 Par ch=1 c=64 v=127
50425 On ch=1 n=c#6 v=46
50432 On ch=1 n=g5 v=46
50432 On ch=1 n=a4 v=50
50439 Off ch=1 n=g#5 v=64
50448 Par ch=1 c=64 v=0
50454 Off ch=1 n=b5 v=64
50461 Off ch=1 n=e4 v=64
50483 Par ch=1 c=64 v=127
50498 Off ch=1 n=c#6 v=64
50541 Off ch=1 n=g5 v=64
50561 Par ch=1 c=64 v=0
50572 On ch=1 n=e6 v=45
50595 Par ch=1 c=64 v=127
50605 On ch=1 n=d4 v=46
50613 On ch=1 n=d6 v=49
50620 On ch=1 n=f#5 v=50
50628 Off ch=1 n=e6 v=64
50634 Par ch=1 c=64 v=0
50644 Off ch=1 n=a4 v=64
50653 Par ch=1 c=64 v=127
50729 Off ch=1 n=f#5 v=64
50756 Par ch=1 c=64 v=0
50767 Off ch=1 n=d6 v=64
50771 Par ch=1 c=64 v=127
50796 On ch=1 n=b5 v=49
50802 On ch=1 n=d3 v=36
50803 On ch=1 n=f5 v=46
50810 Par ch=1 c=64 v=0
50817 Off ch=1 n=d4 v=64
50841 Off ch=1 n=b5 v=64
50844 Par ch=1 c=64 v=127
50862 Off ch=1 n=f5 v=64
50938 Par ch=1 c=64 v=0
50975 Par ch=1 c=64 v=127
50994 On ch=1 n=g#5 v=50
50994 On ch=1 n=e3 v=52
50996 On ch=1 n=d5 v=49
51008 Par ch=1 c=64 v=0
51017 Off ch=1 n=d3 v=64
51023 Par ch=1 c=64 v=127
51046 On ch=1 n=f#5 v=46
51069 Off ch=1 n=g#5 v=64
51108 On ch=1 n=e5 v=39
51118 Off ch=1 n=f#5 v=64
51165 Off ch=1 n=d5 v=64
51171 On ch=1 n=a5 v=53
51175 On ch=1 n=a3 v=36
51178 On ch=1 n=c#5 v=57
51187 Par ch=1 c=64 v=0
51191 Off ch=1 n=e5 v=64
51206 Off ch=1 n=e3 v=64
51224 Par ch=1 c=64 v=127
51283 Par ch=1 c=64 v=0
51315 Par ch=1 c=64 v=127
51358 On ch=1 n=e4 v=48
51376 Off ch=1 n=a5 v=64
51384 Off ch=1 n=c#5 v=64
51390 Off ch=1 n=a3 v=64
51439 On ch=1 n=g#5 v=46
51441 On ch=1 n=b5 v=46
51475 Off ch=1 n=b5 v=64
51484 Off ch=1 n=g#5 v=64
51486 Par ch=1 c=64 v=0
51514 Par ch=1 c=64 v=127
51535 Par ch=1 c=64 v=0
51542 On ch=1 n=c#6 v=50
51545 On ch=1 n=g5 v=50
51548 On ch=1 n=a4 v=46
51567 Par ch=1 c=64 v=127
51571 Off ch=1 n=c#6 v=64
51573 Off ch=1 n=e4 v=64
51574 Off ch=1 n=g5 v=64
51611 On ch=1 n=c#6 v=46
51611 On ch=1 n=g5 v=45
51635 Off ch=1 n=g5 v=64
51640 Off ch=1 n=c#6 v=64
51663 On ch=1 n=g5 v=53
51671 On ch=1 n=c#6 v=46
51679 Par ch=1 c=64 v=0
51702 Off ch=1 n=c#6 v=64
51705 Par ch=1 c=64 v=127
51714 Off ch=1 n=g5 v=64
51738 Par ch=1 c=64 v=0
51744 On ch=1 n=d6 v=49
51744 On ch=1 n=f#5 v=52
51751 On ch=1 n=d4 v=50
51763 Off ch=1 n=a4 v=64
51766 Par ch=1 c=64 v=127
51872 Off ch=1 n=f#5 v=64
51905 Off ch=1 n=d6 v=64
51923 On ch=1 n=b5 v=49
51923 On ch=1 n=d3 v=46
51929 On ch=1 n=f5 v=49
51931 Par ch=1 c=64 v=0
51957 Par ch=1 c=64 v=127
51961 Off ch=1 n=b5 v=64
51966 Off ch=1 n=d4 v=64
51973 Off ch=1 n=f5 v=64
52055 Par ch=1 c=64 v=0
52087 Par ch=1 c=64 v=127
52096 On ch=1 n=g#5 v=46
52101 On ch=1 n=d5 v=45
52108 On ch=1 n=e3 v=46
52127 Off ch=1 n=d5 v=64
52134 Off ch=1 n=g#5 v=64
52138 Off ch=1 n=d3 v=64
52157 On ch=1 n=f#5 v=53
52166 On ch=1 n=d5 v=41
52186 Off ch=1 n=d5 v=64
52193 Off ch=1 n=f#5 v=64
52215 On ch=1 n=d5 v=41
52222 On ch=1 n=e5 v=45
52239 Off ch=1 n=d5 v=64
52259 Off ch=1 n=e5 v=64
52291 On ch=1 n=a3 v=46
52293 On ch=1 n=a5 v=49
52298 On ch=1 n=c#5 v=52
52307 Par ch=1 c=64 v=0
52323 Off ch=1 n=e3 v=64
52339 Par ch=1 c=64 v=127
52409 Off ch=1 n=c#5 v=64
52419 Off ch=1 n=a5 v=64
52471 On ch=1 n=e4 v=45
52503 Off ch=1 n=a3 v=64
52564 On ch=1 n=g#5 v=41
52568 On ch=1 n=b5 v=50
52596 Off ch=1 n=g#5 v=64
52604 Off ch=1 n=b5 v=64
52632 Par ch=1 c=64 v=0
52656 Par ch=1 c=64 v=127
52659 On ch=1 n=c#6 v=57
52665 On ch=1 n=a4 v=46
52668 On ch=1 n=g5 v=41
52686 Off ch=1 n=e4 v=64
52687 Off ch=1 n=g5 v=64
52690 Off ch=1 n=c#6 v=64
52731 On ch=1 n=g5 v=45
52736 On ch=1 n=d6 v=46
52755 Off ch=1 n=g5 v=64
52773 Off ch=1 n=d6 v=64
52796 On ch=1 n=g5 v=46
52801 On ch=1 n=e6 v=48
52825 Par ch=1 c=64 v=0
52847 Off ch=1 n=g5 v=64
52849 Off ch=1 n=e6 v=64
52863 Par ch=1 c=64 v=127
52870 On ch=1 n=d6 v=41
52870 On ch=1 n=f#5 v=54
52880 Off ch=1 n=a4 v=64
52884 Par ch=1 c=64 v=0
52889 On ch=1 n=d4 v=45
52908 Par ch=1 c=64 v=127
52969 Off ch=1 n=d6 v=64
52975 Off ch=1 n=f#5 v=64
53060 On ch=1 n=f5 v=45
53066 On ch=1 n=b5 v=49
53077 Par ch=1 c=64 v=0
53087 On ch=1 n=d3 v=26
53102 Off ch=1 n=d4 v=64
53112 Par ch=1 c=64 v=127
53194 Off ch=1 n=f5 v=64
53199 Off ch=1 n=b5 v=64
53208 Par ch=1 c=64 v=0
53260 Par ch=1 c=64 v=127
53276 On ch=1 n=g#5 v=46
53277 On ch=1 n=d5 v=46
53281 On ch=1 n=e3 v=39
53299 Off ch=1 n=d3 v=64
53319 Off ch=1 n=g#5 v=64
53335 On ch=1 n=f#5 v=58
53398 On ch=1 n=e5 v=41
53404 Off ch=1 n=f#5 v=64
53460 On ch=1 n=a5 v=50
53460 Par ch=1 c=64 v=0
53468 On ch=1 n=c#5 v=58
53469 On ch=1 n=a3 v=48
53474 Off ch=1 n=e5 v=64
53475 Off ch=1 n=d5 v=64
53496 Off ch=1 n=e3 v=64
53512 Par ch=1 c=64 v=127
53559 Par ch=1 c=64 v=0
53640 On ch=1 n=a4 v=46
53644 Par ch=1 c=64 v=127
53674 Off ch=1 n=a5 v=64
53680 Off ch=1 n=c#5 v=64
53684 Off ch=1 n=a3 v=64
53767 Par ch=1 c=64 v=0
53811 Par ch=1 c=64 v=0
53833 On ch=1 n=f#4 v=52
53834 On ch=1 n=c#6 v=61
53834 On ch=1 n=c#5 v=66
53836 Par ch=1 c=64 v=127
53839 On ch=1 n=a5 v=61
53855 Off ch=1 n=a4 v=64
53880 Off ch=1 n=a5 v=64
53886 Off ch=1 n=c#5 v=64
53889 Off ch=1 n=c#6 v=64
53896 Par ch=1 c=64 v=127
53961 On ch=1 n=c#6 v=52
53964 On ch=1 n=a5 v=57
53964 On ch=1 n=c#5 v=66
53993 Off ch=1 n=a5 v=64
53998 Off ch=1 n=c#6 v=64
54013 On ch=1 n=d6 v=62
54017 On ch=1 n=b5 v=57
54019 Par ch=1 c=64 v=0
54025 On ch=1 n=d5 v=72
54027 Off ch=1 n=c#5 v=64
54078 Off ch=1 n=b5 v=64
54088 Par ch=1 c=64 v=127
54142 Par ch=1 c=64 v=0
54169 Par ch=1 c=64 v=127
54213 On ch=1 n=b4 v=52
54216 On ch=1 n=b5 v=52
54216 On ch=1 n=g#5 v=62
54226 Off ch=1 n=d5 v=64
54226 Off ch=1 n=d6 v=64
54269 Off ch=1 n=g#5 v=64
54276 Off ch=1 n=b5 v=64
54279 Off ch=1 n=b4 v=64
54285 Off ch=1 n=f#4 v=64
54330 Par ch=1 c=64 v=0
54375 On ch=1 n=a5 v=62
54376 On ch=1 n=f#4 v=59
54376 Par ch=1 c=64 v=127
54377 On ch=1 n=c#6 v=61
54381 On ch=1 n=c#5 v=66
54391 Par ch=1 c=64 v=0
54418 Par ch=1 c=64 v=127
54432 On ch=1 n=g#5 v=67
54436 On ch=1 n=b4 v=62
54439 On ch=1 n=b5 v=57
54444 Off ch=1 n=c#6 v=64
54446 Off ch=1 n=a5 v=64
54451 Off ch=1 n=c#5 v=64
54475 Off ch=1 n=g#5 v=64
54496 On ch=1 n=a5 v=57
54502 Off ch=1 n=b5 v=64
54502 On ch=1 n=f#5 v=55
54512 On ch=1 n=a4 v=50
54515 Off ch=1 n=b4 v=64
54534 Off ch=1 n=a5 v=64
54544 Off ch=1 n=f#5 v=64
54554 On ch=1 n=d6 v=62
54560 On ch=1 n=d5 v=67
54561 On ch=1 n=b5 v=58
54571 Off ch=1 n=a4 v=64
54573 Par ch=1 c=64 v=0
54617 Off ch=1 n=b5 v=64
54619 Par ch=1 c=64 v=127
54689 Par ch=1 c=64 v=0
54728 Par ch=1 c=64 v=127
54747 On ch=1 n=g#5 v=59
54753 On ch=1 n=b4 v=61
54757 Off ch=1 n=d6 v=64
54757 On ch=1 n=b5 v=57
54780 Off ch=1 n=d5 v=64
54797 Off ch=1 n=g#5 v=64
54799 Off ch=1 n=b4 v=64
54809 Off ch=1 n=b5 v=64
54819 Off ch=1 n=f#4 v=64
54862 Par ch=1 c=64 v=0
54896 Par ch=1 c=64 v=127
54922 On ch=1 n=f#4 v=39
54925 On ch=1 n=a5 v=66
54925 On ch=1 n=c#5 v=57
54927 On ch=1 n=c#6 v=63
54938 Par ch=1 c=64 v=0
54969 Off ch=1 n=a5 v=64
54976 Off ch=1 n=c#6 v=64
54977 Par ch=1 c=64 v=127
54983 Off ch=1 n=c#5 v=64
55031 Par ch=1 c=64 v=0
55042 On ch=1 n=c#6 v=41
55048 On ch=1 n=c#5 v=62
55049 On ch=1 n=a5 v=53
55058 Par ch=1 c=64 v=127
55077 Off ch=1 n=c#6 v=64
55079 Off ch=1 n=a5 v=64
55102 On ch=1 n=d6 v=62
55102 On ch=1 n=b5 v=62
55107 Off ch=1 n=c#5 v=64
55111 On ch=1 n=d5 v=70
55114 Par ch=1 c=64 v=0
55148 Par ch=1 c=64 v=127
55166 Off ch=1 n=b5 v=64
55199 Par ch=1 c=64 v=0
55224 Par ch=1 c=64 v=127
55283 Par ch=1 c=64 v=0
55290 On ch=1 n=b5 v=62
55290 On ch=1 n=g#5 v=63
55295 On ch=1 n=b4 v=52
55297 Off ch=1 n=d6 v=64
55307 Off ch=1 n=d5 v=64
55310 Par ch=1 c=64 v=127
55337 Off ch=1 n=g#5 v=64
55346 Off ch=1 n=b5 v=64
55349 Off ch=1 n=b4 v=64
55377 Off ch=1 n=f#4 v=64
55446 On ch=1 n=f#4 v=59
55451 On ch=1 n=c#5 v=61
55451 Par ch=1 c=64 v=0
55454 On ch=1 n=a5 v=57
55457 On ch=1 n=c#6 v=52
55459 On ch=1 n=f#5 v=67
55476 Par ch=1 c=64 v=127
55510 Off ch=1 n=f#5 v=64
55510 On ch=1 n=g#5 v=45
55514 Off ch=1 n=c#6 v=64
55514 On ch=1 n=b4 v=36
55516 On ch=1 n=b5 v=52
55520 Off ch=1 n=c#5 v=64
55530 Off ch=1 n=a5 v=64
55552 Off ch=1 n=g#5 v=64
55558 On ch=1 n=a5 v=54
55558 On ch=1 n=f#5 v=52
55558 On ch=1 n=a4 v=40
55569 Off ch=1 n=b5 v=64
55572 Off ch=1 n=b4 v=64
55582 Off ch=1 n=f#4 v=64
55599 Off ch=1 n=f#5 v=64
55603 Off ch=1 n=a5 v=64
55609 Off ch=1 n=a4 v=64
55639 On ch=1 n=f#3 v=65
55645 On ch=1 n=f#7 v=102
55645 On ch=1 n=f#6 v=62
55647 On ch=1 n=f#4 v=68
55793 Par ch=1 c=64 v=0
55819 Off ch=1 n=f#3 v=64
55825 Off ch=1 n=f#6 v=64
55825 Off ch=1 n=f#7 v=64
55827 Off ch=1 n=f#4 v=64
55829 On ch=1 n=f#7 v=100
55829 On ch=1 n=f#6 v=62
55829 On ch=1 n=f#3 v=68
55831 On ch=1 n=f#4 v=67
55832 Par ch=1 c=64 v=127
56009 Off ch=1 n=f#3 v=64
56009 Off ch=1 n=f#6 v=64
56009 Off ch=1 n=f#7 v=64
56011 Off ch=1 n=f#4 v=64
56023 On ch=1 n=a5 v=66
56023 On ch=1 n=c#5 v=36
56023 On ch=1 n=f#4 v=58
56025 On ch=1 n=c#6 v=50
56045 Off ch=1 n=c#5 v=64
56045 Par ch=1 c=64 v=0
56064 Off ch=1 n=a5 v=64
56083 Off ch=1 n=c#6 v=64
56084 Par ch=1 c=64 v=127
56167 On ch=1 n=c#5 v=62
56168 On ch=1 n=c#6 v=53
56168 On ch=1 n=a5 v=70
56174 Par ch=1 c=64 v=0
56189 Par ch=1 c=64 v=127
56199 Off ch=1 n=a5 v=64
56199 Off ch=1 n=c#6 v=64
56211 Off ch=1 n=c#5 v=64
56220 On ch=1 n=d5 v=63
56224 On ch=1 n=d6 v=66
56224 On ch=1 n=b5 v=62
56273 Off ch=1 n=b5 v=64
56413 On ch=1 n=b5 v=62
56417 On ch=1 n=b4 v=57
56418 On ch=1 n=g#5 v=63
56426 Par ch=1 c=64 v=0
56431 Off ch=1 n=d6 v=64
56433 Off ch=1 n=d5 v=64
56441 Par ch=1 c=64 v=127
56478 Off ch=1 n=f#4 v=64
56508 Off ch=1 n=g#5 v=64
56536 Par ch=1 c=64 v=0
56546 Off ch=1 n=b4 v=64
56546 Off ch=1 n=b5 v=64
56573 Par ch=1 c=64 v=127
56587 On ch=1 n=c#6 v=62
56587 On ch=1 n=a5 v=63
56591 On ch=1 n=f#4 v=59
56594 On ch=1 n=c#5 v=62
56633 Off ch=1 n=c#6 v=64
56634 Off ch=1 n=a5 v=64
56644 On ch=1 n=g#5 v=55
56647 On ch=1 n=b4 v=52
56649 On ch=1 n=b5 v=62
56656 Off ch=1 n=c#5 v=64
56684 Off ch=1 n=g#5 v=64
56708 On ch=1 n=f#5 v=61
56708 On ch=1 n=a4 v=26
56710 On ch=1 n=a5 v=55
56716 Off ch=1 n=b5 v=64
56731 Off ch=1 n=b4 v=64
56748 Off ch=1 n=a5 v=64
56757 Off ch=1 n=a4 v=64
56767 Off ch=1 n=f#5 v=64
56768 On ch=1 n=d6 v=66
56777 On ch=1 n=b5 v=62
56777 On ch=1 n=d5 v=66
56785 Par ch=1 c=64 v=0
56822 Par ch=1 c=64 v=127
56841 Off ch=1 n=b5 v=64
56961 On ch=1 n=b4 v=50
56963 On ch=1 n=b5 v=58
56967 On ch=1 n=g#5 v=61
56974 Off ch=1 n=d6 v=64
56993 Off ch=1 n=d5 v=64
57035 Off ch=1 n=g#5 v=64
57106 Off ch=1 n=b4 v=64
57116 Off ch=1 n=b5 v=64
57138 On ch=1 n=c#6 v=61
57138 On ch=1 n=a5 v=63
57141 On ch=1 n=c#5 v=41
57166 Par ch=1 c=64 v=0
57176 Off ch=1 n=c#6 v=64
57237 Off ch=1 n=c#5 v=64
57237 On ch=1 n=b4 v=55
57243 On ch=1 n=d#6 v=66
57288 Off ch=1 n=f#4 v=64
57299 Off ch=1 n=a5 v=64
57317 Par ch=1 c=64 v=127
57362 Off ch=1 n=d#6 v=64
57372 On ch=1 n=g#5 v=63
57372 On ch=1 n=e4 v=36
57376 On ch=1 n=e6 v=57
57418 Par ch=1 c=64 v=0
57569 Par ch=1 c=64 v=127
57589 Par ch=1 c=64 v=0
57612 Par ch=1 c=64 v=127
57670 Off ch=1 n=e6 v=64
57690 Off ch=1 n=b4 v=64
57756 Off ch=1 n=g#5 v=64
57813 On ch=1 n=c#6 v=61
57813 On ch=1 n=a5 v=55
57819 On ch=1 n=c#5 v=55
57841 Par ch=1 c=64 v=0
57864 Par ch=1 c=64 v=127
57921 Par ch=1 c=64 v=0
57923 On ch=1 n=b4 v=55
57933 On ch=1 n=d#6 v=57
57939 Off ch=1 n=c#6 v=64
57968 Off ch=1 n=a5 v=64
57985 Off ch=1 n=c#5 v=64
57997 Off ch=1 n=e4 v=64
58090 Par ch=1 c=64 v=127
58096 On ch=1 n=e4 v=52
58121 On ch=1 n=g#5 v=45
58126 On ch=1 n=f#6 v=52
58136 Off ch=1 n=d#6 v=64
58173 Par ch=1 c=64 v=0
58179 On ch=1 n=e6 v=57
58189 Off ch=1 n=f#6 v=64
58342 Par ch=1 c=64 v=127
58399 Off ch=1 n=e6 v=64
58524 Off ch=1 n=b4 v=64
58678 On ch=1 n=d6 v=50
58690 Par ch=1 c=64 v=0
58725 Par ch=1 c=64 v=127
58787 Off ch=1 n=g#5 v=64
58791 Off ch=1 n=e4 v=64
58814 Off ch=1 n=d6 v=64
58889 Par ch=1 c=64 v=0
58904 On ch=1 n=g5 v=41
58907 On ch=1 n=c#6 v=46
58914 On ch=1 n=a4 v=31
58934 Par ch=1 c=64 v=127
58942 Par ch=1 c=64 v=0
58976 Off ch=1 n=c#6 v=64
58977 Par ch=1 c=64 v=127
59013 Off ch=1 n=g5 v=64
59073 On ch=1 n=c#6 v=41
59083 Par ch=1 c=64 v=0
59106 On ch=1 n=d6 v=46
59108 Par ch=1 c=64 v=127
59110 On ch=1 n=f#5 v=31
59120 Off ch=1 n=c#6 v=64
59128 Off ch=1 n=a4 v=64
59130 On ch=1 n=d4 v=45
59138 Par ch=1 c=64 v=0
59183 Par ch=1 c=64 v=127
59269 Off ch=1 n=d6 v=64
59281 Off ch=1 n=f#5 v=64
59284 Par ch=1 c=64 v=0
59312 On ch=1 n=b5 v=48
59317 Par ch=1 c=64 v=127
59321 On ch=1 n=f5 v=41
59327 On ch=1 n=d3 v=44
59335 Par ch=1 c=64 v=0
59345 Off ch=1 n=d4 v=64
59360 Par ch=1 c=64 v=127
59377 Off ch=1 n=b5 v=64
59424 Off ch=1 n=f5 v=64
59475 Par ch=1 c=64 v=0
59516 On ch=1 n=g#5 v=41
59523 On ch=1 n=e3 v=44
59524 On ch=1 n=d5 v=46
59528 Par ch=1 c=64 v=127
59536 Par ch=1 c=64 v=0
59542 Off ch=1 n=d3 v=64
59569 Par ch=1 c=64 v=127
59628 Off ch=1 n=d5 v=64
59658 Off ch=1 n=g#5 v=64
59674 On ch=1 n=e5 v=37
59707 On ch=1 n=a5 v=49
59713 On ch=1 n=a3 v=39
59720 On ch=1 n=c#5 v=54
59727 Par ch=1 c=64 v=0
59733 Off ch=1 n=e5 v=64
59738 Off ch=1 n=e3 v=64
59780 Par ch=1 c=64 v=127
59834 Off ch=1 n=c#5 v=64
59851 Off ch=1 n=a5 v=64
59870 Par ch=1 c=64 v=0
59895 Par ch=1 c=64 v=127
59903 On ch=1 n=e4 v=40
59920 Off ch=1 n=a3 v=64
59998 On ch=1 n=g#5 v=45
60007 On ch=1 n=b5 v=49
60100 On ch=1 n=c#6 v=53
60104 On ch=1 n=a4 v=44
60108 On ch=1 n=g5 v=41
60113 Off ch=1 n=g#5 v=64
60118 Off ch=1 n=e4 v=64
60122 Par ch=1 c=64 v=0
60133 Off ch=1 n=b5 v=64
60147 Par ch=1 c=64 v=127
60189 Off ch=1 n=c#6 v=64
60258 Off ch=1 n=g5 v=64
60258 On ch=1 n=e6 v=46
60258 Par ch=1 c=64 v=0
60285 Par ch=1 c=64 v=127
60300 On ch=1 n=d4 v=48
60305 On ch=1 n=d6 v=46
60310 On ch=1 n=f#5 v=58
60319 Off ch=1 n=a4 v=64
60319 Off ch=1 n=e6 v=64
60438 Off ch=1 n=f#5 v=64
60460 Par ch=1 c=64 v=0
60468 Off ch=1 n=d6 v=64
60473 Par ch=1 c=64 v=127
60498 On ch=1 n=b5 v=50
60503 On ch=1 n=f5 v=45
60510 Par ch=1 c=64 v=0
60514 On ch=1 n=d3 v=20
60525 Off ch=1 n=d4 v=64
60537 Par ch=1 c=64 v=127
60557 Off ch=1 n=b5 v=64
60591 Off ch=1 n=f5 v=64
60637 Par ch=1 c=64 v=0
60677 Par ch=1 c=64 v=127
60688 On ch=1 n=g#5 v=46
60695 On ch=1 n=d5 v=46
60702 On ch=1 n=e3 v=37
60712 Par ch=1 c=64 v=0
60722 Par ch=1 c=64 v=127
60726 Off ch=1 n=d3 v=64
60744 On ch=1 n=f#5 v=40
60761 Off ch=1 n=g#5 v=64
60767 Off ch=1 n=d5 v=64
60797 On ch=1 n=e5 v=48
60814 Off ch=1 n=f#5 v=64
60865 On ch=1 n=a5 v=45
60866 On ch=1 n=c#5 v=50
60877 On ch=1 n=a3 v=31
60882 Off ch=1 n=e5 v=64
60886 Par ch=1 c=64 v=0
60914 Off ch=1 n=e3 v=64
60926 Par ch=1 c=64 v=127
60965 Off ch=1 n=c#5 v=64
61018 Off ch=1 n=a5 v=64
61047 On ch=1 n=e4 v=39
61092 Off ch=1 n=a3 v=64
61147 On ch=1 n=b5 v=37
61153 On ch=1 n=g#5 v=50
61199 Par ch=1 c=64 v=0
61215 Off ch=1 n=g#5 v=64
61217 Par ch=1 c=64 v=127
61220 Off ch=1 n=b5 v=64
61245 On ch=1 n=c#6 v=58
61251 On ch=1 n=a4 v=41
61253 On ch=1 n=g5 v=55
61262 Off ch=1 n=e4 v=64
61280 Off ch=1 n=c#6 v=64
61282 Off ch=1 n=g5 v=64
61315 On ch=1 n=g5 v=50
61320 On ch=1 n=c#6 v=54
61339 Off ch=1 n=g5 v=64
61350 Off ch=1 n=c#6 v=64
61373 On ch=1 n=c#6 v=52
61375 On ch=1 n=g5 v=59
61399 Off ch=1 n=g5 v=64
61400 Par ch=1 c=64 v=0
61407 Off ch=1 n=c#6 v=64
61422 Par ch=1 c=64 v=127
61446 On ch=1 n=d6 v=54
61451 Par ch=1 c=64 v=0
61457 On ch=1 n=f#5 v=57
61461 On ch=1 n=d4 v=45
61466 Off ch=1 n=a4 v=64
61469 Par ch=1 c=64 v=127
61569 Off ch=1 n=f#5 v=64
61596 Off ch=1 n=d6 v=64
61641 On ch=1 n=b5 v=48
61646 On ch=1 n=f5 v=46
61646 On ch=1 n=d3 v=45
61652 Par ch=1 c=64 v=0
61674 Par ch=1 c=64 v=127
61676 Off ch=1 n=d4 v=64
61679 Off ch=1 n=b5 v=64
61698 Off ch=1 n=f5 v=64
61786 Par ch=1 c=64 v=0
61824 On ch=1 n=g#5 v=52
61825 On ch=1 n=d5 v=50
61829 Par ch=1 c=64 v=127
61832 On ch=1 n=e3 v=49
61861 Off ch=1 n=d3 v=64
61863 Off ch=1 n=d5 v=64
61867 Off ch=1 n=g#5 v=64
61886 On ch=1 n=f#5 v=62
61893 On ch=1 n=d5 v=45
61947 On ch=1 n=e5 v=45
61949 Off ch=1 n=f#5 v=64
61971 Off ch=1 n=d5 v=64
61994 Off ch=1 n=e5 v=64
62014 On ch=1 n=a5 v=52
62019 On ch=1 n=c#5 v=58
62029 On ch=1 n=a3 v=31
62038 Par ch=1 c=64 v=0
62047 Off ch=1 n=e3 v=64
62081 Par ch=1 c=64 v=127
62136 Off ch=1 n=c#5 v=64
62148 Off ch=1 n=a5 v=64
62205 On ch=1 n=e4 v=32
62244 Off ch=1 n=a3 v=64
62300 On ch=1 n=g#5 v=41
62303 On ch=1 n=b5 v=45
62340 Off ch=1 n=g#5 v=64
62341 Off ch=1 n=b5 v=64
62403 On ch=1 n=g5 v=46
62405 On ch=1 n=c#6 v=58
62410 On ch=1 n=a4 v=41
62417 Off ch=1 n=g5 v=64
62420 Off ch=1 n=e4 v=64
62438 Off ch=1 n=c#6 v=64
62483 On ch=1 n=d6 v=53
62485 On ch=1 n=g5 v=52
62511 Off ch=1 n=g5 v=64
62519 Off ch=1 n=d6 v=64
62543 On ch=1 n=g5 v=59
62547 On ch=1 n=e6 v=57
62567 Off ch=1 n=g5 v=64
62592 Par ch=1 c=64 v=0
62595 Off ch=1 n=e6 v=64
62615 On ch=1 n=d4 v=48
62619 On ch=1 n=f#5 v=57
62620 On ch=1 n=d6 v=57
62623 Par ch=1 c=64 v=127
62625 Off ch=1 n=a4 v=64
62663 Off ch=1 n=d6 v=64
62701 Off ch=1 n=f#5 v=64
62819 On ch=1 n=f5 v=45
62823 On ch=1 n=b5 v=46
62827 On ch=1 n=d3 v=32
62830 Off ch=1 n=d4 v=64
62844 Par ch=1 c=64 v=0
62875 Par ch=1 c=64 v=127
62899 Off ch=1 n=b5 v=64
62930 Off ch=1 n=f5 v=64
63042 Off ch=1 n=d3 v=64
63043 Par ch=1 c=64 v=0
63043 On ch=1 n=g#5 v=48
63048 On ch=1 n=d5 v=53
63051 On ch=1 n=e3 v=45
63078 Par ch=1 c=64 v=127
63082 Off ch=1 n=d5 v=64
63091 Off ch=1 n=g#5 v=64
63111 On ch=1 n=f#5 v=58
63111 On ch=1 n=d5 v=42
63153 Off ch=1 n=d5 v=64
63183 Off ch=1 n=f#5 v=64
63183 On ch=1 n=d5 v=53
63186 On ch=1 n=e5 v=45
63237 Off ch=1 n=d5 v=64
63254 Off ch=1 n=e5 v=64
63266 Off ch=1 n=e3 v=64
63271 On ch=1 n=a5 v=50
63277 On ch=1 n=c#5 v=52
63283 On ch=1 n=a2 v=31
63285 On ch=1 n=a3 v=31
63295 Par ch=1 c=64 v=0
63330 Par ch=1 c=64 v=127
63381 Off ch=1 n=c#5 v=64
63391 Par ch=1 c=64 v=0
63400 Off ch=1 n=a5 v=64
63425 Par ch=1 c=64 v=127
63520 Off ch=1 n=a2 v=64
63522 Off ch=1 n=a3 v=64
63540 Par ch=1 c=64 v=0
63575 Par ch=1 c=64 v=127
63611 On ch=1 n=e6 v=57
63643 Par ch=1 c=64 v=0
63677 Par ch=1 c=64 v=127
63792 Par ch=1 c=64 v=0
63827 Par ch=1 c=64 v=127
63829 Par ch=1 c=64 v=0
63852 On ch=1 n=f6 v=50
63863 Off ch=1 n=e6 v=64
63873 Par ch=1 c=64 v=127
64017 Off ch=1 n=f6 v=64
64027 On ch=1 n=e6 v=52
64028 Par ch=1 c=64 v=0
64057 On ch=1 n=f5 v=36
64057 On ch=1 n=d5 v=41
64065 On ch=1 n=a4 v=24
64069 Par ch=1 c=64 v=127
64070 On ch=1 n=d6 v=48
64078 Par ch=1 c=64 v=0
64090 Off ch=1 n=e6 v=64
64122 Par ch=1 c=64 v=127
64192 Par ch=1 c=64 v=0
64222 Off ch=1 n=d5 v=64
64222 Off ch=1 n=f5 v=64
64230 Off ch=1 n=a4 v=64
64230 Par ch=1 c=64 v=127
64254 On ch=1 n=f6 v=52
64263 On ch=1 n=d5 v=28
64263 On ch=1 n=a4 v=44
64265 On ch=1 n=f5 v=41
64271 Off ch=1 n=d6 v=64
64280 Par ch=1 c=64 v=0
64321 Par ch=1 c=64 v=127
64358 Off ch=1 n=f6 v=64
64381 Par ch=1 c=64 v=0
64424 Par ch=1 c=64 v=127
64436 On ch=1 n=f6 v=50
64444 Par ch=1 c=64 v=0
64450 Off ch=1 n=f5 v=64
64450 Off ch=1 n=a4 v=64
64459 Off ch=1 n=d5 v=64
64482 Par ch=1 c=64 v=127
64541 Par ch=1 c=64 v=0
64594 Par ch=1 c=64 v=127
64610 On ch=1 n=f5 v=36
64611 On ch=1 n=c5 v=36
64618 On ch=1 n=a4 v=31
64633 Par ch=1 c=64 v=0
64676 Par ch=1 c=64 v=127
64775 Off ch=1 n=f5 v=64
64776 Off ch=1 n=c5 v=64
64783 Off ch=1 n=a4 v=64
64791 On ch=1 n=e6 v=45
64793 Par ch=1 c=64 v=0
64801 On ch=1 n=e5 v=35
64801 On ch=1 n=c5 v=32
64801 On ch=1 n=a4 v=35
64807 Off ch=1 n=f6 v=64
64846 Par ch=1 c=64 v=127
64895 Par ch=1 c=64 v=0
64914 Off ch=1 n=e6 v=64
64931 Par ch=1 c=64 v=127
64941 Off ch=1 n=e5 v=64
64943 Off ch=1 n=c5 v=64
64951 On ch=1 n=d6 v=55
64955 Off ch=1 n=a4 v=64
64973 On ch=1 n=e6 v=52
64983 Off ch=1 n=d6 v=64
65013 On ch=1 n=d6 v=59
65030 Off ch=1 n=e6 v=64
65066 On ch=1 n=c#6 v=63
65068 Par ch=1 c=64 v=0
65071 Off ch=1 n=d6 v=64
65101 Par ch=1 c=64 v=127
65119 Off ch=1 n=c#6 v=64
65124 On ch=1 n=d6 v=59
65127 On ch=1 n=g#4 v=36
65131 On ch=1 n=e4 v=37
65135 On ch=1 n=d5 v=40
65144 Par ch=1 c=64 v=0
65180 Par ch=1 c=64 v=127
65212 On ch=1 n=d#6 v=54
65233 Off ch=1 n=d6 v=64
65292 Off ch=1 n=g#4 v=64
65296 Off ch=1 n=e4 v=64
65299 On ch=1 n=g#4 v=39
65300 Off ch=1 n=d5 v=64
65304 Off ch=1 n=d#6 v=64
65307 On ch=1 n=e6 v=55
65309 On ch=1 n=e4 v=41
65312 On ch=1 n=d5 v=35
65320 Par ch=1 c=64 v=0
65353 Par ch=1 c=64 v=127
65383 On ch=1 n=b5 v=66
65412 Off ch=1 n=e6 v=64
65436 Off ch=1 n=d5 v=64
65436 Off ch=1 n=g#4 v=64
65445 Off ch=1 n=e4 v=64
65481 Par ch=1 c=64 v=0
65482 On ch=1 n=d6 v=59
65504 Off ch=1 n=b5 v=64
65521 Par ch=1 c=64 v=127
65686 On ch=1 n=a3 v=36
65694 Par ch=1 c=64 v=0
65715 Par ch=1 c=64 v=127
65733 Par ch=1 c=64 v=0
65773 Par ch=1 c=64 v=127
65922 On ch=1 n=e4 v=35
65932 On ch=1 n=c6 v=49
65934 On ch=1 n=c5 v=23
65943 Par ch=1 c=64 v=0
65964 Par ch=1 c=64 v=127
65970 Off ch=1 n=d6 v=64
66045 Par ch=1 c=64 v=0
66090 Par ch=1 c=64 v=127
66130 Off ch=1 n=c6 v=64
66136 Off ch=1 n=a3 v=64
66139 On ch=1 n=a5 v=49
66145 Off ch=1 n=e4 v=64
66147 Off ch=1 n=c5 v=64
66192 Off ch=1 n=a5 v=64
66192 On ch=1 n=b5 v=48
66219 Par ch=1 c=64 v=0
66223 On ch=1 n=a5 v=68
66237 Off ch=1 n=b5 v=64
66252 Par ch=1 c=64 v=127
66276 Off ch=1 n=a5 v=64
66283 On ch=1 n=e4 v=50
66284 On ch=1 n=c5 v=44
66287 On ch=1 n=g#5 v=76
66297 Par ch=1 c=64 v=0
66342 Par ch=1 c=64 v=127
66455 On ch=1 n=a3 v=49
66459 On ch=1 n=a5 v=63
66470 Off ch=1 n=g#5 v=64
66471 Par ch=1 c=64 v=0
66504 Par ch=1 c=64 v=127
66540 Off ch=1 n=e4 v=64
66552 Off ch=1 n=c5 v=64
66577 Par ch=1 c=64 v=0
66591 Off ch=1 n=a3 v=64
66621 On ch=1 n=b5 v=66
66623 Off ch=1 n=a5 v=64
66630 Par ch=1 c=64 v=127
66804 On ch=1 n=g4 v=58
66807 On ch=1 n=e6 v=70
66813 On ch=1 n=e4 v=58
66818 On ch=1 n=b4 v=49
66819 Off ch=1 n=b5 v=64
66829 Par ch=1 c=64 v=0
66882 Par ch=1 c=64 v=127
66952 Par ch=1 c=64 v=0
66961 Off ch=1 n=e6 v=64
66988 Par ch=1 c=64 v=127
66997 On ch=1 n=b3 v=55
66999 Off ch=1 n=g4 v=64
67008 Off ch=1 n=e4 v=64
67013 Off ch=1 n=b4 v=64
67150 Off ch=1 n=b3 v=64
67155 Par ch=1 c=64 v=0
67187 Par ch=1 c=64 v=127
67204 Par ch=1 c=64 v=0
67212 On ch=1 n=b5 v=70
67240 Par ch=1 c=64 v=127
67298 On ch=1 n=g5 v=62
67315 Off ch=1 n=b5 v=64
67330 Par ch=1 c=64 v=0
67372 Par ch=1 c=64 v=127
67387 On ch=1 n=e5 v=78
67392 On ch=1 n=b4 v=63
67395 Off ch=1 n=g5 v=64
67395 On ch=1 n=g4 v=66
67395 On ch=1 n=b3 v=65
67407 Par ch=1 c=64 v=0
67439 Par ch=1 c=64 v=127
67467 On ch=1 n=b5 v=63
67492 Off ch=1 n=e5 v=64
67542 Off ch=1 n=b4 v=64
67543 Par ch=1 c=64 v=0
67545 Off ch=1 n=b3 v=64
67545 Off ch=1 n=g4 v=64
67553 On ch=1 n=f#4 v=58
67554 On ch=1 n=d#5 v=78
67554 On ch=1 n=b4 v=62
67554 On ch=1 n=b3 v=62
67576 Par ch=1 c=64 v=127
67582 Par ch=1 c=64 v=0
67589 Off ch=1 n=b5 v=64
67624 Par ch=1 c=64 v=127
67718 Off ch=1 n=f#4 v=64
67719 Off ch=1 n=b3 v=64
67719 Off ch=1 n=b4 v=64
67770 On ch=1 n=e5 v=71
67773 Off ch=1 n=d#5 v=64
67779 On ch=1 n=e4 v=61
67780 On ch=1 n=b4 v=54
67785 On ch=1 n=g4 v=61
67795 Par ch=1 c=64 v=0
67802 Par ch=1 c=64 v=0
67828 Par ch=1 c=64 v=127
67838 Par ch=1 c=64 v=127
68026 Off ch=1 n=e4 v=64
68027 Off ch=1 n=b4 v=64
68032 Off ch=1 n=g4 v=64
68039 Par ch=1 c=64 v=0
68041 On ch=1 n=e3 v=62
68051 Par ch=1 c=64 v=0
68069 Par ch=1 c=64 v=127
68087 Par ch=1 c=64 v=127
68175 Off ch=1 n=e5 v=64
68274 On ch=1 n=e6 v=49
68276 Off ch=1 n=e3 v=64
68288 Par ch=1 c=64 v=0
68321 Par ch=1 c=64 v=127
68379 Par ch=1 c=64 v=0
68421 Par ch=1 c=64 v=127
68447 On ch=1 n=f6 v=51
68467 Off ch=1 n=e6 v=64
68552 Par ch=1 c=64 v=0
68571 On ch=1 n=e6 v=53
68577 Off ch=1 n=f6 v=64
68589 Par ch=1 c=64 v=127
68607 On ch=1 n=a4 v=48
68612 On ch=1 n=f5 v=43
68612 On ch=1 n=d5 v=47
68618 On ch=1 n=d6 v=59
68628 Par ch=1 c=64 v=0
68633 Off ch=1 n=e6 v=64
68670 Par ch=1 c=64 v=127
68754 Off ch=1 n=a4 v=64
68759 Off ch=1 n=d5 v=64
68759 Off ch=1 n=f5 v=64
68778 On ch=1 n=f6 v=59
68784 Off ch=1 n=d6 v=64
68793 On ch=1 n=f5 v=32
68794 On ch=1 n=a4 v=40
68801 On ch=1 n=d5 v=27
68801 Par ch=1 c=64 v=0
68838 Par ch=1 c=64 v=127
68872 Off ch=1 n=f6 v=64
68902 Par ch=1 c=64 v=0
68927 Par ch=1 c=64 v=127
68937 Off ch=1 n=a4 v=64
68947 Off ch=1 n=f5 v=64
68948 On ch=1 n=f6 v=70
68955 Off ch=1 n=d5 v=64
69066 Par ch=1 c=64 v=0
69099 Par ch=1 c=64 v=127
69119 On ch=1 n=f5 v=35
69123 On ch=1 n=c5 v=32
69123 On ch=1 n=a4 v=32
69148 Par ch=1 c=64 v=0
69173 Par ch=1 c=64 v=127
69231 Par ch=1 c=64 v=0
69262 Par ch=1 c=64 v=127
69269 Off ch=1 n=f5 v=64
69273 Off ch=1 n=a4 v=64
69273 Off ch=1 n=c5 v=64
69302 On ch=1 n=e6 v=53
69306 On ch=1 n=e5 v=36
69308 On ch=1 n=a4 v=40
69315 On ch=1 n=c5 v=36
69318 Par ch=1 c=64 v=0
69325 Off ch=1 n=f6 v=64
69351 Par ch=1 c=64 v=127
69411 Par ch=1 c=64 v=0
69417 Off ch=1 n=e6 v=64
69443 Par ch=1 c=64 v=127
69459 On ch=1 n=d6 v=54
69462 Off ch=1 n=e5 v=64
69465 Off ch=1 n=c5 v=64
69471 Off ch=1 n=a4 v=64
69483 Par ch=1 c=64 v=0
69491 On ch=1 n=e6 v=54
69501 Off ch=1 n=d6 v=64
69511 Par ch=1 c=64 v=127
69527 On ch=1 n=d6 v=65
69537 Off ch=1 n=e6 v=64
69571 On ch=1 n=c#6 v=67
69577 Off ch=1 n=d6 v=64
69613 Par ch=1 c=64 v=0
69636 Par ch=1 c=64 v=127
69645 On ch=1 n=d5 v=41
69645 On ch=1 n=g#4 v=41
69645 On ch=1 n=e4 v=41
69646 On ch=1 n=d6 v=63
69653 Off ch=1 n=c#6 v=64
69657 Par ch=1 c=64 v=0
69689 Par ch=1 c=64 v=127
69735 On ch=1 n=d#6 v=55
69762 Off ch=1 n=d6 v=64
69795 Off ch=1 n=e4 v=64
69795 Off ch=1 n=g#4 v=64
69795 Off ch=1 n=d5 v=64
69799 Par ch=1 c=64 v=0
69837 On ch=1 n=e6 v=44
69843 On ch=1 n=d5 v=40
69843 On ch=1 n=g#4 v=36
69843 On ch=1 n=e4 v=40
69850 Off ch=1 n=d#6 v=64
69855 Par ch=1 c=64 v=127
69865 Par ch=1 c=64 v=0
69888 Par ch=1 c=64 v=127
69922 Off ch=1 n=e6 v=64
69930 On ch=1 n=b5 v=66
69974 Off ch=1 n=b5 v=64
70002 On ch=1 n=b5 v=57
70017 Par ch=1 c=64 v=0
70020 Off ch=1 n=e4 v=64
70045 Off ch=1 n=g#4 v=64
70049 Par ch=1 c=64 v=127
70051 Par ch=1 c=64 v=0
70058 Off ch=1 n=d5 v=64
70061 On ch=1 n=d6 v=59
70071 Off ch=1 n=b5 v=64
70104 Par ch=1 c=64 v=127
70242 On ch=1 n=a4 v=43
70248 On ch=1 n=d5 v=27
70251 On ch=1 n=f4 v=31
70263 Par ch=1 c=64 v=0
70263 Par ch=1 c=64 v=0
70295 Par ch=1 c=64 v=127
70309 Par ch=1 c=64 v=127
70392 Off ch=1 n=a4 v=64
70398 Off ch=1 n=d5 v=64
70401 Off ch=1 n=f4 v=64
70482 On ch=1 n=c6 v=53
70488 On ch=1 n=a4 v=32
70498 On ch=1 n=c5 v=32
70513 On ch=1 n=f4 v=18
70515 Off ch=1 n=d6 v=64
70515 Par ch=1 c=64 v=0
70561 Par ch=1 c=64 v=127
70665 Off ch=1 n=f4 v=64
70667 Off ch=1 n=a4 v=64
70673 Off ch=1 n=c6 v=64
70677 Off ch=1 n=c5 v=64
70718 Par ch=1 c=64 v=0
70719 On ch=1 n=a5 v=48
70733 Par ch=1 c=64 v=127
70823 On ch=1 n=a#5 v=55
70839 Off ch=1 n=a5 v=64
70875 On ch=1 n=a5 v=56
70881 Off ch=1 n=a#5 v=64
70951 On ch=1 n=g5 v=72
70951 On ch=1 n=c5 v=39
70955 On ch=1 n=d#5 v=42
70955 On ch=1 n=f4 v=32
70965 Off ch=1 n=a5 v=64
70967 Par ch=1 c=64 v=0
70972 Par ch=1 c=64 v=0
70982 Par ch=1 c=64 v=127
70985 Par ch=1 c=64 v=127
71089 Off ch=1 n=g5 v=64
71113 Off ch=1 n=c5 v=64
71117 Off ch=1 n=f4 v=64
71117 Off ch=1 n=d#5 v=64
71167 On ch=1 n=a5 v=58
71175 On ch=1 n=d#5 v=46
71178 On ch=1 n=f4 v=47
71184 On ch=1 n=c5 v=51
71196 Par ch=1 c=64 v=0
71224 Par ch=1 c=64 v=0
71234 Par ch=1 c=64 v=127
71260 Par ch=1 c=64 v=127
71337 Off ch=1 n=d#5 v=64
71340 Off ch=1 n=f4 v=64
71346 Off ch=1 n=c5 v=64
71408 On ch=1 n=a#5 v=80
71408 On ch=1 n=d5 v=40
71418 On ch=1 n=a#4 v=32
71430 Off ch=1 n=a5 v=64
71445 Par ch=1 c=64 v=0
71512 Par ch=1 c=64 v=127
71580 Par ch=1 c=64 v=0
71787 On ch=1 n=d6 v=54
71802 On ch=1 n=f5 v=29
71808 Off ch=1 n=a#5 v=64
71826 Par ch=1 c=64 v=127
71832 Par ch=1 c=64 v=0
72078 Par ch=1 c=64 v=127
72225 Par ch=1 c=64 v=0
72256 Off ch=1 n=d5 v=64
72268 Off ch=1 n=a#4 v=64
72327 Off ch=1 n=d6 v=64
72342 Off ch=1 n=f5 v=64
72425 Par ch=1 c=64 v=127
72466 On ch=1 n=a5 v=72
72477 Par ch=1 c=64 v=0
72600 Par ch=1 c=64 v=0
72601 On ch=1 n=g#5 v=66
72619 Off ch=1 n=a5 v=64
72635 Par ch=1 c=64 v=127
72653 On ch=1 n=d5 v=67
72653 On ch=1 n=b4 v=33
72653 On ch=1 n=e4 v=68
72654 On ch=1 n=e5 v=66
72677 Par ch=1 c=64 v=127
72685 Off ch=1 n=g#5 v=64
72740 Off ch=1 n=e5 v=64
72782 Par ch=1 c=64 v=0
72803 Off ch=1 n=e4 v=64
72803 Off ch=1 n=b4 v=64
72803 Off ch=1 n=d5 v=64
72829 On ch=1 n=g#5 v=71
72829 On ch=1 n=e4 v=54
72833 On ch=1 n=b4 v=52
72835 On ch=1 n=d5 v=67
72840 Par ch=1 c=64 v=127
72852 Par ch=1 c=64 v=0
72887 Par ch=1 c=64 v=127
72979 Off ch=1 n=e4 v=64
72983 Off ch=1 n=b4 v=64
72985 Off ch=1 n=d5 v=64
73002 On ch=1 n=e4 v=53
73011 On ch=1 n=a5 v=72
73012 On ch=1 n=a3 v=53
73018 On ch=1 n=c5 v=65
73029 Off ch=1 n=g#5 v=64
73034 Par ch=1 c=64 v=0
73092 Par ch=1 c=64 v=127
73162 Par ch=1 c=64 v=0
73198 Par ch=1 c=64 v=127
73202 Off ch=1 n=c5 v=64
73216 On ch=1 n=a2 v=70
73242 Off ch=1 n=e4 v=64
73252 Off ch=1 n=a3 v=64
73283 Off ch=1 n=a5 v=64
73389 Off ch=1 n=a2 v=64
73414 On ch=1 n=b5 v=46
73414 Par ch=1 c=64 v=0
73450 Par ch=1 c=64 v=127
73521 Par ch=1 c=64 v=0
73565 Par ch=1 c=64 v=127
73584 Off ch=1 n=b5 v=64
73590 On ch=1 n=c6 v=51
73666 On ch=1 n=d6 v=46
73669 Off ch=1 n=c6 v=64
73691 Par ch=1 c=64 v=0
73735 Par ch=1 c=64 v=127
73744 On ch=1 n=d#6 v=55
73752 On ch=1 n=g#4 v=36
73758 On ch=1 n=c5 v=39
73760 On ch=1 n=f#5 v=35
73770 Par ch=1 c=64 v=0
73775 Off ch=1 n=d6 v=64
73814 Par ch=1 c=64 v=127
73860 Off ch=1 n=d#6 v=64
73899 Off ch=1 n=g#4 v=64
73905 Off ch=1 n=c5 v=64
73907 Off ch=1 n=f#5 v=64
73919 On ch=1 n=d#6 v=59
73924 On ch=1 n=f#5 v=41
73925 On ch=1 n=c5 v=44
73925 On ch=1 n=g#4 v=44
73940 Par ch=1 c=64 v=0
73984 Par ch=1 c=64 v=127
74039 Par ch=1 c=64 v=0
74066 Off ch=1 n=d#6 v=64
74068 On ch=1 n=f6 v=47
74075 Par ch=1 c=64 v=127
74078 Off ch=1 n=c5 v=64
74088 Off ch=1 n=g#4 v=64
74112 On ch=1 n=d#6 v=59
74118 Off ch=1 n=f#5 v=64
74128 Off ch=1 n=f6 v=64
74240 Par ch=1 c=64 v=0
74272 On ch=1 n=f#5 v=41
74272 On ch=1 n=g4 v=45
74280 On ch=1 n=c5 v=41
74283 Par ch=1 c=64 v=127
74291 Par ch=1 c=64 v=0
74327 Par ch=1 c=64 v=127
74422 Off ch=1 n=g4 v=64
74422 Off ch=1 n=f#5 v=64
74430 Off ch=1 n=c5 v=64
74467 On ch=1 n=d6 v=47
74470 On ch=1 n=g5 v=31
74470 On ch=1 n=b4 v=37
74476 On ch=1 n=g4 v=19
74490 Off ch=1 n=d#6 v=64
74492 Par ch=1 c=64 v=0
74535 Par ch=1 c=64 v=127
74563 Par ch=1 c=64 v=0
74585 Off ch=1 n=d6 v=64
74600 Par ch=1 c=64 v=127
74647 On ch=1 n=c6 v=51
74670 Off ch=1 n=b4 v=64
74678 Off ch=1 n=g5 v=64
74686 Off ch=1 n=g4 v=64
74718 On ch=1 n=d6 v=47
74730 Par ch=1 c=64 v=0
74741 Off ch=1 n=c6 v=64
74775 Par ch=1 c=64 v=127
74802 On ch=1 n=f#5 v=44
74802 On ch=1 n=g#4 v=44
74808 On ch=1 n=d#6 v=55
74811 On ch=1 n=c5 v=43
74815 Par ch=1 c=64 v=0
74848 Off ch=1 n=d6 v=64
74852 Par ch=1 c=64 v=127
74886 Par ch=1 c=64 v=0
74902 Off ch=1 n=d#6 v=64
74923 Par ch=1 c=64 v=127
74952 Off ch=1 n=g#4 v=64
74952 Off ch=1 n=f#5 v=64
74961 Off ch=1 n=c5 v=64
74968 On ch=1 n=d#6 v=59
74972 On ch=1 n=f#5 v=41
74979 On ch=1 n=c5 v=37
74982 On ch=1 n=g#4 v=36
74982 Par ch=1 c=64 v=0
75027 Par ch=1 c=64 v=127
75074 Par ch=1 c=64 v=0
75086 Off ch=1 n=d#6 v=64
75086 Par ch=1 c=64 v=127
75092 On ch=1 n=f6 v=46
75101 Off ch=1 n=c5 v=64
75103 Off ch=1 n=g#4 v=64
75121 Off ch=1 n=f#5 v=64
75138 Par ch=1 c=64 v=0
75141 On ch=1 n=d#6 v=63
75161 Off ch=1 n=f6 v=64
75175 Par ch=1 c=64 v=127
75246 Par ch=1 c=64 v=0
75290 Par ch=1 c=64 v=127
75300 On ch=1 n=b4 v=36
75304 On ch=1 n=f5 v=32
75304 On ch=1 n=g#4 v=26
75323 Par ch=1 c=64 v=0
75335 Par ch=1 c=64 v=127
75407 Par ch=1 c=64 v=0
75444 Par ch=1 c=64 v=127
75450 Off ch=1 n=b4 v=64
75454 Off ch=1 n=g#4 v=64
75454 Off ch=1 n=f5 v=64
75471 On ch=1 n=a#4 v=43
75477 On ch=1 n=d6 v=45
75477 On ch=1 n=g#4 v=36
75482 On ch=1 n=f5 v=32
75492 Par ch=1 c=64 v=0
75499 Off ch=1 n=d#6 v=64
75536 Par ch=1 c=64 v=127
75627 Off ch=1 n=a#4 v=64
75630 Off ch=1 n=g#4 v=64
75647 On ch=1 n=a#6 v=76
75650 Off ch=1 n=f5 v=64
75656 Par ch=1 c=64 v=0
75674 Off ch=1 n=d6 v=64
75693 Par ch=1 c=64 v=127
75753 Par ch=1 c=64 v=0
75797 Par ch=1 c=64 v=127
75811 On ch=1 n=f5 v=45
75812 On ch=1 n=a#4 v=40
75815 On ch=1 n=g4 v=36
75961 Off ch=1 n=f5 v=64
75962 Off ch=1 n=a#4 v=64
75965 Off ch=1 n=g4 v=64
75986 On ch=1 n=c#6 v=59
75986 On ch=1 n=a#4 v=42
75992 On ch=1 n=e5 v=48
75996 On ch=1 n=g4 v=42
75998 Off ch=1 n=a#6 v=64
76005 Par ch=1 c=64 v=0
76049 Par ch=1 c=64 v=127
76075 Par ch=1 c=64 v=0
76108 Par ch=1 c=64 v=127
76154 Off ch=1 n=g4 v=64
76159 On ch=1 n=a6 v=66
76163 Off ch=1 n=a#4 v=64
76163 Off ch=1 n=c#6 v=64
76177 Off ch=1 n=e5 v=64
76268 Par ch=1 c=64 v=0
76300 On ch=1 n=g4 v=46
76301 On ch=1 n=a4 v=46
76307 On ch=1 n=e5 v=46
76312 Par ch=1 c=64 v=127
76327 Par ch=1 c=64 v=0
76360 Par ch=1 c=64 v=127
76450 Off ch=1 n=g4 v=64
76451 Off ch=1 n=a4 v=64
76457 Off ch=1 n=e5 v=64
76488 On ch=1 n=c6 v=54
76502 On ch=1 n=d#5 v=41
76502 On ch=1 n=a4 v=32
76504 Off ch=1 n=a6 v=64
76504 On ch=1 n=f#4 v=41
76520 Par ch=1 c=64 v=0
76564 Par ch=1 c=64 v=127
76618 Par ch=1 c=64 v=0
76659 Par ch=1 c=64 v=127
76661 Off ch=1 n=a4 v=64
76662 Off ch=1 n=f#4 v=64
76667 On ch=1 n=g#6 v=58
76690 Off ch=1 n=d#5 v=64
76691 Off ch=1 n=c6 v=64
76831 Par ch=1 c=64 v=0
76842 On ch=1 n=d#5 v=41
76848 On ch=1 n=g#4 v=37
76853 On ch=1 n=f4 v=24
76870 Par ch=1 c=64 v=0
76894 Par ch=1 c=64 v=127
76911 Par ch=1 c=64 v=127
76992 Off ch=1 n=d#5 v=64
76998 Off ch=1 n=g#4 v=64
77003 Off ch=1 n=f4 v=64
77054 On ch=1 n=b5 v=48
77060 On ch=1 n=f4 v=28
77061 On ch=1 n=d5 v=35
77061 On ch=1 n=g#4 v=29
77069 Off ch=1 n=g#6 v=64
77083 Par ch=1 c=64 v=0
77146 Par ch=1 c=64 v=127
77230 Par ch=1 c=64 v=0
77240 Off ch=1 n=f4 v=64
77251 Off ch=1 n=g#4 v=64
77251 On ch=1 n=g6 v=50
77263 Off ch=1 n=d5 v=64
77271 Off ch=1 n=b5 v=64
77286 Par ch=1 c=64 v=127
77456 On ch=1 n=d5 v=26
77456 On ch=1 n=g4 v=20
77463 On ch=1 n=e4 v=20
77482 Par ch=1 c=64 v=0
77492 Par ch=1 c=64 v=0
77535 Par ch=1 c=64 v=127
77538 Par ch=1 c=64 v=127
77577 On ch=1 n=a#5 v=42
77587 Off ch=1 n=g6 v=64
77603 Off ch=1 n=g4 v=64
77603 Off ch=1 n=d5 v=64
77610 Off ch=1 n=e4 v=64
77721 On ch=1 n=g4 v=27
77722 On ch=1 n=c#5 v=29
77722 On ch=1 n=e4 v=32
77723 On ch=1 n=a5 v=53
77728 Off ch=1 n=a#5 v=64
77732 Par ch=1 c=64 v=0
77741 Par ch=1 c=64 v=0
77774 Par ch=1 c=64 v=127
77784 Par ch=1 c=64 v=127
77843 On ch=1 n=e6 v=51
77871 Off ch=1 n=g4 v=64
77872 Off ch=1 n=e4 v=64
77872 Off ch=1 n=c#5 v=64
77882 Off ch=1 n=a5 v=64
77925 Par ch=1 c=64 v=0
77952 Par ch=1 c=64 v=127
77960 On ch=1 n=f6 v=55
77965 On ch=1 n=f4 v=43
77975 Off ch=1 n=e6 v=64
77975 On ch=1 n=d5 v=33
77975 On ch=1 n=d4 v=43
77984 Par ch=1 c=64 v=0
78026 Par ch=1 c=64 v=127
78063 On ch=1 n=e6 v=59
78092 Off ch=1 n=f6 v=64
78098 Par ch=1 c=64 v=0
78129 Par ch=1 c=64 v=127
78130 Off ch=1 n=f4 v=64
78140 Off ch=1 n=d4 v=64
78140 Off ch=1 n=d5 v=64
78154 On ch=1 n=d6 v=70
78157 On ch=1 n=d5 v=38
78162 On ch=1 n=f5 v=41
78170 Off ch=1 n=e6 v=64
78171 On ch=1 n=a4 v=28
78177 Par ch=1 c=64 v=0
78204 Par ch=1 c=64 v=127
78267 Par ch=1 c=64 v=0
78297 Par ch=1 c=64 v=127
78307 Off ch=1 n=d5 v=64
78312 Off ch=1 n=f5 v=64
78321 Off ch=1 n=a4 v=64
78326 On ch=1 n=f6 v=63
78330 On ch=1 n=a4 v=39
78334 On ch=1 n=f5 v=40
78337 On ch=1 n=d5 v=43
78347 Par ch=1 c=64 v=0
78351 Off ch=1 n=d6 v=64
78378 Par ch=1 c=64 v=127
78394 Off ch=1 n=f6 v=64
78446 Par ch=1 c=64 v=0
78460 Par ch=1 c=64 v=127
78504 On ch=1 n=f6 v=60
78507 Off ch=1 n=a4 v=64
78516 Par ch=1 c=64 v=0
78525 Off ch=1 n=f5 v=64
78530 Off ch=1 n=d5 v=64
78546 Par ch=1 c=64 v=127
78616 Par ch=1 c=64 v=0
78661 Par ch=1 c=64 v=127
78665 On ch=1 n=f5 v=44
78666 On ch=1 n=c5 v=44
78674 On ch=1 n=a4 v=31
78698 Par ch=1 c=64 v=0
78712 Par ch=1 c=64 v=127
78815 Off ch=1 n=f5 v=64
78816 Off ch=1 n=c5 v=64
78824 Off ch=1 n=a4 v=64
78848 On ch=1 n=e6 v=55
78854 On ch=1 n=c5 v=29
78857 On ch=1 n=e5 v=24
78858 On ch=1 n=a4 v=29
78868 Par ch=1 c=64 v=0
78875 Off ch=1 n=f6 v=64
78913 Par ch=1 c=64 v=127
78953 Par ch=1 c=64 v=0
78975 Off ch=1 n=e6 v=64
79003 Par ch=1 c=64 v=127
79021 On ch=1 n=d6 v=56
79022 Off ch=1 n=e5 v=64
79022 Off ch=1 n=c5 v=64
79028 Off ch=1 n=a4 v=64
79060 On ch=1 n=e6 v=45
79068 Off ch=1 n=d6 v=64
79103 On ch=1 n=d6 v=58
79113 Off ch=1 n=e6 v=64
79158 On ch=1 n=c#6 v=70
79160 Par ch=1 c=64 v=0
79162 Off ch=1 n=d6 v=64
79196 On ch=1 n=d5 v=39
79203 On ch=1 n=g#4 v=37
79204 Par ch=1 c=64 v=127
79205 Par ch=1 c=64 v=0
79211 On ch=1 n=e4 v=31
79216 On ch=1 n=d6 v=63
79221 Off ch=1 n=c#6 v=64
79255 Par ch=1 c=64 v=127
79299 On ch=1 n=d#6 v=61
79322 Off ch=1 n=d6 v=64
79343 Par ch=1 c=64 v=0
79346 Off ch=1 n=d5 v=64
79353 Off ch=1 n=g#4 v=64
79361 Off ch=1 n=e4 v=64
79389 On ch=1 n=g#4 v=35
79389 On ch=1 n=e4 v=32
79391 On ch=1 n=e6 v=59
79391 Par ch=1 c=64 v=127
79397 On ch=1 n=d5 v=32
79399 Off ch=1 n=d#6 v=64
79409 Par ch=1 c=64 v=0
79453 Par ch=1 c=64 v=127
79480 On ch=1 n=b5 v=68
79510 Off ch=1 n=e6 v=64
79581 On ch=1 n=d6 v=63
79592 Par ch=1 c=64 v=0
79593 Par ch=1 c=64 v=0
79607 Off ch=1 n=e4 v=64
79611 Off ch=1 n=b5 v=64
79623 Off ch=1 n=g#4 v=64
79624 Par ch=1 c=64 v=127
79631 Off ch=1 n=d5 v=64
79640 Par ch=1 c=64 v=127
79811 On ch=1 n=d5 v=37
79813 On ch=1 n=a4 v=29
79824 On ch=1 n=f4 v=36
79845 Par ch=1 c=64 v=0
79873 Par ch=1 c=64 v=0
79876 Par ch=1 c=64 v=127
79936 Par ch=1 c=64 v=127
80036 Off ch=1 n=d5 v=64
80038 Off ch=1 n=a4 v=64
80049 Off ch=1 n=f4 v=64
80075 On ch=1 n=c6 v=53
80089 On ch=1 n=c5 v=28
80095 On ch=1 n=a4 v=28
80095 On ch=1 n=f4 v=22
80101 Off ch=1 n=d6 v=64
80125 Par ch=1 c=64 v=0
80188 Par ch=1 c=64 v=127
80353 Off ch=1 n=f4 v=64
80355 Off ch=1 n=a4 v=64
80357 Off ch=1 n=c6 v=64
80357 On ch=1 n=a5 v=66
80363 Par ch=1 c=64 v=0
80373 Off ch=1 n=c5 v=64
80406 Par ch=1 c=64 v=127
80455 On ch=1 n=a#5 v=79
80471 Off ch=1 n=a5 v=64
80525 On ch=1 n=a5 v=59
80537 Off ch=1 n=a#5 v=64
80595 On ch=1 n=g5 v=78
80599 On ch=1 n=d#5 v=48
80602 Off ch=1 n=a5 v=64
80608 On ch=1 n=c5 v=37
80609 On ch=1 n=f4 v=36
80615 Par ch=1 c=64 v=0
80658 Par ch=1 c=64 v=127
80688 Par ch=1 c=64 v=0
80723 Par ch=1 c=64 v=127
80789 Off ch=1 n=d#5 v=64
80798 Off ch=1 n=c5 v=64
80799 Off ch=1 n=f4 v=64
80884 On ch=1 n=a5 v=72
80887 On ch=1 n=d#5 v=54
80893 On ch=1 n=f4 v=36
80895 On ch=1 n=c5 v=44
80905 Off ch=1 n=g5 v=64
80940 Par ch=1 c=64 v=0
80975 Par ch=1 c=64 v=127
81045 Par ch=1 c=64 v=0
81082 Off ch=1 n=d#5 v=64
81088 Off ch=1 n=f4 v=64
81090 Off ch=1 n=c5 v=64
81094 Par ch=1 c=64 v=127
81227 On ch=1 n=a#5 v=67
81241 On ch=1 n=d5 v=46
81241 On ch=1 n=a#4 v=36
81247 Off ch=1 n=a5 v=64
81297 Par ch=1 c=64 v=0
81346 Par ch=1 c=64 v=127
81559 Par ch=1 c=64 v=0
81603 Par ch=1 c=64 v=127
81734 On ch=1 n=d6 v=41
81740 On ch=1 n=f5 v=31
81748 Off ch=1 n=a#5 v=64
81783 Off ch=1 n=d5 v=64
81811 Par ch=1 c=64 v=0
81855 Par ch=1 c=64 v=127
82107 Off ch=1 n=a#4 v=64
82259 Off ch=1 n=f5 v=64
82325 Off ch=1 n=d6 v=64
82407 Par ch=1 c=64 v=0
82443 Par ch=1 c=64 v=127
82638 Par ch=1 c=64 v=0
82642 On ch=1 n=a5 v=78
82659 Par ch=1 c=64 v=0
82664 Par ch=1 c=64 v=127
82695 Par ch=1 c=64 v=127
82798 On ch=1 n=g#5 v=74
82806 Off ch=1 n=a5 v=64
82851 On ch=1 n=e5 v=70
82856 Par ch=1 c=64 v=0
82861 On ch=1 n=d5 v=80
82867 On ch=1 n=e4 v=67
82875 On ch=1 n=b4 v=52
82880 Off ch=1 n=g#5 v=64
82887 Par ch=1 c=64 v=127
82890 Par ch=1 c=64 v=0
82916 Par ch=1 c=64 v=127
82964 Off ch=1 n=d5 v=64
83057 Off ch=1 n=e4 v=64
83065 Off ch=1 n=b4 v=64
83085 On ch=1 n=g#5 v=79
83091 On ch=1 n=d5 v=78
83091 On ch=1 n=e4 v=70
83096 Off ch=1 n=e5 v=64
83096 On ch=1 n=b4 v=65
83108 Par ch=1 c=64 v=0
83126 Par ch=1 c=64 v=0
83136 Par ch=1 c=64 v=127
83155 Par ch=1 c=64 v=127
83235 Off ch=1 n=d5 v=64
83278 Off ch=1 n=e4 v=64
83283 Off ch=1 n=b4 v=64
83321 Off ch=1 n=g#5 v=64
83348 On ch=1 n=a5 v=83
83348 On ch=1 n=e4 v=67
83354 On ch=1 n=c5 v=78
83358 On ch=1 n=a3 v=61
83375 Par ch=1 c=64 v=0
83407 Par ch=1 c=64 v=127
83545 Par ch=1 c=64 v=0
83619 Par ch=1 c=64 v=127
83733 On ch=1 n=a2 v=84
83756 Off ch=1 n=e4 v=64
83766 Off ch=1 n=a3 v=64
83797 Par ch=1 c=64 v=0
83866 Par ch=1 c=64 v=0
83871 Par ch=1 c=64 v=127
83934 Off ch=1 n=a2 v=64
84013 Off ch=1 n=a5 v=64
84023 Off ch=1 n=c5 v=64
84118 Par ch=1 c=64 v=0
84118 Meta TrkEnd
TrkEnd
MTrk
0 Meta TrkName "Played by Dr. Ron Lubetsky"
0 Meta TrkEnd
TrkEnd
MTrk
0 Meta TrkName "Jan. 10, 1"
