MFile 1 7 240
MTrk
0 TimeSig 4/4 24 8
0 Tempo 500000
0 Meta Marker "Chopin: Mazurka, Op. 7 No. 3"
0 Meta TrkEnd
TrkEnd
MTrk
0 Meta TrkName "Chopin: Op. 7 No. 3"
0 PrCh ch=1 p=0
0 Par ch=1 c=7 v=127
116 Par ch=1 c=64 v=0
340 Par ch=1 c=64 v=127
368 Par ch=1 c=64 v=0
592 Par ch=1 c=64 v=127
731 Par ch=1 c=64 v=0
768 On ch=1 n=f3 v=61
773 On ch=1 n=c4 v=38
864 On ch=1 n=e3 v=71
882 Off ch=1 n=f3 v=64
964 On ch=1 n=c3 v=59
983 Par ch=1 c=64 v=0
988 Off ch=1 n=e3 v=64
1236 Par ch=1 c=64 v=127
1455 On ch=1 n=f3 v=54
1477 Off ch=1 n=c3 v=64
1488 Par ch=1 c=64 v=127
1680 On ch=1 n=c#4 v=46
1726 Off ch=1 n=c4 v=64
1919 On ch=1 n=b3 v=45
1957 Off ch=1 n=c#4 v=64
2141 Par ch=1 c=64 v=0
2184 On ch=1 n=c4 v=41
2193 Off ch=1 n=b3 v=64
2308 On ch=1 n=e3 v=41
2332 Off ch=1 n=f3 v=64
2367 Par ch=1 c=64 v=127
2393 Par ch=1 c=64 v=0
2413 On ch=1 n=c3 v=48
2448 Off ch=1 n=e3 v=64
2619 Par ch=1 c=64 v=127
2875 On ch=1 n=f3 v=54
2907 Off ch=1 n=c3 v=64
3126 On ch=1 n=c#4 v=41
3178 Off ch=1 n=c4 v=64
3347 On ch=1 n=b3 v=46
3365 Off ch=1 n=c#4 v=64
3600 On ch=1 n=c4 v=52
3633 Off ch=1 n=b3 v=64
3712 On ch=1 n=e3 v=48
3757 Off ch=1 n=f3 v=64
3832 On ch=1 n=c3 v=41
3849 Par ch=1 c=64 v=0
3854 Off ch=1 n=e3 v=64
4078 Par ch=1 c=64 v=127
4101 Par ch=1 c=64 v=0
4323 On ch=1 n=f3 v=48
4327 Par ch=1 c=64 v=0
4330 Par ch=1 c=64 v=127
4368 Off ch=1 n=c3 v=64
4419 Off ch=1 n=f3 v=64
4524 On ch=1 n=f3 v=46
4579 Par ch=1 c=64 v=0
4638 On ch=1 n=e3 v=54
4656 Off ch=1 n=f3 v=64
4718 Par ch=1 c=64 v=127
4739 On ch=1 n=c3 v=45
4766 Off ch=1 n=e3 v=64
4917 Par ch=1 c=64 v=0
4959 On ch=1 n=f3 v=47
4970 Par ch=1 c=64 v=127
4999 Off ch=1 n=c3 v=64
5045 Par ch=1 c=64 v=127
5070 On ch=1 n=e3 v=54
5080 Off ch=1 n=f3 v=64
5166 Par ch=1 c=64 v=0
5173 On ch=1 n=c3 v=43
5202 Off ch=1 n=e3 v=64
5294 Par ch=1 c=64 v=127
5326 Off ch=1 n=c3 v=64
5407 On ch=1 n=c3 v=43
5631 Par ch=1 c=64 v=0
5632 On ch=1 n=f3 v=46
5663 Off ch=1 n=c3 v=64
5674 Off ch=1 n=f3 v=64
5741 Par ch=1 c=64 v=127
5761 On ch=1 n=e3 v=43
5803 Off ch=1 n=e3 v=64
5853 On ch=1 n=f3 v=54
5883 Par ch=1 c=64 v=0
5895 Off ch=1 n=f3 v=64
5974 On ch=1 n=e3 v=58
5993 Par ch=1 c=64 v=127
6016 Off ch=1 n=e3 v=64
6077 Par ch=1 c=64 v=127
6095 On ch=1 n=c3 v=55
6127 Par ch=1 c=64 v=0
6137 Off ch=1 n=c3 v=64
6195 Par ch=1 c=64 v=127
6216 On ch=1 n=c3 v=55
6234 Off ch=1 n=c4 v=64
6258 Off ch=1 n=c3 v=64
6329 Par ch=1 c=64 v=127
6369 On ch=1 n=f5 v=45
6377 On ch=1 n=f3 v=27
6379 Par ch=1 c=64 v=0
6383 Par ch=1 c=64 v=0
6419 Par ch=1 c=64 v=127
6442 Off ch=1 n=f3 v=64
6447 Par ch=1 c=64 v=127
6561 On ch=1 n=g5 v=35
6585 Off ch=1 n=f5 v=64
6602 On ch=1 n=f3 v=33
6608 On ch=1 n=c4 v=37
6625 On ch=1 n=g#5 v=46
6628 On ch=1 n=g#4 v=46
6635 Par ch=1 c=64 v=0
6661 Off ch=1 n=g5 v=64
6671 Par ch=1 c=64 v=127
6681 Off ch=1 n=c4 v=64
6681 Off ch=1 n=f3 v=64
6682 Off ch=1 n=g#4 v=64
6714 On ch=1 n=a#5 v=48
6741 Off ch=1 n=g#5 v=64
6795 On ch=1 n=f3 v=39
6802 On ch=1 n=g#4 v=33
6810 On ch=1 n=c6 v=52
6812 On ch=1 n=c4 v=20
6833 Off ch=1 n=a#5 v=64
6864 Par ch=1 c=64 v=0
6887 On ch=1 n=g#5 v=62
6918 Par ch=1 c=64 v=127
6923 Off ch=1 n=c6 v=64
6943 Off ch=1 n=f3 v=64
6960 Off ch=1 n=c4 v=64
6964 Off ch=1 n=g#4 v=64
6967 Off ch=1 n=g#5 v=64
6977 On ch=1 n=g5 v=44
7002 On ch=1 n=g#5 v=50
7032 Off ch=1 n=g5 v=64
7051 On ch=1 n=g5 v=48
7073 Off ch=1 n=g#5 v=64
7113 Par ch=1 c=64 v=0
7120 On ch=1 n=g#4 v=41
7126 On ch=1 n=c4 v=31
7126 On ch=1 n=f3 v=27
7148 On ch=1 n=f5 v=44
7160 Off ch=1 n=g5 v=64
7167 Par ch=1 c=64 v=127
7186 Off ch=1 n=f3 v=64
7191 Off ch=1 n=c4 v=64
7207 Off ch=1 n=g#4 v=64
7231 Par ch=1 c=64 v=0
7241 Par ch=1 c=64 v=127
7306 On ch=1 n=g#4 v=36
7309 On ch=1 n=f3 v=40
7313 On ch=1 n=f6 v=52
7318 On ch=1 n=c4 v=35
7378 Off ch=1 n=c4 v=64
7382 Par ch=1 c=64 v=0
7391 Off ch=1 n=f5 v=64
7392 Off ch=1 n=f3 v=64
7436 Par ch=1 c=64 v=127
7440 Off ch=1 n=g#4 v=64
7476 On ch=1 n=a#5 v=57
7480 Par ch=1 c=64 v=0
7488 Off ch=1 n=f6 v=64
7493 Par ch=1 c=64 v=127
7571 Par ch=1 c=64 v=0
7592 Par ch=1 c=64 v=127
7600 On ch=1 n=a#3 v=46
7607 On ch=1 n=c6 v=53
7629 Off ch=1 n=a#5 v=64
7634 Par ch=1 c=64 v=0
7648 On ch=1 n=f4 v=27
7650 On ch=1 n=c#5 v=46
7656 On ch=1 n=c#6 v=62
7688 Par ch=1 c=64 v=127
7692 Off ch=1 n=a#3 v=64
7692 Off ch=1 n=c6 v=64
7715 Par ch=1 c=64 v=0
7739 Par ch=1 c=64 v=127
7742 Off ch=1 n=c#5 v=64
7748 On ch=1 n=d#6 v=54
7764 Off ch=1 n=f4 v=64
7782 Off ch=1 n=c#6 v=64
7801 On ch=1 n=c#5 v=63
7808 On ch=1 n=a#3 v=55
7815 On ch=1 n=f6 v=61
7816 On ch=1 n=f4 v=27
7823 Par ch=1 c=64 v=0
7844 Par ch=1 c=64 v=127
7853 Off ch=1 n=d#6 v=64
7869 Par ch=1 c=64 v=0
7892 On ch=1 n=c#6 v=68
7902 Off ch=1 n=c#5 v=64
7912 Off ch=1 n=f6 v=64
7922 Par ch=1 c=64 v=127
7928 Off ch=1 n=c#6 v=64
7932 Off ch=1 n=f4 v=64
7932 Off ch=1 n=a#3 v=64
7967 Par ch=1 c=64 v=0
7974 On ch=1 n=c#6 v=67
7991 Par ch=1 c=64 v=127
8015 Off ch=1 n=c#6 v=64
8016 On ch=1 n=d#6 v=58
8043 Par ch=1 c=64 v=0
8053 On ch=1 n=c#6 v=66
8080 Par ch=1 c=64 v=127
8090 Off ch=1 n=d#6 v=64
8121 Par ch=1 c=64 v=0
8129 On ch=1 n=c6 v=58
8133 On ch=1 n=f3 v=28
8134 On ch=1 n=c4 v=52
8139 Off ch=1 n=c#6 v=64
8139 On ch=1 n=g#4 v=55
8165 Off ch=1 n=f3 v=64
8172 Off ch=1 n=c4 v=64
8174 Par ch=1 c=64 v=127
8181 Off ch=1 n=g#4 v=64
8191 Par ch=1 c=64 v=0
8230 Par ch=1 c=64 v=127
8276 Off ch=1 n=c6 v=64
8285 On ch=1 n=g#5 v=59
8285 On ch=1 n=f3 v=55
8292 On ch=1 n=g#4 v=61
8292 Par ch=1 c=64 v=0
8299 On ch=1 n=c4 v=44
8329 Par ch=1 c=64 v=127
8364 Par ch=1 c=64 v=0
8384 Par ch=1 c=64 v=127
8443 Par ch=1 c=64 v=0
8449 Off ch=1 n=c4 v=64
8449 On ch=1 n=f5 v=58
8457 Off ch=1 n=f3 v=64
8459 Off ch=1 n=g#4 v=64
8477 Off ch=1 n=g#5 v=64
8482 Par ch=1 c=64 v=127
8518 Par ch=1 c=64 v=0
8548 Par ch=1 c=64 v=127
8577 On ch=1 n=g5 v=58
8586 On ch=1 n=f3 v=58
8598 Off ch=1 n=f5 v=64
8607 On ch=1 n=c4 v=28
8614 On ch=1 n=g#5 v=61
8616 Par ch=1 c=64 v=0
8622 On ch=1 n=g#4 v=62
8636 Par ch=1 c=64 v=127
8654 Off ch=1 n=f3 v=64
8657 Off ch=1 n=g5 v=64
8657 Off ch=1 n=g#4 v=64
8658 Off ch=1 n=c4 v=64
8682 Par ch=1 c=64 v=0
8699 Par ch=1 c=64 v=127
8704 On ch=1 n=a#5 v=54
8734 Off ch=1 n=g#5 v=64
8769 On ch=1 n=g#4 v=67
8770 Par ch=1 c=64 v=0
8776 On ch=1 n=c4 v=55
8776 On ch=1 n=f3 v=54
8783 On ch=1 n=c6 v=57
8800 Par ch=1 c=64 v=127
8811 Off ch=1 n=a#5 v=64
8831 Par ch=1 c=64 v=0
8842 On ch=1 n=g#5 v=74
8871 Off ch=1 n=c6 v=64
8871 Par ch=1 c=64 v=127
8887 Off ch=1 n=c4 v=64
8910 Off ch=1 n=g#5 v=64
8921 On ch=1 n=g5 v=58
8931 Par ch=1 c=64 v=0
8937 Off ch=1 n=f3 v=64
8942 On ch=1 n=g#5 v=67
8945 Off ch=1 n=g#4 v=64
8948 Par ch=1 c=64 v=127
8963 Off ch=1 n=g5 v=64
8986 Par ch=1 c=64 v=0
8989 On ch=1 n=g5 v=63
9000 Off ch=1 n=g#5 v=64
9012 Par ch=1 c=64 v=127
9076 On ch=1 n=f5 v=55
9080 Par ch=1 c=64 v=0
9084 On ch=1 n=g#4 v=66
9085 On ch=1 n=f3 v=57
9091 On ch=1 n=c4 v=52
9117 Off ch=1 n=g5 v=64
9120 Par ch=1 c=64 v=127
9127 Off ch=1 n=c4 v=64
9128 Off ch=1 n=f3 v=64
9133 Off ch=1 n=g#4 v=64
9155 Par ch=1 c=64 v=0
9169 Par ch=1 c=64 v=127
9236 On ch=1 n=c6 v=65
9236 On ch=1 n=g#4 v=52
9238 Par ch=1 c=64 v=0
9245 On ch=1 n=f3 v=53
9257 On ch=1 n=c4 v=40
9264 Par ch=1 c=64 v=127
9271 Off ch=1 n=f5 v=64
9295 Off ch=1 n=c6 v=64
9310 Off ch=1 n=f3 v=64
9314 Par ch=1 c=64 v=0
9323 Off ch=1 n=c4 v=64
9333 Par ch=1 c=64 v=127
9339 Off ch=1 n=g#4 v=64
9369 On ch=1 n=c6 v=68
9398 On ch=1 n=c5 v=70
9404 Par ch=1 c=64 v=0
9411 Off ch=1 n=c6 v=64
9418 Par ch=1 c=64 v=127
9470 Par ch=1 c=64 v=0
9501 On ch=1 n=d5 v=55
9505 Par ch=1 c=64 v=127
9526 Off ch=1 n=c5 v=64
9555 On ch=1 n=d#4 v=57
9556 On ch=1 n=d#5 v=61
9556 On ch=1 n=g4 v=46
9561 On ch=1 n=g3 v=46
9563 Par ch=1 c=64 v=0
9585 Par ch=1 c=64 v=127
9599 Off ch=1 n=g3 v=64
9601 Off ch=1 n=d5 v=64
9603 Off ch=1 n=g4 v=64
9608 Off ch=1 n=d#4 v=64
9614 Par ch=1 c=64 v=0
9637 On ch=1 n=f5 v=63
9653 Par ch=1 c=64 v=127
9676 Off ch=1 n=d#5 v=64
9716 On ch=1 n=g3 v=54
9722 Par ch=1 c=64 v=0
9728 On ch=1 n=g5 v=68
9728 On ch=1 n=g4 v=48
9729 On ch=1 n=d4 v=33
9750 Off ch=1 n=f5 v=64
9757 Par ch=1 c=64 v=127
9773 Off ch=1 n=d4 v=64
9773 Off ch=1 n=g3 v=64
9794 On ch=1 n=b4 v=68
9796 Off ch=1 n=g4 v=64
9806 Par ch=1 c=64 v=0
9808 Off ch=1 n=g5 v=64
9844 Par ch=1 c=64 v=127
9863 Par ch=1 c=64 v=0
9880 On ch=1 n=c5 v=70
9899 Off ch=1 n=b4 v=64
9902 Par ch=1 c=64 v=127
10021 On ch=1 n=c4 v=61
10036 Par ch=1 c=64 v=0
10041 On ch=1 n=g4 v=62
10058 Par ch=1 c=64 v=0
10063 Par ch=1 c=64 v=127
10066 On ch=1 n=e5 v=65
10096 Par ch=1 c=64 v=127
10099 Off ch=1 n=c4 v=64
10111 Off ch=1 n=g4 v=64
10119 Off ch=1 n=c5 v=64
10125 Off ch=1 n=e5 v=64
10170 On ch=1 n=c5 v=63
10232 Off ch=1 n=c5 v=64
10239 On ch=1 n=c4 v=27
10247 On ch=1 n=c#5 v=67
10247 On ch=1 n=a#4 v=55
10257 On ch=1 n=e5 v=45
10274 On ch=1 n=d#5 v=67
10283 Off ch=1 n=c#5 v=64
10285 Par ch=1 c=64 v=0
10307 On ch=1 n=c#5 v=65
10312 Par ch=1 c=64 v=127
10328 Off ch=1 n=d#5 v=64
10335 Off ch=1 n=e5 v=64
10359 Off ch=1 n=a#4 v=64
10368 Par ch=1 c=64 v=0
10382 Off ch=1 n=c4 v=64
10397 On ch=1 n=c5 v=65
10423 Off ch=1 n=c#5 v=64
10423 Par ch=1 c=64 v=127
10473 Off ch=1 n=c5 v=64
10478 On ch=1 n=f5 v=50
10547 Par ch=1 c=64 v=0
10593 Par ch=1 c=64 v=127
10598 On ch=1 n=g5 v=54
10613 Off ch=1 n=f5 v=64
10620 On ch=1 n=f3 v=40
10620 Par ch=1 c=64 v=0
10631 On ch=1 n=g#5 v=53
10637 On ch=1 n=c4 v=48
10644 On ch=1 n=g#4 v=57
10662 Off ch=1 n=g5 v=64
10672 Par ch=1 c=64 v=127
10682 Off ch=1 n=f3 v=64
10686 Off ch=1 n=c4 v=64
10693 Off ch=1 n=g#4 v=64
10699 Par ch=1 c=64 v=0
10717 On ch=1 n=a#5 v=46
10745 Par ch=1 c=64 v=127
10749 Off ch=1 n=g#5 v=64
10793 On ch=1 n=f3 v=46
10796 Par ch=1 c=64 v=0
10800 On ch=1 n=c6 v=54
10800 On ch=1 n=g#4 v=33
10810 On ch=1 n=c4 v=31
10833 Off ch=1 n=a#5 v=64
10842 Par ch=1 c=64 v=127
10852 On ch=1 n=g#5 v=63
10874 Par ch=1 c=64 v=0
10876 Off ch=1 n=c6 v=64
10900 Par ch=1 c=64 v=127
10911 Off ch=1 n=g#5 v=64
10939 On ch=1 n=g5 v=59
10948 Par ch=1 c=64 v=0
10954 Off ch=1 n=f3 v=64
10954 On ch=1 n=g#5 v=65
10959 Off ch=1 n=c4 v=64
10962 Off ch=1 n=g5 v=64
10970 Off ch=1 n=g#4 v=64
10990 On ch=1 n=g5 v=58
10994 Par ch=1 c=64 v=127
11020 Off ch=1 n=g#5 v=64
11039 Par ch=1 c=64 v=0
11070 Par ch=1 c=64 v=127
11109 On ch=1 n=f3 v=40
11115 On ch=1 n=f5 v=50
11121 On ch=1 n=g#4 v=37
11126 Par ch=1 c=64 v=0
11131 On ch=1 n=c4 v=26
11139 Off ch=1 n=g5 v=64
11149 Par ch=1 c=64 v=127
11174 Off ch=1 n=c4 v=64
11174 Off ch=1 n=f3 v=64
11184 Off ch=1 n=g#4 v=64
11285 On ch=1 n=g#4 v=50
11286 On ch=1 n=f3 v=52
11288 On ch=1 n=f6 v=59
11288 Par ch=1 c=64 v=0
11296 On ch=1 n=c4 v=49
11319 Par ch=1 c=64 v=127
11345 Off ch=1 n=f6 v=64
11347 Off ch=1 n=f3 v=64
11355 Off ch=1 n=c4 v=64
11366 Par ch=1 c=64 v=0
11368 Off ch=1 n=f5 v=64
11400 Par ch=1 c=64 v=127
11424 Off ch=1 n=g#4 v=64
11434 On ch=1 n=a#5 v=61
11508 Par ch=1 c=64 v=0
11541 Par ch=1 c=64 v=127
11563 On ch=1 n=c6 v=57
11570 Off ch=1 n=a#5 v=64
11578 On ch=1 n=a#3 v=53
11594 On ch=1 n=c#5 v=46
11598 On ch=1 n=f4 v=46
11604 On ch=1 n=c#6 v=63
11615 Par ch=1 c=64 v=0
11639 Off ch=1 n=c6 v=64
11644 Off ch=1 n=a#3 v=64
11649 Par ch=1 c=64 v=127
11654 Par ch=1 c=64 v=0
11656 Off ch=1 n=f4 v=64
11662 Off ch=1 n=c#5 v=64
11684 On ch=1 n=d#6 v=63
11695 Par ch=1 c=64 v=127
11713 Off ch=1 n=c#6 v=64
11759 On ch=1 n=f6 v=62
11760 Par ch=1 c=64 v=0
11768 On ch=1 n=c#5 v=52
11770 On ch=1 n=f4 v=50
11770 On ch=1 n=a#3 v=57
11780 Off ch=1 n=d#6 v=64
11790 Par ch=1 c=64 v=127
11811 Par ch=1 c=64 v=0
11833 Off ch=1 n=f6 v=64
11833 On ch=1 n=c#6 v=65
11839 Off ch=1 n=f4 v=64
11845 Off ch=1 n=c#5 v=64
11855 Par ch=1 c=64 v=127
11865 Off ch=1 n=c#6 v=64
11882 Off ch=1 n=a#3 v=64
11900 Par ch=1 c=64 v=0
11906 On ch=1 n=c#6 v=68
11929 On ch=1 n=d#6 v=66
11941 Par ch=1 c=64 v=127
11950 Off ch=1 n=c#6 v=64
11973 On ch=1 n=c#6 v=55
11990 Off ch=1 n=d#6 v=64
11991 Par ch=1 c=64 v=0
12022 Par ch=1 c=64 v=127
12060 Par ch=1 c=64 v=0
12068 On ch=1 n=c6 v=58
12068 On ch=1 n=g#4 v=54
12068 On ch=1 n=f3 v=50
12078 On ch=1 n=c4 v=40
12088 Off ch=1 n=c#6 v=64
12098 Off ch=1 n=f3 v=64
12098 Par ch=1 c=64 v=127
12108 Off ch=1 n=c4 v=64
12111 Off ch=1 n=g#4 v=64
12153 Par ch=1 c=64 v=0
12178 Par ch=1 c=64 v=127
12232 On ch=1 n=g#5 v=59
12237 On ch=1 n=f3 v=55
12237 Par ch=1 c=64 v=0
12241 On ch=1 n=g#4 v=49
12248 On ch=1 n=c4 v=37
12249 Off ch=1 n=c6 v=64
12268 Par ch=1 c=64 v=127
12298 Off ch=1 n=c4 v=64
12304 Par ch=1 c=64 v=0
12334 Par ch=1 c=64 v=127
12396 On ch=1 n=f5 v=58
12405 Par ch=1 c=64 v=0
12409 Off ch=1 n=g#5 v=64
12413 Off ch=1 n=f3 v=64
12415 Off ch=1 n=g#4 v=64
12430 Par ch=1 c=64 v=127
12468 Par ch=1 c=64 v=0
12500 Par ch=1 c=64 v=127
12521 On ch=1 n=g5 v=62
12543 Off ch=1 n=f5 v=64
12553 Par ch=1 c=64 v=0
12558 On ch=1 n=g#4 v=72
12558 On ch=1 n=f3 v=40
12563 On ch=1 n=g#5 v=62
12563 On ch=1 n=c4 v=58
12583 Par ch=1 c=64 v=127
12588 Off ch=1 n=f3 v=64
12590 Off ch=1 n=c4 v=64
12594 Off ch=1 n=g#4 v=64
12594 Off ch=1 n=g5 v=64
12645 On ch=1 n=a#5 v=62
12673 Off ch=1 n=g#5 v=64
12713 On ch=1 n=f3 v=59
12717 On ch=1 n=g#4 v=70
12717 Par ch=1 c=64 v=0
12723 On ch=1 n=c4 v=35
12727 On ch=1 n=c6 v=65
12738 On ch=1 n=f5 v=24
12749 Par ch=1 c=64 v=127
12759 Off ch=1 n=a#5 v=64
12778 Off ch=1 n=c4 v=64
12786 On ch=1 n=g#5 v=68
12798 Par ch=1 c=64 v=0
12809 Off ch=1 n=c6 v=64
12813 Par ch=1 c=64 v=127
12815 Off ch=1 n=f5 v=64
12845 Off ch=1 n=g#5 v=64
12868 On ch=1 n=g5 v=52
12878 Off ch=1 n=f3 v=64
12882 Off ch=1 n=g#4 v=64
12885 On ch=1 n=g#5 v=75
12905 Off ch=1 n=g5 v=64
12928 On ch=1 n=g5 v=67
12946 Off ch=1 n=g#5 v=64
13035 On ch=1 n=g#4 v=52
13042 On ch=1 n=f5 v=62
13042 On ch=1 n=f3 v=57
13050 Par ch=1 c=64 v=0
13054 On ch=1 n=c4 v=40
13059 Off ch=1 n=g5 v=64
13065 Par ch=1 c=64 v=127
13095 Off ch=1 n=c4 v=64
13095 Off ch=1 n=f3 v=64
13109 Off ch=1 n=g#4 v=64
13110 Par ch=1 c=64 v=0
13166 Par ch=1 c=64 v=127
13208 On ch=1 n=g#4 v=62
13208 On ch=1 n=f3 v=62
13215 On ch=1 n=c6 v=68
13216 On ch=1 n=c4 v=65
13237 Off ch=1 n=f5 v=64
13261 Off ch=1 n=c6 v=64
13263 Off ch=1 n=f3 v=64
13267 Off ch=1 n=c4 v=64
13285 Par ch=1 c=64 v=0
13306 Off ch=1 n=g#4 v=64
13326 Par ch=1 c=64 v=127
13343 On ch=1 n=c6 v=74
13362 Par ch=1 c=64 v=0
13383 On ch=1 n=c5 v=75
13388 Off ch=1 n=c6 v=64
13418 Par ch=1 c=64 v=127
13457 Par ch=1 c=64 v=0
13500 On ch=1 n=d5 v=59
13515 Par ch=1 c=64 v=127
13518 Off ch=1 n=c5 v=64
13533 On ch=1 n=d#4 v=61
13537 Par ch=1 c=64 v=0
13541 On ch=1 n=g4 v=49
13543 On ch=1 n=g3 v=57
13549 On ch=1 n=d#5 v=63
13578 Par ch=1 c=64 v=127
13588 Off ch=1 n=d#4 v=64
13591 Off ch=1 n=g3 v=64
13592 Off ch=1 n=g4 v=64
13602 Off ch=1 n=d5 v=64
13620 Par ch=1 c=64 v=0
13628 On ch=1 n=f5 v=62
13640 Off ch=1 n=d#5 v=64
13697 Par ch=1 c=64 v=127
13706 Par ch=1 c=64 v=0
13715 On ch=1 n=g3 v=55
13719 On ch=1 n=g5 v=71
13719 On ch=1 n=g4 v=45
13719 On ch=1 n=d4 v=57
13749 Off ch=1 n=f5 v=64
13757 Off ch=1 n=d4 v=64
13759 Off ch=1 n=g3 v=64
13764 Par ch=1 c=64 v=127
13789 On ch=1 n=b4 v=67
13795 Off ch=1 n=g4 v=64
13802 Par ch=1 c=64 v=0
13812 Off ch=1 n=g5 v=64
13838 Par ch=1 c=64 v=127
13872 Par ch=1 c=64 v=0
13886 On ch=1 n=c5 v=72
13900 Off ch=1 n=b4 v=64
13949 Par ch=1 c=64 v=127
14054 Par ch=1 c=64 v=0
14066 On ch=1 n=c4 v=79
14090 Par ch=1 c=64 v=127
14259 On ch=1 n=c6 v=37
14314 Par ch=1 c=64 v=0
14364 Par ch=1 c=64 v=127
14419 On ch=1 n=a#5 v=35
14430 Off ch=1 n=c6 v=64
14460 Off ch=1 n=c5 v=64
14492 Par ch=1 c=64 v=0
14501 On ch=1 n=g#5 v=28
14511 Par ch=1 c=64 v=127
14543 Off ch=1 n=a#5 v=64
14566 Par ch=1 c=64 v=0
14578 On ch=1 n=g5 v=40
14581 On ch=1 n=c5 v=39
14596 Off ch=1 n=g#5 v=64
14597 Off ch=1 n=c4 v=64
14616 Par ch=1 c=64 v=127
14655 Off ch=1 n=c5 v=64
14665 Par ch=1 c=64 v=0
14688 Par ch=1 c=64 v=127
14730 Off ch=1 n=g5 v=64
14741 On ch=1 n=c5 v=35
14741 Par ch=1 c=64 v=0
14750 On ch=1 n=g5 v=37
14760 Par ch=1 c=64 v=127
14814 Off ch=1 n=c5 v=64
14815 On ch=1 n=g#5 v=39
14817 Par ch=1 c=64 v=0
14829 Par ch=1 c=64 v=127
14843 Off ch=1 n=g5 v=64
14900 On ch=1 n=f5 v=35
14900 On ch=1 n=c5 v=32
14904 On ch=1 n=f4 v=31
14907 On ch=1 n=g#4 v=24
14917 Par ch=1 c=64 v=0
14934 Off ch=1 n=g#5 v=64
14940 Par ch=1 c=64 v=127
14952 Off ch=1 n=g#4 v=64
14956 Off ch=1 n=f4 v=64
14962 Off ch=1 n=c5 v=64
14980 On ch=1 n=g5 v=33
15008 Off ch=1 n=f5 v=64
15055 On ch=1 n=g#4 v=26
15058 On ch=1 n=g#5 v=42
15062 On ch=1 n=c5 v=28
15064 On ch=1 n=f4 v=32
15069 Par ch=1 c=64 v=0
15081 Par ch=1 c=64 v=127
15100 Off ch=1 n=g5 v=64
15101 Off ch=1 n=g#4 v=64
15104 Off ch=1 n=f4 v=64
15114 Off ch=1 n=c5 v=64
15152 Par ch=1 c=64 v=0
15190 Par ch=1 c=64 v=127
15207 Off ch=1 n=g#5 v=64
15228 On ch=1 n=g#5 v=44
15232 On ch=1 n=g#4 v=22
15237 On ch=1 n=c5 v=26
15239 On ch=1 n=f4 v=22
15284 Off ch=1 n=f4 v=64
15293 Off ch=1 n=g#4 v=64
15296 Off ch=1 n=c5 v=64
15305 On ch=1 n=c6 v=37
15330 Off ch=1 n=g#5 v=64
15388 On ch=1 n=a#5 v=33
15391 On ch=1 n=f4 v=28
15395 On ch=1 n=c5 v=29
15396 On ch=1 n=g4 v=32
15404 Par ch=1 c=64 v=0
15411 Off ch=1 n=c6 v=64
15440 Off ch=1 n=f4 v=64
15442 Par ch=1 c=64 v=127
15456 Off ch=1 n=g4 v=64
15462 Par ch=1 c=64 v=0
15463 On ch=1 n=g#5 v=39
15465 Off ch=1 n=c5 v=64
15482 Off ch=1 n=a#5 v=64
15501 On ch=1 n=g5 v=28
15504 Par ch=1 c=64 v=127
15515 Off ch=1 n=g#5 v=64
15529 On ch=1 n=g#5 v=50
15539 Off ch=1 n=g5 v=64
15557 On ch=1 n=c5 v=32
15561 On ch=1 n=g5 v=37
15561 On ch=1 n=f4 v=26
15565 On ch=1 n=a#4 v=37
15587 Off ch=1 n=g#5 v=64
15606 Off ch=1 n=f4 v=64
15620 Par ch=1 c=64 v=0
15623 Off ch=1 n=a#4 v=64
15634 Off ch=1 n=c5 v=64
15659 On ch=1 n=f5 v=42
15673 Par ch=1 c=64 v=127
15675 Off ch=1 n=g5 v=64
15714 Par ch=1 c=64 v=0
15719 On ch=1 n=g5 v=42
15723 On ch=1 n=a#4 v=37
15729 On ch=1 n=c5 v=33
15729 On ch=1 n=f4 v=31
15751 Off ch=1 n=f5 v=64
15756 Par ch=1 c=64 v=127
15779 Off ch=1 n=f4 v=64
15779 Off ch=1 n=a#4 v=64
15782 Off ch=1 n=c5 v=64
15800 On ch=1 n=g#5 v=42
15825 Off ch=1 n=g5 v=64
15872 Par ch=1 c=64 v=0
15880 On ch=1 n=f5 v=46
15880 On ch=1 n=f4 v=37
15886 On ch=1 n=c5 v=26
15893 On ch=1 n=g#4 v=28
15910 Off ch=1 n=g#5 v=64
15925 Par ch=1 c=64 v=127
15942 Off ch=1 n=g#4 v=64
15948 Off ch=1 n=f4 v=64
15958 Off ch=1 n=c5 v=64
15982 On ch=1 n=g5 v=37
16006 Off ch=1 n=f5 v=64
16029 On ch=1 n=g#5 v=48
16043 On ch=1 n=g#4 v=42
16043 On ch=1 n=f4 v=39
16050 On ch=1 n=c5 v=39
16074 Off ch=1 n=g5 v=64
16096 Off ch=1 n=g#4 v=64
16098 Off ch=1 n=f4 v=64
16108 Off ch=1 n=c5 v=64
16108 On ch=1 n=a#5 v=41
16145 Off ch=1 n=g#5 v=64
16145 Par ch=1 c=64 v=0
16174 Par ch=1 c=64 v=127
16191 On ch=1 n=a#4 v=37
16199 On ch=1 n=g#4 v=18
16199 On ch=1 n=f4 v=35
16201 On ch=1 n=c6 v=45
16219 Off ch=1 n=a#5 v=64
16240 Off ch=1 n=f4 v=64
16276 On ch=1 n=c#6 v=48
16290 Off ch=1 n=a#4 v=64
16302 Off ch=1 n=g#4 v=64
16311 Off ch=1 n=c6 v=64
16320 Off ch=1 n=c#6 v=64
16326 Par ch=1 c=64 v=0
16362 On ch=1 n=c#6 v=50
16364 Par ch=1 c=64 v=127
16397 Par ch=1 c=64 v=0
16404 On ch=1 n=d#3 v=53
16410 On ch=1 n=f6 v=45
16416 Off ch=1 n=c#6 v=64
16426 Par ch=1 c=64 v=127
16488 On ch=1 n=d#6 v=54
16531 Off ch=1 n=f6 v=64
16559 On ch=1 n=c#5 v=40
16563 On ch=1 n=g4 v=35
16563 On ch=1 n=d#4 v=42
16568 On ch=1 n=c#6 v=58
16576 Off ch=1 n=d#6 v=64
16578 Par ch=1 c=64 v=0
16600 On ch=1 n=d#6 v=53
16610 Off ch=1 n=c#6 v=64
16612 Off ch=1 n=g4 v=64
16613 Par ch=1 c=64 v=127
16623 Off ch=1 n=d#4 v=64
16624 Off ch=1 n=c#5 v=64
16627 On ch=1 n=c#6 v=49
16650 Off ch=1 n=d#6 v=64
16650 Par ch=1 c=64 v=0
16673 Par ch=1 c=64 v=127
16683 Off ch=1 n=d#3 v=64
16711 On ch=1 n=c6 v=49
16713 Off ch=1 n=c#6 v=64
16724 On ch=1 n=c#5 v=40
16730 On ch=1 n=g4 v=35
16732 On ch=1 n=d#4 v=36
16782 Off ch=1 n=g4 v=64
16790 Off ch=1 n=d#4 v=64
16791 On ch=1 n=a#5 v=58
16795 Off ch=1 n=c#5 v=64
16814 Par ch=1 c=64 v=0
16817 Off ch=1 n=c6 v=64
16832 Par ch=1 c=64 v=127
16886 On ch=1 n=g#3 v=46
16888 On ch=1 n=g#5 v=55
16892 Off ch=1 n=a#5 v=64
16902 Par ch=1 c=64 v=0
16925 Par ch=1 c=64 v=127
16964 On ch=1 n=a#5 v=55
16986 Off ch=1 n=g#5 v=64
17046 On ch=1 n=c6 v=50
17054 On ch=1 n=g#4 v=36
17056 On ch=1 n=d#4 v=31
17059 On ch=1 n=c5 v=28
17066 Par ch=1 c=64 v=0
17078 Off ch=1 n=a#5 v=64
17084 Par ch=1 c=64 v=127
17104 Off ch=1 n=d#4 v=64
17107 Off ch=1 n=c5 v=64
17107 Off ch=1 n=g#4 v=64
17131 Par ch=1 c=64 v=0
17154 Par ch=1 c=64 v=127
17173 Off ch=1 n=g#3 v=64
17185 Off ch=1 n=c6 v=64
17215 On ch=1 n=c6 v=48
17215 On ch=1 n=c5 v=39
17223 On ch=1 n=g#4 v=35
17223 On ch=1 n=d#4 v=42
17258 Off ch=1 n=c5 v=64
17266 Off ch=1 n=d#4 v=64
17272 Off ch=1 n=g#4 v=64
17279 Par ch=1 c=64 v=0
17281 On ch=1 n=c#6 v=48
17313 Par ch=1 c=64 v=127
17327 Off ch=1 n=c6 v=64
17367 On ch=1 n=f6 v=49
17367 On ch=1 n=d#3 v=54
17379 Off ch=1 n=c#6 v=64
17383 Par ch=1 c=64 v=0
17406 Par ch=1 c=64 v=127
17469 On ch=1 n=d#6 v=49
17481 Off ch=1 n=f6 v=64
17517 On ch=1 n=c#6 v=65
17531 On ch=1 n=d#4 v=41
17531 Par ch=1 c=64 v=0
17533 Off ch=1 n=d#6 v=64
17543 On ch=1 n=c#5 v=24
17544 On ch=1 n=g4 v=27
17550 On ch=1 n=d#6 v=57
17562 Par ch=1 c=64 v=127
17566 Off ch=1 n=c#6 v=64
17577 On ch=1 n=c#6 v=58
17584 Off ch=1 n=g4 v=64
17585 Off ch=1 n=d#4 v=64
17586 Off ch=1 n=c#5 v=64
17589 Par ch=1 c=64 v=0
17595 Off ch=1 n=d#6 v=64
17602 Par ch=1 c=64 v=127
17640 Off ch=1 n=d#3 v=64
17663 On ch=1 n=c6 v=54
17667 On ch=1 n=c#5 v=41
17674 On ch=1 n=g4 v=36
17679 On ch=1 n=d#4 v=39
17690 Off ch=1 n=c#6 v=64
17702 Off ch=1 n=c#5 v=64
17708 Off ch=1 n=g4 v=64
17717 Off ch=1 n=d#4 v=64
17740 On ch=1 n=a#5 v=62
17756 Off ch=1 n=c6 v=64
17814 On ch=1 n=g#5 v=53
17819 On ch=1 n=g#3 v=49
17836 Off ch=1 n=a#5 v=64
17841 Par ch=1 c=64 v=0
17851 Par ch=1 c=64 v=127
17878 On ch=1 n=a#5 v=46
17899 Off ch=1 n=g#5 v=64
17901 Par ch=1 c=64 v=0
17952 Par ch=1 c=64 v=127
17963 On ch=1 n=c6 v=50
17975 On ch=1 n=d#4 v=54
17985 On ch=1 n=g#4 v=36
17986 On ch=1 n=c5 v=35
17988 Off ch=1 n=a#5 v=64
18051 On ch=1 n=e4 v=54
18073 Par ch=1 c=64 v=0
18099 Off ch=1 n=g#4 v=64
18100 Off ch=1 n=c5 v=64
18100 Off ch=1 n=g#3 v=64
18103 Off ch=1 n=d#4 v=64
18103 Par ch=1 c=64 v=127
18131 On ch=1 n=f4 v=49
18135 On ch=1 n=c5 v=54
18135 On ch=1 n=g#4 v=35
18149 Off ch=1 n=e4 v=64
18153 Par ch=1 c=64 v=0
18194 Off ch=1 n=g#4 v=64
18195 Off ch=1 n=c5 v=64
18204 Par ch=1 c=64 v=127
18208 Off ch=1 n=f4 v=64
18243 Par ch=1 c=64 v=0
18250 Off ch=1 n=c6 v=64
18267 Par ch=1 c=64 v=127
18313 On ch=1 n=c5 v=35
18325 On ch=1 n=a#5 v=41
18325 Par ch=1 c=64 v=0
18332 On ch=1 n=f4 v=31
18335 On ch=1 n=g4 v=22
18355 Par ch=1 c=64 v=127
18378 Par ch=1 c=64 v=0
18397 Off ch=1 n=g4 v=64
18402 Off ch=1 n=c5 v=64
18404 Off ch=1 n=f4 v=64
18411 On ch=1 n=g#5 v=33
18423 Par ch=1 c=64 v=127
18441 Off ch=1 n=a#5 v=64
18477 On ch=1 n=a#4 v=37
18482 On ch=1 n=c5 v=33
18486 On ch=1 n=g5 v=42
18489 On ch=1 n=f4 v=28
18495 Par ch=1 c=64 v=0
18510 Off ch=1 n=g#5 v=64
18517 Off ch=1 n=f4 v=64
18519 Off ch=1 n=a#4 v=64
18519 Par ch=1 c=64 v=127
18528 Off ch=1 n=c5 v=64
18542 Par ch=1 c=64 v=0
18595 Par ch=1 c=64 v=127
18629 Off ch=1 n=g5 v=64
18630 Par ch=1 c=64 v=0
18641 On ch=1 n=a#4 v=40
18646 On ch=1 n=c5 v=36
18651 On ch=1 n=g5 v=46
18651 On ch=1 n=f4 v=28
18675 Par ch=1 c=64 v=127
18687 Off ch=1 n=c5 v=64
18690 Off ch=1 n=a#4 v=64
18695 Par ch=1 c=64 v=0
18698 Off ch=1 n=f4 v=64
18719 On ch=1 n=g#5 v=40
18735 Par ch=1 c=64 v=127
18744 Off ch=1 n=g5 v=64
18794 Par ch=1 c=64 v=0
18803 On ch=1 n=f5 v=41
18806 On ch=1 n=g#4 v=33
18807 On ch=1 n=c5 v=22
18813 On ch=1 n=f4 v=28
18820 Off ch=1 n=g#5 v=64
18847 Par ch=1 c=64 v=127
18851 Off ch=1 n=f4 v=64
18851 Off ch=1 n=g#4 v=64
18856 Off ch=1 n=c5 v=64
18879 On ch=1 n=g5 v=42
18885 Par ch=1 c=64 v=0
18900 Par ch=1 c=64 v=127
18915 Off ch=1 n=f5 v=64
18947 Par ch=1 c=64 v=0
18964 On ch=1 n=c5 v=28
18965 On ch=1 n=g#4 v=28
18970 On ch=1 n=g#5 v=45
18970 On ch=1 n=f4 v=28
18987 Par ch=1 c=64 v=127
18999 Off ch=1 n=g5 v=64
19009 Off ch=1 n=f4 v=64
19009 Off ch=1 n=g#4 v=64
19011 Off ch=1 n=c5 v=64
19041 Par ch=1 c=64 v=0
19051 Par ch=1 c=64 v=127
19101 Off ch=1 n=g#5 v=64
19116 On ch=1 n=g#5 v=52
19121 On ch=1 n=g#4 v=32
19125 On ch=1 n=f4 v=27
19129 On ch=1 n=c5 v=23
19131 Par ch=1 c=64 v=0
19146 Par ch=1 c=64 v=127
19174 Off ch=1 n=f4 v=64
19174 Off ch=1 n=g#4 v=64
19184 Off ch=1 n=c5 v=64
19194 Par ch=1 c=64 v=0
19197 On ch=1 n=c6 v=44
19206 Off ch=1 n=g#5 v=64
19216 Par ch=1 c=64 v=127
19266 On ch=1 n=a#5 v=45
19272 On ch=1 n=c5 v=20
19273 On ch=1 n=f4 v=14
19274 On ch=1 n=g4 v=24
19280 Off ch=1 n=c6 v=64
19290 Par ch=1 c=64 v=0
19300 Par ch=1 c=64 v=127
19312 Off ch=1 n=f4 v=64
19323 Off ch=1 n=g4 v=64
19330 Off ch=1 n=c5 v=64
19341 On ch=1 n=g#5 v=48
19346 Off ch=1 n=a#5 v=64
19386 On ch=1 n=g5 v=40
19402 Off ch=1 n=g#5 v=64
19410 On ch=1 n=g#5 v=66
19428 Off ch=1 n=g5 v=64
19430 On ch=1 n=c5 v=29
19430 On ch=1 n=a#4 v=28
19433 On ch=1 n=f4 v=27
19442 On ch=1 n=g5 v=59
19443 Par ch=1 c=64 v=0
19465 Par ch=1 c=64 v=127
19473 Off ch=1 n=g#5 v=64
19475 Off ch=1 n=f4 v=64
19476 Off ch=1 n=a#4 v=64
19492 Off ch=1 n=c5 v=64
19519 Par ch=1 c=64 v=0
19529 On ch=1 n=f5 v=44
19552 Off ch=1 n=g5 v=64
19553 Par ch=1 c=64 v=127
19589 On ch=1 n=a#4 v=29
19590 On ch=1 n=c5 v=24
19591 On ch=1 n=g5 v=46
19591 On ch=1 n=f4 v=24
19624 Off ch=1 n=f5 v=64
19639 Off ch=1 n=a#4 v=64
19640 Off ch=1 n=c5 v=64
19647 Off ch=1 n=f4 v=64
19671 Par ch=1 c=64 v=0
19677 On ch=1 n=g#5 v=52
19684 Par ch=1 c=64 v=127
19701 Off ch=1 n=g5 v=64
19747 On ch=1 n=c5 v=28
19753 On ch=1 n=f5 v=50
19753 On ch=1 n=f4 v=29
19757 On ch=1 n=g#4 v=31
19771 Off ch=1 n=g#5 v=64
19771 Par ch=1 c=64 v=0
19799 Off ch=1 n=g#4 v=64
19801 Off ch=1 n=f4 v=64
19805 Par ch=1 c=64 v=127
19816 Off ch=1 n=c5 v=64
19852 On ch=1 n=g5 v=41
19880 Off ch=1 n=f5 v=64
19901 On ch=1 n=g#5 v=46
19913 On ch=1 n=g#4 v=35
19914 On ch=1 n=c5 v=26
19917 On ch=1 n=f4 v=28
19918 Off ch=1 n=g5 v=64
19922 Par ch=1 c=64 v=0
19923 Par ch=1 c=64 v=0
19933 Par ch=1 c=64 v=127
19933 Par ch=1 c=64 v=127
19969 Off ch=1 n=f4 v=64
19969 Off ch=1 n=g#4 v=64
19971 On ch=1 n=a#5 v=39
19975 Off ch=1 n=c5 v=64
19975 Par ch=1 c=64 v=0
20000 Off ch=1 n=g#5 v=64
20014 Par ch=1 c=64 v=127
20054 On ch=1 n=c6 v=42
20060 On ch=1 n=a#4 v=35
20062 On ch=1 n=g#4 v=36
20063 On ch=1 n=f4 v=18
20079 Off ch=1 n=a#5 v=64
20116 Off ch=1 n=g#4 v=64
20117 Off ch=1 n=a#4 v=64
20122 On ch=1 n=c#6 v=48
20125 Off ch=1 n=f4 v=64
20136 Off ch=1 n=c6 v=64
20146 Par ch=1 c=64 v=0
20163 Par ch=1 c=64 v=127
20167 Off ch=1 n=c#6 v=64
20168 Par ch=1 c=64 v=0
20180 On ch=1 n=c#6 v=48
20182 Par ch=1 c=64 v=127
20208 On ch=1 n=f6 v=44
20211 On ch=1 n=d#3 v=52
20220 Off ch=1 n=c#6 v=64
20224 Par ch=1 c=64 v=0
20263 Par ch=1 c=64 v=127
20300 Par ch=1 c=64 v=0
20308 On ch=1 n=d#6 v=52
20314 Par ch=1 c=64 v=127
20328 Off ch=1 n=f6 v=64
20367 On ch=1 n=c#5 v=45
20368 On ch=1 n=g4 v=29
20369 On ch=1 n=d#4 v=39
20373 On ch=1 n=c#6 v=53
20389 Off ch=1 n=d#6 v=64
20398 Par ch=1 c=64 v=0
20405 On ch=1 n=d#6 v=46
20408 Off ch=1 n=g4 v=64
20411 Off ch=1 n=d#4 v=64
20413 Off ch=1 n=c#6 v=64
20415 Par ch=1 c=64 v=127
20427 On ch=1 n=c#6 v=46
20429 Off ch=1 n=c#5 v=64
20440 Par ch=1 c=64 v=0
20447 Off ch=1 n=d#6 v=64
20452 Par ch=1 c=64 v=127
20495 Off ch=1 n=d#3 v=64
20516 On ch=1 n=c6 v=50
20524 On ch=1 n=d#4 v=37
20527 On ch=1 n=c#5 v=37
20528 On ch=1 n=g4 v=29
20536 Off ch=1 n=c#6 v=64
20552 Par ch=1 c=64 v=0
20566 Par ch=1 c=64 v=127
20585 Par ch=1 c=64 v=0
20590 Off ch=1 n=g4 v=64
20596 Par ch=1 c=64 v=127
20596 On ch=1 n=a#5 v=62
20599 Off ch=1 n=d#4 v=64
20602 Off ch=1 n=c#5 v=64
20612 Off ch=1 n=c6 v=64
20674 On ch=1 n=g#5 v=55
20678 On ch=1 n=g#3 v=49
20688 Off ch=1 n=a#5 v=64
20692 Par ch=1 c=64 v=0
20704 Par ch=1 c=64 v=127
20739 On ch=1 n=a#5 v=57
20764 Off ch=1 n=g#5 v=64
20807 Off ch=1 n=a#5 v=64
20814 On ch=1 n=c6 v=49
20822 On ch=1 n=c5 v=37
20829 On ch=1 n=g#4 v=39
20830 On ch=1 n=d#4 v=39
20837 Par ch=1 c=64 v=0
20848 Par ch=1 c=64 v=127
20867 Off ch=1 n=d#4 v=64
20867 Off ch=1 n=g#4 v=64
20872 Off ch=1 n=c5 v=64
20886 Par ch=1 c=64 v=0
20910 Par ch=1 c=64 v=127
20969 Off ch=1 n=c6 v=64
20969 Off ch=1 n=g#3 v=64
20984 On ch=1 n=c5 v=29
20989 On ch=1 n=c6 v=48
20992 On ch=1 n=g#4 v=35
20992 On ch=1 n=d#4 v=35
21036 Off ch=1 n=c5 v=64
21040 Off ch=1 n=g#4 v=64
21045 On ch=1 n=c#6 v=45
21048 Par ch=1 c=64 v=0
21050 Off ch=1 n=d#4 v=64
21064 Par ch=1 c=64 v=127
21069 Off ch=1 n=c6 v=64
21125 On ch=1 n=f6 v=52
21125 On ch=1 n=d#3 v=49
21132 Off ch=1 n=c#6 v=64
21138 Par ch=1 c=64 v=0
21162 Par ch=1 c=64 v=127
21220 On ch=1 n=d#6 v=53
21237 Off ch=1 n=f6 v=64
21260 On ch=1 n=c#6 v=44
21271 Off ch=1 n=d#6 v=64
21288 On ch=1 n=d#6 v=54
21292 On ch=1 n=c#5 v=46
21300 Off ch=1 n=c#6 v=64
21300 Par ch=1 c=64 v=0
21305 On ch=1 n=d#4 v=19
21306 On ch=1 n=g4 v=28
21316 Par ch=1 c=64 v=127
21325 On ch=1 n=c#6 v=59
21336 Off ch=1 n=d#6 v=64
21352 Off ch=1 n=c#5 v=64
21358 Par ch=1 c=64 v=0
21377 Off ch=1 n=g4 v=64
21379 Off ch=1 n=d#4 v=64
21384 Par ch=1 c=64 v=127
21412 Off ch=1 n=d#3 v=64
21436 On ch=1 n=c6 v=46
21436 On ch=1 n=c#5 v=41
21440 On ch=1 n=g4 v=41
21451 On ch=1 n=d#4 v=39
21452 Off ch=1 n=c#6 v=64
21473 Off ch=1 n=c#5 v=64
21477 Off ch=1 n=g4 v=64
21491 Off ch=1 n=d#4 v=64
21508 On ch=1 n=a#5 v=63
21509 Par ch=1 c=64 v=0
21525 Par ch=1 c=64 v=127
21527 Off ch=1 n=c6 v=64
21600 On ch=1 n=g#5 v=63
21603 On ch=1 n=g#3 v=54
21610 Par ch=1 c=64 v=0
21615 Off ch=1 n=a#5 v=64
21636 Par ch=1 c=64 v=127
21699 On ch=1 n=a#5 v=57
21731 Off ch=1 n=g#5 v=64
21747 On ch=1 n=d#4 v=50
21754 On ch=1 n=c6 v=61
21754 On ch=1 n=c5 v=49
21761 Par ch=1 c=64 v=0
21773 Off ch=1 n=a#5 v=64
21777 Par ch=1 c=64 v=127
21819 Par ch=1 c=64 v=0
21843 Par ch=1 c=64 v=127
21860 Par ch=1 c=64 v=0
21863 Off ch=1 n=d#4 v=64
21881 Off ch=1 n=c5 v=64
21889 Off ch=1 n=g#3 v=64
21896 Par ch=1 c=64 v=127
21901 On ch=1 n=g#3 v=78
21902 On ch=1 n=g#5 v=84
21921 Off ch=1 n=c6 v=64
21964 Par ch=1 c=64 v=0
21987 Off ch=1 n=g#3 v=64
21987 On ch=1 n=c6 v=67
21997 Par ch=1 c=64 v=127
22017 Off ch=1 n=g#5 v=64
22023 On ch=1 n=g#3 v=78
22045 On ch=1 n=g#4 v=70
22045 On ch=1 n=d#4 v=42
22046 On ch=1 n=d#6 v=62
22052 On ch=1 n=c5 v=74
22056 On ch=1 n=f#5 v=74
22057 On ch=1 n=g#5 v=70
22068 Par ch=1 c=64 v=0
22070 Off ch=1 n=c6 v=64
22084 Off ch=1 n=f#5 v=64
22092 Par ch=1 c=64 v=127
22094 Off ch=1 n=g#5 v=64
22109 Par ch=1 c=64 v=0
22130 Off ch=1 n=d#4 v=64
22135 Off ch=1 n=c5 v=64
22145 Par ch=1 c=64 v=127
22155 Off ch=1 n=g#4 v=64
22158 Off ch=1 n=d#6 v=64
22169 On ch=1 n=g#5 v=70
22169 On ch=1 n=f#5 v=58
22174 On ch=1 n=d#6 v=46
22197 Off ch=1 n=f#5 v=64
22206 Off ch=1 n=g#5 v=64
22213 Par ch=1 c=64 v=0
22225 On ch=1 n=f6 v=70
22225 On ch=1 n=f#5 v=65
22228 On ch=1 n=g#4 v=70
22229 On ch=1 n=g#5 v=57
22232 On ch=1 n=c5 v=70
22233 On ch=1 n=f6 v=70
22240 Off ch=1 n=f6 v=64
22241 On ch=1 n=d#4 v=58
22245 Off ch=1 n=d#6 v=64
22249 Par ch=1 c=64 v=127
22289 Off ch=1 n=g#5 v=64
22290 Off ch=1 n=f#5 v=64
22302 Par ch=1 c=64 v=0
22320 Off ch=1 n=c5 v=64
22336 Par ch=1 c=64 v=127
22338 Off ch=1 n=g#4 v=64
22343 Off ch=1 n=d#4 v=64
22388 On ch=1 n=f#5 v=74
22389 On ch=1 n=g#5 v=70
22392 On ch=1 n=d#6 v=67
22402 On ch=1 n=c5 v=58
22402 On ch=1 n=g#4 v=59
22406 On ch=1 n=d#4 v=58
22407 Off ch=1 n=f6 v=64
22432 Off ch=1 n=g#5 v=64
22435 Off ch=1 n=f#5 v=64
22508 Off ch=1 n=d#4 v=64
22513 Off ch=1 n=c5 v=64
22520 Par ch=1 c=64 v=0
22521 Off ch=1 n=g#4 v=64
22542 On ch=1 n=c#4 v=59
22543 Off ch=1 n=g#3 v=64
22550 On ch=1 n=g#5 v=70
22551 Par ch=1 c=64 v=0
22557 On ch=1 n=c#6 v=70
22557 On ch=1 n=f5 v=68
22558 On ch=1 n=g#4 v=55
22562 Off ch=1 n=d#6 v=64
22563 On ch=1 n=c#5 v=74
22585 Par ch=1 c=64 v=127
22587 Off ch=1 n=g#5 v=64
22589 Par ch=1 c=64 v=127
22590 Off ch=1 n=f5 v=64
22615 Off ch=1 n=g#4 v=64
22620 Off ch=1 n=c#5 v=64
22674 Off ch=1 n=c#4 v=64
22686 Par ch=1 c=64 v=0
22694 On ch=1 n=f6 v=70
22698 Par ch=1 c=64 v=0
22698 On ch=1 n=f5 v=70
22699 On ch=1 n=g#5 v=36
22709 Off ch=1 n=c#6 v=64
22710 On ch=1 n=c#4 v=41
22719 Par ch=1 c=64 v=127
22725 Off ch=1 n=g#5 v=64
22731 Par ch=1 c=64 v=127
22739 On ch=1 n=g#4 v=3
22741 Off ch=1 n=f5 v=64
22749 On ch=1 n=g#5 v=75
22752 On ch=1 n=g#6 v=78
22753 On ch=1 n=c#6 v=78
22769 Par ch=1 c=64 v=0
22779 On ch=1 n=f5 v=84
22802 Off ch=1 n=f6 v=64
22818 Par ch=1 c=64 v=0
22838 Par ch=1 c=64 v=127
22870 Par ch=1 c=64 v=127
22935 Par ch=1 c=64 v=0
22947 Par ch=1 c=64 v=0
22971 Par ch=1 c=64 v=127
22983 Par ch=1 c=64 v=127
22991 Par ch=1 c=64 v=0
23037 Par ch=1 c=64 v=127
23070 Par ch=1 c=64 v=0
23074 Off ch=1 n=c#4 v=64
23075 Off ch=1 n=g#4 v=64
23079 Off ch=1 n=g#5 v=64
23082 Off ch=1 n=g#6 v=64
23083 Off ch=1 n=c#6 v=64
23088 Off ch=1 n=f5 v=64
23100 On ch=1 n=f#5 v=49
23103 On ch=1 n=a#4 v=41
23103 On ch=1 n=f#4 v=40
23104 On ch=1 n=a#5 v=41
23104 On ch=1 n=c#5 v=32
23122 Par ch=1 c=64 v=127
23131 Off ch=1 n=a#4 v=64
23134 Off ch=1 n=a#5 v=64
23135 Off ch=1 n=f#4 v=64
23138 Off ch=1 n=f#5 v=64
23145 Off ch=1 n=c#5 v=64
23203 On ch=1 n=f#5 v=45
23203 On ch=1 n=a#4 v=46
23203 On ch=1 n=f#4 v=27
23204 On ch=1 n=c6 v=41
23207 On ch=1 n=c#5 v=44
23226 Off ch=1 n=c6 v=64
23226 Off ch=1 n=f#4 v=64
23232 Off ch=1 n=f#5 v=64
23235 Off ch=1 n=a#4 v=64
23243 Par ch=1 c=64 v=0
23248 On ch=1 n=g#4 v=44
23251 On ch=1 n=c#6 v=52
23253 On ch=1 n=f5 v=52
23255 On ch=1 n=c#4 v=49
23289 Par ch=1 c=64 v=127
23299 Off ch=1 n=c#5 v=64
23345 Par ch=1 c=64 v=0
23374 Par ch=1 c=64 v=127
23423 On ch=1 n=c#3 v=50
23427 On ch=1 n=g#5 v=53
23452 Off ch=1 n=c#6 v=64
23480 Par ch=1 c=64 v=0
23524 Off ch=1 n=g#4 v=64
23525 Par ch=1 c=64 v=127
23529 Off ch=1 n=f5 v=64
23531 Off ch=1 n=c#4 v=64
23549 Off ch=1 n=c#3 v=64
23563 Off ch=1 n=g#5 v=64
23587 On ch=1 n=a#5 v=44
23591 On ch=1 n=f#5 v=52
23591 On ch=1 n=c#5 v=41
23591 On ch=1 n=a#4 v=41
23591 On ch=1 n=f#4 v=20
23597 Par ch=1 c=64 v=0
23626 Par ch=1 c=64 v=127
23657 Off ch=1 n=f#5 v=64
23661 Off ch=1 n=f#4 v=64
23672 Off ch=1 n=a#5 v=64
23680 Off ch=1 n=a#4 v=64
23682 Off ch=1 n=c#5 v=64
23687 On ch=1 n=a#4 v=37
23688 On ch=1 n=f#5 v=52
23691 On ch=1 n=f#4 v=39
23694 On ch=1 n=c6 v=45
23694 On ch=1 n=c#5 v=49
23716 Off ch=1 n=a#4 v=64
23721 Off ch=1 n=f#5 v=64
23732 Off ch=1 n=c6 v=64
23732 Par ch=1 c=64 v=0
23736 Off ch=1 n=f#4 v=64
23739 On ch=1 n=c#6 v=49
23739 On ch=1 n=f5 v=50
23743 On ch=1 n=c#4 v=49
23745 On ch=1 n=g#4 v=39
23777 Par ch=1 c=64 v=127
23785 Off ch=1 n=c#5 v=64
23832 Par ch=1 c=64 v=0
23862 Par ch=1 c=64 v=127
23898 On ch=1 n=c#3 v=53
23906 On ch=1 n=g#5 v=49
23920 Off ch=1 n=c#6 v=64
23963 Par ch=1 c=64 v=0
24012 Par ch=1 c=64 v=127
24014 Off ch=1 n=c#3 v=64
24023 Off ch=1 n=f5 v=64
24026 Off ch=1 n=g#5 v=64
24027 Off ch=1 n=c#4 v=64
24029 Off ch=1 n=g#4 v=64
24031 On ch=1 n=g#3 v=59
24064 On ch=1 n=d#4 v=66
24068 On ch=1 n=g#5 v=79
24068 On ch=1 n=f#5 v=83
24072 On ch=1 n=d#6 v=78
24081 On ch=1 n=c5 v=83
24084 Par ch=1 c=64 v=0
24106 Off ch=1 n=f#5 v=64
24106 Off ch=1 n=g#5 v=64
24109 Off ch=1 n=g#3 v=64
24114 Par ch=1 c=64 v=127
24117 Par ch=1 c=64 v=0
24136 Off ch=1 n=d#6 v=64
24137 Off ch=1 n=c5 v=64
24145 Off ch=1 n=d#4 v=64
24154 Par ch=1 c=64 v=127
24172 On ch=1 n=d#6 v=72
24176 On ch=1 n=f#5 v=83
24177 On ch=1 n=g#5 v=83
24182 On ch=1 n=g#3 v=80
24199 Par ch=1 c=64 v=0
24202 Off ch=1 n=f#5 v=64
24203 Off ch=1 n=g#5 v=64
24211 On ch=1 n=g#4 v=72
24211 On ch=1 n=d#4 v=72
24215 Par ch=1 c=64 v=0
24219 On ch=1 n=c5 v=78
24223 On ch=1 n=f6 v=80
24230 On ch=1 n=f#5 v=78
24235 Par ch=1 c=64 v=127
24235 On ch=1 n=g#5 v=62
24246 Off ch=1 n=d#6 v=64
24264 Par ch=1 c=64 v=127
24276 Off ch=1 n=g#4 v=64
24278 Off ch=1 n=f#5 v=64
24279 Off ch=1 n=d#4 v=64
24281 Off ch=1 n=c5 v=64
24285 Off ch=1 n=g#5 v=64
24303 Par ch=1 c=64 v=0
24337 Par ch=1 c=64 v=127
24369 Par ch=1 c=64 v=0
24379 On ch=1 n=f#5 v=80
24379 On ch=1 n=g#4 v=78
24383 On ch=1 n=g#5 v=78
24384 On ch=1 n=d#4 v=57
24385 On ch=1 n=d#6 v=76
24393 On ch=1 n=c5 v=71
24403 Off ch=1 n=f6 v=64
24406 Par ch=1 c=64 v=127
24416 Off ch=1 n=f#5 v=64
24417 Off ch=1 n=g#5 v=64
24444 Off ch=1 n=g#4 v=64
24448 Par ch=1 c=64 v=0
24456 Off ch=1 n=d#4 v=64
24464 Off ch=1 n=c5 v=64
24467 Off ch=1 n=g#3 v=64
24484 Par ch=1 c=64 v=127
24523 Par ch=1 c=64 v=0
24549 On ch=1 n=c#5 v=83
24552 Par ch=1 c=64 v=0
24559 Par ch=1 c=64 v=127
24560 On ch=1 n=c#6 v=78
24560 On ch=1 n=f5 v=76
24560 On ch=1 n=c#4 v=65
24564 On ch=1 n=g#5 v=65
24564 On ch=1 n=g#4 v=70
24578 Off ch=1 n=d#6 v=64
24586 Par ch=1 c=64 v=127
24588 Par ch=1 c=64 v=127
24619 Off ch=1 n=f5 v=64
24630 Off ch=1 n=g#5 v=64
24639 Off ch=1 n=c#6 v=64
24645 Off ch=1 n=g#4 v=64
24651 Off ch=1 n=c#4 v=64
24669 Off ch=1 n=c#5 v=64
24696 On ch=1 n=g#4 v=71
24700 On ch=1 n=f5 v=78
24703 On ch=1 n=f6 v=80
24703 On ch=1 n=g#5 v=72
24706 On ch=1 n=c#4 v=62
24735 Off ch=1 n=g#5 v=64
24740 Par ch=1 c=64 v=0
24746 Off ch=1 n=f5 v=64
24752 On ch=1 n=f5 v=55
24757 On ch=1 n=g#6 v=83
24760 On ch=1 n=c#6 v=87
24760 On ch=1 n=g#5 v=93
24775 Par ch=1 c=64 v=0
24776 Par ch=1 c=64 v=127
24782 Off ch=1 n=f6 v=64
24811 Par ch=1 c=64 v=127
24820 On ch=1 n=g#5 v=63
24831 Par ch=1 c=64 v=0
24840 Par ch=1 c=64 v=127
24875 Par ch=1 c=64 v=127
24992 Par ch=1 c=64 v=0
25007 Par ch=1 c=64 v=0
25013 Off ch=1 n=g#4 v=64
25028 Par ch=1 c=64 v=127
25049 Off ch=1 n=f5 v=64
25050 Par ch=1 c=64 v=127
25057 Off ch=1 n=c#4 v=64
25060 Off ch=1 n=g#6 v=64
25063 Off ch=1 n=c#6 v=64
25083 Par ch=1 c=64 v=0
25104 On ch=1 n=d#3 v=59
25106 On ch=1 n=d#5 v=55
25106 On ch=1 n=d#4 v=52
25113 On ch=1 n=g5 v=36
25116 On ch=1 n=c6 v=36
25127 Par ch=1 c=64 v=127
25146 Off ch=1 n=g5 v=64
25157 Off ch=1 n=d#5 v=64
25187 Off ch=1 n=d#4 v=64
25189 Off ch=1 n=d#3 v=64
25194 Par ch=1 c=64 v=0
25206 Par ch=1 c=64 v=127
25211 On ch=1 n=c#5 v=59
25212 On ch=1 n=g5 v=55
25219 On ch=1 n=a#5 v=31
25223 On ch=1 n=d#4 v=53
25227 Off ch=1 n=c6 v=64
25237 Off ch=1 n=c#5 v=64
25246 Off ch=1 n=g5 v=64
25256 Par ch=1 c=64 v=0
25266 On ch=1 n=c6 v=55
25267 On ch=1 n=d#5 v=59
25276 Off ch=1 n=a#5 v=64
25276 On ch=1 n=g#3 v=47
25299 Par ch=1 c=64 v=127
25388 Off ch=1 n=d#4 v=64
25427 On ch=1 n=d#4 v=53
25434 On ch=1 n=g#5 v=47
25436 On ch=1 n=c5 v=55
25443 Par ch=1 c=64 v=0
25444 Off ch=1 n=c6 v=64
25445 Off ch=1 n=d#5 v=64
25455 Par ch=1 c=64 v=127
25489 Par ch=1 c=64 v=0
25525 Off ch=1 n=c5 v=64
25528 Par ch=1 c=64 v=127
25529 Off ch=1 n=g#5 v=64
25536 Off ch=1 n=d#4 v=64
25537 Off ch=1 n=g#3 v=64
25596 On ch=1 n=c6 v=46
25596 On ch=1 n=d#5 v=55
25601 On ch=1 n=g5 v=46
25601 On ch=1 n=d#4 v=36
25601 On ch=1 n=d#3 v=45
25632 Off ch=1 n=g5 v=64
25638 Off ch=1 n=d#5 v=64
25665 Off ch=1 n=d#4 v=64
25666 Par ch=1 c=64 v=0
25680 Off ch=1 n=d#3 v=64
25694 Par ch=1 c=64 v=127
25701 On ch=1 n=a#5 v=44
25705 On ch=1 n=g5 v=46
25707 On ch=1 n=c#5 v=59
25712 On ch=1 n=d#4 v=55
25733 Off ch=1 n=g5 v=64
25733 Off ch=1 n=c6 v=64
25734 Off ch=1 n=c#5 v=64
25741 Par ch=1 c=64 v=0
25764 On ch=1 n=c6 v=59
25764 On ch=1 n=g#3 v=55
25765 On ch=1 n=d#5 v=59
25780 Par ch=1 c=64 v=127
25783 Off ch=1 n=a#5 v=64
25846 Par ch=1 c=64 v=0
25881 Par ch=1 c=64 v=127
25901 Off ch=1 n=d#4 v=64
25918 Par ch=1 c=64 v=0
25929 On ch=1 n=d#4 v=59
25930 On ch=1 n=c5 v=59
25934 On ch=1 n=g#5 v=53
25943 Off ch=1 n=c6 v=64
25944 Off ch=1 n=d#5 v=64
25946 Par ch=1 c=64 v=127
25981 Off ch=1 n=g#3 v=64
26009 Par ch=1 c=64 v=0
26011 Off ch=1 n=c5 v=64
26019 Off ch=1 n=g#5 v=64
26028 Off ch=1 n=d#4 v=64
26038 Par ch=1 c=64 v=127
26045 On ch=1 n=g#3 v=58
26083 On ch=1 n=d#4 v=68
26095 Par ch=1 c=64 v=0
26104 On ch=1 n=d#6 v=81
26108 On ch=1 n=f#5 v=83
26108 On ch=1 n=c5 v=74
26109 On ch=1 n=g#5 v=85
26130 Par ch=1 c=64 v=127
26131 Off ch=1 n=g#3 v=64
26142 Off ch=1 n=f#5 v=64
26144 Off ch=1 n=g#5 v=64
26155 Off ch=1 n=d#4 v=64
26166 Off ch=1 n=c5 v=64
26176 Par ch=1 c=64 v=0
26195 Off ch=1 n=d#6 v=64
26205 On ch=1 n=d#6 v=58
26213 On ch=1 n=f#5 v=74
26213 On ch=1 n=g#3 v=68
26218 On ch=1 n=g#5 v=81
26221 Par ch=1 c=64 v=127
26243 Off ch=1 n=f#5 v=64
26251 Off ch=1 n=g#5 v=64
26258 Par ch=1 c=64 v=0
26265 On ch=1 n=c5 v=71
26266 On ch=1 n=g#4 v=42
26266 On ch=1 n=d#4 v=50
26271 Par ch=1 c=64 v=127
26271 On ch=1 n=g#5 v=68
26271 On ch=1 n=f#5 v=62
26273 Off ch=1 n=d#6 v=64
26275 On ch=1 n=f6 v=78
26290 Par ch=1 c=64 v=127
26321 Off ch=1 n=g#5 v=64
26324 Off ch=1 n=f#5 v=64
26338 Off ch=1 n=d#4 v=64
26338 Off ch=1 n=g#4 v=64
26338 Par ch=1 c=64 v=0
26346 Off ch=1 n=c5 v=64
26382 Par ch=1 c=64 v=127
26406 Par ch=1 c=64 v=0
26426 On ch=1 n=g#4 v=58
26426 On ch=1 n=d#4 v=58
26428 Par ch=1 c=64 v=0
26430 On ch=1 n=g#5 v=74
26433 On ch=1 n=d#6 v=68
26433 On ch=1 n=f#5 v=75
26434 On ch=1 n=c5 v=78
26440 Off ch=1 n=f6 v=64
26442 Par ch=1 c=64 v=127
26465 Off ch=1 n=g#4 v=64
26469 Off ch=1 n=d#4 v=64
26473 Par ch=1 c=64 v=127
26477 Off ch=1 n=c5 v=64
26488 Off ch=1 n=g#5 v=64
26489 Off ch=1 n=f#5 v=64
26505 Off ch=1 n=g#3 v=64
26523 Par ch=1 c=64 v=127
26572 Par ch=1 c=64 v=0
26590 Par ch=1 c=64 v=0
26598 On ch=1 n=g#5 v=41
26598 On ch=1 n=f5 v=74
26602 On ch=1 n=c#6 v=71
26605 On ch=1 n=c#4 v=67
26610 On ch=1 n=c#5 v=78
26612 On ch=1 n=g#4 v=58
26624 Off ch=1 n=d#6 v=64
26627 Par ch=1 c=64 v=127
26634 Par ch=1 c=64 v=127
26658 Par ch=1 c=64 v=0
26661 Off ch=1 n=f5 v=64
26662 Off ch=1 n=g#5 v=64
26662 Off ch=1 n=g#5 v=64
26667 Off ch=1 n=g#4 v=64
26670 Off ch=1 n=g#5 v=64
26673 Off ch=1 n=c#4 v=64
26678 Off ch=1 n=c#5 v=64
26694 Par ch=1 c=64 v=127
26739 On ch=1 n=f6 v=68
26743 Off ch=1 n=c#6 v=64
26744 On ch=1 n=c#4 v=74
26750 On ch=1 n=f5 v=70
26754 On ch=1 n=g#5 v=62
26772 On ch=1 n=g#4 v=65
26778 Off ch=1 n=g#5 v=64
26787 Off ch=1 n=f5 v=64
26799 Par ch=1 c=64 v=127
26802 On ch=1 n=c#6 v=83
26802 On ch=1 n=g#5 v=84
26802 On ch=1 n=f5 v=79
26812 On ch=1 n=g#6 v=78
26816 Par ch=1 c=64 v=0
26819 Off ch=1 n=f6 v=64
26821 Par ch=1 c=64 v=0
26824 Par ch=1 c=64 v=0
26849 Par ch=1 c=64 v=127
26857 Par ch=1 c=64 v=127
26876 Par ch=1 c=64 v=127
26884 Par ch=1 c=64 v=0
26924 Par ch=1 c=64 v=127
26963 Off ch=1 n=g#4 v=64
27048 Par ch=1 c=64 v=127
27062 Par ch=1 c=64 v=0
27068 Par ch=1 c=64 v=0
27076 Par ch=1 c=64 v=0
27096 Par ch=1 c=64 v=127
27101 Par ch=1 c=64 v=127
27109 Par ch=1 c=64 v=127
27136 Par ch=1 c=64 v=0
27137 Off ch=1 n=f5 v=64
27137 Off ch=1 n=g#5 v=64
27137 Off ch=1 n=c#6 v=64
27137 Off ch=1 n=c#4 v=64
27147 Off ch=1 n=g#6 v=64
27152 On ch=1 n=f#4 v=49
27156 On ch=1 n=a#5 v=59
27156 On ch=1 n=f#5 v=57
27156 On ch=1 n=a#4 v=45
27158 On ch=1 n=c#5 v=49
27173 Par ch=1 c=64 v=127
27195 Off ch=1 n=a#4 v=64
27203 Off ch=1 n=f#4 v=64
27205 Off ch=1 n=c#5 v=64
27208 Off ch=1 n=f#5 v=64
27240 Par ch=1 c=64 v=0
27240 On ch=1 n=c#5 v=26
27240 On ch=1 n=f#4 v=55
27244 On ch=1 n=a#4 v=52
27245 On ch=1 n=f#5 v=52
27255 Par ch=1 c=64 v=127
27257 On ch=1 n=c6 v=52
27267 Off ch=1 n=a#5 v=64
27284 Off ch=1 n=a#4 v=64
27288 Off ch=1 n=f#4 v=64
27289 Off ch=1 n=f#5 v=64
27304 On ch=1 n=c#6 v=63
27308 Par ch=1 c=64 v=0
27309 Off ch=1 n=c6 v=64
27309 On ch=1 n=c#4 v=52
27313 On ch=1 n=g#4 v=37
27315 On ch=1 n=f5 v=61
27342 Par ch=1 c=64 v=127
27349 Off ch=1 n=c#5 v=64
27378 Par ch=1 c=64 v=0
27411 Par ch=1 c=64 v=127
27471 On ch=1 n=g#5 v=66
27476 On ch=1 n=c#3 v=61
27479 Off ch=1 n=c#4 v=64
27483 Off ch=1 n=g#4 v=64
27485 Off ch=1 n=f5 v=64
27489 Par ch=1 c=64 v=0
27497 Off ch=1 n=c#6 v=64
27504 Par ch=1 c=64 v=127
27531 Par ch=1 c=64 v=0
27549 Par ch=1 c=64 v=127
27601 Off ch=1 n=g#5 v=64
27602 Off ch=1 n=c#3 v=64
27630 Par ch=1 c=64 v=0
27639 On ch=1 n=c#5 v=53
27639 On ch=1 n=f#4 v=49
27643 On ch=1 n=a#5 v=59
27643 On ch=1 n=f#5 v=55
27648 On ch=1 n=a#4 v=45
27663 Par ch=1 c=64 v=127
27677 Off ch=1 n=a#4 v=64
27677 Off ch=1 n=f#4 v=64
27681 Off ch=1 n=f#5 v=64
27681 Off ch=1 n=c#5 v=64
27722 On ch=1 n=f#5 v=46
27737 On ch=1 n=c6 v=49
27737 On ch=1 n=a#4 v=49
27739 On ch=1 n=f#4 v=41
27743 On ch=1 n=c#5 v=45
27748 Off ch=1 n=a#5 v=64
27756 Off ch=1 n=f#5 v=64
27774 Par ch=1 c=64 v=127
27775 Off ch=1 n=a#4 v=64
27777 Off ch=1 n=f#4 v=64
27783 Par ch=1 c=64 v=0
27789 On ch=1 n=c#6 v=62
27791 On ch=1 n=f5 v=63
27794 On ch=1 n=c#4 v=67
27796 Off ch=1 n=c6 v=64
27801 On ch=1 n=g#4 v=37
27801 Par ch=1 c=64 v=127
27852 Off ch=1 n=c#5 v=64
27864 Par ch=1 c=64 v=0
27906 Par ch=1 c=64 v=127
27938 On ch=1 n=c#3 v=59
27950 Off ch=1 n=c#4 v=64
27955 On ch=1 n=g#5 v=59
27957 Off ch=1 n=g#4 v=64
27975 Off ch=1 n=f5 v=64
27975 Off ch=1 n=c#6 v=64
28026 Par ch=1 c=64 v=127
28030 Par ch=1 c=64 v=0
28049 Off ch=1 n=g#5 v=64
28052 Off ch=1 n=c#3 v=64
28063 Par ch=1 c=64 v=127
28065 On ch=1 n=g#3 v=78
28101 On ch=1 n=d#4 v=71
28115 On ch=1 n=d#6 v=83
28116 Par ch=1 c=64 v=0
28124 On ch=1 n=g#5 v=78
28124 On ch=1 n=f#5 v=84
28130 On ch=1 n=c5 v=84
28158 Par ch=1 c=64 v=127
28162 Off ch=1 n=f#5 v=64
28169 Off ch=1 n=g#5 v=64
28181 Off ch=1 n=g#3 v=64
28198 Off ch=1 n=d#6 v=64
28198 Par ch=1 c=64 v=0
28208 Off ch=1 n=d#4 v=64
28217 On ch=1 n=d#6 v=71
28221 Off ch=1 n=c5 v=64
28226 On ch=1 n=f#5 v=83
28233 On ch=1 n=g#5 v=93
28239 Par ch=1 c=64 v=127
28240 On ch=1 n=g#3 v=76
28254 Off ch=1 n=f#5 v=64
28262 Off ch=1 n=g#5 v=64
28274 On ch=1 n=d#4 v=70
28279 Par ch=1 c=64 v=0
28286 On ch=1 n=c5 v=87
28286 On ch=1 n=g#4 v=48
28290 On ch=1 n=f6 v=93
28290 On ch=1 n=g#5 v=24
28290 On ch=1 n=f#5 v=80
28306 Off ch=1 n=d#6 v=64
28312 Par ch=1 c=64 v=127
28316 Off ch=1 n=g#4 v=64
28323 Off ch=1 n=d#4 v=64
28324 Off ch=1 n=c5 v=64
28348 Off ch=1 n=g#5 v=64
28368 Par ch=1 c=64 v=0
28380 Off ch=1 n=f#5 v=64
28406 Par ch=1 c=64 v=127
28447 Par ch=1 c=64 v=0
28450 On ch=1 n=d#4 v=67
28455 On ch=1 n=d#6 v=78
28456 Off ch=1 n=f6 v=64
28458 On ch=1 n=g#5 v=65
28459 On ch=1 n=f#5 v=97
28462 On ch=1 n=g#4 v=48
28463 On ch=1 n=c5 v=91
28489 Off ch=1 n=d#4 v=64
28491 Par ch=1 c=64 v=127
28492 Off ch=1 n=g#4 v=64
28504 Off ch=1 n=c5 v=64
28514 Off ch=1 n=g#5 v=64
28524 Off ch=1 n=g#3 v=64
28525 Off ch=1 n=f#5 v=64
28591 Par ch=1 c=64 v=0
28614 Par ch=1 c=64 v=0
28620 On ch=1 n=g#5 v=83
28621 On ch=1 n=c#6 v=83
28621 On ch=1 n=f5 v=78
28621 On ch=1 n=c#4 v=62
28624 Off ch=1 n=d#6 v=64
28624 Par ch=1 c=64 v=127
28629 On ch=1 n=c#5 v=87
28629 On ch=1 n=g#4 v=79
28652 Par ch=1 c=64 v=127
28707 Off ch=1 n=c#4 v=64
28707 Off ch=1 n=f5 v=64
28709 Off ch=1 n=g#5 v=64
28715 Off ch=1 n=g#4 v=64
28725 Off ch=1 n=c#5 v=64
28726 Par ch=1 c=64 v=127
28754 On ch=1 n=c#4 v=70
28761 On ch=1 n=f6 v=78
28761 On ch=1 n=g#5 v=75
28761 On ch=1 n=f5 v=65
28765 Off ch=1 n=c#6 v=64
28792 On ch=1 n=g#4 v=70
28794 Par ch=1 c=64 v=127
28797 Off ch=1 n=g#5 v=64
28800 Off ch=1 n=f5 v=64
28810 On ch=1 n=f5 v=71
28818 On ch=1 n=g#6 v=83
28823 On ch=1 n=c#6 v=87
28823 On ch=1 n=g#5 v=94
28824 Off ch=1 n=f6 v=64
28834 Par ch=1 c=64 v=0
28867 Par ch=1 c=64 v=127
28898 Par ch=1 c=64 v=0
28929 Par ch=1 c=64 v=127
28972 Par ch=1 c=64 v=127
29040 Par ch=1 c=64 v=127
29062 Par ch=1 c=64 v=0
29093 Off ch=1 n=c#4 v=64
29096 Par ch=1 c=64 v=127
29110 Off ch=1 n=f5 v=64
29112 Off ch=1 n=g#6 v=64
29116 Off ch=1 n=g#4 v=64
29123 Off ch=1 n=g#5 v=64
29123 Off ch=1 n=c#6 v=64
29131 On ch=1 n=d#5 v=50
29131 On ch=1 n=d#4 v=57
29131 On ch=1 n=d#3 v=55
29135 On ch=1 n=c6 v=49
29135 On ch=1 n=g5 v=44
29150 Par ch=1 c=64 v=0
29155 On ch=1 n=d#4 v=55
29163 Off ch=1 n=g5 v=64
29173 Off ch=1 n=d#5 v=64
29178 Par ch=1 c=64 v=127
29200 Off ch=1 n=d#4 v=64
29216 Off ch=1 n=d#4 v=64
29217 Off ch=1 n=d#3 v=64
29220 Par ch=1 c=64 v=0
29262 Par ch=1 c=64 v=127
29264 On ch=1 n=d#4 v=54
29272 On ch=1 n=a#5 v=40
29272 On ch=1 n=c#5 v=66
29276 On ch=1 n=g5 v=37
29285 Off ch=1 n=c6 v=64
29295 Off ch=1 n=c#5 v=64
29306 Off ch=1 n=g5 v=64
29308 Off ch=1 n=a#5 v=64
29311 Par ch=1 c=64 v=0
29318 On ch=1 n=c6 v=62
29322 On ch=1 n=d#5 v=66
29324 On ch=1 n=g#3 v=55
29345 Par ch=1 c=64 v=127
29415 Par ch=1 c=64 v=0
29429 Par ch=1 c=64 v=127
29451 Off ch=1 n=d#4 v=64
29472 Par ch=1 c=64 v=0
29482 On ch=1 n=d#4 v=55
29489 On ch=1 n=c5 v=61
29491 On ch=1 n=g#5 v=54
29503 Off ch=1 n=c6 v=64
29507 Off ch=1 n=d#5 v=64
29511 Par ch=1 c=64 v=127
29541 Off ch=1 n=g#3 v=64
29604 Off ch=1 n=d#4 v=64
29611 Off ch=1 n=c5 v=64
29613 Off ch=1 n=g#5 v=64
29642 On ch=1 n=d#5 v=63
29645 On ch=1 n=c6 v=52
29648 On ch=1 n=d#3 v=53
29652 On ch=1 n=g5 v=50
29652 On ch=1 n=d#4 v=36
29664 Par ch=1 c=64 v=0
29678 Off ch=1 n=g5 v=64
29678 Par ch=1 c=64 v=127
29681 Off ch=1 n=d#5 v=64
29742 Off ch=1 n=d#4 v=64
29749 Off ch=1 n=d#3 v=64
29769 On ch=1 n=g5 v=52
29769 On ch=1 n=c#5 v=66
29769 On ch=1 n=d#4 v=45
29771 Off ch=1 n=c6 v=64
29773 On ch=1 n=a#5 v=40
29779 Par ch=1 c=64 v=0
29789 Off ch=1 n=c#5 v=64
29797 Par ch=1 c=64 v=127
29805 Off ch=1 n=g5 v=64
29806 Off ch=1 n=a#5 v=64
29810 On ch=1 n=c6 v=44
29814 On ch=1 n=g#3 v=52
29817 On ch=1 n=d#5 v=63
29956 Off ch=1 n=d#4 v=64
29966 Par ch=1 c=64 v=0
30005 On ch=1 n=g#4 v=44
30012 On ch=1 n=g#5 v=49
30012 On ch=1 n=c5 v=41
30028 Par ch=1 c=64 v=0
30031 Off ch=1 n=c6 v=64
30032 Par ch=1 c=64 v=127
30035 Off ch=1 n=g#3 v=64
30038 Off ch=1 n=d#5 v=64
30049 Par ch=1 c=64 v=127
30110 Off ch=1 n=g#5 v=64
30114 On ch=1 n=f#4 v=61
30123 Off ch=1 n=c5 v=64
30129 Off ch=1 n=g#4 v=64
30192 On ch=1 n=f4 v=66
30200 On ch=1 n=a#5 v=40
30205 Off ch=1 n=f#4 v=64
30205 On ch=1 n=g#5 v=25
30205 On ch=1 n=d5 v=44
30215 Par ch=1 c=64 v=0
30250 Off ch=1 n=g#5 v=64
30269 Off ch=1 n=a#5 v=64
30271 Off ch=1 n=d5 v=64
30281 Par ch=1 c=64 v=127
30307 Par ch=1 c=64 v=0
30330 Par ch=1 c=64 v=127
30375 On ch=1 n=a#5 v=36
30376 On ch=1 n=g#5 v=32
30377 On ch=1 n=d5 v=47
30413 Off ch=1 n=g#5 v=64
30422 Off ch=1 n=a#5 v=64
30423 Off ch=1 n=d5 v=64
30433 On ch=1 n=a#3 v=48
30443 Off ch=1 n=f4 v=64
30459 Par ch=1 c=64 v=0
30495 Par ch=1 c=64 v=127
30521 On ch=1 n=c4 v=57
30529 On ch=1 n=a#5 v=47
30530 On ch=1 n=f5 v=51
30533 Off ch=1 n=a#3 v=64
30538 On ch=1 n=g#5 v=55
30553 Par ch=1 c=64 v=0
30576 Par ch=1 c=64 v=127
30582 Off ch=1 n=g#5 v=64
30582 Off ch=1 n=a#5 v=64
30585 Off ch=1 n=f5 v=64
30605 Par ch=1 c=64 v=0
30613 On ch=1 n=d4 v=57
30625 Off ch=1 n=c4 v=64
30644 Par ch=1 c=64 v=127
30678 On ch=1 n=d#4 v=66
30693 On ch=1 n=d#5 v=51
30697 Off ch=1 n=d4 v=64
30703 On ch=1 n=f#5 v=23
30706 On ch=1 n=a#5 v=23
30711 Par ch=1 c=64 v=0
30739 Par ch=1 c=64 v=0
30747 Par ch=1 c=64 v=127
30757 Off ch=1 n=f#5 v=64
30759 On ch=1 n=f4 v=57
30764 Off ch=1 n=d#5 v=64
30775 Off ch=1 n=d#4 v=64
30783 Off ch=1 n=a#5 v=64
30836 On ch=1 n=f#4 v=70
30854 Par ch=1 c=64 v=0
30861 Off ch=1 n=f4 v=64
30861 On ch=1 n=d#5 v=45
30862 On ch=1 n=a#5 v=46
30893 Par ch=1 c=64 v=127
30929 Off ch=1 n=d#5 v=64
30943 Par ch=1 c=64 v=0
30951 Off ch=1 n=a#5 v=64
30988 Par ch=1 c=64 v=0
31002 Par ch=1 c=64 v=127
31006 On ch=1 n=a#5 v=23
31008 On ch=1 n=d#5 v=40
31058 Off ch=1 n=a#5 v=64
31062 Off ch=1 n=d#5 v=64
31090 On ch=1 n=g#4 v=52
31102 Par ch=1 c=64 v=0
31114 Off ch=1 n=f#4 v=64
31134 On ch=1 n=f#4 v=59
31155 Par ch=1 c=64 v=127
31159 Off ch=1 n=g#4 v=64
31174 On ch=1 n=g#5 v=26
31174 On ch=1 n=d5 v=46
31177 On ch=1 n=f4 v=57
31182 On ch=1 n=a#5 v=1
31192 Par ch=1 c=64 v=0
31195 Off ch=1 n=f#4 v=64
31226 Off ch=1 n=g#5 v=64
31231 Off ch=1 n=a#5 v=64
31251 Par ch=1 c=64 v=127
31260 Off ch=1 n=d5 v=64
31267 Par ch=1 c=64 v=0
31309 Par ch=1 c=64 v=127
31317 On ch=1 n=e4 v=49
31336 Off ch=1 n=f4 v=64
31339 On ch=1 n=d5 v=46
31347 On ch=1 n=g#5 v=36
31351 Par ch=1 c=64 v=0
31356 On ch=1 n=a#5 v=25
31359 On ch=1 n=f4 v=54
31375 Off ch=1 n=e4 v=64
31404 Par ch=1 c=64 v=127
31428 Off ch=1 n=d5 v=64
31431 Off ch=1 n=a#5 v=64
31440 Off ch=1 n=g#5 v=64
31457 Par ch=1 c=64 v=0
31497 Par ch=1 c=64 v=127
31519 Par ch=1 c=64 v=0
31525 On ch=1 n=a#3 v=61
31530 On ch=1 n=a#5 v=43
31530 On ch=1 n=g#5 v=45
31530 On ch=1 n=d5 v=41
31550 Off ch=1 n=f4 v=64
31561 Par ch=1 c=64 v=127
31598 Off ch=1 n=g#5 v=64
31601 Off ch=1 n=d5 v=64
31612 Par ch=1 c=64 v=0
31613 Off ch=1 n=a#5 v=64
31663 Par ch=1 c=64 v=127
31679 On ch=1 n=d#4 v=55
31695 On ch=1 n=d#5 v=49
31701 On ch=1 n=f#5 v=33
31709 Par ch=1 c=64 v=0
31711 Off ch=1 n=a#3 v=64
31712 On ch=1 n=a#5 v=23
31749 Par ch=1 c=64 v=127
31752 Off ch=1 n=f#5 v=64
31756 Off ch=1 n=d#5 v=64
31761 Off ch=1 n=a#5 v=64
31768 Par ch=1 c=64 v=0
31795 On ch=1 n=f4 v=61
31818 Off ch=1 n=d#4 v=64
31830 Par ch=1 c=64 v=127
31853 On ch=1 n=f#4 v=67
31859 On ch=1 n=d#5 v=45
31862 On ch=1 n=f#5 v=44
31863 On ch=1 n=a#5 v=46
31864 Par ch=1 c=64 v=0
31874 Off ch=1 n=f4 v=64
31904 Off ch=1 n=a#5 v=64
31912 Off ch=1 n=d#5 v=64
31912 Par ch=1 c=64 v=127
31914 Off ch=1 n=f#5 v=64
31956 Par ch=1 c=64 v=0
31992 Par ch=1 c=64 v=127
32017 On ch=1 n=c#5 v=46
32017 Par ch=1 c=64 v=0
32024 On ch=1 n=a5 v=59
32024 On ch=1 n=d#5 v=51
32070 Off ch=1 n=d#5 v=64
32078 Par ch=1 c=64 v=0
32079 Off ch=1 n=c#5 v=64
32079 Par ch=1 c=64 v=127
32086 Off ch=1 n=a5 v=64
32136 Par ch=1 c=64 v=0
32157 Par ch=1 c=64 v=127
32193 On ch=1 n=d#5 v=44
32193 On ch=1 n=c5 v=40
32203 On ch=1 n=g#5 v=39
32208 Par ch=1 c=64 v=0
32236 Off ch=1 n=c5 v=64
32239 Off ch=1 n=d#5 v=64
32244 Par ch=1 c=64 v=127
32252 Off ch=1 n=g#5 v=64
32306 Par ch=1 c=64 v=0
32330 Par ch=1 c=64 v=0
32331 Par ch=1 c=64 v=127
32368 On ch=1 n=c5 v=51
32373 On ch=1 n=d#5 v=48
32379 On ch=1 n=g#5 v=40
32388 Par ch=1 c=64 v=0
32409 Par ch=1 c=64 v=127
32416 Off ch=1 n=c5 v=64
32417 Off ch=1 n=d#5 v=64
32427 Off ch=1 n=g#5 v=64
32453 Par ch=1 c=64 v=0
32455 On ch=1 n=g#3 v=63
32475 Off ch=1 n=f#4 v=64
32512 Par ch=1 c=64 v=127
32535 On ch=1 n=a#3 v=50
32540 On ch=1 n=g#5 v=46
32547 On ch=1 n=f#5 v=36
32547 On ch=1 n=d#5 v=44
32558 Off ch=1 n=g#3 v=64
32558 Par ch=1 c=64 v=0
32583 Par ch=1 c=64 v=127
32587 Off ch=1 n=d#5 v=64
32592 Off ch=1 n=f#5 v=64
32599 Off ch=1 n=g#5 v=64
32600 On ch=1 n=c4 v=61
32610 Par ch=1 c=64 v=0
32617 Off ch=1 n=a#3 v=64
32666 Par ch=1 c=64 v=127
32704 On ch=1 n=c#4 v=58
32705 Par ch=1 c=64 v=0
32715 On ch=1 n=g#5 v=36
32715 On ch=1 n=c#5 v=33
32721 Off ch=1 n=c4 v=64
32723 On ch=1 n=f5 v=31
32754 Off ch=1 n=f5 v=64
32759 Off ch=1 n=g#5 v=64
32764 Par ch=1 c=64 v=127
32769 Off ch=1 n=c#5 v=64
32787 Par ch=1 c=64 v=0
32795 On ch=1 n=d#4 v=55
32802 Par ch=1 c=64 v=127
32812 Off ch=1 n=c#4 v=64
32862 Par ch=1 c=64 v=0
32878 On ch=1 n=g#5 v=41
32884 On ch=1 n=c#5 v=28
32887 On ch=1 n=f4 v=44
32895 Off ch=1 n=d#4 v=64
32918 Par ch=1 c=64 v=127
32950 Off ch=1 n=c#5 v=64
32953 Off ch=1 n=g#5 v=64
32962 Par ch=1 c=64 v=0
33022 Par ch=1 c=64 v=127
33025 On ch=1 n=f#4 v=58
33039 Par ch=1 c=64 v=0
33044 On ch=1 n=g#5 v=23
33045 Off ch=1 n=f4 v=64
33048 On ch=1 n=c#5 v=23
33054 Par ch=1 c=64 v=127
33096 Off ch=1 n=c#5 v=64
33096 Off ch=1 n=g#5 v=64
33107 On ch=1 n=f4 v=58
33114 Off ch=1 n=f#4 v=64
33129 Par ch=1 c=64 v=0
33147 Off ch=1 n=f4 v=64
33176 On ch=1 n=f4 v=66
33188 On ch=1 n=d#4 v=55
33198 Par ch=1 c=64 v=127
33199 On ch=1 n=f#5 v=46
33211 On ch=1 n=g#5 v=28
33211 On ch=1 n=c5 v=46
33214 Par ch=1 c=64 v=0
33231 Off ch=1 n=f4 v=64
33262 Off ch=1 n=c5 v=64
33263 Off ch=1 n=g#5 v=64
33266 Off ch=1 n=f#5 v=64
33274 Par ch=1 c=64 v=127
33311 Par ch=1 c=64 v=0
33345 On ch=1 n=d4 v=55
33355 Par ch=1 c=64 v=127
33361 Off ch=1 n=d#4 v=64
33378 Par ch=1 c=64 v=0
33385 On ch=1 n=c5 v=36
33389 On ch=1 n=g#5 v=32
33389 On ch=1 n=f#5 v=36
33389 On ch=1 n=d#4 v=67
33411 Off ch=1 n=d4 v=64
33415 Par ch=1 c=64 v=0
33429 Off ch=1 n=c5 v=64
33434 Off ch=1 n=g#5 v=64
33435 Off ch=1 n=f#5 v=64
33447 Par ch=1 c=64 v=127
33496 Par ch=1 c=64 v=0
33555 Par ch=1 c=64 v=127
33560 Par ch=1 c=64 v=0
33565 On ch=1 n=g#3 v=54
33569 Off ch=1 n=d#4 v=64
33569 On ch=1 n=c5 v=39
33575 On ch=1 n=g#5 v=32
33584 On ch=1 n=f#5 v=21
33607 Par ch=1 c=64 v=127
33614 Off ch=1 n=c5 v=64
33628 Off ch=1 n=f#5 v=64
33630 Off ch=1 n=g#5 v=64
33653 Par ch=1 c=64 v=0
33667 Par ch=1 c=64 v=0
33699 Par ch=1 c=64 v=127
33731 On ch=1 n=f4 v=54
33738 On ch=1 n=c#5 v=27
33741 On ch=1 n=f5 v=51
33742 On ch=1 n=g#5 v=33
33748 Par ch=1 c=64 v=0
33777 Off ch=1 n=g#3 v=64
33789 Off ch=1 n=f5 v=64
33792 Off ch=1 n=g#5 v=64
33802 Off ch=1 n=c#5 v=64
33804 Par ch=1 c=64 v=127
33810 On ch=1 n=d#4 v=58
33824 Off ch=1 n=f4 v=64
33843 Par ch=1 c=64 v=0
33899 Par ch=1 c=64 v=127
33902 Par ch=1 c=64 v=0
33907 On ch=1 n=c#4 v=58
33909 On ch=1 n=c#5 v=36
33913 On ch=1 n=g#5 v=36
33913 On ch=1 n=f5 v=45
33920 Off ch=1 n=d#4 v=64
33948 Par ch=1 c=64 v=127
33954 Off ch=1 n=f5 v=64
33956 Off ch=1 n=c#5 v=64
33961 Off ch=1 n=g#5 v=64
34014 Par ch=1 c=64 v=0
34060 Par ch=1 c=64 v=127
34083 On ch=1 n=d#5 v=55
34083 On ch=1 n=c4 v=55
34087 On ch=1 n=a5 v=59
34087 On ch=1 n=f5 v=55
34095 Off ch=1 n=c#4 v=64
34095 Par ch=1 c=64 v=0
34151 Par ch=1 c=64 v=127
34162 Off ch=1 n=f5 v=64
34166 Off ch=1 n=d#5 v=64
34173 On ch=1 n=b3 v=42
34176 Off ch=1 n=a5 v=64
34177 Par ch=1 c=64 v=0
34196 Off ch=1 n=c4 v=64
34227 Par ch=1 c=64 v=127
34247 On ch=1 n=a#5 v=51
34258 On ch=1 n=f5 v=41
34258 On ch=1 n=d#5 v=46
34258 On ch=1 n=a#3 v=59
34266 Par ch=1 c=64 v=0
34281 Off ch=1 n=b3 v=64
34312 Par ch=1 c=64 v=127
34320 Off ch=1 n=f5 v=64
34342 Off ch=1 n=d#5 v=64
34342 Off ch=1 n=a#5 v=64
34344 Par ch=1 c=64 v=0
34398 Par ch=1 c=64 v=127
34429 Par ch=1 c=64 v=0
34439 On ch=1 n=d5 v=40
34442 On ch=1 n=a#5 v=41
34444 On ch=1 n=f5 v=46
34476 Par ch=1 c=64 v=127
34490 Off ch=1 n=a#3 v=64
34512 Off ch=1 n=f5 v=64
34521 Off ch=1 n=d5 v=64
34526 Par ch=1 c=64 v=0
34528 Off ch=1 n=a#5 v=64
34540 On ch=1 n=a#3 v=66
34583 Par ch=1 c=64 v=127
34593 Par ch=1 c=64 v=0
34610 On ch=1 n=a#5 v=45
34615 On ch=1 n=c4 v=57
34619 On ch=1 n=g#5 v=45
34619 On ch=1 n=f5 v=36
34641 Off ch=1 n=a#3 v=64
34647 Par ch=1 c=64 v=127
34669 Off ch=1 n=a#5 v=64
34678 Par ch=1 c=64 v=0
34681 Off ch=1 n=g#5 v=64
34685 Off ch=1 n=f5 v=64
34693 On ch=1 n=d4 v=55
34703 Off ch=1 n=c4 v=64
34724 Par ch=1 c=64 v=127
34767 On ch=1 n=d#4 v=71
34778 Par ch=1 c=64 v=0
34786 On ch=1 n=f#5 v=44
34786 On ch=1 n=f5 v=43
34787 Off ch=1 n=d4 v=64
34792 On ch=1 n=a#5 v=32
34835 Par ch=1 c=64 v=127
34845 Par ch=1 c=64 v=0
34855 On ch=1 n=f4 v=70
34865 Off ch=1 n=a#5 v=64
34866 Off ch=1 n=d#4 v=64
34868 Off ch=1 n=f#5 v=64
34877 Off ch=1 n=f5 v=64
34878 Par ch=1 c=64 v=127
34924 Par ch=1 c=64 v=0
34929 On ch=1 n=f#4 v=72
34938 On ch=1 n=d#5 v=43
34944 On ch=1 n=f#5 v=41
34945 On ch=1 n=a#5 v=36
34957 Off ch=1 n=f4 v=64
34967 Par ch=1 c=64 v=127
35010 Off ch=1 n=f#5 v=64
35015 Par ch=1 c=64 v=0
35024 Off ch=1 n=d#5 v=64
35028 Off ch=1 n=a#5 v=64
35066 Par ch=1 c=64 v=127
35083 On ch=1 n=g#4 v=68
35090 On ch=1 n=a#5 v=47
35090 On ch=1 n=d#5 v=47
35091 Par ch=1 c=64 v=0
35103 Off ch=1 n=f#4 v=64
35127 Par ch=1 c=64 v=127
35145 On ch=1 n=f#4 v=44
35163 Par ch=1 c=64 v=0
35173 Off ch=1 n=g#4 v=64
35181 Off ch=1 n=d#5 v=64
35187 Off ch=1 n=a#5 v=64
35207 Off ch=1 n=f#4 v=64
35226 On ch=1 n=f#4 v=80
35234 Par ch=1 c=64 v=127
35258 On ch=1 n=g#5 v=44
35263 On ch=1 n=a#5 v=41
35263 On ch=1 n=d#5 v=45
35267 Par ch=1 c=64 v=0
35275 On ch=1 n=f4 v=63
35289 Off ch=1 n=f#4 v=64
35318 Par ch=1 c=64 v=127
35341 Off ch=1 n=a#5 v=64
35350 Par ch=1 c=64 v=0
35351 Off ch=1 n=g#5 v=64
35358 Off ch=1 n=d#5 v=64
35389 On ch=1 n=e4 v=66
35405 Off ch=1 n=f4 v=64
35407 Par ch=1 c=64 v=127
35415 Par ch=1 c=64 v=0
35423 On ch=1 n=f4 v=61
35427 On ch=1 n=d5 v=47
35433 On ch=1 n=a#5 v=31
35434 On ch=1 n=g#5 v=23
35442 Off ch=1 n=e4 v=64
35456 Par ch=1 c=64 v=0
35486 Par ch=1 c=64 v=127
35507 Off ch=1 n=a#5 v=64
35507 Off ch=1 n=d5 v=64
35513 Par ch=1 c=64 v=0
35522 Off ch=1 n=g#5 v=64
35576 Par ch=1 c=64 v=127
35602 Par ch=1 c=64 v=0
35608 On ch=1 n=a#3 v=66
35612 On ch=1 n=d5 v=32
35615 On ch=1 n=a#5 v=31
35624 Off ch=1 n=f4 v=64
35628 On ch=1 n=g#5 v=23
35659 Par ch=1 c=64 v=127
35680 Par ch=1 c=64 v=0
35686 Off ch=1 n=g#5 v=64
35695 Off ch=1 n=a#5 v=64
35698 Off ch=1 n=d5 v=64
35708 Par ch=1 c=64 v=0
35731 Par ch=1 c=64 v=127
35765 On ch=1 n=d#4 v=57
35765 Par ch=1 c=64 v=0
35773 On ch=1 n=a#5 v=40
35773 On ch=1 n=f#5 v=46
35773 On ch=1 n=d#5 v=47
35784 Off ch=1 n=a#3 v=64
35828 Par ch=1 c=64 v=127
35840 Par ch=1 c=64 v=0
35841 Off ch=1 n=d#5 v=64
35841 Off ch=1 n=f#5 v=64
35850 Off ch=1 n=a#5 v=64
35895 On ch=1 n=f4 v=57
35901 Par ch=1 c=64 v=127
35919 Off ch=1 n=d#4 v=64
35929 Par ch=1 c=64 v=0
35934 On ch=1 n=a#5 v=44
35934 On ch=1 n=d#5 v=46
35950 On ch=1 n=f#4 v=65
35965 Off ch=1 n=f4 v=64
35980 Par ch=1 c=64 v=127
35989 Off ch=1 n=a#5 v=64
35998 Off ch=1 n=d#5 v=64
36016 Par ch=1 c=64 v=0
36068 Par ch=1 c=64 v=127
36089 Par ch=1 c=64 v=0
36103 On ch=1 n=d#5 v=47
36103 On ch=1 n=c#5 v=45
36112 On ch=1 n=a5 v=49
36150 Par ch=1 c=64 v=127
36158 Off ch=1 n=d#5 v=64
36162 Off ch=1 n=c#5 v=64
36170 Off ch=1 n=a5 v=64
36180 Par ch=1 c=64 v=0
36232 Par ch=1 c=64 v=127
36265 Par ch=1 c=64 v=0
36274 On ch=1 n=g#5 v=40
36274 On ch=1 n=d#5 v=36
36282 On ch=1 n=c#5 v=25
36312 Off ch=1 n=d#5 v=64
36317 Par ch=1 c=64 v=127
36322 Off ch=1 n=c#5 v=64
36322 Off ch=1 n=g#5 v=64
36339 Par ch=1 c=64 v=0
36394 Par ch=1 c=64 v=127
36432 Par ch=1 c=64 v=0
36440 On ch=1 n=c5 v=44
36443 On ch=1 n=d#5 v=36
36447 On ch=1 n=g#5 v=39
36484 Par ch=1 c=64 v=127
36489 Off ch=1 n=d#5 v=64
36489 Off ch=1 n=c5 v=64
36492 Off ch=1 n=g#5 v=64
36509 Par ch=1 c=64 v=0
36538 On ch=1 n=g#3 v=58
36568 Off ch=1 n=f#4 v=64
36575 Par ch=1 c=64 v=127
36591 Par ch=1 c=64 v=0
36607 On ch=1 n=g#5 v=44
36608 On ch=1 n=a#3 v=55
36615 On ch=1 n=f#5 v=40
36617 On ch=1 n=d#5 v=41
36638 Off ch=1 n=g#3 v=64
36646 Par ch=1 c=64 v=127
36653 Off ch=1 n=f#5 v=64
36659 Off ch=1 n=d#5 v=64
36666 Off ch=1 n=g#5 v=64
36672 Par ch=1 c=64 v=0
36687 On ch=1 n=c4 v=54
36707 Off ch=1 n=a#3 v=64
36726 Par ch=1 c=64 v=127
36761 Par ch=1 c=64 v=0
36769 On ch=1 n=c#4 v=65
36775 On ch=1 n=d#5 v=46
36780 On ch=1 n=g#5 v=33
36782 On ch=1 n=f5 v=46
36787 Off ch=1 n=c4 v=64
36812 Off ch=1 n=f5 v=64
36817 Off ch=1 n=d#5 v=64
36818 Off ch=1 n=g#5 v=64
36827 Par ch=1 c=64 v=127
36837 Par ch=1 c=64 v=0
36849 On ch=1 n=d#4 v=63
36870 Off ch=1 n=c#4 v=64
36874 Par ch=1 c=64 v=127
36924 Par ch=1 c=64 v=0
36931 On ch=1 n=f4 v=37
36939 On ch=1 n=c#5 v=40
36942 On ch=1 n=g#5 v=36
36942 On ch=1 n=f5 v=45
36953 Off ch=1 n=d#4 v=64
36978 Par ch=1 c=64 v=127
36984 Off ch=1 n=f5 v=64
36990 Off ch=1 n=g#5 v=64
36991 Off ch=1 n=c#5 v=64
37000 Par ch=1 c=64 v=0
37072 Par ch=1 c=64 v=127
37080 On ch=1 n=f#4 v=70
37089 Par ch=1 c=64 v=0
37098 Off ch=1 n=f4 v=64
37106 On ch=1 n=c#5 v=36
37113 On ch=1 n=g#5 v=28
37123 Par ch=1 c=64 v=127
37147 Off ch=1 n=g#5 v=64
37156 Par ch=1 c=64 v=0
37157 Off ch=1 n=c#5 v=64
37157 On ch=1 n=f4 v=63
37176 Off ch=1 n=f#4 v=64
37214 Off ch=1 n=f4 v=64
37221 Par ch=1 c=64 v=127
37229 On ch=1 n=f4 v=72
37249 Par ch=1 c=64 v=0
37256 On ch=1 n=g#5 v=46
37256 On ch=1 n=f#5 v=36
37257 On ch=1 n=c#5 v=49
37263 On ch=1 n=d#4 v=58
37282 Off ch=1 n=f4 v=64
37296 Off ch=1 n=c#5 v=64
37304 Off ch=1 n=g#5 v=64
37306 Off ch=1 n=f#5 v=64
37321 Par ch=1 c=64 v=127
37348 Par ch=1 c=64 v=0
37390 On ch=1 n=d4 v=55
37404 Par ch=1 c=64 v=127
37407 Off ch=1 n=d#4 v=64
37408 Par ch=1 c=64 v=0
37432 On ch=1 n=c5 v=39
37436 On ch=1 n=g#5 v=25
37436 On ch=1 n=f#5 v=23
37442 On ch=1 n=d#4 v=74
37453 Off ch=1 n=d4 v=64
37463 Off ch=1 n=f#5 v=64
37468 Off ch=1 n=g#5 v=64
37470 Par ch=1 c=64 v=127
37478 Off ch=1 n=c5 v=64
37502 Par ch=1 c=64 v=0
37581 Par ch=1 c=64 v=127
37597 Par ch=1 c=64 v=0
37606 On ch=1 n=g#3 v=54
37613 On ch=1 n=f#5 v=43
37613 On ch=1 n=c5 v=37
37616 On ch=1 n=g#5 v=43
37628 Off ch=1 n=d#4 v=64
37650 Off ch=1 n=f#5 v=64
37653 Par ch=1 c=64 v=127
37662 Off ch=1 n=c5 v=64
37668 Off ch=1 n=g#5 v=64
37672 Par ch=1 c=64 v=0
37738 Par ch=1 c=64 v=127
37754 Par ch=1 c=64 v=0
37776 On ch=1 n=c#5 v=23
37780 On ch=1 n=f4 v=58
37784 On ch=1 n=g#5 v=25
37788 On ch=1 n=f5 v=23
37796 Off ch=1 n=g#3 v=64
37802 Par ch=1 c=64 v=0
37828 Off ch=1 n=f5 v=64
37830 Off ch=1 n=c#5 v=64
37833 Par ch=1 c=64 v=127
37836 Off ch=1 n=g#5 v=64
37845 Par ch=1 c=64 v=127
37851 On ch=1 n=d#4 v=59
37868 Off ch=1 n=f4 v=64
37924 Par ch=1 c=64 v=0
37940 On ch=1 n=c#5 v=37
37946 On ch=1 n=g#5 v=32
37946 On ch=1 n=c#4 v=58
37948 Par ch=1 c=64 v=0
37957 On ch=1 n=f5 v=31
37963 Off ch=1 n=d#4 v=64
37990 Par ch=1 c=64 v=127
37995 Off ch=1 n=c#5 v=64
37997 Off ch=1 n=f5 v=64
38004 Off ch=1 n=g#5 v=64
38021 Par ch=1 c=64 v=0
38054 Par ch=1 c=64 v=0
38058 Par ch=1 c=64 v=127
38097 Par ch=1 c=64 v=127
38104 On ch=1 n=c#5 v=44
38110 On ch=1 n=g#5 v=36
38110 On ch=1 n=f5 v=23
38149 Off ch=1 n=c#5 v=64
38150 Off ch=1 n=g#5 v=64
38167 Off ch=1 n=f5 v=64
38193 Par ch=1 c=64 v=0
38200 Par ch=1 c=64 v=0
38244 Par ch=1 c=64 v=127
38272 Off ch=1 n=c#4 v=64
38273 On ch=1 n=c#5 v=25
38273 Par ch=1 c=64 v=0
38279 On ch=1 n=f3 v=52
38285 On ch=1 n=g#5 v=23
38285 On ch=1 n=f5 v=23
38310 Par ch=1 c=64 v=127
38324 Off ch=1 n=f5 v=64
38333 Off ch=1 n=g#5 v=64
38333 Off ch=1 n=c#5 v=64
38341 On ch=1 n=d#3 v=55
38365 Off ch=1 n=f3 v=64
38431 On ch=1 n=c#3 v=61
38434 On ch=1 n=g#5 v=36
38438 On ch=1 n=c#5 v=36
38443 On ch=1 n=f5 v=35
38445 Par ch=1 c=64 v=0
38454 Off ch=1 n=d#3 v=64
38478 Off ch=1 n=f5 v=64
38483 Off ch=1 n=c#5 v=64
38490 Off ch=1 n=g#5 v=64
38496 Par ch=1 c=64 v=127
38535 Par ch=1 c=64 v=0
38574 Par ch=1 c=64 v=127
38618 On ch=1 n=f5 v=32
38618 On ch=1 n=c#5 v=25
38621 On ch=1 n=g#5 v=23
38669 Off ch=1 n=f5 v=64
38672 Off ch=1 n=c#5 v=64
38675 Off ch=1 n=g#5 v=64
38778 On ch=1 n=g#4 v=51
38787 Par ch=1 c=64 v=0
38790 On ch=1 n=e5 v=44
38794 On ch=1 n=g#5 v=47
38826 Par ch=1 c=64 v=127
38851 Off ch=1 n=g#5 v=64
38851 Off ch=1 n=g#4 v=64
38861 Off ch=1 n=e5 v=64
38955 On ch=1 n=g#4 v=23
38961 On ch=1 n=e5 v=31
38965 On ch=1 n=g#5 v=18
39000 Off ch=1 n=e5 v=64
39004 Off ch=1 n=g#4 v=64
39011 Off ch=1 n=g#5 v=64
39118 On ch=1 n=g#4 v=35
39122 On ch=1 n=e5 v=32
39131 On ch=1 n=g#5 v=18
39179 Off ch=1 n=g#4 v=64
39193 Off ch=1 n=g#5 v=64
39194 Off ch=1 n=e5 v=64
39200 Par ch=1 c=64 v=0
39268 Par ch=1 c=64 v=127
39302 On ch=1 n=g#4 v=44
39306 On ch=1 n=g#5 v=43
39306 On ch=1 n=c3 v=66
39308 On ch=1 n=e5 v=55
39353 Off ch=1 n=c#3 v=64
39358 Off ch=1 n=e5 v=64
39373 Off ch=1 n=g#4 v=64
39382 Off ch=1 n=g#5 v=64
39452 Par ch=1 c=64 v=0
39471 On ch=1 n=g#4 v=40
39474 On ch=1 n=g#5 v=32
39478 On ch=1 n=e5 v=32
39520 Par ch=1 c=64 v=127
39531 Off ch=1 n=g#4 v=64
39550 Off ch=1 n=e5 v=64
39574 Off ch=1 n=g#5 v=64
39644 On ch=1 n=g#4 v=28
39645 On ch=1 n=e5 v=32
39646 On ch=1 n=g#5 v=23
39698 Off ch=1 n=g#5 v=64
39706 Off ch=1 n=g#4 v=64
39716 Off ch=1 n=e5 v=64
39807 On ch=1 n=c4 v=66
39811 On ch=1 n=g4 v=27
39815 On ch=1 n=g5 v=26
39819 On ch=1 n=e5 v=18
39882 Off ch=1 n=g4 v=64
39884 Off ch=1 n=e5 v=64
39891 Off ch=1 n=g5 v=64
39995 On ch=1 n=e5 v=32
39999 On ch=1 n=g4 v=27
40000 On ch=1 n=g5 v=26
40067 Off ch=1 n=e5 v=64
40070 Off ch=1 n=g4 v=64
40076 Off ch=1 n=g5 v=64
40187 On ch=1 n=g5 v=26
40191 On ch=1 n=e5 v=32
40195 On ch=1 n=g4 v=31
40222 Par ch=1 c=64 v=0
40239 Par ch=1 c=64 v=127
40262 Off ch=1 n=c3 v=64
40263 Off ch=1 n=e5 v=64
40263 Off ch=1 n=g5 v=64
40271 Off ch=1 n=g4 v=64
40281 Off ch=1 n=c4 v=64
40320 Par ch=1 c=64 v=0
40389 On ch=1 n=f3 v=67
40398 On ch=1 n=g4 v=40
40400 On ch=1 n=c5 v=46
40411 On ch=1 n=c4 v=20
40471 Par ch=1 c=64 v=0
40481 On ch=1 n=e3 v=53
40487 Par ch=1 c=64 v=127
40488 Par ch=1 c=64 v=127
40493 Off ch=1 n=f3 v=64
40572 Par ch=1 c=64 v=0
40595 On ch=1 n=c3 v=46
40611 Off ch=1 n=e3 v=64
40739 Par ch=1 c=64 v=127
40815 Off ch=1 n=c5 v=64
40815 Off ch=1 n=g4 v=64
40842 Par ch=1 c=64 v=0
40857 Off ch=1 n=c4 v=64
40873 Par ch=1 c=64 v=127
41003 Par ch=1 c=64 v=0
41013 Par ch=1 c=64 v=127
41036 On ch=1 n=f5 v=41
41040 On ch=1 n=g#4 v=45
41040 On ch=1 n=f3 v=57
41054 Off ch=1 n=c3 v=64
41091 Par ch=1 c=64 v=0
41122 Par ch=1 c=64 v=127
41243 On ch=1 n=c#4 v=53
41252 Par ch=1 c=64 v=0
41262 Par ch=1 c=64 v=127
41351 Off ch=1 n=g#4 v=64
41402 Off ch=1 n=f5 v=64
41429 On ch=1 n=b3 v=54
41459 Off ch=1 n=f3 v=64
41470 Off ch=1 n=c#4 v=64
41527 Par ch=1 c=64 v=0
41612 On ch=1 n=g4 v=41
41619 On ch=1 n=c5 v=37
41624 On ch=1 n=c4 v=37
41627 Off ch=1 n=b3 v=64
41683 Par ch=1 c=64 v=127
41716 On ch=1 n=e3 v=52
41779 Par ch=1 c=64 v=0
41806 On ch=1 n=c3 v=52
41820 Off ch=1 n=e3 v=64
41935 Par ch=1 c=64 v=127
41997 Par ch=1 c=64 v=0
42007 Off ch=1 n=g4 v=64
42028 Off ch=1 n=c5 v=64
42055 Off ch=1 n=c4 v=64
42154 Par ch=1 c=64 v=127
42180 Off ch=1 n=c3 v=64
42202 On ch=1 n=g#4 v=46
42205 On ch=1 n=f3 v=65
42207 On ch=1 n=f5 v=24
42246 Par ch=1 c=64 v=0
42382 On ch=1 n=c#4 v=54
42406 Par ch=1 c=64 v=127
42533 Off ch=1 n=g#4 v=64
42538 Off ch=1 n=f5 v=64
42582 On ch=1 n=b3 v=36
42599 Off ch=1 n=c#4 v=64
42700 Par ch=1 c=64 v=0
42732 Off ch=1 n=b3 v=64
42762 On ch=1 n=g4 v=29
42768 On ch=1 n=c5 v=29
42773 On ch=1 n=c4 v=20
42848 Off ch=1 n=f3 v=64
42854 On ch=1 n=e3 v=52
42942 On ch=1 n=c3 v=53
42952 Par ch=1 c=64 v=0
42961 Off ch=1 n=e3 v=64
43002 Par ch=1 c=64 v=127
43254 Par ch=1 c=64 v=127
43259 Par ch=1 c=64 v=0
43317 On ch=1 n=f3 v=63
43339 Off ch=1 n=c3 v=64
43381 Off ch=1 n=f3 v=64
43436 Par ch=1 c=64 v=127
43495 On ch=1 n=f3 v=47
43511 Par ch=1 c=64 v=0
43580 On ch=1 n=e3 v=53
43596 Off ch=1 n=f3 v=64
43646 Par ch=1 c=64 v=0
43681 On ch=1 n=c3 v=42
43682 Par ch=1 c=64 v=127
43688 Par ch=1 c=64 v=127
43715 Off ch=1 n=e3 v=64
43789 Off ch=1 n=c3 v=64
43832 Par ch=1 c=64 v=0
43854 Off ch=1 n=c4 v=64
43854 Off ch=1 n=g4 v=64
43865 Par ch=1 c=64 v=127
43873 Off ch=1 n=c5 v=64
43883 On ch=1 n=f3 v=61
43887 On ch=1 n=c5 v=26
43887 On ch=1 n=c4 v=26
43898 Par ch=1 c=64 v=0
43899 On ch=1 n=g4 v=27
43924 Par ch=1 c=64 v=0
43934 Par ch=1 c=64 v=127
43987 On ch=1 n=e3 v=37
44002 Off ch=1 n=f3 v=64
44070 On ch=1 n=c3 v=42
44084 Par ch=1 c=64 v=0
44111 Off ch=1 n=e3 v=64
44117 Par ch=1 c=64 v=127
44147 Off ch=1 n=c3 v=64
44176 Par ch=1 c=64 v=0
44246 Par ch=1 c=64 v=0
44258 Par ch=1 c=64 v=127
44274 On ch=1 n=c3 v=40
44425 Par ch=1 c=64 v=0
44452 Par ch=1 c=64 v=127
44481 Off ch=1 n=c3 v=64
44486 On ch=1 n=f3 v=50
44498 Par ch=1 c=64 v=0
44510 Par ch=1 c=64 v=127
44515 Off ch=1 n=g4 v=64
44525 Off ch=1 n=c5 v=64
44528 Off ch=1 n=f3 v=64
44594 On ch=1 n=e3 v=31
44636 Off ch=1 n=e3 v=64
44677 Par ch=1 c=64 v=0
44699 On ch=1 n=f3 v=40
44704 Par ch=1 c=64 v=127
44741 Off ch=1 n=f3 v=64
44817 On ch=1 n=e3 v=31
44859 Off ch=1 n=e3 v=64
44900 On ch=1 n=c3 v=33
44928 Off ch=1 n=c4 v=64
44942 Off ch=1 n=c3 v=64
45001 Par ch=1 c=64 v=0
45027 On ch=1 n=c3 v=40
45047 Par ch=1 c=64 v=127
45069 Off ch=1 n=c3 v=64
45153 Par ch=1 c=64 v=0
45163 On ch=1 n=f3 v=39
45174 On ch=1 n=f5 v=42
45176 Par ch=1 c=64 v=127
45193 Par ch=1 c=64 v=0
45218 Off ch=1 n=f3 v=64
45239 Par ch=1 c=64 v=127
45300 Par ch=1 c=64 v=0
45323 Par ch=1 c=64 v=127
45327 On ch=1 n=g5 v=49
45359 On ch=1 n=f3 v=37
45364 Off ch=1 n=f5 v=64
45389 On ch=1 n=g#5 v=48
45389 On ch=1 n=g#4 v=52
45389 On ch=1 n=c4 v=29
45405 Par ch=1 c=64 v=0
45423 Off ch=1 n=g5 v=64
45428 Par ch=1 c=64 v=127
45438 Off ch=1 n=g#4 v=64
45439 Off ch=1 n=f3 v=64
45446 Off ch=1 n=c4 v=64
45460 On ch=1 n=a#5 v=39
45493 Off ch=1 n=g#5 v=64
45516 On ch=1 n=c6 v=53
45536 On ch=1 n=f3 v=45
45537 On ch=1 n=g#4 v=53
45538 Off ch=1 n=a#5 v=64
45548 On ch=1 n=c4 v=39
45549 Par ch=1 c=64 v=0
45572 Par ch=1 c=64 v=127
45583 Par ch=1 c=64 v=0
45588 On ch=1 n=g#5 v=62
45609 Par ch=1 c=64 v=127
45614 Off ch=1 n=c6 v=64
45616 Off ch=1 n=c4 v=64
45639 Off ch=1 n=g#4 v=64
45644 Off ch=1 n=f3 v=64
45674 On ch=1 n=g5 v=63
45684 Off ch=1 n=g#5 v=64
45708 On ch=1 n=g#5 v=59
45724 Off ch=1 n=g5 v=64
45746 Par ch=1 c=64 v=0
45748 On ch=1 n=g5 v=58
45763 Off ch=1 n=g#5 v=64
45775 Par ch=1 c=64 v=127
45791 On ch=1 n=f3 v=42
45812 On ch=1 n=c4 v=48
45829 On ch=1 n=f5 v=58
45829 On ch=1 n=g#4 v=65
45835 Par ch=1 c=64 v=0
45846 Off ch=1 n=g5 v=64
45861 Off ch=1 n=f3 v=64
45861 Par ch=1 c=64 v=127
45870 Off ch=1 n=c4 v=64
45887 Off ch=1 n=g#4 v=64
45907 Par ch=1 c=64 v=0
45929 Par ch=1 c=64 v=127
45958 On ch=1 n=f3 v=50
45979 On ch=1 n=c4 v=41
45989 On ch=1 n=f6 v=61
45989 On ch=1 n=g#4 v=66
45998 Par ch=1 c=64 v=0
46020 Off ch=1 n=f3 v=64
46021 Off ch=1 n=c4 v=64
46027 Par ch=1 c=64 v=127
46043 Off ch=1 n=g#4 v=64
46048 Off ch=1 n=f5 v=64
46056 Par ch=1 c=64 v=0
46094 Par ch=1 c=64 v=127
46145 On ch=1 n=a#5 v=58
46159 Par ch=1 c=64 v=0
46160 Off ch=1 n=f6 v=64
46181 Par ch=1 c=64 v=127
46217 Par ch=1 c=64 v=0
46236 Par ch=1 c=64 v=127
46260 On ch=1 n=c6 v=58
46264 On ch=1 n=a#3 v=54
46276 Off ch=1 n=a#5 v=64
46292 On ch=1 n=f4 v=42
46297 On ch=1 n=c#5 v=65
46302 On ch=1 n=c#6 v=70
46308 Par ch=1 c=64 v=0
46332 Off ch=1 n=a#3 v=64
46334 Off ch=1 n=c6 v=64
46338 Off ch=1 n=f4 v=64
46346 Off ch=1 n=c#5 v=64
46346 Par ch=1 c=64 v=127
46371 Par ch=1 c=64 v=0
46386 Par ch=1 c=64 v=127
46391 On ch=1 n=d#6 v=55
46412 Off ch=1 n=c#6 v=64
46459 On ch=1 n=f6 v=63
46461 On ch=1 n=a#3 v=57
46465 On ch=1 n=c#5 v=57
46468 On ch=1 n=f4 v=54
46469 Par ch=1 c=64 v=0
46470 Off ch=1 n=d#6 v=64
46488 Par ch=1 c=64 v=127
46503 Off ch=1 n=f4 v=64
46505 Off ch=1 n=c#5 v=64
46509 Par ch=1 c=64 v=0
46535 On ch=1 n=c#6 v=74
46539 Off ch=1 n=a#3 v=64
46541 Par ch=1 c=64 v=127
46548 Off ch=1 n=f6 v=64
46571 Off ch=1 n=c#6 v=64
46611 On ch=1 n=c#6 v=78
46623 Par ch=1 c=64 v=0
46638 Par ch=1 c=64 v=127
46646 On ch=1 n=d#6 v=74
46654 Off ch=1 n=c#6 v=64
46680 On ch=1 n=c#6 v=62
46685 Par ch=1 c=64 v=0
46700 Off ch=1 n=d#6 v=64
46706 Par ch=1 c=64 v=127
46744 On ch=1 n=f3 v=48
46761 On ch=1 n=c6 v=61
46761 On ch=1 n=c4 v=53
46761 Par ch=1 c=64 v=0
46770 On ch=1 n=g#4 v=66
46778 Off ch=1 n=c#6 v=64
46788 Off ch=1 n=c4 v=64
46788 Off ch=1 n=f3 v=64
46790 Par ch=1 c=64 v=127
46801 Off ch=1 n=g#4 v=64
46829 Par ch=1 c=64 v=0
46863 Par ch=1 c=64 v=127
46917 On ch=1 n=f3 v=63
46919 On ch=1 n=g#5 v=62
46925 On ch=1 n=c4 v=59
46931 On ch=1 n=g#4 v=71
46934 Par ch=1 c=64 v=0
46940 Off ch=1 n=c6 v=64
46955 Par ch=1 c=64 v=127
46976 Par ch=1 c=64 v=0
46984 Off ch=1 n=c4 v=64
46993 Off ch=1 n=f3 v=64
47003 Par ch=1 c=64 v=127
47061 Off ch=1 n=g#4 v=64
47068 Off ch=1 n=g#5 v=64
47075 On ch=1 n=f5 v=67
47081 Par ch=1 c=64 v=0
47115 Par ch=1 c=64 v=127
47127 Par ch=1 c=64 v=0
47158 Par ch=1 c=64 v=127
47190 On ch=1 n=g5 v=61
47206 Off ch=1 n=f5 v=64
47217 On ch=1 n=f3 v=45
47222 On ch=1 n=g#5 v=67
47228 On ch=1 n=c4 v=61
47228 Par ch=1 c=64 v=0
47235 On ch=1 n=g#4 v=70
47255 Par ch=1 c=64 v=127
47265 Off ch=1 n=f3 v=64
47266 Off ch=1 n=c4 v=64
47266 Off ch=1 n=g5 v=64
47271 Off ch=1 n=g#4 v=64
47281 Par ch=1 c=64 v=0
47299 On ch=1 n=a#5 v=66
47305 Par ch=1 c=64 v=127
47323 Off ch=1 n=g#5 v=64
47376 On ch=1 n=c4 v=62
47376 Par ch=1 c=64 v=0
47383 On ch=1 n=g#4 v=74
47384 On ch=1 n=c6 v=68
47384 On ch=1 n=f3 v=67
47406 Off ch=1 n=a#5 v=64
47407 Par ch=1 c=64 v=127
47412 Par ch=1 c=64 v=0
47426 Off ch=1 n=c4 v=64
47443 On ch=1 n=g#5 v=75
47457 Par ch=1 c=64 v=127
47458 Off ch=1 n=c6 v=64
47514 On ch=1 n=g5 v=74
47522 Off ch=1 n=f3 v=64
47525 Off ch=1 n=g#4 v=64
47533 Off ch=1 n=g#5 v=64
47533 Par ch=1 c=64 v=0
47548 On ch=1 n=g#5 v=71
47557 Par ch=1 c=64 v=127
47563 Off ch=1 n=g5 v=64
47585 On ch=1 n=g5 v=63
47601 Off ch=1 n=g#5 v=64
47664 Par ch=1 c=64 v=0
47675 On ch=1 n=f5 v=57
47682 On ch=1 n=g#4 v=71
47685 On ch=1 n=c4 v=63
47685 On ch=1 n=f3 v=49
47697 Off ch=1 n=g5 v=64
47709 Par ch=1 c=64 v=127
47726 Off ch=1 n=f3 v=64
47726 Off ch=1 n=c4 v=64
47733 Off ch=1 n=g#4 v=64
47736 Par ch=1 c=64 v=0
47783 Par ch=1 c=64 v=127
47831 On ch=1 n=g#4 v=66
47832 On ch=1 n=c6 v=74
47837 On ch=1 n=f3 v=66
47841 On ch=1 n=c4 v=54
47849 Off ch=1 n=f5 v=64
47873 Off ch=1 n=c4 v=64
47877 Off ch=1 n=c6 v=64
47881 Off ch=1 n=f3 v=64
47881 Off ch=1 n=g#4 v=64
47883 Par ch=1 c=64 v=0
47934 Par ch=1 c=64 v=127
47952 On ch=1 n=c6 v=68
47988 Par ch=1 c=64 v=0
47995 On ch=1 n=c5 v=78
48001 Off ch=1 n=c6 v=64
48035 Par ch=1 c=64 v=127
48060 Par ch=1 c=64 v=0
48095 On ch=1 n=d5 v=62
48104 Par ch=1 c=64 v=127
48122 Off ch=1 n=c5 v=64
48132 Par ch=1 c=64 v=0
48136 On ch=1 n=d#4 v=52
48145 On ch=1 n=g4 v=59
48146 On ch=1 n=g3 v=58
48155 On ch=1 n=d#5 v=65
48183 Par ch=1 c=64 v=127
48194 Off ch=1 n=d#4 v=64
48195 Off ch=1 n=d5 v=64
48196 Off ch=1 n=g3 v=64
48196 Off ch=1 n=g4 v=64
48232 On ch=1 n=f5 v=66
48243 Off ch=1 n=d#5 v=64
48309 Par ch=1 c=64 v=0
48315 On ch=1 n=d4 v=63
48316 On ch=1 n=g3 v=59
48319 On ch=1 n=g5 v=74
48323 On ch=1 n=g4 v=53
48346 Off ch=1 n=f5 v=64
48353 Par ch=1 c=64 v=127
48363 Off ch=1 n=g3 v=64
48363 Off ch=1 n=d4 v=64
48386 On ch=1 n=b4 v=68
48389 Par ch=1 c=64 v=0
48397 Off ch=1 n=g4 v=64
48407 Off ch=1 n=g5 v=64
48454 Par ch=1 c=64 v=127
48479 On ch=1 n=c5 v=74
48499 Off ch=1 n=b4 v=64
48601 On ch=1 n=c4 v=57
48605 Par ch=1 c=64 v=0
48627 On ch=1 n=g4 v=66
48638 Par ch=1 c=64 v=0
48641 On ch=1 n=e5 v=52
48651 Par ch=1 c=64 v=127
48696 Off ch=1 n=c5 v=64
48703 Off ch=1 n=c4 v=64
48703 Par ch=1 c=64 v=127
48714 Off ch=1 n=g4 v=64
48719 Off ch=1 n=e5 v=64
48751 On ch=1 n=c5 v=62
48810 Off ch=1 n=c5 v=64
48820 On ch=1 n=c#5 v=68
48828 On ch=1 n=c4 v=37
48830 On ch=1 n=a#4 v=58
48837 On ch=1 n=e5 v=54
48847 On ch=1 n=d#5 v=76
48851 Par ch=1 c=64 v=0
48856 Off ch=1 n=c#5 v=64
48883 On ch=1 n=c#5 v=70
48897 Off ch=1 n=d#5 v=64
48897 Off ch=1 n=e5 v=64
48900 Par ch=1 c=64 v=127
48932 Off ch=1 n=a#4 v=64
48958 Off ch=1 n=c4 v=64
48980 Off ch=1 n=c#5 v=64
48992 On ch=1 n=c5 v=65
48994 Par ch=1 c=64 v=0
49040 Par ch=1 c=64 v=127
49072 Off ch=1 n=c5 v=64
49080 On ch=1 n=f5 v=41
49145 Par ch=1 c=64 v=0
49188 Par ch=1 c=64 v=127
49206 On ch=1 n=g5 v=46
49218 Off ch=1 n=f5 v=64
49221 On ch=1 n=f3 v=41
49239 On ch=1 n=c4 v=40
49244 On ch=1 n=g#5 v=49
49244 On ch=1 n=g#4 v=45
49246 Par ch=1 c=64 v=0
49275 Off ch=1 n=g5 v=64
49285 Off ch=1 n=f3 v=64
49290 Off ch=1 n=g#4 v=64
49292 Par ch=1 c=64 v=127
49299 Par ch=1 c=64 v=0
49301 Off ch=1 n=c4 v=64
49323 On ch=1 n=a#5 v=45
49337 Par ch=1 c=64 v=127
49358 Off ch=1 n=g#5 v=64
49396 On ch=1 n=f3 v=39
49397 Par ch=1 c=64 v=0
49408 On ch=1 n=c6 v=48
49413 On ch=1 n=g#4 v=45
49413 On ch=1 n=c4 v=39
49435 Off ch=1 n=a#5 v=64
49440 Par ch=1 c=64 v=127
49475 Par ch=1 c=64 v=0
49476 Off ch=1 n=c4 v=64
49481 On ch=1 n=g#5 v=55
49495 Off ch=1 n=c6 v=64
49498 Par ch=1 c=64 v=127
49520 Off ch=1 n=g#4 v=64
49524 Off ch=1 n=f3 v=64
49551 Par ch=1 c=64 v=0
49557 On ch=1 n=g5 v=46
49561 Off ch=1 n=g#5 v=64
49579 On ch=1 n=g#5 v=52
49589 Par ch=1 c=64 v=127
49603 Off ch=1 n=g5 v=64
49613 On ch=1 n=g5 v=41
49630 Off ch=1 n=g#5 v=64
49632 Par ch=1 c=64 v=0
49656 Par ch=1 c=64 v=127
49697 On ch=1 n=f5 v=35
49705 On ch=1 n=g#4 v=45
49708 On ch=1 n=f3 v=39
49709 Off ch=1 n=g5 v=64
49714 On ch=1 n=c4 v=41
49724 Par ch=1 c=64 v=0
49747 Par ch=1 c=64 v=127
49751 Off ch=1 n=c4 v=64
49751 Off ch=1 n=f3 v=64
49759 Off ch=1 n=g#4 v=64
49770 Par ch=1 c=64 v=0
49806 Par ch=1 c=64 v=127
49855 On ch=1 n=f3 v=40
49863 On ch=1 n=f6 v=49
49863 On ch=1 n=g#4 v=41
49869 On ch=1 n=c4 v=41
49884 Par ch=1 c=64 v=0
49901 Off ch=1 n=f5 v=64
49906 Off ch=1 n=f6 v=64
49908 Off ch=1 n=c4 v=64
49908 Par ch=1 c=64 v=127
49914 Par ch=1 c=64 v=0
49918 Off ch=1 n=f3 v=64
49958 Par ch=1 c=64 v=127
49959 Off ch=1 n=g#4 v=64
49983 On ch=1 n=f6 v=45
50011 On ch=1 n=a#5 v=48
50022 Par ch=1 c=64 v=0
50044 Off ch=1 n=f6 v=64
50058 Par ch=1 c=64 v=127
50067 Par ch=1 c=64 v=0
50103 Par ch=1 c=64 v=127
50123 On ch=1 n=c6 v=45
50149 Off ch=1 n=a#5 v=64
50157 On ch=1 n=a#3 v=28
50166 Par ch=1 c=64 v=0
50173 On ch=1 n=c#6 v=42
50173 On ch=1 n=c#5 v=41
50173 On ch=1 n=f4 v=36
50198 Off ch=1 n=c6 v=64
50210 Par ch=1 c=64 v=127
50213 Off ch=1 n=a#3 v=64
50218 Par ch=1 c=64 v=0
50220 Off ch=1 n=f4 v=64
50220 Off ch=1 n=c#5 v=64
50254 On ch=1 n=d#6 v=44
50268 Par ch=1 c=64 v=127
50278 Off ch=1 n=c#6 v=64
50316 On ch=1 n=f6 v=46
50316 Par ch=1 c=64 v=0
50330 On ch=1 n=c#5 v=41
50332 On ch=1 n=a#3 v=41
50336 Off ch=1 n=d#6 v=64
50343 On ch=1 n=f4 v=32
50352 Par ch=1 c=64 v=127
50373 Off ch=1 n=c#5 v=64
50375 Off ch=1 n=f4 v=64
50380 Par ch=1 c=64 v=0
50402 On ch=1 n=c#6 v=55
50407 Off ch=1 n=a#3 v=64
50415 Off ch=1 n=f6 v=64
50416 Par ch=1 c=64 v=127
50434 Off ch=1 n=c#6 v=64
50467 Par ch=1 c=64 v=0
50474 On ch=1 n=c#6 v=57
50504 On ch=1 n=d#6 v=53
50516 Off ch=1 n=c#6 v=64
50517 Par ch=1 c=64 v=127
50540 On ch=1 n=c#6 v=48
50544 Par ch=1 c=64 v=0
50555 Off ch=1 n=d#6 v=64
50606 Par ch=1 c=64 v=127
50622 On ch=1 n=c6 v=45
50628 On ch=1 n=f3 v=41
50631 On ch=1 n=g#4 v=41
50632 Par ch=1 c=64 v=0
50634 Off ch=1 n=c#6 v=64
50639 On ch=1 n=c4 v=41
50667 Off ch=1 n=f3 v=64
50668 Par ch=1 c=64 v=127
50669 Off ch=1 n=g#4 v=64
50677 Off ch=1 n=c4 v=64
50713 Par ch=1 c=64 v=0
50739 Par ch=1 c=64 v=127
50782 Off ch=1 n=c6 v=64
50796 Par ch=1 c=64 v=0
50801 On ch=1 n=g#5 v=62
50808 On ch=1 n=f3 v=36
50814 On ch=1 n=g#4 v=50
50820 On ch=1 n=c4 v=32
50858 Par ch=1 c=64 v=127
50877 Par ch=1 c=64 v=0
50901 Par ch=1 c=64 v=127
50958 Off ch=1 n=c4 v=64
50964 On ch=1 n=f5 v=48
50965 Par ch=1 c=64 v=0
50981 Off ch=1 n=f3 v=64
50986 Off ch=1 n=g#4 v=64
50989 Off ch=1 n=g#5 v=64
50991 Par ch=1 c=64 v=127
51014 Par ch=1 c=64 v=0
51060 Par ch=1 c=64 v=127
51079 On ch=1 n=g5 v=42
51093 Off ch=1 n=f5 v=64
51100 On ch=1 n=f3 v=41
51118 On ch=1 n=g#5 v=49
51124 On ch=1 n=c4 v=28
51129 On ch=1 n=g#4 v=50
51129 Par ch=1 c=64 v=0
51153 Par ch=1 c=64 v=127
51162 Off ch=1 n=g5 v=64
51166 Off ch=1 n=g#4 v=64
51167 Off ch=1 n=f3 v=64
51170 Off ch=1 n=c4 v=64
51186 Par ch=1 c=64 v=0
51204 On ch=1 n=a#5 v=41
51213 Par ch=1 c=64 v=127
51246 Off ch=1 n=g#5 v=64
51266 Par ch=1 c=64 v=0
51276 On ch=1 n=f3 v=41
51285 On ch=1 n=c6 v=48
51285 On ch=1 n=g#4 v=49
51285 On ch=1 n=c4 v=41
51296 On ch=1 n=f5 v=20
51306 Par ch=1 c=64 v=127
51313 Off ch=1 n=a#5 v=64
51343 Par ch=1 c=64 v=0
51361 On ch=1 n=g#5 v=54
51362 Par ch=1 c=64 v=127
51365 Off ch=1 n=c6 v=64
51387 Off ch=1 n=f5 v=64
51397 Off ch=1 n=c4 v=64
51407 Off ch=1 n=g#4 v=64
51408 Off ch=1 n=g#5 v=64
51410 Off ch=1 n=f3 v=64
51420 On ch=1 n=g5 v=49
51426 Par ch=1 c=64 v=0
51442 On ch=1 n=g#5 v=49
51453 Par ch=1 c=64 v=127
51460 Off ch=1 n=g5 v=64
51481 On ch=1 n=g5 v=48
51484 Par ch=1 c=64 v=0
51494 Off ch=1 n=g#5 v=64
51523 Par ch=1 c=64 v=127
51578 On ch=1 n=f5 v=42
51583 On ch=1 n=f3 v=37
51585 On ch=1 n=g#4 v=40
51586 Par ch=1 c=64 v=0
51593 On ch=1 n=c4 v=39
51597 Off ch=1 n=g5 v=64
51605 Par ch=1 c=64 v=127
51620 Off ch=1 n=f3 v=64
51622 Off ch=1 n=c4 v=64
51623 Off ch=1 n=g#4 v=64
51641 Par ch=1 c=64 v=0
51679 Par ch=1 c=64 v=127
51733 Par ch=1 c=64 v=0
51736 On ch=1 n=c6 v=49
51743 On ch=1 n=g#4 v=52
51746 On ch=1 n=f3 v=45
51751 On ch=1 n=c4 v=44
51756 Off ch=1 n=f5 v=64
51775 Par ch=1 c=64 v=127
51795 Par ch=1 c=64 v=0
51806 Off ch=1 n=c6 v=64
51824 Par ch=1 c=64 v=127
51856 Off ch=1 n=c4 v=64
51878 Off ch=1 n=f3 v=64
51893 Par ch=1 c=64 v=0
51897 On ch=1 n=c5 v=41
51918 Off ch=1 n=g#4 v=64
51928 Par ch=1 c=64 v=127
51942 Par ch=1 c=64 v=0
51974 Par ch=1 c=64 v=127
52007 On ch=1 n=e5 v=42
52027 Off ch=1 n=c5 v=64
52043 On ch=1 n=f3 v=36
52044 On ch=1 n=g5 v=37
52044 Par ch=1 c=64 v=0
52053 On ch=1 n=g4 v=27
52053 On ch=1 n=c4 v=36
52073 Par ch=1 c=64 v=127
52082 Off ch=1 n=e5 v=64
52088 Off ch=1 n=g4 v=64
52088 Off ch=1 n=f3 v=64
52094 Off ch=1 n=c4 v=64
52115 Par ch=1 c=64 v=0
52141 Par ch=1 c=64 v=127
52144 On ch=1 n=a#5 v=41
52161 Off ch=1 n=g5 v=64
52194 Par ch=1 c=64 v=0
52202 On ch=1 n=c4 v=39
52203 On ch=1 n=g4 v=48
52207 On ch=1 n=f3 v=41
52210 On ch=1 n=c#6 v=48
52218 Off ch=1 n=a#5 v=64
52226 Par ch=1 c=64 v=127
52262 Off ch=1 n=f3 v=64
52262 Par ch=1 c=64 v=0
52285 Off ch=1 n=c4 v=64
52288 Par ch=1 c=64 v=127
52314 Off ch=1 n=g4 v=64
52321 On ch=1 n=c6 v=44
52330 Off ch=1 n=c#6 v=64
52357 On ch=1 n=g#5 v=57
52367 Par ch=1 c=64 v=0
52374 Off ch=1 n=c6 v=64
52393 Par ch=1 c=64 v=127
52403 On ch=1 n=a#5 v=54
52409 Off ch=1 n=g#5 v=64
52436 On ch=1 n=g#5 v=49
52458 Off ch=1 n=a#5 v=64
52494 On ch=1 n=f5 v=49
52502 On ch=1 n=g#4 v=45
52504 On ch=1 n=c4 v=41
52504 On ch=1 n=f3 v=36
52514 Par ch=1 c=64 v=0
52517 Off ch=1 n=g#5 v=64
52540 Par ch=1 c=64 v=127
52544 Off ch=1 n=g#4 v=64
52545 Off ch=1 n=c4 v=64
52551 Off ch=1 n=f3 v=64
52567 Par ch=1 c=64 v=0
52606 Par ch=1 c=64 v=127
52656 On ch=1 n=f6 v=55
52665 On ch=1 n=g#4 v=45
52665 On ch=1 n=f3 v=39
52674 On ch=1 n=c4 v=41
52684 Off ch=1 n=f5 v=64
52691 Off ch=1 n=f6 v=64
52722 Par ch=1 c=64 v=0
52736 Par ch=1 c=64 v=127
52746 Off ch=1 n=c4 v=64
52760 Off ch=1 n=f3 v=64
52806 Off ch=1 n=g#4 v=64
52812 On ch=1 n=c5 v=48
52819 Par ch=1 c=64 v=0
52849 Par ch=1 c=64 v=0
52858 Par ch=1 c=64 v=127
52880 Par ch=1 c=64 v=127
52919 On ch=1 n=e5 v=33
52942 Off ch=1 n=c5 v=64
52954 On ch=1 n=g5 v=41
52965 On ch=1 n=g4 v=44
52965 On ch=1 n=f3 v=41
52967 On ch=1 n=c4 v=44
52974 Par ch=1 c=64 v=0
52988 Par ch=1 c=64 v=127
52994 Off ch=1 n=e5 v=64
53003 Off ch=1 n=c4 v=64
53003 Off ch=1 n=g4 v=64
53006 Par ch=1 c=64 v=0
53009 Off ch=1 n=f3 v=64
53019 Par ch=1 c=64 v=127
53066 On ch=1 n=a#5 v=41
53077 Off ch=1 n=g5 v=64
53098 Par ch=1 c=64 v=0
53112 On ch=1 n=c#6 v=48
53113 On ch=1 n=g4 v=49
53120 On ch=1 n=c4 v=32
53120 On ch=1 n=f3 v=42
53126 Off ch=1 n=a#5 v=64
53129 Par ch=1 c=64 v=127
53164 Par ch=1 c=64 v=0
53186 Par ch=1 c=64 v=127
53191 Off ch=1 n=f3 v=64
53203 On ch=1 n=c6 v=45
53215 Off ch=1 n=c4 v=64
53219 Off ch=1 n=c#6 v=64
53255 Par ch=1 c=64 v=0
53264 On ch=1 n=g#5 v=48
53271 Off ch=1 n=g4 v=64
53271 Par ch=1 c=64 v=127
53274 Off ch=1 n=c6 v=64
53323 On ch=1 n=a#5 v=53
53335 Off ch=1 n=g#5 v=64
53356 On ch=1 n=g#5 v=45
53366 Off ch=1 n=a#5 v=64
53404 On ch=1 n=f5 v=36
53412 On ch=1 n=g#4 v=44
53413 Par ch=1 c=64 v=0
53422 Off ch=1 n=g#5 v=64
53422 On ch=1 n=f3 v=33
53427 On ch=1 n=c4 v=39
53435 Par ch=1 c=64 v=127
53463 Off ch=1 n=f3 v=64
53465 Off ch=1 n=c4 v=64
53470 Off ch=1 n=g#4 v=64
53500 Par ch=1 c=64 v=0
53536 Par ch=1 c=64 v=127
53575 On ch=1 n=g#6 v=59
53580 On ch=1 n=g#4 v=44
53585 On ch=1 n=f3 v=45
53587 Off ch=1 n=f5 v=64
53588 On ch=1 n=c4 v=41
53616 Off ch=1 n=g#6 v=64
53640 Off ch=1 n=g#4 v=64
53693 Off ch=1 n=c4 v=64
53720 Off ch=1 n=f3 v=64
53752 Par ch=1 c=64 v=0
53755 On ch=1 n=c5 v=54
53788 Par ch=1 c=64 v=127
53867 On ch=1 n=e5 v=41
53889 Off ch=1 n=c5 v=64
53906 On ch=1 n=g4 v=41
53906 On ch=1 n=f3 v=36
53914 On ch=1 n=c4 v=37
53919 On ch=1 n=g5 v=41
53935 Off ch=1 n=e5 v=64
53951 Off ch=1 n=g4 v=64
53956 Off ch=1 n=c4 v=64
53956 Off ch=1 n=f3 v=64
53957 Par ch=1 c=64 v=0
53978 On ch=1 n=a#5 v=20
53982 Par ch=1 c=64 v=127
53997 Off ch=1 n=g5 v=64
54056 On ch=1 n=g4 v=44
54057 On ch=1 n=f3 v=41
54063 On ch=1 n=c4 v=36
54070 On ch=1 n=c#6 v=49
54090 Off ch=1 n=a#5 v=64
54105 Par ch=1 c=64 v=0
54135 Off ch=1 n=f3 v=64
54138 Par ch=1 c=64 v=127
54144 Off ch=1 n=g4 v=64
54152 On ch=1 n=c6 v=41
54159 Off ch=1 n=c4 v=64
54171 Off ch=1 n=c#6 v=64
54204 On ch=1 n=g#5 v=57
54209 Par ch=1 c=64 v=0
54220 Off ch=1 n=c6 v=64
54234 Par ch=1 c=64 v=127
54244 On ch=1 n=a#5 v=52
54261 Off ch=1 n=g#5 v=64
54285 On ch=1 n=g#5 v=48
54302 Off ch=1 n=a#5 v=64
54354 Par ch=1 c=64 v=0
54357 On ch=1 n=c4 v=50
54364 On ch=1 n=f5 v=60
54364 On ch=1 n=g#4 v=48
54364 On ch=1 n=f3 v=48
54376 Off ch=1 n=g#5 v=64
54387 Par ch=1 c=64 v=127
54521 Par ch=1 c=64 v=0
54544 On ch=1 n=a#4 v=41
54549 On ch=1 n=f6 v=52
54552 On ch=1 n=c#4 v=57
54556 Off ch=1 n=f3 v=64
54560 Off ch=1 n=c4 v=64
54568 Par ch=1 c=64 v=127
54573 Off ch=1 n=f5 v=64
54593 Off ch=1 n=g#4 v=64
54714 Off ch=1 n=a#4 v=64
54722 Off ch=1 n=c#4 v=64
54758 On ch=1 n=f7 v=50
54758 On ch=1 n=g#4 v=58
54765 On ch=1 n=c4 v=50
54765 On ch=1 n=f3 v=1
54773 Par ch=1 c=64 v=0
54788 Off ch=1 n=f6 v=64
54820 Par ch=1 c=64 v=127
55080 On ch=1 n=f8 v=70
55112 Off ch=1 n=f7 v=64
55465 Off ch=1 n=f8 v=64
55499 Par ch=1 c=64 v=0
55591 Off ch=1 n=g#4 v=64
55598 Off ch=1 n=f3 v=64
55598 Off ch=1 n=c4 v=64
55751 Par ch=1 c=64 v=0
55751 Meta TrkEnd
TrkEnd
MTrk
0 Meta TrkName "Played by Dr. Ron Lubetsky"
0 Meta TrkEnd
TrkEnd
MTrk
0 Meta TrkName "Jan. 21, 1"
