MFile 1 7 240
MTrk
0 TimeSig 4/4 24 8
0 Tempo 500000
0 Meta Marker "Chopin: Mazurka, Op. 6 No. 3- Vivace"
0 Meta TrkEnd
TrkEnd
MTrk
0 Meta TrkName "Chopin: Op. 6 No. 3"
0 PrCh ch=1 p=0
0 Par ch=1 c=7 v=127
132 Par ch=1 c=64 v=0
136 Par ch=1 c=64 v=0
144 Par ch=1 c=64 v=127
148 Par ch=1 c=64 v=127
502 On ch=1 n=b4 v=66
502 On ch=1 n=e4 v=62
523 Off ch=1 n=e4 v=64
525 Off ch=1 n=b4 v=64
654 On ch=1 n=b4 v=63
654 On ch=1 n=e4 v=67
673 Off ch=1 n=b4 v=64
677 Off ch=1 n=e4 v=64
737 Par ch=1 c=64 v=0
741 Par ch=1 c=64 v=0
802 On ch=1 n=b4 v=88
804 Par ch=1 c=64 v=127
804 On ch=1 n=e4 v=88
808 Par ch=1 c=64 v=127
823 Off ch=1 n=b4 v=64
825 Off ch=1 n=e4 v=64
944 On ch=1 n=b4 v=65
944 On ch=1 n=e4 v=62
966 Off ch=1 n=b4 v=64
968 Off ch=1 n=e4 v=64
1097 On ch=1 n=b4 v=70
1098 On ch=1 n=e4 v=67
1118 Off ch=1 n=b4 v=64
1120 Off ch=1 n=e4 v=64
1240 On ch=1 n=b4 v=89
1242 On ch=1 n=e4 v=88
1264 Off ch=1 n=b4 v=64
1267 Off ch=1 n=e4 v=64
1378 On ch=1 n=b4 v=70
1380 On ch=1 n=e4 v=66
1400 Off ch=1 n=b4 v=64
1403 Off ch=1 n=e4 v=64
1468 Par ch=1 c=64 v=0
1472 Par ch=1 c=64 v=0
1501 Par ch=1 c=64 v=127
1505 Par ch=1 c=64 v=127
1517 On ch=1 n=b4 v=92
1521 On ch=1 n=e4 v=88
1541 Off ch=1 n=b4 v=64
1544 Off ch=1 n=e4 v=64
1657 On ch=1 n=b4 v=66
1657 On ch=1 n=e4 v=61
1676 Off ch=1 n=b4 v=64
1678 Off ch=1 n=e4 v=64
1763 Par ch=1 c=64 v=0
1767 Par ch=1 c=64 v=0
1792 On ch=1 n=b4 v=92
1794 On ch=1 n=e4 v=88
1801 Par ch=1 c=64 v=127
1805 Par ch=1 c=64 v=127
1816 Off ch=1 n=b4 v=64
1817 Off ch=1 n=e4 v=64
1935 On ch=1 n=e4 v=58
1937 On ch=1 n=b4 v=63
1958 Off ch=1 n=e4 v=64
1959 Off ch=1 n=b4 v=64
2070 On ch=1 n=e4 v=83
2073 On ch=1 n=b4 v=88
2098 Off ch=1 n=e4 v=64
2099 Off ch=1 n=b4 v=64
2196 On ch=1 n=c#4 v=74
2201 On ch=1 n=e4 v=61
2204 On ch=1 n=b4 v=57
2230 Off ch=1 n=e4 v=64
2236 Off ch=1 n=b4 v=64
2272 On ch=1 n=b3 v=76
2275 Par ch=1 c=64 v=0
2279 Par ch=1 c=64 v=0
2281 Off ch=1 n=c#4 v=64
2324 On ch=1 n=b4 v=55
2324 On ch=1 n=e4 v=57
2329 On ch=1 n=a3 v=72
2337 Par ch=1 c=64 v=127
2339 Off ch=1 n=b3 v=64
2341 Par ch=1 c=64 v=127
2349 Off ch=1 n=e4 v=64
2349 Off ch=1 n=b4 v=64
2375 Off ch=1 n=a3 v=64
2451 On ch=1 n=e4 v=74
2457 On ch=1 n=b4 v=66
2464 On ch=1 n=g#3 v=98
2476 Off ch=1 n=e4 v=64
2479 Off ch=1 n=b4 v=64
2484 Par ch=1 c=64 v=0
2488 Par ch=1 c=64 v=0
2510 Off ch=1 n=g#3 v=64
2557 On ch=1 n=g#3 v=88
2581 On ch=1 n=f#3 v=80
2590 On ch=1 n=e4 v=58
2594 On ch=1 n=b4 v=48
2601 Off ch=1 n=g#3 v=64
2617 On ch=1 n=e3 v=82
2619 Off ch=1 n=e4 v=64
2620 Off ch=1 n=b4 v=64
2629 Off ch=1 n=f#3 v=64
2731 On ch=1 n=b4 v=57
2731 On ch=1 n=e4 v=57
2754 Off ch=1 n=b4 v=64
2758 Off ch=1 n=e4 v=64
2844 Par ch=1 c=64 v=127
2848 Par ch=1 c=64 v=127
2854 On ch=1 n=b4 v=70
2854 On ch=1 n=e4 v=72
2882 Off ch=1 n=e4 v=64
2883 Off ch=1 n=b4 v=64
2989 On ch=1 n=b4 v=55
2989 On ch=1 n=e4 v=63
2989 On ch=1 n=c#4 v=75
2994 Par ch=1 c=64 v=0
2998 Par ch=1 c=64 v=0
3009 Off ch=1 n=e3 v=64
3018 Off ch=1 n=b4 v=64
3021 Off ch=1 n=e4 v=64
3085 On ch=1 n=b3 v=79
3094 Off ch=1 n=c#4 v=64
3117 On ch=1 n=e4 v=58
3118 On ch=1 n=b4 v=57
3128 On ch=1 n=a3 v=74
3136 Off ch=1 n=b3 v=64
3140 Off ch=1 n=b4 v=64
3140 Off ch=1 n=e4 v=64
3174 Off ch=1 n=a3 v=64
3241 On ch=1 n=b4 v=66
3243 On ch=1 n=e4 v=76
3249 On ch=1 n=g#3 v=96
3259 Off ch=1 n=b4 v=64
3265 Off ch=1 n=e4 v=64
3292 Off ch=1 n=g#3 v=64
3339 On ch=1 n=g#3 v=79
3363 On ch=1 n=f#3 v=81
3378 On ch=1 n=b4 v=52
3379 Off ch=1 n=g#3 v=64
3379 On ch=1 n=e4 v=58
3389 On ch=1 n=e3 v=86
3401 Off ch=1 n=b4 v=64
3409 Par ch=1 c=64 v=127
3411 Off ch=1 n=e4 v=64
3411 Off ch=1 n=f#3 v=64
3413 Par ch=1 c=64 v=127
3467 Par ch=1 c=64 v=0
3471 Par ch=1 c=64 v=0
3497 Par ch=1 c=64 v=127
3501 Par ch=1 c=64 v=127
3524 On ch=1 n=b4 v=62
3526 On ch=1 n=e4 v=62
3557 Off ch=1 n=b4 v=64
3558 Off ch=1 n=e4 v=64
3652 On ch=1 n=e4 v=65
3654 On ch=1 n=b4 v=63
3686 Off ch=1 n=e3 v=64
3768 Off ch=1 n=e4 v=64
3770 Off ch=1 n=b4 v=64
3805 On ch=1 n=e3 v=84
3807 On ch=1 n=g#4 v=78
3810 On ch=1 n=b4 v=68
3857 Off ch=1 n=b4 v=64
3862 Off ch=1 n=g#4 v=64
3907 On ch=1 n=b4 v=61
3908 On ch=1 n=e5 v=55
3930 Off ch=1 n=b4 v=64
3931 Off ch=1 n=e5 v=64
3955 On ch=1 n=b4 v=55
3957 On ch=1 n=g#5 v=88
3957 On ch=1 n=e4 v=68
3959 On ch=1 n=e5 v=68
3998 Off ch=1 n=e4 v=64
4001 Off ch=1 n=b4 v=64
4020 Off ch=1 n=g#5 v=64
4032 Off ch=1 n=e5 v=64
4083 On ch=1 n=g#5 v=81
4090 On ch=1 n=b5 v=102
4093 On ch=1 n=b4 v=58
4093 On ch=1 n=e4 v=65
4129 Off ch=1 n=b4 v=64
4139 Off ch=1 n=e4 v=64
4141 Off ch=1 n=g#5 v=64
4146 Off ch=1 n=b5 v=64
4154 Off ch=1 n=e3 v=64
4207 Par ch=1 c=64 v=0
4211 Par ch=1 c=64 v=0
4216 On ch=1 n=e6 v=91
4217 On ch=1 n=b5 v=83
4228 Par ch=1 c=64 v=127
4228 On ch=1 n=b4 v=61
4231 On ch=1 n=e4 v=71
4232 Par ch=1 c=64 v=127
4271 Off ch=1 n=b4 v=64
4275 Off ch=1 n=e6 v=64
4276 Off ch=1 n=e4 v=64
4276 Off ch=1 n=b5 v=64
4328 On ch=1 n=g#5 v=76
4328 On ch=1 n=e5 v=70
4351 Off ch=1 n=e5 v=64
4351 Off ch=1 n=g#5 v=64
4358 On ch=1 n=b4 v=67
4358 On ch=1 n=e4 v=67
4372 On ch=1 n=g#5 v=84
4373 On ch=1 n=b5 v=104
4411 Off ch=1 n=e4 v=64
4412 Off ch=1 n=b4 v=64
4435 Off ch=1 n=g#5 v=64
4436 Off ch=1 n=b5 v=64
4483 Par ch=1 c=64 v=0
4487 Par ch=1 c=64 v=0
4504 On ch=1 n=e6 v=96
4504 On ch=1 n=b5 v=76
4508 On ch=1 n=e5 v=67
4508 On ch=1 n=b4 v=65
4508 On ch=1 n=g#4 v=59
4508 On ch=1 n=e4 v=59
4515 Par ch=1 c=64 v=127
4519 Par ch=1 c=64 v=127
4552 Off ch=1 n=e5 v=64
4560 Off ch=1 n=b5 v=64
4562 Off ch=1 n=b4 v=64
4565 Off ch=1 n=e6 v=64
4570 Off ch=1 n=e4 v=64
4570 Off ch=1 n=g#4 v=64
4624 On ch=1 n=f#6 v=88
4624 On ch=1 n=d#6 v=65
4632 On ch=1 n=d#5 v=55
4632 On ch=1 n=b4 v=46
4632 On ch=1 n=a4 v=47
4632 On ch=1 n=e4 v=42
4660 On ch=1 n=g#6 v=72
4670 Off ch=1 n=f#6 v=64
4684 Off ch=1 n=e4 v=64
4684 Off ch=1 n=a4 v=64
4684 Off ch=1 n=b4 v=64
4691 Off ch=1 n=d#5 v=64
4700 On ch=1 n=f#6 v=74
4715 Off ch=1 n=g#6 v=64
4780 On ch=1 n=b4 v=40
4780 On ch=1 n=a4 v=41
4781 On ch=1 n=d#5 v=45
4781 On ch=1 n=e4 v=37
4784 Off ch=1 n=f#6 v=64
4785 On ch=1 n=d6 v=75
4788 On ch=1 n=f6 v=78
4799 Off ch=1 n=d#6 v=64
4821 Off ch=1 n=e4 v=64
4821 Off ch=1 n=a4 v=64
4828 Off ch=1 n=b4 v=64
4830 Off ch=1 n=d#5 v=64
4851 On ch=1 n=f#6 v=82
4852 On ch=1 n=d#6 v=75
4854 Off ch=1 n=f6 v=64
4855 Off ch=1 n=d6 v=64
4920 On ch=1 n=e6 v=80
4920 On ch=1 n=d#5 v=55
4924 On ch=1 n=b4 v=46
4924 On ch=1 n=a4 v=46
4924 On ch=1 n=e4 v=33
4925 On ch=1 n=g#6 v=86
4930 Off ch=1 n=f#6 v=64
4934 Off ch=1 n=d#6 v=64
4959 Off ch=1 n=a4 v=64
4960 Off ch=1 n=e4 v=64
4965 Off ch=1 n=b4 v=64
4971 Off ch=1 n=d#5 v=64
4992 On ch=1 n=f#6 v=77
4998 Off ch=1 n=g#6 v=64
4998 On ch=1 n=a6 v=93
5000 Off ch=1 n=e6 v=64
5048 Off ch=1 n=a6 v=64
5048 Par ch=1 c=64 v=0
5052 Par ch=1 c=64 v=0
5057 On ch=1 n=a6 v=92
5058 Off ch=1 n=f#6 v=64
5062 On ch=1 n=c#7 v=112
5063 On ch=1 n=g#4 v=54
5064 On ch=1 n=e5 v=62
5064 On ch=1 n=b4 v=54
5064 On ch=1 n=e4 v=52
5088 Par ch=1 c=64 v=127
5092 Par ch=1 c=64 v=127
5100 Off ch=1 n=e5 v=64
5105 Off ch=1 n=b4 v=64
5112 Off ch=1 n=e4 v=64
5115 Off ch=1 n=g#4 v=64
5172 On ch=1 n=b6 v=95
5172 On ch=1 n=g#6 v=80
5175 Off ch=1 n=a6 v=64
5180 Off ch=1 n=c#7 v=64
5180 Par ch=1 c=64 v=0
5184 Par ch=1 c=64 v=0
5192 Off ch=1 n=g#6 v=64
5200 On ch=1 n=g#6 v=103
5200 On ch=1 n=e6 v=76
5200 On ch=1 n=e5 v=49
5207 On ch=1 n=g#4 v=41
5208 On ch=1 n=b4 v=70
5210 On ch=1 n=e4 v=52
5221 Off ch=1 n=b6 v=64
5226 Par ch=1 c=64 v=127
5230 Par ch=1 c=64 v=127
5235 Off ch=1 n=e5 v=64
5236 Off ch=1 n=b4 v=64
5245 Off ch=1 n=g#4 v=64
5246 Off ch=1 n=e4 v=64
5332 On ch=1 n=b4 v=62
5335 On ch=1 n=e5 v=66
5335 On ch=1 n=g#4 v=62
5338 On ch=1 n=e4 v=66
5372 Off ch=1 n=b4 v=64
5380 Off ch=1 n=e4 v=64
5383 Off ch=1 n=g#4 v=64
5388 Off ch=1 n=e5 v=64
5447 Par ch=1 c=64 v=0
5451 Par ch=1 c=64 v=0
5454 Off ch=1 n=e6 v=64
5459 Off ch=1 n=g#6 v=64
5471 On ch=1 n=f#6 v=79
5475 On ch=1 n=d#6 v=80
5475 On ch=1 n=e4 v=27
5478 Par ch=1 c=64 v=127
5482 On ch=1 n=d#5 v=44
5482 Par ch=1 c=64 v=127
5489 On ch=1 n=b4 v=35
5489 On ch=1 n=a4 v=36
5507 On ch=1 n=g#6 v=71
5517 Off ch=1 n=b4 v=64
5517 Off ch=1 n=f#6 v=64
5519 Off ch=1 n=a4 v=64
5523 Off ch=1 n=e4 v=64
5524 Off ch=1 n=d#5 v=64
5544 On ch=1 n=f#6 v=70
5556 Off ch=1 n=g#6 v=64
5608 On ch=1 n=f6 v=80
5608 On ch=1 n=d6 v=80
5608 On ch=1 n=e4 v=33
5612 Off ch=1 n=d#6 v=64
5614 On ch=1 n=d#5 v=44
5617 On ch=1 n=b4 v=39
5617 On ch=1 n=a4 v=39
5624 Off ch=1 n=f#6 v=64
5645 Off ch=1 n=b4 v=64
5646 Off ch=1 n=a4 v=64
5648 Off ch=1 n=d#5 v=64
5652 Off ch=1 n=e4 v=64
5672 On ch=1 n=f#6 v=87
5675 On ch=1 n=d#6 v=80
5677 Off ch=1 n=d6 v=64
5679 Off ch=1 n=f6 v=64
5740 On ch=1 n=g#6 v=87
5740 On ch=1 n=e6 v=83
5746 Off ch=1 n=d#6 v=64
5746 On ch=1 n=d#5 v=54
5752 On ch=1 n=a4 v=50
5753 Off ch=1 n=f#6 v=64
5758 On ch=1 n=b4 v=46
5758 On ch=1 n=e4 v=46
5787 Off ch=1 n=e4 v=64
5787 Off ch=1 n=b4 v=64
5793 Off ch=1 n=a4 v=64
5803 Off ch=1 n=d#5 v=64
5815 Off ch=1 n=e6 v=64
5820 On ch=1 n=a6 v=83
5820 On ch=1 n=f#6 v=75
5823 Off ch=1 n=g#6 v=64
5876 Off ch=1 n=a6 v=64
5879 Par ch=1 c=64 v=0
5882 Off ch=1 n=f#6 v=64
5883 Par ch=1 c=64 v=0
5889 On ch=1 n=a6 v=85
5892 On ch=1 n=c#7 v=98
5896 On ch=1 n=e5 v=63
5896 On ch=1 n=g#4 v=58
5898 On ch=1 n=b4 v=54
5898 On ch=1 n=e4 v=63
5907 Par ch=1 c=64 v=127
5911 Par ch=1 c=64 v=127
5933 Off ch=1 n=b4 v=64
5933 Off ch=1 n=g#4 v=64
5933 Off ch=1 n=e5 v=64
5937 Off ch=1 n=e4 v=64
5988 Par ch=1 c=64 v=0
5992 Par ch=1 c=64 v=0
5996 On ch=1 n=g#6 v=85
5999 On ch=1 n=b6 v=78
6001 Off ch=1 n=a6 v=64
6004 Off ch=1 n=c#7 v=64
6012 Par ch=1 c=64 v=127
6016 Par ch=1 c=64 v=127
6030 Off ch=1 n=g#6 v=64
6035 On ch=1 n=b4 v=59
6040 On ch=1 n=g#6 v=92
6040 On ch=1 n=e6 v=74
6040 On ch=1 n=e5 v=61
6040 On ch=1 n=g#4 v=57
6047 On ch=1 n=e4 v=46
6066 Off ch=1 n=b6 v=64
6068 Off ch=1 n=g#4 v=64
6070 Off ch=1 n=e4 v=64
6071 Off ch=1 n=b4 v=64
6074 Off ch=1 n=e5 v=64
6162 On ch=1 n=e5 v=59
6162 On ch=1 n=b4 v=50
6166 On ch=1 n=g#4 v=66
6170 On ch=1 n=e4 v=44
6188 Off ch=1 n=b4 v=64
6189 Off ch=1 n=e4 v=64
6196 Off ch=1 n=e5 v=64
6198 Off ch=1 n=g#4 v=64
6289 Par ch=1 c=64 v=0
6293 Par ch=1 c=64 v=0
6296 On ch=1 n=d#6 v=81
6299 On ch=1 n=f#6 v=80
6303 Off ch=1 n=e6 v=64
6303 Off ch=1 n=g#6 v=64
6312 On ch=1 n=f#3 v=88
6313 Par ch=1 c=64 v=127
6317 Par ch=1 c=64 v=127
6404 On ch=1 n=c#6 v=72
6407 On ch=1 n=e6 v=88
6410 Off ch=1 n=d#6 v=64
6413 Off ch=1 n=f#6 v=64
6417 Par ch=1 c=64 v=0
6421 Par ch=1 c=64 v=0
6433 Off ch=1 n=c#6 v=64
6440 On ch=1 n=c#6 v=88
6444 On ch=1 n=e5 v=71
6444 On ch=1 n=c#5 v=71
6448 On ch=1 n=f#4 v=74
6451 On ch=1 n=f#5 v=96
6456 Off ch=1 n=e6 v=64
6460 Par ch=1 c=64 v=127
6464 Par ch=1 c=64 v=127
6487 Off ch=1 n=c#5 v=64
6489 Off ch=1 n=e5 v=64
6497 Off ch=1 n=f#4 v=64
6573 On ch=1 n=c#5 v=67
6577 On ch=1 n=e5 v=75
6577 On ch=1 n=f#4 v=80
6609 Off ch=1 n=e5 v=64
6613 Off ch=1 n=c#5 v=64
6615 Off ch=1 n=f#4 v=64
6711 On ch=1 n=d#6 v=83
6711 On ch=1 n=b3 v=68
6712 On ch=1 n=b5 v=80
6712 Par ch=1 c=64 v=0
6716 On ch=1 n=b4 v=72
6716 Par ch=1 c=64 v=0
6717 Off ch=1 n=c#6 v=64
6719 Off ch=1 n=f#3 v=64
6723 On ch=1 n=f#4 v=67
6728 Off ch=1 n=f#5 v=64
6730 Par ch=1 c=64 v=127
6734 Par ch=1 c=64 v=127
6750 Off ch=1 n=f#4 v=64
6750 Off ch=1 n=b4 v=64
6756 Off ch=1 n=b3 v=64
6817 Off ch=1 n=b5 v=64
6822 On ch=1 n=f#5 v=80
6825 On ch=1 n=b5 v=80
6839 Off ch=1 n=d#6 v=64
6845 Par ch=1 c=64 v=0
6849 Par ch=1 c=64 v=0
6857 On ch=1 n=f#4 v=84
6866 On ch=1 n=b4 v=88
6866 On ch=1 n=b3 v=78
6868 Par ch=1 c=64 v=127
6872 Par ch=1 c=64 v=127
6879 Off ch=1 n=f#5 v=64
6898 Off ch=1 n=f#4 v=64
6906 Off ch=1 n=b3 v=64
6957 Par ch=1 c=64 v=0
6961 Par ch=1 c=64 v=0
6997 On ch=1 n=f#4 v=84
6997 On ch=1 n=b3 v=78
7004 Par ch=1 c=64 v=127
7008 Par ch=1 c=64 v=127
7043 Off ch=1 n=f#4 v=64
7049 Off ch=1 n=b3 v=64
7105 Off ch=1 n=b4 v=64
7125 On ch=1 n=g#3 v=94
7132 On ch=1 n=f#4 v=52
7133 On ch=1 n=b3 v=48
7140 Par ch=1 c=64 v=0
7143 On ch=1 n=b4 v=83
7144 Par ch=1 c=64 v=0
7150 Off ch=1 n=b5 v=64
7154 Par ch=1 c=64 v=127
7158 Par ch=1 c=64 v=127
7178 Off ch=1 n=b4 v=64
7180 Off ch=1 n=f#4 v=64
7186 On ch=1 n=f#3 v=83
7189 Off ch=1 n=b3 v=64
7212 Off ch=1 n=g#3 v=64
7216 Par ch=1 c=64 v=0
7220 Par ch=1 c=64 v=0
7248 On ch=1 n=e3 v=80
7256 On ch=1 n=f#4 v=55
7261 Off ch=1 n=f#3 v=64
7261 On ch=1 n=b3 v=45
7293 Off ch=1 n=e3 v=64
7294 Off ch=1 n=f#4 v=64
7297 Off ch=1 n=b3 v=64
7389 On ch=1 n=d#3 v=96
7392 On ch=1 n=f#4 v=85
7392 On ch=1 n=b3 v=80
7420 Off ch=1 n=d#3 v=64
7421 Off ch=1 n=f#4 v=64
7428 Off ch=1 n=b3 v=64
7490 On ch=1 n=d#3 v=74
7505 On ch=1 n=c#3 v=75
7526 On ch=1 n=b3 v=46
7527 Off ch=1 n=d#3 v=64
7527 On ch=1 n=f#4 v=52
7532 Par ch=1 c=64 v=127
7536 Par ch=1 c=64 v=127
7546 On ch=1 n=b2 v=105
7557 Off ch=1 n=c#3 v=64
7564 Off ch=1 n=f#4 v=64
7569 Off ch=1 n=b3 v=64
7671 On ch=1 n=f#4 v=55
7671 On ch=1 n=b3 v=52
7708 Off ch=1 n=b3 v=64
7710 Off ch=1 n=f#4 v=64
7759 Par ch=1 c=64 v=0
7763 Par ch=1 c=64 v=0
7805 On ch=1 n=f#4 v=96
7805 On ch=1 n=b3 v=88
7809 Off ch=1 n=b2 v=64
7815 Par ch=1 c=64 v=127
7819 Par ch=1 c=64 v=127
7846 Off ch=1 n=f#4 v=64
7851 Off ch=1 n=b3 v=64
7922 Par ch=1 c=64 v=0
7926 On ch=1 n=g#3 v=88
7926 Par ch=1 c=64 v=0
7935 On ch=1 n=b3 v=55
7936 On ch=1 n=f#4 v=57
7938 Par ch=1 c=64 v=127
7942 Par ch=1 c=64 v=127
7976 Off ch=1 n=f#4 v=64
7980 Off ch=1 n=b3 v=64
7991 On ch=1 n=f#3 v=74
8018 Off ch=1 n=g#3 v=64
8039 Par ch=1 c=64 v=0
8043 Par ch=1 c=64 v=0
8057 On ch=1 n=e3 v=66
8066 Off ch=1 n=f#3 v=64
8070 On ch=1 n=f#4 v=57
8071 On ch=1 n=b3 v=52
8104 Off ch=1 n=b3 v=64
8104 Off ch=1 n=f#4 v=64
8110 Off ch=1 n=e3 v=64
8198 On ch=1 n=d#3 v=105
8206 On ch=1 n=b3 v=88
8208 On ch=1 n=f#4 v=98
8233 Off ch=1 n=d#3 v=64
8238 Off ch=1 n=f#4 v=64
8238 Off ch=1 n=b3 v=64
8298 On ch=1 n=d#3 v=79
8322 On ch=1 n=c#3 v=83
8332 Off ch=1 n=d#3 v=64
8333 On ch=1 n=b3 v=55
8339 On ch=1 n=f#4 v=61
8342 On ch=1 n=b2 v=93
8354 Par ch=1 c=64 v=127
8358 Par ch=1 c=64 v=127
8363 Off ch=1 n=c#3 v=64
8372 Off ch=1 n=f#4 v=64
8378 Off ch=1 n=b3 v=64
8405 Par ch=1 c=64 v=0
8409 Par ch=1 c=64 v=0
8446 Par ch=1 c=64 v=127
8450 Par ch=1 c=64 v=127
8469 On ch=1 n=b3 v=52
8470 On ch=1 n=f#4 v=57
8512 Off ch=1 n=f#4 v=64
8513 Off ch=1 n=b3 v=64
8580 Off ch=1 n=b2 v=64
8590 On ch=1 n=f#4 v=89
8594 On ch=1 n=b3 v=88
8683 Off ch=1 n=f#4 v=64
8699 Off ch=1 n=b3 v=64
8714 On ch=1 n=g#4 v=94
8714 On ch=1 n=e3 v=79
8716 On ch=1 n=b4 v=75
8762 Off ch=1 n=g#4 v=64
8764 Off ch=1 n=b4 v=64
8814 On ch=1 n=e5 v=74
8818 On ch=1 n=b4 v=68
8842 Off ch=1 n=e5 v=64
8846 Off ch=1 n=b4 v=64
8846 On ch=1 n=g#5 v=100
8846 On ch=1 n=e5 v=80
8854 On ch=1 n=b4 v=70
8857 On ch=1 n=e4 v=71
8900 Off ch=1 n=e4 v=64
8908 Off ch=1 n=b4 v=64
8909 Off ch=1 n=g#5 v=64
8912 Off ch=1 n=e5 v=64
8962 Par ch=1 c=64 v=0
8966 Par ch=1 c=64 v=0
8978 On ch=1 n=g#5 v=89
8981 On ch=1 n=b5 v=94
8986 Off ch=1 n=e3 v=64
8990 On ch=1 n=b4 v=66
8990 On ch=1 n=e4 v=72
9012 Par ch=1 c=64 v=127
9016 Par ch=1 c=64 v=127
9034 Off ch=1 n=b4 v=64
9036 Off ch=1 n=e4 v=64
9043 Off ch=1 n=b5 v=64
9045 Off ch=1 n=g#5 v=64
9097 Par ch=1 c=64 v=0
9101 Par ch=1 c=64 v=0
9117 On ch=1 n=b5 v=86
9119 On ch=1 n=e6 v=97
9123 On ch=1 n=b4 v=70
9127 On ch=1 n=e4 v=72
9137 Par ch=1 c=64 v=127
9141 Par ch=1 c=64 v=127
9166 Off ch=1 n=b4 v=64
9173 Off ch=1 n=e4 v=64
9173 Off ch=1 n=b5 v=64
9175 Off ch=1 n=e6 v=64
9215 On ch=1 n=g#5 v=79
9215 On ch=1 n=e5 v=72
9219 Par ch=1 c=64 v=0
9223 Par ch=1 c=64 v=0
9243 Off ch=1 n=e5 v=64
9243 Off ch=1 n=g#5 v=64
9255 On ch=1 n=b5 v=87
9255 On ch=1 n=g#5 v=78
9255 On ch=1 n=e4 v=68
9257 On ch=1 n=b4 v=71
9260 Par ch=1 c=64 v=127
9264 Par ch=1 c=64 v=127
9299 Off ch=1 n=b4 v=64
9303 Off ch=1 n=e4 v=64
9315 Off ch=1 n=b5 v=64
9318 Off ch=1 n=g#5 v=64
9357 Par ch=1 c=64 v=0
9361 Par ch=1 c=64 v=0
9391 On ch=1 n=e6 v=93
9391 On ch=1 n=b5 v=83
9391 On ch=1 n=g#4 v=72
9393 On ch=1 n=b4 v=65
9393 On ch=1 n=e4 v=63
9395 On ch=1 n=e5 v=71
9402 Par ch=1 c=64 v=127
9406 Par ch=1 c=64 v=127
9431 Off ch=1 n=e5 v=64
9435 Off ch=1 n=g#4 v=64
9452 Off ch=1 n=e4 v=64
9453 Off ch=1 n=b4 v=64
9465 Off ch=1 n=b5 v=64
9465 Off ch=1 n=e6 v=64
9505 Par ch=1 c=64 v=0
9509 Par ch=1 c=64 v=0
9517 Par ch=1 c=64 v=127
9521 Par ch=1 c=64 v=127
9527 On ch=1 n=d#6 v=91
9529 On ch=1 n=f#6 v=97
9529 On ch=1 n=e4 v=71
9537 On ch=1 n=b4 v=42
9540 On ch=1 n=a4 v=41
9544 On ch=1 n=d#5 v=41
9560 On ch=1 n=g#6 v=72
9570 Off ch=1 n=e4 v=64
9571 Off ch=1 n=f#6 v=64
9574 Off ch=1 n=d#5 v=64
9576 Off ch=1 n=a4 v=64
9576 Off ch=1 n=b4 v=64
9596 On ch=1 n=f#6 v=78
9612 Off ch=1 n=g#6 v=64
9658 On ch=1 n=e4 v=32
9659 On ch=1 n=f6 v=78
9661 On ch=1 n=d6 v=81
9667 Off ch=1 n=d#6 v=64
9667 On ch=1 n=a4 v=41
9672 On ch=1 n=d#5 v=36
9675 On ch=1 n=b4 v=37
9679 Off ch=1 n=f#6 v=64
9696 Off ch=1 n=b4 v=64
9703 Off ch=1 n=e4 v=64
9704 Off ch=1 n=a4 v=64
9705 Off ch=1 n=d#5 v=64
9732 On ch=1 n=d#6 v=79
9735 On ch=1 n=f#6 v=85
9740 Off ch=1 n=d6 v=64
9748 Off ch=1 n=f6 v=64
9799 On ch=1 n=e6 v=44
9803 On ch=1 n=g#6 v=83
9806 Off ch=1 n=d#6 v=64
9808 On ch=1 n=d#5 v=58
9811 On ch=1 n=a4 v=50
9817 On ch=1 n=b4 v=49
9819 On ch=1 n=e4 v=40
9821 Off ch=1 n=f#6 v=64
9841 Off ch=1 n=b4 v=64
9843 Off ch=1 n=e4 v=64
9847 Off ch=1 n=a4 v=64
9848 Off ch=1 n=d#5 v=64
9875 On ch=1 n=a6 v=87
9879 On ch=1 n=f#6 v=75
9881 Off ch=1 n=g#6 v=64
9884 Off ch=1 n=e6 v=64
9920 Par ch=1 c=64 v=0
9924 Par ch=1 c=64 v=0
9943 Off ch=1 n=a6 v=64
9943 On ch=1 n=c#7 v=97
9946 On ch=1 n=g#4 v=53
9948 On ch=1 n=a6 v=80
9948 On ch=1 n=e5 v=61
9948 On ch=1 n=b4 v=57
9948 On ch=1 n=e4 v=53
9958 Off ch=1 n=f#6 v=64
9969 Par ch=1 c=64 v=127
9973 Par ch=1 c=64 v=127
9982 Off ch=1 n=e5 v=64
9986 Off ch=1 n=e4 v=64
9986 Off ch=1 n=b4 v=64
9986 Off ch=1 n=g#4 v=64
10049 Off ch=1 n=c#7 v=64
10050 On ch=1 n=b6 v=81
10051 On ch=1 n=g#6 v=78
10054 Off ch=1 n=a6 v=64
10061 Par ch=1 c=64 v=0
10065 Par ch=1 c=64 v=0
10075 Off ch=1 n=g#6 v=64
10079 On ch=1 n=e6 v=78
10086 On ch=1 n=g#6 v=96
10090 On ch=1 n=g#4 v=70
10096 On ch=1 n=b4 v=62
10100 On ch=1 n=e5 v=62
10100 On ch=1 n=e4 v=67
10108 Off ch=1 n=b6 v=64
10109 Par ch=1 c=64 v=127
10113 Par ch=1 c=64 v=127
10123 Off ch=1 n=e4 v=64
10127 Off ch=1 n=b4 v=64
10132 Off ch=1 n=e5 v=64
10132 Off ch=1 n=g#4 v=64
10216 On ch=1 n=e5 v=68
10220 On ch=1 n=e4 v=54
10224 On ch=1 n=g#4 v=45
10227 On ch=1 n=b4 v=52
10262 Off ch=1 n=b4 v=64
10263 Off ch=1 n=g#4 v=64
10267 Off ch=1 n=e5 v=64
10274 Off ch=1 n=e4 v=64
10336 Par ch=1 c=64 v=0
10340 Par ch=1 c=64 v=0
10351 On ch=1 n=f#6 v=80
10354 On ch=1 n=d#6 v=80
10363 On ch=1 n=d#5 v=42
10363 On ch=1 n=a4 v=37
10368 Off ch=1 n=g#6 v=64
10368 On ch=1 n=b4 v=37
10371 Par ch=1 c=64 v=127
10371 On ch=1 n=e4 v=15
10373 Off ch=1 n=e6 v=64
10375 Par ch=1 c=64 v=127
10391 On ch=1 n=g#6 v=75
10398 Off ch=1 n=e4 v=64
10398 Off ch=1 n=f#6 v=64
10404 Off ch=1 n=b4 v=64
10408 Off ch=1 n=a4 v=64
10408 Off ch=1 n=d#5 v=64
10428 On ch=1 n=f#6 v=70
10437 Off ch=1 n=g#6 v=64
10489 On ch=1 n=f6 v=84
10489 On ch=1 n=d6 v=81
10492 On ch=1 n=d#5 v=49
10499 On ch=1 n=b4 v=44
10499 On ch=1 n=a4 v=41
10499 On ch=1 n=e4 v=44
10501 Off ch=1 n=f#6 v=64
10503 Off ch=1 n=d#6 v=64
10521 Off ch=1 n=e4 v=64
10528 Off ch=1 n=b4 v=64
10530 Off ch=1 n=d#5 v=64
10531 Off ch=1 n=a4 v=64
10560 On ch=1 n=d#6 v=89
10562 On ch=1 n=f#6 v=91
10567 Off ch=1 n=d6 v=64
10567 Off ch=1 n=f6 v=64
10623 On ch=1 n=e6 v=81
10623 On ch=1 n=d#5 v=54
10627 On ch=1 n=g#6 v=91
10627 On ch=1 n=a4 v=48
10633 On ch=1 n=b4 v=42
10635 On ch=1 n=e4 v=58
10637 Off ch=1 n=f#6 v=64
10642 Off ch=1 n=d#6 v=64
10667 Off ch=1 n=e4 v=64
10671 Off ch=1 n=b4 v=64
10671 Off ch=1 n=a4 v=64
10676 Off ch=1 n=d#5 v=64
10693 On ch=1 n=a6 v=75
10698 On ch=1 n=f#6 v=74
10705 Off ch=1 n=e6 v=64
10709 Off ch=1 n=g#6 v=64
10747 Par ch=1 c=64 v=0
10751 Par ch=1 c=64 v=0
10753 Off ch=1 n=a6 v=64
10763 On ch=1 n=b4 v=54
10764 On ch=1 n=e5 v=63
10764 On ch=1 n=g#4 v=52
10764 On ch=1 n=e4 v=58
10771 On ch=1 n=c#7 v=100
10771 On ch=1 n=a6 v=85
10782 Par ch=1 c=64 v=127
10786 Par ch=1 c=64 v=127
10794 Off ch=1 n=f#6 v=64
10802 Off ch=1 n=g#4 v=64
10802 Off ch=1 n=b4 v=64
10803 Off ch=1 n=e4 v=64
10807 Off ch=1 n=e5 v=64
10867 On ch=1 n=g#6 v=48
10873 On ch=1 n=b6 v=72
10876 Off ch=1 n=a6 v=64
10876 Off ch=1 n=c#7 v=64
10879 Par ch=1 c=64 v=0
10883 Par ch=1 c=64 v=0
10892 Par ch=1 c=64 v=127
10893 Off ch=1 n=g#6 v=64
10896 Par ch=1 c=64 v=127
10903 On ch=1 n=g#6 v=94
10903 On ch=1 n=e6 v=67
10911 On ch=1 n=b4 v=46
10911 On ch=1 n=g#4 v=66
10915 On ch=1 n=e5 v=71
10916 On ch=1 n=e4 v=66
10927 Off ch=1 n=b6 v=64
10946 Off ch=1 n=b4 v=64
10950 Off ch=1 n=g#4 v=64
10951 Off ch=1 n=e5 v=64
10952 Off ch=1 n=e4 v=64
11039 On ch=1 n=g#4 v=65
11042 On ch=1 n=b4 v=58
11043 On ch=1 n=e5 v=79
11043 On ch=1 n=e4 v=65
11065 Off ch=1 n=b4 v=64
11071 Off ch=1 n=e5 v=64
11078 Off ch=1 n=e4 v=64
11078 Off ch=1 n=g#4 v=64
11159 Par ch=1 c=64 v=0
11163 Par ch=1 c=64 v=0
11171 On ch=1 n=d#6 v=72
11173 On ch=1 n=f#6 v=83
11173 On ch=1 n=f#3 v=96
11187 Off ch=1 n=e6 v=64
11187 Off ch=1 n=g#6 v=64
11190 Par ch=1 c=64 v=127
11194 Par ch=1 c=64 v=127
11275 On ch=1 n=e6 v=83
11275 On ch=1 n=c#6 v=92
11287 Par ch=1 c=64 v=0
11288 Off ch=1 n=d#6 v=64
11290 Off ch=1 n=f#6 v=64
11291 Par ch=1 c=64 v=0
11308 Off ch=1 n=c#6 v=64
11312 On ch=1 n=c#5 v=80
11312 On ch=1 n=f#4 v=80
11315 On ch=1 n=c#6 v=84
11320 On ch=1 n=f#5 v=89
11320 On ch=1 n=e5 v=66
11322 Off ch=1 n=e6 v=64
11330 Par ch=1 c=64 v=127
11334 Par ch=1 c=64 v=127
11362 Off ch=1 n=f#4 v=64
11367 Off ch=1 n=e5 v=64
11369 Off ch=1 n=c#5 v=64
11441 Off ch=1 n=f#3 v=64
11443 On ch=1 n=e5 v=85
11443 On ch=1 n=c#5 v=78
11448 On ch=1 n=f#4 v=80
11476 Off ch=1 n=e5 v=64
11479 Off ch=1 n=f#4 v=64
11482 Off ch=1 n=c#5 v=64
11567 On ch=1 n=b5 v=72
11574 Par ch=1 c=64 v=0
11574 On ch=1 n=d#6 v=94
11578 Par ch=1 c=64 v=0
11585 On ch=1 n=b4 v=67
11585 On ch=1 n=f#4 v=75
11585 On ch=1 n=b3 v=74
11589 Off ch=1 n=c#6 v=64
11594 Off ch=1 n=f#5 v=64
11595 Par ch=1 c=64 v=127
11599 Par ch=1 c=64 v=127
11615 Off ch=1 n=b4 v=64
11616 Off ch=1 n=f#4 v=64
11624 Off ch=1 n=b3 v=64
11676 Off ch=1 n=b5 v=64
11687 On ch=1 n=b5 v=57
11691 On ch=1 n=f#5 v=75
11719 On ch=1 n=f#4 v=84
11719 On ch=1 n=b3 v=83
11727 Off ch=1 n=d#6 v=64
11734 On ch=1 n=b4 v=101
11748 Off ch=1 n=f#5 v=64
11757 Off ch=1 n=f#4 v=64
11761 Off ch=1 n=b3 v=64
11824 Par ch=1 c=64 v=0
11828 Par ch=1 c=64 v=0
11851 On ch=1 n=f#4 v=88
11851 On ch=1 n=b3 v=78
11876 Par ch=1 c=64 v=127
11880 Par ch=1 c=64 v=127
11905 Off ch=1 n=f#4 v=64
11911 Off ch=1 n=b3 v=64
11931 Off ch=1 n=b5 v=64
11981 Par ch=1 c=64 v=0
11985 Par ch=1 c=64 v=0
11990 On ch=1 n=g#3 v=80
11995 On ch=1 n=f#4 v=52
11996 On ch=1 n=b3 v=49
12002 On ch=1 n=b4 v=81
12011 Off ch=1 n=b4 v=64
12013 Par ch=1 c=64 v=127
12017 Par ch=1 c=64 v=127
12040 Off ch=1 n=b4 v=64
12046 Off ch=1 n=f#4 v=64
12054 Off ch=1 n=b3 v=64
12054 On ch=1 n=f#3 v=65
12069 Off ch=1 n=g#3 v=64
12113 Par ch=1 c=64 v=0
12115 On ch=1 n=e3 v=84
12117 Par ch=1 c=64 v=0
12127 Off ch=1 n=f#3 v=64
12130 On ch=1 n=f#4 v=52
12135 On ch=1 n=b3 v=46
12158 Off ch=1 n=e3 v=64
12166 Off ch=1 n=f#4 v=64
12168 Off ch=1 n=b3 v=64
12170 Par ch=1 c=64 v=127
12174 Par ch=1 c=64 v=127
12195 Par ch=1 c=64 v=0
12199 Par ch=1 c=64 v=0
12260 On ch=1 n=b3 v=88
12265 On ch=1 n=f#4 v=88
12266 On ch=1 n=d#3 v=98
12287 Off ch=1 n=d#3 v=64
12297 Off ch=1 n=f#4 v=64
12297 Off ch=1 n=b3 v=64
12364 On ch=1 n=d#3 v=92
12388 On ch=1 n=c#3 v=96
12402 On ch=1 n=b3 v=67
12404 On ch=1 n=f#4 v=70
12408 Off ch=1 n=d#3 v=64
12423 On ch=1 n=b2 v=98
12435 Off ch=1 n=c#3 v=64
12440 Off ch=1 n=f#4 v=64
12443 Off ch=1 n=b3 v=64
12545 On ch=1 n=f#4 v=70
12545 On ch=1 n=b3 v=66
12555 Par ch=1 c=64 v=127
12559 Par ch=1 c=64 v=127
12585 Off ch=1 n=f#4 v=64
12589 Off ch=1 n=b3 v=64
12674 On ch=1 n=f#4 v=84
12676 On ch=1 n=b3 v=79
12697 Off ch=1 n=b2 v=64
12718 Off ch=1 n=f#4 v=64
12721 Off ch=1 n=b3 v=64
12793 On ch=1 n=g#3 v=92
12797 On ch=1 n=b3 v=63
12806 On ch=1 n=f#4 v=66
12807 Par ch=1 c=64 v=0
12811 Par ch=1 c=64 v=0
12857 Off ch=1 n=f#4 v=64
12862 Off ch=1 n=b3 v=64
12892 On ch=1 n=f#3 v=88
12909 Off ch=1 n=g#3 v=64
12931 On ch=1 n=f#4 v=66
12932 On ch=1 n=b3 v=66
12935 On ch=1 n=e3 v=85
12945 Off ch=1 n=f#3 v=64
12970 Off ch=1 n=b3 v=64
12973 Off ch=1 n=f#4 v=64
12976 Off ch=1 n=e3 v=64
13057 On ch=1 n=d#3 v=101
13061 On ch=1 n=f#4 v=89
13068 On ch=1 n=b3 v=83
13084 Off ch=1 n=d#3 v=64
13094 Off ch=1 n=f#4 v=64
13097 Off ch=1 n=b3 v=64
13153 On ch=1 n=d#3 v=89
13171 On ch=1 n=c#3 v=98
13186 Off ch=1 n=d#3 v=64
13196 On ch=1 n=b3 v=66
13200 On ch=1 n=f#4 v=70
13205 On ch=1 n=b2 v=111
13219 Off ch=1 n=c#3 v=64
13241 Off ch=1 n=f#4 v=64
13242 Off ch=1 n=b3 v=64
13245 Par ch=1 c=64 v=127
13249 Par ch=1 c=64 v=127
13331 Off ch=1 n=b2 v=64
13331 On ch=1 n=f#4 v=70
13337 On ch=1 n=b3 v=66
13382 Off ch=1 n=f#4 v=64
13383 Off ch=1 n=b3 v=64
13467 On ch=1 n=f#4 v=75
13474 On ch=1 n=b3 v=74
13520 Off ch=1 n=b3 v=64
13529 Off ch=1 n=f#4 v=64
13585 Par ch=1 c=64 v=0
13589 Par ch=1 c=64 v=0
13599 On ch=1 n=f#6 v=89
13599 On ch=1 n=d#6 v=83
13599 On ch=1 n=f#5 v=85
13604 On ch=1 n=b2 v=83
13606 On ch=1 n=b5 v=88
13607 On ch=1 n=b3 v=74
13621 Par ch=1 c=64 v=127
13625 Par ch=1 c=64 v=127
13630 Off ch=1 n=d#6 v=64
13637 Off ch=1 n=f#5 v=64
13639 Off ch=1 n=b5 v=64
13651 Off ch=1 n=f#6 v=64
13705 On ch=1 n=f#6 v=92
13707 On ch=1 n=d#6 v=89
13713 On ch=1 n=b5 v=78
13739 Off ch=1 n=f#6 v=64
13741 Off ch=1 n=d#6 v=64
13747 Off ch=1 n=b5 v=64
13756 On ch=1 n=f#6 v=88
13759 On ch=1 n=b4 v=72
13760 On ch=1 n=b5 v=101
13765 On ch=1 n=f#5 v=84
13766 On ch=1 n=d6 v=96
13774 Par ch=1 c=64 v=0
13778 Par ch=1 c=64 v=0
13799 Off ch=1 n=b2 v=64
13804 Off ch=1 n=b3 v=64
13863 Par ch=1 c=64 v=127
13867 Par ch=1 c=64 v=127
13900 Off ch=1 n=f#6 v=64
13907 Off ch=1 n=b5 v=64
13911 Off ch=1 n=f#5 v=64
13914 Off ch=1 n=b4 v=64
13916 Off ch=1 n=d6 v=64
14099 On ch=1 n=a6 v=88
14103 On ch=1 n=a5 v=78
14104 On ch=1 n=c#6 v=92
14107 On ch=1 n=f#3 v=88
14108 On ch=1 n=f#4 v=96
14115 Par ch=1 c=64 v=127
14119 Par ch=1 c=64 v=127
14146 Off ch=1 n=a5 v=64
14147 Off ch=1 n=c#6 v=64
14155 Off ch=1 n=a6 v=64
14203 On ch=1 n=a6 v=36
14207 On ch=1 n=c#6 v=101
14226 Off ch=1 n=a6 v=64
14229 Off ch=1 n=f#3 v=64
14230 Off ch=1 n=c#6 v=64
14232 Off ch=1 n=f#4 v=64
14251 On ch=1 n=a6 v=96
14251 On ch=1 n=c#5 v=83
14255 On ch=1 n=f#4 v=70
14257 On ch=1 n=c#6 v=87
14259 On ch=1 n=f#5 v=91
14394 On ch=1 n=g#6 v=67
14403 On ch=1 n=b5 v=63
14404 Off ch=1 n=a6 v=64
14408 Off ch=1 n=c#5 v=64
14410 Off ch=1 n=c#6 v=64
14412 Off ch=1 n=f#4 v=64
14412 Off ch=1 n=f#5 v=64
14459 On ch=1 n=f#6 v=72
14464 On ch=1 n=a5 v=62
14474 Off ch=1 n=g#6 v=64
14483 Off ch=1 n=b5 v=64
14516 Par ch=1 c=64 v=0
14520 Par ch=1 c=64 v=0
14530 On ch=1 n=c#3 v=76
14536 On ch=1 n=c#4 v=70
14536 Par ch=1 c=64 v=127
14540 On ch=1 n=g#5 v=83
14540 Par ch=1 c=64 v=127
14546 On ch=1 n=e6 v=76
14552 Off ch=1 n=f#6 v=64
14561 Off ch=1 n=a5 v=64
14619 On ch=1 n=f#5 v=70
14622 Off ch=1 n=g#5 v=64
14623 On ch=1 n=d#6 v=66
14628 Off ch=1 n=e6 v=64
14640 Par ch=1 c=64 v=0
14644 Par ch=1 c=64 v=0
14646 Off ch=1 n=c#3 v=64
14647 Off ch=1 n=c#4 v=64
14664 On ch=1 n=c#6 v=70
14670 On ch=1 n=c#4 v=66
14671 On ch=1 n=e5 v=58
14671 On ch=1 n=c#5 v=70
14671 On ch=1 n=g#4 v=58
14680 Off ch=1 n=f#5 v=64
14684 Off ch=1 n=d#6 v=64
14686 Par ch=1 c=64 v=127
14690 Par ch=1 c=64 v=127
14707 Off ch=1 n=g#4 v=64
14718 Off ch=1 n=c#5 v=64
14723 Off ch=1 n=c#4 v=64
14788 Par ch=1 c=64 v=0
14792 Par ch=1 c=64 v=0
14808 On ch=1 n=e6 v=66
14808 On ch=1 n=g#5 v=72
14808 On ch=1 n=c#4 v=63
14814 On ch=1 n=g#4 v=58
14816 Off ch=1 n=c#6 v=64
14818 On ch=1 n=c#5 v=72
14823 Off ch=1 n=e5 v=64
14824 Par ch=1 c=64 v=127
14828 Par ch=1 c=64 v=127
14844 Off ch=1 n=c#4 v=64
14845 Off ch=1 n=g#4 v=64
14851 Off ch=1 n=c#5 v=64
14923 Off ch=1 n=e6 v=64
14923 Par ch=1 c=64 v=0
14927 Par ch=1 c=64 v=0
14928 Off ch=1 n=g#5 v=64
14942 On ch=1 n=e6 v=72
14942 On ch=1 n=g#5 v=79
14949 On ch=1 n=g#4 v=70
14958 Par ch=1 c=64 v=127
14958 On ch=1 n=c#5 v=74
14958 On ch=1 n=c#4 v=63
14962 Par ch=1 c=64 v=127
14988 Off ch=1 n=c#4 v=64
14991 Off ch=1 n=c#5 v=64
14991 Off ch=1 n=g#4 v=64
15039 On ch=1 n=f#5 v=71
15043 On ch=1 n=d#6 v=66
15054 Off ch=1 n=g#5 v=64
15056 Par ch=1 c=64 v=0
15058 Off ch=1 n=e6 v=64
15060 Par ch=1 c=64 v=0
15077 On ch=1 n=c#6 v=52
15080 On ch=1 n=c#4 v=66
15085 On ch=1 n=c#5 v=71
15086 On ch=1 n=e5 v=74
15086 On ch=1 n=g#4 v=48
15091 Par ch=1 c=64 v=127
15093 Off ch=1 n=f#5 v=64
15095 Par ch=1 c=64 v=127
15097 Off ch=1 n=d#6 v=64
15119 Off ch=1 n=c#4 v=64
15124 Off ch=1 n=c#5 v=64
15125 Off ch=1 n=g#4 v=64
15203 On ch=1 n=g#5 v=53
15207 On ch=1 n=c#5 v=46
15207 On ch=1 n=g#4 v=57
15207 On ch=1 n=c#4 v=58
15209 On ch=1 n=e6 v=67
15219 Off ch=1 n=c#6 v=64
15225 Off ch=1 n=g#4 v=64
15227 Off ch=1 n=c#5 v=64
15228 Off ch=1 n=e5 v=64
15242 Off ch=1 n=c#4 v=64
15337 Off ch=1 n=g#5 v=64
15345 Par ch=1 c=64 v=0
15349 Par ch=1 c=64 v=0
15353 Off ch=1 n=e6 v=64
15355 On ch=1 n=f#6 v=94
15356 On ch=1 n=c#6 v=81
15356 On ch=1 n=a5 v=85
15356 On ch=1 n=f#5 v=89
15362 On ch=1 n=f#3 v=80
15368 On ch=1 n=f#4 v=80
15383 Par ch=1 c=64 v=127
15387 Par ch=1 c=64 v=127
15389 Off ch=1 n=c#6 v=64
15392 Off ch=1 n=f#5 v=64
15395 Off ch=1 n=a5 v=64
15416 Off ch=1 n=f#6 v=64
15477 On ch=1 n=a5 v=88
15480 On ch=1 n=f#6 v=89
15480 On ch=1 n=c#6 v=88
15496 Off ch=1 n=a5 v=64
15498 Off ch=1 n=f#3 v=64
15502 Off ch=1 n=f#6 v=64
15505 Off ch=1 n=c#6 v=64
15505 Off ch=1 n=f#4 v=64
15528 On ch=1 n=a5 v=93
15529 On ch=1 n=f#6 v=91
15532 On ch=1 n=c#6 v=91
15532 On ch=1 n=f#5 v=79
15532 On ch=1 n=c#5 v=70
15532 On ch=1 n=f#4 v=58
15534 Par ch=1 c=64 v=0
15538 Par ch=1 c=64 v=0
15572 Par ch=1 c=64 v=127
15576 Par ch=1 c=64 v=127
15696 Off ch=1 n=f#5 v=64
15700 Off ch=1 n=f#4 v=64
15700 Off ch=1 n=c#5 v=64
15702 Off ch=1 n=c#6 v=64
15707 Off ch=1 n=f#6 v=64
15710 Off ch=1 n=a5 v=64
15724 Par ch=1 c=64 v=0
15728 Par ch=1 c=64 v=0
15844 On ch=1 n=c#6 v=92
15846 On ch=1 n=a6 v=88
15851 On ch=1 n=b2 v=88
15856 On ch=1 n=b3 v=80
15865 Par ch=1 c=64 v=127
15869 Par ch=1 c=64 v=127
15925 Off ch=1 n=c#6 v=64
15927 Off ch=1 n=a6 v=64
15952 On ch=1 n=a6 v=88
15955 On ch=1 n=c#6 v=89
15987 Off ch=1 n=b3 v=64
15989 Off ch=1 n=a6 v=64
15992 Off ch=1 n=c#6 v=64
15992 On ch=1 n=a6 v=85
15996 On ch=1 n=c#6 v=81
15999 Off ch=1 n=b2 v=64
16004 On ch=1 n=d#5 v=72
16004 On ch=1 n=b4 v=72
16006 On ch=1 n=f#4 v=89
16106 Off ch=1 n=d#5 v=64
16108 Off ch=1 n=f#4 v=64
16115 Off ch=1 n=b4 v=64
16142 On ch=1 n=d#6 v=75
16142 On ch=1 n=b5 v=81
16144 On ch=1 n=g#6 v=74
16152 On ch=1 n=b3 v=67
16153 Off ch=1 n=a6 v=64
16157 Off ch=1 n=c#6 v=64
16202 On ch=1 n=f#6 v=75
16205 On ch=1 n=a5 v=59
16208 Off ch=1 n=b5 v=64
16210 Off ch=1 n=g#6 v=64
16269 Par ch=1 c=64 v=0
16273 Par ch=1 c=64 v=0
16281 On ch=1 n=g#5 v=51
16287 On ch=1 n=e6 v=80
16291 Off ch=1 n=d#6 v=64
16292 On ch=1 n=e4 v=59
16293 Par ch=1 c=64 v=127
16296 Off ch=1 n=f#6 v=64
16296 On ch=1 n=e3 v=50
16297 Par ch=1 c=64 v=127
16299 Off ch=1 n=a5 v=64
16309 Off ch=1 n=b3 v=64
16372 On ch=1 n=a5 v=31
16375 On ch=1 n=c#6 v=57
16380 Off ch=1 n=g#5 v=64
16386 Off ch=1 n=e6 v=64
16395 Par ch=1 c=64 v=0
16399 Par ch=1 c=64 v=0
16409 Off ch=1 n=e4 v=64
16413 On ch=1 n=g#5 v=71
16417 On ch=1 n=e4 v=50
16418 On ch=1 n=b5 v=70
16418 On ch=1 n=b4 v=50
16426 Par ch=1 c=64 v=127
16430 Off ch=1 n=a5 v=64
16430 Par ch=1 c=64 v=127
16432 Off ch=1 n=e3 v=64
16433 Off ch=1 n=c#6 v=64
16451 Off ch=1 n=e4 v=64
16462 Off ch=1 n=b4 v=64
16542 Par ch=1 c=64 v=0
16546 Par ch=1 c=64 v=0
16555 On ch=1 n=e6 v=62
16561 On ch=1 n=e4 v=57
16563 On ch=1 n=b4 v=48
16564 On ch=1 n=e5 v=58
16568 Off ch=1 n=g#5 v=64
16573 Off ch=1 n=b5 v=64
16575 Par ch=1 c=64 v=127
16579 Par ch=1 c=64 v=127
16596 Off ch=1 n=b4 v=64
16602 Off ch=1 n=e4 v=64
16647 Off ch=1 n=e6 v=64
16656 Off ch=1 n=e5 v=64
16681 Par ch=1 c=64 v=0
16685 Par ch=1 c=64 v=0
16697 On ch=1 n=e5 v=71
16701 On ch=1 n=e6 v=66
16703 On ch=1 n=b4 v=62
16703 On ch=1 n=e4 v=65
16710 Par ch=1 c=64 v=127
16714 Par ch=1 c=64 v=127
16736 Off ch=1 n=b4 v=64
16741 Off ch=1 n=e4 v=64
16777 Off ch=1 n=e6 v=64
16779 Off ch=1 n=e5 v=64
16793 On ch=1 n=c#6 v=58
16797 On ch=1 n=a5 v=58
16821 On ch=1 n=b5 v=63
16821 On ch=1 n=g#5 v=61
16831 On ch=1 n=b4 v=61
16837 On ch=1 n=e4 v=54
16848 Off ch=1 n=c#6 v=64
16851 Off ch=1 n=a5 v=64
16885 Off ch=1 n=e4 v=64
16887 Off ch=1 n=b4 v=64
16958 On ch=1 n=e6 v=65
16962 On ch=1 n=e5 v=22
16966 On ch=1 n=e4 v=66
16970 On ch=1 n=b4 v=65
16973 Off ch=1 n=g#5 v=64
16973 Off ch=1 n=b5 v=64
17005 Off ch=1 n=e4 v=64
17009 Off ch=1 n=b4 v=64
17038 Off ch=1 n=e6 v=64
17042 Off ch=1 n=e5 v=64
17099 Par ch=1 c=64 v=0
17103 Par ch=1 c=64 v=0
17112 On ch=1 n=f#6 v=74
17113 On ch=1 n=b5 v=66
17114 On ch=1 n=b3 v=58
17114 On ch=1 n=b2 v=63
17117 On ch=1 n=d#6 v=65
17118 On ch=1 n=f#5 v=70
17137 Par ch=1 c=64 v=127
17141 Par ch=1 c=64 v=127
17196 Off ch=1 n=d#6 v=64
17198 Off ch=1 n=b5 v=64
17214 Off ch=1 n=f#5 v=64
17214 Off ch=1 n=f#6 v=64
17230 On ch=1 n=d#6 v=58
17231 On ch=1 n=f#6 v=70
17234 On ch=1 n=b5 v=70
17254 Off ch=1 n=b2 v=64
17257 Off ch=1 n=d#6 v=64
17258 Off ch=1 n=f#6 v=64
17260 Off ch=1 n=b3 v=64
17261 Off ch=1 n=b5 v=64
17270 On ch=1 n=f#6 v=70
17270 On ch=1 n=d6 v=80
17270 On ch=1 n=b4 v=65
17273 On ch=1 n=b5 v=71
17274 On ch=1 n=f#5 v=83
17290 Par ch=1 c=64 v=0
17294 Par ch=1 c=64 v=0
17387 Par ch=1 c=64 v=127
17391 Par ch=1 c=64 v=127
17401 Off ch=1 n=f#5 v=64
17405 Off ch=1 n=b4 v=64
17412 Off ch=1 n=b5 v=64
17413 Off ch=1 n=d6 v=64
17424 Off ch=1 n=f#6 v=64
17575 Par ch=1 c=64 v=0
17579 Par ch=1 c=64 v=0
17615 On ch=1 n=a6 v=71
17615 On ch=1 n=c#6 v=80
17620 On ch=1 n=f#3 v=70
17621 On ch=1 n=f#4 v=72
17646 Par ch=1 c=64 v=127
17650 Par ch=1 c=64 v=127
17659 Off ch=1 n=c#6 v=64
17669 Off ch=1 n=a6 v=64
17710 Off ch=1 n=f#4 v=64
17713 Off ch=1 n=f#3 v=64
17734 On ch=1 n=a6 v=55
17736 On ch=1 n=c#6 v=71
17759 Par ch=1 c=64 v=0
17763 Par ch=1 c=64 v=0
17768 Off ch=1 n=a6 v=64
17770 Off ch=1 n=c#6 v=64
17770 On ch=1 n=f#4 v=55
17774 On ch=1 n=a6 v=71
17774 On ch=1 n=f#5 v=70
17774 On ch=1 n=c#5 v=50
17775 On ch=1 n=c#6 v=66
17783 Par ch=1 c=64 v=127
17787 Par ch=1 c=64 v=127
17873 Off ch=1 n=f#4 v=64
17876 Off ch=1 n=c#5 v=64
17884 Off ch=1 n=f#5 v=64
17914 On ch=1 n=b5 v=70
17918 On ch=1 n=g#6 v=67
17928 Off ch=1 n=a6 v=64
17929 Off ch=1 n=c#6 v=64
17975 On ch=1 n=a5 v=66
17979 On ch=1 n=f#6 v=71
17986 Off ch=1 n=b5 v=64
17990 Off ch=1 n=g#6 v=64
18022 Par ch=1 c=64 v=0
18026 Par ch=1 c=64 v=0
18037 On ch=1 n=c#3 v=57
18039 On ch=1 n=c#4 v=48
18046 Off ch=1 n=a5 v=64
18046 On ch=1 n=e6 v=61
18046 On ch=1 n=g#5 v=66
18050 Off ch=1 n=f#6 v=64
18056 Par ch=1 c=64 v=127
18060 Par ch=1 c=64 v=127
18135 On ch=1 n=f#5 v=58
18137 On ch=1 n=d#6 v=46
18141 Off ch=1 n=g#5 v=64
18141 Off ch=1 n=e6 v=64
18159 Par ch=1 c=64 v=0
18163 Off ch=1 n=c#4 v=64
18163 Par ch=1 c=64 v=0
18171 On ch=1 n=e5 v=53
18171 On ch=1 n=c#5 v=50
18173 On ch=1 n=c#6 v=52
18179 On ch=1 n=g#4 v=37
18180 On ch=1 n=c#4 v=48
18181 Off ch=1 n=c#3 v=64
18182 Off ch=1 n=f#5 v=64
18184 Off ch=1 n=d#6 v=64
18187 Par ch=1 c=64 v=127
18191 Par ch=1 c=64 v=127
18199 Off ch=1 n=c#5 v=64
18205 Off ch=1 n=g#4 v=64
18232 Off ch=1 n=c#4 v=64
18298 Par ch=1 c=64 v=0
18302 Par ch=1 c=64 v=0
18324 On ch=1 n=e6 v=52
18325 On ch=1 n=g#5 v=55
18329 Off ch=1 n=c#6 v=64
18329 On ch=1 n=c#4 v=53
18330 On ch=1 n=c#5 v=58
18330 On ch=1 n=g#4 v=55
18333 Par ch=1 c=64 v=127
18337 Par ch=1 c=64 v=127
18340 Off ch=1 n=e5 v=64
18362 Off ch=1 n=c#4 v=64
18364 Off ch=1 n=g#4 v=64
18366 Off ch=1 n=c#5 v=64
18442 Off ch=1 n=e6 v=64
18444 Par ch=1 c=64 v=0
18448 Par ch=1 c=64 v=0
18453 Off ch=1 n=g#5 v=64
18454 On ch=1 n=e6 v=55
18458 On ch=1 n=g#5 v=61
18461 Par ch=1 c=64 v=127
18465 Par ch=1 c=64 v=127
18472 On ch=1 n=g#4 v=55
18477 On ch=1 n=c#5 v=57
18477 On ch=1 n=c#4 v=50
18498 Off ch=1 n=g#4 v=64
18499 Off ch=1 n=c#4 v=64
18507 Off ch=1 n=c#5 v=64
18555 On ch=1 n=d#6 v=46
18555 On ch=1 n=f#5 v=52
18587 Off ch=1 n=e6 v=64
18587 On ch=1 n=c#6 v=49
18587 On ch=1 n=e5 v=57
18589 Off ch=1 n=g#5 v=64
18593 On ch=1 n=g#4 v=53
18595 Off ch=1 n=f#5 v=64
18595 Off ch=1 n=d#6 v=64
18598 On ch=1 n=c#5 v=58
18598 On ch=1 n=c#4 v=50
18635 Off ch=1 n=c#4 v=64
18635 Off ch=1 n=c#5 v=64
18635 Off ch=1 n=g#4 v=64
18718 On ch=1 n=e6 v=57
18719 On ch=1 n=g#5 v=44
18723 On ch=1 n=g#4 v=50
18724 On ch=1 n=c#5 v=48
18725 Off ch=1 n=c#6 v=64
18726 On ch=1 n=c#4 v=53
18731 Off ch=1 n=e5 v=64
18757 Off ch=1 n=c#5 v=64
18762 Off ch=1 n=c#4 v=64
18767 Off ch=1 n=g#4 v=64
18843 Off ch=1 n=g#5 v=64
18845 Par ch=1 c=64 v=0
18849 Par ch=1 c=64 v=0
18859 On ch=1 n=a5 v=66
18860 On ch=1 n=c#6 v=66
18861 On ch=1 n=f#6 v=74
18861 On ch=1 n=f#5 v=76
18865 Off ch=1 n=e6 v=64
18867 On ch=1 n=f#4 v=66
18867 On ch=1 n=f#3 v=71
18897 Par ch=1 c=64 v=127
18901 Par ch=1 c=64 v=127
18917 Off ch=1 n=c#6 v=64
18924 Off ch=1 n=f#5 v=64
18925 Off ch=1 n=a5 v=64
18947 Off ch=1 n=f#6 v=64
18968 On ch=1 n=a5 v=44
18973 On ch=1 n=c#6 v=70
18976 On ch=1 n=f#6 v=70
18995 Off ch=1 n=a5 v=64
18996 Par ch=1 c=64 v=0
19000 Off ch=1 n=c#6 v=64
19000 Par ch=1 c=64 v=0
19003 Off ch=1 n=f#6 v=64
19007 Off ch=1 n=f#4 v=64
19010 On ch=1 n=c#6 v=80
19012 On ch=1 n=a5 v=83
19012 On ch=1 n=f#5 v=70
19012 On ch=1 n=c#5 v=59
19012 On ch=1 n=f#4 v=66
19015 On ch=1 n=f#6 v=79
19025 Off ch=1 n=f#3 v=64
19041 Par ch=1 c=64 v=127
19045 Par ch=1 c=64 v=127
19135 Off ch=1 n=c#5 v=64
19136 Off ch=1 n=c#6 v=64
19140 Off ch=1 n=f#4 v=64
19140 Off ch=1 n=a5 v=64
19147 Off ch=1 n=f#6 v=64
19148 Off ch=1 n=f#5 v=64
19240 Par ch=1 c=64 v=0
19244 Par ch=1 c=64 v=0
19349 On ch=1 n=b2 v=66
19353 On ch=1 n=a6 v=70
19357 On ch=1 n=c#6 v=70
19357 On ch=1 n=b3 v=63
19366 Par ch=1 c=64 v=127
19370 Par ch=1 c=64 v=127
19419 Off ch=1 n=c#6 v=64
19428 Off ch=1 n=a6 v=64
19447 On ch=1 n=c#6 v=72
19449 On ch=1 n=a6 v=71
19467 Off ch=1 n=c#6 v=64
19470 Off ch=1 n=a6 v=64
19492 On ch=1 n=c#6 v=79
19493 Off ch=1 n=b3 v=64
19493 Off ch=1 n=b2 v=64
19494 On ch=1 n=a6 v=72
19494 On ch=1 n=f#5 v=70
19497 On ch=1 n=b4 v=50
19535 Off ch=1 n=b4 v=64
19542 Off ch=1 n=f#5 v=64
19634 On ch=1 n=g#6 v=58
19634 On ch=1 n=b5 v=53
19639 On ch=1 n=d#6 v=44
19640 Off ch=1 n=c#6 v=64
19642 Off ch=1 n=a6 v=64
19694 On ch=1 n=f#6 v=52
19698 On ch=1 n=a5 v=46
19703 Off ch=1 n=g#6 v=64
19705 Off ch=1 n=b5 v=64
19768 On ch=1 n=g#5 v=62
19773 On ch=1 n=e6 v=66
19773 On ch=1 n=e3 v=50
19784 Off ch=1 n=f#6 v=64
19784 On ch=1 n=e4 v=29
19785 Par ch=1 c=64 v=0
19788 Off ch=1 n=a5 v=64
19789 Off ch=1 n=d#6 v=64
19789 Par ch=1 c=64 v=0
19800 Par ch=1 c=64 v=127
19804 Par ch=1 c=64 v=127
19810 Off ch=1 n=e4 v=64
19838 Off ch=1 n=e3 v=64
19877 On ch=1 n=c#6 v=44
19877 On ch=1 n=a5 v=18
19885 Off ch=1 n=g#5 v=64
19886 Off ch=1 n=e6 v=64
19901 Par ch=1 c=64 v=0
19905 Par ch=1 c=64 v=0
19909 On ch=1 n=g#5 v=50
19917 On ch=1 n=b5 v=52
19918 On ch=1 n=b4 v=40
19920 On ch=1 n=e5 v=53
19921 Off ch=1 n=a5 v=64
19923 On ch=1 n=e4 v=42
19933 Off ch=1 n=c#6 v=64
19941 Par ch=1 c=64 v=127
19945 Off ch=1 n=e4 v=64
19945 Par ch=1 c=64 v=127
19952 Off ch=1 n=e5 v=64
19952 Off ch=1 n=b4 v=64
20054 Par ch=1 c=64 v=0
20058 Par ch=1 c=64 v=0
20064 Off ch=1 n=g#5 v=64
20064 On ch=1 n=e6 v=53
20067 On ch=1 n=e5 v=45
20072 Off ch=1 n=b5 v=64
20072 On ch=1 n=b4 v=44
20072 On ch=1 n=e4 v=45
20077 Par ch=1 c=64 v=127
20081 Par ch=1 c=64 v=127
20102 Off ch=1 n=e4 v=64
20102 Off ch=1 n=b4 v=64
20175 Off ch=1 n=e6 v=64
20178 Off ch=1 n=e5 v=64
20197 On ch=1 n=e6 v=52
20197 On ch=1 n=e5 v=52
20201 On ch=1 n=b4 v=48
20201 On ch=1 n=e4 v=52
20224 Off ch=1 n=b4 v=64
20243 Off ch=1 n=e4 v=64
20281 On ch=1 n=c#6 v=44
20285 On ch=1 n=a5 v=55
20302 Off ch=1 n=e5 v=64
20302 Off ch=1 n=e6 v=64
20321 On ch=1 n=b5 v=48
20321 On ch=1 n=g#5 v=35
20327 Off ch=1 n=c#6 v=64
20330 Off ch=1 n=a5 v=64
20334 Par ch=1 c=64 v=0
20336 On ch=1 n=b4 v=50
20338 Par ch=1 c=64 v=0
20345 On ch=1 n=e5 v=52
20345 On ch=1 n=e4 v=48
20353 Par ch=1 c=64 v=127
20357 Par ch=1 c=64 v=127
20381 Off ch=1 n=e5 v=64
20383 Off ch=1 n=b4 v=64
20388 Off ch=1 n=e4 v=64
20475 On ch=1 n=e6 v=48
20476 Off ch=1 n=g#5 v=64
20476 Off ch=1 n=b5 v=64
20484 On ch=1 n=e5 v=44
20489 On ch=1 n=e4 v=50
20492 On ch=1 n=b4 v=28
20537 Off ch=1 n=e4 v=64
20541 Off ch=1 n=b4 v=64
20600 On ch=1 n=b5 v=79
20606 Off ch=1 n=e6 v=64
20615 Off ch=1 n=e5 v=64
20621 Par ch=1 c=64 v=0
20625 Par ch=1 c=64 v=0
20657 On ch=1 n=b6 v=67
20661 On ch=1 n=b4 v=50
20661 On ch=1 n=a4 v=48
20664 On ch=1 n=d#5 v=50
20667 On ch=1 n=e4 v=28
20673 Par ch=1 c=64 v=127
20677 Par ch=1 c=64 v=127
20715 Off ch=1 n=e4 v=64
20715 Off ch=1 n=a4 v=64
20717 Off ch=1 n=d#5 v=64
20722 Off ch=1 n=b4 v=64
20748 Off ch=1 n=b6 v=64
20769 On ch=1 n=a#6 v=74
20811 On ch=1 n=d#5 v=49
20811 On ch=1 n=e4 v=46
20817 On ch=1 n=a6 v=76
20817 On ch=1 n=b4 v=54
20822 On ch=1 n=a4 v=46
20833 Off ch=1 n=a#6 v=64
20838 Off ch=1 n=b5 v=64
20858 Off ch=1 n=d#5 v=64
20861 Off ch=1 n=a4 v=64
20861 Off ch=1 n=e4 v=64
20877 Off ch=1 n=b4 v=64
20887 On ch=1 n=b5 v=83
20949 On ch=1 n=g#6 v=80
20949 On ch=1 n=d#5 v=53
20953 On ch=1 n=b4 v=54
20955 On ch=1 n=a4 v=46
20959 Off ch=1 n=a6 v=64
20960 On ch=1 n=e4 v=36
20989 Off ch=1 n=a4 v=64
20993 Off ch=1 n=b4 v=64
20993 Off ch=1 n=d#5 v=64
20994 Off ch=1 n=e4 v=64
21010 On ch=1 n=f#6 v=71
21024 Off ch=1 n=g#6 v=64
21069 Off ch=1 n=b5 v=64
21070 Par ch=1 c=64 v=0
21074 Par ch=1 c=64 v=0
21081 On ch=1 n=e6 v=83
21097 On ch=1 n=e5 v=50
21105 On ch=1 n=b4 v=41
21105 On ch=1 n=g#4 v=44
21105 On ch=1 n=e4 v=50
21106 Off ch=1 n=f#6 v=64
21113 Par ch=1 c=64 v=127
21117 Par ch=1 c=64 v=127
21132 Off ch=1 n=g#4 v=64
21132 Off ch=1 n=b4 v=64
21133 Off ch=1 n=e5 v=64
21139 Off ch=1 n=e4 v=64
21149 On ch=1 n=b5 v=80
21163 Off ch=1 n=e6 v=64
21200 Par ch=1 c=64 v=0
21204 Par ch=1 c=64 v=0
21228 On ch=1 n=g#6 v=83
21234 On ch=1 n=g#4 v=53
21238 On ch=1 n=e4 v=49
21242 On ch=1 n=e5 v=50
21242 On ch=1 n=b4 v=40
21244 Par ch=1 c=64 v=127
21248 Par ch=1 c=64 v=127
21271 Off ch=1 n=b4 v=64
21273 Off ch=1 n=g#4 v=64
21276 Off ch=1 n=e5 v=64
21276 Off ch=1 n=e4 v=64
21306 On ch=1 n=a#6 v=81
21326 Off ch=1 n=g#6 v=64
21345 Par ch=1 c=64 v=0
21349 Par ch=1 c=64 v=0
21370 On ch=1 n=b6 v=89
21379 On ch=1 n=e5 v=44
21384 On ch=1 n=e4 v=32
21386 On ch=1 n=g#4 v=40
21388 Off ch=1 n=a#6 v=64
21388 On ch=1 n=b4 v=36
21392 Par ch=1 c=64 v=127
21396 Par ch=1 c=64 v=127
21415 Off ch=1 n=b4 v=64
21419 Off ch=1 n=e4 v=64
21425 Off ch=1 n=g#4 v=64
21430 Off ch=1 n=e5 v=64
21500 Par ch=1 c=64 v=0
21504 Par ch=1 c=64 v=0
21513 On ch=1 n=e4 v=49
21514 On ch=1 n=b4 v=46
21519 On ch=1 n=a4 v=46
21520 On ch=1 n=d#5 v=55
21521 Par ch=1 c=64 v=127
21525 Par ch=1 c=64 v=127
21550 Off ch=1 n=b4 v=64
21552 Off ch=1 n=d#5 v=64
21561 Off ch=1 n=a4 v=64
21571 Off ch=1 n=e4 v=64
21577 On ch=1 n=a#6 v=75
21598 Off ch=1 n=b6 v=64
21654 On ch=1 n=b4 v=54
21656 On ch=1 n=a6 v=72
21656 On ch=1 n=d#5 v=40
21658 On ch=1 n=e4 v=32
21663 On ch=1 n=a4 v=40
21668 Off ch=1 n=a#6 v=64
21679 Off ch=1 n=b5 v=64
21699 Off ch=1 n=a4 v=64
21702 Off ch=1 n=e4 v=64
21702 Off ch=1 n=d#5 v=64
21702 Off ch=1 n=b4 v=64
21731 On ch=1 n=b5 v=83
21746 Off ch=1 n=a6 v=64
21790 On ch=1 n=b4 v=54
21793 On ch=1 n=d#5 v=46
21793 On ch=1 n=e4 v=36
21794 On ch=1 n=a4 v=36
21801 On ch=1 n=g#6 v=88
21830 Off ch=1 n=b4 v=64
21835 Off ch=1 n=a4 v=64
21837 Off ch=1 n=e4 v=64
21840 Off ch=1 n=d#5 v=64
21872 On ch=1 n=f#6 v=83
21898 Off ch=1 n=g#6 v=64
21908 Off ch=1 n=b5 v=64
21941 On ch=1 n=b4 v=49
21945 On ch=1 n=g#4 v=44
21948 On ch=1 n=e4 v=44
21949 On ch=1 n=e5 v=46
21954 On ch=1 n=e6 v=81
21970 Off ch=1 n=f#6 v=64
21990 Off ch=1 n=e5 v=64
21993 Off ch=1 n=e4 v=64
21993 Off ch=1 n=b4 v=64
21998 Off ch=1 n=g#4 v=64
22013 On ch=1 n=b5 v=81
22029 Off ch=1 n=e6 v=64
22090 On ch=1 n=d#6 v=79
22098 On ch=1 n=e4 v=46
22102 On ch=1 n=g#4 v=48
22103 Off ch=1 n=b5 v=64
22105 On ch=1 n=e5 v=49
22106 On ch=1 n=b4 v=49
22141 Off ch=1 n=g#4 v=64
22144 Off ch=1 n=b4 v=64
22144 Off ch=1 n=e4 v=64
22150 Off ch=1 n=e5 v=64
22174 Off ch=1 n=d#6 v=64
22176 On ch=1 n=c#6 v=84
22198 On ch=1 n=d#6 v=54
22214 Off ch=1 n=c#6 v=64
22226 On ch=1 n=c#6 v=80
22232 Par ch=1 c=64 v=0
22236 Par ch=1 c=64 v=0
22242 Off ch=1 n=d#6 v=64
22243 On ch=1 n=e5 v=48
22243 On ch=1 n=e4 v=46
22249 On ch=1 n=b5 v=88
22249 On ch=1 n=b4 v=44
22250 On ch=1 n=g#4 v=36
22261 Par ch=1 c=64 v=127
22265 Par ch=1 c=64 v=127
22269 Off ch=1 n=c#6 v=64
22278 Off ch=1 n=g#4 v=64
22279 Off ch=1 n=b4 v=64
22281 Off ch=1 n=e5 v=64
22286 Off ch=1 n=e4 v=64
22386 On ch=1 n=d#5 v=55
22386 On ch=1 n=a4 v=49
22386 On ch=1 n=e4 v=39
22390 On ch=1 n=b6 v=76
22390 On ch=1 n=b4 v=46
22428 Off ch=1 n=d#5 v=64
22430 Off ch=1 n=a4 v=64
22431 Off ch=1 n=b4 v=64
22431 Off ch=1 n=e4 v=64
22435 Off ch=1 n=b5 v=64
22486 On ch=1 n=a#6 v=89
22495 Off ch=1 n=b6 v=64
22526 On ch=1 n=a4 v=46
22529 On ch=1 n=d#5 v=50
22530 On ch=1 n=b4 v=48
22530 On ch=1 n=e4 v=24
22534 On ch=1 n=a6 v=88
22545 Off ch=1 n=a#6 v=64
22557 Off ch=1 n=e4 v=64
22567 Off ch=1 n=b4 v=64
22571 Off ch=1 n=a4 v=64
22579 Off ch=1 n=d#5 v=64
22596 On ch=1 n=b5 v=83
22615 Off ch=1 n=a6 v=64
22654 Par ch=1 c=64 v=0
22658 Par ch=1 c=64 v=0
22668 On ch=1 n=d#5 v=49
22672 On ch=1 n=e4 v=40
22674 On ch=1 n=b4 v=44
22674 On ch=1 n=a4 v=44
22675 Par ch=1 c=64 v=127
22679 On ch=1 n=g#6 v=94
22679 Par ch=1 c=64 v=127
22705 Off ch=1 n=b4 v=64
22708 Off ch=1 n=a4 v=64
22713 Off ch=1 n=e4 v=64
22717 Off ch=1 n=d#5 v=64
22739 On ch=1 n=f#6 v=88
22749 Off ch=1 n=g#6 v=64
22775 Off ch=1 n=b5 v=64
22805 Par ch=1 c=64 v=0
22809 Par ch=1 c=64 v=0
22814 On ch=1 n=e5 v=50
22814 On ch=1 n=e4 v=54
22818 On ch=1 n=b4 v=1
22818 On ch=1 n=g#4 v=54
22821 On ch=1 n=e6 v=78
22829 Off ch=1 n=f#6 v=64
22850 Par ch=1 c=64 v=127
22854 Par ch=1 c=64 v=127
22889 On ch=1 n=b5 v=83
22896 Off ch=1 n=e6 v=64
22962 On ch=1 n=g#5 v=79
22966 Off ch=1 n=e5 v=64
22967 On ch=1 n=g#6 v=88
22970 Off ch=1 n=b4 v=64
22970 Off ch=1 n=e4 v=64
22974 Off ch=1 n=g#4 v=64
22984 Off ch=1 n=b5 v=64
23035 Par ch=1 c=64 v=0
23039 Par ch=1 c=64 v=0
23043 On ch=1 n=a#5 v=70
23045 On ch=1 n=a#6 v=74
23056 Off ch=1 n=g#5 v=64
23061 Off ch=1 n=g#6 v=64
23116 On ch=1 n=b6 v=62
23116 On ch=1 n=b5 v=76
23127 Off ch=1 n=a#5 v=64
23129 Off ch=1 n=a#6 v=64
23325 On ch=1 n=a#5 v=63
23332 On ch=1 n=a#6 v=64
23358 Off ch=1 n=b6 v=64
23363 Off ch=1 n=b5 v=64
23395 On ch=1 n=f#6 v=62
23402 On ch=1 n=f#5 v=55
23417 Off ch=1 n=a#5 v=64
23424 Off ch=1 n=a#6 v=64
23475 On ch=1 n=a5 v=54
23476 On ch=1 n=a6 v=70
23493 Off ch=1 n=f#6 v=64
23500 Off ch=1 n=f#5 v=64
23543 On ch=1 n=g#5 v=40
23545 On ch=1 n=g#6 v=76
23563 Off ch=1 n=a5 v=64
23564 Off ch=1 n=a6 v=64
23612 On ch=1 n=e6 v=59
23614 On ch=1 n=e5 v=36
23616 Par ch=1 c=64 v=127
23620 Par ch=1 c=64 v=127
23631 Off ch=1 n=g#5 v=64
23633 Off ch=1 n=g#6 v=64
23695 On ch=1 n=f#6 v=67
23695 On ch=1 n=f#5 v=67
23710 Off ch=1 n=e6 v=64
23712 Off ch=1 n=e5 v=64
23762 On ch=1 n=d#6 v=69
23763 On ch=1 n=d#5 v=23
23777 Off ch=1 n=f#5 v=64
23777 Off ch=1 n=f#6 v=64
23839 On ch=1 n=e5 v=53
23840 On ch=1 n=e6 v=60
23851 Off ch=1 n=d#6 v=64
23852 Off ch=1 n=d#5 v=64
23903 On ch=1 n=c#5 v=43
23908 On ch=1 n=c#6 v=52
23923 Off ch=1 n=e5 v=64
23924 Off ch=1 n=e6 v=64
23991 On ch=1 n=e6 v=55
23993 On ch=1 n=e5 v=43
23997 Off ch=1 n=c#5 v=64
24002 Off ch=1 n=c#6 v=64
24061 On ch=1 n=c6 v=43
24063 On ch=1 n=c5 v=36
24078 Off ch=1 n=e6 v=64
24080 Off ch=1 n=e5 v=64
24155 On ch=1 n=b4 v=29
24157 On ch=1 n=b5 v=43
24169 Off ch=1 n=c6 v=64
24171 Off ch=1 n=c5 v=64
24249 Off ch=1 n=b4 v=64
24269 On ch=1 n=g#5 v=57
24284 Par ch=1 c=64 v=0
24288 Par ch=1 c=64 v=0
24297 Off ch=1 n=b5 v=64
24299 On ch=1 n=d5 v=40
24299 On ch=1 n=b4 v=42
24303 On ch=1 n=e4 v=40
24306 On ch=1 n=e5 v=70
24330 Off ch=1 n=g#5 v=64
24352 Off ch=1 n=b4 v=64
24352 Off ch=1 n=d5 v=64
24367 Off ch=1 n=e4 v=64
24367 Par ch=1 c=64 v=127
24371 Par ch=1 c=64 v=127
24436 Par ch=1 c=64 v=0
24440 Par ch=1 c=64 v=0
24463 On ch=1 n=d5 v=36
24463 On ch=1 n=b4 v=36
24463 On ch=1 n=e4 v=37
24465 On ch=1 n=f#5 v=72
24480 Par ch=1 c=64 v=127
24482 Off ch=1 n=e5 v=64
24484 Par ch=1 c=64 v=127
24505 Off ch=1 n=e4 v=64
24508 Off ch=1 n=b4 v=64
24514 Off ch=1 n=d5 v=64
24529 On ch=1 n=g#5 v=67
24546 Off ch=1 n=f#5 v=64
24599 On ch=1 n=a4 v=39
24602 On ch=1 n=a5 v=74
24602 On ch=1 n=c#5 v=44
24605 Par ch=1 c=64 v=0
24609 Par ch=1 c=64 v=0
24613 Off ch=1 n=g#5 v=64
24633 Par ch=1 c=64 v=127
24637 Par ch=1 c=64 v=127
24662 Off ch=1 n=a4 v=64
24670 Off ch=1 n=c#5 v=64
24671 On ch=1 n=c#6 v=59
24703 Off ch=1 n=a5 v=64
24743 Par ch=1 c=64 v=0
24747 Par ch=1 c=64 v=0
24755 On ch=1 n=g#4 v=46
24756 On ch=1 n=e6 v=66
24756 On ch=1 n=b4 v=41
24759 On ch=1 n=e5 v=29
24765 Off ch=1 n=c#6 v=64
24776 Par ch=1 c=64 v=127
24780 Par ch=1 c=64 v=127
24818 Off ch=1 n=g#4 v=64
24822 Off ch=1 n=b4 v=64
24831 Off ch=1 n=e5 v=64
24897 Par ch=1 c=64 v=0
24901 Par ch=1 c=64 v=0
24910 On ch=1 n=e5 v=33
24914 On ch=1 n=b4 v=39
24914 On ch=1 n=g4 v=40
24926 Par ch=1 c=64 v=127
24930 Par ch=1 c=64 v=127
24959 Off ch=1 n=b4 v=64
24963 Off ch=1 n=e5 v=64
24969 Off ch=1 n=g4 v=64
24974 On ch=1 n=f6 v=61
25004 Off ch=1 n=e6 v=64
25040 Par ch=1 c=64 v=0
25044 Par ch=1 c=64 v=0
25055 On ch=1 n=c#5 v=49
25055 On ch=1 n=f#4 v=46
25057 On ch=1 n=f#6 v=74
25060 On ch=1 n=e5 v=40
25069 Off ch=1 n=f6 v=64
25071 Par ch=1 c=64 v=127
25075 Par ch=1 c=64 v=127
25110 Off ch=1 n=f#4 v=64
25116 Off ch=1 n=e5 v=64
25118 On ch=1 n=a#5 v=58
25128 Off ch=1 n=c#5 v=64
25133 Off ch=1 n=f#6 v=64
25182 Par ch=1 c=64 v=0
25186 Par ch=1 c=64 v=0
25195 On ch=1 n=d5 v=42
25201 On ch=1 n=b5 v=63
25201 On ch=1 n=b4 v=46
25212 Par ch=1 c=64 v=127
25214 Off ch=1 n=a#5 v=64
25216 Par ch=1 c=64 v=127
25251 Off ch=1 n=d5 v=64
25258 Off ch=1 n=b4 v=64
25339 On ch=1 n=d5 v=37
25339 On ch=1 n=b4 v=36
25339 On ch=1 n=f4 v=36
25345 On ch=1 n=c#6 v=58
25347 Par ch=1 c=64 v=0
25351 Par ch=1 c=64 v=0
25359 Off ch=1 n=b5 v=64
25361 Par ch=1 c=64 v=127
25365 Par ch=1 c=64 v=127
25389 Off ch=1 n=b4 v=64
25390 Off ch=1 n=f4 v=64
25391 Off ch=1 n=d5 v=64
25410 On ch=1 n=d6 v=57
25427 Off ch=1 n=c#6 v=64
25486 Par ch=1 c=64 v=0
25489 On ch=1 n=b4 v=39
25490 On ch=1 n=e6 v=68
25490 On ch=1 n=d5 v=41
25490 Par ch=1 c=64 v=0
25491 On ch=1 n=e4 v=41
25511 Par ch=1 c=64 v=127
25515 Par ch=1 c=64 v=127
25522 Off ch=1 n=d6 v=64
25533 Off ch=1 n=e4 v=64
25534 Off ch=1 n=d5 v=64
25538 Off ch=1 n=b4 v=64
25561 On ch=1 n=g#5 v=67
25578 Off ch=1 n=e6 v=64
25623 Par ch=1 c=64 v=0
25627 Par ch=1 c=64 v=0
25635 On ch=1 n=c#5 v=48
25639 On ch=1 n=a4 v=41
25642 On ch=1 n=a5 v=62
25643 Par ch=1 c=64 v=127
25647 Par ch=1 c=64 v=127
25657 Off ch=1 n=g#5 v=64
25705 Off ch=1 n=c#5 v=64
25709 Off ch=1 n=a4 v=64
25775 On ch=1 n=a4 v=40
25779 On ch=1 n=a3 v=41
25781 On ch=1 n=b5 v=66
25793 Off ch=1 n=a5 v=64
25844 On ch=1 n=c#6 v=70
25859 Off ch=1 n=b5 v=64
25919 On ch=1 n=b5 v=55
25923 Off ch=1 n=c#6 v=64
25941 Par ch=1 c=64 v=0
25945 Par ch=1 c=64 v=0
25951 On ch=1 n=c#6 v=61
25957 Off ch=1 n=a4 v=64
25961 Off ch=1 n=a3 v=64
25962 Off ch=1 n=b5 v=64
25963 On ch=1 n=e4 v=24
25963 On ch=1 n=e3 v=49
25973 Par ch=1 c=64 v=127
25977 Par ch=1 c=64 v=127
25981 On ch=1 n=b5 v=78
26018 Off ch=1 n=c#6 v=64
26075 On ch=1 n=g#5 v=74
26079 Off ch=1 n=e3 v=64
26085 Off ch=1 n=b5 v=64
26089 Off ch=1 n=e4 v=64
26089 Par ch=1 c=64 v=0
26093 Par ch=1 c=64 v=0
26108 On ch=1 n=e5 v=62
26111 On ch=1 n=d5 v=42
26111 On ch=1 n=b4 v=41
26111 On ch=1 n=e4 v=36
26127 Off ch=1 n=g#5 v=64
26133 Par ch=1 c=64 v=127
26137 Par ch=1 c=64 v=127
26148 Off ch=1 n=d5 v=64
26149 Off ch=1 n=b4 v=64
26154 Off ch=1 n=e4 v=64
26241 Par ch=1 c=64 v=0
26245 Par ch=1 c=64 v=0
26251 On ch=1 n=f#5 v=71
26251 On ch=1 n=d5 v=36
26252 On ch=1 n=b4 v=33
26258 On ch=1 n=e4 v=36
26266 Off ch=1 n=e5 v=64
26275 Par ch=1 c=64 v=127
26279 Par ch=1 c=64 v=127
26297 Off ch=1 n=b4 v=64
26302 Off ch=1 n=e4 v=64
26305 On ch=1 n=g#5 v=74
26308 Off ch=1 n=d5 v=64
26327 Off ch=1 n=f#5 v=64
26378 On ch=1 n=a5 v=75
26383 On ch=1 n=c#5 v=41
26385 Off ch=1 n=g#5 v=64
26387 On ch=1 n=a4 v=32
26390 Par ch=1 c=64 v=0
26394 Par ch=1 c=64 v=0
26416 Par ch=1 c=64 v=127
26420 Par ch=1 c=64 v=127
26439 Off ch=1 n=a4 v=64
26442 On ch=1 n=c#6 v=71
26448 Off ch=1 n=c#5 v=64
26471 Off ch=1 n=a5 v=64
26525 On ch=1 n=e6 v=74
26527 On ch=1 n=e5 v=23
26527 On ch=1 n=b4 v=36
26529 On ch=1 n=g#4 v=42
26530 Par ch=1 c=64 v=0
26534 Par ch=1 c=64 v=0
26539 Off ch=1 n=c#6 v=64
26550 Par ch=1 c=64 v=127
26554 Par ch=1 c=64 v=127
26585 Off ch=1 n=g#4 v=64
26590 Off ch=1 n=b4 v=64
26590 Off ch=1 n=e5 v=64
26663 Par ch=1 c=64 v=0
26665 On ch=1 n=b4 v=39
26667 Par ch=1 c=64 v=0
26674 On ch=1 n=e5 v=42
26674 On ch=1 n=g4 v=41
26680 Par ch=1 c=64 v=127
26684 Par ch=1 c=64 v=127
26719 Off ch=1 n=b4 v=64
26722 Off ch=1 n=g4 v=64
26723 Off ch=1 n=e5 v=64
26734 On ch=1 n=f6 v=61
26752 Off ch=1 n=e6 v=64
26792 Par ch=1 c=64 v=0
26796 Par ch=1 c=64 v=0
26805 On ch=1 n=c#5 v=42
26810 On ch=1 n=f#6 v=80
26810 On ch=1 n=e5 v=33
26814 On ch=1 n=f#4 v=46
26824 Off ch=1 n=f6 v=64
26825 Par ch=1 c=64 v=127
26829 Par ch=1 c=64 v=127
26867 Off ch=1 n=e5 v=64
26873 Off ch=1 n=f#4 v=64
26875 Off ch=1 n=c#5 v=64
26878 On ch=1 n=a#5 v=67
26898 Off ch=1 n=f#6 v=64
26951 Par ch=1 c=64 v=0
26955 On ch=1 n=b5 v=67
26955 On ch=1 n=d5 v=39
26955 On ch=1 n=b4 v=41
26955 Par ch=1 c=64 v=0
26965 Par ch=1 c=64 v=127
26967 Off ch=1 n=a#5 v=64
26969 Par ch=1 c=64 v=127
26996 Off ch=1 n=b4 v=64
27003 Off ch=1 n=d5 v=64
27072 Par ch=1 c=64 v=0
27076 Par ch=1 c=64 v=0
27096 On ch=1 n=b4 v=29
27100 On ch=1 n=e4 v=36
27104 On ch=1 n=c#6 v=58
27104 On ch=1 n=d5 v=39
27109 Par ch=1 c=64 v=127
27113 Par ch=1 c=64 v=127
27116 Off ch=1 n=b5 v=64
27155 Off ch=1 n=d5 v=64
27163 Off ch=1 n=b4 v=64
27166 Off ch=1 n=e4 v=64
27171 On ch=1 n=g#5 v=71
27176 Off ch=1 n=c#6 v=64
27244 On ch=1 n=a5 v=74
27244 On ch=1 n=c#5 v=36
27248 On ch=1 n=a4 v=29
27262 Off ch=1 n=g#5 v=64
27307 Off ch=1 n=c#5 v=64
27308 Off ch=1 n=a4 v=64
27381 Par ch=1 c=64 v=0
27384 On ch=1 n=a6 v=66
27384 On ch=1 n=a4 v=42
27384 On ch=1 n=a3 v=46
27385 Par ch=1 c=64 v=0
27395 Par ch=1 c=64 v=127
27399 Par ch=1 c=64 v=127
27409 Off ch=1 n=a5 v=64
27444 Off ch=1 n=a3 v=64
27446 Off ch=1 n=a4 v=64
27518 On ch=1 n=a3 v=55
27522 On ch=1 n=a2 v=58
27581 Off ch=1 n=a6 v=64
27596 On ch=1 n=a#5 v=50
27655 Off ch=1 n=a3 v=64
27659 Off ch=1 n=a2 v=64
27659 Par ch=1 c=64 v=0
27663 Par ch=1 c=64 v=0
27667 On ch=1 n=b5 v=54
27673 On ch=1 n=e3 v=41
27680 On ch=1 n=e4 v=49
27685 Off ch=1 n=a#5 v=64
27695 Par ch=1 c=64 v=127
27699 Par ch=1 c=64 v=127
27767 On ch=1 n=g#5 v=50
27788 Par ch=1 c=64 v=0
27792 Par ch=1 c=64 v=0
27793 Off ch=1 n=b5 v=64
27798 Off ch=1 n=e4 v=64
27808 On ch=1 n=e5 v=50
27813 Off ch=1 n=e3 v=64
27814 On ch=1 n=d5 v=41
27814 On ch=1 n=b4 v=42
27814 On ch=1 n=e4 v=42
27828 Off ch=1 n=g#5 v=64
27828 Par ch=1 c=64 v=127
27832 Par ch=1 c=64 v=127
27848 Off ch=1 n=b4 v=64
27852 Off ch=1 n=d5 v=64
27853 Off ch=1 n=e4 v=64
27936 Par ch=1 c=64 v=0
27940 Par ch=1 c=64 v=0
27948 On ch=1 n=d5 v=37
27953 On ch=1 n=f#5 v=55
27953 On ch=1 n=b4 v=19
27956 On ch=1 n=e4 v=39
27957 Par ch=1 c=64 v=127
27961 Par ch=1 c=64 v=127
27966 Off ch=1 n=e5 v=64
27998 Off ch=1 n=e4 v=64
28000 Off ch=1 n=d5 v=64
28002 Off ch=1 n=b4 v=64
28012 On ch=1 n=g#5 v=62
28029 Off ch=1 n=f#5 v=64
28072 On ch=1 n=c#5 v=33
28074 Par ch=1 c=64 v=0
28076 On ch=1 n=a4 v=27
28078 Par ch=1 c=64 v=0
28083 On ch=1 n=a5 v=62
28091 Off ch=1 n=g#5 v=64
28099 Par ch=1 c=64 v=127
28103 Par ch=1 c=64 v=127
28137 Off ch=1 n=a4 v=64
28144 Off ch=1 n=c#5 v=64
28148 On ch=1 n=c#6 v=62
28180 Off ch=1 n=a5 v=64
28216 Par ch=1 c=64 v=0
28220 Par ch=1 c=64 v=0
28228 On ch=1 n=e6 v=61
28228 On ch=1 n=b4 v=36
28228 On ch=1 n=g#4 v=44
28235 On ch=1 n=e5 v=33
28239 Par ch=1 c=64 v=127
28242 Off ch=1 n=c#6 v=64
28243 Par ch=1 c=64 v=127
28280 Off ch=1 n=g#4 v=64
28284 Off ch=1 n=e5 v=64
28288 Off ch=1 n=b4 v=64
28360 On ch=1 n=e5 v=40
28360 Par ch=1 c=64 v=0
28364 On ch=1 n=b4 v=36
28364 On ch=1 n=g4 v=41
28364 Par ch=1 c=64 v=0
28379 Par ch=1 c=64 v=127
28383 Par ch=1 c=64 v=127
28403 Off ch=1 n=g4 v=64
28409 Off ch=1 n=b4 v=64
28419 Off ch=1 n=e5 v=64
28422 On ch=1 n=f6 v=55
28442 Off ch=1 n=e6 v=64
28505 On ch=1 n=f#6 v=67
28505 On ch=1 n=f#4 v=46
28507 On ch=1 n=e5 v=29
28508 On ch=1 n=c#5 v=36
28524 Off ch=1 n=f6 v=64
28557 Off ch=1 n=f#4 v=64
28564 Off ch=1 n=c#5 v=64
28570 On ch=1 n=a#5 v=63
28574 Off ch=1 n=e5 v=64
28594 Off ch=1 n=f#6 v=64
28629 Par ch=1 c=64 v=0
28633 Par ch=1 c=64 v=0
28638 On ch=1 n=d#5 v=18
28644 On ch=1 n=a4 v=57
28644 On ch=1 n=f#4 v=36
28645 On ch=1 n=b5 v=54
28655 Par ch=1 c=64 v=127
28659 Off ch=1 n=a#5 v=64
28659 Par ch=1 c=64 v=127
28703 Off ch=1 n=f#4 v=64
28707 Off ch=1 n=a4 v=64
28711 Off ch=1 n=d#5 v=64
28773 On ch=1 n=a4 v=19
28773 On ch=1 n=f4 v=36
28780 On ch=1 n=c#6 v=55
28780 On ch=1 n=d5 v=35
28789 Par ch=1 c=64 v=0
28793 Par ch=1 c=64 v=0
28797 Off ch=1 n=b5 v=64
28802 Par ch=1 c=64 v=127
28806 Par ch=1 c=64 v=127
28821 Off ch=1 n=a4 v=64
28826 Off ch=1 n=f4 v=64
28835 Off ch=1 n=d5 v=64
28845 On ch=1 n=d6 v=55
28855 Off ch=1 n=c#6 v=64
28915 On ch=1 n=d5 v=42
28915 On ch=1 n=b4 v=36
28918 On ch=1 n=e4 v=41
28920 Par ch=1 c=64 v=0
28924 On ch=1 n=e6 v=57
28924 Par ch=1 c=64 v=0
28934 Par ch=1 c=64 v=127
28938 Par ch=1 c=64 v=127
28944 Off ch=1 n=d6 v=64
28962 Off ch=1 n=e4 v=64
28962 Off ch=1 n=b4 v=64
28966 Off ch=1 n=d5 v=64
28989 On ch=1 n=g#5 v=62
28996 Off ch=1 n=e6 v=64
29048 Par ch=1 c=64 v=0
29052 Par ch=1 c=64 v=0
29054 On ch=1 n=g4 v=23
29058 On ch=1 n=e4 v=22
29059 On ch=1 n=c#5 v=45
29065 On ch=1 n=a5 v=55
29076 Off ch=1 n=g#5 v=64
29079 Par ch=1 c=64 v=127
29083 Par ch=1 c=64 v=127
29102 Off ch=1 n=g4 v=64
29105 Off ch=1 n=e4 v=64
29112 Off ch=1 n=c#5 v=64
29202 On ch=1 n=b5 v=52
29202 On ch=1 n=g4 v=57
29202 On ch=1 n=d#4 v=49
29209 On ch=1 n=c#5 v=14
29218 Off ch=1 n=a5 v=64
29239 Off ch=1 n=d#4 v=64
29239 Off ch=1 n=g4 v=64
29250 Off ch=1 n=c#5 v=64
29264 On ch=1 n=c#6 v=50
29278 Off ch=1 n=b5 v=64
29294 On ch=1 n=b5 v=55
29314 Off ch=1 n=c#6 v=64
29326 On ch=1 n=c#6 v=56
29341 Par ch=1 c=64 v=0
29345 Par ch=1 c=64 v=0
29350 On ch=1 n=f#4 v=42
29350 On ch=1 n=d4 v=40
29353 On ch=1 n=d5 v=36
29354 Off ch=1 n=b5 v=64
29362 On ch=1 n=b5 v=71
29363 Par ch=1 c=64 v=127
29367 Par ch=1 c=64 v=127
29385 Off ch=1 n=d4 v=64
29389 Off ch=1 n=c#6 v=64
29392 Off ch=1 n=f#4 v=64
29401 Off ch=1 n=d5 v=64
29423 Off ch=1 n=b5 v=64
29454 On ch=1 n=g#5 v=64
29482 On ch=1 n=e5 v=72
29486 On ch=1 n=b4 v=28
29486 On ch=1 n=d4 v=29
29487 On ch=1 n=g#4 v=27
29490 Par ch=1 c=64 v=0
29494 Par ch=1 c=64 v=0
29509 Par ch=1 c=64 v=127
29513 Par ch=1 c=64 v=127
29518 Off ch=1 n=g#5 v=64
29544 Off ch=1 n=d4 v=64
29544 Off ch=1 n=b4 v=64
29545 Off ch=1 n=g#4 v=64
29622 On ch=1 n=b4 v=42
29626 Off ch=1 n=e5 v=64
29626 On ch=1 n=f#5 v=59
29626 On ch=1 n=d4 v=36
29632 On ch=1 n=e4 v=19
29678 Off ch=1 n=b4 v=64
29683 Off ch=1 n=d4 v=64
29686 Off ch=1 n=e4 v=64
29687 On ch=1 n=g#5 v=63
29703 Off ch=1 n=f#5 v=64
29759 On ch=1 n=a5 v=66
29768 On ch=1 n=c#5 v=46
29769 Off ch=1 n=g#5 v=64
29770 On ch=1 n=e4 v=29
29770 On ch=1 n=c#4 v=35
29821 On ch=1 n=c#6 v=62
29830 Off ch=1 n=c#4 v=64
29831 Off ch=1 n=e4 v=64
29831 Off ch=1 n=a5 v=64
29836 Off ch=1 n=c#5 v=64
29906 On ch=1 n=a4 v=49
29906 On ch=1 n=c#4 v=42
29908 On ch=1 n=e6 v=58
29910 On ch=1 n=e4 v=19
29916 Off ch=1 n=c#6 v=64
29965 Off ch=1 n=c#4 v=64
29965 Off ch=1 n=a4 v=64
29969 Off ch=1 n=e4 v=64
30050 On ch=1 n=a4 v=39
30054 On ch=1 n=e4 v=40
30056 On ch=1 n=c4 v=40
30065 Par ch=1 c=64 v=0
30069 Par ch=1 c=64 v=0
30076 Par ch=1 c=64 v=127
30080 Par ch=1 c=64 v=127
30100 Off ch=1 n=a4 v=64
30101 Off ch=1 n=e4 v=64
30112 Off ch=1 n=c4 v=64
30112 On ch=1 n=f6 v=58
30138 Off ch=1 n=e6 v=64
30194 On ch=1 n=f#6 v=67
30195 On ch=1 n=d#4 v=29
30200 On ch=1 n=a4 v=37
30202 On ch=1 n=b3 v=36
30207 Par ch=1 c=64 v=0
30211 Par ch=1 c=64 v=0
30214 Off ch=1 n=f6 v=64
30220 Par ch=1 c=64 v=127
30224 Par ch=1 c=64 v=127
30262 On ch=1 n=a#5 v=52
30282 Off ch=1 n=f#6 v=64
30285 Off ch=1 n=a4 v=64
30295 Off ch=1 n=b3 v=64
30301 Off ch=1 n=d#4 v=64
30336 On ch=1 n=e3 v=42
30339 On ch=1 n=b5 v=57
30341 Par ch=1 c=64 v=0
30345 Par ch=1 c=64 v=0
30354 Off ch=1 n=a#5 v=64
30364 Par ch=1 c=64 v=127
30368 Par ch=1 c=64 v=127
30485 On ch=1 n=d5 v=36
30485 On ch=1 n=e4 v=40
30491 Par ch=1 c=64 v=0
30491 On ch=1 n=b4 v=41
30492 On ch=1 n=c#6 v=55
30494 Off ch=1 n=e3 v=64
30495 Par ch=1 c=64 v=0
30504 Off ch=1 n=b5 v=64
30507 Par ch=1 c=64 v=127
30511 Par ch=1 c=64 v=127
30526 Off ch=1 n=d5 v=64
30529 Off ch=1 n=b4 v=64
30539 Off ch=1 n=e4 v=64
30550 On ch=1 n=g#5 v=52
30567 Off ch=1 n=c#6 v=64
30622 On ch=1 n=a4 v=42
30623 Par ch=1 c=64 v=0
30626 On ch=1 n=c#5 v=45
30627 Par ch=1 c=64 v=0
30634 On ch=1 n=a5 v=63
30650 Off ch=1 n=g#5 v=64
30651 Par ch=1 c=64 v=127
30655 Par ch=1 c=64 v=127
30677 Off ch=1 n=c#5 v=64
30680 Off ch=1 n=a4 v=64
30746 Par ch=1 c=64 v=0
30750 Par ch=1 c=64 v=0
30770 On ch=1 n=a6 v=62
30772 Par ch=1 c=64 v=127
30776 Par ch=1 c=64 v=127
30782 On ch=1 n=e5 v=40
30782 On ch=1 n=a4 v=55
30841 Off ch=1 n=a6 v=64
30844 Off ch=1 n=a4 v=64
30844 Off ch=1 n=e5 v=64
30897 Off ch=1 n=a5 v=64
30914 On ch=1 n=a4 v=66
30918 On ch=1 n=e5 v=63
30970 Off ch=1 n=e5 v=64
30982 Off ch=1 n=a4 v=64
31053 Par ch=1 c=64 v=0
31057 Par ch=1 c=64 v=0
31068 On ch=1 n=f#4 v=84
31075 On ch=1 n=a4 v=50
31080 On ch=1 n=e5 v=49
31087 Par ch=1 c=64 v=127
31091 Par ch=1 c=64 v=127
31115 Off ch=1 n=e5 v=64
31131 Off ch=1 n=a4 v=64
31136 Off ch=1 n=f#4 v=64
31138 On ch=1 n=e4 v=61
31180 Par ch=1 c=64 v=0
31184 Par ch=1 c=64 v=0
31198 On ch=1 n=d4 v=66
31205 Off ch=1 n=e4 v=64
31205 On ch=1 n=a4 v=44
31206 On ch=1 n=e5 v=52
31242 Off ch=1 n=e5 v=64
31242 Off ch=1 n=d4 v=64
31249 Off ch=1 n=a4 v=64
31339 On ch=1 n=c#4 v=83
31347 On ch=1 n=e5 v=63
31347 On ch=1 n=a4 v=61
31373 Off ch=1 n=a4 v=64
31378 Off ch=1 n=c#4 v=64
31380 Off ch=1 n=e5 v=64
31441 On ch=1 n=c#4 v=70
31462 On ch=1 n=b3 v=70
31480 Off ch=1 n=c#4 v=64
31491 On ch=1 n=a4 v=48
31493 On ch=1 n=e5 v=48
31496 On ch=1 n=a3 v=63
31510 Off ch=1 n=b3 v=64
31531 Off ch=1 n=e5 v=64
31531 Off ch=1 n=a4 v=64
31615 Par ch=1 c=64 v=127
31619 Par ch=1 c=64 v=127
31624 On ch=1 n=a4 v=42
31634 On ch=1 n=e5 v=28
31680 Off ch=1 n=e5 v=64
31681 Off ch=1 n=a4 v=64
31735 Off ch=1 n=a3 v=64
31765 On ch=1 n=e5 v=63
31768 On ch=1 n=a4 v=66
31816 Off ch=1 n=e5 v=64
31818 Off ch=1 n=a4 v=64
31887 On ch=1 n=f#4 v=74
31894 On ch=1 n=a4 v=53
31897 On ch=1 n=e5 v=46
31907 Par ch=1 c=64 v=0
31911 Par ch=1 c=64 v=0
31946 Off ch=1 n=e5 v=64
31954 Off ch=1 n=a4 v=64
31992 On ch=1 n=e4 v=63
32011 Off ch=1 n=f#4 v=64
32021 On ch=1 n=e5 v=46
32021 On ch=1 n=a4 v=50
32031 On ch=1 n=d4 v=65
32040 Off ch=1 n=e4 v=64
32070 Off ch=1 n=e5 v=64
32071 Off ch=1 n=a4 v=64
32073 Off ch=1 n=d4 v=64
32154 On ch=1 n=a4 v=65
32154 On ch=1 n=c#4 v=83
32158 On ch=1 n=e5 v=50
32191 Off ch=1 n=c#4 v=64
32198 Off ch=1 n=e5 v=64
32198 Off ch=1 n=a4 v=64
32252 On ch=1 n=c#4 v=66
32276 On ch=1 n=b3 v=68
32297 On ch=1 n=a4 v=46
32304 Off ch=1 n=c#4 v=64
32305 On ch=1 n=a3 v=61
32309 On ch=1 n=e5 v=32
32325 Off ch=1 n=b3 v=64
32352 Par ch=1 c=64 v=127
32356 Par ch=1 c=64 v=127
32361 Off ch=1 n=e5 v=64
32367 Off ch=1 n=a4 v=64
32379 Par ch=1 c=64 v=0
32383 Par ch=1 c=64 v=0
32415 Par ch=1 c=64 v=127
32419 Par ch=1 c=64 v=127
32437 On ch=1 n=e5 v=54
32441 On ch=1 n=a4 v=57
32501 Off ch=1 n=e5 v=64
32505 Off ch=1 n=a4 v=64
32570 On ch=1 n=e5 v=79
32570 On ch=1 n=a4 v=80
32638 Off ch=1 n=a4 v=64
32638 Off ch=1 n=e5 v=64
32686 Off ch=1 n=a3 v=64
32719 On ch=1 n=b4 v=83
32721 On ch=1 n=g#4 v=101
32726 On ch=1 n=e3 v=66
32758 Off ch=1 n=b4 v=64
32776 Off ch=1 n=g#4 v=64
32815 On ch=1 n=e5 v=80
32815 On ch=1 n=b4 v=67
32841 Off ch=1 n=e5 v=64
32847 Off ch=1 n=b4 v=64
32851 On ch=1 n=e5 v=74
32856 On ch=1 n=g#5 v=102
32859 On ch=1 n=b4 v=63
32859 On ch=1 n=e4 v=71
32890 Off ch=1 n=b4 v=64
32901 Off ch=1 n=e4 v=64
32919 Off ch=1 n=g#5 v=64
32920 Off ch=1 n=e5 v=64
32992 On ch=1 n=b5 v=117
32994 On ch=1 n=b4 v=58
32995 On ch=1 n=g#5 v=92
32996 On ch=1 n=e4 v=53
33035 Off ch=1 n=b4 v=64
33045 Off ch=1 n=e4 v=64
33045 Off ch=1 n=b5 v=64
33057 Off ch=1 n=g#5 v=64
33116 Par ch=1 c=64 v=0
33116 On ch=1 n=e6 v=100
33117 On ch=1 n=b5 v=96
33120 Par ch=1 c=64 v=0
33127 On ch=1 n=b4 v=61
33131 On ch=1 n=e4 v=74
33139 Par ch=1 c=64 v=127
33143 Par ch=1 c=64 v=127
33166 Off ch=1 n=b5 v=64
33166 Off ch=1 n=e6 v=64
33170 Off ch=1 n=b4 v=64
33179 Off ch=1 n=e4 v=64
33224 On ch=1 n=g#5 v=72
33224 On ch=1 n=e5 v=74
33234 Off ch=1 n=e3 v=64
33244 Par ch=1 c=64 v=0
33247 Off ch=1 n=e5 v=64
33247 Off ch=1 n=g#5 v=64
33248 Par ch=1 c=64 v=0
33258 On ch=1 n=g#5 v=76
33258 On ch=1 n=b4 v=63
33258 On ch=1 n=e4 v=65
33261 On ch=1 n=b5 v=119
33270 Par ch=1 c=64 v=127
33274 Par ch=1 c=64 v=127
33317 Off ch=1 n=e4 v=64
33318 Off ch=1 n=b4 v=64
33327 Off ch=1 n=g#5 v=64
33331 Off ch=1 n=b5 v=64
33384 On ch=1 n=e6 v=111
33386 On ch=1 n=b5 v=105
33386 On ch=1 n=b4 v=63
33390 On ch=1 n=e4 v=52
33446 Off ch=1 n=e4 v=64
33446 Off ch=1 n=b4 v=64
33461 Off ch=1 n=e6 v=64
33463 Off ch=1 n=b5 v=64
33526 On ch=1 n=d#5 v=44
33528 On ch=1 n=d#6 v=82
33528 On ch=1 n=e4 v=37
33530 On ch=1 n=f#6 v=92
33530 On ch=1 n=b4 v=40
33530 On ch=1 n=a4 v=41
33559 On ch=1 n=g#6 v=74
33563 Off ch=1 n=b4 v=64
33565 Off ch=1 n=d#5 v=64
33576 Off ch=1 n=f#6 v=64
33577 Off ch=1 n=a4 v=64
33583 Off ch=1 n=e4 v=64
33603 On ch=1 n=f#6 v=82
33613 Off ch=1 n=g#6 v=64
33664 On ch=1 n=e4 v=42
33670 On ch=1 n=b4 v=41
33671 On ch=1 n=d#5 v=44
33673 On ch=1 n=a4 v=42
33677 On ch=1 n=f6 v=92
33677 On ch=1 n=d6 v=93
33685 Off ch=1 n=d#6 v=64
33689 Off ch=1 n=f#6 v=64
33707 Off ch=1 n=b4 v=64
33710 Off ch=1 n=d#5 v=64
33715 Off ch=1 n=a4 v=64
33716 Off ch=1 n=e4 v=64
33754 On ch=1 n=d#6 v=98
33756 On ch=1 n=f#6 v=92
33762 Off ch=1 n=d6 v=64
33762 Off ch=1 n=f6 v=64
33814 On ch=1 n=e6 v=100
33814 On ch=1 n=d#5 v=49
33814 On ch=1 n=b4 v=70
33814 On ch=1 n=e4 v=46
33818 On ch=1 n=g#6 v=106
33818 On ch=1 n=a4 v=62
33837 Off ch=1 n=b4 v=64
33838 Off ch=1 n=a4 v=64
33842 Off ch=1 n=d#6 v=64
33844 Off ch=1 n=f#6 v=64
33854 Off ch=1 n=e4 v=64
33889 Off ch=1 n=d#5 v=64
33890 On ch=1 n=f#6 v=80
33892 On ch=1 n=a6 v=106
33895 Off ch=1 n=e6 v=64
33901 Off ch=1 n=g#6 v=64
33943 Off ch=1 n=a6 v=64
33955 Par ch=1 c=64 v=0
33958 On ch=1 n=a6 v=102
33959 Par ch=1 c=64 v=0
33964 On ch=1 n=c#7 v=108
33969 On ch=1 n=b4 v=57
33969 On ch=1 n=g#4 v=44
33970 Off ch=1 n=f#6 v=64
33970 On ch=1 n=e5 v=66
33970 On ch=1 n=e4 v=52
33984 Par ch=1 c=64 v=127
33988 Par ch=1 c=64 v=127
33998 Off ch=1 n=b4 v=64
34001 Off ch=1 n=e5 v=64
34001 Off ch=1 n=g#4 v=64
34011 Off ch=1 n=e4 v=64
34063 On ch=1 n=b6 v=95
34063 On ch=1 n=g#6 v=67
34066 Off ch=1 n=a6 v=64
34072 Off ch=1 n=c#7 v=64
34076 Par ch=1 c=64 v=0
34080 Par ch=1 c=64 v=0
34095 Off ch=1 n=g#6 v=64
34099 On ch=1 n=g#6 v=117
34099 On ch=1 n=e5 v=71
34099 On ch=1 n=b4 v=70
34100 On ch=1 n=g#4 v=72
34103 On ch=1 n=e6 v=85
34109 On ch=1 n=e4 v=72
34115 Off ch=1 n=b4 v=64
34118 Off ch=1 n=b6 v=64
34119 Par ch=1 c=64 v=127
34123 Par ch=1 c=64 v=127
34129 Off ch=1 n=e5 v=64
34133 Off ch=1 n=g#4 v=64
34136 Off ch=1 n=e4 v=64
34231 On ch=1 n=g#4 v=40
34231 On ch=1 n=e4 v=49
34232 On ch=1 n=e5 v=76
34235 On ch=1 n=b4 v=75
34251 Off ch=1 n=b4 v=64
34273 Off ch=1 n=g#4 v=64
34281 Off ch=1 n=e5 v=64
34283 Off ch=1 n=e4 v=64
34347 Par ch=1 c=64 v=0
34351 Par ch=1 c=64 v=0
34365 On ch=1 n=f#6 v=86
34367 On ch=1 n=d#6 v=63
34371 Par ch=1 c=64 v=127
34373 Off ch=1 n=g#6 v=64
34373 On ch=1 n=e4 v=27
34375 Par ch=1 c=64 v=127
34377 Off ch=1 n=e6 v=64
34379 On ch=1 n=b4 v=40
34379 On ch=1 n=a4 v=32
34383 On ch=1 n=d#5 v=33
34395 Off ch=1 n=b4 v=64
34401 On ch=1 n=g#6 v=80
34408 Off ch=1 n=a4 v=64
34416 Off ch=1 n=f#6 v=64
34419 Off ch=1 n=d#5 v=64
34420 Off ch=1 n=e4 v=64
34441 On ch=1 n=f#6 v=80
34451 Off ch=1 n=g#6 v=64
34499 On ch=1 n=d#5 v=44
34504 On ch=1 n=f6 v=90
34504 On ch=1 n=d6 v=93
34507 On ch=1 n=b4 v=42
34507 On ch=1 n=a4 v=41
34508 On ch=1 n=e4 v=54
34517 Off ch=1 n=f#6 v=64
34519 Off ch=1 n=d#6 v=64
34538 Off ch=1 n=b4 v=64
34539 Off ch=1 n=e4 v=64
34542 Off ch=1 n=d#5 v=64
34543 Off ch=1 n=a4 v=64
34569 On ch=1 n=d#6 v=92
34575 On ch=1 n=f#6 v=105
34579 Off ch=1 n=d6 v=64
34582 Off ch=1 n=f6 v=64
34641 On ch=1 n=g#6 v=105
34646 On ch=1 n=d#5 v=48
34649 On ch=1 n=e6 v=92
34656 On ch=1 n=a4 v=44
34656 On ch=1 n=e4 v=55
34662 Off ch=1 n=d#6 v=64
34666 On ch=1 n=b4 v=36
34668 Off ch=1 n=f#6 v=64
34672 Off ch=1 n=e4 v=64
34682 Off ch=1 n=b4 v=64
34686 Off ch=1 n=a4 v=64
34705 On ch=1 n=f#6 v=96
34707 Off ch=1 n=d#5 v=64
34707 On ch=1 n=a6 v=90
34711 Off ch=1 n=g#6 v=64
34719 Off ch=1 n=e6 v=64
34763 Off ch=1 n=a6 v=64
34764 Par ch=1 c=64 v=0
34768 Par ch=1 c=64 v=0
34769 On ch=1 n=a6 v=102
34772 Off ch=1 n=f#6 v=64
34775 On ch=1 n=c#7 v=110
34775 On ch=1 n=b4 v=58
34777 On ch=1 n=e5 v=67
34777 On ch=1 n=g#4 v=58
34783 On ch=1 n=e4 v=65
34787 Par ch=1 c=64 v=127
34791 Par ch=1 c=64 v=127
34810 Off ch=1 n=g#4 v=64
34813 Off ch=1 n=e5 v=64
34813 Off ch=1 n=b4 v=64
34820 Off ch=1 n=e4 v=64
34881 On ch=1 n=g#6 v=83
34882 On ch=1 n=b6 v=67
34896 Off ch=1 n=a6 v=64
34902 Off ch=1 n=c#7 v=64
34918 Off ch=1 n=g#6 v=64
34925 On ch=1 n=g#6 v=94
34925 On ch=1 n=e6 v=78
34935 Off ch=1 n=b6 v=64
34944 On ch=1 n=b4 v=55
34945 On ch=1 n=e5 v=46
34948 On ch=1 n=g#4 v=27
34949 On ch=1 n=e4 v=72
34965 Off ch=1 n=e4 v=64
34973 Off ch=1 n=g#4 v=64
34974 Off ch=1 n=b4 v=64
34985 Off ch=1 n=e5 v=64
35047 On ch=1 n=g#4 v=58
35052 On ch=1 n=b4 v=46
35053 On ch=1 n=e4 v=67
35057 On ch=1 n=e5 v=84
35076 Off ch=1 n=b4 v=64
35085 Off ch=1 n=e5 v=64
35085 Off ch=1 n=e4 v=64
35087 Off ch=1 n=g#4 v=64
35157 Par ch=1 c=64 v=0
35161 Par ch=1 c=64 v=0
35175 On ch=1 n=f#6 v=85
35176 On ch=1 n=f#3 v=92
35183 On ch=1 n=d#6 v=81
35199 Off ch=1 n=e6 v=64
35199 Off ch=1 n=g#6 v=64
35200 Par ch=1 c=64 v=127
35204 Par ch=1 c=64 v=127
35229 Off ch=1 n=d#6 v=64
35249 Off ch=1 n=f#6 v=64
35273 On ch=1 n=c#6 v=80
35276 On ch=1 n=e6 v=81
35292 Par ch=1 c=64 v=0
35296 Par ch=1 c=64 v=0
35306 Off ch=1 n=c#6 v=64
35317 On ch=1 n=f#4 v=68
35318 On ch=1 n=c#5 v=74
35322 On ch=1 n=c#6 v=66
35325 On ch=1 n=f#5 v=98
35325 On ch=1 n=e5 v=71
35331 Par ch=1 c=64 v=127
35335 Par ch=1 c=64 v=127
35356 Off ch=1 n=f#4 v=64
35362 Off ch=1 n=e6 v=64
35364 Off ch=1 n=c#5 v=64
35369 Off ch=1 n=e5 v=64
35444 Off ch=1 n=f#3 v=64
35448 On ch=1 n=c#5 v=81
35452 On ch=1 n=e5 v=79
35452 On ch=1 n=f#4 v=83
35483 Off ch=1 n=e5 v=64
35483 Off ch=1 n=c#5 v=64
35491 Off ch=1 n=f#4 v=64
35576 Par ch=1 c=64 v=0
35580 On ch=1 n=d#6 v=88
35580 Par ch=1 c=64 v=0
35582 On ch=1 n=b5 v=74
35589 On ch=1 n=b3 v=74
35590 On ch=1 n=b4 v=74
35590 On ch=1 n=f#4 v=74
35596 Off ch=1 n=c#6 v=64
35599 Off ch=1 n=f#5 v=64
35599 Par ch=1 c=64 v=127
35603 Par ch=1 c=64 v=127
35625 Off ch=1 n=b4 v=64
35635 Off ch=1 n=f#4 v=64
35635 Off ch=1 n=b3 v=64
35639 Off ch=1 n=b5 v=64
35674 Off ch=1 n=d#6 v=64
35702 On ch=1 n=f#5 v=67
35706 On ch=1 n=b5 v=66
35713 Par ch=1 c=64 v=0
35717 Par ch=1 c=64 v=0
35731 On ch=1 n=f#4 v=72
35731 Par ch=1 c=64 v=127
35731 On ch=1 n=b3 v=80
35735 On ch=1 n=b4 v=88
35735 Par ch=1 c=64 v=127
35777 Off ch=1 n=b3 v=64
35777 Off ch=1 n=f#4 v=64
35781 Off ch=1 n=f#5 v=64
35845 Par ch=1 c=64 v=0
35849 Par ch=1 c=64 v=0
35868 On ch=1 n=f#4 v=75
35868 On ch=1 n=b3 v=68
35873 Par ch=1 c=64 v=127
35877 Par ch=1 c=64 v=127
35917 Off ch=1 n=f#4 v=64
35922 Off ch=1 n=b3 v=64
35974 Off ch=1 n=b4 v=64
35978 Off ch=1 n=b5 v=64
36005 On ch=1 n=g#3 v=85
36008 On ch=1 n=b3 v=58
36012 On ch=1 n=f#4 v=63
36021 Par ch=1 c=64 v=0
36025 Par ch=1 c=64 v=0
36031 Par ch=1 c=64 v=127
36035 Par ch=1 c=64 v=127
36057 Off ch=1 n=f#4 v=64
36065 Off ch=1 n=b3 v=64
36065 On ch=1 n=f#3 v=83
36073 Par ch=1 c=64 v=0
36077 Par ch=1 c=64 v=0
36088 Off ch=1 n=g#3 v=64
36124 On ch=1 n=e3 v=80
36134 Off ch=1 n=f#3 v=64
36139 On ch=1 n=f#4 v=70
36142 On ch=1 n=b3 v=63
36172 Off ch=1 n=e3 v=64
36178 Off ch=1 n=b3 v=64
36178 Off ch=1 n=f#4 v=64
36263 On ch=1 n=d#3 v=89
36270 On ch=1 n=f#4 v=88
36270 On ch=1 n=b3 v=80
36301 Off ch=1 n=f#4 v=64
36305 Off ch=1 n=d#3 v=64
36306 Off ch=1 n=b3 v=64
36368 On ch=1 n=d#3 v=88
36384 On ch=1 n=c#3 v=92
36401 Off ch=1 n=d#3 v=64
36406 On ch=1 n=b3 v=66
36408 On ch=1 n=f#4 v=70
36417 On ch=1 n=b2 v=101
36429 Off ch=1 n=c#3 v=64
36450 Off ch=1 n=f#4 v=64
36453 Off ch=1 n=b3 v=64
36539 Par ch=1 c=64 v=127
36542 On ch=1 n=f#4 v=70
36543 Par ch=1 c=64 v=127
36549 On ch=1 n=b3 v=61
36594 Off ch=1 n=f#4 v=64
36596 Off ch=1 n=b3 v=64
36610 Off ch=1 n=b2 v=64
36671 On ch=1 n=f#4 v=81
36675 On ch=1 n=b3 v=78
36719 Off ch=1 n=f#4 v=64
36723 Off ch=1 n=b3 v=64
36797 On ch=1 n=g#3 v=89
36803 On ch=1 n=f#4 v=55
36808 On ch=1 n=b3 v=63
36814 Par ch=1 c=64 v=0
36818 Par ch=1 c=64 v=0
36857 Off ch=1 n=f#4 v=64
36862 Off ch=1 n=b3 v=64
36903 On ch=1 n=f#3 v=67
36928 Off ch=1 n=g#3 v=64
36939 On ch=1 n=f#4 v=58
36942 On ch=1 n=b3 v=59
36944 On ch=1 n=e3 v=88
36958 Off ch=1 n=f#3 v=64
36980 Off ch=1 n=f#4 v=64
36985 Off ch=1 n=e3 v=64
36985 Off ch=1 n=b3 v=64
37069 On ch=1 n=d#3 v=102
37076 On ch=1 n=f#4 v=92
37076 On ch=1 n=b3 v=83
37109 Off ch=1 n=d#3 v=64
37114 Off ch=1 n=f#4 v=64
37115 Off ch=1 n=b3 v=64
37170 On ch=1 n=d#3 v=94
37190 On ch=1 n=c#3 v=92
37211 Off ch=1 n=d#3 v=64
37213 On ch=1 n=b3 v=67
37213 On ch=1 n=b2 v=102
37219 On ch=1 n=f#4 v=71
37236 Off ch=1 n=c#3 v=64
37265 Off ch=1 n=f#4 v=64
37268 Off ch=1 n=b3 v=64
37342 On ch=1 n=f#4 v=70
37351 Off ch=1 n=b2 v=64
37351 On ch=1 n=b3 v=66
37359 Par ch=1 c=64 v=127
37363 Par ch=1 c=64 v=127
37396 Off ch=1 n=b3 v=64
37402 Off ch=1 n=f#4 v=64
37478 On ch=1 n=b3 v=89
37479 On ch=1 n=f#4 v=102
37515 Off ch=1 n=f#4 v=64
37518 Off ch=1 n=b3 v=64
37600 On ch=1 n=b4 v=88
37602 On ch=1 n=g#4 v=102
37612 On ch=1 n=e3 v=70
37614 Par ch=1 c=64 v=0
37618 Par ch=1 c=64 v=0
37625 Par ch=1 c=64 v=127
37629 Par ch=1 c=64 v=127
37637 Off ch=1 n=b4 v=64
37643 Off ch=1 n=g#4 v=64
37687 On ch=1 n=b4 v=81
37693 On ch=1 n=e5 v=67
37738 Off ch=1 n=b4 v=64
37740 On ch=1 n=g#5 v=105
37744 Off ch=1 n=e5 v=64
37747 On ch=1 n=e5 v=93
37750 On ch=1 n=e4 v=72
37751 On ch=1 n=b4 v=61
37786 Off ch=1 n=e4 v=64
37788 Off ch=1 n=b4 v=64
37806 Off ch=1 n=g#5 v=64
37816 Off ch=1 n=e5 v=64
37855 Par ch=1 c=64 v=0
37859 Par ch=1 c=64 v=0
37875 On ch=1 n=g#5 v=87
37877 On ch=1 n=b5 v=100
37880 On ch=1 n=b4 v=74
37884 On ch=1 n=e4 v=71
37896 Par ch=1 c=64 v=127
37900 Par ch=1 c=64 v=127
37933 Off ch=1 n=b4 v=64
37933 Off ch=1 n=b5 v=64
37937 Off ch=1 n=e4 v=64
37943 Off ch=1 n=g#5 v=64
38003 On ch=1 n=b5 v=92
38010 Par ch=1 c=64 v=0
38011 On ch=1 n=e6 v=106
38012 On ch=1 n=b4 v=72
38014 Par ch=1 c=64 v=0
38019 On ch=1 n=e4 v=72
38025 Par ch=1 c=64 v=127
38029 Par ch=1 c=64 v=127
38061 Off ch=1 n=b4 v=64
38061 Off ch=1 n=b5 v=64
38065 Off ch=1 n=e4 v=64
38069 Off ch=1 n=e6 v=64
38111 On ch=1 n=g#5 v=95
38111 On ch=1 n=e5 v=81
38126 Off ch=1 n=e3 v=64
38137 Par ch=1 c=64 v=0
38139 Off ch=1 n=e5 v=64
38139 Off ch=1 n=g#5 v=64
38141 Par ch=1 c=64 v=0
38147 On ch=1 n=e4 v=70
38150 On ch=1 n=b5 v=105
38150 On ch=1 n=b4 v=71
38151 On ch=1 n=g#5 v=92
38155 Par ch=1 c=64 v=127
38159 Par ch=1 c=64 v=127
38201 Off ch=1 n=b4 v=64
38206 Off ch=1 n=e4 v=64
38213 Off ch=1 n=b5 v=64
38223 Off ch=1 n=g#5 v=64
38267 Par ch=1 c=64 v=0
38271 Par ch=1 c=64 v=0
38279 On ch=1 n=e6 v=104
38279 On ch=1 n=b5 v=86
38281 On ch=1 n=b4 v=62
38281 On ch=1 n=e4 v=62
38283 On ch=1 n=g#4 v=71
38287 Par ch=1 c=64 v=127
38290 On ch=1 n=e5 v=68
38291 Par ch=1 c=64 v=127
38327 Off ch=1 n=e5 v=64
38335 Off ch=1 n=g#4 v=64
38338 Off ch=1 n=b4 v=64
38339 Off ch=1 n=e4 v=64
38345 Off ch=1 n=b5 v=64
38345 Off ch=1 n=e6 v=64
38405 On ch=1 n=f#6 v=91
38407 On ch=1 n=d#6 v=83
38412 On ch=1 n=e4 v=40
38419 On ch=1 n=d#5 v=46
38421 On ch=1 n=a4 v=42
38422 On ch=1 n=b4 v=44
38432 On ch=1 n=g#6 v=83
38450 Off ch=1 n=f#6 v=64
38464 Off ch=1 n=b4 v=64
38465 Off ch=1 n=d#5 v=64
38470 Off ch=1 n=a4 v=64
38473 Off ch=1 n=e4 v=64
38478 On ch=1 n=f#6 v=75
38484 Off ch=1 n=g#6 v=64
38532 On ch=1 n=f6 v=81
38536 On ch=1 n=d6 v=83
38545 Off ch=1 n=d#6 v=64
38545 On ch=1 n=d#5 v=54
38545 On ch=1 n=e4 v=35
38547 Off ch=1 n=f#6 v=64
38549 On ch=1 n=b4 v=46
38549 On ch=1 n=a4 v=45
38580 Off ch=1 n=b4 v=64
38582 Off ch=1 n=d#5 v=64
38585 Off ch=1 n=a4 v=64
38586 Off ch=1 n=e4 v=64
38607 On ch=1 n=d#6 v=83
38611 Off ch=1 n=f6 v=64
38611 On ch=1 n=f#6 v=96
38615 Off ch=1 n=d6 v=64
38680 On ch=1 n=g#6 v=84
38680 On ch=1 n=e6 v=81
38684 On ch=1 n=d#5 v=62
38686 Off ch=1 n=d#6 v=64
38690 Off ch=1 n=f#6 v=64
38690 On ch=1 n=a4 v=54
38694 On ch=1 n=e4 v=42
38698 On ch=1 n=b4 v=48
38721 Off ch=1 n=b4 v=64
38728 Off ch=1 n=e4 v=64
38728 Off ch=1 n=a4 v=64
38729 Off ch=1 n=d#5 v=64
38750 On ch=1 n=a6 v=88
38755 Off ch=1 n=e6 v=64
38758 On ch=1 n=f#6 v=79
38763 Off ch=1 n=g#6 v=64
38794 Par ch=1 c=64 v=0
38798 Par ch=1 c=64 v=0
38801 Off ch=1 n=a6 v=64
38820 On ch=1 n=c#7 v=100
38820 On ch=1 n=a6 v=88
38823 On ch=1 n=g#4 v=48
38827 On ch=1 n=b4 v=54
38827 On ch=1 n=e4 v=54
38828 On ch=1 n=e5 v=67
38829 Off ch=1 n=f#6 v=64
38843 Par ch=1 c=64 v=127
38847 Par ch=1 c=64 v=127
38863 Off ch=1 n=g#4 v=64
38867 Off ch=1 n=e5 v=64
38870 Off ch=1 n=e4 v=64
38870 Off ch=1 n=b4 v=64
38923 Off ch=1 n=a6 v=64
38923 Off ch=1 n=c#7 v=64
38925 On ch=1 n=b6 v=92
38928 On ch=1 n=g#6 v=74
38942 Par ch=1 c=64 v=0
38946 Par ch=1 c=64 v=0
38948 Off ch=1 n=g#6 v=64
38960 On ch=1 n=g#4 v=67
38963 On ch=1 n=g#6 v=101
38964 On ch=1 n=e6 v=81
38969 On ch=1 n=e5 v=66
38971 On ch=1 n=e4 v=63
38975 On ch=1 n=b4 v=48
38980 Par ch=1 c=64 v=127
38984 Par ch=1 c=64 v=127
38991 Off ch=1 n=b6 v=64
39003 Off ch=1 n=e5 v=64
39004 Off ch=1 n=g#4 v=64
39007 Off ch=1 n=e4 v=64
39013 Off ch=1 n=b4 v=64
39088 On ch=1 n=e4 v=61
39091 On ch=1 n=e5 v=75
39091 On ch=1 n=g#4 v=65
39100 On ch=1 n=b4 v=67
39135 Off ch=1 n=e5 v=64
39142 Off ch=1 n=b4 v=64
39142 Off ch=1 n=g#4 v=64
39144 Off ch=1 n=e4 v=64
39207 Par ch=1 c=64 v=0
39211 Par ch=1 c=64 v=0
39218 On ch=1 n=f#6 v=71
39224 On ch=1 n=d#6 v=62
39226 On ch=1 n=e4 v=26
39232 Par ch=1 c=64 v=127
39236 Par ch=1 c=64 v=127
39237 Off ch=1 n=g#6 v=64
39238 Off ch=1 n=e6 v=64
39242 On ch=1 n=d#5 v=41
39242 On ch=1 n=b4 v=35
39243 On ch=1 n=a4 v=39
39258 On ch=1 n=g#6 v=72
39272 Off ch=1 n=b4 v=64
39275 Off ch=1 n=a4 v=64
39276 Off ch=1 n=f#6 v=64
39278 Off ch=1 n=d#5 v=64
39280 Off ch=1 n=e4 v=64
39301 On ch=1 n=f#6 v=67
39310 Off ch=1 n=g#6 v=64
39352 On ch=1 n=f6 v=79
39354 On ch=1 n=d6 v=84
39364 On ch=1 n=d#5 v=48
39364 On ch=1 n=a4 v=41
39365 Off ch=1 n=d#6 v=64
39368 On ch=1 n=e4 v=48
39370 On ch=1 n=b4 v=41
39373 Off ch=1 n=f#6 v=64
39392 Off ch=1 n=e4 v=64
39394 Off ch=1 n=b4 v=64
39397 Off ch=1 n=d#5 v=64
39400 Off ch=1 n=a4 v=64
39424 On ch=1 n=d#6 v=85
39427 Off ch=1 n=f6 v=64
39429 Off ch=1 n=d6 v=64
39430 On ch=1 n=f#6 v=89
39501 On ch=1 n=g#6 v=87
39501 On ch=1 n=d#5 v=48
39508 Off ch=1 n=d#6 v=64
39508 On ch=1 n=e6 v=78
39512 On ch=1 n=a4 v=41
39514 Off ch=1 n=f#6 v=64
39516 On ch=1 n=b4 v=45
39521 On ch=1 n=e4 v=27
39539 Off ch=1 n=b4 v=64
39539 Off ch=1 n=a4 v=64
39544 Off ch=1 n=e4 v=64
39545 Off ch=1 n=d#5 v=64
39568 On ch=1 n=a6 v=89
39574 On ch=1 n=f#6 v=83
39581 Off ch=1 n=g#6 v=64
39588 Off ch=1 n=e6 v=64
39647 Par ch=1 c=64 v=0
39648 Off ch=1 n=a6 v=64
39651 On ch=1 n=c#7 v=100
39651 Par ch=1 c=64 v=0
39652 On ch=1 n=a6 v=89
39658 On ch=1 n=e5 v=67
39658 On ch=1 n=g#4 v=58
39661 On ch=1 n=b4 v=53
39661 On ch=1 n=e4 v=52
39662 Off ch=1 n=f#6 v=64
39670 Par ch=1 c=64 v=127
39674 Par ch=1 c=64 v=127
39684 Off ch=1 n=g#4 v=64
39690 Off ch=1 n=b4 v=64
39693 Off ch=1 n=e5 v=64
39702 Off ch=1 n=e4 v=64
39757 On ch=1 n=b6 v=80
39757 On ch=1 n=g#6 v=80
39762 Off ch=1 n=c#7 v=64
39763 Off ch=1 n=a6 v=64
39767 Par ch=1 c=64 v=0
39771 Par ch=1 c=64 v=0
39793 Off ch=1 n=g#6 v=64
39795 Par ch=1 c=64 v=127
39797 On ch=1 n=g#6 v=96
39799 Par ch=1 c=64 v=127
39805 On ch=1 n=e6 v=59
39807 On ch=1 n=g#4 v=62
39809 On ch=1 n=b4 v=71
39814 On ch=1 n=e4 v=61
39815 On ch=1 n=e5 v=62
39833 Off ch=1 n=b6 v=64
39842 Off ch=1 n=e5 v=64
39846 Off ch=1 n=b4 v=64
39846 Off ch=1 n=g#4 v=64
39851 Off ch=1 n=e4 v=64
39928 On ch=1 n=g#4 v=36
39933 On ch=1 n=b4 v=46
39933 On ch=1 n=e4 v=59
39937 On ch=1 n=e5 v=76
39964 Off ch=1 n=b4 v=64
39973 Off ch=1 n=e4 v=64
39981 Off ch=1 n=g#4 v=64
39986 Off ch=1 n=e5 v=64
40071 Off ch=1 n=g#6 v=64
40071 On ch=1 n=f#6 v=70
40074 Par ch=1 c=64 v=0
40074 On ch=1 n=c#6 v=66
40078 Par ch=1 c=64 v=0
40079 Off ch=1 n=e6 v=64
40084 On ch=1 n=e5 v=50
40087 On ch=1 n=a4 v=49
40091 Par ch=1 c=64 v=127
40095 Par ch=1 c=64 v=127
40116 Off ch=1 n=f#6 v=64
40122 Off ch=1 n=a4 v=64
40132 Off ch=1 n=e5 v=64
40142 On ch=1 n=c6 v=70
40143 On ch=1 n=f#6 v=71
40150 Off ch=1 n=c#6 v=64
40173 Off ch=1 n=f#6 v=64
40209 On ch=1 n=f#6 v=70
40213 On ch=1 n=b5 v=65
40221 Off ch=1 n=c6 v=64
40222 On ch=1 n=d#5 v=50
40222 On ch=1 n=b4 v=49
40257 Off ch=1 n=b4 v=64
40267 Off ch=1 n=d#5 v=64
40283 Off ch=1 n=f#6 v=64
40353 Par ch=1 c=64 v=0
40357 On ch=1 n=g#6 v=72
40357 Par ch=1 c=64 v=0
40363 On ch=1 n=a5 v=63
40364 On ch=1 n=d#5 v=56
40369 On ch=1 n=b4 v=48
40383 Off ch=1 n=b5 v=64
40384 Par ch=1 c=64 v=127
40388 Par ch=1 c=64 v=127
40412 Off ch=1 n=b4 v=64
40412 Off ch=1 n=d#5 v=64
40494 Par ch=1 c=64 v=0
40497 On ch=1 n=g#5 v=70
40498 Par ch=1 c=64 v=0
40505 On ch=1 n=e6 v=71
40507 On ch=1 n=e4 v=56
40509 On ch=1 n=b4 v=56
40512 On ch=1 n=e5 v=56
40526 Off ch=1 n=g#6 v=64
40527 Par ch=1 c=64 v=127
40531 Par ch=1 c=64 v=127
40552 Off ch=1 n=a5 v=64
40559 Off ch=1 n=e4 v=64
40576 Off ch=1 n=e5 v=64
40578 Off ch=1 n=b4 v=64
40646 On ch=1 n=b4 v=48
40650 On ch=1 n=e5 v=56
40651 On ch=1 n=e4 v=52
40713 Off ch=1 n=e4 v=64
40713 Off ch=1 n=e5 v=64
40728 Off ch=1 n=b4 v=64
40805 Off ch=1 n=e6 v=64
40806 Off ch=1 n=g#5 v=64
40807 On ch=1 n=e7 v=70
40807 On ch=1 n=e6 v=58
40814 On ch=1 n=g#4 v=56
40817 On ch=1 n=e5 v=46
40866 Off ch=1 n=e5 v=64
40885 Off ch=1 n=g#4 v=64
40917 Off ch=1 n=e7 v=64
40938 Off ch=1 n=e6 v=64
40970 On ch=1 n=f#6 v=42
40974 On ch=1 n=c#6 v=46
40974 On ch=1 n=e5 v=37
40975 On ch=1 n=a4 v=37
41011 Off ch=1 n=f#6 v=64
41014 Off ch=1 n=a4 v=64
41020 Off ch=1 n=c#6 v=64
41021 Off ch=1 n=e5 v=64
41047 On ch=1 n=c#6 v=53
41050 On ch=1 n=f#6 v=53
41084 Off ch=1 n=f#6 v=64
41128 On ch=1 n=f#6 v=55
41128 On ch=1 n=c6 v=50
41133 On ch=1 n=a4 v=37
41135 Off ch=1 n=c#6 v=64
41139 On ch=1 n=e5 v=35
41190 Off ch=1 n=e5 v=64
41192 Off ch=1 n=a4 v=64
41250 Off ch=1 n=c6 v=64
41259 Off ch=1 n=f#6 v=64
41313 On ch=1 n=g#6 v=52
41313 On ch=1 n=b5 v=44
41313 On ch=1 n=d#5 v=34
41315 On ch=1 n=b4 v=37
41325 Par ch=1 c=64 v=0
41329 Par ch=1 c=64 v=0
41337 Par ch=1 c=64 v=127
41341 Par ch=1 c=64 v=127
41362 Off ch=1 n=d#5 v=64
41371 Off ch=1 n=b4 v=64
41409 On ch=1 n=a5 v=44
41427 Off ch=1 n=b5 v=64
41531 On ch=1 n=g#5 v=52
41537 Off ch=1 n=g#6 v=64
41537 On ch=1 n=e6 v=44
41539 On ch=1 n=e5 v=29
41541 Off ch=1 n=a5 v=64
41541 On ch=1 n=b4 v=41
41543 On ch=1 n=e4 v=28
41553 Par ch=1 c=64 v=0
41557 Par ch=1 c=64 v=0
41589 Par ch=1 c=64 v=127
41593 Par ch=1 c=64 v=127
41840 Off ch=1 n=g#5 v=64
41846 Off ch=1 n=e6 v=64
41848 Off ch=1 n=e5 v=64
41850 Off ch=1 n=b4 v=64
41852 Off ch=1 n=e4 v=64
41874 On ch=1 n=e6 v=35
41875 On ch=1 n=e3 v=35
41878 On ch=1 n=e7 v=41
41878 On ch=1 n=e4 v=29
41896 Par ch=1 c=64 v=0
41900 Par ch=1 c=64 v=0
41931 Par ch=1 c=64 v=127
41935 Par ch=1 c=64 v=127
42004 Off ch=1 n=e4 v=64
42012 Off ch=1 n=e3 v=64
42014 Off ch=1 n=e6 v=64
42020 Off ch=1 n=e7 v=64
42510 Par ch=1 c=64 v=0
42514 Par ch=1 c=64 v=0
42514 Meta TrkEnd
TrkEnd
MTrk
0 Meta TrkName "Played by Dr. Ron Lubetsky"
0 Meta TrkEnd
TrkEnd
MTrk
0 Meta TrkName "Jan. 21, 1"
