MFile 1 7 240
MTrk
0 TimeSig 4/4 24 8
0 Tempo 500000
0 Meta Marker "Chopin: Mazurka, Op. 7 No. 5- Vivo"
0 Meta TrkEnd
TrkEnd
MTrk
0 Meta TrkName "Chopin: Op. 7 No. 5"
0 PrCh ch=1 p=0
0 Par ch=1 c=7 v=127
121 Par ch=1 c=64 v=127
133 Par ch=1 c=64 v=127
429 On ch=1 n=g3 v=66
435 On ch=1 n=g4 v=66
459 Off ch=1 n=g3 v=64
465 Off ch=1 n=g4 v=64
564 On ch=1 n=g4 v=66
564 On ch=1 n=g3 v=66
594 Off ch=1 n=g3 v=64
594 Off ch=1 n=g4 v=64
699 On ch=1 n=g4 v=66
700 On ch=1 n=g3 v=66
729 Off ch=1 n=g4 v=64
730 Off ch=1 n=g3 v=64
835 On ch=1 n=g4 v=63
835 On ch=1 n=g3 v=63
865 Off ch=1 n=g3 v=64
865 Off ch=1 n=g4 v=64
971 On ch=1 n=g3 v=57
975 On ch=1 n=g4 v=57
1001 Off ch=1 n=g3 v=64
1005 Off ch=1 n=g4 v=64
1112 On ch=1 n=g4 v=50
1112 On ch=1 n=g3 v=50
1142 Off ch=1 n=g3 v=64
1142 Off ch=1 n=g4 v=64
1245 On ch=1 n=g4 v=46
1248 On ch=1 n=g3 v=46
1275 Off ch=1 n=g4 v=64
1278 Off ch=1 n=g3 v=64
1382 On ch=1 n=g4 v=41
1392 On ch=1 n=g3 v=41
1409 Off ch=1 n=g4 v=64
1419 Off ch=1 n=g3 v=64
1518 On ch=1 n=g4 v=35
1520 On ch=1 n=g3 v=35
1548 Off ch=1 n=g4 v=64
1550 Off ch=1 n=g3 v=64
1649 On ch=1 n=g3 v=32
1650 On ch=1 n=g4 v=32
1679 Off ch=1 n=g3 v=64
1680 Off ch=1 n=g4 v=64
1781 On ch=1 n=g4 v=26
1787 On ch=1 n=g3 v=26
1811 Off ch=1 n=g4 v=64
1817 Off ch=1 n=g3 v=64
1898 On ch=1 n=g3 v=24
1910 On ch=1 n=g4 v=24
1928 Off ch=1 n=g3 v=64
1940 Off ch=1 n=g4 v=64
2024 On ch=1 n=d6 v=36
2033 On ch=1 n=b4 v=31
2036 On ch=1 n=f5 v=35
2042 On ch=1 n=g4 v=27
2069 Off ch=1 n=d6 v=64
2071 On ch=1 n=e6 v=20
2088 Off ch=1 n=f5 v=64
2091 Off ch=1 n=g4 v=64
2092 Off ch=1 n=b4 v=64
2116 On ch=1 n=d6 v=42
2123 Off ch=1 n=e6 v=64
2141 Par ch=1 c=64 v=0
2153 Par ch=1 c=64 v=0
2154 On ch=1 n=g5 v=44
2154 On ch=1 n=e5 v=29
2157 On ch=1 n=c5 v=24
2157 On ch=1 n=g4 v=16
2169 Off ch=1 n=d6 v=64
2175 Par ch=1 c=64 v=127
2187 Par ch=1 c=64 v=127
2198 Off ch=1 n=g4 v=64
2199 Off ch=1 n=c5 v=64
2206 Off ch=1 n=e5 v=64
2275 On ch=1 n=c5 v=40
2278 On ch=1 n=c6 v=33
2285 On ch=1 n=e5 v=35
2289 On ch=1 n=g4 v=31
2311 Off ch=1 n=g5 v=64
2322 Off ch=1 n=g4 v=64
2334 Off ch=1 n=c5 v=64
2337 Off ch=1 n=e5 v=64
2354 Off ch=1 n=c6 v=64
2360 On ch=1 n=e6 v=36
2390 Par ch=1 c=64 v=0
2395 On ch=1 n=d6 v=41
2402 Par ch=1 c=64 v=0
2405 Off ch=1 n=e6 v=64
2405 On ch=1 n=g4 v=29
2409 On ch=1 n=b4 v=29
2413 On ch=1 n=f5 v=27
2422 Par ch=1 c=64 v=127
2434 Par ch=1 c=64 v=127
2443 Off ch=1 n=d6 v=64
2443 On ch=1 n=e6 v=40
2455 Off ch=1 n=b4 v=64
2460 Off ch=1 n=g4 v=64
2464 Off ch=1 n=f5 v=64
2482 On ch=1 n=d6 v=40
2494 Off ch=1 n=e6 v=64
2504 Par ch=1 c=64 v=0
2516 Par ch=1 c=64 v=0
2521 On ch=1 n=g5 v=53
2525 Off ch=1 n=d6 v=64
2530 On ch=1 n=c5 v=20
2531 On ch=1 n=g4 v=11
2534 Par ch=1 c=64 v=127
2540 On ch=1 n=e5 v=18
2546 Par ch=1 c=64 v=127
2569 Off ch=1 n=g4 v=64
2573 Off ch=1 n=c5 v=64
2576 Off ch=1 n=e5 v=64
2628 Par ch=1 c=64 v=0
2640 Par ch=1 c=64 v=0
2642 On ch=1 n=c6 v=41
2642 On ch=1 n=c5 v=45
2645 On ch=1 n=e5 v=40
2655 On ch=1 n=g4 v=31
2658 Par ch=1 c=64 v=127
2670 Par ch=1 c=64 v=127
2677 Off ch=1 n=g5 v=64
2688 Off ch=1 n=g4 v=64
2694 Off ch=1 n=c5 v=64
2698 Off ch=1 n=e5 v=64
2735 On ch=1 n=e6 v=40
2743 Off ch=1 n=c6 v=64
2762 On ch=1 n=g4 v=41
2769 On ch=1 n=f5 v=44
2769 On ch=1 n=b4 v=41
2772 On ch=1 n=a6 v=46
2782 Off ch=1 n=e6 v=64
2808 Off ch=1 n=b4 v=64
2812 Off ch=1 n=f5 v=64
2812 Off ch=1 n=g4 v=64
2881 On ch=1 n=g6 v=41
2891 On ch=1 n=f5 v=27
2891 On ch=1 n=b4 v=31
2895 On ch=1 n=g4 v=31
2896 Off ch=1 n=a6 v=64
2937 Off ch=1 n=b4 v=64
2941 Off ch=1 n=g4 v=64
2950 Off ch=1 n=f5 v=64
2953 Off ch=1 n=g6 v=64
2992 On ch=1 n=e6 v=24
3024 On ch=1 n=f5 v=20
3025 On ch=1 n=f6 v=46
3028 On ch=1 n=b4 v=23
3028 On ch=1 n=g4 v=26
3050 Off ch=1 n=e6 v=64
3058 Off ch=1 n=b4 v=64
3061 Off ch=1 n=f5 v=64
3066 Off ch=1 n=g4 v=64
3086 Off ch=1 n=f6 v=64
3104 On ch=1 n=d6 v=41
3134 Par ch=1 c=64 v=0
3146 Par ch=1 c=64 v=0
3156 On ch=1 n=c6 v=37
3156 On ch=1 n=c4 v=36
3158 Off ch=1 n=d6 v=64
3164 Par ch=1 c=64 v=127
3176 Par ch=1 c=64 v=127
3192 Off ch=1 n=c4 v=64
3247 Off ch=1 n=c6 v=64
3248 On ch=1 n=e6 v=35
3264 On ch=1 n=e5 v=23
3272 On ch=1 n=g6 v=32
3272 On ch=1 n=c5 v=27
3272 On ch=1 n=g4 v=31
3298 Off ch=1 n=g4 v=64
3300 Off ch=1 n=e6 v=64
3311 Off ch=1 n=c5 v=64
3312 Off ch=1 n=e5 v=64
3349 Off ch=1 n=g6 v=64
3352 On ch=1 n=b6 v=31
3376 On ch=1 n=c5 v=31
3379 On ch=1 n=d7 v=55
3384 On ch=1 n=e5 v=31
3384 On ch=1 n=g4 v=31
3401 Off ch=1 n=b6 v=64
3419 Off ch=1 n=g4 v=64
3419 Off ch=1 n=c5 v=64
3430 Off ch=1 n=e5 v=64
3441 Off ch=1 n=d7 v=64
3456 On ch=1 n=c7 v=59
3494 Par ch=1 c=64 v=0
3501 Off ch=1 n=c7 v=64
3506 Par ch=1 c=64 v=0
3508 On ch=1 n=b4 v=36
3508 On ch=1 n=g4 v=36
3510 On ch=1 n=d6 v=44
3512 On ch=1 n=f5 v=33
3516 Par ch=1 c=64 v=127
3528 Par ch=1 c=64 v=127
3539 Off ch=1 n=b4 v=64
3547 Off ch=1 n=g4 v=64
3548 Off ch=1 n=f5 v=64
3548 On ch=1 n=e6 v=41
3552 Off ch=1 n=d6 v=64
3594 On ch=1 n=d6 v=29
3601 Off ch=1 n=e6 v=64
3611 Par ch=1 c=64 v=0
3622 On ch=1 n=g4 v=18
3623 Par ch=1 c=64 v=0
3624 On ch=1 n=g5 v=50
3624 On ch=1 n=e5 v=23
3624 On ch=1 n=c5 v=23
3639 Off ch=1 n=d6 v=64
3646 Par ch=1 c=64 v=127
3658 Par ch=1 c=64 v=127
3663 Off ch=1 n=g4 v=64
3682 Off ch=1 n=e5 v=64
3684 Off ch=1 n=c5 v=64
3760 On ch=1 n=c6 v=46
3764 On ch=1 n=e5 v=36
3764 On ch=1 n=c5 v=37
3764 On ch=1 n=g4 v=32
3774 Off ch=1 n=g5 v=64
3795 Off ch=1 n=g4 v=64
3814 Off ch=1 n=c5 v=64
3821 Off ch=1 n=e5 v=64
3836 Off ch=1 n=c6 v=64
3836 On ch=1 n=e6 v=41
3866 Par ch=1 c=64 v=0
3868 On ch=1 n=g4 v=32
3872 On ch=1 n=f5 v=33
3872 On ch=1 n=b4 v=32
3873 On ch=1 n=d6 v=42
3875 Off ch=1 n=e6 v=64
3878 Par ch=1 c=64 v=0
3899 Par ch=1 c=64 v=127
3911 Par ch=1 c=64 v=127
3916 On ch=1 n=e6 v=46
3917 Off ch=1 n=f5 v=64
3918 Off ch=1 n=b4 v=64
3918 Off ch=1 n=g4 v=64
3925 Off ch=1 n=d6 v=64
3957 On ch=1 n=d6 v=45
3965 Off ch=1 n=e6 v=64
3986 Par ch=1 c=64 v=0
3992 On ch=1 n=e5 v=31
3996 On ch=1 n=g4 v=16
3997 On ch=1 n=g5 v=53
3997 On ch=1 n=c5 v=27
3998 Par ch=1 c=64 v=0
4008 Off ch=1 n=d6 v=64
4019 Par ch=1 c=64 v=127
4031 Par ch=1 c=64 v=127
4033 Off ch=1 n=g4 v=64
4041 Off ch=1 n=e5 v=64
4046 Off ch=1 n=c5 v=64
4104 On ch=1 n=e5 v=41
4105 Par ch=1 c=64 v=0
4116 On ch=1 n=c6 v=36
4116 On ch=1 n=c5 v=46
4117 Par ch=1 c=64 v=0
4120 On ch=1 n=g4 v=41
4128 Par ch=1 c=64 v=127
4140 Par ch=1 c=64 v=127
4152 Off ch=1 n=g5 v=64
4163 Off ch=1 n=g4 v=64
4164 Off ch=1 n=e5 v=64
4171 Off ch=1 n=c5 v=64
4206 On ch=1 n=e6 v=36
4215 Off ch=1 n=c6 v=64
4222 Par ch=1 c=64 v=0
4234 Par ch=1 c=64 v=0
4248 On ch=1 n=f5 v=27
4248 On ch=1 n=g4 v=29
4252 On ch=1 n=a6 v=46
4252 On ch=1 n=b4 v=29
4256 Par ch=1 c=64 v=127
4262 Off ch=1 n=e6 v=64
4268 Par ch=1 c=64 v=127
4292 Off ch=1 n=f5 v=64
4297 Off ch=1 n=b4 v=64
4297 Off ch=1 n=g4 v=64
4368 On ch=1 n=g6 v=41
4368 On ch=1 n=f5 v=26
4369 Off ch=1 n=a6 v=64
4372 On ch=1 n=b4 v=27
4372 On ch=1 n=g4 v=31
4407 Off ch=1 n=b4 v=64
4418 Off ch=1 n=g4 v=64
4422 Off ch=1 n=f5 v=64
4452 Off ch=1 n=g6 v=64
4460 On ch=1 n=e6 v=40
4500 On ch=1 n=f5 v=20
4501 On ch=1 n=f6 v=41
4504 On ch=1 n=b4 v=29
4504 On ch=1 n=g4 v=31
4522 Off ch=1 n=e6 v=64
4540 Off ch=1 n=b4 v=64
4544 Off ch=1 n=g4 v=64
4544 Off ch=1 n=f5 v=64
4554 Off ch=1 n=f6 v=64
4584 On ch=1 n=d6 v=41
4600 Par ch=1 c=64 v=0
4608 On ch=1 n=c6 v=40
4608 On ch=1 n=c4 v=40
4612 Par ch=1 c=64 v=0
4620 Off ch=1 n=d6 v=64
4620 Par ch=1 c=64 v=127
4632 Par ch=1 c=64 v=127
4644 Off ch=1 n=c4 v=64
4687 Off ch=1 n=c6 v=64
4692 On ch=1 n=d6 v=41
4732 On ch=1 n=c5 v=24
4736 On ch=1 n=e6 v=45
4736 On ch=1 n=e5 v=22
4736 On ch=1 n=g4 v=27
4767 Off ch=1 n=g4 v=64
4773 Off ch=1 n=d6 v=64
4774 Off ch=1 n=c5 v=64
4782 Off ch=1 n=e5 v=64
4816 On ch=1 n=b5 v=35
4824 Off ch=1 n=e6 v=64
4848 On ch=1 n=e5 v=41
4848 On ch=1 n=c5 v=45
4852 On ch=1 n=g4 v=40
4864 On ch=1 n=d6 v=41
4874 Off ch=1 n=b5 v=64
4890 Off ch=1 n=g4 v=64
4890 Off ch=1 n=e5 v=64
4894 Off ch=1 n=c5 v=64
4922 Off ch=1 n=d6 v=64
4936 On ch=1 n=c6 v=44
4960 On ch=1 n=d4 v=41
4968 On ch=1 n=f#4 v=43
4969 On ch=1 n=c5 v=39
4969 Par ch=1 c=64 v=0
4975 On ch=1 n=a5 v=56
4981 Par ch=1 c=64 v=0
4985 Par ch=1 c=64 v=127
4988 Off ch=1 n=c6 v=64
4997 Par ch=1 c=64 v=127
5014 Off ch=1 n=c5 v=64
5016 Off ch=1 n=f#4 v=64
5016 Off ch=1 n=d4 v=64
5022 On ch=1 n=b5 v=54
5029 Off ch=1 n=a5 v=64
5058 On ch=1 n=a5 v=48
5061 Par ch=1 c=64 v=0
5070 Off ch=1 n=b5 v=64
5073 Par ch=1 c=64 v=0
5088 On ch=1 n=g4 v=27
5089 On ch=1 n=d4 v=11
5092 On ch=1 n=b4 v=29
5099 On ch=1 n=d5 v=59
5107 Off ch=1 n=a5 v=64
5107 Par ch=1 c=64 v=127
5119 Par ch=1 c=64 v=127
5130 Off ch=1 n=b4 v=64
5142 Off ch=1 n=d4 v=64
5145 Off ch=1 n=g4 v=64
5205 Par ch=1 c=64 v=0
5211 On ch=1 n=g5 v=51
5212 On ch=1 n=d4 v=45
5213 On ch=1 n=g4 v=45
5216 On ch=1 n=b4 v=53
5217 Par ch=1 c=64 v=0
5227 Par ch=1 c=64 v=127
5232 Off ch=1 n=d5 v=64
5239 Par ch=1 c=64 v=127
5242 Off ch=1 n=d4 v=64
5259 Off ch=1 n=b4 v=64
5262 Off ch=1 n=g4 v=64
5289 Off ch=1 n=g5 v=64
5289 On ch=1 n=b5 v=43
5322 On ch=1 n=a5 v=53
5326 Off ch=1 n=b5 v=64
5329 On ch=1 n=c5 v=41
5329 On ch=1 n=f#4 v=41
5329 On ch=1 n=d4 v=41
5333 Par ch=1 c=64 v=0
5345 Par ch=1 c=64 v=0
5355 On ch=1 n=b5 v=51
5361 Off ch=1 n=c5 v=64
5365 Par ch=1 c=64 v=127
5370 Off ch=1 n=d4 v=64
5370 Off ch=1 n=f#4 v=64
5370 Off ch=1 n=a5 v=64
5377 Par ch=1 c=64 v=127
5403 On ch=1 n=a5 v=48
5415 Off ch=1 n=b5 v=64
5438 On ch=1 n=b4 v=31
5438 On ch=1 n=g4 v=31
5442 On ch=1 n=d4 v=28
5445 On ch=1 n=d5 v=53
5447 Par ch=1 c=64 v=0
5455 Off ch=1 n=a5 v=64
5459 Par ch=1 c=64 v=0
5467 Par ch=1 c=64 v=127
5476 Off ch=1 n=d4 v=64
5479 Par ch=1 c=64 v=127
5481 Off ch=1 n=g4 v=64
5484 Off ch=1 n=b4 v=64
5574 On ch=1 n=b4 v=24
5574 On ch=1 n=g4 v=48
5574 On ch=1 n=d4 v=27
5576 On ch=1 n=g5 v=47
5604 Off ch=1 n=b4 v=64
5606 Off ch=1 n=d5 v=64
5614 Off ch=1 n=g4 v=64
5616 Off ch=1 n=d4 v=64
5661 On ch=1 n=b5 v=53
5671 Off ch=1 n=g5 v=64
5688 Par ch=1 c=64 v=0
5698 On ch=1 n=d4 v=39
5700 Par ch=1 c=64 v=0
5704 On ch=1 n=f#4 v=41
5706 On ch=1 n=c5 v=39
5707 On ch=1 n=e6 v=54
5719 Off ch=1 n=b5 v=64
5722 Par ch=1 c=64 v=127
5734 Par ch=1 c=64 v=127
5739 Off ch=1 n=f#4 v=64
5742 Off ch=1 n=d4 v=64
5749 Off ch=1 n=c5 v=64
5801 Par ch=1 c=64 v=0
5813 Par ch=1 c=64 v=0
5817 On ch=1 n=d6 v=51
5825 On ch=1 n=f#4 v=36
5826 Par ch=1 c=64 v=127
5833 On ch=1 n=c5 v=29
5833 On ch=1 n=d4 v=36
5838 Off ch=1 n=e6 v=64
5838 Par ch=1 c=64 v=127
5874 Off ch=1 n=d4 v=64
5876 Off ch=1 n=f#4 v=64
5879 Off ch=1 n=c5 v=64
5899 Off ch=1 n=d6 v=64
5922 On ch=1 n=b5 v=37
5929 Par ch=1 c=64 v=0
5941 Par ch=1 c=64 v=0
5951 On ch=1 n=f#4 v=41
5951 On ch=1 n=d4 v=33
5954 On ch=1 n=c5 v=27
5956 On ch=1 n=c6 v=51
5961 Par ch=1 c=64 v=127
5972 Off ch=1 n=b5 v=64
5973 Par ch=1 c=64 v=127
5988 Off ch=1 n=c5 v=64
5990 Off ch=1 n=f#4 v=64
5997 Off ch=1 n=d4 v=64
6013 Off ch=1 n=c6 v=64
6034 On ch=1 n=a5 v=39
6052 Par ch=1 c=64 v=0
6058 On ch=1 n=g3 v=36
6060 On ch=1 n=g5 v=45
6064 Par ch=1 c=64 v=0
6082 Par ch=1 c=64 v=127
6086 Off ch=1 n=g3 v=64
6086 Off ch=1 n=a5 v=64
6094 Par ch=1 c=64 v=127
6145 On ch=1 n=b5 v=36
6182 Off ch=1 n=g5 v=64
6186 On ch=1 n=g4 v=36
6189 On ch=1 n=b4 v=31
6189 On ch=1 n=d4 v=33
6190 On ch=1 n=d6 v=48
6217 Off ch=1 n=d4 v=64
6224 Off ch=1 n=b4 v=64
6227 Off ch=1 n=g4 v=64
6232 Off ch=1 n=b5 v=64
6257 On ch=1 n=f#6 v=40
6287 Off ch=1 n=d6 v=64
6302 On ch=1 n=b4 v=43
6302 On ch=1 n=g4 v=51
6302 On ch=1 n=d4 v=45
6308 On ch=1 n=a6 v=58
6322 Off ch=1 n=f#6 v=64
6338 Off ch=1 n=d4 v=64
6346 Off ch=1 n=b4 v=64
6351 Off ch=1 n=g4 v=64
6367 Off ch=1 n=a6 v=64
6378 On ch=1 n=g6 v=59
6412 Par ch=1 c=64 v=0
6424 Par ch=1 c=64 v=0
6426 Off ch=1 n=g6 v=64
6434 On ch=1 n=a5 v=53
6442 On ch=1 n=d4 v=41
6445 Par ch=1 c=64 v=127
6446 On ch=1 n=f#4 v=37
6454 On ch=1 n=c5 v=32
6457 Par ch=1 c=64 v=127
6459 Off ch=1 n=a5 v=64
6474 On ch=1 n=b5 v=48
6477 Off ch=1 n=c5 v=64
6492 Off ch=1 n=d4 v=64
6495 Off ch=1 n=f#4 v=64
6525 Off ch=1 n=b5 v=64
6526 On ch=1 n=a5 v=45
6531 Par ch=1 c=64 v=0
6543 Par ch=1 c=64 v=0
6546 On ch=1 n=b4 v=18
6550 On ch=1 n=g4 v=27
6550 On ch=1 n=d4 v=24
6556 On ch=1 n=d5 v=53
6558 Off ch=1 n=a5 v=64
6567 Off ch=1 n=b4 v=64
6582 Par ch=1 c=64 v=127
6594 Par ch=1 c=64 v=127
6595 Off ch=1 n=g4 v=64
6609 Off ch=1 n=d4 v=64
6658 Par ch=1 c=64 v=0
6665 Off ch=1 n=d5 v=64
6670 Par ch=1 c=64 v=0
6678 On ch=1 n=b4 v=53
6678 On ch=1 n=d4 v=27
6680 On ch=1 n=g5 v=43
6682 On ch=1 n=g4 v=53
6691 Par ch=1 c=64 v=127
6703 Par ch=1 c=64 v=127
6720 Off ch=1 n=d4 v=64
6724 Off ch=1 n=b4 v=64
6742 Off ch=1 n=g4 v=64
6749 Off ch=1 n=g5 v=64
6749 On ch=1 n=b5 v=47
6782 On ch=1 n=c5 v=36
6783 On ch=1 n=a5 v=51
6786 On ch=1 n=f#4 v=40
6786 On ch=1 n=d4 v=37
6790 Off ch=1 n=b5 v=64
6790 Par ch=1 c=64 v=0
6802 Par ch=1 c=64 v=0
6811 Par ch=1 c=64 v=127
6823 Par ch=1 c=64 v=127
6828 Off ch=1 n=c5 v=64
6838 On ch=1 n=b5 v=45
6842 Off ch=1 n=f#4 v=64
6846 Off ch=1 n=a5 v=64
6847 Off ch=1 n=d4 v=64
6875 On ch=1 n=a5 v=37
6891 Off ch=1 n=b5 v=64
6897 Par ch=1 c=64 v=0
6906 On ch=1 n=b4 v=36
6906 On ch=1 n=g4 v=29
6906 On ch=1 n=d4 v=10
6909 Par ch=1 c=64 v=0
6912 On ch=1 n=d5 v=49
6913 Par ch=1 c=64 v=127
6921 Off ch=1 n=a5 v=64
6925 Par ch=1 c=64 v=127
6946 Off ch=1 n=g4 v=64
6948 Off ch=1 n=d4 v=64
6949 Off ch=1 n=b4 v=64
7004 Par ch=1 c=64 v=0
7016 Par ch=1 c=64 v=0
7028 Par ch=1 c=64 v=127
7034 On ch=1 n=d4 v=32
7035 On ch=1 n=g5 v=47
7038 On ch=1 n=b4 v=32
7040 Par ch=1 c=64 v=127
7040 On ch=1 n=g4 v=53
7064 Off ch=1 n=b4 v=64
7064 Off ch=1 n=d5 v=64
7065 Off ch=1 n=d4 v=64
7081 Off ch=1 n=g4 v=64
7109 Off ch=1 n=g5 v=64
7123 On ch=1 n=b5 v=37
7142 Par ch=1 c=64 v=0
7154 Par ch=1 c=64 v=0
7154 On ch=1 n=f#4 v=45
7156 On ch=1 n=c5 v=41
7158 Off ch=1 n=b5 v=64
7162 On ch=1 n=d4 v=40
7165 On ch=1 n=f#6 v=59
7169 Par ch=1 c=64 v=127
7181 Par ch=1 c=64 v=127
7192 Off ch=1 n=c5 v=64
7194 Off ch=1 n=f#4 v=64
7205 Off ch=1 n=d4 v=64
7217 Off ch=1 n=f#6 v=64
7256 Par ch=1 c=64 v=0
7268 Par ch=1 c=64 v=0
7276 On ch=1 n=f#4 v=45
7277 On ch=1 n=c5 v=37
7280 On ch=1 n=e6 v=53
7280 On ch=1 n=d4 v=41
7289 Par ch=1 c=64 v=127
7301 Par ch=1 c=64 v=127
7311 Off ch=1 n=d4 v=64
7311 Off ch=1 n=f#4 v=64
7314 Off ch=1 n=c5 v=64
7342 Off ch=1 n=e6 v=64
7359 On ch=1 n=b5 v=45
7369 Par ch=1 c=64 v=0
7381 Par ch=1 c=64 v=0
7395 On ch=1 n=c6 v=37
7395 On ch=1 n=d4 v=36
7399 On ch=1 n=c5 v=27
7403 On ch=1 n=f#4 v=37
7411 Par ch=1 c=64 v=127
7416 Off ch=1 n=b5 v=64
7423 Par ch=1 c=64 v=127
7427 Off ch=1 n=d4 v=64
7436 Off ch=1 n=f#4 v=64
7441 Off ch=1 n=c5 v=64
7452 Off ch=1 n=c6 v=64
7479 On ch=1 n=a5 v=40
7493 Par ch=1 c=64 v=0
7505 Par ch=1 c=64 v=0
7515 On ch=1 n=g3 v=41
7521 Off ch=1 n=a5 v=64
7522 On ch=1 n=g5 v=47
7540 Par ch=1 c=64 v=127
7552 Par ch=1 c=64 v=127
7554 Off ch=1 n=g3 v=64
7597 On ch=1 n=b5 v=41
7621 Off ch=1 n=g5 v=64
7643 On ch=1 n=d4 v=36
7644 On ch=1 n=d6 v=51
7647 On ch=1 n=g4 v=29
7651 On ch=1 n=b4 v=29
7673 Off ch=1 n=b5 v=64
7688 Off ch=1 n=g4 v=64
7692 Off ch=1 n=b4 v=64
7704 Off ch=1 n=d4 v=64
7712 Off ch=1 n=d6 v=64
7727 On ch=1 n=f#6 v=37
7751 On ch=1 n=b4 v=53
7755 Off ch=1 n=f#6 v=64
7755 On ch=1 n=a6 v=64
7755 On ch=1 n=g4 v=53
7755 On ch=1 n=d4 v=53
7787 Off ch=1 n=d4 v=64
7794 Off ch=1 n=b4 v=64
7795 Off ch=1 n=g4 v=64
7807 Off ch=1 n=a6 v=64
7823 On ch=1 n=g6 v=36
7864 Par ch=1 c=64 v=0
7867 On ch=1 n=d6 v=60
7867 On ch=1 n=b4 v=50
7867 On ch=1 n=g4 v=50
7871 On ch=1 n=f5 v=50
7876 Par ch=1 c=64 v=0
7883 Off ch=1 n=g6 v=64
7895 Par ch=1 c=64 v=127
7907 Par ch=1 c=64 v=127
7907 On ch=1 n=e6 v=56
7909 Off ch=1 n=f5 v=64
7909 Off ch=1 n=b4 v=64
7911 Off ch=1 n=g4 v=64
7934 Off ch=1 n=d6 v=64
7944 On ch=1 n=d6 v=59
7956 Off ch=1 n=e6 v=64
7964 Par ch=1 c=64 v=0
7976 Par ch=1 c=64 v=0
7976 On ch=1 n=g4 v=17
7981 On ch=1 n=c5 v=40
7985 Off ch=1 n=d6 v=64
7990 On ch=1 n=g5 v=70
7990 On ch=1 n=e5 v=42
8007 Par ch=1 c=64 v=127
8018 Off ch=1 n=g4 v=64
8019 Par ch=1 c=64 v=127
8026 Off ch=1 n=c5 v=64
8030 Off ch=1 n=e5 v=64
8104 On ch=1 n=c6 v=50
8104 On ch=1 n=c5 v=64
8104 On ch=1 n=g4 v=32
8109 On ch=1 n=e5 v=57
8134 Off ch=1 n=g5 v=64
8146 Off ch=1 n=g4 v=64
8156 Off ch=1 n=c5 v=64
8162 Off ch=1 n=e5 v=64
8177 Off ch=1 n=c6 v=64
8183 On ch=1 n=e6 v=49
8214 Par ch=1 c=64 v=0
8226 Par ch=1 c=64 v=0
8229 On ch=1 n=d6 v=53
8232 On ch=1 n=f5 v=45
8232 On ch=1 n=b4 v=47
8237 Off ch=1 n=e6 v=64
8239 On ch=1 n=g4 v=45
8244 Par ch=1 c=64 v=127
8256 Par ch=1 c=64 v=127
8277 Off ch=1 n=f5 v=64
8277 On ch=1 n=e6 v=60
8279 Off ch=1 n=b4 v=64
8285 Off ch=1 n=d6 v=64
8288 Off ch=1 n=g4 v=64
8316 On ch=1 n=d6 v=48
8328 Par ch=1 c=64 v=0
8335 Off ch=1 n=e6 v=64
8340 Par ch=1 c=64 v=0
8344 On ch=1 n=c5 v=32
8350 On ch=1 n=g5 v=67
8352 On ch=1 n=e5 v=36
8354 On ch=1 n=g4 v=18
8360 Off ch=1 n=d6 v=64
8363 Par ch=1 c=64 v=127
8375 Par ch=1 c=64 v=127
8376 Off ch=1 n=g4 v=64
8395 Off ch=1 n=c5 v=64
8406 Off ch=1 n=e5 v=64
8450 Par ch=1 c=64 v=0
8462 Par ch=1 c=64 v=0
8468 On ch=1 n=e5 v=60
8470 On ch=1 n=c5 v=60
8475 On ch=1 n=c6 v=48
8476 On ch=1 n=g4 v=32
8481 Par ch=1 c=64 v=127
8493 Par ch=1 c=64 v=127
8498 Off ch=1 n=g4 v=64
8502 Off ch=1 n=g5 v=64
8524 Off ch=1 n=c5 v=64
8527 Off ch=1 n=e5 v=64
8536 Par ch=1 c=64 v=0
8548 Par ch=1 c=64 v=0
8557 On ch=1 n=e6 v=52
8568 Off ch=1 n=c6 v=64
8571 Par ch=1 c=64 v=127
8573 Par ch=1 c=64 v=0
8583 Par ch=1 c=64 v=127
8585 Par ch=1 c=64 v=0
8593 On ch=1 n=f5 v=43
8593 On ch=1 n=b4 v=45
8597 On ch=1 n=g4 v=45
8602 On ch=1 n=a6 v=61
8616 Off ch=1 n=e6 v=64
8619 Par ch=1 c=64 v=127
8631 Par ch=1 c=64 v=127
8641 Off ch=1 n=b4 v=64
8645 Off ch=1 n=g4 v=64
8645 Off ch=1 n=f5 v=64
8698 Par ch=1 c=64 v=0
8709 Par ch=1 c=64 v=127
8710 Par ch=1 c=64 v=0
8714 On ch=1 n=g6 v=52
8716 On ch=1 n=f5 v=40
8721 Par ch=1 c=64 v=127
8723 On ch=1 n=b4 v=45
8724 On ch=1 n=g4 v=42
8728 Off ch=1 n=a6 v=64
8765 Off ch=1 n=g4 v=64
8770 Off ch=1 n=f5 v=64
8772 Off ch=1 n=b4 v=64
8795 Off ch=1 n=g6 v=64
8812 On ch=1 n=e6 v=32
8834 On ch=1 n=f5 v=29
8840 On ch=1 n=f6 v=48
8845 On ch=1 n=b4 v=45
8845 On ch=1 n=g4 v=40
8854 Off ch=1 n=e6 v=64
8880 Off ch=1 n=f5 v=64
8884 Off ch=1 n=b4 v=64
8888 Off ch=1 n=g4 v=64
8898 Off ch=1 n=f6 v=64
8924 On ch=1 n=d6 v=56
8928 Par ch=1 c=64 v=0
8940 Par ch=1 c=64 v=0
8957 On ch=1 n=c6 v=45
8957 On ch=1 n=c4 v=45
8972 Par ch=1 c=64 v=127
8977 Off ch=1 n=d6 v=64
8984 Par ch=1 c=64 v=127
8988 Off ch=1 n=c4 v=64
9028 On ch=1 n=e6 v=45
9039 Par ch=1 c=64 v=0
9051 Par ch=1 c=64 v=0
9062 Off ch=1 n=c6 v=64
9068 On ch=1 n=g6 v=40
9076 On ch=1 n=c5 v=40
9078 On ch=1 n=g4 v=35
9080 On ch=1 n=e5 v=36
9087 Par ch=1 c=64 v=127
9099 Par ch=1 c=64 v=127
9113 Off ch=1 n=g4 v=64
9114 Off ch=1 n=e6 v=64
9116 Off ch=1 n=e5 v=64
9118 Off ch=1 n=c5 v=64
9128 Off ch=1 n=g6 v=64
9148 On ch=1 n=b6 v=27
9190 Off ch=1 n=b6 v=64
9190 On ch=1 n=d7 v=56
9191 On ch=1 n=e5 v=61
9195 On ch=1 n=c5 v=56
9195 On ch=1 n=g4 v=56
9230 Off ch=1 n=g4 v=64
9236 Off ch=1 n=c5 v=64
9237 Off ch=1 n=e5 v=64
9242 Off ch=1 n=d7 v=64
9276 On ch=1 n=c7 v=48
9290 Par ch=1 c=64 v=0
9302 Par ch=1 c=64 v=0
9312 On ch=1 n=b4 v=47
9319 On ch=1 n=g4 v=45
9320 On ch=1 n=d6 v=64
9320 On ch=1 n=f5 v=45
9321 Off ch=1 n=c7 v=64
9332 Par ch=1 c=64 v=127
9344 Par ch=1 c=64 v=127
9356 Off ch=1 n=b4 v=64
9356 On ch=1 n=e6 v=41
9359 Off ch=1 n=f5 v=64
9360 Off ch=1 n=d6 v=64
9370 Off ch=1 n=g4 v=64
9394 On ch=1 n=d6 v=53
9398 Par ch=1 c=64 v=0
9410 Par ch=1 c=64 v=0
9416 Off ch=1 n=e6 v=64
9434 On ch=1 n=g5 v=72
9434 On ch=1 n=e5 v=38
9434 On ch=1 n=g4 v=23
9436 On ch=1 n=c5 v=32
9441 Off ch=1 n=d6 v=64
9451 Par ch=1 c=64 v=127
9463 Par ch=1 c=64 v=127
9470 Off ch=1 n=g4 v=64
9482 Off ch=1 n=e5 v=64
9484 Off ch=1 n=c5 v=64
9520 Par ch=1 c=64 v=0
9532 Par ch=1 c=64 v=0
9550 On ch=1 n=c6 v=56
9550 On ch=1 n=c5 v=60
9553 On ch=1 n=e5 v=64
9553 On ch=1 n=g4 v=36
9558 Par ch=1 c=64 v=127
9570 Par ch=1 c=64 v=127
9581 Off ch=1 n=g5 v=64
9585 Off ch=1 n=g4 v=64
9599 Off ch=1 n=c5 v=64
9605 Off ch=1 n=e5 v=64
9624 Off ch=1 n=c6 v=64
9634 On ch=1 n=e6 v=54
9658 Par ch=1 c=64 v=0
9670 Par ch=1 c=64 v=0
9676 On ch=1 n=b4 v=42
9679 On ch=1 n=g4 v=40
9680 On ch=1 n=d6 v=56
9680 On ch=1 n=f5 v=43
9685 Off ch=1 n=e6 v=64
9691 Par ch=1 c=64 v=127
9703 Par ch=1 c=64 v=127
9722 Off ch=1 n=f5 v=64
9722 Off ch=1 n=b4 v=64
9722 On ch=1 n=e6 v=49
9725 Off ch=1 n=g4 v=64
9727 Off ch=1 n=d6 v=64
9768 On ch=1 n=d6 v=45
9774 Off ch=1 n=e6 v=64
9778 Par ch=1 c=64 v=0
9790 Par ch=1 c=64 v=0
9795 On ch=1 n=g5 v=67
9795 On ch=1 n=e5 v=36
9798 On ch=1 n=c5 v=32
9802 On ch=1 n=g4 v=33
9806 Off ch=1 n=d6 v=64
9812 Par ch=1 c=64 v=127
9824 Par ch=1 c=64 v=127
9840 Off ch=1 n=g4 v=64
9847 Off ch=1 n=c5 v=64
9848 Off ch=1 n=e5 v=64
9914 On ch=1 n=c5 v=64
9915 On ch=1 n=c6 v=47
9919 On ch=1 n=e5 v=64
9922 On ch=1 n=g4 v=57
9953 Off ch=1 n=g5 v=64
9962 Off ch=1 n=g4 v=64
9971 Off ch=1 n=e5 v=64
9972 Off ch=1 n=c5 v=64
10001 On ch=1 n=e6 v=53
10002 Off ch=1 n=c6 v=64
10017 Par ch=1 c=64 v=0
10029 Par ch=1 c=64 v=0
10040 On ch=1 n=g4 v=42
10046 On ch=1 n=f5 v=43
10046 On ch=1 n=b4 v=44
10047 On ch=1 n=a6 v=61
10059 Off ch=1 n=e6 v=64
10060 Par ch=1 c=64 v=127
10072 Par ch=1 c=64 v=127
10086 Off ch=1 n=g4 v=64
10092 Off ch=1 n=b4 v=64
10094 Off ch=1 n=f5 v=64
10154 On ch=1 n=g6 v=56
10158 On ch=1 n=f5 v=42
10158 On ch=1 n=b4 v=45
10158 On ch=1 n=g4 v=43
10177 Off ch=1 n=a6 v=64
10202 Off ch=1 n=b4 v=64
10205 Off ch=1 n=g4 v=64
10208 Off ch=1 n=f5 v=64
10234 On ch=1 n=e6 v=54
10252 Off ch=1 n=g6 v=64
10270 On ch=1 n=f6 v=56
10278 On ch=1 n=b4 v=40
10278 On ch=1 n=g4 v=35
10280 On ch=1 n=f5 v=32
10287 Off ch=1 n=e6 v=64
10313 Off ch=1 n=b4 v=64
10317 Off ch=1 n=f5 v=64
10321 Off ch=1 n=g4 v=64
10329 Off ch=1 n=f6 v=64
10364 On ch=1 n=d6 v=26
10388 Off ch=1 n=d6 v=64
10394 Par ch=1 c=64 v=0
10401 On ch=1 n=c4 v=48
10405 On ch=1 n=c6 v=47
10406 Par ch=1 c=64 v=0
10424 Par ch=1 c=64 v=127
10436 Off ch=1 n=c4 v=64
10436 Par ch=1 c=64 v=127
10471 Off ch=1 n=c6 v=64
10478 On ch=1 n=d6 v=54
10509 Par ch=1 c=64 v=0
10510 On ch=1 n=e6 v=45
10517 On ch=1 n=c5 v=40
10518 On ch=1 n=e5 v=36
10521 Par ch=1 c=64 v=0
10523 On ch=1 n=g4 v=36
10531 Par ch=1 c=64 v=127
10543 Par ch=1 c=64 v=127
10553 Off ch=1 n=g4 v=64
10553 Off ch=1 n=d6 v=64
10554 Off ch=1 n=c5 v=64
10560 Off ch=1 n=e5 v=64
10580 Off ch=1 n=e6 v=64
10590 On ch=1 n=b5 v=56
10636 On ch=1 n=e5 v=57
10636 On ch=1 n=c5 v=60
10640 On ch=1 n=g4 v=57
10645 On ch=1 n=d6 v=63
10650 Off ch=1 n=b5 v=64
10667 Off ch=1 n=e5 v=64
10670 Off ch=1 n=c5 v=64
10681 Off ch=1 n=g4 v=64
10698 Off ch=1 n=d6 v=64
10718 On ch=1 n=c6 v=53
10750 On ch=1 n=c5 v=40
10750 On ch=1 n=d4 v=40
10753 On ch=1 n=f#4 v=40
10758 Off ch=1 n=c6 v=64
10758 On ch=1 n=a5 v=43
10763 Par ch=1 c=64 v=0
10775 Par ch=1 c=64 v=0
10787 Par ch=1 c=64 v=127
10789 Off ch=1 n=c5 v=64
10795 Off ch=1 n=d4 v=64
10799 Par ch=1 c=64 v=127
10801 Off ch=1 n=a5 v=64
10802 Off ch=1 n=f#4 v=64
10806 On ch=1 n=b5 v=50
10838 On ch=1 n=a5 v=40
10858 Off ch=1 n=b5 v=64
10864 Par ch=1 c=64 v=0
10876 Par ch=1 c=64 v=0
10882 On ch=1 n=b4 v=32
10884 On ch=1 n=d4 v=27
10886 On ch=1 n=g4 v=27
10888 On ch=1 n=d5 v=54
10893 Off ch=1 n=a5 v=64
10900 Par ch=1 c=64 v=127
10912 Par ch=1 c=64 v=127
10918 Off ch=1 n=d4 v=64
10922 Off ch=1 n=b4 v=64
10932 Off ch=1 n=g4 v=64
10979 Par ch=1 c=64 v=0
10991 Par ch=1 c=64 v=0
10992 Par ch=1 c=64 v=127
10994 On ch=1 n=b4 v=40
10994 On ch=1 n=g4 v=50
10997 On ch=1 n=g5 v=43
11002 On ch=1 n=d4 v=24
11004 Par ch=1 c=64 v=127
11027 Off ch=1 n=d5 v=64
11042 Off ch=1 n=g4 v=64
11042 Off ch=1 n=b4 v=64
11044 Off ch=1 n=d4 v=64
11077 Off ch=1 n=g5 v=64
11084 On ch=1 n=b5 v=42
11107 Par ch=1 c=64 v=0
11118 On ch=1 n=a5 v=38
11119 Par ch=1 c=64 v=0
11123 On ch=1 n=f#4 v=40
11129 On ch=1 n=c5 v=36
11130 On ch=1 n=d4 v=36
11136 Off ch=1 n=b5 v=64
11143 Par ch=1 c=64 v=127
11155 Par ch=1 c=64 v=127
11164 On ch=1 n=b5 v=45
11166 Off ch=1 n=c5 v=64
11167 Off ch=1 n=d4 v=64
11167 Off ch=1 n=f#4 v=64
11174 Off ch=1 n=a5 v=64
11207 On ch=1 n=a5 v=36
11214 Par ch=1 c=64 v=0
11225 Off ch=1 n=b5 v=64
11226 Par ch=1 c=64 v=0
11236 On ch=1 n=d5 v=53
11238 On ch=1 n=b4 v=32
11238 On ch=1 n=g4 v=29
11238 On ch=1 n=d4 v=11
11248 Par ch=1 c=64 v=127
11255 Off ch=1 n=a5 v=64
11260 Par ch=1 c=64 v=127
11280 Off ch=1 n=d4 v=64
11282 Off ch=1 n=g4 v=64
11283 Off ch=1 n=b4 v=64
11354 On ch=1 n=b4 v=53
11355 On ch=1 n=g5 v=42
11358 On ch=1 n=g4 v=49
11362 On ch=1 n=d4 v=24
11392 Off ch=1 n=d5 v=64
11400 Off ch=1 n=b4 v=64
11404 Off ch=1 n=d4 v=64
11405 Off ch=1 n=g4 v=64
11445 On ch=1 n=b5 v=40
11452 Off ch=1 n=g5 v=64
11470 Par ch=1 c=64 v=0
11474 On ch=1 n=e6 v=47
11478 On ch=1 n=f#4 v=40
11482 Par ch=1 c=64 v=0
11483 On ch=1 n=d4 v=36
11486 On ch=1 n=c5 v=36
11497 Off ch=1 n=b5 v=64
11502 Par ch=1 c=64 v=127
11514 Par ch=1 c=64 v=127
11519 Off ch=1 n=f#4 v=64
11519 Off ch=1 n=c5 v=64
11522 Off ch=1 n=d4 v=64
11602 Off ch=1 n=e6 v=64
11606 On ch=1 n=d6 v=50
11611 On ch=1 n=c5 v=36
11611 On ch=1 n=f#4 v=40
11612 On ch=1 n=d4 v=36
11647 Off ch=1 n=f#4 v=64
11650 Off ch=1 n=d4 v=64
11656 Off ch=1 n=c5 v=64
11686 On ch=1 n=b5 v=45
11692 Off ch=1 n=d6 v=64
11725 On ch=1 n=c6 v=43
11725 On ch=1 n=c5 v=32
11728 On ch=1 n=d4 v=35
11733 On ch=1 n=f#4 v=38
11737 Off ch=1 n=b5 v=64
11762 Off ch=1 n=f#4 v=64
11762 Off ch=1 n=c5 v=64
11764 Off ch=1 n=d4 v=64
11787 Off ch=1 n=c6 v=64
11798 On ch=1 n=a5 v=45
11817 Par ch=1 c=64 v=0
11829 Par ch=1 c=64 v=0
11835 On ch=1 n=g5 v=45
11838 On ch=1 n=g3 v=40
11850 Off ch=1 n=a5 v=64
11867 Par ch=1 c=64 v=127
11879 Par ch=1 c=64 v=127
11880 Off ch=1 n=g3 v=64
11926 On ch=1 n=b5 v=40
11938 Off ch=1 n=g5 v=64
11950 On ch=1 n=b4 v=32
11952 On ch=1 n=d4 v=32
11954 On ch=1 n=g4 v=32
11956 On ch=1 n=d6 v=38
11982 Off ch=1 n=d4 v=64
11984 Off ch=1 n=b4 v=64
11992 Off ch=1 n=g4 v=64
12015 Off ch=1 n=b5 v=64
12026 Off ch=1 n=d6 v=64
12030 On ch=1 n=f#6 v=42
12054 On ch=1 n=a6 v=45
12058 On ch=1 n=b4 v=53
12058 On ch=1 n=d4 v=49
12059 On ch=1 n=g4 v=56
12080 Off ch=1 n=f#6 v=64
12084 Off ch=1 n=d4 v=64
12091 Off ch=1 n=b4 v=64
12099 Off ch=1 n=g4 v=64
12105 Off ch=1 n=a6 v=64
12134 On ch=1 n=g6 v=45
12164 Par ch=1 c=64 v=0
12171 Off ch=1 n=g6 v=64
12174 On ch=1 n=a5 v=50
12174 On ch=1 n=c5 v=40
12174 On ch=1 n=f#4 v=40
12174 On ch=1 n=d4 v=36
12176 Par ch=1 c=64 v=0
12203 Par ch=1 c=64 v=127
12214 Off ch=1 n=f#4 v=64
12214 Off ch=1 n=c5 v=64
12215 Par ch=1 c=64 v=127
12221 Off ch=1 n=d4 v=64
12222 On ch=1 n=b5 v=47
12224 Off ch=1 n=a5 v=64
12270 On ch=1 n=a5 v=40
12275 Off ch=1 n=b5 v=64
12289 Par ch=1 c=64 v=0
12301 Par ch=1 c=64 v=0
12302 On ch=1 n=b4 v=32
12302 On ch=1 n=g4 v=32
12302 On ch=1 n=d4 v=11
12310 On ch=1 n=d5 v=56
12322 Off ch=1 n=a5 v=64
12327 Par ch=1 c=64 v=127
12339 Par ch=1 c=64 v=127
12344 Off ch=1 n=d4 v=64
12345 Off ch=1 n=b4 v=64
12348 Off ch=1 n=g4 v=64
12418 On ch=1 n=b4 v=50
12422 On ch=1 n=g5 v=53
12422 On ch=1 n=g4 v=50
12426 On ch=1 n=d4 v=24
12458 Off ch=1 n=d5 v=64
12468 Off ch=1 n=d4 v=64
12470 Off ch=1 n=b4 v=64
12471 Off ch=1 n=g4 v=64
12497 Off ch=1 n=g5 v=64
12520 On ch=1 n=b5 v=47
12530 Par ch=1 c=64 v=0
12542 Par ch=1 c=64 v=0
12550 On ch=1 n=d4 v=36
12554 On ch=1 n=f#4 v=40
12555 On ch=1 n=c5 v=36
12557 On ch=1 n=a5 v=50
12569 Par ch=1 c=64 v=127
12574 Off ch=1 n=b5 v=64
12581 Par ch=1 c=64 v=127
12583 Off ch=1 n=c5 v=64
12586 On ch=1 n=b5 v=43
12588 Off ch=1 n=d4 v=64
12593 Off ch=1 n=f#4 v=64
12607 Off ch=1 n=a5 v=64
12619 Par ch=1 c=64 v=0
12630 On ch=1 n=a5 v=45
12631 Par ch=1 c=64 v=0
12639 Off ch=1 n=b5 v=64
12654 On ch=1 n=d4 v=11
12657 On ch=1 n=g4 v=32
12658 On ch=1 n=d5 v=60
12661 On ch=1 n=b4 v=32
12668 Off ch=1 n=a5 v=64
12672 Par ch=1 c=64 v=127
12684 Par ch=1 c=64 v=127
12696 Off ch=1 n=d4 v=64
12703 Off ch=1 n=g4 v=64
12707 Off ch=1 n=b4 v=64
12783 On ch=1 n=b4 v=50
12785 On ch=1 n=g5 v=40
12786 On ch=1 n=g4 v=56
12786 On ch=1 n=d4 v=24
12806 Off ch=1 n=d5 v=64
12827 Off ch=1 n=b4 v=64
12828 Off ch=1 n=d4 v=64
12833 Off ch=1 n=g4 v=64
12858 Off ch=1 n=g5 v=64
12867 On ch=1 n=b5 v=33
12886 Par ch=1 c=64 v=0
12897 Off ch=1 n=b5 v=64
12898 Par ch=1 c=64 v=0
12898 On ch=1 n=f#4 v=40
12900 On ch=1 n=d4 v=40
12904 On ch=1 n=c5 v=40
12909 On ch=1 n=f#6 v=54
12919 Off ch=1 n=f#4 v=64
12923 Par ch=1 c=64 v=127
12935 Par ch=1 c=64 v=127
12936 Off ch=1 n=c5 v=64
12936 Off ch=1 n=d4 v=64
12960 Off ch=1 n=f#6 v=64
13002 Par ch=1 c=64 v=0
13014 Par ch=1 c=64 v=0
13026 On ch=1 n=e6 v=47
13026 On ch=1 n=f#4 v=40
13026 On ch=1 n=d4 v=36
13032 On ch=1 n=c5 v=38
13046 Par ch=1 c=64 v=127
13050 Off ch=1 n=f#4 v=64
13051 Off ch=1 n=d4 v=64
13058 Par ch=1 c=64 v=127
13068 Off ch=1 n=c5 v=64
13104 Off ch=1 n=e6 v=64
13118 On ch=1 n=b5 v=42
13150 On ch=1 n=c6 v=47
13150 On ch=1 n=d4 v=35
13154 On ch=1 n=c5 v=32
13154 On ch=1 n=f#4 v=36
13182 Off ch=1 n=b5 v=64
13186 Off ch=1 n=f#4 v=64
13194 Off ch=1 n=d4 v=64
13195 Off ch=1 n=c5 v=64
13203 Off ch=1 n=c6 v=64
13230 On ch=1 n=a5 v=38
13249 Par ch=1 c=64 v=0
13261 Par ch=1 c=64 v=0
13265 Off ch=1 n=a5 v=64
13266 On ch=1 n=g5 v=50
13266 On ch=1 n=g3 v=36
13286 Par ch=1 c=64 v=127
13298 Par ch=1 c=64 v=127
13299 Off ch=1 n=g3 v=64
13341 Off ch=1 n=g5 v=64
13342 On ch=1 n=b5 v=42
13374 On ch=1 n=d6 v=32
13376 On ch=1 n=b4 v=32
13376 On ch=1 n=g4 v=32
13376 On ch=1 n=d4 v=32
13394 Off ch=1 n=b5 v=64
13411 Off ch=1 n=d4 v=64
13416 Off ch=1 n=d6 v=64
13417 Off ch=1 n=g4 v=64
13418 Off ch=1 n=b4 v=64
13454 On ch=1 n=f#6 v=40
13478 On ch=1 n=d4 v=57
13480 On ch=1 n=a6 v=45
13482 On ch=1 n=b4 v=53
13482 On ch=1 n=g4 v=56
13499 Off ch=1 n=f#6 v=64
13514 Off ch=1 n=d4 v=64
13517 Off ch=1 n=b4 v=64
13519 Off ch=1 n=g4 v=64
13551 Off ch=1 n=a6 v=64
13566 On ch=1 n=g6 v=36
13594 Par ch=1 c=64 v=0
13605 On ch=1 n=g4 v=70
13605 On ch=1 n=g3 v=64
13606 Par ch=1 c=64 v=0
13615 Off ch=1 n=g6 v=64
13623 Par ch=1 c=64 v=127
13635 Off ch=1 n=g3 v=64
13635 Off ch=1 n=g4 v=64
13635 Par ch=1 c=64 v=127
13700 Par ch=1 c=64 v=0
13712 Par ch=1 c=64 v=0
13730 On ch=1 n=g3 v=83
13735 On ch=1 n=g4 v=81
13749 Par ch=1 c=64 v=127
13760 Off ch=1 n=g3 v=64
13761 Par ch=1 c=64 v=127
13765 Off ch=1 n=g4 v=64
13859 On ch=1 n=g4 v=75
13862 On ch=1 n=g3 v=76
13889 Off ch=1 n=g4 v=64
13892 Off ch=1 n=g3 v=64
13977 On ch=1 n=g4 v=70
13982 On ch=1 n=g3 v=72
14007 Off ch=1 n=g4 v=64
14012 Off ch=1 n=g3 v=64
14098 On ch=1 n=g4 v=66
14100 On ch=1 n=g3 v=66
14128 Off ch=1 n=g4 v=64
14130 Off ch=1 n=g3 v=64
14221 On ch=1 n=g3 v=63
14225 On ch=1 n=g4 v=62
14251 Off ch=1 n=g3 v=64
14255 Off ch=1 n=g4 v=64
14347 On ch=1 n=g4 v=50
14353 On ch=1 n=g3 v=50
14377 Off ch=1 n=g4 v=64
14383 Off ch=1 n=g3 v=64
14481 On ch=1 n=g4 v=48
14481 On ch=1 n=g3 v=50
14529 Off ch=1 n=g3 v=64
14529 Off ch=1 n=g4 v=64
14615 On ch=1 n=g4 v=41
14615 On ch=1 n=g3 v=41
14675 Off ch=1 n=g3 v=64
14675 Off ch=1 n=g4 v=64
14750 On ch=1 n=g3 v=32
14752 On ch=1 n=g4 v=32
14813 Off ch=1 n=g3 v=64
14815 Off ch=1 n=g4 v=64
14894 On ch=1 n=g4 v=32
14898 On ch=1 n=g3 v=29
14968 Off ch=1 n=g4 v=64
14972 Off ch=1 n=g3 v=64
15050 On ch=1 n=g3 v=24
15051 On ch=1 n=g4 v=26
15273 Par ch=1 c=64 v=0
15285 Par ch=1 c=64 v=0
15342 Off ch=1 n=g3 v=64
15343 Off ch=1 n=g4 v=64
15343 Meta TrkEnd
TrkEnd
MTrk
0 Meta TrkName "Played by Dr. Ron Lubetsky"
0 Meta TrkEnd
TrkEnd
MTrk
0 Meta TrkName "Jan. 8, 1998"
0 Meta TrkEnd
TrkEnd
MTrk
0 Meta TrkName "email: acuity2020@aol.com"
0 Meta TrkEnd
TrkEnd
MTrk
0 Meta TrkName "Copyright \xffffffa9 1998"
0 Meta TrkEnd
TrkEnd
MTrk
0 Meta TrkName "All Rights Reserved"
0 Meta TrkEnd
TrkEnd
