MFile 1 2 480
MTrk
0 Tempo 500000
0 TimeSig 3/4 24 8
0 Meta TrkEnd
TrkEnd
MTrk
0 SeqSpec 43 00 01 00
0 Meta TrkName "<Master Volume>"
0 Meta 0x21 00
0 SysEx f0 41 10 42 12 40 00 7f 00 41 f7
0 SysEx f0 41 10 42 12 40 00 04 64 58 f7
192 Meta Text "<Master Reverve>"
192 SysEx f0 41 10 42 12 40 01 30 03 0c f7
192 SysEx f0 41 10 42 12 40 01 33 3c 50 f7
192 SysEx f0 41 10 42 12 40 01 34 3c 4f f7
576 Par ch=1 c=0 v=0
580 Par ch=1 c=32 v=1
584 PrCh ch=1 p=0
642 Par ch=1 c=67 v=0
780 Par ch=1 c=7 v=100
972 Par ch=1 c=11 v=80
1164 Par ch=1 c=10 v=64
1266 Par ch=1 c=67 v=127
1356 Par ch=1 c=1 v=0
1356 Meta Text "<part reverve>"
1356 Par ch=1 c=91 v=80
1374 Par ch=1 c=67 v=0
1452 Par ch=1 c=99 v=1
1456 Par ch=1 c=98 v=32
1460 Par ch=1 c=6 v=62
1464 Par ch=1 c=99 v=1
1468 Par ch=1 c=98 v=33
1472 Par ch=1 c=6 v=54
1476 Par ch=1 c=99 v=1
1480 Par ch=1 c=98 v=99
1484 Par ch=1 c=6 v=62
1488 Par ch=1 c=99 v=1
1492 Par ch=1 c=98 v=100
1496 Par ch=1 c=6 v=60
1500 Par ch=1 c=99 v=1
1504 Par ch=1 c=98 v=102
1508 Par ch=1 c=6 v=70
1814 Par ch=1 c=67 v=127
2728 Par ch=1 c=64 v=63
2766 Par ch=1 c=64 v=127
2966 On ch=1 n=f#6 v=47
2994 On ch=1 n=a6 v=51
3214 On ch=1 n=a6 v=0
3218 On ch=1 n=f#6 v=0
3224 On ch=1 n=d#7 v=65
3234 On ch=1 n=a#6 v=50
3328 On ch=1 n=a#6 v=0
3332 On ch=1 n=d#7 v=0
3344 On ch=1 n=c6 v=43
3424 On ch=1 n=f6 v=73
3566 On ch=1 n=f#6 v=80
3568 On ch=1 n=a#6 v=80
3590 On ch=1 n=f6 v=0
3592 On ch=1 n=g#5 v=51
3642 On ch=1 n=f#6 v=0
3660 On ch=1 n=a#6 v=0
3702 On ch=1 n=c6 v=0
3752 On ch=1 n=e6 v=76
3778 On ch=1 n=g#5 v=0
3894 On ch=1 n=a#5 v=79
3934 On ch=1 n=e6 v=0
4002 On ch=1 n=g6 v=88
4068 On ch=1 n=f#5 v=73
4100 On ch=1 n=a#5 v=0
4130 On ch=1 n=g#6 v=93
4142 On ch=1 n=c7 v=83
4168 On ch=1 n=f#5 v=0
4176 On ch=1 n=g6 v=0
4236 On ch=1 n=g#6 v=0
4250 On ch=1 n=c7 v=0
4280 On ch=1 n=a6 v=94
4288 On ch=1 n=g#6 v=83
4394 On ch=1 n=d#7 v=99
4402 On ch=1 n=a#6 v=94
4404 On ch=1 n=g#6 v=0
4424 On ch=1 n=a6 v=0
4436 On ch=1 n=d6 v=71
4514 On ch=1 n=a#6 v=0
4514 On ch=1 n=b6 v=93
4554 On ch=1 n=d#7 v=0
4566 On ch=1 n=a#5 v=67
4606 On ch=1 n=d6 v=0
4618 On ch=1 n=f7 v=102
4620 On ch=1 n=c7 v=99
4630 On ch=1 n=b6 v=0
4718 On ch=1 n=c7 v=0
4740 On ch=1 n=a6 v=87
4752 On ch=1 n=f#6 v=78
4754 On ch=1 n=a#5 v=0
4756 On ch=1 n=f7 v=0
4756 Par ch=1 c=64 v=63
4814 Par ch=1 c=64 v=127
4854 On ch=1 n=a6 v=0
4874 On ch=1 n=d#7 v=93
4876 On ch=1 n=a#6 v=83
4898 On ch=1 n=f#6 v=0
4916 On ch=1 n=c6 v=62
4972 On ch=1 n=a#6 v=0
4972 On ch=1 n=d#7 v=0
5002 On ch=1 n=f6 v=75
5078 On ch=1 n=g#5 v=71
5128 On ch=1 n=f#6 v=88
5132 On ch=1 n=c6 v=0
5132 On ch=1 n=a#6 v=84
5134 On ch=1 n=f6 v=0
5200 On ch=1 n=f#6 v=0
5220 On ch=1 n=a#6 v=0
5262 On ch=1 n=g#5 v=0
5264 On ch=1 n=e6 v=93
5392 On ch=1 n=a#5 v=82
5442 On ch=1 n=g6 v=94
5444 On ch=1 n=e6 v=0
5530 On ch=1 n=f#5 v=83
5548 On ch=1 n=g#6 v=106
5562 On ch=1 n=c7 v=99
5566 On ch=1 n=a#5 v=0
5590 On ch=1 n=g6 v=0
5626 On ch=1 n=f#5 v=0
5652 On ch=1 n=g#6 v=0
5666 On ch=1 n=c7 v=0
5692 On ch=1 n=g#6 v=101
5696 On ch=1 n=a6 v=91
5790 On ch=1 n=g#6 v=0
5806 On ch=1 n=a6 v=0
5826 On ch=1 n=d#7 v=104
5838 On ch=1 n=a#6 v=96
5850 On ch=1 n=d6 v=79
5930 On ch=1 n=a#6 v=0
5944 On ch=1 n=d#7 v=0
5950 On ch=1 n=b6 v=93
6008 On ch=1 n=a#5 v=76
6012 On ch=1 n=d6 v=0
6064 On ch=1 n=b6 v=0
6072 On ch=1 n=a#5 v=0
6076 On ch=1 n=c7 v=97
6080 On ch=1 n=f7 v=89
6160 On ch=1 n=c7 v=0
6174 On ch=1 n=f7 v=0
6284 On ch=1 n=c#5 v=82
6296 Par ch=1 c=64 v=63
6304 On ch=1 n=d#7 v=91
6366 Par ch=1 c=64 v=127
6440 On ch=1 n=g#6 v=83
6480 On ch=1 n=d#7 v=0
6482 On ch=1 n=g#5 v=73
6498 On ch=1 n=c#5 v=0
6552 On ch=1 n=d#6 v=88
6572 On ch=1 n=g#5 v=0
6582 On ch=1 n=g#6 v=0
6624 On ch=1 n=d#6 v=0
6650 On ch=1 n=e6 v=83
6654 On ch=1 n=c#7 v=98
6740 On ch=1 n=e6 v=0
6758 On ch=1 n=g#6 v=96
6794 On ch=1 n=c#7 v=0
6836 On ch=1 n=c#6 v=96
6840 On ch=1 n=g#6 v=0
6890 On ch=1 n=c#6 v=0
6922 On ch=1 n=g#6 v=96
6996 On ch=1 n=f6 v=75
7052 On ch=1 n=g#6 v=0
7092 On ch=1 n=f6 v=0
7092 On ch=1 n=g#5 v=100
7144 On ch=1 n=g#5 v=0
7198 On ch=1 n=g#4 v=77
7206 On ch=1 n=d#6 v=93
7230 Par ch=1 c=64 v=63
7250 Par ch=1 c=64 v=127
7308 On ch=1 n=g#5 v=87
7316 On ch=1 n=g#4 v=0
7344 On ch=1 n=d#6 v=0
7344 On ch=1 n=e5 v=72
7396 On ch=1 n=d#5 v=82
7412 On ch=1 n=g#5 v=0
7414 On ch=1 n=e5 v=0
7454 On ch=1 n=d#5 v=0
7484 On ch=1 n=c#6 v=104
7500 On ch=1 n=c#4 v=76
7570 On ch=1 n=c#4 v=0
7584 On ch=1 n=g#5 v=83
7610 On ch=1 n=c#6 v=0
7668 On ch=1 n=g#5 v=0
7676 On ch=1 n=c#5 v=91
7742 On ch=1 n=c#5 v=0
7788 On ch=1 n=g#5 v=90
7920 On ch=1 n=f5 v=71
7976 On ch=1 n=g#5 v=0
8008 On ch=1 n=g#4 v=84
8106 On ch=1 n=g#4 v=0
8138 On ch=1 n=f5 v=0
8232 On ch=1 n=e4 v=69
8338 On ch=1 n=f5 v=76
8390 Par ch=1 c=64 v=63
8492 Par ch=1 c=64 v=127
8502 On ch=1 n=c#6 v=83
8518 On ch=1 n=f#5 v=67
8552 On ch=1 n=g#4 v=61
8562 On ch=1 n=f5 v=0
8624 On ch=1 n=c#6 v=0
8660 On ch=1 n=e5 v=84
8698 On ch=1 n=f#5 v=0
8712 On ch=1 n=e4 v=0
8754 On ch=1 n=g#4 v=0
8758 On ch=1 n=e5 v=0
8782 On ch=1 n=d5 v=57
8784 On ch=1 n=f5 v=89
8784 On ch=1 n=b5 v=91
8834 On ch=1 n=d5 v=0
8900 On ch=1 n=f5 v=0
8928 On ch=1 n=b5 v=0
8950 On ch=1 n=f#5 v=100
9046 On ch=1 n=f#5 v=0
9086 On ch=1 n=d5 v=83
9184 On ch=1 n=f5 v=91
9282 On ch=1 n=g#4 v=72
9286 On ch=1 n=b5 v=93
9288 On ch=1 n=f#5 v=88
9316 On ch=1 n=f5 v=0
9338 On ch=1 n=d5 v=0
9392 On ch=1 n=g#4 v=0
9422 On ch=1 n=d#5 v=98
9442 On ch=1 n=a4 v=67
9446 On ch=1 n=b5 v=0
9450 On ch=1 n=f#5 v=0
9474 Par ch=1 c=64 v=63
9524 On ch=1 n=d#5 v=0
9530 On ch=1 n=b5 v=85
9544 Par ch=1 c=64 v=127
9644 On ch=1 n=c#5 v=94
9658 On ch=1 n=e5 v=43
9688 On ch=1 n=b5 v=0
9738 On ch=1 n=c#5 v=0
9742 On ch=1 n=a4 v=0
9776 On ch=1 n=a5 v=70
9808 On ch=1 n=e5 v=0
9896 On ch=1 n=e4 v=65
9914 On ch=1 n=f5 v=86
9944 On ch=1 n=a5 v=0
10006 Par ch=1 c=64 v=63
10058 On ch=1 n=c#6 v=95
10062 On ch=1 n=f#5 v=79
10074 On ch=1 n=f5 v=0
10090 On ch=1 n=g#4 v=65
10100 Par ch=1 c=64 v=127
10192 On ch=1 n=e5 v=81
10194 On ch=1 n=c#6 v=0
10236 On ch=1 n=f#5 v=0
10260 On ch=1 n=e4 v=0
10274 On ch=1 n=d5 v=59
10290 On ch=1 n=g#4 v=0
10320 On ch=1 n=e5 v=0
10330 On ch=1 n=b5 v=90
10332 On ch=1 n=f5 v=85
10350 On ch=1 n=d5 v=0
10426 On ch=1 n=f5 v=0
10464 On ch=1 n=b5 v=0
10478 On ch=1 n=f#5 v=103
10558 On ch=1 n=f#5 v=0
10638 On ch=1 n=d5 v=77
10732 On ch=1 n=f5 v=106
10826 On ch=1 n=d5 v=0
10874 On ch=1 n=b5 v=91
10876 On ch=1 n=g#4 v=80
10882 On ch=1 n=f#5 v=90
10910 On ch=1 n=f5 v=0
10940 On ch=1 n=g#4 v=0
11050 On ch=1 n=d#5 v=94
11080 On ch=1 n=b5 v=0
11092 On ch=1 n=f#5 v=0
11094 On ch=1 n=a3 v=66
11160 Par ch=1 c=64 v=63
11174 On ch=1 n=d#5 v=0
11210 On ch=1 n=b5 v=80
11216 On ch=1 n=e5 v=70
11250 Par ch=1 c=64 v=127
11334 On ch=1 n=b5 v=0
11354 On ch=1 n=e4 v=54
11370 On ch=1 n=e5 v=0
11370 On ch=1 n=c5 v=83
11420 On ch=1 n=a3 v=0
11556 On ch=1 n=c5 v=0
11566 On ch=1 n=c#5 v=85
11582 On ch=1 n=e4 v=0
11586 On ch=1 n=a5 v=63
11590 On ch=1 n=a4 v=60
11654 On ch=1 n=a4 v=0
11720 On ch=1 n=a5 v=0
11790 On ch=1 n=c#5 v=0
11848 On ch=1 n=d#3 v=88
12004 Par ch=1 c=64 v=63
12028 Par ch=1 c=64 v=0
12112 On ch=1 n=a#3 v=78
12116 Par ch=1 c=64 v=63
12130 Par ch=1 c=64 v=127
12190 On ch=1 n=d#3 v=0
12310 On ch=1 n=f#4 v=71
12330 On ch=1 n=a#3 v=0
12430 On ch=1 n=f#4 v=0
12434 On ch=1 n=g4 v=74
12516 On ch=1 n=f5 v=57
12518 On ch=1 n=c#5 v=58
12536 On ch=1 n=g4 v=0
12662 On ch=1 n=a4 v=76
12674 On ch=1 n=f5 v=0
12724 On ch=1 n=c#5 v=0
12796 On ch=1 n=a#4 v=87
12812 On ch=1 n=a4 v=0
12872 On ch=1 n=a#4 v=0
12918 On ch=1 n=a#4 v=83
13030 On ch=1 n=d#5 v=88
13126 On ch=1 n=f#5 v=85
13164 On ch=1 n=a#4 v=0
13178 On ch=1 n=d#5 v=0
13190 On ch=1 n=g5 v=77
13214 On ch=1 n=f#5 v=0
13248 On ch=1 n=g5 v=0
13272 On ch=1 n=a5 v=76
13358 On ch=1 n=a#5 v=82
13402 On ch=1 n=a5 v=0
13416 On ch=1 n=c#6 v=88
13446 On ch=1 n=a#5 v=0
13482 On ch=1 n=f6 v=85
13508 On ch=1 n=c#6 v=0
13576 On ch=1 n=f6 v=0
13594 On ch=1 n=a#5 v=88
13656 On ch=1 n=a#5 v=0
13670 On ch=1 n=d#6 v=82
13764 On ch=1 n=f#6 v=87
13836 On ch=1 n=g6 v=74
13894 On ch=1 n=f#6 v=0
13912 On ch=1 n=a6 v=74
13914 On ch=1 n=d#6 v=0
13924 On ch=1 n=g6 v=0
14008 On ch=1 n=a#6 v=80
14032 On ch=1 n=a6 v=0
14084 On ch=1 n=c#7 v=69
14122 On ch=1 n=a#6 v=0
14200 On ch=1 n=c#7 v=0
14202 On ch=1 n=f7 v=48
14246 On ch=1 n=f7 v=0
14524 Par ch=1 c=64 v=63
14568 Par ch=1 c=64 v=0
14778 Par ch=1 c=64 v=63
14800 On ch=1 n=a#5 v=70
14806 Par ch=1 c=64 v=127
14976 On ch=1 n=d6 v=62
14984 On ch=1 n=a#5 v=0
15054 On ch=1 n=d#6 v=80
15110 On ch=1 n=d6 v=0
15116 On ch=1 n=f#6 v=80
15154 On ch=1 n=d#6 v=0
15174 On ch=1 n=g6 v=70
15190 On ch=1 n=f#6 v=0
15200 On ch=1 n=a6 v=67
15222 On ch=1 n=g6 v=0
15260 On ch=1 n=a#6 v=72
15292 On ch=1 n=a6 v=0
15298 On ch=1 n=c#7 v=74
15340 On ch=1 n=a#6 v=0
15368 On ch=1 n=c#7 v=0
15370 On ch=1 n=f7 v=67
15474 On ch=1 n=f7 v=0
15476 On ch=1 n=a#7 v=83
15590 On ch=1 n=f8 v=60
15608 On ch=1 n=c#8 v=75
15626 On ch=1 n=a#7 v=0
15682 On ch=1 n=f8 v=0
15700 On ch=1 n=c#8 v=0
16290 Par ch=1 c=64 v=63
16318 Par ch=1 c=64 v=0
16566 Par ch=1 c=64 v=63
16596 Par ch=1 c=64 v=127
16650 On ch=1 n=d#8 v=92
16652 On ch=1 n=d#7 v=94
16664 On ch=1 n=c#7 v=52
16664 On ch=1 n=c#6 v=60
16666 On ch=1 n=c#8 v=64
16690 On ch=1 n=d#6 v=42
16706 On ch=1 n=d#7 v=0
16726 On ch=1 n=c#8 v=0
16732 On ch=1 n=d#8 v=0
16746 On ch=1 n=c#6 v=0
16750 On ch=1 n=c#7 v=0
16758 On ch=1 n=d#6 v=0
16972 On ch=1 n=g6 v=40
16976 On ch=1 n=g7 v=50
16976 On ch=1 n=f6 v=19
16982 On ch=1 n=f7 v=36
17096 On ch=1 n=f7 v=0
17106 On ch=1 n=g6 v=0
17118 On ch=1 n=g7 v=0
17128 On ch=1 n=f6 v=0
17544 Par ch=1 c=64 v=63
17586 Par ch=1 c=64 v=0
17860 Par ch=1 c=64 v=63
17892 Par ch=1 c=64 v=127
17928 On ch=1 n=d#7 v=58
17936 On ch=1 n=c#7 v=51
17944 On ch=1 n=d#6 v=55
17948 On ch=1 n=c#6 v=55
18032 On ch=1 n=d#6 v=0
18036 On ch=1 n=c#6 v=0
18036 On ch=1 n=c#7 v=0
18052 On ch=1 n=d#7 v=0
18570 Par ch=1 c=64 v=63
18646 Par ch=1 c=64 v=0
18958 Par ch=1 c=64 v=63
19032 Par ch=1 c=64 v=127
19244 On ch=1 n=a6 v=41
19246 On ch=1 n=g6 v=34
19418 On ch=1 n=g6 v=0
19448 On ch=1 n=a6 v=0
19984 Par ch=1 c=64 v=63
20042 Par ch=1 c=64 v=0
20350 Par ch=1 c=67 v=0
20732 Par ch=1 c=67 v=127
21234 On ch=1 n=f#6 v=51
21244 On ch=1 n=a6 v=57
21256 Par ch=1 c=64 v=63
21274 Par ch=1 c=64 v=127
21492 On ch=1 n=d#7 v=71
21494 On ch=1 n=a6 v=0
21506 On ch=1 n=f#6 v=0
21508 On ch=1 n=a#6 v=60
21526 On ch=1 n=c6 v=49
21592 On ch=1 n=a#6 v=0
21592 On ch=1 n=d#7 v=0
21698 On ch=1 n=f6 v=59
21720 On ch=1 n=g#5 v=63
21788 On ch=1 n=c6 v=0
21818 On ch=1 n=f#6 v=79
21824 On ch=1 n=a#6 v=76
21846 On ch=1 n=f6 v=0
21892 On ch=1 n=f#6 v=0
21906 On ch=1 n=a#6 v=0
21950 On ch=1 n=e6 v=82
21958 On ch=1 n=g#5 v=0
22100 On ch=1 n=a#5 v=78
22128 On ch=1 n=e6 v=0
22210 On ch=1 n=f#5 v=76
22210 On ch=1 n=g6 v=91
22248 On ch=1 n=a#5 v=0
22294 On ch=1 n=f#5 v=0
22334 On ch=1 n=g#6 v=94
22350 On ch=1 n=c7 v=86
22374 On ch=1 n=g6 v=0
22432 On ch=1 n=c7 v=0
22476 On ch=1 n=a6 v=91
22556 On ch=1 n=g#6 v=0
22566 On ch=1 n=d#7 v=101
22578 On ch=1 n=a#6 v=89
22578 On ch=1 n=d6 v=79
22594 On ch=1 n=a6 v=0
22668 On ch=1 n=a#6 v=0
22686 On ch=1 n=b6 v=90
22702 On ch=1 n=d#7 v=0
22746 On ch=1 n=a#5 v=67
22776 On ch=1 n=f7 v=96
22782 On ch=1 n=c7 v=86
22788 On ch=1 n=d6 v=0
22794 On ch=1 n=b6 v=0
22894 On ch=1 n=c7 v=0
22914 Par ch=1 c=64 v=63
22920 On ch=1 n=a#5 v=0
22924 On ch=1 n=f#6 v=78
22932 On ch=1 n=f7 v=0
22934 On ch=1 n=a6 v=84
22958 Par ch=1 c=64 v=0
22974 Par ch=1 c=64 v=63
23014 Par ch=1 c=64 v=127
23078 On ch=1 n=a6 v=0
23096 On ch=1 n=f#6 v=0
23106 On ch=1 n=d#7 v=91
23108 On ch=1 n=a#6 v=81
23112 On ch=1 n=c6 v=64
23188 On ch=1 n=a#6 v=0
23190 On ch=1 n=d#7 v=0
23238 On ch=1 n=f6 v=78
23254 On ch=1 n=g#5 v=72
23294 On ch=1 n=c6 v=0
23334 On ch=1 n=f#6 v=96
23336 On ch=1 n=f6 v=0
23336 On ch=1 n=a#6 v=93
23390 On ch=1 n=f#6 v=0
23406 On ch=1 n=a#6 v=0
23428 On ch=1 n=g#5 v=0
23440 On ch=1 n=e6 v=98
23566 On ch=1 n=a#5 v=95
23600 On ch=1 n=e6 v=0
23654 On ch=1 n=g6 v=97
23684 On ch=1 n=f#5 v=85
23710 On ch=1 n=a#5 v=0
23762 On ch=1 n=g#6 v=101
23768 On ch=1 n=f#5 v=0
23774 On ch=1 n=c7 v=97
23802 On ch=1 n=g6 v=0
23852 On ch=1 n=g#6 v=0
23870 On ch=1 n=c7 v=0
23874 On ch=1 n=g#6 v=90
23908 On ch=1 n=a6 v=93
23954 On ch=1 n=g#6 v=0
24010 On ch=1 n=d#7 v=103
24026 On ch=1 n=a#6 v=90
24028 On ch=1 n=d6 v=76
24032 On ch=1 n=a6 v=0
24108 On ch=1 n=a#6 v=0
24130 On ch=1 n=d#7 v=0
24148 On ch=1 n=b6 v=87
24182 On ch=1 n=a#5 v=76
24190 On ch=1 n=d6 v=0
24236 On ch=1 n=a#5 v=0
24248 On ch=1 n=b6 v=0
24258 On ch=1 n=f7 v=89
24260 On ch=1 n=c7 v=85
24334 On ch=1 n=c7 v=0
24350 On ch=1 n=f7 v=0
24460 On ch=1 n=c#5 v=82
24490 Par ch=1 c=64 v=63
24504 On ch=1 n=d#7 v=92
24536 Par ch=1 c=64 v=0
24554 Par ch=1 c=64 v=63
24592 Par ch=1 c=64 v=127
24614 On ch=1 n=g#6 v=79
24664 On ch=1 n=d#7 v=0
24668 On ch=1 n=g#5 v=70
24700 On ch=1 n=c#5 v=0
24726 On ch=1 n=d#6 v=78
24768 On ch=1 n=g#6 v=0
24786 On ch=1 n=g#5 v=0
24796 On ch=1 n=d#6 v=0
24834 On ch=1 n=c#7 v=98
24840 On ch=1 n=e6 v=69
24926 On ch=1 n=e6 v=0
24926 On ch=1 n=g#6 v=84
24960 On ch=1 n=c#7 v=0
25000 On ch=1 n=g#6 v=0
25002 On ch=1 n=c#6 v=96
25064 On ch=1 n=c#6 v=0
25096 On ch=1 n=g#6 v=98
25132 On ch=1 n=f6 v=73
25232 On ch=1 n=g#5 v=100
25254 On ch=1 n=g#6 v=0
25262 On ch=1 n=g#5 v=0
25278 On ch=1 n=f6 v=0
25290 Par ch=1 c=64 v=63
25298 Par ch=1 c=64 v=0
25340 On ch=1 n=f5 v=84
25346 Par ch=1 c=64 v=63
25362 Par ch=1 c=64 v=127
25390 On ch=1 n=g7 v=98
25442 On ch=1 n=f7 v=8
25478 On ch=1 n=f5 v=0
25498 On ch=1 n=c7 v=92
25508 On ch=1 n=f7 v=0
25510 On ch=1 n=g7 v=0
25514 On ch=1 n=c6 v=72
25578 On ch=1 n=c6 v=0
25578 On ch=1 n=g6 v=75
25590 On ch=1 n=c7 v=0
25644 On ch=1 n=g6 v=0
25652 On ch=1 n=g#6 v=100
25672 On ch=1 n=f7 v=106
25708 On ch=1 n=g#6 v=0
25754 On ch=1 n=c7 v=86
25782 On ch=1 n=f7 v=0
25814 On ch=1 n=f6 v=76
25822 On ch=1 n=c7 v=0
25866 On ch=1 n=f6 v=0
25900 On ch=1 n=c7 v=106
25978 On ch=1 n=f6 v=90
26016 On ch=1 n=c7 v=0
26060 On ch=1 n=c6 v=75
26066 On ch=1 n=f6 v=0
26112 On ch=1 n=c6 v=0
26152 On ch=1 n=g6 v=101
26162 On ch=1 n=c5 v=76
26254 On ch=1 n=c5 v=0
26256 On ch=1 n=c6 v=89
26268 On ch=1 n=g6 v=0
26300 On ch=1 n=g#5 v=69
26334 On ch=1 n=g5 v=68
26348 On ch=1 n=g#5 v=0
26356 On ch=1 n=c6 v=0
26416 On ch=1 n=g5 v=0
26430 On ch=1 n=f4 v=61
26436 On ch=1 n=f6 v=103
26498 On ch=1 n=f4 v=0
26530 On ch=1 n=c6 v=73
26534 On ch=1 n=f6 v=0
26604 On ch=1 n=c6 v=0
26606 On ch=1 n=f5 v=72
26676 On ch=1 n=f5 v=0
26706 On ch=1 n=c6 v=93
26808 On ch=1 n=f5 v=79
26816 On ch=1 n=c6 v=0
26896 On ch=1 n=c5 v=81
26940 On ch=1 n=f5 v=0
26996 On ch=1 n=c5 v=0
27058 On ch=1 n=a#4 v=77
27130 Par ch=1 c=64 v=63
27148 Par ch=1 c=64 v=0
27150 On ch=1 n=c6 v=86
27236 Par ch=1 c=64 v=63
27250 Par ch=1 c=64 v=127
27322 On ch=1 n=c5 v=59
27386 On ch=1 n=a#4 v=0
27404 On ch=1 n=c#5 v=70
27412 On ch=1 n=c6 v=0
27452 On ch=1 n=c5 v=0
27490 On ch=1 n=g#5 v=89
27494 On ch=1 n=c#5 v=0
27546 On ch=1 n=g#5 v=0
27590 On ch=1 n=e5 v=79
27670 On ch=1 n=f5 v=76
27672 On ch=1 n=e5 v=0
27736 On ch=1 n=a#5 v=106
27748 On ch=1 n=f5 v=0
27818 On ch=1 n=f5 v=60
27868 On ch=1 n=a#5 v=0
27870 On ch=1 n=d5 v=87
27910 On ch=1 n=f5 v=0
27940 On ch=1 n=d5 v=0
27958 Par ch=1 c=64 v=63
27970 Par ch=1 c=64 v=0
27976 On ch=1 n=d6 v=114
27984 On ch=1 n=c5 v=78
28002 Par ch=1 c=64 v=63
28030 Par ch=1 c=64 v=127
28068 On ch=1 n=d#5 v=87
28120 On ch=1 n=d6 v=0
28138 On ch=1 n=e5 v=88
28156 On ch=1 n=c5 v=0
28170 On ch=1 n=d#5 v=0
28206 On ch=1 n=e5 v=0
28210 On ch=1 n=f#5 v=107
28276 On ch=1 n=f#5 v=0
28282 On ch=1 n=g5 v=74
28354 On ch=1 n=c6 v=91
28368 On ch=1 n=g5 v=0
28418 On ch=1 n=c6 v=0
28500 On ch=1 n=g5 v=52
28564 On ch=1 n=a#5 v=80
28622 On ch=1 n=b5 v=79
28644 On ch=1 n=a#5 v=0
28660 On ch=1 n=g5 v=0
28676 On ch=1 n=c6 v=80
28690 On ch=1 n=b5 v=0
28740 On ch=1 n=c6 v=0
28748 On ch=1 n=g6 v=96
28816 On ch=1 n=g6 v=0
29134 On ch=1 n=a#4 v=70
29200 On ch=1 n=c6 v=97
29204 Par ch=1 c=64 v=63
29214 Par ch=1 c=64 v=0
29266 Par ch=1 c=64 v=63
29292 Par ch=1 c=64 v=127
29348 On ch=1 n=c5 v=53
29368 On ch=1 n=a#4 v=0
29392 On ch=1 n=c#5 v=61
29438 On ch=1 n=c6 v=0
29480 On ch=1 n=c5 v=0
29480 On ch=1 n=g#5 v=88
29510 On ch=1 n=c#5 v=0
29542 On ch=1 n=g#5 v=0
29570 On ch=1 n=e5 v=86
29644 On ch=1 n=f5 v=83
29654 On ch=1 n=e5 v=0
29716 On ch=1 n=f5 v=0
29726 On ch=1 n=a#5 v=94
29792 On ch=1 n=f5 v=76
29868 On ch=1 n=a#5 v=0
29868 On ch=1 n=d5 v=88
29888 On ch=1 n=f5 v=0
29938 On ch=1 n=d5 v=0
29964 Par ch=1 c=64 v=63
29974 Par ch=1 c=64 v=0
29978 On ch=1 n=d6 v=112
29984 On ch=1 n=c5 v=87
30016 Par ch=1 c=64 v=63
30038 Par ch=1 c=64 v=127
30084 On ch=1 n=d#5 v=97
30112 On ch=1 n=d6 v=0
30122 On ch=1 n=c5 v=0
30142 On ch=1 n=e5 v=77
30168 On ch=1 n=d#5 v=0
30186 On ch=1 n=e5 v=0
30210 On ch=1 n=f#5 v=104
30268 On ch=1 n=f#5 v=0
30278 On ch=1 n=g5 v=53
30318 On ch=1 n=c6 v=102
30350 On ch=1 n=g5 v=0
30398 On ch=1 n=c6 v=0
30428 On ch=1 n=g5 v=39
30494 On ch=1 n=a#5 v=80
30564 On ch=1 n=a#5 v=0
30570 On ch=1 n=g5 v=0
30576 On ch=1 n=b5 v=78
30640 On ch=1 n=c6 v=87
30656 On ch=1 n=b5 v=0
30712 On ch=1 n=c6 v=0
30732 On ch=1 n=g6 v=89
30806 On ch=1 n=g6 v=0
31120 On ch=1 n=a#4 v=64
31194 Par ch=1 c=64 v=63
31202 Par ch=1 c=64 v=0
31202 On ch=1 n=c6 v=83
31274 Par ch=1 c=64 v=63
31300 Par ch=1 c=64 v=127
31358 On ch=1 n=c5 v=56
31420 On ch=1 n=c#5 v=72
31438 On ch=1 n=a#4 v=0
31508 On ch=1 n=g#5 v=86
31526 On ch=1 n=c6 v=0
31572 On ch=1 n=g#5 v=0
31586 On ch=1 n=c5 v=0
31588 On ch=1 n=c#5 v=0
31612 On ch=1 n=e5 v=78
31694 On ch=1 n=f5 v=85
31706 On ch=1 n=e5 v=0
31770 On ch=1 n=a#5 v=97
31774 On ch=1 n=f5 v=0
31858 On ch=1 n=f5 v=80
31896 On ch=1 n=a#5 v=0
31940 On ch=1 n=d5 v=84
31946 On ch=1 n=f5 v=0
32010 On ch=1 n=d5 v=0
32068 On ch=1 n=g#4 v=78
32076 On ch=1 n=g5 v=101
32080 Par ch=1 c=64 v=63
32088 Par ch=1 c=64 v=0
32150 Par ch=1 c=64 v=63
32174 Par ch=1 c=64 v=127
32224 On ch=1 n=a#4 v=72
32296 On ch=1 n=g#4 v=0
32348 On ch=1 n=c#5 v=75
32382 On ch=1 n=a#4 v=0
32398 On ch=1 n=c#5 v=0
32428 On ch=1 n=g#5 v=101
32480 On ch=1 n=g#5 v=0
32564 On ch=1 n=b4 v=79
32634 On ch=1 n=g5 v=0
32640 On ch=1 n=d5 v=71
32648 On ch=1 n=b4 v=0
32710 On ch=1 n=f5 v=104
32720 On ch=1 n=d5 v=0
32802 On ch=1 n=d5 v=91
32888 On ch=1 n=f5 v=0
32890 On ch=1 n=b4 v=77
32928 On ch=1 n=d5 v=0
32972 On ch=1 n=b4 v=0
33004 On ch=1 n=f4 v=61
33012 On ch=1 n=g5 v=107
33050 Par ch=1 c=64 v=63
33058 Par ch=1 c=64 v=0
33086 On ch=1 n=g#4 v=63
33112 Par ch=1 c=64 v=63
33134 Par ch=1 c=64 v=127
33180 On ch=1 n=b4 v=69
33218 On ch=1 n=g5 v=0
33234 On ch=1 n=f4 v=0
33238 On ch=1 n=g#4 v=0
33242 On ch=1 n=b4 v=0
33276 On ch=1 n=f5 v=107
33356 On ch=1 n=d#5 v=98
33382 On ch=1 n=f5 v=0
33418 On ch=1 n=d#5 v=0
33426 On ch=1 n=a4 v=80
33496 On ch=1 n=a4 v=0
33540 On ch=1 n=d5 v=117
33552 On ch=1 n=d#4 v=80
33580 Par ch=1 c=64 v=63
33592 Par ch=1 c=64 v=0
33622 Par ch=1 c=64 v=63
33630 On ch=1 n=f#4 v=80
33648 Par ch=1 c=64 v=127
33712 On ch=1 n=a4 v=85
33750 On ch=1 n=d5 v=0
33762 On ch=1 n=f#4 v=0
33780 On ch=1 n=d#4 v=0
33784 On ch=1 n=a4 v=0
33792 On ch=1 n=c5 v=109
33864 On ch=1 n=a4 v=86
33906 On ch=1 n=c5 v=0
33930 On ch=1 n=f#4 v=100
33974 On ch=1 n=a4 v=0
34002 On ch=1 n=f#4 v=0
34044 On ch=1 n=c4 v=89
34056 On ch=1 n=d5 v=113
34066 Par ch=1 c=64 v=63
34076 Par ch=1 c=64 v=0
34138 On ch=1 n=d#4 v=82
34142 Par ch=1 c=64 v=63
34164 Par ch=1 c=64 v=127
34220 On ch=1 n=f#4 v=91
34258 On ch=1 n=d5 v=0
34290 On ch=1 n=c4 v=0
34294 On ch=1 n=f#4 v=0
34302 On ch=1 n=d#4 v=0
34312 On ch=1 n=c5 v=111
34386 On ch=1 n=a#4 v=99
34420 On ch=1 n=c5 v=0
34460 On ch=1 n=a#4 v=0
34460 On ch=1 n=e4 v=92
34530 On ch=1 n=e4 v=0
34584 On ch=1 n=a#3 v=83
34586 On ch=1 n=a4 v=112
34606 Par ch=1 c=64 v=63
34616 Par ch=1 c=64 v=0
34672 On ch=1 n=c#4 v=81
34680 Par ch=1 c=64 v=63
34702 Par ch=1 c=64 v=127
34766 On ch=1 n=d4 v=77
34802 On ch=1 n=c#4 v=0
34814 On ch=1 n=d4 v=0
34828 On ch=1 n=a4 v=0
34834 On ch=1 n=a#3 v=0
34850 On ch=1 n=g4 v=93
34930 On ch=1 n=e4 v=83
34944 On ch=1 n=g4 v=0
35008 On ch=1 n=c#4 v=89
35042 On ch=1 n=e4 v=0
35102 On ch=1 n=c#4 v=0
35152 On ch=1 n=g3 v=84
35188 Par ch=1 c=64 v=63
35196 Par ch=1 c=64 v=0
35206 On ch=1 n=a4 v=99
35274 Par ch=1 c=64 v=63
35288 Par ch=1 c=64 v=127
35366 On ch=1 n=g3 v=0
35376 On ch=1 n=c#4 v=78
35452 On ch=1 n=a4 v=0
35476 On ch=1 n=c#4 v=0
35544 On ch=1 n=a#4 v=84
35652 On ch=1 n=a#4 v=0
35678 On ch=1 n=b3 v=83
35776 On ch=1 n=b3 v=0
35780 On ch=1 n=d4 v=79
35852 On ch=1 n=d4 v=0
35886 On ch=1 n=g4 v=94
35990 On ch=1 n=g4 v=0
36050 On ch=1 n=f#4 v=54
36126 Par ch=1 c=64 v=63
36136 On ch=1 n=a#4 v=72
36180 Par ch=1 c=64 v=127
36226 On ch=1 n=f#4 v=0
36250 On ch=1 n=d4 v=65
36264 On ch=1 n=a#4 v=0
36330 On ch=1 n=d4 v=0
36344 On ch=1 n=b4 v=63
36396 On ch=1 n=d5 v=81
36440 On ch=1 n=b4 v=0
36462 On ch=1 n=d5 v=0
36496 On ch=1 n=f#5 v=75
36586 On ch=1 n=a#5 v=72
36598 On ch=1 n=f#5 v=0
36646 On ch=1 n=a#5 v=0
36690 On ch=1 n=b4 v=36
36704 On ch=1 n=d5 v=27
36746 On ch=1 n=b4 v=0
36748 On ch=1 n=d5 v=0
36762 On ch=1 n=b5 v=71
36882 On ch=1 n=d6 v=56
36926 On ch=1 n=b5 v=0
36998 On ch=1 n=d6 v=0
37108 Par ch=1 c=67 v=127
37342 Par ch=1 c=64 v=63
37384 Par ch=1 c=64 v=0
37588 On ch=1 n=c#6 v=78
37588 Par ch=1 c=64 v=63
37604 Par ch=1 c=64 v=127
37748 On ch=1 n=e6 v=49
37796 On ch=1 n=f#6 v=61
37884 On ch=1 n=a#6 v=80
37888 On ch=1 n=c#6 v=0
37926 On ch=1 n=d6 v=54
37928 On ch=1 n=e6 v=0
37932 On ch=1 n=f#6 v=0
37972 On ch=1 n=a#6 v=0
37998 On ch=1 n=g6 v=78
38026 On ch=1 n=d6 v=0
38060 On ch=1 n=b6 v=61
38106 On ch=1 n=d7 v=79
38118 On ch=1 n=g6 v=0
38164 On ch=1 n=b6 v=0
38170 On ch=1 n=c#7 v=55
38184 On ch=1 n=d7 v=0
38248 On ch=1 n=e7 v=64
38278 On ch=1 n=c#7 v=0
38286 On ch=1 n=f#7 v=83
38328 On ch=1 n=a#7 v=72
38352 On ch=1 n=e7 v=0
38372 On ch=1 n=f#7 v=0
38396 On ch=1 n=a#7 v=0
38420 On ch=1 n=d7 v=65
38484 On ch=1 n=g7 v=68
38514 On ch=1 n=d7 v=0
38568 On ch=1 n=b7 v=61
38626 On ch=1 n=g7 v=0
38682 On ch=1 n=d8 v=75
38722 On ch=1 n=b7 v=0
38780 On ch=1 n=d8 v=0
38858 On ch=1 n=g8 v=101
38932 On ch=1 n=g8 v=0
39688 Par ch=1 c=64 v=63
39782 Par ch=1 c=64 v=0
39922 Par ch=1 c=67 v=127
40084 Par ch=1 c=64 v=63
40138 Par ch=1 c=64 v=127
40228 On ch=1 n=c#6 v=69
40238 On ch=1 n=c#8 v=90
40246 On ch=1 n=g7 v=60
40308 On ch=1 n=c#8 v=0
40366 On ch=1 n=d8 v=66
40382 On ch=1 n=g5 v=38
40400 On ch=1 n=d7 v=5
40402 On ch=1 n=d6 v=37
40434 On ch=1 n=c#6 v=0
40478 Par ch=1 c=64 v=63
40514 Par ch=1 c=64 v=0
40696 Par ch=1 c=64 v=63
40716 Par ch=1 c=64 v=127
41198 On ch=1 n=d8 v=0
41214 On ch=1 n=d7 v=0
41258 On ch=1 n=g5 v=0
41266 On ch=1 n=g7 v=0
41290 On ch=1 n=d6 v=0
41632 Par ch=1 c=64 v=63
41678 Par ch=1 c=64 v=0
42706 Par ch=1 c=67 v=0
42818 Par ch=1 c=64 v=63
42830 Par ch=1 c=64 v=127
42928 On ch=1 n=b5 v=45
42956 On ch=1 n=d6 v=54
43032 On ch=1 n=g#6 v=37
43050 On ch=1 n=g7 v=90
43182 On ch=1 n=g#6 v=0
43188 On ch=1 n=d7 v=81
43224 On ch=1 n=g7 v=0
43244 On ch=1 n=d6 v=0
43290 On ch=1 n=d7 v=0
43324 On ch=1 n=g6 v=58
43346 On ch=1 n=b5 v=0
43396 On ch=1 n=g6 v=0
43444 On ch=1 n=d7 v=90
43540 On ch=1 n=g6 v=81
43552 On ch=1 n=d7 v=0
43632 On ch=1 n=d6 v=92
43646 On ch=1 n=g6 v=0
43656 On ch=1 n=b5 v=75
43698 On ch=1 n=d6 v=0
43728 Par ch=1 c=64 v=63
43740 Par ch=1 c=64 v=0
43760 Par ch=1 c=64 v=63
43786 On ch=1 n=d#6 v=82
43786 Par ch=1 c=64 v=127
43806 On ch=1 n=f#7 v=108
43808 On ch=1 n=a6 v=84
43932 On ch=1 n=c#7 v=75
43982 On ch=1 n=f#7 v=0
43986 On ch=1 n=d#6 v=0
43990 On ch=1 n=a6 v=0
44020 On ch=1 n=c#7 v=0
44024 On ch=1 n=f#6 v=79
44092 On ch=1 n=f#6 v=0
44138 On ch=1 n=c#7 v=88
44240 On ch=1 n=f#6 v=85
44276 On ch=1 n=c#7 v=0
44328 On ch=1 n=c#6 v=85
44366 On ch=1 n=f#6 v=0
44392 On ch=1 n=c#6 v=0
44394 On ch=1 n=a6 v=82
44464 On ch=1 n=c#6 v=76
44532 On ch=1 n=a6 v=0
44558 On ch=1 n=f#6 v=89
44586 On ch=1 n=c#6 v=0
44616 On ch=1 n=b5 v=0
44630 On ch=1 n=c#7 v=97
44644 On ch=1 n=f#6 v=0
44700 On ch=1 n=c#7 v=0
44716 On ch=1 n=f#6 v=89
44796 On ch=1 n=c#7 v=96
44806 On ch=1 n=f#6 v=0
44866 Par ch=1 c=64 v=63
44884 On ch=1 n=d#6 v=80
44886 On ch=1 n=a6 v=84
44892 On ch=1 n=c#7 v=0
44894 On ch=1 n=c6 v=68
44900 On ch=1 n=f7 v=101
44924 Par ch=1 c=64 v=127
44996 On ch=1 n=a6 v=0
45004 On ch=1 n=c7 v=89
45022 On ch=1 n=f7 v=0
45042 On ch=1 n=d#6 v=0
45072 On ch=1 n=c7 v=0
45072 On ch=1 n=c6 v=0
45082 On ch=1 n=f6 v=64
45130 On ch=1 n=f6 v=0
45172 On ch=1 n=c7 v=91
45254 On ch=1 n=f6 v=91
45258 On ch=1 n=c7 v=0
45342 On ch=1 n=c6 v=74
45344 On ch=1 n=f6 v=0
45408 On ch=1 n=c6 v=0
45500 On ch=1 n=c#6 v=67
45506 On ch=1 n=d#5 v=62
45524 On ch=1 n=f5 v=67
45568 Par ch=1 c=64 v=63
45622 On ch=1 n=c6 v=84
45624 Par ch=1 c=64 v=127
45714 On ch=1 n=c6 v=0
45750 On ch=1 n=c7 v=90
45780 On ch=1 n=f6 v=70
45842 On ch=1 n=c#6 v=0
45846 On ch=1 n=c7 v=0
45870 On ch=1 n=c6 v=83
45878 On ch=1 n=f6 v=0
45884 On ch=1 n=f5 v=0
45926 On ch=1 n=c6 v=0
45958 On ch=1 n=c#6 v=74
45962 On ch=1 n=f#5 v=85
46006 On ch=1 n=d#5 v=0
46008 On ch=1 n=c#6 v=0
46018 On ch=1 n=b5 v=93
46034 On ch=1 n=f#5 v=0
46090 On ch=1 n=b5 v=0
46124 On ch=1 n=b6 v=92
46130 On ch=1 n=e6 v=87
46180 On ch=1 n=b6 v=0
46196 On ch=1 n=b5 v=84
46198 On ch=1 n=e6 v=0
46238 On ch=1 n=b5 v=0
46262 On ch=1 n=c#6 v=101
46270 On ch=1 n=g5 v=79
46296 On ch=1 n=c#6 v=0
46302 On ch=1 n=g5 v=0
46320 On ch=1 n=a#5 v=110
46406 On ch=1 n=a#5 v=0
46442 On ch=1 n=a#6 v=101
46496 On ch=1 n=d#6 v=82
46534 On ch=1 n=a#6 v=0
46552 On ch=1 n=a#5 v=93
46576 On ch=1 n=d#6 v=0
46610 On ch=1 n=a#5 v=0
46702 On ch=1 n=b5 v=53
46746 On ch=1 n=d6 v=65
46768 Par ch=1 c=64 v=63
46778 Par ch=1 c=64 v=0
46820 Par ch=1 c=64 v=63
46840 Par ch=1 c=64 v=127
46848 On ch=1 n=g#6 v=76
46852 On ch=1 n=g7 v=100
46960 On ch=1 n=g#6 v=0
46968 On ch=1 n=d7 v=87
46992 On ch=1 n=g7 v=0
47054 On ch=1 n=d6 v=0
47056 On ch=1 n=d7 v=0
47060 On ch=1 n=b5 v=0
47068 On ch=1 n=g6 v=68
47118 On ch=1 n=g6 v=0
47164 On ch=1 n=d7 v=99
47250 On ch=1 n=g6 v=98
47270 On ch=1 n=d7 v=0
47318 On ch=1 n=d6 v=97
47342 On ch=1 n=b5 v=84
47346 On ch=1 n=g6 v=0
47376 On ch=1 n=d6 v=0
47398 Par ch=1 c=64 v=63
47406 Par ch=1 c=64 v=0
47454 On ch=1 n=d#6 v=82
47456 Par ch=1 c=64 v=63
47472 Par ch=1 c=64 v=127
47474 On ch=1 n=f#7 v=106
47474 On ch=1 n=a6 v=81
47574 On ch=1 n=c#7 v=80
47620 On ch=1 n=f#7 v=0
47642 On ch=1 n=d#6 v=0
47644 On ch=1 n=a6 v=0
47660 On ch=1 n=f#6 v=76
47664 On ch=1 n=c#7 v=0
47714 On ch=1 n=f#6 v=0
47756 On ch=1 n=c#7 v=87
47846 On ch=1 n=f#6 v=80
47884 On ch=1 n=c#7 v=0
47920 On ch=1 n=c#6 v=81
47948 On ch=1 n=f#6 v=0
47986 On ch=1 n=c#6 v=0
47988 On ch=1 n=a6 v=85
48068 On ch=1 n=c#6 v=83
48104 On ch=1 n=a6 v=0
48152 On ch=1 n=f#6 v=91
48172 On ch=1 n=c#6 v=0
48220 On ch=1 n=c#7 v=97
48240 On ch=1 n=f#6 v=0
48248 On ch=1 n=b5 v=0
48292 On ch=1 n=c#7 v=0
48298 On ch=1 n=f#6 v=90
48374 On ch=1 n=f#6 v=0
48380 On ch=1 n=c#7 v=98
48410 Par ch=1 c=64 v=63
48416 Par ch=1 c=64 v=0
48420 On ch=1 n=d#6 v=83
48422 On ch=1 n=a6 v=86
48432 On ch=1 n=c6 v=63
48464 On ch=1 n=f7 v=99
48468 Par ch=1 c=64 v=63
48482 On ch=1 n=c#7 v=0
48484 Par ch=1 c=64 v=127
48526 On ch=1 n=a6 v=0
48558 On ch=1 n=c7 v=81
48566 On ch=1 n=f7 v=0
48572 On ch=1 n=d#6 v=0
48598 On ch=1 n=c6 v=0
48618 On ch=1 n=f6 v=72
48620 On ch=1 n=c7 v=0
48676 On ch=1 n=f6 v=0
48718 On ch=1 n=c7 v=90
48792 On ch=1 n=f6 v=97
48798 On ch=1 n=c7 v=0
48876 On ch=1 n=c6 v=80
48880 On ch=1 n=f6 v=0
48940 On ch=1 n=c6 v=0
48998 On ch=1 n=c#6 v=88
49012 On ch=1 n=d#5 v=73
49018 On ch=1 n=f5 v=72
49020 Par ch=1 c=64 v=63
49034 Par ch=1 c=64 v=0
49060 Par ch=1 c=64 v=63
49084 Par ch=1 c=64 v=127
49120 On ch=1 n=c6 v=87
49200 On ch=1 n=c6 v=0
49238 On ch=1 n=c7 v=92
49256 On ch=1 n=f6 v=75
49286 On ch=1 n=c#6 v=0
49316 On ch=1 n=c7 v=0
49332 On ch=1 n=f6 v=0
49334 On ch=1 n=c6 v=84
49350 On ch=1 n=f5 v=0
49378 On ch=1 n=c6 v=0
49430 On ch=1 n=c#6 v=90
49432 On ch=1 n=f#5 v=86
49472 On ch=1 n=d#5 v=0
49476 On ch=1 n=b5 v=92
49484 On ch=1 n=c#6 v=0
49496 On ch=1 n=f#5 v=0
49544 On ch=1 n=b5 v=0
49580 On ch=1 n=b6 v=93
49586 On ch=1 n=e6 v=84
49630 On ch=1 n=b6 v=0
49646 On ch=1 n=b5 v=89
49660 On ch=1 n=e6 v=0
49690 On ch=1 n=b5 v=0
49714 On ch=1 n=c#6 v=106
49726 On ch=1 n=g5 v=80
49742 On ch=1 n=c#6 v=0
49754 On ch=1 n=g5 v=0
49780 On ch=1 n=a#5 v=107
49856 On ch=1 n=a#5 v=0
49886 On ch=1 n=a#6 v=104
49920 On ch=1 n=d#6 v=90
49962 On ch=1 n=a#6 v=0
49970 On ch=1 n=a#5 v=100
49978 On ch=1 n=d#6 v=0
50012 On ch=1 n=a#5 v=0
50150 Par ch=1 c=64 v=63
50160 Par ch=1 c=64 v=0
50212 On ch=1 n=d#5 v=83
50216 On ch=1 n=g#4 v=77
50228 Par ch=1 c=64 v=63
50242 Par ch=1 c=64 v=127
50246 On ch=1 n=a#5 v=99
50316 On ch=1 n=d#5 v=0
50342 On ch=1 n=b4 v=76
50344 On ch=1 n=g#4 v=0
50346 On ch=1 n=a#5 v=0
50478 On ch=1 n=d5 v=87
50492 On ch=1 n=b4 v=0
50560 On ch=1 n=d5 v=0
50626 On ch=1 n=g5 v=99
50626 On ch=1 n=d#5 v=93
50638 On ch=1 n=d#4 v=76
50736 On ch=1 n=g5 v=0
50742 On ch=1 n=b4 v=84
50750 On ch=1 n=d#5 v=0
50782 On ch=1 n=d#4 v=0
50830 On ch=1 n=d5 v=86
50848 On ch=1 n=b4 v=0
50926 On ch=1 n=f5 v=102
50930 On ch=1 n=d5 v=0
51016 On ch=1 n=b4 v=76
51036 On ch=1 n=f5 v=0
51074 On ch=1 n=d5 v=89
51102 On ch=1 n=b4 v=0
51158 Par ch=1 c=64 v=63
51168 Par ch=1 c=64 v=0
51168 On ch=1 n=f5 v=97
51168 On ch=1 n=c#5 v=63
51174 On ch=1 n=d5 v=0
51192 On ch=1 n=g4 v=42
51218 Par ch=1 c=64 v=63
51238 Par ch=1 c=64 v=127
51252 On ch=1 n=f5 v=0
51266 On ch=1 n=d5 v=72
51294 On ch=1 n=c#5 v=0
51340 On ch=1 n=d#5 v=98
51344 On ch=1 n=d5 v=0
51424 On ch=1 n=d#5 v=0
51434 On ch=1 n=e5 v=82
51440 On ch=1 n=c#5 v=68
51446 On ch=1 n=d#4 v=61
51450 On ch=1 n=g4 v=0
51518 On ch=1 n=f5 v=86
51528 On ch=1 n=c#5 v=0
51534 On ch=1 n=e5 v=0
51602 On ch=1 n=b5 v=90
51612 On ch=1 n=d#4 v=0
51622 On ch=1 n=f5 v=0
51736 On ch=1 n=b5 v=0
51760 On ch=1 n=g#4 v=66
51790 On ch=1 n=d#5 v=44
51826 On ch=1 n=a#5 v=105
51836 Par ch=1 c=64 v=63
51884 Par ch=1 c=64 v=127
51918 On ch=1 n=a#5 v=0
51934 On ch=1 n=d#5 v=0
51950 On ch=1 n=b4 v=51
52048 On ch=1 n=d5 v=96
52058 On ch=1 n=g#4 v=0
52074 On ch=1 n=b4 v=0
52120 On ch=1 n=d5 v=0
52152 On ch=1 n=g5 v=96
52164 On ch=1 n=d#5 v=88
52168 On ch=1 n=d#4 v=78
52252 On ch=1 n=b4 v=97
52262 On ch=1 n=g5 v=0
52300 On ch=1 n=d#5 v=0
52340 On ch=1 n=b4 v=0
52348 On ch=1 n=d5 v=79
52366 On ch=1 n=d#4 v=0
52402 On ch=1 n=d5 v=0
52430 On ch=1 n=f5 v=106
52522 On ch=1 n=b4 v=86
52524 On ch=1 n=f5 v=0
52570 On ch=1 n=d5 v=94
52588 On ch=1 n=b4 v=0
52646 On ch=1 n=d5 v=0
52676 On ch=1 n=f5 v=96
52680 On ch=1 n=c#5 v=50
52682 Par ch=1 c=64 v=63
52694 Par ch=1 c=64 v=0
52698 On ch=1 n=g4 v=39
52740 Par ch=1 c=64 v=63
52754 On ch=1 n=d5 v=71
52756 On ch=1 n=f5 v=0
52764 Par ch=1 c=64 v=127
52818 On ch=1 n=c#5 v=0
52842 On ch=1 n=d5 v=0
52844 On ch=1 n=d#5 v=95
52918 On ch=1 n=d#5 v=0
52938 On ch=1 n=e5 v=71
52950 On ch=1 n=c#5 v=71
52956 On ch=1 n=g4 v=0
52962 On ch=1 n=d#4 v=64
53018 On ch=1 n=f5 v=84
53030 On ch=1 n=e5 v=0
53064 On ch=1 n=c#5 v=0
53100 On ch=1 n=b5 v=85
53116 On ch=1 n=f5 v=0
53126 On ch=1 n=d#4 v=0
53226 On ch=1 n=b5 v=0
53278 On ch=1 n=g#4 v=60
53280 Par ch=1 c=64 v=63
53288 On ch=1 n=d#5 v=53
53290 Par ch=1 c=64 v=0
53304 On ch=1 n=a#5 v=101
53322 Par ch=1 c=64 v=63
53350 Par ch=1 c=64 v=127
53416 On ch=1 n=a#5 v=0
53456 On ch=1 n=d#5 v=0
53462 On ch=1 n=b4 v=30
53498 On ch=1 n=g#4 v=0
53568 On ch=1 n=d5 v=85
53584 On ch=1 n=b4 v=0
53662 On ch=1 n=d5 v=0
53714 On ch=1 n=g5 v=89
53722 On ch=1 n=d#5 v=68
53724 On ch=1 n=d#4 v=68
53838 On ch=1 n=b4 v=70
53872 On ch=1 n=g5 v=0
53920 On ch=1 n=d#5 v=0
53924 On ch=1 n=d5 v=76
53932 On ch=1 n=b4 v=0
53982 On ch=1 n=d5 v=0
54016 On ch=1 n=f5 v=107
54056 On ch=1 n=d#4 v=0
54102 On ch=1 n=b4 v=76
54166 On ch=1 n=f5 v=0
54178 On ch=1 n=d5 v=91
54210 On ch=1 n=b4 v=0
54262 On ch=1 n=d5 v=0
54294 On ch=1 n=c#5 v=51
54302 On ch=1 n=f5 v=106
54304 On ch=1 n=f#4 v=57
54330 Par ch=1 c=64 v=63
54394 Par ch=1 c=64 v=127
54404 On ch=1 n=c5 v=48
54470 On ch=1 n=a4 v=54
54494 On ch=1 n=c#5 v=0
54500 On ch=1 n=c5 v=0
54534 On ch=1 n=f#4 v=0
54534 On ch=1 n=f5 v=0
54572 On ch=1 n=c#4 v=60
54584 On ch=1 n=a4 v=0
54588 On ch=1 n=c#5 v=11
54616 On ch=1 n=d#5 v=99
54668 On ch=1 n=c#5 v=0
54724 On ch=1 n=c5 v=54
54788 On ch=1 n=d#5 v=0
54796 On ch=1 n=a4 v=50
54830 On ch=1 n=c5 v=0
54846 On ch=1 n=c#4 v=0
54878 On ch=1 n=c#5 v=54
54890 On ch=1 n=f#4 v=61
54894 On ch=1 n=f5 v=73
54896 On ch=1 n=a4 v=0
54900 Par ch=1 c=64 v=63
54926 Par ch=1 c=64 v=127
55006 On ch=1 n=c5 v=60
55072 On ch=1 n=c#5 v=0
55082 On ch=1 n=f#4 v=0
55100 On ch=1 n=a4 v=45
55108 On ch=1 n=c5 v=0
55192 On ch=1 n=f5 v=0
55196 On ch=1 n=c#4 v=52
55208 On ch=1 n=d#5 v=83
55218 On ch=1 n=a4 v=0
55316 On ch=1 n=c#4 v=0
55338 On ch=1 n=c5 v=24
55392 On ch=1 n=d#5 v=0
55406 On ch=1 n=a4 v=33
55460 On ch=1 n=c5 v=0
55526 On ch=1 n=c#5 v=37
55526 On ch=1 n=f#4 v=49
55544 Par ch=1 c=64 v=63
55550 On ch=1 n=f5 v=62
55578 On ch=1 n=a4 v=0
55598 Par ch=1 c=64 v=127
55668 On ch=1 n=c#5 v=0
55684 On ch=1 n=f#4 v=0
55700 On ch=1 n=c5 v=53
55802 On ch=1 n=c5 v=0
55816 On ch=1 n=a4 v=36
55938 On ch=1 n=a4 v=0
55948 On ch=1 n=c#4 v=52
55994 On ch=1 n=d#5 v=72
56016 On ch=1 n=f5 v=0
56104 On ch=1 n=c#4 v=0
56150 On ch=1 n=c5 v=35
56170 On ch=1 n=d#5 v=0
56318 On ch=1 n=c5 v=0
56318 On ch=1 n=a4 v=34
56398 On ch=1 n=a4 v=0
56610 On ch=1 n=f#3 v=78
56668 Par ch=1 c=64 v=63
56690 Par ch=1 c=64 v=0
56714 Par ch=1 c=64 v=63
56752 Par ch=1 c=64 v=127
56782 On ch=1 n=e4 v=82
56908 On ch=1 n=e4 v=0
56914 On ch=1 n=a#4 v=92
56946 On ch=1 n=c#4 v=64
56978 On ch=1 n=f#3 v=0
57012 On ch=1 n=d#5 v=101
57020 On ch=1 n=a#4 v=0
57044 On ch=1 n=d#5 v=0
57052 On ch=1 n=c#4 v=0
57082 On ch=1 n=a4 v=69
57138 On ch=1 n=c#5 v=65
57142 On ch=1 n=e5 v=76
57172 On ch=1 n=a4 v=0
57178 On ch=1 n=c#5 v=0
57194 On ch=1 n=e5 v=0
57218 On ch=1 n=a5 v=98
57244 On ch=1 n=c#5 v=94
57354 On ch=1 n=a5 v=0
57458 On ch=1 n=a#4 v=32
57462 On ch=1 n=d#6 v=109
57480 On ch=1 n=g5 v=64
57482 On ch=1 n=c#5 v=0
57494 Par ch=1 c=64 v=63
57564 Par ch=1 c=64 v=127
57606 On ch=1 n=a5 v=76
57634 On ch=1 n=g5 v=0
57652 On ch=1 n=d#6 v=0
57690 On ch=1 n=e5 v=73
57764 On ch=1 n=a5 v=0
57770 On ch=1 n=e5 v=0
57786 On ch=1 n=f#4 v=72
57814 On ch=1 n=c#6 v=108
57850 On ch=1 n=a#4 v=0
57896 On ch=1 n=a5 v=74
57960 On ch=1 n=c#6 v=0
57990 On ch=1 n=e5 v=73
58002 On ch=1 n=a5 v=0
58052 On ch=1 n=f#4 v=0
58074 On ch=1 n=e5 v=0
58076 On ch=1 n=a#5 v=115
58166 On ch=1 n=g5 v=76
58208 On ch=1 n=a#5 v=0
58232 On ch=1 n=e5 v=75
58260 On ch=1 n=g5 v=0
58296 On ch=1 n=b4 v=71
58296 Par ch=1 c=64 v=63
58300 On ch=1 n=e5 v=0
58300 On ch=1 n=f#5 v=88
58334 On ch=1 n=a#5 v=110
58368 Par ch=1 c=64 v=127
58380 On ch=1 n=f#5 v=0
58410 On ch=1 n=d5 v=74
58430 On ch=1 n=a#5 v=0
58472 On ch=1 n=b4 v=0
58490 On ch=1 n=f5 v=74
58498 On ch=1 n=d5 v=0
58576 On ch=1 n=a#5 v=103
58586 On ch=1 n=f5 v=0
58586 On ch=1 n=f#4 v=79
58640 On ch=1 n=a#5 v=0
58668 On ch=1 n=f#4 v=0
58680 On ch=1 n=b5 v=79
58740 On ch=1 n=b5 v=0
58768 On ch=1 n=f#6 v=97
58874 On ch=1 n=a#4 v=52
58906 On ch=1 n=f#6 v=0
58914 Par ch=1 c=64 v=63
58930 Par ch=1 c=64 v=0
58936 On ch=1 n=g5 v=65
58970 On ch=1 n=d#6 v=103
58970 Par ch=1 c=64 v=63
59000 Par ch=1 c=64 v=127
59050 On ch=1 n=g5 v=0
59104 On ch=1 n=a5 v=69
59118 On ch=1 n=d#6 v=0
59188 On ch=1 n=e5 v=57
59244 On ch=1 n=a5 v=0
59262 On ch=1 n=e5 v=0
59288 On ch=1 n=c#6 v=106
59288 On ch=1 n=f#4 v=76
59296 On ch=1 n=a#4 v=0
59374 On ch=1 n=a5 v=80
59420 On ch=1 n=c#6 v=0
59462 On ch=1 n=e5 v=47
59466 On ch=1 n=a5 v=0
59526 On ch=1 n=e5 v=0
59538 On ch=1 n=f#4 v=0
59546 On ch=1 n=a#5 v=115
59638 On ch=1 n=g5 v=84
59678 On ch=1 n=a#5 v=0
59704 On ch=1 n=e5 v=70
59728 On ch=1 n=g5 v=0
59750 Par ch=1 c=64 v=63
59760 Par ch=1 c=64 v=0
59774 On ch=1 n=b4 v=80
59776 On ch=1 n=e5 v=0
59778 On ch=1 n=f#5 v=97
59796 On ch=1 n=a#5 v=114
59806 Par ch=1 c=64 v=63
59828 Par ch=1 c=64 v=127
59838 On ch=1 n=f#5 v=0
59880 On ch=1 n=d5 v=91
59898 On ch=1 n=a#5 v=0
59908 On ch=1 n=b4 v=0
59962 On ch=1 n=f5 v=77
59970 On ch=1 n=d5 v=0
60044 On ch=1 n=f#4 v=84
60044 On ch=1 n=a#5 v=107
60058 On ch=1 n=f5 v=0
60104 On ch=1 n=f#4 v=0
60108 On ch=1 n=a#5 v=0
60152 On ch=1 n=b5 v=80
60234 On ch=1 n=b5 v=0
60278 On ch=1 n=f#6 v=86
60420 On ch=1 n=f#6 v=0
60454 On ch=1 n=c5 v=58
60458 On ch=1 n=d#6 v=99
60490 Par ch=1 c=64 v=63
60504 Par ch=1 c=64 v=0
60556 Par ch=1 c=64 v=63
60580 Par ch=1 c=64 v=127
60626 On ch=1 n=d#6 v=0
60654 On ch=1 n=d#5 v=78
60686 On ch=1 n=c5 v=0
60814 On ch=1 n=d#5 v=0
60828 On ch=1 n=a5 v=84
60838 On ch=1 n=g#5 v=55
60910 On ch=1 n=a5 v=0
60936 On ch=1 n=g#5 v=0
60956 On ch=1 n=f#5 v=72
61090 On ch=1 n=a#5 v=106
61108 On ch=1 n=f#5 v=0
61108 On ch=1 n=d#5 v=69
61144 On ch=1 n=a#5 v=0
61222 On ch=1 n=f#5 v=73
61288 On ch=1 n=d#5 v=0
61334 On ch=1 n=f#6 v=110
61342 On ch=1 n=f#5 v=0
61370 On ch=1 n=d6 v=66
61432 On ch=1 n=f#6 v=0
61448 On ch=1 n=d6 v=0
61458 On ch=1 n=c#6 v=89
61572 On ch=1 n=c#6 v=0
61580 On ch=1 n=f#5 v=88
61584 On ch=1 n=d6 v=99
61678 On ch=1 n=a#5 v=96
61698 On ch=1 n=d6 v=0
61704 On ch=1 n=f#5 v=0
61794 On ch=1 n=d#6 v=113
61800 On ch=1 n=c#6 v=97
61814 On ch=1 n=a#5 v=0
61854 On ch=1 n=d#6 v=0
61880 On ch=1 n=c#6 v=0
61898 On ch=1 n=c6 v=79
61992 On ch=1 n=a#6 v=116
61998 On ch=1 n=c6 v=0
62004 On ch=1 n=a#5 v=82
62086 On ch=1 n=c#6 v=89
62114 On ch=1 n=a#6 v=0
62118 On ch=1 n=a#5 v=0
62210 On ch=1 n=d#6 v=93
62218 On ch=1 n=f6 v=104
62220 On ch=1 n=c#6 v=0
62302 On ch=1 n=d#6 v=0
62304 On ch=1 n=c#6 v=98
62324 On ch=1 n=f6 v=0
62396 On ch=1 n=f#6 v=112
62420 On ch=1 n=d#6 v=103
62442 On ch=1 n=f#6 v=0
62470 On ch=1 n=c#6 v=0
62532 On ch=1 n=a6 v=65
62554 On ch=1 n=d#6 v=0
62604 On ch=1 n=a6 v=0
62646 On ch=1 n=d#7 v=116
62654 On ch=1 n=c6 v=79
62762 On ch=1 n=d#6 v=95
62794 On ch=1 n=c6 v=0
62860 On ch=1 n=d#7 v=0
62876 On ch=1 n=d#6 v=0
62882 On ch=1 n=a6 v=102
62888 On ch=1 n=g#6 v=96
62998 On ch=1 n=a6 v=0
63008 On ch=1 n=f#6 v=96
63028 On ch=1 n=g#6 v=0
63122 On ch=1 n=a#6 v=115
63136 On ch=1 n=d#6 v=103
63148 On ch=1 n=f#6 v=0
63182 On ch=1 n=a#6 v=0
63238 On ch=1 n=f#6 v=99
63288 On ch=1 n=d#6 v=0
63348 On ch=1 n=f#6 v=0
63348 On ch=1 n=f#7 v=116
63352 On ch=1 n=d7 v=98
63444 On ch=1 n=d7 v=0
63444 On ch=1 n=f#7 v=0
63450 On ch=1 n=c#7 v=100
63540 On ch=1 n=f#6 v=101
63542 On ch=1 n=c#7 v=0
63550 On ch=1 n=d7 v=106
63626 On ch=1 n=a#6 v=101
63648 On ch=1 n=d7 v=0
63658 On ch=1 n=f#6 v=0
63720 On ch=1 n=c#7 v=108
63732 On ch=1 n=d#7 v=116
63754 On ch=1 n=a#6 v=0
63798 On ch=1 n=d#7 v=0
63812 On ch=1 n=c7 v=96
63816 On ch=1 n=c#7 v=0
63926 On ch=1 n=a#7 v=118
63932 On ch=1 n=a#6 v=95
63936 On ch=1 n=c7 v=0
64024 On ch=1 n=a#7 v=0
64036 On ch=1 n=c#7 v=100
64060 On ch=1 n=a#6 v=0
64140 On ch=1 n=f7 v=102
64146 On ch=1 n=d#7 v=105
64152 On ch=1 n=c#7 v=0
64216 On ch=1 n=f7 v=0
64236 On ch=1 n=d#7 v=0
64236 On ch=1 n=c#7 v=101
64342 On ch=1 n=f#7 v=123
64356 On ch=1 n=d#7 v=101
64396 On ch=1 n=f#7 v=0
64408 On ch=1 n=c#7 v=0
64496 On ch=1 n=a7 v=96
64638 On ch=1 n=a7 v=0
64656 On ch=1 n=a#7 v=121
64658 On ch=1 n=d#8 v=113
64664 On ch=1 n=f#7 v=107
64700 On ch=1 n=d#7 v=0
64702 On ch=1 n=f#7 v=0
64728 On ch=1 n=a#7 v=0
64742 On ch=1 n=d#8 v=0
64812 On ch=1 n=a7 v=99
64814 On ch=1 n=c7 v=90
64814 On ch=1 n=f7 v=92
64908 On ch=1 n=f7 v=0
64908 On ch=1 n=a7 v=0
64914 On ch=1 n=c7 v=0
64936 On ch=1 n=d#8 v=114
64942 On ch=1 n=f#7 v=113
64942 On ch=1 n=a#7 v=108
64974 On ch=1 n=a#7 v=0
64974 On ch=1 n=f#7 v=0
64998 On ch=1 n=d#8 v=0
65066 On ch=1 n=a7 v=82
65068 On ch=1 n=f7 v=77
65080 On ch=1 n=c7 v=54
65128 On ch=1 n=f7 v=0
65128 On ch=1 n=a7 v=0
65132 On ch=1 n=c7 v=0
65152 On ch=1 n=d#8 v=109
65156 On ch=1 n=f#7 v=108
65160 On ch=1 n=a#7 v=98
65188 On ch=1 n=a#7 v=0
65192 On ch=1 n=f#7 v=0
65210 On ch=1 n=d#8 v=0
65256 On ch=1 n=a7 v=76
65262 On ch=1 n=f7 v=73
65274 On ch=1 n=c7 v=40
65310 On ch=1 n=a7 v=0
65316 On ch=1 n=c7 v=0
65316 On ch=1 n=f7 v=0
65338 On ch=1 n=d#8 v=109
65340 On ch=1 n=f#7 v=110
65342 On ch=1 n=a#7 v=105
65372 On ch=1 n=a#7 v=0
65376 On ch=1 n=f#7 v=0
65396 On ch=1 n=d#8 v=0
65430 On ch=1 n=a7 v=84
65442 On ch=1 n=f7 v=63
65454 On ch=1 n=c7 v=34
65484 On ch=1 n=f7 v=0
65488 On ch=1 n=a7 v=0
65494 On ch=1 n=c7 v=0
65502 On ch=1 n=d#8 v=105
65502 On ch=1 n=a#7 v=105
65504 On ch=1 n=f#7 v=105
65530 On ch=1 n=f#7 v=0
65538 On ch=1 n=a#7 v=0
65558 On ch=1 n=d#8 v=0
65580 On ch=1 n=a7 v=91
65584 On ch=1 n=c7 v=86
65586 On ch=1 n=f7 v=84
65642 On ch=1 n=a7 v=0
65646 On ch=1 n=f7 v=0
65646 On ch=1 n=c7 v=0
65648 On ch=1 n=d#8 v=106
65650 On ch=1 n=a#7 v=108
65652 On ch=1 n=f#7 v=107
65688 On ch=1 n=f#7 v=0
65714 On ch=1 n=a#7 v=0
65714 On ch=1 n=d#8 v=0
65724 On ch=1 n=a7 v=97
65728 On ch=1 n=c7 v=87
65730 On ch=1 n=f7 v=89
65784 On ch=1 n=a7 v=0
65788 On ch=1 n=c7 v=0
65790 On ch=1 n=d#8 v=106
65792 On ch=1 n=f7 v=0
65792 On ch=1 n=f#7 v=109
65794 On ch=1 n=a#7 v=109
65842 On ch=1 n=f#7 v=0
65850 On ch=1 n=a#7 v=0
65852 On ch=1 n=a7 v=107
65858 On ch=1 n=d#8 v=0
65864 On ch=1 n=f7 v=90
65868 On ch=1 n=c7 v=76
65910 On ch=1 n=c7 v=0
65912 On ch=1 n=a7 v=0
65916 On ch=1 n=d#8 v=104
65920 On ch=1 n=a#7 v=115
65920 On ch=1 n=f#7 v=110
65922 On ch=1 n=f7 v=0
65972 On ch=1 n=f#7 v=0
65978 On ch=1 n=a7 v=108
65986 On ch=1 n=f7 v=91
65986 On ch=1 n=c7 v=91
65988 On ch=1 n=a#7 v=0
65988 On ch=1 n=d#8 v=0
66034 On ch=1 n=a7 v=0
66038 On ch=1 n=c7 v=0
66042 On ch=1 n=d#8 v=105
66044 On ch=1 n=f7 v=0
66046 On ch=1 n=a#7 v=108
66046 On ch=1 n=f#7 v=109
66098 On ch=1 n=a7 v=102
66098 On ch=1 n=c7 v=96
66100 On ch=1 n=f7 v=97
66106 On ch=1 n=f#7 v=0
66112 On ch=1 n=a#7 v=0
66114 On ch=1 n=d#8 v=0
66152 On ch=1 n=a7 v=0
66156 On ch=1 n=c7 v=0
66160 On ch=1 n=d#8 v=106
66162 On ch=1 n=f7 v=0
66164 On ch=1 n=f#7 v=112
66166 On ch=1 n=a#7 v=106
66214 On ch=1 n=a7 v=102
66216 On ch=1 n=f7 v=96
66218 On ch=1 n=c7 v=89
66230 On ch=1 n=f#7 v=0
66234 On ch=1 n=a#7 v=0
66240 On ch=1 n=d#8 v=0
66270 On ch=1 n=a7 v=0
66276 On ch=1 n=c7 v=0
66280 On ch=1 n=f7 v=0
66282 On ch=1 n=d#8 v=106
66284 On ch=1 n=f#7 v=112
66286 On ch=1 n=a#7 v=107
66330 On ch=1 n=a7 v=100
66332 On ch=1 n=c7 v=92
66334 On ch=1 n=f7 v=93
66360 On ch=1 n=a#7 v=0
66360 On ch=1 n=f#7 v=0
66362 On ch=1 n=d#8 v=0
66386 On ch=1 n=a7 v=0
66396 On ch=1 n=f7 v=0
66396 On ch=1 n=c7 v=0
66410 On ch=1 n=d#8 v=106
66412 On ch=1 n=a#7 v=107
66412 On ch=1 n=f#7 v=107
66448 On ch=1 n=c7 v=94
66448 On ch=1 n=a7 v=99
66450 On ch=1 n=f7 v=91
66478 On ch=1 n=f#7 v=0
66490 On ch=1 n=a#7 v=0
66490 On ch=1 n=d#8 v=0
66502 On ch=1 n=a7 v=0
66504 On ch=1 n=c7 v=0
66508 On ch=1 n=f7 v=0
66550 On ch=1 n=d#8 v=112
66550 On ch=1 n=f#7 v=118
66552 On ch=1 n=a#7 v=110
66560 On ch=1 n=f7 v=100
66562 On ch=1 n=a7 v=102
66562 On ch=1 n=c7 v=94
66626 On ch=1 n=f#7 v=0
66632 On ch=1 n=a#7 v=0
66640 On ch=1 n=d#8 v=0
66680 On ch=1 n=a7 v=0
66708 On ch=1 n=f7 v=0
66776 On ch=1 n=d#8 v=114
66786 On ch=1 n=f7 v=99
66802 On ch=1 n=c7 v=0
66878 On ch=1 n=a#7 v=71
66946 On ch=1 n=d#8 v=0
66982 On ch=1 n=f7 v=0
66982 On ch=1 n=f#7 v=81
66990 On ch=1 n=a#7 v=0
67004 On ch=1 n=d#7 v=85
67044 On ch=1 n=f#7 v=0
67054 On ch=1 n=d#7 v=0
67118 On ch=1 n=a#7 v=99
67152 On ch=1 n=c7 v=81
67210 On ch=1 n=f#7 v=81
67238 On ch=1 n=a#7 v=0
67250 On ch=1 n=c7 v=0
67282 On ch=1 n=d#7 v=90
67292 On ch=1 n=a#6 v=79
67294 On ch=1 n=f#7 v=0
67334 On ch=1 n=d#7 v=0
67382 On ch=1 n=a#6 v=0
67400 On ch=1 n=f#7 v=98
67422 On ch=1 n=c7 v=91
67476 On ch=1 n=d#7 v=87
67516 On ch=1 n=c7 v=0
67540 On ch=1 n=f#7 v=0
67542 On ch=1 n=f#6 v=86
67562 On ch=1 n=a#6 v=90
67566 On ch=1 n=d#7 v=0
67618 On ch=1 n=a#6 v=0
67618 On ch=1 n=f#6 v=0
67664 On ch=1 n=d#7 v=90
67672 On ch=1 n=f6 v=76
67748 On ch=1 n=a#6 v=88
67784 On ch=1 n=d#7 v=0
67800 On ch=1 n=f6 v=0
67804 On ch=1 n=d#6 v=67
67832 On ch=1 n=f#6 v=82
67848 On ch=1 n=a#6 v=0
67864 On ch=1 n=d#6 v=0
67880 On ch=1 n=f#6 v=0
67930 On ch=1 n=c6 v=80
67936 On ch=1 n=a#6 v=89
68024 On ch=1 n=f#6 v=83
68064 On ch=1 n=a#6 v=0
68064 On ch=1 n=a#5 v=71
68070 On ch=1 n=c6 v=0
68102 On ch=1 n=d#6 v=89
68108 On ch=1 n=f#6 v=0
68148 On ch=1 n=d#6 v=0
68158 On ch=1 n=a#5 v=0
68202 On ch=1 n=c6 v=76
68206 On ch=1 n=f#6 v=78
68300 On ch=1 n=c6 v=0
68314 On ch=1 n=d#6 v=78
68348 On ch=1 n=f#5 v=49
68352 On ch=1 n=f#6 v=0
68392 On ch=1 n=a#5 v=74
68406 On ch=1 n=d#6 v=0
68424 On ch=1 n=f#5 v=0
68440 On ch=1 n=a#5 v=0
68488 On ch=1 n=d#6 v=80
68496 On ch=1 n=f5 v=44
68586 On ch=1 n=a#5 v=83
68618 On ch=1 n=d#6 v=0
68620 On ch=1 n=d#5 v=58
68626 On ch=1 n=f5 v=0
68660 On ch=1 n=f#5 v=79
68678 On ch=1 n=a#5 v=0
68700 On ch=1 n=d#5 v=0
68724 On ch=1 n=f#5 v=0
68774 On ch=1 n=a#5 v=85
68782 On ch=1 n=c5 v=57
68836 On ch=1 n=c5 v=0
68902 On ch=1 n=f#5 v=70
68912 On ch=1 n=a#4 v=55
68914 On ch=1 n=a#5 v=0
68988 On ch=1 n=d#5 v=68
68996 On ch=1 n=f#5 v=0
69046 On ch=1 n=d#5 v=0
69060 On ch=1 n=a#4 v=0
69110 On ch=1 n=f#5 v=85
69112 On ch=1 n=c5 v=33
69260 On ch=1 n=d#5 v=67
69270 On ch=1 n=c5 v=0
69332 On ch=1 n=f#4 v=43
69404 On ch=1 n=a#4 v=43
69460 On ch=1 n=d#5 v=0
69482 On ch=1 n=f#5 v=0
69514 On ch=1 n=f#4 v=0
69528 On ch=1 n=a#4 v=0
69826 Par ch=1 c=64 v=63
69844 Par ch=1 c=67 v=127
69852 Par ch=1 c=64 v=0
70094 Par ch=1 c=64 v=63
70098 Par ch=1 c=64 v=127
70132 On ch=1 n=f4 v=74
70140 On ch=1 n=a4 v=93
70252 On ch=1 n=a4 v=0
70278 On ch=1 n=d#5 v=93
70282 On ch=1 n=f4 v=0
70284 On ch=1 n=a#4 v=75
70312 Par ch=1 c=67 v=127
70322 On ch=1 n=d#4 v=76
70364 On ch=1 n=a#4 v=0
70392 On ch=1 n=d#5 v=0
70414 On ch=1 n=f4 v=64
70420 On ch=1 n=g4 v=52
70430 On ch=1 n=d#4 v=0
70462 On ch=1 n=g4 v=0
70476 On ch=1 n=f4 v=0
70504 On ch=1 n=a#4 v=86
70512 On ch=1 n=a#3 v=65
70514 On ch=1 n=f#4 v=83
70580 On ch=1 n=a#4 v=0
70586 On ch=1 n=f#4 v=0
70622 On ch=1 n=a#3 v=0
70640 On ch=1 n=d4 v=79
70700 On ch=1 n=f3 v=62
70754 On ch=1 n=d4 v=0
70754 On ch=1 n=d#4 v=76
70770 On ch=1 n=f3 v=0
70774 On ch=1 n=f#4 v=73
70900 On ch=1 n=d#4 v=0
70956 On ch=1 n=f#4 v=0
70976 On ch=1 n=f2 v=98
71112 Par ch=1 c=64 v=63
71156 Par ch=1 c=64 v=0
71322 Par ch=1 c=64 v=63
71334 Par ch=1 c=64 v=127
71476 On ch=1 n=f2 v=0
71620 On ch=1 n=f4 v=84
71622 On ch=1 n=f5 v=84
72716 On ch=1 n=f4 v=0
72760 On ch=1 n=f5 v=0
72822 On ch=1 n=f4 v=58
72824 On ch=1 n=f5 v=84
73798 On ch=1 n=f4 v=0
73830 On ch=1 n=f5 v=0
73940 On ch=1 n=f4 v=50
73946 On ch=1 n=f5 v=72
74896 On ch=1 n=f4 v=0
74902 On ch=1 n=f5 v=0
75066 On ch=1 n=f5 v=37
75076 On ch=1 n=f4 v=37
76076 On ch=1 n=f4 v=0
76226 On ch=1 n=f5 v=0
76346 On ch=1 n=f4 v=29
76364 On ch=1 n=f5 v=29
77100 Par ch=1 c=64 v=63
77170 On ch=1 n=c5 v=68
77188 Par ch=1 c=64 v=127
77190 On ch=1 n=c#4 v=35
77220 On ch=1 n=e4 v=48
77276 On ch=1 n=f5 v=0
77284 On ch=1 n=f4 v=0
77676 On ch=1 n=c#4 v=0
77802 On ch=1 n=e4 v=0
77806 On ch=1 n=c5 v=0
77878 On ch=1 n=f4 v=21
77892 On ch=1 n=f5 v=28
78424 On ch=1 n=a4 v=73
78442 On ch=1 n=c#4 v=63
78446 On ch=1 n=a#3 v=49
78496 On ch=1 n=f4 v=0
78504 On ch=1 n=f5 v=0
78558 Par ch=1 c=64 v=63
78624 Par ch=1 c=64 v=127
78942 On ch=1 n=f4 v=36
78952 On ch=1 n=f5 v=46
79500 On ch=1 n=a#3 v=0
79566 On ch=1 n=f4 v=0
79592 On ch=1 n=f5 v=0
79650 On ch=1 n=c#4 v=0
79664 On ch=1 n=a4 v=0
80080 On ch=1 n=f5 v=31
80086 On ch=1 n=f4 v=30
80626 On ch=1 n=f3 v=74
80658 On ch=1 n=f4 v=0
80670 On ch=1 n=f5 v=0
81166 On ch=1 n=f5 v=30
81174 On ch=1 n=f4 v=35
81372 On ch=1 n=f3 v=0
81674 On ch=1 n=f5 v=0
81676 On ch=1 n=f4 v=0
81814 On ch=1 n=c5 v=90
81840 On ch=1 n=c#4 v=39
81862 On ch=1 n=e4 v=54
82182 On ch=1 n=c#4 v=0
82280 On ch=1 n=e4 v=0
82348 On ch=1 n=f5 v=69
82356 On ch=1 n=f4 v=57
82364 On ch=1 n=c5 v=0
82458 On ch=1 n=f5 v=0
82502 On ch=1 n=f4 v=0
82868 On ch=1 n=f5 v=94
82908 On ch=1 n=a4 v=31
82920 On ch=1 n=f#4 v=34
83244 On ch=1 n=f#4 v=0
83316 On ch=1 n=a4 v=0
83430 On ch=1 n=f5 v=0
83560 On ch=1 n=f4 v=38
83584 On ch=1 n=f5 v=41
83778 On ch=1 n=f4 v=0
83810 On ch=1 n=f5 v=0
84038 On ch=1 n=d#5 v=79
84072 On ch=1 n=a#4 v=54
84076 On ch=1 n=g4 v=18
84440 On ch=1 n=g4 v=0
84506 On ch=1 n=d#5 v=0
84506 On ch=1 n=f5 v=35
84508 On ch=1 n=a#4 v=0
84520 On ch=1 n=f4 v=47
84932 On ch=1 n=f4 v=0
84934 On ch=1 n=f5 v=0
85018 On ch=1 n=c5 v=93
85042 On ch=1 n=c#4 v=58
85066 On ch=1 n=e4 v=54
85166 Par ch=1 c=64 v=63
85252 Par ch=1 c=64 v=127
85540 On ch=1 n=f5 v=40
85552 On ch=1 n=f4 v=49
85600 On ch=1 n=c5 v=0
85642 On ch=1 n=e4 v=0
85700 On ch=1 n=c#4 v=0
85950 On ch=1 n=f4 v=0
85972 On ch=1 n=a4 v=62
85980 On ch=1 n=a#3 v=39
85984 On ch=1 n=c#4 v=59
85998 On ch=1 n=f5 v=0
86440 Par ch=1 c=64 v=63
86466 On ch=1 n=f5 v=27
86470 On ch=1 n=f4 v=35
86538 Par ch=1 c=64 v=127
86774 On ch=1 n=a4 v=0
86794 On ch=1 n=c#4 v=0
86816 On ch=1 n=a#3 v=0
86912 On ch=1 n=f4 v=0
86930 On ch=1 n=f5 v=0
87004 On ch=1 n=a#4 v=84
87046 On ch=1 n=b3 v=24
87076 On ch=1 n=d4 v=37
87252 Par ch=1 c=64 v=63
87374 Par ch=1 c=64 v=127
87532 On ch=1 n=f5 v=32
87544 On ch=1 n=f4 v=21
87676 On ch=1 n=a#4 v=0
87866 On ch=1 n=b3 v=0
88062 On ch=1 n=f4 v=0
88070 On ch=1 n=d#4 v=58
88076 On ch=1 n=g4 v=49
88086 On ch=1 n=f5 v=0
88092 On ch=1 n=d4 v=0
88098 On ch=1 n=c4 v=24
88254 Par ch=1 c=64 v=63
88362 Par ch=1 c=64 v=127
88682 On ch=1 n=f5 v=25
88688 On ch=1 n=f4 v=32
88772 On ch=1 n=c4 v=0
88788 On ch=1 n=g4 v=0
88872 On ch=1 n=d#4 v=0
89422 On ch=1 n=f3 v=42
89746 On ch=1 n=f5 v=0
89756 On ch=1 n=f4 v=0
90150 On ch=1 n=f5 v=23
90162 On ch=1 n=f4 v=26
90198 On ch=1 n=f3 v=0
90670 On ch=1 n=f5 v=0
90700 On ch=1 n=f4 v=0
91030 On ch=1 n=c5 v=54
91044 On ch=1 n=f4 v=16
91052 On ch=1 n=a4 v=33
91456 On ch=1 n=f4 v=0
91534 On ch=1 n=c5 v=0
91594 On ch=1 n=a4 v=0
91830 On ch=1 n=f5 v=21
91852 On ch=1 n=f4 v=23
92476 On ch=1 n=f4 v=0
92500 On ch=1 n=f5 v=0
92858 On ch=1 n=f5 v=26
92874 On ch=1 n=f4 v=25
93640 On ch=1 n=f5 v=0
93646 On ch=1 n=f4 v=0
93896 On ch=1 n=f5 v=21
93904 On ch=1 n=f4 v=18
94524 On ch=1 n=c5 v=35
94538 On ch=1 n=g5 v=72
94552 On ch=1 n=d#5 v=57
94740 Par ch=1 c=64 v=63
94824 Par ch=1 c=64 v=127
95032 On ch=1 n=f5 v=0
95044 On ch=1 n=f4 v=0
95266 On ch=1 n=f4 v=26
95268 On ch=1 n=f5 v=31
95276 On ch=1 n=d#5 v=0
95306 On ch=1 n=g5 v=0
95628 On ch=1 n=f5 v=0
95764 On ch=1 n=f4 v=0
95856 On ch=1 n=c5 v=0
95908 On ch=1 n=c6 v=64
95932 On ch=1 n=f5 v=40
95938 On ch=1 n=a5 v=59
95986 Par ch=1 c=64 v=63
96048 Par ch=1 c=64 v=127
96358 On ch=1 n=f5 v=0
96608 On ch=1 n=f5 v=28
96610 On ch=1 n=f4 v=14
97274 On ch=1 n=f5 v=0
97318 On ch=1 n=f4 v=0
97348 On ch=1 n=a5 v=0
97538 On ch=1 n=c6 v=0
97652 Par ch=1 c=67 v=0
97808 On ch=1 n=f4 v=19
98192 On ch=1 n=f4 v=0
98508 On ch=1 n=d#5 v=26
98532 On ch=1 n=c5 v=18
98574 On ch=1 n=g5 v=24
98600 On ch=1 n=g6 v=58
98626 On ch=1 n=d#6 v=57
98638 On ch=1 n=c6 v=10
98778 On ch=1 n=g6 v=0
98824 On ch=1 n=d#6 v=0
98852 On ch=1 n=c5 v=0
98954 On ch=1 n=d#5 v=0
98988 On ch=1 n=c6 v=0
99086 On ch=1 n=c7 v=97
99104 On ch=1 n=g5 v=0
99312 On ch=1 n=f5 v=58
99314 On ch=1 n=c6 v=67
99322 On ch=1 n=a5 v=59
99396 On ch=1 n=c7 v=0
99640 On ch=1 n=f7 v=84
99664 On ch=1 n=f6 v=23
99670 On ch=1 n=c7 v=60
99670 On ch=1 n=a6 v=66
99764 Par ch=1 c=64 v=63
99806 Par ch=1 c=64 v=127
100044 On ch=1 n=c6 v=0
100070 On ch=1 n=a5 v=0
100128 On ch=1 n=f5 v=0
100386 On ch=1 n=f4 v=42
100846 On ch=1 n=f4 v=0
100982 On ch=1 n=f4 v=60
101826 On ch=1 n=f4 v=0
102292 On ch=1 n=f4 v=29
102482 On ch=1 n=f4 v=0
102520 On ch=1 n=f7 v=0
102542 On ch=1 n=f6 v=0
102588 On ch=1 n=a6 v=0
102632 On ch=1 n=c7 v=0
103198 On ch=1 n=f#6 v=65
103202 On ch=1 n=d#7 v=70
103216 On ch=1 n=d#6 v=34
103218 On ch=1 n=a#6 v=69
103234 On ch=1 n=a#5 v=51
103244 On ch=1 n=f#5 v=41
103250 On ch=1 n=d#5 v=10
103492 On ch=1 n=f#6 v=0
103586 On ch=1 n=d#6 v=0
103596 On ch=1 n=a#5 v=0
103624 On ch=1 n=a#6 v=0
103636 On ch=1 n=f#5 v=0
103668 On ch=1 n=d#5 v=0
103728 On ch=1 n=d#7 v=0
103950 On ch=1 n=f7 v=96
103956 On ch=1 n=f6 v=54
103970 On ch=1 n=a6 v=59
103972 On ch=1 n=c7 v=64
103972 On ch=1 n=a5 v=47
103978 On ch=1 n=c6 v=54
103990 On ch=1 n=f5 v=18
104154 On ch=1 n=f6 v=0
104178 On ch=1 n=c6 v=0
104186 On ch=1 n=f7 v=0
104192 On ch=1 n=a6 v=0
104194 On ch=1 n=c7 v=0
104196 On ch=1 n=a5 v=0
104220 On ch=1 n=f5 v=0
104512 On ch=1 n=c#7 v=100
104522 On ch=1 n=g#6 v=80
104536 On ch=1 n=c#6 v=57
104542 On ch=1 n=e6 v=55
104548 On ch=1 n=c#5 v=29
104558 On ch=1 n=g#5 v=54
104572 On ch=1 n=e5 v=57
104584 Par ch=1 c=64 v=63
104608 Par ch=1 c=64 v=127
104732 On ch=1 n=c#6 v=0
104752 On ch=1 n=g#5 v=0
104776 On ch=1 n=e5 v=0
104816 On ch=1 n=c#5 v=0
105050 On ch=1 n=f4 v=68
105148 On ch=1 n=f4 v=0
105148 On ch=1 n=e6 v=0
105180 On ch=1 n=c#7 v=0
105466 On ch=1 n=d#5 v=57
105476 On ch=1 n=c6 v=59
105478 On ch=1 n=c7 v=99
105482 On ch=1 n=g#6 v=0
105484 On ch=1 n=g5 v=66
105484 On ch=1 n=c5 v=54
105504 On ch=1 n=d#6 v=80
105518 On ch=1 n=g6 v=69
105674 On ch=1 n=c6 v=0
105698 On ch=1 n=g5 v=0
105760 On ch=1 n=c5 v=0
105760 On ch=1 n=d#5 v=0
105860 On ch=1 n=c7 v=0
105888 On ch=1 n=g6 v=0
105908 On ch=1 n=d#6 v=0
105944 On ch=1 n=f4 v=47
106368 On ch=1 n=c5 v=57
106374 On ch=1 n=c6 v=70
106394 On ch=1 n=d#5 v=65
106428 On ch=1 n=g5 v=46
106506 Par ch=1 c=64 v=63
106580 Par ch=1 c=64 v=127
106750 On ch=1 n=f4 v=0
106866 On ch=1 n=f4 v=69
106950 On ch=1 n=d#5 v=0
107034 On ch=1 n=g5 v=0
107190 On ch=1 n=c6 v=0
107506 On ch=1 n=f6 v=84
107508 On ch=1 n=f5 v=49
107534 On ch=1 n=a5 v=37
107540 On ch=1 n=c6 v=56
107712 Par ch=1 c=64 v=63
107834 Par ch=1 c=64 v=127
107948 On ch=1 n=f4 v=0
108214 On ch=1 n=f4 v=43
108826 On ch=1 n=f4 v=0
108864 On ch=1 n=a5 v=0
109120 On ch=1 n=c6 v=0
109190 On ch=1 n=f4 v=18
109326 On ch=1 n=f6 v=0
109374 On ch=1 n=c5 v=0
109770 On ch=1 n=f4 v=0
109796 On ch=1 n=f5 v=0
110028 On ch=1 n=d#5 v=34
110038 On ch=1 n=d#6 v=56
110064 On ch=1 n=a#5 v=37
110084 On ch=1 n=f#5 v=23
110396 On ch=1 n=f#5 v=0
110556 On ch=1 n=a#5 v=0
110680 On ch=1 n=d#6 v=0
110682 On ch=1 n=f6 v=78
110692 On ch=1 n=f5 v=40
110712 On ch=1 n=c6 v=45
110732 On ch=1 n=a5 v=16
110762 On ch=1 n=d#5 v=0
110910 On ch=1 n=c6 v=0
110930 On ch=1 n=f6 v=0
110942 On ch=1 n=a5 v=0
111020 On ch=1 n=f5 v=0
111186 On ch=1 n=c#5 v=53
111210 On ch=1 n=c#6 v=88
111210 On ch=1 n=g#5 v=65
111240 On ch=1 n=e5 v=43
111372 Par ch=1 c=64 v=63
111462 Par ch=1 c=64 v=127
111658 On ch=1 n=f4 v=81
111760 On ch=1 n=c#5 v=0
111766 On ch=1 n=e5 v=0
111788 On ch=1 n=g#5 v=0
111936 On ch=1 n=c#6 v=0
112058 On ch=1 n=c6 v=93
112078 On ch=1 n=c5 v=60
112082 On ch=1 n=d#5 v=51
112094 On ch=1 n=g5 v=52
112158 Par ch=1 c=64 v=63
112234 Par ch=1 c=64 v=127
112388 On ch=1 n=d#5 v=0
112534 On ch=1 n=c#6 v=97
112548 On ch=1 n=c#5 v=56
112560 On ch=1 n=f5 v=61
112572 On ch=1 n=a5 v=60
112578 On ch=1 n=c6 v=0
112594 On ch=1 n=g5 v=0
112636 On ch=1 n=c5 v=0
112646 Par ch=1 c=64 v=63
112672 Par ch=1 c=64 v=127
112876 On ch=1 n=f5 v=0
112918 On ch=1 n=c#6 v=0
113066 On ch=1 n=c#5 v=0
113070 On ch=1 n=f4 v=0
113170 On ch=1 n=c6 v=92
113176 On ch=1 n=c5 v=50
113180 On ch=1 n=a5 v=0
113194 On ch=1 n=c#5 v=59
113204 On ch=1 n=f5 v=60
113434 Par ch=1 c=64 v=63
113554 Par ch=1 c=64 v=127
113794 On ch=1 n=f4 v=47
114194 On ch=1 n=a#5 v=57
114210 On ch=1 n=a#4 v=42
114280 On ch=1 n=c6 v=0
114330 Par ch=1 c=64 v=63
114376 On ch=1 n=f4 v=0
114406 Par ch=1 c=64 v=127
114582 On ch=1 n=c5 v=0
114688 On ch=1 n=f4 v=34
114902 On ch=1 n=f5 v=0
115214 On ch=1 n=f5 v=45
115232 On ch=1 n=a#5 v=0
115750 Par ch=1 c=67 v=127
115828 On ch=1 n=c#5 v=0
116128 On ch=1 n=a#4 v=0
116292 On ch=1 n=f5 v=0
116294 On ch=1 n=f4 v=0
116358 On ch=1 n=b4 v=28
116370 On ch=1 n=d#5 v=53
116450 On ch=1 n=a#5 v=67
116506 Par ch=1 c=64 v=63
116584 Par ch=1 c=64 v=127
116832 On ch=1 n=b4 v=0
116896 On ch=1 n=d#5 v=0
117114 On ch=1 n=f3 v=43
117540 On ch=1 n=a#5 v=0
117570 On ch=1 n=a#4 v=32
117580 On ch=1 n=f5 v=52
117608 On ch=1 n=d5 v=51
117644 On ch=1 n=f3 v=0
118010 On ch=1 n=f3 v=41
118144 On ch=1 n=d5 v=0
118230 On ch=1 n=a#4 v=0
118472 On ch=1 n=c#5 v=53
118504 On ch=1 n=a4 v=28
118582 Par ch=1 c=64 v=63
118662 Par ch=1 c=64 v=127
118958 On ch=1 n=f3 v=0
118994 On ch=1 n=a4 v=0
119118 On ch=1 n=f5 v=0
119192 On ch=1 n=c#5 v=0
119412 On ch=1 n=g#4 v=32
119476 On ch=1 n=c5 v=46
119580 On ch=1 n=a#5 v=60
119638 Par ch=1 c=64 v=63
119708 Par ch=1 c=64 v=127
120020 On ch=1 n=c5 v=0
120072 On ch=1 n=a#5 v=0
120384 On ch=1 n=g#4 v=0
120528 On ch=1 n=f5 v=42
120532 On ch=1 n=c#5 v=41
120542 On ch=1 n=a4 v=28
121066 On ch=1 n=f3 v=46
121128 Par ch=1 c=64 v=63
121214 Par ch=1 c=64 v=127
121288 On ch=1 n=a4 v=0
121522 On ch=1 n=c#5 v=0
121556 On ch=1 n=d5 v=51
121560 On ch=1 n=a#4 v=34
121722 Par ch=1 c=64 v=63
121728 Par ch=1 c=64 v=127
122054 On ch=1 n=f3 v=0
122124 On ch=1 n=f5 v=0
122160 On ch=1 n=d5 v=0
122408 On ch=1 n=a#4 v=0
122584 On ch=1 n=b4 v=43
122624 On ch=1 n=a#5 v=68
122636 On ch=1 n=d#5 v=52
122736 Par ch=1 c=64 v=63
122804 Par ch=1 c=64 v=127
122970 On ch=1 n=b4 v=0
123206 On ch=1 n=d#5 v=0
123236 On ch=1 n=f3 v=42
123622 On ch=1 n=d5 v=70
123632 On ch=1 n=a#4 v=38
123640 On ch=1 n=a#5 v=0
123668 On ch=1 n=f3 v=0
124006 On ch=1 n=f3 v=31
124088 On ch=1 n=f5 v=85
124390 On ch=1 n=d5 v=0
124534 On ch=1 n=a#4 v=0
124606 On ch=1 n=f3 v=0
124612 On ch=1 n=c#5 v=62
124616 On ch=1 n=a4 v=40
125018 On ch=1 n=f3 v=40
125038 Par ch=1 c=64 v=63
125102 Par ch=1 c=64 v=127
125342 On ch=1 n=a4 v=0
125546 On ch=1 n=c5 v=52
125574 On ch=1 n=g#4 v=43
125630 On ch=1 n=c#5 v=0
125706 Par ch=1 c=64 v=63
125804 Par ch=1 c=64 v=127
126178 On ch=1 n=f5 v=0
126208 On ch=1 n=c5 v=0
126230 On ch=1 n=g#4 v=0
126562 On ch=1 n=f3 v=0
126632 On ch=1 n=c#5 v=51
126658 On ch=1 n=a4 v=22
127278 On ch=1 n=f3 v=24
127322 Par ch=1 c=64 v=63
127426 Par ch=1 c=64 v=127
127854 On ch=1 n=c#5 v=0
128030 On ch=1 n=c5 v=35
128058 On ch=1 n=g#4 v=27
128176 On ch=1 n=a4 v=0
128320 Par ch=1 c=64 v=63
128386 Par ch=1 c=64 v=127
128764 On ch=1 n=g#4 v=0
128812 On ch=1 n=c5 v=0
129176 On ch=1 n=f3 v=0
129678 On ch=1 n=g4 v=28
129776 Par ch=1 c=64 v=63
129874 On ch=1 n=c#5 v=50
129892 Par ch=1 c=64 v=127
130126 On ch=1 n=e5 v=42
130164 On ch=1 n=g4 v=0
130214 Par ch=1 c=67 v=0
130278 On ch=1 n=c#5 v=0
130316 On ch=1 n=e5 v=0
130544 On ch=1 n=d#3 v=52
130716 On ch=1 n=a#3 v=38
130768 On ch=1 n=b5 v=31
130818 On ch=1 n=d#3 v=0
130852 On ch=1 n=a#3 v=0
130858 On ch=1 n=e6 v=36
130870 On ch=1 n=b5 v=0
130910 On ch=1 n=b6 v=70
130990 On ch=1 n=e6 v=0
131248 On ch=1 n=b6 v=0
131558 On ch=1 n=c#5 v=60
131584 On ch=1 n=e5 v=47
131626 On ch=1 n=g4 v=26
131716 On ch=1 n=c#5 v=0
131730 On ch=1 n=g4 v=0
131750 On ch=1 n=e5 v=0
132014 On ch=1 n=f4 v=58
132032 On ch=1 n=d5 v=59
132036 On ch=1 n=b4 v=59
132112 On ch=1 n=g6 v=90
132118 Par ch=1 c=64 v=63
132148 On ch=1 n=g5 v=50
132150 On ch=1 n=b5 v=58
132172 Par ch=1 c=64 v=127
132296 On ch=1 n=d5 v=0
132342 On ch=1 n=b4 v=0
132386 On ch=1 n=f4 v=0
132828 On ch=1 n=g#3 v=40
132858 On ch=1 n=c#3 v=54
133308 On ch=1 n=c#3 v=0
133990 On ch=1 n=c#3 v=32
134580 On ch=1 n=c#3 v=0
134626 On ch=1 n=g5 v=0
134768 On ch=1 n=b5 v=0
134884 On ch=1 n=g6 v=0
134982 On ch=1 n=c#3 v=36
135096 On ch=1 n=c#3 v=0
135124 On ch=1 n=g#3 v=0
135746 On ch=1 n=d#5 v=34
135754 On ch=1 n=g#4 v=42
135772 On ch=1 n=g#6 v=88
135780 On ch=1 n=g#5 v=70
135786 On ch=1 n=b4 v=36
135798 On ch=1 n=d#6 v=61
135922 On ch=1 n=d#5 v=0
135964 On ch=1 n=b4 v=0
135988 On ch=1 n=g#4 v=0
136230 On ch=1 n=g#5 v=0
136318 On ch=1 n=c#3 v=75
136386 On ch=1 n=d#6 v=0
136388 On ch=1 n=c#3 v=0
136460 On ch=1 n=g#6 v=0
136758 On ch=1 n=f#3 v=86
136770 On ch=1 n=c#4 v=80
136880 On ch=1 n=d#7 v=110
136894 On ch=1 n=d#6 v=80
136900 On ch=1 n=g#6 v=77
137072 Par ch=1 c=64 v=63
137102 Par ch=1 c=64 v=0
137180 Par ch=1 c=64 v=63
137198 Par ch=1 c=64 v=127
137360 On ch=1 n=g#4 v=67
137394 On ch=1 n=f#3 v=0
137484 On ch=1 n=d#7 v=0
137504 On ch=1 n=c#4 v=0
137512 On ch=1 n=g#6 v=0
137570 On ch=1 n=d#6 v=0
137742 On ch=1 n=c#7 v=112
137754 On ch=1 n=c#6 v=89
137762 On ch=1 n=f#6 v=80
137810 On ch=1 n=g#4 v=0
137872 On ch=1 n=a#4 v=60
138216 On ch=1 n=c#7 v=0
138250 On ch=1 n=c#5 v=101
138298 On ch=1 n=f#6 v=0
138304 On ch=1 n=c#6 v=0
138310 On ch=1 n=a#4 v=0
138604 On ch=1 n=d#5 v=89
138636 On ch=1 n=f#6 v=105
138650 On ch=1 n=c#6 v=88
138652 On ch=1 n=f#5 v=81
138666 On ch=1 n=c#5 v=0
138828 On ch=1 n=f#5 v=0
138976 On ch=1 n=f#5 v=63
139078 On ch=1 n=d#5 v=0
139102 On ch=1 n=c#6 v=0
139172 On ch=1 n=f#5 v=0
139218 On ch=1 n=c#6 v=83
139242 On ch=1 n=f#6 v=0
139466 On ch=1 n=c#6 v=0
139486 On ch=1 n=a5 v=70
139722 On ch=1 n=c6 v=65
139744 On ch=1 n=a5 v=0
139844 On ch=1 n=c6 v=0
139856 On ch=1 n=a#5 v=62
139928 On ch=1 n=c#6 v=57
139954 On ch=1 n=a#5 v=0
140012 On ch=1 n=f#6 v=79
140032 On ch=1 n=c#6 v=0
140084 On ch=1 n=c6 v=63
140086 On ch=1 n=f#6 v=0
140170 On ch=1 n=f6 v=60
140236 Par ch=1 c=64 v=63
140264 On ch=1 n=f6 v=0
140286 Par ch=1 c=64 v=0
140304 On ch=1 n=c6 v=0
140304 On ch=1 n=c#6 v=28
140416 On ch=1 n=f#6 v=46
140440 Par ch=1 c=64 v=63
140448 On ch=1 n=c#6 v=0
140458 Par ch=1 c=64 v=127
140574 On ch=1 n=c#7 v=39
140614 On ch=1 n=f#6 v=0
140940 Par ch=1 c=64 v=63
140986 On ch=1 n=c#7 v=0
140986 Par ch=1 c=64 v=0
142376 Par ch=1 c=67 v=127
142428 On ch=1 n=g4 v=24
142468 On ch=1 n=c#5 v=44
142590 On ch=1 n=e5 v=25
142620 On ch=1 n=b5 v=32
142668 Par ch=1 c=64 v=63
142686 On ch=1 n=e6 v=36
142686 Par ch=1 c=64 v=127
142714 On ch=1 n=b6 v=55
142806 On ch=1 n=c#5 v=0
142824 On ch=1 n=e5 v=0
142888 On ch=1 n=g4 v=0
143238 On ch=1 n=a#3 v=53
143332 On ch=1 n=b6 v=0
143350 On ch=1 n=e6 v=0
143398 On ch=1 n=b5 v=0
143634 On ch=1 n=d#3 v=64
143664 On ch=1 n=a#3 v=0
143928 On ch=1 n=c#3 v=57
143936 On ch=1 n=d#3 v=0
143980 On ch=1 n=g#3 v=58
143986 Par ch=1 c=64 v=63
144072 Par ch=1 c=64 v=127
144210 On ch=1 n=c#3 v=0
144248 On ch=1 n=g#3 v=0
144414 On ch=1 n=d5 v=87
144428 On ch=1 n=g6 v=84
144430 On ch=1 n=g5 v=49
144440 On ch=1 n=b5 v=73
144498 On ch=1 n=d5 v=0
145326 On ch=1 n=b4 v=41
145330 On ch=1 n=f4 v=37
145968 On ch=1 n=f4 v=0
146036 On ch=1 n=b4 v=0
146184 On ch=1 n=b4 v=55
146190 On ch=1 n=f4 v=51
146408 On ch=1 n=g5 v=0
146640 On ch=1 n=b5 v=0
146694 On ch=1 n=f4 v=0
146746 On ch=1 n=g6 v=0
146760 On ch=1 n=b4 v=0
146996 On ch=1 n=b4 v=69
147002 On ch=1 n=f4 v=65
147564 On ch=1 n=d#5 v=79
147638 On ch=1 n=g#6 v=109
147650 On ch=1 n=g#5 v=88
147670 On ch=1 n=d#6 v=67
147864 Par ch=1 c=64 v=63
147936 Par ch=1 c=64 v=127
148104 On ch=1 n=b4 v=0
148120 On ch=1 n=f4 v=0
148208 On ch=1 n=g#5 v=0
148342 On ch=1 n=b4 v=60
148386 On ch=1 n=f4 v=43
148396 On ch=1 n=d#5 v=0
148432 On ch=1 n=d#6 v=0
148512 On ch=1 n=b4 v=0
148526 On ch=1 n=g#6 v=0
148604 On ch=1 n=f4 v=0
148980 On ch=1 n=f#3 v=63
148994 On ch=1 n=c#4 v=65
149080 On ch=1 n=d#7 v=96
149096 On ch=1 n=g#6 v=61
149102 On ch=1 n=d#6 v=54
149108 Par ch=1 c=64 v=63
149134 Par ch=1 c=64 v=0
149226 Par ch=1 c=64 v=63
149242 Par ch=1 c=64 v=127
149564 On ch=1 n=f#3 v=0
149592 On ch=1 n=g#4 v=93
149688 On ch=1 n=d#7 v=0
149698 On ch=1 n=c#4 v=0
149726 On ch=1 n=g#6 v=0
149766 On ch=1 n=d#6 v=0
149948 On ch=1 n=c#7 v=108
149962 On ch=1 n=c#6 v=81
149970 On ch=1 n=f#6 v=74
150028 On ch=1 n=g#4 v=0
150284 On ch=1 n=a#4 v=112
150294 On ch=1 n=c#7 v=0
150354 On ch=1 n=c#6 v=0
150364 On ch=1 n=f#6 v=0
150654 On ch=1 n=f#6 v=112
150670 On ch=1 n=f#5 v=88
150674 On ch=1 n=c#6 v=89
150846 On ch=1 n=a#4 v=0
150944 On ch=1 n=f#5 v=0
150966 On ch=1 n=c#5 v=106
151134 On ch=1 n=f#6 v=0
151166 On ch=1 n=c#6 v=0
151266 On ch=1 n=d#5 v=96
151398 On ch=1 n=c#5 v=0
151494 On ch=1 n=d#5 v=0
151596 On ch=1 n=a4 v=36
151806 On ch=1 n=c5 v=47
151964 On ch=1 n=a4 v=0
151980 On ch=1 n=c5 v=0
151982 On ch=1 n=a#4 v=60
152072 On ch=1 n=c#5 v=40
152108 On ch=1 n=a#4 v=0
152168 On ch=1 n=f#5 v=61
152190 On ch=1 n=c#5 v=0
152282 On ch=1 n=f#5 v=0
152308 Par ch=1 c=64 v=63
152380 Par ch=1 c=64 v=0
152788 Par ch=1 c=64 v=63
152798 On ch=1 n=c5 v=55
152820 Par ch=1 c=64 v=127
152980 On ch=1 n=f5 v=52
153016 On ch=1 n=c5 v=0
153090 On ch=1 n=f5 v=0
153098 On ch=1 n=c#5 v=64
153190 On ch=1 n=f#5 v=57
153222 On ch=1 n=c#5 v=0
153310 On ch=1 n=a#5 v=61
153312 Par ch=1 c=64 v=63
153330 On ch=1 n=f#5 v=0
153386 Par ch=1 c=64 v=0
153388 On ch=1 n=f5 v=68
153398 On ch=1 n=a#5 v=0
153482 On ch=1 n=a5 v=66
153520 On ch=1 n=f5 v=0
153564 On ch=1 n=a5 v=0
153600 On ch=1 n=f#5 v=59
153692 On ch=1 n=a#5 v=49
153710 On ch=1 n=f#5 v=0
153804 On ch=1 n=a#5 v=0
153814 On ch=1 n=c#6 v=31
154032 On ch=1 n=c#6 v=0
155126 Par ch=1 c=67 v=0
155796 Par ch=1 c=64 v=63
155966 Par ch=1 c=64 v=127
155976 On ch=1 n=f#6 v=56
155984 On ch=1 n=f#5 v=25
156778 On ch=1 n=g#5 v=10
158882 On ch=1 n=d#2 v=22
160990 On ch=1 n=b2 v=6
163110 On ch=1 n=d#2 v=130
163206 On ch=1 n=g#5 v=0
163302 On ch=1 n=f#6 v=0
163306 On ch=1 n=f#5 v=0
163444 On ch=1 n=f5 v=34
163450 On ch=1 n=f6 v=76
163610 Par ch=1 c=64 v=63
163660 Par ch=1 c=64 v=127
163696 On ch=1 n=c6 v=0
163772 On ch=1 n=c5 v=0
163902 On ch=1 n=a#4 v=49
163918 On ch=1 n=g#4 v=0
163944 On ch=1 n=a#5 v=32
163952 On ch=1 n=d5 v=41
163960 On ch=1 n=d6 v=52
163980 On ch=1 n=f5 v=0
164044 On ch=1 n=d5 v=0
164070 On ch=1 n=a#4 v=0
164174 On ch=1 n=a#5 v=0
164344 On ch=1 n=f6 v=0
164420 On ch=1 n=d6 v=0
164432 On ch=1 n=a#2 v=61
164522 On ch=1 n=a#2 v=0
165040 On ch=1 n=g#4 v=30
165102 On ch=1 n=c5 v=39
165156 On ch=1 n=g#5 v=48
165214 On ch=1 n=c5 v=0
165270 On ch=1 n=c6 v=45
165358 On ch=1 n=g#5 v=0
165394 On ch=1 n=g#4 v=0
165398 On ch=1 n=c6 v=0
165780 On ch=1 n=f6 v=94
165808 On ch=1 n=f5 v=41
166050 On ch=1 n=f6 v=0
166302 On ch=1 n=f5 v=0
166310 On ch=1 n=b5 v=76
166314 On ch=1 n=g5 v=55
166336 On ch=1 n=b4 v=30
166338 On ch=1 n=g4 v=42
166434 On ch=1 n=g5 v=0
166468 On ch=1 n=b5 v=0
166726 On ch=1 n=d#6 v=104
166732 On ch=1 n=d#5 v=88
166818 On ch=1 n=b4 v=0
167130 On ch=1 n=g4 v=0
167144 On ch=1 n=a#4 v=33
167172 On ch=1 n=a#5 v=66
167184 On ch=1 n=f#4 v=43
167186 On ch=1 n=f#5 v=49
167254 Par ch=1 c=64 v=63
167310 Par ch=1 c=64 v=127
167410 On ch=1 n=a#4 v=0
167426 On ch=1 n=d#6 v=0
167440 On ch=1 n=f#4 v=0
167532 On ch=1 n=d#5 v=0
167534 On ch=1 n=a#5 v=0
167628 On ch=1 n=f#5 v=0
167754 On ch=1 n=a#2 v=66
167768 On ch=1 n=a#5 v=91
167844 On ch=1 n=a#2 v=0
168276 On ch=1 n=f5 v=37
168276 On ch=1 n=a5 v=34
168490 On ch=1 n=f5 v=0
168494 On ch=1 n=a#5 v=0
168508 On ch=1 n=a5 v=0
168688 Par ch=1 c=67 v=127
168816 On ch=1 n=e4 v=50
168882 On ch=1 n=d#5 v=88
168916 On ch=1 n=g#4 v=39
169066 Par ch=1 c=64 v=63
169086 Par ch=1 c=64 v=127
169246 On ch=1 n=e4 v=0
169516 On ch=1 n=a#2 v=57
169582 On ch=1 n=g#4 v=0
169590 On ch=1 n=a#2 v=0
169674 On ch=1 n=d#5 v=0
169954 On ch=1 n=a#4 v=84
169988 On ch=1 n=d#4 v=32
170042 On ch=1 n=g4 v=25
170308 Par ch=1 c=64 v=63
170332 Par ch=1 c=64 v=127
170394 On ch=1 n=a#2 v=40
170572 On ch=1 n=g4 v=0
170726 On ch=1 n=d#4 v=0
170816 On ch=1 n=f#4 v=66
170830 On ch=1 n=d4 v=30
170962 Par ch=1 c=64 v=63
171028 Par ch=1 c=64 v=127
171262 On ch=1 n=a#2 v=0
171278 On ch=1 n=d4 v=0
171500 On ch=1 n=f#4 v=0
171514 On ch=1 n=a#4 v=0
171586 On ch=1 n=c#4 v=68
171726 On ch=1 n=d#5 v=85
171732 Par ch=1 c=64 v=63
171748 On ch=1 n=f4 v=62
171808 Par ch=1 c=64 v=127
172082 On ch=1 n=d#5 v=0
172172 On ch=1 n=f4 v=0
172376 On ch=1 n=c#4 v=0
172534 On ch=1 n=a#4 v=79
172546 On ch=1 n=d4 v=57
172558 On ch=1 n=f#4 v=65
172852 Par ch=1 c=64 v=63
172962 On ch=1 n=a#2 v=39
172968 Par ch=1 c=64 v=127
173182 On ch=1 n=d4 v=0
173422 On ch=1 n=f#4 v=0
173452 On ch=1 n=d#4 v=32
173484 On ch=1 n=g4 v=37
173562 Par ch=1 c=64 v=63
173674 Par ch=1 c=64 v=127
173710 On ch=1 n=a#2 v=0
174076 On ch=1 n=g4 v=0
174150 On ch=1 n=a#4 v=0
174234 On ch=1 n=d#4 v=0
174564 On ch=1 n=d#5 v=70
174580 On ch=1 n=g#4 v=46
174606 On ch=1 n=e4 v=28
174792 Par ch=1 c=64 v=63
174900 Par ch=1 c=64 v=127
175434 On ch=1 n=g4 v=38
175458 On ch=1 n=d#4 v=48
175556 On ch=1 n=e4 v=0
175772 On ch=1 n=g#4 v=0
176032 On ch=1 n=a#4 v=67
176186 On ch=1 n=d#5 v=0
176506 On ch=1 n=f#4 v=63
176550 On ch=1 n=g4 v=0
176554 On ch=1 n=d4 v=21
176572 On ch=1 n=d#4 v=0
176572 Par ch=1 c=64 v=63
176626 Par ch=1 c=64 v=127
177078 On ch=1 n=a#2 v=54
177288 On ch=1 n=f#4 v=0
177336 On ch=1 n=d4 v=0
177504 On ch=1 n=a#2 v=0
177672 On ch=1 n=a#4 v=0
177692 On ch=1 n=f4 v=45
177694 On ch=1 n=c#4 v=15
177804 On ch=1 n=a#2 v=5
178252 On ch=1 n=c#4 v=0
178350 On ch=1 n=f4 v=0
178632 On ch=1 n=f#4 v=40
178656 On ch=1 n=d4 v=25
179140 On ch=1 n=d4 v=0
179314 On ch=1 n=f#4 v=0
179776 On ch=1 n=f4 v=31
179776 On ch=1 n=c#4 v=11
179816 On ch=1 n=a#2 v=0
180384 On ch=1 n=a#2 v=10
180476 On ch=1 n=f4 v=0
180582 On ch=1 n=c#4 v=0
180772 On ch=1 n=a#2 v=0
181066 On ch=1 n=e4 v=30
181068 On ch=1 n=c4 v=9
181266 On ch=1 n=a#2 v=5
181544 Par ch=1 c=64 v=63
181654 Par ch=1 c=64 v=127
181894 On ch=1 n=a#2 v=0
182246 On ch=1 n=a#2 v=18
182712 On ch=1 n=a#2 v=0
183200 On ch=1 n=a#2 v=17
183724 On ch=1 n=a#2 v=0
184108 On ch=1 n=a#2 v=10
184700 On ch=1 n=a#2 v=0
184876 On ch=1 n=c4 v=0
184964 On ch=1 n=e4 v=0
185000 On ch=1 n=a#2 v=23
185512 On ch=1 n=a#2 v=0
185822 On ch=1 n=a#2 v=27
186348 On ch=1 n=a#2 v=0
186634 On ch=1 n=a#2 v=29
186646 On ch=1 n=f#4 v=45
186878 On ch=1 n=c5 v=47
186878 On ch=1 n=g4 v=29
186890 On ch=1 n=f#4 v=0
186986 On ch=1 n=g4 v=0
186996 On ch=1 n=c5 v=0
187118 On ch=1 n=a#2 v=0
187134 On ch=1 n=d#4 v=40
187292 On ch=1 n=d#4 v=0
187314 On ch=1 n=e4 v=50
187328 On ch=1 n=g4 v=49
187448 On ch=1 n=e4 v=0
187472 On ch=1 n=g4 v=0
187500 On ch=1 n=a#2 v=78
187782 On ch=1 n=a#2 v=0
187806 On ch=1 n=f#4 v=91
187924 On ch=1 n=f#4 v=0
187938 On ch=1 n=c5 v=60
187948 On ch=1 n=g4 v=48
187998 On ch=1 n=g4 v=0
188038 On ch=1 n=c5 v=0
188114 On ch=1 n=a#2 v=63
188132 On ch=1 n=b4 v=93
188252 On ch=1 n=b4 v=0
188252 On ch=1 n=e5 v=75
188254 On ch=1 n=c5 v=88
188326 On ch=1 n=c5 v=0
188346 On ch=1 n=e5 v=0
188352 On ch=1 n=a#2 v=0
188428 On ch=1 n=d#5 v=96
188526 On ch=1 n=d#5 v=0
188582 On ch=1 n=g5 v=81
188600 On ch=1 n=e5 v=49
188660 On ch=1 n=e5 v=0
188680 On ch=1 n=g5 v=0
188890 On ch=1 n=d5 v=72
188950 Par ch=1 c=64 v=63
188962 Par ch=1 c=64 v=0
188968 On ch=1 n=c5 v=60
189020 On ch=1 n=g4 v=68
189042 Par ch=1 c=64 v=63
189060 Par ch=1 c=64 v=127
189092 On ch=1 n=e4 v=76
189132 On ch=1 n=c4 v=63
189212 On ch=1 n=e4 v=0
189212 On ch=1 n=g4 v=0
189212 On ch=1 n=g3 v=60
189218 On ch=1 n=c4 v=0
189256 On ch=1 n=g3 v=0
189262 On ch=1 n=c5 v=0
189266 On ch=1 n=d5 v=0
189310 On ch=1 n=a#2 v=110
189368 On ch=1 n=a#2 v=0
189946 On ch=1 n=f6 v=93
189962 On ch=1 n=g#5 v=70
189978 On ch=1 n=c#6 v=82
190084 Par ch=1 c=64 v=63
190124 Par ch=1 c=64 v=0
190248 Par ch=1 c=64 v=63
190266 Par ch=1 c=64 v=127
190354 On ch=1 n=a#3 v=77
190386 On ch=1 n=a#5 v=91
190498 On ch=1 n=g#5 v=0
190640 On ch=1 n=a#5 v=0
190662 On ch=1 n=c#6 v=0
190688 On ch=1 n=f6 v=0
190788 On ch=1 n=a#3 v=0
190906 On ch=1 n=c6 v=80
190908 On ch=1 n=f6 v=79
190912 On ch=1 n=c#6 v=76
191312 On ch=1 n=f5 v=77
191322 On ch=1 n=c#5 v=71
191346 On ch=1 n=c5 v=57
191732 On ch=1 n=c#5 v=0
191732 On ch=1 n=c#6 v=0
191776 On ch=1 n=f6 v=0
191784 On ch=1 n=f5 v=0
191946 On ch=1 n=c6 v=0
192086 On ch=1 n=g#5 v=54
192088 On ch=1 n=c#6 v=52
192096 On ch=1 n=f6 v=59
192112 On ch=1 n=g#4 v=52
192116 On ch=1 n=c#5 v=27
192120 On ch=1 n=f5 v=18
192138 On ch=1 n=c5 v=0
192172 Par ch=1 c=64 v=63
192232 Par ch=1 c=64 v=127
192382 On ch=1 n=f6 v=0
192390 On ch=1 n=g#5 v=0
192424 On ch=1 n=c#6 v=0
192482 On ch=1 n=f6 v=89
192486 On ch=1 n=f5 v=0
192486 On ch=1 n=g#5 v=85
192490 On ch=1 n=c#6 v=77
192510 On ch=1 n=c#5 v=0
192558 On ch=1 n=g#4 v=0
192830 On ch=1 n=a#5 v=98
192838 On ch=1 n=a#3 v=96
192860 On ch=1 n=g#5 v=0
193020 On ch=1 n=f6 v=0
193074 On ch=1 n=a#5 v=0
193106 On ch=1 n=a#3 v=0
193122 On ch=1 n=c#6 v=0
193210 On ch=1 n=c6 v=103
193212 On ch=1 n=f6 v=101
193220 On ch=1 n=c#6 v=98
193566 On ch=1 n=f5 v=76
193568 On ch=1 n=c#5 v=75
193582 On ch=1 n=c5 v=71
194016 On ch=1 n=c#6 v=0
194054 On ch=1 n=c#5 v=0
194094 On ch=1 n=f5 v=0
194474 On ch=1 n=c6 v=0
194528 On ch=1 n=g#5 v=54
194534 On ch=1 n=c#6 v=38
194550 On ch=1 n=c#5 v=31
194552 On ch=1 n=c5 v=0
194554 On ch=1 n=f5 v=21
194558 On ch=1 n=g#4 v=19
194634 Par ch=1 c=64 v=63
194676 Par ch=1 c=64 v=127
194842 On ch=1 n=f5 v=0
194868 On ch=1 n=c#5 v=0
194908 On ch=1 n=g#4 v=0
195016 On ch=1 n=f6 v=0
195052 On ch=1 n=a#3 v=76
195096 On ch=1 n=c#6 v=0
195098 On ch=1 n=a#3 v=0
195128 On ch=1 n=g#5 v=0
195812 On ch=1 n=a#3 v=58
196356 On ch=1 n=a#3 v=0
196540 On ch=1 n=a#3 v=43
196554 On ch=1 n=b4 v=71
196580 Par ch=1 c=64 v=63
196658 Par ch=1 c=64 v=127
196714 On ch=1 n=f5 v=63
196728 On ch=1 n=c5 v=72
196810 On ch=1 n=b4 v=0
196822 On ch=1 n=f5 v=0
196836 On ch=1 n=c5 v=0
196940 On ch=1 n=g4 v=78
197002 On ch=1 n=a#3 v=0
197062 On ch=1 n=g#4 v=84
197076 On ch=1 n=c5 v=84
197084 On ch=1 n=g4 v=0
197148 On ch=1 n=g#4 v=0
197158 On ch=1 n=c5 v=0
197232 On ch=1 n=a#3 v=92
197496 On ch=1 n=b4 v=98
197606 On ch=1 n=c5 v=84
197618 On ch=1 n=b4 v=0
197618 On ch=1 n=f5 v=81
197680 On ch=1 n=c5 v=0
197720 On ch=1 n=f5 v=0
197776 Par ch=1 c=64 v=63
197776 On ch=1 n=e5 v=98
197778 On ch=1 n=a#2 v=97
197820 Par ch=1 c=64 v=127
197846 On ch=1 n=a#3 v=0
197902 On ch=1 n=f5 v=89
197918 On ch=1 n=g#5 v=99
197926 On ch=1 n=e5 v=0
198020 On ch=1 n=f5 v=0
198054 On ch=1 n=a#3 v=107
198056 On ch=1 n=g#5 v=0
198086 On ch=1 n=a#2 v=0
198130 On ch=1 n=a#3 v=0
198390 Par ch=1 c=64 v=63
198392 On ch=1 n=g5 v=86
198404 On ch=1 n=g#4 v=84
198404 On ch=1 n=d5 v=77
198434 Par ch=1 c=64 v=127
198440 On ch=1 n=d5 v=0
198488 On ch=1 n=f5 v=74
198492 On ch=1 n=g#4 v=0
198544 On ch=1 n=g5 v=0
198578 On ch=1 n=c5 v=69
198604 On ch=1 n=f5 v=0
198678 On ch=1 n=f4 v=78
198690 On ch=1 n=c5 v=0
198756 On ch=1 n=f4 v=0
198802 On ch=1 n=a#3 v=120
198908 On ch=1 n=a#3 v=0
199252 On ch=1 n=a#4 v=104
199316 On ch=1 n=a#6 v=109
199326 On ch=1 n=c#6 v=99
199326 On ch=1 n=f#6 v=99
199360 Par ch=1 c=64 v=63
199368 Par ch=1 c=64 v=0
199472 Par ch=1 c=64 v=63
199484 Par ch=1 c=64 v=127
199740 On ch=1 n=c#6 v=0
199816 On ch=1 n=a#5 v=112
199820 On ch=1 n=d#6 v=109
199824 On ch=1 n=f#5 v=97
199838 On ch=1 n=d#5 v=78
200054 On ch=1 n=d#6 v=0
200058 On ch=1 n=a#6 v=0
200136 On ch=1 n=f#6 v=0
200222 On ch=1 n=f6 v=104
200228 On ch=1 n=a#6 v=104
200236 On ch=1 n=f#6 v=92
200270 On ch=1 n=d#5 v=0
200326 On ch=1 n=a#4 v=0
200382 On ch=1 n=f#5 v=0
200424 On ch=1 n=a#5 v=0
200570 On ch=1 n=a#5 v=105
200584 On ch=1 n=f5 v=77
200586 On ch=1 n=f#5 v=80
201004 On ch=1 n=f#6 v=0
201024 On ch=1 n=f#5 v=0
201060 On ch=1 n=a#5 v=0
201094 On ch=1 n=a#6 v=0
201260 On ch=1 n=f#6 v=30
201260 Par ch=1 c=67 v=127
201270 On ch=1 n=f6 v=0
201270 On ch=1 n=a#6 v=80
201280 On ch=1 n=c#6 v=79
201284 On ch=1 n=a#5 v=72
201288 On ch=1 n=f#5 v=67
201308 On ch=1 n=c#5 v=66
201360 On ch=1 n=f5 v=0
201376 Par ch=1 c=64 v=63
201392 Par ch=1 c=64 v=0
201418 Par ch=1 c=64 v=63
201456 Par ch=1 c=64 v=127
201592 On ch=1 n=a#6 v=0
201606 On ch=1 n=c#6 v=0
201622 On ch=1 n=f#6 v=0
201666 On ch=1 n=c#6 v=107
201668 On ch=1 n=a#6 v=109
201672 On ch=1 n=f#6 v=90
201894 On ch=1 n=f#5 v=0
201896 On ch=1 n=a#5 v=0
201980 On ch=1 n=d#6 v=103
201988 On ch=1 n=a#5 v=105
201998 On ch=1 n=f#5 v=96
202002 On ch=1 n=d#5 v=97
202008 On ch=1 n=c#6 v=0
202038 On ch=1 n=c#5 v=0
202280 On ch=1 n=a#6 v=0
202282 On ch=1 n=d#6 v=0
202300 On ch=1 n=f#6 v=0
202342 On ch=1 n=a#6 v=94
202346 On ch=1 n=f#6 v=95
202352 On ch=1 n=f6 v=96
202448 Par ch=1 c=64 v=63
202472 Par ch=1 c=64 v=0
202570 Par ch=1 c=64 v=63
202588 Par ch=1 c=64 v=127
202602 On ch=1 n=a#5 v=0
202616 On ch=1 n=f#5 v=0
202728 On ch=1 n=a#5 v=75
202738 On ch=1 n=d#5 v=0
202738 On ch=1 n=f#5 v=67
202740 On ch=1 n=f5 v=71
203242 On ch=1 n=f#5 v=0
203248 On ch=1 n=a#5 v=0
203268 On ch=1 n=f#6 v=0
203614 On ch=1 n=f#5 v=46
203624 On ch=1 n=c#6 v=53
203628 On ch=1 n=a#5 v=37
203648 On ch=1 n=c#5 v=41
203672 On ch=1 n=f5 v=0
203698 Par ch=1 c=64 v=63
203778 Par ch=1 c=64 v=127
203846 On ch=1 n=c#5 v=0
203852 On ch=1 n=f#5 v=0
203942 On ch=1 n=a#5 v=0
204026 On ch=1 n=a#4 v=76
204584 On ch=1 n=a#4 v=0
204726 Par ch=1 c=67 v=127
204770 On ch=1 n=a#4 v=65
204772 On ch=1 n=a#6 v=0
204790 On ch=1 n=f6 v=0
204816 On ch=1 n=c#6 v=0
205244 On ch=1 n=a#4 v=0
205470 On ch=1 n=a#4 v=44
206000 On ch=1 n=a#4 v=0
206170 On ch=1 n=a#4 v=44
206546 On ch=1 n=a#4 v=0
206838 On ch=1 n=a#4 v=41
207218 On ch=1 n=a#4 v=0
207480 On ch=1 n=a5 v=64
207484 On ch=1 n=c#5 v=49
207488 On ch=1 n=g4 v=36
207536 Par ch=1 c=64 v=63
207556 Par ch=1 c=64 v=127
207602 On ch=1 n=c#5 v=0
207634 On ch=1 n=g4 v=0
207634 On ch=1 n=d#6 v=80
207644 On ch=1 n=a5 v=0
207644 On ch=1 n=a#5 v=61
207690 On ch=1 n=a#5 v=0
207708 On ch=1 n=d#6 v=0
207788 On ch=1 n=f5 v=68
207892 On ch=1 n=f5 v=0
207902 On ch=1 n=f#5 v=70
207910 On ch=1 n=a#5 v=61
207982 On ch=1 n=f#5 v=0
207986 On ch=1 n=a#5 v=0
208040 On ch=1 n=d#3 v=84
208046 On ch=1 n=a#3 v=83
208078 On ch=1 n=a#3 v=0
208086 On ch=1 n=d#3 v=0
208348 On ch=1 n=g5 v=81
208484 On ch=1 n=g#5 v=86
208488 On ch=1 n=c#6 v=81
208522 On ch=1 n=g5 v=0
208562 On ch=1 n=c#6 v=0
208564 On ch=1 n=g#5 v=0
208660 On ch=1 n=a5 v=82
208668 On ch=1 n=c#5 v=78
208678 On ch=1 n=g4 v=50
208746 On ch=1 n=a5 v=0
208762 On ch=1 n=c#5 v=0
208782 On ch=1 n=a#5 v=93
208784 On ch=1 n=d#6 v=100
208790 On ch=1 n=g4 v=0
208844 On ch=1 n=a#5 v=0
208870 On ch=1 n=d#6 v=0
208912 On ch=1 n=d6 v=87
208978 On ch=1 n=d6 v=0
209028 On ch=1 n=g6 v=90
209028 On ch=1 n=d#6 v=91
209164 On ch=1 n=g6 v=0
209178 On ch=1 n=d#6 v=0
209184 On ch=1 n=c4 v=83
209186 On ch=1 n=f3 v=68
209200 On ch=1 n=g6 v=96
209218 Par ch=1 c=64 v=63
209280 Par ch=1 c=64 v=127
209286 On ch=1 n=f6 v=96
209294 On ch=1 n=f3 v=0
209310 On ch=1 n=c4 v=0
209330 On ch=1 n=g6 v=0
209354 On ch=1 n=c6 v=82
209364 On ch=1 n=f6 v=0
209404 On ch=1 n=f5 v=97
209428 On ch=1 n=c6 v=0
209470 On ch=1 n=f5 v=0
209490 On ch=1 n=c5 v=99
209498 On ch=1 n=c6 v=112
209562 On ch=1 n=c6 v=0
209768 On ch=1 n=a4 v=57
209770 On ch=1 n=d#6 v=123
209774 On ch=1 n=d#5 v=88
209878 Par ch=1 c=64 v=63
209890 Par ch=1 c=64 v=0
209956 Par ch=1 c=64 v=63
209976 Par ch=1 c=64 v=127
210200 On ch=1 n=g6 v=57
210202 On ch=1 n=f6 v=61
210216 On ch=1 n=g5 v=41
210218 On ch=1 n=f5 v=43
210460 On ch=1 n=f5 v=0
210464 On ch=1 n=g5 v=0
210512 On ch=1 n=f6 v=0
210516 On ch=1 n=g6 v=0
210814 On ch=1 n=d#5 v=0
210820 On ch=1 n=c5 v=0
210826 On ch=1 n=g5 v=25
210832 On ch=1 n=f5 v=29
210850 On ch=1 n=f6 v=28
210850 On ch=1 n=g6 v=27
211082 On ch=1 n=a4 v=0
211086 On ch=1 n=f5 v=0
211100 On ch=1 n=g5 v=0
211110 On ch=1 n=g6 v=0
211120 On ch=1 n=c6 v=79
211124 On ch=1 n=d#6 v=0
211134 On ch=1 n=c5 v=59
211168 On ch=1 n=f6 v=0
211182 Par ch=1 c=64 v=63
211258 Par ch=1 c=64 v=127
211428 On ch=1 n=g5 v=30
211430 On ch=1 n=c5 v=0
211436 On ch=1 n=f5 v=33
211438 On ch=1 n=g6 v=26
211442 On ch=1 n=f6 v=23
211538 On ch=1 n=g6 v=0
211546 On ch=1 n=f6 v=0
211580 On ch=1 n=c6 v=0
211618 On ch=1 n=g5 v=0
211634 On ch=1 n=f5 v=0
211712 On ch=1 n=c#5 v=73
211722 Par ch=1 c=64 v=63
211724 On ch=1 n=g4 v=66
211734 Par ch=1 c=64 v=0
211764 Par ch=1 c=64 v=63
211796 Par ch=1 c=64 v=127
211826 On ch=1 n=c#5 v=0
211874 On ch=1 n=g4 v=0
212124 On ch=1 n=a4 v=74
212252 On ch=1 n=a#4 v=78
212258 On ch=1 n=a4 v=0
212262 On ch=1 n=d#5 v=81
212318 On ch=1 n=a#4 v=0
212352 On ch=1 n=d#5 v=0
212384 On ch=1 n=d#3 v=72
212386 On ch=1 n=a#3 v=68
212394 On ch=1 n=d5 v=98
212484 On ch=1 n=d#3 v=0
212492 On ch=1 n=g5 v=87
212494 On ch=1 n=a#3 v=0
212500 On ch=1 n=d#5 v=94
212504 On ch=1 n=d5 v=0
212554 On ch=1 n=d#5 v=0
212572 On ch=1 n=g5 v=0
212618 On ch=1 n=f#5 v=109
212702 On ch=1 n=f#5 v=0
212756 On ch=1 n=g5 v=76
212776 On ch=1 n=a#5 v=97
212868 On ch=1 n=g5 v=0
212888 On ch=1 n=a#5 v=0
213020 On ch=1 n=g5 v=84
213030 On ch=1 n=f3 v=39
213032 On ch=1 n=c4 v=54
213038 Par ch=1 c=64 v=63
213046 Par ch=1 c=64 v=0
213112 On ch=1 n=f5 v=86
213114 Par ch=1 c=64 v=63
213132 Par ch=1 c=64 v=127
213134 On ch=1 n=g5 v=0
213160 On ch=1 n=c5 v=82
213178 On ch=1 n=c4 v=0
213188 On ch=1 n=f3 v=0
213198 On ch=1 n=f5 v=0
213230 On ch=1 n=g4 v=91
213252 On ch=1 n=c5 v=0
213304 On ch=1 n=g4 v=0
213348 On ch=1 n=c4 v=107
213652 On ch=1 n=d#4 v=104
213660 On ch=1 n=a4 v=89
213766 Par ch=1 c=64 v=63
213778 Par ch=1 c=64 v=0
213870 Par ch=1 c=64 v=63
213886 Par ch=1 c=64 v=127
214056 On ch=1 n=g5 v=43
214062 On ch=1 n=f5 v=43
214086 On ch=1 n=g4 v=18
214088 On ch=1 n=d#4 v=0
214092 On ch=1 n=f4 v=21
214112 On ch=1 n=a4 v=0
214152 On ch=1 n=c4 v=0
214328 On ch=1 n=f4 v=0
214334 On ch=1 n=g4 v=0
214350 On ch=1 n=f5 v=0
214356 On ch=1 n=g5 v=0
214446 On ch=1 n=c4 v=77
214546 On ch=1 n=c4 v=0
214672 Par ch=1 c=67 v=127
214820 On ch=1 n=g5 v=37
214826 On ch=1 n=f5 v=38
214826 On ch=1 n=g4 v=25
214838 On ch=1 n=f4 v=25
214944 On ch=1 n=f4 v=0
214948 On ch=1 n=f5 v=0
214948 On ch=1 n=g5 v=0
214954 On ch=1 n=g4 v=0
215122 On ch=1 n=f3 v=65
215280 Par ch=1 c=64 v=63
215318 Par ch=1 c=64 v=127
215556 On ch=1 n=f3 v=0
215730 On ch=1 n=f3 v=74
216060 On ch=1 n=f3 v=0
216414 On ch=1 n=f3 v=57
216432 On ch=1 n=b4 v=73
216586 On ch=1 n=f5 v=65
216600 On ch=1 n=c5 v=69
216646 On ch=1 n=b4 v=0
216664 Par ch=1 c=64 v=63
216682 On ch=1 n=f5 v=0
216684 On ch=1 n=c5 v=0
216684 Par ch=1 c=64 v=127
216716 Par ch=1 c=67 v=0
216760 On ch=1 n=g#4 v=85
216878 On ch=1 n=a4 v=66
216884 On ch=1 n=g#4 v=0
216898 On ch=1 n=c5 v=71
216966 On ch=1 n=f3 v=0
217004 On ch=1 n=a4 v=0
217016 On ch=1 n=c5 v=0
217050 On ch=1 n=f3 v=84
217302 On ch=1 n=b4 v=94
217394 On ch=1 n=b4 v=0
217398 On ch=1 n=c5 v=92
217408 On ch=1 n=f5 v=91
217418 On ch=1 n=f3 v=0
217460 On ch=1 n=c5 v=0
217496 On ch=1 n=f5 v=0
217544 On ch=1 n=e5 v=101
217546 On ch=1 n=f3 v=89
217582 On ch=1 n=f3 v=0
217622 On ch=1 n=e5 v=0
217648 On ch=1 n=f5 v=91
217648 On ch=1 n=a5 v=84
217716 On ch=1 n=f5 v=0
217742 On ch=1 n=a5 v=0
217814 On ch=1 n=d#5 v=99
217814 On ch=1 n=a4 v=81
218166 On ch=1 n=c#5 v=84
218172 On ch=1 n=g#4 v=72
218174 On ch=1 n=g5 v=89
218202 On ch=1 n=d#5 v=0
218202 Par ch=1 c=64 v=63
218254 Par ch=1 c=64 v=127
218292 On ch=1 n=a4 v=0
218310 On ch=1 n=g#5 v=89
218316 On ch=1 n=c#6 v=89
218342 On ch=1 n=g5 v=0
218372 On ch=1 n=c#5 v=0
218390 On ch=1 n=g#5 v=0
218404 On ch=1 n=c#6 v=0
218412 On ch=1 n=g#4 v=0
218452 On ch=1 n=e5 v=91
218546 On ch=1 n=f5 v=96
218554 On ch=1 n=g#5 v=99
218560 On ch=1 n=e5 v=0
218606 On ch=1 n=f5 v=0
218628 On ch=1 n=g#5 v=0
218688 On ch=1 n=f3 v=117
218918 On ch=1 n=g5 v=97
218958 On ch=1 n=f3 v=0
219008 On ch=1 n=g#5 v=103
219022 On ch=1 n=c#6 v=100
219028 On ch=1 n=g5 v=0
219058 On ch=1 n=g#5 v=0
219098 On ch=1 n=c#6 v=0
219130 On ch=1 n=f3 v=112
219154 On ch=1 n=c6 v=106
219184 On ch=1 n=f3 v=0
219222 On ch=1 n=c6 v=0
219256 On ch=1 n=c#6 v=108
219268 On ch=1 n=f6 v=89
219326 On ch=1 n=c#6 v=0
219346 On ch=1 n=f6 v=0
219386 On ch=1 n=g#5 v=112
219388 On ch=1 n=f5 v=97
219392 On ch=1 n=c#5 v=101
219440 Par ch=1 c=64 v=63
219452 Par ch=1 c=64 v=0
219508 Par ch=1 c=64 v=63
219528 Par ch=1 c=64 v=127
219548 On ch=1 n=f5 v=0
219576 On ch=1 n=g#5 v=0
219656 On ch=1 n=a5 v=98
219662 On ch=1 n=g5 v=102
219666 On ch=1 n=d#5 v=103
219676 On ch=1 n=a#4 v=93
219714 On ch=1 n=c#5 v=0
219756 On ch=1 n=a5 v=0
219790 On ch=1 n=a#5 v=105
219808 On ch=1 n=d#6 v=92
219846 On ch=1 n=a#5 v=0
219876 On ch=1 n=d#6 v=0
219908 On ch=1 n=d#5 v=0
219914 On ch=1 n=a#4 v=0
219930 On ch=1 n=g5 v=0
219940 On ch=1 n=d6 v=79
219994 On ch=1 n=d6 v=0
220030 On ch=1 n=g6 v=97
220038 On ch=1 n=d#6 v=93
220078 On ch=1 n=d#6 v=0
220102 On ch=1 n=g6 v=0
220140 On ch=1 n=f4 v=114
220330 On ch=1 n=d6 v=113
220424 On ch=1 n=d#6 v=112
220428 On ch=1 n=g6 v=99
220454 On ch=1 n=d6 v=0
220484 On ch=1 n=d#6 v=0
220488 On ch=1 n=g6 v=0
220538 On ch=1 n=f4 v=0
220550 On ch=1 n=f5 v=104
220560 On ch=1 n=f#6 v=112
220604 On ch=1 n=f5 v=0
220638 On ch=1 n=f#6 v=0
220650 On ch=1 n=a#6 v=100
220656 On ch=1 n=g6 v=80
220716 On ch=1 n=g6 v=0
220726 On ch=1 n=a#6 v=0
220770 On ch=1 n=a#5 v=106
220772 On ch=1 n=d#6 v=113
220952 On ch=1 n=d#6 v=0
221024 On ch=1 n=a#5 v=0
221028 On ch=1 n=f#6 v=115
221034 On ch=1 n=c6 v=100
221046 On ch=1 n=g5 v=82
221108 On ch=1 n=f#6 v=0
221120 On ch=1 n=c6 v=0
221136 On ch=1 n=a#6 v=93
221138 On ch=1 n=g6 v=77
221196 On ch=1 n=g6 v=0
221234 On ch=1 n=a#6 v=0
221252 On ch=1 n=a#5 v=108
221252 On ch=1 n=d#6 v=120
221262 On ch=1 n=g6 v=109
221298 On ch=1 n=g5 v=0
221342 On ch=1 n=g6 v=0
221358 On ch=1 n=d#6 v=0
221362 On ch=1 n=g#6 v=109
221368 On ch=1 n=c7 v=102
221516 On ch=1 n=g#6 v=0
221528 On ch=1 n=c7 v=0
221528 On ch=1 n=a#5 v=0
221548 On ch=1 n=f6 v=116
221560 On ch=1 n=g6 v=107
221562 Par ch=1 c=64 v=63
221574 Par ch=1 c=64 v=0
221638 Par ch=1 c=64 v=63
221654 Par ch=1 c=64 v=127
221720 On ch=1 n=g#6 v=106
221730 On ch=1 n=c7 v=99
221756 On ch=1 n=g6 v=0
221798 On ch=1 n=g#6 v=0
221806 On ch=1 n=c7 v=0
221848 On ch=1 n=a6 v=102
221868 On ch=1 n=f6 v=0
221944 On ch=1 n=d#7 v=112
221946 On ch=1 n=a#6 v=108
221968 On ch=1 n=a6 v=0
222028 On ch=1 n=a#6 v=0
222056 On ch=1 n=b6 v=96
222070 On ch=1 n=f5 v=112
222076 On ch=1 n=d#7 v=0
222146 On ch=1 n=b6 v=0
222176 On ch=1 n=f7 v=100
222178 On ch=1 n=c7 v=101
222244 On ch=1 n=c7 v=0
222256 On ch=1 n=f7 v=0
222286 On ch=1 n=g6 v=92
222330 On ch=1 n=f5 v=0
222386 On ch=1 n=g#6 v=105
222404 On ch=1 n=g6 v=0
222406 On ch=1 n=c7 v=84
222460 On ch=1 n=g#6 v=0
222484 On ch=1 n=c7 v=0
222512 On ch=1 n=a6 v=98
222594 On ch=1 n=a6 v=0
222612 On ch=1 n=d#7 v=104
222614 On ch=1 n=a#6 v=99
222704 On ch=1 n=b6 v=89
222724 On ch=1 n=a#6 v=0
222740 On ch=1 n=d#7 v=0
222788 On ch=1 n=b6 v=0
222808 On ch=1 n=c7 v=99
222810 On ch=1 n=f7 v=99
222878 On ch=1 n=c7 v=0
222890 On ch=1 n=f7 v=0
222920 On ch=1 n=f4 v=114
222940 On ch=1 n=g6 v=89
223030 On ch=1 n=g6 v=0
223044 On ch=1 n=g#6 v=99
223064 On ch=1 n=c7 v=89
223106 On ch=1 n=g#6 v=0
223136 On ch=1 n=c7 v=0
223166 On ch=1 n=a6 v=97
223238 On ch=1 n=a6 v=0
223266 On ch=1 n=a#6 v=100
223266 On ch=1 n=d#7 v=103
223330 On ch=1 n=a#6 v=0
223358 On ch=1 n=d#7 v=0
223366 On ch=1 n=b6 v=72
223434 On ch=1 n=b6 v=0
223458 On ch=1 n=f7 v=83
223462 On ch=1 n=c7 v=91
223526 On ch=1 n=f7 v=0
223530 On ch=1 n=c7 v=0
223572 On ch=1 n=g6 v=84
223660 On ch=1 n=g#6 v=98
223666 On ch=1 n=g6 v=0
223680 On ch=1 n=c7 v=80
223744 On ch=1 n=g#6 v=0
223758 On ch=1 n=c7 v=0
223788 On ch=1 n=a6 v=88
223868 On ch=1 n=a6 v=0
223886 On ch=1 n=d#7 v=96
223896 On ch=1 n=a#6 v=81
223934 On ch=1 n=a#6 v=0
223980 On ch=1 n=b6 v=82
223982 On ch=1 n=d#7 v=0
224056 On ch=1 n=b6 v=0
224080 On ch=1 n=f7 v=78
224082 On ch=1 n=c7 v=80
224154 On ch=1 n=c7 v=0
224158 On ch=1 n=f7 v=0
224180 On ch=1 n=g6 v=75
224260 On ch=1 n=g6 v=0
224276 On ch=1 n=f4 v=0
224284 On ch=1 n=g#6 v=90
224304 On ch=1 n=c7 v=63
224360 On ch=1 n=g#6 v=0
224366 On ch=1 n=c7 v=0
224406 On ch=1 n=a6 v=75
224482 On ch=1 n=a6 v=0
224508 On ch=1 n=a#6 v=75
224508 On ch=1 n=d#7 v=80
224576 On ch=1 n=a#6 v=0
224586 On ch=1 n=d#7 v=0
224596 On ch=1 n=b6 v=73
224672 On ch=1 n=b6 v=0
224700 On ch=1 n=f7 v=68
224704 On ch=1 n=c7 v=63
224760 On ch=1 n=c7 v=0
224768 On ch=1 n=f7 v=0
224790 On ch=1 n=g6 v=74
224868 On ch=1 n=g6 v=0
224892 On ch=1 n=g#6 v=79
224918 On ch=1 n=c7 v=56
224976 On ch=1 n=g#6 v=0
224988 On ch=1 n=c7 v=0
225016 On ch=1 n=a6 v=71
225086 On ch=1 n=a6 v=0
225114 On ch=1 n=d#7 v=83
225120 On ch=1 n=a#6 v=65
225164 On ch=1 n=a#6 v=0
225190 On ch=1 n=d#7 v=0
225198 On ch=1 n=b6 v=72
225276 On ch=1 n=b6 v=0
225306 On ch=1 n=f7 v=59
225308 On ch=1 n=c7 v=59
225358 On ch=1 n=f7 v=0
225370 On ch=1 n=c7 v=0
225392 On ch=1 n=g6 v=72
225466 On ch=1 n=g6 v=0
225492 On ch=1 n=g#6 v=68
225522 On ch=1 n=c7 v=42
225574 On ch=1 n=c7 v=0
225584 On ch=1 n=g#6 v=0
225612 On ch=1 n=a6 v=65
225686 On ch=1 n=a6 v=0
225708 On ch=1 n=d#7 v=74
225712 On ch=1 n=a#6 v=65
225764 On ch=1 n=a#6 v=0
225768 On ch=1 n=d#7 v=0
225802 On ch=1 n=b6 v=63
225868 On ch=1 n=b6 v=0
225898 On ch=1 n=c7 v=55
225900 On ch=1 n=f7 v=43
225946 On ch=1 n=f7 v=0
225952 On ch=1 n=c7 v=0
225988 On ch=1 n=g6 v=68
226058 On ch=1 n=g6 v=0
226086 On ch=1 n=g#6 v=62
226162 On ch=1 n=g#6 v=0
226206 On ch=1 n=a6 v=60
226272 On ch=1 n=a6 v=0
226298 On ch=1 n=d#7 v=79
226300 On ch=1 n=a#6 v=64
226368 On ch=1 n=d#7 v=0
226390 On ch=1 n=a#6 v=0
226394 On ch=1 n=b6 v=70
226466 On ch=1 n=b6 v=0
226486 On ch=1 n=c7 v=65
226490 On ch=1 n=f7 v=61
226554 On ch=1 n=f7 v=0
226558 On ch=1 n=c7 v=0
226590 On ch=1 n=g6 v=65
226688 On ch=1 n=g6 v=0
226702 On ch=1 n=g#6 v=88
226732 On ch=1 n=c7 v=59
226798 On ch=1 n=g#6 v=0
226806 On ch=1 n=c7 v=0
226836 On ch=1 n=a6 v=80
226932 On ch=1 n=a6 v=0
226934 On ch=1 n=d#7 v=104
226942 On ch=1 n=a#6 v=91
227030 On ch=1 n=a#6 v=0
227046 On ch=1 n=g#3 v=116
227068 On ch=1 n=d#7 v=0
227068 On ch=1 n=b6 v=85
227128 Par ch=1 c=64 v=63
227164 On ch=1 n=b6 v=0
227176 Par ch=1 c=64 v=127
227192 On ch=1 n=f7 v=99
227192 On ch=1 n=c7 v=98
227290 On ch=1 n=c7 v=0
227300 On ch=1 n=f7 v=0
227330 On ch=1 n=g#4 v=123
227330 On ch=1 n=g6 v=94
227362 On ch=1 n=g#3 v=0
227378 On ch=1 n=g#4 v=0
227462 On ch=1 n=g#6 v=108
227470 On ch=1 n=c7 v=98
227492 On ch=1 n=g6 v=0
227620 On ch=1 n=a5 v=83
227626 On ch=1 n=c6 v=100
227630 On ch=1 n=f6 v=117
227632 On ch=1 n=f#5 v=90
227648 On ch=1 n=g#6 v=0
227654 On ch=1 n=a6 v=94
227666 On ch=1 n=c7 v=0
227796 On ch=1 n=a#6 v=112
227798 On ch=1 n=d#7 v=110
227828 On ch=1 n=a6 v=0
227912 On ch=1 n=a#6 v=0
227944 On ch=1 n=b6 v=98
227962 On ch=1 n=f6 v=0
227976 On ch=1 n=a#6 v=59
228014 On ch=1 n=a#6 v=0
228018 On ch=1 n=d#7 v=0
228028 On ch=1 n=c6 v=0
228052 On ch=1 n=a5 v=0
228056 On ch=1 n=f#5 v=0
228066 On ch=1 n=b6 v=0
228112 On ch=1 n=c7 v=117
228112 On ch=1 n=f7 v=111
228180 On ch=1 n=c7 v=0
228190 On ch=1 n=f7 v=0
228378 On ch=1 n=c6 v=114
228382 On ch=1 n=e5 v=99
228384 On ch=1 n=c#5 v=103
228390 On ch=1 n=d#7 v=118
228468 Par ch=1 c=64 v=63
228476 Par ch=1 c=64 v=0
228564 Par ch=1 c=64 v=63
228568 Par ch=1 c=64 v=127
228596 On ch=1 n=g#6 v=86
228652 On ch=1 n=d#7 v=0
228696 On ch=1 n=d#6 v=97
228728 On ch=1 n=g#6 v=0
228762 On ch=1 n=d#6 v=0
228794 On ch=1 n=c#7 v=109
228852 On ch=1 n=e5 v=0
228876 On ch=1 n=c6 v=0
228890 On ch=1 n=g#6 v=90
228932 On ch=1 n=c#7 v=0
228966 On ch=1 n=c#6 v=96
228968 On ch=1 n=g#6 v=0
229018 On ch=1 n=c#6 v=0
229048 On ch=1 n=c#5 v=0
229060 On ch=1 n=f5 v=114
229074 On ch=1 n=g#6 v=100
229128 On ch=1 n=f5 v=0
229174 On ch=1 n=f6 v=11
229218 On ch=1 n=g#6 v=0
229234 On ch=1 n=g#5 v=99
229236 On ch=1 n=f6 v=0
229284 On ch=1 n=g#5 v=0
229346 On ch=1 n=d#6 v=110
229444 On ch=1 n=g#5 v=97
229486 On ch=1 n=d#6 v=0
229532 On ch=1 n=d#5 v=87
229548 On ch=1 n=g#5 v=0
229572 On ch=1 n=d#5 v=0
229602 On ch=1 n=c#6 v=114
229692 On ch=1 n=g#5 v=91
229740 On ch=1 n=c#6 v=0
229760 On ch=1 n=c#5 v=98
229768 On ch=1 n=g#5 v=0
229812 On ch=1 n=c#5 v=0
229850 On ch=1 n=g#5 v=105
229914 On ch=1 n=f5 v=34
230008 On ch=1 n=g#4 v=105
230012 On ch=1 n=g#5 v=0
230090 On ch=1 n=g#4 v=0
230106 On ch=1 n=f5 v=0
230146 On ch=1 n=g#6 v=120
230150 On ch=1 n=c#6 v=121
230152 On ch=1 n=g#5 v=121
230216 Par ch=1 c=64 v=63
230228 Par ch=1 c=64 v=0
230256 On ch=1 n=g#5 v=0
230356 On ch=1 n=f#5 v=108
230472 On ch=1 n=d#5 v=104
230502 Par ch=1 c=64 v=63
230504 Par ch=1 c=64 v=127
230524 On ch=1 n=f#5 v=0
230592 On ch=1 n=g#5 v=98
230612 On ch=1 n=d#5 v=0
230698 On ch=1 n=g#6 v=0
230712 On ch=1 n=c#6 v=0
230722 On ch=1 n=c#5 v=98
230728 On ch=1 n=g#5 v=0
230838 On ch=1 n=a#4 v=108
230868 On ch=1 n=c#5 v=0
230954 On ch=1 n=f#6 v=107
230954 On ch=1 n=d#6 v=112
230956 On ch=1 n=g#5 v=106
231004 On ch=1 n=a#4 v=0
231066 On ch=1 n=c#5 v=90
231114 On ch=1 n=g#5 v=0
231146 On ch=1 n=a#4 v=104
231212 On ch=1 n=c#5 v=0
231238 On ch=1 n=a#5 v=109
231278 On ch=1 n=a#4 v=0
231282 On ch=1 n=d#6 v=0
231316 On ch=1 n=f#6 v=0
231326 On ch=1 n=d#5 v=101
231346 On ch=1 n=a#5 v=0
231402 On ch=1 n=c#5 v=96
231446 On ch=1 n=d#5 v=0
231478 On ch=1 n=c#6 v=123
231488 On ch=1 n=a#5 v=109
231494 On ch=1 n=g#5 v=105
231508 On ch=1 n=c#5 v=0
231600 On ch=1 n=c#5 v=88
231614 On ch=1 n=g#5 v=0
231706 On ch=1 n=a#4 v=106
231756 On ch=1 n=c#5 v=0
231804 On ch=1 n=f#5 v=109
231832 On ch=1 n=a#4 v=0
231886 On ch=1 n=c#5 v=103
231918 On ch=1 n=f#5 v=0
231924 On ch=1 n=a#5 v=0
231946 On ch=1 n=c#6 v=0
231994 On ch=1 n=g#4 v=106
232030 On ch=1 n=c#5 v=0
232074 On ch=1 n=g#4 v=0
232172 On ch=1 n=f#4 v=109
232182 On ch=1 n=g#5 v=118
232252 Par ch=1 c=64 v=63
232266 Par ch=1 c=64 v=0
232308 Par ch=1 c=64 v=63
232332 Par ch=1 c=64 v=127
232372 On ch=1 n=a4 v=76
232430 On ch=1 n=g#5 v=0
232496 On ch=1 n=a#4 v=103
232536 On ch=1 n=a4 v=0
232548 On ch=1 n=f#4 v=0
232578 On ch=1 n=a#4 v=0
232606 On ch=1 n=c5 v=84
232668 On ch=1 n=c#5 v=84
232682 On ch=1 n=c5 v=0
232744 On ch=1 n=f#5 v=107
232764 On ch=1 n=c#5 v=0
232814 On ch=1 n=f#5 v=0
232830 On ch=1 n=c5 v=89
232920 On ch=1 n=c#5 v=5
233034 On ch=1 n=f#5 v=101
233122 On ch=1 n=f#5 v=0
233126 On ch=1 n=a5 v=78
233164 On ch=1 n=c5 v=0
233172 On ch=1 n=c#5 v=0
233194 On ch=1 n=a#5 v=97
233226 On ch=1 n=a5 v=0
233276 On ch=1 n=c#6 v=97
233304 On ch=1 n=a#5 v=0
233376 On ch=1 n=f#6 v=90
233380 On ch=1 n=c#5 v=125
233390 On ch=1 n=c#6 v=0
233508 On ch=1 n=f#6 v=0
233526 On ch=1 n=c#6 v=76
233614 On ch=1 n=a#5 v=82
233730 On ch=1 n=a5 v=49
233742 On ch=1 n=c#6 v=0
233772 On ch=1 n=a#5 v=0
233832 On ch=1 n=f#5 v=57
233850 On ch=1 n=a5 v=0
233880 On ch=1 n=c#5 v=0
233908 On ch=1 n=f5 v=84
233922 On ch=1 n=f#5 v=0
234030 On ch=1 n=e4 v=106
234042 On ch=1 n=c#6 v=110
234138 Par ch=1 c=64 v=63
234148 Par ch=1 c=64 v=0
234180 On ch=1 n=f5 v=0
234180 Par ch=1 c=64 v=63
234202 Par ch=1 c=64 v=127
234252 On ch=1 n=g#4 v=69
234288 On ch=1 n=f#5 v=97
234452 On ch=1 n=f5 v=90
234476 On ch=1 n=e4 v=0
234488 On ch=1 n=c#6 v=0
234506 On ch=1 n=g#4 v=0
234508 On ch=1 n=f#5 v=0
234566 On ch=1 n=f5 v=0
234578 On ch=1 n=e5 v=97
234634 On ch=1 n=e5 v=0
234700 On ch=1 n=f#5 v=97
234776 On ch=1 n=g#5 v=116
234816 On ch=1 n=f#5 v=0
234870 On ch=1 n=d5 v=69
235038 On ch=1 n=g#4 v=68
235054 On ch=1 n=f5 v=91
235070 On ch=1 n=d5 v=0
235168 On ch=1 n=f#5 v=104
235174 On ch=1 n=f5 v=0
235246 On ch=1 n=g#4 v=0
235280 On ch=1 n=c5 v=81
235318 On ch=1 n=d#5 v=103
235324 On ch=1 n=f#5 v=0
235342 Par ch=1 c=64 v=63
235384 Par ch=1 c=64 v=127
235418 On ch=1 n=e5 v=87
235432 On ch=1 n=d#5 v=0
235460 On ch=1 n=f#4 v=66
235496 On ch=1 n=g#5 v=0
235512 On ch=1 n=c5 v=0
235564 On ch=1 n=a5 v=101
235578 On ch=1 n=c#5 v=88
235580 On ch=1 n=e5 v=0
235652 On ch=1 n=c#5 v=0
235688 On ch=1 n=d4 v=71
235702 On ch=1 n=d5 v=88
235718 On ch=1 n=f#4 v=0
235746 On ch=1 n=d4 v=0
235798 On ch=1 n=d5 v=0
235840 On ch=1 n=a5 v=0
235946 On ch=1 n=g3 v=88
236010 Par ch=1 c=64 v=63
236020 Par ch=1 c=64 v=0
236046 On ch=1 n=c#4 v=66
236058 Par ch=1 c=64 v=63
236074 Par ch=1 c=64 v=127
236204 On ch=1 n=g3 v=0
236226 On ch=1 n=d4 v=79
236236 On ch=1 n=c#4 v=0
236322 On ch=1 n=d4 v=0
236358 On ch=1 n=d5 v=72
236390 On ch=1 n=f#4 v=71
236422 On ch=1 n=b5 v=84
236428 On ch=1 n=d5 v=0
236470 On ch=1 n=e6 v=96
236500 On ch=1 n=b5 v=0
236552 On ch=1 n=f#4 v=0
236596 On ch=1 n=g4 v=65
236626 On ch=1 n=e6 v=0
236714 On ch=1 n=a#4 v=88
236716 On ch=1 n=g4 v=0
236820 On ch=1 n=b4 v=84
236842 On ch=1 n=a#4 v=0
236974 On ch=1 n=d6 v=103
236980 On ch=1 n=c#5 v=83
236988 On ch=1 n=b4 v=0
237096 On ch=1 n=c#5 v=0
237106 On ch=1 n=d5 v=76
237178 On ch=1 n=d6 v=0
237184 On ch=1 n=d5 v=0
237272 On ch=1 n=a#5 v=89
237424 On ch=1 n=a#5 v=0
237436 On ch=1 n=b5 v=74
237500 On ch=1 n=b5 v=0
237604 On ch=1 n=g5 v=81
237606 On ch=1 n=c#5 v=70
237728 On ch=1 n=c#5 v=0
237776 On ch=1 n=d5 v=51
238000 Par ch=1 c=64 v=63
238008 Par ch=1 c=64 v=0
238014 On ch=1 n=d#3 v=96
238106 Par ch=1 c=64 v=63
238110 Par ch=1 c=64 v=127
238132 On ch=1 n=d5 v=0
238186 On ch=1 n=g5 v=0
238244 On ch=1 n=a#3 v=85
238270 On ch=1 n=d#3 v=0
238348 On ch=1 n=a#3 v=0
238390 On ch=1 n=f#4 v=83
238478 On ch=1 n=f#4 v=0
238490 On ch=1 n=g4 v=75
238582 On ch=1 n=g4 v=0
238610 On ch=1 n=f5 v=73
238610 On ch=1 n=c#5 v=89
238712 On ch=1 n=a4 v=76
238738 On ch=1 n=c#5 v=0
238818 On ch=1 n=a#4 v=83
238832 On ch=1 n=a4 v=0
238886 On ch=1 n=a#4 v=0
238966 On ch=1 n=a#4 v=72
238968 On ch=1 n=f5 v=0
239034 Par ch=1 c=64 v=63
239060 Par ch=1 c=64 v=127
239100 On ch=1 n=d#5 v=86
239196 On ch=1 n=f#5 v=84
239252 On ch=1 n=a#4 v=0
239256 On ch=1 n=d#5 v=0
239256 On ch=1 n=g5 v=59
239272 On ch=1 n=f#5 v=0
239308 On ch=1 n=g5 v=0
239324 On ch=1 n=a5 v=72
239390 On ch=1 n=a#5 v=82
239420 On ch=1 n=a5 v=0
239438 On ch=1 n=c#6 v=87
239464 On ch=1 n=a#5 v=0
239494 On ch=1 n=f6 v=71
239518 On ch=1 n=c#6 v=0
239584 On ch=1 n=f6 v=0
239682 On ch=1 n=b5 v=22
239718 On ch=1 n=d#6 v=62
239720 On ch=1 n=b5 v=0
239826 On ch=1 n=f#6 v=74
239884 On ch=1 n=d#6 v=0
239888 On ch=1 n=g6 v=68
239946 On ch=1 n=a6 v=52
239956 On ch=1 n=f#6 v=0
239968 On ch=1 n=g6 v=0
240014 On ch=1 n=a#6 v=75
240048 On ch=1 n=a6 v=0
240084 On ch=1 n=c#7 v=78
240100 On ch=1 n=a#6 v=0
240164 On ch=1 n=f7 v=69
240184 On ch=1 n=c#7 v=0
240240 On ch=1 n=f7 v=0
240340 Par ch=1 c=64 v=63
240388 Par ch=1 c=64 v=0
240688 On ch=1 n=a#5 v=81
240716 Par ch=1 c=64 v=63
240732 Par ch=1 c=64 v=127
240866 On ch=1 n=a#5 v=0
240872 On ch=1 n=d6 v=66
240942 On ch=1 n=d#6 v=85
240996 On ch=1 n=d6 v=0
241010 On ch=1 n=f#6 v=79
241044 On ch=1 n=d#6 v=0
241058 On ch=1 n=g6 v=68
241074 On ch=1 n=f#6 v=0
241084 On ch=1 n=a6 v=71
241094 On ch=1 n=g6 v=0
241134 On ch=1 n=a#6 v=73
241164 On ch=1 n=c#7 v=80
241166 On ch=1 n=a6 v=0
241212 On ch=1 n=a#6 v=0
241226 On ch=1 n=f7 v=65
241258 On ch=1 n=c#7 v=0
241314 On ch=1 n=a#7 v=96
241330 On ch=1 n=f7 v=0
241446 On ch=1 n=c#8 v=85
241448 On ch=1 n=f8 v=77
241512 On ch=1 n=a#7 v=0
241530 On ch=1 n=f8 v=0
241542 On ch=1 n=c#8 v=0
242124 Par ch=1 c=64 v=63
242148 Par ch=1 c=64 v=0
242494 Par ch=1 c=67 v=127
242560 On ch=1 n=c#7 v=60
242560 On ch=1 n=d#8 v=79
242566 On ch=1 n=d#7 v=61
242570 On ch=1 n=d#6 v=50
242584 On ch=1 n=c#8 v=46
242598 On ch=1 n=c#6 v=49
242648 Par ch=1 c=64 v=63
242660 Par ch=1 c=64 v=127
242698 On ch=1 n=c#8 v=0
242702 On ch=1 n=d#8 v=0
242752 On ch=1 n=d#7 v=0
242760 On ch=1 n=c#7 v=0
242810 On ch=1 n=d#6 v=0
242842 On ch=1 n=c#6 v=0
242890 On ch=1 n=g7 v=47
242894 On ch=1 n=f6 v=36
242896 On ch=1 n=f7 v=42
242924 On ch=1 n=g6 v=19
243100 On ch=1 n=f7 v=0
243122 On ch=1 n=g6 v=0
243122 On ch=1 n=f6 v=0
243132 On ch=1 n=g7 v=0
243508 Par ch=1 c=64 v=63
243530 Par ch=1 c=64 v=0
243876 Par ch=1 c=64 v=63
243890 On ch=1 n=d#7 v=64
243892 Par ch=1 c=64 v=127
243900 On ch=1 n=c#7 v=50
243904 On ch=1 n=d#6 v=61
243910 On ch=1 n=c#6 v=55
243992 On ch=1 n=c#6 v=0
243996 On ch=1 n=d#6 v=0
244080 On ch=1 n=c#7 v=0
244092 On ch=1 n=d#7 v=0
244526 Par ch=1 c=64 v=63
244576 Par ch=1 c=64 v=0
244992 Par ch=1 c=64 v=63
245014 Par ch=1 c=64 v=127
245048 On ch=1 n=a6 v=38
245050 On ch=1 n=g6 v=36
245448 On ch=1 n=g6 v=0
245462 On ch=1 n=a6 v=0
245964 Par ch=1 c=64 v=63
246144 Par ch=1 c=64 v=0
246326 Par ch=1 c=67 v=0
246686 Par ch=1 c=67 v=127
247358 Par ch=1 c=64 v=63
247368 On ch=1 n=a6 v=48
247370 On ch=1 n=f#6 v=34
247374 Par ch=1 c=64 v=127
247654 On ch=1 n=d#7 v=53
247660 On ch=1 n=a6 v=0
247668 On ch=1 n=f#6 v=0
247702 On ch=1 n=a#6 v=23
247752 On ch=1 n=c6 v=44
247772 On ch=1 n=d#7 v=0
247800 On ch=1 n=a#6 v=0
247874 On ch=1 n=f6 v=63
247974 On ch=1 n=g#5 v=51
248008 On ch=1 n=f#6 v=67
248014 On ch=1 n=a#6 v=64
248030 On ch=1 n=f6 v=0
248114 On ch=1 n=f#6 v=0
248120 On ch=1 n=c6 v=0
248124 On ch=1 n=a#6 v=0
248150 On ch=1 n=e6 v=80
248172 On ch=1 n=g#5 v=0
248286 On ch=1 n=a#5 v=72
248310 On ch=1 n=e6 v=0
248366 On ch=1 n=g6 v=76
248398 On ch=1 n=f#5 v=74
248432 On ch=1 n=a#5 v=0
248470 On ch=1 n=f#5 v=0
248478 On ch=1 n=g#6 v=90
248492 On ch=1 n=g6 v=0
248494 On ch=1 n=c7 v=84
248560 On ch=1 n=g#6 v=0
248566 On ch=1 n=c7 v=0
248592 On ch=1 n=g#6 v=80
248612 On ch=1 n=a6 v=79
248696 On ch=1 n=d#7 v=97
248704 On ch=1 n=a#6 v=90
248710 On ch=1 n=a6 v=0
248710 On ch=1 n=g#6 v=0
248748 On ch=1 n=d6 v=54
248788 On ch=1 n=a#6 v=0
248802 On ch=1 n=d#7 v=0
248802 On ch=1 n=b6 v=84
248852 On ch=1 n=a#5 v=65
248880 On ch=1 n=d6 v=0
248890 On ch=1 n=b6 v=0
248896 On ch=1 n=c7 v=89
248896 On ch=1 n=f7 v=98
248994 Par ch=1 c=64 v=63
248996 On ch=1 n=c7 v=0
249022 On ch=1 n=a6 v=84
249028 On ch=1 n=f#6 v=70
249032 On ch=1 n=a#5 v=0
249046 Par ch=1 c=64 v=127
249052 On ch=1 n=f7 v=0
249158 On ch=1 n=a6 v=0
249162 On ch=1 n=f#6 v=0
249180 On ch=1 n=a#6 v=82
249182 On ch=1 n=d#7 v=90
249190 On ch=1 n=c6 v=55
249260 On ch=1 n=a#6 v=0
249264 On ch=1 n=d#7 v=0
249324 On ch=1 n=f6 v=73
249340 On ch=1 n=g#5 v=67
249376 On ch=1 n=c6 v=0
249420 On ch=1 n=f#6 v=90
249422 On ch=1 n=f6 v=0
249424 On ch=1 n=a#6 v=87
249462 On ch=1 n=f#6 v=0
249490 On ch=1 n=a#6 v=0
249514 On ch=1 n=g#5 v=0
249520 On ch=1 n=e6 v=87
249626 On ch=1 n=a#5 v=85
249656 On ch=1 n=e6 v=0
249698 On ch=1 n=g6 v=92
249732 On ch=1 n=f#5 v=85
249760 On ch=1 n=a#5 v=0
249794 On ch=1 n=g#6 v=103
249806 On ch=1 n=c7 v=89
249816 On ch=1 n=f#5 v=0
249822 On ch=1 n=g6 v=0
249876 On ch=1 n=g#6 v=0
249884 On ch=1 n=c7 v=0
249908 On ch=1 n=a6 v=96
249910 On ch=1 n=g#6 v=104
250004 On ch=1 n=d#7 v=106
250008 On ch=1 n=a#6 v=104
250016 On ch=1 n=a6 v=0
250018 On ch=1 n=g#6 v=0
250042 On ch=1 n=d6 v=78
250106 On ch=1 n=b6 v=97
250124 On ch=1 n=d#7 v=0
250148 On ch=1 n=a#6 v=0
250200 On ch=1 n=a#5 v=75
250214 On ch=1 n=d6 v=0
250226 On ch=1 n=b6 v=0
250230 On ch=1 n=f7 v=99
250234 On ch=1 n=c7 v=93
250266 On ch=1 n=a#5 v=0
250306 On ch=1 n=c7 v=0
250324 On ch=1 n=f7 v=0
250432 On ch=1 n=c#5 v=81
250436 Par ch=1 c=64 v=63
250450 On ch=1 n=d#7 v=106
250500 Par ch=1 c=64 v=127
250574 On ch=1 n=g#6 v=88
250604 On ch=1 n=g#5 v=80
250614 On ch=1 n=d#7 v=0
250620 On ch=1 n=c#5 v=0
250684 On ch=1 n=d#6 v=89
250704 On ch=1 n=g#6 v=0
250708 On ch=1 n=g#5 v=0
250752 On ch=1 n=d#6 v=0
250772 On ch=1 n=e6 v=79
250792 On ch=1 n=c#7 v=100
250866 On ch=1 n=e6 v=0
250890 On ch=1 n=g#6 v=89
250914 On ch=1 n=c#7 v=0
250964 On ch=1 n=g#6 v=0
250964 On ch=1 n=c#6 v=96
251024 On ch=1 n=c#6 v=0
251066 On ch=1 n=g#6 v=99
251132 On ch=1 n=f6 v=46
251202 On ch=1 n=g#6 v=0
251218 On ch=1 n=g#5 v=105
251270 Par ch=1 c=64 v=63
251274 On ch=1 n=f6 v=0
251278 Par ch=1 c=64 v=0
251284 On ch=1 n=g#5 v=0
251320 On ch=1 n=a#4 v=94
251330 Par ch=1 c=64 v=63
251342 Par ch=1 c=64 v=127
251344 On ch=1 n=c7 v=111
251446 On ch=1 n=f6 v=107
251470 On ch=1 n=f5 v=79
251480 On ch=1 n=a#4 v=0
251482 On ch=1 n=c7 v=0
251528 On ch=1 n=c6 v=91
251538 On ch=1 n=f5 v=0
251568 On ch=1 n=f6 v=0
251596 On ch=1 n=c6 v=0
251598 On ch=1 n=c#6 v=98
251632 On ch=1 n=a#6 v=109
251650 On ch=1 n=c#6 v=0
251702 On ch=1 n=f6 v=90
251750 On ch=1 n=a#6 v=0
251764 On ch=1 n=a#5 v=103
251780 On ch=1 n=f6 v=0
251816 On ch=1 n=a#5 v=0
251876 On ch=1 n=f6 v=72
251946 On ch=1 n=a#5 v=112
251970 On ch=1 n=f6 v=0
252024 On ch=1 n=a#5 v=0
252024 On ch=1 n=f5 v=67
252086 On ch=1 n=f5 v=0
252100 On ch=1 n=f4 v=74
252118 On ch=1 n=c6 v=103
252170 Par ch=1 c=64 v=63
252216 Par ch=1 c=64 v=127
252220 On ch=1 n=f5 v=86
252246 On ch=1 n=c6 v=0
252266 On ch=1 n=c#5 v=84
252298 On ch=1 n=c5 v=71
252326 On ch=1 n=c#5 v=0
252368 On ch=1 n=c5 v=0
252382 On ch=1 n=f5 v=0
252388 On ch=1 n=f4 v=0
252402 On ch=1 n=a#5 v=101
252414 On ch=1 n=a#3 v=72
252502 On ch=1 n=f5 v=73
252508 On ch=1 n=a#5 v=0
252510 On ch=1 n=a#3 v=0
252554 On ch=1 n=a#4 v=80
252568 On ch=1 n=f5 v=0
252620 On ch=1 n=a#4 v=0
252678 On ch=1 n=f5 v=80
252784 On ch=1 n=a#4 v=87
252792 On ch=1 n=f5 v=0
252864 On ch=1 n=f4 v=72
252934 On ch=1 n=a#4 v=0
252978 On ch=1 n=f4 v=0
252994 On ch=1 n=a#3 v=79
253082 Par ch=1 c=64 v=63
253092 Par ch=1 c=64 v=0
253134 On ch=1 n=f5 v=99
253162 Par ch=1 c=64 v=63
253180 Par ch=1 c=64 v=127
253268 On ch=1 n=d#4 v=67
253284 On ch=1 n=a#3 v=0
253384 On ch=1 n=f#4 v=74
253404 On ch=1 n=d#4 v=0
253406 On ch=1 n=f5 v=0
253464 On ch=1 n=c#5 v=81
253488 On ch=1 n=f#4 v=0
253506 On ch=1 n=c#5 v=0
253538 On ch=1 n=g4 v=70
253608 On ch=1 n=a4 v=88
253636 On ch=1 n=g4 v=0
253686 On ch=1 n=a4 v=0
253694 On ch=1 n=d#5 v=105
253788 On ch=1 n=a#4 v=95
253834 On ch=1 n=d#5 v=0
253848 On ch=1 n=g4 v=74
253882 On ch=1 n=a#4 v=0
253918 Par ch=1 c=64 v=63
253926 Par ch=1 c=64 v=0
253928 On ch=1 n=g4 v=0
253954 On ch=1 n=g5 v=88
253958 On ch=1 n=d#4 v=86
253994 Par ch=1 c=64 v=63
254008 Par ch=1 c=64 v=127
254028 On ch=1 n=f4 v=76
254094 On ch=1 n=g#4 v=78
254104 On ch=1 n=d#4 v=0
254120 On ch=1 n=g5 v=0
254122 On ch=1 n=f4 v=0
254142 On ch=1 n=a4 v=70
254152 On ch=1 n=g#4 v=0
254204 On ch=1 n=c5 v=89
254228 On ch=1 n=a4 v=0
254264 On ch=1 n=f5 v=107
254284 On ch=1 n=c5 v=0
254310 On ch=1 n=d#5 v=97
254368 On ch=1 n=f5 v=0
254390 On ch=1 n=g#5 v=89
254408 On ch=1 n=d#5 v=0
254416 On ch=1 n=c5 v=83
254468 On ch=1 n=g#5 v=0
254476 On ch=1 n=f5 v=89
254502 On ch=1 n=c5 v=0
254528 On ch=1 n=a5 v=91
254556 On ch=1 n=f5 v=0
254586 On ch=1 n=c6 v=99
254604 On ch=1 n=a5 v=0
254652 On ch=1 n=c6 v=0
254890 On ch=1 n=a#3 v=79
254938 Par ch=1 c=64 v=63
254954 Par ch=1 c=64 v=0
255006 On ch=1 n=f5 v=111
255090 Par ch=1 c=64 v=63
255102 Par ch=1 c=64 v=127
255140 On ch=1 n=d#4 v=72
255164 On ch=1 n=a#3 v=0
255230 On ch=1 n=f#4 v=74
255252 On ch=1 n=d#4 v=0
255286 On ch=1 n=f5 v=0
255302 On ch=1 n=c#5 v=100
255304 On ch=1 n=f#4 v=0
255354 On ch=1 n=c#5 v=0
255374 On ch=1 n=g4 v=81
255444 On ch=1 n=a4 v=88
255476 On ch=1 n=g4 v=0
255518 On ch=1 n=a4 v=0
255534 On ch=1 n=d#5 v=110
255620 On ch=1 n=a#4 v=99
255680 On ch=1 n=g4 v=80
255728 Par ch=1 c=64 v=63
255740 On ch=1 n=d#5 v=0
255742 On ch=1 n=a#4 v=0
255742 Par ch=1 c=64 v=0
255758 On ch=1 n=g4 v=0
255788 On ch=1 n=d#4 v=88
255798 On ch=1 n=g5 v=113
255838 Par ch=1 c=64 v=63
255850 Par ch=1 c=64 v=127
255862 On ch=1 n=f4 v=65
255942 On ch=1 n=d#4 v=0
255948 On ch=1 n=g#4 v=73
255966 On ch=1 n=f4 v=0
255972 On ch=1 n=g5 v=0
255996 On ch=1 n=g#4 v=0
256004 On ch=1 n=a4 v=91
256080 On ch=1 n=a4 v=0
256096 On ch=1 n=c5 v=68
256110 On ch=1 n=f5 v=108
256148 On ch=1 n=c5 v=0
256212 On ch=1 n=d#5 v=76
256242 On ch=1 n=f5 v=0
256282 On ch=1 n=g#5 v=70
256326 On ch=1 n=d#5 v=0
256340 On ch=1 n=c5 v=41
256370 On ch=1 n=g#5 v=0
256370 On ch=1 n=f5 v=82
256394 On ch=1 n=c5 v=0
256438 On ch=1 n=a5 v=86
256468 On ch=1 n=f5 v=0
256522 On ch=1 n=c6 v=93
256538 On ch=1 n=a5 v=0
256596 On ch=1 n=c6 v=0
256948 On ch=1 n=d#4 v=70
257020 Par ch=1 c=64 v=63
257036 Par ch=1 c=64 v=0
257070 On ch=1 n=f5 v=112
257152 Par ch=1 c=64 v=63
257164 Par ch=1 c=64 v=127
257252 On ch=1 n=f4 v=60
257342 On ch=1 n=f#4 v=72
257378 On ch=1 n=d#4 v=0
257440 On ch=1 n=c#5 v=74
257482 On ch=1 n=f4 v=0
257494 On ch=1 n=f#4 v=0
257530 On ch=1 n=c#5 v=0
257606 On ch=1 n=f5 v=0
257608 On ch=1 n=a4 v=52
257692 On ch=1 n=a#4 v=85
257694 On ch=1 n=a4 v=0
257772 On ch=1 n=a#4 v=0
257802 On ch=1 n=d#5 v=113
257892 On ch=1 n=a#4 v=83
257970 On ch=1 n=d#5 v=0
257970 On ch=1 n=g4 v=71
258006 On ch=1 n=a#4 v=0
258050 On ch=1 n=g4 v=0
258090 On ch=1 n=c#4 v=78
258094 On ch=1 n=c5 v=122
258126 Par ch=1 c=64 v=63
258136 Par ch=1 c=64 v=0
258200 Par ch=1 c=64 v=63
258222 Par ch=1 c=64 v=127
258228 On ch=1 n=d#4 v=77
258294 On ch=1 n=c#4 v=0
258310 On ch=1 n=f#4 v=80
258392 On ch=1 n=c#5 v=112
258434 On ch=1 n=d#4 v=0
258460 On ch=1 n=f#4 v=0
258464 On ch=1 n=c#5 v=0
258494 On ch=1 n=e4 v=87
258508 On ch=1 n=c5 v=0
258552 On ch=1 n=g4 v=82
258578 On ch=1 n=e4 v=0
258624 On ch=1 n=g4 v=0
258656 On ch=1 n=a#4 v=114
258724 On ch=1 n=g4 v=79
258820 On ch=1 n=e4 v=73
258856 On ch=1 n=g4 v=0
258910 On ch=1 n=e4 v=0
258912 On ch=1 n=a#3 v=89
258932 On ch=1 n=a#4 v=0
259012 Par ch=1 c=64 v=63
259020 Par ch=1 c=64 v=0
259022 On ch=1 n=c5 v=122
259122 Par ch=1 c=64 v=63
259136 Par ch=1 c=64 v=127
259214 On ch=1 n=c#4 v=72
259328 On ch=1 n=g#4 v=84
259364 On ch=1 n=c5 v=0
259388 On ch=1 n=g#4 v=0
259388 On ch=1 n=c#4 v=0
259402 On ch=1 n=a#3 v=0
259462 On ch=1 n=a#4 v=103
259558 On ch=1 n=g#4 v=85
259590 On ch=1 n=a#4 v=0
259632 On ch=1 n=g#4 v=0
259640 On ch=1 n=d4 v=77
259714 On ch=1 n=d4 v=0
259784 On ch=1 n=g4 v=104
259798 On ch=1 n=g#3 v=70
259820 Par ch=1 c=64 v=63
259838 Par ch=1 c=64 v=0
259886 Par ch=1 c=64 v=63
259918 Par ch=1 c=64 v=127
259922 On ch=1 n=a#3 v=67
260002 On ch=1 n=c#4 v=71
260040 On ch=1 n=g#3 v=0
260042 On ch=1 n=g4 v=0
260046 On ch=1 n=a#3 v=0
260084 On ch=1 n=f4 v=102
260090 On ch=1 n=c#4 v=0
260160 On ch=1 n=d4 v=57
260206 On ch=1 n=f4 v=0
260224 On ch=1 n=b3 v=75
260254 On ch=1 n=d4 v=0
260294 On ch=1 n=b3 v=0
260320 On ch=1 n=f3 v=73
260334 On ch=1 n=g4 v=93
260338 Par ch=1 c=64 v=63
260358 Par ch=1 c=64 v=0
260388 On ch=1 n=g#3 v=76
260396 Par ch=1 c=64 v=63
260426 Par ch=1 c=64 v=127
260468 On ch=1 n=b3 v=74
260504 On ch=1 n=f3 v=0
260522 On ch=1 n=g4 v=0
260540 On ch=1 n=g#3 v=0
260556 On ch=1 n=b3 v=0
260600 On ch=1 n=f4 v=94
260676 On ch=1 n=d#4 v=88
260692 On ch=1 n=f4 v=0
260734 On ch=1 n=d#4 v=0
260744 On ch=1 n=a3 v=83
260818 On ch=1 n=a3 v=0
260856 Par ch=1 c=64 v=63
260858 On ch=1 n=d#3 v=72
260862 On ch=1 n=d4 v=106
260872 Par ch=1 c=64 v=0
260912 Par ch=1 c=64 v=63
260948 Par ch=1 c=64 v=127
261010 On ch=1 n=f3 v=57
261014 On ch=1 n=d#3 v=0
261058 On ch=1 n=d#3 v=48
261092 On ch=1 n=g#3 v=71
261154 On ch=1 n=f3 v=0
261158 On ch=1 n=d#3 v=0
261168 On ch=1 n=d4 v=0
261176 On ch=1 n=c4 v=88
261184 On ch=1 n=g#3 v=0
261252 On ch=1 n=a3 v=65
261272 On ch=1 n=c4 v=0
261350 On ch=1 n=f#3 v=74
261358 On ch=1 n=a3 v=0
261440 On ch=1 n=f#3 v=0
261530 On ch=1 n=c3 v=76
261604 Par ch=1 c=64 v=63
261616 Par ch=1 c=64 v=0
261626 On ch=1 n=d4 v=85
261698 Par ch=1 c=64 v=63
261714 Par ch=1 c=64 v=127
261854 On ch=1 n=c3 v=0
261860 On ch=1 n=f#3 v=70
261984 On ch=1 n=f#3 v=0
262020 On ch=1 n=d#4 v=89
262024 On ch=1 n=d4 v=0
262100 On ch=1 n=d#4 v=0
262120 On ch=1 n=e3 v=66
262216 On ch=1 n=e3 v=0
262226 On ch=1 n=g3 v=88
262306 On ch=1 n=c4 v=87
262344 On ch=1 n=g3 v=0
262406 On ch=1 n=c4 v=0
262514 On ch=1 n=d#4 v=32
262562 On ch=1 n=f#4 v=72
262618 On ch=1 n=d#4 v=0
262642 On ch=1 n=f#4 v=0
262674 On ch=1 n=e4 v=69
262752 On ch=1 n=g4 v=102
262788 On ch=1 n=e4 v=0
262862 On ch=1 n=g4 v=0
262936 On ch=1 n=a#4 v=57
263058 On ch=1 n=d#5 v=30
263102 On ch=1 n=a#4 v=0
263142 On ch=1 n=g4 v=40
263202 On ch=1 n=d#5 v=0
263222 On ch=1 n=g4 v=0
263222 On ch=1 n=e5 v=68
263304 On ch=1 n=g5 v=75
263348 On ch=1 n=e5 v=0
263440 On ch=1 n=g5 v=0
263742 Par ch=1 c=64 v=63
263800 Par ch=1 c=64 v=0
264082 On ch=1 n=f#5 v=80
264112 Par ch=1 c=64 v=63
264128 Par ch=1 c=64 v=127
264226 On ch=1 n=a#5 v=72
264308 On ch=1 n=f#5 v=0
264328 On ch=1 n=b5 v=64
264378 On ch=1 n=d#6 v=88
264398 On ch=1 n=a#5 v=0
264408 On ch=1 n=b5 v=0
264412 On ch=1 n=g5 v=76
264440 On ch=1 n=d#6 v=0
264462 On ch=1 n=c6 v=73
264494 On ch=1 n=g5 v=0
264536 On ch=1 n=e6 v=53
264548 On ch=1 n=g6 v=80
264562 On ch=1 n=c6 v=0
264588 On ch=1 n=e6 v=0
264604 On ch=1 n=f#6 v=61
264612 On ch=1 n=g6 v=0
264634 On ch=1 n=a#6 v=77
264674 On ch=1 n=f#6 v=0
264728 On ch=1 n=b6 v=65
264774 On ch=1 n=d#7 v=96
264778 On ch=1 n=g6 v=73
264784 On ch=1 n=a#6 v=0
264794 On ch=1 n=b6 v=0
264824 On ch=1 n=d#7 v=0
264830 On ch=1 n=c7 v=79
264862 On ch=1 n=g6 v=0
264896 On ch=1 n=e7 v=72
264916 On ch=1 n=g7 v=94
264928 On ch=1 n=c7 v=0
265000 On ch=1 n=e7 v=0
265006 On ch=1 n=g7 v=0
265030 On ch=1 n=e8 v=102
265032 On ch=1 n=c8 v=87
265094 On ch=1 n=e8 v=0
265106 On ch=1 n=c8 v=0
265662 Par ch=1 c=64 v=63
265700 Par ch=1 c=64 v=0
265992 Par ch=1 c=64 v=63
266062 Par ch=1 c=64 v=127
266252 On ch=1 n=f#6 v=51
266252 On ch=1 n=f#7 v=86
266314 On ch=1 n=c7 v=30
266352 On ch=1 n=f#7 v=0
266358 Par ch=1 c=64 v=63
266388 Par ch=1 c=64 v=0
266392 On ch=1 n=f#6 v=0
266406 On ch=1 n=c6 v=51
266408 On ch=1 n=g7 v=73
266432 On ch=1 n=g6 v=5
266544 Par ch=1 c=64 v=63
266562 Par ch=1 c=64 v=127
266718 On ch=1 n=c6 v=0
267076 On ch=1 n=g6 v=0
267176 On ch=1 n=c7 v=0
267194 On ch=1 n=g7 v=0
267826 Par ch=1 c=67 v=0
268154 Par ch=1 c=64 v=63
268222 On ch=1 n=e5 v=51
268228 Par ch=1 c=64 v=127
268326 On ch=1 n=g5 v=47
268454 On ch=1 n=c#6 v=52
268476 On ch=1 n=c7 v=107
268574 On ch=1 n=c#6 v=0
268620 On ch=1 n=g6 v=72
268628 On ch=1 n=c7 v=0
268652 On ch=1 n=g5 v=0
268742 On ch=1 n=e5 v=0
268752 On ch=1 n=g6 v=0
268752 On ch=1 n=c6 v=71
268836 On ch=1 n=c6 v=0
268884 On ch=1 n=g6 v=74
268956 On ch=1 n=c6 v=93
268994 On ch=1 n=g6 v=0
269056 On ch=1 n=g5 v=89
269078 On ch=1 n=c6 v=0
269084 On ch=1 n=e5 v=66
269130 On ch=1 n=g5 v=0
269160 Par ch=1 c=64 v=63
269168 Par ch=1 c=64 v=0
269202 Par ch=1 c=64 v=63
269224 On ch=1 n=g#5 v=82
269224 Par ch=1 c=64 v=127
269234 On ch=1 n=b6 v=103
269246 On ch=1 n=d6 v=80
269380 On ch=1 n=g#5 v=0
269380 On ch=1 n=f#6 v=96
269394 On ch=1 n=b6 v=0
269402 On ch=1 n=d6 v=0
269456 On ch=1 n=f#6 v=0
269470 On ch=1 n=b5 v=55
269530 On ch=1 n=b5 v=0
269560 On ch=1 n=f#6 v=96
269650 On ch=1 n=b5 v=71
269718 On ch=1 n=f#6 v=0
269744 On ch=1 n=f#5 v=99
269794 On ch=1 n=b5 v=0
269806 On ch=1 n=d6 v=91
269822 On ch=1 n=f#5 v=0
269906 On ch=1 n=f#5 v=94
269930 On ch=1 n=d6 v=0
269990 On ch=1 n=b5 v=75
270008 On ch=1 n=f#5 v=0
270040 On ch=1 n=f#6 v=99
270066 On ch=1 n=b5 v=0
270124 On ch=1 n=f#6 v=0
270132 On ch=1 n=b5 v=92
270208 On ch=1 n=b5 v=0
270220 On ch=1 n=e5 v=0
270228 On ch=1 n=f#6 v=103
270268 Par ch=1 c=64 v=63
270274 Par ch=1 c=64 v=0
270298 On ch=1 n=f5 v=65
270304 On ch=1 n=g#5 v=90
270308 On ch=1 n=f#6 v=0
270310 On ch=1 n=a#6 v=108
270312 On ch=1 n=d6 v=88
270326 Par ch=1 c=64 v=63
270340 Par ch=1 c=64 v=127
270428 On ch=1 n=f6 v=87
270452 On ch=1 n=a#6 v=0
270458 On ch=1 n=d6 v=0
270506 On ch=1 n=a#5 v=93
270522 On ch=1 n=f6 v=0
270522 On ch=1 n=g#5 v=0
270558 On ch=1 n=f5 v=0
270566 On ch=1 n=a#5 v=0
270620 On ch=1 n=f6 v=82
270722 On ch=1 n=a#5 v=101
270726 On ch=1 n=f6 v=0
270808 On ch=1 n=f5 v=63
270820 On ch=1 n=a#5 v=0
270886 On ch=1 n=f5 v=0
270932 On ch=1 n=f#5 v=103
270938 On ch=1 n=a#4 v=81
270954 On ch=1 n=g#4 v=81
270980 Par ch=1 c=64 v=63
271024 Par ch=1 c=64 v=127
271042 On ch=1 n=f5 v=86
271112 On ch=1 n=f5 v=0
271136 On ch=1 n=f6 v=106
271170 On ch=1 n=a#5 v=71
271204 On ch=1 n=f6 v=0
271220 On ch=1 n=f5 v=81
271234 On ch=1 n=f#5 v=0
271238 On ch=1 n=a#5 v=0
271248 On ch=1 n=a#4 v=0
271272 On ch=1 n=f5 v=0
271286 On ch=1 n=f#5 v=72
271298 On ch=1 n=b4 v=87
271352 On ch=1 n=e5 v=96
271358 On ch=1 n=f#5 v=0
271366 On ch=1 n=g#4 v=0
271386 On ch=1 n=b4 v=0
271420 On ch=1 n=e5 v=0
271444 On ch=1 n=a5 v=97
271448 On ch=1 n=e6 v=101
271502 On ch=1 n=e6 v=0
271510 On ch=1 n=e5 v=96
271534 On ch=1 n=a5 v=0
271564 On ch=1 n=e5 v=0
271586 On ch=1 n=c5 v=109
271642 On ch=1 n=c5 v=0
271666 On ch=1 n=d#5 v=109
271750 On ch=1 n=d#5 v=0
271762 On ch=1 n=d#6 v=109
271768 On ch=1 n=g#5 v=90
271838 On ch=1 n=d#5 v=108
271846 On ch=1 n=d#6 v=0
271868 On ch=1 n=g#5 v=0
271894 On ch=1 n=d#5 v=0
272062 On ch=1 n=e5 v=63
272068 Par ch=1 c=64 v=63
272076 On ch=1 n=g5 v=88
272080 Par ch=1 c=64 v=0
272138 Par ch=1 c=64 v=63
272152 Par ch=1 c=64 v=127
272174 On ch=1 n=c#6 v=80
272180 On ch=1 n=c7 v=90
272266 On ch=1 n=c#6 v=0
272308 On ch=1 n=g6 v=83
272318 On ch=1 n=g5 v=0
272322 On ch=1 n=c7 v=0
272398 On ch=1 n=g6 v=0
272398 On ch=1 n=e5 v=0
272410 On ch=1 n=c6 v=76
272476 On ch=1 n=c6 v=0
272522 On ch=1 n=g6 v=88
272604 On ch=1 n=c6 v=101
272636 On ch=1 n=g6 v=0
272688 On ch=1 n=g5 v=92
272730 On ch=1 n=c6 v=0
272732 On ch=1 n=e5 v=80
272760 On ch=1 n=g5 v=0
272814 Par ch=1 c=64 v=63
272820 Par ch=1 c=64 v=0
272862 Par ch=1 c=64 v=63
272864 On ch=1 n=g#5 v=92
272880 Par ch=1 c=64 v=127
272890 On ch=1 n=b6 v=103
272894 On ch=1 n=d6 v=89
273034 On ch=1 n=f#6 v=92
273044 On ch=1 n=g#5 v=0
273058 On ch=1 n=b6 v=0
273064 On ch=1 n=d6 v=0
273126 On ch=1 n=f#6 v=0
273126 On ch=1 n=b5 v=68
273190 On ch=1 n=b5 v=0
273224 On ch=1 n=f#6 v=96
273300 On ch=1 n=b5 v=76
273364 On ch=1 n=f#6 v=0
273386 On ch=1 n=f#5 v=96
273430 On ch=1 n=b5 v=0
273442 On ch=1 n=d6 v=96
273452 On ch=1 n=f#5 v=0
273528 On ch=1 n=f#5 v=89
273550 On ch=1 n=d6 v=0
273618 On ch=1 n=b5 v=67
273622 On ch=1 n=f#5 v=0
273654 On ch=1 n=f#6 v=96
273680 On ch=1 n=b5 v=0
273734 On ch=1 n=f#6 v=0
273748 On ch=1 n=b5 v=90
273816 On ch=1 n=b5 v=0
273820 On ch=1 n=e5 v=0
273844 On ch=1 n=f#6 v=99
273904 On ch=1 n=f#6 v=0
273922 Par ch=1 c=64 v=63
273930 Par ch=1 c=64 v=0
273944 On ch=1 n=f5 v=46
273948 On ch=1 n=g#5 v=97
273954 On ch=1 n=a#6 v=114
273960 On ch=1 n=d6 v=94
273966 Par ch=1 c=64 v=63
273984 Par ch=1 c=64 v=127
274056 On ch=1 n=d6 v=0
274080 On ch=1 n=f6 v=78
274090 On ch=1 n=a#6 v=0
274098 On ch=1 n=g#5 v=0
274136 On ch=1 n=f5 v=0
274136 On ch=1 n=a#5 v=99
274148 On ch=1 n=f6 v=0
274188 On ch=1 n=a#5 v=0
274238 On ch=1 n=f6 v=87
274320 On ch=1 n=a#5 v=105
274330 On ch=1 n=f6 v=0
274388 On ch=1 n=f5 v=69
274394 On ch=1 n=a#5 v=0
274448 On ch=1 n=f5 v=0
274494 On ch=1 n=f#5 v=101
274502 On ch=1 n=a#4 v=80
274516 On ch=1 n=g#4 v=68
274520 Par ch=1 c=64 v=63
274530 Par ch=1 c=64 v=0
274568 Par ch=1 c=64 v=63
274592 Par ch=1 c=64 v=127
274602 On ch=1 n=f5 v=84
274676 On ch=1 n=f5 v=0
274710 On ch=1 n=f6 v=91
274724 On ch=1 n=a#5 v=88
274780 On ch=1 n=f6 v=0
274804 On ch=1 n=f5 v=81
274810 On ch=1 n=a#5 v=0
274818 On ch=1 n=a#4 v=0
274846 On ch=1 n=f5 v=0
274874 On ch=1 n=b4 v=84
274926 On ch=1 n=f#5 v=0
274928 On ch=1 n=e5 v=82
274944 On ch=1 n=g#4 v=0
274952 On ch=1 n=b4 v=0
274954 On ch=1 n=f5 v=38
274988 On ch=1 n=f5 v=0
274992 On ch=1 n=e5 v=0
275018 On ch=1 n=a5 v=87
275020 On ch=1 n=e6 v=94
275070 On ch=1 n=e6 v=0
275080 On ch=1 n=e5 v=90
275106 On ch=1 n=a5 v=0
275134 On ch=1 n=e5 v=0
275156 On ch=1 n=c5 v=102
275206 On ch=1 n=c5 v=0
275224 On ch=1 n=d#5 v=112
275304 On ch=1 n=d#5 v=0
275320 On ch=1 n=d#6 v=114
275346 On ch=1 n=g#5 v=83
275412 On ch=1 n=d#5 v=99
275416 On ch=1 n=d#6 v=0
275430 On ch=1 n=g#5 v=0
275486 On ch=1 n=d#5 v=0
275614 Par ch=1 c=64 v=63
275624 Par ch=1 c=64 v=0
275632 On ch=1 n=c#5 v=85
275640 On ch=1 n=g#5 v=75
275702 On ch=1 n=d#6 v=87
275718 Par ch=1 c=64 v=63
275726 Par ch=1 c=64 v=127
275768 On ch=1 n=g#5 v=0
275804 On ch=1 n=d#6 v=0
275806 On ch=1 n=e5 v=70
275894 On ch=1 n=c#5 v=0
275950 On ch=1 n=g5 v=85
275974 On ch=1 n=e5 v=0
276028 On ch=1 n=g5 v=0
276060 On ch=1 n=g#4 v=64
276060 On ch=1 n=c6 v=100
276180 On ch=1 n=e5 v=83
276262 On ch=1 n=g5 v=76
276270 On ch=1 n=e5 v=0
276292 On ch=1 n=c6 v=0
276334 On ch=1 n=g5 v=0
276374 On ch=1 n=a#5 v=118
276470 On ch=1 n=e5 v=78
276526 On ch=1 n=a#5 v=0
276544 On ch=1 n=g5 v=80
276566 On ch=1 n=e5 v=0
276582 On ch=1 n=g#4 v=0
276594 On ch=1 n=c5 v=87
276630 On ch=1 n=g5 v=0
276636 On ch=1 n=f#5 v=80
276666 Par ch=1 c=64 v=63
276668 On ch=1 n=a#5 v=115
276678 Par ch=1 c=64 v=0
276700 Par ch=1 c=64 v=63
276726 Par ch=1 c=64 v=127
276760 On ch=1 n=g5 v=65
276774 On ch=1 n=a#5 v=0
276860 On ch=1 n=g#5 v=99
276866 On ch=1 n=g5 v=0
276940 On ch=1 n=g#4 v=71
276944 On ch=1 n=g#5 v=0
276970 On ch=1 n=c5 v=0
276980 On ch=1 n=a5 v=68
277026 On ch=1 n=f#5 v=0
277050 On ch=1 n=a#5 v=94
277072 On ch=1 n=a5 v=0
277076 On ch=1 n=g#4 v=0
277122 On ch=1 n=a#5 v=0
277138 On ch=1 n=e6 v=94
277188 On ch=1 n=c#5 v=69
277212 On ch=1 n=e6 v=0
277250 Par ch=1 c=64 v=63
277252 On ch=1 n=g#5 v=86
277258 Par ch=1 c=64 v=0
277262 On ch=1 n=d#6 v=112
277292 Par ch=1 c=64 v=63
277310 Par ch=1 c=64 v=127
277338 On ch=1 n=g#5 v=0
277370 On ch=1 n=d#6 v=0
277392 On ch=1 n=e5 v=72
277480 On ch=1 n=g5 v=83
277502 On ch=1 n=e5 v=0
277538 On ch=1 n=g5 v=0
277552 On ch=1 n=c6 v=111
277570 On ch=1 n=g#4 v=72
277596 On ch=1 n=c#5 v=0
277652 On ch=1 n=e5 v=74
277686 On ch=1 n=c6 v=0
277712 On ch=1 n=g5 v=82
277736 On ch=1 n=e5 v=0
277792 On ch=1 n=g5 v=0
277804 On ch=1 n=a#5 v=113
277888 On ch=1 n=e5 v=89
277930 On ch=1 n=a#5 v=0
277942 On ch=1 n=g5 v=71
277972 On ch=1 n=c5 v=66
277982 On ch=1 n=e5 v=0
277996 On ch=1 n=g#4 v=0
278012 Par ch=1 c=64 v=63
278020 Par ch=1 c=64 v=0
278036 On ch=1 n=a#5 v=100
278052 On ch=1 n=g5 v=0
278058 On ch=1 n=f#5 v=88
278064 Par ch=1 c=64 v=63
278082 Par ch=1 c=64 v=127
278120 On ch=1 n=a#5 v=0
278132 On ch=1 n=g5 v=61
278216 On ch=1 n=g#5 v=95
278218 On ch=1 n=g5 v=0
278294 On ch=1 n=g#5 v=0
278314 On ch=1 n=a5 v=74
278326 On ch=1 n=c5 v=0
278328 On ch=1 n=g#4 v=65
278398 On ch=1 n=a#5 v=91
278414 On ch=1 n=f#5 v=0
278418 On ch=1 n=a5 v=0
278450 On ch=1 n=g#4 v=0
278494 On ch=1 n=a#5 v=0
278500 On ch=1 n=e6 v=83
278580 On ch=1 n=c#5 v=80
278604 On ch=1 n=e6 v=0
278682 Par ch=1 c=64 v=63
278690 Par ch=1 c=64 v=0
278696 On ch=1 n=g#5 v=66
278714 On ch=1 n=d#6 v=104
278740 Par ch=1 c=64 v=63
278756 Par ch=1 c=64 v=127
278794 On ch=1 n=g#5 v=0
278828 On ch=1 n=d#6 v=0
278846 On ch=1 n=e5 v=70
278960 On ch=1 n=g5 v=84
278986 On ch=1 n=e5 v=0
279038 On ch=1 n=g5 v=0
279064 On ch=1 n=c6 v=94
279080 On ch=1 n=g#4 v=67
279126 On ch=1 n=c#5 v=0
279178 On ch=1 n=e5 v=85
279208 On ch=1 n=c6 v=0
279278 On ch=1 n=g5 v=84
279308 On ch=1 n=e5 v=0
279360 On ch=1 n=a#5 v=110
279378 On ch=1 n=g5 v=0
279438 On ch=1 n=g5 v=59
279486 On ch=1 n=a#5 v=0
279514 On ch=1 n=e5 v=77
279530 On ch=1 n=g5 v=0
279590 On ch=1 n=e5 v=0
279598 Par ch=1 c=64 v=63
279606 Par ch=1 c=64 v=0
279610 On ch=1 n=f#5 v=80
279610 On ch=1 n=b4 v=76
279614 On ch=1 n=a#5 v=113
279618 On ch=1 n=g#4 v=0
279646 Par ch=1 c=64 v=63
279668 Par ch=1 c=64 v=127
279714 On ch=1 n=f#5 v=0
279720 On ch=1 n=f5 v=84
279764 On ch=1 n=a#5 v=0
279784 On ch=1 n=d5 v=78
279824 On ch=1 n=f5 v=0
279872 On ch=1 n=f#4 v=73
279882 On ch=1 n=d5 v=0
279894 On ch=1 n=g#5 v=105
279918 On ch=1 n=b4 v=0
279998 On ch=1 n=f5 v=68
280020 On ch=1 n=g#5 v=0
280064 On ch=1 n=d5 v=63
280094 On ch=1 n=f5 v=0
280166 On ch=1 n=b4 v=65
280168 On ch=1 n=f#5 v=70
280172 On ch=1 n=f#4 v=0
280184 On ch=1 n=a#5 v=90
280194 Par ch=1 c=64 v=63
280210 On ch=1 n=d5 v=0
280264 Par ch=1 c=64 v=127
280282 On ch=1 n=f5 v=51
280362 On ch=1 n=a#5 v=0
280372 On ch=1 n=f#5 v=0
280388 On ch=1 n=d5 v=59
280414 On ch=1 n=f5 v=0
280448 On ch=1 n=f#4 v=58
280460 On ch=1 n=b4 v=0
280502 On ch=1 n=d5 v=0
280508 On ch=1 n=g#5 v=86
280604 On ch=1 n=f5 v=40
280658 On ch=1 n=g#5 v=0
280702 On ch=1 n=d5 v=51
280746 On ch=1 n=f5 v=0
280826 On ch=1 n=f#5 v=60
280830 On ch=1 n=b4 v=49
280842 On ch=1 n=f#4 v=0
280850 On ch=1 n=a#5 v=76
280892 On ch=1 n=d5 v=0
280962 On ch=1 n=f#5 v=0
280978 On ch=1 n=f5 v=47
281034 On ch=1 n=a#5 v=0
281068 On ch=1 n=b4 v=0
281106 On ch=1 n=d5 v=43
281140 On ch=1 n=f5 v=0
281238 On ch=1 n=f#4 v=53
281254 On ch=1 n=g#5 v=76
281266 On ch=1 n=d5 v=0
281336 On ch=1 n=f#4 v=0
281386 On ch=1 n=f5 v=47
281520 On ch=1 n=d5 v=61
281570 On ch=1 n=f5 v=0
281592 On ch=1 n=g#5 v=0
281608 On ch=1 n=d5 v=0
281734 On ch=1 n=b2 v=82
281856 Par ch=1 c=64 v=63
281876 Par ch=1 c=64 v=127
281938 On ch=1 n=a3 v=76
282036 On ch=1 n=a3 v=0
282058 On ch=1 n=d#4 v=93
282086 On ch=1 n=b2 v=0
282092 On ch=1 n=f#3 v=67
282158 On ch=1 n=g#4 v=105
282178 On ch=1 n=d#4 v=0
282218 On ch=1 n=f#3 v=0
282234 On ch=1 n=g#4 v=0
282238 On ch=1 n=d4 v=76
282286 On ch=1 n=a4 v=98
282364 On ch=1 n=a4 v=0
282374 On ch=1 n=d5 v=104
282390 On ch=1 n=f#4 v=110
282408 On ch=1 n=d4 v=0
282466 On ch=1 n=d5 v=0
282560 On ch=1 n=d#4 v=92
282632 On ch=1 n=g#5 v=109
282634 On ch=1 n=f#4 v=0
282634 On ch=1 n=c5 v=68
282652 Par ch=1 c=64 v=63
282682 Par ch=1 c=64 v=0
282716 Par ch=1 c=64 v=63
282742 Par ch=1 c=64 v=127
282788 On ch=1 n=d5 v=90
282810 On ch=1 n=g#5 v=0
282818 On ch=1 n=c5 v=0
282826 On ch=1 n=d#4 v=0
282884 On ch=1 n=a4 v=84
282942 On ch=1 n=d5 v=0
282966 On ch=1 n=b3 v=84
282980 On ch=1 n=a4 v=0
283000 On ch=1 n=f#5 v=112
283088 On ch=1 n=d5 v=82
283136 On ch=1 n=f#5 v=0
283174 On ch=1 n=a4 v=84
283176 On ch=1 n=d5 v=0
283244 On ch=1 n=a4 v=0
283268 On ch=1 n=d#5 v=113
283322 On ch=1 n=b3 v=0
283350 On ch=1 n=c5 v=70
283392 On ch=1 n=d#5 v=0
283410 On ch=1 n=a4 v=84
283444 On ch=1 n=c5 v=0
283468 Par ch=1 c=64 v=63
283476 Par ch=1 c=64 v=0
283488 On ch=1 n=a4 v=0
283498 On ch=1 n=e4 v=76
283514 On ch=1 n=b4 v=65
283546 Par ch=1 c=64 v=63
283552 On ch=1 n=d#5 v=104
283562 Par ch=1 c=64 v=127
283636 On ch=1 n=g4 v=71
283654 On ch=1 n=d#5 v=0
283682 On ch=1 n=b4 v=0
283714 On ch=1 n=a#4 v=94
283728 On ch=1 n=g4 v=0
283788 On ch=1 n=e4 v=0
283798 On ch=1 n=b3 v=54
283812 On ch=1 n=d#5 v=96
283828 On ch=1 n=a#4 v=0
283882 On ch=1 n=d#5 v=0
283908 On ch=1 n=e5 v=84
283972 On ch=1 n=e5 v=0
284006 On ch=1 n=b5 v=90
284064 On ch=1 n=d#4 v=74
284116 On ch=1 n=b5 v=0
284190 On ch=1 n=c5 v=57
284196 Par ch=1 c=64 v=63
284204 Par ch=1 c=64 v=0
284206 On ch=1 n=b3 v=0
284212 On ch=1 n=g#5 v=103
284264 Par ch=1 c=64 v=63
284280 Par ch=1 c=64 v=127
284358 On ch=1 n=g#5 v=0
284360 On ch=1 n=d5 v=66
284380 On ch=1 n=c5 v=0
284440 On ch=1 n=a4 v=68
284470 On ch=1 n=d#4 v=0
284494 On ch=1 n=d5 v=0
284520 On ch=1 n=b3 v=69
284526 On ch=1 n=a4 v=0
284546 On ch=1 n=f#5 v=112
284628 On ch=1 n=d5 v=79
284678 On ch=1 n=f#5 v=0
284708 On ch=1 n=a4 v=78
284718 On ch=1 n=d5 v=0
284750 On ch=1 n=b3 v=0
284784 On ch=1 n=a4 v=0
284800 On ch=1 n=d#5 v=119
284886 On ch=1 n=c5 v=78
284930 On ch=1 n=d#5 v=0
284954 On ch=1 n=a4 v=68
284988 On ch=1 n=c5 v=0
285022 On ch=1 n=a4 v=0
285038 Par ch=1 c=64 v=63
285044 Par ch=1 c=64 v=0
285046 On ch=1 n=e4 v=82
285048 On ch=1 n=b4 v=87
285058 On ch=1 n=d#5 v=119
285096 Par ch=1 c=64 v=63
285114 Par ch=1 c=64 v=127
285142 On ch=1 n=g4 v=92
285168 On ch=1 n=b4 v=0
285182 On ch=1 n=d#5 v=0
285208 On ch=1 n=e4 v=0
285222 On ch=1 n=a#4 v=94
285240 On ch=1 n=g4 v=0
285308 On ch=1 n=d#5 v=106
285322 On ch=1 n=b3 v=83
285334 On ch=1 n=a#4 v=0
285388 On ch=1 n=d#5 v=0
285400 On ch=1 n=b3 v=0
285410 On ch=1 n=e5 v=91
285492 On ch=1 n=e5 v=0
285518 On ch=1 n=b5 v=91
285636 On ch=1 n=b5 v=0
285706 On ch=1 n=f4 v=65
285750 On ch=1 n=g#5 v=114
285780 Par ch=1 c=64 v=63
285802 Par ch=1 c=64 v=0
285842 Par ch=1 c=64 v=63
285864 Par ch=1 c=64 v=127
285898 On ch=1 n=g#4 v=77
285916 On ch=1 n=f4 v=0
285944 On ch=1 n=g#5 v=0
286022 On ch=1 n=g#4 v=0
286088 On ch=1 n=c#5 v=79
286108 On ch=1 n=d5 v=84
286180 On ch=1 n=c#5 v=0
286192 On ch=1 n=d5 v=0
286242 On ch=1 n=b4 v=66
286366 On ch=1 n=d#5 v=109
286372 On ch=1 n=g#4 v=80
286374 On ch=1 n=b4 v=0
286418 On ch=1 n=d#5 v=0
286496 On ch=1 n=b4 v=65
286500 On ch=1 n=g#4 v=0
286582 On ch=1 n=b4 v=0
286612 On ch=1 n=b5 v=107
286636 On ch=1 n=g5 v=64
286684 On ch=1 n=b5 v=0
286718 On ch=1 n=g5 v=0
286722 On ch=1 n=f#5 v=103
286828 On ch=1 n=f#5 v=0
286848 On ch=1 n=c5 v=88
286856 On ch=1 n=g5 v=106
286950 On ch=1 n=d#5 v=101
286978 On ch=1 n=c5 v=0
287020 On ch=1 n=g5 v=0
287064 On ch=1 n=g#5 v=114
287072 On ch=1 n=f#5 v=112
287084 On ch=1 n=d#5 v=0
287124 On ch=1 n=g#5 v=0
287174 On ch=1 n=f5 v=97
287194 On ch=1 n=f#5 v=0
287294 On ch=1 n=d#5 v=99
287296 On ch=1 n=d#6 v=116
287298 Par ch=1 c=64 v=63
287318 Par ch=1 c=64 v=0
287320 On ch=1 n=f5 v=0
287330 Par ch=1 c=64 v=63
287362 Par ch=1 c=64 v=127
287388 On ch=1 n=f#5 v=101
287426 On ch=1 n=d#5 v=0
287506 On ch=1 n=g#5 v=101
287508 On ch=1 n=d#6 v=0
287516 On ch=1 n=a#5 v=112
287530 On ch=1 n=f#5 v=0
287592 On ch=1 n=a#5 v=0
287600 On ch=1 n=g#5 v=0
287614 On ch=1 n=f#5 v=104
287686 On ch=1 n=b5 v=96
287716 On ch=1 n=g#5 v=107
287720 On ch=1 n=b5 v=0
287822 On ch=1 n=d6 v=97
287830 On ch=1 n=f#5 v=0
287966 On ch=1 n=d6 v=0
287978 On ch=1 n=f5 v=87
287982 On ch=1 n=g#6 v=119
288006 Par ch=1 c=64 v=63
288018 On ch=1 n=g#5 v=0
288066 Par ch=1 c=64 v=127
288112 On ch=1 n=g#5 v=88
288128 On ch=1 n=f5 v=0
288260 On ch=1 n=c#6 v=101
288264 On ch=1 n=d6 v=96
288270 On ch=1 n=g#5 v=0
288322 On ch=1 n=g#6 v=0
288364 On ch=1 n=c#6 v=0
288366 On ch=1 n=b5 v=72
288398 On ch=1 n=d6 v=0
288482 On ch=1 n=d#6 v=118
288514 On ch=1 n=b5 v=0
288516 On ch=1 n=b5 v=57
288548 On ch=1 n=d#6 v=0
288584 On ch=1 n=g#5 v=104
288616 On ch=1 n=b5 v=0
288720 On ch=1 n=b6 v=116
288728 On ch=1 n=g#5 v=0
288730 On ch=1 n=g6 v=97
288822 On ch=1 n=b6 v=0
288832 On ch=1 n=f#6 v=106
288850 On ch=1 n=g6 v=0
288942 On ch=1 n=f#6 v=0
288952 On ch=1 n=g6 v=111
288962 On ch=1 n=c6 v=90
289054 On ch=1 n=d#6 v=109
289096 On ch=1 n=c6 v=0
289100 On ch=1 n=g6 v=0
289156 On ch=1 n=f#6 v=115
289164 On ch=1 n=g#6 v=112
289194 On ch=1 n=d#6 v=0
289226 On ch=1 n=g#6 v=0
289274 On ch=1 n=f6 v=93
289290 On ch=1 n=f#6 v=0
289370 On ch=1 n=f6 v=0
289376 On ch=1 n=d#6 v=108
289380 On ch=1 n=d#7 v=124
289472 On ch=1 n=f#6 v=105
289526 On ch=1 n=d#6 v=0
289574 On ch=1 n=a#6 v=115
289580 On ch=1 n=g#6 v=113
289618 On ch=1 n=f#6 v=0
289626 On ch=1 n=d#7 v=0
289662 On ch=1 n=a#6 v=0
289676 On ch=1 n=f#6 v=103
289690 On ch=1 n=g#6 v=0
289754 On ch=1 n=b6 v=112
289796 On ch=1 n=g#6 v=107
289808 On ch=1 n=b6 v=0
289910 On ch=1 n=d7 v=107
290064 Par ch=1 c=64 v=63
290094 Par ch=1 c=64 v=127
290102 On ch=1 n=a#7 v=112
290104 On ch=1 n=b6 v=116
290106 On ch=1 n=d#7 v=115
290180 On ch=1 n=d7 v=0
290200 On ch=1 n=f#6 v=0
290202 On ch=1 n=g#6 v=0
290252 On ch=1 n=b6 v=0
290270 On ch=1 n=a#7 v=0
290296 On ch=1 n=d7 v=101
290298 On ch=1 n=d#7 v=0
290300 On ch=1 n=a#6 v=101
290300 On ch=1 n=f6 v=87
290320 On ch=1 n=c7 v=50
290358 On ch=1 n=c7 v=0
290372 On ch=1 n=a#6 v=0
290378 On ch=1 n=d7 v=0
290388 On ch=1 n=f6 v=0
290416 On ch=1 n=a#7 v=116
290420 On ch=1 n=b6 v=113
290422 On ch=1 n=d#7 v=109
290464 On ch=1 n=b6 v=0
290488 On ch=1 n=d#7 v=0
290498 On ch=1 n=a#7 v=0
290524 On ch=1 n=f6 v=93
290530 On ch=1 n=d7 v=89
290536 On ch=1 n=a#6 v=95
290596 On ch=1 n=f6 v=0
290598 On ch=1 n=a#6 v=0
290598 On ch=1 n=d7 v=0
290622 On ch=1 n=a#7 v=113
290624 On ch=1 n=b6 v=111
290626 On ch=1 n=d#7 v=108
290672 On ch=1 n=b6 v=0
290692 On ch=1 n=d#7 v=0
290696 On ch=1 n=a#7 v=0
290716 On ch=1 n=d7 v=102
290718 On ch=1 n=f6 v=98
290726 On ch=1 n=a#6 v=89
290778 On ch=1 n=d7 v=0
290782 On ch=1 n=a#6 v=0
290782 On ch=1 n=f6 v=0
290806 On ch=1 n=a#7 v=114
290808 On ch=1 n=b6 v=112
290810 On ch=1 n=d#7 v=109
290858 On ch=1 n=b6 v=0
290874 On ch=1 n=d#7 v=0
290880 On ch=1 n=a#7 v=0
290886 On ch=1 n=d7 v=107
290888 On ch=1 n=f6 v=100
290896 On ch=1 n=a#6 v=94
290948 On ch=1 n=d7 v=0
290950 On ch=1 n=f6 v=0
290954 On ch=1 n=a#6 v=0
290964 On ch=1 n=a#7 v=112
290968 On ch=1 n=b6 v=108
290968 On ch=1 n=d#7 v=108
291012 On ch=1 n=b6 v=0
291034 On ch=1 n=d7 v=113
291036 On ch=1 n=a#7 v=0
291038 On ch=1 n=f6 v=104
291040 On ch=1 n=a#6 v=104
291042 On ch=1 n=d#7 v=0
291098 On ch=1 n=d7 v=0
291100 On ch=1 n=f6 v=0
291102 On ch=1 n=a#6 v=0
291108 On ch=1 n=a#7 v=113
291108 On ch=1 n=b6 v=108
291110 On ch=1 n=d#7 v=107
291158 On ch=1 n=b6 v=0
291176 On ch=1 n=a#7 v=0
291180 On ch=1 n=d7 v=112
291184 On ch=1 n=d#7 v=0
291184 On ch=1 n=a#6 v=107
291184 On ch=1 n=f6 v=106
291242 On ch=1 n=d7 v=0
291244 On ch=1 n=f6 v=0
291244 On ch=1 n=a#6 v=0
291248 On ch=1 n=a#7 v=112
291248 On ch=1 n=b6 v=109
291252 On ch=1 n=d#7 v=105
291302 On ch=1 n=b6 v=0
291318 On ch=1 n=d7 v=113
291320 On ch=1 n=a#7 v=0
291322 On ch=1 n=f6 v=101
291324 On ch=1 n=a#6 v=109
291326 On ch=1 n=d#7 v=0
291378 On ch=1 n=d7 v=0
291380 On ch=1 n=a#6 v=0
291380 On ch=1 n=f6 v=0
291386 On ch=1 n=b6 v=113
291386 On ch=1 n=a#7 v=113
291386 On ch=1 n=d#7 v=106
291438 On ch=1 n=b6 v=0
291448 On ch=1 n=d7 v=109
291452 On ch=1 n=a#6 v=100
291456 On ch=1 n=f6 v=91
291458 On ch=1 n=d#7 v=0
291458 On ch=1 n=a#7 v=0
291504 On ch=1 n=f6 v=0
291504 On ch=1 n=a#6 v=0
291504 On ch=1 n=d7 v=0
291512 On ch=1 n=a#7 v=105
291512 On ch=1 n=b6 v=111
291514 On ch=1 n=d#7 v=106
291568 On ch=1 n=b6 v=0
291570 On ch=1 n=d7 v=106
291576 On ch=1 n=a#6 v=93
291578 On ch=1 n=f6 v=93
291582 On ch=1 n=a#7 v=0
291590 On ch=1 n=d#7 v=0
291628 On ch=1 n=d7 v=0
291630 On ch=1 n=a#6 v=0
291634 On ch=1 n=f6 v=0
291638 On ch=1 n=a#7 v=87
291638 On ch=1 n=d#7 v=87
291644 On ch=1 n=b6 v=89
291700 On ch=1 n=d7 v=103
291702 On ch=1 n=a#6 v=94
291702 On ch=1 n=f6 v=93
291708 On ch=1 n=b6 v=0
291710 On ch=1 n=a#7 v=0
291724 On ch=1 n=d#7 v=0
291760 On ch=1 n=d7 v=0
291764 On ch=1 n=f6 v=0
291768 On ch=1 n=a#6 v=0
291780 On ch=1 n=a#7 v=101
291780 On ch=1 n=b6 v=97
291780 On ch=1 n=d#7 v=88
291840 On ch=1 n=d7 v=92
291842 On ch=1 n=a#6 v=86
291846 On ch=1 n=b6 v=0
291846 On ch=1 n=f6 v=82
291858 On ch=1 n=a#7 v=0
291864 On ch=1 n=d#7 v=0
291902 On ch=1 n=a#6 v=0
291902 On ch=1 n=d7 v=0
291906 On ch=1 n=f6 v=0
291910 On ch=1 n=a#7 v=84
291912 On ch=1 n=d#7 v=82
291918 On ch=1 n=b6 v=80
291972 On ch=1 n=f6 v=74
291974 On ch=1 n=d7 v=83
291976 On ch=1 n=a#6 v=80
291978 On ch=1 n=b6 v=0
291990 On ch=1 n=a#7 v=0
291996 On ch=1 n=d#7 v=0
292034 On ch=1 n=d7 v=0
292036 On ch=1 n=a#6 v=0
292036 On ch=1 n=f6 v=0
292044 On ch=1 n=a#7 v=88
292050 On ch=1 n=d#7 v=74
292052 On ch=1 n=b6 v=74
292104 On ch=1 n=d7 v=76
292106 On ch=1 n=a#6 v=72
292108 On ch=1 n=f6 v=57
292112 On ch=1 n=b6 v=0
292124 On ch=1 n=a#7 v=0
292130 On ch=1 n=d#7 v=0
292162 On ch=1 n=f6 v=0
292168 On ch=1 n=a#6 v=0
292168 On ch=1 n=d7 v=0
292188 On ch=1 n=a#7 v=86
292192 On ch=1 n=d#7 v=80
292192 On ch=1 n=b6 v=82
292252 On ch=1 n=b6 v=0
292262 On ch=1 n=a#7 v=0
292270 On ch=1 n=d#7 v=0
292330 On ch=1 n=a#7 v=89
292332 On ch=1 n=b6 v=81
292342 On ch=1 n=d#7 v=74
292348 On ch=1 n=a#6 v=57
292360 On ch=1 n=f6 v=49
292362 On ch=1 n=d7 v=22
292408 On ch=1 n=b6 v=0
292426 On ch=1 n=d#7 v=0
292432 On ch=1 n=a#7 v=0
292436 On ch=1 n=d7 v=0
292468 On ch=1 n=a#6 v=0
292510 On ch=1 n=f6 v=0
292556 On ch=1 n=d7 v=68
292574 On ch=1 n=g#7 v=91
292580 Par ch=1 c=64 v=63
292628 Par ch=1 c=64 v=127
292728 On ch=1 n=d7 v=0
292748 On ch=1 n=d#7 v=72
292770 On ch=1 n=f#6 v=67
292856 On ch=1 n=a#6 v=77
292870 On ch=1 n=g#7 v=0
292874 On ch=1 n=d#7 v=0
292944 On ch=1 n=a#6 v=0
292984 On ch=1 n=f#6 v=0
292988 On ch=1 n=a6 v=68
293018 On ch=1 n=f#7 v=92
293154 On ch=1 n=d#7 v=79
293162 On ch=1 n=d#6 v=50
293172 On ch=1 n=f#7 v=0
293186 On ch=1 n=a6 v=0
293230 On ch=1 n=a#6 v=76
293254 On ch=1 n=d#7 v=0
293304 On ch=1 n=a#6 v=0
293314 On ch=1 n=d#6 v=0
293322 On ch=1 n=g6 v=70
293346 On ch=1 n=d#7 v=100
293442 On ch=1 n=a#6 v=80
293470 On ch=1 n=g6 v=0
293474 On ch=1 n=c#6 v=72
293502 On ch=1 n=f#6 v=88
293520 On ch=1 n=d#7 v=0
293576 On ch=1 n=f#6 v=0
293584 On ch=1 n=a#6 v=0
293612 On ch=1 n=f7 v=91
293614 On ch=1 n=c#6 v=0
293626 On ch=1 n=a6 v=90
293738 On ch=1 n=c#7 v=85
293742 On ch=1 n=a6 v=0
293754 On ch=1 n=d#6 v=78
293766 On ch=1 n=f7 v=0
293774 On ch=1 n=g#6 v=80
293828 On ch=1 n=c#7 v=0
293848 On ch=1 n=g#6 v=0
293860 On ch=1 n=d#6 v=0
293870 On ch=1 n=g6 v=82
293880 On ch=1 n=d#7 v=108
293960 On ch=1 n=a#6 v=91
293982 On ch=1 n=g6 v=0
294002 On ch=1 n=c#6 v=74
294014 On ch=1 n=d#7 v=0
294028 On ch=1 n=f#6 v=82
294074 On ch=1 n=a#6 v=0
294108 On ch=1 n=f#6 v=0
294118 On ch=1 n=c#6 v=0
294138 On ch=1 n=f6 v=81
294138 On ch=1 n=c#7 v=97
294242 On ch=1 n=a#6 v=72
294276 On ch=1 n=a#5 v=63
294282 On ch=1 n=f6 v=0
294294 On ch=1 n=c#7 v=0
294318 On ch=1 n=f#6 v=73
294344 On ch=1 n=a#6 v=0
294400 On ch=1 n=f#6 v=0
294402 On ch=1 n=a#5 v=0
294442 On ch=1 n=c6 v=79
294450 On ch=1 n=g#5 v=74
294460 Par ch=1 c=64 v=63
294518 Par ch=1 c=64 v=127
294550 On ch=1 n=c#6 v=88
294566 On ch=1 n=c6 v=0
294604 On ch=1 n=g#5 v=0
294604 On ch=1 n=d6 v=88
294638 On ch=1 n=c#6 v=0
294666 On ch=1 n=d#6 v=100
294684 On ch=1 n=d6 v=0
294712 On ch=1 n=d6 v=84
294714 On ch=1 n=d#6 v=0
294790 On ch=1 n=d#6 v=84
294828 On ch=1 n=d6 v=0
294860 On ch=1 n=d#6 v=0
294864 On ch=1 n=f6 v=59
294912 On ch=1 n=f#6 v=105
294930 On ch=1 n=f6 v=0
294976 On ch=1 n=f#6 v=0
295048 On ch=1 n=g6 v=92
295132 Par ch=1 c=64 v=63
295138 On ch=1 n=c7 v=89
295152 Par ch=1 c=64 v=127
295258 On ch=1 n=f#6 v=74
295328 On ch=1 n=g6 v=0
295332 On ch=1 n=c7 v=0
295354 On ch=1 n=d#6 v=88
295374 On ch=1 n=c#6 v=69
295396 On ch=1 n=f#6 v=0
295460 On ch=1 n=d#6 v=0
295524 On ch=1 n=a#6 v=100
295536 On ch=1 n=c#6 v=0
295550 On ch=1 n=c6 v=63
295644 On ch=1 n=f#6 v=74
295716 On ch=1 n=a#5 v=71
295718 On ch=1 n=a#6 v=0
295736 On ch=1 n=c6 v=0
295738 On ch=1 n=d#6 v=85
295748 On ch=1 n=f#6 v=0
295802 On ch=1 n=d#6 v=0
295902 On ch=1 n=a#5 v=0
295932 Par ch=1 c=64 v=63
295934 On ch=1 n=d6 v=69
295940 On ch=1 n=g#6 v=91
295972 Par ch=1 c=64 v=127
296096 On ch=1 n=d#6 v=76
296144 On ch=1 n=d6 v=0
296158 On ch=1 n=f#5 v=73
296170 On ch=1 n=g#6 v=0
296198 On ch=1 n=a#5 v=79
296220 On ch=1 n=d#6 v=0
296278 On ch=1 n=a#5 v=0
296310 On ch=1 n=f#5 v=0
296328 On ch=1 n=f#6 v=98
296334 On ch=1 n=a5 v=61
296426 On ch=1 n=c#6 v=77
296454 On ch=1 n=d#5 v=76
296474 On ch=1 n=f#6 v=0
296492 On ch=1 n=a5 v=0
296502 On ch=1 n=a#5 v=82
296528 On ch=1 n=c#6 v=0
296562 On ch=1 n=d#5 v=0
296570 On ch=1 n=a#5 v=0
296592 On ch=1 n=g5 v=76
296612 On ch=1 n=d#6 v=105
296698 On ch=1 n=a#5 v=86
296716 On ch=1 n=g5 v=0
296716 On ch=1 n=c#5 v=80
296770 On ch=1 n=f#5 v=90
296772 On ch=1 n=d#6 v=0
296808 On ch=1 n=a#5 v=0
296838 Par ch=1 c=64 v=63
296848 On ch=1 n=f#5 v=0
296852 Par ch=1 c=64 v=0
296858 On ch=1 n=a5 v=78
296868 On ch=1 n=f6 v=92
296892 Par ch=1 c=64 v=63
296914 Par ch=1 c=64 v=127
296930 On ch=1 n=c#5 v=0
296976 On ch=1 n=c#6 v=73
296982 On ch=1 n=a5 v=0
296990 On ch=1 n=d#5 v=72
297004 On ch=1 n=f6 v=0
297026 On ch=1 n=g#5 v=84
297076 On ch=1 n=c#6 v=0
297104 On ch=1 n=g#5 v=0
297106 On ch=1 n=d#5 v=0
297116 On ch=1 n=g5 v=60
297134 On ch=1 n=d#6 v=97
297236 On ch=1 n=a#5 v=75
297244 On ch=1 n=g5 v=0
297252 On ch=1 n=c#5 v=60
297272 On ch=1 n=d#6 v=0
297302 On ch=1 n=f#5 v=81
297328 On ch=1 n=a#5 v=0
297392 On ch=1 n=f#5 v=0
297422 On ch=1 n=c#5 v=0
297422 On ch=1 n=f5 v=44
297434 On ch=1 n=c#6 v=91
297536 On ch=1 n=g#5 v=70
297592 On ch=1 n=a#4 v=62
297624 On ch=1 n=e5 v=68
297686 On ch=1 n=c#6 v=0
297696 On ch=1 n=g#5 v=0
297704 On ch=1 n=f5 v=0
297734 On ch=1 n=e5 v=0
297766 On ch=1 n=c5 v=68
297774 On ch=1 n=g#4 v=68
297778 On ch=1 n=a#4 v=0
297834 Par ch=1 c=64 v=63
297890 Par ch=1 c=64 v=127
297918 On ch=1 n=c#5 v=76
297930 On ch=1 n=c5 v=0
297962 On ch=1 n=d5 v=80
298004 On ch=1 n=c#5 v=0
298018 On ch=1 n=g#4 v=0
298036 On ch=1 n=d#5 v=96
298060 On ch=1 n=d5 v=0
298092 On ch=1 n=d#5 v=0
298106 On ch=1 n=d5 v=92
298184 On ch=1 n=d#5 v=92
298220 On ch=1 n=d5 v=0
298268 On ch=1 n=f5 v=83
298270 On ch=1 n=d#5 v=0
298326 On ch=1 n=f#5 v=103
298344 On ch=1 n=f5 v=0
298418 On ch=1 n=f#5 v=0
298452 On ch=1 n=g5 v=84
298526 Par ch=1 c=64 v=63
298554 On ch=1 n=c6 v=86
298574 Par ch=1 c=64 v=127
298692 On ch=1 n=f#5 v=72
298700 On ch=1 n=g5 v=0
298728 On ch=1 n=c#5 v=75
298740 On ch=1 n=c6 v=0
298778 On ch=1 n=d#5 v=82
298840 On ch=1 n=f#5 v=0
298870 On ch=1 n=d#5 v=0
298902 On ch=1 n=a#5 v=98
298904 On ch=1 n=c#5 v=0
298906 On ch=1 n=c5 v=76
299008 On ch=1 n=f#5 v=74
299052 On ch=1 n=a#5 v=0
299072 On ch=1 n=a#4 v=80
299086 On ch=1 n=c5 v=0
299094 On ch=1 n=d#5 v=77
299114 On ch=1 n=f#5 v=0
299168 On ch=1 n=d#5 v=0
299178 On ch=1 n=a#4 v=0
299224 On ch=1 n=d5 v=81
299230 On ch=1 n=g#5 v=97
299334 On ch=1 n=d#5 v=76
299346 On ch=1 n=d5 v=0
299360 On ch=1 n=f#4 v=70
299402 On ch=1 n=g#5 v=0
299416 On ch=1 n=a#4 v=76
299474 On ch=1 n=d#5 v=0
299500 On ch=1 n=a#4 v=0
299510 On ch=1 n=f#4 v=0
299526 On ch=1 n=f#5 v=93
299530 On ch=1 n=a4 v=59
299638 On ch=1 n=d#5 v=79
299668 On ch=1 n=f#5 v=0
299690 On ch=1 n=a4 v=0
299690 On ch=1 n=d#4 v=57
299694 On ch=1 n=a#4 v=72
299724 On ch=1 n=d#5 v=0
299792 On ch=1 n=a#4 v=0
299818 On ch=1 n=d#4 v=0
299828 On ch=1 n=d#5 v=86
299840 On ch=1 n=g4 v=52
299934 On ch=1 n=a#4 v=66
299980 On ch=1 n=g4 v=0
299980 On ch=1 n=c#4 v=55
300008 On ch=1 n=f#4 v=82
300094 On ch=1 n=d#5 v=0
300104 On ch=1 n=f#4 v=0
300118 On ch=1 n=a#4 v=0
300138 On ch=1 n=a4 v=57
300142 On ch=1 n=f5 v=68
300160 Par ch=1 c=64 v=63
300216 Par ch=1 c=64 v=127
300242 On ch=1 n=c#4 v=0
300258 On ch=1 n=c#5 v=74
300278 On ch=1 n=d#4 v=69
300290 On ch=1 n=a4 v=0
300318 On ch=1 n=f5 v=0
300338 On ch=1 n=g#4 v=63
300402 On ch=1 n=c#5 v=0
300446 On ch=1 n=g#4 v=0
300450 On ch=1 n=d#4 v=0
300454 On ch=1 n=g4 v=52
300470 On ch=1 n=d#5 v=83
300584 On ch=1 n=a#4 v=70
300614 On ch=1 n=c#4 v=57
300616 On ch=1 n=g4 v=0
300638 On ch=1 n=d#5 v=0
300688 On ch=1 n=f#4 v=72
300720 On ch=1 n=a#4 v=0
300814 On ch=1 n=f#4 v=0
300830 On ch=1 n=c#4 v=0
300842 On ch=1 n=f4 v=45
300844 On ch=1 n=c#5 v=85
300928 Par ch=1 c=64 v=63
300972 Par ch=1 c=64 v=127
300986 On ch=1 n=g#4 v=62
301112 On ch=1 n=e4 v=59
301126 On ch=1 n=f4 v=0
301168 On ch=1 n=c#5 v=0
301172 On ch=1 n=a#3 v=57
301286 On ch=1 n=e4 v=0
301318 On ch=1 n=g#4 v=0
301392 On ch=1 n=a#3 v=0
301526 Par ch=1 c=64 v=63
301542 Par ch=1 c=64 v=0
301694 Par ch=1 c=64 v=63
301702 Par ch=1 c=64 v=127
302010 Par ch=1 c=67 v=127
302028 On ch=1 n=f4 v=40
302058 On ch=1 n=a4 v=68
302148 On ch=1 n=f4 v=0
302226 On ch=1 n=d#5 v=81
302232 On ch=1 n=a#4 v=70
302236 On ch=1 n=a4 v=0
302314 On ch=1 n=a#4 v=0
302332 On ch=1 n=d#5 v=0
302338 On ch=1 n=d#4 v=80
302370 On ch=1 n=f4 v=73
302442 On ch=1 n=d#4 v=0
302472 On ch=1 n=f4 v=0
302472 On ch=1 n=a#4 v=95
302476 On ch=1 n=f#4 v=85
302536 On ch=1 n=c#4 v=70
302550 On ch=1 n=f#4 v=0
302564 On ch=1 n=a#4 v=0
302612 On ch=1 n=d4 v=80
302690 On ch=1 n=c#4 v=0
302758 On ch=1 n=d4 v=0
302760 On ch=1 n=a#3 v=67
302788 On ch=1 n=d#4 v=55
302792 On ch=1 n=f#4 v=69
302808 On ch=1 n=a#3 v=0
303036 On ch=1 n=d#4 v=0
303080 On ch=1 n=f#4 v=0
303170 On ch=1 n=g2 v=57
303182 On ch=1 n=d3 v=43
303370 Par ch=1 c=64 v=63
303404 Par ch=1 c=64 v=0
303600 On ch=1 n=d4 v=64
303604 On ch=1 n=g3 v=61
303952 Par ch=1 c=64 v=63
303970 Par ch=1 c=64 v=127
304428 On ch=1 n=g3 v=0
304524 On ch=1 n=g2 v=0
304546 On ch=1 n=d4 v=0
304564 On ch=1 n=d3 v=0
305554 On ch=1 n=g6 v=45
305554 On ch=1 n=d7 v=67
305562 On ch=1 n=d6 v=51
305584 On ch=1 n=g5 v=34
305794 On ch=1 n=g6 v=0
305944 On ch=1 n=g5 v=0
305950 On ch=1 n=d7 v=0
305982 On ch=1 n=a#5 v=40
306010 On ch=1 n=e7 v=40
306016 On ch=1 n=a#6 v=40
306050 On ch=1 n=e6 v=19
306078 On ch=1 n=d6 v=0
306472 On ch=1 n=e7 v=0
306490 On ch=1 n=a#6 v=0
306508 On ch=1 n=a#5 v=0
306528 On ch=1 n=e6 v=0
307760 On ch=1 n=f4 v=36
307808 On ch=1 n=f5 v=89
307822 On ch=1 n=a#4 v=55
307842 On ch=1 n=g4 v=63
307950 Par ch=1 c=64 v=63
308048 Par ch=1 c=64 v=127
308284 On ch=1 n=a#4 v=0
308294 On ch=1 n=g4 v=0
308436 On ch=1 n=a#4 v=67
308448 On ch=1 n=g4 v=65
308600 On ch=1 n=g4 v=0
308690 On ch=1 n=a#4 v=0
308764 On ch=1 n=d4 v=78
308836 On ch=1 n=d5 v=107
308930 On ch=1 n=f5 v=0
308990 Par ch=1 c=64 v=63
309034 Par ch=1 c=64 v=127
309168 On ch=1 n=f4 v=0
309366 On ch=1 n=g4 v=35
309380 On ch=1 n=f4 v=28
310184 On ch=1 n=g4 v=0
310188 On ch=1 n=f4 v=0
310404 On ch=1 n=g4 v=22
310422 On ch=1 n=f4 v=12
311454 On ch=1 n=f4 v=0
311480 On ch=1 n=g4 v=0
311604 On ch=1 n=d5 v=0
311722 On ch=1 n=d4 v=0
311906 Par ch=1 c=67 v=0
312010 On ch=1 n=f5 v=71
312010 On ch=1 n=f4 v=36
312142 Par ch=1 c=64 v=63
312200 Par ch=1 c=64 v=127
312434 On ch=1 n=f4 v=0
312612 On ch=1 n=a#4 v=82
312640 On ch=1 n=g4 v=54
312776 On ch=1 n=g4 v=0
312802 On ch=1 n=g2 v=84
312848 On ch=1 n=a#4 v=0
312870 On ch=1 n=f5 v=0
312886 On ch=1 n=g3 v=85
312912 On ch=1 n=g2 v=0
312966 On ch=1 n=g3 v=0
313194 On ch=1 n=c5 v=91
313196 On ch=1 n=c6 v=99
313240 On ch=1 n=f5 v=37
313296 On ch=1 n=c#5 v=5
313690 On ch=1 n=f5 v=0
313708 On ch=1 n=c#5 v=0
313878 On ch=1 n=c#5 v=67
313880 On ch=1 n=f5 v=68
314220 On ch=1 n=c6 v=0
314256 On ch=1 n=a#4 v=47
314276 On ch=1 n=a#5 v=100
314370 On ch=1 n=c5 v=0
314484 On ch=1 n=f5 v=0
314554 On ch=1 n=c#5 v=0
314712 On ch=1 n=c#5 v=58
314714 On ch=1 n=f5 v=68
314790 On ch=1 n=a#5 v=0
314820 On ch=1 n=a#4 v=0
314828 On ch=1 n=f5 v=0
314928 On ch=1 n=c#5 v=0
315096 On ch=1 n=f4 v=61
315110 On ch=1 n=f5 v=66
315534 On ch=1 n=f4 v=0
315590 On ch=1 n=c#5 v=59
315596 On ch=1 n=a#4 v=30
315892 On ch=1 n=f5 v=0
315896 On ch=1 n=a#4 v=0
315914 On ch=1 n=c#5 v=0
316430 On ch=1 n=d4 v=42
316452 On ch=1 n=g3 v=40
316490 On ch=1 n=d3 v=23
316498 On ch=1 n=g2 v=15
316612 Par ch=1 c=64 v=63
316646 Par ch=1 c=64 v=0
317180 Par ch=1 c=64 v=63
317192 Par ch=1 c=64 v=127
317394 On ch=1 n=g3 v=0
317402 On ch=1 n=g2 v=0
317440 On ch=1 n=d3 v=0
317464 On ch=1 n=d4 v=0
318022 On ch=1 n=a#4 v=24
318044 On ch=1 n=d#5 v=46
318048 On ch=1 n=f4 v=33
318062 On ch=1 n=a#6 v=55
318068 On ch=1 n=d#7 v=63
318406 On ch=1 n=d#5 v=0
318750 On ch=1 n=d#7 v=0
318782 On ch=1 n=c#5 v=28
318796 On ch=1 n=f4 v=0
318796 On ch=1 n=f7 v=45
318800 On ch=1 n=f5 v=35
318818 On ch=1 n=c#7 v=49
318872 On ch=1 n=a#6 v=0
320462 On ch=1 n=f5 v=0
320496 On ch=1 n=a#4 v=0
320516 On ch=1 n=c#5 v=0
321474 Par ch=1 c=67 v=127
321766 On ch=1 n=c#7 v=0
321826 On ch=1 n=f7 v=0
321910 On ch=1 n=c#2 v=34
321922 On ch=1 n=c#3 v=25
321986 Par ch=1 c=64 v=63
322006 Par ch=1 c=64 v=0
322220 Par ch=1 c=64 v=63
322234 Par ch=1 c=64 v=127
322376 On ch=1 n=c#2 v=0
322426 On ch=1 n=c#3 v=0
322868 On ch=1 n=c#5 v=41
322878 On ch=1 n=g5 v=47
322888 On ch=1 n=f5 v=10
323082 On ch=1 n=f5 v=0
323082 On ch=1 n=g#5 v=60
323096 On ch=1 n=g5 v=0
323108 On ch=1 n=c#5 v=0
323116 On ch=1 n=f6 v=48
323124 On ch=1 n=c#6 v=50
323256 On ch=1 n=g#5 v=0
323258 On ch=1 n=a5 v=60
323260 On ch=1 n=g5 v=57
323266 On ch=1 n=f5 v=27
323302 On ch=1 n=f6 v=0
323306 On ch=1 n=c#6 v=0
323320 On ch=1 n=f5 v=0
323344 On ch=1 n=g5 v=0
323366 On ch=1 n=a5 v=0
323406 On ch=1 n=a#5 v=74
323418 On ch=1 n=f6 v=66
323424 On ch=1 n=c#6 v=54
323466 On ch=1 n=c#6 v=0
323472 On ch=1 n=a#5 v=0
323482 On ch=1 n=f6 v=0
323524 On ch=1 n=f5 v=54
323528 On ch=1 n=b5 v=71
323534 On ch=1 n=a5 v=64
323648 On ch=1 n=f5 v=0
323660 On ch=1 n=c6 v=75
323666 On ch=1 n=a6 v=78
323670 On ch=1 n=f6 v=66
323686 On ch=1 n=a5 v=0
323702 On ch=1 n=b5 v=0
323736 On ch=1 n=c6 v=0
323760 On ch=1 n=a6 v=0
323762 On ch=1 n=b5 v=73
323772 On ch=1 n=c#6 v=89
323790 On ch=1 n=f6 v=0
323824 On ch=1 n=b5 v=0
323858 On ch=1 n=c#6 v=0
323860 On ch=1 n=f6 v=71
323866 On ch=1 n=d6 v=84
323868 On ch=1 n=a6 v=77
323930 On ch=1 n=f6 v=0
323938 On ch=1 n=d6 v=0
323940 On ch=1 n=a6 v=0
323964 On ch=1 n=c#6 v=67
323970 On ch=1 n=d#6 v=76
323990 On ch=1 n=a5 v=50
324002 On ch=1 n=a#5 v=26
324064 On ch=1 n=e6 v=67
324068 On ch=1 n=c#6 v=0
324068 On ch=1 n=a6 v=80
324070 On ch=1 n=c#7 v=93
324098 On ch=1 n=d#6 v=0
324122 On ch=1 n=e6 v=0
324130 On ch=1 n=a#5 v=0
324144 On ch=1 n=a6 v=0
324168 On ch=1 n=d#6 v=88
324170 On ch=1 n=a5 v=0
324176 On ch=1 n=c#6 v=86
324180 On ch=1 n=c#7 v=0
324182 On ch=1 n=f6 v=99
324242 On ch=1 n=c#6 v=0
324244 On ch=1 n=d#6 v=0
324262 On ch=1 n=a6 v=60
324264 On ch=1 n=f6 v=0
324266 On ch=1 n=c#7 v=88
324314 On ch=1 n=a6 v=0
324342 On ch=1 n=g6 v=91
324346 On ch=1 n=c#7 v=0
324362 On ch=1 n=f6 v=62
324370 On ch=1 n=c#6 v=83
324372 On ch=1 n=e6 v=45
324412 On ch=1 n=e6 v=0
324442 On ch=1 n=g#6 v=93
324444 On ch=1 n=f6 v=0
324444 On ch=1 n=f7 v=85
324466 On ch=1 n=c#7 v=76
324470 On ch=1 n=g6 v=0
324506 On ch=1 n=c#6 v=0
324508 On ch=1 n=g#6 v=0
324536 On ch=1 n=f7 v=0
324542 On ch=1 n=c#7 v=0
324544 On ch=1 n=g6 v=81
324552 On ch=1 n=f6 v=78
324556 On ch=1 n=a6 v=94
324614 On ch=1 n=f6 v=0
324624 On ch=1 n=f7 v=75
324626 On ch=1 n=g6 v=0
324628 On ch=1 n=a#6 v=79
324636 On ch=1 n=c#7 v=80
324652 On ch=1 n=a6 v=0
324692 On ch=1 n=a#6 v=0
324710 On ch=1 n=c#7 v=0
324712 On ch=1 n=f7 v=0
324722 On ch=1 n=f6 v=88
324724 On ch=1 n=b6 v=90
324734 On ch=1 n=a6 v=89
324816 On ch=1 n=f6 v=0
324822 On ch=1 n=a6 v=0
324824 On ch=1 n=c7 v=92
324836 On ch=1 n=a7 v=73
324850 On ch=1 n=f7 v=63
324866 On ch=1 n=b6 v=0
324906 On ch=1 n=c7 v=0
324908 On ch=1 n=f7 v=0
324924 On ch=1 n=b6 v=68
324942 On ch=1 n=a7 v=0
324944 On ch=1 n=c#7 v=99
324994 On ch=1 n=b6 v=0
325024 On ch=1 n=c#7 v=0
325026 On ch=1 n=d7 v=88
325030 On ch=1 n=f7 v=73
325040 On ch=1 n=a7 v=69
325090 On ch=1 n=d7 v=0
325096 On ch=1 n=f7 v=0
325108 On ch=1 n=a7 v=0
325110 On ch=1 n=d#7 v=88
325116 On ch=1 n=c#7 v=83
325122 On ch=1 n=a6 v=76
325208 On ch=1 n=e7 v=84
325210 On ch=1 n=c#7 v=0
325216 On ch=1 n=a7 v=84
325224 On ch=1 n=c#8 v=89
325230 On ch=1 n=d#7 v=0
325272 On ch=1 n=e7 v=0
325284 On ch=1 n=a7 v=0
325320 On ch=1 n=c#7 v=70
325322 On ch=1 n=d#7 v=76
325332 On ch=1 n=c#8 v=0
325334 On ch=1 n=f7 v=100
325344 On ch=1 n=a6 v=0
325406 On ch=1 n=c#7 v=0
325412 On ch=1 n=d#7 v=0
325426 On ch=1 n=a7 v=74
325430 On ch=1 n=f#7 v=92
325438 On ch=1 n=c#8 v=71
325448 On ch=1 n=f7 v=0
325484 On ch=1 n=a7 v=0
325500 On ch=1 n=f#7 v=0
325526 On ch=1 n=c#8 v=0
325576 On ch=1 n=g7 v=64
325588 On ch=1 n=c#7 v=67
325602 On ch=1 n=f7 v=63
325692 On ch=1 n=g#7 v=85
325710 On ch=1 n=c#7 v=0
325710 On ch=1 n=f8 v=69
325712 On ch=1 n=c#8 v=80
325764 On ch=1 n=f7 v=0
325814 On ch=1 n=g#7 v=0
325824 On ch=1 n=f8 v=0
325848 On ch=1 n=c#8 v=0
325848 On ch=1 n=a7 v=79
325926 On ch=1 n=g7 v=0
325934 On ch=1 n=a#7 v=77
325934 On ch=1 n=c#8 v=49
325948 On ch=1 n=a7 v=0
325948 On ch=1 n=f8 v=55
326026 On ch=1 n=a#7 v=0
326028 On ch=1 n=g7 v=84
326036 On ch=1 n=c#7 v=76
326040 On ch=1 n=f8 v=0
326040 On ch=1 n=f7 v=77
326054 On ch=1 n=c#8 v=0
326118 On ch=1 n=g#7 v=90
326124 On ch=1 n=c#8 v=54
326130 On ch=1 n=f8 v=74
326170 On ch=1 n=c#7 v=0
326178 On ch=1 n=f7 v=0
326206 On ch=1 n=g#7 v=0
326226 On ch=1 n=a7 v=89
326244 On ch=1 n=f8 v=0
326250 On ch=1 n=c#7 v=41
326252 On ch=1 n=c#8 v=0
326262 On ch=1 n=f7 v=25
326294 On ch=1 n=c#7 v=0
326308 On ch=1 n=a#7 v=88
326310 On ch=1 n=c#8 v=64
326310 On ch=1 n=f8 v=79
326332 On ch=1 n=g7 v=0
326334 On ch=1 n=f7 v=0
326338 On ch=1 n=a7 v=0
326402 On ch=1 n=a#7 v=0
326402 On ch=1 n=g7 v=88
326402 On ch=1 n=f7 v=73
326410 On ch=1 n=c#7 v=83
326422 On ch=1 n=f8 v=0
326446 On ch=1 n=c#8 v=0
326496 On ch=1 n=g#7 v=93
326502 On ch=1 n=c#8 v=63
326504 On ch=1 n=f8 v=76
326544 On ch=1 n=c#7 v=0
326546 On ch=1 n=f7 v=0
326592 On ch=1 n=a7 v=87
326594 On ch=1 n=g#7 v=0
326614 On ch=1 n=f8 v=0
326614 On ch=1 n=c#7 v=31
326632 On ch=1 n=c#8 v=0
326660 On ch=1 n=c#7 v=0
326680 On ch=1 n=g7 v=0
326684 On ch=1 n=f8 v=71
326686 On ch=1 n=a#7 v=83
326690 On ch=1 n=c#8 v=68
326698 On ch=1 n=a7 v=0
326780 On ch=1 n=g7 v=80
326782 On ch=1 n=a#7 v=0
326784 On ch=1 n=c#7 v=70
326784 On ch=1 n=f7 v=74
326800 On ch=1 n=f8 v=0
326828 On ch=1 n=c#8 v=0
326890 On ch=1 n=c#8 v=55
326892 On ch=1 n=g#7 v=82
326900 On ch=1 n=f8 v=60
326930 On ch=1 n=c#7 v=0
326932 On ch=1 n=f7 v=0
326982 On ch=1 n=a7 v=75
326992 On ch=1 n=g#7 v=0
327014 On ch=1 n=f8 v=0
327028 On ch=1 n=c#8 v=0
327066 On ch=1 n=g7 v=0
327082 On ch=1 n=a7 v=0
327092 On ch=1 n=c#8 v=56
327092 On ch=1 n=a#7 v=85
327092 On ch=1 n=f8 v=65
327162 On ch=1 n=g7 v=68
327174 On ch=1 n=c#7 v=65
327176 On ch=1 n=f7 v=67
327178 On ch=1 n=a#7 v=0
327200 On ch=1 n=f8 v=0
327220 On ch=1 n=c#8 v=0
327278 On ch=1 n=c#8 v=65
327282 On ch=1 n=f8 v=63
327284 On ch=1 n=g#7 v=80
327308 On ch=1 n=f7 v=0
327312 On ch=1 n=c#7 v=0
327376 On ch=1 n=g#7 v=0
327376 On ch=1 n=a7 v=64
327394 On ch=1 n=f8 v=0
327412 On ch=1 n=c#8 v=0
327470 On ch=1 n=a7 v=0
327480 On ch=1 n=a#7 v=76
327482 On ch=1 n=c#8 v=44
327484 On ch=1 n=f8 v=57
327502 On ch=1 n=g7 v=0
327564 On ch=1 n=g7 v=64
327568 On ch=1 n=a#7 v=0
327578 On ch=1 n=c#7 v=60
327580 On ch=1 n=f7 v=64
327594 On ch=1 n=f8 v=0
327614 On ch=1 n=c#8 v=0
327680 On ch=1 n=f8 v=49
327682 On ch=1 n=c#8 v=56
327682 On ch=1 n=g#7 v=70
327706 On ch=1 n=c#7 v=0
327708 On ch=1 n=f7 v=0
327776 On ch=1 n=g#7 v=0
327780 On ch=1 n=a7 v=60
327794 On ch=1 n=f8 v=0
327808 On ch=1 n=c#8 v=0
327874 On ch=1 n=a7 v=0
327886 On ch=1 n=a#7 v=72
327888 On ch=1 n=f8 v=51
327894 On ch=1 n=c#8 v=34
327896 On ch=1 n=g7 v=0
327970 On ch=1 n=a#7 v=0
327978 On ch=1 n=g7 v=52
327992 On ch=1 n=c#7 v=60
327992 On ch=1 n=f7 v=65
327998 On ch=1 n=f8 v=0
328010 On ch=1 n=c#8 v=0
328094 On ch=1 n=g#7 v=70
328096 On ch=1 n=c#8 v=30
328104 On ch=1 n=f8 v=38
328122 On ch=1 n=f7 v=0
328128 On ch=1 n=c#7 v=0
328156 On ch=1 n=g7 v=0
328180 On ch=1 n=g#7 v=0
328204 On ch=1 n=a7 v=60
328214 On ch=1 n=f8 v=0
328222 On ch=1 n=c#8 v=0
328224 On ch=1 n=g7 v=11
328302 On ch=1 n=a#7 v=67
328304 On ch=1 n=a7 v=0
328306 On ch=1 n=f8 v=43
328308 On ch=1 n=g7 v=0
328308 On ch=1 n=c#8 v=39
328410 On ch=1 n=a#7 v=0
328414 On ch=1 n=g7 v=52
328418 On ch=1 n=f8 v=0
328424 On ch=1 n=c#7 v=57
328426 On ch=1 n=c#8 v=0
328430 On ch=1 n=f7 v=65
328536 On ch=1 n=g#7 v=66
328552 On ch=1 n=f8 v=44
328554 On ch=1 n=f7 v=0
328556 On ch=1 n=c#8 v=46
328560 On ch=1 n=c#7 v=0
328584 On ch=1 n=g7 v=0
328610 On ch=1 n=g#7 v=0
328666 On ch=1 n=f8 v=0
328668 On ch=1 n=c#8 v=0
328678 On ch=1 n=a7 v=63
328688 On ch=1 n=g7 v=19
328740 On ch=1 n=g7 v=0
328748 On ch=1 n=a7 v=0
328810 On ch=1 n=a#7 v=41
328814 On ch=1 n=f8 v=48
328816 On ch=1 n=c#8 v=40
328926 On ch=1 n=a#7 v=0
328934 On ch=1 n=c#8 v=0
328990 On ch=1 n=f8 v=0
329074 On ch=1 n=g#8 v=75
329218 On ch=1 n=g#8 v=0
330194 On ch=1 n=c#5 v=63
330306 On ch=1 n=d#7 v=74
330334 Par ch=1 c=64 v=63
330356 Par ch=1 c=64 v=127
330460 On ch=1 n=g#6 v=65
330480 On ch=1 n=c#5 v=0
330502 On ch=1 n=d#7 v=0
330546 On ch=1 n=g#5 v=69
330594 On ch=1 n=d#6 v=79
330648 On ch=1 n=g#6 v=0
330678 On ch=1 n=d#6 v=0
330704 On ch=1 n=g#5 v=0
330714 On ch=1 n=c#7 v=99
330772 On ch=1 n=e6 v=76
330824 On ch=1 n=e6 v=0
330838 On ch=1 n=g#6 v=75
330880 On ch=1 n=c#7 v=0
330936 On ch=1 n=g#6 v=0
330978 On ch=1 n=c#6 v=85
331238 On ch=1 n=c#6 v=0
331258 On ch=1 n=g#6 v=68
331258 On ch=1 n=f7 v=58
331260 On ch=1 n=g#7 v=74
331276 On ch=1 n=f6 v=81
331556 On ch=1 n=g#7 v=0
331580 On ch=1 n=f7 v=0
331602 On ch=1 n=g#6 v=0
331638 On ch=1 n=f6 v=0
331876 Par ch=1 c=64 v=63
331948 Par ch=1 c=64 v=0
331948 Meta TrkEnd
