MFile 1 2 480
MTrk
0 Tempo 500000
0 TimeSig 6/8 24 8
0 Meta TrkEnd
TrkEnd
MTrk
0 SeqSpec 43 00 01 00
0 Meta TrkName "<Master Volume>"
0 Meta 0x21 00
0 SysEx f0 41 10 42 12 40 00 7f 00 41 f7
0 SysEx f0 41 10 42 12 40 00 04 64 58 f7
192 Meta Text "<Master Reverve>"
192 SysEx f0 41 10 42 12 40 01 30 03 0c f7
192 SysEx f0 41 10 42 12 40 01 33 3c 50 f7
192 SysEx f0 41 10 42 12 40 01 34 3c 4f f7
576 Par ch=1 c=0 v=0
580 Par ch=1 c=32 v=1
584 PrCh ch=1 p=0
642 Par ch=1 c=67 v=0
780 Par ch=1 c=7 v=100
972 Par ch=1 c=11 v=100
1164 Par ch=1 c=10 v=64
1356 Par ch=1 c=1 v=0
1356 Meta Text "<part reverve>"
1356 Par ch=1 c=91 v=80
1374 Par ch=1 c=67 v=0
1452 Par ch=1 c=99 v=1
1456 Par ch=1 c=98 v=32
1460 Par ch=1 c=6 v=62
1464 Par ch=1 c=99 v=1
1468 Par ch=1 c=98 v=33
1472 Par ch=1 c=6 v=54
1476 Par ch=1 c=99 v=1
1480 Par ch=1 c=98 v=99
1484 Par ch=1 c=6 v=62
1488 Par ch=1 c=99 v=1
1492 Par ch=1 c=98 v=100
1496 Par ch=1 c=6 v=60
1500 Par ch=1 c=99 v=1
1504 Par ch=1 c=98 v=102
1508 Par ch=1 c=6 v=70
2830 Par ch=1 c=64 v=63
2848 On ch=1 n=d5 v=65
2850 Par ch=1 c=64 v=127
2886 On ch=1 n=d5 v=0
2914 Par ch=1 c=64 v=63
3004 Par ch=1 c=64 v=0
3106 On ch=1 n=d6 v=84
3110 On ch=1 n=f#5 v=93
3122 On ch=1 n=d#5 v=87
3136 On ch=1 n=f#5 v=0
3160 On ch=1 n=d6 v=0
3170 On ch=1 n=d#5 v=0
3356 On ch=1 n=d5 v=75
3388 On ch=1 n=d5 v=0
3512 Par ch=1 c=64 v=63
3554 Par ch=1 c=64 v=127
3564 Par ch=1 c=64 v=63
3582 On ch=1 n=d#5 v=95
3588 On ch=1 n=d6 v=93
3588 On ch=1 n=f#5 v=97
3596 Par ch=1 c=64 v=0
3612 On ch=1 n=f#5 v=0
3636 On ch=1 n=d#5 v=0
3640 On ch=1 n=d6 v=0
3828 On ch=1 n=d5 v=89
3866 On ch=1 n=d5 v=0
4020 Par ch=1 c=64 v=63
4056 On ch=1 n=a5 v=94
4058 On ch=1 n=f5 v=84
4064 On ch=1 n=f6 v=104
4068 On ch=1 n=f#5 v=103
4078 Par ch=1 c=64 v=0
4092 On ch=1 n=a5 v=0
4112 On ch=1 n=f5 v=0
4116 On ch=1 n=f6 v=0
4124 On ch=1 n=f#5 v=0
4304 On ch=1 n=d5 v=107
4306 Par ch=1 c=64 v=63
4320 Par ch=1 c=64 v=127
4360 On ch=1 n=d5 v=0
4536 On ch=1 n=d#5 v=104
4546 Par ch=1 c=64 v=63
4554 On ch=1 n=f#5 v=88
4560 On ch=1 n=d6 v=76
4564 Par ch=1 c=64 v=0
4572 On ch=1 n=d#5 v=0
4578 On ch=1 n=f#5 v=0
4596 On ch=1 n=d6 v=0
4786 On ch=1 n=d5 v=96
4830 On ch=1 n=d5 v=0
5022 On ch=1 n=a4 v=99
5078 On ch=1 n=a4 v=0
5254 On ch=1 n=c6 v=89
5260 On ch=1 n=c#5 v=78
5262 On ch=1 n=c5 v=75
5274 On ch=1 n=e5 v=63
5292 On ch=1 n=c6 v=0
5294 On ch=1 n=c5 v=0
5294 On ch=1 n=c#5 v=0
5308 On ch=1 n=e5 v=0
5490 On ch=1 n=b4 v=99
5494 On ch=1 n=g4 v=66
5496 On ch=1 n=g5 v=91
5498 On ch=1 n=g#4 v=80
5524 On ch=1 n=b4 v=0
5526 On ch=1 n=g#4 v=0
5536 On ch=1 n=g4 v=0
5542 On ch=1 n=g5 v=0
5732 On ch=1 n=d5 v=107
5734 Par ch=1 c=64 v=63
5746 Par ch=1 c=64 v=127
5766 On ch=1 n=d5 v=0
5940 Par ch=1 c=64 v=63
5952 On ch=1 n=d#5 v=88
5966 Par ch=1 c=64 v=0
5966 On ch=1 n=f#5 v=100
5980 On ch=1 n=d6 v=85
6000 On ch=1 n=d#5 v=0
6006 On ch=1 n=f#5 v=0
6034 On ch=1 n=d6 v=0
6202 On ch=1 n=d5 v=94
6244 On ch=1 n=d5 v=0
6422 On ch=1 n=d#5 v=105
6434 On ch=1 n=f#5 v=109
6438 On ch=1 n=d6 v=103
6446 Par ch=1 c=64 v=63
6466 On ch=1 n=f#5 v=0
6466 On ch=1 n=d#5 v=0
6480 Par ch=1 c=64 v=0
6506 On ch=1 n=d6 v=0
6674 On ch=1 n=d5 v=97
6722 On ch=1 n=d5 v=0
6896 On ch=1 n=f#5 v=94
6898 On ch=1 n=f6 v=100
6906 On ch=1 n=a5 v=79
6914 On ch=1 n=f5 v=89
6924 On ch=1 n=f#5 v=0
6938 On ch=1 n=a5 v=0
6956 On ch=1 n=f6 v=0
6958 On ch=1 n=f5 v=0
7154 On ch=1 n=d5 v=113
7170 Par ch=1 c=64 v=63
7182 Par ch=1 c=64 v=127
7210 On ch=1 n=d5 v=0
7382 On ch=1 n=d#5 v=80
7392 On ch=1 n=f#5 v=91
7398 On ch=1 n=d6 v=89
7408 On ch=1 n=d#5 v=0
7408 Par ch=1 c=64 v=63
7418 On ch=1 n=f#5 v=0
7426 Par ch=1 c=64 v=0
7432 On ch=1 n=d6 v=0
7626 On ch=1 n=d5 v=90
7676 On ch=1 n=d5 v=0
7838 On ch=1 n=a4 v=103
7892 On ch=1 n=a4 v=0
8072 On ch=1 n=c5 v=87
8074 On ch=1 n=c#5 v=80
8074 On ch=1 n=c6 v=89
8086 On ch=1 n=e5 v=64
8104 On ch=1 n=c#5 v=0
8112 On ch=1 n=c6 v=0
8112 On ch=1 n=c5 v=0
8118 On ch=1 n=e5 v=0
8318 On ch=1 n=g4 v=76
8320 On ch=1 n=b4 v=81
8322 On ch=1 n=g5 v=84
8332 On ch=1 n=g#4 v=68
8352 On ch=1 n=b4 v=0
8362 On ch=1 n=g#4 v=0
8364 On ch=1 n=g4 v=0
8380 On ch=1 n=g5 v=0
8562 On ch=1 n=d5 v=102
8564 Par ch=1 c=64 v=63
8574 Par ch=1 c=64 v=127
8602 On ch=1 n=d5 v=0
8772 Par ch=1 c=64 v=63
8784 Par ch=1 c=64 v=0
8788 On ch=1 n=d#5 v=86
8796 On ch=1 n=d6 v=88
8802 On ch=1 n=f#5 v=74
8816 On ch=1 n=d#5 v=0
8830 On ch=1 n=f#5 v=0
8848 On ch=1 n=d6 v=0
9032 On ch=1 n=d5 v=99
9082 On ch=1 n=d5 v=0
9254 On ch=1 n=d#5 v=97
9264 On ch=1 n=f#5 v=110
9276 On ch=1 n=d6 v=108
9300 On ch=1 n=d#5 v=0
9302 Par ch=1 c=64 v=127
9312 On ch=1 n=f#5 v=0
9340 On ch=1 n=d6 v=0
9422 Par ch=1 c=64 v=63
9430 Par ch=1 c=64 v=0
9520 On ch=1 n=d5 v=79
9556 On ch=1 n=d5 v=0
9744 On ch=1 n=d#5 v=104
9746 On ch=1 n=d6 v=94
9764 On ch=1 n=f#5 v=70
9778 On ch=1 n=d#5 v=0
9794 On ch=1 n=f#5 v=0
9808 On ch=1 n=d6 v=0
9996 On ch=1 n=a5 v=113
10006 Par ch=1 c=64 v=127
10058 On ch=1 n=a5 v=0
10246 On ch=1 n=g5 v=99
10246 On ch=1 n=a5 v=99
10312 On ch=1 n=g5 v=0
10322 On ch=1 n=a5 v=0
10324 On ch=1 n=a6 v=100
10326 On ch=1 n=c#6 v=100
10338 On ch=1 n=d#6 v=89
10392 On ch=1 n=a6 v=0
10410 On ch=1 n=g5 v=99
10414 On ch=1 n=d#6 v=0
10414 On ch=1 n=a5 v=74
10436 On ch=1 n=c#6 v=0
10444 On ch=1 n=a5 v=0
10456 On ch=1 n=f5 v=106
10462 On ch=1 n=g5 v=0
10514 On ch=1 n=f5 v=0
10704 On ch=1 n=d#5 v=110
10754 On ch=1 n=d#5 v=0
10916 On ch=1 n=f#5 v=106
10924 On ch=1 n=g#5 v=102
10942 Par ch=1 c=64 v=63
10946 On ch=1 n=d5 v=112
10948 On ch=1 n=d#6 v=107
10952 Par ch=1 c=64 v=0
10964 On ch=1 n=f#5 v=0
10982 On ch=1 n=g#5 v=0
10992 On ch=1 n=d#6 v=0
11028 On ch=1 n=d5 v=0
11194 On ch=1 n=c5 v=104
11242 On ch=1 n=c5 v=0
11432 On ch=1 n=a3 v=104
11436 On ch=1 n=d3 v=117
11440 Par ch=1 c=64 v=127
11480 On ch=1 n=a3 v=0
11484 On ch=1 n=d3 v=0
11678 On ch=1 n=d4 v=93
11680 On ch=1 n=a4 v=96
11716 On ch=1 n=d4 v=0
11766 On ch=1 n=a4 v=0
11888 On ch=1 n=d4 v=111
11894 On ch=1 n=a4 v=108
11952 On ch=1 n=a4 v=0
11958 On ch=1 n=d4 v=0
12122 On ch=1 n=a5 v=113
12130 On ch=1 n=d5 v=97
12172 On ch=1 n=d5 v=0
12226 On ch=1 n=a5 v=0
12360 On ch=1 n=d5 v=116
12360 On ch=1 n=a5 v=114
12498 On ch=1 n=a5 v=0
12524 On ch=1 n=d5 v=0
12596 On ch=1 n=a5 v=114
12596 On ch=1 n=a6 v=120
12606 On ch=1 n=d6 v=111
12654 On ch=1 n=d6 v=0
12666 On ch=1 n=a5 v=0
12672 On ch=1 n=a6 v=0
12694 Par ch=1 c=64 v=63
12696 Par ch=1 c=64 v=0
12832 On ch=1 n=a5 v=122
12850 Par ch=1 c=64 v=127
12906 On ch=1 n=a5 v=0
13084 On ch=1 n=a5 v=96
13084 On ch=1 n=g5 v=90
13142 On ch=1 n=g5 v=0
13150 On ch=1 n=c#6 v=106
13152 On ch=1 n=a5 v=0
13166 On ch=1 n=d#6 v=92
13166 On ch=1 n=a6 v=63
13212 On ch=1 n=d#6 v=0
13226 On ch=1 n=a5 v=60
13228 On ch=1 n=a6 v=0
13228 On ch=1 n=g5 v=76
13248 On ch=1 n=c#6 v=0
13282 On ch=1 n=g5 v=0
13288 On ch=1 n=a5 v=0
13310 On ch=1 n=f5 v=111
13370 On ch=1 n=f5 v=0
13540 On ch=1 n=d#5 v=114
13554 Par ch=1 c=64 v=63
13562 Par ch=1 c=64 v=0
13608 On ch=1 n=d#5 v=0
13758 On ch=1 n=f#5 v=108
13770 On ch=1 n=g#5 v=113
13780 On ch=1 n=d5 v=112
13784 On ch=1 n=d#6 v=103
13794 Par ch=1 c=64 v=127
13802 On ch=1 n=f#5 v=0
13820 On ch=1 n=g#5 v=0
13830 On ch=1 n=d#6 v=0
13864 On ch=1 n=d5 v=0
14018 On ch=1 n=c5 v=96
14032 Par ch=1 c=64 v=63
14040 Par ch=1 c=64 v=0
14072 On ch=1 n=c5 v=0
14264 On ch=1 n=a3 v=103
14266 On ch=1 n=d3 v=116
14280 Par ch=1 c=64 v=63
14280 Par ch=1 c=64 v=127
14308 On ch=1 n=d3 v=0
14310 On ch=1 n=a3 v=0
14518 On ch=1 n=d4 v=75
14524 On ch=1 n=a4 v=65
14560 On ch=1 n=d4 v=0
14634 On ch=1 n=a4 v=0
14756 On ch=1 n=a4 v=96
14760 On ch=1 n=d4 v=98
14814 On ch=1 n=d4 v=0
14814 On ch=1 n=a4 v=0
14970 On ch=1 n=a5 v=108
14982 On ch=1 n=d5 v=104
15024 On ch=1 n=d5 v=0
15072 On ch=1 n=a5 v=0
15216 On ch=1 n=a5 v=116
15220 On ch=1 n=d5 v=116
15274 On ch=1 n=a5 v=0
15298 On ch=1 n=d5 v=0
15444 On ch=1 n=a5 v=115
15444 On ch=1 n=a6 v=124
15450 On ch=1 n=d6 v=118
15496 On ch=1 n=d6 v=0
15504 On ch=1 n=a5 v=0
15506 On ch=1 n=a6 v=0
15680 On ch=1 n=a3 v=114
15680 On ch=1 n=d3 v=120
15686 Par ch=1 c=64 v=63
15694 Par ch=1 c=64 v=0
15736 On ch=1 n=d3 v=0
15736 On ch=1 n=a3 v=0
15928 On ch=1 n=a4 v=76
15932 On ch=1 n=d4 v=76
15964 On ch=1 n=d4 v=0
15988 On ch=1 n=a4 v=0
16148 On ch=1 n=a3 v=96
16156 On ch=1 n=d3 v=94
16206 On ch=1 n=a3 v=0
16208 On ch=1 n=d3 v=0
16382 On ch=1 n=a4 v=91
16394 On ch=1 n=d4 v=84
16422 On ch=1 n=d4 v=0
16446 On ch=1 n=a4 v=0
16616 On ch=1 n=a3 v=83
16620 On ch=1 n=d3 v=84
16684 On ch=1 n=a3 v=0
16690 On ch=1 n=d3 v=0
16862 On ch=1 n=a4 v=75
16868 On ch=1 n=d4 v=76
16902 On ch=1 n=d4 v=0
16920 On ch=1 n=a4 v=0
17088 On ch=1 n=a3 v=65
17096 On ch=1 n=d3 v=65
17160 On ch=1 n=a3 v=0
17164 On ch=1 n=d3 v=0
17334 On ch=1 n=a4 v=75
17342 On ch=1 n=d4 v=72
17374 On ch=1 n=d4 v=0
17398 On ch=1 n=a4 v=0
17552 On ch=1 n=a3 v=51
17560 On ch=1 n=d3 v=45
17632 On ch=1 n=d3 v=0
17632 On ch=1 n=a3 v=0
17784 On ch=1 n=a4 v=52
17790 On ch=1 n=d4 v=65
17832 On ch=1 n=d4 v=0
17868 On ch=1 n=a4 v=0
18054 On ch=1 n=d5 v=76
18066 On ch=1 n=d3 v=51
18086 Par ch=1 c=64 v=63
18086 On ch=1 n=a3 v=38
18090 Par ch=1 c=64 v=127
18142 On ch=1 n=d5 v=0
18144 On ch=1 n=a5 v=57
18232 On ch=1 n=d6 v=67
18244 On ch=1 n=a5 v=0
18278 On ch=1 n=d3 v=0
18294 On ch=1 n=d6 v=0
18334 On ch=1 n=a3 v=0
18336 On ch=1 n=d4 v=45
18362 On ch=1 n=d6 v=72
18380 On ch=1 n=d4 v=0
18444 On ch=1 n=d6 v=0
18462 On ch=1 n=d#6 v=92
18546 On ch=1 n=d#6 v=0
18574 On ch=1 n=a#6 v=87
18680 On ch=1 n=a#6 v=0
18780 On ch=1 n=g4 v=38
18782 On ch=1 n=c4 v=39
18832 On ch=1 n=d7 v=103
18882 Par ch=1 c=64 v=63
18936 Par ch=1 c=64 v=127
18998 On ch=1 n=c4 v=0
19016 On ch=1 n=d7 v=0
19020 On ch=1 n=g4 v=0
19120 On ch=1 n=c7 v=90
19196 On ch=1 n=d7 v=76
19198 On ch=1 n=c7 v=0
19264 On ch=1 n=c7 v=83
19302 On ch=1 n=d7 v=0
19322 On ch=1 n=d#5 v=79
19330 On ch=1 n=a#6 v=101
19330 On ch=1 n=g5 v=76
19336 On ch=1 n=d6 v=54
19346 On ch=1 n=c7 v=0
19372 On ch=1 n=a#6 v=0
19388 On ch=1 n=d6 v=0
19406 On ch=1 n=g5 v=0
19428 On ch=1 n=d#5 v=0
19532 On ch=1 n=a#5 v=84
19556 On ch=1 n=d#6 v=101
19564 On ch=1 n=a#5 v=0
19592 On ch=1 n=a6 v=100
19604 Par ch=1 c=64 v=63
19608 On ch=1 n=d#6 v=0
19610 Par ch=1 c=64 v=0
19650 On ch=1 n=a6 v=0
19820 On ch=1 n=f#6 v=94
19872 On ch=1 n=f#6 v=0
20020 On ch=1 n=g5 v=78
20028 On ch=1 n=a#5 v=85
20028 On ch=1 n=g6 v=89
20032 On ch=1 n=c5 v=75
20036 On ch=1 n=d#6 v=77
20052 On ch=1 n=g5 v=0
20062 On ch=1 n=a#5 v=0
20064 On ch=1 n=d#6 v=0
20076 On ch=1 n=c5 v=0
20088 On ch=1 n=g6 v=0
20262 On ch=1 n=d#6 v=71
20294 On ch=1 n=a#6 v=100
20300 On ch=1 n=d#6 v=0
20302 On ch=1 n=c4 v=59
20302 On ch=1 n=g4 v=59
20310 Par ch=1 c=64 v=63
20312 Par ch=1 c=64 v=127
20322 On ch=1 n=d7 v=108
20354 On ch=1 n=a#6 v=0
20368 On ch=1 n=c4 v=0
20372 On ch=1 n=g4 v=0
20398 On ch=1 n=d7 v=0
20558 On ch=1 n=c7 v=84
20586 On ch=1 n=d7 v=85
20608 On ch=1 n=c7 v=0
20670 On ch=1 n=c7 v=63
20694 On ch=1 n=d7 v=0
20736 On ch=1 n=d6 v=69
20740 On ch=1 n=d#5 v=55
20740 On ch=1 n=a#6 v=93
20744 On ch=1 n=g5 v=65
20756 On ch=1 n=c7 v=0
20784 On ch=1 n=a#6 v=0
20784 On ch=1 n=d6 v=0
20798 On ch=1 n=g5 v=0
20832 On ch=1 n=d#5 v=0
20954 On ch=1 n=a#5 v=80
20962 On ch=1 n=d#6 v=104
20982 On ch=1 n=a#5 v=0
20990 On ch=1 n=a6 v=102
20998 Par ch=1 c=64 v=63
21006 Par ch=1 c=64 v=0
21008 On ch=1 n=d#6 v=0
21046 On ch=1 n=a6 v=0
21220 On ch=1 n=f#6 v=103
21274 On ch=1 n=f#6 v=0
21436 On ch=1 n=g5 v=72
21438 On ch=1 n=g6 v=94
21446 On ch=1 n=a#5 v=81
21450 On ch=1 n=d#6 v=86
21450 On ch=1 n=c5 v=76
21472 On ch=1 n=g5 v=0
21476 On ch=1 n=d#6 v=0
21480 On ch=1 n=a#5 v=0
21492 On ch=1 n=c5 v=0
21512 On ch=1 n=g6 v=0
21662 On ch=1 n=g3 v=78
21670 On ch=1 n=d4 v=72
21692 On ch=1 n=a#6 v=107
21700 On ch=1 n=g3 v=0
21702 On ch=1 n=d4 v=0
21708 Par ch=1 c=64 v=63
21708 Par ch=1 c=64 v=127
21812 On ch=1 n=a#6 v=0
21924 On ch=1 n=a5 v=76
21930 On ch=1 n=a#4 v=85
21934 On ch=1 n=f5 v=79
21934 On ch=1 n=a6 v=57
21986 On ch=1 n=a#6 v=97
21992 On ch=1 n=a6 v=0
22024 On ch=1 n=a5 v=0
22064 On ch=1 n=a6 v=98
22072 On ch=1 n=a#6 v=0
22074 On ch=1 n=f5 v=0
22140 Par ch=1 c=64 v=63
22144 Par ch=1 c=64 v=0
22146 On ch=1 n=a#4 v=0
22150 On ch=1 n=a#5 v=88
22162 On ch=1 n=f6 v=104
22180 On ch=1 n=a6 v=0
22206 On ch=1 n=a#5 v=0
22376 On ch=1 n=a5 v=78
22384 On ch=1 n=a#4 v=70
22408 On ch=1 n=f5 v=47
22442 On ch=1 n=a#4 v=0
22444 On ch=1 n=a5 v=0
22448 On ch=1 n=f5 v=0
22620 On ch=1 n=a#5 v=100
22686 On ch=1 n=a#5 v=0
22836 On ch=1 n=a#4 v=82
22840 On ch=1 n=a5 v=75
22860 On ch=1 n=f5 v=55
22896 On ch=1 n=a5 v=0
22900 On ch=1 n=f5 v=0
22906 On ch=1 n=a#4 v=0
23064 Par ch=1 c=64 v=63
23064 Par ch=1 c=64 v=127
23082 On ch=1 n=a#5 v=89
23116 On ch=1 n=f6 v=0
23146 On ch=1 n=a#5 v=0
23304 On ch=1 n=a#4 v=67
23312 On ch=1 n=a5 v=47
23318 On ch=1 n=d6 v=96
23330 On ch=1 n=f5 v=31
23332 Par ch=1 c=64 v=63
23340 Par ch=1 c=64 v=0
23358 On ch=1 n=a5 v=0
23360 On ch=1 n=a#4 v=0
23374 On ch=1 n=f5 v=0
23538 On ch=1 n=a#5 v=85
23550 On ch=1 n=d5 v=55
23614 On ch=1 n=a#5 v=0
23618 On ch=1 n=d5 v=0
23782 On ch=1 n=a5 v=68
23786 On ch=1 n=a#4 v=67
23804 On ch=1 n=f5 v=38
23820 On ch=1 n=a5 v=0
23834 On ch=1 n=a#4 v=0
23844 On ch=1 n=f5 v=0
24022 On ch=1 n=d5 v=66
24024 On ch=1 n=a#5 v=76
24098 On ch=1 n=d5 v=0
24102 On ch=1 n=a#5 v=0
24236 On ch=1 n=a5 v=70
24240 On ch=1 n=a#4 v=63
24254 On ch=1 n=f5 v=42
24276 On ch=1 n=a5 v=0
24294 On ch=1 n=f5 v=0
24304 On ch=1 n=d6 v=0
24320 On ch=1 n=a#4 v=0
24490 On ch=1 n=d#5 v=86
24528 On ch=1 n=a#5 v=67
24544 Par ch=1 c=64 v=63
24544 Par ch=1 c=64 v=127
24554 On ch=1 n=d#5 v=0
24566 On ch=1 n=g4 v=48
24570 On ch=1 n=c4 v=58
24584 On ch=1 n=d6 v=92
24616 On ch=1 n=a#5 v=0
24670 On ch=1 n=g4 v=0
24680 On ch=1 n=d6 v=0
24680 On ch=1 n=c4 v=0
24812 On ch=1 n=c6 v=79
24854 On ch=1 n=d6 v=72
24870 On ch=1 n=c6 v=0
24926 On ch=1 n=c6 v=67
24960 On ch=1 n=d6 v=0
24998 On ch=1 n=a#5 v=106
25014 On ch=1 n=d5 v=76
25016 On ch=1 n=c6 v=0
25028 On ch=1 n=g4 v=40
25044 On ch=1 n=a#5 v=0
25048 Par ch=1 c=64 v=63
25050 Par ch=1 c=64 v=0
25062 On ch=1 n=d5 v=0
25076 On ch=1 n=g4 v=0
25238 On ch=1 n=a#4 v=87
25244 On ch=1 n=d#5 v=103
25258 On ch=1 n=a5 v=79
25264 On ch=1 n=a#4 v=0
25300 On ch=1 n=d#5 v=0
25344 On ch=1 n=a5 v=0
25480 On ch=1 n=f#5 v=98
25534 On ch=1 n=f#5 v=0
25704 On ch=1 n=c4 v=85
25708 On ch=1 n=g4 v=75
25710 On ch=1 n=g5 v=97
25712 On ch=1 n=a#4 v=92
25724 On ch=1 n=d#5 v=78
25738 On ch=1 n=g4 v=0
25740 On ch=1 n=a#4 v=0
25746 On ch=1 n=c4 v=0
25750 On ch=1 n=d#5 v=0
25774 On ch=1 n=g5 v=0
25940 On ch=1 n=d#5 v=67
25950 On ch=1 n=f3 v=70
25950 Par ch=1 c=64 v=63
25952 Par ch=1 c=64 v=127
25958 On ch=1 n=c4 v=64
25970 On ch=1 n=d#5 v=0
25970 On ch=1 n=a#5 v=88
25990 On ch=1 n=d6 v=93
26026 On ch=1 n=f3 v=0
26034 On ch=1 n=a#5 v=0
26040 On ch=1 n=c4 v=0
26088 On ch=1 n=d6 v=0
26224 On ch=1 n=c6 v=79
26266 On ch=1 n=d6 v=70
26278 On ch=1 n=c6 v=0
26346 On ch=1 n=c6 v=65
26362 On ch=1 n=d6 v=0
26412 On ch=1 n=a#5 v=103
26434 On ch=1 n=c6 v=0
26436 On ch=1 n=g4 v=50
26438 On ch=1 n=d5 v=60
26464 On ch=1 n=a#5 v=0
26488 On ch=1 n=d5 v=0
26490 On ch=1 n=g4 v=0
26620 On ch=1 n=a#4 v=84
26642 On ch=1 n=d#5 v=94
26668 On ch=1 n=a#4 v=0
26674 Par ch=1 c=64 v=63
26678 On ch=1 n=a5 v=88
26684 Par ch=1 c=64 v=0
26694 On ch=1 n=d#5 v=0
26736 On ch=1 n=a5 v=0
26886 On ch=1 n=f#5 v=91
26942 On ch=1 n=f#5 v=0
27110 On ch=1 n=a#4 v=93
27110 On ch=1 n=c5 v=69
27110 On ch=1 n=f4 v=74
27116 On ch=1 n=g5 v=86
27116 On ch=1 n=d#5 v=86
27142 On ch=1 n=c5 v=0
27148 On ch=1 n=a#4 v=0
27150 On ch=1 n=d#5 v=0
27166 On ch=1 n=f4 v=0
27178 On ch=1 n=g5 v=0
27338 On ch=1 n=a#3 v=68
27352 On ch=1 n=a#5 v=103
27388 Par ch=1 c=64 v=63
27390 Par ch=1 c=64 v=127
27444 On ch=1 n=a#5 v=0
27450 On ch=1 n=a#3 v=0
27584 On ch=1 n=f4 v=70
27590 On ch=1 n=a5 v=65
27624 On ch=1 n=a#5 v=65
27644 On ch=1 n=a5 v=0
27704 On ch=1 n=f4 v=0
27708 On ch=1 n=a5 v=89
27722 On ch=1 n=a#5 v=0
27794 On ch=1 n=a#4 v=76
27800 Par ch=1 c=64 v=63
27804 Par ch=1 c=64 v=0
27824 On ch=1 n=f5 v=108
27840 On ch=1 n=a5 v=0
27876 On ch=1 n=a#4 v=0
28046 On ch=1 n=a4 v=90
28054 On ch=1 n=f4 v=61
28096 On ch=1 n=a4 v=0
28122 On ch=1 n=f4 v=0
28294 On ch=1 n=a#4 v=78
28350 On ch=1 n=a#4 v=0
28530 On ch=1 n=a4 v=82
28536 On ch=1 n=f4 v=66
28574 On ch=1 n=a4 v=0
28576 On ch=1 n=f4 v=0
28760 On ch=1 n=a#3 v=70
28812 Par ch=1 c=64 v=63
28816 Par ch=1 c=64 v=127
28966 On ch=1 n=f5 v=0
28998 On ch=1 n=d5 v=96
29002 On ch=1 n=a#3 v=0
29006 On ch=1 n=d#4 v=70
29014 On ch=1 n=g4 v=60
29090 On ch=1 n=d#4 v=0
29092 On ch=1 n=g4 v=0
29232 On ch=1 n=a#4 v=66
29264 Par ch=1 c=64 v=63
29268 Par ch=1 c=64 v=0
29276 On ch=1 n=a#4 v=0
29460 On ch=1 n=g4 v=77
29468 On ch=1 n=d#4 v=69
29508 On ch=1 n=d#4 v=0
29518 On ch=1 n=g4 v=0
29694 On ch=1 n=a#4 v=77
29752 On ch=1 n=a#4 v=0
29930 On ch=1 n=d#4 v=69
29938 On ch=1 n=g4 v=59
29962 On ch=1 n=d#4 v=0
29996 On ch=1 n=d5 v=0
30024 On ch=1 n=g4 v=0
30166 On ch=1 n=a#4 v=92
30168 On ch=1 n=a#2 v=72
30176 Par ch=1 c=64 v=63
30178 Par ch=1 c=64 v=127
30230 On ch=1 n=a#4 v=0
30392 Par ch=1 c=64 v=63
30396 Par ch=1 c=64 v=0
30412 On ch=1 n=a4 v=91
30426 On ch=1 n=f3 v=49
30478 On ch=1 n=a#4 v=76
30482 On ch=1 n=a4 v=0
30530 On ch=1 n=a4 v=77
30536 On ch=1 n=a#4 v=0
30554 Par ch=1 c=64 v=63
30556 Par ch=1 c=64 v=127
30620 On ch=1 n=a4 v=0
30622 On ch=1 n=f4 v=100
30630 On ch=1 n=a#3 v=64
30650 On ch=1 n=f3 v=0
30698 On ch=1 n=f4 v=0
30714 On ch=1 n=a#3 v=0
30824 On ch=1 n=a#2 v=0
30848 On ch=1 n=a3 v=69
30884 On ch=1 n=a3 v=0
30896 On ch=1 n=f3 v=24
30956 On ch=1 n=f3 v=0
31086 On ch=1 n=a#3 v=70
31130 On ch=1 n=a#3 v=0
31320 On ch=1 n=a3 v=79
31346 On ch=1 n=f3 v=38
31368 On ch=1 n=a3 v=0
31386 On ch=1 n=f3 v=0
31548 Par ch=1 c=64 v=63
31554 Par ch=1 c=64 v=0
31570 On ch=1 n=a#2 v=63
31784 On ch=1 n=d4 v=92
31792 On ch=1 n=d#3 v=70
31800 On ch=1 n=g3 v=79
31834 On ch=1 n=d#3 v=0
31862 On ch=1 n=g3 v=0
32034 On ch=1 n=a#3 v=73
32092 On ch=1 n=a#3 v=0
32266 On ch=1 n=g3 v=74
32272 On ch=1 n=d#3 v=71
32314 On ch=1 n=d#3 v=0
32314 On ch=1 n=g3 v=0
32496 On ch=1 n=a#3 v=67
32544 On ch=1 n=a#3 v=0
32730 On ch=1 n=d#3 v=54
32744 On ch=1 n=g3 v=48
32776 On ch=1 n=d#3 v=0
32784 On ch=1 n=a#2 v=0
32796 On ch=1 n=g3 v=0
32836 On ch=1 n=d4 v=0
32978 On ch=1 n=a#3 v=67
32978 On ch=1 n=a#2 v=68
33030 On ch=1 n=a#3 v=0
33046 On ch=1 n=a#2 v=0
33226 On ch=1 n=d4 v=73
33238 On ch=1 n=f4 v=59
33266 On ch=1 n=d4 v=0
33280 On ch=1 n=f4 v=0
33432 On ch=1 n=a#3 v=78
33476 On ch=1 n=a#3 v=0
33640 On ch=1 n=f3 v=91
33686 On ch=1 n=d4 v=76
33704 On ch=1 n=f3 v=0
33722 On ch=1 n=f4 v=91
33752 On ch=1 n=d4 v=0
33780 On ch=1 n=f4 v=0
33948 On ch=1 n=a#3 v=80
34014 On ch=1 n=a#3 v=0
34186 On ch=1 n=g#4 v=85
34192 On ch=1 n=e4 v=49
34194 On ch=1 n=c#4 v=72
34196 On ch=1 n=g#3 v=77
34232 On ch=1 n=c#4 v=0
34232 On ch=1 n=e4 v=0
34234 On ch=1 n=g#3 v=0
34248 On ch=1 n=g#4 v=0
34430 On ch=1 n=a#3 v=77
34434 On ch=1 n=a#2 v=81
34460 On ch=1 n=a#3 v=0
34462 On ch=1 n=a#2 v=0
34664 On ch=1 n=d4 v=61
34668 On ch=1 n=f4 v=46
34702 On ch=1 n=d4 v=0
34716 On ch=1 n=f4 v=0
34892 On ch=1 n=a#3 v=75
34934 On ch=1 n=a#3 v=0
35130 On ch=1 n=f3 v=65
35132 On ch=1 n=d#4 v=86
35140 On ch=1 n=b3 v=69
35174 On ch=1 n=f3 v=0
35176 On ch=1 n=b3 v=0
35188 On ch=1 n=d#4 v=0
35362 On ch=1 n=g#3 v=57
35368 On ch=1 n=d4 v=71
35368 On ch=1 n=a#3 v=84
35402 On ch=1 n=g#3 v=0
35406 On ch=1 n=a#3 v=0
35412 On ch=1 n=d4 v=0
35602 On ch=1 n=c#4 v=88
35606 On ch=1 n=d#3 v=67
35612 On ch=1 n=a3 v=70
35638 On ch=1 n=d#3 v=0
35654 On ch=1 n=a3 v=0
35668 On ch=1 n=c#4 v=0
35828 On ch=1 n=a#2 v=81
35830 On ch=1 n=a#3 v=82
35880 On ch=1 n=a#2 v=0
35882 On ch=1 n=a#3 v=0
36076 On ch=1 n=d4 v=63
36082 On ch=1 n=f4 v=68
36134 On ch=1 n=f4 v=0
36138 On ch=1 n=d4 v=0
36308 On ch=1 n=a#3 v=78
36348 On ch=1 n=a#3 v=0
36482 On ch=1 n=f3 v=77
36528 On ch=1 n=f3 v=0
36530 On ch=1 n=d4 v=100
36556 On ch=1 n=f4 v=96
36594 On ch=1 n=d4 v=0
36612 On ch=1 n=f4 v=0
36772 On ch=1 n=a#3 v=79
36844 On ch=1 n=a#3 v=0
36984 On ch=1 n=g#4 v=87
37000 On ch=1 n=c#4 v=72
37000 On ch=1 n=e4 v=63
37000 On ch=1 n=g#3 v=78
37032 On ch=1 n=e4 v=0
37034 On ch=1 n=g#3 v=0
37038 On ch=1 n=c#4 v=0
37062 On ch=1 n=g#4 v=0
37224 On ch=1 n=a#3 v=81
37226 On ch=1 n=a#2 v=93
37262 On ch=1 n=a#3 v=0
37272 On ch=1 n=a#2 v=0
37460 On ch=1 n=f4 v=60
37460 On ch=1 n=d4 v=65
37500 On ch=1 n=d4 v=0
37540 On ch=1 n=f4 v=0
37690 On ch=1 n=a#3 v=73
37740 On ch=1 n=a#3 v=0
37934 On ch=1 n=d#4 v=84
37938 On ch=1 n=f3 v=63
37944 On ch=1 n=b3 v=67
37984 On ch=1 n=f3 v=0
37988 On ch=1 n=b3 v=0
38002 On ch=1 n=d#4 v=0
38146 On ch=1 n=g#3 v=70
38168 On ch=1 n=a#3 v=83
38168 On ch=1 n=d4 v=74
38200 On ch=1 n=g#3 v=0
38216 On ch=1 n=d4 v=0
38234 On ch=1 n=a#3 v=0
38400 On ch=1 n=c#4 v=67
38402 On ch=1 n=d#3 v=76
38410 On ch=1 n=a3 v=58
38436 On ch=1 n=d#3 v=0
38452 On ch=1 n=c#4 v=0
38486 On ch=1 n=a3 v=0
38648 On ch=1 n=a#2 v=76
38652 On ch=1 n=a#3 v=58
38700 On ch=1 n=a#3 v=0
38724 On ch=1 n=a#2 v=0
38906 On ch=1 n=f4 v=65
38908 On ch=1 n=d4 v=55
38952 On ch=1 n=d4 v=0
38958 On ch=1 n=f4 v=0
39138 On ch=1 n=a#3 v=68
39194 On ch=1 n=a#3 v=0
39332 On ch=1 n=f3 v=74
39362 On ch=1 n=d4 v=86
39386 On ch=1 n=f4 v=69
39392 On ch=1 n=f3 v=0
39420 On ch=1 n=d4 v=0
39424 On ch=1 n=f4 v=0
39594 On ch=1 n=a#3 v=54
39666 On ch=1 n=a#3 v=0
39808 On ch=1 n=d4 v=71
39818 On ch=1 n=f4 v=56
39878 On ch=1 n=f4 v=0
39878 On ch=1 n=d4 v=0
40036 On ch=1 n=a#3 v=72
40046 On ch=1 n=a#2 v=57
40104 On ch=1 n=a#2 v=0
40104 On ch=1 n=a#3 v=0
40282 On ch=1 n=f4 v=55
40282 On ch=1 n=d4 v=60
40338 On ch=1 n=d4 v=0
40344 On ch=1 n=f4 v=0
40518 On ch=1 n=a#3 v=63
40572 On ch=1 n=a#3 v=0
40722 On ch=1 n=f3 v=75
40746 On ch=1 n=d4 v=73
40772 On ch=1 n=f4 v=41
40778 On ch=1 n=f3 v=0
40800 On ch=1 n=d4 v=0
40816 On ch=1 n=f4 v=0
40970 On ch=1 n=a#3 v=57
41036 On ch=1 n=a#3 v=0
41220 On ch=1 n=d4 v=58
41270 On ch=1 n=d4 v=0
41424 Par ch=1 c=67 v=127
41452 On ch=1 n=a#2 v=73
41506 On ch=1 n=a#2 v=0
41680 On ch=1 n=a#3 v=79
41744 On ch=1 n=a#3 v=0
41916 On ch=1 n=a#2 v=67
41968 On ch=1 n=a#2 v=0
42158 On ch=1 n=a#3 v=78
42202 On ch=1 n=a#3 v=0
42384 On ch=1 n=a#2 v=59
42432 On ch=1 n=a#2 v=0
42610 On ch=1 n=a#3 v=70
42668 On ch=1 n=a#3 v=0
42848 On ch=1 n=a#2 v=50
42896 On ch=1 n=a#2 v=0
43076 On ch=1 n=a#3 v=61
43122 On ch=1 n=a#3 v=0
43310 On ch=1 n=a#2 v=54
43358 On ch=1 n=a#2 v=0
43538 On ch=1 n=a#3 v=53
43590 On ch=1 n=a#3 v=0
43788 On ch=1 n=a#2 v=49
43838 On ch=1 n=a#2 v=0
44032 On ch=1 n=a#3 v=58
44074 On ch=1 n=a#3 v=0
44192 Par ch=1 c=67 v=0
44310 On ch=1 n=a#1 v=127
44362 Par ch=1 c=64 v=127
44416 On ch=1 n=a#1 v=0
44622 On ch=1 n=f3 v=124
44630 On ch=1 n=f4 v=107
44660 Par ch=1 c=64 v=127
44734 On ch=1 n=a#4 v=110
44754 On ch=1 n=a#3 v=104
44760 On ch=1 n=f3 v=0
44764 On ch=1 n=f4 v=0
44818 On ch=1 n=a#4 v=0
44826 On ch=1 n=d5 v=92
44830 On ch=1 n=a#3 v=0
44836 On ch=1 n=f#4 v=92
44856 On ch=1 n=d5 v=0
44890 On ch=1 n=f#4 v=0
44922 On ch=1 n=f5 v=112
44940 On ch=1 n=a#4 v=109
45000 On ch=1 n=a#4 v=0
45008 On ch=1 n=f5 v=0
45008 On ch=1 n=a#5 v=113
45050 On ch=1 n=d#5 v=105
45084 On ch=1 n=d6 v=89
45096 On ch=1 n=a#5 v=0
45098 On ch=1 n=d#5 v=0
45126 On ch=1 n=d6 v=0
45132 Par ch=1 c=64 v=63
45148 Par ch=1 c=64 v=0
45256 Par ch=1 c=64 v=63
45264 Par ch=1 c=64 v=127
45294 On ch=1 n=a#3 v=113
45298 On ch=1 n=a#5 v=125
45298 On ch=1 n=a#6 v=120
45298 On ch=1 n=d6 v=109
45352 On ch=1 n=a#3 v=0
45358 On ch=1 n=d6 v=0
45358 On ch=1 n=a#5 v=0
45386 On ch=1 n=a#6 v=0
45592 On ch=1 n=a5 v=113
45610 On ch=1 n=f4 v=84
45612 On ch=1 n=d5 v=91
45616 On ch=1 n=a#4 v=85
45654 On ch=1 n=a#4 v=0
45654 On ch=1 n=d5 v=0
45670 On ch=1 n=a5 v=0
45680 On ch=1 n=f4 v=0
45680 On ch=1 n=d6 v=89
45694 On ch=1 n=a#6 v=107
45748 On ch=1 n=a5 v=92
45760 On ch=1 n=b5 v=86
45772 On ch=1 n=a#6 v=0
45774 On ch=1 n=d6 v=0
45792 On ch=1 n=b5 v=0
45802 On ch=1 n=a5 v=0
45832 Par ch=1 c=64 v=63
45840 Par ch=1 c=64 v=0
45844 On ch=1 n=a#3 v=109
45858 On ch=1 n=b5 v=109
45858 On ch=1 n=f#5 v=124
45860 On ch=1 n=f#6 v=113
45872 On ch=1 n=d#6 v=95
45888 On ch=1 n=a#3 v=0
45894 Par ch=1 c=64 v=63
45904 Par ch=1 c=64 v=127
46044 Par ch=1 c=64 v=63
46046 Par ch=1 c=64 v=0
46048 On ch=1 n=b4 v=88
46068 On ch=1 n=d#5 v=84
46080 On ch=1 n=f#4 v=73
46096 On ch=1 n=d#5 v=0
46110 On ch=1 n=b4 v=0
46146 On ch=1 n=f#4 v=0
46274 On ch=1 n=a#3 v=112
46332 On ch=1 n=a#3 v=0
46506 On ch=1 n=b4 v=96
46508 On ch=1 n=d#5 v=109
46516 On ch=1 n=f#4 v=86
46560 On ch=1 n=d#5 v=0
46562 On ch=1 n=b4 v=0
46602 On ch=1 n=f#4 v=0
46610 On ch=1 n=b5 v=0
46626 On ch=1 n=f#5 v=0
46642 On ch=1 n=f#6 v=0
46644 On ch=1 n=d#6 v=0
46716 On ch=1 n=a#3 v=110
46774 On ch=1 n=a#3 v=0
46960 On ch=1 n=g5 v=124
46962 On ch=1 n=g6 v=117
46962 On ch=1 n=d#6 v=118
46962 On ch=1 n=c6 v=116
46964 On ch=1 n=d#5 v=109
46968 On ch=1 n=c5 v=89
46976 Par ch=1 c=64 v=127
46978 On ch=1 n=g4 v=72
47016 On ch=1 n=d#5 v=0
47020 On ch=1 n=c5 v=0
47056 On ch=1 n=g4 v=0
47124 On ch=1 n=g5 v=0
47146 On ch=1 n=c6 v=0
47158 On ch=1 n=g6 v=0
47180 On ch=1 n=d#6 v=0
47180 On ch=1 n=a#3 v=105
47232 Par ch=1 c=64 v=63
47240 On ch=1 n=a#3 v=0
47242 Par ch=1 c=64 v=0
47344 Par ch=1 c=64 v=63
47354 Par ch=1 c=64 v=127
47408 On ch=1 n=a#5 v=127
47408 On ch=1 n=a#4 v=97
47414 On ch=1 n=d5 v=96
47414 On ch=1 n=d6 v=108
47416 On ch=1 n=f4 v=88
47420 On ch=1 n=a#6 v=108
47450 On ch=1 n=d5 v=0
47458 On ch=1 n=a#4 v=0
47490 On ch=1 n=f4 v=0
47490 On ch=1 n=a#5 v=0
47502 On ch=1 n=d6 v=0
47540 On ch=1 n=a#6 v=0
47628 On ch=1 n=a5 v=121
47638 On ch=1 n=a#3 v=84
47650 On ch=1 n=d6 v=78
47664 On ch=1 n=a#3 v=0
47680 On ch=1 n=d6 v=0
47688 On ch=1 n=a5 v=0
47714 On ch=1 n=a#6 v=101
47724 On ch=1 n=d6 v=70
47744 On ch=1 n=a#6 v=0
47756 On ch=1 n=a5 v=100
47782 Par ch=1 c=64 v=63
47782 Par ch=1 c=64 v=0
47788 On ch=1 n=d6 v=0
47814 On ch=1 n=a5 v=0
47874 On ch=1 n=b4 v=100
47874 On ch=1 n=b5 v=94
47884 On ch=1 n=d#5 v=109
47886 On ch=1 n=f#6 v=110
47886 On ch=1 n=d#6 v=110
47888 On ch=1 n=f#4 v=93
47888 On ch=1 n=f#5 v=105
47894 Par ch=1 c=64 v=63
47896 Par ch=1 c=64 v=127
47934 On ch=1 n=d#5 v=0
47946 On ch=1 n=b4 v=0
47972 On ch=1 n=f#4 v=0
48096 On ch=1 n=a#3 v=104
48158 On ch=1 n=a#3 v=0
48298 Par ch=1 c=64 v=63
48300 Par ch=1 c=64 v=0
48326 On ch=1 n=d#5 v=96
48334 On ch=1 n=b4 v=53
48346 On ch=1 n=f#4 v=68
48362 On ch=1 n=d#5 v=0
48372 On ch=1 n=b4 v=0
48410 On ch=1 n=f#4 v=0
48536 On ch=1 n=a#3 v=108
48552 Par ch=1 c=64 v=127
48588 On ch=1 n=a#3 v=0
48690 On ch=1 n=b5 v=0
48692 Par ch=1 c=64 v=63
48692 Par ch=1 c=64 v=0
48710 On ch=1 n=d#6 v=0
48714 On ch=1 n=f#5 v=0
48724 On ch=1 n=f#6 v=0
48748 On ch=1 n=b4 v=89
48750 On ch=1 n=d#5 v=101
48754 On ch=1 n=f#4 v=86
48784 On ch=1 n=d#5 v=0
48796 On ch=1 n=b4 v=0
48836 On ch=1 n=f#4 v=0
48952 On ch=1 n=a#3 v=108
48964 Par ch=1 c=64 v=127
48966 On ch=1 n=d#6 v=118
48966 On ch=1 n=c6 v=116
48968 On ch=1 n=g6 v=116
48968 On ch=1 n=g5 v=121
49008 On ch=1 n=a#3 v=0
49144 On ch=1 n=g6 v=0
49168 On ch=1 n=g5 v=0
49176 On ch=1 n=c6 v=0
49178 On ch=1 n=d#6 v=0
49200 On ch=1 n=d#5 v=108
49204 On ch=1 n=c5 v=89
49232 On ch=1 n=g4 v=62
49246 On ch=1 n=c5 v=0
49250 On ch=1 n=d#5 v=0
49288 On ch=1 n=g4 v=0
49438 On ch=1 n=a#3 v=121
49444 Par ch=1 c=64 v=63
49452 Par ch=1 c=64 v=0
49472 On ch=1 n=a#3 v=0
49594 Par ch=1 c=64 v=63
49630 Par ch=1 c=64 v=0
49670 On ch=1 n=f4 v=102
49682 On ch=1 n=a#4 v=98
49690 On ch=1 n=d5 v=80
49728 On ch=1 n=f4 v=0
49744 On ch=1 n=f5 v=94
49754 On ch=1 n=a#4 v=0
49786 On ch=1 n=a#4 v=91
49792 On ch=1 n=f4 v=97
49824 On ch=1 n=f5 v=0
49840 On ch=1 n=d5 v=0
49846 On ch=1 n=a#4 v=0
49866 On ch=1 n=f4 v=0
49882 On ch=1 n=f#4 v=110
49934 On ch=1 n=f#4 v=0
50106 On ch=1 n=d5 v=103
50108 On ch=1 n=f4 v=109
50110 On ch=1 n=f5 v=102
50110 On ch=1 n=a#4 v=103
50134 On ch=1 n=f4 v=0
50142 On ch=1 n=a#4 v=0
50150 On ch=1 n=d5 v=0
50168 On ch=1 n=f5 v=0
50322 On ch=1 n=a#3 v=119
50376 On ch=1 n=a#3 v=0
50556 On ch=1 n=d5 v=100
50560 On ch=1 n=f4 v=94
50562 On ch=1 n=f5 v=93
50568 On ch=1 n=a#4 v=80
50590 On ch=1 n=f4 v=0
50596 On ch=1 n=a#4 v=0
50610 On ch=1 n=d5 v=0
50634 On ch=1 n=f5 v=0
50780 On ch=1 n=f3 v=127
50794 Par ch=1 c=64 v=127
50858 On ch=1 n=f3 v=0
50988 Par ch=1 c=64 v=63
50990 Par ch=1 c=64 v=0
51006 On ch=1 n=c#5 v=107
51012 On ch=1 n=f#5 v=104
51012 On ch=1 n=d#4 v=108
51018 On ch=1 n=a4 v=72
51050 On ch=1 n=d#4 v=0
51052 On ch=1 n=a4 v=0
51056 On ch=1 n=c#5 v=0
51068 On ch=1 n=f#5 v=0
51256 On ch=1 n=d#5 v=113
51256 On ch=1 n=g5 v=108
51260 On ch=1 n=a4 v=83
51260 On ch=1 n=d6 v=109
51260 On ch=1 n=d5 v=102
51288 On ch=1 n=d5 v=0
51300 On ch=1 n=d6 v=0
51300 On ch=1 n=a4 v=0
51300 On ch=1 n=d#5 v=0
51310 On ch=1 n=g5 v=0
51504 On ch=1 n=a#3 v=104
51540 Par ch=1 c=64 v=63
51540 Par ch=1 c=64 v=127
51562 On ch=1 n=a#3 v=0
51766 On ch=1 n=f4 v=71
51770 On ch=1 n=d5 v=72
51780 On ch=1 n=a#4 v=67
51800 On ch=1 n=f4 v=0
51822 On ch=1 n=a#4 v=0
51840 On ch=1 n=f5 v=79
51864 On ch=1 n=a#4 v=80
51882 On ch=1 n=f4 v=93
51922 On ch=1 n=f5 v=0
51928 Par ch=1 c=64 v=63
51932 On ch=1 n=a#4 v=0
51932 Par ch=1 c=64 v=0
51936 On ch=1 n=d5 v=0
51952 On ch=1 n=f4 v=0
51964 On ch=1 n=f#4 v=113
52018 On ch=1 n=f#4 v=0
52196 On ch=1 n=f4 v=100
52210 On ch=1 n=a#4 v=98
52230 On ch=1 n=d5 v=87
52248 On ch=1 n=f5 v=107
52264 On ch=1 n=f4 v=0
52296 On ch=1 n=a#4 v=0
52302 On ch=1 n=d5 v=0
52330 On ch=1 n=f5 v=0
52432 On ch=1 n=a#3 v=97
52490 On ch=1 n=a#3 v=0
52650 On ch=1 n=f5 v=106
52650 On ch=1 n=f4 v=111
52652 On ch=1 n=d5 v=108
52656 On ch=1 n=a#4 v=98
52674 On ch=1 n=f4 v=0
52680 On ch=1 n=a#4 v=0
52690 On ch=1 n=d5 v=0
52708 On ch=1 n=f5 v=0
52872 On ch=1 n=f3 v=114
52914 Par ch=1 c=64 v=127
52928 On ch=1 n=f3 v=0
53086 On ch=1 n=c#5 v=110
53086 Par ch=1 c=64 v=63
53090 On ch=1 n=f#5 v=108
53090 Par ch=1 c=64 v=0
53096 On ch=1 n=d#4 v=106
53100 On ch=1 n=a4 v=81
53132 On ch=1 n=a4 v=0
53132 On ch=1 n=c#5 v=0
53138 On ch=1 n=d#4 v=0
53142 On ch=1 n=f#5 v=0
53358 On ch=1 n=g5 v=117
53358 On ch=1 n=a4 v=86
53362 On ch=1 n=d#5 v=106
53362 On ch=1 n=d6 v=107
53366 On ch=1 n=d5 v=104
53376 Par ch=1 c=64 v=127
53388 On ch=1 n=d6 v=0
53388 On ch=1 n=d#5 v=0
53390 On ch=1 n=d5 v=0
53396 On ch=1 n=a4 v=0
53410 On ch=1 n=g5 v=0
53476 Par ch=1 c=64 v=63
53482 Par ch=1 c=64 v=0
53566 Par ch=1 c=64 v=63
53570 Par ch=1 c=64 v=127
53582 On ch=1 n=a#3 v=113
53636 On ch=1 n=a#3 v=0
53840 On ch=1 n=f4 v=101
53852 On ch=1 n=a#4 v=92
53892 On ch=1 n=f4 v=0
53902 On ch=1 n=d5 v=10
53944 On ch=1 n=f5 v=59
53970 On ch=1 n=f4 v=94
54020 Par ch=1 c=64 v=63
54024 Par ch=1 c=64 v=0
54032 On ch=1 n=d5 v=0
54032 On ch=1 n=a#4 v=0
54034 On ch=1 n=f5 v=0
54046 On ch=1 n=f4 v=0
54070 On ch=1 n=f#4 v=114
54124 On ch=1 n=f#4 v=0
54300 On ch=1 n=f4 v=104
54308 On ch=1 n=a#4 v=103
54324 On ch=1 n=d5 v=65
54350 On ch=1 n=f4 v=0
54380 On ch=1 n=f5 v=81
54398 On ch=1 n=a#4 v=0
54428 On ch=1 n=a#4 v=58
54432 On ch=1 n=d5 v=0
54434 On ch=1 n=f4 v=93
54460 On ch=1 n=f5 v=0
54480 On ch=1 n=a#4 v=0
54502 On ch=1 n=f4 v=0
54518 On ch=1 n=a#3 v=114
54570 On ch=1 n=a#3 v=0
54754 On ch=1 n=d5 v=107
54754 On ch=1 n=a#4 v=108
54756 On ch=1 n=f4 v=111
54762 On ch=1 n=f5 v=82
54776 On ch=1 n=f4 v=0
54786 On ch=1 n=a#4 v=0
54790 On ch=1 n=d5 v=0
54794 On ch=1 n=f5 v=0
54980 On ch=1 n=a3 v=117
55002 Par ch=1 c=64 v=63
55004 Par ch=1 c=64 v=127
55022 On ch=1 n=a3 v=0
55206 On ch=1 n=a#4 v=110
55206 On ch=1 n=f4 v=102
55220 On ch=1 n=d5 v=83
55252 On ch=1 n=f4 v=0
55290 On ch=1 n=a#4 v=0
55308 On ch=1 n=f5 v=75
55328 On ch=1 n=a#4 v=94
55338 On ch=1 n=f4 v=100
55382 On ch=1 n=f5 v=0
55390 On ch=1 n=d5 v=0
55398 On ch=1 n=a#4 v=0
55414 Par ch=1 c=64 v=63
55416 On ch=1 n=f4 v=0
55420 Par ch=1 c=64 v=0
55432 On ch=1 n=f#4 v=115
55492 On ch=1 n=f#4 v=0
55650 On ch=1 n=f4 v=91
55662 On ch=1 n=a#4 v=99
55688 On ch=1 n=d5 v=76
55704 On ch=1 n=f4 v=0
55712 On ch=1 n=f5 v=101
55768 On ch=1 n=f4 v=78
55804 On ch=1 n=f5 v=0
55804 On ch=1 n=d5 v=0
55822 On ch=1 n=a#4 v=0
55848 On ch=1 n=f4 v=0
55876 On ch=1 n=a3 v=108
55918 On ch=1 n=a3 v=0
56118 On ch=1 n=f4 v=103
56132 On ch=1 n=a#4 v=110
56146 On ch=1 n=d5 v=91
56164 On ch=1 n=f5 v=98
56168 On ch=1 n=f4 v=0
56184 On ch=1 n=a#4 v=0
56196 On ch=1 n=d5 v=0
56216 On ch=1 n=f5 v=0
56386 On ch=1 n=g#4 v=124
56386 On ch=1 n=g#3 v=116
56404 Par ch=1 c=64 v=63
56404 Par ch=1 c=64 v=127
56440 On ch=1 n=g#4 v=0
56446 On ch=1 n=g#3 v=0
56494 On ch=1 n=c5 v=112
56494 On ch=1 n=a4 v=98
56496 On ch=1 n=f5 v=101
56544 On ch=1 n=c5 v=0
56554 On ch=1 n=f5 v=0
56554 On ch=1 n=a4 v=0
56634 On ch=1 n=g#4 v=114
56634 On ch=1 n=g#3 v=112
56662 On ch=1 n=g#4 v=0
56696 On ch=1 n=g#3 v=0
56750 On ch=1 n=f#4 v=106
56752 On ch=1 n=a4 v=83
56756 On ch=1 n=c5 v=101
56812 On ch=1 n=a4 v=0
56828 On ch=1 n=f#4 v=0
56834 On ch=1 n=c5 v=0
56896 On ch=1 n=f4 v=112
56902 On ch=1 n=f3 v=112
56946 On ch=1 n=f4 v=0
56962 On ch=1 n=f3 v=0
57030 On ch=1 n=f#4 v=112
57032 On ch=1 n=d#4 v=114
57034 On ch=1 n=a4 v=100
57124 On ch=1 n=d#4 v=0
57130 On ch=1 n=f#4 v=0
57160 Par ch=1 c=64 v=63
57172 On ch=1 n=a4 v=0
57172 Par ch=1 c=64 v=0
57216 On ch=1 n=c#4 v=127
57218 On ch=1 n=c#3 v=123
57260 Par ch=1 c=64 v=63
57268 Par ch=1 c=64 v=127
57384 On ch=1 n=c#3 v=0
57422 On ch=1 n=c#4 v=0
57534 On ch=1 n=c#5 v=114
57534 On ch=1 n=f5 v=106
57538 On ch=1 n=c#6 v=123
57540 On ch=1 n=f6 v=113
57540 On ch=1 n=g#4 v=108
57540 On ch=1 n=c#7 v=121
57570 Par ch=1 c=64 v=127
57578 On ch=1 n=c#5 v=0
57580 On ch=1 n=f5 v=0
57610 On ch=1 n=g#4 v=0
57632 On ch=1 n=f6 v=0
57636 On ch=1 n=c#6 v=0
57718 On ch=1 n=c#7 v=0
57844 On ch=1 n=c#4 v=110
57852 On ch=1 n=c6 v=117
57900 On ch=1 n=c#4 v=0
57926 On ch=1 n=c6 v=0
57946 On ch=1 n=c#7 v=106
57978 On ch=1 n=f6 v=23
58014 On ch=1 n=c6 v=90
58030 On ch=1 n=f6 v=0
58034 On ch=1 n=c#7 v=0
58070 On ch=1 n=c6 v=0
58154 Par ch=1 c=64 v=63
58156 Par ch=1 c=64 v=0
58162 On ch=1 n=a6 v=113
58164 On ch=1 n=f#5 v=120
58164 On ch=1 n=d6 v=111
58166 On ch=1 n=a5 v=117
58166 On ch=1 n=d5 v=103
58170 On ch=1 n=f#6 v=101
58174 On ch=1 n=a4 v=87
58232 On ch=1 n=d5 v=0
58236 Par ch=1 c=64 v=63
58240 On ch=1 n=f#5 v=0
58242 Par ch=1 c=64 v=127
58284 On ch=1 n=a4 v=0
58414 On ch=1 n=c#4 v=112
58476 On ch=1 n=c#4 v=0
58656 On ch=1 n=f#5 v=108
58666 On ch=1 n=d5 v=86
58672 On ch=1 n=a4 v=73
58696 On ch=1 n=d5 v=0
58706 On ch=1 n=f#5 v=0
58740 On ch=1 n=a4 v=0
58876 On ch=1 n=c#4 v=114
58894 On ch=1 n=a6 v=0
58916 On ch=1 n=a5 v=0
58930 On ch=1 n=d6 v=0
58934 On ch=1 n=c#4 v=0
58938 On ch=1 n=f#6 v=0
59120 On ch=1 n=a#5 v=124
59122 On ch=1 n=a#6 v=116
59122 On ch=1 n=d#6 v=114
59124 On ch=1 n=f#6 v=106
59128 Par ch=1 c=64 v=63
59128 On ch=1 n=f#5 v=112
59132 Par ch=1 c=64 v=0
59136 On ch=1 n=d#5 v=99
59138 On ch=1 n=a#4 v=94
59196 On ch=1 n=d#5 v=0
59200 On ch=1 n=f#5 v=0
59210 Par ch=1 c=64 v=63
59218 Par ch=1 c=64 v=127
59232 On ch=1 n=a#4 v=0
59360 On ch=1 n=c#4 v=113
59364 On ch=1 n=a#5 v=0
59372 On ch=1 n=d#6 v=0
59382 On ch=1 n=a#6 v=0
59388 On ch=1 n=f#6 v=0
59428 On ch=1 n=c#4 v=0
59478 Par ch=1 c=64 v=63
59484 Par ch=1 c=64 v=0
59606 On ch=1 n=c#6 v=121
59608 On ch=1 n=c#5 v=104
59608 Par ch=1 c=64 v=63
59610 On ch=1 n=f5 v=94
59610 On ch=1 n=g#4 v=103
59610 On ch=1 n=f6 v=108
59612 On ch=1 n=c#7 v=116
59618 Par ch=1 c=64 v=127
59640 On ch=1 n=f5 v=0
59648 On ch=1 n=c#5 v=0
59674 On ch=1 n=g#4 v=0
59698 On ch=1 n=f6 v=0
59698 On ch=1 n=c#6 v=0
59752 On ch=1 n=c#7 v=0
59838 On ch=1 n=c#4 v=105
59846 On ch=1 n=c6 v=111
59894 On ch=1 n=c#4 v=0
59914 On ch=1 n=c6 v=0
59938 On ch=1 n=c#7 v=90
59952 On ch=1 n=f6 v=46
59972 On ch=1 n=c#7 v=0
59978 On ch=1 n=c7 v=37
59992 On ch=1 n=c6 v=84
60016 On ch=1 n=c7 v=0
60024 On ch=1 n=f6 v=0
60048 On ch=1 n=c6 v=0
60118 Par ch=1 c=64 v=63
60120 Par ch=1 c=64 v=0
60122 On ch=1 n=d6 v=113
60124 On ch=1 n=a6 v=116
60124 On ch=1 n=a5 v=121
60126 On ch=1 n=f#6 v=103
60130 On ch=1 n=f#5 v=109
60132 On ch=1 n=a4 v=82
60132 On ch=1 n=d5 v=98
60144 On ch=1 n=b5 v=69
60182 On ch=1 n=b5 v=0
60182 On ch=1 n=f#5 v=0
60188 On ch=1 n=d5 v=0
60204 Par ch=1 c=64 v=63
60210 Par ch=1 c=64 v=127
60224 On ch=1 n=a4 v=0
60362 On ch=1 n=c#4 v=108
60426 On ch=1 n=c#4 v=0
60594 On ch=1 n=f#5 v=108
60604 On ch=1 n=d5 v=87
60612 On ch=1 n=a4 v=79
60636 On ch=1 n=d5 v=0
60644 On ch=1 n=f#5 v=0
60682 On ch=1 n=a4 v=0
60812 On ch=1 n=c#4 v=113
60874 On ch=1 n=c#4 v=0
60954 On ch=1 n=a6 v=0
60970 On ch=1 n=a5 v=0
60996 On ch=1 n=d6 v=0
61016 On ch=1 n=f#6 v=0
61058 On ch=1 n=f#5 v=105
61060 On ch=1 n=d5 v=88
61078 On ch=1 n=a4 v=67
61110 On ch=1 n=f#5 v=0
61120 On ch=1 n=d5 v=0
61146 On ch=1 n=a4 v=0
61274 Par ch=1 c=64 v=63
61282 Par ch=1 c=64 v=0
61294 On ch=1 n=c#4 v=114
61300 On ch=1 n=a#6 v=118
61300 On ch=1 n=a#5 v=127
61302 On ch=1 n=d#6 v=119
61304 On ch=1 n=f#6 v=108
61346 Par ch=1 c=64 v=63
61352 On ch=1 n=c#4 v=0
61354 Par ch=1 c=64 v=127
61490 On ch=1 n=a#6 v=0
61498 On ch=1 n=a#5 v=0
61504 On ch=1 n=d#6 v=0
61506 On ch=1 n=f#6 v=0
61544 On ch=1 n=f#5 v=98
61554 On ch=1 n=d#5 v=86
61556 On ch=1 n=a#4 v=88
61576 On ch=1 n=d#5 v=0
61576 On ch=1 n=f#5 v=0
61606 On ch=1 n=a#4 v=0
61782 On ch=1 n=c#4 v=110
61810 Par ch=1 c=64 v=63
61828 Par ch=1 c=64 v=0
61850 On ch=1 n=c#4 v=0
62054 On ch=1 n=f5 v=74
62056 On ch=1 n=g#4 v=67
62060 On ch=1 n=c#5 v=81
62096 On ch=1 n=g#4 v=0
62132 On ch=1 n=c#5 v=0
62138 On ch=1 n=g#5 v=88
62152 On ch=1 n=f5 v=0
62186 On ch=1 n=c#5 v=75
62186 On ch=1 n=g#4 v=94
62238 On ch=1 n=c#5 v=0
62252 On ch=1 n=a4 v=97
62258 On ch=1 n=g#4 v=0
62258 On ch=1 n=g#5 v=0
62312 On ch=1 n=a4 v=0
62486 On ch=1 n=g#4 v=96
62488 On ch=1 n=f5 v=78
62492 On ch=1 n=c#5 v=93
62494 On ch=1 n=g#5 v=86
62518 On ch=1 n=g#4 v=0
62524 On ch=1 n=c#5 v=0
62532 On ch=1 n=f5 v=0
62562 On ch=1 n=g#5 v=0
62730 On ch=1 n=c#4 v=107
62768 On ch=1 n=c#4 v=0
62976 On ch=1 n=g#4 v=109
62982 On ch=1 n=g#5 v=99
62984 On ch=1 n=f5 v=81
62988 On ch=1 n=c#5 v=83
62998 On ch=1 n=g#4 v=0
63014 On ch=1 n=c#5 v=0
63030 On ch=1 n=f5 v=0
63054 On ch=1 n=g#5 v=0
63224 On ch=1 n=g#3 v=113
63246 Par ch=1 c=64 v=127
63266 On ch=1 n=g#3 v=0
63448 On ch=1 n=a5 v=99
63450 On ch=1 n=f5 v=96
63454 On ch=1 n=c#5 v=89
63458 On ch=1 n=g4 v=63
63460 Par ch=1 c=64 v=63
63460 Par ch=1 c=64 v=0
63480 On ch=1 n=c#5 v=0
63500 On ch=1 n=g4 v=0
63502 On ch=1 n=f5 v=0
63502 On ch=1 n=a5 v=0
63702 On ch=1 n=f5 v=103
63704 On ch=1 n=c5 v=99
63706 On ch=1 n=a#5 v=118
63708 On ch=1 n=f#5 v=100
63720 On ch=1 n=f6 v=99
63740 On ch=1 n=f#5 v=0
63740 Par ch=1 c=64 v=127
63746 On ch=1 n=c5 v=0
63746 On ch=1 n=f5 v=0
63750 On ch=1 n=a#5 v=0
63754 On ch=1 n=f6 v=0
63850 Par ch=1 c=64 v=63
63856 Par ch=1 c=64 v=0
63950 On ch=1 n=c#4 v=99
63964 Par ch=1 c=64 v=63
63966 Par ch=1 c=64 v=127
64024 On ch=1 n=c#4 v=0
64200 On ch=1 n=g#4 v=88
64232 On ch=1 n=c#5 v=77
64236 On ch=1 n=f5 v=68
64272 On ch=1 n=g#4 v=0
64298 On ch=1 n=g#5 v=94
64310 On ch=1 n=c#5 v=0
64332 On ch=1 n=f5 v=0
64334 On ch=1 n=g#4 v=95
64346 On ch=1 n=c#5 v=57
64376 On ch=1 n=c#5 v=0
64388 On ch=1 n=g#5 v=0
64392 Par ch=1 c=64 v=63
64396 Par ch=1 c=64 v=0
64398 On ch=1 n=g#4 v=0
64426 On ch=1 n=a4 v=104
64480 On ch=1 n=a4 v=0
64668 On ch=1 n=g#4 v=105
64672 On ch=1 n=g#5 v=90
64676 On ch=1 n=f5 v=70
64678 On ch=1 n=c#5 v=88
64698 On ch=1 n=g#4 v=0
64706 On ch=1 n=c#5 v=0
64712 On ch=1 n=f5 v=0
64740 On ch=1 n=g#5 v=0
64900 On ch=1 n=c#4 v=107
64950 On ch=1 n=c#4 v=0
65126 On ch=1 n=g#4 v=109
65136 On ch=1 n=g#5 v=86
65140 On ch=1 n=f5 v=72
65142 On ch=1 n=c#5 v=82
65164 On ch=1 n=g#4 v=0
65172 On ch=1 n=c#5 v=0
65184 On ch=1 n=f5 v=0
65220 On ch=1 n=g#5 v=0
65382 On ch=1 n=g#3 v=113
65386 Par ch=1 c=64 v=127
65424 On ch=1 n=g#3 v=0
65594 Par ch=1 c=64 v=63
65596 Par ch=1 c=64 v=0
65604 On ch=1 n=a5 v=98
65610 On ch=1 n=g4 v=85
65612 On ch=1 n=f5 v=84
65618 On ch=1 n=c#5 v=97
65644 On ch=1 n=f5 v=0
65658 On ch=1 n=c#5 v=0
65660 On ch=1 n=a5 v=0
65664 On ch=1 n=g4 v=0
65870 On ch=1 n=f5 v=104
65870 On ch=1 n=a#5 v=114
65870 On ch=1 n=f6 v=112
65872 On ch=1 n=c5 v=96
65874 On ch=1 n=f#5 v=104
65900 On ch=1 n=f#5 v=0
65900 On ch=1 n=c5 v=0
65902 On ch=1 n=f5 v=0
65906 Par ch=1 c=64 v=127
65918 On ch=1 n=a#5 v=0
65920 On ch=1 n=f6 v=0
66006 Par ch=1 c=64 v=63
66010 Par ch=1 c=64 v=0
66106 On ch=1 n=c#4 v=101
66124 Par ch=1 c=64 v=63
66124 Par ch=1 c=64 v=127
66170 On ch=1 n=c#4 v=0
66360 On ch=1 n=g#4 v=107
66372 On ch=1 n=c#5 v=94
66378 On ch=1 n=f5 v=69
66404 On ch=1 n=g#4 v=0
66412 On ch=1 n=c#5 v=0
66444 On ch=1 n=g#5 v=94
66490 On ch=1 n=c#5 v=89
66494 On ch=1 n=g#4 v=92
66542 Par ch=1 c=64 v=63
66544 On ch=1 n=f5 v=0
66544 Par ch=1 c=64 v=0
66552 On ch=1 n=c#5 v=0
66556 On ch=1 n=g#4 v=0
66556 On ch=1 n=g#5 v=0
66592 On ch=1 n=a4 v=103
66648 On ch=1 n=a4 v=0
66846 On ch=1 n=g#4 v=106
66862 On ch=1 n=c#5 v=92
66888 On ch=1 n=f5 v=35
66898 On ch=1 n=g#4 v=0
66924 On ch=1 n=g#5 v=80
66926 On ch=1 n=c#5 v=0
66976 On ch=1 n=g#4 v=101
66978 On ch=1 n=c#5 v=83
67028 On ch=1 n=f5 v=0
67032 On ch=1 n=c#5 v=0
67032 On ch=1 n=g#4 v=0
67062 On ch=1 n=g#5 v=0
67082 On ch=1 n=g#4 v=107
67090 On ch=1 n=c#4 v=103
67120 On ch=1 n=c#4 v=0
67128 On ch=1 n=g#4 v=0
67322 On ch=1 n=a#4 v=114
67324 On ch=1 n=d#4 v=115
67374 On ch=1 n=a#4 v=0
67390 On ch=1 n=d#4 v=0
67568 On ch=1 n=b4 v=111
67570 On ch=1 n=e4 v=111
67612 Par ch=1 c=64 v=63
67612 Par ch=1 c=64 v=127
67614 On ch=1 n=e4 v=0
67614 On ch=1 n=b4 v=0
67820 On ch=1 n=b4 v=100
67832 On ch=1 n=d5 v=87
67836 On ch=1 n=c#5 v=67
67850 On ch=1 n=b4 v=0
67866 On ch=1 n=c#5 v=0
67878 On ch=1 n=d5 v=0
67904 On ch=1 n=b5 v=64
67962 On ch=1 n=b4 v=94
67964 On ch=1 n=d5 v=85
68002 On ch=1 n=b5 v=0
68014 On ch=1 n=d5 v=0
68020 On ch=1 n=b4 v=0
68030 Par ch=1 c=64 v=63
68032 Par ch=1 c=64 v=0
68034 On ch=1 n=c#5 v=112
68084 On ch=1 n=c#5 v=0
68284 On ch=1 n=b4 v=100
68286 On ch=1 n=d5 v=106
68310 On ch=1 n=g#5 v=68
68328 On ch=1 n=b4 v=0
68346 On ch=1 n=d5 v=0
68376 On ch=1 n=b5 v=57
68414 On ch=1 n=b4 v=96
68416 On ch=1 n=d5 v=98
68450 On ch=1 n=d5 v=0
68456 On ch=1 n=b5 v=0
68464 On ch=1 n=g#5 v=0
68466 On ch=1 n=b4 v=0
68506 On ch=1 n=b4 v=106
68514 On ch=1 n=e4 v=102
68564 On ch=1 n=b4 v=0
68566 On ch=1 n=e4 v=0
68772 On ch=1 n=c#5 v=106
68780 On ch=1 n=f#4 v=98
68808 On ch=1 n=c#5 v=0
68830 On ch=1 n=f#4 v=0
69022 Par ch=1 c=67 v=127
69024 On ch=1 n=g#4 v=56
69256 Par ch=1 c=64 v=63
69258 Par ch=1 c=64 v=127
69286 On ch=1 n=d#5 v=81
69292 On ch=1 n=g#5 v=93
69294 On ch=1 n=g#4 v=0
69330 On ch=1 n=d#5 v=0
69338 On ch=1 n=g#5 v=0
69372 On ch=1 n=g#5 v=101
69428 On ch=1 n=g#5 v=0
69466 On ch=1 n=g#5 v=89
69522 On ch=1 n=g#5 v=0
69538 On ch=1 n=d#6 v=89
69548 On ch=1 n=c6 v=67
69582 On ch=1 n=d#6 v=0
69586 On ch=1 n=c6 v=0
69774 Par ch=1 c=64 v=63
69780 Par ch=1 c=64 v=0
69790 On ch=1 n=d#5 v=81
69794 On ch=1 n=g#5 v=99
69826 On ch=1 n=g#5 v=0
69848 On ch=1 n=d#5 v=0
69868 On ch=1 n=g#5 v=101
69922 On ch=1 n=g#5 v=0
69956 On ch=1 n=g#5 v=95
70010 On ch=1 n=g#5 v=0
70014 On ch=1 n=g#4 v=72
70050 On ch=1 n=g#5 v=97
70076 On ch=1 n=g#5 v=0
70088 On ch=1 n=g#4 v=0
70118 On ch=1 n=g#5 v=100
70170 On ch=1 n=g#5 v=0
70202 On ch=1 n=g#5 v=99
70238 On ch=1 n=g#5 v=0
70250 On ch=1 n=d#5 v=92
70276 On ch=1 n=g#5 v=100
70300 On ch=1 n=g#5 v=0
70306 On ch=1 n=d#5 v=0
70346 On ch=1 n=g#5 v=93
70410 On ch=1 n=g#5 v=0
70432 On ch=1 n=g#5 v=95
70494 On ch=1 n=g#5 v=0
70504 On ch=1 n=c#5 v=94
70508 Par ch=1 c=64 v=127
70570 On ch=1 n=c#5 v=0
70708 On ch=1 n=g#5 v=82
70722 On ch=1 n=g5 v=63
70728 On ch=1 n=a5 v=84
70762 On ch=1 n=b5 v=90
70776 On ch=1 n=g#5 v=0
70780 On ch=1 n=a5 v=0
70782 On ch=1 n=g5 v=0
70806 On ch=1 n=c#6 v=98
70844 On ch=1 n=b5 v=0
70864 On ch=1 n=d#6 v=88
70882 On ch=1 n=c#6 v=0
70902 On ch=1 n=d#6 v=0
70942 On ch=1 n=e6 v=85
70980 On ch=1 n=d#6 v=90
71006 On ch=1 n=f#6 v=93
71014 On ch=1 n=e6 v=0
71024 On ch=1 n=g#6 v=93
71052 On ch=1 n=d#6 v=0
71110 On ch=1 n=f#6 v=0
71112 On ch=1 n=a6 v=93
71136 On ch=1 n=g#6 v=0
71176 On ch=1 n=g#6 v=70
71204 On ch=1 n=a6 v=0
71228 On ch=1 n=f#6 v=93
71238 On ch=1 n=g#5 v=79
71254 On ch=1 n=g#6 v=0
71288 On ch=1 n=e6 v=71
71294 On ch=1 n=f#6 v=0
71312 On ch=1 n=g#5 v=0
71322 Par ch=1 c=64 v=63
71360 On ch=1 n=e6 v=0
71372 On ch=1 n=d#6 v=95
71400 Par ch=1 c=64 v=127
71424 On ch=1 n=c#5 v=76
71426 On ch=1 n=c#6 v=90
71446 On ch=1 n=d#6 v=0
71482 On ch=1 n=b5 v=98
71490 On ch=1 n=c#5 v=0
71494 On ch=1 n=c#6 v=0
71518 Par ch=1 c=64 v=63
71526 Par ch=1 c=64 v=0
71552 On ch=1 n=b5 v=0
71562 On ch=1 n=a5 v=54
71566 On ch=1 n=g5 v=54
71616 On ch=1 n=b5 v=88
71632 On ch=1 n=g5 v=0
71646 On ch=1 n=a5 v=0
71652 On ch=1 n=c#6 v=103
71694 On ch=1 n=b5 v=0
71720 On ch=1 n=g#5 v=86
71724 On ch=1 n=e6 v=69
71734 On ch=1 n=c#6 v=0
71760 On ch=1 n=d#6 v=58
71774 On ch=1 n=g#5 v=0
71828 On ch=1 n=e6 v=0
71828 On ch=1 n=c#6 v=92
71868 On ch=1 n=d#6 v=0
71886 On ch=1 n=b5 v=97
71928 On ch=1 n=c#6 v=0
71950 On ch=1 n=a5 v=86
71962 On ch=1 n=b5 v=0
72006 On ch=1 n=g#4 v=99
72010 On ch=1 n=a5 v=0
72022 Par ch=1 c=64 v=127
72092 On ch=1 n=g#4 v=0
72236 On ch=1 n=g#5 v=108
72240 On ch=1 n=d#5 v=93
72260 On ch=1 n=g#5 v=0
72286 On ch=1 n=d#5 v=0
72290 On ch=1 n=g#5 v=112
72348 On ch=1 n=g#5 v=0
72354 Par ch=1 c=67 v=0
72368 On ch=1 n=g#5 v=101
72426 On ch=1 n=g#5 v=0
72434 Par ch=1 c=67 v=127
72462 On ch=1 n=c6 v=89
72478 On ch=1 n=d#6 v=90
72516 On ch=1 n=d#6 v=0
72528 On ch=1 n=c6 v=0
72710 On ch=1 n=g#5 v=104
72718 Par ch=1 c=64 v=63
72722 Par ch=1 c=64 v=0
72734 On ch=1 n=d#5 v=85
72756 On ch=1 n=g#5 v=0
72774 On ch=1 n=d#5 v=0
72790 On ch=1 n=g#5 v=108
72838 On ch=1 n=g#5 v=0
72872 On ch=1 n=g#5 v=97
72918 On ch=1 n=g#5 v=0
72948 On ch=1 n=g#4 v=76
72956 On ch=1 n=g#5 v=93
73002 On ch=1 n=g#5 v=0
73022 On ch=1 n=g#4 v=0
73038 On ch=1 n=g#5 v=104
73096 On ch=1 n=g#5 v=0
73126 On ch=1 n=g#5 v=96
73168 On ch=1 n=g#5 v=0
73174 On ch=1 n=d#5 v=95
73202 On ch=1 n=g#5 v=96
73228 On ch=1 n=d#5 v=0
73246 On ch=1 n=g#5 v=0
73278 On ch=1 n=g#5 v=106
73328 On ch=1 n=g#5 v=0
73356 On ch=1 n=g#5 v=104
73408 On ch=1 n=c#5 v=93
73408 Par ch=1 c=64 v=127
73412 On ch=1 n=g#5 v=0
73480 On ch=1 n=c#5 v=0
73614 On ch=1 n=g#5 v=74
73638 On ch=1 n=g5 v=63
73644 On ch=1 n=a5 v=67
73656 On ch=1 n=g#5 v=0
73674 On ch=1 n=b5 v=92
73684 On ch=1 n=a5 v=0
73698 On ch=1 n=g5 v=0
73714 On ch=1 n=c#6 v=104
73752 On ch=1 n=b5 v=0
73786 On ch=1 n=c#6 v=0
73830 On ch=1 n=e6 v=93
73870 On ch=1 n=d#6 v=88
73898 On ch=1 n=f#6 v=92
73900 On ch=1 n=e6 v=0
73924 On ch=1 n=g#6 v=99
73938 On ch=1 n=d#6 v=0
73962 On ch=1 n=f#6 v=0
73992 On ch=1 n=a6 v=93
74008 On ch=1 n=g#6 v=0
74054 On ch=1 n=g#6 v=78
74068 Par ch=1 c=64 v=63
74078 Par ch=1 c=64 v=0
74086 On ch=1 n=a6 v=0
74102 On ch=1 n=f#6 v=99
74128 On ch=1 n=g#6 v=0
74132 On ch=1 n=g#5 v=88
74154 On ch=1 n=e6 v=68
74164 On ch=1 n=f#6 v=0
74202 On ch=1 n=g#5 v=0
74232 On ch=1 n=e6 v=0
74232 On ch=1 n=d#6 v=97
74286 On ch=1 n=c#6 v=93
74308 On ch=1 n=d#6 v=0
74344 On ch=1 n=c#5 v=85
74350 On ch=1 n=b5 v=93
74362 On ch=1 n=c#6 v=0
74406 Par ch=1 c=64 v=127
74410 On ch=1 n=a5 v=71
74412 On ch=1 n=g5 v=72
74414 On ch=1 n=b5 v=0
74426 On ch=1 n=c#5 v=0
74476 On ch=1 n=b5 v=77
74508 On ch=1 n=g5 v=0
74512 On ch=1 n=a5 v=0
74514 On ch=1 n=c#6 v=97
74562 On ch=1 n=b5 v=0
74608 On ch=1 n=d#6 v=46
74612 On ch=1 n=c#6 v=0
74612 On ch=1 n=e6 v=89
74634 Par ch=1 c=64 v=63
74640 Par ch=1 c=64 v=0
74644 On ch=1 n=g#5 v=87
74694 On ch=1 n=g#5 v=0
74712 On ch=1 n=c#6 v=90
74714 On ch=1 n=e6 v=0
74762 On ch=1 n=d#6 v=0
74780 On ch=1 n=b5 v=94
74826 On ch=1 n=c#6 v=0
74840 On ch=1 n=a5 v=78
74852 On ch=1 n=b5 v=0
74878 Par ch=1 c=64 v=127
74880 On ch=1 n=g#4 v=88
74890 On ch=1 n=a5 v=0
74952 On ch=1 n=g#4 v=0
75116 On ch=1 n=g#5 v=103
75120 On ch=1 n=d#5 v=97
75140 On ch=1 n=g#5 v=0
75168 On ch=1 n=g#5 v=115
75170 On ch=1 n=d#5 v=0
75228 On ch=1 n=g#5 v=0
75256 On ch=1 n=g#5 v=110
75302 On ch=1 n=g#5 v=0
75344 On ch=1 n=c6 v=96
75348 On ch=1 n=d#6 v=101
75394 On ch=1 n=d#6 v=0
75404 On ch=1 n=c6 v=0
75600 On ch=1 n=g#5 v=108
75618 On ch=1 n=d#5 v=77
75622 Par ch=1 c=64 v=63
75626 Par ch=1 c=64 v=0
75646 On ch=1 n=g#5 v=0
75660 On ch=1 n=d#5 v=0
75676 On ch=1 n=g#5 v=113
75724 On ch=1 n=g#5 v=0
75756 On ch=1 n=g#5 v=103
75810 On ch=1 n=g#5 v=0
75836 On ch=1 n=g#4 v=71
75846 On ch=1 n=g#5 v=95
75890 On ch=1 n=g#5 v=0
75900 On ch=1 n=g#4 v=0
75920 On ch=1 n=g#5 v=112
75974 On ch=1 n=g#5 v=0
76006 On ch=1 n=g#5 v=96
76052 On ch=1 n=d#5 v=95
76114 On ch=1 n=d#5 v=0
76116 On ch=1 n=g#5 v=0
76148 On ch=1 n=g#5 v=107
76202 On ch=1 n=g#5 v=0
76218 On ch=1 n=g#5 v=91
76268 On ch=1 n=g#5 v=0
76296 On ch=1 n=g#4 v=110
76318 Par ch=1 c=64 v=127
76404 On ch=1 n=g#4 v=0
76524 On ch=1 n=g#5 v=105
76526 On ch=1 n=d#5 v=95
76562 On ch=1 n=g#5 v=0
76574 On ch=1 n=d#5 v=0
76588 On ch=1 n=g#5 v=107
76640 On ch=1 n=g#5 v=0
76640 Par ch=1 c=67 v=0
76660 On ch=1 n=g#5 v=108
76714 On ch=1 n=g#5 v=0
76756 On ch=1 n=c6 v=98
76772 On ch=1 n=d#6 v=78
76800 On ch=1 n=d#6 v=0
76808 On ch=1 n=c6 v=0
76996 On ch=1 n=g#5 v=104
77010 Par ch=1 c=64 v=63
77012 On ch=1 n=d#5 v=87
77016 Par ch=1 c=64 v=0
77038 On ch=1 n=g#5 v=0
77044 On ch=1 n=d#5 v=0
77068 On ch=1 n=g#5 v=113
77128 On ch=1 n=g#5 v=0
77156 On ch=1 n=g#5 v=97
77190 On ch=1 n=g#5 v=0
77216 On ch=1 n=g#4 v=86
77232 On ch=1 n=g#5 v=92
77268 On ch=1 n=g#4 v=0
77276 On ch=1 n=g#5 v=0
77310 On ch=1 n=g#5 v=108
77368 On ch=1 n=g#5 v=0
77396 On ch=1 n=g#5 v=100
77446 On ch=1 n=g#5 v=0
77456 On ch=1 n=d#5 v=108
77468 On ch=1 n=g#5 v=88
77510 On ch=1 n=g#5 v=0
77512 On ch=1 n=d#5 v=0
77542 On ch=1 n=g#5 v=112
77600 On ch=1 n=g#5 v=0
77632 On ch=1 n=g#5 v=105
77682 On ch=1 n=g#5 v=0
77710 On ch=1 n=g#4 v=120
77718 Par ch=1 c=64 v=127
77762 On ch=1 n=g#4 v=0
77958 On ch=1 n=g#5 v=114
78004 On ch=1 n=g#5 v=0
78050 On ch=1 n=g#5 v=108
78102 On ch=1 n=g#5 v=0
78140 On ch=1 n=g#5 v=99
78188 On ch=1 n=g#5 v=0
78218 On ch=1 n=g#5 v=124
78274 On ch=1 n=g#5 v=0
78504 On ch=1 n=g#5 v=109
78544 On ch=1 n=g#5 v=0
78580 On ch=1 n=g#5 v=104
78636 On ch=1 n=g#5 v=0
78648 On ch=1 n=g#5 v=91
78702 On ch=1 n=g#5 v=0
78746 On ch=1 n=g#5 v=104
78784 On ch=1 n=g#5 v=0
78816 On ch=1 n=g#5 v=109
78874 On ch=1 n=g#5 v=0
78906 On ch=1 n=g#5 v=105
78962 On ch=1 n=g#5 v=0
78996 On ch=1 n=g#5 v=108
79030 On ch=1 n=g#5 v=0
79070 On ch=1 n=g#5 v=108
79126 On ch=1 n=g#5 v=0
79174 On ch=1 n=g#5 v=86
79210 On ch=1 n=g#5 v=0
79258 On ch=1 n=g#5 v=121
79306 On ch=1 n=g#5 v=0
79550 On ch=1 n=g#5 v=106
79592 On ch=1 n=g#5 v=0
79626 On ch=1 n=g#5 v=98
79662 On ch=1 n=g#5 v=0
79686 On ch=1 n=g#5 v=110
79740 On ch=1 n=g#5 v=0
79788 On ch=1 n=g#5 v=123
79834 On ch=1 n=g#5 v=0
80058 On ch=1 n=g#5 v=104
80086 On ch=1 n=g#5 v=0
80124 On ch=1 n=g#5 v=99
80184 On ch=1 n=g#5 v=0
80210 On ch=1 n=g#5 v=100
80264 On ch=1 n=g#5 v=0
80304 On ch=1 n=g#5 v=96
80346 On ch=1 n=g#5 v=0
80378 On ch=1 n=g#5 v=104
80434 On ch=1 n=g#5 v=0
80472 On ch=1 n=g#5 v=93
80520 On ch=1 n=g#5 v=0
80558 On ch=1 n=g#5 v=99
80582 On ch=1 n=g#5 v=0
80632 On ch=1 n=g#5 v=85
80686 On ch=1 n=g#5 v=0
80728 On ch=1 n=g#5 v=96
80788 On ch=1 n=g#5 v=0
80836 On ch=1 n=g#5 v=107
80884 On ch=1 n=g#5 v=0
81118 On ch=1 n=g#5 v=84
81160 On ch=1 n=g#5 v=0
81202 On ch=1 n=g#5 v=94
81254 On ch=1 n=g#5 v=0
81290 On ch=1 n=g#5 v=78
81322 On ch=1 n=g#5 v=0
81378 On ch=1 n=g#5 v=73
81428 On ch=1 n=g#5 v=0
81464 On ch=1 n=g#5 v=98
81518 On ch=1 n=g#5 v=0
81556 On ch=1 n=g#5 v=90
81586 Par ch=1 c=67 v=127
81616 On ch=1 n=g#5 v=0
81626 Par ch=1 c=67 v=127
81642 On ch=1 n=g#5 v=74
81684 On ch=1 n=g#5 v=0
81734 On ch=1 n=g#5 v=84
81790 On ch=1 n=g#5 v=0
81824 On ch=1 n=g#5 v=72
81870 On ch=1 n=g#5 v=0
81910 On ch=1 n=g#5 v=92
81960 On ch=1 n=g#5 v=0
82006 On ch=1 n=g#5 v=94
82048 Par ch=1 c=67 v=127
82058 On ch=1 n=g#5 v=0
82096 On ch=1 n=g#5 v=87
82152 On ch=1 n=g#5 v=0
82198 On ch=1 n=g#5 v=88
82238 On ch=1 n=g#5 v=0
82294 On ch=1 n=g#5 v=82
82350 On ch=1 n=g#5 v=0
82392 On ch=1 n=g#5 v=74
82456 On ch=1 n=g#5 v=0
82508 On ch=1 n=b4 v=51
82544 On ch=1 n=f5 v=51
82570 On ch=1 n=b5 v=56
82576 Par ch=1 c=64 v=63
82578 On ch=1 n=g#5 v=75
82588 Par ch=1 c=64 v=127
82640 On ch=1 n=g#5 v=0
82644 On ch=1 n=b5 v=0
82658 On ch=1 n=f5 v=0
82684 On ch=1 n=b4 v=0
82684 On ch=1 n=g#5 v=80
82742 On ch=1 n=g#5 v=0
82780 On ch=1 n=g#5 v=86
82830 On ch=1 n=g#5 v=0
82882 On ch=1 n=g#5 v=82
82888 On ch=1 n=c#4 v=68
82934 On ch=1 n=g#5 v=0
82956 On ch=1 n=c#4 v=0
82974 On ch=1 n=g#5 v=88
83026 On ch=1 n=g#5 v=0
83066 On ch=1 n=g#5 v=77
83104 Par ch=1 c=64 v=63
83108 Par ch=1 c=64 v=0
83140 On ch=1 n=g#5 v=0
83142 On ch=1 n=f#3 v=77
83174 On ch=1 n=f5 v=85
83176 On ch=1 n=b5 v=94
83180 Par ch=1 c=64 v=63
83184 Par ch=1 c=64 v=127
83214 On ch=1 n=f#3 v=0
83218 On ch=1 n=f5 v=0
83248 On ch=1 n=b5 v=0
83298 On ch=1 n=g#5 v=89
83346 On ch=1 n=g#5 v=0
83388 On ch=1 n=g#5 v=92
83432 On ch=1 n=g#5 v=0
83464 On ch=1 n=g#5 v=91
83506 On ch=1 n=g#5 v=0
83552 On ch=1 n=g#5 v=89
83600 On ch=1 n=g#5 v=0
83638 On ch=1 n=g#5 v=92
83684 On ch=1 n=g#5 v=0
83708 Par ch=1 c=64 v=63
83714 On ch=1 n=g#5 v=89
83718 On ch=1 n=b4 v=46
83718 Par ch=1 c=64 v=0
83722 On ch=1 n=b5 v=55
83736 On ch=1 n=f5 v=57
83740 Par ch=1 c=64 v=63
83760 Par ch=1 c=64 v=127
83770 On ch=1 n=g#5 v=0
83794 On ch=1 n=b4 v=0
83810 On ch=1 n=g#5 v=91
83812 On ch=1 n=f5 v=0
83830 On ch=1 n=b5 v=0
83860 On ch=1 n=g#5 v=0
83888 On ch=1 n=g#5 v=97
83932 Par ch=1 c=64 v=63
83938 On ch=1 n=g#5 v=0
83942 Par ch=1 c=64 v=0
83962 On ch=1 n=c5 v=28
83966 Par ch=1 c=64 v=63
83984 Par ch=1 c=64 v=127
83986 On ch=1 n=f5 v=55
84012 On ch=1 n=c6 v=60
84036 On ch=1 n=c#6 v=91
84086 On ch=1 n=c#6 v=0
84094 On ch=1 n=c6 v=0
84094 On ch=1 n=c5 v=0
84104 On ch=1 n=f5 v=0
84128 On ch=1 n=c#6 v=96
84166 On ch=1 n=c#6 v=0
84204 On ch=1 n=c#6 v=93
84248 On ch=1 n=c#6 v=0
84270 Par ch=1 c=64 v=63
84274 Par ch=1 c=64 v=0
84316 On ch=1 n=b4 v=57
84322 Par ch=1 c=64 v=63
84332 On ch=1 n=f5 v=63
84332 Par ch=1 c=64 v=127
84338 On ch=1 n=b5 v=65
84348 On ch=1 n=g#5 v=100
84390 On ch=1 n=g#5 v=0
84444 On ch=1 n=g#5 v=94
84488 On ch=1 n=g#5 v=0
84520 On ch=1 n=b4 v=0
84522 On ch=1 n=f5 v=0
84538 On ch=1 n=b5 v=0
84538 On ch=1 n=g#5 v=84
84576 On ch=1 n=g#5 v=0
84624 On ch=1 n=g#5 v=82
84672 On ch=1 n=g#5 v=0
84722 On ch=1 n=g#5 v=90
84768 On ch=1 n=g#5 v=0
84800 On ch=1 n=g#5 v=82
84848 On ch=1 n=g#5 v=0
84896 On ch=1 n=b5 v=63
84896 On ch=1 n=b4 v=50
84902 On ch=1 n=f5 v=56
84908 On ch=1 n=g#5 v=71
84942 Par ch=1 c=64 v=63
84948 Par ch=1 c=64 v=0
84964 On ch=1 n=g#5 v=0
84978 On ch=1 n=b5 v=0
84982 On ch=1 n=b4 v=0
84984 On ch=1 n=f5 v=0
85032 On ch=1 n=g#5 v=92
85092 On ch=1 n=g#5 v=0
85160 On ch=1 n=c#5 v=75
85164 On ch=1 n=a4 v=55
85168 On ch=1 n=a5 v=53
85174 On ch=1 n=d#5 v=95
85226 On ch=1 n=d#5 v=0
85238 On ch=1 n=a4 v=0
85246 On ch=1 n=c#5 v=0
85268 On ch=1 n=a5 v=0
85292 On ch=1 n=d#5 v=92
85346 On ch=1 n=d#5 v=0
85422 On ch=1 n=b4 v=71
85424 On ch=1 n=b5 v=80
85428 On ch=1 n=f5 v=76
85434 On ch=1 n=g#5 v=90
85474 On ch=1 n=b5 v=0
85480 On ch=1 n=f5 v=0
85486 On ch=1 n=b4 v=0
85488 On ch=1 n=g#5 v=0
85546 On ch=1 n=g#5 v=75
85598 On ch=1 n=g#5 v=0
85680 On ch=1 n=a4 v=84
85682 On ch=1 n=a5 v=81
85682 On ch=1 n=c#5 v=90
85690 On ch=1 n=d#5 v=97
85728 On ch=1 n=c#5 v=0
85738 On ch=1 n=d#5 v=0
85744 On ch=1 n=a5 v=0
85756 On ch=1 n=a4 v=0
85804 On ch=1 n=d#5 v=70
85838 On ch=1 n=d#5 v=0
85924 On ch=1 n=b4 v=23
85952 On ch=1 n=f5 v=56
85972 On ch=1 n=b5 v=73
85976 Par ch=1 c=64 v=63
85978 Par ch=1 c=64 v=127
85990 On ch=1 n=g#5 v=88
86020 On ch=1 n=b5 v=0
86020 On ch=1 n=f5 v=0
86040 On ch=1 n=g#5 v=0
86048 On ch=1 n=b4 v=0
86094 On ch=1 n=g#5 v=85
86144 On ch=1 n=g#5 v=0
86176 On ch=1 n=g#5 v=97
86226 On ch=1 n=g#5 v=0
86256 On ch=1 n=g#5 v=96
86274 On ch=1 n=c#4 v=84
86304 On ch=1 n=g#5 v=0
86338 On ch=1 n=c#4 v=0
86342 Par ch=1 c=64 v=63
86344 Par ch=1 c=64 v=0
86348 On ch=1 n=g#5 v=94
86394 On ch=1 n=g#5 v=0
86412 On ch=1 n=f#3 v=78
86434 Par ch=1 c=64 v=63
86434 On ch=1 n=g#5 v=57
86434 Par ch=1 c=64 v=127
86466 On ch=1 n=c#4 v=71
86496 On ch=1 n=f#3 v=0
86534 On ch=1 n=g#5 v=0
86570 On ch=1 n=c#4 v=0
86572 On ch=1 n=b4 v=91
86574 On ch=1 n=b5 v=106
86582 On ch=1 n=f5 v=82
86614 On ch=1 n=f5 v=0
86618 On ch=1 n=b4 v=0
86640 On ch=1 n=b5 v=0
86698 On ch=1 n=g#5 v=93
86746 On ch=1 n=g#5 v=0
86784 On ch=1 n=g#5 v=100
86834 On ch=1 n=g#5 v=0
86868 On ch=1 n=g#5 v=100
86914 On ch=1 n=g#5 v=0
86954 On ch=1 n=g#5 v=92
87004 On ch=1 n=g#5 v=0
87042 On ch=1 n=g#5 v=93
87084 On ch=1 n=g#5 v=0
87114 Par ch=1 c=64 v=63
87118 On ch=1 n=g#5 v=92
87122 Par ch=1 c=64 v=0
87128 On ch=1 n=b5 v=70
87130 On ch=1 n=b4 v=60
87142 On ch=1 n=f5 v=60
87166 On ch=1 n=g#5 v=0
87208 On ch=1 n=b4 v=0
87212 On ch=1 n=g#5 v=90
87216 On ch=1 n=b5 v=0
87218 On ch=1 n=f5 v=0
87268 On ch=1 n=g#5 v=0
87296 On ch=1 n=g#5 v=98
87352 On ch=1 n=g#5 v=0
87372 On ch=1 n=c5 v=29
87392 On ch=1 n=f5 v=54
87422 On ch=1 n=c6 v=50
87430 On ch=1 n=c#6 v=78
87440 Par ch=1 c=64 v=63
87442 Par ch=1 c=64 v=127
87464 On ch=1 n=c#6 v=0
87486 On ch=1 n=c5 v=0
87490 On ch=1 n=f5 v=0
87492 On ch=1 n=c6 v=0
87508 On ch=1 n=c#6 v=94
87552 On ch=1 n=c#6 v=0
87598 On ch=1 n=c#6 v=94
87626 Par ch=1 c=64 v=63
87630 Par ch=1 c=64 v=0
87642 On ch=1 n=c#6 v=0
87708 On ch=1 n=b4 v=61
87718 Par ch=1 c=64 v=63
87720 Par ch=1 c=64 v=127
87724 On ch=1 n=f5 v=61
87740 On ch=1 n=b5 v=57
87752 On ch=1 n=g#5 v=97
87796 On ch=1 n=g#5 v=0
87818 On ch=1 n=b4 v=0
87836 On ch=1 n=f5 v=0
87844 On ch=1 n=b5 v=0
87848 On ch=1 n=g#5 v=92
87894 On ch=1 n=g#5 v=0
87942 On ch=1 n=g#5 v=87
87988 On ch=1 n=g#5 v=0
88028 On ch=1 n=g#5 v=81
88070 On ch=1 n=g#5 v=0
88110 On ch=1 n=g#5 v=88
88160 On ch=1 n=g#5 v=0
88190 On ch=1 n=g#5 v=88
88238 On ch=1 n=g#5 v=0
88284 On ch=1 n=b4 v=53
88288 Par ch=1 c=64 v=63
88288 On ch=1 n=g#5 v=72
88292 On ch=1 n=b5 v=49
88292 Par ch=1 c=64 v=0
88296 On ch=1 n=f5 v=51
88330 On ch=1 n=b5 v=0
88334 On ch=1 n=f5 v=0
88334 On ch=1 n=g#5 v=0
88348 On ch=1 n=b4 v=0
88408 On ch=1 n=g#5 v=83
88474 On ch=1 n=g#5 v=0
88542 On ch=1 n=a4 v=52
88544 On ch=1 n=a5 v=58
88544 On ch=1 n=d#5 v=93
88544 On ch=1 n=c#5 v=73
88592 On ch=1 n=d#5 v=0
88606 On ch=1 n=a4 v=0
88610 On ch=1 n=c#5 v=0
88620 On ch=1 n=a5 v=0
88668 On ch=1 n=d#5 v=90
88720 On ch=1 n=d#5 v=0
88794 On ch=1 n=b4 v=64
88798 On ch=1 n=b5 v=67
88806 On ch=1 n=f5 v=65
88810 On ch=1 n=g#5 v=88
88850 On ch=1 n=b5 v=0
88854 On ch=1 n=f5 v=0
88858 On ch=1 n=g#5 v=0
88862 On ch=1 n=b4 v=0
88922 On ch=1 n=g#5 v=89
88972 On ch=1 n=g#5 v=0
89044 On ch=1 n=a5 v=63
89046 On ch=1 n=c#5 v=76
89046 On ch=1 n=a4 v=48
89054 On ch=1 n=d#5 v=104
89092 On ch=1 n=a5 v=0
89098 On ch=1 n=d#5 v=0
89100 On ch=1 n=a4 v=0
89102 On ch=1 n=c#5 v=0
89160 On ch=1 n=d#5 v=94
89212 On ch=1 n=d#5 v=0
89236 On ch=1 n=g4 v=62
89274 On ch=1 n=d5 v=65
89288 Par ch=1 c=64 v=63
89290 Par ch=1 c=64 v=127
89296 On ch=1 n=g5 v=77
89334 On ch=1 n=f#5 v=87
89338 On ch=1 n=d5 v=0
89342 On ch=1 n=g5 v=0
89350 On ch=1 n=g4 v=0
89370 On ch=1 n=f#5 v=0
89418 On ch=1 n=f#5 v=103
89458 On ch=1 n=f#5 v=0
89478 Par ch=1 c=64 v=63
89482 Par ch=1 c=64 v=0
89484 On ch=1 n=f#5 v=110
89528 On ch=1 n=f#5 v=0
89542 Par ch=1 c=64 v=63
89546 Par ch=1 c=64 v=127
89556 On ch=1 n=f#5 v=107
89576 On ch=1 n=b3 v=86
89602 On ch=1 n=f#5 v=0
89624 Par ch=1 c=64 v=63
89626 Par ch=1 c=64 v=0
89636 On ch=1 n=f#5 v=104
89650 On ch=1 n=b3 v=0
89674 On ch=1 n=f#5 v=0
89676 On ch=1 n=e3 v=71
89706 On ch=1 n=f#5 v=70
89712 Par ch=1 c=64 v=63
89714 Par ch=1 c=64 v=127
89740 On ch=1 n=b3 v=62
89756 On ch=1 n=f#5 v=0
89772 On ch=1 n=e3 v=0
89824 On ch=1 n=g4 v=72
89826 On ch=1 n=f#5 v=88
89832 On ch=1 n=b3 v=0
89836 On ch=1 n=b5 v=97
89880 On ch=1 n=f#5 v=0
89888 On ch=1 n=g4 v=0
89902 On ch=1 n=b5 v=0
89972 On ch=1 n=f#5 v=98
90014 On ch=1 n=f#5 v=0
90054 On ch=1 n=f#5 v=105
90098 On ch=1 n=f#5 v=0
90138 On ch=1 n=f#5 v=106
90182 On ch=1 n=f#5 v=0
90222 On ch=1 n=f#5 v=99
90262 On ch=1 n=f#5 v=0
90300 On ch=1 n=f#5 v=107
90330 Par ch=1 c=64 v=63
90334 Par ch=1 c=64 v=0
90344 On ch=1 n=f#5 v=0
90384 On ch=1 n=f#5 v=96
90386 Par ch=1 c=64 v=63
90392 On ch=1 n=g4 v=53
90392 On ch=1 n=g5 v=60
90396 Par ch=1 c=64 v=127
90400 On ch=1 n=d5 v=65
90428 On ch=1 n=f#5 v=0
90448 On ch=1 n=g5 v=0
90460 On ch=1 n=g4 v=0
90462 On ch=1 n=d5 v=0
90466 On ch=1 n=f#5 v=88
90514 On ch=1 n=f#5 v=0
90552 On ch=1 n=f#5 v=97
90580 Par ch=1 c=64 v=63
90582 Par ch=1 c=64 v=0
90594 On ch=1 n=f#5 v=0
90648 Par ch=1 c=64 v=63
90654 Par ch=1 c=64 v=127
90656 On ch=1 n=g#4 v=63
90670 On ch=1 n=d5 v=63
90688 On ch=1 n=g#5 v=82
90700 On ch=1 n=b5 v=80
90732 On ch=1 n=b5 v=0
90742 On ch=1 n=g#4 v=0
90752 On ch=1 n=d5 v=0
90756 On ch=1 n=g#5 v=0
90794 On ch=1 n=b5 v=81
90818 On ch=1 n=b5 v=0
90868 On ch=1 n=b5 v=92
90912 On ch=1 n=b5 v=0
90946 Par ch=1 c=64 v=63
90950 Par ch=1 c=64 v=0
90986 On ch=1 n=g4 v=43
91002 On ch=1 n=d5 v=59
91012 On ch=1 n=g5 v=67
91018 On ch=1 n=f#5 v=97
91030 Par ch=1 c=64 v=63
91036 Par ch=1 c=64 v=127
91062 On ch=1 n=f#5 v=0
91114 On ch=1 n=f#5 v=95
91154 On ch=1 n=f#5 v=0
91176 On ch=1 n=d5 v=0
91182 On ch=1 n=g5 v=0
91196 On ch=1 n=g4 v=0
91206 On ch=1 n=f#5 v=95
91250 On ch=1 n=f#5 v=0
91292 On ch=1 n=f#5 v=86
91326 On ch=1 n=f#5 v=0
91374 On ch=1 n=f#5 v=93
91416 On ch=1 n=f#5 v=0
91450 On ch=1 n=f#5 v=94
91496 On ch=1 n=f#5 v=0
91540 On ch=1 n=f#5 v=90
91542 On ch=1 n=g5 v=68
91542 Par ch=1 c=64 v=63
91542 On ch=1 n=g4 v=57
91546 Par ch=1 c=64 v=0
91550 On ch=1 n=d5 v=65
91590 On ch=1 n=f#5 v=0
91602 On ch=1 n=g5 v=0
91618 On ch=1 n=d5 v=0
91620 On ch=1 n=g4 v=0
91664 On ch=1 n=f#5 v=93
91718 On ch=1 n=f#5 v=0
91806 On ch=1 n=f5 v=71
91808 On ch=1 n=c#5 v=103
91810 On ch=1 n=f4 v=65
91856 On ch=1 n=c#5 v=0
91874 On ch=1 n=f4 v=0
91886 On ch=1 n=f5 v=0
91922 On ch=1 n=c#5 v=94
91976 On ch=1 n=c#5 v=0
92068 On ch=1 n=g4 v=47
92078 On ch=1 n=g5 v=55
92080 On ch=1 n=d5 v=63
92082 On ch=1 n=f#5 v=82
92134 On ch=1 n=f#5 v=0
92138 On ch=1 n=g5 v=0
92146 On ch=1 n=g4 v=0
92152 On ch=1 n=d5 v=0
92210 On ch=1 n=f#5 v=78
92258 On ch=1 n=f#5 v=0
92372 On ch=1 n=c#5 v=87
92378 On ch=1 n=b4 v=47
92382 On ch=1 n=f5 v=41
92392 On ch=1 n=f4 v=21
92428 On ch=1 n=c#5 v=0
92446 On ch=1 n=f4 v=0
92446 On ch=1 n=f5 v=0
92452 On ch=1 n=b4 v=0
92526 On ch=1 n=c#5 v=91
92564 On ch=1 n=c#5 v=0
92664 On ch=1 n=g4 v=46
92712 On ch=1 n=d5 v=65
92724 Par ch=1 c=64 v=63
92726 Par ch=1 c=64 v=127
92768 On ch=1 n=d5 v=0
92770 On ch=1 n=g4 v=0
92786 On ch=1 n=f#5 v=61
92828 On ch=1 n=f#5 v=0
92840 On ch=1 n=b5 v=59
92890 On ch=1 n=f#6 v=89
92910 On ch=1 n=b5 v=0
92934 On ch=1 n=f#6 v=0
93050 On ch=1 n=e3 v=84
93078 On ch=1 n=d7 v=77
93082 On ch=1 n=d6 v=54
93094 On ch=1 n=e3 v=0
93102 On ch=1 n=d7 v=0
93112 On ch=1 n=d6 v=0
93428 On ch=1 n=c#7 v=89
93482 Par ch=1 c=64 v=63
93490 On ch=1 n=c#7 v=0
93498 Par ch=1 c=64 v=0
93506 On ch=1 n=d7 v=57
93564 On ch=1 n=c#7 v=67
93572 Par ch=1 c=67 v=0
93618 On ch=1 n=d7 v=0
93636 On ch=1 n=b4 v=68
93640 On ch=1 n=f#5 v=76
93646 On ch=1 n=g5 v=53
93654 On ch=1 n=b6 v=91
93686 On ch=1 n=b4 v=0
93690 On ch=1 n=c#7 v=0
93704 On ch=1 n=f#5 v=0
93710 On ch=1 n=g5 v=0
93718 On ch=1 n=b6 v=0
93908 On ch=1 n=d6 v=78
93908 On ch=1 n=a#6 v=94
93908 On ch=1 n=b5 v=68
93944 On ch=1 n=b5 v=0
93946 On ch=1 n=d6 v=0
93954 On ch=1 n=a#6 v=0
94160 On ch=1 n=f#6 v=103
94172 On ch=1 n=c#6 v=72
94202 On ch=1 n=c#6 v=0
94218 On ch=1 n=f#6 v=0
94402 On ch=1 n=g6 v=100
94406 On ch=1 n=f#5 v=91
94410 On ch=1 n=d6 v=97
94412 On ch=1 n=g5 v=78
94418 On ch=1 n=b4 v=68
94444 On ch=1 n=f#5 v=0
94446 On ch=1 n=g5 v=0
94456 On ch=1 n=b4 v=0
94460 On ch=1 n=g6 v=0
94464 On ch=1 n=d6 v=0
94684 On ch=1 n=d6 v=75
94700 On ch=1 n=f#6 v=103
94704 On ch=1 n=e4 v=82
94708 On ch=1 n=b4 v=87
94726 On ch=1 n=d7 v=111
94732 On ch=1 n=d6 v=0
94734 Par ch=1 c=64 v=127
94750 On ch=1 n=b4 v=0
94756 On ch=1 n=f#6 v=0
94758 On ch=1 n=e4 v=0
94850 On ch=1 n=d7 v=0
95010 On ch=1 n=c#7 v=90
95072 On ch=1 n=d7 v=79
95084 On ch=1 n=c#7 v=0
95152 On ch=1 n=c#7 v=82
95202 On ch=1 n=d7 v=0
95220 On ch=1 n=f#5 v=88
95224 On ch=1 n=g5 v=77
95228 On ch=1 n=b4 v=71
95232 On ch=1 n=b6 v=102
95272 On ch=1 n=b4 v=0
95272 On ch=1 n=c#7 v=0
95276 On ch=1 n=f#5 v=0
95284 On ch=1 n=g5 v=0
95288 On ch=1 n=b6 v=0
95486 On ch=1 n=a#6 v=112
95518 Par ch=1 c=64 v=63
95522 Par ch=1 c=64 v=0
95538 On ch=1 n=a#6 v=0
95718 On ch=1 n=f#6 v=114
95720 On ch=1 n=c#6 v=112
95728 On ch=1 n=d6 v=94
95728 On ch=1 n=b5 v=93
95750 On ch=1 n=c#6 v=0
95760 On ch=1 n=d6 v=0
95766 On ch=1 n=b5 v=0
95768 On ch=1 n=f#6 v=0
95968 On ch=1 n=g6 v=111
96028 On ch=1 n=g6 v=0
96220 On ch=1 n=d6 v=88
96224 On ch=1 n=a3 v=112
96228 On ch=1 n=g6 v=104
96228 On ch=1 n=e4 v=116
96236 Par ch=1 c=64 v=127
96244 On ch=1 n=d7 v=107
96272 On ch=1 n=d6 v=0
96276 On ch=1 n=e4 v=0
96278 On ch=1 n=a3 v=0
96282 On ch=1 n=g6 v=0
96342 On ch=1 n=d7 v=0
96550 On ch=1 n=c#7 v=87
96606 On ch=1 n=d7 v=80
96628 On ch=1 n=c#7 v=0
96706 On ch=1 n=c#7 v=82
96766 On ch=1 n=d7 v=0
96768 On ch=1 n=b4 v=99
96774 On ch=1 n=g5 v=87
96776 On ch=1 n=d5 v=72
96784 On ch=1 n=b6 v=103
96814 On ch=1 n=d5 v=0
96826 On ch=1 n=c#7 v=0
96828 On ch=1 n=b4 v=0
96832 On ch=1 n=g5 v=0
96848 On ch=1 n=b6 v=0
97020 On ch=1 n=b5 v=104
97024 On ch=1 n=d6 v=84
97026 On ch=1 n=a#6 v=109
97032 Par ch=1 c=64 v=63
97034 Par ch=1 c=64 v=0
97046 On ch=1 n=b5 v=0
97054 On ch=1 n=d6 v=0
97078 On ch=1 n=a#6 v=0
97264 On ch=1 n=c#6 v=107
97264 On ch=1 n=f#6 v=108
97290 On ch=1 n=c#6 v=0
97306 On ch=1 n=f#6 v=0
97382 On ch=1 n=f#6 v=38
97420 On ch=1 n=f#6 v=0
97486 On ch=1 n=g5 v=101
97490 On ch=1 n=d5 v=97
97494 On ch=1 n=g6 v=111
97496 On ch=1 n=d6 v=106
97526 On ch=1 n=g5 v=0
97542 On ch=1 n=d5 v=0
97550 On ch=1 n=d6 v=0
97552 On ch=1 n=g6 v=0
97756 On ch=1 n=g6 v=104
97760 On ch=1 n=d6 v=71
97762 On ch=1 n=e5 v=113
97762 On ch=1 n=a4 v=108
97766 On ch=1 n=d7 v=108
97768 Par ch=1 c=64 v=127
97776 On ch=1 n=e6 v=65
97798 On ch=1 n=d6 v=0
97800 On ch=1 n=g6 v=0
97812 On ch=1 n=e6 v=0
97816 On ch=1 n=e5 v=0
97830 On ch=1 n=a4 v=0
97854 On ch=1 n=d7 v=0
98050 On ch=1 n=c#7 v=92
98102 On ch=1 n=d7 v=75
98122 On ch=1 n=c#7 v=0
98182 On ch=1 n=c#7 v=72
98240 On ch=1 n=d7 v=0
98242 On ch=1 n=b6 v=108
98244 On ch=1 n=g5 v=109
98246 On ch=1 n=d5 v=104
98294 On ch=1 n=c#7 v=0
98304 On ch=1 n=b6 v=0
98306 On ch=1 n=g5 v=0
98308 On ch=1 n=d5 v=0
98484 On ch=1 n=a#6 v=119
98548 On ch=1 n=a#6 v=0
98726 On ch=1 n=g5 v=118
98728 On ch=1 n=b5 v=114
98728 On ch=1 n=c#6 v=124
98730 On ch=1 n=f#6 v=119
98764 On ch=1 n=b5 v=0
98770 On ch=1 n=c#6 v=0
98774 On ch=1 n=g5 v=0
98782 On ch=1 n=f#6 v=0
98812 Par ch=1 c=64 v=63
98824 Par ch=1 c=64 v=0
98994 On ch=1 n=g6 v=117
98998 On ch=1 n=d6 v=109
99044 On ch=1 n=d6 v=0
99046 On ch=1 n=g6 v=0
99264 On ch=1 n=f#6 v=114
99266 On ch=1 n=d7 v=117
99266 On ch=1 n=d3 v=102
99266 On ch=1 n=d6 v=117
99270 On ch=1 n=d4 v=126
99308 Par ch=1 c=64 v=127
99354 On ch=1 n=d3 v=0
99372 On ch=1 n=d4 v=0
99396 On ch=1 n=d6 v=0
99404 On ch=1 n=d7 v=0
99422 On ch=1 n=f#6 v=0
99606 On ch=1 n=a4 v=84
99608 On ch=1 n=f#4 v=94
99650 On ch=1 n=a4 v=0
99652 On ch=1 n=f#4 v=0
99826 Par ch=1 c=64 v=63
99828 Par ch=1 c=64 v=0
99858 On ch=1 n=d4 v=80
99910 On ch=1 n=d4 v=0
100080 On ch=1 n=f#4 v=106
100096 On ch=1 n=a4 v=81
100130 On ch=1 n=a4 v=0
100134 On ch=1 n=f#4 v=0
100310 On ch=1 n=d4 v=88
100364 On ch=1 n=d4 v=0
100526 On ch=1 n=g#4 v=91
100538 On ch=1 n=c5 v=82
100556 On ch=1 n=f4 v=59
100568 On ch=1 n=c5 v=0
100570 On ch=1 n=g#4 v=0
100600 On ch=1 n=f4 v=0
100778 On ch=1 n=d4 v=96
100920 On ch=1 n=d4 v=0
100992 On ch=1 n=f#4 v=87
101000 On ch=1 n=a4 v=67
101044 On ch=1 n=a4 v=0
101044 On ch=1 n=f#4 v=0
101232 On ch=1 n=d4 v=83
101284 On ch=1 n=d4 v=0
101446 On ch=1 n=a3 v=81
101450 On ch=1 n=g#4 v=86
101456 On ch=1 n=f4 v=79
101468 On ch=1 n=a4 v=55
101496 On ch=1 n=f4 v=0
101508 On ch=1 n=a3 v=0
101512 On ch=1 n=a4 v=0
101520 On ch=1 n=g#4 v=0
101668 On ch=1 n=c4 v=81
101678 On ch=1 n=g4 v=78
101680 On ch=1 n=a4 v=70
101682 On ch=1 n=e4 v=79
101722 On ch=1 n=e4 v=0
101724 On ch=1 n=c4 v=0
101726 On ch=1 n=a4 v=0
101726 On ch=1 n=g4 v=0
101896 On ch=1 n=a4 v=71
101900 On ch=1 n=g#3 v=82
101902 On ch=1 n=f#4 v=86
101908 On ch=1 n=d#4 v=88
101936 On ch=1 n=d#4 v=0
101942 On ch=1 n=a4 v=0
101960 On ch=1 n=f#4 v=0
101962 On ch=1 n=g#3 v=0
102144 On ch=1 n=d4 v=65
102152 On ch=1 n=d3 v=47
102194 On ch=1 n=d4 v=0
102220 On ch=1 n=d3 v=0
102370 On ch=1 n=f#4 v=79
102382 On ch=1 n=a4 v=52
102430 On ch=1 n=a4 v=0
102430 On ch=1 n=f#4 v=0
102600 On ch=1 n=d4 v=65
102648 On ch=1 n=d4 v=0
102788 On ch=1 n=a3 v=82
102818 On ch=1 n=f#4 v=93
102830 On ch=1 n=a4 v=79
102842 On ch=1 n=a3 v=0
102874 On ch=1 n=f#4 v=0
102888 On ch=1 n=a4 v=0
103042 On ch=1 n=d4 v=84
103104 On ch=1 n=d4 v=0
103254 On ch=1 n=c5 v=89
103256 On ch=1 n=f4 v=82
103260 On ch=1 n=g#4 v=79
103292 On ch=1 n=g#4 v=0
103300 On ch=1 n=c5 v=0
103320 On ch=1 n=f4 v=0
103488 On ch=1 n=d4 v=97
103592 On ch=1 n=d4 v=0
103720 On ch=1 n=a4 v=86
103720 On ch=1 n=f#4 v=89
103758 On ch=1 n=f#4 v=0
103768 On ch=1 n=a4 v=0
103956 On ch=1 n=d4 v=88
104002 On ch=1 n=d4 v=0
104174 On ch=1 n=a3 v=77
104182 On ch=1 n=g#4 v=86
104188 On ch=1 n=f4 v=71
104196 On ch=1 n=a4 v=53
104222 On ch=1 n=f4 v=0
104222 On ch=1 n=a3 v=0
104240 On ch=1 n=a4 v=0
104240 On ch=1 n=g#4 v=0
104398 On ch=1 n=c4 v=82
104402 On ch=1 n=a4 v=78
104406 On ch=1 n=e4 v=86
104408 On ch=1 n=g4 v=76
104454 On ch=1 n=g4 v=0
104454 On ch=1 n=c4 v=0
104460 On ch=1 n=e4 v=0
104464 On ch=1 n=a4 v=0
104628 On ch=1 n=g#3 v=78
104630 On ch=1 n=a4 v=70
104634 On ch=1 n=f#4 v=83
104642 On ch=1 n=d#4 v=80
104670 On ch=1 n=d#4 v=0
104674 On ch=1 n=a4 v=0
104682 On ch=1 n=g#3 v=0
104688 On ch=1 n=f#4 v=0
104874 On ch=1 n=d4 v=81
104876 On ch=1 n=d3 v=82
104932 On ch=1 n=d4 v=0
104942 On ch=1 n=d3 v=0
105104 On ch=1 n=f#4 v=79
105110 On ch=1 n=a4 v=61
105146 On ch=1 n=f#4 v=0
105152 On ch=1 n=a4 v=0
105332 On ch=1 n=d4 v=82
105372 On ch=1 n=d4 v=0
105522 On ch=1 n=a3 v=87
105540 On ch=1 n=f#4 v=89
105552 On ch=1 n=a4 v=60
105568 On ch=1 n=a3 v=0
105596 On ch=1 n=f#4 v=0
105602 On ch=1 n=a4 v=0
105780 On ch=1 n=d4 v=59
105832 On ch=1 n=d4 v=0
105992 On ch=1 n=f#4 v=76
106004 On ch=1 n=a4 v=53
106048 On ch=1 n=a4 v=0
106056 On ch=1 n=f#4 v=0
106230 On ch=1 n=d4 v=78
106232 On ch=1 n=d3 v=76
106284 On ch=1 n=d3 v=0
106284 On ch=1 n=d4 v=0
106460 On ch=1 n=f#4 v=76
106472 On ch=1 n=a4 v=51
106522 On ch=1 n=a4 v=0
106530 On ch=1 n=f#4 v=0
106690 On ch=1 n=d4 v=69
106738 On ch=1 n=d4 v=0
106872 On ch=1 n=a3 v=85
106888 On ch=1 n=f#4 v=83
106910 On ch=1 n=a4 v=55
106926 On ch=1 n=a3 v=0
106956 On ch=1 n=f#4 v=0
106960 On ch=1 n=a4 v=0
107118 On ch=1 n=d4 v=67
107174 On ch=1 n=d4 v=0
107342 On ch=1 n=a4 v=62
107350 On ch=1 n=f#4 v=67
107406 On ch=1 n=a4 v=0
107424 On ch=1 n=f#4 v=0
107568 On ch=1 n=a3 v=64
107574 On ch=1 n=d3 v=68
107618 On ch=1 n=a3 v=0
107632 On ch=1 n=d3 v=0
107790 On ch=1 n=f#3 v=78
107800 On ch=1 n=a3 v=65
107844 On ch=1 n=f#3 v=0
107854 On ch=1 n=a3 v=0
108006 On ch=1 n=d3 v=68
108012 On ch=1 n=a3 v=46
108068 On ch=1 n=a3 v=0
108078 On ch=1 n=d3 v=0
108236 On ch=1 n=f#3 v=73
108244 On ch=1 n=a3 v=59
108292 On ch=1 n=f#3 v=0
108300 On ch=1 n=a3 v=0
108456 On ch=1 n=a3 v=57
108464 On ch=1 n=d3 v=55
108520 On ch=1 n=d3 v=0
108520 On ch=1 n=a3 v=0
108684 On ch=1 n=f#3 v=59
108696 On ch=1 n=a3 v=52
108736 On ch=1 n=f#3 v=0
108756 On ch=1 n=a3 v=0
108842 Par ch=1 c=67 v=127
108898 On ch=1 n=a3 v=49
108904 On ch=1 n=d3 v=51
108966 On ch=1 n=a3 v=0
108970 On ch=1 n=d3 v=0
109136 On ch=1 n=f#3 v=52
109136 On ch=1 n=a3 v=61
109172 On ch=1 n=f#3 v=0
109190 On ch=1 n=a3 v=0
109368 On ch=1 n=a3 v=47
109372 On ch=1 n=d3 v=52
109426 On ch=1 n=d3 v=0
109430 On ch=1 n=a3 v=0
109594 On ch=1 n=f#3 v=66
109602 On ch=1 n=a3 v=61
109638 On ch=1 n=f#3 v=0
109648 On ch=1 n=a3 v=0
109828 On ch=1 n=d3 v=55
109828 On ch=1 n=a3 v=35
109876 On ch=1 n=a3 v=0
109884 On ch=1 n=d3 v=0
110060 On ch=1 n=f#3 v=60
110072 On ch=1 n=a3 v=56
110096 On ch=1 n=f#3 v=0
110114 On ch=1 n=a3 v=0
110304 Par ch=1 c=67 v=0
110494 On ch=1 n=a2 v=127
110496 On ch=1 n=d2 v=127
110914 Par ch=1 c=64 v=127
111056 On ch=1 n=d2 v=0
111086 On ch=1 n=a2 v=0
111442 On ch=1 n=a6 v=100
111478 On ch=1 n=b6 v=71
111550 On ch=1 n=a6 v=0
111564 On ch=1 n=c#7 v=104
111616 On ch=1 n=b6 v=0
111630 On ch=1 n=a6 v=84
111642 On ch=1 n=d5 v=112
111642 On ch=1 n=f#5 v=126
111654 On ch=1 n=a4 v=83
111656 On ch=1 n=f#4 v=99
111662 On ch=1 n=d6 v=106
111668 On ch=1 n=d7 v=112
111706 On ch=1 n=c#7 v=0
113528 On ch=1 n=a4 v=0
113538 On ch=1 n=d5 v=0
113540 On ch=1 n=d6 v=0
113550 On ch=1 n=d7 v=0
113550 On ch=1 n=f#4 v=0
113560 On ch=1 n=f#5 v=0
113582 On ch=1 n=a6 v=0
113910 Par ch=1 c=64 v=63
113972 Par ch=1 c=64 v=0
114954 On ch=1 n=d5 v=55
115966 Par ch=1 c=64 v=63
115994 Par ch=1 c=64 v=127
116740 On ch=1 n=e5 v=35
116874 On ch=1 n=d5 v=0
116892 Par ch=1 c=64 v=63
116932 Par ch=1 c=64 v=0
117012 Par ch=1 c=64 v=63
117034 Par ch=1 c=64 v=127
117420 On ch=1 n=e5 v=0
117696 On ch=1 n=d5 v=52
117826 On ch=1 n=e5 v=49
117840 On ch=1 n=d5 v=0
117952 On ch=1 n=f#5 v=71
118020 On ch=1 n=e5 v=0
118060 Par ch=1 c=64 v=63
118142 Par ch=1 c=64 v=0
119316 Par ch=1 c=64 v=63
119356 Par ch=1 c=64 v=127
120218 On ch=1 n=f#5 v=0
120358 On ch=1 n=f#5 v=67
120792 On ch=1 n=f#5 v=0
120914 On ch=1 n=f#5 v=69
121228 On ch=1 n=f#5 v=0
121300 On ch=1 n=f#5 v=78
121576 On ch=1 n=f#5 v=0
121630 On ch=1 n=f#5 v=99
121858 On ch=1 n=f#5 v=0
121912 On ch=1 n=f#5 v=104
122038 On ch=1 n=f#5 v=0
122092 On ch=1 n=f#5 v=93
122274 On ch=1 n=a5 v=52
122370 On ch=1 n=f#5 v=0
122514 Par ch=1 c=64 v=63
122562 Par ch=1 c=64 v=0
122840 Par ch=1 c=64 v=63
122872 Par ch=1 c=64 v=127
123202 Par ch=1 c=64 v=63
123212 Par ch=1 c=64 v=0
123262 Par ch=1 c=64 v=63
123288 Par ch=1 c=64 v=127
123656 On ch=1 n=f#5 v=67
123896 On ch=1 n=a5 v=0
124220 On ch=1 n=c#5 v=53
124256 On ch=1 n=f#5 v=0
124348 Par ch=1 c=64 v=63
124414 Par ch=1 c=64 v=0
124670 Par ch=1 c=64 v=63
124686 Par ch=1 c=64 v=127
124948 On ch=1 n=c#5 v=0
125394 On ch=1 n=c#5 v=84
125510 On ch=1 n=d5 v=39
125576 On ch=1 n=c#5 v=0
125590 On ch=1 n=e5 v=71
125606 On ch=1 n=d5 v=0
125662 Par ch=1 c=64 v=63
125702 On ch=1 n=c#5 v=56
125734 Par ch=1 c=64 v=0
125742 On ch=1 n=e5 v=0
128318 On ch=1 n=b4 v=47
128596 On ch=1 n=c#5 v=0
128764 Par ch=1 c=67 v=127
128962 Par ch=1 c=67 v=127
129520 Par ch=1 c=64 v=63
129540 Par ch=1 c=64 v=127
129662 On ch=1 n=b4 v=0
129992 On ch=1 n=b3 v=28
130008 On ch=1 n=b2 v=31
130042 Par ch=1 c=64 v=63
130048 Par ch=1 c=64 v=127
130152 On ch=1 n=b2 v=0
130160 On ch=1 n=b3 v=0
130790 On ch=1 n=a5 v=45
130794 On ch=1 n=f#5 v=55
130794 On ch=1 n=f#7 v=43
130798 On ch=1 n=a6 v=49
130798 On ch=1 n=a7 v=60
130804 On ch=1 n=c#5 v=45
130804 On ch=1 n=d5 v=55
130808 On ch=1 n=d7 v=65
130868 On ch=1 n=f#5 v=0
130872 On ch=1 n=a5 v=0
130880 On ch=1 n=d5 v=0
130904 On ch=1 n=c#5 v=0
131272 On ch=1 n=f#3 v=62
131274 On ch=1 n=f#2 v=70
131332 On ch=1 n=f#3 v=0
131334 On ch=1 n=f#2 v=0
131678 Par ch=1 c=64 v=63
131680 On ch=1 n=b2 v=78
131686 Par ch=1 c=64 v=0
131700 On ch=1 n=b3 v=55
131746 Par ch=1 c=64 v=63
131762 Par ch=1 c=64 v=127
131764 On ch=1 n=b2 v=0
131798 On ch=1 n=b3 v=0
131868 On ch=1 n=a6 v=0
131894 On ch=1 n=d7 v=0
131900 On ch=1 n=a7 v=0
131906 On ch=1 n=f#7 v=0
132150 On ch=1 n=a5 v=48
132162 On ch=1 n=f#5 v=49
132164 On ch=1 n=f#7 v=67
132170 On ch=1 n=a7 v=58
132174 On ch=1 n=a6 v=45
132178 On ch=1 n=c#5 v=55
132178 On ch=1 n=d7 v=61
132180 On ch=1 n=d5 v=37
132212 On ch=1 n=a5 v=0
132230 On ch=1 n=f#5 v=0
132248 On ch=1 n=a6 v=0
132254 On ch=1 n=d5 v=0
132256 On ch=1 n=d7 v=0
132260 On ch=1 n=a7 v=0
132260 On ch=1 n=f#7 v=0
132284 On ch=1 n=c#5 v=0
132348 On ch=1 n=a6 v=50
132348 On ch=1 n=a7 v=43
132350 On ch=1 n=f#7 v=56
132352 On ch=1 n=d7 v=46
132412 On ch=1 n=a6 v=0
132414 On ch=1 n=d7 v=0
132418 On ch=1 n=a7 v=0
132428 On ch=1 n=f#7 v=0
132510 On ch=1 n=a7 v=54
132522 On ch=1 n=f#7 v=49
132524 On ch=1 n=a6 v=42
132532 On ch=1 n=d7 v=58
132650 On ch=1 n=f#2 v=60
132668 On ch=1 n=f#3 v=52
132706 On ch=1 n=f#3 v=0
132706 On ch=1 n=f#2 v=0
132884 On ch=1 n=b2 v=73
132888 On ch=1 n=b3 v=74
132902 Par ch=1 c=64 v=63
132912 Par ch=1 c=64 v=0
132958 On ch=1 n=b2 v=0
132974 Par ch=1 c=64 v=63
132982 Par ch=1 c=64 v=127
132992 On ch=1 n=b3 v=0
133088 On ch=1 n=a6 v=0
133114 On ch=1 n=d7 v=0
133120 On ch=1 n=a7 v=0
133130 On ch=1 n=f#7 v=0
133326 On ch=1 n=a5 v=76
133336 On ch=1 n=f#5 v=70
133354 On ch=1 n=f#7 v=70
133354 On ch=1 n=c#5 v=54
133358 On ch=1 n=a7 v=71
133364 On ch=1 n=d7 v=69
133366 On ch=1 n=a6 v=56
133398 On ch=1 n=f#5 v=0
133400 On ch=1 n=a5 v=0
133402 On ch=1 n=d5 v=23
133448 On ch=1 n=d5 v=0
133460 On ch=1 n=c#5 v=0
133750 On ch=1 n=f#2 v=82
133808 On ch=1 n=f#2 v=0
134130 Par ch=1 c=64 v=63
134138 Par ch=1 c=64 v=0
134178 On ch=1 n=b3 v=66
134182 On ch=1 n=b2 v=73
134198 Par ch=1 c=64 v=63
134208 Par ch=1 c=64 v=127
134224 On ch=1 n=b2 v=0
134276 On ch=1 n=b3 v=0
134286 On ch=1 n=a6 v=0
134298 On ch=1 n=d7 v=0
134306 On ch=1 n=f#7 v=0
134316 On ch=1 n=a7 v=0
134642 On ch=1 n=a5 v=46
134648 On ch=1 n=f#7 v=68
134652 On ch=1 n=a6 v=51
134654 On ch=1 n=a7 v=61
134658 On ch=1 n=f#5 v=51
134666 On ch=1 n=d7 v=63
134668 On ch=1 n=d5 v=50
134676 On ch=1 n=c#5 v=44
134722 On ch=1 n=a5 v=0
134730 On ch=1 n=f#5 v=0
134736 On ch=1 n=d7 v=0
134740 On ch=1 n=a6 v=0
134742 On ch=1 n=f#7 v=0
134746 On ch=1 n=a7 v=0
134748 On ch=1 n=d5 v=0
134796 On ch=1 n=c#5 v=0
134834 On ch=1 n=f#7 v=49
134844 On ch=1 n=a7 v=31
134844 On ch=1 n=a6 v=44
134850 On ch=1 n=d7 v=41
134920 On ch=1 n=d7 v=0
134924 On ch=1 n=a6 v=0
134932 On ch=1 n=a7 v=0
134932 On ch=1 n=f#7 v=0
135064 On ch=1 n=a7 v=38
135066 On ch=1 n=f#7 v=50
135070 On ch=1 n=a6 v=27
135074 On ch=1 n=d7 v=50
135194 On ch=1 n=f#2 v=57
135228 On ch=1 n=f#3 v=25
135244 On ch=1 n=f#2 v=0
135266 On ch=1 n=f#3 v=0
135500 On ch=1 n=b3 v=71
135502 Par ch=1 c=64 v=63
135506 On ch=1 n=b2 v=71
135510 Par ch=1 c=64 v=0
135562 Par ch=1 c=64 v=63
135576 Par ch=1 c=64 v=127
135586 On ch=1 n=b2 v=0
135618 On ch=1 n=b3 v=0
135956 On ch=1 n=a6 v=0
135998 On ch=1 n=a7 v=0
136022 On ch=1 n=d7 v=0
136066 On ch=1 n=f#7 v=0
136176 On ch=1 n=f#5 v=35
136182 On ch=1 n=d5 v=35
136196 On ch=1 n=a5 v=19
136640 On ch=1 n=d5 v=0
136666 On ch=1 n=f#5 v=0
136714 On ch=1 n=a5 v=0
136910 On ch=1 n=b4 v=96
137122 Par ch=1 c=67 v=0
137548 Par ch=1 c=64 v=63
137764 Par ch=1 c=64 v=0
138548 On ch=1 n=c#5 v=70
138814 Par ch=1 c=64 v=63
138838 On ch=1 n=b4 v=0
138838 Par ch=1 c=64 v=127
139158 On ch=1 n=d5 v=69
139232 On ch=1 n=c#5 v=0
139298 Par ch=1 c=64 v=63
139362 Par ch=1 c=64 v=0
140040 Par ch=1 c=64 v=63
140072 Par ch=1 c=64 v=127
140384 On ch=1 n=d5 v=0
140850 On ch=1 n=c#5 v=89
140980 On ch=1 n=d5 v=62
141152 Par ch=1 c=64 v=63
141160 On ch=1 n=d5 v=0
141212 Par ch=1 c=64 v=0
142848 Par ch=1 c=64 v=63
142886 Par ch=1 c=64 v=127
143734 On ch=1 n=b4 v=38
143860 On ch=1 n=c#5 v=0
143972 Par ch=1 c=64 v=63
144018 Par ch=1 c=64 v=0
144110 Par ch=1 c=64 v=63
144138 Par ch=1 c=64 v=127
144430 On ch=1 n=b4 v=0
144734 On ch=1 n=b4 v=54
144934 On ch=1 n=b4 v=0
144970 On ch=1 n=g4 v=31
145048 Par ch=1 c=64 v=63
145088 Par ch=1 c=64 v=0
145628 Par ch=1 c=67 v=127
145860 Par ch=1 c=67 v=127
146188 On ch=1 n=a2 v=31
146210 On ch=1 n=a3 v=10
146402 Par ch=1 c=64 v=63
146412 Par ch=1 c=64 v=127
146428 Par ch=1 c=64 v=63
146452 Par ch=1 c=64 v=127
146544 Par ch=1 c=64 v=63
146564 On ch=1 n=g4 v=0
146592 Par ch=1 c=64 v=127
146666 On ch=1 n=a2 v=0
146736 On ch=1 n=a3 v=0
147100 On ch=1 n=c7 v=37
147100 On ch=1 n=a6 v=30
147102 On ch=1 n=g6 v=31
147110 On ch=1 n=g5 v=27
147118 On ch=1 n=a7 v=51
147120 On ch=1 n=g7 v=52
147120 On ch=1 n=a5 v=32
147130 On ch=1 n=e7 v=38
147146 On ch=1 n=c5 v=48
147176 On ch=1 n=e5 v=14
147192 On ch=1 n=a5 v=0
147232 On ch=1 n=e5 v=0
147234 On ch=1 n=g5 v=0
147276 On ch=1 n=c5 v=0
147616 On ch=1 n=e2 v=70
147664 On ch=1 n=e2 v=0
147678 On ch=1 n=e3 v=16
147724 On ch=1 n=e3 v=0
148016 Par ch=1 c=64 v=63
148030 Par ch=1 c=64 v=0
148032 On ch=1 n=a2 v=68
148052 On ch=1 n=a3 v=51
148056 Par ch=1 c=64 v=63
148086 Par ch=1 c=64 v=127
148126 On ch=1 n=a2 v=0
148166 On ch=1 n=a3 v=0
148176 On ch=1 n=g6 v=0
148182 On ch=1 n=a6 v=0
148192 On ch=1 n=c7 v=0
148202 On ch=1 n=g7 v=0
148204 On ch=1 n=a7 v=0
148216 On ch=1 n=e7 v=0
148576 On ch=1 n=e5 v=33
148576 On ch=1 n=a5 v=53
148578 On ch=1 n=g5 v=51
148590 On ch=1 n=a6 v=45
148590 On ch=1 n=e7 v=58
148592 On ch=1 n=g6 v=44
148596 On ch=1 n=a7 v=45
148596 On ch=1 n=c7 v=60
148602 On ch=1 n=g7 v=48
148606 On ch=1 n=c5 v=34
148666 On ch=1 n=a5 v=0
148674 On ch=1 n=g5 v=0
148690 On ch=1 n=e5 v=0
148696 On ch=1 n=g6 v=0
148698 On ch=1 n=c7 v=0
148698 On ch=1 n=a6 v=0
148700 On ch=1 n=g7 v=0
148706 On ch=1 n=a7 v=0
148726 On ch=1 n=c5 v=0
148726 On ch=1 n=e7 v=0
148808 On ch=1 n=e7 v=53
148818 On ch=1 n=a7 v=53
148832 On ch=1 n=c7 v=42
148842 On ch=1 n=a6 v=24
148848 On ch=1 n=g6 v=22
148890 On ch=1 n=c7 v=0
148902 On ch=1 n=g6 v=0
148904 On ch=1 n=a6 v=0
148926 On ch=1 n=e7 v=0
149002 On ch=1 n=a6 v=50
149004 On ch=1 n=e7 v=63
149004 On ch=1 n=g6 v=51
149010 On ch=1 n=c7 v=63
149158 On ch=1 n=e2 v=63
149180 On ch=1 n=e3 v=64
149220 On ch=1 n=e2 v=0
149242 On ch=1 n=e3 v=0
149402 On ch=1 n=a2 v=63
149422 Par ch=1 c=64 v=63
149430 Par ch=1 c=64 v=0
149446 On ch=1 n=a3 v=30
149478 Par ch=1 c=64 v=63
149494 Par ch=1 c=64 v=127
149522 On ch=1 n=a2 v=0
149560 On ch=1 n=a3 v=0
149574 On ch=1 n=g6 v=0
149580 On ch=1 n=a6 v=0
149600 On ch=1 n=a7 v=0
149628 On ch=1 n=c7 v=0
149660 On ch=1 n=e7 v=0
149948 On ch=1 n=a5 v=24
149950 On ch=1 n=a7 v=47
149950 On ch=1 n=g5 v=27
149952 On ch=1 n=a6 v=34
149954 On ch=1 n=g7 v=52
149954 On ch=1 n=g6 v=32
149956 On ch=1 n=e7 v=41
149956 On ch=1 n=c7 v=40
149972 On ch=1 n=c5 v=46
150000 On ch=1 n=a5 v=0
150008 On ch=1 n=g5 v=0
150050 On ch=1 n=c5 v=0
150446 On ch=1 n=e3 v=41
150464 On ch=1 n=e2 v=33
150902 On ch=1 n=a3 v=46
150924 On ch=1 n=a2 v=51
150942 Par ch=1 c=64 v=63
150962 On ch=1 n=e3 v=0
150974 On ch=1 n=e2 v=0
151048 Par ch=1 c=64 v=127
151070 On ch=1 n=a2 v=0
151176 On ch=1 n=a3 v=0
151394 On ch=1 n=g6 v=0
151402 On ch=1 n=a6 v=0
151446 On ch=1 n=g7 v=0
151450 On ch=1 n=a7 v=0
151488 On ch=1 n=c7 v=0
151514 On ch=1 n=e7 v=0
151618 On ch=1 n=g5 v=41
151618 On ch=1 n=a5 v=51
151636 On ch=1 n=e5 v=36
151656 On ch=1 n=c5 v=25
151944 On ch=1 n=e5 v=0
151962 On ch=1 n=c5 v=0
151988 On ch=1 n=a5 v=0
151994 On ch=1 n=g5 v=0
152508 Par ch=1 c=67 v=0
152812 On ch=1 n=g4 v=93
153172 Par ch=1 c=64 v=63
153228 Par ch=1 c=64 v=0
153738 Par ch=1 c=64 v=63
153754 Par ch=1 c=64 v=127
154078 On ch=1 n=a4 v=90
154170 On ch=1 n=g4 v=0
154250 Par ch=1 c=64 v=63
154276 Par ch=1 c=64 v=0
154592 On ch=1 n=b4 v=92
154702 On ch=1 n=a4 v=0
156048 Par ch=1 c=64 v=63
156074 Par ch=1 c=64 v=127
156330 On ch=1 n=b4 v=0
156468 On ch=1 n=a4 v=69
156588 On ch=1 n=b4 v=73
156610 On ch=1 n=a4 v=0
156748 On ch=1 n=a4 v=41
156816 On ch=1 n=b4 v=0
156880 Par ch=1 c=64 v=63
156940 Par ch=1 c=64 v=0
158798 On ch=1 n=g4 v=46
159074 On ch=1 n=a4 v=0
159394 On ch=1 n=f#4 v=81
159500 On ch=1 n=g4 v=0
159904 On ch=1 n=a4 v=60
160062 On ch=1 n=f#4 v=0
160102 Par ch=1 c=64 v=63
160138 Par ch=1 c=64 v=127
160180 Par ch=1 c=64 v=63
160192 Par ch=1 c=64 v=0
160336 Par ch=1 c=64 v=63
160350 Par ch=1 c=64 v=127
160590 On ch=1 n=a4 v=0
160704 On ch=1 n=f#4 v=85
160832 On ch=1 n=a4 v=60
160840 On ch=1 n=f#4 v=0
160956 On ch=1 n=f#4 v=42
160992 Par ch=1 c=64 v=63
161024 On ch=1 n=a4 v=0
161052 Par ch=1 c=64 v=0
163544 On ch=1 n=e4 v=34
163954 On ch=1 n=f#4 v=0
164504 Par ch=1 c=67 v=127
165128 On ch=1 n=g3 v=36
165166 On ch=1 n=g2 v=27
165210 On ch=1 n=e4 v=0
165216 Par ch=1 c=64 v=63
165222 Par ch=1 c=64 v=127
165360 On ch=1 n=g2 v=0
165392 On ch=1 n=g3 v=0
165970 On ch=1 n=a7 v=68
165994 On ch=1 n=e7 v=23
165994 On ch=1 n=d7 v=50
165998 On ch=1 n=d5 v=42
166000 On ch=1 n=a5 v=37
166004 On ch=1 n=a6 v=40
166006 On ch=1 n=b4 v=38
166008 On ch=1 n=g5 v=40
166008 On ch=1 n=g6 v=42
166022 On ch=1 n=e5 v=39
166090 On ch=1 n=a5 v=0
166094 On ch=1 n=g5 v=0
166096 On ch=1 n=d5 v=0
166098 On ch=1 n=e5 v=0
166138 On ch=1 n=b4 v=0
166532 On ch=1 n=d2 v=72
166550 On ch=1 n=d3 v=31
166622 On ch=1 n=d2 v=0
166640 On ch=1 n=d3 v=0
166968 Par ch=1 c=64 v=63
166994 On ch=1 n=g2 v=68
167004 On ch=1 n=g3 v=61
167050 Par ch=1 c=64 v=127
167090 On ch=1 n=g2 v=0
167138 On ch=1 n=g3 v=0
167172 On ch=1 n=g6 v=0
167182 On ch=1 n=a6 v=0
167206 On ch=1 n=a7 v=0
167216 On ch=1 n=d7 v=0
167238 On ch=1 n=e7 v=0
167554 On ch=1 n=a7 v=68
167564 On ch=1 n=e7 v=58
167566 On ch=1 n=d7 v=62
167566 On ch=1 n=a6 v=55
167570 On ch=1 n=g6 v=55
167574 On ch=1 n=d5 v=22
167576 On ch=1 n=a5 v=45
167588 On ch=1 n=g5 v=51
167592 On ch=1 n=e5 v=42
167594 On ch=1 n=b4 v=32
167676 On ch=1 n=g6 v=0
167680 On ch=1 n=a6 v=0
167680 On ch=1 n=a7 v=0
167692 On ch=1 n=a5 v=0
167696 On ch=1 n=g5 v=0
167702 On ch=1 n=d7 v=0
167708 On ch=1 n=e7 v=0
167714 On ch=1 n=e5 v=0
167728 On ch=1 n=d5 v=0
167772 On ch=1 n=b4 v=0
167782 On ch=1 n=a7 v=65
167792 On ch=1 n=e7 v=55
167792 On ch=1 n=d7 v=42
167810 On ch=1 n=a6 v=23
167878 On ch=1 n=a6 v=0
167888 On ch=1 n=a7 v=0
167892 On ch=1 n=d7 v=0
167914 On ch=1 n=e7 v=0
167966 On ch=1 n=a7 v=59
167984 On ch=1 n=a6 v=39
167988 On ch=1 n=e7 v=68
167990 On ch=1 n=g6 v=42
167990 On ch=1 n=d7 v=52
168138 On ch=1 n=d2 v=69
168168 On ch=1 n=d3 v=56
168208 On ch=1 n=d2 v=0
168234 On ch=1 n=d3 v=0
168458 On ch=1 n=g2 v=39
168472 On ch=1 n=g3 v=44
168504 Par ch=1 c=64 v=63
168576 Par ch=1 c=64 v=127
168634 On ch=1 n=g2 v=0
168724 On ch=1 n=g3 v=0
168902 On ch=1 n=g6 v=0
168916 On ch=1 n=a6 v=0
169056 On ch=1 n=d7 v=0
169102 On ch=1 n=a7 v=0
169104 On ch=1 n=e7 v=0
169228 On ch=1 n=e5 v=32
169238 On ch=1 n=b4 v=38
169240 On ch=1 n=a5 v=37
169244 On ch=1 n=g5 v=34
169248 On ch=1 n=d5 v=7
170122 Par ch=1 c=67 v=0
170412 On ch=1 n=b4 v=0
170442 On ch=1 n=a5 v=0
170446 On ch=1 n=g5 v=0
170450 On ch=1 n=d5 v=0
170464 On ch=1 n=e5 v=0
170662 On ch=1 n=e4 v=90
170890 Par ch=1 c=64 v=63
170948 Par ch=1 c=64 v=0
171864 On ch=1 n=f#4 v=116
171952 On ch=1 n=e4 v=0
172396 On ch=1 n=g4 v=107
172488 On ch=1 n=f#4 v=0
172652 Par ch=1 c=64 v=63
172664 Par ch=1 c=64 v=127
172894 On ch=1 n=g4 v=0
172938 On ch=1 n=g4 v=101
173194 On ch=1 n=d5 v=98
173266 On ch=1 n=g4 v=0
173564 Par ch=1 c=64 v=63
173618 Par ch=1 c=64 v=0
175292 On ch=1 n=e5 v=102
175456 On ch=1 n=d5 v=0
175632 Par ch=1 c=64 v=63
175690 Par ch=1 c=64 v=127
175780 Par ch=1 c=64 v=63
175930 Par ch=1 c=64 v=0
175970 On ch=1 n=c#5 v=109
176054 On ch=1 n=e5 v=0
176124 Par ch=1 c=64 v=63
176182 Par ch=1 c=64 v=127
176510 On ch=1 n=d5 v=93
176650 On ch=1 n=c#5 v=0
176698 Par ch=1 c=64 v=63
176904 Par ch=1 c=64 v=127
176924 On ch=1 n=b4 v=79
177034 On ch=1 n=d5 v=0
177206 Par ch=1 c=64 v=63
177300 Par ch=1 c=64 v=0
177308 On ch=1 n=c#5 v=84
177484 On ch=1 n=b4 v=0
177610 On ch=1 n=a4 v=77
177668 Par ch=1 c=64 v=63
177714 On ch=1 n=c#5 v=0
177760 Par ch=1 c=64 v=127
177856 On ch=1 n=b4 v=77
177934 Par ch=1 c=64 v=63
177936 On ch=1 n=a4 v=0
178032 Par ch=1 c=64 v=0
178078 On ch=1 n=g4 v=55
178120 On ch=1 n=b4 v=0
178176 Par ch=1 c=64 v=63
178306 On ch=1 n=a4 v=73
178412 On ch=1 n=g4 v=0
178510 On ch=1 n=f#4 v=87
178564 On ch=1 n=a4 v=0
178698 On ch=1 n=g4 v=79
178758 On ch=1 n=f#4 v=0
178896 On ch=1 n=e4 v=83
178942 On ch=1 n=g4 v=0
179084 On ch=1 n=f#4 v=86
179172 On ch=1 n=e4 v=0
179314 On ch=1 n=d4 v=77
179368 On ch=1 n=f#4 v=0
179630 On ch=1 n=e4 v=64
179752 On ch=1 n=d4 v=0
180024 On ch=1 n=c#4 v=69
180168 On ch=1 n=e4 v=0
180190 Par ch=1 c=64 v=0
181514 Par ch=1 c=64 v=63
181562 Par ch=1 c=64 v=127
181864 On ch=1 n=b3 v=52
181960 On ch=1 n=c#4 v=0
182206 Par ch=1 c=64 v=63
182378 Par ch=1 c=64 v=127
182428 On ch=1 n=c#4 v=80
182560 Par ch=1 c=64 v=63
182578 On ch=1 n=b3 v=0
182744 Par ch=1 c=64 v=127
182816 On ch=1 n=e4 v=94
182848 Par ch=1 c=64 v=63
182882 Par ch=1 c=64 v=0
182966 Par ch=1 c=64 v=63
183008 Par ch=1 c=64 v=127
183080 On ch=1 n=c#4 v=0
183212 On ch=1 n=e4 v=0
183444 On ch=1 n=d4 v=93
183572 On ch=1 n=f4 v=74
183584 Par ch=1 c=64 v=63
183632 Par ch=1 c=64 v=0
183634 On ch=1 n=d4 v=0
183694 On ch=1 n=d4 v=51
183768 On ch=1 n=f4 v=0
186090 On ch=1 n=c#4 v=45
186184 On ch=1 n=d4 v=0
187608 Par ch=1 c=67 v=127
187894 On ch=1 n=f#3 v=42
187908 On ch=1 n=f#2 v=28
187910 On ch=1 n=c#4 v=0
188054 Par ch=1 c=64 v=63
188066 Par ch=1 c=64 v=127
188170 On ch=1 n=f#2 v=0
188204 On ch=1 n=f#3 v=0
188576 On ch=1 n=a#4 v=23
188580 On ch=1 n=c#5 v=50
188594 On ch=1 n=a7 v=51
188600 On ch=1 n=e5 v=44
188602 On ch=1 n=c#7 v=44
188606 On ch=1 n=a5 v=37
188606 On ch=1 n=a6 v=46
188606 On ch=1 n=g5 v=35
188610 On ch=1 n=a#6 v=42
188610 On ch=1 n=e7 v=56
188748 Par ch=1 c=64 v=63
188752 Par ch=1 c=64 v=127
188854 Par ch=1 c=64 v=63
188860 Par ch=1 c=64 v=127
188938 On ch=1 n=a5 v=0
188954 On ch=1 n=g5 v=0
188958 On ch=1 n=e5 v=0
188978 On ch=1 n=c#5 v=0
189006 On ch=1 n=a#4 v=0
189288 On ch=1 n=c#2 v=61
189318 On ch=1 n=c#3 v=16
189368 On ch=1 n=c#3 v=0
189368 On ch=1 n=c#2 v=0
189750 On ch=1 n=f#3 v=58
189750 On ch=1 n=f#2 v=65
189788 Par ch=1 c=64 v=63
189820 Par ch=1 c=64 v=127
189824 On ch=1 n=f#2 v=0
189848 On ch=1 n=f#3 v=0
189920 On ch=1 n=a#6 v=0
189924 On ch=1 n=a6 v=0
189948 On ch=1 n=c#7 v=0
189960 On ch=1 n=e7 v=0
189970 On ch=1 n=a7 v=0
190288 On ch=1 n=c#5 v=63
190290 On ch=1 n=g5 v=48
190290 On ch=1 n=a5 v=53
190296 On ch=1 n=a#4 v=58
190298 On ch=1 n=e5 v=53
190304 On ch=1 n=a7 v=79
190312 On ch=1 n=a6 v=65
190312 On ch=1 n=c#7 v=69
190312 On ch=1 n=a#6 v=60
190314 On ch=1 n=e7 v=68
190382 On ch=1 n=a5 v=0
190390 On ch=1 n=e5 v=0
190392 On ch=1 n=g5 v=0
190406 On ch=1 n=a#6 v=0
190406 On ch=1 n=a6 v=0
190408 On ch=1 n=a7 v=0
190412 On ch=1 n=c#5 v=0
190414 On ch=1 n=c#7 v=0
190432 On ch=1 n=e7 v=0
190464 On ch=1 n=a#4 v=0
190488 On ch=1 n=a7 v=60
190498 On ch=1 n=a6 v=54
190500 On ch=1 n=a#6 v=50
190500 On ch=1 n=c#7 v=54
190504 On ch=1 n=e7 v=74
190586 On ch=1 n=a#6 v=0
190586 On ch=1 n=a6 v=0
190594 On ch=1 n=a7 v=0
190598 On ch=1 n=c#7 v=0
190618 On ch=1 n=e7 v=0
190692 On ch=1 n=a7 v=80
190706 On ch=1 n=e7 v=61
190716 On ch=1 n=c#7 v=68
190726 On ch=1 n=a6 v=41
190730 On ch=1 n=a#6 v=31
190804 On ch=1 n=a7 v=0
190810 On ch=1 n=e7 v=0
190812 On ch=1 n=c#7 v=0
190818 On ch=1 n=a#6 v=0
190836 On ch=1 n=a6 v=0
190844 On ch=1 n=c#2 v=75
190860 On ch=1 n=c#3 v=61
190900 On ch=1 n=c#2 v=0
190914 On ch=1 n=c#3 v=0
191070 On ch=1 n=f#2 v=61
191086 Par ch=1 c=64 v=63
191096 On ch=1 n=f#3 v=71
191100 Par ch=1 c=64 v=0
191134 Par ch=1 c=64 v=63
191154 Par ch=1 c=64 v=127
191170 On ch=1 n=f#2 v=0
191196 On ch=1 n=f#3 v=0
191580 On ch=1 n=a6 v=73
191582 On ch=1 n=a#5 v=70
191584 On ch=1 n=a5 v=46
191588 On ch=1 n=g5 v=36
191590 On ch=1 n=c#6 v=80
191590 On ch=1 n=e6 v=71
191592 On ch=1 n=e5 v=39
191596 On ch=1 n=c#5 v=51
191600 On ch=1 n=a#4 v=28
191642 On ch=1 n=a5 v=0
191644 On ch=1 n=g5 v=0
191658 On ch=1 n=e5 v=0
191680 On ch=1 n=c#5 v=0
191710 On ch=1 n=a#4 v=0
191958 On ch=1 n=a6 v=0
191988 On ch=1 n=c#2 v=81
191994 On ch=1 n=c#3 v=63
192000 On ch=1 n=e6 v=0
192026 On ch=1 n=c#6 v=0
192034 On ch=1 n=a#5 v=0
192038 On ch=1 n=c#2 v=0
192064 On ch=1 n=c#3 v=0
192326 Par ch=1 c=64 v=63
192338 Par ch=1 c=64 v=0
192354 On ch=1 n=f#2 v=88
192358 On ch=1 n=f#3 v=79
192392 Par ch=1 c=64 v=63
192408 Par ch=1 c=64 v=127
192416 On ch=1 n=f#2 v=0
192430 On ch=1 n=f#3 v=0
192790 On ch=1 n=e4 v=52
192796 On ch=1 n=a5 v=73
192802 On ch=1 n=a#3 v=61
192806 On ch=1 n=a4 v=55
192806 On ch=1 n=a#4 v=51
192810 On ch=1 n=c#5 v=70
192814 On ch=1 n=c#4 v=74
192830 On ch=1 n=e5 v=60
192864 On ch=1 n=a#4 v=0
192874 On ch=1 n=c#5 v=0
192874 On ch=1 n=a4 v=0
192884 On ch=1 n=e5 v=0
192890 On ch=1 n=e4 v=0
192894 On ch=1 n=a5 v=0
192910 On ch=1 n=c#4 v=0
192946 On ch=1 n=a#4 v=70
192950 On ch=1 n=a#3 v=0
192950 On ch=1 n=a5 v=64
192952 On ch=1 n=c#5 v=61
192972 On ch=1 n=e5 v=72
193026 On ch=1 n=a#4 v=0
193042 On ch=1 n=a5 v=0
193044 On ch=1 n=c#5 v=0
193078 On ch=1 n=e5 v=0
193158 On ch=1 n=a5 v=61
193170 On ch=1 n=e5 v=51
193172 On ch=1 n=c#5 v=69
193178 On ch=1 n=a#4 v=25
193238 On ch=1 n=a5 v=0
193258 On ch=1 n=e5 v=0
193262 On ch=1 n=c#5 v=0
193282 On ch=1 n=a#4 v=0
193304 On ch=1 n=c#2 v=75
193330 On ch=1 n=c#3 v=39
193382 On ch=1 n=c#3 v=0
193434 On ch=1 n=c#2 v=0
193522 On ch=1 n=f#3 v=75
193522 On ch=1 n=f#2 v=86
193550 Par ch=1 c=64 v=63
193560 Par ch=1 c=64 v=0
193618 Par ch=1 c=64 v=63
193636 Par ch=1 c=64 v=127
193824 On ch=1 n=f#2 v=0
193824 On ch=1 n=f#3 v=0
193958 On ch=1 n=c#4 v=65
193958 On ch=1 n=a#3 v=52
193960 On ch=1 n=a4 v=65
193980 On ch=1 n=e4 v=63
194298 On ch=1 n=a4 v=0
194304 On ch=1 n=c#2 v=81
194322 On ch=1 n=c#3 v=65
194324 On ch=1 n=e4 v=0
194346 On ch=1 n=c#4 v=0
194396 On ch=1 n=c#2 v=0
194408 On ch=1 n=c#3 v=0
194428 On ch=1 n=a#3 v=0
194682 On ch=1 n=f#2 v=74
194720 Par ch=1 c=64 v=63
194734 Par ch=1 c=64 v=0
194818 Par ch=1 c=64 v=63
194846 Par ch=1 c=64 v=127
195082 On ch=1 n=c#4 v=85
195090 On ch=1 n=a#3 v=73
195092 On ch=1 n=a3 v=71
195156 On ch=1 n=a3 v=0
195160 On ch=1 n=a#3 v=0
195168 On ch=1 n=c#4 v=0
195242 On ch=1 n=c#4 v=68
195244 On ch=1 n=a#3 v=67
195250 On ch=1 n=a3 v=69
195286 On ch=1 n=f#2 v=0
195354 On ch=1 n=a3 v=0
195362 On ch=1 n=a#3 v=0
195388 On ch=1 n=c#4 v=0
195448 On ch=1 n=c#4 v=82
195462 On ch=1 n=a#3 v=67
195464 On ch=1 n=a3 v=63
195576 On ch=1 n=a3 v=0
195582 On ch=1 n=a#3 v=0
195614 On ch=1 n=c#4 v=0
195650 On ch=1 n=c#2 v=83
195666 On ch=1 n=c#3 v=52
195706 On ch=1 n=c#3 v=0
195714 On ch=1 n=c#2 v=0
195882 On ch=1 n=f#3 v=76
195882 On ch=1 n=f#2 v=80
195918 Par ch=1 c=64 v=63
195936 Par ch=1 c=64 v=0
196122 On ch=1 n=f#3 v=0
196130 On ch=1 n=f#2 v=0
196336 On ch=1 n=c#2 v=85
196472 On ch=1 n=c#2 v=0
196742 On ch=1 n=f#2 v=112
196874 On ch=1 n=f#2 v=0
197114 On ch=1 n=c#3 v=120
197242 On ch=1 n=c#3 v=0
197500 On ch=1 n=f#3 v=118
197644 On ch=1 n=f#3 v=0
197998 On ch=1 n=c#4 v=123
198186 On ch=1 n=c#4 v=0
198292 Par ch=1 c=67 v=127
198670 On ch=1 n=f#4 v=124
198678 Par ch=1 c=67 v=0
199230 On ch=1 n=g5 v=85
199232 On ch=1 n=g4 v=83
199232 On ch=1 n=f4 v=89
199234 On ch=1 n=f5 v=92
199454 Par ch=1 c=64 v=63
199474 Par ch=1 c=64 v=127
199740 On ch=1 n=f4 v=0
199748 On ch=1 n=f5 v=0
199748 On ch=1 n=g4 v=0
199750 On ch=1 n=g5 v=0
199860 On ch=1 n=g4 v=59
199860 On ch=1 n=g5 v=68
199864 On ch=1 n=f4 v=67
199866 On ch=1 n=f5 v=71
200228 On ch=1 n=f4 v=0
200236 On ch=1 n=g4 v=0
200246 On ch=1 n=f5 v=0
200248 On ch=1 n=g5 v=0
200358 On ch=1 n=g4 v=51
200362 On ch=1 n=g5 v=56
200362 On ch=1 n=f4 v=58
200368 On ch=1 n=f5 v=53
200670 On ch=1 n=f4 v=0
200686 On ch=1 n=g4 v=0
200694 On ch=1 n=f5 v=0
200698 On ch=1 n=g5 v=0
200842 On ch=1 n=g4 v=31
200852 On ch=1 n=g5 v=39
200852 On ch=1 n=f4 v=32
200860 On ch=1 n=f5 v=37
201148 On ch=1 n=f4 v=0
201170 On ch=1 n=g4 v=0
201180 On ch=1 n=f5 v=0
201184 On ch=1 n=g5 v=0
201418 On ch=1 n=g5 v=29
201426 On ch=1 n=f5 v=25
201432 On ch=1 n=g4 v=11
201450 On ch=1 n=f4 v=12
201748 On ch=1 n=f4 v=0
201756 On ch=1 n=f5 v=0
201758 On ch=1 n=g5 v=0
201770 On ch=1 n=g4 v=0
202162 On ch=1 n=g4 v=17
202174 On ch=1 n=f4 v=20
202184 On ch=1 n=g5 v=27
202192 On ch=1 n=f5 v=21
202330 On ch=1 n=f#4 v=0
202618 On ch=1 n=g5 v=0
202628 On ch=1 n=f5 v=0
202648 On ch=1 n=f4 v=0
202668 On ch=1 n=g4 v=0
202866 On ch=1 n=c#5 v=74
202880 On ch=1 n=c#4 v=63
203420 On ch=1 n=g5 v=30
203424 On ch=1 n=g4 v=14
203426 On ch=1 n=f5 v=30
203438 On ch=1 n=f4 v=17
203448 On ch=1 n=c#5 v=0
203962 On ch=1 n=f4 v=0
203972 On ch=1 n=f5 v=0
203974 On ch=1 n=g5 v=0
203976 On ch=1 n=g4 v=0
204186 On ch=1 n=g4 v=16
204198 On ch=1 n=g5 v=31
204200 On ch=1 n=f4 v=16
204206 On ch=1 n=f5 v=25
204512 On ch=1 n=f5 v=0
204514 On ch=1 n=g5 v=0
204518 On ch=1 n=f4 v=0
204536 On ch=1 n=g4 v=0
204748 On ch=1 n=g4 v=18
204750 On ch=1 n=g5 v=40
204756 On ch=1 n=f5 v=34
204762 On ch=1 n=f4 v=18
204836 On ch=1 n=c#4 v=0
205004 On ch=1 n=c#5 v=98
205014 On ch=1 n=c#4 v=68
205092 On ch=1 n=f5 v=0
205094 On ch=1 n=g5 v=0
205128 On ch=1 n=f4 v=0
205150 On ch=1 n=g4 v=0
205348 On ch=1 n=g4 v=22
205358 On ch=1 n=f4 v=28
205358 On ch=1 n=g5 v=40
205364 On ch=1 n=f5 v=36
205410 On ch=1 n=c#5 v=0
205724 On ch=1 n=f5 v=0
205726 On ch=1 n=g5 v=0
205726 On ch=1 n=f4 v=0
205742 On ch=1 n=g4 v=0
205874 On ch=1 n=g4 v=25
205884 On ch=1 n=g5 v=36
205886 On ch=1 n=f4 v=24
205890 On ch=1 n=f5 v=29
206128 On ch=1 n=f4 v=0
206134 On ch=1 n=f5 v=0
206138 On ch=1 n=g5 v=0
206152 On ch=1 n=g4 v=0
206522 On ch=1 n=g4 v=17
206528 On ch=1 n=g5 v=25
206536 On ch=1 n=f4 v=19
206540 On ch=1 n=f5 v=19
206824 On ch=1 n=f5 v=0
206828 On ch=1 n=g5 v=0
206836 On ch=1 n=f4 v=0
206860 On ch=1 n=g4 v=0
207190 On ch=1 n=g4 v=16
207204 On ch=1 n=f4 v=19
207224 On ch=1 n=g5 v=19
207234 On ch=1 n=f5 v=10
207386 On ch=1 n=c#4 v=0
207516 On ch=1 n=g5 v=0
207518 On ch=1 n=f5 v=0
207570 On ch=1 n=c#5 v=78
207584 On ch=1 n=c#4 v=53
207628 On ch=1 n=f4 v=0
207680 On ch=1 n=g4 v=0
208038 On ch=1 n=g5 v=32
208038 On ch=1 n=g4 v=10
208040 On ch=1 n=c#5 v=0
208046 On ch=1 n=f5 v=25
208066 On ch=1 n=f4 v=9
208108 On ch=1 n=c#4 v=0
208326 On ch=1 n=c#5 v=101
208340 On ch=1 n=c#4 v=76
208380 On ch=1 n=f4 v=0
208408 On ch=1 n=f5 v=0
208410 On ch=1 n=g4 v=0
208412 On ch=1 n=g5 v=0
208638 On ch=1 n=g4 v=40
208644 On ch=1 n=f4 v=46
208644 On ch=1 n=g5 v=53
208650 On ch=1 n=f5 v=51
208722 On ch=1 n=c#5 v=0
208774 On ch=1 n=c#4 v=0
208904 On ch=1 n=f4 v=0
208906 On ch=1 n=c#5 v=108
208920 On ch=1 n=f5 v=0
208922 On ch=1 n=g5 v=0
208924 On ch=1 n=c#4 v=95
208972 On ch=1 n=g4 v=0
209198 On ch=1 n=g4 v=36
209200 On ch=1 n=g5 v=55
209204 On ch=1 n=f4 v=42
209206 On ch=1 n=f5 v=58
209362 Par ch=1 c=64 v=63
209436 Par ch=1 c=64 v=127
209662 On ch=1 n=f5 v=0
209668 On ch=1 n=g5 v=0
209672 On ch=1 n=f4 v=0
209682 On ch=1 n=g4 v=0
209870 On ch=1 n=g5 v=43
209878 On ch=1 n=f5 v=39
209882 On ch=1 n=g4 v=28
209890 On ch=1 n=f4 v=34
209930 On ch=1 n=c#5 v=0
210240 On ch=1 n=f4 v=0
210252 On ch=1 n=g4 v=0
210256 On ch=1 n=c#4 v=0
210284 On ch=1 n=f5 v=0
210288 On ch=1 n=g5 v=0
210302 On ch=1 n=b4 v=97
210340 On ch=1 n=b3 v=66
210398 Par ch=1 c=64 v=63
210406 Par ch=1 c=64 v=0
210480 Par ch=1 c=64 v=63
210500 Par ch=1 c=64 v=127
210766 On ch=1 n=g5 v=38
210776 On ch=1 n=f5 v=31
210782 On ch=1 n=g4 v=30
210790 On ch=1 n=f4 v=33
210856 Par ch=1 c=67 v=127
211464 On ch=1 n=b4 v=0
211482 On ch=1 n=f4 v=0
211494 On ch=1 n=f5 v=0
211498 On ch=1 n=g4 v=0
211498 On ch=1 n=g5 v=0
211546 Par ch=1 c=67 v=127
211750 On ch=1 n=b3 v=0
211844 On ch=1 n=g5 v=19
211856 On ch=1 n=g4 v=6
211860 On ch=1 n=f5 v=10
211878 On ch=1 n=f4 v=5
212128 On ch=1 n=f5 v=0
212132 On ch=1 n=g5 v=0
212164 On ch=1 n=f4 v=0
212180 On ch=1 n=g4 v=0
212320 On ch=1 n=b2 v=51
212506 On ch=1 n=b2 v=0
212654 On ch=1 n=f#2 v=43
212654 On ch=1 n=f#3 v=50
212670 On ch=1 n=g4 v=30
212674 On ch=1 n=f4 v=30
212676 On ch=1 n=g5 v=46
212680 On ch=1 n=f5 v=45
212712 On ch=1 n=f#3 v=0
212762 On ch=1 n=f#2 v=0
212784 On ch=1 n=f4 v=0
212788 On ch=1 n=g4 v=0
212814 On ch=1 n=f5 v=0
212818 On ch=1 n=g5 v=0
212918 Par ch=1 c=64 v=63
212920 On ch=1 n=b2 v=59
212934 Par ch=1 c=64 v=127
213056 On ch=1 n=b2 v=0
213096 Par ch=1 c=64 v=63
213106 Par ch=1 c=64 v=0
213158 On ch=1 n=g5 v=41
213160 On ch=1 n=f5 v=40
213170 On ch=1 n=g4 v=21
213176 On ch=1 n=f4 v=19
213280 On ch=1 n=f4 v=0
213290 On ch=1 n=g4 v=0
213302 On ch=1 n=f5 v=0
213304 On ch=1 n=g5 v=0
213376 On ch=1 n=b2 v=62
213526 On ch=1 n=b2 v=0
213568 On ch=1 n=f#2 v=35
213580 On ch=1 n=f#3 v=30
213592 On ch=1 n=g4 v=33
213594 On ch=1 n=g5 v=40
213596 On ch=1 n=f5 v=40
213596 On ch=1 n=f4 v=33
213656 On ch=1 n=f#3 v=0
213672 On ch=1 n=f#2 v=0
213698 On ch=1 n=f4 v=0
213706 On ch=1 n=g4 v=0
213724 On ch=1 n=f5 v=0
213728 On ch=1 n=g5 v=0
213772 On ch=1 n=b2 v=60
213908 On ch=1 n=b2 v=0
213948 On ch=1 n=f#2 v=33
213966 On ch=1 n=g5 v=34
213968 On ch=1 n=f5 v=34
213970 On ch=1 n=g4 v=23
213974 On ch=1 n=f#3 v=25
213980 On ch=1 n=f4 v=19
214060 On ch=1 n=f#3 v=0
214072 On ch=1 n=f4 v=0
214084 On ch=1 n=g4 v=0
214086 On ch=1 n=f#2 v=0
214104 On ch=1 n=f5 v=0
214108 On ch=1 n=g5 v=0
214164 On ch=1 n=b2 v=63
214232 On ch=1 n=b2 v=0
214360 On ch=1 n=g4 v=33
214362 On ch=1 n=g5 v=38
214364 On ch=1 n=f5 v=37
214366 On ch=1 n=f4 v=32
214466 On ch=1 n=f4 v=0
214474 On ch=1 n=g4 v=0
214490 On ch=1 n=f5 v=0
214492 On ch=1 n=g5 v=0
214584 On ch=1 n=b2 v=66
214742 On ch=1 n=b2 v=0
214758 On ch=1 n=f#3 v=47
214764 On ch=1 n=f#2 v=39
214766 On ch=1 n=g5 v=38
214770 On ch=1 n=f5 v=37
214774 On ch=1 n=g4 v=25
214782 On ch=1 n=f4 v=23
214846 On ch=1 n=f#3 v=0
214864 On ch=1 n=f#2 v=0
214866 On ch=1 n=f4 v=0
214876 On ch=1 n=g4 v=0
214900 On ch=1 n=f5 v=0
214904 On ch=1 n=g5 v=0
214956 On ch=1 n=b2 v=63
215036 On ch=1 n=b2 v=0
215140 On ch=1 n=g5 v=36
215142 On ch=1 n=f5 v=35
215146 On ch=1 n=g4 v=33
215152 On ch=1 n=f4 v=33
215254 On ch=1 n=f4 v=0
215262 On ch=1 n=g4 v=0
215284 On ch=1 n=f5 v=0
215286 On ch=1 n=g5 v=0
215350 On ch=1 n=b2 v=59
215498 On ch=1 n=b2 v=0
215524 On ch=1 n=f#3 v=44
215528 On ch=1 n=f#2 v=42
215538 On ch=1 n=g5 v=36
215540 On ch=1 n=f5 v=36
215546 On ch=1 n=g4 v=27
215558 On ch=1 n=f4 v=21
215636 On ch=1 n=f#3 v=0
215642 On ch=1 n=f4 v=0
215656 On ch=1 n=g4 v=0
215656 On ch=1 n=f#2 v=0
215678 On ch=1 n=f5 v=0
215682 On ch=1 n=g5 v=0
215742 On ch=1 n=b2 v=59
215854 On ch=1 n=b2 v=0
215924 On ch=1 n=f#2 v=30
215942 On ch=1 n=g5 v=31
215944 On ch=1 n=f5 v=30
215946 On ch=1 n=g4 v=28
215954 On ch=1 n=f4 v=28
215980 On ch=1 n=f#3 v=37
216062 On ch=1 n=f4 v=0
216074 On ch=1 n=f#3 v=0
216074 On ch=1 n=g4 v=0
216090 On ch=1 n=f5 v=0
216092 On ch=1 n=g5 v=0
216100 On ch=1 n=f#2 v=0
216226 On ch=1 n=b2 v=54
216410 On ch=1 n=b2 v=0
216494 On ch=1 n=g5 v=29
216498 On ch=1 n=f5 v=28
216504 On ch=1 n=g4 v=22
216514 On ch=1 n=f4 v=22
216720 Par ch=1 c=64 v=63
216730 Par ch=1 c=64 v=127
216882 On ch=1 n=f4 v=0
216886 On ch=1 n=f5 v=0
216890 On ch=1 n=g5 v=0
216892 On ch=1 n=g4 v=0
217194 Par ch=1 c=67 v=0
217428 On ch=1 n=b4 v=84
217460 On ch=1 n=g4 v=45
217466 On ch=1 n=f4 v=50
217470 On ch=1 n=g5 v=48
217472 On ch=1 n=b3 v=42
217472 On ch=1 n=f5 v=48
217540 Par ch=1 c=64 v=63
217546 Par ch=1 c=64 v=0
217734 Par ch=1 c=64 v=63
217738 Par ch=1 c=64 v=127
217882 On ch=1 n=b4 v=0
218016 On ch=1 n=c#5 v=109
218024 On ch=1 n=c#4 v=96
218106 On ch=1 n=b3 v=0
218194 On ch=1 n=f4 v=0
218204 On ch=1 n=g4 v=0
218222 On ch=1 n=f5 v=0
218230 On ch=1 n=g5 v=0
218284 On ch=1 n=c#5 v=0
218488 On ch=1 n=d5 v=93
218500 On ch=1 n=d4 v=93
218518 On ch=1 n=g4 v=75
218520 On ch=1 n=g5 v=73
218522 On ch=1 n=f4 v=80
218526 On ch=1 n=f5 v=78
218548 On ch=1 n=c#4 v=0
218596 Par ch=1 c=64 v=63
218612 Par ch=1 c=64 v=0
218744 Par ch=1 c=64 v=63
218762 Par ch=1 c=64 v=127
218860 On ch=1 n=c#5 v=106
218888 On ch=1 n=c#4 v=114
218948 On ch=1 n=d4 v=0
218976 On ch=1 n=d5 v=0
219072 On ch=1 n=f4 v=0
219090 On ch=1 n=g4 v=0
219138 On ch=1 n=c#5 v=0
219168 On ch=1 n=f5 v=0
219176 On ch=1 n=g5 v=0
219426 On ch=1 n=c#4 v=0
219428 On ch=1 n=e5 v=117
219440 On ch=1 n=e4 v=99
219454 On ch=1 n=g4 v=85
219464 On ch=1 n=f4 v=93
219858 Par ch=1 c=64 v=63
219894 Par ch=1 c=64 v=127
219952 On ch=1 n=f4 v=0
220010 On ch=1 n=g4 v=0
220154 On ch=1 n=g4 v=15
220162 On ch=1 n=g5 v=41
220176 On ch=1 n=f4 v=16
220178 On ch=1 n=f5 v=38
220224 Par ch=1 c=64 v=63
220256 Par ch=1 c=64 v=0
220350 Par ch=1 c=64 v=63
220398 Par ch=1 c=64 v=127
220484 On ch=1 n=f4 v=0
220506 On ch=1 n=g4 v=0
220540 On ch=1 n=f5 v=0
220550 On ch=1 n=g5 v=0
220726 On ch=1 n=g4 v=21
220732 On ch=1 n=f4 v=26
220734 On ch=1 n=g5 v=44
220754 On ch=1 n=f5 v=33
220818 Par ch=1 c=64 v=63
220880 Par ch=1 c=64 v=127
221026 On ch=1 n=f5 v=0
221036 On ch=1 n=f4 v=0
221058 On ch=1 n=g5 v=0
221058 On ch=1 n=g4 v=0
221286 On ch=1 n=g4 v=18
221298 On ch=1 n=f4 v=17
221302 On ch=1 n=g5 v=36
221310 On ch=1 n=f5 v=27
221426 On ch=1 n=f5 v=0
221440 On ch=1 n=f4 v=0
221450 On ch=1 n=g5 v=0
221464 On ch=1 n=g4 v=0
221906 On ch=1 n=g4 v=16
221926 On ch=1 n=f4 v=14
221944 On ch=1 n=g5 v=22
221964 On ch=1 n=f5 v=19
222102 On ch=1 n=e5 v=0
222134 On ch=1 n=f4 v=0
222164 On ch=1 n=g4 v=0
222372 On ch=1 n=d5 v=102
222408 On ch=1 n=e4 v=0
222416 On ch=1 n=d4 v=51
222450 On ch=1 n=g5 v=0
222462 On ch=1 n=f5 v=0
222822 On ch=1 n=g4 v=24
222824 On ch=1 n=f4 v=10
222830 On ch=1 n=g5 v=49
222842 On ch=1 n=f5 v=32
222904 On ch=1 n=f4 v=0
222962 On ch=1 n=d5 v=0
222970 On ch=1 n=d4 v=0
223016 On ch=1 n=g5 v=0
223172 On ch=1 n=c#4 v=85
223176 On ch=1 n=c#5 v=114
223202 On ch=1 n=g4 v=0
223230 On ch=1 n=f5 v=0
223296 Par ch=1 c=64 v=63
223360 Par ch=1 c=64 v=127
223500 On ch=1 n=g4 v=36
223506 On ch=1 n=f4 v=35
223512 On ch=1 n=g5 v=70
223530 On ch=1 n=f5 v=56
223610 On ch=1 n=c#5 v=0
223756 On ch=1 n=f4 v=0
223758 On ch=1 n=g4 v=0
223780 On ch=1 n=b4 v=107
223790 On ch=1 n=b3 v=99
223830 On ch=1 n=g5 v=0
223838 Par ch=1 c=64 v=63
223852 On ch=1 n=f5 v=0
223862 Par ch=1 c=64 v=0
223870 On ch=1 n=c#4 v=0
223958 Par ch=1 c=64 v=63
223986 Par ch=1 c=64 v=127
224070 On ch=1 n=g4 v=43
224074 On ch=1 n=g5 v=76
224076 On ch=1 n=f4 v=43
224086 On ch=1 n=f5 v=68
224320 On ch=1 n=b4 v=0
224364 On ch=1 n=b3 v=0
224424 On ch=1 n=b3 v=84
224426 On ch=1 n=b4 v=111
224428 On ch=1 n=f4 v=0
224438 On ch=1 n=g4 v=0
224492 On ch=1 n=g5 v=0
224506 On ch=1 n=f5 v=0
224600 Par ch=1 c=64 v=63
224634 Par ch=1 c=64 v=0
224836 On ch=1 n=g5 v=71
224838 On ch=1 n=f5 v=59
224870 On ch=1 n=g4 v=29
224878 On ch=1 n=f4 v=31
225054 Par ch=1 c=64 v=63
225070 Par ch=1 c=64 v=127
225222 On ch=1 n=g5 v=0
225244 On ch=1 n=f5 v=0
225262 On ch=1 n=f4 v=0
225266 On ch=1 n=g4 v=0
225402 On ch=1 n=g5 v=62
225416 On ch=1 n=f5 v=25
225442 On ch=1 n=g4 v=27
225452 On ch=1 n=f4 v=25
225514 On ch=1 n=b4 v=0
225558 On ch=1 n=b3 v=0
225582 On ch=1 n=f5 v=0
225614 On ch=1 n=g5 v=0
225804 On ch=1 n=a#3 v=63
225804 On ch=1 n=a#4 v=105
225830 Par ch=1 c=64 v=63
225838 On ch=1 n=f4 v=0
225844 On ch=1 n=g4 v=0
225854 Par ch=1 c=64 v=0
225962 Par ch=1 c=64 v=63
225986 Par ch=1 c=64 v=127
226250 On ch=1 n=g5 v=57
226264 On ch=1 n=f5 v=45
226272 On ch=1 n=g4 v=28
226282 On ch=1 n=f4 v=28
226388 On ch=1 n=g5 v=0
226404 On ch=1 n=f4 v=0
226404 On ch=1 n=g4 v=0
226404 On ch=1 n=f5 v=0
226420 On ch=1 n=a#3 v=0
226432 On ch=1 n=a#4 v=0
226866 On ch=1 n=a#3 v=96
226882 On ch=1 n=a#4 v=116
226926 Par ch=1 c=64 v=63
226936 Par ch=1 c=64 v=0
226948 On ch=1 n=a#3 v=0
226952 On ch=1 n=b3 v=81
226972 On ch=1 n=b4 v=77
226976 On ch=1 n=a#4 v=0
227016 On ch=1 n=a#3 v=80
227052 On ch=1 n=a#4 v=104
227062 On ch=1 n=b3 v=0
227098 On ch=1 n=b4 v=0
227176 On ch=1 n=f#3 v=106
227186 On ch=1 n=f#4 v=120
227192 On ch=1 n=a#3 v=0
227204 On ch=1 n=a#4 v=0
227328 Par ch=1 c=64 v=63
227330 Par ch=1 c=64 v=127
227362 Par ch=1 c=67 v=127
227538 On ch=1 n=f#4 v=0
227570 On ch=1 n=f#3 v=0
227726 On ch=1 n=f#4 v=70
227762 On ch=1 n=c#5 v=60
227762 On ch=1 n=f#5 v=63
227766 On ch=1 n=g5 v=76
228102 On ch=1 n=c#5 v=0
228104 On ch=1 n=f#4 v=0
228122 On ch=1 n=f#5 v=0
228136 On ch=1 n=g5 v=0
228322 On ch=1 n=f#5 v=67
228326 On ch=1 n=g5 v=57
228330 On ch=1 n=c#5 v=57
228434 On ch=1 n=f#4 v=5
228544 On ch=1 n=f#2 v=74
228596 On ch=1 n=c#5 v=0
228618 On ch=1 n=f#5 v=0
228626 On ch=1 n=g5 v=0
228640 On ch=1 n=f#4 v=0
228798 On ch=1 n=f#4 v=72
228800 On ch=1 n=c#3 v=84
228802 On ch=1 n=f#3 v=75
228818 On ch=1 n=c#5 v=65
228820 On ch=1 n=f#5 v=65
228822 On ch=1 n=g5 v=41
228832 On ch=1 n=f#2 v=0
228848 On ch=1 n=f#3 v=0
228864 On ch=1 n=c#3 v=0
228902 On ch=1 n=f#4 v=0
228906 On ch=1 n=c#5 v=0
228930 On ch=1 n=f#5 v=0
228936 On ch=1 n=g5 v=0
229056 On ch=1 n=f#2 v=77
229246 On ch=1 n=f#4 v=51
229262 On ch=1 n=f#5 v=63
229264 On ch=1 n=f#2 v=0
229266 On ch=1 n=c#5 v=57
229276 On ch=1 n=g5 v=28
229354 On ch=1 n=c#5 v=0
229358 On ch=1 n=f#4 v=0
229390 On ch=1 n=g5 v=0
229396 On ch=1 n=f#5 v=0
229478 On ch=1 n=f#2 v=51
229482 Par ch=1 c=64 v=63
229494 Par ch=1 c=64 v=127
229650 Par ch=1 c=64 v=63
229652 On ch=1 n=f#2 v=0
229660 Par ch=1 c=64 v=0
229672 On ch=1 n=c#5 v=61
229672 On ch=1 n=f#5 v=63
229672 On ch=1 n=f#3 v=42
229686 On ch=1 n=c#3 v=43
229688 On ch=1 n=g5 v=21
229736 On ch=1 n=c#3 v=0
229740 On ch=1 n=f#3 v=0
229774 On ch=1 n=c#5 v=0
229812 On ch=1 n=g5 v=0
229816 On ch=1 n=f#5 v=0
229834 Par ch=1 c=64 v=63
229844 Par ch=1 c=64 v=127
229862 On ch=1 n=f#2 v=82
230036 On ch=1 n=f#2 v=0
230062 On ch=1 n=f#5 v=63
230068 Par ch=1 c=64 v=63
230072 On ch=1 n=c#3 v=52
230072 On ch=1 n=c#5 v=61
230078 On ch=1 n=g5 v=33
230080 Par ch=1 c=64 v=0
230082 On ch=1 n=f#3 v=27
230130 On ch=1 n=c#3 v=0
230142 On ch=1 n=f#3 v=0
230170 On ch=1 n=c#5 v=0
230194 Par ch=1 c=64 v=63
230204 Par ch=1 c=64 v=127
230216 On ch=1 n=g5 v=0
230220 On ch=1 n=f#5 v=0
230246 On ch=1 n=f#2 v=82
230394 On ch=1 n=f#2 v=0
230434 Par ch=1 c=64 v=63
230438 On ch=1 n=f#4 v=35
230438 On ch=1 n=f#5 v=66
230446 Par ch=1 c=64 v=0
230446 On ch=1 n=c#5 v=58
230448 On ch=1 n=g5 v=28
230524 On ch=1 n=c#5 v=0
230534 On ch=1 n=f#4 v=0
230566 On ch=1 n=g5 v=0
230570 On ch=1 n=f#5 v=0
230620 On ch=1 n=f#2 v=90
230758 On ch=1 n=f#2 v=0
230794 On ch=1 n=f#3 v=77
230796 On ch=1 n=c#3 v=75
230798 On ch=1 n=g5 v=67
230802 Par ch=1 c=64 v=63
230804 On ch=1 n=f#4 v=43
230806 On ch=1 n=f#5 v=72
230812 On ch=1 n=c#5 v=65
230838 On ch=1 n=c#3 v=0
230854 On ch=1 n=f#3 v=0
230870 On ch=1 n=c#5 v=0
230874 On ch=1 n=f#4 v=0
230914 On ch=1 n=f#5 v=0
230914 Par ch=1 c=64 v=0
230932 On ch=1 n=g5 v=0
230984 On ch=1 n=f#2 v=104
231050 Par ch=1 c=64 v=63
231066 Par ch=1 c=64 v=127
231118 On ch=1 n=f#2 v=0
231160 On ch=1 n=f#4 v=76
231172 On ch=1 n=c#5 v=72
231176 On ch=1 n=f#5 v=71
231184 On ch=1 n=g5 v=38
231244 Par ch=1 c=64 v=63
231252 On ch=1 n=f#4 v=0
231264 On ch=1 n=c#5 v=0
231266 Par ch=1 c=64 v=0
231278 On ch=1 n=g5 v=0
231290 On ch=1 n=f#5 v=0
231292 Par ch=1 c=64 v=63
231320 Par ch=1 c=64 v=127
231326 On ch=1 n=f#2 v=108
231406 On ch=1 n=f#2 v=0
231458 Par ch=1 c=64 v=63
231480 Par ch=1 c=64 v=0
231500 On ch=1 n=f#4 v=88
231502 Par ch=1 c=64 v=63
231510 On ch=1 n=f#5 v=81
231512 On ch=1 n=c#5 v=80
231516 On ch=1 n=g5 v=57
231526 Par ch=1 c=64 v=127
231528 On ch=1 n=f#3 v=103
231546 On ch=1 n=c#3 v=57
231566 On ch=1 n=c3 v=54
231578 On ch=1 n=f#4 v=0
231590 On ch=1 n=c#3 v=0
231600 On ch=1 n=f#3 v=0
231604 On ch=1 n=c#5 v=0
231608 On ch=1 n=g5 v=0
231610 On ch=1 n=c3 v=0
231624 On ch=1 n=f#5 v=0
231688 On ch=1 n=f#2 v=88
231766 On ch=1 n=f#2 v=0
231830 On ch=1 n=f#4 v=79
231840 On ch=1 n=f#5 v=80
231840 On ch=1 n=c#5 v=77
231842 Par ch=1 c=64 v=63
231846 On ch=1 n=g5 v=52
231856 Par ch=1 c=64 v=0
231856 On ch=1 n=f#3 v=84
231870 On ch=1 n=c#3 v=84
231900 Par ch=1 c=64 v=63
231908 On ch=1 n=c#3 v=0
231920 On ch=1 n=f#4 v=0
231924 On ch=1 n=f#3 v=0
231934 On ch=1 n=c#5 v=0
231952 Par ch=1 c=64 v=0
231956 On ch=1 n=g5 v=0
231968 On ch=1 n=f#5 v=0
232016 On ch=1 n=f#2 v=116
232026 Par ch=1 c=64 v=63
232046 Par ch=1 c=64 v=127
232188 On ch=1 n=f#4 v=72
232198 On ch=1 n=c#5 v=75
232198 On ch=1 n=f#5 v=68
232200 On ch=1 n=g5 v=47
232252 On ch=1 n=f#2 v=0
232276 On ch=1 n=f#4 v=0
232294 On ch=1 n=c#5 v=0
232302 On ch=1 n=g5 v=0
232310 On ch=1 n=f#5 v=0
232314 Par ch=1 c=64 v=63
232352 On ch=1 n=f#2 v=106
232368 Par ch=1 c=64 v=127
232440 On ch=1 n=f#2 v=0
232538 On ch=1 n=f#4 v=85
232550 On ch=1 n=c#5 v=76
232552 On ch=1 n=f#5 v=74
232560 On ch=1 n=g5 v=34
232562 On ch=1 n=c#3 v=95
232584 Par ch=1 c=64 v=63
232590 Par ch=1 c=64 v=0
232628 On ch=1 n=f#4 v=0
232636 On ch=1 n=c#5 v=0
232650 Par ch=1 c=64 v=63
232662 On ch=1 n=g5 v=0
232666 On ch=1 n=f#5 v=0
232666 Par ch=1 c=64 v=127
232718 On ch=1 n=f#3 v=88
232748 On ch=1 n=c#3 v=0
232866 On ch=1 n=f#3 v=0
232868 On ch=1 n=f#4 v=81
232876 On ch=1 n=c#5 v=75
232878 On ch=1 n=f#5 v=76
232880 On ch=1 n=c#4 v=80
232894 On ch=1 n=g5 v=36
232944 On ch=1 n=f#4 v=0
232952 On ch=1 n=c#5 v=0
232966 On ch=1 n=g5 v=0
232976 On ch=1 n=c#4 v=0
232978 On ch=1 n=f#5 v=0
233026 On ch=1 n=c#3 v=98
233046 Par ch=1 c=67 v=0
233196 On ch=1 n=f#4 v=73
233196 On ch=1 n=f#5 v=84
233200 On ch=1 n=c#5 v=79
233202 On ch=1 n=f#3 v=100
233204 On ch=1 n=g5 v=56
233232 On ch=1 n=c#3 v=0
233244 On ch=1 n=f#4 v=0
233262 On ch=1 n=c#5 v=0
233294 On ch=1 n=g5 v=0
233306 On ch=1 n=f#5 v=0
233340 On ch=1 n=c#4 v=105
233342 On ch=1 n=f#3 v=0
233426 On ch=1 n=c#4 v=0
233512 On ch=1 n=f#4 v=99
233524 On ch=1 n=f#5 v=83
233526 On ch=1 n=c#5 v=80
233532 On ch=1 n=g5 v=45
233572 On ch=1 n=c#5 v=0
233578 On ch=1 n=f#4 v=0
233596 On ch=1 n=g5 v=0
233608 On ch=1 n=f#5 v=0
233670 Par ch=1 c=64 v=63
233680 Par ch=1 c=64 v=0
233726 On ch=1 n=f#3 v=98
233748 Par ch=1 c=64 v=63
233764 Par ch=1 c=64 v=127
233808 On ch=1 n=f#3 v=0
233812 On ch=1 n=f#4 v=106
233874 On ch=1 n=f#4 v=0
233946 On ch=1 n=f#4 v=108
234014 On ch=1 n=f#4 v=0
234052 On ch=1 n=f#5 v=100
234134 On ch=1 n=f#5 v=0
234162 On ch=1 n=f#3 v=105
234174 Par ch=1 c=64 v=63
234178 Par ch=1 c=64 v=0
234228 Par ch=1 c=64 v=63
234244 Par ch=1 c=64 v=127
234280 On ch=1 n=f#3 v=0
234298 On ch=1 n=f#4 v=98
234366 On ch=1 n=f#4 v=0
234408 On ch=1 n=f#4 v=103
234474 On ch=1 n=f#4 v=0
234492 On ch=1 n=f#5 v=96
234540 On ch=1 n=f#5 v=0
234594 On ch=1 n=f#5 v=119
234644 On ch=1 n=f#5 v=0
234712 On ch=1 n=f#6 v=110
234786 On ch=1 n=f#6 v=0
234900 On ch=1 n=f#5 v=116
234974 On ch=1 n=f#5 v=0
235010 On ch=1 n=f#5 v=113
235078 On ch=1 n=f#5 v=0
235118 On ch=1 n=f#6 v=110
235186 On ch=1 n=f#6 v=0
235222 On ch=1 n=f#6 v=121
235280 On ch=1 n=f#6 v=0
235356 On ch=1 n=f#7 v=110
235434 On ch=1 n=f#7 v=0
235506 On ch=1 n=f#5 v=72
235548 On ch=1 n=f#5 v=0
235592 On ch=1 n=f#6 v=110
235670 On ch=1 n=f#6 v=0
235732 On ch=1 n=f#6 v=113
235798 On ch=1 n=f#6 v=0
235886 On ch=1 n=f#7 v=116
235970 On ch=1 n=f#7 v=0
236090 On ch=1 n=f#7 v=125
236144 On ch=1 n=f#7 v=0
236368 On ch=1 n=f#8 v=127
236438 On ch=1 n=f#8 v=0
236782 On ch=1 n=f#5 v=125
236874 On ch=1 n=f6 v=97
236876 On ch=1 n=g6 v=93
236902 Par ch=1 c=64 v=127
236916 On ch=1 n=b6 v=69
236964 On ch=1 n=d7 v=90
237002 On ch=1 n=g7 v=90
237018 On ch=1 n=f7 v=88
237136 On ch=1 n=f7 v=0
237382 On ch=1 n=f6 v=0
237408 On ch=1 n=g6 v=0
237428 On ch=1 n=f#6 v=119
237440 On ch=1 n=b6 v=0
237470 On ch=1 n=d7 v=0
237488 On ch=1 n=g7 v=0
237618 On ch=1 n=f#6 v=0
237746 On ch=1 n=f#6 v=114
237748 On ch=1 n=f#5 v=0
237754 On ch=1 n=a7 v=114
237806 On ch=1 n=g7 v=92
237816 On ch=1 n=f#6 v=0
237870 On ch=1 n=f#7 v=106
237878 On ch=1 n=a7 v=0
237906 On ch=1 n=g7 v=0
237926 On ch=1 n=f#6 v=17
237956 On ch=1 n=g7 v=94
237990 On ch=1 n=f#6 v=0
237992 On ch=1 n=f#7 v=0
238092 On ch=1 n=g7 v=0
238154 On ch=1 n=f#7 v=124
238298 On ch=1 n=f#7 v=0
238504 On ch=1 n=f#6 v=90
238508 On ch=1 n=b6 v=75
238512 On ch=1 n=a6 v=84
238530 On ch=1 n=g7 v=104
238532 On ch=1 n=e7 v=101
238538 On ch=1 n=b7 v=112
238586 On ch=1 n=f#6 v=0
238750 On ch=1 n=f#6 v=101
238814 On ch=1 n=b7 v=0
238868 On ch=1 n=a6 v=0
238884 On ch=1 n=b6 v=0
238894 On ch=1 n=e7 v=0
238910 On ch=1 n=g7 v=0
238978 On ch=1 n=f#6 v=0
238988 On ch=1 n=f#5 v=114
239234 On ch=1 n=e7 v=99
239236 On ch=1 n=f#6 v=106
239238 On ch=1 n=g6 v=79
239238 On ch=1 n=c#7 v=96
239238 On ch=1 n=a6 v=88
239244 On ch=1 n=a7 v=103
239254 On ch=1 n=f#5 v=0
239336 On ch=1 n=g6 v=0
239340 On ch=1 n=a6 v=0
239360 On ch=1 n=f#6 v=0
239380 On ch=1 n=a7 v=0
239382 On ch=1 n=c#7 v=0
239382 On ch=1 n=e7 v=0
239470 On ch=1 n=f#5 v=106
239544 On ch=1 n=f#5 v=0
239768 Par ch=1 c=64 v=63
239782 Par ch=1 c=64 v=0
239790 On ch=1 n=c6 v=84
239792 On ch=1 n=d6 v=86
239806 On ch=1 n=f#6 v=94
239808 On ch=1 n=f#4 v=106
239818 On ch=1 n=a6 v=97
239844 On ch=1 n=d7 v=100
239846 Par ch=1 c=64 v=63
239862 Par ch=1 c=64 v=127
240078 On ch=1 n=c6 v=0
240080 On ch=1 n=d6 v=0
240094 On ch=1 n=f#6 v=0
240102 On ch=1 n=d7 v=0
240104 On ch=1 n=a6 v=0
240120 On ch=1 n=f#5 v=118
240124 On ch=1 n=f#4 v=0
240196 On ch=1 n=f#5 v=0
240336 On ch=1 n=f#5 v=91
240350 On ch=1 n=e7 v=107
240398 On ch=1 n=d7 v=97
240464 On ch=1 n=e7 v=0
240468 On ch=1 n=c#7 v=108
240506 On ch=1 n=d7 v=0
240544 On ch=1 n=d7 v=101
240582 On ch=1 n=c#7 v=0
240602 On ch=1 n=f#5 v=0
240616 On ch=1 n=f#6 v=121
240654 On ch=1 n=d7 v=0
240712 On ch=1 n=f#6 v=0
240822 On ch=1 n=e6 v=76
240890 On ch=1 n=g#6 v=98
240908 Par ch=1 c=64 v=63
240914 On ch=1 n=a#6 v=97
240924 On ch=1 n=e6 v=0
240954 Par ch=1 c=64 v=127
240996 On ch=1 n=f#5 v=99
241010 On ch=1 n=c#7 v=101
241038 On ch=1 n=g#6 v=0
241072 On ch=1 n=f#7 v=94
241092 On ch=1 n=a#6 v=0
241156 On ch=1 n=f#5 v=0
241322 On ch=1 n=f#5 v=100
241410 On ch=1 n=f#7 v=0
241464 On ch=1 n=c#7 v=0
241486 On ch=1 n=f#5 v=0
241526 On ch=1 n=f#4 v=106
241718 On ch=1 n=d6 v=70
241728 On ch=1 n=e6 v=61
241744 On ch=1 n=g6 v=84
241750 On ch=1 n=f#5 v=100
241756 On ch=1 n=b6 v=98
241766 On ch=1 n=d6 v=0
241778 On ch=1 n=e6 v=0
241784 On ch=1 n=e7 v=113
241788 On ch=1 n=f#4 v=0
241814 On ch=1 n=g6 v=0
241836 On ch=1 n=b6 v=0
241866 On ch=1 n=f#5 v=0
241872 On ch=1 n=e7 v=0
241988 On ch=1 n=f#4 v=101
242056 On ch=1 n=f#4 v=0
242306 On ch=1 n=g5 v=68
242308 On ch=1 n=a5 v=73
242318 On ch=1 n=f#3 v=107
242336 On ch=1 n=c#6 v=99
242338 On ch=1 n=e6 v=104
242348 Par ch=1 c=64 v=63
242358 Par ch=1 c=64 v=0
242366 On ch=1 n=a6 v=104
242414 Par ch=1 c=64 v=63
242438 Par ch=1 c=64 v=127
242654 On ch=1 n=g5 v=0
242668 On ch=1 n=a5 v=0
242682 On ch=1 n=f#4 v=115
242684 On ch=1 n=c#6 v=0
242700 On ch=1 n=f#3 v=0
242702 On ch=1 n=a6 v=0
242706 On ch=1 n=e6 v=0
242766 On ch=1 n=f#4 v=0
242948 On ch=1 n=b6 v=101
242952 On ch=1 n=f#4 v=65
243004 On ch=1 n=a6 v=92
243066 On ch=1 n=b6 v=0
243074 On ch=1 n=g#6 v=104
243102 On ch=1 n=a6 v=0
243154 On ch=1 n=a6 v=100
243204 On ch=1 n=g#6 v=0
243206 Par ch=1 c=64 v=63
243240 On ch=1 n=f#5 v=116
243252 Par ch=1 c=64 v=127
243338 On ch=1 n=g#6 v=57
243346 On ch=1 n=f#4 v=0
243356 On ch=1 n=a6 v=0
243398 On ch=1 n=g#6 v=0
243450 On ch=1 n=f#5 v=0
243482 On ch=1 n=a#5 v=88
243552 On ch=1 n=e6 v=63
243574 On ch=1 n=a#5 v=0
243592 On ch=1 n=g#6 v=97
243702 On ch=1 n=c#7 v=116
243726 On ch=1 n=f#4 v=85
243814 On ch=1 n=f#4 v=0
244018 On ch=1 n=f#4 v=100
244032 On ch=1 n=c#7 v=0
244048 On ch=1 n=e6 v=0
244062 On ch=1 n=g#6 v=0
244214 On ch=1 n=f#4 v=0
244226 On ch=1 n=f#3 v=107
244446 On ch=1 n=a5 v=59
244448 On ch=1 n=b5 v=65
244462 On ch=1 n=d#6 v=85
244464 On ch=1 n=f#6 v=87
244472 On ch=1 n=f#4 v=90
244484 On ch=1 n=b6 v=108
244504 On ch=1 n=f#3 v=0
244578 On ch=1 n=a5 v=0
244582 On ch=1 n=b5 v=0
244608 On ch=1 n=b6 v=0
244616 On ch=1 n=f#6 v=0
244626 On ch=1 n=d#6 v=0
244662 On ch=1 n=f#4 v=0
244726 On ch=1 n=f#3 v=92
244798 On ch=1 n=f#3 v=0
245084 On ch=1 n=c5 v=67
245084 On ch=1 n=d5 v=63
245090 On ch=1 n=f#2 v=86
245104 On ch=1 n=f#5 v=77
245114 Par ch=1 c=64 v=63
245116 On ch=1 n=a5 v=69
245128 Par ch=1 c=64 v=0
245148 On ch=1 n=d6 v=83
245212 Par ch=1 c=64 v=63
245236 Par ch=1 c=64 v=127
245440 On ch=1 n=c5 v=0
245456 On ch=1 n=d5 v=0
245474 On ch=1 n=f#5 v=0
245496 On ch=1 n=a5 v=0
245496 On ch=1 n=f#3 v=87
245512 On ch=1 n=d6 v=0
245516 On ch=1 n=f#2 v=0
245568 On ch=1 n=f#3 v=0
245816 On ch=1 n=f#4 v=69
245818 On ch=1 n=e6 v=69
245880 On ch=1 n=d6 v=74
245928 On ch=1 n=e6 v=0
245932 On ch=1 n=c#6 v=98
245948 On ch=1 n=d6 v=0
246024 On ch=1 n=d6 v=90
246054 On ch=1 n=c#6 v=0
246070 On ch=1 n=f#4 v=0
246086 On ch=1 n=f#3 v=88
246114 Par ch=1 c=64 v=63
246122 Par ch=1 c=64 v=0
246168 Par ch=1 c=64 v=63
246192 Par ch=1 c=64 v=127
246268 On ch=1 n=d6 v=0
246370 On ch=1 n=f#4 v=99
246398 On ch=1 n=f#3 v=0
246464 On ch=1 n=f#4 v=0
246626 On ch=1 n=e5 v=70
246686 On ch=1 n=g#5 v=76
246718 On ch=1 n=e5 v=0
246738 On ch=1 n=a#5 v=68
246820 On ch=1 n=c#6 v=80
246832 On ch=1 n=f#4 v=50
246838 On ch=1 n=g#5 v=0
246896 On ch=1 n=a#5 v=0
246910 On ch=1 n=f#6 v=80
247354 On ch=1 n=f#5 v=54
247452 On ch=1 n=f#4 v=0
247476 On ch=1 n=c#6 v=0
247536 On ch=1 n=f#6 v=0
247582 On ch=1 n=f#5 v=0
247730 On ch=1 n=f#4 v=57
247794 On ch=1 n=f#4 v=0
247990 On ch=1 n=f#4 v=67
248218 On ch=1 n=f#3 v=76
248220 On ch=1 n=f#4 v=0
248450 On ch=1 n=f#4 v=63
248550 On ch=1 n=f#3 v=0
248568 On ch=1 n=f#4 v=0
248684 On ch=1 n=f#4 v=65
248770 On ch=1 n=f#4 v=0
248918 On ch=1 n=f#5 v=63
249008 On ch=1 n=f#5 v=0
249114 On ch=1 n=f#4 v=57
249204 On ch=1 n=f#4 v=0
249338 On ch=1 n=f#4 v=34
249498 On ch=1 n=f#4 v=0
249552 On ch=1 n=f#3 v=49
249814 On ch=1 n=f#4 v=57
249842 On ch=1 n=f#3 v=0
250004 On ch=1 n=f#4 v=0
250058 On ch=1 n=f#5 v=56
250190 On ch=1 n=f#5 v=0
250270 On ch=1 n=f#4 v=65
250452 On ch=1 n=f#4 v=0
250488 On ch=1 n=f#5 v=75
250600 On ch=1 n=f#5 v=0
250682 On ch=1 n=f#4 v=63
250840 On ch=1 n=f#4 v=0
250912 On ch=1 n=f#5 v=56
251022 On ch=1 n=f#5 v=0
251142 On ch=1 n=f#4 v=50
251308 On ch=1 n=f#4 v=0
251436 On ch=1 n=f#5 v=43
251590 On ch=1 n=f#5 v=0
251676 On ch=1 n=f#4 v=43
251810 On ch=1 n=f#4 v=0
251932 On ch=1 n=f#5 v=34
252032 On ch=1 n=f#5 v=0
252142 On ch=1 n=f#4 v=39
252262 On ch=1 n=f#4 v=0
252366 On ch=1 n=f#5 v=40
252458 On ch=1 n=f#5 v=0
252574 On ch=1 n=f#4 v=35
252696 On ch=1 n=f#4 v=0
252808 On ch=1 n=f#5 v=50
252838 Par ch=1 c=67 v=127
252946 On ch=1 n=f#5 v=0
253044 On ch=1 n=f#4 v=42
253272 On ch=1 n=f#4 v=0
253342 On ch=1 n=g5 v=27
253346 On ch=1 n=g4 v=32
253354 On ch=1 n=f4 v=37
253354 On ch=1 n=f5 v=17
253610 On ch=1 n=f#4 v=45
253686 On ch=1 n=f5 v=0
253692 On ch=1 n=g5 v=0
253698 On ch=1 n=f4 v=0
253710 On ch=1 n=g4 v=0
253742 On ch=1 n=f#4 v=0
253888 On ch=1 n=g5 v=29
253898 On ch=1 n=f5 v=26
253902 On ch=1 n=g4 v=8
253932 On ch=1 n=f4 v=5
254064 On ch=1 n=f4 v=0
254066 On ch=1 n=f5 v=0
254074 On ch=1 n=g5 v=0
254078 On ch=1 n=g4 v=0
254084 On ch=1 n=f#4 v=52
254204 On ch=1 n=f#4 v=0
254330 On ch=1 n=g5 v=33
254332 On ch=1 n=g4 v=18
254338 On ch=1 n=f5 v=34
254342 On ch=1 n=f4 v=19
254512 On ch=1 n=f4 v=0
254518 On ch=1 n=f5 v=0
254522 On ch=1 n=g5 v=0
254522 On ch=1 n=f#4 v=45
254528 On ch=1 n=g4 v=0
254642 On ch=1 n=f#4 v=0
254766 On ch=1 n=g4 v=20
254774 On ch=1 n=f4 v=24
254782 On ch=1 n=g5 v=26
254790 On ch=1 n=f5 v=26
254948 On ch=1 n=f4 v=0
254950 On ch=1 n=f5 v=0
254956 On ch=1 n=g5 v=0
254962 On ch=1 n=g4 v=0
254972 On ch=1 n=f#4 v=42
255092 On ch=1 n=f#4 v=0
255220 On ch=1 n=g4 v=15
255228 On ch=1 n=g5 v=26
255232 On ch=1 n=f4 v=18
255236 On ch=1 n=f5 v=25
255406 On ch=1 n=f4 v=0
255414 On ch=1 n=f#4 v=39
255416 On ch=1 n=f5 v=0
255422 On ch=1 n=g4 v=0
255424 On ch=1 n=g5 v=0
255544 On ch=1 n=f#4 v=0
255668 On ch=1 n=g4 v=18
255680 On ch=1 n=f4 v=20
255688 On ch=1 n=g5 v=22
255698 On ch=1 n=f5 v=20
255884 On ch=1 n=f5 v=0
255886 On ch=1 n=f4 v=0
255886 On ch=1 n=f#4 v=31
255890 On ch=1 n=g5 v=0
255904 On ch=1 n=g4 v=0
256134 On ch=1 n=g4 v=21
256144 On ch=1 n=f4 v=25
256164 On ch=1 n=g5 v=21
256176 On ch=1 n=f5 v=14
256336 On ch=1 n=f5 v=0
256340 On ch=1 n=g5 v=0
256348 On ch=1 n=f4 v=0
256366 On ch=1 n=g4 v=0
256600 On ch=1 n=g4 v=16
256608 On ch=1 n=f4 v=20
256624 On ch=1 n=g5 v=26
256632 On ch=1 n=f5 v=21
256794 On ch=1 n=f4 v=0
256802 On ch=1 n=f5 v=0
256810 On ch=1 n=g5 v=0
256816 On ch=1 n=g4 v=0
257090 On ch=1 n=g4 v=18
257100 On ch=1 n=f4 v=21
257108 On ch=1 n=g5 v=26
257116 On ch=1 n=f5 v=22
257276 On ch=1 n=f4 v=0
257290 On ch=1 n=f5 v=0
257296 On ch=1 n=g4 v=0
257298 On ch=1 n=g5 v=0
257608 On ch=1 n=g4 v=18
257618 On ch=1 n=f4 v=23
257624 On ch=1 n=g5 v=25
257632 On ch=1 n=f5 v=22
257800 On ch=1 n=f5 v=0
257800 On ch=1 n=f4 v=0
257806 On ch=1 n=g5 v=0
257820 On ch=1 n=g4 v=0
258190 On ch=1 n=g4 v=12
258202 On ch=1 n=f4 v=15
258204 On ch=1 n=g5 v=20
258212 On ch=1 n=f5 v=18
258416 On ch=1 n=f5 v=0
258418 On ch=1 n=f4 v=0
258422 On ch=1 n=g5 v=0
258438 On ch=1 n=g4 v=0
258962 On ch=1 n=g4 v=8
258970 On ch=1 n=g5 v=17
258980 On ch=1 n=f5 v=10
258980 On ch=1 n=f4 v=8
259066 On ch=1 n=f#4 v=0
259382 On ch=1 n=f4 v=0
259410 On ch=1 n=g4 v=0
259638 On ch=1 n=f5 v=0
259642 On ch=1 n=c#5 v=108
259646 On ch=1 n=g5 v=0
259678 On ch=1 n=c#4 v=57
259872 Par ch=1 c=64 v=63
260240 On ch=1 n=g5 v=42
260242 On ch=1 n=g4 v=29
260244 On ch=1 n=f5 v=41
260252 On ch=1 n=f4 v=33
260380 Par ch=1 c=64 v=0
260446 Par ch=1 c=64 v=63
260484 Par ch=1 c=64 v=127
260782 On ch=1 n=f4 v=0
260796 On ch=1 n=g4 v=0
260820 On ch=1 n=f5 v=0
260820 On ch=1 n=g5 v=0
260908 On ch=1 n=c#5 v=0
260990 On ch=1 n=g4 v=8
261014 On ch=1 n=f4 v=7
261026 On ch=1 n=g5 v=7
261040 On ch=1 n=f5 v=5
261262 On ch=1 n=f4 v=0
261278 On ch=1 n=g4 v=0
261282 On ch=1 n=f5 v=0
261286 On ch=1 n=g5 v=0
261586 On ch=1 n=g4 v=19
261596 On ch=1 n=g5 v=25
261598 On ch=1 n=f4 v=20
261604 On ch=1 n=f5 v=21
261650 On ch=1 n=c#4 v=0
261888 On ch=1 n=f4 v=0
261904 On ch=1 n=g4 v=0
261950 On ch=1 n=c#4 v=50
261956 On ch=1 n=c#5 v=98
262024 On ch=1 n=f5 v=0
262034 On ch=1 n=g5 v=0
262392 On ch=1 n=g4 v=29
262398 On ch=1 n=g5 v=27
262402 On ch=1 n=f4 v=36
262408 On ch=1 n=f5 v=22
262486 On ch=1 n=c#5 v=0
262722 On ch=1 n=f4 v=0
262740 On ch=1 n=g4 v=0
262760 On ch=1 n=f5 v=0
262766 On ch=1 n=g5 v=0
262978 On ch=1 n=g5 v=33
262988 On ch=1 n=f5 v=25
262988 On ch=1 n=g4 v=25
263000 On ch=1 n=f4 v=31
263224 On ch=1 n=f4 v=0
263236 On ch=1 n=f5 v=0
263240 On ch=1 n=g5 v=0
263254 On ch=1 n=g4 v=0
263698 On ch=1 n=g4 v=17
263714 On ch=1 n=g5 v=16
263714 On ch=1 n=f4 v=18
263740 On ch=1 n=f5 v=7
264086 On ch=1 n=f5 v=0
264104 On ch=1 n=g5 v=0
264136 On ch=1 n=f4 v=0
264160 On ch=1 n=g4 v=0
264210 On ch=1 n=c#4 v=0
264488 On ch=1 n=c#4 v=41
264498 On ch=1 n=c#5 v=66
264738 On ch=1 n=c#4 v=0
264816 On ch=1 n=c#5 v=0
264938 On ch=1 n=c#5 v=90
264956 On ch=1 n=c#4 v=47
265164 On ch=1 n=c#4 v=0
265172 On ch=1 n=c#5 v=0
265270 On ch=1 n=c#4 v=67
265272 On ch=1 n=c#5 v=98
265396 On ch=1 n=c#4 v=0
265424 On ch=1 n=c#5 v=0
265516 On ch=1 n=c#5 v=103
265520 On ch=1 n=c#4 v=77
265638 On ch=1 n=c#4 v=0
265652 On ch=1 n=c#5 v=0
265726 On ch=1 n=c#5 v=93
265738 On ch=1 n=c#4 v=82
265824 On ch=1 n=c#4 v=0
265834 On ch=1 n=c#5 v=0
265912 On ch=1 n=c#5 v=105
265914 On ch=1 n=c#4 v=90
265992 On ch=1 n=c#4 v=0
266004 On ch=1 n=c#5 v=0
266068 On ch=1 n=c#4 v=91
266070 On ch=1 n=c#5 v=100
266144 On ch=1 n=c#4 v=0
266152 On ch=1 n=c#5 v=0
266198 On ch=1 n=c#4 v=101
266206 On ch=1 n=c#5 v=107
266268 On ch=1 n=c#4 v=0
266286 On ch=1 n=c#5 v=0
266334 On ch=1 n=c#5 v=108
266338 On ch=1 n=c#4 v=110
266782 On ch=1 n=g5 v=55
266790 On ch=1 n=f5 v=39
266798 On ch=1 n=g4 v=36
266802 On ch=1 n=f4 v=36
266886 Par ch=1 c=64 v=63
266982 Par ch=1 c=64 v=127
267174 On ch=1 n=g5 v=0
267194 On ch=1 n=g4 v=0
267196 On ch=1 n=f4 v=0
267208 On ch=1 n=f5 v=0
267388 On ch=1 n=g5 v=46
267398 On ch=1 n=f5 v=41
267420 On ch=1 n=g4 v=18
267422 On ch=1 n=f4 v=16
267720 On ch=1 n=g5 v=0
267810 On ch=1 n=b4 v=92
267816 On ch=1 n=f4 v=0
267816 On ch=1 n=g4 v=0
267816 On ch=1 n=b3 v=68
267828 On ch=1 n=f5 v=0
267898 On ch=1 n=c#5 v=0
267906 Par ch=1 c=64 v=63
267910 On ch=1 n=c#4 v=0
267924 Par ch=1 c=64 v=0
267980 Par ch=1 c=64 v=63
268018 Par ch=1 c=64 v=127
268280 On ch=1 n=g5 v=47
268288 On ch=1 n=f5 v=25
268338 On ch=1 n=g4 v=18
268342 On ch=1 n=f4 v=17
268578 On ch=1 n=g4 v=0
268582 On ch=1 n=b4 v=0
268600 On ch=1 n=f4 v=0
268682 On ch=1 n=b3 v=0
268782 On ch=1 n=g5 v=0
268786 On ch=1 n=f5 v=0
269414 On ch=1 n=g5 v=29
269426 On ch=1 n=f5 v=26
269430 On ch=1 n=g4 v=20
269442 On ch=1 n=f4 v=20
269656 On ch=1 n=f5 v=0
269666 On ch=1 n=f4 v=0
269666 On ch=1 n=g5 v=0
269684 On ch=1 n=g4 v=0
269744 On ch=1 n=b2 v=49
269890 On ch=1 n=b2 v=0
269990 On ch=1 n=g5 v=34
269994 On ch=1 n=f#2 v=29
269998 On ch=1 n=g4 v=24
269998 On ch=1 n=f5 v=33
270002 On ch=1 n=f#3 v=38
270006 On ch=1 n=f4 v=26
270076 On ch=1 n=f#3 v=0
270088 On ch=1 n=f#2 v=0
270126 On ch=1 n=f4 v=0
270138 On ch=1 n=f5 v=0
270142 On ch=1 n=g4 v=0
270150 On ch=1 n=g5 v=0
270210 On ch=1 n=b2 v=48
270344 On ch=1 n=b2 v=0
270382 On ch=1 n=g5 v=34
270390 On ch=1 n=g4 v=24
270390 On ch=1 n=f5 v=32
270400 On ch=1 n=f4 v=24
270520 On ch=1 n=f4 v=0
270534 On ch=1 n=g4 v=0
270538 On ch=1 n=f5 v=0
270550 On ch=1 n=g5 v=0
270560 Par ch=1 c=64 v=63
270586 On ch=1 n=b2 v=62
270608 Par ch=1 c=64 v=0
270664 Par ch=1 c=64 v=63
270700 Par ch=1 c=64 v=127
270758 On ch=1 n=b2 v=0
270768 On ch=1 n=f#2 v=39
270776 On ch=1 n=g5 v=38
270784 On ch=1 n=f5 v=36
270784 On ch=1 n=g4 v=27
270790 On ch=1 n=f#3 v=24
270794 On ch=1 n=f4 v=26
270864 Par ch=1 c=64 v=63
270870 On ch=1 n=f#3 v=0
270884 On ch=1 n=f#2 v=0
270902 On ch=1 n=f4 v=0
270904 Par ch=1 c=64 v=0
270914 On ch=1 n=f5 v=0
270918 On ch=1 n=g4 v=0
270926 On ch=1 n=g5 v=0
270962 On ch=1 n=b2 v=56
270984 Par ch=1 c=64 v=63
271010 Par ch=1 c=64 v=127
271096 On ch=1 n=b2 v=0
271124 On ch=1 n=f#2 v=34
271126 On ch=1 n=g5 v=40
271130 On ch=1 n=f#3 v=37
271132 On ch=1 n=g4 v=31
271134 On ch=1 n=f5 v=39
271140 On ch=1 n=f4 v=31
271228 Par ch=1 c=64 v=63
271252 Par ch=1 c=64 v=0
271258 On ch=1 n=f#2 v=0
271264 On ch=1 n=f#3 v=0
271270 On ch=1 n=f4 v=0
271282 On ch=1 n=f5 v=0
271282 On ch=1 n=g4 v=0
271294 On ch=1 n=g5 v=0
271336 On ch=1 n=b2 v=54
271346 Par ch=1 c=64 v=63
271366 Par ch=1 c=64 v=127
271464 On ch=1 n=b2 v=0
271498 On ch=1 n=g5 v=40
271506 On ch=1 n=g4 v=28
271506 On ch=1 n=f5 v=39
271514 On ch=1 n=f4 v=28
271634 On ch=1 n=f4 v=0
271646 On ch=1 n=g4 v=0
271652 On ch=1 n=f5 v=0
271664 On ch=1 n=g5 v=0
271666 Par ch=1 c=64 v=63
271684 Par ch=1 c=64 v=0
271696 On ch=1 n=b2 v=68
271808 Par ch=1 c=64 v=63
271830 Par ch=1 c=64 v=127
271832 On ch=1 n=b2 v=0
271852 On ch=1 n=f#2 v=46
271860 On ch=1 n=f#3 v=44
271866 On ch=1 n=g5 v=40
271874 On ch=1 n=g4 v=31
271876 On ch=1 n=f5 v=39
271882 On ch=1 n=f4 v=30
271940 On ch=1 n=f#3 v=0
271958 Par ch=1 c=64 v=63
271966 On ch=1 n=f#2 v=0
271992 Par ch=1 c=64 v=0
272004 On ch=1 n=f4 v=0
272016 On ch=1 n=g4 v=0
272020 On ch=1 n=f5 v=0
272032 On ch=1 n=g5 v=0
272048 Par ch=1 c=64 v=63
272050 On ch=1 n=b2 v=53
272078 Par ch=1 c=64 v=127
272198 On ch=1 n=b2 v=0
272232 On ch=1 n=g5 v=36
272236 On ch=1 n=g4 v=28
272242 On ch=1 n=f5 v=35
272246 On ch=1 n=f4 v=27
272348 Par ch=1 c=64 v=63
272366 Par ch=1 c=64 v=0
272370 On ch=1 n=f4 v=0
272384 On ch=1 n=g4 v=0
272396 On ch=1 n=f5 v=0
272408 On ch=1 n=g5 v=0
272416 On ch=1 n=b2 v=60
272440 Par ch=1 c=64 v=63
272464 Par ch=1 c=64 v=127
272540 On ch=1 n=b2 v=0
272566 On ch=1 n=f#2 v=31
272576 On ch=1 n=f#3 v=33
272604 On ch=1 n=g5 v=36
272612 On ch=1 n=f5 v=36
272618 On ch=1 n=g4 v=28
272626 On ch=1 n=f4 v=28
272632 Par ch=1 c=64 v=63
272674 On ch=1 n=f#2 v=0
272680 On ch=1 n=f#3 v=0
272716 Par ch=1 c=64 v=127
272740 On ch=1 n=f4 v=0
272756 On ch=1 n=g4 v=0
272778 On ch=1 n=f5 v=0
272792 On ch=1 n=g5 v=0
272796 On ch=1 n=b2 v=59
272908 Par ch=1 c=64 v=63
272958 On ch=1 n=b2 v=0
272970 On ch=1 n=f#2 v=40
272984 Par ch=1 c=64 v=127
272988 On ch=1 n=g5 v=41
272994 On ch=1 n=f#3 v=27
272998 On ch=1 n=f5 v=39
273012 On ch=1 n=g4 v=20
273024 On ch=1 n=f4 v=20
273116 On ch=1 n=f#3 v=0
273130 On ch=1 n=f4 v=0
273148 On ch=1 n=g4 v=0
273162 Par ch=1 c=64 v=63
273166 On ch=1 n=f5 v=0
273178 On ch=1 n=g5 v=0
273200 On ch=1 n=f#2 v=0
273254 On ch=1 n=b2 v=50
273258 Par ch=1 c=64 v=127
273436 On ch=1 n=b2 v=0
273482 On ch=1 n=g5 v=35
273490 On ch=1 n=f5 v=35
273496 On ch=1 n=g4 v=25
273504 On ch=1 n=f4 v=26
273696 On ch=1 n=f5 v=0
273698 On ch=1 n=f4 v=0
273706 On ch=1 n=g5 v=0
273712 On ch=1 n=g4 v=0
274092 Par ch=1 c=67 v=0
274256 On ch=1 n=b4 v=54
274272 On ch=1 n=g5 v=40
274274 On ch=1 n=g4 v=36
274276 On ch=1 n=b3 v=63
274280 On ch=1 n=f5 v=45
274282 On ch=1 n=f4 v=43
274410 Par ch=1 c=64 v=63
274494 Par ch=1 c=64 v=127
274596 On ch=1 n=b4 v=0
274762 On ch=1 n=c#5 v=108
274774 On ch=1 n=c#4 v=89
274874 On ch=1 n=f4 v=0
274890 On ch=1 n=b3 v=0
274894 On ch=1 n=g4 v=0
274914 On ch=1 n=f5 v=0
274936 On ch=1 n=g5 v=0
275024 On ch=1 n=c#5 v=0
275190 On ch=1 n=c#4 v=0
275256 On ch=1 n=d5 v=98
275270 On ch=1 n=d4 v=101
275278 On ch=1 n=g5 v=67
275280 On ch=1 n=g4 v=72
275284 On ch=1 n=f4 v=80
275296 On ch=1 n=f5 v=68
275344 Par ch=1 c=64 v=63
275360 Par ch=1 c=64 v=0
275468 Par ch=1 c=64 v=63
275484 Par ch=1 c=64 v=127
275632 On ch=1 n=c#5 v=112
275640 On ch=1 n=c#4 v=114
275680 On ch=1 n=f5 v=0
275704 On ch=1 n=f4 v=0
275704 On ch=1 n=g5 v=0
275704 On ch=1 n=d4 v=0
275712 On ch=1 n=g4 v=0
275778 On ch=1 n=d5 v=0
275836 On ch=1 n=c#5 v=0
275994 On ch=1 n=c#4 v=0
276176 On ch=1 n=e4 v=104
276176 On ch=1 n=e5 v=84
276194 On ch=1 n=g4 v=76
276194 On ch=1 n=f4 v=82
276202 On ch=1 n=g5 v=67
276208 On ch=1 n=f5 v=74
276244 On ch=1 n=d#5 v=68
276328 On ch=1 n=d#5 v=0
276348 Par ch=1 c=64 v=63
276370 Par ch=1 c=64 v=0
276580 Par ch=1 c=64 v=63
276608 Par ch=1 c=64 v=127
276794 On ch=1 n=f5 v=0
276802 On ch=1 n=g5 v=0
276804 On ch=1 n=f4 v=0
276810 On ch=1 n=g4 v=0
277034 On ch=1 n=g5 v=34
277038 On ch=1 n=g4 v=42
277040 On ch=1 n=f4 v=47
277046 On ch=1 n=f5 v=42
277340 On ch=1 n=f5 v=0
277346 On ch=1 n=f4 v=0
277354 On ch=1 n=g4 v=0
277356 On ch=1 n=g5 v=0
277628 On ch=1 n=g4 v=35
277632 On ch=1 n=g5 v=22
277632 On ch=1 n=f4 v=39
277644 On ch=1 n=f5 v=27
277892 On ch=1 n=f4 v=0
277904 On ch=1 n=g4 v=0
277936 On ch=1 n=f5 v=0
277950 On ch=1 n=g5 v=0
278182 On ch=1 n=g5 v=26
278196 On ch=1 n=f5 v=27
278196 On ch=1 n=g4 v=32
278202 On ch=1 n=f4 v=35
278428 On ch=1 n=f4 v=0
278442 On ch=1 n=g4 v=0
278458 On ch=1 n=f5 v=0
278476 On ch=1 n=g5 v=0
278910 On ch=1 n=g4 v=19
278916 On ch=1 n=g5 v=10
278918 On ch=1 n=f4 v=18
278932 On ch=1 n=f5 v=14
279254 On ch=1 n=f4 v=0
279264 On ch=1 n=d5 v=76
279270 On ch=1 n=g4 v=0
279290 On ch=1 n=f5 v=0
279296 On ch=1 n=d4 v=36
279310 On ch=1 n=g5 v=0
279352 On ch=1 n=e4 v=0
279408 On ch=1 n=e5 v=0
279730 On ch=1 n=g5 v=22
279740 On ch=1 n=g4 v=16
279756 On ch=1 n=f4 v=15
279968 On ch=1 n=g5 v=0
280084 On ch=1 n=f4 v=0
280098 On ch=1 n=g4 v=0
280130 On ch=1 n=c#5 v=85
280138 On ch=1 n=d5 v=0
280144 On ch=1 n=c#4 v=54
280238 On ch=1 n=d4 v=0
280482 On ch=1 n=g4 v=39
280484 On ch=1 n=g5 v=41
280486 On ch=1 n=f4 v=44
280496 On ch=1 n=f5 v=46
280590 On ch=1 n=c#5 v=0
280752 On ch=1 n=b4 v=90
280772 On ch=1 n=b3 v=76
280780 On ch=1 n=c#4 v=0
280794 Par ch=1 c=64 v=63
280816 Par ch=1 c=64 v=0
280848 On ch=1 n=f4 v=0
280858 Par ch=1 c=64 v=63
280866 On ch=1 n=g4 v=0
280886 On ch=1 n=f5 v=0
280896 Par ch=1 c=64 v=127
280902 On ch=1 n=g5 v=0
281088 On ch=1 n=g4 v=49
281090 On ch=1 n=f4 v=52
281092 On ch=1 n=g5 v=47
281102 On ch=1 n=f5 v=57
281184 On ch=1 n=b4 v=0
281304 On ch=1 n=f4 v=0
281310 On ch=1 n=g4 v=0
281358 On ch=1 n=b3 v=0
281524 Par ch=1 c=64 v=63
281528 On ch=1 n=b4 v=100
281538 Par ch=1 c=64 v=0
281548 On ch=1 n=b3 v=81
281616 On ch=1 n=f5 v=0
281618 Par ch=1 c=64 v=63
281630 On ch=1 n=g5 v=0
281636 Par ch=1 c=64 v=127
281808 On ch=1 n=b4 v=0
281816 On ch=1 n=b3 v=0
281826 On ch=1 n=a1 v=79
282002 On ch=1 n=a5 v=63
282008 On ch=1 n=g5 v=63
282014 On ch=1 n=g4 v=48
282014 On ch=1 n=a4 v=49
282180 On ch=1 n=a2 v=80
282194 On ch=1 n=a1 v=0
282276 On ch=1 n=a2 v=0
282478 On ch=1 n=c#4 v=97
282562 On ch=1 n=g5 v=0
282564 On ch=1 n=g4 v=0
282566 On ch=1 n=a4 v=0
282568 On ch=1 n=a5 v=0
282862 On ch=1 n=a5 v=64
282868 On ch=1 n=g5 v=67
282870 On ch=1 n=g4 v=60
282870 On ch=1 n=a4 v=62
283312 On ch=1 n=g4 v=0
283312 On ch=1 n=g5 v=0
283312 On ch=1 n=a5 v=0
283314 On ch=1 n=a4 v=0
283408 On ch=1 n=a5 v=83
283408 On ch=1 n=g4 v=79
283408 On ch=1 n=a4 v=84
283410 On ch=1 n=g5 v=84
283768 On ch=1 n=a4 v=0
283768 On ch=1 n=g4 v=0
283784 On ch=1 n=g5 v=0
283788 On ch=1 n=a5 v=0
283904 On ch=1 n=a5 v=93
283906 On ch=1 n=g4 v=88
283906 On ch=1 n=a4 v=97
283908 On ch=1 n=g5 v=97
284292 On ch=1 n=g4 v=0
284296 On ch=1 n=a4 v=0
284312 On ch=1 n=g5 v=0
284314 On ch=1 n=a5 v=0
284428 On ch=1 n=a5 v=90
284432 On ch=1 n=g4 v=93
284434 On ch=1 n=a4 v=100
284434 On ch=1 n=g5 v=104
284464 On ch=1 n=c#4 v=0
284714 On ch=1 n=a#4 v=126
284724 On ch=1 n=a#3 v=113
284800 On ch=1 n=g4 v=0
284804 On ch=1 n=a4 v=0
284822 On ch=1 n=g5 v=0
284830 On ch=1 n=a5 v=0
285046 On ch=1 n=a5 v=89
285052 On ch=1 n=g4 v=90
285052 On ch=1 n=a4 v=96
285058 On ch=1 n=g5 v=86
285130 Par ch=1 c=64 v=63
285132 Par ch=1 c=64 v=127
285170 On ch=1 n=g5 v=0
285176 On ch=1 n=a5 v=0
285182 On ch=1 n=a#4 v=0
285186 On ch=1 n=a4 v=0
285190 On ch=1 n=g4 v=0
285208 On ch=1 n=a#3 v=0
285464 Par ch=1 c=64 v=63
285470 On ch=1 n=a#4 v=110
285472 On ch=1 n=a#3 v=110
285478 Par ch=1 c=64 v=0
285568 On ch=1 n=b4 v=83
285574 On ch=1 n=b3 v=94
285576 On ch=1 n=a#4 v=0
285616 On ch=1 n=a#3 v=0
285674 On ch=1 n=a#4 v=108
285682 On ch=1 n=a#3 v=96
285704 On ch=1 n=b4 v=0
285732 On ch=1 n=b3 v=0
285776 On ch=1 n=a#4 v=0
285812 On ch=1 n=a#3 v=0
285870 On ch=1 n=f#4 v=123
285878 On ch=1 n=f#5 v=108
285910 Par ch=1 c=64 v=127
285984 On ch=1 n=f#5 v=0
286100 On ch=1 n=f#4 v=0
286314 On ch=1 n=b5 v=77
286318 On ch=1 n=a4 v=71
286318 On ch=1 n=b4 v=65
286320 On ch=1 n=a5 v=65
286374 On ch=1 n=a5 v=0
286376 On ch=1 n=a4 v=0
286380 On ch=1 n=b4 v=0
286388 On ch=1 n=b5 v=0
286850 On ch=1 n=b5 v=59
286852 On ch=1 n=a5 v=55
286854 On ch=1 n=a4 v=53
286854 On ch=1 n=b4 v=54
286986 On ch=1 n=b4 v=0
286988 On ch=1 n=a4 v=0
287016 On ch=1 n=a5 v=0
287020 Par ch=1 c=67 v=127
287022 On ch=1 n=b5 v=0
287136 On ch=1 n=d3 v=55
287376 On ch=1 n=b5 v=63
287380 On ch=1 n=a5 v=58
287384 On ch=1 n=d3 v=0
287390 On ch=1 n=b4 v=41
287392 On ch=1 n=a2 v=48
287392 On ch=1 n=a4 v=40
287396 On ch=1 n=a3 v=44
287500 On ch=1 n=a4 v=0
287504 On ch=1 n=b4 v=0
287512 On ch=1 n=a3 v=0
287512 On ch=1 n=a5 v=0
287516 On ch=1 n=b5 v=0
287534 On ch=1 n=a2 v=0
287614 On ch=1 n=d3 v=71
287726 On ch=1 n=d3 v=0
287798 On ch=1 n=b5 v=64
287800 On ch=1 n=a5 v=59
287804 On ch=1 n=b4 v=51
287804 On ch=1 n=a4 v=50
287928 On ch=1 n=a5 v=0
287930 On ch=1 n=a4 v=0
287932 On ch=1 n=b5 v=0
287934 On ch=1 n=b4 v=0
288012 On ch=1 n=d3 v=78
288146 On ch=1 n=d3 v=0
288186 On ch=1 n=a2 v=46
288200 On ch=1 n=a3 v=35
288202 On ch=1 n=b5 v=63
288204 On ch=1 n=a5 v=58
288206 On ch=1 n=b4 v=48
288208 On ch=1 n=a4 v=48
288212 Par ch=1 c=64 v=63
288226 Par ch=1 c=64 v=127
288348 On ch=1 n=a3 v=0
288362 On ch=1 n=a2 v=0
288378 On ch=1 n=a4 v=0
288384 On ch=1 n=b4 v=0
288392 On ch=1 n=a5 v=0
288392 On ch=1 n=d3 v=71
288394 On ch=1 n=b5 v=0
288554 On ch=1 n=d3 v=0
288570 On ch=1 n=a2 v=49
288572 On ch=1 n=b5 v=76
288574 On ch=1 n=a5 v=70
288578 On ch=1 n=b4 v=60
288580 On ch=1 n=a4 v=58
288588 On ch=1 n=a3 v=39
288730 On ch=1 n=a4 v=0
288734 On ch=1 n=b4 v=0
288736 On ch=1 n=a3 v=0
288748 On ch=1 n=a5 v=0
288748 On ch=1 n=b5 v=0
288766 On ch=1 n=a2 v=0
288782 On ch=1 n=d3 v=84
288862 On ch=1 n=d3 v=0
288954 On ch=1 n=b5 v=72
288956 On ch=1 n=b4 v=64
288956 On ch=1 n=a4 v=61
288958 On ch=1 n=a5 v=66
289062 On ch=1 n=a4 v=0
289066 On ch=1 n=b4 v=0
289072 On ch=1 n=a5 v=0
289076 On ch=1 n=b5 v=0
289162 On ch=1 n=d3 v=88
289300 On ch=1 n=d3 v=0
289330 On ch=1 n=b5 v=68
289332 On ch=1 n=a5 v=64
289334 On ch=1 n=b4 v=57
289334 On ch=1 n=a4 v=56
289336 On ch=1 n=a2 v=57
289340 On ch=1 n=a3 v=49
289468 On ch=1 n=a4 v=0
289474 On ch=1 n=b4 v=0
289484 On ch=1 n=a3 v=0
289484 On ch=1 n=a5 v=0
289488 On ch=1 n=b5 v=0
289530 On ch=1 n=d3 v=82
289536 On ch=1 n=a2 v=0
289664 On ch=1 n=d3 v=0
289696 On ch=1 n=b5 v=67
289698 On ch=1 n=a5 v=60
289706 On ch=1 n=a4 v=50
289706 On ch=1 n=b4 v=52
289818 On ch=1 n=a4 v=0
289820 On ch=1 n=b4 v=0
289838 On ch=1 n=a5 v=0
289840 On ch=1 n=b5 v=0
289896 On ch=1 n=d3 v=92
290012 Par ch=1 c=64 v=63
290030 Par ch=1 c=64 v=0
290036 On ch=1 n=d3 v=0
290050 On ch=1 n=b5 v=70
290052 On ch=1 n=a5 v=66
290054 On ch=1 n=a2 v=63
290060 On ch=1 n=b4 v=54
290060 On ch=1 n=a4 v=51
290086 On ch=1 n=a3 v=32
290108 Par ch=1 c=64 v=63
290134 Par ch=1 c=64 v=127
290226 On ch=1 n=a4 v=0
290228 On ch=1 n=b4 v=0
290240 On ch=1 n=d3 v=84
290246 On ch=1 n=a3 v=0
290252 On ch=1 n=a5 v=0
290252 On ch=1 n=b5 v=0
290258 On ch=1 n=a2 v=0
290402 On ch=1 n=d3 v=0
290412 On ch=1 n=a2 v=69
290414 On ch=1 n=b5 v=76
290416 On ch=1 n=b4 v=72
290416 On ch=1 n=a4 v=70
290418 On ch=1 n=a5 v=74
290434 On ch=1 n=a3 v=44
290528 On ch=1 n=a3 v=0
290536 On ch=1 n=a4 v=0
290538 On ch=1 n=b4 v=0
290556 On ch=1 n=a5 v=0
290564 On ch=1 n=b5 v=0
290570 On ch=1 n=a2 v=0
290606 On ch=1 n=d3 v=94
290692 On ch=1 n=d3 v=0
290776 On ch=1 n=b5 v=68
290778 On ch=1 n=a4 v=64
290778 On ch=1 n=b4 v=65
290780 On ch=1 n=a5 v=63
290864 On ch=1 n=a4 v=0
290868 On ch=1 n=b4 v=0
290878 On ch=1 n=a5 v=0
290882 On ch=1 n=b5 v=0
290910 Par ch=1 c=64 v=63
290918 Par ch=1 c=64 v=0
290954 On ch=1 n=a2 v=103
291036 Par ch=1 c=64 v=63
291048 Par ch=1 c=64 v=127
291116 On ch=1 n=b5 v=63
291122 On ch=1 n=a5 v=61
291124 On ch=1 n=a4 v=54
291126 On ch=1 n=b4 v=55
291138 On ch=1 n=d3 v=84
291168 On ch=1 n=a2 v=0
291228 On ch=1 n=b4 v=0
291230 On ch=1 n=a4 v=0
291244 On ch=1 n=a5 v=0
291248 On ch=1 n=b5 v=0
291256 On ch=1 n=d3 v=0
291308 On ch=1 n=a3 v=83
291382 On ch=1 n=a3 v=0
291484 On ch=1 n=b5 v=69
291486 On ch=1 n=a4 v=63
291486 On ch=1 n=b4 v=65
291488 On ch=1 n=a5 v=65
291512 On ch=1 n=d4 v=68
291556 On ch=1 n=d4 v=0
291576 On ch=1 n=a4 v=0
291578 On ch=1 n=b4 v=0
291594 On ch=1 n=a5 v=0
291600 On ch=1 n=b5 v=0
291676 On ch=1 n=d3 v=111
291742 Par ch=1 c=64 v=63
291766 Par ch=1 c=64 v=0
291784 Par ch=1 c=64 v=63
291800 Par ch=1 c=67 v=0
291824 Par ch=1 c=64 v=127
291848 On ch=1 n=a4 v=76
291850 On ch=1 n=b4 v=79
291850 On ch=1 n=a3 v=97
291852 On ch=1 n=b5 v=75
291856 On ch=1 n=a5 v=76
291902 On ch=1 n=d3 v=0
291962 On ch=1 n=b4 v=0
291964 On ch=1 n=a4 v=0
291984 On ch=1 n=a5 v=0
291992 On ch=1 n=b5 v=0
292016 On ch=1 n=a3 v=0
292016 On ch=1 n=d4 v=116
292098 On ch=1 n=d4 v=0
292180 On ch=1 n=a4 v=106
292186 On ch=1 n=b4 v=87
292190 On ch=1 n=b5 v=66
292202 On ch=1 n=a5 v=62
292226 On ch=1 n=b4 v=0
292246 On ch=1 n=a4 v=0
292254 On ch=1 n=a5 v=0
292260 On ch=1 n=b5 v=0
292316 Par ch=1 c=64 v=63
292324 Par ch=1 c=64 v=0
292392 On ch=1 n=a3 v=107
292394 Par ch=1 c=64 v=63
292408 Par ch=1 c=64 v=127
292480 On ch=1 n=a4 v=91
292498 On ch=1 n=a3 v=0
292552 On ch=1 n=a4 v=0
292604 On ch=1 n=a4 v=100
292670 On ch=1 n=a5 v=96
292678 On ch=1 n=a4 v=0
292742 On ch=1 n=a5 v=0
292790 On ch=1 n=a3 v=113
292876 On ch=1 n=a4 v=103
292960 On ch=1 n=a4 v=0
293002 On ch=1 n=a4 v=93
293010 On ch=1 n=a3 v=0
293070 On ch=1 n=a4 v=0
293072 On ch=1 n=a5 v=103
293148 On ch=1 n=a5 v=0
293204 On ch=1 n=a5 v=109
293264 On ch=1 n=a5 v=0
293304 On ch=1 n=a6 v=109
293364 On ch=1 n=a6 v=0
293394 On ch=1 n=a4 v=116
293482 On ch=1 n=a5 v=116
293552 On ch=1 n=a4 v=0
293562 On ch=1 n=a5 v=0
293598 On ch=1 n=a5 v=113
293674 On ch=1 n=a6 v=120
293676 On ch=1 n=a5 v=0
293752 On ch=1 n=a6 v=0
293782 On ch=1 n=a6 v=126
293854 On ch=1 n=a6 v=0
293876 On ch=1 n=a7 v=117
293946 On ch=1 n=a7 v=0
293964 On ch=1 n=a5 v=125
294056 On ch=1 n=a6 v=120
294108 On ch=1 n=a5 v=0
294136 On ch=1 n=a6 v=0
294156 On ch=1 n=a6 v=117
294232 On ch=1 n=a6 v=0
294248 On ch=1 n=a7 v=120
294320 On ch=1 n=a7 v=0
294372 On ch=1 n=a7 v=126
294434 On ch=1 n=a7 v=0
294488 On ch=1 n=a8 v=122
294548 On ch=1 n=a8 v=0
294878 On ch=1 n=a5 v=125
294896 On ch=1 n=d7 v=112
294898 On ch=1 n=f#7 v=112
294900 On ch=1 n=b7 v=104
294900 On ch=1 n=a6 v=108
294902 On ch=1 n=b6 v=109
294904 On ch=1 n=a7 v=112
294960 Par ch=1 c=64 v=127
295094 Par ch=1 c=64 v=63
295112 Par ch=1 c=64 v=0
295134 Par ch=1 c=64 v=63
295150 Par ch=1 c=64 v=127
295354 On ch=1 n=a6 v=0
295364 On ch=1 n=b6 v=0
295406 On ch=1 n=d7 v=0
295430 On ch=1 n=f#7 v=0
295432 On ch=1 n=a7 v=0
295436 On ch=1 n=b7 v=0
295450 On ch=1 n=a6 v=120
295592 On ch=1 n=a6 v=0
295794 On ch=1 n=a6 v=113
295802 On ch=1 n=c#8 v=108
295874 On ch=1 n=b7 v=89
295936 On ch=1 n=c#8 v=0
295940 On ch=1 n=a#7 v=105
295962 On ch=1 n=b7 v=0
295984 On ch=1 n=a5 v=0
296004 On ch=1 n=b7 v=103
296044 On ch=1 n=a#7 v=0
296062 Par ch=1 c=64 v=63
296066 On ch=1 n=a6 v=0
296074 Par ch=1 c=64 v=0
296082 On ch=1 n=b7 v=0
296102 On ch=1 n=a5 v=125
296104 Par ch=1 c=64 v=63
296122 Par ch=1 c=64 v=127
296200 On ch=1 n=a5 v=0
296406 On ch=1 n=d#6 v=87
296444 On ch=1 n=g6 v=52
296512 On ch=1 n=e6 v=52
296530 On ch=1 n=a#6 v=113
296552 On ch=1 n=d8 v=122
296554 On ch=1 n=g7 v=116
296556 On ch=1 n=a#7 v=115
296556 On ch=1 n=d7 v=125
296558 On ch=1 n=e6 v=0
296650 On ch=1 n=g7 v=0
296654 On ch=1 n=d7 v=0
296790 On ch=1 n=a#7 v=0
296978 On ch=1 n=d8 v=0
296986 On ch=1 n=a#6 v=0
297020 On ch=1 n=a7 v=104
297026 On ch=1 n=g6 v=0
297102 On ch=1 n=a7 v=0
297208 On ch=1 n=d#6 v=0
297294 On ch=1 n=a6 v=103
297450 On ch=1 n=a6 v=0
297452 On ch=1 n=e6 v=93
297484 On ch=1 n=g6 v=78
297486 Par ch=1 c=64 v=63
297546 Par ch=1 c=64 v=127
297558 On ch=1 n=b6 v=100
297562 On ch=1 n=b7 v=107
297564 On ch=1 n=c#7 v=123
297566 On ch=1 n=c#8 v=120
297568 On ch=1 n=g7 v=104
297620 On ch=1 n=g6 v=0
297624 On ch=1 n=e6 v=0
297672 On ch=1 n=b6 v=0
297798 On ch=1 n=g7 v=0
297814 On ch=1 n=b7 v=0
297818 On ch=1 n=c#8 v=0
297868 On ch=1 n=c#7 v=0
297874 On ch=1 n=a5 v=87
297940 On ch=1 n=a5 v=0
298118 On ch=1 n=f#5 v=80
298148 Par ch=1 c=64 v=63
298160 Par ch=1 c=64 v=0
298188 On ch=1 n=b5 v=101
298198 Par ch=1 c=64 v=63
298204 On ch=1 n=d6 v=116
298218 Par ch=1 c=64 v=127
298220 On ch=1 n=b6 v=98
298220 On ch=1 n=f#7 v=118
298220 On ch=1 n=f#6 v=119
298222 On ch=1 n=d7 v=99
298294 On ch=1 n=b5 v=0
298314 On ch=1 n=f#5 v=0
298316 On ch=1 n=d6 v=0
298538 On ch=1 n=f#6 v=0
298540 On ch=1 n=b6 v=0
298556 On ch=1 n=d7 v=0
298586 On ch=1 n=f#7 v=0
298602 On ch=1 n=a4 v=112
298906 On ch=1 n=g7 v=104
298916 On ch=1 n=a5 v=104
298952 On ch=1 n=f#7 v=97
298976 On ch=1 n=a4 v=0
299004 On ch=1 n=g7 v=0
299008 On ch=1 n=f7 v=85
299036 On ch=1 n=f#7 v=0
299064 On ch=1 n=a5 v=0
299076 On ch=1 n=f#7 v=106
299086 Par ch=1 c=64 v=63
299096 Par ch=1 c=64 v=0
299124 On ch=1 n=f7 v=0
299144 Par ch=1 c=64 v=63
299160 Par ch=1 c=64 v=127
299172 On ch=1 n=f#7 v=0
299196 On ch=1 n=a4 v=124
299278 On ch=1 n=a4 v=0
299294 On ch=1 n=f#7 v=39
299338 On ch=1 n=f#7 v=0
299634 On ch=1 n=g7 v=109
299638 On ch=1 n=b7 v=109
299640 On ch=1 n=g5 v=116
299640 On ch=1 n=d#7 v=116
299642 On ch=1 n=b6 v=114
299646 On ch=1 n=d#5 v=114
299646 On ch=1 n=b4 v=106
299916 On ch=1 n=b6 v=0
299918 On ch=1 n=b7 v=0
300072 On ch=1 n=g7 v=0
300094 On ch=1 n=a6 v=102
300138 On ch=1 n=g5 v=0
300156 On ch=1 n=d#7 v=0
300278 On ch=1 n=d#5 v=0
300342 On ch=1 n=a6 v=0
300394 On ch=1 n=a5 v=109
300526 On ch=1 n=a5 v=0
300534 On ch=1 n=b4 v=0
300578 On ch=1 n=c#5 v=88
300624 On ch=1 n=f5 v=59
300742 Par ch=1 c=64 v=63
300754 Par ch=1 c=64 v=0
300776 On ch=1 n=g#5 v=112
300784 On ch=1 n=c#7 v=108
300788 On ch=1 n=a6 v=91
300790 On ch=1 n=f7 v=102
300806 Par ch=1 c=64 v=63
300810 On ch=1 n=a7 v=111
300828 Par ch=1 c=64 v=127
300956 On ch=1 n=c#5 v=0
300980 On ch=1 n=f5 v=0
301024 On ch=1 n=g#5 v=0
301124 On ch=1 n=a7 v=0
301164 On ch=1 n=a4 v=109
301184 On ch=1 n=a6 v=0
301192 On ch=1 n=f7 v=0
301206 On ch=1 n=c#7 v=0
301288 On ch=1 n=a4 v=0
301406 On ch=1 n=d5 v=79
301482 On ch=1 n=f#5 v=80
301516 On ch=1 n=a5 v=109
301538 Par ch=1 c=64 v=63
301546 On ch=1 n=d6 v=112
301548 Par ch=1 c=64 v=0
301550 On ch=1 n=f#6 v=116
301550 On ch=1 n=b6 v=111
301598 Par ch=1 c=64 v=63
301616 Par ch=1 c=64 v=127
301696 On ch=1 n=a5 v=0
301700 On ch=1 n=f#5 v=0
301744 On ch=1 n=d5 v=0
301826 On ch=1 n=d6 v=0
301842 On ch=1 n=b6 v=0
301856 On ch=1 n=f#6 v=0
301910 On ch=1 n=a4 v=94
302180 On ch=1 n=c#7 v=101
302190 On ch=1 n=a3 v=108
302220 On ch=1 n=b6 v=92
302242 On ch=1 n=a4 v=0
302250 On ch=1 n=c#7 v=0
302298 On ch=1 n=a#6 v=104
302314 On ch=1 n=b6 v=0
302374 On ch=1 n=b6 v=99
302392 Par ch=1 c=64 v=63
302400 On ch=1 n=a#6 v=0
302400 Par ch=1 c=64 v=0
302472 Par ch=1 c=64 v=63
302474 On ch=1 n=b6 v=0
302482 Par ch=1 c=64 v=127
302486 On ch=1 n=a4 v=117
302494 On ch=1 n=a3 v=0
302572 On ch=1 n=a4 v=0
302866 On ch=1 n=d#5 v=63
302888 On ch=1 n=g5 v=72
302904 On ch=1 n=a#5 v=114
302934 On ch=1 n=f#7 v=119
302938 On ch=1 n=f#6 v=123
302940 On ch=1 n=a#6 v=110
302942 On ch=1 n=c#7 v=109
303098 On ch=1 n=a#6 v=0
303114 On ch=1 n=f#7 v=0
303194 On ch=1 n=c#7 v=0
303200 On ch=1 n=f#6 v=0
303310 On ch=1 n=a#5 v=0
303326 On ch=1 n=g5 v=0
303346 On ch=1 n=a6 v=108
303454 On ch=1 n=a6 v=0
303498 On ch=1 n=d#5 v=0
303554 On ch=1 n=a5 v=96
303676 On ch=1 n=a5 v=0
303682 On ch=1 n=e5 v=101
303710 On ch=1 n=g5 v=84
303742 Par ch=1 c=64 v=63
303752 Par ch=1 c=64 v=0
303790 Par ch=1 c=64 v=63
303794 On ch=1 n=b5 v=111
303812 Par ch=1 c=64 v=127
303818 On ch=1 n=b6 v=104
303822 On ch=1 n=c#6 v=123
303822 On ch=1 n=c#7 v=119
303822 On ch=1 n=g6 v=106
303882 On ch=1 n=b5 v=0
303892 On ch=1 n=g5 v=0
303922 On ch=1 n=e5 v=0
304046 On ch=1 n=c#7 v=0
304048 On ch=1 n=g6 v=0
304050 On ch=1 n=b6 v=0
304096 On ch=1 n=c#6 v=0
304102 On ch=1 n=a4 v=81
304286 On ch=1 n=d4 v=107
304364 On ch=1 n=f#4 v=84
304424 On ch=1 n=a4 v=0
304436 On ch=1 n=a4 v=104
304460 On ch=1 n=b4 v=106
304466 On ch=1 n=d5 v=102
304466 On ch=1 n=f#5 v=107
304470 On ch=1 n=b5 v=104
304530 Par ch=1 c=64 v=127
304610 On ch=1 n=a4 v=0
304620 On ch=1 n=f#4 v=0
304658 On ch=1 n=d4 v=0
304832 On ch=1 n=b4 v=0
304838 On ch=1 n=a3 v=77
304854 On ch=1 n=d5 v=0
304900 On ch=1 n=f#5 v=0
304922 On ch=1 n=b5 v=0
305160 On ch=1 n=a2 v=99
305174 On ch=1 n=c#6 v=100
305184 On ch=1 n=a3 v=0
305234 On ch=1 n=b5 v=93
305282 On ch=1 n=c#6 v=0
305316 On ch=1 n=a#5 v=105
305342 On ch=1 n=b5 v=0
305388 On ch=1 n=b5 v=101
305420 On ch=1 n=a#5 v=0
305432 Par ch=1 c=64 v=63
305444 Par ch=1 c=64 v=0
305478 On ch=1 n=a3 v=116
305516 Par ch=1 c=64 v=63
305526 On ch=1 n=b5 v=0
305528 Par ch=1 c=64 v=127
305558 On ch=1 n=a2 v=0
305624 On ch=1 n=a3 v=0
305782 On ch=1 n=d#4 v=60
305824 On ch=1 n=g4 v=33
305950 On ch=1 n=a#4 v=112
306004 On ch=1 n=f#6 v=121
306008 On ch=1 n=f#5 v=120
306014 On ch=1 n=a#5 v=106
306016 Par ch=1 c=64 v=63
306018 On ch=1 n=c#6 v=98
306022 Par ch=1 c=64 v=0
306094 Par ch=1 c=64 v=63
306108 Par ch=1 c=64 v=127
306214 On ch=1 n=a#5 v=0
306266 On ch=1 n=f#6 v=0
306340 On ch=1 n=f#5 v=0
306386 On ch=1 n=c#6 v=0
306418 On ch=1 n=a5 v=94
306428 On ch=1 n=a#4 v=0
306606 On ch=1 n=d#4 v=0
306634 On ch=1 n=g4 v=0
306654 On ch=1 n=a5 v=0
306686 On ch=1 n=a4 v=101
306802 On ch=1 n=e4 v=98
306842 On ch=1 n=g4 v=84
306862 On ch=1 n=a4 v=0
306954 On ch=1 n=b4 v=106
306982 On ch=1 n=c#5 v=88
307022 Par ch=1 c=64 v=63
307028 On ch=1 n=g5 v=83
307032 Par ch=1 c=64 v=0
307050 On ch=1 n=b5 v=98
307076 On ch=1 n=c#6 v=110
307108 Par ch=1 c=64 v=63
307124 Par ch=1 c=64 v=127
307190 On ch=1 n=b4 v=0
307216 On ch=1 n=g4 v=0
307264 On ch=1 n=e4 v=0
307412 On ch=1 n=a3 v=88
307786 On ch=1 n=a2 v=97
307826 On ch=1 n=b5 v=0
307862 On ch=1 n=g5 v=0
307880 On ch=1 n=a3 v=0
307910 On ch=1 n=c#6 v=0
307946 On ch=1 n=c#5 v=0
308228 On ch=1 n=a3 v=90
308528 On ch=1 n=a4 v=91
308818 On ch=1 n=a5 v=93
308942 On ch=1 n=a4 v=0
308950 On ch=1 n=a3 v=0
309086 On ch=1 n=a4 v=89
309296 On ch=1 n=a3 v=88
309368 On ch=1 n=a2 v=0
309562 On ch=1 n=a2 v=97
309620 On ch=1 n=a3 v=0
309796 On ch=1 n=a5 v=0
309814 On ch=1 n=a3 v=86
309824 On ch=1 n=a4 v=0
309860 On ch=1 n=a2 v=0
309936 On ch=1 n=a3 v=0
310032 On ch=1 n=a4 v=83
310108 On ch=1 n=a4 v=0
310462 On ch=1 n=f#5 v=109
310490 On ch=1 n=f#4 v=76
310492 On ch=1 n=c#5 v=81
310492 On ch=1 n=a#4 v=72
310640 Par ch=1 c=64 v=63
310668 Par ch=1 c=64 v=0
310812 Par ch=1 c=64 v=63
310822 Par ch=1 c=64 v=127
310954 On ch=1 n=a3 v=52
311064 On ch=1 n=f#4 v=0
311130 On ch=1 n=a#4 v=0
311166 On ch=1 n=c#5 v=0
311214 On ch=1 n=f#5 v=0
311252 On ch=1 n=a4 v=80
311542 On ch=1 n=a5 v=71
311618 On ch=1 n=a3 v=0
311646 On ch=1 n=a4 v=0
311718 On ch=1 n=a5 v=0
311838 On ch=1 n=a6 v=52
311946 On ch=1 n=a6 v=0
312058 On ch=1 n=a5 v=69
312150 On ch=1 n=a5 v=0
312310 On ch=1 n=a4 v=59
312516 On ch=1 n=a4 v=0
312572 On ch=1 n=a3 v=31
312820 On ch=1 n=a4 v=41
313034 On ch=1 n=a4 v=0
313046 Par ch=1 c=64 v=63
313068 Par ch=1 c=64 v=127
313108 On ch=1 n=c#5 v=87
313126 On ch=1 n=b4 v=66
313128 On ch=1 n=g4 v=52
313202 On ch=1 n=a3 v=0
313250 On ch=1 n=g4 v=0
313258 On ch=1 n=b4 v=0
313266 On ch=1 n=c#5 v=0
313496 On ch=1 n=a5 v=65
313728 On ch=1 n=a5 v=0
313752 On ch=1 n=a4 v=35
313934 On ch=1 n=a4 v=0
313998 On ch=1 n=a3 v=42
314256 On ch=1 n=a2 v=38
314258 On ch=1 n=a3 v=0
314540 On ch=1 n=a3 v=36
314728 Par ch=1 c=64 v=63
314748 Par ch=1 c=64 v=0
314764 On ch=1 n=a2 v=0
314850 Par ch=1 c=64 v=63
314862 On ch=1 n=f#4 v=67
314864 On ch=1 n=a3 v=0
314864 Par ch=1 c=64 v=127
314868 On ch=1 n=c#5 v=67
314874 On ch=1 n=f#5 v=79
314880 On ch=1 n=a#4 v=60
314986 On ch=1 n=f#4 v=0
315042 On ch=1 n=a#4 v=0
315058 On ch=1 n=c#5 v=0
315130 On ch=1 n=f#5 v=0
315268 On ch=1 n=a4 v=41
315566 On ch=1 n=a5 v=54
315754 On ch=1 n=a5 v=0
315820 On ch=1 n=a6 v=80
315842 On ch=1 n=a4 v=0
315984 On ch=1 n=a6 v=0
316064 On ch=1 n=a5 v=70
316178 On ch=1 n=a5 v=0
316302 On ch=1 n=a4 v=54
316430 On ch=1 n=a4 v=0
316570 On ch=1 n=a3 v=62
316698 On ch=1 n=a3 v=0
316818 On ch=1 n=a4 v=53
316970 On ch=1 n=a4 v=0
317070 On ch=1 n=a3 v=38
317232 On ch=1 n=a3 v=0
317326 On ch=1 n=a4 v=34
317412 On ch=1 n=a4 v=0
317580 On ch=1 n=a3 v=29
317696 On ch=1 n=a3 v=0
317814 On ch=1 n=a4 v=31
317912 On ch=1 n=a4 v=0
318062 On ch=1 n=a3 v=32
318168 On ch=1 n=a3 v=0
318304 On ch=1 n=a4 v=29
318412 On ch=1 n=a4 v=0
318558 On ch=1 n=a3 v=22
318672 On ch=1 n=a3 v=0
318786 On ch=1 n=a4 v=33
318904 On ch=1 n=a4 v=0
319038 On ch=1 n=a3 v=28
319182 On ch=1 n=a3 v=0
319276 On ch=1 n=a4 v=26
319384 On ch=1 n=a4 v=0
319520 On ch=1 n=a3 v=26
319664 On ch=1 n=a3 v=0
319804 On ch=1 n=a4 v=19
319968 On ch=1 n=a4 v=0
320122 On ch=1 n=a3 v=24
320290 On ch=1 n=a3 v=0
320502 Par ch=1 c=64 v=63
320508 On ch=1 n=a#3 v=48
320514 Par ch=1 c=64 v=0
320542 On ch=1 n=d#3 v=47
320614 Par ch=1 c=64 v=63
320626 Par ch=1 c=64 v=127
320646 On ch=1 n=d#3 v=0
320670 On ch=1 n=a#3 v=0
320870 On ch=1 n=a#4 v=70
320964 On ch=1 n=a#4 v=0
320990 On ch=1 n=d#5 v=57
321010 On ch=1 n=g5 v=40
321032 On ch=1 n=a#4 v=70
321040 Par ch=1 c=64 v=63
321046 Par ch=1 c=64 v=0
321090 On ch=1 n=g5 v=0
321102 On ch=1 n=d#5 v=0
321114 On ch=1 n=b4 v=76
321116 On ch=1 n=a#4 v=0
321122 On ch=1 n=g4 v=63
321170 On ch=1 n=b4 v=0
321182 On ch=1 n=g4 v=0
321234 Par ch=1 c=67 v=127
321426 On ch=1 n=a#4 v=80
321458 On ch=1 n=d#5 v=62
321470 On ch=1 n=g5 v=58
321500 On ch=1 n=d#5 v=0
321502 On ch=1 n=a#4 v=0
321520 On ch=1 n=g5 v=0
321670 On ch=1 n=a#3 v=88
321680 On ch=1 n=d#3 v=67
321718 On ch=1 n=d#3 v=0
321738 On ch=1 n=a#3 v=0
321936 On ch=1 n=a#4 v=93
321940 On ch=1 n=g5 v=78
321950 On ch=1 n=d#5 v=73
321986 On ch=1 n=d#5 v=0
321994 On ch=1 n=g5 v=0
321996 On ch=1 n=a#4 v=0
322182 On ch=1 n=a#3 v=90
322224 Par ch=1 c=64 v=127
322252 On ch=1 n=a#3 v=0
322418 On ch=1 n=a4 v=83
322420 On ch=1 n=d#4 v=90
322446 Par ch=1 c=64 v=63
322452 Par ch=1 c=64 v=0
322488 On ch=1 n=a4 v=0
322496 On ch=1 n=d#4 v=0
322660 On ch=1 n=a4 v=59
322742 On ch=1 n=a#4 v=65
322774 On ch=1 n=b4 v=68
322776 On ch=1 n=d#5 v=88
322782 Par ch=1 c=64 v=63
322784 Par ch=1 c=64 v=127
322808 On ch=1 n=f#5 v=90
322824 On ch=1 n=c#6 v=96
322826 On ch=1 n=a4 v=0
322832 On ch=1 n=b4 v=0
322836 On ch=1 n=a#4 v=0
322846 On ch=1 n=f#5 v=0
322846 On ch=1 n=d#5 v=0
322886 On ch=1 n=c#6 v=0
322926 Par ch=1 c=64 v=63
322936 Par ch=1 c=64 v=0
323128 On ch=1 n=d#3 v=91
323130 On ch=1 n=a#3 v=101
323148 Par ch=1 c=64 v=127
323202 On ch=1 n=d#3 v=0
323206 On ch=1 n=a#3 v=0
323406 On ch=1 n=a#4 v=94
323470 On ch=1 n=d#5 v=81
323496 On ch=1 n=a#4 v=0
323502 On ch=1 n=g5 v=82
323546 Par ch=1 c=64 v=63
323552 Par ch=1 c=64 v=0
323554 On ch=1 n=a#4 v=76
323570 On ch=1 n=d#5 v=0
323590 On ch=1 n=g5 v=0
323618 On ch=1 n=a#4 v=0
323622 On ch=1 n=b4 v=88
323626 On ch=1 n=g4 v=83
323668 On ch=1 n=b4 v=0
323674 On ch=1 n=g4 v=0
323910 On ch=1 n=a#4 v=87
323930 On ch=1 n=d#5 v=69
323934 On ch=1 n=g5 v=61
323964 On ch=1 n=d#5 v=0
323970 On ch=1 n=a#4 v=0
323982 On ch=1 n=g5 v=0
324160 On ch=1 n=a#3 v=94
324168 On ch=1 n=d#3 v=82
324206 On ch=1 n=d#3 v=0
324226 On ch=1 n=a#3 v=0
324426 On ch=1 n=g5 v=75
324426 On ch=1 n=a#4 v=82
324438 On ch=1 n=d#5 v=70
324474 On ch=1 n=a#4 v=0
324476 On ch=1 n=d#5 v=0
324482 On ch=1 n=g5 v=0
324660 On ch=1 n=a#3 v=86
324694 Par ch=1 c=64 v=63
324696 Par ch=1 c=64 v=127
324740 On ch=1 n=a#3 v=0
324868 On ch=1 n=a4 v=84
324868 On ch=1 n=d#4 v=80
324914 On ch=1 n=d#4 v=0
324934 On ch=1 n=a4 v=0
324958 Par ch=1 c=64 v=63
324968 Par ch=1 c=64 v=0
325112 On ch=1 n=a4 v=38
325164 Par ch=1 c=64 v=63
325166 Par ch=1 c=64 v=127
325178 On ch=1 n=d#5 v=89
325180 On ch=1 n=a#4 v=84
325192 On ch=1 n=b4 v=79
325204 On ch=1 n=f#5 v=89
325206 On ch=1 n=c#6 v=101
325230 On ch=1 n=d#5 v=0
325238 On ch=1 n=f#5 v=0
325240 On ch=1 n=a4 v=0
325248 On ch=1 n=b4 v=0
325260 On ch=1 n=a#4 v=0
325272 On ch=1 n=c#6 v=0
325288 Par ch=1 c=64 v=63
325296 Par ch=1 c=64 v=0
325510 On ch=1 n=a#3 v=67
325522 On ch=1 n=d#3 v=95
325544 Par ch=1 c=64 v=63
325546 Par ch=1 c=64 v=127
325582 On ch=1 n=d#3 v=0
325584 On ch=1 n=a#3 v=0
325830 On ch=1 n=a#4 v=86
325910 On ch=1 n=d#5 v=85
325922 On ch=1 n=a#4 v=0
325934 On ch=1 n=g5 v=80
325974 On ch=1 n=a#4 v=85
326002 On ch=1 n=d#5 v=0
326016 On ch=1 n=g5 v=0
326042 On ch=1 n=a#4 v=0
326044 On ch=1 n=b4 v=99
326054 On ch=1 n=g4 v=84
326060 Par ch=1 c=64 v=63
326068 Par ch=1 c=64 v=0
326096 On ch=1 n=g4 v=0
326098 On ch=1 n=b4 v=0
326326 On ch=1 n=a#4 v=84
326392 On ch=1 n=d#5 v=82
326410 On ch=1 n=a#4 v=0
326416 On ch=1 n=g5 v=70
326458 On ch=1 n=a#4 v=86
326482 On ch=1 n=d#5 v=0
326490 On ch=1 n=g5 v=0
326528 On ch=1 n=a#4 v=0
326576 On ch=1 n=a#3 v=98
326592 On ch=1 n=d#3 v=76
326622 On ch=1 n=d#3 v=0
326622 On ch=1 n=a#3 v=0
326856 On ch=1 n=a#4 v=97
326874 On ch=1 n=g5 v=76
326882 On ch=1 n=d#5 v=71
326916 On ch=1 n=d#5 v=0
326918 On ch=1 n=a#4 v=0
326926 On ch=1 n=g5 v=0
327130 On ch=1 n=a#3 v=101
327138 On ch=1 n=d#3 v=98
327168 Par ch=1 c=64 v=63
327168 Par ch=1 c=64 v=127
327194 On ch=1 n=d#3 v=0
327196 On ch=1 n=a#3 v=0
327400 On ch=1 n=a#4 v=87
327468 On ch=1 n=d#5 v=64
327478 On ch=1 n=a#4 v=0
327496 On ch=1 n=g5 v=71
327532 On ch=1 n=a#4 v=88
327562 On ch=1 n=d#5 v=0
327566 On ch=1 n=g5 v=0
327566 Par ch=1 c=64 v=63
327574 Par ch=1 c=64 v=0
327602 On ch=1 n=a#4 v=0
327614 On ch=1 n=b4 v=98
327626 On ch=1 n=g4 v=80
327662 On ch=1 n=b4 v=0
327664 On ch=1 n=g4 v=0
327858 On ch=1 n=a#4 v=80
327932 On ch=1 n=d#5 v=72
327944 On ch=1 n=a#4 v=0
327962 On ch=1 n=g5 v=55
328004 On ch=1 n=a#4 v=80
328028 On ch=1 n=g5 v=0
328032 On ch=1 n=d#5 v=0
328070 On ch=1 n=a#4 v=0
328092 On ch=1 n=a#3 v=91
328094 On ch=1 n=d#3 v=88
328168 On ch=1 n=d#3 v=0
328170 On ch=1 n=a#3 v=0
328328 Par ch=1 c=67 v=0
328388 On ch=1 n=c4 v=94
328390 On ch=1 n=f3 v=96
328446 On ch=1 n=c4 v=0
328454 On ch=1 n=f3 v=0
328696 On ch=1 n=c#4 v=106
328704 On ch=1 n=f#3 v=95
328734 Par ch=1 c=64 v=63
328734 Par ch=1 c=64 v=127
328762 On ch=1 n=f#3 v=0
328762 On ch=1 n=c#4 v=0
328978 On ch=1 n=c#5 v=85
329056 On ch=1 n=c#5 v=0
329070 On ch=1 n=f#5 v=73
329080 On ch=1 n=a#5 v=79
329120 On ch=1 n=c#5 v=88
329160 On ch=1 n=f#5 v=0
329164 On ch=1 n=a#5 v=0
329168 Par ch=1 c=64 v=63
329174 Par ch=1 c=64 v=0
329182 On ch=1 n=c#5 v=0
329200 On ch=1 n=d5 v=97
329202 On ch=1 n=a#4 v=96
329244 On ch=1 n=d5 v=0
329268 On ch=1 n=a#4 v=0
329472 On ch=1 n=c#5 v=108
329476 On ch=1 n=a#5 v=104
329486 On ch=1 n=f#5 v=91
329516 On ch=1 n=f#5 v=0
329530 On ch=1 n=c#5 v=0
329538 On ch=1 n=a#5 v=0
329740 On ch=1 n=c#4 v=109
329748 On ch=1 n=f#3 v=103
329776 On ch=1 n=c#4 v=0
329778 On ch=1 n=f#3 v=0
330012 On ch=1 n=a#5 v=104
330012 On ch=1 n=c#5 v=113
330024 On ch=1 n=f#5 v=88
330046 On ch=1 n=c#5 v=0
330054 On ch=1 n=f#5 v=0
330054 On ch=1 n=a#5 v=0
330242 Par ch=1 c=64 v=63
330244 Par ch=1 c=64 v=127
330246 On ch=1 n=c#4 v=101
330298 On ch=1 n=c#4 v=0
330356 Par ch=1 c=64 v=63
330378 Par ch=1 c=64 v=0
330432 Par ch=1 c=64 v=63
330446 Par ch=1 c=64 v=127
330506 On ch=1 n=f#4 v=66
330522 On ch=1 n=d5 v=71
330524 On ch=1 n=c5 v=75
330548 On ch=1 n=f#5 v=74
330578 On ch=1 n=c5 v=0
330584 On ch=1 n=a5 v=68
330602 On ch=1 n=d5 v=0
330642 On ch=1 n=f#5 v=0
330662 On ch=1 n=c6 v=69
330686 On ch=1 n=f#4 v=0
330704 On ch=1 n=a5 v=0
330718 On ch=1 n=e6 v=104
330726 On ch=1 n=f#5 v=112
330732 On ch=1 n=c#5 v=99
330734 Par ch=1 c=64 v=63
330738 Par ch=1 c=64 v=0
330760 On ch=1 n=f#5 v=0
330772 On ch=1 n=c#5 v=0
330772 On ch=1 n=c6 v=0
330774 On ch=1 n=e6 v=0
330976 On ch=1 n=c#4 v=119
330988 On ch=1 n=f#3 v=113
330998 Par ch=1 c=64 v=127
331036 On ch=1 n=c#4 v=0
331050 On ch=1 n=f#3 v=0
331268 On ch=1 n=c#5 v=103
331350 On ch=1 n=c#5 v=0
331360 On ch=1 n=a#5 v=99
331362 On ch=1 n=f#5 v=93
331422 On ch=1 n=c#5 v=100
331454 On ch=1 n=a#5 v=0
331458 On ch=1 n=f#5 v=0
331462 Par ch=1 c=64 v=63
331468 Par ch=1 c=64 v=0
331482 On ch=1 n=a#4 v=110
331482 On ch=1 n=d5 v=103
331484 On ch=1 n=c#5 v=0
331516 On ch=1 n=d5 v=0
331538 On ch=1 n=a#4 v=0
331754 On ch=1 n=c#5 v=97
331808 On ch=1 n=a#5 v=96
331814 On ch=1 n=f#5 v=96
331822 On ch=1 n=c#5 v=0
331878 On ch=1 n=c#5 v=86
331906 On ch=1 n=a#5 v=0
331908 On ch=1 n=f#5 v=0
331938 On ch=1 n=c#5 v=0
331998 On ch=1 n=c#4 v=114
332010 On ch=1 n=f#3 v=108
332044 On ch=1 n=f#3 v=0
332054 On ch=1 n=c#4 v=0
332288 On ch=1 n=c#5 v=125
332290 On ch=1 n=a#5 v=110
332302 On ch=1 n=f#5 v=96
332330 On ch=1 n=f#5 v=0
332334 On ch=1 n=c#5 v=0
332356 On ch=1 n=a#5 v=0
332552 On ch=1 n=c#4 v=118
332558 Par ch=1 c=64 v=127
332622 On ch=1 n=c#4 v=0
332822 On ch=1 n=d5 v=90
332824 On ch=1 n=c5 v=94
332826 On ch=1 n=f#4 v=80
332868 On ch=1 n=f#5 v=68
332882 On ch=1 n=c5 v=0
332902 On ch=1 n=a5 v=82
332904 On ch=1 n=d5 v=0
332948 On ch=1 n=c6 v=89
332952 On ch=1 n=f#5 v=0
332998 On ch=1 n=f#4 v=0
333002 On ch=1 n=a5 v=0
333014 On ch=1 n=e6 v=109
333034 On ch=1 n=f#5 v=120
333038 On ch=1 n=c#5 v=106
333054 On ch=1 n=c6 v=0
333076 On ch=1 n=e6 v=0
333080 Par ch=1 c=64 v=63
333082 On ch=1 n=f#5 v=0
333084 Par ch=1 c=64 v=0
333090 On ch=1 n=c#5 v=0
333300 On ch=1 n=c#4 v=120
333302 On ch=1 n=f#3 v=114
333356 Par ch=1 c=64 v=63
333358 On ch=1 n=f#3 v=0
333358 On ch=1 n=c#4 v=0
333360 Par ch=1 c=64 v=127
333604 On ch=1 n=c#5 v=99
333620 On ch=1 n=f#5 v=92
333650 On ch=1 n=c#5 v=0
333686 On ch=1 n=c#6 v=86
333692 On ch=1 n=a#5 v=89
333732 On ch=1 n=c#5 v=91
333752 Par ch=1 c=64 v=63
333756 Par ch=1 c=64 v=0
333772 On ch=1 n=a#5 v=0
333772 On ch=1 n=c#6 v=0
333782 On ch=1 n=f#5 v=0
333790 On ch=1 n=c#5 v=0
333820 On ch=1 n=a#4 v=112
333820 On ch=1 n=d5 v=107
333862 On ch=1 n=d5 v=0
333876 On ch=1 n=a#4 v=0
334102 On ch=1 n=c#5 v=106
334114 On ch=1 n=f#5 v=105
334158 On ch=1 n=c#5 v=0
334164 On ch=1 n=a#5 v=88
334174 On ch=1 n=c#6 v=103
334224 On ch=1 n=c#5 v=93
334282 On ch=1 n=f#5 v=0
334284 On ch=1 n=a#5 v=0
334290 On ch=1 n=c#6 v=0
334292 On ch=1 n=c#5 v=0
334346 On ch=1 n=c#4 v=114
334350 On ch=1 n=f#3 v=110
334402 On ch=1 n=c#4 v=0
334412 On ch=1 n=f#3 v=0
334620 On ch=1 n=d#4 v=121
334624 On ch=1 n=g#3 v=113
334664 On ch=1 n=g#3 v=0
334674 On ch=1 n=d#4 v=0
334882 On ch=1 n=a3 v=113
334884 On ch=1 n=e4 v=109
334930 On ch=1 n=e4 v=0
334932 Par ch=1 c=64 v=127
334936 On ch=1 n=a3 v=0
335152 On ch=1 n=e5 v=102
335228 On ch=1 n=e5 v=0
335234 On ch=1 n=a5 v=78
335246 On ch=1 n=c#6 v=99
335282 On ch=1 n=e5 v=91
335336 On ch=1 n=a5 v=0
335342 On ch=1 n=c#6 v=0
335364 On ch=1 n=f5 v=116
335366 On ch=1 n=e5 v=0
335370 Par ch=1 c=64 v=63
335374 On ch=1 n=c#5 v=110
335376 Par ch=1 c=64 v=0
335414 On ch=1 n=c#5 v=0
335418 On ch=1 n=f5 v=0
335636 On ch=1 n=e5 v=94
335700 On ch=1 n=a5 v=84
335720 On ch=1 n=e5 v=0
335724 On ch=1 n=c#6 v=100
335772 On ch=1 n=e5 v=91
335804 On ch=1 n=a5 v=0
335812 On ch=1 n=c#6 v=0
335850 On ch=1 n=e5 v=0
335914 On ch=1 n=e4 v=114
335916 On ch=1 n=a3 v=107
335970 On ch=1 n=e4 v=0
335976 On ch=1 n=a3 v=0
336220 On ch=1 n=b3 v=113
336220 On ch=1 n=f#4 v=118
336266 On ch=1 n=f#4 v=0
336268 On ch=1 n=b3 v=0
336564 On ch=1 n=g#4 v=119
336574 On ch=1 n=c#5 v=127
336576 On ch=1 n=c#4 v=105
336604 Par ch=1 c=64 v=127
336608 On ch=1 n=c#4 v=0
336618 On ch=1 n=g#4 v=0
336620 On ch=1 n=c#5 v=0
336866 On ch=1 n=g#5 v=103
336876 On ch=1 n=c#6 v=103
336900 On ch=1 n=c#6 v=0
336920 On ch=1 n=c#6 v=100
336948 On ch=1 n=g#5 v=0
336970 On ch=1 n=c#6 v=0
337016 On ch=1 n=c#6 v=108
337088 On ch=1 n=c#6 v=0
337116 On ch=1 n=f6 v=107
337118 On ch=1 n=c#7 v=118
337128 On ch=1 n=g#6 v=108
337178 On ch=1 n=f6 v=0
337180 On ch=1 n=g#6 v=0
337184 On ch=1 n=c#7 v=0
337408 On ch=1 n=c#6 v=110
337414 On ch=1 n=g#5 v=94
337452 On ch=1 n=c#6 v=0
337480 On ch=1 n=g#5 v=0
337490 On ch=1 n=c#6 v=106
337548 On ch=1 n=c#6 v=0
337574 On ch=1 n=c#6 v=112
337628 On ch=1 n=c#6 v=0
337666 On ch=1 n=c#5 v=92
337670 On ch=1 n=c#6 v=106
337718 On ch=1 n=c#6 v=0
337738 On ch=1 n=c#5 v=0
337750 On ch=1 n=c#6 v=116
337808 On ch=1 n=c#6 v=0
337836 On ch=1 n=c#6 v=113
337892 On ch=1 n=c#6 v=0
337904 On ch=1 n=g#5 v=95
337922 On ch=1 n=c#6 v=109
337962 On ch=1 n=c#6 v=0
337968 On ch=1 n=g#5 v=0
338002 On ch=1 n=c#6 v=107
338120 On ch=1 n=c#6 v=0
338128 Par ch=1 c=64 v=63
338132 Par ch=1 c=64 v=0
338182 On ch=1 n=a5 v=116
338184 On ch=1 n=f5 v=113
338188 On ch=1 n=b4 v=104
338268 Par ch=1 c=64 v=63
338270 Par ch=1 c=64 v=127
338366 On ch=1 n=f5 v=0
338378 On ch=1 n=b4 v=0
338386 On ch=1 n=a5 v=0
338492 On ch=1 n=d5 v=88
338512 On ch=1 n=d6 v=107
338520 On ch=1 n=a5 v=94
338536 On ch=1 n=b5 v=86
338578 On ch=1 n=a5 v=0
338590 On ch=1 n=e6 v=59
338598 On ch=1 n=d6 v=0
338618 On ch=1 n=d5 v=0
338618 On ch=1 n=c6 v=71
338638 On ch=1 n=b5 v=0
338642 On ch=1 n=f6 v=76
338644 On ch=1 n=e6 v=0
338656 On ch=1 n=d6 v=65
338660 On ch=1 n=f5 v=74
338682 On ch=1 n=g6 v=71
338690 On ch=1 n=f6 v=0
338696 On ch=1 n=c6 v=0
338702 On ch=1 n=e6 v=68
338722 On ch=1 n=a6 v=80
338736 On ch=1 n=d6 v=0
338740 On ch=1 n=g6 v=0
338740 On ch=1 n=f5 v=0
338754 On ch=1 n=f6 v=66
338758 On ch=1 n=a5 v=80
338770 On ch=1 n=b6 v=57
338772 On ch=1 n=e6 v=0
338792 On ch=1 n=a6 v=0
338800 On ch=1 n=g6 v=57
338818 On ch=1 n=c7 v=64
338834 On ch=1 n=a5 v=0
338840 On ch=1 n=f6 v=0
338842 On ch=1 n=b6 v=0
338852 On ch=1 n=a6 v=59
338862 On ch=1 n=d7 v=66
338888 On ch=1 n=g6 v=0
338890 On ch=1 n=c7 v=0
338898 On ch=1 n=b6 v=51
338904 On ch=1 n=e7 v=70
338922 On ch=1 n=a6 v=0
338934 On ch=1 n=d7 v=0
338944 On ch=1 n=c7 v=81
338948 On ch=1 n=f7 v=65
338952 On ch=1 n=b6 v=0
338974 On ch=1 n=e7 v=0
338980 On ch=1 n=g7 v=71
338980 On ch=1 n=d7 v=92
338986 On ch=1 n=c7 v=0
339010 On ch=1 n=a7 v=77
339012 On ch=1 n=d7 v=0
339016 On ch=1 n=e7 v=96
339018 On ch=1 n=f7 v=0
339040 On ch=1 n=e7 v=0
339040 On ch=1 n=b7 v=83
339044 On ch=1 n=f7 v=81
339048 On ch=1 n=g7 v=0
339066 On ch=1 n=c8 v=84
339070 On ch=1 n=g7 v=65
339072 On ch=1 n=a7 v=0
339074 On ch=1 n=f7 v=0
339096 On ch=1 n=d8 v=78
339104 On ch=1 n=b7 v=0
339106 On ch=1 n=a7 v=52
339136 On ch=1 n=g7 v=0
339148 On ch=1 n=c8 v=0
339158 On ch=1 n=a7 v=0
339180 On ch=1 n=d8 v=0
339190 On ch=1 n=f6 v=100
339196 On ch=1 n=d6 v=94
339238 On ch=1 n=b7 v=98
339242 On ch=1 n=e8 v=101
339252 On ch=1 n=c8 v=71
339266 On ch=1 n=f6 v=0
339280 On ch=1 n=d6 v=0
339288 On ch=1 n=c8 v=0
339330 On ch=1 n=d8 v=5
339352 On ch=1 n=b7 v=0
339362 On ch=1 n=a7 v=80
339370 On ch=1 n=e8 v=0
339380 On ch=1 n=c8 v=84
339406 On ch=1 n=g7 v=85
339412 On ch=1 n=d8 v=0
339422 On ch=1 n=a7 v=0
339422 On ch=1 n=b7 v=83
339456 On ch=1 n=f7 v=84
339466 On ch=1 n=c8 v=0
339474 On ch=1 n=a7 v=66
339484 On ch=1 n=g7 v=0
339512 On ch=1 n=b7 v=0
339514 On ch=1 n=e7 v=85
339524 On ch=1 n=g7 v=74
339530 On ch=1 n=f7 v=0
339562 On ch=1 n=d7 v=90
339566 On ch=1 n=a7 v=0
339574 On ch=1 n=f7 v=72
339578 On ch=1 n=e7 v=0
339610 On ch=1 n=c7 v=86
339616 On ch=1 n=g7 v=0
339624 On ch=1 n=e7 v=73
339628 On ch=1 n=d7 v=0
339660 On ch=1 n=b6 v=84
339664 On ch=1 n=f7 v=0
339672 On ch=1 n=d7 v=75
339678 On ch=1 n=c7 v=0
339706 On ch=1 n=a6 v=89
339712 On ch=1 n=e7 v=0
339722 On ch=1 n=c7 v=68
339726 On ch=1 n=b6 v=0
339762 On ch=1 n=g6 v=82
339764 On ch=1 n=d7 v=0
339774 On ch=1 n=a6 v=0
339778 On ch=1 n=b6 v=53
339814 On ch=1 n=g6 v=0
339816 On ch=1 n=c7 v=0
339816 On ch=1 n=f6 v=84
339826 On ch=1 n=a6 v=61
339868 On ch=1 n=e6 v=92
339870 On ch=1 n=f6 v=0
339870 On ch=1 n=b6 v=0
339882 On ch=1 n=g6 v=57
339926 On ch=1 n=e6 v=0
339926 On ch=1 n=a6 v=0
339928 On ch=1 n=d6 v=86
339938 On ch=1 n=f6 v=60
339980 On ch=1 n=g6 v=0
339982 On ch=1 n=d6 v=0
339986 On ch=1 n=c6 v=84
339998 On ch=1 n=e6 v=52
340032 On ch=1 n=c6 v=0
340034 On ch=1 n=f6 v=0
340044 On ch=1 n=b5 v=88
340048 On ch=1 n=d6 v=69
340090 On ch=1 n=e6 v=0
340094 On ch=1 n=a5 v=73
340108 On ch=1 n=c6 v=41
340126 On ch=1 n=b5 v=0
340148 On ch=1 n=d6 v=0
340154 On ch=1 n=a5 v=0
340198 On ch=1 n=c6 v=0
340204 Par ch=1 c=64 v=63
340218 Par ch=1 c=64 v=0
340248 On ch=1 n=c#5 v=115
340510 On ch=1 n=c#6 v=114
340512 On ch=1 n=g#5 v=98
340516 On ch=1 n=c#5 v=0
340550 On ch=1 n=c#6 v=0
340570 Par ch=1 c=64 v=127
340586 On ch=1 n=c#6 v=103
340588 On ch=1 n=g#5 v=0
340620 On ch=1 n=c#6 v=0
340664 On ch=1 n=c#6 v=108
340726 On ch=1 n=c#6 v=0
340758 On ch=1 n=f6 v=103
340768 On ch=1 n=c#7 v=115
340776 On ch=1 n=g#6 v=105
340808 On ch=1 n=g#6 v=0
340822 On ch=1 n=f6 v=0
340828 On ch=1 n=c#7 v=0
341042 On ch=1 n=c#6 v=113
341044 On ch=1 n=g#5 v=94
341086 On ch=1 n=c#6 v=0
341090 On ch=1 n=g#5 v=0
341126 On ch=1 n=c#6 v=106
341184 On ch=1 n=c#6 v=0
341198 On ch=1 n=c#6 v=94
341256 On ch=1 n=c#6 v=0
341298 On ch=1 n=c#6 v=107
341302 On ch=1 n=c#5 v=96
341344 On ch=1 n=c#6 v=0
341374 On ch=1 n=c#5 v=0
341380 On ch=1 n=c#6 v=114
341438 On ch=1 n=c#6 v=0
341470 On ch=1 n=c#6 v=109
341532 On ch=1 n=c#6 v=0
341552 On ch=1 n=g#5 v=114
341566 On ch=1 n=c#6 v=114
341598 On ch=1 n=c#6 v=0
341612 Par ch=1 c=64 v=63
341616 On ch=1 n=g#5 v=0
341620 Par ch=1 c=64 v=0
341636 On ch=1 n=c#6 v=110
341696 On ch=1 n=c#6 v=0
341740 On ch=1 n=c#6 v=113
341788 On ch=1 n=c#6 v=0
341850 On ch=1 n=g5 v=118
341850 On ch=1 n=e5 v=118
341854 On ch=1 n=a4 v=107
341886 Par ch=1 c=64 v=127
341984 On ch=1 n=a4 v=0
341988 On ch=1 n=e5 v=0
342028 On ch=1 n=g5 v=0
342138 On ch=1 n=e5 v=109
342156 On ch=1 n=d6 v=84
342162 On ch=1 n=b5 v=101
342166 On ch=1 n=a5 v=74
342182 On ch=1 n=d#6 v=26
342190 On ch=1 n=e6 v=49
342200 On ch=1 n=a5 v=0
342204 On ch=1 n=c6 v=54
342214 On ch=1 n=d6 v=0
342224 On ch=1 n=d#6 v=0
342232 On ch=1 n=e6 v=0
342238 On ch=1 n=b5 v=0
342246 On ch=1 n=f6 v=64
342248 On ch=1 n=d6 v=68
342260 On ch=1 n=g5 v=99
342282 On ch=1 n=g6 v=68
342288 On ch=1 n=c6 v=0
342290 On ch=1 n=e5 v=0
342292 On ch=1 n=f6 v=0
342304 On ch=1 n=e6 v=55
342326 On ch=1 n=d6 v=0
342328 On ch=1 n=a6 v=70
342362 On ch=1 n=g6 v=0
342364 On ch=1 n=f6 v=57
342368 On ch=1 n=g5 v=0
342378 On ch=1 n=e6 v=0
342382 On ch=1 n=b6 v=52
342390 On ch=1 n=c6 v=104
342402 On ch=1 n=a6 v=0
342412 On ch=1 n=g6 v=75
342418 On ch=1 n=f6 v=0
342428 On ch=1 n=c7 v=83
342438 On ch=1 n=b6 v=0
342448 On ch=1 n=a6 v=83
342458 On ch=1 n=d7 v=86
342466 On ch=1 n=g6 v=0
342482 On ch=1 n=c7 v=0
342482 On ch=1 n=c6 v=0
342486 On ch=1 n=b6 v=71
342494 On ch=1 n=e7 v=83
342500 On ch=1 n=a6 v=0
342514 On ch=1 n=d7 v=0
342522 On ch=1 n=c7 v=86
342530 On ch=1 n=f7 v=70
342544 On ch=1 n=b6 v=0
342546 On ch=1 n=e7 v=0
342558 On ch=1 n=d7 v=82
342562 On ch=1 n=g7 v=64
342588 On ch=1 n=c7 v=0
342600 On ch=1 n=f7 v=0
342600 On ch=1 n=a7 v=68
342606 On ch=1 n=e7 v=54
342632 On ch=1 n=d7 v=0
342638 On ch=1 n=g7 v=0
342648 On ch=1 n=e7 v=0
342652 On ch=1 n=b7 v=51
342686 On ch=1 n=b7 v=0
342686 On ch=1 n=a7 v=0
342710 On ch=1 n=c6 v=117
342712 On ch=1 n=e6 v=120
342766 On ch=1 n=f8 v=90
342768 On ch=1 n=g8 v=78
342768 On ch=1 n=e8 v=77
342772 On ch=1 n=d8 v=68
342774 On ch=1 n=e6 v=0
342780 On ch=1 n=c6 v=0
342798 On ch=1 n=g8 v=0
342800 On ch=1 n=e8 v=0
342830 On ch=1 n=c8 v=53
342850 On ch=1 n=e8 v=48
342864 On ch=1 n=d8 v=0
342884 On ch=1 n=b7 v=89
342886 On ch=1 n=f8 v=0
342896 On ch=1 n=d8 v=76
342906 On ch=1 n=c8 v=0
342932 On ch=1 n=e8 v=0
342938 On ch=1 n=a7 v=77
342946 On ch=1 n=c8 v=79
342956 On ch=1 n=b7 v=0
342982 On ch=1 n=d8 v=0
342988 On ch=1 n=g7 v=84
342994 On ch=1 n=b7 v=76
343024 On ch=1 n=a7 v=0
343036 On ch=1 n=c8 v=0
343036 On ch=1 n=f7 v=85
343044 On ch=1 n=a7 v=75
343074 On ch=1 n=g7 v=0
343084 On ch=1 n=b7 v=0
343086 On ch=1 n=e7 v=89
343094 On ch=1 n=g7 v=66
343126 On ch=1 n=f7 v=0
343134 On ch=1 n=d7 v=91
343136 On ch=1 n=a7 v=0
343142 On ch=1 n=f7 v=65
343168 On ch=1 n=e7 v=0
343180 On ch=1 n=g7 v=0
343184 On ch=1 n=c7 v=84
343188 On ch=1 n=e7 v=72
343212 On ch=1 n=d7 v=0
343228 On ch=1 n=f7 v=0
343230 On ch=1 n=b6 v=84
343232 On ch=1 n=d7 v=76
343256 On ch=1 n=c7 v=0
343270 On ch=1 n=e7 v=0
343272 On ch=1 n=a6 v=86
343278 On ch=1 n=c7 v=72
343304 On ch=1 n=b6 v=0
343316 On ch=1 n=d7 v=0
343322 On ch=1 n=b6 v=72
343322 On ch=1 n=g6 v=83
343336 On ch=1 n=a6 v=0
343358 On ch=1 n=c7 v=0
343362 On ch=1 n=a6 v=84
343368 On ch=1 n=f6 v=85
343372 On ch=1 n=g6 v=0
343404 On ch=1 n=b6 v=0
343412 On ch=1 n=g6 v=61
343420 On ch=1 n=e6 v=84
343432 On ch=1 n=f6 v=0
343460 On ch=1 n=a6 v=0
343472 On ch=1 n=f6 v=58
343482 On ch=1 n=d6 v=76
343488 On ch=1 n=e6 v=0
343520 On ch=1 n=g6 v=0
343538 On ch=1 n=e6 v=49
343546 On ch=1 n=c6 v=80
343562 On ch=1 n=d6 v=0
343584 On ch=1 n=f6 v=0
343602 On ch=1 n=c6 v=0
343626 On ch=1 n=d6 v=10
343652 On ch=1 n=e6 v=0
343670 On ch=1 n=d6 v=0
343702 Par ch=1 c=64 v=63
343702 Par ch=1 c=64 v=0
343726 On ch=1 n=c#5 v=115
344004 On ch=1 n=c#6 v=114
344006 On ch=1 n=g#5 v=94
344012 On ch=1 n=c#5 v=0
344030 On ch=1 n=c#6 v=0
344048 Par ch=1 c=64 v=127
344070 On ch=1 n=c#6 v=90
344078 On ch=1 n=g#5 v=0
344118 On ch=1 n=c#6 v=0
344158 On ch=1 n=c#6 v=110
344220 On ch=1 n=c#6 v=0
344264 On ch=1 n=f6 v=104
344264 On ch=1 n=c#7 v=116
344280 On ch=1 n=g#6 v=96
344308 On ch=1 n=g#6 v=0
344326 On ch=1 n=c#7 v=0
344326 On ch=1 n=f6 v=0
344544 On ch=1 n=c#6 v=113
344554 On ch=1 n=g#5 v=84
344566 On ch=1 n=c#6 v=0
344588 On ch=1 n=g#5 v=0
344624 On ch=1 n=c#6 v=99
344674 On ch=1 n=c#6 v=0
344702 On ch=1 n=c#6 v=106
344752 On ch=1 n=c#6 v=0
344796 On ch=1 n=c#5 v=85
344802 On ch=1 n=c#6 v=101
344846 On ch=1 n=c#6 v=0
344858 On ch=1 n=c#5 v=0
344876 On ch=1 n=c#6 v=114
344930 On ch=1 n=c#6 v=0
344968 On ch=1 n=c#6 v=108
345022 On ch=1 n=g#5 v=97
345028 On ch=1 n=c#6 v=0
345054 On ch=1 n=c#6 v=92
345076 On ch=1 n=c#6 v=0
345080 On ch=1 n=g#5 v=0
345122 On ch=1 n=c#6 v=96
345172 On ch=1 n=c#6 v=0
345216 On ch=1 n=c#6 v=94
345218 Par ch=1 c=64 v=63
345226 Par ch=1 c=64 v=0
345256 On ch=1 n=c#6 v=0
345324 On ch=1 n=f5 v=121
345326 On ch=1 n=g4 v=112
345326 On ch=1 n=d5 v=118
345378 Par ch=1 c=64 v=63
345380 Par ch=1 c=64 v=127
345438 On ch=1 n=d5 v=0
345440 On ch=1 n=g4 v=0
345492 On ch=1 n=f5 v=0
345652 On ch=1 n=d5 v=102
345706 On ch=1 n=f6 v=107
345708 On ch=1 n=b6 v=100
345712 On ch=1 n=a6 v=92
345714 On ch=1 n=g6 v=103
345742 On ch=1 n=a6 v=0
345750 On ch=1 n=f6 v=0
345786 On ch=1 n=c7 v=52
345798 On ch=1 n=f5 v=94
345822 On ch=1 n=a6 v=68
345824 On ch=1 n=b6 v=0
345826 On ch=1 n=d5 v=0
345846 On ch=1 n=g6 v=0
345846 On ch=1 n=d7 v=75
345878 On ch=1 n=c7 v=0
345878 On ch=1 n=b6 v=48
345892 On ch=1 n=a6 v=0
345900 On ch=1 n=e7 v=67
345932 On ch=1 n=d7 v=0
345932 On ch=1 n=c7 v=83
345944 On ch=1 n=b6 v=0
345944 On ch=1 n=f5 v=0
345946 On ch=1 n=b5 v=117
345950 On ch=1 n=f7 v=68
345976 On ch=1 n=d7 v=76
345978 On ch=1 n=e7 v=0
345992 On ch=1 n=g7 v=68
346002 On ch=1 n=c7 v=0
346018 On ch=1 n=b5 v=0
346026 On ch=1 n=f7 v=0
346032 On ch=1 n=e7 v=76
346034 On ch=1 n=a7 v=56
346044 On ch=1 n=d7 v=0
346070 On ch=1 n=g7 v=0
346080 On ch=1 n=b7 v=55
346082 On ch=1 n=f7 v=65
346096 On ch=1 n=e7 v=0
346118 On ch=1 n=a7 v=0
346124 On ch=1 n=c8 v=70
346130 On ch=1 n=g7 v=54
346136 On ch=1 n=f7 v=0
346160 On ch=1 n=b7 v=0
346162 On ch=1 n=g7 v=0
346164 On ch=1 n=d8 v=82
346172 On ch=1 n=a7 v=81
346196 On ch=1 n=c8 v=0
346200 On ch=1 n=a7 v=0
346200 On ch=1 n=e8 v=79
346204 On ch=1 n=b7 v=86
346230 On ch=1 n=b7 v=0
346232 On ch=1 n=d8 v=0
346268 On ch=1 n=f8 v=26
346304 On ch=1 n=e8 v=0
346310 On ch=1 n=f8 v=0
346330 On ch=1 n=f6 v=126
346332 On ch=1 n=b5 v=117
346350 On ch=1 n=a#8 v=92
346366 On ch=1 n=b8 v=103
346374 On ch=1 n=a#8 v=0
346390 On ch=1 n=g8 v=58
346426 On ch=1 n=f6 v=0
346444 On ch=1 n=b5 v=0
346450 On ch=1 n=f8 v=59
346456 On ch=1 n=a8 v=61
346482 On ch=1 n=g8 v=0
346494 On ch=1 n=b8 v=0
346498 On ch=1 n=e8 v=72
346506 On ch=1 n=g8 v=67
346520 On ch=1 n=f8 v=0
346544 On ch=1 n=a8 v=0
346556 On ch=1 n=d8 v=71
346558 On ch=1 n=f8 v=71
346568 On ch=1 n=e8 v=0
346592 On ch=1 n=g8 v=0
346600 On ch=1 n=c8 v=85
346602 On ch=1 n=e8 v=78
346616 On ch=1 n=d8 v=0
346636 On ch=1 n=f8 v=0
346642 On ch=1 n=b7 v=90
346648 On ch=1 n=d8 v=74
346676 On ch=1 n=c8 v=0
346682 On ch=1 n=e8 v=0
346686 On ch=1 n=a7 v=90
346692 On ch=1 n=c8 v=72
346716 On ch=1 n=b7 v=0
346722 On ch=1 n=d8 v=0
346728 On ch=1 n=g7 v=87
346732 On ch=1 n=b7 v=76
346764 On ch=1 n=c8 v=0
346770 On ch=1 n=f7 v=90
346794 On ch=1 n=g7 v=0
346808 On ch=1 n=b7 v=0
346820 On ch=1 n=e7 v=84
346824 On ch=1 n=g7 v=66
346860 On ch=1 n=a7 v=0
346864 On ch=1 n=d7 v=99
346866 On ch=1 n=e7 v=0
346900 On ch=1 n=g7 v=0
346910 On ch=1 n=e7 v=71
346912 On ch=1 n=c7 v=88
346922 On ch=1 n=d7 v=0
346942 On ch=1 n=c7 v=0
346946 On ch=1 n=f7 v=0
346952 On ch=1 n=d7 v=80
346954 On ch=1 n=b6 v=89
346984 On ch=1 n=e7 v=0
346994 On ch=1 n=c7 v=82
346996 On ch=1 n=a6 v=94
347004 On ch=1 n=b6 v=0
347030 On ch=1 n=d7 v=0
347038 On ch=1 n=a6 v=0
347038 On ch=1 n=b6 v=82
347042 On ch=1 n=g6 v=89
347070 On ch=1 n=c7 v=0
347078 On ch=1 n=a6 v=88
347084 On ch=1 n=f6 v=88
347088 On ch=1 n=g6 v=0
347118 On ch=1 n=b6 v=0
347122 On ch=1 n=g6 v=75
347128 On ch=1 n=e6 v=98
347136 On ch=1 n=f6 v=0
347164 On ch=1 n=a6 v=0
347168 On ch=1 n=f6 v=76
347174 On ch=1 n=d6 v=90
347178 On ch=1 n=e6 v=0
347208 On ch=1 n=g6 v=0
347214 On ch=1 n=e6 v=85
347218 On ch=1 n=d6 v=0
347220 On ch=1 n=c6 v=92
347252 On ch=1 n=f6 v=0
347258 On ch=1 n=d6 v=79
347260 On ch=1 n=c6 v=0
347266 On ch=1 n=b5 v=93
347302 On ch=1 n=e6 v=0
347306 On ch=1 n=c6 v=81
347310 On ch=1 n=b5 v=0
347314 On ch=1 n=a5 v=89
347346 On ch=1 n=d6 v=0
347352 On ch=1 n=b5 v=84
347358 On ch=1 n=a5 v=0
347362 On ch=1 n=g5 v=86
347392 On ch=1 n=c6 v=0
347394 On ch=1 n=g5 v=0
347396 On ch=1 n=a5 v=87
347408 On ch=1 n=f5 v=84
347438 On ch=1 n=b5 v=0
347442 On ch=1 n=f5 v=0
347442 On ch=1 n=g5 v=82
347456 On ch=1 n=e5 v=89
347484 On ch=1 n=e5 v=0
347486 On ch=1 n=a5 v=0
347490 On ch=1 n=f5 v=87
347500 On ch=1 n=d5 v=83
347530 On ch=1 n=d5 v=0
347530 On ch=1 n=g5 v=0
347540 On ch=1 n=e5 v=63
347548 On ch=1 n=c5 v=87
347576 On ch=1 n=c5 v=0
347580 On ch=1 n=f5 v=0
347588 On ch=1 n=d5 v=79
347598 On ch=1 n=b4 v=81
347630 On ch=1 n=e5 v=0
347638 On ch=1 n=c5 v=71
347644 On ch=1 n=a4 v=89
347646 On ch=1 n=b4 v=0
347680 On ch=1 n=d5 v=0
347696 On ch=1 n=b4 v=60
347698 On ch=1 n=g4 v=77
347710 On ch=1 n=a4 v=0
347728 Par ch=1 c=64 v=63
347736 On ch=1 n=g4 v=0
347740 On ch=1 n=c5 v=0
347742 Par ch=1 c=64 v=0
347762 On ch=1 n=g3 v=98
347778 On ch=1 n=b4 v=0
347858 On ch=1 n=d4 v=99
347868 On ch=1 n=g3 v=0
347884 On ch=1 n=f4 v=84
347888 Par ch=1 c=64 v=63
347890 Par ch=1 c=64 v=127
347958 On ch=1 n=b4 v=94
347972 On ch=1 n=d4 v=0
347976 On ch=1 n=f4 v=0
348010 On ch=1 n=b4 v=0
348016 On ch=1 n=a4 v=85
348040 On ch=1 n=f4 v=89
348084 On ch=1 n=b4 v=29
348098 On ch=1 n=g4 v=42
348124 On ch=1 n=a4 v=0
348128 On ch=1 n=f4 v=0
348150 On ch=1 n=c5 v=64
348152 On ch=1 n=a4 v=35
348178 On ch=1 n=g4 v=0
348198 On ch=1 n=d5 v=73
348216 On ch=1 n=a4 v=0
348222 On ch=1 n=c5 v=0
348248 On ch=1 n=e5 v=60
348252 On ch=1 n=c5 v=39
348282 On ch=1 n=b4 v=0
348304 On ch=1 n=f5 v=68
348316 On ch=1 n=e5 v=0
348334 On ch=1 n=c5 v=0
348352 On ch=1 n=g5 v=58
348356 On ch=1 n=e5 v=38
348380 On ch=1 n=f5 v=0
348392 On ch=1 n=d5 v=0
348400 On ch=1 n=a5 v=68
348408 On ch=1 n=f5 v=39
348428 On ch=1 n=e5 v=0
348450 On ch=1 n=b5 v=72
348462 On ch=1 n=a5 v=0
348474 On ch=1 n=f5 v=0
348494 On ch=1 n=c6 v=81
348498 On ch=1 n=a5 v=49
348504 On ch=1 n=b5 v=0
348528 On ch=1 n=g5 v=0
348548 On ch=1 n=d6 v=60
348550 On ch=1 n=b5 v=40
348572 On ch=1 n=c6 v=0
348592 On ch=1 n=a5 v=0
348594 On ch=1 n=e6 v=68
348604 On ch=1 n=c6 v=46
348638 On ch=1 n=b5 v=0
348644 On ch=1 n=f6 v=76
348658 On ch=1 n=e6 v=0
348678 On ch=1 n=c6 v=0
348694 On ch=1 n=g6 v=67
348702 On ch=1 n=e6 v=53
348704 On ch=1 n=f6 v=0
348730 On ch=1 n=d6 v=0
348740 On ch=1 n=a6 v=71
348758 On ch=1 n=f6 v=64
348760 On ch=1 n=g6 v=0
348776 On ch=1 n=e6 v=0
348794 On ch=1 n=b6 v=48
348814 On ch=1 n=g6 v=37
348820 On ch=1 n=a6 v=0
348840 On ch=1 n=f6 v=0
348854 On ch=1 n=c7 v=64
348872 On ch=1 n=b6 v=0
348876 On ch=1 n=a6 v=53
348896 On ch=1 n=g6 v=0
348910 On ch=1 n=d7 v=63
348934 On ch=1 n=c7 v=0
348940 On ch=1 n=b6 v=36
348950 On ch=1 n=a6 v=0
348970 On ch=1 n=e7 v=51
348986 On ch=1 n=d7 v=0
349002 On ch=1 n=c7 v=64
349020 On ch=1 n=b6 v=0
349034 On ch=1 n=f7 v=49
349054 On ch=1 n=e7 v=0
349058 On ch=1 n=d7 v=42
349088 On ch=1 n=c7 v=0
349090 On ch=1 n=g7 v=52
349120 On ch=1 n=f7 v=0
349126 On ch=1 n=e7 v=37
349152 On ch=1 n=a7 v=40
349160 On ch=1 n=d7 v=0
349188 On ch=1 n=g7 v=0
349222 On ch=1 n=f7 v=17
349248 On ch=1 n=e7 v=0
349276 Par ch=1 c=64 v=63
349288 On ch=1 n=f7 v=0
349290 Par ch=1 c=64 v=0
349310 On ch=1 n=a7 v=0
349346 On ch=1 n=c#5 v=88
349368 Par ch=1 c=64 v=63
349380 Par ch=1 c=64 v=127
349436 On ch=1 n=g#5 v=82
349446 On ch=1 n=c#5 v=0
349510 On ch=1 n=g#5 v=0
349572 On ch=1 n=f6 v=85
349572 On ch=1 n=c#8 v=103
349576 On ch=1 n=c#7 v=105
349580 On ch=1 n=g#7 v=99
349608 On ch=1 n=c#7 v=0
349610 On ch=1 n=g#7 v=0
349622 On ch=1 n=c#8 v=0
349632 On ch=1 n=f6 v=0
349914 On ch=1 n=c#6 v=108
349936 On ch=1 n=g#5 v=70
349958 On ch=1 n=c#6 v=0
349988 On ch=1 n=g#5 v=0
349994 On ch=1 n=c#6 v=100
350026 On ch=1 n=c#6 v=0
350080 On ch=1 n=c#6 v=91
350166 On ch=1 n=f6 v=77
350170 On ch=1 n=c#7 v=109
350174 On ch=1 n=c#6 v=0
350176 On ch=1 n=g#6 v=103
350200 Par ch=1 c=64 v=63
350210 Par ch=1 c=64 v=0
350230 On ch=1 n=c#7 v=0
350232 On ch=1 n=f6 v=0
350234 On ch=1 n=g#6 v=0
350442 On ch=1 n=g#5 v=80
350456 On ch=1 n=c#6 v=105
350496 On ch=1 n=c#6 v=0
350496 On ch=1 n=g#5 v=0
350532 On ch=1 n=c#6 v=106
350590 On ch=1 n=c#6 v=0
350610 On ch=1 n=c#6 v=84
350662 On ch=1 n=c#6 v=0
350686 On ch=1 n=c#5 v=72
350724 On ch=1 n=c#6 v=99
350756 On ch=1 n=c#5 v=0
350768 On ch=1 n=c#6 v=0
350802 On ch=1 n=c#6 v=113
350862 On ch=1 n=c#6 v=0
350894 On ch=1 n=c#6 v=92
350932 On ch=1 n=c#6 v=0
350938 On ch=1 n=g#5 v=76
350970 On ch=1 n=c#6 v=108
350988 On ch=1 n=g#5 v=0
351014 On ch=1 n=c#6 v=0
351050 On ch=1 n=c#6 v=113
351104 On ch=1 n=c#6 v=0
351138 On ch=1 n=c#6 v=105
351184 On ch=1 n=c#6 v=0
351204 Par ch=1 c=64 v=63
351206 Par ch=1 c=64 v=127
351216 On ch=1 n=c#5 v=104
351292 On ch=1 n=c#5 v=0
351454 On ch=1 n=c#6 v=109
351468 On ch=1 n=g#5 v=80
351490 On ch=1 n=c#6 v=0
351530 On ch=1 n=c#6 v=95
351538 On ch=1 n=g#5 v=0
351570 On ch=1 n=c#6 v=0
351610 On ch=1 n=c#6 v=110
351690 On ch=1 n=c#6 v=0
351726 On ch=1 n=f6 v=101
351734 On ch=1 n=c#7 v=114
351736 On ch=1 n=g#6 v=110
351766 On ch=1 n=g#6 v=0
351786 On ch=1 n=f6 v=0
351792 On ch=1 n=c#7 v=0
352012 On ch=1 n=c#6 v=109
352028 On ch=1 n=g#5 v=88
352038 On ch=1 n=c#6 v=0
352068 On ch=1 n=g#5 v=0
352092 On ch=1 n=c#6 v=99
352152 On ch=1 n=c#6 v=0
352168 On ch=1 n=c#6 v=84
352224 On ch=1 n=c#6 v=0
352270 On ch=1 n=c#6 v=103
352270 On ch=1 n=c#5 v=77
352308 On ch=1 n=c#5 v=0
352322 On ch=1 n=c#6 v=0
352352 On ch=1 n=c#6 v=119
352370 Par ch=1 c=64 v=63
352378 Par ch=1 c=64 v=0
352412 On ch=1 n=c#6 v=0
352446 On ch=1 n=c#6 v=103
352490 On ch=1 n=c#6 v=0
352524 On ch=1 n=g#5 v=105
352528 On ch=1 n=c#6 v=107
352572 On ch=1 n=c#6 v=0
352584 On ch=1 n=g#5 v=0
352608 On ch=1 n=c#6 v=114
352664 On ch=1 n=c#6 v=0
352692 On ch=1 n=c#6 v=112
352736 On ch=1 n=c#6 v=0
352784 On ch=1 n=c#5 v=116
352800 Par ch=1 c=64 v=127
352828 On ch=1 n=c#5 v=0
353072 On ch=1 n=c#6 v=104
353098 On ch=1 n=c#6 v=0
353116 Par ch=1 c=64 v=63
353120 Par ch=1 c=64 v=0
353146 On ch=1 n=c#6 v=90
353200 On ch=1 n=c#6 v=0
353212 On ch=1 n=c#6 v=92
353268 On ch=1 n=c#6 v=0
353290 Par ch=1 c=64 v=127
353312 On ch=1 n=c#6 v=125
353362 On ch=1 n=c#6 v=0
353594 On ch=1 n=c#6 v=106
353638 On ch=1 n=c#6 v=0
353672 On ch=1 n=c#6 v=107
353718 On ch=1 n=c#6 v=0
353738 On ch=1 n=c#6 v=97
353794 On ch=1 n=c#6 v=0
353850 On ch=1 n=c#6 v=100
353896 On ch=1 n=c#6 v=0
353936 On ch=1 n=c#6 v=105
353984 On ch=1 n=c#6 v=0
354018 On ch=1 n=c#6 v=105
354078 On ch=1 n=c#6 v=0
354112 On ch=1 n=c#6 v=105
354160 On ch=1 n=c#6 v=0
354194 On ch=1 n=c#6 v=108
354250 On ch=1 n=c#6 v=0
354290 On ch=1 n=c#6 v=105
354342 On ch=1 n=c#6 v=0
354382 On ch=1 n=c#6 v=112
354432 On ch=1 n=c#6 v=0
354656 On ch=1 n=c#6 v=94
354704 On ch=1 n=c#6 v=0
354742 On ch=1 n=c#6 v=97
354798 On ch=1 n=c#6 v=0
354818 On ch=1 n=c#6 v=77
354874 On ch=1 n=c#6 v=0
354916 On ch=1 n=c#6 v=87
354926 Par ch=1 c=67 v=127
354970 On ch=1 n=c#6 v=0
355012 On ch=1 n=c#6 v=90
355066 On ch=1 n=c#6 v=0
355104 On ch=1 n=c#6 v=90
355144 On ch=1 n=c#6 v=0
355190 On ch=1 n=c#6 v=89
355238 On ch=1 n=c#6 v=0
355290 On ch=1 n=c#6 v=87
355342 On ch=1 n=c#6 v=0
355370 On ch=1 n=c#6 v=67
355406 On ch=1 n=c#6 v=0
355454 On ch=1 n=c#6 v=79
355490 On ch=1 n=c#6 v=0
355550 On ch=1 n=c#6 v=77
355592 On ch=1 n=c#6 v=0
355634 On ch=1 n=c#6 v=80
355682 On ch=1 n=c#6 v=0
355738 On ch=1 n=c#6 v=69
355772 On ch=1 n=c#6 v=0
355828 On ch=1 n=c#6 v=74
355876 On ch=1 n=c#6 v=0
355920 On ch=1 n=c#6 v=85
355968 On ch=1 n=c#6 v=0
356008 On ch=1 n=b4 v=35
356056 On ch=1 n=f5 v=37
356090 On ch=1 n=b5 v=47
356124 On ch=1 n=g#6 v=83
356134 Par ch=1 c=64 v=63
356136 Par ch=1 c=64 v=127
356152 On ch=1 n=c#6 v=65
356184 On ch=1 n=b5 v=0
356196 On ch=1 n=g#6 v=0
356200 On ch=1 n=f5 v=0
356214 On ch=1 n=c#6 v=0
356232 On ch=1 n=b4 v=0
356260 On ch=1 n=g#5 v=65
356304 On ch=1 n=g#5 v=0
356364 On ch=1 n=g#5 v=88
356410 On ch=1 n=g#5 v=0
356464 On ch=1 n=c#4 v=73
356464 On ch=1 n=g#5 v=85
356524 On ch=1 n=g#5 v=0
356548 On ch=1 n=c#4 v=0
356552 On ch=1 n=g#5 v=100
356578 On ch=1 n=f#3 v=88
356614 Par ch=1 c=64 v=63
356620 Par ch=1 c=64 v=0
356640 On ch=1 n=c#4 v=70
356662 On ch=1 n=g#5 v=0
356666 Par ch=1 c=64 v=63
356670 On ch=1 n=f#3 v=0
356678 Par ch=1 c=64 v=127
356744 On ch=1 n=b4 v=63
356748 On ch=1 n=g#6 v=95
356750 On ch=1 n=c#4 v=0
356768 On ch=1 n=c#6 v=84
356810 On ch=1 n=b4 v=0
356820 On ch=1 n=g#6 v=0
356840 On ch=1 n=c#6 v=0
356882 On ch=1 n=g#5 v=63
356914 On ch=1 n=g#5 v=0
356966 On ch=1 n=g#5 v=88
357010 On ch=1 n=g#5 v=0
357058 On ch=1 n=g#5 v=88
357112 On ch=1 n=g#5 v=0
357144 On ch=1 n=g#5 v=98
357174 Par ch=1 c=64 v=63
357180 Par ch=1 c=64 v=0
357252 On ch=1 n=g#5 v=0
357272 On ch=1 n=b4 v=58
357290 On ch=1 n=b5 v=63
357296 On ch=1 n=f5 v=52
357316 On ch=1 n=g#6 v=96
357320 On ch=1 n=c#6 v=96
357342 On ch=1 n=b4 v=0
357348 On ch=1 n=f5 v=0
357366 On ch=1 n=b5 v=0
357396 On ch=1 n=g#6 v=0
357404 On ch=1 n=c#6 v=0
357412 On ch=1 n=g#5 v=91
357462 On ch=1 n=g#5 v=0
357544 On ch=1 n=c5 v=59
357556 On ch=1 n=f#5 v=83
357568 On ch=1 n=c6 v=77
357588 On ch=1 n=g#6 v=97
357592 On ch=1 n=c#7 v=84
357620 On ch=1 n=c5 v=0
357622 On ch=1 n=f#5 v=0
357624 On ch=1 n=c6 v=0
357676 On ch=1 n=c#7 v=0
357688 On ch=1 n=g#6 v=0
357716 On ch=1 n=c#6 v=82
357768 On ch=1 n=c#6 v=0
357820 On ch=1 n=b4 v=55
357830 On ch=1 n=b5 v=54
357834 On ch=1 n=f5 v=54
357844 Par ch=1 c=64 v=63
357846 Par ch=1 c=64 v=127
357860 On ch=1 n=g#6 v=82
357870 On ch=1 n=c#6 v=90
357912 On ch=1 n=b5 v=0
357916 On ch=1 n=f5 v=0
357922 On ch=1 n=g#6 v=0
357922 On ch=1 n=b4 v=0
357938 On ch=1 n=c#6 v=0
357970 On ch=1 n=g#5 v=79
358014 On ch=1 n=g#5 v=0
358062 On ch=1 n=g#5 v=94
358108 On ch=1 n=g#5 v=0
358154 On ch=1 n=g#5 v=87
358208 On ch=1 n=g#5 v=0
358240 On ch=1 n=g#5 v=94
358334 On ch=1 n=g#5 v=0
358362 On ch=1 n=b5 v=50
358366 On ch=1 n=b4 v=25
358368 On ch=1 n=f5 v=48
358372 On ch=1 n=g#6 v=90
358374 On ch=1 n=c#6 v=98
358412 On ch=1 n=b5 v=0
358424 On ch=1 n=f5 v=0
358432 On ch=1 n=b4 v=0
358452 On ch=1 n=g#6 v=0
358456 On ch=1 n=c#6 v=0
358480 On ch=1 n=g#5 v=81
358524 Par ch=1 c=64 v=63
358530 Par ch=1 c=64 v=0
358548 On ch=1 n=g#5 v=0
358626 On ch=1 n=a4 v=63
358634 On ch=1 n=d#6 v=71
358636 On ch=1 n=c#5 v=73
358638 On ch=1 n=c#6 v=96
358640 On ch=1 n=a5 v=45
358668 On ch=1 n=c#5 v=0
358680 On ch=1 n=a4 v=0
358694 On ch=1 n=a5 v=0
358722 On ch=1 n=c#6 v=0
358724 On ch=1 n=d#5 v=98
358744 On ch=1 n=d#6 v=0
358784 On ch=1 n=d#5 v=0
358846 On ch=1 n=b4 v=17
358878 On ch=1 n=f5 v=71
358878 On ch=1 n=b5 v=80
358890 On ch=1 n=c#6 v=106
358892 On ch=1 n=g#6 v=96
358910 On ch=1 n=f5 v=0
358922 On ch=1 n=b5 v=0
358928 On ch=1 n=b4 v=0
358946 On ch=1 n=g#6 v=0
358962 On ch=1 n=c#6 v=0
358998 On ch=1 n=g#5 v=84
359050 On ch=1 n=g#5 v=0
359130 On ch=1 n=c#5 v=80
359132 On ch=1 n=a5 v=69
359134 On ch=1 n=a4 v=58
359140 On ch=1 n=d#6 v=100
359154 On ch=1 n=c#6 v=95
359172 On ch=1 n=c#5 v=0
359174 On ch=1 n=a4 v=0
359184 On ch=1 n=a5 v=0
359222 On ch=1 n=c#6 v=0
359228 On ch=1 n=d#6 v=0
359244 On ch=1 n=d#5 v=93
359292 On ch=1 n=d#5 v=0
359348 On ch=1 n=b4 v=27
359400 On ch=1 n=f5 v=64
359420 On ch=1 n=b5 v=77
359436 Par ch=1 c=64 v=127
359456 On ch=1 n=g#6 v=95
359470 On ch=1 n=b5 v=0
359474 On ch=1 n=f5 v=0
359474 On ch=1 n=c#6 v=82
359488 On ch=1 n=b4 v=0
359522 On ch=1 n=c#6 v=0
359522 On ch=1 n=g#6 v=0
359566 On ch=1 n=g#5 v=68
359598 On ch=1 n=g#5 v=0
359652 On ch=1 n=g#5 v=89
359694 On ch=1 n=g#5 v=0
359742 On ch=1 n=g#5 v=92
359744 On ch=1 n=c#4 v=59
359788 On ch=1 n=g#5 v=0
359816 On ch=1 n=c#4 v=0
359818 On ch=1 n=g#5 v=99
359844 On ch=1 n=f#3 v=90
359846 Par ch=1 c=64 v=63
359846 Par ch=1 c=64 v=0
359886 On ch=1 n=c#4 v=57
359918 On ch=1 n=g#5 v=0
359922 On ch=1 n=f#3 v=0
359942 Par ch=1 c=64 v=63
359944 Par ch=1 c=64 v=127
360010 On ch=1 n=b4 v=76
360034 On ch=1 n=g#6 v=101
360040 On ch=1 n=c#4 v=0
360042 On ch=1 n=c#6 v=98
360098 On ch=1 n=g#6 v=0
360102 On ch=1 n=b4 v=0
360110 On ch=1 n=c#6 v=0
360142 On ch=1 n=g#5 v=74
360184 On ch=1 n=g#5 v=0
360230 On ch=1 n=g#5 v=86
360274 On ch=1 n=g#5 v=0
360338 On ch=1 n=g#5 v=67
360366 On ch=1 n=g#5 v=0
360410 On ch=1 n=g#5 v=88
360480 Par ch=1 c=64 v=63
360482 Par ch=1 c=64 v=0
360518 On ch=1 n=g#5 v=0
360542 On ch=1 n=b4 v=66
360546 On ch=1 n=b5 v=74
360558 On ch=1 n=f5 v=68
360562 On ch=1 n=c#6 v=104
360562 On ch=1 n=g#6 v=99
360562 Par ch=1 c=64 v=63
360568 Par ch=1 c=64 v=127
360600 On ch=1 n=f5 v=0
360612 On ch=1 n=b4 v=0
360620 On ch=1 n=b5 v=0
360646 On ch=1 n=g#6 v=0
360646 On ch=1 n=c#6 v=0
360670 On ch=1 n=g#5 v=88
360702 On ch=1 n=g#5 v=0
360738 Par ch=1 c=64 v=63
360746 Par ch=1 c=64 v=0
360836 On ch=1 n=f#5 v=82
360838 On ch=1 n=c5 v=68
360838 On ch=1 n=c6 v=78
360840 Par ch=1 c=64 v=63
360842 On ch=1 n=g#6 v=96
360842 On ch=1 n=c#7 v=89
360844 Par ch=1 c=64 v=127
360880 On ch=1 n=f#5 v=0
360884 On ch=1 n=c6 v=0
360894 On ch=1 n=c5 v=0
360904 Par ch=1 c=64 v=63
360908 Par ch=1 c=64 v=0
360924 On ch=1 n=c#7 v=0
360926 On ch=1 n=g#6 v=0
360952 On ch=1 n=c#6 v=88
361010 On ch=1 n=c#6 v=0
361100 Par ch=1 c=64 v=63
361102 Par ch=1 c=64 v=127
361102 On ch=1 n=b4 v=75
361104 On ch=1 n=b5 v=79
361120 On ch=1 n=f5 v=58
361124 On ch=1 n=g#6 v=86
361138 On ch=1 n=c#6 v=90
361150 On ch=1 n=b5 v=0
361152 On ch=1 n=f5 v=0
361166 On ch=1 n=c#6 v=0
361168 On ch=1 n=b4 v=0
361184 On ch=1 n=g#6 v=0
361224 On ch=1 n=g#5 v=90
361276 On ch=1 n=g#5 v=0
361312 On ch=1 n=g#5 v=94
361356 On ch=1 n=g#5 v=0
361406 On ch=1 n=g#5 v=81
361464 On ch=1 n=g#5 v=0
361500 On ch=1 n=g#5 v=90
361588 On ch=1 n=g#5 v=0
361610 On ch=1 n=b4 v=51
361618 On ch=1 n=b5 v=69
361628 On ch=1 n=f5 v=60
361632 On ch=1 n=g#6 v=101
361640 On ch=1 n=c#6 v=97
361674 On ch=1 n=f5 v=0
361674 On ch=1 n=b5 v=0
361686 On ch=1 n=b4 v=0
361710 On ch=1 n=g#6 v=0
361714 On ch=1 n=c#6 v=0
361730 On ch=1 n=g#5 v=87
361750 Par ch=1 c=64 v=63
361756 Par ch=1 c=64 v=0
361794 On ch=1 n=g#5 v=0
361884 On ch=1 n=a4 v=66
361890 On ch=1 n=d#6 v=88
361894 On ch=1 n=c#5 v=72
361896 On ch=1 n=a5 v=49
361906 On ch=1 n=c#6 v=85
361928 On ch=1 n=c#5 v=0
361938 On ch=1 n=a4 v=0
361948 On ch=1 n=a5 v=0
361966 On ch=1 n=d#6 v=0
361976 On ch=1 n=c#6 v=0
361990 On ch=1 n=d#5 v=88
362034 On ch=1 n=d#5 v=0
362134 On ch=1 n=b4 v=65
362146 On ch=1 n=b5 v=71
362150 On ch=1 n=f5 v=71
362162 On ch=1 n=g#6 v=94
362166 On ch=1 n=c#6 v=96
362184 On ch=1 n=f5 v=0
362186 On ch=1 n=b5 v=0
362208 On ch=1 n=b4 v=0
362228 On ch=1 n=g#6 v=0
362238 On ch=1 n=c#6 v=0
362268 On ch=1 n=g#5 v=76
362316 On ch=1 n=g#5 v=0
362396 On ch=1 n=a5 v=73
362400 On ch=1 n=c#5 v=76
362404 On ch=1 n=a4 v=55
362408 On ch=1 n=d#6 v=88
362426 On ch=1 n=c#6 v=85
362436 On ch=1 n=a5 v=0
362438 On ch=1 n=c#5 v=0
362452 On ch=1 n=a4 v=0
362494 On ch=1 n=d#6 v=0
362512 On ch=1 n=d#5 v=89
362516 On ch=1 n=c#6 v=0
362574 On ch=1 n=d#5 v=0
362618 On ch=1 n=g4 v=60
362662 On ch=1 n=d5 v=62
362690 On ch=1 n=g5 v=72
362700 Par ch=1 c=64 v=63
362702 Par ch=1 c=64 v=127
362706 On ch=1 n=f#6 v=93
362726 On ch=1 n=b5 v=80
362744 On ch=1 n=g5 v=0
362744 On ch=1 n=d5 v=0
362762 On ch=1 n=g4 v=0
362786 On ch=1 n=f#6 v=0
362794 On ch=1 n=b5 v=0
362822 On ch=1 n=f#5 v=67
362856 On ch=1 n=f#5 v=0
362906 On ch=1 n=f#5 v=95
362950 On ch=1 n=f#5 v=0
362998 On ch=1 n=f#5 v=96
363048 On ch=1 n=b3 v=60
363050 On ch=1 n=f#5 v=0
363058 Par ch=1 c=64 v=63
363058 Par ch=1 c=64 v=0
363084 On ch=1 n=f#5 v=94
363094 On ch=1 n=e3 v=84
363110 On ch=1 n=b3 v=0
363160 Par ch=1 c=64 v=63
363160 Par ch=1 c=64 v=127
363172 On ch=1 n=f#5 v=0
363172 On ch=1 n=b3 v=69
363192 On ch=1 n=e3 v=0
363226 On ch=1 n=g4 v=86
363246 On ch=1 n=b3 v=0
363262 On ch=1 n=f#6 v=97
363262 On ch=1 n=b5 v=98
363300 On ch=1 n=g4 v=0
363324 On ch=1 n=b5 v=0
363326 On ch=1 n=f#6 v=0
363346 On ch=1 n=f#5 v=89
363394 On ch=1 n=f#5 v=0
363444 On ch=1 n=f#5 v=95
363488 On ch=1 n=f#5 v=0
363542 On ch=1 n=f#5 v=85
363590 On ch=1 n=f#5 v=0
363636 On ch=1 n=f#5 v=81
363712 Par ch=1 c=64 v=63
363714 Par ch=1 c=64 v=0
363722 On ch=1 n=f#5 v=0
363772 On ch=1 n=g4 v=64
363776 On ch=1 n=g5 v=68
363786 On ch=1 n=d5 v=68
363794 Par ch=1 c=64 v=63
363798 Par ch=1 c=64 v=127
363802 On ch=1 n=f#6 v=91
363810 On ch=1 n=b5 v=87
363822 On ch=1 n=d5 v=0
363822 On ch=1 n=g5 v=0
363826 On ch=1 n=g4 v=0
363874 On ch=1 n=b5 v=0
363878 On ch=1 n=f#5 v=92
363896 On ch=1 n=f#6 v=0
363926 On ch=1 n=f#5 v=0
363994 Par ch=1 c=64 v=63
364002 Par ch=1 c=64 v=0
364040 Par ch=1 c=64 v=63
364050 On ch=1 n=b6 v=91
364050 Par ch=1 c=64 v=127
364056 On ch=1 n=g#4 v=75
364058 On ch=1 n=g#5 v=89
364102 On ch=1 n=g#5 v=0
364120 On ch=1 n=g#4 v=0
364120 On ch=1 n=b6 v=0
364126 Par ch=1 c=64 v=63
364136 Par ch=1 c=64 v=0
364158 On ch=1 n=b5 v=82
364220 On ch=1 n=b5 v=0
364310 On ch=1 n=g4 v=54
364314 On ch=1 n=g5 v=69
364316 On ch=1 n=f#6 v=92
364318 Par ch=1 c=64 v=63
364318 On ch=1 n=d5 v=61
364320 Par ch=1 c=64 v=127
364330 On ch=1 n=b5 v=83
364354 On ch=1 n=d5 v=0
364356 On ch=1 n=g4 v=0
364358 On ch=1 n=g5 v=0
364380 On ch=1 n=b5 v=0
364384 On ch=1 n=f#6 v=0
364414 On ch=1 n=f#5 v=74
364450 On ch=1 n=f#5 v=0
364500 On ch=1 n=f#5 v=93
364540 On ch=1 n=f#5 v=0
364594 On ch=1 n=f#5 v=80
364642 On ch=1 n=f#5 v=0
364680 On ch=1 n=f#5 v=84
364776 On ch=1 n=f#5 v=0
364802 Par ch=1 c=64 v=63
364812 Par ch=1 c=64 v=0
364820 On ch=1 n=g4 v=38
364826 On ch=1 n=g5 v=54
364832 On ch=1 n=d5 v=60
364840 On ch=1 n=f#6 v=98
364848 On ch=1 n=b5 v=86
364854 Par ch=1 c=64 v=63
364872 Par ch=1 c=64 v=127
364880 On ch=1 n=g5 v=0
364888 On ch=1 n=d5 v=0
364890 On ch=1 n=g4 v=0
364916 On ch=1 n=b5 v=0
364920 On ch=1 n=f#6 v=0
364946 On ch=1 n=f#5 v=71
364986 On ch=1 n=f#5 v=0
364998 Par ch=1 c=64 v=63
365010 Par ch=1 c=64 v=0
365092 On ch=1 n=b4 v=67
365094 On ch=1 n=f4 v=64
365096 On ch=1 n=f5 v=61
365098 Par ch=1 c=64 v=63
365110 Par ch=1 c=64 v=127
365112 On ch=1 n=g5 v=64
365136 On ch=1 n=c#6 v=76
365154 On ch=1 n=b4 v=0
365160 On ch=1 n=f4 v=0
365170 On ch=1 n=f5 v=0
365194 On ch=1 n=g5 v=0
365198 On ch=1 n=c#5 v=83
365210 On ch=1 n=c#6 v=0
365240 On ch=1 n=c#5 v=0
365324 Par ch=1 c=64 v=63
365338 Par ch=1 c=64 v=0
365370 On ch=1 n=g4 v=55
365378 On ch=1 n=f#6 v=86
365382 On ch=1 n=g5 v=55
365386 On ch=1 n=d5 v=58
365390 On ch=1 n=b5 v=61
365408 Par ch=1 c=64 v=63
365422 Par ch=1 c=64 v=127
365432 On ch=1 n=d5 v=0
365432 On ch=1 n=g5 v=0
365444 Par ch=1 c=67 v=127
365450 On ch=1 n=g4 v=0
365486 On ch=1 n=f#6 v=0
365506 On ch=1 n=b5 v=0
365520 On ch=1 n=f#5 v=82
365584 On ch=1 n=f#5 v=0
365652 Par ch=1 c=64 v=63
365670 Par ch=1 c=64 v=0
365710 On ch=1 n=f4 v=43
365712 On ch=1 n=f5 v=41
365726 On ch=1 n=c#6 v=73
365736 On ch=1 n=g5 v=36
365760 Par ch=1 c=64 v=63
365768 On ch=1 n=f5 v=0
365774 Par ch=1 c=64 v=127
365792 On ch=1 n=f4 v=0
365856 On ch=1 n=c#5 v=80
365880 On ch=1 n=g5 v=0
365892 On ch=1 n=c#6 v=0
365914 On ch=1 n=c#5 v=0
365976 Par ch=1 c=64 v=63
365984 Par ch=1 c=64 v=0
365994 On ch=1 n=g4 v=55
366066 Par ch=1 c=64 v=63
366076 Par ch=1 c=64 v=127
366082 On ch=1 n=d5 v=45
366116 On ch=1 n=g4 v=0
366122 On ch=1 n=d5 v=0
366134 On ch=1 n=f#5 v=66
366218 On ch=1 n=b5 v=50
366222 On ch=1 n=f#5 v=0
366272 On ch=1 n=f#6 v=70
366286 On ch=1 n=b5 v=0
366310 On ch=1 n=f#6 v=0
366468 On ch=1 n=e3 v=62
366500 On ch=1 n=b3 v=53
366506 On ch=1 n=d6 v=39
366540 On ch=1 n=f#6 v=71
366560 Par ch=1 c=64 v=63
366564 Par ch=1 c=64 v=127
366596 On ch=1 n=d6 v=0
366608 On ch=1 n=d7 v=86
366630 On ch=1 n=e3 v=0
366636 On ch=1 n=f#6 v=0
366650 On ch=1 n=b3 v=0
366668 On ch=1 n=d7 v=0
366984 On ch=1 n=b4 v=59
367034 On ch=1 n=c#7 v=87
367090 On ch=1 n=b4 v=0
367100 On ch=1 n=c#7 v=0
367102 On ch=1 n=d5 v=79
367102 On ch=1 n=d7 v=67
367172 On ch=1 n=c#7 v=63
367222 On ch=1 n=d7 v=0
367230 On ch=1 n=f#5 v=103
367254 On ch=1 n=b6 v=102
367256 On ch=1 n=d5 v=0
367256 Par ch=1 c=64 v=63
367264 Par ch=1 c=64 v=0
367298 On ch=1 n=f#5 v=0
367300 On ch=1 n=c#7 v=0
367316 On ch=1 n=b6 v=0
367506 On ch=1 n=a#6 v=106
367512 On ch=1 n=b5 v=76
367516 On ch=1 n=d6 v=76
367546 On ch=1 n=b5 v=0
367554 On ch=1 n=d6 v=0
367564 On ch=1 n=a#6 v=0
367760 On ch=1 n=f#6 v=90
367762 On ch=1 n=c#6 v=93
367764 On ch=1 n=b5 v=82
367812 On ch=1 n=c#6 v=0
367824 On ch=1 n=f#6 v=0
367856 On ch=1 n=b5 v=0
367858 On ch=1 n=g5 v=76
367990 On ch=1 n=g6 v=93
367992 On ch=1 n=d5 v=66
367998 On ch=1 n=d6 v=75
368022 On ch=1 n=g5 v=0
368032 On ch=1 n=d6 v=0
368048 On ch=1 n=g6 v=0
368110 On ch=1 n=b4 v=30
368134 On ch=1 n=d5 v=0
368164 On ch=1 n=b4 v=0
368236 On ch=1 n=d6 v=79
368260 On ch=1 n=g6 v=96
368270 On ch=1 n=b4 v=90
368272 On ch=1 n=e4 v=84
368276 On ch=1 n=d7 v=106
368286 On ch=1 n=d6 v=0
368286 Par ch=1 c=64 v=63
368288 On ch=1 n=g6 v=0
368288 Par ch=1 c=64 v=127
368306 On ch=1 n=e4 v=0
368318 On ch=1 n=b4 v=0
368338 On ch=1 n=d7 v=0
368554 On ch=1 n=b4 v=47
368564 On ch=1 n=c#7 v=107
368626 On ch=1 n=d7 v=89
368636 On ch=1 n=b4 v=0
368638 On ch=1 n=d5 v=86
368650 On ch=1 n=c#7 v=0
368710 On ch=1 n=c#7 v=71
368756 On ch=1 n=d7 v=0
368760 On ch=1 n=f#5 v=112
368776 Par ch=1 c=64 v=63
368780 On ch=1 n=b6 v=106
368784 Par ch=1 c=64 v=0
368786 On ch=1 n=d5 v=0
368820 On ch=1 n=f#5 v=0
368824 On ch=1 n=c#7 v=0
368834 On ch=1 n=b6 v=0
368984 Par ch=1 c=67 v=127
368994 On ch=1 n=b5 v=102
369002 On ch=1 n=a#6 v=113
369004 On ch=1 n=d6 v=89
369046 On ch=1 n=d6 v=0
369050 On ch=1 n=b5 v=0
369062 On ch=1 n=a#6 v=0
369238 On ch=1 n=b5 v=94
369244 On ch=1 n=c#6 v=110
369244 On ch=1 n=f#6 v=108
369286 On ch=1 n=c#6 v=0
369300 On ch=1 n=f#6 v=0
369320 On ch=1 n=g5 v=101
369336 On ch=1 n=b5 v=0
369442 On ch=1 n=d5 v=90
369462 On ch=1 n=g6 v=112
369466 On ch=1 n=d6 v=109
369502 On ch=1 n=g5 v=0
369518 On ch=1 n=d6 v=0
369524 On ch=1 n=g6 v=0
369538 On ch=1 n=b4 v=77
369568 On ch=1 n=d5 v=0
369592 On ch=1 n=b4 v=0
369608 On ch=1 n=e3 v=63
369670 On ch=1 n=b3 v=85
369694 On ch=1 n=f#6 v=94
369712 On ch=1 n=b6 v=97
369718 On ch=1 n=e3 v=0
369744 On ch=1 n=b3 v=0
369746 On ch=1 n=f#7 v=107
369748 Par ch=1 c=64 v=127
369750 On ch=1 n=f#6 v=0
369790 On ch=1 n=b6 v=0
369872 On ch=1 n=f#7 v=0
369948 On ch=1 n=d5 v=87
369952 On ch=1 n=e7 v=89
370006 On ch=1 n=f#7 v=104
370030 On ch=1 n=e7 v=0
370034 On ch=1 n=f#5 v=105
370078 On ch=1 n=e7 v=85
370106 On ch=1 n=f#7 v=0
370150 On ch=1 n=b5 v=100
370152 On ch=1 n=d5 v=0
370156 On ch=1 n=d7 v=107
370170 On ch=1 n=f#5 v=0
370198 On ch=1 n=e7 v=0
370212 On ch=1 n=d7 v=0
370216 On ch=1 n=b5 v=0
370386 On ch=1 n=d6 v=93
370390 On ch=1 n=f#6 v=105
370390 On ch=1 n=c#7 v=119
370438 On ch=1 n=f#6 v=0
370440 On ch=1 n=d6 v=0
370446 On ch=1 n=c#7 v=0
370574 Par ch=1 c=64 v=63
370582 Par ch=1 c=64 v=0
370626 On ch=1 n=d6 v=94
370636 Par ch=1 c=67 v=0
370638 On ch=1 n=a#6 v=101
370644 On ch=1 n=c#6 v=101
370658 On ch=1 n=f#6 v=69
370670 On ch=1 n=c#6 v=0
370688 On ch=1 n=f#6 v=0
370718 On ch=1 n=a#6 v=0
370722 On ch=1 n=b5 v=91
370758 On ch=1 n=d6 v=0
370764 On ch=1 n=f#6 v=20
370794 On ch=1 n=f#6 v=0
370840 On ch=1 n=f#5 v=93
370844 On ch=1 n=b6 v=111
370846 On ch=1 n=d6 v=108
370846 On ch=1 n=g6 v=103
370896 On ch=1 n=d6 v=0
370900 On ch=1 n=g6 v=0
370920 On ch=1 n=b6 v=0
370922 On ch=1 n=b5 v=0
370956 On ch=1 n=d5 v=92
371010 On ch=1 n=f#5 v=0
371022 On ch=1 n=d5 v=0
371074 On ch=1 n=b4 v=117
371086 On ch=1 n=f#7 v=114
371088 On ch=1 n=b6 v=98
371092 On ch=1 n=f#6 v=97
371098 Par ch=1 c=64 v=63
371098 Par ch=1 c=64 v=127
371120 On ch=1 n=f#6 v=0
371136 On ch=1 n=b6 v=0
371208 On ch=1 n=f#7 v=0
371304 On ch=1 n=b4 v=0
371306 On ch=1 n=d5 v=103
371324 On ch=1 n=e7 v=108
371382 On ch=1 n=f#7 v=109
371402 On ch=1 n=e7 v=0
371406 On ch=1 n=f#5 v=113
371450 On ch=1 n=e7 v=85
371464 On ch=1 n=f#7 v=0
371492 On ch=1 n=d5 v=0
371516 On ch=1 n=b5 v=104
371522 On ch=1 n=d7 v=114
371540 On ch=1 n=f#5 v=0
371574 On ch=1 n=e7 v=0
371584 On ch=1 n=b5 v=0
371590 On ch=1 n=d7 v=0
371746 On ch=1 n=d6 v=112
371750 On ch=1 n=f#6 v=114
371750 On ch=1 n=c#7 v=123
371796 On ch=1 n=f#6 v=0
371802 On ch=1 n=d6 v=0
371814 On ch=1 n=c#7 v=0
371968 On ch=1 n=d6 v=109
371990 On ch=1 n=a#6 v=100
372000 On ch=1 n=c#6 v=90
372004 On ch=1 n=f#6 v=80
372026 On ch=1 n=c#6 v=0
372032 On ch=1 n=f#6 v=0
372060 On ch=1 n=d6 v=0
372074 On ch=1 n=a#6 v=0
372074 On ch=1 n=b5 v=117
372182 On ch=1 n=g5 v=109
372186 On ch=1 n=b6 v=113
372190 On ch=1 n=g6 v=106
372192 On ch=1 n=d6 v=104
372224 On ch=1 n=b5 v=0
372228 On ch=1 n=d6 v=0
372236 On ch=1 n=g6 v=0
372256 On ch=1 n=b6 v=0
372280 Par ch=1 c=64 v=63
372292 Par ch=1 c=64 v=0
372294 On ch=1 n=d5 v=112
372330 On ch=1 n=g5 v=0
372366 On ch=1 n=d5 v=0
372428 Par ch=1 c=64 v=127
372430 On ch=1 n=g7 v=117
372432 On ch=1 n=d8 v=121
372432 On ch=1 n=d7 v=113
372464 On ch=1 n=d7 v=0
372476 On ch=1 n=g7 v=0
372486 On ch=1 n=d8 v=0
372664 On ch=1 n=b6 v=106
372670 On ch=1 n=f#6 v=101
372678 On ch=1 n=g6 v=94
372760 On ch=1 n=b6 v=0
372786 On ch=1 n=f#6 v=0
372788 On ch=1 n=g6 v=0
372868 On ch=1 n=e6 v=94
372874 On ch=1 n=d6 v=99
372904 On ch=1 n=d6 v=0
372910 On ch=1 n=e6 v=0
373092 On ch=1 n=b5 v=121
373094 On ch=1 n=g5 v=114
373096 On ch=1 n=f#5 v=125
373110 Par ch=1 c=64 v=63
373116 Par ch=1 c=64 v=0
373200 Par ch=1 c=64 v=63
373210 Par ch=1 c=64 v=127
373298 Par ch=1 c=64 v=63
373304 On ch=1 n=e5 v=112
373306 Par ch=1 c=64 v=0
373330 On ch=1 n=g5 v=0
373334 On ch=1 n=b5 v=0
373336 On ch=1 n=f#5 v=0
373374 On ch=1 n=e5 v=0
373380 Par ch=1 c=64 v=63
373390 Par ch=1 c=64 v=127
373572 On ch=1 n=e4 v=84
373580 On ch=1 n=g5 v=58
373630 On ch=1 n=d6 v=103
373640 On ch=1 n=g5 v=0
373654 On ch=1 n=g6 v=109
373654 On ch=1 n=b4 v=112
373668 On ch=1 n=d5 v=124
373672 On ch=1 n=b6 v=116
373678 On ch=1 n=d6 v=0
373714 On ch=1 n=g6 v=0
373724 On ch=1 n=b6 v=0
373772 On ch=1 n=b4 v=0
373788 On ch=1 n=d5 v=0
373810 On ch=1 n=e4 v=0
373956 Par ch=1 c=64 v=63
373968 Par ch=1 c=64 v=0
375372 Par ch=1 c=67 v=127
375658 On ch=1 n=f#3 v=60
375670 On ch=1 n=a#3 v=67
375672 On ch=1 n=d4 v=55
375704 On ch=1 n=a#3 v=0
375714 On ch=1 n=d4 v=0
375714 On ch=1 n=f#3 v=0
375982 On ch=1 n=d3 v=64
375990 On ch=1 n=a3 v=51
376026 On ch=1 n=d3 v=0
376032 On ch=1 n=a3 v=0
376234 On ch=1 n=f#3 v=80
376242 On ch=1 n=a#3 v=71
376242 On ch=1 n=d4 v=66
376274 On ch=1 n=a#3 v=0
376278 On ch=1 n=f#3 v=0
376282 On ch=1 n=d4 v=0
376460 Par ch=1 c=64 v=63
376464 Par ch=1 c=64 v=127
376482 On ch=1 n=a2 v=78
376488 On ch=1 n=a3 v=63
376522 On ch=1 n=a2 v=0
376526 On ch=1 n=a3 v=0
376598 Par ch=1 c=64 v=63
376610 Par ch=1 c=64 v=0
376716 On ch=1 n=f#3 v=80
376740 On ch=1 n=a#3 v=60
376742 On ch=1 n=d4 v=57
376766 On ch=1 n=f#3 v=0
376772 On ch=1 n=a#3 v=0
376782 On ch=1 n=d4 v=0
376984 On ch=1 n=f#4 v=88
376988 On ch=1 n=a#3 v=85
376990 On ch=1 n=c#4 v=82
377018 On ch=1 n=a#3 v=0
377026 On ch=1 n=c#4 v=0
377048 On ch=1 n=f#4 v=0
377224 On ch=1 n=f#3 v=97
377228 On ch=1 n=a#3 v=88
377234 On ch=1 n=d4 v=83
377260 On ch=1 n=f#3 v=0
377266 On ch=1 n=a#3 v=0
377290 On ch=1 n=d4 v=0
377474 On ch=1 n=a3 v=82
377486 On ch=1 n=d3 v=72
377514 On ch=1 n=a3 v=0
377516 On ch=1 n=d3 v=0
377690 On ch=1 n=a#3 v=84
377694 On ch=1 n=f#3 v=82
377698 On ch=1 n=d4 v=67
377736 On ch=1 n=d4 v=0
377758 On ch=1 n=a#3 v=0
377762 On ch=1 n=f#3 v=0
377944 On ch=1 n=a1 v=85
377944 On ch=1 n=a3 v=84
377958 On ch=1 n=f3 v=64
377966 Par ch=1 c=64 v=63
377968 Par ch=1 c=64 v=127
378006 On ch=1 n=a1 v=0
378012 On ch=1 n=f3 v=0
378026 On ch=1 n=a3 v=0
378138 Par ch=1 c=64 v=63
378146 Par ch=1 c=64 v=0
378170 On ch=1 n=c4 v=88
378170 On ch=1 n=g#3 v=86
378204 On ch=1 n=e3 v=81
378232 On ch=1 n=g#3 v=0
378252 On ch=1 n=c4 v=0
378262 On ch=1 n=e3 v=0
378454 On ch=1 n=g3 v=81
378466 On ch=1 n=d#3 v=78
378502 On ch=1 n=d#3 v=0
378512 On ch=1 n=g3 v=0
378740 On ch=1 n=f#3 v=81
378746 On ch=1 n=a#3 v=73
378750 On ch=1 n=d4 v=71
378776 On ch=1 n=a#3 v=0
378786 On ch=1 n=f#3 v=0
378796 On ch=1 n=d4 v=0
379012 On ch=1 n=a3 v=60
379012 On ch=1 n=d3 v=68
379042 On ch=1 n=d3 v=0
379048 On ch=1 n=a3 v=0
379240 On ch=1 n=d4 v=100
379248 On ch=1 n=f#3 v=88
379256 On ch=1 n=a#3 v=73
379274 On ch=1 n=f#3 v=0
379286 On ch=1 n=a#3 v=0
379304 On ch=1 n=d4 v=0
379474 On ch=1 n=a3 v=97
379476 On ch=1 n=a2 v=94
379518 On ch=1 n=a3 v=0
379532 On ch=1 n=a2 v=0
379686 On ch=1 n=f#3 v=95
379694 On ch=1 n=a#3 v=87
379696 On ch=1 n=d4 v=84
379724 On ch=1 n=f#3 v=0
379732 On ch=1 n=a#3 v=0
379770 On ch=1 n=d4 v=0
379926 On ch=1 n=f#4 v=89
379934 On ch=1 n=a#3 v=80
379936 On ch=1 n=c#4 v=88
379968 On ch=1 n=a#3 v=0
379982 On ch=1 n=c#4 v=0
379996 On ch=1 n=f#4 v=0
380164 On ch=1 n=f#3 v=80
380164 On ch=1 n=d4 v=88
380166 On ch=1 n=a#3 v=86
380192 On ch=1 n=f#3 v=0
380196 On ch=1 n=a#3 v=0
380210 On ch=1 n=d4 v=0
380394 On ch=1 n=a3 v=84
380402 On ch=1 n=d3 v=78
380430 On ch=1 n=a3 v=0
380434 On ch=1 n=d3 v=0
380598 On ch=1 n=d4 v=84
380600 On ch=1 n=a#3 v=78
380608 On ch=1 n=f#3 v=72
380650 On ch=1 n=a#3 v=0
380652 On ch=1 n=f#3 v=0
380654 On ch=1 n=d4 v=0
380842 On ch=1 n=a1 v=80
380852 On ch=1 n=a3 v=75
380864 On ch=1 n=f3 v=72
380870 Par ch=1 c=64 v=63
380874 Par ch=1 c=64 v=127
380914 On ch=1 n=a1 v=0
380918 On ch=1 n=f3 v=0
380936 On ch=1 n=a3 v=0
381076 Par ch=1 c=64 v=63
381080 Par ch=1 c=64 v=0
381100 On ch=1 n=g#3 v=85
381102 On ch=1 n=e3 v=76
381102 On ch=1 n=c4 v=84
381146 On ch=1 n=e3 v=0
381162 On ch=1 n=g#3 v=0
381186 On ch=1 n=c4 v=0
381426 On ch=1 n=d#3 v=58
381430 On ch=1 n=g3 v=70
381496 On ch=1 n=d#3 v=0
381500 On ch=1 n=g3 v=0
381876 On ch=1 n=a4 v=36
381882 On ch=1 n=g4 v=37
381900 Par ch=1 c=64 v=63
381920 Par ch=1 c=64 v=127
381958 On ch=1 n=c5 v=67
382012 On ch=1 n=e5 v=60
382036 On ch=1 n=c5 v=0
382108 On ch=1 n=a4 v=0
382108 On ch=1 n=c6 v=84
382116 On ch=1 n=e5 v=0
382132 On ch=1 n=g4 v=0
382326 On ch=1 n=c6 v=0
382472 On ch=1 n=a3 v=63
382546 On ch=1 n=a3 v=0
382568 On ch=1 n=b5 v=97
382624 On ch=1 n=c6 v=91
382648 On ch=1 n=b5 v=0
382706 On ch=1 n=b5 v=97
382778 On ch=1 n=c6 v=0
382826 On ch=1 n=a2 v=69
382852 On ch=1 n=g#5 v=108
382908 On ch=1 n=b5 v=0
382982 Par ch=1 c=64 v=63
382990 Par ch=1 c=64 v=0
383070 Par ch=1 c=64 v=63
383082 Par ch=1 c=64 v=127
383170 On ch=1 n=a3 v=89
383196 On ch=1 n=a2 v=0
383216 On ch=1 n=g#5 v=0
383230 On ch=1 n=a3 v=0
383504 On ch=1 n=a4 v=66
383506 On ch=1 n=a5 v=120
383508 On ch=1 n=g4 v=65
383736 On ch=1 n=a4 v=0
383742 On ch=1 n=g4 v=0
383768 On ch=1 n=e5 v=99
383774 On ch=1 n=c5 v=96
383806 On ch=1 n=c5 v=0
383816 On ch=1 n=a5 v=0
383826 On ch=1 n=e5 v=0
383884 On ch=1 n=g4 v=80
383990 On ch=1 n=b4 v=76
384032 Par ch=1 c=64 v=63
384040 Par ch=1 c=64 v=0
384068 On ch=1 n=e5 v=85
384096 Par ch=1 c=64 v=63
384102 On ch=1 n=g5 v=83
384112 Par ch=1 c=64 v=127
384152 On ch=1 n=b5 v=85
384180 On ch=1 n=e5 v=0
384234 On ch=1 n=b4 v=0
384260 On ch=1 n=g4 v=0
384260 On ch=1 n=e6 v=114
384280 On ch=1 n=g5 v=0
384324 On ch=1 n=b5 v=0
384654 On ch=1 n=a3 v=63
384752 On ch=1 n=a3 v=0
384810 On ch=1 n=e6 v=0
384832 On ch=1 n=c6 v=80
384978 On ch=1 n=a2 v=53
385014 On ch=1 n=b5 v=83
385030 On ch=1 n=a2 v=0
385044 On ch=1 n=c6 v=0
385150 On ch=1 n=g5 v=79
385162 On ch=1 n=b5 v=0
385272 On ch=1 n=g5 v=0
385278 On ch=1 n=e5 v=77
385280 On ch=1 n=a1 v=78
385356 On ch=1 n=e5 v=0
385404 On ch=1 n=c5 v=82
385492 On ch=1 n=c5 v=0
385570 On ch=1 n=a2 v=68
385590 On ch=1 n=a1 v=0
385592 On ch=1 n=g4 v=71
385626 On ch=1 n=a2 v=0
385662 On ch=1 n=g4 v=0
385672 On ch=1 n=e4 v=84
385746 On ch=1 n=e4 v=0
385760 On ch=1 n=c4 v=101
385828 On ch=1 n=c4 v=0
385874 On ch=1 n=a3 v=97
385948 Par ch=1 c=64 v=63
385958 Par ch=1 c=64 v=0
386130 On ch=1 n=a3 v=0
386206 Par ch=1 c=64 v=63
386210 Par ch=1 c=64 v=127
386244 On ch=1 n=a2 v=101
386292 On ch=1 n=a2 v=0
386574 On ch=1 n=a3 v=75
386638 On ch=1 n=a3 v=0
386854 On ch=1 n=a#4 v=67
386864 On ch=1 n=d#5 v=59
386864 On ch=1 n=c#5 v=51
386886 On ch=1 n=a#4 v=0
386894 On ch=1 n=d#5 v=0
386896 On ch=1 n=c#5 v=0
387078 Par ch=1 c=64 v=63
387080 On ch=1 n=a4 v=111
387086 Par ch=1 c=64 v=0
387320 On ch=1 n=a#4 v=63
387328 On ch=1 n=d#5 v=47
387362 On ch=1 n=d#5 v=0
387362 On ch=1 n=a#4 v=0
387600 On ch=1 n=g5 v=63
387600 On ch=1 n=d#5 v=78
387606 On ch=1 n=c#5 v=70
387634 On ch=1 n=c#5 v=0
387640 On ch=1 n=d#5 v=0
387642 On ch=1 n=g5 v=0
387928 On ch=1 n=d#5 v=74
387930 On ch=1 n=a#4 v=65
387938 On ch=1 n=c#5 v=54
387948 Par ch=1 c=64 v=63
387948 Par ch=1 c=64 v=127
387962 On ch=1 n=d#5 v=0
387964 On ch=1 n=a#4 v=0
387968 On ch=1 n=c#5 v=0
388054 On ch=1 n=a4 v=0
388262 On ch=1 n=a4 v=100
388346 On ch=1 n=a4 v=0
388418 On ch=1 n=a4 v=98
388504 On ch=1 n=a4 v=0
388582 On ch=1 n=a4 v=107
388598 On ch=1 n=c#5 v=72
388600 On ch=1 n=a#4 v=71
388600 On ch=1 n=d#5 v=76
388626 On ch=1 n=c#5 v=0
388634 On ch=1 n=d#5 v=0
388634 On ch=1 n=a#4 v=0
388660 On ch=1 n=a4 v=0
388702 On ch=1 n=a4 v=100
388814 On ch=1 n=a4 v=0
388844 On ch=1 n=a4 v=86
388852 On ch=1 n=f4 v=77
388870 On ch=1 n=a#4 v=71
388886 Par ch=1 c=64 v=63
388888 On ch=1 n=f4 v=0
388900 Par ch=1 c=64 v=0
388940 Par ch=1 c=64 v=63
388968 Par ch=1 c=64 v=127
389108 On ch=1 n=d5 v=63
389170 On ch=1 n=a4 v=0
389176 On ch=1 n=a#4 v=0
389208 On ch=1 n=g4 v=104
389238 On ch=1 n=d5 v=0
389294 Par ch=1 c=64 v=63
389308 Par ch=1 c=64 v=0
389312 On ch=1 n=g4 v=0
389332 Par ch=1 c=64 v=63
389356 On ch=1 n=a#4 v=78
389356 On ch=1 n=d#4 v=70
389358 Par ch=1 c=64 v=127
389420 On ch=1 n=d#4 v=0
389460 On ch=1 n=a#4 v=0
389660 On ch=1 n=a2 v=102
389710 Par ch=1 c=64 v=63
389722 Par ch=1 c=64 v=0
389936 Par ch=1 c=64 v=63
389938 On ch=1 n=d#4 v=70
389940 Par ch=1 c=64 v=127
389948 On ch=1 n=a#4 v=63
389952 On ch=1 n=a3 v=87
389964 On ch=1 n=d#4 v=0
389984 On ch=1 n=a#4 v=0
389990 On ch=1 n=a2 v=0
390022 On ch=1 n=a3 v=0
390200 On ch=1 n=g4 v=112
390226 On ch=1 n=c#5 v=72
390234 On ch=1 n=d#5 v=62
390256 On ch=1 n=c#5 v=0
390268 On ch=1 n=d#5 v=0
390438 On ch=1 n=a4 v=113
390448 Par ch=1 c=64 v=63
390454 Par ch=1 c=64 v=0
390492 On ch=1 n=g4 v=0
390564 Par ch=1 c=64 v=63
390572 Par ch=1 c=64 v=127
390676 Par ch=1 c=64 v=63
390684 Par ch=1 c=64 v=0
390710 On ch=1 n=a#4 v=119
390710 On ch=1 n=c#5 v=83
390710 On ch=1 n=g4 v=65
390736 On ch=1 n=a4 v=0
390746 Par ch=1 c=64 v=63
390752 On ch=1 n=g4 v=0
390756 Par ch=1 c=64 v=127
390784 On ch=1 n=c#5 v=0
390900 On ch=1 n=a#4 v=0
390938 On ch=1 n=g5 v=108
390942 On ch=1 n=a4 v=108
390946 On ch=1 n=d#5 v=107
390960 On ch=1 n=c#5 v=67
390988 On ch=1 n=c#5 v=0
390994 On ch=1 n=d#5 v=0
390994 On ch=1 n=g5 v=0
391148 On ch=1 n=a4 v=0
391176 On ch=1 n=c5 v=118
391178 Par ch=1 c=64 v=63
391184 Par ch=1 c=64 v=0
391422 On ch=1 n=g5 v=100
391422 On ch=1 n=c#5 v=104
391428 Par ch=1 c=64 v=63
391430 Par ch=1 c=64 v=127
391470 On ch=1 n=c#5 v=0
391490 On ch=1 n=g5 v=0
391546 On ch=1 n=a#4 v=123
391584 On ch=1 n=c5 v=0
391674 On ch=1 n=d#6 v=112
391682 On ch=1 n=c#6 v=107
391760 On ch=1 n=c#6 v=0
391764 On ch=1 n=d#6 v=0
391920 On ch=1 n=a4 v=120
391964 On ch=1 n=a#4 v=0
391964 Par ch=1 c=64 v=63
391974 Par ch=1 c=64 v=0
392048 Par ch=1 c=64 v=63
392062 Par ch=1 c=64 v=127
392162 On ch=1 n=d#6 v=112
392164 On ch=1 n=g5 v=106
392166 On ch=1 n=c#6 v=103
392176 Par ch=1 c=67 v=0
392210 On ch=1 n=g5 v=0
392218 On ch=1 n=c#6 v=0
392226 On ch=1 n=d#6 v=0
392296 On ch=1 n=g4 v=101
392330 On ch=1 n=a4 v=0
392364 On ch=1 n=g4 v=0
392470 On ch=1 n=c#6 v=76
392486 On ch=1 n=d#6 v=77
392496 On ch=1 n=g6 v=89
392520 On ch=1 n=c#6 v=0
392534 On ch=1 n=d#6 v=0
392538 On ch=1 n=g6 v=0
392676 On ch=1 n=f#4 v=51
392744 On ch=1 n=b4 v=34
392776 On ch=1 n=d#5 v=82
392796 Par ch=1 c=64 v=127
392822 On ch=1 n=b6 v=73
392826 On ch=1 n=d#5 v=0
392836 On ch=1 n=b4 v=0
392842 On ch=1 n=a5 v=36
392844 On ch=1 n=b5 v=35
392846 On ch=1 n=f#6 v=50
392846 On ch=1 n=d#6 v=51
392866 On ch=1 n=f#4 v=0
392888 On ch=1 n=f#6 v=0
392890 On ch=1 n=b5 v=0
392890 On ch=1 n=a5 v=0
392894 On ch=1 n=d#6 v=0
392904 Par ch=1 c=64 v=63
392906 On ch=1 n=b6 v=0
392914 Par ch=1 c=64 v=0
393124 On ch=1 n=a3 v=72
393194 On ch=1 n=a3 v=0
393376 On ch=1 n=b6 v=78
393386 On ch=1 n=a2 v=71
393386 On ch=1 n=d#6 v=70
393388 On ch=1 n=b5 v=53
393388 On ch=1 n=f#6 v=67
393392 On ch=1 n=a5 v=43
393424 On ch=1 n=f#6 v=0
393426 On ch=1 n=d#6 v=0
393430 On ch=1 n=b5 v=0
393438 On ch=1 n=a5 v=0
393444 On ch=1 n=b6 v=0
393464 On ch=1 n=a2 v=0
393614 On ch=1 n=a3 v=89
393670 On ch=1 n=a3 v=0
393846 On ch=1 n=a4 v=72
393850 On ch=1 n=b6 v=64
393856 On ch=1 n=f#6 v=75
393858 On ch=1 n=b5 v=55
393858 On ch=1 n=d#6 v=73
393860 On ch=1 n=a5 v=48
393894 On ch=1 n=d#6 v=0
393900 On ch=1 n=b5 v=0
393900 On ch=1 n=f#6 v=0
393904 On ch=1 n=a5 v=0
393914 On ch=1 n=b6 v=0
393920 On ch=1 n=a4 v=0
394108 On ch=1 n=d5 v=99
394114 On ch=1 n=d7 v=90
394116 On ch=1 n=f#4 v=85
394120 On ch=1 n=f#6 v=80
394120 On ch=1 n=a6 v=83
394124 On ch=1 n=d6 v=54
394128 On ch=1 n=c5 v=46
394154 On ch=1 n=f#6 v=0
394160 On ch=1 n=d6 v=0
394164 On ch=1 n=f#4 v=0
394166 On ch=1 n=c5 v=0
394166 On ch=1 n=a6 v=0
394168 On ch=1 n=d5 v=0
394174 On ch=1 n=d7 v=0
394356 On ch=1 n=d#5 v=101
394364 On ch=1 n=b6 v=82
394366 On ch=1 n=b5 v=68
394368 On ch=1 n=b4 v=80
394370 On ch=1 n=f#4 v=80
394372 On ch=1 n=d#6 v=86
394374 On ch=1 n=f#6 v=83
394400 On ch=1 n=b4 v=0
394406 On ch=1 n=d#5 v=0
394430 On ch=1 n=b5 v=0
394432 On ch=1 n=f#4 v=0
394436 On ch=1 n=d#6 v=0
394444 On ch=1 n=f#6 v=0
394456 On ch=1 n=b6 v=0
394626 On ch=1 n=a2 v=65
394852 On ch=1 n=b6 v=84
394854 On ch=1 n=a3 v=87
394858 On ch=1 n=f#6 v=87
394862 On ch=1 n=d#6 v=84
394870 On ch=1 n=b5 v=52
394870 On ch=1 n=a5 v=47
394874 On ch=1 n=a2 v=0
394904 On ch=1 n=a3 v=0
394908 On ch=1 n=b5 v=0
394910 On ch=1 n=d#6 v=0
394912 On ch=1 n=a5 v=0
394912 On ch=1 n=b6 v=0
394920 On ch=1 n=f#6 v=0
395112 On ch=1 n=c#5 v=99
395120 On ch=1 n=f#6 v=95
395120 On ch=1 n=e5 v=78
395124 On ch=1 n=a5 v=74
395128 On ch=1 n=c#6 v=73
395162 On ch=1 n=c#6 v=0
395166 On ch=1 n=e5 v=0
395166 On ch=1 n=c#5 v=0
395170 On ch=1 n=a5 v=0
395188 On ch=1 n=f#6 v=0
395344 On ch=1 n=a6 v=94
395348 On ch=1 n=g4 v=66
395384 On ch=1 n=g4 v=0
395404 On ch=1 n=a6 v=0
395586 On ch=1 n=e6 v=96
395586 On ch=1 n=b4 v=84
395590 On ch=1 n=c5 v=76
395592 On ch=1 n=a5 v=78
395592 On ch=1 n=c6 v=84
395594 On ch=1 n=e5 v=71
395628 On ch=1 n=c6 v=0
395628 On ch=1 n=c5 v=0
395630 On ch=1 n=e5 v=0
395630 On ch=1 n=a5 v=0
395636 On ch=1 n=b4 v=0
395656 On ch=1 n=e6 v=0
395838 On ch=1 n=d#6 v=88
395838 On ch=1 n=b6 v=76
395838 On ch=1 n=f#6 v=86
395840 On ch=1 n=d#5 v=89
395842 On ch=1 n=f#4 v=85
395844 On ch=1 n=b4 v=74
395852 On ch=1 n=a5 v=46
395852 On ch=1 n=b5 v=49
395866 On ch=1 n=d#5 v=0
395874 On ch=1 n=b4 v=0
395878 Par ch=1 c=64 v=63
395880 Par ch=1 c=64 v=127
395898 On ch=1 n=a5 v=0
395900 On ch=1 n=b5 v=0
395900 On ch=1 n=d#6 v=0
395906 On ch=1 n=f#4 v=0
395906 On ch=1 n=f#6 v=0
395922 On ch=1 n=b6 v=0
395930 Par ch=1 c=64 v=63
395944 Par ch=1 c=64 v=0
396068 On ch=1 n=a3 v=66
396078 Par ch=1 c=64 v=63
396080 Par ch=1 c=64 v=127
396126 On ch=1 n=a3 v=0
396158 On ch=1 n=d#4 v=89
396192 On ch=1 n=f#4 v=83
396228 On ch=1 n=d#4 v=0
396246 On ch=1 n=f#4 v=0
396246 On ch=1 n=b4 v=94
396314 On ch=1 n=b6 v=76
396316 On ch=1 n=b4 v=0
396316 On ch=1 n=d#6 v=90
396318 On ch=1 n=d#5 v=120
396318 On ch=1 n=f#6 v=86
396320 On ch=1 n=a5 v=68
396320 On ch=1 n=b5 v=69
396326 Par ch=1 c=64 v=0
396362 On ch=1 n=a5 v=0
396364 On ch=1 n=b5 v=0
396368 On ch=1 n=d#5 v=0
396370 On ch=1 n=d#6 v=0
396374 On ch=1 n=f#6 v=0
396376 On ch=1 n=b6 v=0
396618 On ch=1 n=f#6 v=97
396620 On ch=1 n=a5 v=81
396622 On ch=1 n=c#5 v=105
396622 On ch=1 n=c#6 v=82
396624 On ch=1 n=e4 v=86
396664 On ch=1 n=c#6 v=0
396668 On ch=1 n=a5 v=0
396674 On ch=1 n=e4 v=0
396688 On ch=1 n=c#5 v=0
396692 On ch=1 n=f#6 v=0
396870 On ch=1 n=g4 v=68
396880 On ch=1 n=a6 v=89
396912 On ch=1 n=g4 v=0
396942 On ch=1 n=a6 v=0
397182 On ch=1 n=e5 v=82
397184 On ch=1 n=b4 v=76
397186 On ch=1 n=c6 v=76
397186 On ch=1 n=c5 v=78
397186 On ch=1 n=a5 v=70
397186 On ch=1 n=e6 v=80
397224 On ch=1 n=b4 v=0
397226 On ch=1 n=c5 v=0
397228 On ch=1 n=e5 v=0
397234 On ch=1 n=a5 v=0
397238 On ch=1 n=c6 v=0
397258 On ch=1 n=e6 v=0
397720 On ch=1 n=g#3 v=57
397722 Par ch=1 c=67 v=127
397788 On ch=1 n=f#5 v=79
397860 On ch=1 n=a#5 v=69
397864 Par ch=1 c=64 v=63
397868 Par ch=1 c=64 v=127
397932 On ch=1 n=c#6 v=70
397982 On ch=1 n=g#3 v=0
397986 On ch=1 n=f#6 v=69
398042 On ch=1 n=c#6 v=0
398042 On ch=1 n=a#5 v=0
398052 On ch=1 n=f#6 v=0
398078 On ch=1 n=f#5 v=0
398316 On ch=1 n=d#4 v=69
398352 On ch=1 n=f5 v=76
398424 On ch=1 n=f5 v=0
398426 On ch=1 n=f#5 v=103
398476 On ch=1 n=f#4 v=80
398498 On ch=1 n=f5 v=90
398510 On ch=1 n=f#5 v=0
398518 On ch=1 n=d#4 v=0
398574 On ch=1 n=f5 v=0
398608 On ch=1 n=d5 v=117
398618 On ch=1 n=a#4 v=90
398624 On ch=1 n=f#4 v=0
398660 On ch=1 n=a#4 v=0
398890 On ch=1 n=a#5 v=99
398906 On ch=1 n=f#5 v=96
398942 On ch=1 n=a#5 v=0
398966 On ch=1 n=f#5 v=0
399006 On ch=1 n=d5 v=0
399252 On ch=1 n=a#4 v=87
399264 On ch=1 n=d#5 v=120
399344 On ch=1 n=a#4 v=0
399494 On ch=1 n=d#5 v=0
399520 On ch=1 n=d#4 v=103
399580 On ch=1 n=d#4 v=0
399862 On ch=1 n=f#3 v=93
399924 On ch=1 n=c#4 v=85
399972 Par ch=1 c=64 v=63
399984 Par ch=1 c=64 v=0
399988 On ch=1 n=d#6 v=103
399994 On ch=1 n=e5 v=92
400000 On ch=1 n=a#5 v=86
400070 Par ch=1 c=64 v=63
400078 Par ch=1 c=64 v=127
400160 On ch=1 n=f#3 v=0
400190 On ch=1 n=c#4 v=0
400252 On ch=1 n=a#5 v=0
400252 On ch=1 n=d#6 v=0
400254 Par ch=1 c=67 v=0
400316 On ch=1 n=e5 v=0
400384 On ch=1 n=a#4 v=79
400484 On ch=1 n=g5 v=88
400540 On ch=1 n=c#5 v=77
400544 On ch=1 n=g5 v=0
400598 On ch=1 n=g5 v=90
400654 On ch=1 n=g5 v=0
400678 On ch=1 n=g5 v=98
400718 On ch=1 n=e5 v=91
400740 On ch=1 n=c#5 v=0
400746 On ch=1 n=g5 v=0
400754 On ch=1 n=a#4 v=0
400772 On ch=1 n=e5 v=0
400772 On ch=1 n=g5 v=108
400814 On ch=1 n=g5 v=0
400842 On ch=1 n=g5 v=113
400906 On ch=1 n=g5 v=0
400934 On ch=1 n=g5 v=112
400994 On ch=1 n=g5 v=0
401018 On ch=1 n=g5 v=117
401020 On ch=1 n=a#5 v=97
401024 On ch=1 n=e6 v=101
401050 On ch=1 n=a#5 v=0
401056 On ch=1 n=e6 v=0
401070 On ch=1 n=g5 v=0
401302 On ch=1 n=e5 v=112
401460 On ch=1 n=c#5 v=88
401460 On ch=1 n=a#5 v=118
401518 On ch=1 n=g5 v=109
401544 On ch=1 n=a#5 v=0
401562 On ch=1 n=a#4 v=106
401568 On ch=1 n=e5 v=0
401590 On ch=1 n=c#5 v=0
401610 On ch=1 n=a#4 v=0
401620 On ch=1 n=g5 v=0
401806 Par ch=1 c=64 v=63
401808 Par ch=1 c=64 v=0
401868 On ch=1 n=e3 v=107
401870 On ch=1 n=b3 v=111
401888 On ch=1 n=g#5 v=106
401888 On ch=1 n=f#6 v=115
401892 On ch=1 n=f#5 v=121
401896 On ch=1 n=d6 v=99
401926 Par ch=1 c=64 v=63
401928 Par ch=1 c=64 v=127
401936 On ch=1 n=e3 v=0
401938 On ch=1 n=b3 v=0
402008 On ch=1 n=d6 v=0
402022 On ch=1 n=f#6 v=0
402034 On ch=1 n=f#5 v=0
402054 On ch=1 n=g#5 v=0
402210 On ch=1 n=g#4 v=89
402224 On ch=1 n=c#6 v=77
402270 On ch=1 n=d6 v=98
402286 On ch=1 n=c#6 v=0
402298 On ch=1 n=b4 v=87
402342 On ch=1 n=c#6 v=92
402384 On ch=1 n=d6 v=0
402414 On ch=1 n=g#4 v=0
402414 On ch=1 n=d5 v=114
402418 On ch=1 n=a#5 v=121
402428 On ch=1 n=b4 v=0
402462 On ch=1 n=c#6 v=0
402480 On ch=1 n=d5 v=0
402670 On ch=1 n=g#5 v=114
402674 On ch=1 n=f#5 v=112
402722 On ch=1 n=g#5 v=0
402730 On ch=1 n=f#5 v=0
402908 On ch=1 n=a#5 v=0
402928 On ch=1 n=b5 v=121
402938 On ch=1 n=d5 v=101
403166 On ch=1 n=b5 v=0
403178 On ch=1 n=g#4 v=114
403194 On ch=1 n=d5 v=0
403234 On ch=1 n=g#4 v=0
403390 Par ch=1 c=64 v=63
403398 Par ch=1 c=64 v=0
403512 On ch=1 n=f#6 v=121
403514 On ch=1 n=a3 v=122
403516 On ch=1 n=b6 v=116
403516 On ch=1 n=d3 v=120
403518 On ch=1 n=b5 v=120
403520 On ch=1 n=c6 v=118
403554 Par ch=1 c=64 v=127
403576 On ch=1 n=d3 v=0
403588 On ch=1 n=a3 v=0
403662 On ch=1 n=b6 v=0
403666 On ch=1 n=c6 v=0
403678 On ch=1 n=b5 v=0
403680 On ch=1 n=f#6 v=0
403940 On ch=1 n=f#4 v=97
403958 On ch=1 n=d#6 v=118
404002 On ch=1 n=d#6 v=0
404044 On ch=1 n=d#6 v=106
404050 On ch=1 n=c5 v=83
404100 On ch=1 n=d#6 v=0
404124 On ch=1 n=d#6 v=113
404176 On ch=1 n=d#6 v=0
404190 On ch=1 n=c5 v=0
404194 On ch=1 n=f#4 v=0
404194 On ch=1 n=d#5 v=112
404208 On ch=1 n=d#6 v=115
404248 On ch=1 n=d#5 v=0
404250 On ch=1 n=d#6 v=0
404282 On ch=1 n=d#6 v=116
404344 On ch=1 n=d#6 v=0
404374 On ch=1 n=d#6 v=114
404428 On ch=1 n=d#6 v=0
404464 On ch=1 n=d#6 v=114
404474 On ch=1 n=a5 v=117
404476 On ch=1 n=d#5 v=126
404534 On ch=1 n=a5 v=0
404534 On ch=1 n=d#6 v=0
404556 On ch=1 n=d#5 v=0
404912 On ch=1 n=a5 v=120
404912 On ch=1 n=d#5 v=124
404926 On ch=1 n=f#6 v=110
404932 On ch=1 n=f#5 v=84
404952 On ch=1 n=d#6 v=107
404958 On ch=1 n=f#5 v=0
404960 On ch=1 n=a5 v=0
404982 On ch=1 n=d#5 v=0
405000 On ch=1 n=c6 v=97
405010 On ch=1 n=f#6 v=0
405036 On ch=1 n=d#6 v=0
405070 On ch=1 n=c6 v=0
405074 On ch=1 n=a5 v=65
405154 On ch=1 n=f#5 v=108
405164 On ch=1 n=a5 v=0
405218 On ch=1 n=f#5 v=0
405224 On ch=1 n=d#5 v=110
405276 On ch=1 n=d#5 v=0
405286 On ch=1 n=c5 v=68
405324 On ch=1 n=c5 v=0
405332 On ch=1 n=a4 v=94
405390 On ch=1 n=a4 v=0
405394 On ch=1 n=a4 v=66
405424 On ch=1 n=f#4 v=64
405438 On ch=1 n=a4 v=0
405470 On ch=1 n=d#4 v=100
405486 On ch=1 n=f#4 v=0
405516 On ch=1 n=c4 v=90
405526 On ch=1 n=d#4 v=0
405592 Par ch=1 c=64 v=63
405592 Par ch=1 c=67 v=127
405600 On ch=1 n=a3 v=90
405602 On ch=1 n=c4 v=0
405606 Par ch=1 c=64 v=0
405614 On ch=1 n=a3 v=0
405658 On ch=1 n=g3 v=77
405662 On ch=1 n=c3 v=69
405730 On ch=1 n=g3 v=0
405736 On ch=1 n=c3 v=0
405958 On ch=1 n=b3 v=76
405958 On ch=1 n=d#4 v=88
406026 On ch=1 n=g4 v=71
406030 On ch=1 n=b3 v=0
406032 On ch=1 n=b4 v=98
406080 On ch=1 n=g4 v=0
406098 On ch=1 n=b3 v=68
406120 On ch=1 n=b4 v=0
406132 On ch=1 n=d#4 v=0
406150 On ch=1 n=g#3 v=101
406158 On ch=1 n=b3 v=0
406204 On ch=1 n=g#3 v=0
406412 On ch=1 n=b4 v=90
406412 On ch=1 n=b3 v=81
406414 On ch=1 n=g4 v=75
406418 On ch=1 n=d#4 v=79
406444 On ch=1 n=d#4 v=0
406446 On ch=1 n=b3 v=0
406448 On ch=1 n=g4 v=0
406472 On ch=1 n=b4 v=0
406642 On ch=1 n=c3 v=99
406644 On ch=1 n=g3 v=94
406674 On ch=1 n=g3 v=0
406692 On ch=1 n=c3 v=0
406872 On ch=1 n=g4 v=88
406872 On ch=1 n=b4 v=94
406878 On ch=1 n=d#4 v=88
406880 On ch=1 n=b3 v=73
406908 On ch=1 n=d#4 v=0
406914 On ch=1 n=b3 v=0
406922 On ch=1 n=g4 v=0
406948 On ch=1 n=b4 v=0
407098 On ch=1 n=g2 v=83
407116 On ch=1 n=g3 v=102
407152 On ch=1 n=g2 v=0
407174 On ch=1 n=g3 v=0
407338 On ch=1 n=c#4 v=103
407340 On ch=1 n=f4 v=88
407342 On ch=1 n=a4 v=84
407344 On ch=1 n=a#3 v=91
407372 On ch=1 n=f4 v=0
407378 On ch=1 n=a4 v=0
407406 On ch=1 n=c#4 v=0
407426 On ch=1 n=a#3 v=0
407576 On ch=1 n=b3 v=76
407580 On ch=1 n=f5 v=98
407582 On ch=1 n=g#4 v=101
407582 On ch=1 n=f4 v=81
407588 On ch=1 n=d4 v=65
407614 On ch=1 n=f4 v=0
407618 On ch=1 n=b3 v=0
407620 On ch=1 n=d4 v=0
407628 On ch=1 n=g#4 v=0
407632 On ch=1 n=f5 v=0
407808 On ch=1 n=g3 v=103
407814 On ch=1 n=c3 v=92
407818 Par ch=1 c=64 v=63
407822 Par ch=1 c=64 v=127
407856 On ch=1 n=g3 v=0
407862 On ch=1 n=c3 v=0
408046 On ch=1 n=b3 v=93
408046 On ch=1 n=d#4 v=104
408096 On ch=1 n=b3 v=0
408120 Par ch=1 c=64 v=63
408120 On ch=1 n=b4 v=94
408122 On ch=1 n=g4 v=68
408126 Par ch=1 c=64 v=0
408160 On ch=1 n=b3 v=66
408182 On ch=1 n=g4 v=0
408198 On ch=1 n=b4 v=0
408200 On ch=1 n=d#4 v=0
408220 On ch=1 n=b3 v=0
408254 On ch=1 n=g#3 v=107
408306 On ch=1 n=g#3 v=0
408488 On ch=1 n=g4 v=100
408490 On ch=1 n=d#4 v=109
408492 On ch=1 n=b3 v=96
408496 On ch=1 n=b4 v=84
408520 On ch=1 n=b3 v=0
408524 On ch=1 n=d#4 v=0
408532 On ch=1 n=b4 v=0
408534 On ch=1 n=g4 v=0
408708 On ch=1 n=c3 v=104
408714 On ch=1 n=g3 v=94
408746 On ch=1 n=g3 v=0
408758 On ch=1 n=c3 v=0
408932 On ch=1 n=b4 v=99
408934 On ch=1 n=b3 v=100
408934 On ch=1 n=g4 v=93
408936 On ch=1 n=d#4 v=97
408958 On ch=1 n=b3 v=0
408962 On ch=1 n=d#4 v=0
408972 On ch=1 n=g4 v=0
409002 On ch=1 n=b4 v=0
409126 On ch=1 n=g2 v=86
409136 Par ch=1 c=64 v=63
409142 Par ch=1 c=64 v=127
409154 On ch=1 n=g3 v=100
409190 On ch=1 n=g2 v=0
409212 On ch=1 n=g3 v=0
409366 Par ch=1 c=67 v=0
409374 On ch=1 n=c#4 v=97
409380 On ch=1 n=a#3 v=90
409384 On ch=1 n=a4 v=84
409384 On ch=1 n=f4 v=88
409400 Par ch=1 c=64 v=63
409404 Par ch=1 c=64 v=0
409416 On ch=1 n=f4 v=0
409418 On ch=1 n=a4 v=0
409436 On ch=1 n=c#4 v=0
409446 On ch=1 n=a#3 v=0
409620 On ch=1 n=g#4 v=101
409622 On ch=1 n=b3 v=85
409622 On ch=1 n=f5 v=97
409624 On ch=1 n=f4 v=82
409632 On ch=1 n=d4 v=60
409654 On ch=1 n=f4 v=0
409660 On ch=1 n=b3 v=0
409666 On ch=1 n=d4 v=0
409670 On ch=1 n=g#4 v=0
409680 On ch=1 n=f5 v=0
409850 On ch=1 n=c3 v=111
409854 On ch=1 n=g3 v=96
409904 Par ch=1 c=64 v=127
409906 On ch=1 n=g3 v=0
409906 On ch=1 n=c3 v=0
410074 On ch=1 n=b4 v=99
410080 On ch=1 n=d#5 v=101
410124 On ch=1 n=b4 v=0
410144 On ch=1 n=b5 v=89
410180 On ch=1 n=b4 v=81
410226 On ch=1 n=b5 v=0
410230 On ch=1 n=d#5 v=0
410260 On ch=1 n=b4 v=0
410264 On ch=1 n=g#4 v=97
410266 Par ch=1 c=64 v=63
410272 Par ch=1 c=64 v=0
410276 On ch=1 n=g#5 v=106
410304 On ch=1 n=g#5 v=0
410336 On ch=1 n=g#4 v=0
410488 On ch=1 n=g5 v=104
410492 On ch=1 n=d#5 v=114
410494 On ch=1 n=b4 v=113
410496 On ch=1 n=b5 v=85
410534 On ch=1 n=b4 v=0
410536 On ch=1 n=d#5 v=0
410542 On ch=1 n=g5 v=0
410556 On ch=1 n=b5 v=0
410720 On ch=1 n=g4 v=122
410776 On ch=1 n=g4 v=0
410954 On ch=1 n=g5 v=109
410956 On ch=1 n=b4 v=118
410956 On ch=1 n=b5 v=103
410956 On ch=1 n=d#5 v=118
410976 On ch=1 n=b4 v=0
410986 On ch=1 n=g5 v=0
410988 On ch=1 n=d#5 v=0
411002 On ch=1 n=b5 v=0
411158 On ch=1 n=g2 v=81
411168 On ch=1 n=g3 v=113
411202 Par ch=1 c=64 v=127
411210 On ch=1 n=g2 v=0
411224 On ch=1 n=g3 v=0
411390 On ch=1 n=f#4 v=113
411390 On ch=1 n=a5 v=98
411392 On ch=1 n=a4 v=104
411392 On ch=1 n=f5 v=102
411394 On ch=1 n=c#4 v=100
411418 On ch=1 n=a4 v=0
411420 On ch=1 n=f5 v=0
411448 On ch=1 n=a5 v=0
411448 On ch=1 n=f#4 v=0
411474 On ch=1 n=c#4 v=0
411556 Par ch=1 c=64 v=63
411562 Par ch=1 c=64 v=0
411600 On ch=1 n=f4 v=99
411604 On ch=1 n=b4 v=88
411608 On ch=1 n=f5 v=109
411608 On ch=1 n=g#5 v=119
411618 On ch=1 n=f6 v=108
411630 On ch=1 n=f4 v=0
411632 On ch=1 n=b4 v=0
411646 On ch=1 n=f5 v=0
411650 On ch=1 n=g#5 v=0
411666 On ch=1 n=f6 v=0
411830 On ch=1 n=g2 v=97
411836 On ch=1 n=g3 v=117
411872 Par ch=1 c=64 v=127
411880 On ch=1 n=g2 v=0
411892 On ch=1 n=g3 v=0
412052 On ch=1 n=a5 v=108
412052 On ch=1 n=f6 v=107
412056 On ch=1 n=c#6 v=103
412056 On ch=1 n=a6 v=98
412060 On ch=1 n=c#5 v=110
412062 On ch=1 n=a#4 v=99
412076 On ch=1 n=a5 v=0
412086 On ch=1 n=c#6 v=0
412102 On ch=1 n=f6 v=0
412108 On ch=1 n=c#5 v=0
412112 On ch=1 n=a6 v=0
412114 On ch=1 n=a#4 v=0
412176 On ch=1 n=a#4 v=49
412214 On ch=1 n=a#4 v=0
412262 On ch=1 n=b4 v=118
412264 On ch=1 n=f5 v=116
412276 On ch=1 n=f7 v=108
412278 On ch=1 n=f6 v=121
412296 On ch=1 n=g#6 v=64
412300 On ch=1 n=f6 v=0
412314 On ch=1 n=f5 v=0
412318 On ch=1 n=f7 v=0
412322 On ch=1 n=g#6 v=0
412330 On ch=1 n=b4 v=0
412390 Par ch=1 c=64 v=63
412392 Par ch=1 c=64 v=0
412468 On ch=1 n=g3 v=127
412470 Par ch=1 c=64 v=63
412476 Par ch=1 c=64 v=127
412544 On ch=1 n=g3 v=0
412680 On ch=1 n=a6 v=111
412682 On ch=1 n=f6 v=114
412682 On ch=1 n=a5 v=116
412686 On ch=1 n=c#6 v=112
412686 On ch=1 n=a#4 v=109
412690 On ch=1 n=c#5 v=115
412706 On ch=1 n=a5 v=0
412712 On ch=1 n=c#6 v=0
412716 On ch=1 n=f6 v=0
412742 On ch=1 n=c#5 v=0
412742 On ch=1 n=a6 v=0
412754 On ch=1 n=a#4 v=0
412894 On ch=1 n=b4 v=122
412898 On ch=1 n=f5 v=118
412898 On ch=1 n=f7 v=122
412904 On ch=1 n=g#6 v=122
412912 On ch=1 n=f6 v=100
412924 On ch=1 n=g#6 v=0
412934 On ch=1 n=f6 v=0
412944 On ch=1 n=f7 v=0
412948 On ch=1 n=f5 v=0
412964 On ch=1 n=b4 v=0
413030 Par ch=1 c=64 v=63
413042 Par ch=1 c=64 v=0
413098 On ch=1 n=g3 v=127
413132 Par ch=1 c=64 v=63
413136 Par ch=1 c=64 v=127
413172 On ch=1 n=g3 v=0
413310 On ch=1 n=a6 v=111
413310 On ch=1 n=a5 v=122
413310 On ch=1 n=f6 v=113
413314 On ch=1 n=c#6 v=116
413322 On ch=1 n=a#4 v=114
413324 On ch=1 n=c#5 v=118
413336 On ch=1 n=a5 v=0
413344 On ch=1 n=c#6 v=0
413348 On ch=1 n=f6 v=0
413368 On ch=1 n=a6 v=0
413372 On ch=1 n=c#5 v=0
413382 On ch=1 n=a#4 v=0
413526 On ch=1 n=b4 v=122
413528 On ch=1 n=f5 v=121
413532 On ch=1 n=f7 v=121
413536 On ch=1 n=f6 v=118
413538 On ch=1 n=g#6 v=120
413560 On ch=1 n=g#6 v=0
413570 On ch=1 n=f6 v=0
413578 On ch=1 n=f7 v=0
413580 On ch=1 n=f5 v=0
413608 On ch=1 n=b4 v=0
413658 Par ch=1 c=64 v=63
413660 Par ch=1 c=64 v=0
413732 On ch=1 n=g3 v=127
413756 Par ch=1 c=64 v=63
413760 Par ch=1 c=64 v=127
413812 On ch=1 n=g3 v=0
413938 On ch=1 n=a6 v=116
413940 On ch=1 n=f6 v=117
413940 On ch=1 n=a5 v=127
413942 On ch=1 n=a#4 v=124
413944 On ch=1 n=c#6 v=121
413944 On ch=1 n=c#5 v=126
413984 On ch=1 n=a5 v=0
413986 On ch=1 n=c#6 v=0
413992 On ch=1 n=f6 v=0
414000 On ch=1 n=a6 v=0
414022 On ch=1 n=c#5 v=0
414024 On ch=1 n=a#4 v=0
414176 On ch=1 n=b4 v=127
414178 On ch=1 n=f5 v=127
414178 On ch=1 n=f7 v=126
414180 On ch=1 n=f6 v=122
414180 On ch=1 n=g#6 v=124
414226 On ch=1 n=g#6 v=0
414226 On ch=1 n=f6 v=0
414232 On ch=1 n=f7 v=0
414254 On ch=1 n=f5 v=0
414286 On ch=1 n=b4 v=0
414346 Par ch=1 c=64 v=63
414356 Par ch=1 c=64 v=0
414580 On ch=1 n=g3 v=111
414580 On ch=1 n=g2 v=109
414586 On ch=1 n=c#3 v=107
414586 On ch=1 n=b3 v=113
414610 Par ch=1 c=64 v=127
414674 On ch=1 n=g3 v=0
414674 On ch=1 n=c#4 v=112
414702 On ch=1 n=c#3 v=0
414712 On ch=1 n=b3 v=0
414728 On ch=1 n=g3 v=80
414738 On ch=1 n=g2 v=0
414740 On ch=1 n=f4 v=89
414750 On ch=1 n=c#4 v=0
414786 On ch=1 n=f4 v=0
414840 On ch=1 n=g3 v=0
414844 On ch=1 n=g2 v=109
414850 On ch=1 n=c#3 v=112
414856 On ch=1 n=b4 v=113
414930 On ch=1 n=c#3 v=0
414934 On ch=1 n=g2 v=0
414938 On ch=1 n=c#5 v=114
414940 On ch=1 n=g3 v=102
414950 On ch=1 n=b4 v=0
415004 On ch=1 n=c#5 v=0
415010 On ch=1 n=f5 v=97
415042 On ch=1 n=f5 v=0
415072 On ch=1 n=g2 v=107
415092 On ch=1 n=c#3 v=109
415112 On ch=1 n=g3 v=0
415112 On ch=1 n=b5 v=116
415150 Par ch=1 c=64 v=127
415192 On ch=1 n=c#6 v=121
415234 On ch=1 n=b5 v=0
415270 On ch=1 n=g2 v=0
415272 On ch=1 n=g3 v=108
415288 On ch=1 n=f6 v=112
415292 On ch=1 n=c#3 v=0
415310 On ch=1 n=c#6 v=0
415340 On ch=1 n=g3 v=0
415358 On ch=1 n=f6 v=0
415398 Par ch=1 c=64 v=63
415402 Par ch=1 c=64 v=0
415410 On ch=1 n=d7 v=114
415410 On ch=1 n=a6 v=108
415412 On ch=1 n=d6 v=120
415412 On ch=1 n=f#6 v=115
415416 On ch=1 n=a3 v=126
415418 On ch=1 n=d3 v=127
415526 Par ch=1 c=64 v=127
415590 On ch=1 n=d3 v=0
415604 On ch=1 n=a3 v=0
415752 On ch=1 n=d6 v=0
415770 On ch=1 n=f#6 v=0
415778 On ch=1 n=d7 v=0
415782 On ch=1 n=a5 v=118
415786 On ch=1 n=f#5 v=120
415788 On ch=1 n=a6 v=0
415790 On ch=1 n=d5 v=104
416012 On ch=1 n=a6 v=107
416014 On ch=1 n=d7 v=109
416016 On ch=1 n=d6 v=112
416016 On ch=1 n=f#6 v=107
416036 On ch=1 n=f#5 v=0
416064 On ch=1 n=a5 v=0
416072 On ch=1 n=d5 v=0
416112 On ch=1 n=d6 v=0
416120 On ch=1 n=a6 v=0
416122 On ch=1 n=f#6 v=0
416128 On ch=1 n=d7 v=0
416228 On ch=1 n=a5 v=121
416230 On ch=1 n=d5 v=118
416234 On ch=1 n=f#5 v=115
416326 On ch=1 n=f#5 v=0
416330 On ch=1 n=a5 v=0
416332 On ch=1 n=d5 v=0
416448 On ch=1 n=a6 v=107
416448 On ch=1 n=d6 v=111
416450 On ch=1 n=d7 v=107
416452 On ch=1 n=f#6 v=103
416486 On ch=1 n=d6 v=0
416490 On ch=1 n=f#6 v=0
416494 On ch=1 n=a6 v=0
416494 Par ch=1 c=64 v=63
416498 Par ch=1 c=64 v=0
416502 On ch=1 n=d7 v=0
416686 On ch=1 n=f#6 v=123
416690 On ch=1 n=f#7 v=114
416690 On ch=1 n=a#6 v=112
416692 On ch=1 n=a#5 v=118
416698 On ch=1 n=f#5 v=114
416710 On ch=1 n=f#7 v=0
416716 On ch=1 n=a#6 v=0
416716 On ch=1 n=f#6 v=0
416742 On ch=1 n=a#5 v=0
416744 On ch=1 n=f#5 v=0
416926 On ch=1 n=a6 v=114
416926 On ch=1 n=f#6 v=116
416930 On ch=1 n=d7 v=109
416934 On ch=1 n=d6 v=113
416940 Par ch=1 c=64 v=127
416972 On ch=1 n=d6 v=0
416978 On ch=1 n=a6 v=0
416980 On ch=1 n=f#6 v=0
416984 On ch=1 n=d7 v=0
417150 On ch=1 n=d4 v=102
417190 On ch=1 n=a4 v=98
417236 On ch=1 n=d4 v=0
417242 On ch=1 n=d5 v=87
417264 On ch=1 n=a4 v=0
417290 On ch=1 n=d5 v=0
417354 On ch=1 n=f#6 v=116
417354 On ch=1 n=a6 v=112
417356 On ch=1 n=d6 v=117
417358 On ch=1 n=d7 v=104
417364 On ch=1 n=a5 v=117
417368 On ch=1 n=f#5 v=119
417382 On ch=1 n=d7 v=0
417386 On ch=1 n=a6 v=0
417390 On ch=1 n=d6 v=0
417400 On ch=1 n=f#6 v=0
417402 On ch=1 n=f#5 v=0
417408 On ch=1 n=a5 v=0
417544 On ch=1 n=a4 v=71
417550 On ch=1 n=a6 v=116
417554 On ch=1 n=g#6 v=112
417554 On ch=1 n=f5 v=102
417564 On ch=1 n=g#5 v=113
417622 On ch=1 n=a6 v=0
417636 On ch=1 n=a5 v=96
417640 On ch=1 n=g#5 v=0
417642 On ch=1 n=f5 v=0
417642 On ch=1 n=a4 v=0
417650 On ch=1 n=b5 v=89
417654 On ch=1 n=g#6 v=0
417690 On ch=1 n=b5 v=0
417698 On ch=1 n=a5 v=0
417738 Par ch=1 c=64 v=63
417738 Par ch=1 c=64 v=0
417746 On ch=1 n=c7 v=118
417750 On ch=1 n=c5 v=118
417750 On ch=1 n=g5 v=113
417760 On ch=1 n=e5 v=77
417764 On ch=1 n=g6 v=84
417794 On ch=1 n=g6 v=0
417798 On ch=1 n=e5 v=0
417800 On ch=1 n=g5 v=0
417802 On ch=1 n=c5 v=0
417820 On ch=1 n=c7 v=0
417830 On ch=1 n=c6 v=98
417884 On ch=1 n=c6 v=0
417950 On ch=1 n=d#5 v=124
417952 On ch=1 n=g4 v=111
417960 On ch=1 n=d#6 v=116
417960 On ch=1 n=g6 v=106
417972 On ch=1 n=c#6 v=105
417996 On ch=1 n=d#5 v=0
418002 On ch=1 n=g4 v=0
418042 On ch=1 n=g6 v=0
418046 On ch=1 n=g5 v=84
418054 On ch=1 n=c#6 v=0
418054 On ch=1 n=d#6 v=0
418092 On ch=1 n=g5 v=0
418166 On ch=1 n=a5 v=118
418170 On ch=1 n=f#6 v=125
418172 On ch=1 n=f#5 v=113
418172 On ch=1 n=d5 v=108
418174 On ch=1 n=d6 v=107
418176 On ch=1 n=d7 v=121
418178 Par ch=1 c=64 v=127
418198 On ch=1 n=d7 v=0
418200 On ch=1 n=d6 v=0
418214 On ch=1 n=d5 v=0
418216 On ch=1 n=f#6 v=0
418216 On ch=1 n=a5 v=0
418220 On ch=1 n=f#5 v=0
418406 On ch=1 n=d4 v=96
418414 On ch=1 n=d6 v=109
418460 On ch=1 n=a4 v=83
418480 On ch=1 n=d4 v=0
418494 On ch=1 n=f#6 v=116
418512 On ch=1 n=d5 v=92
418520 On ch=1 n=d6 v=0
418524 On ch=1 n=a4 v=0
418548 On ch=1 n=a6 v=90
418556 On ch=1 n=d5 v=0
418580 On ch=1 n=f#6 v=0
418616 On ch=1 n=d7 v=111
418622 On ch=1 n=f#5 v=124
418626 On ch=1 n=a5 v=107
418646 On ch=1 n=a6 v=0
418662 On ch=1 n=d7 v=0
418668 On ch=1 n=f#5 v=0
418676 On ch=1 n=a5 v=0
418828 On ch=1 n=a4 v=6
418856 On ch=1 n=a6 v=118
418858 On ch=1 n=f5 v=114
418860 On ch=1 n=g#6 v=113
418862 On ch=1 n=g#5 v=119
418882 Par ch=1 c=64 v=63
418884 Par ch=1 c=64 v=0
418910 On ch=1 n=f5 v=0
418914 On ch=1 n=g#5 v=0
418924 On ch=1 n=a4 v=0
418940 On ch=1 n=a6 v=0
418960 On ch=1 n=a5 v=72
418962 On ch=1 n=g#6 v=0
419012 On ch=1 n=a5 v=0
419064 On ch=1 n=c5 v=112
419064 On ch=1 n=g5 v=98
419068 On ch=1 n=g6 v=102
419068 On ch=1 n=c7 v=92
419070 On ch=1 n=e5 v=91
419098 On ch=1 n=e5 v=0
419114 On ch=1 n=g5 v=0
419120 On ch=1 n=g6 v=0
419122 On ch=1 n=c5 v=0
419140 On ch=1 n=c7 v=0
419160 On ch=1 n=c6 v=81
419204 On ch=1 n=c6 v=0
419258 On ch=1 n=d#5 v=126
419262 On ch=1 n=g4 v=103
419270 On ch=1 n=d#6 v=116
419272 On ch=1 n=g6 v=109
419280 On ch=1 n=c#6 v=107
419302 On ch=1 n=d#5 v=0
419306 On ch=1 n=g4 v=0
419356 On ch=1 n=g6 v=0
419364 On ch=1 n=a5 v=86
419364 On ch=1 n=g5 v=78
419368 On ch=1 n=d#6 v=0
419392 On ch=1 n=c#6 v=0
419396 On ch=1 n=g5 v=0
419406 On ch=1 n=a5 v=0
419470 On ch=1 n=a5 v=114
419476 On ch=1 n=d5 v=107
419478 On ch=1 n=f#5 v=109
419478 On ch=1 n=f#6 v=124
419480 Par ch=1 c=64 v=63
419480 On ch=1 n=d7 v=116
419484 Par ch=1 c=64 v=127
419522 On ch=1 n=a5 v=0
419526 On ch=1 n=d5 v=0
419530 On ch=1 n=f#5 v=0
419538 On ch=1 n=d7 v=0
419564 On ch=1 n=f#6 v=0
419564 On ch=1 n=d6 v=75
419598 On ch=1 n=d6 v=0
419632 Par ch=1 c=64 v=63
419652 On ch=1 n=a4 v=85
419670 On ch=1 n=a6 v=112
419672 On ch=1 n=g#5 v=119
419674 On ch=1 n=g#6 v=110
419748 On ch=1 n=a6 v=0
419748 On ch=1 n=a4 v=0
419758 On ch=1 n=g#5 v=0
419758 Par ch=1 c=64 v=127
419760 On ch=1 n=a5 v=74
419766 On ch=1 n=b5 v=88
419772 On ch=1 n=g#6 v=0
419800 On ch=1 n=b5 v=0
419812 On ch=1 n=a5 v=0
419848 Par ch=1 c=64 v=63
419860 Par ch=1 c=64 v=0
419868 On ch=1 n=g5 v=111
419872 On ch=1 n=c5 v=111
419874 On ch=1 n=c7 v=106
419882 On ch=1 n=g6 v=83
419884 On ch=1 n=a6 v=84
419914 On ch=1 n=a6 v=0
419926 On ch=1 n=g5 v=0
419928 On ch=1 n=g6 v=0
419934 On ch=1 n=c5 v=0
419938 On ch=1 n=c7 v=0
419954 On ch=1 n=c6 v=89
420006 On ch=1 n=c6 v=0
420084 On ch=1 n=d#5 v=126
420084 On ch=1 n=g6 v=113
420086 On ch=1 n=g4 v=108
420086 On ch=1 n=d#6 v=113
420094 On ch=1 n=c#6 v=108
420130 On ch=1 n=g4 v=0
420132 On ch=1 n=d#5 v=0
420172 On ch=1 n=g6 v=0
420174 On ch=1 n=a5 v=75
420174 On ch=1 n=g5 v=68
420184 On ch=1 n=d#6 v=0
420204 On ch=1 n=c#6 v=0
420210 On ch=1 n=g5 v=0
420212 On ch=1 n=a5 v=0
420284 On ch=1 n=a5 v=118
420288 On ch=1 n=d5 v=111
420294 On ch=1 n=f#5 v=112
420294 On ch=1 n=d7 v=118
420296 On ch=1 n=f#6 v=121
420310 Par ch=1 c=64 v=127
420336 On ch=1 n=a5 v=0
420338 On ch=1 n=d5 v=0
420346 On ch=1 n=f#5 v=0
420354 On ch=1 n=d7 v=0
420376 On ch=1 n=d6 v=72
420384 On ch=1 n=f#6 v=0
420420 On ch=1 n=d6 v=0
420474 On ch=1 n=a4 v=87
420490 On ch=1 n=a6 v=109
420494 On ch=1 n=g#5 v=120
420494 On ch=1 n=g#6 v=110
420512 Par ch=1 c=64 v=63
420518 Par ch=1 c=64 v=0
420564 On ch=1 n=g#5 v=0
420568 On ch=1 n=a4 v=0
420570 On ch=1 n=a6 v=0
420594 On ch=1 n=g#6 v=0
420596 On ch=1 n=a5 v=68
420614 On ch=1 n=b5 v=50
420642 On ch=1 n=a5 v=0
420654 On ch=1 n=b5 v=0
420698 On ch=1 n=g5 v=114
420700 On ch=1 n=c5 v=117
420704 On ch=1 n=a6 v=108
420706 On ch=1 n=c7 v=109
420754 On ch=1 n=g5 v=0
420764 On ch=1 n=c5 v=0
420770 On ch=1 n=a6 v=0
420774 On ch=1 n=c7 v=0
420794 On ch=1 n=c6 v=70
420830 On ch=1 n=c6 v=0
420906 On ch=1 n=d#5 v=127
420908 On ch=1 n=g4 v=109
420908 On ch=1 n=d#6 v=114
420908 On ch=1 n=g6 v=112
420914 On ch=1 n=c#6 v=106
420952 On ch=1 n=d#5 v=0
420956 On ch=1 n=g4 v=0
420996 On ch=1 n=d#6 v=0
420998 On ch=1 n=g6 v=0
421004 On ch=1 n=a5 v=71
421008 On ch=1 n=g5 v=59
421026 On ch=1 n=c#6 v=0
421040 On ch=1 n=a5 v=0
421050 On ch=1 n=g5 v=0
421108 On ch=1 n=a5 v=120
421110 On ch=1 n=d5 v=114
421116 On ch=1 n=f#5 v=114
421122 On ch=1 n=f#6 v=121
421122 On ch=1 n=d7 v=116
421126 Par ch=1 c=64 v=127
421160 On ch=1 n=a5 v=0
421168 On ch=1 n=d5 v=0
421170 On ch=1 n=f#5 v=0
421172 On ch=1 n=d7 v=0
421198 On ch=1 n=d6 v=81
421210 On ch=1 n=f#6 v=0
421252 On ch=1 n=d6 v=0
421300 On ch=1 n=a4 v=90
421306 On ch=1 n=f5 v=106
421312 On ch=1 n=g#5 v=114
421316 On ch=1 n=a6 v=109
421332 On ch=1 n=g#6 v=97
421336 On ch=1 n=f#6 v=88
421366 On ch=1 n=a4 v=0
421398 On ch=1 n=g#5 v=0
421404 On ch=1 n=f5 v=0
421406 On ch=1 n=a5 v=79
421414 On ch=1 n=g#6 v=0
421424 On ch=1 n=a6 v=0
421426 On ch=1 n=f#6 v=0
421440 On ch=1 n=b5 v=84
421450 On ch=1 n=b5 v=0
421468 On ch=1 n=a5 v=0
421498 Par ch=1 c=64 v=63
421500 Par ch=1 c=64 v=0
421520 On ch=1 n=g5 v=118
421524 On ch=1 n=c5 v=114
421526 On ch=1 n=c7 v=112
421526 On ch=1 n=e5 v=108
421534 On ch=1 n=a6 v=92
421540 On ch=1 n=g6 v=82
421570 On ch=1 n=e5 v=0
421572 On ch=1 n=g5 v=0
421580 On ch=1 n=g6 v=0
421582 On ch=1 n=a6 v=0
421588 On ch=1 n=c5 v=0
421596 On ch=1 n=c7 v=0
421614 On ch=1 n=c6 v=73
421656 On ch=1 n=c6 v=0
421732 On ch=1 n=g6 v=113
421734 On ch=1 n=d#6 v=116
421736 On ch=1 n=c#6 v=116
421740 On ch=1 n=d#5 v=127
421744 On ch=1 n=g4 v=107
421778 On ch=1 n=g4 v=0
421790 On ch=1 n=d#5 v=0
421824 On ch=1 n=g6 v=0
421824 On ch=1 n=g5 v=91
421834 On ch=1 n=d#6 v=0
421860 On ch=1 n=c#6 v=0
421876 On ch=1 n=g5 v=0
422006 On ch=1 n=a5 v=124
422008 On ch=1 n=d5 v=118
422010 On ch=1 n=f#5 v=120
422016 On ch=1 n=d6 v=103
422016 On ch=1 n=f#6 v=112
422018 On ch=1 n=d7 v=107
422022 Par ch=1 c=64 v=127
422040 On ch=1 n=f#6 v=0
422044 On ch=1 n=d6 v=0
422048 On ch=1 n=d7 v=0
422088 On ch=1 n=a5 v=0
422092 On ch=1 n=f#5 v=0
422110 On ch=1 n=d5 v=0
422560 On ch=1 n=f#4 v=127
422618 On ch=1 n=f#4 v=0
422668 On ch=1 n=f#4 v=119
422734 On ch=1 n=f#4 v=0
422764 On ch=1 n=f#4 v=121
422860 On ch=1 n=f#4 v=0
422890 On ch=1 n=f#3 v=127
422896 Par ch=1 c=64 v=63
422898 On ch=1 n=f#2 v=126
422900 Par ch=1 c=64 v=0
423144 Par ch=1 c=64 v=127
423202 On ch=1 n=f#2 v=0
423236 On ch=1 n=f#3 v=0
423310 On ch=1 n=f#6 v=119
423386 On ch=1 n=f#6 v=0
423398 On ch=1 n=c#7 v=114
423404 On ch=1 n=f#7 v=108
423464 On ch=1 n=f#6 v=101
423498 On ch=1 n=c#7 v=0
423500 On ch=1 n=f#7 v=0
423522 On ch=1 n=f#6 v=0
423550 On ch=1 n=g6 v=113
423560 On ch=1 n=c#6 v=110
423564 On ch=1 n=a#5 v=106
423840 On ch=1 n=f#6 v=118
423912 On ch=1 n=f#6 v=0
423916 On ch=1 n=a#5 v=0
423922 On ch=1 n=c#7 v=109
423924 On ch=1 n=f#7 v=108
423934 On ch=1 n=c#6 v=0
423942 On ch=1 n=g6 v=0
423976 On ch=1 n=f#6 v=104
424012 On ch=1 n=f#7 v=0
424014 On ch=1 n=c#7 v=0
424038 On ch=1 n=f#6 v=0
424050 On ch=1 n=g6 v=118
424054 On ch=1 n=c#6 v=120
424058 On ch=1 n=a#5 v=116
424318 On ch=1 n=f#6 v=116
424388 On ch=1 n=f#6 v=0
424398 On ch=1 n=a#5 v=0
424404 On ch=1 n=c#7 v=107
424404 On ch=1 n=f#7 v=107
424412 On ch=1 n=c#6 v=0
424440 On ch=1 n=g6 v=0
424460 On ch=1 n=f#6 v=114
424498 On ch=1 n=c#7 v=0
424506 On ch=1 n=f#7 v=0
424528 On ch=1 n=f#6 v=0
424544 On ch=1 n=g6 v=122
424548 On ch=1 n=c#6 v=118
424548 On ch=1 n=a#5 v=115
424768 On ch=1 n=a#5 v=0
424780 On ch=1 n=c#6 v=0
424794 On ch=1 n=f#6 v=124
424796 On ch=1 n=g6 v=0
424862 On ch=1 n=f#6 v=0
424872 On ch=1 n=c#7 v=99
424874 On ch=1 n=f#7 v=98
424946 On ch=1 n=f#6 v=115
424956 On ch=1 n=f#7 v=0
424972 On ch=1 n=c#7 v=0
425016 On ch=1 n=f#6 v=0
425024 On ch=1 n=g6 v=118
425024 On ch=1 n=c#6 v=123
425030 On ch=1 n=a#5 v=110
425052 On ch=1 n=c#7 v=118
425056 On ch=1 n=f#7 v=108
425102 On ch=1 n=g6 v=0
425114 On ch=1 n=c#6 v=0
425120 On ch=1 n=a#5 v=0
425142 On ch=1 n=c#7 v=0
425150 On ch=1 n=f#7 v=0
425170 On ch=1 n=f#6 v=92
425234 On ch=1 n=f#6 v=0
425252 On ch=1 n=g6 v=80
425262 On ch=1 n=c#6 v=71
425262 On ch=1 n=a#5 v=67
425270 On ch=1 n=f#7 v=88
425272 On ch=1 n=c#7 v=92
425330 On ch=1 n=c#6 v=0
425334 On ch=1 n=a#5 v=0
425336 On ch=1 n=g6 v=0
425338 On ch=1 n=f#6 v=99
425346 On ch=1 n=f#7 v=0
425358 On ch=1 n=c#7 v=0
425418 On ch=1 n=f#6 v=0
425452 On ch=1 n=f#7 v=103
425456 On ch=1 n=c#7 v=104
425460 On ch=1 n=g6 v=89
425472 On ch=1 n=a#5 v=68
425480 On ch=1 n=c#6 v=58
425518 On ch=1 n=a#5 v=0
425520 On ch=1 n=c#6 v=0
425526 On ch=1 n=f#6 v=104
425538 On ch=1 n=f#7 v=0
425542 On ch=1 n=g6 v=0
425552 On ch=1 n=c#7 v=0
425614 On ch=1 n=f#6 v=0
425646 On ch=1 n=f#7 v=108
425648 On ch=1 n=c#7 v=115
425650 On ch=1 n=g6 v=112
425656 On ch=1 n=a#5 v=110
425660 On ch=1 n=c#6 v=101
425720 On ch=1 n=f#6 v=110
425734 On ch=1 n=g6 v=0
425736 On ch=1 n=c#6 v=0
425740 On ch=1 n=a#5 v=0
425748 On ch=1 n=f#7 v=0
425760 On ch=1 n=c#7 v=0
425802 On ch=1 n=f#6 v=0
425834 On ch=1 n=f#7 v=112
425834 On ch=1 n=c#7 v=118
425838 On ch=1 n=g6 v=117
425844 On ch=1 n=a#5 v=115
425844 On ch=1 n=c#6 v=112
425908 On ch=1 n=f#6 v=112
425920 On ch=1 n=a#5 v=0
425924 On ch=1 n=g6 v=0
425926 On ch=1 n=c#6 v=0
425938 On ch=1 n=f#7 v=0
425948 On ch=1 n=c#7 v=0
425996 On ch=1 n=f#6 v=0
426028 On ch=1 n=c#7 v=118
426028 On ch=1 n=f#7 v=109
426034 On ch=1 n=g6 v=120
426040 On ch=1 n=c#6 v=116
426042 On ch=1 n=a#5 v=116
426102 On ch=1 n=f#6 v=113
426118 On ch=1 n=a#5 v=0
426122 On ch=1 n=g6 v=0
426126 On ch=1 n=c#6 v=0
426128 On ch=1 n=f#7 v=0
426144 On ch=1 n=c#7 v=0
426184 On ch=1 n=f#6 v=0
426216 On ch=1 n=g6 v=122
426220 On ch=1 n=c#7 v=125
426220 On ch=1 n=f#7 v=115
426222 On ch=1 n=a#5 v=120
426224 On ch=1 n=c#6 v=120
426292 On ch=1 n=f#6 v=108
426296 On ch=1 n=a#5 v=0
426308 On ch=1 n=g6 v=0
426314 On ch=1 n=c#6 v=0
426328 On ch=1 n=f#7 v=0
426336 On ch=1 n=c#7 v=0
426378 On ch=1 n=f#6 v=0
426396 On ch=1 n=g6 v=120
426398 On ch=1 n=c#7 v=119
426402 On ch=1 n=f#7 v=115
426402 On ch=1 n=a#5 v=119
426402 On ch=1 n=c#6 v=118
426414 On ch=1 n=f#6 v=75
426444 On ch=1 n=f#6 v=0
426470 On ch=1 n=a#5 v=0
426478 On ch=1 n=g6 v=0
426482 On ch=1 n=f#6 v=99
426488 On ch=1 n=c#6 v=0
426498 On ch=1 n=f#7 v=0
426526 On ch=1 n=c#7 v=0
426562 On ch=1 n=g6 v=118
426566 On ch=1 n=a#5 v=114
426568 On ch=1 n=c#6 v=115
426576 On ch=1 n=c#7 v=114
426578 On ch=1 n=f#7 v=116
426608 On ch=1 n=f#6 v=0
426662 On ch=1 n=f#6 v=105
426664 On ch=1 n=a#5 v=0
426666 On ch=1 n=c#6 v=0
426672 On ch=1 n=g6 v=0
426704 On ch=1 n=f#7 v=0
426708 On ch=1 n=c#7 v=0
426752 On ch=1 n=g6 v=124
426756 On ch=1 n=a#5 v=121
426758 On ch=1 n=c#7 v=118
426758 On ch=1 n=c#6 v=123
426760 On ch=1 n=f#7 v=113
426796 On ch=1 n=f#6 v=0
426818 On ch=1 n=f#7 v=0
426822 On ch=1 n=c#7 v=0
426832 On ch=1 n=g6 v=0
426860 On ch=1 n=c#6 v=0
426864 On ch=1 n=a#5 v=0
427024 Par ch=1 c=64 v=63
427044 Par ch=1 c=64 v=0
427258 On ch=1 n=f4 v=86
427306 On ch=1 n=a4 v=96
427314 Par ch=1 c=64 v=63
427318 Par ch=1 c=64 v=127
427328 On ch=1 n=a#4 v=115
427338 On ch=1 n=a#2 v=101
427342 On ch=1 n=d5 v=111
427346 On ch=1 n=a#3 v=127
427348 On ch=1 n=f4 v=0
427348 On ch=1 n=f3 v=113
427388 On ch=1 n=a4 v=0
427394 On ch=1 n=a#4 v=0
427400 On ch=1 n=d5 v=0
427426 On ch=1 n=a#2 v=0
427430 On ch=1 n=f3 v=0
427450 On ch=1 n=a#3 v=0
427458 Par ch=1 c=64 v=63
427486 Par ch=1 c=64 v=0
427708 On ch=1 n=d3 v=127
427708 On ch=1 n=a3 v=122
427712 On ch=1 n=a4 v=117
427716 On ch=1 n=d4 v=125
427726 Par ch=1 c=64 v=127
427802 On ch=1 n=a3 v=0
427818 On ch=1 n=d3 v=0
427858 On ch=1 n=d4 v=0
427910 On ch=1 n=a4 v=0
428156 On ch=1 n=a2 v=125
428160 On ch=1 n=d2 v=127
428258 Par ch=1 c=64 v=63
428264 Par ch=1 c=64 v=0
428346 Par ch=1 c=64 v=63
428350 Par ch=1 c=64 v=127
428562 On ch=1 n=d2 v=0
428586 On ch=1 n=a2 v=0
428954 On ch=1 n=d8 v=112
428990 On ch=1 n=e8 v=101
429040 On ch=1 n=d8 v=0
429072 On ch=1 n=d8 v=114
429076 On ch=1 n=f#5 v=83
429076 On ch=1 n=d6 v=113
429076 On ch=1 n=a5 v=87
429078 On ch=1 n=f#6 v=127
429080 On ch=1 n=a8 v=116
429082 On ch=1 n=a7 v=120
429112 On ch=1 n=f8 v=48
429148 On ch=1 n=f8 v=0
429156 On ch=1 n=e8 v=0
429204 On ch=1 n=a7 v=0
429232 On ch=1 n=a8 v=0
429232 On ch=1 n=d8 v=0
430516 On ch=1 n=f#6 v=0
430524 On ch=1 n=d6 v=0
430528 On ch=1 n=a5 v=0
430534 On ch=1 n=f#5 v=0
431130 Par ch=1 c=64 v=63
431140 Par ch=1 c=64 v=0
431140 Meta TrkEnd
TrkEnd
