MFile 1 2 480
MTrk
0 Tempo 500000
0 TimeSig 6/8 24 8
0 Meta TrkEnd
TrkEnd
MTrk
0 SeqSpec 43 00 01 00
0 Meta TrkName "<Master Volume>"
0 Meta 0x21 00
0 SysEx f0 41 10 42 12 40 00 7f 00 41 f7
0 SysEx f0 41 10 42 12 40 00 04 64 58 f7
192 Meta Text "<Master Reverve>"
192 SysEx f0 41 10 42 12 40 01 30 03 0c f7
192 SysEx f0 41 10 42 12 40 01 33 3c 50 f7
192 SysEx f0 41 10 42 12 40 01 34 3c 4f f7
576 Par ch=1 c=0 v=0
580 Par ch=1 c=32 v=1
584 PrCh ch=1 p=0
642 Par ch=1 c=67 v=0
780 Par ch=1 c=7 v=100
972 Par ch=1 c=11 v=80
1164 Par ch=1 c=10 v=64
1356 Par ch=1 c=1 v=0
1356 Meta Text "<part reverve>"
1356 Par ch=1 c=91 v=80
1374 Par ch=1 c=67 v=0
1452 Par ch=1 c=99 v=1
1456 Par ch=1 c=98 v=32
1460 Par ch=1 c=6 v=62
1464 Par ch=1 c=99 v=1
1468 Par ch=1 c=98 v=33
1472 Par ch=1 c=6 v=54
1476 Par ch=1 c=99 v=1
1480 Par ch=1 c=98 v=99
1484 Par ch=1 c=6 v=62
1488 Par ch=1 c=99 v=1
1492 Par ch=1 c=98 v=100
1496 Par ch=1 c=6 v=60
1500 Par ch=1 c=99 v=1
1504 Par ch=1 c=98 v=102
1508 Par ch=1 c=6 v=70
3954 Par ch=1 c=67 v=127
4298 On ch=1 n=f#4 v=43
4408 Par ch=1 c=64 v=63
4420 Par ch=1 c=64 v=127
4422 On ch=1 n=e7 v=60
4438 On ch=1 n=a6 v=41
4560 On ch=1 n=c#5 v=49
4562 On ch=1 n=f#4 v=0
4694 On ch=1 n=e5 v=65
4706 On ch=1 n=c#5 v=0
4810 On ch=1 n=e5 v=0
4838 On ch=1 n=a5 v=74
4866 On ch=1 n=e7 v=0
4896 On ch=1 n=a6 v=0
4912 On ch=1 n=a5 v=0
4956 On ch=1 n=c#6 v=73
5044 On ch=1 n=e6 v=91
5066 On ch=1 n=c#6 v=0
5166 On ch=1 n=e6 v=0
5166 On ch=1 n=c#7 v=109
5174 On ch=1 n=g#6 v=89
5182 On ch=1 n=a6 v=74
5284 On ch=1 n=a6 v=0
5290 On ch=1 n=g#6 v=0
5296 On ch=1 n=e6 v=60
5414 On ch=1 n=c#6 v=77
5420 On ch=1 n=c#7 v=0
5430 On ch=1 n=e6 v=0
5484 On ch=1 n=c#6 v=0
5530 On ch=1 n=a5 v=79
5620 On ch=1 n=a5 v=0
5648 On ch=1 n=e5 v=62
5734 On ch=1 n=c#5 v=86
5740 On ch=1 n=e5 v=0
5826 On ch=1 n=c#5 v=0
5848 On ch=1 n=f#4 v=87
5958 On ch=1 n=c#5 v=90
5970 On ch=1 n=f#4 v=0
6062 On ch=1 n=e5 v=93
6084 On ch=1 n=c#5 v=0
6174 On ch=1 n=e5 v=0
6178 On ch=1 n=a5 v=77
6250 On ch=1 n=g#6 v=106
6258 On ch=1 n=c#6 v=96
6292 On ch=1 n=a5 v=0
6300 On ch=1 n=e5 v=33
6392 On ch=1 n=c#5 v=85
6398 On ch=1 n=c#6 v=0
6420 On ch=1 n=e5 v=0
6514 On ch=1 n=c#5 v=0
6530 On ch=1 n=f#4 v=87
6640 On ch=1 n=c#5 v=80
6648 On ch=1 n=f#4 v=0
6696 On ch=1 n=g#6 v=0
6732 On ch=1 n=e5 v=67
6754 On ch=1 n=c#5 v=0
6788 On ch=1 n=f#6 v=108
6798 On ch=1 n=e6 v=84
6846 On ch=1 n=e5 v=0
6862 On ch=1 n=a5 v=67
6936 On ch=1 n=f#6 v=0
6968 On ch=1 n=a5 v=0
6980 On ch=1 n=e5 v=55
7054 On ch=1 n=c#5 v=85
7068 On ch=1 n=e5 v=0
7068 On ch=1 n=e6 v=0
7180 On ch=1 n=c#5 v=0
7192 On ch=1 n=f#4 v=76
7204 On ch=1 n=e7 v=102
7214 On ch=1 n=a6 v=79
7336 On ch=1 n=c#5 v=73
7346 On ch=1 n=f#4 v=0
7446 On ch=1 n=e5 v=76
7462 On ch=1 n=c#5 v=0
7494 On ch=1 n=a6 v=0
7526 On ch=1 n=e7 v=0
7540 On ch=1 n=e5 v=0
7564 On ch=1 n=a5 v=77
7644 On ch=1 n=a5 v=0
7668 On ch=1 n=c#6 v=85
7754 On ch=1 n=e6 v=91
7786 On ch=1 n=c#6 v=0
7866 On ch=1 n=c#7 v=114
7872 On ch=1 n=g#6 v=105
7876 On ch=1 n=e6 v=0
7882 On ch=1 n=a6 v=75
7956 On ch=1 n=g#6 v=0
7982 On ch=1 n=a6 v=0
7988 On ch=1 n=e6 v=69
8030 On ch=1 n=c#7 v=0
8092 On ch=1 n=c#6 v=82
8110 On ch=1 n=e6 v=0
8164 On ch=1 n=c#6 v=0
8212 On ch=1 n=a5 v=75
8304 On ch=1 n=a5 v=0
8316 On ch=1 n=e5 v=73
8408 On ch=1 n=c#5 v=80
8416 On ch=1 n=e5 v=0
8518 On ch=1 n=c#5 v=0
8524 On ch=1 n=f#4 v=78
8634 On ch=1 n=c#5 v=75
8640 On ch=1 n=f#4 v=0
8726 On ch=1 n=e5 v=73
8768 On ch=1 n=c#5 v=0
8846 On ch=1 n=e5 v=0
8846 On ch=1 n=a5 v=69
8936 On ch=1 n=g#6 v=81
8940 On ch=1 n=c#6 v=77
8958 On ch=1 n=a5 v=0
8988 On ch=1 n=e5 v=30
9074 On ch=1 n=c#6 v=0
9074 On ch=1 n=c#5 v=72
9084 On ch=1 n=e5 v=0
9196 On ch=1 n=c#5 v=0
9206 On ch=1 n=f#4 v=81
9306 On ch=1 n=c#5 v=65
9310 On ch=1 n=f#4 v=0
9352 On ch=1 n=g#6 v=0
9398 On ch=1 n=f#6 v=72
9404 On ch=1 n=e5 v=65
9412 On ch=1 n=e6 v=60
9442 On ch=1 n=c#5 v=0
9508 On ch=1 n=f#6 v=0
9518 On ch=1 n=e5 v=0
9524 On ch=1 n=a5 v=66
9620 On ch=1 n=a5 v=0
9630 On ch=1 n=e6 v=0
9630 On ch=1 n=e5 v=42
9718 On ch=1 n=c#5 v=73
9730 On ch=1 n=e5 v=0
9814 On ch=1 n=e7 v=85
9820 On ch=1 n=a6 v=76
9828 On ch=1 n=c#5 v=0
9848 On ch=1 n=f#4 v=78
9960 On ch=1 n=f#4 v=0
9974 On ch=1 n=c#5 v=76
10056 On ch=1 n=e5 v=65
10068 On ch=1 n=a6 v=0
10076 On ch=1 n=c#5 v=0
10108 On ch=1 n=e7 v=0
10146 On ch=1 n=e5 v=0
10172 On ch=1 n=a5 v=70
10236 On ch=1 n=a5 v=0
10284 On ch=1 n=c#6 v=77
10368 On ch=1 n=e6 v=85
10378 On ch=1 n=c#6 v=0
10486 On ch=1 n=e6 v=0
10498 On ch=1 n=g#6 v=80
10498 On ch=1 n=c#7 v=96
10500 On ch=1 n=a6 v=68
10560 On ch=1 n=g#6 v=0
10594 On ch=1 n=c#7 v=0
10598 On ch=1 n=a6 v=0
10598 On ch=1 n=e6 v=60
10708 On ch=1 n=c#6 v=72
10722 On ch=1 n=e6 v=0
10776 On ch=1 n=c#6 v=0
10830 On ch=1 n=a5 v=68
10912 On ch=1 n=a5 v=0
10944 On ch=1 n=e5 v=56
11018 On ch=1 n=c#5 v=70
11022 On ch=1 n=e5 v=0
11130 On ch=1 n=c#5 v=0
11142 On ch=1 n=f#4 v=71
11260 On ch=1 n=c#5 v=70
11262 On ch=1 n=f#4 v=0
11348 On ch=1 n=e5 v=68
11394 On ch=1 n=c#5 v=0
11468 On ch=1 n=e5 v=0
11472 On ch=1 n=a5 v=64
11576 On ch=1 n=a5 v=0
11598 On ch=1 n=g#6 v=81
11602 On ch=1 n=c#6 v=72
11602 On ch=1 n=e5 v=40
11698 On ch=1 n=e5 v=0
11700 On ch=1 n=c#5 v=63
11708 On ch=1 n=c#6 v=0
11808 On ch=1 n=c#5 v=0
11836 On ch=1 n=f#4 v=77
11934 On ch=1 n=f#4 v=0
11950 On ch=1 n=c#5 v=67
11988 On ch=1 n=g#6 v=0
12032 On ch=1 n=e5 v=50
12048 On ch=1 n=f#6 v=86
12054 On ch=1 n=c#5 v=0
12072 On ch=1 n=e6 v=69
12142 On ch=1 n=e5 v=0
12162 On ch=1 n=a5 v=57
12176 On ch=1 n=f#6 v=0
12254 On ch=1 n=a5 v=0
12266 On ch=1 n=e5 v=39
12312 On ch=1 n=e6 v=0
12350 On ch=1 n=c#5 v=73
12360 On ch=1 n=e5 v=0
12474 On ch=1 n=c#5 v=0
12492 On ch=1 n=e7 v=69
12492 On ch=1 n=a6 v=52
12498 On ch=1 n=f#4 v=72
12618 On ch=1 n=f#4 v=0
12638 On ch=1 n=c#5 v=59
12752 On ch=1 n=a6 v=0
12754 On ch=1 n=e5 v=51
12782 On ch=1 n=e7 v=0
12784 On ch=1 n=c#5 v=0
12866 On ch=1 n=g#5 v=110
12872 On ch=1 n=e5 v=0
12948 On ch=1 n=g#5 v=0
13024 On ch=1 n=c#6 v=83
13126 On ch=1 n=e6 v=67
13170 On ch=1 n=c#6 v=0
13256 On ch=1 n=e6 v=0
13270 On ch=1 n=a6 v=67
13276 On ch=1 n=c#7 v=88
13280 On ch=1 n=g#6 v=58
13330 On ch=1 n=g#6 v=0
13356 On ch=1 n=c#7 v=0
13360 On ch=1 n=a6 v=0
13392 On ch=1 n=e6 v=43
13498 On ch=1 n=c#6 v=66
13506 On ch=1 n=e6 v=0
13556 On ch=1 n=c#6 v=0
13610 On ch=1 n=a5 v=71
13680 On ch=1 n=a5 v=0
13726 On ch=1 n=e5 v=51
13800 On ch=1 n=c#5 v=81
13810 On ch=1 n=e5 v=0
13926 On ch=1 n=c#5 v=0
13936 On ch=1 n=c#6 v=119
13940 On ch=1 n=f#4 v=77
14066 On ch=1 n=c#5 v=69
14076 On ch=1 n=f#4 v=0
14164 On ch=1 n=e5 v=71
14174 On ch=1 n=c#6 v=0
14200 On ch=1 n=c#5 v=0
14270 On ch=1 n=a5 v=71
14276 On ch=1 n=e5 v=0
14378 On ch=1 n=a5 v=0
14390 On ch=1 n=e5 v=41
14410 On ch=1 n=g#6 v=91
14418 On ch=1 n=c#6 v=82
14484 On ch=1 n=c#5 v=65
14494 On ch=1 n=c#6 v=0
14496 On ch=1 n=e5 v=0
14610 On ch=1 n=c#5 v=0
14618 On ch=1 n=f#4 v=81
14720 On ch=1 n=f#4 v=0
14730 On ch=1 n=c#5 v=70
14764 On ch=1 n=g#6 v=0
14818 On ch=1 n=e5 v=45
14858 On ch=1 n=f#6 v=95
14860 On ch=1 n=c#5 v=0
14894 On ch=1 n=e6 v=64
14952 On ch=1 n=e5 v=0
14970 On ch=1 n=a5 v=54
14982 On ch=1 n=f#6 v=0
15068 On ch=1 n=a5 v=0
15080 On ch=1 n=e5 v=54
15158 On ch=1 n=c#5 v=78
15164 On ch=1 n=e6 v=0
15172 On ch=1 n=e5 v=0
15268 On ch=1 n=c#5 v=0
15294 On ch=1 n=e7 v=85
15302 On ch=1 n=f#4 v=69
15308 On ch=1 n=a6 v=58
15424 On ch=1 n=f#4 v=0
15432 On ch=1 n=c#5 v=57
15522 On ch=1 n=e5 v=59
15562 On ch=1 n=a6 v=0
15572 On ch=1 n=c#5 v=0
15592 On ch=1 n=e7 v=0
15624 On ch=1 n=e5 v=0
15638 On ch=1 n=a5 v=75
15710 On ch=1 n=a5 v=0
15756 On ch=1 n=c#6 v=80
15832 On ch=1 n=e6 v=84
15850 On ch=1 n=c#6 v=0
15942 On ch=1 n=c#7 v=103
15944 On ch=1 n=e6 v=0
15948 On ch=1 n=g#6 v=80
15958 On ch=1 n=a6 v=66
16016 On ch=1 n=g#6 v=0
16048 On ch=1 n=a6 v=0
16058 On ch=1 n=c#7 v=0
16066 On ch=1 n=e6 v=49
16158 On ch=1 n=c#6 v=72
16172 On ch=1 n=e6 v=0
16226 On ch=1 n=c#6 v=0
16276 On ch=1 n=a5 v=69
16360 On ch=1 n=a5 v=0
16396 On ch=1 n=e5 v=51
16472 On ch=1 n=c#5 v=74
16478 On ch=1 n=e5 v=0
16568 On ch=1 n=c#5 v=0
16608 On ch=1 n=f#4 v=70
16710 On ch=1 n=f#4 v=0
16718 On ch=1 n=c#5 v=67
16824 On ch=1 n=e5 v=69
16846 On ch=1 n=c#5 v=0
16924 On ch=1 n=e5 v=0
16932 On ch=1 n=a5 v=66
17032 On ch=1 n=a5 v=0
17060 On ch=1 n=e5 v=34
17060 On ch=1 n=g#6 v=85
17066 On ch=1 n=c#6 v=78
17146 On ch=1 n=c#5 v=61
17148 On ch=1 n=e5 v=0
17152 On ch=1 n=c#6 v=0
17246 On ch=1 n=c#5 v=0
17286 On ch=1 n=f#4 v=80
17378 On ch=1 n=f#4 v=0
17398 On ch=1 n=c#5 v=67
17416 On ch=1 n=g#6 v=0
17494 On ch=1 n=e5 v=36
17512 On ch=1 n=c#5 v=0
17546 On ch=1 n=f#6 v=94
17568 On ch=1 n=e6 v=68
17606 On ch=1 n=e5 v=0
17630 On ch=1 n=a5 v=47
17682 On ch=1 n=f#6 v=0
17726 On ch=1 n=a5 v=0
17758 On ch=1 n=e5 v=33
17826 On ch=1 n=e6 v=0
17844 On ch=1 n=c#5 v=65
17846 On ch=1 n=e5 v=0
17970 On ch=1 n=c#5 v=0
18004 On ch=1 n=e7 v=77
18008 On ch=1 n=a6 v=58
18010 On ch=1 n=f#4 v=74
18138 On ch=1 n=f#4 v=0
18154 On ch=1 n=c#5 v=54
18246 On ch=1 n=a6 v=0
18270 On ch=1 n=e5 v=40
18296 On ch=1 n=e7 v=0
18308 On ch=1 n=c#5 v=0
18380 On ch=1 n=g#5 v=107
18386 On ch=1 n=e5 v=0
18460 On ch=1 n=g#5 v=0
18528 On ch=1 n=c#6 v=86
18634 On ch=1 n=e6 v=49
18644 On ch=1 n=c#6 v=0
18752 On ch=1 n=e6 v=0
18754 On ch=1 n=c#7 v=100
18758 On ch=1 n=g#6 v=82
18766 On ch=1 n=a6 v=69
18808 On ch=1 n=g#6 v=0
18832 On ch=1 n=c#7 v=0
18852 On ch=1 n=a6 v=0
18862 On ch=1 n=e6 v=61
18972 On ch=1 n=c#6 v=80
18984 On ch=1 n=e6 v=0
19026 On ch=1 n=c#6 v=0
19080 On ch=1 n=a5 v=68
19152 On ch=1 n=a5 v=0
19182 On ch=1 n=e5 v=63
19266 On ch=1 n=c#5 v=83
19270 On ch=1 n=e5 v=0
19368 On ch=1 n=c#5 v=0
19388 On ch=1 n=c#6 v=119
19402 On ch=1 n=f#4 v=77
19528 On ch=1 n=f#4 v=0
19530 On ch=1 n=c#5 v=70
19618 On ch=1 n=e5 v=66
19628 On ch=1 n=c#6 v=0
19662 On ch=1 n=c#5 v=0
19728 On ch=1 n=e5 v=0
19730 On ch=1 n=a5 v=57
19830 On ch=1 n=a5 v=0
19860 On ch=1 n=e5 v=29
19862 On ch=1 n=g#6 v=80
19866 On ch=1 n=c#6 v=73
19932 On ch=1 n=c#6 v=0
19934 On ch=1 n=c#5 v=55
19948 On ch=1 n=e5 v=0
20048 On ch=1 n=c#5 v=0
20070 On ch=1 n=f#4 v=81
20168 On ch=1 n=f#4 v=0
20184 On ch=1 n=c#5 v=66
20250 On ch=1 n=g#6 v=0
20264 On ch=1 n=e5 v=48
20274 On ch=1 n=f#6 v=93
20288 On ch=1 n=e6 v=78
20296 On ch=1 n=c#5 v=0
20370 On ch=1 n=e5 v=0
20386 On ch=1 n=f#6 v=0
20392 On ch=1 n=a5 v=56
20464 On ch=1 n=e6 v=0
20472 On ch=1 n=a5 v=0
20476 On ch=1 n=e5 v=63
20546 On ch=1 n=c#5 v=87
20564 On ch=1 n=e5 v=0
20700 On ch=1 n=c#5 v=0
20714 On ch=1 n=a6 v=63
20732 On ch=1 n=f#4 v=71
20736 On ch=1 n=e7 v=99
20820 On ch=1 n=f#4 v=0
20854 On ch=1 n=c#5 v=61
20946 On ch=1 n=e5 v=61
20982 On ch=1 n=c#5 v=0
21050 On ch=1 n=a6 v=0
21052 On ch=1 n=e5 v=0
21068 On ch=1 n=a5 v=80
21104 On ch=1 n=e7 v=0
21140 On ch=1 n=a5 v=0
21174 On ch=1 n=c#6 v=95
21256 On ch=1 n=e6 v=84
21274 On ch=1 n=c#6 v=0
21372 On ch=1 n=a6 v=71
21374 On ch=1 n=e6 v=0
21376 On ch=1 n=c#7 v=110
21388 On ch=1 n=g#6 v=90
21462 On ch=1 n=a6 v=0
21488 On ch=1 n=e6 v=47
21568 On ch=1 n=c#6 v=68
21572 On ch=1 n=e6 v=0
21598 On ch=1 n=g#6 v=0
21610 On ch=1 n=c#6 v=0
21686 On ch=1 n=a5 v=64
21762 On ch=1 n=a5 v=0
21782 On ch=1 n=c#7 v=0
21782 On ch=1 n=e5 v=59
21864 On ch=1 n=c#5 v=76
21870 On ch=1 n=e5 v=0
21970 On ch=1 n=c#5 v=0
21996 On ch=1 n=f#4 v=77
22108 On ch=1 n=f#4 v=0
22112 On ch=1 n=c#5 v=60
22184 On ch=1 n=e5 v=65
22230 On ch=1 n=c#5 v=0
22308 On ch=1 n=e5 v=0
22310 On ch=1 n=a5 v=65
22394 On ch=1 n=g#6 v=76
22394 On ch=1 n=c#6 v=76
22408 On ch=1 n=a5 v=0
22450 On ch=1 n=e5 v=23
22506 On ch=1 n=c#6 v=0
22530 On ch=1 n=e5 v=0
22534 On ch=1 n=c#5 v=51
22632 On ch=1 n=c#5 v=0
22658 On ch=1 n=f#4 v=78
22750 On ch=1 n=f#4 v=0
22750 On ch=1 n=c#5 v=57
22814 On ch=1 n=g#6 v=0
22856 On ch=1 n=e5 v=42
22876 On ch=1 n=f#6 v=79
22892 On ch=1 n=c#5 v=0
22912 On ch=1 n=e6 v=48
22968 On ch=1 n=e5 v=0
22998 On ch=1 n=f#6 v=0
23006 On ch=1 n=a5 v=41
23094 On ch=1 n=a5 v=0
23112 On ch=1 n=e5 v=40
23182 On ch=1 n=e5 v=0
23182 On ch=1 n=e6 v=0
23184 On ch=1 n=c#5 v=70
23298 On ch=1 n=e7 v=72
23302 On ch=1 n=a6 v=50
23306 On ch=1 n=c#5 v=0
23350 On ch=1 n=f#4 v=51
23450 On ch=1 n=f#4 v=0
23470 On ch=1 n=c#5 v=42
23584 On ch=1 n=e5 v=41
23630 On ch=1 n=c#5 v=0
23636 On ch=1 n=a6 v=0
23660 On ch=1 n=e7 v=0
23700 On ch=1 n=g#5 v=108
23710 On ch=1 n=e5 v=0
23784 On ch=1 n=g#5 v=0
23858 On ch=1 n=c#6 v=84
23956 On ch=1 n=e6 v=73
23994 On ch=1 n=c#6 v=0
24086 On ch=1 n=e6 v=0
24100 On ch=1 n=a6 v=71
24102 On ch=1 n=c#7 v=96
24106 On ch=1 n=g#6 v=71
24148 On ch=1 n=g#6 v=0
24170 On ch=1 n=c#7 v=0
24196 On ch=1 n=a6 v=0
24222 On ch=1 n=e6 v=50
24318 On ch=1 n=c#6 v=75
24326 On ch=1 n=e6 v=0
24378 On ch=1 n=c#6 v=0
24432 On ch=1 n=a5 v=66
24500 On ch=1 n=a5 v=0
24534 On ch=1 n=e5 v=65
24612 On ch=1 n=c#5 v=79
24620 On ch=1 n=e5 v=0
24740 On ch=1 n=c#5 v=0
24740 On ch=1 n=c#6 v=123
24754 On ch=1 n=f#4 v=70
24870 On ch=1 n=f#4 v=0
24874 On ch=1 n=c#5 v=67
24952 On ch=1 n=e5 v=71
25002 On ch=1 n=c#5 v=0
25016 On ch=1 n=c#6 v=0
25076 On ch=1 n=a5 v=68
25078 On ch=1 n=e5 v=0
25182 On ch=1 n=a5 v=0
25220 On ch=1 n=e5 v=28
25228 On ch=1 n=g#6 v=100
25242 On ch=1 n=c#6 v=93
25302 On ch=1 n=e5 v=0
25306 On ch=1 n=c#6 v=0
25306 On ch=1 n=c#5 v=63
25414 On ch=1 n=g#6 v=0
25440 On ch=1 n=c#5 v=0
25446 On ch=1 n=f#4 v=84
25540 On ch=1 n=c#5 v=72
25544 On ch=1 n=f#4 v=0
25634 On ch=1 n=e5 v=60
25672 On ch=1 n=f#6 v=106
25680 On ch=1 n=e6 v=76
25696 On ch=1 n=c#5 v=0
25724 On ch=1 n=e6 v=0
25742 On ch=1 n=f#6 v=0
25748 On ch=1 n=e5 v=0
25758 On ch=1 n=a5 v=61
25850 On ch=1 n=a5 v=0
25854 On ch=1 n=e5 v=60
25916 On ch=1 n=c#5 v=88
25942 On ch=1 n=e5 v=0
25972 On ch=1 n=e6 v=117
26144 Par ch=1 c=67 v=127
26154 On ch=1 n=c#5 v=0
26166 On ch=1 n=f#4 v=76
26198 On ch=1 n=e7 v=96
26200 On ch=1 n=a6 v=87
26238 On ch=1 n=e6 v=0
26284 On ch=1 n=f#4 v=0
26308 On ch=1 n=c#5 v=56
26418 On ch=1 n=e5 v=39
26454 On ch=1 n=c#5 v=0
26500 On ch=1 n=e5 v=0
26522 On ch=1 n=a5 v=78
26528 On ch=1 n=a6 v=0
26556 On ch=1 n=e7 v=0
26594 On ch=1 n=a5 v=0
26638 On ch=1 n=c#6 v=76
26708 On ch=1 n=e6 v=73
26738 On ch=1 n=c#6 v=0
26848 On ch=1 n=e6 v=0
26856 On ch=1 n=c#7 v=93
26856 On ch=1 n=a6 v=64
26860 On ch=1 n=g#6 v=67
26946 On ch=1 n=a6 v=0
26954 On ch=1 n=g#6 v=0
26978 On ch=1 n=e6 v=54
26994 On ch=1 n=c#7 v=0
27068 On ch=1 n=c#6 v=75
27082 On ch=1 n=e6 v=0
27136 On ch=1 n=c#6 v=0
27196 On ch=1 n=a5 v=65
27278 On ch=1 n=a5 v=0
27302 On ch=1 n=e5 v=58
27386 On ch=1 n=c#5 v=74
27392 On ch=1 n=e5 v=0
27502 On ch=1 n=c#5 v=0
27534 On ch=1 n=f#4 v=60
27536 On ch=1 n=g#5 v=106
27642 On ch=1 n=f#4 v=0
27656 On ch=1 n=c#5 v=65
27734 On ch=1 n=g#5 v=0
27766 On ch=1 n=e5 v=30
27784 On ch=1 n=c#5 v=0
27862 On ch=1 n=e5 v=0
27884 On ch=1 n=a5 v=50
27956 On ch=1 n=g#6 v=76
27970 On ch=1 n=c#6 v=70
27974 On ch=1 n=a5 v=0
28006 On ch=1 n=e5 v=23
28066 On ch=1 n=c#5 v=63
28074 On ch=1 n=e5 v=0
28092 On ch=1 n=c#6 v=0
28168 On ch=1 n=c#5 v=0
28182 On ch=1 n=g#6 v=0
28192 On ch=1 n=f#4 v=76
28286 On ch=1 n=f#4 v=0
28304 On ch=1 n=c#5 v=62
28394 On ch=1 n=e5 v=36
28410 On ch=1 n=c#5 v=0
28426 On ch=1 n=f#6 v=77
28442 On ch=1 n=e6 v=66
28494 On ch=1 n=e5 v=0
28516 On ch=1 n=a5 v=39
28518 On ch=1 n=f#6 v=0
28598 On ch=1 n=a5 v=0
28642 On ch=1 n=e5 v=22
28680 On ch=1 n=c#5 v=75
28694 On ch=1 n=e5 v=0
28740 On ch=1 n=e6 v=0
28802 On ch=1 n=c#5 v=0
28886 On ch=1 n=f#4 v=58
28898 On ch=1 n=e7 v=79
28906 On ch=1 n=a6 v=59
29096 On ch=1 n=c#5 v=80
29136 On ch=1 n=f#4 v=0
29224 On ch=1 n=e5 v=77
29262 On ch=1 n=c#5 v=0
29322 On ch=1 n=e5 v=0
29342 On ch=1 n=a5 v=65
29436 On ch=1 n=c#6 v=80
29442 On ch=1 n=a5 v=0
29472 On ch=1 n=e7 v=0
29536 On ch=1 n=e6 v=91
29560 On ch=1 n=c#6 v=0
29560 On ch=1 n=a6 v=0
29650 On ch=1 n=e6 v=0
29660 On ch=1 n=c#7 v=97
29670 On ch=1 n=a6 v=60
29674 On ch=1 n=g#6 v=63
29784 On ch=1 n=e6 v=71
29790 On ch=1 n=a6 v=0
29920 On ch=1 n=c#6 v=76
29930 On ch=1 n=e6 v=0
29932 Par ch=1 c=64 v=63
29936 Par ch=1 c=64 v=127
29994 On ch=1 n=c#6 v=0
30040 On ch=1 n=c#7 v=0
30046 On ch=1 n=a5 v=66
30056 On ch=1 n=g#6 v=0
30136 On ch=1 n=a5 v=0
30168 On ch=1 n=e5 v=51
30258 On ch=1 n=c#5 v=72
30260 On ch=1 n=e5 v=0
30370 On ch=1 n=c#5 v=0
30420 On ch=1 n=f#4 v=52
30422 On ch=1 n=f#5 v=99
30588 On ch=1 n=c#5 v=63
30620 On ch=1 n=f#4 v=0
30720 On ch=1 n=e5 v=60
30736 On ch=1 n=c#5 v=0
30826 On ch=1 n=e5 v=0
30844 On ch=1 n=f#5 v=0
30858 On ch=1 n=a5 v=51
30934 On ch=1 n=g#6 v=87
30952 On ch=1 n=a5 v=0
30954 On ch=1 n=c#6 v=63
30960 On ch=1 n=e5 v=35
31056 On ch=1 n=e5 v=0
31056 On ch=1 n=c#5 v=66
31162 On ch=1 n=c#5 v=0
31176 On ch=1 n=c#6 v=0
31180 On ch=1 n=g#6 v=0
31190 On ch=1 n=f#4 v=62
31304 On ch=1 n=f#4 v=0
31306 On ch=1 n=c#5 v=67
31428 On ch=1 n=e5 v=48
31440 On ch=1 n=c#5 v=0
31494 On ch=1 n=f#6 v=78
31506 On ch=1 n=e6 v=59
31550 On ch=1 n=e5 v=0
31590 On ch=1 n=a5 v=50
31700 On ch=1 n=a5 v=0
31714 On ch=1 n=e5 v=49
31788 On ch=1 n=e6 v=0
31850 On ch=1 n=f#6 v=0
31908 On ch=1 n=c#5 v=66
31914 On ch=1 n=e5 v=0
31984 On ch=1 n=c#5 v=0
32270 On ch=1 n=e3 v=65
32368 On ch=1 n=f#6 v=75
32398 Par ch=1 c=64 v=63
32400 On ch=1 n=g5 v=35
32418 On ch=1 n=b5 v=46
32436 Par ch=1 c=64 v=0
32492 Par ch=1 c=64 v=63
32516 Par ch=1 c=64 v=127
32538 On ch=1 n=b3 v=62
32550 On ch=1 n=e3 v=0
32662 On ch=1 n=d4 v=83
32664 On ch=1 n=f#6 v=0
32688 On ch=1 n=b3 v=0
32714 On ch=1 n=b5 v=0
32750 On ch=1 n=d4 v=0
32754 On ch=1 n=g4 v=76
32834 On ch=1 n=g4 v=0
32850 On ch=1 n=g5 v=0
32874 On ch=1 n=b4 v=96
32964 On ch=1 n=d5 v=91
33020 On ch=1 n=b4 v=0
33066 On ch=1 n=d5 v=0
33078 On ch=1 n=g5 v=65
33086 On ch=1 n=e6 v=94
33092 On ch=1 n=d6 v=98
33174 On ch=1 n=d5 v=89
33188 On ch=1 n=g5 v=0
33230 On ch=1 n=e6 v=0
33254 On ch=1 n=d6 v=0
33298 On ch=1 n=b4 v=78
33324 On ch=1 n=d5 v=0
33370 On ch=1 n=b4 v=0
33426 On ch=1 n=g4 v=83
33530 On ch=1 n=g4 v=0
33534 On ch=1 n=d4 v=90
33634 On ch=1 n=b3 v=93
33644 On ch=1 n=d4 v=0
33772 On ch=1 n=e3 v=83
33808 Par ch=1 c=64 v=63
33816 On ch=1 n=b3 v=0
33816 On ch=1 n=f#5 v=99
33820 Par ch=1 c=64 v=0
33832 On ch=1 n=g4 v=55
33832 On ch=1 n=b4 v=68
33926 Par ch=1 c=64 v=63
33940 Par ch=1 c=64 v=127
33996 On ch=1 n=b3 v=62
34024 On ch=1 n=e3 v=0
34054 On ch=1 n=g4 v=0
34078 On ch=1 n=f#5 v=0
34152 On ch=1 n=d4 v=75
34186 On ch=1 n=b4 v=0
34196 On ch=1 n=b3 v=0
34318 On ch=1 n=d4 v=0
34338 On ch=1 n=g4 v=38
34360 On ch=1 n=d5 v=49
34368 On ch=1 n=e5 v=60
34480 On ch=1 n=d4 v=57
34502 On ch=1 n=g4 v=0
34550 On ch=1 n=e5 v=0
34662 On ch=1 n=b3 v=65
34668 On ch=1 n=d4 v=0
34686 On ch=1 n=d5 v=0
34722 On ch=1 n=b3 v=0
34894 On ch=1 n=d3 v=96
34920 Par ch=1 c=64 v=63
34938 Par ch=1 c=64 v=0
34956 Par ch=1 c=64 v=63
34990 On ch=1 n=f4 v=63
34992 Par ch=1 c=64 v=127
35020 On ch=1 n=a3 v=83
35048 On ch=1 n=a4 v=73
35064 On ch=1 n=f4 v=0
35068 On ch=1 n=d3 v=0
35096 On ch=1 n=e5 v=76
35104 On ch=1 n=e4 v=80
35110 On ch=1 n=a4 v=0
35110 On ch=1 n=a3 v=0
35138 On ch=1 n=e5 v=0
35162 On ch=1 n=e4 v=0
35210 On ch=1 n=f5 v=87
35214 On ch=1 n=f4 v=90
35264 On ch=1 n=f5 v=0
35274 On ch=1 n=a5 v=86
35298 On ch=1 n=a4 v=63
35322 On ch=1 n=e6 v=114
35340 On ch=1 n=f4 v=0
35364 On ch=1 n=a5 v=0
35384 On ch=1 n=a4 v=0
35396 On ch=1 n=e5 v=71
35490 On ch=1 n=e5 v=0
35502 On ch=1 n=a4 v=59
35610 On ch=1 n=f4 v=60
35618 On ch=1 n=a4 v=0
35658 On ch=1 n=f4 v=0
35678 On ch=1 n=e6 v=0
35708 On ch=1 n=e4 v=79
35812 On ch=1 n=a3 v=79
35814 On ch=1 n=e4 v=0
35960 On ch=1 n=d3 v=58
35968 On ch=1 n=c6 v=72
35974 On ch=1 n=a3 v=0
35988 On ch=1 n=b5 v=52
36028 Par ch=1 c=64 v=63
36060 Par ch=1 c=64 v=0
36132 On ch=1 n=a3 v=54
36136 Par ch=1 c=64 v=63
36156 Par ch=1 c=64 v=127
36214 On ch=1 n=d3 v=0
36296 On ch=1 n=a3 v=0
36296 On ch=1 n=e4 v=59
36332 On ch=1 n=b5 v=0
36348 On ch=1 n=c6 v=0
36434 On ch=1 n=a3 v=55
36440 On ch=1 n=e4 v=0
36614 On ch=1 n=e3 v=59
36638 On ch=1 n=a3 v=0
36722 Par ch=1 c=64 v=63
36738 Par ch=1 c=64 v=0
36768 On ch=1 n=f#6 v=92
36796 On ch=1 n=g5 v=46
36804 On ch=1 n=b5 v=56
36844 Par ch=1 c=64 v=63
36858 Par ch=1 c=64 v=127
36910 On ch=1 n=b3 v=42
36946 On ch=1 n=e3 v=0
37052 On ch=1 n=d4 v=78
37056 On ch=1 n=f#6 v=0
37094 On ch=1 n=b3 v=0
37150 On ch=1 n=d4 v=0
37158 On ch=1 n=g4 v=71
37166 On ch=1 n=g5 v=0
37230 On ch=1 n=g4 v=0
37262 On ch=1 n=b5 v=0
37274 On ch=1 n=b4 v=96
37366 On ch=1 n=d5 v=88
37436 On ch=1 n=b4 v=0
37460 On ch=1 n=d5 v=0
37468 On ch=1 n=g5 v=92
37482 On ch=1 n=e6 v=101
37486 On ch=1 n=d6 v=99
37562 On ch=1 n=e6 v=0
37570 On ch=1 n=g5 v=0
37576 On ch=1 n=d5 v=87
37580 On ch=1 n=d6 v=0
37684 On ch=1 n=b4 v=85
37712 On ch=1 n=d5 v=0
37758 On ch=1 n=b4 v=0
37814 On ch=1 n=g4 v=90
37920 On ch=1 n=g4 v=0
37932 On ch=1 n=d4 v=92
38026 On ch=1 n=b3 v=99
38042 On ch=1 n=d4 v=0
38162 On ch=1 n=e3 v=85
38204 On ch=1 n=f#5 v=108
38206 On ch=1 n=b3 v=0
38210 Par ch=1 c=64 v=63
38220 On ch=1 n=b4 v=68
38222 On ch=1 n=g4 v=61
38226 Par ch=1 c=64 v=0
38320 Par ch=1 c=64 v=63
38334 Par ch=1 c=64 v=127
38382 On ch=1 n=b3 v=63
38416 On ch=1 n=e3 v=0
38438 On ch=1 n=g4 v=0
38500 On ch=1 n=f#5 v=0
38534 On ch=1 n=d4 v=83
38558 On ch=1 n=b4 v=0
38584 On ch=1 n=b3 v=0
38690 On ch=1 n=d4 v=0
38714 On ch=1 n=g4 v=46
38732 On ch=1 n=e5 v=63
38734 On ch=1 n=d5 v=63
38846 On ch=1 n=e5 v=0
38852 On ch=1 n=g4 v=0
38856 On ch=1 n=d4 v=61
38892 On ch=1 n=d5 v=0
39030 On ch=1 n=b3 v=69
39042 On ch=1 n=d4 v=0
39094 On ch=1 n=b3 v=0
39250 On ch=1 n=d3 v=102
39250 Par ch=1 c=64 v=63
39260 Par ch=1 c=64 v=0
39334 Par ch=1 c=64 v=63
39342 On ch=1 n=f4 v=64
39350 Par ch=1 c=64 v=127
39374 On ch=1 n=a3 v=84
39390 On ch=1 n=a4 v=71
39410 On ch=1 n=f4 v=0
39420 On ch=1 n=d3 v=0
39454 On ch=1 n=a4 v=0
39454 On ch=1 n=e4 v=81
39456 On ch=1 n=e5 v=52
39464 On ch=1 n=a3 v=0
39496 On ch=1 n=e5 v=0
39524 On ch=1 n=e4 v=0
39574 On ch=1 n=f5 v=84
39578 On ch=1 n=f4 v=92
39646 On ch=1 n=f5 v=0
39652 On ch=1 n=a5 v=86
39664 On ch=1 n=a4 v=76
39740 On ch=1 n=e6 v=109
39756 On ch=1 n=a5 v=0
39762 On ch=1 n=a4 v=0
39774 On ch=1 n=e5 v=74
39778 On ch=1 n=f4 v=0
39872 On ch=1 n=e5 v=0
39876 On ch=1 n=e6 v=0
39878 On ch=1 n=a4 v=65
39996 On ch=1 n=a4 v=0
40008 On ch=1 n=f4 v=34
40048 On ch=1 n=f4 v=0
40106 On ch=1 n=e4 v=65
40248 On ch=1 n=e4 v=0
40360 On ch=1 n=d3 v=72
40364 On ch=1 n=c6 v=66
40388 On ch=1 n=b5 v=50
40480 Par ch=1 c=64 v=63
40510 Par ch=1 c=64 v=0
40568 Par ch=1 c=64 v=63
40588 On ch=1 n=a3 v=44
40590 Par ch=1 c=64 v=127
40764 On ch=1 n=a3 v=0
40772 On ch=1 n=e4 v=29
40842 On ch=1 n=d3 v=0
40884 On ch=1 n=c6 v=0
40886 On ch=1 n=b5 v=0
40924 On ch=1 n=a3 v=45
40950 On ch=1 n=e4 v=0
41078 On ch=1 n=d3 v=55
41102 On ch=1 n=a3 v=0
41226 On ch=1 n=a3 v=57
41346 On ch=1 n=e4 v=71
41462 On ch=1 n=f4 v=80
41568 On ch=1 n=e4 v=0
41578 On ch=1 n=a4 v=96
41606 On ch=1 n=f4 v=0
41638 On ch=1 n=a3 v=0
41684 On ch=1 n=f4 v=80
41790 On ch=1 n=e4 v=59
41878 On ch=1 n=a3 v=82
41882 On ch=1 n=d3 v=0
41962 On ch=1 n=f4 v=0
41978 On ch=1 n=e4 v=0
42016 On ch=1 n=d3 v=91
42022 On ch=1 n=a4 v=0
42076 On ch=1 n=a3 v=0
42210 On ch=1 n=a3 v=70
42396 On ch=1 n=e4 v=65
42566 On ch=1 n=e5 v=85
42570 On ch=1 n=e4 v=0
42588 On ch=1 n=f4 v=43
42590 On ch=1 n=a4 v=55
42608 On ch=1 n=a3 v=0
42640 Par ch=1 c=64 v=63
42714 Par ch=1 c=64 v=127
42732 On ch=1 n=e4 v=65
42806 On ch=1 n=a3 v=76
42814 On ch=1 n=d3 v=0
42848 On ch=1 n=e4 v=0
42886 On ch=1 n=d3 v=92
42948 On ch=1 n=a3 v=0
43000 On ch=1 n=e5 v=0
43026 On ch=1 n=c5 v=90
43034 On ch=1 n=b4 v=83
43052 On ch=1 n=a3 v=73
43070 Par ch=1 c=64 v=63
43112 Par ch=1 c=64 v=0
43118 On ch=1 n=a4 v=0
43138 Par ch=1 c=64 v=63
43172 Par ch=1 c=64 v=127
43210 On ch=1 n=f4 v=0
43228 On ch=1 n=e4 v=54
43262 On ch=1 n=d3 v=0
43338 On ch=1 n=a3 v=0
43346 On ch=1 n=b4 v=0
43362 On ch=1 n=e4 v=0
43368 On ch=1 n=f4 v=55
43468 On ch=1 n=c5 v=0
43512 On ch=1 n=f4 v=0
43560 On ch=1 n=a4 v=49
43690 On ch=1 n=a4 v=0
43966 On ch=1 n=f#4 v=53
44056 Par ch=1 c=64 v=63
44090 Par ch=1 c=64 v=0
44098 On ch=1 n=e7 v=74
44128 On ch=1 n=a6 v=32
44208 Par ch=1 c=64 v=63
44224 Par ch=1 c=64 v=127
44302 On ch=1 n=c#5 v=63
44324 On ch=1 n=f#4 v=0
44436 On ch=1 n=e5 v=62
44454 On ch=1 n=c#5 v=0
44486 On ch=1 n=a6 v=0
44516 On ch=1 n=e7 v=0
44526 On ch=1 n=e5 v=0
44552 On ch=1 n=a5 v=64
44610 On ch=1 n=a5 v=0
44654 On ch=1 n=c#6 v=79
44740 On ch=1 n=e6 v=91
44760 On ch=1 n=c#6 v=0
44856 On ch=1 n=e6 v=0
44860 On ch=1 n=c#7 v=108
44864 On ch=1 n=a6 v=69
44870 On ch=1 n=g#6 v=83
44972 On ch=1 n=a6 v=0
44980 On ch=1 n=e6 v=66
45090 On ch=1 n=c#6 v=77
45102 On ch=1 n=e6 v=0
45150 On ch=1 n=c#6 v=0
45210 On ch=1 n=a5 v=64
45300 On ch=1 n=a5 v=0
45322 On ch=1 n=e5 v=56
45406 On ch=1 n=c#5 v=81
45410 On ch=1 n=e5 v=0
45482 Par ch=1 c=64 v=63
45494 Par ch=1 c=64 v=0
45526 Par ch=1 c=64 v=63
45528 On ch=1 n=c#5 v=0
45542 On ch=1 n=f#4 v=72
45554 Par ch=1 c=64 v=127
45682 On ch=1 n=c#5 v=64
45706 On ch=1 n=f#4 v=0
45736 On ch=1 n=c#7 v=0
45750 On ch=1 n=g#6 v=0
45794 On ch=1 n=e5 v=60
45800 On ch=1 n=c#5 v=0
45900 On ch=1 n=e5 v=0
45914 On ch=1 n=a5 v=55
45988 On ch=1 n=g#6 v=81
46004 On ch=1 n=c#6 v=46
46022 On ch=1 n=a5 v=0
46042 On ch=1 n=e5 v=36
46128 On ch=1 n=c#5 v=70
46132 On ch=1 n=e5 v=0
46194 On ch=1 n=c#6 v=0
46240 On ch=1 n=c#5 v=0
46268 On ch=1 n=f#4 v=75
46358 On ch=1 n=f#4 v=0
46368 On ch=1 n=c#5 v=55
46412 On ch=1 n=g#6 v=0
46460 On ch=1 n=e5 v=47
46470 On ch=1 n=c#5 v=0
46496 On ch=1 n=f#6 v=78
46514 On ch=1 n=e6 v=59
46562 On ch=1 n=e5 v=0
46600 On ch=1 n=a5 v=38
46636 On ch=1 n=f#6 v=0
46678 On ch=1 n=a5 v=0
46696 On ch=1 n=e5 v=30
46766 On ch=1 n=c#5 v=82
46786 On ch=1 n=e5 v=0
46870 On ch=1 n=e6 v=0
46896 On ch=1 n=c#5 v=0
46912 On ch=1 n=f#4 v=66
46922 On ch=1 n=e7 v=83
46934 On ch=1 n=a6 v=55
46946 Par ch=1 c=64 v=63
47022 Par ch=1 c=64 v=127
47050 On ch=1 n=c#5 v=58
47072 On ch=1 n=f#4 v=0
47150 On ch=1 n=e5 v=65
47164 On ch=1 n=c#5 v=0
47228 On ch=1 n=a6 v=0
47234 On ch=1 n=e5 v=0
47244 On ch=1 n=e7 v=0
47252 On ch=1 n=a5 v=77
47318 On ch=1 n=a5 v=0
47366 On ch=1 n=c#6 v=84
47450 On ch=1 n=e6 v=90
47474 On ch=1 n=c#6 v=0
47560 On ch=1 n=e6 v=0
47574 On ch=1 n=a6 v=76
47576 On ch=1 n=c#7 v=108
47582 On ch=1 n=g#6 v=88
47668 On ch=1 n=e6 v=63
47672 On ch=1 n=a6 v=0
47674 On ch=1 n=g#6 v=0
47778 On ch=1 n=c#7 v=0
47780 On ch=1 n=c#6 v=81
47790 On ch=1 n=e6 v=0
47836 On ch=1 n=c#6 v=0
47896 On ch=1 n=a5 v=72
47970 On ch=1 n=a5 v=0
47992 On ch=1 n=e5 v=76
48068 On ch=1 n=c#5 v=88
48086 On ch=1 n=e5 v=0
48182 On ch=1 n=f#4 v=95
48188 On ch=1 n=c#5 v=0
48290 On ch=1 n=c#5 v=79
48306 On ch=1 n=f#4 v=0
48386 On ch=1 n=e5 v=71
48414 On ch=1 n=c#5 v=0
48490 On ch=1 n=e5 v=0
48502 On ch=1 n=a5 v=60
48596 On ch=1 n=g#6 v=85
48606 On ch=1 n=a5 v=0
48608 On ch=1 n=c#6 v=68
48640 On ch=1 n=e5 v=21
48706 On ch=1 n=c#6 v=0
48710 On ch=1 n=c#5 v=70
48714 On ch=1 n=e5 v=0
48808 On ch=1 n=c#5 v=0
48838 On ch=1 n=f#4 v=74
48930 On ch=1 n=f#4 v=0
48936 On ch=1 n=c#5 v=74
48968 On ch=1 n=g#6 v=0
49042 On ch=1 n=e5 v=54
49050 On ch=1 n=c#5 v=0
49076 On ch=1 n=f#6 v=73
49110 On ch=1 n=e6 v=45
49148 On ch=1 n=e5 v=0
49190 On ch=1 n=a5 v=31
49214 On ch=1 n=f#6 v=0
49276 On ch=1 n=a5 v=0
49298 On ch=1 n=e5 v=35
49368 On ch=1 n=c#5 v=73
49370 On ch=1 n=e5 v=0
49436 On ch=1 n=e6 v=0
49536 On ch=1 n=c#5 v=0
49552 On ch=1 n=f#4 v=58
49578 On ch=1 n=e7 v=68
49580 On ch=1 n=a6 v=42
49604 Par ch=1 c=64 v=63
49622 Par ch=1 c=64 v=0
49698 Par ch=1 c=64 v=63
49714 Par ch=1 c=64 v=127
49734 On ch=1 n=c#5 v=55
49748 On ch=1 n=f#4 v=0
49894 On ch=1 n=e5 v=47
49932 On ch=1 n=c#5 v=0
50022 On ch=1 n=e5 v=0
50040 On ch=1 n=g#5 v=104
50074 On ch=1 n=a6 v=0
50090 On ch=1 n=e7 v=0
50114 On ch=1 n=g#5 v=0
50196 On ch=1 n=c#6 v=73
50298 On ch=1 n=e6 v=80
50342 On ch=1 n=c#6 v=0
50428 On ch=1 n=e6 v=0
50432 On ch=1 n=a6 v=77
50464 On ch=1 n=g#6 v=68
50468 On ch=1 n=c#7 v=93
50542 On ch=1 n=a6 v=0
50558 On ch=1 n=e6 v=60
50582 On ch=1 n=g#6 v=0
50624 On ch=1 n=c#7 v=0
50658 On ch=1 n=c#6 v=75
50666 On ch=1 n=e6 v=0
50704 On ch=1 n=c#6 v=0
50776 On ch=1 n=a5 v=65
50862 On ch=1 n=a5 v=0
50888 On ch=1 n=e5 v=54
50966 On ch=1 n=c#5 v=87
50980 On ch=1 n=e5 v=0
51128 On ch=1 n=f#4 v=63
51138 On ch=1 n=c#5 v=0
51190 On ch=1 n=c#6 v=116
51320 On ch=1 n=c#5 v=67
51334 On ch=1 n=f#4 v=0
51428 On ch=1 n=e5 v=71
51476 On ch=1 n=c#5 v=0
51530 On ch=1 n=c#6 v=0
51532 On ch=1 n=e5 v=0
51544 On ch=1 n=a5 v=55
51626 On ch=1 n=g#6 v=82
51628 On ch=1 n=c#6 v=70
51642 On ch=1 n=a5 v=0
51652 On ch=1 n=e5 v=45
51732 On ch=1 n=e5 v=0
51732 On ch=1 n=c#6 v=0
51732 On ch=1 n=c#5 v=65
51838 On ch=1 n=f#4 v=86
51848 On ch=1 n=c#5 v=0
51922 On ch=1 n=c#5 v=54
51940 On ch=1 n=f#4 v=0
52026 On ch=1 n=e5 v=48
52048 On ch=1 n=f#6 v=94
52062 On ch=1 n=e6 v=84
52070 On ch=1 n=c#5 v=0
52114 On ch=1 n=g#6 v=0
52128 On ch=1 n=e5 v=0
52138 On ch=1 n=a5 v=65
52190 On ch=1 n=f#6 v=0
52230 On ch=1 n=e5 v=67
52234 On ch=1 n=a5 v=0
52282 On ch=1 n=c#5 v=94
52324 On ch=1 n=e5 v=0
52432 On ch=1 n=e7 v=96
52434 On ch=1 n=f#4 v=70
52446 On ch=1 n=a6 v=68
52458 On ch=1 n=c#5 v=0
52468 Par ch=1 c=64 v=63
52502 Par ch=1 c=64 v=127
52560 On ch=1 n=c#5 v=65
52568 On ch=1 n=f#4 v=0
52652 On ch=1 n=e5 v=61
52678 On ch=1 n=e6 v=0
52694 On ch=1 n=c#5 v=0
52748 On ch=1 n=a5 v=84
52750 On ch=1 n=e5 v=0
52756 On ch=1 n=a6 v=0
52780 On ch=1 n=e7 v=0
52822 On ch=1 n=a5 v=0
52862 On ch=1 n=c#6 v=85
52962 On ch=1 n=e6 v=80
52968 On ch=1 n=c#6 v=0
53078 On ch=1 n=e6 v=0
53092 On ch=1 n=c#7 v=86
53098 On ch=1 n=a6 v=65
53112 On ch=1 n=g#6 v=48
53178 On ch=1 n=a6 v=0
53200 On ch=1 n=g#6 v=0
53206 On ch=1 n=e6 v=69
53222 On ch=1 n=c#7 v=0
53312 On ch=1 n=c#6 v=77
53316 On ch=1 n=e6 v=0
53372 On ch=1 n=c#6 v=0
53430 On ch=1 n=a5 v=65
53506 On ch=1 n=a5 v=0
53536 On ch=1 n=e5 v=55
53604 On ch=1 n=c#5 v=81
53614 On ch=1 n=e5 v=0
53714 On ch=1 n=c#5 v=0
53740 On ch=1 n=f#4 v=72
53842 On ch=1 n=f#4 v=0
53848 On ch=1 n=c#5 v=63
53938 On ch=1 n=e5 v=44
53970 On ch=1 n=c#5 v=0
54052 On ch=1 n=e5 v=0
54064 On ch=1 n=a5 v=55
54170 On ch=1 n=a5 v=0
54174 On ch=1 n=g#6 v=71
54178 On ch=1 n=c#6 v=63
54188 On ch=1 n=e5 v=42
54264 On ch=1 n=c#5 v=63
54266 On ch=1 n=e5 v=0
54274 On ch=1 n=c#6 v=0
54370 On ch=1 n=c#5 v=0
54378 On ch=1 n=g#6 v=0
54412 On ch=1 n=f#4 v=70
54500 On ch=1 n=f#4 v=0
54524 On ch=1 n=c#5 v=59
54636 On ch=1 n=e5 v=32
54666 On ch=1 n=c#5 v=0
54674 On ch=1 n=f#6 v=67
54690 On ch=1 n=e6 v=51
54752 On ch=1 n=e5 v=0
54782 On ch=1 n=a5 v=47
54794 On ch=1 n=e6 v=0
54836 On ch=1 n=f#6 v=0
54876 On ch=1 n=a5 v=0
54912 On ch=1 n=e5 v=22
54976 On ch=1 n=c#5 v=76
54980 On ch=1 n=e5 v=0
55118 On ch=1 n=c#5 v=0
55144 Par ch=1 c=64 v=63
55156 On ch=1 n=f#4 v=57
55168 On ch=1 n=e7 v=59
55174 On ch=1 n=a6 v=43
55178 Par ch=1 c=64 v=0
55246 Par ch=1 c=64 v=63
55266 Par ch=1 c=64 v=127
55322 On ch=1 n=f#4 v=0
55322 On ch=1 n=c#5 v=57
55460 On ch=1 n=e5 v=55
55480 On ch=1 n=c#5 v=0
55502 On ch=1 n=e7 v=0
55516 On ch=1 n=a6 v=0
55604 On ch=1 n=e5 v=0
55632 On ch=1 n=g#5 v=105
55708 On ch=1 n=g#5 v=0
55796 On ch=1 n=c#6 v=82
55904 On ch=1 n=e6 v=61
55922 On ch=1 n=c#6 v=0
56022 On ch=1 n=e6 v=0
56040 On ch=1 n=a6 v=71
56070 On ch=1 n=c#7 v=100
56074 On ch=1 n=g#6 v=83
56136 On ch=1 n=a6 v=0
56150 On ch=1 n=g#6 v=0
56160 On ch=1 n=e6 v=58
56180 On ch=1 n=c#7 v=0
56270 On ch=1 n=e6 v=0
56270 On ch=1 n=c#6 v=76
56314 On ch=1 n=c#6 v=0
56380 On ch=1 n=a5 v=63
56462 On ch=1 n=a5 v=0
56486 On ch=1 n=e5 v=58
56546 On ch=1 n=c#5 v=89
56566 On ch=1 n=e5 v=0
56690 On ch=1 n=f#4 v=90
56704 On ch=1 n=c#5 v=0
56718 On ch=1 n=c#6 v=120
56746 Par ch=1 c=64 v=63
56782 Par ch=1 c=64 v=127
56822 On ch=1 n=c#5 v=72
56858 On ch=1 n=f#4 v=0
56922 On ch=1 n=e5 v=76
57018 On ch=1 n=c#5 v=0
57034 On ch=1 n=c#6 v=0
57036 On ch=1 n=a5 v=76
57048 On ch=1 n=e5 v=0
57142 On ch=1 n=g#6 v=105
57146 On ch=1 n=c#6 v=105
57164 On ch=1 n=a5 v=0
57164 On ch=1 n=e5 v=65
57248 On ch=1 n=c#5 v=85
57272 On ch=1 n=c#6 v=0
57286 On ch=1 n=e5 v=0
57370 On ch=1 n=f#4 v=97
57386 On ch=1 n=c#5 v=0
57470 On ch=1 n=c#5 v=70
57472 On ch=1 n=f#4 v=0
57524 On ch=1 n=g#6 v=0
57564 On ch=1 n=f#6 v=112
57572 On ch=1 n=e6 v=93
57604 On ch=1 n=e5 v=56
57618 On ch=1 n=c#5 v=0
57682 On ch=1 n=f#6 v=0
57718 On ch=1 n=c#5 v=100
57738 On ch=1 n=e6 v=0
57758 On ch=1 n=e5 v=0
57790 On ch=1 n=e6 v=101
57872 Par ch=1 c=64 v=63
57958 Par ch=1 c=64 v=127
57960 On ch=1 n=f#4 v=86
58026 On ch=1 n=c#5 v=0
58036 On ch=1 n=e7 v=103
58048 On ch=1 n=a6 v=83
58186 On ch=1 n=c#5 v=66
58210 On ch=1 n=f#4 v=0
58306 On ch=1 n=e5 v=60
58336 On ch=1 n=e6 v=0
58348 On ch=1 n=c#5 v=0
58398 On ch=1 n=e5 v=0
58404 On ch=1 n=a5 v=78
58430 On ch=1 n=a6 v=0
58444 On ch=1 n=e7 v=0
58476 On ch=1 n=a5 v=0
58512 On ch=1 n=c#6 v=95
58602 On ch=1 n=e6 v=88
58618 On ch=1 n=c#6 v=0
58704 On ch=1 n=c#7 v=94
58718 On ch=1 n=e6 v=0
58718 On ch=1 n=g#6 v=63
58730 On ch=1 n=a6 v=60
58802 On ch=1 n=g#6 v=0
58808 On ch=1 n=a6 v=0
58822 On ch=1 n=c#7 v=0
58838 On ch=1 n=e6 v=66
58938 On ch=1 n=c#6 v=77
58944 On ch=1 n=e6 v=0
58998 On ch=1 n=c#6 v=0
59054 On ch=1 n=a5 v=76
59140 On ch=1 n=a5 v=0
59178 On ch=1 n=e5 v=59
59238 On ch=1 n=c#5 v=74
59246 On ch=1 n=e5 v=0
59378 On ch=1 n=c#5 v=0
59404 On ch=1 n=f#4 v=61
59404 On ch=1 n=g#5 v=100
59538 On ch=1 n=f#4 v=0
59550 On ch=1 n=c#5 v=60
59656 On ch=1 n=e5 v=50
59676 On ch=1 n=c#5 v=0
59772 On ch=1 n=e5 v=0
59776 On ch=1 n=g#5 v=0
59790 On ch=1 n=a5 v=49
59816 On ch=1 n=g#6 v=74
59828 On ch=1 n=c#6 v=65
59892 On ch=1 n=a5 v=0
59916 On ch=1 n=e5 v=28
59988 On ch=1 n=e5 v=0
59992 On ch=1 n=c#5 v=54
60072 On ch=1 n=c#5 v=0
60106 On ch=1 n=f#4 v=70
60122 On ch=1 n=c#6 v=0
60122 On ch=1 n=g#6 v=0
60198 On ch=1 n=f#4 v=0
60220 On ch=1 n=c#5 v=75
60312 On ch=1 n=e5 v=45
60330 On ch=1 n=c#5 v=0
60340 On ch=1 n=f#6 v=79
60360 On ch=1 n=e6 v=63
60416 On ch=1 n=e5 v=0
60432 On ch=1 n=a5 v=57
60436 On ch=1 n=e6 v=0
60464 On ch=1 n=f#6 v=0
60528 On ch=1 n=a5 v=0
60558 On ch=1 n=e5 v=32
60620 On ch=1 n=c#5 v=78
60640 On ch=1 n=e5 v=0
60758 On ch=1 n=c#5 v=0
60824 On ch=1 n=f#4 v=53
60830 On ch=1 n=e7 v=72
60834 On ch=1 n=a6 v=50
60910 Par ch=1 c=64 v=63
60922 Par ch=1 c=64 v=127
61042 On ch=1 n=c#5 v=69
61080 On ch=1 n=f#4 v=0
61170 On ch=1 n=e5 v=71
61192 Par ch=1 c=67 v=127
61212 On ch=1 n=c#5 v=0
61278 On ch=1 n=e5 v=0
61288 On ch=1 n=a5 v=71
61334 On ch=1 n=e7 v=0
61366 On ch=1 n=a5 v=0
61394 On ch=1 n=c#6 v=88
61416 On ch=1 n=a6 v=0
61488 On ch=1 n=e6 v=83
61494 On ch=1 n=c#6 v=0
61596 On ch=1 n=e6 v=0
61600 On ch=1 n=c#7 v=103
61612 On ch=1 n=a6 v=68
61620 On ch=1 n=g#6 v=77
61706 On ch=1 n=a6 v=0
61724 On ch=1 n=e6 v=67
61846 On ch=1 n=c#6 v=83
61852 On ch=1 n=e6 v=0
61900 On ch=1 n=c#6 v=0
61984 On ch=1 n=a5 v=22
62010 On ch=1 n=c#7 v=0
62026 On ch=1 n=g#6 v=0
62044 On ch=1 n=a5 v=0
62072 On ch=1 n=e5 v=59
62170 On ch=1 n=c#5 v=80
62178 On ch=1 n=e5 v=0
62306 On ch=1 n=c#5 v=0
62322 On ch=1 n=f#4 v=62
62328 On ch=1 n=f#5 v=86
62384 Par ch=1 c=64 v=63
62392 Par ch=1 c=64 v=127
62480 On ch=1 n=c#5 v=74
62512 On ch=1 n=f#4 v=0
62590 On ch=1 n=e5 v=56
62608 On ch=1 n=c#5 v=0
62610 On ch=1 n=f#5 v=0
62702 On ch=1 n=e5 v=0
62714 On ch=1 n=a5 v=63
62790 On ch=1 n=g#6 v=73
62812 On ch=1 n=c#6 v=67
62814 On ch=1 n=a5 v=0
62850 On ch=1 n=e5 v=23
62932 On ch=1 n=e5 v=0
62936 On ch=1 n=c#5 v=68
62972 On ch=1 n=c#6 v=0
62982 On ch=1 n=g#6 v=0
63056 On ch=1 n=c#5 v=0
63074 On ch=1 n=f#4 v=65
63194 On ch=1 n=f#4 v=0
63202 On ch=1 n=c#5 v=53
63320 On ch=1 n=e5 v=58
63322 On ch=1 n=f#6 v=69
63328 On ch=1 n=e6 v=58
63348 On ch=1 n=c#5 v=0
63440 On ch=1 n=e5 v=0
63452 On ch=1 n=e6 v=0
63464 On ch=1 n=f#6 v=0
63472 On ch=1 n=a5 v=46
63584 On ch=1 n=a5 v=0
63600 On ch=1 n=e5 v=28
63760 On ch=1 n=c#5 v=67
63764 On ch=1 n=e5 v=0
63830 On ch=1 n=c#5 v=0
64058 On ch=1 n=a3 v=76
64152 Par ch=1 c=64 v=63
64176 On ch=1 n=g#6 v=84
64186 Par ch=1 c=64 v=0
64188 On ch=1 n=c#6 v=58
64194 On ch=1 n=a5 v=36
64270 Par ch=1 c=64 v=63
64286 Par ch=1 c=64 v=127
64374 On ch=1 n=e4 v=65
64402 On ch=1 n=a3 v=0
64472 On ch=1 n=e4 v=0
64484 On ch=1 n=a4 v=66
64494 On ch=1 n=a5 v=0
64572 On ch=1 n=a4 v=0
64596 On ch=1 n=g#6 v=0
64602 On ch=1 n=c#6 v=0
64602 On ch=1 n=c#5 v=92
64708 On ch=1 n=e5 v=89
64808 On ch=1 n=a5 v=103
64892 On ch=1 n=e5 v=0
64918 On ch=1 n=f#6 v=93
64924 On ch=1 n=e6 v=84
64930 On ch=1 n=c#6 v=82
64948 On ch=1 n=a5 v=0
65028 On ch=1 n=a5 v=89
65052 On ch=1 n=c#5 v=0
65130 On ch=1 n=c#6 v=0
65138 On ch=1 n=e6 v=0
65140 On ch=1 n=e5 v=87
65146 On ch=1 n=f#6 v=0
65154 On ch=1 n=a5 v=0
65242 On ch=1 n=c#5 v=97
65274 On ch=1 n=e5 v=0
65302 On ch=1 n=c#5 v=0
65366 On ch=1 n=a4 v=66
65456 On ch=1 n=a4 v=0
65458 On ch=1 n=e4 v=92
65634 On ch=1 n=a3 v=29
65648 On ch=1 n=e4 v=0
65680 On ch=1 n=g#5 v=91
65692 On ch=1 n=c#5 v=68
65692 On ch=1 n=a4 v=52
65718 Par ch=1 c=64 v=63
65730 Par ch=1 c=64 v=0
65832 Par ch=1 c=64 v=63
65846 Par ch=1 c=64 v=127
65914 On ch=1 n=e4 v=59
65926 On ch=1 n=a4 v=0
66016 On ch=1 n=c#5 v=0
66036 On ch=1 n=g#5 v=0
66064 On ch=1 n=a4 v=63
66084 On ch=1 n=e4 v=0
66148 On ch=1 n=a4 v=0
66206 On ch=1 n=f#5 v=75
66222 On ch=1 n=c#5 v=44
66226 On ch=1 n=e5 v=49
66246 On ch=1 n=a3 v=0
66328 On ch=1 n=c#5 v=0
66330 On ch=1 n=e5 v=0
66346 On ch=1 n=f#5 v=0
66370 On ch=1 n=a4 v=37
66488 On ch=1 n=a4 v=0
66492 On ch=1 n=e4 v=77
66576 On ch=1 n=e4 v=0
66646 Par ch=1 c=64 v=63
66648 On ch=1 n=g3 v=101
66656 Par ch=1 c=64 v=0
66704 Par ch=1 c=64 v=63
66724 Par ch=1 c=64 v=127
66742 On ch=1 n=g4 v=72
66786 On ch=1 n=d4 v=86
66824 On ch=1 n=g4 v=0
66824 On ch=1 n=b4 v=68
66836 On ch=1 n=g3 v=0
66870 On ch=1 n=f#5 v=88
66884 On ch=1 n=g4 v=79
66886 On ch=1 n=b4 v=0
66886 On ch=1 n=d4 v=0
66930 On ch=1 n=f#5 v=0
66956 On ch=1 n=g4 v=0
67010 On ch=1 n=b4 v=93
67018 On ch=1 n=g5 v=57
67064 On ch=1 n=g5 v=0
67084 On ch=1 n=b5 v=94
67098 On ch=1 n=d5 v=94
67174 On ch=1 n=b4 v=0
67178 On ch=1 n=f#6 v=109
67212 On ch=1 n=g5 v=85
67216 On ch=1 n=d5 v=0
67264 On ch=1 n=b5 v=0
67318 On ch=1 n=d5 v=80
67328 On ch=1 n=g5 v=0
67390 On ch=1 n=f#6 v=0
67426 On ch=1 n=b4 v=61
67428 On ch=1 n=d5 v=0
67464 On ch=1 n=b4 v=0
67528 On ch=1 n=g4 v=68
67608 On ch=1 n=d4 v=86
67632 On ch=1 n=g4 v=0
67736 On ch=1 n=g3 v=69
67740 On ch=1 n=d4 v=0
67744 On ch=1 n=d6 v=80
67746 On ch=1 n=c#6 v=76
67872 On ch=1 n=d4 v=61
67886 On ch=1 n=g3 v=0
67968 On ch=1 n=d4 v=0
68004 On ch=1 n=g4 v=24
68048 On ch=1 n=d6 v=0
68088 On ch=1 n=c#6 v=0
68152 On ch=1 n=b4 v=67
68210 On ch=1 n=g4 v=0
68258 On ch=1 n=b4 v=0
68418 On ch=1 n=a3 v=81
68526 On ch=1 n=g#6 v=98
68534 Par ch=1 c=64 v=63
68538 On ch=1 n=c#6 v=72
68544 Par ch=1 c=64 v=0
68546 On ch=1 n=a5 v=46
68690 Par ch=1 c=64 v=63
68696 Par ch=1 c=64 v=127
68744 On ch=1 n=e4 v=68
68766 On ch=1 n=a3 v=0
68830 On ch=1 n=e4 v=0
68842 On ch=1 n=a4 v=70
68872 On ch=1 n=a5 v=0
68872 On ch=1 n=g#6 v=0
68924 On ch=1 n=a4 v=0
68940 On ch=1 n=c#6 v=0
68948 On ch=1 n=c#5 v=100
69052 On ch=1 n=e5 v=96
69138 On ch=1 n=a5 v=104
69220 On ch=1 n=e5 v=0
69262 On ch=1 n=e6 v=94
69262 On ch=1 n=f#6 v=109
69272 On ch=1 n=c#5 v=0
69272 On ch=1 n=c#6 v=103
69274 On ch=1 n=a5 v=0
69386 On ch=1 n=a5 v=80
69464 On ch=1 n=c#6 v=0
69470 On ch=1 n=f#6 v=0
69472 On ch=1 n=e6 v=0
69482 On ch=1 n=a5 v=0
69492 On ch=1 n=e5 v=84
69572 On ch=1 n=c#5 v=94
69594 On ch=1 n=e5 v=0
69620 On ch=1 n=c#5 v=0
69682 On ch=1 n=a4 v=71
69762 On ch=1 n=e4 v=100
69770 On ch=1 n=a4 v=0
69868 On ch=1 n=a3 v=101
69914 On ch=1 n=e4 v=0
69926 On ch=1 n=g#5 v=106
69930 On ch=1 n=c#5 v=97
69934 On ch=1 n=a4 v=84
69936 Par ch=1 c=64 v=63
69944 Par ch=1 c=64 v=0
70050 Par ch=1 c=64 v=63
70064 Par ch=1 c=64 v=127
70086 On ch=1 n=e4 v=76
70102 On ch=1 n=a4 v=0
70210 On ch=1 n=c#5 v=0
70214 On ch=1 n=g#5 v=0
70214 On ch=1 n=a4 v=80
70236 On ch=1 n=e4 v=0
70344 On ch=1 n=f#5 v=91
70354 On ch=1 n=a4 v=0
70356 On ch=1 n=e5 v=68
70360 On ch=1 n=c#5 v=61
70430 On ch=1 n=c#5 v=0
70448 On ch=1 n=a4 v=41
70450 On ch=1 n=e5 v=0
70456 On ch=1 n=a3 v=0
70472 On ch=1 n=f#5 v=0
70572 On ch=1 n=a4 v=0
70582 On ch=1 n=e4 v=75
70666 On ch=1 n=e4 v=0
70792 On ch=1 n=g3 v=93
70798 Par ch=1 c=64 v=63
70806 Par ch=1 c=64 v=0
70872 Par ch=1 c=64 v=63
70876 On ch=1 n=g4 v=62
70890 Par ch=1 c=64 v=127
70934 On ch=1 n=d4 v=84
70944 On ch=1 n=b4 v=65
70948 On ch=1 n=g4 v=0
70978 On ch=1 n=g3 v=0
70982 On ch=1 n=f#5 v=88
70992 On ch=1 n=b4 v=0
71022 On ch=1 n=g4 v=81
71024 On ch=1 n=d4 v=0
71040 On ch=1 n=f#5 v=0
71094 On ch=1 n=g4 v=0
71140 On ch=1 n=g5 v=59
71168 On ch=1 n=b4 v=60
71232 On ch=1 n=g5 v=0
71242 On ch=1 n=b5 v=85
71286 On ch=1 n=d5 v=76
71348 On ch=1 n=f#6 v=103
71398 On ch=1 n=d5 v=0
71400 On ch=1 n=g5 v=72
71508 On ch=1 n=b4 v=0
71530 On ch=1 n=g5 v=0
71534 On ch=1 n=d5 v=74
71550 On ch=1 n=b5 v=0
71674 On ch=1 n=d5 v=0
71676 On ch=1 n=b4 v=60
71720 On ch=1 n=b4 v=0
71808 On ch=1 n=a4 v=26
71812 On ch=1 n=g4 v=27
71850 On ch=1 n=a4 v=0
71904 On ch=1 n=d4 v=84
71924 On ch=1 n=g4 v=0
71950 On ch=1 n=f#6 v=0
72038 On ch=1 n=g3 v=80
72078 On ch=1 n=d4 v=0
72106 On ch=1 n=c#6 v=76
72112 On ch=1 n=d6 v=76
72162 Par ch=1 c=64 v=63
72224 On ch=1 n=d4 v=63
72244 Par ch=1 c=64 v=127
72276 On ch=1 n=g3 v=0
72348 On ch=1 n=d4 v=0
72354 On ch=1 n=g4 v=48
72362 On ch=1 n=d6 v=0
72390 On ch=1 n=c#6 v=0
72492 On ch=1 n=b4 v=73
72534 On ch=1 n=g4 v=0
72552 On ch=1 n=b4 v=0
72686 On ch=1 n=g3 v=77
72868 On ch=1 n=d4 v=72
72976 On ch=1 n=g4 v=81
73096 On ch=1 n=b4 v=93
73206 On ch=1 n=d5 v=104
73224 On ch=1 n=g4 v=0
73238 On ch=1 n=b4 v=0
73272 On ch=1 n=d4 v=0
73296 On ch=1 n=b4 v=76
73420 On ch=1 n=g4 v=70
73518 On ch=1 n=g3 v=0
73538 On ch=1 n=d4 v=85
73610 On ch=1 n=g4 v=0
73644 On ch=1 n=g3 v=98
73664 On ch=1 n=b4 v=0
73680 On ch=1 n=d4 v=0
73744 On ch=1 n=d5 v=0
73780 On ch=1 n=d4 v=93
73880 On ch=1 n=g4 v=80
73982 On ch=1 n=b4 v=81
74066 On ch=1 n=g3 v=0
74112 On ch=1 n=g4 v=0
74138 On ch=1 n=g3 v=85
74146 On ch=1 n=d4 v=0
74270 On ch=1 n=f#5 v=115
74322 Par ch=1 c=64 v=63
74340 Par ch=1 c=64 v=0
74438 Par ch=1 c=64 v=63
74450 Par ch=1 c=64 v=127
74544 On ch=1 n=d4 v=55
74590 On ch=1 n=b4 v=0
74610 On ch=1 n=g3 v=0
74672 On ch=1 n=d4 v=0
74676 On ch=1 n=g4 v=57
74718 On ch=1 n=f#5 v=0
74812 On ch=1 n=b4 v=69
74816 On ch=1 n=g4 v=0
74862 On ch=1 n=b4 v=0
74998 On ch=1 n=d5 v=61
75182 On ch=1 n=g5 v=24
75194 On ch=1 n=d5 v=0
75254 On ch=1 n=g5 v=0
75400 On ch=1 n=d5 v=85
75402 On ch=1 n=c#5 v=84
75566 On ch=1 n=c#5 v=0
75658 On ch=1 n=b4 v=42
75798 On ch=1 n=b4 v=0
75806 On ch=1 n=g4 v=52
75964 On ch=1 n=g4 v=0
75964 On ch=1 n=d4 v=65
75984 On ch=1 n=d5 v=0
76050 On ch=1 n=d4 v=0
76162 On ch=1 n=g3 v=59
76390 On ch=1 n=d4 v=48
76534 On ch=1 n=g4 v=49
76600 On ch=1 n=d4 v=0
76660 On ch=1 n=g4 v=0
76662 On ch=1 n=b4 v=52
76684 On ch=1 n=g3 v=0
76772 On ch=1 n=g4 v=52
76802 On ch=1 n=b4 v=0
76896 On ch=1 n=d4 v=42
76936 On ch=1 n=g4 v=0
76972 On ch=1 n=g3 v=59
77004 On ch=1 n=d4 v=0
77104 On ch=1 n=d3 v=94
77140 On ch=1 n=g3 v=0
77268 On ch=1 n=g3 v=81
77396 On ch=1 n=d4 v=78
77440 On ch=1 n=g3 v=0
77494 On ch=1 n=g4 v=76
77518 On ch=1 n=d4 v=0
77600 On ch=1 n=d4 v=60
77686 On ch=1 n=d3 v=0
77696 On ch=1 n=g3 v=71
77726 On ch=1 n=d4 v=0
77798 On ch=1 n=d3 v=80
77822 On ch=1 n=g3 v=0
77898 On ch=1 n=d3 v=0
77898 On ch=1 n=g3 v=57
78008 On ch=1 n=d3 v=88
78022 On ch=1 n=g3 v=0
78180 On ch=1 n=g4 v=0
78184 On ch=1 n=g2 v=92
78226 On ch=1 n=d3 v=0
78296 Par ch=1 c=64 v=63
78306 Par ch=1 c=64 v=0
78424 Par ch=1 c=64 v=63
78428 Par ch=1 c=64 v=127
78466 On ch=1 n=d3 v=68
78638 On ch=1 n=g3 v=54
78728 On ch=1 n=g2 v=0
78756 On ch=1 n=d4 v=58
78762 On ch=1 n=d3 v=0
78816 On ch=1 n=g3 v=0
78852 On ch=1 n=d4 v=0
79040 On ch=1 n=f#4 v=112
79056 On ch=1 n=b3 v=65
79282 Par ch=1 c=64 v=63
79312 Par ch=1 c=64 v=127
79374 On ch=1 n=d3 v=57
79418 On ch=1 n=b3 v=0
79522 On ch=1 n=f#4 v=0
79574 On ch=1 n=g3 v=44
79708 On ch=1 n=d4 v=61
79854 On ch=1 n=g4 v=51
79958 On ch=1 n=d4 v=0
79990 On ch=1 n=b4 v=44
80002 On ch=1 n=g4 v=0
80038 On ch=1 n=g3 v=0
80116 On ch=1 n=g4 v=29
80242 On ch=1 n=d4 v=26
80292 On ch=1 n=b4 v=0
80332 On ch=1 n=d3 v=0
80362 On ch=1 n=g4 v=0
80378 On ch=1 n=g3 v=46
80388 On ch=1 n=d4 v=0
80528 On ch=1 n=d3 v=60
80626 On ch=1 n=g3 v=0
80670 On ch=1 n=d4 v=63
80680 On ch=1 n=c#4 v=61
80682 On ch=1 n=d3 v=0
80784 On ch=1 n=c#4 v=0
80882 On ch=1 n=d3 v=44
81054 On ch=1 n=g3 v=28
81056 On ch=1 n=d4 v=0
81190 On ch=1 n=d4 v=54
81272 On ch=1 n=g3 v=0
81282 On ch=1 n=d4 v=0
81322 On ch=1 n=g4 v=53
81412 On ch=1 n=d3 v=0
81454 On ch=1 n=d4 v=58
81480 On ch=1 n=g4 v=0
81556 On ch=1 n=d4 v=0
81628 On ch=1 n=g3 v=67
81714 On ch=1 n=g3 v=0
81772 On ch=1 n=d3 v=63
81950 On ch=1 n=g2 v=72
81994 On ch=1 n=d3 v=0
82174 On ch=1 n=d3 v=43
82324 On ch=1 n=d3 v=0
82330 On ch=1 n=g3 v=41
82410 On ch=1 n=g2 v=0
82466 On ch=1 n=d3 v=57
82468 On ch=1 n=g3 v=0
82612 On ch=1 n=d3 v=0
82614 On ch=1 n=g2 v=54
82762 On ch=1 n=d3 v=55
82828 On ch=1 n=g3 v=49
82980 On ch=1 n=b3 v=65
82992 On ch=1 n=g2 v=0
83100 On ch=1 n=d3 v=0
83116 On ch=1 n=d4 v=79
83174 On ch=1 n=b3 v=0
83238 On ch=1 n=g3 v=0
83240 On ch=1 n=b3 v=75
83344 On ch=1 n=g3 v=60
83484 On ch=1 n=d3 v=71
83600 On ch=1 n=g2 v=73
83610 On ch=1 n=g3 v=0
83652 On ch=1 n=d3 v=0
83656 On ch=1 n=b3 v=0
83738 On ch=1 n=d3 v=59
83840 On ch=1 n=d4 v=0
83872 On ch=1 n=g3 v=45
83922 On ch=1 n=d3 v=0
83988 On ch=1 n=g2 v=0
84032 On ch=1 n=d3 v=44
84156 On ch=1 n=g3 v=0
84186 On ch=1 n=g2 v=57
84200 On ch=1 n=d3 v=0
84346 On ch=1 n=d3 v=52
84438 On ch=1 n=g3 v=48
84564 On ch=1 n=d3 v=0
84580 On ch=1 n=b3 v=55
84584 On ch=1 n=g2 v=0
84628 On ch=1 n=g3 v=0
84772 On ch=1 n=g3 v=35
84942 On ch=1 n=d3 v=40
85122 On ch=1 n=g2 v=43
85128 On ch=1 n=d3 v=0
85190 On ch=1 n=g3 v=0
85298 On ch=1 n=d3 v=50
85456 On ch=1 n=d3 v=0
85470 On ch=1 n=g3 v=27
85530 On ch=1 n=g2 v=0
85702 On ch=1 n=d3 v=28
85896 On ch=1 n=d3 v=0
85916 On ch=1 n=g2 v=34
86134 On ch=1 n=g2 v=0
86148 On ch=1 n=d3 v=30
86396 On ch=1 n=g2 v=38
86556 On ch=1 n=d3 v=0
86816 On ch=1 n=d2 v=44
86852 On ch=1 n=g2 v=0
86980 On ch=1 n=d2 v=0
87284 Par ch=1 c=67 v=0
87498 On ch=1 n=g3 v=0
87516 On ch=1 n=a1 v=88
87532 On ch=1 n=b3 v=0
87540 On ch=1 n=a#1 v=91
87928 Par ch=1 c=64 v=63
87952 Par ch=1 c=64 v=0
88058 Par ch=1 c=64 v=63
88064 Par ch=1 c=64 v=127
88066 On ch=1 n=a1 v=0
88154 On ch=1 n=a#2 v=113
88296 On ch=1 n=a#1 v=0
88334 On ch=1 n=a#2 v=0
88636 On ch=1 n=a#3 v=116
88724 On ch=1 n=a#3 v=0
89264 On ch=1 n=a#7 v=108
89268 On ch=1 n=a#4 v=97
89286 On ch=1 n=g#4 v=79
89288 On ch=1 n=d4 v=52
89498 On ch=1 n=f7 v=51
89640 On ch=1 n=d7 v=52
89716 On ch=1 n=a#6 v=60
89750 On ch=1 n=a#7 v=0
89826 On ch=1 n=f7 v=0
89830 On ch=1 n=d7 v=0
89838 On ch=1 n=a#7 v=79
89844 On ch=1 n=a#6 v=0
89888 On ch=1 n=d4 v=0
89908 On ch=1 n=g#4 v=0
89932 On ch=1 n=a#4 v=0
89952 On ch=1 n=f7 v=45
90032 On ch=1 n=d7 v=52
90054 On ch=1 n=a#7 v=0
90114 On ch=1 n=f7 v=0
90128 On ch=1 n=a#6 v=76
90140 On ch=1 n=d#4 v=93
90168 On ch=1 n=d7 v=0
90284 Par ch=1 c=64 v=63
90296 Par ch=1 c=64 v=0
90296 On ch=1 n=f#4 v=67
90320 On ch=1 n=a#6 v=0
90330 On ch=1 n=g#7 v=115
90334 On ch=1 n=c5 v=86
90356 Par ch=1 c=64 v=63
90368 Par ch=1 c=64 v=127
90494 On ch=1 n=c5 v=0
90498 On ch=1 n=d#7 v=84
90538 On ch=1 n=f#4 v=0
90560 On ch=1 n=d#4 v=0
90650 On ch=1 n=c7 v=61
90654 On ch=1 n=g#7 v=0
90694 On ch=1 n=d#7 v=0
90714 On ch=1 n=g#6 v=83
90734 On ch=1 n=c7 v=0
90778 On ch=1 n=g#6 v=0
90862 On ch=1 n=a#2 v=78
90916 On ch=1 n=g#6 v=65
91032 On ch=1 n=d#6 v=70
91112 On ch=1 n=c6 v=62
91146 On ch=1 n=g#6 v=0
91164 On ch=1 n=d#6 v=0
91228 On ch=1 n=g#5 v=28
91266 On ch=1 n=c6 v=0
91286 On ch=1 n=a#1 v=101
91292 On ch=1 n=a#2 v=0
91378 On ch=1 n=c6 v=74
91398 On ch=1 n=g#5 v=0
91468 On ch=1 n=d#6 v=88
91504 On ch=1 n=c6 v=0
91522 On ch=1 n=g#6 v=84
91562 On ch=1 n=d#6 v=0
91590 On ch=1 n=g#6 v=0
91640 On ch=1 n=g#6 v=100
91688 On ch=1 n=a#2 v=109
91732 On ch=1 n=c7 v=90
91734 On ch=1 n=g#6 v=0
91736 On ch=1 n=a#1 v=0
91798 On ch=1 n=a#2 v=0
91810 On ch=1 n=d#7 v=104
91842 On ch=1 n=c7 v=0
91908 On ch=1 n=g#7 v=109
91950 On ch=1 n=d#7 v=0
92018 On ch=1 n=d#7 v=88
92112 On ch=1 n=c7 v=69
92122 On ch=1 n=g#7 v=0
92208 On ch=1 n=d#7 v=0
92212 On ch=1 n=g#6 v=94
92264 On ch=1 n=c7 v=0
92328 On ch=1 n=e4 v=69
92378 On ch=1 n=f#4 v=66
92424 On ch=1 n=c#5 v=105
92440 On ch=1 n=a#4 v=88
92446 Par ch=1 c=64 v=63
92456 Par ch=1 c=64 v=0
92460 On ch=1 n=f#7 v=108
92532 On ch=1 n=g#6 v=0
92544 Par ch=1 c=64 v=63
92552 Par ch=1 c=64 v=127
92640 On ch=1 n=c#7 v=77
92744 On ch=1 n=a#6 v=76
92802 On ch=1 n=f#7 v=0
92838 On ch=1 n=f#6 v=79
92842 On ch=1 n=c#7 v=0
92898 On ch=1 n=a#6 v=0
92922 On ch=1 n=e4 v=0
92924 On ch=1 n=f#7 v=109
92934 On ch=1 n=f#4 v=0
92956 On ch=1 n=f#6 v=0
92958 On ch=1 n=a#4 v=0
92958 On ch=1 n=c#5 v=0
92996 On ch=1 n=c#7 v=89
93080 On ch=1 n=f#7 v=0
93092 On ch=1 n=a#6 v=90
93094 On ch=1 n=e4 v=84
93132 On ch=1 n=g4 v=68
93156 On ch=1 n=f#6 v=91
93158 On ch=1 n=c#7 v=0
93168 On ch=1 n=a#4 v=65
93238 On ch=1 n=a#6 v=0
93242 Par ch=1 c=64 v=63
93244 On ch=1 n=f#6 v=0
93262 Par ch=1 c=64 v=0
93270 On ch=1 n=d5 v=107
93274 Par ch=1 c=64 v=63
93304 Par ch=1 c=64 v=127
93316 On ch=1 n=e7 v=101
93360 On ch=1 n=d5 v=0
93396 On ch=1 n=a#4 v=0
93410 On ch=1 n=g4 v=0
93436 On ch=1 n=e4 v=0
93440 On ch=1 n=a#6 v=97
93488 On ch=1 n=e7 v=0
93542 On ch=1 n=g6 v=74
93602 On ch=1 n=a#6 v=0
93632 On ch=1 n=e6 v=84
93646 On ch=1 n=g6 v=0
93696 On ch=1 n=e6 v=0
93748 On ch=1 n=a#2 v=78
93796 On ch=1 n=e6 v=68
93904 On ch=1 n=a#5 v=87
93918 On ch=1 n=e6 v=0
93998 On ch=1 n=g5 v=60
94032 On ch=1 n=a#5 v=0
94076 On ch=1 n=e5 v=71
94080 On ch=1 n=g5 v=0
94172 On ch=1 n=g5 v=85
94184 On ch=1 n=a#1 v=96
94196 On ch=1 n=e5 v=0
94230 On ch=1 n=a#2 v=0
94252 On ch=1 n=a#5 v=99
94292 On ch=1 n=g5 v=0
94320 On ch=1 n=e6 v=99
94338 On ch=1 n=a#5 v=0
94378 On ch=1 n=e6 v=0
94424 On ch=1 n=e6 v=91
94506 On ch=1 n=g6 v=94
94508 On ch=1 n=e6 v=0
94588 On ch=1 n=a#6 v=106
94620 On ch=1 n=g6 v=0
94672 On ch=1 n=a#6 v=0
94682 On ch=1 n=a#2 v=103
94692 On ch=1 n=e7 v=112
94722 On ch=1 n=a#1 v=0
94768 On ch=1 n=a#2 v=0
94822 On ch=1 n=a#6 v=100
94864 On ch=1 n=e7 v=0
94914 On ch=1 n=g6 v=85
95008 On ch=1 n=e6 v=87
95012 On ch=1 n=a#6 v=0
95058 On ch=1 n=g6 v=0
95170 On ch=1 n=e6 v=0
95170 On ch=1 n=d7 v=120
95176 On ch=1 n=e5 v=111
95180 On ch=1 n=a#4 v=100
95184 On ch=1 n=e4 v=99
95186 On ch=1 n=g4 v=88
95264 Par ch=1 c=64 v=127
95378 Par ch=1 c=64 v=63
95396 On ch=1 n=a#6 v=75
95404 Par ch=1 c=64 v=127
95512 On ch=1 n=g6 v=62
95554 On ch=1 n=d7 v=0
95596 On ch=1 n=d6 v=77
95648 On ch=1 n=a#6 v=0
95672 On ch=1 n=g6 v=0
95694 On ch=1 n=d7 v=113
95696 On ch=1 n=d6 v=0
95706 On ch=1 n=e4 v=0
95730 On ch=1 n=g4 v=0
95756 On ch=1 n=a#4 v=0
95778 On ch=1 n=e5 v=0
95812 On ch=1 n=a#6 v=92
95870 On ch=1 n=d7 v=0
95932 On ch=1 n=g6 v=82
95934 On ch=1 n=f4 v=75
95958 On ch=1 n=g#4 v=88
95966 On ch=1 n=a#6 v=0
96002 On ch=1 n=d6 v=56
96044 Par ch=1 c=64 v=63
96050 Par ch=1 c=64 v=0
96056 On ch=1 n=c5 v=34
96068 On ch=1 n=g6 v=0
96106 On ch=1 n=d6 v=0
96108 Par ch=1 c=64 v=63
96114 On ch=1 n=f5 v=111
96116 On ch=1 n=c7 v=113
96120 Par ch=1 c=64 v=127
96180 On ch=1 n=f5 v=0
96194 On ch=1 n=c5 v=0
96232 On ch=1 n=g#4 v=0
96240 On ch=1 n=f4 v=0
96288 On ch=1 n=g#6 v=89
96326 On ch=1 n=c7 v=0
96406 On ch=1 n=f6 v=84
96438 On ch=1 n=g#6 v=0
96482 On ch=1 n=f6 v=0
96496 On ch=1 n=c6 v=76
96534 On ch=1 n=a#3 v=83
96554 On ch=1 n=c6 v=0
96608 On ch=1 n=a#3 v=0
96620 On ch=1 n=g#5 v=99
96686 On ch=1 n=g#5 v=0
96720 On ch=1 n=f5 v=76
96798 On ch=1 n=f5 v=0
96808 On ch=1 n=g#5 v=101
96858 On ch=1 n=a#2 v=100
96886 On ch=1 n=g#5 v=0
96896 On ch=1 n=c6 v=87
96906 On ch=1 n=a#2 v=0
96930 On ch=1 n=c6 v=0
97004 On ch=1 n=f6 v=89
97070 On ch=1 n=f6 v=0
97102 On ch=1 n=g#6 v=97
97202 On ch=1 n=g#6 v=0
97216 On ch=1 n=b6 v=106
97220 Par ch=1 c=64 v=63
97228 On ch=1 n=g#5 v=108
97230 Par ch=1 c=64 v=0
97232 On ch=1 n=b4 v=85
97234 On ch=1 n=g#4 v=89
97236 On ch=1 n=d#5 v=98
97276 Par ch=1 c=64 v=63
97296 Par ch=1 c=64 v=127
97366 On ch=1 n=g#6 v=90
97398 On ch=1 n=b6 v=0
97430 On ch=1 n=b4 v=0
97432 On ch=1 n=g#5 v=0
97434 On ch=1 n=g#4 v=0
97438 On ch=1 n=d#5 v=0
97486 On ch=1 n=d#6 v=97
97532 On ch=1 n=g#6 v=0
97572 On ch=1 n=b5 v=80
97614 On ch=1 n=d#6 v=0
97648 On ch=1 n=g#5 v=95
97668 On ch=1 n=b5 v=0
97752 On ch=1 n=d#5 v=97
97770 On ch=1 n=g#5 v=0
97840 On ch=1 n=b5 v=89
97852 On ch=1 n=d#5 v=0
97928 On ch=1 n=d#6 v=103
97930 On ch=1 n=b5 v=0
98002 On ch=1 n=g#6 v=100
98024 On ch=1 n=d#6 v=0
98084 On ch=1 n=b4 v=73
98100 On ch=1 n=d5 v=86
98116 Par ch=1 c=64 v=63
98116 On ch=1 n=f5 v=81
98124 Par ch=1 c=64 v=0
98134 On ch=1 n=a#6 v=106
98144 On ch=1 n=b5 v=101
98168 Par ch=1 c=64 v=63
98188 Par ch=1 c=64 v=127
98218 On ch=1 n=g#6 v=0
98266 On ch=1 n=f6 v=91
98368 On ch=1 n=d5 v=0
98372 On ch=1 n=b5 v=0
98372 On ch=1 n=d6 v=86
98374 On ch=1 n=a#6 v=0
98398 On ch=1 n=f5 v=0
98430 On ch=1 n=b4 v=0
98432 On ch=1 n=f6 v=0
98472 On ch=1 n=a#5 v=100
98478 On ch=1 n=d6 v=0
98520 On ch=1 n=a#5 v=0
98616 On ch=1 n=a#5 v=94
98740 On ch=1 n=f5 v=36
98816 On ch=1 n=a#5 v=0
98850 On ch=1 n=d5 v=76
98908 On ch=1 n=f5 v=0
98964 On ch=1 n=a#4 v=92
98982 On ch=1 n=d5 v=0
99046 On ch=1 n=a#4 v=0
99104 Par ch=1 c=64 v=63
99114 Par ch=1 c=64 v=0
99142 On ch=1 n=c5 v=76
99146 On ch=1 n=g#5 v=113
99150 On ch=1 n=c6 v=112
99156 On ch=1 n=f#5 v=100
99158 On ch=1 n=d#5 v=92
99174 Par ch=1 c=64 v=63
99186 Par ch=1 c=64 v=127
99302 On ch=1 n=f#5 v=0
99304 On ch=1 n=c6 v=0
99316 On ch=1 n=d#5 v=0
99364 On ch=1 n=c5 v=0
99372 On ch=1 n=d#5 v=71
99478 On ch=1 n=g#5 v=0
99506 On ch=1 n=c5 v=70
99554 On ch=1 n=d#5 v=0
99592 On ch=1 n=g#4 v=90
99596 On ch=1 n=c5 v=0
99642 On ch=1 n=g#4 v=0
99734 On ch=1 n=a#2 v=97
99762 On ch=1 n=g#4 v=81
99888 On ch=1 n=d#4 v=89
99924 On ch=1 n=g#4 v=0
99992 On ch=1 n=c4 v=47
100040 On ch=1 n=d#4 v=0
100058 On ch=1 n=g#3 v=101
100102 On ch=1 n=c4 v=0
100168 On ch=1 n=a#2 v=0
100172 On ch=1 n=a#1 v=113
100218 On ch=1 n=c4 v=39
100262 On ch=1 n=c4 v=0
100308 On ch=1 n=g#3 v=0
100310 On ch=1 n=c4 v=77
100376 On ch=1 n=d#4 v=96
100418 On ch=1 n=c4 v=0
100482 On ch=1 n=g#4 v=100
100518 On ch=1 n=d#4 v=0
100552 On ch=1 n=g#4 v=0
100598 On ch=1 n=g#4 v=106
100606 On ch=1 n=a#2 v=115
100654 On ch=1 n=a#1 v=0
100686 On ch=1 n=a#2 v=0
100702 On ch=1 n=c5 v=92
100706 On ch=1 n=g#4 v=0
100818 On ch=1 n=d#5 v=107
100842 On ch=1 n=c5 v=0
100912 On ch=1 n=g#5 v=109
100940 On ch=1 n=d#5 v=0
100972 On ch=1 n=g#5 v=0
101166 Par ch=1 c=64 v=63
101170 On ch=1 n=f#5 v=109
101176 Par ch=1 c=64 v=0
101180 On ch=1 n=c#6 v=121
101182 On ch=1 n=a#5 v=116
101184 On ch=1 n=e5 v=114
101244 Par ch=1 c=64 v=63
101256 Par ch=1 c=64 v=127
101340 On ch=1 n=c#5 v=90
101364 On ch=1 n=f#5 v=0
101454 On ch=1 n=a#4 v=79
101474 On ch=1 n=c#5 v=0
101524 On ch=1 n=f#4 v=97
101554 On ch=1 n=a#4 v=0
101608 On ch=1 n=f#4 v=0
101616 On ch=1 n=c#5 v=106
101718 On ch=1 n=a#4 v=90
101722 On ch=1 n=c#5 v=0
101794 On ch=1 n=a#5 v=0
101806 On ch=1 n=e5 v=0
101824 On ch=1 n=c#6 v=0
101828 On ch=1 n=f#4 v=80
101842 On ch=1 n=a#4 v=0
101922 On ch=1 n=c#4 v=93
101958 On ch=1 n=f#4 v=0
101978 On ch=1 n=c#4 v=0
102106 On ch=1 n=d6 v=120
102110 On ch=1 n=a#5 v=112
102114 On ch=1 n=g5 v=102
102116 On ch=1 n=d5 v=109
102116 On ch=1 n=e5 v=101
102240 Par ch=1 c=64 v=127
102356 On ch=1 n=a#4 v=91
102448 On ch=1 n=d6 v=0
102466 On ch=1 n=e5 v=0
102468 On ch=1 n=a#5 v=0
102472 On ch=1 n=g5 v=0
102476 On ch=1 n=d5 v=0
102490 On ch=1 n=a#4 v=0
102508 On ch=1 n=g4 v=89
102612 On ch=1 n=e4 v=103
102644 On ch=1 n=g4 v=0
102654 On ch=1 n=e4 v=0
102724 On ch=1 n=d4 v=86
102806 On ch=1 n=a#3 v=85
102870 On ch=1 n=g3 v=96
102902 On ch=1 n=d4 v=0
102932 On ch=1 n=a#3 v=0
102954 On ch=1 n=e3 v=103
103006 On ch=1 n=g3 v=0
103070 On ch=1 n=a#1 v=120
103076 On ch=1 n=e3 v=0
103174 On ch=1 n=g3 v=103
103262 On ch=1 n=a#3 v=99
103312 On ch=1 n=g3 v=0
103338 On ch=1 n=d4 v=101
103376 On ch=1 n=a#3 v=0
103402 On ch=1 n=d4 v=0
103452 On ch=1 n=a#2 v=125
103488 On ch=1 n=g4 v=75
103506 On ch=1 n=a#1 v=0
103544 On ch=1 n=a#2 v=0
103576 On ch=1 n=g4 v=0
103588 On ch=1 n=a#4 v=100
103672 On ch=1 n=a#4 v=0
103688 On ch=1 n=d5 v=93
103774 On ch=1 n=g5 v=101
103792 On ch=1 n=d5 v=0
103838 On ch=1 n=g5 v=0
104056 On ch=1 n=d5 v=113
104064 Par ch=1 c=64 v=63
104068 On ch=1 n=e6 v=124
104076 Par ch=1 c=64 v=0
104078 On ch=1 n=g5 v=111
104078 On ch=1 n=a#5 v=116
104176 Par ch=1 c=64 v=63
104180 Par ch=1 c=64 v=127
104310 On ch=1 n=e6 v=0
104318 On ch=1 n=a#4 v=91
104324 On ch=1 n=g5 v=0
104344 On ch=1 n=a#5 v=0
104386 On ch=1 n=d5 v=0
104430 On ch=1 n=g4 v=76
104432 On ch=1 n=a#4 v=0
104488 On ch=1 n=d4 v=104
104530 On ch=1 n=g4 v=0
104558 On ch=1 n=d4 v=0
104600 On ch=1 n=g4 v=97
104684 On ch=1 n=a#4 v=100
104724 On ch=1 n=g4 v=0
104780 On ch=1 n=d5 v=96
104796 On ch=1 n=a#4 v=0
104856 On ch=1 n=g5 v=93
104876 On ch=1 n=d5 v=0
104892 On ch=1 n=g5 v=0
104992 Par ch=1 c=64 v=63
105000 Par ch=1 c=64 v=0
105018 On ch=1 n=g#5 v=35
105044 On ch=1 n=c5 v=118
105050 On ch=1 n=g#5 v=0
105074 Par ch=1 c=64 v=63
105080 Par ch=1 c=64 v=127
105116 On ch=1 n=a5 v=96
105120 On ch=1 n=d#6 v=98
105122 On ch=1 n=f6 v=102
105130 On ch=1 n=f5 v=90
105188 On ch=1 n=a5 v=0
105190 On ch=1 n=f5 v=0
105250 On ch=1 n=f6 v=0
105290 On ch=1 n=d#6 v=0
105292 On ch=1 n=a4 v=90
105308 On ch=1 n=c5 v=0
105422 On ch=1 n=d#4 v=83
105454 On ch=1 n=a4 v=0
105468 On ch=1 n=c4 v=96
105506 On ch=1 n=d#4 v=0
105524 On ch=1 n=c4 v=0
105616 On ch=1 n=a#2 v=118
105630 On ch=1 n=g#2 v=104
105636 On ch=1 n=a4 v=90
105680 On ch=1 n=a#2 v=0
105686 On ch=1 n=g#2 v=0
105728 On ch=1 n=a4 v=0
105752 On ch=1 n=d#5 v=94
105838 On ch=1 n=d#5 v=0
105848 On ch=1 n=f5 v=82
105860 On ch=1 n=a#1 v=119
105914 On ch=1 n=a#1 v=0
105944 On ch=1 n=a5 v=106
105974 On ch=1 n=f5 v=0
106008 On ch=1 n=a5 v=0
106158 Par ch=1 c=64 v=63
106168 Par ch=1 c=64 v=0
106214 On ch=1 n=b3 v=92
106218 On ch=1 n=f#4 v=100
106222 On ch=1 n=a4 v=80
106222 On ch=1 n=b4 v=99
106234 On ch=1 n=g#6 v=118
106242 On ch=1 n=g#5 v=112
106244 On ch=1 n=c#6 v=112
106256 Par ch=1 c=64 v=63
106262 Par ch=1 c=64 v=127
106364 On ch=1 n=g#6 v=0
106378 On ch=1 n=c#6 v=0
106394 On ch=1 n=g#5 v=0
106466 On ch=1 n=b4 v=0
106476 On ch=1 n=a4 v=0
106550 On ch=1 n=b3 v=0
106564 On ch=1 n=f#4 v=0
106578 On ch=1 n=a5 v=84
106690 On ch=1 n=d#5 v=92
106766 On ch=1 n=a5 v=0
106802 On ch=1 n=b4 v=100
106850 On ch=1 n=d#5 v=0
106878 On ch=1 n=b4 v=0
106902 On ch=1 n=d#5 v=95
107012 On ch=1 n=d#5 v=0
107036 On ch=1 n=a4 v=87
107150 On ch=1 n=a4 v=0
107168 On ch=1 n=b3 v=104
107226 On ch=1 n=b3 v=0
107332 Par ch=1 c=64 v=63
107340 Par ch=1 c=64 v=0
107342 On ch=1 n=a#3 v=103
107386 On ch=1 n=a#6 v=115
107390 On ch=1 n=a#5 v=120
107390 On ch=1 n=f4 v=83
107392 On ch=1 n=d6 v=107
107394 On ch=1 n=g#6 v=107
107410 Par ch=1 c=64 v=63
107412 On ch=1 n=a#4 v=104
107418 Par ch=1 c=64 v=127
107492 On ch=1 n=a#3 v=0
107500 On ch=1 n=f4 v=0
107548 On ch=1 n=a#4 v=0
107570 On ch=1 n=a#6 v=0
107582 On ch=1 n=d6 v=0
107588 On ch=1 n=g#6 v=0
107614 On ch=1 n=a#5 v=0
107628 On ch=1 n=f4 v=81
107720 On ch=1 n=g#4 v=90
107812 On ch=1 n=d5 v=93
107844 On ch=1 n=g#4 v=0
107848 On ch=1 n=f4 v=0
107884 On ch=1 n=d5 v=0
107904 On ch=1 n=f5 v=89
108006 On ch=1 n=g#5 v=103
108058 On ch=1 n=f5 v=0
108118 On ch=1 n=d6 v=99
108142 On ch=1 n=g#5 v=0
108182 On ch=1 n=d6 v=0
108238 On ch=1 n=g#3 v=108
108248 Par ch=1 c=64 v=63
108256 Par ch=1 c=64 v=0
108320 Par ch=1 c=64 v=63
108328 On ch=1 n=g#4 v=108
108330 Par ch=1 c=64 v=127
108382 On ch=1 n=g#6 v=101
108384 On ch=1 n=c7 v=108
108394 On ch=1 n=c6 v=91
108400 On ch=1 n=g#3 v=0
108432 On ch=1 n=g#4 v=0
108476 On ch=1 n=c7 v=0
108478 On ch=1 n=c6 v=0
108478 On ch=1 n=g#6 v=0
108630 On ch=1 n=d#4 v=107
108764 On ch=1 n=g#4 v=93
108858 On ch=1 n=d#4 v=0
108862 On ch=1 n=c5 v=88
108870 On ch=1 n=g#4 v=0
108918 On ch=1 n=c5 v=0
108958 On ch=1 n=d#5 v=101
109044 On ch=1 n=g#5 v=90
109060 On ch=1 n=d#5 v=0
109148 On ch=1 n=c6 v=91
109164 On ch=1 n=g#5 v=0
109200 On ch=1 n=c6 v=0
109380 On ch=1 n=a#5 v=118
109380 On ch=1 n=f5 v=103
109382 On ch=1 n=d7 v=111
109384 On ch=1 n=f6 v=114
109384 On ch=1 n=a#6 v=107
109386 On ch=1 n=d6 v=112
109560 Par ch=1 c=64 v=127
109568 On ch=1 n=d7 v=0
109590 On ch=1 n=a#6 v=0
109594 On ch=1 n=f6 v=0
109596 On ch=1 n=d6 v=0
109620 On ch=1 n=a#5 v=0
109648 On ch=1 n=f5 v=0
109718 On ch=1 n=d5 v=84
109822 On ch=1 n=f5 v=90
109828 On ch=1 n=d5 v=0
109952 On ch=1 n=a#2 v=104
109962 On ch=1 n=a#5 v=106
109988 On ch=1 n=f5 v=0
110032 On ch=1 n=a#5 v=0
110082 On ch=1 n=d6 v=100
110182 On ch=1 n=d6 v=0
110190 On ch=1 n=a#1 v=110
110198 On ch=1 n=a#2 v=0
110204 On ch=1 n=f6 v=103
110218 On ch=1 n=a#1 v=0
110310 On ch=1 n=a#6 v=106
110332 On ch=1 n=f6 v=0
110376 On ch=1 n=a#6 v=0
110510 Par ch=1 c=64 v=63
110518 Par ch=1 c=64 v=0
110542 On ch=1 n=f#3 v=112
110544 On ch=1 n=f#4 v=120
110546 On ch=1 n=e7 v=113
110546 On ch=1 n=c#7 v=113
110546 On ch=1 n=e6 v=116
110548 On ch=1 n=a#6 v=112
110548 On ch=1 n=c#4 v=104
110592 Par ch=1 c=64 v=63
110596 Par ch=1 c=64 v=127
110718 On ch=1 n=f#3 v=0
110720 On ch=1 n=e7 v=0
110724 On ch=1 n=c#4 v=0
110750 On ch=1 n=c#7 v=0
110752 On ch=1 n=a#6 v=0
110756 On ch=1 n=e6 v=0
110782 On ch=1 n=f#4 v=0
110818 On ch=1 n=c#4 v=90
110924 On ch=1 n=c#4 v=0
110926 On ch=1 n=a#4 v=98
110998 On ch=1 n=a#4 v=0
111012 On ch=1 n=e5 v=83
111086 On ch=1 n=g#5 v=108
111112 On ch=1 n=e5 v=0
111182 On ch=1 n=e5 v=100
111186 On ch=1 n=g#5 v=0
111250 On ch=1 n=e5 v=0
111256 On ch=1 n=a#4 v=80
111364 On ch=1 n=a#4 v=0
111372 On ch=1 n=c#4 v=92
111436 On ch=1 n=c#4 v=0
111646 Par ch=1 c=64 v=63
111656 Par ch=1 c=64 v=0
111664 On ch=1 n=e3 v=79
111666 On ch=1 n=f#7 v=113
111670 On ch=1 n=b3 v=104
111670 On ch=1 n=f#6 v=116
111672 On ch=1 n=d7 v=103
111678 On ch=1 n=e4 v=107
111718 Par ch=1 c=64 v=63
111724 Par ch=1 c=64 v=127
111766 On ch=1 n=e3 v=0
111774 On ch=1 n=b3 v=0
111808 On ch=1 n=e4 v=0
111830 On ch=1 n=f#7 v=0
111842 On ch=1 n=d7 v=0
111866 On ch=1 n=f#6 v=0
111960 On ch=1 n=f#4 v=85
112072 On ch=1 n=g#4 v=92
112150 On ch=1 n=d5 v=80
112152 On ch=1 n=f#4 v=0
112174 On ch=1 n=g#4 v=0
112214 On ch=1 n=d5 v=0
112240 On ch=1 n=f#5 v=94
112324 On ch=1 n=g#5 v=91
112338 On ch=1 n=f#5 v=0
112416 On ch=1 n=g#5 v=0
112416 On ch=1 n=d6 v=94
112506 On ch=1 n=d6 v=0
112520 On ch=1 n=f#5 v=109
112610 On ch=1 n=g#5 v=89
112692 On ch=1 n=f#5 v=0
112706 On ch=1 n=d6 v=102
112844 On ch=1 n=g#7 v=119
112844 On ch=1 n=e7 v=107
112846 On ch=1 n=g#6 v=119
112848 On ch=1 n=g#5 v=0
112864 On ch=1 n=d6 v=0
112994 On ch=1 n=d6 v=102
113122 On ch=1 n=b5 v=103
113148 On ch=1 n=d6 v=0
113216 On ch=1 n=g#5 v=95
113256 On ch=1 n=b5 v=0
113318 On ch=1 n=f#5 v=88
113346 On ch=1 n=g#5 v=0
113364 On ch=1 n=f#5 v=0
113408 On ch=1 n=g#7 v=0
113410 On ch=1 n=e7 v=0
113438 On ch=1 n=d5 v=99
113472 On ch=1 n=g#6 v=0
113566 On ch=1 n=d5 v=0
113566 On ch=1 n=b4 v=96
113672 On ch=1 n=g#4 v=107
113690 On ch=1 n=b4 v=0
113716 On ch=1 n=g#4 v=0
113902 Par ch=1 c=64 v=63
113914 Par ch=1 c=64 v=0
113924 On ch=1 n=a#7 v=116
113926 On ch=1 n=f7 v=98
113928 On ch=1 n=d7 v=103
113928 On ch=1 n=a#6 v=110
113934 On ch=1 n=d3 v=97
113934 On ch=1 n=a#3 v=95
113938 On ch=1 n=d4 v=91
113982 Par ch=1 c=64 v=63
113986 Par ch=1 c=64 v=127
114016 On ch=1 n=d3 v=0
114036 On ch=1 n=a#3 v=0
114056 On ch=1 n=d4 v=0
114068 On ch=1 n=a#7 v=0
114088 On ch=1 n=f7 v=0
114092 On ch=1 n=d7 v=0
114104 On ch=1 n=a#6 v=0
114194 On ch=1 n=f4 v=92
114306 On ch=1 n=a#4 v=100
114400 On ch=1 n=d5 v=107
114440 On ch=1 n=a#4 v=0
114508 On ch=1 n=d5 v=0
114514 On ch=1 n=f5 v=106
114530 On ch=1 n=f4 v=0
114610 On ch=1 n=f5 v=0
114616 On ch=1 n=a#5 v=110
114694 On ch=1 n=f5 v=94
114724 On ch=1 n=a#5 v=0
114768 On ch=1 n=f5 v=0
114770 On ch=1 n=d5 v=91
114880 On ch=1 n=a#4 v=75
114968 On ch=1 n=d5 v=0
114988 On ch=1 n=f4 v=80
115008 On ch=1 n=a#4 v=0
115030 On ch=1 n=f4 v=0
115228 On ch=1 n=c3 v=84
115228 Par ch=1 c=64 v=63
115230 On ch=1 n=c8 v=106
115230 On ch=1 n=g7 v=100
115232 On ch=1 n=c7 v=100
115234 Par ch=1 c=64 v=0
115236 On ch=1 n=e7 v=98
115236 On ch=1 n=g3 v=97
115240 On ch=1 n=c4 v=107
115282 Par ch=1 c=64 v=63
115294 Par ch=1 c=64 v=127
115310 On ch=1 n=c3 v=0
115346 On ch=1 n=g3 v=0
115380 On ch=1 n=c4 v=0
115394 On ch=1 n=c8 v=0
115416 On ch=1 n=g7 v=0
115418 On ch=1 n=e7 v=0
115428 On ch=1 n=c7 v=0
115528 On ch=1 n=e4 v=66
115624 On ch=1 n=g4 v=75
115718 On ch=1 n=c5 v=98
115812 On ch=1 n=e5 v=87
115880 On ch=1 n=g4 v=0
115886 On ch=1 n=c5 v=0
115906 On ch=1 n=a#5 v=108
115916 On ch=1 n=e5 v=0
115922 On ch=1 n=e4 v=0
116008 On ch=1 n=e5 v=84
116092 On ch=1 n=e5 v=0
116102 On ch=1 n=a#5 v=0
116108 On ch=1 n=c5 v=96
116250 On ch=1 n=g4 v=76
116272 On ch=1 n=c5 v=0
116380 On ch=1 n=e4 v=94
116416 On ch=1 n=g4 v=0
116454 On ch=1 n=e4 v=0
116672 On ch=1 n=a#2 v=99
116690 On ch=1 n=a#3 v=103
116694 On ch=1 n=d8 v=100
116696 On ch=1 n=a#7 v=104
116698 On ch=1 n=d7 v=93
116700 On ch=1 n=f7 v=96
116700 On ch=1 n=f3 v=77
116712 Par ch=1 c=64 v=63
116720 Par ch=1 c=64 v=0
116744 On ch=1 n=f3 v=0
116778 Par ch=1 c=64 v=63
116788 Par ch=1 c=64 v=127
116822 On ch=1 n=a#2 v=0
116860 On ch=1 n=a#3 v=0
116920 On ch=1 n=d8 v=0
116948 On ch=1 n=a#7 v=0
116950 On ch=1 n=d7 v=0
116966 On ch=1 n=f7 v=0
117062 On ch=1 n=d4 v=86
117188 On ch=1 n=g#4 v=74
117324 On ch=1 n=c5 v=85
117454 On ch=1 n=f5 v=71
117492 On ch=1 n=g#4 v=0
117504 On ch=1 n=c5 v=0
117590 On ch=1 n=f5 v=0
117602 On ch=1 n=a#5 v=81
117782 On ch=1 n=f5 v=58
117788 On ch=1 n=d4 v=0
117864 On ch=1 n=a#5 v=0
117888 On ch=1 n=f5 v=0
117976 On ch=1 n=c5 v=48
118036 On ch=1 n=c5 v=0
118216 On ch=1 n=a#4 v=67
118450 On ch=1 n=f4 v=55
118476 On ch=1 n=a#4 v=0
118666 On ch=1 n=f4 v=0
118710 On ch=1 n=c4 v=61
118808 On ch=1 n=c4 v=0
119050 On ch=1 n=g#2 v=50
119400 On ch=1 n=d#8 v=84
119416 On ch=1 n=b7 v=39
119436 Par ch=1 c=64 v=63
119438 Par ch=1 c=64 v=127
119608 On ch=1 n=g#2 v=0
119618 On ch=1 n=d#3 v=61
119630 On ch=1 n=b7 v=0
119632 On ch=1 n=f8 v=65
119650 On ch=1 n=d#8 v=0
119780 On ch=1 n=g#3 v=67
119788 On ch=1 n=d#3 v=0
119800 On ch=1 n=f8 v=0
119800 On ch=1 n=d#8 v=76
119816 On ch=1 n=b7 v=59
119882 On ch=1 n=g#3 v=0
119896 On ch=1 n=b7 v=0
119896 On ch=1 n=b3 v=66
119936 On ch=1 n=f8 v=69
119948 On ch=1 n=d#8 v=0
119964 On ch=1 n=b3 v=0
120028 On ch=1 n=d#4 v=59
120054 On ch=1 n=d#8 v=72
120066 On ch=1 n=f8 v=0
120066 On ch=1 n=b7 v=57
120118 On ch=1 n=g#4 v=82
120126 On ch=1 n=b7 v=0
120148 On ch=1 n=d#4 v=0
120150 On ch=1 n=f8 v=75
120164 On ch=1 n=d#8 v=0
120232 On ch=1 n=g#4 v=0
120242 On ch=1 n=d#8 v=73
120246 On ch=1 n=b7 v=63
120254 On ch=1 n=f8 v=0
120256 On ch=1 n=b4 v=63
120296 On ch=1 n=b7 v=0
120334 On ch=1 n=g#4 v=62
120336 On ch=1 n=f8 v=82
120338 On ch=1 n=b4 v=0
120344 On ch=1 n=d#8 v=0
120406 On ch=1 n=d#8 v=77
120414 On ch=1 n=f8 v=0
120416 On ch=1 n=g#4 v=0
120422 On ch=1 n=d#4 v=79
120424 On ch=1 n=b7 v=51
120462 On ch=1 n=b7 v=0
120488 On ch=1 n=f8 v=87
120502 On ch=1 n=d#8 v=0
120526 On ch=1 n=d#4 v=0
120558 On ch=1 n=g#3 v=87
120558 On ch=1 n=d#8 v=87
120576 On ch=1 n=b7 v=65
120582 On ch=1 n=f8 v=0
120614 On ch=1 n=b7 v=0
120634 On ch=1 n=f8 v=87
120648 On ch=1 n=g#3 v=0
120658 On ch=1 n=d#8 v=0
120658 On ch=1 n=d#4 v=72
120716 On ch=1 n=d#8 v=90
120736 On ch=1 n=b7 v=77
120746 On ch=1 n=f8 v=0
120758 On ch=1 n=g#4 v=93
120766 On ch=1 n=d#4 v=0
120780 On ch=1 n=b7 v=0
120800 On ch=1 n=f8 v=90
120826 On ch=1 n=g#4 v=0
120828 On ch=1 n=d#8 v=0
120852 On ch=1 n=b4 v=64
120882 On ch=1 n=d#8 v=91
120894 On ch=1 n=b7 v=90
120910 On ch=1 n=b4 v=0
120910 On ch=1 n=f8 v=0
120942 On ch=1 n=d#5 v=100
120954 On ch=1 n=b7 v=0
120968 On ch=1 n=f8 v=97
120996 On ch=1 n=d#8 v=0
121028 On ch=1 n=d#5 v=0
121044 On ch=1 n=g#5 v=98
121048 On ch=1 n=d#8 v=92
121060 On ch=1 n=b7 v=90
121078 On ch=1 n=f8 v=0
121116 On ch=1 n=b7 v=0
121124 On ch=1 n=f8 v=96
121128 On ch=1 n=g#5 v=0
121154 On ch=1 n=d#8 v=0
121154 On ch=1 n=b5 v=74
121196 On ch=1 n=d#8 v=100
121206 On ch=1 n=b7 v=99
121234 On ch=1 n=f8 v=0
121234 On ch=1 n=g#5 v=87
121242 On ch=1 n=b5 v=0
121262 On ch=1 n=b7 v=0
121276 On ch=1 n=f8 v=102
121304 On ch=1 n=d#8 v=0
121314 On ch=1 n=g#5 v=0
121334 On ch=1 n=d#5 v=90
121342 On ch=1 n=d#8 v=93
121352 On ch=1 n=b7 v=87
121386 On ch=1 n=f8 v=0
121408 On ch=1 n=b7 v=0
121420 On ch=1 n=f8 v=109
121442 On ch=1 n=d#8 v=0
121448 On ch=1 n=d#5 v=0
121454 On ch=1 n=g#4 v=87
121492 On ch=1 n=d#8 v=95
121494 On ch=1 n=b7 v=101
121528 On ch=1 n=d#5 v=83
121532 On ch=1 n=f8 v=0
121536 On ch=1 n=g#4 v=0
121550 On ch=1 n=b7 v=0
121570 On ch=1 n=f8 v=104
121596 On ch=1 n=d#8 v=0
121630 On ch=1 n=g#5 v=97
121642 On ch=1 n=d#8 v=82
121648 On ch=1 n=b7 v=90
121650 On ch=1 n=d#5 v=0
121684 On ch=1 n=f8 v=0
121696 On ch=1 n=g#5 v=0
121712 On ch=1 n=b7 v=0
121722 On ch=1 n=f8 v=103
121724 On ch=1 n=b5 v=86
121760 On ch=1 n=d#8 v=0
121784 On ch=1 n=b5 v=0
121804 On ch=1 n=d#8 v=94
121812 On ch=1 n=d#6 v=100
121814 On ch=1 n=b7 v=101
121844 On ch=1 n=f8 v=0
121870 On ch=1 n=b7 v=0
121886 On ch=1 n=f8 v=102
121892 On ch=1 n=d#6 v=0
121896 On ch=1 n=g#6 v=96
121916 On ch=1 n=d#8 v=0
121966 On ch=1 n=g#6 v=0
121972 On ch=1 n=d#8 v=87
121972 On ch=1 n=b6 v=89
121974 On ch=1 n=b7 v=98
122010 On ch=1 n=f8 v=0
122038 On ch=1 n=b7 v=0
122046 On ch=1 n=g#6 v=83
122050 On ch=1 n=f8 v=102
122064 On ch=1 n=b6 v=0
122086 On ch=1 n=d#8 v=0
122122 On ch=1 n=d#6 v=98
122132 On ch=1 n=g#6 v=0
122148 On ch=1 n=d#8 v=96
122150 On ch=1 n=b7 v=99
122190 On ch=1 n=f8 v=0
122208 On ch=1 n=g#6 v=91
122212 On ch=1 n=b7 v=0
122214 On ch=1 n=d#6 v=0
122228 On ch=1 n=f8 v=101
122270 On ch=1 n=b6 v=84
122272 On ch=1 n=g#6 v=0
122282 On ch=1 n=d#8 v=0
122320 On ch=1 n=b7 v=100
122338 On ch=1 n=d#8 v=89
122356 On ch=1 n=b6 v=0
122366 On ch=1 n=f8 v=0
122406 On ch=1 n=b7 v=0
122406 On ch=1 n=d#7 v=107
122416 On ch=1 n=f8 v=102
122466 On ch=1 n=d#8 v=0
122486 On ch=1 n=f8 v=0
122518 On ch=1 n=g#7 v=114
122530 On ch=1 n=d#7 v=0
122712 On ch=1 n=b7 v=114
122720 On ch=1 n=f#8 v=125
122738 On ch=1 n=g#7 v=0
122754 On ch=1 n=d#8 v=70
122784 On ch=1 n=d#8 v=0
122794 On ch=1 n=b7 v=0
122906 On ch=1 n=d8 v=79
122978 On ch=1 n=b7 v=85
123052 On ch=1 n=f#8 v=0
123058 On ch=1 n=f#7 v=99
123102 On ch=1 n=d8 v=0
123110 On ch=1 n=d7 v=85
123118 On ch=1 n=b7 v=0
123146 On ch=1 n=f#7 v=0
123196 On ch=1 n=b6 v=97
123202 On ch=1 n=d7 v=0
123234 On ch=1 n=g#6 v=98
123272 On ch=1 n=b6 v=0
123286 On ch=1 n=f#6 v=92
123314 On ch=1 n=g#6 v=0
123330 On ch=1 n=f#6 v=0
123370 On ch=1 n=d6 v=101
123442 On ch=1 n=b5 v=87
123452 On ch=1 n=d6 v=0
123486 On ch=1 n=g#5 v=86
123504 On ch=1 n=b5 v=0
123518 On ch=1 n=f#5 v=94
123602 On ch=1 n=b5 v=90
123604 On ch=1 n=f#5 v=0
123662 On ch=1 n=d6 v=97
123674 On ch=1 n=g#5 v=0
123708 On ch=1 n=b5 v=0
123712 On ch=1 n=f#6 v=97
123752 On ch=1 n=b6 v=82
123754 On ch=1 n=d6 v=0
123786 On ch=1 n=f#6 v=0
123804 On ch=1 n=d7 v=82
123830 On ch=1 n=f#7 v=103
123834 On ch=1 n=b6 v=0
123934 On ch=1 n=b6 v=81
123950 On ch=1 n=f#7 v=0
123996 On ch=1 n=d7 v=0
123996 On ch=1 n=f#6 v=81
124012 On ch=1 n=d6 v=77
124022 On ch=1 n=b6 v=0
124056 On ch=1 n=f#6 v=0
124090 On ch=1 n=b5 v=82
124100 On ch=1 n=d6 v=0
124120 On ch=1 n=g#5 v=96
124158 On ch=1 n=b5 v=0
124166 On ch=1 n=f#5 v=88
124190 On ch=1 n=g#5 v=0
124210 On ch=1 n=f#5 v=0
124264 On ch=1 n=d5 v=92
124326 On ch=1 n=b4 v=86
124328 On ch=1 n=d5 v=0
124378 On ch=1 n=g#4 v=76
124394 On ch=1 n=b4 v=0
124416 On ch=1 n=f#4 v=88
124430 On ch=1 n=g#4 v=0
124458 On ch=1 n=g#4 v=70
124506 On ch=1 n=f#4 v=0
124512 On ch=1 n=b4 v=78
124562 On ch=1 n=g#4 v=0
124574 On ch=1 n=d5 v=100
124614 On ch=1 n=b4 v=0
124628 On ch=1 n=f#5 v=91
124656 On ch=1 n=d5 v=0
124678 On ch=1 n=b5 v=84
124702 On ch=1 n=f#5 v=0
124722 On ch=1 n=d6 v=83
124754 On ch=1 n=f#6 v=101
124756 On ch=1 n=b5 v=0
124846 On ch=1 n=b5 v=88
124872 On ch=1 n=f#6 v=0
124904 On ch=1 n=d6 v=0
124914 On ch=1 n=f#5 v=89
124940 On ch=1 n=b5 v=0
124944 On ch=1 n=d5 v=74
124970 On ch=1 n=f#5 v=0
125020 On ch=1 n=b4 v=77
125034 On ch=1 n=d5 v=0
125054 On ch=1 n=g#4 v=90
125092 On ch=1 n=b4 v=0
125102 On ch=1 n=f#4 v=79
125116 On ch=1 n=g#4 v=0
125138 On ch=1 n=f#4 v=0
125190 On ch=1 n=d4 v=91
125260 On ch=1 n=d4 v=0
125270 On ch=1 n=b3 v=81
125324 On ch=1 n=b3 v=0
125324 On ch=1 n=g#3 v=65
125356 On ch=1 n=g#3 v=0
125356 On ch=1 n=f#3 v=87
125408 On ch=1 n=g#3 v=89
125442 On ch=1 n=f#3 v=0
125466 On ch=1 n=b3 v=83
125508 On ch=1 n=g#3 v=0
125522 On ch=1 n=d4 v=76
125554 On ch=1 n=b3 v=0
125578 On ch=1 n=f#4 v=86
125608 On ch=1 n=d4 v=0
125642 On ch=1 n=b4 v=80
125658 On ch=1 n=f#4 v=0
125718 On ch=1 n=d5 v=70
125728 On ch=1 n=b4 v=0
125728 On ch=1 n=f#5 v=86
125840 On ch=1 n=b4 v=79
125848 On ch=1 n=f#5 v=0
125892 On ch=1 n=d5 v=0
125912 On ch=1 n=f#4 v=77
125930 On ch=1 n=b4 v=0
125946 On ch=1 n=d4 v=68
125972 On ch=1 n=f#4 v=0
126024 On ch=1 n=b3 v=68
126030 On ch=1 n=d4 v=0
126072 On ch=1 n=g#3 v=78
126108 On ch=1 n=b3 v=0
126140 On ch=1 n=f#3 v=77
126154 On ch=1 n=g#3 v=0
126166 On ch=1 n=f#3 v=0
126240 On ch=1 n=d3 v=75
126310 On ch=1 n=d3 v=0
126322 On ch=1 n=b2 v=74
126372 On ch=1 n=g#2 v=75
126384 On ch=1 n=b2 v=0
126452 On ch=1 n=f#2 v=83
126476 On ch=1 n=g#2 v=0
126512 On ch=1 n=f#2 v=0
126536 On ch=1 n=d4 v=75
126624 On ch=1 n=g#3 v=64
126710 On ch=1 n=f#3 v=55
126864 On ch=1 n=f#3 v=0
126872 On ch=1 n=d3 v=64
126894 On ch=1 n=g#3 v=0
126910 On ch=1 n=d4 v=0
127060 On ch=1 n=g#2 v=58
127062 On ch=1 n=d3 v=0
127228 On ch=1 n=f#2 v=73
127232 On ch=1 n=g#2 v=0
127262 On ch=1 n=f#2 v=0
127508 On ch=1 n=a1 v=83
127674 Par ch=1 c=64 v=63
127690 Par ch=1 c=64 v=0
127860 Par ch=1 c=64 v=63
127860 Par ch=1 c=64 v=127
127866 On ch=1 n=d#8 v=74
127870 On ch=1 n=b7 v=51
127906 On ch=1 n=f#2 v=14
127996 On ch=1 n=a1 v=0
128018 On ch=1 n=f#2 v=0
128112 On ch=1 n=b7 v=0
128136 On ch=1 n=d#8 v=0
128154 On ch=1 n=f8 v=63
128190 On ch=1 n=d#3 v=70
128306 On ch=1 n=f8 v=0
128330 On ch=1 n=g#3 v=72
128332 On ch=1 n=d#8 v=65
128342 On ch=1 n=b7 v=33
128350 On ch=1 n=d#3 v=0
128408 On ch=1 n=b7 v=0
128448 On ch=1 n=f8 v=70
128452 On ch=1 n=g#3 v=0
128456 On ch=1 n=d#8 v=0
128478 On ch=1 n=b3 v=59
128524 On ch=1 n=b3 v=0
128550 On ch=1 n=d#8 v=79
128552 On ch=1 n=b7 v=65
128560 On ch=1 n=f8 v=0
128574 On ch=1 n=d#4 v=90
128610 On ch=1 n=b7 v=0
128632 On ch=1 n=f8 v=87
128650 On ch=1 n=d#8 v=0
128674 On ch=1 n=g#4 v=85
128678 On ch=1 n=d#4 v=0
128716 On ch=1 n=d#8 v=80
128726 On ch=1 n=f8 v=0
128726 On ch=1 n=b7 v=60
128766 On ch=1 n=b7 v=0
128774 On ch=1 n=g#4 v=0
128790 On ch=1 n=b4 v=59
128792 On ch=1 n=f8 v=85
128808 On ch=1 n=d#8 v=0
128856 On ch=1 n=b4 v=0
128858 On ch=1 n=g#4 v=58
128858 On ch=1 n=d#8 v=84
128872 On ch=1 n=b7 v=69
128874 On ch=1 n=f8 v=0
128906 On ch=1 n=b7 v=0
128928 On ch=1 n=g#4 v=0
128928 On ch=1 n=f8 v=88
128930 On ch=1 n=d#4 v=76
128946 On ch=1 n=d#8 v=0
128998 On ch=1 n=d#8 v=84
129006 On ch=1 n=b7 v=75
129024 On ch=1 n=f8 v=0
129044 On ch=1 n=b7 v=0
129056 On ch=1 n=d#4 v=0
129058 On ch=1 n=g#3 v=83
129066 On ch=1 n=f8 v=94
129088 On ch=1 n=d#8 v=0
129134 On ch=1 n=d#4 v=63
129138 On ch=1 n=d#8 v=79
129140 On ch=1 n=g#3 v=0
129142 On ch=1 n=b7 v=78
129170 On ch=1 n=f8 v=0
129188 On ch=1 n=b7 v=0
129210 On ch=1 n=f8 v=98
129228 On ch=1 n=g#4 v=98
129236 On ch=1 n=d#8 v=0
129244 On ch=1 n=d#4 v=0
129284 On ch=1 n=d#8 v=81
129286 On ch=1 n=b7 v=89
129294 On ch=1 n=g#4 v=0
129316 On ch=1 n=f8 v=0
129348 On ch=1 n=b7 v=0
129358 On ch=1 n=f8 v=97
129382 On ch=1 n=d#5 v=107
129386 On ch=1 n=d#8 v=0
129432 On ch=1 n=d#8 v=85
129436 On ch=1 n=b7 v=81
129462 On ch=1 n=f8 v=0
129474 On ch=1 n=d#5 v=0
129474 On ch=1 n=g#5 v=104
129494 On ch=1 n=b7 v=0
129508 On ch=1 n=f8 v=98
129536 On ch=1 n=d#8 v=0
129560 On ch=1 n=g#5 v=0
129574 On ch=1 n=b5 v=84
129580 On ch=1 n=d#8 v=93
129582 On ch=1 n=b7 v=100
129618 On ch=1 n=f8 v=0
129642 On ch=1 n=b7 v=0
129642 On ch=1 n=g#5 v=81
129654 On ch=1 n=b5 v=0
129658 On ch=1 n=f8 v=104
129684 On ch=1 n=d#8 v=0
129722 On ch=1 n=d#5 v=97
129728 On ch=1 n=g#5 v=0
129734 On ch=1 n=d#8 v=90
129744 On ch=1 n=b7 v=94
129776 On ch=1 n=f8 v=0
129800 On ch=1 n=b7 v=0
129812 On ch=1 n=f8 v=107
129842 On ch=1 n=d#8 v=0
129842 On ch=1 n=g#4 v=92
129858 On ch=1 n=d#5 v=0
129890 On ch=1 n=d#8 v=96
129900 On ch=1 n=b7 v=102
129918 On ch=1 n=d#5 v=71
129934 On ch=1 n=f8 v=0
129938 On ch=1 n=g#4 v=0
129958 On ch=1 n=b7 v=0
129970 On ch=1 n=f8 v=107
130004 On ch=1 n=d#8 v=0
130016 On ch=1 n=g#5 v=104
130040 On ch=1 n=d#5 v=0
130044 On ch=1 n=d#8 v=95
130058 On ch=1 n=b7 v=103
130080 On ch=1 n=g#5 v=0
130092 On ch=1 n=f8 v=0
130100 On ch=1 n=b5 v=51
130122 On ch=1 n=b7 v=0
130128 On ch=1 n=f8 v=111
130142 On ch=1 n=b5 v=0
130158 On ch=1 n=d#8 v=0
130186 On ch=1 n=d#6 v=105
130210 On ch=1 n=d#8 v=101
130216 On ch=1 n=b7 v=103
130258 On ch=1 n=f8 v=0
130262 On ch=1 n=d#6 v=0
130272 On ch=1 n=g#6 v=100
130274 On ch=1 n=b7 v=0
130298 On ch=1 n=f8 v=103
130334 On ch=1 n=d#8 v=0
130360 On ch=1 n=b6 v=93
130362 On ch=1 n=g#6 v=0
130384 On ch=1 n=d#8 v=95
130386 On ch=1 n=b7 v=108
130432 On ch=1 n=f8 v=0
130460 On ch=1 n=b7 v=0
130468 On ch=1 n=b6 v=0
130470 On ch=1 n=f8 v=102
130496 On ch=1 n=d#6 v=92
130516 On ch=1 n=d#8 v=0
130576 On ch=1 n=d#8 v=99
130578 On ch=1 n=b7 v=103
130596 On ch=1 n=g#6 v=96
130616 On ch=1 n=d#6 v=0
130624 On ch=1 n=f8 v=0
130656 On ch=1 n=b7 v=0
130658 On ch=1 n=f8 v=106
130688 On ch=1 n=b6 v=85
130694 On ch=1 n=g#6 v=0
130706 On ch=1 n=d#8 v=0
130752 On ch=1 n=b7 v=103
130766 On ch=1 n=d#8 v=94
130778 On ch=1 n=b6 v=0
130806 On ch=1 n=f8 v=0
130808 On ch=1 n=d#7 v=101
130836 On ch=1 n=b7 v=0
130850 On ch=1 n=f8 v=90
130886 On ch=1 n=d#8 v=0
130900 On ch=1 n=f8 v=0
130918 On ch=1 n=g#7 v=108
130958 On ch=1 n=d#7 v=0
131022 On ch=1 n=b7 v=107
131062 On ch=1 n=g#7 v=0
131106 On ch=1 n=b7 v=0
131124 On ch=1 n=f#8 v=124
131158 On ch=1 n=d#8 v=76
131190 On ch=1 n=d#8 v=0
131252 On ch=1 n=d8 v=84
131310 On ch=1 n=b7 v=96
131368 On ch=1 n=f#8 v=0
131378 On ch=1 n=f#7 v=110
131406 On ch=1 n=d8 v=0
131420 On ch=1 n=d7 v=90
131424 On ch=1 n=b7 v=0
131444 On ch=1 n=f#7 v=0
131492 On ch=1 n=b6 v=87
131502 On ch=1 n=d7 v=0
131548 On ch=1 n=g#6 v=95
131588 On ch=1 n=b6 v=0
131600 On ch=1 n=f#6 v=94
131640 On ch=1 n=g#6 v=0
131652 On ch=1 n=f#6 v=0
131708 On ch=1 n=d6 v=90
131778 On ch=1 n=d6 v=0
131804 On ch=1 n=b5 v=51
131830 On ch=1 n=g#5 v=58
131848 On ch=1 n=b5 v=0
131862 On ch=1 n=f#5 v=88
131866 On ch=1 n=g#5 v=0
131902 On ch=1 n=g#5 v=100
131936 On ch=1 n=f#5 v=0
131940 On ch=1 n=b5 v=86
131996 On ch=1 n=d6 v=99
132002 On ch=1 n=g#5 v=0
132022 On ch=1 n=f#6 v=104
132034 On ch=1 n=b5 v=0
132056 On ch=1 n=b6 v=89
132074 On ch=1 n=d6 v=0
132096 On ch=1 n=f#6 v=0
132110 On ch=1 n=d7 v=83
132128 On ch=1 n=f#7 v=107
132144 On ch=1 n=b6 v=0
132226 On ch=1 n=b6 v=77
132250 On ch=1 n=f#7 v=0
132272 On ch=1 n=f#6 v=88
132274 On ch=1 n=d7 v=0
132286 On ch=1 n=d6 v=84
132306 On ch=1 n=b6 v=0
132324 On ch=1 n=f#6 v=0
132362 On ch=1 n=b5 v=78
132364 On ch=1 n=d6 v=0
132384 On ch=1 n=g#5 v=98
132410 On ch=1 n=b5 v=0
132424 On ch=1 n=f#5 v=81
132446 On ch=1 n=g#5 v=0
132456 On ch=1 n=f#5 v=0
132516 On ch=1 n=d5 v=91
132578 On ch=1 n=d5 v=0
132582 On ch=1 n=b4 v=70
132638 On ch=1 n=g#4 v=71
132642 On ch=1 n=b4 v=0
132672 On ch=1 n=f#4 v=80
132746 On ch=1 n=f#4 v=0
132756 On ch=1 n=b4 v=86
132804 On ch=1 n=d5 v=94
132806 On ch=1 n=g#4 v=0
132838 On ch=1 n=b4 v=0
132864 On ch=1 n=f#5 v=87
132888 On ch=1 n=d5 v=0
132912 On ch=1 n=b5 v=85
132942 On ch=1 n=f#5 v=0
132974 On ch=1 n=d6 v=81
132988 On ch=1 n=f#6 v=104
132998 On ch=1 n=b5 v=0
133082 On ch=1 n=b5 v=83
133102 On ch=1 n=f#6 v=0
133134 On ch=1 n=d6 v=0
133142 On ch=1 n=f#5 v=72
133150 On ch=1 n=d5 v=73
133162 On ch=1 n=b5 v=0
133194 On ch=1 n=f#5 v=0
133228 On ch=1 n=d5 v=0
133228 On ch=1 n=b4 v=69
133260 On ch=1 n=g#4 v=89
133280 On ch=1 n=b4 v=0
133298 On ch=1 n=f#4 v=73
133316 On ch=1 n=g#4 v=0
133328 On ch=1 n=f#4 v=0
133382 On ch=1 n=d4 v=83
133456 On ch=1 n=d4 v=0
133464 On ch=1 n=b3 v=73
133520 On ch=1 n=g#3 v=67
133530 On ch=1 n=b3 v=0
133562 On ch=1 n=g#3 v=0
133568 On ch=1 n=f#3 v=76
133624 On ch=1 n=g#3 v=84
133690 On ch=1 n=b3 v=81
133692 On ch=1 n=f#3 v=0
133720 Par ch=1 c=64 v=63
133734 Par ch=1 c=64 v=0
133754 Par ch=1 c=64 v=63
133762 On ch=1 n=d4 v=77
133764 On ch=1 n=f#3 v=7
133782 Par ch=1 c=64 v=127
133814 On ch=1 n=f#4 v=86
133854 On ch=1 n=g#3 v=0
133856 On ch=1 n=b3 v=0
133862 On ch=1 n=f#3 v=0
133874 On ch=1 n=b4 v=78
133898 On ch=1 n=f#4 v=0
133900 On ch=1 n=d4 v=0
133940 On ch=1 n=d5 v=88
133962 On ch=1 n=b4 v=0
133964 On ch=1 n=f#5 v=88
134060 On ch=1 n=b4 v=85
134078 On ch=1 n=f#5 v=0
134108 On ch=1 n=d5 v=0
134134 On ch=1 n=f#4 v=77
134144 On ch=1 n=b4 v=0
134150 On ch=1 n=d4 v=58
134186 On ch=1 n=f#4 v=0
134220 On ch=1 n=d4 v=0
134226 On ch=1 n=b3 v=65
134248 On ch=1 n=g#3 v=79
134276 On ch=1 n=b3 v=0
134318 On ch=1 n=g#3 v=0
134420 On ch=1 n=d3 v=49
134466 On ch=1 n=d3 v=0
134486 On ch=1 n=b2 v=84
134542 On ch=1 n=g#2 v=73
134574 On ch=1 n=b2 v=0
134622 On ch=1 n=f#2 v=88
134668 On ch=1 n=g#2 v=0
134712 On ch=1 n=f#2 v=0
134742 On ch=1 n=d4 v=83
134826 On ch=1 n=g#3 v=67
134910 On ch=1 n=f#3 v=61
135052 On ch=1 n=f#3 v=0
135054 On ch=1 n=d3 v=59
135086 On ch=1 n=g#3 v=0
135110 On ch=1 n=d4 v=0
135226 On ch=1 n=g#2 v=57
135234 On ch=1 n=d3 v=0
135374 On ch=1 n=f#2 v=76
135390 On ch=1 n=g#2 v=0
135414 On ch=1 n=f#2 v=0
135638 On ch=1 n=a1 v=81
135876 Par ch=1 c=64 v=63
135886 Par ch=1 c=64 v=0
136024 On ch=1 n=g#2 v=76
136102 On ch=1 n=a1 v=0
136218 Par ch=1 c=64 v=63
136230 Par ch=1 c=64 v=127
136250 On ch=1 n=d#8 v=84
136260 On ch=1 n=b7 v=72
136474 On ch=1 n=g#2 v=0
136478 On ch=1 n=b7 v=0
136480 On ch=1 n=d#3 v=60
136484 On ch=1 n=f8 v=71
136502 On ch=1 n=d#8 v=0
136636 On ch=1 n=g#3 v=83
136646 On ch=1 n=d#3 v=0
136660 On ch=1 n=f8 v=0
136660 On ch=1 n=d#8 v=84
136680 On ch=1 n=b7 v=55
136736 On ch=1 n=b7 v=0
136736 On ch=1 n=g#3 v=0
136746 On ch=1 n=b3 v=77
136782 On ch=1 n=f8 v=86
136794 On ch=1 n=d#8 v=0
136820 On ch=1 n=b3 v=0
136866 On ch=1 n=d#4 v=81
136882 On ch=1 n=d#8 v=91
136894 On ch=1 n=f8 v=0
136898 On ch=1 n=b7 v=72
136948 On ch=1 n=b7 v=0
136962 On ch=1 n=g#4 v=89
136966 On ch=1 n=f8 v=88
136978 On ch=1 n=d#4 v=0
136986 On ch=1 n=d#8 v=0
137050 On ch=1 n=d#8 v=85
137054 On ch=1 n=g#4 v=0
137056 On ch=1 n=b7 v=75
137066 On ch=1 n=f8 v=0
137072 On ch=1 n=b4 v=76
137108 On ch=1 n=b7 v=0
137124 On ch=1 n=f8 v=86
137144 On ch=1 n=d#8 v=0
137148 On ch=1 n=b4 v=0
137148 On ch=1 n=g#4 v=77
137198 On ch=1 n=d#8 v=86
137214 On ch=1 n=b7 v=63
137218 On ch=1 n=f8 v=0
137222 On ch=1 n=g#4 v=0
137224 On ch=1 n=d#4 v=89
137250 On ch=1 n=b7 v=0
137268 On ch=1 n=f8 v=91
137288 On ch=1 n=d#8 v=0
137318 On ch=1 n=d#4 v=0
137338 On ch=1 n=d#8 v=86
137346 On ch=1 n=b7 v=75
137354 On ch=1 n=g#3 v=91
137364 On ch=1 n=f8 v=0
137392 On ch=1 n=b7 v=0
137406 On ch=1 n=f8 v=96
137428 On ch=1 n=d#8 v=0
137448 On ch=1 n=g#3 v=0
137450 On ch=1 n=d#4 v=82
137480 On ch=1 n=d#8 v=92
137498 On ch=1 n=b7 v=76
137508 On ch=1 n=f8 v=0
137528 On ch=1 n=b7 v=0
137536 On ch=1 n=g#4 v=98
137546 On ch=1 n=d#4 v=0
137550 On ch=1 n=f8 v=94
137572 On ch=1 n=d#8 v=0
137600 On ch=1 n=g#4 v=0
137622 On ch=1 n=b4 v=64
137626 On ch=1 n=d#8 v=90
137638 On ch=1 n=b7 v=84
137656 On ch=1 n=f8 v=0
137674 On ch=1 n=b4 v=0
137678 On ch=1 n=b7 v=0
137698 On ch=1 n=d#5 v=107
137700 On ch=1 n=f8 v=97
137730 On ch=1 n=d#8 v=0
137778 On ch=1 n=d#8 v=86
137784 On ch=1 n=g#5 v=105
137786 On ch=1 n=d#5 v=0
137792 On ch=1 n=b7 v=80
137812 On ch=1 n=f8 v=0
137838 On ch=1 n=b7 v=0
137852 On ch=1 n=f8 v=97
137858 On ch=1 n=g#5 v=0
137874 On ch=1 n=b5 v=91
137880 On ch=1 n=d#8 v=0
137926 On ch=1 n=d#8 v=95
137932 On ch=1 n=b7 v=96
137946 On ch=1 n=g#5 v=93
137956 On ch=1 n=b5 v=0
137956 On ch=1 n=f8 v=0
137986 On ch=1 n=b7 v=0
138004 On ch=1 n=f8 v=99
138022 On ch=1 n=d#5 v=96
138026 On ch=1 n=d#8 v=0
138028 On ch=1 n=g#5 v=0
138068 On ch=1 n=d#8 v=89
138072 On ch=1 n=b7 v=86
138108 On ch=1 n=f8 v=0
138126 On ch=1 n=g#4 v=88
138128 On ch=1 n=b7 v=0
138130 On ch=1 n=d#5 v=0
138144 On ch=1 n=f8 v=108
138166 On ch=1 n=d#8 v=0
138194 On ch=1 n=d#5 v=73
138208 On ch=1 n=g#4 v=0
138218 On ch=1 n=d#8 v=87
138222 On ch=1 n=b7 v=90
138254 On ch=1 n=f8 v=0
138278 On ch=1 n=b7 v=0
138292 On ch=1 n=g#5 v=99
138296 On ch=1 n=f8 v=101
138300 On ch=1 n=d#5 v=0
138326 On ch=1 n=d#8 v=0
138348 On ch=1 n=g#5 v=0
138356 On ch=1 n=b5 v=83
138368 On ch=1 n=d#8 v=86
138378 On ch=1 n=b7 v=87
138408 On ch=1 n=f8 v=0
138414 On ch=1 n=b5 v=0
138438 On ch=1 n=b7 v=0
138440 On ch=1 n=d#6 v=104
138446 On ch=1 n=f8 v=101
138480 On ch=1 n=d#8 v=0
138520 On ch=1 n=g#6 v=104
138524 On ch=1 n=d#6 v=0
138530 On ch=1 n=d#8 v=90
138534 On ch=1 n=b7 v=94
138562 On ch=1 n=f8 v=0
138586 On ch=1 n=g#6 v=0
138590 On ch=1 n=b7 v=0
138596 On ch=1 n=b6 v=84
138600 On ch=1 n=f8 v=102
138630 On ch=1 n=d#8 v=0
138648 On ch=1 n=g#6 v=88
138668 On ch=1 n=b6 v=0
138674 On ch=1 n=d#8 v=84
138676 On ch=1 n=b7 v=90
138710 On ch=1 n=f8 v=0
138718 On ch=1 n=d#6 v=92
138724 On ch=1 n=g#6 v=0
138734 On ch=1 n=b7 v=0
138748 On ch=1 n=d#6 v=0
138750 On ch=1 n=f8 v=100
138782 On ch=1 n=d#8 v=0
138818 On ch=1 n=b5 v=92
138826 On ch=1 n=d#8 v=80
138826 On ch=1 n=b7 v=87
138868 On ch=1 n=f8 v=0
138882 On ch=1 n=b5 v=0
138886 On ch=1 n=b7 v=0
138888 On ch=1 n=g#5 v=97
138906 On ch=1 n=f8 v=101
138938 On ch=1 n=d#8 v=0
138952 On ch=1 n=g#5 v=0
138972 On ch=1 n=d#5 v=94
139006 On ch=1 n=d#8 v=86
139008 On ch=1 n=b7 v=88
139044 On ch=1 n=d#5 v=0
139046 On ch=1 n=f8 v=0
139064 On ch=1 n=g#4 v=93
139066 On ch=1 n=b7 v=0
139088 On ch=1 n=f8 v=92
139124 On ch=1 n=d#8 v=0
139146 On ch=1 n=d#5 v=88
139152 On ch=1 n=g#4 v=0
139176 On ch=1 n=d#8 v=83
139188 On ch=1 n=b7 v=94
139214 On ch=1 n=f8 v=0
139236 On ch=1 n=g#5 v=103
139238 On ch=1 n=d#5 v=0
139244 On ch=1 n=b7 v=0
139260 On ch=1 n=f8 v=97
139296 On ch=1 n=d#8 v=0
139300 On ch=1 n=g#5 v=0
139330 On ch=1 n=b5 v=55
139348 On ch=1 n=d#8 v=91
139356 On ch=1 n=b7 v=100
139380 On ch=1 n=b5 v=0
139382 On ch=1 n=f8 v=0
139406 On ch=1 n=d#6 v=101
139414 On ch=1 n=b7 v=0
139424 On ch=1 n=f8 v=101
139460 On ch=1 n=d#8 v=0
139480 On ch=1 n=d#6 v=0
139480 On ch=1 n=g#6 v=107
139496 On ch=1 n=d#8 v=104
139510 On ch=1 n=b7 v=94
139534 On ch=1 n=f8 v=0
139556 On ch=1 n=g#6 v=0
139558 On ch=1 n=b6 v=96
139562 On ch=1 n=b7 v=0
139570 On ch=1 n=f8 v=108
139594 On ch=1 n=d#8 v=0
139616 On ch=1 n=g#6 v=84
139638 On ch=1 n=d#8 v=94
139642 On ch=1 n=b6 v=0
139644 On ch=1 n=b7 v=103
139682 On ch=1 n=f8 v=0
139696 On ch=1 n=d#6 v=101
139698 On ch=1 n=b7 v=0
139710 On ch=1 n=g#6 v=0
139714 On ch=1 n=f8 v=108
139732 On ch=1 n=d#8 v=0
139780 On ch=1 n=d#8 v=88
139780 On ch=1 n=g#6 v=100
139788 On ch=1 n=d#6 v=0
139788 On ch=1 n=b7 v=97
139828 On ch=1 n=f8 v=0
139842 On ch=1 n=b7 v=0
139842 On ch=1 n=b6 v=84
139848 On ch=1 n=g#6 v=0
139860 On ch=1 n=f8 v=111
139888 On ch=1 n=d#8 v=0
139922 On ch=1 n=b6 v=0
139928 On ch=1 n=b7 v=103
139928 On ch=1 n=d#8 v=93
139944 On ch=1 n=d#7 v=112
139972 On ch=1 n=f8 v=0
139998 On ch=1 n=b7 v=0
140010 On ch=1 n=f8 v=100
140020 On ch=1 n=f#8 v=72
140046 On ch=1 n=g#7 v=116
140066 On ch=1 n=f#8 v=0
140070 On ch=1 n=d#7 v=0
140072 On ch=1 n=d#8 v=0
140094 On ch=1 n=f8 v=0
140162 On ch=1 n=b7 v=113
140178 On ch=1 n=g#7 v=0
140328 Par ch=1 c=64 v=63
140340 Par ch=1 c=64 v=0
140362 On ch=1 n=c#8 v=126
140382 On ch=1 n=f#8 v=115
140396 On ch=1 n=b7 v=0
140400 Par ch=1 c=64 v=63
140408 Par ch=1 c=64 v=127
140448 On ch=1 n=c#8 v=0
140582 On ch=1 n=c#8 v=95
140628 On ch=1 n=f#8 v=0
140656 On ch=1 n=a#7 v=101
140706 On ch=1 n=c#8 v=0
140732 On ch=1 n=f#7 v=104
140744 On ch=1 n=a#7 v=0
140766 On ch=1 n=d#7 v=107
140784 On ch=1 n=f#7 v=0
140826 On ch=1 n=c#7 v=96
140842 On ch=1 n=d#7 v=0
140866 On ch=1 n=a#6 v=94
140898 On ch=1 n=c#7 v=0
140900 On ch=1 n=f#6 v=89
140918 On ch=1 n=a#6 v=0
140926 On ch=1 n=f#6 v=0
140986 On ch=1 n=d#6 v=101
141040 On ch=1 n=c#6 v=96
141050 On ch=1 n=d#6 v=0
141092 On ch=1 n=a#5 v=75
141100 On ch=1 n=c#6 v=0
141120 On ch=1 n=f#5 v=94
141192 On ch=1 n=c#6 v=97
141246 On ch=1 n=d#6 v=101
141256 On ch=1 n=a#5 v=0
141302 On ch=1 n=f#6 v=99
141312 On ch=1 n=c#6 v=0
141350 On ch=1 n=a#6 v=99
141366 On ch=1 n=d#6 v=0
141374 On ch=1 n=f#6 v=0
141380 On ch=1 n=f#5 v=0
141394 On ch=1 n=c#7 v=91
141422 On ch=1 n=a#6 v=0
141440 On ch=1 n=f#7 v=98
141526 On ch=1 n=a#6 v=96
141542 On ch=1 n=f#7 v=0
141558 On ch=1 n=d#6 v=80
141584 On ch=1 n=f#6 v=88
141586 On ch=1 n=c#7 v=0
141606 On ch=1 n=a#6 v=0
141618 On ch=1 n=c#6 v=83
141634 On ch=1 n=d#6 v=0
141640 On ch=1 n=f#6 v=0
141676 On ch=1 n=a#5 v=82
141690 On ch=1 n=c#6 v=0
141700 On ch=1 n=f#5 v=70
141706 On ch=1 n=a#5 v=0
141728 On ch=1 n=f#5 v=0
141780 On ch=1 n=d#5 v=106
141852 On ch=1 n=d#5 v=0
141854 On ch=1 n=c#5 v=90
141892 On ch=1 n=c#5 v=0
141892 On ch=1 n=a#4 v=78
141930 On ch=1 n=f#4 v=92
142002 On ch=1 n=c#5 v=104
142040 On ch=1 n=a#4 v=0
142070 On ch=1 n=d#5 v=101
142096 On ch=1 n=f#4 v=0
142108 On ch=1 n=c#5 v=0
142126 On ch=1 n=f#5 v=99
142164 On ch=1 n=d#5 v=0
142182 On ch=1 n=a#5 v=100
142196 On ch=1 n=f#5 v=0
142238 On ch=1 n=c#6 v=82
142250 On ch=1 n=a#5 v=0
142270 On ch=1 n=f#6 v=100
142368 On ch=1 n=f#6 v=0
142370 On ch=1 n=a#5 v=95
142400 On ch=1 n=d#5 v=65
142416 On ch=1 n=c#6 v=0
142426 On ch=1 n=f#5 v=93
142450 On ch=1 n=a#5 v=0
142460 On ch=1 n=c#5 v=86
142476 On ch=1 n=d#5 v=0
142490 On ch=1 n=f#5 v=0
142522 On ch=1 n=a#4 v=76
142530 On ch=1 n=c#5 v=0
142556 On ch=1 n=f#4 v=63
142560 On ch=1 n=a#4 v=0
142586 On ch=1 n=f#4 v=0
142628 On ch=1 n=d#4 v=98
142704 On ch=1 n=d#4 v=0
142732 On ch=1 n=c#4 v=61
142764 On ch=1 n=c#4 v=0
142798 On ch=1 n=f#3 v=58
142872 On ch=1 n=a#3 v=91
142906 On ch=1 n=c#4 v=91
142968 On ch=1 n=d#4 v=99
143032 On ch=1 n=f#4 v=97
143088 On ch=1 n=a#4 v=99
143112 On ch=1 n=f#4 v=0
143116 On ch=1 n=c#4 v=0
143130 On ch=1 n=d#4 v=0
143138 On ch=1 n=a#3 v=0
143142 On ch=1 n=c#5 v=98
143180 On ch=1 n=a#4 v=0
143186 On ch=1 n=f#3 v=0
143190 On ch=1 n=f#5 v=104
143214 On ch=1 n=c#5 v=0
143254 On ch=1 n=c#5 v=84
143290 On ch=1 n=a#4 v=89
143314 On ch=1 n=f#5 v=0
143346 On ch=1 n=c#5 v=0
143358 On ch=1 n=f#4 v=95
143400 On ch=1 n=a#4 v=0
143428 On ch=1 n=f#4 v=0
143436 On ch=1 n=d#4 v=74
143520 On ch=1 n=a#3 v=81
143546 On ch=1 n=d#4 v=0
143584 On ch=1 n=f#3 v=74
143614 On ch=1 n=a#3 v=0
143646 On ch=1 n=d#3 v=95
143692 On ch=1 n=f#3 v=0
143732 On ch=1 n=d#3 v=0
143732 On ch=1 n=c#4 v=99
143806 On ch=1 n=f#4 v=98
143910 On ch=1 n=a#4 v=93
143992 On ch=1 n=c#5 v=93
144064 On ch=1 n=f#4 v=0
144070 On ch=1 n=a#4 v=0
144088 On ch=1 n=a#3 v=94
144090 On ch=1 n=c#4 v=0
144096 On ch=1 n=c#5 v=0
144178 On ch=1 n=f#3 v=73
144186 On ch=1 n=a#3 v=0
144256 On ch=1 n=c#3 v=87
144272 On ch=1 n=f#3 v=0
144334 On ch=1 n=a#2 v=103
144372 On ch=1 n=c#3 v=0
144416 On ch=1 n=g#3 v=85
144446 On ch=1 n=a#2 v=0
144490 On ch=1 n=a#3 v=85
144536 On ch=1 n=g#3 v=0
144584 On ch=1 n=c#4 v=79
144608 On ch=1 n=a#3 v=0
144634 On ch=1 n=c#4 v=0
144656 On ch=1 n=g#4 v=95
144734 On ch=1 n=g#4 v=0
144762 On ch=1 n=f#3 v=75
144870 On ch=1 n=c#3 v=72
144878 On ch=1 n=f#3 v=0
144954 On ch=1 n=a#2 v=75
144972 On ch=1 n=c#3 v=0
145064 On ch=1 n=f#2 v=81
145100 On ch=1 n=a#2 v=0
145134 On ch=1 n=f#2 v=0
145490 On ch=1 n=a1 v=107
145610 Par ch=1 c=64 v=63
145624 Par ch=1 c=64 v=0
145702 Par ch=1 c=64 v=63
145712 Par ch=1 c=64 v=127
145728 On ch=1 n=c#3 v=54
145764 On ch=1 n=d#3 v=25
145808 On ch=1 n=c#3 v=0
145858 On ch=1 n=f#3 v=44
145880 On ch=1 n=d#3 v=0
145922 On ch=1 n=g#3 v=24
145958 On ch=1 n=a#3 v=28
145962 On ch=1 n=f#3 v=0
146000 On ch=1 n=g#3 v=0
146004 On ch=1 n=c#4 v=34
146034 On ch=1 n=a#3 v=0
146042 On ch=1 n=d#4 v=32
146080 On ch=1 n=c#4 v=0
146084 On ch=1 n=f#4 v=45
146092 On ch=1 n=g#2 v=96
146094 On ch=1 n=a1 v=0
146114 On ch=1 n=d#4 v=0
146126 On ch=1 n=g#4 v=19
146156 On ch=1 n=g#2 v=0
146156 On ch=1 n=a#4 v=56
146174 On ch=1 n=f#4 v=0
146206 On ch=1 n=c#5 v=53
146212 On ch=1 n=g#4 v=0
146252 On ch=1 n=a#4 v=0
146252 On ch=1 n=d#5 v=21
146298 On ch=1 n=f#5 v=68
146304 On ch=1 n=c#5 v=0
146338 On ch=1 n=g#5 v=51
146342 On ch=1 n=d#5 v=0
146382 On ch=1 n=a#5 v=47
146396 On ch=1 n=f#5 v=0
146426 On ch=1 n=g#3 v=92
146426 On ch=1 n=c#6 v=70
146432 On ch=1 n=g#5 v=0
146460 On ch=1 n=a#5 v=0
146462 On ch=1 n=d#6 v=71
146504 On ch=1 n=c#6 v=0
146506 On ch=1 n=f#6 v=68
146534 On ch=1 n=d#6 v=0
146540 On ch=1 n=g#6 v=73
146582 On ch=1 n=f#6 v=0
146586 On ch=1 n=a#6 v=58
146618 On ch=1 n=g#6 v=0
146642 On ch=1 n=c#7 v=84
146652 On ch=1 n=a#6 v=0
146706 On ch=1 n=d#7 v=56
146726 On ch=1 n=c#7 v=0
146764 On ch=1 n=d#7 v=0
146822 On ch=1 n=g#4 v=107
146872 On ch=1 n=g#3 v=0
146964 On ch=1 n=g#7 v=40
146970 On ch=1 n=f#7 v=91
146992 On ch=1 n=g#7 v=0
147006 On ch=1 n=d#7 v=85
147008 On ch=1 n=f#7 v=0
147054 On ch=1 n=c#7 v=68
147068 On ch=1 n=d#7 v=0
147072 On ch=1 n=g#4 v=0
147104 On ch=1 n=a#6 v=79
147114 On ch=1 n=c#7 v=0
147150 On ch=1 n=g#6 v=37
147180 On ch=1 n=a#6 v=0
147180 On ch=1 n=f#6 v=56
147216 On ch=1 n=g#6 v=0
147234 On ch=1 n=d#6 v=80
147254 On ch=1 n=f#6 v=0
147282 On ch=1 n=c#6 v=55
147312 On ch=1 n=d#6 v=0
147336 On ch=1 n=a#5 v=73
147358 On ch=1 n=c#6 v=0
147376 On ch=1 n=g#5 v=47
147414 On ch=1 n=g#3 v=100
147418 On ch=1 n=a#5 v=0
147418 On ch=1 n=f#5 v=47
147460 On ch=1 n=g#5 v=0
147478 On ch=1 n=d#5 v=51
147496 On ch=1 n=g#3 v=0
147502 On ch=1 n=f#5 v=0
147528 On ch=1 n=c#5 v=30
147566 On ch=1 n=d#5 v=0
147582 On ch=1 n=a#4 v=46
147610 On ch=1 n=c#5 v=0
147618 On ch=1 n=g#4 v=34
147664 On ch=1 n=f#4 v=46
147672 On ch=1 n=a#4 v=0
147706 On ch=1 n=g#4 v=0
147716 On ch=1 n=d#4 v=70
147746 On ch=1 n=f#4 v=0
147758 On ch=1 n=c#4 v=47
147794 On ch=1 n=d#4 v=0
147812 On ch=1 n=a#3 v=70
147838 On ch=1 n=c#4 v=0
147858 On ch=1 n=g#3 v=51
147898 On ch=1 n=a#3 v=0
147908 On ch=1 n=f#3 v=42
147960 On ch=1 n=g#3 v=0
148034 On ch=1 n=f#3 v=0
148082 On ch=1 n=g#2 v=94
148350 On ch=1 n=f#4 v=103
148380 Par ch=1 c=64 v=63
148392 Par ch=1 c=64 v=0
148440 Par ch=1 c=64 v=63
148460 Par ch=1 c=64 v=127
148474 On ch=1 n=a#4 v=87
148578 On ch=1 n=c#5 v=95
148584 On ch=1 n=a#4 v=0
148648 On ch=1 n=f#4 v=0
148662 On ch=1 n=a#4 v=78
148684 On ch=1 n=c#5 v=0
148756 On ch=1 n=a#4 v=0
148758 On ch=1 n=d#4 v=105
148814 On ch=1 n=g#3 v=41
148864 On ch=1 n=f#4 v=85
148912 On ch=1 n=g#2 v=0
148928 On ch=1 n=g#3 v=0
148964 On ch=1 n=a#4 v=82
148968 On ch=1 n=f#4 v=0
149034 On ch=1 n=d#4 v=0
149036 On ch=1 n=f#4 v=70
149072 On ch=1 n=a#4 v=0
149170 On ch=1 n=f#4 v=0
149188 On ch=1 n=c#4 v=88
149250 On ch=1 n=g#4 v=86
149282 On ch=1 n=g#4 v=0
149334 On ch=1 n=d#4 v=79
149420 On ch=1 n=d#4 v=0
149428 On ch=1 n=f#4 v=79
149440 On ch=1 n=c#4 v=0
149512 On ch=1 n=d#4 v=63
149524 On ch=1 n=f#4 v=0
149594 On ch=1 n=d#4 v=0
149604 On ch=1 n=a#3 v=87
149704 On ch=1 n=c#4 v=81
149780 On ch=1 n=a#3 v=0
149806 On ch=1 n=c#4 v=0
149816 On ch=1 n=d#4 v=71
149900 On ch=1 n=g#3 v=63
149910 On ch=1 n=c#4 v=62
149912 On ch=1 n=d#4 v=0
149946 On ch=1 n=g#3 v=0
149982 On ch=1 n=c#4 v=0
150032 On ch=1 n=f#3 v=80
150126 On ch=1 n=f#3 v=0
150130 On ch=1 n=a#3 v=72
150232 On ch=1 n=c#4 v=70
150234 On ch=1 n=a#3 v=0
150336 On ch=1 n=c#4 v=0
150346 On ch=1 n=a#3 v=64
150450 On ch=1 n=a#3 v=0
150466 On ch=1 n=g#2 v=94
150802 Par ch=1 c=64 v=63
150828 Par ch=1 c=64 v=0
150916 On ch=1 n=g#3 v=92
150956 Par ch=1 c=64 v=63
150970 Par ch=1 c=64 v=127
151042 On ch=1 n=g#2 v=0
151096 On ch=1 n=g#3 v=0
151240 On ch=1 n=g#4 v=115
151288 On ch=1 n=g#4 v=0
151676 On ch=1 n=f#5 v=113
151688 On ch=1 n=f#4 v=97
151692 On ch=1 n=c#5 v=100
151694 On ch=1 n=a#4 v=88
151712 On ch=1 n=f#4 v=0
152026 On ch=1 n=f#4 v=5
152300 On ch=1 n=g#3 v=70
152322 On ch=1 n=c#5 v=0
152376 On ch=1 n=f#4 v=0
152416 On ch=1 n=a#4 v=0
152426 On ch=1 n=f#5 v=0
153000 On ch=1 n=g#2 v=59
153050 On ch=1 n=f5 v=81
153056 On ch=1 n=g#4 v=61
153068 On ch=1 n=f4 v=49
153070 On ch=1 n=c5 v=76
153086 On ch=1 n=g#3 v=0
153150 Par ch=1 c=64 v=63
153170 Par ch=1 c=64 v=0
153436 Par ch=1 c=64 v=63
153442 Par ch=1 c=64 v=127
153578 On ch=1 n=g#3 v=76
153614 On ch=1 n=g#2 v=0
153638 On ch=1 n=g#3 v=0
154002 On ch=1 n=g#5 v=62
154166 On ch=1 n=g#5 v=0
154172 On ch=1 n=f4 v=0
154260 On ch=1 n=g#4 v=0
154534 On ch=1 n=g#4 v=49
154592 On ch=1 n=g#4 v=0
154942 Par ch=1 c=67 v=127
155180 On ch=1 n=g#2 v=58
155600 On ch=1 n=g#3 v=70
155628 On ch=1 n=f5 v=0
155634 On ch=1 n=g#2 v=0
155668 On ch=1 n=g#3 v=0
155672 On ch=1 n=c5 v=0
155944 On ch=1 n=g#4 v=63
156334 On ch=1 n=g#4 v=0
156400 On ch=1 n=c5 v=73
156422 On ch=1 n=g4 v=29
156422 On ch=1 n=c4 v=35
156434 On ch=1 n=e4 v=56
157086 On ch=1 n=g#3 v=47
157170 On ch=1 n=c4 v=0
157186 On ch=1 n=g#3 v=0
157226 On ch=1 n=e4 v=0
157238 On ch=1 n=c5 v=0
157262 On ch=1 n=g4 v=0
157730 Par ch=1 c=67 v=0
157990 On ch=1 n=c#2 v=110
158030 On ch=1 n=d#5 v=112
158032 On ch=1 n=a4 v=84
158040 On ch=1 n=g4 v=75
158044 On ch=1 n=e4 v=87
158140 Par ch=1 c=64 v=63
158150 Par ch=1 c=64 v=0
158286 Par ch=1 c=64 v=63
158290 Par ch=1 c=64 v=127
158506 On ch=1 n=g#2 v=113
158562 On ch=1 n=d#5 v=0
158564 On ch=1 n=c#2 v=0
158666 On ch=1 n=g#2 v=0
158726 On ch=1 n=g#2 v=80
158726 On ch=1 n=c5 v=104
159044 On ch=1 n=g#3 v=112
159106 On ch=1 n=g#2 v=0
159160 On ch=1 n=c5 v=0
159164 On ch=1 n=e4 v=0
159166 On ch=1 n=g#3 v=0
159188 On ch=1 n=g4 v=0
159210 On ch=1 n=a4 v=0
159338 On ch=1 n=g#4 v=95
159396 Par ch=1 c=64 v=63
159396 Par ch=1 c=64 v=127
159422 On ch=1 n=g4 v=63
159422 On ch=1 n=a4 v=62
159464 On ch=1 n=c#5 v=87
159496 On ch=1 n=g#4 v=0
159496 On ch=1 n=e5 v=76
159510 On ch=1 n=g4 v=0
159522 On ch=1 n=a4 v=0
159540 On ch=1 n=c#5 v=0
159540 On ch=1 n=g5 v=70
159564 On ch=1 n=a5 v=56
159568 On ch=1 n=e5 v=0
159600 On ch=1 n=g5 v=0
159604 On ch=1 n=a5 v=0
159648 On ch=1 n=a5 v=72
159654 On ch=1 n=g5 v=76
159704 On ch=1 n=c#6 v=110
159718 On ch=1 n=g5 v=0
159732 On ch=1 n=a5 v=0
159732 On ch=1 n=e6 v=87
159762 On ch=1 n=c#6 v=0
159792 On ch=1 n=g6 v=82
159822 On ch=1 n=g#5 v=103
159824 On ch=1 n=a6 v=121
159834 On ch=1 n=e6 v=0
159890 On ch=1 n=g6 v=0
159932 On ch=1 n=g6 v=34
160190 On ch=1 n=g#5 v=0
160238 On ch=1 n=a6 v=0
160248 On ch=1 n=g6 v=0
160400 On ch=1 n=g#6 v=109
160460 On ch=1 n=g#6 v=0
160650 On ch=1 n=g6 v=101
160712 On ch=1 n=e6 v=49
160770 On ch=1 n=c#6 v=100
160804 On ch=1 n=a5 v=76
160806 On ch=1 n=g5 v=78
160846 On ch=1 n=e6 v=0
160864 On ch=1 n=c#6 v=0
160866 On ch=1 n=g5 v=0
160868 On ch=1 n=g#5 v=112
160872 On ch=1 n=a5 v=0
160922 On ch=1 n=g6 v=0
160942 On ch=1 n=a5 v=81
160944 On ch=1 n=b5 v=85
160950 On ch=1 n=g#5 v=0
160992 On ch=1 n=d#6 v=108
161012 On ch=1 n=f#6 v=105
161042 On ch=1 n=a5 v=0
161048 On ch=1 n=b5 v=0
161072 On ch=1 n=a6 v=94
161106 On ch=1 n=d#6 v=0
161108 On ch=1 n=b6 v=114
161130 On ch=1 n=f#6 v=0
161490 On ch=1 n=b6 v=0
161588 On ch=1 n=g#4 v=106
161596 On ch=1 n=a6 v=0
161862 On ch=1 n=a6 v=109
161986 Par ch=1 c=64 v=63
162000 Par ch=1 c=64 v=127
162002 On ch=1 n=f#6 v=106
162124 On ch=1 n=d#6 v=108
162198 On ch=1 n=a6 v=0
162208 On ch=1 n=a5 v=90
162208 On ch=1 n=b5 v=85
162214 On ch=1 n=g#4 v=0
162216 On ch=1 n=f#6 v=0
162242 On ch=1 n=d#6 v=0
162266 On ch=1 n=b5 v=0
162284 On ch=1 n=a5 v=0
162300 On ch=1 n=g#5 v=105
162352 On ch=1 n=g#5 v=0
162488 On ch=1 n=a5 v=88
162652 On ch=1 n=f#5 v=106
162742 On ch=1 n=d#5 v=82
162810 On ch=1 n=a5 v=0
162820 On ch=1 n=a4 v=90
162824 On ch=1 n=b4 v=93
162840 On ch=1 n=f#5 v=0
162876 On ch=1 n=d#5 v=0
162890 On ch=1 n=b4 v=0
162912 On ch=1 n=a4 v=0
162912 On ch=1 n=g#3 v=112
163040 On ch=1 n=g#3 v=0
163052 On ch=1 n=b4 v=96
163060 On ch=1 n=a4 v=103
163226 On ch=1 n=f#4 v=101
163238 On ch=1 n=b4 v=0
163276 On ch=1 n=a4 v=0
163362 On ch=1 n=f#4 v=0
163364 On ch=1 n=d#4 v=110
163464 On ch=1 n=a3 v=83
163472 On ch=1 n=b3 v=97
163482 On ch=1 n=d#4 v=0
163520 On ch=1 n=b3 v=0
163542 On ch=1 n=a3 v=0
163546 On ch=1 n=g#2 v=100
163612 On ch=1 n=b3 v=102
163614 On ch=1 n=a3 v=103
163658 On ch=1 n=g#2 v=0
163776 On ch=1 n=f#3 v=105
163792 On ch=1 n=b3 v=0
163814 On ch=1 n=a3 v=0
163888 On ch=1 n=f#3 v=0
163928 On ch=1 n=d#3 v=105
164010 On ch=1 n=d#3 v=0
164082 On ch=1 n=a2 v=89
164084 On ch=1 n=b2 v=96
164146 On ch=1 n=a2 v=0
164148 On ch=1 n=b2 v=0
164342 On ch=1 n=c#2 v=119
164452 Par ch=1 c=64 v=63
164466 Par ch=1 c=64 v=0
164534 Par ch=1 c=64 v=63
164544 Par ch=1 c=64 v=127
164642 On ch=1 n=c#2 v=0
164732 On ch=1 n=g#2 v=95
164910 On ch=1 n=g4 v=76
164912 On ch=1 n=a4 v=80
164930 On ch=1 n=g#2 v=0
164982 On ch=1 n=c#5 v=62
165020 On ch=1 n=g4 v=0
165022 On ch=1 n=e5 v=68
165034 On ch=1 n=a4 v=0
165048 On ch=1 n=g5 v=73
165062 On ch=1 n=a5 v=76
165066 On ch=1 n=c#5 v=0
165100 On ch=1 n=e5 v=0
165128 On ch=1 n=g5 v=0
165134 On ch=1 n=g#3 v=93
165138 On ch=1 n=a5 v=0
165180 On ch=1 n=g#3 v=0
165212 On ch=1 n=g5 v=71
165214 On ch=1 n=a5 v=67
165284 On ch=1 n=c#6 v=108
165288 On ch=1 n=g5 v=0
165292 On ch=1 n=a5 v=0
165326 On ch=1 n=e6 v=77
165376 On ch=1 n=c#6 v=0
165390 On ch=1 n=g6 v=106
165508 On ch=1 n=a6 v=114
165510 On ch=1 n=g#5 v=115
165562 On ch=1 n=e6 v=0
165738 On ch=1 n=g#5 v=0
165914 On ch=1 n=a6 v=0
165916 On ch=1 n=g6 v=0
165978 On ch=1 n=g#6 v=118
166034 On ch=1 n=g#6 v=0
166126 On ch=1 n=g6 v=101
166194 On ch=1 n=e6 v=83
166244 On ch=1 n=c#6 v=108
166272 On ch=1 n=g6 v=0
166282 On ch=1 n=g5 v=80
166282 On ch=1 n=a5 v=81
166294 On ch=1 n=e6 v=0
166328 On ch=1 n=c#6 v=0
166350 On ch=1 n=g5 v=0
166352 On ch=1 n=g#5 v=114
166360 On ch=1 n=a5 v=0
166418 On ch=1 n=g#5 v=0
166426 On ch=1 n=a5 v=71
166430 On ch=1 n=b5 v=75
166484 On ch=1 n=d#6 v=106
166508 On ch=1 n=f#6 v=99
166540 On ch=1 n=a5 v=0
166544 On ch=1 n=b5 v=0
166564 On ch=1 n=a6 v=87
166580 On ch=1 n=d#6 v=0
166604 On ch=1 n=f#6 v=0
166610 On ch=1 n=b6 v=113
166778 On ch=1 n=a6 v=0
166786 On ch=1 n=b6 v=0
166954 On ch=1 n=g#4 v=118
167260 On ch=1 n=a6 v=113
167444 On ch=1 n=f#6 v=103
167572 On ch=1 n=d#6 v=103
167612 Par ch=1 c=64 v=63
167616 Par ch=1 c=64 v=127
167640 On ch=1 n=a6 v=0
167656 On ch=1 n=a5 v=90
167658 On ch=1 n=b5 v=89
167674 On ch=1 n=f#6 v=0
167698 On ch=1 n=d#6 v=0
167712 On ch=1 n=b5 v=0
167740 On ch=1 n=a5 v=0
167746 On ch=1 n=g#5 v=108
167776 On ch=1 n=g#4 v=0
167800 On ch=1 n=g#5 v=0
167942 On ch=1 n=a5 v=85
168070 On ch=1 n=f#5 v=106
168164 On ch=1 n=d#5 v=88
168242 On ch=1 n=a5 v=0
168252 On ch=1 n=b4 v=83
168252 On ch=1 n=a4 v=86
168266 On ch=1 n=f#5 v=0
168302 On ch=1 n=d#5 v=0
168336 On ch=1 n=b4 v=0
168354 On ch=1 n=g#3 v=107
168360 On ch=1 n=a4 v=0
168484 On ch=1 n=b4 v=90
168496 On ch=1 n=g#3 v=0
168504 On ch=1 n=a4 v=81
168676 On ch=1 n=f#4 v=103
168696 On ch=1 n=b4 v=0
168730 On ch=1 n=a4 v=0
168832 On ch=1 n=d#4 v=101
168858 On ch=1 n=f#4 v=0
168950 On ch=1 n=a3 v=82
168954 On ch=1 n=b3 v=88
168966 On ch=1 n=d#4 v=0
169064 On ch=1 n=b3 v=0
169072 On ch=1 n=a3 v=0
169096 On ch=1 n=g#2 v=88
169138 On ch=1 n=b3 v=85
169138 On ch=1 n=a3 v=90
169218 On ch=1 n=g#2 v=0
169362 On ch=1 n=b3 v=0
169380 On ch=1 n=f#3 v=85
169402 On ch=1 n=a3 v=0
169498 On ch=1 n=f#3 v=0
169544 On ch=1 n=d#3 v=95
169612 On ch=1 n=d#3 v=0
169752 On ch=1 n=a2 v=84
169756 On ch=1 n=b2 v=85
169842 On ch=1 n=b2 v=0
169842 On ch=1 n=a2 v=0
170082 On ch=1 n=c#2 v=97
170164 Par ch=1 c=64 v=63
170194 Par ch=1 c=64 v=0
170546 Par ch=1 c=64 v=63
170548 Par ch=1 c=64 v=127
170604 On ch=1 n=g#2 v=70
170618 On ch=1 n=c#2 v=0
171246 On ch=1 n=g#3 v=53
171288 On ch=1 n=g#2 v=0
171622 On ch=1 n=a4 v=85
171630 On ch=1 n=g#3 v=0
171632 On ch=1 n=f4 v=76
171926 On ch=1 n=g#4 v=54
172330 On ch=1 n=g#4 v=0
172772 On ch=1 n=g#3 v=46
172926 On ch=1 n=g#3 v=0
173364 On ch=1 n=g#2 v=65
173994 On ch=1 n=g#2 v=0
174002 On ch=1 n=g#3 v=45
174450 On ch=1 n=b4 v=49
174550 On ch=1 n=a4 v=0
174806 On ch=1 n=g#4 v=45
174918 On ch=1 n=g#3 v=0
175146 On ch=1 n=g#4 v=0
175716 On ch=1 n=g#3 v=26
175886 On ch=1 n=g#3 v=0
175984 On ch=1 n=f4 v=0
176022 On ch=1 n=b4 v=0
176828 Par ch=1 c=67 v=127
176856 On ch=1 n=c#2 v=39
177288 On ch=1 n=f3 v=44
177384 Par ch=1 c=64 v=63
177402 Par ch=1 c=64 v=127
177468 On ch=1 n=g#3 v=60
177504 On ch=1 n=f3 v=0
177564 On ch=1 n=g#2 v=64
177578 On ch=1 n=c#2 v=0
177614 On ch=1 n=a#3 v=63
177624 On ch=1 n=g#3 v=0
177746 On ch=1 n=d#4 v=70
177774 On ch=1 n=a#3 v=0
177816 On ch=1 n=g#2 v=0
177836 On ch=1 n=d#4 v=0
177900 On ch=1 n=g#3 v=67
177958 On ch=1 n=f4 v=32
178016 On ch=1 n=g#3 v=0
178050 On ch=1 n=f4 v=0
178080 On ch=1 n=g#4 v=67
178174 On ch=1 n=d#5 v=72
178176 On ch=1 n=g#4 v=0
178280 On ch=1 n=c#5 v=75
178288 On ch=1 n=d#5 v=0
178398 On ch=1 n=g#4 v=93
178402 On ch=1 n=c#5 v=0
178456 On ch=1 n=g#4 v=0
178518 On ch=1 n=f4 v=42
178650 On ch=1 n=g#4 v=64
178676 On ch=1 n=f4 v=0
178732 On ch=1 n=d#5 v=65
178802 On ch=1 n=g#4 v=0
178840 On ch=1 n=c#5 v=70
178948 On ch=1 n=d#5 v=0
178948 On ch=1 n=a#4 v=67
178994 On ch=1 n=c#5 v=0
179042 On ch=1 n=f4 v=61
179078 On ch=1 n=a#4 v=0
179150 On ch=1 n=f4 v=0
179170 On ch=1 n=a#5 v=93
179252 On ch=1 n=a#5 v=0
179322 On ch=1 n=f4 v=48
179436 On ch=1 n=g#4 v=66
179452 On ch=1 n=f4 v=0
179548 On ch=1 n=d#5 v=43
179588 On ch=1 n=g#4 v=0
179634 On ch=1 n=c#5 v=67
179700 On ch=1 n=d#5 v=0
179744 On ch=1 n=a#4 v=57
179766 On ch=1 n=c#5 v=0
179838 On ch=1 n=f4 v=48
179854 On ch=1 n=a#4 v=0
179914 On ch=1 n=g#2 v=88
179922 On ch=1 n=f4 v=0
179984 On ch=1 n=g#2 v=0
180058 On ch=1 n=f4 v=51
180180 On ch=1 n=g#4 v=65
180200 On ch=1 n=f4 v=0
180288 On ch=1 n=d#5 v=48
180324 On ch=1 n=g#4 v=0
180378 On ch=1 n=c#5 v=63
180420 On ch=1 n=d#5 v=0
180460 On ch=1 n=a#4 v=64
180484 On ch=1 n=c#5 v=0
180562 On ch=1 n=f4 v=59
180574 On ch=1 n=a#4 v=0
180654 On ch=1 n=f4 v=0
180656 On ch=1 n=g#5 v=95
180718 On ch=1 n=g#5 v=0
180774 On ch=1 n=f4 v=40
180866 On ch=1 n=g#4 v=63
180880 On ch=1 n=f4 v=0
180976 On ch=1 n=d#5 v=61
181002 On ch=1 n=g#4 v=0
181076 On ch=1 n=c#5 v=57
181148 On ch=1 n=d#5 v=0
181174 On ch=1 n=a#4 v=66
181212 On ch=1 n=c#5 v=0
181272 On ch=1 n=f4 v=57
181284 On ch=1 n=a#4 v=0
181364 On ch=1 n=f4 v=0
181390 On ch=1 n=a#4 v=83
181440 On ch=1 n=a#4 v=0
181518 On ch=1 n=f4 v=41
181654 On ch=1 n=f4 v=0
181656 On ch=1 n=g#4 v=53
181750 On ch=1 n=d#5 v=48
181796 On ch=1 n=g#4 v=0
181844 On ch=1 n=c#5 v=55
181900 On ch=1 n=d#5 v=0
181938 On ch=1 n=a#4 v=59
181976 On ch=1 n=c#5 v=0
182040 On ch=1 n=f4 v=44
182048 On ch=1 n=a#4 v=0
182158 On ch=1 n=f4 v=0
182160 On ch=1 n=c#3 v=76
182198 Par ch=1 c=64 v=63
182216 Par ch=1 c=64 v=0
182266 Par ch=1 c=64 v=63
182282 On ch=1 n=f4 v=60
182292 Par ch=1 c=64 v=127
182420 On ch=1 n=g#4 v=71
182428 On ch=1 n=c#3 v=0
182460 On ch=1 n=f4 v=0
182538 On ch=1 n=d#5 v=58
182580 On ch=1 n=g#4 v=0
182624 On ch=1 n=c#5 v=64
182698 On ch=1 n=d#5 v=0
182726 On ch=1 n=a#4 v=70
182764 On ch=1 n=c#5 v=0
182802 On ch=1 n=f4 v=67
182822 On ch=1 n=a#4 v=0
182896 On ch=1 n=f4 v=0
182920 On ch=1 n=g#4 v=95
182972 On ch=1 n=g#4 v=0
183040 On ch=1 n=f4 v=58
183148 On ch=1 n=g#4 v=80
183200 On ch=1 n=f4 v=0
183256 On ch=1 n=d#5 v=68
183316 On ch=1 n=g#4 v=0
183342 On ch=1 n=c#5 v=77
183434 On ch=1 n=a#4 v=76
183446 On ch=1 n=d#5 v=0
183500 On ch=1 n=c#5 v=0
183510 On ch=1 n=f4 v=68
183554 On ch=1 n=a#4 v=0
183620 On ch=1 n=f4 v=0
183624 On ch=1 n=a#5 v=113
183674 On ch=1 n=a#5 v=0
183760 On ch=1 n=f4 v=50
183856 On ch=1 n=g#4 v=73
183874 On ch=1 n=f4 v=0
183974 On ch=1 n=d#5 v=64
184008 On ch=1 n=g#4 v=0
184066 On ch=1 n=c#5 v=64
184152 On ch=1 n=d#5 v=0
184168 On ch=1 n=a#4 v=63
184220 On ch=1 n=c#5 v=0
184250 On ch=1 n=f4 v=53
184276 On ch=1 n=a#4 v=0
184352 On ch=1 n=f4 v=0
184368 On ch=1 n=g#3 v=85
184472 Par ch=1 c=64 v=63
184486 Par ch=1 c=64 v=0
184516 On ch=1 n=f4 v=53
184528 Par ch=1 c=64 v=63
184552 Par ch=1 c=64 v=127
184630 On ch=1 n=g#4 v=62
184632 On ch=1 n=g#3 v=0
184682 On ch=1 n=f4 v=0
184746 On ch=1 n=d#5 v=48
184768 On ch=1 n=g#4 v=0
184842 On ch=1 n=c#5 v=51
184894 On ch=1 n=d#5 v=0
184938 On ch=1 n=a#4 v=61
184962 On ch=1 n=c#5 v=0
185020 On ch=1 n=f4 v=52
185040 On ch=1 n=a#4 v=0
185108 On ch=1 n=f4 v=0
185124 On ch=1 n=g#5 v=78
185206 On ch=1 n=g#5 v=0
185232 On ch=1 n=f4 v=43
185342 On ch=1 n=g#4 v=59
185378 On ch=1 n=f4 v=0
185448 On ch=1 n=d#5 v=53
185488 On ch=1 n=g#4 v=0
185542 On ch=1 n=c#5 v=56
185618 On ch=1 n=d#5 v=0
185646 On ch=1 n=a#4 v=59
185676 On ch=1 n=c#5 v=0
185738 On ch=1 n=f4 v=49
185748 On ch=1 n=a#4 v=0
185818 On ch=1 n=f4 v=0
185864 On ch=1 n=a#4 v=78
185916 On ch=1 n=a#4 v=0
185982 On ch=1 n=f4 v=44
186116 On ch=1 n=g#4 v=44
186150 On ch=1 n=f4 v=0
186210 On ch=1 n=d#5 v=43
186252 On ch=1 n=g#4 v=0
186312 On ch=1 n=c#5 v=54
186364 On ch=1 n=d#5 v=0
186424 On ch=1 n=a#4 v=47
186486 On ch=1 n=c#5 v=0
186508 On ch=1 n=f4 v=40
186556 On ch=1 n=a#4 v=0
186622 On ch=1 n=f4 v=0
186668 On ch=1 n=c#4 v=69
186686 Par ch=1 c=64 v=63
186704 Par ch=1 c=64 v=0
186764 Par ch=1 c=64 v=63
186788 Par ch=1 c=64 v=127
186814 On ch=1 n=f4 v=39
186958 On ch=1 n=g#4 v=53
186988 On ch=1 n=c#4 v=0
187026 On ch=1 n=f4 v=0
187096 On ch=1 n=d#5 v=37
187104 On ch=1 n=g#4 v=0
187180 On ch=1 n=c#5 v=60
187226 On ch=1 n=d#5 v=0
187278 On ch=1 n=a#4 v=59
187306 On ch=1 n=c#5 v=0
187364 On ch=1 n=f4 v=38
187382 On ch=1 n=a#4 v=0
187450 On ch=1 n=f4 v=0
187478 On ch=1 n=g#4 v=76
187518 On ch=1 n=g#4 v=0
187612 On ch=1 n=f4 v=49
187740 On ch=1 n=g#4 v=48
187800 On ch=1 n=f4 v=0
187868 On ch=1 n=d#5 v=49
187916 On ch=1 n=g#4 v=0
187948 On ch=1 n=c#5 v=60
187998 On ch=1 n=d#5 v=0
188058 On ch=1 n=a#4 v=60
188078 On ch=1 n=c#5 v=0
188158 On ch=1 n=f4 v=38
188176 On ch=1 n=a#4 v=0
188240 On ch=1 n=f4 v=0
188282 On ch=1 n=a#5 v=78
188354 On ch=1 n=a#5 v=0
188414 On ch=1 n=f4 v=40
188562 On ch=1 n=g#4 v=36
188638 On ch=1 n=f4 v=0
188688 On ch=1 n=d#5 v=39
188738 On ch=1 n=g#4 v=0
188808 On ch=1 n=c#5 v=52
188842 On ch=1 n=d#5 v=0
188938 On ch=1 n=a#4 v=43
188946 On ch=1 n=c#5 v=0
189008 On ch=1 n=f4 v=33
189040 On ch=1 n=a#4 v=0
189102 On ch=1 n=f4 v=0
189214 On ch=1 n=g#4 v=70
189232 Par ch=1 c=64 v=63
189256 Par ch=1 c=64 v=0
189302 Par ch=1 c=64 v=63
189330 Par ch=1 c=64 v=127
189424 On ch=1 n=f4 v=52
189444 On ch=1 n=g#4 v=0
189582 On ch=1 n=g#4 v=51
189586 On ch=1 n=f4 v=0
189714 On ch=1 n=d#5 v=52
189716 On ch=1 n=g#4 v=0
189810 On ch=1 n=c#5 v=56
189832 On ch=1 n=d#5 v=0
189906 On ch=1 n=a#4 v=58
189930 On ch=1 n=c#5 v=0
189992 On ch=1 n=f4 v=43
190012 On ch=1 n=a#4 v=0
190078 On ch=1 n=f4 v=0
190128 On ch=1 n=g#4 v=72
190166 On ch=1 n=g#4 v=0
190262 On ch=1 n=f4 v=36
190396 On ch=1 n=g#4 v=49
190440 On ch=1 n=f4 v=0
190520 On ch=1 n=d#5 v=49
190574 On ch=1 n=g#4 v=0
190668 On ch=1 n=c#5 v=27
190778 On ch=1 n=d#5 v=0
190804 On ch=1 n=a#4 v=52
190840 On ch=1 n=c#5 v=0
190928 On ch=1 n=f4 v=32
190938 On ch=1 n=a#4 v=0
191040 On ch=1 n=f4 v=0
191112 On ch=1 n=a#5 v=58
191184 On ch=1 n=a#5 v=0
191286 On ch=1 n=f4 v=32
191400 On ch=1 n=f4 v=0
191420 On ch=1 n=a#4 v=49
191562 On ch=1 n=c#5 v=70
191572 On ch=1 n=a#4 v=0
191652 On ch=1 n=c#5 v=0
191766 On ch=1 n=f5 v=50
191956 On ch=1 n=a#5 v=67
191968 On ch=1 n=f5 v=0
192186 On ch=1 n=d#6 v=65
192230 On ch=1 n=a#5 v=0
192296 On ch=1 n=d#6 v=0
192508 On ch=1 n=c#4 v=43
192620 On ch=1 n=b6 v=78
192620 Par ch=1 c=64 v=63
192634 Par ch=1 c=64 v=0
192640 On ch=1 n=e6 v=60
192756 Par ch=1 c=64 v=63
192764 Par ch=1 c=64 v=127
192930 On ch=1 n=g#4 v=48
192956 On ch=1 n=c#4 v=0
193098 On ch=1 n=b4 v=63
193118 On ch=1 n=g#4 v=0
193222 On ch=1 n=b4 v=0
193234 On ch=1 n=b6 v=0
193242 On ch=1 n=e5 v=68
193282 On ch=1 n=e6 v=0
193330 On ch=1 n=e5 v=0
193364 On ch=1 n=g#5 v=76
193462 On ch=1 n=b5 v=85
193500 On ch=1 n=g#5 v=0
193586 On ch=1 n=g#6 v=116
193590 On ch=1 n=b5 v=0
193610 On ch=1 n=d#6 v=84
193616 On ch=1 n=e6 v=76
193724 On ch=1 n=e6 v=0
193740 On ch=1 n=b5 v=63
193856 On ch=1 n=g#5 v=71
193866 On ch=1 n=b5 v=0
193884 On ch=1 n=d#6 v=0
193922 On ch=1 n=g#5 v=0
194012 On ch=1 n=e5 v=37
194016 On ch=1 n=g#6 v=0
194110 On ch=1 n=e5 v=0
194122 On ch=1 n=b4 v=76
194224 On ch=1 n=b4 v=0
194226 On ch=1 n=g#4 v=89
194338 On ch=1 n=c#4 v=91
194358 On ch=1 n=g#4 v=0
194466 On ch=1 n=c#4 v=0
194466 On ch=1 n=g#4 v=87
194554 On ch=1 n=b4 v=87
194582 On ch=1 n=g#4 v=0
194680 On ch=1 n=b4 v=0
194692 On ch=1 n=e5 v=75
194724 On ch=1 n=d#6 v=101
194760 On ch=1 n=g#5 v=20
194800 On ch=1 n=e5 v=0
194806 On ch=1 n=b4 v=60
194910 On ch=1 n=g#4 v=72
194914 On ch=1 n=b4 v=0
194960 On ch=1 n=g#5 v=0
194998 On ch=1 n=d#6 v=0
195024 On ch=1 n=c#4 v=81
195040 On ch=1 n=g#4 v=0
195118 On ch=1 n=c#4 v=0
195138 On ch=1 n=g#4 v=59
195216 On ch=1 n=b4 v=67
195248 On ch=1 n=g#4 v=0
195258 On ch=1 n=c#6 v=93
195274 On ch=1 n=b5 v=64
195356 On ch=1 n=b4 v=0
195398 On ch=1 n=e5 v=49
195420 On ch=1 n=b5 v=0
195440 On ch=1 n=c#6 v=0
195478 On ch=1 n=b4 v=54
195480 On ch=1 n=e5 v=0
195566 On ch=1 n=g#4 v=76
195586 On ch=1 n=b4 v=0
195694 On ch=1 n=c#4 v=66
195708 On ch=1 n=g#4 v=0
195726 On ch=1 n=b6 v=87
195736 On ch=1 n=e6 v=77
195760 Par ch=1 c=64 v=63
195770 Par ch=1 c=64 v=0
195806 Par ch=1 c=64 v=63
195834 Par ch=1 c=64 v=127
195844 On ch=1 n=g#4 v=60
195866 On ch=1 n=c#4 v=0
195944 On ch=1 n=b4 v=71
195976 On ch=1 n=g#4 v=0
196022 On ch=1 n=e6 v=0
196050 On ch=1 n=b4 v=0
196066 On ch=1 n=e5 v=73
196072 On ch=1 n=b6 v=0
196132 On ch=1 n=e5 v=0
196180 On ch=1 n=g#5 v=88
196264 On ch=1 n=b5 v=76
196314 On ch=1 n=g#5 v=0
196388 On ch=1 n=b5 v=0
196396 On ch=1 n=g#6 v=110
196404 On ch=1 n=e6 v=77
196408 On ch=1 n=d#6 v=96
196438 On ch=1 n=d#6 v=0
196506 On ch=1 n=e6 v=0
196508 On ch=1 n=g#6 v=0
196518 On ch=1 n=b5 v=71
196618 On ch=1 n=g#5 v=80
196634 On ch=1 n=b5 v=0
196696 On ch=1 n=g#5 v=0
196750 On ch=1 n=e5 v=82
196840 On ch=1 n=e5 v=0
196858 On ch=1 n=b4 v=65
196940 On ch=1 n=g#4 v=80
196944 On ch=1 n=b4 v=0
197060 On ch=1 n=c#4 v=96
197068 On ch=1 n=g#4 v=0
197116 Par ch=1 c=64 v=63
197154 Par ch=1 c=64 v=127
197162 On ch=1 n=g#4 v=80
197210 On ch=1 n=c#4 v=0
197264 On ch=1 n=b4 v=84
197328 On ch=1 n=g#4 v=0
197390 On ch=1 n=e5 v=67
197392 On ch=1 n=b4 v=0
197462 On ch=1 n=d#6 v=98
197468 On ch=1 n=g#5 v=80
197490 On ch=1 n=e5 v=0
197504 On ch=1 n=b4 v=47
197536 On ch=1 n=g#5 v=0
197572 On ch=1 n=g#4 v=64
197578 On ch=1 n=b4 v=0
197702 On ch=1 n=g#4 v=0
197710 On ch=1 n=c#4 v=84
197732 On ch=1 n=d#6 v=0
197804 On ch=1 n=c#4 v=0
197820 On ch=1 n=g#4 v=57
197912 On ch=1 n=c#6 v=91
197912 On ch=1 n=b4 v=56
197924 On ch=1 n=b5 v=66
197946 On ch=1 n=g#4 v=0
198014 On ch=1 n=c#6 v=0
198040 On ch=1 n=b4 v=0
198064 On ch=1 n=e5 v=56
198144 On ch=1 n=b4 v=55
198150 On ch=1 n=e5 v=0
198174 On ch=1 n=b5 v=0
198232 On ch=1 n=g#4 v=73
198238 On ch=1 n=b4 v=0
198366 On ch=1 n=b6 v=70
198368 On ch=1 n=g#4 v=0
198372 On ch=1 n=c#4 v=63
198376 On ch=1 n=e6 v=56
198402 Par ch=1 c=64 v=63
198420 Par ch=1 c=64 v=0
198448 Par ch=1 c=64 v=63
198484 Par ch=1 c=64 v=127
198516 On ch=1 n=g#4 v=56
198532 On ch=1 n=c#4 v=0
198656 On ch=1 n=b4 v=55
198700 On ch=1 n=g#4 v=0
198808 On ch=1 n=b4 v=0
198826 On ch=1 n=d#5 v=104
198912 On ch=1 n=d#5 v=0
198916 On ch=1 n=e6 v=0
198936 On ch=1 n=b6 v=0
199002 On ch=1 n=g#5 v=81
199114 On ch=1 n=b5 v=52
199150 On ch=1 n=g#5 v=0
199240 On ch=1 n=b5 v=0
199260 On ch=1 n=g#6 v=106
199270 On ch=1 n=e6 v=72
199274 On ch=1 n=d#6 v=80
199320 On ch=1 n=d#6 v=0
199360 On ch=1 n=e6 v=0
199376 On ch=1 n=b5 v=58
199432 On ch=1 n=g#6 v=0
199482 On ch=1 n=g#5 v=76
199496 On ch=1 n=b5 v=0
199552 On ch=1 n=g#5 v=0
199610 On ch=1 n=e5 v=79
199700 On ch=1 n=e5 v=0
199724 On ch=1 n=b4 v=65
199794 On ch=1 n=g#4 v=72
199802 On ch=1 n=b4 v=0
199908 On ch=1 n=g#4 v=0
199916 On ch=1 n=c#4 v=83
199944 On ch=1 n=g#5 v=116
200058 Par ch=1 c=64 v=63
200060 On ch=1 n=g#4 v=70
200070 Par ch=1 c=64 v=127
200102 On ch=1 n=c#4 v=0
200164 On ch=1 n=b4 v=80
200234 On ch=1 n=g#4 v=0
200278 On ch=1 n=e5 v=76
200288 On ch=1 n=b4 v=0
200304 On ch=1 n=g#5 v=0
200380 On ch=1 n=e5 v=0
200384 On ch=1 n=b4 v=56
200432 On ch=1 n=d#6 v=96
200434 On ch=1 n=g#5 v=76
200450 On ch=1 n=g#4 v=67
200464 On ch=1 n=b4 v=0
200572 On ch=1 n=g#5 v=0
200592 On ch=1 n=g#4 v=0
200594 On ch=1 n=c#4 v=84
200678 On ch=1 n=c#4 v=0
200696 On ch=1 n=g#4 v=69
200766 On ch=1 n=d#6 v=0
200768 On ch=1 n=b4 v=63
200810 On ch=1 n=g#4 v=0
200880 On ch=1 n=c#6 v=88
200890 On ch=1 n=b4 v=0
200896 On ch=1 n=b5 v=71
200918 On ch=1 n=e5 v=59
200990 On ch=1 n=c#6 v=0
201012 On ch=1 n=e5 v=0
201016 On ch=1 n=b4 v=46
201084 On ch=1 n=g#4 v=84
201096 On ch=1 n=b4 v=0
201248 On ch=1 n=c#4 v=64
201308 On ch=1 n=g#4 v=0
201364 Par ch=1 c=64 v=63
201370 On ch=1 n=b6 v=88
201374 Par ch=1 c=64 v=0
201384 On ch=1 n=e6 v=82
201448 Par ch=1 c=64 v=63
201458 Par ch=1 c=64 v=127
201514 On ch=1 n=g#4 v=63
201544 On ch=1 n=c#4 v=0
201632 On ch=1 n=b4 v=71
201668 On ch=1 n=g#4 v=0
201716 On ch=1 n=b5 v=0
201724 On ch=1 n=b4 v=0
201732 On ch=1 n=e5 v=80
201802 On ch=1 n=e5 v=0
201804 On ch=1 n=e6 v=0
201844 On ch=1 n=g#5 v=92
201920 On ch=1 n=b5 v=80
201952 On ch=1 n=g#5 v=0
201986 On ch=1 n=b6 v=0
202034 On ch=1 n=b5 v=0
202034 On ch=1 n=g#6 v=104
202052 On ch=1 n=e6 v=66
202054 On ch=1 n=d#6 v=82
202136 On ch=1 n=e6 v=0
202150 On ch=1 n=b5 v=61
202226 On ch=1 n=g#5 v=79
202238 On ch=1 n=b5 v=0
202284 On ch=1 n=g#5 v=0
202342 On ch=1 n=d#6 v=0
202352 On ch=1 n=e5 v=79
202386 On ch=1 n=g#6 v=0
202440 On ch=1 n=e5 v=0
202458 On ch=1 n=b4 v=70
202528 On ch=1 n=g#4 v=72
202540 On ch=1 n=b4 v=0
202638 On ch=1 n=g#4 v=0
202648 On ch=1 n=c#4 v=77
202754 On ch=1 n=c#4 v=0
202764 On ch=1 n=g#4 v=46
202842 On ch=1 n=b4 v=60
202856 On ch=1 n=g#4 v=0
202958 On ch=1 n=b4 v=0
202964 On ch=1 n=e5 v=75
203058 On ch=1 n=e5 v=0
203064 On ch=1 n=b4 v=54
203118 On ch=1 n=d#6 v=84
203118 On ch=1 n=g#5 v=66
203150 On ch=1 n=b4 v=0
203152 On ch=1 n=g#4 v=60
203240 On ch=1 n=g#5 v=0
203284 On ch=1 n=g#4 v=0
203308 On ch=1 n=c#4 v=79
203362 On ch=1 n=d#6 v=0
203402 On ch=1 n=c#4 v=0
203420 On ch=1 n=g#4 v=59
203512 On ch=1 n=b4 v=46
203550 On ch=1 n=g#4 v=0
203586 On ch=1 n=c#6 v=76
203592 On ch=1 n=b5 v=60
203660 On ch=1 n=b4 v=0
203706 On ch=1 n=e5 v=33
203722 On ch=1 n=c#6 v=0
203792 On ch=1 n=e5 v=0
203796 On ch=1 n=b4 v=52
203890 On ch=1 n=b4 v=0
203898 On ch=1 n=g#4 v=60
203912 On ch=1 n=b5 v=0
204044 On ch=1 n=c#4 v=71
204056 On ch=1 n=g#4 v=0
204070 On ch=1 n=e6 v=57
204076 On ch=1 n=b6 v=68
204080 Par ch=1 c=64 v=63
204092 Par ch=1 c=64 v=0
204164 Par ch=1 c=64 v=63
204180 Par ch=1 c=64 v=127
204238 On ch=1 n=g#4 v=57
204248 On ch=1 n=c#4 v=0
204370 On ch=1 n=b4 v=42
204396 On ch=1 n=g#4 v=0
204506 On ch=1 n=b4 v=0
204524 On ch=1 n=d#5 v=105
204528 On ch=1 n=b6 v=0
204534 On ch=1 n=e6 v=0
204602 On ch=1 n=d#5 v=0
204682 On ch=1 n=g#5 v=81
204768 On ch=1 n=b5 v=82
204804 On ch=1 n=g#5 v=0
204894 On ch=1 n=b5 v=0
204904 On ch=1 n=e6 v=76
204918 On ch=1 n=g#6 v=106
204922 On ch=1 n=d#6 v=80
204968 On ch=1 n=d#6 v=0
205000 On ch=1 n=e6 v=0
205014 On ch=1 n=g#6 v=0
205016 On ch=1 n=b5 v=54
205122 On ch=1 n=g#5 v=74
205138 On ch=1 n=b5 v=0
205204 On ch=1 n=g#5 v=0
205256 On ch=1 n=e5 v=74
205340 On ch=1 n=e5 v=0
205364 On ch=1 n=b4 v=74
205432 On ch=1 n=g#4 v=83
205442 On ch=1 n=b4 v=0
205552 On ch=1 n=c#4 v=84
205560 On ch=1 n=g#5 v=116
205570 On ch=1 n=g#4 v=0
205626 Par ch=1 c=64 v=63
205670 Par ch=1 c=64 v=127
205688 On ch=1 n=g#4 v=77
205716 On ch=1 n=c#4 v=0
205786 On ch=1 n=b4 v=81
205850 On ch=1 n=g#4 v=0
205910 On ch=1 n=b4 v=0
205910 On ch=1 n=e5 v=69
205944 On ch=1 n=g#5 v=0
206018 On ch=1 n=e5 v=0
206020 On ch=1 n=b4 v=68
206024 On ch=1 n=g#5 v=71
206028 On ch=1 n=d#6 v=90
206094 On ch=1 n=g#4 v=71
206102 On ch=1 n=b4 v=0
206184 On ch=1 n=g#5 v=0
206234 On ch=1 n=c#4 v=98
206254 On ch=1 n=g#4 v=0
206336 On ch=1 n=g#4 v=83
206340 On ch=1 n=c#4 v=0
206432 On ch=1 n=b4 v=64
206442 On ch=1 n=d#6 v=0
206448 On ch=1 n=c#6 v=104
206452 On ch=1 n=b5 v=92
206476 On ch=1 n=g#4 v=0
206536 On ch=1 n=b4 v=0
206552 On ch=1 n=c#6 v=0
206552 On ch=1 n=e5 v=72
206614 On ch=1 n=b5 v=0
206628 On ch=1 n=b4 v=82
206648 On ch=1 n=e5 v=0
206660 On ch=1 n=b5 v=104
206724 On ch=1 n=g#4 v=74
206744 On ch=1 n=b4 v=0
206764 Par ch=1 c=64 v=63
206770 Par ch=1 c=64 v=0
206816 Par ch=1 c=64 v=63
206834 Par ch=1 c=64 v=127
206908 On ch=1 n=c#4 v=86
206954 On ch=1 n=b6 v=103
206962 On ch=1 n=e6 v=97
206976 On ch=1 n=g#4 v=0
207084 Par ch=1 c=64 v=63
207096 Par ch=1 c=64 v=127
207212 On ch=1 n=b5 v=0
207218 On ch=1 n=g#4 v=68
207284 On ch=1 n=c#4 v=0
207368 On ch=1 n=b4 v=72
207422 On ch=1 n=g#4 v=0
207468 On ch=1 n=b4 v=0
207470 On ch=1 n=b6 v=0
207486 On ch=1 n=e5 v=81
207554 On ch=1 n=e5 v=0
207580 On ch=1 n=g#5 v=96
207608 On ch=1 n=e6 v=0
207666 On ch=1 n=b5 v=78
207672 On ch=1 n=g#5 v=0
207742 On ch=1 n=g#6 v=112
207758 On ch=1 n=d#6 v=96
207778 On ch=1 n=b5 v=0
207782 On ch=1 n=e6 v=85
207880 On ch=1 n=e6 v=0
207882 On ch=1 n=b5 v=76
207978 On ch=1 n=d#6 v=0
207978 On ch=1 n=g#5 v=84
207994 On ch=1 n=b5 v=0
207994 On ch=1 n=g#6 v=0
208040 On ch=1 n=g#5 v=0
208098 On ch=1 n=e5 v=81
208180 On ch=1 n=e5 v=0
208202 On ch=1 n=b4 v=76
208270 On ch=1 n=g#4 v=76
208276 On ch=1 n=b4 v=0
208398 On ch=1 n=d#5 v=112
208414 On ch=1 n=c#4 v=73
208418 On ch=1 n=g#4 v=0
208560 On ch=1 n=g#4 v=67
208600 On ch=1 n=c#4 v=0
208676 On ch=1 n=b4 v=61
208702 On ch=1 n=g#4 v=0
208774 On ch=1 n=b4 v=0
208802 On ch=1 n=e5 v=48
208868 On ch=1 n=d#6 v=84
208876 On ch=1 n=g#5 v=64
208894 On ch=1 n=b4 v=45
208900 On ch=1 n=e5 v=0
208980 On ch=1 n=g#4 v=67
208990 On ch=1 n=b4 v=0
209102 On ch=1 n=c#4 v=81
209108 On ch=1 n=g#4 v=0
209112 On ch=1 n=d#5 v=0
209200 On ch=1 n=c#4 v=0
209202 On ch=1 n=g#4 v=39
209220 On ch=1 n=d#6 v=0
209258 On ch=1 n=g#5 v=0
209292 On ch=1 n=b4 v=51
209318 On ch=1 n=g#4 v=0
209366 On ch=1 n=c#6 v=87
209370 On ch=1 n=b5 v=76
209416 On ch=1 n=b4 v=0
209440 On ch=1 n=e5 v=54
209454 On ch=1 n=b5 v=0
209466 On ch=1 n=c#6 v=0
209528 On ch=1 n=b4 v=57
209530 On ch=1 n=e5 v=0
209600 On ch=1 n=g#4 v=77
209604 On ch=1 n=b4 v=0
209756 On ch=1 n=g#4 v=0
209762 On ch=1 n=c#4 v=65
209770 On ch=1 n=b6 v=81
209780 On ch=1 n=e6 v=67
209890 On ch=1 n=c#4 v=0
209898 On ch=1 n=g#4 v=55
209976 On ch=1 n=b4 v=67
210008 On ch=1 n=g#4 v=0
210064 On ch=1 n=b6 v=0
210066 On ch=1 n=b4 v=0
210084 On ch=1 n=e5 v=70
210150 On ch=1 n=e5 v=0
210176 On ch=1 n=e6 v=0
210212 On ch=1 n=g#5 v=58
210316 On ch=1 n=b5 v=62
210326 On ch=1 n=g#5 v=0
210454 On ch=1 n=b5 v=0
210466 On ch=1 n=g#6 v=82
210468 On ch=1 n=e6 v=74
210572 On ch=1 n=g#6 v=0
210578 On ch=1 n=e6 v=0
210596 On ch=1 n=b5 v=57
210714 On ch=1 n=g#5 v=60
210716 On ch=1 n=b5 v=0
210812 On ch=1 n=g#5 v=0
210874 On ch=1 n=e5 v=59
210986 On ch=1 n=e5 v=0
211006 On ch=1 n=b4 v=61
211086 On ch=1 n=b4 v=0
211106 On ch=1 n=g#4 v=48
211234 On ch=1 n=g#4 v=0
211240 On ch=1 n=c#4 v=50
211242 On ch=1 n=c#5 v=89
211412 On ch=1 n=g#4 v=51
211424 On ch=1 n=c#4 v=0
211498 On ch=1 n=c#5 v=0
211512 On ch=1 n=g#4 v=0
211514 On ch=1 n=b4 v=59
211642 On ch=1 n=b4 v=0
211660 On ch=1 n=e5 v=52
211722 On ch=1 n=d#6 v=73
211738 On ch=1 n=g#5 v=51
211768 On ch=1 n=e5 v=0
211780 On ch=1 n=b4 v=45
211874 On ch=1 n=b4 v=0
211886 On ch=1 n=g#4 v=59
211932 On ch=1 n=g#5 v=0
211952 On ch=1 n=d#6 v=0
212024 On ch=1 n=g#4 v=0
212034 On ch=1 n=c#4 v=72
212164 On ch=1 n=c#4 v=0
212192 On ch=1 n=g#4 v=50
212330 On ch=1 n=b4 v=51
212342 On ch=1 n=g#4 v=0
212364 Par ch=1 c=67 v=127
212410 On ch=1 n=b5 v=46
212416 On ch=1 n=c#6 v=63
212574 On ch=1 n=b4 v=0
212606 On ch=1 n=e5 v=33
212608 On ch=1 n=b5 v=0
212684 On ch=1 n=c#6 v=0
212792 On ch=1 n=e5 v=0
212792 On ch=1 n=b4 v=46
213014 On ch=1 n=b4 v=0
213042 On ch=1 n=g#4 v=44
213110 On ch=1 n=g#4 v=0
213598 On ch=1 n=a#1 v=77
213612 On ch=1 n=g7 v=45
213612 On ch=1 n=f7 v=48
213630 Par ch=1 c=64 v=63
213640 Par ch=1 c=64 v=0
213770 Par ch=1 c=64 v=63
213778 Par ch=1 c=64 v=127
213978 On ch=1 n=d8 v=26
213988 On ch=1 n=g8 v=43
213994 On ch=1 n=f7 v=0
213996 On ch=1 n=f8 v=48
214074 On ch=1 n=g7 v=0
214080 Par ch=1 c=67 v=0
214106 On ch=1 n=a#2 v=60
214110 On ch=1 n=a#1 v=0
214156 On ch=1 n=g7 v=23
214160 On ch=1 n=g8 v=0
214162 On ch=1 n=f7 v=35
214176 On ch=1 n=f8 v=0
214188 On ch=1 n=a#2 v=0
214200 On ch=1 n=d8 v=0
214340 On ch=1 n=g8 v=34
214342 On ch=1 n=d8 v=33
214346 On ch=1 n=f8 v=35
214348 On ch=1 n=f3 v=63
214376 On ch=1 n=f7 v=0
214456 On ch=1 n=f8 v=0
214458 On ch=1 n=f7 v=38
214460 On ch=1 n=g8 v=0
214494 On ch=1 n=d8 v=0
214494 On ch=1 n=a#3 v=69
214516 On ch=1 n=f3 v=0
214582 On ch=1 n=d8 v=43
214584 On ch=1 n=f8 v=56
214584 On ch=1 n=g8 v=56
214586 On ch=1 n=f7 v=0
214592 On ch=1 n=g7 v=0
214640 On ch=1 n=d4 v=63
214662 On ch=1 n=g7 v=62
214664 On ch=1 n=f7 v=70
214666 On ch=1 n=g8 v=0
214674 On ch=1 n=a#3 v=0
214678 On ch=1 n=f8 v=0
214698 On ch=1 n=d8 v=0
214772 On ch=1 n=d4 v=0
214774 On ch=1 n=d8 v=47
214776 On ch=1 n=g8 v=67
214778 On ch=1 n=f8 v=69
214780 On ch=1 n=f7 v=0
214782 On ch=1 n=f4 v=69
214786 On ch=1 n=g7 v=0
214852 On ch=1 n=g7 v=67
214854 On ch=1 n=f7 v=76
214866 On ch=1 n=f8 v=0
214866 On ch=1 n=g8 v=0
214878 On ch=1 n=d4 v=65
214888 On ch=1 n=f4 v=0
214888 On ch=1 n=d8 v=0
214950 On ch=1 n=f7 v=0
214952 On ch=1 n=d8 v=57
214958 On ch=1 n=g7 v=0
214958 On ch=1 n=g8 v=63
214960 On ch=1 n=f8 v=71
214976 On ch=1 n=a#3 v=72
214992 On ch=1 n=d4 v=0
215014 On ch=1 n=g7 v=63
215018 On ch=1 n=f7 v=73
215028 On ch=1 n=g8 v=0
215034 On ch=1 n=f8 v=0
215060 On ch=1 n=d8 v=0
215072 On ch=1 n=f3 v=81
215076 On ch=1 n=a#3 v=0
215116 On ch=1 n=f7 v=0
215116 On ch=1 n=d8 v=64
215124 On ch=1 n=g8 v=68
215126 On ch=1 n=g7 v=0
215126 On ch=1 n=f8 v=72
215178 On ch=1 n=g7 v=63
215182 On ch=1 n=f7 v=76
215186 On ch=1 n=a#3 v=65
215188 On ch=1 n=g8 v=0
215192 On ch=1 n=f8 v=0
215202 On ch=1 n=f3 v=0
215224 On ch=1 n=d8 v=0
215256 On ch=1 n=d4 v=78
215272 On ch=1 n=d8 v=82
215284 On ch=1 n=f7 v=0
215286 On ch=1 n=g8 v=77
215286 On ch=1 n=f8 v=83
215294 On ch=1 n=g7 v=0
215296 On ch=1 n=a#3 v=0
215334 On ch=1 n=d4 v=0
215342 On ch=1 n=g7 v=69
215344 On ch=1 n=f7 v=80
215346 On ch=1 n=f4 v=79
215352 On ch=1 n=g8 v=0
215358 On ch=1 n=f8 v=0
215388 On ch=1 n=d8 v=0
215412 On ch=1 n=f4 v=0
215436 On ch=1 n=f7 v=0
215438 On ch=1 n=d8 v=76
215442 On ch=1 n=g7 v=0
215444 On ch=1 n=g8 v=75
215444 On ch=1 n=f8 v=80
215452 On ch=1 n=a#4 v=85
215464 On ch=1 n=g#4 v=36
215496 On ch=1 n=g7 v=74
215498 On ch=1 n=f7 v=82
215504 On ch=1 n=g#4 v=0
215508 On ch=1 n=g8 v=0
215516 On ch=1 n=f8 v=0
215542 On ch=1 n=d5 v=89
215544 On ch=1 n=d8 v=0
215588 On ch=1 n=a#4 v=0
215592 On ch=1 n=d8 v=80
215596 On ch=1 n=f8 v=88
215596 On ch=1 n=g8 v=84
215598 On ch=1 n=f7 v=0
215600 On ch=1 n=g7 v=0
215640 On ch=1 n=d5 v=0
215652 On ch=1 n=g7 v=76
215654 On ch=1 n=f7 v=89
215658 On ch=1 n=f5 v=77
215666 On ch=1 n=g8 v=0
215678 On ch=1 n=f8 v=0
215700 On ch=1 n=d8 v=0
215732 On ch=1 n=d5 v=83
215744 On ch=1 n=f5 v=0
215744 On ch=1 n=d8 v=85
215746 On ch=1 n=f7 v=0
215750 On ch=1 n=f8 v=85
215750 On ch=1 n=g8 v=79
215752 On ch=1 n=g7 v=0
215802 On ch=1 n=a#4 v=89
215802 On ch=1 n=g7 v=82
215804 On ch=1 n=f7 v=90
215818 On ch=1 n=g8 v=0
215822 On ch=1 n=d5 v=0
215828 On ch=1 n=f8 v=0
215850 On ch=1 n=d8 v=0
215882 On ch=1 n=d8 v=78
215886 On ch=1 n=g8 v=88
215888 On ch=1 n=f7 v=0
215892 On ch=1 n=f8 v=90
215894 On ch=1 n=g7 v=0
215916 On ch=1 n=f4 v=84
215922 On ch=1 n=a#4 v=0
215940 On ch=1 n=g7 v=79
215942 On ch=1 n=f7 v=99
215956 On ch=1 n=g8 v=0
215970 On ch=1 n=f8 v=0
215986 On ch=1 n=d8 v=0
216004 On ch=1 n=a#4 v=54
216018 On ch=1 n=f8 v=83
216020 On ch=1 n=d8 v=79
216024 On ch=1 n=f7 v=0
216024 On ch=1 n=g8 v=92
216030 On ch=1 n=g7 v=0
216042 On ch=1 n=f4 v=0
216078 On ch=1 n=g7 v=82
216078 On ch=1 n=f7 v=94
216090 On ch=1 n=g8 v=0
216092 On ch=1 n=d5 v=77
216104 On ch=1 n=f8 v=0
216124 On ch=1 n=d8 v=0
216134 On ch=1 n=a#4 v=0
216156 On ch=1 n=d8 v=88
216160 On ch=1 n=g8 v=97
216164 On ch=1 n=f8 v=87
216170 On ch=1 n=d5 v=0
216172 On ch=1 n=f7 v=0
216178 On ch=1 n=g7 v=0
216178 On ch=1 n=f5 v=96
216228 On ch=1 n=g7 v=87
216230 On ch=1 n=f7 v=92
216240 On ch=1 n=g8 v=0
216256 On ch=1 n=f8 v=0
216274 On ch=1 n=f5 v=0
216286 On ch=1 n=a#5 v=95
216304 On ch=1 n=f8 v=82
216310 On ch=1 n=g8 v=91
216322 On ch=1 n=f7 v=0
216326 On ch=1 n=g7 v=0
216374 On ch=1 n=g7 v=87
216374 On ch=1 n=f7 v=98
216378 On ch=1 n=d6 v=96
216390 On ch=1 n=g8 v=0
216404 On ch=1 n=f8 v=0
216406 On ch=1 n=a#5 v=0
216450 On ch=1 n=g8 v=96
216454 On ch=1 n=f8 v=85
216460 On ch=1 n=d6 v=0
216468 On ch=1 n=f7 v=0
216474 On ch=1 n=g7 v=0
216488 On ch=1 n=f6 v=93
216520 On ch=1 n=g7 v=83
216520 On ch=1 n=f7 v=100
216544 On ch=1 n=g8 v=0
216550 On ch=1 n=f8 v=0
216572 On ch=1 n=d8 v=0
216596 On ch=1 n=d8 v=78
216598 On ch=1 n=a#6 v=103
216600 On ch=1 n=f8 v=89
216604 On ch=1 n=g8 v=99
216616 On ch=1 n=f6 v=0
216624 On ch=1 n=f7 v=0
216630 On ch=1 n=g7 v=0
216682 On ch=1 n=f7 v=99
216682 On ch=1 n=g7 v=94
216702 On ch=1 n=g8 v=0
216712 On ch=1 n=f8 v=0
216724 On ch=1 n=d7 v=100
216732 On ch=1 n=d8 v=0
216740 On ch=1 n=a#6 v=0
216766 On ch=1 n=d8 v=96
216766 On ch=1 n=g8 v=106
216772 On ch=1 n=f8 v=88
216784 On ch=1 n=f7 v=0
216794 On ch=1 n=g7 v=0
216810 On ch=1 n=d7 v=0
216828 On ch=1 n=f7 v=94
216860 On ch=1 n=f8 v=0
216866 On ch=1 n=d8 v=0
216900 On ch=1 n=d8 v=85
216922 On ch=1 n=f8 v=96
216970 On ch=1 n=a#7 v=107
216988 On ch=1 n=g8 v=0
217000 On ch=1 n=f7 v=0
217006 On ch=1 n=d8 v=0
217032 On ch=1 n=f8 v=0
217048 On ch=1 n=g8 v=112
217064 On ch=1 n=f8 v=84
217096 On ch=1 n=f8 v=0
217136 On ch=1 n=g8 v=0
217212 On ch=1 n=g#8 v=119
217218 On ch=1 n=f8 v=120
217240 Par ch=1 c=64 v=127
217376 On ch=1 n=f8 v=0
217442 On ch=1 n=a#7 v=0
217450 On ch=1 n=d#8 v=94
217538 On ch=1 n=b7 v=81
217544 On ch=1 n=g#8 v=0
217616 On ch=1 n=g#7 v=107
217618 On ch=1 n=d#8 v=0
217672 On ch=1 n=b7 v=0
217696 On ch=1 n=f7 v=97
217704 On ch=1 n=g#7 v=0
217758 On ch=1 n=d#7 v=99
217792 On ch=1 n=f7 v=0
217812 On ch=1 n=b6 v=75
217834 On ch=1 n=d#7 v=0
217858 On ch=1 n=g#6 v=89
217872 On ch=1 n=b6 v=0
217900 On ch=1 n=g#6 v=0
217944 On ch=1 n=f6 v=111
218016 On ch=1 n=f6 v=0
218016 On ch=1 n=d#6 v=100
218062 On ch=1 n=b5 v=52
218070 On ch=1 n=d#6 v=0
218104 On ch=1 n=g#5 v=84
218190 On ch=1 n=d#6 v=96
218206 On ch=1 n=g#5 v=0
218248 On ch=1 n=f6 v=84
218254 On ch=1 n=b5 v=0
218286 On ch=1 n=d#6 v=0
218298 On ch=1 n=g#6 v=92
218344 On ch=1 n=b6 v=81
218346 On ch=1 n=f6 v=0
218376 On ch=1 n=g#6 v=0
218410 On ch=1 n=d#7 v=95
218424 On ch=1 n=b6 v=0
218426 On ch=1 n=g#7 v=101
218502 On ch=1 n=b6 v=90
218520 On ch=1 n=g#7 v=0
218550 On ch=1 n=d#7 v=0
218550 On ch=1 n=g#6 v=103
218576 On ch=1 n=b6 v=0
218592 On ch=1 n=f6 v=65
218616 On ch=1 n=g#6 v=0
218632 On ch=1 n=d#6 v=92
218672 On ch=1 n=f6 v=0
218690 On ch=1 n=b5 v=48
218716 On ch=1 n=d#6 v=0
218726 On ch=1 n=g#5 v=83
218736 On ch=1 n=b5 v=0
218764 On ch=1 n=g#5 v=0
218820 On ch=1 n=f5 v=102
218888 On ch=1 n=d#5 v=94
218894 On ch=1 n=f5 v=0
218952 On ch=1 n=d#5 v=0
218970 On ch=1 n=b4 v=40
218990 On ch=1 n=g#4 v=94
219012 On ch=1 n=b4 v=0
219058 On ch=1 n=b4 v=87
219090 On ch=1 n=d#5 v=97
219098 On ch=1 n=g#4 v=0
219156 On ch=1 n=f5 v=82
219166 On ch=1 n=b4 v=0
219204 On ch=1 n=d#5 v=0
219204 On ch=1 n=g#5 v=91
219260 On ch=1 n=b5 v=86
219262 On ch=1 n=f5 v=0
219282 On ch=1 n=g#5 v=0
219326 On ch=1 n=d#6 v=100
219336 On ch=1 n=b5 v=0
219336 On ch=1 n=g#6 v=101
219432 On ch=1 n=b5 v=90
219444 On ch=1 n=g#6 v=0
219482 On ch=1 n=d#6 v=0
219494 On ch=1 n=g#5 v=101
219516 On ch=1 n=b5 v=0
219532 On ch=1 n=f5 v=69
219554 On ch=1 n=g#5 v=0
219580 On ch=1 n=d#5 v=85
219624 On ch=1 n=f5 v=0
219636 On ch=1 n=b4 v=63
219668 On ch=1 n=d#5 v=0
219670 On ch=1 n=g#4 v=86
219694 On ch=1 n=b4 v=0
219726 On ch=1 n=g#4 v=0
219774 On ch=1 n=f4 v=92
219848 On ch=1 n=f4 v=0
219850 On ch=1 n=d#4 v=95
219914 On ch=1 n=d#4 v=0
219916 On ch=1 n=b3 v=46
219944 On ch=1 n=g#3 v=87
219956 On ch=1 n=b3 v=0
220012 On ch=1 n=b3 v=82
220050 On ch=1 n=d#4 v=99
220054 On ch=1 n=g#3 v=0
220126 On ch=1 n=f4 v=80
220134 On ch=1 n=b3 v=0
220192 On ch=1 n=g#4 v=89
220194 On ch=1 n=d#4 v=0
220250 On ch=1 n=f4 v=0
220256 On ch=1 n=b4 v=83
220282 On ch=1 n=g#4 v=0
220320 On ch=1 n=d#5 v=97
220338 On ch=1 n=b4 v=0
220338 On ch=1 n=g#5 v=96
220440 On ch=1 n=b4 v=87
220448 On ch=1 n=g#5 v=0
220504 On ch=1 n=d#5 v=0
220506 On ch=1 n=g#4 v=91
220526 On ch=1 n=b4 v=0
220556 On ch=1 n=f4 v=68
220572 On ch=1 n=g#4 v=0
220594 On ch=1 n=d#4 v=75
220646 On ch=1 n=f4 v=0
220662 On ch=1 n=b3 v=71
220698 On ch=1 n=d#4 v=0
220700 On ch=1 n=g#3 v=88
220720 On ch=1 n=b3 v=0
220758 On ch=1 n=g#3 v=0
220816 On ch=1 n=f3 v=92
220890 On ch=1 n=f3 v=0
220896 On ch=1 n=d#3 v=88
220978 On ch=1 n=d#3 v=0
220978 On ch=1 n=b2 v=61
221030 On ch=1 n=g#2 v=95
221070 On ch=1 n=b2 v=0
221128 On ch=1 n=g#2 v=0
221148 On ch=1 n=f4 v=90
221250 On ch=1 n=b3 v=79
221294 On ch=1 n=f4 v=0
221332 On ch=1 n=g#3 v=76
221428 On ch=1 n=f3 v=87
221556 On ch=1 n=f3 v=0
221578 On ch=1 n=b2 v=84
221580 On ch=1 n=b3 v=0
221588 On ch=1 n=g#3 v=0
221794 On ch=1 n=g#2 v=87
221822 On ch=1 n=b2 v=0
221866 On ch=1 n=g#2 v=0
222136 Par ch=1 c=64 v=63
222140 On ch=1 n=a#1 v=115
222152 Par ch=1 c=64 v=0
222164 On ch=1 n=f7 v=79
222166 On ch=1 n=g7 v=79
222258 Par ch=1 c=64 v=63
222260 Par ch=1 c=64 v=127
222430 On ch=1 n=d8 v=57
222432 On ch=1 n=g8 v=60
222442 On ch=1 n=f7 v=0
222444 On ch=1 n=f8 v=66
222466 On ch=1 n=g7 v=0
222514 On ch=1 n=a#2 v=88
222516 On ch=1 n=a#1 v=0
222552 On ch=1 n=g8 v=0
222562 On ch=1 n=f8 v=0
222564 On ch=1 n=g7 v=59
222566 On ch=1 n=f7 v=62
222578 On ch=1 n=a#2 v=0
222580 On ch=1 n=d8 v=0
222668 On ch=1 n=f7 v=0
222672 On ch=1 n=g8 v=76
222678 On ch=1 n=d8 v=46
222680 On ch=1 n=g7 v=0
222680 On ch=1 n=f8 v=73
222716 On ch=1 n=f3 v=80
222750 On ch=1 n=g7 v=65
222756 On ch=1 n=f7 v=73
222770 On ch=1 n=g8 v=0
222778 On ch=1 n=f8 v=0
222802 On ch=1 n=d8 v=0
222842 On ch=1 n=a#3 v=83
222844 On ch=1 n=f7 v=0
222854 On ch=1 n=g7 v=0
222854 On ch=1 n=d8 v=71
222856 On ch=1 n=g8 v=76
222858 On ch=1 n=f8 v=75
222860 On ch=1 n=f3 v=0
222918 On ch=1 n=g7 v=69
222922 On ch=1 n=f7 v=81
222924 On ch=1 n=g8 v=0
222942 On ch=1 n=f8 v=0
222960 On ch=1 n=d8 v=0
222960 On ch=1 n=d4 v=63
222980 On ch=1 n=a#3 v=0
222998 On ch=1 n=f7 v=0
223008 On ch=1 n=g7 v=0
223010 On ch=1 n=d8 v=74
223012 On ch=1 n=g8 v=90
223016 On ch=1 n=f8 v=85
223050 On ch=1 n=f4 v=75
223052 On ch=1 n=d4 v=0
223072 On ch=1 n=g7 v=68
223074 On ch=1 n=f7 v=84
223084 On ch=1 n=g8 v=0
223094 On ch=1 n=f8 v=0
223110 On ch=1 n=d8 v=0
223150 On ch=1 n=f4 v=0
223152 On ch=1 n=d4 v=83
223156 On ch=1 n=f7 v=0
223160 On ch=1 n=g7 v=0
223162 On ch=1 n=d8 v=100
223172 On ch=1 n=f8 v=89
223172 On ch=1 n=g8 v=91
223220 On ch=1 n=a#3 v=86
223236 On ch=1 n=g7 v=85
223236 On ch=1 n=f7 v=97
223238 On ch=1 n=g8 v=0
223250 On ch=1 n=d4 v=0
223254 On ch=1 n=f8 v=0
223268 On ch=1 n=d8 v=0
223314 On ch=1 n=f7 v=0
223316 On ch=1 n=d8 v=93
223320 On ch=1 n=g8 v=99
223322 On ch=1 n=g7 v=0
223326 On ch=1 n=f8 v=100
223326 On ch=1 n=f3 v=87
223330 On ch=1 n=a#3 v=0
223394 On ch=1 n=g7 v=88
223394 On ch=1 n=f7 v=101
223404 On ch=1 n=g8 v=0
223412 On ch=1 n=a#3 v=76
223414 On ch=1 n=f8 v=0
223440 On ch=1 n=f3 v=0
223440 On ch=1 n=d8 v=0
223474 On ch=1 n=d8 v=98
223476 On ch=1 n=f7 v=0
223478 On ch=1 n=g8 v=92
223478 On ch=1 n=d4 v=88
223480 On ch=1 n=f8 v=96
223484 On ch=1 n=g7 v=0
223520 On ch=1 n=a#3 v=0
223546 On ch=1 n=g7 v=90
223548 On ch=1 n=f7 v=98
223550 On ch=1 n=d4 v=0
223552 On ch=1 n=f4 v=99
223558 On ch=1 n=g8 v=0
223564 On ch=1 n=f8 v=0
223592 On ch=1 n=d8 v=0
223622 On ch=1 n=f4 v=0
223624 On ch=1 n=d8 v=103
223630 On ch=1 n=g8 v=92
223634 On ch=1 n=f7 v=0
223636 On ch=1 n=f8 v=100
223640 On ch=1 n=g7 v=0
223646 On ch=1 n=a#4 v=94
223702 On ch=1 n=g7 v=90
223704 On ch=1 n=f7 v=98
223720 On ch=1 n=g8 v=0
223724 On ch=1 n=f8 v=0
223746 On ch=1 n=d8 v=0
223748 On ch=1 n=d5 v=86
223766 On ch=1 n=a#4 v=0
223780 On ch=1 n=d8 v=104
223786 On ch=1 n=g8 v=101
223790 On ch=1 n=f8 v=94
223792 On ch=1 n=f7 v=0
223804 On ch=1 n=g7 v=0
223822 On ch=1 n=d5 v=0
223824 On ch=1 n=f5 v=90
223856 On ch=1 n=g7 v=88
223858 On ch=1 n=f7 v=101
223880 On ch=1 n=g8 v=0
223882 On ch=1 n=f8 v=0
223902 On ch=1 n=d8 v=0
223902 On ch=1 n=d5 v=85
223910 On ch=1 n=f5 v=0
223936 On ch=1 n=d8 v=104
223942 On ch=1 n=g8 v=100
223944 On ch=1 n=f8 v=89
223958 On ch=1 n=f7 v=0
223966 On ch=1 n=g7 v=0
223966 On ch=1 n=a#4 v=101
223990 On ch=1 n=d5 v=0
224018 On ch=1 n=g7 v=86
224018 On ch=1 n=f7 v=101
224034 On ch=1 n=g8 v=0
224044 On ch=1 n=f8 v=0
224064 On ch=1 n=d8 v=0
224084 On ch=1 n=a#4 v=0
224086 On ch=1 n=f4 v=69
224092 On ch=1 n=d8 v=94
224098 On ch=1 n=g8 v=98
224102 On ch=1 n=f8 v=85
224116 On ch=1 n=f7 v=0
224122 On ch=1 n=g7 v=0
224158 On ch=1 n=a#4 v=73
224176 On ch=1 n=g7 v=84
224176 On ch=1 n=f7 v=99
224198 On ch=1 n=g8 v=0
224202 On ch=1 n=f8 v=0
224202 On ch=1 n=f4 v=0
224220 On ch=1 n=d8 v=0
224238 On ch=1 n=d5 v=89
224248 On ch=1 n=d8 v=88
224252 On ch=1 n=g8 v=94
224254 On ch=1 n=f8 v=84
224272 On ch=1 n=f7 v=0
224278 On ch=1 n=g7 v=0
224280 On ch=1 n=a#4 v=0
224300 On ch=1 n=f5 v=103
224306 On ch=1 n=d5 v=0
224324 On ch=1 n=g7 v=80
224326 On ch=1 n=f7 v=103
224350 On ch=1 n=g8 v=0
224352 On ch=1 n=f8 v=0
224372 On ch=1 n=d8 v=0
224384 On ch=1 n=f5 v=0
224400 On ch=1 n=d8 v=91
224400 On ch=1 n=a#5 v=97
224402 On ch=1 n=g8 v=98
224406 On ch=1 n=f8 v=87
224422 On ch=1 n=f7 v=0
224428 On ch=1 n=g7 v=0
224480 On ch=1 n=g7 v=89
224480 On ch=1 n=f7 v=102
224486 On ch=1 n=d6 v=108
224506 On ch=1 n=f8 v=0
224506 On ch=1 n=g8 v=0
224516 On ch=1 n=a#5 v=0
224554 On ch=1 n=d6 v=0
224556 On ch=1 n=g8 v=97
224560 On ch=1 n=f8 v=86
224574 On ch=1 n=f7 v=0
224580 On ch=1 n=f6 v=99
224584 On ch=1 n=g7 v=0
224634 On ch=1 n=g7 v=88
224634 On ch=1 n=f7 v=104
224642 On ch=1 n=f6 v=0
224658 On ch=1 n=g8 v=0
224660 On ch=1 n=a#6 v=103
224662 On ch=1 n=f8 v=0
224714 On ch=1 n=g8 v=96
224714 On ch=1 n=f8 v=85
224722 On ch=1 n=f7 v=0
224736 On ch=1 n=g7 v=0
224758 On ch=1 n=d7 v=102
224776 On ch=1 n=a#6 v=0
224786 On ch=1 n=g7 v=85
224786 On ch=1 n=f7 v=103
224812 On ch=1 n=g8 v=0
224814 On ch=1 n=f8 v=0
224836 On ch=1 n=d7 v=0
224838 On ch=1 n=d8 v=0
224874 On ch=1 n=d8 v=107
224876 On ch=1 n=g8 v=107
224884 On ch=1 n=f8 v=99
224900 On ch=1 n=g7 v=0
224932 On ch=1 n=f7 v=0
224962 On ch=1 n=d8 v=0
224966 On ch=1 n=a#7 v=115
224982 On ch=1 n=f8 v=0
225052 On ch=1 n=f8 v=90
225056 On ch=1 n=d8 v=113
225084 On ch=1 n=a#7 v=0
225086 On ch=1 n=g8 v=0
225102 On ch=1 n=f8 v=0
225188 On ch=1 n=f8 v=82
225196 On ch=1 n=d8 v=0
225204 On ch=1 n=e8 v=67
225242 On ch=1 n=e8 v=0
225242 On ch=1 n=f8 v=0
225262 On ch=1 n=e8 v=120
225264 On ch=1 n=g#8 v=124
225304 On ch=1 n=f#8 v=50
225342 On ch=1 n=f#8 v=0
225434 Par ch=1 c=64 v=127
225442 On ch=1 n=e8 v=0
225482 On ch=1 n=e8 v=108
225604 On ch=1 n=c#8 v=109
225678 On ch=1 n=g#8 v=0
225694 On ch=1 n=g#7 v=114
225762 On ch=1 n=e8 v=0
225772 On ch=1 n=e7 v=99
225786 On ch=1 n=c#8 v=0
225808 On ch=1 n=g#7 v=0
225842 On ch=1 n=c#7 v=97
225864 On ch=1 n=e7 v=0
225884 On ch=1 n=a#6 v=101
225908 On ch=1 n=c#7 v=0
225940 On ch=1 n=g#6 v=87
225956 On ch=1 n=a#6 v=0
225966 On ch=1 n=g#6 v=0
226020 On ch=1 n=e6 v=107
226090 On ch=1 n=c#6 v=97
226094 On ch=1 n=e6 v=0
226144 On ch=1 n=a#5 v=59
226148 On ch=1 n=c#6 v=0
226166 On ch=1 n=g#5 v=95
226262 On ch=1 n=g#5 v=0
226262 On ch=1 n=c#6 v=108
226292 On ch=1 n=a#5 v=0
226314 On ch=1 n=e6 v=80
226338 On ch=1 n=c#6 v=0
226360 On ch=1 n=g#6 v=98
226400 On ch=1 n=c#7 v=100
226408 On ch=1 n=e6 v=0
226436 On ch=1 n=g#6 v=0
226462 On ch=1 n=e7 v=88
226476 On ch=1 n=g#7 v=107
226482 On ch=1 n=c#7 v=0
226554 On ch=1 n=c#7 v=100
226578 On ch=1 n=g#7 v=0
226592 On ch=1 n=g#6 v=105
226594 On ch=1 n=e7 v=0
226608 On ch=1 n=e6 v=72
226610 On ch=1 n=c#7 v=0
226648 On ch=1 n=g#6 v=0
226658 On ch=1 n=c#6 v=93
226680 On ch=1 n=e6 v=0
226698 On ch=1 n=a#5 v=98
226726 On ch=1 n=c#6 v=0
226748 On ch=1 n=g#5 v=70
226754 On ch=1 n=a#5 v=0
226780 On ch=1 n=g#5 v=0
226820 On ch=1 n=e5 v=97
226888 On ch=1 n=e5 v=0
226890 On ch=1 n=c#5 v=96
226940 On ch=1 n=a#4 v=72
226944 On ch=1 n=c#5 v=0
226980 On ch=1 n=a#4 v=0
226982 On ch=1 n=g#4 v=90
227044 On ch=1 n=a#4 v=89
227072 On ch=1 n=g#4 v=0
227088 On ch=1 n=c#5 v=99
227100 On ch=1 n=a#4 v=0
227150 On ch=1 n=e5 v=80
227156 On ch=1 n=c#5 v=0
227196 On ch=1 n=g#5 v=96
227234 On ch=1 n=e5 v=0
227238 On ch=1 n=c#6 v=98
227270 On ch=1 n=g#5 v=0
227292 On ch=1 n=e6 v=81
227318 On ch=1 n=g#6 v=101
227320 On ch=1 n=c#6 v=0
227402 On ch=1 n=c#6 v=98
227422 On ch=1 n=g#6 v=0
227438 On ch=1 n=g#5 v=101
227440 On ch=1 n=e6 v=0
227462 On ch=1 n=c#6 v=0
227474 On ch=1 n=e5 v=67
227494 On ch=1 n=g#5 v=0
227518 On ch=1 n=c#5 v=88
227556 On ch=1 n=e5 v=0
227572 On ch=1 n=a#4 v=88
227588 On ch=1 n=c#5 v=0
227610 On ch=1 n=g#4 v=80
227628 On ch=1 n=a#4 v=0
227634 On ch=1 n=g#4 v=0
227700 On ch=1 n=e4 v=87
227758 On ch=1 n=c#4 v=92
227762 On ch=1 n=e4 v=0
227826 On ch=1 n=c#4 v=0
227826 On ch=1 n=a#3 v=50
227854 On ch=1 n=g#3 v=87
227858 On ch=1 n=a#3 v=0
227906 On ch=1 n=a#3 v=80
227962 On ch=1 n=c#4 v=101
228024 On ch=1 n=e4 v=77
228076 On ch=1 n=g#3 v=0
228082 On ch=1 n=g#4 v=98
228096 On ch=1 n=a#3 v=0
228098 On ch=1 n=c#4 v=0
228126 On ch=1 n=c#5 v=100
228160 On ch=1 n=g#4 v=0
228162 On ch=1 n=e4 v=0
228186 On ch=1 n=e5 v=76
228206 On ch=1 n=g#5 v=100
228214 On ch=1 n=c#5 v=0
228298 On ch=1 n=c#5 v=100
228322 On ch=1 n=g#5 v=0
228338 On ch=1 n=g#4 v=103
228342 On ch=1 n=e5 v=0
228368 On ch=1 n=c#5 v=0
228400 On ch=1 n=g#4 v=0
228406 On ch=1 n=e4 v=75
228438 On ch=1 n=c#4 v=88
228482 On ch=1 n=e4 v=0
228498 On ch=1 n=a#3 v=85
228522 On ch=1 n=c#4 v=0
228548 On ch=1 n=g#3 v=79
228566 On ch=1 n=a#3 v=0
228572 On ch=1 n=g#3 v=0
228642 On ch=1 n=e3 v=84
228734 On ch=1 n=e3 v=0
228856 On ch=1 n=g#2 v=77
228950 On ch=1 n=g#2 v=0
228984 On ch=1 n=e4 v=88
229060 On ch=1 n=a#3 v=80
229156 On ch=1 n=g#3 v=80
229248 On ch=1 n=g#3 v=0
229272 On ch=1 n=e3 v=72
229294 On ch=1 n=a#3 v=0
229322 On ch=1 n=e4 v=0
229420 On ch=1 n=a#2 v=79
229450 On ch=1 n=e3 v=0
229606 On ch=1 n=g#2 v=82
229620 On ch=1 n=a#2 v=0
229656 On ch=1 n=g#2 v=0
229962 On ch=1 n=a#1 v=95
230072 Par ch=1 c=64 v=127
230192 On ch=1 n=g7 v=83
230194 On ch=1 n=f7 v=89
230218 Par ch=1 c=64 v=63
230252 Par ch=1 c=64 v=127
230420 On ch=1 n=a#2 v=86
230426 On ch=1 n=d8 v=54
230430 On ch=1 n=g8 v=63
230438 On ch=1 n=f8 v=60
230440 On ch=1 n=a#1 v=0
230452 On ch=1 n=f7 v=0
230468 On ch=1 n=g7 v=0
230486 On ch=1 n=a#2 v=0
230572 On ch=1 n=g7 v=67
230574 On ch=1 n=g8 v=0
230576 On ch=1 n=f7 v=71
230588 On ch=1 n=f8 v=0
230612 On ch=1 n=d8 v=0
230616 On ch=1 n=f3 v=81
230704 On ch=1 n=g8 v=63
230710 On ch=1 n=f8 v=68
230712 On ch=1 n=f7 v=0
230714 On ch=1 n=d8 v=49
230718 On ch=1 n=g7 v=0
230746 On ch=1 n=a#3 v=83
230752 On ch=1 n=f3 v=0
230790 On ch=1 n=g7 v=64
230792 On ch=1 n=f7 v=70
230800 On ch=1 n=g8 v=0
230816 On ch=1 n=f8 v=0
230836 On ch=1 n=d8 v=0
230854 On ch=1 n=d4 v=78
230876 On ch=1 n=a#3 v=0
230886 On ch=1 n=f7 v=0
230892 On ch=1 n=d8 v=64
230894 On ch=1 n=g8 v=65
230896 On ch=1 n=g7 v=0
230900 On ch=1 n=f8 v=74
230954 On ch=1 n=d4 v=0
230958 On ch=1 n=g7 v=47
230964 On ch=1 n=f7 v=74
230968 On ch=1 n=g8 v=0
230968 On ch=1 n=f4 v=79
230972 On ch=1 n=f8 v=0
231004 On ch=1 n=d8 v=0
231042 On ch=1 n=f7 v=0
231048 On ch=1 n=g7 v=0
231050 On ch=1 n=d8 v=84
231060 On ch=1 n=d4 v=65
231064 On ch=1 n=g8 v=68
231066 On ch=1 n=f4 v=0
231070 On ch=1 n=f8 v=80
231112 On ch=1 n=g7 v=55
231116 On ch=1 n=f7 v=76
231118 On ch=1 n=g8 v=0
231120 On ch=1 n=f8 v=0
231122 On ch=1 n=a#3 v=75
231148 On ch=1 n=d4 v=0
231154 On ch=1 n=d8 v=0
231188 On ch=1 n=f7 v=0
231196 On ch=1 n=g7 v=0
231202 On ch=1 n=d8 v=80
231208 On ch=1 n=g8 v=76
231210 On ch=1 n=f8 v=75
231230 On ch=1 n=f3 v=80
231236 On ch=1 n=a#3 v=0
231252 On ch=1 n=g7 v=49
231254 On ch=1 n=g8 v=0
231256 On ch=1 n=f7 v=84
231266 On ch=1 n=f8 v=0
231294 On ch=1 n=d8 v=0
231328 On ch=1 n=a#3 v=83
231332 On ch=1 n=f7 v=0
231334 On ch=1 n=d8 v=96
231340 On ch=1 n=g7 v=0
231344 On ch=1 n=g8 v=85
231348 On ch=1 n=f8 v=88
231356 On ch=1 n=f3 v=0
231398 On ch=1 n=g7 v=65
231400 On ch=1 n=d4 v=82
231400 On ch=1 n=f7 v=84
231406 On ch=1 n=g8 v=0
231416 On ch=1 n=f8 v=0
231434 On ch=1 n=a#3 v=0
231442 On ch=1 n=d8 v=0
231476 On ch=1 n=d4 v=0
231482 On ch=1 n=d8 v=99
231490 On ch=1 n=f7 v=0
231492 On ch=1 n=f4 v=53
231494 On ch=1 n=g8 v=88
231498 On ch=1 n=g7 v=0
231498 On ch=1 n=f8 v=96
231542 On ch=1 n=f4 v=0
231562 On ch=1 n=g7 v=79
231564 On ch=1 n=f7 v=90
231568 On ch=1 n=g8 v=0
231578 On ch=1 n=a#4 v=105
231580 On ch=1 n=f8 v=0
231604 On ch=1 n=d8 v=0
231644 On ch=1 n=d8 v=99
231656 On ch=1 n=f7 v=0
231656 On ch=1 n=g8 v=93
231658 On ch=1 n=f8 v=93
231664 On ch=1 n=g7 v=0
231682 On ch=1 n=d5 v=98
231700 On ch=1 n=a#4 v=0
231724 On ch=1 n=g7 v=88
231726 On ch=1 n=f7 v=96
231732 On ch=1 n=g8 v=0
231742 On ch=1 n=f8 v=0
231762 On ch=1 n=f5 v=92
231768 On ch=1 n=d5 v=0
231770 On ch=1 n=d8 v=0
231806 On ch=1 n=d8 v=102
231810 On ch=1 n=f7 v=0
231814 On ch=1 n=g8 v=89
231816 On ch=1 n=g7 v=0
231818 On ch=1 n=f8 v=101
231846 On ch=1 n=d5 v=89
231856 On ch=1 n=f5 v=0
231878 On ch=1 n=g7 v=86
231880 On ch=1 n=f7 v=98
231892 On ch=1 n=g8 v=0
231902 On ch=1 n=f8 v=0
231918 On ch=1 n=a#4 v=101
231926 On ch=1 n=d8 v=0
231942 On ch=1 n=d5 v=0
231962 On ch=1 n=d8 v=103
231968 On ch=1 n=f7 v=0
231968 On ch=1 n=g8 v=91
231970 On ch=1 n=f8 v=93
231976 On ch=1 n=g7 v=0
232034 On ch=1 n=f4 v=91
232036 On ch=1 n=g7 v=86
232038 On ch=1 n=f7 v=98
232046 On ch=1 n=a#4 v=0
232052 On ch=1 n=g8 v=0
232060 On ch=1 n=f8 v=0
232082 On ch=1 n=d8 v=0
232118 On ch=1 n=d8 v=106
232124 On ch=1 n=g8 v=96
232128 On ch=1 n=f8 v=90
232130 On ch=1 n=a#4 v=92
232132 On ch=1 n=f7 v=0
232140 On ch=1 n=g7 v=0
232168 On ch=1 n=f4 v=0
232186 On ch=1 n=g7 v=77
232188 On ch=1 n=f7 v=102
232204 On ch=1 n=d5 v=98
232208 On ch=1 n=g8 v=0
232214 On ch=1 n=f8 v=0
232238 On ch=1 n=d8 v=0
232242 On ch=1 n=a#4 v=0
232264 On ch=1 n=d8 v=97
232278 On ch=1 n=g8 v=97
232280 On ch=1 n=f8 v=91
232284 On ch=1 n=d5 v=0
232286 On ch=1 n=f7 v=0
232292 On ch=1 n=f5 v=88
232296 On ch=1 n=g7 v=0
232346 On ch=1 n=g7 v=81
232348 On ch=1 n=f7 v=100
232360 On ch=1 n=f5 v=0
232362 On ch=1 n=g8 v=0
232372 On ch=1 n=f8 v=0
232384 On ch=1 n=a#5 v=97
232394 On ch=1 n=d8 v=0
232428 On ch=1 n=d8 v=100
232436 On ch=1 n=g8 v=96
232440 On ch=1 n=f8 v=89
232448 On ch=1 n=f7 v=0
232458 On ch=1 n=g7 v=0
232472 On ch=1 n=d6 v=97
232490 On ch=1 n=a#5 v=0
232518 On ch=1 n=g7 v=92
232518 On ch=1 n=f7 v=100
232522 On ch=1 n=g8 v=0
232534 On ch=1 n=f8 v=0
232548 On ch=1 n=f6 v=102
232550 On ch=1 n=d6 v=0
232560 On ch=1 n=d8 v=0
232598 On ch=1 n=d8 v=106
232604 On ch=1 n=g8 v=101
232614 On ch=1 n=f7 v=0
232614 On ch=1 n=f8 v=100
232628 On ch=1 n=g7 v=0
232636 On ch=1 n=f6 v=0
232636 On ch=1 n=d6 v=82
232684 On ch=1 n=g7 v=90
232686 On ch=1 n=f7 v=94
232690 On ch=1 n=g8 v=0
232696 On ch=1 n=a#5 v=97
232702 On ch=1 n=f8 v=0
232710 On ch=1 n=d6 v=0
232730 On ch=1 n=d8 v=0
232748 On ch=1 n=a#5 v=0
232766 On ch=1 n=d8 v=98
232770 On ch=1 n=g8 v=91
232774 On ch=1 n=f8 v=91
232776 On ch=1 n=f7 v=0
232786 On ch=1 n=g7 v=0
232806 On ch=1 n=f5 v=87
232842 On ch=1 n=g7 v=71
232846 On ch=1 n=f7 v=87
232858 On ch=1 n=g8 v=0
232874 On ch=1 n=f5 v=0
232878 On ch=1 n=f8 v=0
232880 On ch=1 n=d5 v=92
232892 On ch=1 n=d8 v=0
232934 On ch=1 n=d8 v=92
232944 On ch=1 n=a#4 v=105
232946 On ch=1 n=g8 v=94
232948 On ch=1 n=f8 v=90
232950 On ch=1 n=f7 v=0
232960 On ch=1 n=g7 v=0
232964 On ch=1 n=d5 v=0
233030 On ch=1 n=g7 v=92
233032 On ch=1 n=f7 v=106
233034 On ch=1 n=f4 v=106
233044 On ch=1 n=g8 v=0
233046 On ch=1 n=a#4 v=0
233056 On ch=1 n=f8 v=0
233078 On ch=1 n=d8 v=0
233110 On ch=1 n=d8 v=96
233116 On ch=1 n=g8 v=96
233122 On ch=1 n=f8 v=91
233124 On ch=1 n=f7 v=0
233128 On ch=1 n=a#4 v=98
233136 On ch=1 n=g7 v=0
233180 On ch=1 n=f4 v=0
233202 On ch=1 n=g7 v=90
233204 On ch=1 n=f7 v=100
233212 On ch=1 n=g8 v=0
233224 On ch=1 n=d5 v=98
233226 On ch=1 n=f8 v=0
233250 On ch=1 n=d8 v=0
233260 On ch=1 n=a#4 v=0
233288 On ch=1 n=d8 v=101
233294 On ch=1 n=g8 v=98
233298 On ch=1 n=d5 v=0
233298 On ch=1 n=f7 v=0
233300 On ch=1 n=f8 v=93
233306 On ch=1 n=f5 v=91
233308 On ch=1 n=g7 v=0
233370 On ch=1 n=f5 v=0
233374 On ch=1 n=g7 v=89
233376 On ch=1 n=f7 v=94
233392 On ch=1 n=g8 v=0
233400 On ch=1 n=f8 v=0
233412 On ch=1 n=a#5 v=108
233426 On ch=1 n=d8 v=0
233460 On ch=1 n=d8 v=90
233464 On ch=1 n=g8 v=101
233468 On ch=1 n=f8 v=86
233478 On ch=1 n=f7 v=0
233486 On ch=1 n=g7 v=0
233512 On ch=1 n=d6 v=82
233514 On ch=1 n=a#5 v=0
233550 On ch=1 n=g7 v=89
233552 On ch=1 n=f7 v=93
233560 On ch=1 n=g8 v=0
233570 On ch=1 n=f8 v=0
233572 On ch=1 n=d6 v=0
233598 On ch=1 n=d8 v=0
233598 On ch=1 n=f6 v=94
233632 On ch=1 n=d8 v=104
233634 On ch=1 n=g8 v=99
233640 On ch=1 n=f8 v=99
233654 On ch=1 n=f7 v=0
233658 On ch=1 n=f6 v=0
233664 On ch=1 n=g7 v=0
233706 On ch=1 n=a#6 v=89
233724 On ch=1 n=g7 v=81
233724 On ch=1 n=f7 v=97
233748 On ch=1 n=f8 v=0
233748 On ch=1 n=g8 v=0
233772 On ch=1 n=d8 v=0
233816 On ch=1 n=d7 v=100
233818 On ch=1 n=d8 v=101
233820 On ch=1 n=g8 v=107
233822 On ch=1 n=a#6 v=0
233828 On ch=1 n=f8 v=100
233846 On ch=1 n=f7 v=0
233862 On ch=1 n=g7 v=0
233900 On ch=1 n=d7 v=0
233912 On ch=1 n=g7 v=71
233914 On ch=1 n=f7 v=103
233934 On ch=1 n=g8 v=0
233940 On ch=1 n=f8 v=0
233966 On ch=1 n=d8 v=0
234018 On ch=1 n=d8 v=100
234028 On ch=1 n=g8 v=104
234030 On ch=1 n=f8 v=100
234042 On ch=1 n=f7 v=0
234054 On ch=1 n=g7 v=0
234096 On ch=1 n=a#7 v=113
234122 On ch=1 n=d8 v=0
234148 On ch=1 n=f8 v=0
234152 On ch=1 n=g8 v=0
234260 On ch=1 n=d8 v=109
234462 On ch=1 n=a#7 v=0
234498 On ch=1 n=d8 v=0
234566 On ch=1 n=f8 v=122
234570 On ch=1 n=g#8 v=119
234634 Par ch=1 c=64 v=127
234768 On ch=1 n=f8 v=0
234790 On ch=1 n=d#8 v=96
234868 On ch=1 n=c8 v=79
234928 On ch=1 n=g#8 v=0
234950 On ch=1 n=g#7 v=107
234990 On ch=1 n=d#8 v=0
235022 On ch=1 n=c8 v=0
235038 On ch=1 n=f7 v=90
235046 On ch=1 n=g#7 v=0
235102 On ch=1 n=d#7 v=97
235146 On ch=1 n=f7 v=0
235178 On ch=1 n=c7 v=80
235214 On ch=1 n=d#7 v=0
235238 On ch=1 n=g#6 v=97
235256 On ch=1 n=c7 v=0
235290 On ch=1 n=g#6 v=0
235330 On ch=1 n=f6 v=109
235406 On ch=1 n=f6 v=0
235408 On ch=1 n=d#6 v=87
235444 On ch=1 n=c6 v=70
235448 On ch=1 n=d#6 v=0
235470 On ch=1 n=g#5 v=88
235554 On ch=1 n=d#6 v=104
235586 On ch=1 n=g#5 v=0
235610 On ch=1 n=c6 v=0
235612 On ch=1 n=f6 v=100
235660 On ch=1 n=d#6 v=0
235662 On ch=1 n=g#6 v=98
235718 On ch=1 n=c7 v=78
235722 On ch=1 n=f6 v=0
235738 On ch=1 n=g#6 v=0
235762 On ch=1 n=d#7 v=93
235790 On ch=1 n=c7 v=0
235794 On ch=1 n=g#7 v=100
235854 On ch=1 n=c7 v=102
235884 On ch=1 n=g#7 v=0
235912 On ch=1 n=g#6 v=104
235916 On ch=1 n=d#7 v=0
235924 On ch=1 n=f6 v=79
235938 On ch=1 n=c7 v=0
235978 On ch=1 n=g#6 v=0
235984 On ch=1 n=d#6 v=96
236022 On ch=1 n=f6 v=0
236038 On ch=1 n=c6 v=78
236054 On ch=1 n=g#5 v=89
236064 On ch=1 n=d#6 v=0
236068 On ch=1 n=c6 v=0
236096 On ch=1 n=g#5 v=0
236154 On ch=1 n=f5 v=101
236218 On ch=1 n=d#5 v=100
236228 On ch=1 n=f5 v=0
236278 On ch=1 n=c5 v=52
236284 On ch=1 n=d#5 v=0
236324 On ch=1 n=c5 v=0
236328 On ch=1 n=g#4 v=98
236388 On ch=1 n=c5 v=84
236424 On ch=1 n=d#5 v=101
236428 On ch=1 n=g#4 v=0
236470 On ch=1 n=c5 v=0
236488 On ch=1 n=f5 v=93
236508 On ch=1 n=d#5 v=0
236510 On ch=1 n=g#5 v=88
236574 On ch=1 n=f5 v=0
236578 On ch=1 n=c6 v=83
236584 On ch=1 n=g#5 v=0
236628 On ch=1 n=d#6 v=93
236652 On ch=1 n=c6 v=0
236658 On ch=1 n=g#6 v=85
236716 On ch=1 n=c6 v=98
236738 On ch=1 n=g#6 v=0
236766 On ch=1 n=d#6 v=0
236776 On ch=1 n=g#5 v=104
236800 On ch=1 n=c6 v=0
236806 On ch=1 n=f5 v=76
236840 On ch=1 n=g#5 v=0
236854 On ch=1 n=d#5 v=91
236894 On ch=1 n=f5 v=0
236910 On ch=1 n=c5 v=76
236938 On ch=1 n=d#5 v=0
236946 On ch=1 n=c5 v=0
236946 On ch=1 n=g#4 v=76
236974 On ch=1 n=g#4 v=0
237032 On ch=1 n=f4 v=94
237098 On ch=1 n=f4 v=0
237106 On ch=1 n=d#4 v=97
237160 On ch=1 n=c4 v=45
237164 On ch=1 n=d#4 v=0
237202 On ch=1 n=c4 v=0
237202 On ch=1 n=g#3 v=92
237274 On ch=1 n=c4 v=71
237300 On ch=1 n=d#4 v=104
237366 On ch=1 n=f4 v=82
237368 On ch=1 n=c4 v=0
237408 On ch=1 n=d#4 v=0
237426 On ch=1 n=g#3 v=0
237432 On ch=1 n=g#4 v=100
237478 On ch=1 n=f4 v=0
237498 On ch=1 n=c5 v=82
237518 On ch=1 n=g#4 v=0
237558 On ch=1 n=d#5 v=101
237572 On ch=1 n=g#5 v=103
237586 On ch=1 n=c5 v=0
237654 On ch=1 n=c5 v=96
237674 On ch=1 n=g#5 v=0
237710 On ch=1 n=g#4 v=100
237716 On ch=1 n=d#5 v=0
237748 On ch=1 n=c5 v=0
237774 On ch=1 n=f4 v=68
237776 On ch=1 n=g#4 v=0
237842 On ch=1 n=c4 v=82
237876 On ch=1 n=f4 v=0
237898 On ch=1 n=g#3 v=97
237942 On ch=1 n=c4 v=0
237980 On ch=1 n=f3 v=102
238012 Par ch=1 c=64 v=63
238026 Par ch=1 c=64 v=0
238038 On ch=1 n=g#3 v=0
238064 Par ch=1 c=64 v=63
238072 On ch=1 n=d#4 v=119
238084 Par ch=1 c=64 v=127
238142 On ch=1 n=f3 v=0
238142 On ch=1 n=g#4 v=92
238230 On ch=1 n=c5 v=84
238296 On ch=1 n=d#5 v=94
238398 On ch=1 n=c5 v=0
238408 On ch=1 n=d#5 v=0
238408 On ch=1 n=g#4 v=0
238414 On ch=1 n=c4 v=88
238438 On ch=1 n=d#4 v=0
238508 On ch=1 n=g#3 v=99
238556 On ch=1 n=c4 v=0
238598 On ch=1 n=d#3 v=91
238614 On ch=1 n=g#3 v=0
238678 On ch=1 n=c3 v=102
238696 On ch=1 n=d#3 v=0
238740 On ch=1 n=g#3 v=104
238766 On ch=1 n=c3 v=0
238818 On ch=1 n=c4 v=86
238902 On ch=1 n=d#4 v=88
238978 On ch=1 n=g#4 v=88
239060 On ch=1 n=f3 v=80
239080 On ch=1 n=d#4 v=0
239094 On ch=1 n=g#4 v=0
239100 On ch=1 n=c4 v=0
239140 On ch=1 n=c3 v=76
239162 On ch=1 n=g#3 v=0
239174 On ch=1 n=f3 v=0
239224 On ch=1 n=g#2 v=97
239268 On ch=1 n=c3 v=0
239370 On ch=1 n=f2 v=104
239422 On ch=1 n=g#2 v=0
239602 On ch=1 n=a#1 v=108
239670 On ch=1 n=f2 v=0
239874 On ch=1 n=c4 v=88
239996 Par ch=1 c=64 v=127
240040 On ch=1 n=d#4 v=92
240138 On ch=1 n=f4 v=59
240182 On ch=1 n=c4 v=0
240196 On ch=1 n=a#2 v=106
240208 On ch=1 n=d#4 v=0
240248 On ch=1 n=g#4 v=84
240252 On ch=1 n=a#1 v=0
240268 On ch=1 n=f4 v=0
240286 On ch=1 n=a#2 v=0
240314 On ch=1 n=g#4 v=0
240382 On ch=1 n=c5 v=73
240470 On ch=1 n=d#5 v=95
240486 On ch=1 n=c5 v=0
240536 On ch=1 n=a#3 v=106
240540 On ch=1 n=f5 v=82
240556 On ch=1 n=d#5 v=0
240612 On ch=1 n=g#5 v=97
240628 On ch=1 n=f5 v=0
240666 On ch=1 n=g#5 v=0
240716 On ch=1 n=c6 v=77
240774 On ch=1 n=c6 v=0
240778 On ch=1 n=d#6 v=103
240834 On ch=1 n=f6 v=85
240846 On ch=1 n=d#6 v=0
240896 On ch=1 n=g#6 v=93
240942 On ch=1 n=f6 v=0
240944 On ch=1 n=c7 v=104
240994 On ch=1 n=g#6 v=0
241052 On ch=1 n=a#4 v=116
241056 On ch=1 n=a#3 v=0
241124 On ch=1 n=c7 v=0
241200 On ch=1 n=c7 v=91
241306 On ch=1 n=c7 v=0
241306 On ch=1 n=a#4 v=0
241310 On ch=1 n=g#6 v=86
241390 On ch=1 n=f6 v=85
241414 On ch=1 n=g#6 v=0
241482 On ch=1 n=d#6 v=101
241496 On ch=1 n=f6 v=0
241538 On ch=1 n=d#6 v=0
241558 On ch=1 n=c6 v=62
241630 On ch=1 n=c6 v=0
241654 On ch=1 n=g#5 v=101
241732 On ch=1 n=a#3 v=101
241766 On ch=1 n=f5 v=76
241770 On ch=1 n=g#5 v=0
241828 On ch=1 n=a#3 v=0
241850 On ch=1 n=f5 v=0
241856 On ch=1 n=d#5 v=96
241908 On ch=1 n=d#5 v=0
241936 On ch=1 n=c5 v=72
241998 On ch=1 n=c5 v=0
242036 On ch=1 n=g#4 v=88
242138 On ch=1 n=g#4 v=0
242144 On ch=1 n=f4 v=62
242228 On ch=1 n=f4 v=0
242230 On ch=1 n=d#4 v=97
242290 On ch=1 n=d#4 v=0
242334 On ch=1 n=c4 v=78
242414 On ch=1 n=c4 v=0
242566 On ch=1 n=a#1 v=103
242912 On ch=1 n=f4 v=108
242976 Par ch=1 c=64 v=63
242980 On ch=1 n=g#4 v=80
242992 Par ch=1 c=64 v=0
243066 Par ch=1 c=64 v=63
243090 Par ch=1 c=64 v=127
243104 On ch=1 n=c5 v=84
243108 On ch=1 n=g#4 v=0
243182 On ch=1 n=g#4 v=88
243194 On ch=1 n=a#2 v=104
243204 On ch=1 n=c5 v=0
243224 On ch=1 n=f4 v=0
243240 On ch=1 n=a#1 v=0
243288 On ch=1 n=a#2 v=0
243290 On ch=1 n=g#4 v=0
243330 On ch=1 n=d#4 v=110
243420 On ch=1 n=f4 v=76
243494 On ch=1 n=g#4 v=94
243508 On ch=1 n=f4 v=0
243554 On ch=1 n=d#4 v=0
243574 On ch=1 n=f4 v=74
243608 On ch=1 n=g#4 v=0
243646 On ch=1 n=f4 v=0
243688 On ch=1 n=a#3 v=89
243688 On ch=1 n=c4 v=108
243750 On ch=1 n=a#3 v=0
243780 On ch=1 n=d#4 v=99
243884 On ch=1 n=d#4 v=0
243886 On ch=1 n=f4 v=75
243948 On ch=1 n=c4 v=0
243948 On ch=1 n=d#4 v=91
243972 On ch=1 n=f4 v=0
244018 On ch=1 n=d#4 v=0
244066 On ch=1 n=g#3 v=114
244168 On ch=1 n=c4 v=84
244250 On ch=1 n=a#2 v=105
244264 On ch=1 n=d#4 v=88
244270 On ch=1 n=c4 v=0
244326 On ch=1 n=a#2 v=0
244340 On ch=1 n=g#3 v=0
244370 On ch=1 n=c4 v=48
244374 On ch=1 n=d#4 v=0
244426 On ch=1 n=c4 v=0
244490 On ch=1 n=f3 v=88
244580 On ch=1 n=g#3 v=88
244686 On ch=1 n=g#3 v=0
244686 On ch=1 n=c4 v=65
244746 On ch=1 n=f3 v=0
244782 On ch=1 n=g#3 v=77
244806 On ch=1 n=c4 v=0
244872 On ch=1 n=g#3 v=0
244876 On ch=1 n=a#1 v=106
245302 Par ch=1 c=64 v=63
245328 Par ch=1 c=64 v=0
245376 On ch=1 n=a#2 v=101
245462 Par ch=1 c=64 v=63
245478 Par ch=1 c=64 v=127
245688 On ch=1 n=a#1 v=0
245752 On ch=1 n=a#2 v=0
245754 On ch=1 n=a#3 v=114
245838 On ch=1 n=a#3 v=0
246174 On ch=1 n=a#4 v=52
246282 On ch=1 n=a#4 v=0
246294 On ch=1 n=g#5 v=110
246306 On ch=1 n=d#5 v=88
246322 On ch=1 n=c5 v=63
246352 On ch=1 n=g#4 v=10
246888 On ch=1 n=a#3 v=74
246930 On ch=1 n=d#5 v=0
247022 On ch=1 n=g#4 v=0
247038 On ch=1 n=c5 v=0
247056 On ch=1 n=g#5 v=0
247414 On ch=1 n=a#2 v=90
247522 On ch=1 n=a#4 v=46
247530 On ch=1 n=g5 v=81
247542 On ch=1 n=d5 v=74
247542 On ch=1 n=g4 v=28
247554 On ch=1 n=a#3 v=0
247600 Par ch=1 c=64 v=63
247622 Par ch=1 c=64 v=0
247840 Par ch=1 c=64 v=63
247848 Par ch=1 c=64 v=127
247998 On ch=1 n=a#3 v=69
248022 On ch=1 n=a#2 v=0
248050 On ch=1 n=a#3 v=0
248440 On ch=1 n=a#5 v=84
248506 On ch=1 n=a#5 v=0
248708 On ch=1 n=a#4 v=0
248734 On ch=1 n=g4 v=0
249044 On ch=1 n=a#4 v=60
249150 On ch=1 n=a#4 v=0
249568 On ch=1 n=a#2 v=66
249588 On ch=1 n=g5 v=0
249728 On ch=1 n=d5 v=0
249978 On ch=1 n=a#3 v=84
250324 On ch=1 n=a#4 v=104
250692 On ch=1 n=a#4 v=0
250754 On ch=1 n=d5 v=99
250766 On ch=1 n=a4 v=73
250766 On ch=1 n=f#4 v=79
250768 On ch=1 n=d4 v=67
250918 Par ch=1 c=64 v=63
250944 Par ch=1 c=64 v=0
251088 Par ch=1 c=64 v=63
251108 Par ch=1 c=64 v=127
251226 On ch=1 n=a#3 v=0
251540 On ch=1 n=a#3 v=45
251612 On ch=1 n=d4 v=0
251674 On ch=1 n=f#4 v=0
251692 On ch=1 n=a#3 v=0
251710 On ch=1 n=a4 v=0
251710 On ch=1 n=d5 v=0
251826 On ch=1 n=a#2 v=0
252476 On ch=1 n=b1 v=122
252498 On ch=1 n=f5 v=111
252500 On ch=1 n=a4 v=101
252500 On ch=1 n=f#4 v=114
252570 Par ch=1 c=64 v=63
252580 Par ch=1 c=64 v=0
252736 Par ch=1 c=64 v=63
252738 Par ch=1 c=64 v=127
253030 On ch=1 n=b2 v=106
253036 On ch=1 n=f5 v=0
253088 On ch=1 n=b1 v=0
253116 On ch=1 n=b2 v=0
253232 On ch=1 n=d5 v=97
253476 On ch=1 n=f#4 v=0
253478 On ch=1 n=b3 v=65
253512 On ch=1 n=a4 v=0
253532 On ch=1 n=b3 v=0
253606 On ch=1 n=d5 v=0
253848 On ch=1 n=a4 v=62
253858 On ch=1 n=f#4 v=83
253896 On ch=1 n=a4 v=0
253912 On ch=1 n=f#4 v=0
254028 On ch=1 n=a4 v=65
254144 On ch=1 n=a4 v=0
254158 On ch=1 n=f#5 v=92
254246 On ch=1 n=f#5 v=0
254250 On ch=1 n=a5 v=39
254294 On ch=1 n=a5 v=0
254350 On ch=1 n=a5 v=79
254414 On ch=1 n=a5 v=0
254442 On ch=1 n=f#6 v=94
254530 On ch=1 n=a6 v=84
254540 On ch=1 n=f#6 v=0
254610 On ch=1 n=a6 v=0
254630 On ch=1 n=a5 v=89
254636 On ch=1 n=f#5 v=88
254698 On ch=1 n=a5 v=0
254706 On ch=1 n=f#5 v=0
254732 On ch=1 n=a6 v=76
254812 On ch=1 n=f#6 v=79
254846 On ch=1 n=a6 v=0
254884 On ch=1 n=f#6 v=0
254900 On ch=1 n=a5 v=53
254944 On ch=1 n=a5 v=0
255030 On ch=1 n=a5 v=65
255124 On ch=1 n=f#5 v=84
255128 On ch=1 n=a5 v=0
255220 On ch=1 n=f#5 v=0
255232 On ch=1 n=a4 v=81
255324 On ch=1 n=f#4 v=88
255372 On ch=1 n=f#4 v=0
255374 On ch=1 n=a4 v=0
255428 On ch=1 n=a4 v=69
255496 On ch=1 n=a4 v=0
255504 On ch=1 n=f#5 v=88
255580 On ch=1 n=a5 v=75
255582 On ch=1 n=f#5 v=0
255658 On ch=1 n=f#5 v=80
255680 On ch=1 n=a5 v=0
255722 On ch=1 n=f#5 v=0
255736 On ch=1 n=a4 v=65
255778 On ch=1 n=a4 v=0
255866 On ch=1 n=a4 v=59
255938 On ch=1 n=f#4 v=70
255952 On ch=1 n=a4 v=0
256024 On ch=1 n=a3 v=51
256032 On ch=1 n=f#4 v=0
256112 On ch=1 n=a3 v=0
256126 On ch=1 n=f#4 v=81
256228 On ch=1 n=f#4 v=0
256236 On ch=1 n=a4 v=45
256320 On ch=1 n=f#4 v=61
256360 On ch=1 n=a4 v=0
256420 On ch=1 n=f#4 v=0
256438 On ch=1 n=a3 v=56
256518 On ch=1 n=a3 v=0
256618 On ch=1 n=f#3 v=64
256876 On ch=1 n=b2 v=83
256910 On ch=1 n=f#3 v=0
257362 On ch=1 n=b3 v=77
257728 On ch=1 n=b4 v=90
257788 Par ch=1 c=64 v=63
257794 Par ch=1 c=64 v=127
258222 On ch=1 n=f5 v=91
258236 On ch=1 n=f#4 v=68
258246 On ch=1 n=a4 v=55
258282 On ch=1 n=b2 v=0
258338 On ch=1 n=b3 v=0
258896 On ch=1 n=f5 v=0
258922 On ch=1 n=f#4 v=0
258934 On ch=1 n=a4 v=0
258982 On ch=1 n=b3 v=67
259030 On ch=1 n=b3 v=0
259318 On ch=1 n=d5 v=59
259350 On ch=1 n=b4 v=0
259426 On ch=1 n=d5 v=0
259872 On ch=1 n=f#5 v=31
259874 On ch=1 n=a5 v=23
259938 On ch=1 n=a5 v=0
259944 On ch=1 n=f#5 v=0
260104 On ch=1 n=a5 v=44
260226 On ch=1 n=a5 v=0
260234 On ch=1 n=f#6 v=72
260332 On ch=1 n=a6 v=70
260354 On ch=1 n=f#6 v=0
260404 On ch=1 n=a6 v=0
260462 On ch=1 n=a6 v=78
260538 On ch=1 n=a6 v=0
260554 On ch=1 n=f#7 v=94
260642 On ch=1 n=a7 v=77
260648 On ch=1 n=f#7 v=0
260732 On ch=1 n=f#6 v=76
260734 On ch=1 n=a7 v=0
260734 On ch=1 n=a6 v=79
260800 On ch=1 n=a6 v=0
260800 On ch=1 n=f#6 v=0
260810 On ch=1 n=a7 v=66
260878 On ch=1 n=f#7 v=80
260908 On ch=1 n=a7 v=0
260956 On ch=1 n=f#7 v=0
260968 On ch=1 n=a6 v=51
261010 On ch=1 n=a6 v=0
261090 On ch=1 n=a6 v=64
261178 On ch=1 n=f#6 v=70
261186 On ch=1 n=a6 v=0
261264 On ch=1 n=a5 v=74
261270 On ch=1 n=f#6 v=0
261342 On ch=1 n=a5 v=0
261382 On ch=1 n=f#5 v=72
261388 On ch=1 n=a5 v=63
261426 On ch=1 n=f#5 v=0
261434 On ch=1 n=a5 v=0
261540 On ch=1 n=f#6 v=84
261622 On ch=1 n=a6 v=74
261626 On ch=1 n=f#6 v=0
261694 On ch=1 n=f#6 v=55
261708 On ch=1 n=a6 v=0
261758 On ch=1 n=f#6 v=0
261766 On ch=1 n=a5 v=73
261826 On ch=1 n=a5 v=0
261904 On ch=1 n=a5 v=63
261980 On ch=1 n=f#5 v=85
261998 On ch=1 n=a5 v=0
262066 On ch=1 n=a4 v=79
262074 On ch=1 n=f#5 v=0
262154 On ch=1 n=a4 v=0
262172 On ch=1 n=f#5 v=85
262260 On ch=1 n=a5 v=68
262264 On ch=1 n=f#5 v=0
262328 On ch=1 n=f#5 v=80
262352 On ch=1 n=a5 v=0
262412 On ch=1 n=f#5 v=0
262430 On ch=1 n=a4 v=54
262506 On ch=1 n=a4 v=0
262554 On ch=1 n=f#4 v=80
262584 On ch=1 n=a4 v=47
262640 On ch=1 n=a4 v=0
262642 On ch=1 n=f#4 v=0
262710 On ch=1 n=a4 v=54
262780 On ch=1 n=a4 v=0
262816 On ch=1 n=f#5 v=72
262894 On ch=1 n=a5 v=76
262912 On ch=1 n=f#5 v=0
262978 On ch=1 n=a5 v=0
263022 On ch=1 n=f#5 v=83
263050 On ch=1 n=f#5 v=0
263094 On ch=1 n=a5 v=67
263178 On ch=1 n=a5 v=0
263198 On ch=1 n=f#6 v=83
263296 On ch=1 n=a6 v=60
263312 On ch=1 n=f#6 v=0
263370 On ch=1 n=a6 v=0
263400 On ch=1 n=f#6 v=77
263444 On ch=1 n=f#6 v=0
263522 On ch=1 n=a6 v=70
263614 On ch=1 n=a6 v=0
263644 On ch=1 n=f#7 v=80
263750 On ch=1 n=a7 v=65
263764 On ch=1 n=f#7 v=0
263814 On ch=1 n=a7 v=0
263844 On ch=1 n=a7 v=60
263850 On ch=1 n=f#7 v=66
263856 Par ch=1 c=64 v=63
263858 Par ch=1 c=64 v=127
263992 On ch=1 n=a7 v=0
264006 On ch=1 n=f#7 v=0
264046 On ch=1 n=f#8 v=52
264054 On ch=1 n=a8 v=60
264156 On ch=1 n=a8 v=0
264196 On ch=1 n=a7 v=51
264232 On ch=1 n=f#8 v=0
264288 On ch=1 n=f#7 v=65
264412 On ch=1 n=f#7 v=0
264412 On ch=1 n=a6 v=45
264416 On ch=1 n=a7 v=0
264490 On ch=1 n=a6 v=0
264504 On ch=1 n=f#6 v=75
264582 On ch=1 n=f#6 v=0
264584 On ch=1 n=a6 v=68
264698 On ch=1 n=f#7 v=76
264700 On ch=1 n=a6 v=0
264784 On ch=1 n=f#7 v=0
264786 On ch=1 n=a7 v=66
264890 On ch=1 n=f#8 v=73
264894 On ch=1 n=a7 v=0
264896 On ch=1 n=a8 v=63
264980 On ch=1 n=a7 v=56
265028 On ch=1 n=a8 v=0
265034 On ch=1 n=f#8 v=0
265054 On ch=1 n=f#7 v=69
265094 On ch=1 n=a7 v=0
265148 Par ch=1 c=67 v=127
265164 On ch=1 n=a6 v=68
265178 On ch=1 n=f#7 v=0
265262 On ch=1 n=a6 v=0
265262 On ch=1 n=f#6 v=75
265342 On ch=1 n=f#6 v=0
265348 On ch=1 n=a6 v=63
265442 On ch=1 n=a6 v=0
265444 On ch=1 n=f#7 v=78
265524 On ch=1 n=a7 v=63
265540 On ch=1 n=f#7 v=0
265624 On ch=1 n=a8 v=66
265628 On ch=1 n=f#8 v=72
265636 On ch=1 n=a7 v=0
265718 On ch=1 n=a7 v=64
265724 On ch=1 n=a8 v=0
265752 On ch=1 n=f#8 v=0
265792 On ch=1 n=f#7 v=72
265826 On ch=1 n=a7 v=0
265912 On ch=1 n=a6 v=60
265922 On ch=1 n=f#7 v=0
266010 On ch=1 n=f#6 v=76
266014 On ch=1 n=a6 v=0
266094 On ch=1 n=f#6 v=0
266100 On ch=1 n=a6 v=55
266198 On ch=1 n=f#7 v=72
266202 On ch=1 n=a6 v=0
266278 On ch=1 n=a7 v=55
266288 On ch=1 n=f#7 v=0
266384 On ch=1 n=f#8 v=70
266386 On ch=1 n=a7 v=0
266388 On ch=1 n=a8 v=60
266480 On ch=1 n=a7 v=56
266482 On ch=1 n=a8 v=0
266490 On ch=1 n=f#8 v=0
266548 On ch=1 n=f#7 v=65
266576 On ch=1 n=a7 v=0
266680 On ch=1 n=a6 v=53
266684 On ch=1 n=f#7 v=0
266760 On ch=1 n=a6 v=0
266770 On ch=1 n=f#6 v=73
266846 On ch=1 n=f#6 v=0
266864 On ch=1 n=a6 v=56
266952 On ch=1 n=a6 v=0
266954 On ch=1 n=f#7 v=70
267050 On ch=1 n=f#7 v=0
267062 On ch=1 n=a7 v=57
267174 On ch=1 n=a7 v=0
267174 On ch=1 n=f#8 v=70
267178 On ch=1 n=a8 v=64
267270 On ch=1 n=a7 v=55
267280 On ch=1 n=a8 v=0
267282 On ch=1 n=f#8 v=0
267338 On ch=1 n=f#7 v=61
267374 On ch=1 n=a7 v=0
267434 On ch=1 n=f6 v=77
267460 On ch=1 n=a6 v=55
267462 On ch=1 n=f#7 v=0
267560 On ch=1 n=a6 v=0
267560 On ch=1 n=f#6 v=72
267640 On ch=1 n=f#6 v=0
267654 On ch=1 n=a6 v=50
267752 On ch=1 n=f#7 v=60
267754 On ch=1 n=a6 v=0
267840 On ch=1 n=a7 v=52
267848 On ch=1 n=f#7 v=0
267952 On ch=1 n=f#8 v=67
267956 On ch=1 n=a7 v=0
267958 On ch=1 n=a8 v=54
268054 On ch=1 n=a8 v=0
268054 On ch=1 n=a7 v=46
268066 On ch=1 n=f#8 v=0
268118 On ch=1 n=f#7 v=65
268158 On ch=1 n=a7 v=0
268232 On ch=1 n=d6 v=57
268242 On ch=1 n=f#7 v=0
268242 On ch=1 n=a6 v=46
268332 On ch=1 n=a6 v=0
268336 On ch=1 n=f#6 v=66
268410 On ch=1 n=f#6 v=0
268424 On ch=1 n=a6 v=51
268520 On ch=1 n=f#7 v=60
268532 On ch=1 n=a6 v=0
268600 On ch=1 n=f6 v=0
268608 On ch=1 n=a7 v=58
268610 On ch=1 n=f#7 v=0
268716 On ch=1 n=a8 v=61
268720 On ch=1 n=a7 v=0
268722 On ch=1 n=f#8 v=69
268814 On ch=1 n=a8 v=0
268816 On ch=1 n=a7 v=55
268826 On ch=1 n=f#8 v=0
268874 On ch=1 n=f#7 v=66
268916 On ch=1 n=a7 v=0
269002 On ch=1 n=f#7 v=0
269010 On ch=1 n=a6 v=48
269094 On ch=1 n=a6 v=0
269098 On ch=1 n=f#6 v=67
269180 On ch=1 n=f#6 v=0
269202 On ch=1 n=a6 v=45
269290 On ch=1 n=f#7 v=61
269300 On ch=1 n=a6 v=0
269376 On ch=1 n=a7 v=53
269380 On ch=1 n=f#7 v=0
269488 On ch=1 n=f#8 v=65
269490 On ch=1 n=a8 v=64
269492 On ch=1 n=a7 v=0
269584 On ch=1 n=a8 v=0
269592 On ch=1 n=a7 v=39
269596 On ch=1 n=f#8 v=0
269636 On ch=1 n=f#7 v=68
269686 On ch=1 n=a7 v=0
269766 On ch=1 n=f#7 v=0
269774 On ch=1 n=a6 v=52
269852 On ch=1 n=a6 v=0
269860 On ch=1 n=f#6 v=69
269940 On ch=1 n=f#6 v=0
269968 On ch=1 n=a6 v=44
270062 On ch=1 n=f#7 v=67
270064 On ch=1 n=a6 v=0
270146 On ch=1 n=f#7 v=0
270148 On ch=1 n=a7 v=63
270244 On ch=1 n=d6 v=0
270260 On ch=1 n=f#8 v=70
270264 On ch=1 n=a7 v=0
270266 On ch=1 n=a8 v=50
270354 On ch=1 n=a8 v=0
270354 On ch=1 n=a7 v=51
270366 On ch=1 n=f#8 v=0
270438 On ch=1 n=f#7 v=69
270458 On ch=1 n=a7 v=0
270514 On ch=1 n=f6 v=87
270548 On ch=1 n=f#7 v=0
270558 On ch=1 n=a6 v=46
270646 On ch=1 n=a6 v=0
270648 On ch=1 n=f#6 v=75
270732 On ch=1 n=f#6 v=0
270748 On ch=1 n=a6 v=53
270840 On ch=1 n=a6 v=0
270846 On ch=1 n=f#7 v=64
270910 On ch=1 n=d6 v=97
270918 On ch=1 n=a7 v=58
270920 On ch=1 n=f#7 v=0
271020 On ch=1 n=f#8 v=69
271024 On ch=1 n=a7 v=0
271034 On ch=1 n=a8 v=49
271084 On ch=1 n=f6 v=0
271124 On ch=1 n=a8 v=0
271128 On ch=1 n=a7 v=46
271138 On ch=1 n=f#8 v=0
271184 On ch=1 n=f#7 v=65
271222 On ch=1 n=a7 v=0
271300 On ch=1 n=f#7 v=0
271312 On ch=1 n=a6 v=45
271384 On ch=1 n=a6 v=0
271392 On ch=1 n=f#6 v=72
271466 On ch=1 n=f#6 v=0
271488 On ch=1 n=a6 v=52
271588 On ch=1 n=a6 v=0
271588 On ch=1 n=f#7 v=68
271654 On ch=1 n=a7 v=51
271674 On ch=1 n=f#7 v=0
271760 On ch=1 n=f#8 v=66
271766 On ch=1 n=a7 v=0
271768 On ch=1 n=a8 v=62
271862 On ch=1 n=a8 v=0
271866 On ch=1 n=a7 v=50
271880 On ch=1 n=f#8 v=0
271916 On ch=1 n=f#7 v=64
271962 On ch=1 n=a7 v=0
272036 On ch=1 n=f#7 v=0
272058 On ch=1 n=a6 v=35
272120 On ch=1 n=a6 v=0
272134 On ch=1 n=f#6 v=70
272206 On ch=1 n=f#6 v=0
272232 On ch=1 n=a6 v=44
272320 On ch=1 n=f#7 v=60
272340 On ch=1 n=a6 v=0
272398 On ch=1 n=a7 v=52
272414 On ch=1 n=f#7 v=0
272510 On ch=1 n=f#8 v=67
272512 On ch=1 n=a7 v=0
272512 On ch=1 n=a8 v=50
272608 On ch=1 n=a8 v=0
272612 On ch=1 n=a7 v=44
272628 On ch=1 n=f#8 v=0
272658 On ch=1 n=f#7 v=65
272716 On ch=1 n=a7 v=0
272748 On ch=1 n=a5 v=69
272790 On ch=1 n=a6 v=60
272794 On ch=1 n=f#7 v=0
272864 On ch=1 n=d6 v=0
272888 On ch=1 n=f#6 v=72
272890 On ch=1 n=a6 v=0
272962 On ch=1 n=f#6 v=0
272972 On ch=1 n=a6 v=44
273072 On ch=1 n=a6 v=0
273074 On ch=1 n=f#7 v=67
273160 On ch=1 n=f#7 v=0
273166 On ch=1 n=a7 v=57
273168 On ch=1 n=c6 v=78
273246 On ch=1 n=a5 v=0
273274 On ch=1 n=a7 v=0
273280 On ch=1 n=a8 v=54
273282 On ch=1 n=f#8 v=62
273374 On ch=1 n=a7 v=52
273380 On ch=1 n=a8 v=0
273390 On ch=1 n=f#8 v=0
273440 On ch=1 n=f#7 v=62
273480 On ch=1 n=a7 v=0
273568 On ch=1 n=f#7 v=0
273574 On ch=1 n=a6 v=43
273654 On ch=1 n=a6 v=0
273664 On ch=1 n=f#6 v=70
273736 On ch=1 n=f#6 v=0
273766 On ch=1 n=a6 v=44
273852 On ch=1 n=f#7 v=69
273878 On ch=1 n=a6 v=0
273928 On ch=1 n=a7 v=59
273948 On ch=1 n=f#7 v=0
274036 On ch=1 n=f#8 v=72
274044 On ch=1 n=a7 v=0
274056 On ch=1 n=a8 v=28
274134 On ch=1 n=a8 v=0
274138 On ch=1 n=a7 v=55
274152 On ch=1 n=f#8 v=0
274200 On ch=1 n=f#7 v=64
274242 On ch=1 n=a7 v=0
274320 On ch=1 n=f#7 v=0
274332 On ch=1 n=a6 v=43
274404 On ch=1 n=a6 v=0
274414 On ch=1 n=f#6 v=70
274486 On ch=1 n=f#6 v=0
274516 On ch=1 n=a6 v=47
274612 On ch=1 n=f#7 v=70
274614 On ch=1 n=a6 v=0
274678 On ch=1 n=a7 v=59
274696 On ch=1 n=f#7 v=0
274790 On ch=1 n=f#8 v=69
274794 On ch=1 n=a7 v=0
274800 On ch=1 n=a8 v=51
274894 On ch=1 n=a8 v=0
274894 On ch=1 n=a7 v=45
274914 On ch=1 n=f#8 v=0
274960 On ch=1 n=f#7 v=60
274994 On ch=1 n=a7 v=0
275078 On ch=1 n=f#7 v=0
275096 On ch=1 n=a6 v=36
275166 On ch=1 n=a6 v=0
275182 On ch=1 n=f#6 v=69
275250 On ch=1 n=f#6 v=0
275276 On ch=1 n=a6 v=46
275372 On ch=1 n=f#7 v=70
275378 On ch=1 n=a6 v=0
275436 On ch=1 n=a5 v=50
275454 On ch=1 n=a7 v=61
275458 On ch=1 n=f#7 v=0
275512 On ch=1 n=c6 v=0
275558 On ch=1 n=f#8 v=72
275560 On ch=1 n=a7 v=0
275580 On ch=1 n=a8 v=43
275674 On ch=1 n=f#8 v=0
275674 On ch=1 n=a7 v=60
275676 On ch=1 n=a8 v=0
275730 On ch=1 n=f#7 v=63
275764 On ch=1 n=a7 v=0
275848 On ch=1 n=f#7 v=0
275864 On ch=1 n=a6 v=43
275866 On ch=1 n=f#5 v=51
275890 On ch=1 n=d5 v=48
275894 On ch=1 n=a4 v=33
275942 On ch=1 n=f#5 v=0
275942 On ch=1 n=a6 v=0
275952 On ch=1 n=f#6 v=71
275970 On ch=1 n=d5 v=0
276012 On ch=1 n=a4 v=0
276046 On ch=1 n=f#6 v=0
276074 On ch=1 n=a6 v=45
276168 On ch=1 n=f#7 v=74
276182 On ch=1 n=a6 v=0
276208 On ch=1 n=f#7 v=0
276292 On ch=1 n=a6 v=51
276316 On ch=1 n=b1 v=59
276480 On ch=1 n=a6 v=0
276484 On ch=1 n=f#7 v=57
276484 On ch=1 n=a7 v=60
276550 On ch=1 n=a5 v=0
276586 On ch=1 n=a7 v=0
276612 On ch=1 n=a6 v=50
276618 On ch=1 n=f#7 v=0
276668 On ch=1 n=f#6 v=76
276668 On ch=1 n=b2 v=65
276698 On ch=1 n=a6 v=0
276760 Par ch=1 c=64 v=63
276774 Par ch=1 c=64 v=127
276786 On ch=1 n=f#6 v=0
276808 On ch=1 n=a5 v=37
276868 On ch=1 n=b1 v=0
276898 On ch=1 n=a5 v=0
276898 On ch=1 n=f#5 v=66
276936 On ch=1 n=b2 v=0
276948 On ch=1 n=b3 v=77
276986 On ch=1 n=f#5 v=0
277000 On ch=1 n=a5 v=59
277082 On ch=1 n=f#6 v=92
277104 On ch=1 n=a5 v=0
277138 On ch=1 n=f#6 v=0
277190 On ch=1 n=a5 v=76
277212 On ch=1 n=c3 v=109
277278 On ch=1 n=b3 v=0
277300 On ch=1 n=f#6 v=75
277306 On ch=1 n=a6 v=83
277324 On ch=1 n=a5 v=0
277392 Par ch=1 c=64 v=63
277406 On ch=1 n=a5 v=64
277414 On ch=1 n=a6 v=0
277432 Par ch=1 c=64 v=0
277446 On ch=1 n=f#6 v=0
277502 On ch=1 n=f#5 v=80
277504 On ch=1 n=a5 v=0
277608 On ch=1 n=a4 v=60
277612 On ch=1 n=f#5 v=0
277624 On ch=1 n=c4 v=69
277626 On ch=1 n=c3 v=0
277714 On ch=1 n=f#4 v=79
277716 On ch=1 n=a4 v=0
277758 Par ch=1 c=64 v=63
277772 Par ch=1 c=64 v=127
277806 On ch=1 n=a4 v=62
277808 On ch=1 n=f#4 v=0
277882 On ch=1 n=f#5 v=100
277922 On ch=1 n=a4 v=0
277922 On ch=1 n=c4 v=0
277942 On ch=1 n=f#5 v=0
277980 On ch=1 n=a4 v=82
278006 On ch=1 n=d3 v=109
278080 On ch=1 n=f#5 v=95
278082 On ch=1 n=a5 v=84
278088 On ch=1 n=a4 v=0
278140 Par ch=1 c=64 v=63
278174 On ch=1 n=a4 v=87
278184 On ch=1 n=a5 v=0
278190 Par ch=1 c=64 v=0
278198 On ch=1 n=f#5 v=0
278266 On ch=1 n=f#4 v=84
278274 On ch=1 n=a4 v=0
278356 On ch=1 n=a3 v=74
278378 On ch=1 n=f#4 v=0
278394 On ch=1 n=d4 v=93
278442 Par ch=1 c=64 v=63
278464 On ch=1 n=f#3 v=91
278464 Par ch=1 c=64 v=127
278482 On ch=1 n=a3 v=0
278564 On ch=1 n=a3 v=77
278576 On ch=1 n=f#3 v=0
278660 On ch=1 n=f#4 v=98
278686 On ch=1 n=a3 v=0
278732 On ch=1 n=f#4 v=0
278740 On ch=1 n=d4 v=0
278792 On ch=1 n=f3 v=118
278798 On ch=1 n=d3 v=0
278902 On ch=1 n=a3 v=85
279004 On ch=1 n=f#4 v=89
279008 On ch=1 n=a3 v=0
279044 Par ch=1 c=64 v=63
279058 Par ch=1 c=64 v=127
279104 On ch=1 n=f#4 v=0
279104 On ch=1 n=a4 v=63
279174 On ch=1 n=f#4 v=83
279184 On ch=1 n=a4 v=0
279188 On ch=1 n=f4 v=93
279248 On ch=1 n=f#4 v=0
279252 On ch=1 n=f4 v=0
279282 On ch=1 n=f3 v=0
279288 On ch=1 n=a3 v=76
279372 On ch=1 n=a3 v=0
279382 On ch=1 n=f#3 v=91
279440 On ch=1 n=f#3 v=0
279464 On ch=1 n=a3 v=63
279518 On ch=1 n=a3 v=0
279558 On ch=1 n=c#3 v=120
279580 Par ch=1 c=64 v=63
279616 Par ch=1 c=64 v=127
279670 On ch=1 n=a4 v=78
279748 On ch=1 n=a4 v=0
279768 On ch=1 n=f#5 v=103
279848 On ch=1 n=f#5 v=0
279874 On ch=1 n=a5 v=51
279954 On ch=1 n=a5 v=0
279954 On ch=1 n=f#5 v=93
279962 On ch=1 n=c#4 v=100
280036 On ch=1 n=f#5 v=0
280048 On ch=1 n=a4 v=34
280072 On ch=1 n=c#4 v=0
280166 On ch=1 n=f#4 v=83
280172 On ch=1 n=a4 v=0
280246 On ch=1 n=f#4 v=0
280254 On ch=1 n=a4 v=77
280302 On ch=1 n=c#3 v=0
280362 On ch=1 n=c3 v=117
280368 On ch=1 n=a4 v=0
280388 Par ch=1 c=64 v=63
280436 Par ch=1 c=64 v=127
280494 On ch=1 n=a5 v=71
280550 On ch=1 n=f#5 v=76
280584 On ch=1 n=a5 v=0
280652 On ch=1 n=f#5 v=0
280656 On ch=1 n=a4 v=65
280718 On ch=1 n=a4 v=0
280804 On ch=1 n=f#4 v=82
280844 On ch=1 n=c4 v=69
280870 On ch=1 n=f#4 v=0
280884 On ch=1 n=a3 v=82
280958 On ch=1 n=a3 v=0
280986 On ch=1 n=c4 v=0
280988 On ch=1 n=f#4 v=96
281046 On ch=1 n=f#4 v=0
281122 On ch=1 n=a4 v=60
281124 On ch=1 n=g4 v=32
281162 On ch=1 n=g4 v=0
281180 On ch=1 n=a4 v=0
281214 On ch=1 n=f#5 v=88
281232 On ch=1 n=a5 v=35
281284 On ch=1 n=a5 v=0
281288 On ch=1 n=f#5 v=0
281340 On ch=1 n=c3 v=0
281520 On ch=1 n=b2 v=102
281654 Par ch=1 c=64 v=63
281656 Par ch=1 c=64 v=127
281706 On ch=1 n=f#6 v=70
281710 On ch=1 n=a6 v=68
281796 On ch=1 n=a6 v=0
281830 On ch=1 n=f#6 v=0
281832 On ch=1 n=a5 v=71
281894 On ch=1 n=a5 v=0
281982 On ch=1 n=b2 v=0
281982 On ch=1 n=b3 v=72
281986 On ch=1 n=f#5 v=87
282052 On ch=1 n=b3 v=0
282076 On ch=1 n=f#5 v=0
282088 On ch=1 n=a4 v=69
282166 On ch=1 n=a4 v=0
282188 On ch=1 n=f#5 v=93
282258 On ch=1 n=f#5 v=0
282272 On ch=1 n=b4 v=92
282318 On ch=1 n=a5 v=87
282328 On ch=1 n=b4 v=0
282382 On ch=1 n=a5 v=0
282410 On ch=1 n=f#6 v=104
282488 On ch=1 n=a6 v=76
282494 On ch=1 n=f#6 v=0
282536 On ch=1 n=a5 v=97
282538 On ch=1 n=f#5 v=94
282544 On ch=1 n=a6 v=0
282602 On ch=1 n=f#5 v=0
282610 On ch=1 n=a5 v=0
282666 On ch=1 n=f#6 v=94
282668 On ch=1 n=a6 v=70
282714 On ch=1 n=a6 v=0
282748 On ch=1 n=f#6 v=0
282762 On ch=1 n=a5 v=73
282814 On ch=1 n=a5 v=0
282864 On ch=1 n=f#5 v=90
282926 On ch=1 n=f#5 v=0
282956 On ch=1 n=a4 v=91
283022 On ch=1 n=a4 v=0
283060 On ch=1 n=f#5 v=89
283092 On ch=1 n=f#5 v=0
283156 On ch=1 n=a5 v=92
283206 On ch=1 n=a5 v=0
283224 On ch=1 n=f#6 v=80
283254 On ch=1 n=f#6 v=0
283350 On ch=1 n=f#6 v=103
283362 On ch=1 n=a6 v=58
283378 On ch=1 n=f#6 v=0
283404 On ch=1 n=a6 v=0
283494 On ch=1 n=a7 v=82
283502 On ch=1 n=f#7 v=84
283562 On ch=1 n=a7 v=0
283592 On ch=1 n=f#7 v=0
283614 On ch=1 n=a6 v=59
283656 On ch=1 n=a6 v=0
283724 On ch=1 n=f#6 v=80
283752 On ch=1 n=f#6 v=0
283826 On ch=1 n=a5 v=78
283882 On ch=1 n=a5 v=0
283908 On ch=1 n=f#6 v=94
283952 On ch=1 n=f#6 v=0
284022 On ch=1 n=a6 v=91
284072 On ch=1 n=a6 v=0
284098 On ch=1 n=f#7 v=77
284128 On ch=1 n=f#7 v=0
284236 On ch=1 n=a7 v=78
284240 On ch=1 n=f#7 v=80
284244 Par ch=1 c=64 v=63
284248 Par ch=1 c=64 v=127
284320 On ch=1 n=a7 v=0
284336 On ch=1 n=f#7 v=0
284356 On ch=1 n=a8 v=67
284362 On ch=1 n=f#8 v=71
284456 On ch=1 n=a8 v=0
284482 On ch=1 n=a7 v=73
284534 On ch=1 n=f#8 v=0
284578 On ch=1 n=f#7 v=83
284602 On ch=1 n=a7 v=0
284688 On ch=1 n=f#7 v=0
284716 On ch=1 n=a6 v=46
284808 On ch=1 n=a6 v=0
284810 On ch=1 n=f#6 v=76
284890 On ch=1 n=f#6 v=0
284896 On ch=1 n=a6 v=57
284990 On ch=1 n=f#7 v=80
285004 On ch=1 n=a6 v=0
285102 On ch=1 n=f#7 v=0
285110 On ch=1 n=a7 v=71
285196 On ch=1 n=a7 v=0
285226 On ch=1 n=f#8 v=83
285236 On ch=1 n=a8 v=73
285324 On ch=1 n=a8 v=0
285338 On ch=1 n=a7 v=74
285370 On ch=1 n=f#8 v=0
285432 On ch=1 n=f#7 v=69
285442 On ch=1 n=a7 v=0
285548 On ch=1 n=f#7 v=0
285552 On ch=1 n=a6 v=44
285630 On ch=1 n=a6 v=0
285638 On ch=1 n=f#6 v=78
285728 On ch=1 n=f#6 v=0
285746 On ch=1 n=a6 v=53
285832 On ch=1 n=f#7 v=77
285848 On ch=1 n=a6 v=0
285936 On ch=1 n=f#7 v=0
285946 On ch=1 n=a7 v=60
286034 On ch=1 n=a7 v=0
286044 On ch=1 n=f#8 v=76
286068 On ch=1 n=a8 v=58
286144 On ch=1 n=a8 v=0
286166 On ch=1 n=a7 v=63
286192 On ch=1 n=f#8 v=0
286262 On ch=1 n=a7 v=0
286270 On ch=1 n=f#7 v=67
286386 On ch=1 n=f#7 v=0
286408 On ch=1 n=a6 v=27
286474 On ch=1 n=a6 v=0
286480 On ch=1 n=f#6 v=78
286564 On ch=1 n=f#6 v=0
286598 On ch=1 n=a6 v=47
286684 On ch=1 n=f#7 v=69
286708 On ch=1 n=a6 v=0
286792 On ch=1 n=f#7 v=0
286808 On ch=1 n=a7 v=54
286896 On ch=1 n=a7 v=0
286912 On ch=1 n=f#8 v=80
286930 On ch=1 n=a8 v=63
287008 On ch=1 n=a8 v=0
287020 On ch=1 n=a7 v=76
287036 On ch=1 n=f#8 v=0
287108 On ch=1 n=a7 v=0
287124 On ch=1 n=f#7 v=70
287230 On ch=1 n=f#7 v=0
287258 On ch=1 n=a6 v=26
287324 On ch=1 n=a6 v=0
287332 On ch=1 n=f#6 v=76
287414 On ch=1 n=f#6 v=0
287446 On ch=1 n=a6 v=38
287522 On ch=1 n=f#7 v=75
287528 On ch=1 n=a6 v=0
287614 On ch=1 n=f#7 v=0
287634 On ch=1 n=a7 v=63
287724 On ch=1 n=a7 v=0
287744 On ch=1 n=f#8 v=77
287752 On ch=1 n=a8 v=50
287820 On ch=1 n=a8 v=0
287840 On ch=1 n=a7 v=73
287864 On ch=1 n=f#8 v=0
287920 On ch=1 n=a7 v=0
287938 On ch=1 n=f#7 v=71
288048 On ch=1 n=f#7 v=0
288062 On ch=1 n=a6 v=39
288064 On ch=1 n=f6 v=84
288150 On ch=1 n=a6 v=0
288156 On ch=1 n=f#6 v=74
288238 On ch=1 n=f#6 v=0
288274 On ch=1 n=a6 v=39
288346 On ch=1 n=a6 v=0
288350 On ch=1 n=f#7 v=67
288440 On ch=1 n=f#7 v=0
288454 On ch=1 n=a7 v=61
288494 On ch=1 n=d6 v=86
288552 On ch=1 n=a7 v=0
288570 On ch=1 n=f#8 v=73
288580 On ch=1 n=a8 v=60
288630 On ch=1 n=f6 v=0
288672 On ch=1 n=a8 v=0
288676 On ch=1 n=a7 v=70
288692 On ch=1 n=f#8 v=0
288762 On ch=1 n=f#7 v=70
288770 On ch=1 n=a7 v=0
288870 On ch=1 n=f#7 v=0
288886 On ch=1 n=a6 v=39
288954 On ch=1 n=a6 v=0
288976 On ch=1 n=f#6 v=67
289044 On ch=1 n=f#6 v=0
289080 On ch=1 n=a6 v=33
289152 On ch=1 n=f#7 v=60
289154 On ch=1 n=a6 v=0
289244 On ch=1 n=f#7 v=0
289256 On ch=1 n=a7 v=63
289346 On ch=1 n=a7 v=0
289356 On ch=1 n=f#8 v=79
289374 On ch=1 n=a8 v=56
289458 On ch=1 n=a8 v=0
289472 On ch=1 n=a7 v=65
289480 On ch=1 n=f#8 v=0
289562 On ch=1 n=f#7 v=69
289566 On ch=1 n=a7 v=0
289668 On ch=1 n=f#7 v=0
289680 On ch=1 n=a6 v=44
289760 On ch=1 n=a6 v=0
289776 On ch=1 n=f#6 v=74
289854 On ch=1 n=f#6 v=0
289886 On ch=1 n=a6 v=35
289952 On ch=1 n=a6 v=0
289964 On ch=1 n=f#7 v=69
290062 On ch=1 n=f#7 v=0
290078 On ch=1 n=a7 v=63
290168 On ch=1 n=a7 v=0
290174 On ch=1 n=f#8 v=80
290196 On ch=1 n=a8 v=79
290262 On ch=1 n=f#8 v=0
290282 On ch=1 n=a8 v=0
290302 On ch=1 n=a7 v=78
290376 On ch=1 n=a7 v=0
290376 On ch=1 n=f#7 v=71
290436 On ch=1 n=a5 v=76
290486 On ch=1 n=f#7 v=0
290504 On ch=1 n=a6 v=49
290574 On ch=1 n=d6 v=0
290584 On ch=1 n=a6 v=0
290606 On ch=1 n=f#6 v=65
290674 On ch=1 n=f#6 v=0
290720 On ch=1 n=a6 v=27
290788 On ch=1 n=a6 v=0
290790 On ch=1 n=f#7 v=67
290882 On ch=1 n=f#7 v=0
290900 On ch=1 n=a7 v=68
290930 On ch=1 n=c6 v=90
290998 On ch=1 n=a7 v=0
290998 On ch=1 n=f#8 v=80
291000 On ch=1 n=a8 v=62
291004 On ch=1 n=a5 v=0
291088 On ch=1 n=a7 v=61
291102 On ch=1 n=a8 v=0
291110 On ch=1 n=f#8 v=0
291184 On ch=1 n=a7 v=0
291196 On ch=1 n=f#7 v=69
291310 On ch=1 n=f#7 v=0
291330 On ch=1 n=a6 v=38
291424 On ch=1 n=a6 v=0
291426 On ch=1 n=f#6 v=74
291508 On ch=1 n=f#6 v=0
291538 On ch=1 n=a6 v=33
291612 On ch=1 n=f#7 v=67
291624 On ch=1 n=a6 v=0
291710 On ch=1 n=f#7 v=0
291714 On ch=1 n=a7 v=65
291812 On ch=1 n=a7 v=0
291818 On ch=1 n=a8 v=58
291822 On ch=1 n=f#8 v=57
291910 On ch=1 n=a7 v=57
291912 On ch=1 n=a8 v=0
291944 On ch=1 n=f#8 v=0
292002 On ch=1 n=f#7 v=71
292008 On ch=1 n=a7 v=0
292116 On ch=1 n=f#7 v=0
292128 On ch=1 n=a6 v=49
292222 On ch=1 n=a6 v=0
292230 On ch=1 n=f#6 v=68
292300 On ch=1 n=f#6 v=0
292328 On ch=1 n=a6 v=49
292422 On ch=1 n=a6 v=0
292424 On ch=1 n=f#7 v=70
292516 On ch=1 n=f#7 v=0
292524 On ch=1 n=a7 v=59
292624 On ch=1 n=a7 v=0
292626 On ch=1 n=a8 v=54
292626 On ch=1 n=f#8 v=61
292716 On ch=1 n=a8 v=0
292734 On ch=1 n=a7 v=57
292750 On ch=1 n=f#8 v=0
292804 On ch=1 n=f#7 v=67
292820 On ch=1 n=a7 v=0
292912 On ch=1 n=f#7 v=0
292936 On ch=1 n=a6 v=38
293008 On ch=1 n=a6 v=0
293030 On ch=1 n=f#6 v=69
293090 On ch=1 n=f#6 v=0
293116 On ch=1 n=a6 v=57
293214 On ch=1 n=f#7 v=76
293216 On ch=1 n=a6 v=0
293300 On ch=1 n=a7 v=63
293308 On ch=1 n=f#7 v=0
293354 On ch=1 n=a5 v=76
293392 On ch=1 n=a7 v=0
293392 On ch=1 n=f#8 v=81
293402 On ch=1 n=a8 v=54
293452 On ch=1 n=c6 v=0
293486 On ch=1 n=a8 v=0
293492 On ch=1 n=f#8 v=0
293500 On ch=1 n=a7 v=77
293566 On ch=1 n=f#7 v=67
293568 On ch=1 n=a7 v=0
293674 On ch=1 n=f#7 v=0
293688 On ch=1 n=a6 v=45
293740 On ch=1 n=a4 v=46
293764 On ch=1 n=d5 v=61
293778 On ch=1 n=a6 v=0
293782 On ch=1 n=f#6 v=70
293804 On ch=1 n=f#5 v=39
293870 On ch=1 n=f#6 v=0
293916 On ch=1 n=a6 v=25
293994 On ch=1 n=a6 v=0
294010 On ch=1 n=f#7 v=75
294078 On ch=1 n=f#7 v=0
294276 On ch=1 n=f#5 v=0
294288 On ch=1 n=d5 v=0
294290 On ch=1 n=a1 v=97
294308 On ch=1 n=a6 v=75
294322 On ch=1 n=a5 v=0
294326 On ch=1 n=a4 v=0
294346 Par ch=1 c=64 v=127
294430 On ch=1 n=a1 v=0
294548 On ch=1 n=f#7 v=79
294562 On ch=1 n=a7 v=71
294574 On ch=1 n=a6 v=0
294692 On ch=1 n=a6 v=86
294710 On ch=1 n=a7 v=0
294712 On ch=1 n=g#2 v=92
294720 On ch=1 n=f#7 v=0
294774 On ch=1 n=f#6 v=98
294782 On ch=1 n=a6 v=0
294900 On ch=1 n=f#6 v=0
294900 On ch=1 n=a5 v=70
294978 On ch=1 n=f#5 v=92
294986 On ch=1 n=a5 v=0
294986 On ch=1 n=g#3 v=87
295070 On ch=1 n=a5 v=72
295080 On ch=1 n=f#5 v=0
295152 On ch=1 n=f#6 v=107
295160 On ch=1 n=a5 v=0
295206 On ch=1 n=g#2 v=0
295208 On ch=1 n=f#6 v=0
295260 On ch=1 n=a5 v=94
295278 On ch=1 n=a2 v=120
295330 On ch=1 n=g#3 v=0
295368 On ch=1 n=f#6 v=100
295384 On ch=1 n=a6 v=93
295404 On ch=1 n=a5 v=0
295476 On ch=1 n=a5 v=89
295486 On ch=1 n=a6 v=0
295520 On ch=1 n=f#6 v=0
295554 On ch=1 n=f#5 v=96
295584 On ch=1 n=a5 v=0
295654 On ch=1 n=a4 v=58
295662 On ch=1 n=f#5 v=0
295664 On ch=1 n=a3 v=68
295722 On ch=1 n=f#4 v=89
295732 On ch=1 n=a4 v=0
295820 On ch=1 n=a4 v=68
295824 On ch=1 n=f#4 v=0
295914 On ch=1 n=a4 v=0
295914 On ch=1 n=f#5 v=101
295962 On ch=1 n=f#5 v=0
296012 On ch=1 n=a4 v=86
296040 On ch=1 n=a2 v=0
296060 On ch=1 n=b2 v=121
296088 On ch=1 n=a2 v=65
296106 On ch=1 n=a4 v=0
296124 On ch=1 n=a3 v=0
296124 On ch=1 n=a5 v=92
296128 On ch=1 n=a2 v=0
296134 On ch=1 n=f#5 v=96
296228 On ch=1 n=a4 v=85
296236 On ch=1 n=a5 v=0
296264 On ch=1 n=f#5 v=0
296306 On ch=1 n=f#4 v=94
296326 On ch=1 n=a4 v=0
296404 On ch=1 n=a3 v=66
296420 On ch=1 n=f#4 v=0
296444 On ch=1 n=b3 v=66
296484 On ch=1 n=f#3 v=100
296504 On ch=1 n=a3 v=0
296588 On ch=1 n=a3 v=84
296614 On ch=1 n=f#3 v=0
296690 On ch=1 n=f#4 v=108
296714 On ch=1 n=a3 v=0
296730 Par ch=1 c=64 v=63
296744 Par ch=1 c=64 v=0
296774 On ch=1 n=b2 v=0
296778 Par ch=1 c=64 v=63
296802 On ch=1 n=b3 v=0
296810 Par ch=1 c=64 v=127
296814 On ch=1 n=f#4 v=0
296820 On ch=1 n=d3 v=125
296956 On ch=1 n=a3 v=96
297048 On ch=1 n=f#4 v=98
297086 On ch=1 n=a3 v=0
297146 On ch=1 n=a4 v=82
297172 On ch=1 n=f#4 v=0
297190 On ch=1 n=d4 v=84
297226 On ch=1 n=f#4 v=92
297260 On ch=1 n=a4 v=0
297330 On ch=1 n=a3 v=86
297390 On ch=1 n=f#4 v=0
297458 On ch=1 n=f#3 v=112
297476 On ch=1 n=a3 v=0
297514 On ch=1 n=f#3 v=0
297534 On ch=1 n=d3 v=0
297544 On ch=1 n=a3 v=77
297594 On ch=1 n=d4 v=0
297608 On ch=1 n=a#2 v=124
297626 On ch=1 n=a3 v=0
297792 On ch=1 n=a4 v=90
297890 On ch=1 n=f#5 v=112
297926 On ch=1 n=a4 v=0
297974 On ch=1 n=a#3 v=97
297990 On ch=1 n=a5 v=96
298010 On ch=1 n=f#5 v=0
298072 On ch=1 n=f#5 v=100
298126 On ch=1 n=a5 v=0
298164 On ch=1 n=a4 v=90
298214 On ch=1 n=f#5 v=0
298264 Par ch=1 c=64 v=63
298270 On ch=1 n=f#4 v=115
298278 Par ch=1 c=64 v=0
298288 On ch=1 n=a4 v=0
298360 Par ch=1 c=64 v=63
298366 On ch=1 n=a4 v=92
298380 On ch=1 n=a#2 v=0
298380 Par ch=1 c=64 v=127
298440 On ch=1 n=a2 v=126
298452 On ch=1 n=f#4 v=0
298468 On ch=1 n=a#3 v=0
298536 On ch=1 n=a4 v=0
298584 Par ch=1 c=64 v=63
298656 Par ch=1 c=64 v=127
298658 On ch=1 n=f#5 v=107
298664 On ch=1 n=a5 v=94
298766 On ch=1 n=a4 v=97
298780 On ch=1 n=a5 v=0
298854 On ch=1 n=f#5 v=0
298870 On ch=1 n=f#4 v=97
298882 On ch=1 n=a3 v=83
298930 On ch=1 n=a4 v=0
299000 On ch=1 n=f#4 v=0
299076 On ch=1 n=f#4 v=118
299182 On ch=1 n=a4 v=91
299198 On ch=1 n=a2 v=0
299218 On ch=1 n=f#4 v=0
299250 On ch=1 n=a3 v=0
299294 On ch=1 n=f#5 v=106
299296 On ch=1 n=a4 v=0
299296 On ch=1 n=a5 v=100
299334 On ch=1 n=g#2 v=125
299392 On ch=1 n=f#5 v=0
299396 On ch=1 n=a5 v=0
299516 Par ch=1 c=64 v=63
299526 Par ch=1 c=64 v=0
299686 On ch=1 n=a6 v=86
299690 On ch=1 n=f#6 v=90
299782 On ch=1 n=g#3 v=63
299810 On ch=1 n=a6 v=0
299818 On ch=1 n=a5 v=67
299920 On ch=1 n=f#5 v=87
299992 On ch=1 n=f#6 v=0
300022 On ch=1 n=a4 v=71
300044 On ch=1 n=f#5 v=0
300076 On ch=1 n=a5 v=0
300090 On ch=1 n=g#4 v=65
300106 On ch=1 n=g#2 v=0
300122 Par ch=1 c=64 v=63
300130 Par ch=1 c=64 v=127
300132 On ch=1 n=f#5 v=85
300182 On ch=1 n=a4 v=0
300182 On ch=1 n=g#3 v=0
300184 On ch=1 n=a5 v=68
300228 On ch=1 n=f#5 v=0
300294 On ch=1 n=a5 v=0
300306 On ch=1 n=f#6 v=72
300326 On ch=1 n=a6 v=75
300330 On ch=1 n=g#4 v=0
300406 On ch=1 n=f#6 v=0
300408 On ch=1 n=a6 v=0
300428 On ch=1 n=a5 v=87
300434 On ch=1 n=f#5 v=90
300494 On ch=1 n=a5 v=0
300498 On ch=1 n=f#5 v=0
300542 On ch=1 n=a6 v=60
300542 On ch=1 n=f#6 v=83
300602 On ch=1 n=a6 v=0
300626 On ch=1 n=a5 v=72
300652 On ch=1 n=f#6 v=0
300710 On ch=1 n=f#5 v=78
300716 On ch=1 n=a5 v=0
300808 On ch=1 n=f#5 v=0
300810 On ch=1 n=a4 v=57
300908 On ch=1 n=f#5 v=67
300914 On ch=1 n=a4 v=0
300964 On ch=1 n=f#5 v=0
300986 On ch=1 n=a5 v=69
301086 On ch=1 n=a5 v=0
301110 On ch=1 n=a6 v=77
301110 On ch=1 n=f#6 v=75
301156 On ch=1 n=f#6 v=0
301178 On ch=1 n=a6 v=0
301220 On ch=1 n=f#6 v=81
301230 On ch=1 n=a6 v=83
301282 On ch=1 n=a6 v=0
301286 On ch=1 n=f#6 v=0
301352 On ch=1 n=f#7 v=68
301354 On ch=1 n=a7 v=58
301442 On ch=1 n=a7 v=0
301454 On ch=1 n=a6 v=68
301476 On ch=1 n=f#7 v=0
301530 On ch=1 n=a6 v=0
301544 On ch=1 n=f#6 v=78
301640 On ch=1 n=a5 v=62
301642 On ch=1 n=f#6 v=0
301730 On ch=1 n=a5 v=0
301730 On ch=1 n=f#6 v=72
301774 On ch=1 n=f#6 v=0
301810 On ch=1 n=a6 v=65
301886 On ch=1 n=a6 v=0
301902 On ch=1 n=f#7 v=79
301938 On ch=1 n=f#7 v=0
301996 On ch=1 n=a7 v=52
301996 On ch=1 n=f#7 v=62
302076 On ch=1 n=a7 v=0
302094 On ch=1 n=f#7 v=0
302122 On ch=1 n=f#8 v=76
302126 On ch=1 n=a8 v=69
302246 On ch=1 n=a7 v=34
302256 On ch=1 n=a8 v=0
302304 On ch=1 n=f#7 v=69
302336 On ch=1 n=f#8 v=0
302428 On ch=1 n=a6 v=55
302436 On ch=1 n=f#7 v=0
302532 On ch=1 n=a6 v=0
302534 On ch=1 n=f#6 v=78
302550 On ch=1 n=a7 v=0
302618 On ch=1 n=f#6 v=0
302626 On ch=1 n=a6 v=67
302718 On ch=1 n=f#7 v=74
302778 On ch=1 n=a6 v=0
302812 On ch=1 n=a7 v=63
302832 On ch=1 n=f#7 v=0
302908 On ch=1 n=f#8 v=79
302916 On ch=1 n=a7 v=0
302916 On ch=1 n=a8 v=64
303010 On ch=1 n=a7 v=60
303080 On ch=1 n=f#8 v=0
303086 On ch=1 n=f#7 v=70
303090 On ch=1 n=a8 v=0
303184 On ch=1 n=a7 v=0
303204 On ch=1 n=a6 v=62
303216 On ch=1 n=f#7 v=0
303304 On ch=1 n=a6 v=0
303304 On ch=1 n=f#6 v=76
303388 On ch=1 n=f#6 v=0
303396 On ch=1 n=a6 v=51
303484 On ch=1 n=f#7 v=65
303516 On ch=1 n=a6 v=0
303588 On ch=1 n=a7 v=58
303608 On ch=1 n=f#7 v=0
303680 On ch=1 n=f#8 v=72
303692 On ch=1 n=a7 v=0
303692 On ch=1 n=a8 v=62
303800 On ch=1 n=a7 v=55
303844 On ch=1 n=f#8 v=0
303858 On ch=1 n=a8 v=0
303884 On ch=1 n=f#7 v=69
303948 On ch=1 n=a7 v=0
304010 On ch=1 n=a6 v=59
304020 On ch=1 n=f#7 v=0
304112 On ch=1 n=f#6 v=82
304120 On ch=1 n=a6 v=0
304204 On ch=1 n=f#6 v=0
304208 On ch=1 n=a6 v=52
304304 On ch=1 n=f#7 v=75
304318 On ch=1 n=a6 v=0
304384 On ch=1 n=a7 v=62
304398 On ch=1 n=f#7 v=0
304482 On ch=1 n=f#8 v=76
304490 On ch=1 n=a8 v=60
304492 On ch=1 n=a7 v=0
304586 On ch=1 n=a7 v=55
304608 On ch=1 n=a8 v=0
304622 On ch=1 n=f#8 v=0
304660 On ch=1 n=f#7 v=70
304700 On ch=1 n=a7 v=0
304762 On ch=1 n=a5 v=81
304782 On ch=1 n=a6 v=57
304784 On ch=1 n=f#7 v=0
304880 On ch=1 n=f#6 v=76
304882 On ch=1 n=a6 v=0
304960 On ch=1 n=f#6 v=0
304980 On ch=1 n=a6 v=49
305068 On ch=1 n=f#7 v=72
305076 On ch=1 n=a6 v=0
305160 On ch=1 n=f#7 v=0
305166 On ch=1 n=a7 v=65
305270 On ch=1 n=f#8 v=69
305274 On ch=1 n=a8 v=54
305278 On ch=1 n=a7 v=0
305370 On ch=1 n=a7 v=50
305418 On ch=1 n=f#8 v=0
305420 On ch=1 n=a8 v=0
305434 On ch=1 n=f#7 v=65
305488 On ch=1 n=a7 v=0
305560 On ch=1 n=a6 v=60
305562 On ch=1 n=f#7 v=0
305664 On ch=1 n=a6 v=0
305664 On ch=1 n=f#6 v=75
305742 On ch=1 n=f#6 v=0
305760 On ch=1 n=a6 v=47
305850 On ch=1 n=f#7 v=70
305858 On ch=1 n=a6 v=0
305928 On ch=1 n=a7 v=63
305944 On ch=1 n=f#7 v=0
306030 On ch=1 n=f#8 v=73
306038 On ch=1 n=a8 v=57
306042 On ch=1 n=a7 v=0
306130 On ch=1 n=a7 v=55
306176 On ch=1 n=f#8 v=0
306180 On ch=1 n=a8 v=0
306202 On ch=1 n=f#7 v=69
306270 On ch=1 n=a7 v=0
306324 On ch=1 n=f#7 v=0
306330 On ch=1 n=a6 v=55
306422 On ch=1 n=f#6 v=72
306426 On ch=1 n=a6 v=0
306504 On ch=1 n=f#6 v=0
306528 On ch=1 n=a6 v=55
306624 On ch=1 n=f#7 v=76
306640 On ch=1 n=a6 v=0
306708 On ch=1 n=a7 v=61
306726 On ch=1 n=f#7 v=0
306814 On ch=1 n=f#8 v=71
306822 On ch=1 n=a8 v=56
306824 On ch=1 n=a7 v=0
306914 On ch=1 n=a7 v=57
306960 On ch=1 n=f#8 v=0
306964 On ch=1 n=a8 v=0
307002 On ch=1 n=f#7 v=72
307004 On ch=1 n=a5 v=0
307048 On ch=1 n=a7 v=0
307092 On ch=1 n=a5 v=63
307122 On ch=1 n=f#7 v=0
307126 On ch=1 n=a6 v=58
307218 On ch=1 n=a6 v=0
307220 On ch=1 n=f#6 v=72
307290 On ch=1 n=f#6 v=0
307306 On ch=1 n=a6 v=55
307402 On ch=1 n=a6 v=0
307402 On ch=1 n=f#7 v=77
307492 On ch=1 n=a7 v=65
307500 On ch=1 n=f#7 v=0
307592 On ch=1 n=f#8 v=70
307596 On ch=1 n=a8 v=61
307602 On ch=1 n=a7 v=0
307696 On ch=1 n=a7 v=52
307714 On ch=1 n=a8 v=0
307730 On ch=1 n=f#8 v=0
307764 On ch=1 n=f#7 v=67
307810 On ch=1 n=a7 v=0
307816 Par ch=1 c=64 v=63
307890 On ch=1 n=f#7 v=0
307890 On ch=1 n=a6 v=56
307948 Par ch=1 c=64 v=127
307998 On ch=1 n=a6 v=0
307998 On ch=1 n=f#6 v=74
308072 On ch=1 n=f#6 v=0
308100 On ch=1 n=a6 v=44
308186 On ch=1 n=f#7 v=62
308204 On ch=1 n=a6 v=0
308272 On ch=1 n=a7 v=63
308286 On ch=1 n=f#7 v=0
308384 On ch=1 n=f#8 v=66
308388 On ch=1 n=a7 v=0
308392 On ch=1 n=a8 v=53
308484 On ch=1 n=a7 v=53
308506 On ch=1 n=a8 v=0
308516 On ch=1 n=f#8 v=0
308560 On ch=1 n=f#7 v=65
308604 On ch=1 n=a7 v=0
308696 On ch=1 n=f#7 v=0
308696 On ch=1 n=a6 v=48
308796 On ch=1 n=a6 v=0
308796 On ch=1 n=f#6 v=72
308870 On ch=1 n=f#6 v=0
308886 On ch=1 n=a6 v=41
308984 On ch=1 n=f#7 v=65
309004 On ch=1 n=a6 v=0
309084 On ch=1 n=f#7 v=0
309084 On ch=1 n=a7 v=58
309194 On ch=1 n=a7 v=0
309210 On ch=1 n=f#8 v=55
309212 On ch=1 n=a8 v=39
309340 On ch=1 n=a8 v=0
309342 On ch=1 n=a7 v=46
309366 On ch=1 n=f#8 v=0
309434 On ch=1 n=a5 v=0
309434 On ch=1 n=f#7 v=58
309452 On ch=1 n=a7 v=0
309574 On ch=1 n=f#7 v=0
309578 On ch=1 n=a6 v=49
309632 On ch=1 n=a5 v=38
309708 On ch=1 n=a6 v=0
309720 On ch=1 n=f#6 v=70
309826 On ch=1 n=f#6 v=0
309876 On ch=1 n=a6 v=38
310010 On ch=1 n=a6 v=0
310024 On ch=1 n=f#7 v=52
310148 On ch=1 n=f#7 v=0
310248 On ch=1 n=a7 v=60
310248 On ch=1 n=g7 v=60
310260 On ch=1 n=d7 v=61
310304 On ch=1 n=d5 v=73
310304 On ch=1 n=g4 v=62
310500 On ch=1 n=a6 v=65
310534 On ch=1 n=a7 v=0
310610 On ch=1 n=d7 v=0
310650 On ch=1 n=g7 v=0
310678 On ch=1 n=g6 v=84
310732 On ch=1 n=a6 v=0
310822 On ch=1 n=a6 v=82
310880 On ch=1 n=g6 v=0
310974 On ch=1 n=g7 v=65
310974 On ch=1 n=a#5 v=49
310976 On ch=1 n=a7 v=73
310980 On ch=1 n=d7 v=68
310994 On ch=1 n=d6 v=106
311042 On ch=1 n=g4 v=0
311042 On ch=1 n=a5 v=0
311070 On ch=1 n=a7 v=0
311090 On ch=1 n=g7 v=0
311114 On ch=1 n=a7 v=88
311152 On ch=1 n=d7 v=0
311164 On ch=1 n=a6 v=0
311230 On ch=1 n=a7 v=0
311248 On ch=1 n=a8 v=61
311270 On ch=1 n=g8 v=67
311274 On ch=1 n=d8 v=47
311350 On ch=1 n=a7 v=75
311382 On ch=1 n=a#5 v=0
311410 On ch=1 n=d8 v=0
311452 On ch=1 n=a7 v=0
311464 On ch=1 n=a8 v=0
311484 On ch=1 n=g8 v=0
311494 On ch=1 n=a7 v=62
311496 On ch=1 n=d7 v=68
311498 On ch=1 n=g7 v=64
311506 On ch=1 n=d6 v=0
311534 On ch=1 n=a#5 v=71
311538 On ch=1 n=a6 v=118
311550 On ch=1 n=d6 v=94
311550 On ch=1 n=a5 v=67
311590 On ch=1 n=d5 v=0
311606 On ch=1 n=a7 v=0
311628 On ch=1 n=g7 v=0
311678 On ch=1 n=d7 v=0
311736 On ch=1 n=g6 v=84
311930 On ch=1 n=g6 v=0
311980 On ch=1 n=g7 v=52
311982 On ch=1 n=a7 v=63
312000 On ch=1 n=d7 v=41
312038 On ch=1 n=a7 v=0
312044 On ch=1 n=g7 v=0
312054 On ch=1 n=d7 v=0
312092 On ch=1 n=a7 v=83
312192 On ch=1 n=a7 v=0
312214 On ch=1 n=a8 v=77
312232 On ch=1 n=d8 v=64
312238 On ch=1 n=g8 v=73
312320 On ch=1 n=a7 v=82
312350 On ch=1 n=a#5 v=0
312366 On ch=1 n=a8 v=0
312374 On ch=1 n=g8 v=0
312374 On ch=1 n=d8 v=0
312410 On ch=1 n=d6 v=0
312412 On ch=1 n=a7 v=0
312438 On ch=1 n=g7 v=61
312440 On ch=1 n=d7 v=86
312444 On ch=1 n=a7 v=97
312462 On ch=1 n=g6 v=114
312466 On ch=1 n=a#5 v=101
312474 On ch=1 n=d6 v=102
312482 On ch=1 n=g5 v=84
312514 On ch=1 n=a6 v=0
312518 On ch=1 n=a5 v=0
312536 On ch=1 n=a7 v=0
312558 On ch=1 n=a6 v=83
312572 On ch=1 n=g7 v=0
312600 On ch=1 n=d7 v=0
312716 On ch=1 n=a6 v=0
312794 On ch=1 n=a6 v=82
312804 On ch=1 n=a#5 v=0
312830 On ch=1 n=d6 v=0
312898 On ch=1 n=f6 v=117
312898 On ch=1 n=a#5 v=105
312908 On ch=1 n=d7 v=73
312908 On ch=1 n=a7 v=78
312910 On ch=1 n=g7 v=68
312910 On ch=1 n=d6 v=96
312918 On ch=1 n=f5 v=81
312964 On ch=1 n=g5 v=0
312966 On ch=1 n=a7 v=0
312966 On ch=1 n=a6 v=0
312968 On ch=1 n=g7 v=0
312978 On ch=1 n=g6 v=0
312986 On ch=1 n=d7 v=0
313014 On ch=1 n=a7 v=93
313110 On ch=1 n=a7 v=0
313130 On ch=1 n=a8 v=92
313144 On ch=1 n=d8 v=75
313150 On ch=1 n=g8 v=79
313226 On ch=1 n=a7 v=93
313260 On ch=1 n=a8 v=0
313266 On ch=1 n=g8 v=0
313272 On ch=1 n=d8 v=0
313310 On ch=1 n=a7 v=0
313350 On ch=1 n=g7 v=78
313350 On ch=1 n=a7 v=87
313352 On ch=1 n=d7 v=92
313412 On ch=1 n=d6 v=0
313458 On ch=1 n=a7 v=0
313464 On ch=1 n=a6 v=84
313472 On ch=1 n=g7 v=0
313512 On ch=1 n=d7 v=0
313578 On ch=1 n=g6 v=86
313616 On ch=1 n=a6 v=0
313616 On ch=1 n=a#5 v=0
313702 On ch=1 n=a6 v=88
313744 On ch=1 n=g6 v=0
313786 On ch=1 n=a#5 v=55
313798 On ch=1 n=c6 v=84
313804 On ch=1 n=a7 v=71
313804 On ch=1 n=g7 v=51
313808 On ch=1 n=d7 v=50
313840 On ch=1 n=c5 v=44
313856 On ch=1 n=a7 v=0
313858 On ch=1 n=g7 v=0
313858 On ch=1 n=f6 v=0
313866 On ch=1 n=a6 v=0
313872 On ch=1 n=d7 v=0
313878 On ch=1 n=f5 v=0
313918 On ch=1 n=a7 v=90
314008 On ch=1 n=a7 v=0
314020 On ch=1 n=c5 v=0
314024 On ch=1 n=a#5 v=0
314030 On ch=1 n=a8 v=88
314042 On ch=1 n=d8 v=76
314048 On ch=1 n=g8 v=75
314128 On ch=1 n=a7 v=89
314150 On ch=1 n=a8 v=0
314162 On ch=1 n=g8 v=0
314168 On ch=1 n=d8 v=0
314204 On ch=1 n=a7 v=0
314244 On ch=1 n=g7 v=73
314246 On ch=1 n=a7 v=76
314246 On ch=1 n=d7 v=82
314294 On ch=1 n=g4 v=89
314308 On ch=1 n=d5 v=93
314310 On ch=1 n=c6 v=0
314340 On ch=1 n=a7 v=0
314352 On ch=1 n=a6 v=78
314368 On ch=1 n=g7 v=0
314396 On ch=1 n=d7 v=0
314466 On ch=1 n=g6 v=82
314504 On ch=1 n=a6 v=0
314584 On ch=1 n=a6 v=81
314604 On ch=1 n=d5 v=0
314610 On ch=1 n=g6 v=0
314710 On ch=1 n=d7 v=79
314714 On ch=1 n=a7 v=71
314714 On ch=1 n=d5 v=113
314716 On ch=1 n=g7 v=59
314724 On ch=1 n=d6 v=114
314734 On ch=1 n=a#5 v=110
314758 On ch=1 n=g7 v=0
314758 On ch=1 n=a7 v=0
314774 On ch=1 n=a6 v=0
314780 On ch=1 n=d7 v=0
314820 On ch=1 n=a7 v=89
314908 On ch=1 n=a7 v=0
314938 On ch=1 n=a8 v=85
314950 On ch=1 n=d8 v=76
314952 On ch=1 n=g8 v=81
315028 On ch=1 n=a7 v=91
315058 On ch=1 n=a8 v=0
315070 On ch=1 n=g8 v=0
315074 On ch=1 n=d8 v=0
315084 On ch=1 n=a#5 v=0
315102 On ch=1 n=d6 v=0
315114 On ch=1 n=a7 v=0
315148 On ch=1 n=d7 v=91
315150 On ch=1 n=g7 v=83
315150 On ch=1 n=a7 v=89
315160 On ch=1 n=a5 v=88
315162 On ch=1 n=a6 v=117
315168 On ch=1 n=d6 v=108
315174 On ch=1 n=a#5 v=107
315204 On ch=1 n=g4 v=0
315250 On ch=1 n=a7 v=0
315272 On ch=1 n=g7 v=0
315300 On ch=1 n=d7 v=0
315346 On ch=1 n=d5 v=0
315362 On ch=1 n=g6 v=85
315508 On ch=1 n=g6 v=0
315560 On ch=1 n=d7 v=72
315582 On ch=1 n=g7 v=52
315584 On ch=1 n=a7 v=68
315626 On ch=1 n=a7 v=0
315636 On ch=1 n=g7 v=0
315654 On ch=1 n=d7 v=0
315688 On ch=1 n=a7 v=92
315784 On ch=1 n=a7 v=0
315810 On ch=1 n=a8 v=89
315812 On ch=1 n=d8 v=92
315822 On ch=1 n=g8 v=85
315870 On ch=1 n=a6 v=0
315906 On ch=1 n=a7 v=99
315926 On ch=1 n=a8 v=0
315928 On ch=1 n=a#5 v=0
315932 On ch=1 n=d6 v=0
315942 On ch=1 n=d8 v=0
315948 On ch=1 n=g8 v=0
315960 On ch=1 n=g5 v=85
315968 On ch=1 n=g6 v=113
315978 On ch=1 n=d6 v=100
315980 On ch=1 n=a#5 v=90
315986 On ch=1 n=a7 v=0
316020 On ch=1 n=a5 v=0
316026 On ch=1 n=g7 v=76
316026 On ch=1 n=a7 v=93
316028 On ch=1 n=d7 v=89
316124 On ch=1 n=a7 v=0
316128 On ch=1 n=a6 v=84
316150 On ch=1 n=g7 v=0
316180 On ch=1 n=d7 v=0
316280 On ch=1 n=a6 v=0
316350 On ch=1 n=a6 v=87
316408 On ch=1 n=a#5 v=0
316418 On ch=1 n=d6 v=0
316424 On ch=1 n=g6 v=0
316452 On ch=1 n=f6 v=112
316462 On ch=1 n=f5 v=87
316462 On ch=1 n=d6 v=100
316466 On ch=1 n=a#5 v=80
316478 On ch=1 n=d7 v=93
316488 On ch=1 n=g7 v=71
316490 On ch=1 n=a7 v=98
316524 On ch=1 n=g5 v=0
316542 On ch=1 n=a6 v=0
316554 On ch=1 n=a7 v=0
316558 On ch=1 n=d7 v=0
316560 On ch=1 n=g7 v=0
316588 On ch=1 n=a7 v=99
316682 On ch=1 n=a7 v=0
316706 On ch=1 n=a8 v=97
316714 On ch=1 n=d8 v=85
316720 On ch=1 n=g8 v=87
316796 On ch=1 n=a7 v=96
316820 On ch=1 n=a8 v=0
316832 On ch=1 n=g8 v=0
316840 On ch=1 n=d8 v=0
316874 On ch=1 n=a7 v=0
316918 On ch=1 n=d7 v=94
316918 On ch=1 n=g7 v=71
316920 On ch=1 n=a7 v=92
316998 On ch=1 n=d6 v=0
317006 On ch=1 n=a7 v=0
317020 On ch=1 n=g7 v=0
317022 On ch=1 n=a6 v=86
317072 On ch=1 n=d7 v=0
317134 On ch=1 n=g6 v=84
317178 On ch=1 n=a6 v=0
317178 On ch=1 n=a#5 v=0
317244 On ch=1 n=a6 v=74
317292 On ch=1 n=g6 v=0
317340 On ch=1 n=c6 v=75
317350 On ch=1 n=a#5 v=67
317352 On ch=1 n=c5 v=52
317360 On ch=1 n=d7 v=70
317382 On ch=1 n=g7 v=56
317382 On ch=1 n=a7 v=65
317396 On ch=1 n=f6 v=0
317406 On ch=1 n=a6 v=0
317422 On ch=1 n=a7 v=0
317422 On ch=1 n=d7 v=0
317426 On ch=1 n=g7 v=0
317466 On ch=1 n=f5 v=0
317480 On ch=1 n=a7 v=84
317564 On ch=1 n=a7 v=0
317602 On ch=1 n=a8 v=76
317616 On ch=1 n=d8 v=71
317624 On ch=1 n=g8 v=70
317694 On ch=1 n=a7 v=78
317714 On ch=1 n=d8 v=0
317724 On ch=1 n=a8 v=0
317730 On ch=1 n=g8 v=0
317766 On ch=1 n=a7 v=0
317776 On ch=1 n=a#5 v=0
317786 On ch=1 n=c6 v=0
317862 On ch=1 n=a7 v=80
317870 On ch=1 n=d#7 v=84
317882 On ch=1 n=c#5 v=99
317884 On ch=1 n=g4 v=76
317898 On ch=1 n=c#7 v=72
317906 On ch=1 n=c5 v=0
317964 On ch=1 n=a7 v=0
317992 On ch=1 n=d#7 v=0
318008 On ch=1 n=c#7 v=0
318072 On ch=1 n=a6 v=76
318214 On ch=1 n=a6 v=0
318218 On ch=1 n=g6 v=80
318344 On ch=1 n=a6 v=76
318360 On ch=1 n=g6 v=0
318468 On ch=1 n=a6 v=0
318476 On ch=1 n=d#6 v=113
318480 On ch=1 n=a#5 v=103
318480 On ch=1 n=d#5 v=88
318484 On ch=1 n=c#6 v=100
318486 On ch=1 n=d#7 v=88
318488 On ch=1 n=c#7 v=81
318490 On ch=1 n=a7 v=82
318530 On ch=1 n=a7 v=0
318542 On ch=1 n=d#7 v=0
318552 On ch=1 n=c#7 v=0
318590 On ch=1 n=a7 v=82
318674 On ch=1 n=a7 v=0
318720 On ch=1 n=g4 v=0
318722 On ch=1 n=a8 v=82
318722 On ch=1 n=d#8 v=88
318728 On ch=1 n=c#8 v=78
318792 On ch=1 n=a8 v=0
318816 On ch=1 n=a7 v=71
318824 On ch=1 n=d#8 v=0
318824 On ch=1 n=c#6 v=0
318836 On ch=1 n=a#5 v=0
318836 On ch=1 n=c#5 v=0
318838 On ch=1 n=d#6 v=0
318840 On ch=1 n=c#8 v=0
318886 On ch=1 n=a7 v=0
318948 On ch=1 n=a7 v=82
318950 On ch=1 n=d#7 v=90
318960 On ch=1 n=c#7 v=70
318982 On ch=1 n=a5 v=104
318984 On ch=1 n=a6 v=116
318984 On ch=1 n=d#6 v=118
318992 On ch=1 n=c#6 v=116
319018 On ch=1 n=a7 v=0
319050 On ch=1 n=d#7 v=0
319056 On ch=1 n=c#7 v=0
319206 On ch=1 n=g6 v=86
319354 On ch=1 n=g6 v=0
319454 On ch=1 n=d#7 v=101
319456 On ch=1 n=c#7 v=97
319462 On ch=1 n=a7 v=86
319512 On ch=1 n=a7 v=0
319514 On ch=1 n=c#7 v=0
319514 On ch=1 n=d#7 v=0
319560 On ch=1 n=d#5 v=0
319574 On ch=1 n=a7 v=94
319664 On ch=1 n=a7 v=0
319704 On ch=1 n=a8 v=92
319706 On ch=1 n=c#8 v=90
319708 On ch=1 n=d#8 v=90
319768 On ch=1 n=a6 v=0
319786 On ch=1 n=a8 v=0
319800 On ch=1 n=a7 v=89
319820 On ch=1 n=d#8 v=0
319828 On ch=1 n=c#6 v=0
319836 On ch=1 n=c#8 v=0
319842 On ch=1 n=d#6 v=0
319870 On ch=1 n=a7 v=0
319916 On ch=1 n=g5 v=116
319916 On ch=1 n=g6 v=117
319920 On ch=1 n=d#6 v=116
319924 On ch=1 n=c#6 v=114
319926 On ch=1 n=a7 v=92
319930 On ch=1 n=d#7 v=98
319938 On ch=1 n=c#7 v=93
319948 On ch=1 n=a5 v=0
319994 On ch=1 n=a7 v=0
320032 On ch=1 n=c#7 v=0
320036 On ch=1 n=d#7 v=0
320064 On ch=1 n=a6 v=87
320206 On ch=1 n=a6 v=0
320282 On ch=1 n=a6 v=92
320358 On ch=1 n=c#6 v=0
320368 On ch=1 n=d#6 v=0
320372 On ch=1 n=g6 v=0
320412 On ch=1 n=d#7 v=103
320414 On ch=1 n=c#7 v=101
320416 On ch=1 n=f5 v=121
320420 On ch=1 n=a6 v=0
320420 On ch=1 n=a7 v=96
320422 On ch=1 n=f6 v=121
320464 On ch=1 n=g5 v=0
320482 On ch=1 n=a7 v=0
320484 On ch=1 n=c#7 v=0
320484 On ch=1 n=d#7 v=0
320532 On ch=1 n=a7 v=96
320620 On ch=1 n=a7 v=0
320648 On ch=1 n=a8 v=94
320652 On ch=1 n=d#8 v=96
320656 On ch=1 n=c#8 v=86
320724 On ch=1 n=a8 v=0
320744 On ch=1 n=a7 v=86
320768 On ch=1 n=d#8 v=0
320780 On ch=1 n=c#8 v=0
320812 On ch=1 n=a7 v=0
320852 On ch=1 n=a7 v=101
320862 On ch=1 n=e7 v=87
320868 On ch=1 n=a#4 v=114
320870 On ch=1 n=c7 v=79
320916 On ch=1 n=a7 v=0
320966 On ch=1 n=e7 v=0
321000 On ch=1 n=a6 v=77
321026 On ch=1 n=c7 v=0
321132 On ch=1 n=g6 v=94
321158 On ch=1 n=a6 v=0
321234 On ch=1 n=a6 v=73
321246 On ch=1 n=f5 v=0
321288 On ch=1 n=g6 v=0
321306 On ch=1 n=c6 v=113
321316 On ch=1 n=e5 v=104
321320 On ch=1 n=g5 v=107
321348 On ch=1 n=f6 v=0
321354 On ch=1 n=e7 v=85
321356 On ch=1 n=b6 v=30
321360 On ch=1 n=a6 v=0
321360 On ch=1 n=c7 v=65
321366 On ch=1 n=a7 v=71
321392 On ch=1 n=b6 v=0
321396 On ch=1 n=a7 v=0
321406 On ch=1 n=e7 v=0
321424 On ch=1 n=c7 v=0
321472 On ch=1 n=a7 v=98
321550 On ch=1 n=a7 v=0
321586 On ch=1 n=a8 v=76
321594 On ch=1 n=c8 v=73
321600 On ch=1 n=e8 v=80
321672 On ch=1 n=a8 v=0
321686 On ch=1 n=a#4 v=0
321686 On ch=1 n=a7 v=91
321688 On ch=1 n=e8 v=0
321710 On ch=1 n=g5 v=0
321714 On ch=1 n=c8 v=0
321742 On ch=1 n=c6 v=0
321754 On ch=1 n=a7 v=0
321772 On ch=1 n=c#5 v=119
321772 On ch=1 n=g4 v=109
321824 On ch=1 n=e5 v=0
321830 On ch=1 n=c#7 v=77
321832 On ch=1 n=g7 v=76
321832 On ch=1 n=d#7 v=81
321832 On ch=1 n=a7 v=74
321910 On ch=1 n=a7 v=0
321920 On ch=1 n=g7 v=0
321920 On ch=1 n=c#7 v=0
321968 On ch=1 n=d#7 v=0
321970 On ch=1 n=a6 v=59
322112 On ch=1 n=g6 v=88
322156 On ch=1 n=a6 v=0
322234 On ch=1 n=a6 v=68
322260 On ch=1 n=g6 v=0
322302 On ch=1 n=d#5 v=115
322308 On ch=1 n=d#6 v=115
322308 On ch=1 n=a#5 v=113
322308 On ch=1 n=c#6 v=113
322348 On ch=1 n=d#7 v=95
322348 On ch=1 n=c#7 v=84
322352 On ch=1 n=a6 v=0
322360 On ch=1 n=a7 v=78
322388 On ch=1 n=a7 v=0
322406 On ch=1 n=d#7 v=0
322412 On ch=1 n=c#7 v=0
322434 On ch=1 n=g4 v=0
322470 On ch=1 n=a7 v=96
322548 On ch=1 n=c#5 v=0
322566 On ch=1 n=a7 v=0
322592 On ch=1 n=a#5 v=0
322594 On ch=1 n=c#6 v=0
322594 On ch=1 n=d#8 v=92
322596 On ch=1 n=c#8 v=83
322600 On ch=1 n=a8 v=80
322612 On ch=1 n=d#6 v=0
322676 On ch=1 n=a8 v=0
322686 On ch=1 n=a7 v=79
322708 On ch=1 n=d#8 v=0
322716 On ch=1 n=c#8 v=0
322750 On ch=1 n=a7 v=0
322770 On ch=1 n=a5 v=111
322772 On ch=1 n=a6 v=117
322774 On ch=1 n=d#6 v=120
322776 On ch=1 n=c#6 v=119
322802 On ch=1 n=a7 v=101
322806 On ch=1 n=d#7 v=100
322812 On ch=1 n=c#7 v=81
322878 On ch=1 n=a7 v=0
322908 On ch=1 n=c#7 v=0
322922 On ch=1 n=d#7 v=0
322928 On ch=1 n=c7 v=43
322954 On ch=1 n=b6 v=68
322976 On ch=1 n=c7 v=0
323000 On ch=1 n=b6 v=0
323064 On ch=1 n=g6 v=93
323202 On ch=1 n=g6 v=0
323268 On ch=1 n=d#7 v=106
323276 On ch=1 n=c#7 v=99
323278 On ch=1 n=a7 v=97
323324 On ch=1 n=a7 v=0
323338 On ch=1 n=d#7 v=0
323356 On ch=1 n=c#7 v=0
323382 On ch=1 n=a7 v=98
323410 On ch=1 n=d#5 v=0
323452 Par ch=1 c=67 v=127
323468 On ch=1 n=a7 v=0
323504 On ch=1 n=d#8 v=104
323506 On ch=1 n=c#8 v=94
323510 On ch=1 n=a8 v=84
323530 On ch=1 n=a6 v=0
323586 On ch=1 n=a8 v=0
323592 On ch=1 n=c#6 v=0
323600 On ch=1 n=d#6 v=0
323600 On ch=1 n=a7 v=94
323624 On ch=1 n=d#8 v=0
323640 On ch=1 n=c#8 v=0
323654 On ch=1 n=g6 v=114
323654 On ch=1 n=g5 v=116
323658 On ch=1 n=d#6 v=108
323664 On ch=1 n=c#6 v=115
323670 On ch=1 n=a7 v=0
323706 On ch=1 n=a5 v=0
323720 On ch=1 n=a7 v=96
323724 On ch=1 n=d#7 v=98
323728 On ch=1 n=c#7 v=95
323804 On ch=1 n=a7 v=0
323818 On ch=1 n=c#7 v=0
323846 On ch=1 n=d#7 v=0
323854 On ch=1 n=a6 v=89
324010 On ch=1 n=a6 v=0
324082 On ch=1 n=a6 v=100
324098 On ch=1 n=c#6 v=0
324104 On ch=1 n=d#6 v=0
324138 On ch=1 n=g6 v=0
324160 On ch=1 n=f5 v=120
324162 On ch=1 n=f6 v=116
324166 On ch=1 n=d#6 v=109
324170 On ch=1 n=c#6 v=110
324186 On ch=1 n=g5 v=0
324196 On ch=1 n=d#7 v=112
324202 On ch=1 n=c#7 v=83
324208 On ch=1 n=a7 v=97
324212 On ch=1 n=a6 v=0
324258 On ch=1 n=a7 v=0
324270 On ch=1 n=c#7 v=0
324276 On ch=1 n=d#7 v=0
324318 On ch=1 n=a7 v=106
324408 On ch=1 n=a7 v=0
324436 On ch=1 n=d#8 v=105
324440 On ch=1 n=c#8 v=99
324442 On ch=1 n=a8 v=91
324468 On ch=1 n=f#8 v=65
324500 On ch=1 n=f#8 v=0
324524 On ch=1 n=a8 v=0
324534 On ch=1 n=a7 v=100
324566 On ch=1 n=d#8 v=0
324580 On ch=1 n=c#8 v=0
324592 On ch=1 n=a#4 v=120
324602 On ch=1 n=a7 v=0
324658 On ch=1 n=f6 v=0
324658 On ch=1 n=e7 v=107
324662 On ch=1 n=a7 v=100
324670 On ch=1 n=c#6 v=0
324670 On ch=1 n=c7 v=97
324676 On ch=1 n=d#6 v=0
324734 On ch=1 n=a7 v=0
324760 On ch=1 n=e7 v=0
324808 On ch=1 n=a6 v=74
324850 On ch=1 n=c7 v=0
324938 On ch=1 n=g6 v=109
324940 On ch=1 n=f5 v=0
324988 On ch=1 n=a6 v=0
325044 On ch=1 n=a6 v=90
325126 On ch=1 n=g6 v=0
325150 On ch=1 n=e5 v=104
325156 On ch=1 n=c6 v=118
325162 On ch=1 n=g5 v=112
325168 On ch=1 n=e7 v=106
325174 On ch=1 n=b6 v=60
325176 On ch=1 n=c7 v=82
325178 On ch=1 n=a7 v=104
325202 On ch=1 n=a7 v=0
325202 On ch=1 n=b6 v=0
325202 On ch=1 n=a6 v=0
325230 On ch=1 n=e7 v=0
325242 On ch=1 n=c7 v=0
325266 Par ch=1 c=64 v=63
325290 On ch=1 n=a7 v=104
325300 Par ch=1 c=64 v=0
325378 On ch=1 n=a7 v=0
325404 On ch=1 n=a#4 v=0
325418 On ch=1 n=c8 v=87
325418 On ch=1 n=a8 v=88
325420 On ch=1 n=e8 v=86
325482 On ch=1 n=a7 v=79
325512 On ch=1 n=a8 v=0
325526 On ch=1 n=e8 v=0
325558 On ch=1 n=c8 v=0
325566 On ch=1 n=g5 v=0
325580 On ch=1 n=c6 v=0
325614 Par ch=1 c=67 v=0
325628 On ch=1 n=a7 v=0
325638 On ch=1 n=c#5 v=123
325640 On ch=1 n=g4 v=113
325680 On ch=1 n=e5 v=0
325680 On ch=1 n=d#7 v=97
325680 On ch=1 n=a7 v=89
325686 On ch=1 n=c#7 v=85
325708 Par ch=1 c=64 v=63
325716 Par ch=1 c=64 v=127
325802 On ch=1 n=a7 v=0
325824 On ch=1 n=c#7 v=0
325844 On ch=1 n=d#7 v=0
325846 On ch=1 n=c7 v=31
325850 On ch=1 n=a6 v=60
325890 On ch=1 n=c7 v=0
325958 On ch=1 n=g6 v=85
325974 On ch=1 n=a6 v=0
326058 On ch=1 n=a6 v=84
326100 On ch=1 n=g6 v=0
326182 On ch=1 n=d#7 v=86
326190 On ch=1 n=a6 v=0
326198 On ch=1 n=a7 v=84
326202 On ch=1 n=d#5 v=118
326210 On ch=1 n=d#6 v=113
326212 On ch=1 n=c#6 v=109
326212 On ch=1 n=a#5 v=114
326248 On ch=1 n=a7 v=0
326268 On ch=1 n=d#7 v=0
326286 On ch=1 n=a7 v=88
326306 Par ch=1 c=64 v=127
326380 On ch=1 n=a7 v=0
326386 On ch=1 n=g4 v=0
326416 On ch=1 n=a8 v=98
326420 On ch=1 n=d#8 v=92
326422 On ch=1 n=a#5 v=0
326422 On ch=1 n=c#8 v=86
326448 On ch=1 n=c#6 v=0
326456 On ch=1 n=d#6 v=0
326474 On ch=1 n=c#5 v=0
326494 On ch=1 n=a8 v=0
326504 On ch=1 n=a7 v=91
326530 On ch=1 n=d#8 v=0
326546 On ch=1 n=c#8 v=0
326574 On ch=1 n=a7 v=0
326628 On ch=1 n=d#7 v=106
326632 On ch=1 n=a7 v=89
326648 On ch=1 n=c#7 v=82
326672 On ch=1 n=a6 v=114
326676 On ch=1 n=a5 v=107
326678 On ch=1 n=d#6 v=115
326682 On ch=1 n=c#6 v=114
326702 On ch=1 n=a7 v=0
326720 On ch=1 n=c#7 v=0
326732 On ch=1 n=d#5 v=0
326748 On ch=1 n=d#7 v=0
326750 On ch=1 n=a5 v=0
326870 On ch=1 n=g6 v=97
327018 On ch=1 n=g6 v=0
327056 On ch=1 n=c#6 v=0
327074 On ch=1 n=d#6 v=0
327096 On ch=1 n=a6 v=0
327106 On ch=1 n=d#7 v=104
327110 On ch=1 n=c#7 v=99
327120 On ch=1 n=a#4 v=127
327122 On ch=1 n=a7 v=100
327122 On ch=1 n=a#3 v=114
327124 On ch=1 n=d#4 v=116
327150 Par ch=1 c=64 v=63
327156 Par ch=1 c=64 v=0
327174 On ch=1 n=a7 v=0
327186 On ch=1 n=d#7 v=0
327200 On ch=1 n=c#7 v=0
327222 On ch=1 n=a7 v=99
327230 Par ch=1 c=64 v=63
327240 Par ch=1 c=64 v=127
327310 On ch=1 n=a7 v=0
327328 On ch=1 n=a#3 v=0
327334 On ch=1 n=d#4 v=0
327350 On ch=1 n=d#8 v=103
327354 On ch=1 n=a8 v=90
327354 On ch=1 n=c#8 v=90
327372 On ch=1 n=a#4 v=0
327422 On ch=1 n=a8 v=0
327434 On ch=1 n=a7 v=93
327456 On ch=1 n=d#8 v=0
327476 On ch=1 n=c#8 v=0
327502 On ch=1 n=a7 v=0
327536 On ch=1 n=d#6 v=123
327538 On ch=1 n=d#5 v=121
327538 On ch=1 n=a#5 v=124
327540 On ch=1 n=c#6 v=118
327592 On ch=1 n=a7 v=112
327594 On ch=1 n=a#5 v=0
327598 On ch=1 n=d#7 v=104
327600 On ch=1 n=c#7 v=96
327622 On ch=1 n=c#6 v=0
327626 On ch=1 n=d#6 v=0
327628 On ch=1 n=d#5 v=0
327688 On ch=1 n=a7 v=0
327712 On ch=1 n=c#7 v=0
327738 On ch=1 n=a6 v=89
327740 On ch=1 n=c7 v=23
327750 On ch=1 n=d#7 v=0
327786 On ch=1 n=c7 v=0
327860 On ch=1 n=g6 v=86
327888 On ch=1 n=a6 v=0
327956 On ch=1 n=a6 v=91
328000 On ch=1 n=g6 v=0
328044 On ch=1 n=a5 v=117
328050 On ch=1 n=d#7 v=105
328052 On ch=1 n=d#6 v=123
328054 On ch=1 n=c#7 v=104
328054 On ch=1 n=c#6 v=119
328062 On ch=1 n=a7 v=103
328090 On ch=1 n=c#6 v=0
328102 On ch=1 n=d#6 v=0
328104 On ch=1 n=a6 v=0
328108 On ch=1 n=a5 v=0
328128 On ch=1 n=a7 v=0
328144 On ch=1 n=d#7 v=0
328150 On ch=1 n=c#7 v=0
328168 On ch=1 n=a7 v=107
328256 On ch=1 n=a7 v=0
328290 On ch=1 n=c#8 v=107
328292 On ch=1 n=d#8 v=108
328294 On ch=1 n=a8 v=103
328378 On ch=1 n=a8 v=0
328388 On ch=1 n=a7 v=108
328420 On ch=1 n=d#8 v=0
328432 On ch=1 n=c#8 v=0
328458 On ch=1 n=a7 v=0
328530 On ch=1 n=a7 v=118
328530 On ch=1 n=d#7 v=121
328538 On ch=1 n=c#7 v=109
328546 On ch=1 n=g4 v=122
328550 On ch=1 n=c#4 v=121
328552 On ch=1 n=g3 v=120
328584 Par ch=1 c=64 v=63
328592 Par ch=1 c=64 v=0
328622 On ch=1 n=a7 v=0
328634 On ch=1 n=c#7 v=0
328666 On ch=1 n=a6 v=99
328674 On ch=1 n=d#7 v=0
328694 On ch=1 n=b6 v=35
328734 On ch=1 n=b6 v=0
328766 On ch=1 n=a6 v=0
328784 On ch=1 n=g6 v=114
328896 On ch=1 n=a6 v=102
328956 On ch=1 n=g6 v=0
328980 On ch=1 n=a6 v=0
329032 On ch=1 n=d#7 v=120
329036 On ch=1 n=a7 v=117
329036 On ch=1 n=c#7 v=109
329082 On ch=1 n=d#6 v=118
329084 On ch=1 n=a7 v=0
329084 On ch=1 n=d#5 v=127
329086 On ch=1 n=a#5 v=121
329086 On ch=1 n=c#6 v=116
329092 On ch=1 n=c#7 v=0
329092 On ch=1 n=d#7 v=0
329110 Par ch=1 c=64 v=127
329142 On ch=1 n=g3 v=0
329158 On ch=1 n=d#5 v=0
329162 On ch=1 n=c#4 v=0
329164 On ch=1 n=g4 v=0
329170 On ch=1 n=a7 v=116
329174 On ch=1 n=a#5 v=0
329186 On ch=1 n=d#6 v=0
329200 On ch=1 n=c#6 v=0
329286 On ch=1 n=a7 v=0
329324 On ch=1 n=c#8 v=113
329326 On ch=1 n=d#8 v=112
329330 On ch=1 n=a8 v=92
329410 On ch=1 n=a8 v=0
329412 On ch=1 n=c#8 v=0
329422 On ch=1 n=d#8 v=0
329456 On ch=1 n=a7 v=111
329472 On ch=1 n=c#8 v=59
329504 On ch=1 n=c#8 v=0
329554 On ch=1 n=a7 v=0
329658 On ch=1 n=a#2 v=119
329664 On ch=1 n=a7 v=118
329922 On ch=1 n=d#7 v=97
329928 On ch=1 n=d#3 v=88
329984 On ch=1 n=a#2 v=0
330002 On ch=1 n=a7 v=0
330104 On ch=1 n=c#7 v=100
330114 On ch=1 n=g3 v=75
330178 Par ch=1 c=64 v=63
330182 Par ch=1 c=64 v=127
330188 On ch=1 n=d#7 v=0
330196 On ch=1 n=d#3 v=0
330228 On ch=1 n=c#4 v=98
330240 On ch=1 n=g3 v=0
330240 On ch=1 n=a6 v=90
330260 On ch=1 n=c#7 v=0
330298 On ch=1 n=c#4 v=0
330316 On ch=1 n=a6 v=0
330390 On ch=1 n=d#4 v=84
330392 On ch=1 n=a6 v=101
330526 On ch=1 n=g4 v=85
330528 On ch=1 n=d#6 v=114
330546 On ch=1 n=a6 v=0
330604 On ch=1 n=d#4 v=0
330626 On ch=1 n=c#6 v=113
330672 On ch=1 n=d#6 v=0
330704 On ch=1 n=g4 v=0
330714 On ch=1 n=c#5 v=110
330720 On ch=1 n=a5 v=113
330772 On ch=1 n=c#6 v=0
330884 On ch=1 n=c#6 v=106
330886 On ch=1 n=c#5 v=0
330888 On ch=1 n=g4 v=65
330934 On ch=1 n=a5 v=0
330984 On ch=1 n=d#6 v=98
331024 On ch=1 n=c#6 v=0
331032 On ch=1 n=d#4 v=88
331048 On ch=1 n=g4 v=0
331058 On ch=1 n=a6 v=97
331078 On ch=1 n=d#6 v=0
331098 On ch=1 n=d#4 v=0
331114 On ch=1 n=a6 v=0
331168 On ch=1 n=c#4 v=85
331168 On ch=1 n=a6 v=94
331278 On ch=1 n=c#7 v=112
331286 On ch=1 n=c#4 v=0
331298 On ch=1 n=a6 v=0
331308 On ch=1 n=g3 v=61
331380 On ch=1 n=d#7 v=106
331420 On ch=1 n=c#7 v=0
331438 On ch=1 n=d#3 v=89
331444 On ch=1 n=g3 v=0
331464 On ch=1 n=a7 v=103
331484 On ch=1 n=d#7 v=0
331534 On ch=1 n=a7 v=0
331572 On ch=1 n=a7 v=99
331664 On ch=1 n=c#8 v=114
331676 On ch=1 n=a7 v=0
331744 On ch=1 n=d#8 v=112
331776 On ch=1 n=d#3 v=0
331780 On ch=1 n=c#8 v=0
331826 On ch=1 n=d#8 v=0
331866 On ch=1 n=a8 v=111
331934 On ch=1 n=a8 v=0
331956 On ch=1 n=a#2 v=120
331966 On ch=1 n=a8 v=107
332176 On ch=1 n=d#3 v=88
332178 On ch=1 n=d#8 v=96
332252 On ch=1 n=a#2 v=0
332262 On ch=1 n=a8 v=0
332294 On ch=1 n=c#8 v=94
332322 On ch=1 n=g3 v=85
332390 On ch=1 n=a7 v=96
332392 On ch=1 n=d#8 v=0
332454 On ch=1 n=d#3 v=0
332456 On ch=1 n=c#8 v=0
332482 On ch=1 n=c#4 v=112
332498 On ch=1 n=a7 v=0
332516 On ch=1 n=a8 v=117
332532 On ch=1 n=g3 v=0
332676 On ch=1 n=d#8 v=98
332686 On ch=1 n=g3 v=71
332712 On ch=1 n=a8 v=0
332726 On ch=1 n=c#4 v=0
332770 On ch=1 n=c#8 v=88
332806 On ch=1 n=d#3 v=84
332826 On ch=1 n=a7 v=94
332830 On ch=1 n=g3 v=0
332848 On ch=1 n=d#8 v=0
332888 On ch=1 n=c#8 v=0
332912 On ch=1 n=a7 v=0
332934 On ch=1 n=a8 v=118
332936 On ch=1 n=a#2 v=113
332980 On ch=1 n=d#3 v=0
333084 On ch=1 n=d#3 v=79
333088 On ch=1 n=d#8 v=96
333122 On ch=1 n=a#2 v=0
333138 On ch=1 n=a8 v=0
333176 On ch=1 n=c#8 v=88
333240 On ch=1 n=g3 v=82
333254 On ch=1 n=a7 v=90
333258 On ch=1 n=d#8 v=0
333312 On ch=1 n=c#8 v=0
333328 On ch=1 n=d#3 v=0
333334 On ch=1 n=a7 v=0
333340 On ch=1 n=c#4 v=113
333346 On ch=1 n=g8 v=114
333384 On ch=1 n=g3 v=0
333460 On ch=1 n=d#8 v=105
333480 On ch=1 n=g3 v=75
333496 On ch=1 n=c#4 v=0
333516 On ch=1 n=g8 v=0
333520 On ch=1 n=d#3 v=72
333548 On ch=1 n=c#8 v=103
333612 On ch=1 n=d#8 v=0
333622 On ch=1 n=g7 v=90
333666 On ch=1 n=c#8 v=0
333692 On ch=1 n=c#3 v=104
333706 On ch=1 n=g7 v=0
333716 On ch=1 n=f8 v=111
333726 On ch=1 n=d#3 v=0
333728 On ch=1 n=g3 v=0
333808 On ch=1 n=d#8 v=98
333854 On ch=1 n=f8 v=0
333874 On ch=1 n=g3 v=73
333898 On ch=1 n=c#3 v=0
333914 On ch=1 n=c#8 v=98
333950 On ch=1 n=d#8 v=0
334004 On ch=1 n=a#3 v=100
334006 On ch=1 n=f7 v=63
334020 On ch=1 n=c#8 v=0
334058 On ch=1 n=g3 v=0
334104 On ch=1 n=f7 v=0
334106 On ch=1 n=d#4 v=123
334122 On ch=1 n=d#8 v=98
334148 On ch=1 n=a#3 v=0
334186 On ch=1 n=c#8 v=93
334238 On ch=1 n=d#8 v=0
334262 On ch=1 n=a#3 v=94
334300 On ch=1 n=d#4 v=0
334300 On ch=1 n=g7 v=79
334336 On ch=1 n=c#8 v=0
334360 On ch=1 n=g3 v=84
334388 On ch=1 n=d#7 v=94
334408 On ch=1 n=g7 v=0
334430 On ch=1 n=a#3 v=0
334436 On ch=1 n=d#7 v=0
334486 On ch=1 n=d#3 v=110
334502 On ch=1 n=a7 v=101
334530 On ch=1 n=g3 v=0
334636 On ch=1 n=d#7 v=99
334676 On ch=1 n=a7 v=0
334680 On ch=1 n=a#3 v=93
334694 On ch=1 n=d#3 v=0
334732 On ch=1 n=c#7 v=92
334792 On ch=1 n=d#7 v=0
334796 On ch=1 n=c#4 v=99
334802 On ch=1 n=a6 v=85
334850 On ch=1 n=c#7 v=0
334850 On ch=1 n=a#3 v=0
334886 On ch=1 n=a6 v=0
334896 On ch=1 n=g4 v=92
334914 On ch=1 n=a7 v=117
334930 On ch=1 n=c#4 v=0
335038 On ch=1 n=d#7 v=100
335044 On ch=1 n=c#4 v=95
335070 On ch=1 n=g4 v=0
335086 On ch=1 n=a7 v=0
335116 On ch=1 n=c#7 v=93
335124 On ch=1 n=a#3 v=80
335180 On ch=1 n=d#7 v=0
335200 On ch=1 n=a6 v=85
335204 On ch=1 n=c#4 v=0
335242 On ch=1 n=g3 v=114
335246 On ch=1 n=c#7 v=0
335270 On ch=1 n=a#3 v=0
335272 On ch=1 n=a6 v=0
335286 On ch=1 n=a7 v=103
335382 On ch=1 n=g3 v=0
335398 On ch=1 n=c#4 v=98
335406 On ch=1 n=d#7 v=100
335454 On ch=1 n=a7 v=0
335470 On ch=1 n=c#7 v=89
335532 On ch=1 n=d#4 v=100
335548 On ch=1 n=c#4 v=0
335552 On ch=1 n=a6 v=89
335554 On ch=1 n=d#7 v=0
335602 On ch=1 n=c#7 v=0
335624 On ch=1 n=a6 v=0
335630 On ch=1 n=d#4 v=0
335642 On ch=1 n=g7 v=114
335642 On ch=1 n=a#4 v=108
335752 On ch=1 n=d#7 v=106
335782 On ch=1 n=d#4 v=92
335786 On ch=1 n=a#4 v=0
335804 On ch=1 n=g7 v=0
335856 On ch=1 n=c#7 v=105
335858 On ch=1 n=c#4 v=88
335910 On ch=1 n=d#7 v=0
335912 On ch=1 n=d#4 v=0
335922 On ch=1 n=g6 v=88
335962 On ch=1 n=c#7 v=0
335980 On ch=1 n=a#3 v=104
336002 On ch=1 n=g6 v=0
336010 On ch=1 n=c#4 v=0
336026 On ch=1 n=f7 v=103
336110 On ch=1 n=d#7 v=98
336136 On ch=1 n=d#4 v=91
336152 On ch=1 n=f7 v=0
336158 On ch=1 n=a#3 v=0
336210 On ch=1 n=c#7 v=98
336236 On ch=1 n=d#7 v=0
336256 On ch=1 n=g4 v=79
336288 On ch=1 n=f6 v=97
336302 On ch=1 n=c#7 v=0
336334 On ch=1 n=d#4 v=0
336366 On ch=1 n=f6 v=0
336368 On ch=1 n=c#5 v=116
336394 On ch=1 n=d#7 v=103
336410 On ch=1 n=g4 v=0
336446 On ch=1 n=c#7 v=97
336500 On ch=1 n=d#7 v=0
336518 On ch=1 n=g4 v=75
336534 On ch=1 n=c#5 v=0
336560 On ch=1 n=g6 v=78
336584 On ch=1 n=c#7 v=0
336614 On ch=1 n=d#4 v=80
336634 On ch=1 n=d#6 v=96
336664 On ch=1 n=g6 v=0
336696 On ch=1 n=d#6 v=0
336698 On ch=1 n=g4 v=0
336766 On ch=1 n=c#4 v=116
336766 On ch=1 n=a6 v=122
336780 On ch=1 n=d#4 v=0
336982 On ch=1 n=d#6 v=98
336982 On ch=1 n=g4 v=72
337032 On ch=1 n=c#4 v=0
337048 On ch=1 n=a6 v=0
337070 On ch=1 n=c#6 v=98
337126 On ch=1 n=a#4 v=97
337150 On ch=1 n=a5 v=94
337194 On ch=1 n=g4 v=0
337194 On ch=1 n=d#6 v=0
337224 On ch=1 n=c#6 v=0
337248 On ch=1 n=a5 v=0
337270 On ch=1 n=a6 v=117
337276 On ch=1 n=d#5 v=100
337290 On ch=1 n=a#4 v=0
337408 On ch=1 n=d#6 v=106
337424 On ch=1 n=a#4 v=79
337436 On ch=1 n=d#5 v=0
337458 On ch=1 n=a6 v=0
337480 On ch=1 n=c#6 v=93
337500 On ch=1 n=g4 v=65
337546 On ch=1 n=a5 v=90
337560 On ch=1 n=d#6 v=0
337600 On ch=1 n=c#6 v=0
337618 On ch=1 n=a5 v=0
337618 On ch=1 n=d#4 v=106
337636 On ch=1 n=a6 v=117
337640 On ch=1 n=g4 v=0
337656 On ch=1 n=a#4 v=0
337706 On ch=1 n=d#4 v=0
337744 On ch=1 n=d#6 v=106
337786 On ch=1 n=a6 v=0
337790 On ch=1 n=a#4 v=91
337812 On ch=1 n=c#6 v=96
337876 On ch=1 n=d#6 v=0
337892 On ch=1 n=a5 v=85
337898 On ch=1 n=c#5 v=90
337944 On ch=1 n=c#6 v=0
337956 On ch=1 n=a#4 v=0
337974 On ch=1 n=a5 v=0
337990 On ch=1 n=g6 v=114
338010 On ch=1 n=c#5 v=0
338016 On ch=1 n=g5 v=78
338098 On ch=1 n=d#6 v=107
338130 On ch=1 n=g5 v=0
338140 On ch=1 n=c#5 v=86
338148 On ch=1 n=g6 v=0
338190 On ch=1 n=c#6 v=107
338206 On ch=1 n=a#4 v=80
338242 On ch=1 n=d#6 v=0
338262 On ch=1 n=g5 v=76
338282 On ch=1 n=c#5 v=0
338302 On ch=1 n=c#6 v=0
338342 On ch=1 n=g4 v=90
338360 On ch=1 n=a#4 v=0
338362 On ch=1 n=f6 v=112
338374 On ch=1 n=g5 v=0
338428 On ch=1 n=g4 v=0
338458 On ch=1 n=d#6 v=99
338500 On ch=1 n=f6 v=0
338532 On ch=1 n=c#5 v=96
338566 On ch=1 n=c#6 v=104
338600 On ch=1 n=d#6 v=0
338642 On ch=1 n=f5 v=78
338650 On ch=1 n=c#5 v=0
338658 On ch=1 n=d#5 v=75
338662 On ch=1 n=c#6 v=0
338730 On ch=1 n=f5 v=0
338734 On ch=1 n=d#5 v=0
338772 On ch=1 n=d#6 v=98
338780 On ch=1 n=a#5 v=101
338842 On ch=1 n=c#6 v=92
338864 On ch=1 n=a#5 v=0
338906 On ch=1 n=d#6 v=0
338938 On ch=1 n=d#5 v=99
338968 On ch=1 n=g5 v=76
338984 On ch=1 n=c#6 v=0
339054 On ch=1 n=c#5 v=94
339070 On ch=1 n=g5 v=0
339128 On ch=1 n=d#5 v=0
339136 On ch=1 n=c#5 v=0
339208 On ch=1 n=a#4 v=116
339214 On ch=1 n=a5 v=101
339364 On ch=1 n=a#4 v=0
339382 On ch=1 n=d#5 v=92
339408 On ch=1 n=a5 v=0
339442 On ch=1 n=c#5 v=114
339544 On ch=1 n=d#5 v=0
339566 On ch=1 n=a4 v=74
339608 On ch=1 n=c#5 v=0
339632 On ch=1 n=a#5 v=120
339642 On ch=1 n=a4 v=0
339662 On ch=1 n=a5 v=103
339694 On ch=1 n=a#5 v=0
339786 On ch=1 n=d#5 v=105
339808 On ch=1 n=c#6 v=124
339834 On ch=1 n=a5 v=0
339860 On ch=1 n=c#5 v=94
339874 On ch=1 n=c#6 v=0
339924 On ch=1 n=a4 v=78
339962 On ch=1 n=d#5 v=0
340008 On ch=1 n=c#5 v=0
340032 On ch=1 n=a4 v=0
340044 On ch=1 n=g6 v=117
340048 On ch=1 n=a5 v=102
340120 On ch=1 n=g6 v=0
340246 On ch=1 n=d#5 v=104
340254 On ch=1 n=a#6 v=124
340294 On ch=1 n=a5 v=0
340326 On ch=1 n=a#6 v=0
340352 On ch=1 n=c#5 v=103
340430 On ch=1 n=a4 v=87
340462 On ch=1 n=d#5 v=0
340538 On ch=1 n=c#5 v=0
340552 On ch=1 n=g5 v=103
340562 On ch=1 n=d#7 v=124
340568 On ch=1 n=a4 v=0
340690 On ch=1 n=d#5 v=99
340748 On ch=1 n=g5 v=0
340776 On ch=1 n=c#5 v=101
340834 On ch=1 n=d#5 v=0
340848 On ch=1 n=g4 v=86
340880 On ch=1 n=d#7 v=0
340890 On ch=1 n=c#5 v=0
340928 On ch=1 n=g4 v=0
340940 On ch=1 n=f5 v=104
341026 On ch=1 n=d#5 v=103
341076 On ch=1 n=f5 v=0
341126 On ch=1 n=c#5 v=107
341164 On ch=1 n=d#5 v=0
341214 On ch=1 n=f4 v=68
341222 On ch=1 n=c#5 v=0
341306 On ch=1 n=f4 v=0
341326 On ch=1 n=d#5 v=96
341410 On ch=1 n=c#5 v=101
341462 On ch=1 n=d#5 v=0
341546 On ch=1 n=g4 v=79
341582 On ch=1 n=c#5 v=0
341636 On ch=1 n=d#4 v=107
341672 On ch=1 n=g4 v=0
341724 On ch=1 n=d#4 v=0
341860 On ch=1 n=a4 v=126
341868 On ch=1 n=a#2 v=118
342184 On ch=1 n=d#4 v=87
342236 On ch=1 n=a4 v=0
342246 On ch=1 n=d#3 v=80
342258 On ch=1 n=c#4 v=89
342336 On ch=1 n=d#4 v=0
342346 On ch=1 n=a3 v=83
342364 On ch=1 n=c#4 v=0
342432 On ch=1 n=c#4 v=90
342474 On ch=1 n=a3 v=0
342488 On ch=1 n=d#4 v=96
342534 On ch=1 n=c#4 v=0
342564 On ch=1 n=a#3 v=76
342572 On ch=1 n=a4 v=94
342598 On ch=1 n=d#3 v=0
342600 On ch=1 n=d#4 v=0
342676 On ch=1 n=d#4 v=90
342700 On ch=1 n=a4 v=0
342720 On ch=1 n=c#4 v=90
342764 On ch=1 n=a#2 v=0
342774 On ch=1 n=a#3 v=0
342778 On ch=1 n=d#4 v=0
342786 On ch=1 n=d#3 v=67
342796 On ch=1 n=a3 v=71
342802 On ch=1 n=c#4 v=0
342866 On ch=1 n=c#4 v=83
342892 On ch=1 n=a3 v=0
342910 On ch=1 n=d#4 v=95
342942 On ch=1 n=c#4 v=0
342970 On ch=1 n=a#2 v=90
342984 On ch=1 n=a4 v=85
342994 On ch=1 n=d#3 v=0
343004 On ch=1 n=d#4 v=0
343066 On ch=1 n=d#4 v=75
343086 On ch=1 n=a4 v=0
343112 On ch=1 n=c#4 v=88
343150 On ch=1 n=d#3 v=71
343168 On ch=1 n=d#4 v=0
343182 On ch=1 n=a3 v=72
343192 On ch=1 n=c#4 v=0
343246 On ch=1 n=c#4 v=67
343278 On ch=1 n=a3 v=0
343300 On ch=1 n=d#4 v=94
343336 On ch=1 n=c#4 v=0
343362 On ch=1 n=a#3 v=63
343364 On ch=1 n=d#3 v=0
343384 On ch=1 n=a4 v=75
343412 On ch=1 n=d#4 v=0
343460 On ch=1 n=a#2 v=0
343470 On ch=1 n=d#4 v=67
343494 On ch=1 n=a4 v=0
343530 On ch=1 n=c#4 v=85
343538 On ch=1 n=a#3 v=0
343574 On ch=1 n=d#3 v=73
343590 On ch=1 n=d#4 v=0
343610 On ch=1 n=d#3 v=0
343618 On ch=1 n=c#4 v=0
343624 On ch=1 n=a3 v=65
343684 On ch=1 n=c#4 v=62
343722 On ch=1 n=a3 v=0
343754 On ch=1 n=d#4 v=87
343808 On ch=1 n=c#4 v=0
343876 On ch=1 n=a#4 v=127
343904 On ch=1 n=a4 v=87
343934 On ch=1 n=a#4 v=0
343938 On ch=1 n=d#4 v=0
344022 On ch=1 n=d#4 v=61
344036 On ch=1 n=a4 v=0
344092 On ch=1 n=c#4 v=75
344140 On ch=1 n=d#4 v=0
344164 On ch=1 n=c#4 v=0
344174 On ch=1 n=a3 v=70
344256 On ch=1 n=c#4 v=78
344270 On ch=1 n=a3 v=0
344326 On ch=1 n=d#4 v=80
344362 On ch=1 n=c#4 v=0
344396 On ch=1 n=d#5 v=126
344430 On ch=1 n=a4 v=80
344466 On ch=1 n=d#5 v=0
344466 On ch=1 n=d#4 v=0
344528 On ch=1 n=d#4 v=68
344552 On ch=1 n=a4 v=0
344604 On ch=1 n=c#4 v=81
344646 On ch=1 n=d#4 v=0
344670 On ch=1 n=c#4 v=0
344686 On ch=1 n=a3 v=50
344738 On ch=1 n=c#4 v=51
344778 On ch=1 n=a3 v=0
344802 On ch=1 n=d#4 v=98
344836 On ch=1 n=c#4 v=0
344868 On ch=1 n=d#4 v=0
344902 On ch=1 n=g4 v=118
345040 On ch=1 n=d#4 v=90
345148 On ch=1 n=c#4 v=90
345190 On ch=1 n=d#3 v=90
345210 On ch=1 n=d#4 v=0
345256 On ch=1 n=g3 v=69
345258 On ch=1 n=c#4 v=0
345336 On ch=1 n=c#4 v=77
345348 On ch=1 n=g4 v=0
345360 Par ch=1 c=64 v=63
345362 On ch=1 n=g3 v=0
345376 Par ch=1 c=64 v=127
345404 On ch=1 n=d#4 v=89
345442 On ch=1 n=c#4 v=0
345444 On ch=1 n=a#3 v=78
345460 On ch=1 n=d#3 v=0
345484 On ch=1 n=g4 v=76
345500 On ch=1 n=d#4 v=0
345550 On ch=1 n=a#3 v=0
345568 On ch=1 n=d#4 v=70
345610 On ch=1 n=g4 v=0
345632 On ch=1 n=c#4 v=68
345680 On ch=1 n=d#4 v=0
345702 On ch=1 n=c#4 v=0
345710 On ch=1 n=g3 v=65
345720 On ch=1 n=d#3 v=73
345782 On ch=1 n=c#4 v=60
345802 On ch=1 n=g3 v=0
345850 On ch=1 n=d#3 v=0
345866 On ch=1 n=d#4 v=80
345930 On ch=1 n=c#4 v=0
346026 On ch=1 n=d#4 v=0
346030 On ch=1 n=a#2 v=83
346046 On ch=1 n=a4 v=107
346140 Par ch=1 c=64 v=63
346238 Par ch=1 c=64 v=127
346314 On ch=1 n=d#4 v=65
346376 On ch=1 n=d#3 v=68
346388 On ch=1 n=a4 v=0
346408 On ch=1 n=c#4 v=67
346450 On ch=1 n=a#2 v=0
346470 On ch=1 n=d#4 v=0
346486 On ch=1 n=a3 v=65
346490 On ch=1 n=c#4 v=0
346548 On ch=1 n=d#3 v=0
346564 On ch=1 n=c#4 v=52
346586 On ch=1 n=a3 v=0
346620 On ch=1 n=a#3 v=53
346630 On ch=1 n=d#4 v=82
346664 On ch=1 n=c#4 v=0
346706 On ch=1 n=a4 v=79
346726 On ch=1 n=d#4 v=0
346804 On ch=1 n=d#4 v=63
346820 On ch=1 n=a4 v=0
346822 On ch=1 n=a#3 v=0
346840 On ch=1 n=d#3 v=63
346852 On ch=1 n=c#4 v=74
346900 On ch=1 n=d#4 v=0
346920 On ch=1 n=c#4 v=0
346926 On ch=1 n=a3 v=48
346984 On ch=1 n=c#4 v=60
347010 On ch=1 n=a3 v=0
347040 On ch=1 n=d#4 v=81
347078 On ch=1 n=c#4 v=0
347082 On ch=1 n=d#3 v=0
347088 On ch=1 n=a#2 v=65
347112 On ch=1 n=a4 v=68
347128 On ch=1 n=d#4 v=0
347198 On ch=1 n=d#4 v=67
347210 On ch=1 n=a4 v=0
347242 On ch=1 n=c#4 v=77
347284 On ch=1 n=a#2 v=0
347290 On ch=1 n=d#3 v=58
347298 On ch=1 n=d#4 v=0
347310 On ch=1 n=a3 v=60
347312 On ch=1 n=c#4 v=0
347376 On ch=1 n=c#4 v=69
347402 On ch=1 n=a3 v=0
347440 On ch=1 n=d#4 v=86
347456 On ch=1 n=d#3 v=0
347468 On ch=1 n=c#4 v=0
347468 On ch=1 n=a#3 v=60
347518 On ch=1 n=a4 v=59
347530 On ch=1 n=d#4 v=0
347592 On ch=1 n=d#4 v=61
347602 On ch=1 n=a4 v=0
347608 On ch=1 n=a#3 v=0
347620 On ch=1 n=d#3 v=59
347636 On ch=1 n=c#4 v=74
347694 On ch=1 n=d#4 v=0
347706 On ch=1 n=c#4 v=0
347716 On ch=1 n=a3 v=59
347776 On ch=1 n=c#4 v=67
347802 On ch=1 n=a3 v=0
347846 On ch=1 n=d#4 v=84
347872 On ch=1 n=c#4 v=0
347896 On ch=1 n=a#2 v=71
347898 On ch=1 n=d#3 v=0
347952 On ch=1 n=d#4 v=0
347956 On ch=1 n=a4 v=63
347974 On ch=1 n=a#2 v=0
348040 On ch=1 n=d#4 v=63
348042 On ch=1 n=a4 v=0
348108 On ch=1 n=c#4 v=51
348140 On ch=1 n=d#4 v=0
348156 On ch=1 n=c#4 v=0
348166 On ch=1 n=a3 v=60
348242 On ch=1 n=c#4 v=61
348264 On ch=1 n=a3 v=0
348334 On ch=1 n=d#4 v=65
348370 On ch=1 n=c#4 v=0
348436 On ch=1 n=a#4 v=110
348470 On ch=1 n=a4 v=54
348474 On ch=1 n=d#4 v=0
348484 On ch=1 n=a#4 v=0
348556 On ch=1 n=a4 v=0
348568 On ch=1 n=d#4 v=65
348624 On ch=1 n=c#4 v=63
348676 On ch=1 n=d#4 v=0
348694 On ch=1 n=c#4 v=0
348710 On ch=1 n=a3 v=49
348776 On ch=1 n=c#4 v=41
348812 On ch=1 n=a3 v=0
348842 On ch=1 n=d#4 v=75
348910 On ch=1 n=c#4 v=0
348962 On ch=1 n=d#4 v=0
348966 On ch=1 n=g4 v=101
349086 On ch=1 n=d#4 v=83
349130 On ch=1 n=g4 v=0
349150 On ch=1 n=c#4 v=68
349198 On ch=1 n=d#4 v=0
349236 On ch=1 n=c#4 v=0
349238 On ch=1 n=g3 v=50
349310 On ch=1 n=c#4 v=55
349332 On ch=1 n=g3 v=0
349392 On ch=1 n=d#4 v=73
349420 On ch=1 n=c#4 v=0
349546 On ch=1 n=g4 v=68
349550 On ch=1 n=d#4 v=0
349564 On ch=1 n=d#5 v=93
349618 On ch=1 n=d#5 v=0
349674 On ch=1 n=g4 v=0
349674 On ch=1 n=d#4 v=55
349766 On ch=1 n=c#4 v=52
349792 On ch=1 n=d#4 v=0
349852 On ch=1 n=c#4 v=0
349950 On ch=1 n=c#4 v=54
350068 On ch=1 n=d#4 v=67
350098 On ch=1 n=c#4 v=0
350302 On ch=1 n=a4 v=83
350310 On ch=1 n=a3 v=72
350314 On ch=1 n=d#4 v=0
350388 Par ch=1 c=64 v=63
350402 Par ch=1 c=64 v=0
350492 Par ch=1 c=64 v=63
350512 Par ch=1 c=64 v=127
350604 On ch=1 n=c#4 v=60
350706 On ch=1 n=d#3 v=40
350712 On ch=1 n=a4 v=0
350750 On ch=1 n=c#4 v=0
350774 On ch=1 n=d#4 v=57
350882 On ch=1 n=c#4 v=68
350900 On ch=1 n=d#4 v=0
350922 On ch=1 n=d#3 v=0
350956 On ch=1 n=a3 v=0
350984 On ch=1 n=a#3 v=57
351004 On ch=1 n=c#4 v=0
351006 On ch=1 n=d#4 v=68
351112 On ch=1 n=c#4 v=67
351134 On ch=1 n=d#4 v=0
351214 On ch=1 n=a#3 v=0
351214 On ch=1 n=d#3 v=61
351222 On ch=1 n=c#4 v=0
351222 On ch=1 n=d#4 v=45
351320 On ch=1 n=c#4 v=55
351332 On ch=1 n=d#4 v=0
351406 On ch=1 n=a#2 v=60
351410 On ch=1 n=d#4 v=54
351412 On ch=1 n=c#4 v=0
351414 On ch=1 n=d#3 v=0
351524 On ch=1 n=c#4 v=57
351542 On ch=1 n=d#4 v=0
351618 On ch=1 n=c#4 v=0
351620 On ch=1 n=d#4 v=60
351656 On ch=1 n=d#3 v=60
351736 On ch=1 n=c#4 v=58
351758 On ch=1 n=d#4 v=0
351850 On ch=1 n=a#2 v=0
351852 On ch=1 n=c#4 v=0
351858 On ch=1 n=d#4 v=52
351864 On ch=1 n=a#3 v=60
351878 On ch=1 n=d#3 v=0
351964 On ch=1 n=c#4 v=55
351972 On ch=1 n=d#4 v=0
352066 On ch=1 n=a#3 v=0
352068 On ch=1 n=c#4 v=0
352068 On ch=1 n=d#3 v=51
352078 On ch=1 n=d#4 v=57
352176 On ch=1 n=d#4 v=0
352182 On ch=1 n=c#4 v=52
352238 On ch=1 n=d#3 v=0
352262 On ch=1 n=a#2 v=31
352292 On ch=1 n=c#4 v=0
352306 On ch=1 n=d#4 v=53
352418 On ch=1 n=d#4 v=0
352424 On ch=1 n=c#4 v=61
352514 On ch=1 n=c#4 v=0
352522 On ch=1 n=d#4 v=65
352526 On ch=1 n=d#3 v=55
352592 On ch=1 n=a#2 v=0
352616 On ch=1 n=d#4 v=0
352630 On ch=1 n=c#4 v=52
352718 On ch=1 n=c#4 v=0
352718 On ch=1 n=d#4 v=72
352762 On ch=1 n=d#3 v=0
352762 On ch=1 n=a#3 v=51
352838 On ch=1 n=d#4 v=0
352852 On ch=1 n=c#4 v=52
352924 On ch=1 n=a#3 v=0
352944 On ch=1 n=c#4 v=0
352966 On ch=1 n=d#4 v=43
352978 On ch=1 n=d#3 v=56
353058 On ch=1 n=c#4 v=48
353118 On ch=1 n=d#4 v=0
353164 On ch=1 n=d#3 v=0
353206 On ch=1 n=g4 v=89
353224 On ch=1 n=c#4 v=0
353232 On ch=1 n=g3 v=32
353366 On ch=1 n=g3 v=0
353376 On ch=1 n=c#4 v=76
353406 On ch=1 n=g4 v=0
353446 On ch=1 n=d#3 v=63
353502 On ch=1 n=c#4 v=0
353514 On ch=1 n=d#4 v=74
353522 On ch=1 n=d#3 v=0
353614 On ch=1 n=c#4 v=56
353618 On ch=1 n=d#4 v=0
353708 On ch=1 n=c#4 v=0
353716 On ch=1 n=d#4 v=50
353718 On ch=1 n=a#3 v=47
353818 On ch=1 n=d#4 v=0
353834 On ch=1 n=c#4 v=45
353920 On ch=1 n=c#4 v=0
353928 On ch=1 n=d#4 v=57
353974 On ch=1 n=a#3 v=0
353978 On ch=1 n=d#3 v=54
354040 On ch=1 n=d#4 v=0
354050 On ch=1 n=c#4 v=52
354136 On ch=1 n=c#4 v=0
354146 On ch=1 n=d#4 v=54
354224 On ch=1 n=d#3 v=0
354232 On ch=1 n=a#2 v=58
354250 On ch=1 n=d#4 v=0
354272 On ch=1 n=c#4 v=32
354354 On ch=1 n=c#4 v=0
354358 On ch=1 n=d#4 v=43
354474 On ch=1 n=d#4 v=0
354484 On ch=1 n=d#3 v=58
354498 On ch=1 n=c#4 v=24
354534 On ch=1 n=a#2 v=0
354574 On ch=1 n=d#4 v=42
354576 On ch=1 n=c#4 v=0
354680 On ch=1 n=d#4 v=0
354710 On ch=1 n=a#3 v=50
354716 On ch=1 n=d#3 v=0
354718 On ch=1 n=c#4 v=16
354788 On ch=1 n=c#4 v=0
354790 On ch=1 n=d#4 v=36
354892 On ch=1 n=d#4 v=0
354918 On ch=1 n=a#3 v=0
354920 On ch=1 n=c#4 v=15
354928 On ch=1 n=d#3 v=52
355008 On ch=1 n=c#4 v=0
355008 On ch=1 n=d#4 v=47
355126 On ch=1 n=d#3 v=0
355138 On ch=1 n=d#4 v=0
355140 On ch=1 n=a#2 v=57
355164 On ch=1 n=c#4 v=28
355340 On ch=1 n=d#3 v=54
355344 On ch=1 n=a#2 v=0
355368 On ch=1 n=c#4 v=0
355368 On ch=1 n=d#4 v=5
355494 On ch=1 n=d#4 v=0
355592 On ch=1 n=d#4 v=36
355606 On ch=1 n=d#3 v=0
355608 On ch=1 n=a#3 v=51
355700 On ch=1 n=d#4 v=0
355718 On ch=1 n=c#4 v=19
355804 On ch=1 n=c#4 v=0
355808 On ch=1 n=d#4 v=42
355828 On ch=1 n=a#3 v=0
355866 On ch=1 n=d#3 v=61
355930 On ch=1 n=c#4 v=55
355962 On ch=1 n=d#4 v=0
356102 On ch=1 n=d#3 v=0
356114 On ch=1 n=a#2 v=54
356118 On ch=1 n=c#4 v=0
356134 On ch=1 n=d#4 v=50
356242 On ch=1 n=d#4 v=0
356274 On ch=1 n=c#4 v=24
356348 On ch=1 n=a#2 v=0
356378 On ch=1 n=d#3 v=40
356392 On ch=1 n=c#4 v=0
356412 On ch=1 n=d#4 v=35
356516 On ch=1 n=d#4 v=0
356526 On ch=1 n=c#4 v=19
356662 On ch=1 n=c#4 v=0
356670 On ch=1 n=d#3 v=0
356678 On ch=1 n=f4 v=83
356700 On ch=1 n=a#3 v=26
356834 On ch=1 n=f4 v=0
356914 On ch=1 n=c#4 v=16
356916 On ch=1 n=a#3 v=0
356932 On ch=1 n=d#3 v=45
356988 On ch=1 n=c#4 v=0
357030 On ch=1 n=d#4 v=45
357118 On ch=1 n=d#4 v=0
357166 On ch=1 n=c#4 v=22
357222 On ch=1 n=d#3 v=0
357240 On ch=1 n=c#4 v=0
357258 On ch=1 n=a#2 v=32
357292 On ch=1 n=d#4 v=26
357412 On ch=1 n=d#4 v=0
357462 On ch=1 n=c#4 v=24
357574 On ch=1 n=c#4 v=0
357608 On ch=1 n=d#3 v=43
357616 On ch=1 n=d#4 v=24
357718 On ch=1 n=d#4 v=0
357738 On ch=1 n=c#4 v=23
357824 On ch=1 n=a#2 v=0
357910 On ch=1 n=c#4 v=0
357938 On ch=1 n=a#3 v=39
357942 On ch=1 n=d#4 v=12
357956 On ch=1 n=d#3 v=0
358084 On ch=1 n=d#4 v=0
358134 On ch=1 n=c#4 v=19
358246 On ch=1 n=a#3 v=0
358338 On ch=1 n=c#4 v=0
358364 On ch=1 n=d#3 v=48
358520 On ch=1 n=d#4 v=5
358576 On ch=1 n=d#3 v=0
358598 On ch=1 n=d#4 v=0
358638 On ch=1 n=c#4 v=35
358744 On ch=1 n=c#4 v=0
359246 On ch=1 n=a2 v=38
359288 Par ch=1 c=64 v=63
359298 Par ch=1 c=64 v=0
359308 On ch=1 n=e7 v=48
359322 On ch=1 n=c7 v=18
359406 Par ch=1 c=64 v=63
359414 Par ch=1 c=64 v=127
359598 On ch=1 n=e7 v=0
359620 On ch=1 n=c7 v=0
359628 On ch=1 n=f#7 v=47
359652 On ch=1 n=e3 v=50
359682 On ch=1 n=a2 v=0
359806 On ch=1 n=e3 v=0
359824 On ch=1 n=f#7 v=0
359828 On ch=1 n=g3 v=49
359834 On ch=1 n=e7 v=55
359850 On ch=1 n=c7 v=23
359952 On ch=1 n=c7 v=0
359958 On ch=1 n=g3 v=0
359970 On ch=1 n=e7 v=0
359970 On ch=1 n=f#7 v=72
359998 On ch=1 n=c4 v=73
360104 On ch=1 n=f#7 v=0
360128 On ch=1 n=e7 v=50
360146 On ch=1 n=e4 v=61
360146 On ch=1 n=c7 v=16
360162 On ch=1 n=c4 v=0
360188 On ch=1 n=c7 v=0
360202 On ch=1 n=f#7 v=74
360216 On ch=1 n=e7 v=0
360274 On ch=1 n=e4 v=0
360294 On ch=1 n=f#7 v=0
360302 On ch=1 n=g4 v=55
360320 On ch=1 n=e7 v=39
360388 On ch=1 n=f#7 v=86
360394 On ch=1 n=g4 v=0
360396 On ch=1 n=e7 v=0
360400 On ch=1 n=e4 v=58
360484 On ch=1 n=f#7 v=0
360486 On ch=1 n=e7 v=63
360508 On ch=1 n=e4 v=0
360508 On ch=1 n=c4 v=55
360552 On ch=1 n=f#7 v=69
360578 On ch=1 n=e7 v=0
360638 On ch=1 n=a3 v=76
360648 On ch=1 n=c4 v=0
360658 On ch=1 n=c7 v=38
360662 On ch=1 n=e7 v=63
360666 On ch=1 n=f#7 v=0
360726 On ch=1 n=c7 v=0
360746 On ch=1 n=f#7 v=71
360776 On ch=1 n=e7 v=0
360870 On ch=1 n=a3 v=0
360886 On ch=1 n=e4 v=86
360904 On ch=1 n=f#7 v=0
360912 On ch=1 n=e7 v=59
360994 On ch=1 n=e4 v=0
361000 On ch=1 n=f#7 v=82
361008 On ch=1 n=e7 v=0
361010 On ch=1 n=g4 v=82
361088 On ch=1 n=g4 v=0
361098 On ch=1 n=f#7 v=0
361114 On ch=1 n=e7 v=60
361158 On ch=1 n=c5 v=88
361162 On ch=1 n=f#7 v=55
361216 On ch=1 n=e7 v=0
361260 On ch=1 n=c5 v=0
361280 On ch=1 n=e5 v=82
361284 On ch=1 n=c7 v=40
361286 On ch=1 n=f#7 v=0
361324 On ch=1 n=e7 v=51
361334 On ch=1 n=c7 v=0
361356 On ch=1 n=e5 v=0
361372 On ch=1 n=f#7 v=76
361378 On ch=1 n=g5 v=75
361404 On ch=1 n=e7 v=0
361440 On ch=1 n=c7 v=53
361462 On ch=1 n=f#7 v=0
361464 On ch=1 n=g5 v=0
361482 On ch=1 n=e7 v=47
361484 On ch=1 n=e5 v=60
361500 On ch=1 n=c7 v=0
361522 On ch=1 n=f#7 v=70
361552 On ch=1 n=c5 v=77
361560 On ch=1 n=e7 v=0
361566 On ch=1 n=e5 v=0
361608 On ch=1 n=c7 v=40
361622 On ch=1 n=f#7 v=0
361622 On ch=1 n=e7 v=63
361640 On ch=1 n=c5 v=0
361658 On ch=1 n=a4 v=101
361666 On ch=1 n=c7 v=0
361688 On ch=1 n=f#7 v=81
361728 On ch=1 n=e7 v=0
361780 On ch=1 n=e5 v=94
361798 On ch=1 n=a4 v=0
361820 On ch=1 n=f#7 v=0
361820 On ch=1 n=e7 v=67
361828 On ch=1 n=c7 v=17
361858 On ch=1 n=e5 v=0
361872 On ch=1 n=c7 v=0
361876 On ch=1 n=g5 v=76
361892 On ch=1 n=f#7 v=75
361930 On ch=1 n=g5 v=0
361930 On ch=1 n=e7 v=0
361980 On ch=1 n=c6 v=94
361982 On ch=1 n=c7 v=59
361996 On ch=1 n=f#7 v=0
361998 On ch=1 n=e7 v=63
362046 On ch=1 n=c7 v=0
362060 On ch=1 n=f#7 v=80
362068 On ch=1 n=e6 v=98
362082 On ch=1 n=c6 v=0
362096 On ch=1 n=e7 v=0
362144 On ch=1 n=e6 v=0
362144 On ch=1 n=g6 v=104
362150 On ch=1 n=c7 v=73
362162 On ch=1 n=f#7 v=0
362170 On ch=1 n=e7 v=71
362210 On ch=1 n=c7 v=0
362224 On ch=1 n=f#7 v=77
362232 On ch=1 n=g6 v=0
362250 On ch=1 n=e6 v=94
362262 On ch=1 n=e7 v=0
362306 On ch=1 n=c7 v=62
362318 On ch=1 n=e7 v=73
362320 On ch=1 n=f#7 v=0
362322 On ch=1 n=c6 v=84
362352 On ch=1 n=e6 v=0
362366 On ch=1 n=c7 v=0
362380 On ch=1 n=f#7 v=86
362412 On ch=1 n=e7 v=0
362420 On ch=1 n=a5 v=107
362446 On ch=1 n=c6 v=0
362458 On ch=1 n=c7 v=80
362484 On ch=1 n=e7 v=65
362494 On ch=1 n=f#7 v=0
362518 On ch=1 n=c6 v=96
362540 On ch=1 n=f#7 v=89
362548 On ch=1 n=c7 v=0
362568 On ch=1 n=e7 v=0
362600 On ch=1 n=e6 v=109
362634 On ch=1 n=e7 v=71
362656 On ch=1 n=c7 v=71
362660 On ch=1 n=c6 v=0
362660 On ch=1 n=a5 v=0
362688 On ch=1 n=f#7 v=0
362698 On ch=1 n=g6 v=111
362712 On ch=1 n=c7 v=0
362744 On ch=1 n=e6 v=0
362748 On ch=1 n=e7 v=0
362814 On ch=1 n=g6 v=0
362836 On ch=1 n=c7 v=121
362838 On ch=1 n=g7 v=122
362904 Par ch=1 c=64 v=63
362908 Par ch=1 c=64 v=127
363056 On ch=1 n=c7 v=0
363094 On ch=1 n=d#7 v=99
363184 On ch=1 n=c7 v=100
363238 On ch=1 n=g7 v=0
363286 On ch=1 n=d#7 v=0
363286 On ch=1 n=a6 v=90
363330 On ch=1 n=c7 v=0
363354 On ch=1 n=a6 v=0
363354 On ch=1 n=g6 v=85
363432 On ch=1 n=d#6 v=80
363466 On ch=1 n=g6 v=0
363512 On ch=1 n=c6 v=91
363524 On ch=1 n=d#6 v=0
363578 On ch=1 n=f#6 v=27
363594 On ch=1 n=a5 v=87
363632 On ch=1 n=f#6 v=0
363656 On ch=1 n=c6 v=0
363666 On ch=1 n=a5 v=0
363670 On ch=1 n=g5 v=80
363770 On ch=1 n=c6 v=81
363774 On ch=1 n=g5 v=0
363824 On ch=1 n=d#6 v=88
363868 On ch=1 n=c6 v=0
363884 On ch=1 n=g6 v=88
363902 On ch=1 n=d#6 v=0
363966 On ch=1 n=d#6 v=58
364006 On ch=1 n=c6 v=83
364014 On ch=1 n=g6 v=0
364088 On ch=1 n=d#6 v=0
364094 On ch=1 n=a5 v=72
364136 On ch=1 n=c6 v=0
364174 On ch=1 n=a5 v=0
364180 On ch=1 n=g5 v=63
364238 On ch=1 n=d#5 v=77
364312 On ch=1 n=g5 v=0
364318 On ch=1 n=c5 v=75
364350 On ch=1 n=d#5 v=0
364396 On ch=1 n=a4 v=71
364470 On ch=1 n=c5 v=0
364490 On ch=1 n=a4 v=0
364502 On ch=1 n=g4 v=68
364614 On ch=1 n=c5 v=68
364618 On ch=1 n=g4 v=0
364680 On ch=1 n=d#5 v=79
364712 On ch=1 n=c5 v=0
364764 On ch=1 n=g5 v=65
364770 On ch=1 n=d#5 v=0
364840 On ch=1 n=d#5 v=56
364918 On ch=1 n=g5 v=0
364926 On ch=1 n=c5 v=57
365014 On ch=1 n=d#5 v=0
365020 On ch=1 n=a4 v=52
365060 On ch=1 n=c5 v=0
365100 On ch=1 n=a4 v=0
365116 On ch=1 n=g4 v=67
365184 On ch=1 n=d#4 v=79
365236 On ch=1 n=g4 v=0
365278 On ch=1 n=c4 v=62
365288 On ch=1 n=d#4 v=0
365382 On ch=1 n=a3 v=62
365452 On ch=1 n=c4 v=0
365472 On ch=1 n=a3 v=0
365472 On ch=1 n=g3 v=68
365586 On ch=1 n=g3 v=0
365594 On ch=1 n=c4 v=55
365674 On ch=1 n=d#4 v=80
365732 On ch=1 n=c4 v=0
365796 On ch=1 n=g4 v=63
365808 On ch=1 n=d#4 v=0
365918 On ch=1 n=d#4 v=60
366064 On ch=1 n=c4 v=41
366186 On ch=1 n=a3 v=55
366194 On ch=1 n=g4 v=0
366338 On ch=1 n=a3 v=0
366372 On ch=1 n=g4 v=5
366374 On ch=1 n=c4 v=0
366386 On ch=1 n=d#4 v=0
366404 On ch=1 n=a2 v=68
366426 On ch=1 n=g4 v=0
366572 Par ch=1 c=64 v=63
366598 Par ch=1 c=64 v=0
366738 On ch=1 n=c6 v=67
366744 On ch=1 n=e6 v=71
366752 Par ch=1 c=64 v=63
366762 Par ch=1 c=64 v=127
366966 On ch=1 n=f#6 v=70
366990 On ch=1 n=c6 v=0
366992 On ch=1 n=e6 v=0
367020 On ch=1 n=e3 v=42
367084 On ch=1 n=a2 v=0
367134 On ch=1 n=e3 v=0
367134 On ch=1 n=g3 v=76
367166 On ch=1 n=c6 v=65
367170 On ch=1 n=e6 v=71
367172 On ch=1 n=f#6 v=0
367208 On ch=1 n=g3 v=0
367282 On ch=1 n=c4 v=79
367302 On ch=1 n=f#6 v=81
367336 On ch=1 n=e6 v=0
367360 On ch=1 n=c6 v=0
367450 On ch=1 n=e4 v=76
367454 On ch=1 n=c6 v=48
367462 On ch=1 n=e6 v=76
367466 On ch=1 n=c4 v=0
367476 On ch=1 n=f#6 v=0
367558 On ch=1 n=c6 v=0
367570 On ch=1 n=f#6 v=79
367582 On ch=1 n=e6 v=0
367584 On ch=1 n=e4 v=0
367588 On ch=1 n=c4 v=69
367632 On ch=1 n=c4 v=0
367702 On ch=1 n=f#6 v=0
367708 On ch=1 n=e6 v=55
367710 On ch=1 n=c6 v=40
367778 On ch=1 n=c6 v=0
367788 On ch=1 n=f#6 v=71
367818 On ch=1 n=e6 v=0
367820 On ch=1 n=e3 v=75
367906 On ch=1 n=f#6 v=0
367906 On ch=1 n=c6 v=40
367910 On ch=1 n=e6 v=65
367940 On ch=1 n=e3 v=0
367944 On ch=1 n=a2 v=42
367956 On ch=1 n=g2 v=59
367978 On ch=1 n=c6 v=0
367992 On ch=1 n=g2 v=0
367994 On ch=1 n=f#6 v=79
368020 On ch=1 n=e6 v=0
368052 On ch=1 n=a2 v=0
368066 On ch=1 n=e3 v=80
368144 On ch=1 n=e6 v=71
368150 On ch=1 n=f#6 v=0
368162 On ch=1 n=c6 v=9
368182 On ch=1 n=g3 v=82
368204 On ch=1 n=c6 v=0
368206 On ch=1 n=e3 v=0
368224 On ch=1 n=f#6 v=71
368258 On ch=1 n=e6 v=0
368262 On ch=1 n=g3 v=0
368264 On ch=1 n=c4 v=85
368320 On ch=1 n=c6 v=42
368328 On ch=1 n=c4 v=0
368328 On ch=1 n=e6 v=69
368336 On ch=1 n=f#6 v=0
368366 On ch=1 n=e4 v=84
368394 On ch=1 n=c6 v=0
368398 On ch=1 n=f#6 v=74
368434 On ch=1 n=e4 v=0
368444 On ch=1 n=g4 v=101
368448 On ch=1 n=e6 v=0
368488 On ch=1 n=c6 v=42
368516 On ch=1 n=e6 v=62
368518 On ch=1 n=f#6 v=0
368542 On ch=1 n=e4 v=92
368558 On ch=1 n=g4 v=0
368564 On ch=1 n=c6 v=0
368606 On ch=1 n=f#6 v=67
368628 On ch=1 n=e6 v=0
368634 On ch=1 n=c4 v=88
368646 On ch=1 n=e4 v=0
368704 On ch=1 n=f#6 v=0
368724 On ch=1 n=e6 v=52
368752 On ch=1 n=a3 v=108
368764 On ch=1 n=c4 v=0
368782 On ch=1 n=f#6 v=67
368816 On ch=1 n=e6 v=0
368872 On ch=1 n=c4 v=99
368900 On ch=1 n=c6 v=46
368908 On ch=1 n=f#6 v=0
368908 On ch=1 n=e6 v=79
368938 On ch=1 n=a3 v=0
368972 On ch=1 n=e4 v=97
368982 On ch=1 n=c6 v=0
368984 On ch=1 n=f#6 v=85
369016 On ch=1 n=c4 v=0
369030 On ch=1 n=e6 v=0
369064 On ch=1 n=e4 v=0
369064 On ch=1 n=g4 v=98
369084 On ch=1 n=e6 v=88
369084 On ch=1 n=c6 v=82
369108 On ch=1 n=f#6 v=0
369124 On ch=1 n=g4 v=0
369152 On ch=1 n=f#6 v=92
369158 On ch=1 n=c6 v=0
369182 On ch=1 n=c5 v=101
369202 On ch=1 n=e6 v=0
369244 On ch=1 n=e6 v=99
369246 On ch=1 n=c6 v=84
369278 On ch=1 n=f#6 v=0
369300 On ch=1 n=e5 v=98
369322 On ch=1 n=c5 v=0
369322 On ch=1 n=f#6 v=95
369332 On ch=1 n=c6 v=0
369372 On ch=1 n=e6 v=0
369406 On ch=1 n=e5 v=0
369406 On ch=1 n=g5 v=101
369424 On ch=1 n=e6 v=100
369428 On ch=1 n=c6 v=96
369452 On ch=1 n=f#6 v=0
369496 On ch=1 n=c6 v=0
369498 On ch=1 n=g5 v=0
369502 On ch=1 n=f#6 v=94
369546 On ch=1 n=e6 v=0
369556 On ch=1 n=c6 v=118
369580 On ch=1 n=f#6 v=0
369636 On ch=1 n=c6 v=0
369686 On ch=1 n=d#6 v=109
369690 On ch=1 n=g6 v=113
369810 Par ch=1 c=64 v=63
369810 Par ch=1 c=64 v=127
369900 On ch=1 n=d#6 v=0
369964 On ch=1 n=d#6 v=90
370048 On ch=1 n=c6 v=93
370126 On ch=1 n=g6 v=0
370134 On ch=1 n=a5 v=84
370158 On ch=1 n=d#6 v=0
370196 On ch=1 n=c6 v=0
370210 On ch=1 n=g5 v=89
370212 On ch=1 n=a5 v=0
370288 On ch=1 n=d#5 v=75
370334 On ch=1 n=g5 v=0
370364 On ch=1 n=d#5 v=0
370368 On ch=1 n=c5 v=89
370434 On ch=1 n=a4 v=74
370464 On ch=1 n=a4 v=0
370466 On ch=1 n=c5 v=0
370502 On ch=1 n=g4 v=72
370610 On ch=1 n=g4 v=0
370610 On ch=1 n=c5 v=82
370680 On ch=1 n=d#5 v=94
370728 On ch=1 n=c5 v=0
370760 On ch=1 n=g5 v=85
370782 On ch=1 n=d#5 v=0
370848 On ch=1 n=d#5 v=62
370894 On ch=1 n=c5 v=75
370908 On ch=1 n=g5 v=0
370986 On ch=1 n=a4 v=68
370988 On ch=1 n=d#5 v=0
371006 On ch=1 n=c5 v=0
371056 On ch=1 n=a4 v=0
371080 On ch=1 n=g4 v=57
371132 On ch=1 n=d#4 v=78
371212 On ch=1 n=c4 v=66
371220 On ch=1 n=g4 v=0
371254 On ch=1 n=d#4 v=0
371292 On ch=1 n=a3 v=73
371362 On ch=1 n=c4 v=0
371390 On ch=1 n=a3 v=0
371398 On ch=1 n=g3 v=63
371500 On ch=1 n=c4 v=71
371514 On ch=1 n=g3 v=0
371576 On ch=1 n=d#4 v=86
371636 On ch=1 n=c4 v=0
371670 On ch=1 n=g4 v=65
371688 On ch=1 n=d#4 v=0
371748 On ch=1 n=d#4 v=68
371828 On ch=1 n=c4 v=54
371842 On ch=1 n=g4 v=0
371928 On ch=1 n=d#4 v=0
371936 On ch=1 n=a3 v=52
372010 On ch=1 n=c4 v=0
372040 On ch=1 n=g3 v=52
372044 On ch=1 n=a3 v=0
372106 On ch=1 n=d#3 v=76
372118 On ch=1 n=g3 v=0
372234 On ch=1 n=d#3 v=0
372242 On ch=1 n=c3 v=53
372310 On ch=1 n=g3 v=65
372338 On ch=1 n=c3 v=0
372392 On ch=1 n=a3 v=54
372432 On ch=1 n=g3 v=0
372462 On ch=1 n=c4 v=77
372502 On ch=1 n=a3 v=0
372544 On ch=1 n=d#4 v=84
372568 On ch=1 n=c4 v=0
372656 On ch=1 n=c4 v=38
372732 On ch=1 n=a3 v=32
372836 On ch=1 n=g3 v=41
372994 On ch=1 n=d#3 v=49
373028 On ch=1 n=g3 v=0
373040 On ch=1 n=a3 v=0
373062 On ch=1 n=d#4 v=0
373068 On ch=1 n=c4 v=0
373134 On ch=1 n=d#3 v=0
373160 On ch=1 n=c3 v=30
373394 On ch=1 n=a2 v=75
373406 On ch=1 n=c3 v=0
373470 Par ch=1 c=64 v=63
373484 Par ch=1 c=64 v=0
373636 Par ch=1 c=64 v=63
373646 Par ch=1 c=64 v=127
373670 On ch=1 n=c5 v=49
373678 On ch=1 n=e5 v=55
373860 Par ch=1 c=67 v=127
373894 On ch=1 n=c5 v=0
373910 On ch=1 n=a2 v=0
373930 On ch=1 n=f#5 v=71
373932 On ch=1 n=e3 v=57
373934 On ch=1 n=e5 v=0
374024 Par ch=1 c=67 v=0
374100 On ch=1 n=g3 v=69
374112 On ch=1 n=f#5 v=0
374128 On ch=1 n=e5 v=52
374128 On ch=1 n=c5 v=45
374152 On ch=1 n=e3 v=0
374246 On ch=1 n=c5 v=0
374250 On ch=1 n=f#5 v=76
374254 On ch=1 n=g3 v=0
374262 On ch=1 n=e5 v=0
374264 On ch=1 n=c4 v=67
374360 On ch=1 n=g3 v=65
374378 On ch=1 n=c4 v=0
374388 On ch=1 n=f#5 v=0
374400 On ch=1 n=c5 v=49
374408 On ch=1 n=e5 v=56
374472 On ch=1 n=e3 v=73
374474 On ch=1 n=c5 v=0
374482 On ch=1 n=g3 v=0
374488 On ch=1 n=f#5 v=76
374520 On ch=1 n=e5 v=0
374592 On ch=1 n=e3 v=0
374596 On ch=1 n=c5 v=58
374598 On ch=1 n=e5 v=66
374606 On ch=1 n=f#5 v=0
374612 On ch=1 n=a2 v=31
374668 On ch=1 n=c5 v=0
374686 On ch=1 n=f#5 v=88
374718 On ch=1 n=e5 v=0
374724 On ch=1 n=a2 v=0
374746 On ch=1 n=e3 v=41
374798 On ch=1 n=e5 v=69
374800 On ch=1 n=c5 v=57
374818 On ch=1 n=f#5 v=0
374834 On ch=1 n=g3 v=82
374866 On ch=1 n=e3 v=0
374872 On ch=1 n=c5 v=0
374878 On ch=1 n=f#5 v=80
374924 On ch=1 n=e5 v=0
374932 On ch=1 n=g3 v=0
374938 On ch=1 n=c4 v=88
374980 On ch=1 n=c5 v=61
374992 On ch=1 n=e5 v=64
374998 On ch=1 n=f#5 v=0
375030 On ch=1 n=e4 v=99
375050 On ch=1 n=c4 v=0
375056 On ch=1 n=c5 v=0
375064 On ch=1 n=f#5 v=83
375100 On ch=1 n=e4 v=0
375106 On ch=1 n=e5 v=0
375152 On ch=1 n=c4 v=77
375168 On ch=1 n=c5 v=52
375184 On ch=1 n=e5 v=61
375188 On ch=1 n=f#5 v=0
375236 On ch=1 n=c5 v=0
375240 On ch=1 n=g3 v=89
375244 On ch=1 n=c4 v=0
375256 On ch=1 n=f#5 v=79
375294 On ch=1 n=e5 v=0
375320 On ch=1 n=e3 v=89
375328 On ch=1 n=g3 v=0
375376 On ch=1 n=f#5 v=0
375386 On ch=1 n=e5 v=54
375390 On ch=1 n=c5 v=27
375400 On ch=1 n=e3 v=0
375420 On ch=1 n=a2 v=100
375440 On ch=1 n=c5 v=0
375450 On ch=1 n=f#5 v=78
375492 On ch=1 n=e5 v=0
375524 On ch=1 n=e3 v=85
375536 On ch=1 n=a2 v=0
375596 On ch=1 n=f#5 v=0
375598 On ch=1 n=e5 v=56
375628 On ch=1 n=g3 v=83
375632 On ch=1 n=e3 v=0
375670 On ch=1 n=f#5 v=76
375700 On ch=1 n=g3 v=0
375704 On ch=1 n=c4 v=91
375714 On ch=1 n=e5 v=0
375766 On ch=1 n=c4 v=0
375796 On ch=1 n=f#5 v=0
375800 On ch=1 n=c5 v=31
375810 On ch=1 n=e5 v=63
375812 On ch=1 n=e4 v=85
375858 On ch=1 n=c5 v=0
375876 On ch=1 n=f#5 v=77
375900 On ch=1 n=e4 v=0
375904 On ch=1 n=g4 v=71
375918 On ch=1 n=e5 v=0
375974 On ch=1 n=c5 v=41
375990 On ch=1 n=g4 v=0
375998 On ch=1 n=f#5 v=0
376010 On ch=1 n=e5 v=51
376062 On ch=1 n=c5 v=0
376080 On ch=1 n=f#5 v=70
376116 On ch=1 n=c4 v=65
376132 On ch=1 n=e5 v=0
376184 On ch=1 n=c5 v=18
376188 On ch=1 n=c4 v=0
376190 On ch=1 n=g3 v=85
376210 On ch=1 n=f#5 v=0
376222 On ch=1 n=e5 v=42
376254 On ch=1 n=c5 v=0
376272 On ch=1 n=g3 v=0
376274 On ch=1 n=e3 v=82
376296 On ch=1 n=f#5 v=68
376344 On ch=1 n=e5 v=0
376362 On ch=1 n=e3 v=0
376374 On ch=1 n=a2 v=89
376404 On ch=1 n=c5 v=28
376422 On ch=1 n=f#5 v=0
376430 On ch=1 n=e5 v=47
376474 On ch=1 n=e3 v=45
376478 On ch=1 n=a2 v=0
376488 On ch=1 n=c5 v=0
376516 On ch=1 n=f#5 v=61
376554 On ch=1 n=g3 v=89
376566 On ch=1 n=e3 v=0
376580 On ch=1 n=e5 v=0
376618 On ch=1 n=g3 v=0
376636 On ch=1 n=c4 v=90
376644 On ch=1 n=c5 v=15
376650 On ch=1 n=f#5 v=0
376674 On ch=1 n=e5 v=46
376696 On ch=1 n=c4 v=0
376702 On ch=1 n=c5 v=0
376730 On ch=1 n=e4 v=62
376734 On ch=1 n=f#5 v=74
376792 On ch=1 n=e5 v=0
376798 On ch=1 n=c5 v=78
376818 On ch=1 n=g4 v=89
376820 On ch=1 n=e4 v=0
376830 On ch=1 n=f#5 v=0
376878 On ch=1 n=e5 v=49
376880 On ch=1 n=c5 v=0
376902 On ch=1 n=f#5 v=85
376918 On ch=1 n=e4 v=86
376928 On ch=1 n=g4 v=0
376988 On ch=1 n=c5 v=81
376988 On ch=1 n=c4 v=96
376992 On ch=1 n=e5 v=0
377022 On ch=1 n=e4 v=0
377034 On ch=1 n=f#5 v=0
377076 On ch=1 n=e5 v=44
377090 On ch=1 n=c5 v=0
377092 On ch=1 n=a3 v=97
377098 On ch=1 n=f#5 v=90
377106 On ch=1 n=c4 v=0
377178 On ch=1 n=c4 v=86
377188 On ch=1 n=c5 v=80
377218 On ch=1 n=e5 v=0
377230 On ch=1 n=f#5 v=0
377272 On ch=1 n=a3 v=0
377284 On ch=1 n=e4 v=102
377294 On ch=1 n=f#5 v=76
377310 On ch=1 n=c5 v=0
377310 On ch=1 n=e5 v=71
377352 On ch=1 n=c4 v=0
377388 On ch=1 n=c5 v=79
377406 On ch=1 n=g4 v=93
377418 On ch=1 n=e4 v=0
377428 On ch=1 n=f#5 v=0
377440 On ch=1 n=e5 v=0
377506 On ch=1 n=g4 v=0
377508 On ch=1 n=e5 v=68
377510 On ch=1 n=f#5 v=90
377528 On ch=1 n=c5 v=0
377570 On ch=1 n=c5 v=112
377572 On ch=1 n=e5 v=0
377592 On ch=1 n=f#5 v=0
377818 On ch=1 n=c5 v=0
377880 On ch=1 n=e5 v=100
377908 On ch=1 n=g5 v=118
377910 Par ch=1 c=64 v=63
377920 Par ch=1 c=64 v=0
377990 Par ch=1 c=64 v=63
378004 Par ch=1 c=64 v=127
378098 On ch=1 n=e5 v=0
378200 On ch=1 n=c#5 v=94
378268 On ch=1 n=g5 v=0
378302 On ch=1 n=b4 v=68
378406 On ch=1 n=c#5 v=0
378408 On ch=1 n=g4 v=60
378468 On ch=1 n=b4 v=0
378502 On ch=1 n=g4 v=0
378504 On ch=1 n=e4 v=79
378590 On ch=1 n=c#4 v=80
378640 On ch=1 n=e4 v=0
378666 On ch=1 n=c#4 v=0
378688 On ch=1 n=c4 v=46
378696 Par ch=1 c=67 v=127
378704 Par ch=1 c=67 v=0
378710 On ch=1 n=b3 v=87
378736 On ch=1 n=c4 v=0
378770 On ch=1 n=b3 v=0
378806 On ch=1 n=b3 v=68
378876 On ch=1 n=c#4 v=87
378918 On ch=1 n=b3 v=0
378984 On ch=1 n=e4 v=81
379022 On ch=1 n=c#4 v=0
379082 On ch=1 n=g4 v=73
379098 On ch=1 n=e4 v=0
379202 On ch=1 n=g4 v=0
379206 On ch=1 n=c#4 v=68
379268 On ch=1 n=b3 v=72
379310 Par ch=1 c=67 v=127
379340 On ch=1 n=c#4 v=0
379376 On ch=1 n=g3 v=56
379414 On ch=1 n=b3 v=0
379450 On ch=1 n=e3 v=57
379476 On ch=1 n=g3 v=0
379536 On ch=1 n=c#3 v=72
379576 On ch=1 n=e3 v=0
379652 On ch=1 n=c#3 v=0
379652 On ch=1 n=b2 v=84
379722 On ch=1 n=b2 v=0
379804 On ch=1 n=b2 v=37
379892 On ch=1 n=c#3 v=75
379936 On ch=1 n=b2 v=0
380006 On ch=1 n=e3 v=66
380024 On ch=1 n=c#3 v=0
380100 On ch=1 n=g3 v=64
380132 On ch=1 n=e3 v=0
380222 On ch=1 n=b3 v=22
380224 On ch=1 n=g3 v=0
380308 On ch=1 n=g3 v=47
380312 On ch=1 n=b3 v=0
380404 On ch=1 n=e3 v=68
380442 On ch=1 n=g3 v=0
380522 On ch=1 n=e3 v=0
380536 On ch=1 n=c#3 v=85
380632 On ch=1 n=c#3 v=0
380660 On ch=1 n=b2 v=51
380768 On ch=1 n=b2 v=0
380806 On ch=1 n=a2 v=57
380978 On ch=1 n=e2 v=54
381050 On ch=1 n=a2 v=0
381298 On ch=1 n=e2 v=0
381310 On ch=1 n=a1 v=99
381410 Par ch=1 c=64 v=63
381420 Par ch=1 c=64 v=0
381524 Par ch=1 c=64 v=63
381536 Par ch=1 c=64 v=127
381706 On ch=1 n=a1 v=0
382232 On ch=1 n=b3 v=63
382452 On ch=1 n=c#4 v=63
382580 On ch=1 n=e4 v=69
382658 On ch=1 n=b3 v=0
382664 On ch=1 n=c#4 v=0
382680 On ch=1 n=g4 v=54
382696 On ch=1 n=e4 v=0
382780 On ch=1 n=b4 v=59
382800 On ch=1 n=g4 v=0
382808 On ch=1 n=c#5 v=79
382914 On ch=1 n=b4 v=0
382948 On ch=1 n=e5 v=41
382976 On ch=1 n=g5 v=76
382988 On ch=1 n=c#5 v=0
383068 On ch=1 n=b5 v=58
383138 On ch=1 n=c#6 v=67
383188 On ch=1 n=b5 v=0
383188 On ch=1 n=e5 v=0
383218 On ch=1 n=e6 v=65
383232 On ch=1 n=c#6 v=0
383232 On ch=1 n=g5 v=0
383310 On ch=1 n=e6 v=0
383856 On ch=1 n=e6 v=72
384012 On ch=1 n=c#6 v=69
384048 On ch=1 n=e6 v=0
384150 On ch=1 n=b5 v=68
384184 On ch=1 n=c#6 v=0
384224 On ch=1 n=b5 v=0
384252 On ch=1 n=g5 v=62
384356 On ch=1 n=e5 v=72
384384 On ch=1 n=g5 v=0
384438 On ch=1 n=c#5 v=80
384498 On ch=1 n=e5 v=0
384502 On ch=1 n=b4 v=36
384584 On ch=1 n=c#5 v=0
384608 On ch=1 n=g4 v=12
384648 On ch=1 n=b4 v=0
384660 On ch=1 n=e4 v=49
384710 On ch=1 n=g4 v=0
384744 On ch=1 n=c#4 v=63
384802 On ch=1 n=e4 v=0
384864 On ch=1 n=b3 v=54
384888 On ch=1 n=c#4 v=0
385142 On ch=1 n=b3 v=0
385724 On ch=1 n=b3 v=48
385838 On ch=1 n=c#4 v=67
385932 On ch=1 n=e4 v=41
385982 On ch=1 n=g4 v=45
386046 On ch=1 n=b3 v=0
386048 On ch=1 n=c#4 v=0
386058 On ch=1 n=b4 v=58
386076 On ch=1 n=e4 v=0
386080 On ch=1 n=g4 v=0
386088 On ch=1 n=c#5 v=75
386172 On ch=1 n=b4 v=0
386212 On ch=1 n=e5 v=38
386260 On ch=1 n=g5 v=48
386264 On ch=1 n=c#5 v=0
386402 On ch=1 n=e5 v=0
386436 On ch=1 n=g5 v=0
386888 On ch=1 n=g5 v=64
386992 On ch=1 n=g5 v=0
387016 On ch=1 n=e5 v=38
387060 On ch=1 n=c#5 v=74
387126 On ch=1 n=b4 v=66
387160 On ch=1 n=e5 v=0
387212 On ch=1 n=g4 v=54
387226 On ch=1 n=c#5 v=0
387274 On ch=1 n=b4 v=0
387304 On ch=1 n=g4 v=0
387320 On ch=1 n=e4 v=47
387394 On ch=1 n=c#4 v=55
387458 On ch=1 n=e4 v=0
387574 On ch=1 n=b3 v=51
387622 On ch=1 n=c#4 v=0
387810 On ch=1 n=a2 v=59
387866 On ch=1 n=b3 v=0
388008 Par ch=1 c=64 v=63
388056 Par ch=1 c=64 v=0
388336 Par ch=1 c=64 v=63
388346 Par ch=1 c=64 v=127
388362 On ch=1 n=a3 v=56
388508 On ch=1 n=a2 v=0
388870 On ch=1 n=a4 v=36
388874 On ch=1 n=g4 v=34
389384 On ch=1 n=a4 v=0
389390 On ch=1 n=g4 v=0
389602 On ch=1 n=g4 v=37
389644 On ch=1 n=g5 v=97
389664 On ch=1 n=c#5 v=67
389742 On ch=1 n=b4 v=5
390050 On ch=1 n=a3 v=0
390326 On ch=1 n=g4 v=0
390388 On ch=1 n=a3 v=43
390520 On ch=1 n=a3 v=0
390982 On ch=1 n=a1 v=65
391098 On ch=1 n=a1 v=0
391488 On ch=1 n=a3 v=83
391584 On ch=1 n=a3 v=0
391926 On ch=1 n=g4 v=41
391982 On ch=1 n=a4 v=16
392250 On ch=1 n=a4 v=0
392258 On ch=1 n=g4 v=0
392418 On ch=1 n=a3 v=61
392512 On ch=1 n=a3 v=0
392812 On ch=1 n=g5 v=0
392836 On ch=1 n=b4 v=0
392940 On ch=1 n=c#5 v=0
393018 On ch=1 n=a2 v=70
393332 On ch=1 n=a3 v=85
393334 On ch=1 n=a2 v=0
393400 On ch=1 n=a3 v=0
393642 On ch=1 n=a4 v=92
393650 On ch=1 n=g4 v=87
393972 On ch=1 n=g4 v=0
394036 On ch=1 n=a4 v=0
394088 On ch=1 n=g4 v=69
394094 On ch=1 n=g5 v=106
394108 On ch=1 n=c#5 v=83
394120 On ch=1 n=a#4 v=80
394418 Par ch=1 c=64 v=63
394478 Par ch=1 c=64 v=0
394788 Par ch=1 c=64 v=63
394794 Par ch=1 c=64 v=127
394812 On ch=1 n=a3 v=44
394862 On ch=1 n=g4 v=0
394928 On ch=1 n=g5 v=0
395024 On ch=1 n=c#5 v=0
395032 On ch=1 n=a#4 v=0
395584 On ch=1 n=a2 v=47
395588 On ch=1 n=a3 v=0
395614 On ch=1 n=c#5 v=30
395618 On ch=1 n=f5 v=65
395632 On ch=1 n=f4 v=31
395632 On ch=1 n=a4 v=31
395750 Par ch=1 c=64 v=63
395766 Par ch=1 c=64 v=0
395872 Par ch=1 c=64 v=63
395892 Par ch=1 c=64 v=127
396136 On ch=1 n=a3 v=57
396140 On ch=1 n=a2 v=0
396198 On ch=1 n=a3 v=0
396632 On ch=1 n=a5 v=51
396642 On ch=1 n=g5 v=59
396698 On ch=1 n=a5 v=0
396712 On ch=1 n=g5 v=0
397170 On ch=1 n=a3 v=41
397778 On ch=1 n=a2 v=44
397784 On ch=1 n=a3 v=0
397978 On ch=1 n=f4 v=0
398166 On ch=1 n=a4 v=0
398190 On ch=1 n=a2 v=0
398196 On ch=1 n=f5 v=0
398200 On ch=1 n=a3 v=42
398238 On ch=1 n=c#5 v=0
398266 On ch=1 n=a3 v=0
398544 On ch=1 n=g4 v=47
398546 On ch=1 n=a4 v=42
398654 On ch=1 n=a4 v=0
398668 On ch=1 n=g4 v=0
398990 On ch=1 n=c#4 v=34
398992 On ch=1 n=c#5 v=53
398992 On ch=1 n=a#4 v=54
399014 On ch=1 n=g4 v=36
399740 On ch=1 n=a3 v=12
399750 On ch=1 n=g3 v=22
399820 On ch=1 n=c#4 v=0
399832 On ch=1 n=g4 v=0
399884 On ch=1 n=a#4 v=0
399888 On ch=1 n=g3 v=0
399896 On ch=1 n=a3 v=0
399948 On ch=1 n=c#5 v=0
400324 Par ch=1 c=67 v=0
401102 On ch=1 n=e5 v=106
401104 On ch=1 n=g#4 v=98
401106 On ch=1 n=b4 v=94
401110 On ch=1 n=f4 v=88
401110 On ch=1 n=g2 v=98
401112 On ch=1 n=e4 v=91
401138 On ch=1 n=c#5 v=72
401164 Par ch=1 c=64 v=63
401168 On ch=1 n=c#5 v=0
401174 Par ch=1 c=64 v=0
401310 Par ch=1 c=64 v=63
401314 Par ch=1 c=64 v=127
401448 On ch=1 n=e5 v=0
401486 On ch=1 n=f4 v=0
401498 On ch=1 n=e4 v=0
401548 On ch=1 n=b4 v=0
401566 On ch=1 n=g#4 v=0
401786 On ch=1 n=g3 v=24
401834 On ch=1 n=c#4 v=77
401836 On ch=1 n=c#5 v=91
402014 On ch=1 n=g2 v=0
402126 On ch=1 n=g3 v=0
402160 On ch=1 n=c#4 v=0
402254 On ch=1 n=c#5 v=0
402766 Par ch=1 c=67 v=127
402880 On ch=1 n=g#4 v=60
403102 On ch=1 n=b4 v=45
403164 On ch=1 n=g#4 v=0
403200 On ch=1 n=b4 v=0
403234 On ch=1 n=g#5 v=70
403330 On ch=1 n=b5 v=59
403340 On ch=1 n=g#5 v=0
403388 On ch=1 n=b5 v=0
403394 On ch=1 n=g#5 v=57
403490 On ch=1 n=b5 v=76
403526 On ch=1 n=g#5 v=0
403554 On ch=1 n=g#6 v=85
403562 On ch=1 n=b5 v=0
403632 On ch=1 n=b6 v=76
403640 On ch=1 n=g#6 v=0
403704 On ch=1 n=b6 v=0
403708 On ch=1 n=g#6 v=86
403786 On ch=1 n=b6 v=41
403802 On ch=1 n=g#6 v=0
403882 On ch=1 n=g#7 v=72
403886 On ch=1 n=b6 v=0
403976 On ch=1 n=b7 v=60
403986 On ch=1 n=g#7 v=0
404138 On ch=1 n=b7 v=0
404482 On ch=1 n=b7 v=86
404604 On ch=1 n=g#7 v=81
404618 On ch=1 n=b7 v=0
404644 On ch=1 n=b6 v=33
404664 On ch=1 n=g#7 v=0
404766 On ch=1 n=g#6 v=81
404788 On ch=1 n=b6 v=0
404826 On ch=1 n=g#6 v=0
404876 On ch=1 n=b6 v=62
404948 On ch=1 n=g#6 v=73
404976 On ch=1 n=b6 v=0
405008 On ch=1 n=g#6 v=0
405028 On ch=1 n=b5 v=71
405104 On ch=1 n=g#5 v=73
405124 On ch=1 n=b5 v=0
405160 On ch=1 n=g#5 v=0
405172 On ch=1 n=b5 v=80
405272 On ch=1 n=g#5 v=74
405300 On ch=1 n=b5 v=0
405350 On ch=1 n=g#5 v=0
405372 On ch=1 n=b4 v=65
405466 On ch=1 n=g#4 v=65
405508 On ch=1 n=b4 v=0
405544 On ch=1 n=g#4 v=0
405582 On ch=1 n=b4 v=49
405676 On ch=1 n=g#4 v=51
405748 On ch=1 n=b4 v=0
405818 On ch=1 n=b3 v=60
405840 On ch=1 n=g#4 v=0
405968 On ch=1 n=g#3 v=55
405990 On ch=1 n=b3 v=0
406054 On ch=1 n=g#3 v=0
406294 On ch=1 n=g2 v=76
406818 On ch=1 n=g#2 v=83
406826 On ch=1 n=g#3 v=79
406862 On ch=1 n=g2 v=0
406910 Par ch=1 c=64 v=63
406916 Par ch=1 c=64 v=127
406996 On ch=1 n=b3 v=63
407046 On ch=1 n=g#2 v=0
407120 On ch=1 n=b3 v=0
407120 On ch=1 n=g#3 v=0
407128 On ch=1 n=g#4 v=80
407204 On ch=1 n=b4 v=76
407248 On ch=1 n=g#4 v=0
407258 On ch=1 n=b4 v=0
407328 On ch=1 n=a#2 v=88
407338 On ch=1 n=b4 v=85
407340 On ch=1 n=a#3 v=97
407406 On ch=1 n=b4 v=0
407426 On ch=1 n=g#5 v=98
407504 On ch=1 n=b5 v=92
407516 On ch=1 n=g#5 v=0
407552 On ch=1 n=b5 v=0
407598 On ch=1 n=b5 v=86
407670 On ch=1 n=b5 v=0
407672 On ch=1 n=a#2 v=0
407678 On ch=1 n=g#6 v=98
407708 On ch=1 n=a#3 v=0
407762 On ch=1 n=b6 v=97
407780 On ch=1 n=g#6 v=0
407828 On ch=1 n=b6 v=0
407870 On ch=1 n=c#4 v=108
407880 On ch=1 n=c#3 v=99
408054 On ch=1 n=b6 v=79
408068 On ch=1 n=c#4 v=0
408132 On ch=1 n=g#6 v=76
408154 On ch=1 n=b6 v=0
408210 On ch=1 n=g#6 v=0
408214 On ch=1 n=b5 v=59
408262 On ch=1 n=b5 v=0
408346 On ch=1 n=b5 v=70
408426 On ch=1 n=g#5 v=71
408434 On ch=1 n=b5 v=0
408490 On ch=1 n=g#5 v=0
408496 On ch=1 n=b4 v=58
408502 On ch=1 n=a#2 v=70
408504 On ch=1 n=a#3 v=68
408538 On ch=1 n=c#3 v=0
408552 On ch=1 n=b4 v=0
408654 On ch=1 n=b4 v=53
408670 On ch=1 n=a#3 v=0
408730 On ch=1 n=g#4 v=75
408756 On ch=1 n=b4 v=0
408806 On ch=1 n=g#4 v=0
408820 On ch=1 n=b3 v=70
408910 On ch=1 n=b3 v=0
408950 On ch=1 n=g#3 v=83
408972 On ch=1 n=g#2 v=80
409032 On ch=1 n=a#2 v=0
409128 Par ch=1 c=64 v=63
409154 Par ch=1 c=64 v=0
409260 Par ch=1 c=64 v=63
409286 Par ch=1 c=64 v=127
409414 On ch=1 n=g#2 v=0
409422 On ch=1 n=g#3 v=0
409430 On ch=1 n=g3 v=76
409458 On ch=1 n=g2 v=34
409550 Par ch=1 c=64 v=63
409642 Par ch=1 c=64 v=127
409736 On ch=1 n=g3 v=0
409940 On ch=1 n=g#2 v=62
409944 On ch=1 n=g#3 v=65
409992 On ch=1 n=g2 v=0
410106 Par ch=1 c=64 v=63
410176 On ch=1 n=e5 v=76
410178 Par ch=1 c=64 v=127
410178 On ch=1 n=e4 v=52
410296 On ch=1 n=g#3 v=0
410376 Par ch=1 c=64 v=63
410380 Par ch=1 c=67 v=127
410384 On ch=1 n=g3 v=52
410406 On ch=1 n=g2 v=20
410436 On ch=1 n=g#2 v=0
410474 Par ch=1 c=64 v=127
410592 On ch=1 n=g3 v=0
410644 On ch=1 n=e4 v=0
410880 On ch=1 n=g#2 v=35
410910 On ch=1 n=g#3 v=32
410922 On ch=1 n=b4 v=45
410924 On ch=1 n=f4 v=37
410964 On ch=1 n=g2 v=0
411222 On ch=1 n=e5 v=0
411226 On ch=1 n=g#3 v=0
411362 On ch=1 n=f4 v=0
411432 On ch=1 n=b4 v=0
411460 On ch=1 n=g2 v=32
411474 On ch=1 n=g3 v=18
411528 On ch=1 n=g#2 v=0
411634 On ch=1 n=g3 v=0
411724 On ch=1 n=c#4 v=38
411736 On ch=1 n=c#5 v=63
411930 On ch=1 n=g#3 v=40
411932 On ch=1 n=g#2 v=36
411934 On ch=1 n=g2 v=0
412212 On ch=1 n=g#3 v=0
412236 On ch=1 n=g#2 v=0
412508 On ch=1 n=g3 v=41
412534 On ch=1 n=g2 v=25
412666 Par ch=1 c=64 v=63
412680 Par ch=1 c=64 v=127
412774 On ch=1 n=c#5 v=0
412802 On ch=1 n=c#4 v=0
412876 On ch=1 n=g3 v=0
413038 On ch=1 n=g2 v=0
413046 On ch=1 n=g#3 v=53
413048 On ch=1 n=g#2 v=59
413172 Par ch=1 c=64 v=63
413220 Par ch=1 c=64 v=127
413340 On ch=1 n=g#2 v=0
413398 On ch=1 n=g#3 v=0
413562 On ch=1 n=a#3 v=80
413570 On ch=1 n=a#2 v=77
413656 Par ch=1 c=64 v=63
413676 Par ch=1 c=64 v=127
413824 On ch=1 n=a#2 v=0
413854 On ch=1 n=a#3 v=0
414080 On ch=1 n=c#4 v=91
414088 On ch=1 n=c#3 v=81
414106 Par ch=1 c=64 v=63
414172 Par ch=1 c=64 v=127
414338 On ch=1 n=c#4 v=0
414412 On ch=1 n=c#3 v=0
414594 On ch=1 n=a#3 v=80
414606 On ch=1 n=a#2 v=78
414652 On ch=1 n=a#3 v=0
414708 On ch=1 n=a#2 v=0
414726 On ch=1 n=g#3 v=66
414830 On ch=1 n=b3 v=65
414838 On ch=1 n=g#3 v=0
414886 On ch=1 n=b3 v=0
414998 On ch=1 n=b3 v=44
415054 On ch=1 n=b3 v=0
415106 On ch=1 n=g#2 v=60
415118 On ch=1 n=g#3 v=59
415142 On ch=1 n=g#4 v=77
415180 On ch=1 n=g#4 v=0
415342 On ch=1 n=g#3 v=0
415346 On ch=1 n=b4 v=71
415400 On ch=1 n=b4 v=0
415434 On ch=1 n=g#2 v=0
415434 On ch=1 n=g#5 v=89
415548 On ch=1 n=g#5 v=0
415560 On ch=1 n=b5 v=60
415602 On ch=1 n=b5 v=0
415690 On ch=1 n=g3 v=72
415698 On ch=1 n=g2 v=71
415752 Par ch=1 c=64 v=63
415778 Par ch=1 c=64 v=0
415844 Par ch=1 c=64 v=63
415862 Par ch=1 c=64 v=127
415976 On ch=1 n=b5 v=68
415988 On ch=1 n=g3 v=0
416030 On ch=1 n=g2 v=0
416084 On ch=1 n=g#5 v=80
416098 On ch=1 n=b5 v=0
416164 On ch=1 n=g#5 v=0
416174 On ch=1 n=b4 v=68
416234 On ch=1 n=b4 v=0
416262 On ch=1 n=g#2 v=72
416262 On ch=1 n=g#3 v=72
416350 On ch=1 n=b4 v=52
416398 On ch=1 n=g#3 v=0
416412 On ch=1 n=b4 v=0
416454 On ch=1 n=g#4 v=79
416492 On ch=1 n=g#2 v=0
416506 On ch=1 n=g#4 v=0
416554 On ch=1 n=b3 v=70
416622 On ch=1 n=b3 v=0
416708 On ch=1 n=b3 v=65
416782 On ch=1 n=g2 v=41
416782 On ch=1 n=g3 v=49
416820 Par ch=1 c=64 v=63
416826 On ch=1 n=b3 v=0
416844 Par ch=1 c=64 v=0
416862 On ch=1 n=g#3 v=53
416908 Par ch=1 c=64 v=63
416932 Par ch=1 c=64 v=127
417020 On ch=1 n=g#3 v=0
417086 On ch=1 n=g3 v=0
417114 On ch=1 n=g2 v=0
417300 On ch=1 n=g#3 v=58
417312 On ch=1 n=g#2 v=53
417392 Par ch=1 c=64 v=63
417480 Par ch=1 c=64 v=127
417682 On ch=1 n=g#3 v=0
417690 On ch=1 n=g#2 v=0
417772 On ch=1 n=g3 v=55
417782 On ch=1 n=g2 v=39
417968 Par ch=1 c=64 v=63
418032 On ch=1 n=c#4 v=46
418036 On ch=1 n=c#5 v=57
418068 Par ch=1 c=64 v=127
418078 On ch=1 n=g3 v=0
418262 On ch=1 n=g2 v=0
418264 On ch=1 n=g#2 v=49
418268 On ch=1 n=g#3 v=52
418326 Par ch=1 c=64 v=63
418392 Par ch=1 c=64 v=127
418514 On ch=1 n=g#2 v=0
418530 On ch=1 n=g#3 v=0
418852 On ch=1 n=g3 v=27
418874 On ch=1 n=b4 v=33
418884 On ch=1 n=g2 v=9
418928 On ch=1 n=f4 v=26
418936 Par ch=1 c=64 v=63
418962 Par ch=1 c=64 v=0
419042 Par ch=1 c=64 v=63
419066 Par ch=1 c=64 v=127
419248 On ch=1 n=g3 v=0
419378 On ch=1 n=g2 v=0
419398 On ch=1 n=g#2 v=51
419410 On ch=1 n=g#3 v=36
419546 On ch=1 n=g#3 v=0
419596 On ch=1 n=g#2 v=0
419904 On ch=1 n=g3 v=35
419928 On ch=1 n=g2 v=6
420060 On ch=1 n=g3 v=0
420078 On ch=1 n=g2 v=0
420400 On ch=1 n=g#2 v=29
420414 On ch=1 n=g#3 v=35
420554 On ch=1 n=g#3 v=0
420580 On ch=1 n=g#2 v=0
420856 On ch=1 n=b4 v=0
420868 On ch=1 n=c#5 v=0
420874 On ch=1 n=f4 v=0
420880 On ch=1 n=c#4 v=0
420900 On ch=1 n=g3 v=36
420924 On ch=1 n=g2 v=5
421170 On ch=1 n=g3 v=0
421256 On ch=1 n=c#5 v=76
421260 On ch=1 n=c#4 v=61
421510 On ch=1 n=g2 v=0
421548 On ch=1 n=g#2 v=60
421558 On ch=1 n=g#3 v=59
421946 On ch=1 n=g#3 v=0
422058 On ch=1 n=g#2 v=0
422176 On ch=1 n=g3 v=73
422194 On ch=1 n=g2 v=50
422332 Par ch=1 c=64 v=63
422352 Par ch=1 c=64 v=0
422402 Par ch=1 c=64 v=63
422432 Par ch=1 c=64 v=127
422578 On ch=1 n=g2 v=0
422616 On ch=1 n=g3 v=0
422714 On ch=1 n=a3 v=66
422722 On ch=1 n=a2 v=59
423052 On ch=1 n=a3 v=0
423058 On ch=1 n=b4 v=59
423084 On ch=1 n=f4 v=41
423292 On ch=1 n=g3 v=35
423304 On ch=1 n=g2 v=40
423356 On ch=1 n=a2 v=0
423372 Par ch=1 c=64 v=63
423412 Par ch=1 c=64 v=127
423588 On ch=1 n=g2 v=0
423612 On ch=1 n=g3 v=0
423842 On ch=1 n=a3 v=35
423846 On ch=1 n=a2 v=22
424078 On ch=1 n=a2 v=0
424084 On ch=1 n=a3 v=0
424342 On ch=1 n=g3 v=30
424348 On ch=1 n=g2 v=41
424492 On ch=1 n=g3 v=0
424494 On ch=1 n=g2 v=0
424846 On ch=1 n=a2 v=39
424858 On ch=1 n=a3 v=19
425024 On ch=1 n=a2 v=0
425048 On ch=1 n=a3 v=0
425358 On ch=1 n=g3 v=34
425366 On ch=1 n=g2 v=40
425516 On ch=1 n=g2 v=0
425536 On ch=1 n=g3 v=0
425854 On ch=1 n=f4 v=0
425882 On ch=1 n=b4 v=0
425922 On ch=1 n=c#5 v=0
425936 On ch=1 n=c#4 v=0
425940 On ch=1 n=a2 v=32
425940 On ch=1 n=a3 v=24
426224 On ch=1 n=a3 v=0
426228 On ch=1 n=c#5 v=67
426244 On ch=1 n=a2 v=0
426248 On ch=1 n=c#4 v=36
426520 On ch=1 n=g3 v=28
426544 On ch=1 n=g2 v=24
426700 On ch=1 n=g2 v=0
426716 On ch=1 n=g3 v=0
427166 On ch=1 n=a2 v=32
427178 On ch=1 n=b4 v=41
427180 On ch=1 n=a3 v=20
427232 On ch=1 n=f4 v=10
427390 On ch=1 n=a3 v=0
427390 On ch=1 n=a2 v=0
427868 On ch=1 n=g3 v=22
427880 On ch=1 n=g2 v=22
428130 On ch=1 n=g2 v=0
428148 On ch=1 n=g3 v=0
428696 On ch=1 n=a2 v=30
428718 On ch=1 n=a3 v=17
428800 On ch=1 n=c#4 v=0
428844 On ch=1 n=f4 v=0
428878 On ch=1 n=b4 v=0
428884 On ch=1 n=c#5 v=0
429020 On ch=1 n=a3 v=0
429106 On ch=1 n=a2 v=0
430184 On ch=1 n=f#2 v=47
430230 Par ch=1 c=64 v=63
430340 Par ch=1 c=64 v=127
430434 On ch=1 n=e4 v=54
430514 On ch=1 n=a4 v=58
430548 On ch=1 n=e4 v=0
430596 On ch=1 n=e5 v=75
430624 On ch=1 n=a4 v=0
430674 On ch=1 n=f#3 v=67
430680 On ch=1 n=e5 v=0
430706 On ch=1 n=f#2 v=0
430752 On ch=1 n=f#3 v=0
430766 On ch=1 n=e5 v=51
430826 On ch=1 n=e5 v=0
430828 On ch=1 n=a5 v=76
430906 On ch=1 n=a5 v=0
430908 On ch=1 n=e6 v=68
430958 On ch=1 n=e6 v=0
431014 On ch=1 n=e6 v=84
431110 On ch=1 n=e6 v=0
431132 On ch=1 n=a6 v=62
431194 On ch=1 n=f#4 v=56
431254 On ch=1 n=e7 v=102
431516 On ch=1 n=a6 v=0
431530 On ch=1 n=c#5 v=61
431536 On ch=1 n=f#4 v=0
431670 On ch=1 n=e5 v=63
431698 On ch=1 n=e7 v=0
431712 On ch=1 n=c#5 v=0
431766 On ch=1 n=e5 v=0
431790 On ch=1 n=a5 v=68
431854 On ch=1 n=a5 v=0
431896 On ch=1 n=c#6 v=90
431960 On ch=1 n=d6 v=34
431988 On ch=1 n=e6 v=82
432010 On ch=1 n=d6 v=0
432032 On ch=1 n=c#6 v=0
432080 On ch=1 n=c#7 v=110
432090 On ch=1 n=g#6 v=92
432108 On ch=1 n=e6 v=0
432120 On ch=1 n=a6 v=68
432206 On ch=1 n=a6 v=0
432230 On ch=1 n=e6 v=72
432244 On ch=1 n=g#6 v=0
432312 On ch=1 n=c#6 v=83
432324 On ch=1 n=e6 v=0
432366 On ch=1 n=c#6 v=0
432418 On ch=1 n=a5 v=84
432456 On ch=1 n=c#7 v=0
432502 On ch=1 n=a5 v=0
432524 On ch=1 n=e5 v=66
432604 On ch=1 n=c#5 v=81
432610 On ch=1 n=e5 v=0
432712 On ch=1 n=c#5 v=0
432736 On ch=1 n=f#4 v=76
432858 On ch=1 n=f#4 v=0
432868 On ch=1 n=c#5 v=67
432956 On ch=1 n=e5 v=73
432986 On ch=1 n=c#5 v=0
433076 On ch=1 n=e5 v=0
433084 On ch=1 n=a5 v=54
433184 On ch=1 n=a5 v=0
433190 On ch=1 n=g#6 v=82
433198 On ch=1 n=c#6 v=70
433216 On ch=1 n=e5 v=26
433272 On ch=1 n=c#5 v=76
433274 On ch=1 n=e5 v=0
433376 On ch=1 n=c#6 v=0
433390 On ch=1 n=c#5 v=0
433418 On ch=1 n=f#4 v=76
433434 On ch=1 n=g#6 v=0
433504 On ch=1 n=f#4 v=0
433524 On ch=1 n=c#5 v=68
433610 On ch=1 n=e5 v=56
433634 On ch=1 n=c#5 v=0
433640 On ch=1 n=f#6 v=88
433662 On ch=1 n=e6 v=56
433724 On ch=1 n=e5 v=0
433744 On ch=1 n=a5 v=44
433748 On ch=1 n=f#6 v=0
433816 On ch=1 n=a5 v=0
433874 On ch=1 n=e5 v=16
433892 On ch=1 n=e6 v=0
433900 On ch=1 n=c#5 v=78
433912 On ch=1 n=e5 v=0
434008 On ch=1 n=c#5 v=0
434038 On ch=1 n=e7 v=86
434042 On ch=1 n=f#4 v=70
434046 On ch=1 n=a6 v=63
434170 On ch=1 n=f#4 v=0
434184 On ch=1 n=c#5 v=64
434254 On ch=1 n=a6 v=0
434264 On ch=1 n=e5 v=67
434296 On ch=1 n=c#5 v=0
434300 On ch=1 n=e7 v=0
434348 On ch=1 n=e5 v=0
434362 On ch=1 n=a5 v=91
434430 On ch=1 n=a5 v=0
434470 On ch=1 n=c#6 v=85
434550 On ch=1 n=e6 v=89
434574 On ch=1 n=c#6 v=0
434666 On ch=1 n=e6 v=0
434676 On ch=1 n=a6 v=69
434678 On ch=1 n=c#7 v=100
434678 On ch=1 n=g#6 v=87
434734 On ch=1 n=g#6 v=0
434770 On ch=1 n=c#7 v=0
434772 On ch=1 n=a6 v=0
434804 On ch=1 n=e6 v=56
434888 On ch=1 n=c#6 v=73
434900 On ch=1 n=e6 v=0
434952 On ch=1 n=c#6 v=0
435004 On ch=1 n=a5 v=79
435086 On ch=1 n=a5 v=0
435126 On ch=1 n=e5 v=36
435182 On ch=1 n=e5 v=0
435184 On ch=1 n=c#5 v=72
435276 On ch=1 n=c#5 v=0
435320 On ch=1 n=f#4 v=80
435420 On ch=1 n=f#4 v=0
435452 On ch=1 n=c#5 v=61
435536 On ch=1 n=e5 v=60
435574 On ch=1 n=c#5 v=0
435660 On ch=1 n=e5 v=0
435662 On ch=1 n=a5 v=59
435764 On ch=1 n=a5 v=0
435764 On ch=1 n=c#6 v=70
435764 On ch=1 n=g#6 v=73
435812 On ch=1 n=e5 v=10
435856 On ch=1 n=e5 v=0
435862 On ch=1 n=c#5 v=61
435868 On ch=1 n=c#6 v=0
435978 On ch=1 n=c#5 v=0
436006 On ch=1 n=g#6 v=0
436016 On ch=1 n=f#4 v=69
436120 On ch=1 n=f#4 v=0
436138 On ch=1 n=c#5 v=63
436242 On ch=1 n=e5 v=47
436254 On ch=1 n=c#5 v=0
436278 On ch=1 n=f#6 v=80
436292 On ch=1 n=e6 v=51
436370 On ch=1 n=e5 v=0
436376 On ch=1 n=e6 v=0
436402 On ch=1 n=a5 v=39
436406 On ch=1 n=f#6 v=0
436532 On ch=1 n=a5 v=0
436542 On ch=1 n=e5 v=30
436666 On ch=1 n=c#5 v=58
436682 On ch=1 n=e5 v=0
436808 On ch=1 n=c#5 v=0
437046 On ch=1 n=g#5 v=61
437050 On ch=1 n=g#7 v=101
437062 On ch=1 n=e5 v=56
437068 On ch=1 n=c#7 v=95
437130 On ch=1 n=c#7 v=0
437226 On ch=1 n=g#7 v=0
437270 On ch=1 n=g#5 v=0
437420 On ch=1 n=e5 v=0
437926 On ch=1 n=f#7 v=77
437930 On ch=1 n=f#5 v=52
437936 On ch=1 n=c#5 v=55
437948 On ch=1 n=e7 v=61
438030 On ch=1 n=e7 v=0
438052 On ch=1 n=f#7 v=0
438488 On ch=1 n=c#5 v=0
438588 On ch=1 n=f#5 v=0
438732 On ch=1 n=c#5 v=54
438920 On ch=1 n=e5 v=46
438936 On ch=1 n=c#5 v=0
438980 On ch=1 n=e5 v=0
439006 On ch=1 n=c#6 v=72
439070 On ch=1 n=c#6 v=0
439078 On ch=1 n=e6 v=76
439114 On ch=1 n=e6 v=0
439160 On ch=1 n=c#6 v=75
439234 On ch=1 n=e6 v=65
439248 On ch=1 n=c#6 v=0
439298 On ch=1 n=e6 v=0
439300 On ch=1 n=c#7 v=80
439364 On ch=1 n=e7 v=85
439386 On ch=1 n=c#7 v=0
439422 On ch=1 n=e7 v=0
439440 On ch=1 n=c#7 v=73
439544 On ch=1 n=c#7 v=0
439630 On ch=1 n=c#8 v=72
439714 On ch=1 n=e8 v=58
439720 On ch=1 n=c#8 v=0
439802 On ch=1 n=e8 v=0
440430 On ch=1 n=e8 v=61
440572 On ch=1 n=c#8 v=69
440586 On ch=1 n=e8 v=0
440638 On ch=1 n=c#8 v=0
440688 On ch=1 n=e7 v=30
440770 On ch=1 n=c#7 v=70
440798 On ch=1 n=e7 v=0
440840 On ch=1 n=c#7 v=0
440882 On ch=1 n=e7 v=65
440962 On ch=1 n=c#7 v=70
440986 On ch=1 n=e7 v=0
441026 On ch=1 n=c#7 v=0
441058 On ch=1 n=e6 v=72
441142 On ch=1 n=c#6 v=87
441164 On ch=1 n=e6 v=0
441210 On ch=1 n=c#6 v=0
441246 On ch=1 n=e6 v=41
441324 On ch=1 n=c#6 v=78
441336 On ch=1 n=e6 v=0
441410 On ch=1 n=c#6 v=0
441438 On ch=1 n=e6 v=77
441574 On ch=1 n=a6 v=72
441710 On ch=1 n=f#4 v=67
441794 Par ch=1 c=64 v=63
441818 Par ch=1 c=64 v=0
441822 On ch=1 n=e7 v=96
441942 Par ch=1 c=64 v=63
441954 Par ch=1 c=64 v=127
442054 On ch=1 n=c#5 v=65
442084 On ch=1 n=f#4 v=0
442182 On ch=1 n=e6 v=0
442192 On ch=1 n=e5 v=74
442240 On ch=1 n=c#5 v=0
442292 On ch=1 n=e5 v=0
442306 On ch=1 n=a5 v=77
442342 On ch=1 n=a6 v=0
442352 On ch=1 n=e7 v=0
442374 On ch=1 n=a5 v=0
442406 On ch=1 n=c#6 v=89
442488 On ch=1 n=e6 v=96
442522 On ch=1 n=c#6 v=0
442596 On ch=1 n=c#7 v=116
442604 On ch=1 n=e6 v=0
442614 On ch=1 n=a6 v=74
442616 On ch=1 n=g#6 v=93
442706 On ch=1 n=a6 v=0
442732 On ch=1 n=e6 v=67
442760 On ch=1 n=g#6 v=0
442820 On ch=1 n=c#6 v=86
442832 On ch=1 n=e6 v=0
442876 On ch=1 n=c#6 v=0
442936 On ch=1 n=a5 v=73
442940 On ch=1 n=c#7 v=0
443010 On ch=1 n=a5 v=0
443036 On ch=1 n=e5 v=62
443120 On ch=1 n=c#5 v=83
443126 On ch=1 n=e5 v=0
443220 On ch=1 n=c#5 v=0
443256 On ch=1 n=f#4 v=80
443374 On ch=1 n=f#4 v=0
443380 On ch=1 n=c#5 v=69
443462 On ch=1 n=e5 v=68
443494 On ch=1 n=c#5 v=0
443574 On ch=1 n=e5 v=0
443576 On ch=1 n=a5 v=60
443666 On ch=1 n=a5 v=0
443692 On ch=1 n=g#6 v=85
443702 On ch=1 n=e5 v=32
443704 On ch=1 n=c#6 v=61
443772 On ch=1 n=c#5 v=69
443778 On ch=1 n=e5 v=0
443818 On ch=1 n=c#6 v=0
443894 On ch=1 n=c#5 v=0
443928 On ch=1 n=f#4 v=68
443948 On ch=1 n=g#6 v=0
444032 On ch=1 n=f#4 v=0
444052 On ch=1 n=c#5 v=57
444166 On ch=1 n=e5 v=40
444202 On ch=1 n=c#5 v=0
444202 On ch=1 n=f#6 v=73
444232 On ch=1 n=e6 v=41
444328 On ch=1 n=e5 v=0
444356 On ch=1 n=a5 v=41
444388 On ch=1 n=e6 v=0
444448 On ch=1 n=f#6 v=0
444462 On ch=1 n=a5 v=0
444504 On ch=1 n=e5 v=39
444680 On ch=1 n=c#5 v=45
444710 On ch=1 n=e5 v=0
444822 On ch=1 n=c#5 v=0
445116 On ch=1 n=c#5 v=78
445186 Par ch=1 c=64 v=63
445236 Par ch=1 c=64 v=0
445260 Par ch=1 c=64 v=63
445266 On ch=1 n=e5 v=55
445278 On ch=1 n=c#5 v=0
445306 Par ch=1 c=64 v=127
445332 On ch=1 n=e5 v=0
445338 On ch=1 n=c#6 v=65
445450 On ch=1 n=e6 v=51
445456 On ch=1 n=c#6 v=0
445492 On ch=1 n=e6 v=0
445508 On ch=1 n=c#6 v=63
445606 On ch=1 n=e6 v=58
445626 On ch=1 n=c#6 v=0
445684 On ch=1 n=c#7 v=73
445696 On ch=1 n=e6 v=0
445782 On ch=1 n=c#7 v=0
445786 On ch=1 n=e7 v=51
445886 On ch=1 n=e7 v=0
446554 On ch=1 n=e7 v=47
446656 On ch=1 n=c#7 v=39
446704 On ch=1 n=e7 v=0
446750 On ch=1 n=e6 v=31
446754 On ch=1 n=c#7 v=0
446850 On ch=1 n=c#6 v=56
446878 On ch=1 n=e6 v=0
446926 On ch=1 n=c#6 v=0
446978 On ch=1 n=e6 v=25
447110 On ch=1 n=c#6 v=34
447194 On ch=1 n=e6 v=0
447242 On ch=1 n=c#6 v=0
447324 On ch=1 n=c#5 v=52
447572 On ch=1 n=c#5 v=0
447720 Par ch=1 c=64 v=63
448162 Par ch=1 c=64 v=127
448298 On ch=1 n=g#5 v=27
448302 On ch=1 n=g#6 v=64
448312 On ch=1 n=e5 v=36
448318 On ch=1 n=c#6 v=43
448458 On ch=1 n=c#6 v=0
448500 On ch=1 n=g#5 v=0
448544 On ch=1 n=e5 v=0
448668 On ch=1 n=g#6 v=0
449262 On ch=1 n=f#6 v=38
449284 On ch=1 n=e6 v=35
449286 On ch=1 n=c#5 v=35
449288 On ch=1 n=f#5 v=25
450002 On ch=1 n=f#5 v=0
450092 On ch=1 n=e6 v=0
450096 On ch=1 n=c#5 v=0
450150 On ch=1 n=f#6 v=0
450878 On ch=1 n=c#5 v=35
450980 On ch=1 n=e5 v=19
451068 On ch=1 n=c#6 v=53
451216 On ch=1 n=e6 v=14
451308 On ch=1 n=c#5 v=0
451378 On ch=1 n=e6 v=0
451450 On ch=1 n=c#6 v=0
451570 On ch=1 n=e5 v=0
451580 On ch=1 n=f#4 v=38
451672 On ch=1 n=c#5 v=35
451758 On ch=1 n=g#5 v=51
451954 Par ch=1 c=64 v=63
452016 Par ch=1 c=64 v=0
452162 Par ch=1 c=64 v=63
452190 Par ch=1 c=64 v=127
452506 On ch=1 n=g#5 v=0
453086 On ch=1 n=f#5 v=34
453112 On ch=1 n=e5 v=8
454352 On ch=1 n=f#5 v=0
454662 On ch=1 n=c#5 v=0
454666 On ch=1 n=f#4 v=0
454674 On ch=1 n=e5 v=0
455022 On ch=1 n=c#5 v=34
455152 On ch=1 n=e5 v=41
455154 On ch=1 n=c#5 v=0
455212 On ch=1 n=e5 v=0
455218 On ch=1 n=c#6 v=53
455310 On ch=1 n=e6 v=52
455324 On ch=1 n=c#6 v=0
455360 On ch=1 n=e6 v=0
455386 On ch=1 n=c#6 v=60
455476 On ch=1 n=e6 v=60
455492 On ch=1 n=c#6 v=0
455574 On ch=1 n=e6 v=0
455574 On ch=1 n=c#7 v=58
455708 On ch=1 n=c#7 v=0
455722 On ch=1 n=e7 v=28
455904 On ch=1 n=e7 v=0
456710 On ch=1 n=c#7 v=37
456774 On ch=1 n=e7 v=30
456816 On ch=1 n=c#8 v=45
456932 On ch=1 n=e8 v=36
456940 Par ch=1 c=64 v=63
457112 Par ch=1 c=64 v=127
457260 On ch=1 n=c#8 v=0
457308 On ch=1 n=c#7 v=0
457318 On ch=1 n=e8 v=0
457328 On ch=1 n=e7 v=0
458884 Par ch=1 c=64 v=63
458946 Par ch=1 c=64 v=0
459548 Par ch=1 c=67 v=0
459548 Meta TrkEnd
TrkEnd
