MFile 1 2 480
MTrk
0 Tempo 500000
0 TimeSig 4/4 24 8
0 Meta TrkEnd
TrkEnd
MTrk
0 SeqSpec 43 00 01 00
0 Meta TrkName "<Master Volume>"
0 Meta 0x21 00
0 SysEx f0 41 10 42 12 40 00 7f 00 41 f7
0 SysEx f0 41 10 42 12 40 00 04 64 58 f7
192 Meta Text "<Master Reverve>"
192 SysEx f0 41 10 42 12 40 01 30 03 0c f7
192 SysEx f0 41 10 42 12 40 01 33 3c 50 f7
192 SysEx f0 41 10 42 12 40 01 34 3c 4f f7
576 Par ch=1 c=0 v=0
580 Par ch=1 c=32 v=1
584 PrCh ch=1 p=0
642 Par ch=1 c=67 v=0
780 Par ch=1 c=7 v=100
972 Par ch=1 c=11 v=80
1164 Par ch=1 c=10 v=64
1356 Par ch=1 c=1 v=0
1356 Meta Text "<part reverve>"
1356 Par ch=1 c=91 v=80
1374 Par ch=1 c=67 v=0
1452 Par ch=1 c=99 v=1
1456 Par ch=1 c=98 v=32
1460 Par ch=1 c=6 v=62
1464 Par ch=1 c=99 v=1
1468 Par ch=1 c=98 v=33
1472 Par ch=1 c=6 v=54
1476 Par ch=1 c=99 v=1
1480 Par ch=1 c=98 v=99
1484 Par ch=1 c=6 v=62
1488 Par ch=1 c=99 v=1
1492 Par ch=1 c=98 v=100
1496 Par ch=1 c=6 v=60
1500 Par ch=1 c=99 v=1
1504 Par ch=1 c=98 v=102
1508 Par ch=1 c=6 v=70
2428 Par ch=1 c=67 v=127
3596 On ch=1 n=a#6 v=79
3790 Par ch=1 c=64 v=63
3818 Par ch=1 c=64 v=127
4420 On ch=1 n=a#6 v=0
4606 On ch=1 n=a#6 v=50
6968 On ch=1 n=a#6 v=0
7742 On ch=1 n=a#6 v=44
8500 On ch=1 n=a#6 v=0
8720 On ch=1 n=a#6 v=30
11398 On ch=1 n=a#6 v=0
12150 On ch=1 n=f#6 v=56
12266 On ch=1 n=f#6 v=0
12266 On ch=1 n=c#7 v=64
12358 On ch=1 n=f7 v=50
12412 On ch=1 n=c#7 v=0
12486 On ch=1 n=d#7 v=87
12498 On ch=1 n=f7 v=0
12622 On ch=1 n=a#6 v=77
12640 On ch=1 n=d#7 v=0
12700 On ch=1 n=a#6 v=0
13116 On ch=1 n=d#6 v=67
13276 On ch=1 n=d#6 v=0
13278 On ch=1 n=g#6 v=55
15890 On ch=1 n=g#6 v=0
16376 On ch=1 n=f#6 v=44
16498 On ch=1 n=f#6 v=0
16510 On ch=1 n=c#7 v=52
16604 On ch=1 n=f7 v=44
16642 On ch=1 n=c#7 v=0
16730 On ch=1 n=d#7 v=78
16732 On ch=1 n=f7 v=0
16872 On ch=1 n=a#6 v=76
16886 On ch=1 n=d#7 v=0
16966 On ch=1 n=a#6 v=0
17366 On ch=1 n=d#6 v=58
17558 On ch=1 n=g#6 v=52
17626 On ch=1 n=d#6 v=0
20118 On ch=1 n=g#6 v=0
20618 On ch=1 n=d#6 v=43
20930 Par ch=1 c=64 v=63
21052 Par ch=1 c=64 v=127
21502 On ch=1 n=d#6 v=0
21708 On ch=1 n=d#6 v=37
23886 On ch=1 n=d#6 v=0
24158 On ch=1 n=d#6 v=32
25102 On ch=1 n=d#6 v=0
25380 On ch=1 n=d#6 v=44
28292 On ch=1 n=d#6 v=0
28572 On ch=1 n=d5 v=43
28844 On ch=1 n=d5 v=0
29256 On ch=1 n=f#4 v=40
29260 On ch=1 n=a#3 v=36
29766 On ch=1 n=g#4 v=52
29798 On ch=1 n=d#3 v=28
30254 On ch=1 n=f#4 v=0
30268 On ch=1 n=a#4 v=61
30430 On ch=1 n=g#4 v=0
30750 On ch=1 n=f#4 v=43
31062 On ch=1 n=d#3 v=0
31076 On ch=1 n=a#3 v=0
31160 On ch=1 n=g#4 v=33
31564 On ch=1 n=f#4 v=0
31772 On ch=1 n=d#6 v=64
31872 On ch=1 n=g#4 v=0
32292 On ch=1 n=f#4 v=42
32370 On ch=1 n=d#6 v=0
32532 On ch=1 n=d#6 v=73
32814 On ch=1 n=g#4 v=47
32840 On ch=1 n=d#6 v=0
32922 On ch=1 n=f#4 v=0
33512 On ch=1 n=d5 v=67
33566 On ch=1 n=a#4 v=0
34098 On ch=1 n=a#3 v=48
34122 On ch=1 n=f#4 v=44
34134 On ch=1 n=g#4 v=0
34632 On ch=1 n=g#4 v=50
34636 On ch=1 n=d#3 v=62
35124 On ch=1 n=a#4 v=66
35340 On ch=1 n=d5 v=0
35368 On ch=1 n=f#4 v=0
35600 On ch=1 n=g#4 v=0
35618 On ch=1 n=f#4 v=37
36008 On ch=1 n=a#3 v=0
36020 On ch=1 n=d#3 v=0
36070 On ch=1 n=g#4 v=43
36558 On ch=1 n=d#6 v=71
36582 On ch=1 n=f#4 v=0
36996 On ch=1 n=g#4 v=0
37120 On ch=1 n=f#4 v=32
37246 On ch=1 n=d#6 v=0
37496 On ch=1 n=d#6 v=54
37678 On ch=1 n=d#6 v=0
37810 On ch=1 n=g#4 v=33
37946 On ch=1 n=f#4 v=0
38578 On ch=1 n=b2 v=37
38610 On ch=1 n=d5 v=66
38666 On ch=1 n=a#4 v=0
39200 On ch=1 n=g#4 v=0
39210 On ch=1 n=f#3 v=49
39244 On ch=1 n=f#4 v=40
39316 Par ch=1 c=64 v=63
39378 Par ch=1 c=64 v=127
39560 On ch=1 n=b2 v=0
39718 On ch=1 n=g#4 v=51
39720 On ch=1 n=d4 v=61
40180 On ch=1 n=a#4 v=72
40310 On ch=1 n=f#3 v=0
40354 On ch=1 n=d5 v=0
40360 On ch=1 n=f#4 v=0
40414 On ch=1 n=g#4 v=0
40588 On ch=1 n=f#3 v=54
40606 On ch=1 n=f#4 v=63
40666 On ch=1 n=d4 v=0
41022 On ch=1 n=b2 v=73
41022 On ch=1 n=g#4 v=63
41508 On ch=1 n=d5 v=82
41806 On ch=1 n=f#3 v=0
41872 On ch=1 n=f#4 v=0
41988 On ch=1 n=g#4 v=0
42104 On ch=1 n=f#4 v=47
42112 On ch=1 n=f#3 v=53
42200 On ch=1 n=a#4 v=0
42266 On ch=1 n=b2 v=0
42550 On ch=1 n=a#4 v=70
42564 On ch=1 n=d4 v=59
42578 On ch=1 n=g#4 v=61
42614 On ch=1 n=f#4 v=0
42704 On ch=1 n=d5 v=0
43006 On ch=1 n=d5 v=93
43186 On ch=1 n=f#3 v=0
43372 On ch=1 n=f#4 v=70
43374 On ch=1 n=f#3 v=74
43380 On ch=1 n=a#4 v=0
43428 On ch=1 n=g#4 v=0
43466 On ch=1 n=d4 v=0
43778 On ch=1 n=b2 v=69
43782 On ch=1 n=a#4 v=85
43796 On ch=1 n=g#4 v=76
43826 On ch=1 n=f#4 v=0
43874 On ch=1 n=d5 v=0
44212 On ch=1 n=d5 v=94
44362 Par ch=1 c=64 v=63
44416 Par ch=1 c=64 v=127
44510 On ch=1 n=f#3 v=0
44664 On ch=1 n=f#4 v=62
44672 On ch=1 n=f#3 v=52
44726 On ch=1 n=a#4 v=0
44736 On ch=1 n=g#4 v=0
44836 On ch=1 n=b2 v=0
45114 On ch=1 n=d4 v=71
45124 On ch=1 n=g#4 v=63
45206 On ch=1 n=f#4 v=0
45632 On ch=1 n=a#4 v=80
45862 On ch=1 n=g#4 v=0
45894 On ch=1 n=d5 v=0
46226 On ch=1 n=d5 v=59
46542 On ch=1 n=a#4 v=0
46580 On ch=1 n=d5 v=0
46916 On ch=1 n=a#5 v=56
46988 On ch=1 n=d4 v=0
47524 On ch=1 n=f#3 v=0
47910 On ch=1 n=g#2 v=49
47980 On ch=1 n=a#6 v=82
48114 Par ch=1 c=64 v=63
48156 Par ch=1 c=64 v=0
48198 Par ch=1 c=64 v=63
48228 Par ch=1 c=64 v=127
48350 On ch=1 n=g#2 v=0
48456 On ch=1 n=a#5 v=0
48874 On ch=1 n=a#5 v=35
48904 On ch=1 n=d5 v=38
48908 On ch=1 n=a#6 v=0
49238 On ch=1 n=a#6 v=91
49370 On ch=1 n=a#5 v=0
49460 On ch=1 n=d5 v=0
49490 On ch=1 n=f#5 v=67
49516 On ch=1 n=d#5 v=72
49628 On ch=1 n=f#5 v=0
49656 On ch=1 n=d#5 v=0
49956 On ch=1 n=a#6 v=0
50014 On ch=1 n=d#4 v=57
50042 On ch=1 n=g#3 v=29
50050 On ch=1 n=d#4 v=0
50080 On ch=1 n=g#3 v=0
50492 On ch=1 n=a#5 v=53
50496 On ch=1 n=d5 v=45
50882 On ch=1 n=d5 v=0
50920 On ch=1 n=d#5 v=47
50930 On ch=1 n=f#5 v=52
51054 On ch=1 n=d#5 v=0
51142 On ch=1 n=f#5 v=0
51150 On ch=1 n=a#5 v=0
51472 On ch=1 n=a#6 v=70
51958 On ch=1 n=a#5 v=35
51960 On ch=1 n=d5 v=45
51962 On ch=1 n=a#6 v=0
52170 On ch=1 n=a#6 v=88
52278 On ch=1 n=a#5 v=0
52374 On ch=1 n=f#5 v=65
52394 On ch=1 n=d5 v=0
52396 On ch=1 n=d#5 v=67
52926 On ch=1 n=f#5 v=0
52932 On ch=1 n=d#5 v=0
53230 On ch=1 n=a#5 v=58
53232 On ch=1 n=d5 v=60
53668 On ch=1 n=f#5 v=73
53686 On ch=1 n=d#5 v=72
53702 On ch=1 n=d5 v=0
53762 On ch=1 n=a#5 v=0
54092 On ch=1 n=a#6 v=0
54304 On ch=1 n=f#5 v=0
54322 On ch=1 n=d#5 v=0
54754 On ch=1 n=f#6 v=80
54758 On ch=1 n=a#5 v=58
54798 On ch=1 n=d5 v=30
54862 On ch=1 n=f#6 v=0
54864 On ch=1 n=c#7 v=74
54928 On ch=1 n=f7 v=73
54988 On ch=1 n=c#7 v=0
55052 On ch=1 n=d#7 v=101
55070 On ch=1 n=f7 v=0
55144 On ch=1 n=a#6 v=101
55174 On ch=1 n=f#5 v=76
55178 On ch=1 n=d#7 v=0
55192 On ch=1 n=d#5 v=76
55200 On ch=1 n=a#5 v=0
55208 On ch=1 n=d5 v=0
55232 On ch=1 n=a#6 v=0
55356 On ch=1 n=f#5 v=0
55394 On ch=1 n=d#5 v=0
55548 On ch=1 n=d#6 v=95
55684 On ch=1 n=d#6 v=0
55710 On ch=1 n=a#3 v=82
55728 On ch=1 n=f4 v=76
55730 On ch=1 n=g#6 v=103
55746 Par ch=1 c=64 v=63
55758 Par ch=1 c=64 v=0
55818 Par ch=1 c=64 v=63
55844 Par ch=1 c=64 v=127
56010 On ch=1 n=g#6 v=0
56308 On ch=1 n=b5 v=76
56328 On ch=1 n=e5 v=51
56776 On ch=1 n=g#5 v=55
56778 On ch=1 n=e5 v=0
56804 On ch=1 n=f5 v=46
57034 On ch=1 n=a#3 v=0
57266 On ch=1 n=f5 v=0
57282 On ch=1 n=b5 v=0
57284 On ch=1 n=d#4 v=82
57288 On ch=1 n=f4 v=0
57292 On ch=1 n=g#3 v=79
57554 On ch=1 n=g#5 v=0
57914 On ch=1 n=a#5 v=58
57918 On ch=1 n=d5 v=57
58004 Par ch=1 c=64 v=63
58058 Par ch=1 c=64 v=0
58112 Par ch=1 c=64 v=63
58138 Par ch=1 c=64 v=127
58446 On ch=1 n=d#5 v=55
58452 On ch=1 n=f#5 v=65
58478 On ch=1 n=d5 v=0
58628 On ch=1 n=g#3 v=0
58656 On ch=1 n=d#4 v=0
58752 On ch=1 n=d#5 v=0
58840 On ch=1 n=f#5 v=0
58846 On ch=1 n=a#5 v=0
59412 On ch=1 n=a#6 v=88
59430 On ch=1 n=a#5 v=45
59438 On ch=1 n=d5 v=43
59510 On ch=1 n=c#7 v=87
59514 On ch=1 n=a#6 v=0
59582 On ch=1 n=f7 v=73
59600 On ch=1 n=c#7 v=0
59696 On ch=1 n=d#7 v=99
59718 On ch=1 n=f7 v=0
59782 On ch=1 n=a#6 v=101
59794 On ch=1 n=f#5 v=61
59796 On ch=1 n=d#7 v=0
59808 On ch=1 n=d#5 v=61
59810 On ch=1 n=d5 v=0
59812 On ch=1 n=a#5 v=0
59862 On ch=1 n=a#6 v=0
59976 On ch=1 n=f#5 v=0
60018 On ch=1 n=d#5 v=0
60142 On ch=1 n=d#6 v=94
60270 On ch=1 n=d#6 v=0
60276 On ch=1 n=g#6 v=101
60300 On ch=1 n=a#3 v=56
60324 On ch=1 n=f4 v=63
60380 Par ch=1 c=64 v=63
60454 Par ch=1 c=64 v=127
60664 On ch=1 n=g#6 v=0
60914 On ch=1 n=b5 v=65
60934 On ch=1 n=e5 v=42
61368 On ch=1 n=b5 v=0
61482 On ch=1 n=g#5 v=47
61512 On ch=1 n=f5 v=39
61520 On ch=1 n=e5 v=0
61624 On ch=1 n=a#3 v=0
61842 On ch=1 n=f4 v=0
61852 On ch=1 n=f5 v=0
61984 On ch=1 n=d#4 v=53
61986 On ch=1 n=g#5 v=0
62004 On ch=1 n=g#3 v=50
62222 Par ch=1 c=64 v=63
62300 Par ch=1 c=64 v=127
62556 On ch=1 n=a#5 v=54
62572 On ch=1 n=d5 v=45
63254 On ch=1 n=d#5 v=36
63264 On ch=1 n=f#5 v=38
63280 On ch=1 n=g#3 v=0
63282 On ch=1 n=d5 v=0
63304 On ch=1 n=d#4 v=0
63358 On ch=1 n=a#5 v=0
64014 On ch=1 n=f#3 v=40
64044 On ch=1 n=f#5 v=0
64060 Par ch=1 c=64 v=63
64102 On ch=1 n=c#4 v=55
64128 Par ch=1 c=64 v=127
64176 On ch=1 n=d#5 v=0
64184 On ch=1 n=a#4 v=55
64238 On ch=1 n=f#3 v=0
64244 On ch=1 n=c#4 v=0
64338 On ch=1 n=e5 v=57
64416 On ch=1 n=g5 v=63
64556 On ch=1 n=d#6 v=99
64630 On ch=1 n=d#6 v=0
64790 On ch=1 n=a#4 v=0
65206 On ch=1 n=g5 v=0
65250 On ch=1 n=e5 v=0
65276 On ch=1 n=c#5 v=67
65304 On ch=1 n=a5 v=24
65358 On ch=1 n=c#5 v=0
65398 On ch=1 n=a5 v=0
65638 On ch=1 n=d#6 v=96
65876 On ch=1 n=a#4 v=63
65884 On ch=1 n=g5 v=57
66378 On ch=1 n=g5 v=0
66830 On ch=1 n=a#4 v=0
66852 On ch=1 n=a5 v=65
66864 On ch=1 n=c#5 v=60
67090 On ch=1 n=a5 v=0
67156 On ch=1 n=c#5 v=0
67316 On ch=1 n=g5 v=81
67330 On ch=1 n=a#4 v=70
67348 On ch=1 n=d#6 v=0
67774 On ch=1 n=d#6 v=104
67924 On ch=1 n=g5 v=0
68218 On ch=1 n=a#4 v=0
68268 On ch=1 n=a5 v=75
68280 On ch=1 n=c#5 v=73
68308 On ch=1 n=d#6 v=0
68470 On ch=1 n=d#6 v=106
68516 On ch=1 n=a5 v=0
68586 On ch=1 n=c#5 v=0
68672 On ch=1 n=a#4 v=63
68672 On ch=1 n=g5 v=57
69310 On ch=1 n=g5 v=0
69718 On ch=1 n=c#5 v=27
69720 On ch=1 n=a#4 v=0
69720 On ch=1 n=a5 v=40
70028 On ch=1 n=a5 v=0
70280 On ch=1 n=c#5 v=0
70362 On ch=1 n=g5 v=33
70366 On ch=1 n=a#4 v=32
70440 On ch=1 n=g5 v=0
70464 On ch=1 n=a#4 v=0
71152 On ch=1 n=f#3 v=29
71180 On ch=1 n=f#2 v=38
71226 On ch=1 n=d#6 v=0
71300 On ch=1 n=f#3 v=0
71306 On ch=1 n=f#2 v=0
71948 On ch=1 n=c#4 v=44
71954 On ch=1 n=a5 v=36
71982 On ch=1 n=e5 v=27
72274 On ch=1 n=a5 v=0
72370 On ch=1 n=c#4 v=0
72394 On ch=1 n=e5 v=0
72544 On ch=1 n=a#4 v=58
72552 On ch=1 n=g5 v=54
72568 On ch=1 n=e4 v=55
72650 On ch=1 n=e4 v=0
72898 On ch=1 n=a#4 v=0
73060 On ch=1 n=f#4 v=60
73086 On ch=1 n=g5 v=0
73174 On ch=1 n=f#4 v=0
73484 On ch=1 n=a5 v=54
73512 On ch=1 n=c#5 v=56
73530 On ch=1 n=e5 v=46
73594 On ch=1 n=c#5 v=0
73706 On ch=1 n=a5 v=0
73788 On ch=1 n=e5 v=0
73942 On ch=1 n=d#5 v=52
73948 On ch=1 n=a#4 v=63
73962 On ch=1 n=g5 v=61
74048 On ch=1 n=d#5 v=0
74078 On ch=1 n=a#4 v=0
74158 On ch=1 n=g5 v=0
74368 On ch=1 n=f#4 v=80
74782 On ch=1 n=c#5 v=85
74784 On ch=1 n=a6 v=74
74798 On ch=1 n=e6 v=75
74950 On ch=1 n=a6 v=0
75178 On ch=1 n=e6 v=0
75198 On ch=1 n=c#5 v=0
75198 On ch=1 n=f#4 v=0
75204 On ch=1 n=e5 v=63
75220 On ch=1 n=a#5 v=80
75222 On ch=1 n=g6 v=88
75270 On ch=1 n=e5 v=0
75450 On ch=1 n=a#5 v=0
75618 On ch=1 n=f#5 v=80
75686 On ch=1 n=g6 v=0
75980 On ch=1 n=a6 v=75
76010 On ch=1 n=e6 v=68
76016 On ch=1 n=c#6 v=72
76162 On ch=1 n=a6 v=0
76176 On ch=1 n=c#6 v=0
76314 On ch=1 n=e6 v=0
76478 On ch=1 n=g6 v=62
76486 On ch=1 n=a#5 v=48
76488 On ch=1 n=d#6 v=33
76530 On ch=1 n=f#5 v=0
76584 On ch=1 n=d#6 v=0
76820 Par ch=1 c=67 v=127
76964 On ch=1 n=f#5 v=76
77028 On ch=1 n=a#5 v=0
77282 On ch=1 n=g6 v=0
77456 On ch=1 n=c#6 v=65
77590 Par ch=1 c=64 v=63
77592 Par ch=1 c=64 v=127
77644 On ch=1 n=f#5 v=0
77662 On ch=1 n=a6 v=65
77676 On ch=1 n=e6 v=52
77762 On ch=1 n=c#6 v=0
77784 On ch=1 n=e6 v=0
77860 On ch=1 n=a6 v=0
77866 On ch=1 n=d#6 v=72
77904 On ch=1 n=d#6 v=0
78040 On ch=1 n=a#5 v=71
78044 On ch=1 n=g6 v=66
78116 On ch=1 n=a#5 v=0
78186 On ch=1 n=g6 v=0
78248 On ch=1 n=a#6 v=88
78336 On ch=1 n=a#6 v=0
78454 On ch=1 n=a6 v=60
78458 On ch=1 n=e6 v=63
78546 On ch=1 n=e6 v=0
78628 On ch=1 n=c#6 v=96
78640 On ch=1 n=a6 v=0
78712 On ch=1 n=c#6 v=0
78802 On ch=1 n=a#6 v=94
78822 On ch=1 n=g6 v=78
78822 On ch=1 n=a#5 v=74
78900 On ch=1 n=a#6 v=0
78952 On ch=1 n=a#5 v=0
79002 On ch=1 n=g6 v=0
79004 On ch=1 n=d#6 v=107
79080 On ch=1 n=d#6 v=0
79196 On ch=1 n=a6 v=88
79202 On ch=1 n=e6 v=90
79324 On ch=1 n=e6 v=0
79378 On ch=1 n=a6 v=0
79404 On ch=1 n=f#5 v=105
79472 On ch=1 n=f#5 v=0
79574 On ch=1 n=a#5 v=92
79580 On ch=1 n=g6 v=76
79708 On ch=1 n=a#5 v=0
79762 On ch=1 n=g6 v=0
79786 On ch=1 n=c#6 v=109
79842 On ch=1 n=c#6 v=0
79952 On ch=1 n=a6 v=92
79962 On ch=1 n=e6 v=92
80076 On ch=1 n=e6 v=0
80092 On ch=1 n=a6 v=0
80154 On ch=1 n=d#6 v=110
80204 On ch=1 n=d#6 v=0
80322 On ch=1 n=a#5 v=101
80322 On ch=1 n=g6 v=81
80402 On ch=1 n=a#5 v=0
80456 On ch=1 n=g6 v=0
80528 On ch=1 n=a#6 v=116
80612 On ch=1 n=a#6 v=0
80700 On ch=1 n=a6 v=93
80706 On ch=1 n=e6 v=90
80824 On ch=1 n=e6 v=0
80862 On ch=1 n=a6 v=0
80902 On ch=1 n=c#6 v=113
80964 On ch=1 n=c#6 v=0
81070 On ch=1 n=a#5 v=90
81078 On ch=1 n=g6 v=71
81092 On ch=1 n=a#6 v=105
81166 On ch=1 n=a#6 v=0
81182 On ch=1 n=a#5 v=0
81262 On ch=1 n=g6 v=0
81290 On ch=1 n=d#6 v=104
81376 On ch=1 n=d#6 v=0
81470 On ch=1 n=a6 v=88
81472 On ch=1 n=e6 v=85
81538 On ch=1 n=e6 v=0
81580 On ch=1 n=a6 v=0
81656 On ch=1 n=c#6 v=83
81822 On ch=1 n=g6 v=58
81844 On ch=1 n=c#6 v=0
81940 On ch=1 n=a#6 v=70
81968 On ch=1 n=g6 v=0
82014 On ch=1 n=a#6 v=0
82056 On ch=1 n=d#6 v=96
82248 On ch=1 n=c#7 v=86
82254 On ch=1 n=a6 v=65
82318 On ch=1 n=c#7 v=0
82334 On ch=1 n=a6 v=0
82334 On ch=1 n=d#6 v=0
82448 On ch=1 n=c#6 v=99
82456 Par ch=1 c=64 v=63
82512 Par ch=1 c=64 v=127
82588 On ch=1 n=g6 v=75
82692 On ch=1 n=c#6 v=0
82728 On ch=1 n=a#6 v=80
82742 On ch=1 n=g6 v=0
82796 On ch=1 n=a#6 v=0
82830 On ch=1 n=d#6 v=113
83032 On ch=1 n=c#7 v=108
83034 On ch=1 n=a6 v=87
83116 On ch=1 n=d#6 v=0
83122 On ch=1 n=c#7 v=0
83130 On ch=1 n=a6 v=0
83230 On ch=1 n=c#6 v=109
83364 On ch=1 n=g6 v=79
83456 On ch=1 n=a#6 v=95
83466 On ch=1 n=c#6 v=0
83512 On ch=1 n=g6 v=0
83556 On ch=1 n=a#6 v=0
83596 On ch=1 n=d#6 v=118
83776 On ch=1 n=a6 v=98
83778 On ch=1 n=c#7 v=114
83862 On ch=1 n=c#7 v=0
83872 On ch=1 n=a6 v=0
83892 On ch=1 n=d#6 v=0
83922 Par ch=1 c=67 v=0
83986 On ch=1 n=c#6 v=110
84110 On ch=1 n=g6 v=78
84188 On ch=1 n=a7 v=121
84194 On ch=1 n=e7 v=116
84216 On ch=1 n=c#6 v=0
84222 On ch=1 n=a#6 v=87
84242 On ch=1 n=e7 v=0
84256 On ch=1 n=g6 v=0
84262 On ch=1 n=a7 v=0
84292 On ch=1 n=a6 v=114
84304 On ch=1 n=a#6 v=0
84362 On ch=1 n=d#6 v=114
84450 On ch=1 n=a6 v=0
84468 On ch=1 n=g7 v=122
84470 On ch=1 n=c8 v=124
84476 On ch=1 n=c7 v=116
84554 On ch=1 n=a6 v=88
84556 On ch=1 n=c#7 v=103
84630 On ch=1 n=c#7 v=0
84636 On ch=1 n=a6 v=0
84658 On ch=1 n=d#6 v=0
84690 On ch=1 n=c8 v=0
84700 On ch=1 n=g7 v=0
84740 On ch=1 n=c7 v=0
84764 On ch=1 n=c#6 v=107
84886 On ch=1 n=g6 v=72
84962 On ch=1 n=f#5 v=124
84992 On ch=1 n=a#6 v=94
85006 On ch=1 n=c#6 v=0
85020 On ch=1 n=g6 v=0
85062 On ch=1 n=a#6 v=0
85122 On ch=1 n=d#6 v=116
85310 On ch=1 n=a6 v=98
85312 On ch=1 n=c#7 v=110
85392 On ch=1 n=a6 v=0
85396 On ch=1 n=d#6 v=0
85402 On ch=1 n=c#7 v=0
85522 On ch=1 n=c#6 v=113
85656 On ch=1 n=g6 v=76
85764 On ch=1 n=a#6 v=103
85770 On ch=1 n=c#6 v=0
85804 On ch=1 n=g6 v=0
85840 On ch=1 n=a#6 v=0
85900 On ch=1 n=d#6 v=116
86050 On ch=1 n=f#5 v=0
86082 On ch=1 n=a6 v=82
86084 On ch=1 n=c#7 v=92
86144 On ch=1 n=c#7 v=0
86146 On ch=1 n=d#6 v=0
86150 On ch=1 n=a6 v=0
86296 On ch=1 n=c#6 v=62
86410 On ch=1 n=g6 v=50
86442 On ch=1 n=c#6 v=0
86492 On ch=1 n=a#6 v=73
86510 On ch=1 n=a7 v=84
86526 On ch=1 n=e7 v=63
86528 On ch=1 n=g6 v=0
86594 On ch=1 n=e7 v=0
86594 On ch=1 n=a7 v=0
86598 On ch=1 n=a#6 v=0
86628 On ch=1 n=a6 v=53
86660 On ch=1 n=d#6 v=92
86758 On ch=1 n=c8 v=98
86764 On ch=1 n=d#6 v=0
86766 On ch=1 n=g7 v=84
86826 On ch=1 n=a6 v=0
86836 On ch=1 n=c7 v=65
86852 On ch=1 n=c#7 v=73
86852 On ch=1 n=a6 v=70
86928 On ch=1 n=c#7 v=0
86930 On ch=1 n=a6 v=0
86956 On ch=1 n=c8 v=0
86968 On ch=1 n=g7 v=0
87026 On ch=1 n=c7 v=0
87068 On ch=1 n=c#6 v=82
87168 On ch=1 n=g6 v=46
87208 On ch=1 n=c#6 v=0
87256 On ch=1 n=a#6 v=76
87282 On ch=1 n=g6 v=0
87338 On ch=1 n=a#6 v=0
87400 On ch=1 n=f#5 v=86
87414 On ch=1 n=d#6 v=107
87602 On ch=1 n=c#7 v=85
87610 On ch=1 n=a6 v=73
87658 On ch=1 n=c#7 v=0
87678 On ch=1 n=a6 v=0
87682 On ch=1 n=d#6 v=0
87812 On ch=1 n=c#6 v=99
87928 On ch=1 n=g6 v=64
88036 On ch=1 n=a#6 v=88
88042 On ch=1 n=c#6 v=0
88072 On ch=1 n=g6 v=0
88106 On ch=1 n=a#6 v=0
88172 On ch=1 n=d#6 v=110
88354 On ch=1 n=c#7 v=98
88356 On ch=1 n=a6 v=84
88418 On ch=1 n=c#7 v=0
88430 On ch=1 n=d#6 v=0
88434 On ch=1 n=a6 v=0
88564 On ch=1 n=c#6 v=104
88684 On ch=1 n=g6 v=76
88784 On ch=1 n=c#6 v=0
88788 On ch=1 n=a#6 v=92
88818 On ch=1 n=g6 v=0
88860 On ch=1 n=a#6 v=0
88920 On ch=1 n=d#6 v=116
89108 On ch=1 n=a6 v=89
89110 On ch=1 n=c#7 v=108
89186 On ch=1 n=c#7 v=0
89196 On ch=1 n=a6 v=0
89204 On ch=1 n=d#6 v=0
89304 On ch=1 n=c#6 v=110
89436 On ch=1 n=g6 v=71
89494 On ch=1 n=c#6 v=0
89520 On ch=1 n=f#5 v=0
89530 On ch=1 n=a#6 v=97
89562 On ch=1 n=g6 v=0
89598 On ch=1 n=a#6 v=0
89640 On ch=1 n=d#6 v=119
89826 On ch=1 n=a6 v=92
89830 On ch=1 n=c#7 v=113
89914 On ch=1 n=c#7 v=0
89918 On ch=1 n=a6 v=0
89936 On ch=1 n=d#6 v=0
90034 On ch=1 n=c#6 v=114
90148 On ch=1 n=g6 v=88
90246 On ch=1 n=a#6 v=113
90256 On ch=1 n=c#6 v=0
90298 On ch=1 n=g6 v=0
90338 On ch=1 n=a#6 v=0
90378 On ch=1 n=d#6 v=120
90586 On ch=1 n=a6 v=98
90592 On ch=1 n=c#7 v=126
90668 On ch=1 n=c#7 v=0
90686 On ch=1 n=a6 v=0
90720 On ch=1 n=d#6 v=0
90880 On ch=1 n=e5 v=127
90882 On ch=1 n=e7 v=89
90882 On ch=1 n=f7 v=101
90890 On ch=1 n=g#7 v=113
90902 Par ch=1 c=64 v=127
90932 On ch=1 n=e8 v=116
90940 On ch=1 n=e7 v=0
90950 On ch=1 n=f7 v=0
90976 On ch=1 n=g#7 v=0
91058 On ch=1 n=e8 v=0
91128 On ch=1 n=e8 v=122
91138 On ch=1 n=g#5 v=100
91210 On ch=1 n=e8 v=0
91250 On ch=1 n=e5 v=0
91258 On ch=1 n=e8 v=117
91276 On ch=1 n=b5 v=90
91332 On ch=1 n=e8 v=0
91336 On ch=1 n=g#5 v=0
91378 On ch=1 n=e6 v=99
91382 On ch=1 n=e8 v=114
91386 On ch=1 n=b5 v=0
91438 On ch=1 n=e8 v=0
91458 On ch=1 n=e8 v=106
91474 On ch=1 n=e6 v=0
91516 On ch=1 n=f6 v=109
91526 On ch=1 n=e8 v=0
91624 On ch=1 n=g#6 v=114
91704 On ch=1 n=f7 v=118
91740 On ch=1 n=g#6 v=0
91760 On ch=1 n=f7 v=0
91766 On ch=1 n=f6 v=0
91778 On ch=1 n=g#6 v=99
91862 On ch=1 n=g#6 v=0
91894 On ch=1 n=e6 v=107
91988 On ch=1 n=b5 v=104
92006 On ch=1 n=e6 v=0
92062 On ch=1 n=g#5 v=106
92094 On ch=1 n=b5 v=0
92158 On ch=1 n=e5 v=118
92182 On ch=1 n=g#5 v=0
92224 On ch=1 n=e5 v=0
92406 On ch=1 n=g6 v=113
92406 On ch=1 n=b5 v=97
92408 On ch=1 n=d6 v=107
92408 Par ch=1 c=64 v=63
92414 On ch=1 n=g5 v=84
92426 Par ch=1 c=64 v=0
92458 Par ch=1 c=64 v=63
92472 Par ch=1 c=64 v=127
92594 On ch=1 n=g#6 v=112
92628 On ch=1 n=g6 v=0
92630 On ch=1 n=d6 v=0
92632 On ch=1 n=b5 v=0
92636 On ch=1 n=g5 v=0
92654 On ch=1 n=g#6 v=0
92690 On ch=1 n=g7 v=104
92690 On ch=1 n=b6 v=74
92702 On ch=1 n=d#7 v=72
92730 On ch=1 n=d#7 v=0
92752 On ch=1 n=g#6 v=105
92760 On ch=1 n=g7 v=0
92778 On ch=1 n=b6 v=0
92818 On ch=1 n=g#6 v=0
92836 On ch=1 n=b5 v=113
92836 On ch=1 n=e5 v=109
92836 On ch=1 n=e6 v=120
92838 On ch=1 n=g#5 v=109
92898 On ch=1 n=b5 v=0
92902 On ch=1 n=g#5 v=0
92904 On ch=1 n=f6 v=96
92906 On ch=1 n=e5 v=0
92922 On ch=1 n=e6 v=0
92970 On ch=1 n=f6 v=0
92996 On ch=1 n=g#6 v=95
93006 On ch=1 n=e7 v=84
93044 On ch=1 n=f6 v=107
93078 On ch=1 n=e7 v=0
93084 On ch=1 n=g#6 v=0
93106 On ch=1 n=f6 v=0
93176 On ch=1 n=a5 v=99
93180 On ch=1 n=a6 v=117
93182 On ch=1 n=e6 v=108
93184 On ch=1 n=c#6 v=106
93190 Par ch=1 c=64 v=63
93208 Par ch=1 c=64 v=127
93294 On ch=1 n=a#6 v=103
93296 On ch=1 n=e6 v=0
93296 On ch=1 n=a6 v=0
93302 On ch=1 n=c#6 v=0
93320 On ch=1 n=a5 v=0
93372 On ch=1 n=a#6 v=0
93398 On ch=1 n=a7 v=106
93422 On ch=1 n=d7 v=76
93466 On ch=1 n=a#6 v=89
93472 On ch=1 n=a7 v=0
93484 On ch=1 n=d7 v=0
93524 On ch=1 n=a#6 v=0
93550 On ch=1 n=b5 v=114
93552 On ch=1 n=e5 v=104
93552 On ch=1 n=g#5 v=106
93552 On ch=1 n=e6 v=117
93602 On ch=1 n=g#5 v=0
93610 On ch=1 n=e5 v=0
93612 On ch=1 n=b5 v=0
93616 On ch=1 n=e6 v=0
93648 On ch=1 n=f6 v=97
93718 On ch=1 n=f6 v=0
93736 On ch=1 n=g#6 v=103
93746 On ch=1 n=e7 v=90
93786 On ch=1 n=f6 v=101
93804 On ch=1 n=e7 v=0
93822 On ch=1 n=g#6 v=0
93842 On ch=1 n=f6 v=0
93872 Par ch=1 c=64 v=63
93882 Par ch=1 c=64 v=0
93894 On ch=1 n=b5 v=87
93908 On ch=1 n=b6 v=118
93912 On ch=1 n=d#6 v=106
93916 On ch=1 n=f#6 v=108
93936 Par ch=1 c=64 v=63
93948 Par ch=1 c=64 v=127
94080 On ch=1 n=c7 v=114
94124 On ch=1 n=f#6 v=0
94128 On ch=1 n=d#6 v=0
94134 On ch=1 n=b6 v=0
94156 On ch=1 n=b5 v=0
94158 On ch=1 n=c7 v=0
94202 On ch=1 n=d#7 v=110
94208 On ch=1 n=f#7 v=105
94216 On ch=1 n=b7 v=92
94300 On ch=1 n=c7 v=99
94304 On ch=1 n=b7 v=0
94308 On ch=1 n=f#7 v=0
94318 On ch=1 n=d#7 v=0
94338 On ch=1 n=c7 v=0
94384 On ch=1 n=a5 v=103
94386 On ch=1 n=a6 v=117
94388 On ch=1 n=e6 v=112
94390 On ch=1 n=c#6 v=107
94466 On ch=1 n=c#6 v=0
94468 On ch=1 n=e6 v=0
94472 On ch=1 n=a5 v=0
94478 On ch=1 n=a#6 v=106
94492 On ch=1 n=a6 v=0
94556 On ch=1 n=e7 v=91
94562 On ch=1 n=c#7 v=76
94564 On ch=1 n=a#6 v=0
94572 On ch=1 n=a7 v=84
94626 On ch=1 n=a#6 v=100
94642 On ch=1 n=a7 v=0
94642 On ch=1 n=e7 v=0
94664 On ch=1 n=c#7 v=0
94688 On ch=1 n=a#6 v=0
94714 On ch=1 n=b5 v=94
94716 On ch=1 n=b6 v=114
94718 On ch=1 n=d#6 v=107
94720 On ch=1 n=f#6 v=108
94786 On ch=1 n=f#6 v=0
94798 On ch=1 n=b6 v=0
94800 On ch=1 n=d#6 v=0
94814 On ch=1 n=c7 v=106
94816 On ch=1 n=b5 v=0
94884 On ch=1 n=c7 v=0
94900 On ch=1 n=f#7 v=101
94902 On ch=1 n=b7 v=94
94910 On ch=1 n=d#7 v=78
94964 On ch=1 n=b7 v=0
94972 On ch=1 n=c7 v=84
94980 On ch=1 n=f#7 v=0
94988 On ch=1 n=d#7 v=0
95006 On ch=1 n=c7 v=0
95062 On ch=1 n=a6 v=114
95062 On ch=1 n=a5 v=100
95064 On ch=1 n=e6 v=108
95066 On ch=1 n=c#6 v=103
95124 On ch=1 n=e6 v=0
95128 On ch=1 n=a6 v=0
95134 On ch=1 n=c#6 v=0
95138 On ch=1 n=a#6 v=107
95142 On ch=1 n=a5 v=0
95218 On ch=1 n=a#6 v=0
95226 On ch=1 n=e7 v=90
95230 On ch=1 n=c#7 v=70
95238 On ch=1 n=a7 v=79
95300 On ch=1 n=a#6 v=104
95304 On ch=1 n=e7 v=0
95312 On ch=1 n=a7 v=0
95330 On ch=1 n=c#7 v=0
95360 On ch=1 n=a#6 v=0
95390 On ch=1 n=g6 v=116
95392 On ch=1 n=b5 v=100
95394 On ch=1 n=g5 v=96
95394 On ch=1 n=d6 v=104
95410 On ch=1 n=d#7 v=64
95454 On ch=1 n=d6 v=0
95460 On ch=1 n=g6 v=0
95468 On ch=1 n=d#7 v=0
95468 On ch=1 n=b5 v=0
95486 On ch=1 n=g5 v=0
95490 On ch=1 n=g#6 v=105
95576 On ch=1 n=g#6 v=0
95580 On ch=1 n=b6 v=67
95582 On ch=1 n=d7 v=89
95592 On ch=1 n=g7 v=82
95646 On ch=1 n=g7 v=0
95646 On ch=1 n=g#6 v=104
95662 On ch=1 n=d7 v=0
95674 On ch=1 n=b6 v=0
95716 On ch=1 n=g#6 v=0
95734 On ch=1 n=e6 v=117
95734 On ch=1 n=b5 v=109
95736 On ch=1 n=e5 v=106
95736 On ch=1 n=g#5 v=105
95790 On ch=1 n=e6 v=0
95798 On ch=1 n=b5 v=0
95810 On ch=1 n=g#5 v=0
95824 On ch=1 n=f6 v=87
95832 On ch=1 n=e5 v=0
95900 On ch=1 n=f6 v=0
95908 On ch=1 n=g#6 v=79
95908 On ch=1 n=a#6 v=48
95914 On ch=1 n=b6 v=91
95926 On ch=1 n=e7 v=80
95948 On ch=1 n=a#6 v=0
95978 On ch=1 n=f6 v=98
95982 On ch=1 n=b6 v=0
95990 On ch=1 n=e7 v=0
96010 On ch=1 n=g#6 v=0
96034 On ch=1 n=f6 v=0
96070 On ch=1 n=b4 v=100
96074 On ch=1 n=b5 v=114
96076 Par ch=1 c=64 v=63
96076 On ch=1 n=f#5 v=110
96078 On ch=1 n=d#5 v=110
96096 Par ch=1 c=64 v=0
96122 Par ch=1 c=64 v=63
96138 Par ch=1 c=64 v=127
96154 On ch=1 n=c6 v=94
96180 On ch=1 n=b5 v=0
96184 On ch=1 n=f#5 v=0
96188 On ch=1 n=d#5 v=0
96190 On ch=1 n=b4 v=0
96228 On ch=1 n=c6 v=0
96246 On ch=1 n=d#6 v=99
96248 On ch=1 n=b6 v=90
96248 On ch=1 n=f#6 v=92
96314 On ch=1 n=b6 v=0
96316 On ch=1 n=c6 v=85
96320 On ch=1 n=f#6 v=0
96332 On ch=1 n=d#6 v=0
96352 On ch=1 n=c6 v=0
96406 On ch=1 n=a5 v=114
96408 On ch=1 n=e5 v=108
96408 On ch=1 n=a4 v=100
96410 On ch=1 n=c#5 v=104
96476 On ch=1 n=a#5 v=99
96478 On ch=1 n=c#5 v=0
96478 On ch=1 n=e5 v=0
96488 On ch=1 n=a4 v=0
96494 On ch=1 n=a5 v=0
96552 On ch=1 n=a#5 v=0
96554 On ch=1 n=c#6 v=72
96560 On ch=1 n=e6 v=78
96578 On ch=1 n=a6 v=74
96626 On ch=1 n=a#5 v=104
96638 On ch=1 n=e6 v=0
96644 On ch=1 n=a6 v=0
96666 On ch=1 n=c#6 v=0
96692 On ch=1 n=a#5 v=0
96722 On ch=1 n=b4 v=96
96730 On ch=1 n=b5 v=114
96730 On ch=1 n=d#5 v=108
96730 On ch=1 n=f#5 v=109
96808 On ch=1 n=b5 v=0
96812 On ch=1 n=f#5 v=0
96820 On ch=1 n=d#5 v=0
96824 On ch=1 n=c6 v=93
96830 On ch=1 n=b4 v=0
96890 On ch=1 n=c6 v=0
96912 On ch=1 n=b6 v=83
96912 On ch=1 n=f#6 v=88
96914 On ch=1 n=d#6 v=85
96974 On ch=1 n=c6 v=92
96976 On ch=1 n=b6 v=0
96992 On ch=1 n=f#6 v=0
97002 On ch=1 n=d#6 v=0
97026 On ch=1 n=c6 v=0
97070 On ch=1 n=a4 v=98
97070 On ch=1 n=a5 v=112
97072 On ch=1 n=e5 v=108
97076 On ch=1 n=c#5 v=99
97138 On ch=1 n=a#5 v=110
97142 On ch=1 n=a5 v=0
97146 On ch=1 n=c#5 v=0
97146 On ch=1 n=e5 v=0
97160 On ch=1 n=a4 v=0
97214 On ch=1 n=a#5 v=0
97230 On ch=1 n=e6 v=87
97230 On ch=1 n=c#6 v=73
97248 On ch=1 n=a6 v=65
97296 On ch=1 n=a6 v=0
97298 On ch=1 n=a#5 v=101
97312 On ch=1 n=e6 v=0
97330 On ch=1 n=c#6 v=0
97360 On ch=1 n=a#5 v=0
97390 On ch=1 n=b4 v=101
97392 On ch=1 n=d5 v=109
97392 On ch=1 n=g5 v=112
97394 On ch=1 n=g4 v=98
97414 On ch=1 n=d#6 v=61
97462 On ch=1 n=g5 v=0
97462 On ch=1 n=d5 v=0
97464 Par ch=1 c=67 v=127
97478 On ch=1 n=b4 v=0
97480 On ch=1 n=g#5 v=95
97488 On ch=1 n=d#6 v=0
97488 On ch=1 n=g4 v=0
97572 On ch=1 n=g#5 v=0
97578 On ch=1 n=b5 v=70
97582 On ch=1 n=d6 v=77
97652 On ch=1 n=g#5 v=96
97668 On ch=1 n=d6 v=0
97680 On ch=1 n=b5 v=0
97718 On ch=1 n=g#5 v=0
97738 On ch=1 n=b4 v=109
97740 On ch=1 n=e5 v=102
97742 On ch=1 n=g#4 v=105
97742 On ch=1 n=e4 v=103
97748 On ch=1 n=d5 v=109
97796 Par ch=1 c=64 v=63
97834 Par ch=1 c=64 v=127
97840 On ch=1 n=f5 v=85
97868 On ch=1 n=d5 v=0
97886 On ch=1 n=e5 v=0
97896 On ch=1 n=b4 v=0
97906 On ch=1 n=g#4 v=0
97914 On ch=1 n=f5 v=0
97916 On ch=1 n=g#5 v=81
97922 On ch=1 n=b5 v=87
97934 On ch=1 n=e6 v=81
97938 On ch=1 n=e4 v=0
97996 On ch=1 n=b5 v=0
97996 On ch=1 n=f5 v=92
98000 On ch=1 n=e6 v=0
98024 On ch=1 n=g#5 v=0
98052 On ch=1 n=f5 v=0
98110 On ch=1 n=b4 v=113
98110 On ch=1 n=d#4 v=109
98112 On ch=1 n=f#4 v=109
98114 On ch=1 n=b3 v=103
98152 Par ch=1 c=64 v=63
98202 Par ch=1 c=64 v=127
98254 On ch=1 n=c5 v=90
98336 On ch=1 n=c5 v=0
98354 On ch=1 n=d#5 v=91
98356 On ch=1 n=f#5 v=95
98358 On ch=1 n=b4 v=0
98360 On ch=1 n=f#4 v=0
98368 On ch=1 n=b5 v=70
98382 On ch=1 n=d#4 v=0
98386 On ch=1 n=b3 v=0
98420 On ch=1 n=b5 v=0
98426 On ch=1 n=c5 v=91
98428 On ch=1 n=f#5 v=0
98456 On ch=1 n=d#5 v=0
98478 On ch=1 n=c5 v=0
98492 On ch=1 n=a4 v=113
98492 On ch=1 n=e4 v=109
98494 On ch=1 n=c#4 v=103
98574 On ch=1 n=a#4 v=98
98590 On ch=1 n=c#4 v=0
98594 On ch=1 n=e4 v=0
98612 On ch=1 n=a4 v=0
98654 On ch=1 n=c#5 v=75
98658 On ch=1 n=a#4 v=0
98658 On ch=1 n=e5 v=78
98672 On ch=1 n=a5 v=60
98722 On ch=1 n=a#4 v=96
98746 On ch=1 n=e5 v=0
98766 On ch=1 n=c#5 v=0
98784 On ch=1 n=a5 v=0
98798 On ch=1 n=a#4 v=0
98824 On ch=1 n=e4 v=112
98884 Par ch=1 c=64 v=63
98886 Par ch=1 c=64 v=127
98940 On ch=1 n=f4 v=90
99036 On ch=1 n=f4 v=0
99038 On ch=1 n=e5 v=86
99042 On ch=1 n=g#4 v=78
99044 On ch=1 n=b4 v=78
99080 On ch=1 n=e4 v=0
99104 On ch=1 n=f4 v=94
99120 On ch=1 n=e5 v=0
99126 On ch=1 n=b4 v=0
99142 On ch=1 n=g#4 v=0
99168 On ch=1 n=f4 v=0
99204 On ch=1 n=b3 v=116
99272 Par ch=1 c=64 v=63
99278 Par ch=1 c=64 v=0
99302 On ch=1 n=c4 v=52
99316 On ch=1 n=d4 v=53
99320 Par ch=1 c=64 v=63
99336 Par ch=1 c=64 v=127
99360 On ch=1 n=d4 v=0
99380 On ch=1 n=c4 v=0
99396 On ch=1 n=f#4 v=85
99398 On ch=1 n=d#4 v=80
99400 On ch=1 n=b4 v=76
99438 On ch=1 n=b3 v=0
99472 On ch=1 n=c4 v=88
99478 On ch=1 n=b4 v=0
99504 On ch=1 n=f#4 v=0
99514 On ch=1 n=d#4 v=0
99536 On ch=1 n=c4 v=0
99586 On ch=1 n=a3 v=108
99662 Par ch=1 c=64 v=63
99670 Par ch=1 c=64 v=0
99690 On ch=1 n=a#3 v=88
99694 Par ch=1 c=64 v=63
99714 Par ch=1 c=64 v=127
99784 On ch=1 n=c#4 v=69
99790 On ch=1 n=a3 v=0
99800 On ch=1 n=a#3 v=0
99800 On ch=1 n=a4 v=84
99876 On ch=1 n=a#3 v=88
99896 On ch=1 n=a4 v=0
99918 On ch=1 n=c#4 v=0
99962 On ch=1 n=a#3 v=0
100002 On ch=1 n=b3 v=102
100006 On ch=1 n=e3 v=89
100104 Par ch=1 c=64 v=63
100110 Par ch=1 c=64 v=0
100144 On ch=1 n=e4 v=76
100146 Par ch=1 c=64 v=63
100160 Par ch=1 c=64 v=127
100210 On ch=1 n=e3 v=0
100226 On ch=1 n=g#4 v=83
100232 On ch=1 n=e4 v=0
100254 On ch=1 n=b3 v=0
100300 On ch=1 n=e4 v=77
100332 On ch=1 n=g#4 v=0
100350 On ch=1 n=e4 v=0
100424 On ch=1 n=f4 v=99
100436 On ch=1 n=g3 v=84
100460 Par ch=1 c=64 v=63
100506 Par ch=1 c=64 v=127
100586 On ch=1 n=g3 v=0
100650 On ch=1 n=f4 v=0
100668 On ch=1 n=g4 v=45
100734 On ch=1 n=f4 v=64
100758 On ch=1 n=g4 v=0
100826 On ch=1 n=b3 v=89
100826 On ch=1 n=e3 v=76
100844 On ch=1 n=f4 v=0
100902 Par ch=1 c=64 v=63
100948 Par ch=1 c=64 v=127
100954 On ch=1 n=e4 v=70
101050 On ch=1 n=e4 v=0
101064 On ch=1 n=g#4 v=70
101066 On ch=1 n=e3 v=0
101112 On ch=1 n=b3 v=0
101150 On ch=1 n=e4 v=51
101220 On ch=1 n=e4 v=0
101234 On ch=1 n=g#4 v=0
101286 On ch=1 n=f4 v=88
101298 On ch=1 n=g3 v=71
101384 Par ch=1 c=64 v=63
101396 Par ch=1 c=64 v=0
101422 Par ch=1 c=64 v=63
101446 Par ch=1 c=64 v=127
101550 On ch=1 n=g3 v=0
101648 On ch=1 n=f4 v=0
101732 On ch=1 n=b3 v=57
101734 On ch=1 n=e3 v=65
101854 Par ch=1 c=64 v=63
101898 On ch=1 n=g4 v=80
101904 Par ch=1 c=64 v=127
101922 On ch=1 n=e3 v=0
101986 On ch=1 n=b3 v=0
102042 On ch=1 n=e4 v=59
102110 On ch=1 n=e4 v=0
102144 On ch=1 n=g4 v=0
102184 On ch=1 n=f4 v=65
102188 On ch=1 n=g3 v=63
102314 On ch=1 n=f4 v=0
102316 On ch=1 n=g#4 v=88
102332 On ch=1 n=g3 v=0
102446 On ch=1 n=f4 v=44
102616 On ch=1 n=f4 v=0
102638 On ch=1 n=b3 v=50
102640 On ch=1 n=e3 v=47
102682 Par ch=1 c=64 v=63
102692 Par ch=1 c=64 v=0
102718 Par ch=1 c=64 v=63
102742 Par ch=1 c=64 v=127
102768 On ch=1 n=g#4 v=0
102858 On ch=1 n=e3 v=0
102940 On ch=1 n=b3 v=0
103084 On ch=1 n=f4 v=61
103092 On ch=1 n=g3 v=51
103174 On ch=1 n=f4 v=0
103178 On ch=1 n=g3 v=0
103260 On ch=1 n=g4 v=38
103404 On ch=1 n=e4 v=21
103504 Par ch=1 c=64 v=63
103528 On ch=1 n=b3 v=53
103528 On ch=1 n=e3 v=49
103556 Par ch=1 c=64 v=127
103600 On ch=1 n=e4 v=0
103674 On ch=1 n=g#4 v=60
103710 On ch=1 n=e3 v=0
103756 On ch=1 n=b3 v=0
103758 On ch=1 n=g4 v=0
103874 On ch=1 n=e4 v=15
103954 On ch=1 n=e4 v=0
104000 On ch=1 n=f4 v=45
104010 On ch=1 n=g#4 v=0
104010 On ch=1 n=g3 v=34
104108 On ch=1 n=g3 v=0
104124 On ch=1 n=f4 v=0
104466 On ch=1 n=b3 v=36
104480 On ch=1 n=e3 v=27
104612 Par ch=1 c=64 v=63
104632 On ch=1 n=g4 v=50
104666 Par ch=1 c=64 v=127
104724 On ch=1 n=e3 v=0
104772 On ch=1 n=b3 v=0
104814 On ch=1 n=e4 v=34
104916 On ch=1 n=e4 v=0
104968 On ch=1 n=g4 v=0
105044 On ch=1 n=g3 v=29
105052 On ch=1 n=f4 v=14
105184 On ch=1 n=g3 v=0
105190 On ch=1 n=f4 v=0
105226 On ch=1 n=g#4 v=69
105430 On ch=1 n=f4 v=28
105750 On ch=1 n=b3 v=27
105770 On ch=1 n=e3 v=23
105868 Par ch=1 c=64 v=63
105960 On ch=1 n=f4 v=0
106008 Par ch=1 c=64 v=127
106500 On ch=1 n=g4 v=47
106542 Par ch=1 c=64 v=63
106582 Par ch=1 c=64 v=0
106666 Par ch=1 c=64 v=63
106694 Par ch=1 c=64 v=127
106762 On ch=1 n=g#4 v=0
107072 On ch=1 n=g#4 v=58
107256 Par ch=1 c=64 v=63
107284 Par ch=1 c=64 v=0
107398 Par ch=1 c=64 v=63
107418 Par ch=1 c=64 v=127
107470 On ch=1 n=g4 v=0
107868 On ch=1 n=e3 v=0
107896 On ch=1 n=b3 v=0
108158 On ch=1 n=g4 v=36
108312 On ch=1 n=g#4 v=0
108720 On ch=1 n=g#4 v=19
108874 On ch=1 n=g4 v=0
108968 Par ch=1 c=64 v=63
108996 Par ch=1 c=64 v=0
109386 Par ch=1 c=64 v=63
109396 Par ch=1 c=64 v=127
109828 On ch=1 n=g4 v=24
109838 Par ch=1 c=67 v=127
110066 On ch=1 n=g#4 v=0
110498 On ch=1 n=g#4 v=29
110802 On ch=1 n=g4 v=0
111388 On ch=1 n=b4 v=71
111842 On ch=1 n=g#4 v=0
112224 On ch=1 n=g4 v=39
112432 Par ch=1 c=64 v=63
112494 Par ch=1 c=64 v=127
112880 On ch=1 n=g#4 v=43
113474 On ch=1 n=g4 v=0
114144 On ch=1 n=g4 v=23
114308 On ch=1 n=g#4 v=0
114828 On ch=1 n=g#4 v=22
115008 On ch=1 n=g4 v=0
115724 On ch=1 n=c5 v=47
115940 On ch=1 n=b4 v=0
116490 On ch=1 n=g4 v=21
116614 On ch=1 n=g#4 v=0
117392 On ch=1 n=g#4 v=29
117632 On ch=1 n=g4 v=0
118514 On ch=1 n=c3 v=23
118656 On ch=1 n=g3 v=40
118686 Par ch=1 c=64 v=63
118716 Par ch=1 c=64 v=0
118726 On ch=1 n=c#5 v=85
118730 On ch=1 n=a4 v=41
118766 On ch=1 n=c5 v=0
118828 Par ch=1 c=64 v=63
118832 On ch=1 n=g#4 v=0
118844 Par ch=1 c=64 v=127
119044 On ch=1 n=c3 v=0
119094 On ch=1 n=g3 v=0
119770 On ch=1 n=a5 v=63
119784 On ch=1 n=a4 v=0
119798 On ch=1 n=a#4 v=38
119804 On ch=1 n=e5 v=64
119882 On ch=1 n=a5 v=0
120830 On ch=1 n=f#5 v=40
122194 On ch=1 n=a4 v=30
122384 On ch=1 n=a#4 v=0
122864 On ch=1 n=a#4 v=23
123378 On ch=1 n=a4 v=0
124112 On ch=1 n=a4 v=19
124306 On ch=1 n=a#4 v=0
124752 On ch=1 n=a#4 v=9
124956 On ch=1 n=a4 v=0
126178 On ch=1 n=a4 v=14
126290 On ch=1 n=a#4 v=0
126938 On ch=1 n=f#5 v=0
127082 On ch=1 n=a#4 v=11
127218 On ch=1 n=a4 v=0
127482 Par ch=1 c=64 v=63
127582 Par ch=1 c=64 v=127
127690 On ch=1 n=c#5 v=0
127696 On ch=1 n=e5 v=0
127974 On ch=1 n=a#4 v=0
128550 On ch=1 n=g3 v=22
128562 On ch=1 n=d4 v=34
128644 On ch=1 n=a6 v=57
128844 On ch=1 n=g3 v=0
128866 On ch=1 n=d4 v=0
129426 On ch=1 n=a5 v=39
129428 On ch=1 n=d5 v=38
129452 On ch=1 n=a4 v=6
129692 On ch=1 n=a6 v=0
129716 On ch=1 n=a5 v=0
129798 On ch=1 n=a6 v=47
130108 On ch=1 n=a#4 v=44
130120 On ch=1 n=f5 v=24
130154 On ch=1 n=a4 v=0
130248 On ch=1 n=d5 v=0
130804 On ch=1 n=f5 v=0
130966 On ch=1 n=a#4 v=0
131264 On ch=1 n=a5 v=47
131276 On ch=1 n=a4 v=8
131278 On ch=1 n=d5 v=43
131486 On ch=1 n=a5 v=0
131894 On ch=1 n=a#4 v=37
131918 On ch=1 n=f5 v=37
131956 On ch=1 n=a4 v=0
131984 On ch=1 n=d5 v=0
132128 On ch=1 n=a6 v=0
132528 On ch=1 n=a6 v=77
132572 On ch=1 n=f5 v=0
132882 On ch=1 n=a#4 v=0
133122 On ch=1 n=a5 v=40
133122 On ch=1 n=a4 v=34
133134 On ch=1 n=d5 v=61
133318 On ch=1 n=a6 v=0
133432 On ch=1 n=a5 v=0
133440 On ch=1 n=a6 v=56
133684 On ch=1 n=a#4 v=43
133690 On ch=1 n=f5 v=29
133700 On ch=1 n=a4 v=0
133720 On ch=1 n=d5 v=0
134340 On ch=1 n=f5 v=0
134376 On ch=1 n=a#4 v=0
134782 On ch=1 n=a5 v=40
134788 On ch=1 n=d5 v=50
134796 On ch=1 n=a4 v=16
135000 On ch=1 n=a5 v=0
135110 On ch=1 n=d5 v=0
135348 On ch=1 n=a4 v=0
135422 On ch=1 n=f5 v=26
135430 On ch=1 n=a#4 v=10
135926 On ch=1 n=a6 v=0
136094 On ch=1 n=f5 v=0
136174 On ch=1 n=a#4 v=0
136648 On ch=1 n=a4 v=12
136656 On ch=1 n=a5 v=33
136660 On ch=1 n=d5 v=32
136684 On ch=1 n=f6 v=75
136810 On ch=1 n=f6 v=0
136810 On ch=1 n=c7 v=75
136876 On ch=1 n=a5 v=0
136892 On ch=1 n=e7 v=65
136900 On ch=1 n=c7 v=0
137000 On ch=1 n=d7 v=89
137046 On ch=1 n=e7 v=0
137096 On ch=1 n=a6 v=90
137108 On ch=1 n=d7 v=0
137120 On ch=1 n=a#4 v=58
137126 On ch=1 n=f5 v=52
137130 Par ch=1 c=64 v=63
137140 Par ch=1 c=64 v=0
137142 On ch=1 n=a4 v=0
137180 On ch=1 n=d5 v=0
137184 Par ch=1 c=64 v=63
137204 Par ch=1 c=64 v=127
137324 On ch=1 n=f5 v=0
137378 On ch=1 n=a6 v=0
137384 On ch=1 n=a#4 v=0
137510 On ch=1 n=d6 v=91
137668 On ch=1 n=a#3 v=65
137676 On ch=1 n=d6 v=0
137702 On ch=1 n=f4 v=60
137752 Par ch=1 c=64 v=63
137766 Par ch=1 c=64 v=0
137790 On ch=1 n=g6 v=100
137844 Par ch=1 c=64 v=63
137858 Par ch=1 c=64 v=127
138098 On ch=1 n=g6 v=0
138110 On ch=1 n=a#3 v=0
138112 On ch=1 n=f4 v=0
138448 On ch=1 n=a4 v=43
138498 On ch=1 n=g#5 v=63
138518 On ch=1 n=e5 v=39
139036 On ch=1 n=a4 v=0
139116 On ch=1 n=a#4 v=52
139230 On ch=1 n=a#4 v=0
139856 On ch=1 n=g3 v=40
139860 On ch=1 n=d4 v=45
139922 Par ch=1 c=64 v=63
139940 Par ch=1 c=64 v=0
140036 Par ch=1 c=64 v=63
140050 Par ch=1 c=64 v=127
140212 On ch=1 n=e5 v=0
140234 On ch=1 n=g#5 v=0
140268 On ch=1 n=g3 v=0
140468 On ch=1 n=d5 v=46
140472 On ch=1 n=a5 v=47
140474 On ch=1 n=a4 v=50
140496 On ch=1 n=d4 v=0
140590 On ch=1 n=a4 v=0
140748 On ch=1 n=d5 v=0
140890 On ch=1 n=a5 v=0
141120 On ch=1 n=a#4 v=47
141128 On ch=1 n=f5 v=47
141670 On ch=1 n=f5 v=0
141758 On ch=1 n=a#4 v=0
142200 On ch=1 n=a4 v=25
142226 On ch=1 n=d5 v=41
142250 On ch=1 n=a5 v=23
142342 On ch=1 n=f6 v=75
142444 On ch=1 n=a5 v=0
142452 On ch=1 n=f6 v=0
142472 On ch=1 n=c7 v=77
142550 On ch=1 n=e7 v=61
142554 On ch=1 n=c7 v=0
142666 On ch=1 n=d7 v=92
142698 On ch=1 n=e7 v=0
142712 On ch=1 n=d5 v=0
142776 On ch=1 n=a6 v=94
142778 On ch=1 n=a4 v=0
142780 On ch=1 n=a#4 v=56
142780 On ch=1 n=f5 v=56
142788 On ch=1 n=d7 v=0
142864 On ch=1 n=a6 v=0
142904 On ch=1 n=f5 v=0
142964 On ch=1 n=a#4 v=0
143206 On ch=1 n=d6 v=90
143316 On ch=1 n=d6 v=0
143334 On ch=1 n=a#3 v=56
143376 On ch=1 n=g6 v=96
143386 On ch=1 n=f4 v=48
143416 Par ch=1 c=64 v=63
143428 Par ch=1 c=64 v=0
143532 Par ch=1 c=64 v=63
143540 Par ch=1 c=64 v=127
143696 On ch=1 n=g6 v=0
144090 On ch=1 n=a4 v=27
144100 On ch=1 n=g#5 v=71
144122 On ch=1 n=e5 v=43
144170 On ch=1 n=f4 v=0
144186 On ch=1 n=a#3 v=0
144674 On ch=1 n=a#4 v=39
144744 On ch=1 n=a4 v=0
145228 On ch=1 n=a#4 v=0
145828 On ch=1 n=a4 v=23
146064 On ch=1 n=a4 v=0
146368 On ch=1 n=e5 v=0
146506 On ch=1 n=g#5 v=0
146538 On ch=1 n=a#4 v=30
146720 On ch=1 n=a#4 v=0
147378 On ch=1 n=d#3 v=42
147420 On ch=1 n=a#3 v=28
147520 On ch=1 n=d6 v=67
147522 Par ch=1 c=64 v=63
147528 On ch=1 n=f#5 v=49
147540 Par ch=1 c=64 v=0
147542 On ch=1 n=d5 v=23
147666 Par ch=1 c=64 v=63
147678 Par ch=1 c=64 v=127
147800 On ch=1 n=d#3 v=0
147838 On ch=1 n=a#3 v=0
148298 On ch=1 n=a4 v=38
148414 On ch=1 n=d6 v=0
148666 On ch=1 n=d6 v=89
148944 On ch=1 n=a#4 v=54
148982 On ch=1 n=a4 v=0
149654 On ch=1 n=a#4 v=0
150064 On ch=1 n=a4 v=50
150306 On ch=1 n=d5 v=0
150362 On ch=1 n=a4 v=0
150814 On ch=1 n=a#4 v=54
150940 On ch=1 n=a#4 v=0
151546 On ch=1 n=g#2 v=68
151562 Par ch=1 c=64 v=63
151584 On ch=1 n=d#3 v=54
151640 Par ch=1 c=64 v=127
151664 On ch=1 n=d6 v=0
151704 On ch=1 n=f#5 v=0
151770 On ch=1 n=g#2 v=0
151956 On ch=1 n=c4 v=50
151962 On ch=1 n=d6 v=89
151966 On ch=1 n=f#5 v=62
151970 On ch=1 n=d#3 v=0
151970 On ch=1 n=d#5 v=72
152074 On ch=1 n=c4 v=0
152828 On ch=1 n=a4 v=32
152872 On ch=1 n=d6 v=0
153218 On ch=1 n=d6 v=71
153546 On ch=1 n=a#4 v=50
153586 On ch=1 n=a4 v=0
154418 On ch=1 n=a#4 v=0
155006 On ch=1 n=a4 v=37
155332 On ch=1 n=a4 v=0
156066 On ch=1 n=a#4 v=29
156242 On ch=1 n=a#4 v=0
157842 On ch=1 n=d6 v=0
157872 On ch=1 n=g#2 v=43
157892 On ch=1 n=d#3 v=27
157944 On ch=1 n=f#5 v=0
157958 On ch=1 n=d#5 v=0
158222 Par ch=1 c=64 v=63
158294 Par ch=1 c=64 v=0
158888 Par ch=1 c=64 v=63
158920 Par ch=1 c=64 v=127
159246 On ch=1 n=a4 v=45
159662 On ch=1 n=d5 v=38
159914 On ch=1 n=a4 v=0
159974 On ch=1 n=f#5 v=49
160090 On ch=1 n=d5 v=0
160176 On ch=1 n=d#3 v=0
160182 On ch=1 n=g#2 v=0
160238 On ch=1 n=f#5 v=0
160292 On ch=1 n=a#4 v=77
160606 On ch=1 n=d#5 v=62
160788 On ch=1 n=a#4 v=0
160858 On ch=1 n=f#5 v=55
160904 On ch=1 n=d#5 v=0
160934 On ch=1 n=f#5 v=0
161158 On ch=1 n=c4 v=41
161226 On ch=1 n=d5 v=87
161506 On ch=1 n=f#5 v=63
161650 On ch=1 n=d5 v=0
161752 On ch=1 n=a5 v=68
161770 On ch=1 n=c4 v=0
161774 On ch=1 n=f#5 v=0
161858 On ch=1 n=a5 v=0
161944 On ch=1 n=d#5 v=93
162132 On ch=1 n=f#5 v=86
162146 On ch=1 n=d#5 v=0
162208 On ch=1 n=f#4 v=71
162356 On ch=1 n=a#5 v=99
162384 On ch=1 n=f#5 v=0
162450 On ch=1 n=a#5 v=0
162550 On ch=1 n=a5 v=87
162624 On ch=1 n=f#4 v=0
162714 On ch=1 n=a5 v=0
162738 On ch=1 n=d6 v=89
162862 On ch=1 n=f#6 v=96
162872 On ch=1 n=d6 v=0
162964 On ch=1 n=f#6 v=0
163066 On ch=1 n=c5 v=79
163068 On ch=1 n=a#5 v=105
163120 On ch=1 n=c5 v=0
163188 On ch=1 n=a#5 v=0
163254 On ch=1 n=d#6 v=89
163404 On ch=1 n=f#6 v=88
163416 On ch=1 n=d#6 v=0
163504 On ch=1 n=f#6 v=0
163558 On ch=1 n=d6 v=96
163698 On ch=1 n=f#6 v=99
163732 On ch=1 n=d6 v=0
163772 On ch=1 n=f#5 v=92
163838 On ch=1 n=f#6 v=0
163868 On ch=1 n=a6 v=96
163880 On ch=1 n=f#5 v=0
163958 On ch=1 n=a6 v=0
164036 On ch=1 n=d#6 v=103
164154 On ch=1 n=d#6 v=0
164194 On ch=1 n=f#6 v=98
164342 On ch=1 n=a#6 v=99
164362 On ch=1 n=f#6 v=0
164428 On ch=1 n=a#6 v=0
164520 On ch=1 n=g#5 v=94
164570 On ch=1 n=a6 v=76
164654 On ch=1 n=g#5 v=0
164748 On ch=1 n=d7 v=83
164812 On ch=1 n=a6 v=0
164888 On ch=1 n=f#7 v=86
164892 On ch=1 n=d7 v=0
165010 On ch=1 n=f#7 v=0
165046 On ch=1 n=a#6 v=98
165202 On ch=1 n=d#7 v=100
165212 On ch=1 n=a#6 v=0
165248 On ch=1 n=c6 v=67
165332 On ch=1 n=c6 v=0
165342 On ch=1 n=f#7 v=98
165360 On ch=1 n=d#7 v=0
165482 On ch=1 n=a6 v=96
165540 On ch=1 n=f#7 v=0
165622 On ch=1 n=d7 v=89
165668 On ch=1 n=a6 v=0
165742 On ch=1 n=f#7 v=99
165786 On ch=1 n=d7 v=0
165914 On ch=1 n=d#6 v=88
165922 On ch=1 n=a#6 v=100
165952 On ch=1 n=f#7 v=0
165994 On ch=1 n=d#6 v=0
166064 On ch=1 n=d#7 v=97
166128 On ch=1 n=a#6 v=0
166194 On ch=1 n=f#7 v=98
166254 On ch=1 n=d#7 v=0
166324 On ch=1 n=a6 v=90
166388 On ch=1 n=f#7 v=0
166458 On ch=1 n=f#6 v=86
166474 On ch=1 n=d7 v=94
166524 On ch=1 n=a6 v=0
166586 On ch=1 n=f#6 v=0
166626 On ch=1 n=f#7 v=99
166654 On ch=1 n=d7 v=0
166810 On ch=1 n=a#6 v=100
166828 On ch=1 n=f#7 v=0
166932 On ch=1 n=d#7 v=96
166958 On ch=1 n=a#6 v=0
167058 On ch=1 n=f#7 v=94
167096 On ch=1 n=d#7 v=0
167214 On ch=1 n=g#6 v=81
167220 On ch=1 n=a6 v=71
167272 On ch=1 n=f#7 v=0
167306 On ch=1 n=g#6 v=0
167380 On ch=1 n=d7 v=72
167450 On ch=1 n=a6 v=0
167502 On ch=1 n=f#7 v=84
167528 On ch=1 n=d7 v=0
167660 On ch=1 n=f#6 v=72
167674 On ch=1 n=f#7 v=0
167676 On ch=1 n=a#6 v=88
167734 On ch=1 n=f#6 v=0
167802 On ch=1 n=d#7 v=85
167856 On ch=1 n=a#6 v=0
167928 On ch=1 n=f#7 v=81
167986 On ch=1 n=d#7 v=0
168044 On ch=1 n=a6 v=58
168052 On ch=1 n=d#6 v=76
168092 On ch=1 n=f#7 v=0
168130 On ch=1 n=d#6 v=0
168182 On ch=1 n=d7 v=76
168238 On ch=1 n=a6 v=0
168304 On ch=1 n=f#7 v=81
168336 On ch=1 n=d7 v=0
168434 On ch=1 n=a#6 v=87
168434 On ch=1 n=c6 v=53
168462 On ch=1 n=f#7 v=0
168532 On ch=1 n=c6 v=0
168570 On ch=1 n=d#7 v=94
168628 On ch=1 n=a#6 v=0
168676 On ch=1 n=f#7 v=90
168750 On ch=1 n=d#7 v=0
168808 On ch=1 n=a6 v=87
168814 On ch=1 n=d#6 v=93
168866 On ch=1 n=f#7 v=0
168894 On ch=1 n=d#6 v=0
168944 On ch=1 n=d7 v=85
169030 On ch=1 n=a6 v=0
169050 On ch=1 n=f#7 v=104
169098 On ch=1 n=d7 v=0
169180 On ch=1 n=f#6 v=87
169194 On ch=1 n=a#6 v=106
169222 On ch=1 n=f#7 v=0
169254 On ch=1 n=f#6 v=0
169316 On ch=1 n=d#7 v=101
169366 On ch=1 n=a#6 v=0
169418 On ch=1 n=f#7 v=98
169476 On ch=1 n=d#7 v=0
169544 On ch=1 n=g#6 v=101
169544 On ch=1 n=a6 v=91
169602 On ch=1 n=f#7 v=0
169624 On ch=1 n=g#6 v=0
169670 On ch=1 n=d7 v=98
169708 On ch=1 n=a6 v=0
169758 On ch=1 n=f#7 v=99
169806 On ch=1 n=d7 v=0
169860 On ch=1 n=f#6 v=106
169872 On ch=1 n=a#6 v=107
169902 On ch=1 n=f#7 v=0
169940 On ch=1 n=f#6 v=0
169986 On ch=1 n=d#7 v=105
170018 On ch=1 n=a#6 v=0
170076 On ch=1 n=f#7 v=99
170128 On ch=1 n=d#7 v=0
170188 On ch=1 n=d#6 v=107
170194 On ch=1 n=a6 v=87
170240 On ch=1 n=f#7 v=0
170284 On ch=1 n=d#6 v=0
170298 On ch=1 n=d7 v=91
170338 On ch=1 n=a6 v=0
170386 On ch=1 n=f#7 v=100
170422 On ch=1 n=d7 v=0
170504 On ch=1 n=a#6 v=98
170514 On ch=1 n=c6 v=79
170528 On ch=1 n=f#7 v=0
170602 On ch=1 n=c6 v=0
170626 On ch=1 n=d#7 v=89
170658 On ch=1 n=a#6 v=0
170742 On ch=1 n=f#7 v=82
170796 On ch=1 n=d#7 v=0
170844 On ch=1 n=a6 v=73
170858 On ch=1 n=d#6 v=79
170890 On ch=1 n=f#7 v=0
170912 On ch=1 n=d#6 v=0
170978 On ch=1 n=d7 v=75
171018 On ch=1 n=a6 v=0
171092 Par ch=1 c=67 v=127
171114 On ch=1 n=f#7 v=83
171132 On ch=1 n=d7 v=0
171286 On ch=1 n=f#7 v=0
171294 On ch=1 n=f#6 v=67
171316 On ch=1 n=a#6 v=68
171410 On ch=1 n=f#6 v=0
171496 On ch=1 n=d#7 v=78
171542 On ch=1 n=a#6 v=0
171684 On ch=1 n=f#7 v=69
171708 On ch=1 n=d#7 v=0
171938 On ch=1 n=d6 v=64
171978 On ch=1 n=f#7 v=0
172036 On ch=1 n=c7 v=81
172048 Par ch=1 c=64 v=63
172050 Par ch=1 c=64 v=127
172224 On ch=1 n=e7 v=85
172244 On ch=1 n=c7 v=0
172264 On ch=1 n=f#6 v=82
172368 On ch=1 n=a#7 v=92
172414 On ch=1 n=e7 v=0
172494 On ch=1 n=a#7 v=0
172500 On ch=1 n=a7 v=86
172588 On ch=1 n=f#6 v=0
172596 On ch=1 n=d7 v=59
172618 On ch=1 n=f#7 v=114
172644 On ch=1 n=a7 v=0
172690 On ch=1 n=f#7 v=0
172708 On ch=1 n=d6 v=0
172728 On ch=1 n=d7 v=0
172780 On ch=1 n=f#6 v=91
172890 On ch=1 n=d6 v=87
172924 On ch=1 n=f#6 v=0
172948 On ch=1 n=d6 v=0
172978 On ch=1 n=a#6 v=101
173104 On ch=1 n=f#5 v=63
173106 On ch=1 n=a#6 v=0
173132 On ch=1 n=c#7 v=96
173132 On ch=1 n=f7 v=92
173160 Par ch=1 c=64 v=63
173170 Par ch=1 c=64 v=0
173240 Par ch=1 c=64 v=63
173260 Par ch=1 c=64 v=127
173304 On ch=1 n=c#6 v=88
173396 On ch=1 n=f#5 v=0
173412 On ch=1 n=f#6 v=88
173436 On ch=1 n=c#6 v=0
173456 On ch=1 n=f7 v=0
173472 On ch=1 n=f#6 v=0
173480 On ch=1 n=a#6 v=93
173504 On ch=1 n=c#7 v=0
173558 On ch=1 n=a#6 v=0
173628 On ch=1 n=a5 v=86
173648 Par ch=1 c=64 v=63
173654 On ch=1 n=g6 v=83
173714 Par ch=1 c=64 v=127
173802 On ch=1 n=b6 v=93
173810 On ch=1 n=g6 v=0
173846 On ch=1 n=c#6 v=82
173912 On ch=1 n=f#7 v=91
173936 On ch=1 n=b6 v=0
174014 On ch=1 n=f#7 v=0
174024 On ch=1 n=e7 v=98
174098 On ch=1 n=c#6 v=0
174122 On ch=1 n=c#7 v=116
174126 On ch=1 n=a6 v=74
174134 On ch=1 n=a5 v=0
174146 On ch=1 n=e7 v=0
174180 On ch=1 n=c#7 v=0
174216 On ch=1 n=a6 v=0
174278 On ch=1 n=c#6 v=108
174374 On ch=1 n=c#6 v=0
174406 On ch=1 n=a5 v=99
174482 On ch=1 n=a5 v=0
174502 On ch=1 n=g6 v=99
174630 On ch=1 n=d#5 v=108
174688 Par ch=1 c=64 v=63
174696 Par ch=1 c=64 v=0
174726 On ch=1 n=a#6 v=107
174726 On ch=1 n=d#7 v=113
174762 On ch=1 n=g6 v=0
174772 Par ch=1 c=64 v=63
174784 Par ch=1 c=64 v=127
174882 On ch=1 n=a#5 v=88
175000 On ch=1 n=d#6 v=100
175006 On ch=1 n=d#5 v=0
175024 On ch=1 n=a#5 v=0
175066 On ch=1 n=d#6 v=0
175084 On ch=1 n=g6 v=96
175108 On ch=1 n=d#7 v=0
175124 On ch=1 n=a#6 v=0
175162 On ch=1 n=g6 v=0
175228 On ch=1 n=g5 v=93
175266 On ch=1 n=f6 v=97
175274 Par ch=1 c=64 v=63
175284 Par ch=1 c=64 v=0
175314 Par ch=1 c=64 v=63
175338 Par ch=1 c=64 v=127
175418 On ch=1 n=a6 v=107
175442 On ch=1 n=b5 v=84
175456 On ch=1 n=f6 v=0
175526 On ch=1 n=e7 v=101
175560 On ch=1 n=a6 v=0
175636 On ch=1 n=b5 v=0
175638 On ch=1 n=d7 v=102
175642 On ch=1 n=f6 v=74
175704 On ch=1 n=e7 v=0
175716 On ch=1 n=f6 v=0
175730 On ch=1 n=a6 v=92
175744 On ch=1 n=g5 v=0
175768 On ch=1 n=d7 v=0
175780 On ch=1 n=b5 v=89
175830 On ch=1 n=b5 v=0
175842 On ch=1 n=a6 v=0
175842 On ch=1 n=f6 v=100
175956 On ch=1 n=c#5 v=94
176008 Par ch=1 c=64 v=63
176012 On ch=1 n=f6 v=0
176012 On ch=1 n=c#7 v=105
176016 Par ch=1 c=64 v=0
176060 Par ch=1 c=64 v=63
176080 Par ch=1 c=64 v=127
176152 On ch=1 n=c#7 v=0
176166 On ch=1 n=g#6 v=86
176204 On ch=1 n=g#5 v=76
176248 On ch=1 n=g#6 v=0
176268 On ch=1 n=f6 v=84
176276 On ch=1 n=g#5 v=0
176294 On ch=1 n=c#5 v=0
176352 On ch=1 n=f6 v=0
176368 On ch=1 n=c#6 v=103
176438 On ch=1 n=c#6 v=0
176448 On ch=1 n=g#5 v=72
176536 On ch=1 n=g#5 v=0
176540 On ch=1 n=f5 v=63
176654 On ch=1 n=f5 v=0
176666 On ch=1 n=a#4 v=72
176784 Par ch=1 c=64 v=63
176794 Par ch=1 c=64 v=0
176828 On ch=1 n=d5 v=76
176836 Par ch=1 c=64 v=63
176860 Par ch=1 c=64 v=127
176908 On ch=1 n=g#5 v=71
177004 On ch=1 n=c6 v=80
177010 On ch=1 n=g#5 v=0
177016 On ch=1 n=d5 v=0
177086 On ch=1 n=a#4 v=0
177088 On ch=1 n=g6 v=91
177108 On ch=1 n=c6 v=0
177172 On ch=1 n=c6 v=80
177204 On ch=1 n=g6 v=0
177280 On ch=1 n=g#5 v=80
177300 On ch=1 n=c6 v=0
177356 On ch=1 n=g#5 v=0
177386 On ch=1 n=c5 v=70
177440 On ch=1 n=c5 v=0
177574 On ch=1 n=g3 v=74
177688 Par ch=1 c=64 v=63
177700 Par ch=1 c=64 v=0
177742 Par ch=1 c=64 v=63
177758 On ch=1 n=d4 v=77
177768 Par ch=1 c=64 v=127
177828 On ch=1 n=g3 v=0
177888 On ch=1 n=g#4 v=72
177968 On ch=1 n=g#4 v=0
177980 On ch=1 n=d4 v=0
177994 On ch=1 n=b4 v=84
178086 On ch=1 n=e5 v=81
178094 On ch=1 n=b4 v=0
178186 On ch=1 n=b4 v=74
178212 On ch=1 n=e5 v=0
178302 On ch=1 n=b4 v=0
178322 On ch=1 n=g4 v=67
178478 On ch=1 n=f#4 v=67
178480 On ch=1 n=g4 v=0
178688 On ch=1 n=f4 v=62
178720 On ch=1 n=f#4 v=0
178956 On ch=1 n=e3 v=68
178990 On ch=1 n=f4 v=0
179110 Par ch=1 c=64 v=63
179188 Par ch=1 c=64 v=0
179258 On ch=1 n=b3 v=60
179342 Par ch=1 c=67 v=0
179518 On ch=1 n=e4 v=46
179532 Par ch=1 c=64 v=63
179588 Par ch=1 c=64 v=127
179686 Par ch=1 c=67 v=127
179724 On ch=1 n=b4 v=53
179940 On ch=1 n=c#5 v=70
180230 On ch=1 n=b4 v=0
180282 On ch=1 n=g#5 v=58
180712 On ch=1 n=g#4 v=46
180786 On ch=1 n=e3 v=0
180808 On ch=1 n=b3 v=0
180818 On ch=1 n=e4 v=0
181308 On ch=1 n=d#6 v=65
181356 On ch=1 n=d#6 v=0
182330 On ch=1 n=d#6 v=40
183268 On ch=1 n=d#6 v=0
183926 On ch=1 n=g#4 v=0
183934 On ch=1 n=c#5 v=0
183958 On ch=1 n=g#5 v=0
184086 Par ch=1 c=64 v=63
184112 Par ch=1 c=67 v=0
184182 Par ch=1 c=64 v=0
184680 On ch=1 n=c#3 v=54
184682 On ch=1 n=g#3 v=47
184756 Par ch=1 c=64 v=63
184780 Par ch=1 c=64 v=127
185254 On ch=1 n=b3 v=62
185608 On ch=1 n=e4 v=68
185952 On ch=1 n=c#3 v=0
185962 On ch=1 n=b4 v=83
185974 On ch=1 n=g#3 v=0
185994 On ch=1 n=b3 v=0
186290 On ch=1 n=c#5 v=77
186636 On ch=1 n=g#5 v=72
186760 On ch=1 n=c#5 v=0
187134 On ch=1 n=e4 v=0
187210 On ch=1 n=g#4 v=57
187224 On ch=1 n=c#5 v=5
187340 On ch=1 n=b4 v=0
187864 On ch=1 n=d#6 v=72
188764 On ch=1 n=d#6 v=0
189038 On ch=1 n=d#6 v=37
190142 On ch=1 n=g#5 v=0
190202 On ch=1 n=c#5 v=0
190244 On ch=1 n=g#4 v=0
191938 On ch=1 n=d#6 v=0
192054 On ch=1 n=a2 v=36
192094 On ch=1 n=e3 v=17
192768 On ch=1 n=b3 v=24
193280 On ch=1 n=b4 v=37
193294 On ch=1 n=e4 v=19
193358 On ch=1 n=a2 v=0
193428 On ch=1 n=e3 v=0
193474 On ch=1 n=b3 v=0
193862 On ch=1 n=c#5 v=45
194930 On ch=1 n=e4 v=0
194934 On ch=1 n=g#5 v=46
195164 On ch=1 n=g#4 v=30
195330 On ch=1 n=b4 v=0
196314 On ch=1 n=d#6 v=43
197562 On ch=1 n=d#6 v=0
198158 On ch=1 n=d#6 v=22
200390 Par ch=1 c=67 v=127
200566 On ch=1 n=g#5 v=0
200584 On ch=1 n=c#5 v=0
200638 On ch=1 n=g#4 v=0
201928 On ch=1 n=d#6 v=0
202242 On ch=1 n=d#2 v=51
202492 Par ch=1 c=64 v=63
202652 Par ch=1 c=64 v=0
203486 Par ch=1 c=64 v=63
203512 Par ch=1 c=64 v=127
203814 On ch=1 n=d#2 v=0
205040 On ch=1 n=a#3 v=35
205056 On ch=1 n=d#3 v=48
205076 On ch=1 n=f#4 v=33
205092 On ch=1 n=d5 v=54
205774 On ch=1 n=g#4 v=43
206126 On ch=1 n=f#4 v=0
206338 On ch=1 n=a#4 v=62
206400 On ch=1 n=d5 v=0
206420 On ch=1 n=a#3 v=0
206782 On ch=1 n=c#3 v=49
206806 On ch=1 n=g#3 v=10
206884 On ch=1 n=e4 v=53
206888 On ch=1 n=c5 v=68
206922 On ch=1 n=g#4 v=0
206942 On ch=1 n=a#4 v=0
206948 On ch=1 n=d#3 v=0
207106 Par ch=1 c=64 v=63
207164 Par ch=1 c=64 v=0
207294 Par ch=1 c=64 v=63
207322 Par ch=1 c=64 v=127
207554 On ch=1 n=f#4 v=38
208122 On ch=1 n=g#4 v=19
208352 On ch=1 n=c5 v=0
208448 On ch=1 n=c#3 v=0
208456 On ch=1 n=g#3 v=0
209066 On ch=1 n=d#6 v=48
209138 On ch=1 n=d#6 v=0
210142 On ch=1 n=d#6 v=30
211838 On ch=1 n=d#6 v=0
212220 On ch=1 n=e4 v=0
212378 On ch=1 n=f#4 v=0
212466 On ch=1 n=g#4 v=0
213194 On ch=1 n=a#3 v=35
213216 On ch=1 n=d#3 v=34
213234 On ch=1 n=f#4 v=41
213274 On ch=1 n=d5 v=38
213438 Par ch=1 c=64 v=63
213526 Par ch=1 c=64 v=0
213650 Par ch=1 c=64 v=63
213692 Par ch=1 c=64 v=127
213870 On ch=1 n=g#4 v=39
214368 On ch=1 n=a#4 v=45
214416 On ch=1 n=d5 v=0
214428 On ch=1 n=a#3 v=0
214606 On ch=1 n=f#4 v=0
214900 On ch=1 n=c#3 v=19
214922 On ch=1 n=a#4 v=0
214942 On ch=1 n=g#3 v=5
214960 On ch=1 n=g#4 v=0
214964 On ch=1 n=e4 v=34
214972 On ch=1 n=c5 v=46
215006 On ch=1 n=d#3 v=0
215078 Par ch=1 c=64 v=63
215124 Par ch=1 c=64 v=0
215220 Par ch=1 c=64 v=63
215244 Par ch=1 c=64 v=127
215526 On ch=1 n=f#4 v=36
216214 On ch=1 n=g#4 v=20
216242 On ch=1 n=c#3 v=0
216268 On ch=1 n=g#3 v=0
217196 On ch=1 n=d#6 v=28
217320 On ch=1 n=d#6 v=0
218564 On ch=1 n=d#6 v=23
220448 On ch=1 n=d#6 v=0
221224 On ch=1 n=e4 v=0
221242 On ch=1 n=c5 v=0
221354 On ch=1 n=f#4 v=0
221392 On ch=1 n=g#4 v=0
222520 On ch=1 n=f#4 v=20
222538 On ch=1 n=a#3 v=10
222546 On ch=1 n=d#3 v=27
222564 On ch=1 n=d5 v=29
222852 Par ch=1 c=64 v=63
222952 Par ch=1 c=64 v=0
223028 Par ch=1 c=64 v=63
223106 Par ch=1 c=64 v=127
223348 On ch=1 n=g#4 v=25
224198 On ch=1 n=a#4 v=41
224270 On ch=1 n=d5 v=0
224548 On ch=1 n=d#3 v=0
224602 On ch=1 n=a#3 v=0
225614 On ch=1 n=d#6 v=35
225756 On ch=1 n=d#6 v=0
227396 On ch=1 n=d#6 v=19
232216 On ch=1 n=f#4 v=0
232228 On ch=1 n=a#4 v=0
232296 On ch=1 n=g#4 v=0
232642 Par ch=1 c=64 v=63
233070 Par ch=1 c=64 v=0
233842 On ch=1 n=d#6 v=0
234080 Par ch=1 c=67 v=0
234080 Meta TrkEnd
TrkEnd
