MFile 1 2 480
MTrk
0 Tempo 500000
0 TimeSig 4/4 24 8
0 Meta TrkEnd
TrkEnd
MTrk
0 SeqSpec 43 00 01 00
0 Meta TrkName "<Master Volume>"
0 Meta 0x21 00
0 SysEx f0 41 10 42 12 40 00 7f 00 41 f7
0 SysEx f0 41 10 42 12 40 00 04 64 58 f7
192 Meta Text "<Master Reverve>"
192 SysEx f0 41 10 42 12 40 01 30 03 0c f7
192 SysEx f0 41 10 42 12 40 01 33 3c 50 f7
192 SysEx f0 41 10 42 12 40 01 34 3c 4f f7
576 Par ch=1 c=0 v=0
580 Par ch=1 c=32 v=1
584 PrCh ch=1 p=0
642 Par ch=1 c=67 v=0
780 Par ch=1 c=7 v=100
972 Par ch=1 c=11 v=80
1164 Par ch=1 c=10 v=64
1356 Par ch=1 c=1 v=0
1356 Meta Text "<part reverve>"
1356 Par ch=1 c=91 v=80
1374 Par ch=1 c=67 v=0
1452 Par ch=1 c=99 v=1
1456 Par ch=1 c=98 v=32
1460 Par ch=1 c=6 v=62
1464 Par ch=1 c=99 v=1
1468 Par ch=1 c=98 v=33
1472 Par ch=1 c=6 v=54
1476 Par ch=1 c=99 v=1
1480 Par ch=1 c=98 v=99
1484 Par ch=1 c=6 v=62
1488 Par ch=1 c=99 v=1
1492 Par ch=1 c=98 v=100
1496 Par ch=1 c=6 v=60
1500 Par ch=1 c=99 v=1
1504 Par ch=1 c=98 v=102
1508 Par ch=1 c=6 v=70
2306 Par ch=1 c=67 v=127
3760 On ch=1 n=g#6 v=39
3786 On ch=1 n=g#5 v=25
3810 Par ch=1 c=64 v=63
3870 Par ch=1 c=64 v=127
5038 On ch=1 n=g#6 v=0
5978 On ch=1 n=g#7 v=43
5984 On ch=1 n=g#6 v=22
8296 On ch=1 n=g#7 v=0
8366 On ch=1 n=g#6 v=0
8370 On ch=1 n=g#5 v=0
9358 On ch=1 n=g#6 v=19
9364 On ch=1 n=g#5 v=25
10170 On ch=1 n=g#6 v=0
10322 On ch=1 n=g#6 v=22
10334 On ch=1 n=g#7 v=50
12970 On ch=1 n=g#6 v=0
12974 On ch=1 n=g#5 v=0
12988 On ch=1 n=g#7 v=0
13968 On ch=1 n=g#6 v=27
13978 On ch=1 n=g#5 v=23
16420 On ch=1 n=g#6 v=0
17132 On ch=1 n=g#6 v=28
17146 On ch=1 n=g#7 v=20
18962 Par ch=1 c=67 v=127
19004 On ch=1 n=g#7 v=0
19038 On ch=1 n=g#5 v=0
19054 On ch=1 n=g#6 v=0
20046 On ch=1 n=g#5 v=40
20054 On ch=1 n=g#6 v=27
20196 Par ch=1 c=64 v=63
20218 Par ch=1 c=64 v=127
20420 On ch=1 n=g#5 v=0
20500 On ch=1 n=g#6 v=0
20508 On ch=1 n=c#6 v=38
20510 On ch=1 n=f#6 v=31
20752 On ch=1 n=c#6 v=0
20792 On ch=1 n=f#6 v=0
20824 On ch=1 n=b5 v=27
20854 On ch=1 n=e6 v=33
21000 On ch=1 n=b5 v=0
21086 On ch=1 n=e6 v=0
21102 On ch=1 n=f#6 v=49
21122 On ch=1 n=c#6 v=37
21282 On ch=1 n=f#6 v=0
21336 On ch=1 n=c#6 v=0
21352 On ch=1 n=g#5 v=43
21570 On ch=1 n=g#5 v=0
21630 On ch=1 n=f#6 v=31
21662 On ch=1 n=c#6 v=17
21846 On ch=1 n=f#6 v=0
21876 On ch=1 n=g#7 v=47
21878 On ch=1 n=g#6 v=48
21880 On ch=1 n=c#6 v=0
21902 On ch=1 n=b5 v=31
21910 On ch=1 n=e6 v=36
21994 On ch=1 n=g#7 v=0
22012 On ch=1 n=g#6 v=0
22066 On ch=1 n=b5 v=0
22118 On ch=1 n=e6 v=0
22150 On ch=1 n=c#6 v=44
22156 On ch=1 n=f#6 v=42
22308 On ch=1 n=f#6 v=0
22366 On ch=1 n=c#6 v=0
22374 On ch=1 n=g#5 v=39
22570 On ch=1 n=g#5 v=0
22614 On ch=1 n=c#6 v=45
22614 On ch=1 n=f#6 v=42
22788 On ch=1 n=f#6 v=0
22826 On ch=1 n=c#6 v=0
22866 On ch=1 n=b5 v=35
22868 On ch=1 n=e6 v=36
23044 On ch=1 n=b5 v=0
23056 On ch=1 n=e6 v=0
23090 On ch=1 n=f#6 v=47
23108 On ch=1 n=c#6 v=49
23226 On ch=1 n=f#6 v=0
23264 On ch=1 n=c#6 v=0
23346 On ch=1 n=g#5 v=49
23508 On ch=1 n=g#5 v=0
23582 On ch=1 n=f#6 v=49
23598 On ch=1 n=c#6 v=38
23744 On ch=1 n=f#6 v=0
23796 On ch=1 n=c#6 v=0
23840 On ch=1 n=b5 v=35
23854 On ch=1 n=e6 v=29
24052 On ch=1 n=b5 v=0
24110 On ch=1 n=g#5 v=31
24112 On ch=1 n=e6 v=0
24118 On ch=1 n=c#6 v=50
24118 On ch=1 n=g#6 v=39
24124 On ch=1 n=f#6 v=51
24178 On ch=1 n=g#5 v=0
24198 On ch=1 n=g#6 v=0
24286 On ch=1 n=f#6 v=0
24286 On ch=1 n=c#6 v=0
24376 On ch=1 n=g#5 v=40
24578 On ch=1 n=g#5 v=0
24618 On ch=1 n=f#6 v=40
24620 On ch=1 n=c#6 v=40
24838 On ch=1 n=f#6 v=0
24868 On ch=1 n=c#6 v=0
24894 On ch=1 n=g#7 v=58
24896 On ch=1 n=g#6 v=51
24916 On ch=1 n=b5 v=25
24942 On ch=1 n=e6 v=18
24986 On ch=1 n=g#7 v=0
25000 On ch=1 n=g#6 v=0
25100 On ch=1 n=b5 v=0
25120 On ch=1 n=e6 v=0
25146 On ch=1 n=f#6 v=40
25150 On ch=1 n=c#6 v=41
25320 On ch=1 n=f#6 v=0
25328 On ch=1 n=c#6 v=0
25404 On ch=1 n=g#5 v=37
25624 On ch=1 n=g#5 v=0
25634 On ch=1 n=f#6 v=39
25662 On ch=1 n=c#6 v=19
25828 On ch=1 n=f#6 v=0
25872 On ch=1 n=c#6 v=0
25894 On ch=1 n=b5 v=30
25910 On ch=1 n=e6 v=23
26094 On ch=1 n=b5 v=0
26114 On ch=1 n=e6 v=0
26122 On ch=1 n=c#6 v=44
26142 On ch=1 n=f#6 v=43
26256 On ch=1 n=c#6 v=0
26312 On ch=1 n=f#6 v=0
26390 On ch=1 n=g#5 v=31
26568 On ch=1 n=g#5 v=0
26638 On ch=1 n=f#6 v=41
26654 On ch=1 n=c#6 v=32
26842 On ch=1 n=f#6 v=0
26876 On ch=1 n=c#6 v=0
26892 On ch=1 n=b5 v=32
26920 On ch=1 n=e6 v=27
27108 On ch=1 n=b5 v=0
27152 On ch=1 n=e6 v=0
27162 On ch=1 n=f#6 v=32
27178 On ch=1 n=b4 v=42
27180 On ch=1 n=e5 v=57
27184 On ch=1 n=c#6 v=20
27260 On ch=1 n=b4 v=0
27266 On ch=1 n=e5 v=0
27330 On ch=1 n=f#6 v=0
27344 On ch=1 n=c#6 v=0
27420 On ch=1 n=g#5 v=37
27632 On ch=1 n=g#5 v=0
27660 On ch=1 n=f#6 v=46
27668 On ch=1 n=c#6 v=38
27874 On ch=1 n=f#6 v=0
27898 On ch=1 n=c#6 v=0
27928 On ch=1 n=b5 v=28
27934 On ch=1 n=c#5 v=48
27938 On ch=1 n=g#4 v=50
27938 On ch=1 n=e6 v=32
27984 On ch=1 n=c#5 v=0
28040 On ch=1 n=g#4 v=0
28106 On ch=1 n=b5 v=0
28160 On ch=1 n=e6 v=0
28190 On ch=1 n=c#6 v=42
28210 On ch=1 n=f#6 v=40
28356 On ch=1 n=c#6 v=0
28380 On ch=1 n=f#6 v=0
28444 On ch=1 n=g#5 v=35
28648 On ch=1 n=g#5 v=0
28678 On ch=1 n=f#6 v=44
28696 On ch=1 n=c#6 v=39
28890 On ch=1 n=f#6 v=0
28898 On ch=1 n=c#6 v=0
28954 On ch=1 n=b5 v=21
28976 On ch=1 n=e6 v=21
29160 On ch=1 n=b5 v=0
29188 On ch=1 n=e6 v=0
29196 On ch=1 n=c#6 v=32
29204 On ch=1 n=f#6 v=42
29358 On ch=1 n=f#6 v=0
29362 On ch=1 n=c#6 v=0
29472 On ch=1 n=g#5 v=40
29478 On ch=1 n=g#6 v=45
29562 On ch=1 n=g#5 v=0
29632 On ch=1 n=g#6 v=0
29722 On ch=1 n=f#6 v=52
29734 On ch=1 n=c#6 v=29
29932 On ch=1 n=f#6 v=0
29952 On ch=1 n=c#6 v=0
29990 On ch=1 n=b5 v=21
30004 On ch=1 n=e6 v=21
30186 On ch=1 n=b5 v=0
30220 On ch=1 n=c#6 v=37
30236 On ch=1 n=e6 v=0
30240 On ch=1 n=f#6 v=40
30394 On ch=1 n=f#6 v=0
30414 On ch=1 n=c#6 v=0
30478 On ch=1 n=g#5 v=41
30686 On ch=1 n=g#5 v=0
30724 On ch=1 n=f#6 v=47
30744 On ch=1 n=c#6 v=39
30938 On ch=1 n=f#6 v=0
30976 On ch=1 n=c#6 v=0
30978 On ch=1 n=g#7 v=59
30988 On ch=1 n=g#6 v=52
31008 On ch=1 n=e6 v=43
31010 On ch=1 n=b5 v=27
31086 On ch=1 n=g#7 v=0
31100 On ch=1 n=g#6 v=0
31166 On ch=1 n=b5 v=0
31212 On ch=1 n=e6 v=0
31236 On ch=1 n=f#6 v=41
31242 On ch=1 n=c#6 v=34
31392 On ch=1 n=c#6 v=0
31392 On ch=1 n=f#6 v=0
31460 On ch=1 n=g#5 v=43
31702 On ch=1 n=g#5 v=0
31710 On ch=1 n=f#6 v=45
31714 On ch=1 n=c#6 v=44
31924 On ch=1 n=f#6 v=0
31958 On ch=1 n=c#6 v=0
31976 On ch=1 n=b5 v=35
31978 On ch=1 n=e6 v=34
32174 On ch=1 n=b5 v=0
32200 On ch=1 n=e6 v=0
32226 On ch=1 n=c#6 v=31
32228 On ch=1 n=f#6 v=43
32360 On ch=1 n=c#6 v=0
32408 On ch=1 n=f#6 v=0
32480 On ch=1 n=g#5 v=45
32708 On ch=1 n=g#5 v=0
32730 On ch=1 n=c#6 v=49
32732 On ch=1 n=f#6 v=47
32928 On ch=1 n=f#6 v=0
32956 On ch=1 n=c#6 v=0
32976 On ch=1 n=b5 v=40
32996 On ch=1 n=e6 v=30
33156 On ch=1 n=b5 v=0
33212 On ch=1 n=e6 v=0
33240 On ch=1 n=f#6 v=35
33260 On ch=1 n=c#6 v=27
33424 On ch=1 n=c#6 v=0
33426 On ch=1 n=f#6 v=0
33504 On ch=1 n=g#5 v=22
33750 On ch=1 n=f#6 v=25
33766 On ch=1 n=g#5 v=0
33778 On ch=1 n=c#6 v=29
34002 On ch=1 n=f#6 v=0
34006 On ch=1 n=c#6 v=0
34032 On ch=1 n=b4 v=47
34046 On ch=1 n=e5 v=52
34048 On ch=1 n=b5 v=21
34070 On ch=1 n=e6 v=22
34146 On ch=1 n=b4 v=0
34172 On ch=1 n=e5 v=0
34204 On ch=1 n=b5 v=0
34280 On ch=1 n=e6 v=0
34316 On ch=1 n=c#6 v=33
34318 On ch=1 n=f#6 v=44
34486 On ch=1 n=f#6 v=0
34508 On ch=1 n=c#6 v=0
34564 On ch=1 n=g#5 v=37
34794 On ch=1 n=g#5 v=0
34818 On ch=1 n=c#6 v=49
34824 On ch=1 n=f#6 v=37
34826 On ch=1 n=c#5 v=52
34828 On ch=1 n=g#4 v=47
34904 On ch=1 n=c#5 v=0
34924 On ch=1 n=g#4 v=0
35040 On ch=1 n=f#6 v=0
35068 On ch=1 n=c#6 v=0
35102 On ch=1 n=b5 v=31
35112 On ch=1 n=e6 v=26
35312 On ch=1 n=b5 v=0
35332 On ch=1 n=e6 v=0
35346 On ch=1 n=f#6 v=54
35350 On ch=1 n=c#6 v=40
35440 On ch=1 n=f#6 v=0
35454 On ch=1 n=c#6 v=0
35598 On ch=1 n=g#5 v=63
35610 On ch=1 n=g#6 v=66
35686 On ch=1 n=g#5 v=0
35706 On ch=1 n=g#6 v=0
35848 On ch=1 n=f#6 v=60
35854 On ch=1 n=c#6 v=43
36044 On ch=1 n=f#6 v=0
36062 On ch=1 n=c#6 v=0
36110 On ch=1 n=b5 v=21
36118 On ch=1 n=e6 v=24
36254 On ch=1 n=b5 v=0
36336 On ch=1 n=c#6 v=48
36348 On ch=1 n=f#6 v=48
36350 On ch=1 n=e6 v=0
36438 On ch=1 n=c#6 v=0
36482 On ch=1 n=f#6 v=0
36592 On ch=1 n=g#5 v=45
36770 On ch=1 n=g#5 v=0
36822 On ch=1 n=f#6 v=53
36834 On ch=1 n=c#6 v=39
36996 On ch=1 n=f#6 v=0
37042 On ch=1 n=c#6 v=0
37074 On ch=1 n=e6 v=47
37080 On ch=1 n=b5 v=34
37238 On ch=1 n=b5 v=0
37308 On ch=1 n=e6 v=0
37328 On ch=1 n=f#6 v=50
37340 On ch=1 n=c#6 v=18
37458 On ch=1 n=c#6 v=0
37468 On ch=1 n=f#6 v=0
37578 On ch=1 n=g#5 v=42
37770 On ch=1 n=g#5 v=0
37808 On ch=1 n=g#7 v=59
37824 On ch=1 n=g#6 v=47
37832 On ch=1 n=f#6 v=48
37850 On ch=1 n=c#6 v=33
37906 On ch=1 n=g#7 v=0
37908 On ch=1 n=g#6 v=0
38010 On ch=1 n=f#6 v=0
38046 On ch=1 n=c#6 v=0
38080 On ch=1 n=e6 v=34
38080 On ch=1 n=b5 v=22
38270 On ch=1 n=b5 v=0
38300 On ch=1 n=e6 v=0
38332 On ch=1 n=c#6 v=21
38342 On ch=1 n=f#6 v=36
38440 On ch=1 n=c#6 v=0
38516 On ch=1 n=f#6 v=0
38580 On ch=1 n=g#5 v=40
38798 On ch=1 n=g#5 v=0
38806 On ch=1 n=f#6 v=43
38830 On ch=1 n=c#6 v=37
39000 On ch=1 n=f#6 v=0
39028 On ch=1 n=c#6 v=0
39066 On ch=1 n=b5 v=28
39068 On ch=1 n=e6 v=32
39270 On ch=1 n=b5 v=0
39304 On ch=1 n=b4 v=34
39316 On ch=1 n=e5 v=52
39322 On ch=1 n=f#6 v=46
39324 On ch=1 n=e6 v=0
39346 On ch=1 n=c#6 v=21
39452 On ch=1 n=b4 v=0
39460 On ch=1 n=e5 v=0
39474 On ch=1 n=f#6 v=0
39490 On ch=1 n=c#6 v=0
39540 On ch=1 n=g#5 v=37
39784 On ch=1 n=g#5 v=0
39790 On ch=1 n=f#6 v=30
39804 On ch=1 n=c#6 v=33
40008 On ch=1 n=f#6 v=0
40014 On ch=1 n=c#6 v=0
40032 On ch=1 n=c#5 v=62
40036 On ch=1 n=g#4 v=48
40056 On ch=1 n=b5 v=29
40056 On ch=1 n=e6 v=36
40098 On ch=1 n=c#5 v=0
40120 On ch=1 n=g#4 v=0
40250 On ch=1 n=b5 v=0
40334 On ch=1 n=c#6 v=17
40338 On ch=1 n=f#6 v=49
40348 On ch=1 n=e6 v=0
40500 On ch=1 n=f#6 v=0
40532 On ch=1 n=c#6 v=0
40546 On ch=1 n=g#5 v=53
40812 On ch=1 n=g2 v=62
40870 On ch=1 n=e6 v=44
40878 On ch=1 n=c#6 v=32
40918 On ch=1 n=g2 v=0
41014 On ch=1 n=g#5 v=0
41068 On ch=1 n=b5 v=40
41074 On ch=1 n=c#6 v=0
41160 On ch=1 n=e6 v=0
41298 On ch=1 n=c#6 v=42
41310 On ch=1 n=b5 v=0
41348 On ch=1 n=e6 v=48
41560 On ch=1 n=c#6 v=0
41576 On ch=1 n=f5 v=73
41582 On ch=1 n=g#5 v=54
41618 On ch=1 n=e6 v=0
41866 On ch=1 n=e6 v=31
41886 On ch=1 n=c#6 v=36
42060 On ch=1 n=f5 v=0
42082 On ch=1 n=g#5 v=0
42128 On ch=1 n=b5 v=38
42180 On ch=1 n=c#6 v=0
42208 On ch=1 n=e6 v=0
42354 On ch=1 n=c#6 v=45
42364 On ch=1 n=b5 v=0
42394 On ch=1 n=e6 v=38
42558 On ch=1 n=c#6 v=0
42592 On ch=1 n=g#5 v=51
42658 On ch=1 n=e6 v=0
42870 On ch=1 n=c#6 v=39
42874 On ch=1 n=e6 v=42
43002 On ch=1 n=g#5 v=0
43128 On ch=1 n=f5 v=68
43134 On ch=1 n=b5 v=44
43142 On ch=1 n=e6 v=0
43174 On ch=1 n=c#6 v=0
43234 On ch=1 n=f5 v=0
43380 On ch=1 n=b5 v=0
43380 On ch=1 n=c#6 v=53
43408 On ch=1 n=e6 v=32
43630 On ch=1 n=g#5 v=39
43656 On ch=1 n=e6 v=0
43656 On ch=1 n=c#6 v=0
43892 On ch=1 n=e6 v=42
43896 On ch=1 n=c#6 v=31
44068 On ch=1 n=g#5 v=0
44132 On ch=1 n=b5 v=38
44140 On ch=1 n=e6 v=0
44152 On ch=1 n=c#6 v=0
44358 On ch=1 n=b5 v=0
44362 On ch=1 n=c#6 v=44
44402 On ch=1 n=e6 v=28
44604 On ch=1 n=e6 v=0
44626 On ch=1 n=c#6 v=0
44640 On ch=1 n=f5 v=57
44654 On ch=1 n=g#5 v=36
44728 Par ch=1 c=64 v=63
44742 Par ch=1 c=64 v=127
44894 On ch=1 n=f5 v=0
44942 On ch=1 n=c#6 v=33
44962 On ch=1 n=e6 v=27
45128 On ch=1 n=g#5 v=0
45168 On ch=1 n=b5 v=37
45212 On ch=1 n=e6 v=0
45236 On ch=1 n=c#6 v=0
45410 On ch=1 n=g#5 v=55
45420 On ch=1 n=g#6 v=44
45426 On ch=1 n=c#6 v=42
45460 On ch=1 n=b5 v=0
45464 On ch=1 n=e6 v=17
45542 On ch=1 n=g#5 v=0
45596 On ch=1 n=c#6 v=0
45614 On ch=1 n=g#6 v=0
45654 On ch=1 n=e6 v=0
45678 On ch=1 n=g#5 v=24
45928 On ch=1 n=c#6 v=35
45952 On ch=1 n=e6 v=21
46112 On ch=1 n=g#5 v=0
46164 On ch=1 n=b5 v=42
46210 On ch=1 n=c#6 v=0
46218 On ch=1 n=e6 v=0
46414 On ch=1 n=c#6 v=51
46438 On ch=1 n=b5 v=0
46458 On ch=1 n=e6 v=22
46644 On ch=1 n=g#5 v=46
46664 On ch=1 n=e6 v=0
46678 On ch=1 n=c#6 v=0
46902 On ch=1 n=c#6 v=41
46920 On ch=1 n=e6 v=32
47064 On ch=1 n=g#5 v=0
47150 On ch=1 n=b5 v=31
47188 On ch=1 n=c#6 v=0
47210 On ch=1 n=e6 v=0
47382 On ch=1 n=c#6 v=49
47404 On ch=1 n=b5 v=0
47438 On ch=1 n=e6 v=10
47638 On ch=1 n=c#6 v=0
47654 On ch=1 n=g#7 v=42
47660 On ch=1 n=g#6 v=57
47662 On ch=1 n=g#5 v=35
47754 On ch=1 n=e6 v=0
47802 On ch=1 n=g#7 v=0
47804 On ch=1 n=g#6 v=0
47912 On ch=1 n=c#6 v=40
47934 On ch=1 n=e6 v=32
48106 On ch=1 n=g#5 v=0
48164 On ch=1 n=b5 v=25
48180 On ch=1 n=c#6 v=0
48214 On ch=1 n=e6 v=0
48406 On ch=1 n=c#6 v=28
48442 On ch=1 n=e6 v=21
48474 On ch=1 n=b5 v=0
48652 On ch=1 n=g#5 v=37
48694 On ch=1 n=c#6 v=0
48734 On ch=1 n=e6 v=0
48900 On ch=1 n=c#6 v=49
48918 On ch=1 n=e6 v=36
49092 On ch=1 n=g#5 v=0
49126 On ch=1 n=c#6 v=0
49144 On ch=1 n=b5 v=31
49192 On ch=1 n=e6 v=0
49374 On ch=1 n=c#6 v=45
49398 On ch=1 n=b5 v=0
49408 On ch=1 n=e6 v=27
49606 On ch=1 n=c#6 v=0
49618 On ch=1 n=g#5 v=36
49646 On ch=1 n=e6 v=0
49860 On ch=1 n=c#6 v=45
49900 On ch=1 n=e6 v=10
49948 On ch=1 n=g#5 v=0
50110 On ch=1 n=b5 v=41
50120 On ch=1 n=e6 v=0
50146 On ch=1 n=c#6 v=0
50342 On ch=1 n=b5 v=0
50348 On ch=1 n=c#6 v=40
50356 On ch=1 n=e6 v=30
50584 On ch=1 n=c#6 v=0
50588 On ch=1 n=e6 v=0
50608 On ch=1 n=g#5 v=36
50848 On ch=1 n=c#6 v=40
50866 On ch=1 n=e6 v=31
51034 On ch=1 n=g#5 v=0
51082 On ch=1 n=c#6 v=0
51110 On ch=1 n=b5 v=24
51118 On ch=1 n=e6 v=0
51358 On ch=1 n=c#6 v=46
51376 On ch=1 n=b4 v=45
51378 On ch=1 n=b5 v=0
51388 On ch=1 n=e5 v=43
51396 On ch=1 n=e6 v=23
51580 On ch=1 n=c#6 v=0
51586 On ch=1 n=b4 v=0
51618 On ch=1 n=g#5 v=34
51626 On ch=1 n=e5 v=0
51628 On ch=1 n=e6 v=0
51860 On ch=1 n=c#6 v=36
51870 On ch=1 n=g#5 v=0
51890 On ch=1 n=e6 v=19
52058 On ch=1 n=c#6 v=0
52078 On ch=1 n=e6 v=0
52092 On ch=1 n=c#5 v=55
52120 On ch=1 n=g#4 v=49
52120 On ch=1 n=b5 v=23
52210 On ch=1 n=c#5 v=0
52246 On ch=1 n=g#4 v=0
52326 On ch=1 n=b5 v=0
52340 On ch=1 n=c#6 v=30
52460 On ch=1 n=e6 v=5
52590 On ch=1 n=c#6 v=0
52608 On ch=1 n=g#5 v=29
52658 On ch=1 n=e6 v=0
52860 On ch=1 n=c#6 v=45
52862 On ch=1 n=g2 v=63
52888 On ch=1 n=e6 v=24
52944 On ch=1 n=g2 v=0
53050 On ch=1 n=g#5 v=0
53104 On ch=1 n=c#6 v=0
53128 On ch=1 n=b5 v=38
53134 On ch=1 n=e6 v=0
53366 On ch=1 n=c#6 v=36
53392 On ch=1 n=e6 v=22
53428 On ch=1 n=b5 v=0
53590 On ch=1 n=c#6 v=0
53686 On ch=1 n=e6 v=0
53704 On ch=1 n=g#5 v=29
53728 On ch=1 n=f5 v=63
53832 On ch=1 n=f5 v=0
53986 On ch=1 n=c#6 v=38
54022 On ch=1 n=e6 v=15
54178 On ch=1 n=g#5 v=0
54216 On ch=1 n=b5 v=42
54266 On ch=1 n=e6 v=0
54274 On ch=1 n=c#6 v=0
54440 On ch=1 n=b5 v=0
54448 On ch=1 n=c#6 v=34
54466 On ch=1 n=e6 v=29
54712 On ch=1 n=g#5 v=37
54718 On ch=1 n=e6 v=0
54756 On ch=1 n=c#6 v=0
54966 On ch=1 n=c#6 v=40
54978 On ch=1 n=e6 v=25
55132 On ch=1 n=g#5 v=0
55222 On ch=1 n=e6 v=0
55234 On ch=1 n=f5 v=80
55246 On ch=1 n=b5 v=29
55250 On ch=1 n=c#6 v=0
55306 On ch=1 n=f5 v=0
55488 On ch=1 n=b5 v=0
55494 On ch=1 n=c#6 v=32
55506 On ch=1 n=e6 v=31
55710 On ch=1 n=g#5 v=48
55726 On ch=1 n=e6 v=0
55842 On ch=1 n=c#6 v=0
55906 On ch=1 n=g#5 v=0
55964 On ch=1 n=g#5 v=45
55980 On ch=1 n=g#6 v=60
56000 On ch=1 n=c#6 v=49
56076 On ch=1 n=g#6 v=0
56076 On ch=1 n=g#5 v=0
56216 On ch=1 n=c#6 v=0
56218 On ch=1 n=b5 v=41
56446 On ch=1 n=c#6 v=40
56456 On ch=1 n=b5 v=0
56478 On ch=1 n=e6 v=17
56716 On ch=1 n=g#5 v=35
56718 On ch=1 n=f5 v=73
56720 On ch=1 n=c#6 v=0
56738 On ch=1 n=e6 v=0
56774 On ch=1 n=f5 v=0
56972 On ch=1 n=c#6 v=31
56998 On ch=1 n=e6 v=20
57116 On ch=1 n=g#5 v=0
57190 On ch=1 n=c#6 v=0
57210 On ch=1 n=b5 v=34
57214 On ch=1 n=e6 v=0
57470 On ch=1 n=g#6 v=54
57480 On ch=1 n=b5 v=0
57482 On ch=1 n=c#6 v=39
57492 On ch=1 n=g#7 v=36
57502 On ch=1 n=e6 v=30
57582 On ch=1 n=g#7 v=0
57588 On ch=1 n=g#6 v=0
57698 On ch=1 n=c#6 v=0
57702 On ch=1 n=g#5 v=39
57718 On ch=1 n=e6 v=0
57938 On ch=1 n=c#6 v=42
57948 On ch=1 n=g#5 v=0
57954 On ch=1 n=e6 v=38
58168 On ch=1 n=b5 v=36
58172 On ch=1 n=e6 v=0
58172 On ch=1 n=c#6 v=0
58396 On ch=1 n=c#6 v=42
58414 On ch=1 n=b5 v=0
58436 On ch=1 n=e6 v=19
58606 On ch=1 n=c#6 v=0
58640 On ch=1 n=g#5 v=34
58688 On ch=1 n=e6 v=0
58884 On ch=1 n=c#6 v=41
58914 On ch=1 n=e6 v=26
58938 On ch=1 n=g#5 v=0
59126 On ch=1 n=b5 v=38
59134 On ch=1 n=c#6 v=0
59152 On ch=1 n=e6 v=0
59360 On ch=1 n=c#6 v=42
59362 On ch=1 n=b5 v=0
59404 On ch=1 n=e6 v=16
59506 On ch=1 n=c#6 v=0
59596 On ch=1 n=g#5 v=37
59606 On ch=1 n=e6 v=0
59860 On ch=1 n=c#6 v=33
59870 On ch=1 n=e6 v=14
59934 On ch=1 n=g#5 v=0
60116 On ch=1 n=b5 v=24
60122 On ch=1 n=c#6 v=0
60146 On ch=1 n=e6 v=0
60348 On ch=1 n=c#6 v=18
60366 On ch=1 n=b5 v=0
60368 On ch=1 n=e6 v=17
60592 On ch=1 n=g#5 v=34
60614 On ch=1 n=c#6 v=0
60632 On ch=1 n=e6 v=0
60830 On ch=1 n=c#6 v=35
60846 On ch=1 n=e6 v=23
60874 On ch=1 n=g#5 v=0
61092 On ch=1 n=b5 v=32
61102 On ch=1 n=e6 v=0
61136 On ch=1 n=c#6 v=0
61314 On ch=1 n=c#6 v=36
61324 On ch=1 n=b5 v=0
61334 On ch=1 n=e6 v=24
61574 On ch=1 n=c#6 v=0
61582 On ch=1 n=g#5 v=28
61604 On ch=1 n=e6 v=0
61832 On ch=1 n=c#6 v=32
61860 On ch=1 n=e6 v=20
61994 On ch=1 n=g#5 v=0
62110 On ch=1 n=c#6 v=0
62110 On ch=1 n=b5 v=26
62172 On ch=1 n=e6 v=0
62364 On ch=1 n=c#6 v=26
62366 On ch=1 n=b5 v=0
62452 On ch=1 n=e6 v=5
62566 On ch=1 n=c#6 v=0
62604 On ch=1 n=e6 v=0
62724 On ch=1 n=g2 v=36
62868 Par ch=1 c=64 v=63
62960 Par ch=1 c=64 v=0
63840 On ch=1 n=b4 v=24
63842 On ch=1 n=e5 v=54
63854 Par ch=1 c=64 v=63
63864 Par ch=1 c=64 v=127
64272 On ch=1 n=b4 v=0
64288 On ch=1 n=e5 v=0
65020 On ch=1 n=c#5 v=55
65036 On ch=1 n=g#4 v=27
65352 Par ch=1 c=64 v=63
65370 Par ch=1 c=64 v=0
65460 Par ch=1 c=64 v=63
65476 Par ch=1 c=64 v=127
65664 On ch=1 n=g2 v=0
65856 On ch=1 n=c#5 v=0
65858 On ch=1 n=g#4 v=0
66136 On ch=1 n=f5 v=78
67382 On ch=1 n=g#5 v=37
67728 On ch=1 n=e6 v=38
67732 On ch=1 n=c#6 v=43
67862 On ch=1 n=f5 v=0
67988 On ch=1 n=b5 v=38
67998 On ch=1 n=g#5 v=0
68006 On ch=1 n=c#6 v=0
68010 On ch=1 n=e6 v=0
68228 On ch=1 n=f5 v=77
68268 On ch=1 n=b5 v=0
68296 On ch=1 n=c#6 v=9
68342 On ch=1 n=f5 v=0
68496 On ch=1 n=c#6 v=0
68522 On ch=1 n=g#5 v=29
68790 On ch=1 n=c#6 v=31
68804 On ch=1 n=e6 v=18
69000 On ch=1 n=g#5 v=0
69060 On ch=1 n=c#6 v=0
69070 On ch=1 n=b5 v=31
69096 On ch=1 n=e6 v=0
69324 On ch=1 n=c#6 v=31
69346 On ch=1 n=e6 v=18
69376 On ch=1 n=b5 v=0
69606 On ch=1 n=c#6 v=0
69614 On ch=1 n=g#5 v=26
69886 On ch=1 n=g#5 v=0
69916 On ch=1 n=e6 v=0
70010 On ch=1 n=f5 v=58
70494 On ch=1 n=f5 v=0
73052 On ch=1 n=g2 v=25
73624 Par ch=1 c=64 v=63
73700 Par ch=1 c=64 v=0
73898 Par ch=1 c=64 v=63
73918 Par ch=1 c=64 v=127
75076 On ch=1 n=b4 v=16
75136 On ch=1 n=e5 v=23
76290 On ch=1 n=c#5 v=17
76302 On ch=1 n=g#4 v=23
77046 On ch=1 n=b4 v=0
77214 On ch=1 n=e5 v=0
78784 Par ch=1 c=67 v=127
79160 On ch=1 n=g2 v=0
79322 Par ch=1 c=64 v=63
79364 Par ch=1 c=64 v=0
79448 On ch=1 n=c#5 v=0
79496 On ch=1 n=g#4 v=0
79862 On ch=1 n=f#2 v=19
79866 On ch=1 n=f#3 v=29
79916 Par ch=1 c=64 v=63
79976 Par ch=1 c=64 v=127
80200 On ch=1 n=f#2 v=0
80274 On ch=1 n=f#3 v=0
81696 On ch=1 n=a#4 v=24
81704 On ch=1 n=f#7 v=82
81716 On ch=1 n=a#5 v=21
81720 On ch=1 n=f#6 v=51
81728 On ch=1 n=f#5 v=51
81752 On ch=1 n=c#5 v=41
81770 On ch=1 n=f#6 v=0
81834 On ch=1 n=f#7 v=0
81838 On ch=1 n=c#5 v=0
81872 On ch=1 n=f#5 v=0
81876 On ch=1 n=a#5 v=0
81904 On ch=1 n=a#4 v=0
83658 On ch=1 n=g#5 v=34
83658 On ch=1 n=c#7 v=77
83680 On ch=1 n=g#4 v=16
83686 On ch=1 n=d5 v=57
83694 Par ch=1 c=64 v=63
83710 On ch=1 n=f#6 v=24
83724 Par ch=1 c=64 v=0
83800 Par ch=1 c=64 v=63
83836 Par ch=1 c=64 v=127
83952 On ch=1 n=g#5 v=0
83972 On ch=1 n=c#6 v=5
84076 On ch=1 n=c#7 v=0
84090 On ch=1 n=g#4 v=0
84106 On ch=1 n=f#6 v=0
84136 On ch=1 n=d5 v=0
84154 On ch=1 n=c#6 v=0
84646 On ch=1 n=b4 v=43
84660 On ch=1 n=e5 v=53
84804 On ch=1 n=b4 v=0
84806 On ch=1 n=e5 v=0
85444 On ch=1 n=e3 v=29
85454 On ch=1 n=e2 v=26
85796 On ch=1 n=e3 v=0
85916 On ch=1 n=e2 v=0
86244 On ch=1 n=c#5 v=47
86254 On ch=1 n=g#4 v=38
86374 On ch=1 n=g#4 v=0
86380 On ch=1 n=c#5 v=0
87212 On ch=1 n=f#3 v=32
87218 On ch=1 n=f#2 v=33
87414 Par ch=1 c=64 v=63
87508 Par ch=1 c=64 v=0
87974 Par ch=1 c=64 v=63
87992 Par ch=1 c=64 v=127
88098 On ch=1 n=f#2 v=0
88146 On ch=1 n=f#3 v=0
89050 On ch=1 n=f#7 v=81
89060 On ch=1 n=f#6 v=63
89060 On ch=1 n=a#4 v=30
89062 On ch=1 n=a#5 v=29
89074 On ch=1 n=f#5 v=60
89088 On ch=1 n=c#7 v=43
89098 On ch=1 n=c#5 v=48
89124 On ch=1 n=f#6 v=0
89152 On ch=1 n=c#7 v=0
89208 On ch=1 n=c#5 v=0
89222 On ch=1 n=f#7 v=0
89228 On ch=1 n=a#5 v=0
89238 On ch=1 n=f#5 v=0
89276 On ch=1 n=a#4 v=0
91054 On ch=1 n=g#5 v=29
91060 On ch=1 n=c#7 v=67
91072 On ch=1 n=c#6 v=50
91078 On ch=1 n=g#4 v=14
91090 On ch=1 n=d5 v=47
91104 On ch=1 n=f#6 v=31
91188 Par ch=1 c=64 v=63
91308 Par ch=1 c=64 v=127
91408 On ch=1 n=g#5 v=0
91502 On ch=1 n=c#7 v=0
91524 On ch=1 n=f#6 v=0
91564 On ch=1 n=c#6 v=0
91594 On ch=1 n=g#4 v=0
91632 On ch=1 n=d5 v=0
91958 On ch=1 n=e5 v=49
91968 On ch=1 n=b4 v=59
92098 On ch=1 n=e5 v=0
92100 On ch=1 n=b4 v=0
92730 On ch=1 n=e3 v=34
92754 On ch=1 n=e2 v=45
93100 On ch=1 n=e3 v=0
93148 On ch=1 n=e2 v=0
93592 On ch=1 n=c#5 v=51
93608 On ch=1 n=g#4 v=38
93748 On ch=1 n=c#5 v=0
93750 On ch=1 n=g#4 v=0
94584 On ch=1 n=f#2 v=37
94594 On ch=1 n=f#3 v=33
95308 Par ch=1 c=64 v=63
95420 Par ch=1 c=64 v=127
95650 On ch=1 n=f#2 v=0
95704 On ch=1 n=f#3 v=0
96516 On ch=1 n=f#7 v=88
96528 On ch=1 n=f#6 v=70
96530 On ch=1 n=a#5 v=37
96532 On ch=1 n=a#4 v=21
96542 On ch=1 n=f#5 v=60
96552 On ch=1 n=c#5 v=58
96560 On ch=1 n=c#7 v=49
96596 On ch=1 n=f#6 v=0
96618 On ch=1 n=c#7 v=0
96640 On ch=1 n=f#7 v=0
97096 On ch=1 n=a#5 v=0
97140 On ch=1 n=f#5 v=0
97766 On ch=1 n=c#5 v=0
97796 On ch=1 n=a#4 v=0
98188 On ch=1 n=c#7 v=80
98192 On ch=1 n=g#5 v=45
98194 On ch=1 n=g#4 v=36
98206 On ch=1 n=c#6 v=58
98206 On ch=1 n=d5 v=60
98208 On ch=1 n=f#6 v=65
98846 On ch=1 n=g#5 v=0
98994 On ch=1 n=d5 v=0
99024 On ch=1 n=g#4 v=0
99160 On ch=1 n=c#6 v=0
99232 On ch=1 n=f#6 v=0
99290 On ch=1 n=c#7 v=0
99942 On ch=1 n=d#7 v=72
99950 On ch=1 n=d#6 v=52
99950 On ch=1 n=d#5 v=65
99954 On ch=1 n=g5 v=48
99958 On ch=1 n=a#6 v=73
99966 On ch=1 n=g4 v=39
99968 On ch=1 n=a#4 v=52
100194 Par ch=1 c=64 v=63
100278 Par ch=1 c=64 v=0
100442 Par ch=1 c=64 v=63
100470 Par ch=1 c=64 v=127
100964 On ch=1 n=g5 v=0
101002 On ch=1 n=d#7 v=0
101008 On ch=1 n=d#5 v=0
101014 On ch=1 n=g4 v=0
101056 On ch=1 n=d#6 v=0
101064 On ch=1 n=a#6 v=0
101114 On ch=1 n=a#4 v=0
101976 On ch=1 n=a#6 v=80
102000 On ch=1 n=c#5 v=36
102004 On ch=1 n=a#5 v=39
102006 On ch=1 n=d#6 v=63
102012 On ch=1 n=f4 v=36
102016 On ch=1 n=f5 v=31
102018 On ch=1 n=b4 v=48
102146 Par ch=1 c=64 v=63
102196 Par ch=1 c=64 v=0
102380 Par ch=1 c=64 v=63
102410 Par ch=1 c=64 v=127
102688 On ch=1 n=c#5 v=0
102704 On ch=1 n=f5 v=0
102772 On ch=1 n=b4 v=0
102812 On ch=1 n=f4 v=0
103774 On ch=1 n=c#2 v=36
103786 On ch=1 n=c#3 v=28
103854 On ch=1 n=c#3 v=0
103864 On ch=1 n=c#2 v=0
105782 On ch=1 n=d#3 v=32
105794 On ch=1 n=d#2 v=42
105800 Par ch=1 c=64 v=63
105880 Par ch=1 c=64 v=0
106310 Par ch=1 c=64 v=63
106324 Par ch=1 c=64 v=127
106344 On ch=1 n=a#5 v=0
106362 On ch=1 n=d#6 v=0
106380 On ch=1 n=a#6 v=0
106750 On ch=1 n=d#2 v=0
106826 On ch=1 n=d#3 v=0
107676 On ch=1 n=d#5 v=62
107678 On ch=1 n=d#7 v=95
107680 On ch=1 n=g5 v=48
107686 On ch=1 n=a#4 v=54
107690 On ch=1 n=d#6 v=79
107690 On ch=1 n=g4 v=41
107694 On ch=1 n=a#6 v=72
108476 On ch=1 n=g5 v=0
108508 On ch=1 n=g4 v=0
108516 On ch=1 n=d#5 v=0
108544 On ch=1 n=a#4 v=0
108564 On ch=1 n=d#7 v=0
108612 On ch=1 n=a#6 v=0
108676 On ch=1 n=d#6 v=0
109366 On ch=1 n=a#6 v=105
109372 On ch=1 n=c#5 v=64
109374 On ch=1 n=f5 v=57
109376 On ch=1 n=f4 v=50
109378 On ch=1 n=b4 v=63
109378 On ch=1 n=a#5 v=90
109384 On ch=1 n=d#6 v=89
110006 On ch=1 n=a#5 v=0
110128 On ch=1 n=f5 v=0
110128 On ch=1 n=c#5 v=0
110176 On ch=1 n=b4 v=0
110180 On ch=1 n=f4 v=0
110202 On ch=1 n=d#6 v=0
110250 On ch=1 n=a#6 v=0
111526 On ch=1 n=e5 v=71
111530 On ch=1 n=c7 v=89
111530 On ch=1 n=c5 v=76
111530 On ch=1 n=e4 v=66
111538 On ch=1 n=g4 v=63
111544 On ch=1 n=c6 v=75
111548 On ch=1 n=g6 v=93
111620 Par ch=1 c=64 v=63
111630 Par ch=1 c=64 v=0
111758 Par ch=1 c=64 v=63
111768 Par ch=1 c=64 v=127
112018 On ch=1 n=c7 v=0
112058 On ch=1 n=g6 v=0
112132 On ch=1 n=c6 v=0
112162 On ch=1 n=e4 v=0
112206 On ch=1 n=g4 v=0
112410 On ch=1 n=c5 v=0
112680 On ch=1 n=a#5 v=114
112682 On ch=1 n=a#4 v=101
112684 On ch=1 n=e5 v=0
112748 On ch=1 n=a#4 v=0
113674 On ch=1 n=c2 v=86
113750 On ch=1 n=c2 v=0
114198 On ch=1 n=a#5 v=0
114560 On ch=1 n=a#5 v=95
114582 On ch=1 n=a#4 v=58
115334 On ch=1 n=a#4 v=0
115914 On ch=1 n=a#5 v=0
116582 On ch=1 n=a#5 v=53
116584 On ch=1 n=a#4 v=48
116734 On ch=1 n=a#4 v=0
116748 On ch=1 n=a#5 v=0
121194 Par ch=1 c=64 v=63
121212 Par ch=1 c=64 v=0
121248 On ch=1 n=c2 v=49
121284 Par ch=1 c=64 v=63
121310 Par ch=1 c=64 v=127
121370 On ch=1 n=c2 v=0
121880 On ch=1 n=e4 v=52
121946 On ch=1 n=g4 v=43
121962 On ch=1 n=c5 v=65
121976 On ch=1 n=c7 v=97
121978 On ch=1 n=e5 v=76
121990 On ch=1 n=g6 v=81
121994 On ch=1 n=c6 v=78
122268 On ch=1 n=c6 v=0
122292 On ch=1 n=c7 v=0
122320 On ch=1 n=g6 v=0
123164 On ch=1 n=a#5 v=112
123170 On ch=1 n=a#4 v=61
123260 On ch=1 n=a#5 v=0
124578 On ch=1 n=a#4 v=0
124936 On ch=1 n=a#5 v=67
124954 On ch=1 n=a#4 v=51
126514 On ch=1 n=a#4 v=0
126544 On ch=1 n=a#5 v=0
127090 On ch=1 n=a#4 v=38
127108 On ch=1 n=a#5 v=29
127914 On ch=1 n=a#4 v=0
129858 On ch=1 n=a#5 v=0
129944 On ch=1 n=c5 v=0
130030 On ch=1 n=e4 v=0
130044 On ch=1 n=g4 v=0
130130 On ch=1 n=e5 v=0
130808 On ch=1 n=c6 v=35
130834 On ch=1 n=g4 v=23
130836 On ch=1 n=c5 v=19
130836 On ch=1 n=g5 v=50
130844 On ch=1 n=e5 v=19
130860 On ch=1 n=e4 v=27
131144 Par ch=1 c=64 v=63
131224 Par ch=1 c=64 v=0
131452 Par ch=1 c=64 v=63
131482 Par ch=1 c=64 v=127
131906 On ch=1 n=c6 v=0
132006 On ch=1 n=c5 v=0
132166 On ch=1 n=g5 v=0
132284 On ch=1 n=a#5 v=81
132322 On ch=1 n=a#4 v=25
132358 On ch=1 n=a#5 v=0
133214 On ch=1 n=a#4 v=0
133278 On ch=1 n=e5 v=0
133368 On ch=1 n=g4 v=0
133480 On ch=1 n=e4 v=0
133778 On ch=1 n=a#4 v=47
133780 On ch=1 n=a#5 v=63
134602 On ch=1 n=c3 v=38
134702 On ch=1 n=c3 v=0
135158 On ch=1 n=a#5 v=0
135168 On ch=1 n=a#4 v=0
135604 On ch=1 n=a#5 v=29
135606 On ch=1 n=a#4 v=28
138188 On ch=1 n=c4 v=24
139396 On ch=1 n=a#4 v=0
139472 On ch=1 n=a#5 v=0
139498 Par ch=1 c=64 v=63
139642 Par ch=1 c=64 v=0
140722 Par ch=1 c=64 v=63
140838 Par ch=1 c=64 v=127
141744 Par ch=1 c=64 v=63
141986 Par ch=1 c=64 v=127
142418 Par ch=1 c=67 v=0
142418 On ch=1 n=c5 v=39
142822 Par ch=1 c=64 v=63
142930 Par ch=1 c=64 v=0
143770 Par ch=1 c=64 v=63
143822 Par ch=1 c=64 v=127
145108 On ch=1 n=c4 v=0
145316 On ch=1 n=c5 v=0
145498 On ch=1 n=c4 v=26
145498 On ch=1 n=c5 v=68
145636 Par ch=1 c=67 v=0
145872 On ch=1 n=c4 v=0
146006 On ch=1 n=c5 v=0
146804 On ch=1 n=c5 v=71
146808 On ch=1 n=a#2 v=39
146822 On ch=1 n=f3 v=39
146840 On ch=1 n=g#4 v=43
146846 On ch=1 n=c4 v=42
146854 On ch=1 n=f4 v=51
146904 Par ch=1 c=64 v=63
146928 Par ch=1 c=64 v=0
147038 Par ch=1 c=64 v=63
147068 Par ch=1 c=64 v=127
147164 On ch=1 n=a#2 v=0
147186 On ch=1 n=c4 v=0
147192 On ch=1 n=f3 v=0
147240 On ch=1 n=f4 v=0
147276 On ch=1 n=g#4 v=0
147334 On ch=1 n=c5 v=0
147948 On ch=1 n=a#4 v=42
147960 On ch=1 n=a#5 v=39
147982 On ch=1 n=g#4 v=23
147998 On ch=1 n=g#5 v=29
148184 On ch=1 n=g#4 v=0
148208 On ch=1 n=a#4 v=0
148692 On ch=1 n=g#5 v=0
148692 On ch=1 n=a#5 v=0
148726 On ch=1 n=c#5 v=70
148738 On ch=1 n=c#4 v=50
149092 On ch=1 n=c#5 v=0
149234 On ch=1 n=c#4 v=0
149456 On ch=1 n=g#5 v=36
149478 On ch=1 n=a#5 v=47
149480 On ch=1 n=a#4 v=21
149484 On ch=1 n=g#4 v=36
150000 On ch=1 n=g#5 v=0
150012 On ch=1 n=a#5 v=0
150062 On ch=1 n=g#4 v=0
150086 On ch=1 n=a#4 v=0
151082 On ch=1 n=g#5 v=21
151088 On ch=1 n=a#5 v=22
151094 On ch=1 n=a#4 v=15
151108 On ch=1 n=g#4 v=23
151260 On ch=1 n=g#5 v=0
151262 On ch=1 n=a#5 v=0
152670 On ch=1 n=a#4 v=0
153054 On ch=1 n=g#4 v=0
153212 On ch=1 n=f5 v=66
153214 On ch=1 n=f4 v=62
155046 On ch=1 n=g#5 v=70
155064 On ch=1 n=g#4 v=36
155240 Par ch=1 c=64 v=63
155292 On ch=1 n=f4 v=0
155298 On ch=1 n=f5 v=0
155324 Par ch=1 c=64 v=127
155488 On ch=1 n=g#4 v=0
155500 On ch=1 n=g#5 v=0
156072 On ch=1 n=g#4 v=39
156080 On ch=1 n=a#2 v=45
156092 On ch=1 n=c5 v=80
156124 On ch=1 n=f3 v=37
156124 On ch=1 n=c4 v=41
156150 On ch=1 n=f4 v=19
156242 Par ch=1 c=64 v=63
156260 Par ch=1 c=64 v=0
156410 Par ch=1 c=64 v=63
156428 Par ch=1 c=64 v=127
156548 On ch=1 n=a#2 v=0
156560 On ch=1 n=c4 v=0
156568 On ch=1 n=f3 v=0
156604 On ch=1 n=f4 v=0
156636 On ch=1 n=g#4 v=0
156650 On ch=1 n=c5 v=0
157024 On ch=1 n=g#4 v=37
157040 On ch=1 n=g#5 v=52
157048 On ch=1 n=a#4 v=18
157062 On ch=1 n=a#5 v=50
157378 On ch=1 n=a#4 v=0
157598 On ch=1 n=g#4 v=0
157784 On ch=1 n=c#4 v=70
157796 On ch=1 n=c#5 v=57
157820 On ch=1 n=a#5 v=0
157858 On ch=1 n=g#5 v=0
157890 On ch=1 n=c#4 v=0
158514 On ch=1 n=a#5 v=64
158516 On ch=1 n=g#5 v=54
158520 On ch=1 n=c#5 v=0
158548 On ch=1 n=a#4 v=31
158556 On ch=1 n=g#4 v=26
158862 On ch=1 n=g#5 v=0
158868 On ch=1 n=a#5 v=0
159744 On ch=1 n=g#4 v=0
159762 On ch=1 n=a#4 v=0
160272 On ch=1 n=a#5 v=39
160276 On ch=1 n=g#5 v=35
160290 On ch=1 n=a#4 v=21
160296 On ch=1 n=g#4 v=31
160406 On ch=1 n=g#5 v=0
160414 On ch=1 n=a#5 v=0
161902 On ch=1 n=f5 v=52
161916 On ch=1 n=f4 v=31
161938 On ch=1 n=g#4 v=0
162078 On ch=1 n=a#4 v=0
162450 Par ch=1 c=67 v=0
162606 On ch=1 n=g#5 v=72
162620 On ch=1 n=g#4 v=67
162914 On ch=1 n=f5 v=0
163310 On ch=1 n=a#5 v=101
163320 On ch=1 n=a#4 v=70
163462 Par ch=1 c=64 v=63
163488 On ch=1 n=f4 v=0
163552 Par ch=1 c=64 v=127
163690 On ch=1 n=g#4 v=0
163694 On ch=1 n=a#4 v=0
163864 On ch=1 n=g#5 v=0
163906 On ch=1 n=a#5 v=0
164164 On ch=1 n=a#2 v=61
164170 On ch=1 n=c6 v=96
164178 On ch=1 n=f3 v=59
164180 On ch=1 n=c5 v=71
164318 Par ch=1 c=64 v=63
164330 Par ch=1 c=64 v=0
164472 Par ch=1 c=64 v=63
164482 Par ch=1 c=64 v=127
164634 On ch=1 n=a#2 v=0
164650 On ch=1 n=c5 v=0
164666 On ch=1 n=f3 v=0
165084 On ch=1 n=a#5 v=69
165092 On ch=1 n=g#4 v=53
165092 On ch=1 n=g#5 v=60
165094 On ch=1 n=a#4 v=47
165344 On ch=1 n=g#5 v=0
165344 On ch=1 n=c6 v=0
165374 On ch=1 n=a#5 v=0
165834 On ch=1 n=f6 v=99
165850 On ch=1 n=f5 v=60
166334 On ch=1 n=g#4 v=0
166384 On ch=1 n=a#4 v=0
166510 On ch=1 n=f6 v=0
166814 On ch=1 n=a#5 v=60
166830 On ch=1 n=f5 v=0
166834 On ch=1 n=g#5 v=34
166842 On ch=1 n=a#4 v=32
166850 On ch=1 n=g#4 v=25
167148 On ch=1 n=g#5 v=0
167196 On ch=1 n=a#5 v=0
167498 On ch=1 n=g#4 v=0
167624 On ch=1 n=a#4 v=0
168390 On ch=1 n=a#4 v=17
168402 On ch=1 n=g#5 v=24
168410 On ch=1 n=a#5 v=21
168418 On ch=1 n=g#4 v=16
168608 On ch=1 n=g#5 v=0
168670 On ch=1 n=a#5 v=0
171466 On ch=1 n=d#6 v=44
171508 On ch=1 n=d#5 v=19
171734 On ch=1 n=d#5 v=0
171788 On ch=1 n=g#4 v=0
171794 On ch=1 n=a#4 v=0
172266 On ch=1 n=d#6 v=0
172444 On ch=1 n=g#2 v=32
172536 On ch=1 n=g#3 v=12
172542 On ch=1 n=f6 v=47
172566 On ch=1 n=f5 v=9
172648 Par ch=1 c=64 v=63
172672 Par ch=1 c=64 v=0
172788 Par ch=1 c=64 v=63
172806 Par ch=1 c=64 v=127
172896 On ch=1 n=g#2 v=0
173000 On ch=1 n=g#3 v=0
173046 On ch=1 n=f6 v=0
173474 On ch=1 n=f5 v=0
173672 On ch=1 n=g#4 v=36
173704 On ch=1 n=a#5 v=30
173712 On ch=1 n=g#5 v=28
173718 On ch=1 n=f#5 v=26
173720 On ch=1 n=a#4 v=19
174076 On ch=1 n=f#5 v=0
174164 On ch=1 n=a#4 v=0
174384 On ch=1 n=g#5 v=0
174418 On ch=1 n=a#5 v=0
174482 On ch=1 n=c6 v=55
174490 On ch=1 n=c5 v=36
174540 On ch=1 n=g#4 v=0
174702 On ch=1 n=c5 v=0
174824 On ch=1 n=c6 v=0
175420 On ch=1 n=a#5 v=34
175426 On ch=1 n=g#5 v=18
175444 On ch=1 n=a#6 v=60
175498 On ch=1 n=f#6 v=21
175610 On ch=1 n=f#6 v=0
175642 On ch=1 n=a#5 v=0
175646 On ch=1 n=g#5 v=0
175674 On ch=1 n=a#6 v=0
177352 On ch=1 n=a#4 v=12
177358 On ch=1 n=a#5 v=30
177366 On ch=1 n=g#4 v=16
177396 On ch=1 n=g#5 v=5
177506 On ch=1 n=f#5 v=5
177758 On ch=1 n=f#5 v=0
177810 On ch=1 n=a#5 v=0
177848 On ch=1 n=g#5 v=0
179966 On ch=1 n=c5 v=25
179996 On ch=1 n=c7 v=50
180038 On ch=1 n=c6 v=7
180044 On ch=1 n=g#4 v=0
180050 On ch=1 n=a#4 v=0
180134 Par ch=1 c=64 v=63
180182 Par ch=1 c=64 v=0
180218 Par ch=1 c=64 v=63
180258 Par ch=1 c=64 v=127
180580 On ch=1 n=c6 v=0
180784 On ch=1 n=c7 v=0
181102 On ch=1 n=c#7 v=70
181112 On ch=1 n=c#5 v=44
181204 On ch=1 n=c#6 v=5
181234 On ch=1 n=c5 v=0
181284 Par ch=1 c=64 v=63
181386 Par ch=1 c=64 v=127
181590 On ch=1 n=c#6 v=0
181634 On ch=1 n=c#5 v=0
181948 On ch=1 n=f#3 v=55
181958 On ch=1 n=c#4 v=34
182252 On ch=1 n=d#5 v=36
182310 On ch=1 n=d#7 v=68
182338 On ch=1 n=d#6 v=33
182338 Par ch=1 c=67 v=127
182348 On ch=1 n=c#7 v=0
182358 On ch=1 n=a#6 v=52
182458 Par ch=1 c=64 v=63
182472 Par ch=1 c=64 v=0
182576 Par ch=1 c=64 v=63
182594 Par ch=1 c=64 v=127
183122 On ch=1 n=g#5 v=41
183134 On ch=1 n=a#4 v=26
183324 On ch=1 n=g#5 v=0
183668 On ch=1 n=a#4 v=0
183684 On ch=1 n=a#5 v=38
183712 On ch=1 n=f5 v=39
183728 On ch=1 n=c5 v=34
183758 On ch=1 n=d#7 v=0
183786 On ch=1 n=d#6 v=0
183810 On ch=1 n=a#6 v=0
184026 On ch=1 n=f#3 v=0
184050 On ch=1 n=c#4 v=0
184092 On ch=1 n=d#5 v=0
184144 On ch=1 n=a#5 v=0
184184 On ch=1 n=c5 v=0
184250 On ch=1 n=f5 v=0
184282 On ch=1 n=c#7 v=85
184308 On ch=1 n=c#6 v=43
184606 On ch=1 n=c#7 v=0
184650 On ch=1 n=c#6 v=0
184698 On ch=1 n=a#4 v=49
184716 On ch=1 n=g#5 v=64
184746 On ch=1 n=d#5 v=58
184846 On ch=1 n=g#5 v=0
184902 On ch=1 n=a#4 v=0
184914 On ch=1 n=c7 v=91
184918 On ch=1 n=d#5 v=0
184920 On ch=1 n=c6 v=68
185124 On ch=1 n=a#5 v=76
185152 On ch=1 n=f5 v=41
185154 On ch=1 n=c7 v=0
185158 On ch=1 n=a#5 v=0
185180 On ch=1 n=c5 v=33
185192 On ch=1 n=c6 v=0
185202 On ch=1 n=f5 v=0
185244 On ch=1 n=c5 v=0
185608 On ch=1 n=a#6 v=93
185616 On ch=1 n=c#4 v=60
185616 Par ch=1 c=64 v=63
185618 On ch=1 n=c#3 v=69
185620 On ch=1 n=a#5 v=69
185622 Par ch=1 c=64 v=0
185632 On ch=1 n=d#6 v=70
185734 Par ch=1 c=64 v=63
185748 Par ch=1 c=64 v=127
185768 On ch=1 n=c#3 v=0
185812 On ch=1 n=c#4 v=0
185968 On ch=1 n=a#5 v=0
186036 On ch=1 n=a#6 v=0
186114 On ch=1 n=d#6 v=0
186156 On ch=1 n=g#5 v=67
186162 On ch=1 n=a#4 v=57
186192 On ch=1 n=d#5 v=64
186280 On ch=1 n=g#5 v=0
186292 On ch=1 n=d#5 v=0
186338 On ch=1 n=a#4 v=0
186422 On ch=1 n=g#6 v=89
186434 On ch=1 n=g#5 v=61
186454 On ch=1 n=f6 v=65
186542 On ch=1 n=g#5 v=0
186588 On ch=1 n=f6 v=0
186596 On ch=1 n=g#6 v=0
186642 On ch=1 n=a#5 v=87
186668 On ch=1 n=f5 v=50
186688 On ch=1 n=a#5 v=0
186688 On ch=1 n=c5 v=43
186716 On ch=1 n=f5 v=0
186772 On ch=1 n=c5 v=0
187104 On ch=1 n=a#6 v=98
187106 On ch=1 n=f#3 v=69
187118 On ch=1 n=f#4 v=62
187118 On ch=1 n=a#5 v=72
187122 On ch=1 n=d#6 v=78
187166 Par ch=1 c=64 v=63
187176 Par ch=1 c=64 v=0
187270 Par ch=1 c=64 v=63
187290 Par ch=1 c=64 v=127
187310 On ch=1 n=f#3 v=0
187352 On ch=1 n=f#4 v=0
187466 On ch=1 n=a#5 v=0
187686 On ch=1 n=g#5 v=63
187694 On ch=1 n=a#4 v=52
187706 On ch=1 n=d#5 v=67
187872 On ch=1 n=g#5 v=0
187886 On ch=1 n=d#5 v=0
187954 On ch=1 n=d#6 v=0
188084 On ch=1 n=a#4 v=0
188088 On ch=1 n=a#6 v=0
188126 On ch=1 n=a#5 v=77
188132 On ch=1 n=f5 v=59
188154 On ch=1 n=c5 v=57
188436 On ch=1 n=a#5 v=0
188470 On ch=1 n=c5 v=0
188514 On ch=1 n=f5 v=0
188892 On ch=1 n=a#4 v=58
188900 On ch=1 n=g#5 v=70
188910 On ch=1 n=d#5 v=74
188914 On ch=1 n=c7 v=101
188918 On ch=1 n=c6 v=86
189122 On ch=1 n=g#5 v=0
189126 On ch=1 n=c6 v=0
189158 On ch=1 n=c7 v=0
189368 On ch=1 n=a#4 v=0
189408 On ch=1 n=a#5 v=89
189418 On ch=1 n=c#7 v=110
189420 On ch=1 n=c#6 v=109
189428 On ch=1 n=d#5 v=0
189428 On ch=1 n=f5 v=52
189442 On ch=1 n=c5 v=52
189478 On ch=1 n=a#5 v=0
189486 On ch=1 n=f5 v=0
189506 On ch=1 n=c#6 v=0
189546 On ch=1 n=c5 v=0
189562 On ch=1 n=c#7 v=0
189970 On ch=1 n=f#3 v=76
189970 On ch=1 n=f#4 v=76
190022 On ch=1 n=f7 v=98
190036 On ch=1 n=f6 v=74
190040 On ch=1 n=a#6 v=88
190058 Par ch=1 c=64 v=63
190070 Par ch=1 c=64 v=0
190162 Par ch=1 c=64 v=63
190182 Par ch=1 c=64 v=127
190200 On ch=1 n=f#3 v=0
190252 On ch=1 n=f#4 v=0
190464 On ch=1 n=f7 v=0
190504 On ch=1 n=f6 v=0
190634 On ch=1 n=g#5 v=78
190650 On ch=1 n=d#5 v=77
190652 On ch=1 n=a#4 v=64
190676 On ch=1 n=a#6 v=0
190874 On ch=1 n=d#7 v=105
190886 On ch=1 n=d#6 v=89
190916 On ch=1 n=d#5 v=0
190962 On ch=1 n=g#5 v=0
191048 On ch=1 n=a#4 v=0
191124 On ch=1 n=a#5 v=84
191140 On ch=1 n=f5 v=59
191148 On ch=1 n=c5 v=61
191164 On ch=1 n=d#7 v=0
191226 On ch=1 n=d#6 v=0
191478 On ch=1 n=a#5 v=0
191516 On ch=1 n=c#7 v=112
191522 On ch=1 n=c#6 v=105
191530 On ch=1 n=c5 v=0
191534 On ch=1 n=f5 v=0
191820 On ch=1 n=c#6 v=0
191864 On ch=1 n=c#7 v=0
191882 On ch=1 n=a#4 v=71
191888 On ch=1 n=g#5 v=84
191900 On ch=1 n=d#5 v=82
192076 On ch=1 n=d#7 v=109
192078 On ch=1 n=g#5 v=0
192086 On ch=1 n=d#6 v=98
192108 On ch=1 n=d#5 v=0
192164 On ch=1 n=a#4 v=0
192280 On ch=1 n=d#7 v=0
192294 On ch=1 n=a#5 v=91
192308 On ch=1 n=f5 v=66
192330 On ch=1 n=d#6 v=0
192334 On ch=1 n=c5 v=59
192592 On ch=1 n=a#5 v=0
192638 On ch=1 n=c5 v=0
192638 On ch=1 n=f5 v=0
192696 On ch=1 n=c7 v=106
192706 On ch=1 n=c6 v=86
193084 On ch=1 n=g#5 v=78
193092 On ch=1 n=a#4 v=59
193100 On ch=1 n=d#5 v=78
193262 On ch=1 n=g#5 v=0
193292 On ch=1 n=c6 v=0
193346 On ch=1 n=d#5 v=0
193374 On ch=1 n=a#4 v=0
193412 On ch=1 n=c7 v=0
193520 On ch=1 n=a#5 v=78
193542 On ch=1 n=f5 v=55
193568 On ch=1 n=c5 v=41
193794 On ch=1 n=a#5 v=0
193850 On ch=1 n=c5 v=0
193852 On ch=1 n=f5 v=0
193968 On ch=1 n=a#6 v=88
193974 On ch=1 n=a#5 v=72
194318 On ch=1 n=a#5 v=0
194364 On ch=1 n=g#5 v=61
194366 On ch=1 n=a#4 v=52
194384 On ch=1 n=d#5 v=65
194538 On ch=1 n=g#5 v=0
194592 On ch=1 n=a#6 v=0
194644 On ch=1 n=a#4 v=0
194810 On ch=1 n=a#5 v=52
194838 On ch=1 n=f5 v=41
194874 On ch=1 n=c5 v=20
194912 On ch=1 n=d#5 v=0
194990 On ch=1 n=a#5 v=0
195066 On ch=1 n=f5 v=0
195084 On ch=1 n=c5 v=0
195300 On ch=1 n=g#5 v=48
195302 On ch=1 n=g#6 v=70
195558 On ch=1 n=g#5 v=0
195682 On ch=1 n=g#6 v=0
195770 On ch=1 n=a#4 v=46
195776 On ch=1 n=g#5 v=52
195786 On ch=1 n=d#5 v=61
195900 On ch=1 n=g#5 v=0
195962 On ch=1 n=a#4 v=0
195972 On ch=1 n=d#5 v=0
195978 On ch=1 n=a#6 v=98
195986 On ch=1 n=a#5 v=81
196076 On ch=1 n=a#5 v=0
196200 On ch=1 n=a#5 v=88
196208 On ch=1 n=a#6 v=0
196234 On ch=1 n=f5 v=38
196252 On ch=1 n=c5 v=33
196276 On ch=1 n=a#5 v=0
196292 On ch=1 n=f5 v=0
196348 On ch=1 n=c5 v=0
196762 On ch=1 n=c4 v=51
196792 On ch=1 n=f3 v=34
196810 On ch=1 n=c7 v=73
196814 Par ch=1 c=64 v=63
196822 On ch=1 n=c6 v=46
196828 On ch=1 n=f6 v=54
196834 Par ch=1 c=64 v=0
196920 Par ch=1 c=64 v=63
196934 Par ch=1 c=64 v=127
196998 On ch=1 n=f3 v=0
197030 On ch=1 n=c4 v=0
197238 On ch=1 n=c7 v=0
197272 On ch=1 n=c6 v=0
197354 On ch=1 n=f6 v=0
197400 On ch=1 n=g#5 v=55
197410 On ch=1 n=a#4 v=49
197420 On ch=1 n=d#5 v=57
197558 On ch=1 n=d#5 v=0
197596 On ch=1 n=g#5 v=0
197628 On ch=1 n=a#4 v=0
197710 On ch=1 n=d#6 v=51
197714 On ch=1 n=g#6 v=72
197760 On ch=1 n=g#5 v=14
197846 On ch=1 n=d#6 v=0
197850 On ch=1 n=g#5 v=0
197888 On ch=1 n=g#6 v=0
197964 On ch=1 n=a#5 v=63
198006 On ch=1 n=f5 v=23
198052 On ch=1 n=a#5 v=0
198094 On ch=1 n=f5 v=0
198496 On ch=1 n=f6 v=49
198528 On ch=1 n=c6 v=35
198546 On ch=1 n=f5 v=9
198940 On ch=1 n=g#5 v=38
198948 On ch=1 n=d#5 v=55
198964 On ch=1 n=a#4 v=45
198994 On ch=1 n=f5 v=0
199090 On ch=1 n=d#5 v=0
199094 On ch=1 n=g#5 v=0
199190 On ch=1 n=a#4 v=0
199432 On ch=1 n=a#5 v=41
199448 On ch=1 n=f5 v=34
199478 On ch=1 n=c5 v=28
199672 On ch=1 n=c6 v=0
199718 On ch=1 n=a#5 v=0
199738 On ch=1 n=f6 v=0
199758 On ch=1 n=f5 v=0
199760 On ch=1 n=c5 v=0
200268 On ch=1 n=a#4 v=52
200288 On ch=1 n=g#5 v=44
200302 On ch=1 n=d#5 v=58
200424 On ch=1 n=g#5 v=0
200460 On ch=1 n=d#5 v=0
200476 On ch=1 n=a#4 v=0
200714 On ch=1 n=a#5 v=75
200742 On ch=1 n=f5 v=51
200770 On ch=1 n=c5 v=29
200794 On ch=1 n=a#5 v=0
200828 On ch=1 n=f5 v=0
200866 On ch=1 n=c5 v=0
201172 On ch=1 n=c4 v=77
201224 Par ch=1 c=64 v=63
201238 Par ch=1 c=64 v=0
201270 On ch=1 n=d#6 v=103
201280 On ch=1 n=a#5 v=69
201284 On ch=1 n=d#5 v=67
201378 Par ch=1 c=64 v=63
201386 Par ch=1 c=64 v=127
201414 On ch=1 n=c4 v=0
201510 On ch=1 n=d#5 v=0
201678 On ch=1 n=a#5 v=0
201794 On ch=1 n=d#6 v=0
201810 On ch=1 n=a#4 v=71
201824 On ch=1 n=g#5 v=58
201828 On ch=1 n=d#5 v=69
201978 On ch=1 n=d#5 v=0
201978 On ch=1 n=g#5 v=0
202164 On ch=1 n=a#4 v=0
202310 On ch=1 n=a#5 v=55
202334 On ch=1 n=f#5 v=58
202360 On ch=1 n=c5 v=43
202476 On ch=1 n=a#5 v=0
202514 On ch=1 n=f#5 v=0
202564 On ch=1 n=c5 v=0
202848 On ch=1 n=g#6 v=79
202854 On ch=1 n=g#5 v=52
202868 On ch=1 n=d#6 v=54
203142 On ch=1 n=g#5 v=0
203354 On ch=1 n=g#5 v=41
203360 On ch=1 n=a#4 v=38
203362 On ch=1 n=d#5 v=58
203574 On ch=1 n=d#5 v=0
203594 On ch=1 n=g#5 v=0
203634 On ch=1 n=a#4 v=0
203654 On ch=1 n=d#6 v=0
203672 On ch=1 n=g#6 v=0
204108 On ch=1 n=a#5 v=28
204122 On ch=1 n=f#5 v=54
204208 On ch=1 n=c5 v=10
204292 On ch=1 n=a#5 v=0
204320 On ch=1 n=f#5 v=0
204374 On ch=1 n=c5 v=0
204956 On ch=1 n=f3 v=33
204958 On ch=1 n=c4 v=42
205008 On ch=1 n=f6 v=63
205016 On ch=1 n=c6 v=35
205050 On ch=1 n=f5 v=12
205108 Par ch=1 c=64 v=63
205130 Par ch=1 c=64 v=0
205178 Par ch=1 c=64 v=63
205214 Par ch=1 c=64 v=127
205298 On ch=1 n=f3 v=0
205316 On ch=1 n=c4 v=0
205588 On ch=1 n=f5 v=0
205764 On ch=1 n=a#4 v=29
205772 On ch=1 n=g#5 v=33
205782 On ch=1 n=d#5 v=47
205928 On ch=1 n=d#5 v=0
205930 On ch=1 n=g#5 v=0
206164 On ch=1 n=c6 v=0
206184 On ch=1 n=f6 v=0
206306 On ch=1 n=a#5 v=49
206332 On ch=1 n=c5 v=42
206334 On ch=1 n=f5 v=28
206340 On ch=1 n=a#4 v=0
206520 On ch=1 n=a#5 v=0
206524 On ch=1 n=f5 v=0
206528 On ch=1 n=c5 v=0
206874 On ch=1 n=c4 v=75
207282 On ch=1 n=c4 v=0
207326 On ch=1 n=a#4 v=69
207338 On ch=1 n=g#5 v=63
207340 On ch=1 n=d#5 v=72
207492 On ch=1 n=g#5 v=0
207506 On ch=1 n=d#5 v=0
207644 On ch=1 n=a#4 v=0
207812 On ch=1 n=a#5 v=74
207824 On ch=1 n=f5 v=49
207828 On ch=1 n=c5 v=54
207964 On ch=1 n=a#5 v=0
207970 On ch=1 n=c5 v=0
207982 On ch=1 n=f5 v=0
208246 On ch=1 n=f4 v=102
208632 On ch=1 n=f4 v=0
208674 On ch=1 n=a#4 v=74
208678 On ch=1 n=g#5 v=73
208684 On ch=1 n=d#5 v=77
208842 On ch=1 n=g#5 v=0
208854 On ch=1 n=d#5 v=0
209170 On ch=1 n=a#5 v=87
209176 On ch=1 n=f5 v=65
209178 On ch=1 n=a#4 v=0
209260 On ch=1 n=a#5 v=0
209286 On ch=1 n=f5 v=0
209844 On ch=1 n=c6 v=101
209852 On ch=1 n=c5 v=78
210384 On ch=1 n=g#5 v=70
210396 On ch=1 n=c5 v=0
210400 On ch=1 n=d#5 v=78
210406 On ch=1 n=a#4 v=60
210606 On ch=1 n=d#5 v=0
210614 On ch=1 n=g#5 v=0
210964 On ch=1 n=c6 v=0
210970 On ch=1 n=a#4 v=0
210992 On ch=1 n=a#5 v=53
210996 On ch=1 n=f5 v=46
211004 On ch=1 n=c5 v=54
211522 On ch=1 n=a#5 v=0
211560 On ch=1 n=c5 v=0
211582 On ch=1 n=f5 v=0
212074 On ch=1 n=a#4 v=63
212082 On ch=1 n=d#5 v=76
212238 On ch=1 n=d#5 v=0
212242 On ch=1 n=a#4 v=0
212354 On ch=1 n=c6 v=98
212368 On ch=1 n=c5 v=77
212776 On ch=1 n=a#5 v=91
212800 On ch=1 n=f5 v=47
212842 On ch=1 n=a#5 v=0
212848 On ch=1 n=f5 v=0
212864 On ch=1 n=c6 v=0
212916 On ch=1 n=c5 v=0
213376 On ch=1 n=f3 v=66
213454 On ch=1 n=a#3 v=66
213504 Par ch=1 c=67 v=127
213588 Par ch=1 c=64 v=63
213598 Par ch=1 c=64 v=127
213614 On ch=1 n=f3 v=0
213620 On ch=1 n=f4 v=87
213662 On ch=1 n=a#3 v=0
213734 On ch=1 n=f4 v=0
213826 On ch=1 n=c6 v=86
213830 On ch=1 n=c5 v=72
213852 On ch=1 n=g#4 v=58
213926 On ch=1 n=c5 v=0
213970 On ch=1 n=g#4 v=0
214588 On ch=1 n=g#5 v=50
214602 On ch=1 n=d#5 v=32
214844 On ch=1 n=d#5 v=0
215136 On ch=1 n=g#5 v=0
215220 On ch=1 n=a#5 v=76
215230 On ch=1 n=a#4 v=46
215242 On ch=1 n=f5 v=42
215244 On ch=1 n=d5 v=45
215348 On ch=1 n=c6 v=0
216238 On ch=1 n=a#4 v=0
216292 On ch=1 n=d5 v=0
216338 On ch=1 n=f5 v=0
216538 On ch=1 n=a#5 v=0
216546 On ch=1 n=g#4 v=46
216562 On ch=1 n=c5 v=53
217100 On ch=1 n=g#5 v=69
217118 On ch=1 n=d#5 v=57
217308 On ch=1 n=d#5 v=0
217502 On ch=1 n=a#5 v=94
217590 On ch=1 n=g#5 v=0
217882 On ch=1 n=d5 v=35
217890 On ch=1 n=a#4 v=38
217900 On ch=1 n=c6 v=94
217906 On ch=1 n=g#4 v=0
217926 On ch=1 n=f5 v=37
217962 On ch=1 n=c5 v=0
218222 On ch=1 n=f5 v=0
218350 On ch=1 n=d5 v=0
218430 On ch=1 n=a#4 v=0
218608 On ch=1 n=d#6 v=77
218670 On ch=1 n=c6 v=0
218702 On ch=1 n=a#5 v=0
218930 On ch=1 n=f3 v=68
219014 Par ch=1 c=64 v=63
219024 Par ch=1 c=64 v=0
219060 On ch=1 n=a#3 v=57
219098 Par ch=1 c=64 v=63
219136 On ch=1 n=f3 v=0
219144 Par ch=1 c=64 v=127
219202 On ch=1 n=a#3 v=0
219234 On ch=1 n=f4 v=75
219362 On ch=1 n=f4 v=0
219430 On ch=1 n=g#4 v=57
219438 On ch=1 n=c6 v=85
219492 On ch=1 n=d#6 v=0
219504 On ch=1 n=c5 v=9
219710 On ch=1 n=c5 v=0
219720 On ch=1 n=g#4 v=0
220172 On ch=1 n=g#5 v=57
220184 On ch=1 n=d#5 v=50
220406 On ch=1 n=d#5 v=0
220768 On ch=1 n=g#5 v=0
220806 On ch=1 n=a#5 v=77
220814 On ch=1 n=a#4 v=42
220838 On ch=1 n=d5 v=40
220840 On ch=1 n=f5 v=41
220924 On ch=1 n=c6 v=0
222198 On ch=1 n=a#4 v=0
222206 On ch=1 n=g#4 v=43
222208 On ch=1 n=c5 v=57
222210 On ch=1 n=d5 v=0
222464 On ch=1 n=f5 v=0
222518 On ch=1 n=a#5 v=0
222796 On ch=1 n=g#5 v=90
222818 On ch=1 n=d#5 v=76
223028 On ch=1 n=d#5 v=0
223496 On ch=1 n=a#5 v=107
223498 On ch=1 n=d5 v=65
223500 On ch=1 n=a#4 v=70
223510 On ch=1 n=f5 v=71
223546 On ch=1 n=g#5 v=0
223550 On ch=1 n=g#4 v=0
223560 On ch=1 n=c5 v=0
223758 On ch=1 n=d5 v=0
223842 On ch=1 n=a#4 v=0
224280 On ch=1 n=c6 v=103
224366 Par ch=1 c=64 v=63
224374 Par ch=1 c=64 v=0
224396 On ch=1 n=a#5 v=0
224414 On ch=1 n=f3 v=76
224518 Par ch=1 c=64 v=63
224532 Par ch=1 c=64 v=127
224548 On ch=1 n=a#3 v=76
224634 On ch=1 n=f3 v=0
224682 On ch=1 n=a#3 v=0
224682 On ch=1 n=f5 v=0
224688 On ch=1 n=f4 v=59
224784 On ch=1 n=f4 v=0
224950 On ch=1 n=d#6 v=100
224956 On ch=1 n=g#4 v=63
224956 On ch=1 n=c5 v=68
225026 On ch=1 n=c6 v=0
225810 On ch=1 n=d#6 v=0
225828 On ch=1 n=g#5 v=50
225830 On ch=1 n=f6 v=77
225838 On ch=1 n=d#5 v=34
225892 On ch=1 n=g#5 v=0
226132 On ch=1 n=f6 v=0
226196 On ch=1 n=c5 v=0
226282 On ch=1 n=d#5 v=0
226556 On ch=1 n=g#4 v=0
226600 On ch=1 n=a#5 v=66
226602 On ch=1 n=a#4 v=51
226604 On ch=1 n=d5 v=43
226606 On ch=1 n=c6 v=73
226624 On ch=1 n=f5 v=33
227614 On ch=1 n=f5 v=0
227878 On ch=1 n=a#5 v=0
228122 On ch=1 n=g#4 v=43
228134 On ch=1 n=c5 v=57
228162 On ch=1 n=d5 v=0
228168 On ch=1 n=a#4 v=0
228386 On ch=1 n=c6 v=0
228806 On ch=1 n=d6 v=85
228834 On ch=1 n=g#5 v=47
228944 On ch=1 n=d#5 v=5
229116 On ch=1 n=d#5 v=0
229616 On ch=1 n=g#5 v=0
229658 On ch=1 n=a#4 v=41
229662 On ch=1 n=a#5 v=74
229670 On ch=1 n=d5 v=33
229696 On ch=1 n=f5 v=32
229744 On ch=1 n=g#4 v=0
229760 On ch=1 n=c5 v=0
229788 On ch=1 n=d6 v=0
230328 On ch=1 n=d5 v=0
230344 On ch=1 n=f5 v=0
230408 On ch=1 n=a#4 v=0
230518 On ch=1 n=g#5 v=61
230612 On ch=1 n=a#5 v=0
230814 On ch=1 n=g#5 v=0
231426 On ch=1 n=c3 v=36
231500 Par ch=1 c=64 v=63
231518 On ch=1 n=g3 v=50
231528 Par ch=1 c=64 v=0
231598 Par ch=1 c=64 v=63
231624 On ch=1 n=c3 v=0
231656 Par ch=1 c=64 v=127
231754 On ch=1 n=g5 v=71
231770 On ch=1 n=g4 v=30
231776 On ch=1 n=d5 v=59
231786 On ch=1 n=e4 v=45
231916 On ch=1 n=a#4 v=5
232094 On ch=1 n=g3 v=0
232208 On ch=1 n=e4 v=0
232730 On ch=1 n=g#5 v=48
232848 On ch=1 n=a#4 v=0
233312 On ch=1 n=d5 v=0
233434 On ch=1 n=a#5 v=39
233470 On ch=1 n=c5 v=29
233480 On ch=1 n=g#5 v=0
233482 On ch=1 n=e5 v=45
234224 On ch=1 n=c5 v=0
234428 On ch=1 n=e5 v=0
234766 On ch=1 n=a#4 v=10
236876 On ch=1 n=b3 v=36
238994 On ch=1 n=c0 v=132
239112 On ch=1 n=g#5 v=49
239222 On ch=1 n=a#4 v=0
239422 On ch=1 n=d5 v=0
239858 On ch=1 n=g#5 v=0
239872 On ch=1 n=a#5 v=25
239898 On ch=1 n=c5 v=16
239898 On ch=1 n=e5 v=28
240762 On ch=1 n=c5 v=0
240876 On ch=1 n=e5 v=0
241258 On ch=1 n=a#5 v=0
241270 On ch=1 n=a#4 v=29
241294 On ch=1 n=d5 v=48
241972 On ch=1 n=g#5 v=45
242176 On ch=1 n=a#4 v=0
242296 On ch=1 n=g4 v=0
242372 On ch=1 n=g#5 v=0
242374 On ch=1 n=g5 v=0
242384 On ch=1 n=d5 v=0
242898 On ch=1 n=a#5 v=33
242926 On ch=1 n=e5 v=33
242974 On ch=1 n=a#5 v=0
242986 On ch=1 n=c5 v=5
243232 On ch=1 n=c5 v=0
243350 On ch=1 n=e5 v=0
244116 On ch=1 n=g#5 v=50
244140 On ch=1 n=g#4 v=24
244628 On ch=1 n=g#5 v=0
244690 On ch=1 n=g#4 v=0
245422 Par ch=1 c=67 v=127
245672 On ch=1 n=g#3 v=43
245680 On ch=1 n=f5 v=68
245682 On ch=1 n=c#3 v=24
245714 On ch=1 n=f4 v=23
246106 Par ch=1 c=64 v=63
246126 Par ch=1 c=64 v=127
246186 On ch=1 n=c#3 v=0
246218 On ch=1 n=g#3 v=0
246508 On ch=1 n=f4 v=0
246598 On ch=1 n=f5 v=0
246708 On ch=1 n=a#4 v=37
246716 On ch=1 n=d#5 v=55
246718 On ch=1 n=g#5 v=37
246856 On ch=1 n=g#5 v=0
246916 On ch=1 n=a#4 v=0
246922 On ch=1 n=d#5 v=0
247388 On ch=1 n=f5 v=39
247400 On ch=1 n=a#5 v=39
247422 On ch=1 n=c5 v=34
247526 On ch=1 n=a#5 v=0
247796 On ch=1 n=c5 v=0
247952 On ch=1 n=f5 v=0
248826 On ch=1 n=g#3 v=31
248832 On ch=1 n=g#4 v=40
248912 On ch=1 n=g#3 v=0
248914 On ch=1 n=g#4 v=0
249586 On ch=1 n=g#5 v=44
249594 On ch=1 n=d#5 v=58
249600 On ch=1 n=a#4 v=31
249712 On ch=1 n=g#5 v=0
249718 On ch=1 n=a#4 v=0
249766 On ch=1 n=d#5 v=0
250158 On ch=1 n=f5 v=33
250162 On ch=1 n=a#5 v=36
250178 On ch=1 n=c5 v=25
250276 On ch=1 n=a#5 v=0
250290 On ch=1 n=c5 v=0
250312 On ch=1 n=f5 v=0
250922 On ch=1 n=c#5 v=90
250932 On ch=1 n=c#4 v=52
251088 On ch=1 n=c#4 v=0
251200 On ch=1 n=c#5 v=0
251714 On ch=1 n=d#5 v=92
251754 On ch=1 n=g#5 v=60
251764 On ch=1 n=d#4 v=40
251814 On ch=1 n=a#4 v=16
251852 On ch=1 n=d#4 v=0
251866 On ch=1 n=g#5 v=0
251956 On ch=1 n=a#4 v=0
252062 On ch=1 n=d#5 v=0
252602 On ch=1 n=g5 v=98
252620 On ch=1 n=g4 v=52
252624 On ch=1 n=a#5 v=36
252658 On ch=1 n=f5 v=38
252716 On ch=1 n=a#5 v=0
253158 On ch=1 n=c5 v=5
253534 On ch=1 n=c#3 v=48
253536 On ch=1 n=g#3 v=51
253648 Par ch=1 c=64 v=63
253660 Par ch=1 c=64 v=0
253806 Par ch=1 c=64 v=63
253820 Par ch=1 c=64 v=127
253938 On ch=1 n=c#3 v=0
253954 On ch=1 n=g#3 v=0
253958 On ch=1 n=g4 v=0
254052 On ch=1 n=g5 v=0
254234 On ch=1 n=f5 v=0
254282 On ch=1 n=c5 v=0
254498 On ch=1 n=g#5 v=87
254530 On ch=1 n=g#4 v=66
254890 On ch=1 n=g#4 v=0
255294 On ch=1 n=f5 v=69
255304 On ch=1 n=a#5 v=58
255352 On ch=1 n=g#5 v=0
255356 On ch=1 n=f4 v=10
255358 On ch=1 n=c5 v=18
255502 On ch=1 n=a#5 v=0
256834 On ch=1 n=g#3 v=48
256834 On ch=1 n=g#4 v=29
256874 On ch=1 n=f4 v=0
256918 On ch=1 n=g#4 v=0
256918 On ch=1 n=g#3 v=0
256998 On ch=1 n=c5 v=0
257018 On ch=1 n=f5 v=0
257412 Par ch=1 c=67 v=127
257586 On ch=1 n=g5 v=80
257608 On ch=1 n=g4 v=33
257618 On ch=1 n=g#5 v=41
257624 On ch=1 n=d#5 v=47
257910 On ch=1 n=g4 v=0
257930 On ch=1 n=g5 v=0
257974 On ch=1 n=d#5 v=0
258258 On ch=1 n=g#5 v=0
258458 On ch=1 n=d#5 v=81
258470 On ch=1 n=a#5 v=36
258484 On ch=1 n=d#4 v=27
258526 On ch=1 n=c5 v=31
258630 On ch=1 n=a#5 v=0
260846 On ch=1 n=c#3 v=18
260848 On ch=1 n=g#3 v=19
261498 On ch=1 n=d#4 v=0
261564 On ch=1 n=c5 v=0
261684 On ch=1 n=d#5 v=0
262502 On ch=1 n=f5 v=68
262538 On ch=1 n=f4 v=23
262744 On ch=1 n=f4 v=0
262962 On ch=1 n=f5 v=0
263050 On ch=1 n=g#3 v=0
263110 On ch=1 n=c#3 v=0
263658 On ch=1 n=c5 v=71
263708 On ch=1 n=c4 v=25
263734 On ch=1 n=f3 v=17
263976 Par ch=1 c=67 v=0
264040 Par ch=1 c=64 v=63
264088 Par ch=1 c=64 v=0
264294 Par ch=1 c=64 v=63
264316 Par ch=1 c=64 v=127
264552 On ch=1 n=d#4 v=33
264588 On ch=1 n=g4 v=27
264704 On ch=1 n=d#4 v=0
264926 On ch=1 n=c4 v=0
265008 On ch=1 n=f3 v=0
265110 On ch=1 n=g4 v=0
265206 On ch=1 n=a4 v=37
265216 On ch=1 n=f4 v=20
266180 On ch=1 n=f4 v=0
266406 On ch=1 n=a4 v=0
266414 On ch=1 n=d#6 v=49
266422 On ch=1 n=d#5 v=25
266548 On ch=1 n=d#6 v=0
266556 On ch=1 n=d#5 v=0
266996 On ch=1 n=d#4 v=39
267000 On ch=1 n=g4 v=45
267160 On ch=1 n=d#4 v=0
267460 On ch=1 n=g4 v=0
267638 On ch=1 n=d#6 v=36
267642 On ch=1 n=d#5 v=37
267642 On ch=1 n=a4 v=27
267666 On ch=1 n=f4 v=23
267766 On ch=1 n=d#5 v=0
267770 On ch=1 n=d#6 v=0
268968 On ch=1 n=d#6 v=39
268976 On ch=1 n=d#5 v=40
269028 On ch=1 n=f4 v=0
269080 On ch=1 n=d#6 v=0
269092 On ch=1 n=d#5 v=0
269134 On ch=1 n=a4 v=0
269608 On ch=1 n=d#4 v=18
269620 On ch=1 n=g4 v=27
269800 On ch=1 n=d#4 v=0
270124 On ch=1 n=g4 v=0
270274 On ch=1 n=a4 v=28
270292 On ch=1 n=f4 v=17
271706 On ch=1 n=c4 v=18
271716 On ch=1 n=f3 v=22
271764 On ch=1 n=f4 v=0
271808 On ch=1 n=a4 v=0
272322 On ch=1 n=d#4 v=29
272330 On ch=1 n=g4 v=32
272564 On ch=1 n=d#4 v=0
272914 On ch=1 n=g4 v=0
272960 On ch=1 n=a4 v=35
272968 On ch=1 n=f4 v=19
273160 Par ch=1 c=64 v=63
273174 Par ch=1 c=64 v=127
273396 On ch=1 n=f3 v=0
273422 On ch=1 n=c4 v=0
274180 On ch=1 n=d#5 v=37
274180 On ch=1 n=d#6 v=30
274258 On ch=1 n=f4 v=0
274268 On ch=1 n=d#6 v=0
274272 On ch=1 n=d#5 v=0
274418 On ch=1 n=a4 v=0
274772 On ch=1 n=d#4 v=24
274782 On ch=1 n=g4 v=26
274952 On ch=1 n=d#4 v=0
275172 On ch=1 n=g4 v=0
275370 On ch=1 n=d#6 v=19
275372 On ch=1 n=d#5 v=31
275394 On ch=1 n=a4 v=22
275412 On ch=1 n=f4 v=11
275524 On ch=1 n=d#5 v=0
275524 On ch=1 n=d#6 v=0
276430 On ch=1 n=f4 v=0
276522 On ch=1 n=a4 v=0
276742 On ch=1 n=d#5 v=35
276758 On ch=1 n=d#6 v=18
276840 On ch=1 n=d#6 v=0
276886 On ch=1 n=d#5 v=0
277458 On ch=1 n=d#4 v=15
277478 On ch=1 n=g4 v=17
277690 On ch=1 n=d#4 v=0
278194 On ch=1 n=g4 v=0
278300 On ch=1 n=a4 v=11
278348 On ch=1 n=f4 v=6
278676 On ch=1 n=f4 v=0
279288 On ch=1 n=a4 v=0
279832 On ch=1 n=c4 v=6
279842 On ch=1 n=f3 v=6
280020 On ch=1 n=f3 v=0
280056 On ch=1 n=c4 v=0
280556 On ch=1 n=d#4 v=7
280566 On ch=1 n=g4 v=20
280808 On ch=1 n=d#4 v=0
281334 On ch=1 n=a4 v=22
281376 On ch=1 n=f4 v=7
281392 On ch=1 n=g4 v=0
281894 On ch=1 n=c5 v=0
282228 On ch=1 n=c5 v=55
283318 On ch=1 n=a4 v=0
283478 On ch=1 n=f4 v=0
284028 On ch=1 n=d#4 v=35
284032 On ch=1 n=g4 v=18
284720 On ch=1 n=g4 v=0
284898 On ch=1 n=a4 v=41
284938 On ch=1 n=f4 v=33
285280 On ch=1 n=d#4 v=0
285384 On ch=1 n=c5 v=0
285966 On ch=1 n=c#5 v=72
286088 On ch=1 n=f4 v=0
286500 On ch=1 n=a4 v=0
287320 On ch=1 n=c#4 v=31
287328 On ch=1 n=a#4 v=87
287334 On ch=1 n=a#3 v=57
287346 On ch=1 n=d#3 v=39
287352 On ch=1 n=f#4 v=52
287454 On ch=1 n=c#5 v=0
287582 Par ch=1 c=64 v=63
287692 Par ch=1 c=64 v=127
287834 On ch=1 n=d#3 v=0
287882 On ch=1 n=a#3 v=0
287904 On ch=1 n=c#4 v=0
287912 On ch=1 n=f#4 v=0
288044 On ch=1 n=a#4 v=0
288400 On ch=1 n=d#5 v=51
288412 On ch=1 n=g#5 v=50
288420 On ch=1 n=a#4 v=36
288874 On ch=1 n=g#5 v=0
289148 On ch=1 n=a#5 v=53
289168 On ch=1 n=c#5 v=31
289182 On ch=1 n=f#5 v=29
289246 On ch=1 n=a#4 v=0
289484 On ch=1 n=a#5 v=0
289886 On ch=1 n=d#5 v=0
290170 On ch=1 n=c#5 v=0
290258 On ch=1 n=f#5 v=0
290316 On ch=1 n=d#6 v=68
290334 On ch=1 n=d#5 v=55
290500 On ch=1 n=d#6 v=0
290626 On ch=1 n=d#6 v=6
291214 On ch=1 n=d#6 v=0
291688 On ch=1 n=d#5 v=0
292148 On ch=1 n=d#6 v=46
292168 On ch=1 n=d#5 v=34
292980 On ch=1 n=g#4 v=72
293358 On ch=1 n=d#5 v=0
293364 On ch=1 n=d#6 v=0
293708 On ch=1 n=d#6 v=37
293728 On ch=1 n=d#5 v=36
294392 On ch=1 n=a#4 v=85
294594 On ch=1 n=g#4 v=0
294720 On ch=1 n=d#5 v=0
294724 On ch=1 n=d#6 v=0
296178 On ch=1 n=a#4 v=0
296190 On ch=1 n=f4 v=70
296450 Par ch=1 c=64 v=63
296532 Par ch=1 c=64 v=0
297074 Par ch=1 c=64 v=63
297100 Par ch=1 c=64 v=127
297760 On ch=1 n=a#4 v=43
297788 On ch=1 n=f#4 v=46
297822 On ch=1 n=a#3 v=21
297832 On ch=1 n=d#3 v=19
298588 On ch=1 n=a#3 v=0
299462 On ch=1 n=f#4 v=0
299522 On ch=1 n=d#4 v=72
299606 On ch=1 n=f4 v=0
299728 On ch=1 n=a#4 v=0
300284 On ch=1 n=d#3 v=0
300294 On ch=1 n=g#5 v=51
300324 On ch=1 n=a#4 v=21
300334 On ch=1 n=d#5 v=47
300600 On ch=1 n=d#5 v=0
300602 On ch=1 n=a#4 v=0
300726 On ch=1 n=g#5 v=0
301022 On ch=1 n=a#5 v=52
301046 On ch=1 n=c4 v=48
301074 On ch=1 n=c5 v=21
301076 On ch=1 n=f5 v=26
301144 On ch=1 n=d#4 v=0
302068 On ch=1 n=c5 v=0
302094 On ch=1 n=a#5 v=0
302122 On ch=1 n=f5 v=0
302756 On ch=1 n=c4 v=0
302756 On ch=1 n=f4 v=51
303050 Par ch=1 c=64 v=63
303180 Par ch=1 c=64 v=0
303662 Par ch=1 c=64 v=63
303680 Par ch=1 c=64 v=127
304256 On ch=1 n=a#4 v=30
304282 On ch=1 n=f#4 v=34
304298 On ch=1 n=a#3 v=34
304354 On ch=1 n=d#3 v=14
305816 On ch=1 n=f4 v=0
305888 On ch=1 n=f#4 v=0
305942 On ch=1 n=a#4 v=0
305958 On ch=1 n=d#4 v=33
306594 On ch=1 n=g#5 v=39
306614 On ch=1 n=a#3 v=0
306620 On ch=1 n=a#4 v=14
306644 On ch=1 n=d#5 v=33
306852 On ch=1 n=d#3 v=0
306888 On ch=1 n=a#4 v=0
306918 On ch=1 n=g#5 v=0
306944 On ch=1 n=d#5 v=0
307158 On ch=1 n=d#4 v=0
307350 On ch=1 n=a#5 v=27
307374 On ch=1 n=c4 v=38
307394 On ch=1 n=c5 v=11
307396 On ch=1 n=f5 v=11
308662 On ch=1 n=c5 v=0
308676 On ch=1 n=f5 v=0
308682 On ch=1 n=a#5 v=0
309012 On ch=1 n=c4 v=0
309624 On ch=1 n=f5 v=56
309640 On ch=1 n=f4 v=21
309806 Par ch=1 c=64 v=63
309856 Par ch=1 c=64 v=0
310076 Par ch=1 c=64 v=63
310096 Par ch=1 c=64 v=127
310504 On ch=1 n=f5 v=0
310516 On ch=1 n=f4 v=0
311908 On ch=1 n=a#4 v=22
311928 On ch=1 n=f#4 v=41
311930 On ch=1 n=a#3 v=15
311950 On ch=1 n=d#3 v=22
311952 On ch=1 n=g#2 v=29
312120 On ch=1 n=d#3 v=0
312132 On ch=1 n=g#2 v=0
312418 On ch=1 n=a#3 v=0
312560 On ch=1 n=f#4 v=0
312612 On ch=1 n=a#4 v=0
313106 On ch=1 n=d#5 v=29
313120 On ch=1 n=g#5 v=26
313122 On ch=1 n=a#4 v=22
313480 On ch=1 n=d#5 v=0
313536 On ch=1 n=a#4 v=0
313636 On ch=1 n=g#5 v=0
315784 On ch=1 n=a#5 v=24
315804 On ch=1 n=c5 v=24
315810 On ch=1 n=f5 v=14
315972 On ch=1 n=c5 v=0
318140 On ch=1 n=f5 v=0
318642 On ch=1 n=a#5 v=0
318930 On ch=1 n=f5 v=10
318952 On ch=1 n=f4 v=11
321898 On ch=1 n=a#4 v=20
321924 On ch=1 n=g#5 v=29
321938 On ch=1 n=d#5 v=11
322486 On ch=1 n=d#5 v=0
322762 On ch=1 n=f5 v=0
322794 On ch=1 n=g#5 v=0
323140 On ch=1 n=a#4 v=0
323282 On ch=1 n=f4 v=0
324380 On ch=1 n=a#5 v=18
324406 On ch=1 n=f5 v=12
324406 On ch=1 n=c5 v=18
324910 On ch=1 n=c5 v=0
325326 On ch=1 n=f5 v=0
325332 On ch=1 n=a#5 v=0
328524 Par ch=1 c=64 v=63
328876 Par ch=1 c=64 v=0
329626 On ch=1 n=c#3 v=16
329626 On ch=1 n=c#2 v=22
329670 Par ch=1 c=64 v=63
329716 Par ch=1 c=64 v=127
329944 On ch=1 n=c#2 v=0
329992 On ch=1 n=c#3 v=0
331686 On ch=1 n=c#5 v=51
331690 On ch=1 n=c#7 v=45
331700 On ch=1 n=f5 v=24
331702 On ch=1 n=g#6 v=62
331704 On ch=1 n=c#6 v=25
331710 On ch=1 n=g#4 v=54
332812 On ch=1 n=f5 v=0
332826 On ch=1 n=c#6 v=0
332834 On ch=1 n=c#5 v=0
332854 On ch=1 n=g#4 v=0
332856 On ch=1 n=g#6 v=0
332860 On ch=1 n=c#7 v=0
334134 On ch=1 n=d#5 v=35
334138 On ch=1 n=g#6 v=52
334152 On ch=1 n=a4 v=41
334154 On ch=1 n=d#4 v=22
334154 On ch=1 n=g#5 v=36
334160 On ch=1 n=b4 v=50
334166 On ch=1 n=c#6 v=53
334452 Par ch=1 c=64 v=63
334578 Par ch=1 c=64 v=127
334752 On ch=1 n=d#5 v=0
334868 On ch=1 n=b4 v=0
334880 On ch=1 n=a4 v=0
335008 On ch=1 n=d#4 v=0
335932 On ch=1 n=g#6 v=0
335972 On ch=1 n=c#6 v=0
336022 On ch=1 n=b1 v=47
336034 On ch=1 n=g#5 v=0
336056 On ch=1 n=b2 v=28
336988 On ch=1 n=b2 v=0
337052 On ch=1 n=g#5 v=44
337080 On ch=1 n=d#5 v=49
337284 On ch=1 n=b1 v=0
337990 On ch=1 n=c#3 v=38
337994 On ch=1 n=c#2 v=35
338212 Par ch=1 c=64 v=63
338236 Par ch=1 c=64 v=0
338306 Par ch=1 c=64 v=63
338336 Par ch=1 c=64 v=127
338462 On ch=1 n=d#5 v=0
338472 On ch=1 n=g#5 v=0
338674 On ch=1 n=c#2 v=0
338748 On ch=1 n=c#3 v=0
338822 On ch=1 n=a#5 v=74
338838 On ch=1 n=f5 v=45
338980 On ch=1 n=f5 v=0
339040 On ch=1 n=a#5 v=0
339876 On ch=1 n=f5 v=36
339888 On ch=1 n=c#5 v=56
339890 On ch=1 n=g#4 v=46
339892 On ch=1 n=c#7 v=95
339910 On ch=1 n=c#6 v=59
339916 On ch=1 n=g#6 v=63
339964 On ch=1 n=c#6 v=0
340052 On ch=1 n=g#6 v=0
340082 On ch=1 n=c#7 v=0
340386 On ch=1 n=f4 v=5
340870 On ch=1 n=g#4 v=0
340872 On ch=1 n=f4 v=0
340882 On ch=1 n=f5 v=0
340886 On ch=1 n=c#5 v=0
341720 On ch=1 n=g#6 v=49
341724 On ch=1 n=d#5 v=33
341742 On ch=1 n=c#6 v=53
341742 On ch=1 n=d#4 v=22
341754 On ch=1 n=g#5 v=11
341756 On ch=1 n=a4 v=38
341758 On ch=1 n=b4 v=36
341958 Par ch=1 c=64 v=63
342002 Par ch=1 c=64 v=0
342198 Par ch=1 c=64 v=63
342220 Par ch=1 c=64 v=127
342440 On ch=1 n=d#5 v=0
342468 On ch=1 n=a4 v=0
342520 On ch=1 n=b4 v=0
342594 On ch=1 n=d#4 v=0
343460 On ch=1 n=g#6 v=0
343498 On ch=1 n=b1 v=25
343508 On ch=1 n=c#6 v=0
343518 On ch=1 n=b2 v=31
343536 On ch=1 n=g#5 v=0
344358 On ch=1 n=d#5 v=44
344364 On ch=1 n=g#5 v=49
344386 On ch=1 n=b1 v=0
344438 On ch=1 n=b2 v=0
345194 On ch=1 n=c#2 v=27
345208 On ch=1 n=c#3 v=26
345336 Par ch=1 c=64 v=63
345394 Par ch=1 c=64 v=0
345452 Par ch=1 c=64 v=63
345488 Par ch=1 c=64 v=127
345640 On ch=1 n=d#5 v=0
345668 On ch=1 n=c#2 v=0
345688 On ch=1 n=g#5 v=0
345772 On ch=1 n=c#3 v=0
346242 On ch=1 n=a#5 v=53
346282 On ch=1 n=f5 v=26
346404 On ch=1 n=a#5 v=0
346410 On ch=1 n=f5 v=0
347336 On ch=1 n=c#7 v=66
347340 On ch=1 n=c#6 v=53
347352 On ch=1 n=c#5 v=46
347370 On ch=1 n=g#4 v=47
347374 On ch=1 n=g#6 v=37
347374 On ch=1 n=f5 v=16
347432 On ch=1 n=c#6 v=0
347448 On ch=1 n=g#6 v=0
347482 On ch=1 n=c#7 v=0
348190 On ch=1 n=f5 v=0
348226 On ch=1 n=c#5 v=0
348266 On ch=1 n=g#4 v=0
349028 On ch=1 n=g#6 v=77
349042 On ch=1 n=d#5 v=35
349046 On ch=1 n=c#6 v=67
349050 On ch=1 n=g#5 v=42
349056 On ch=1 n=a4 v=50
349064 On ch=1 n=b4 v=57
349070 On ch=1 n=d#4 v=26
349710 On ch=1 n=d#5 v=0
349720 On ch=1 n=a4 v=0
349742 On ch=1 n=b4 v=0
349788 On ch=1 n=g#5 v=0
349812 On ch=1 n=d#4 v=0
349856 On ch=1 n=c#6 v=0
350726 On ch=1 n=a#6 v=94
350748 On ch=1 n=a#5 v=57
350756 On ch=1 n=a#4 v=55
350758 On ch=1 n=d5 v=55
350768 On ch=1 n=d4 v=53
350768 On ch=1 n=f6 v=69
350770 On ch=1 n=f4 v=55
350782 On ch=1 n=g#6 v=0
350928 Par ch=1 c=64 v=63
350964 Par ch=1 c=64 v=0
351142 Par ch=1 c=64 v=63
351158 Par ch=1 c=64 v=127
351610 On ch=1 n=f4 v=0
351636 On ch=1 n=a#4 v=0
351682 On ch=1 n=f6 v=0
351728 On ch=1 n=a#6 v=0
351734 On ch=1 n=d5 v=0
351792 On ch=1 n=d4 v=0
351796 On ch=1 n=a#5 v=0
352668 On ch=1 n=f6 v=59
352670 On ch=1 n=a#5 v=51
352682 On ch=1 n=f5 v=35
352686 On ch=1 n=g#4 v=32
352692 On ch=1 n=c4 v=28
352694 On ch=1 n=f#4 v=31
352706 On ch=1 n=c5 v=20
352900 Par ch=1 c=64 v=63
352940 Par ch=1 c=64 v=0
353120 Par ch=1 c=64 v=63
353140 Par ch=1 c=64 v=127
353450 On ch=1 n=g#4 v=0
353500 On ch=1 n=f#4 v=0
353542 On ch=1 n=c5 v=0
353664 On ch=1 n=c4 v=0
354332 On ch=1 n=g#2 v=30
354344 On ch=1 n=g#3 v=26
354474 On ch=1 n=g#2 v=0
354482 On ch=1 n=g#3 v=0
356006 On ch=1 n=a#3 v=39
356012 On ch=1 n=a#2 v=46
356114 Par ch=1 c=64 v=63
356156 Par ch=1 c=64 v=0
356364 Par ch=1 c=64 v=63
356384 Par ch=1 c=64 v=127
356550 On ch=1 n=f5 v=0
356554 On ch=1 n=a#2 v=0
356590 On ch=1 n=a#5 v=0
356646 On ch=1 n=a#3 v=0
356738 On ch=1 n=f6 v=0
357648 On ch=1 n=a#6 v=94
357666 On ch=1 n=d5 v=46
357670 On ch=1 n=a#4 v=52
357676 On ch=1 n=a#5 v=58
357678 On ch=1 n=f6 v=65
357686 On ch=1 n=d4 v=38
357690 On ch=1 n=f4 v=52
358382 On ch=1 n=a#6 v=0
358416 On ch=1 n=a#5 v=0
358546 On ch=1 n=f6 v=0
358582 On ch=1 n=a#4 v=0
358652 On ch=1 n=d5 v=0
358672 On ch=1 n=f4 v=0
358676 On ch=1 n=d4 v=0
359172 On ch=1 n=f6 v=85
359180 On ch=1 n=a#5 v=73
359184 On ch=1 n=f5 v=57
359192 On ch=1 n=g#4 v=61
359196 On ch=1 n=c5 v=53
359196 On ch=1 n=c4 v=46
359196 On ch=1 n=f#4 v=66
359510 Par ch=1 c=64 v=63
359604 Par ch=1 c=64 v=0
359640 Par ch=1 c=64 v=63
359700 Par ch=1 c=64 v=127
359956 On ch=1 n=c4 v=0
359976 On ch=1 n=g#4 v=0
359984 On ch=1 n=c5 v=0
359990 On ch=1 n=f5 v=0
360010 On ch=1 n=f#4 v=0
360038 On ch=1 n=f6 v=0
360090 On ch=1 n=a#5 v=0
361080 On ch=1 n=f#6 v=82
361086 On ch=1 n=a#4 v=46
361096 On ch=1 n=f#5 v=54
361106 On ch=1 n=f#4 v=46
361114 On ch=1 n=c#6 v=67
361124 On ch=1 n=a#3 v=18
361134 On ch=1 n=c#4 v=54
361234 Par ch=1 c=64 v=63
361302 Par ch=1 c=64 v=0
361502 Par ch=1 c=64 v=63
361528 Par ch=1 c=64 v=127
361972 On ch=1 n=c#4 v=0
362010 On ch=1 n=f#4 v=0
362010 On ch=1 n=f#6 v=0
362020 On ch=1 n=a#4 v=0
362026 On ch=1 n=a#3 v=0
362026 On ch=1 n=c#6 v=0
362116 On ch=1 n=f#5 v=0
362800 On ch=1 n=c#6 v=49
362812 On ch=1 n=g#4 v=19
362826 On ch=1 n=f#5 v=51
362830 On ch=1 n=c#5 v=28
362852 On ch=1 n=d4 v=31
362856 On ch=1 n=e4 v=48
362876 On ch=1 n=g#3 v=6
362906 Par ch=1 c=64 v=63
362948 Par ch=1 c=64 v=0
363002 Par ch=1 c=64 v=63
363038 Par ch=1 c=64 v=127
363296 On ch=1 n=c#6 v=0
363342 On ch=1 n=f#5 v=0
363360 On ch=1 n=g#4 v=0
363394 On ch=1 n=c#5 v=0
363600 On ch=1 n=e4 v=0
363614 On ch=1 n=d4 v=0
363742 On ch=1 n=g#3 v=0
363880 On ch=1 n=e5 v=81
363904 On ch=1 n=b4 v=61
364680 On ch=1 n=e3 v=49
364692 On ch=1 n=e2 v=45
364902 On ch=1 n=e5 v=0
364926 On ch=1 n=e3 v=0
365016 On ch=1 n=b4 v=0
365478 On ch=1 n=c#5 v=60
365494 On ch=1 n=g#4 v=21
365510 On ch=1 n=e2 v=0
366426 On ch=1 n=f#3 v=40
366432 On ch=1 n=f#2 v=44
366608 Par ch=1 c=64 v=63
366660 Par ch=1 c=64 v=0
366886 On ch=1 n=g#4 v=0
366900 On ch=1 n=c#5 v=0
366938 Par ch=1 c=64 v=63
366968 Par ch=1 c=64 v=127
367436 On ch=1 n=f#2 v=0
367666 On ch=1 n=f#3 v=0
368486 On ch=1 n=a#4 v=36
368496 On ch=1 n=f#6 v=46
368502 On ch=1 n=a#3 v=35
368524 On ch=1 n=f#5 v=17
368526 On ch=1 n=c#4 v=46
368528 On ch=1 n=f#4 v=47
368530 On ch=1 n=c#6 v=41
369418 On ch=1 n=f#4 v=0
369430 On ch=1 n=f#6 v=0
369440 On ch=1 n=f#5 v=0
369458 On ch=1 n=a#4 v=0
369476 On ch=1 n=c#6 v=0
369498 On ch=1 n=c#4 v=0
369568 On ch=1 n=a#3 v=0
370438 On ch=1 n=c#6 v=42
370450 On ch=1 n=c#5 v=29
370450 On ch=1 n=f#5 v=52
370478 On ch=1 n=d4 v=28
370480 On ch=1 n=g#4 v=11
370492 On ch=1 n=e4 v=34
370568 Par ch=1 c=64 v=63
370620 On ch=1 n=g#3 v=5
370672 Par ch=1 c=64 v=127
370984 On ch=1 n=c#6 v=0
371030 On ch=1 n=f#5 v=0
371136 On ch=1 n=c#5 v=0
371422 On ch=1 n=g#4 v=0
371494 On ch=1 n=d4 v=0
371518 On ch=1 n=g#3 v=0
371524 On ch=1 n=e4 v=0
371608 On ch=1 n=e5 v=48
371636 On ch=1 n=b4 v=37
372470 On ch=1 n=e3 v=31
372476 On ch=1 n=e2 v=28
372676 On ch=1 n=e3 v=0
372716 On ch=1 n=e2 v=0
372802 On ch=1 n=b4 v=0
372820 On ch=1 n=e5 v=0
373502 On ch=1 n=c#5 v=49
373520 On ch=1 n=g#4 v=29
375036 On ch=1 n=g#4 v=0
375064 On ch=1 n=c#5 v=0
377256 On ch=1 n=c#6 v=31
377270 On ch=1 n=f#5 v=50
377280 On ch=1 n=c#5 v=21
377288 On ch=1 n=e4 v=24
377294 On ch=1 n=g#4 v=7
377298 On ch=1 n=d4 v=10
377334 On ch=1 n=g#3 v=5
379766 On ch=1 n=c#6 v=0
379850 On ch=1 n=c#5 v=0
379862 On ch=1 n=f#5 v=0
380004 On ch=1 n=g#3 v=0
380016 On ch=1 n=g#4 v=0
380876 On ch=1 n=b4 v=14
380880 On ch=1 n=d4 v=0
380926 On ch=1 n=e5 v=14
381240 On ch=1 n=e4 v=0
381460 On ch=1 n=e5 v=0
382030 On ch=1 n=b4 v=0
383094 On ch=1 n=c#5 v=25
383106 On ch=1 n=g#4 v=16
383382 On ch=1 n=c#5 v=0
383472 On ch=1 n=g#4 v=0
387006 On ch=1 n=e2 v=35
388136 Par ch=1 c=64 v=63
392472 On ch=1 n=e2 v=0
392690 Par ch=1 c=67 v=127
393256 On ch=1 n=c#2 v=10
393268 On ch=1 n=c#3 v=8
393284 On ch=1 n=g#5 v=15
393354 Par ch=1 c=64 v=63
393380 Par ch=1 c=64 v=127
393714 On ch=1 n=c#2 v=0
393748 On ch=1 n=g#5 v=0
393784 On ch=1 n=f#6 v=16
393796 On ch=1 n=c#3 v=0
393838 On ch=1 n=c#6 v=19
394080 On ch=1 n=f#6 v=0
394108 On ch=1 n=c#6 v=0
394136 On ch=1 n=e6 v=41
394386 On ch=1 n=e6 v=0
394412 On ch=1 n=f#6 v=55
394418 On ch=1 n=c#6 v=37
394614 On ch=1 n=f#6 v=0
394624 On ch=1 n=c#6 v=0
394658 On ch=1 n=g#5 v=43
394864 On ch=1 n=g#5 v=0
394934 On ch=1 n=f#6 v=48
394946 On ch=1 n=c#6 v=29
395126 On ch=1 n=f#6 v=0
395150 On ch=1 n=c#6 v=0
395170 On ch=1 n=e6 v=54
395190 On ch=1 n=b5 v=32
395352 On ch=1 n=b5 v=0
395428 On ch=1 n=e6 v=0
395428 On ch=1 n=f#6 v=57
395430 On ch=1 n=c#6 v=51
395578 On ch=1 n=c#6 v=0
395582 On ch=1 n=f#6 v=0
395664 On ch=1 n=g#5 v=56
395786 On ch=1 n=g#5 v=0
395918 On ch=1 n=g#6 v=72
395924 On ch=1 n=f#6 v=61
395938 On ch=1 n=g#5 v=39
395952 On ch=1 n=c#6 v=44
395984 On ch=1 n=g#5 v=0
396024 On ch=1 n=g#6 v=0
396110 On ch=1 n=f#6 v=0
396136 On ch=1 n=c#6 v=0
396204 On ch=1 n=b5 v=15
396210 On ch=1 n=e6 v=26
396362 On ch=1 n=b5 v=0
396414 On ch=1 n=e6 v=0
396420 On ch=1 n=f#6 v=53
396452 On ch=1 n=c#6 v=38
396650 On ch=1 n=f#6 v=0
396656 On ch=1 n=c#6 v=0
396674 On ch=1 n=g#5 v=43
396860 On ch=1 n=g#5 v=0
396902 On ch=1 n=f#6 v=48
396930 On ch=1 n=c#6 v=37
397098 On ch=1 n=f#6 v=0
397138 On ch=1 n=c#6 v=0
397140 On ch=1 n=e6 v=47
397162 On ch=1 n=b5 v=34
397362 On ch=1 n=b5 v=0
397388 On ch=1 n=g#7 v=61
397396 On ch=1 n=g#6 v=49
397446 On ch=1 n=e6 v=0
397448 On ch=1 n=f#6 v=56
397462 On ch=1 n=g#7 v=0
397472 On ch=1 n=g#6 v=0
397624 On ch=1 n=f#6 v=0
397654 On ch=1 n=g#5 v=39
397842 On ch=1 n=g#5 v=0
397882 On ch=1 n=f#6 v=44
397900 On ch=1 n=c#6 v=46
398072 On ch=1 n=f#6 v=0
398122 On ch=1 n=c#6 v=0
398142 On ch=1 n=b5 v=30
398156 On ch=1 n=e6 v=26
398336 On ch=1 n=b5 v=0
398378 On ch=1 n=f#6 v=53
398400 On ch=1 n=c#6 v=38
398402 On ch=1 n=e6 v=0
398604 On ch=1 n=c#6 v=0
398608 On ch=1 n=f#6 v=0
398612 On ch=1 n=g#5 v=39
398828 On ch=1 n=g#5 v=0
398862 On ch=1 n=f#6 v=51
398864 On ch=1 n=c#6 v=49
399080 On ch=1 n=f#6 v=0
399098 On ch=1 n=c#6 v=0
399110 On ch=1 n=b5 v=44
399128 On ch=1 n=e6 v=39
399298 On ch=1 n=b5 v=0
399358 On ch=1 n=f#6 v=39
399360 On ch=1 n=e6 v=0
399368 On ch=1 n=c#6 v=32
399580 On ch=1 n=f#6 v=0
399584 On ch=1 n=c#6 v=0
399602 On ch=1 n=g#5 v=36
399830 On ch=1 n=f#6 v=50
399834 On ch=1 n=g#5 v=0
399842 On ch=1 n=c#6 v=47
400048 On ch=1 n=f#6 v=0
400078 On ch=1 n=c#6 v=0
400088 On ch=1 n=e6 v=41
400090 On ch=1 n=b5 v=35
400274 On ch=1 n=b5 v=0
400320 On ch=1 n=b4 v=52
400324 On ch=1 n=e5 v=50
400340 On ch=1 n=f#6 v=33
400352 On ch=1 n=e6 v=0
400360 On ch=1 n=c#6 v=17
400426 On ch=1 n=b4 v=0
400456 On ch=1 n=e5 v=0
400516 On ch=1 n=f#6 v=0
400518 On ch=1 n=c#6 v=0
400578 On ch=1 n=g#5 v=35
400812 On ch=1 n=g#5 v=0
400822 On ch=1 n=f#6 v=46
400826 On ch=1 n=c#6 v=48
401032 On ch=1 n=f#6 v=0
401070 On ch=1 n=c#6 v=0
401094 On ch=1 n=c#5 v=72
401096 On ch=1 n=g#4 v=61
401108 On ch=1 n=b5 v=27
401118 On ch=1 n=e6 v=27
401162 On ch=1 n=c#5 v=0
401186 On ch=1 n=g#4 v=0
401280 On ch=1 n=b5 v=0
401328 On ch=1 n=e6 v=0
401344 On ch=1 n=f#6 v=35
401372 On ch=1 n=c#6 v=29
401560 On ch=1 n=f#6 v=0
401568 On ch=1 n=c#6 v=0
401612 On ch=1 n=g#5 v=38
401844 On ch=1 n=f#6 v=50
401854 On ch=1 n=g#5 v=0
401856 On ch=1 n=c#6 v=47
402074 On ch=1 n=f#6 v=0
402148 On ch=1 n=c#6 v=0
402164 On ch=1 n=b5 v=38
402172 On ch=1 n=e6 v=31
402468 On ch=1 n=b5 v=0
402504 On ch=1 n=e6 v=0
402508 On ch=1 n=f#6 v=33
402530 On ch=1 n=c#6 v=29
402698 On ch=1 n=f#6 v=0
402726 On ch=1 n=c#6 v=0
402850 Par ch=1 c=67 v=0
402930 On ch=1 n=g#2 v=90
403082 On ch=1 n=c#3 v=88
403188 On ch=1 n=g#3 v=92
403220 Par ch=1 c=64 v=63
403306 On ch=1 n=c#4 v=79
403306 Par ch=1 c=64 v=0
403472 On ch=1 n=f#4 v=80
406990 Par ch=1 c=64 v=63
407070 Par ch=1 c=64 v=127
407224 On ch=1 n=g#2 v=0
407250 On ch=1 n=c#3 v=0
407278 On ch=1 n=g#3 v=0
407318 On ch=1 n=c#4 v=0
407348 On ch=1 n=f#4 v=0
407998 Par ch=1 c=67 v=127
408298 On ch=1 n=g#5 v=35
408304 On ch=1 n=g#6 v=30
408428 On ch=1 n=g#5 v=0
408464 On ch=1 n=g#6 v=0
408642 On ch=1 n=f#6 v=61
408662 On ch=1 n=c#6 v=47
408900 On ch=1 n=f#6 v=0
408914 On ch=1 n=b5 v=42
408916 On ch=1 n=c#6 v=0
408926 On ch=1 n=e6 v=48
409096 On ch=1 n=b5 v=0
409154 On ch=1 n=f#6 v=54
409170 On ch=1 n=e6 v=0
409174 On ch=1 n=c#6 v=47
409356 On ch=1 n=f#6 v=0
409358 On ch=1 n=c#6 v=0
409396 On ch=1 n=g#5 v=31
409612 On ch=1 n=g#5 v=0
409628 On ch=1 n=f#6 v=55
409636 On ch=1 n=c#6 v=47
409830 On ch=1 n=f#6 v=0
409858 On ch=1 n=c#6 v=0
409880 On ch=1 n=g#7 v=44
409890 On ch=1 n=b5 v=36
409896 On ch=1 n=e6 v=30
409896 On ch=1 n=g#6 v=46
410026 On ch=1 n=g#7 v=0
410032 On ch=1 n=g#6 v=0
410096 On ch=1 n=b5 v=0
410122 On ch=1 n=e6 v=0
410132 On ch=1 n=f#6 v=46
410144 On ch=1 n=c#6 v=40
410338 On ch=1 n=c#6 v=0
410344 On ch=1 n=f#6 v=0
410372 On ch=1 n=g#5 v=33
410600 On ch=1 n=g#5 v=0
410606 On ch=1 n=f#6 v=46
410628 On ch=1 n=c#6 v=40
410822 On ch=1 n=f#6 v=0
410862 On ch=1 n=b5 v=38
410874 On ch=1 n=c#6 v=0
410880 On ch=1 n=e6 v=42
411076 On ch=1 n=b5 v=0
411106 On ch=1 n=f#6 v=36
411114 On ch=1 n=c#6 v=44
411122 On ch=1 n=e6 v=0
411316 On ch=1 n=c#6 v=0
411328 On ch=1 n=f#6 v=0
411356 On ch=1 n=g#5 v=35
411584 On ch=1 n=g#5 v=0
411588 On ch=1 n=f#6 v=37
411602 On ch=1 n=c#6 v=45
411784 On ch=1 n=f#6 v=0
411828 On ch=1 n=c#6 v=0
411842 On ch=1 n=b5 v=40
411844 On ch=1 n=e6 v=36
412052 On ch=1 n=b5 v=0
412080 On ch=1 n=b4 v=49
412080 On ch=1 n=e5 v=39
412080 On ch=1 n=f#6 v=43
412082 On ch=1 n=e6 v=0
412094 On ch=1 n=c#6 v=33
412210 On ch=1 n=b4 v=0
412226 On ch=1 n=e5 v=0
412294 On ch=1 n=c#6 v=0
412296 On ch=1 n=f#6 v=0
412360 On ch=1 n=g#5 v=25
412562 On ch=1 n=g#5 v=0
412588 On ch=1 n=f#6 v=47
412596 On ch=1 n=c#6 v=44
412808 On ch=1 n=f#6 v=0
412832 On ch=1 n=c#6 v=0
412852 On ch=1 n=c#5 v=52
412854 On ch=1 n=g#4 v=44
412876 On ch=1 n=b5 v=20
412884 On ch=1 n=e6 v=23
412962 On ch=1 n=c#5 v=0
412986 On ch=1 n=g#4 v=0
413044 On ch=1 n=b5 v=0
413088 On ch=1 n=e6 v=0
413114 On ch=1 n=f#6 v=26
413124 On ch=1 n=c#6 v=35
413328 On ch=1 n=c#6 v=0
413328 On ch=1 n=f#6 v=0
413370 On ch=1 n=g#5 v=21
413594 On ch=1 n=f#6 v=38
413598 On ch=1 n=g#5 v=0
413608 On ch=1 n=c#6 v=39
413856 On ch=1 n=f#6 v=0
413900 On ch=1 n=c#6 v=0
413912 On ch=1 n=e6 v=39
413916 On ch=1 n=b5 v=33
414196 On ch=1 n=b5 v=0
414216 On ch=1 n=e6 v=0
414234 On ch=1 n=f#6 v=36
414250 On ch=1 n=c#6 v=23
414460 On ch=1 n=f#6 v=0
414474 On ch=1 n=c#6 v=0
414734 On ch=1 n=g#2 v=80
414786 Par ch=1 c=64 v=63
414910 Par ch=1 c=64 v=0
414922 On ch=1 n=c#3 v=66
415056 On ch=1 n=g#3 v=81
415200 On ch=1 n=c#4 v=84
415396 On ch=1 n=f#4 v=91
417924 Par ch=1 c=67 v=127
418584 Par ch=1 c=64 v=63
418714 Par ch=1 c=64 v=127
418952 On ch=1 n=c#4 v=0
418996 On ch=1 n=f#4 v=0
419334 On ch=1 n=g#5 v=23
419378 Par ch=1 c=64 v=63
419446 Par ch=1 c=64 v=127
419722 On ch=1 n=g#5 v=0
419820 On ch=1 n=f#6 v=28
419830 On ch=1 n=c#6 v=39
419832 On ch=1 n=g#3 v=0
419832 On ch=1 n=c#3 v=0
419832 On ch=1 n=g#2 v=0
420086 On ch=1 n=c#6 v=0
420086 On ch=1 n=f#6 v=0
420140 On ch=1 n=e6 v=41
420158 On ch=1 n=b5 v=14
420352 On ch=1 n=b5 v=0
420398 On ch=1 n=e6 v=0
420406 On ch=1 n=f#6 v=48
420422 On ch=1 n=c#6 v=35
420436 On ch=1 n=b4 v=27
420448 On ch=1 n=e5 v=16
420644 On ch=1 n=f#6 v=0
420664 On ch=1 n=c#6 v=0
420730 On ch=1 n=g#5 v=16
420950 On ch=1 n=g#5 v=0
421558 On ch=1 n=c#5 v=37
421568 On ch=1 n=g#4 v=33
421570 On ch=1 n=e5 v=0
421870 On ch=1 n=b4 v=0
423092 On ch=1 n=g#4 v=0
423534 On ch=1 n=c#5 v=0
424414 On ch=1 n=g#2 v=31
424542 On ch=1 n=c#3 v=56
424598 On ch=1 n=g#3 v=39
424672 Par ch=1 c=64 v=63
424706 On ch=1 n=c#4 v=55
424784 Par ch=1 c=64 v=0
424830 On ch=1 n=f#4 v=54
427774 Par ch=1 c=64 v=63
427872 Par ch=1 c=64 v=127
428338 On ch=1 n=c#3 v=0
428346 On ch=1 n=g#3 v=0
428420 On ch=1 n=g#2 v=0
428834 On ch=1 n=f#4 v=0
428862 On ch=1 n=g#2 v=27
428914 On ch=1 n=c#4 v=0
429014 On ch=1 n=c#3 v=25
429154 On ch=1 n=g#3 v=32
429302 On ch=1 n=c#4 v=27
429548 On ch=1 n=f#4 v=28
435514 On ch=1 n=c#3 v=0
435556 On ch=1 n=f#4 v=0
435560 On ch=1 n=g#2 v=0
435564 On ch=1 n=g#3 v=0
435594 On ch=1 n=c#4 v=0
439444 Par ch=1 c=64 v=63
439534 Par ch=1 c=64 v=0
439604 Par ch=1 c=67 v=0
439604 Meta TrkEnd
