MFile 1 2 1024
MTrk
0 TimeSig 3/8 12 8
0 KeySig -6 major
0 Tempo 300000
1536 TimeSig 15/8 12 8
1536 Tempo 260869
8192 Tempo 285714
10752 Tempo 333333
11264 Tempo 285714
12288 Tempo 260869
12800 Tempo 260869
16896 Tempo 260869
23552 Tempo 285714
26112 Tempo 333333
27648 Tempo 260869
32256 Tempo 333333
32768 Tempo 285714
34816 Tempo 260869
38400 Tempo 285714
38912 Tempo 285714
39936 Tempo 333333
40448 Tempo 260869
46080 Tempo 285714
46592 Tempo 333333
48128 Tempo 285714
49664 Tempo 260869
54272 Tempo 285714
55296 Tempo 333333
55808 Tempo 300000
56832 Tempo 260869
60416 Tempo 315789
60928 Tempo 333333
63488 Tempo 260869
70144 Tempo 333333
70656 Tempo 333333
71168 Tempo 285714
72192 Tempo 333333
72704 Tempo 285714
74240 Tempo 260869
77824 Tempo 285714
78848 Tempo 260869
85504 Tempo 333333
86016 Tempo 333333
86528 Tempo 285714
87552 Tempo 333333
88064 Tempo 285714
89600 Tempo 260869
93696 Tempo 333333
94208 Tempo 285714
95744 Tempo 333333
96256 Tempo 285714
96768 Tempo 260869
98304 Tempo 333333
98816 Tempo 285714
100864 Tempo 333333
101376 Tempo 285714
101376 Tempo 285714
103424 Tempo 333333
103936 Tempo 285714
105472 Tempo 260869
105984 Tempo 285714
108032 Tempo 333333
108544 Tempo 400000
109056 Tempo 400000
109568 Tempo 333333
110080 Tempo 333333
110592 Tempo 285714
111104 Tempo 333333
111616 Tempo 285714
112128 Tempo 260869
113664 Tempo 333333
114688 Tempo 285714
116224 Tempo 333333
116736 Tempo 333333
117248 Tempo 260869
118272 Tempo 260869
119808 Tempo 250000
121856 Tempo 240000
124928 Tempo 260869
128512 Tempo 250000
132096 Tempo 333333
132608 Tempo 260869
134656 Tempo 250000
137216 Tempo 240000
145408 Tempo 237154
145920 Tempo 234375
146432 Tempo 231660
146944 Tempo 228136
147456 Tempo 225563
147968 Tempo 223048
148480 Tempo 220588
148992 Tempo 217391
151552 Tempo 260869
154112 Tempo 333333
154624 Tempo 400000
155136 Tempo 400000
156672 Tempo 260869
157696 Tempo 285714
158208 Tempo 281690
158720 Tempo 277777
159232 Tempo 273972
159744 Tempo 269058
160256 Tempo 265486
160768 Tempo 262008
161280 Tempo 258620
161792 Tempo 254237
162816 Tempo 240000
165376 Tempo 230769
173056 Tempo 260869
174592 Tempo 285714
175616 Tempo 333333
176128 Tempo 285714
177664 Tempo 333333
178176 Tempo 750000
185856 Tempo 230769
193538 Meta TrkEnd
TrkEnd
MTrk
0 Meta TrkName "Instrument  1"
0 PrCh ch=1 p=1
0 Par ch=1 c=67 v=0
0 Par ch=1 c=67 v=0
1024 On ch=1 n=a#2 v=35
1024 On ch=1 n=a#3 v=47
1536 Par ch=1 c=67 v=0
1536 Par ch=1 c=64 v=127
1536 Par ch=1 c=67 v=0
1536 Off ch=1 n=a#2 v=0
1536 Off ch=1 n=a#3 v=0
1536 On ch=1 n=d#3 v=40
1536 On ch=1 n=d#4 v=52
1729 Par ch=1 c=64 v=127
1885 Par ch=1 c=64 v=0
2048 On ch=1 n=a#4 v=51
2273 Par ch=1 c=64 v=127
2560 Off ch=1 n=a#4 v=0
2560 On ch=1 n=f#4 v=43
2560 On ch=1 n=d#5 v=52
2854 Par ch=1 c=64 v=0
3072 Off ch=1 n=f#4 v=0
3072 Off ch=1 n=d#5 v=0
3072 On ch=1 n=f#4 v=43
3072 On ch=1 n=a#4 v=43
3072 On ch=1 n=d#5 v=53
3072 On ch=1 n=f5 v=57
3072 Off ch=1 n=d#3 v=0
3072 Off ch=1 n=d#4 v=0
3126 Par ch=1 c=64 v=0
3584 On ch=1 n=a#2 v=37
3584 On ch=1 n=a#3 v=49
4096 Par ch=1 c=64 v=0
4096 Off ch=1 n=f#4 v=0
4096 Off ch=1 n=a#4 v=0
4096 Off ch=1 n=d#5 v=0
4096 Off ch=1 n=f5 v=0
4096 Off ch=1 n=a#2 v=0
4096 Off ch=1 n=a#3 v=0
4096 On ch=1 n=d#3 v=42
4096 On ch=1 n=d#4 v=54
4134 Par ch=1 c=64 v=127
4561 Par ch=1 c=64 v=127
4608 On ch=1 n=a#4 v=54
4716 Par ch=1 c=64 v=127
5120 Off ch=1 n=a#4 v=0
5120 On ch=1 n=d#5 v=46
5120 On ch=1 n=f#5 v=56
5453 Par ch=1 c=64 v=0
5632 Off ch=1 n=d#5 v=0
5632 Off ch=1 n=f#5 v=0
5632 On ch=1 n=a#4 v=50
5632 On ch=1 n=d#5 v=50
5632 On ch=1 n=f5 v=60
5632 On ch=1 n=g#5 v=60
5632 Off ch=1 n=d#3 v=0
5632 Off ch=1 n=d#4 v=0
6144 On ch=1 n=d#3 v=40
6144 On ch=1 n=d#4 v=52
6656 Off ch=1 n=a#4 v=0
6656 Off ch=1 n=d#5 v=0
6656 Off ch=1 n=f5 v=0
6656 Off ch=1 n=g#5 v=0
6656 Off ch=1 n=d#3 v=0
6656 Off ch=1 n=d#4 v=0
6656 On ch=1 n=f#3 v=45
6656 On ch=1 n=f#4 v=57
6694 Par ch=1 c=64 v=127
6734 Par ch=1 c=64 v=0
7168 On ch=1 n=d#5 v=59
7199 Par ch=1 c=64 v=127
7276 Par ch=1 c=64 v=127
7680 Off ch=1 n=d#5 v=0
7680 On ch=1 n=a#4 v=49
7680 On ch=1 n=a#5 v=59
7936 Par ch=1 c=64 v=0
8129 Par ch=1 c=64 v=0
8192 Off ch=1 n=a#4 v=0
8192 Off ch=1 n=a#5 v=0
8192 On ch=1 n=b4 v=57
8192 On ch=1 n=d#5 v=57
8192 On ch=1 n=b5 v=69
8192 Off ch=1 n=f#3 v=0
8192 Off ch=1 n=f#4 v=0
8704 On ch=1 n=f#3 v=42
8704 On ch=1 n=f#4 v=54
9216 Par ch=1 c=67 v=0
9216 Par ch=1 c=64 v=0
9216 Par ch=1 c=67 v=0
9216 Off ch=1 n=b4 v=0
9216 Off ch=1 n=d#5 v=0
9216 Off ch=1 n=b5 v=0
9216 Off ch=1 n=f#3 v=0
9216 Off ch=1 n=f#4 v=0
9216 On ch=1 n=b3 v=48
9216 On ch=1 n=b4 v=60
9371 Par ch=1 c=64 v=127
9409 Par ch=1 c=64 v=127
9604 Par ch=1 c=64 v=127
9728 On ch=1 n=d#5 v=62
10240 Off ch=1 n=d#5 v=0
10240 On ch=1 n=a#4 v=51
10240 On ch=1 n=a#5 v=63
10534 Par ch=1 c=64 v=0
10752 Off ch=1 n=a#4 v=0
10752 Off ch=1 n=a#5 v=0
10752 On ch=1 n=a4 v=52
10752 On ch=1 n=d#5 v=52
10752 On ch=1 n=a5 v=63
10806 Par ch=1 c=64 v=0
10845 Par ch=1 c=64 v=0
11264 Off ch=1 n=a4 v=0
11264 Off ch=1 n=d#5 v=0
11264 Off ch=1 n=a5 v=0
11264 On ch=1 n=d#5 v=57
11264 On ch=1 n=d#6 v=68
11311 Par ch=1 c=64 v=127
11776 Off ch=1 n=d#5 v=0
11776 Off ch=1 n=d#6 v=0
11776 On ch=1 n=d#5 v=58
11776 On ch=1 n=d#6 v=69
11814 Par ch=1 c=64 v=127
12288 Off ch=1 n=d#5 v=0
12288 Off ch=1 n=d#6 v=0
12288 On ch=1 n=d#5 v=65
12396 Par ch=1 c=64 v=127
12800 Off ch=1 n=d#5 v=0
12800 On ch=1 n=g#4 v=53
12800 On ch=1 n=g#5 v=65
13133 Par ch=1 c=64 v=0
13312 Off ch=1 n=g#4 v=0
13312 Off ch=1 n=g#5 v=0
13312 On ch=1 n=g4 v=53
13312 On ch=1 n=d#5 v=53
13312 On ch=1 n=g5 v=64
13312 Off ch=1 n=b3 v=0
13312 Off ch=1 n=b4 v=0
13312 On ch=1 n=b3 v=45
13312 On ch=1 n=b4 v=57
13482 Par ch=1 c=64 v=0
13824 Off ch=1 n=b3 v=0
13824 Off ch=1 n=b4 v=0
13824 On ch=1 n=b3 v=46
13824 On ch=1 n=b4 v=58
13831 Par ch=1 c=64 v=0
14336 Off ch=1 n=g4 v=0
14336 Off ch=1 n=d#5 v=0
14336 Off ch=1 n=g5 v=0
14336 Off ch=1 n=b3 v=0
14336 Off ch=1 n=b4 v=0
14336 On ch=1 n=b3 v=46
14336 On ch=1 n=b4 v=58
14374 Par ch=1 c=64 v=127
14414 Par ch=1 c=64 v=0
14646 Par ch=1 c=64 v=127
14848 On ch=1 n=d#5 v=59
14956 Par ch=1 c=64 v=127
14995 Par ch=1 c=64 v=127
15360 Off ch=1 n=d#5 v=0
15360 On ch=1 n=f#4 v=45
15360 On ch=1 n=f#5 v=57
15616 Par ch=1 c=64 v=0
15809 Par ch=1 c=64 v=0
15872 Off ch=1 n=f#4 v=0
15872 Off ch=1 n=f#5 v=0
15872 On ch=1 n=f4 v=46
15872 On ch=1 n=d5 v=46
15872 On ch=1 n=f5 v=55
16003 Par ch=1 c=64 v=0
16384 Off ch=1 n=b3 v=0
16384 Off ch=1 n=b4 v=0
16384 On ch=1 n=a#2 v=48
16384 On ch=1 n=a#3 v=60
16896 Par ch=1 c=67 v=0
16896 Par ch=1 c=64 v=127
16896 Par ch=1 c=67 v=0
16896 Off ch=1 n=f4 v=0
16896 Off ch=1 n=d5 v=0
16896 Off ch=1 n=f5 v=0
16896 Off ch=1 n=a#2 v=0
16896 Off ch=1 n=a#3 v=0
16896 On ch=1 n=d#3 v=40
16896 On ch=1 n=d#4 v=52
17089 Par ch=1 c=64 v=127
17245 Par ch=1 c=64 v=0
17408 On ch=1 n=a#4 v=51
17633 Par ch=1 c=64 v=127
17920 Off ch=1 n=a#4 v=0
17920 On ch=1 n=f#4 v=43
17920 On ch=1 n=d#5 v=52
18214 Par ch=1 c=64 v=0
18432 Off ch=1 n=f#4 v=0
18432 Off ch=1 n=d#5 v=0
18432 On ch=1 n=f#4 v=43
18432 On ch=1 n=a#4 v=43
18432 On ch=1 n=d#5 v=53
18432 On ch=1 n=f5 v=57
18432 Off ch=1 n=d#3 v=0
18432 Off ch=1 n=d#4 v=0
18486 Par ch=1 c=64 v=0
18944 On ch=1 n=a#2 v=37
18944 On ch=1 n=a#3 v=49
19456 Par ch=1 c=64 v=0
19456 Off ch=1 n=f#4 v=0
19456 Off ch=1 n=a#4 v=0
19456 Off ch=1 n=d#5 v=0
19456 Off ch=1 n=f5 v=0
19456 Off ch=1 n=a#2 v=0
19456 Off ch=1 n=a#3 v=0
19456 On ch=1 n=d#3 v=42
19456 On ch=1 n=d#4 v=54
19494 Par ch=1 c=64 v=127
19921 Par ch=1 c=64 v=127
19968 On ch=1 n=a#4 v=54
20076 Par ch=1 c=64 v=127
20480 Off ch=1 n=a#4 v=0
20480 On ch=1 n=d#5 v=46
20480 On ch=1 n=f#5 v=56
20813 Par ch=1 c=64 v=0
20992 Off ch=1 n=d#5 v=0
20992 Off ch=1 n=f#5 v=0
20992 On ch=1 n=a#4 v=50
20992 On ch=1 n=d#5 v=50
20992 On ch=1 n=f5 v=60
20992 On ch=1 n=g#5 v=60
20992 Off ch=1 n=d#3 v=0
20992 Off ch=1 n=d#4 v=0
21504 On ch=1 n=d#3 v=40
21504 On ch=1 n=d#4 v=52
22016 Off ch=1 n=a#4 v=0
22016 Off ch=1 n=d#5 v=0
22016 Off ch=1 n=f5 v=0
22016 Off ch=1 n=g#5 v=0
22016 Off ch=1 n=d#3 v=0
22016 Off ch=1 n=d#4 v=0
22016 On ch=1 n=f#3 v=45
22016 On ch=1 n=f#4 v=57
22054 Par ch=1 c=64 v=127
22094 Par ch=1 c=64 v=0
22528 On ch=1 n=d#5 v=59
22559 Par ch=1 c=64 v=127
22636 Par ch=1 c=64 v=127
23040 Off ch=1 n=d#5 v=0
23040 On ch=1 n=a#4 v=49
23040 On ch=1 n=a#5 v=59
23296 Par ch=1 c=64 v=0
23489 Par ch=1 c=64 v=0
23552 Off ch=1 n=a#4 v=0
23552 Off ch=1 n=a#5 v=0
23552 On ch=1 n=b4 v=57
23552 On ch=1 n=d#5 v=57
23552 On ch=1 n=b5 v=69
23552 Off ch=1 n=f#3 v=0
23552 Off ch=1 n=f#4 v=0
24064 On ch=1 n=f#3 v=42
24064 On ch=1 n=f#4 v=54
24576 Par ch=1 c=67 v=0
24576 Par ch=1 c=64 v=0
24576 Par ch=1 c=67 v=0
24576 Off ch=1 n=b4 v=0
24576 Off ch=1 n=d#5 v=0
24576 Off ch=1 n=b5 v=0
24576 Off ch=1 n=f#3 v=0
24576 Off ch=1 n=f#4 v=0
24576 On ch=1 n=b3 v=48
24576 On ch=1 n=b4 v=60
24731 Par ch=1 c=64 v=127
24769 Par ch=1 c=64 v=127
24964 Par ch=1 c=64 v=127
25088 On ch=1 n=d#5 v=62
25600 Off ch=1 n=d#5 v=0
25600 On ch=1 n=a#4 v=51
25600 On ch=1 n=a#5 v=63
25894 Par ch=1 c=64 v=0
26112 Off ch=1 n=a#4 v=0
26112 Off ch=1 n=a#5 v=0
26112 On ch=1 n=a4 v=52
26112 On ch=1 n=d#5 v=52
26112 On ch=1 n=a5 v=63
26166 Par ch=1 c=64 v=0
26205 Par ch=1 c=64 v=0
26624 Off ch=1 n=a4 v=0
26624 Off ch=1 n=d#5 v=0
26624 Off ch=1 n=a5 v=0
26624 On ch=1 n=d#5 v=57
26624 On ch=1 n=d#6 v=68
26671 Par ch=1 c=64 v=127
27136 Off ch=1 n=d#5 v=0
27136 Off ch=1 n=d#6 v=0
27136 On ch=1 n=d#5 v=58
27136 On ch=1 n=d#6 v=69
27174 Par ch=1 c=64 v=127
27648 Off ch=1 n=d#5 v=0
27648 Off ch=1 n=d#6 v=0
27648 On ch=1 n=d#5 v=65
27756 Par ch=1 c=64 v=127
28160 Off ch=1 n=d#5 v=0
28160 On ch=1 n=g#4 v=53
28160 On ch=1 n=g#5 v=65
28493 Par ch=1 c=64 v=0
28672 Off ch=1 n=g#4 v=0
28672 Off ch=1 n=g#5 v=0
28672 On ch=1 n=g4 v=53
28672 On ch=1 n=d#5 v=53
28672 On ch=1 n=g5 v=64
28672 Off ch=1 n=b3 v=0
28672 Off ch=1 n=b4 v=0
28672 On ch=1 n=b3 v=45
28672 On ch=1 n=b4 v=57
28842 Par ch=1 c=64 v=0
29184 Off ch=1 n=b3 v=0
29184 Off ch=1 n=b4 v=0
29184 On ch=1 n=b3 v=46
29184 On ch=1 n=b4 v=58
29191 Par ch=1 c=64 v=0
29696 Off ch=1 n=g4 v=0
29696 Off ch=1 n=d#5 v=0
29696 Off ch=1 n=g5 v=0
29696 Off ch=1 n=b3 v=0
29696 Off ch=1 n=b4 v=0
29696 On ch=1 n=b3 v=46
29696 On ch=1 n=b4 v=58
29734 Par ch=1 c=64 v=127
29774 Par ch=1 c=64 v=0
30006 Par ch=1 c=64 v=127
30208 On ch=1 n=d#5 v=59
30316 Par ch=1 c=64 v=127
30355 Par ch=1 c=64 v=127
30720 Off ch=1 n=d#5 v=0
30720 On ch=1 n=f#4 v=45
30720 On ch=1 n=f#5 v=57
30976 Par ch=1 c=64 v=0
31169 Par ch=1 c=64 v=0
31232 Off ch=1 n=f#4 v=0
31232 Off ch=1 n=f#5 v=0
31232 On ch=1 n=f4 v=46
31232 On ch=1 n=d5 v=46
31232 On ch=1 n=f5 v=55
31363 Par ch=1 c=64 v=0
31744 Off ch=1 n=b3 v=0
31744 Off ch=1 n=b4 v=0
31744 On ch=1 n=a#2 v=48
31744 On ch=1 n=a#3 v=60
32256 Par ch=1 c=67 v=0
32256 Par ch=1 c=67 v=0
32256 Off ch=1 n=f4 v=0
32256 Off ch=1 n=d5 v=0
32256 Off ch=1 n=f5 v=0
32256 Off ch=1 n=a#2 v=0
32256 Off ch=1 n=a#3 v=0
32256 On ch=1 n=g#3 v=38
32256 On ch=1 n=g#4 v=50
32411 Par ch=1 c=64 v=127
32411 Par ch=1 c=64 v=127
32411 Par ch=1 c=64 v=127
32768 On ch=1 n=a#4 v=55
33280 Off ch=1 n=a#4 v=0
33280 On ch=1 n=d5 v=55
33280 On ch=1 n=a#5 v=60
33792 Off ch=1 n=d5 v=0
33792 Off ch=1 n=a#5 v=0
33792 On ch=1 n=b4 v=56
33792 On ch=1 n=d5 v=56
33792 On ch=1 n=b5 v=61
33792 Off ch=1 n=g#3 v=0
33792 Off ch=1 n=g#4 v=0
33885 Par ch=1 c=64 v=0
33885 Par ch=1 c=64 v=0
33885 Par ch=1 c=64 v=0
34304 On ch=1 n=g#3 v=42
34304 On ch=1 n=g#4 v=54
34816 Off ch=1 n=b4 v=0
34816 Off ch=1 n=d5 v=0
34816 Off ch=1 n=b5 v=0
34816 Off ch=1 n=g#3 v=0
34816 Off ch=1 n=g#4 v=0
34816 On ch=1 n=f#3 v=43
34816 On ch=1 n=f#4 v=55
35087 Par ch=1 c=64 v=127
35087 Par ch=1 c=64 v=127
35087 Par ch=1 c=64 v=127
35328 On ch=1 n=b4 v=59
35840 Off ch=1 n=b4 v=0
35840 On ch=1 n=d#5 v=60
35840 On ch=1 n=b5 v=65
36352 Off ch=1 n=d#5 v=0
36352 Off ch=1 n=b5 v=0
36352 On ch=1 n=d5 v=60
36352 On ch=1 n=g#5 v=60
36352 On ch=1 n=a#5 v=60
36352 On ch=1 n=d6 v=65
36352 Off ch=1 n=f#3 v=0
36352 Off ch=1 n=f#4 v=0
36522 Par ch=1 c=64 v=0
36522 Par ch=1 c=64 v=0
36522 Par ch=1 c=64 v=0
36864 On ch=1 n=f3 v=49
36864 On ch=1 n=f4 v=61
36871 Par ch=1 c=64 v=0
36871 Par ch=1 c=64 v=0
36871 Par ch=1 c=64 v=0
37376 Off ch=1 n=d5 v=0
37376 Off ch=1 n=g#5 v=0
37376 Off ch=1 n=a#5 v=0
37376 Off ch=1 n=d6 v=0
37376 Off ch=1 n=f3 v=0
37376 Off ch=1 n=f4 v=0
37376 On ch=1 n=d#3 v=51
37376 On ch=1 n=d#4 v=63
37686 Par ch=1 c=64 v=127
37686 Par ch=1 c=64 v=127
37686 Par ch=1 c=64 v=127
37888 On ch=1 n=d#5 v=63
38400 Off ch=1 n=d#5 v=0
38400 On ch=1 n=d#5 v=64
38400 On ch=1 n=g#5 v=64
38400 On ch=1 n=b5 v=64
38400 On ch=1 n=d#6 v=69
38912 Off ch=1 n=d#5 v=0
38912 Off ch=1 n=g#5 v=0
38912 Off ch=1 n=b5 v=0
38912 Off ch=1 n=d#6 v=0
38912 On ch=1 n=f#5 v=65
38912 On ch=1 n=b5 v=65
38912 On ch=1 n=d#6 v=65
38912 On ch=1 n=f#6 v=74
38912 Off ch=1 n=d#3 v=0
38912 Off ch=1 n=d#4 v=0
39043 Par ch=1 c=64 v=0
39043 Par ch=1 c=64 v=0
39043 Par ch=1 c=64 v=0
39424 On ch=1 n=d#4 v=57
39424 On ch=1 n=d#5 v=69
39936 Par ch=1 c=67 v=0
39936 Par ch=1 c=67 v=0
39936 Off ch=1 n=f#5 v=0
39936 Off ch=1 n=b5 v=0
39936 Off ch=1 n=d#6 v=0
39936 Off ch=1 n=f#6 v=0
39936 Off ch=1 n=d#4 v=0
39936 Off ch=1 n=d#5 v=0
39936 On ch=1 n=c#4 v=54
39936 On ch=1 n=c#5 v=66
40091 Par ch=1 c=64 v=127
40091 Par ch=1 c=64 v=127
40091 Par ch=1 c=64 v=127
40448 On ch=1 n=d#5 v=65
40960 Off ch=1 n=d#5 v=0
40960 On ch=1 n=g5 v=65
40960 On ch=1 n=d#6 v=70
41472 Off ch=1 n=g5 v=0
41472 Off ch=1 n=d#6 v=0
41472 On ch=1 n=e5 v=66
41472 On ch=1 n=g5 v=66
41472 On ch=1 n=e6 v=71
41472 Off ch=1 n=c#4 v=0
41472 Off ch=1 n=c#5 v=0
41565 Par ch=1 c=64 v=0
41565 Par ch=1 c=64 v=0
41565 Par ch=1 c=64 v=0
41984 On ch=1 n=c#4 v=59
41984 On ch=1 n=c#5 v=71
42496 Off ch=1 n=e5 v=0
42496 Off ch=1 n=g5 v=0
42496 Off ch=1 n=e6 v=0
42496 Off ch=1 n=c#4 v=0
42496 Off ch=1 n=c#5 v=0
42496 On ch=1 n=b3 v=61
42496 On ch=1 n=b4 v=73
42767 Par ch=1 c=64 v=127
42767 Par ch=1 c=64 v=127
42767 Par ch=1 c=64 v=127
43008 On ch=1 n=e5 v=68
43520 Off ch=1 n=e5 v=0
43520 On ch=1 n=g#5 v=69
43520 On ch=1 n=e6 v=74
44032 Off ch=1 n=g#5 v=0
44032 Off ch=1 n=e6 v=0
44032 On ch=1 n=g5 v=70
44032 On ch=1 n=c#6 v=70
44032 On ch=1 n=d#6 v=70
44032 On ch=1 n=g6 v=75
44032 Off ch=1 n=b3 v=0
44032 Off ch=1 n=b4 v=0
44202 Par ch=1 c=64 v=0
44202 Par ch=1 c=64 v=0
44202 Par ch=1 c=64 v=0
44544 On ch=1 n=a#3 v=67
44544 On ch=1 n=a#4 v=79
44551 Par ch=1 c=64 v=0
44551 Par ch=1 c=64 v=0
44551 Par ch=1 c=64 v=0
45056 Off ch=1 n=g5 v=0
45056 Off ch=1 n=c#6 v=0
45056 Off ch=1 n=d#6 v=0
45056 Off ch=1 n=g6 v=0
45056 Off ch=1 n=a#3 v=0
45056 Off ch=1 n=a#4 v=0
45056 On ch=1 n=g#3 v=69
45056 On ch=1 n=g#4 v=81
45366 Par ch=1 c=64 v=127
45366 Par ch=1 c=64 v=127
45366 Par ch=1 c=64 v=127
45568 On ch=1 n=g#5 v=72
46080 Off ch=1 n=g#5 v=0
46080 On ch=1 n=c#6 v=73
46080 On ch=1 n=e6 v=73
46080 On ch=1 n=g#6 v=78
46592 Off ch=1 n=c#6 v=0
46592 Off ch=1 n=e6 v=0
46592 Off ch=1 n=g#6 v=0
46592 On ch=1 n=b5 v=74
46592 On ch=1 n=e6 v=74
46592 On ch=1 n=g#6 v=74
46592 On ch=1 n=b6 v=79
46592 Off ch=1 n=g#3 v=0
46592 Off ch=1 n=g#4 v=0
46723 Par ch=1 c=64 v=0
46723 Par ch=1 c=64 v=0
46723 Par ch=1 c=64 v=0
47104 On ch=1 n=g#2 v=69
47104 On ch=1 n=g#3 v=81
47616 Par ch=1 c=67 v=0
47616 Par ch=1 c=67 v=0
47616 Off ch=1 n=b5 v=0
47616 Off ch=1 n=e6 v=0
47616 Off ch=1 n=g#6 v=0
47616 Off ch=1 n=b6 v=0
47616 Off ch=1 n=g#2 v=0
47616 Off ch=1 n=g#3 v=0
47616 On ch=1 n=a2 v=70
47616 On ch=1 n=a3 v=82
47771 Par ch=1 c=64 v=127
48128 On ch=1 n=b5 v=79
48640 Off ch=1 n=b5 v=0
48640 On ch=1 n=d#6 v=66
48640 On ch=1 n=f#6 v=66
48640 On ch=1 n=b6 v=79
49152 Off ch=1 n=d#6 v=0
49152 Off ch=1 n=f#6 v=0
49152 Off ch=1 n=b6 v=0
49152 On ch=1 n=a#5 v=66
49152 On ch=1 n=d#6 v=66
49152 On ch=1 n=f#6 v=66
49152 On ch=1 n=a#6 v=78
49152 Off ch=1 n=a2 v=0
49152 Off ch=1 n=a3 v=0
49152 On ch=1 n=a#2 v=69
49152 On ch=1 n=a#3 v=80
49245 Par ch=1 c=64 v=0
49664 Off ch=1 n=a#2 v=0
49664 Off ch=1 n=a#3 v=0
49664 On ch=1 n=d#3 v=68
49664 On ch=1 n=d#4 v=80
50176 Off ch=1 n=a#5 v=0
50176 Off ch=1 n=d#6 v=0
50176 Off ch=1 n=f#6 v=0
50176 Off ch=1 n=a#6 v=0
50176 Off ch=1 n=d#3 v=0
50176 Off ch=1 n=d#4 v=0
50176 On ch=1 n=f3 v=68
50176 On ch=1 n=f4 v=80
50447 Par ch=1 c=64 v=127
50688 On ch=1 n=d#5 v=71
51200 Off ch=1 n=d#5 v=0
51200 On ch=1 n=a#5 v=58
51200 On ch=1 n=d#6 v=70
51712 Off ch=1 n=a#5 v=0
51712 Off ch=1 n=d#6 v=0
51712 On ch=1 n=a#4 v=58
51712 On ch=1 n=d#5 v=58
51712 On ch=1 n=a#5 v=70
51882 Par ch=1 c=64 v=0
52224 Off ch=1 n=f3 v=0
52224 Off ch=1 n=f4 v=0
52224 On ch=1 n=f#3 v=66
52224 On ch=1 n=f#4 v=77
52231 Par ch=1 c=64 v=0
52736 Off ch=1 n=a#4 v=0
52736 Off ch=1 n=d#5 v=0
52736 Off ch=1 n=a#5 v=0
52736 Off ch=1 n=f#3 v=0
52736 Off ch=1 n=f#4 v=0
52736 On ch=1 n=a#3 v=65
52736 On ch=1 n=a#4 v=76
53046 Par ch=1 c=64 v=127
53248 On ch=1 n=f4 v=69
53760 Off ch=1 n=f4 v=0
53760 On ch=1 n=d#5 v=56
53760 On ch=1 n=f5 v=68
54272 Off ch=1 n=d#5 v=0
54272 Off ch=1 n=f5 v=0
54272 On ch=1 n=f#4 v=56
54272 On ch=1 n=d#5 v=56
54272 On ch=1 n=f#5 v=67
54272 Off ch=1 n=a#3 v=0
54272 Off ch=1 n=a#4 v=0
54403 Par ch=1 c=64 v=0
54784 On ch=1 n=a#2 v=53
54784 On ch=1 n=a#3 v=64
55296 Par ch=1 c=67 v=0
55296 Par ch=1 c=67 v=0
55296 Off ch=1 n=f#4 v=0
55296 Off ch=1 n=d#5 v=0
55296 Off ch=1 n=f#5 v=0
55296 Off ch=1 n=a#2 v=0
55296 Off ch=1 n=a#3 v=0
55296 On ch=1 n=f#3 v=52
55296 On ch=1 n=f#4 v=63
55451 Par ch=1 c=64 v=127
55808 On ch=1 n=a#4 v=68
56320 Off ch=1 n=a#4 v=0
56320 On ch=1 n=d5 v=57
56320 On ch=1 n=g#5 v=57
56320 On ch=1 n=a#5 v=66
56832 Off ch=1 n=d5 v=0
56832 Off ch=1 n=g#5 v=0
56832 Off ch=1 n=a#5 v=0
56832 On ch=1 n=b4 v=61
56832 On ch=1 n=d5 v=61
56832 On ch=1 n=g#5 v=61
56832 On ch=1 n=b5 v=72
56925 Par ch=1 c=64 v=0
57344 Off ch=1 n=f#3 v=0
57344 Off ch=1 n=f#4 v=0
57344 On ch=1 n=f3 v=54
57344 On ch=1 n=f4 v=64
57856 Off ch=1 n=b4 v=0
57856 Off ch=1 n=d5 v=0
57856 Off ch=1 n=g#5 v=0
57856 Off ch=1 n=b5 v=0
57856 Off ch=1 n=f3 v=0
57856 Off ch=1 n=f4 v=0
57856 On ch=1 n=f#3 v=55
57856 On ch=1 n=f#4 v=65
58127 Par ch=1 c=64 v=127
58368 On ch=1 n=d5 v=68
58880 Off ch=1 n=d5 v=0
58880 On ch=1 n=g#5 v=59
58880 On ch=1 n=b5 v=66
59392 Off ch=1 n=g#5 v=0
59392 Off ch=1 n=b5 v=0
59392 On ch=1 n=d5 v=62
59392 On ch=1 n=g#5 v=62
59392 On ch=1 n=a#5 v=62
59392 On ch=1 n=d6 v=71
59562 Par ch=1 c=64 v=0
59904 Off ch=1 n=f#3 v=0
59904 Off ch=1 n=f#4 v=0
59904 On ch=1 n=f3 v=56
59904 On ch=1 n=f4 v=66
59911 Par ch=1 c=64 v=0
60416 Off ch=1 n=d5 v=0
60416 Off ch=1 n=g#5 v=0
60416 Off ch=1 n=a#5 v=0
60416 Off ch=1 n=d6 v=0
60416 Off ch=1 n=f3 v=0
60416 Off ch=1 n=f4 v=0
60416 On ch=1 n=a#3 v=56
60416 On ch=1 n=a#4 v=66
60726 Par ch=1 c=64 v=127
60928 On ch=1 n=d5 v=64
61440 Off ch=1 n=d5 v=0
61440 On ch=1 n=g#5 v=51
61440 On ch=1 n=a#5 v=57
61440 On ch=1 n=d6 v=67
61952 Off ch=1 n=g#5 v=0
61952 Off ch=1 n=a#5 v=0
61952 Off ch=1 n=d6 v=0
61952 On ch=1 n=f#5 v=51
61952 On ch=1 n=a#5 v=51
61952 On ch=1 n=d6 v=51
61952 On ch=1 n=f#6 v=70
62083 Par ch=1 c=64 v=0
62464 Off ch=1 n=a#3 v=0
62464 Off ch=1 n=a#4 v=0
62464 On ch=1 n=a#2 v=58
62464 On ch=1 n=a#3 v=68
62511 Par ch=1 c=64 v=127
62976 Par ch=1 c=67 v=0
62976 Par ch=1 c=64 v=0
62976 Par ch=1 c=64 v=0
62976 Par ch=1 c=64 v=0
62976 Par ch=1 c=67 v=0
62976 Off ch=1 n=f#5 v=0
62976 Off ch=1 n=a#5 v=0
62976 Off ch=1 n=d6 v=0
62976 Off ch=1 n=f#6 v=0
62976 Off ch=1 n=a#2 v=0
62976 Off ch=1 n=a#3 v=0
62976 On ch=1 n=d#3 v=54
62976 On ch=1 n=d#4 v=64
63131 Par ch=1 c=64 v=127
63131 Par ch=1 c=64 v=127
63325 Par ch=1 c=64 v=0
63480 Par ch=1 c=64 v=0
63480 Par ch=1 c=64 v=0
63488 On ch=1 n=a#5 v=69
63519 Par ch=1 c=64 v=0
63868 Par ch=1 c=64 v=127
64000 Off ch=1 n=a#5 v=0
64000 On ch=1 n=f#5 v=60
64000 On ch=1 n=d#6 v=71
64023 Par ch=1 c=64 v=127
64512 Off ch=1 n=f#5 v=0
64512 Off ch=1 n=d#6 v=0
64512 On ch=1 n=f#5 v=59
64512 On ch=1 n=a#5 v=59
64512 On ch=1 n=d#6 v=59
64512 On ch=1 n=f6 v=71
64512 On ch=1 n=f#4 v=59
64512 On ch=1 n=a#4 v=59
64512 On ch=1 n=d#5 v=59
64512 On ch=1 n=f5 v=64
64512 Off ch=1 n=d#3 v=0
64512 Off ch=1 n=d#4 v=0
65024 On ch=1 n=a#2 v=59
65024 On ch=1 n=a#3 v=70
65536 Off ch=1 n=f#5 v=0
65536 Off ch=1 n=a#5 v=0
65536 Off ch=1 n=d#6 v=0
65536 Off ch=1 n=f6 v=0
65536 Off ch=1 n=f#4 v=0
65536 Off ch=1 n=a#4 v=0
65536 Off ch=1 n=d#5 v=0
65536 Off ch=1 n=f5 v=0
65536 Off ch=1 n=a#2 v=0
65536 Off ch=1 n=a#3 v=0
65536 On ch=1 n=d#3 v=61
65536 On ch=1 n=d#4 v=72
65575 Par ch=1 c=64 v=0
66048 On ch=1 n=a#5 v=75
66079 Par ch=1 c=64 v=127
66560 Off ch=1 n=a#5 v=0
66560 On ch=1 n=d#6 v=65
66560 On ch=1 n=f#6 v=77
66816 Par ch=1 c=64 v=127
67072 Off ch=1 n=d#6 v=0
67072 Off ch=1 n=f#6 v=0
67072 On ch=1 n=a#5 v=66
67072 On ch=1 n=d#6 v=66
67072 On ch=1 n=f6 v=66
67072 On ch=1 n=g#6 v=77
67072 On ch=1 n=a#4 v=62
67072 On ch=1 n=d#5 v=62
67072 On ch=1 n=f5 v=62
67072 On ch=1 n=g#5 v=67
67072 Off ch=1 n=d#3 v=0
67072 Off ch=1 n=d#4 v=0
67584 On ch=1 n=d#3 v=67
67584 On ch=1 n=d#4 v=78
68057 Par ch=1 c=64 v=0
68096 Off ch=1 n=a#5 v=0
68096 Off ch=1 n=d#6 v=0
68096 Off ch=1 n=f6 v=0
68096 Off ch=1 n=g#6 v=0
68096 Off ch=1 n=a#4 v=0
68096 Off ch=1 n=d#5 v=0
68096 Off ch=1 n=f5 v=0
68096 Off ch=1 n=g#5 v=0
68096 Off ch=1 n=d#3 v=0
68096 Off ch=1 n=d#4 v=0
68096 On ch=1 n=f#3 v=68
68096 On ch=1 n=f#4 v=80
68600 Par ch=1 c=64 v=127
68608 On ch=1 n=d#6 v=81
69120 Off ch=1 n=d#6 v=0
69120 On ch=1 n=a#5 v=71
69120 On ch=1 n=a#6 v=83
69298 Par ch=1 c=64 v=127
69632 Off ch=1 n=a#5 v=0
69632 Off ch=1 n=a#6 v=0
69632 On ch=1 n=b5 v=71
69632 On ch=1 n=d#6 v=71
69632 On ch=1 n=b6 v=84
69632 On ch=1 n=b4 v=65
69632 On ch=1 n=d#5 v=65
69632 On ch=1 n=f#5 v=70
69632 Off ch=1 n=f#3 v=0
69632 Off ch=1 n=f#4 v=0
70144 On ch=1 n=f#3 v=74
70144 On ch=1 n=f#4 v=86
70656 Par ch=1 c=67 v=0
70656 Par ch=1 c=64 v=0
70656 Par ch=1 c=64 v=0
70656 Par ch=1 c=64 v=0
70656 Par ch=1 c=67 v=0
70656 Off ch=1 n=b5 v=0
70656 Off ch=1 n=d#6 v=0
70656 Off ch=1 n=b6 v=0
70656 Off ch=1 n=b4 v=0
70656 Off ch=1 n=d#5 v=0
70656 Off ch=1 n=f#5 v=0
70656 Off ch=1 n=f#3 v=0
70656 Off ch=1 n=f#4 v=0
70656 On ch=1 n=b3 v=81
70656 On ch=1 n=b4 v=92
70811 Par ch=1 c=64 v=127
70811 Par ch=1 c=64 v=127
71005 Par ch=1 c=64 v=0
71160 Par ch=1 c=64 v=0
71160 Par ch=1 c=64 v=0
71168 On ch=1 n=d#6 v=88
71199 Par ch=1 c=64 v=0
71548 Par ch=1 c=64 v=127
71680 Off ch=1 n=d#6 v=0
71680 On ch=1 n=a#5 v=75
71680 On ch=1 n=a#6 v=89
71703 Par ch=1 c=64 v=127
72192 Off ch=1 n=a#5 v=0
72192 Off ch=1 n=a#6 v=0
72192 On ch=1 n=a5 v=76
72192 On ch=1 n=d#6 v=76
72192 On ch=1 n=a6 v=90
72192 On ch=1 n=a4 v=66
72192 On ch=1 n=d#5 v=66
72704 Off ch=1 n=a5 v=0
72704 Off ch=1 n=d#6 v=0
72704 Off ch=1 n=a6 v=0
72704 On ch=1 n=d#6 v=80
72704 On ch=1 n=d#7 v=95
72704 Off ch=1 n=a4 v=0
72704 Off ch=1 n=d#5 v=0
72704 On ch=1 n=d#5 v=66
73216 Off ch=1 n=d#6 v=0
73216 Off ch=1 n=d#7 v=0
73216 On ch=1 n=d#6 v=81
73216 On ch=1 n=d#7 v=96
73216 Off ch=1 n=d#5 v=0
73216 On ch=1 n=d#5 v=66
73255 Par ch=1 c=64 v=0
73728 Off ch=1 n=d#6 v=0
73728 Off ch=1 n=d#7 v=0
73728 On ch=1 n=d#6 v=89
73759 Par ch=1 c=64 v=127
74240 Off ch=1 n=d#6 v=0
74240 On ch=1 n=g#5 v=74
74240 On ch=1 n=g#6 v=88
74240 Off ch=1 n=d#5 v=0
74240 On ch=1 n=g#4 v=66
74240 On ch=1 n=d#5 v=66
74496 Par ch=1 c=64 v=127
74752 Off ch=1 n=g#5 v=0
74752 Off ch=1 n=g#6 v=0
74752 On ch=1 n=g5 v=72
74752 On ch=1 n=d#6 v=72
74752 On ch=1 n=g6 v=86
74752 Off ch=1 n=g#4 v=0
74752 Off ch=1 n=d#5 v=0
74752 On ch=1 n=g4 v=66
74752 On ch=1 n=d#5 v=66
75264 Off ch=1 n=b3 v=0
75264 Off ch=1 n=b4 v=0
75264 On ch=1 n=b3 v=61
75264 On ch=1 n=b4 v=80
75737 Par ch=1 c=64 v=0
75776 Off ch=1 n=g5 v=0
75776 Off ch=1 n=d#6 v=0
75776 Off ch=1 n=g6 v=0
75776 Off ch=1 n=g4 v=0
75776 Off ch=1 n=d#5 v=0
75776 Off ch=1 n=b3 v=0
75776 Off ch=1 n=b4 v=0
75776 On ch=1 n=b3 v=61
75776 On ch=1 n=b4 v=80
76280 Par ch=1 c=64 v=127
76288 On ch=1 n=d#6 v=77
76800 Off ch=1 n=d#6 v=0
76800 On ch=1 n=f#5 v=62
76800 On ch=1 n=f#6 v=74
76800 On ch=1 n=f#4 v=66
76800 On ch=1 n=g#4 v=66
76800 On ch=1 n=d#5 v=66
76978 Par ch=1 c=64 v=127
77312 Off ch=1 n=f#5 v=0
77312 Off ch=1 n=f#6 v=0
77312 On ch=1 n=f5 v=60
77312 On ch=1 n=d6 v=60
77312 On ch=1 n=f6 v=71
77312 Off ch=1 n=f#4 v=0
77312 Off ch=1 n=g#4 v=0
77312 Off ch=1 n=d#5 v=0
77312 On ch=1 n=f4 v=66
77312 On ch=1 n=g#4 v=66
77312 On ch=1 n=d5 v=66
77824 Off ch=1 n=b3 v=0
77824 Off ch=1 n=b4 v=0
77824 On ch=1 n=a#2 v=61
77824 On ch=1 n=a#3 v=73
78336 Par ch=1 c=67 v=0
78336 Par ch=1 c=64 v=0
78336 Par ch=1 c=64 v=0
78336 Par ch=1 c=64 v=0
78336 Par ch=1 c=67 v=0
78336 Off ch=1 n=f5 v=0
78336 Off ch=1 n=d6 v=0
78336 Off ch=1 n=f6 v=0
78336 Off ch=1 n=f4 v=0
78336 Off ch=1 n=g#4 v=0
78336 Off ch=1 n=d5 v=0
78336 Off ch=1 n=a#2 v=0
78336 Off ch=1 n=a#3 v=0
78336 On ch=1 n=d#3 v=61
78336 On ch=1 n=d#4 v=73
78491 Par ch=1 c=64 v=127
78491 Par ch=1 c=64 v=127
78685 Par ch=1 c=64 v=0
78840 Par ch=1 c=64 v=0
78840 Par ch=1 c=64 v=0
78848 On ch=1 n=a#5 v=78
78879 Par ch=1 c=64 v=0
79228 Par ch=1 c=64 v=127
79360 Off ch=1 n=a#5 v=0
79360 On ch=1 n=f#5 v=67
79360 On ch=1 n=d#6 v=79
79383 Par ch=1 c=64 v=127
79872 Off ch=1 n=f#5 v=0
79872 Off ch=1 n=d#6 v=0
79872 On ch=1 n=f#5 v=66
79872 On ch=1 n=a#5 v=66
79872 On ch=1 n=d#6 v=66
79872 On ch=1 n=f6 v=79
79872 On ch=1 n=f#4 v=66
79872 On ch=1 n=a#4 v=66
79872 On ch=1 n=d#5 v=66
79872 On ch=1 n=f5 v=71
79872 Off ch=1 n=d#3 v=0
79872 Off ch=1 n=d#4 v=0
80384 On ch=1 n=a#2 v=65
80384 On ch=1 n=a#3 v=77
80896 Off ch=1 n=f#5 v=0
80896 Off ch=1 n=a#5 v=0
80896 Off ch=1 n=d#6 v=0
80896 Off ch=1 n=f6 v=0
80896 Off ch=1 n=f#4 v=0
80896 Off ch=1 n=a#4 v=0
80896 Off ch=1 n=d#5 v=0
80896 Off ch=1 n=f5 v=0
80896 Off ch=1 n=a#2 v=0
80896 Off ch=1 n=a#3 v=0
80896 On ch=1 n=d#3 v=66
80896 On ch=1 n=d#4 v=78
80935 Par ch=1 c=64 v=0
81408 On ch=1 n=a#5 v=81
81439 Par ch=1 c=64 v=127
81920 Off ch=1 n=a#5 v=0
81920 On ch=1 n=d#6 v=69
81920 On ch=1 n=f#6 v=82
82176 Par ch=1 c=64 v=127
82432 Off ch=1 n=d#6 v=0
82432 Off ch=1 n=f#6 v=0
82432 On ch=1 n=a#5 v=70
82432 On ch=1 n=d#6 v=70
82432 On ch=1 n=f6 v=70
82432 On ch=1 n=g#6 v=82
82432 On ch=1 n=a#4 v=66
82432 On ch=1 n=d#5 v=66
82432 On ch=1 n=f5 v=66
82432 On ch=1 n=g#5 v=71
82432 Off ch=1 n=d#3 v=0
82432 Off ch=1 n=d#4 v=0
82944 On ch=1 n=d#3 v=70
82944 On ch=1 n=d#4 v=82
83417 Par ch=1 c=64 v=0
83456 Off ch=1 n=a#5 v=0
83456 Off ch=1 n=d#6 v=0
83456 Off ch=1 n=f6 v=0
83456 Off ch=1 n=g#6 v=0
83456 Off ch=1 n=a#4 v=0
83456 Off ch=1 n=d#5 v=0
83456 Off ch=1 n=f5 v=0
83456 Off ch=1 n=g#5 v=0
83456 Off ch=1 n=d#3 v=0
83456 Off ch=1 n=d#4 v=0
83456 On ch=1 n=f#3 v=71
83456 On ch=1 n=f#4 v=83
83960 Par ch=1 c=64 v=127
83968 On ch=1 n=d#6 v=84
84480 Off ch=1 n=d#6 v=0
84480 On ch=1 n=a#5 v=72
84480 On ch=1 n=a#6 v=85
84658 Par ch=1 c=64 v=127
84992 Off ch=1 n=a#5 v=0
84992 Off ch=1 n=a#6 v=0
84992 On ch=1 n=b5 v=72
84992 On ch=1 n=d#6 v=72
84992 On ch=1 n=b6 v=86
84992 On ch=1 n=b4 v=66
84992 On ch=1 n=d#5 v=66
84992 On ch=1 n=f#5 v=71
84992 Off ch=1 n=f#3 v=0
84992 Off ch=1 n=f#4 v=0
85504 On ch=1 n=f#3 v=75
85504 On ch=1 n=f#4 v=87
86016 Par ch=1 c=67 v=0
86016 Par ch=1 c=64 v=0
86016 Par ch=1 c=64 v=0
86016 Par ch=1 c=64 v=0
86016 Par ch=1 c=67 v=0
86016 Off ch=1 n=b5 v=0
86016 Off ch=1 n=d#6 v=0
86016 Off ch=1 n=b6 v=0
86016 Off ch=1 n=b4 v=0
86016 Off ch=1 n=d#5 v=0
86016 Off ch=1 n=f#5 v=0
86016 Off ch=1 n=f#3 v=0
86016 Off ch=1 n=f#4 v=0
86016 On ch=1 n=b3 v=81
86016 On ch=1 n=b4 v=92
86171 Par ch=1 c=64 v=127
86171 Par ch=1 c=64 v=127
86365 Par ch=1 c=64 v=0
86520 Par ch=1 c=64 v=0
86520 Par ch=1 c=64 v=0
86528 On ch=1 n=d#6 v=88
86559 Par ch=1 c=64 v=0
86908 Par ch=1 c=64 v=127
87040 Off ch=1 n=d#6 v=0
87040 On ch=1 n=a#5 v=75
87040 On ch=1 n=a#6 v=89
87063 Par ch=1 c=64 v=127
87552 Off ch=1 n=a#5 v=0
87552 Off ch=1 n=a#6 v=0
87552 On ch=1 n=a5 v=76
87552 On ch=1 n=d#6 v=76
87552 On ch=1 n=a6 v=90
87552 On ch=1 n=a4 v=66
87552 On ch=1 n=d#5 v=66
88064 Off ch=1 n=a5 v=0
88064 Off ch=1 n=d#6 v=0
88064 Off ch=1 n=a6 v=0
88064 On ch=1 n=d#6 v=80
88064 On ch=1 n=d#7 v=95
88064 Off ch=1 n=a4 v=0
88064 Off ch=1 n=d#5 v=0
88064 On ch=1 n=d#5 v=66
88576 Off ch=1 n=d#6 v=0
88576 Off ch=1 n=d#7 v=0
88576 On ch=1 n=d#6 v=81
88576 On ch=1 n=d#7 v=96
88576 Off ch=1 n=d#5 v=0
88576 On ch=1 n=d#5 v=66
88615 Par ch=1 c=64 v=0
89088 Off ch=1 n=d#6 v=0
89088 Off ch=1 n=d#7 v=0
89088 On ch=1 n=d#6 v=89
89119 Par ch=1 c=64 v=127
89600 Off ch=1 n=d#6 v=0
89600 On ch=1 n=g#5 v=74
89600 On ch=1 n=g#6 v=88
89600 Off ch=1 n=d#5 v=0
89600 On ch=1 n=g#4 v=66
89600 On ch=1 n=d#5 v=66
89856 Par ch=1 c=64 v=127
90112 Off ch=1 n=g#5 v=0
90112 Off ch=1 n=g#6 v=0
90112 On ch=1 n=g5 v=72
90112 On ch=1 n=d#6 v=72
90112 On ch=1 n=g6 v=86
90112 Off ch=1 n=g#4 v=0
90112 Off ch=1 n=d#5 v=0
90112 On ch=1 n=g4 v=66
90112 On ch=1 n=d#5 v=66
90624 Off ch=1 n=b3 v=0
90624 Off ch=1 n=b4 v=0
90624 On ch=1 n=b3 v=61
90624 On ch=1 n=b4 v=80
91097 Par ch=1 c=64 v=0
91136 Off ch=1 n=g5 v=0
91136 Off ch=1 n=d#6 v=0
91136 Off ch=1 n=g6 v=0
91136 Off ch=1 n=g4 v=0
91136 Off ch=1 n=d#5 v=0
91136 Off ch=1 n=b3 v=0
91136 Off ch=1 n=b4 v=0
91136 On ch=1 n=b3 v=61
91136 On ch=1 n=b4 v=80
91640 Par ch=1 c=64 v=127
91648 On ch=1 n=d#6 v=77
92160 Off ch=1 n=d#6 v=0
92160 On ch=1 n=f#5 v=62
92160 On ch=1 n=f#6 v=74
92160 On ch=1 n=f#4 v=66
92160 On ch=1 n=g#4 v=66
92160 On ch=1 n=d#5 v=66
92338 Par ch=1 c=64 v=127
92672 Off ch=1 n=f#5 v=0
92672 Off ch=1 n=f#6 v=0
92672 On ch=1 n=f5 v=60
92672 On ch=1 n=d6 v=60
92672 On ch=1 n=f6 v=71
92672 Off ch=1 n=f#4 v=0
92672 Off ch=1 n=g#4 v=0
92672 Off ch=1 n=d#5 v=0
92672 On ch=1 n=f4 v=66
92672 On ch=1 n=g#4 v=66
92672 On ch=1 n=d5 v=66
93184 Off ch=1 n=b3 v=0
93184 Off ch=1 n=b4 v=0
93184 On ch=1 n=a#2 v=61
93184 On ch=1 n=a#3 v=73
93696 Par ch=1 c=67 v=0
93696 Par ch=1 c=64 v=0
93696 Par ch=1 c=64 v=0
93696 Par ch=1 c=67 v=0
93696 Off ch=1 n=f5 v=0
93696 Off ch=1 n=d6 v=0
93696 Off ch=1 n=f6 v=0
93696 Off ch=1 n=f4 v=0
93696 Off ch=1 n=g#4 v=0
93696 Off ch=1 n=d5 v=0
93696 Off ch=1 n=a#2 v=0
93696 Off ch=1 n=a#3 v=0
93696 On ch=1 n=g#3 v=66
93696 On ch=1 n=g#4 v=78
93851 Par ch=1 c=64 v=127
93851 Par ch=1 c=64 v=127
94045 Par ch=1 c=64 v=0
94200 Par ch=1 c=64 v=0
94200 Par ch=1 c=64 v=0
94208 On ch=1 n=a#5 v=66
94239 Par ch=1 c=64 v=0
94588 Par ch=1 c=64 v=127
94720 Off ch=1 n=a#5 v=0
94720 On ch=1 n=d6 v=66
94720 On ch=1 n=a#6 v=71
94743 Par ch=1 c=64 v=127
95232 Off ch=1 n=d6 v=0
95232 Off ch=1 n=a#6 v=0
95232 On ch=1 n=b5 v=67
95232 On ch=1 n=d6 v=67
95232 On ch=1 n=b6 v=80
95232 On ch=1 n=g#4 v=57
95232 On ch=1 n=d5 v=57
95232 On ch=1 n=f5 v=71
95232 Off ch=1 n=g#3 v=0
95232 Off ch=1 n=g#4 v=0
95744 On ch=1 n=g#3 v=67
95744 On ch=1 n=g#4 v=79
96256 Off ch=1 n=b5 v=0
96256 Off ch=1 n=d6 v=0
96256 Off ch=1 n=b6 v=0
96256 Off ch=1 n=g#4 v=0
96256 Off ch=1 n=d5 v=0
96256 Off ch=1 n=f5 v=0
96256 Off ch=1 n=g#3 v=0
96256 Off ch=1 n=g#4 v=0
96256 On ch=1 n=f#3 v=68
96256 On ch=1 n=f#4 v=80
96295 Par ch=1 c=64 v=0
96768 On ch=1 n=b5 v=68
96799 Par ch=1 c=64 v=127
97280 Off ch=1 n=b5 v=0
97280 On ch=1 n=d#6 v=69
97280 On ch=1 n=b6 v=74
97536 Par ch=1 c=64 v=127
97792 Off ch=1 n=d#6 v=0
97792 Off ch=1 n=b6 v=0
97792 On ch=1 n=d6 v=69
97792 On ch=1 n=g#6 v=69
97792 On ch=1 n=a#6 v=69
97792 On ch=1 n=d7 v=82
97792 On ch=1 n=d5 v=59
97792 On ch=1 n=g#5 v=59
97792 On ch=1 n=a#5 v=73
97792 Off ch=1 n=f#3 v=0
97792 Off ch=1 n=f#4 v=0
98304 On ch=1 n=f3 v=70
98304 On ch=1 n=f4 v=82
98777 Par ch=1 c=64 v=0
98816 Off ch=1 n=d6 v=0
98816 Off ch=1 n=g#6 v=0
98816 Off ch=1 n=a#6 v=0
98816 Off ch=1 n=d7 v=0
98816 Off ch=1 n=d5 v=0
98816 Off ch=1 n=g#5 v=0
98816 Off ch=1 n=a#5 v=0
98816 Off ch=1 n=f3 v=0
98816 Off ch=1 n=f4 v=0
98816 On ch=1 n=d#3 v=70
98816 On ch=1 n=d#4 v=82
99320 Par ch=1 c=64 v=127
99328 On ch=1 n=d#6 v=71
99840 Off ch=1 n=d#6 v=0
99840 On ch=1 n=g#6 v=71
99840 On ch=1 n=b6 v=71
99840 On ch=1 n=d#7 v=76
100018 Par ch=1 c=64 v=127
100352 Off ch=1 n=g#6 v=0
100352 Off ch=1 n=b6 v=0
100352 Off ch=1 n=d#7 v=0
100352 On ch=1 n=f#6 v=72
100352 On ch=1 n=b6 v=72
100352 On ch=1 n=d#7 v=72
100352 On ch=1 n=f#7 v=85
100352 On ch=1 n=b4 v=62
100352 On ch=1 n=d#5 v=62
100352 On ch=1 n=f#5 v=62
100352 On ch=1 n=b5 v=76
100352 Off ch=1 n=d#3 v=0
100352 Off ch=1 n=d#4 v=0
100864 On ch=1 n=d#3 v=72
100864 On ch=1 n=d#4 v=84
101376 Par ch=1 c=67 v=0
101376 Par ch=1 c=64 v=0
101376 Par ch=1 c=64 v=0
101376 Par ch=1 c=64 v=0
101376 Par ch=1 c=67 v=0
101376 Off ch=1 n=f#6 v=0
101376 Off ch=1 n=b6 v=0
101376 Off ch=1 n=d#7 v=0
101376 Off ch=1 n=f#7 v=0
101376 Off ch=1 n=b4 v=0
101376 Off ch=1 n=d#5 v=0
101376 Off ch=1 n=f#5 v=0
101376 Off ch=1 n=b5 v=0
101376 Off ch=1 n=d#3 v=0
101376 Off ch=1 n=d#4 v=0
101376 On ch=1 n=c#3 v=73
101376 On ch=1 n=c#4 v=85
101531 Par ch=1 c=64 v=127
101531 Par ch=1 c=64 v=127
101725 Par ch=1 c=64 v=0
101880 Par ch=1 c=64 v=0
101880 Par ch=1 c=64 v=0
101888 On ch=1 n=d#6 v=73
101919 Par ch=1 c=64 v=0
102268 Par ch=1 c=64 v=127
102400 Off ch=1 n=d#6 v=0
102400 On ch=1 n=g6 v=74
102400 On ch=1 n=d#7 v=79
102423 Par ch=1 c=64 v=127
102912 Off ch=1 n=g6 v=0
102912 Off ch=1 n=d#7 v=0
102912 On ch=1 n=e6 v=74
102912 On ch=1 n=g6 v=74
102912 On ch=1 n=e7 v=87
102912 On ch=1 n=g4 v=65
102912 On ch=1 n=a#4 v=65
102912 On ch=1 n=e5 v=65
102912 On ch=1 n=g5 v=79
102912 Off ch=1 n=c#3 v=0
102912 Off ch=1 n=c#4 v=0
103424 On ch=1 n=c#3 v=75
103424 On ch=1 n=c#4 v=87
103936 Off ch=1 n=e6 v=0
103936 Off ch=1 n=g6 v=0
103936 Off ch=1 n=e7 v=0
103936 Off ch=1 n=g4 v=0
103936 Off ch=1 n=a#4 v=0
103936 Off ch=1 n=e5 v=0
103936 Off ch=1 n=g5 v=0
103936 Off ch=1 n=c#3 v=0
103936 Off ch=1 n=c#4 v=0
103936 On ch=1 n=b2 v=75
103936 On ch=1 n=b3 v=87
103975 Par ch=1 c=64 v=0
104448 On ch=1 n=e6 v=76
104479 Par ch=1 c=64 v=127
104960 Off ch=1 n=e6 v=0
104960 On ch=1 n=g#6 v=76
104960 On ch=1 n=e7 v=81
105216 Par ch=1 c=64 v=127
105472 Off ch=1 n=g#6 v=0
105472 Off ch=1 n=e7 v=0
105472 On ch=1 n=g6 v=77
105472 On ch=1 n=c#7 v=77
105472 On ch=1 n=d#7 v=77
105472 On ch=1 n=g7 v=90
105472 On ch=1 n=g4 v=68
105472 On ch=1 n=c#5 v=68
105472 On ch=1 n=d#5 v=68
105472 On ch=1 n=g5 v=82
105472 Off ch=1 n=b2 v=0
105472 Off ch=1 n=b3 v=0
105984 On ch=1 n=a#2 v=77
105984 On ch=1 n=a#3 v=89
106457 Par ch=1 c=64 v=0
106496 Off ch=1 n=g6 v=0
106496 Off ch=1 n=c#7 v=0
106496 Off ch=1 n=d#7 v=0
106496 Off ch=1 n=g7 v=0
106496 Off ch=1 n=g4 v=0
106496 Off ch=1 n=c#5 v=0
106496 Off ch=1 n=d#5 v=0
106496 Off ch=1 n=g5 v=0
106496 Off ch=1 n=a#2 v=0
106496 Off ch=1 n=a#3 v=0
106496 On ch=1 n=g#2 v=78
106496 On ch=1 n=g#3 v=90
107000 Par ch=1 c=64 v=127
107008 On ch=1 n=g#6 v=78
107520 Off ch=1 n=g#6 v=0
107520 On ch=1 n=c#7 v=79
107520 On ch=1 n=e7 v=79
107520 On ch=1 n=g#7 v=84
107698 Par ch=1 c=64 v=127
108032 Off ch=1 n=c#7 v=0
108032 Off ch=1 n=e7 v=0
108032 Off ch=1 n=g#7 v=0
108032 On ch=1 n=b6 v=80
108032 On ch=1 n=e7 v=80
108032 On ch=1 n=g#7 v=80
108032 On ch=1 n=b7 v=93
108032 On ch=1 n=e4 v=71
108032 On ch=1 n=g#4 v=71
108032 On ch=1 n=b4 v=71
108032 On ch=1 n=e5 v=85
108032 Off ch=1 n=g#2 v=0
108032 Off ch=1 n=g#3 v=0
108544 On ch=1 n=g#2 v=80
108544 On ch=1 n=g#3 v=92
109056 Par ch=1 c=67 v=0
109056 Par ch=1 c=64 v=0
109056 Par ch=1 c=64 v=0
109056 Par ch=1 c=64 v=0
109056 Par ch=1 c=67 v=0
109056 Off ch=1 n=b6 v=0
109056 Off ch=1 n=e7 v=0
109056 Off ch=1 n=g#7 v=0
109056 Off ch=1 n=b7 v=0
109056 Off ch=1 n=e4 v=0
109056 Off ch=1 n=g#4 v=0
109056 Off ch=1 n=b4 v=0
109056 Off ch=1 n=e5 v=0
109056 Off ch=1 n=g#2 v=0
109056 Off ch=1 n=g#3 v=0
109056 On ch=1 n=a2 v=81
109056 On ch=1 n=a3 v=93
109211 Par ch=1 c=64 v=127
109211 Par ch=1 c=64 v=127
109405 Par ch=1 c=64 v=0
109560 Par ch=1 c=64 v=0
109560 Par ch=1 c=64 v=0
109568 On ch=1 n=b6 v=83
109599 Par ch=1 c=64 v=0
109948 Par ch=1 c=64 v=127
110080 Off ch=1 n=b6 v=0
110080 On ch=1 n=d#7 v=78
110080 On ch=1 n=f#7 v=78
110080 On ch=1 n=b7 v=88
110103 Par ch=1 c=64 v=127
110592 Off ch=1 n=d#7 v=0
110592 Off ch=1 n=f#7 v=0
110592 Off ch=1 n=b7 v=0
110592 On ch=1 n=a#6 v=77
110592 On ch=1 n=d#7 v=77
110592 On ch=1 n=f#7 v=77
110592 On ch=1 n=a#7 v=87
110592 Off ch=1 n=a2 v=0
110592 Off ch=1 n=a3 v=0
110592 On ch=1 n=a#2 v=67
110592 On ch=1 n=a#3 v=79
111104 Off ch=1 n=a#2 v=0
111104 Off ch=1 n=a#3 v=0
111104 On ch=1 n=d#3 v=67
111104 On ch=1 n=d#4 v=79
111189 Par ch=1 c=64 v=127
111267 Par ch=1 c=64 v=0
111616 Off ch=1 n=a#6 v=0
111616 Off ch=1 n=d#7 v=0
111616 Off ch=1 n=f#7 v=0
111616 Off ch=1 n=a#7 v=0
111616 Off ch=1 n=d#3 v=0
111616 Off ch=1 n=d#4 v=0
111616 On ch=1 n=f3 v=66
111616 On ch=1 n=f4 v=78
111655 Par ch=1 c=64 v=127
112128 On ch=1 n=d#6 v=78
112640 Off ch=1 n=d#6 v=0
112640 On ch=1 n=a#6 v=77
112640 On ch=1 n=d#7 v=86
113152 Off ch=1 n=a#6 v=0
113152 Off ch=1 n=d#7 v=0
113152 On ch=1 n=a#5 v=77
113152 On ch=1 n=d#6 v=77
113152 On ch=1 n=a#6 v=86
113664 Off ch=1 n=f3 v=0
113664 Off ch=1 n=f4 v=0
113664 On ch=1 n=f#3 v=64
113664 On ch=1 n=f#4 v=76
113788 Par ch=1 c=64 v=127
114021 Par ch=1 c=64 v=0
114176 Off ch=1 n=a#5 v=0
114176 Off ch=1 n=d#6 v=0
114176 Off ch=1 n=a#6 v=0
114176 Off ch=1 n=f#3 v=0
114176 Off ch=1 n=f#4 v=0
114176 On ch=1 n=a#3 v=64
114176 On ch=1 n=a#4 v=76
114331 Par ch=1 c=64 v=127
114688 On ch=1 n=f5 v=75
115200 Off ch=1 n=f5 v=0
115200 On ch=1 n=d#6 v=75
115200 On ch=1 n=f6 v=80
115378 Par ch=1 c=64 v=127
115712 Off ch=1 n=d#6 v=0
115712 Off ch=1 n=f6 v=0
115712 On ch=1 n=f#5 v=74
115712 On ch=1 n=a#5 v=74
115712 On ch=1 n=d#6 v=74
115712 On ch=1 n=f#6 v=79
115712 Off ch=1 n=a#3 v=0
115712 Off ch=1 n=a#4 v=0
116224 On ch=1 n=g#2 v=62
116224 On ch=1 n=g#3 v=74
116736 Par ch=1 c=67 v=0
116736 Par ch=1 c=64 v=0
116736 Par ch=1 c=64 v=0
116736 Par ch=1 c=64 v=0
116736 Par ch=1 c=67 v=0
116736 Off ch=1 n=f#5 v=0
116736 Off ch=1 n=a#5 v=0
116736 Off ch=1 n=d#6 v=0
116736 Off ch=1 n=f#6 v=0
116736 Off ch=1 n=g#2 v=0
116736 Off ch=1 n=g#3 v=0
116736 On ch=1 n=a2 v=70
116736 On ch=1 n=a3 v=82
116891 Par ch=1 c=64 v=127
116891 Par ch=1 c=64 v=127
117085 Par ch=1 c=64 v=0
117240 Par ch=1 c=64 v=0
117240 Par ch=1 c=64 v=0
117248 On ch=1 n=b5 v=69
117279 Par ch=1 c=64 v=0
117628 Par ch=1 c=64 v=127
117760 Off ch=1 n=b5 v=0
117760 On ch=1 n=d#6 v=63
117760 On ch=1 n=f#6 v=63
117760 On ch=1 n=b6 v=73
117783 Par ch=1 c=64 v=127
118272 Off ch=1 n=d#6 v=0
118272 Off ch=1 n=f#6 v=0
118272 Off ch=1 n=b6 v=0
118272 On ch=1 n=a#5 v=60
118272 On ch=1 n=d#6 v=60
118272 On ch=1 n=f#6 v=60
118272 On ch=1 n=a#6 v=71
118272 Off ch=1 n=a2 v=0
118272 Off ch=1 n=a3 v=0
118272 On ch=1 n=a#2 v=60
118272 On ch=1 n=a#3 v=72
118784 Off ch=1 n=a#2 v=0
118784 Off ch=1 n=a#3 v=0
118784 On ch=1 n=d#3 v=60
118784 On ch=1 n=d#4 v=72
119296 Off ch=1 n=a#5 v=0
119296 Off ch=1 n=d#6 v=0
119296 Off ch=1 n=f#6 v=0
119296 Off ch=1 n=a#6 v=0
119296 Off ch=1 n=d#3 v=0
119296 Off ch=1 n=d#4 v=0
119296 On ch=1 n=f3 v=59
119296 On ch=1 n=f4 v=71
119335 Par ch=1 c=64 v=0
119808 On ch=1 n=d#5 v=63
119839 Par ch=1 c=64 v=127
120320 Off ch=1 n=d#5 v=0
120320 On ch=1 n=a#5 v=61
120320 On ch=1 n=d#6 v=65
120576 Par ch=1 c=64 v=127
120832 Off ch=1 n=a#5 v=0
120832 Off ch=1 n=d#6 v=0
120832 On ch=1 n=a#4 v=60
120832 On ch=1 n=d#5 v=60
120832 On ch=1 n=a#5 v=71
121344 Off ch=1 n=f3 v=0
121344 Off ch=1 n=f4 v=0
121344 On ch=1 n=f#3 v=57
121344 On ch=1 n=f#4 v=69
121817 Par ch=1 c=64 v=0
121856 Off ch=1 n=a#4 v=0
121856 Off ch=1 n=d#5 v=0
121856 Off ch=1 n=a#5 v=0
121856 Off ch=1 n=f#3 v=0
121856 Off ch=1 n=f#4 v=0
121856 On ch=1 n=a#3 v=57
121856 On ch=1 n=a#4 v=69
122360 Par ch=1 c=64 v=127
122368 On ch=1 n=f4 v=56
122880 Off ch=1 n=f4 v=0
122880 On ch=1 n=d#5 v=55
122880 On ch=1 n=f5 v=59
123058 Par ch=1 c=64 v=127
123392 Off ch=1 n=d#5 v=0
123392 Off ch=1 n=f5 v=0
123392 On ch=1 n=f#4 v=54
123392 On ch=1 n=d#5 v=54
123392 On ch=1 n=f#5 v=67
123392 Off ch=1 n=a#3 v=0
123392 Off ch=1 n=a#4 v=0
123904 On ch=1 n=a#2 v=55
123904 On ch=1 n=a#3 v=67
124416 Par ch=1 c=67 v=0
124416 Par ch=1 c=64 v=0
124416 Par ch=1 c=67 v=0
124416 Off ch=1 n=f#4 v=0
124416 Off ch=1 n=d#5 v=0
124416 Off ch=1 n=f#5 v=0
124416 Off ch=1 n=a#2 v=0
124416 Off ch=1 n=a#3 v=0
124416 On ch=1 n=f#3 v=45
124416 On ch=1 n=f#4 v=66
124928 On ch=1 n=d#4 v=56
125440 Off ch=1 n=d#4 v=0
125440 On ch=1 n=g#4 v=49
125440 On ch=1 n=b4 v=49
125440 On ch=1 n=d#5 v=58
125952 Off ch=1 n=g#4 v=0
125952 Off ch=1 n=b4 v=0
125952 Off ch=1 n=d#5 v=0
125952 On ch=1 n=d4 v=52
125952 On ch=1 n=g#4 v=52
125952 On ch=1 n=b4 v=52
125952 On ch=1 n=d5 v=64
126464 Off ch=1 n=f#3 v=0
126464 Off ch=1 n=f#4 v=0
126464 On ch=1 n=f3 v=54
126464 On ch=1 n=f4 v=64
126976 Off ch=1 n=d4 v=0
126976 Off ch=1 n=g#4 v=0
126976 Off ch=1 n=b4 v=0
126976 Off ch=1 n=d5 v=0
126976 Off ch=1 n=f3 v=0
126976 Off ch=1 n=f4 v=0
126976 On ch=1 n=f#3 v=56
126976 On ch=1 n=f#4 v=66
127488 On ch=1 n=d#4 v=70
128000 Off ch=1 n=d#4 v=0
128000 On ch=1 n=g#4 v=54
128000 On ch=1 n=b4 v=66
128000 On ch=1 n=d#5 v=66
128512 Off ch=1 n=g#4 v=0
128512 Off ch=1 n=b4 v=0
128512 Off ch=1 n=d#5 v=0
128512 On ch=1 n=d4 v=64
128512 On ch=1 n=g#4 v=64
128512 On ch=1 n=b4 v=64
128512 On ch=1 n=d5 v=76
129024 Off ch=1 n=f#3 v=0
129024 Off ch=1 n=f#4 v=0
129024 On ch=1 n=f3 v=66
129024 On ch=1 n=f4 v=77
129536 Off ch=1 n=d4 v=0
129536 Off ch=1 n=g#4 v=0
129536 Off ch=1 n=b4 v=0
129536 Off ch=1 n=d5 v=0
129536 Off ch=1 n=f3 v=0
129536 Off ch=1 n=f4 v=0
129536 On ch=1 n=e3 v=68
129536 On ch=1 n=e4 v=79
130048 On ch=1 n=g#4 v=76
130560 Off ch=1 n=g#4 v=0
130560 On ch=1 n=d5 v=60
130560 On ch=1 n=g#5 v=71
131072 Off ch=1 n=d5 v=0
131072 Off ch=1 n=g#5 v=0
131072 On ch=1 n=d4 v=56
131072 On ch=1 n=g#4 v=56
131072 On ch=1 n=d5 v=66
131584 Off ch=1 n=e3 v=0
131584 Off ch=1 n=e4 v=0
131584 On ch=1 n=f3 v=61
131584 On ch=1 n=f4 v=73
132096 Par ch=1 c=67 v=0
132096 Par ch=1 c=64 v=0
132096 Par ch=1 c=67 v=0
132096 Off ch=1 n=d4 v=0
132096 Off ch=1 n=g#4 v=0
132096 Off ch=1 n=d5 v=0
132096 Off ch=1 n=f3 v=0
132096 Off ch=1 n=f4 v=0
132096 On ch=1 n=f#3 v=45
132096 On ch=1 n=f#4 v=66
132608 On ch=1 n=d#4 v=56
133120 Off ch=1 n=d#4 v=0
133120 On ch=1 n=g#4 v=49
133120 On ch=1 n=b4 v=49
133120 On ch=1 n=d#5 v=58
133632 Off ch=1 n=g#4 v=0
133632 Off ch=1 n=b4 v=0
133632 Off ch=1 n=d#5 v=0
133632 On ch=1 n=d4 v=52
133632 On ch=1 n=g#4 v=52
133632 On ch=1 n=b4 v=52
133632 On ch=1 n=d5 v=64
134144 Off ch=1 n=f#3 v=0
134144 Off ch=1 n=f#4 v=0
134144 On ch=1 n=f3 v=54
134144 On ch=1 n=f4 v=64
134656 Off ch=1 n=d4 v=0
134656 Off ch=1 n=g#4 v=0
134656 Off ch=1 n=b4 v=0
134656 Off ch=1 n=d5 v=0
134656 Off ch=1 n=f3 v=0
134656 Off ch=1 n=f4 v=0
134656 On ch=1 n=f#3 v=56
134656 On ch=1 n=f#4 v=66
135168 On ch=1 n=d#4 v=70
135680 Off ch=1 n=d#4 v=0
135680 On ch=1 n=g#4 v=54
135680 On ch=1 n=b4 v=66
135680 On ch=1 n=d#5 v=66
136192 Off ch=1 n=g#4 v=0
136192 Off ch=1 n=b4 v=0
136192 Off ch=1 n=d#5 v=0
136192 On ch=1 n=d4 v=64
136192 On ch=1 n=g#4 v=64
136192 On ch=1 n=b4 v=64
136192 On ch=1 n=d5 v=76
136704 Off ch=1 n=f#3 v=0
136704 Off ch=1 n=f#4 v=0
136704 On ch=1 n=f3 v=66
136704 On ch=1 n=f4 v=77
137216 Off ch=1 n=d4 v=0
137216 Off ch=1 n=g#4 v=0
137216 Off ch=1 n=b4 v=0
137216 Off ch=1 n=d5 v=0
137216 Off ch=1 n=f3 v=0
137216 Off ch=1 n=f4 v=0
137216 On ch=1 n=e3 v=68
137216 On ch=1 n=e4 v=79
137728 On ch=1 n=g#4 v=76
138240 Off ch=1 n=g#4 v=0
138240 On ch=1 n=d5 v=60
138240 On ch=1 n=g#5 v=71
138752 Off ch=1 n=d5 v=0
138752 Off ch=1 n=g#5 v=0
138752 On ch=1 n=d4 v=56
138752 On ch=1 n=g#4 v=56
138752 On ch=1 n=d5 v=66
139264 Off ch=1 n=e3 v=0
139264 Off ch=1 n=e4 v=0
139264 On ch=1 n=f3 v=61
139264 On ch=1 n=f4 v=73
139776 Par ch=1 c=67 v=0
139776 Par ch=1 c=64 v=0
139776 Par ch=1 c=67 v=0
139776 Off ch=1 n=d4 v=0
139776 Off ch=1 n=g#4 v=0
139776 Off ch=1 n=d5 v=0
139776 Off ch=1 n=f3 v=0
139776 Off ch=1 n=f4 v=0
139776 On ch=1 n=d#3 v=71
139776 On ch=1 n=d#4 v=83
140001 Par ch=1 c=64 v=127
140288 On ch=1 n=d#4 v=71
140800 Off ch=1 n=d#4 v=0
140800 On ch=1 n=g#4 v=60
140800 On ch=1 n=b4 v=60
140800 On ch=1 n=d#5 v=72
141312 Off ch=1 n=g#4 v=0
141312 Off ch=1 n=b4 v=0
141312 Off ch=1 n=d#5 v=0
141312 On ch=1 n=b4 v=61
141312 On ch=1 n=d#5 v=61
141312 On ch=1 n=f5 v=72
141824 Off ch=1 n=d#3 v=0
141824 Off ch=1 n=d#4 v=0
141824 On ch=1 n=g#2 v=74
141824 On ch=1 n=g#3 v=86
142336 Off ch=1 n=b4 v=0
142336 Off ch=1 n=d#5 v=0
142336 Off ch=1 n=f5 v=0
142336 Off ch=1 n=g#2 v=0
142336 Off ch=1 n=g#3 v=0
142336 On ch=1 n=b3 v=74
142336 On ch=1 n=b4 v=86
142848 On ch=1 n=g#4 v=75
143360 Off ch=1 n=g#4 v=0
143360 On ch=1 n=d#5 v=64
143360 On ch=1 n=f5 v=76
143360 On ch=1 n=g#5 v=76
143872 Off ch=1 n=d#5 v=0
143872 Off ch=1 n=f5 v=0
143872 Off ch=1 n=g#5 v=0
143872 On ch=1 n=d#5 v=64
143872 On ch=1 n=f5 v=64
143872 On ch=1 n=g#5 v=77
144384 Off ch=1 n=b3 v=0
144384 Off ch=1 n=b4 v=0
144384 On ch=1 n=b3 v=78
144384 On ch=1 n=b4 v=90
144896 Off ch=1 n=d#5 v=0
144896 Off ch=1 n=f5 v=0
144896 Off ch=1 n=g#5 v=0
144896 Off ch=1 n=b3 v=0
144896 Off ch=1 n=b4 v=0
144896 On ch=1 n=b3 v=79
144896 On ch=1 n=b4 v=91
145408 On ch=1 n=d#5 v=80
145920 Off ch=1 n=d#5 v=0
145920 On ch=1 n=g#5 v=67
145920 On ch=1 n=d#6 v=80
146432 Off ch=1 n=g#5 v=0
146432 Off ch=1 n=d#6 v=0
146432 On ch=1 n=d#5 v=67
146432 On ch=1 n=g#5 v=67
146432 On ch=1 n=d#6 v=81
146944 Off ch=1 n=b3 v=0
146944 Off ch=1 n=b4 v=0
146944 On ch=1 n=d#4 v=83
146944 On ch=1 n=d#5 v=95
147456 Par ch=1 c=67 v=0
147456 Par ch=1 c=64 v=127
147456 Par ch=1 c=67 v=0
147456 Off ch=1 n=d#5 v=0
147456 Off ch=1 n=g#5 v=0
147456 Off ch=1 n=d#6 v=0
147456 Off ch=1 n=d#4 v=0
147456 Off ch=1 n=d#5 v=0
147456 On ch=1 n=d#4 v=83
147456 On ch=1 n=d#5 v=95
147968 On ch=1 n=d#5 v=84
148480 Off ch=1 n=d#5 v=0
148480 On ch=1 n=g#5 v=72
148480 On ch=1 n=b5 v=72
148480 On ch=1 n=d#6 v=86
148992 Off ch=1 n=g#5 v=0
148992 Off ch=1 n=b5 v=0
148992 Off ch=1 n=d#6 v=0
148992 On ch=1 n=f5 v=72
148992 On ch=1 n=b5 v=72
148992 On ch=1 n=d#6 v=72
148992 On ch=1 n=f6 v=86
149504 Off ch=1 n=d#4 v=0
149504 Off ch=1 n=d#5 v=0
149504 On ch=1 n=g#3 v=75
149504 On ch=1 n=g#4 v=87
150016 Off ch=1 n=f5 v=0
150016 Off ch=1 n=b5 v=0
150016 Off ch=1 n=d#6 v=0
150016 Off ch=1 n=f6 v=0
150016 Off ch=1 n=g#3 v=0
150016 Off ch=1 n=g#4 v=0
150016 On ch=1 n=b4 v=77
150016 On ch=1 n=b5 v=89
150528 On ch=1 n=g#5 v=89
151040 Off ch=1 n=g#5 v=0
151040 On ch=1 n=d#6 v=74
151040 On ch=1 n=f6 v=74
151040 On ch=1 n=g#6 v=90
151552 Off ch=1 n=d#6 v=0
151552 Off ch=1 n=f6 v=0
151552 Off ch=1 n=g#6 v=0
151552 On ch=1 n=g#5 v=75
151552 On ch=1 n=d#6 v=75
151552 On ch=1 n=f6 v=75
151552 On ch=1 n=g#6 v=91
152064 Off ch=1 n=b4 v=0
152064 Off ch=1 n=b5 v=0
152064 On ch=1 n=b4 v=80
152064 On ch=1 n=b5 v=92
152576 Off ch=1 n=g#5 v=0
152576 Off ch=1 n=d#6 v=0
152576 Off ch=1 n=f6 v=0
152576 Off ch=1 n=g#6 v=0
152576 Off ch=1 n=b4 v=0
152576 Off ch=1 n=b5 v=0
152576 On ch=1 n=b4 v=81
152576 On ch=1 n=b5 v=93
153088 On ch=1 n=d#6 v=94
153600 Off ch=1 n=d#6 v=0
153600 On ch=1 n=g#6 v=79
153600 On ch=1 n=d#7 v=96
154112 Off ch=1 n=g#6 v=0
154112 Off ch=1 n=d#7 v=0
154112 On ch=1 n=f6 v=80
154112 On ch=1 n=g#6 v=80
154112 On ch=1 n=d#7 v=80
154112 On ch=1 n=f7 v=96
154112 Off ch=1 n=b4 v=0
154112 Off ch=1 n=b5 v=0
154515 Par ch=1 c=64 v=0
154624 On ch=1 n=a#2 v=85
154624 On ch=1 n=a#3 v=97
155136 Par ch=1 c=67 v=0
155136 Par ch=1 c=64 v=127
155136 Par ch=1 c=67 v=0
155136 Off ch=1 n=f6 v=0
155136 Off ch=1 n=g#6 v=0
155136 Off ch=1 n=d#7 v=0
155136 Off ch=1 n=f7 v=0
155136 Off ch=1 n=a#2 v=0
155136 Off ch=1 n=a#3 v=0
155136 On ch=1 n=d#2 v=73
155136 On ch=1 n=d#3 v=85
155648 On ch=1 n=a#6 v=85
156160 Off ch=1 n=a#6 v=0
156160 On ch=1 n=d#7 v=85
156160 On ch=1 n=f7 v=90
156672 Off ch=1 n=d#7 v=0
156672 Off ch=1 n=f7 v=0
156672 On ch=1 n=a#6 v=85
156672 On ch=1 n=d#7 v=85
156672 On ch=1 n=f#7 v=90
157184 Off ch=1 n=d#2 v=0
157184 Off ch=1 n=d#3 v=0
157184 On ch=1 n=a#3 v=78
157184 On ch=1 n=a#4 v=90
157696 Off ch=1 n=a#6 v=0
157696 Off ch=1 n=d#7 v=0
157696 Off ch=1 n=f#7 v=0
157696 Off ch=1 n=a#3 v=0
157696 Off ch=1 n=a#4 v=0
157696 On ch=1 n=f#4 v=78
157696 On ch=1 n=f#5 v=90
158208 On ch=1 n=d#6 v=80
158720 Off ch=1 n=d#6 v=0
158720 On ch=1 n=f#6 v=80
158720 On ch=1 n=b6 v=85
159232 Off ch=1 n=f#6 v=0
159232 Off ch=1 n=b6 v=0
159232 On ch=1 n=d#6 v=80
159232 On ch=1 n=f#6 v=80
159232 On ch=1 n=a#6 v=85
159232 Off ch=1 n=f#4 v=0
159232 Off ch=1 n=f#5 v=0
159744 On ch=1 n=a#3 v=68
159744 On ch=1 n=a#4 v=80
160256 Off ch=1 n=d#6 v=0
160256 Off ch=1 n=f#6 v=0
160256 Off ch=1 n=a#6 v=0
160256 Off ch=1 n=a#3 v=0
160256 Off ch=1 n=a#4 v=0
160256 On ch=1 n=a#3 v=68
160256 On ch=1 n=a#4 v=80
160768 On ch=1 n=a#5 v=80
161280 Off ch=1 n=a#5 v=0
161280 On ch=1 n=d#6 v=80
161280 On ch=1 n=f6 v=85
161792 Off ch=1 n=d#6 v=0
161792 Off ch=1 n=f6 v=0
161792 On ch=1 n=a#5 v=80
161792 On ch=1 n=d#6 v=80
161792 On ch=1 n=f#6 v=85
161792 Off ch=1 n=a#3 v=0
161792 Off ch=1 n=a#4 v=0
162304 On ch=1 n=a#2 v=68
162304 On ch=1 n=a#3 v=80
162816 Par ch=1 c=67 v=0
162816 Par ch=1 c=67 v=0
162816 Off ch=1 n=a#5 v=0
162816 Off ch=1 n=d#6 v=0
162816 Off ch=1 n=f#6 v=0
162816 Off ch=1 n=a#2 v=0
162816 Off ch=1 n=a#3 v=0
162816 On ch=1 n=d#2 v=68
162816 On ch=1 n=d#3 v=80
162971 Par ch=1 c=64 v=101
162971 Par ch=1 c=64 v=101
162971 Par ch=1 c=64 v=101
162971 Par ch=1 c=64 v=127
163328 On ch=1 n=d#5 v=80
163840 Off ch=1 n=d#5 v=0
163840 On ch=1 n=f#5 v=80
163840 On ch=1 n=b5 v=85
164352 Off ch=1 n=f#5 v=0
164352 Off ch=1 n=b5 v=0
164352 On ch=1 n=d#5 v=80
164352 On ch=1 n=f#5 v=80
164352 On ch=1 n=a#5 v=85
164352 Off ch=1 n=d#2 v=0
164352 Off ch=1 n=d#3 v=0
164445 Par ch=1 c=64 v=0
164445 Par ch=1 c=64 v=0
164445 Par ch=1 c=64 v=0
164445 Par ch=1 c=64 v=0
164864 On ch=1 n=a#3 v=68
164864 On ch=1 n=a#4 v=80
165376 Off ch=1 n=d#5 v=0
165376 Off ch=1 n=f#5 v=0
165376 Off ch=1 n=a#5 v=0
165376 Off ch=1 n=a#3 v=0
165376 Off ch=1 n=a#4 v=0
165376 On ch=1 n=a#3 v=68
165376 On ch=1 n=a#4 v=80
165647 Par ch=1 c=64 v=101
165647 Par ch=1 c=64 v=101
165647 Par ch=1 c=64 v=101
165647 Par ch=1 c=64 v=127
165647 Par ch=1 c=64 v=101
165647 Par ch=1 c=64 v=101
165647 Par ch=1 c=64 v=101
165647 Par ch=1 c=64 v=127
165888 On ch=1 n=a#4 v=80
166400 Off ch=1 n=a#4 v=0
166400 On ch=1 n=d#5 v=80
166400 On ch=1 n=f5 v=85
166912 Off ch=1 n=d#5 v=0
166912 Off ch=1 n=f5 v=0
166912 On ch=1 n=a#4 v=80
166912 On ch=1 n=d#5 v=80
166912 On ch=1 n=f#5 v=85
166912 Off ch=1 n=a#3 v=0
166912 Off ch=1 n=a#4 v=0
167082 Par ch=1 c=64 v=0
167082 Par ch=1 c=64 v=0
167082 Par ch=1 c=64 v=0
167082 Par ch=1 c=64 v=0
167082 Par ch=1 c=64 v=0
167082 Par ch=1 c=64 v=0
167082 Par ch=1 c=64 v=0
167082 Par ch=1 c=64 v=0
167424 On ch=1 n=a#2 v=68
167424 On ch=1 n=a#3 v=80
167431 Par ch=1 c=64 v=0
167431 Par ch=1 c=64 v=0
167431 Par ch=1 c=64 v=0
167431 Par ch=1 c=64 v=0
167431 Par ch=1 c=64 v=0
167431 Par ch=1 c=64 v=0
167431 Par ch=1 c=64 v=0
167431 Par ch=1 c=64 v=0
167936 Off ch=1 n=a#4 v=0
167936 Off ch=1 n=d#5 v=0
167936 Off ch=1 n=f#5 v=0
167936 Off ch=1 n=a#2 v=0
167936 Off ch=1 n=a#3 v=0
167936 On ch=1 n=a#2 v=68
167936 On ch=1 n=a#3 v=80
168246 Par ch=1 c=64 v=101
168246 Par ch=1 c=64 v=101
168246 Par ch=1 c=64 v=101
168246 Par ch=1 c=64 v=127
168246 Par ch=1 c=64 v=101
168246 Par ch=1 c=64 v=101
168246 Par ch=1 c=64 v=101
168246 Par ch=1 c=64 v=127
168448 On ch=1 n=d#4 v=80
168960 Off ch=1 n=d#4 v=0
168960 On ch=1 n=f#4 v=80
168960 On ch=1 n=b4 v=85
169472 Off ch=1 n=f#4 v=0
169472 Off ch=1 n=b4 v=0
169472 On ch=1 n=d#4 v=80
169472 On ch=1 n=f#4 v=80
169472 On ch=1 n=a#4 v=85
169472 Off ch=1 n=a#2 v=0
169472 Off ch=1 n=a#3 v=0
169603 Par ch=1 c=64 v=0
169603 Par ch=1 c=64 v=0
169603 Par ch=1 c=64 v=0
169603 Par ch=1 c=64 v=0
169603 Par ch=1 c=64 v=0
169603 Par ch=1 c=64 v=0
169603 Par ch=1 c=64 v=0
169603 Par ch=1 c=64 v=0
169984 On ch=1 n=d#2 v=68
169984 On ch=1 n=d#3 v=80
170496 Par ch=1 c=67 v=0
170496 Par ch=1 c=67 v=0
170496 Off ch=1 n=d#4 v=0
170496 Off ch=1 n=f#4 v=0
170496 Off ch=1 n=a#4 v=0
170496 Off ch=1 n=d#2 v=0
170496 Off ch=1 n=d#3 v=0
170496 On ch=1 n=d#2 v=68
170496 On ch=1 n=d#3 v=80
170651 Par ch=1 c=64 v=101
170651 Par ch=1 c=64 v=101
170651 Par ch=1 c=64 v=101
170651 Par ch=1 c=64 v=127
170651 Par ch=1 c=64 v=101
170651 Par ch=1 c=64 v=101
170651 Par ch=1 c=64 v=101
171008 On ch=1 n=a#3 v=80
171520 Off ch=1 n=a#3 v=0
171520 On ch=1 n=d#4 v=73
171520 On ch=1 n=f4 v=85
172032 Off ch=1 n=d#4 v=0
172032 Off ch=1 n=f4 v=0
172032 On ch=1 n=a#3 v=73
172032 On ch=1 n=d#4 v=73
172032 On ch=1 n=f#4 v=85
172032 Off ch=1 n=d#2 v=0
172032 Off ch=1 n=d#3 v=0
172125 Par ch=1 c=64 v=0
172125 Par ch=1 c=64 v=0
172125 Par ch=1 c=64 v=0
172125 Par ch=1 c=64 v=0
172125 Par ch=1 c=64 v=0
172125 Par ch=1 c=64 v=0
172125 Par ch=1 c=64 v=0
172544 On ch=1 n=d#2 v=68
172544 On ch=1 n=d#3 v=80
173056 Off ch=1 n=a#3 v=0
173056 Off ch=1 n=d#4 v=0
173056 Off ch=1 n=f#4 v=0
173056 Off ch=1 n=d#2 v=0
173056 Off ch=1 n=d#3 v=0
173056 On ch=1 n=d#2 v=68
173056 On ch=1 n=d#3 v=80
173327 Par ch=1 c=64 v=101
173327 Par ch=1 c=64 v=101
173327 Par ch=1 c=64 v=101
173327 Par ch=1 c=64 v=127
173327 Par ch=1 c=64 v=101
173327 Par ch=1 c=64 v=101
173327 Par ch=1 c=64 v=101
173327 Par ch=1 c=64 v=127
173327 Par ch=1 c=64 v=101
173327 Par ch=1 c=64 v=101
173327 Par ch=1 c=64 v=101
173568 On ch=1 n=a#3 v=80
174080 Off ch=1 n=a#3 v=0
174080 On ch=1 n=d#4 v=73
174080 On ch=1 n=f4 v=85
174592 Off ch=1 n=d#4 v=0
174592 Off ch=1 n=f4 v=0
174592 On ch=1 n=a#3 v=78
174592 On ch=1 n=d#4 v=78
174592 On ch=1 n=f#4 v=90
174592 Off ch=1 n=d#2 v=0
174592 Off ch=1 n=d#3 v=0
174762 Par ch=1 c=64 v=0
174762 Par ch=1 c=64 v=0
174762 Par ch=1 c=64 v=0
174762 Par ch=1 c=64 v=0
174762 Par ch=1 c=64 v=0
174762 Par ch=1 c=64 v=0
174762 Par ch=1 c=64 v=0
174762 Par ch=1 c=64 v=0
174762 Par ch=1 c=64 v=0
174762 Par ch=1 c=64 v=0
174762 Par ch=1 c=64 v=0
175104 On ch=1 n=d#2 v=66
175104 On ch=1 n=d#3 v=76
175111 Par ch=1 c=64 v=0
175111 Par ch=1 c=64 v=0
175111 Par ch=1 c=64 v=0
175111 Par ch=1 c=64 v=0
175111 Par ch=1 c=64 v=0
175111 Par ch=1 c=64 v=0
175111 Par ch=1 c=64 v=0
175111 Par ch=1 c=64 v=0
175111 Par ch=1 c=64 v=0
175111 Par ch=1 c=64 v=0
175111 Par ch=1 c=64 v=0
175616 Off ch=1 n=a#3 v=0
175616 Off ch=1 n=d#4 v=0
175616 Off ch=1 n=f#4 v=0
175616 On ch=1 n=a#3 v=75
175616 On ch=1 n=d#4 v=75
175616 On ch=1 n=f#4 v=86
175616 Off ch=1 n=d#2 v=0
175616 Off ch=1 n=d#3 v=0
175616 On ch=1 n=d#2 v=68
175616 On ch=1 n=d#3 v=78
175926 Par ch=1 c=64 v=101
175926 Par ch=1 c=64 v=101
175926 Par ch=1 c=64 v=101
175926 Par ch=1 c=64 v=127
175926 Par ch=1 c=64 v=101
175926 Par ch=1 c=64 v=101
175926 Par ch=1 c=64 v=101
175926 Par ch=1 c=64 v=127
175926 Par ch=1 c=64 v=101
175926 Par ch=1 c=64 v=101
175926 Par ch=1 c=64 v=101
176128 Off ch=1 n=a#3 v=0
176128 Off ch=1 n=d#4 v=0
176128 Off ch=1 n=f#4 v=0
176128 On ch=1 n=a#3 v=78
176128 On ch=1 n=d#4 v=78
176128 On ch=1 n=f#4 v=89
176128 Off ch=1 n=d#2 v=0
176128 Off ch=1 n=d#3 v=0
176128 On ch=1 n=d#2 v=71
176128 On ch=1 n=d#3 v=82
176640 Off ch=1 n=a#3 v=0
176640 Off ch=1 n=d#4 v=0
176640 Off ch=1 n=f#4 v=0
176640 On ch=1 n=a#3 v=81
176640 On ch=1 n=d#4 v=81
176640 On ch=1 n=f#4 v=92
176640 Off ch=1 n=d#2 v=0
176640 Off ch=1 n=d#3 v=0
176640 On ch=1 n=d#2 v=73
176640 On ch=1 n=d#3 v=84
177152 Off ch=1 n=a#3 v=0
177152 Off ch=1 n=d#4 v=0
177152 Off ch=1 n=f#4 v=0
177152 On ch=1 n=a#3 v=83
177152 On ch=1 n=d#4 v=83
177152 On ch=1 n=f#4 v=96
177152 Off ch=1 n=d#2 v=0
177152 Off ch=1 n=d#3 v=0
177152 On ch=1 n=d#2 v=75
177152 On ch=1 n=d#3 v=86
177283 Par ch=1 c=64 v=0
177283 Par ch=1 c=64 v=0
177283 Par ch=1 c=64 v=0
177283 Par ch=1 c=64 v=0
177283 Par ch=1 c=64 v=0
177283 Par ch=1 c=64 v=0
177283 Par ch=1 c=64 v=0
177283 Par ch=1 c=64 v=0
177283 Par ch=1 c=64 v=0
177283 Par ch=1 c=64 v=0
177283 Par ch=1 c=64 v=0
177664 Off ch=1 n=a#3 v=0
177664 Off ch=1 n=d#4 v=0
177664 Off ch=1 n=f#4 v=0
177664 On ch=1 n=a#3 v=86
177664 On ch=1 n=d#4 v=86
177664 On ch=1 n=f#4 v=99
177664 Off ch=1 n=d#2 v=0
177664 Off ch=1 n=d#3 v=0
177664 On ch=1 n=d#2 v=78
177664 On ch=1 n=d#3 v=90
178176 Par ch=1 c=67 v=0
178176 Par ch=1 c=67 v=0
178176 Off ch=1 n=a#3 v=0
178176 Off ch=1 n=d#4 v=0
178176 Off ch=1 n=f#4 v=0
178176 Off ch=1 n=d#2 v=0
178176 Off ch=1 n=d#3 v=0
178176 On ch=1 n=a#3 v=89
178176 On ch=1 n=d#4 v=89
178176 On ch=1 n=f#4 v=103
178176 On ch=1 n=d#2 v=80
178176 On ch=1 n=a#2 v=80
178176 On ch=1 n=d#3 v=92
178331 Par ch=1 c=64 v=101
178331 Par ch=1 c=64 v=101
178331 Par ch=1 c=64 v=101
178331 Par ch=1 c=64 v=127
178331 Par ch=1 c=64 v=101
178331 Par ch=1 c=64 v=101
178331 Par ch=1 c=64 v=101
179805 Par ch=1 c=64 v=0
179805 Par ch=1 c=64 v=0
179805 Par ch=1 c=64 v=0
179805 Par ch=1 c=64 v=0
179805 Par ch=1 c=64 v=0
179805 Par ch=1 c=64 v=0
179805 Par ch=1 c=64 v=0
181007 Par ch=1 c=64 v=101
181007 Par ch=1 c=64 v=101
181007 Par ch=1 c=64 v=101
181007 Par ch=1 c=64 v=127
181007 Par ch=1 c=64 v=101
181007 Par ch=1 c=64 v=101
181007 Par ch=1 c=64 v=101
181007 Par ch=1 c=64 v=127
181007 Par ch=1 c=64 v=101
181007 Par ch=1 c=64 v=101
181007 Par ch=1 c=64 v=101
182442 Par ch=1 c=64 v=0
182442 Par ch=1 c=64 v=0
182442 Par ch=1 c=64 v=0
182442 Par ch=1 c=64 v=0
182442 Par ch=1 c=64 v=0
182442 Par ch=1 c=64 v=0
182442 Par ch=1 c=64 v=0
182442 Par ch=1 c=64 v=0
182442 Par ch=1 c=64 v=0
182442 Par ch=1 c=64 v=0
182442 Par ch=1 c=64 v=0
182791 Par ch=1 c=64 v=0
182791 Par ch=1 c=64 v=0
182791 Par ch=1 c=64 v=0
182791 Par ch=1 c=64 v=0
182791 Par ch=1 c=64 v=0
182791 Par ch=1 c=64 v=0
182791 Par ch=1 c=64 v=0
182791 Par ch=1 c=64 v=0
182791 Par ch=1 c=64 v=0
182791 Par ch=1 c=64 v=0
182791 Par ch=1 c=64 v=0
183606 Par ch=1 c=64 v=101
183606 Par ch=1 c=64 v=101
183606 Par ch=1 c=64 v=101
183606 Par ch=1 c=64 v=127
183606 Par ch=1 c=64 v=101
183606 Par ch=1 c=64 v=101
183606 Par ch=1 c=64 v=101
183606 Par ch=1 c=64 v=127
183606 Par ch=1 c=64 v=101
183606 Par ch=1 c=64 v=101
183606 Par ch=1 c=64 v=101
184963 Par ch=1 c=64 v=0
184963 Par ch=1 c=64 v=0
184963 Par ch=1 c=64 v=0
184963 Par ch=1 c=64 v=0
184963 Par ch=1 c=64 v=0
184963 Par ch=1 c=64 v=0
184963 Par ch=1 c=64 v=0
184963 Par ch=1 c=64 v=0
184963 Par ch=1 c=64 v=0
184963 Par ch=1 c=64 v=0
184963 Par ch=1 c=64 v=0
185856 Par ch=1 c=67 v=0
185856 Par ch=1 c=64 v=0
185856 Par ch=1 c=67 v=0
185856 Par ch=1 c=64 v=0
185856 Off ch=1 n=a#3 v=0
185856 Off ch=1 n=d#4 v=0
185856 Off ch=1 n=f#4 v=0
185856 Off ch=1 n=d#2 v=0
185856 Off ch=1 n=a#2 v=0
185856 Off ch=1 n=d#3 v=0
193536 Par ch=1 c=67 v=0
193536 Par ch=1 c=64 v=0
193536 Par ch=1 c=67 v=0
193536 Par ch=1 c=64 v=0
193538 Meta TrkEnd
TrkEnd
