MFile 1 2 1024
MTrk
0 TimeSig 1/8 12 8
0 KeySig 4 major
0 Tempo 1000000
512 TimeSig 6/8 36 8
512 Tempo 1200000
1536 Tempo 1000000
2048 Tempo 1200000
2560 Tempo 1000000
3072 Tempo 1200000
4096 Tempo 1200000
4608 Tempo 1000000
5632 Tempo 1000000
6144 Tempo 1333333
6656 Tempo 1200000
7168 Tempo 1333333
7680 Tempo 1000000
8704 Tempo 1200000
9216 Tempo 1333333
10240 Tempo 1000000
11776 Tempo 1333333
12288 Tempo 1500000
12800 Tempo 1200000
13824 Tempo 1000000
14848 Tempo 1000000
15360 Tempo 1200000
16384 Tempo 1000000
16896 Tempo 1000000
17920 Tempo 1200000
18432 Tempo 1333333
18944 Tempo 1200000
19456 Tempo 1333333
19968 Tempo 1000000
20992 Tempo 1200000
21504 Tempo 1000000
23040 Tempo 1200000
23040 Tempo 1276595
23552 Tempo 1333333
23552 Tempo 1428571
24064 Tempo 1500000
24064 Tempo 1621621
24576 Tempo 2000000
24576 Tempo 2307692
25088 Tempo 1200000
25088 Tempo 1276595
25600 Tempo 1000000
25600 Tempo 1052631
26112 Tempo 857142
26112 Tempo 895522
26624 Tempo 952380
27136 Tempo 1000000
27648 Tempo 1200000
28160 Tempo 1000000
28672 Tempo 857142
29184 Tempo 1200000
31232 Tempo 1200000
31744 Tempo 857142
33280 Tempo 1000000
34304 Tempo 1200000
34816 Tempo 1000000
35840 Tempo 1200000
36352 Tempo 1333333
36864 Tempo 1500000
37376 Tempo 1200000
38400 Tempo 1000000
39936 Tempo 1200000
40960 Tempo 1000000
42496 Tempo 1200000
43008 Tempo 1333333
43520 Tempo 1200000
44032 Tempo 1333333
44544 Tempo 1000000
45568 Tempo 1200000
46080 Tempo 1333333
46592 Tempo 1200000
47104 Tempo 1000000
48640 Tempo 1333333
49152 Tempo 1714285
49664 Tempo 1000000
50176 Tempo 2000000
50688 Tempo 2400000
51200 Tempo 1200000
52736 Tempo 2000000
54272 Tempo 1000000
54784 Tempo 6000000
55808 Tempo 2000000
56320 Tempo 1500000
56832 Tempo 1333333
57856 Tempo 1714285
58368 Tempo 2400000
58880 Tempo 6000000
60416 Tempo 270270
65024 Meta TrkEnd
TrkEnd
MTrk
0 Meta TrkName "Instrument  1"
0 PrCh ch=1 p=1
0 Par ch=1 c=67 v=0
0 Par ch=1 c=67 v=0
0 Par ch=1 c=64 v=0
512 Par ch=1 c=67 v=0
512 Par ch=1 c=67 v=0
512 Par ch=1 c=64 v=0
512 On ch=1 n=c#3 v=28
762 Par ch=1 c=64 v=127
1024 On ch=1 n=c#6 v=28
1024 On ch=1 n=g#6 v=53
1024 On ch=1 n=a4 v=16
1024 On ch=1 n=g#5 v=28
1536 Off ch=1 n=c#6 v=0
1536 Off ch=1 n=g#6 v=0
1536 On ch=1 n=g#5 v=23
1536 On ch=1 n=e6 v=45
1536 Off ch=1 n=a4 v=0
1536 Off ch=1 n=g#5 v=0
1536 On ch=1 n=e4 v=16
1536 On ch=1 n=c#5 v=23
2048 Off ch=1 n=g#5 v=0
2048 Off ch=1 n=e6 v=0
2048 On ch=1 n=c#6 v=28
2048 On ch=1 n=g6 v=53
2048 Off ch=1 n=e4 v=0
2048 Off ch=1 n=c#5 v=0
2048 On ch=1 n=a4 v=16
2048 On ch=1 n=g5 v=28
2059 Par ch=1 c=64 v=0
2310 Par ch=1 c=64 v=127
2560 Off ch=1 n=c#6 v=0
2560 Off ch=1 n=g6 v=0
2560 On ch=1 n=g5 v=20
2560 On ch=1 n=d#6 v=41
2560 Off ch=1 n=a4 v=0
2560 Off ch=1 n=g5 v=0
2560 On ch=1 n=d#4 v=16
2560 On ch=1 n=c#5 v=23
3072 Off ch=1 n=g5 v=0
3072 Off ch=1 n=d#6 v=0
3072 On ch=1 n=d#5 v=53
3072 Off ch=1 n=d#4 v=0
3072 Off ch=1 n=c#5 v=0
3584 Par ch=1 c=67 v=0
3584 Par ch=1 c=64 v=127
3584 Par ch=1 c=67 v=0
3584 Par ch=1 c=64 v=0
3584 Off ch=1 n=d#5 v=0
3584 Off ch=1 n=c#3 v=0
3584 On ch=1 n=e5 v=57
3584 On ch=1 n=c#3 v=28
3743 Par ch=1 c=64 v=0
4039 Par ch=1 c=64 v=127
4039 Par ch=1 c=64 v=126
4096 On ch=1 n=g#5 v=29
4096 On ch=1 n=e6 v=53
4096 On ch=1 n=e4 v=16
4096 On ch=1 n=c#5 v=23
4608 Off ch=1 n=g#5 v=0
4608 Off ch=1 n=e6 v=0
4608 On ch=1 n=e5 v=24
4608 On ch=1 n=c#6 v=45
4608 Off ch=1 n=e4 v=0
4608 Off ch=1 n=c#5 v=0
4608 On ch=1 n=g#4 v=16
4608 On ch=1 n=g#5 v=23
5120 Off ch=1 n=e5 v=0
5120 Off ch=1 n=c#6 v=0
5120 On ch=1 n=a#5 v=42
5120 Off ch=1 n=e5 v=0
5120 On ch=1 n=e5 v=18
5120 Off ch=1 n=g#4 v=0
5120 Off ch=1 n=g#5 v=0
5120 On ch=1 n=g4 v=23
5120 On ch=1 n=c#5 v=23
5177 Par ch=1 c=64 v=0
5359 Par ch=1 c=64 v=127
5632 Off ch=1 n=a#5 v=0
5632 On ch=1 n=g#5 v=38
5632 Off ch=1 n=g4 v=0
5632 On ch=1 n=g#4 v=14
5723 Par ch=1 c=64 v=0
5973 Par ch=1 c=64 v=127
6144 Off ch=1 n=g#5 v=0
6144 On ch=1 n=a#5 v=35
6144 Off ch=1 n=g#4 v=0
6144 On ch=1 n=a#3 v=21
6656 Par ch=1 c=67 v=0
6656 Par ch=1 c=64 v=127
6656 Par ch=1 c=67 v=0
6656 Par ch=1 c=64 v=0
6656 Off ch=1 n=a#5 v=0
6656 Off ch=1 n=e5 v=0
6656 Off ch=1 n=c#5 v=0
6656 Off ch=1 n=a#3 v=0
6656 Off ch=1 n=c#3 v=0
6656 On ch=1 n=d#3 v=27
6793 Par ch=1 c=64 v=0
6997 Par ch=1 c=64 v=127
7168 On ch=1 n=d#5 v=29
7168 On ch=1 n=b5 v=53
7168 On ch=1 n=b3 v=20
7168 On ch=1 n=g#4 v=20
7680 Off ch=1 n=d#5 v=0
7680 Off ch=1 n=b5 v=0
7680 On ch=1 n=b4 v=17
7680 On ch=1 n=g#5 v=36
7680 Off ch=1 n=d#3 v=0
7680 Off ch=1 n=b3 v=0
7680 Off ch=1 n=g#4 v=0
7680 On ch=1 n=d#4 v=13
7680 On ch=1 n=d#5 v=13
7930 Par ch=1 c=64 v=0
8192 Off ch=1 n=b4 v=0
8192 Off ch=1 n=g#5 v=0
8192 Off ch=1 n=d#4 v=0
8192 Off ch=1 n=d#5 v=0
8192 On ch=1 n=d#3 v=27
8294 Par ch=1 c=64 v=127
8704 On ch=1 n=c#5 v=28
8704 On ch=1 n=a5 v=48
8704 On ch=1 n=c#4 v=20
8704 On ch=1 n=g4 v=20
9216 Off ch=1 n=c#5 v=0
9216 Off ch=1 n=a5 v=0
9216 On ch=1 n=a4 v=18
9216 On ch=1 n=e5 v=36
9216 Off ch=1 n=d#3 v=0
9216 Off ch=1 n=c#4 v=0
9216 Off ch=1 n=g4 v=0
9216 On ch=1 n=e4 v=13
9216 On ch=1 n=c#5 v=13
9478 Par ch=1 c=64 v=0
9728 Par ch=1 c=67 v=0
9728 Par ch=1 c=64 v=0
9728 Par ch=1 c=67 v=0
9728 Par ch=1 c=64 v=0
9728 Off ch=1 n=a4 v=0
9728 Off ch=1 n=e5 v=0
9728 Off ch=1 n=e4 v=0
9728 Off ch=1 n=c#5 v=0
9728 On ch=1 n=g#2 v=27
9728 On ch=1 n=g#3 v=22
9956 Par ch=1 c=64 v=127
10240 On ch=1 n=c5 v=27
10240 On ch=1 n=g#5 v=47
10240 On ch=1 n=d#4 v=20
10240 Off ch=1 n=g#3 v=0
10240 On ch=1 n=g#3 v=15
10752 Par ch=1 c=64 v=0
10752 Off ch=1 n=c5 v=0
10752 Off ch=1 n=g#5 v=0
10752 On ch=1 n=a4 v=22
10752 On ch=1 n=c#5 v=39
10752 Off ch=1 n=d#4 v=0
10752 On ch=1 n=e4 v=20
10911 Par ch=1 c=64 v=127
11264 Off ch=1 n=a4 v=0
11264 Off ch=1 n=c#5 v=0
11264 On ch=1 n=c#5 v=29
11264 On ch=1 n=g#5 v=41
11264 Off ch=1 n=e4 v=0
11264 On ch=1 n=g#4 v=20
11275 Par ch=1 c=64 v=0
11526 Par ch=1 c=64 v=127
11776 Off ch=1 n=c#5 v=0
11776 Off ch=1 n=g#5 v=0
11776 On ch=1 n=c5 v=37
11776 On ch=1 n=d#5 v=27
11776 Off ch=1 n=g#4 v=0
11776 On ch=1 n=d#4 v=21
11799 Par ch=1 c=64 v=0
11981 Par ch=1 c=64 v=127
12288 Off ch=1 n=c5 v=0
12288 On ch=1 n=c6 v=34
12288 Off ch=1 n=d#4 v=0
12288 On ch=1 n=g#4 v=13
12345 Par ch=1 c=64 v=0
12595 Par ch=1 c=64 v=127
12672 On ch=1 n=f#3 v=22
12800 Par ch=1 c=67 v=0
12800 Par ch=1 c=67 v=0
12800 Par ch=1 c=64 v=0
12800 Off ch=1 n=c6 v=0
12800 Off ch=1 n=d#5 v=0
12800 Off ch=1 n=g#4 v=0
12800 Off ch=1 n=g#2 v=0
12800 Off ch=1 n=g#3 v=0
12800 On ch=1 n=c#5 v=30
12800 On ch=1 n=f#5 v=30
12800 On ch=1 n=c#6 v=42
12800 On ch=1 n=a4 v=42
13050 Par ch=1 c=64 v=127
13312 Off ch=1 n=c#5 v=0
13312 Off ch=1 n=f#5 v=0
13312 Off ch=1 n=c#6 v=0
13312 On ch=1 n=f#6 v=34
13312 On ch=1 n=c#7 v=53
13312 Off ch=1 n=a4 v=0
13312 On ch=1 n=d5 v=24
13312 On ch=1 n=c#6 v=29
13824 Off ch=1 n=f#6 v=0
13824 Off ch=1 n=c#7 v=0
13824 On ch=1 n=c#6 v=29
13824 On ch=1 n=a6 v=45
13824 Off ch=1 n=d5 v=0
13824 Off ch=1 n=c#6 v=0
13824 On ch=1 n=a4 v=24
13824 On ch=1 n=f#5 v=24
14336 Off ch=1 n=c#6 v=0
14336 Off ch=1 n=a6 v=0
14336 On ch=1 n=f#6 v=34
14336 On ch=1 n=c7 v=53
14336 Off ch=1 n=a4 v=0
14336 Off ch=1 n=f#5 v=0
14336 On ch=1 n=d5 v=24
14336 On ch=1 n=c6 v=29
14347 Par ch=1 c=64 v=0
14598 Par ch=1 c=64 v=127
14848 Off ch=1 n=f#6 v=0
14848 Off ch=1 n=c7 v=0
14848 On ch=1 n=c6 v=25
14848 On ch=1 n=g#6 v=40
14848 Off ch=1 n=d5 v=0
14848 Off ch=1 n=c6 v=0
14848 On ch=1 n=g#4 v=16
14848 On ch=1 n=f#5 v=16
15360 Off ch=1 n=c6 v=0
15360 Off ch=1 n=g#6 v=0
15360 On ch=1 n=g#5 v=53
15360 Off ch=1 n=g#4 v=0
15360 Off ch=1 n=f#5 v=0
15872 Par ch=1 c=67 v=0
15872 Par ch=1 c=64 v=127
15872 Par ch=1 c=67 v=0
15872 Par ch=1 c=64 v=0
15872 Off ch=1 n=g#5 v=0
15872 Off ch=1 n=f#3 v=0
15872 On ch=1 n=a5 v=57
15872 On ch=1 n=f#3 v=22
16031 Par ch=1 c=64 v=0
16327 Par ch=1 c=64 v=127
16327 Par ch=1 c=64 v=126
16384 On ch=1 n=c#6 v=34
16384 On ch=1 n=a6 v=53
16384 On ch=1 n=a4 v=24
16384 On ch=1 n=f#5 v=19
16896 Off ch=1 n=c#6 v=0
16896 Off ch=1 n=a6 v=0
16896 On ch=1 n=a5 v=29
16896 On ch=1 n=f#6 v=45
16896 Off ch=1 n=a4 v=0
16896 Off ch=1 n=f#5 v=0
16896 On ch=1 n=c#5 v=24
16896 On ch=1 n=c#6 v=19
17408 Off ch=1 n=a5 v=0
17408 Off ch=1 n=f#6 v=0
17408 On ch=1 n=d#6 v=47
17408 Off ch=1 n=a5 v=0
17408 On ch=1 n=a5 v=17
17408 Off ch=1 n=c#5 v=0
17408 Off ch=1 n=c#6 v=0
17408 On ch=1 n=c5 v=24
17408 On ch=1 n=f#5 v=19
17465 Par ch=1 c=64 v=0
17647 Par ch=1 c=64 v=127
17920 Off ch=1 n=d#6 v=0
17920 On ch=1 n=c#6 v=43
17920 Off ch=1 n=c5 v=0
17920 On ch=1 n=c#5 v=24
18011 Par ch=1 c=64 v=0
18261 Par ch=1 c=64 v=127
18432 Off ch=1 n=c#6 v=0
18432 On ch=1 n=d#6 v=40
18432 Off ch=1 n=c#5 v=0
18432 On ch=1 n=d#4 v=20
18944 Par ch=1 c=67 v=0
18944 Par ch=1 c=64 v=127
18944 Par ch=1 c=67 v=0
18944 Par ch=1 c=64 v=0
18944 Off ch=1 n=d#6 v=0
18944 Off ch=1 n=a5 v=0
18944 Off ch=1 n=f#5 v=0
18944 Off ch=1 n=d#4 v=0
18944 Off ch=1 n=f#3 v=0
18944 On ch=1 n=g#3 v=27
19081 Par ch=1 c=64 v=0
19285 Par ch=1 c=64 v=127
19456 On ch=1 n=g#5 v=29
19456 On ch=1 n=e6 v=53
19456 On ch=1 n=e4 v=20
19456 On ch=1 n=c#5 v=20
19968 Off ch=1 n=g#5 v=0
19968 Off ch=1 n=e6 v=0
19968 On ch=1 n=e5 v=17
19968 On ch=1 n=c#6 v=36
19968 Off ch=1 n=g#3 v=0
19968 Off ch=1 n=e4 v=0
19968 Off ch=1 n=c#5 v=0
19968 On ch=1 n=g#4 v=13
19968 On ch=1 n=g#5 v=13
20218 Par ch=1 c=64 v=0
20480 Off ch=1 n=e5 v=0
20480 Off ch=1 n=c#6 v=0
20480 Off ch=1 n=g#4 v=0
20480 Off ch=1 n=g#5 v=0
20480 On ch=1 n=g#3 v=27
20582 Par ch=1 c=64 v=127
20992 On ch=1 n=f#5 v=28
20992 On ch=1 n=d6 v=48
20992 On ch=1 n=f#4 v=20
20992 On ch=1 n=c5 v=20
21504 Off ch=1 n=f#5 v=0
21504 Off ch=1 n=d6 v=0
21504 On ch=1 n=d5 v=18
21504 On ch=1 n=a5 v=36
21504 Off ch=1 n=g#3 v=0
21504 Off ch=1 n=f#4 v=0
21504 Off ch=1 n=c5 v=0
21504 On ch=1 n=a4 v=13
21504 On ch=1 n=f#5 v=13
21766 Par ch=1 c=64 v=0
22016 Par ch=1 c=67 v=0
22016 Par ch=1 c=64 v=0
22016 Par ch=1 c=67 v=0
22016 Par ch=1 c=64 v=0
22016 Off ch=1 n=d5 v=0
22016 Off ch=1 n=a5 v=0
22016 Off ch=1 n=a4 v=0
22016 Off ch=1 n=f#5 v=0
22016 On ch=1 n=c#3 v=12
22016 On ch=1 n=c#4 v=19
22244 Par ch=1 c=64 v=127
22528 On ch=1 n=e5 v=27
22528 On ch=1 n=c#6 v=37
22528 On ch=1 n=g#4 v=17
22528 Off ch=1 n=c#3 v=0
22528 Off ch=1 n=c#4 v=0
22528 On ch=1 n=c#4 v=19
23040 Par ch=1 c=64 v=0
23040 Off ch=1 n=e5 v=0
23040 Off ch=1 n=c#6 v=0
23040 On ch=1 n=d#5 v=35
23040 On ch=1 n=f#5 v=45
23040 Off ch=1 n=g#4 v=0
23040 On ch=1 n=a4 v=17
23199 Par ch=1 c=64 v=127
23552 Off ch=1 n=d#5 v=0
23552 Off ch=1 n=f#5 v=0
23552 On ch=1 n=f#5 v=34
23552 On ch=1 n=c#6 v=47
23552 Off ch=1 n=a4 v=0
23552 On ch=1 n=c#5 v=21
23563 Par ch=1 c=64 v=0
23814 Par ch=1 c=64 v=127
24064 Off ch=1 n=f#5 v=0
24064 Off ch=1 n=c#6 v=0
24064 On ch=1 n=e5 v=21
24064 On ch=1 n=g#5 v=35
24064 Off ch=1 n=c#5 v=0
24064 On ch=1 n=g#4 v=17
24087 Par ch=1 c=64 v=0
24269 Par ch=1 c=64 v=127
24576 On ch=1 n=e6 v=29
24576 Off ch=1 n=g#4 v=0
24633 Par ch=1 c=64 v=0
24883 Par ch=1 c=64 v=127
25088 Par ch=1 c=67 v=0
25088 Par ch=1 c=64 v=127
25088 Par ch=1 c=67 v=0
25088 Par ch=1 c=64 v=0
25088 Off ch=1 n=e5 v=0
25088 Off ch=1 n=g#5 v=0
25088 Off ch=1 n=e6 v=0
25088 Off ch=1 n=c#4 v=0
25088 On ch=1 n=e3 v=23
25088 On ch=1 n=e4 v=30
25270 Par ch=1 c=64 v=0
25452 Par ch=1 c=64 v=127
25600 On ch=1 n=b5 v=30
25600 On ch=1 n=g#6 v=52
25600 On ch=1 n=b3 v=23
25600 On ch=1 n=b4 v=23
26112 Off ch=1 n=b5 v=0
26112 Off ch=1 n=g#6 v=0
26112 On ch=1 n=g#5 v=34
26112 On ch=1 n=d#6 v=55
26112 Off ch=1 n=b3 v=0
26112 Off ch=1 n=b4 v=0
26112 On ch=1 n=g#4 v=27
26112 On ch=1 n=d#5 v=27
26613 Par ch=1 c=64 v=0
26624 Off ch=1 n=g#5 v=0
26624 Off ch=1 n=d#6 v=0
26624 On ch=1 n=g#5 v=34
26624 On ch=1 n=e6 v=53
26624 Off ch=1 n=e4 v=0
26624 Off ch=1 n=g#4 v=0
26624 Off ch=1 n=d#5 v=0
26624 On ch=1 n=e4 v=25
26624 On ch=1 n=c#5 v=25
26886 Par ch=1 c=64 v=127
27136 Off ch=1 n=g#5 v=0
27136 Off ch=1 n=e6 v=0
27136 On ch=1 n=e5 v=27
27136 On ch=1 n=c#6 v=45
27136 Off ch=1 n=e4 v=0
27136 Off ch=1 n=c#5 v=0
27136 On ch=1 n=g#4 v=24
27136 On ch=1 n=g#5 v=24
27648 Off ch=1 n=e5 v=0
27648 Off ch=1 n=c#6 v=0
27648 On ch=1 n=e5 v=23
27648 On ch=1 n=b5 v=39
27648 Off ch=1 n=g#4 v=0
27648 Off ch=1 n=g#5 v=0
27648 On ch=1 n=b4 v=22
27648 On ch=1 n=g#5 v=22
28160 Par ch=1 c=67 v=0
28160 Par ch=1 c=64 v=127
28160 Par ch=1 c=67 v=0
28160 Par ch=1 c=64 v=0
28160 Off ch=1 n=e5 v=0
28160 Off ch=1 n=b5 v=0
28160 Off ch=1 n=e3 v=0
28160 Off ch=1 n=b4 v=0
28160 Off ch=1 n=g#5 v=0
28160 On ch=1 n=b2 v=25
28160 On ch=1 n=b3 v=25
28319 Par ch=1 c=64 v=0
28524 Par ch=1 c=64 v=127
28661 Par ch=1 c=64 v=127
28672 On ch=1 n=a4 v=31
28672 On ch=1 n=d#5 v=31
28672 On ch=1 n=f#5 v=44
28672 Off ch=1 n=b3 v=0
28672 On ch=1 n=b3 v=28
28672 On ch=1 n=b4 v=28
29184 Off ch=1 n=a4 v=0
29184 Off ch=1 n=d#5 v=0
29184 Off ch=1 n=f#5 v=0
29184 On ch=1 n=a4 v=31
29184 On ch=1 n=d#5 v=31
29184 On ch=1 n=g5 v=48
29184 Off ch=1 n=b3 v=0
29184 Off ch=1 n=b4 v=0
29184 On ch=1 n=b3 v=30
29184 On ch=1 n=b4 v=30
29298 Par ch=1 c=64 v=0
29571 Par ch=1 c=64 v=127
29696 Off ch=1 n=a4 v=0
29696 Off ch=1 n=d#5 v=0
29696 Off ch=1 n=g5 v=0
29696 On ch=1 n=g#4 v=31
29696 On ch=1 n=g#5 v=52
29696 On ch=1 n=d#5 v=48
29696 Off ch=1 n=b3 v=0
29696 Off ch=1 n=b4 v=0
29696 On ch=1 n=b3 v=33
29696 On ch=1 n=b4 v=33
29798 Par ch=1 c=64 v=0
30071 Par ch=1 c=64 v=127
30720 Off ch=1 n=d#5 v=0
30720 On ch=1 n=e5 v=35
30868 Par ch=1 c=64 v=0
31073 Par ch=1 c=64 v=127
31232 Par ch=1 c=67 v=0
31232 Par ch=1 c=64 v=127
31232 Par ch=1 c=67 v=0
31232 Par ch=1 c=64 v=0
31232 Off ch=1 n=g#4 v=0
31232 Off ch=1 n=g#5 v=0
31232 Off ch=1 n=e5 v=0
31232 Off ch=1 n=b2 v=0
31232 Off ch=1 n=b3 v=0
31232 Off ch=1 n=b4 v=0
31232 On ch=1 n=e3 v=23
31232 On ch=1 n=e4 v=30
31414 Par ch=1 c=64 v=0
31596 Par ch=1 c=64 v=127
31744 On ch=1 n=b5 v=29
31744 On ch=1 n=g#6 v=51
31744 On ch=1 n=b3 v=22
31744 On ch=1 n=b4 v=22
32256 Off ch=1 n=b5 v=0
32256 Off ch=1 n=g#6 v=0
32256 On ch=1 n=g#5 v=34
32256 On ch=1 n=d#6 v=55
32256 Off ch=1 n=b3 v=0
32256 Off ch=1 n=e4 v=0
32256 Off ch=1 n=b4 v=0
32256 On ch=1 n=g#4 v=27
32256 On ch=1 n=d#5 v=27
32757 Par ch=1 c=64 v=0
32768 Off ch=1 n=g#5 v=0
32768 Off ch=1 n=d#6 v=0
32768 On ch=1 n=g#5 v=34
32768 On ch=1 n=e6 v=53
32768 Off ch=1 n=g#4 v=0
32768 Off ch=1 n=d#5 v=0
32768 On ch=1 n=e4 v=25
32768 On ch=1 n=c#5 v=25
33030 Par ch=1 c=64 v=127
33280 Off ch=1 n=g#5 v=0
33280 Off ch=1 n=e6 v=0
33280 On ch=1 n=e5 v=28
33280 On ch=1 n=c#6 v=46
33280 Off ch=1 n=c#5 v=0
33280 On ch=1 n=g#4 v=24
33280 On ch=1 n=g#5 v=24
33792 Off ch=1 n=e5 v=0
33792 Off ch=1 n=c#6 v=0
33792 On ch=1 n=e5 v=22
33792 On ch=1 n=b5 v=38
33792 Off ch=1 n=g#4 v=0
33792 Off ch=1 n=g#5 v=0
33792 On ch=1 n=b4 v=22
33792 On ch=1 n=g#5 v=22
34304 Par ch=1 c=67 v=0
34304 Par ch=1 c=64 v=127
34304 Par ch=1 c=67 v=0
34304 Par ch=1 c=64 v=0
34304 Off ch=1 n=e5 v=0
34304 Off ch=1 n=b5 v=0
34304 Off ch=1 n=e3 v=0
34304 Off ch=1 n=e4 v=0
34304 Off ch=1 n=b4 v=0
34304 Off ch=1 n=g#5 v=0
34304 On ch=1 n=b2 v=32
34304 On ch=1 n=b3 v=32
34463 Par ch=1 c=64 v=0
34668 Par ch=1 c=64 v=127
34805 Par ch=1 c=64 v=127
34816 On ch=1 n=a4 v=38
34816 On ch=1 n=d#5 v=38
34816 On ch=1 n=f#5 v=55
34816 Off ch=1 n=b3 v=0
34816 On ch=1 n=b3 v=51
34816 On ch=1 n=b4 v=51
35328 Off ch=1 n=a4 v=0
35328 Off ch=1 n=d#5 v=0
35328 Off ch=1 n=f#5 v=0
35328 On ch=1 n=a4 v=40
35328 On ch=1 n=d#5 v=48
35328 On ch=1 n=g5 v=63
35328 Off ch=1 n=b3 v=0
35328 Off ch=1 n=b4 v=0
35328 On ch=1 n=b3 v=61
35328 On ch=1 n=b4 v=61
35442 Par ch=1 c=64 v=0
35715 Par ch=1 c=64 v=127
35840 Off ch=1 n=a4 v=0
35840 Off ch=1 n=d#5 v=0
35840 Off ch=1 n=g5 v=0
35840 On ch=1 n=g#4 v=48
35840 On ch=1 n=d5 v=48
35840 On ch=1 n=f#5 v=48
35840 On ch=1 n=g#5 v=71
35840 Off ch=1 n=b3 v=0
35840 Off ch=1 n=b4 v=0
35840 On ch=1 n=b3 v=59
35840 On ch=1 n=b4 v=59
35942 Par ch=1 c=64 v=0
36215 Par ch=1 c=64 v=127
36352 Off ch=1 n=b2 v=0
36352 Off ch=1 n=b3 v=0
36352 Off ch=1 n=b4 v=0
36352 On ch=1 n=c4 v=59
36352 On ch=1 n=c5 v=71
36466 Par ch=1 c=64 v=0
36716 Par ch=1 c=64 v=127
36864 Off ch=1 n=c4 v=0
36864 Off ch=1 n=c5 v=0
36864 On ch=1 n=g#3 v=64
36864 On ch=1 n=g#4 v=76
37012 Par ch=1 c=64 v=0
37217 Par ch=1 c=64 v=127
37376 Par ch=1 c=67 v=0
37376 Par ch=1 c=64 v=127
37376 Par ch=1 c=67 v=0
37376 Par ch=1 c=64 v=0
37376 Off ch=1 n=g#4 v=0
37376 Off ch=1 n=d5 v=0
37376 Off ch=1 n=f#5 v=0
37376 Off ch=1 n=g#5 v=0
37376 Off ch=1 n=g#3 v=0
37376 Off ch=1 n=g#4 v=0
37376 On ch=1 n=c#2 v=67
37376 On ch=1 n=c#3 v=79
37558 Par ch=1 c=64 v=0
37786 Par ch=1 c=64 v=127
37888 On ch=1 n=g#6 v=84
37888 On ch=1 n=g#5 v=56
37888 On ch=1 n=c#6 v=56
37888 On ch=1 n=a4 v=51
37888 On ch=1 n=c#5 v=51
37888 On ch=1 n=a5 v=67
38400 Off ch=1 n=g#6 v=0
38400 On ch=1 n=e6 v=77
38400 Off ch=1 n=a4 v=0
38400 Off ch=1 n=c#5 v=0
38400 Off ch=1 n=a5 v=0
38400 On ch=1 n=e4 v=51
38400 On ch=1 n=e5 v=67
38912 Off ch=1 n=e6 v=0
38912 On ch=1 n=g6 v=84
38912 Off ch=1 n=g#5 v=0
38912 Off ch=1 n=c#6 v=0
38912 On ch=1 n=g5 v=56
38912 On ch=1 n=c#6 v=56
38912 Off ch=1 n=e4 v=0
38912 Off ch=1 n=e5 v=0
38912 On ch=1 n=a4 v=51
38912 On ch=1 n=c#5 v=51
38912 On ch=1 n=a5 v=67
39424 Off ch=1 n=g6 v=0
39424 On ch=1 n=d#6 v=77
39424 Off ch=1 n=a4 v=0
39424 Off ch=1 n=c#5 v=0
39424 Off ch=1 n=a5 v=0
39424 On ch=1 n=d#4 v=51
39424 On ch=1 n=d#5 v=67
39936 Off ch=1 n=d#6 v=0
39936 Off ch=1 n=g5 v=0
39936 Off ch=1 n=c#6 v=0
39936 On ch=1 n=d#5 v=79
39936 Off ch=1 n=d#4 v=0
39936 Off ch=1 n=d#5 v=0
40448 Par ch=1 c=67 v=0
40448 Par ch=1 c=64 v=127
40448 Par ch=1 c=67 v=0
40448 Par ch=1 c=64 v=0
40448 Off ch=1 n=d#5 v=0
40448 Off ch=1 n=c#2 v=0
40448 Off ch=1 n=c#3 v=0
40448 On ch=1 n=e5 v=79
40448 On ch=1 n=c#2 v=68
40448 On ch=1 n=c#3 v=80
40630 Par ch=1 c=64 v=0
40858 Par ch=1 c=64 v=127
40960 On ch=1 n=g#5 v=64
40960 On ch=1 n=e6 v=81
40960 On ch=1 n=e4 v=60
40960 On ch=1 n=c#5 v=67
41472 Off ch=1 n=g#5 v=0
41472 Off ch=1 n=e6 v=0
41472 On ch=1 n=e5 v=61
41472 On ch=1 n=c#6 v=78
41472 Off ch=1 n=e4 v=0
41472 Off ch=1 n=c#5 v=0
41472 On ch=1 n=g#4 v=60
41472 On ch=1 n=g#5 v=67
41984 Off ch=1 n=e5 v=0
41984 Off ch=1 n=c#6 v=0
41984 On ch=1 n=a#5 v=77
41984 Off ch=1 n=e5 v=0
41984 On ch=1 n=e5 v=56
41984 Off ch=1 n=g#4 v=0
41984 Off ch=1 n=g#5 v=0
41984 On ch=1 n=c#5 v=67
41984 On ch=1 n=g4 v=67
42496 Off ch=1 n=a#5 v=0
42496 On ch=1 n=g#5 v=74
42496 Off ch=1 n=g4 v=0
42496 On ch=1 n=g#4 v=67
43008 Off ch=1 n=g#5 v=0
43008 On ch=1 n=c#5 v=72
43008 Off ch=1 n=g#4 v=0
43520 Par ch=1 c=67 v=0
43520 Par ch=1 c=64 v=127
43520 Par ch=1 c=67 v=0
43520 Par ch=1 c=64 v=0
43520 Off ch=1 n=c#5 v=0
43520 Off ch=1 n=e5 v=0
43520 Off ch=1 n=c#2 v=0
43520 Off ch=1 n=c#3 v=0
43520 Off ch=1 n=c#5 v=0
43520 On ch=1 n=c#2 v=68
43520 On ch=1 n=c#3 v=80
43634 Par ch=1 c=64 v=0
43816 Par ch=1 c=64 v=127
44032 On ch=1 n=c#6 v=86
44032 On ch=1 n=c#5 v=58
44032 On ch=1 n=f#5 v=58
44032 On ch=1 n=d4 v=55
44032 On ch=1 n=f#4 v=55
44032 On ch=1 n=d5 v=67
44544 Off ch=1 n=c#6 v=0
44544 On ch=1 n=a5 v=74
44544 Off ch=1 n=d4 v=0
44544 Off ch=1 n=f#4 v=0
44544 Off ch=1 n=d5 v=0
44544 On ch=1 n=a3 v=55
44544 On ch=1 n=a4 v=67
45056 Off ch=1 n=a5 v=0
45056 Off ch=1 n=c#5 v=0
45056 Off ch=1 n=f#5 v=0
45056 Off ch=1 n=c#2 v=0
45056 Off ch=1 n=c#3 v=0
45056 Off ch=1 n=a3 v=0
45056 Off ch=1 n=a4 v=0
45056 On ch=1 n=c#2 v=68
45056 On ch=1 n=c#3 v=80
45067 Par ch=1 c=64 v=0
45272 Par ch=1 c=64 v=127
45568 On ch=1 n=c6 v=86
45568 On ch=1 n=c5 v=58
45568 On ch=1 n=f#5 v=58
45568 On ch=1 n=d4 v=55
45568 On ch=1 n=f#4 v=67
45568 On ch=1 n=d5 v=67
46080 Off ch=1 n=c6 v=0
46080 On ch=1 n=g#5 v=74
46080 Off ch=1 n=d4 v=0
46080 Off ch=1 n=f#4 v=0
46080 Off ch=1 n=d5 v=0
46080 On ch=1 n=g#3 v=55
46080 On ch=1 n=g#4 v=67
46592 Par ch=1 c=67 v=0
46592 Par ch=1 c=64 v=127
46592 Par ch=1 c=67 v=0
46592 Par ch=1 c=64 v=0
46592 Off ch=1 n=g#5 v=0
46592 Off ch=1 n=c5 v=0
46592 Off ch=1 n=f#5 v=0
46592 Off ch=1 n=c#2 v=0
46592 Off ch=1 n=c#3 v=0
46592 Off ch=1 n=g#3 v=0
46592 Off ch=1 n=g#4 v=0
46592 On ch=1 n=c#2 v=67
46592 On ch=1 n=c#3 v=79
46774 Par ch=1 c=64 v=0
47002 Par ch=1 c=64 v=127
47104 On ch=1 n=c#5 v=54
47104 On ch=1 n=a5 v=74
47104 Off ch=1 n=c#2 v=0
47104 On ch=1 n=a3 v=58
47104 On ch=1 n=f#4 v=58
47616 Off ch=1 n=c#5 v=0
47616 Off ch=1 n=a5 v=0
47616 On ch=1 n=a4 v=56
47616 On ch=1 n=f#5 v=76
47616 Off ch=1 n=a3 v=0
47616 Off ch=1 n=f#4 v=0
47616 On ch=1 n=c#4 v=58
47616 On ch=1 n=c#5 v=58
48128 Off ch=1 n=a4 v=0
48128 Off ch=1 n=f#5 v=0
48128 On ch=1 n=d#5 v=72
48128 On ch=1 n=a4 v=61
48128 Off ch=1 n=c#3 v=0
48128 Off ch=1 n=c#4 v=0
48128 Off ch=1 n=c#5 v=0
48128 On ch=1 n=f#4 v=67
48128 On ch=1 n=c4 v=67
48139 Par ch=1 c=64 v=0
48321 Par ch=1 c=64 v=127
48640 Off ch=1 n=d#5 v=0
48640 On ch=1 n=c#5 v=77
48640 Off ch=1 n=c4 v=0
48640 On ch=1 n=c#4 v=79
48777 Par ch=1 c=64 v=0
49095 Par ch=1 c=64 v=127
49152 Off ch=1 n=c#5 v=0
49152 On ch=1 n=c#5 v=84
49152 Off ch=1 n=c#4 v=0
49152 On ch=1 n=c#4 v=79
49664 Par ch=1 c=67 v=0
49664 Par ch=1 c=64 v=127
49664 Par ch=1 c=67 v=0
49664 Par ch=1 c=64 v=0
49664 Off ch=1 n=c#5 v=0
49664 Off ch=1 n=a4 v=0
49664 Off ch=1 n=f#4 v=0
49664 Off ch=1 n=c#4 v=0
49664 On ch=1 n=c#5 v=92
49664 On ch=1 n=f#4 v=61
49664 On ch=1 n=a4 v=61
49664 On ch=1 n=c#4 v=80
49664 On ch=1 n=f#3 v=61
49869 Par ch=1 c=64 v=0
50051 Par ch=1 c=64 v=127
50176 Off ch=1 n=f#4 v=0
50176 Off ch=1 n=a4 v=0
50176 Off ch=1 n=f#3 v=0
50984 Par ch=1 c=64 v=0
51200 Off ch=1 n=c#5 v=0
51200 On ch=1 n=c#5 v=92
51200 On ch=1 n=e4 v=61
51200 On ch=1 n=a4 v=61
51200 On ch=1 n=e5 v=61
51200 Off ch=1 n=c#4 v=0
51200 On ch=1 n=c#4 v=80
51200 On ch=1 n=e3 v=61
51575 Par ch=1 c=64 v=127
51712 Off ch=1 n=e4 v=0
51712 Off ch=1 n=a4 v=0
51712 Off ch=1 n=e5 v=0
51712 Off ch=1 n=e3 v=0
52463 Par ch=1 c=64 v=0
52736 Par ch=1 c=67 v=0
52736 Par ch=1 c=67 v=0
52736 Par ch=1 c=64 v=0
54272 Off ch=1 n=c#5 v=0
54272 On ch=1 n=c#5 v=88
54272 On ch=1 n=a4 v=63
54272 On ch=1 n=f#5 v=81
54272 Off ch=1 n=c#4 v=0
54272 On ch=1 n=c#4 v=55
54272 On ch=1 n=d#3 v=71
54625 Par ch=1 c=64 v=127
54784 Off ch=1 n=a4 v=0
54784 Off ch=1 n=f#5 v=0
54784 Off ch=1 n=d#3 v=0
55421 Par ch=1 c=64 v=0
55808 Par ch=1 c=64 v=127
55808 Par ch=1 c=67 v=0
55808 Par ch=1 c=64 v=127
55808 Par ch=1 c=67 v=0
55808 On ch=1 n=c#2 v=23
56320 Off ch=1 n=c#2 v=0
56320 On ch=1 n=c#3 v=23
56832 Off ch=1 n=c#3 v=0
56832 On ch=1 n=g#3 v=23
57344 On ch=1 n=e4 v=23
57344 Off ch=1 n=g#3 v=0
57856 Off ch=1 n=e4 v=0
57856 On ch=1 n=g#4 v=25
58368 Off ch=1 n=g#4 v=0
58368 On ch=1 n=c#5 v=27
58880 Par ch=1 c=64 v=127
58880 Par ch=1 c=67 v=0
58880 Par ch=1 c=64 v=127
58880 Par ch=1 c=67 v=0
58880 Off ch=1 n=c#5 v=0
58880 On ch=1 n=g#5 v=29
60416 Off ch=1 n=c#5 v=0
60416 Off ch=1 n=g#5 v=0
60416 Off ch=1 n=c#4 v=0
61952 Par ch=1 c=64 v=0
61952 Par ch=1 c=67 v=0
61952 Par ch=1 c=64 v=0
61952 Par ch=1 c=67 v=0
65024 Par ch=1 c=64 v=0
65024 Par ch=1 c=67 v=0
65024 Par ch=1 c=64 v=0
65024 Par ch=1 c=67 v=0
65024 Meta TrkEnd
TrkEnd
