MFile 1 2 1024
MTrk
0 TimeSig 1/8 12 8
0 KeySig 2 major
0 Tempo 750000
512 TimeSig 2/2 48 8
512 Tempo 1333333
1024 Tempo 937500
1536 Tempo 857142
2048 Tempo 750000
3584 Tempo 857142
4096 Tempo 1000000
5120 Tempo 937500
6144 Tempo 1200000
6656 Tempo 937500
7168 Tempo 857142
7680 Tempo 1000000
8021 Tempo 937500
8704 Tempo 1200000
9216 Tempo 937500
9728 Tempo 1200000
10069 Tempo 937500
10752 Tempo 937500
11264 Tempo 857142
12544 Tempo 1200000
13312 Tempo 750000
14848 Tempo 857142
15360 Tempo 750000
16384 Tempo 937500
16896 Tempo 937500
17408 Tempo 681818
18944 Tempo 857142
19456 Tempo 681818
20992 Tempo 937500
21504 Tempo 681818
23040 Tempo 750000
24064 Tempo 857142
25088 Tempo 937500
25600 Tempo 750000
27136 Tempo 857142
27648 Tempo 681818
28672 Tempo 937500
29184 Tempo 1200000
29696 Tempo 857142
30208 Tempo 750000
31232 Tempo 937500
31744 Tempo 857142
32768 Tempo 937500
33280 Tempo 1200000
33792 Tempo 857142
34304 Tempo 1200000
34645 Tempo 937500
35328 Tempo 937500
35840 Tempo 681818
36352 Tempo 857142
37120 Tempo 1200000
37376 Tempo 937500
37888 Tempo 857142
38912 Tempo 937500
39424 Tempo 937500
39936 Tempo 857142
40448 Tempo 750000
41472 Tempo 937500
41984 Tempo 750000
42496 Tempo 937500
42837 Tempo 857142
43520 Tempo 937500
44032 Tempo 750000
45312 Tempo 1200000
45568 Tempo 937500
46080 Tempo 750000
47616 Tempo 937500
48128 Tempo 857142
48640 Tempo 750000
49152 Tempo 1200000
49664 Tempo 937500
50176 Tempo 681818
51712 Tempo 857142
52224 Tempo 681818
53760 Tempo 937500
54272 Tempo 681818
55808 Tempo 750000
56832 Tempo 937500
57173 Tempo 857142
57856 Tempo 937500
58368 Tempo 681818
59904 Tempo 857142
60416 Tempo 750000
60928 Tempo 857142
61440 Tempo 937500
61952 Tempo 937500
62464 Tempo 681818
62976 Tempo 666666
64000 Tempo 857142
64512 Tempo 681818
66048 Tempo 857142
66560 Tempo 666666
68096 Tempo 937500
68608 Tempo 666666
70144 Tempo 857142
70656 Tempo 666666
72192 Tempo 857142
73216 Tempo 681818
73728 Tempo 1200000
74240 Tempo 1000000
74752 Tempo 681818
76288 Tempo 750000
77824 Tempo 857142
78336 Tempo 937500
78848 Tempo 857142
79872 Tempo 937500
80384 Tempo 1000000
81408 Tempo 1200000
81920 Tempo 1500000
82944 Tempo 937500
83456 Tempo 857142
83968 Tempo 750000
84992 Tempo 750000
86528 Tempo 857142
87040 Tempo 750000
88576 Tempo 1000000
89600 Tempo 1200000
90112 Tempo 1333333
91136 Tempo 750000
91648 Tempo 1200000
91989 Tempo 937500
92672 Tempo 937500
93184 Tempo 681818
94464 Tempo 1333333
94720 Tempo 1200000
95232 Tempo 750000
96256 Tempo 937500
97280 Tempo 857142
97792 Tempo 1200000
98133 Tempo 937500
98560 Tempo 1200000
98816 Tempo 937500
99328 Tempo 857142
99840 Tempo 1200000
100181 Tempo 1000000
100608 Tempo 1714285
100864 Tempo 1200000
101376 Tempo 857142
102400 Tempo 681818
102656 Tempo 2400000
102912 Tempo 1200000
103424 Tempo 937500
103936 Tempo 1200000
104704 Tempo 2000000
104960 Tempo 1500000
105779 Tempo 1500000
106189 Tempo 1714285
106598 Tempo 2400000
107008 Tempo 1200000
109056 Tempo 1333333
119296 Tempo 300000
123393 Meta TrkEnd
TrkEnd
MTrk
0 Meta TrkName "Instrument  1"
0 PrCh ch=1 p=1
0 Par ch=1 c=64 v=0
0 Par ch=1 c=64 v=0
512 Par ch=1 c=64 v=0
512 Par ch=1 c=64 v=0
512 On ch=1 n=c#5 v=24
512 On ch=1 n=g5 v=24
512 On ch=1 n=a5 v=44
512 On ch=1 n=a4 v=22
821 Par ch=1 c=64 v=127
1024 On ch=1 n=e4 v=28
1064 Off ch=1 n=a4 v=0
1536 On ch=1 n=b4 v=31
1576 Off ch=1 n=e4 v=0
2048 On ch=1 n=a4 v=28
2088 Off ch=1 n=b4 v=0
2560 Par ch=1 c=64 v=0
2560 Off ch=1 n=g5 v=0
2560 On ch=1 n=d5 v=20
2560 On ch=1 n=g5 v=20
2560 On ch=1 n=b5 v=46
2560 On ch=1 n=g4 v=26
2600 Off ch=1 n=a4 v=0
2610 Off ch=1 n=c#5 v=0
2610 Off ch=1 n=a5 v=0
2925 Par ch=1 c=64 v=127
3072 On ch=1 n=f#4 v=23
3112 Off ch=1 n=g4 v=0
3584 On ch=1 n=a4 v=23
3624 Off ch=1 n=f#4 v=0
4096 On ch=1 n=g4 v=18
4136 Off ch=1 n=a4 v=0
4608 Par ch=1 c=64 v=127
4608 Par ch=1 c=64 v=0
4608 On ch=1 n=c#5 v=15
4608 On ch=1 n=a5 v=15
4608 On ch=1 n=c#6 v=36
4608 On ch=1 n=f#4 v=20
4648 Off ch=1 n=g4 v=0
4658 Off ch=1 n=d5 v=0
4658 Off ch=1 n=g5 v=0
4658 Off ch=1 n=b5 v=0
4774 Par ch=1 c=64 v=0
5012 Par ch=1 c=64 v=127
5120 On ch=1 n=a3 v=22
5160 Off ch=1 n=f#4 v=0
5632 On ch=1 n=b3 v=21
5672 Off ch=1 n=a3 v=0
6144 On ch=1 n=a3 v=20
6184 Off ch=1 n=b3 v=0
6626 Par ch=1 c=64 v=0
6656 On ch=1 n=d5 v=13
6656 On ch=1 n=f#5 v=13
6656 On ch=1 n=d6 v=29
6656 On ch=1 n=d3 v=19
6696 Off ch=1 n=a3 v=0
6706 Off ch=1 n=c#5 v=0
6706 Off ch=1 n=a5 v=0
6706 Off ch=1 n=c#6 v=0
6888 Par ch=1 c=64 v=127
7168 On ch=1 n=a3 v=23
7208 Off ch=1 n=d3 v=0
7680 On ch=1 n=f#4 v=26
7720 Off ch=1 n=a3 v=0
8021 On ch=1 n=c#5 v=29
8061 Off ch=1 n=f#4 v=0
8363 On ch=1 n=b4 v=28
8403 Off ch=1 n=c#5 v=0
8692 Par ch=1 c=64 v=0
8704 Par ch=1 c=64 v=127
8704 Par ch=1 c=64 v=0
8704 Par ch=1 c=64 v=0
8704 Off ch=1 n=d5 v=0
8704 Off ch=1 n=f#5 v=0
8704 Off ch=1 n=d6 v=0
8704 On ch=1 n=a5 v=45
8704 On ch=1 n=c#5 v=26
8704 On ch=1 n=g5 v=26
8704 On ch=1 n=a4 v=24
8744 Off ch=1 n=b4 v=0
8870 Par ch=1 c=64 v=0
9025 Par ch=1 c=64 v=127
9108 Par ch=1 c=64 v=127
9216 On ch=1 n=e4 v=25
9256 Off ch=1 n=a4 v=0
9728 On ch=1 n=b4 v=26
9768 Off ch=1 n=e4 v=0
10069 On ch=1 n=g#5 v=46
10119 Off ch=1 n=a5 v=0
10240 On ch=1 n=a4 v=27
10280 Off ch=1 n=b4 v=0
10411 On ch=1 n=a5 v=49
10461 Off ch=1 n=g#5 v=0
10722 Par ch=1 c=64 v=0
10752 Off ch=1 n=g5 v=0
10752 On ch=1 n=b5 v=53
10752 On ch=1 n=d5 v=32
10752 On ch=1 n=g5 v=32
10752 On ch=1 n=g4 v=28
10758 Par ch=1 c=64 v=0
10792 Off ch=1 n=a4 v=0
10802 Off ch=1 n=c#5 v=0
10802 Off ch=1 n=a5 v=0
10984 Par ch=1 c=64 v=127
11043 Par ch=1 c=64 v=127
11264 On ch=1 n=f#4 v=26
11304 Off ch=1 n=g4 v=0
11776 On ch=1 n=a4 v=23
11816 Off ch=1 n=f#4 v=0
12288 On ch=1 n=g4 v=20
12328 Off ch=1 n=a4 v=0
12544 On ch=1 n=c#6 v=42
12594 Off ch=1 n=b5 v=0
12788 Par ch=1 c=64 v=0
12800 Par ch=1 c=64 v=127
12800 Par ch=1 c=64 v=0
12800 Par ch=1 c=64 v=0
12800 Par ch=1 c=64 v=0
12800 Off ch=1 n=c#6 v=0
12800 On ch=1 n=c#5 v=18
12800 On ch=1 n=a5 v=18
12800 On ch=1 n=c#6 v=41
12800 On ch=1 n=f#4 v=18
12840 Off ch=1 n=g4 v=0
12850 Off ch=1 n=d5 v=0
12850 Off ch=1 n=g5 v=0
12966 Par ch=1 c=64 v=0
13121 Par ch=1 c=64 v=127
13204 Par ch=1 c=64 v=127
13312 On ch=1 n=a3 v=18
13352 Off ch=1 n=f#4 v=0
13824 On ch=1 n=b3 v=17
13864 Off ch=1 n=a3 v=0
14336 On ch=1 n=a3 v=16
14376 Off ch=1 n=b3 v=0
14818 Par ch=1 c=64 v=0
14848 On ch=1 n=d5 v=8
14848 On ch=1 n=f#5 v=8
14848 On ch=1 n=d6 v=31
14848 On ch=1 n=d3 v=15
14854 Par ch=1 c=64 v=0
14888 Off ch=1 n=a3 v=0
14898 Off ch=1 n=c#5 v=0
14898 Off ch=1 n=a5 v=0
14898 Off ch=1 n=c#6 v=0
15080 Par ch=1 c=64 v=127
15139 Par ch=1 c=64 v=127
15360 On ch=1 n=d4 v=22
15400 Off ch=1 n=d3 v=0
15872 On ch=1 n=g#4 v=28
15912 Off ch=1 n=d4 v=0
16384 On ch=1 n=a4 v=35
16424 Off ch=1 n=g#4 v=0
16884 Par ch=1 c=64 v=0
16896 Par ch=1 c=64 v=127
16896 Par ch=1 c=64 v=0
16896 Par ch=1 c=64 v=0
16896 Par ch=1 c=64 v=0
16896 Par ch=1 c=64 v=0
16896 Off ch=1 n=d5 v=0
16896 Off ch=1 n=f#5 v=0
16896 Off ch=1 n=d6 v=0
16896 On ch=1 n=e5 v=31
16896 On ch=1 n=f#5 v=31
16896 On ch=1 n=c#6 v=50
16896 On ch=1 n=a#4 v=38
16936 Off ch=1 n=a4 v=0
17062 Par ch=1 c=64 v=0
17217 Par ch=1 c=64 v=127
17300 Par ch=1 c=64 v=127
17408 On ch=1 n=c#4 v=36
17448 Off ch=1 n=a#4 v=0
17920 On ch=1 n=f#3 v=32
17960 Off ch=1 n=c#4 v=0
18432 On ch=1 n=c#4 v=36
18472 Off ch=1 n=f#3 v=0
18914 Par ch=1 c=64 v=0
18944 Off ch=1 n=e5 v=0
18944 Off ch=1 n=f#5 v=0
18944 Off ch=1 n=c#6 v=0
18944 On ch=1 n=a#4 v=26
18944 On ch=1 n=e5 v=26
18944 On ch=1 n=f#5 v=45
18944 On ch=1 n=d4 v=39
18950 Par ch=1 c=64 v=0
18984 Off ch=1 n=c#4 v=0
19176 Par ch=1 c=64 v=127
19235 Par ch=1 c=64 v=127
19456 On ch=1 n=c#4 v=36
19496 Off ch=1 n=d4 v=0
19968 On ch=1 n=f#4 v=33
20008 Off ch=1 n=c#4 v=0
20480 On ch=1 n=c#4 v=31
20520 Off ch=1 n=f#4 v=0
20980 Par ch=1 c=64 v=0
20992 Par ch=1 c=64 v=127
20992 Par ch=1 c=64 v=0
20992 Par ch=1 c=64 v=0
20992 Par ch=1 c=64 v=0
20992 Par ch=1 c=64 v=0
20992 Par ch=1 c=64 v=0
20992 Off ch=1 n=a#4 v=0
20992 Off ch=1 n=e5 v=0
20992 Off ch=1 n=f#5 v=0
20992 On ch=1 n=b4 v=33
20992 On ch=1 n=e5 v=33
20992 On ch=1 n=g5 v=50
20992 On ch=1 n=e4 v=31
21032 Off ch=1 n=c#4 v=0
21158 Par ch=1 c=64 v=0
21313 Par ch=1 c=64 v=127
21396 Par ch=1 c=64 v=127
21504 Off ch=1 n=e4 v=0
21504 On ch=1 n=b3 v=30
22016 Off ch=1 n=b3 v=0
22016 On ch=1 n=c#4 v=29
22528 Off ch=1 n=c#4 v=0
22528 On ch=1 n=d4 v=28
23010 Par ch=1 c=64 v=0
23040 Off ch=1 n=d4 v=0
23040 On ch=1 n=e4 v=27
23046 Par ch=1 c=64 v=0
23272 Par ch=1 c=64 v=127
23331 Par ch=1 c=64 v=127
23552 Off ch=1 n=e4 v=0
23552 On ch=1 n=d4 v=26
24064 Off ch=1 n=g5 v=0
24064 On ch=1 n=g5 v=48
24064 Off ch=1 n=d4 v=0
24064 On ch=1 n=e4 v=25
24576 Off ch=1 n=e4 v=0
24576 On ch=1 n=c#4 v=27
25076 Par ch=1 c=64 v=0
25088 Par ch=1 c=64 v=127
25088 Par ch=1 c=64 v=0
25088 Par ch=1 c=64 v=0
25088 Par ch=1 c=64 v=0
25088 Par ch=1 c=64 v=0
25088 Par ch=1 c=64 v=0
25088 Off ch=1 n=b4 v=0
25088 Off ch=1 n=e5 v=0
25088 Off ch=1 n=g5 v=0
25088 Off ch=1 n=c#4 v=0
25088 On ch=1 n=e5 v=31
25088 On ch=1 n=f#5 v=31
25088 On ch=1 n=d6 v=51
25088 On ch=1 n=a#4 v=33
25254 Par ch=1 c=64 v=0
25409 Par ch=1 c=64 v=127
25492 Par ch=1 c=64 v=127
25600 On ch=1 n=c#4 v=29
26112 Off ch=1 n=d6 v=0
26112 On ch=1 n=c#6 v=52
26112 Off ch=1 n=c#4 v=0
26112 On ch=1 n=f#3 v=26
26624 Off ch=1 n=a#4 v=0
26624 On ch=1 n=c#4 v=22
27106 Par ch=1 c=64 v=0
27136 Off ch=1 n=e5 v=0
27136 Off ch=1 n=f#5 v=0
27136 Off ch=1 n=c#6 v=0
27136 On ch=1 n=a#4 v=36
27136 On ch=1 n=e5 v=24
27136 On ch=1 n=f5 v=49
27136 Off ch=1 n=c#4 v=0
27136 On ch=1 n=d4 v=30
27142 Par ch=1 c=64 v=0
27368 Par ch=1 c=64 v=127
27427 Par ch=1 c=64 v=127
27648 Off ch=1 n=f#3 v=0
27648 Off ch=1 n=d4 v=0
27648 On ch=1 n=c#4 v=27
28160 Off ch=1 n=c#4 v=0
28160 On ch=1 n=g4 v=25
28672 Off ch=1 n=f5 v=0
28672 On ch=1 n=f#5 v=45
28672 Off ch=1 n=g4 v=0
28672 On ch=1 n=f#4 v=27
29172 Par ch=1 c=64 v=0
29184 Par ch=1 c=64 v=127
29184 Par ch=1 c=64 v=0
29184 Par ch=1 c=64 v=0
29184 Par ch=1 c=64 v=0
29184 Par ch=1 c=64 v=0
29184 Par ch=1 c=67 v=127
29184 Par ch=1 c=64 v=0
29184 Par ch=1 c=67 v=127
29184 Off ch=1 n=a#4 v=0
29184 Off ch=1 n=e5 v=0
29184 Off ch=1 n=f#5 v=0
29184 Off ch=1 n=f#4 v=0
29184 On ch=1 n=b4 v=28
29184 On ch=1 n=e5 v=28
29184 On ch=1 n=g5 v=41
29184 On ch=1 n=e4 v=33
29350 Par ch=1 c=64 v=0
29505 Par ch=1 c=64 v=127
29588 Par ch=1 c=64 v=127
29696 Off ch=1 n=e4 v=0
29696 On ch=1 n=f#4 v=29
30208 Off ch=1 n=f#4 v=0
30208 On ch=1 n=e4 v=28
30720 Off ch=1 n=e4 v=0
30720 On ch=1 n=d4 v=26
31202 Par ch=1 c=64 v=0
31232 Off ch=1 n=b4 v=0
31232 Off ch=1 n=e5 v=0
31232 Off ch=1 n=g5 v=0
31232 On ch=1 n=a4 v=15
31232 On ch=1 n=e5 v=15
31232 On ch=1 n=a5 v=45
31232 Off ch=1 n=d4 v=0
31232 On ch=1 n=c#4 v=28
31238 Par ch=1 c=64 v=0
31464 Par ch=1 c=64 v=127
31523 Par ch=1 c=64 v=127
31744 Off ch=1 n=c#4 v=0
31744 On ch=1 n=b3 v=27
32256 Off ch=1 n=b3 v=0
32256 On ch=1 n=a3 v=25
32768 Off ch=1 n=a3 v=0
32768 On ch=1 n=e4 v=24
33268 Par ch=1 c=64 v=0
33280 Par ch=1 c=64 v=127
33280 Par ch=1 c=64 v=0
33280 Par ch=1 c=64 v=0
33280 Off ch=1 n=a4 v=0
33280 Off ch=1 n=e5 v=0
33280 Off ch=1 n=e4 v=0
33280 On ch=1 n=c#5 v=26
33280 On ch=1 n=g5 v=26
33280 On ch=1 n=a4 v=21
33446 Par ch=1 c=64 v=0
33601 Par ch=1 c=64 v=127
33684 Par ch=1 c=64 v=127
33792 On ch=1 n=e4 v=27
33832 Off ch=1 n=a4 v=0
34304 On ch=1 n=b4 v=30
34344 Off ch=1 n=e4 v=0
34645 On ch=1 n=g#5 v=40
34695 Off ch=1 n=a5 v=0
34816 On ch=1 n=a4 v=27
34856 Off ch=1 n=b4 v=0
34987 On ch=1 n=a5 v=43
35037 Off ch=1 n=g#5 v=0
35298 Par ch=1 c=64 v=0
35328 Off ch=1 n=g5 v=0
35328 On ch=1 n=b5 v=47
35328 On ch=1 n=d5 v=23
35328 On ch=1 n=g5 v=23
35328 On ch=1 n=g4 v=25
35334 Par ch=1 c=64 v=0
35368 Off ch=1 n=a4 v=0
35378 Off ch=1 n=c#5 v=0
35378 Off ch=1 n=a5 v=0
35560 Par ch=1 c=64 v=127
35619 Par ch=1 c=64 v=127
35840 On ch=1 n=f#4 v=22
35880 Off ch=1 n=g4 v=0
36352 On ch=1 n=a4 v=22
36392 Off ch=1 n=f#4 v=0
36864 On ch=1 n=g4 v=17
36904 Off ch=1 n=a4 v=0
37120 On ch=1 n=c#6 v=44
37170 Off ch=1 n=b5 v=0
37364 Par ch=1 c=64 v=0
37376 Par ch=1 c=64 v=127
37376 Par ch=1 c=64 v=0
37376 Par ch=1 c=64 v=0
37376 Par ch=1 c=64 v=0
37376 Off ch=1 n=c#6 v=0
37376 On ch=1 n=c#5 v=20
37376 On ch=1 n=a5 v=20
37376 On ch=1 n=c#6 v=45
37376 On ch=1 n=f#4 v=26
37416 Off ch=1 n=g4 v=0
37426 Off ch=1 n=d5 v=0
37426 Off ch=1 n=g5 v=0
37542 Par ch=1 c=64 v=0
37697 Par ch=1 c=64 v=127
37780 Par ch=1 c=64 v=127
37888 On ch=1 n=a3 v=26
37928 Off ch=1 n=f#4 v=0
38400 On ch=1 n=b3 v=23
38440 Off ch=1 n=a3 v=0
38912 On ch=1 n=a3 v=22
38952 Off ch=1 n=b3 v=0
39394 Par ch=1 c=64 v=0
39424 On ch=1 n=d5 v=13
39424 On ch=1 n=f#5 v=13
39424 On ch=1 n=d6 v=36
39424 On ch=1 n=d3 v=20
39430 Par ch=1 c=64 v=0
39464 Off ch=1 n=a3 v=0
39474 Off ch=1 n=c#5 v=0
39474 Off ch=1 n=a5 v=0
39474 Off ch=1 n=c#6 v=0
39656 Par ch=1 c=64 v=127
39715 Par ch=1 c=64 v=127
39936 On ch=1 n=d4 v=20
40448 Off ch=1 n=d3 v=0
40448 On ch=1 n=g#4 v=22
40488 Off ch=1 n=d4 v=0
40960 On ch=1 n=a4 v=29
41000 Off ch=1 n=g#4 v=0
41460 Par ch=1 c=64 v=0
41472 Par ch=1 c=64 v=127
41472 Par ch=1 c=64 v=0
41472 Par ch=1 c=64 v=0
41472 Par ch=1 c=67 v=0
41472 Par ch=1 c=64 v=0
41472 Par ch=1 c=64 v=0
41472 Par ch=1 c=67 v=127
41472 Off ch=1 n=d5 v=0
41472 Off ch=1 n=f#5 v=0
41472 Off ch=1 n=d6 v=0
41472 On ch=1 n=d6 v=55
41472 On ch=1 n=f#5 v=36
41472 On ch=1 n=c6 v=36
41472 On ch=1 n=d5 v=33
41512 Off ch=1 n=a4 v=0
41638 Par ch=1 c=64 v=0
41793 Par ch=1 c=64 v=127
41876 Par ch=1 c=64 v=127
41984 Off ch=1 n=d5 v=0
41984 On ch=1 n=a4 v=32
42496 Off ch=1 n=a4 v=0
42496 On ch=1 n=e5 v=35
42541 Par ch=1 c=67 v=0
42837 Off ch=1 n=d6 v=0
42837 On ch=1 n=c#6 v=51
43008 Off ch=1 n=e5 v=0
43008 On ch=1 n=d5 v=32
43179 Off ch=1 n=c#6 v=0
43179 On ch=1 n=d6 v=54
43490 Par ch=1 c=64 v=0
43520 Off ch=1 n=f#5 v=0
43520 Off ch=1 n=c6 v=0
43520 Off ch=1 n=d6 v=0
43520 On ch=1 n=e6 v=53
43520 On ch=1 n=g5 v=39
43520 On ch=1 n=c6 v=39
43520 Off ch=1 n=d5 v=0
43520 On ch=1 n=c5 v=31
43526 Par ch=1 c=64 v=0
43752 Par ch=1 c=64 v=127
43811 Par ch=1 c=64 v=127
44032 Off ch=1 n=c5 v=0
44032 On ch=1 n=b4 v=30
44544 Off ch=1 n=b4 v=0
44544 On ch=1 n=d5 v=30
45056 Off ch=1 n=d5 v=0
45056 On ch=1 n=c5 v=29
45312 Off ch=1 n=e6 v=0
45312 On ch=1 n=f#6 v=47
45556 Par ch=1 c=64 v=0
45568 Par ch=1 c=64 v=127
45568 Par ch=1 c=64 v=0
45568 Par ch=1 c=64 v=0
45568 Par ch=1 c=64 v=0
45568 Par ch=1 c=64 v=0
45568 Par ch=1 c=64 v=0
45568 Off ch=1 n=g5 v=0
45568 Off ch=1 n=c6 v=0
45568 Off ch=1 n=f#6 v=0
45568 Off ch=1 n=c5 v=0
45568 On ch=1 n=f#5 v=32
45568 On ch=1 n=d6 v=32
45568 On ch=1 n=f#6 v=51
45568 On ch=1 n=b4 v=30
45734 Par ch=1 c=64 v=0
45889 Par ch=1 c=64 v=127
45972 Par ch=1 c=64 v=127
46080 Off ch=1 n=b4 v=0
46080 On ch=1 n=d4 v=27
46592 Off ch=1 n=d4 v=0
46592 On ch=1 n=e4 v=24
47104 Off ch=1 n=e4 v=0
47104 On ch=1 n=d4 v=21
47586 Par ch=1 c=64 v=0
47616 Off ch=1 n=f#5 v=0
47616 Off ch=1 n=d6 v=0
47616 Off ch=1 n=f#6 v=0
47616 On ch=1 n=g5 v=17
47616 On ch=1 n=b5 v=17
47616 On ch=1 n=g6 v=36
47616 Off ch=1 n=d4 v=0
47616 On ch=1 n=g3 v=18
47622 Par ch=1 c=64 v=0
47848 Par ch=1 c=64 v=127
47907 Par ch=1 c=64 v=127
48128 On ch=1 n=g4 v=19
48640 Off ch=1 n=g3 v=0
48640 Off ch=1 n=g4 v=0
48640 On ch=1 n=c#5 v=21
49152 Off ch=1 n=c#5 v=0
49152 On ch=1 n=d5 v=22
49652 Par ch=1 c=64 v=0
49664 Par ch=1 c=64 v=127
49664 Par ch=1 c=64 v=0
49664 Par ch=1 c=64 v=0
49664 Par ch=1 c=64 v=0
49664 Par ch=1 c=64 v=0
49664 Par ch=1 c=64 v=0
49664 Par ch=1 c=64 v=0
49664 Off ch=1 n=g5 v=0
49664 Off ch=1 n=b5 v=0
49664 Off ch=1 n=g6 v=0
49664 Off ch=1 n=d5 v=0
49664 On ch=1 n=a5 v=21
49664 On ch=1 n=b5 v=21
49664 On ch=1 n=f#6 v=44
49664 On ch=1 n=d#5 v=27
49830 Par ch=1 c=64 v=0
49985 Par ch=1 c=64 v=127
50068 Par ch=1 c=64 v=127
50176 Off ch=1 n=d#5 v=0
50176 On ch=1 n=f#4 v=21
50688 Off ch=1 n=f#4 v=0
50688 On ch=1 n=b3 v=17
51200 Off ch=1 n=b3 v=0
51200 On ch=1 n=f#4 v=21
51682 Par ch=1 c=64 v=0
51712 Off ch=1 n=a5 v=0
51712 Off ch=1 n=b5 v=0
51712 Off ch=1 n=f#6 v=0
51712 On ch=1 n=d#5 v=26
51712 On ch=1 n=a5 v=26
51712 On ch=1 n=b5 v=45
51712 Off ch=1 n=f#4 v=0
51712 On ch=1 n=g4 v=24
51718 Par ch=1 c=64 v=0
51944 Par ch=1 c=64 v=127
52003 Par ch=1 c=64 v=127
52224 Off ch=1 n=g4 v=0
52224 On ch=1 n=f#4 v=21
52736 Off ch=1 n=f#4 v=0
52736 On ch=1 n=b4 v=18
53248 Off ch=1 n=b4 v=0
53248 On ch=1 n=f#4 v=16
53748 Par ch=1 c=64 v=0
53760 Par ch=1 c=64 v=127
53760 Par ch=1 c=64 v=0
53760 Par ch=1 c=64 v=0
53760 Par ch=1 c=64 v=0
53760 Par ch=1 c=64 v=0
53760 Par ch=1 c=64 v=0
53760 Par ch=1 c=64 v=0
53760 Par ch=1 c=64 v=0
53760 Off ch=1 n=d#5 v=0
53760 Off ch=1 n=a5 v=0
53760 Off ch=1 n=b5 v=0
53760 Off ch=1 n=f#4 v=0
53760 On ch=1 n=c6 v=43
53760 On ch=1 n=e5 v=20
53760 On ch=1 n=a5 v=20
53760 On ch=1 n=a4 v=23
53926 Par ch=1 c=64 v=0
54081 Par ch=1 c=64 v=127
54164 Par ch=1 c=64 v=127
54272 Off ch=1 n=a4 v=0
54272 On ch=1 n=e4 v=20
54784 Off ch=1 n=e4 v=0
54784 On ch=1 n=f#4 v=22
55296 Off ch=1 n=f#4 v=0
55296 On ch=1 n=g4 v=23
55778 Par ch=1 c=64 v=0
55808 Off ch=1 n=g4 v=0
55808 On ch=1 n=a4 v=25
55814 Par ch=1 c=64 v=0
56040 Par ch=1 c=64 v=127
56099 Par ch=1 c=64 v=127
56320 Off ch=1 n=a4 v=0
56320 On ch=1 n=g4 v=18
56832 Off ch=1 n=c6 v=0
56832 On ch=1 n=b5 v=44
56832 Off ch=1 n=g4 v=0
56832 On ch=1 n=a4 v=17
57173 Off ch=1 n=b5 v=0
57173 On ch=1 n=c6 v=47
57344 Off ch=1 n=a4 v=0
57344 On ch=1 n=f#4 v=16
57515 Off ch=1 n=c6 v=0
57515 On ch=1 n=a6 v=50
57844 Par ch=1 c=64 v=0
57856 Par ch=1 c=64 v=127
57856 Par ch=1 c=64 v=0
57856 Par ch=1 c=64 v=0
57856 Par ch=1 c=64 v=0
57856 Par ch=1 c=64 v=0
57856 Par ch=1 c=64 v=0
57856 Par ch=1 c=64 v=127
57856 Par ch=1 c=64 v=0
57856 Par ch=1 c=64 v=0
57856 Par ch=1 c=64 v=0
57856 Par ch=1 c=64 v=0
57856 Par ch=1 c=64 v=0
57856 Par ch=1 c=64 v=0
57856 Par ch=1 c=64 v=0
57856 Off ch=1 n=e5 v=0
57856 Off ch=1 n=a5 v=0
57856 Off ch=1 n=a6 v=0
57856 Off ch=1 n=f#4 v=0
57856 On ch=1 n=g6 v=50
57856 On ch=1 n=a5 v=34
57856 On ch=1 n=b5 v=34
57856 On ch=1 n=d#5 v=24
58022 Par ch=1 c=64 v=0
58022 Par ch=1 c=64 v=0
58177 Par ch=1 c=64 v=127
58260 Par ch=1 c=64 v=127
58260 Par ch=1 c=64 v=127
58368 Off ch=1 n=d#5 v=0
58368 On ch=1 n=f#4 v=23
58880 Off ch=1 n=g6 v=0
58880 On ch=1 n=f#6 v=46
58880 Off ch=1 n=f#4 v=0
58880 On ch=1 n=b3 v=22
59392 Off ch=1 n=b3 v=0
59392 On ch=1 n=f#4 v=21
59874 Par ch=1 c=64 v=0
59874 Par ch=1 c=64 v=0
59904 Off ch=1 n=a5 v=0
59904 Off ch=1 n=b5 v=0
59904 Off ch=1 n=f#6 v=0
59904 On ch=1 n=a#5 v=38
59904 On ch=1 n=d#5 v=24
59904 On ch=1 n=a5 v=18
59904 Off ch=1 n=f#4 v=0
59904 On ch=1 n=b4 v=21
59910 Par ch=1 c=64 v=0
60136 Par ch=1 c=64 v=127
60136 Par ch=1 c=64 v=127
60195 Par ch=1 c=64 v=127
60416 Off ch=1 n=b4 v=0
60416 On ch=1 n=f#4 v=20
60928 Off ch=1 n=a#5 v=0
60928 On ch=1 n=b5 v=32
60928 Off ch=1 n=f#4 v=0
60928 On ch=1 n=b3 v=19
61440 Off ch=1 n=b3 v=0
61440 On ch=1 n=f#3 v=18
61940 Par ch=1 c=64 v=0
61940 Par ch=1 c=64 v=0
61952 Par ch=1 c=64 v=127
61952 Par ch=1 c=64 v=0
61952 Off ch=1 n=d#5 v=0
61952 Off ch=1 n=a5 v=0
61952 Off ch=1 n=b5 v=0
61952 Off ch=1 n=f#3 v=0
61952 On ch=1 n=b5 v=31
61952 On ch=1 n=e5 v=21
61952 On ch=1 n=g5 v=21
61952 On ch=1 n=e3 v=27
62215 Par ch=1 c=64 v=0
62273 Par ch=1 c=64 v=127
62273 Par ch=1 c=64 v=127
62362 Par ch=1 c=64 v=127
62464 On ch=1 n=a3 v=14
62976 Off ch=1 n=b5 v=0
62976 On ch=1 n=c6 v=40
62976 Off ch=1 n=a3 v=0
62976 On ch=1 n=g4 v=17
63093 Par ch=1 c=64 v=0
63239 Par ch=1 c=64 v=127
63488 Off ch=1 n=g4 v=0
63488 On ch=1 n=a4 v=20
64000 Off ch=1 n=a4 v=0
64000 On ch=1 n=a4 v=21
64006 Par ch=1 c=64 v=0
64006 Par ch=1 c=64 v=0
64291 Par ch=1 c=64 v=127
64291 Par ch=1 c=64 v=127
64512 Off ch=1 n=a4 v=0
64512 On ch=1 n=g4 v=19
65024 Off ch=1 n=e5 v=0
65024 Off ch=1 n=g5 v=0
65024 Off ch=1 n=c6 v=0
65024 On ch=1 n=c#5 v=26
65024 On ch=1 n=g5 v=26
65024 On ch=1 n=c#6 v=39
65024 Off ch=1 n=g4 v=0
65024 On ch=1 n=a3 v=17
65141 Par ch=1 c=64 v=0
65375 Par ch=1 c=64 v=127
65536 Off ch=1 n=e3 v=0
65536 Off ch=1 n=a3 v=0
65536 On ch=1 n=e3 v=15
66048 Par ch=1 c=64 v=127
66048 Par ch=1 c=64 v=0
66048 Par ch=1 c=64 v=0
66048 Par ch=1 c=64 v=0
66048 Par ch=1 c=64 v=0
66048 Par ch=1 c=64 v=0
66048 Par ch=1 c=64 v=127
66048 Par ch=1 c=64 v=0
66048 Par ch=1 c=64 v=0
66048 Par ch=1 c=64 v=0
66048 Par ch=1 c=64 v=0
66048 Par ch=1 c=64 v=0
66048 Par ch=1 c=64 v=0
66048 Par ch=1 c=64 v=127
66048 Par ch=1 c=64 v=0
66048 Par ch=1 c=64 v=0
66048 Par ch=1 c=64 v=0
66048 Par ch=1 c=64 v=0
66048 Par ch=1 c=64 v=0
66048 Par ch=1 c=64 v=0
66048 Par ch=1 c=64 v=0
66048 Off ch=1 n=c#5 v=0
66048 Off ch=1 n=g5 v=0
66048 Off ch=1 n=c#6 v=0
66048 Off ch=1 n=e3 v=0
66048 On ch=1 n=c5 v=28
66048 On ch=1 n=d6 v=43
66048 On ch=1 n=a5 v=28
66048 On ch=1 n=f3 v=22
66214 Par ch=1 c=64 v=0
66214 Par ch=1 c=64 v=0
66214 Par ch=1 c=64 v=0
66452 Par ch=1 c=64 v=127
66452 Par ch=1 c=64 v=127
66452 Par ch=1 c=64 v=127
66560 On ch=1 n=d4 v=23
67072 Off ch=1 n=a5 v=0
67072 On ch=1 n=g#5 v=34
67584 Off ch=1 n=f3 v=0
67584 Off ch=1 n=d4 v=0
67584 On ch=1 n=c5 v=26
68066 Par ch=1 c=64 v=0
68066 Par ch=1 c=64 v=0
68066 Par ch=1 c=64 v=0
68096 Off ch=1 n=g#5 v=0
68096 On ch=1 n=b5 v=40
68096 On ch=1 n=f#3 v=27
68102 Par ch=1 c=64 v=0
68102 Par ch=1 c=64 v=0
68102 Par ch=1 c=64 v=0
68328 Par ch=1 c=64 v=127
68328 Par ch=1 c=64 v=127
68328 Par ch=1 c=64 v=127
68387 Par ch=1 c=64 v=127
68387 Par ch=1 c=64 v=127
68387 Par ch=1 c=64 v=127
68608 On ch=1 n=d4 v=28
69120 Off ch=1 n=b5 v=0
69120 On ch=1 n=a5 v=40
69632 Off ch=1 n=f#3 v=0
69632 Off ch=1 n=d4 v=0
69632 Off ch=1 n=c5 v=0
69632 On ch=1 n=c5 v=31
70132 Par ch=1 c=64 v=0
70132 Par ch=1 c=64 v=0
70132 Par ch=1 c=64 v=0
70144 Par ch=1 c=64 v=127
70144 Par ch=1 c=64 v=0
70144 Par ch=1 c=64 v=0
70144 Par ch=1 c=64 v=0
70144 Par ch=1 c=64 v=0
70144 Par ch=1 c=64 v=0
70144 Par ch=1 c=64 v=127
70144 Par ch=1 c=64 v=0
70144 Par ch=1 c=64 v=0
70144 Par ch=1 c=64 v=0
70144 Par ch=1 c=64 v=0
70144 Par ch=1 c=64 v=0
70144 Par ch=1 c=64 v=0
70144 Par ch=1 c=64 v=127
70144 Par ch=1 c=64 v=0
70144 Par ch=1 c=64 v=0
70144 Par ch=1 c=64 v=0
70144 Par ch=1 c=64 v=0
70144 Par ch=1 c=64 v=0
70144 Par ch=1 c=64 v=0
70144 Par ch=1 c=64 v=127
70144 Par ch=1 c=64 v=0
70144 Par ch=1 c=64 v=0
70144 Par ch=1 c=64 v=0
70144 Par ch=1 c=64 v=0
70144 Par ch=1 c=64 v=0
70144 Par ch=1 c=64 v=127
70144 Par ch=1 c=64 v=0
70144 Par ch=1 c=64 v=0
70144 Par ch=1 c=64 v=0
70144 Par ch=1 c=64 v=0
70144 Par ch=1 c=64 v=0
70144 Par ch=1 c=64 v=0
70144 Par ch=1 c=64 v=0
70144 Par ch=1 c=64 v=0
70144 Off ch=1 n=c5 v=0
70144 Off ch=1 n=a5 v=0
70144 Off ch=1 n=c5 v=0
70144 On ch=1 n=g5 v=30
70144 On ch=1 n=g3 v=26
70144 On ch=1 n=c5 v=29
70310 Par ch=1 c=64 v=0
70310 Par ch=1 c=64 v=0
70310 Par ch=1 c=64 v=0
70310 Par ch=1 c=64 v=0
70310 Par ch=1 c=64 v=0
70465 Par ch=1 c=64 v=127
70465 Par ch=1 c=64 v=127
70465 Par ch=1 c=64 v=127
70548 Par ch=1 c=64 v=127
70548 Par ch=1 c=64 v=127
70548 Par ch=1 c=64 v=127
70548 Par ch=1 c=64 v=127
70548 Par ch=1 c=64 v=127
70656 On ch=1 n=d4 v=27
71168 Off ch=1 n=d6 v=0
71168 On ch=1 n=c#6 v=51
71680 Off ch=1 n=g3 v=0
71680 Off ch=1 n=d4 v=0
71680 Off ch=1 n=c5 v=0
71680 On ch=1 n=c5 v=29
72162 Par ch=1 c=64 v=0
72162 Par ch=1 c=64 v=0
72162 Par ch=1 c=64 v=0
72162 Par ch=1 c=64 v=0
72162 Par ch=1 c=64 v=0
72192 Off ch=1 n=g5 v=0
72192 Off ch=1 n=c#6 v=0
72192 On ch=1 n=f#5 v=23
72192 On ch=1 n=e6 v=53
72192 Off ch=1 n=c5 v=0
72192 On ch=1 n=g#3 v=39
72192 On ch=1 n=c5 v=37
72198 Par ch=1 c=64 v=0
72198 Par ch=1 c=64 v=0
72198 Par ch=1 c=64 v=0
72424 Par ch=1 c=64 v=127
72424 Par ch=1 c=64 v=127
72424 Par ch=1 c=64 v=127
72424 Par ch=1 c=64 v=127
72424 Par ch=1 c=64 v=127
72483 Par ch=1 c=64 v=127
72483 Par ch=1 c=64 v=127
72483 Par ch=1 c=64 v=127
72704 On ch=1 n=d4 v=32
73216 Off ch=1 n=e6 v=0
73216 On ch=1 n=d6 v=47
73728 Off ch=1 n=f#5 v=0
73728 Off ch=1 n=g#3 v=0
73728 Off ch=1 n=d4 v=0
73728 Off ch=1 n=c5 v=0
73728 On ch=1 n=c5 v=35
73856 On ch=1 n=c5 v=28
73856 On ch=1 n=f#5 v=28
73984 On ch=1 n=d6 v=29
74112 Off ch=1 n=d6 v=0
74112 On ch=1 n=d6 v=25
74228 Par ch=1 c=64 v=0
74228 Par ch=1 c=64 v=0
74228 Par ch=1 c=64 v=0
74228 Par ch=1 c=64 v=0
74228 Par ch=1 c=64 v=0
74240 Par ch=1 c=64 v=127
74240 Par ch=1 c=64 v=0
74240 Par ch=1 c=64 v=0
74240 Par ch=1 c=64 v=0
74240 Par ch=1 c=64 v=0
74240 Par ch=1 c=64 v=0
74240 Par ch=1 c=64 v=127
74240 Par ch=1 c=64 v=0
74240 Par ch=1 c=64 v=0
74240 Par ch=1 c=64 v=0
74240 Par ch=1 c=64 v=0
74240 Par ch=1 c=64 v=0
74240 Par ch=1 c=64 v=0
74240 Par ch=1 c=64 v=127
74240 Par ch=1 c=64 v=0
74240 Par ch=1 c=64 v=0
74240 Par ch=1 c=64 v=0
74240 Par ch=1 c=64 v=0
74240 Par ch=1 c=64 v=0
74240 Par ch=1 c=64 v=0
74240 Par ch=1 c=64 v=0
74240 Par ch=1 c=64 v=0
74240 Par ch=1 c=64 v=0
74240 Off ch=1 n=d6 v=0
74240 On ch=1 n=b6 v=51
74240 On ch=1 n=a3 v=25
74406 Par ch=1 c=64 v=0
74406 Par ch=1 c=64 v=0
74406 Par ch=1 c=64 v=0
74485 Par ch=1 c=64 v=127
74561 Par ch=1 c=64 v=127
74561 Par ch=1 c=64 v=127
74561 Par ch=1 c=64 v=127
74561 Par ch=1 c=64 v=127
74561 Par ch=1 c=64 v=127
74752 Off ch=1 n=c5 v=0
74752 On ch=1 n=d4 v=17
75264 Off ch=1 n=b6 v=0
75264 On ch=1 n=a6 v=53
75776 Off ch=1 n=a3 v=0
75776 Off ch=1 n=d4 v=0
75776 On ch=1 n=c5 v=29
76288 Off ch=1 n=c5 v=0
76288 Off ch=1 n=f#5 v=0
76288 Off ch=1 n=d6 v=0
76288 Off ch=1 n=a6 v=0
76288 On ch=1 n=g5 v=23
76288 On ch=1 n=c#6 v=23
76288 On ch=1 n=g6 v=54
76288 Off ch=1 n=c5 v=0
76288 On ch=1 n=a#3 v=37
76294 Par ch=1 c=64 v=0
76294 Par ch=1 c=64 v=0
76294 Par ch=1 c=64 v=0
76294 Par ch=1 c=64 v=0
76294 Par ch=1 c=64 v=0
76369 Par ch=1 c=64 v=0
76490 Par ch=1 c=64 v=127
76579 Par ch=1 c=64 v=127
76579 Par ch=1 c=64 v=127
76579 Par ch=1 c=64 v=127
76579 Par ch=1 c=64 v=127
76579 Par ch=1 c=64 v=127
76800 On ch=1 n=g4 v=29
77312 Off ch=1 n=g6 v=0
77312 On ch=1 n=f#6 v=51
77824 Off ch=1 n=a#3 v=0
77824 Off ch=1 n=g4 v=0
77824 On ch=1 n=c#5 v=29
78336 Par ch=1 c=64 v=127
78336 Par ch=1 c=64 v=0
78336 Par ch=1 c=64 v=0
78336 Par ch=1 c=64 v=0
78336 Par ch=1 c=64 v=0
78336 Par ch=1 c=64 v=0
78336 Par ch=1 c=64 v=127
78336 Par ch=1 c=64 v=0
78336 Par ch=1 c=64 v=0
78336 Par ch=1 c=64 v=0
78336 Par ch=1 c=64 v=0
78336 Par ch=1 c=64 v=0
78336 Par ch=1 c=64 v=0
78336 Par ch=1 c=64 v=127
78336 Par ch=1 c=64 v=0
78336 Par ch=1 c=64 v=0
78336 Par ch=1 c=64 v=0
78336 Par ch=1 c=64 v=0
78336 Par ch=1 c=64 v=0
78336 Par ch=1 c=64 v=0
78336 Par ch=1 c=64 v=0
78336 Off ch=1 n=g5 v=0
78336 Off ch=1 n=c#6 v=0
78336 Off ch=1 n=f#6 v=0
78336 Off ch=1 n=c#5 v=0
78336 On ch=1 n=g6 v=45
78336 On ch=1 n=g5 v=22
78336 On ch=1 n=d6 v=22
78336 On ch=1 n=b3 v=26
78502 Par ch=1 c=64 v=0
78502 Par ch=1 c=64 v=0
78502 Par ch=1 c=64 v=0
78581 Par ch=1 c=64 v=127
78848 On ch=1 n=g4 v=29
79360 Off ch=1 n=g6 v=0
79360 On ch=1 n=d6 v=50
79872 Off ch=1 n=b3 v=0
79872 Off ch=1 n=g4 v=0
79872 On ch=1 n=d5 v=29
80384 Off ch=1 n=g5 v=0
80384 Off ch=1 n=d6 v=0
80384 Off ch=1 n=d6 v=0
80384 On ch=1 n=e6 v=51
80384 On ch=1 n=d5 v=15
80384 On ch=1 n=g#5 v=15
80384 Off ch=1 n=d5 v=0
80384 On ch=1 n=a#3 v=32
80384 On ch=1 n=d5 v=32
80390 Par ch=1 c=64 v=0
80390 Par ch=1 c=64 v=0
80390 Par ch=1 c=64 v=0
80465 Par ch=1 c=64 v=0
80586 Par ch=1 c=64 v=127
80675 Par ch=1 c=64 v=127
80675 Par ch=1 c=64 v=127
80675 Par ch=1 c=64 v=127
80896 On ch=1 n=g#4 v=29
81408 Off ch=1 n=e6 v=0
81408 On ch=1 n=f6 v=50
81920 Off ch=1 n=a#3 v=0
81920 Off ch=1 n=g#4 v=0
81920 Off ch=1 n=d5 v=0
81920 On ch=1 n=d5 v=24
82176 Off ch=1 n=d5 v=0
82176 On ch=1 n=d5 v=30
82304 On ch=1 n=a5 v=37
82432 Par ch=1 c=64 v=127
82432 Par ch=1 c=64 v=0
82432 Par ch=1 c=64 v=0
82432 Par ch=1 c=64 v=0
82432 Par ch=1 c=64 v=0
82432 Par ch=1 c=64 v=0
82432 Par ch=1 c=64 v=127
82432 Par ch=1 c=64 v=0
82432 Par ch=1 c=64 v=0
82432 Par ch=1 c=64 v=0
82432 Par ch=1 c=64 v=0
82432 Par ch=1 c=64 v=0
82432 Par ch=1 c=64 v=0
82432 Par ch=1 c=64 v=127
82432 Par ch=1 c=64 v=0
82432 Par ch=1 c=64 v=0
82432 Par ch=1 c=64 v=0
82432 Par ch=1 c=64 v=0
82432 Par ch=1 c=64 v=0
82432 Par ch=1 c=64 v=0
82432 Par ch=1 c=64 v=0
82432 Off ch=1 n=g#5 v=0
82432 Off ch=1 n=f6 v=0
82432 Off ch=1 n=d5 v=0
82432 On ch=1 n=f#6 v=49
82432 On ch=1 n=a3 v=33
82598 Par ch=1 c=64 v=0
82598 Par ch=1 c=64 v=0
82598 Par ch=1 c=64 v=0
82836 Par ch=1 c=64 v=127
82836 Par ch=1 c=64 v=127
82836 Par ch=1 c=64 v=127
82944 On ch=1 n=f#4 v=21
83456 Off ch=1 n=a3 v=0
83456 Off ch=1 n=f#4 v=0
83456 On ch=1 n=c#5 v=33
83968 Off ch=1 n=c#5 v=0
83968 On ch=1 n=b4 v=32
84450 Par ch=1 c=64 v=0
84450 Par ch=1 c=64 v=0
84450 Par ch=1 c=64 v=0
84480 Off ch=1 n=f#6 v=0
84480 On ch=1 n=f#5 v=28
84480 On ch=1 n=d6 v=45
84480 Off ch=1 n=d5 v=0
84480 Off ch=1 n=a5 v=0
84480 On ch=1 n=d5 v=19
84480 Off ch=1 n=b4 v=0
84480 On ch=1 n=a4 v=26
84486 Par ch=1 c=64 v=0
84486 Par ch=1 c=64 v=0
84486 Par ch=1 c=64 v=0
84712 Par ch=1 c=64 v=127
84712 Par ch=1 c=64 v=127
84712 Par ch=1 c=64 v=127
84771 Par ch=1 c=64 v=127
84771 Par ch=1 c=64 v=127
84771 Par ch=1 c=64 v=127
84992 Off ch=1 n=a4 v=0
84992 On ch=1 n=g4 v=30
85504 Off ch=1 n=g4 v=0
85504 On ch=1 n=b4 v=29
86016 Off ch=1 n=b4 v=0
86016 On ch=1 n=a4 v=28
86516 Par ch=1 c=64 v=0
86516 Par ch=1 c=64 v=0
86516 Par ch=1 c=64 v=0
86528 Par ch=1 c=64 v=127
86528 Par ch=1 c=64 v=0
86528 Par ch=1 c=64 v=0
86528 Par ch=1 c=64 v=0
86528 Par ch=1 c=64 v=0
86528 Par ch=1 c=64 v=0
86528 Par ch=1 c=64 v=127
86528 Par ch=1 c=64 v=0
86528 Par ch=1 c=64 v=0
86528 Par ch=1 c=64 v=0
86528 Par ch=1 c=64 v=0
86528 Par ch=1 c=64 v=0
86528 Par ch=1 c=64 v=0
86528 Par ch=1 c=64 v=127
86528 Par ch=1 c=64 v=0
86528 Par ch=1 c=64 v=0
86528 Par ch=1 c=64 v=0
86528 Par ch=1 c=64 v=0
86528 Par ch=1 c=64 v=0
86528 Par ch=1 c=64 v=0
86528 Par ch=1 c=64 v=0
86528 Off ch=1 n=f#5 v=0
86528 Off ch=1 n=d6 v=0
86528 Off ch=1 n=d5 v=0
86528 Off ch=1 n=a4 v=0
86528 On ch=1 n=a5 v=43
86528 On ch=1 n=g4 v=26
86528 On ch=1 n=d5 v=26
86694 Par ch=1 c=64 v=0
86694 Par ch=1 c=64 v=0
86694 Par ch=1 c=64 v=0
86849 Par ch=1 c=64 v=127
86849 Par ch=1 c=64 v=127
86849 Par ch=1 c=64 v=127
86932 Par ch=1 c=64 v=127
86932 Par ch=1 c=64 v=127
86932 Par ch=1 c=64 v=127
87040 Off ch=1 n=g4 v=0
87040 On ch=1 n=f#4 v=24
87552 Off ch=1 n=f#4 v=0
87552 On ch=1 n=a4 v=23
88064 Off ch=1 n=a4 v=0
88064 On ch=1 n=g4 v=21
88546 Par ch=1 c=64 v=0
88546 Par ch=1 c=64 v=0
88546 Par ch=1 c=64 v=0
88576 On ch=1 n=g4 v=17
88576 On ch=1 n=c#5 v=26
88576 Off ch=1 n=d5 v=0
88576 Off ch=1 n=g4 v=0
88576 On ch=1 n=f#4 v=23
88582 Par ch=1 c=64 v=0
88582 Par ch=1 c=64 v=0
88582 Par ch=1 c=64 v=0
88808 Par ch=1 c=64 v=127
88808 Par ch=1 c=64 v=127
88808 Par ch=1 c=64 v=127
88867 Par ch=1 c=64 v=127
88867 Par ch=1 c=64 v=127
88867 Par ch=1 c=64 v=127
89088 Off ch=1 n=f#4 v=0
89088 On ch=1 n=e4 v=18
89600 Off ch=1 n=e4 v=0
89600 On ch=1 n=b3 v=17
90112 Off ch=1 n=b3 v=0
90112 On ch=1 n=a3 v=15
90612 Par ch=1 c=64 v=0
90612 Par ch=1 c=64 v=0
90612 Par ch=1 c=64 v=0
90624 Par ch=1 c=64 v=127
90624 Par ch=1 c=64 v=0
90624 Par ch=1 c=64 v=0
90624 Off ch=1 n=a5 v=0
90624 Off ch=1 n=g4 v=0
90624 Off ch=1 n=c#5 v=0
90624 On ch=1 n=a5 v=34
90624 On ch=1 n=c#5 v=11
90624 On ch=1 n=g5 v=11
90624 On ch=1 n=d3 v=12
90790 Par ch=1 c=64 v=0
90945 Par ch=1 c=64 v=127
90945 Par ch=1 c=64 v=127
90945 Par ch=1 c=64 v=127
91028 Par ch=1 c=64 v=127
91136 Off ch=1 n=d3 v=0
91136 Off ch=1 n=a3 v=0
91136 On ch=1 n=e4 v=16
91648 Off ch=1 n=e4 v=0
91648 On ch=1 n=b4 v=20
91989 Off ch=1 n=a5 v=0
91989 On ch=1 n=g#5 v=33
92160 Off ch=1 n=b4 v=0
92160 On ch=1 n=a4 v=20
92331 Off ch=1 n=g#5 v=0
92331 On ch=1 n=a5 v=33
92642 Par ch=1 c=64 v=0
92672 Off ch=1 n=c#5 v=0
92672 Off ch=1 n=g5 v=0
92672 Off ch=1 n=a5 v=0
92672 On ch=1 n=b5 v=32
92672 On ch=1 n=d5 v=14
92672 On ch=1 n=g5 v=14
92672 Off ch=1 n=a4 v=0
92672 On ch=1 n=g4 v=18
92678 Par ch=1 c=64 v=0
92678 Par ch=1 c=64 v=0
92678 Par ch=1 c=64 v=0
92904 Par ch=1 c=64 v=127
92963 Par ch=1 c=64 v=127
92963 Par ch=1 c=64 v=127
92963 Par ch=1 c=64 v=127
93184 Off ch=1 n=g4 v=0
93184 On ch=1 n=f#4 v=16
93696 Off ch=1 n=f#4 v=0
93696 On ch=1 n=a4 v=14
94208 Off ch=1 n=a4 v=0
94208 On ch=1 n=g4 v=12
94464 Off ch=1 n=b5 v=0
94464 On ch=1 n=c#6 v=31
94708 Par ch=1 c=64 v=0
94720 Par ch=1 c=64 v=127
94720 Par ch=1 c=64 v=0
94720 Par ch=1 c=64 v=0
94720 Par ch=1 c=64 v=0
94720 Off ch=1 n=d5 v=0
94720 Off ch=1 n=g5 v=0
94720 Off ch=1 n=c#6 v=0
94720 Off ch=1 n=g4 v=0
94720 On ch=1 n=c#5 v=11
94720 On ch=1 n=a5 v=11
94720 On ch=1 n=c#6 v=34
94720 On ch=1 n=f#4 v=12
94886 Par ch=1 c=64 v=0
95041 Par ch=1 c=64 v=127
95124 Par ch=1 c=64 v=127
95232 Off ch=1 n=f#4 v=0
95232 On ch=1 n=a3 v=10
95744 Off ch=1 n=a3 v=0
95744 On ch=1 n=b3 v=9
96256 Off ch=1 n=b3 v=0
96256 On ch=1 n=a3 v=7
96738 Par ch=1 c=64 v=0
96768 Off ch=1 n=c#5 v=0
96768 Off ch=1 n=a5 v=0
96768 Off ch=1 n=c#6 v=0
96768 On ch=1 n=d6 v=23
96768 On ch=1 n=d5 v=10
96768 On ch=1 n=f#5 v=10
96768 Off ch=1 n=a3 v=0
96768 On ch=1 n=d3 v=9
96774 Par ch=1 c=64 v=0
97000 Par ch=1 c=64 v=127
97059 Par ch=1 c=64 v=127
97280 Off ch=1 n=d3 v=0
97280 On ch=1 n=a3 v=14
97792 Off ch=1 n=a3 v=0
97792 On ch=1 n=f#4 v=17
98133 Off ch=1 n=f#4 v=0
98133 On ch=1 n=c#5 v=23
98475 Off ch=1 n=c#5 v=0
98475 On ch=1 n=b4 v=21
98560 Off ch=1 n=d5 v=0
98560 Off ch=1 n=f#5 v=0
98560 On ch=1 n=g5 v=21
98688 On ch=1 n=c#6 v=21
98804 Par ch=1 c=64 v=0
98816 Par ch=1 c=64 v=0
98816 Off ch=1 n=d6 v=0
98816 Off ch=1 n=b4 v=0
98816 On ch=1 n=a6 v=40
98816 On ch=1 n=a4 v=18
99125 Par ch=1 c=64 v=127
99137 Par ch=1 c=64 v=127
99328 Off ch=1 n=a4 v=0
99328 On ch=1 n=e4 v=21
99840 Off ch=1 n=e4 v=0
99840 On ch=1 n=b4 v=22
100181 Off ch=1 n=a6 v=0
100181 On ch=1 n=g#6 v=40
100352 Off ch=1 n=b4 v=0
100352 On ch=1 n=a4 v=18
100523 Off ch=1 n=g#6 v=0
100523 On ch=1 n=a6 v=40
100608 Off ch=1 n=g5 v=0
100608 Off ch=1 n=c#6 v=0
100659 On ch=1 n=d5 v=22
100710 On ch=1 n=g5 v=22
100762 On ch=1 n=b5 v=22
100813 On ch=1 n=d6 v=22
100864 Par ch=1 c=64 v=0
100864 Off ch=1 n=a6 v=0
100864 On ch=1 n=b6 v=50
100864 Off ch=1 n=a4 v=0
100864 On ch=1 n=g4 v=19
100870 Par ch=1 c=64 v=0
101155 Par ch=1 c=64 v=127
101229 Par ch=1 c=64 v=127
101376 Off ch=1 n=g4 v=0
101376 On ch=1 n=f#4 v=17
101888 Off ch=1 n=f#4 v=0
101888 On ch=1 n=a4 v=17
102400 Off ch=1 n=a4 v=0
102400 On ch=1 n=g4 v=13
102656 Off ch=1 n=b6 v=0
102656 Off ch=1 n=d5 v=0
102656 Off ch=1 n=g5 v=0
102656 Off ch=1 n=b5 v=0
102656 Off ch=1 n=d6 v=0
102656 On ch=1 n=c#7 v=43
102707 On ch=1 n=c#5 v=16
102758 On ch=1 n=a5 v=16
102810 On ch=1 n=c#6 v=16
102861 On ch=1 n=f#6 v=16
102912 Par ch=1 c=64 v=127
102912 Par ch=1 c=64 v=0
102912 Par ch=1 c=64 v=0
102912 Off ch=1 n=c#7 v=0
102912 Off ch=1 n=g4 v=0
102912 On ch=1 n=c#7 v=43
102912 On ch=1 n=f#4 v=13
103078 Par ch=1 c=64 v=0
103316 Par ch=1 c=64 v=127
103424 Off ch=1 n=f#4 v=0
103424 On ch=1 n=a3 v=13
103936 Off ch=1 n=a3 v=0
103936 On ch=1 n=b3 v=13
104448 Off ch=1 n=b3 v=0
104448 On ch=1 n=a3 v=13
104704 Off ch=1 n=c#5 v=0
104704 Off ch=1 n=a5 v=0
104704 Off ch=1 n=c#6 v=0
104704 Off ch=1 n=f#6 v=0
104704 On ch=1 n=d5 v=12
104768 On ch=1 n=a5 v=12
104832 On ch=1 n=d6 v=12
104896 On ch=1 n=f#6 v=12
104930 Par ch=1 c=64 v=0
104960 Off ch=1 n=c#7 v=0
104960 On ch=1 n=d7 v=39
104960 Off ch=1 n=a3 v=0
104960 On ch=1 n=d3 v=12
105192 Par ch=1 c=64 v=127
105370 Off ch=1 n=d3 v=0
105370 On ch=1 n=a3 v=15
105779 Off ch=1 n=a3 v=0
105779 On ch=1 n=f#4 v=17
106189 Off ch=1 n=f#4 v=0
106189 On ch=1 n=d5 v=20
106598 Off ch=1 n=d5 v=0
106598 On ch=1 n=a4 v=22
106996 Par ch=1 c=64 v=0
107008 Par ch=1 c=64 v=127
107008 Par ch=1 c=64 v=127
107008 Off ch=1 n=a4 v=0
107008 On ch=1 n=a5 v=22
107329 Par ch=1 c=64 v=127
109056 Off ch=1 n=d5 v=0
109056 Off ch=1 n=a5 v=0
109056 Off ch=1 n=d6 v=0
109056 Off ch=1 n=f#6 v=0
109056 Off ch=1 n=d7 v=0
109056 On ch=1 n=f#4 v=7
109056 On ch=1 n=d5 v=7
109056 On ch=1 n=f#5 v=24
109056 Off ch=1 n=a5 v=0
109056 On ch=1 n=d3 v=8
109056 On ch=1 n=a3 v=8
109056 On ch=1 n=d4 v=8
109062 Par ch=1 c=64 v=0
109347 Par ch=1 c=64 v=127
111104 Par ch=1 c=64 v=127
111104 Par ch=1 c=64 v=127
111104 Off ch=1 n=f#4 v=0
111104 Off ch=1 n=d5 v=0
111104 Off ch=1 n=f#5 v=0
111104 Off ch=1 n=d3 v=0
111104 Off ch=1 n=a3 v=0
111104 Off ch=1 n=d4 v=0
111104 On ch=1 n=f#4 v=3
111104 On ch=1 n=d5 v=3
111104 On ch=1 n=f#5 v=19
111104 On ch=1 n=d3 v=3
111104 On ch=1 n=a3 v=3
111104 On ch=1 n=d4 v=3
115200 Par ch=1 c=64 v=127
115200 Par ch=1 c=64 v=127
119296 Off ch=1 n=f#4 v=0
119296 Off ch=1 n=d5 v=0
119296 Off ch=1 n=f#5 v=0
119296 Off ch=1 n=d3 v=0
119296 Off ch=1 n=a3 v=0
119296 Off ch=1 n=d4 v=0
123393 Meta TrkEnd
TrkEnd
