MFile 1 2 1024
MTrk
0 TimeSig 1/4 24 8
0 KeySig 0 minor
0 Tempo 428571
1024 TimeSig 5/8 12 8
1024 Tempo 375000
1536 Tempo 300000
2048 Tempo 250000
3072 Tempo 333333
3584 Tempo 300000
4608 Tempo 333333
5120 Tempo 300000
6144 Tempo 300000
6656 Tempo 272727
7168 Tempo 250000
8704 Tempo 300000
9728 Tempo 250000
10752 Tempo 375000
11264 Tempo 300000
12288 Tempo 250000
13312 Tempo 333333
13824 Tempo 300000
14848 Tempo 333333
15360 Tempo 272727
16384 Tempo 300000
17408 Tempo 250000
18944 Tempo 300000
19456 Tempo 250000
20992 Tempo 375000
21504 Tempo 375000
22016 Tempo 300000
22528 Tempo 250000
23552 Tempo 333333
24064 Tempo 300000
24576 Tempo 272727
25088 Tempo 333333
25600 Tempo 272727
26112 Tempo 250000
26624 Tempo 300000
27136 Tempo 250000
29184 Tempo 300000
29696 Tempo 272727
30208 Tempo 300000
30720 Tempo 250000
31744 Tempo 300000
32256 Tempo 250000
34816 Tempo 333333
35328 Tempo 428571
35840 Tempo 333333
36352 Tempo 300000
37376 Tempo 272727
40448 Tempo 333333
41472 Tempo 375000
41984 Tempo 375000
42496 Tempo 300000
43008 Tempo 250000
44032 Tempo 333333
44544 Tempo 300000
45568 Tempo 333333
46080 Tempo 300000
47104 Tempo 300000
47616 Tempo 272727
48640 Tempo 333333
49152 Tempo 375000
50176 Tempo 300000
50688 Tempo 250000
51712 Tempo 375000
52224 Tempo 375000
52736 Tempo 272727
53248 Tempo 250000
54272 Tempo 375000
54784 Tempo 300000
55808 Tempo 333333
56320 Tempo 300000
57344 Tempo 375000
57856 Tempo 300000
58368 Tempo 250000
59904 Tempo 333333
60416 Tempo 300000
60928 Tempo 250000
61952 Tempo 375000
62976 Tempo 300000
63488 Tempo 250000
65024 Tempo 300000
66048 Tempo 333333
66560 Tempo 272727
67584 Tempo 300000
68608 Tempo 250000
70144 Tempo 300000
70656 Tempo 272727
71168 Tempo 250000
72704 Tempo 300000
73216 Tempo 250000
75264 Tempo 272727
76288 Tempo 230769
77824 Tempo 300000
78336 Tempo 250000
78848 Tempo 230769
82944 Tempo 333333
83456 Tempo 272727
83968 Tempo 230769
85504 Tempo 272727
86016 Tempo 230769
88064 Tempo 272727
88576 Tempo 250000
90624 Tempo 300000
91136 Tempo 250000
92160 Tempo 300000
92672 Tempo 375000
93184 Tempo 333333
93696 Tempo 300000
94208 Tempo 272727
95744 Tempo 333333
96256 Tempo 272727
96768 Tempo 300000
98304 Tempo 300000
99328 Tempo 250000
100864 Tempo 300000
101376 Tempo 250000
103424 Tempo 300000
103936 Tempo 250000
105984 Tempo 333333
106496 Tempo 272727
107008 Tempo 300000
108544 Tempo 300000
109568 Tempo 250000
111104 Tempo 300000
111616 Tempo 250000
113664 Tempo 300000
114176 Tempo 250000
116224 Tempo 230769
118784 Tempo 214285
121344 Tempo 200000
123904 Tempo 272727
124928 Tempo 333333
126464 Tempo 666666
129536 Tempo 250000
135056 Meta TrkEnd
TrkEnd
MTrk
0 Meta TrkName "Instrument  1"
0 PrCh ch=1 p=1
0 Par ch=1 c=64 v=0
0 Par ch=1 c=64 v=0
1024 On ch=1 n=d6 v=50
1024 On ch=1 n=c3 v=35
1382 Par ch=1 c=64 v=127
1536 On ch=1 n=a5 v=44
1536 On ch=1 n=g3 v=33
2048 On ch=1 n=c6 v=46
2048 On ch=1 n=f4 v=31
2078 Off ch=1 n=a5 v=0
2078 Off ch=1 n=d6 v=0
2560 On ch=1 n=g5 v=41
2560 On ch=1 n=g4 v=30
3072 On ch=1 n=d5 v=43
3072 On ch=1 n=f5 v=28
3102 Off ch=1 n=g5 v=0
3102 Off ch=1 n=c6 v=0
3584 Par ch=1 c=64 v=0
3584 Par ch=1 c=64 v=127
3584 On ch=1 n=d6 v=48
3614 Off ch=1 n=d5 v=0
3726 Par ch=1 c=64 v=0
3883 Par ch=1 c=64 v=127
4096 On ch=1 n=e6 v=51
4126 Off ch=1 n=d6 v=0
4295 Par ch=1 c=64 v=127
4608 On ch=1 n=a6 v=54
4608 Off ch=1 n=c3 v=0
4608 Off ch=1 n=g3 v=0
4608 Off ch=1 n=f4 v=0
4608 Off ch=1 n=g4 v=0
4608 Off ch=1 n=f5 v=0
4638 Off ch=1 n=e6 v=0
5120 On ch=1 n=g6 v=53
5150 Off ch=1 n=a6 v=0
5632 On ch=1 n=e6 v=48
5662 Off ch=1 n=g6 v=0
6144 Par ch=1 c=64 v=0
6144 Par ch=1 c=64 v=127
6144 Par ch=1 c=64 v=0
6144 On ch=1 n=d6 v=50
6144 On ch=1 n=c3 v=35
6174 Off ch=1 n=e6 v=0
6286 Par ch=1 c=64 v=0
6443 Par ch=1 c=64 v=127
6510 Par ch=1 c=64 v=0
6656 On ch=1 n=a5 v=44
6656 Off ch=1 n=c3 v=0
6656 On ch=1 n=g3 v=33
6855 Par ch=1 c=64 v=127
7054 Par ch=1 c=64 v=127
7168 On ch=1 n=c6 v=50
7168 Off ch=1 n=g3 v=0
7168 On ch=1 n=f4 v=31
7198 Off ch=1 n=a5 v=0
7198 Off ch=1 n=d6 v=0
7680 On ch=1 n=g5 v=45
7680 Off ch=1 n=f4 v=0
7680 On ch=1 n=g4 v=30
8192 On ch=1 n=d5 v=36
8192 Off ch=1 n=g4 v=0
8192 On ch=1 n=f5 v=28
8222 Off ch=1 n=g5 v=0
8222 Off ch=1 n=c6 v=0
8704 Par ch=1 c=64 v=0
8704 Par ch=1 c=64 v=127
8704 Par ch=1 c=64 v=0
8704 Off ch=1 n=f5 v=0
8704 On ch=1 n=d6 v=50
8704 On ch=1 n=c3 v=35
8734 Off ch=1 n=d5 v=0
8846 Par ch=1 c=64 v=0
9003 Par ch=1 c=64 v=127
9070 Par ch=1 c=64 v=0
9216 On ch=1 n=a5 v=48
9216 Off ch=1 n=c3 v=0
9216 On ch=1 n=g3 v=33
9246 Off ch=1 n=d6 v=0
9415 Par ch=1 c=64 v=127
9614 Par ch=1 c=64 v=127
9728 On ch=1 n=c6 v=46
9728 Off ch=1 n=g3 v=0
9728 On ch=1 n=e4 v=31
9758 Off ch=1 n=a5 v=0
10240 On ch=1 n=g5 v=45
10240 Off ch=1 n=e4 v=0
10240 On ch=1 n=g4 v=30
10270 Off ch=1 n=c6 v=0
10752 On ch=1 n=c5 v=36
10752 Off ch=1 n=g4 v=0
10752 On ch=1 n=e5 v=28
10782 Off ch=1 n=g5 v=0
11264 Par ch=1 c=64 v=0
11264 Par ch=1 c=64 v=127
11264 Par ch=1 c=64 v=0
11264 Off ch=1 n=e5 v=0
11264 On ch=1 n=g6 v=56
11264 On ch=1 n=c3 v=41
11294 Off ch=1 n=c5 v=0
11406 Par ch=1 c=64 v=0
11563 Par ch=1 c=64 v=127
11630 Par ch=1 c=64 v=0
11776 On ch=1 n=d6 v=50
11776 On ch=1 n=c4 v=40
11975 Par ch=1 c=64 v=127
12174 Par ch=1 c=64 v=127
12288 On ch=1 n=f6 v=52
12288 On ch=1 n=a#4 v=39
12318 Off ch=1 n=d6 v=0
12318 Off ch=1 n=g6 v=0
12800 On ch=1 n=c6 v=47
12800 On ch=1 n=c5 v=38
13312 On ch=1 n=g5 v=49
13312 On ch=1 n=a#5 v=37
13342 Off ch=1 n=c6 v=0
13342 Off ch=1 n=f6 v=0
13824 Par ch=1 c=64 v=0
13824 Par ch=1 c=64 v=127
13824 Par ch=1 c=64 v=0
13824 On ch=1 n=g6 v=57
13966 Par ch=1 c=64 v=0
14123 Par ch=1 c=64 v=127
14190 Par ch=1 c=64 v=0
14336 Off ch=1 n=g5 v=0
14336 On ch=1 n=a6 v=55
14366 Off ch=1 n=g6 v=0
14535 Par ch=1 c=64 v=127
14734 Par ch=1 c=64 v=127
14848 On ch=1 n=d7 v=58
14848 Off ch=1 n=c3 v=0
14848 Off ch=1 n=c4 v=0
14848 Off ch=1 n=a#4 v=0
14848 Off ch=1 n=c5 v=0
14848 Off ch=1 n=a#5 v=0
14878 Off ch=1 n=a6 v=0
15360 On ch=1 n=c7 v=57
15390 Off ch=1 n=d7 v=0
15872 On ch=1 n=a6 v=52
15902 Off ch=1 n=c7 v=0
16384 Par ch=1 c=64 v=0
16384 Par ch=1 c=64 v=127
16384 Par ch=1 c=64 v=0
16384 On ch=1 n=g6 v=50
16384 On ch=1 n=c3 v=35
16414 Off ch=1 n=a6 v=0
16526 Par ch=1 c=64 v=0
16683 Par ch=1 c=64 v=127
16750 Par ch=1 c=64 v=0
16896 On ch=1 n=d6 v=44
16896 Off ch=1 n=c3 v=0
16896 On ch=1 n=c4 v=33
17095 Par ch=1 c=64 v=127
17294 Par ch=1 c=64 v=127
17408 On ch=1 n=f6 v=50
17408 Off ch=1 n=c4 v=0
17408 On ch=1 n=a#4 v=31
17438 Off ch=1 n=d6 v=0
17438 Off ch=1 n=g6 v=0
17920 On ch=1 n=c6 v=45
17920 Off ch=1 n=a#4 v=0
17920 On ch=1 n=c5 v=30
18432 On ch=1 n=g5 v=36
18432 Off ch=1 n=c5 v=0
18432 On ch=1 n=a#5 v=28
18462 Off ch=1 n=c6 v=0
18462 Off ch=1 n=f6 v=0
18944 Par ch=1 c=64 v=0
18944 Par ch=1 c=64 v=127
18944 Par ch=1 c=64 v=0
18944 Off ch=1 n=a#5 v=0
18944 On ch=1 n=g6 v=50
18944 On ch=1 n=f3 v=35
19086 Par ch=1 c=64 v=0
19243 Par ch=1 c=64 v=127
19310 Par ch=1 c=64 v=0
19456 Off ch=1 n=g5 v=0
19456 On ch=1 n=d6 v=48
19456 Off ch=1 n=f3 v=0
19456 On ch=1 n=c4 v=33
19655 Par ch=1 c=64 v=127
19854 Par ch=1 c=64 v=127
19968 On ch=1 n=f6 v=46
19968 Off ch=1 n=c4 v=0
19968 On ch=1 n=a4 v=31
19998 Off ch=1 n=d6 v=0
19998 Off ch=1 n=g6 v=0
20480 On ch=1 n=c6 v=45
20480 Off ch=1 n=a4 v=0
20480 On ch=1 n=c5 v=30
20992 On ch=1 n=f5 v=36
20992 Off ch=1 n=c5 v=0
20992 On ch=1 n=a5 v=28
21022 Off ch=1 n=c6 v=0
21022 Off ch=1 n=f6 v=0
21504 Par ch=1 c=64 v=0
21504 Par ch=1 c=64 v=127
21504 Par ch=1 c=64 v=0
21504 Off ch=1 n=a5 v=0
21504 On ch=1 n=f6 v=50
21504 On ch=1 n=d3 v=35
21646 Par ch=1 c=64 v=0
21803 Par ch=1 c=64 v=127
21870 Par ch=1 c=64 v=0
22016 Off ch=1 n=f5 v=0
22016 On ch=1 n=c6 v=44
22016 On ch=1 n=d4 v=33
22046 Off ch=1 n=f6 v=0
22215 Par ch=1 c=64 v=127
22414 Par ch=1 c=64 v=127
22528 On ch=1 n=e6 v=46
22528 On ch=1 n=a4 v=31
22558 Off ch=1 n=c6 v=0
23040 On ch=1 n=c6 v=41
23040 On ch=1 n=d5 v=30
23070 Off ch=1 n=e6 v=0
23552 On ch=1 n=f5 v=43
23552 On ch=1 n=a5 v=28
23582 Off ch=1 n=c6 v=0
24064 Par ch=1 c=64 v=0
24064 Par ch=1 c=64 v=127
24064 Par ch=1 c=64 v=0
24064 On ch=1 n=d6 v=50
24206 Par ch=1 c=64 v=0
24363 Par ch=1 c=64 v=127
24430 Par ch=1 c=64 v=0
24576 Off ch=1 n=f5 v=0
24576 Off ch=1 n=d6 v=0
24576 On ch=1 n=e6 v=51
24775 Par ch=1 c=64 v=127
24974 Par ch=1 c=64 v=127
25088 Off ch=1 n=e6 v=0
25088 On ch=1 n=a6 v=54
25088 Off ch=1 n=d3 v=0
25088 Off ch=1 n=d4 v=0
25088 Off ch=1 n=a4 v=0
25088 Off ch=1 n=d5 v=0
25088 Off ch=1 n=a5 v=0
25600 Off ch=1 n=a6 v=0
25600 On ch=1 n=g6 v=53
26112 Off ch=1 n=g6 v=0
26112 On ch=1 n=f6 v=48
26624 Par ch=1 c=64 v=0
26624 Par ch=1 c=64 v=127
26624 Par ch=1 c=64 v=0
26624 Off ch=1 n=f6 v=0
26624 On ch=1 n=e6 v=53
26624 On ch=1 n=a2 v=35
26766 Par ch=1 c=64 v=0
26923 Par ch=1 c=64 v=127
26990 Par ch=1 c=64 v=0
27136 Off ch=1 n=e6 v=0
27136 On ch=1 n=c6 v=47
27136 On ch=1 n=a3 v=33
27335 Par ch=1 c=64 v=127
27534 Par ch=1 c=64 v=127
27648 Off ch=1 n=c6 v=0
27648 On ch=1 n=d6 v=50
27648 On ch=1 n=f4 v=32
28160 Off ch=1 n=d6 v=0
28160 On ch=1 n=c6 v=46
28160 On ch=1 n=d5 v=31
28672 Off ch=1 n=c6 v=0
28672 On ch=1 n=f5 v=48
28672 On ch=1 n=a5 v=29
29184 Par ch=1 c=64 v=0
29184 Par ch=1 c=64 v=127
29184 Par ch=1 c=64 v=0
29184 On ch=1 n=c6 v=55
29326 Par ch=1 c=64 v=0
29483 Par ch=1 c=64 v=127
29550 Par ch=1 c=64 v=0
29696 Off ch=1 n=f5 v=0
29696 Off ch=1 n=c6 v=0
29696 On ch=1 n=d6 v=58
29895 Par ch=1 c=64 v=127
30094 Par ch=1 c=64 v=127
30208 Off ch=1 n=d6 v=0
30208 On ch=1 n=g6 v=62
30208 Off ch=1 n=a2 v=0
30208 Off ch=1 n=a3 v=0
30208 Off ch=1 n=f4 v=0
30208 Off ch=1 n=d5 v=0
30208 Off ch=1 n=a5 v=0
30720 Off ch=1 n=g6 v=0
30720 On ch=1 n=f6 v=62
31232 Off ch=1 n=f6 v=0
31232 On ch=1 n=e6 v=57
31744 Par ch=1 c=64 v=0
31744 Par ch=1 c=64 v=127
31744 Par ch=1 c=64 v=0
31744 Off ch=1 n=e6 v=0
31744 On ch=1 n=d6 v=60
31744 On ch=1 n=d2 v=40
31886 Par ch=1 c=64 v=0
32043 Par ch=1 c=64 v=127
32110 Par ch=1 c=64 v=0
32256 Off ch=1 n=d6 v=0
32256 On ch=1 n=c6 v=54
32256 On ch=1 n=d3 v=38
32455 Par ch=1 c=64 v=127
32654 Par ch=1 c=64 v=127
32768 Off ch=1 n=c6 v=0
32768 On ch=1 n=e6 v=56
32768 On ch=1 n=a3 v=36
33280 Off ch=1 n=e6 v=0
33280 On ch=1 n=c6 v=51
33280 On ch=1 n=f4 v=35
33792 On ch=1 n=f5 v=54
33792 On ch=1 n=c5 v=33
34304 Par ch=1 c=64 v=0
34304 Par ch=1 c=64 v=127
34304 Par ch=1 c=64 v=0
34304 On ch=1 n=f6 v=55
34446 Par ch=1 c=64 v=0
34603 Par ch=1 c=64 v=127
34670 Par ch=1 c=64 v=0
34816 Off ch=1 n=f5 v=0
34816 Off ch=1 n=c6 v=0
34816 Off ch=1 n=f6 v=0
34816 On ch=1 n=c6 v=52
35015 Par ch=1 c=64 v=127
35214 Par ch=1 c=64 v=127
35328 Off ch=1 n=c6 v=0
35328 On ch=1 n=e7 v=68
35328 Off ch=1 n=d2 v=0
35328 Off ch=1 n=d3 v=0
35328 Off ch=1 n=a3 v=0
35328 Off ch=1 n=f4 v=0
35328 Off ch=1 n=c5 v=0
35840 On ch=1 n=d7 v=66
36352 Off ch=1 n=e7 v=0
36352 On ch=1 n=c7 v=64
36864 Par ch=1 c=64 v=0
36864 Par ch=1 c=64 v=127
36864 Par ch=1 c=64 v=0
36864 Off ch=1 n=d7 v=0
36864 On ch=1 n=a6 v=62
36864 On ch=1 n=g2 v=55
37006 Par ch=1 c=64 v=0
37163 Par ch=1 c=64 v=127
37230 Par ch=1 c=64 v=0
37376 Off ch=1 n=a6 v=0
37376 Off ch=1 n=c7 v=0
37376 On ch=1 n=f6 v=61
37376 On ch=1 n=g3 v=55
37575 Par ch=1 c=64 v=127
37774 Par ch=1 c=64 v=127
37888 Off ch=1 n=f6 v=0
37888 On ch=1 n=e6 v=59
37888 On ch=1 n=f4 v=55
38400 Off ch=1 n=e6 v=0
38400 On ch=1 n=b5 v=57
38400 On ch=1 n=b4 v=55
38912 Off ch=1 n=b5 v=0
38912 On ch=1 n=g5 v=55
38912 Off ch=1 n=b4 v=0
38912 On ch=1 n=f5 v=55
39424 Par ch=1 c=64 v=0
39424 Par ch=1 c=64 v=127
39424 Par ch=1 c=64 v=0
39424 Off ch=1 n=f5 v=0
39424 On ch=1 n=d6 v=58
39424 On ch=1 n=b4 v=40
39566 Par ch=1 c=64 v=0
39723 Par ch=1 c=64 v=127
39790 Par ch=1 c=64 v=0
39936 Off ch=1 n=g5 v=0
39936 Off ch=1 n=d6 v=0
39936 On ch=1 n=b5 v=57
40135 Par ch=1 c=64 v=127
40334 Par ch=1 c=64 v=127
40448 Off ch=1 n=b5 v=0
40448 On ch=1 n=g6 v=55
40448 Off ch=1 n=g3 v=0
40448 Off ch=1 n=f4 v=0
40448 Off ch=1 n=b4 v=0
40448 On ch=1 n=f4 v=40
40960 Off ch=1 n=g6 v=0
40960 On ch=1 n=d6 v=54
40960 Off ch=1 n=g2 v=0
41216 Off ch=1 n=f4 v=0
41216 On ch=1 n=g3 v=40
41472 Off ch=1 n=d6 v=0
41472 On ch=1 n=g5 v=53
41984 Par ch=1 c=64 v=0
41984 Par ch=1 c=64 v=127
41984 Par ch=1 c=64 v=0
41984 On ch=1 n=a6 v=55
41984 On ch=1 n=c3 v=35
42126 Par ch=1 c=64 v=0
42283 Par ch=1 c=64 v=127
42350 Par ch=1 c=64 v=0
42496 Off ch=1 n=g5 v=0
42496 On ch=1 n=e6 v=44
42496 Off ch=1 n=g3 v=0
42496 On ch=1 n=g3 v=33
42695 Par ch=1 c=64 v=127
42894 Par ch=1 c=64 v=127
43008 Off ch=1 n=e6 v=0
43008 Off ch=1 n=a6 v=0
43008 On ch=1 n=g6 v=51
43008 On ch=1 n=f4 v=31
43520 Off ch=1 n=g6 v=0
43520 On ch=1 n=d6 v=41
43520 On ch=1 n=g4 v=30
44032 Off ch=1 n=d6 v=0
44032 On ch=1 n=g5 v=43
44032 On ch=1 n=f5 v=28
44544 Par ch=1 c=64 v=0
44544 Par ch=1 c=64 v=127
44544 Par ch=1 c=64 v=0
44544 On ch=1 n=a6 v=48
44686 Par ch=1 c=64 v=0
44843 Par ch=1 c=64 v=127
44910 Par ch=1 c=64 v=0
45056 Off ch=1 n=g5 v=0
45056 Off ch=1 n=a6 v=0
45056 On ch=1 n=b6 v=51
45255 Par ch=1 c=64 v=127
45454 Par ch=1 c=64 v=127
45568 Off ch=1 n=b6 v=0
45568 On ch=1 n=e7 v=54
45568 Off ch=1 n=c3 v=0
45568 Off ch=1 n=g3 v=0
45568 Off ch=1 n=f4 v=0
45568 Off ch=1 n=g4 v=0
45568 Off ch=1 n=f5 v=0
46080 Off ch=1 n=e7 v=0
46080 On ch=1 n=d7 v=53
46592 Off ch=1 n=d7 v=0
46592 On ch=1 n=b6 v=48
47104 Par ch=1 c=64 v=0
47104 Par ch=1 c=64 v=127
47104 Par ch=1 c=64 v=0
47104 Off ch=1 n=b6 v=0
47104 On ch=1 n=a6 v=53
47104 On ch=1 n=c3 v=35
47246 Par ch=1 c=64 v=0
47403 Par ch=1 c=64 v=127
47470 Par ch=1 c=64 v=0
47616 On ch=1 n=e6 v=39
47616 Off ch=1 n=c3 v=0
47616 On ch=1 n=g3 v=33
47815 Par ch=1 c=64 v=127
48014 Par ch=1 c=64 v=127
48128 Off ch=1 n=e6 v=0
48128 Off ch=1 n=a6 v=0
48128 On ch=1 n=g6 v=50
48128 Off ch=1 n=g3 v=0
48128 On ch=1 n=f4 v=31
48640 Off ch=1 n=g6 v=0
48640 On ch=1 n=d6 v=40
48640 Off ch=1 n=f4 v=0
48640 On ch=1 n=g4 v=30
49152 Off ch=1 n=d6 v=0
49152 On ch=1 n=g5 v=36
49152 Off ch=1 n=g4 v=0
49152 On ch=1 n=f5 v=28
49664 Par ch=1 c=64 v=0
49664 Par ch=1 c=64 v=127
49664 Par ch=1 c=64 v=0
49664 Off ch=1 n=f5 v=0
49664 On ch=1 n=e6 v=50
49664 On ch=1 n=c3 v=35
49806 Par ch=1 c=64 v=0
49963 Par ch=1 c=64 v=127
50030 Par ch=1 c=64 v=0
50176 Off ch=1 n=g5 v=0
50176 On ch=1 n=g5 v=38
50176 Off ch=1 n=c3 v=0
50176 On ch=1 n=g3 v=33
50375 Par ch=1 c=64 v=127
50574 Par ch=1 c=64 v=127
50688 Off ch=1 n=g5 v=0
50688 Off ch=1 n=e6 v=0
50688 On ch=1 n=c6 v=46
50688 Off ch=1 n=g3 v=0
50688 On ch=1 n=e4 v=31
51200 Off ch=1 n=c6 v=0
51200 On ch=1 n=g5 v=35
51200 Off ch=1 n=e4 v=0
51200 On ch=1 n=g4 v=30
51712 Off ch=1 n=g5 v=0
51712 On ch=1 n=c5 v=31
51712 Off ch=1 n=g4 v=0
51712 On ch=1 n=e5 v=28
52224 Par ch=1 c=64 v=0
52224 Par ch=1 c=64 v=127
52224 Par ch=1 c=64 v=0
52224 Off ch=1 n=e5 v=0
52224 On ch=1 n=f6 v=59
52224 On ch=1 n=a3 v=34
52366 Par ch=1 c=64 v=0
52523 Par ch=1 c=64 v=127
52590 Par ch=1 c=64 v=0
52736 Off ch=1 n=c5 v=0
52736 On ch=1 n=b5 v=43
52736 On ch=1 n=e4 v=33
52935 Par ch=1 c=64 v=127
53134 Par ch=1 c=64 v=127
53248 Off ch=1 n=b5 v=0
53248 Off ch=1 n=f6 v=0
53248 On ch=1 n=e6 v=52
53248 On ch=1 n=b4 v=32
53760 Off ch=1 n=e6 v=0
53760 On ch=1 n=b5 v=47
53760 On ch=1 n=d5 v=31
54272 Off ch=1 n=b5 v=0
54272 On ch=1 n=e5 v=42
54272 On ch=1 n=g#5 v=30
54784 Par ch=1 c=64 v=0
54784 Par ch=1 c=64 v=127
54784 Par ch=1 c=64 v=0
54784 On ch=1 n=b6 v=48
54926 Par ch=1 c=64 v=0
55083 Par ch=1 c=64 v=127
55150 Par ch=1 c=64 v=0
55296 Off ch=1 n=e5 v=0
55296 Off ch=1 n=b6 v=0
55296 On ch=1 n=c7 v=51
55495 Par ch=1 c=64 v=127
55694 Par ch=1 c=64 v=127
55808 Off ch=1 n=c7 v=0
55808 On ch=1 n=e7 v=54
55808 Off ch=1 n=a3 v=0
55808 Off ch=1 n=e4 v=0
55808 Off ch=1 n=b4 v=0
55808 Off ch=1 n=d5 v=0
55808 Off ch=1 n=g#5 v=0
56320 Off ch=1 n=e7 v=0
56320 On ch=1 n=d7 v=53
56832 Off ch=1 n=d7 v=0
56832 On ch=1 n=c7 v=48
57344 Par ch=1 c=64 v=0
57344 Par ch=1 c=64 v=127
57344 Par ch=1 c=64 v=0
57344 Off ch=1 n=c7 v=0
57344 On ch=1 n=b6 v=50
57344 On ch=1 n=a3 v=35
57486 Par ch=1 c=64 v=0
57643 Par ch=1 c=64 v=127
57710 Par ch=1 c=64 v=0
57856 On ch=1 n=e6 v=44
57856 Off ch=1 n=a3 v=0
57856 On ch=1 n=e4 v=33
58055 Par ch=1 c=64 v=127
58254 Par ch=1 c=64 v=127
58368 Off ch=1 n=e6 v=0
58368 Off ch=1 n=b6 v=0
58368 On ch=1 n=a6 v=46
58368 On ch=1 n=d5 v=31
58880 Off ch=1 n=a6 v=0
58880 On ch=1 n=e6 v=41
58880 Off ch=1 n=d5 v=0
58880 On ch=1 n=e5 v=30
59392 Off ch=1 n=e6 v=0
59392 On ch=1 n=b5 v=38
59392 On ch=1 n=d6 v=28
59904 Par ch=1 c=64 v=0
59904 Par ch=1 c=64 v=127
59904 Par ch=1 c=64 v=0
59904 On ch=1 n=b6 v=50
59904 On ch=1 n=a3 v=35
60046 Par ch=1 c=64 v=0
60203 Par ch=1 c=64 v=127
60270 Par ch=1 c=64 v=0
60416 Off ch=1 n=b5 v=0
60416 On ch=1 n=e6 v=44
60416 Off ch=1 n=a3 v=0
60416 Off ch=1 n=e4 v=0
60416 Off ch=1 n=e5 v=0
60416 Off ch=1 n=d6 v=0
60416 On ch=1 n=e4 v=33
60615 Par ch=1 c=64 v=127
60814 Par ch=1 c=64 v=127
60928 Off ch=1 n=e6 v=0
60928 Off ch=1 n=b6 v=0
60928 On ch=1 n=a6 v=46
60928 Off ch=1 n=e4 v=0
60928 On ch=1 n=c5 v=31
61440 Off ch=1 n=a6 v=0
61440 On ch=1 n=e6 v=41
61440 Off ch=1 n=c5 v=0
61440 On ch=1 n=e5 v=30
61952 Off ch=1 n=e6 v=0
61952 On ch=1 n=a5 v=38
61952 Off ch=1 n=e5 v=0
61952 On ch=1 n=c6 v=28
62464 Par ch=1 c=64 v=0
62464 Par ch=1 c=64 v=127
62464 Par ch=1 c=64 v=0
62464 Off ch=1 n=a5 v=0
62464 Off ch=1 n=c6 v=0
62464 On ch=1 n=g6 v=53
62464 On ch=1 n=d#3 v=41
62606 Par ch=1 c=64 v=0
62763 Par ch=1 c=64 v=127
62830 Par ch=1 c=64 v=0
62976 On ch=1 n=b5 v=47
62976 Off ch=1 n=d#3 v=0
62976 On ch=1 n=d#4 v=33
63175 Par ch=1 c=64 v=127
63374 Par ch=1 c=64 v=127
63488 Off ch=1 n=b5 v=0
63488 Off ch=1 n=g6 v=0
63488 On ch=1 n=f#6 v=52
63488 Off ch=1 n=d#4 v=0
63488 On ch=1 n=c5 v=32
64000 Off ch=1 n=f#6 v=0
64000 On ch=1 n=a5 v=47
64000 Off ch=1 n=c5 v=0
64000 On ch=1 n=f#5 v=31
64512 Off ch=1 n=a5 v=0
64512 On ch=1 n=c6 v=44
64512 Off ch=1 n=f#5 v=0
64512 On ch=1 n=a4 v=30
65024 Par ch=1 c=64 v=0
65024 Par ch=1 c=64 v=127
65024 Par ch=1 c=64 v=0
65024 Off ch=1 n=c6 v=0
65024 Off ch=1 n=a4 v=0
65024 On ch=1 n=f6 v=48
65024 On ch=1 n=e3 v=41
65166 Par ch=1 c=64 v=0
65323 Par ch=1 c=64 v=127
65390 Par ch=1 c=64 v=0
65536 Off ch=1 n=f6 v=0
65536 On ch=1 n=f#6 v=51
65536 Off ch=1 n=e3 v=0
65536 On ch=1 n=e4 v=33
65735 Par ch=1 c=64 v=127
65934 Par ch=1 c=64 v=127
66048 Off ch=1 n=f#6 v=0
66048 On ch=1 n=a6 v=54
66048 Off ch=1 n=e4 v=0
66048 On ch=1 n=b4 v=32
66560 Off ch=1 n=a6 v=0
66560 On ch=1 n=g6 v=53
66560 Off ch=1 n=b4 v=0
66560 On ch=1 n=e5 v=31
67072 Off ch=1 n=g6 v=0
67072 On ch=1 n=b5 v=48
67072 Off ch=1 n=e5 v=0
67072 On ch=1 n=g4 v=30
67584 Par ch=1 c=64 v=0
67584 Par ch=1 c=64 v=127
67584 Par ch=1 c=64 v=0
67584 Off ch=1 n=b5 v=0
67584 Off ch=1 n=g4 v=0
67584 On ch=1 n=f6 v=53
67584 On ch=1 n=c#3 v=41
67726 Par ch=1 c=64 v=0
67883 Par ch=1 c=64 v=127
67950 Par ch=1 c=64 v=0
68096 On ch=1 n=a5 v=47
68096 Off ch=1 n=c#3 v=0
68096 On ch=1 n=c#4 v=33
68295 Par ch=1 c=64 v=127
68494 Par ch=1 c=64 v=127
68608 Off ch=1 n=a5 v=0
68608 Off ch=1 n=f6 v=0
68608 On ch=1 n=e6 v=52
68608 Off ch=1 n=c#4 v=0
68608 On ch=1 n=a#4 v=32
69120 Off ch=1 n=e6 v=0
69120 On ch=1 n=g5 v=47
69120 Off ch=1 n=a#4 v=0
69120 On ch=1 n=e5 v=31
69632 Off ch=1 n=g5 v=0
69632 On ch=1 n=a#5 v=49
69632 Off ch=1 n=e5 v=0
69632 On ch=1 n=g4 v=30
70144 Par ch=1 c=64 v=0
70144 Par ch=1 c=64 v=127
70144 Par ch=1 c=64 v=0
70144 Off ch=1 n=a#5 v=0
70144 Off ch=1 n=g4 v=0
70144 On ch=1 n=d#6 v=48
70144 On ch=1 n=d3 v=41
70286 Par ch=1 c=64 v=0
70443 Par ch=1 c=64 v=127
70510 Par ch=1 c=64 v=0
70656 Off ch=1 n=d#6 v=0
70656 On ch=1 n=e6 v=51
70656 Off ch=1 n=d3 v=0
70656 On ch=1 n=d4 v=33
70855 Par ch=1 c=64 v=127
71054 Par ch=1 c=64 v=127
71168 Off ch=1 n=e6 v=0
71168 On ch=1 n=g6 v=54
71168 Off ch=1 n=d4 v=0
71168 On ch=1 n=a4 v=32
71680 Off ch=1 n=g6 v=0
71680 On ch=1 n=f6 v=53
71680 Off ch=1 n=a4 v=0
71680 On ch=1 n=d5 v=31
72192 Off ch=1 n=f6 v=0
72192 On ch=1 n=a5 v=48
72192 Off ch=1 n=d5 v=0
72192 On ch=1 n=f4 v=30
72704 Par ch=1 c=64 v=0
72704 Par ch=1 c=64 v=127
72704 Par ch=1 c=64 v=0
72704 Off ch=1 n=a5 v=0
72704 Off ch=1 n=f4 v=0
72704 On ch=1 n=e6 v=45
72704 On ch=1 n=f2 v=33
72846 Par ch=1 c=64 v=0
73003 Par ch=1 c=64 v=127
73070 Par ch=1 c=64 v=0
73216 On ch=1 n=g#5 v=38
73216 On ch=1 n=f3 v=27
73415 Par ch=1 c=64 v=127
73614 Par ch=1 c=64 v=127
73728 Off ch=1 n=e6 v=0
73728 On ch=1 n=d6 v=43
73728 Off ch=1 n=f2 v=0
73728 Off ch=1 n=f3 v=0
73728 On ch=1 n=d4 v=27
74240 Off ch=1 n=g#5 v=0
74240 Off ch=1 n=d6 v=0
74240 On ch=1 n=g#5 v=39
74240 Off ch=1 n=d4 v=0
74240 On ch=1 n=g#4 v=26
74752 Off ch=1 n=g#5 v=0
74752 On ch=1 n=d5 v=42
74752 Off ch=1 n=g#4 v=0
74752 On ch=1 n=c5 v=26
75264 Par ch=1 c=64 v=0
75264 Par ch=1 c=64 v=127
75264 Par ch=1 c=64 v=0
75264 Off ch=1 n=d5 v=0
75264 Off ch=1 n=c5 v=0
75264 On ch=1 n=e6 v=49
75264 On ch=1 n=g2 v=37
75406 Par ch=1 c=64 v=0
75563 Par ch=1 c=64 v=127
75630 Par ch=1 c=64 v=0
75776 On ch=1 n=g5 v=41
75776 On ch=1 n=g3 v=29
75975 Par ch=1 c=64 v=127
76174 Par ch=1 c=64 v=127
76288 Off ch=1 n=e6 v=0
76288 On ch=1 n=d6 v=46
76288 Off ch=1 n=g2 v=0
76288 Off ch=1 n=g3 v=0
76288 On ch=1 n=d4 v=28
76800 Off ch=1 n=g5 v=0
76800 Off ch=1 n=d6 v=0
76800 On ch=1 n=g5 v=43
76800 Off ch=1 n=d4 v=0
76800 On ch=1 n=g4 v=28
77312 Off ch=1 n=g5 v=0
77312 On ch=1 n=d5 v=45
77312 Off ch=1 n=g4 v=0
77312 On ch=1 n=c5 v=28
77824 Par ch=1 c=64 v=0
77824 Par ch=1 c=64 v=127
77824 Par ch=1 c=64 v=0
77824 Off ch=1 n=d5 v=0
77824 Off ch=1 n=c5 v=0
77824 On ch=1 n=e6 v=52
77824 On ch=1 n=g#2 v=40
77966 Par ch=1 c=64 v=0
78123 Par ch=1 c=64 v=127
78190 Par ch=1 c=64 v=0
78336 On ch=1 n=f#5 v=45
78336 On ch=1 n=g#3 v=31
78535 Par ch=1 c=64 v=127
78734 Par ch=1 c=64 v=127
78848 Off ch=1 n=e6 v=0
78848 On ch=1 n=d6 v=50
78848 Off ch=1 n=g#2 v=0
78848 Off ch=1 n=g#3 v=0
78848 On ch=1 n=d4 v=31
79360 Off ch=1 n=f#5 v=0
79360 Off ch=1 n=d6 v=0
79360 On ch=1 n=f#5 v=46
79360 Off ch=1 n=d4 v=0
79360 On ch=1 n=f#4 v=30
79872 Off ch=1 n=f#5 v=0
79872 On ch=1 n=d5 v=49
79872 Off ch=1 n=f#4 v=0
79872 On ch=1 n=c5 v=30
80384 Par ch=1 c=64 v=0
80384 Par ch=1 c=64 v=127
80384 Par ch=1 c=64 v=0
80384 Off ch=1 n=d5 v=0
80384 Off ch=1 n=c5 v=0
80384 On ch=1 n=e6 v=56
80384 On ch=1 n=a2 v=45
80526 Par ch=1 c=64 v=0
80683 Par ch=1 c=64 v=127
80750 Par ch=1 c=64 v=0
80896 On ch=1 n=f#5 v=47
80896 On ch=1 n=a3 v=33
81095 Par ch=1 c=64 v=127
81294 Par ch=1 c=64 v=127
81408 Off ch=1 n=e6 v=0
81408 On ch=1 n=d6 v=54
81408 Off ch=1 n=a2 v=0
81408 Off ch=1 n=a3 v=0
81408 On ch=1 n=d4 v=33
81920 Off ch=1 n=f#5 v=0
81920 Off ch=1 n=d6 v=0
81920 On ch=1 n=f#5 v=49
81920 Off ch=1 n=d4 v=0
81920 On ch=1 n=f#4 v=32
82432 Off ch=1 n=f#5 v=0
82432 On ch=1 n=d5 v=51
82432 Off ch=1 n=f#4 v=0
82432 On ch=1 n=c5 v=32
82944 Par ch=1 c=64 v=0
82944 Par ch=1 c=64 v=127
82944 Par ch=1 c=64 v=0
82944 Off ch=1 n=d5 v=0
82944 Off ch=1 n=c5 v=0
82944 On ch=1 n=e6 v=60
82944 On ch=1 n=g2 v=49
83086 Par ch=1 c=64 v=0
83243 Par ch=1 c=64 v=127
83310 Par ch=1 c=64 v=0
83456 On ch=1 n=g5 v=52
83456 On ch=1 n=g3 v=36
83655 Par ch=1 c=64 v=127
83854 Par ch=1 c=64 v=127
83968 Off ch=1 n=e6 v=0
83968 On ch=1 n=d6 v=58
83968 Off ch=1 n=g2 v=0
83968 Off ch=1 n=g3 v=0
83968 On ch=1 n=d4 v=36
84480 Off ch=1 n=g5 v=0
84480 Off ch=1 n=d6 v=0
84480 On ch=1 n=g5 v=53
84480 Off ch=1 n=d4 v=0
84480 On ch=1 n=g4 v=35
84992 Off ch=1 n=g5 v=0
84992 On ch=1 n=d5 v=57
84992 Off ch=1 n=g4 v=0
84992 On ch=1 n=c5 v=35
85504 Par ch=1 c=64 v=0
85504 Par ch=1 c=64 v=127
85504 Par ch=1 c=64 v=0
85504 Off ch=1 n=d5 v=0
85504 Off ch=1 n=c5 v=0
85504 On ch=1 n=e6 v=66
85504 On ch=1 n=g2 v=55
85646 Par ch=1 c=64 v=0
85803 Par ch=1 c=64 v=127
85870 Par ch=1 c=64 v=0
86016 On ch=1 n=g5 v=57
86016 On ch=1 n=g3 v=40
86215 Par ch=1 c=64 v=127
86414 Par ch=1 c=64 v=127
86528 Off ch=1 n=g5 v=0
86528 Off ch=1 n=e6 v=0
86528 On ch=1 n=d6 v=63
86528 Off ch=1 n=g2 v=0
86528 Off ch=1 n=g3 v=0
86528 On ch=1 n=d4 v=39
87040 Off ch=1 n=d6 v=0
87040 On ch=1 n=g5 v=58
87040 Off ch=1 n=d4 v=0
87040 On ch=1 n=g4 v=38
87552 Off ch=1 n=g5 v=0
87552 On ch=1 n=d5 v=62
87552 Off ch=1 n=g4 v=0
87552 On ch=1 n=c5 v=39
88064 Par ch=1 c=64 v=0
88064 Par ch=1 c=64 v=127
88064 Par ch=1 c=64 v=0
88064 Off ch=1 n=d5 v=0
88064 Off ch=1 n=c5 v=0
88064 On ch=1 n=a5 v=58
88064 On ch=1 n=a6 v=71
88064 On ch=1 n=g2 v=59
88206 Par ch=1 c=64 v=0
88363 Par ch=1 c=64 v=127
88430 Par ch=1 c=64 v=0
88576 On ch=1 n=d6 v=56
88576 On ch=1 n=g3 v=59
88775 Par ch=1 c=64 v=127
88974 Par ch=1 c=64 v=127
89088 Off ch=1 n=a5 v=0
89088 Off ch=1 n=d6 v=0
89088 Off ch=1 n=a6 v=0
89088 On ch=1 n=g5 v=68
89088 On ch=1 n=g6 v=68
89088 Off ch=1 n=g2 v=0
89088 Off ch=1 n=g3 v=0
89088 On ch=1 n=f4 v=60
89600 Off ch=1 n=g5 v=0
89600 Off ch=1 n=g6 v=0
89600 On ch=1 n=d6 v=66
89600 Off ch=1 n=f4 v=0
89600 On ch=1 n=b4 v=61
90112 Off ch=1 n=d6 v=0
90112 On ch=1 n=g5 v=64
90112 Off ch=1 n=b4 v=0
90112 On ch=1 n=d5 v=61
90624 Par ch=1 c=64 v=0
90624 Par ch=1 c=64 v=127
90624 Par ch=1 c=64 v=0
90624 Off ch=1 n=g5 v=0
90624 Off ch=1 n=d5 v=0
90624 On ch=1 n=a5 v=60
90624 On ch=1 n=a6 v=73
90624 On ch=1 n=g2 v=61
90766 Par ch=1 c=64 v=0
90923 Par ch=1 c=64 v=127
90990 Par ch=1 c=64 v=0
91136 On ch=1 n=d6 v=58
91136 On ch=1 n=g3 v=62
91335 Par ch=1 c=64 v=127
91534 Par ch=1 c=64 v=127
91648 Off ch=1 n=a5 v=0
91648 Off ch=1 n=d6 v=0
91648 Off ch=1 n=a6 v=0
91648 On ch=1 n=g5 v=70
91648 On ch=1 n=g6 v=70
91648 Off ch=1 n=g2 v=0
91648 Off ch=1 n=g3 v=0
91648 On ch=1 n=f4 v=62
92160 Off ch=1 n=g5 v=0
92160 Off ch=1 n=g6 v=0
92160 On ch=1 n=d6 v=68
92160 Off ch=1 n=f4 v=0
92160 On ch=1 n=b4 v=63
92672 Off ch=1 n=d6 v=0
92672 On ch=1 n=g5 v=66
92672 Off ch=1 n=b4 v=0
92672 On ch=1 n=d5 v=63
93184 Par ch=1 c=64 v=127
93184 Par ch=1 c=64 v=0
93184 Par ch=1 c=64 v=127
93184 Off ch=1 n=g5 v=0
93184 Off ch=1 n=d5 v=0
93184 On ch=1 n=d6 v=65
93184 On ch=1 n=d7 v=77
93184 On ch=1 n=c2 v=64
93184 On ch=1 n=c3 v=76
93320 Par ch=1 c=64 v=0
93320 Par ch=1 c=64 v=0
93475 Par ch=1 c=64 v=127
93475 Par ch=1 c=64 v=127
93550 Par ch=1 c=64 v=0
93696 On ch=1 n=a6 v=74
94037 Off ch=1 n=c2 v=0
94037 Off ch=1 n=c3 v=0
94094 Par ch=1 c=64 v=127
94208 Off ch=1 n=d6 v=0
94208 Off ch=1 n=a6 v=0
94208 Off ch=1 n=d7 v=0
94208 On ch=1 n=c6 v=60
94208 On ch=1 n=c7 v=72
94251 On ch=1 n=g3 v=55
94251 On ch=1 n=f4 v=55
94251 On ch=1 n=g4 v=67
94720 Off ch=1 n=c6 v=0
94720 Off ch=1 n=c7 v=0
94720 On ch=1 n=g6 v=69
95104 Off ch=1 n=g3 v=0
95104 Off ch=1 n=f4 v=0
95104 Off ch=1 n=g4 v=0
95104 On ch=1 n=g4 v=55
95104 On ch=1 n=f5 v=55
95104 On ch=1 n=g5 v=67
95232 Off ch=1 n=g6 v=0
95232 On ch=1 n=d6 v=67
95744 Par ch=1 c=64 v=127
95744 Par ch=1 c=64 v=127
95744 Off ch=1 n=d6 v=0
95744 Off ch=1 n=g4 v=0
95744 Off ch=1 n=f5 v=0
95744 Off ch=1 n=g5 v=0
95744 On ch=1 n=d6 v=61
95744 On ch=1 n=d7 v=74
96256 Off ch=1 n=d6 v=0
96256 Off ch=1 n=d7 v=0
96256 On ch=1 n=e6 v=64
96256 On ch=1 n=e7 v=77
96768 Off ch=1 n=e6 v=0
96768 Off ch=1 n=e7 v=0
96768 On ch=1 n=a6 v=66
96768 On ch=1 n=a7 v=79
97280 Off ch=1 n=a6 v=0
97280 Off ch=1 n=a7 v=0
97280 On ch=1 n=g6 v=61
97280 On ch=1 n=g7 v=74
97792 Off ch=1 n=g6 v=0
97792 Off ch=1 n=g7 v=0
97792 On ch=1 n=e6 v=56
97792 On ch=1 n=e7 v=69
98304 Par ch=1 c=64 v=0
98304 Par ch=1 c=64 v=127
98304 Par ch=1 c=64 v=0
98304 Off ch=1 n=e6 v=0
98304 Off ch=1 n=e7 v=0
98304 On ch=1 n=d6 v=60
98304 On ch=1 n=d7 v=72
98304 On ch=1 n=c2 v=61
98304 On ch=1 n=c3 v=73
98446 Par ch=1 c=64 v=0
98603 Par ch=1 c=64 v=127
98816 Off ch=1 n=d6 v=0
98816 Off ch=1 n=d7 v=0
98816 On ch=1 n=a6 v=69
99015 Par ch=1 c=64 v=127
99157 Off ch=1 n=c2 v=0
99157 Off ch=1 n=c3 v=0
99328 Off ch=1 n=a6 v=0
99328 On ch=1 n=c6 v=55
99328 On ch=1 n=c7 v=67
99371 On ch=1 n=g3 v=52
99371 On ch=1 n=f4 v=52
99371 On ch=1 n=g4 v=64
99840 Off ch=1 n=c6 v=0
99840 Off ch=1 n=c7 v=0
99840 On ch=1 n=g6 v=64
100224 Off ch=1 n=g3 v=0
100224 Off ch=1 n=f4 v=0
100224 Off ch=1 n=g4 v=0
100224 On ch=1 n=g4 v=52
100224 On ch=1 n=f5 v=52
100224 On ch=1 n=g5 v=64
100352 Off ch=1 n=g6 v=0
100352 On ch=1 n=d6 v=62
100864 Par ch=1 c=64 v=0
100864 Par ch=1 c=64 v=127
100864 Par ch=1 c=64 v=0
100864 Off ch=1 n=d6 v=0
100864 Off ch=1 n=g4 v=0
100864 Off ch=1 n=f5 v=0
100864 Off ch=1 n=g5 v=0
100864 On ch=1 n=d6 v=60
100864 On ch=1 n=d7 v=72
100864 On ch=1 n=c2 v=61
100864 On ch=1 n=c3 v=73
101006 Par ch=1 c=64 v=0
101163 Par ch=1 c=64 v=127
101230 Par ch=1 c=64 v=0
101376 Off ch=1 n=d6 v=0
101376 Off ch=1 n=d7 v=0
101376 On ch=1 n=a6 v=69
101575 Par ch=1 c=64 v=127
101717 Off ch=1 n=c2 v=0
101717 Off ch=1 n=c3 v=0
101774 Par ch=1 c=64 v=127
101888 Off ch=1 n=a6 v=0
101888 On ch=1 n=c6 v=55
101888 On ch=1 n=c7 v=67
101931 On ch=1 n=g3 v=52
101931 On ch=1 n=e4 v=52
101931 On ch=1 n=g4 v=64
102400 Off ch=1 n=c6 v=0
102400 Off ch=1 n=c7 v=0
102400 On ch=1 n=g6 v=64
102784 Off ch=1 n=g3 v=0
102784 Off ch=1 n=e4 v=0
102784 Off ch=1 n=g4 v=0
102784 On ch=1 n=g4 v=52
102784 On ch=1 n=e5 v=52
102784 On ch=1 n=g5 v=64
102912 Off ch=1 n=g6 v=0
102912 On ch=1 n=c6 v=62
103424 Par ch=1 c=64 v=127
103424 Par ch=1 c=64 v=127
103424 Off ch=1 n=c6 v=0
103424 Off ch=1 n=g4 v=0
103424 Off ch=1 n=e5 v=0
103424 Off ch=1 n=g5 v=0
103424 On ch=1 n=d5 v=62
103424 On ch=1 n=d6 v=74
103424 On ch=1 n=c2 v=61
103424 On ch=1 n=c3 v=73
103790 Par ch=1 c=64 v=0
103936 Off ch=1 n=d5 v=0
103936 Off ch=1 n=d6 v=0
103936 On ch=1 n=a5 v=71
104277 Off ch=1 n=c2 v=0
104277 Off ch=1 n=c3 v=0
104334 Par ch=1 c=64 v=127
104448 Off ch=1 n=a5 v=0
104448 On ch=1 n=c5 v=57
104448 On ch=1 n=c6 v=69
104491 On ch=1 n=f4 v=52
104491 On ch=1 n=g4 v=64
104960 Off ch=1 n=c5 v=0
104960 Off ch=1 n=c6 v=0
104960 On ch=1 n=g5 v=66
105344 Off ch=1 n=f4 v=0
105344 Off ch=1 n=g4 v=0
105344 On ch=1 n=g3 v=64
105472 Off ch=1 n=g5 v=0
105472 On ch=1 n=d5 v=64
105984 Par ch=1 c=64 v=127
105984 Par ch=1 c=64 v=127
105984 Off ch=1 n=d5 v=0
105984 Off ch=1 n=g3 v=0
105984 On ch=1 n=d5 v=58
105984 On ch=1 n=d6 v=71
106496 Off ch=1 n=d5 v=0
106496 Off ch=1 n=d6 v=0
106496 On ch=1 n=e5 v=61
106496 On ch=1 n=e6 v=74
107008 Off ch=1 n=e5 v=0
107008 Off ch=1 n=e6 v=0
107008 On ch=1 n=a5 v=63
107008 On ch=1 n=a6 v=76
107520 Off ch=1 n=a5 v=0
107520 Off ch=1 n=a6 v=0
107520 On ch=1 n=g5 v=58
107520 On ch=1 n=g6 v=71
108032 Off ch=1 n=g5 v=0
108032 Off ch=1 n=g6 v=0
108032 On ch=1 n=e5 v=53
108032 On ch=1 n=e6 v=66
108544 Par ch=1 c=64 v=0
108544 Par ch=1 c=64 v=127
108544 Par ch=1 c=64 v=0
108544 Off ch=1 n=e5 v=0
108544 Off ch=1 n=e6 v=0
108544 On ch=1 n=d5 v=57
108544 On ch=1 n=d6 v=69
108544 On ch=1 n=c2 v=52
108544 On ch=1 n=c3 v=64
108686 Par ch=1 c=64 v=0
108843 Par ch=1 c=64 v=127
109056 Off ch=1 n=d5 v=0
109056 Off ch=1 n=d6 v=0
109056 On ch=1 n=a5 v=66
109255 Par ch=1 c=64 v=127
109397 Off ch=1 n=c2 v=0
109397 Off ch=1 n=c3 v=0
109397 On ch=1 n=f4 v=43
109397 On ch=1 n=g4 v=55
109568 Off ch=1 n=a5 v=0
109568 On ch=1 n=c5 v=52
109568 On ch=1 n=c6 v=64
110080 Off ch=1 n=c5 v=0
110080 Off ch=1 n=c6 v=0
110080 On ch=1 n=g5 v=61
110251 Off ch=1 n=f4 v=0
110251 Off ch=1 n=g4 v=0
110251 On ch=1 n=g3 v=55
110592 Off ch=1 n=g5 v=0
110592 On ch=1 n=d5 v=59
111104 Par ch=1 c=64 v=0
111104 Par ch=1 c=64 v=127
111104 Par ch=1 c=64 v=0
111104 Off ch=1 n=d5 v=0
111104 Off ch=1 n=g3 v=0
111104 On ch=1 n=d5 v=57
111104 On ch=1 n=d6 v=69
111104 On ch=1 n=c2 v=52
111104 On ch=1 n=c3 v=64
111246 Par ch=1 c=64 v=0
111403 Par ch=1 c=64 v=127
111470 Par ch=1 c=64 v=0
111616 Off ch=1 n=d5 v=0
111616 Off ch=1 n=d6 v=0
111616 On ch=1 n=a5 v=66
111815 Par ch=1 c=64 v=127
111957 Off ch=1 n=c2 v=0
111957 Off ch=1 n=c3 v=0
111957 On ch=1 n=e4 v=43
111957 On ch=1 n=g4 v=55
112014 Par ch=1 c=64 v=127
112128 Off ch=1 n=a5 v=0
112128 On ch=1 n=c5 v=52
112128 On ch=1 n=c6 v=64
112640 Off ch=1 n=c5 v=0
112640 Off ch=1 n=c6 v=0
112640 On ch=1 n=g5 v=61
112811 Off ch=1 n=e4 v=0
112811 Off ch=1 n=g4 v=0
112811 On ch=1 n=g3 v=55
113152 Off ch=1 n=g5 v=0
113152 On ch=1 n=c5 v=59
113664 Par ch=1 c=64 v=0
113664 Par ch=1 c=64 v=127
113664 Par ch=1 c=64 v=0
113664 Off ch=1 n=c5 v=0
113664 Off ch=1 n=g3 v=0
113664 On ch=1 n=d5 v=66
113664 On ch=1 n=f4 v=60
113806 Par ch=1 c=64 v=0
113963 Par ch=1 c=64 v=127
114030 Par ch=1 c=64 v=0
114176 Off ch=1 n=d5 v=0
114176 On ch=1 n=a4 v=62
114375 Par ch=1 c=64 v=127
114517 Off ch=1 n=f4 v=0
114517 On ch=1 n=g3 v=55
114574 Par ch=1 c=64 v=127
114688 Off ch=1 n=a4 v=0
114688 On ch=1 n=c5 v=61
115200 Off ch=1 n=c5 v=0
115200 On ch=1 n=g4 v=61
115371 Off ch=1 n=g3 v=0
115371 On ch=1 n=c3 v=50
115712 Off ch=1 n=g4 v=0
115712 On ch=1 n=d4 v=59
116224 Par ch=1 c=64 v=0
116224 Par ch=1 c=64 v=127
116224 Par ch=1 c=64 v=0
116224 Off ch=1 n=d4 v=0
116224 On ch=1 n=d5 v=66
116224 On ch=1 n=e4 v=60
116366 Par ch=1 c=64 v=0
116523 Par ch=1 c=64 v=127
116590 Par ch=1 c=64 v=0
116736 Off ch=1 n=d5 v=0
116736 On ch=1 n=a4 v=62
116935 Par ch=1 c=64 v=127
117077 Off ch=1 n=c3 v=0
117077 Off ch=1 n=e4 v=0
117077 On ch=1 n=g3 v=55
117134 Par ch=1 c=64 v=127
117248 Off ch=1 n=a4 v=0
117248 On ch=1 n=c5 v=61
117760 Off ch=1 n=c5 v=0
117760 On ch=1 n=g4 v=61
117931 Off ch=1 n=g3 v=0
117931 On ch=1 n=c3 v=50
118272 Off ch=1 n=g4 v=0
118272 On ch=1 n=d4 v=59
118784 Par ch=1 c=64 v=0
118784 Par ch=1 c=64 v=127
118784 Par ch=1 c=64 v=0
118784 Off ch=1 n=d4 v=0
118784 On ch=1 n=d5 v=66
118784 On ch=1 n=e4 v=60
118926 Par ch=1 c=64 v=0
119083 Par ch=1 c=64 v=127
119150 Par ch=1 c=64 v=0
119296 Off ch=1 n=d5 v=0
119296 On ch=1 n=a4 v=63
119495 Par ch=1 c=64 v=127
119637 Off ch=1 n=c3 v=0
119637 Off ch=1 n=e4 v=0
119637 On ch=1 n=g3 v=56
119694 Par ch=1 c=64 v=127
119808 Off ch=1 n=a4 v=0
119808 On ch=1 n=c5 v=63
120320 Off ch=1 n=c5 v=0
120320 On ch=1 n=g4 v=64
120491 Off ch=1 n=g3 v=0
120491 On ch=1 n=c3 v=52
120832 Off ch=1 n=g4 v=0
120832 On ch=1 n=d4 v=63
121344 Par ch=1 c=64 v=0
121344 Par ch=1 c=64 v=127
121344 Par ch=1 c=64 v=0
121344 Off ch=1 n=d4 v=0
121344 On ch=1 n=d5 v=71
121344 On ch=1 n=e4 v=64
121486 Par ch=1 c=64 v=0
121643 Par ch=1 c=64 v=127
121710 Par ch=1 c=64 v=0
121856 Off ch=1 n=d5 v=0
121856 On ch=1 n=a4 v=68
122055 Par ch=1 c=64 v=127
122197 Off ch=1 n=c3 v=0
122197 Off ch=1 n=e4 v=0
122197 On ch=1 n=g3 v=59
122254 Par ch=1 c=64 v=127
122368 Off ch=1 n=a4 v=0
122368 On ch=1 n=c5 v=68
122880 Off ch=1 n=c5 v=0
122880 On ch=1 n=g4 v=69
123051 Off ch=1 n=g3 v=0
123051 On ch=1 n=c3 v=55
123392 Off ch=1 n=g4 v=0
123392 On ch=1 n=d4 v=68
123904 Par ch=1 c=64 v=0
123904 Par ch=1 c=64 v=127
123904 Par ch=1 c=64 v=0
123904 Off ch=1 n=d4 v=0
123904 On ch=1 n=g2 v=58
123904 On ch=1 n=g3 v=71
124046 Par ch=1 c=64 v=0
124109 Par ch=1 c=64 v=0
124270 Par ch=1 c=64 v=0
124814 Par ch=1 c=64 v=127
124928 Off ch=1 n=g2 v=0
124928 Off ch=1 n=c3 v=0
124928 Off ch=1 n=g3 v=0
124928 On ch=1 n=c2 v=58
124928 On ch=1 n=c3 v=72
125577 Par ch=1 c=64 v=127
125952 Off ch=1 n=c2 v=0
125952 Off ch=1 n=c3 v=0
126464 Par ch=1 c=64 v=127
126464 Par ch=1 c=64 v=127
126464 On ch=1 n=c6 v=65
126464 On ch=1 n=e6 v=65
126464 On ch=1 n=g6 v=65
126464 On ch=1 n=c7 v=81
126464 On ch=1 n=c2 v=43
126464 On ch=1 n=c3 v=55
126464 On ch=1 n=e4 v=55
126464 On ch=1 n=g4 v=55
126464 On ch=1 n=c5 v=55
126464 On ch=1 n=e5 v=55
129024 Par ch=1 c=64 v=0
129024 Par ch=1 c=64 v=0
129536 Off ch=1 n=c6 v=0
129536 Off ch=1 n=e6 v=0
129536 Off ch=1 n=g6 v=0
129536 Off ch=1 n=c7 v=0
129536 Off ch=1 n=c2 v=0
129536 Off ch=1 n=c3 v=0
129536 Off ch=1 n=e4 v=0
129536 Off ch=1 n=g4 v=0
129536 Off ch=1 n=c5 v=0
129536 Off ch=1 n=e5 v=0
131584 Par ch=1 c=64 v=0
131584 Par ch=1 c=64 v=127
131584 Par ch=1 c=64 v=0
131726 Par ch=1 c=64 v=0
131883 Par ch=1 c=64 v=127
132295 Par ch=1 c=64 v=127
134510 Par ch=1 c=64 v=0
135054 Par ch=1 c=64 v=127
135056 Meta TrkEnd
TrkEnd
