MFile 1 2 1024
MTrk
0 TimeSig 1/4 24 8
0 KeySig 3 major
0 Tempo 434782
1024 TimeSig 3/4 72 8
1024 Tempo 428571
1280 Tempo 375000
1536 Tempo 315789
2048 Tempo 428571
2304 Tempo 315789
3328 Tempo 315789
4096 Tempo 428571
4352 Tempo 315789
5120 Tempo 428571
5376 Tempo 315789
6144 Tempo 428571
6400 Tempo 375000
6912 Tempo 500000
7168 Tempo 352941
7680 Tempo 315789
8192 Tempo 428571
8448 Tempo 315789
9472 Tempo 315789
10240 Tempo 400000
10496 Tempo 315789
11520 Tempo 315789
12544 Tempo 375000
12800 Tempo 400000
13056 Tempo 500000
13312 Tempo 428571
13568 Tempo 315789
15360 Tempo 375000
16384 Tempo 428571
16640 Tempo 315789
17408 Tempo 428571
17664 Tempo 315789
18432 Tempo 400000
18688 Tempo 352941
19200 Tempo 400000
19456 Tempo 461538
19712 Tempo 352941
20480 Tempo 500000
20736 Tempo 375000
22016 Tempo 461538
22528 Tempo 500000
23040 Tempo 545454
24064 Tempo 500000
24576 Tempo 461538
25600 Tempo 428571
25856 Tempo 375000
26624 Tempo 428571
26880 Tempo 375000
27904 Tempo 352941
28672 Tempo 428571
28928 Tempo 333333
29440 Tempo 315789
29696 Tempo 428571
29952 Tempo 315789
30720 Tempo 428571
30976 Tempo 375000
31488 Tempo 500000
31744 Tempo 352941
32256 Tempo 315789
32768 Tempo 428571
33024 Tempo 315789
34048 Tempo 315789
34816 Tempo 400000
35072 Tempo 315789
36096 Tempo 315789
37120 Tempo 375000
37376 Tempo 400000
37632 Tempo 500000
37888 Tempo 428571
38144 Tempo 315789
39936 Tempo 375000
40960 Tempo 428571
41216 Tempo 315789
41984 Tempo 428571
42240 Tempo 315789
43008 Tempo 400000
43264 Tempo 352941
43776 Tempo 400000
44032 Tempo 461538
44288 Tempo 352941
45056 Tempo 500000
45312 Tempo 375000
46592 Tempo 461538
47104 Tempo 461538
47616 Tempo 500000
48128 Tempo 545454
49152 Tempo 666666
50176 Tempo 428571
50432 Tempo 400000
50688 Tempo 375000
50944 Tempo 352941
51200 Tempo 375000
51456 Tempo 333333
52224 Tempo 352941
53248 Tempo 400000
53504 Tempo 375000
56320 Tempo 428571
56576 Tempo 400000
56832 Tempo 375000
57088 Tempo 352941
57344 Tempo 375000
57600 Tempo 333333
58368 Tempo 400000
58624 Tempo 352941
59392 Tempo 461538
59648 Tempo 400000
60160 Tempo 375000
60928 Tempo 428571
61440 Tempo 500000
62208 Tempo 545454
62464 Tempo 500000
62720 Tempo 428571
62976 Tempo 375000
63488 Tempo 428571
64256 Tempo 500000
64512 Tempo 600000
65536 Tempo 428571
65792 Tempo 375000
66048 Tempo 315789
66560 Tempo 428571
66816 Tempo 315789
67840 Tempo 315789
68608 Tempo 428571
68864 Tempo 315789
69632 Tempo 428571
69888 Tempo 315789
70656 Tempo 428571
70912 Tempo 375000
71424 Tempo 500000
71680 Tempo 352941
72192 Tempo 315789
72704 Tempo 428571
72960 Tempo 315789
73984 Tempo 315789
74752 Tempo 400000
75008 Tempo 315789
76032 Tempo 315789
77056 Tempo 375000
77312 Tempo 400000
77568 Tempo 500000
77824 Tempo 428571
78080 Tempo 315789
79872 Tempo 375000
80896 Tempo 428571
81152 Tempo 315789
81920 Tempo 428571
82176 Tempo 315789
82944 Tempo 400000
83200 Tempo 352941
83712 Tempo 400000
83968 Tempo 461538
84224 Tempo 352941
84992 Tempo 500000
85248 Tempo 375000
86272 Tempo 352941
86784 Tempo 500000
87040 Tempo 500000
87296 Tempo 352941
88064 Tempo 428571
88320 Tempo 352941
89088 Tempo 375000
90112 Tempo 461538
90368 Tempo 375000
90880 Tempo 400000
93184 Tempo 500000
93440 Tempo 428571
94208 Tempo 500000
94720 Tempo 461538
96256 Tempo 500000
96512 Tempo 428571
97280 Tempo 500000
97792 Tempo 461538
99328 Tempo 600000
99584 Tempo 500000
100352 Tempo 600000
100864 Tempo 666666
101376 Tempo 750000
101888 Tempo 3000000
102400 Tempo 545454
102656 Tempo 400000
103168 Tempo 500000
103424 Tempo 461538
104448 Tempo 500000
105472 Tempo 600000
106496 Tempo 1200000
108544 Tempo 315789
111617 Meta TrkEnd
TrkEnd
MTrk
0 Meta TrkName "Instrument  1"
0 PrCh ch=1 p=1
0 Par ch=1 c=67 v=0
0 Par ch=1 c=64 v=0
0 Par ch=1 c=67 v=0
0 Par ch=1 c=64 v=0
1024 Par ch=1 c=67 v=0
1024 Par ch=1 c=64 v=0
1024 Par ch=1 c=67 v=0
1024 On ch=1 n=e6 v=27
1024 On ch=1 n=c#6 v=30
1179 Par ch=1 c=64 v=127
1280 Off ch=1 n=e6 v=0
1280 On ch=1 n=f6 v=28
1536 On ch=1 n=f#6 v=26
1536 On ch=1 n=c#5 v=28
1626 Off ch=1 n=f6 v=0
1792 On ch=1 n=a6 v=30
1877 Par ch=1 c=64 v=127
1882 Off ch=1 n=f#6 v=0
2048 On ch=1 n=g#6 v=30
2048 Off ch=1 n=c#5 v=0
2048 On ch=1 n=b4 v=27
2138 Off ch=1 n=a6 v=0
2304 On ch=1 n=b5 v=27
2560 Par ch=1 c=64 v=0
2560 Off ch=1 n=g#6 v=0
2560 On ch=1 n=c6 v=26
2560 Off ch=1 n=c#6 v=0
2560 On ch=1 n=f5 v=25
2650 Off ch=1 n=b5 v=0
2756 Par ch=1 c=64 v=127
2816 On ch=1 n=c#6 v=31
2906 Off ch=1 n=c6 v=0
3072 On ch=1 n=e6 v=33
3072 Off ch=1 n=b4 v=0
3072 On ch=1 n=g#4 v=24
3162 Off ch=1 n=c#6 v=0
3328 On ch=1 n=d6 v=31
3418 Off ch=1 n=e6 v=0
3584 On ch=1 n=c#6 v=27
3584 On ch=1 n=c#4 v=22
3674 Off ch=1 n=d6 v=0
3840 On ch=1 n=b5 v=28
3930 Off ch=1 n=c#6 v=0
4096 Par ch=1 c=67 v=0
4096 Par ch=1 c=64 v=127
4096 Par ch=1 c=67 v=0
4096 Off ch=1 n=c#4 v=0
4096 Off ch=1 n=g#4 v=0
4096 Off ch=1 n=f5 v=0
4096 On ch=1 n=a5 v=28
4096 On ch=1 n=f#5 v=30
4158 Par ch=1 c=64 v=127
4186 Off ch=1 n=b5 v=0
4220 Par ch=1 c=64 v=0
4352 On ch=1 n=b5 v=28
4360 Par ch=1 c=64 v=127
4608 Off ch=1 n=a5 v=0
4608 On ch=1 n=c#6 v=30
4608 On ch=1 n=a4 v=28
4698 Off ch=1 n=b5 v=0
4864 On ch=1 n=d6 v=34
4949 Par ch=1 c=64 v=127
4954 Off ch=1 n=c#6 v=0
5120 On ch=1 n=f#6 v=36
5120 Off ch=1 n=f#5 v=0
5120 On ch=1 n=c#4 v=27
5210 Off ch=1 n=d6 v=0
5376 On ch=1 n=c#6 v=31
5617 Par ch=1 c=64 v=0
5632 Off ch=1 n=f#6 v=0
5632 On ch=1 n=d#6 v=30
5632 Off ch=1 n=c#4 v=0
5632 Off ch=1 n=a4 v=0
5632 On ch=1 n=c#6 v=25
5722 Off ch=1 n=c#6 v=0
5813 Par ch=1 c=64 v=127
5888 On ch=1 n=f6 v=35
5978 Off ch=1 n=d#6 v=0
6144 On ch=1 n=f#6 v=36
6144 On ch=1 n=f#5 v=24
6234 Off ch=1 n=f6 v=0
6400 On ch=1 n=g#6 v=38
6656 Off ch=1 n=f#6 v=0
6656 On ch=1 n=b6 v=38
6656 Off ch=1 n=c#6 v=0
6656 On ch=1 n=a4 v=22
6746 Off ch=1 n=g#6 v=0
6912 On ch=1 n=a6 v=34
7002 Off ch=1 n=b6 v=0
7168 Par ch=1 c=67 v=0
7168 Par ch=1 c=64 v=127
7168 Par ch=1 c=64 v=0
7168 Par ch=1 c=67 v=0
7168 Off ch=1 n=a4 v=0
7168 Off ch=1 n=f#5 v=0
7168 On ch=1 n=e6 v=27
7168 On ch=1 n=c#6 v=30
7230 Par ch=1 c=64 v=127
7258 Off ch=1 n=a6 v=0
7292 Par ch=1 c=64 v=0
7424 Off ch=1 n=e6 v=0
7424 On ch=1 n=f6 v=28
7432 Par ch=1 c=64 v=127
7680 On ch=1 n=f#6 v=26
7680 On ch=1 n=c#5 v=28
7770 Off ch=1 n=f6 v=0
7936 On ch=1 n=a6 v=30
8021 Par ch=1 c=64 v=127
8026 Off ch=1 n=f#6 v=0
8192 On ch=1 n=g#6 v=30
8192 Off ch=1 n=c#5 v=0
8192 On ch=1 n=b4 v=27
8282 Off ch=1 n=a6 v=0
8448 On ch=1 n=b5 v=27
8704 Off ch=1 n=g#6 v=0
8704 On ch=1 n=c6 v=26
8704 Off ch=1 n=c#6 v=0
8704 On ch=1 n=f5 v=25
8719 Par ch=1 c=64 v=0
8794 Off ch=1 n=b5 v=0
8930 Par ch=1 c=64 v=127
8960 On ch=1 n=c#6 v=31
9050 Off ch=1 n=c6 v=0
9216 On ch=1 n=e6 v=33
9216 Off ch=1 n=b4 v=0
9216 On ch=1 n=g#4 v=24
9306 Off ch=1 n=c#6 v=0
9472 On ch=1 n=d6 v=31
9728 Off ch=1 n=e6 v=0
9728 On ch=1 n=c#6 v=27
9728 On ch=1 n=c#4 v=22
9818 Off ch=1 n=d6 v=0
9984 On ch=1 n=b5 v=28
10074 Off ch=1 n=c#6 v=0
10240 Par ch=1 c=67 v=0
10240 Par ch=1 c=64 v=127
10240 Par ch=1 c=64 v=0
10240 Par ch=1 c=64 v=0
10240 Par ch=1 c=67 v=0
10240 Off ch=1 n=c#4 v=0
10240 Off ch=1 n=g#4 v=0
10240 Off ch=1 n=f5 v=0
10240 On ch=1 n=a5 v=28
10240 On ch=1 n=f#5 v=30
10302 Par ch=1 c=64 v=127
10330 Off ch=1 n=b5 v=0
10364 Par ch=1 c=64 v=0
10496 On ch=1 n=b5 v=28
10504 Par ch=1 c=64 v=127
10752 Off ch=1 n=a5 v=0
10752 On ch=1 n=c#6 v=30
10752 On ch=1 n=a4 v=28
10842 Off ch=1 n=b5 v=0
11008 On ch=1 n=d6 v=34
11093 Par ch=1 c=64 v=127
11098 Off ch=1 n=c#6 v=0
11264 On ch=1 n=f#6 v=36
11264 Off ch=1 n=f#5 v=0
11264 On ch=1 n=c#4 v=27
11354 Off ch=1 n=d6 v=0
11520 On ch=1 n=c#6 v=31
11776 Off ch=1 n=f#6 v=0
11776 On ch=1 n=d#6 v=30
11776 Off ch=1 n=c#4 v=0
11776 Off ch=1 n=a4 v=0
11776 On ch=1 n=c#6 v=25
11821 Par ch=1 c=64 v=0
11866 Off ch=1 n=c#6 v=0
12002 Par ch=1 c=64 v=127
12032 On ch=1 n=f6 v=35
12122 Off ch=1 n=d#6 v=0
12288 On ch=1 n=f#6 v=36
12288 On ch=1 n=f#5 v=24
12378 Off ch=1 n=f6 v=0
12544 On ch=1 n=g#6 v=38
12800 Off ch=1 n=f#6 v=0
12800 On ch=1 n=b6 v=38
12800 Off ch=1 n=c#6 v=0
12800 On ch=1 n=a4 v=22
12890 Off ch=1 n=g#6 v=0
13056 On ch=1 n=a6 v=34
13146 Off ch=1 n=b6 v=0
13312 Par ch=1 c=67 v=0
13312 Par ch=1 c=64 v=127
13312 Par ch=1 c=64 v=0
13312 Par ch=1 c=64 v=0
13312 Par ch=1 c=64 v=0
13312 Par ch=1 c=67 v=0
13312 Off ch=1 n=a4 v=0
13312 Off ch=1 n=f#5 v=0
13312 On ch=1 n=e6 v=25
13312 On ch=1 n=b5 v=24
13374 Par ch=1 c=64 v=127
13402 Off ch=1 n=a6 v=0
13436 Par ch=1 c=64 v=0
13568 Off ch=1 n=e6 v=0
13568 On ch=1 n=f6 v=30
13576 Par ch=1 c=64 v=127
13824 On ch=1 n=f#6 v=24
13824 On ch=1 n=f#5 v=24
13914 Off ch=1 n=f6 v=0
14080 On ch=1 n=a6 v=27
14165 Par ch=1 c=64 v=127
14170 Off ch=1 n=f#6 v=0
14336 On ch=1 n=g#6 v=36
14336 Off ch=1 n=b5 v=0
14336 On ch=1 n=g#4 v=24
14426 Off ch=1 n=a6 v=0
14592 On ch=1 n=b5 v=23
14848 Off ch=1 n=g#6 v=0
14848 On ch=1 n=c#6 v=31
14848 Off ch=1 n=g#4 v=0
14848 Off ch=1 n=f#5 v=0
14848 On ch=1 n=f#5 v=24
14878 Par ch=1 c=64 v=0
14938 Off ch=1 n=b5 v=0
15029 Par ch=1 c=64 v=127
15104 On ch=1 n=d6 v=28
15194 Off ch=1 n=c#6 v=0
15360 On ch=1 n=f#6 v=32
15360 On ch=1 n=g#4 v=24
15450 Off ch=1 n=d6 v=0
15616 On ch=1 n=f#5 v=33
15872 Off ch=1 n=f#6 v=0
15872 On ch=1 n=e6 v=27
15872 Off ch=1 n=f#5 v=0
15872 On ch=1 n=b3 v=24
15962 Off ch=1 n=f#5 v=0
16128 On ch=1 n=d6 v=20
16218 Off ch=1 n=e6 v=0
16384 Par ch=1 c=67 v=0
16384 Par ch=1 c=64 v=127
16384 Par ch=1 c=64 v=0
16384 Par ch=1 c=64 v=0
16384 Par ch=1 c=64 v=0
16384 Par ch=1 c=67 v=0
16384 Off ch=1 n=b3 v=0
16384 Off ch=1 n=g#4 v=0
16384 On ch=1 n=c6 v=31
16384 On ch=1 n=a5 v=24
16446 Par ch=1 c=64 v=127
16474 Off ch=1 n=d6 v=0
16508 Par ch=1 c=64 v=0
16640 On ch=1 n=c#6 v=30
16648 Par ch=1 c=64 v=127
16896 Off ch=1 n=c6 v=0
16896 On ch=1 n=d6 v=35
16896 On ch=1 n=f#5 v=24
16986 Off ch=1 n=c#6 v=0
17152 On ch=1 n=f#6 v=38
17237 Par ch=1 c=64 v=127
17242 Off ch=1 n=d6 v=0
17408 On ch=1 n=e6 v=36
17408 Off ch=1 n=a5 v=0
17408 On ch=1 n=a4 v=24
17498 Off ch=1 n=f#6 v=0
17664 On ch=1 n=f#5 v=32
17920 Off ch=1 n=e6 v=0
17920 On ch=1 n=g#5 v=33
17920 Off ch=1 n=a4 v=0
17920 Off ch=1 n=f#5 v=0
17920 On ch=1 n=f#5 v=24
17965 Par ch=1 c=64 v=0
18010 Off ch=1 n=f#5 v=0
18131 Par ch=1 c=64 v=127
18176 On ch=1 n=a5 v=34
18266 Off ch=1 n=g#5 v=0
18432 On ch=1 n=d6 v=36
18432 On ch=1 n=a4 v=24
18522 Off ch=1 n=a5 v=0
18688 On ch=1 n=a5 v=32
18944 Off ch=1 n=d6 v=0
18944 On ch=1 n=c#6 v=35
18944 Off ch=1 n=f#5 v=0
18944 On ch=1 n=c#4 v=24
19034 Off ch=1 n=a5 v=0
19200 On ch=1 n=b5 v=28
19290 Off ch=1 n=c#6 v=0
19456 Par ch=1 c=67 v=0
19456 Par ch=1 c=64 v=127
19456 Par ch=1 c=64 v=0
19456 Par ch=1 c=64 v=0
19456 Par ch=1 c=64 v=0
19456 Par ch=1 c=67 v=0
19456 Off ch=1 n=b5 v=0
19456 Off ch=1 n=c#4 v=0
19456 Off ch=1 n=a4 v=0
19456 On ch=1 n=b5 v=31
19456 On ch=1 n=f#5 v=24
19518 Par ch=1 c=64 v=127
19580 Par ch=1 c=64 v=0
19712 On ch=1 n=c#6 v=34
19720 Par ch=1 c=64 v=127
19968 Off ch=1 n=b5 v=0
19968 Off ch=1 n=c#6 v=0
19968 On ch=1 n=d6 v=32
19968 On ch=1 n=g#4 v=24
20224 Off ch=1 n=d6 v=0
20224 On ch=1 n=a6 v=39
20309 Par ch=1 c=64 v=127
20480 Par ch=1 c=64 v=0
20480 Off ch=1 n=a6 v=0
20480 On ch=1 n=g#6 v=43
20480 Off ch=1 n=f#5 v=0
20480 On ch=1 n=c#4 v=24
20736 On ch=1 n=d6 v=29
20992 Off ch=1 n=g#6 v=0
20992 On ch=1 n=f#6 v=42
20992 Off ch=1 n=c#4 v=0
20992 Off ch=1 n=g#4 v=0
20992 On ch=1 n=g#4 v=24
21248 Off ch=1 n=d6 v=0
21248 On ch=1 n=c#6 v=28
21504 Off ch=1 n=f#6 v=0
21504 On ch=1 n=e6 v=37
21504 On ch=1 n=f#5 v=24
21760 Off ch=1 n=c#6 v=0
21760 On ch=1 n=b5 v=30
22016 Off ch=1 n=e6 v=0
22016 On ch=1 n=d6 v=32
22016 Off ch=1 n=g#4 v=0
22016 On ch=1 n=b4 v=24
22272 Off ch=1 n=b5 v=0
22272 On ch=1 n=a5 v=24
22528 Par ch=1 c=67 v=0
22528 Par ch=1 c=64 v=127
22528 Par ch=1 c=64 v=0
22528 Par ch=1 c=64 v=0
22528 Par ch=1 c=64 v=0
22528 Par ch=1 c=67 v=0
22528 Off ch=1 n=d6 v=0
22528 Off ch=1 n=b4 v=0
22528 Off ch=1 n=f#5 v=0
22528 On ch=1 n=c#6 v=32
22528 On ch=1 n=f5 v=24
22590 Par ch=1 c=64 v=127
22652 Par ch=1 c=64 v=0
22784 Off ch=1 n=a5 v=0
22784 Off ch=1 n=c#6 v=0
22784 On ch=1 n=g5 v=32
22792 Par ch=1 c=64 v=127
23040 Off ch=1 n=g5 v=0
23040 On ch=1 n=g#5 v=27
23040 On ch=1 n=b4 v=22
23296 Off ch=1 n=g#5 v=0
23296 On ch=1 n=d6 v=26
23381 Par ch=1 c=64 v=127
23552 Par ch=1 c=64 v=0
23552 Off ch=1 n=d6 v=0
23552 On ch=1 n=c#6 v=32
23552 Off ch=1 n=f5 v=0
23552 On ch=1 n=c#4 v=21
23676 Par ch=1 c=64 v=127
24064 Off ch=1 n=b4 v=0
24064 On ch=1 n=b4 v=19
24576 Off ch=1 n=c#6 v=0
24576 Off ch=1 n=b4 v=0
24576 On ch=1 n=f5 v=17
25088 On ch=1 n=c#6 v=15
25600 Par ch=1 c=67 v=0
25600 Par ch=1 c=64 v=0
25600 Par ch=1 c=67 v=0
25600 Off ch=1 n=c#4 v=0
25600 Off ch=1 n=f5 v=0
25600 Off ch=1 n=c#6 v=0
25600 On ch=1 n=e6 v=19
25600 On ch=1 n=c#6 v=21
25776 Off ch=1 n=e6 v=0
25856 On ch=1 n=f6 v=20
26032 Off ch=1 n=f6 v=0
26112 On ch=1 n=f#6 v=19
26112 On ch=1 n=c#5 v=20
26288 Off ch=1 n=f#6 v=0
26368 On ch=1 n=a6 v=22
26544 Off ch=1 n=a6 v=0
26624 On ch=1 n=g#6 v=23
26624 Off ch=1 n=c#5 v=0
26624 On ch=1 n=b4 v=20
26800 Off ch=1 n=g#6 v=0
26880 On ch=1 n=b5 v=21
27056 Off ch=1 n=b5 v=0
27136 On ch=1 n=c6 v=20
27136 Off ch=1 n=c#6 v=0
27136 On ch=1 n=f5 v=20
27312 Off ch=1 n=c6 v=0
27392 On ch=1 n=c#6 v=24
27568 Off ch=1 n=c#6 v=0
27648 On ch=1 n=e6 v=26
27648 Off ch=1 n=b4 v=0
27648 On ch=1 n=g#4 v=19
27824 Off ch=1 n=e6 v=0
27904 On ch=1 n=d6 v=25
28080 Off ch=1 n=d6 v=0
28160 On ch=1 n=c#6 v=22
28160 On ch=1 n=c#4 v=18
28336 Off ch=1 n=c#6 v=0
28416 On ch=1 n=b5 v=24
28592 Off ch=1 n=b5 v=0
28672 Par ch=1 c=67 v=0
28672 Par ch=1 c=64 v=0
28672 Par ch=1 c=67 v=0
28672 Off ch=1 n=c#4 v=0
28672 Off ch=1 n=g#4 v=0
28672 Off ch=1 n=f5 v=0
28672 On ch=1 n=a5 v=24
28672 On ch=1 n=f#5 v=26
28848 Off ch=1 n=a5 v=0
28928 On ch=1 n=b5 v=24
29104 Off ch=1 n=b5 v=0
29184 On ch=1 n=c#6 v=26
29184 On ch=1 n=a4 v=25
29360 Off ch=1 n=c#6 v=0
29440 On ch=1 n=d6 v=30
29616 Off ch=1 n=d6 v=0
29696 On ch=1 n=f#6 v=32
29696 Off ch=1 n=f#5 v=0
29696 On ch=1 n=c#4 v=24
29872 Off ch=1 n=f#6 v=0
29952 On ch=1 n=c#6 v=28
30128 Off ch=1 n=c#6 v=0
30208 On ch=1 n=d#6 v=28
30208 Off ch=1 n=c#4 v=0
30208 Off ch=1 n=a4 v=0
30208 On ch=1 n=c#6 v=23
30384 Off ch=1 n=d#6 v=0
30464 On ch=1 n=f6 v=33
30640 Off ch=1 n=f6 v=0
30720 On ch=1 n=f#6 v=34
30720 On ch=1 n=f#5 v=23
30896 Off ch=1 n=f#6 v=0
30976 On ch=1 n=g#6 v=36
31152 Off ch=1 n=g#6 v=0
31232 On ch=1 n=b6 v=37
31232 Off ch=1 n=c#6 v=0
31232 On ch=1 n=a4 v=22
31408 Off ch=1 n=b6 v=0
31488 On ch=1 n=a6 v=34
31664 Off ch=1 n=a6 v=0
31744 Par ch=1 c=67 v=0
31744 Par ch=1 c=64 v=0
31744 Par ch=1 c=67 v=0
31744 Off ch=1 n=a4 v=0
31744 Off ch=1 n=f#5 v=0
31744 On ch=1 n=e6 v=27
31744 On ch=1 n=c#6 v=30
31920 Off ch=1 n=e6 v=0
32000 On ch=1 n=f6 v=28
32176 Off ch=1 n=f6 v=0
32256 On ch=1 n=f#6 v=26
32256 On ch=1 n=c#5 v=28
32432 Off ch=1 n=f#6 v=0
32512 On ch=1 n=a6 v=30
32688 Off ch=1 n=a6 v=0
32768 On ch=1 n=g#6 v=30
32768 Off ch=1 n=c#5 v=0
32768 On ch=1 n=b4 v=27
32944 Off ch=1 n=g#6 v=0
33024 On ch=1 n=b5 v=27
33200 Off ch=1 n=b5 v=0
33280 On ch=1 n=c6 v=26
33280 Off ch=1 n=c#6 v=0
33280 On ch=1 n=f5 v=25
33456 Off ch=1 n=c6 v=0
33536 On ch=1 n=c#6 v=31
33712 Off ch=1 n=c#6 v=0
33792 On ch=1 n=e6 v=33
33792 Off ch=1 n=b4 v=0
33792 On ch=1 n=g#4 v=24
33968 Off ch=1 n=e6 v=0
34048 On ch=1 n=d6 v=31
34224 Off ch=1 n=d6 v=0
34304 On ch=1 n=c#6 v=27
34304 On ch=1 n=c#4 v=22
34480 Off ch=1 n=c#6 v=0
34560 On ch=1 n=b5 v=28
34736 Off ch=1 n=b5 v=0
34816 Par ch=1 c=67 v=0
34816 Par ch=1 c=64 v=0
34816 Par ch=1 c=67 v=0
34816 Off ch=1 n=c#4 v=0
34816 Off ch=1 n=g#4 v=0
34816 Off ch=1 n=f5 v=0
34816 On ch=1 n=a5 v=28
34816 On ch=1 n=f#5 v=30
34992 Off ch=1 n=a5 v=0
35072 On ch=1 n=b5 v=28
35248 Off ch=1 n=b5 v=0
35328 On ch=1 n=c#6 v=30
35328 On ch=1 n=a4 v=28
35504 Off ch=1 n=c#6 v=0
35584 On ch=1 n=d6 v=34
35760 Off ch=1 n=d6 v=0
35840 On ch=1 n=f#6 v=36
35840 Off ch=1 n=f#5 v=0
35840 On ch=1 n=c#4 v=27
36016 Off ch=1 n=f#6 v=0
36096 On ch=1 n=c#6 v=31
36272 Off ch=1 n=c#6 v=0
36352 On ch=1 n=d#6 v=30
36352 Off ch=1 n=c#4 v=0
36352 Off ch=1 n=a4 v=0
36352 On ch=1 n=c#6 v=25
36528 Off ch=1 n=d#6 v=0
36608 On ch=1 n=f6 v=35
36784 Off ch=1 n=f6 v=0
36864 On ch=1 n=f#6 v=36
36864 On ch=1 n=f#5 v=24
37040 Off ch=1 n=f#6 v=0
37120 On ch=1 n=g#6 v=38
37296 Off ch=1 n=g#6 v=0
37376 On ch=1 n=b6 v=38
37376 Off ch=1 n=c#6 v=0
37376 On ch=1 n=a4 v=22
37552 Off ch=1 n=b6 v=0
37632 On ch=1 n=a6 v=34
37808 Off ch=1 n=a6 v=0
37888 Par ch=1 c=67 v=0
37888 Par ch=1 c=64 v=0
37888 Par ch=1 c=67 v=0
37888 Off ch=1 n=a4 v=0
37888 Off ch=1 n=f#5 v=0
37888 On ch=1 n=b5 v=25
37888 On ch=1 n=f#5 v=24
38144 On ch=1 n=c6 v=30
38234 Off ch=1 n=b5 v=0
38400 On ch=1 n=c#6 v=24
38400 On ch=1 n=c#5 v=24
38490 Off ch=1 n=c6 v=0
38656 On ch=1 n=e6 v=27
38746 Off ch=1 n=c#6 v=0
38912 On ch=1 n=d#6 v=36
38912 Off ch=1 n=f#5 v=0
38912 On ch=1 n=d#4 v=24
39002 Off ch=1 n=e6 v=0
39168 On ch=1 n=f#5 v=23
39258 Off ch=1 n=d#6 v=0
39424 On ch=1 n=g#5 v=31
39424 Off ch=1 n=c#5 v=0
39424 On ch=1 n=c#5 v=24
39514 Off ch=1 n=f#5 v=0
39680 On ch=1 n=a5 v=28
39770 Off ch=1 n=g#5 v=0
39936 On ch=1 n=c#6 v=32
39936 Off ch=1 n=d#4 v=0
39936 On ch=1 n=d#4 v=24
40026 Off ch=1 n=a5 v=0
40192 On ch=1 n=c#5 v=33
40282 Off ch=1 n=c#6 v=0
40448 On ch=1 n=b5 v=27
40448 Off ch=1 n=c#5 v=0
40448 On ch=1 n=f#3 v=24
40538 Off ch=1 n=c#5 v=0
40704 On ch=1 n=a5 v=20
40794 Off ch=1 n=b5 v=0
40960 Par ch=1 c=67 v=0
40960 Par ch=1 c=64 v=0
40960 Par ch=1 c=67 v=0
40960 Off ch=1 n=f#3 v=0
40960 Off ch=1 n=d#4 v=0
40960 On ch=1 n=g5 v=31
40960 On ch=1 n=e5 v=24
41050 Off ch=1 n=a5 v=0
41216 On ch=1 n=g#5 v=30
41306 Off ch=1 n=g5 v=0
41472 On ch=1 n=a5 v=35
41472 On ch=1 n=c#5 v=24
41562 Off ch=1 n=g#5 v=0
41728 On ch=1 n=c#6 v=38
41818 Off ch=1 n=a5 v=0
41984 On ch=1 n=b5 v=36
41984 Off ch=1 n=e5 v=0
41984 On ch=1 n=e4 v=24
42074 Off ch=1 n=c#6 v=0
42240 On ch=1 n=c#5 v=32
42330 Off ch=1 n=b5 v=0
42496 On ch=1 n=d#5 v=33
42496 Off ch=1 n=c#5 v=0
42496 On ch=1 n=c#5 v=24
42586 Off ch=1 n=c#5 v=0
42752 On ch=1 n=e5 v=34
42842 Off ch=1 n=d#5 v=0
43008 On ch=1 n=a5 v=36
43008 Off ch=1 n=e4 v=0
43008 On ch=1 n=e4 v=24
43098 Off ch=1 n=e5 v=0
43264 On ch=1 n=e5 v=32
43354 Off ch=1 n=a5 v=0
43520 On ch=1 n=g#5 v=35
43520 Off ch=1 n=c#5 v=0
43520 On ch=1 n=g#3 v=24
43610 Off ch=1 n=e5 v=0
43776 On ch=1 n=f#5 v=28
43866 Off ch=1 n=g#5 v=0
44032 Par ch=1 c=67 v=0
44032 Par ch=1 c=64 v=127
44032 Par ch=1 c=67 v=0
44032 Off ch=1 n=f#5 v=0
44032 Off ch=1 n=e4 v=0
44032 On ch=1 n=f#5 v=31
44032 On ch=1 n=c#5 v=24
44141 Par ch=1 c=64 v=0
44203 Par ch=1 c=64 v=0
44288 Off ch=1 n=f#5 v=0
44288 On ch=1 n=g#5 v=34
44327 Par ch=1 c=64 v=127
44544 Off ch=1 n=g#5 v=0
44544 On ch=1 n=a5 v=32
44544 Off ch=1 n=g#3 v=0
44544 On ch=1 n=d#4 v=24
44800 Off ch=1 n=a5 v=0
44800 On ch=1 n=e6 v=39
45056 Off ch=1 n=e6 v=0
45056 On ch=1 n=d#6 v=43
45056 Off ch=1 n=c#5 v=0
45056 On ch=1 n=g#3 v=24
45103 Par ch=1 c=64 v=0
45312 Off ch=1 n=d#6 v=0
45312 On ch=1 n=a5 v=29
45351 Par ch=1 c=64 v=127
45568 Off ch=1 n=a5 v=0
45568 On ch=1 n=c#6 v=42
45568 Off ch=1 n=d#4 v=0
45568 On ch=1 n=d#4 v=24
45824 Off ch=1 n=c#6 v=0
45824 On ch=1 n=g#5 v=28
46080 Off ch=1 n=g#5 v=0
46080 On ch=1 n=b5 v=37
46080 Off ch=1 n=g#3 v=0
46080 On ch=1 n=c#5 v=24
46111 Par ch=1 c=64 v=0
46204 Par ch=1 c=64 v=0
46336 Off ch=1 n=b5 v=0
46336 On ch=1 n=f#5 v=30
46390 Par ch=1 c=64 v=127
46592 Off ch=1 n=f#5 v=0
46592 On ch=1 n=a5 v=32
46592 Off ch=1 n=d#4 v=0
46592 On ch=1 n=f#4 v=24
46848 Off ch=1 n=a5 v=0
46848 On ch=1 n=e5 v=24
47104 Par ch=1 c=67 v=0
47104 Par ch=1 c=64 v=0
47104 Par ch=1 c=67 v=0
47104 Off ch=1 n=e5 v=0
47104 Off ch=1 n=f#4 v=0
47104 Off ch=1 n=c#5 v=0
47104 On ch=1 n=g#5 v=30
47104 On ch=1 n=c5 v=30
47360 Off ch=1 n=g#5 v=0
47360 On ch=1 n=d5 v=28
47616 Off ch=1 n=d5 v=0
47616 On ch=1 n=d#5 v=26
47616 On ch=1 n=f#4 v=28
47872 Off ch=1 n=d#5 v=0
47872 On ch=1 n=a5 v=24
48128 Off ch=1 n=a5 v=0
48128 On ch=1 n=g#5 v=28
48128 Off ch=1 n=c5 v=0
48128 On ch=1 n=g#3 v=27
48640 Off ch=1 n=f#4 v=0
48640 On ch=1 n=e4 v=25
48795 Par ch=1 c=64 v=127
49152 Off ch=1 n=g#5 v=0
49152 On ch=1 n=c#5 v=26
49152 Off ch=1 n=g#3 v=0
49152 On ch=1 n=g#3 v=24
49664 On ch=1 n=c#3 v=22
50176 Par ch=1 c=67 v=0
50176 Par ch=1 c=64 v=127
50176 Par ch=1 c=64 v=0
50176 Par ch=1 c=67 v=0
50176 Off ch=1 n=c#5 v=0
50176 Off ch=1 n=c#3 v=0
50176 Off ch=1 n=g#3 v=0
50176 Off ch=1 n=e4 v=0
50176 On ch=1 n=b4 v=30
50176 On ch=1 n=g4 v=22
50285 Par ch=1 c=64 v=0
50347 Par ch=1 c=64 v=0
50432 On ch=1 n=e5 v=31
50471 Par ch=1 c=64 v=127
50688 Off ch=1 n=b4 v=0
50688 Off ch=1 n=e5 v=0
50688 On ch=1 n=g5 v=32
50688 On ch=1 n=g3 v=20
50944 Off ch=1 n=g5 v=0
50944 On ch=1 n=f#5 v=33
51200 Off ch=1 n=f#5 v=0
51200 On ch=1 n=e5 v=34
51200 Off ch=1 n=g4 v=0
51200 On ch=1 n=c#3 v=19
51247 Par ch=1 c=64 v=0
51456 Off ch=1 n=e5 v=0
51456 On ch=1 n=f#5 v=35
51495 Par ch=1 c=64 v=127
51712 Off ch=1 n=f#5 v=0
51712 On ch=1 n=g5 v=37
51712 Off ch=1 n=g3 v=0
51712 On ch=1 n=e5 v=17
51968 Off ch=1 n=g5 v=0
51968 On ch=1 n=f#5 v=38
52224 Off ch=1 n=f#5 v=0
52224 On ch=1 n=b5 v=39
52224 Off ch=1 n=c#3 v=0
52224 On ch=1 n=g4 v=16
52255 Par ch=1 c=64 v=0
52348 Par ch=1 c=64 v=0
52480 Off ch=1 n=b5 v=0
52480 On ch=1 n=g5 v=40
52534 Par ch=1 c=64 v=127
52736 Off ch=1 n=g5 v=0
52736 On ch=1 n=c#6 v=41
52736 Off ch=1 n=e5 v=0
52736 On ch=1 n=c#4 v=14
52992 Off ch=1 n=c#6 v=0
52992 On ch=1 n=g5 v=42
53248 Par ch=1 c=67 v=0
53248 Par ch=1 c=64 v=127
53248 Par ch=1 c=64 v=0
53248 Par ch=1 c=67 v=0
53248 Off ch=1 n=g5 v=0
53248 Off ch=1 n=c#4 v=0
53248 Off ch=1 n=g4 v=0
53248 On ch=1 n=c#6 v=43
53248 On ch=1 n=e5 v=22
53357 Par ch=1 c=64 v=0
53419 Par ch=1 c=64 v=0
53504 On ch=1 n=a#5 v=41
53543 Par ch=1 c=64 v=127
53760 Off ch=1 n=a#5 v=0
53760 Off ch=1 n=c#6 v=0
53760 On ch=1 n=d6 v=40
53760 On ch=1 n=f#4 v=20
54016 On ch=1 n=g5 v=38
54272 Off ch=1 n=g5 v=0
54272 Off ch=1 n=d6 v=0
54272 On ch=1 n=c#6 v=36
54272 Off ch=1 n=e5 v=0
54272 On ch=1 n=f#3 v=19
54319 Par ch=1 c=64 v=0
54458 Par ch=1 c=64 v=0
54528 Off ch=1 n=c#6 v=0
54528 On ch=1 n=a#5 v=35
54784 Off ch=1 n=a#5 v=0
54784 On ch=1 n=d6 v=33
54784 Off ch=1 n=f#4 v=0
54784 On ch=1 n=d5 v=17
55040 Off ch=1 n=d6 v=0
55040 On ch=1 n=f#5 v=32
55296 Off ch=1 n=f#5 v=0
55296 On ch=1 n=b5 v=30
55296 Off ch=1 n=f#3 v=0
55296 On ch=1 n=f#4 v=16
55808 On ch=1 n=b3 v=14
56320 Par ch=1 c=67 v=0
56320 Par ch=1 c=64 v=127
56320 Par ch=1 c=64 v=0
56320 Par ch=1 c=64 v=0
56320 Par ch=1 c=67 v=0
56320 Off ch=1 n=b5 v=0
56320 Off ch=1 n=b3 v=0
56320 Off ch=1 n=f#4 v=0
56320 Off ch=1 n=d5 v=0
56320 On ch=1 n=a4 v=30
56320 On ch=1 n=f#4 v=22
56429 Par ch=1 c=64 v=0
56491 Par ch=1 c=64 v=0
56576 On ch=1 n=d5 v=31
56615 Par ch=1 c=64 v=127
56832 Off ch=1 n=a4 v=0
56832 Off ch=1 n=d5 v=0
56832 On ch=1 n=f#5 v=32
56832 On ch=1 n=f#3 v=20
57088 Off ch=1 n=f#5 v=0
57088 On ch=1 n=e5 v=33
57344 Off ch=1 n=e5 v=0
57344 On ch=1 n=d5 v=34
57344 Off ch=1 n=f#4 v=0
57344 On ch=1 n=b2 v=19
57391 Par ch=1 c=64 v=0
57600 Off ch=1 n=d5 v=0
57600 On ch=1 n=e5 v=35
57639 Par ch=1 c=64 v=127
57856 Off ch=1 n=e5 v=0
57856 On ch=1 n=f#5 v=37
57856 Off ch=1 n=f#3 v=0
57856 On ch=1 n=d5 v=17
58112 Off ch=1 n=f#5 v=0
58112 On ch=1 n=e5 v=38
58368 Off ch=1 n=e5 v=0
58368 On ch=1 n=a5 v=39
58368 Off ch=1 n=b2 v=0
58368 On ch=1 n=f#4 v=16
58399 Par ch=1 c=64 v=0
58492 Par ch=1 c=64 v=0
58624 Off ch=1 n=a5 v=0
58624 On ch=1 n=f#5 v=40
58678 Par ch=1 c=64 v=127
58880 Off ch=1 n=f#5 v=0
58880 On ch=1 n=b5 v=41
58880 Off ch=1 n=d5 v=0
58880 On ch=1 n=b3 v=14
59136 Off ch=1 n=b5 v=0
59136 On ch=1 n=b4 v=42
59392 Par ch=1 c=67 v=0
59392 Par ch=1 c=64 v=127
59392 Par ch=1 c=64 v=0
59392 Par ch=1 c=64 v=0
59392 Par ch=1 c=67 v=0
59392 Off ch=1 n=b4 v=0
59392 Off ch=1 n=b3 v=0
59392 Off ch=1 n=f#4 v=0
59392 On ch=1 n=a5 v=43
59392 On ch=1 n=f#4 v=22
59501 Par ch=1 c=64 v=0
59563 Par ch=1 c=64 v=0
59648 On ch=1 n=f#5 v=41
59687 Par ch=1 c=64 v=127
59904 Off ch=1 n=f#5 v=0
59904 Off ch=1 n=a5 v=0
59904 On ch=1 n=b5 v=40
59904 On ch=1 n=g#3 v=20
60160 On ch=1 n=b4 v=38
60416 Off ch=1 n=b4 v=0
60416 Off ch=1 n=b5 v=0
60416 On ch=1 n=a5 v=36
60416 Off ch=1 n=f#4 v=0
60416 On ch=1 n=d3 v=19
60463 Par ch=1 c=64 v=0
60602 Par ch=1 c=64 v=0
60672 On ch=1 n=f#5 v=35
60928 Off ch=1 n=f#5 v=0
60928 Off ch=1 n=a5 v=0
60928 On ch=1 n=b5 v=33
60928 Off ch=1 n=d3 v=0
60928 Off ch=1 n=g#3 v=0
60928 On ch=1 n=f4 v=17
61184 On ch=1 n=f5 v=32
61440 Off ch=1 n=f5 v=0
61440 Off ch=1 n=b5 v=0
61440 On ch=1 n=c#6 v=30
61440 On ch=1 n=g#3 v=16
61952 On ch=1 n=c#3 v=14
62208 Off ch=1 n=c#6 v=0
62208 On ch=1 n=b5 v=24
62464 Par ch=1 c=67 v=0
62464 Par ch=1 c=64 v=127
62464 Par ch=1 c=64 v=0
62464 Par ch=1 c=64 v=0
62464 Par ch=1 c=64 v=0
62464 Par ch=1 c=67 v=0
62464 Off ch=1 n=b5 v=0
62464 Off ch=1 n=g#3 v=0
62464 Off ch=1 n=f4 v=0
62464 On ch=1 n=a6 v=32
62464 On ch=1 n=f#5 v=22
62573 Par ch=1 c=64 v=0
62635 Par ch=1 c=64 v=0
62720 On ch=1 n=f#6 v=23
62759 Par ch=1 c=64 v=127
62976 Off ch=1 n=f#6 v=0
62976 Off ch=1 n=a6 v=0
62976 On ch=1 n=b6 v=30
62976 Off ch=1 n=c#3 v=0
62976 On ch=1 n=g#4 v=20
63232 On ch=1 n=b5 v=22
63488 Off ch=1 n=b5 v=0
63488 Off ch=1 n=b6 v=0
63488 On ch=1 n=a6 v=28
63488 On ch=1 n=d4 v=18
63535 Par ch=1 c=64 v=0
63674 Par ch=1 c=64 v=0
63744 On ch=1 n=f#6 v=21
64000 Off ch=1 n=a6 v=0
64000 On ch=1 n=b6 v=27
64000 Off ch=1 n=d4 v=0
64000 Off ch=1 n=f#5 v=0
64000 On ch=1 n=f5 v=16
64256 Off ch=1 n=f#6 v=0
64256 On ch=1 n=f6 v=19
64512 Off ch=1 n=f6 v=0
64512 Off ch=1 n=b6 v=0
64512 On ch=1 n=c#7 v=25
64512 Off ch=1 n=g#4 v=0
64512 On ch=1 n=g#4 v=14
65024 On ch=1 n=c#4 v=12
65536 Par ch=1 c=64 v=0
65536 Par ch=1 c=67 v=0
65536 Par ch=1 c=64 v=0
65536 Par ch=1 c=67 v=0
65536 Off ch=1 n=c#7 v=0
65536 Off ch=1 n=c#4 v=0
65536 Off ch=1 n=g#4 v=0
65536 Off ch=1 n=f5 v=0
65536 On ch=1 n=e6 v=17
65536 On ch=1 n=c#6 v=19
65691 Par ch=1 c=64 v=127
65691 Par ch=1 c=64 v=127
65792 Off ch=1 n=e6 v=0
65792 On ch=1 n=f6 v=18
66048 On ch=1 n=f#6 v=17
66048 On ch=1 n=c#5 v=19
66138 Off ch=1 n=f6 v=0
66304 On ch=1 n=a6 v=21
66389 Par ch=1 c=64 v=127
66389 Par ch=1 c=64 v=127
66394 Off ch=1 n=f#6 v=0
66560 On ch=1 n=g#6 v=21
66560 Off ch=1 n=c#5 v=0
66560 On ch=1 n=b4 v=19
66650 Off ch=1 n=a6 v=0
66816 On ch=1 n=b5 v=19
67072 Par ch=1 c=64 v=0
67072 Par ch=1 c=64 v=0
67072 Off ch=1 n=g#6 v=0
67072 On ch=1 n=c6 v=19
67072 Off ch=1 n=c#6 v=0
67072 On ch=1 n=f5 v=18
67162 Off ch=1 n=b5 v=0
67268 Par ch=1 c=64 v=127
67305 Par ch=1 c=64 v=127
67328 On ch=1 n=c#6 v=23
67418 Off ch=1 n=c6 v=0
67584 On ch=1 n=e6 v=25
67584 Off ch=1 n=b4 v=0
67584 On ch=1 n=g#4 v=18
67674 Off ch=1 n=c#6 v=0
67840 On ch=1 n=d6 v=24
67930 Off ch=1 n=e6 v=0
68096 On ch=1 n=c#6 v=21
68096 On ch=1 n=c#4 v=17
68186 Off ch=1 n=d6 v=0
68352 On ch=1 n=b5 v=23
68442 Off ch=1 n=c#6 v=0
68608 Par ch=1 c=64 v=127
68608 Par ch=1 c=67 v=0
68608 Par ch=1 c=64 v=127
68608 Par ch=1 c=67 v=0
68608 Off ch=1 n=c#4 v=0
68608 Off ch=1 n=g#4 v=0
68608 Off ch=1 n=f5 v=0
68608 On ch=1 n=a5 v=23
68608 On ch=1 n=f#5 v=25
68670 Par ch=1 c=64 v=127
68670 Par ch=1 c=64 v=127
68698 Off ch=1 n=b5 v=0
68732 Par ch=1 c=64 v=0
68732 Par ch=1 c=64 v=0
68864 On ch=1 n=b5 v=24
68872 Par ch=1 c=64 v=127
68872 Par ch=1 c=64 v=127
69120 Off ch=1 n=a5 v=0
69120 On ch=1 n=c#6 v=26
69120 On ch=1 n=a4 v=24
69210 Off ch=1 n=b5 v=0
69376 On ch=1 n=d6 v=30
69461 Par ch=1 c=64 v=127
69461 Par ch=1 c=64 v=127
69466 Off ch=1 n=c#6 v=0
69632 On ch=1 n=f#6 v=32
69632 Off ch=1 n=f#5 v=0
69632 On ch=1 n=c#4 v=24
69722 Off ch=1 n=d6 v=0
69888 On ch=1 n=c#6 v=28
70129 Par ch=1 c=64 v=0
70144 Off ch=1 n=f#6 v=0
70144 On ch=1 n=d#6 v=27
70144 Off ch=1 n=c#4 v=0
70144 Off ch=1 n=a4 v=0
70144 On ch=1 n=c#6 v=23
70234 Off ch=1 n=c#6 v=0
70325 Par ch=1 c=64 v=127
70400 On ch=1 n=f6 v=33
70490 Off ch=1 n=d#6 v=0
70656 On ch=1 n=f#6 v=34
70656 On ch=1 n=f#5 v=23
70746 Off ch=1 n=f6 v=0
70912 On ch=1 n=g#6 v=36
71168 Off ch=1 n=f#6 v=0
71168 On ch=1 n=b6 v=37
71168 Off ch=1 n=c#6 v=0
71168 On ch=1 n=a4 v=21
71258 Off ch=1 n=g#6 v=0
71424 On ch=1 n=a6 v=34
71514 Off ch=1 n=b6 v=0
71680 Par ch=1 c=64 v=127
71680 Par ch=1 c=64 v=0
71680 Par ch=1 c=64 v=0
71680 Par ch=1 c=67 v=0
71680 Par ch=1 c=67 v=0
71680 Off ch=1 n=a4 v=0
71680 Off ch=1 n=f#5 v=0
71680 On ch=1 n=e6 v=27
71680 On ch=1 n=c#6 v=30
71742 Par ch=1 c=64 v=127
71770 Off ch=1 n=a6 v=0
71804 Par ch=1 c=64 v=0
71936 Off ch=1 n=e6 v=0
71936 On ch=1 n=f6 v=28
71944 Par ch=1 c=64 v=127
72192 On ch=1 n=f#6 v=26
72192 On ch=1 n=c#5 v=28
72282 Off ch=1 n=f6 v=0
72448 On ch=1 n=a6 v=30
72533 Par ch=1 c=64 v=127
72538 Off ch=1 n=f#6 v=0
72704 On ch=1 n=g#6 v=30
72704 Off ch=1 n=c#5 v=0
72704 On ch=1 n=b4 v=27
72794 Off ch=1 n=a6 v=0
72960 On ch=1 n=b5 v=27
73216 Off ch=1 n=g#6 v=0
73216 On ch=1 n=c6 v=26
73216 Off ch=1 n=c#6 v=0
73216 On ch=1 n=f5 v=25
73231 Par ch=1 c=64 v=0
73306 Off ch=1 n=b5 v=0
73442 Par ch=1 c=64 v=127
73472 On ch=1 n=c#6 v=31
73562 Off ch=1 n=c6 v=0
73728 On ch=1 n=e6 v=33
73728 Off ch=1 n=b4 v=0
73728 On ch=1 n=g#4 v=24
73818 Off ch=1 n=c#6 v=0
73984 On ch=1 n=d6 v=31
74240 Off ch=1 n=e6 v=0
74240 On ch=1 n=c#6 v=27
74240 On ch=1 n=c#4 v=22
74330 Off ch=1 n=d6 v=0
74496 On ch=1 n=b5 v=28
74586 Off ch=1 n=c#6 v=0
74752 Par ch=1 c=64 v=127
74752 Par ch=1 c=64 v=0
74752 Par ch=1 c=64 v=0
74752 Par ch=1 c=64 v=0
74752 Par ch=1 c=67 v=0
74752 Par ch=1 c=67 v=0
74752 Off ch=1 n=c#4 v=0
74752 Off ch=1 n=g#4 v=0
74752 Off ch=1 n=f5 v=0
74752 On ch=1 n=a5 v=28
74752 On ch=1 n=f#5 v=30
74814 Par ch=1 c=64 v=127
74842 Off ch=1 n=b5 v=0
74876 Par ch=1 c=64 v=0
75008 On ch=1 n=b5 v=28
75016 Par ch=1 c=64 v=127
75264 Off ch=1 n=a5 v=0
75264 On ch=1 n=c#6 v=30
75264 On ch=1 n=a4 v=28
75354 Off ch=1 n=b5 v=0
75520 On ch=1 n=d6 v=34
75605 Par ch=1 c=64 v=127
75610 Off ch=1 n=c#6 v=0
75776 On ch=1 n=f#6 v=36
75776 Off ch=1 n=f#5 v=0
75776 On ch=1 n=c#4 v=27
75866 Off ch=1 n=d6 v=0
76032 On ch=1 n=c#6 v=31
76288 Off ch=1 n=f#6 v=0
76288 On ch=1 n=d#6 v=30
76288 Off ch=1 n=c#4 v=0
76288 Off ch=1 n=a4 v=0
76288 On ch=1 n=c#6 v=25
76333 Par ch=1 c=64 v=0
76378 Off ch=1 n=c#6 v=0
76514 Par ch=1 c=64 v=127
76544 On ch=1 n=f6 v=35
76634 Off ch=1 n=d#6 v=0
76800 On ch=1 n=f#6 v=36
76800 On ch=1 n=f#5 v=24
76890 Off ch=1 n=f6 v=0
77056 On ch=1 n=g#6 v=38
77312 Off ch=1 n=f#6 v=0
77312 On ch=1 n=b6 v=38
77312 Off ch=1 n=c#6 v=0
77312 On ch=1 n=a4 v=22
77402 Off ch=1 n=g#6 v=0
77568 On ch=1 n=a6 v=34
77658 Off ch=1 n=b6 v=0
77824 Par ch=1 c=64 v=127
77824 Par ch=1 c=64 v=0
77824 Par ch=1 c=64 v=0
77824 Par ch=1 c=64 v=0
77824 Par ch=1 c=64 v=0
77824 Par ch=1 c=67 v=0
77824 Par ch=1 c=67 v=0
77824 Off ch=1 n=a4 v=0
77824 Off ch=1 n=f#5 v=0
77824 On ch=1 n=e6 v=25
77824 On ch=1 n=b5 v=24
77886 Par ch=1 c=64 v=127
77914 Off ch=1 n=a6 v=0
77948 Par ch=1 c=64 v=0
78080 Off ch=1 n=e6 v=0
78080 On ch=1 n=f6 v=30
78088 Par ch=1 c=64 v=127
78336 Off ch=1 n=f6 v=0
78336 On ch=1 n=f#6 v=24
78336 Off ch=1 n=b5 v=0
78336 On ch=1 n=f#5 v=24
78592 Off ch=1 n=f#6 v=0
78592 On ch=1 n=a6 v=27
78677 Par ch=1 c=64 v=127
78848 Off ch=1 n=a6 v=0
78848 On ch=1 n=g#6 v=36
78848 Off ch=1 n=f#5 v=0
78848 On ch=1 n=g#4 v=24
79104 Off ch=1 n=g#6 v=0
79104 On ch=1 n=b5 v=23
79360 Off ch=1 n=b5 v=0
79360 On ch=1 n=c#6 v=31
79360 Off ch=1 n=g#4 v=0
79360 On ch=1 n=f#5 v=24
79390 Par ch=1 c=64 v=0
79541 Par ch=1 c=64 v=127
79616 Off ch=1 n=c#6 v=0
79616 On ch=1 n=d6 v=28
79872 Off ch=1 n=d6 v=0
79872 On ch=1 n=f#6 v=32
79872 Off ch=1 n=f#5 v=0
79872 On ch=1 n=g#4 v=24
80128 Off ch=1 n=f#6 v=0
80128 On ch=1 n=f#5 v=33
80384 Off ch=1 n=f#5 v=0
80384 On ch=1 n=e6 v=27
80384 Off ch=1 n=g#4 v=0
80384 On ch=1 n=b3 v=24
80640 Off ch=1 n=e6 v=0
80640 On ch=1 n=d6 v=20
80896 Par ch=1 c=64 v=127
80896 Par ch=1 c=64 v=0
80896 Par ch=1 c=64 v=0
80896 Par ch=1 c=64 v=0
80896 Par ch=1 c=64 v=0
80896 Par ch=1 c=67 v=0
80896 Par ch=1 c=67 v=0
80896 Off ch=1 n=d6 v=0
80896 Off ch=1 n=b3 v=0
80896 On ch=1 n=c6 v=31
80896 On ch=1 n=a5 v=24
80958 Par ch=1 c=64 v=127
81020 Par ch=1 c=64 v=0
81152 Off ch=1 n=c6 v=0
81152 On ch=1 n=c#6 v=30
81160 Par ch=1 c=64 v=127
81408 Off ch=1 n=c#6 v=0
81408 On ch=1 n=d6 v=35
81408 Off ch=1 n=a5 v=0
81408 On ch=1 n=f#5 v=24
81664 Off ch=1 n=d6 v=0
81664 On ch=1 n=f#6 v=38
81749 Par ch=1 c=64 v=127
81920 Off ch=1 n=f#6 v=0
81920 On ch=1 n=e6 v=36
81920 Off ch=1 n=f#5 v=0
81920 On ch=1 n=a4 v=24
82176 Off ch=1 n=e6 v=0
82176 On ch=1 n=f#5 v=32
82432 Off ch=1 n=f#5 v=0
82432 On ch=1 n=g#5 v=33
82432 Off ch=1 n=a4 v=0
82432 On ch=1 n=f#5 v=24
82477 Par ch=1 c=64 v=0
82643 Par ch=1 c=64 v=127
82688 Off ch=1 n=g#5 v=0
82688 On ch=1 n=a5 v=34
82944 Off ch=1 n=a5 v=0
82944 On ch=1 n=d6 v=36
82944 Off ch=1 n=f#5 v=0
82944 On ch=1 n=a4 v=24
83200 Off ch=1 n=d6 v=0
83200 On ch=1 n=a5 v=32
83456 Off ch=1 n=a5 v=0
83456 On ch=1 n=c#6 v=35
83456 Off ch=1 n=a4 v=0
83456 On ch=1 n=c#4 v=24
83712 Off ch=1 n=c#6 v=0
83712 On ch=1 n=b5 v=28
83968 Par ch=1 c=64 v=0
83968 Par ch=1 c=67 v=0
83968 Par ch=1 c=67 v=0
83968 Off ch=1 n=b5 v=0
83968 Off ch=1 n=c#4 v=0
83968 On ch=1 n=b5 v=31
83968 On ch=1 n=f#5 v=24
84224 On ch=1 n=c#6 v=34
84314 Off ch=1 n=b5 v=0
84480 On ch=1 n=d6 v=32
84480 On ch=1 n=g#4 v=24
84570 Off ch=1 n=c#6 v=0
84736 On ch=1 n=a6 v=39
84826 Off ch=1 n=d6 v=0
84992 On ch=1 n=g#6 v=43
84992 Off ch=1 n=f#5 v=0
84992 On ch=1 n=c#4 v=24
85082 Off ch=1 n=a6 v=0
85248 On ch=1 n=d6 v=29
85338 Off ch=1 n=g#6 v=0
85504 On ch=1 n=f#6 v=42
85504 Off ch=1 n=g#4 v=0
85504 On ch=1 n=f#5 v=24
85594 Off ch=1 n=d6 v=0
85760 On ch=1 n=c#6 v=28
85850 Off ch=1 n=f#6 v=0
86016 On ch=1 n=e6 v=37
86016 On ch=1 n=g#4 v=24
86106 Off ch=1 n=c#6 v=0
86272 On ch=1 n=d6 v=30
86362 Off ch=1 n=e6 v=0
86528 On ch=1 n=b5 v=32
86528 Off ch=1 n=c#4 v=0
86528 On ch=1 n=c#4 v=24
86618 Off ch=1 n=d6 v=0
86784 On ch=1 n=f#5 v=24
86874 Off ch=1 n=b5 v=0
87040 Par ch=1 c=67 v=0
87040 Par ch=1 c=64 v=0
87040 Par ch=1 c=67 v=0
87040 Off ch=1 n=c#4 v=0
87040 Off ch=1 n=g#4 v=0
87040 Off ch=1 n=f#5 v=0
87040 On ch=1 n=b4 v=32
87040 On ch=1 n=f#4 v=24
87130 Off ch=1 n=f#5 v=0
87296 On ch=1 n=c#5 v=32
87386 Off ch=1 n=b4 v=0
87552 On ch=1 n=d5 v=27
87552 On ch=1 n=g#3 v=22
87642 Off ch=1 n=c#5 v=0
87808 On ch=1 n=a5 v=26
87898 Off ch=1 n=d5 v=0
88064 On ch=1 n=g#5 v=32
88064 On ch=1 n=c#3 v=21
88154 Off ch=1 n=a5 v=0
88320 On ch=1 n=d5 v=25
88410 Off ch=1 n=g#5 v=0
88576 On ch=1 n=f#5 v=29
88576 Off ch=1 n=f#4 v=0
88576 On ch=1 n=f#4 v=19
88666 Off ch=1 n=d5 v=0
88832 On ch=1 n=c#5 v=29
88922 Off ch=1 n=f#5 v=0
89088 On ch=1 n=e5 v=26
89088 Off ch=1 n=c#3 v=0
89088 Off ch=1 n=g#3 v=0
89088 On ch=1 n=g#3 v=17
89178 Off ch=1 n=c#5 v=0
89344 On ch=1 n=b4 v=30
89434 Off ch=1 n=e5 v=0
89600 On ch=1 n=d5 v=29
89600 Off ch=1 n=f#4 v=0
89600 On ch=1 n=c#3 v=15
89690 Off ch=1 n=b4 v=0
89856 On ch=1 n=a4 v=26
89946 Off ch=1 n=d5 v=0
90112 Par ch=1 c=67 v=0
90112 Par ch=1 c=64 v=0
90112 Par ch=1 c=67 v=0
90112 Off ch=1 n=c#3 v=0
90112 Off ch=1 n=g#3 v=0
90112 On ch=1 n=c#5 v=33
90112 On ch=1 n=e4 v=22
90202 Off ch=1 n=a4 v=0
90368 On ch=1 n=f#4 v=32
90458 Off ch=1 n=c#5 v=0
90624 On ch=1 n=g4 v=32
90624 On ch=1 n=a#3 v=21
90714 Off ch=1 n=f#4 v=0
90880 On ch=1 n=d5 v=31
90970 Off ch=1 n=g4 v=0
91136 On ch=1 n=c#5 v=31
91136 On ch=1 n=c#3 v=21
91226 Off ch=1 n=d5 v=0
91648 Off ch=1 n=a#3 v=0
91648 Off ch=1 n=e4 v=0
91648 On ch=1 n=d4 v=21
92160 On ch=1 n=f#4 v=14
92160 On ch=1 n=b4 v=22
92160 On ch=1 n=b3 v=21
92250 Off ch=1 n=c#5 v=0
92672 Off ch=1 n=c#3 v=0
92672 Off ch=1 n=d4 v=0
92672 On ch=1 n=c#3 v=20
93184 Par ch=1 c=67 v=0
93184 Par ch=1 c=64 v=0
93184 Par ch=1 c=67 v=0
93184 Off ch=1 n=c#3 v=0
93184 Off ch=1 n=b3 v=0
93184 On ch=1 n=a4 v=33
93184 On ch=1 n=c#4 v=21
93274 Off ch=1 n=f#4 v=0
93274 Off ch=1 n=b4 v=0
93440 Off ch=1 n=a4 v=0
93440 On ch=1 n=f4 v=32
93696 Off ch=1 n=f4 v=0
93696 On ch=1 n=f#4 v=32
93696 On ch=1 n=f#3 v=21
93952 Off ch=1 n=f#4 v=0
93952 On ch=1 n=b4 v=31
94208 Off ch=1 n=b4 v=0
94208 On ch=1 n=a4 v=31
94208 On ch=1 n=c#3 v=21
94720 Off ch=1 n=f#3 v=0
94720 Off ch=1 n=c#4 v=0
94720 On ch=1 n=c4 v=21
95232 On ch=1 n=d4 v=14
95232 On ch=1 n=f#4 v=22
95232 Off ch=1 n=c#3 v=0
95232 On ch=1 n=f#3 v=21
95282 Off ch=1 n=a4 v=0
95744 On ch=1 n=c#3 v=21
96256 Par ch=1 c=67 v=0
96256 Par ch=1 c=64 v=0
96256 Par ch=1 c=67 v=0
96256 Off ch=1 n=d4 v=0
96256 Off ch=1 n=f#4 v=0
96256 Off ch=1 n=c#3 v=0
96256 Off ch=1 n=f#3 v=0
96256 Off ch=1 n=c4 v=0
96256 On ch=1 n=a5 v=33
96256 On ch=1 n=c#5 v=22
96512 On ch=1 n=f5 v=32
96768 Off ch=1 n=f5 v=0
96768 Off ch=1 n=a5 v=0
96768 On ch=1 n=f#5 v=32
96768 On ch=1 n=f#4 v=21
97024 On ch=1 n=b5 v=31
97280 Off ch=1 n=f#5 v=0
97280 Off ch=1 n=b5 v=0
97280 On ch=1 n=a5 v=31
97280 On ch=1 n=c#4 v=19
97792 Off ch=1 n=f#4 v=0
97792 Off ch=1 n=c#5 v=0
97792 On ch=1 n=c5 v=18
98304 On ch=1 n=d5 v=14
98304 On ch=1 n=f#5 v=22
98304 Off ch=1 n=c#4 v=0
98304 On ch=1 n=f#4 v=16
98354 Off ch=1 n=a5 v=0
98816 On ch=1 n=c#4 v=15
99328 Par ch=1 c=67 v=0
99328 Par ch=1 c=64 v=0
99328 Par ch=1 c=67 v=0
99328 Off ch=1 n=d5 v=0
99328 Off ch=1 n=f#5 v=0
99328 Off ch=1 n=c#4 v=0
99328 Off ch=1 n=f#4 v=0
99328 Off ch=1 n=c5 v=0
99328 On ch=1 n=a5 v=33
99328 On ch=1 n=c#5 v=18
99584 On ch=1 n=f5 v=32
99840 Off ch=1 n=f5 v=0
99840 Off ch=1 n=a5 v=0
99840 On ch=1 n=f#5 v=32
99840 On ch=1 n=f#4 v=17
100096 On ch=1 n=b5 v=31
100352 Off ch=1 n=f#5 v=0
100352 Off ch=1 n=b5 v=0
100352 On ch=1 n=a5 v=31
100352 On ch=1 n=c#4 v=16
100864 Off ch=1 n=f#4 v=0
100864 Off ch=1 n=c#5 v=0
100864 On ch=1 n=c5 v=14
101376 On ch=1 n=d5 v=9
101376 On ch=1 n=f#5 v=17
101376 Off ch=1 n=c#4 v=0
101376 On ch=1 n=f#4 v=13
101426 Off ch=1 n=a5 v=0
101888 On ch=1 n=c#4 v=4
102144 Off ch=1 n=d5 v=0
102144 Off ch=1 n=f#5 v=0
102144 Off ch=1 n=c#4 v=0
102144 Off ch=1 n=f#4 v=0
102144 Off ch=1 n=c5 v=0
102400 Par ch=1 c=67 v=0
102400 Par ch=1 c=64 v=0
102400 Par ch=1 c=67 v=0
102400 On ch=1 n=a5 v=24
102400 On ch=1 n=c#5 v=12
102400 On ch=1 n=c#4 v=12
102400 On ch=1 n=f#4 v=12
102524 Par ch=1 c=64 v=127
102656 Off ch=1 n=a5 v=0
102656 On ch=1 n=f5 v=27
102912 Off ch=1 n=f5 v=0
102912 On ch=1 n=f#5 v=27
103168 Off ch=1 n=f#5 v=0
103168 On ch=1 n=b5 v=32
103168 Off ch=1 n=c#5 v=0
103168 On ch=1 n=d5 v=20
103424 Off ch=1 n=b5 v=0
103424 On ch=1 n=a5 v=32
103424 Off ch=1 n=d5 v=0
103424 On ch=1 n=c#5 v=20
103424 Off ch=1 n=f#4 v=0
103455 Par ch=1 c=64 v=0
103672 Par ch=1 c=64 v=127
104448 Off ch=1 n=a5 v=0
104448 On ch=1 n=b4 v=13
104448 On ch=1 n=c#5 v=13
104448 On ch=1 n=f5 v=13
104448 On ch=1 n=g#5 v=22
104448 Off ch=1 n=c#5 v=0
104448 On ch=1 n=c#3 v=12
104510 Par ch=1 c=64 v=0
104696 Par ch=1 c=64 v=127
105472 Par ch=1 c=67 v=0
105472 Par ch=1 c=64 v=0
105472 Par ch=1 c=67 v=0
105472 Off ch=1 n=b4 v=0
105472 Off ch=1 n=c#5 v=0
105472 Off ch=1 n=f5 v=0
105472 Off ch=1 n=g#5 v=0
105472 Off ch=1 n=c#3 v=0
105472 On ch=1 n=a4 v=13
105472 On ch=1 n=c#5 v=13
105472 On ch=1 n=f#5 v=19
105472 On ch=1 n=f#3 v=6
105844 Par ch=1 c=64 v=127
106496 Off ch=1 n=a4 v=0
106496 Off ch=1 n=c#5 v=0
106496 Off ch=1 n=f#5 v=0
106496 Off ch=1 n=f#3 v=0
106496 On ch=1 n=f#2 v=6
107380 Par ch=1 c=64 v=0
107520 Off ch=1 n=f#2 v=0
107520 Off ch=1 n=c#4 v=0
108544 Par ch=1 c=67 v=0
108544 Par ch=1 c=64 v=0
108544 Par ch=1 c=67 v=0
108544 Par ch=1 c=64 v=0
111616 Par ch=1 c=67 v=0
111616 Par ch=1 c=64 v=0
111616 Par ch=1 c=67 v=0
111616 Par ch=1 c=64 v=0
111617 Meta TrkEnd
TrkEnd
