MFile 1 2 1024
MTrk
0 TimeSig 1/4 24 8
0 KeySig -6 minor
0 Tempo 1500000
1024 TimeSig 3/4 72 8
3072 Tempo 1578947
3413 Tempo 1500000
3925 Tempo 2000000
4096 Tempo 1714285
5120 Tempo 1500000
6144 Tempo 1714285
6485 Tempo 3000000
7168 Tempo 1500000
8192 Tempo 1714285
9216 Tempo 2400000
10240 Tempo 1500000
12288 Tempo 1714285
12629 Tempo 1500000
13141 Tempo 2400000
13312 Tempo 1714285
14336 Tempo 1500000
15360 Tempo 1714285
15701 Tempo 3000000
16384 Tempo 1500000
17408 Tempo 1714285
18432 Tempo 2400000
19456 Tempo 1500000
21504 Tempo 1714285
22357 Tempo 3000000
22528 Tempo 1500000
23552 Tempo 1714285
24576 Tempo 2400000
24917 Tempo 1500000
25344 Tempo 5000000
25429 Tempo 5000000
25600 Tempo 2000000
26624 Tempo 1714285
27648 Tempo 3000000
28672 Tempo 1500000
30720 Tempo 1578947
31061 Tempo 1500000
31573 Tempo 2000000
31744 Tempo 1714285
32768 Tempo 1500000
33792 Tempo 2000000
34133 Tempo 3000000
34645 Tempo 4000000
34816 Tempo 1714285
35840 Tempo 2400000
36864 Tempo 4000000
37888 Tempo 270270
40963 Meta TrkEnd
TrkEnd
MTrk
0 Meta TrkName "Instrument  1"
0 PrCh ch=1 p=1
0 Par ch=1 c=64 v=0
0 Par ch=1 c=64 v=0
1024 Par ch=1 c=64 v=0
1024 Par ch=1 c=64 v=0
1024 On ch=1 n=a#5 v=41
1775 Par ch=1 c=64 v=127
2048 On ch=1 n=g#5 v=35
2098 Off ch=1 n=a#5 v=0
2560 On ch=1 n=a#5 v=39
2610 Off ch=1 n=g#5 v=0
2624 Par ch=1 c=64 v=0
2764 Par ch=1 c=64 v=127
3072 On ch=1 n=c#6 v=43
3080 Par ch=1 c=64 v=0
3122 Off ch=1 n=a#5 v=0
3243 Par ch=1 c=64 v=127
3413 On ch=1 n=b5 v=38
3463 Off ch=1 n=c#6 v=0
3570 Par ch=1 c=64 v=0
3769 Par ch=1 c=64 v=127
3925 On ch=1 n=f#5 v=35
3975 Off ch=1 n=b5 v=0
4096 Par ch=1 c=64 v=0
4096 Par ch=1 c=64 v=0
4096 Par ch=1 c=64 v=127
4096 On ch=1 n=g#5 v=31
4146 Off ch=1 n=f#5 v=0
4253 Par ch=1 c=64 v=0
4847 Par ch=1 c=64 v=127
4847 Par ch=1 c=64 v=127
5120 On ch=1 n=f#5 v=34
5170 Off ch=1 n=g#5 v=0
5632 On ch=1 n=g#5 v=34
5682 Off ch=1 n=f#5 v=0
5696 Par ch=1 c=64 v=0
5696 Par ch=1 c=64 v=0
5836 Par ch=1 c=64 v=127
5836 Par ch=1 c=64 v=127
6144 On ch=1 n=b5 v=42
6152 Par ch=1 c=64 v=0
6152 Par ch=1 c=64 v=0
6194 Off ch=1 n=g#5 v=0
6315 Par ch=1 c=64 v=127
6315 Par ch=1 c=64 v=127
6485 On ch=1 n=a#5 v=30
6535 Off ch=1 n=b5 v=0
6642 Par ch=1 c=64 v=0
6642 Par ch=1 c=64 v=0
6841 Par ch=1 c=64 v=127
6841 Par ch=1 c=64 v=127
6997 On ch=1 n=d#5 v=26
7047 Off ch=1 n=a#5 v=0
7168 Par ch=1 c=64 v=0
7168 Par ch=1 c=64 v=127
7168 Off ch=1 n=d#5 v=0
7168 On ch=1 n=f#4 v=14
7168 On ch=1 n=d#5 v=14
7168 On ch=1 n=f#5 v=25
7168 On ch=1 n=d#3 v=10
7168 On ch=1 n=a#3 v=10
7168 On ch=1 n=d#4 v=10
7332 Par ch=1 c=64 v=0
7700 Par ch=1 c=64 v=127
8192 Off ch=1 n=f#4 v=0
8192 Off ch=1 n=d#5 v=0
8192 Off ch=1 n=f#5 v=0
8192 On ch=1 n=f#4 v=11
8192 On ch=1 n=d#5 v=11
8192 On ch=1 n=f#5 v=22
8192 Off ch=1 n=d#3 v=0
8192 Off ch=1 n=a#3 v=0
8192 Off ch=1 n=d#4 v=0
8192 On ch=1 n=d#3 v=10
8192 On ch=1 n=a#3 v=10
8192 On ch=1 n=d#4 v=10
9216 Off ch=1 n=f#4 v=0
9216 Off ch=1 n=d#5 v=0
9216 Off ch=1 n=f#5 v=0
9216 On ch=1 n=f#4 v=8
9216 On ch=1 n=d#5 v=8
9216 On ch=1 n=f#5 v=19
9216 Off ch=1 n=d#3 v=0
9216 Off ch=1 n=a#3 v=0
9216 Off ch=1 n=d#4 v=0
9216 On ch=1 n=d#3 v=10
9216 On ch=1 n=a#3 v=10
9216 On ch=1 n=d#4 v=10
10240 Par ch=1 c=64 v=0
10240 Par ch=1 c=64 v=0
10240 Par ch=1 c=64 v=0
10240 Off ch=1 n=f#4 v=0
10240 Off ch=1 n=d#5 v=0
10240 Off ch=1 n=f#5 v=0
10240 Off ch=1 n=d#3 v=0
10240 Off ch=1 n=a#3 v=0
10240 Off ch=1 n=d#4 v=0
10240 On ch=1 n=g#5 v=42
10240 On ch=1 n=g#4 v=17
10240 On ch=1 n=c#5 v=17
10240 On ch=1 n=f5 v=17
10240 On ch=1 n=c#3 v=14
10240 On ch=1 n=c#4 v=14
10991 Par ch=1 c=64 v=127
11264 On ch=1 n=f#5 v=39
11314 Off ch=1 n=g#5 v=0
11776 On ch=1 n=g#5 v=42
11826 Off ch=1 n=f#5 v=0
11840 Par ch=1 c=64 v=0
11980 Par ch=1 c=64 v=127
12288 Off ch=1 n=g#4 v=0
12288 Off ch=1 n=c#5 v=0
12288 Off ch=1 n=f5 v=0
12288 On ch=1 n=a#4 v=24
12288 On ch=1 n=f5 v=24
12288 On ch=1 n=b5 v=43
12288 Off ch=1 n=c#3 v=0
12288 Off ch=1 n=c#4 v=0
12288 On ch=1 n=f#3 v=16
12288 On ch=1 n=c#4 v=16
12296 Par ch=1 c=64 v=0
12338 Off ch=1 n=g#5 v=0
12459 Par ch=1 c=64 v=127
12629 On ch=1 n=a#5 v=38
12679 Off ch=1 n=b5 v=0
12786 Par ch=1 c=64 v=0
12985 Par ch=1 c=64 v=127
13141 On ch=1 n=f5 v=34
13191 Off ch=1 n=a#5 v=0
13312 Par ch=1 c=64 v=0
13312 Par ch=1 c=64 v=0
13312 Par ch=1 c=64 v=127
13312 Par ch=1 c=64 v=0
13312 Off ch=1 n=a#4 v=0
13312 Off ch=1 n=f5 v=0
13312 Off ch=1 n=f#3 v=0
13312 Off ch=1 n=c#4 v=0
13312 On ch=1 n=f#5 v=40
13312 On ch=1 n=a#4 v=18
13312 On ch=1 n=d#5 v=18
13312 On ch=1 n=b2 v=16
13312 On ch=1 n=b3 v=16
13362 Off ch=1 n=f5 v=0
13469 Par ch=1 c=64 v=0
14063 Par ch=1 c=64 v=127
14063 Par ch=1 c=64 v=127
14336 On ch=1 n=f5 v=37
14386 Off ch=1 n=f#5 v=0
14848 On ch=1 n=f#5 v=41
14898 Off ch=1 n=f5 v=0
14912 Par ch=1 c=64 v=0
14912 Par ch=1 c=64 v=0
15052 Par ch=1 c=64 v=127
15052 Par ch=1 c=64 v=127
15360 Off ch=1 n=a#4 v=0
15360 Off ch=1 n=d#5 v=0
15360 On ch=1 n=g#4 v=19
15360 On ch=1 n=d#5 v=19
15360 On ch=1 n=a#5 v=37
15360 Off ch=1 n=b2 v=0
15360 Off ch=1 n=b3 v=0
15360 On ch=1 n=f3 v=11
15360 On ch=1 n=b3 v=11
15368 Par ch=1 c=64 v=0
15368 Par ch=1 c=64 v=0
15410 Off ch=1 n=f#5 v=0
15531 Par ch=1 c=64 v=127
15531 Par ch=1 c=64 v=127
15701 On ch=1 n=g#5 v=28
15751 Off ch=1 n=a#5 v=0
15858 Par ch=1 c=64 v=0
15858 Par ch=1 c=64 v=0
16057 Par ch=1 c=64 v=127
16057 Par ch=1 c=64 v=127
16213 On ch=1 n=d#5 v=29
16263 Off ch=1 n=g#5 v=0
16384 Par ch=1 c=64 v=0
16384 Par ch=1 c=64 v=127
16384 Par ch=1 c=64 v=0
16384 Off ch=1 n=g#4 v=0
16384 Off ch=1 n=d#5 v=0
16384 Off ch=1 n=d#5 v=0
16384 Off ch=1 n=f3 v=0
16384 Off ch=1 n=b3 v=0
16384 On ch=1 n=f4 v=14
16384 On ch=1 n=a#4 v=14
16384 On ch=1 n=d5 v=16
16384 On ch=1 n=f5 v=28
16384 On ch=1 n=a#2 v=10
16384 On ch=1 n=a#3 v=10
16548 Par ch=1 c=64 v=0
16916 Par ch=1 c=64 v=127
17408 Off ch=1 n=f4 v=0
17408 Off ch=1 n=a#4 v=0
17408 Off ch=1 n=d5 v=0
17408 Off ch=1 n=f5 v=0
17408 On ch=1 n=f4 v=11
17408 On ch=1 n=a#4 v=11
17408 On ch=1 n=d5 v=13
17408 On ch=1 n=f5 v=25
17408 Off ch=1 n=a#2 v=0
17408 Off ch=1 n=a#3 v=0
17408 On ch=1 n=a#2 v=10
17408 On ch=1 n=a#3 v=10
18432 Off ch=1 n=f4 v=0
18432 Off ch=1 n=a#4 v=0
18432 Off ch=1 n=d5 v=0
18432 Off ch=1 n=f5 v=0
18432 On ch=1 n=f4 v=8
18432 On ch=1 n=a#4 v=8
18432 On ch=1 n=d5 v=10
18432 On ch=1 n=f5 v=22
18432 Off ch=1 n=a#2 v=0
18432 Off ch=1 n=a#3 v=0
18432 On ch=1 n=a#2 v=10
18432 On ch=1 n=a#3 v=10
19456 Par ch=1 c=64 v=0
19456 Par ch=1 c=64 v=0
19456 Off ch=1 n=f4 v=0
19456 Off ch=1 n=a#4 v=0
19456 Off ch=1 n=d5 v=0
19456 Off ch=1 n=f5 v=0
19456 Off ch=1 n=a#2 v=0
19456 Off ch=1 n=a#3 v=0
19456 On ch=1 n=f#5 v=30
19456 On ch=1 n=f#4 v=15
19456 On ch=1 n=b4 v=15
19456 On ch=1 n=d#5 v=15
19456 On ch=1 n=g#2 v=5
19456 On ch=1 n=g#3 v=2
19485 Par ch=1 c=64 v=127
19661 Par ch=1 c=64 v=0
19953 Par ch=1 c=64 v=127
20480 On ch=1 n=f5 v=34
20509 Par ch=1 c=64 v=0
20530 Off ch=1 n=f#5 v=0
20992 On ch=1 n=f#5 v=35
21042 Off ch=1 n=f5 v=0
21504 Off ch=1 n=f#4 v=0
21504 Off ch=1 n=b4 v=0
21504 Off ch=1 n=d#5 v=0
21504 On ch=1 n=c#5 v=22
21504 On ch=1 n=f5 v=22
21504 On ch=1 n=g#5 v=37
21504 Off ch=1 n=g#2 v=0
21504 Off ch=1 n=g#3 v=0
21504 On ch=1 n=c#3 v=15
21504 On ch=1 n=c#4 v=12
21554 Off ch=1 n=f#5 v=0
21709 Par ch=1 c=64 v=127
21845 On ch=1 n=a#5 v=40
21895 Off ch=1 n=g#5 v=0
21938 Par ch=1 c=64 v=127
22016 Off ch=1 n=c#3 v=0
22016 Off ch=1 n=c#4 v=0
22016 On ch=1 n=b2 v=19
22016 On ch=1 n=b3 v=14
22357 On ch=1 n=b5 v=49
22407 Off ch=1 n=a#5 v=0
22528 Par ch=1 c=64 v=0
22528 Par ch=1 c=64 v=0
22528 Off ch=1 n=c#5 v=0
22528 Off ch=1 n=f5 v=0
22528 Off ch=1 n=b2 v=0
22528 Off ch=1 n=b3 v=0
22528 On ch=1 n=e5 v=27
22528 On ch=1 n=g#5 v=27
22528 On ch=1 n=c#6 v=54
22528 On ch=1 n=a#2 v=22
22528 On ch=1 n=a#3 v=17
22576 Par ch=1 c=64 v=127
22578 Off ch=1 n=b5 v=0
22671 Par ch=1 c=64 v=0
22885 Par ch=1 c=64 v=127
23552 Off ch=1 n=e5 v=0
23552 Off ch=1 n=g#5 v=0
23552 On ch=1 n=e5 v=36
23552 On ch=1 n=b5 v=36
23552 On ch=1 n=d#6 v=63
23552 Off ch=1 n=a#2 v=0
23552 Off ch=1 n=a#3 v=0
23552 On ch=1 n=g#2 v=26
23552 On ch=1 n=g#3 v=21
23576 Par ch=1 c=64 v=0
23602 Off ch=1 n=c#6 v=0
23766 Par ch=1 c=64 v=127
24064 On ch=1 n=e6 v=59
24114 Off ch=1 n=d#6 v=0
24576 Off ch=1 n=e5 v=0
24576 Off ch=1 n=b5 v=0
24576 On ch=1 n=d#6 v=56
24576 On ch=1 n=e5 v=34
24576 On ch=1 n=a#5 v=34
24576 Off ch=1 n=g#2 v=0
24576 Off ch=1 n=g#3 v=0
24576 On ch=1 n=g2 v=16
24576 On ch=1 n=g3 v=11
24600 Par ch=1 c=64 v=0
24626 Off ch=1 n=e6 v=0
24838 Par ch=1 c=64 v=127
24917 On ch=1 n=c#6 v=43
24967 Off ch=1 n=d#6 v=0
25124 Par ch=1 c=64 v=0
25239 Par ch=1 c=64 v=127
25338 Par ch=1 c=64 v=127
25344 Off ch=1 n=e5 v=0
25344 Off ch=1 n=a#5 v=0
25344 On ch=1 n=e5 v=10
25344 On ch=1 n=g#5 v=10
25344 Off ch=1 n=g2 v=0
25344 Off ch=1 n=g3 v=0
25344 On ch=1 n=g#2 v=5
25344 On ch=1 n=g#3 v=5
25429 On ch=1 n=b5 v=32
25479 Off ch=1 n=c#6 v=0
25600 Par ch=1 c=64 v=0
25600 Par ch=1 c=64 v=127
25600 Off ch=1 n=e5 v=0
25600 Off ch=1 n=g#5 v=0
25600 Off ch=1 n=b5 v=0
25600 Off ch=1 n=g#3 v=0
25600 On ch=1 n=b4 v=13
25600 On ch=1 n=e5 v=13
25600 On ch=1 n=b5 v=35
25600 On ch=1 n=g#3 v=14
25600 On ch=1 n=e4 v=14
25903 Par ch=1 c=64 v=0
26245 Par ch=1 c=64 v=127
26624 Off ch=1 n=b4 v=0
26624 Off ch=1 n=e5 v=0
26624 Off ch=1 n=b5 v=0
26624 On ch=1 n=b4 v=17
26624 On ch=1 n=d#5 v=17
26624 On ch=1 n=b5 v=35
26624 Off ch=1 n=g#2 v=0
26624 Off ch=1 n=g#3 v=0
26624 Off ch=1 n=e4 v=0
26624 On ch=1 n=a3 v=8
26624 On ch=1 n=f#4 v=8
26738 Par ch=1 c=64 v=0
27155 Par ch=1 c=64 v=127
27648 Off ch=1 n=b4 v=0
27648 Off ch=1 n=d#5 v=0
27648 Off ch=1 n=b5 v=0
27648 On ch=1 n=b4 v=6
27648 On ch=1 n=d#5 v=6
27648 On ch=1 n=b5 v=30
27648 Off ch=1 n=a3 v=0
27648 Off ch=1 n=f#4 v=0
27648 On ch=1 n=a3 v=6
27648 On ch=1 n=f#4 v=6
28672 Par ch=1 c=64 v=0
28672 Par ch=1 c=64 v=0
28672 Par ch=1 c=64 v=0
28672 Par ch=1 c=64 v=0
28672 Off ch=1 n=b4 v=0
28672 Off ch=1 n=d#5 v=0
28672 Off ch=1 n=b5 v=0
28672 Off ch=1 n=a3 v=0
28672 Off ch=1 n=f#4 v=0
28672 On ch=1 n=a#4 v=10
28672 On ch=1 n=d#5 v=10
28672 On ch=1 n=a#5 v=31
28672 On ch=1 n=a#3 v=12
28672 On ch=1 n=f#4 v=12
29423 Par ch=1 c=64 v=127
29696 Off ch=1 n=a#4 v=0
29696 On ch=1 n=g#5 v=29
29696 Off ch=1 n=a#3 v=0
29696 Off ch=1 n=f#4 v=0
29746 Off ch=1 n=d#5 v=0
29746 Off ch=1 n=a#5 v=0
30208 On ch=1 n=a#5 v=33
30258 Off ch=1 n=g#5 v=0
30272 Par ch=1 c=64 v=0
30412 Par ch=1 c=64 v=127
30720 On ch=1 n=c#6 v=37
30728 Par ch=1 c=64 v=0
30770 Off ch=1 n=a#5 v=0
30891 Par ch=1 c=64 v=127
31061 On ch=1 n=b5 v=32
31111 Off ch=1 n=c#6 v=0
31218 Par ch=1 c=64 v=0
31417 Par ch=1 c=64 v=127
31573 On ch=1 n=f#5 v=29
31623 Off ch=1 n=b5 v=0
31744 Par ch=1 c=64 v=0
31744 Par ch=1 c=64 v=0
31744 Par ch=1 c=64 v=0
31744 Par ch=1 c=64 v=127
31744 Par ch=1 c=64 v=0
31744 On ch=1 n=g#5 v=27
31794 Off ch=1 n=f#5 v=0
31901 Par ch=1 c=64 v=0
32495 Par ch=1 c=64 v=127
32495 Par ch=1 c=64 v=127
32768 On ch=1 n=f#5 v=33
32818 Off ch=1 n=g#5 v=0
33280 On ch=1 n=g#5 v=35
33330 Off ch=1 n=f#5 v=0
33344 Par ch=1 c=64 v=0
33344 Par ch=1 c=64 v=0
33484 Par ch=1 c=64 v=127
33484 Par ch=1 c=64 v=127
33792 On ch=1 n=b5 v=36
33800 Par ch=1 c=64 v=0
33800 Par ch=1 c=64 v=0
33842 Off ch=1 n=g#5 v=0
33963 Par ch=1 c=64 v=127
33963 Par ch=1 c=64 v=127
34133 On ch=1 n=a#5 v=24
34183 Off ch=1 n=b5 v=0
34290 Par ch=1 c=64 v=0
34290 Par ch=1 c=64 v=0
34489 Par ch=1 c=64 v=127
34489 Par ch=1 c=64 v=127
34645 On ch=1 n=d#5 v=23
34695 Off ch=1 n=a#5 v=0
34816 Par ch=1 c=64 v=0
34816 Par ch=1 c=64 v=0
34816 Par ch=1 c=64 v=127
34816 Par ch=1 c=64 v=0
34816 Off ch=1 n=d#5 v=0
34816 On ch=1 n=f#4 v=14
34816 On ch=1 n=d#5 v=14
34816 On ch=1 n=f#5 v=25
34816 On ch=1 n=d#3 v=1
34816 On ch=1 n=a#3 v=1
34816 On ch=1 n=d#4 v=1
34980 Par ch=1 c=64 v=0
35348 Par ch=1 c=64 v=127
35840 Off ch=1 n=f#4 v=0
35840 Off ch=1 n=d#5 v=0
35840 Off ch=1 n=f#5 v=0
35840 On ch=1 n=f#4 v=10
35840 On ch=1 n=d#5 v=10
35840 On ch=1 n=f#5 v=22
35840 Off ch=1 n=d#3 v=0
35840 Off ch=1 n=a#3 v=0
35840 Off ch=1 n=d#4 v=0
35840 On ch=1 n=d#3 v=1
35840 On ch=1 n=a#3 v=1
35840 On ch=1 n=d#4 v=1
36864 Off ch=1 n=f#4 v=0
36864 Off ch=1 n=d#5 v=0
36864 Off ch=1 n=f#5 v=0
36864 On ch=1 n=f#4 v=3
36864 On ch=1 n=d#5 v=3
36864 On ch=1 n=f#5 v=11
36864 Off ch=1 n=d#3 v=0
36864 Off ch=1 n=a#3 v=0
36864 Off ch=1 n=d#4 v=0
36864 On ch=1 n=d#3 v=1
36864 On ch=1 n=a#3 v=1
36864 On ch=1 n=d#4 v=1
37888 Par ch=1 c=64 v=0
37888 Par ch=1 c=64 v=0
37888 Off ch=1 n=f#4 v=0
37888 Off ch=1 n=d#5 v=0
37888 Off ch=1 n=f#5 v=0
37888 Off ch=1 n=d#3 v=0
37888 Off ch=1 n=a#3 v=0
37888 Off ch=1 n=d#4 v=0
40960 Par ch=1 c=64 v=0
40960 Par ch=1 c=64 v=0
40963 Meta TrkEnd
TrkEnd
