MFile 1 2 1024
MTrk
0 TimeSig 1/4 24 8
0 KeySig 5 minor
0 Tempo 833333
1024 TimeSig 3/4 72 8
1024 Tempo 1090909
1536 Tempo 857142
2048 Tempo 800000
2560 Tempo 750000
3584 Tempo 1090909
3840 Tempo 857142
4096 Tempo 923076
5120 Tempo 800000
5632 Tempo 750000
6656 Tempo 1090909
6912 Tempo 857142
9216 Tempo 1200000
9728 Tempo 1000000
10752 Tempo 800000
13312 Tempo 1090909
13824 Tempo 857142
14336 Tempo 800000
14848 Tempo 750000
15872 Tempo 1090909
16128 Tempo 857142
16384 Tempo 923076
17408 Tempo 800000
17920 Tempo 750000
18944 Tempo 1090909
19200 Tempo 857142
21504 Tempo 1000000
22016 Tempo 1000000
22272 Tempo 1090909
23040 Tempo 800000
24064 Tempo 857142
24576 Tempo 1000000
25600 Tempo 1090909
26112 Tempo 857142
26624 Tempo 800000
27136 Tempo 750000
28160 Tempo 1090909
28416 Tempo 857142
29696 Tempo 800000
30208 Tempo 750000
31488 Tempo 857142
31744 Tempo 923076
32256 Tempo 750000
34304 Tempo 923076
34560 Tempo 857142
34816 Tempo 923076
35328 Tempo 750000
37632 Tempo 923076
37888 Tempo 1000000
38400 Tempo 857142
39936 Tempo 923076
40960 Tempo 1090909
41472 Tempo 923076
43008 Tempo 1200000
44032 Tempo 1000000
44544 Tempo 800000
50176 Tempo 1090909
51200 Tempo 800000
51712 Tempo 750000
52736 Tempo 1090909
52992 Tempo 857142
54272 Tempo 800000
54784 Tempo 750000
56064 Tempo 857142
56320 Tempo 923076
56832 Tempo 750000
58880 Tempo 923076
59136 Tempo 857142
59904 Tempo 750000
62464 Tempo 923076
63488 Tempo 800000
64000 Tempo 750000
65024 Tempo 1090909
65280 Tempo 857142
65536 Tempo 923076
66560 Tempo 800000
67072 Tempo 750000
68352 Tempo 857142
68608 Tempo 923076
69120 Tempo 722891
71168 Tempo 923076
71424 Tempo 857142
72192 Tempo 705882
74752 Tempo 923076
75264 Tempo 750000
75776 Tempo 705882
77568 Tempo 923076
78336 Tempo 705882
79872 Tempo 689655
80896 Tempo 857142
81920 Tempo 689655
82944 Tempo 750000
83712 Tempo 923076
83968 Tempo 1000000
84480 Tempo 750000
84992 Tempo 857142
86016 Tempo 923076
86528 Tempo 1000000
87040 Tempo 1000000
87552 Tempo 750000
88576 Tempo 750000
89600 Tempo 1200000
89856 Tempo 800000
90112 Tempo 923076
90624 Tempo 857142
91136 Tempo 800000
91648 Tempo 750000
92672 Tempo 1090909
93184 Tempo 923076
93696 Tempo 1000000
94208 Tempo 1090909
94720 Tempo 1200000
95232 Tempo 1333333
96000 Tempo 1500000
96256 Tempo 1714285
96768 Tempo 1500000
97280 Tempo 1714285
97792 Tempo 3000000
98304 Tempo 5000000
99328 Tempo 270270
102990 Meta TrkEnd
TrkEnd
MTrk
0 Meta TrkName "Instrument  1"
0 PrCh ch=1 p=1
0 Par ch=1 c=64 v=0
0 Par ch=1 c=64 v=0
1024 Par ch=1 c=64 v=127
1024 Par ch=1 c=64 v=127
1024 On ch=1 n=d#6 v=61
1536 Off ch=1 n=d#6 v=0
1536 On ch=1 n=d#3 v=19
2048 On ch=1 n=d#6 v=56
2048 Off ch=1 n=d#3 v=0
2048 On ch=1 n=g#3 v=19
2560 Off ch=1 n=g#3 v=0
2560 On ch=1 n=d#4 v=20
3072 Off ch=1 n=d#4 v=0
3072 On ch=1 n=b4 v=21
3584 Off ch=1 n=b4 v=0
3584 On ch=1 n=g#5 v=22
3840 Off ch=1 n=d#6 v=0
3840 On ch=1 n=d#6 v=58
4096 Par ch=1 c=64 v=127
4096 Par ch=1 c=64 v=0
4096 Par ch=1 c=64 v=0
4096 Off ch=1 n=d#6 v=0
4096 Off ch=1 n=g#5 v=0
4096 On ch=1 n=d#6 v=58
4338 Par ch=1 c=64 v=0
4608 On ch=1 n=d#3 v=20
4683 Par ch=1 c=64 v=127
5120 On ch=1 n=c#6 v=55
5120 Off ch=1 n=d#3 v=0
5120 On ch=1 n=a#3 v=23
5160 Off ch=1 n=d#6 v=0
5632 Off ch=1 n=a#3 v=0
5632 On ch=1 n=f#4 v=25
6144 Off ch=1 n=f#4 v=0
6144 On ch=1 n=a#4 v=28
6656 Off ch=1 n=a#4 v=0
6656 On ch=1 n=f#5 v=30
6912 On ch=1 n=b5 v=53
6952 Off ch=1 n=c#6 v=0
7168 Par ch=1 c=64 v=127
7168 Par ch=1 c=64 v=0
7168 Par ch=1 c=64 v=0
7168 Off ch=1 n=f#5 v=0
7168 On ch=1 n=d#6 v=59
7208 Off ch=1 n=b5 v=0
7410 Par ch=1 c=64 v=0
7680 On ch=1 n=d#3 v=22
7755 Par ch=1 c=64 v=127
8192 Off ch=1 n=d#3 v=0
8192 On ch=1 n=b3 v=24
8704 Off ch=1 n=b3 v=0
8704 On ch=1 n=g#4 v=25
9216 On ch=1 n=g#5 v=43
9216 Off ch=1 n=g#4 v=0
9216 On ch=1 n=g#4 v=22
9256 Off ch=1 n=d#6 v=0
9728 Off ch=1 n=g#4 v=0
9728 On ch=1 n=e5 v=23
9984 On ch=1 n=g5 v=38
10024 Off ch=1 n=g#5 v=0
10240 Par ch=1 c=64 v=127
10240 Par ch=1 c=64 v=0
10240 Par ch=1 c=64 v=0
10240 Off ch=1 n=e5 v=0
10240 On ch=1 n=a#5 v=46
10280 Off ch=1 n=g5 v=0
10482 Par ch=1 c=64 v=0
10752 On ch=1 n=d#3 v=12
10827 Par ch=1 c=64 v=127
11264 Off ch=1 n=d#3 v=0
11264 On ch=1 n=a#3 v=15
11776 Off ch=1 n=a#3 v=0
11776 On ch=1 n=g4 v=17
12288 Off ch=1 n=g4 v=0
12288 On ch=1 n=a#4 v=20
12800 Off ch=1 n=a#4 v=0
12800 On ch=1 n=d#5 v=22
13312 Par ch=1 c=64 v=127
13312 Par ch=1 c=64 v=127
13312 Par ch=1 c=64 v=0
13312 Par ch=1 c=64 v=0
13312 Par ch=1 c=64 v=0
13312 Off ch=1 n=d#5 v=0
13312 On ch=1 n=g#5 v=39
13352 Off ch=1 n=a#5 v=0
13554 Par ch=1 c=64 v=0
13554 Par ch=1 c=64 v=0
13824 On ch=1 n=d#3 v=28
13899 Par ch=1 c=64 v=127
13899 Par ch=1 c=64 v=127
14336 On ch=1 n=g#6 v=58
14336 Off ch=1 n=d#3 v=0
14336 On ch=1 n=c#4 v=28
14848 Off ch=1 n=c#4 v=0
14848 On ch=1 n=g#4 v=29
15360 Off ch=1 n=g#4 v=0
15360 On ch=1 n=e5 v=30
15872 Off ch=1 n=e5 v=0
15872 On ch=1 n=c#6 v=31
16128 Off ch=1 n=g#5 v=0
16128 Off ch=1 n=g#6 v=0
16128 On ch=1 n=g#6 v=60
16384 Par ch=1 c=64 v=127
16384 Par ch=1 c=64 v=0
16384 Par ch=1 c=64 v=127
16384 Par ch=1 c=64 v=0
16384 Par ch=1 c=64 v=0
16384 Par ch=1 c=64 v=0
16384 Off ch=1 n=g#6 v=0
16384 Off ch=1 n=c#6 v=0
16384 On ch=1 n=g#6 v=60
16626 Par ch=1 c=64 v=0
16626 Par ch=1 c=64 v=0
16896 On ch=1 n=d#3 v=29
16971 Par ch=1 c=64 v=127
16971 Par ch=1 c=64 v=127
17408 On ch=1 n=f#6 v=60
17408 Off ch=1 n=d#3 v=0
17408 On ch=1 n=d#4 v=32
17448 Off ch=1 n=g#6 v=0
17920 Off ch=1 n=d#4 v=0
17920 On ch=1 n=b4 v=34
18432 Off ch=1 n=b4 v=0
18432 On ch=1 n=d#5 v=37
18944 Off ch=1 n=d#5 v=0
18944 On ch=1 n=b5 v=39
19200 On ch=1 n=e6 v=62
19240 Off ch=1 n=f#6 v=0
19456 Par ch=1 c=64 v=127
19456 Par ch=1 c=64 v=0
19456 Par ch=1 c=64 v=127
19456 Par ch=1 c=64 v=0
19456 Par ch=1 c=64 v=0
19456 Par ch=1 c=64 v=0
19456 Off ch=1 n=b5 v=0
19456 On ch=1 n=g#6 v=64
19496 Off ch=1 n=e6 v=0
19698 Par ch=1 c=64 v=0
19698 Par ch=1 c=64 v=0
19968 On ch=1 n=d#3 v=31
20043 Par ch=1 c=64 v=127
20043 Par ch=1 c=64 v=127
20480 Off ch=1 n=d#3 v=0
20480 On ch=1 n=e4 v=33
20992 Off ch=1 n=e4 v=0
20992 On ch=1 n=c#5 v=34
21504 On ch=1 n=c#6 v=52
21504 Off ch=1 n=c#5 v=0
21504 On ch=1 n=c#5 v=31
21544 Off ch=1 n=g#6 v=0
22016 Off ch=1 n=c#5 v=0
22016 On ch=1 n=a5 v=32
22272 On ch=1 n=c6 v=47
22312 Off ch=1 n=c#6 v=0
22528 Par ch=1 c=64 v=127
22528 Par ch=1 c=64 v=0
22528 Par ch=1 c=64 v=127
22528 Par ch=1 c=64 v=0
22528 Par ch=1 c=64 v=0
22528 Par ch=1 c=64 v=0
22528 Off ch=1 n=a5 v=0
22528 On ch=1 n=d#6 v=55
22568 Off ch=1 n=c6 v=0
22770 Par ch=1 c=64 v=0
22770 Par ch=1 c=64 v=0
23040 On ch=1 n=d#3 v=21
23115 Par ch=1 c=64 v=127
23115 Par ch=1 c=64 v=127
23552 Off ch=1 n=d#3 v=0
23552 On ch=1 n=d#4 v=24
24064 Off ch=1 n=d#4 v=0
24064 On ch=1 n=c5 v=26
24576 Off ch=1 n=c5 v=0
24576 On ch=1 n=g#5 v=29
25088 Off ch=1 n=g#5 v=0
25088 On ch=1 n=g#3 v=21
25600 Par ch=1 c=64 v=127
25600 Par ch=1 c=64 v=127
25600 Par ch=1 c=64 v=0
25600 Par ch=1 c=64 v=0
25600 Par ch=1 c=64 v=0
25600 Off ch=1 n=g#3 v=0
25600 On ch=1 n=c#6 v=45
25640 Off ch=1 n=d#6 v=0
25842 Par ch=1 c=64 v=0
25842 Par ch=1 c=64 v=0
26112 On ch=1 n=e3 v=19
26187 Par ch=1 c=64 v=127
26187 Par ch=1 c=64 v=127
26624 On ch=1 n=g#5 v=46
26624 Off ch=1 n=e3 v=0
26624 On ch=1 n=a3 v=19
27136 Off ch=1 n=a3 v=0
27136 On ch=1 n=e4 v=20
27648 Off ch=1 n=e4 v=0
27648 On ch=1 n=c#5 v=21
28160 Off ch=1 n=c#5 v=0
28160 On ch=1 n=c#6 v=22
28416 Off ch=1 n=g#5 v=0
28416 Off ch=1 n=c#6 v=0
28416 On ch=1 n=g#5 v=48
28672 Par ch=1 c=64 v=127
28672 Par ch=1 c=64 v=0
28672 Par ch=1 c=64 v=127
28672 Par ch=1 c=64 v=0
28672 Par ch=1 c=64 v=0
28672 Par ch=1 c=64 v=0
28672 Off ch=1 n=g#5 v=0
28672 Off ch=1 n=c#6 v=0
28672 On ch=1 n=g#5 v=48
28914 Par ch=1 c=64 v=0
28914 Par ch=1 c=64 v=0
29184 On ch=1 n=d#3 v=20
29259 Par ch=1 c=64 v=127
29259 Par ch=1 c=64 v=127
29696 On ch=1 n=f#5 v=49
29696 Off ch=1 n=d#3 v=0
29696 On ch=1 n=a3 v=24
29736 Off ch=1 n=g#5 v=0
30208 Off ch=1 n=a3 v=0
30208 On ch=1 n=f#4 v=26
30720 Off ch=1 n=f#4 v=0
30720 On ch=1 n=c#5 v=30
31232 Off ch=1 n=c#5 v=0
31232 On ch=1 n=a5 v=32
31488 On ch=1 n=e5 v=52
31528 Off ch=1 n=f#5 v=0
31744 Par ch=1 c=64 v=127
31744 Par ch=1 c=64 v=127
31744 Par ch=1 c=64 v=0
31744 Par ch=1 c=64 v=127
31744 Par ch=1 c=64 v=0
31744 Par ch=1 c=64 v=0
31744 Par ch=1 c=64 v=0
31744 Par ch=1 c=64 v=0
31744 Off ch=1 n=a5 v=0
31744 On ch=1 n=f#5 v=55
31784 Off ch=1 n=e5 v=0
31986 Par ch=1 c=64 v=0
31986 Par ch=1 c=64 v=0
31986 Par ch=1 c=64 v=0
32256 On ch=1 n=c#3 v=36
32331 Par ch=1 c=64 v=127
32331 Par ch=1 c=64 v=127
32331 Par ch=1 c=64 v=127
32768 Off ch=1 n=f#5 v=0
32768 On ch=1 n=f#5 v=59
32768 Off ch=1 n=c#3 v=0
32768 On ch=1 n=f#3 v=28
33280 Off ch=1 n=f#3 v=0
33280 On ch=1 n=e4 v=30
33792 Off ch=1 n=e4 v=0
33792 On ch=1 n=a4 v=32
34304 Off ch=1 n=a4 v=0
34304 On ch=1 n=a5 v=33
34560 Off ch=1 n=f#5 v=0
34560 On ch=1 n=f#5 v=54
34816 Par ch=1 c=64 v=127
34816 Par ch=1 c=64 v=0
34816 Par ch=1 c=64 v=127
34816 Par ch=1 c=64 v=0
34816 Par ch=1 c=64 v=127
34816 Par ch=1 c=64 v=0
34816 Par ch=1 c=64 v=0
34816 Par ch=1 c=64 v=0
34816 Par ch=1 c=64 v=0
34816 Off ch=1 n=f#5 v=0
34816 Off ch=1 n=a5 v=0
34816 On ch=1 n=f#5 v=59
35058 Par ch=1 c=64 v=0
35058 Par ch=1 c=64 v=0
35058 Par ch=1 c=64 v=0
35328 On ch=1 n=c3 v=33
35403 Par ch=1 c=64 v=127
35403 Par ch=1 c=64 v=127
35403 Par ch=1 c=64 v=127
35840 On ch=1 n=e5 v=56
35840 Off ch=1 n=c3 v=0
35840 On ch=1 n=f#3 v=29
35880 Off ch=1 n=f#5 v=0
36352 Off ch=1 n=f#3 v=0
36352 On ch=1 n=e4 v=31
36864 Off ch=1 n=e4 v=0
36864 On ch=1 n=a4 v=34
37376 Off ch=1 n=a4 v=0
37376 On ch=1 n=a5 v=36
37632 On ch=1 n=f#5 v=56
37672 Off ch=1 n=e5 v=0
37888 Par ch=1 c=64 v=127
37888 Par ch=1 c=64 v=0
37888 Par ch=1 c=64 v=127
37888 Par ch=1 c=64 v=0
37888 Par ch=1 c=64 v=127
37888 Par ch=1 c=64 v=0
37888 Par ch=1 c=64 v=127
37888 Par ch=1 c=64 v=0
37888 Par ch=1 c=64 v=0
37888 Off ch=1 n=a5 v=0
37888 On ch=1 n=g#5 v=60
37928 Off ch=1 n=f#5 v=0
38130 Par ch=1 c=64 v=0
38130 Par ch=1 c=64 v=0
38130 Par ch=1 c=64 v=0
38130 Par ch=1 c=64 v=0
38400 On ch=1 n=b2 v=33
38475 Par ch=1 c=64 v=127
38475 Par ch=1 c=64 v=127
38475 Par ch=1 c=64 v=127
38475 Par ch=1 c=64 v=127
38912 Off ch=1 n=b2 v=0
38912 On ch=1 n=e3 v=29
39424 Off ch=1 n=e3 v=0
39424 On ch=1 n=e4 v=31
39936 On ch=1 n=d#5 v=55
39936 Off ch=1 n=e4 v=0
39936 On ch=1 n=g#4 v=34
39976 Off ch=1 n=g#5 v=0
40448 Off ch=1 n=g#4 v=0
40448 On ch=1 n=g#5 v=36
40960 Par ch=1 c=64 v=127
40960 Par ch=1 c=64 v=0
40960 Par ch=1 c=64 v=127
40960 Par ch=1 c=64 v=0
40960 Par ch=1 c=64 v=127
40960 Par ch=1 c=64 v=0
40960 Par ch=1 c=64 v=127
40960 Off ch=1 n=g#5 v=0
40960 On ch=1 n=d5 v=57
41000 Off ch=1 n=d#5 v=0
41202 Par ch=1 c=64 v=0
41202 Par ch=1 c=64 v=0
41202 Par ch=1 c=64 v=0
41202 Par ch=1 c=64 v=0
41472 On ch=1 n=a#2 v=33
41547 Par ch=1 c=64 v=127
41547 Par ch=1 c=64 v=127
41547 Par ch=1 c=64 v=127
41547 Par ch=1 c=64 v=127
41984 On ch=1 n=a#5 v=53
41984 Off ch=1 n=a#2 v=0
41984 On ch=1 n=a#3 v=29
42024 Off ch=1 n=d5 v=0
42496 Off ch=1 n=a#3 v=0
42496 On ch=1 n=e4 v=26
43008 On ch=1 n=g#5 v=48
43008 Off ch=1 n=e4 v=0
43008 On ch=1 n=d5 v=23
43048 Off ch=1 n=a#5 v=0
43520 Off ch=1 n=d5 v=0
43520 On ch=1 n=a#5 v=20
44032 Par ch=1 c=64 v=127
44032 Off ch=1 n=g#5 v=0
44032 Off ch=1 n=a#5 v=0
44032 On ch=1 n=g#5 v=44
44274 Par ch=1 c=64 v=0
44544 On ch=1 n=d#3 v=16
44619 Par ch=1 c=64 v=127
45056 Off ch=1 n=d#3 v=0
45056 On ch=1 n=a#3 v=16
45568 Off ch=1 n=a#3 v=0
45568 On ch=1 n=e4 v=16
46080 Off ch=1 n=e4 v=0
46080 On ch=1 n=a#4 v=16
46592 Off ch=1 n=a#4 v=0
46592 On ch=1 n=d5 v=16
47104 Par ch=1 c=64 v=127
47104 Par ch=1 c=64 v=127
47104 Off ch=1 n=d5 v=0
47104 On ch=1 n=g5 v=29
47144 Off ch=1 n=g#5 v=0
47346 Par ch=1 c=64 v=0
47346 Par ch=1 c=64 v=0
47616 On ch=1 n=d#3 v=14
47691 Par ch=1 c=64 v=127
47691 Par ch=1 c=64 v=127
48128 Off ch=1 n=d#3 v=0
48128 On ch=1 n=a#3 v=14
48640 Off ch=1 n=a#3 v=0
48640 On ch=1 n=d#4 v=14
49152 Off ch=1 n=d#4 v=0
49152 On ch=1 n=a#4 v=14
49664 Off ch=1 n=a#4 v=0
49664 On ch=1 n=d#5 v=14
50176 Par ch=1 c=64 v=127
50176 Par ch=1 c=64 v=127
50176 Par ch=1 c=64 v=0
50176 Par ch=1 c=64 v=127
50176 Par ch=1 c=64 v=0
50176 Par ch=1 c=64 v=0
50176 Off ch=1 n=g5 v=0
50176 Off ch=1 n=d#5 v=0
50176 On ch=1 n=g#5 v=42
50418 Par ch=1 c=64 v=0
50418 Par ch=1 c=64 v=0
50418 Par ch=1 c=64 v=0
50688 On ch=1 n=e3 v=19
50763 Par ch=1 c=64 v=127
50763 Par ch=1 c=64 v=127
50763 Par ch=1 c=64 v=127
51200 Off ch=1 n=g#5 v=0
51200 On ch=1 n=g#5 v=46
51200 Off ch=1 n=e3 v=0
51200 On ch=1 n=a3 v=19
51712 Off ch=1 n=a3 v=0
51712 On ch=1 n=e4 v=20
52224 Off ch=1 n=e4 v=0
52224 On ch=1 n=c#5 v=21
52736 Off ch=1 n=c#5 v=0
52736 On ch=1 n=c#6 v=22
52992 Off ch=1 n=g#5 v=0
52992 On ch=1 n=g#5 v=45
53248 Par ch=1 c=64 v=127
53248 Par ch=1 c=64 v=0
53248 Par ch=1 c=64 v=127
53248 Par ch=1 c=64 v=0
53248 Par ch=1 c=64 v=127
53248 Par ch=1 c=64 v=0
53248 Par ch=1 c=64 v=0
53248 Off ch=1 n=g#5 v=0
53248 Off ch=1 n=c#6 v=0
53248 On ch=1 n=g#5 v=48
53490 Par ch=1 c=64 v=0
53490 Par ch=1 c=64 v=0
53490 Par ch=1 c=64 v=0
53760 On ch=1 n=d#3 v=20
53835 Par ch=1 c=64 v=127
53835 Par ch=1 c=64 v=127
53835 Par ch=1 c=64 v=127
54272 Off ch=1 n=g#5 v=0
54272 On ch=1 n=f#5 v=49
54272 Off ch=1 n=d#3 v=0
54272 On ch=1 n=a3 v=24
54784 Off ch=1 n=a3 v=0
54784 On ch=1 n=f#4 v=26
55296 Off ch=1 n=f#4 v=0
55296 On ch=1 n=c#5 v=30
55808 Off ch=1 n=c#5 v=0
55808 On ch=1 n=c#6 v=32
56064 Off ch=1 n=f#5 v=0
56064 On ch=1 n=e5 v=52
56320 Par ch=1 c=64 v=127
56320 Par ch=1 c=64 v=127
56320 Par ch=1 c=64 v=0
56320 Par ch=1 c=64 v=127
56320 Par ch=1 c=64 v=0
56320 Par ch=1 c=64 v=127
56320 Par ch=1 c=64 v=0
56320 Par ch=1 c=64 v=0
56320 Par ch=1 c=64 v=0
56320 Off ch=1 n=e5 v=0
56320 Off ch=1 n=c#6 v=0
56320 On ch=1 n=g#5 v=55
56562 Par ch=1 c=64 v=0
56562 Par ch=1 c=64 v=0
56562 Par ch=1 c=64 v=0
56562 Par ch=1 c=64 v=0
56832 On ch=1 n=c#3 v=36
56907 Par ch=1 c=64 v=127
56907 Par ch=1 c=64 v=127
56907 Par ch=1 c=64 v=127
56907 Par ch=1 c=64 v=127
57344 Off ch=1 n=g#5 v=0
57344 On ch=1 n=f#5 v=59
57344 Off ch=1 n=c#3 v=0
57344 On ch=1 n=f#3 v=28
57856 Off ch=1 n=f#3 v=0
57856 On ch=1 n=e4 v=30
58368 Off ch=1 n=e4 v=0
58368 On ch=1 n=a4 v=32
58880 Off ch=1 n=a4 v=0
58880 On ch=1 n=a5 v=33
59136 Off ch=1 n=f#5 v=0
59136 On ch=1 n=e5 v=52
59392 Par ch=1 c=64 v=127
59392 Par ch=1 c=64 v=0
59392 Par ch=1 c=64 v=127
59392 Par ch=1 c=64 v=0
59392 Par ch=1 c=64 v=127
59392 Par ch=1 c=64 v=0
59392 Par ch=1 c=64 v=127
59392 Par ch=1 c=64 v=0
59392 Par ch=1 c=64 v=0
59392 Par ch=1 c=64 v=0
59392 Off ch=1 n=e5 v=0
59392 Off ch=1 n=a5 v=0
59392 On ch=1 n=f#5 v=54
59634 Par ch=1 c=64 v=0
59634 Par ch=1 c=64 v=0
59634 Par ch=1 c=64 v=0
59634 Par ch=1 c=64 v=0
59904 On ch=1 n=c3 v=33
59979 Par ch=1 c=64 v=127
59979 Par ch=1 c=64 v=127
59979 Par ch=1 c=64 v=127
59979 Par ch=1 c=64 v=127
60416 Off ch=1 n=c3 v=0
60416 On ch=1 n=f#3 v=29
60928 Off ch=1 n=f#3 v=0
60928 On ch=1 n=e4 v=31
61440 Off ch=1 n=e4 v=0
61440 On ch=1 n=a4 v=34
61952 Off ch=1 n=a4 v=0
61952 On ch=1 n=a5 v=36
62464 Par ch=1 c=64 v=127
62464 Par ch=1 c=64 v=127
62464 Par ch=1 c=64 v=0
62464 Par ch=1 c=64 v=127
62464 Par ch=1 c=64 v=127
62464 Par ch=1 c=64 v=0
62464 Par ch=1 c=64 v=0
62464 Off ch=1 n=f#5 v=0
62464 Off ch=1 n=a5 v=0
62464 On ch=1 n=e5 v=53
62706 Par ch=1 c=64 v=0
62706 Par ch=1 c=64 v=0
62706 Par ch=1 c=64 v=0
62706 Par ch=1 c=64 v=0
62976 On ch=1 n=c3 v=33
63051 Par ch=1 c=64 v=127
63051 Par ch=1 c=64 v=127
63051 Par ch=1 c=64 v=127
63051 Par ch=1 c=64 v=127
63488 Off ch=1 n=e5 v=0
63488 On ch=1 n=e5 v=57
63488 Off ch=1 n=c3 v=0
63488 On ch=1 n=f3 v=33
64000 Off ch=1 n=f3 v=0
64000 On ch=1 n=e4 v=34
64512 Off ch=1 n=e4 v=0
64512 On ch=1 n=a4 v=35
65024 Off ch=1 n=a4 v=0
65024 On ch=1 n=a5 v=36
65280 Off ch=1 n=e5 v=0
65280 On ch=1 n=e5 v=59
65536 Par ch=1 c=64 v=127
65536 Par ch=1 c=64 v=0
65536 Par ch=1 c=64 v=127
65536 Par ch=1 c=64 v=0
65536 Par ch=1 c=64 v=127
65536 Par ch=1 c=64 v=0
65536 Par ch=1 c=64 v=0
65536 Off ch=1 n=e5 v=0
65536 Off ch=1 n=a5 v=0
65536 On ch=1 n=e5 v=59
65778 Par ch=1 c=64 v=0
65778 Par ch=1 c=64 v=0
65778 Par ch=1 c=64 v=0
66048 On ch=1 n=b2 v=27
66123 Par ch=1 c=64 v=127
66123 Par ch=1 c=64 v=127
66123 Par ch=1 c=64 v=127
66560 On ch=1 n=d5 v=56
66560 Off ch=1 n=b2 v=0
66560 On ch=1 n=f3 v=31
66600 Off ch=1 n=e5 v=0
67072 Off ch=1 n=f3 v=0
67072 On ch=1 n=d4 v=33
67584 Off ch=1 n=d4 v=0
67584 On ch=1 n=a4 v=37
68096 Off ch=1 n=a4 v=0
68096 On ch=1 n=a5 v=39
68352 On ch=1 n=c5 v=55
68392 Off ch=1 n=d5 v=0
68608 Par ch=1 c=64 v=127
68608 Par ch=1 c=64 v=127
68608 Par ch=1 c=64 v=0
68608 Par ch=1 c=64 v=127
68608 Par ch=1 c=64 v=0
68608 Par ch=1 c=64 v=127
68608 Par ch=1 c=64 v=0
68608 Par ch=1 c=64 v=0
68608 Par ch=1 c=64 v=0
68608 Off ch=1 n=a5 v=0
68608 On ch=1 n=e5 v=55
68648 Off ch=1 n=c5 v=0
68850 Par ch=1 c=64 v=0
68850 Par ch=1 c=64 v=0
68850 Par ch=1 c=64 v=0
68850 Par ch=1 c=64 v=0
69120 On ch=1 n=a2 v=43
69195 Par ch=1 c=64 v=127
69195 Par ch=1 c=64 v=127
69195 Par ch=1 c=64 v=127
69195 Par ch=1 c=64 v=127
69632 On ch=1 n=d5 v=59
69632 Off ch=1 n=a2 v=0
69632 On ch=1 n=d3 v=35
69672 Off ch=1 n=e5 v=0
70144 Off ch=1 n=d3 v=0
70144 On ch=1 n=c4 v=37
70656 Off ch=1 n=c4 v=0
70656 On ch=1 n=f4 v=39
71168 Off ch=1 n=f4 v=0
71168 On ch=1 n=f5 v=40
71424 On ch=1 n=c5 v=59
71464 Off ch=1 n=d5 v=0
71680 Par ch=1 c=64 v=127
71680 Par ch=1 c=64 v=127
71680 Par ch=1 c=64 v=0
71680 Par ch=1 c=64 v=127
71680 Par ch=1 c=64 v=0
71680 Par ch=1 c=64 v=127
71680 Par ch=1 c=64 v=127
71680 Par ch=1 c=64 v=0
71680 Par ch=1 c=64 v=127
71680 Par ch=1 c=64 v=0
71680 Par ch=1 c=64 v=127
71680 Par ch=1 c=64 v=0
71680 Par ch=1 c=64 v=127
71680 Par ch=1 c=64 v=0
71680 Par ch=1 c=64 v=0
71680 Par ch=1 c=64 v=0
71680 Off ch=1 n=f5 v=0
71680 On ch=1 n=d5 v=61
71720 Off ch=1 n=c5 v=0
71922 Par ch=1 c=64 v=0
71922 Par ch=1 c=64 v=0
71922 Par ch=1 c=64 v=0
71922 Par ch=1 c=64 v=0
71922 Par ch=1 c=64 v=0
71922 Par ch=1 c=64 v=0
71922 Par ch=1 c=64 v=0
71922 Par ch=1 c=64 v=0
72192 On ch=1 n=g#2 v=46
72267 Par ch=1 c=64 v=127
72267 Par ch=1 c=64 v=127
72267 Par ch=1 c=64 v=127
72267 Par ch=1 c=64 v=127
72267 Par ch=1 c=64 v=127
72267 Par ch=1 c=64 v=127
72267 Par ch=1 c=64 v=127
72267 Par ch=1 c=64 v=127
72704 Off ch=1 n=g#2 v=0
72704 On ch=1 n=d3 v=42
73216 Off ch=1 n=d3 v=0
73216 On ch=1 n=c4 v=44
73728 Off ch=1 n=c4 v=0
73728 On ch=1 n=f4 v=47
74240 Off ch=1 n=f4 v=0
74240 On ch=1 n=f5 v=49
74752 Par ch=1 c=64 v=127
74752 Par ch=1 c=64 v=127
74752 Par ch=1 c=64 v=0
74752 Par ch=1 c=64 v=127
74752 Par ch=1 c=64 v=0
74752 Par ch=1 c=64 v=127
74752 Off ch=1 n=d5 v=0
74752 Off ch=1 n=f5 v=0
74752 On ch=1 n=c5 v=64
74994 Par ch=1 c=64 v=0
74994 Par ch=1 c=64 v=0
74994 Par ch=1 c=64 v=0
74994 Par ch=1 c=64 v=0
75264 On ch=1 n=g#2 v=44
75339 Par ch=1 c=64 v=127
75339 Par ch=1 c=64 v=127
75339 Par ch=1 c=64 v=127
75339 Par ch=1 c=64 v=127
75776 Off ch=1 n=c5 v=0
75776 On ch=1 n=c5 v=61
75776 Off ch=1 n=g#2 v=0
75776 On ch=1 n=d#3 v=45
76288 Off ch=1 n=d#3 v=0
76288 On ch=1 n=d#4 v=45
76800 Off ch=1 n=d#4 v=0
76800 On ch=1 n=d#4 v=46
77312 Off ch=1 n=d#4 v=0
77312 On ch=1 n=d#5 v=47
77568 Off ch=1 n=c5 v=0
77568 On ch=1 n=c5 v=69
77824 Par ch=1 c=64 v=127
77824 Par ch=1 c=64 v=127
77824 Par ch=1 c=64 v=0
77824 Par ch=1 c=64 v=127
77824 Par ch=1 c=64 v=0
77824 Par ch=1 c=64 v=127
77824 Off ch=1 n=c5 v=0
77824 Off ch=1 n=d#5 v=0
77824 On ch=1 n=c5 v=69
78066 Par ch=1 c=64 v=0
78066 Par ch=1 c=64 v=0
78066 Par ch=1 c=64 v=0
78066 Par ch=1 c=64 v=0
78336 On ch=1 n=g2 v=48
78411 Par ch=1 c=64 v=127
78411 Par ch=1 c=64 v=127
78411 Par ch=1 c=64 v=127
78411 Par ch=1 c=64 v=127
78848 On ch=1 n=b4 v=65
78848 On ch=1 n=g3 v=49
78888 Off ch=1 n=c5 v=0
79053 Par ch=1 c=64 v=0
79360 Off ch=1 n=g2 v=0
79360 On ch=1 n=d#4 v=50
79380 Par ch=1 c=64 v=127
79872 On ch=1 n=b5 v=66
79872 Off ch=1 n=g3 v=0
79872 Off ch=1 n=d#4 v=0
79872 On ch=1 n=d#4 v=51
79912 Off ch=1 n=b4 v=0
80384 Off ch=1 n=d#4 v=0
80384 On ch=1 n=d#5 v=51
80896 Par ch=1 c=64 v=127
80896 Par ch=1 c=64 v=127
80896 Par ch=1 c=64 v=0
80896 Par ch=1 c=64 v=127
80896 Par ch=1 c=64 v=0
80896 Par ch=1 c=64 v=127
80896 Off ch=1 n=d#5 v=0
80896 On ch=1 n=a#5 v=71
80936 Off ch=1 n=b5 v=0
81138 Par ch=1 c=64 v=0
81138 Par ch=1 c=64 v=0
81138 Par ch=1 c=64 v=0
81138 Par ch=1 c=64 v=0
81408 On ch=1 n=f#2 v=53
81483 Par ch=1 c=64 v=127
81483 Par ch=1 c=64 v=127
81483 Par ch=1 c=64 v=127
81483 Par ch=1 c=64 v=127
81920 Off ch=1 n=a#5 v=0
81920 On ch=1 n=a#4 v=69
81920 Off ch=1 n=f#2 v=0
81920 On ch=1 n=f#3 v=53
82432 Off ch=1 n=f#3 v=0
82432 On ch=1 n=d#4 v=54
82944 Off ch=1 n=d#4 v=0
82944 On ch=1 n=d#4 v=55
83456 Off ch=1 n=d#4 v=0
83456 On ch=1 n=d#5 v=56
83712 Off ch=1 n=a#4 v=0
83712 On ch=1 n=a#4 v=67
83968 Par ch=1 c=64 v=127
83968 Par ch=1 c=64 v=127
83968 Par ch=1 c=64 v=0
83968 Par ch=1 c=64 v=127
83968 Par ch=1 c=64 v=0
83968 Par ch=1 c=64 v=127
83968 Off ch=1 n=a#4 v=0
83968 Off ch=1 n=d#5 v=0
83968 On ch=1 n=a#4 v=66
84210 Par ch=1 c=64 v=0
84210 Par ch=1 c=64 v=0
84210 Par ch=1 c=64 v=0
84210 Par ch=1 c=64 v=0
84480 On ch=1 n=e2 v=57
84555 Par ch=1 c=64 v=127
84555 Par ch=1 c=64 v=127
84555 Par ch=1 c=64 v=127
84555 Par ch=1 c=64 v=127
84992 Off ch=1 n=a#4 v=0
84992 On ch=1 n=g#4 v=66
84992 Off ch=1 n=e2 v=0
84992 On ch=1 n=e3 v=58
85504 Off ch=1 n=e3 v=0
85504 On ch=1 n=a#3 v=59
86016 Off ch=1 n=g#4 v=0
86016 On ch=1 n=d5 v=61
86016 On ch=1 n=g#5 v=61
86016 On ch=1 n=d6 v=76
86016 Off ch=1 n=a#3 v=0
86016 On ch=1 n=g#4 v=59
86528 Off ch=1 n=g#4 v=0
86528 On ch=1 n=d5 v=60
87040 Par ch=1 c=64 v=127
87040 Par ch=1 c=64 v=127
87040 Par ch=1 c=64 v=127
87040 Par ch=1 c=64 v=0
87040 Par ch=1 c=64 v=127
87040 Par ch=1 c=64 v=0
87040 Par ch=1 c=64 v=127
87040 Par ch=1 c=64 v=0
87040 Off ch=1 n=d5 v=0
87040 Off ch=1 n=g#5 v=0
87040 Off ch=1 n=d6 v=0
87040 Off ch=1 n=d5 v=0
87040 On ch=1 n=d#5 v=62
87040 On ch=1 n=g#5 v=62
87040 On ch=1 n=d#6 v=85
87282 Par ch=1 c=64 v=0
87282 Par ch=1 c=64 v=0
87282 Par ch=1 c=64 v=0
87282 Par ch=1 c=64 v=0
87282 Par ch=1 c=64 v=0
87552 On ch=1 n=d#2 v=33
87552 On ch=1 n=d#3 v=55
87627 Par ch=1 c=64 v=127
87627 Par ch=1 c=64 v=127
87627 Par ch=1 c=64 v=127
87627 Par ch=1 c=64 v=127
87627 Par ch=1 c=64 v=127
88064 Off ch=1 n=d#6 v=0
88064 On ch=1 n=d#6 v=85
88064 On ch=1 n=g#3 v=44
88576 Off ch=1 n=g#3 v=0
88576 On ch=1 n=d#4 v=49
89088 Off ch=1 n=d#4 v=0
89088 On ch=1 n=b4 v=55
89600 Off ch=1 n=b4 v=0
89600 On ch=1 n=g#5 v=60
89856 Off ch=1 n=d#6 v=0
89856 On ch=1 n=d#6 v=78
90112 Par ch=1 c=64 v=127
90112 Par ch=1 c=64 v=0
90112 Par ch=1 c=64 v=127
90112 Par ch=1 c=64 v=127
90112 Par ch=1 c=64 v=0
90112 Par ch=1 c=64 v=127
90112 Par ch=1 c=64 v=0
90112 Par ch=1 c=64 v=127
90112 Par ch=1 c=64 v=0
90112 Off ch=1 n=d#5 v=0
90112 Off ch=1 n=g#5 v=0
90112 Off ch=1 n=d#6 v=0
90112 Off ch=1 n=g#5 v=0
90112 On ch=1 n=d#6 v=84
90112 On ch=1 n=d#5 v=62
90112 On ch=1 n=f#5 v=62
90354 Par ch=1 c=64 v=0
90354 Par ch=1 c=64 v=0
90354 Par ch=1 c=64 v=0
90354 Par ch=1 c=64 v=0
90354 Par ch=1 c=64 v=0
90624 Off ch=1 n=d#2 v=0
90624 Off ch=1 n=d#3 v=0
90624 On ch=1 n=d#2 v=33
90624 On ch=1 n=d#3 v=55
90699 Par ch=1 c=64 v=127
90699 Par ch=1 c=64 v=127
90699 Par ch=1 c=64 v=127
90699 Par ch=1 c=64 v=127
90699 Par ch=1 c=64 v=127
91136 Off ch=1 n=d#6 v=0
91136 On ch=1 n=c#6 v=76
91136 Off ch=1 n=d#2 v=0
91136 Off ch=1 n=d#3 v=0
91136 On ch=1 n=a#3 v=44
91648 Off ch=1 n=a#3 v=0
91648 On ch=1 n=f#4 v=49
92160 Off ch=1 n=f#4 v=0
92160 On ch=1 n=a#4 v=55
92672 Off ch=1 n=a#4 v=0
92672 On ch=1 n=f#5 v=60
92928 Off ch=1 n=c#6 v=0
92928 On ch=1 n=b5 v=75
93184 Par ch=1 c=64 v=127
93184 Par ch=1 c=64 v=0
93184 Par ch=1 c=64 v=127
93184 Par ch=1 c=64 v=127
93184 Par ch=1 c=64 v=0
93184 Par ch=1 c=64 v=127
93184 Par ch=1 c=64 v=0
93184 Par ch=1 c=64 v=127
93184 Par ch=1 c=64 v=0
93184 Off ch=1 n=d#5 v=0
93184 Off ch=1 n=f#5 v=0
93184 Off ch=1 n=b5 v=0
93184 Off ch=1 n=f#5 v=0
93184 On ch=1 n=e5 v=68
93184 On ch=1 n=g#5 v=68
93184 On ch=1 n=d#6 v=82
93426 Par ch=1 c=64 v=0
93426 Par ch=1 c=64 v=0
93426 Par ch=1 c=64 v=0
93426 Par ch=1 c=64 v=0
93426 Par ch=1 c=64 v=0
93696 On ch=1 n=d#2 v=29
93696 On ch=1 n=d#3 v=54
93771 Par ch=1 c=64 v=127
93771 Par ch=1 c=64 v=127
93771 Par ch=1 c=64 v=127
93771 Par ch=1 c=64 v=127
93771 Par ch=1 c=64 v=127
94208 Off ch=1 n=d#2 v=0
94208 Off ch=1 n=d#3 v=0
94208 On ch=1 n=b3 v=44
94720 Off ch=1 n=b3 v=0
94720 On ch=1 n=g#4 v=40
95232 Off ch=1 n=e5 v=0
95232 Off ch=1 n=g#5 v=0
95232 Off ch=1 n=d#6 v=0
95232 On ch=1 n=g#5 v=68
95232 On ch=1 n=b4 v=39
95232 On ch=1 n=e5 v=39
95232 Off ch=1 n=g#4 v=0
95232 On ch=1 n=g#4 v=36
95744 Off ch=1 n=g#4 v=0
95744 On ch=1 n=e5 v=44
96000 Off ch=1 n=g#5 v=0
96000 On ch=1 n=g5 v=56
96256 Par ch=1 c=64 v=127
96256 Par ch=1 c=64 v=127
96256 Par ch=1 c=64 v=0
96256 Par ch=1 c=64 v=127
96256 Par ch=1 c=64 v=0
96256 Par ch=1 c=64 v=127
96256 Off ch=1 n=b4 v=0
96256 Off ch=1 n=e5 v=0
96256 Off ch=1 n=g5 v=0
96256 Off ch=1 n=e5 v=0
96256 On ch=1 n=a#4 v=36
96256 On ch=1 n=d#5 v=36
96256 On ch=1 n=g5 v=36
96256 On ch=1 n=a#5 v=58
96498 Par ch=1 c=64 v=0
96498 Par ch=1 c=64 v=0
96498 Par ch=1 c=64 v=0
96498 Par ch=1 c=64 v=0
96768 On ch=1 n=d#2 v=19
96768 On ch=1 n=d#3 v=33
96843 Par ch=1 c=64 v=127
96843 Par ch=1 c=64 v=127
96843 Par ch=1 c=64 v=127
96843 Par ch=1 c=64 v=127
97280 Off ch=1 n=d#2 v=0
97280 Off ch=1 n=d#3 v=0
97280 On ch=1 n=a#3 v=34
97792 Off ch=1 n=a#3 v=0
97792 On ch=1 n=g4 v=30
98304 Off ch=1 n=g4 v=0
98304 On ch=1 n=d#5 v=29
99328 Par ch=1 c=64 v=127
99328 Par ch=1 c=64 v=127
99328 Par ch=1 c=64 v=0
99328 Par ch=1 c=64 v=127
99328 Par ch=1 c=64 v=0
99328 Par ch=1 c=64 v=127
99328 Off ch=1 n=a#4 v=0
99328 Off ch=1 n=d#5 v=0
99328 Off ch=1 n=g5 v=0
99328 Off ch=1 n=a#5 v=0
99328 Off ch=1 n=d#5 v=0
99570 Par ch=1 c=64 v=0
99570 Par ch=1 c=64 v=0
99570 Par ch=1 c=64 v=0
99570 Par ch=1 c=64 v=0
99915 Par ch=1 c=64 v=127
99915 Par ch=1 c=64 v=127
99915 Par ch=1 c=64 v=127
99915 Par ch=1 c=64 v=127
102400 Par ch=1 c=64 v=127
102400 Par ch=1 c=64 v=127
102400 Par ch=1 c=64 v=0
102400 Par ch=1 c=64 v=127
102400 Par ch=1 c=64 v=0
102400 Par ch=1 c=64 v=127
102642 Par ch=1 c=64 v=0
102642 Par ch=1 c=64 v=0
102642 Par ch=1 c=64 v=0
102642 Par ch=1 c=64 v=0
102987 Par ch=1 c=64 v=127
102987 Par ch=1 c=64 v=127
102987 Par ch=1 c=64 v=127
102987 Par ch=1 c=64 v=127
102990 Meta TrkEnd
TrkEnd
