MFile 1 2 1024
MTrk
0 TimeSig 6/8 36 8
0 KeySig -2 major
0 Tempo 434782
2048 Tempo 500000
2560 Tempo 571428
3072 TimeSig 9/8 36 8
3072 Tempo 666666
3584 Tempo 500000
4352 Tempo 444444
4608 Tempo 500000
5120 Tempo 444444
6144 Tempo 571428
6656 Tempo 444444
7680 Tempo 571428
8192 Tempo 500000
8960 Tempo 444444
9216 Tempo 571428
9728 Tempo 444444
11264 Tempo 500000
12288 Tempo 571428
13312 Tempo 571428
13824 Tempo 666666
14336 Tempo 571428
15360 Tempo 666666
15872 Tempo 571428
16896 Tempo 666666
17408 Tempo 571428
18432 Tempo 800000
18944 Tempo 666666
20480 Tempo 571428
20992 Tempo 666666
21504 Tempo 666666
22016 Tempo 500000
22784 Tempo 444444
23040 Tempo 500000
23552 Tempo 444444
24576 Tempo 571428
25088 Tempo 444444
26112 Tempo 571428
26624 Tempo 500000
27392 Tempo 444444
27648 Tempo 571428
28160 Tempo 444444
29696 Tempo 500000
32256 Tempo 666666
32768 Tempo 571428
33792 Tempo 666666
34304 Tempo 571428
34816 Tempo 666666
35328 Tempo 666666
35840 Tempo 571428
36864 Tempo 800000
37376 Tempo 666666
37888 Tempo 800000
38400 Tempo 1000000
38912 Tempo 666666
39424 Tempo 571428
39936 Tempo 500000
40960 Tempo 571428
41472 Tempo 666666
41984 Tempo 571428
43008 Tempo 666666
44032 Tempo 800000
45056 Tempo 571428
46080 Tempo 666666
46592 Tempo 571428
47616 Tempo 666666
48128 Tempo 571428
49152 Tempo 666666
50432 Tempo 571428
51200 Tempo 666666
52224 Tempo 731707
52736 Tempo 666666
54784 Tempo 571428
55296 Tempo 666666
56320 Tempo 571428
57344 Tempo 666666
57856 Tempo 571428
58368 Tempo 500000
59392 Tempo 571428
59904 Tempo 666666
60416 Tempo 500000
60928 Tempo 666666
61440 Tempo 571428
62464 Tempo 666666
62976 Tempo 571428
63488 Tempo 500000
64512 Tempo 666666
65024 Tempo 571428
66048 Tempo 666666
66560 Tempo 571428
67584 Tempo 500000
68608 Tempo 571428
69632 Tempo 500000
70144 Tempo 666666
70528 Tempo 800000
70656 Tempo 500000
71680 Tempo 571428
72192 Tempo 571428
72704 Tempo 500000
73728 Tempo 666666
74240 Tempo 571428
75264 Tempo 666666
75776 Tempo 571428
76288 Tempo 500000
76800 Tempo 571428
77312 Tempo 500000
79872 Tempo 571428
80384 Tempo 444444
81408 Tempo 500000
81920 Tempo 400000
82944 Tempo 444444
83456 Tempo 400000
84480 Tempo 500000
84992 Tempo 400000
86016 Tempo 444444
86528 Tempo 363636
87552 Tempo 444444
88064 Tempo 333333
90112 Tempo 500000
90624 Tempo 571428
91136 Tempo 363636
91648 Tempo 307692
93696 Tempo 444444
94208 Tempo 400000
95232 Tempo 500000
95744 Tempo 444444
96256 Tempo 571428
97280 Tempo 333333
98816 Tempo 363636
99328 Tempo 571428
99840 Tempo 666666
100352 Tempo 444444
101376 Tempo 571428
101888 Tempo 400000
103424 Tempo 444444
104448 Tempo 800000
104960 Tempo 571428
105728 Tempo 500000
105984 Tempo 500000
106496 Tempo 444444
107520 Tempo 571428
108032 Tempo 444444
108544 Tempo 500000
109056 Tempo 571428
109568 Tempo 444444
110336 Tempo 444444
110592 Tempo 571428
112128 Tempo 500000
112640 Tempo 500000
113152 Tempo 666666
114176 Tempo 500000
115200 Tempo 666666
115712 Tempo 500000
116224 Tempo 571428
116736 Tempo 666666
117248 Tempo 571428
121856 Tempo 666666
122368 Tempo 800000
122880 Tempo 895522
123392 Tempo 571428
124160 Tempo 500000
125952 Tempo 571428
126464 Tempo 500000
127488 Tempo 666666
128000 Tempo 571428
128768 Tempo 500000
129024 Tempo 571428
131584 Tempo 1000000
132096 Tempo 666666
135168 Tempo 666666
136192 Tempo 800000
140288 Tempo 666666
141312 Tempo 800000
141824 Tempo 571428
142336 Tempo 666666
144896 Tempo 800000
145920 Tempo 1000000
146432 Tempo 800000
146944 Tempo 731707
147456 Tempo 800000
150016 Tempo 1000000
150528 Tempo 800000
152064 Tempo 1000000
153088 Tempo 1333333
153600 Tempo 1621621
154624 Tempo 2000000
159744 Tempo 333333
164353 Meta TrkEnd
TrkEnd
MTrk
0 Meta TrkName "Instrument  1"
0 PrCh ch=1 p=1
0 Par ch=1 c=67 v=0
0 Par ch=1 c=64 v=0
0 Par ch=1 c=67 v=0
0 Par ch=1 c=64 v=0
2048 On ch=1 n=d6 v=70
2560 On ch=1 n=c6 v=70
2640 Off ch=1 n=d6 v=0
2872 On ch=1 n=c5 v=62
3072 Par ch=1 c=67 v=0
3072 Par ch=1 c=64 v=0
3072 Par ch=1 c=67 v=0
3072 Par ch=1 c=64 v=0
3072 On ch=1 n=a#5 v=53
3072 On ch=1 n=d#6 v=74
3072 On ch=1 n=f#3 v=53
3072 On ch=1 n=f#4 v=65
3152 Off ch=1 n=c6 v=0
3182 Par ch=1 c=64 v=127
3401 Par ch=1 c=64 v=0
3584 Off ch=1 n=a#5 v=0
3584 Off ch=1 n=d#6 v=0
3584 On ch=1 n=a#5 v=67
4016 Par ch=1 c=64 v=127
4096 Off ch=1 n=c5 v=0
4096 On ch=1 n=d#5 v=53
4352 Off ch=1 n=a#5 v=0
4352 On ch=1 n=c6 v=70
4608 Off ch=1 n=d#5 v=0
4608 Off ch=1 n=c6 v=0
4608 On ch=1 n=d5 v=53
4608 On ch=1 n=a#5 v=53
4608 On ch=1 n=d6 v=73
4674 Par ch=1 c=64 v=0
4937 Par ch=1 c=64 v=127
5120 Off ch=1 n=f#3 v=0
5120 Off ch=1 n=f#4 v=0
5120 On ch=1 n=f3 v=45
5120 On ch=1 n=f4 v=55
5200 Par ch=1 c=64 v=0
5354 Par ch=1 c=64 v=127
5632 Off ch=1 n=f3 v=0
5632 Off ch=1 n=f4 v=0
5632 On ch=1 n=f#3 v=49
5632 On ch=1 n=f#4 v=60
5749 Par ch=1 c=64 v=0
5903 Par ch=1 c=64 v=127
6144 Par ch=1 c=64 v=0
6144 Off ch=1 n=f#3 v=0
6144 Off ch=1 n=f#4 v=0
6144 On ch=1 n=a3 v=53
6144 On ch=1 n=a4 v=65
6429 Par ch=1 c=64 v=127
6656 Off ch=1 n=a#5 v=0
6656 Off ch=1 n=d6 v=0
6656 On ch=1 n=a#5 v=67
6656 Off ch=1 n=a3 v=0
6656 Off ch=1 n=a4 v=0
6656 On ch=1 n=g3 v=51
6656 On ch=1 n=g4 v=63
6736 Par ch=1 c=64 v=0
6978 Par ch=1 c=64 v=127
7168 Off ch=1 n=d5 v=0
7168 Off ch=1 n=a#5 v=0
7168 On ch=1 n=d5 v=53
7168 On ch=1 n=a5 v=67
7168 Off ch=1 n=g3 v=0
7168 Off ch=1 n=g4 v=0
7168 On ch=1 n=f3 v=49
7168 On ch=1 n=f4 v=60
7307 Par ch=1 c=64 v=0
7480 On ch=1 n=a4 v=62
7548 Par ch=1 c=64 v=127
7680 Par ch=1 c=67 v=0
7680 Par ch=1 c=64 v=127
7680 Par ch=1 c=67 v=0
7680 Par ch=1 c=64 v=0
7680 Off ch=1 n=d5 v=0
7680 Off ch=1 n=a5 v=0
7680 Off ch=1 n=f3 v=0
7680 Off ch=1 n=f4 v=0
7680 On ch=1 n=g5 v=53
7680 On ch=1 n=c6 v=74
7680 On ch=1 n=d#3 v=48
7680 On ch=1 n=d#4 v=59
8009 Par ch=1 c=64 v=0
8192 Off ch=1 n=g5 v=0
8192 Off ch=1 n=c6 v=0
8192 On ch=1 n=g5 v=67
8624 Par ch=1 c=64 v=127
8704 Off ch=1 n=a4 v=0
8704 On ch=1 n=c5 v=53
8960 Off ch=1 n=g5 v=0
8960 On ch=1 n=a5 v=70
9216 Off ch=1 n=c5 v=0
9216 Off ch=1 n=a5 v=0
9216 On ch=1 n=a#4 v=53
9216 On ch=1 n=a#5 v=73
9216 On ch=1 n=f#5 v=53
9282 Par ch=1 c=64 v=0
9545 Par ch=1 c=64 v=127
9728 Off ch=1 n=d#3 v=0
9728 Off ch=1 n=d#4 v=0
9728 On ch=1 n=c#3 v=47
9728 On ch=1 n=c#4 v=57
9808 Par ch=1 c=64 v=0
9962 Par ch=1 c=64 v=127
10240 Off ch=1 n=f#5 v=0
10240 On ch=1 n=f5 v=67
10240 Off ch=1 n=c#3 v=0
10240 Off ch=1 n=c#4 v=0
10240 On ch=1 n=d3 v=50
10240 On ch=1 n=d4 v=61
10357 Par ch=1 c=64 v=0
10511 Par ch=1 c=64 v=127
10752 Par ch=1 c=64 v=0
10752 Off ch=1 n=f5 v=0
10752 On ch=1 n=f5 v=53
10752 Off ch=1 n=d3 v=0
10752 Off ch=1 n=d4 v=0
10752 On ch=1 n=d#3 v=53
10752 On ch=1 n=d#4 v=65
11037 Par ch=1 c=64 v=127
11264 Off ch=1 n=f5 v=0
11264 Off ch=1 n=a#5 v=0
11264 On ch=1 n=a5 v=67
11344 Par ch=1 c=64 v=0
11586 Par ch=1 c=64 v=127
11776 Off ch=1 n=a#4 v=0
11776 Off ch=1 n=a5 v=0
11776 On ch=1 n=a#4 v=53
11776 On ch=1 n=g5 v=67
11776 Off ch=1 n=d#3 v=0
11776 Off ch=1 n=d#4 v=0
11776 On ch=1 n=d3 v=53
11776 On ch=1 n=d4 v=65
11915 Par ch=1 c=64 v=0
12088 On ch=1 n=g4 v=62
12156 Par ch=1 c=64 v=127
12288 Par ch=1 c=67 v=0
12288 Par ch=1 c=64 v=127
12288 Par ch=1 c=64 v=0
12288 Par ch=1 c=67 v=0
12288 Par ch=1 c=64 v=0
12288 Off ch=1 n=a#4 v=0
12288 Off ch=1 n=g5 v=0
12288 Off ch=1 n=d3 v=0
12288 Off ch=1 n=d4 v=0
12288 On ch=1 n=f5 v=53
12288 On ch=1 n=a#5 v=67
12288 On ch=1 n=c#3 v=51
12288 On ch=1 n=c#4 v=63
12617 Par ch=1 c=64 v=0
13232 Par ch=1 c=64 v=127
13312 Off ch=1 n=g4 v=0
13312 Off ch=1 n=f5 v=0
13312 Off ch=1 n=a#5 v=0
13312 On ch=1 n=a#4 v=53
13312 On ch=1 n=f5 v=67
13824 Off ch=1 n=a#4 v=0
13824 Off ch=1 n=f5 v=0
13824 On ch=1 n=a4 v=53
13824 On ch=1 n=d#5 v=53
13824 On ch=1 n=a5 v=67
13890 Par ch=1 c=64 v=0
14153 Par ch=1 c=64 v=127
14336 Off ch=1 n=c#3 v=0
14336 Off ch=1 n=c#4 v=0
14336 On ch=1 n=b2 v=46
14336 On ch=1 n=b3 v=56
14416 Par ch=1 c=64 v=0
14570 Par ch=1 c=64 v=127
14848 Off ch=1 n=a5 v=0
14848 On ch=1 n=g5 v=67
14848 Off ch=1 n=b2 v=0
14848 Off ch=1 n=b3 v=0
14848 On ch=1 n=c3 v=44
14848 On ch=1 n=c4 v=54
14965 Par ch=1 c=64 v=0
15119 Par ch=1 c=64 v=127
15360 Par ch=1 c=64 v=0
15360 Off ch=1 n=a4 v=0
15360 On ch=1 n=a#4 v=53
15360 Off ch=1 n=c3 v=0
15360 Off ch=1 n=c4 v=0
15360 On ch=1 n=c#3 v=42
15360 On ch=1 n=c#4 v=52
15645 Par ch=1 c=64 v=127
15872 Off ch=1 n=g5 v=0
15872 On ch=1 n=f5 v=67
15952 Par ch=1 c=64 v=0
16128 Off ch=1 n=a#4 v=0
16128 Off ch=1 n=d#5 v=0
16128 On ch=1 n=g4 v=53
16128 On ch=1 n=a#4 v=53
16194 Par ch=1 c=64 v=127
16384 Off ch=1 n=f5 v=0
16384 On ch=1 n=d#5 v=67
16523 Par ch=1 c=64 v=0
16764 Par ch=1 c=64 v=127
16896 Par ch=1 c=67 v=0
16896 Par ch=1 c=64 v=127
16896 Par ch=1 c=64 v=0
16896 Par ch=1 c=64 v=0
16896 Par ch=1 c=67 v=0
16896 Par ch=1 c=64 v=0
16896 Off ch=1 n=g4 v=0
16896 Off ch=1 n=a#4 v=0
16896 Off ch=1 n=d#5 v=0
16896 Off ch=1 n=c#3 v=0
16896 Off ch=1 n=c#4 v=0
16896 On ch=1 n=a#4 v=53
16896 On ch=1 n=d#5 v=66
16896 On ch=1 n=g4 v=53
16896 On ch=1 n=d3 v=44
16896 On ch=1 n=d4 v=56
17225 Par ch=1 c=64 v=0
17408 Off ch=1 n=g4 v=0
17408 On ch=1 n=a4 v=53
17840 Par ch=1 c=64 v=127
17920 Off ch=1 n=a4 v=0
17920 On ch=1 n=g4 v=53
18432 Off ch=1 n=a#4 v=0
18432 Off ch=1 n=d#5 v=0
18432 Off ch=1 n=g4 v=0
18432 On ch=1 n=a#4 v=50
18432 On ch=1 n=f#4 v=50
18432 On ch=1 n=d5 v=58
18498 Par ch=1 c=64 v=0
18761 Par ch=1 c=64 v=127
18944 Off ch=1 n=a#4 v=0
18944 On ch=1 n=g#4 v=47
19024 Par ch=1 c=64 v=0
19178 Par ch=1 c=64 v=127
19456 Off ch=1 n=g#4 v=0
19456 On ch=1 n=a#4 v=44
19573 Par ch=1 c=64 v=0
19727 Par ch=1 c=64 v=127
19968 Par ch=1 c=64 v=0
19968 Off ch=1 n=a#4 v=0
19968 On ch=1 n=f#4 v=34
19968 On ch=1 n=a4 v=40
19968 Off ch=1 n=f#4 v=0
19968 Off ch=1 n=d3 v=0
19968 Off ch=1 n=d4 v=0
20253 Par ch=1 c=64 v=127
20480 Off ch=1 n=f#4 v=0
20480 Off ch=1 n=a4 v=0
20480 Off ch=1 n=d5 v=0
20480 On ch=1 n=a5 v=65
20560 Par ch=1 c=64 v=0
20802 Par ch=1 c=64 v=127
20992 Off ch=1 n=a5 v=0
20992 On ch=1 n=g5 v=65
21131 Par ch=1 c=64 v=0
21304 On ch=1 n=g4 v=62
21304 On ch=1 n=f5 v=62
21372 Par ch=1 c=64 v=127
21504 Par ch=1 c=67 v=0
21504 Par ch=1 c=64 v=0
21504 Par ch=1 c=64 v=0
21504 Par ch=1 c=67 v=0
21504 Par ch=1 c=64 v=0
21504 Par ch=1 c=64 v=0
21504 Off ch=1 n=g5 v=0
21504 On ch=1 n=a#5 v=74
21504 On ch=1 n=c#3 v=53
21504 On ch=1 n=c#4 v=65
21614 Par ch=1 c=64 v=127
21833 Par ch=1 c=64 v=0
22016 Off ch=1 n=f5 v=0
22016 Off ch=1 n=a#5 v=0
22016 On ch=1 n=f5 v=67
22448 Par ch=1 c=64 v=127
22528 Off ch=1 n=g4 v=0
22528 On ch=1 n=a#4 v=53
22784 Off ch=1 n=f5 v=0
22784 On ch=1 n=g5 v=70
23040 Off ch=1 n=a#4 v=0
23040 Off ch=1 n=g5 v=0
23040 On ch=1 n=a4 v=53
23040 On ch=1 n=f5 v=53
23040 On ch=1 n=a5 v=73
23106 Par ch=1 c=64 v=0
23369 Par ch=1 c=64 v=127
23552 Off ch=1 n=c#3 v=0
23552 Off ch=1 n=c#4 v=0
23552 On ch=1 n=c3 v=45
23552 On ch=1 n=c4 v=55
23632 Par ch=1 c=64 v=0
23786 Par ch=1 c=64 v=127
24064 Off ch=1 n=c3 v=0
24064 Off ch=1 n=c4 v=0
24064 On ch=1 n=c#3 v=49
24064 On ch=1 n=c#4 v=60
24181 Par ch=1 c=64 v=0
24335 Par ch=1 c=64 v=127
24576 Par ch=1 c=64 v=0
24576 Off ch=1 n=c#3 v=0
24576 Off ch=1 n=c#4 v=0
24576 On ch=1 n=e3 v=53
24576 On ch=1 n=e4 v=65
24861 Par ch=1 c=64 v=127
25088 Off ch=1 n=f5 v=0
25088 Off ch=1 n=a5 v=0
25088 On ch=1 n=f5 v=67
25088 Off ch=1 n=e3 v=0
25088 Off ch=1 n=e4 v=0
25088 On ch=1 n=d3 v=51
25088 On ch=1 n=d4 v=63
25168 Par ch=1 c=64 v=0
25410 Par ch=1 c=64 v=127
25600 Off ch=1 n=a4 v=0
25600 Off ch=1 n=f5 v=0
25600 On ch=1 n=a4 v=53
25600 On ch=1 n=e5 v=67
25600 Off ch=1 n=d3 v=0
25600 Off ch=1 n=d4 v=0
25600 On ch=1 n=c3 v=49
25600 On ch=1 n=c4 v=60
25739 Par ch=1 c=64 v=0
25912 On ch=1 n=e4 v=62
25980 Par ch=1 c=64 v=127
26112 Par ch=1 c=67 v=0
26112 Par ch=1 c=64 v=127
26112 Par ch=1 c=64 v=0
26112 Par ch=1 c=67 v=0
26112 Par ch=1 c=64 v=0
26112 Par ch=1 c=64 v=0
26112 Off ch=1 n=a4 v=0
26112 Off ch=1 n=e5 v=0
26112 Off ch=1 n=c3 v=0
26112 Off ch=1 n=c4 v=0
26112 On ch=1 n=d5 v=53
26112 On ch=1 n=g5 v=74
26112 On ch=1 n=a#2 v=48
26112 On ch=1 n=a#3 v=59
26441 Par ch=1 c=64 v=0
26624 Off ch=1 n=d5 v=0
26624 Off ch=1 n=g5 v=0
26624 On ch=1 n=d5 v=67
27056 Par ch=1 c=64 v=127
27136 Off ch=1 n=e4 v=0
27136 On ch=1 n=g4 v=53
27392 Off ch=1 n=d5 v=0
27392 On ch=1 n=e5 v=70
27648 Off ch=1 n=g4 v=0
27648 Off ch=1 n=e5 v=0
27648 On ch=1 n=f4 v=53
27648 On ch=1 n=f5 v=73
27648 On ch=1 n=c#5 v=53
27714 Par ch=1 c=64 v=0
27977 Par ch=1 c=64 v=127
28160 Off ch=1 n=a#2 v=0
28160 Off ch=1 n=a#3 v=0
28160 On ch=1 n=g#2 v=47
28160 On ch=1 n=g#3 v=57
28240 Par ch=1 c=64 v=0
28394 Par ch=1 c=64 v=127
28672 Off ch=1 n=c#5 v=0
28672 On ch=1 n=c5 v=55
28672 Off ch=1 n=g#2 v=0
28672 Off ch=1 n=g#3 v=0
28672 On ch=1 n=a2 v=50
28672 On ch=1 n=a3 v=61
28789 Par ch=1 c=64 v=0
28943 Par ch=1 c=64 v=127
29184 Par ch=1 c=64 v=0
29184 Off ch=1 n=c5 v=0
29184 On ch=1 n=c5 v=53
29184 Off ch=1 n=a2 v=0
29184 Off ch=1 n=a3 v=0
29184 On ch=1 n=a#2 v=53
29184 On ch=1 n=a#3 v=65
29469 Par ch=1 c=64 v=127
29696 Off ch=1 n=c5 v=0
29696 Off ch=1 n=f5 v=0
29696 On ch=1 n=e5 v=67
29776 Par ch=1 c=64 v=0
30018 Par ch=1 c=64 v=127
30208 Off ch=1 n=f4 v=0
30208 Off ch=1 n=e5 v=0
30208 On ch=1 n=f4 v=53
30208 On ch=1 n=d5 v=67
30208 Off ch=1 n=a#2 v=0
30208 Off ch=1 n=a#3 v=0
30208 On ch=1 n=a2 v=53
30208 On ch=1 n=a3 v=65
30347 Par ch=1 c=64 v=0
30520 On ch=1 n=d4 v=50
30520 On ch=1 n=c5 v=50
30588 Par ch=1 c=64 v=127
30720 Par ch=1 c=67 v=0
30720 Par ch=1 c=64 v=127
30720 Par ch=1 c=64 v=0
30720 Par ch=1 c=64 v=0
30720 Par ch=1 c=67 v=0
30720 Par ch=1 c=64 v=0
30720 Par ch=1 c=64 v=0
30720 Off ch=1 n=f4 v=0
30720 Off ch=1 n=d5 v=0
30720 Off ch=1 n=a2 v=0
30720 Off ch=1 n=a3 v=0
30720 On ch=1 n=f5 v=67
30720 On ch=1 n=g#2 v=51
30720 On ch=1 n=g#3 v=63
31049 Par ch=1 c=64 v=0
31664 Par ch=1 c=64 v=127
31744 Off ch=1 n=d4 v=0
31744 Off ch=1 n=c5 v=0
31744 Off ch=1 n=f5 v=0
31744 On ch=1 n=f4 v=53
31744 On ch=1 n=c5 v=67
32256 Off ch=1 n=f4 v=0
32256 Off ch=1 n=c5 v=0
32256 On ch=1 n=d#4 v=53
32256 On ch=1 n=d#5 v=65
32256 On ch=1 n=c5 v=60
32256 Off ch=1 n=g#2 v=0
32256 Off ch=1 n=g#3 v=0
32256 On ch=1 n=g2 v=47
32256 On ch=1 n=g3 v=58
32322 Par ch=1 c=64 v=0
32585 Par ch=1 c=64 v=127
32768 Off ch=1 n=c5 v=0
32768 On ch=1 n=b4 v=57
32848 Par ch=1 c=64 v=0
33002 Par ch=1 c=64 v=127
33280 Off ch=1 n=b4 v=0
33280 On ch=1 n=a#4 v=53
33280 Off ch=1 n=g2 v=0
33280 Off ch=1 n=g3 v=0
33280 On ch=1 n=f#2 v=44
33280 On ch=1 n=f#3 v=54
33397 Par ch=1 c=64 v=0
33551 Par ch=1 c=64 v=127
33792 Par ch=1 c=64 v=0
33792 Off ch=1 n=a#4 v=0
33792 On ch=1 n=a4 v=50
33792 Off ch=1 n=f#2 v=0
33792 Off ch=1 n=f#3 v=0
33792 On ch=1 n=f2 v=42
33792 On ch=1 n=f3 v=52
34077 Par ch=1 c=64 v=127
34304 Off ch=1 n=d#5 v=0
34304 On ch=1 n=d5 v=58
34384 Par ch=1 c=64 v=0
34626 Par ch=1 c=64 v=127
34816 Off ch=1 n=a4 v=0
34816 Off ch=1 n=d#4 v=0
34816 Off ch=1 n=d5 v=0
34816 On ch=1 n=d#4 v=44
34816 On ch=1 n=c5 v=54
34955 Par ch=1 c=64 v=0
35196 Par ch=1 c=64 v=127
35328 Par ch=1 c=67 v=0
35328 Par ch=1 c=64 v=127
35328 Par ch=1 c=64 v=0
35328 Par ch=1 c=64 v=0
35328 Par ch=1 c=64 v=0
35328 Par ch=1 c=67 v=0
35328 Par ch=1 c=64 v=0
35328 Off ch=1 n=d#4 v=0
35328 Off ch=1 n=c5 v=0
35328 Off ch=1 n=f2 v=0
35328 Off ch=1 n=f3 v=0
35328 On ch=1 n=f#4 v=41
35328 On ch=1 n=c5 v=59
35328 On ch=1 n=d#4 v=41
35328 On ch=1 n=a#2 v=35
35328 On ch=1 n=a#3 v=47
35657 Par ch=1 c=64 v=0
35840 Off ch=1 n=d#4 v=0
35840 On ch=1 n=f4 v=40
36272 Par ch=1 c=64 v=127
36352 Off ch=1 n=f4 v=0
36352 On ch=1 n=d#4 v=39
36864 Off ch=1 n=f#4 v=0
36864 Off ch=1 n=c5 v=0
36864 Off ch=1 n=d#4 v=0
36864 On ch=1 n=f#4 v=37
36864 On ch=1 n=d4 v=37
36864 On ch=1 n=a#4 v=54
36930 Par ch=1 c=64 v=0
37193 Par ch=1 c=64 v=127
37376 Off ch=1 n=f#4 v=0
37376 On ch=1 n=e4 v=36
37456 Par ch=1 c=64 v=0
37610 Par ch=1 c=64 v=127
37888 Off ch=1 n=e4 v=0
37888 On ch=1 n=f#4 v=35
38005 Par ch=1 c=64 v=0
38159 Par ch=1 c=64 v=127
38400 Par ch=1 c=64 v=0
38400 Off ch=1 n=f#4 v=0
38400 Off ch=1 n=d4 v=0
38400 On ch=1 n=d4 v=29
38400 On ch=1 n=f4 v=29
38400 Off ch=1 n=a#2 v=0
38400 Off ch=1 n=a#3 v=0
38685 Par ch=1 c=64 v=127
38912 Off ch=1 n=d4 v=0
38912 Off ch=1 n=f4 v=0
38912 Off ch=1 n=a#4 v=0
38912 On ch=1 n=a4 v=30
38912 On ch=1 n=a5 v=50
38992 Par ch=1 c=64 v=0
39234 Par ch=1 c=64 v=127
39424 Off ch=1 n=a4 v=0
39424 Off ch=1 n=a5 v=0
39424 On ch=1 n=a#4 v=33
39424 On ch=1 n=a#5 v=55
39563 Par ch=1 c=64 v=0
39766 On ch=1 n=a#3 v=31
39804 Par ch=1 c=64 v=127
39851 On ch=1 n=f#4 v=31
39936 Par ch=1 c=64 v=127
39936 Par ch=1 c=67 v=0
39936 Par ch=1 c=67 v=0
39936 Par ch=1 c=64 v=0
39936 Off ch=1 n=a#4 v=0
39936 Off ch=1 n=a#5 v=0
39936 On ch=1 n=b4 v=35
39936 On ch=1 n=f#5 v=35
39936 On ch=1 n=a5 v=35
39936 On ch=1 n=b5 v=59
39936 On ch=1 n=d#5 v=40
40166 Par ch=1 c=64 v=0
40448 Par ch=1 c=64 v=127
40960 Off ch=1 n=b4 v=0
40960 Off ch=1 n=b5 v=0
40960 On ch=1 n=c5 v=37
40960 On ch=1 n=c6 v=57
41340 Par ch=1 c=64 v=127
41472 Off ch=1 n=c5 v=0
41472 Off ch=1 n=f#5 v=0
41472 Off ch=1 n=a5 v=0
41472 Off ch=1 n=c6 v=0
41472 On ch=1 n=d5 v=42
41472 On ch=1 n=a5 v=42
41472 On ch=1 n=c6 v=42
41472 On ch=1 n=d6 v=62
41472 Off ch=1 n=a#3 v=0
41472 Off ch=1 n=f#4 v=0
41472 Off ch=1 n=d#5 v=0
41472 On ch=1 n=a#3 v=25
41472 On ch=1 n=f#4 v=25
41472 On ch=1 n=c5 v=34
41984 Off ch=1 n=d5 v=0
41984 Off ch=1 n=d6 v=0
41984 On ch=1 n=d#5 v=39
41984 On ch=1 n=d#6 v=59
42496 Off ch=1 n=d#5 v=0
42496 Off ch=1 n=d#6 v=0
42496 On ch=1 n=f#5 v=40
42496 On ch=1 n=f#6 v=60
43008 Par ch=1 c=64 v=0
43008 Off ch=1 n=f#5 v=0
43008 Off ch=1 n=a5 v=0
43008 Off ch=1 n=c6 v=0
43008 Off ch=1 n=f#6 v=0
43008 On ch=1 n=f5 v=38
43008 On ch=1 n=a5 v=38
43008 On ch=1 n=c6 v=38
43008 On ch=1 n=f6 v=59
43008 Off ch=1 n=a#3 v=0
43008 Off ch=1 n=f#4 v=0
43008 Off ch=1 n=c5 v=0
43008 On ch=1 n=a#3 v=25
43008 On ch=1 n=f#4 v=25
43008 On ch=1 n=c5 v=34
43366 Par ch=1 c=64 v=127
44032 Off ch=1 n=f5 v=0
44032 Off ch=1 n=f6 v=0
44032 On ch=1 n=d#5 v=36
44032 On ch=1 n=d#6 v=54
44544 Par ch=1 c=64 v=127
44544 Par ch=1 c=67 v=0
44544 Par ch=1 c=67 v=0
44544 Par ch=1 c=64 v=0
44544 Off ch=1 n=d#5 v=0
44544 Off ch=1 n=a5 v=0
44544 Off ch=1 n=c6 v=0
44544 Off ch=1 n=d#6 v=0
44544 Off ch=1 n=a#3 v=0
44544 Off ch=1 n=f#4 v=0
44544 Off ch=1 n=c5 v=0
44544 On ch=1 n=d#5 v=42
44544 On ch=1 n=g#5 v=42
44544 On ch=1 n=b5 v=42
44544 On ch=1 n=d#6 v=59
44544 On ch=1 n=a#3 v=25
44544 On ch=1 n=b4 v=33
44656 Par ch=1 c=64 v=0
44904 Par ch=1 c=64 v=127
45056 On ch=1 n=g#4 v=33
45568 Off ch=1 n=g#4 v=0
45568 On ch=1 n=f#4 v=39
46073 Par ch=1 c=64 v=0
46080 Off ch=1 n=d#5 v=0
46080 Off ch=1 n=d#6 v=0
46080 On ch=1 n=d5 v=25
46080 On ch=1 n=d6 v=41
46080 Off ch=1 n=f#4 v=0
46080 On ch=1 n=b4 v=44
46342 Par ch=1 c=64 v=127
46592 Off ch=1 n=b4 v=0
46592 On ch=1 n=f4 v=40
47104 Off ch=1 n=d5 v=0
47104 Off ch=1 n=g#5 v=0
47104 Off ch=1 n=b5 v=0
47104 Off ch=1 n=d6 v=0
47104 Off ch=1 n=f4 v=0
47360 On ch=1 n=f4 v=35
47616 On ch=1 n=b4 v=26
47616 On ch=1 n=d5 v=38
47616 Off ch=1 n=b4 v=0
47616 Off ch=1 n=f4 v=0
47616 On ch=1 n=f4 v=33
47623 Par ch=1 c=64 v=0
47871 Par ch=1 c=64 v=127
48128 On ch=1 n=g#5 v=47
48640 Off ch=1 n=d5 v=0
48640 Off ch=1 n=g#5 v=0
48640 On ch=1 n=d#5 v=30
48640 On ch=1 n=f#5 v=49
48640 Off ch=1 n=f4 v=0
48640 On ch=1 n=f#4 v=29
48702 Par ch=1 c=64 v=0
48950 Par ch=1 c=64 v=127
49152 Par ch=1 c=64 v=127
49152 Par ch=1 c=67 v=0
49152 Par ch=1 c=64 v=0
49152 Par ch=1 c=67 v=0
49152 Par ch=1 c=64 v=0
49152 Off ch=1 n=b4 v=0
49152 Off ch=1 n=d#5 v=0
49152 Off ch=1 n=f#5 v=0
49152 Off ch=1 n=a#3 v=0
49152 Off ch=1 n=f#4 v=0
49152 On ch=1 n=b4 v=32
49152 On ch=1 n=d#5 v=32
49152 On ch=1 n=a#5 v=52
49152 On ch=1 n=a#3 v=20
49152 On ch=1 n=f#4 v=29
49264 Par ch=1 c=64 v=0
49512 Par ch=1 c=64 v=127
49664 Off ch=1 n=a#5 v=0
49664 On ch=1 n=f#5 v=48
50432 Off ch=1 n=f#5 v=0
50432 On ch=1 n=g#5 v=48
50681 Par ch=1 c=64 v=0
50688 Off ch=1 n=g#5 v=0
50688 On ch=1 n=a#5 v=48
50950 Par ch=1 c=64 v=127
51200 Off ch=1 n=f#4 v=0
51200 On ch=1 n=d#4 v=31
51968 Off ch=1 n=d#4 v=0
51968 On ch=1 n=f4 v=35
52224 Off ch=1 n=f4 v=0
52224 On ch=1 n=f#4 v=35
52231 Par ch=1 c=64 v=0
52479 Par ch=1 c=64 v=127
52736 Off ch=1 n=a#5 v=0
52736 On ch=1 n=g#5 v=37
52736 Off ch=1 n=f#4 v=0
52736 On ch=1 n=f4 v=32
52855 Par ch=1 c=64 v=0
52997 Par ch=1 c=64 v=127
53248 Off ch=1 n=g#5 v=0
53248 On ch=1 n=f#5 v=34
53248 Off ch=1 n=f4 v=0
53248 On ch=1 n=d#4 v=30
53248 Off ch=1 n=a#3 v=0
53310 Par ch=1 c=64 v=0
53558 Par ch=1 c=64 v=127
53760 Par ch=1 c=67 v=0
53760 Par ch=1 c=64 v=0
53760 Par ch=1 c=67 v=0
53760 Par ch=1 c=64 v=0
53760 Off ch=1 n=f#5 v=0
53760 Off ch=1 n=b4 v=0
53760 Off ch=1 n=d#5 v=0
53760 Off ch=1 n=d#4 v=0
53760 On ch=1 n=a#4 v=25
53760 On ch=1 n=d5 v=25
53760 On ch=1 n=a#5 v=37
53760 On ch=1 n=a#3 v=33
53760 On ch=1 n=f4 v=28
54784 Off ch=1 n=a#5 v=0
54784 On ch=1 n=f5 v=28
55296 Off ch=1 n=f5 v=0
55296 On ch=1 n=f5 v=23
55296 Off ch=1 n=a#3 v=0
55296 On ch=1 n=a3 v=34
56320 Off ch=1 n=a3 v=0
56320 On ch=1 n=a#3 v=25
56832 Off ch=1 n=a#4 v=0
56832 Off ch=1 n=d5 v=0
56832 Off ch=1 n=f5 v=0
56832 Off ch=1 n=a#3 v=0
56832 Off ch=1 n=f4 v=0
56832 On ch=1 n=a#3 v=24
57344 On ch=1 n=a4 v=33
57344 On ch=1 n=a5 v=47
57344 Off ch=1 n=a#3 v=0
57856 Off ch=1 n=a4 v=0
57856 Off ch=1 n=a5 v=0
57856 On ch=1 n=a#4 v=37
57856 On ch=1 n=a#5 v=52
58198 On ch=1 n=a#3 v=36
58283 On ch=1 n=f#4 v=24
58368 Par ch=1 c=64 v=127
58368 Par ch=1 c=67 v=0
58368 Par ch=1 c=64 v=0
58368 Par ch=1 c=64 v=0
58368 Par ch=1 c=67 v=0
58368 Par ch=1 c=64 v=0
58368 Off ch=1 n=a#4 v=0
58368 Off ch=1 n=a#5 v=0
58368 On ch=1 n=b4 v=35
58368 On ch=1 n=f#5 v=35
58368 On ch=1 n=b5 v=52
58368 On ch=1 n=d#5 v=33
58598 Par ch=1 c=64 v=0
58880 Par ch=1 c=64 v=127
59392 Off ch=1 n=b4 v=0
59392 Off ch=1 n=b5 v=0
59392 On ch=1 n=c5 v=37
59392 On ch=1 n=c6 v=54
59772 Par ch=1 c=64 v=127
59904 Off ch=1 n=c5 v=0
59904 Off ch=1 n=f#5 v=0
59904 Off ch=1 n=c6 v=0
59904 On ch=1 n=d5 v=38
59904 On ch=1 n=c6 v=38
59904 On ch=1 n=d6 v=58
59904 Off ch=1 n=a#3 v=0
59904 Off ch=1 n=f#4 v=0
59904 Off ch=1 n=d#5 v=0
59904 On ch=1 n=f#4 v=33
59904 On ch=1 n=c5 v=33
59904 On ch=1 n=f#5 v=42
60416 Off ch=1 n=d5 v=0
60416 Off ch=1 n=d6 v=0
60416 On ch=1 n=d#5 v=39
60416 On ch=1 n=d#6 v=59
60928 Off ch=1 n=d#5 v=0
60928 Off ch=1 n=d#6 v=0
60928 On ch=1 n=f#5 v=40
60928 On ch=1 n=f#6 v=60
60928 On ch=1 n=a#3 v=53
61312 Off ch=1 n=a#3 v=0
61312 On ch=1 n=a#3 v=53
61440 Par ch=1 c=64 v=0
61440 Off ch=1 n=f#5 v=0
61440 Off ch=1 n=c6 v=0
61440 Off ch=1 n=f#6 v=0
61440 On ch=1 n=f5 v=41
61440 On ch=1 n=a5 v=41
61440 On ch=1 n=c6 v=41
61440 On ch=1 n=f6 v=62
61440 Off ch=1 n=f#4 v=0
61440 Off ch=1 n=c5 v=0
61440 Off ch=1 n=f#5 v=0
61440 On ch=1 n=f#4 v=24
61440 On ch=1 n=c5 v=24
61440 On ch=1 n=f#5 v=33
61798 Par ch=1 c=64 v=127
62464 Off ch=1 n=f5 v=0
62464 Off ch=1 n=f6 v=0
62464 On ch=1 n=d#5 v=43
62464 On ch=1 n=d#6 v=61
62976 Par ch=1 c=64 v=127
62976 Par ch=1 c=67 v=0
62976 Par ch=1 c=64 v=0
62976 Par ch=1 c=64 v=0
62976 Par ch=1 c=67 v=0
62976 Par ch=1 c=64 v=0
62976 Off ch=1 n=d#5 v=0
62976 Off ch=1 n=a5 v=0
62976 Off ch=1 n=c6 v=0
62976 Off ch=1 n=d#6 v=0
62976 Off ch=1 n=a#3 v=0
62976 Off ch=1 n=f#4 v=0
62976 Off ch=1 n=c5 v=0
62976 Off ch=1 n=f#5 v=0
62976 On ch=1 n=d#5 v=42
62976 On ch=1 n=b5 v=42
62976 On ch=1 n=d#6 v=59
62976 On ch=1 n=f4 v=37
62976 On ch=1 n=b4 v=37
62976 On ch=1 n=f5 v=52
63088 Par ch=1 c=64 v=0
63336 Par ch=1 c=64 v=127
63488 Off ch=1 n=f4 v=0
63488 Off ch=1 n=b4 v=0
63488 Off ch=1 n=f5 v=0
63488 On ch=1 n=a#2 v=29
63488 On ch=1 n=a#3 v=37
64000 Off ch=1 n=a#2 v=0
64000 Off ch=1 n=a#3 v=0
64000 On ch=1 n=a2 v=31
64000 On ch=1 n=a3 v=40
64505 Par ch=1 c=64 v=0
64512 Off ch=1 n=d#5 v=0
64512 Off ch=1 n=b5 v=0
64512 Off ch=1 n=d#6 v=0
64512 On ch=1 n=d5 v=30
64512 On ch=1 n=f5 v=30
64512 On ch=1 n=b5 v=30
64512 On ch=1 n=d6 v=46
64512 Off ch=1 n=a2 v=0
64512 Off ch=1 n=a3 v=0
64512 On ch=1 n=f3 v=33
64512 On ch=1 n=f4 v=42
64774 Par ch=1 c=64 v=127
65024 Off ch=1 n=f3 v=0
65024 Off ch=1 n=f4 v=0
65024 On ch=1 n=g#2 v=29
65024 On ch=1 n=g#3 v=41
65457 Par ch=1 c=64 v=0
65536 Off ch=1 n=d5 v=0
65536 Off ch=1 n=f5 v=0
65536 Off ch=1 n=b5 v=0
65536 Off ch=1 n=d6 v=0
65536 Off ch=1 n=g#2 v=0
65536 Off ch=1 n=g#3 v=0
65792 On ch=1 n=d4 v=26
65792 On ch=1 n=f4 v=26
65792 On ch=1 n=b4 v=38
65792 On ch=1 n=g#2 v=29
65792 On ch=1 n=g#3 v=41
66048 Off ch=1 n=d4 v=0
66048 Off ch=1 n=f4 v=0
66048 Off ch=1 n=b4 v=0
66048 On ch=1 n=d4 v=26
66048 On ch=1 n=f4 v=38
66048 On ch=1 n=b4 v=26
66048 Off ch=1 n=g#2 v=0
66048 Off ch=1 n=g#3 v=0
66048 On ch=1 n=g#2 v=21
66048 On ch=1 n=g#3 v=33
66055 Par ch=1 c=64 v=0
66303 Par ch=1 c=64 v=127
66560 Off ch=1 n=d4 v=0
66560 Off ch=1 n=f4 v=0
66560 Off ch=1 n=b4 v=0
66560 On ch=1 n=b4 v=32
66560 On ch=1 n=b5 v=49
66560 Off ch=1 n=g#2 v=0
66560 Off ch=1 n=g#3 v=0
67072 Off ch=1 n=b4 v=0
67072 Off ch=1 n=b5 v=0
67072 On ch=1 n=c5 v=34
67072 On ch=1 n=c6 v=51
67134 Par ch=1 c=64 v=0
67382 Par ch=1 c=64 v=127
67414 On ch=1 n=c4 v=43
67499 On ch=1 n=g#4 v=31
67584 Par ch=1 c=64 v=127
67584 Par ch=1 c=64 v=0
67584 Par ch=1 c=67 v=0
67584 Par ch=1 c=64 v=0
67584 Par ch=1 c=64 v=0
67584 Par ch=1 c=64 v=0
67584 Par ch=1 c=67 v=0
67584 Par ch=1 c=64 v=0
67584 Off ch=1 n=c5 v=0
67584 Off ch=1 n=c6 v=0
67584 On ch=1 n=c#5 v=41
67584 On ch=1 n=g#5 v=41
67584 On ch=1 n=c#6 v=58
67584 On ch=1 n=f5 v=40
67814 Par ch=1 c=64 v=0
68096 Par ch=1 c=64 v=127
68608 Off ch=1 n=c#5 v=0
68608 Off ch=1 n=c#6 v=0
68608 On ch=1 n=d5 v=43
68608 On ch=1 n=d6 v=60
68988 Par ch=1 c=64 v=127
69120 Off ch=1 n=d5 v=0
69120 Off ch=1 n=g#5 v=0
69120 Off ch=1 n=d6 v=0
69120 On ch=1 n=e5 v=44
69120 On ch=1 n=d6 v=44
69120 On ch=1 n=e6 v=64
69120 Off ch=1 n=c4 v=0
69120 Off ch=1 n=g#4 v=0
69120 Off ch=1 n=f5 v=0
69120 On ch=1 n=g#4 v=33
69120 On ch=1 n=d5 v=33
69120 On ch=1 n=g#5 v=42
69632 Off ch=1 n=e5 v=0
69632 Off ch=1 n=e6 v=0
69632 On ch=1 n=f5 v=45
69632 On ch=1 n=f6 v=65
70144 Off ch=1 n=f5 v=0
70144 Off ch=1 n=f6 v=0
70144 On ch=1 n=g#5 v=46
70144 On ch=1 n=g#6 v=66
70144 On ch=1 n=c4 v=53
70528 Off ch=1 n=c4 v=0
70528 On ch=1 n=c4 v=53
70656 Par ch=1 c=64 v=0
70656 Off ch=1 n=g#5 v=0
70656 Off ch=1 n=d6 v=0
70656 Off ch=1 n=g#6 v=0
70656 On ch=1 n=g5 v=47
70656 On ch=1 n=b5 v=47
70656 On ch=1 n=d6 v=47
70656 On ch=1 n=g6 v=68
70656 Off ch=1 n=g#4 v=0
70656 Off ch=1 n=d5 v=0
70656 Off ch=1 n=g#5 v=0
70656 On ch=1 n=g#4 v=24
70656 On ch=1 n=d5 v=24
70656 On ch=1 n=g#5 v=33
71014 Par ch=1 c=64 v=127
71680 Off ch=1 n=g5 v=0
71680 Off ch=1 n=g6 v=0
71680 On ch=1 n=f5 v=49
71680 On ch=1 n=f6 v=67
72192 Par ch=1 c=64 v=127
72192 Par ch=1 c=64 v=0
72192 Par ch=1 c=67 v=0
72192 Par ch=1 c=64 v=0
72192 Par ch=1 c=64 v=0
72192 Par ch=1 c=64 v=0
72192 Par ch=1 c=67 v=0
72192 Par ch=1 c=64 v=0
72192 Off ch=1 n=f5 v=0
72192 Off ch=1 n=b5 v=0
72192 Off ch=1 n=d6 v=0
72192 Off ch=1 n=f6 v=0
72192 Off ch=1 n=c4 v=0
72192 Off ch=1 n=g#4 v=0
72192 Off ch=1 n=d5 v=0
72192 Off ch=1 n=g#5 v=0
72192 On ch=1 n=f5 v=48
72192 On ch=1 n=c#6 v=48
72192 On ch=1 n=f6 v=65
72192 On ch=1 n=g4 v=46
72192 On ch=1 n=c#5 v=46
72192 On ch=1 n=g5 v=61
72304 Par ch=1 c=64 v=0
72552 Par ch=1 c=64 v=127
72704 Off ch=1 n=g4 v=0
72704 Off ch=1 n=c#5 v=0
72704 Off ch=1 n=g5 v=0
72704 On ch=1 n=c3 v=38
72704 On ch=1 n=c4 v=46
73216 Off ch=1 n=c3 v=0
73216 Off ch=1 n=c4 v=0
73216 On ch=1 n=b2 v=40
73216 On ch=1 n=b3 v=49
73721 Par ch=1 c=64 v=0
73728 Off ch=1 n=f5 v=0
73728 Off ch=1 n=c#6 v=0
73728 Off ch=1 n=f6 v=0
73728 On ch=1 n=e5 v=37
73728 On ch=1 n=g5 v=37
73728 On ch=1 n=c#6 v=37
73728 On ch=1 n=e6 v=53
73728 Off ch=1 n=b2 v=0
73728 Off ch=1 n=b3 v=0
73728 On ch=1 n=g3 v=42
73728 On ch=1 n=g4 v=51
73990 Par ch=1 c=64 v=127
74240 Off ch=1 n=g3 v=0
74240 Off ch=1 n=g4 v=0
74240 On ch=1 n=a#2 v=38
74240 On ch=1 n=a#3 v=50
74673 Par ch=1 c=64 v=0
74752 Off ch=1 n=e5 v=0
74752 Off ch=1 n=g5 v=0
74752 Off ch=1 n=c#6 v=0
74752 Off ch=1 n=e6 v=0
74752 Off ch=1 n=a#2 v=0
74752 Off ch=1 n=a#3 v=0
75008 On ch=1 n=e4 v=33
75008 On ch=1 n=g4 v=33
75008 On ch=1 n=c#5 v=45
75008 On ch=1 n=a#2 v=38
75008 On ch=1 n=a#3 v=50
75264 Off ch=1 n=e4 v=0
75264 Off ch=1 n=g4 v=0
75264 Off ch=1 n=c#5 v=0
75264 On ch=1 n=e4 v=33
75264 On ch=1 n=g4 v=45
75264 On ch=1 n=c#5 v=33
75264 Off ch=1 n=a#2 v=0
75264 Off ch=1 n=a#3 v=0
75264 On ch=1 n=a#2 v=30
75264 On ch=1 n=a#3 v=42
75271 Par ch=1 c=64 v=0
75519 Par ch=1 c=64 v=127
75776 Off ch=1 n=e4 v=0
75776 Off ch=1 n=g4 v=0
75776 Off ch=1 n=c#5 v=0
75776 On ch=1 n=c#5 v=32
75776 On ch=1 n=c#6 v=49
75776 Off ch=1 n=a#2 v=0
75776 Off ch=1 n=a#3 v=0
76288 Off ch=1 n=c#5 v=0
76288 Off ch=1 n=c#6 v=0
76288 On ch=1 n=d5 v=34
76288 On ch=1 n=d6 v=52
76350 Par ch=1 c=64 v=0
76598 Par ch=1 c=64 v=127
76800 Par ch=1 c=67 v=0
76800 Par ch=1 c=67 v=0
76800 Off ch=1 n=d5 v=0
76800 Off ch=1 n=d6 v=0
76800 On ch=1 n=d#5 v=45
76800 On ch=1 n=d#6 v=58
76824 Par ch=1 c=64 v=127
76965 Par ch=1 c=64 v=0
77273 Par ch=1 c=64 v=127
77312 On ch=1 n=a#5 v=41
77312 On ch=1 n=c#3 v=45
77312 On ch=1 n=c#4 v=33
77824 Off ch=1 n=d#5 v=0
77824 Off ch=1 n=d#6 v=0
77824 Off ch=1 n=a#5 v=0
77824 On ch=1 n=a#5 v=45
77824 On ch=1 n=e5 v=45
77824 On ch=1 n=e6 v=60
77824 On ch=1 n=g4 v=34
77824 On ch=1 n=a#4 v=34
77824 On ch=1 n=g5 v=46
78336 Par ch=1 c=64 v=0
78336 Off ch=1 n=a#5 v=0
78336 Off ch=1 n=e5 v=0
78336 Off ch=1 n=e6 v=0
78336 On ch=1 n=f#5 v=48
78336 On ch=1 n=f#6 v=61
78336 Off ch=1 n=g4 v=0
78336 Off ch=1 n=a#4 v=0
78336 Off ch=1 n=g5 v=0
78572 Par ch=1 c=64 v=127
78848 On ch=1 n=e6 v=44
78848 Off ch=1 n=c#3 v=0
78848 Off ch=1 n=c#4 v=0
78848 On ch=1 n=a#4 v=37
78848 On ch=1 n=e5 v=37
78848 On ch=1 n=a#5 v=49
79360 Off ch=1 n=e6 v=0
79360 On ch=1 n=e6 v=47
79360 Off ch=1 n=f#5 v=0
79360 Off ch=1 n=f#6 v=0
79360 On ch=1 n=g5 v=38
79360 On ch=1 n=g6 v=61
79360 Off ch=1 n=a#4 v=0
79360 Off ch=1 n=e5 v=0
79360 Off ch=1 n=a#5 v=0
79360 On ch=1 n=c#3 v=50
79360 On ch=1 n=c#4 v=38
79872 Off ch=1 n=e6 v=0
79872 On ch=1 n=a5 v=36
79872 On ch=1 n=d#6 v=46
79872 Off ch=1 n=g5 v=0
79872 Off ch=1 n=g6 v=0
79872 On ch=1 n=g5 v=52
79872 On ch=1 n=g6 v=65
79872 Off ch=1 n=c#3 v=0
79872 Off ch=1 n=c#4 v=0
79872 On ch=1 n=c#3 v=52
79872 On ch=1 n=c#4 v=40
79896 Par ch=1 c=64 v=0
80156 Par ch=1 c=64 v=127
80384 Off ch=1 n=a5 v=0
80384 Off ch=1 n=d#6 v=0
80384 On ch=1 n=a5 v=36
80384 On ch=1 n=d#6 v=46
80384 Off ch=1 n=c#3 v=0
80384 Off ch=1 n=c#4 v=0
80384 On ch=1 n=c3 v=54
80384 On ch=1 n=c4 v=41
80557 Par ch=1 c=64 v=0
80817 Par ch=1 c=64 v=127
80896 Off ch=1 n=a5 v=0
80896 Off ch=1 n=d#6 v=0
80896 On ch=1 n=c6 v=37
80896 On ch=1 n=d#6 v=47
80896 Off ch=1 n=g5 v=0
80896 Off ch=1 n=g6 v=0
80896 On ch=1 n=f#5 v=47
80896 On ch=1 n=f#6 v=61
80896 Off ch=1 n=c3 v=0
80896 Off ch=1 n=c4 v=0
80896 On ch=1 n=a3 v=55
80896 On ch=1 n=a4 v=42
81408 Par ch=1 c=67 v=0
81408 Par ch=1 c=67 v=0
81408 Off ch=1 n=c6 v=0
81408 Off ch=1 n=d#6 v=0
81408 Off ch=1 n=f#5 v=0
81408 Off ch=1 n=f#6 v=0
81408 Off ch=1 n=a3 v=0
81408 Off ch=1 n=a4 v=0
81408 On ch=1 n=f5 v=49
81408 On ch=1 n=f6 v=63
81432 Par ch=1 c=64 v=127
81573 Par ch=1 c=64 v=0
81881 Par ch=1 c=64 v=127
81920 On ch=1 n=c6 v=49
81920 On ch=1 n=d#3 v=58
81920 On ch=1 n=d#4 v=45
82432 Off ch=1 n=f5 v=0
82432 Off ch=1 n=f6 v=0
82432 Off ch=1 n=c6 v=0
82432 On ch=1 n=c6 v=50
82432 On ch=1 n=f#5 v=50
82432 On ch=1 n=f#6 v=64
82432 On ch=1 n=a4 v=46
82432 On ch=1 n=c5 v=46
82432 On ch=1 n=a5 v=59
82944 Par ch=1 c=64 v=0
82944 Off ch=1 n=c6 v=0
82944 Off ch=1 n=f#5 v=0
82944 Off ch=1 n=f#6 v=0
82944 On ch=1 n=g#5 v=51
82944 On ch=1 n=g#6 v=66
82944 Off ch=1 n=a4 v=0
82944 Off ch=1 n=c5 v=0
82944 Off ch=1 n=a5 v=0
83180 Par ch=1 c=64 v=127
83456 On ch=1 n=f#6 v=52
83456 Off ch=1 n=d#3 v=0
83456 Off ch=1 n=d#4 v=0
83456 On ch=1 n=c5 v=50
83456 On ch=1 n=f#5 v=50
83456 On ch=1 n=c6 v=63
83968 Off ch=1 n=f#6 v=0
83968 On ch=1 n=f#6 v=52
83968 Off ch=1 n=g#5 v=0
83968 Off ch=1 n=g#6 v=0
83968 On ch=1 n=a5 v=52
83968 On ch=1 n=a6 v=68
83968 Off ch=1 n=c5 v=0
83968 Off ch=1 n=f#5 v=0
83968 Off ch=1 n=c6 v=0
83968 On ch=1 n=d#3 v=64
83968 On ch=1 n=d#4 v=51
84480 Off ch=1 n=f#6 v=0
84480 On ch=1 n=b5 v=43
84480 On ch=1 n=f6 v=53
84480 Off ch=1 n=a5 v=0
84480 Off ch=1 n=a6 v=0
84480 On ch=1 n=a5 v=60
84480 On ch=1 n=a6 v=75
84480 Off ch=1 n=d#3 v=0
84480 Off ch=1 n=d#4 v=0
84480 On ch=1 n=d#3 v=65
84480 On ch=1 n=d#4 v=52
84504 Par ch=1 c=64 v=0
84764 Par ch=1 c=64 v=127
84992 Off ch=1 n=b5 v=0
84992 Off ch=1 n=f6 v=0
84992 On ch=1 n=b5 v=44
84992 On ch=1 n=f6 v=54
84992 Off ch=1 n=d#3 v=0
84992 Off ch=1 n=d#4 v=0
84992 On ch=1 n=d3 v=67
84992 On ch=1 n=d4 v=54
85165 Par ch=1 c=64 v=0
85425 Par ch=1 c=64 v=127
85504 Off ch=1 n=b5 v=0
85504 Off ch=1 n=f6 v=0
85504 On ch=1 n=d6 v=44
85504 On ch=1 n=f6 v=55
85504 Off ch=1 n=a5 v=0
85504 Off ch=1 n=a6 v=0
85504 On ch=1 n=g#5 v=55
85504 On ch=1 n=g#6 v=72
85504 Off ch=1 n=d3 v=0
85504 Off ch=1 n=d4 v=0
85504 On ch=1 n=b3 v=69
85504 On ch=1 n=b4 v=55
86016 Par ch=1 c=64 v=127
86016 Par ch=1 c=67 v=0
86016 Par ch=1 c=67 v=0
86016 Off ch=1 n=d6 v=0
86016 Off ch=1 n=f6 v=0
86016 Off ch=1 n=g#5 v=0
86016 Off ch=1 n=g#6 v=0
86016 Off ch=1 n=b3 v=0
86016 Off ch=1 n=b4 v=0
86016 On ch=1 n=g5 v=56
86016 On ch=1 n=g6 v=72
86016 On ch=1 n=d6 v=56
86016 On ch=1 n=f3 v=71
86016 On ch=1 n=f4 v=57
86211 Par ch=1 c=64 v=0
86528 Par ch=1 c=64 v=127
86528 Off ch=1 n=d6 v=0
86528 On ch=1 n=d6 v=56
86528 On ch=1 n=b4 v=48
86528 On ch=1 n=d5 v=48
86528 On ch=1 n=b5 v=62
87040 Off ch=1 n=g5 v=0
87040 Off ch=1 n=g6 v=0
87040 Off ch=1 n=d6 v=0
87040 On ch=1 n=d6 v=58
87040 On ch=1 n=g#5 v=58
87040 On ch=1 n=g#6 v=75
87040 Off ch=1 n=b4 v=0
87040 Off ch=1 n=d5 v=0
87040 Off ch=1 n=b5 v=0
87040 On ch=1 n=b4 v=49
87040 On ch=1 n=d5 v=49
87040 On ch=1 n=b5 v=63
87552 Off ch=1 n=d6 v=0
87552 On ch=1 n=d6 v=58
87552 Off ch=1 n=g#5 v=0
87552 Off ch=1 n=g#6 v=0
87552 On ch=1 n=a#5 v=58
87552 On ch=1 n=a#6 v=77
87552 Off ch=1 n=b4 v=0
87552 Off ch=1 n=d5 v=0
87552 Off ch=1 n=b5 v=0
87552 On ch=1 n=a#4 v=51
87552 On ch=1 n=d5 v=51
87552 On ch=1 n=a#5 v=65
87576 Par ch=1 c=64 v=0
87893 Par ch=1 c=64 v=127
88064 Off ch=1 n=d6 v=0
88064 On ch=1 n=d6 v=60
88064 Off ch=1 n=a#4 v=0
88064 Off ch=1 n=d5 v=0
88064 Off ch=1 n=a#5 v=0
88064 On ch=1 n=a#4 v=53
88064 On ch=1 n=d5 v=53
88064 On ch=1 n=a#5 v=67
88576 Off ch=1 n=d6 v=0
88576 On ch=1 n=d6 v=60
88576 Off ch=1 n=a#4 v=0
88576 Off ch=1 n=d5 v=0
88576 Off ch=1 n=a#5 v=0
88576 On ch=1 n=a#4 v=54
88576 On ch=1 n=d5 v=54
88576 On ch=1 n=a#5 v=68
89064 Par ch=1 c=64 v=0
89088 Off ch=1 n=d6 v=0
89088 On ch=1 n=d6 v=62
89088 On ch=1 n=g#6 v=62
89088 Off ch=1 n=f3 v=0
89088 Off ch=1 n=f4 v=0
89088 Off ch=1 n=a#4 v=0
89088 Off ch=1 n=d5 v=0
89088 Off ch=1 n=a#5 v=0
89088 On ch=1 n=e3 v=80
89088 On ch=1 n=e4 v=66
89356 Par ch=1 c=64 v=127
89600 Off ch=1 n=d6 v=0
89600 Off ch=1 n=g#6 v=0
89600 On ch=1 n=d6 v=51
89600 On ch=1 n=g#6 v=62
89600 On ch=1 n=g#4 v=57
89600 On ch=1 n=d5 v=57
89600 On ch=1 n=g#5 v=71
90112 Off ch=1 n=d6 v=0
90112 Off ch=1 n=g#6 v=0
90112 On ch=1 n=d6 v=53
90112 On ch=1 n=g#6 v=64
90112 Off ch=1 n=a#5 v=0
90112 Off ch=1 n=a#6 v=0
90112 On ch=1 n=b5 v=64
90112 On ch=1 n=b6 v=83
90112 Off ch=1 n=g#4 v=0
90112 Off ch=1 n=d5 v=0
90112 Off ch=1 n=g#5 v=0
90112 On ch=1 n=g#4 v=59
90112 On ch=1 n=d5 v=59
90112 On ch=1 n=g#5 v=73
90624 Par ch=1 c=64 v=127
90624 Par ch=1 c=67 v=0
90624 Par ch=1 c=67 v=0
90624 Off ch=1 n=d6 v=0
90624 Off ch=1 n=g#6 v=0
90624 Off ch=1 n=b5 v=0
90624 Off ch=1 n=b6 v=0
90624 Off ch=1 n=e3 v=0
90624 Off ch=1 n=e4 v=0
90624 Off ch=1 n=g#4 v=0
90624 Off ch=1 n=d5 v=0
90624 Off ch=1 n=g#5 v=0
90624 On ch=1 n=b5 v=70
90624 On ch=1 n=b6 v=87
90624 On ch=1 n=d6 v=53
90624 On ch=1 n=g6 v=53
90624 On ch=1 n=d#3 v=77
90624 On ch=1 n=d#4 v=65
90813 Par ch=1 c=64 v=0
91049 Par ch=1 c=64 v=127
91136 Off ch=1 n=d6 v=0
91136 Off ch=1 n=g6 v=0
91136 On ch=1 n=d6 v=53
91136 On ch=1 n=g6 v=62
91136 On ch=1 n=g4 v=53
91136 On ch=1 n=d5 v=53
91136 On ch=1 n=g5 v=65
91648 Off ch=1 n=d6 v=0
91648 Off ch=1 n=g6 v=0
91648 On ch=1 n=d6 v=53
91648 On ch=1 n=g6 v=62
91648 Off ch=1 n=g4 v=0
91648 Off ch=1 n=d5 v=0
91648 Off ch=1 n=g5 v=0
91648 On ch=1 n=g4 v=53
91648 On ch=1 n=d5 v=53
91648 On ch=1 n=g5 v=65
92160 Off ch=1 n=b5 v=0
92160 Off ch=1 n=b6 v=0
92160 Off ch=1 n=d6 v=0
92160 Off ch=1 n=g6 v=0
92160 On ch=1 n=g6 v=62
92160 On ch=1 n=c6 v=70
92160 On ch=1 n=c7 v=87
92160 Off ch=1 n=g4 v=0
92160 Off ch=1 n=d5 v=0
92160 Off ch=1 n=g5 v=0
92160 On ch=1 n=g4 v=53
92160 On ch=1 n=c5 v=53
92160 On ch=1 n=g5 v=65
92231 Par ch=1 c=64 v=0
92514 Par ch=1 c=64 v=127
92672 Off ch=1 n=g6 v=0
92672 On ch=1 n=c6 v=53
92672 On ch=1 n=g6 v=62
92672 Off ch=1 n=g4 v=0
92672 Off ch=1 n=c5 v=0
92672 Off ch=1 n=g5 v=0
92672 On ch=1 n=g4 v=53
92672 On ch=1 n=c5 v=53
92672 On ch=1 n=g5 v=65
93184 Off ch=1 n=c6 v=0
93184 Off ch=1 n=g6 v=0
93184 On ch=1 n=c6 v=53
93184 On ch=1 n=g6 v=62
93184 Off ch=1 n=g4 v=0
93184 Off ch=1 n=c5 v=0
93184 Off ch=1 n=g5 v=0
93184 On ch=1 n=g4 v=53
93184 On ch=1 n=c5 v=53
93184 On ch=1 n=g5 v=65
93696 Par ch=1 c=64 v=0
93696 Off ch=1 n=c6 v=0
93696 Off ch=1 n=g6 v=0
93696 On ch=1 n=g6 v=53
93696 Off ch=1 n=c6 v=0
93696 Off ch=1 n=c7 v=0
93696 On ch=1 n=c#6 v=70
93696 On ch=1 n=c#7 v=87
93696 Off ch=1 n=d#3 v=0
93696 Off ch=1 n=d#4 v=0
93696 Off ch=1 n=g4 v=0
93696 Off ch=1 n=c5 v=0
93696 Off ch=1 n=g5 v=0
93696 On ch=1 n=d#3 v=83
93696 On ch=1 n=d#4 v=71
93980 Par ch=1 c=64 v=127
94208 Off ch=1 n=g6 v=0
94208 On ch=1 n=g6 v=53
94208 On ch=1 n=a#6 v=62
94208 On ch=1 n=g4 v=53
94208 On ch=1 n=a#4 v=53
94208 On ch=1 n=g5 v=65
94720 Off ch=1 n=g6 v=0
94720 Off ch=1 n=a#6 v=0
94720 On ch=1 n=g6 v=53
94720 On ch=1 n=a#6 v=62
94720 Off ch=1 n=g4 v=0
94720 Off ch=1 n=a#4 v=0
94720 Off ch=1 n=g5 v=0
94720 On ch=1 n=g4 v=53
94720 On ch=1 n=a#4 v=53
94720 On ch=1 n=g5 v=65
95232 Par ch=1 c=64 v=127
95232 Par ch=1 c=67 v=0
95232 Par ch=1 c=67 v=0
95232 Off ch=1 n=g6 v=0
95232 Off ch=1 n=a#6 v=0
95232 Off ch=1 n=c#6 v=0
95232 Off ch=1 n=c#7 v=0
95232 Off ch=1 n=g4 v=0
95232 Off ch=1 n=a#4 v=0
95232 Off ch=1 n=g5 v=0
95232 Off ch=1 n=d#3 v=0
95232 Off ch=1 n=d#4 v=0
95232 On ch=1 n=c#6 v=70
95232 On ch=1 n=c#7 v=87
95232 On ch=1 n=g6 v=53
95232 On ch=1 n=a#6 v=62
95232 On ch=1 n=d2 v=86
95232 On ch=1 n=d3 v=74
95421 Par ch=1 c=64 v=0
95681 Par ch=1 c=64 v=127
95744 Off ch=1 n=g6 v=0
95744 Off ch=1 n=a#6 v=0
95744 On ch=1 n=g6 v=53
95744 On ch=1 n=a#6 v=62
95744 On ch=1 n=a#4 v=53
95744 On ch=1 n=g5 v=53
95744 On ch=1 n=a#5 v=65
96256 Off ch=1 n=c#6 v=0
96256 Off ch=1 n=c#7 v=0
96256 Off ch=1 n=g6 v=0
96256 Off ch=1 n=a#6 v=0
96256 On ch=1 n=g6 v=53
96256 On ch=1 n=a#6 v=62
96256 On ch=1 n=d6 v=70
96256 On ch=1 n=d7 v=87
96256 Off ch=1 n=a#4 v=0
96256 Off ch=1 n=g5 v=0
96256 Off ch=1 n=a#5 v=0
96256 On ch=1 n=a#4 v=53
96256 On ch=1 n=g5 v=53
96256 On ch=1 n=a#5 v=65
96768 Off ch=1 n=g6 v=0
96768 Off ch=1 n=a#6 v=0
96768 On ch=1 n=g6 v=60
96768 On ch=1 n=a#6 v=69
96768 Off ch=1 n=d6 v=0
96768 Off ch=1 n=d7 v=0
96768 On ch=1 n=f6 v=77
96768 On ch=1 n=f7 v=94
96768 Off ch=1 n=a#4 v=0
96768 Off ch=1 n=g5 v=0
96768 Off ch=1 n=a#5 v=0
96768 On ch=1 n=a#4 v=53
96768 On ch=1 n=d5 v=53
96768 On ch=1 n=g5 v=53
96768 On ch=1 n=a#5 v=65
97280 Off ch=1 n=g6 v=0
97280 Off ch=1 n=a#6 v=0
97280 On ch=1 n=g6 v=53
97280 On ch=1 n=a#6 v=62
97280 Off ch=1 n=a#4 v=0
97280 Off ch=1 n=d5 v=0
97280 Off ch=1 n=g5 v=0
97280 Off ch=1 n=a#5 v=0
97280 On ch=1 n=a#4 v=53
97280 On ch=1 n=d5 v=53
97280 On ch=1 n=g5 v=53
97280 On ch=1 n=a#5 v=65
97792 Off ch=1 n=g6 v=0
97792 Off ch=1 n=a#6 v=0
97792 On ch=1 n=g6 v=53
97792 On ch=1 n=a#6 v=62
97792 Off ch=1 n=a#4 v=0
97792 Off ch=1 n=d5 v=0
97792 Off ch=1 n=g5 v=0
97792 Off ch=1 n=a#5 v=0
97792 On ch=1 n=a#4 v=53
97792 On ch=1 n=d5 v=53
97792 On ch=1 n=g5 v=53
97792 On ch=1 n=a#5 v=65
98304 Off ch=1 n=g6 v=0
98304 Off ch=1 n=a#6 v=0
98304 On ch=1 n=g6 v=53
98304 On ch=1 n=a#6 v=62
98304 Off ch=1 n=a#4 v=0
98304 Off ch=1 n=d5 v=0
98304 Off ch=1 n=g5 v=0
98304 Off ch=1 n=a#5 v=0
98304 On ch=1 n=a#4 v=53
98304 On ch=1 n=d5 v=53
98304 On ch=1 n=g5 v=53
98304 On ch=1 n=a#5 v=65
98816 Off ch=1 n=g6 v=0
98816 Off ch=1 n=a#6 v=0
98816 On ch=1 n=g6 v=53
98816 On ch=1 n=a#6 v=62
98816 Off ch=1 n=a#4 v=0
98816 Off ch=1 n=d5 v=0
98816 Off ch=1 n=g5 v=0
98816 Off ch=1 n=a#5 v=0
98816 On ch=1 n=a#4 v=53
98816 On ch=1 n=d5 v=53
98816 On ch=1 n=g5 v=53
98816 On ch=1 n=a#5 v=65
99328 Off ch=1 n=g6 v=0
99328 Off ch=1 n=a#6 v=0
99328 On ch=1 n=g6 v=53
99328 On ch=1 n=a#6 v=62
99328 Off ch=1 n=f6 v=0
99328 Off ch=1 n=f7 v=0
99328 On ch=1 n=f6 v=70
99328 On ch=1 n=f7 v=87
99328 Off ch=1 n=a#4 v=0
99328 Off ch=1 n=d5 v=0
99328 Off ch=1 n=g5 v=0
99328 Off ch=1 n=a#5 v=0
99328 On ch=1 n=a#4 v=53
99328 On ch=1 n=d5 v=53
99328 On ch=1 n=g5 v=53
99328 On ch=1 n=a#5 v=65
99840 Par ch=1 c=64 v=127
99840 Par ch=1 c=67 v=0
99840 Par ch=1 c=67 v=0
99840 Off ch=1 n=g6 v=0
99840 Off ch=1 n=a#6 v=0
99840 Off ch=1 n=f6 v=0
99840 Off ch=1 n=f7 v=0
99840 Off ch=1 n=a#4 v=0
99840 Off ch=1 n=d5 v=0
99840 Off ch=1 n=g5 v=0
99840 Off ch=1 n=a#5 v=0
99840 Off ch=1 n=d2 v=0
99840 Off ch=1 n=d3 v=0
99840 On ch=1 n=f6 v=74
99840 On ch=1 n=f7 v=91
99840 On ch=1 n=g6 v=57
99840 On ch=1 n=c7 v=66
99840 On ch=1 n=d2 v=86
99840 On ch=1 n=d3 v=74
99986 Par ch=1 c=64 v=0
100352 Par ch=1 c=64 v=127
100352 Off ch=1 n=g6 v=0
100352 Off ch=1 n=c7 v=0
100352 On ch=1 n=g6 v=53
100352 On ch=1 n=c7 v=62
100352 On ch=1 n=a4 v=53
100352 On ch=1 n=c5 v=53
100352 On ch=1 n=g5 v=65
100352 On ch=1 n=a5 v=65
100864 Off ch=1 n=f6 v=0
100864 Off ch=1 n=f7 v=0
100864 Off ch=1 n=g6 v=0
100864 Off ch=1 n=c7 v=0
100864 On ch=1 n=g6 v=53
100864 On ch=1 n=c7 v=62
100864 On ch=1 n=d#6 v=70
100864 On ch=1 n=d#7 v=87
100864 Off ch=1 n=a4 v=0
100864 Off ch=1 n=c5 v=0
100864 Off ch=1 n=g5 v=0
100864 Off ch=1 n=a5 v=0
100864 On ch=1 n=a4 v=53
100864 On ch=1 n=c5 v=53
100864 On ch=1 n=g5 v=65
100864 On ch=1 n=a5 v=65
101376 Off ch=1 n=g6 v=0
101376 Off ch=1 n=c7 v=0
101376 On ch=1 n=g6 v=53
101376 Off ch=1 n=d#6 v=0
101376 Off ch=1 n=d#7 v=0
101376 On ch=1 n=d6 v=70
101376 On ch=1 n=d7 v=87
101376 Off ch=1 n=d2 v=0
101376 Off ch=1 n=d3 v=0
101376 Off ch=1 n=a4 v=0
101376 Off ch=1 n=c5 v=0
101376 Off ch=1 n=g5 v=0
101376 Off ch=1 n=a5 v=0
101376 On ch=1 n=d#5 v=59
101376 On ch=1 n=d#6 v=78
101888 Off ch=1 n=d6 v=0
101888 Off ch=1 n=d7 v=0
101888 On ch=1 n=c6 v=68
101888 On ch=1 n=c7 v=84
102400 Off ch=1 n=g6 v=0
102400 Off ch=1 n=c6 v=0
102400 Off ch=1 n=c7 v=0
102400 On ch=1 n=g5 v=67
102400 On ch=1 n=g6 v=83
102400 Off ch=1 n=d#5 v=0
102400 Off ch=1 n=d#6 v=0
102912 Off ch=1 n=g5 v=0
102912 Off ch=1 n=g6 v=0
102912 On ch=1 n=d#5 v=62
102912 On ch=1 n=g5 v=46
102912 On ch=1 n=d#6 v=79
102912 On ch=1 n=d4 v=41
102912 On ch=1 n=a4 v=53
103424 Off ch=1 n=d#5 v=0
103424 Off ch=1 n=g5 v=0
103424 Off ch=1 n=d#6 v=0
103424 On ch=1 n=d5 v=60
103424 On ch=1 n=f#5 v=44
103424 On ch=1 n=d6 v=76
103936 Off ch=1 n=d5 v=0
103936 Off ch=1 n=f#5 v=0
103936 Off ch=1 n=d6 v=0
103936 On ch=1 n=c5 v=58
103936 On ch=1 n=c6 v=73
103936 Off ch=1 n=d4 v=0
103936 Off ch=1 n=a4 v=0
104448 Par ch=1 c=64 v=0
104448 Par ch=1 c=67 v=0
104448 Par ch=1 c=67 v=0
104448 Off ch=1 n=c5 v=0
104448 Off ch=1 n=c6 v=0
104448 On ch=1 n=d#5 v=74
104448 On ch=1 n=d#6 v=86
104448 On ch=1 n=a#5 v=65
104448 On ch=1 n=c4 v=65
104448 On ch=1 n=a#4 v=77
104558 Par ch=1 c=64 v=127
104777 Par ch=1 c=64 v=0
104960 Off ch=1 n=d#5 v=0
104960 Off ch=1 n=d#6 v=0
104960 On ch=1 n=a#4 v=65
104960 On ch=1 n=a#5 v=79
104960 On ch=1 n=f#2 v=65
104960 On ch=1 n=f#3 v=77
105392 Par ch=1 c=64 v=127
105472 Off ch=1 n=c4 v=0
105472 On ch=1 n=d#4 v=53
105728 Off ch=1 n=a#4 v=0
105728 Off ch=1 n=a#5 v=0
105728 On ch=1 n=c5 v=65
105728 On ch=1 n=c6 v=82
105984 Off ch=1 n=a#5 v=0
105984 On ch=1 n=a#5 v=65
105984 Off ch=1 n=c5 v=0
105984 Off ch=1 n=c6 v=0
105984 On ch=1 n=d5 v=65
105984 On ch=1 n=d6 v=77
105984 Off ch=1 n=d#4 v=0
105984 Off ch=1 n=a#4 v=0
105984 On ch=1 n=d4 v=53
105984 On ch=1 n=a#4 v=65
106050 Par ch=1 c=64 v=0
106313 Par ch=1 c=64 v=127
106496 Off ch=1 n=f#2 v=0
106496 Off ch=1 n=f#3 v=0
106496 On ch=1 n=f2 v=65
106496 On ch=1 n=f3 v=77
106576 Par ch=1 c=64 v=0
106730 Par ch=1 c=64 v=127
107008 Off ch=1 n=f2 v=0
107008 Off ch=1 n=f3 v=0
107008 On ch=1 n=f#2 v=65
107008 On ch=1 n=f#3 v=77
107125 Par ch=1 c=64 v=0
107279 Par ch=1 c=64 v=127
107520 Par ch=1 c=64 v=0
107520 Off ch=1 n=f#2 v=0
107520 Off ch=1 n=f#3 v=0
107520 On ch=1 n=a2 v=65
107520 On ch=1 n=a3 v=77
107805 Par ch=1 c=64 v=127
108032 Off ch=1 n=a#5 v=0
108032 Off ch=1 n=d5 v=0
108032 Off ch=1 n=d6 v=0
108032 On ch=1 n=a#4 v=65
108032 On ch=1 n=d5 v=79
108032 On ch=1 n=a#5 v=65
108032 Off ch=1 n=a2 v=0
108032 Off ch=1 n=a3 v=0
108032 On ch=1 n=g2 v=65
108032 On ch=1 n=g3 v=77
108032 Off ch=1 n=d4 v=0
108032 Off ch=1 n=a#4 v=0
108112 Par ch=1 c=64 v=0
108354 Par ch=1 c=64 v=127
108544 Off ch=1 n=a#4 v=0
108544 Off ch=1 n=d5 v=0
108544 Off ch=1 n=a#5 v=0
108544 On ch=1 n=a4 v=65
108544 On ch=1 n=a5 v=79
108544 Off ch=1 n=g2 v=0
108544 Off ch=1 n=g3 v=0
108544 On ch=1 n=f2 v=65
108544 On ch=1 n=f3 v=77
108683 Par ch=1 c=64 v=0
108924 Par ch=1 c=64 v=127
109056 Par ch=1 c=64 v=127
109056 Par ch=1 c=67 v=0
109056 Par ch=1 c=67 v=0
109056 Off ch=1 n=a4 v=0
109056 Off ch=1 n=a5 v=0
109056 Off ch=1 n=f2 v=0
109056 Off ch=1 n=f3 v=0
109056 On ch=1 n=c5 v=66
109056 On ch=1 n=c6 v=85
109056 On ch=1 n=g5 v=57
109056 On ch=1 n=a3 v=60
109056 On ch=1 n=g4 v=71
109385 Par ch=1 c=64 v=0
109568 Off ch=1 n=c5 v=0
109568 Off ch=1 n=c6 v=0
109568 On ch=1 n=g4 v=65
109568 On ch=1 n=g5 v=79
109568 On ch=1 n=d#2 v=65
109568 On ch=1 n=d#3 v=77
110000 Par ch=1 c=64 v=127
110080 Off ch=1 n=a3 v=0
110080 On ch=1 n=c4 v=53
110336 Off ch=1 n=g4 v=0
110336 Off ch=1 n=g5 v=0
110336 On ch=1 n=a4 v=65
110336 On ch=1 n=a5 v=82
110592 Off ch=1 n=g5 v=0
110592 On ch=1 n=f#5 v=65
110592 Off ch=1 n=a4 v=0
110592 Off ch=1 n=a5 v=0
110592 On ch=1 n=a#4 v=65
110592 On ch=1 n=a#5 v=77
110592 Off ch=1 n=c4 v=0
110592 Off ch=1 n=g4 v=0
110592 On ch=1 n=a#3 v=53
110592 On ch=1 n=f#4 v=65
110658 Par ch=1 c=64 v=0
110921 Par ch=1 c=64 v=127
111104 Off ch=1 n=d#2 v=0
111104 Off ch=1 n=d#3 v=0
111104 On ch=1 n=c#2 v=65
111104 On ch=1 n=c#3 v=77
111184 Par ch=1 c=64 v=0
111338 Par ch=1 c=64 v=127
111616 Off ch=1 n=f#5 v=0
111616 On ch=1 n=f5 v=79
111616 Off ch=1 n=c#2 v=0
111616 Off ch=1 n=c#3 v=0
111616 On ch=1 n=d2 v=65
111616 On ch=1 n=d3 v=77
111616 Off ch=1 n=f#4 v=0
111616 On ch=1 n=f4 v=61
111733 Par ch=1 c=64 v=0
111887 Par ch=1 c=64 v=127
112128 Par ch=1 c=64 v=0
112128 Off ch=1 n=f5 v=0
112128 On ch=1 n=f5 v=65
112128 Off ch=1 n=a#4 v=0
112128 On ch=1 n=a#4 v=65
112128 Off ch=1 n=d2 v=0
112128 Off ch=1 n=d3 v=0
112128 On ch=1 n=d#2 v=65
112128 On ch=1 n=d#3 v=77
112128 Off ch=1 n=f4 v=0
112128 On ch=1 n=f4 v=65
112413 Par ch=1 c=64 v=127
112640 Off ch=1 n=a#4 v=0
112640 Off ch=1 n=a#5 v=0
112640 On ch=1 n=a4 v=65
112640 On ch=1 n=a5 v=79
112640 Off ch=1 n=a#3 v=0
112640 On ch=1 n=a#3 v=53
112720 Par ch=1 c=64 v=0
112962 Par ch=1 c=64 v=127
113152 Off ch=1 n=a4 v=0
113152 Off ch=1 n=a5 v=0
113152 On ch=1 n=g4 v=65
113152 On ch=1 n=g5 v=79
113152 Off ch=1 n=d#2 v=0
113152 Off ch=1 n=d#3 v=0
113152 On ch=1 n=d2 v=65
113152 On ch=1 n=d3 v=77
113291 Par ch=1 c=64 v=0
113532 Par ch=1 c=64 v=127
113664 Par ch=1 c=64 v=127
113664 Par ch=1 c=64 v=0
113664 Par ch=1 c=67 v=0
113664 Par ch=1 c=67 v=0
113664 Off ch=1 n=f5 v=0
113664 Off ch=1 n=g4 v=0
113664 Off ch=1 n=g5 v=0
113664 Off ch=1 n=d2 v=0
113664 Off ch=1 n=d3 v=0
113664 Off ch=1 n=a#3 v=0
113664 Off ch=1 n=f4 v=0
113664 On ch=1 n=a#4 v=64
113664 On ch=1 n=a#5 v=83
113664 On ch=1 n=f5 v=64
113664 On ch=1 n=g3 v=65
113664 On ch=1 n=f4 v=77
113993 Par ch=1 c=64 v=0
114176 On ch=1 n=c#2 v=65
114176 On ch=1 n=c#3 v=77
114608 Par ch=1 c=64 v=127
114688 Off ch=1 n=a#4 v=0
114688 Off ch=1 n=a#5 v=0
114688 On ch=1 n=f4 v=61
114688 On ch=1 n=f5 v=79
114688 Off ch=1 n=g3 v=0
114688 On ch=1 n=a#3 v=53
115200 Off ch=1 n=f5 v=0
115200 On ch=1 n=d#5 v=59
115200 Off ch=1 n=f4 v=0
115200 Off ch=1 n=f5 v=0
115200 On ch=1 n=a4 v=59
115200 On ch=1 n=a5 v=77
115200 Off ch=1 n=a#3 v=0
115200 Off ch=1 n=f4 v=0
115200 On ch=1 n=a3 v=53
115200 On ch=1 n=f4 v=53
115266 Par ch=1 c=64 v=0
115529 Par ch=1 c=64 v=127
115712 Off ch=1 n=c#2 v=0
115712 Off ch=1 n=c#3 v=0
115712 On ch=1 n=b1 v=65
115712 On ch=1 n=b2 v=77
115792 Par ch=1 c=64 v=0
115946 Par ch=1 c=64 v=127
116224 Off ch=1 n=a4 v=0
116224 Off ch=1 n=a5 v=0
116224 On ch=1 n=g4 v=57
116224 On ch=1 n=g5 v=74
116224 Off ch=1 n=b1 v=0
116224 Off ch=1 n=b2 v=0
116224 On ch=1 n=c2 v=65
116224 On ch=1 n=c3 v=77
116341 Par ch=1 c=64 v=0
116495 Par ch=1 c=64 v=127
116566 On ch=1 n=c#2 v=65
116651 On ch=1 n=c#3 v=65
116736 Par ch=1 c=64 v=0
116736 Off ch=1 n=d#5 v=0
116736 On ch=1 n=d#5 v=56
116736 Off ch=1 n=c2 v=0
116736 Off ch=1 n=c3 v=0
116736 On ch=1 n=a#3 v=83
116736 Off ch=1 n=a3 v=0
116736 Off ch=1 n=f4 v=0
117021 Par ch=1 c=64 v=127
117248 Off ch=1 n=d#5 v=0
117248 On ch=1 n=g4 v=54
117248 Off ch=1 n=g4 v=0
117248 Off ch=1 n=g5 v=0
117248 On ch=1 n=f4 v=54
117248 On ch=1 n=f5 v=70
117328 Par ch=1 c=64 v=0
117570 Par ch=1 c=64 v=127
117760 Off ch=1 n=f4 v=0
117760 Off ch=1 n=f5 v=0
117760 On ch=1 n=d#4 v=53
117760 On ch=1 n=d#5 v=69
117899 Par ch=1 c=64 v=0
118140 Par ch=1 c=64 v=127
118272 Par ch=1 c=64 v=127
118272 Par ch=1 c=64 v=0
118272 Par ch=1 c=64 v=0
118272 Par ch=1 c=67 v=0
118272 Par ch=1 c=67 v=0
118272 Off ch=1 n=g4 v=0
118272 Off ch=1 n=d#4 v=0
118272 Off ch=1 n=d#5 v=0
118272 Off ch=1 n=c#2 v=0
118272 Off ch=1 n=c#3 v=0
118272 Off ch=1 n=a#3 v=0
118272 On ch=1 n=d4 v=53
118272 On ch=1 n=d5 v=68
118272 On ch=1 n=f#4 v=53
118272 On ch=1 n=d2 v=56
118272 On ch=1 n=d3 v=56
118272 On ch=1 n=a#3 v=68
118601 Par ch=1 c=64 v=0
119216 Par ch=1 c=64 v=127
119296 Off ch=1 n=a#3 v=0
119296 On ch=1 n=a3 v=64
119808 Off ch=1 n=a3 v=0
119808 On ch=1 n=a3 v=62
119874 Par ch=1 c=64 v=0
120137 Par ch=1 c=64 v=127
120400 Par ch=1 c=64 v=0
120554 Par ch=1 c=64 v=127
120832 Off ch=1 n=f#4 v=0
120832 On ch=1 n=g4 v=53
120832 Off ch=1 n=a3 v=0
120832 Off ch=1 n=d2 v=0
120832 Off ch=1 n=d3 v=0
120832 On ch=1 n=g2 v=48
120832 On ch=1 n=g3 v=59
120949 Par ch=1 c=64 v=0
121103 Par ch=1 c=64 v=127
121344 Par ch=1 c=64 v=0
121344 Off ch=1 n=d4 v=0
121344 Off ch=1 n=d5 v=0
121344 Off ch=1 n=g4 v=0
121344 On ch=1 n=g4 v=53
121344 Off ch=1 n=g2 v=0
121344 Off ch=1 n=g3 v=0
121344 On ch=1 n=g2 v=47
121344 On ch=1 n=g3 v=57
121629 Par ch=1 c=64 v=127
121856 Off ch=1 n=g4 v=0
121856 On ch=1 n=g5 v=57
121856 On ch=1 n=g6 v=73
121856 Off ch=1 n=g2 v=0
121856 Off ch=1 n=g3 v=0
121936 Par ch=1 c=64 v=0
122178 Par ch=1 c=64 v=127
122368 Off ch=1 n=g5 v=0
122368 Off ch=1 n=g6 v=0
122368 On ch=1 n=f5 v=57
122368 On ch=1 n=f6 v=73
122507 Par ch=1 c=64 v=0
122748 Par ch=1 c=64 v=127
122880 Par ch=1 c=64 v=127
122880 Par ch=1 c=67 v=0
122880 Par ch=1 c=67 v=0
122880 Off ch=1 n=f5 v=0
122880 Off ch=1 n=f6 v=0
122880 On ch=1 n=g#5 v=64
122880 On ch=1 n=g#6 v=80
122880 On ch=1 n=b5 v=57
122880 On ch=1 n=d#6 v=73
122880 On ch=1 n=f4 v=53
122880 On ch=1 n=b4 v=53
122880 On ch=1 n=d#5 v=65
123084 Par ch=1 c=64 v=0
123209 Par ch=1 c=64 v=0
123289 Par ch=1 c=64 v=127
123392 Off ch=1 n=g#5 v=0
123392 Off ch=1 n=g#6 v=0
123392 On ch=1 n=d#5 v=57
123392 On ch=1 n=d#6 v=73
123392 On ch=1 n=g2 v=65
123392 On ch=1 n=g3 v=53
123824 Par ch=1 c=64 v=127
123904 Off ch=1 n=f4 v=0
123904 Off ch=1 n=b4 v=0
123904 Off ch=1 n=d#5 v=0
123904 On ch=1 n=g#4 v=53
123904 On ch=1 n=b4 v=53
123904 On ch=1 n=d#5 v=65
124160 Off ch=1 n=d#5 v=0
124160 Off ch=1 n=d#6 v=0
124160 On ch=1 n=f5 v=57
124160 On ch=1 n=f6 v=73
124416 Off ch=1 n=b5 v=0
124416 Off ch=1 n=d#6 v=0
124416 Off ch=1 n=f5 v=0
124416 Off ch=1 n=f6 v=0
124416 On ch=1 n=g5 v=62
124416 On ch=1 n=b5 v=62
124416 On ch=1 n=d#6 v=62
124416 On ch=1 n=g6 v=78
124416 Off ch=1 n=g#4 v=0
124416 Off ch=1 n=b4 v=0
124416 Off ch=1 n=d#5 v=0
124416 On ch=1 n=g4 v=53
124416 On ch=1 n=b4 v=53
124416 On ch=1 n=d#5 v=65
124482 Par ch=1 c=64 v=0
124745 Par ch=1 c=64 v=127
124855 Par ch=1 c=64 v=127
125440 Off ch=1 n=g2 v=0
125440 Off ch=1 n=g3 v=0
125440 On ch=1 n=g2 v=65
125440 On ch=1 n=g3 v=53
125557 Par ch=1 c=64 v=0
125711 Par ch=1 c=64 v=127
125952 Par ch=1 c=64 v=0
125952 Off ch=1 n=b5 v=0
125952 Off ch=1 n=d#6 v=0
125952 On ch=1 n=b5 v=57
125952 On ch=1 n=d6 v=57
125952 Off ch=1 n=g4 v=0
125952 Off ch=1 n=b4 v=0
125952 Off ch=1 n=d#5 v=0
125952 On ch=1 n=f4 v=53
125952 On ch=1 n=b4 v=53
125952 On ch=1 n=d5 v=65
126237 Par ch=1 c=64 v=127
126421 Par ch=1 c=64 v=127
126464 Off ch=1 n=g5 v=0
126464 Off ch=1 n=b5 v=0
126464 Off ch=1 n=d6 v=0
126464 Off ch=1 n=g6 v=0
126464 On ch=1 n=d#5 v=57
126464 On ch=1 n=g#5 v=57
126464 On ch=1 n=b5 v=57
126464 On ch=1 n=d#6 v=73
126464 Off ch=1 n=f4 v=0
126464 Off ch=1 n=b4 v=0
126464 Off ch=1 n=d5 v=0
126464 On ch=1 n=f4 v=53
126464 On ch=1 n=g#4 v=53
126464 On ch=1 n=b4 v=65
126976 Off ch=1 n=d#5 v=0
126976 Off ch=1 n=b5 v=0
126976 Off ch=1 n=d#6 v=0
126976 On ch=1 n=d5 v=57
126976 On ch=1 n=d6 v=73
126976 Off ch=1 n=g2 v=0
126976 Off ch=1 n=g3 v=0
126976 On ch=1 n=g2 v=65
126976 On ch=1 n=g3 v=53
127115 Par ch=1 c=64 v=0
127356 Par ch=1 c=64 v=127
127488 Par ch=1 c=64 v=127
127488 Par ch=1 c=64 v=0
127488 Par ch=1 c=67 v=0
127488 Par ch=1 c=67 v=0
127488 Off ch=1 n=d5 v=0
127488 Off ch=1 n=g#5 v=0
127488 Off ch=1 n=d6 v=0
127488 Off ch=1 n=f4 v=0
127488 Off ch=1 n=g#4 v=0
127488 Off ch=1 n=b4 v=0
127488 On ch=1 n=f5 v=65
127488 On ch=1 n=f6 v=81
127488 On ch=1 n=d#4 v=53
127488 On ch=1 n=g#4 v=53
127488 On ch=1 n=c5 v=65
127692 Par ch=1 c=64 v=0
127817 Par ch=1 c=64 v=0
127897 Par ch=1 c=64 v=127
128000 Off ch=1 n=f5 v=0
128000 Off ch=1 n=f6 v=0
128000 On ch=1 n=c5 v=57
128000 On ch=1 n=c6 v=73
128000 Off ch=1 n=g2 v=0
128000 Off ch=1 n=g3 v=0
128000 On ch=1 n=g2 v=65
128000 On ch=1 n=g3 v=53
128432 Par ch=1 c=64 v=127
128512 Off ch=1 n=d#4 v=0
128512 Off ch=1 n=g#4 v=0
128512 Off ch=1 n=c5 v=0
128512 On ch=1 n=d4 v=53
128512 On ch=1 n=g#4 v=53
128512 On ch=1 n=b4 v=65
128768 Off ch=1 n=c5 v=0
128768 Off ch=1 n=c6 v=0
128768 On ch=1 n=d5 v=57
128768 On ch=1 n=d6 v=73
129024 Off ch=1 n=d5 v=0
129024 Off ch=1 n=d6 v=0
129024 On ch=1 n=d#5 v=61
129024 On ch=1 n=g#5 v=61
129024 On ch=1 n=c6 v=61
129024 On ch=1 n=d#6 v=77
129024 Off ch=1 n=d4 v=0
129024 Off ch=1 n=g#4 v=0
129024 Off ch=1 n=b4 v=0
129024 On ch=1 n=c4 v=53
129024 On ch=1 n=g#4 v=53
129024 On ch=1 n=c5 v=65
129090 Par ch=1 c=64 v=0
129353 Par ch=1 c=64 v=127
129463 Par ch=1 c=64 v=127
130048 Off ch=1 n=g2 v=0
130048 Off ch=1 n=g3 v=0
130048 On ch=1 n=g2 v=65
130048 On ch=1 n=g3 v=53
130165 Par ch=1 c=64 v=0
130319 Par ch=1 c=64 v=127
130560 Par ch=1 c=64 v=0
130560 Off ch=1 n=g#5 v=0
130560 Off ch=1 n=c6 v=0
130560 On ch=1 n=g5 v=57
130560 On ch=1 n=c6 v=57
130560 Off ch=1 n=c4 v=0
130560 Off ch=1 n=g#4 v=0
130560 Off ch=1 n=c5 v=0
130560 On ch=1 n=c4 v=53
130560 On ch=1 n=g4 v=53
130560 On ch=1 n=c5 v=65
130845 Par ch=1 c=64 v=127
131029 Par ch=1 c=64 v=127
131584 Off ch=1 n=d#5 v=0
131584 Off ch=1 n=d#6 v=0
131584 On ch=1 n=d#5 v=57
131584 On ch=1 n=d#6 v=73
131584 Off ch=1 n=g2 v=0
131584 Off ch=1 n=g3 v=0
131584 On ch=1 n=g2 v=65
131584 On ch=1 n=g3 v=53
131723 Par ch=1 c=64 v=0
131964 Par ch=1 c=64 v=127
132096 Par ch=1 c=64 v=127
132096 Par ch=1 c=67 v=0
132096 Par ch=1 c=67 v=0
132096 Off ch=1 n=d#5 v=0
132096 Off ch=1 n=g5 v=0
132096 Off ch=1 n=c6 v=0
132096 Off ch=1 n=d#6 v=0
132096 Off ch=1 n=c4 v=0
132096 Off ch=1 n=g4 v=0
132096 Off ch=1 n=c5 v=0
132096 On ch=1 n=d#5 v=62
132096 On ch=1 n=f#5 v=62
132096 On ch=1 n=a5 v=62
132096 On ch=1 n=d#6 v=78
132096 On ch=1 n=c4 v=53
132096 On ch=1 n=f#4 v=53
132096 On ch=1 n=a4 v=53
132096 On ch=1 n=c5 v=65
132425 Par ch=1 c=64 v=0
133040 Par ch=1 c=64 v=127
133632 Off ch=1 n=g2 v=0
133632 Off ch=1 n=g3 v=0
133632 On ch=1 n=g2 v=65
133632 On ch=1 n=g3 v=53
133698 Par ch=1 c=64 v=0
133961 Par ch=1 c=64 v=127
134224 Par ch=1 c=64 v=0
134378 Par ch=1 c=64 v=127
134773 Par ch=1 c=64 v=0
134927 Par ch=1 c=64 v=127
135168 Par ch=1 c=64 v=0
135168 Off ch=1 n=d#5 v=0
135168 Off ch=1 n=f#5 v=0
135168 Off ch=1 n=a5 v=0
135168 Off ch=1 n=d#6 v=0
135168 On ch=1 n=d5 v=48
135168 On ch=1 n=f#5 v=48
135168 On ch=1 n=a5 v=48
135168 On ch=1 n=d6 v=69
135168 Off ch=1 n=c4 v=0
135168 Off ch=1 n=f#4 v=0
135168 Off ch=1 n=a4 v=0
135168 Off ch=1 n=c5 v=0
135168 Off ch=1 n=g2 v=0
135168 On ch=1 n=d#4 v=44
135168 On ch=1 n=a4 v=56
135453 Par ch=1 c=64 v=127
135760 Par ch=1 c=64 v=0
136002 Par ch=1 c=64 v=127
136192 Off ch=1 n=d5 v=0
136192 Off ch=1 n=d6 v=0
136192 On ch=1 n=c5 v=43
136192 On ch=1 n=c6 v=64
136331 Par ch=1 c=64 v=0
136572 Par ch=1 c=64 v=127
136704 Par ch=1 c=64 v=127
136704 Par ch=1 c=67 v=0
136704 Par ch=1 c=67 v=0
136704 Off ch=1 n=c5 v=0
136704 Off ch=1 n=f#5 v=0
136704 Off ch=1 n=a5 v=0
136704 Off ch=1 n=c6 v=0
136704 Off ch=1 n=g3 v=0
136704 Off ch=1 n=d#4 v=0
136704 Off ch=1 n=a4 v=0
136704 On ch=1 n=c5 v=43
136704 On ch=1 n=f#5 v=43
136704 On ch=1 n=a5 v=43
136704 On ch=1 n=c6 v=62
136704 On ch=1 n=g3 v=47
136704 On ch=1 n=d#4 v=47
136704 On ch=1 n=a4 v=57
137033 Par ch=1 c=64 v=0
137648 Par ch=1 c=64 v=127
137728 Off ch=1 n=c5 v=0
137728 Off ch=1 n=f#5 v=0
137728 Off ch=1 n=a5 v=0
137728 Off ch=1 n=c6 v=0
137728 On ch=1 n=b4 v=38
137728 On ch=1 n=g5 v=38
137728 On ch=1 n=b5 v=51
137728 Off ch=1 n=a4 v=0
137728 On ch=1 n=g4 v=53
138240 Off ch=1 n=b4 v=0
138240 Off ch=1 n=g5 v=0
138240 Off ch=1 n=b5 v=0
138240 On ch=1 n=b4 v=41
138240 On ch=1 n=b5 v=53
138240 Off ch=1 n=d#4 v=0
138240 Off ch=1 n=g4 v=0
138240 On ch=1 n=d#4 v=41
138240 On ch=1 n=g4 v=50
138306 Par ch=1 c=64 v=0
138569 Par ch=1 c=64 v=127
138832 Par ch=1 c=64 v=0
138986 Par ch=1 c=64 v=127
139264 Off ch=1 n=d#4 v=0
139264 On ch=1 n=d4 v=37
139381 Par ch=1 c=64 v=0
139535 Par ch=1 c=64 v=127
139776 Par ch=1 c=64 v=0
139776 Off ch=1 n=b4 v=0
139776 Off ch=1 n=b5 v=0
139776 Off ch=1 n=d4 v=0
139776 On ch=1 n=d4 v=41
140061 Par ch=1 c=64 v=127
140288 On ch=1 n=g5 v=53
140368 Par ch=1 c=64 v=0
140610 Par ch=1 c=64 v=127
140800 On ch=1 n=f5 v=53
140800 Off ch=1 n=g3 v=0
140800 Off ch=1 n=d4 v=0
140800 Off ch=1 n=g4 v=0
140850 Off ch=1 n=g5 v=0
140939 Par ch=1 c=64 v=0
141180 Par ch=1 c=64 v=127
141312 Par ch=1 c=64 v=127
141312 Par ch=1 c=64 v=0
141312 Par ch=1 c=64 v=0
141312 Par ch=1 c=67 v=0
141312 Par ch=1 c=67 v=0
141312 On ch=1 n=g#5 v=53
141312 On ch=1 n=b4 v=31
141312 On ch=1 n=d#5 v=31
141312 On ch=1 n=f4 v=30
141362 Off ch=1 n=f5 v=0
141458 Par ch=1 c=64 v=0
141629 Par ch=1 c=64 v=127
141824 On ch=1 n=d#5 v=44
141874 Off ch=1 n=g#5 v=0
141970 Par ch=1 c=64 v=0
142238 Par ch=1 c=64 v=127
142238 Par ch=1 c=64 v=120
142336 On ch=1 n=f5 v=45
142336 On ch=1 n=g#4 v=29
142386 Off ch=1 n=d#5 v=0
142386 Off ch=1 n=f4 v=0
142434 Par ch=1 c=64 v=0
142653 Par ch=1 c=64 v=127
142848 Off ch=1 n=b4 v=0
142848 Off ch=1 n=d#5 v=0
142848 On ch=1 n=b4 v=25
142848 On ch=1 n=d#5 v=25
142848 On ch=1 n=g5 v=47
142848 On ch=1 n=g4 v=28
142898 Off ch=1 n=f5 v=0
142898 Off ch=1 n=g#4 v=0
142946 Par ch=1 c=64 v=0
143092 Par ch=1 c=64 v=0
143458 Par ch=1 c=64 v=127
144189 Par ch=1 c=64 v=127
144384 On ch=1 n=f4 v=26
144434 Off ch=1 n=g4 v=0
144482 Par ch=1 c=64 v=0
144750 Par ch=1 c=64 v=127
144896 Off ch=1 n=b4 v=0
144896 Off ch=1 n=d#5 v=0
144896 On ch=1 n=d#5 v=46
144896 On ch=1 n=g#4 v=25
144896 On ch=1 n=b4 v=25
144946 Off ch=1 n=g5 v=0
145115 Par ch=1 c=64 v=0
145310 Par ch=1 c=64 v=127
145408 On ch=1 n=d5 v=43
145458 Off ch=1 n=d#5 v=0
145579 Par ch=1 c=64 v=0
145822 Par ch=1 c=64 v=127
145920 Par ch=1 c=64 v=127
145920 Par ch=1 c=64 v=0
145920 Par ch=1 c=67 v=0
145920 Par ch=1 c=67 v=0
145920 Off ch=1 n=g#4 v=0
145920 Off ch=1 n=b4 v=0
145920 On ch=1 n=g#4 v=30
145920 On ch=1 n=c5 v=30
145920 On ch=1 n=f5 v=52
145920 On ch=1 n=d#4 v=25
145970 Off ch=1 n=d5 v=0
145970 Off ch=1 n=f4 v=0
146066 Par ch=1 c=64 v=0
146237 Par ch=1 c=64 v=127
146432 Off ch=1 n=c5 v=0
146432 On ch=1 n=c5 v=50
146482 Off ch=1 n=f5 v=0
146578 Par ch=1 c=64 v=0
146846 Par ch=1 c=64 v=127
146846 Par ch=1 c=64 v=120
146944 Off ch=1 n=g#4 v=0
146944 On ch=1 n=g#4 v=28
146944 On ch=1 n=b4 v=28
146944 On ch=1 n=d5 v=48
146944 On ch=1 n=d4 v=24
146994 Off ch=1 n=c5 v=0
146994 Off ch=1 n=d#4 v=0
147042 Par ch=1 c=64 v=0
147261 Par ch=1 c=64 v=127
147456 Off ch=1 n=g#4 v=0
147456 Off ch=1 n=b4 v=0
147456 On ch=1 n=g#4 v=27
147456 On ch=1 n=c5 v=27
147456 On ch=1 n=d#5 v=47
147456 On ch=1 n=c4 v=23
147506 Off ch=1 n=d5 v=0
147506 Off ch=1 n=d4 v=0
147554 Par ch=1 c=64 v=0
147700 Par ch=1 c=64 v=0
148066 Par ch=1 c=64 v=127
148797 Par ch=1 c=64 v=127
148992 Off ch=1 n=g#4 v=0
148992 On ch=1 n=g4 v=22
148992 Off ch=1 n=c4 v=0
148992 On ch=1 n=c4 v=21
149090 Par ch=1 c=64 v=0
149358 Par ch=1 c=64 v=127
149723 Par ch=1 c=64 v=0
149918 Par ch=1 c=64 v=127
150016 Off ch=1 n=d#5 v=0
150016 On ch=1 n=d#5 v=44
150187 Par ch=1 c=64 v=0
150430 Par ch=1 c=64 v=127
150528 Par ch=1 c=64 v=127
150528 Par ch=1 c=64 v=0
150528 Par ch=1 c=64 v=0
150528 Par ch=1 c=67 v=0
150528 Par ch=1 c=67 v=0
150528 Off ch=1 n=g4 v=0
150528 Off ch=1 n=c5 v=0
150528 Off ch=1 n=d#5 v=0
150528 Off ch=1 n=c4 v=0
150528 On ch=1 n=f#4 v=26
150528 On ch=1 n=d#5 v=48
150528 On ch=1 n=a#4 v=26
150528 On ch=1 n=c4 v=19
150674 Par ch=1 c=64 v=0
150845 Par ch=1 c=64 v=127
151186 Par ch=1 c=64 v=0
151454 Par ch=1 c=64 v=127
151454 Par ch=1 c=64 v=120
151650 Par ch=1 c=64 v=0
151869 Par ch=1 c=64 v=127
152064 On ch=1 n=g#4 v=31
152114 Off ch=1 n=a#4 v=0
152162 Par ch=1 c=64 v=0
152308 Par ch=1 c=64 v=0
152674 Par ch=1 c=64 v=127
153088 On ch=1 n=a4 v=35
153138 Off ch=1 n=g#4 v=0
153405 Par ch=1 c=64 v=127
153576 Par ch=1 c=64 v=0
153600 Off ch=1 n=f#4 v=0
153600 On ch=1 n=f#4 v=23
153600 On ch=1 n=a#4 v=23
153600 On ch=1 n=d5 v=42
153600 On ch=1 n=d#4 v=18
153610 Off ch=1 n=a4 v=0
153650 Off ch=1 n=d#5 v=0
153650 Off ch=1 n=c4 v=0
154331 Par ch=1 c=64 v=0
154526 Par ch=1 c=64 v=127
154624 On ch=1 n=c5 v=38
154674 Off ch=1 n=d5 v=0
154795 Par ch=1 c=64 v=0
154966 On ch=1 n=g2 v=12
155038 Par ch=1 c=64 v=127
155051 On ch=1 n=g3 v=12
155136 Par ch=1 c=64 v=0
155136 Par ch=1 c=67 v=0
155136 Par ch=1 c=67 v=0
155136 Off ch=1 n=f#4 v=0
155136 Off ch=1 n=a#4 v=0
155136 On ch=1 n=g4 v=21
155136 On ch=1 n=b4 v=31
155136 On ch=1 n=d4 v=12
155186 Off ch=1 n=c5 v=0
155186 Off ch=1 n=d#4 v=0
158208 Off ch=1 n=g4 v=0
158208 Off ch=1 n=b4 v=0
158208 Off ch=1 n=g2 v=0
158208 Off ch=1 n=g3 v=0
158208 Off ch=1 n=d4 v=0
159744 Par ch=1 c=64 v=0
159744 Par ch=1 c=67 v=0
159744 Par ch=1 c=67 v=0
164352 Par ch=1 c=64 v=0
164352 Par ch=1 c=67 v=0
164352 Par ch=1 c=67 v=0
164353 Meta TrkEnd
TrkEnd
