MFile 1 2 1024
MTrk
0 TimeSig 1/4 24 8
0 KeySig -6 minor
0 Tempo 267857
1024 TimeSig 2/2 48 8
1024 Tempo 333333
1434 Tempo 300000
2253 Tempo 272727
3072 Tempo 260869
5120 Tempo 272727
6349 Tempo 272727
6656 Tempo 333333
7168 Tempo 260869
8704 Tempo 333333
9216 Tempo 272727
10445 Tempo 272727
11264 Tempo 260869
13312 Tempo 300000
14131 Tempo 260869
14848 Tempo 333333
15360 Tempo 260869
17408 Tempo 333333
17818 Tempo 300000
18637 Tempo 272727
19456 Tempo 260869
21504 Tempo 272727
22733 Tempo 272727
23040 Tempo 333333
23552 Tempo 260869
25088 Tempo 333333
25600 Tempo 272727
26829 Tempo 272727
27648 Tempo 260869
29696 Tempo 300000
30515 Tempo 260869
31744 Tempo 260869
41984 Tempo 300000
42394 Tempo 260869
44032 Tempo 300000
44442 Tempo 260869
46080 Tempo 272727
46490 Tempo 260869
50176 Tempo 272727
50586 Tempo 250000
54272 Tempo 240000
58368 Tempo 333333
58778 Tempo 240000
60416 Tempo 375000
60826 Tempo 240000
64102 Tempo 333333
64922 Tempo 240000
68608 Tempo 260869
70246 Tempo 300000
70656 Tempo 300000
71066 Tempo 240000
76800 Tempo 260869
78438 Tempo 300000
78848 Tempo 300000
79258 Tempo 240000
80896 Tempo 260869
82125 Tempo 272727
87040 Tempo 300000
87450 Tempo 272727
89088 Tempo 240000
90931 Tempo 3000000
91136 Tempo 500000
91955 Tempo 600000
92365 Tempo 375000
94003 Tempo 500000
94413 Tempo 428571
94822 Tempo 1000000
95027 Tempo 3000000
95232 Tempo 500000
97280 Tempo 240000
103426 Meta TrkEnd
TrkEnd
MTrk
0 Meta TrkName "Instrument  1"
0 PrCh ch=1 p=1
0 Par ch=1 c=64 v=0
0 Par ch=1 c=64 v=0
1024 Par ch=1 c=64 v=0
1024 Par ch=1 c=64 v=127
1024 On ch=1 n=f4 v=29
1024 On ch=1 n=d#3 v=23
1024 On ch=1 n=d#4 v=42
1173 Par ch=1 c=64 v=0
1371 Par ch=1 c=64 v=127
1434 On ch=1 n=f#4 v=35
1484 Off ch=1 n=f4 v=0
1553 Par ch=1 c=64 v=0
1817 Par ch=1 c=64 v=127
1843 On ch=1 n=f5 v=40
2253 On ch=1 n=d#5 v=37
2296 Par ch=1 c=64 v=0
2303 Off ch=1 n=f5 v=0
2510 Par ch=1 c=64 v=127
2662 Off ch=1 n=f#4 v=0
2662 On ch=1 n=b4 v=35
2712 Off ch=1 n=d#5 v=0
3072 On ch=1 n=a#4 v=32
3072 Off ch=1 n=d#3 v=0
3072 Off ch=1 n=d#4 v=0
3072 On ch=1 n=c#3 v=16
3072 On ch=1 n=c#4 v=35
3095 Par ch=1 c=64 v=0
3122 Off ch=1 n=b4 v=0
3482 On ch=1 n=f#4 v=29
3500 Par ch=1 c=64 v=127
3891 Off ch=1 n=a#4 v=0
3891 On ch=1 n=a4 v=35
3898 Par ch=1 c=64 v=0
3941 Off ch=1 n=f#4 v=0
4096 Off ch=1 n=c#3 v=0
4096 Off ch=1 n=c#4 v=0
4096 On ch=1 n=b2 v=16
4096 On ch=1 n=b3 v=35
4152 Par ch=1 c=64 v=0
4301 On ch=1 n=f4 v=30
4490 Par ch=1 c=64 v=127
4710 Off ch=1 n=a4 v=0
4710 On ch=1 n=d#4 v=25
4760 Off ch=1 n=f4 v=0
4905 Par ch=1 c=64 v=0
5070 Off ch=1 n=d#4 v=0
5120 Par ch=1 c=64 v=0
5120 Par ch=1 c=64 v=127
5120 Par ch=1 c=64 v=0
5120 Off ch=1 n=b2 v=0
5120 Off ch=1 n=b3 v=0
5120 On ch=1 n=f4 v=29
5120 On ch=1 n=d#3 v=23
5120 On ch=1 n=d#4 v=42
5269 Par ch=1 c=64 v=0
5467 Par ch=1 c=64 v=127
5530 On ch=1 n=f#4 v=35
5580 Off ch=1 n=f4 v=0
5649 Par ch=1 c=64 v=0
5913 Par ch=1 c=64 v=127
5939 On ch=1 n=f5 v=40
5989 Off ch=1 n=f#4 v=0
6349 On ch=1 n=d#5 v=37
6392 Par ch=1 c=64 v=0
6399 Off ch=1 n=f5 v=0
6606 Par ch=1 c=64 v=127
6656 Off ch=1 n=d#3 v=0
6656 Off ch=1 n=d#4 v=0
6656 On ch=1 n=d#3 v=18
6656 On ch=1 n=d#4 v=37
6758 On ch=1 n=a#4 v=35
6808 Off ch=1 n=d#5 v=0
7168 On ch=1 n=c#5 v=32
7168 Off ch=1 n=d#3 v=0
7168 Off ch=1 n=d#4 v=0
7168 On ch=1 n=d#3 v=24
7168 On ch=1 n=d#4 v=43
7191 Par ch=1 c=64 v=0
7218 Off ch=1 n=a#4 v=0
7578 On ch=1 n=a4 v=29
7596 Par ch=1 c=64 v=127
7987 Off ch=1 n=c#5 v=0
7987 On ch=1 n=c5 v=35
7994 Par ch=1 c=64 v=0
8037 Off ch=1 n=a4 v=0
8248 Par ch=1 c=64 v=0
8397 On ch=1 n=g#4 v=30
8586 Par ch=1 c=64 v=127
8704 Off ch=1 n=d#3 v=0
8704 Off ch=1 n=d#4 v=0
8704 On ch=1 n=g#2 v=23
8704 On ch=1 n=g#3 v=42
8806 Off ch=1 n=c5 v=0
8806 On ch=1 n=f#4 v=25
8856 Off ch=1 n=g#4 v=0
9001 Par ch=1 c=64 v=0
9216 Par ch=1 c=64 v=0
9216 Par ch=1 c=64 v=127
9216 Par ch=1 c=64 v=0
9216 Off ch=1 n=g#2 v=0
9216 Off ch=1 n=g#3 v=0
9216 On ch=1 n=d#4 v=29
9216 On ch=1 n=c#3 v=23
9216 On ch=1 n=c#4 v=42
9266 Off ch=1 n=f#4 v=0
9365 Par ch=1 c=64 v=0
9563 Par ch=1 c=64 v=127
9626 On ch=1 n=e4 v=36
9676 Off ch=1 n=d#4 v=0
9745 Par ch=1 c=64 v=0
10009 Par ch=1 c=64 v=127
10035 On ch=1 n=d#5 v=42
10085 Off ch=1 n=e4 v=0
10445 On ch=1 n=c#5 v=40
10488 Par ch=1 c=64 v=0
10495 Off ch=1 n=d#5 v=0
10702 Par ch=1 c=64 v=127
10854 On ch=1 n=a4 v=38
10904 Off ch=1 n=c#5 v=0
11264 On ch=1 n=g#4 v=36
11264 Off ch=1 n=c#3 v=0
11264 Off ch=1 n=c#4 v=0
11264 On ch=1 n=b2 v=22
11264 On ch=1 n=b3 v=41
11287 Par ch=1 c=64 v=0
11314 Off ch=1 n=a4 v=0
11674 On ch=1 n=e4 v=33
11692 Par ch=1 c=64 v=127
12083 Off ch=1 n=g#4 v=0
12083 On ch=1 n=g4 v=41
12090 Par ch=1 c=64 v=0
12133 Off ch=1 n=e4 v=0
12288 Off ch=1 n=b2 v=0
12288 Off ch=1 n=b3 v=0
12288 On ch=1 n=a2 v=20
12288 On ch=1 n=a3 v=37
12344 Par ch=1 c=64 v=0
12493 On ch=1 n=d#4 v=36
12682 Par ch=1 c=64 v=127
12902 Off ch=1 n=g4 v=0
12902 On ch=1 n=c#4 v=31
12952 Off ch=1 n=d#4 v=0
13097 Par ch=1 c=64 v=0
13312 Par ch=1 c=64 v=0
13312 Par ch=1 c=64 v=127
13312 Par ch=1 c=64 v=0
13312 Off ch=1 n=a2 v=0
13312 Off ch=1 n=a3 v=0
13312 On ch=1 n=a4 v=44
13312 On ch=1 n=e3 v=30
13362 Off ch=1 n=c#4 v=0
13461 Par ch=1 c=64 v=0
13659 Par ch=1 c=64 v=127
13722 On ch=1 n=e4 v=42
13841 Par ch=1 c=64 v=0
14105 Par ch=1 c=64 v=127
14131 Off ch=1 n=e4 v=0
14131 Off ch=1 n=a4 v=0
14131 On ch=1 n=g#4 v=41
14541 On ch=1 n=e4 v=39
14584 Par ch=1 c=64 v=0
14798 Par ch=1 c=64 v=127
14848 Off ch=1 n=e3 v=0
14848 On ch=1 n=g#2 v=25
14848 On ch=1 n=g#3 v=34
14950 Off ch=1 n=e4 v=0
14950 Off ch=1 n=g#4 v=0
14950 On ch=1 n=b3 v=38
15360 Off ch=1 n=b3 v=0
15360 On ch=1 n=f#4 v=36
15360 Off ch=1 n=g#2 v=0
15360 Off ch=1 n=g#3 v=0
15360 On ch=1 n=a#2 v=29
15360 On ch=1 n=a#3 v=38
15383 Par ch=1 c=64 v=0
15770 Off ch=1 n=f#4 v=0
15770 On ch=1 n=d4 v=35
15788 Par ch=1 c=64 v=127
16179 Off ch=1 n=d4 v=0
16179 On ch=1 n=f4 v=33
16186 Par ch=1 c=64 v=0
16440 Par ch=1 c=64 v=0
16589 Off ch=1 n=f4 v=0
16589 On ch=1 n=d4 v=32
16778 Par ch=1 c=64 v=127
16998 Off ch=1 n=d4 v=0
16998 On ch=1 n=a#3 v=30
17193 Par ch=1 c=64 v=0
17408 Par ch=1 c=64 v=0
17408 Par ch=1 c=64 v=127
17408 Par ch=1 c=64 v=0
17408 Off ch=1 n=a#3 v=0
17408 Off ch=1 n=a#2 v=0
17408 Off ch=1 n=a#3 v=0
17408 On ch=1 n=f4 v=29
17408 On ch=1 n=d#3 v=23
17408 On ch=1 n=d#4 v=42
17557 Par ch=1 c=64 v=0
17755 Par ch=1 c=64 v=127
17818 On ch=1 n=f#4 v=35
17868 Off ch=1 n=f4 v=0
17937 Par ch=1 c=64 v=0
18201 Par ch=1 c=64 v=127
18227 On ch=1 n=f5 v=40
18277 Off ch=1 n=f#4 v=0
18637 On ch=1 n=d#5 v=37
18680 Par ch=1 c=64 v=0
18687 Off ch=1 n=f5 v=0
18894 Par ch=1 c=64 v=127
19046 On ch=1 n=b4 v=35
19096 Off ch=1 n=d#5 v=0
19456 On ch=1 n=a#4 v=32
19456 Off ch=1 n=d#3 v=0
19456 Off ch=1 n=d#4 v=0
19456 On ch=1 n=c#3 v=16
19456 On ch=1 n=c#4 v=35
19479 Par ch=1 c=64 v=0
19506 Off ch=1 n=b4 v=0
19866 On ch=1 n=f#4 v=29
19884 Par ch=1 c=64 v=127
20275 Off ch=1 n=a#4 v=0
20275 On ch=1 n=a4 v=35
20282 Par ch=1 c=64 v=0
20325 Off ch=1 n=f#4 v=0
20480 Off ch=1 n=c#3 v=0
20480 Off ch=1 n=c#4 v=0
20480 On ch=1 n=b2 v=16
20480 On ch=1 n=b3 v=35
20536 Par ch=1 c=64 v=0
20685 On ch=1 n=f4 v=30
20874 Par ch=1 c=64 v=127
21094 Off ch=1 n=a4 v=0
21094 On ch=1 n=d#4 v=25
21144 Off ch=1 n=f4 v=0
21289 Par ch=1 c=64 v=0
21454 Off ch=1 n=d#4 v=0
21504 Par ch=1 c=64 v=0
21504 Par ch=1 c=64 v=127
21504 Par ch=1 c=64 v=0
21504 Par ch=1 c=64 v=0
21504 Off ch=1 n=b2 v=0
21504 Off ch=1 n=b3 v=0
21504 On ch=1 n=f4 v=29
21504 On ch=1 n=d#3 v=23
21504 On ch=1 n=d#4 v=42
21653 Par ch=1 c=64 v=0
21851 Par ch=1 c=64 v=127
21914 On ch=1 n=f#4 v=35
21964 Off ch=1 n=f4 v=0
22033 Par ch=1 c=64 v=0
22297 Par ch=1 c=64 v=127
22323 On ch=1 n=f5 v=40
22373 Off ch=1 n=f#4 v=0
22733 On ch=1 n=d#5 v=37
22776 Par ch=1 c=64 v=0
22783 Off ch=1 n=f5 v=0
22990 Par ch=1 c=64 v=127
23040 Off ch=1 n=d#3 v=0
23040 Off ch=1 n=d#4 v=0
23040 On ch=1 n=d#3 v=18
23040 On ch=1 n=d#4 v=37
23142 On ch=1 n=a#4 v=35
23192 Off ch=1 n=d#5 v=0
23552 On ch=1 n=c#5 v=41
23552 Off ch=1 n=d#3 v=0
23552 Off ch=1 n=d#4 v=0
23552 On ch=1 n=d#3 v=24
23552 On ch=1 n=d#4 v=43
23575 Par ch=1 c=64 v=0
23602 Off ch=1 n=a#4 v=0
23962 On ch=1 n=a4 v=29
23980 Par ch=1 c=64 v=127
24371 Off ch=1 n=c#5 v=0
24371 On ch=1 n=c5 v=35
24378 Par ch=1 c=64 v=0
24421 Off ch=1 n=a4 v=0
24632 Par ch=1 c=64 v=0
24781 On ch=1 n=g#4 v=30
24970 Par ch=1 c=64 v=127
25088 Off ch=1 n=d#3 v=0
25088 Off ch=1 n=d#4 v=0
25088 On ch=1 n=g#2 v=23
25088 On ch=1 n=g#3 v=42
25190 Off ch=1 n=c5 v=0
25190 On ch=1 n=f#4 v=25
25240 Off ch=1 n=g#4 v=0
25385 Par ch=1 c=64 v=0
25600 Par ch=1 c=64 v=0
25600 Par ch=1 c=64 v=127
25600 Par ch=1 c=64 v=0
25600 Par ch=1 c=64 v=0
25600 Off ch=1 n=g#2 v=0
25600 Off ch=1 n=g#3 v=0
25600 On ch=1 n=d#4 v=29
25600 On ch=1 n=c#3 v=23
25600 On ch=1 n=c#4 v=42
25650 Off ch=1 n=f#4 v=0
25749 Par ch=1 c=64 v=0
25947 Par ch=1 c=64 v=127
26010 On ch=1 n=e4 v=36
26060 Off ch=1 n=d#4 v=0
26129 Par ch=1 c=64 v=0
26393 Par ch=1 c=64 v=127
26419 On ch=1 n=d#5 v=43
26469 Off ch=1 n=e4 v=0
26829 On ch=1 n=c#5 v=41
26872 Par ch=1 c=64 v=0
26879 Off ch=1 n=d#5 v=0
27086 Par ch=1 c=64 v=127
27136 Off ch=1 n=c#3 v=0
27136 Off ch=1 n=c#4 v=0
27136 On ch=1 n=c#3 v=34
27136 On ch=1 n=c#4 v=46
27238 On ch=1 n=g#4 v=40
27288 Off ch=1 n=c#5 v=0
27648 On ch=1 n=b4 v=47
27648 Off ch=1 n=c#3 v=0
27648 Off ch=1 n=c#4 v=0
27648 On ch=1 n=c#3 v=22
27648 On ch=1 n=c#4 v=41
27671 Par ch=1 c=64 v=0
27698 Off ch=1 n=g#4 v=0
28058 On ch=1 n=g4 v=35
28076 Par ch=1 c=64 v=127
28467 Off ch=1 n=b4 v=0
28467 On ch=1 n=a#4 v=44
28474 Par ch=1 c=64 v=0
28517 Off ch=1 n=g4 v=0
28728 Par ch=1 c=64 v=0
28877 On ch=1 n=g4 v=39
29066 Par ch=1 c=64 v=127
29184 Off ch=1 n=c#3 v=0
29184 Off ch=1 n=c#4 v=0
29184 On ch=1 n=c#3 v=34
29184 On ch=1 n=c#4 v=46
29286 Off ch=1 n=a#4 v=0
29286 On ch=1 n=e4 v=34
29336 Off ch=1 n=g4 v=0
29481 Par ch=1 c=64 v=0
29696 Par ch=1 c=64 v=0
29696 Par ch=1 c=64 v=127
29696 Par ch=1 c=64 v=0
29696 Par ch=1 c=64 v=0
29696 Off ch=1 n=c#3 v=0
29696 Off ch=1 n=c#4 v=0
29696 On ch=1 n=c#5 v=43
29696 On ch=1 n=b2 v=30
29696 On ch=1 n=b3 v=42
29746 Off ch=1 n=e4 v=0
29845 Par ch=1 c=64 v=0
30043 Par ch=1 c=64 v=127
30106 On ch=1 n=f#4 v=46
30225 Par ch=1 c=64 v=0
30489 Par ch=1 c=64 v=127
30515 Off ch=1 n=f#4 v=0
30515 Off ch=1 n=c#5 v=0
30515 On ch=1 n=b4 v=43
30925 On ch=1 n=f#4 v=41
30968 Par ch=1 c=64 v=0
31182 Par ch=1 c=64 v=127
31334 Off ch=1 n=f#4 v=0
31334 Off ch=1 n=b4 v=0
31334 On ch=1 n=d#4 v=38
31744 Off ch=1 n=d#4 v=0
31744 On ch=1 n=a#4 v=36
31767 Par ch=1 c=64 v=0
32154 On ch=1 n=f#4 v=46
32172 Par ch=1 c=64 v=127
32563 Off ch=1 n=f#4 v=0
32563 Off ch=1 n=a#4 v=0
32563 On ch=1 n=a4 v=43
32570 Par ch=1 c=64 v=0
32768 Off ch=1 n=b2 v=0
32768 Off ch=1 n=b3 v=0
32768 On ch=1 n=b2 v=34
32768 On ch=1 n=b3 v=46
32824 Par ch=1 c=64 v=0
32973 On ch=1 n=f4 v=41
33162 Par ch=1 c=64 v=127
33382 Off ch=1 n=f4 v=0
33382 Off ch=1 n=a4 v=0
33382 On ch=1 n=d#4 v=38
33577 Par ch=1 c=64 v=0
33792 Par ch=1 c=64 v=127
33792 Par ch=1 c=64 v=0
33792 Off ch=1 n=d#4 v=0
33792 Off ch=1 n=b2 v=0
33792 Off ch=1 n=b3 v=0
33792 On ch=1 n=b4 v=55
33792 On ch=1 n=f#2 v=43
33792 On ch=1 n=f#3 v=55
34004 Par ch=1 c=64 v=0
34186 Par ch=1 c=64 v=127
34202 On ch=1 n=f#4 v=53
34611 Off ch=1 n=f#4 v=0
34611 Off ch=1 n=b4 v=0
34611 On ch=1 n=a#4 v=50
34816 Off ch=1 n=f#2 v=0
34816 Off ch=1 n=f#3 v=0
35021 On ch=1 n=f#4 v=49
35279 Par ch=1 c=64 v=0
35430 Off ch=1 n=f#4 v=0
35430 Off ch=1 n=a#4 v=0
35430 On ch=1 n=d#4 v=46
35840 Off ch=1 n=d#4 v=0
35840 On ch=1 n=d#5 v=59
35863 Par ch=1 c=64 v=0
36250 On ch=1 n=b4 v=56
36268 Par ch=1 c=64 v=127
36659 Off ch=1 n=b4 v=0
36659 Off ch=1 n=d#5 v=0
36659 On ch=1 n=d5 v=53
36864 On ch=1 n=g2 v=47
36864 On ch=1 n=g3 v=57
36920 Par ch=1 c=64 v=0
37069 On ch=1 n=a#4 v=52
37258 Par ch=1 c=64 v=127
37478 Off ch=1 n=a#4 v=0
37478 Off ch=1 n=d5 v=0
37478 On ch=1 n=e4 v=49
37585 Par ch=1 c=64 v=0
37888 Par ch=1 c=64 v=127
37888 Par ch=1 c=64 v=0
37888 Par ch=1 c=64 v=0
37888 Off ch=1 n=e4 v=0
37888 Off ch=1 n=g2 v=0
37888 Off ch=1 n=g3 v=0
37888 On ch=1 n=c#5 v=62
37888 On ch=1 n=g#2 v=48
37888 On ch=1 n=g#3 v=59
38100 Par ch=1 c=64 v=0
38282 Par ch=1 c=64 v=127
38298 On ch=1 n=g#4 v=60
38707 Off ch=1 n=g#4 v=0
38707 Off ch=1 n=c#5 v=0
38707 On ch=1 n=b4 v=57
38912 Off ch=1 n=g#2 v=0
38912 Off ch=1 n=g#3 v=0
39117 On ch=1 n=g#4 v=55
39375 Par ch=1 c=64 v=0
39526 Off ch=1 n=g#4 v=0
39526 Off ch=1 n=b4 v=0
39526 On ch=1 n=e4 v=52
39936 Off ch=1 n=e4 v=0
39936 On ch=1 n=e5 v=66
39959 Par ch=1 c=64 v=0
40346 On ch=1 n=b4 v=63
40364 Par ch=1 c=64 v=127
40755 Off ch=1 n=b4 v=0
40755 Off ch=1 n=e5 v=0
40755 On ch=1 n=d#5 v=60
40960 On ch=1 n=a2 v=52
40960 On ch=1 n=a3 v=64
41016 Par ch=1 c=64 v=0
41165 On ch=1 n=b4 v=58
41354 Par ch=1 c=64 v=127
41574 Off ch=1 n=b4 v=0
41574 Off ch=1 n=d#5 v=0
41574 On ch=1 n=f#4 v=55
41681 Par ch=1 c=64 v=0
41984 Par ch=1 c=64 v=127
41984 Par ch=1 c=64 v=0
41984 Par ch=1 c=64 v=0
41984 Off ch=1 n=f#4 v=0
41984 Off ch=1 n=a2 v=0
41984 Off ch=1 n=a3 v=0
41984 On ch=1 n=a#5 v=70
41984 On ch=1 n=a#2 v=54
41984 On ch=1 n=a#3 v=66
42196 Par ch=1 c=64 v=0
42378 Par ch=1 c=64 v=127
42394 On ch=1 n=d#5 v=67
42803 Off ch=1 n=d#5 v=0
42803 Off ch=1 n=a#5 v=0
42803 On ch=1 n=a5 v=63
43008 On ch=1 n=f#3 v=61
43008 On ch=1 n=f#4 v=73
43198 Par ch=1 c=64 v=127
43213 On ch=1 n=d#5 v=62
43622 Off ch=1 n=d#5 v=0
43622 On ch=1 n=b4 v=58
44032 Off ch=1 n=b4 v=0
44032 Off ch=1 n=a5 v=0
44032 On ch=1 n=d#6 v=73
44032 Off ch=1 n=a#2 v=0
44032 Off ch=1 n=f#3 v=0
44032 Off ch=1 n=a#3 v=0
44032 Off ch=1 n=f#4 v=0
44442 On ch=1 n=d#5 v=70
44851 Off ch=1 n=d#5 v=0
44851 Off ch=1 n=d#6 v=0
44851 On ch=1 n=a5 v=67
45112 Par ch=1 c=64 v=0
45261 On ch=1 n=d#5 v=64
45450 Par ch=1 c=64 v=127
45670 Off ch=1 n=d#5 v=0
45670 Off ch=1 n=a5 v=0
45670 On ch=1 n=b4 v=61
45777 Par ch=1 c=64 v=0
46080 Par ch=1 c=64 v=127
46080 Par ch=1 c=64 v=0
46080 Par ch=1 c=64 v=0
46080 Par ch=1 c=64 v=0
46080 Off ch=1 n=b4 v=0
46080 On ch=1 n=a5 v=64
46080 On ch=1 n=f3 v=63
46080 On ch=1 n=f4 v=51
46292 Par ch=1 c=64 v=0
46474 Par ch=1 c=64 v=127
46490 Off ch=1 n=a5 v=0
46490 On ch=1 n=d#5 v=62
46899 Off ch=1 n=d#5 v=0
46899 On ch=1 n=g#5 v=60
47309 Off ch=1 n=g#5 v=0
47309 On ch=1 n=d#5 v=57
47567 Par ch=1 c=64 v=0
47718 Off ch=1 n=d#5 v=0
47718 On ch=1 n=b4 v=55
48128 Off ch=1 n=b4 v=0
48128 On ch=1 n=f#5 v=53
48128 Off ch=1 n=f3 v=0
48128 Off ch=1 n=f4 v=0
48128 On ch=1 n=a#2 v=45
48128 On ch=1 n=a#3 v=45
48151 Par ch=1 c=64 v=0
48538 Off ch=1 n=f#5 v=0
48538 On ch=1 n=d5 v=51
48556 Par ch=1 c=64 v=127
48947 Off ch=1 n=d5 v=0
48947 On ch=1 n=f5 v=48
49152 Off ch=1 n=a#2 v=0
49152 Off ch=1 n=a#3 v=0
49152 On ch=1 n=g#2 v=42
49152 On ch=1 n=g#3 v=42
49208 Par ch=1 c=64 v=0
49357 Off ch=1 n=f5 v=0
49357 On ch=1 n=d5 v=46
49546 Par ch=1 c=64 v=127
49766 Off ch=1 n=d5 v=0
49766 On ch=1 n=a#4 v=44
49873 Par ch=1 c=64 v=0
50176 Par ch=1 c=64 v=127
50176 Par ch=1 c=64 v=0
50176 Par ch=1 c=64 v=0
50176 Off ch=1 n=a#4 v=0
50176 Off ch=1 n=g#2 v=0
50176 Off ch=1 n=g#3 v=0
50176 On ch=1 n=b4 v=44
50176 On ch=1 n=d#3 v=39
50176 On ch=1 n=d#4 v=48
50388 Par ch=1 c=64 v=0
50570 Par ch=1 c=64 v=127
50586 Off ch=1 n=b4 v=0
50586 On ch=1 n=f#4 v=45
50859 Off ch=1 n=d#3 v=0
50859 Off ch=1 n=d#4 v=0
50859 On ch=1 n=f#2 v=40
50859 On ch=1 n=f#3 v=48
50995 Off ch=1 n=f#4 v=0
50995 On ch=1 n=a#4 v=46
51405 Off ch=1 n=a#4 v=0
51405 On ch=1 n=f#4 v=47
51541 Off ch=1 n=f#2 v=0
51541 Off ch=1 n=f#3 v=0
51663 Par ch=1 c=64 v=0
51814 Off ch=1 n=f#4 v=0
51814 On ch=1 n=d#4 v=47
52224 Off ch=1 n=d#4 v=0
52224 On ch=1 n=d#5 v=48
52224 On ch=1 n=e3 v=42
52224 On ch=1 n=e4 v=52
52247 Par ch=1 c=64 v=0
52634 Off ch=1 n=d#5 v=0
52634 On ch=1 n=b4 v=49
52652 Par ch=1 c=64 v=127
52907 Off ch=1 n=e3 v=0
52907 Off ch=1 n=e4 v=0
52907 On ch=1 n=g2 v=44
52907 On ch=1 n=g3 v=53
53043 Off ch=1 n=b4 v=0
53043 On ch=1 n=d5 v=50
53304 Par ch=1 c=64 v=0
53453 Off ch=1 n=d5 v=0
53453 On ch=1 n=a#4 v=51
53589 Off ch=1 n=g2 v=0
53589 Off ch=1 n=g3 v=0
53642 Par ch=1 c=64 v=127
53862 Off ch=1 n=a#4 v=0
53862 On ch=1 n=e4 v=52
53969 Par ch=1 c=64 v=0
54272 Par ch=1 c=64 v=127
54272 Par ch=1 c=64 v=0
54272 Par ch=1 c=64 v=0
54272 Off ch=1 n=e4 v=0
54272 On ch=1 n=c#5 v=52
54272 On ch=1 n=e3 v=45
54272 On ch=1 n=e4 v=55
54484 Par ch=1 c=64 v=0
54666 Par ch=1 c=64 v=127
54682 Off ch=1 n=c#5 v=0
54682 On ch=1 n=g#4 v=53
54955 Off ch=1 n=e3 v=0
54955 Off ch=1 n=e4 v=0
54955 On ch=1 n=g#2 v=46
54955 On ch=1 n=g#3 v=57
55091 Off ch=1 n=g#4 v=0
55091 On ch=1 n=b4 v=54
55501 Off ch=1 n=b4 v=0
55501 On ch=1 n=g#4 v=55
55637 Off ch=1 n=g#2 v=0
55637 Off ch=1 n=g#3 v=0
55759 Par ch=1 c=64 v=0
55910 Off ch=1 n=g#4 v=0
55910 On ch=1 n=e4 v=56
56320 Off ch=1 n=e4 v=0
56320 On ch=1 n=e5 v=57
56320 On ch=1 n=f#3 v=49
56320 On ch=1 n=f#4 v=60
56343 Par ch=1 c=64 v=0
56730 Off ch=1 n=e5 v=0
56730 On ch=1 n=b4 v=57
56748 Par ch=1 c=64 v=127
57003 Off ch=1 n=f#3 v=0
57003 Off ch=1 n=f#4 v=0
57003 On ch=1 n=a2 v=50
57003 On ch=1 n=a3 v=61
57139 Off ch=1 n=b4 v=0
57139 On ch=1 n=d#5 v=58
57400 Par ch=1 c=64 v=0
57549 Off ch=1 n=d#5 v=0
57549 On ch=1 n=b4 v=59
57685 Off ch=1 n=a2 v=0
57685 Off ch=1 n=a3 v=0
57738 Par ch=1 c=64 v=127
57958 Off ch=1 n=b4 v=0
57958 On ch=1 n=f#4 v=60
58065 Par ch=1 c=64 v=0
58368 Par ch=1 c=64 v=127
58368 Par ch=1 c=64 v=0
58368 Par ch=1 c=64 v=0
58368 Off ch=1 n=f#4 v=0
58368 On ch=1 n=a#5 v=67
58368 On ch=1 n=f#3 v=52
58368 On ch=1 n=f#4 v=64
58580 Par ch=1 c=64 v=0
58762 Par ch=1 c=64 v=127
58778 On ch=1 n=d#5 v=64
59051 Off ch=1 n=f#3 v=0
59051 Off ch=1 n=f#4 v=0
59051 On ch=1 n=a#2 v=53
59051 On ch=1 n=a#3 v=66
59187 Off ch=1 n=d#5 v=0
59187 Off ch=1 n=a#5 v=0
59187 On ch=1 n=a5 v=60
59597 On ch=1 n=d#5 v=59
59612 Par ch=1 c=64 v=127
59733 Off ch=1 n=a#2 v=0
59733 Off ch=1 n=a#3 v=0
60006 Off ch=1 n=d#5 v=0
60006 Off ch=1 n=a5 v=0
60006 On ch=1 n=b4 v=55
60416 Off ch=1 n=b4 v=0
60416 On ch=1 n=d#6 v=70
60416 On ch=1 n=f#3 v=55
60416 On ch=1 n=f#4 v=69
60826 On ch=1 n=d#5 v=67
61099 Off ch=1 n=f#3 v=0
61099 Off ch=1 n=f#4 v=0
61099 On ch=1 n=a#2 v=57
61099 On ch=1 n=a#3 v=70
61235 Off ch=1 n=d#5 v=0
61235 Off ch=1 n=d#6 v=0
61235 On ch=1 n=a5 v=64
61496 Par ch=1 c=64 v=0
61645 On ch=1 n=d#5 v=61
61781 Off ch=1 n=a#2 v=0
61781 Off ch=1 n=a#3 v=0
61834 Par ch=1 c=64 v=127
62054 Off ch=1 n=d#5 v=0
62054 Off ch=1 n=a5 v=0
62054 On ch=1 n=b4 v=58
62161 Par ch=1 c=64 v=0
62464 Par ch=1 c=64 v=0
62464 Par ch=1 c=64 v=0
62464 Off ch=1 n=b4 v=0
62464 On ch=1 n=a5 v=57
62464 On ch=1 n=f3 v=41
62464 On ch=1 n=f4 v=53
62798 Par ch=1 c=64 v=127
62874 Off ch=1 n=a5 v=0
62874 On ch=1 n=d#5 v=60
63147 Off ch=1 n=f3 v=0
63147 Off ch=1 n=f4 v=0
63147 On ch=1 n=a#2 v=42
63147 On ch=1 n=a#3 v=53
63283 Off ch=1 n=d#5 v=0
63283 On ch=1 n=g#5 v=62
63693 Off ch=1 n=g#5 v=0
63693 On ch=1 n=d#5 v=64
63829 Off ch=1 n=a#2 v=0
63829 Off ch=1 n=a#3 v=0
63951 Par ch=1 c=64 v=0
64102 Off ch=1 n=d#5 v=0
64102 On ch=1 n=b4 v=52
64512 Off ch=1 n=b4 v=0
64512 On ch=1 n=f#5 v=64
64512 On ch=1 n=a#3 v=52
64512 On ch=1 n=a#4 v=64
64922 Off ch=1 n=f#5 v=0
64922 On ch=1 n=d5 v=62
65331 Off ch=1 n=d5 v=0
65331 On ch=1 n=f5 v=59
65741 Off ch=1 n=f5 v=0
65741 On ch=1 n=d5 v=57
66150 Off ch=1 n=d5 v=0
66150 On ch=1 n=g#4 v=55
66560 Par ch=1 c=64 v=127
66560 Par ch=1 c=64 v=0
66560 Par ch=1 c=64 v=0
66560 Off ch=1 n=g#4 v=0
66560 Off ch=1 n=a#3 v=0
66560 Off ch=1 n=a#4 v=0
66560 On ch=1 n=f5 v=72
66560 On ch=1 n=d#3 v=55
66560 On ch=1 n=d#4 v=67
66772 Par ch=1 c=64 v=0
66954 Par ch=1 c=64 v=127
66970 Off ch=1 n=f5 v=0
66970 On ch=1 n=a#4 v=69
67379 Off ch=1 n=a#4 v=0
67379 On ch=1 n=d#5 v=66
67789 Off ch=1 n=d#5 v=0
67789 On ch=1 n=a#4 v=64
68047 Par ch=1 c=64 v=0
68198 Off ch=1 n=a#4 v=0
68198 On ch=1 n=f#4 v=61
68608 Off ch=1 n=f#4 v=0
68608 On ch=1 n=b4 v=65
68608 Off ch=1 n=d#3 v=0
68608 Off ch=1 n=d#4 v=0
68608 On ch=1 n=a2 v=43
68608 On ch=1 n=a3 v=55
68631 Par ch=1 c=64 v=0
69018 Off ch=1 n=b4 v=0
69018 On ch=1 n=f#4 v=62
69036 Par ch=1 c=64 v=127
69291 Off ch=1 n=a2 v=0
69291 Off ch=1 n=a3 v=0
69291 On ch=1 n=a#2 v=43
69291 On ch=1 n=a#3 v=55
69427 Off ch=1 n=f#4 v=0
69427 On ch=1 n=a#4 v=59
69688 Par ch=1 c=64 v=0
69837 Off ch=1 n=a#4 v=0
69837 On ch=1 n=f#4 v=57
69897 Par ch=1 c=64 v=0
69973 Off ch=1 n=a#2 v=0
69973 Off ch=1 n=a#3 v=0
70246 Off ch=1 n=f#4 v=0
70246 On ch=1 n=d#4 v=54
70656 Par ch=1 c=64 v=0
70656 Par ch=1 c=64 v=0
70656 Off ch=1 n=d#4 v=0
70656 On ch=1 n=a#4 v=48
70656 On ch=1 n=b2 v=34
70656 On ch=1 n=b3 v=53
70985 Par ch=1 c=64 v=127
71066 On ch=1 n=f#4 v=41
71475 Off ch=1 n=f#4 v=0
71475 Off ch=1 n=a#4 v=0
71475 On ch=1 n=a4 v=38
71541 Par ch=1 c=64 v=0
71809 Par ch=1 c=64 v=127
71885 On ch=1 n=f4 v=36
72294 Off ch=1 n=f4 v=0
72294 Off ch=1 n=a4 v=0
72294 On ch=1 n=d#4 v=33
72385 Par ch=1 c=64 v=0
72704 Off ch=1 n=d#4 v=0
72704 On ch=1 n=a#4 v=44
72714 Par ch=1 c=64 v=127
73114 On ch=1 n=f#4 v=41
73523 Off ch=1 n=f#4 v=0
73523 Off ch=1 n=a#4 v=0
73523 On ch=1 n=a4 v=38
73620 Par ch=1 c=64 v=0
73826 Par ch=1 c=64 v=127
73933 On ch=1 n=f4 v=36
74342 Off ch=1 n=f4 v=0
74342 Off ch=1 n=a4 v=0
74342 On ch=1 n=d#4 v=33
74587 Par ch=1 c=64 v=0
74752 Par ch=1 c=64 v=127
74752 Par ch=1 c=64 v=0
74752 Par ch=1 c=64 v=127
74752 Par ch=1 c=64 v=0
74752 Par ch=1 c=64 v=0
74752 Par ch=1 c=64 v=0
74752 Off ch=1 n=d#4 v=0
74752 Off ch=1 n=b2 v=0
74752 Off ch=1 n=b3 v=0
74752 On ch=1 n=f5 v=72
74752 On ch=1 n=d#3 v=55
74752 On ch=1 n=d#4 v=67
74964 Par ch=1 c=64 v=0
74964 Par ch=1 c=64 v=0
75146 Par ch=1 c=64 v=127
75146 Par ch=1 c=64 v=127
75162 On ch=1 n=a#4 v=69
75571 Off ch=1 n=a#4 v=0
75571 Off ch=1 n=f5 v=0
75571 On ch=1 n=d#5 v=66
75981 On ch=1 n=a#4 v=64
76239 Par ch=1 c=64 v=0
76239 Par ch=1 c=64 v=0
76390 Off ch=1 n=a#4 v=0
76390 Off ch=1 n=d#5 v=0
76390 On ch=1 n=f#4 v=61
76800 Off ch=1 n=f#4 v=0
76800 On ch=1 n=b4 v=65
76800 Off ch=1 n=d#3 v=0
76800 Off ch=1 n=d#4 v=0
76800 On ch=1 n=a2 v=43
76800 On ch=1 n=a3 v=55
76823 Par ch=1 c=64 v=0
76823 Par ch=1 c=64 v=0
77210 On ch=1 n=f#4 v=62
77228 Par ch=1 c=64 v=127
77228 Par ch=1 c=64 v=127
77483 Off ch=1 n=a2 v=0
77483 Off ch=1 n=a3 v=0
77483 On ch=1 n=a#2 v=43
77483 On ch=1 n=a#3 v=55
77619 Off ch=1 n=f#4 v=0
77619 Off ch=1 n=b4 v=0
77619 On ch=1 n=a#4 v=59
77880 Par ch=1 c=64 v=0
77880 Par ch=1 c=64 v=0
77938 Par ch=1 c=64 v=0
78029 On ch=1 n=f#4 v=57
78165 Off ch=1 n=a#2 v=0
78165 Off ch=1 n=a#3 v=0
78438 Off ch=1 n=f#4 v=0
78438 Off ch=1 n=a#4 v=0
78438 On ch=1 n=d#4 v=54
78848 Par ch=1 c=64 v=0
78848 Par ch=1 c=64 v=0
78848 Par ch=1 c=64 v=0
78848 Par ch=1 c=64 v=0
78848 Off ch=1 n=d#4 v=0
78848 On ch=1 n=a#4 v=48
78848 On ch=1 n=b2 v=34
78848 On ch=1 n=b3 v=53
79177 Par ch=1 c=64 v=127
79258 On ch=1 n=f#4 v=41
79667 Off ch=1 n=f#4 v=0
79667 Off ch=1 n=a#4 v=0
79667 On ch=1 n=a4 v=38
79733 Par ch=1 c=64 v=0
80001 Par ch=1 c=64 v=127
80077 On ch=1 n=f4 v=36
80486 Off ch=1 n=f4 v=0
80486 Off ch=1 n=a4 v=0
80486 On ch=1 n=d#4 v=26
80577 Par ch=1 c=64 v=0
80896 Off ch=1 n=d#4 v=0
80896 On ch=1 n=a#4 v=37
80906 Par ch=1 c=64 v=127
81306 On ch=1 n=f#4 v=34
81715 Off ch=1 n=f#4 v=0
81715 Off ch=1 n=a#4 v=0
81715 On ch=1 n=a4 v=31
81812 Par ch=1 c=64 v=0
82018 Par ch=1 c=64 v=127
82125 On ch=1 n=f4 v=29
82534 Off ch=1 n=f4 v=0
82534 Off ch=1 n=a4 v=0
82534 On ch=1 n=d#4 v=26
82779 Par ch=1 c=64 v=0
82864 Off ch=1 n=d#4 v=0
82864 Off ch=1 n=b2 v=0
82864 Off ch=1 n=b3 v=0
82944 Par ch=1 c=64 v=0
82944 Par ch=1 c=64 v=0
87040 Par ch=1 c=64 v=0
87040 Par ch=1 c=64 v=0
87040 Par ch=1 c=64 v=0
87040 Par ch=1 c=64 v=0
87040 On ch=1 n=a#4 v=37
87040 On ch=1 n=b2 v=22
87040 On ch=1 n=b3 v=34
87450 Off ch=1 n=a#4 v=0
87450 On ch=1 n=f#4 v=34
87859 Off ch=1 n=f#4 v=0
87859 On ch=1 n=a4 v=31
88269 Off ch=1 n=a4 v=0
88269 On ch=1 n=f4 v=29
88678 Off ch=1 n=f4 v=0
88678 On ch=1 n=d#4 v=19
89088 Off ch=1 n=d#4 v=0
89088 On ch=1 n=a#4 v=30
89498 Off ch=1 n=a#4 v=0
89498 On ch=1 n=f#4 v=27
89907 Off ch=1 n=f#4 v=0
89907 On ch=1 n=a4 v=24
90112 Off ch=1 n=b2 v=0
90112 Off ch=1 n=b3 v=0
90317 Off ch=1 n=a4 v=0
90317 On ch=1 n=f4 v=22
90726 Off ch=1 n=f4 v=0
90726 On ch=1 n=d#4 v=19
90931 Off ch=1 n=d#4 v=0
91136 Par ch=1 c=64 v=127
91136 Par ch=1 c=64 v=0
91136 Par ch=1 c=64 v=0
91136 On ch=1 n=f4 v=55
91136 On ch=1 n=f5 v=72
91136 On ch=1 n=d#5 v=55
91136 On ch=1 n=b2 v=55
91136 On ch=1 n=b3 v=67
91348 Par ch=1 c=64 v=0
91530 Par ch=1 c=64 v=127
91546 Off ch=1 n=f4 v=0
91546 Off ch=1 n=f5 v=0
91546 On ch=1 n=f#4 v=59
91546 On ch=1 n=f#5 v=76
91546 Off ch=1 n=b2 v=0
91546 Off ch=1 n=b3 v=0
91546 On ch=1 n=d#2 v=55
91546 On ch=1 n=d#3 v=67
91955 Off ch=1 n=d#5 v=0
91955 On ch=1 n=b5 v=63
91955 Off ch=1 n=f#4 v=0
91955 Off ch=1 n=f#5 v=0
91955 On ch=1 n=f5 v=63
91955 On ch=1 n=f6 v=80
91955 On ch=1 n=f#4 v=55
91955 On ch=1 n=b4 v=55
91955 On ch=1 n=f#5 v=67
91986 Par ch=1 c=64 v=0
92365 Off ch=1 n=f5 v=0
92365 Off ch=1 n=f6 v=0
92365 On ch=1 n=d#5 v=55
92365 On ch=1 n=d#6 v=72
92410 Par ch=1 c=64 v=127
92774 Off ch=1 n=d#5 v=0
92774 Off ch=1 n=d#6 v=0
92774 On ch=1 n=b4 v=52
92774 On ch=1 n=b5 v=69
93184 Off ch=1 n=b5 v=0
93184 Off ch=1 n=b4 v=0
93184 Off ch=1 n=b5 v=0
93184 On ch=1 n=a#5 v=72
93184 On ch=1 n=a#4 v=55
93184 Off ch=1 n=d#2 v=0
93184 Off ch=1 n=d#3 v=0
93184 Off ch=1 n=f#4 v=0
93184 Off ch=1 n=b4 v=0
93184 Off ch=1 n=f#5 v=0
93207 Par ch=1 c=64 v=0
93594 Off ch=1 n=a#5 v=0
93594 On ch=1 n=f#5 v=69
93612 Par ch=1 c=64 v=127
94003 Off ch=1 n=a#4 v=0
94003 On ch=1 n=a4 v=50
94003 Off ch=1 n=f#5 v=0
94003 On ch=1 n=a5 v=67
94264 Par ch=1 c=64 v=0
94382 Par ch=1 c=64 v=0
94413 Off ch=1 n=a5 v=0
94413 On ch=1 n=f5 v=63
94822 Off ch=1 n=f5 v=0
94822 On ch=1 n=d#5 v=59
95027 Off ch=1 n=d#5 v=0
95032 Off ch=1 n=a4 v=0
95232 Par ch=1 c=64 v=0
95232 Par ch=1 c=64 v=0
95232 On ch=1 n=d#5 v=80
95232 On ch=1 n=a#5 v=80
95232 On ch=1 n=d#6 v=97
95232 On ch=1 n=d#3 v=64
95232 On ch=1 n=a#3 v=64
95232 On ch=1 n=f#4 v=76
95744 Off ch=1 n=d#5 v=0
95744 Off ch=1 n=a#5 v=0
95744 Off ch=1 n=d#6 v=0
95744 On ch=1 n=d#4 v=78
95744 Off ch=1 n=d#3 v=0
95744 Off ch=1 n=a#3 v=0
95744 Off ch=1 n=f#4 v=0
95744 On ch=1 n=d#2 v=52
95744 On ch=1 n=d#3 v=64
95949 Off ch=1 n=d#4 v=0
95949 Off ch=1 n=d#2 v=0
95949 Off ch=1 n=d#3 v=0
99328 Par ch=1 c=64 v=0
99328 Par ch=1 c=64 v=0
103424 Par ch=1 c=64 v=0
103424 Par ch=1 c=64 v=0
103426 Meta TrkEnd
TrkEnd
