MFile 1 2 1024
MTrk
0 TimeSig 1/4 24 8
0 KeySig 0 major
0 Tempo 666666
768 Tempo 705882
1024 TimeSig 3/4 72 8
1024 Tempo 800000
1280 Tempo 631578
1792 Tempo 600000
4864 Tempo 800000
5120 Tempo 1000000
8192 Tempo 750000
9216 Tempo 923076
9984 Tempo 2400000
10240 Tempo 800000
10581 Tempo 631578
11264 Tempo 666666
11605 Tempo 545454
12288 Tempo 750000
13184 Tempo 800000
15360 Tempo 750000
16384 Tempo 631578
19797 Tempo 800000
20480 Tempo 857142
20821 Tempo 1000000
21163 Tempo 1333333
22272 Tempo 750000
29355 Tempo 1090909
29696 Tempo 1090909
30379 Tempo 1500000
30720 Tempo 2400000
30848 Tempo 1000000
30976 Tempo 705882
37888 Tempo 545454
40960 Meta TrkEnd
TrkEnd
MTrk
0 Meta TrkName "Instrument  1"
0 PrCh ch=1 p=1
0 Par ch=1 c=64 v=0
0 Par ch=1 c=67 v=0
0 Par ch=1 c=64 v=0
0 Par ch=1 c=67 v=0
768 On ch=1 n=g4 v=68
768 On ch=1 n=c#5 v=68
768 On ch=1 n=e5 v=84
768 On ch=1 n=a2 v=55
768 On ch=1 n=a3 v=67
1024 Par ch=1 c=64 v=0
1024 Par ch=1 c=67 v=0
1024 Par ch=1 c=64 v=0
1024 Par ch=1 c=67 v=0
1024 Off ch=1 n=g4 v=0
1024 Off ch=1 n=c#5 v=0
1024 Off ch=1 n=e5 v=0
1024 Off ch=1 n=a2 v=0
1024 Off ch=1 n=a3 v=0
1024 On ch=1 n=g4 v=70
1024 On ch=1 n=c#5 v=70
1024 On ch=1 n=e5 v=89
1024 On ch=1 n=a2 v=64
1024 On ch=1 n=a3 v=76
1280 Off ch=1 n=g4 v=0
1280 Off ch=1 n=c#5 v=0
1280 Off ch=1 n=e5 v=0
1280 On ch=1 n=g#4 v=66
1280 On ch=1 n=c#5 v=66
1280 On ch=1 n=f5 v=83
1280 Off ch=1 n=a2 v=0
1280 Off ch=1 n=a3 v=0
1280 On ch=1 n=c#3 v=51
1280 On ch=1 n=c#4 v=62
1536 Off ch=1 n=g#4 v=0
1536 Off ch=1 n=c#5 v=0
1536 Off ch=1 n=f5 v=0
1536 On ch=1 n=g#4 v=63
1536 On ch=1 n=c#5 v=63
1536 On ch=1 n=f5 v=80
1536 Off ch=1 n=c#3 v=0
1536 Off ch=1 n=c#4 v=0
1536 On ch=1 n=c#3 v=48
1536 On ch=1 n=c#4 v=58
1792 Off ch=1 n=g#4 v=0
1792 Off ch=1 n=c#5 v=0
1792 Off ch=1 n=f5 v=0
1792 On ch=1 n=g4 v=60
1792 On ch=1 n=c#5 v=60
1792 On ch=1 n=e5 v=76
1792 Off ch=1 n=c#3 v=0
1792 Off ch=1 n=c#4 v=0
1792 On ch=1 n=a2 v=44
1792 On ch=1 n=a3 v=54
2048 Off ch=1 n=g4 v=0
2048 Off ch=1 n=c#5 v=0
2048 Off ch=1 n=e5 v=0
2048 On ch=1 n=g4 v=68
2048 On ch=1 n=c#5 v=68
2048 On ch=1 n=e5 v=85
2048 Off ch=1 n=a2 v=0
2048 Off ch=1 n=a3 v=0
2048 On ch=1 n=a2 v=55
2048 On ch=1 n=a3 v=67
2304 Off ch=1 n=g4 v=0
2304 Off ch=1 n=c#5 v=0
2304 Off ch=1 n=e5 v=0
2304 On ch=1 n=g#4 v=63
2304 On ch=1 n=c#5 v=63
2304 On ch=1 n=f5 v=80
2304 Off ch=1 n=a2 v=0
2304 Off ch=1 n=a3 v=0
2304 On ch=1 n=c#3 v=52
2304 On ch=1 n=c#4 v=63
2560 Off ch=1 n=g#4 v=0
2560 Off ch=1 n=c#5 v=0
2560 Off ch=1 n=f5 v=0
2560 On ch=1 n=g#4 v=60
2560 On ch=1 n=c#5 v=60
2560 On ch=1 n=f5 v=76
2560 Off ch=1 n=c#3 v=0
2560 Off ch=1 n=c#4 v=0
2560 On ch=1 n=c#3 v=48
2560 On ch=1 n=c#4 v=59
2816 Off ch=1 n=g#4 v=0
2816 Off ch=1 n=c#5 v=0
2816 Off ch=1 n=f5 v=0
2816 Off ch=1 n=c#3 v=0
2816 Off ch=1 n=c#4 v=0
4096 Par ch=1 c=64 v=0
4096 Par ch=1 c=67 v=0
4096 Par ch=1 c=64 v=0
4096 Par ch=1 c=67 v=0
4817 Par ch=1 c=64 v=127
4864 On ch=1 n=g#5 v=74
4864 On ch=1 n=f3 v=64
4864 On ch=1 n=c#4 v=64
4864 On ch=1 n=g#4 v=80
5120 Off ch=1 n=g#5 v=0
5120 On ch=1 n=c5 v=82
6144 Off ch=1 n=c5 v=0
6144 On ch=1 n=b4 v=82
6144 Off ch=1 n=f3 v=0
6144 Off ch=1 n=c#4 v=0
6144 Off ch=1 n=g#4 v=0
6144 On ch=1 n=g3 v=64
6144 On ch=1 n=c#4 v=64
6144 On ch=1 n=f4 v=64
6144 On ch=1 n=g4 v=80
6290 Par ch=1 c=64 v=0
6635 Par ch=1 c=64 v=127
7168 Par ch=1 c=64 v=127
7168 Par ch=1 c=67 v=0
7168 Par ch=1 c=64 v=0
7168 Par ch=1 c=67 v=0
7168 Off ch=1 n=b4 v=0
7168 Off ch=1 n=g3 v=0
7168 Off ch=1 n=c#4 v=0
7168 Off ch=1 n=f4 v=0
7168 Off ch=1 n=g4 v=0
7168 On ch=1 n=e4 v=67
7168 On ch=1 n=g4 v=67
7168 On ch=1 n=e5 v=83
7168 On ch=1 n=c3 v=55
7168 On ch=1 n=g3 v=55
7168 On ch=1 n=c4 v=71
7455 Par ch=1 c=64 v=0
7782 Par ch=1 c=64 v=127
8448 Off ch=1 n=e4 v=0
8448 Off ch=1 n=g4 v=0
8448 Off ch=1 n=e5 v=0
8448 On ch=1 n=g4 v=72
8576 Off ch=1 n=g4 v=0
8576 On ch=1 n=c4 v=70
8704 Par ch=1 c=64 v=127
8704 Off ch=1 n=c4 v=0
8704 On ch=1 n=e4 v=67
8832 Off ch=1 n=e4 v=0
8832 On ch=1 n=g3 v=64
8960 Off ch=1 n=g3 v=0
8960 On ch=1 n=c3 v=61
9088 Off ch=1 n=c3 v=0
9088 On ch=1 n=c3 v=59
9216 Off ch=1 n=c3 v=0
9216 On ch=1 n=c2 v=75
9216 Off ch=1 n=c3 v=0
9216 Off ch=1 n=g3 v=0
9216 Off ch=1 n=c4 v=0
9803 Par ch=1 c=64 v=0
9984 Off ch=1 n=c2 v=0
10240 Par ch=1 c=64 v=0
10240 Par ch=1 c=67 v=0
10240 Par ch=1 c=64 v=0
10240 Par ch=1 c=67 v=0
10240 On ch=1 n=g4 v=63
10240 On ch=1 n=c#5 v=63
10240 On ch=1 n=e5 v=81
10240 On ch=1 n=a2 v=56
10240 On ch=1 n=a3 v=68
10501 Off ch=1 n=g4 v=0
10501 Off ch=1 n=c#5 v=0
10501 Off ch=1 n=e5 v=0
10501 Off ch=1 n=a2 v=0
10501 Off ch=1 n=a3 v=0
10581 On ch=1 n=g4 v=56
10581 On ch=1 n=c#5 v=56
10581 On ch=1 n=e5 v=74
10581 On ch=1 n=a2 v=49
10581 On ch=1 n=a3 v=61
10843 Off ch=1 n=g4 v=0
10843 Off ch=1 n=c#5 v=0
10843 Off ch=1 n=e5 v=0
10843 Off ch=1 n=a2 v=0
10843 Off ch=1 n=a3 v=0
10923 On ch=1 n=g#4 v=56
10923 On ch=1 n=c#5 v=56
10923 On ch=1 n=f5 v=74
10923 On ch=1 n=c#3 v=49
10923 On ch=1 n=c#4 v=61
11184 Off ch=1 n=g#4 v=0
11184 Off ch=1 n=c#5 v=0
11184 Off ch=1 n=f5 v=0
11184 Off ch=1 n=c#3 v=0
11184 Off ch=1 n=c#4 v=0
11264 On ch=1 n=g4 v=63
11264 On ch=1 n=c#5 v=63
11264 On ch=1 n=e5 v=81
11264 On ch=1 n=a2 v=56
11264 On ch=1 n=a3 v=68
11525 Off ch=1 n=g4 v=0
11525 Off ch=1 n=c#5 v=0
11525 Off ch=1 n=e5 v=0
11525 Off ch=1 n=a2 v=0
11525 Off ch=1 n=a3 v=0
11605 On ch=1 n=g4 v=56
11605 On ch=1 n=c#5 v=56
11605 On ch=1 n=e5 v=74
11605 On ch=1 n=a2 v=49
11605 On ch=1 n=a3 v=61
11867 Off ch=1 n=g4 v=0
11867 Off ch=1 n=c#5 v=0
11867 Off ch=1 n=e5 v=0
11867 Off ch=1 n=a2 v=0
11867 Off ch=1 n=a3 v=0
11947 On ch=1 n=g#4 v=56
11947 On ch=1 n=c#5 v=56
11947 On ch=1 n=f5 v=74
11947 On ch=1 n=c#3 v=49
11947 On ch=1 n=c#4 v=61
12208 Off ch=1 n=g#4 v=0
12208 Off ch=1 n=c#5 v=0
12208 Off ch=1 n=f5 v=0
12208 Off ch=1 n=c#3 v=0
12208 Off ch=1 n=c#4 v=0
13184 On ch=1 n=c2 v=63
13184 On ch=1 n=c3 v=75
13312 Par ch=1 c=64 v=127
13312 Par ch=1 c=67 v=0
13312 Par ch=1 c=64 v=0
13312 Par ch=1 c=67 v=0
13312 On ch=1 n=d#5 v=62
13312 On ch=1 n=g#5 v=62
13312 On ch=1 n=d#6 v=87
13312 On ch=1 n=g#3 v=59
13312 On ch=1 n=d#4 v=59
13312 On ch=1 n=g#4 v=71
15360 Off ch=1 n=d#5 v=0
15360 Off ch=1 n=g#5 v=0
15360 Off ch=1 n=d#6 v=0
15360 On ch=1 n=f#4 v=62
15360 On ch=1 n=c5 v=62
15360 On ch=1 n=f#5 v=78
15360 Off ch=1 n=c2 v=0
15360 Off ch=1 n=c3 v=0
15360 Off ch=1 n=g#3 v=0
15360 Off ch=1 n=d#4 v=0
15360 Off ch=1 n=g#4 v=0
15360 On ch=1 n=d3 v=55
15360 On ch=1 n=g#3 v=55
15360 On ch=1 n=d4 v=67
15424 Par ch=1 c=64 v=0
15753 Par ch=1 c=64 v=127
16384 Par ch=1 c=64 v=0
16384 Par ch=1 c=67 v=0
16384 Par ch=1 c=64 v=0
16384 Par ch=1 c=67 v=0
16384 Off ch=1 n=f#4 v=0
16384 Off ch=1 n=c5 v=0
16384 Off ch=1 n=f#5 v=0
16384 Off ch=1 n=d3 v=0
16384 Off ch=1 n=g#3 v=0
16384 Off ch=1 n=d4 v=0
16384 On ch=1 n=g4 v=55
16384 On ch=1 n=g5 v=71
16384 On ch=1 n=g2 v=43
16384 On ch=1 n=g3 v=43
16384 On ch=1 n=d4 v=55
16443 Par ch=1 c=64 v=127
16555 Off ch=1 n=g4 v=0
16555 On ch=1 n=d5 v=55
16650 Par ch=1 c=64 v=0
16725 Off ch=1 n=d5 v=0
16725 On ch=1 n=b4 v=55
16896 Off ch=1 n=b4 v=0
16896 On ch=1 n=g4 v=55
17034 Par ch=1 c=64 v=127
17067 Off ch=1 n=g4 v=0
17067 On ch=1 n=b3 v=55
17237 Off ch=1 n=b3 v=0
17237 Off ch=1 n=g5 v=0
17237 On ch=1 n=d3 v=55
17408 Off ch=1 n=d3 v=0
17408 On ch=1 n=g2 v=67
17861 Par ch=1 c=64 v=0
18432 Off ch=1 n=g2 v=0
18432 Off ch=1 n=g2 v=0
18432 Off ch=1 n=g3 v=0
18432 Off ch=1 n=d4 v=0
19456 Par ch=1 c=64 v=0
19456 Par ch=1 c=67 v=0
19456 Par ch=1 c=64 v=0
19456 Par ch=1 c=67 v=0
19797 On ch=1 n=g4 v=43
19797 On ch=1 n=c#5 v=60
19797 On ch=1 n=e5 v=50
19797 On ch=1 n=a2 v=25
19797 On ch=1 n=a3 v=37
19836 Par ch=1 c=64 v=127
20139 Off ch=1 n=g4 v=0
20139 Off ch=1 n=e5 v=0
20139 On ch=1 n=g#4 v=33
20139 On ch=1 n=f5 v=50
20139 Off ch=1 n=a2 v=0
20139 Off ch=1 n=a3 v=0
20139 On ch=1 n=c#3 v=15
20139 On ch=1 n=c#4 v=27
20262 Par ch=1 c=64 v=0
20480 Off ch=1 n=g#4 v=0
20480 Off ch=1 n=c#5 v=0
20480 Off ch=1 n=f5 v=0
20480 Off ch=1 n=c#3 v=0
20480 Off ch=1 n=c#4 v=0
20821 On ch=1 n=g4 v=37
20821 On ch=1 n=c#5 v=54
20821 On ch=1 n=e5 v=44
20821 On ch=1 n=a2 v=18
20821 On ch=1 n=a3 v=30
20886 Par ch=1 c=64 v=127
21163 Off ch=1 n=g4 v=0
21163 Off ch=1 n=e5 v=0
21163 On ch=1 n=g#4 v=27
21163 On ch=1 n=f5 v=44
21163 Off ch=1 n=a2 v=0
21163 Off ch=1 n=a3 v=0
21163 On ch=1 n=c#3 v=8
21163 On ch=1 n=c#4 v=20
21311 Par ch=1 c=64 v=0
21504 Off ch=1 n=g#4 v=0
21504 Off ch=1 n=c#5 v=0
21504 Off ch=1 n=f5 v=0
21504 Off ch=1 n=c#3 v=0
21504 Off ch=1 n=c#4 v=0
22072 Par ch=1 c=64 v=127
22272 On ch=1 n=c#6 v=77
22272 On ch=1 n=a#3 v=64
22272 On ch=1 n=f#4 v=64
22272 On ch=1 n=c#5 v=76
22528 Par ch=1 c=64 v=127
22528 Par ch=1 c=67 v=0
22528 Par ch=1 c=64 v=0
22528 Par ch=1 c=67 v=0
22528 Off ch=1 n=c#6 v=0
22528 On ch=1 n=f5 v=80
24576 Off ch=1 n=f5 v=0
24576 On ch=1 n=e5 v=80
24576 Off ch=1 n=a#3 v=0
24576 Off ch=1 n=f#4 v=0
24576 Off ch=1 n=c#5 v=0
24576 On ch=1 n=c4 v=55
24576 On ch=1 n=f#4 v=55
24576 On ch=1 n=a#4 v=55
24576 On ch=1 n=c5 v=71
24605 Par ch=1 c=64 v=0
24839 Par ch=1 c=64 v=127
25600 Par ch=1 c=64 v=127
25600 Par ch=1 c=67 v=0
25600 Par ch=1 c=64 v=0
25600 Par ch=1 c=67 v=0
25600 Off ch=1 n=e5 v=0
25600 Off ch=1 n=c4 v=0
25600 Off ch=1 n=f#4 v=0
25600 Off ch=1 n=a#4 v=0
25600 Off ch=1 n=c5 v=0
25600 On ch=1 n=a4 v=68
25600 On ch=1 n=c5 v=68
25600 On ch=1 n=a5 v=84
25600 On ch=1 n=f3 v=55
25600 On ch=1 n=c4 v=55
25600 On ch=1 n=f4 v=71
25903 Par ch=1 c=64 v=0
26131 Par ch=1 c=64 v=127
26880 Off ch=1 n=a4 v=0
26880 Off ch=1 n=c5 v=0
26880 Off ch=1 n=a5 v=0
26880 On ch=1 n=c5 v=66
27008 Off ch=1 n=c5 v=0
27008 On ch=1 n=f4 v=66
27127 Par ch=1 c=64 v=127
27136 Off ch=1 n=f4 v=0
27136 On ch=1 n=a4 v=66
27264 Off ch=1 n=a4 v=0
27264 On ch=1 n=c4 v=66
27392 Off ch=1 n=c4 v=0
27392 On ch=1 n=f3 v=66
27520 Off ch=1 n=f3 v=0
27520 On ch=1 n=f3 v=66
27648 Off ch=1 n=f3 v=0
27648 On ch=1 n=f2 v=68
27648 Off ch=1 n=f3 v=0
27648 Off ch=1 n=c4 v=0
27648 Off ch=1 n=f4 v=0
27963 Par ch=1 c=64 v=0
28672 Par ch=1 c=64 v=0
28672 Par ch=1 c=67 v=0
28672 Par ch=1 c=64 v=0
28672 Par ch=1 c=67 v=0
28672 Off ch=1 n=f2 v=0
29334 Par ch=1 c=64 v=127
29355 On ch=1 n=g4 v=20
29355 On ch=1 n=c#5 v=20
29355 On ch=1 n=e5 v=40
29355 On ch=1 n=a2 v=7
29355 On ch=1 n=a3 v=19
29395 Par ch=1 c=64 v=127
29696 Off ch=1 n=g4 v=0
29696 Off ch=1 n=c#5 v=0
29696 Off ch=1 n=e5 v=0
29696 On ch=1 n=g#4 v=23
29696 On ch=1 n=c#5 v=23
29696 On ch=1 n=f5 v=46
29696 Off ch=1 n=a2 v=0
29696 Off ch=1 n=a3 v=0
29696 On ch=1 n=c#3 v=13
29696 On ch=1 n=c#4 v=25
29738 Par ch=1 c=64 v=0
29865 Par ch=1 c=64 v=127
30379 Off ch=1 n=g#4 v=0
30379 Off ch=1 n=c#5 v=0
30379 Off ch=1 n=f5 v=0
30379 On ch=1 n=g4 v=8
30379 On ch=1 n=c#5 v=8
30379 On ch=1 n=e5 v=28
30379 Off ch=1 n=c#3 v=0
30379 Off ch=1 n=c#4 v=0
30379 On ch=1 n=a2 v=9
30379 On ch=1 n=a3 v=9
30407 Par ch=1 c=64 v=0
30506 Par ch=1 c=64 v=127
30624 Par ch=1 c=64 v=0
30705 Par ch=1 c=64 v=127
30720 Off ch=1 n=g4 v=0
30720 Off ch=1 n=c#5 v=0
30720 Off ch=1 n=e5 v=0
30720 Off ch=1 n=a2 v=0
30720 Off ch=1 n=a3 v=0
30848 On ch=1 n=f2 v=70
30848 On ch=1 n=c#3 v=70
30848 On ch=1 n=f3 v=70
30976 On ch=1 n=g#5 v=68
30976 On ch=1 n=c#6 v=68
30976 On ch=1 n=g#6 v=84
30976 On ch=1 n=c#4 v=70
30976 On ch=1 n=g#4 v=70
30976 On ch=1 n=c#5 v=82
31744 Par ch=1 c=64 v=127
31744 Par ch=1 c=67 v=0
31744 Par ch=1 c=64 v=0
31744 Par ch=1 c=67 v=0
32768 Off ch=1 n=g#5 v=0
32768 Off ch=1 n=c#6 v=0
32768 Off ch=1 n=g#6 v=0
32768 Off ch=1 n=f2 v=0
32768 Off ch=1 n=c#3 v=0
32768 Off ch=1 n=f3 v=0
32768 Off ch=1 n=c#4 v=0
32768 Off ch=1 n=g#4 v=0
32768 Off ch=1 n=c#5 v=0
32803 Par ch=1 c=64 v=0
33418 Par ch=1 c=64 v=127
33664 On ch=1 n=g2 v=67
33664 On ch=1 n=c#3 v=67
33664 On ch=1 n=g3 v=79
33792 On ch=1 n=b4 v=71
33792 On ch=1 n=c#5 v=71
33792 On ch=1 n=f5 v=71
33792 On ch=1 n=g5 v=71
33792 On ch=1 n=b5 v=88
33792 On ch=1 n=c#4 v=67
33792 On ch=1 n=g4 v=79
34688 On ch=1 n=c2 v=67
34688 On ch=1 n=e2 v=67
34688 On ch=1 n=g2 v=67
34688 On ch=1 n=c3 v=83
34816 Par ch=1 c=64 v=127
34816 Par ch=1 c=67 v=0
34816 Par ch=1 c=64 v=0
34816 Par ch=1 c=67 v=0
34816 Off ch=1 n=b4 v=0
34816 Off ch=1 n=c#5 v=0
34816 Off ch=1 n=f5 v=0
34816 Off ch=1 n=g5 v=0
34816 Off ch=1 n=b5 v=0
34816 Off ch=1 n=c#3 v=0
34816 Off ch=1 n=g3 v=0
34816 Off ch=1 n=c#4 v=0
34816 Off ch=1 n=g4 v=0
34816 Off ch=1 n=g2 v=0
34816 On ch=1 n=c5 v=70
34816 On ch=1 n=e5 v=70
34816 On ch=1 n=g5 v=70
34816 On ch=1 n=c6 v=85
34816 On ch=1 n=g3 v=67
34816 On ch=1 n=c4 v=83
35049 Par ch=1 c=64 v=0
35072 Off ch=1 n=c5 v=0
35072 Off ch=1 n=e5 v=0
35072 Off ch=1 n=g5 v=0
35072 Off ch=1 n=c6 v=0
35072 On ch=1 n=c5 v=86
35072 Off ch=1 n=c2 v=0
35072 Off ch=1 n=e2 v=0
35072 Off ch=1 n=g2 v=0
35072 Off ch=1 n=c3 v=0
35072 Off ch=1 n=g3 v=0
35072 Off ch=1 n=c4 v=0
35072 On ch=1 n=c3 v=83
35072 On ch=1 n=c4 v=67
35328 Off ch=1 n=c5 v=0
35328 Off ch=1 n=c3 v=0
35328 Off ch=1 n=c4 v=0
37888 Par ch=1 c=64 v=0
37888 Par ch=1 c=67 v=0
37888 Par ch=1 c=64 v=0
37888 Par ch=1 c=67 v=0
40960 Par ch=1 c=64 v=0
40960 Par ch=1 c=64 v=0
40960 Meta TrkEnd
TrkEnd
