MFile 1 2 1024
MTrk
0 TimeSig 1/4 24 8
0 KeySig -5 minor
0 Tempo 666666
1024 TimeSig 9/8 36 8
1024 Tempo 895522
1536 Tempo 689655
2048 Tempo 800000
2560 Tempo 1000000
3072 Tempo 689655
4096 Tempo 895522
4608 Tempo 689655
5120 Tempo 1000000
5632 Tempo 895522
6144 Tempo 689655
8704 Tempo 1000000
9216 Tempo 895522
10240 Tempo 895522
10752 Tempo 689655
11264 Tempo 800000
11776 Tempo 1000000
12288 Tempo 689655
13312 Tempo 895522
13824 Tempo 689655
14336 Tempo 1000000
14848 Tempo 895522
15360 Tempo 689655
17920 Tempo 1000000
18432 Tempo 895522
19456 Tempo 895522
19968 Tempo 689655
20480 Tempo 800000
21504 Tempo 689655
22528 Tempo 895522
23040 Tempo 689655
23552 Tempo 1000000
24064 Tempo 895522
24576 Tempo 689655
27136 Tempo 1000000
27648 Tempo 895522
28979 Tempo 731707
29286 Tempo 689655
30208 Tempo 731707
30720 Tempo 638297
33280 Tempo 800000
33792 Tempo 638297
35840 Tempo 731707
36864 Tempo 606060
37376 Tempo 800000
38400 Tempo 606060
40448 Tempo 1000000
40960 Tempo 1000000
41472 Tempo 800000
41984 Tempo 1153846
42240 Tempo 1153846
43008 Tempo 731707
43520 Tempo 689655
45568 Tempo 1000000
46080 Tempo 800000
47104 Tempo 895522
47616 Tempo 689655
48128 Tempo 800000
48640 Tempo 1000000
49152 Tempo 689655
50176 Tempo 895522
50688 Tempo 689655
51200 Tempo 1000000
51712 Tempo 895522
52224 Tempo 689655
56320 Tempo 895522
56832 Tempo 689655
57344 Tempo 800000
57856 Tempo 1000000
58368 Tempo 689655
59392 Tempo 895522
59904 Tempo 689655
60416 Tempo 1000000
60928 Tempo 895522
61440 Tempo 689655
64000 Tempo 1000000
64512 Tempo 800000
65536 Tempo 895522
66048 Tempo 689655
66560 Tempo 800000
67072 Tempo 1000000
67584 Tempo 689655
70144 Tempo 895522
70656 Tempo 638297
74752 Tempo 1000000
75059 Tempo 731707
75366 Tempo 689655
76288 Tempo 731707
76800 Tempo 638297
79872 Tempo 606060
81920 Tempo 731707
82944 Tempo 606060
83456 Tempo 800000
84480 Tempo 606060
86528 Tempo 1000000
87040 Tempo 1000000
87552 Tempo 800000
88064 Tempo 895522
88576 Tempo 800000
89088 Tempo 638297
90112 Tempo 731707
90624 Tempo 895522
91136 Tempo 1333333
93184 Tempo 731707
96256 Tempo 895522
96768 Tempo 731707
97792 Tempo 1000000
98304 Tempo 731707
99328 Tempo 1000000
99840 Tempo 731707
101888 Tempo 1153846
102400 Tempo 731707
103168 Tempo 638297
103936 Tempo 606060
105472 Tempo 731707
106240 Tempo 800000
107008 Tempo 1000000
107520 Tempo 731707
111104 Tempo 1000000
111616 Tempo 731707
119296 Tempo 731707
120832 Tempo 731707
123392 Tempo 1000000
123904 Tempo 1153846
124928 Tempo 1333333
125747 Tempo 1000000
126054 Tempo 895522
126669 Tempo 1153846
126976 Tempo 1000000
134144 Tempo 1621621
134656 Tempo 1000000
143872 Tempo 180180
148485 Meta TrkEnd
TrkEnd
MTrk
0 Meta TrkName "Instrument  1"
0 PrCh ch=1 p=1
0 Par ch=1 c=64 v=0
0 Par ch=1 c=67 v=0
0 Par ch=1 c=64 v=0
0 Par ch=1 c=67 v=0
1024 Par ch=1 c=64 v=127
1024 Par ch=1 c=67 v=0
1024 Par ch=1 c=64 v=0
1024 Par ch=1 c=67 v=0
1024 On ch=1 n=f#5 v=37
1024 On ch=1 n=a#5 v=37
1024 On ch=1 n=f6 v=55
1024 On ch=1 n=c#5 v=26
1170 Par ch=1 c=64 v=0
1432 Par ch=1 c=64 v=127
1536 On ch=1 n=d#4 v=29
2048 Off ch=1 n=f#5 v=0
2048 Off ch=1 n=a#5 v=0
2048 Off ch=1 n=f6 v=0
2048 On ch=1 n=c#5 v=26
2048 On ch=1 n=f5 v=26
2048 On ch=1 n=a#5 v=51
2048 Off ch=1 n=d#4 v=0
2048 Off ch=1 n=c#5 v=0
2048 On ch=1 n=f4 v=29
2560 Off ch=1 n=c#5 v=0
2560 Off ch=1 n=f5 v=0
2560 Off ch=1 n=a#5 v=0
2560 On ch=1 n=c#5 v=23
2560 On ch=1 n=d#5 v=23
2560 On ch=1 n=c#6 v=48
2560 Off ch=1 n=f4 v=0
2560 On ch=1 n=f#4 v=29
2570 Par ch=1 c=64 v=0
2774 Par ch=1 c=64 v=127
3072 Off ch=1 n=f#4 v=0
3072 On ch=1 n=a#3 v=24
3584 Off ch=1 n=a#3 v=0
3584 On ch=1 n=d#3 v=22
4086 Par ch=1 c=64 v=0
4096 Off ch=1 n=d#3 v=0
4096 On ch=1 n=a3 v=30
4407 Par ch=1 c=64 v=127
4608 On ch=1 n=g#4 v=25
5120 Off ch=1 n=c#5 v=0
5120 Off ch=1 n=d#5 v=0
5120 Off ch=1 n=c#6 v=0
5120 On ch=1 n=c#5 v=24
5120 On ch=1 n=d#5 v=24
5120 On ch=1 n=c#6 v=45
5120 Off ch=1 n=a3 v=0
5120 Off ch=1 n=g#4 v=0
5120 On ch=1 n=f#4 v=25
5632 Par ch=1 c=64 v=127
5632 Par ch=1 c=64 v=0
5632 Par ch=1 c=67 v=0
5632 Par ch=1 c=64 v=0
5632 Par ch=1 c=67 v=0
5632 Off ch=1 n=c#5 v=0
5632 Off ch=1 n=d#5 v=0
5632 Off ch=1 n=c#6 v=0
5632 Off ch=1 n=f#4 v=0
5632 On ch=1 n=c#5 v=21
5632 On ch=1 n=f5 v=21
5632 On ch=1 n=c#6 v=42
5632 On ch=1 n=f4 v=21
5778 Par ch=1 c=64 v=0
6040 Par ch=1 c=64 v=127
6144 On ch=1 n=a#3 v=22
6656 Off ch=1 n=a#3 v=0
6656 Off ch=1 n=f4 v=0
6656 On ch=1 n=a#2 v=22
7168 On ch=1 n=f3 v=22
7178 Par ch=1 c=64 v=0
7382 Par ch=1 c=64 v=127
7680 Off ch=1 n=f3 v=0
7680 On ch=1 n=c#4 v=28
8192 Off ch=1 n=c#4 v=0
8192 On ch=1 n=f4 v=33
8694 Par ch=1 c=64 v=0
8704 Off ch=1 n=c#5 v=0
8704 Off ch=1 n=f4 v=0
8704 On ch=1 n=c5 v=36
9015 Par ch=1 c=64 v=127
9216 Off ch=1 n=c5 v=0
9216 On ch=1 n=a4 v=33
9728 Off ch=1 n=a#2 v=0
9728 Off ch=1 n=a4 v=0
9728 On ch=1 n=a#4 v=30
10240 Par ch=1 c=64 v=127
10240 Par ch=1 c=64 v=0
10240 Par ch=1 c=67 v=0
10240 Par ch=1 c=64 v=0
10240 Par ch=1 c=64 v=0
10240 Par ch=1 c=67 v=0
10240 Off ch=1 n=f5 v=0
10240 Off ch=1 n=c#6 v=0
10240 Off ch=1 n=a#4 v=0
10240 On ch=1 n=f#5 v=37
10240 On ch=1 n=a#5 v=37
10240 On ch=1 n=f6 v=53
10240 On ch=1 n=c#5 v=26
10386 Par ch=1 c=64 v=0
10648 Par ch=1 c=64 v=127
10752 Off ch=1 n=c#5 v=0
10752 On ch=1 n=d#4 v=29
11264 Off ch=1 n=f#5 v=0
11264 Off ch=1 n=a#5 v=0
11264 Off ch=1 n=f6 v=0
11264 On ch=1 n=c#5 v=26
11264 On ch=1 n=f5 v=26
11264 On ch=1 n=a#5 v=51
11264 Off ch=1 n=d#4 v=0
11264 On ch=1 n=f4 v=29
11776 Off ch=1 n=c#5 v=0
11776 Off ch=1 n=f5 v=0
11776 Off ch=1 n=a#5 v=0
11776 On ch=1 n=c#5 v=23
11776 On ch=1 n=d#5 v=23
11776 On ch=1 n=c#6 v=48
11776 Off ch=1 n=f4 v=0
11776 On ch=1 n=f#4 v=29
11786 Par ch=1 c=64 v=0
11990 Par ch=1 c=64 v=127
12288 Off ch=1 n=f#4 v=0
12288 On ch=1 n=a#3 v=24
12800 Off ch=1 n=a#3 v=0
12800 On ch=1 n=d#3 v=22
13302 Par ch=1 c=64 v=0
13312 Off ch=1 n=d#3 v=0
13312 On ch=1 n=a3 v=30
13623 Par ch=1 c=64 v=127
13824 Off ch=1 n=a3 v=0
13824 On ch=1 n=g#4 v=25
14336 Off ch=1 n=c#5 v=0
14336 Off ch=1 n=d#5 v=0
14336 Off ch=1 n=c#6 v=0
14336 On ch=1 n=c#5 v=24
14336 On ch=1 n=d#5 v=24
14336 On ch=1 n=c#6 v=45
14336 Off ch=1 n=g#4 v=0
14336 On ch=1 n=f#4 v=25
14848 Par ch=1 c=64 v=127
14848 Par ch=1 c=64 v=0
14848 Par ch=1 c=64 v=0
14848 Par ch=1 c=67 v=0
14848 Par ch=1 c=64 v=0
14848 Par ch=1 c=64 v=0
14848 Par ch=1 c=67 v=0
14848 Off ch=1 n=c#5 v=0
14848 Off ch=1 n=d#5 v=0
14848 Off ch=1 n=c#6 v=0
14848 Off ch=1 n=f#4 v=0
14848 On ch=1 n=c#5 v=21
14848 On ch=1 n=f5 v=21
14848 On ch=1 n=c#6 v=42
14848 On ch=1 n=f4 v=21
14994 Par ch=1 c=64 v=0
15256 Par ch=1 c=64 v=127
15360 Off ch=1 n=f4 v=0
15360 On ch=1 n=g#3 v=22
15872 Off ch=1 n=g#3 v=0
15872 On ch=1 n=c#3 v=22
16384 Off ch=1 n=c#3 v=0
16384 On ch=1 n=g#3 v=22
16394 Par ch=1 c=64 v=0
16598 Par ch=1 c=64 v=127
16896 Off ch=1 n=g#3 v=0
16896 On ch=1 n=c#4 v=28
17408 Off ch=1 n=c#4 v=0
17408 On ch=1 n=f4 v=33
17910 Par ch=1 c=64 v=0
17920 Off ch=1 n=c#5 v=0
17920 Off ch=1 n=f4 v=0
17920 On ch=1 n=a#4 v=36
18231 Par ch=1 c=64 v=127
18432 Off ch=1 n=a#4 v=0
18432 On ch=1 n=g4 v=33
18944 Off ch=1 n=g4 v=0
18944 On ch=1 n=g#4 v=30
19456 Par ch=1 c=64 v=127
19456 Par ch=1 c=64 v=0
19456 Par ch=1 c=67 v=0
19456 Par ch=1 c=64 v=0
19456 Par ch=1 c=64 v=0
19456 Par ch=1 c=67 v=0
19456 Off ch=1 n=f5 v=0
19456 Off ch=1 n=c#6 v=0
19456 Off ch=1 n=g#4 v=0
19456 On ch=1 n=e5 v=28
19456 On ch=1 n=g#5 v=28
19456 On ch=1 n=e6 v=46
19456 On ch=1 n=b4 v=17
19602 Par ch=1 c=64 v=0
19864 Par ch=1 c=64 v=127
19968 On ch=1 n=c#4 v=20
20480 Off ch=1 n=e5 v=0
20480 Off ch=1 n=g#5 v=0
20480 Off ch=1 n=e6 v=0
20480 On ch=1 n=b4 v=17
20480 On ch=1 n=d#5 v=17
20480 On ch=1 n=g#5 v=42
20480 Off ch=1 n=c#4 v=0
20480 Off ch=1 n=b4 v=0
20480 On ch=1 n=d#4 v=20
20992 Off ch=1 n=b4 v=0
20992 Off ch=1 n=d#5 v=0
20992 Off ch=1 n=g#5 v=0
20992 On ch=1 n=b4 v=14
20992 On ch=1 n=c#5 v=14
20992 On ch=1 n=b5 v=39
20992 Off ch=1 n=d#4 v=0
20992 On ch=1 n=e4 v=20
21002 Par ch=1 c=64 v=0
21206 Par ch=1 c=64 v=127
21504 Off ch=1 n=e4 v=0
21504 On ch=1 n=g#3 v=15
22016 Off ch=1 n=g#3 v=0
22016 On ch=1 n=c#3 v=13
22518 Par ch=1 c=64 v=0
22528 Off ch=1 n=c#3 v=0
22528 On ch=1 n=g3 v=21
22839 Par ch=1 c=64 v=127
23040 On ch=1 n=f#4 v=16
23552 Off ch=1 n=b4 v=0
23552 Off ch=1 n=c#5 v=0
23552 Off ch=1 n=b5 v=0
23552 On ch=1 n=b4 v=15
23552 On ch=1 n=c#5 v=15
23552 On ch=1 n=b5 v=36
23552 Off ch=1 n=g3 v=0
23552 Off ch=1 n=f#4 v=0
23552 On ch=1 n=e4 v=16
24064 Par ch=1 c=64 v=127
24064 Par ch=1 c=64 v=0
24064 Par ch=1 c=64 v=0
24064 Par ch=1 c=67 v=0
24064 Par ch=1 c=64 v=0
24064 Par ch=1 c=64 v=0
24064 Par ch=1 c=67 v=0
24064 Off ch=1 n=b4 v=0
24064 Off ch=1 n=c#5 v=0
24064 Off ch=1 n=b5 v=0
24064 Off ch=1 n=e4 v=0
24064 On ch=1 n=b4 v=12
24064 On ch=1 n=d#5 v=12
24064 On ch=1 n=b5 v=33
24064 On ch=1 n=d#4 v=12
24210 Par ch=1 c=64 v=0
24472 Par ch=1 c=64 v=127
24576 On ch=1 n=f#3 v=13
25088 Off ch=1 n=f#3 v=0
25088 Off ch=1 n=d#4 v=0
25088 On ch=1 n=b2 v=13
25600 On ch=1 n=f#3 v=13
25610 Par ch=1 c=64 v=0
25814 Par ch=1 c=64 v=127
26112 Off ch=1 n=b2 v=0
26112 Off ch=1 n=f#3 v=0
26112 On ch=1 n=b3 v=19
26624 Off ch=1 n=b4 v=0
26624 Off ch=1 n=d#5 v=0
26624 Off ch=1 n=b5 v=0
26624 On ch=1 n=f#5 v=34
26624 Off ch=1 n=b3 v=0
26624 On ch=1 n=d#4 v=24
27126 Par ch=1 c=64 v=0
27136 Off ch=1 n=f#5 v=0
27136 On ch=1 n=b4 v=26
27136 On ch=1 n=d#5 v=26
27136 On ch=1 n=b5 v=43
27136 Off ch=1 n=d#4 v=0
27136 On ch=1 n=g#4 v=27
27447 Par ch=1 c=64 v=127
27648 Off ch=1 n=g#4 v=0
27648 On ch=1 n=f4 v=24
28160 Off ch=1 n=b5 v=0
28160 On ch=1 n=a#5 v=34
28160 Off ch=1 n=f4 v=0
28160 On ch=1 n=f#4 v=21
28672 Par ch=1 c=64 v=127
28672 Par ch=1 c=64 v=0
28672 Par ch=1 c=64 v=0
28672 Par ch=1 c=64 v=0
28672 Par ch=1 c=67 v=0
28672 Par ch=1 c=64 v=0
28672 Par ch=1 c=67 v=0
28672 Off ch=1 n=b4 v=0
28672 Off ch=1 n=d#5 v=0
28672 Off ch=1 n=a#5 v=0
28672 Off ch=1 n=f#4 v=0
28672 On ch=1 n=a#5 v=44
28672 On ch=1 n=b4 v=22
28672 On ch=1 n=d#5 v=22
28672 On ch=1 n=f#4 v=22
28818 Par ch=1 c=64 v=0
28979 Off ch=1 n=a#5 v=0
28979 On ch=1 n=b5 v=40
29080 Par ch=1 c=64 v=127
29184 On ch=1 n=b3 v=22
29286 Off ch=1 n=b5 v=0
29286 On ch=1 n=a#5 v=42
29594 Off ch=1 n=a#5 v=0
29594 On ch=1 n=a5 v=44
29696 Off ch=1 n=b3 v=0
29696 Off ch=1 n=f#4 v=0
29696 On ch=1 n=d#3 v=22
29901 Off ch=1 n=a5 v=0
29901 On ch=1 n=a#5 v=46
30208 Off ch=1 n=b4 v=0
30208 Off ch=1 n=d#5 v=0
30208 Off ch=1 n=a#5 v=0
30208 On ch=1 n=f#5 v=31
30208 On ch=1 n=a#5 v=31
30208 On ch=1 n=d#6 v=48
30208 On ch=1 n=b3 v=22
30218 Par ch=1 c=64 v=0
30422 Par ch=1 c=64 v=127
30720 Off ch=1 n=b3 v=0
30720 On ch=1 n=f#4 v=22
31232 Off ch=1 n=f#4 v=0
31232 On ch=1 n=b3 v=22
31734 Par ch=1 c=64 v=0
31744 Off ch=1 n=f#5 v=0
31744 Off ch=1 n=a#5 v=0
31744 Off ch=1 n=d#6 v=0
31744 On ch=1 n=d#5 v=27
31744 On ch=1 n=f#5 v=27
31744 On ch=1 n=a#5 v=43
31744 Off ch=1 n=b3 v=0
31744 On ch=1 n=b4 v=22
32055 Par ch=1 c=64 v=127
32256 Off ch=1 n=d#3 v=0
32256 Off ch=1 n=b4 v=0
32256 On ch=1 n=f#4 v=22
32768 Off ch=1 n=f#4 v=0
32768 On ch=1 n=b3 v=22
33280 Par ch=1 c=64 v=127
33280 Par ch=1 c=64 v=0
33280 Par ch=1 c=64 v=0
33280 Par ch=1 c=64 v=0
33280 Par ch=1 c=64 v=0
33280 Par ch=1 c=67 v=0
33280 Par ch=1 c=64 v=0
33280 Par ch=1 c=67 v=0
33280 Off ch=1 n=d#5 v=0
33280 Off ch=1 n=f#5 v=0
33280 Off ch=1 n=a#5 v=0
33280 Off ch=1 n=b3 v=0
33280 On ch=1 n=c5 v=22
33280 On ch=1 n=f5 v=22
33280 On ch=1 n=a5 v=39
33280 On ch=1 n=f4 v=22
33426 Par ch=1 c=64 v=0
33688 Par ch=1 c=64 v=127
33792 On ch=1 n=c4 v=22
34304 Off ch=1 n=c4 v=0
34304 Off ch=1 n=f4 v=0
34304 On ch=1 n=f3 v=23
34816 On ch=1 n=c4 v=23
34826 Par ch=1 c=64 v=0
35030 Par ch=1 c=64 v=127
35328 Off ch=1 n=c4 v=0
35328 On ch=1 n=f4 v=23
35840 Off ch=1 n=c5 v=0
35840 Off ch=1 n=f5 v=0
35840 Off ch=1 n=a5 v=0
35840 On ch=1 n=b4 v=27
35840 On ch=1 n=f#5 v=27
35840 On ch=1 n=a#5 v=44
35840 Off ch=1 n=f4 v=0
35840 On ch=1 n=d#4 v=24
36342 Par ch=1 c=64 v=0
36352 Off ch=1 n=b4 v=0
36352 Off ch=1 n=f#5 v=0
36352 Off ch=1 n=a#5 v=0
36352 On ch=1 n=f#5 v=30
36352 On ch=1 n=a#5 v=30
36352 On ch=1 n=d#6 v=47
36352 Off ch=1 n=d#4 v=0
36352 On ch=1 n=b4 v=24
36663 Par ch=1 c=64 v=127
36864 Off ch=1 n=f3 v=0
36864 Off ch=1 n=b4 v=0
36864 On ch=1 n=f#4 v=24
37376 Off ch=1 n=f#5 v=0
37376 Off ch=1 n=a#5 v=0
37376 Off ch=1 n=d#6 v=0
37376 On ch=1 n=b4 v=25
37376 On ch=1 n=f#5 v=25
37376 On ch=1 n=a#5 v=42
37376 Off ch=1 n=f#4 v=0
37376 On ch=1 n=d#4 v=25
37888 Par ch=1 c=64 v=127
37888 Par ch=1 c=64 v=0
37888 Par ch=1 c=64 v=0
37888 Par ch=1 c=64 v=0
37888 Par ch=1 c=64 v=0
37888 Par ch=1 c=67 v=0
37888 Par ch=1 c=64 v=0
37888 Par ch=1 c=67 v=0
37888 Off ch=1 n=b4 v=0
37888 Off ch=1 n=f#5 v=0
37888 Off ch=1 n=a#5 v=0
37888 Off ch=1 n=d#4 v=0
37888 On ch=1 n=c5 v=30
37888 On ch=1 n=f5 v=30
37888 On ch=1 n=a5 v=47
37888 On ch=1 n=f4 v=25
38034 Par ch=1 c=64 v=0
38296 Par ch=1 c=64 v=127
38400 On ch=1 n=c4 v=26
38912 Off ch=1 n=c4 v=0
38912 Off ch=1 n=f4 v=0
38912 On ch=1 n=f3 v=26
39424 On ch=1 n=c4 v=26
39434 Par ch=1 c=64 v=0
39638 Par ch=1 c=64 v=127
39936 Off ch=1 n=c4 v=0
39936 On ch=1 n=f4 v=27
40448 Off ch=1 n=c5 v=0
40448 Off ch=1 n=f5 v=0
40448 Off ch=1 n=a5 v=0
40448 On ch=1 n=b4 v=28
40448 On ch=1 n=f#5 v=28
40448 On ch=1 n=a#5 v=45
40448 Off ch=1 n=f4 v=0
40448 On ch=1 n=d#4 v=27
40950 Par ch=1 c=64 v=0
40960 Off ch=1 n=b4 v=0
40960 Off ch=1 n=f#5 v=0
40960 Off ch=1 n=a#5 v=0
40960 On ch=1 n=a#5 v=22
40960 On ch=1 n=d#6 v=22
40960 On ch=1 n=f#6 v=49
40960 Off ch=1 n=d#4 v=0
40960 On ch=1 n=b4 v=18
41271 Par ch=1 c=64 v=127
41472 Off ch=1 n=a#5 v=0
41472 Off ch=1 n=d#6 v=0
41472 Off ch=1 n=f#6 v=0
41472 On ch=1 n=f#5 v=21
41472 On ch=1 n=a#5 v=21
41472 On ch=1 n=d#6 v=40
41472 Off ch=1 n=f3 v=0
41472 Off ch=1 n=b4 v=0
41472 On ch=1 n=f#4 v=19
41984 Off ch=1 n=f#4 v=0
41984 On ch=1 n=d#4 v=19
42240 Off ch=1 n=f#5 v=0
42240 Off ch=1 n=a#5 v=0
42240 Off ch=1 n=d#6 v=0
42240 On ch=1 n=b4 v=19
42240 On ch=1 n=f#5 v=19
42240 On ch=1 n=a#5 v=36
42496 Par ch=1 c=64 v=127
42496 Par ch=1 c=64 v=0
42496 Par ch=1 c=64 v=0
42496 Par ch=1 c=64 v=0
42496 Par ch=1 c=64 v=0
42496 Par ch=1 c=67 v=0
42496 Par ch=1 c=64 v=0
42496 Par ch=1 c=67 v=0
42496 Off ch=1 n=b4 v=0
42496 Off ch=1 n=f#5 v=0
42496 Off ch=1 n=a#5 v=0
42496 Off ch=1 n=d#4 v=0
42496 On ch=1 n=c5 v=14
42496 On ch=1 n=f5 v=14
42496 On ch=1 n=a5 v=31
42496 On ch=1 n=f4 v=20
42642 Par ch=1 c=64 v=0
42904 Par ch=1 c=64 v=127
43008 Off ch=1 n=f4 v=0
43008 On ch=1 n=c4 v=22
43520 Off ch=1 n=c4 v=0
43520 On ch=1 n=f3 v=25
44032 Off ch=1 n=c5 v=0
44032 Off ch=1 n=f5 v=0
44032 Off ch=1 n=a5 v=0
44032 On ch=1 n=c4 v=28
44042 Par ch=1 c=64 v=0
44246 Par ch=1 c=64 v=127
44544 Off ch=1 n=c4 v=0
44544 On ch=1 n=a4 v=31
45056 Off ch=1 n=a4 v=0
45056 On ch=1 n=c5 v=33
45558 Par ch=1 c=64 v=0
45568 Off ch=1 n=c5 v=0
45568 On ch=1 n=g5 v=38
45879 Par ch=1 c=64 v=127
46080 Off ch=1 n=f3 v=0
46080 Off ch=1 n=g5 v=0
46080 On ch=1 n=e5 v=36
46592 Off ch=1 n=e5 v=0
46592 On ch=1 n=f5 v=34
47104 Par ch=1 c=64 v=127
47104 Par ch=1 c=64 v=0
47104 Par ch=1 c=67 v=0
47104 Par ch=1 c=64 v=0
47104 Par ch=1 c=64 v=0
47104 Par ch=1 c=67 v=0
47104 Off ch=1 n=f5 v=0
47104 On ch=1 n=c#6 v=37
47104 On ch=1 n=f6 v=37
47104 On ch=1 n=c7 v=37
47104 On ch=1 n=g#5 v=26
47250 Par ch=1 c=64 v=0
47512 Par ch=1 c=64 v=127
47616 Off ch=1 n=g#5 v=0
47616 On ch=1 n=a#4 v=29
48128 Off ch=1 n=c#6 v=0
48128 Off ch=1 n=f6 v=0
48128 Off ch=1 n=c7 v=0
48128 On ch=1 n=g#5 v=26
48128 On ch=1 n=c6 v=26
48128 On ch=1 n=f6 v=51
48128 Off ch=1 n=a#4 v=0
48128 On ch=1 n=c5 v=29
48640 Off ch=1 n=g#5 v=0
48640 Off ch=1 n=c6 v=0
48640 Off ch=1 n=f6 v=0
48640 On ch=1 n=g#5 v=23
48640 On ch=1 n=a#5 v=23
48640 On ch=1 n=g#6 v=48
48640 Off ch=1 n=c5 v=0
48640 On ch=1 n=c#5 v=29
48650 Par ch=1 c=64 v=0
48854 Par ch=1 c=64 v=127
49152 Off ch=1 n=c#5 v=0
49152 On ch=1 n=f4 v=24
49664 Off ch=1 n=f4 v=0
49664 On ch=1 n=a#3 v=22
50166 Par ch=1 c=64 v=0
50176 Off ch=1 n=a#3 v=0
50176 On ch=1 n=e4 v=30
50487 Par ch=1 c=64 v=127
50688 Off ch=1 n=e4 v=0
50688 On ch=1 n=d#5 v=25
51200 Off ch=1 n=g#5 v=0
51200 Off ch=1 n=a#5 v=0
51200 Off ch=1 n=g#6 v=0
51200 On ch=1 n=g#5 v=24
51200 On ch=1 n=a#5 v=24
51200 On ch=1 n=g#6 v=45
51200 Off ch=1 n=d#5 v=0
51200 On ch=1 n=c#5 v=25
51712 Par ch=1 c=64 v=127
51712 Par ch=1 c=64 v=0
51712 Par ch=1 c=64 v=0
51712 Par ch=1 c=67 v=0
51712 Par ch=1 c=64 v=0
51712 Par ch=1 c=64 v=0
51712 Par ch=1 c=67 v=0
51712 Off ch=1 n=g#5 v=0
51712 Off ch=1 n=a#5 v=0
51712 Off ch=1 n=g#6 v=0
51712 Off ch=1 n=c#5 v=0
51712 On ch=1 n=g#5 v=21
51712 On ch=1 n=c6 v=21
51712 On ch=1 n=g#6 v=42
51712 On ch=1 n=c5 v=21
51858 Par ch=1 c=64 v=0
52120 Par ch=1 c=64 v=127
52224 Off ch=1 n=c5 v=0
52224 On ch=1 n=d#4 v=22
52736 Off ch=1 n=d#4 v=0
52736 On ch=1 n=g#3 v=22
53248 Off ch=1 n=g#3 v=0
53248 On ch=1 n=d#4 v=22
53258 Par ch=1 c=64 v=0
53462 Par ch=1 c=64 v=127
53760 Off ch=1 n=d#4 v=0
53760 On ch=1 n=g#4 v=28
54272 Off ch=1 n=g#4 v=0
54272 On ch=1 n=c5 v=33
54774 Par ch=1 c=64 v=0
54784 Off ch=1 n=g#5 v=0
54784 Off ch=1 n=c5 v=0
54784 On ch=1 n=f5 v=36
55095 Par ch=1 c=64 v=127
55296 Off ch=1 n=f5 v=0
55296 On ch=1 n=d5 v=33
55808 Off ch=1 n=d5 v=0
55808 On ch=1 n=d#5 v=30
56320 Par ch=1 c=64 v=127
56320 Par ch=1 c=64 v=0
56320 Par ch=1 c=64 v=0
56320 Par ch=1 c=67 v=0
56320 Par ch=1 c=64 v=0
56320 Par ch=1 c=64 v=0
56320 Par ch=1 c=64 v=0
56320 Par ch=1 c=67 v=0
56320 Off ch=1 n=c6 v=0
56320 Off ch=1 n=g#6 v=0
56320 Off ch=1 n=d#5 v=0
56320 On ch=1 n=b5 v=28
56320 On ch=1 n=d#6 v=28
56320 On ch=1 n=b6 v=44
56320 On ch=1 n=f#5 v=17
56466 Par ch=1 c=64 v=0
56728 Par ch=1 c=64 v=127
56832 Off ch=1 n=f#5 v=0
56832 On ch=1 n=g#4 v=20
57344 Off ch=1 n=b5 v=0
57344 Off ch=1 n=d#6 v=0
57344 Off ch=1 n=b6 v=0
57344 On ch=1 n=f#5 v=24
57344 On ch=1 n=a#5 v=24
57344 On ch=1 n=d#6 v=47
57344 Off ch=1 n=g#4 v=0
57344 On ch=1 n=a#4 v=20
57856 Off ch=1 n=f#5 v=0
57856 Off ch=1 n=a#5 v=0
57856 Off ch=1 n=d#6 v=0
57856 On ch=1 n=f#5 v=21
57856 On ch=1 n=g#5 v=21
57856 On ch=1 n=f#6 v=44
57856 Off ch=1 n=a#4 v=0
57856 On ch=1 n=b4 v=20
57866 Par ch=1 c=64 v=0
58070 Par ch=1 c=64 v=127
58368 Off ch=1 n=b4 v=0
58368 On ch=1 n=d#4 v=15
58880 Off ch=1 n=d#4 v=0
58880 On ch=1 n=g#3 v=13
59382 Par ch=1 c=64 v=0
59392 Off ch=1 n=g#3 v=0
59392 On ch=1 n=d4 v=21
59703 Par ch=1 c=64 v=127
59904 Off ch=1 n=d4 v=0
59904 On ch=1 n=c#5 v=16
60416 Off ch=1 n=f#5 v=0
60416 Off ch=1 n=g#5 v=0
60416 Off ch=1 n=f#6 v=0
60416 On ch=1 n=f#5 v=22
60416 On ch=1 n=g#5 v=22
60416 On ch=1 n=f#6 v=41
60416 Off ch=1 n=c#5 v=0
60416 On ch=1 n=b4 v=16
60928 Par ch=1 c=64 v=127
60928 Par ch=1 c=64 v=0
60928 Par ch=1 c=64 v=0
60928 Par ch=1 c=64 v=0
60928 Par ch=1 c=67 v=0
60928 Par ch=1 c=64 v=0
60928 Par ch=1 c=64 v=0
60928 Par ch=1 c=64 v=0
60928 Par ch=1 c=67 v=0
60928 Off ch=1 n=f#5 v=0
60928 Off ch=1 n=g#5 v=0
60928 Off ch=1 n=f#6 v=0
60928 Off ch=1 n=b4 v=0
60928 On ch=1 n=f#5 v=18
60928 On ch=1 n=a#5 v=18
60928 On ch=1 n=f#6 v=37
60928 On ch=1 n=a#4 v=12
61074 Par ch=1 c=64 v=0
61336 Par ch=1 c=64 v=127
61440 On ch=1 n=d#4 v=16
61952 Off ch=1 n=d#4 v=0
61952 Off ch=1 n=a#4 v=0
61952 On ch=1 n=d#3 v=20
62464 On ch=1 n=a#3 v=24
62474 Par ch=1 c=64 v=0
62678 Par ch=1 c=64 v=127
62976 Off ch=1 n=a#3 v=0
62976 On ch=1 n=f#4 v=28
63488 On ch=1 n=a#4 v=32
63990 Par ch=1 c=64 v=0
64000 On ch=1 n=f5 v=32
64311 Par ch=1 c=64 v=127
64512 Off ch=1 n=d#3 v=0
64512 Off ch=1 n=f#4 v=0
64512 Off ch=1 n=a#4 v=0
64512 Off ch=1 n=f5 v=0
64512 On ch=1 n=d#5 v=29
65024 Off ch=1 n=d#5 v=0
65024 On ch=1 n=a#4 v=26
65536 Par ch=1 c=64 v=127
65536 Par ch=1 c=64 v=0
65536 Par ch=1 c=67 v=0
65536 Par ch=1 c=64 v=0
65536 Par ch=1 c=64 v=0
65536 Par ch=1 c=67 v=0
65536 Off ch=1 n=f#5 v=0
65536 Off ch=1 n=a#5 v=0
65536 Off ch=1 n=f#6 v=0
65536 Off ch=1 n=a#4 v=0
65536 On ch=1 n=f#5 v=32
65536 On ch=1 n=a#5 v=32
65536 On ch=1 n=f6 v=48
65536 On ch=1 n=c#5 v=26
65682 Par ch=1 c=64 v=0
65944 Par ch=1 c=64 v=127
66048 On ch=1 n=d#4 v=29
66560 Off ch=1 n=f#5 v=0
66560 Off ch=1 n=a#5 v=0
66560 Off ch=1 n=f6 v=0
66560 On ch=1 n=c#5 v=21
66560 On ch=1 n=f5 v=21
66560 On ch=1 n=a#5 v=46
66560 Off ch=1 n=d#4 v=0
66560 Off ch=1 n=c#5 v=0
66560 On ch=1 n=f4 v=29
67072 Off ch=1 n=c#5 v=0
67072 Off ch=1 n=f5 v=0
67072 Off ch=1 n=a#5 v=0
67072 On ch=1 n=c#5 v=18
67072 On ch=1 n=d#5 v=18
67072 On ch=1 n=c#6 v=43
67072 Off ch=1 n=f4 v=0
67072 On ch=1 n=f#4 v=29
67082 Par ch=1 c=64 v=0
67286 Par ch=1 c=64 v=127
67584 On ch=1 n=a#3 v=24
67957 Par ch=1 c=64 v=127
68096 Off ch=1 n=a#3 v=0
68096 Off ch=1 n=f#4 v=0
68096 On ch=1 n=d#3 v=22
68608 Off ch=1 n=c#5 v=0
68608 Off ch=1 n=d#5 v=0
68608 On ch=1 n=c#5 v=29
68608 On ch=1 n=a#5 v=29
68608 On ch=1 n=a#3 v=30
69120 Off ch=1 n=a#3 v=0
69120 On ch=1 n=g#4 v=25
69632 Off ch=1 n=g#4 v=0
69632 On ch=1 n=f#4 v=25
70144 Par ch=1 c=64 v=127
70144 Par ch=1 c=67 v=0
70144 Par ch=1 c=64 v=0
70144 Par ch=1 c=64 v=0
70144 Par ch=1 c=67 v=0
70144 Off ch=1 n=c#5 v=0
70144 Off ch=1 n=a#5 v=0
70144 Off ch=1 n=c#6 v=0
70144 Off ch=1 n=f#4 v=0
70144 On ch=1 n=c#5 v=21
70144 On ch=1 n=a#5 v=21
70144 On ch=1 n=c#6 v=42
70144 On ch=1 n=a#4 v=29
70656 Off ch=1 n=a#4 v=0
70656 On ch=1 n=c#4 v=31
71168 Off ch=1 n=d#3 v=0
71168 Off ch=1 n=c#4 v=0
71168 On ch=1 n=e3 v=32
71237 Par ch=1 c=64 v=0
71650 Par ch=1 c=64 v=127
71680 On ch=1 n=c#4 v=34
72192 Off ch=1 n=c#4 v=0
72192 On ch=1 n=a#4 v=35
72625 Par ch=1 c=64 v=127
72704 Off ch=1 n=e3 v=0
72704 Off ch=1 n=a#4 v=0
72704 On ch=1 n=f#4 v=37
73216 Off ch=1 n=f#4 v=0
73216 On ch=1 n=f#5 v=40
73728 Off ch=1 n=f#5 v=0
73728 On ch=1 n=a#4 v=37
74240 Off ch=1 n=a#4 v=0
74240 On ch=1 n=f#4 v=34
74752 Par ch=1 c=64 v=127
74752 Par ch=1 c=64 v=0
74752 Par ch=1 c=64 v=0
74752 Par ch=1 c=64 v=0
74752 Par ch=1 c=64 v=0
74752 Par ch=1 c=64 v=0
74752 Par ch=1 c=67 v=0
74752 Off ch=1 n=c#5 v=0
74752 Off ch=1 n=a#5 v=0
74752 Off ch=1 n=c#6 v=0
74752 Off ch=1 n=f#4 v=0
74752 On ch=1 n=c#6 v=53
74752 On ch=1 n=f#5 v=31
74752 On ch=1 n=a#5 v=31
74752 On ch=1 n=a#4 v=31
74898 Par ch=1 c=64 v=0
75059 On ch=1 n=d#6 v=49
75160 Par ch=1 c=64 v=127
75264 Off ch=1 n=a#4 v=0
75264 On ch=1 n=c#4 v=32
75366 Off ch=1 n=c#6 v=0
75366 Off ch=1 n=d#6 v=0
75366 On ch=1 n=c#6 v=52
75674 Off ch=1 n=c#6 v=0
75674 On ch=1 n=c6 v=54
75776 Off ch=1 n=c#4 v=0
75776 On ch=1 n=f3 v=32
75981 Off ch=1 n=c6 v=0
75981 On ch=1 n=c#6 v=57
76288 Off ch=1 n=f#5 v=0
76288 Off ch=1 n=a#5 v=0
76288 Off ch=1 n=c#6 v=0
76288 On ch=1 n=a#5 v=41
76288 On ch=1 n=c#6 v=41
76288 On ch=1 n=f#6 v=59
76288 On ch=1 n=c#4 v=33
76298 Par ch=1 c=64 v=0
76502 Par ch=1 c=64 v=127
76800 Off ch=1 n=c#4 v=0
76800 On ch=1 n=a#4 v=33
77285 Par ch=1 c=64 v=127
77312 Off ch=1 n=a#4 v=0
77312 On ch=1 n=f#4 v=34
77824 Off ch=1 n=a#5 v=0
77824 Off ch=1 n=c#6 v=0
77824 Off ch=1 n=f#6 v=0
77824 On ch=1 n=f#5 v=39
77824 On ch=1 n=a#5 v=39
77824 On ch=1 n=c#6 v=56
77824 Off ch=1 n=f#4 v=0
77824 On ch=1 n=f#5 v=34
78336 Off ch=1 n=f3 v=0
78336 Off ch=1 n=f#5 v=0
78336 On ch=1 n=a#4 v=35
78848 Off ch=1 n=a#4 v=0
78848 On ch=1 n=f3 v=36
79360 Par ch=1 c=64 v=127
79360 Par ch=1 c=64 v=0
79360 Par ch=1 c=64 v=0
79360 Par ch=1 c=64 v=0
79360 Par ch=1 c=64 v=0
79360 Par ch=1 c=64 v=0
79360 Par ch=1 c=64 v=0
79360 Par ch=1 c=67 v=0
79360 Off ch=1 n=f#5 v=0
79360 Off ch=1 n=a#5 v=0
79360 Off ch=1 n=c#6 v=0
79360 On ch=1 n=d#5 v=34
79360 On ch=1 n=f#5 v=34
79360 On ch=1 n=b5 v=53
79360 On ch=1 n=d#4 v=36
79506 Par ch=1 c=64 v=0
79768 Par ch=1 c=64 v=127
79872 Off ch=1 n=f3 v=0
79872 Off ch=1 n=d#4 v=0
79872 On ch=1 n=b4 v=37
80384 Off ch=1 n=b4 v=0
80384 On ch=1 n=f#4 v=38
80567 Par ch=1 c=64 v=127
80896 Off ch=1 n=f#4 v=0
80896 On ch=1 n=f#5 v=39
81408 Off ch=1 n=f#5 v=0
81408 On ch=1 n=b4 v=40
81920 Off ch=1 n=d#5 v=0
81920 Off ch=1 n=f#5 v=0
81920 Off ch=1 n=b5 v=0
81920 On ch=1 n=f#5 v=42
81920 On ch=1 n=a#5 v=42
81920 On ch=1 n=c#6 v=61
81920 Off ch=1 n=b4 v=0
81920 On ch=1 n=f3 v=42
82422 Par ch=1 c=64 v=0
82432 Off ch=1 n=f#5 v=0
82432 Off ch=1 n=a#5 v=0
82432 Off ch=1 n=c#6 v=0
82432 On ch=1 n=a#5 v=46
82432 On ch=1 n=c#6 v=46
82432 On ch=1 n=f#6 v=66
82432 On ch=1 n=c#4 v=42
82743 Par ch=1 c=64 v=127
82944 Off ch=1 n=f3 v=0
82944 Off ch=1 n=c#4 v=0
82944 On ch=1 n=a#4 v=43
83456 Off ch=1 n=a#5 v=0
83456 Off ch=1 n=c#6 v=0
83456 Off ch=1 n=f#6 v=0
83456 On ch=1 n=f#5 v=40
83456 On ch=1 n=a#5 v=40
83456 On ch=1 n=c#6 v=61
83456 Off ch=1 n=a#4 v=0
83456 On ch=1 n=f3 v=45
83968 Par ch=1 c=64 v=127
83968 Par ch=1 c=64 v=0
83968 Par ch=1 c=64 v=0
83968 Par ch=1 c=64 v=0
83968 Par ch=1 c=64 v=0
83968 Par ch=1 c=64 v=0
83968 Par ch=1 c=64 v=0
83968 Par ch=1 c=67 v=0
83968 Off ch=1 n=f#5 v=0
83968 Off ch=1 n=a#5 v=0
83968 Off ch=1 n=c#6 v=0
83968 On ch=1 n=d#5 v=47
83968 On ch=1 n=f#5 v=47
83968 On ch=1 n=b5 v=67
83968 On ch=1 n=d#4 v=45
84114 Par ch=1 c=64 v=0
84376 Par ch=1 c=64 v=127
84480 Off ch=1 n=f3 v=0
84480 Off ch=1 n=d#4 v=0
84480 On ch=1 n=b4 v=47
84992 Off ch=1 n=b4 v=0
84992 On ch=1 n=f#4 v=48
85339 Par ch=1 c=64 v=127
85504 Off ch=1 n=f#4 v=0
85504 On ch=1 n=f#5 v=49
86016 Off ch=1 n=f#5 v=0
86016 On ch=1 n=b4 v=51
86528 Off ch=1 n=d#5 v=0
86528 Off ch=1 n=f#5 v=0
86528 Off ch=1 n=b5 v=0
86528 On ch=1 n=f#5 v=47
86528 On ch=1 n=a#5 v=47
86528 On ch=1 n=c#6 v=68
86528 Off ch=1 n=b4 v=0
86528 On ch=1 n=f3 v=51
86574 Par ch=1 c=64 v=0
86766 Par ch=1 c=64 v=127
86860 On ch=1 n=f#5 v=51
87040 Off ch=1 n=f#5 v=0
87040 Off ch=1 n=a#5 v=0
87040 Off ch=1 n=c#6 v=0
87040 On ch=1 n=c#6 v=51
87040 On ch=1 n=a#6 v=74
87040 On ch=1 n=c#4 v=39
87351 Par ch=1 c=64 v=127
87552 Off ch=1 n=c#6 v=0
87552 On ch=1 n=a#5 v=42
87552 On ch=1 n=c#6 v=42
87552 On ch=1 n=f#6 v=67
87552 Off ch=1 n=f3 v=0
87552 Off ch=1 n=c#4 v=0
87552 On ch=1 n=a#4 v=41
88064 Off ch=1 n=f#5 v=0
88064 Off ch=1 n=a#5 v=0
88064 Off ch=1 n=c#6 v=0
88064 Off ch=1 n=f#6 v=0
88064 Off ch=1 n=a#6 v=0
88064 On ch=1 n=f#5 v=40
88064 On ch=1 n=a#5 v=40
88064 On ch=1 n=c#6 v=61
88064 Off ch=1 n=a#4 v=0
88064 On ch=1 n=f3 v=53
88576 Par ch=1 c=64 v=127
88576 Off ch=1 n=f#5 v=0
88576 Off ch=1 n=a#5 v=0
88576 Off ch=1 n=c#6 v=0
88576 On ch=1 n=d#5 v=49
88576 On ch=1 n=f#5 v=49
88576 On ch=1 n=b5 v=64
88576 On ch=1 n=d#4 v=50
88836 Par ch=1 c=64 v=0
89088 On ch=1 n=b4 v=53
89160 Par ch=1 c=64 v=127
89600 Off ch=1 n=f3 v=0
89600 Off ch=1 n=d#4 v=0
89600 Off ch=1 n=b4 v=0
89600 On ch=1 n=f#4 v=51
90112 Off ch=1 n=f#4 v=0
90112 On ch=1 n=f#5 v=49
90624 Off ch=1 n=f#5 v=0
90624 On ch=1 n=b4 v=46
91136 Off ch=1 n=b4 v=0
91136 On ch=1 n=d#5 v=44
91648 Off ch=1 n=d#5 v=0
91648 Off ch=1 n=f#5 v=0
91648 Off ch=1 n=b5 v=0
91648 Off ch=1 n=d#5 v=0
91648 On ch=1 n=b5 v=54
93184 Par ch=1 c=64 v=127
94287 Par ch=1 c=64 v=0
96256 On ch=1 n=f#6 v=45
96256 Off ch=1 n=b5 v=0
96569 Par ch=1 c=64 v=127
96768 On ch=1 n=d#6 v=44
96808 Off ch=1 n=f#6 v=0
97280 On ch=1 n=a#5 v=43
97320 Off ch=1 n=d#6 v=0
97792 Par ch=1 c=64 v=127
97792 On ch=1 n=a5 v=46
97792 On ch=1 n=f4 v=16
97792 On ch=1 n=d#5 v=30
97832 Off ch=1 n=a#5 v=0
97983 Par ch=1 c=64 v=0
98304 On ch=1 n=g#5 v=42
98344 Off ch=1 n=a5 v=0
98816 On ch=1 n=a5 v=41
98820 Par ch=1 c=64 v=0
98856 Off ch=1 n=g#5 v=0
99217 Par ch=1 c=64 v=127
99328 On ch=1 n=f#6 v=46
99840 Off ch=1 n=f#6 v=0
99840 On ch=1 n=c#6 v=39
100179 Par ch=1 c=64 v=0
100544 Par ch=1 c=64 v=127
101860 Par ch=1 c=64 v=0
101888 Off ch=1 n=c#6 v=0
101888 On ch=1 n=c6 v=37
102146 Par ch=1 c=64 v=127
102400 Off ch=1 n=a5 v=0
102400 Off ch=1 n=c6 v=0
102400 Off ch=1 n=f4 v=0
102400 Off ch=1 n=d#5 v=0
102400 On ch=1 n=c6 v=47
102400 On ch=1 n=f#4 v=16
102400 On ch=1 n=c#5 v=16
102400 On ch=1 n=f#5 v=30
102432 Par ch=1 c=64 v=127
102622 Par ch=1 c=64 v=0
102813 Par ch=1 c=64 v=127
103168 On ch=1 n=a#5 v=42
103218 Off ch=1 n=c6 v=0
103226 Par ch=1 c=64 v=0
103512 Par ch=1 c=64 v=127
103936 On ch=1 n=a5 v=44
103957 Par ch=1 c=64 v=0
103986 Off ch=1 n=a#5 v=0
104211 Par ch=1 c=64 v=127
104704 On ch=1 n=a#5 v=43
104754 Off ch=1 n=a5 v=0
104847 Par ch=1 c=64 v=0
105069 Par ch=1 c=64 v=127
105472 On ch=1 n=g#5 v=36
105472 Off ch=1 n=f#4 v=0
105472 Off ch=1 n=c#5 v=0
105472 Off ch=1 n=f#5 v=0
105472 On ch=1 n=c4 v=10
105472 On ch=1 n=a#4 v=10
105472 On ch=1 n=e5 v=19
105483 Par ch=1 c=64 v=0
105522 Off ch=1 n=a#5 v=0
105705 Par ch=1 c=64 v=127
106055 Par ch=1 c=64 v=0
106240 On ch=1 n=f#5 v=28
106290 Off ch=1 n=g#5 v=0
106309 Par ch=1 c=64 v=127
106500 Par ch=1 c=64 v=0
106690 Par ch=1 c=64 v=127
107008 Off ch=1 n=c4 v=0
107008 Off ch=1 n=a#4 v=0
107008 Off ch=1 n=e5 v=0
107008 On ch=1 n=c#4 v=12
107008 On ch=1 n=a#4 v=12
107008 On ch=1 n=f5 v=32
107044 Par ch=1 c=64 v=127
107058 Off ch=1 n=f#5 v=0
107205 Par ch=1 c=64 v=0
107407 Par ch=1 c=64 v=0
107520 On ch=1 n=a5 v=44
107843 Par ch=1 c=64 v=127
108032 On ch=1 n=a#5 v=47
108072 Off ch=1 n=a5 v=0
108242 Par ch=1 c=64 v=0
108387 Par ch=1 c=64 v=127
108544 On ch=1 n=f6 v=50
108584 Off ch=1 n=a#5 v=0
111104 Off ch=1 n=f6 v=0
111104 On ch=1 n=f6 v=55
111616 Par ch=1 c=64 v=127
111616 Off ch=1 n=f6 v=0
111616 Off ch=1 n=c#4 v=0
111616 Off ch=1 n=a#4 v=0
111616 Off ch=1 n=f5 v=0
111616 On ch=1 n=f6 v=55
111616 On ch=1 n=d#4 v=12
111616 On ch=1 n=b4 v=12
111616 On ch=1 n=f#5 v=24
111974 Par ch=1 c=64 v=0
112230 Par ch=1 c=64 v=127
114688 Par ch=1 c=64 v=0
114688 On ch=1 n=d#6 v=33
114728 Off ch=1 n=f6 v=0
115712 Off ch=1 n=d#4 v=0
115712 Off ch=1 n=b4 v=0
115712 Off ch=1 n=f#5 v=0
116224 Off ch=1 n=d#6 v=0
119296 On ch=1 n=f6 v=48
119296 On ch=1 n=c#4 v=1
119296 On ch=1 n=a#4 v=1
119296 On ch=1 n=f5 v=11
119808 Par ch=1 c=64 v=127
120832 Par ch=1 c=64 v=127
120832 Off ch=1 n=f6 v=0
120832 Off ch=1 n=c#4 v=0
120832 Off ch=1 n=a#4 v=0
120832 Off ch=1 n=f5 v=0
120832 On ch=1 n=f6 v=48
120832 On ch=1 n=d#4 v=5
120832 On ch=1 n=b4 v=5
120832 On ch=1 n=f#5 v=17
121024 Par ch=1 c=64 v=0
121370 Par ch=1 c=64 v=127
123392 Off ch=1 n=f6 v=0
123392 On ch=1 n=d#6 v=39
123904 Off ch=1 n=d#6 v=0
123904 On ch=1 n=c#6 v=39
123904 Off ch=1 n=d#4 v=0
123904 Off ch=1 n=b4 v=0
123904 Off ch=1 n=f#5 v=0
123904 On ch=1 n=f4 v=5
123904 On ch=1 n=d#5 v=5
123904 On ch=1 n=a5 v=17
123942 Par ch=1 c=64 v=0
124211 Par ch=1 c=64 v=127
124928 Off ch=1 n=c#6 v=0
124928 On ch=1 n=c6 v=33
125440 Off ch=1 n=c6 v=0
125440 Off ch=1 n=f4 v=0
125440 Off ch=1 n=d#5 v=0
125440 Off ch=1 n=a5 v=0
125440 On ch=1 n=a#5 v=40
125440 On ch=1 n=a#3 v=8
125440 On ch=1 n=d#4 v=8
125440 On ch=1 n=c#5 v=8
125440 On ch=1 n=f#5 v=22
125474 Par ch=1 c=64 v=127
125643 Par ch=1 c=64 v=0
125745 Par ch=1 c=64 v=127
125747 On ch=1 n=c6 v=36
126054 Off ch=1 n=a#5 v=0
126054 Off ch=1 n=c6 v=0
126054 On ch=1 n=a#5 v=38
126362 Off ch=1 n=a#5 v=0
126362 On ch=1 n=a5 v=41
126669 Off ch=1 n=a5 v=0
126669 On ch=1 n=a#5 v=43
126976 Off ch=1 n=a#5 v=0
126976 On ch=1 n=f6 v=45
127032 Par ch=1 c=64 v=0
127405 Par ch=1 c=64 v=127
128512 Off ch=1 n=f6 v=0
128512 On ch=1 n=a#5 v=31
130048 Par ch=1 c=64 v=127
130048 Off ch=1 n=a#5 v=0
130048 Off ch=1 n=a#3 v=0
130048 Off ch=1 n=d#4 v=0
130048 Off ch=1 n=c#5 v=0
130048 Off ch=1 n=f#5 v=0
130048 On ch=1 n=a#5 v=23
130048 On ch=1 n=c#6 v=38
130048 On ch=1 n=a#3 v=8
130048 On ch=1 n=d#4 v=8
130048 On ch=1 n=c#5 v=8
130048 On ch=1 n=f#5 v=22
134400 On ch=1 n=a#2 v=9
134400 On ch=1 n=f3 v=9
134656 Par ch=1 c=64 v=127
134656 Off ch=1 n=a#5 v=0
134656 Off ch=1 n=c#6 v=0
134656 Off ch=1 n=a#3 v=0
134656 Off ch=1 n=d#4 v=0
134656 Off ch=1 n=c#5 v=0
134656 Off ch=1 n=f#5 v=0
134656 On ch=1 n=c#5 v=18
134656 On ch=1 n=f5 v=18
134656 On ch=1 n=a#5 v=18
134656 On ch=1 n=c#6 v=33
134656 On ch=1 n=a#3 v=9
134656 On ch=1 n=f4 v=9
134656 On ch=1 n=a#4 v=18
134884 Par ch=1 c=64 v=0
135396 Par ch=1 c=64 v=127
143872 Off ch=1 n=c#5 v=0
143872 Off ch=1 n=f5 v=0
143872 Off ch=1 n=a#5 v=0
143872 Off ch=1 n=c#6 v=0
143872 Off ch=1 n=a#2 v=0
143872 Off ch=1 n=f3 v=0
143872 Off ch=1 n=a#3 v=0
143872 Off ch=1 n=f4 v=0
143872 Off ch=1 n=a#4 v=0
148485 Meta TrkEnd
TrkEnd
