MFile 1 2 1024
MTrk
0 TimeSig 1/4 24 8
0 KeySig -5 minor
0 Tempo 428571
1024 TimeSig 3/4 72 8
1024 Tempo 750000
2048 Tempo 600000
2389 Tempo 461538
3072 Tempo 545454
3413 Tempo 600000
3925 Tempo 461538
4096 Tempo 545454
4437 Tempo 428571
6144 Tempo 600000
7168 Tempo 500000
7509 Tempo 428571
7851 Tempo 500000
8533 Tempo 461538
10240 Tempo 500000
11264 Tempo 545454
11776 Tempo 600000
12800 Tempo 857142
13312 Tempo 545454
14336 Tempo 600000
14677 Tempo 461538
15701 Tempo 600000
16213 Tempo 461538
16725 Tempo 428571
18432 Tempo 600000
19456 Tempo 461538
19797 Tempo 428571
20139 Tempo 387096
20821 Tempo 333333
21504 Tempo 461538
22187 Tempo 387096
22869 Tempo 315789
23552 Tempo 387096
23893 Tempo 315789
28672 Tempo 387096
29355 Tempo 333333
30720 Tempo 375000
31744 Tempo 413793
32768 Tempo 500000
33109 Tempo 428571
34133 Tempo 600000
34645 Tempo 461538
35157 Tempo 428571
37888 Tempo 413793
38912 Tempo 500000
39253 Tempo 428571
40277 Tempo 600000
40789 Tempo 461538
41301 Tempo 428571
43008 Tempo 600000
44032 Tempo 750000
44373 Tempo 600000
45056 Tempo 500000
45397 Tempo 461538
46080 Tempo 545454
46421 Tempo 600000
46933 Tempo 461538
47445 Tempo 428571
50176 Tempo 461538
50688 Tempo 375000
51200 Tempo 387096
52224 Tempo 333333
53589 Tempo 428571
56320 Tempo 461538
56832 Tempo 375000
57344 Tempo 500000
58368 Tempo 600000
59733 Tempo 428571
61440 Tempo 387096
62805 Tempo 428571
64512 Tempo 333333
65877 Tempo 428571
67584 Tempo 600000
68608 Tempo 600000
69632 Tempo 1200000
71680 Tempo 270270
74755 Meta TrkEnd
TrkEnd
MTrk
0 Meta TrkName "Instrument  1"
0 PrCh ch=1 p=1
0 Par ch=1 c=64 v=0
0 Par ch=1 c=64 v=0
1024 Par ch=1 c=64 v=0
1024 Par ch=1 c=64 v=0
1024 On ch=1 n=d#5 v=41
1024 On ch=1 n=c5 v=40
1239 Par ch=1 c=64 v=127
1365 Off ch=1 n=d#5 v=0
1365 On ch=1 n=d5 v=36
1536 On ch=1 n=f#4 v=40
1565 Par ch=1 c=64 v=0
1707 On ch=1 n=a#5 v=51
1764 Par ch=1 c=64 v=127
2048 On ch=1 n=g#3 v=37
2389 Off ch=1 n=a#5 v=0
2389 On ch=1 n=f#5 v=51
2560 Off ch=1 n=g#3 v=0
2560 On ch=1 n=g#3 v=33
2731 Off ch=1 n=f#5 v=0
2731 On ch=1 n=f5 v=48
3072 Off ch=1 n=f5 v=0
3072 On ch=1 n=a#4 v=44
3072 Off ch=1 n=g#3 v=0
3072 On ch=1 n=g#2 v=30
3107 Par ch=1 c=64 v=0
3413 Off ch=1 n=d5 v=0
3413 Off ch=1 n=a#4 v=0
3413 On ch=1 n=d#5 v=48
3444 Par ch=1 c=64 v=127
3584 Off ch=1 n=g#2 v=0
3584 Off ch=1 n=f#4 v=0
3584 Off ch=1 n=c5 v=0
3925 On ch=1 n=a#5 v=44
4096 Par ch=1 c=64 v=127
4096 Par ch=1 c=64 v=0
4096 Off ch=1 n=a#5 v=0
4096 On ch=1 n=a5 v=44
4096 On ch=1 n=c5 v=36
4201 Par ch=1 c=64 v=0
4348 Par ch=1 c=64 v=127
4437 Off ch=1 n=d#5 v=0
4437 Off ch=1 n=a5 v=0
4437 On ch=1 n=c5 v=40
4608 On ch=1 n=f5 v=43
4608 Off ch=1 n=c5 v=0
4608 On ch=1 n=f#4 v=34
4779 Off ch=1 n=f5 v=0
4779 On ch=1 n=a5 v=46
4949 Off ch=1 n=a5 v=0
4949 On ch=1 n=a5 v=48
5120 Off ch=1 n=a5 v=0
5120 On ch=1 n=f6 v=51
5120 Off ch=1 n=f#4 v=0
5120 Off ch=1 n=c5 v=0
5120 On ch=1 n=g#3 v=31
5291 Off ch=1 n=f6 v=0
5291 On ch=1 n=a5 v=48
5461 Off ch=1 n=a5 v=0
5461 On ch=1 n=a5 v=46
5632 Off ch=1 n=a5 v=0
5632 On ch=1 n=f5 v=43
5632 Off ch=1 n=g#3 v=0
5632 On ch=1 n=g#3 v=29
5803 Off ch=1 n=f5 v=0
5803 On ch=1 n=c5 v=40
6144 Off ch=1 n=c5 v=0
6144 Off ch=1 n=g#3 v=0
6144 On ch=1 n=g#2 v=27
6263 Par ch=1 c=64 v=0
6656 Off ch=1 n=g#2 v=0
7168 Par ch=1 c=64 v=0
7168 Par ch=1 c=64 v=0
7168 Par ch=1 c=64 v=0
7168 On ch=1 n=a5 v=41
7168 On ch=1 n=e5 v=26
7168 On ch=1 n=c#5 v=22
7383 Par ch=1 c=64 v=127
7509 Off ch=1 n=a5 v=0
7509 On ch=1 n=g#5 v=46
7680 On ch=1 n=f#4 v=20
7709 Par ch=1 c=64 v=0
7851 Off ch=1 n=g#5 v=0
7851 On ch=1 n=e6 v=50
7908 Par ch=1 c=64 v=127
8192 Off ch=1 n=c#5 v=0
8192 On ch=1 n=c4 v=18
8533 Off ch=1 n=e6 v=0
8533 On ch=1 n=c6 v=41
8704 On ch=1 n=d3 v=16
8875 Off ch=1 n=c6 v=0
8875 On ch=1 n=b5 v=40
9216 Off ch=1 n=e5 v=0
9216 Off ch=1 n=b5 v=0
9216 On ch=1 n=e5 v=38
9216 Off ch=1 n=d3 v=0
9216 On ch=1 n=d2 v=14
9251 Par ch=1 c=64 v=0
9588 Par ch=1 c=64 v=127
9728 Off ch=1 n=d2 v=0
9728 Off ch=1 n=c4 v=0
9728 Off ch=1 n=f#4 v=0
10240 Par ch=1 c=64 v=127
10240 Par ch=1 c=64 v=0
10240 Par ch=1 c=64 v=0
10240 On ch=1 n=c5 v=23
10345 Par ch=1 c=64 v=0
10492 Par ch=1 c=64 v=127
10752 On ch=1 n=f#4 v=21
11264 Off ch=1 n=e5 v=0
11264 On ch=1 n=f5 v=34
11264 On ch=1 n=g#3 v=19
11776 On ch=1 n=a#5 v=45
11776 Off ch=1 n=g#3 v=0
11776 On ch=1 n=g#3 v=17
12288 Off ch=1 n=g#3 v=0
12288 On ch=1 n=g#2 v=15
12407 Par ch=1 c=64 v=0
12713 Par ch=1 c=64 v=127
12800 Off ch=1 n=a#5 v=0
12800 On ch=1 n=a5 v=26
12800 Off ch=1 n=g#2 v=0
12800 Off ch=1 n=f#4 v=0
12800 Off ch=1 n=c5 v=0
13137 Par ch=1 c=64 v=0
13312 Par ch=1 c=64 v=0
13312 Par ch=1 c=64 v=0
13312 Par ch=1 c=64 v=0
13312 Par ch=1 c=64 v=0
13312 Off ch=1 n=f5 v=0
13312 Off ch=1 n=a5 v=0
13312 On ch=1 n=g#5 v=34
13312 On ch=1 n=f5 v=33
13527 Par ch=1 c=64 v=127
13653 Off ch=1 n=g#5 v=0
13653 On ch=1 n=g5 v=38
13824 On ch=1 n=b4 v=30
13853 Par ch=1 c=64 v=0
13995 On ch=1 n=d#6 v=43
14052 Par ch=1 c=64 v=127
14336 Off ch=1 n=f5 v=0
14336 On ch=1 n=f4 v=29
14677 Off ch=1 n=d#6 v=0
14677 On ch=1 n=b5 v=48
14848 On ch=1 n=c#4 v=26
15019 Off ch=1 n=b5 v=0
15019 On ch=1 n=a#5 v=47
15360 Off ch=1 n=a#5 v=0
15360 On ch=1 n=d#5 v=45
15360 Off ch=1 n=c#4 v=0
15360 On ch=1 n=c#3 v=24
15395 Par ch=1 c=64 v=0
15701 Off ch=1 n=g5 v=0
15701 Off ch=1 n=d#5 v=0
15701 On ch=1 n=g#5 v=51
15732 Par ch=1 c=64 v=127
15872 Off ch=1 n=c#3 v=0
15872 Off ch=1 n=f4 v=0
15872 Off ch=1 n=b4 v=0
16213 On ch=1 n=d#6 v=48
16384 Par ch=1 c=64 v=127
16384 Par ch=1 c=64 v=0
16384 Par ch=1 c=64 v=0
16384 Par ch=1 c=64 v=0
16384 Off ch=1 n=d#6 v=0
16384 On ch=1 n=d6 v=51
16384 On ch=1 n=f5 v=36
16489 Par ch=1 c=64 v=0
16636 Par ch=1 c=64 v=127
16725 Off ch=1 n=g#5 v=0
16725 Off ch=1 n=d6 v=0
16725 On ch=1 n=f5 v=47
16896 On ch=1 n=a#5 v=50
16896 Off ch=1 n=f5 v=0
16896 On ch=1 n=b4 v=34
17067 Off ch=1 n=a#5 v=0
17067 On ch=1 n=d6 v=53
17237 Off ch=1 n=d6 v=0
17237 On ch=1 n=d6 v=55
17408 Off ch=1 n=d6 v=0
17408 On ch=1 n=a#6 v=58
17408 Off ch=1 n=b4 v=0
17408 Off ch=1 n=f5 v=0
17408 On ch=1 n=f4 v=31
17579 Off ch=1 n=a#6 v=0
17579 On ch=1 n=d6 v=55
17749 Off ch=1 n=d6 v=0
17749 On ch=1 n=d6 v=53
17920 Off ch=1 n=d6 v=0
17920 On ch=1 n=a#5 v=50
17920 Off ch=1 n=f4 v=0
17920 On ch=1 n=b3 v=29
18091 Off ch=1 n=a#5 v=0
18091 On ch=1 n=f5 v=47
18432 Off ch=1 n=f5 v=0
18432 Off ch=1 n=b3 v=0
18432 On ch=1 n=b2 v=27
18551 Par ch=1 c=64 v=0
18744 Par ch=1 c=64 v=127
18944 Off ch=1 n=b2 v=0
19212 Par ch=1 c=64 v=0
19456 Par ch=1 c=64 v=0
19456 Par ch=1 c=64 v=0
19456 On ch=1 n=c#6 v=40
19456 On ch=1 n=e5 v=22
19797 On ch=1 n=c6 v=43
19837 Off ch=1 n=c#6 v=0
19968 On ch=1 n=g#4 v=17
20139 On ch=1 n=g#6 v=47
20179 Off ch=1 n=c6 v=0
20480 On ch=1 n=a#3 v=12
20821 On ch=1 n=g#5 v=29
20861 Off ch=1 n=g#6 v=0
20992 Off ch=1 n=g#4 v=0
20992 Off ch=1 n=e5 v=0
20992 On ch=1 n=c#5 v=22
21163 On ch=1 n=c#6 v=37
21203 Off ch=1 n=g#5 v=0
21504 On ch=1 n=e6 v=43
21504 Off ch=1 n=a#3 v=0
21504 On ch=1 n=g4 v=17
21544 Off ch=1 n=c#6 v=0
21845 On ch=1 n=g5 v=28
22016 On ch=1 n=a3 v=12
22187 On ch=1 n=d#6 v=33
22227 Off ch=1 n=g5 v=0
22227 Off ch=1 n=e6 v=0
22528 Par ch=1 c=64 v=0
22528 Par ch=1 c=64 v=0
22528 Off ch=1 n=a3 v=0
22528 Off ch=1 n=g4 v=0
22528 Off ch=1 n=c#5 v=0
22528 On ch=1 n=d5 v=22
22568 Off ch=1 n=d#6 v=0
22869 On ch=1 n=b5 v=40
23040 On ch=1 n=f#4 v=17
23211 On ch=1 n=a#5 v=42
23251 Off ch=1 n=b5 v=0
23552 On ch=1 n=f#6 v=44
23552 On ch=1 n=g#3 v=12
23592 Off ch=1 n=a#5 v=0
23893 On ch=1 n=f#5 v=32
23933 Off ch=1 n=f#6 v=0
24064 Off ch=1 n=g#3 v=0
24064 Off ch=1 n=f#4 v=0
24064 Off ch=1 n=d5 v=0
24064 On ch=1 n=b4 v=22
24235 On ch=1 n=b5 v=32
24275 Off ch=1 n=f#5 v=0
24576 On ch=1 n=d6 v=44
24576 On ch=1 n=f4 v=17
24616 Off ch=1 n=b5 v=0
24917 On ch=1 n=f5 v=32
25088 On ch=1 n=g3 v=12
25259 On ch=1 n=c#6 v=44
25299 Off ch=1 n=f5 v=0
25299 Off ch=1 n=d6 v=0
25600 Par ch=1 c=64 v=0
25600 Par ch=1 c=64 v=0
25600 Off ch=1 n=g3 v=0
25600 Off ch=1 n=f4 v=0
25600 Off ch=1 n=b4 v=0
25600 On ch=1 n=a4 v=22
25640 Off ch=1 n=c#6 v=0
25941 On ch=1 n=a5 v=46
26112 On ch=1 n=d4 v=17
26283 On ch=1 n=g#5 v=46
26323 Off ch=1 n=a5 v=0
26624 On ch=1 n=d6 v=46
26624 Off ch=1 n=a4 v=0
26624 On ch=1 n=f#3 v=12
26664 Off ch=1 n=g#5 v=0
26965 On ch=1 n=d5 v=34
27136 Off ch=1 n=f#3 v=0
27136 Off ch=1 n=d4 v=0
27136 On ch=1 n=a4 v=22
27307 On ch=1 n=a5 v=34
27347 Off ch=1 n=d5 v=0
27347 Off ch=1 n=d6 v=0
27648 On ch=1 n=c#6 v=46
27648 On ch=1 n=f#4 v=17
27688 Off ch=1 n=a5 v=0
27989 On ch=1 n=d#5 v=34
28160 Off ch=1 n=a4 v=0
28160 On ch=1 n=g#3 v=12
28331 On ch=1 n=c6 v=46
28371 Off ch=1 n=d#5 v=0
28371 Off ch=1 n=c#6 v=0
28672 Par ch=1 c=64 v=0
28672 Par ch=1 c=64 v=0
28672 Par ch=1 c=64 v=0
28672 Par ch=1 c=64 v=0
28672 Off ch=1 n=g#3 v=0
28672 Off ch=1 n=f#4 v=0
28672 On ch=1 n=d#6 v=55
28672 On ch=1 n=g#4 v=26
28712 Off ch=1 n=c6 v=0
28832 Par ch=1 c=64 v=127
29013 On ch=1 n=f5 v=41
29184 On ch=1 n=f4 v=21
29355 On ch=1 n=d6 v=50
29395 Off ch=1 n=f5 v=0
29395 Off ch=1 n=d#6 v=0
29696 On ch=1 n=g#5 v=37
29696 Off ch=1 n=g#4 v=0
29696 On ch=1 n=g#3 v=17
29952 Par ch=1 c=64 v=0
30037 On ch=1 n=c#6 v=47
30077 Off ch=1 n=g#5 v=0
30077 Off ch=1 n=d6 v=0
30208 On ch=1 n=c#3 v=12
30224 Par ch=1 c=64 v=127
30379 On ch=1 n=c#5 v=33
30720 On ch=1 n=a5 v=39
30720 Off ch=1 n=c#3 v=0
30720 Off ch=1 n=g#3 v=0
30720 Off ch=1 n=f4 v=0
30760 Off ch=1 n=c#5 v=0
30760 Off ch=1 n=c#6 v=0
31061 On ch=1 n=f5 v=26
31403 On ch=1 n=g#5 v=30
31443 Off ch=1 n=f5 v=0
31443 Off ch=1 n=a5 v=0
31504 Par ch=1 c=64 v=0
31744 Par ch=1 c=64 v=0
31744 Par ch=1 c=64 v=0
31744 Par ch=1 c=64 v=0
31744 Par ch=1 c=64 v=0
31744 Off ch=1 n=g#5 v=0
31744 On ch=1 n=g#5 v=37
31744 On ch=1 n=f5 v=25
31959 Par ch=1 c=64 v=127
32085 Off ch=1 n=g#5 v=0
32085 On ch=1 n=g5 v=41
32256 On ch=1 n=b4 v=23
32285 Par ch=1 c=64 v=0
32427 On ch=1 n=d#6 v=44
32484 Par ch=1 c=64 v=127
32768 Off ch=1 n=f5 v=0
32768 On ch=1 n=c#4 v=21
33109 Off ch=1 n=d#6 v=0
33109 On ch=1 n=b5 v=44
33280 Off ch=1 n=c#4 v=0
33280 On ch=1 n=c#4 v=20
33451 Off ch=1 n=b5 v=0
33451 On ch=1 n=a#5 v=41
33792 Off ch=1 n=a#5 v=0
33792 On ch=1 n=d#5 v=44
33792 Off ch=1 n=c#4 v=0
33792 On ch=1 n=c#3 v=18
33827 Par ch=1 c=64 v=0
34133 Off ch=1 n=g5 v=0
34133 Off ch=1 n=d#5 v=0
34133 On ch=1 n=g#5 v=48
34164 Par ch=1 c=64 v=127
34304 Off ch=1 n=c#3 v=0
34304 Off ch=1 n=b4 v=0
34645 On ch=1 n=d#6 v=44
34816 Par ch=1 c=64 v=127
34816 Par ch=1 c=64 v=0
34816 Par ch=1 c=64 v=0
34816 Par ch=1 c=64 v=0
34816 Off ch=1 n=d#6 v=0
34816 On ch=1 n=d6 v=44
34816 On ch=1 n=f5 v=36
34921 Par ch=1 c=64 v=0
35068 Par ch=1 c=64 v=127
35157 Off ch=1 n=g#5 v=0
35157 Off ch=1 n=d6 v=0
35157 On ch=1 n=f5 v=40
35328 On ch=1 n=a#5 v=43
35328 Off ch=1 n=f5 v=0
35328 On ch=1 n=b4 v=34
35499 Off ch=1 n=a#5 v=0
35499 On ch=1 n=d6 v=46
35669 Off ch=1 n=d6 v=0
35669 On ch=1 n=d6 v=48
35840 Off ch=1 n=d6 v=0
35840 On ch=1 n=a#6 v=51
35840 Off ch=1 n=b4 v=0
35840 Off ch=1 n=f5 v=0
35840 On ch=1 n=c#4 v=31
36011 Off ch=1 n=a#6 v=0
36011 On ch=1 n=d6 v=48
36181 Off ch=1 n=d6 v=0
36181 On ch=1 n=d6 v=46
36352 Off ch=1 n=d6 v=0
36352 On ch=1 n=a#5 v=43
36352 Off ch=1 n=c#4 v=0
36352 On ch=1 n=c#4 v=29
36523 Off ch=1 n=a#5 v=0
36523 On ch=1 n=f5 v=40
36864 Off ch=1 n=f5 v=0
36864 Off ch=1 n=c#4 v=0
36864 On ch=1 n=c#3 v=27
36983 Par ch=1 c=64 v=0
37376 Off ch=1 n=c#3 v=0
37888 Par ch=1 c=64 v=0
37888 Par ch=1 c=64 v=0
37888 Par ch=1 c=64 v=0
37888 Par ch=1 c=64 v=0
37888 Par ch=1 c=64 v=0
37888 Par ch=1 c=64 v=0
37888 On ch=1 n=f#5 v=38
37888 On ch=1 n=d#5 v=38
38103 Par ch=1 c=64 v=127
38229 Off ch=1 n=f#5 v=0
38229 On ch=1 n=f5 v=42
38400 On ch=1 n=a4 v=34
38429 Par ch=1 c=64 v=0
38571 On ch=1 n=c#6 v=45
38628 Par ch=1 c=64 v=127
38912 Off ch=1 n=d#5 v=0
38912 On ch=1 n=c#4 v=31
39253 Off ch=1 n=c#6 v=0
39253 On ch=1 n=a5 v=45
39424 Off ch=1 n=c#4 v=0
39424 On ch=1 n=c#4 v=27
39595 Off ch=1 n=a5 v=0
39595 On ch=1 n=g#5 v=42
39936 Off ch=1 n=g#5 v=0
39936 On ch=1 n=c#5 v=38
39936 Off ch=1 n=c#4 v=0
39936 On ch=1 n=c#3 v=24
39971 Par ch=1 c=64 v=0
40277 Off ch=1 n=f5 v=0
40277 Off ch=1 n=c#5 v=0
40277 On ch=1 n=f#5 v=42
40308 Par ch=1 c=64 v=127
40448 Off ch=1 n=c#3 v=0
40448 Off ch=1 n=a4 v=0
40789 On ch=1 n=c#6 v=38
40960 Par ch=1 c=64 v=127
40960 Par ch=1 c=64 v=0
40960 Par ch=1 c=64 v=0
40960 Par ch=1 c=64 v=0
40960 Par ch=1 c=64 v=0
40960 Par ch=1 c=64 v=0
40960 Off ch=1 n=c#6 v=0
40960 On ch=1 n=c6 v=38
40960 On ch=1 n=d#5 v=30
41065 Par ch=1 c=64 v=0
41212 Par ch=1 c=64 v=127
41301 Off ch=1 n=f#5 v=0
41301 Off ch=1 n=c6 v=0
41301 On ch=1 n=d#5 v=34
41472 On ch=1 n=g#5 v=37
41472 Off ch=1 n=d#5 v=0
41472 On ch=1 n=a4 v=28
41643 Off ch=1 n=g#5 v=0
41643 On ch=1 n=c6 v=40
41813 Off ch=1 n=c6 v=0
41813 On ch=1 n=c6 v=42
41984 Off ch=1 n=c6 v=0
41984 On ch=1 n=g#6 v=45
41984 Off ch=1 n=a4 v=0
41984 Off ch=1 n=d#5 v=0
41984 On ch=1 n=c#4 v=25
42155 Off ch=1 n=g#6 v=0
42155 On ch=1 n=c6 v=42
42325 Off ch=1 n=c6 v=0
42325 On ch=1 n=c6 v=40
42496 Off ch=1 n=c6 v=0
42496 On ch=1 n=g#5 v=37
42496 Off ch=1 n=c#4 v=0
42496 On ch=1 n=c#4 v=23
42667 Off ch=1 n=g#5 v=0
42667 On ch=1 n=d#5 v=34
43008 Off ch=1 n=d#5 v=0
43008 Off ch=1 n=c#4 v=0
43008 On ch=1 n=c#3 v=21
43127 Par ch=1 c=64 v=0
43520 Off ch=1 n=c#3 v=0
44032 Par ch=1 c=64 v=0
44032 Par ch=1 c=64 v=0
44032 Par ch=1 c=64 v=0
44032 Par ch=1 c=64 v=0
44032 Par ch=1 c=64 v=0
44032 Par ch=1 c=64 v=0
44032 On ch=1 n=d#5 v=36
44032 On ch=1 n=c5 v=25
44247 Par ch=1 c=64 v=127
44373 Off ch=1 n=d#5 v=0
44373 On ch=1 n=d5 v=36
44544 On ch=1 n=f#4 v=23
44573 Par ch=1 c=64 v=0
44715 On ch=1 n=a#5 v=46
44772 Par ch=1 c=64 v=127
45056 On ch=1 n=c#4 v=21
45397 Off ch=1 n=a#5 v=0
45397 On ch=1 n=f#5 v=51
45568 Off ch=1 n=c#4 v=0
45568 On ch=1 n=c#4 v=19
45739 Off ch=1 n=f#5 v=0
45739 On ch=1 n=f5 v=48
46080 Off ch=1 n=f5 v=0
46080 On ch=1 n=a#4 v=44
46080 Off ch=1 n=c#4 v=0
46080 On ch=1 n=c#3 v=17
46115 Par ch=1 c=64 v=0
46421 Off ch=1 n=d5 v=0
46421 Off ch=1 n=a#4 v=0
46421 On ch=1 n=d#5 v=48
46452 Par ch=1 c=64 v=127
46592 Off ch=1 n=c#3 v=0
46592 Off ch=1 n=f#4 v=0
46592 Off ch=1 n=c5 v=0
46933 On ch=1 n=a#5 v=44
47104 Par ch=1 c=64 v=127
47104 Par ch=1 c=64 v=0
47104 Par ch=1 c=64 v=0
47104 Par ch=1 c=64 v=0
47104 Par ch=1 c=64 v=0
47104 Par ch=1 c=64 v=0
47104 Off ch=1 n=a#5 v=0
47104 On ch=1 n=a5 v=44
47104 On ch=1 n=c5 v=28
47209 Par ch=1 c=64 v=0
47356 Par ch=1 c=64 v=127
47445 Off ch=1 n=d#5 v=0
47445 Off ch=1 n=a5 v=0
47445 On ch=1 n=c5 v=40
47616 On ch=1 n=f5 v=43
47616 Off ch=1 n=c5 v=0
47616 On ch=1 n=f#4 v=26
47787 Off ch=1 n=f5 v=0
47787 On ch=1 n=a5 v=46
47957 Off ch=1 n=a5 v=0
47957 On ch=1 n=a5 v=48
48128 Off ch=1 n=a5 v=0
48128 On ch=1 n=f6 v=51
48128 Off ch=1 n=f#4 v=0
48128 Off ch=1 n=c5 v=0
48128 On ch=1 n=c#4 v=23
48299 Off ch=1 n=f6 v=0
48299 On ch=1 n=a5 v=48
48469 Off ch=1 n=a5 v=0
48469 On ch=1 n=a5 v=46
48640 Off ch=1 n=a5 v=0
48640 On ch=1 n=f5 v=43
48640 Off ch=1 n=c#4 v=0
48640 On ch=1 n=c#4 v=21
48811 Off ch=1 n=f5 v=0
48811 On ch=1 n=c5 v=40
49152 Off ch=1 n=c5 v=0
49152 Off ch=1 n=c#4 v=0
49152 On ch=1 n=c#3 v=19
49271 Par ch=1 c=64 v=0
49664 Off ch=1 n=c#3 v=0
50176 Par ch=1 c=64 v=127
50176 Par ch=1 c=64 v=0
50176 Par ch=1 c=64 v=0
50176 Par ch=1 c=64 v=0
50176 Par ch=1 c=64 v=0
50176 On ch=1 n=c#5 v=25
50281 Par ch=1 c=64 v=0
50428 Par ch=1 c=64 v=127
50688 On ch=1 n=f4 v=23
51200 On ch=1 n=f5 v=31
51200 On ch=1 n=a5 v=43
51200 Off ch=1 n=c#5 v=0
51200 On ch=1 n=c#4 v=21
51712 Off ch=1 n=c#4 v=0
51712 On ch=1 n=c#4 v=20
52224 Off ch=1 n=a5 v=0
52224 On ch=1 n=g#5 v=25
52224 Off ch=1 n=c#4 v=0
52224 On ch=1 n=c#3 v=18
52343 Par ch=1 c=64 v=0
52512 Par ch=1 c=64 v=127
52736 Off ch=1 n=c#3 v=0
52736 Off ch=1 n=f4 v=0
53024 Par ch=1 c=64 v=0
53248 Par ch=1 c=64 v=127
53248 Par ch=1 c=64 v=0
53248 Par ch=1 c=64 v=0
53248 Par ch=1 c=64 v=0
53248 Par ch=1 c=64 v=0
53248 Par ch=1 c=64 v=0
53248 Par ch=1 c=64 v=0
53248 Par ch=1 c=64 v=0
53248 Off ch=1 n=f5 v=0
53248 Off ch=1 n=g#5 v=0
53248 On ch=1 n=c5 v=36
53353 Par ch=1 c=64 v=0
53500 Par ch=1 c=64 v=127
53589 On ch=1 n=c5 v=40
53760 On ch=1 n=f5 v=43
53760 Off ch=1 n=c5 v=0
53760 On ch=1 n=f#4 v=34
53931 Off ch=1 n=f5 v=0
53931 On ch=1 n=a5 v=46
54101 Off ch=1 n=a5 v=0
54101 On ch=1 n=a5 v=48
54272 Off ch=1 n=a5 v=0
54272 On ch=1 n=f6 v=51
54272 Off ch=1 n=f#4 v=0
54272 Off ch=1 n=c5 v=0
54272 On ch=1 n=c#4 v=31
54443 Off ch=1 n=f6 v=0
54443 On ch=1 n=a5 v=48
54613 Off ch=1 n=a5 v=0
54613 On ch=1 n=a5 v=46
54784 Off ch=1 n=a5 v=0
54784 On ch=1 n=f5 v=43
54784 Off ch=1 n=c#4 v=0
54784 On ch=1 n=c#4 v=29
54955 Off ch=1 n=f5 v=0
54955 On ch=1 n=c5 v=40
55296 Off ch=1 n=c5 v=0
55296 Off ch=1 n=c#4 v=0
55296 On ch=1 n=c#3 v=27
55415 Par ch=1 c=64 v=0
55808 Off ch=1 n=c#3 v=0
56320 Par ch=1 c=64 v=127
56320 Par ch=1 c=64 v=0
56320 Par ch=1 c=64 v=0
56320 Par ch=1 c=64 v=0
56320 Par ch=1 c=64 v=0
56320 Par ch=1 c=64 v=0
56320 On ch=1 n=c#5 v=11
56425 Par ch=1 c=64 v=0
56572 Par ch=1 c=64 v=127
56832 On ch=1 n=f4 v=9
57344 On ch=1 n=f5 v=23
57344 On ch=1 n=a5 v=35
57344 Off ch=1 n=c#5 v=0
57344 On ch=1 n=c#4 v=6
57856 Off ch=1 n=c#4 v=0
57856 On ch=1 n=c#4 v=4
58368 Off ch=1 n=a5 v=0
58368 On ch=1 n=g#5 v=17
58368 Off ch=1 n=c#4 v=0
58368 On ch=1 n=c#3 v=2
58487 Par ch=1 c=64 v=0
58656 Par ch=1 c=64 v=127
58880 Off ch=1 n=c#3 v=0
58880 Off ch=1 n=f4 v=0
59168 Par ch=1 c=64 v=0
59392 Par ch=1 c=64 v=127
59392 Par ch=1 c=64 v=0
59392 Par ch=1 c=64 v=0
59392 Par ch=1 c=64 v=0
59392 Par ch=1 c=64 v=0
59392 Par ch=1 c=64 v=0
59392 Par ch=1 c=64 v=0
59392 Par ch=1 c=64 v=0
59392 Par ch=1 c=64 v=0
59392 Par ch=1 c=64 v=0
59392 Off ch=1 n=f5 v=0
59392 Off ch=1 n=g#5 v=0
59392 On ch=1 n=c5 v=29
59497 Par ch=1 c=64 v=0
59644 Par ch=1 c=64 v=127
59733 On ch=1 n=c5 v=33
59904 On ch=1 n=f5 v=36
59904 Off ch=1 n=c5 v=0
59904 On ch=1 n=f#4 v=27
60075 Off ch=1 n=f5 v=0
60075 On ch=1 n=a5 v=39
60245 Off ch=1 n=a5 v=0
60245 On ch=1 n=a5 v=41
60416 Off ch=1 n=a5 v=0
60416 On ch=1 n=f6 v=44
60416 Off ch=1 n=f#4 v=0
60416 Off ch=1 n=c5 v=0
60416 On ch=1 n=c#4 v=24
60587 Off ch=1 n=f6 v=0
60587 On ch=1 n=a5 v=41
60757 Off ch=1 n=a5 v=0
60757 On ch=1 n=a5 v=39
60928 Off ch=1 n=a5 v=0
60928 On ch=1 n=f5 v=36
60928 Off ch=1 n=c#4 v=0
60928 On ch=1 n=c#4 v=22
61099 Off ch=1 n=f5 v=0
61099 On ch=1 n=c5 v=33
61440 Off ch=1 n=c5 v=0
61440 Off ch=1 n=c#4 v=0
61440 On ch=1 n=c#3 v=20
61559 Par ch=1 c=64 v=0
61952 Off ch=1 n=c#3 v=0
62464 Par ch=1 c=64 v=127
62464 Par ch=1 c=64 v=0
62464 Par ch=1 c=64 v=0
62464 Par ch=1 c=64 v=0
62464 Par ch=1 c=64 v=0
62464 Par ch=1 c=64 v=0
62464 Par ch=1 c=64 v=0
62464 Par ch=1 c=64 v=0
62464 Par ch=1 c=64 v=0
62464 Par ch=1 c=64 v=0
62464 On ch=1 n=c5 v=41
62569 Par ch=1 c=64 v=0
62716 Par ch=1 c=64 v=127
62805 On ch=1 n=c5 v=45
62976 On ch=1 n=f5 v=48
62976 Off ch=1 n=c5 v=0
62976 On ch=1 n=f#4 v=39
63147 Off ch=1 n=f5 v=0
63147 On ch=1 n=a5 v=51
63317 Off ch=1 n=a5 v=0
63317 On ch=1 n=c6 v=53
63488 Off ch=1 n=c6 v=0
63488 On ch=1 n=a6 v=56
63488 Off ch=1 n=f#4 v=0
63488 Off ch=1 n=c5 v=0
63488 On ch=1 n=c#4 v=36
63659 Off ch=1 n=a6 v=0
63659 On ch=1 n=c6 v=53
63829 Off ch=1 n=c6 v=0
63829 On ch=1 n=a5 v=51
64000 Off ch=1 n=a5 v=0
64000 On ch=1 n=f5 v=48
64000 Off ch=1 n=c#4 v=0
64000 On ch=1 n=c#4 v=34
64171 Off ch=1 n=f5 v=0
64171 On ch=1 n=c5 v=45
64512 Off ch=1 n=c5 v=0
64512 Off ch=1 n=c#4 v=0
64512 On ch=1 n=c#3 v=32
64631 Par ch=1 c=64 v=0
65024 Off ch=1 n=c#3 v=0
65536 Par ch=1 c=64 v=127
65536 Par ch=1 c=64 v=0
65536 Par ch=1 c=64 v=0
65536 Par ch=1 c=64 v=0
65536 Par ch=1 c=64 v=0
65536 Par ch=1 c=64 v=0
65536 Par ch=1 c=64 v=0
65536 Par ch=1 c=64 v=0
65536 Par ch=1 c=64 v=0
65536 Par ch=1 c=64 v=0
65536 On ch=1 n=c5 v=44
65641 Par ch=1 c=64 v=0
65788 Par ch=1 c=64 v=127
65877 On ch=1 n=c5 v=48
66048 On ch=1 n=f5 v=51
66048 Off ch=1 n=c5 v=0
66048 On ch=1 n=f#4 v=42
66219 Off ch=1 n=f5 v=0
66219 On ch=1 n=a5 v=54
66332 Off ch=1 n=a5 v=0
66332 On ch=1 n=c6 v=63
66446 Off ch=1 n=c6 v=0
66446 On ch=1 n=f6 v=63
66560 Off ch=1 n=f6 v=0
66560 On ch=1 n=c7 v=68
66560 Off ch=1 n=f#4 v=0
66560 Off ch=1 n=c5 v=0
66560 On ch=1 n=c#4 v=39
66731 Off ch=1 n=c7 v=0
66731 On ch=1 n=f6 v=56
66902 Off ch=1 n=f6 v=0
66902 On ch=1 n=c6 v=54
67072 Off ch=1 n=c6 v=0
67072 On ch=1 n=a5 v=51
67072 Off ch=1 n=c#4 v=0
67072 On ch=1 n=c#4 v=37
67243 Off ch=1 n=a5 v=0
67243 On ch=1 n=f5 v=48
67414 Off ch=1 n=f5 v=0
67414 On ch=1 n=c5 v=41
67584 Off ch=1 n=c5 v=0
67584 Off ch=1 n=c#4 v=0
67584 On ch=1 n=c#3 v=35
67703 Par ch=1 c=64 v=0
68096 Off ch=1 n=c#3 v=0
68608 Par ch=1 c=64 v=0
68608 Par ch=1 c=64 v=0
68608 On ch=1 n=c#5 v=33
68748 Par ch=1 c=64 v=127
68864 On ch=1 n=f4 v=39
68949 On ch=1 n=c#5 v=44
69063 On ch=1 n=f5 v=47
69120 On ch=1 n=c#4 v=44
69177 Off ch=1 n=c#5 v=0
69177 Off ch=1 n=f5 v=0
69177 On ch=1 n=c#5 v=49
69177 On ch=1 n=f5 v=49
69177 On ch=1 n=g#5 v=49
69291 On ch=1 n=c#6 v=52
69376 On ch=1 n=g#3 v=50
69404 On ch=1 n=f6 v=55
69518 On ch=1 n=g#6 v=57
69632 On ch=1 n=f7 v=67
69632 On ch=1 n=c#3 v=55
70656 Off ch=1 n=c#5 v=0
70656 Off ch=1 n=f5 v=0
70656 Off ch=1 n=g#5 v=0
70656 Off ch=1 n=c#6 v=0
70656 Off ch=1 n=f6 v=0
70656 Off ch=1 n=g#6 v=0
70656 Off ch=1 n=f7 v=0
70656 Off ch=1 n=c#3 v=0
70656 Off ch=1 n=g#3 v=0
70656 Off ch=1 n=c#4 v=0
70656 Off ch=1 n=f4 v=0
70656 Off ch=1 n=c#5 v=0
71041 Par ch=1 c=64 v=0
71680 Par ch=1 c=64 v=0
71680 Par ch=1 c=64 v=0
74752 Par ch=1 c=64 v=0
74752 Par ch=1 c=64 v=0
74755 Meta TrkEnd
TrkEnd
