MFile 1 2 1024
MTrk
0 TimeSig 1/4 24 8
0 KeySig 0 minor
0 Tempo 666666
1024 TimeSig 2/4 24 8
1024 Tempo 857142
1536 Tempo 666666
3072 Tempo 750000
3584 Tempo 666666
5120 Tempo 857142
5632 Tempo 666666
9216 Tempo 750000
9728 Tempo 666666
12288 Tempo 750000
12800 Tempo 857142
13312 Tempo 750000
13824 Tempo 666666
15360 Tempo 750000
15872 Tempo 666666
17408 Tempo 750000
17920 Tempo 666666
21504 Tempo 779220
22016 Tempo 666666
25600 Tempo 750000
26112 Tempo 666666
28672 Tempo 705882
29696 Tempo 909090
30208 Tempo 750000
30720 Tempo 666666
33792 Tempo 857142
34304 Tempo 750000
34816 Tempo 666666
37888 Tempo 750000
38400 Tempo 666666
39936 Tempo 645161
41472 Tempo 631578
44544 Tempo 645161
45056 Tempo 666666
46080 Tempo 857142
46592 Tempo 666666
48128 Tempo 750000
48640 Tempo 666666
50176 Tempo 857142
50688 Tempo 666666
54272 Tempo 750000
54784 Tempo 666666
57344 Tempo 750000
57856 Tempo 857142
58368 Tempo 750000
58880 Tempo 666666
62464 Tempo 750000
62976 Tempo 666666
64512 Tempo 750000
65536 Tempo 857142
65877 Tempo 1000000
66219 Tempo 1200000
69632 Tempo 1000000
70912 Tempo 4000000
72704 Tempo 270270
74753 Meta TrkEnd
TrkEnd
MTrk
0 Meta TrkName "Instrument  1"
0 PrCh ch=1 p=1
0 Par ch=1 c=64 v=0
0 Par ch=1 c=64 v=0
1024 Par ch=1 c=64 v=0
1024 Par ch=1 c=64 v=0
1024 On ch=1 n=a#4 v=26
1024 On ch=1 n=d#5 v=38
1024 On ch=1 n=g3 v=20
1195 On ch=1 n=c4 v=21
1365 Off ch=1 n=g3 v=0
1365 On ch=1 n=g3 v=21
1536 On ch=1 n=g4 v=21
1536 On ch=1 n=c5 v=21
1536 On ch=1 n=f#5 v=34
1536 Off ch=1 n=g3 v=0
1536 Off ch=1 n=c4 v=0
1536 On ch=1 n=a3 v=21
1586 Off ch=1 n=a#4 v=0
1586 Off ch=1 n=d#5 v=0
1707 On ch=1 n=d#3 v=22
1877 Off ch=1 n=a3 v=0
1877 On ch=1 n=a3 v=22
2048 On ch=1 n=a#4 v=29
2048 On ch=1 n=d#5 v=42
2048 Off ch=1 n=d#3 v=0
2048 Off ch=1 n=a3 v=0
2048 On ch=1 n=g3 v=23
2098 Off ch=1 n=g4 v=0
2098 Off ch=1 n=c5 v=0
2098 Off ch=1 n=f#5 v=0
2219 On ch=1 n=c4 v=23
2389 Off ch=1 n=g3 v=0
2389 On ch=1 n=g3 v=23
2560 On ch=1 n=g4 v=23
2560 On ch=1 n=c5 v=23
2560 On ch=1 n=f#5 v=37
2560 Off ch=1 n=g3 v=0
2560 Off ch=1 n=c4 v=0
2560 On ch=1 n=a3 v=24
2610 Off ch=1 n=a#4 v=0
2610 Off ch=1 n=d#5 v=0
2731 On ch=1 n=d#3 v=24
2901 Off ch=1 n=a3 v=0
2901 On ch=1 n=a3 v=25
3072 Par ch=1 c=64 v=127
3072 Par ch=1 c=64 v=0
3072 Par ch=1 c=64 v=0
3072 Off ch=1 n=f#5 v=0
3072 Off ch=1 n=d#3 v=0
3072 Off ch=1 n=a3 v=0
3072 On ch=1 n=c#5 v=30
3072 On ch=1 n=f#5 v=44
3072 On ch=1 n=a#3 v=25
3111 Par ch=1 c=64 v=0
3122 Off ch=1 n=g4 v=0
3122 Off ch=1 n=c5 v=0
3151 Par ch=1 c=64 v=0
3195 Par ch=1 c=64 v=127
3243 Off ch=1 n=a#3 v=0
3243 On ch=1 n=d#4 v=26
3413 Off ch=1 n=d#4 v=0
3413 On ch=1 n=a#3 v=26
3519 Par ch=1 c=64 v=0
3584 On ch=1 n=a#4 v=31
3584 On ch=1 n=d#5 v=31
3584 On ch=1 n=a5 v=46
3584 Off ch=1 n=a#3 v=0
3584 On ch=1 n=c4 v=27
3634 Off ch=1 n=c#5 v=0
3634 Off ch=1 n=f#5 v=0
3662 Par ch=1 c=64 v=127
3755 Off ch=1 n=c4 v=0
3755 On ch=1 n=f#3 v=28
3925 Off ch=1 n=f#3 v=0
3925 On ch=1 n=c4 v=29
4044 Par ch=1 c=64 v=0
4096 On ch=1 n=e5 v=32
4096 On ch=1 n=a5 v=48
4096 Off ch=1 n=c4 v=0
4096 On ch=1 n=c#4 v=29
4102 Par ch=1 c=64 v=0
4146 Off ch=1 n=a#4 v=0
4146 Off ch=1 n=d#5 v=0
4146 Off ch=1 n=a5 v=0
4161 Par ch=1 c=64 v=127
4267 Off ch=1 n=c#4 v=0
4267 On ch=1 n=f#4 v=30
4290 Par ch=1 c=64 v=127
4437 Off ch=1 n=f#4 v=0
4437 On ch=1 n=c#4 v=31
4608 On ch=1 n=c#5 v=33
4608 On ch=1 n=f#5 v=34
4608 On ch=1 n=c6 v=49
4608 Off ch=1 n=c#4 v=0
4608 On ch=1 n=d#4 v=31
4627 Par ch=1 c=64 v=0
4658 Off ch=1 n=e5 v=0
4658 Off ch=1 n=a5 v=0
4725 Par ch=1 c=64 v=127
4779 Off ch=1 n=d#4 v=0
4779 On ch=1 n=a3 v=32
4949 Off ch=1 n=a3 v=0
4949 On ch=1 n=d#4 v=33
5120 Par ch=1 c=64 v=127
5120 Par ch=1 c=64 v=0
5120 Par ch=1 c=64 v=0
5120 Off ch=1 n=c6 v=0
5120 Off ch=1 n=d#4 v=0
5120 On ch=1 n=g5 v=34
5120 On ch=1 n=c6 v=51
5120 On ch=1 n=d#4 v=33
5159 Par ch=1 c=64 v=0
5170 Off ch=1 n=c#5 v=0
5170 Off ch=1 n=f#5 v=0
5199 Par ch=1 c=64 v=0
5243 Par ch=1 c=64 v=127
5291 Off ch=1 n=d#4 v=0
5291 On ch=1 n=a4 v=32
5461 Off ch=1 n=a4 v=0
5461 On ch=1 n=d#4 v=31
5567 Par ch=1 c=64 v=0
5632 On ch=1 n=f#5 v=31
5632 On ch=1 n=d6 v=46
5632 Off ch=1 n=d#4 v=0
5632 On ch=1 n=g#4 v=31
5682 Off ch=1 n=g5 v=0
5682 Off ch=1 n=c6 v=0
5710 Par ch=1 c=64 v=127
5803 On ch=1 n=d#4 v=30
5973 Off ch=1 n=d#4 v=0
5973 Off ch=1 n=g#4 v=0
5973 On ch=1 n=g#4 v=29
6092 Par ch=1 c=64 v=0
6144 On ch=1 n=f5 v=31
6144 On ch=1 n=a#5 v=46
6144 On ch=1 n=d4 v=29
6150 Par ch=1 c=64 v=0
6194 Off ch=1 n=f#5 v=0
6194 Off ch=1 n=d6 v=0
6209 Par ch=1 c=64 v=127
6315 Off ch=1 n=d4 v=0
6315 Off ch=1 n=g#4 v=0
6315 On ch=1 n=g4 v=28
6338 Par ch=1 c=64 v=127
6485 On ch=1 n=d4 v=27
6656 On ch=1 n=e5 v=31
6656 Off ch=1 n=d4 v=0
6656 Off ch=1 n=g4 v=0
6656 On ch=1 n=f#4 v=26
6675 Par ch=1 c=64 v=0
6706 Off ch=1 n=f5 v=0
6773 Par ch=1 c=64 v=127
6827 On ch=1 n=c#4 v=26
6997 Off ch=1 n=c#4 v=0
6997 Off ch=1 n=f#4 v=0
6997 On ch=1 n=f#4 v=25
7168 Par ch=1 c=64 v=127
7168 Par ch=1 c=64 v=0
7168 Par ch=1 c=64 v=0
7168 On ch=1 n=d#5 v=31
7168 On ch=1 n=c4 v=25
7207 Par ch=1 c=64 v=0
7218 Off ch=1 n=e5 v=0
7247 Par ch=1 c=64 v=0
7291 Par ch=1 c=64 v=127
7339 Off ch=1 n=c4 v=0
7339 Off ch=1 n=f#4 v=0
7339 On ch=1 n=f4 v=26
7509 On ch=1 n=c4 v=26
7615 Par ch=1 c=64 v=0
7680 Off ch=1 n=d#5 v=0
7680 Off ch=1 n=a#5 v=0
7680 On ch=1 n=d5 v=26
7680 On ch=1 n=g5 v=38
7680 Off ch=1 n=c4 v=0
7680 Off ch=1 n=f4 v=0
7680 On ch=1 n=e4 v=26
7758 Par ch=1 c=64 v=127
7851 On ch=1 n=b3 v=27
8021 Off ch=1 n=b3 v=0
8021 Off ch=1 n=e4 v=0
8021 On ch=1 n=e4 v=27
8140 Par ch=1 c=64 v=0
8192 Off ch=1 n=d5 v=0
8192 Off ch=1 n=g5 v=0
8192 On ch=1 n=d5 v=30
8192 On ch=1 n=g5 v=44
8192 On ch=1 n=a#3 v=28
8198 Par ch=1 c=64 v=0
8257 Par ch=1 c=64 v=127
8363 Off ch=1 n=a#3 v=0
8363 Off ch=1 n=e4 v=0
8363 On ch=1 n=e4 v=28
8386 Par ch=1 c=64 v=127
8533 On ch=1 n=a#3 v=29
8704 Off ch=1 n=d5 v=0
8704 Off ch=1 n=g5 v=0
8704 On ch=1 n=c#5 v=33
8704 On ch=1 n=a5 v=50
8704 Off ch=1 n=a#3 v=0
8704 Off ch=1 n=e4 v=0
8704 On ch=1 n=d#4 v=29
8723 Par ch=1 c=64 v=0
8821 Par ch=1 c=64 v=127
8875 On ch=1 n=a#3 v=30
9045 Off ch=1 n=a#3 v=0
9045 Off ch=1 n=d#4 v=0
9045 On ch=1 n=d#4 v=30
9216 Par ch=1 c=64 v=127
9216 Par ch=1 c=64 v=0
9216 Par ch=1 c=64 v=0
9216 Off ch=1 n=c#5 v=0
9216 Off ch=1 n=a5 v=0
9216 Off ch=1 n=d#4 v=0
9216 On ch=1 n=f5 v=34
9216 On ch=1 n=a#5 v=51
9216 On ch=1 n=c#4 v=30
9255 Par ch=1 c=64 v=0
9295 Par ch=1 c=64 v=0
9339 Par ch=1 c=64 v=127
9387 Off ch=1 n=c#4 v=0
9387 On ch=1 n=g4 v=29
9557 On ch=1 n=c#4 v=29
9663 Par ch=1 c=64 v=0
9728 Off ch=1 n=f5 v=0
9728 Off ch=1 n=a#5 v=0
9728 On ch=1 n=e5 v=31
9728 On ch=1 n=c6 v=46
9728 Off ch=1 n=c#4 v=0
9728 Off ch=1 n=g4 v=0
9728 On ch=1 n=f#4 v=28
9806 Par ch=1 c=64 v=127
9899 On ch=1 n=c#4 v=27
10069 Off ch=1 n=c#4 v=0
10069 Off ch=1 n=f#4 v=0
10069 On ch=1 n=f#4 v=27
10188 Par ch=1 c=64 v=0
10240 Off ch=1 n=e5 v=0
10240 Off ch=1 n=c6 v=0
10240 On ch=1 n=d#5 v=31
10240 On ch=1 n=g#5 v=46
10240 On ch=1 n=c4 v=26
10246 Par ch=1 c=64 v=0
10305 Par ch=1 c=64 v=127
10411 Off ch=1 n=c4 v=0
10411 Off ch=1 n=f#4 v=0
10411 On ch=1 n=f4 v=25
10434 Par ch=1 c=64 v=127
10581 On ch=1 n=c4 v=25
10752 Off ch=1 n=d#5 v=0
10752 On ch=1 n=d5 v=31
10752 Off ch=1 n=c4 v=0
10752 Off ch=1 n=f4 v=0
10752 On ch=1 n=e4 v=24
10771 Par ch=1 c=64 v=0
10869 Par ch=1 c=64 v=127
10923 On ch=1 n=b3 v=23
11093 Off ch=1 n=b3 v=0
11093 Off ch=1 n=e4 v=0
11093 On ch=1 n=e4 v=23
11264 Par ch=1 c=64 v=127
11264 Par ch=1 c=64 v=0
11264 Par ch=1 c=64 v=0
11264 Off ch=1 n=d5 v=0
11264 Off ch=1 n=e4 v=0
11264 On ch=1 n=c#5 v=30
11264 On ch=1 n=a#3 v=22
11303 Par ch=1 c=64 v=0
11343 Par ch=1 c=64 v=0
11387 Par ch=1 c=64 v=127
11435 Off ch=1 n=a#3 v=0
11435 On ch=1 n=d#4 v=22
11605 Off ch=1 n=d#4 v=0
11605 On ch=1 n=a#3 v=22
11711 Par ch=1 c=64 v=0
11776 On ch=1 n=c5 v=30
11776 On ch=1 n=f5 v=44
11776 Off ch=1 n=a#3 v=0
11776 On ch=1 n=d4 v=22
11816 Off ch=1 n=c#5 v=0
11816 Off ch=1 n=g#5 v=0
11854 Par ch=1 c=64 v=127
11947 Off ch=1 n=d4 v=0
11947 On ch=1 n=a3 v=22
12117 Off ch=1 n=a3 v=0
12117 On ch=1 n=d4 v=22
12236 Par ch=1 c=64 v=0
12288 Off ch=1 n=c5 v=0
12288 Off ch=1 n=f5 v=0
12288 On ch=1 n=c5 v=30
12288 On ch=1 n=f5 v=44
12288 Off ch=1 n=d4 v=0
12288 On ch=1 n=g#3 v=22
12294 Par ch=1 c=64 v=0
12353 Par ch=1 c=64 v=127
12459 Off ch=1 n=g#3 v=0
12459 On ch=1 n=d4 v=22
12482 Par ch=1 c=64 v=127
12629 Off ch=1 n=d4 v=0
12629 On ch=1 n=g#3 v=22
12800 On ch=1 n=b4 v=23
12800 On ch=1 n=g5 v=37
12800 Off ch=1 n=g#3 v=0
12800 On ch=1 n=c#4 v=22
12819 Par ch=1 c=64 v=0
12840 Off ch=1 n=c5 v=0
12840 Off ch=1 n=f5 v=0
12917 Par ch=1 c=64 v=127
12971 Off ch=1 n=c#4 v=0
12971 On ch=1 n=g#3 v=22
13141 Off ch=1 n=g#3 v=0
13141 On ch=1 n=c#4 v=22
13312 Par ch=1 c=64 v=127
13312 Par ch=1 c=64 v=0
13312 Par ch=1 c=64 v=0
13312 Off ch=1 n=c#4 v=0
13312 On ch=1 n=a#5 v=35
13312 On ch=1 n=d#6 v=51
13312 On ch=1 n=g4 v=31
13351 Par ch=1 c=64 v=0
13352 Off ch=1 n=b4 v=0
13352 Off ch=1 n=g5 v=0
13391 Par ch=1 c=64 v=0
13435 Par ch=1 c=64 v=127
13483 Off ch=1 n=g4 v=0
13483 On ch=1 n=c5 v=31
13653 Off ch=1 n=c5 v=0
13653 On ch=1 n=g4 v=31
13759 Par ch=1 c=64 v=0
13824 On ch=1 n=a5 v=34
13824 On ch=1 n=f6 v=49
13824 Off ch=1 n=g4 v=0
13824 On ch=1 n=b4 v=30
13864 Off ch=1 n=a#5 v=0
13864 Off ch=1 n=d#6 v=0
13902 Par ch=1 c=64 v=127
13995 Off ch=1 n=b4 v=0
13995 On ch=1 n=f#4 v=30
14165 Off ch=1 n=f#4 v=0
14165 On ch=1 n=b4 v=30
14284 Par ch=1 c=64 v=0
14336 On ch=1 n=g#5 v=32
14336 On ch=1 n=c#6 v=48
14336 Off ch=1 n=b4 v=0
14336 On ch=1 n=f4 v=29
14342 Par ch=1 c=64 v=0
14376 Off ch=1 n=a5 v=0
14376 Off ch=1 n=f6 v=0
14401 Par ch=1 c=64 v=127
14507 Off ch=1 n=f4 v=0
14507 On ch=1 n=a#4 v=29
14530 Par ch=1 c=64 v=127
14677 Off ch=1 n=a#4 v=0
14677 On ch=1 n=f4 v=28
14848 On ch=1 n=g5 v=32
14848 Off ch=1 n=f4 v=0
14848 On ch=1 n=a4 v=28
14867 Par ch=1 c=64 v=0
14888 Off ch=1 n=g#5 v=0
14965 Par ch=1 c=64 v=127
15019 Off ch=1 n=a4 v=0
15019 On ch=1 n=e4 v=27
15189 Off ch=1 n=e4 v=0
15189 On ch=1 n=a4 v=26
15360 Par ch=1 c=64 v=127
15360 Par ch=1 c=64 v=0
15360 Par ch=1 c=64 v=0
15360 Off ch=1 n=a4 v=0
15360 On ch=1 n=f#5 v=30
15360 On ch=1 n=d#4 v=26
15399 Par ch=1 c=64 v=0
15400 Off ch=1 n=g5 v=0
15439 Par ch=1 c=64 v=0
15483 Par ch=1 c=64 v=127
15531 Off ch=1 n=d#4 v=0
15531 On ch=1 n=g#4 v=26
15701 Off ch=1 n=g#4 v=0
15701 On ch=1 n=d#4 v=26
15807 Par ch=1 c=64 v=0
15872 On ch=1 n=f5 v=30
15872 On ch=1 n=a#5 v=44
15872 Off ch=1 n=d#4 v=0
15872 On ch=1 n=g4 v=26
15912 Off ch=1 n=f#5 v=0
15912 Off ch=1 n=c#6 v=0
15950 Par ch=1 c=64 v=127
16043 Off ch=1 n=g4 v=0
16043 On ch=1 n=d4 v=24
16213 Off ch=1 n=d4 v=0
16213 On ch=1 n=g4 v=24
16332 Par ch=1 c=64 v=0
16384 Off ch=1 n=f5 v=0
16384 Off ch=1 n=a#5 v=0
16384 On ch=1 n=f5 v=33
16384 On ch=1 n=a#5 v=47
16384 Off ch=1 n=g4 v=0
16384 On ch=1 n=c#4 v=24
16390 Par ch=1 c=64 v=0
16449 Par ch=1 c=64 v=127
16555 Off ch=1 n=c#4 v=0
16555 On ch=1 n=g4 v=24
16578 Par ch=1 c=64 v=127
16725 Off ch=1 n=g4 v=0
16725 On ch=1 n=c#4 v=24
16896 On ch=1 n=e5 v=24
16896 On ch=1 n=c6 v=38
16896 Off ch=1 n=c#4 v=0
16896 On ch=1 n=f#4 v=22
16915 Par ch=1 c=64 v=0
16936 Off ch=1 n=f5 v=0
16936 Off ch=1 n=a#5 v=0
17013 Par ch=1 c=64 v=127
17067 Off ch=1 n=f#4 v=0
17067 On ch=1 n=c#4 v=22
17237 Off ch=1 n=c#4 v=0
17237 On ch=1 n=f#4 v=22
17408 Par ch=1 c=64 v=127
17408 Par ch=1 c=64 v=0
17408 Par ch=1 c=64 v=0
17408 Off ch=1 n=f#4 v=0
17408 On ch=1 n=g#5 v=38
17408 On ch=1 n=c#6 v=52
17408 On ch=1 n=e4 v=22
17447 Par ch=1 c=64 v=0
17448 Off ch=1 n=e5 v=0
17448 Off ch=1 n=c6 v=0
17487 Par ch=1 c=64 v=0
17531 Par ch=1 c=64 v=127
17579 Off ch=1 n=e4 v=0
17579 On ch=1 n=a#4 v=22
17749 Off ch=1 n=a#4 v=0
17749 On ch=1 n=e4 v=22
17855 Par ch=1 c=64 v=0
17920 On ch=1 n=g5 v=33
17920 On ch=1 n=d#6 v=47
17920 Off ch=1 n=e4 v=0
17920 On ch=1 n=a4 v=22
17960 Off ch=1 n=g#5 v=0
17960 Off ch=1 n=c#6 v=0
17998 Par ch=1 c=64 v=127
18091 Off ch=1 n=a4 v=0
18091 On ch=1 n=e4 v=22
18261 Off ch=1 n=e4 v=0
18261 On ch=1 n=a4 v=22
18380 Par ch=1 c=64 v=0
18432 On ch=1 n=f5 v=30
18432 On ch=1 n=a#5 v=44
18432 Off ch=1 n=a4 v=0
18432 On ch=1 n=c#4 v=22
18438 Par ch=1 c=64 v=0
18472 Off ch=1 n=g5 v=0
18472 Off ch=1 n=d#6 v=0
18497 Par ch=1 c=64 v=127
18603 Off ch=1 n=c#4 v=0
18603 On ch=1 n=g4 v=22
18626 Par ch=1 c=64 v=127
18773 Off ch=1 n=g4 v=0
18773 On ch=1 n=c#4 v=22
18944 On ch=1 n=e5 v=32
18944 On ch=1 n=c6 v=46
18944 Off ch=1 n=c#4 v=0
18944 On ch=1 n=f#4 v=22
18963 Par ch=1 c=64 v=0
18984 Off ch=1 n=f5 v=0
18984 Off ch=1 n=a#5 v=0
19061 Par ch=1 c=64 v=127
19115 Off ch=1 n=f#4 v=0
19115 On ch=1 n=c#4 v=22
19285 Off ch=1 n=c#4 v=0
19285 On ch=1 n=f#4 v=22
19456 Par ch=1 c=64 v=127
19456 Par ch=1 c=64 v=0
19456 Par ch=1 c=64 v=0
19456 Off ch=1 n=f#4 v=0
19456 On ch=1 n=g#5 v=33
19456 On ch=1 n=c#6 v=48
19456 On ch=1 n=e4 v=22
19495 Par ch=1 c=64 v=0
19496 Off ch=1 n=e5 v=0
19496 Off ch=1 n=c6 v=0
19535 Par ch=1 c=64 v=0
19579 Par ch=1 c=64 v=127
19627 Off ch=1 n=e4 v=0
19627 On ch=1 n=a#4 v=23
19797 Off ch=1 n=a#4 v=0
19797 On ch=1 n=e4 v=23
19903 Par ch=1 c=64 v=0
19968 On ch=1 n=g5 v=34
19968 On ch=1 n=d#6 v=51
19968 Off ch=1 n=e4 v=0
19968 On ch=1 n=a4 v=24
20008 Off ch=1 n=g#5 v=0
20008 Off ch=1 n=c#6 v=0
20046 Par ch=1 c=64 v=127
20139 Off ch=1 n=a4 v=0
20139 On ch=1 n=e4 v=25
20309 Off ch=1 n=e4 v=0
20309 On ch=1 n=a4 v=26
20428 Par ch=1 c=64 v=0
20480 On ch=1 n=b5 v=36
20480 On ch=1 n=e6 v=52
20480 Off ch=1 n=a4 v=0
20480 On ch=1 n=g4 v=27
20486 Par ch=1 c=64 v=0
20520 Off ch=1 n=g5 v=0
20520 Off ch=1 n=d#6 v=0
20545 Par ch=1 c=64 v=127
20651 Off ch=1 n=g4 v=0
20651 On ch=1 n=c#5 v=28
20674 Par ch=1 c=64 v=127
20821 Off ch=1 n=c#5 v=0
20821 On ch=1 n=g4 v=29
20992 On ch=1 n=a#5 v=37
20992 On ch=1 n=f#6 v=53
20992 Off ch=1 n=g4 v=0
20992 On ch=1 n=c5 v=30
21011 Par ch=1 c=64 v=0
21032 Off ch=1 n=b5 v=0
21032 Off ch=1 n=e6 v=0
21109 Par ch=1 c=64 v=127
21163 Off ch=1 n=c5 v=0
21163 On ch=1 n=g4 v=30
21333 Off ch=1 n=g4 v=0
21333 On ch=1 n=c5 v=31
21504 Par ch=1 c=64 v=127
21504 Par ch=1 c=64 v=0
21504 Par ch=1 c=64 v=0
21504 Off ch=1 n=c5 v=0
21504 On ch=1 n=d6 v=39
21504 On ch=1 n=g6 v=57
21504 On ch=1 n=a#4 v=31
21543 Par ch=1 c=64 v=0
21544 Off ch=1 n=a#5 v=0
21544 Off ch=1 n=f#6 v=0
21583 Par ch=1 c=64 v=0
21627 Par ch=1 c=64 v=127
21675 Off ch=1 n=a#4 v=0
21675 On ch=1 n=e5 v=31
21845 Off ch=1 n=e5 v=0
21845 On ch=1 n=a#4 v=30
21951 Par ch=1 c=64 v=0
22016 On ch=1 n=c#6 v=37
22016 On ch=1 n=a6 v=55
22016 Off ch=1 n=a#4 v=0
22016 On ch=1 n=d#5 v=30
22056 Off ch=1 n=d6 v=0
22056 Off ch=1 n=g6 v=0
22094 Par ch=1 c=64 v=127
22187 Off ch=1 n=d#5 v=0
22187 On ch=1 n=a#4 v=30
22357 Off ch=1 n=a#4 v=0
22357 On ch=1 n=d#5 v=29
22476 Par ch=1 c=64 v=0
22528 On ch=1 n=c6 v=37
22528 On ch=1 n=f6 v=54
22528 Off ch=1 n=d#5 v=0
22528 On ch=1 n=a4 v=29
22534 Par ch=1 c=64 v=0
22568 Off ch=1 n=c#6 v=0
22568 Off ch=1 n=a6 v=0
22593 Par ch=1 c=64 v=127
22699 Off ch=1 n=a4 v=0
22699 On ch=1 n=d5 v=29
22722 Par ch=1 c=64 v=127
22869 Off ch=1 n=d5 v=0
22869 On ch=1 n=a4 v=28
23040 On ch=1 n=b5 v=35
23040 Off ch=1 n=a4 v=0
23040 On ch=1 n=c#5 v=28
23059 Par ch=1 c=64 v=0
23080 Off ch=1 n=c6 v=0
23157 Par ch=1 c=64 v=127
23211 Off ch=1 n=c#5 v=0
23211 On ch=1 n=g#4 v=29
23381 Off ch=1 n=g#4 v=0
23381 On ch=1 n=c#5 v=28
23552 Par ch=1 c=64 v=127
23552 Par ch=1 c=64 v=0
23552 Par ch=1 c=64 v=0
23552 Off ch=1 n=c#5 v=0
23552 On ch=1 n=a#5 v=32
23552 On ch=1 n=g4 v=28
23591 Par ch=1 c=64 v=0
23592 Off ch=1 n=b5 v=0
23631 Par ch=1 c=64 v=0
23675 Par ch=1 c=64 v=127
23723 Off ch=1 n=g4 v=0
23723 On ch=1 n=c5 v=27
23893 Off ch=1 n=c5 v=0
23893 On ch=1 n=g4 v=27
23999 Par ch=1 c=64 v=0
24064 On ch=1 n=a5 v=32
24064 On ch=1 n=d6 v=47
24064 Off ch=1 n=g4 v=0
24064 On ch=1 n=b4 v=27
24104 Off ch=1 n=a#5 v=0
24104 Off ch=1 n=f6 v=0
24142 Par ch=1 c=64 v=127
24235 Off ch=1 n=b4 v=0
24235 On ch=1 n=f#4 v=26
24405 Off ch=1 n=f#4 v=0
24405 On ch=1 n=b4 v=26
24524 Par ch=1 c=64 v=0
24576 Off ch=1 n=a5 v=0
24576 Off ch=1 n=d6 v=0
24576 On ch=1 n=a5 v=32
24576 On ch=1 n=d6 v=48
24576 Off ch=1 n=b4 v=0
24576 On ch=1 n=f4 v=26
24582 Par ch=1 c=64 v=0
24641 Par ch=1 c=64 v=127
24747 Off ch=1 n=f4 v=0
24747 On ch=1 n=b4 v=25
24770 Par ch=1 c=64 v=127
24917 Off ch=1 n=b4 v=0
24917 On ch=1 n=f4 v=25
25088 On ch=1 n=g#5 v=27
25088 On ch=1 n=e6 v=42
25088 Off ch=1 n=f4 v=0
25088 On ch=1 n=a#4 v=25
25107 Par ch=1 c=64 v=0
25128 Off ch=1 n=a5 v=0
25128 Off ch=1 n=d6 v=0
25205 Par ch=1 c=64 v=127
25259 Off ch=1 n=a#4 v=0
25259 On ch=1 n=f4 v=24
25429 Off ch=1 n=f4 v=0
25429 On ch=1 n=a#4 v=24
25600 Par ch=1 c=64 v=127
25600 Par ch=1 c=64 v=0
25600 Par ch=1 c=64 v=0
25600 Off ch=1 n=a#4 v=0
25600 On ch=1 n=c6 v=33
25600 On ch=1 n=f6 v=48
25600 On ch=1 n=g#4 v=24
25639 Par ch=1 c=64 v=0
25640 Off ch=1 n=g#5 v=0
25640 Off ch=1 n=e6 v=0
25679 Par ch=1 c=64 v=0
25723 Par ch=1 c=64 v=127
25771 Off ch=1 n=g#4 v=0
25771 On ch=1 n=d5 v=25
25941 Off ch=1 n=d5 v=0
25941 On ch=1 n=g#4 v=25
26047 Par ch=1 c=64 v=0
26112 On ch=1 n=b5 v=29
26112 On ch=1 n=g6 v=44
26112 Off ch=1 n=g#4 v=0
26112 On ch=1 n=c#5 v=26
26152 Off ch=1 n=c6 v=0
26152 Off ch=1 n=f6 v=0
26190 Par ch=1 c=64 v=127
26283 Off ch=1 n=c#5 v=0
26283 On ch=1 n=g#4 v=26
26453 Off ch=1 n=g#4 v=0
26453 On ch=1 n=c#5 v=28
26572 Par ch=1 c=64 v=0
26624 On ch=1 n=a5 v=33
26624 On ch=1 n=d6 v=49
26624 Off ch=1 n=c#5 v=0
26624 On ch=1 n=f4 v=28
26630 Par ch=1 c=64 v=0
26664 Off ch=1 n=b5 v=0
26664 Off ch=1 n=g6 v=0
26689 Par ch=1 c=64 v=127
26795 Off ch=1 n=f4 v=0
26795 On ch=1 n=b4 v=29
26818 Par ch=1 c=64 v=127
26965 Off ch=1 n=b4 v=0
26965 On ch=1 n=f4 v=30
27136 On ch=1 n=g#5 v=38
27136 On ch=1 n=e6 v=53
27136 Off ch=1 n=f4 v=0
27136 On ch=1 n=a#4 v=30
27155 Par ch=1 c=64 v=0
27176 Off ch=1 n=a5 v=0
27176 Off ch=1 n=d6 v=0
27253 Par ch=1 c=64 v=127
27307 Off ch=1 n=a#4 v=0
27307 On ch=1 n=f4 v=31
27477 Off ch=1 n=f4 v=0
27477 On ch=1 n=a#4 v=31
27648 Par ch=1 c=64 v=127
27648 Par ch=1 c=64 v=0
27648 Par ch=1 c=64 v=0
27648 Off ch=1 n=a#4 v=0
27648 On ch=1 n=c6 v=37
27648 On ch=1 n=f6 v=54
27648 On ch=1 n=g#4 v=32
27687 Par ch=1 c=64 v=0
27688 Off ch=1 n=g#5 v=0
27688 Off ch=1 n=e6 v=0
27727 Par ch=1 c=64 v=0
27771 Par ch=1 c=64 v=127
27819 Off ch=1 n=g#4 v=0
27819 On ch=1 n=d5 v=32
27989 Off ch=1 n=d5 v=0
27989 On ch=1 n=g#4 v=34
28095 Par ch=1 c=64 v=0
28160 On ch=1 n=b5 v=40
28160 On ch=1 n=g6 v=58
28160 Off ch=1 n=g#4 v=0
28160 On ch=1 n=c#5 v=34
28200 Off ch=1 n=c6 v=0
28200 Off ch=1 n=f6 v=0
28238 Par ch=1 c=64 v=127
28331 Off ch=1 n=c#5 v=0
28331 On ch=1 n=g#4 v=35
28501 Off ch=1 n=g#4 v=0
28501 On ch=1 n=c#5 v=36
28620 Par ch=1 c=64 v=0
28672 On ch=1 n=d#6 v=42
28672 On ch=1 n=g#6 v=62
28672 Off ch=1 n=c#5 v=0
28672 On ch=1 n=b4 v=36
28678 Par ch=1 c=64 v=0
28712 Off ch=1 n=b5 v=0
28712 Off ch=1 n=g6 v=0
28737 Par ch=1 c=64 v=127
28843 Off ch=1 n=b4 v=0
28843 On ch=1 n=f5 v=38
28866 Par ch=1 c=64 v=127
29013 Off ch=1 n=f5 v=0
29013 On ch=1 n=b4 v=38
29184 On ch=1 n=d6 v=41
29184 On ch=1 n=a#6 v=62
29184 Off ch=1 n=b4 v=0
29184 On ch=1 n=e5 v=39
29203 Par ch=1 c=64 v=0
29224 Off ch=1 n=d#6 v=0
29224 Off ch=1 n=g#6 v=0
29301 Par ch=1 c=64 v=127
29355 Off ch=1 n=e5 v=0
29355 On ch=1 n=b4 v=39
29525 Off ch=1 n=b4 v=0
29525 On ch=1 n=e5 v=40
29696 Par ch=1 c=64 v=127
29696 Par ch=1 c=64 v=0
29696 Par ch=1 c=64 v=0
29696 Off ch=1 n=e5 v=0
29696 On ch=1 n=f#6 v=45
29696 On ch=1 n=b6 v=66
29696 On ch=1 n=d5 v=40
29735 Par ch=1 c=64 v=0
29736 Off ch=1 n=d6 v=0
29736 Off ch=1 n=a#6 v=0
29775 Par ch=1 c=64 v=0
29819 Par ch=1 c=64 v=127
29867 Off ch=1 n=d5 v=0
29867 On ch=1 n=g#5 v=40
30037 Off ch=1 n=g#5 v=0
30037 On ch=1 n=d5 v=39
30143 Par ch=1 c=64 v=0
30208 On ch=1 n=f6 v=42
30208 On ch=1 n=c#7 v=62
30208 Off ch=1 n=d5 v=0
30208 On ch=1 n=g5 v=39
30286 Par ch=1 c=64 v=127
30288 Off ch=1 n=f#6 v=0
30288 Off ch=1 n=b6 v=0
30379 Off ch=1 n=g5 v=0
30379 On ch=1 n=d5 v=39
30549 Off ch=1 n=d5 v=0
30549 On ch=1 n=g5 v=38
30668 Par ch=1 c=64 v=0
30720 On ch=1 n=e6 v=43
30720 On ch=1 n=a6 v=62
30720 Off ch=1 n=g5 v=0
30720 On ch=1 n=c#5 v=38
30726 Par ch=1 c=64 v=0
30760 Off ch=1 n=f6 v=0
30760 Off ch=1 n=c#7 v=0
30785 Par ch=1 c=64 v=127
30891 Off ch=1 n=c#5 v=0
30891 On ch=1 n=f#5 v=38
30914 Par ch=1 c=64 v=127
31061 Off ch=1 n=f#5 v=0
31061 On ch=1 n=c#5 v=37
31232 On ch=1 n=d#6 v=35
31232 Off ch=1 n=c#5 v=0
31232 On ch=1 n=f5 v=37
31251 Par ch=1 c=64 v=0
31272 Off ch=1 n=e6 v=0
31349 Par ch=1 c=64 v=127
31403 Off ch=1 n=f5 v=0
31403 On ch=1 n=c5 v=37
31573 Off ch=1 n=c5 v=0
31573 On ch=1 n=f5 v=36
31744 Par ch=1 c=64 v=127
31744 Par ch=1 c=64 v=0
31744 Par ch=1 c=64 v=0
31744 Off ch=1 n=f5 v=0
31744 On ch=1 n=d6 v=33
31744 On ch=1 n=b4 v=36
31783 Par ch=1 c=64 v=0
31784 Off ch=1 n=d#6 v=0
31823 Par ch=1 c=64 v=0
31867 Par ch=1 c=64 v=127
31915 Off ch=1 n=b4 v=0
31915 On ch=1 n=e5 v=35
32085 Off ch=1 n=e5 v=0
32085 On ch=1 n=b4 v=35
32191 Par ch=1 c=64 v=0
32256 On ch=1 n=c#6 v=37
32256 On ch=1 n=f#6 v=55
32256 Off ch=1 n=b4 v=0
32256 On ch=1 n=d#5 v=35
32296 Off ch=1 n=d6 v=0
32296 Off ch=1 n=a6 v=0
32334 Par ch=1 c=64 v=127
32427 Off ch=1 n=d#5 v=0
32427 On ch=1 n=a#4 v=33
32597 Off ch=1 n=a#4 v=0
32597 On ch=1 n=d#5 v=33
32716 Par ch=1 c=64 v=0
32768 Off ch=1 n=c#6 v=0
32768 Off ch=1 n=f#6 v=0
32768 On ch=1 n=c#6 v=36
32768 On ch=1 n=f#6 v=53
32768 Off ch=1 n=d#5 v=0
32768 On ch=1 n=a4 v=33
32774 Par ch=1 c=64 v=0
32833 Par ch=1 c=64 v=127
32939 Off ch=1 n=a4 v=0
32939 On ch=1 n=d#5 v=32
32962 Par ch=1 c=64 v=127
33109 Off ch=1 n=d#5 v=0
33109 On ch=1 n=a4 v=32
33280 On ch=1 n=c6 v=35
33280 On ch=1 n=g#6 v=51
33280 Off ch=1 n=a4 v=0
33280 On ch=1 n=d5 v=32
33299 Par ch=1 c=64 v=0
33320 Off ch=1 n=c#6 v=0
33320 Off ch=1 n=f#6 v=0
33397 Par ch=1 c=64 v=127
33451 Off ch=1 n=d5 v=0
33451 On ch=1 n=a4 v=31
33621 Off ch=1 n=a4 v=0
33621 On ch=1 n=d5 v=31
33792 Par ch=1 c=64 v=127
33792 Par ch=1 c=64 v=0
33792 Par ch=1 c=64 v=0
33792 Off ch=1 n=d5 v=0
33792 On ch=1 n=e6 v=41
33792 On ch=1 n=a6 v=56
33792 On ch=1 n=c5 v=30
33831 Par ch=1 c=64 v=0
33832 Off ch=1 n=c6 v=0
33832 Off ch=1 n=g#6 v=0
33871 Par ch=1 c=64 v=0
33915 Par ch=1 c=64 v=127
33963 Off ch=1 n=c5 v=0
33963 On ch=1 n=f#5 v=30
34133 Off ch=1 n=f#5 v=0
34133 On ch=1 n=c5 v=30
34239 Par ch=1 c=64 v=0
34304 On ch=1 n=d#6 v=31
34304 On ch=1 n=b6 v=45
34304 Off ch=1 n=c5 v=0
34304 On ch=1 n=f5 v=29
34382 Par ch=1 c=64 v=127
34384 Off ch=1 n=e6 v=0
34384 Off ch=1 n=a6 v=0
34475 Off ch=1 n=f5 v=0
34475 On ch=1 n=c5 v=29
34645 Off ch=1 n=c5 v=0
34645 On ch=1 n=f5 v=29
34764 Par ch=1 c=64 v=0
34816 On ch=1 n=d6 v=33
34816 On ch=1 n=g6 v=47
34816 Off ch=1 n=f5 v=0
34816 On ch=1 n=b4 v=29
34822 Par ch=1 c=64 v=0
34856 Off ch=1 n=d#6 v=0
34856 Off ch=1 n=b6 v=0
34881 Par ch=1 c=64 v=127
34987 Off ch=1 n=b4 v=0
34987 On ch=1 n=e5 v=29
35010 Par ch=1 c=64 v=127
35157 Off ch=1 n=e5 v=0
35157 On ch=1 n=b4 v=28
35328 On ch=1 n=c#6 v=27
35328 Off ch=1 n=b4 v=0
35328 On ch=1 n=d#5 v=28
35347 Par ch=1 c=64 v=0
35368 Off ch=1 n=d6 v=0
35445 Par ch=1 c=64 v=127
35499 Off ch=1 n=d#5 v=0
35499 On ch=1 n=a#4 v=28
35669 Off ch=1 n=a#4 v=0
35669 On ch=1 n=d#5 v=28
35840 Par ch=1 c=64 v=127
35840 Par ch=1 c=64 v=0
35840 Par ch=1 c=64 v=0
35840 Off ch=1 n=d#5 v=0
35840 On ch=1 n=c6 v=30
35840 On ch=1 n=a4 v=28
35879 Par ch=1 c=64 v=0
35880 Off ch=1 n=c#6 v=0
35919 Par ch=1 c=64 v=0
35963 Par ch=1 c=64 v=127
36011 Off ch=1 n=a4 v=0
36011 On ch=1 n=d5 v=27
36181 Off ch=1 n=d5 v=0
36181 On ch=1 n=a4 v=27
36287 Par ch=1 c=64 v=0
36352 On ch=1 n=b5 v=30
36352 On ch=1 n=e6 v=44
36352 Off ch=1 n=a4 v=0
36352 On ch=1 n=c#5 v=27
36392 Off ch=1 n=c6 v=0
36392 Off ch=1 n=g6 v=0
36430 Par ch=1 c=64 v=127
36523 Off ch=1 n=c#5 v=0
36523 On ch=1 n=g#4 v=27
36693 Off ch=1 n=g#4 v=0
36693 On ch=1 n=c#5 v=27
36812 Par ch=1 c=64 v=0
36864 Off ch=1 n=b5 v=0
36864 Off ch=1 n=e6 v=0
36864 On ch=1 n=b5 v=30
36864 On ch=1 n=e6 v=44
36864 Off ch=1 n=c#5 v=0
36864 On ch=1 n=g4 v=26
36870 Par ch=1 c=64 v=0
36929 Par ch=1 c=64 v=127
37035 Off ch=1 n=g4 v=0
37035 On ch=1 n=c#5 v=26
37058 Par ch=1 c=64 v=127
37205 Off ch=1 n=c#5 v=0
37205 On ch=1 n=g4 v=26
37376 On ch=1 n=a#5 v=30
37376 On ch=1 n=f#6 v=44
37376 Off ch=1 n=g4 v=0
37376 On ch=1 n=c5 v=26
37395 Par ch=1 c=64 v=0
37416 Off ch=1 n=b5 v=0
37416 Off ch=1 n=e6 v=0
37493 Par ch=1 c=64 v=127
37547 Off ch=1 n=c5 v=0
37547 On ch=1 n=g4 v=26
37717 Off ch=1 n=g4 v=0
37717 On ch=1 n=c5 v=25
37888 Par ch=1 c=64 v=127
37888 Par ch=1 c=64 v=0
37888 Par ch=1 c=64 v=0
37888 Off ch=1 n=c5 v=0
37888 On ch=1 n=d6 v=34
37888 On ch=1 n=g6 v=48
37888 On ch=1 n=a#4 v=25
37927 Par ch=1 c=64 v=0
37928 Off ch=1 n=a#5 v=0
37928 Off ch=1 n=f#6 v=0
37967 Par ch=1 c=64 v=0
38011 Par ch=1 c=64 v=127
38059 Off ch=1 n=a#4 v=0
38059 On ch=1 n=e5 v=25
38229 Off ch=1 n=e5 v=0
38229 On ch=1 n=a#4 v=25
38335 Par ch=1 c=64 v=0
38400 On ch=1 n=c#6 v=29
38400 On ch=1 n=a6 v=43
38400 Off ch=1 n=a#4 v=0
38400 On ch=1 n=d#5 v=25
38478 Par ch=1 c=64 v=127
38480 Off ch=1 n=d6 v=0
38480 Off ch=1 n=g6 v=0
38571 Off ch=1 n=d#5 v=0
38571 On ch=1 n=a#4 v=24
38741 Off ch=1 n=a#4 v=0
38741 On ch=1 n=d#5 v=24
38860 Par ch=1 c=64 v=0
38912 On ch=1 n=c6 v=29
38912 On ch=1 n=f6 v=42
38912 Off ch=1 n=d#5 v=0
38912 On ch=1 n=g#4 v=24
38918 Par ch=1 c=64 v=0
38952 Off ch=1 n=c#6 v=0
38952 Off ch=1 n=a6 v=0
38977 Par ch=1 c=64 v=127
39083 Off ch=1 n=g#4 v=0
39083 On ch=1 n=d5 v=24
39106 Par ch=1 c=64 v=127
39253 Off ch=1 n=d5 v=0
39253 On ch=1 n=g#4 v=23
39424 On ch=1 n=b5 v=28
39424 On ch=1 n=g6 v=41
39424 Off ch=1 n=g#4 v=0
39424 On ch=1 n=c#5 v=23
39443 Par ch=1 c=64 v=0
39464 Off ch=1 n=c6 v=0
39464 Off ch=1 n=f6 v=0
39541 Par ch=1 c=64 v=127
39595 Off ch=1 n=c#5 v=0
39595 On ch=1 n=g#4 v=23
39765 Off ch=1 n=g#4 v=0
39765 On ch=1 n=c#5 v=23
39936 Par ch=1 c=64 v=127
39936 Par ch=1 c=64 v=0
39936 Par ch=1 c=64 v=0
39936 Off ch=1 n=c#5 v=0
39936 On ch=1 n=a#5 v=31
39936 On ch=1 n=d#6 v=44
39936 On ch=1 n=f#4 v=23
39975 Par ch=1 c=64 v=0
39976 Off ch=1 n=b5 v=0
39976 Off ch=1 n=g6 v=0
40015 Par ch=1 c=64 v=0
40059 Par ch=1 c=64 v=127
40107 Off ch=1 n=f#4 v=0
40107 On ch=1 n=c5 v=22
40277 Off ch=1 n=c5 v=0
40277 On ch=1 n=f#4 v=22
40383 Par ch=1 c=64 v=0
40448 On ch=1 n=a5 v=27
40448 On ch=1 n=f6 v=40
40448 Off ch=1 n=f#4 v=0
40448 On ch=1 n=b4 v=22
40526 Par ch=1 c=64 v=127
40528 Off ch=1 n=a#5 v=0
40528 Off ch=1 n=d#6 v=0
40619 Off ch=1 n=b4 v=0
40619 On ch=1 n=f#4 v=22
40789 Off ch=1 n=f#4 v=0
40789 On ch=1 n=b4 v=22
40908 Par ch=1 c=64 v=0
40960 On ch=1 n=g#5 v=26
40960 On ch=1 n=c#6 v=39
40960 Off ch=1 n=b4 v=0
40960 On ch=1 n=e4 v=21
40966 Par ch=1 c=64 v=0
41000 Off ch=1 n=a5 v=0
41000 Off ch=1 n=f6 v=0
41025 Par ch=1 c=64 v=127
41131 Off ch=1 n=e4 v=0
41131 On ch=1 n=a#4 v=21
41154 Par ch=1 c=64 v=127
41301 Off ch=1 n=a#4 v=0
41301 On ch=1 n=e4 v=21
41472 On ch=1 n=g5 v=26
41472 On ch=1 n=d#6 v=38
41472 Off ch=1 n=e4 v=0
41472 On ch=1 n=a4 v=21
41491 Par ch=1 c=64 v=0
41512 Off ch=1 n=g#5 v=0
41512 Off ch=1 n=c#6 v=0
41589 Par ch=1 c=64 v=127
41643 Off ch=1 n=a4 v=0
41643 On ch=1 n=e4 v=21
41813 Off ch=1 n=e4 v=0
41813 On ch=1 n=a4 v=20
41984 Par ch=1 c=64 v=127
41984 Par ch=1 c=64 v=0
41984 Par ch=1 c=64 v=0
41984 Off ch=1 n=a4 v=0
41984 On ch=1 n=f#5 v=26
41984 On ch=1 n=b5 v=37
41984 On ch=1 n=d4 v=20
42023 Par ch=1 c=64 v=0
42024 Off ch=1 n=g5 v=0
42024 Off ch=1 n=d#6 v=0
42063 Par ch=1 c=64 v=0
42107 Par ch=1 c=64 v=127
42155 Off ch=1 n=d4 v=0
42155 On ch=1 n=g#4 v=20
42325 Off ch=1 n=g#4 v=0
42325 On ch=1 n=d4 v=20
42431 Par ch=1 c=64 v=0
42496 On ch=1 n=f5 v=25
42496 On ch=1 n=c#6 v=37
42496 Off ch=1 n=d4 v=0
42496 On ch=1 n=g4 v=20
42574 Par ch=1 c=64 v=127
42576 Off ch=1 n=f#5 v=0
42576 Off ch=1 n=b5 v=0
42667 Off ch=1 n=g4 v=0
42667 On ch=1 n=d4 v=19
42837 Off ch=1 n=d4 v=0
42837 On ch=1 n=g4 v=19
42956 Par ch=1 c=64 v=0
43008 On ch=1 n=e5 v=24
43008 On ch=1 n=a5 v=36
43008 Off ch=1 n=g4 v=0
43008 On ch=1 n=c4 v=19
43014 Par ch=1 c=64 v=0
43048 Off ch=1 n=f5 v=0
43048 Off ch=1 n=c#6 v=0
43073 Par ch=1 c=64 v=127
43179 Off ch=1 n=c4 v=0
43179 On ch=1 n=f#4 v=19
43202 Par ch=1 c=64 v=127
43349 Off ch=1 n=f#4 v=0
43349 On ch=1 n=c4 v=19
43520 On ch=1 n=d#5 v=24
43520 On ch=1 n=b5 v=35
43520 Off ch=1 n=c4 v=0
43520 On ch=1 n=f4 v=18
43539 Par ch=1 c=64 v=0
43560 Off ch=1 n=e5 v=0
43560 Off ch=1 n=a5 v=0
43637 Par ch=1 c=64 v=127
43691 Off ch=1 n=f4 v=0
43691 On ch=1 n=c4 v=18
43861 Off ch=1 n=c4 v=0
43861 On ch=1 n=f4 v=18
44032 Par ch=1 c=64 v=127
44032 Par ch=1 c=64 v=0
44032 Par ch=1 c=64 v=0
44032 Off ch=1 n=f4 v=0
44032 On ch=1 n=d5 v=23
44032 On ch=1 n=g5 v=34
44032 On ch=1 n=a#3 v=18
44071 Par ch=1 c=64 v=0
44072 Off ch=1 n=d#5 v=0
44072 Off ch=1 n=b5 v=0
44111 Par ch=1 c=64 v=0
44155 Par ch=1 c=64 v=127
44203 Off ch=1 n=a#3 v=0
44203 On ch=1 n=e4 v=18
44373 Off ch=1 n=e4 v=0
44373 On ch=1 n=a#3 v=18
44479 Par ch=1 c=64 v=0
44544 On ch=1 n=c#5 v=23
44544 On ch=1 n=a5 v=33
44544 Off ch=1 n=a#3 v=0
44544 On ch=1 n=d#4 v=18
44622 Par ch=1 c=64 v=127
44624 Off ch=1 n=d5 v=0
44624 Off ch=1 n=g5 v=0
44715 Off ch=1 n=d#4 v=0
44715 On ch=1 n=a#3 v=18
44885 Off ch=1 n=a#3 v=0
44885 On ch=1 n=d#4 v=18
45004 Par ch=1 c=64 v=0
45056 On ch=1 n=c5 v=18
45056 On ch=1 n=f5 v=32
45056 Off ch=1 n=d#4 v=0
45056 On ch=1 n=g#3 v=18
45062 Par ch=1 c=64 v=0
45096 Off ch=1 n=c#5 v=0
45096 Off ch=1 n=a5 v=0
45121 Par ch=1 c=64 v=127
45227 Off ch=1 n=g#3 v=0
45227 On ch=1 n=d4 v=18
45250 Par ch=1 c=64 v=127
45397 Off ch=1 n=d4 v=0
45397 On ch=1 n=g#3 v=18
45568 On ch=1 n=b4 v=18
45568 On ch=1 n=g5 v=32
45568 Off ch=1 n=g#3 v=0
45568 On ch=1 n=c#4 v=18
45587 Par ch=1 c=64 v=0
45608 Off ch=1 n=c5 v=0
45608 Off ch=1 n=f5 v=0
45685 Par ch=1 c=64 v=127
45739 Off ch=1 n=c#4 v=0
45739 On ch=1 n=g#3 v=18
45909 Off ch=1 n=g#3 v=0
45909 On ch=1 n=c#4 v=18
46080 Par ch=1 c=64 v=0
46080 Par ch=1 c=64 v=0
46080 Off ch=1 n=c#4 v=0
46080 On ch=1 n=a#4 v=21
46080 On ch=1 n=d#5 v=30
46080 On ch=1 n=g3 v=18
46120 Off ch=1 n=b4 v=0
46120 Off ch=1 n=g5 v=0
46251 On ch=1 n=c4 v=18
46421 Off ch=1 n=g3 v=0
46421 On ch=1 n=g3 v=19
46592 On ch=1 n=g4 v=18
46592 On ch=1 n=c5 v=18
46592 On ch=1 n=f#5 v=30
46592 Off ch=1 n=g3 v=0
46592 Off ch=1 n=c4 v=0
46592 On ch=1 n=a3 v=19
46642 Off ch=1 n=a#4 v=0
46642 Off ch=1 n=d#5 v=0
46763 On ch=1 n=d#3 v=19
46933 Off ch=1 n=a3 v=0
46933 On ch=1 n=a3 v=20
47104 On ch=1 n=a#4 v=27
47104 On ch=1 n=d#5 v=39
47104 Off ch=1 n=d#3 v=0
47104 Off ch=1 n=a3 v=0
47104 On ch=1 n=g3 v=20
47154 Off ch=1 n=g4 v=0
47154 Off ch=1 n=c5 v=0
47154 Off ch=1 n=f#5 v=0
47275 On ch=1 n=c4 v=21
47445 Off ch=1 n=g3 v=0
47445 On ch=1 n=g3 v=21
47616 On ch=1 n=g4 v=23
47616 On ch=1 n=c5 v=23
47616 On ch=1 n=f#5 v=37
47616 Off ch=1 n=g3 v=0
47616 Off ch=1 n=c4 v=0
47616 On ch=1 n=a3 v=21
47666 Off ch=1 n=a#4 v=0
47666 Off ch=1 n=d#5 v=0
47787 On ch=1 n=d#3 v=22
47957 Off ch=1 n=a3 v=0
47957 On ch=1 n=a3 v=22
48128 Par ch=1 c=64 v=127
48128 Par ch=1 c=64 v=0
48128 Par ch=1 c=64 v=0
48128 Off ch=1 n=f#5 v=0
48128 Off ch=1 n=d#3 v=0
48128 Off ch=1 n=a3 v=0
48128 On ch=1 n=c#5 v=30
48128 On ch=1 n=f#5 v=44
48128 On ch=1 n=a#3 v=25
48167 Par ch=1 c=64 v=0
48178 Off ch=1 n=g4 v=0
48178 Off ch=1 n=c5 v=0
48207 Par ch=1 c=64 v=0
48251 Par ch=1 c=64 v=127
48299 Off ch=1 n=a#3 v=0
48299 On ch=1 n=d#4 v=26
48469 Off ch=1 n=d#4 v=0
48469 On ch=1 n=a#3 v=26
48575 Par ch=1 c=64 v=0
48640 On ch=1 n=a#4 v=31
48640 On ch=1 n=d#5 v=31
48640 On ch=1 n=a5 v=46
48640 Off ch=1 n=a#3 v=0
48640 On ch=1 n=c4 v=27
48690 Off ch=1 n=c#5 v=0
48690 Off ch=1 n=f#5 v=0
48718 Par ch=1 c=64 v=127
48811 Off ch=1 n=c4 v=0
48811 On ch=1 n=f#3 v=28
48981 Off ch=1 n=f#3 v=0
48981 On ch=1 n=c4 v=29
49100 Par ch=1 c=64 v=0
49152 On ch=1 n=e5 v=32
49152 On ch=1 n=a5 v=48
49152 Off ch=1 n=c4 v=0
49152 On ch=1 n=c#4 v=29
49158 Par ch=1 c=64 v=0
49202 Off ch=1 n=a#4 v=0
49202 Off ch=1 n=d#5 v=0
49202 Off ch=1 n=a5 v=0
49217 Par ch=1 c=64 v=127
49323 Off ch=1 n=c#4 v=0
49323 On ch=1 n=f#4 v=30
49346 Par ch=1 c=64 v=127
49493 Off ch=1 n=f#4 v=0
49493 On ch=1 n=c#4 v=31
49664 On ch=1 n=c#5 v=33
49664 On ch=1 n=f#5 v=34
49664 On ch=1 n=c6 v=49
49664 Off ch=1 n=c#4 v=0
49664 On ch=1 n=d#4 v=31
49683 Par ch=1 c=64 v=0
49714 Off ch=1 n=e5 v=0
49714 Off ch=1 n=a5 v=0
49781 Par ch=1 c=64 v=127
49835 Off ch=1 n=d#4 v=0
49835 On ch=1 n=a3 v=32
50005 Off ch=1 n=a3 v=0
50005 On ch=1 n=d#4 v=33
50176 Par ch=1 c=64 v=127
50176 Par ch=1 c=64 v=0
50176 Par ch=1 c=64 v=0
50176 Off ch=1 n=c6 v=0
50176 Off ch=1 n=d#4 v=0
50176 On ch=1 n=g5 v=34
50176 On ch=1 n=c6 v=51
50176 On ch=1 n=d#4 v=33
50215 Par ch=1 c=64 v=0
50226 Off ch=1 n=c#5 v=0
50226 Off ch=1 n=f#5 v=0
50255 Par ch=1 c=64 v=0
50299 Par ch=1 c=64 v=127
50347 Off ch=1 n=d#4 v=0
50347 On ch=1 n=a4 v=32
50517 Off ch=1 n=a4 v=0
50517 On ch=1 n=d#4 v=31
50623 Par ch=1 c=64 v=0
50688 On ch=1 n=f#5 v=31
50688 On ch=1 n=d6 v=46
50688 Off ch=1 n=d#4 v=0
50688 On ch=1 n=g#4 v=31
50738 Off ch=1 n=g5 v=0
50738 Off ch=1 n=c6 v=0
50766 Par ch=1 c=64 v=127
50859 On ch=1 n=d#4 v=30
51029 Off ch=1 n=d#4 v=0
51029 Off ch=1 n=g#4 v=0
51029 On ch=1 n=g#4 v=29
51148 Par ch=1 c=64 v=0
51200 On ch=1 n=f5 v=31
51200 On ch=1 n=a#5 v=46
51200 On ch=1 n=d4 v=29
51206 Par ch=1 c=64 v=0
51250 Off ch=1 n=f#5 v=0
51250 Off ch=1 n=d6 v=0
51265 Par ch=1 c=64 v=127
51371 Off ch=1 n=d4 v=0
51371 Off ch=1 n=g#4 v=0
51371 On ch=1 n=g4 v=28
51394 Par ch=1 c=64 v=127
51541 On ch=1 n=d4 v=27
51712 On ch=1 n=e5 v=31
51712 Off ch=1 n=d4 v=0
51712 Off ch=1 n=g4 v=0
51712 On ch=1 n=f#4 v=26
51731 Par ch=1 c=64 v=0
51762 Off ch=1 n=f5 v=0
51829 Par ch=1 c=64 v=127
51883 On ch=1 n=c#4 v=26
52053 Off ch=1 n=c#4 v=0
52053 Off ch=1 n=f#4 v=0
52053 On ch=1 n=f#4 v=25
52224 Par ch=1 c=64 v=127
52224 Par ch=1 c=64 v=0
52224 Par ch=1 c=64 v=0
52224 On ch=1 n=d#5 v=31
52224 On ch=1 n=c4 v=25
52263 Par ch=1 c=64 v=0
52274 Off ch=1 n=e5 v=0
52303 Par ch=1 c=64 v=0
52347 Par ch=1 c=64 v=127
52395 Off ch=1 n=c4 v=0
52395 Off ch=1 n=f#4 v=0
52395 On ch=1 n=f4 v=26
52565 On ch=1 n=c4 v=26
52671 Par ch=1 c=64 v=0
52736 Off ch=1 n=d#5 v=0
52736 Off ch=1 n=a#5 v=0
52736 On ch=1 n=d5 v=26
52736 On ch=1 n=g5 v=38
52736 Off ch=1 n=c4 v=0
52736 Off ch=1 n=f4 v=0
52736 On ch=1 n=e4 v=26
52814 Par ch=1 c=64 v=127
52907 On ch=1 n=b3 v=27
53077 Off ch=1 n=b3 v=0
53077 Off ch=1 n=e4 v=0
53077 On ch=1 n=e4 v=27
53196 Par ch=1 c=64 v=0
53248 Off ch=1 n=d5 v=0
53248 Off ch=1 n=g5 v=0
53248 On ch=1 n=d5 v=30
53248 On ch=1 n=g5 v=44
53248 On ch=1 n=a#3 v=28
53254 Par ch=1 c=64 v=0
53313 Par ch=1 c=64 v=127
53419 Off ch=1 n=a#3 v=0
53419 Off ch=1 n=e4 v=0
53419 On ch=1 n=e4 v=28
53442 Par ch=1 c=64 v=127
53589 On ch=1 n=a#3 v=29
53760 Off ch=1 n=d5 v=0
53760 Off ch=1 n=g5 v=0
53760 On ch=1 n=c#5 v=33
53760 On ch=1 n=a5 v=50
53760 Off ch=1 n=a#3 v=0
53760 Off ch=1 n=e4 v=0
53760 On ch=1 n=d#4 v=29
53779 Par ch=1 c=64 v=0
53877 Par ch=1 c=64 v=127
53931 On ch=1 n=a#3 v=30
54101 Off ch=1 n=a#3 v=0
54101 Off ch=1 n=d#4 v=0
54101 On ch=1 n=d#4 v=30
54272 Par ch=1 c=64 v=127
54272 Par ch=1 c=64 v=0
54272 Par ch=1 c=64 v=0
54272 Off ch=1 n=c#5 v=0
54272 Off ch=1 n=a5 v=0
54272 Off ch=1 n=d#4 v=0
54272 On ch=1 n=f5 v=34
54272 On ch=1 n=a#5 v=51
54272 On ch=1 n=c#4 v=30
54311 Par ch=1 c=64 v=0
54351 Par ch=1 c=64 v=0
54395 Par ch=1 c=64 v=127
54443 Off ch=1 n=c#4 v=0
54443 On ch=1 n=g4 v=29
54613 On ch=1 n=c#4 v=29
54719 Par ch=1 c=64 v=0
54784 Off ch=1 n=f5 v=0
54784 Off ch=1 n=a#5 v=0
54784 On ch=1 n=e5 v=31
54784 On ch=1 n=c6 v=46
54784 Off ch=1 n=c#4 v=0
54784 Off ch=1 n=g4 v=0
54784 On ch=1 n=f#4 v=28
54862 Par ch=1 c=64 v=127
54955 On ch=1 n=c#4 v=27
55125 Off ch=1 n=c#4 v=0
55125 Off ch=1 n=f#4 v=0
55125 On ch=1 n=f#4 v=27
55244 Par ch=1 c=64 v=0
55296 Off ch=1 n=e5 v=0
55296 Off ch=1 n=c6 v=0
55296 On ch=1 n=d#5 v=31
55296 On ch=1 n=g#5 v=46
55296 On ch=1 n=c4 v=26
55302 Par ch=1 c=64 v=0
55361 Par ch=1 c=64 v=127
55467 Off ch=1 n=c4 v=0
55467 Off ch=1 n=f#4 v=0
55467 On ch=1 n=f4 v=25
55490 Par ch=1 c=64 v=127
55637 On ch=1 n=c4 v=25
55808 Off ch=1 n=d#5 v=0
55808 On ch=1 n=d5 v=31
55808 Off ch=1 n=c4 v=0
55808 Off ch=1 n=f4 v=0
55808 On ch=1 n=e4 v=24
55827 Par ch=1 c=64 v=0
55925 Par ch=1 c=64 v=127
55979 On ch=1 n=b3 v=23
56149 Off ch=1 n=b3 v=0
56149 Off ch=1 n=e4 v=0
56149 On ch=1 n=e4 v=23
56320 Par ch=1 c=64 v=127
56320 Par ch=1 c=64 v=0
56320 Par ch=1 c=64 v=0
56320 Off ch=1 n=d5 v=0
56320 Off ch=1 n=e4 v=0
56320 On ch=1 n=c#5 v=30
56320 On ch=1 n=a#3 v=22
56359 Par ch=1 c=64 v=0
56399 Par ch=1 c=64 v=0
56443 Par ch=1 c=64 v=127
56491 Off ch=1 n=a#3 v=0
56491 On ch=1 n=d#4 v=22
56661 Off ch=1 n=d#4 v=0
56661 On ch=1 n=a#3 v=22
56767 Par ch=1 c=64 v=0
56832 On ch=1 n=c5 v=30
56832 On ch=1 n=f5 v=44
56832 Off ch=1 n=a#3 v=0
56832 On ch=1 n=d4 v=22
56872 Off ch=1 n=c#5 v=0
56872 Off ch=1 n=g#5 v=0
56910 Par ch=1 c=64 v=127
57003 Off ch=1 n=d4 v=0
57003 On ch=1 n=a3 v=22
57173 Off ch=1 n=a3 v=0
57173 On ch=1 n=d4 v=22
57292 Par ch=1 c=64 v=0
57344 Off ch=1 n=c5 v=0
57344 Off ch=1 n=f5 v=0
57344 On ch=1 n=c5 v=30
57344 On ch=1 n=f5 v=44
57344 Off ch=1 n=d4 v=0
57344 On ch=1 n=g#3 v=22
57350 Par ch=1 c=64 v=0
57409 Par ch=1 c=64 v=127
57515 Off ch=1 n=g#3 v=0
57515 On ch=1 n=d4 v=22
57538 Par ch=1 c=64 v=127
57685 Off ch=1 n=d4 v=0
57685 On ch=1 n=g#3 v=22
57856 On ch=1 n=b4 v=23
57856 On ch=1 n=g5 v=37
57856 Off ch=1 n=g#3 v=0
57856 On ch=1 n=c#4 v=22
57875 Par ch=1 c=64 v=0
57896 Off ch=1 n=c5 v=0
57896 Off ch=1 n=f5 v=0
57973 Par ch=1 c=64 v=127
58027 Off ch=1 n=c#4 v=0
58027 On ch=1 n=g#3 v=22
58197 Off ch=1 n=g#3 v=0
58197 On ch=1 n=c#4 v=22
58368 Par ch=1 c=64 v=127
58368 Par ch=1 c=64 v=0
58368 Par ch=1 c=64 v=0
58368 Off ch=1 n=c#4 v=0
58368 On ch=1 n=f5 v=34
58368 On ch=1 n=a#5 v=51
58368 On ch=1 n=c#4 v=30
58407 Par ch=1 c=64 v=0
58408 Off ch=1 n=b4 v=0
58408 Off ch=1 n=g5 v=0
58447 Par ch=1 c=64 v=0
58491 Par ch=1 c=64 v=127
58539 Off ch=1 n=c#4 v=0
58539 On ch=1 n=g4 v=29
58709 On ch=1 n=c#4 v=29
58815 Par ch=1 c=64 v=0
58880 Off ch=1 n=f5 v=0
58880 Off ch=1 n=a#5 v=0
58880 On ch=1 n=e5 v=31
58880 On ch=1 n=c6 v=46
58880 Off ch=1 n=c#4 v=0
58880 Off ch=1 n=g4 v=0
58880 On ch=1 n=f#4 v=28
58958 Par ch=1 c=64 v=127
59051 On ch=1 n=c#4 v=27
59221 Off ch=1 n=c#4 v=0
59221 Off ch=1 n=f#4 v=0
59221 On ch=1 n=f#4 v=27
59340 Par ch=1 c=64 v=0
59392 Off ch=1 n=e5 v=0
59392 Off ch=1 n=c6 v=0
59392 On ch=1 n=d#5 v=31
59392 On ch=1 n=g#5 v=46
59392 On ch=1 n=c4 v=26
59398 Par ch=1 c=64 v=0
59457 Par ch=1 c=64 v=127
59563 Off ch=1 n=c4 v=0
59563 Off ch=1 n=f#4 v=0
59563 On ch=1 n=f4 v=25
59586 Par ch=1 c=64 v=127
59733 On ch=1 n=c4 v=25
59904 Off ch=1 n=d#5 v=0
59904 On ch=1 n=d5 v=28
59904 Off ch=1 n=c4 v=0
59904 Off ch=1 n=f4 v=0
59904 On ch=1 n=e4 v=24
59923 Par ch=1 c=64 v=0
60021 Par ch=1 c=64 v=127
60075 On ch=1 n=b3 v=23
60245 Off ch=1 n=b3 v=0
60245 Off ch=1 n=e4 v=0
60245 On ch=1 n=e4 v=23
60416 Par ch=1 c=64 v=127
60416 Par ch=1 c=64 v=0
60416 Par ch=1 c=64 v=0
60416 Off ch=1 n=d5 v=0
60416 Off ch=1 n=e4 v=0
60416 On ch=1 n=c#5 v=23
60416 On ch=1 n=a#3 v=18
60455 Par ch=1 c=64 v=0
60495 Par ch=1 c=64 v=0
60539 Par ch=1 c=64 v=127
60587 Off ch=1 n=a#3 v=0
60587 On ch=1 n=d#4 v=18
60757 Off ch=1 n=d#4 v=0
60757 On ch=1 n=a#3 v=18
60863 Par ch=1 c=64 v=0
60928 On ch=1 n=c5 v=20
60928 On ch=1 n=f5 v=34
60928 Off ch=1 n=a#3 v=0
60928 On ch=1 n=d4 v=17
60988 Off ch=1 n=c#5 v=0
60988 Off ch=1 n=g#5 v=0
61006 Par ch=1 c=64 v=127
61099 Off ch=1 n=d4 v=0
61099 On ch=1 n=a3 v=17
61269 Off ch=1 n=a3 v=0
61269 On ch=1 n=d4 v=17
61388 Par ch=1 c=64 v=0
61440 Off ch=1 n=c5 v=0
61440 Off ch=1 n=f5 v=0
61440 On ch=1 n=c5 v=20
61440 On ch=1 n=f5 v=34
61440 Off ch=1 n=d4 v=0
61440 On ch=1 n=g#3 v=17
61446 Par ch=1 c=64 v=0
61505 Par ch=1 c=64 v=127
61611 Off ch=1 n=g#3 v=0
61611 On ch=1 n=d4 v=17
61634 Par ch=1 c=64 v=127
61781 Off ch=1 n=d4 v=0
61781 On ch=1 n=g#3 v=17
61952 Off ch=1 n=c5 v=0
61952 Off ch=1 n=f5 v=0
61952 On ch=1 n=b4 v=16
61952 On ch=1 n=g5 v=30
61952 Off ch=1 n=g#3 v=0
61952 On ch=1 n=c#4 v=16
61971 Par ch=1 c=64 v=0
62069 Par ch=1 c=64 v=127
62123 Off ch=1 n=c#4 v=0
62123 On ch=1 n=g#3 v=16
62293 Off ch=1 n=g#3 v=0
62293 On ch=1 n=c#4 v=16
62464 Par ch=1 c=64 v=0
62464 Par ch=1 c=64 v=0
62464 Off ch=1 n=c#4 v=0
62464 On ch=1 n=c5 v=14
62464 On ch=1 n=f5 v=28
62464 On ch=1 n=g#3 v=16
62524 Off ch=1 n=b4 v=0
62524 Off ch=1 n=g5 v=0
62635 Off ch=1 n=g#3 v=0
62635 On ch=1 n=d4 v=16
62805 Off ch=1 n=d4 v=0
62805 On ch=1 n=g#3 v=16
62976 On ch=1 n=b4 v=11
62976 On ch=1 n=g5 v=25
62976 Off ch=1 n=g#3 v=0
62976 On ch=1 n=c#4 v=15
63036 Off ch=1 n=c5 v=0
63036 Off ch=1 n=f5 v=0
63147 Off ch=1 n=c#4 v=0
63147 On ch=1 n=g#3 v=15
63317 Off ch=1 n=g#3 v=0
63317 On ch=1 n=c#4 v=15
63488 On ch=1 n=c5 v=14
63488 On ch=1 n=f5 v=28
63488 Off ch=1 n=c#4 v=0
63488 On ch=1 n=g#3 v=15
63548 Off ch=1 n=b4 v=0
63548 Off ch=1 n=g5 v=0
63659 Off ch=1 n=g#3 v=0
63659 On ch=1 n=d4 v=15
63829 Off ch=1 n=d4 v=0
63829 On ch=1 n=g#3 v=15
64000 On ch=1 n=b4 v=11
64000 On ch=1 n=g5 v=25
64000 Off ch=1 n=g#3 v=0
64000 On ch=1 n=c#4 v=14
64060 Off ch=1 n=c5 v=0
64060 Off ch=1 n=f5 v=0
64171 Off ch=1 n=c#4 v=0
64171 On ch=1 n=g#3 v=14
64341 Off ch=1 n=g#3 v=0
64341 On ch=1 n=c#4 v=14
64512 Par ch=1 c=64 v=0
64512 Par ch=1 c=64 v=0
64512 Off ch=1 n=c#4 v=0
64512 On ch=1 n=c5 v=16
64512 On ch=1 n=f5 v=27
64512 On ch=1 n=g#3 v=14
64572 Off ch=1 n=b4 v=0
64572 Off ch=1 n=g5 v=0
64683 Off ch=1 n=g#3 v=0
64683 On ch=1 n=d4 v=15
64853 Off ch=1 n=d4 v=0
64853 On ch=1 n=g#3 v=16
65024 On ch=1 n=b4 v=13
65024 On ch=1 n=g5 v=25
65024 Off ch=1 n=g#3 v=0
65024 On ch=1 n=c#4 v=18
65064 Off ch=1 n=c5 v=0
65064 Off ch=1 n=f5 v=0
65195 Off ch=1 n=c#4 v=0
65195 On ch=1 n=g#3 v=19
65365 Off ch=1 n=g#3 v=0
65365 On ch=1 n=c#4 v=20
65536 On ch=1 n=a#4 v=23
65536 On ch=1 n=d#5 v=33
65536 Off ch=1 n=c#4 v=0
65536 On ch=1 n=g3 v=21
65576 Off ch=1 n=b4 v=0
65576 Off ch=1 n=g5 v=0
65707 On ch=1 n=c4 v=22
65877 Off ch=1 n=g3 v=0
65877 On ch=1 n=g3 v=23
66048 On ch=1 n=g4 v=26
66048 On ch=1 n=c5 v=26
66048 On ch=1 n=f#5 v=38
66048 Off ch=1 n=g3 v=0
66048 Off ch=1 n=c4 v=0
66048 On ch=1 n=a3 v=25
66098 Off ch=1 n=a#4 v=0
66098 Off ch=1 n=d#5 v=0
66219 On ch=1 n=d#3 v=26
66389 Off ch=1 n=a3 v=0
66389 On ch=1 n=a3 v=27
66560 Par ch=1 c=64 v=0
66560 Par ch=1 c=64 v=0
66560 Off ch=1 n=d#3 v=0
66560 Off ch=1 n=a3 v=0
66560 On ch=1 n=a#4 v=32
66560 On ch=1 n=d#5 v=32
66560 On ch=1 n=a5 v=46
66560 On ch=1 n=c3 v=20
66560 On ch=1 n=f#3 v=30
66610 Off ch=1 n=g4 v=0
66610 Off ch=1 n=c5 v=0
66610 Off ch=1 n=f#5 v=0
68608 Par ch=1 c=64 v=0
68608 Par ch=1 c=64 v=0
69632 On ch=1 n=f#5 v=28
69672 Off ch=1 n=a5 v=0
70656 Par ch=1 c=64 v=0
70656 Par ch=1 c=64 v=0
70656 Off ch=1 n=c3 v=0
70656 On ch=1 n=c3 v=16
70784 Off ch=1 n=f#3 v=0
70784 On ch=1 n=f#3 v=16
70912 Off ch=1 n=a#4 v=0
70912 Off ch=1 n=d#5 v=0
70912 Off ch=1 n=f#5 v=0
70912 On ch=1 n=a#4 v=15
70912 On ch=1 n=e5 v=15
70912 On ch=1 n=a#5 v=31
70912 On ch=1 n=e4 v=17
72704 Par ch=1 c=64 v=0
72704 Par ch=1 c=64 v=0
72704 Off ch=1 n=a#4 v=0
72704 Off ch=1 n=e5 v=0
72704 Off ch=1 n=a#5 v=0
72704 Off ch=1 n=c3 v=0
72704 Off ch=1 n=f#3 v=0
72704 Off ch=1 n=e4 v=0
74753 Meta TrkEnd
TrkEnd
