MFile 1 2 1024
MTrk
0 TimeSig 1/4 24 8
0 KeySig 0 minor
0 Tempo 800000
1024 TimeSig 5/8 12 8
1024 Tempo 1250000
1536 Tempo 1200000
2048 Tempo 1090909
3584 Tempo 1363636
4096 Tempo 1200000
4608 Tempo 1090909
8192 Tempo 1250000
8704 Tempo 1363636
9216 Tempo 1200000
9728 Tempo 1090909
11264 Tempo 1250000
11776 Tempo 1090909
13824 Tempo 1250000
14336 Tempo 1200000
15360 Tempo 1250000
15872 Tempo 1363636
16384 Tempo 1250000
16896 Tempo 1200000
17408 Tempo 1090909
18944 Tempo 1363636
19456 Tempo 1200000
19968 Tempo 1090909
23552 Tempo 1250000
24064 Tempo 1363636
24576 Tempo 1200000
25088 Tempo 1090909
26624 Tempo 1250000
27136 Tempo 1090909
29184 Tempo 1250000
29696 Tempo 1200000
30208 Tempo 1250000
30720 Tempo 1363636
31232 Tempo 1714285
31744 Tempo 1090909
34816 Tempo 1034482
35840 Tempo 1250000
36352 Tempo 1363636
36864 Tempo 1714285
37376 Tempo 1363636
37888 Tempo 1250000
38400 Tempo 1090909
38912 Tempo 1250000
39424 Tempo 1500000
39936 Tempo 1090909
40960 Tempo 1250000
41472 Tempo 1363636
41984 Tempo 1090909
46080 Tempo 1250000
46592 Tempo 1363636
47104 Tempo 1714285
47616 Tempo 1363636
48128 Tempo 1250000
48640 Tempo 1090909
49152 Tempo 1250000
49664 Tempo 1500000
50176 Tempo 1090909
52224 Tempo 1363636
52736 Tempo 1090909
54784 Tempo 1500000
55296 Tempo 1090909
57344 Tempo 1363636
57856 Tempo 1090909
59904 Tempo 1250000
60416 Tempo 1090909
65024 Tempo 1363636
65536 Tempo 1090909
66560 Tempo 1363636
67072 Tempo 1500000
67584 Tempo 1250000
68096 Tempo 1200000
68608 Tempo 1090909
70144 Tempo 1363636
70656 Tempo 1200000
71168 Tempo 1090909
74752 Tempo 1250000
75264 Tempo 1363636
75776 Tempo 1200000
76288 Tempo 1090909
77824 Tempo 1250000
78336 Tempo 1090909
80384 Tempo 1000000
80896 Tempo 909090
81408 Tempo 857142
81920 Tempo 779220
82432 Tempo 750000
82944 Tempo 705882
83456 Tempo 666666
83968 Tempo 600000
84480 Tempo 545454
84992 Tempo 500000
85504 Tempo 666666
86016 Tempo 779220
86528 Tempo 1034482
87040 Tempo 1500000
87552 Tempo 2000000
88192 Tempo 1034482
88320 Tempo 1000000
88448 Tempo 857142
88576 Tempo 705882
88704 Tempo 909090
88832 Tempo 1090909
88960 Tempo 1714285
89088 Tempo 4000000
90624 Tempo 270270
94956 Meta TrkEnd
TrkEnd
MTrk
0 Meta TrkName "Instrument  1"
0 PrCh ch=1 p=1
0 Par ch=1 c=64 v=0
0 Par ch=1 c=64 v=0
1024 Par ch=1 c=64 v=127
1024 Par ch=1 c=64 v=0
1024 On ch=1 n=g#5 v=28
1024 On ch=1 n=c3 v=20
1024 On ch=1 n=f#3 v=20
1024 On ch=1 n=e4 v=20
1024 On ch=1 n=a#4 v=20
1142 Par ch=1 c=64 v=0
1339 Par ch=1 c=64 v=127
1536 On ch=1 n=d#5 v=26
1626 Off ch=1 n=g#5 v=0
2048 On ch=1 n=e5 v=32
2138 Off ch=1 n=d#5 v=0
2560 On ch=1 n=g5 v=37
2560 Off ch=1 n=c3 v=0
2560 Off ch=1 n=f#3 v=0
2560 Off ch=1 n=e4 v=0
2560 Off ch=1 n=a#4 v=0
2560 On ch=1 n=d#3 v=20
2560 On ch=1 n=a3 v=20
2560 On ch=1 n=e4 v=20
2560 On ch=1 n=a#4 v=20
2560 On ch=1 n=c#5 v=20
2580 Par ch=1 c=64 v=0
2650 Off ch=1 n=e5 v=0
2796 Par ch=1 c=64 v=127
3072 On ch=1 n=f#5 v=28
3162 Off ch=1 n=g5 v=0
3584 Par ch=1 c=64 v=127
3584 Par ch=1 c=64 v=0
3584 Par ch=1 c=64 v=0
3584 Off ch=1 n=d#3 v=0
3584 Off ch=1 n=a3 v=0
3584 Off ch=1 n=e4 v=0
3584 Off ch=1 n=a#4 v=0
3584 Off ch=1 n=c#5 v=0
3584 On ch=1 n=g#5 v=28
3584 On ch=1 n=c3 v=20
3584 On ch=1 n=f#3 v=20
3584 On ch=1 n=e4 v=20
3584 On ch=1 n=a#4 v=20
3674 Off ch=1 n=f#5 v=0
3702 Par ch=1 c=64 v=0
3899 Par ch=1 c=64 v=127
4096 On ch=1 n=d#5 v=26
4186 Off ch=1 n=g#5 v=0
4608 On ch=1 n=e5 v=32
4698 Off ch=1 n=d#5 v=0
5120 On ch=1 n=g5 v=37
5120 Off ch=1 n=c3 v=0
5120 Off ch=1 n=f#3 v=0
5120 Off ch=1 n=e4 v=0
5120 Off ch=1 n=a#4 v=0
5120 On ch=1 n=d#3 v=20
5120 On ch=1 n=a3 v=20
5120 On ch=1 n=e4 v=20
5120 On ch=1 n=a#4 v=20
5120 On ch=1 n=c#5 v=20
5140 Par ch=1 c=64 v=0
5210 Off ch=1 n=e5 v=0
5356 Par ch=1 c=64 v=127
5632 On ch=1 n=f#5 v=28
5722 Off ch=1 n=g5 v=0
6144 Par ch=1 c=64 v=127
6144 Par ch=1 c=64 v=0
6144 Par ch=1 c=64 v=0
6144 Off ch=1 n=d#3 v=0
6144 Off ch=1 n=a3 v=0
6144 Off ch=1 n=e4 v=0
6144 Off ch=1 n=a#4 v=0
6144 Off ch=1 n=c#5 v=0
6144 On ch=1 n=g#5 v=28
6144 On ch=1 n=c3 v=20
6144 On ch=1 n=f#3 v=20
6144 On ch=1 n=e4 v=20
6144 On ch=1 n=a#4 v=20
6234 Off ch=1 n=f#5 v=0
6262 Par ch=1 c=64 v=0
6459 Par ch=1 c=64 v=127
6656 On ch=1 n=f#5 v=26
6746 Off ch=1 n=g#5 v=0
7168 On ch=1 n=g5 v=32
7258 Off ch=1 n=f#5 v=0
7680 On ch=1 n=a#5 v=37
7680 Off ch=1 n=c3 v=0
7680 Off ch=1 n=f#3 v=0
7680 Off ch=1 n=e4 v=0
7680 Off ch=1 n=a#4 v=0
7680 On ch=1 n=f#3 v=20
7680 On ch=1 n=c4 v=20
7680 On ch=1 n=g4 v=20
7680 On ch=1 n=c#5 v=20
7680 On ch=1 n=e5 v=20
7700 Par ch=1 c=64 v=0
7770 Off ch=1 n=g5 v=0
7916 Par ch=1 c=64 v=127
8192 On ch=1 n=a5 v=33
8282 Off ch=1 n=a#5 v=0
8704 Par ch=1 c=64 v=127
8704 Par ch=1 c=64 v=127
8704 On ch=1 n=c#6 v=42
8794 Off ch=1 n=a5 v=0
9216 On ch=1 n=c6 v=35
9306 Off ch=1 n=c#6 v=0
9728 On ch=1 n=a5 v=29
9818 Off ch=1 n=c6 v=0
10240 On ch=1 n=g5 v=25
10330 Off ch=1 n=a5 v=0
10752 On ch=1 n=e5 v=20
10842 Off ch=1 n=g5 v=0
11264 Par ch=1 c=64 v=127
11264 Par ch=1 c=64 v=0
11264 Par ch=1 c=64 v=0
11264 Off ch=1 n=f#3 v=0
11264 Off ch=1 n=c4 v=0
11264 Off ch=1 n=g4 v=0
11264 Off ch=1 n=c#5 v=0
11264 Off ch=1 n=e5 v=0
11264 On ch=1 n=g#5 v=33
11264 On ch=1 n=c3 v=20
11264 On ch=1 n=f#3 v=20
11264 On ch=1 n=e4 v=20
11264 On ch=1 n=a#4 v=20
11354 Off ch=1 n=e5 v=0
11382 Par ch=1 c=64 v=0
11579 Par ch=1 c=64 v=127
11776 On ch=1 n=f#5 v=28
11866 Off ch=1 n=g#5 v=0
12288 On ch=1 n=g5 v=32
12378 Off ch=1 n=f#5 v=0
12800 On ch=1 n=a#5 v=36
12800 Off ch=1 n=c3 v=0
12800 Off ch=1 n=f#3 v=0
12800 Off ch=1 n=e4 v=0
12800 Off ch=1 n=a#4 v=0
12800 On ch=1 n=f#3 v=20
12800 On ch=1 n=c4 v=20
12800 On ch=1 n=g4 v=20
12800 On ch=1 n=c#5 v=20
12800 On ch=1 n=e5 v=20
12820 Par ch=1 c=64 v=0
12890 Off ch=1 n=g5 v=0
13036 Par ch=1 c=64 v=127
13312 On ch=1 n=a5 v=40
13402 Off ch=1 n=a#5 v=0
13824 Par ch=1 c=64 v=127
13824 Par ch=1 c=64 v=127
13824 On ch=1 n=c#6 v=40
13914 Off ch=1 n=a5 v=0
14336 On ch=1 n=f#5 v=37
14426 Off ch=1 n=c#6 v=0
14848 On ch=1 n=g5 v=35
14938 Off ch=1 n=f#5 v=0
15360 On ch=1 n=a#5 v=32
15450 Off ch=1 n=g5 v=0
15872 On ch=1 n=a5 v=30
15962 Off ch=1 n=a#5 v=0
16384 Par ch=1 c=64 v=127
16384 Par ch=1 c=64 v=127
16384 Par ch=1 c=64 v=0
16384 Par ch=1 c=64 v=0
16384 Par ch=1 c=64 v=0
16384 Off ch=1 n=f#3 v=0
16384 Off ch=1 n=c4 v=0
16384 Off ch=1 n=g4 v=0
16384 Off ch=1 n=c#5 v=0
16384 Off ch=1 n=e5 v=0
16384 On ch=1 n=g#5 v=28
16384 On ch=1 n=c3 v=20
16384 On ch=1 n=f#3 v=20
16384 On ch=1 n=e4 v=20
16384 On ch=1 n=a#4 v=20
16474 Off ch=1 n=a5 v=0
16502 Par ch=1 c=64 v=0
16502 Par ch=1 c=64 v=0
16699 Par ch=1 c=64 v=127
16699 Par ch=1 c=64 v=127
16896 On ch=1 n=d#5 v=26
16986 Off ch=1 n=g#5 v=0
17408 On ch=1 n=e5 v=32
17498 Off ch=1 n=d#5 v=0
17920 On ch=1 n=g5 v=37
17920 Off ch=1 n=c3 v=0
17920 Off ch=1 n=f#3 v=0
17920 Off ch=1 n=e4 v=0
17920 Off ch=1 n=a#4 v=0
17920 On ch=1 n=d#3 v=20
17920 On ch=1 n=a3 v=20
17920 On ch=1 n=e4 v=20
17920 On ch=1 n=a#4 v=20
17920 On ch=1 n=c#5 v=20
17940 Par ch=1 c=64 v=0
17940 Par ch=1 c=64 v=0
18010 Off ch=1 n=e5 v=0
18156 Par ch=1 c=64 v=127
18156 Par ch=1 c=64 v=127
18432 On ch=1 n=f#5 v=28
18522 Off ch=1 n=g5 v=0
18944 Par ch=1 c=64 v=127
18944 Par ch=1 c=64 v=0
18944 Par ch=1 c=64 v=127
18944 Par ch=1 c=64 v=0
18944 Par ch=1 c=64 v=0
18944 Par ch=1 c=64 v=0
18944 Off ch=1 n=d#3 v=0
18944 Off ch=1 n=a3 v=0
18944 Off ch=1 n=e4 v=0
18944 Off ch=1 n=a#4 v=0
18944 Off ch=1 n=c#5 v=0
18944 On ch=1 n=g#5 v=28
18944 On ch=1 n=c3 v=20
18944 On ch=1 n=f#3 v=20
18944 On ch=1 n=e4 v=20
18944 On ch=1 n=a#4 v=20
19034 Off ch=1 n=f#5 v=0
19062 Par ch=1 c=64 v=0
19062 Par ch=1 c=64 v=0
19259 Par ch=1 c=64 v=127
19259 Par ch=1 c=64 v=127
19456 On ch=1 n=d#5 v=26
19546 Off ch=1 n=g#5 v=0
19968 On ch=1 n=e5 v=32
20058 Off ch=1 n=d#5 v=0
20480 On ch=1 n=g5 v=37
20480 Off ch=1 n=c3 v=0
20480 Off ch=1 n=f#3 v=0
20480 Off ch=1 n=e4 v=0
20480 Off ch=1 n=a#4 v=0
20480 On ch=1 n=d#3 v=20
20480 On ch=1 n=a3 v=20
20480 On ch=1 n=e4 v=20
20480 On ch=1 n=a#4 v=20
20480 On ch=1 n=c#5 v=20
20500 Par ch=1 c=64 v=0
20500 Par ch=1 c=64 v=0
20570 Off ch=1 n=e5 v=0
20716 Par ch=1 c=64 v=127
20716 Par ch=1 c=64 v=127
20992 On ch=1 n=f#5 v=28
21082 Off ch=1 n=g5 v=0
21504 Par ch=1 c=64 v=127
21504 Par ch=1 c=64 v=0
21504 Par ch=1 c=64 v=127
21504 Par ch=1 c=64 v=0
21504 Par ch=1 c=64 v=0
21504 Par ch=1 c=64 v=0
21504 Off ch=1 n=d#3 v=0
21504 Off ch=1 n=a3 v=0
21504 Off ch=1 n=e4 v=0
21504 Off ch=1 n=a#4 v=0
21504 Off ch=1 n=c#5 v=0
21504 On ch=1 n=g#5 v=28
21504 On ch=1 n=c3 v=20
21504 On ch=1 n=f#3 v=20
21504 On ch=1 n=e4 v=20
21504 On ch=1 n=a#4 v=20
21594 Off ch=1 n=f#5 v=0
21622 Par ch=1 c=64 v=0
21622 Par ch=1 c=64 v=0
21819 Par ch=1 c=64 v=127
21819 Par ch=1 c=64 v=127
22016 On ch=1 n=f#5 v=26
22106 Off ch=1 n=g#5 v=0
22528 On ch=1 n=g5 v=32
22618 Off ch=1 n=f#5 v=0
23040 On ch=1 n=a#5 v=37
23040 Off ch=1 n=c3 v=0
23040 Off ch=1 n=f#3 v=0
23040 Off ch=1 n=e4 v=0
23040 Off ch=1 n=a#4 v=0
23040 On ch=1 n=f#3 v=20
23040 On ch=1 n=c4 v=20
23040 On ch=1 n=g4 v=20
23040 On ch=1 n=c#5 v=20
23040 On ch=1 n=e5 v=20
23060 Par ch=1 c=64 v=0
23060 Par ch=1 c=64 v=0
23130 Off ch=1 n=g5 v=0
23276 Par ch=1 c=64 v=127
23276 Par ch=1 c=64 v=127
23552 On ch=1 n=a5 v=33
23642 Off ch=1 n=a#5 v=0
24064 Par ch=1 c=64 v=127
24064 Par ch=1 c=64 v=0
24064 Par ch=1 c=64 v=127
24064 Par ch=1 c=64 v=0
24064 Par ch=1 c=64 v=0
24064 Par ch=1 c=64 v=0
24064 On ch=1 n=c#6 v=42
24091 Par ch=1 c=64 v=127
24154 Off ch=1 n=a5 v=0
24576 On ch=1 n=c6 v=35
24666 Off ch=1 n=c#6 v=0
25088 On ch=1 n=a5 v=29
25178 Off ch=1 n=c6 v=0
25600 On ch=1 n=g5 v=25
25690 Off ch=1 n=a5 v=0
26112 On ch=1 n=e5 v=20
26202 Off ch=1 n=g5 v=0
26624 Par ch=1 c=64 v=127
26624 Par ch=1 c=64 v=0
26624 Par ch=1 c=64 v=127
26624 Par ch=1 c=64 v=0
26624 Par ch=1 c=64 v=0
26624 Par ch=1 c=64 v=0
26624 Off ch=1 n=f#3 v=0
26624 Off ch=1 n=c4 v=0
26624 Off ch=1 n=g4 v=0
26624 Off ch=1 n=c#5 v=0
26624 Off ch=1 n=e5 v=0
26624 On ch=1 n=g#5 v=33
26624 On ch=1 n=c3 v=20
26624 On ch=1 n=f#3 v=20
26624 On ch=1 n=e4 v=20
26624 On ch=1 n=a#4 v=20
26714 Off ch=1 n=e5 v=0
26742 Par ch=1 c=64 v=0
26742 Par ch=1 c=64 v=0
26939 Par ch=1 c=64 v=127
26939 Par ch=1 c=64 v=127
27136 On ch=1 n=f#5 v=28
27226 Off ch=1 n=g#5 v=0
27648 On ch=1 n=g5 v=32
27738 Off ch=1 n=f#5 v=0
28160 On ch=1 n=a#5 v=36
28160 Off ch=1 n=c3 v=0
28160 Off ch=1 n=f#3 v=0
28160 Off ch=1 n=e4 v=0
28160 Off ch=1 n=a#4 v=0
28160 On ch=1 n=f#3 v=20
28160 On ch=1 n=c4 v=20
28160 On ch=1 n=g4 v=20
28160 On ch=1 n=c#5 v=20
28160 On ch=1 n=e5 v=20
28180 Par ch=1 c=64 v=0
28180 Par ch=1 c=64 v=0
28250 Off ch=1 n=g5 v=0
28396 Par ch=1 c=64 v=127
28396 Par ch=1 c=64 v=127
28672 On ch=1 n=a5 v=40
28762 Off ch=1 n=a#5 v=0
29184 Par ch=1 c=64 v=127
29184 Par ch=1 c=64 v=0
29184 Par ch=1 c=64 v=0
29184 On ch=1 n=c#6 v=40
29274 Off ch=1 n=a5 v=0
29696 On ch=1 n=a5 v=37
29786 Off ch=1 n=c#6 v=0
30208 On ch=1 n=a#5 v=40
30298 Off ch=1 n=a5 v=0
30720 On ch=1 n=d#6 v=42
30720 Off ch=1 n=f#3 v=0
30720 Off ch=1 n=c4 v=0
30720 Off ch=1 n=g4 v=0
30720 Off ch=1 n=c#5 v=0
30720 Off ch=1 n=e5 v=0
30720 On ch=1 n=f#4 v=20
30720 On ch=1 n=c5 v=20
30720 On ch=1 n=e5 v=20
30720 On ch=1 n=g5 v=20
30740 Par ch=1 c=64 v=0
30740 Par ch=1 c=64 v=0
30810 Off ch=1 n=a#5 v=0
30956 Par ch=1 c=64 v=127
30956 Par ch=1 c=64 v=127
31232 On ch=1 n=c6 v=45
31322 Off ch=1 n=d#6 v=0
31744 Par ch=1 c=64 v=127
31744 Par ch=1 c=64 v=0
31744 Par ch=1 c=64 v=0
31744 Off ch=1 n=f#4 v=0
31744 Off ch=1 n=c5 v=0
31744 Off ch=1 n=e5 v=0
31744 Off ch=1 n=g5 v=0
31744 On ch=1 n=e6 v=52
31744 On ch=1 n=e4 v=20
31744 On ch=1 n=a#4 v=20
31744 On ch=1 n=f5 v=20
31744 On ch=1 n=c#6 v=29
31834 Off ch=1 n=c6 v=0
31862 Par ch=1 c=64 v=0
32059 Par ch=1 c=64 v=127
33300 Par ch=1 c=64 v=0
33516 Par ch=1 c=64 v=127
34304 Par ch=1 c=64 v=127
34304 Par ch=1 c=64 v=0
34304 Par ch=1 c=64 v=0
34368 Par ch=1 c=64 v=127
34816 Off ch=1 n=c#6 v=0
34816 On ch=1 n=c6 v=35
35328 Off ch=1 n=c6 v=0
35328 On ch=1 n=a5 v=37
35840 On ch=1 n=g#5 v=38
35840 On ch=1 n=f6 v=50
35840 Off ch=1 n=e4 v=0
35840 Off ch=1 n=a#4 v=0
35840 Off ch=1 n=f5 v=0
35840 Off ch=1 n=a5 v=0
35840 On ch=1 n=e5 v=38
35840 On ch=1 n=g3 v=20
35840 On ch=1 n=c#4 v=20
35840 On ch=1 n=b4 v=20
35860 Par ch=1 c=64 v=0
35890 Off ch=1 n=e6 v=0
36076 Par ch=1 c=64 v=127
36352 Off ch=1 n=e5 v=0
36352 On ch=1 n=d#5 v=40
36664 On ch=1 n=e3 v=28
36664 On ch=1 n=a#3 v=28
36664 On ch=1 n=f4 v=28
36864 Par ch=1 c=64 v=127
36864 Par ch=1 c=64 v=0
36864 Par ch=1 c=64 v=0
36864 Off ch=1 n=g#5 v=0
36864 Off ch=1 n=d#5 v=0
36864 Off ch=1 n=g3 v=0
36864 Off ch=1 n=c#4 v=0
36864 Off ch=1 n=b4 v=0
36864 On ch=1 n=f#6 v=44
36864 On ch=1 n=b4 v=28
36864 On ch=1 n=d5 v=28
36864 On ch=1 n=g#5 v=40
36914 Off ch=1 n=f6 v=0
36982 Par ch=1 c=64 v=0
37179 Par ch=1 c=64 v=127
37376 On ch=1 n=c#6 v=46
37426 Off ch=1 n=f#6 v=0
37888 On ch=1 n=d6 v=49
37938 Off ch=1 n=c#6 v=0
37984 Par ch=1 c=64 v=127
38400 On ch=1 n=f6 v=51
38450 Off ch=1 n=d6 v=0
38912 On ch=1 n=e6 v=53
38962 Off ch=1 n=f6 v=0
39424 Par ch=1 c=64 v=127
39424 Par ch=1 c=64 v=127
39424 On ch=1 n=g#6 v=55
39474 Off ch=1 n=e6 v=0
39936 On ch=1 n=g6 v=50
39986 Off ch=1 n=g#6 v=0
40448 On ch=1 n=e6 v=46
40498 Off ch=1 n=g6 v=0
40960 On ch=1 n=d6 v=41
41010 Off ch=1 n=e6 v=0
41472 On ch=1 n=b5 v=37
41522 Off ch=1 n=d6 v=0
41984 Par ch=1 c=64 v=127
41984 Par ch=1 c=64 v=0
41984 Par ch=1 c=64 v=127
41984 Par ch=1 c=64 v=0
41984 Par ch=1 c=64 v=127
41984 Par ch=1 c=64 v=0
41984 Par ch=1 c=64 v=0
41984 Par ch=1 c=64 v=0
41984 Par ch=1 c=64 v=0
41984 Off ch=1 n=e3 v=0
41984 Off ch=1 n=a#3 v=0
41984 Off ch=1 n=f4 v=0
41984 Off ch=1 n=b4 v=0
41984 Off ch=1 n=d5 v=0
41984 Off ch=1 n=g#5 v=0
41984 On ch=1 n=d#6 v=48
41984 On ch=1 n=d#4 v=20
41984 On ch=1 n=a4 v=20
41984 On ch=1 n=e5 v=20
41984 On ch=1 n=c6 v=29
42034 Off ch=1 n=b5 v=0
42102 Par ch=1 c=64 v=0
42102 Par ch=1 c=64 v=0
42102 Par ch=1 c=64 v=0
42299 Par ch=1 c=64 v=127
42299 Par ch=1 c=64 v=127
42299 Par ch=1 c=64 v=127
43349 Par ch=1 c=64 v=127
44544 Par ch=1 c=64 v=127
44544 Par ch=1 c=64 v=0
44544 Par ch=1 c=64 v=127
44544 Par ch=1 c=64 v=0
44544 Par ch=1 c=64 v=127
44544 Par ch=1 c=64 v=0
44544 Par ch=1 c=64 v=0
44544 Par ch=1 c=64 v=0
44544 Par ch=1 c=64 v=0
44587 Par ch=1 c=64 v=127
45056 Off ch=1 n=c6 v=0
45056 On ch=1 n=b5 v=36
45568 Off ch=1 n=b5 v=0
45568 On ch=1 n=g#5 v=39
46080 On ch=1 n=g5 v=41
46080 On ch=1 n=e6 v=55
46080 Off ch=1 n=d#4 v=0
46080 Off ch=1 n=a4 v=0
46080 Off ch=1 n=e5 v=0
46080 Off ch=1 n=g#5 v=0
46080 On ch=1 n=d#5 v=41
46080 On ch=1 n=f#3 v=22
46080 On ch=1 n=c4 v=22
46080 On ch=1 n=a#4 v=22
46100 Par ch=1 c=64 v=0
46100 Par ch=1 c=64 v=0
46100 Par ch=1 c=64 v=0
46130 Off ch=1 n=d#6 v=0
46316 Par ch=1 c=64 v=127
46316 Par ch=1 c=64 v=127
46316 Par ch=1 c=64 v=127
46592 Off ch=1 n=d#5 v=0
46592 On ch=1 n=d5 v=45
46904 On ch=1 n=d#3 v=29
46904 On ch=1 n=a3 v=29
46904 On ch=1 n=e4 v=29
47104 Par ch=1 c=64 v=127
47104 Par ch=1 c=64 v=0
47104 Par ch=1 c=64 v=127
47104 Par ch=1 c=64 v=0
47104 Par ch=1 c=64 v=127
47104 Par ch=1 c=64 v=0
47104 Par ch=1 c=64 v=0
47104 Par ch=1 c=64 v=0
47104 Par ch=1 c=64 v=0
47104 Off ch=1 n=g5 v=0
47104 Off ch=1 n=d5 v=0
47104 Off ch=1 n=f#3 v=0
47104 Off ch=1 n=c4 v=0
47104 Off ch=1 n=a#4 v=0
47104 On ch=1 n=f6 v=46
47104 On ch=1 n=a#4 v=29
47104 On ch=1 n=c#5 v=29
47104 On ch=1 n=g5 v=42
47154 Off ch=1 n=e6 v=0
47222 Par ch=1 c=64 v=0
47222 Par ch=1 c=64 v=0
47222 Par ch=1 c=64 v=0
47419 Par ch=1 c=64 v=127
47419 Par ch=1 c=64 v=127
47419 Par ch=1 c=64 v=127
47616 On ch=1 n=c6 v=48
47666 Off ch=1 n=f6 v=0
48128 On ch=1 n=c#6 v=51
48178 Off ch=1 n=c6 v=0
48224 Par ch=1 c=64 v=127
48224 Par ch=1 c=64 v=127
48640 On ch=1 n=e6 v=54
48660 Par ch=1 c=64 v=0
48690 Off ch=1 n=c#6 v=0
48876 Par ch=1 c=64 v=127
49152 On ch=1 n=d#6 v=52
49202 Off ch=1 n=e6 v=0
49664 Par ch=1 c=64 v=127
49664 Par ch=1 c=64 v=127
49664 On ch=1 n=g6 v=52
49714 Off ch=1 n=d#6 v=0
50176 On ch=1 n=f#6 v=47
50226 Off ch=1 n=g6 v=0
50688 On ch=1 n=d#6 v=42
50738 Off ch=1 n=f#6 v=0
51200 On ch=1 n=c#6 v=37
51250 Off ch=1 n=d#6 v=0
51712 On ch=1 n=a#5 v=33
51762 Off ch=1 n=c#6 v=0
52224 Par ch=1 c=64 v=127
52224 Par ch=1 c=64 v=0
52224 Par ch=1 c=64 v=0
52224 Off ch=1 n=d#3 v=0
52224 Off ch=1 n=a3 v=0
52224 Off ch=1 n=e4 v=0
52224 Off ch=1 n=a#4 v=0
52224 Off ch=1 n=c#5 v=0
52224 Off ch=1 n=g5 v=0
52224 On ch=1 n=d6 v=38
52224 On ch=1 n=f#3 v=20
52224 On ch=1 n=c4 v=20
52224 On ch=1 n=a#4 v=20
52224 On ch=1 n=e5 v=20
52274 Off ch=1 n=a#5 v=0
52342 Par ch=1 c=64 v=0
52539 Par ch=1 c=64 v=127
52736 On ch=1 n=a5 v=40
52786 Off ch=1 n=d6 v=0
53248 On ch=1 n=a#5 v=43
53298 Off ch=1 n=a5 v=0
53760 On ch=1 n=c#6 v=46
53760 Off ch=1 n=f#3 v=0
53760 Off ch=1 n=c4 v=0
53760 Off ch=1 n=a#4 v=0
53760 Off ch=1 n=e5 v=0
53760 On ch=1 n=a3 v=20
53760 On ch=1 n=d#4 v=20
53760 On ch=1 n=a#4 v=20
53760 On ch=1 n=e5 v=20
53760 On ch=1 n=g5 v=20
53780 Par ch=1 c=64 v=0
53810 Off ch=1 n=a#5 v=0
53996 Par ch=1 c=64 v=127
54272 On ch=1 n=c6 v=44
54322 Off ch=1 n=c#6 v=0
54443 Par ch=1 c=64 v=127
54784 Par ch=1 c=64 v=127
54784 Par ch=1 c=64 v=127
54784 On ch=1 n=e6 v=44
54834 Off ch=1 n=c6 v=0
55296 On ch=1 n=d#6 v=39
55346 Off ch=1 n=e6 v=0
55808 On ch=1 n=c6 v=34
55858 Off ch=1 n=d#6 v=0
56320 On ch=1 n=a#5 v=29
56370 Off ch=1 n=c6 v=0
56832 On ch=1 n=g5 v=25
56882 Off ch=1 n=a#5 v=0
57344 Par ch=1 c=64 v=127
57344 Par ch=1 c=64 v=0
57344 Par ch=1 c=64 v=127
57344 Par ch=1 c=64 v=0
57344 Par ch=1 c=64 v=0
57344 Par ch=1 c=64 v=0
57344 Off ch=1 n=a3 v=0
57344 Off ch=1 n=d#4 v=0
57344 Off ch=1 n=a#4 v=0
57344 Off ch=1 n=e5 v=0
57344 Off ch=1 n=g5 v=0
57344 On ch=1 n=b5 v=30
57344 On ch=1 n=d#3 v=12
57344 On ch=1 n=a3 v=12
57344 On ch=1 n=g4 v=12
57344 On ch=1 n=c#5 v=12
57394 Off ch=1 n=g5 v=0
57462 Par ch=1 c=64 v=0
57462 Par ch=1 c=64 v=0
57659 Par ch=1 c=64 v=127
57659 Par ch=1 c=64 v=127
57856 On ch=1 n=f#5 v=32
57906 Off ch=1 n=b5 v=0
58368 On ch=1 n=g5 v=35
58418 Off ch=1 n=f#5 v=0
58880 On ch=1 n=a#5 v=38
58880 Off ch=1 n=d#3 v=0
58880 Off ch=1 n=a3 v=0
58880 Off ch=1 n=g4 v=0
58880 Off ch=1 n=c#5 v=0
58880 On ch=1 n=f#3 v=12
58880 On ch=1 n=c4 v=12
58880 On ch=1 n=g4 v=12
58880 On ch=1 n=c#5 v=12
58880 On ch=1 n=e5 v=12
58900 Par ch=1 c=64 v=0
58900 Par ch=1 c=64 v=0
58930 Off ch=1 n=g5 v=0
59116 Par ch=1 c=64 v=127
59116 Par ch=1 c=64 v=127
59392 On ch=1 n=a5 v=36
59442 Off ch=1 n=a#5 v=0
59563 Par ch=1 c=64 v=127
59904 Par ch=1 c=64 v=127
59904 Par ch=1 c=64 v=127
59904 On ch=1 n=c#6 v=35
59954 Off ch=1 n=a5 v=0
60416 On ch=1 n=c6 v=32
60466 Off ch=1 n=c#6 v=0
60928 On ch=1 n=a5 v=28
60978 Off ch=1 n=c6 v=0
61440 On ch=1 n=g5 v=25
61490 Off ch=1 n=a5 v=0
61952 On ch=1 n=e5 v=22
62002 Off ch=1 n=g5 v=0
62464 Par ch=1 c=64 v=127
62464 Par ch=1 c=64 v=127
62976 On ch=1 n=f#5 v=25
63026 Off ch=1 n=e5 v=0
63488 On ch=1 n=g5 v=28
63538 Off ch=1 n=f#5 v=0
64000 On ch=1 n=a#5 v=31
64050 Off ch=1 n=g5 v=0
64512 On ch=1 n=a5 v=29
64562 Off ch=1 n=a#5 v=0
65024 Par ch=1 c=64 v=127
65024 Par ch=1 c=64 v=127
65024 On ch=1 n=c#6 v=30
65074 Off ch=1 n=a5 v=0
65536 On ch=1 n=f#5 v=28
65586 Off ch=1 n=c#6 v=0
66048 On ch=1 n=g5 v=26
66098 Off ch=1 n=f#5 v=0
66560 On ch=1 n=a#5 v=27
66610 Off ch=1 n=g5 v=0
67072 On ch=1 n=a5 v=25
67122 Off ch=1 n=a#5 v=0
67584 Par ch=1 c=64 v=127
67584 Par ch=1 c=64 v=127
67584 Par ch=1 c=64 v=0
67584 Par ch=1 c=64 v=0
67584 Par ch=1 c=64 v=0
67584 Off ch=1 n=f#3 v=0
67584 Off ch=1 n=c4 v=0
67584 Off ch=1 n=g4 v=0
67584 Off ch=1 n=c#5 v=0
67584 Off ch=1 n=e5 v=0
67584 On ch=1 n=g#5 v=26
67584 On ch=1 n=c3 v=16
67584 On ch=1 n=f#3 v=16
67584 On ch=1 n=e4 v=16
67584 On ch=1 n=a#4 v=16
67634 Off ch=1 n=a5 v=0
67702 Par ch=1 c=64 v=0
67702 Par ch=1 c=64 v=0
67899 Par ch=1 c=64 v=127
67899 Par ch=1 c=64 v=127
68096 On ch=1 n=d#5 v=25
68146 Off ch=1 n=g#5 v=0
68608 On ch=1 n=e5 v=27
68658 Off ch=1 n=d#5 v=0
69120 On ch=1 n=g5 v=32
69120 Off ch=1 n=c3 v=0
69120 Off ch=1 n=f#3 v=0
69120 Off ch=1 n=e4 v=0
69120 Off ch=1 n=a#4 v=0
69120 On ch=1 n=d#3 v=17
69120 On ch=1 n=a3 v=17
69120 On ch=1 n=e4 v=17
69120 On ch=1 n=a#4 v=17
69120 On ch=1 n=c#5 v=17
69140 Par ch=1 c=64 v=0
69140 Par ch=1 c=64 v=0
69170 Off ch=1 n=e5 v=0
69356 Par ch=1 c=64 v=127
69356 Par ch=1 c=64 v=127
69632 On ch=1 n=f#5 v=25
69682 Off ch=1 n=g5 v=0
70144 Par ch=1 c=64 v=127
70144 Par ch=1 c=64 v=0
70144 Par ch=1 c=64 v=127
70144 Par ch=1 c=64 v=0
70144 Par ch=1 c=64 v=0
70144 Par ch=1 c=64 v=0
70144 Off ch=1 n=d#3 v=0
70144 Off ch=1 n=a3 v=0
70144 Off ch=1 n=e4 v=0
70144 Off ch=1 n=a#4 v=0
70144 Off ch=1 n=c#5 v=0
70144 On ch=1 n=g#5 v=25
70144 On ch=1 n=c3 v=18
70144 On ch=1 n=f#3 v=18
70144 On ch=1 n=e4 v=18
70144 On ch=1 n=a#4 v=18
70194 Off ch=1 n=f#5 v=0
70262 Par ch=1 c=64 v=0
70262 Par ch=1 c=64 v=0
70459 Par ch=1 c=64 v=127
70459 Par ch=1 c=64 v=127
70656 On ch=1 n=d#5 v=24
70706 Off ch=1 n=g#5 v=0
71168 On ch=1 n=e5 v=25
71218 Off ch=1 n=d#5 v=0
71680 On ch=1 n=g5 v=32
71680 Off ch=1 n=c3 v=0
71680 Off ch=1 n=f#3 v=0
71680 Off ch=1 n=e4 v=0
71680 Off ch=1 n=a#4 v=0
71680 On ch=1 n=d#3 v=19
71680 On ch=1 n=a3 v=19
71680 On ch=1 n=e4 v=19
71680 On ch=1 n=a#4 v=19
71680 On ch=1 n=c#5 v=19
71700 Par ch=1 c=64 v=0
71700 Par ch=1 c=64 v=0
71730 Off ch=1 n=e5 v=0
71916 Par ch=1 c=64 v=127
71916 Par ch=1 c=64 v=127
72192 On ch=1 n=f#5 v=27
72242 Off ch=1 n=g5 v=0
72704 Par ch=1 c=64 v=127
72704 Par ch=1 c=64 v=0
72704 Par ch=1 c=64 v=127
72704 Par ch=1 c=64 v=0
72704 Par ch=1 c=64 v=0
72704 Par ch=1 c=64 v=0
72704 Off ch=1 n=d#3 v=0
72704 Off ch=1 n=a3 v=0
72704 Off ch=1 n=e4 v=0
72704 Off ch=1 n=a#4 v=0
72704 Off ch=1 n=c#5 v=0
72704 On ch=1 n=g#5 v=28
72704 On ch=1 n=c3 v=20
72704 On ch=1 n=f#3 v=20
72704 On ch=1 n=e4 v=20
72704 On ch=1 n=a#4 v=20
72754 Off ch=1 n=f#5 v=0
72822 Par ch=1 c=64 v=0
72822 Par ch=1 c=64 v=0
73019 Par ch=1 c=64 v=127
73019 Par ch=1 c=64 v=127
73216 On ch=1 n=f#5 v=26
73266 Off ch=1 n=g#5 v=0
73728 On ch=1 n=g5 v=32
73778 Off ch=1 n=f#5 v=0
74240 On ch=1 n=a#5 v=37
74240 Off ch=1 n=c3 v=0
74240 Off ch=1 n=f#3 v=0
74240 Off ch=1 n=e4 v=0
74240 Off ch=1 n=a#4 v=0
74240 On ch=1 n=f#3 v=20
74240 On ch=1 n=c4 v=20
74240 On ch=1 n=g4 v=20
74240 On ch=1 n=c#5 v=20
74240 On ch=1 n=e5 v=20
74260 Par ch=1 c=64 v=0
74260 Par ch=1 c=64 v=0
74290 Off ch=1 n=g5 v=0
74476 Par ch=1 c=64 v=127
74476 Par ch=1 c=64 v=127
74752 On ch=1 n=a5 v=33
74802 Off ch=1 n=a#5 v=0
75264 Par ch=1 c=64 v=127
75264 Par ch=1 c=64 v=127
75264 Par ch=1 c=64 v=0
75264 Par ch=1 c=64 v=0
75264 Par ch=1 c=64 v=0
75264 On ch=1 n=c#6 v=44
75314 Off ch=1 n=a5 v=0
75382 Par ch=1 c=64 v=0
75579 Par ch=1 c=64 v=127
75776 On ch=1 n=f#5 v=40
75826 Off ch=1 n=c#6 v=0
76288 On ch=1 n=g5 v=37
76338 Off ch=1 n=f#5 v=0
76800 On ch=1 n=a#5 v=33
76800 Off ch=1 n=f#3 v=0
76800 Off ch=1 n=c4 v=0
76800 Off ch=1 n=g4 v=0
76800 Off ch=1 n=c#5 v=0
76800 Off ch=1 n=e5 v=0
76800 On ch=1 n=f#3 v=20
76800 On ch=1 n=c4 v=20
76800 On ch=1 n=g4 v=20
76800 On ch=1 n=c#5 v=20
76800 On ch=1 n=e5 v=20
76820 Par ch=1 c=64 v=0
76850 Off ch=1 n=g5 v=0
77036 Par ch=1 c=64 v=127
77312 On ch=1 n=a5 v=30
77362 Off ch=1 n=a#5 v=0
77824 Par ch=1 c=64 v=127
77824 Par ch=1 c=64 v=0
77824 Par ch=1 c=64 v=127
77824 Par ch=1 c=64 v=0
77824 Par ch=1 c=64 v=0
77824 Par ch=1 c=64 v=0
77824 Off ch=1 n=f#3 v=0
77824 Off ch=1 n=c4 v=0
77824 Off ch=1 n=g4 v=0
77824 Off ch=1 n=c#5 v=0
77824 Off ch=1 n=e5 v=0
77824 On ch=1 n=g#5 v=33
77824 On ch=1 n=c3 v=20
77824 On ch=1 n=f#3 v=20
77824 On ch=1 n=e4 v=20
77824 On ch=1 n=a#4 v=20
77874 Off ch=1 n=a5 v=0
77942 Par ch=1 c=64 v=0
77942 Par ch=1 c=64 v=0
78139 Par ch=1 c=64 v=127
78139 Par ch=1 c=64 v=127
78336 On ch=1 n=f#5 v=28
78386 Off ch=1 n=g#5 v=0
78848 On ch=1 n=g5 v=32
78898 Off ch=1 n=f#5 v=0
79360 On ch=1 n=a#5 v=36
79360 Off ch=1 n=c3 v=0
79360 Off ch=1 n=f#3 v=0
79360 Off ch=1 n=e4 v=0
79360 Off ch=1 n=a#4 v=0
79360 On ch=1 n=f#3 v=20
79360 On ch=1 n=c4 v=20
79360 On ch=1 n=g4 v=20
79360 On ch=1 n=c#5 v=20
79360 On ch=1 n=e5 v=20
79380 Par ch=1 c=64 v=0
79380 Par ch=1 c=64 v=0
79410 Off ch=1 n=g5 v=0
79596 Par ch=1 c=64 v=127
79596 Par ch=1 c=64 v=127
79872 On ch=1 n=a5 v=40
79922 Off ch=1 n=a#5 v=0
80384 Par ch=1 c=64 v=127
80384 Par ch=1 c=64 v=127
80384 Par ch=1 c=64 v=0
80384 Par ch=1 c=64 v=0
80384 Par ch=1 c=64 v=0
80384 On ch=1 n=c#6 v=40
80434 Off ch=1 n=a5 v=0
80502 Par ch=1 c=64 v=0
80699 Par ch=1 c=64 v=127
80896 On ch=1 n=f#5 v=37
80946 Off ch=1 n=c#6 v=0
81408 On ch=1 n=g5 v=35
81458 Off ch=1 n=f#5 v=0
81920 On ch=1 n=a#5 v=32
81940 Par ch=1 c=64 v=0
81970 Off ch=1 n=g5 v=0
82156 Par ch=1 c=64 v=127
82432 On ch=1 n=a5 v=30
82482 Off ch=1 n=a#5 v=0
82944 Par ch=1 c=64 v=127
82944 Par ch=1 c=64 v=0
82944 Par ch=1 c=64 v=0
82944 On ch=1 n=c#6 v=38
82994 Off ch=1 n=a5 v=0
83062 Par ch=1 c=64 v=0
83259 Par ch=1 c=64 v=127
83456 On ch=1 n=f#5 v=38
83506 Off ch=1 n=c#6 v=0
83968 On ch=1 n=g5 v=38
84018 Off ch=1 n=f#5 v=0
84480 On ch=1 n=a#5 v=38
84500 Par ch=1 c=64 v=0
84530 Off ch=1 n=g5 v=0
84716 Par ch=1 c=64 v=127
84992 On ch=1 n=a5 v=38
85042 Off ch=1 n=a#5 v=0
85504 Par ch=1 c=64 v=127
85504 Par ch=1 c=64 v=0
85504 Par ch=1 c=64 v=0
85504 On ch=1 n=c#6 v=35
85554 Off ch=1 n=a5 v=0
85622 Par ch=1 c=64 v=0
85819 Par ch=1 c=64 v=127
86016 On ch=1 n=a5 v=32
86066 Off ch=1 n=c#6 v=0
86528 On ch=1 n=a#5 v=28
86578 Off ch=1 n=a5 v=0
87040 On ch=1 n=d#6 v=25
87060 Par ch=1 c=64 v=0
87090 Off ch=1 n=a#5 v=0
87276 Par ch=1 c=64 v=127
87552 On ch=1 n=c6 v=22
87602 Off ch=1 n=d#6 v=0
88064 Par ch=1 c=64 v=127
88064 Par ch=1 c=64 v=127
88064 Par ch=1 c=64 v=127
88064 Par ch=1 c=64 v=0
88064 Par ch=1 c=64 v=127
88064 Par ch=1 c=64 v=0
88064 Par ch=1 c=64 v=127
88064 Off ch=1 n=f#3 v=0
88064 Off ch=1 n=c4 v=0
88064 Off ch=1 n=g4 v=0
88064 Off ch=1 n=c#5 v=0
88064 Off ch=1 n=e5 v=0
88064 On ch=1 n=c3 v=1
88182 Par ch=1 c=64 v=0
88192 On ch=1 n=f#3 v=9
88306 Par ch=1 c=64 v=0
88306 Par ch=1 c=64 v=0
88306 Par ch=1 c=64 v=0
88306 Par ch=1 c=64 v=0
88320 On ch=1 n=c#4 v=11
88379 Par ch=1 c=64 v=127
88448 On ch=1 n=g4 v=13
88576 On ch=1 n=c#5 v=15
88651 Par ch=1 c=64 v=127
88651 Par ch=1 c=64 v=127
88651 Par ch=1 c=64 v=127
88651 Par ch=1 c=64 v=127
88704 On ch=1 n=e5 v=16
88832 On ch=1 n=a#5 v=18
88960 On ch=1 n=e6 v=20
89088 Off ch=1 n=c6 v=0
89620 Par ch=1 c=64 v=0
89836 Par ch=1 c=64 v=127
90624 Par ch=1 c=64 v=127
90624 Par ch=1 c=64 v=127
90624 Par ch=1 c=64 v=127
90624 Par ch=1 c=64 v=0
90624 Par ch=1 c=64 v=127
90624 Par ch=1 c=64 v=0
90624 Par ch=1 c=64 v=127
90674 Off ch=1 n=c3 v=0
90674 Off ch=1 n=f#3 v=0
90674 Off ch=1 n=c#4 v=0
90674 Off ch=1 n=g4 v=0
90674 Off ch=1 n=c#5 v=0
90674 Off ch=1 n=e5 v=0
90674 Off ch=1 n=a#5 v=0
90674 Off ch=1 n=e6 v=0
90742 Par ch=1 c=64 v=0
90866 Par ch=1 c=64 v=0
90866 Par ch=1 c=64 v=0
90866 Par ch=1 c=64 v=0
90866 Par ch=1 c=64 v=0
90939 Par ch=1 c=64 v=127
91211 Par ch=1 c=64 v=127
91211 Par ch=1 c=64 v=127
91211 Par ch=1 c=64 v=127
91211 Par ch=1 c=64 v=127
92180 Par ch=1 c=64 v=0
92396 Par ch=1 c=64 v=127
93184 Par ch=1 c=64 v=127
93184 Par ch=1 c=64 v=127
93184 Par ch=1 c=64 v=127
93184 Par ch=1 c=64 v=0
93184 Par ch=1 c=64 v=127
93184 Par ch=1 c=64 v=0
93184 Par ch=1 c=64 v=127
93302 Par ch=1 c=64 v=0
93426 Par ch=1 c=64 v=0
93426 Par ch=1 c=64 v=0
93426 Par ch=1 c=64 v=0
93426 Par ch=1 c=64 v=0
93499 Par ch=1 c=64 v=127
93771 Par ch=1 c=64 v=127
93771 Par ch=1 c=64 v=127
93771 Par ch=1 c=64 v=127
93771 Par ch=1 c=64 v=127
94740 Par ch=1 c=64 v=0
94956 Par ch=1 c=64 v=127
94956 Meta TrkEnd
TrkEnd
