MFile 0 1 480
MTrk
0 Tempo 500000
0 TimeSig 2/4 24 8
0 PrCh ch=1 p=0
0 Par ch=1 c=7 v=127
0 Par ch=1 c=10 v=64
720 On ch=1 n=g#6 v=60
720 On ch=1 n=b6 v=60
835 On ch=1 n=b6 v=0
835 On ch=1 n=g#6 v=0
840 On ch=1 n=f#6 v=60
840 On ch=1 n=a6 v=60
955 On ch=1 n=a6 v=0
955 On ch=1 n=f#6 v=0
960 On ch=1 n=e6 v=60
960 On ch=1 n=g#6 v=60
1195 On ch=1 n=g#6 v=0
1195 On ch=1 n=e6 v=0
1200 On ch=1 n=e6 v=60
1200 On ch=1 n=g#6 v=60
1315 On ch=1 n=g#6 v=0
1315 On ch=1 n=e6 v=0
1320 On ch=1 n=b5 v=60
1320 On ch=1 n=f#6 v=60
1435 On ch=1 n=f#6 v=0
1435 On ch=1 n=b5 v=0
1440 On ch=1 n=g#5 v=60
1440 On ch=1 n=e6 v=60
1675 On ch=1 n=e6 v=0
1675 On ch=1 n=g#5 v=0
1680 On ch=1 n=g#6 v=60
1680 On ch=1 n=b6 v=60
1795 On ch=1 n=b6 v=0
1795 On ch=1 n=g#6 v=0
1800 On ch=1 n=f#6 v=60
1800 On ch=1 n=a6 v=60
1915 On ch=1 n=a6 v=0
1915 On ch=1 n=f#6 v=0
1920 On ch=1 n=e6 v=60
1920 On ch=1 n=g#6 v=60
2155 On ch=1 n=g#6 v=0
2155 On ch=1 n=e6 v=0
2160 On ch=1 n=e6 v=60
2160 On ch=1 n=g#6 v=60
2275 On ch=1 n=g#6 v=0
2275 On ch=1 n=e6 v=0
2280 On ch=1 n=b5 v=60
2280 On ch=1 n=f#6 v=60
2395 On ch=1 n=f#6 v=0
2395 On ch=1 n=b5 v=0
2400 On ch=1 n=g#5 v=60
2400 On ch=1 n=e6 v=60
2635 On ch=1 n=e6 v=0
2635 On ch=1 n=g#5 v=0
2640 On ch=1 n=g#5 v=60
2640 On ch=1 n=e6 v=60
2755 On ch=1 n=e6 v=0
2755 On ch=1 n=g#5 v=0
2760 On ch=1 n=b5 v=60
2760 On ch=1 n=f#6 v=60
2875 On ch=1 n=f#6 v=0
2875 On ch=1 n=b5 v=0
2880 On ch=1 n=e6 v=60
2880 On ch=1 n=g#6 v=60
3115 On ch=1 n=g#6 v=0
3115 On ch=1 n=e6 v=0
3120 On ch=1 n=b5 v=60
3120 On ch=1 n=f#6 v=60
3235 On ch=1 n=f#6 v=0
3235 On ch=1 n=b5 v=0
3240 On ch=1 n=e6 v=60
3240 On ch=1 n=g#6 v=60
3355 On ch=1 n=g#6 v=0
3355 On ch=1 n=e6 v=0
3360 On ch=1 n=f#6 v=60
3360 On ch=1 n=a6 v=60
3595 On ch=1 n=a6 v=0
3595 On ch=1 n=f#6 v=0
3600 On ch=1 n=b5 v=60
3600 On ch=1 n=f#6 v=60
3715 On ch=1 n=f#6 v=0
3715 On ch=1 n=b5 v=0
3720 On ch=1 n=f#6 v=60
3720 On ch=1 n=a6 v=60
3835 On ch=1 n=a6 v=0
3835 On ch=1 n=f#6 v=0
3840 On ch=1 n=g#6 v=60
3840 On ch=1 n=b6 v=60
4075 On ch=1 n=b6 v=0
4075 On ch=1 n=g#6 v=0
4080 On ch=1 n=f#6 v=60
4080 On ch=1 n=a6 v=60
4195 On ch=1 n=a6 v=0
4195 On ch=1 n=f#6 v=0
4200 On ch=1 n=e6 v=60
4200 On ch=1 n=g#6 v=60
4315 On ch=1 n=g#6 v=0
4315 On ch=1 n=e6 v=0
4320 On ch=1 n=b5 v=60
4320 On ch=1 n=f#6 v=60
4555 On ch=1 n=f#6 v=0
4555 On ch=1 n=b5 v=0
4560 On ch=1 n=g#6 v=60
4560 On ch=1 n=b6 v=60
4675 On ch=1 n=b6 v=0
4675 On ch=1 n=g#6 v=0
4680 On ch=1 n=f#6 v=60
4680 On ch=1 n=a6 v=60
4795 On ch=1 n=a6 v=0
4795 On ch=1 n=f#6 v=0
4800 On ch=1 n=e6 v=60
4800 On ch=1 n=g#6 v=60
5035 On ch=1 n=g#6 v=0
5035 On ch=1 n=e6 v=0
5040 On ch=1 n=e6 v=60
5040 On ch=1 n=g#6 v=60
5155 On ch=1 n=g#6 v=0
5155 On ch=1 n=e6 v=0
5160 On ch=1 n=b5 v=60
5160 On ch=1 n=f#6 v=60
5275 On ch=1 n=f#6 v=0
5275 On ch=1 n=b5 v=0
5280 On ch=1 n=g#5 v=60
5280 On ch=1 n=e6 v=60
5515 On ch=1 n=e6 v=0
5515 On ch=1 n=g#5 v=0
5520 On ch=1 n=g#6 v=60
5520 On ch=1 n=b6 v=60
5635 On ch=1 n=b6 v=0
5635 On ch=1 n=g#6 v=0
5640 On ch=1 n=f#6 v=60
5640 On ch=1 n=a6 v=60
5755 On ch=1 n=a6 v=0
5755 On ch=1 n=f#6 v=0
5760 On ch=1 n=e6 v=60
5760 On ch=1 n=g#6 v=60
5995 On ch=1 n=g#6 v=0
5995 On ch=1 n=e6 v=0
6000 On ch=1 n=e6 v=60
6000 On ch=1 n=g#6 v=60
6115 On ch=1 n=g#6 v=0
6115 On ch=1 n=e6 v=0
6120 On ch=1 n=b5 v=60
6120 On ch=1 n=f#6 v=60
6235 On ch=1 n=f#6 v=0
6235 On ch=1 n=b5 v=0
6240 On ch=1 n=g#5 v=60
6240 On ch=1 n=e6 v=60
6475 On ch=1 n=e6 v=0
6475 On ch=1 n=g#5 v=0
6480 On ch=1 n=g#5 v=60
6480 On ch=1 n=e6 v=60
6595 On ch=1 n=e6 v=0
6595 On ch=1 n=g#5 v=0
6600 On ch=1 n=b5 v=60
6600 On ch=1 n=f#6 v=60
6715 On ch=1 n=f#6 v=0
6715 On ch=1 n=b5 v=0
6720 On ch=1 n=e6 v=60
6720 On ch=1 n=g#6 v=60
6955 On ch=1 n=g#6 v=0
6955 On ch=1 n=e6 v=0
6960 On ch=1 n=f#6 v=60
6960 On ch=1 n=a6 v=60
7075 On ch=1 n=a6 v=0
7075 On ch=1 n=f#6 v=0
7080 On ch=1 n=e6 v=60
7080 On ch=1 n=g#6 v=60
7195 On ch=1 n=g#6 v=0
7195 On ch=1 n=e6 v=0
7200 On ch=1 n=b5 v=60
7200 On ch=1 n=f#6 v=60
7435 On ch=1 n=f#6 v=0
7435 On ch=1 n=b5 v=0
7440 On ch=1 n=e6 v=60
7440 On ch=1 n=g#6 v=60
7555 On ch=1 n=g#6 v=0
7555 On ch=1 n=e6 v=0
7560 On ch=1 n=b5 v=60
7560 On ch=1 n=f#6 v=60
7675 On ch=1 n=f#6 v=0
7675 On ch=1 n=b5 v=0
7680 On ch=1 n=g#5 v=60
7680 On ch=1 n=e6 v=60
8080 On ch=1 n=e6 v=0
8080 On ch=1 n=g#5 v=0
8400 On ch=1 n=g#4 v=92
8400 On ch=1 n=e5 v=92
8515 On ch=1 n=e5 v=0
8515 On ch=1 n=g#4 v=0
8520 On ch=1 n=e5 v=92
8520 On ch=1 n=g#5 v=92
8635 On ch=1 n=g#5 v=0
8635 On ch=1 n=e5 v=0
8640 On ch=1 n=b4 v=92
8640 On ch=1 n=f#5 v=92
8875 On ch=1 n=f#5 v=0
8875 On ch=1 n=b4 v=0
8880 On ch=1 n=e5 v=92
8880 On ch=1 n=g#5 v=92
8995 On ch=1 n=g#5 v=0
8995 On ch=1 n=e5 v=0
9000 On ch=1 n=f#5 v=92
9000 On ch=1 n=a5 v=92
9115 On ch=1 n=a5 v=0
9115 On ch=1 n=f#5 v=0
9120 On ch=1 n=g#5 v=92
9120 On ch=1 n=b5 v=92
9355 On ch=1 n=b5 v=0
9355 On ch=1 n=g#5 v=0
9360 On ch=1 n=a5 v=92
9360 On ch=1 n=c#6 v=92
9475 On ch=1 n=c#6 v=0
9475 On ch=1 n=a5 v=0
9480 On ch=1 n=g#5 v=92
9480 On ch=1 n=b5 v=92
9595 On ch=1 n=b5 v=0
9595 On ch=1 n=g#5 v=0
9600 On ch=1 n=f#5 v=92
9600 On ch=1 n=a5 v=92
9835 On ch=1 n=a5 v=0
9835 On ch=1 n=f#5 v=0
9840 On ch=1 n=e5 v=92
9840 On ch=1 n=g#5 v=92
9955 On ch=1 n=g#5 v=0
9955 On ch=1 n=e5 v=0
9960 On ch=1 n=f#5 v=92
9960 On ch=1 n=a5 v=92
10075 On ch=1 n=a5 v=0
10075 On ch=1 n=f#5 v=0
10080 On ch=1 n=b4 v=92
10080 On ch=1 n=f#5 v=92
10315 On ch=1 n=f#5 v=0
10315 On ch=1 n=b4 v=0
10320 Tempo 545454
10320 On ch=1 n=g#4 v=92
10320 On ch=1 n=e5 v=92
10435 On ch=1 n=e5 v=0
10435 On ch=1 n=g#4 v=0
10440 On ch=1 n=e5 v=92
10440 On ch=1 n=g#5 v=92
10555 On ch=1 n=g#5 v=0
10555 On ch=1 n=e5 v=0
10560 On ch=1 n=b4 v=92
10560 On ch=1 n=f#5 v=92
10795 On ch=1 n=f#5 v=0
10795 On ch=1 n=b4 v=0
10800 On ch=1 n=e5 v=92
10800 On ch=1 n=g#5 v=92
10915 On ch=1 n=g#5 v=0
10915 On ch=1 n=e5 v=0
10920 On ch=1 n=f#5 v=92
10920 On ch=1 n=a5 v=92
11035 On ch=1 n=a5 v=0
11035 On ch=1 n=f#5 v=0
11040 On ch=1 n=g#5 v=92
11040 On ch=1 n=b5 v=92
11275 On ch=1 n=b5 v=0
11275 On ch=1 n=g#5 v=0
11280 On ch=1 n=a5 v=92
11280 On ch=1 n=c#6 v=92
11395 On ch=1 n=c#6 v=0
11395 On ch=1 n=a5 v=0
11400 On ch=1 n=g#5 v=92
11400 On ch=1 n=b5 v=92
11515 On ch=1 n=b5 v=0
11515 On ch=1 n=g#5 v=0
11520 On ch=1 n=f#5 v=92
11520 On ch=1 n=a5 v=92
11755 On ch=1 n=a5 v=0
11755 On ch=1 n=f#5 v=0
11760 On ch=1 n=e5 v=92
11760 On ch=1 n=g#5 v=92
11875 On ch=1 n=g#5 v=0
11875 On ch=1 n=e5 v=0
11880 On ch=1 n=f#5 v=92
11880 On ch=1 n=a5 v=92
11995 On ch=1 n=a5 v=0
11995 On ch=1 n=f#5 v=0
12000 On ch=1 n=b4 v=92
12000 On ch=1 n=f#5 v=92
12235 On ch=1 n=f#5 v=0
12235 On ch=1 n=b4 v=0
12240 Tempo 500000
12240 On ch=1 n=g#6 v=60
12240 On ch=1 n=b6 v=60
12355 On ch=1 n=b6 v=0
12355 On ch=1 n=g#6 v=0
12360 On ch=1 n=f#6 v=60
12360 On ch=1 n=a6 v=60
12475 On ch=1 n=a6 v=0
12475 On ch=1 n=f#6 v=0
12480 On ch=1 n=e6 v=60
12480 On ch=1 n=g#6 v=60
12715 On ch=1 n=g#6 v=0
12715 On ch=1 n=e6 v=0
12720 On ch=1 n=e6 v=60
12720 On ch=1 n=g#6 v=60
12835 On ch=1 n=g#6 v=0
12835 On ch=1 n=e6 v=0
12840 On ch=1 n=b5 v=60
12840 On ch=1 n=f#6 v=60
12955 On ch=1 n=f#6 v=0
12955 On ch=1 n=b5 v=0
12960 On ch=1 n=g#5 v=60
12960 On ch=1 n=e6 v=60
13195 On ch=1 n=e6 v=0
13195 On ch=1 n=g#5 v=0
13200 On ch=1 n=g#5 v=92
13200 On ch=1 n=b5 v=92
13315 On ch=1 n=b5 v=0
13315 On ch=1 n=g#5 v=0
13320 On ch=1 n=f#5 v=92
13320 On ch=1 n=a5 v=92
13435 On ch=1 n=a5 v=0
13435 On ch=1 n=f#5 v=0
13440 On ch=1 n=e5 v=92
13440 On ch=1 n=g#5 v=92
13675 On ch=1 n=g#5 v=0
13675 On ch=1 n=e5 v=0
13680 On ch=1 n=e5 v=92
13680 On ch=1 n=g#5 v=92
13795 On ch=1 n=g#5 v=0
13795 On ch=1 n=e5 v=0
13800 On ch=1 n=b4 v=92
13800 On ch=1 n=f#5 v=92
13915 On ch=1 n=f#5 v=0
13915 On ch=1 n=b4 v=0
13920 On ch=1 n=g#4 v=92
13920 On ch=1 n=e5 v=92
14155 On ch=1 n=e5 v=0
14155 On ch=1 n=g#4 v=0
14160 On ch=1 n=g#5 v=60
14160 On ch=1 n=e6 v=60
14275 On ch=1 n=e6 v=0
14275 On ch=1 n=g#5 v=0
14280 On ch=1 n=b5 v=60
14280 On ch=1 n=f#6 v=60
14395 On ch=1 n=f#6 v=0
14395 On ch=1 n=b5 v=0
14400 Tempo 500000
14400 On ch=1 n=e6 v=60
14400 On ch=1 n=g#6 v=60
14495 Tempo 508474
14590 Tempo 517241
14635 On ch=1 n=g#6 v=0
14635 On ch=1 n=e6 v=0
14640 On ch=1 n=f#6 v=60
14640 On ch=1 n=a6 v=60
14687 Tempo 526315
14755 On ch=1 n=a6 v=0
14755 On ch=1 n=f#6 v=0
14760 On ch=1 n=e6 v=60
14760 On ch=1 n=g#6 v=60
14782 Tempo 535714
14875 On ch=1 n=g#6 v=0
14875 On ch=1 n=e6 v=0
14880 Tempo 545454
14880 On ch=1 n=b5 v=60
14880 On ch=1 n=f#6 v=60
14975 Tempo 555555
15070 Tempo 566037
15115 On ch=1 n=f#6 v=0
15115 On ch=1 n=b5 v=0
15120 On ch=1 n=e6 v=60
15120 On ch=1 n=g#6 v=60
15167 Tempo 576923
15235 On ch=1 n=g#6 v=0
15235 On ch=1 n=e6 v=0
15240 On ch=1 n=b5 v=60
15240 On ch=1 n=f#6 v=60
15262 Tempo 588235
15355 On ch=1 n=f#6 v=0
15355 On ch=1 n=b5 v=0
15360 Tempo 600000
15360 On ch=1 n=g#5 v=60
15360 On ch=1 n=e6 v=60
15760 On ch=1 n=e6 v=0
15760 On ch=1 n=g#5 v=0
15840 Tempo 500000
16080 On ch=1 n=g#7 v=60
16080 On ch=1 n=b7 v=60
16195 On ch=1 n=b7 v=0
16195 On ch=1 n=g#7 v=0
16200 On ch=1 n=f#7 v=60
16200 On ch=1 n=a7 v=60
16315 On ch=1 n=a7 v=0
16315 On ch=1 n=f#7 v=0
16320 On ch=1 n=e7 v=60
16320 On ch=1 n=g#7 v=60
16320 On ch=1 n=b4 v=60
16320 On ch=1 n=e4 v=60
16435 On ch=1 n=b4 v=0
16440 On ch=1 n=e5 v=60
16555 On ch=1 n=e5 v=0
16555 On ch=1 n=g#7 v=0
16555 On ch=1 n=e7 v=0
16560 On ch=1 n=e7 v=60
16560 On ch=1 n=g#7 v=60
16560 On ch=1 n=b5 v=60
16675 On ch=1 n=g#7 v=0
16675 On ch=1 n=e7 v=0
16680 On ch=1 n=b6 v=60
16680 On ch=1 n=f#7 v=60
16720 On ch=1 n=e4 v=0
16795 On ch=1 n=f#7 v=0
16795 On ch=1 n=b6 v=0
16795 On ch=1 n=b5 v=0
16800 On ch=1 n=g#6 v=60
16800 On ch=1 n=e7 v=60
16800 On ch=1 n=b5 v=60
16800 On ch=1 n=e5 v=60
16915 On ch=1 n=e5 v=0
16920 On ch=1 n=b4 v=60
17035 On ch=1 n=b4 v=0
17035 On ch=1 n=e7 v=0
17035 On ch=1 n=g#6 v=0
17040 On ch=1 n=g#6 v=60
17040 On ch=1 n=b6 v=60
17040 On ch=1 n=e4 v=60
17155 On ch=1 n=b6 v=0
17155 On ch=1 n=g#6 v=0
17160 On ch=1 n=f#6 v=60
17160 On ch=1 n=a6 v=60
17200 On ch=1 n=b5 v=0
17275 On ch=1 n=a6 v=0
17275 On ch=1 n=f#6 v=0
17275 On ch=1 n=e4 v=0
17280 On ch=1 n=e6 v=60
17280 On ch=1 n=g#6 v=60
17280 On ch=1 n=b4 v=60
17280 On ch=1 n=e4 v=60
17395 On ch=1 n=b4 v=0
17400 On ch=1 n=e5 v=60
17515 On ch=1 n=e5 v=0
17515 On ch=1 n=g#6 v=0
17515 On ch=1 n=e6 v=0
17520 On ch=1 n=e6 v=60
17520 On ch=1 n=g#6 v=60
17520 On ch=1 n=b5 v=60
17635 On ch=1 n=g#6 v=0
17635 On ch=1 n=e6 v=0
17640 On ch=1 n=b5 v=60
17640 On ch=1 n=f#6 v=60
17680 On ch=1 n=e4 v=0
17755 On ch=1 n=f#6 v=0
17755 On ch=1 n=b5 v=0
17755 On ch=1 n=b5 v=0
17760 On ch=1 n=g#5 v=60
17760 On ch=1 n=e6 v=60
17760 On ch=1 n=b5 v=60
17760 On ch=1 n=e5 v=60
17875 On ch=1 n=e5 v=0
17880 On ch=1 n=b4 v=60
17995 On ch=1 n=b4 v=0
17995 On ch=1 n=e6 v=0
17995 On ch=1 n=g#5 v=0
18000 On ch=1 n=g#5 v=60
18000 On ch=1 n=e6 v=60
18000 On ch=1 n=e4 v=60
18115 On ch=1 n=e6 v=0
18115 On ch=1 n=g#5 v=0
18120 On ch=1 n=b5 v=60
18120 On ch=1 n=f#6 v=60
18160 On ch=1 n=b5 v=0
18235 On ch=1 n=f#6 v=0
18235 On ch=1 n=b5 v=0
18235 On ch=1 n=e4 v=0
18240 On ch=1 n=e6 v=60
18240 On ch=1 n=g#6 v=60
18240 On ch=1 n=b4 v=60
18240 On ch=1 n=e4 v=60
18355 On ch=1 n=b4 v=0
18360 On ch=1 n=e5 v=60
18475 On ch=1 n=e5 v=0
18475 On ch=1 n=e4 v=0
18475 On ch=1 n=g#6 v=0
18475 On ch=1 n=e6 v=0
18480 On ch=1 n=b5 v=60
18480 On ch=1 n=f#6 v=60
18595 On ch=1 n=f#6 v=0
18595 On ch=1 n=b5 v=0
18600 On ch=1 n=e6 v=60
18600 On ch=1 n=g#6 v=60
18715 On ch=1 n=g#6 v=0
18715 On ch=1 n=e6 v=0
18720 On ch=1 n=f#6 v=60
18720 On ch=1 n=a6 v=60
18720 On ch=1 n=b5 v=60
18720 On ch=1 n=d#5 v=60
18835 On ch=1 n=d#5 v=0
18840 On ch=1 n=b4 v=60
18955 On ch=1 n=b4 v=0
18955 On ch=1 n=b5 v=0
18955 On ch=1 n=a6 v=0
18955 On ch=1 n=f#6 v=0
18960 On ch=1 n=b5 v=60
18960 On ch=1 n=f#6 v=60
19075 On ch=1 n=f#6 v=0
19075 On ch=1 n=b5 v=0
19080 On ch=1 n=f#6 v=60
19080 On ch=1 n=a6 v=60
19195 On ch=1 n=a6 v=0
19195 On ch=1 n=f#6 v=0
19200 On ch=1 n=g#6 v=60
19200 On ch=1 n=b6 v=60
19200 On ch=1 n=b4 v=60
19200 On ch=1 n=e4 v=60
19315 On ch=1 n=b4 v=0
19320 On ch=1 n=e5 v=60
19435 On ch=1 n=e5 v=0
19435 On ch=1 n=e4 v=0
19435 On ch=1 n=b6 v=0
19435 On ch=1 n=g#6 v=0
19440 On ch=1 n=f#6 v=60
19440 On ch=1 n=a6 v=60
19555 On ch=1 n=a6 v=0
19555 On ch=1 n=f#6 v=0
19560 On ch=1 n=e6 v=60
19560 On ch=1 n=g#6 v=60
19675 On ch=1 n=g#6 v=0
19675 On ch=1 n=e6 v=0
19680 On ch=1 n=b5 v=60
19680 On ch=1 n=f#6 v=60
19680 On ch=1 n=f#5 v=60
19680 On ch=1 n=d#5 v=60
19795 On ch=1 n=d#5 v=0
19800 On ch=1 n=b4 v=60
19915 On ch=1 n=b4 v=0
19915 On ch=1 n=f#5 v=0
19915 On ch=1 n=f#6 v=0
19915 On ch=1 n=b5 v=0
19920 On ch=1 n=g#7 v=60
19920 On ch=1 n=b7 v=60
20035 On ch=1 n=b7 v=0
20035 On ch=1 n=g#7 v=0
20040 On ch=1 n=f#7 v=60
20040 On ch=1 n=a7 v=60
20155 On ch=1 n=a7 v=0
20155 On ch=1 n=f#7 v=0
20160 On ch=1 n=e7 v=60
20160 On ch=1 n=g#7 v=60
20160 On ch=1 n=b4 v=60
20160 On ch=1 n=e4 v=60
20275 On ch=1 n=b4 v=0
20280 On ch=1 n=e5 v=60
20395 On ch=1 n=e5 v=0
20395 On ch=1 n=g#7 v=0
20395 On ch=1 n=e7 v=0
20400 On ch=1 n=e7 v=60
20400 On ch=1 n=g#7 v=60
20400 On ch=1 n=b5 v=60
20515 On ch=1 n=g#7 v=0
20515 On ch=1 n=e7 v=0
20520 On ch=1 n=b6 v=60
20520 On ch=1 n=f#7 v=60
20560 On ch=1 n=e4 v=0
20635 On ch=1 n=f#7 v=0
20635 On ch=1 n=b6 v=0
20635 On ch=1 n=b5 v=0
20640 On ch=1 n=g#6 v=60
20640 On ch=1 n=e7 v=60
20640 On ch=1 n=b5 v=60
20640 On ch=1 n=e5 v=60
20755 On ch=1 n=e5 v=0
20760 On ch=1 n=b4 v=60
20875 On ch=1 n=b4 v=0
20875 On ch=1 n=e7 v=0
20875 On ch=1 n=g#6 v=0
20880 On ch=1 n=g#6 v=60
20880 On ch=1 n=b6 v=60
20880 On ch=1 n=e4 v=60
20995 On ch=1 n=b6 v=0
20995 On ch=1 n=g#6 v=0
21000 On ch=1 n=f#6 v=60
21000 On ch=1 n=a6 v=60
21040 On ch=1 n=b5 v=0
21115 On ch=1 n=a6 v=0
21115 On ch=1 n=f#6 v=0
21115 On ch=1 n=e4 v=0
21120 On ch=1 n=e6 v=60
21120 On ch=1 n=g#6 v=60
21120 On ch=1 n=b4 v=60
21120 On ch=1 n=e4 v=60
21235 On ch=1 n=b4 v=0
21240 On ch=1 n=e5 v=60
21355 On ch=1 n=e5 v=0
21355 On ch=1 n=g#6 v=0
21355 On ch=1 n=e6 v=0
21360 On ch=1 n=e6 v=60
21360 On ch=1 n=g#6 v=60
21360 On ch=1 n=b5 v=60
21475 On ch=1 n=g#6 v=0
21475 On ch=1 n=e6 v=0
21480 On ch=1 n=b5 v=60
21480 On ch=1 n=f#6 v=60
21520 On ch=1 n=e4 v=0
21595 On ch=1 n=f#6 v=0
21595 On ch=1 n=b5 v=0
21595 On ch=1 n=b5 v=0
21600 On ch=1 n=g#5 v=60
21600 On ch=1 n=e6 v=60
21600 On ch=1 n=b5 v=60
21600 On ch=1 n=e5 v=60
21715 On ch=1 n=e5 v=0
21720 On ch=1 n=b4 v=60
21835 On ch=1 n=b4 v=0
21835 On ch=1 n=e6 v=0
21835 On ch=1 n=g#5 v=0
21840 On ch=1 n=g#5 v=60
21840 On ch=1 n=e6 v=60
21840 On ch=1 n=e4 v=60
21955 On ch=1 n=e6 v=0
21955 On ch=1 n=g#5 v=0
21960 On ch=1 n=b5 v=60
21960 On ch=1 n=f#6 v=60
22000 On ch=1 n=b5 v=0
22075 On ch=1 n=f#6 v=0
22075 On ch=1 n=b5 v=0
22075 On ch=1 n=e4 v=0
22080 On ch=1 n=e6 v=60
22080 On ch=1 n=g#6 v=60
22080 On ch=1 n=b4 v=60
22080 On ch=1 n=e4 v=60
22195 On ch=1 n=b4 v=0
22200 On ch=1 n=e5 v=60
22315 On ch=1 n=e5 v=0
22315 On ch=1 n=e4 v=0
22315 On ch=1 n=g#6 v=0
22315 On ch=1 n=e6 v=0
22320 On ch=1 n=f#6 v=60
22320 On ch=1 n=a6 v=60
22435 On ch=1 n=a6 v=0
22435 On ch=1 n=f#6 v=0
22440 On ch=1 n=e6 v=60
22440 On ch=1 n=g#6 v=60
22555 On ch=1 n=g#6 v=0
22555 On ch=1 n=e6 v=0
22560 On ch=1 n=b5 v=60
22560 On ch=1 n=f#6 v=60
22560 On ch=1 n=a5 v=60
22560 On ch=1 n=d#5 v=60
22675 On ch=1 n=d#5 v=0
22680 On ch=1 n=b4 v=60
22795 On ch=1 n=b4 v=0
22795 On ch=1 n=a5 v=0
22795 On ch=1 n=f#6 v=0
22795 On ch=1 n=b5 v=0
22800 On ch=1 n=e6 v=60
22800 On ch=1 n=g#6 v=60
22915 On ch=1 n=g#6 v=0
22915 On ch=1 n=e6 v=0
22920 On ch=1 n=b5 v=60
22920 On ch=1 n=f#6 v=60
23035 On ch=1 n=f#6 v=0
23035 On ch=1 n=b5 v=0
23040 On ch=1 n=g#5 v=60
23040 On ch=1 n=e6 v=60
23040 On ch=1 n=e4 v=60
23155 On ch=1 n=e4 v=0
23160 On ch=1 n=b4 v=60
23275 On ch=1 n=b4 v=0
23280 On ch=1 n=g#5 v=60
23395 On ch=1 n=g#5 v=0
23400 On ch=1 n=e5 v=60
23440 On ch=1 n=g#5 v=0
23440 On ch=1 n=e6 v=0
23515 On ch=1 n=e5 v=0
23520 On ch=1 n=b5 v=60
23755 On ch=1 n=b5 v=0
23760 On ch=1 n=g#4 v=92
23760 On ch=1 n=e5 v=92
23875 On ch=1 n=e5 v=0
23875 On ch=1 n=g#4 v=0
23880 On ch=1 n=e5 v=92
23880 On ch=1 n=g#5 v=92
23995 On ch=1 n=g#5 v=0
23995 On ch=1 n=e5 v=0
24000 On ch=1 n=b4 v=92
24000 On ch=1 n=f#5 v=92
24235 On ch=1 n=f#5 v=0
24235 On ch=1 n=b4 v=0
24240 On ch=1 n=e5 v=92
24240 On ch=1 n=g#5 v=92
24355 On ch=1 n=g#5 v=0
24355 On ch=1 n=e5 v=0
24360 On ch=1 n=f#5 v=92
24360 On ch=1 n=a5 v=92
24475 On ch=1 n=a5 v=0
24475 On ch=1 n=f#5 v=0
24480 On ch=1 n=g#5 v=92
24480 On ch=1 n=b5 v=92
24715 On ch=1 n=b5 v=0
24715 On ch=1 n=g#5 v=0
24720 On ch=1 n=a5 v=92
24720 On ch=1 n=c#6 v=92
24835 On ch=1 n=c#6 v=0
24835 On ch=1 n=a5 v=0
24840 On ch=1 n=g#5 v=92
24840 On ch=1 n=b5 v=92
24955 On ch=1 n=b5 v=0
24955 On ch=1 n=g#5 v=0
24960 On ch=1 n=f#5 v=92
24960 On ch=1 n=a5 v=92
25195 On ch=1 n=a5 v=0
25195 On ch=1 n=f#5 v=0
25200 On ch=1 n=e5 v=92
25200 On ch=1 n=g#5 v=92
25315 On ch=1 n=g#5 v=0
25315 On ch=1 n=e5 v=0
25320 On ch=1 n=f#5 v=92
25320 On ch=1 n=a5 v=92
25435 On ch=1 n=a5 v=0
25435 On ch=1 n=f#5 v=0
25440 On ch=1 n=b4 v=92
25440 On ch=1 n=f#5 v=92
25675 On ch=1 n=f#5 v=0
25675 On ch=1 n=b4 v=0
25680 Tempo 545454
25680 On ch=1 n=g#4 v=92
25680 On ch=1 n=e5 v=92
25795 On ch=1 n=e5 v=0
25795 On ch=1 n=g#4 v=0
25800 On ch=1 n=e5 v=92
25800 On ch=1 n=g#5 v=92
25915 On ch=1 n=g#5 v=0
25915 On ch=1 n=e5 v=0
25920 On ch=1 n=b4 v=92
25920 On ch=1 n=f#5 v=92
26155 On ch=1 n=f#5 v=0
26155 On ch=1 n=b4 v=0
26160 On ch=1 n=e5 v=92
26160 On ch=1 n=g#5 v=92
26275 On ch=1 n=g#5 v=0
26275 On ch=1 n=e5 v=0
26280 On ch=1 n=f#5 v=92
26280 On ch=1 n=a5 v=92
26395 On ch=1 n=a5 v=0
26395 On ch=1 n=f#5 v=0
26400 On ch=1 n=g#5 v=92
26400 On ch=1 n=b5 v=92
26635 On ch=1 n=b5 v=0
26635 On ch=1 n=g#5 v=0
26640 On ch=1 n=a5 v=92
26640 On ch=1 n=c#6 v=92
26755 On ch=1 n=c#6 v=0
26755 On ch=1 n=a5 v=0
26760 On ch=1 n=g#5 v=92
26760 On ch=1 n=b5 v=92
26875 On ch=1 n=b5 v=0
26875 On ch=1 n=g#5 v=0
26880 On ch=1 n=f#5 v=92
26880 On ch=1 n=a5 v=92
27115 On ch=1 n=a5 v=0
27115 On ch=1 n=f#5 v=0
27120 On ch=1 n=e5 v=92
27120 On ch=1 n=g#5 v=92
27235 On ch=1 n=g#5 v=0
27235 On ch=1 n=e5 v=0
27240 On ch=1 n=f#5 v=92
27240 On ch=1 n=a5 v=92
27355 On ch=1 n=a5 v=0
27355 On ch=1 n=f#5 v=0
27360 On ch=1 n=b4 v=92
27360 On ch=1 n=f#5 v=92
27595 On ch=1 n=f#5 v=0
27595 On ch=1 n=b4 v=0
27600 Tempo 500000
27600 On ch=1 n=g#7 v=60
27600 On ch=1 n=b7 v=60
27715 On ch=1 n=b7 v=0
27715 On ch=1 n=g#7 v=0
27720 On ch=1 n=f#7 v=60
27720 On ch=1 n=a7 v=60
27835 On ch=1 n=a7 v=0
27835 On ch=1 n=f#7 v=0
27840 On ch=1 n=e7 v=60
27840 On ch=1 n=g#7 v=60
27840 On ch=1 n=b4 v=60
27840 On ch=1 n=e4 v=60
27955 On ch=1 n=b4 v=0
27960 On ch=1 n=e5 v=60
28075 On ch=1 n=e5 v=0
28075 On ch=1 n=g#7 v=0
28075 On ch=1 n=e7 v=0
28080 On ch=1 n=e7 v=60
28080 On ch=1 n=g#7 v=60
28080 On ch=1 n=b5 v=60
28195 On ch=1 n=g#7 v=0
28195 On ch=1 n=e7 v=0
28200 On ch=1 n=b6 v=60
28200 On ch=1 n=f#7 v=60
28240 On ch=1 n=e4 v=0
28315 On ch=1 n=f#7 v=0
28315 On ch=1 n=b6 v=0
28315 On ch=1 n=b5 v=0
28320 On ch=1 n=g#6 v=60
28320 On ch=1 n=e7 v=60
28320 On ch=1 n=b5 v=60
28320 On ch=1 n=e5 v=60
28435 On ch=1 n=e5 v=0
28440 On ch=1 n=b4 v=60
28555 On ch=1 n=b4 v=0
28555 On ch=1 n=e7 v=0
28555 On ch=1 n=g#6 v=0
28560 On ch=1 n=g#6 v=60
28560 On ch=1 n=b6 v=60
28560 On ch=1 n=e4 v=60
28675 On ch=1 n=b6 v=0
28675 On ch=1 n=g#6 v=0
28680 On ch=1 n=f#6 v=60
28680 On ch=1 n=a6 v=60
28720 On ch=1 n=b5 v=0
28795 On ch=1 n=a6 v=0
28795 On ch=1 n=f#6 v=0
28795 On ch=1 n=e4 v=0
28800 On ch=1 n=e6 v=60
28800 On ch=1 n=g#6 v=60
28800 On ch=1 n=b4 v=60
28800 On ch=1 n=e4 v=60
28915 On ch=1 n=b4 v=0
28920 On ch=1 n=e5 v=60
29035 On ch=1 n=e5 v=0
29035 On ch=1 n=g#6 v=0
29035 On ch=1 n=e6 v=0
29040 On ch=1 n=e6 v=60
29040 On ch=1 n=g#6 v=60
29040 On ch=1 n=b5 v=60
29155 On ch=1 n=g#6 v=0
29155 On ch=1 n=e6 v=0
29160 On ch=1 n=b5 v=60
29160 On ch=1 n=f#6 v=60
29200 On ch=1 n=e4 v=0
29275 On ch=1 n=f#6 v=0
29275 On ch=1 n=b5 v=0
29275 On ch=1 n=b5 v=0
29280 On ch=1 n=g#5 v=60
29280 On ch=1 n=e6 v=60
29280 On ch=1 n=b5 v=60
29280 On ch=1 n=e5 v=60
29395 On ch=1 n=e5 v=0
29400 On ch=1 n=b4 v=60
29515 On ch=1 n=b4 v=0
29515 On ch=1 n=e6 v=0
29515 On ch=1 n=g#5 v=0
29520 On ch=1 n=g#4 v=60
29520 On ch=1 n=e5 v=60
29520 On ch=1 n=e4 v=60
29635 On ch=1 n=e5 v=0
29635 On ch=1 n=g#4 v=0
29640 On ch=1 n=b4 v=60
29640 On ch=1 n=f#5 v=60
29680 On ch=1 n=b5 v=0
29755 On ch=1 n=f#5 v=0
29755 On ch=1 n=b4 v=0
29755 On ch=1 n=e4 v=0
29760 Tempo 500000
29760 On ch=1 n=e5 v=60
29760 On ch=1 n=g#5 v=60
29855 Tempo 508474
29950 Tempo 517241
29995 On ch=1 n=g#5 v=0
29995 On ch=1 n=e5 v=0
30000 On ch=1 n=f#5 v=60
30000 On ch=1 n=a5 v=60
30047 Tempo 526315
30115 On ch=1 n=a5 v=0
30115 On ch=1 n=f#5 v=0
30120 On ch=1 n=e5 v=60
30120 On ch=1 n=g#5 v=60
30142 Tempo 535714
30235 On ch=1 n=g#5 v=0
30235 On ch=1 n=e5 v=0
30240 Tempo 545454
30240 On ch=1 n=b4 v=60
30240 On ch=1 n=f#5 v=60
30335 Tempo 555555
30430 Tempo 566037
30475 On ch=1 n=f#5 v=0
30475 On ch=1 n=b4 v=0
30480 On ch=1 n=e5 v=60
30480 On ch=1 n=g#5 v=60
30527 Tempo 576923
30595 On ch=1 n=g#5 v=0
30595 On ch=1 n=e5 v=0
30600 On ch=1 n=b4 v=60
30600 On ch=1 n=f#5 v=60
30622 Tempo 588235
30715 On ch=1 n=f#5 v=0
30715 On ch=1 n=b4 v=0
30720 Tempo 600000
30720 On ch=1 n=g#4 v=60
30720 On ch=1 n=e5 v=60
31360 On ch=1 n=e5 v=0
31360 On ch=1 n=g#4 v=0
31440 Tempo 500000
31440 On ch=1 n=b4 v=92
31440 On ch=1 n=b5 v=92
31520 On ch=1 n=b5 v=0
31520 On ch=1 n=b4 v=0
31680 KeySig 1 major
31680 On ch=1 n=e5 v=108
31680 On ch=1 n=g5 v=108
31680 On ch=1 n=b5 v=108
31680 On ch=1 n=b4 v=92
31680 On ch=1 n=e3 v=92
31680 On ch=1 n=b3 v=92
31915 On ch=1 n=b3 v=0
31915 On ch=1 n=e3 v=0
31915 On ch=1 n=b4 v=0
31915 On ch=1 n=b5 v=0
31915 On ch=1 n=g5 v=0
31915 On ch=1 n=e5 v=0
31920 On ch=1 n=a4 v=92
32035 On ch=1 n=a4 v=0
32040 On ch=1 n=g4 v=92
32155 On ch=1 n=g4 v=0
32160 On ch=1 n=f#5 v=108
32160 On ch=1 n=a5 v=108
32160 On ch=1 n=a4 v=92
32160 On ch=1 n=d#3 v=92
32160 On ch=1 n=b3 v=92
32395 On ch=1 n=b3 v=0
32395 On ch=1 n=d#3 v=0
32395 On ch=1 n=a4 v=0
32395 On ch=1 n=a5 v=0
32395 On ch=1 n=f#5 v=0
32400 On ch=1 n=g4 v=92
32515 On ch=1 n=g4 v=0
32520 On ch=1 n=f#4 v=92
32635 On ch=1 n=f#4 v=0
32640 On ch=1 n=e5 v=108
32640 On ch=1 n=g5 v=108
32640 On ch=1 n=g4 v=92
32640 On ch=1 n=e3 v=92
32640 On ch=1 n=b3 v=92
32875 On ch=1 n=b3 v=0
32875 On ch=1 n=e3 v=0
32875 On ch=1 n=g4 v=0
32875 On ch=1 n=g5 v=0
32875 On ch=1 n=e5 v=0
32880 On ch=1 n=f#4 v=92
32995 On ch=1 n=f#4 v=0
33000 On ch=1 n=e4 v=92
33115 On ch=1 n=e4 v=0
33120 On ch=1 n=e5 v=108
33120 On ch=1 n=g5 v=108
33120 On ch=1 n=g4 v=92
33120 On ch=1 n=c3 v=92
33120 On ch=1 n=c4 v=92
33355 On ch=1 n=c4 v=0
33355 On ch=1 n=c3 v=0
33355 On ch=1 n=g4 v=0
33355 On ch=1 n=g5 v=0
33355 On ch=1 n=e5 v=0
33360 On ch=1 n=f#4 v=92
33475 On ch=1 n=f#4 v=0
33480 On ch=1 n=e4 v=92
33595 On ch=1 n=e4 v=0
33600 On ch=1 n=b4 v=108
33600 On ch=1 n=e5 v=108
33600 On ch=1 n=g5 v=108
33600 On ch=1 n=g4 v=92
33600 On ch=1 n=b2 v=92
33600 On ch=1 n=b3 v=92
33835 On ch=1 n=b3 v=0
33835 On ch=1 n=b2 v=0
33835 On ch=1 n=g4 v=0
33835 On ch=1 n=g5 v=0
33835 On ch=1 n=e5 v=0
33835 On ch=1 n=b4 v=0
33840 On ch=1 n=f#4 v=92
33955 On ch=1 n=f#4 v=0
33960 On ch=1 n=e4 v=92
34075 On ch=1 n=e4 v=0
34080 On ch=1 n=g4 v=108
34080 On ch=1 n=c#5 v=108
34080 On ch=1 n=e5 v=108
34080 On ch=1 n=e4 v=92
34080 On ch=1 n=a#2 v=92
34080 On ch=1 n=a#3 v=92
34315 On ch=1 n=a#3 v=0
34315 On ch=1 n=a#2 v=0
34315 On ch=1 n=e4 v=0
34315 On ch=1 n=e5 v=0
34315 On ch=1 n=c#5 v=0
34315 On ch=1 n=g4 v=0
34320 On ch=1 n=d#4 v=92
34435 On ch=1 n=d#4 v=0
34440 On ch=1 n=e4 v=92
34555 On ch=1 n=e4 v=0
34560 On ch=1 n=g4 v=108
34560 On ch=1 n=b4 v=108
34560 On ch=1 n=e5 v=108
34560 On ch=1 n=g5 v=108
34560 On ch=1 n=b2 v=92
34560 On ch=1 n=b3 v=92
35040 On ch=1 n=b3 v=0
35040 On ch=1 n=b2 v=0
35040 On ch=1 n=g5 v=0
35040 On ch=1 n=e5 v=0
35040 On ch=1 n=b4 v=0
35040 On ch=1 n=g4 v=0
35040 On ch=1 n=f#4 v=108
35040 On ch=1 n=d#5 v=108
35040 On ch=1 n=f#5 v=108
35040 On ch=1 n=b2 v=92
35040 On ch=1 n=b3 v=92
35120 On ch=1 n=b3 v=0
35120 On ch=1 n=b2 v=0
35120 On ch=1 n=f#5 v=0
35120 On ch=1 n=d#5 v=0
35120 On ch=1 n=f#4 v=0
35280 On ch=1 n=d5 v=108
35280 On ch=1 n=d4 v=108
35360 On ch=1 n=d4 v=0
35360 On ch=1 n=d5 v=0
35520 On ch=1 n=b4 v=108
35520 On ch=1 n=d5 v=108
35520 On ch=1 n=g5 v=108
35520 On ch=1 n=g4 v=92
35520 On ch=1 n=g2 v=92
35520 On ch=1 n=g3 v=92
35755 On ch=1 n=g3 v=0
35755 On ch=1 n=g2 v=0
35755 On ch=1 n=g4 v=0
35755 On ch=1 n=g5 v=0
35755 On ch=1 n=d5 v=0
35755 On ch=1 n=b4 v=0
35760 On ch=1 n=f#4 v=92
35875 On ch=1 n=f#4 v=0
35880 On ch=1 n=g4 v=92
35995 On ch=1 n=g4 v=0
36000 On ch=1 n=d5 v=108
36000 On ch=1 n=f#5 v=108
36000 On ch=1 n=a5 v=108
36000 On ch=1 n=a4 v=92
36000 On ch=1 n=d3 v=92
36000 On ch=1 n=d4 v=92
36235 On ch=1 n=d4 v=0
36235 On ch=1 n=d3 v=0
36235 On ch=1 n=a4 v=0
36235 On ch=1 n=a5 v=0
36235 On ch=1 n=f#5 v=0
36235 On ch=1 n=d5 v=0
36240 On ch=1 n=g4 v=92
36355 On ch=1 n=g4 v=0
36360 On ch=1 n=a4 v=92
36475 On ch=1 n=a4 v=0
36480 On ch=1 n=d5 v=108
36480 On ch=1 n=g5 v=108
36480 On ch=1 n=b5 v=108
36480 On ch=1 n=b4 v=92
36480 On ch=1 n=g3 v=92
36480 On ch=1 n=g4 v=92
36715 On ch=1 n=g4 v=0
36715 On ch=1 n=g3 v=0
36715 On ch=1 n=b4 v=0
36715 On ch=1 n=b5 v=0
36715 On ch=1 n=g5 v=0
36715 On ch=1 n=d5 v=0
36720 On ch=1 n=a4 v=92
36835 On ch=1 n=a4 v=0
36840 On ch=1 n=b4 v=92
36955 On ch=1 n=b4 v=0
36960 On ch=1 n=e5 v=108
36960 On ch=1 n=g5 v=108
36960 On ch=1 n=c6 v=108
36960 On ch=1 n=c5 v=92
36960 On ch=1 n=c3 v=92
36960 On ch=1 n=c4 v=92
37195 On ch=1 n=c4 v=0
37195 On ch=1 n=c3 v=0
37195 On ch=1 n=c5 v=0
37195 On ch=1 n=c6 v=0
37195 On ch=1 n=g5 v=0
37195 On ch=1 n=e5 v=0
37200 On ch=1 n=d5 v=92
37315 On ch=1 n=d5 v=0
37320 On ch=1 n=e5 v=92
37435 On ch=1 n=e5 v=0
37440 On ch=1 n=b4 v=108
37440 On ch=1 n=d5 v=108
37440 On ch=1 n=g5 v=108
37440 On ch=1 n=g4 v=92
37440 On ch=1 n=d3 v=92
37440 On ch=1 n=d4 v=92
37675 On ch=1 n=d4 v=0
37675 On ch=1 n=d3 v=0
37675 On ch=1 n=g4 v=0
37675 On ch=1 n=g5 v=0
37675 On ch=1 n=d5 v=0
37675 On ch=1 n=b4 v=0
37680 On ch=1 n=a4 v=92
37795 On ch=1 n=a4 v=0
37800 On ch=1 n=b4 v=92
37915 On ch=1 n=b4 v=0
37920 On ch=1 n=c5 v=108
37920 On ch=1 n=f#5 v=108
37920 On ch=1 n=a5 v=108
37920 On ch=1 n=a4 v=92
37920 On ch=1 n=d3 v=92
37920 On ch=1 n=d4 v=92
38155 On ch=1 n=d4 v=0
38155 On ch=1 n=d3 v=0
38155 On ch=1 n=a4 v=0
38155 On ch=1 n=a5 v=0
38155 On ch=1 n=f#5 v=0
38155 On ch=1 n=c5 v=0
38160 On ch=1 n=d5 v=92
38275 On ch=1 n=d5 v=0
38280 On ch=1 n=f#4 v=92
38395 On ch=1 n=f#4 v=0
38400 On ch=1 n=g4 v=108
38400 On ch=1 n=b4 v=108
38400 On ch=1 n=d5 v=108
38400 On ch=1 n=g5 v=108
38400 On ch=1 n=g2 v=92
38400 On ch=1 n=g3 v=92
38800 On ch=1 n=g3 v=0
38800 On ch=1 n=g2 v=0
38800 On ch=1 n=g5 v=0
38800 On ch=1 n=d5 v=0
38800 On ch=1 n=b4 v=0
38800 On ch=1 n=g4 v=0
39120 On ch=1 n=b4 v=108
39120 On ch=1 n=b5 v=108
39200 On ch=1 n=b5 v=0
39200 On ch=1 n=b4 v=0
39360 On ch=1 n=f#5 v=108
39360 On ch=1 n=a5 v=108
39360 On ch=1 n=a4 v=92
39360 On ch=1 n=d#3 v=92
39360 On ch=1 n=b3 v=92
39360 On ch=1 n=d#4 v=92
39595 On ch=1 n=d#4 v=0
39595 On ch=1 n=b3 v=0
39595 On ch=1 n=d#3 v=0
39595 On ch=1 n=a4 v=0
39595 On ch=1 n=a5 v=0
39595 On ch=1 n=f#5 v=0
39600 On ch=1 n=g4 v=92
39715 On ch=1 n=g4 v=0
39720 On ch=1 n=f#4 v=92
39835 On ch=1 n=f#4 v=0
39840 On ch=1 n=e5 v=108
39840 On ch=1 n=g5 v=108
39840 On ch=1 n=g4 v=92
39840 On ch=1 n=e3 v=92
39840 On ch=1 n=b3 v=92
39840 On ch=1 n=e4 v=92
40075 On ch=1 n=e4 v=0
40075 On ch=1 n=b3 v=0
40075 On ch=1 n=e3 v=0
40075 On ch=1 n=g4 v=0
40075 On ch=1 n=g5 v=0
40075 On ch=1 n=e5 v=0
40080 On ch=1 n=f#4 v=92
40195 On ch=1 n=f#4 v=0
40200 On ch=1 n=e4 v=92
40315 On ch=1 n=e4 v=0
40320 On ch=1 n=d#4 v=108
40320 On ch=1 n=b4 v=108
40320 On ch=1 n=d#5 v=108
40320 On ch=1 n=b2 v=92
40320 On ch=1 n=f#3 v=92
40320 On ch=1 n=b3 v=92
40555 On ch=1 n=b3 v=0
40555 On ch=1 n=f#3 v=0
40555 On ch=1 n=b2 v=0
40555 On ch=1 n=d#5 v=0
40555 On ch=1 n=b4 v=0
40555 On ch=1 n=d#4 v=0
40560 On ch=1 n=b3 v=108
40560 On ch=1 n=b4 v=108
40675 On ch=1 n=b4 v=0
40675 On ch=1 n=b3 v=0
40680 On ch=1 n=c4 v=108
40680 On ch=1 n=c5 v=108
40795 On ch=1 n=c5 v=0
40795 On ch=1 n=c4 v=0
40800 On ch=1 n=b3 v=108
40800 On ch=1 n=b4 v=108
41035 On ch=1 n=b4 v=0
41035 On ch=1 n=b3 v=0
41040 On ch=1 n=b4 v=108
41040 On ch=1 n=b5 v=108
41120 On ch=1 n=b5 v=0
41120 On ch=1 n=b4 v=0
41280 On ch=1 n=f#5 v=108
41280 On ch=1 n=a5 v=108
41280 On ch=1 n=a4 v=92
41280 On ch=1 n=d#3 v=92
41280 On ch=1 n=b3 v=92
41280 On ch=1 n=d#4 v=92
41515 On ch=1 n=d#4 v=0
41515 On ch=1 n=b3 v=0
41515 On ch=1 n=d#3 v=0
41515 On ch=1 n=a4 v=0
41515 On ch=1 n=a5 v=0
41515 On ch=1 n=f#5 v=0
41520 On ch=1 n=g4 v=92
41635 On ch=1 n=g4 v=0
41640 On ch=1 n=f#4 v=92
41755 On ch=1 n=f#4 v=0
41760 On ch=1 n=e5 v=108
41760 On ch=1 n=g5 v=108
41760 On ch=1 n=g4 v=92
41760 On ch=1 n=e3 v=92
41760 On ch=1 n=b3 v=92
41760 On ch=1 n=e4 v=92
41995 On ch=1 n=e4 v=0
41995 On ch=1 n=b3 v=0
41995 On ch=1 n=e3 v=0
41995 On ch=1 n=g4 v=0
41995 On ch=1 n=g5 v=0
41995 On ch=1 n=e5 v=0
42000 On ch=1 n=f#4 v=92
42115 On ch=1 n=f#4 v=0
42120 On ch=1 n=e4 v=92
42235 On ch=1 n=e4 v=0
42240 On ch=1 n=b4 v=108
42240 On ch=1 n=d#5 v=108
42240 On ch=1 n=b5 v=108
42240 On ch=1 n=b2 v=92
42240 On ch=1 n=f#3 v=92
42240 On ch=1 n=b3 v=92
42475 On ch=1 n=b3 v=0
42475 On ch=1 n=f#3 v=0
42475 On ch=1 n=b2 v=0
42475 On ch=1 n=b5 v=0
42475 On ch=1 n=d#5 v=0
42475 On ch=1 n=b4 v=0
42480 On ch=1 n=a#4 v=108
42595 On ch=1 n=a#4 v=0
42600 On ch=1 n=c5 v=108
42715 On ch=1 n=c5 v=0
42720 On ch=1 n=b4 v=108
42955 On ch=1 n=b4 v=0
42960 On ch=1 n=b4 v=108
42960 On ch=1 n=b5 v=108
43040 On ch=1 n=b5 v=0
43040 On ch=1 n=b4 v=0
43200 On ch=1 n=b5 v=108
43200 On ch=1 n=e6 v=108
43200 On ch=1 n=e5 v=92
43200 On ch=1 n=g#3 v=92
43200 On ch=1 n=e4 v=92
43200 On ch=1 n=g#4 v=92
43435 On ch=1 n=g#4 v=0
43435 On ch=1 n=e4 v=0
43435 On ch=1 n=g#3 v=0
43435 On ch=1 n=e5 v=0
43435 On ch=1 n=e6 v=0
43435 On ch=1 n=b5 v=0
43440 On ch=1 n=d5 v=92
43555 On ch=1 n=d5 v=0
43560 On ch=1 n=b4 v=92
43675 On ch=1 n=b4 v=0
43680 On ch=1 n=e5 v=108
43680 On ch=1 n=c6 v=108
43680 On ch=1 n=c5 v=92
43680 On ch=1 n=a3 v=92
43680 On ch=1 n=e4 v=92
43680 On ch=1 n=a4 v=92
43915 On ch=1 n=a4 v=0
43915 On ch=1 n=e4 v=0
43915 On ch=1 n=a3 v=0
43915 On ch=1 n=c5 v=0
43915 On ch=1 n=c6 v=0
43915 On ch=1 n=e5 v=0
43920 On ch=1 n=b4 v=92
44035 On ch=1 n=b4 v=0
44040 On ch=1 n=a4 v=92
44155 On ch=1 n=a4 v=0
44160 On ch=1 n=a5 v=108
44160 On ch=1 n=d6 v=108
44160 On ch=1 n=d5 v=92
44160 On ch=1 n=f#3 v=92
44160 On ch=1 n=d4 v=92
44160 On ch=1 n=f#4 v=92
44395 On ch=1 n=f#4 v=0
44395 On ch=1 n=d4 v=0
44395 On ch=1 n=f#3 v=0
44395 On ch=1 n=d5 v=0
44395 On ch=1 n=d6 v=0
44395 On ch=1 n=a5 v=0
44400 On ch=1 n=c5 v=92
44515 On ch=1 n=c5 v=0
44520 On ch=1 n=a4 v=92
44635 On ch=1 n=a4 v=0
44640 On ch=1 n=d5 v=108
44640 On ch=1 n=b5 v=108
44640 On ch=1 n=b4 v=92
44640 On ch=1 n=g3 v=92
44640 On ch=1 n=d4 v=92
44640 On ch=1 n=g4 v=92
44875 On ch=1 n=g4 v=0
44875 On ch=1 n=d4 v=0
44875 On ch=1 n=g3 v=0
44875 On ch=1 n=b4 v=0
44875 On ch=1 n=b5 v=0
44875 On ch=1 n=d5 v=0
44880 On ch=1 n=a4 v=92
44995 On ch=1 n=a4 v=0
45000 On ch=1 n=g4 v=92
45115 On ch=1 n=g4 v=0
45120 On ch=1 n=g5 v=108
45120 On ch=1 n=c6 v=108
45120 On ch=1 n=c5 v=92
45120 On ch=1 n=e3 v=92
45120 On ch=1 n=c4 v=92
45120 On ch=1 n=e4 v=92
45355 On ch=1 n=e4 v=0
45355 On ch=1 n=c4 v=0
45355 On ch=1 n=e3 v=0
45355 On ch=1 n=c5 v=0
45355 On ch=1 n=c6 v=0
45355 On ch=1 n=g5 v=0
45360 On ch=1 n=b4 v=92
45475 On ch=1 n=b4 v=0
45480 On ch=1 n=g4 v=92
45595 On ch=1 n=g4 v=0
45600 On ch=1 n=c5 v=108
45600 On ch=1 n=a5 v=108
45600 On ch=1 n=a4 v=92
45600 On ch=1 n=f#3 v=92
45600 On ch=1 n=c4 v=92
45600 On ch=1 n=f#4 v=92
45835 On ch=1 n=f#4 v=0
45835 On ch=1 n=c4 v=0
45835 On ch=1 n=f#3 v=0
45835 On ch=1 n=a4 v=0
45835 On ch=1 n=a5 v=0
45835 On ch=1 n=c5 v=0
45840 On ch=1 n=g4 v=92
45955 On ch=1 n=g4 v=0
45960 On ch=1 n=f#4 v=92
46075 On ch=1 n=f#4 v=0
46080 On ch=1 n=f#5 v=108
46080 On ch=1 n=b5 v=108
46080 On ch=1 n=b4 v=92
46080 On ch=1 n=d#3 v=92
46080 On ch=1 n=b3 v=92
46080 On ch=1 n=d#4 v=92
46315 On ch=1 n=d#4 v=0
46315 On ch=1 n=b3 v=0
46315 On ch=1 n=d#3 v=0
46315 On ch=1 n=b4 v=0
46315 On ch=1 n=b5 v=0
46315 On ch=1 n=f#5 v=0
46320 On ch=1 n=a4 v=92
46435 On ch=1 n=a4 v=0
46440 On ch=1 n=f#4 v=92
46555 On ch=1 n=f#4 v=0
46560 On ch=1 n=b4 v=108
46560 On ch=1 n=g5 v=108
46560 On ch=1 n=g4 v=92
46560 On ch=1 n=e3 v=92
46560 On ch=1 n=b3 v=92
46560 On ch=1 n=e4 v=92
46795 On ch=1 n=e4 v=0
46795 On ch=1 n=b3 v=0
46795 On ch=1 n=e3 v=0
46795 On ch=1 n=g4 v=0
46795 On ch=1 n=g5 v=0
46795 On ch=1 n=b4 v=0
46800 On ch=1 n=f#4 v=92
46915 On ch=1 n=f#4 v=0
46920 On ch=1 n=e4 v=92
47035 On ch=1 n=e4 v=0
47040 On ch=1 n=c5 v=108
47040 On ch=1 n=e5 v=108
47040 On ch=1 n=g5 v=108
47040 On ch=1 n=g4 v=92
47040 On ch=1 n=c3 v=92
47040 On ch=1 n=c4 v=92
47275 On ch=1 n=c4 v=0
47275 On ch=1 n=c3 v=0
47275 On ch=1 n=g4 v=0
47275 On ch=1 n=g5 v=0
47275 On ch=1 n=e5 v=0
47275 On ch=1 n=c5 v=0
47280 On ch=1 n=f#4 v=92
47395 On ch=1 n=f#4 v=0
47400 On ch=1 n=e4 v=92
47515 On ch=1 n=e4 v=0
47520 On ch=1 n=c#5 v=108
47520 On ch=1 n=e5 v=108
47520 On ch=1 n=g5 v=108
47520 On ch=1 n=g4 v=92
47520 On ch=1 n=a#2 v=92
47520 On ch=1 n=a#3 v=92
47755 On ch=1 n=a#3 v=0
47755 On ch=1 n=a#2 v=0
47755 On ch=1 n=g4 v=0
47755 On ch=1 n=g5 v=0
47755 On ch=1 n=e5 v=0
47755 On ch=1 n=c#5 v=0
47760 On ch=1 n=f#4 v=92
47875 On ch=1 n=f#4 v=0
47880 On ch=1 n=e4 v=92
47995 On ch=1 n=e4 v=0
48000 On ch=1 n=b4 v=108
48000 On ch=1 n=d#5 v=108
48000 On ch=1 n=d#4 v=92
48000 On ch=1 n=b2 v=92
48000 On ch=1 n=b3 v=92
48235 On ch=1 n=b3 v=0
48235 On ch=1 n=b2 v=0
48235 On ch=1 n=d#4 v=0
48235 On ch=1 n=d#5 v=0
48235 On ch=1 n=b4 v=0
48240 On ch=1 n=e4 v=92
48355 On ch=1 n=e4 v=0
48360 On ch=1 n=f#4 v=92
48475 On ch=1 n=f#4 v=0
48480 On ch=1 n=g4 v=108
48480 On ch=1 n=e5 v=108
48480 On ch=1 n=e4 v=92
48480 On ch=1 n=c3 v=92
48480 On ch=1 n=c4 v=92
48715 On ch=1 n=c4 v=0
48715 On ch=1 n=c3 v=0
48715 On ch=1 n=e4 v=0
48715 On ch=1 n=e5 v=0
48715 On ch=1 n=g4 v=0
48720 On ch=1 n=f#4 v=92
48835 On ch=1 n=f#4 v=0
48840 On ch=1 n=g4 v=92
48955 On ch=1 n=g4 v=0
48960 Tempo 500000
48960 On ch=1 n=f4 v=108
48960 On ch=1 n=c5 v=108
48960 On ch=1 n=a2 v=92
48960 On ch=1 n=a3 v=92
49055 Tempo 508474
49150 Tempo 517241
49195 On ch=1 n=a3 v=0
49195 On ch=1 n=a2 v=0
49195 On ch=1 n=c5 v=0
49195 On ch=1 n=f4 v=0
49200 On ch=1 n=f5 v=108
49200 On ch=1 n=a5 v=108
49200 On ch=1 n=c5 v=92
49247 Tempo 526315
49315 On ch=1 n=c5 v=0
49315 On ch=1 n=a5 v=0
49315 On ch=1 n=f5 v=0
49320 On ch=1 n=c5 v=108
49320 On ch=1 n=f5 v=108
49320 On ch=1 n=a4 v=92
49342 Tempo 535714
49435 On ch=1 n=a4 v=0
49435 On ch=1 n=f5 v=0
49435 On ch=1 n=c5 v=0
49440 Tempo 545454
49440 On ch=1 n=g4 v=108
49440 On ch=1 n=b4 v=108
49440 On ch=1 n=e5 v=108
49440 On ch=1 n=b2 v=92
49440 On ch=1 n=b3 v=92
49535 Tempo 555555
49630 Tempo 566037
49675 On ch=1 n=b3 v=0
49675 On ch=1 n=b2 v=0
49675 On ch=1 n=e5 v=0
49675 On ch=1 n=b4 v=0
49675 On ch=1 n=g4 v=0
49680 On ch=1 n=b4 v=108
49680 On ch=1 n=f#5 v=108
49680 On ch=1 n=a4 v=92
49727 Tempo 576923
49795 On ch=1 n=a4 v=0
49795 On ch=1 n=f#5 v=0
49795 On ch=1 n=b4 v=0
49800 On ch=1 n=b4 v=108
49800 On ch=1 n=d#5 v=108
49800 On ch=1 n=f#4 v=92
49822 Tempo 588235
49915 On ch=1 n=f#4 v=0
49915 On ch=1 n=d#5 v=0
49915 On ch=1 n=b4 v=0
49920 Tempo 600000
49920 On ch=1 n=g4 v=108
49920 On ch=1 n=b4 v=108
49920 On ch=1 n=e5 v=108
49920 On ch=1 n=e3 v=92
49920 On ch=1 n=e4 v=92
50320 On ch=1 n=e4 v=0
50320 On ch=1 n=e3 v=0
50320 On ch=1 n=e5 v=0
50320 On ch=1 n=b4 v=0
50320 On ch=1 n=g4 v=0
50400 Tempo 500000
50640 On ch=1 n=g#7 v=60
50640 On ch=1 n=b7 v=60
50755 On ch=1 n=b7 v=0
50755 On ch=1 n=g#7 v=0
50760 On ch=1 n=f#7 v=60
50760 On ch=1 n=a7 v=60
50875 On ch=1 n=a7 v=0
50875 On ch=1 n=f#7 v=0
50880 KeySig 4 major
50880 On ch=1 n=e7 v=60
50880 On ch=1 n=g#7 v=60
50880 On ch=1 n=b4 v=60
50880 On ch=1 n=e4 v=60
50995 On ch=1 n=b4 v=0
51000 On ch=1 n=e5 v=60
51115 On ch=1 n=e5 v=0
51115 On ch=1 n=g#7 v=0
51115 On ch=1 n=e7 v=0
51120 On ch=1 n=e7 v=60
51120 On ch=1 n=g#7 v=60
51120 On ch=1 n=b5 v=60
51235 On ch=1 n=g#7 v=0
51235 On ch=1 n=e7 v=0
51240 On ch=1 n=b6 v=60
51240 On ch=1 n=f#7 v=60
51280 On ch=1 n=e4 v=0
51355 On ch=1 n=f#7 v=0
51355 On ch=1 n=b6 v=0
51355 On ch=1 n=b5 v=0
51360 On ch=1 n=g#6 v=60
51360 On ch=1 n=e7 v=60
51360 On ch=1 n=b5 v=60
51360 On ch=1 n=e5 v=60
51475 On ch=1 n=e5 v=0
51480 On ch=1 n=b4 v=60
51595 On ch=1 n=b4 v=0
51595 On ch=1 n=e7 v=0
51595 On ch=1 n=g#6 v=0
51600 On ch=1 n=g#6 v=60
51600 On ch=1 n=b6 v=60
51600 On ch=1 n=e4 v=60
51715 On ch=1 n=b6 v=0
51715 On ch=1 n=g#6 v=0
51720 On ch=1 n=f#6 v=60
51720 On ch=1 n=a6 v=60
51760 On ch=1 n=b5 v=0
51835 On ch=1 n=a6 v=0
51835 On ch=1 n=f#6 v=0
51835 On ch=1 n=e4 v=0
51840 On ch=1 n=e6 v=60
51840 On ch=1 n=g#6 v=60
51840 On ch=1 n=b4 v=60
51840 On ch=1 n=e4 v=60
51955 On ch=1 n=b4 v=0
51960 On ch=1 n=e5 v=60
52075 On ch=1 n=e5 v=0
52075 On ch=1 n=g#6 v=0
52075 On ch=1 n=e6 v=0
52080 On ch=1 n=e6 v=60
52080 On ch=1 n=g#6 v=60
52080 On ch=1 n=b5 v=60
52195 On ch=1 n=g#6 v=0
52195 On ch=1 n=e6 v=0
52200 On ch=1 n=b5 v=60
52200 On ch=1 n=f#6 v=60
52240 On ch=1 n=e4 v=0
52315 On ch=1 n=f#6 v=0
52315 On ch=1 n=b5 v=0
52315 On ch=1 n=b5 v=0
52320 On ch=1 n=g#5 v=60
52320 On ch=1 n=e6 v=60
52320 On ch=1 n=b5 v=60
52320 On ch=1 n=e5 v=60
52435 On ch=1 n=e5 v=0
52440 On ch=1 n=b4 v=60
52555 On ch=1 n=b4 v=0
52555 On ch=1 n=e6 v=0
52555 On ch=1 n=g#5 v=0
52560 On ch=1 n=g#5 v=60
52560 On ch=1 n=e6 v=60
52560 On ch=1 n=e4 v=60
52675 On ch=1 n=e6 v=0
52675 On ch=1 n=g#5 v=0
52680 On ch=1 n=b5 v=60
52680 On ch=1 n=f#6 v=60
52720 On ch=1 n=b5 v=0
52795 On ch=1 n=f#6 v=0
52795 On ch=1 n=b5 v=0
52795 On ch=1 n=e4 v=0
52800 On ch=1 n=e6 v=60
52800 On ch=1 n=g#6 v=60
52800 On ch=1 n=b4 v=60
52800 On ch=1 n=e4 v=60
52915 On ch=1 n=b4 v=0
52920 On ch=1 n=e5 v=60
53035 On ch=1 n=e5 v=0
53035 On ch=1 n=e4 v=0
53035 On ch=1 n=g#6 v=0
53035 On ch=1 n=e6 v=0
53040 On ch=1 n=b5 v=60
53040 On ch=1 n=f#6 v=60
53155 On ch=1 n=f#6 v=0
53155 On ch=1 n=b5 v=0
53160 On ch=1 n=e6 v=60
53160 On ch=1 n=g#6 v=60
53275 On ch=1 n=g#6 v=0
53275 On ch=1 n=e6 v=0
53280 On ch=1 n=f#6 v=60
53280 On ch=1 n=a6 v=60
53280 On ch=1 n=b5 v=60
53280 On ch=1 n=d#5 v=60
53395 On ch=1 n=d#5 v=0
53400 On ch=1 n=b4 v=60
53515 On ch=1 n=b4 v=0
53515 On ch=1 n=b5 v=0
53515 On ch=1 n=a6 v=0
53515 On ch=1 n=f#6 v=0
53520 On ch=1 n=b5 v=60
53520 On ch=1 n=f#6 v=60
53635 On ch=1 n=f#6 v=0
53635 On ch=1 n=b5 v=0
53640 On ch=1 n=f#6 v=60
53640 On ch=1 n=a6 v=60
53755 On ch=1 n=a6 v=0
53755 On ch=1 n=f#6 v=0
53760 On ch=1 n=g#6 v=60
53760 On ch=1 n=b6 v=60
53760 On ch=1 n=b4 v=60
53760 On ch=1 n=e4 v=60
53875 On ch=1 n=b4 v=0
53880 On ch=1 n=e5 v=60
53995 On ch=1 n=e5 v=0
53995 On ch=1 n=e4 v=0
53995 On ch=1 n=b6 v=0
53995 On ch=1 n=g#6 v=0
54000 On ch=1 n=f#6 v=60
54000 On ch=1 n=a6 v=60
54115 On ch=1 n=a6 v=0
54115 On ch=1 n=f#6 v=0
54120 On ch=1 n=e6 v=60
54120 On ch=1 n=g#6 v=60
54235 On ch=1 n=g#6 v=0
54235 On ch=1 n=e6 v=0
54240 On ch=1 n=b5 v=60
54240 On ch=1 n=f#6 v=60
54240 On ch=1 n=f#5 v=60
54240 On ch=1 n=d#5 v=60
54355 On ch=1 n=d#5 v=0
54360 On ch=1 n=b4 v=60
54475 On ch=1 n=b4 v=0
54475 On ch=1 n=f#5 v=0
54475 On ch=1 n=f#6 v=0
54475 On ch=1 n=b5 v=0
54480 On ch=1 n=g#7 v=60
54480 On ch=1 n=b7 v=60
54595 On ch=1 n=b7 v=0
54595 On ch=1 n=g#7 v=0
54600 On ch=1 n=f#7 v=60
54600 On ch=1 n=a7 v=60
54715 On ch=1 n=a7 v=0
54715 On ch=1 n=f#7 v=0
54720 On ch=1 n=e7 v=60
54720 On ch=1 n=g#7 v=60
54720 On ch=1 n=b4 v=60
54720 On ch=1 n=e4 v=60
54835 On ch=1 n=b4 v=0
54840 On ch=1 n=e5 v=60
54955 On ch=1 n=e5 v=0
54955 On ch=1 n=g#7 v=0
54955 On ch=1 n=e7 v=0
54960 On ch=1 n=e7 v=60
54960 On ch=1 n=g#7 v=60
54960 On ch=1 n=b5 v=60
55075 On ch=1 n=g#7 v=0
55075 On ch=1 n=e7 v=0
55080 On ch=1 n=b6 v=60
55080 On ch=1 n=f#7 v=60
55120 On ch=1 n=e4 v=0
55195 On ch=1 n=f#7 v=0
55195 On ch=1 n=b6 v=0
55195 On ch=1 n=b5 v=0
55200 On ch=1 n=g#6 v=60
55200 On ch=1 n=e7 v=60
55200 On ch=1 n=b5 v=60
55200 On ch=1 n=e5 v=60
55315 On ch=1 n=e5 v=0
55320 On ch=1 n=b4 v=60
55435 On ch=1 n=b4 v=0
55435 On ch=1 n=e7 v=0
55435 On ch=1 n=g#6 v=0
55440 On ch=1 n=g#6 v=60
55440 On ch=1 n=b6 v=60
55440 On ch=1 n=e4 v=60
55555 On ch=1 n=b6 v=0
55555 On ch=1 n=g#6 v=0
55560 On ch=1 n=f#6 v=60
55560 On ch=1 n=a6 v=60
55600 On ch=1 n=b5 v=0
55675 On ch=1 n=a6 v=0
55675 On ch=1 n=f#6 v=0
55675 On ch=1 n=e4 v=0
55680 On ch=1 n=e6 v=60
55680 On ch=1 n=g#6 v=60
55680 On ch=1 n=b4 v=60
55680 On ch=1 n=e4 v=60
55795 On ch=1 n=b4 v=0
55800 On ch=1 n=e5 v=60
55915 On ch=1 n=e5 v=0
55915 On ch=1 n=g#6 v=0
55915 On ch=1 n=e6 v=0
55920 On ch=1 n=e6 v=60
55920 On ch=1 n=g#6 v=60
55920 On ch=1 n=b5 v=60
56035 On ch=1 n=g#6 v=0
56035 On ch=1 n=e6 v=0
56040 On ch=1 n=b5 v=60
56040 On ch=1 n=f#6 v=60
56080 On ch=1 n=e4 v=0
56155 On ch=1 n=f#6 v=0
56155 On ch=1 n=b5 v=0
56155 On ch=1 n=b5 v=0
56160 On ch=1 n=g#5 v=60
56160 On ch=1 n=e6 v=60
56160 On ch=1 n=b5 v=60
56160 On ch=1 n=e5 v=60
56275 On ch=1 n=e5 v=0
56280 On ch=1 n=b4 v=60
56395 On ch=1 n=b4 v=0
56395 On ch=1 n=e6 v=0
56395 On ch=1 n=g#5 v=0
56400 On ch=1 n=g#5 v=60
56400 On ch=1 n=e6 v=60
56400 On ch=1 n=e4 v=60
56515 On ch=1 n=e6 v=0
56515 On ch=1 n=g#5 v=0
56520 On ch=1 n=b5 v=60
56520 On ch=1 n=f#6 v=60
56560 On ch=1 n=b5 v=0
56635 On ch=1 n=f#6 v=0
56635 On ch=1 n=b5 v=0
56635 On ch=1 n=e4 v=0
56640 On ch=1 n=e6 v=60
56640 On ch=1 n=g#6 v=60
56640 On ch=1 n=b4 v=60
56640 On ch=1 n=e4 v=60
56755 On ch=1 n=b4 v=0
56760 On ch=1 n=e5 v=60
56875 On ch=1 n=e5 v=0
56875 On ch=1 n=e4 v=0
56875 On ch=1 n=g#6 v=0
56875 On ch=1 n=e6 v=0
56880 On ch=1 n=f#6 v=60
56880 On ch=1 n=a6 v=60
56995 On ch=1 n=a6 v=0
56995 On ch=1 n=f#6 v=0
57000 On ch=1 n=e6 v=60
57000 On ch=1 n=g#6 v=60
57115 On ch=1 n=g#6 v=0
57115 On ch=1 n=e6 v=0
57120 On ch=1 n=b5 v=60
57120 On ch=1 n=f#6 v=60
57120 On ch=1 n=a5 v=60
57120 On ch=1 n=d#5 v=60
57235 On ch=1 n=d#5 v=0
57240 On ch=1 n=b4 v=60
57355 On ch=1 n=b4 v=0
57355 On ch=1 n=a5 v=0
57355 On ch=1 n=f#6 v=0
57355 On ch=1 n=b5 v=0
57360 On ch=1 n=e6 v=60
57360 On ch=1 n=g#6 v=60
57475 On ch=1 n=g#6 v=0
57475 On ch=1 n=e6 v=0
57480 On ch=1 n=b5 v=60
57480 On ch=1 n=f#6 v=60
57595 On ch=1 n=f#6 v=0
57595 On ch=1 n=b5 v=0
57600 On ch=1 n=g#5 v=60
57600 On ch=1 n=e6 v=60
57600 On ch=1 n=e4 v=60
57715 On ch=1 n=e4 v=0
57720 On ch=1 n=b4 v=60
57835 On ch=1 n=b4 v=0
57840 On ch=1 n=g#5 v=60
57955 On ch=1 n=g#5 v=0
57960 On ch=1 n=e5 v=60
58000 On ch=1 n=g#5 v=0
58000 On ch=1 n=e6 v=0
58075 On ch=1 n=e5 v=0
58080 On ch=1 n=b5 v=60
58315 On ch=1 n=b5 v=0
58320 On ch=1 n=g#4 v=92
58320 On ch=1 n=e5 v=92
58435 On ch=1 n=e5 v=0
58435 On ch=1 n=g#4 v=0
58440 On ch=1 n=e5 v=92
58440 On ch=1 n=g#5 v=92
58555 On ch=1 n=g#5 v=0
58555 On ch=1 n=e5 v=0
58560 On ch=1 n=b4 v=92
58560 On ch=1 n=f#5 v=92
58795 On ch=1 n=f#5 v=0
58795 On ch=1 n=b4 v=0
58800 On ch=1 n=e5 v=92
58800 On ch=1 n=g#5 v=92
58915 On ch=1 n=g#5 v=0
58915 On ch=1 n=e5 v=0
58920 On ch=1 n=f#5 v=92
58920 On ch=1 n=a5 v=92
59035 On ch=1 n=a5 v=0
59035 On ch=1 n=f#5 v=0
59040 On ch=1 n=g#5 v=92
59040 On ch=1 n=b5 v=92
59275 On ch=1 n=b5 v=0
59275 On ch=1 n=g#5 v=0
59280 On ch=1 n=a5 v=92
59280 On ch=1 n=c#6 v=92
59395 On ch=1 n=c#6 v=0
59395 On ch=1 n=a5 v=0
59400 On ch=1 n=g#5 v=92
59400 On ch=1 n=b5 v=92
59515 On ch=1 n=b5 v=0
59515 On ch=1 n=g#5 v=0
59520 On ch=1 n=f#5 v=92
59520 On ch=1 n=a5 v=92
59755 On ch=1 n=a5 v=0
59755 On ch=1 n=f#5 v=0
59760 On ch=1 n=e5 v=92
59760 On ch=1 n=g#5 v=92
59875 On ch=1 n=g#5 v=0
59875 On ch=1 n=e5 v=0
59880 On ch=1 n=f#5 v=92
59880 On ch=1 n=a5 v=92
59995 On ch=1 n=a5 v=0
59995 On ch=1 n=f#5 v=0
60000 Tempo 545454
60000 On ch=1 n=b4 v=92
60000 On ch=1 n=f#5 v=92
60235 On ch=1 n=f#5 v=0
60235 On ch=1 n=b4 v=0
60240 On ch=1 n=g#4 v=92
60240 On ch=1 n=e5 v=92
60355 On ch=1 n=e5 v=0
60355 On ch=1 n=g#4 v=0
60360 On ch=1 n=e5 v=92
60360 On ch=1 n=g#5 v=92
60475 On ch=1 n=g#5 v=0
60475 On ch=1 n=e5 v=0
60480 On ch=1 n=b4 v=92
60480 On ch=1 n=f#5 v=92
60715 On ch=1 n=f#5 v=0
60715 On ch=1 n=b4 v=0
60720 On ch=1 n=e5 v=92
60720 On ch=1 n=g#5 v=92
60835 On ch=1 n=g#5 v=0
60835 On ch=1 n=e5 v=0
60840 On ch=1 n=f#5 v=92
60840 On ch=1 n=a5 v=92
60955 On ch=1 n=a5 v=0
60955 On ch=1 n=f#5 v=0
60960 On ch=1 n=g#5 v=92
60960 On ch=1 n=b5 v=92
61195 On ch=1 n=b5 v=0
61195 On ch=1 n=g#5 v=0
61200 On ch=1 n=a5 v=92
61200 On ch=1 n=c#6 v=92
61315 On ch=1 n=c#6 v=0
61315 On ch=1 n=a5 v=0
61320 On ch=1 n=g#5 v=92
61320 On ch=1 n=b5 v=92
61435 On ch=1 n=b5 v=0
61435 On ch=1 n=g#5 v=0
61440 On ch=1 n=f#5 v=92
61440 On ch=1 n=a5 v=92
61675 On ch=1 n=a5 v=0
61675 On ch=1 n=f#5 v=0
61680 On ch=1 n=e5 v=92
61680 On ch=1 n=g#5 v=92
61795 On ch=1 n=g#5 v=0
61795 On ch=1 n=e5 v=0
61800 On ch=1 n=f#5 v=92
61800 On ch=1 n=a5 v=92
61915 On ch=1 n=a5 v=0
61915 On ch=1 n=f#5 v=0
61920 On ch=1 n=b4 v=92
61920 On ch=1 n=f#5 v=92
62155 On ch=1 n=f#5 v=0
62155 On ch=1 n=b4 v=0
62160 Tempo 500000
62160 On ch=1 n=g#7 v=60
62160 On ch=1 n=b7 v=60
62275 On ch=1 n=b7 v=0
62275 On ch=1 n=g#7 v=0
62280 On ch=1 n=f#7 v=60
62280 On ch=1 n=a7 v=60
62395 On ch=1 n=a7 v=0
62395 On ch=1 n=f#7 v=0
62400 On ch=1 n=e7 v=60
62400 On ch=1 n=g#7 v=60
62400 On ch=1 n=b4 v=60
62400 On ch=1 n=e4 v=60
62515 On ch=1 n=b4 v=0
62520 On ch=1 n=e5 v=60
62635 On ch=1 n=e5 v=0
62635 On ch=1 n=g#7 v=0
62635 On ch=1 n=e7 v=0
62640 On ch=1 n=e7 v=60
62640 On ch=1 n=g#7 v=60
62640 On ch=1 n=b5 v=60
62755 On ch=1 n=g#7 v=0
62755 On ch=1 n=e7 v=0
62760 On ch=1 n=b6 v=60
62760 On ch=1 n=f#7 v=60
62800 On ch=1 n=e4 v=0
62875 On ch=1 n=f#7 v=0
62875 On ch=1 n=b6 v=0
62875 On ch=1 n=b5 v=0
62880 On ch=1 n=g#6 v=60
62880 On ch=1 n=e7 v=60
62880 On ch=1 n=b5 v=60
62880 On ch=1 n=e5 v=60
62995 On ch=1 n=e5 v=0
63000 On ch=1 n=b4 v=60
63115 On ch=1 n=b4 v=0
63115 On ch=1 n=e7 v=0
63115 On ch=1 n=g#6 v=0
63120 On ch=1 n=g#6 v=60
63120 On ch=1 n=b6 v=60
63120 On ch=1 n=e4 v=60
63235 On ch=1 n=b6 v=0
63235 On ch=1 n=g#6 v=0
63240 On ch=1 n=f#6 v=60
63240 On ch=1 n=a6 v=60
63280 On ch=1 n=b5 v=0
63355 On ch=1 n=a6 v=0
63355 On ch=1 n=f#6 v=0
63355 On ch=1 n=e4 v=0
63360 On ch=1 n=e6 v=60
63360 On ch=1 n=g#6 v=60
63360 On ch=1 n=b4 v=60
63360 On ch=1 n=e4 v=60
63475 On ch=1 n=b4 v=0
63480 On ch=1 n=e5 v=60
63595 On ch=1 n=e5 v=0
63595 On ch=1 n=g#6 v=0
63595 On ch=1 n=e6 v=0
63600 On ch=1 n=e6 v=60
63600 On ch=1 n=g#6 v=60
63600 On ch=1 n=b5 v=60
63715 On ch=1 n=g#6 v=0
63715 On ch=1 n=e6 v=0
63720 On ch=1 n=b5 v=60
63720 On ch=1 n=f#6 v=60
63760 On ch=1 n=e4 v=0
63835 On ch=1 n=f#6 v=0
63835 On ch=1 n=b5 v=0
63835 On ch=1 n=b5 v=0
63840 On ch=1 n=g#5 v=60
63840 On ch=1 n=e6 v=60
63840 On ch=1 n=b5 v=60
63840 On ch=1 n=e5 v=60
63955 On ch=1 n=e5 v=0
63960 On ch=1 n=b4 v=60
64075 On ch=1 n=b4 v=0
64075 On ch=1 n=e6 v=0
64075 On ch=1 n=g#5 v=0
64080 On ch=1 n=g#4 v=60
64080 On ch=1 n=e5 v=60
64080 On ch=1 n=e4 v=60
64195 On ch=1 n=e5 v=0
64195 On ch=1 n=g#4 v=0
64200 On ch=1 n=b4 v=60
64200 On ch=1 n=f#5 v=60
64240 On ch=1 n=b5 v=0
64315 On ch=1 n=f#5 v=0
64315 On ch=1 n=b4 v=0
64315 On ch=1 n=e4 v=0
64320 Tempo 500000
64320 On ch=1 n=e5 v=60
64320 On ch=1 n=g#5 v=60
64367 Tempo 508474
64415 Tempo 517241
64462 Tempo 526315
64510 Tempo 535714
64555 On ch=1 n=g#5 v=0
64555 On ch=1 n=e5 v=0
64560 Tempo 545454
64560 On ch=1 n=f#5 v=60
64560 On ch=1 n=a5 v=60
64607 Tempo 555555
64655 Tempo 566037
64675 On ch=1 n=a5 v=0
64675 On ch=1 n=f#5 v=0
64680 On ch=1 n=e5 v=60
64680 On ch=1 n=g#5 v=60
64702 Tempo 576923
64750 Tempo 588235
64795 On ch=1 n=g#5 v=0
64795 On ch=1 n=e5 v=0
64800 Tempo 600000
64800 On ch=1 n=b4 v=60
64800 On ch=1 n=f#5 v=60
65035 On ch=1 n=f#5 v=0
65035 On ch=1 n=b4 v=0
65040 On ch=1 n=e5 v=60
65040 On ch=1 n=g#5 v=60
65155 On ch=1 n=g#5 v=0
65155 On ch=1 n=e5 v=0
65160 On ch=1 n=b4 v=60
65160 On ch=1 n=f#5 v=60
65275 On ch=1 n=f#5 v=0
65275 On ch=1 n=b4 v=0
65280 On ch=1 n=g#4 v=60
65280 On ch=1 n=e5 v=60
65760 Tempo 500000
65920 On ch=1 n=e5 v=0
65920 On ch=1 n=g#4 v=0
66000 On ch=1 n=e5 v=92
66000 On ch=1 n=e6 v=92
66000 On ch=1 n=e3 v=92
66000 On ch=1 n=e4 v=92
66080 On ch=1 n=e4 v=0
66080 On ch=1 n=e3 v=0
66080 On ch=1 n=e6 v=0
66080 On ch=1 n=e5 v=0
66240 KeySig 0 major
66240 On ch=1 n=a5 v=127
66240 On ch=1 n=a6 v=127
66240 On ch=1 n=a3 v=127
66240 On ch=1 n=a4 v=127
66880 On ch=1 n=a4 v=0
66880 On ch=1 n=a3 v=0
66880 On ch=1 n=a6 v=0
66880 On ch=1 n=a5 v=0
66960 On ch=1 n=e5 v=92
66960 On ch=1 n=e6 v=92
66960 On ch=1 n=e3 v=92
66960 On ch=1 n=e4 v=92
67040 On ch=1 n=e4 v=0
67040 On ch=1 n=e3 v=0
67040 On ch=1 n=e6 v=0
67040 On ch=1 n=e5 v=0
67200 On ch=1 n=c4 v=92
67200 On ch=1 n=c3 v=92
67200 On ch=1 n=c6 v=92
67200 On ch=1 n=c5 v=92
67280 On ch=1 n=c5 v=0
67280 On ch=1 n=c6 v=0
67280 On ch=1 n=c3 v=0
67280 On ch=1 n=c4 v=0
67440 On ch=1 n=a4 v=92
67440 On ch=1 n=a5 v=92
67440 On ch=1 n=a2 v=92
67440 On ch=1 n=a3 v=92
67520 On ch=1 n=a3 v=0
67520 On ch=1 n=a2 v=0
67520 On ch=1 n=a5 v=0
67520 On ch=1 n=a4 v=0
67680 Tempo 750000
67950 On ch=1 n=a4 v=92
67950 On ch=1 n=c4 v=92
67975 On ch=1 n=c4 v=0
67975 On ch=1 n=a4 v=0
67980 On ch=1 n=b4 v=92
67980 On ch=1 n=d4 v=92
68005 On ch=1 n=d4 v=0
68005 On ch=1 n=b4 v=0
68010 On ch=1 n=c5 v=92
68010 On ch=1 n=e4 v=92
68035 On ch=1 n=e4 v=0
68035 On ch=1 n=c5 v=0
68040 On ch=1 n=d5 v=92
68040 On ch=1 n=f4 v=92
68065 On ch=1 n=f4 v=0
68065 On ch=1 n=d5 v=0
68070 On ch=1 n=e5 v=92
68070 On ch=1 n=g4 v=92
68095 On ch=1 n=g4 v=0
68095 On ch=1 n=e5 v=0
68100 On ch=1 n=f5 v=92
68100 On ch=1 n=a4 v=92
68125 On ch=1 n=a4 v=0
68125 On ch=1 n=f5 v=0
68130 On ch=1 n=g5 v=92
68130 On ch=1 n=b4 v=92
68155 On ch=1 n=b4 v=0
68155 On ch=1 n=g5 v=0
68160 On ch=1 n=a5 v=92
68160 On ch=1 n=c5 v=92
68185 On ch=1 n=c5 v=0
68185 On ch=1 n=a5 v=0
68190 On ch=1 n=b5 v=92
68190 On ch=1 n=d5 v=92
68215 On ch=1 n=d5 v=0
68215 On ch=1 n=b5 v=0
68220 On ch=1 n=c6 v=92
68220 On ch=1 n=e5 v=92
68245 On ch=1 n=e5 v=0
68245 On ch=1 n=c6 v=0
68250 On ch=1 n=d6 v=92
68250 On ch=1 n=f5 v=92
68275 On ch=1 n=f5 v=0
68275 On ch=1 n=d6 v=0
68280 On ch=1 n=e6 v=92
68280 On ch=1 n=g5 v=92
68305 On ch=1 n=g5 v=0
68305 On ch=1 n=e6 v=0
68310 On ch=1 n=f6 v=92
68310 On ch=1 n=a5 v=92
68335 On ch=1 n=a5 v=0
68335 On ch=1 n=f6 v=0
68340 On ch=1 n=g6 v=92
68340 On ch=1 n=b5 v=92
68365 On ch=1 n=b5 v=0
68365 On ch=1 n=g6 v=0
68370 On ch=1 n=a6 v=92
68370 On ch=1 n=c6 v=92
68395 On ch=1 n=c6 v=0
68395 On ch=1 n=a6 v=0
68400 On ch=1 n=b6 v=92
68400 On ch=1 n=d6 v=92
68425 On ch=1 n=d6 v=0
68425 On ch=1 n=b6 v=0
68430 On ch=1 n=c7 v=92
68430 On ch=1 n=e6 v=92
68455 On ch=1 n=e6 v=0
68455 On ch=1 n=c7 v=0
68460 On ch=1 n=d7 v=92
68460 On ch=1 n=f6 v=92
68500 On ch=1 n=f6 v=0
68500 On ch=1 n=d7 v=0
68505 On ch=1 n=e7 v=92
68505 On ch=1 n=g6 v=92
68545 On ch=1 n=g6 v=0
68545 On ch=1 n=e7 v=0
68550 On ch=1 n=f7 v=92
68550 On ch=1 n=a6 v=92
68590 On ch=1 n=a6 v=0
68590 On ch=1 n=f7 v=0
68595 On ch=1 n=g7 v=92
68595 On ch=1 n=b6 v=92
68635 On ch=1 n=b6 v=0
68635 On ch=1 n=g7 v=0
68640 Tempo 500000
68640 On ch=1 n=a7 v=92
68640 On ch=1 n=c7 v=92
68875 On ch=1 n=c7 v=0
68875 On ch=1 n=a7 v=0
68880 On ch=1 n=d7 v=92
68880 On ch=1 n=f7 v=92
68880 On ch=1 n=c8 v=92
68880 On ch=1 n=d6 v=92
68880 On ch=1 n=f6 v=92
68880 On ch=1 n=b6 v=92
68960 On ch=1 n=b6 v=0
68960 On ch=1 n=f6 v=0
68960 On ch=1 n=d6 v=0
68960 On ch=1 n=c8 v=0
68960 On ch=1 n=f7 v=0
68960 On ch=1 n=d7 v=0
69000 On ch=1 n=d7 v=92
69000 On ch=1 n=f7 v=92
69000 On ch=1 n=b7 v=92
69000 On ch=1 n=d6 v=92
69000 On ch=1 n=f6 v=92
69000 On ch=1 n=b6 v=92
69080 On ch=1 n=b7 v=0
69080 On ch=1 n=f7 v=0
69080 On ch=1 n=d7 v=0
69085 On ch=1 n=b6 v=0
69085 On ch=1 n=f6 v=0
69085 On ch=1 n=d6 v=0
69090 On ch=1 n=e5 v=92
69115 On ch=1 n=e5 v=0
69120 On ch=1 n=a7 v=92
69120 On ch=1 n=c7 v=92
69120 On ch=1 n=c6 v=92
69120 On ch=1 n=e6 v=92
69120 On ch=1 n=a6 v=92
69180 On ch=1 n=a7 v=0
69180 On ch=1 n=b7 v=92
69240 On ch=1 n=b7 v=0
69240 On ch=1 n=a7 v=92
69300 On ch=1 n=a7 v=0
69300 On ch=1 n=b7 v=92
69360 On ch=1 n=b7 v=0
69360 On ch=1 n=a7 v=92
69420 On ch=1 n=a7 v=0
69420 On ch=1 n=g#7 v=92
69480 On ch=1 n=g#7 v=0
69480 On ch=1 n=b7 v=92
69540 On ch=1 n=b7 v=0
69540 On ch=1 n=a7 v=92
69600 On ch=1 n=a7 v=0
69600 On ch=1 n=a6 v=0
69600 On ch=1 n=e6 v=0
69600 On ch=1 n=c6 v=0
69600 On ch=1 n=c7 v=0
69600 On ch=1 n=g#7 v=92
69600 On ch=1 n=b6 v=92
69600 On ch=1 n=b5 v=92
69600 On ch=1 n=e6 v=92
69600 On ch=1 n=g#6 v=92
69680 On ch=1 n=g#6 v=0
69680 On ch=1 n=e6 v=0
69680 On ch=1 n=b5 v=0
69680 On ch=1 n=b6 v=0
69680 On ch=1 n=g#7 v=0
69840 On ch=1 n=d5 v=92
69840 On ch=1 n=d6 v=92
69840 On ch=1 n=d3 v=92
69840 On ch=1 n=d4 v=92
69920 On ch=1 n=d4 v=0
69920 On ch=1 n=d3 v=0
69920 On ch=1 n=d6 v=0
69920 On ch=1 n=d5 v=0
70080 On ch=1 n=f5 v=127
70080 On ch=1 n=f6 v=127
70080 On ch=1 n=f3 v=127
70080 On ch=1 n=f4 v=127
70720 On ch=1 n=f4 v=0
70720 On ch=1 n=f3 v=0
70720 On ch=1 n=f6 v=0
70720 On ch=1 n=f5 v=0
70800 On ch=1 n=d5 v=92
70800 On ch=1 n=d6 v=92
70800 On ch=1 n=d3 v=92
70800 On ch=1 n=d4 v=92
70880 On ch=1 n=d4 v=0
70880 On ch=1 n=d3 v=0
70880 On ch=1 n=d6 v=0
70880 On ch=1 n=d5 v=0
71040 On ch=1 n=b4 v=92
71040 On ch=1 n=b5 v=92
71040 On ch=1 n=b2 v=92
71040 On ch=1 n=b3 v=92
71120 On ch=1 n=b3 v=0
71120 On ch=1 n=b2 v=0
71120 On ch=1 n=b5 v=0
71120 On ch=1 n=b4 v=0
71280 On ch=1 n=g#4 v=92
71280 On ch=1 n=g#5 v=92
71280 On ch=1 n=g#2 v=92
71280 On ch=1 n=g#3 v=92
71360 On ch=1 n=g#3 v=0
71360 On ch=1 n=g#2 v=0
71360 On ch=1 n=g#5 v=0
71360 On ch=1 n=g#4 v=0
71520 Tempo 750000
71790 On ch=1 n=b4 v=92
71790 On ch=1 n=d4 v=92
71815 On ch=1 n=d4 v=0
71815 On ch=1 n=b4 v=0
71820 On ch=1 n=c5 v=92
71820 On ch=1 n=e4 v=92
71845 On ch=1 n=e4 v=0
71845 On ch=1 n=c5 v=0
71850 On ch=1 n=d5 v=92
71850 On ch=1 n=f4 v=92
71875 On ch=1 n=f4 v=0
71875 On ch=1 n=d5 v=0
71880 On ch=1 n=e5 v=92
71880 On ch=1 n=g#4 v=92
71905 On ch=1 n=g#4 v=0
71905 On ch=1 n=e5 v=0
71910 On ch=1 n=f5 v=92
71910 On ch=1 n=a4 v=92
71935 On ch=1 n=a4 v=0
71935 On ch=1 n=f5 v=0
71940 On ch=1 n=g5 v=92
71940 On ch=1 n=b4 v=92
71965 On ch=1 n=b4 v=0
71965 On ch=1 n=g5 v=0
71970 On ch=1 n=a5 v=92
71970 On ch=1 n=c5 v=92
71995 On ch=1 n=c5 v=0
71995 On ch=1 n=a5 v=0
72000 On ch=1 n=b5 v=92
72000 On ch=1 n=d5 v=92
72025 On ch=1 n=d5 v=0
72025 On ch=1 n=b5 v=0
72030 On ch=1 n=c6 v=92
72030 On ch=1 n=e5 v=92
72055 On ch=1 n=e5 v=0
72055 On ch=1 n=c6 v=0
72060 On ch=1 n=d6 v=92
72060 On ch=1 n=f5 v=92
72085 On ch=1 n=f5 v=0
72085 On ch=1 n=d6 v=0
72090 On ch=1 n=e6 v=92
72090 On ch=1 n=g5 v=92
72115 On ch=1 n=g5 v=0
72115 On ch=1 n=e6 v=0
72120 On ch=1 n=f6 v=92
72120 On ch=1 n=a5 v=92
72145 On ch=1 n=a5 v=0
72145 On ch=1 n=f6 v=0
72150 On ch=1 n=g6 v=92
72150 On ch=1 n=b5 v=92
72175 On ch=1 n=b5 v=0
72175 On ch=1 n=g6 v=0
72180 On ch=1 n=a6 v=92
72180 On ch=1 n=c6 v=92
72205 On ch=1 n=c6 v=0
72205 On ch=1 n=a6 v=0
72210 On ch=1 n=b6 v=92
72210 On ch=1 n=d6 v=92
72235 On ch=1 n=d6 v=0
72235 On ch=1 n=b6 v=0
72240 On ch=1 n=c7 v=92
72240 On ch=1 n=e6 v=92
72265 On ch=1 n=e6 v=0
72265 On ch=1 n=c7 v=0
72270 On ch=1 n=d7 v=92
72270 On ch=1 n=f6 v=92
72295 On ch=1 n=f6 v=0
72295 On ch=1 n=d7 v=0
72300 On ch=1 n=e7 v=92
72300 On ch=1 n=g6 v=92
72340 On ch=1 n=g6 v=0
72340 On ch=1 n=e7 v=0
72345 On ch=1 n=f7 v=92
72345 On ch=1 n=a6 v=92
72385 On ch=1 n=a6 v=0
72385 On ch=1 n=f7 v=0
72390 On ch=1 n=g7 v=92
72390 On ch=1 n=b6 v=92
72430 On ch=1 n=b6 v=0
72430 On ch=1 n=g7 v=0
72435 On ch=1 n=a7 v=92
72435 On ch=1 n=c7 v=92
72475 On ch=1 n=c7 v=0
72475 On ch=1 n=a7 v=0
72480 Tempo 500000
72480 On ch=1 n=b7 v=92
72480 On ch=1 n=d7 v=92
72715 On ch=1 n=d7 v=0
72715 On ch=1 n=b7 v=0
72720 On ch=1 n=f7 v=92
72720 On ch=1 n=d8 v=92
72720 On ch=1 n=g#5 v=92
72720 On ch=1 n=f6 v=92
72800 On ch=1 n=f6 v=0
72800 On ch=1 n=g#5 v=0
72800 On ch=1 n=d8 v=0
72800 On ch=1 n=f7 v=0
72840 On ch=1 n=e7 v=92
72840 On ch=1 n=c8 v=92
72840 On ch=1 n=g#5 v=92
72840 On ch=1 n=e6 v=92
72920 On ch=1 n=e6 v=0
72920 On ch=1 n=g#5 v=0
72920 On ch=1 n=c8 v=0
72920 On ch=1 n=e7 v=0
72960 On ch=1 n=b7 v=92
72960 On ch=1 n=d7 v=92
72960 On ch=1 n=a5 v=92
72960 On ch=1 n=f6 v=92
72960 On ch=1 n=g#6 v=92
73020 On ch=1 n=b7 v=0
73020 On ch=1 n=c8 v=92
73080 On ch=1 n=c8 v=0
73080 On ch=1 n=b7 v=92
73140 On ch=1 n=b7 v=0
73140 On ch=1 n=c8 v=92
73200 On ch=1 n=c8 v=0
73200 On ch=1 n=b7 v=92
73260 On ch=1 n=b7 v=0
73260 On ch=1 n=a7 v=92
73320 On ch=1 n=a7 v=0
73320 On ch=1 n=c8 v=92
73380 On ch=1 n=c8 v=0
73380 On ch=1 n=b7 v=92
73440 On ch=1 n=b7 v=0
73440 On ch=1 n=g#6 v=0
73440 On ch=1 n=f6 v=0
73440 On ch=1 n=a5 v=0
73440 On ch=1 n=d7 v=0
73440 On ch=1 n=a7 v=92
73440 On ch=1 n=c7 v=92
73440 On ch=1 n=a5 v=92
73440 On ch=1 n=e6 v=92
73440 On ch=1 n=a6 v=92
73520 On ch=1 n=a6 v=0
73520 On ch=1 n=e6 v=0
73520 On ch=1 n=a5 v=0
73520 On ch=1 n=c7 v=0
73520 On ch=1 n=a7 v=0
73680 On ch=1 n=e7 v=60
73680 On ch=1 n=e8 v=60
73760 On ch=1 n=e8 v=0
73760 On ch=1 n=e7 v=0
73920 On ch=1 n=a7 v=60
73920 On ch=1 n=a8 v=60
74000 On ch=1 n=a8 v=0
74000 On ch=1 n=a7 v=0
74160 On ch=1 n=e5 v=60
74220 On ch=1 n=e5 v=0
74220 On ch=1 n=d5 v=60
74280 On ch=1 n=d5 v=0
74280 On ch=1 n=c#5 v=60
74340 On ch=1 n=c#5 v=0
74340 On ch=1 n=b4 v=60
74340 On ch=1 n=g5 v=45
74360 On ch=1 n=c#6 v=45
74380 On ch=1 n=e6 v=45
74400 On ch=1 n=b4 v=0
74400 On ch=1 n=a4 v=60
74400 On ch=1 n=a6 v=45
74480 On ch=1 n=a6 v=0
74480 On ch=1 n=a4 v=0
74480 On ch=1 n=e6 v=0
74480 On ch=1 n=c#6 v=0
74480 On ch=1 n=g5 v=0
74640 On ch=1 n=a7 v=60
74700 On ch=1 n=a7 v=0
74700 On ch=1 n=g7 v=60
74760 On ch=1 n=g7 v=0
74760 On ch=1 n=f7 v=60
74820 On ch=1 n=f7 v=0
74820 On ch=1 n=e7 v=60
74880 On ch=1 n=e7 v=0
74880 On ch=1 n=f7 v=60
74960 On ch=1 n=f7 v=0
75120 On ch=1 n=a5 v=60
75120 On ch=1 n=d6 v=45
75120 On ch=1 n=f6 v=45
75120 On ch=1 n=a6 v=45
75180 On ch=1 n=a5 v=0
75180 On ch=1 n=g5 v=60
75200 On ch=1 n=a6 v=0
75200 On ch=1 n=f6 v=0
75200 On ch=1 n=d6 v=0
75240 On ch=1 n=g5 v=0
75240 On ch=1 n=f5 v=60
75300 On ch=1 n=f5 v=0
75300 On ch=1 n=e5 v=60
75360 On ch=1 n=e5 v=0
75360 On ch=1 n=d5 v=60
75360 On ch=1 n=f6 v=45
75360 On ch=1 n=a6 v=45
75360 On ch=1 n=d7 v=45
75440 On ch=1 n=d7 v=0
75440 On ch=1 n=a6 v=0
75440 On ch=1 n=f6 v=0
75440 On ch=1 n=d5 v=0
75600 On ch=1 n=a7 v=60
75600 On ch=1 n=f8 v=60
75680 On ch=1 n=f8 v=0
75680 On ch=1 n=a7 v=0
75840 On ch=1 n=f7 v=60
75840 On ch=1 n=d8 v=60
75920 On ch=1 n=d8 v=0
75920 On ch=1 n=f7 v=0
76080 On ch=1 n=d5 v=60
76140 On ch=1 n=d5 v=0
76140 On ch=1 n=c5 v=60
76200 On ch=1 n=c5 v=0
76200 On ch=1 n=b4 v=60
76260 On ch=1 n=b4 v=0
76260 On ch=1 n=a4 v=60
76260 On ch=1 n=f5 v=45
76280 On ch=1 n=b5 v=45
76300 On ch=1 n=d6 v=45
76320 On ch=1 n=a4 v=0
76320 On ch=1 n=g4 v=60
76320 On ch=1 n=g6 v=45
76400 On ch=1 n=g6 v=0
76400 On ch=1 n=g4 v=0
76400 On ch=1 n=d6 v=0
76400 On ch=1 n=b5 v=0
76400 On ch=1 n=f5 v=0
76560 On ch=1 n=g7 v=60
76620 On ch=1 n=g7 v=0
76620 On ch=1 n=f7 v=60
76680 On ch=1 n=f7 v=0
76680 On ch=1 n=e7 v=60
76740 On ch=1 n=e7 v=0
76740 On ch=1 n=d7 v=60
76800 On ch=1 n=d7 v=0
76800 On ch=1 n=e7 v=60
76880 On ch=1 n=e7 v=0
77040 On ch=1 n=g5 v=60
77040 On ch=1 n=c6 v=45
77040 On ch=1 n=e6 v=45
77040 On ch=1 n=g6 v=45
77100 On ch=1 n=g5 v=0
77100 On ch=1 n=f5 v=60
77120 On ch=1 n=g6 v=0
77120 On ch=1 n=e6 v=0
77120 On ch=1 n=c6 v=0
77160 On ch=1 n=f5 v=0
77160 On ch=1 n=e5 v=60
77220 On ch=1 n=e5 v=0
77220 On ch=1 n=d5 v=60
77280 On ch=1 n=d5 v=0
77280 On ch=1 n=c5 v=60
77280 On ch=1 n=e6 v=45
77280 On ch=1 n=g6 v=45
77280 On ch=1 n=c7 v=45
77360 On ch=1 n=c7 v=0
77360 On ch=1 n=g6 v=0
77360 On ch=1 n=e6 v=0
77360 On ch=1 n=c5 v=0
77520 On ch=1 n=g7 v=60
77520 On ch=1 n=e8 v=60
77600 On ch=1 n=e8 v=0
77600 On ch=1 n=g7 v=0
77760 On ch=1 n=f7 v=60
77760 On ch=1 n=d8 v=60
77840 On ch=1 n=d8 v=0
77840 On ch=1 n=f7 v=0
78000 On ch=1 n=d6 v=60
78060 On ch=1 n=d6 v=0
78060 On ch=1 n=c6 v=60
78120 On ch=1 n=c6 v=0
78120 On ch=1 n=b5 v=60
78180 On ch=1 n=b5 v=0
78180 On ch=1 n=a5 v=60
78240 On ch=1 n=a5 v=0
78240 On ch=1 n=g#5 v=60
78240 On ch=1 n=f6 v=45
78240 On ch=1 n=b6 v=45
78240 On ch=1 n=d7 v=45
78320 On ch=1 n=d7 v=0
78320 On ch=1 n=b6 v=0
78320 On ch=1 n=f6 v=0
78320 On ch=1 n=g#5 v=0
78480 On ch=1 n=f7 v=60
78480 On ch=1 n=d8 v=60
78560 On ch=1 n=d8 v=0
78560 On ch=1 n=f7 v=0
78720 On ch=1 n=e7 v=60
78720 On ch=1 n=c8 v=60
78800 On ch=1 n=c8 v=0
78800 On ch=1 n=e7 v=0
78960 On ch=1 n=e6 v=60
79020 On ch=1 n=e6 v=0
79020 On ch=1 n=d6 v=60
79080 On ch=1 n=d6 v=0
79080 On ch=1 n=c6 v=60
79140 On ch=1 n=c6 v=0
79140 On ch=1 n=b5 v=60
79200 On ch=1 n=b5 v=0
79200 On ch=1 n=a5 v=60
79200 On ch=1 n=e6 v=45
79200 On ch=1 n=a6 v=45
79200 On ch=1 n=c7 v=45
79280 On ch=1 n=c7 v=0
79280 On ch=1 n=a6 v=0
79280 On ch=1 n=e6 v=0
79280 On ch=1 n=a5 v=0
79440 On ch=1 n=c6 v=60
79500 On ch=1 n=c6 v=0
79500 On ch=1 n=b5 v=60
79560 On ch=1 n=b5 v=0
79560 On ch=1 n=a5 v=60
79620 On ch=1 n=a5 v=0
79620 On ch=1 n=g5 v=60
79680 On ch=1 n=g5 v=0
79680 On ch=1 n=f5 v=60
79680 On ch=1 n=f6 v=45
79680 On ch=1 n=a6 v=45
79680 On ch=1 n=c7 v=45
79760 On ch=1 n=c7 v=0
79760 On ch=1 n=a6 v=0
79760 On ch=1 n=f6 v=0
79760 On ch=1 n=f5 v=0
79920 On ch=1 n=a5 v=60
79980 On ch=1 n=a5 v=0
79980 On ch=1 n=g5 v=60
80040 On ch=1 n=g5 v=0
80040 On ch=1 n=f5 v=60
80100 On ch=1 n=f5 v=0
80100 On ch=1 n=e5 v=60
80160 On ch=1 n=e5 v=0
80160 On ch=1 n=d#5 v=60
80160 On ch=1 n=c6 v=45
80160 On ch=1 n=f6 v=45
80160 On ch=1 n=a6 v=45
80240 On ch=1 n=a6 v=0
80240 On ch=1 n=f6 v=0
80240 On ch=1 n=c6 v=0
80240 On ch=1 n=d#5 v=0
80400 On ch=1 n=c8 v=60
80460 On ch=1 n=c8 v=0
80460 On ch=1 n=a7 v=60
80520 On ch=1 n=a7 v=0
80520 On ch=1 n=f7 v=60
80580 On ch=1 n=f7 v=0
80580 On ch=1 n=d#7 v=60
80580 On ch=1 n=e5 v=45
80610 On ch=1 n=b5 v=45
80640 On ch=1 n=d#7 v=0
80640 On ch=1 n=e7 v=60
80640 On ch=1 n=g#6 v=45
80720 On ch=1 n=g#6 v=0
80720 On ch=1 n=e7 v=0
80720 On ch=1 n=b5 v=0
80720 On ch=1 n=e5 v=0
80880 On ch=1 n=e6 v=60
80940 On ch=1 n=e6 v=0
80940 On ch=1 n=b5 v=60
81000 On ch=1 n=b5 v=0
81000 On ch=1 n=g#5 v=60
81060 On ch=1 n=g#5 v=0
81060 On ch=1 n=b5 v=60
81120 On ch=1 n=b5 v=0
81120 On ch=1 n=e5 v=60
81200 On ch=1 n=e5 v=0
81360 On ch=1 n=g5 v=92
81360 On ch=1 n=g6 v=92
81360 On ch=1 n=g3 v=92
81360 On ch=1 n=g4 v=92
81440 On ch=1 n=g4 v=0
81440 On ch=1 n=g3 v=0
81440 On ch=1 n=g6 v=0
81440 On ch=1 n=g5 v=0
81600 On ch=1 n=c6 v=127
81600 On ch=1 n=c7 v=127
81600 On ch=1 n=c4 v=127
81600 On ch=1 n=c5 v=127
82240 On ch=1 n=c5 v=0
82240 On ch=1 n=c4 v=0
82240 On ch=1 n=c7 v=0
82240 On ch=1 n=c6 v=0
82320 On ch=1 n=g5 v=92
82320 On ch=1 n=g6 v=92
82320 On ch=1 n=g3 v=92
82320 On ch=1 n=g4 v=92
82400 On ch=1 n=g4 v=0
82400 On ch=1 n=g3 v=0
82400 On ch=1 n=g6 v=0
82400 On ch=1 n=g5 v=0
82560 On ch=1 n=e5 v=92
82560 On ch=1 n=e6 v=92
82560 On ch=1 n=e3 v=92
82560 On ch=1 n=e4 v=92
82640 On ch=1 n=e4 v=0
82640 On ch=1 n=e3 v=0
82640 On ch=1 n=e6 v=0
82640 On ch=1 n=e5 v=0
82800 On ch=1 n=c5 v=92
82800 On ch=1 n=c6 v=92
82800 On ch=1 n=c3 v=92
82800 On ch=1 n=c4 v=92
82880 On ch=1 n=c4 v=0
82880 On ch=1 n=c3 v=0
82880 On ch=1 n=c6 v=0
82880 On ch=1 n=c5 v=0
83040 Tempo 750000
83310 On ch=1 n=c5 v=92
83310 On ch=1 n=e4 v=92
83335 On ch=1 n=e4 v=0
83335 On ch=1 n=c5 v=0
83340 On ch=1 n=d5 v=92
83340 On ch=1 n=f4 v=92
83365 On ch=1 n=f4 v=0
83365 On ch=1 n=d5 v=0
83370 On ch=1 n=e5 v=92
83370 On ch=1 n=g4 v=92
83395 On ch=1 n=g4 v=0
83395 On ch=1 n=e5 v=0
83400 On ch=1 n=f5 v=92
83400 On ch=1 n=a4 v=92
83425 On ch=1 n=a4 v=0
83425 On ch=1 n=f5 v=0
83430 On ch=1 n=g5 v=92
83430 On ch=1 n=b4 v=92
83455 On ch=1 n=b4 v=0
83455 On ch=1 n=g5 v=0
83460 On ch=1 n=a5 v=92
83460 On ch=1 n=c5 v=92
83485 On ch=1 n=c5 v=0
83485 On ch=1 n=a5 v=0
83490 On ch=1 n=b5 v=92
83490 On ch=1 n=d5 v=92
83515 On ch=1 n=d5 v=0
83515 On ch=1 n=b5 v=0
83520 On ch=1 n=c6 v=92
83520 On ch=1 n=e5 v=92
83545 On ch=1 n=e5 v=0
83545 On ch=1 n=c6 v=0
83550 On ch=1 n=d6 v=92
83550 On ch=1 n=f5 v=92
83575 On ch=1 n=f5 v=0
83575 On ch=1 n=d6 v=0
83580 On ch=1 n=e6 v=92
83580 On ch=1 n=g5 v=92
83605 On ch=1 n=g5 v=0
83605 On ch=1 n=e6 v=0
83610 On ch=1 n=f6 v=92
83610 On ch=1 n=a5 v=92
83635 On ch=1 n=a5 v=0
83635 On ch=1 n=f6 v=0
83640 On ch=1 n=g6 v=92
83640 On ch=1 n=b5 v=92
83665 On ch=1 n=b5 v=0
83665 On ch=1 n=g6 v=0
83670 On ch=1 n=a6 v=92
83670 On ch=1 n=c6 v=92
83695 On ch=1 n=c6 v=0
83695 On ch=1 n=a6 v=0
83700 On ch=1 n=b6 v=92
83700 On ch=1 n=d6 v=92
83725 On ch=1 n=d6 v=0
83725 On ch=1 n=b6 v=0
83730 On ch=1 n=c7 v=92
83730 On ch=1 n=e6 v=92
83755 On ch=1 n=e6 v=0
83755 On ch=1 n=c7 v=0
83760 On ch=1 n=d7 v=92
83760 On ch=1 n=f6 v=92
83785 On ch=1 n=f6 v=0
83785 On ch=1 n=d7 v=0
83790 On ch=1 n=e7 v=92
83790 On ch=1 n=g6 v=92
83815 On ch=1 n=g6 v=0
83815 On ch=1 n=e7 v=0
83820 On ch=1 n=f7 v=92
83820 On ch=1 n=a6 v=92
83860 On ch=1 n=a6 v=0
83860 On ch=1 n=f7 v=0
83865 On ch=1 n=g7 v=92
83865 On ch=1 n=b6 v=92
83905 On ch=1 n=b6 v=0
83905 On ch=1 n=g7 v=0
83910 On ch=1 n=a7 v=92
83910 On ch=1 n=c7 v=92
83950 On ch=1 n=c7 v=0
83950 On ch=1 n=a7 v=0
83955 On ch=1 n=b7 v=92
83955 On ch=1 n=d7 v=92
83995 On ch=1 n=d7 v=0
83995 On ch=1 n=b7 v=0
84000 Tempo 500000
84000 On ch=1 n=c8 v=92
84000 On ch=1 n=e7 v=92
84235 On ch=1 n=e7 v=0
84235 On ch=1 n=c8 v=0
84240 On ch=1 n=f7 v=92
84240 On ch=1 n=a7 v=92
84240 On ch=1 n=e8 v=92
84240 On ch=1 n=f6 v=92
84240 On ch=1 n=a6 v=92
84240 On ch=1 n=d7 v=92
84320 On ch=1 n=d7 v=0
84320 On ch=1 n=a6 v=0
84320 On ch=1 n=f6 v=0
84320 On ch=1 n=e8 v=0
84320 On ch=1 n=a7 v=0
84320 On ch=1 n=f7 v=0
84360 On ch=1 n=f7 v=92
84360 On ch=1 n=a7 v=92
84360 On ch=1 n=d8 v=92
84360 On ch=1 n=f6 v=92
84360 On ch=1 n=a6 v=92
84360 On ch=1 n=d7 v=92
84440 On ch=1 n=d7 v=0
84440 On ch=1 n=a6 v=0
84440 On ch=1 n=f6 v=0
84440 On ch=1 n=d8 v=0
84440 On ch=1 n=a7 v=0
84440 On ch=1 n=f7 v=0
84480 On ch=1 n=c8 v=92
84480 On ch=1 n=e7 v=92
84480 On ch=1 n=g5 v=92
84480 On ch=1 n=e6 v=92
84480 On ch=1 n=c7 v=92
84540 On ch=1 n=c8 v=0
84540 On ch=1 n=d8 v=92
84600 On ch=1 n=d8 v=0
84600 On ch=1 n=c8 v=92
84660 On ch=1 n=c8 v=0
84660 On ch=1 n=d8 v=92
84720 On ch=1 n=d8 v=0
84720 On ch=1 n=c8 v=92
84780 On ch=1 n=c8 v=0
84780 On ch=1 n=b7 v=92
84840 On ch=1 n=b7 v=0
84840 On ch=1 n=d8 v=92
84900 On ch=1 n=d8 v=0
84900 On ch=1 n=c8 v=92
84960 On ch=1 n=c8 v=0
84960 On ch=1 n=c7 v=0
84960 On ch=1 n=e6 v=0
84960 On ch=1 n=g5 v=0
84960 On ch=1 n=e7 v=0
84960 On ch=1 n=a7 v=92
84960 On ch=1 n=d7 v=92
84960 On ch=1 n=g5 v=92
84960 On ch=1 n=d6 v=92
84960 On ch=1 n=b6 v=92
85040 On ch=1 n=b6 v=0
85040 On ch=1 n=d6 v=0
85040 On ch=1 n=g5 v=0
85040 On ch=1 n=d7 v=0
85040 On ch=1 n=a7 v=0
85200 On ch=1 n=d5 v=92
85200 On ch=1 n=d6 v=92
85200 On ch=1 n=d3 v=92
85200 On ch=1 n=d4 v=92
85280 On ch=1 n=d4 v=0
85280 On ch=1 n=d3 v=0
85280 On ch=1 n=d6 v=0
85280 On ch=1 n=d5 v=0
85440 On ch=1 n=f5 v=127
85440 On ch=1 n=f6 v=127
85440 On ch=1 n=f3 v=127
85440 On ch=1 n=f4 v=127
86080 On ch=1 n=f4 v=0
86080 On ch=1 n=f3 v=0
86080 On ch=1 n=f6 v=0
86080 On ch=1 n=f5 v=0
86160 On ch=1 n=d5 v=92
86160 On ch=1 n=d6 v=92
86160 On ch=1 n=d3 v=92
86160 On ch=1 n=d4 v=92
86240 On ch=1 n=d4 v=0
86240 On ch=1 n=d3 v=0
86240 On ch=1 n=d6 v=0
86240 On ch=1 n=d5 v=0
86400 On ch=1 n=b4 v=92
86400 On ch=1 n=b5 v=92
86400 On ch=1 n=b2 v=92
86400 On ch=1 n=b3 v=92
86480 On ch=1 n=b3 v=0
86480 On ch=1 n=b2 v=0
86480 On ch=1 n=b5 v=0
86480 On ch=1 n=b4 v=0
86640 On ch=1 n=g4 v=92
86640 On ch=1 n=g5 v=92
86640 On ch=1 n=g2 v=92
86640 On ch=1 n=g3 v=92
86720 On ch=1 n=g3 v=0
86720 On ch=1 n=g2 v=0
86720 On ch=1 n=g5 v=0
86720 On ch=1 n=g4 v=0
86880 Tempo 750000
87150 On ch=1 n=b4 v=92
87150 On ch=1 n=d4 v=92
87175 On ch=1 n=d4 v=0
87175 On ch=1 n=b4 v=0
87180 On ch=1 n=c5 v=92
87180 On ch=1 n=e4 v=92
87205 On ch=1 n=e4 v=0
87205 On ch=1 n=c5 v=0
87210 On ch=1 n=d5 v=92
87210 On ch=1 n=f4 v=92
87235 On ch=1 n=f4 v=0
87235 On ch=1 n=d5 v=0
87240 On ch=1 n=e5 v=92
87240 On ch=1 n=g4 v=92
87265 On ch=1 n=g4 v=0
87265 On ch=1 n=e5 v=0
87270 On ch=1 n=f5 v=92
87270 On ch=1 n=a4 v=92
87295 On ch=1 n=a4 v=0
87295 On ch=1 n=f5 v=0
87300 On ch=1 n=g5 v=92
87300 On ch=1 n=b4 v=92
87325 On ch=1 n=b4 v=0
87325 On ch=1 n=g5 v=0
87330 On ch=1 n=a5 v=92
87330 On ch=1 n=c5 v=92
87355 On ch=1 n=c5 v=0
87355 On ch=1 n=a5 v=0
87360 On ch=1 n=b5 v=92
87360 On ch=1 n=d5 v=92
87385 On ch=1 n=d5 v=0
87385 On ch=1 n=b5 v=0
87390 On ch=1 n=c6 v=92
87390 On ch=1 n=e5 v=92
87415 On ch=1 n=e5 v=0
87415 On ch=1 n=c6 v=0
87420 On ch=1 n=d6 v=92
87420 On ch=1 n=f5 v=92
87445 On ch=1 n=f5 v=0
87445 On ch=1 n=d6 v=0
87450 On ch=1 n=e6 v=92
87450 On ch=1 n=g5 v=92
87475 On ch=1 n=g5 v=0
87475 On ch=1 n=e6 v=0
87480 On ch=1 n=f6 v=92
87480 On ch=1 n=a5 v=92
87505 On ch=1 n=a5 v=0
87505 On ch=1 n=f6 v=0
87510 On ch=1 n=g6 v=92
87510 On ch=1 n=b5 v=92
87535 On ch=1 n=b5 v=0
87535 On ch=1 n=g6 v=0
87540 On ch=1 n=a6 v=92
87540 On ch=1 n=c6 v=92
87565 On ch=1 n=c6 v=0
87565 On ch=1 n=a6 v=0
87570 On ch=1 n=b6 v=92
87570 On ch=1 n=d6 v=92
87595 On ch=1 n=d6 v=0
87595 On ch=1 n=b6 v=0
87600 On ch=1 n=c7 v=92
87600 On ch=1 n=e6 v=92
87625 On ch=1 n=e6 v=0
87625 On ch=1 n=c7 v=0
87630 On ch=1 n=d7 v=92
87630 On ch=1 n=f6 v=92
87655 On ch=1 n=f6 v=0
87655 On ch=1 n=d7 v=0
87660 On ch=1 n=e7 v=92
87660 On ch=1 n=g6 v=92
87700 On ch=1 n=g6 v=0
87700 On ch=1 n=e7 v=0
87705 On ch=1 n=f7 v=92
87705 On ch=1 n=a6 v=92
87745 On ch=1 n=a6 v=0
87745 On ch=1 n=f7 v=0
87750 On ch=1 n=g7 v=92
87750 On ch=1 n=b6 v=92
87790 On ch=1 n=b6 v=0
87790 On ch=1 n=g7 v=0
87795 On ch=1 n=a7 v=92
87795 On ch=1 n=c7 v=92
87835 On ch=1 n=c7 v=0
87835 On ch=1 n=a7 v=0
87840 Tempo 500000
87840 On ch=1 n=b7 v=92
87840 On ch=1 n=d7 v=92
88075 On ch=1 n=d7 v=0
88075 On ch=1 n=b7 v=0
88080 On ch=1 n=a7 v=92
88080 On ch=1 n=f8 v=92
88080 On ch=1 n=b5 v=92
88080 On ch=1 n=a6 v=92
88160 On ch=1 n=a6 v=0
88160 On ch=1 n=b5 v=0
88160 On ch=1 n=f8 v=0
88160 On ch=1 n=a7 v=0
88200 On ch=1 n=g7 v=92
88200 On ch=1 n=e8 v=92
88200 On ch=1 n=b5 v=92
88200 On ch=1 n=g6 v=92
88280 On ch=1 n=g6 v=0
88280 On ch=1 n=b5 v=0
88280 On ch=1 n=e8 v=0
88280 On ch=1 n=g7 v=0
88320 On ch=1 n=d8 v=92
88320 On ch=1 n=f7 v=92
88320 On ch=1 n=g5 v=92
88320 On ch=1 n=b5 v=92
88320 On ch=1 n=f6 v=92
88380 On ch=1 n=d8 v=0
88380 On ch=1 n=e8 v=92
88440 On ch=1 n=e8 v=0
88440 On ch=1 n=d8 v=92
88500 On ch=1 n=d8 v=0
88500 On ch=1 n=e8 v=92
88560 On ch=1 n=e8 v=0
88560 On ch=1 n=d8 v=92
88620 On ch=1 n=d8 v=0
88620 On ch=1 n=c#8 v=92
88680 On ch=1 n=c#8 v=0
88680 On ch=1 n=e8 v=92
88740 On ch=1 n=e8 v=0
88740 On ch=1 n=d8 v=92
88800 On ch=1 n=d8 v=0
88800 On ch=1 n=f6 v=0
88800 On ch=1 n=b5 v=0
88800 On ch=1 n=g5 v=0
88800 On ch=1 n=f7 v=0
88800 On ch=1 n=c8 v=92
88800 On ch=1 n=e7 v=92
88800 On ch=1 n=c6 v=92
88800 On ch=1 n=e6 v=92
88880 On ch=1 n=e6 v=0
88880 On ch=1 n=c6 v=0
88880 On ch=1 n=e7 v=0
88880 On ch=1 n=c8 v=0
89040 On ch=1 n=g7 v=75
89120 On ch=1 n=g7 v=0
89280 On ch=1 n=c8 v=75
89360 On ch=1 n=c8 v=0
89520 On ch=1 n=g5 v=75
89580 On ch=1 n=g5 v=0
89580 On ch=1 n=f5 v=75
89640 On ch=1 n=f5 v=0
89640 On ch=1 n=e5 v=75
89700 On ch=1 n=e5 v=0
89700 On ch=1 n=d5 v=75
89700 On ch=1 n=a#5 v=60
89720 On ch=1 n=e6 v=60
89740 On ch=1 n=g6 v=60
89760 On ch=1 n=d5 v=0
89760 On ch=1 n=c5 v=75
89760 On ch=1 n=c7 v=60
89840 On ch=1 n=c7 v=0
89840 On ch=1 n=c5 v=0
89840 On ch=1 n=g6 v=0
89840 On ch=1 n=e6 v=0
89840 On ch=1 n=a#5 v=0
90000 On ch=1 n=c7 v=75
90060 On ch=1 n=c7 v=0
90060 On ch=1 n=e7 v=75
90120 On ch=1 n=e7 v=0
90120 On ch=1 n=g7 v=75
90180 On ch=1 n=g7 v=0
90180 On ch=1 n=e7 v=75
90240 On ch=1 n=e7 v=0
90240 On ch=1 n=f7 v=75
90320 On ch=1 n=f7 v=0
90480 On ch=1 n=c6 v=75
90480 On ch=1 n=f6 v=60
90480 On ch=1 n=a6 v=60
90540 On ch=1 n=c6 v=0
90540 On ch=1 n=a#5 v=75
90560 On ch=1 n=a6 v=0
90560 On ch=1 n=f6 v=0
90600 On ch=1 n=a#5 v=0
90600 On ch=1 n=a5 v=75
90660 On ch=1 n=a5 v=0
90660 On ch=1 n=g5 v=75
90720 On ch=1 n=g5 v=0
90720 On ch=1 n=f5 v=75
90720 On ch=1 n=c6 v=60
90720 On ch=1 n=f6 v=60
90720 On ch=1 n=a6 v=60
90800 On ch=1 n=a6 v=0
90800 On ch=1 n=f6 v=0
90800 On ch=1 n=c6 v=0
90800 On ch=1 n=f5 v=0
90960 On ch=1 n=a7 v=75
90960 On ch=1 n=f8 v=75
91040 On ch=1 n=f8 v=0
91040 On ch=1 n=a7 v=0
91200 On ch=1 n=f#7 v=75
91200 On ch=1 n=d8 v=75
91280 On ch=1 n=d8 v=0
91280 On ch=1 n=f#7 v=0
91440 On ch=1 n=a5 v=75
91500 On ch=1 n=a5 v=0
91500 On ch=1 n=g5 v=75
91560 On ch=1 n=g5 v=0
91560 On ch=1 n=f#5 v=75
91620 On ch=1 n=f#5 v=0
91620 On ch=1 n=e5 v=75
91620 On ch=1 n=c6 v=60
91640 On ch=1 n=f#6 v=60
91660 On ch=1 n=a6 v=60
91680 On ch=1 n=e5 v=0
91680 On ch=1 n=d5 v=75
91680 On ch=1 n=d7 v=60
91760 On ch=1 n=d7 v=0
91760 On ch=1 n=d5 v=0
91760 On ch=1 n=a6 v=0
91760 On ch=1 n=f#6 v=0
91760 On ch=1 n=c6 v=0
91920 On ch=1 n=d7 v=75
91980 On ch=1 n=d7 v=0
91980 On ch=1 n=f#7 v=75
92040 On ch=1 n=f#7 v=0
92040 On ch=1 n=a7 v=75
92100 On ch=1 n=a7 v=0
92100 On ch=1 n=f#7 v=75
92160 On ch=1 n=f#7 v=0
92160 On ch=1 n=g7 v=75
92240 On ch=1 n=g7 v=0
92400 On ch=1 n=d6 v=75
92400 On ch=1 n=b6 v=60
92400 On ch=1 n=g6 v=60
92460 On ch=1 n=d6 v=0
92460 On ch=1 n=c6 v=75
92480 On ch=1 n=g6 v=0
92480 On ch=1 n=b6 v=0
92520 On ch=1 n=c6 v=0
92520 On ch=1 n=b5 v=75
92580 On ch=1 n=b5 v=0
92580 On ch=1 n=a5 v=75
92640 On ch=1 n=a5 v=0
92640 On ch=1 n=g5 v=75
92640 On ch=1 n=d6 v=60
92640 On ch=1 n=g6 v=60
92640 On ch=1 n=b6 v=60
92720 On ch=1 n=b6 v=0
92720 On ch=1 n=g6 v=0
92720 On ch=1 n=d6 v=0
92720 On ch=1 n=g5 v=0
92880 On ch=1 n=b7 v=75
92880 On ch=1 n=g8 v=75
92960 On ch=1 n=g8 v=0
92960 On ch=1 n=b7 v=0
93120 On ch=1 n=g#7 v=75
93120 On ch=1 n=e8 v=75
93200 On ch=1 n=e8 v=0
93200 On ch=1 n=g#7 v=0
93360 On ch=1 n=b5 v=75
93420 On ch=1 n=b5 v=0
93420 On ch=1 n=a5 v=75
93480 On ch=1 n=a5 v=0
93480 On ch=1 n=g#5 v=75
93540 On ch=1 n=g#5 v=0
93540 On ch=1 n=f#5 v=75
93540 On ch=1 n=d6 v=60
93560 On ch=1 n=g#6 v=60
93580 On ch=1 n=b6 v=60
93600 On ch=1 n=f#5 v=0
93600 On ch=1 n=e5 v=75
93600 On ch=1 n=e7 v=60
93680 On ch=1 n=e7 v=0
93680 On ch=1 n=e5 v=0
93680 On ch=1 n=b6 v=0
93680 On ch=1 n=g#6 v=0
93680 On ch=1 n=d6 v=0
93840 On ch=1 n=e7 v=75
93900 On ch=1 n=e7 v=0
93900 On ch=1 n=g#7 v=75
93960 On ch=1 n=g#7 v=0
93960 On ch=1 n=b7 v=75
94020 On ch=1 n=b7 v=0
94020 On ch=1 n=g#7 v=75
94080 On ch=1 n=g#7 v=0
94080 On ch=1 n=a7 v=75
94160 On ch=1 n=a7 v=0
94320 On ch=1 n=e6 v=75
94320 On ch=1 n=a6 v=60
94320 On ch=1 n=c7 v=60
94380 On ch=1 n=e6 v=0
94380 On ch=1 n=d6 v=75
94400 On ch=1 n=c7 v=0
94400 On ch=1 n=a6 v=0
94440 On ch=1 n=d6 v=0
94440 On ch=1 n=c6 v=75
94500 On ch=1 n=c6 v=0
94500 On ch=1 n=b5 v=75
94560 On ch=1 n=b5 v=0
94560 On ch=1 n=a5 v=75
94560 On ch=1 n=e6 v=60
94560 On ch=1 n=a6 v=60
94560 On ch=1 n=c7 v=60
94640 On ch=1 n=c7 v=0
94640 On ch=1 n=a6 v=0
94640 On ch=1 n=e6 v=0
94640 On ch=1 n=a5 v=0
94800 On ch=1 n=e6 v=75
94860 On ch=1 n=e6 v=0
94860 On ch=1 n=c6 v=75
94920 On ch=1 n=c6 v=0
94920 On ch=1 n=a5 v=75
94980 On ch=1 n=a5 v=0
94980 On ch=1 n=g5 v=75
95040 On ch=1 n=g5 v=0
95040 On ch=1 n=f5 v=75
95120 On ch=1 n=f5 v=0
95280 On ch=1 n=f7 v=75
95280 On ch=1 n=c6 v=60
95280 On ch=1 n=f6 v=60
95280 On ch=1 n=a6 v=60
95340 On ch=1 n=f7 v=0
95340 On ch=1 n=a7 v=75
95360 On ch=1 n=a6 v=0
95360 On ch=1 n=f6 v=0
95360 On ch=1 n=c6 v=0
95400 On ch=1 n=a7 v=0
95400 On ch=1 n=c8 v=75
95460 On ch=1 n=c8 v=0
95460 On ch=1 n=a7 v=75
95520 On ch=1 n=a7 v=0
95520 On ch=1 n=f7 v=75
95520 On ch=1 n=f6 v=60
95520 On ch=1 n=a6 v=60
95520 On ch=1 n=c7 v=60
95600 On ch=1 n=c7 v=0
95600 On ch=1 n=a6 v=0
95600 On ch=1 n=f6 v=0
95600 On ch=1 n=f7 v=0
95760 On ch=1 n=f6 v=75
95820 On ch=1 n=f6 v=0
95820 On ch=1 n=c6 v=75
95880 On ch=1 n=c6 v=0
95880 On ch=1 n=a5 v=75
95940 On ch=1 n=a5 v=0
95940 On ch=1 n=f5 v=75
96000 On ch=1 n=f5 v=0
96000 On ch=1 n=e5 v=75
96080 On ch=1 n=e5 v=0
96240 On ch=1 n=e7 v=75
96240 On ch=1 n=c6 v=60
96240 On ch=1 n=e6 v=60
96240 On ch=1 n=a6 v=60
96300 On ch=1 n=e7 v=0
96300 On ch=1 n=a7 v=75
96320 On ch=1 n=a6 v=0
96320 On ch=1 n=e6 v=0
96320 On ch=1 n=c6 v=0
96360 On ch=1 n=a7 v=0
96360 On ch=1 n=c8 v=75
96420 On ch=1 n=c8 v=0
96420 On ch=1 n=a7 v=75
96480 On ch=1 n=a7 v=0
96480 On ch=1 n=e7 v=75
96480 On ch=1 n=e6 v=60
96480 On ch=1 n=a6 v=60
96480 On ch=1 n=c7 v=60
96560 On ch=1 n=c7 v=0
96560 On ch=1 n=a6 v=0
96560 On ch=1 n=e6 v=0
96560 On ch=1 n=e7 v=0
96720 On ch=1 n=e6 v=75
96780 On ch=1 n=e6 v=0
96780 On ch=1 n=c6 v=75
96840 On ch=1 n=c6 v=0
96840 On ch=1 n=a5 v=75
96900 On ch=1 n=a5 v=0
96900 On ch=1 n=e5 v=75
96960 On ch=1 n=e5 v=0
96960 On ch=1 n=d#5 v=75
97040 On ch=1 n=d#5 v=0
97200 On ch=1 n=d#7 v=75
97200 On ch=1 n=c6 v=60
97200 On ch=1 n=f#6 v=60
97200 On ch=1 n=a6 v=60
97260 On ch=1 n=d#7 v=0
97260 On ch=1 n=a7 v=75
97280 On ch=1 n=a6 v=0
97280 On ch=1 n=f#6 v=0
97280 On ch=1 n=c6 v=0
97320 On ch=1 n=a7 v=0
97320 On ch=1 n=c8 v=75
97380 On ch=1 n=c8 v=0
97380 On ch=1 n=a7 v=75
97440 On ch=1 n=a7 v=0
97440 On ch=1 n=d#7 v=75
97440 On ch=1 n=f#6 v=60
97440 On ch=1 n=a6 v=60
97440 On ch=1 n=c7 v=60
97520 On ch=1 n=c7 v=0
97520 On ch=1 n=a6 v=0
97520 On ch=1 n=f#6 v=0
97520 On ch=1 n=d#7 v=0
97680 On ch=1 n=d#6 v=75
97740 On ch=1 n=d#6 v=0
97740 On ch=1 n=c6 v=75
97800 On ch=1 n=c6 v=0
97800 On ch=1 n=a5 v=75
97860 On ch=1 n=a5 v=0
97860 On ch=1 n=f#5 v=75
97920 On ch=1 n=f#5 v=0
97920 On ch=1 n=e5 v=75
98000 On ch=1 n=e5 v=0
98160 On ch=1 n=e7 v=75
98160 On ch=1 n=b5 v=60
98160 On ch=1 n=e6 v=60
98160 On ch=1 n=g6 v=60
98220 On ch=1 n=e7 v=0
98220 On ch=1 n=g7 v=75
98240 On ch=1 n=g6 v=0
98240 On ch=1 n=e6 v=0
98240 On ch=1 n=b5 v=0
98280 On ch=1 n=g7 v=0
98280 On ch=1 n=b7 v=75
98340 On ch=1 n=b7 v=0
98340 On ch=1 n=g7 v=75
98400 On ch=1 n=g7 v=0
98400 On ch=1 n=e7 v=75
98400 On ch=1 n=e6 v=60
98400 On ch=1 n=g6 v=60
98400 On ch=1 n=b6 v=60
98480 On ch=1 n=b6 v=0
98480 On ch=1 n=g6 v=0
98480 On ch=1 n=e6 v=0
98480 On ch=1 n=e7 v=0
98640 On ch=1 n=b5 v=75
98700 On ch=1 n=b5 v=0
98700 On ch=1 n=g5 v=75
98760 On ch=1 n=g5 v=0
98760 On ch=1 n=e5 v=75
98820 On ch=1 n=e5 v=0
98820 On ch=1 n=d5 v=75
98880 On ch=1 n=d5 v=0
98880 On ch=1 n=c5 v=75
98960 On ch=1 n=c5 v=0
99120 On ch=1 n=e7 v=75
99120 On ch=1 n=e7 v=75
99120 On ch=1 n=g5 v=60
99120 On ch=1 n=e6 v=60
99120 On ch=1 n=g6 v=60
99180 On ch=1 n=e7 v=0
99180 On ch=1 n=g7 v=75
99200 On ch=1 n=g6 v=0
99200 On ch=1 n=e6 v=0
99200 On ch=1 n=g5 v=0
99240 On ch=1 n=g7 v=0
99240 On ch=1 n=c8 v=75
99300 On ch=1 n=c8 v=0
99300 On ch=1 n=g7 v=75
99355 On ch=1 n=e7 v=0
99360 On ch=1 n=g7 v=0
99360 On ch=1 n=e7 v=75
99360 On ch=1 n=e7 v=75
99360 On ch=1 n=c6 v=60
99360 On ch=1 n=e6 v=60
99360 On ch=1 n=g6 v=60
99440 On ch=1 n=g6 v=0
99440 On ch=1 n=e6 v=0
99440 On ch=1 n=c6 v=0
99440 On ch=1 n=e7 v=0
99595 On ch=1 n=e7 v=0
99600 On ch=1 n=c6 v=75
99660 On ch=1 n=c6 v=0
99660 On ch=1 n=g5 v=75
99720 On ch=1 n=g5 v=0
99720 On ch=1 n=e5 v=75
99780 On ch=1 n=e5 v=0
99780 On ch=1 n=c5 v=75
99840 On ch=1 n=c5 v=0
99840 On ch=1 n=b4 v=75
99920 On ch=1 n=b4 v=0
100080 On ch=1 n=e7 v=75
100080 On ch=1 n=b6 v=75
100080 On ch=1 n=g5 v=60
100080 On ch=1 n=e6 v=60
100080 On ch=1 n=g6 v=60
100140 On ch=1 n=e7 v=0
100140 On ch=1 n=g7 v=75
100160 On ch=1 n=g6 v=0
100160 On ch=1 n=e6 v=0
100160 On ch=1 n=g5 v=0
100200 On ch=1 n=g7 v=0
100200 On ch=1 n=b7 v=75
100260 On ch=1 n=b7 v=0
100260 On ch=1 n=g7 v=75
100315 On ch=1 n=b6 v=0
100320 On ch=1 n=g7 v=0
100320 On ch=1 n=e7 v=75
100320 On ch=1 n=b6 v=75
100320 On ch=1 n=b5 v=60
100320 On ch=1 n=e6 v=60
100320 On ch=1 n=g6 v=60
100400 On ch=1 n=g6 v=0
100400 On ch=1 n=e6 v=0
100400 On ch=1 n=b5 v=0
100400 On ch=1 n=e7 v=0
100555 On ch=1 n=b6 v=0
100560 On ch=1 n=b5 v=75
100620 On ch=1 n=b5 v=0
100620 On ch=1 n=g5 v=75
100680 On ch=1 n=g5 v=0
100680 On ch=1 n=e5 v=75
100740 On ch=1 n=e5 v=0
100740 On ch=1 n=b4 v=75
100800 On ch=1 n=b4 v=0
100800 On ch=1 n=a#4 v=75
100880 On ch=1 n=a#4 v=0
101040 On ch=1 n=e7 v=75
101040 On ch=1 n=a#6 v=75
101040 On ch=1 n=g5 v=60
101040 On ch=1 n=e6 v=60
101040 On ch=1 n=g6 v=60
101100 On ch=1 n=e7 v=0
101100 On ch=1 n=g7 v=75
101120 On ch=1 n=g6 v=0
101120 On ch=1 n=e6 v=0
101120 On ch=1 n=g5 v=0
101160 On ch=1 n=g7 v=0
101160 On ch=1 n=a#7 v=75
101220 On ch=1 n=a#7 v=0
101220 On ch=1 n=g7 v=75
101275 On ch=1 n=a#6 v=0
101280 On ch=1 n=g7 v=0
101280 On ch=1 n=e7 v=75
101280 On ch=1 n=a#6 v=75
101280 On ch=1 n=c#6 v=60
101280 On ch=1 n=e6 v=60
101280 On ch=1 n=g6 v=60
101360 On ch=1 n=g6 v=0
101360 On ch=1 n=e6 v=0
101360 On ch=1 n=c#6 v=0
101360 On ch=1 n=e7 v=0
101515 On ch=1 n=a#6 v=0
101520 On ch=1 n=a#5 v=75
101520 On ch=1 n=c#6 v=60
101520 On ch=1 n=e6 v=60
101520 On ch=1 n=g6 v=60
101580 On ch=1 n=a#5 v=0
101580 On ch=1 n=g5 v=75
101600 On ch=1 n=g6 v=0
101600 On ch=1 n=e6 v=0
101600 On ch=1 n=c#6 v=0
101640 On ch=1 n=g5 v=0
101640 On ch=1 n=e5 v=75
101700 On ch=1 n=e5 v=0
101700 On ch=1 n=c#5 v=75
101760 On ch=1 n=c#5 v=0
101760 On ch=1 n=b4 v=75
101760 On ch=1 n=d#6 v=60
101760 On ch=1 n=f#6 v=60
101760 On ch=1 n=b6 v=60
101840 On ch=1 n=b4 v=0
101995 On ch=1 n=b6 v=0
101995 On ch=1 n=f#6 v=0
101995 On ch=1 n=d#6 v=0
102000 On ch=1 n=d#7 v=75
102060 On ch=1 n=d#7 v=0
102060 On ch=1 n=b7 v=75
102120 On ch=1 n=b7 v=0
102120 On ch=1 n=f#7 v=75
102180 On ch=1 n=f#7 v=0
102180 On ch=1 n=d#7 v=75
102240 On ch=1 n=d#7 v=0
102240 On ch=1 n=b6 v=75
102240 On ch=1 n=d#6 v=60
102300 On ch=1 n=d#6 v=0
102300 On ch=1 n=b6 v=60
102320 On ch=1 n=b6 v=0
102360 On ch=1 n=b6 v=0
102360 On ch=1 n=f#6 v=60
102420 On ch=1 n=f#6 v=0
102420 On ch=1 n=d#6 v=60
102475 On ch=1 n=d#6 v=0
102480 On ch=1 n=a6 v=75
102540 On ch=1 n=a6 v=0
102540 On ch=1 n=b6 v=75
102600 On ch=1 n=b6 v=0
102600 On ch=1 n=a6 v=75
102660 On ch=1 n=a6 v=0
102660 On ch=1 n=f#6 v=75
102720 On ch=1 n=f#6 v=0
102720 On ch=1 n=e6 v=75
102720 On ch=1 n=g5 v=60
102780 On ch=1 n=g5 v=0
102780 On ch=1 n=e6 v=60
102800 On ch=1 n=e6 v=0
102840 On ch=1 n=e6 v=0
102840 On ch=1 n=b5 v=60
102900 On ch=1 n=b5 v=0
102900 On ch=1 n=g5 v=60
102955 On ch=1 n=g5 v=0
102960 On ch=1 n=e6 v=75
103020 On ch=1 n=e6 v=0
103020 On ch=1 n=g6 v=75
103080 On ch=1 n=g6 v=0
103080 On ch=1 n=e6 v=75
103140 On ch=1 n=e6 v=0
103140 On ch=1 n=d6 v=75
103200 On ch=1 n=d6 v=0
103200 On ch=1 n=c6 v=75
103200 On ch=1 n=e5 v=60
103260 On ch=1 n=e5 v=0
103260 On ch=1 n=c6 v=60
103280 On ch=1 n=c6 v=0
103320 On ch=1 n=c6 v=0
103320 On ch=1 n=g5 v=60
103380 On ch=1 n=g5 v=0
103380 On ch=1 n=e5 v=60
103435 On ch=1 n=e5 v=0
103440 On ch=1 n=c6 v=75
103500 On ch=1 n=c6 v=0
103500 On ch=1 n=e6 v=75
103560 On ch=1 n=e6 v=0
103560 On ch=1 n=c6 v=75
103620 On ch=1 n=c6 v=0
103620 On ch=1 n=a#5 v=75
103680 On ch=1 n=a#5 v=0
103680 On ch=1 n=b5 v=75
103680 On ch=1 n=d#5 v=60
103740 On ch=1 n=d#5 v=0
103740 On ch=1 n=b5 v=60
103760 On ch=1 n=b5 v=0
103800 On ch=1 n=b5 v=0
103800 On ch=1 n=f#5 v=60
103860 On ch=1 n=f#5 v=0
103860 On ch=1 n=d#5 v=60
103915 On ch=1 n=d#5 v=0
103920 On ch=1 n=d#6 v=75
103980 On ch=1 n=d#6 v=0
103980 On ch=1 n=b6 v=75
104040 On ch=1 n=b6 v=0
104040 On ch=1 n=f#6 v=75
104100 On ch=1 n=f#6 v=0
104100 On ch=1 n=d#6 v=75
104160 On ch=1 n=d#6 v=0
104160 On ch=1 n=b5 v=75
104160 On ch=1 n=d#5 v=60
104220 On ch=1 n=d#5 v=0
104220 On ch=1 n=b5 v=60
104240 On ch=1 n=b5 v=0
104280 On ch=1 n=b5 v=0
104280 On ch=1 n=f#5 v=60
104340 On ch=1 n=f#5 v=0
104340 On ch=1 n=d#5 v=60
104395 On ch=1 n=d#5 v=0
104400 On ch=1 n=a5 v=75
104460 On ch=1 n=a5 v=0
104460 On ch=1 n=b5 v=75
104520 On ch=1 n=b5 v=0
104520 On ch=1 n=a5 v=75
104580 On ch=1 n=a5 v=0
104580 On ch=1 n=f#5 v=75
104640 On ch=1 n=f#5 v=0
104640 On ch=1 n=e5 v=75
104640 On ch=1 n=g4 v=60
104700 On ch=1 n=g4 v=0
104700 On ch=1 n=e5 v=60
104720 On ch=1 n=e5 v=0
104760 On ch=1 n=e5 v=0
104760 On ch=1 n=b4 v=60
104820 On ch=1 n=b4 v=0
104820 On ch=1 n=g4 v=60
104875 On ch=1 n=g4 v=0
104880 On ch=1 n=e5 v=75
104940 On ch=1 n=e5 v=0
104940 On ch=1 n=g5 v=75
105000 On ch=1 n=g5 v=0
105000 On ch=1 n=e5 v=75
105060 On ch=1 n=e5 v=0
105060 On ch=1 n=d5 v=75
105120 On ch=1 n=d5 v=0
105120 On ch=1 n=c5 v=75
105120 On ch=1 n=e4 v=60
105180 On ch=1 n=e4 v=0
105180 On ch=1 n=c5 v=60
105200 On ch=1 n=c5 v=0
105240 On ch=1 n=c5 v=0
105240 On ch=1 n=g4 v=60
105300 On ch=1 n=g4 v=0
105300 On ch=1 n=e4 v=60
105355 On ch=1 n=e4 v=0
105360 On ch=1 n=c5 v=75
105420 On ch=1 n=c5 v=0
105420 On ch=1 n=e5 v=75
105480 On ch=1 n=e5 v=0
105480 On ch=1 n=c5 v=75
105540 On ch=1 n=c5 v=0
105540 On ch=1 n=a#4 v=75
105595 On ch=1 n=a#4 v=0
105600 Tempo 500000
105600 On ch=1 n=b4 v=75
105600 On ch=1 n=d#4 v=60
105622 Tempo 508474
105647 Tempo 517241
105657 On ch=1 n=d#4 v=0
105657 On ch=1 n=g4 v=60
105667 Tempo 526315
105692 Tempo 535714
105717 On ch=1 n=g4 v=0
105717 Tempo 545454
105717 On ch=1 n=f#4 v=60
105739 Tempo 555555
105764 Tempo 566037
105774 On ch=1 n=f#4 v=0
105774 On ch=1 n=d#4 v=60
105784 Tempo 576923
105809 Tempo 588235
105834 On ch=1 n=d#4 v=0
105834 Tempo 600000
105834 On ch=1 n=b3 v=60
105856 Tempo 612244
105881 Tempo 625000
105891 On ch=1 n=b3 v=0
105891 On ch=1 n=b4 v=0
105891 On ch=1 n=d#5 v=75
105891 On ch=1 n=f#4 v=60
105901 Tempo 638297
105926 Tempo 652173
105951 On ch=1 n=f#4 v=0
105951 On ch=1 n=d#5 v=0
105951 Tempo 666666
105951 On ch=1 n=f#5 v=75
105951 On ch=1 n=a#4 v=60
105973 Tempo 681818
105998 Tempo 697674
106008 On ch=1 n=a#4 v=0
106008 On ch=1 n=f#5 v=0
106008 On ch=1 n=a#5 v=75
106008 On ch=1 n=b4 v=60
106018 Tempo 714285
106043 Tempo 731707
106068 On ch=1 n=b4 v=0
106068 On ch=1 n=a#5 v=0
106068 Tempo 750000
106068 On ch=1 n=b5 v=75
106068 On ch=1 n=d#5 v=60
106128 On ch=1 n=d#5 v=0
106128 On ch=1 n=b5 v=0
106128 On ch=1 n=d#6 v=75
106128 On ch=1 n=f#5 v=60
106188 On ch=1 n=f#5 v=0
106188 On ch=1 n=d#6 v=0
106188 On ch=1 n=f#6 v=75
106188 On ch=1 n=a#5 v=60
106248 On ch=1 n=a#5 v=0
106248 On ch=1 n=f#6 v=0
106248 On ch=1 n=a#6 v=75
106248 On ch=1 n=b5 v=60
106308 On ch=1 n=b5 v=0
106308 On ch=1 n=a#6 v=0
106308 On ch=1 n=b6 v=75
106308 On ch=1 n=d#6 v=60
106368 On ch=1 n=d#6 v=0
106368 On ch=1 n=b6 v=0
106368 On ch=1 n=d#7 v=75
106368 On ch=1 n=f#6 v=60
106428 On ch=1 n=f#6 v=0
106428 On ch=1 n=d#7 v=0
106428 On ch=1 n=f#7 v=75
106428 On ch=1 n=a#6 v=60
106488 On ch=1 n=a#6 v=0
106488 On ch=1 n=f#7 v=0
106488 On ch=1 n=a#7 v=75
106488 On ch=1 n=b6 v=60
106548 On ch=1 n=b6 v=0
106548 On ch=1 n=a#7 v=0
106548 On ch=1 n=b7 v=75
106548 On ch=1 n=d#7 v=60
106783 On ch=1 n=d#7 v=0
106783 On ch=1 n=b7 v=0
107028 Tempo 500000
107268 On ch=1 n=g#7 v=60
107268 On ch=1 n=b7 v=60
107383 On ch=1 n=b7 v=0
107383 On ch=1 n=g#7 v=0
107388 On ch=1 n=f#7 v=60
107388 On ch=1 n=a7 v=60
107503 On ch=1 n=a7 v=0
107503 On ch=1 n=f#7 v=0
107508 KeySig 4 major
107508 On ch=1 n=e7 v=60
107508 On ch=1 n=g#7 v=60
107508 On ch=1 n=e6 v=60
107508 On ch=1 n=b6 v=60
107623 On ch=1 n=b6 v=0
107623 On ch=1 n=e6 v=0
107628 On ch=1 n=e6 v=60
107628 On ch=1 n=b6 v=60
107743 On ch=1 n=b6 v=0
107743 On ch=1 n=e6 v=0
107743 On ch=1 n=g#7 v=0
107743 On ch=1 n=e7 v=0
107748 On ch=1 n=e7 v=60
107748 On ch=1 n=g#7 v=60
107863 On ch=1 n=g#7 v=0
107863 On ch=1 n=e7 v=0
107868 On ch=1 n=b6 v=60
107868 On ch=1 n=f#7 v=60
107983 On ch=1 n=f#7 v=0
107983 On ch=1 n=b6 v=0
107988 On ch=1 n=g#6 v=60
107988 On ch=1 n=e7 v=60
107988 On ch=1 n=b5 v=60
107988 On ch=1 n=e6 v=60
108103 On ch=1 n=e6 v=0
108103 On ch=1 n=b5 v=0
108108 On ch=1 n=b5 v=60
108108 On ch=1 n=e6 v=60
108223 On ch=1 n=e6 v=0
108223 On ch=1 n=b5 v=0
108223 On ch=1 n=e7 v=0
108223 On ch=1 n=g#6 v=0
108228 On ch=1 n=g#6 v=60
108228 On ch=1 n=b6 v=60
108343 On ch=1 n=b6 v=0
108343 On ch=1 n=g#6 v=0
108348 On ch=1 n=f#6 v=60
108348 On ch=1 n=a6 v=60
108463 On ch=1 n=a6 v=0
108463 On ch=1 n=f#6 v=0
108468 On ch=1 n=e6 v=60
108468 On ch=1 n=g#6 v=60
108468 On ch=1 n=e5 v=60
108468 On ch=1 n=b5 v=60
108583 On ch=1 n=b5 v=0
108583 On ch=1 n=e5 v=0
108588 On ch=1 n=e5 v=60
108588 On ch=1 n=b5 v=60
108703 On ch=1 n=b5 v=0
108703 On ch=1 n=e5 v=0
108703 On ch=1 n=g#6 v=0
108703 On ch=1 n=e6 v=0
108708 On ch=1 n=e6 v=60
108708 On ch=1 n=g#6 v=60
108823 On ch=1 n=g#6 v=0
108823 On ch=1 n=e6 v=0
108828 On ch=1 n=b5 v=60
108828 On ch=1 n=f#6 v=60
108943 On ch=1 n=f#6 v=0
108943 On ch=1 n=b5 v=0
108948 On ch=1 n=g#5 v=60
108948 On ch=1 n=e6 v=60
108948 On ch=1 n=b4 v=60
108948 On ch=1 n=e5 v=60
109063 On ch=1 n=e5 v=0
109063 On ch=1 n=b4 v=0
109068 On ch=1 n=b4 v=60
109068 On ch=1 n=e5 v=60
109183 On ch=1 n=e5 v=0
109183 On ch=1 n=b4 v=0
109183 On ch=1 n=e6 v=0
109183 On ch=1 n=g#5 v=0
109188 On ch=1 n=g#5 v=60
109188 On ch=1 n=e6 v=60
109303 On ch=1 n=e6 v=0
109303 On ch=1 n=g#5 v=0
109308 On ch=1 n=b5 v=60
109308 On ch=1 n=f#6 v=60
109423 On ch=1 n=f#6 v=0
109423 On ch=1 n=b5 v=0
109428 On ch=1 n=e6 v=60
109428 On ch=1 n=g#6 v=60
109428 On ch=1 n=e4 v=60
109428 On ch=1 n=b4 v=60
109543 On ch=1 n=b4 v=0
109543 On ch=1 n=e4 v=0
109548 On ch=1 n=e4 v=60
109548 On ch=1 n=b4 v=60
109663 On ch=1 n=b4 v=0
109663 On ch=1 n=e4 v=0
109663 On ch=1 n=g#6 v=0
109663 On ch=1 n=e6 v=0
109668 On ch=1 n=b5 v=60
109668 On ch=1 n=f#6 v=60
109783 On ch=1 n=f#6 v=0
109783 On ch=1 n=b5 v=0
109788 On ch=1 n=e6 v=60
109788 On ch=1 n=g#6 v=60
109903 On ch=1 n=g#6 v=0
109903 On ch=1 n=e6 v=0
109908 On ch=1 n=f#6 v=60
109908 On ch=1 n=a6 v=60
109908 On ch=1 n=d#5 v=60
109908 On ch=1 n=b5 v=60
110023 On ch=1 n=b5 v=0
110023 On ch=1 n=d#5 v=0
110028 On ch=1 n=d#5 v=60
110028 On ch=1 n=b5 v=60
110143 On ch=1 n=b5 v=0
110143 On ch=1 n=d#5 v=0
110143 On ch=1 n=a6 v=0
110143 On ch=1 n=f#6 v=0
110148 On ch=1 n=b5 v=60
110148 On ch=1 n=f#6 v=60
110263 On ch=1 n=f#6 v=0
110263 On ch=1 n=b5 v=0
110268 On ch=1 n=f#6 v=60
110268 On ch=1 n=a6 v=60
110383 On ch=1 n=a6 v=0
110383 On ch=1 n=f#6 v=0
110388 On ch=1 n=g#6 v=60
110388 On ch=1 n=b6 v=60
110388 On ch=1 n=e4 v=60
110388 On ch=1 n=b4 v=60
110503 On ch=1 n=b4 v=0
110503 On ch=1 n=e4 v=0
110508 On ch=1 n=e4 v=60
110508 On ch=1 n=b4 v=60
110623 On ch=1 n=b4 v=0
110623 On ch=1 n=e4 v=0
110623 On ch=1 n=b6 v=0
110623 On ch=1 n=g#6 v=0
110628 On ch=1 n=f#6 v=60
110628 On ch=1 n=a6 v=60
110743 On ch=1 n=a6 v=0
110743 On ch=1 n=f#6 v=0
110748 On ch=1 n=e6 v=60
110748 On ch=1 n=g#6 v=60
110863 On ch=1 n=g#6 v=0
110863 On ch=1 n=e6 v=0
110868 On ch=1 n=d#6 v=60
110868 On ch=1 n=f#6 v=60
110868 On ch=1 n=b4 v=60
110868 On ch=1 n=b5 v=60
110983 On ch=1 n=b5 v=0
110983 On ch=1 n=b4 v=0
110988 On ch=1 n=b4 v=60
110988 On ch=1 n=b5 v=60
111103 On ch=1 n=b5 v=0
111103 On ch=1 n=b4 v=0
111103 On ch=1 n=f#6 v=0
111103 On ch=1 n=d#6 v=0
111108 On ch=1 n=g#7 v=60
111108 On ch=1 n=b7 v=60
111223 On ch=1 n=b7 v=0
111223 On ch=1 n=g#7 v=0
111228 On ch=1 n=f#7 v=60
111228 On ch=1 n=a7 v=60
111343 On ch=1 n=a7 v=0
111343 On ch=1 n=f#7 v=0
111348 On ch=1 n=e7 v=60
111348 On ch=1 n=g#7 v=60
111348 On ch=1 n=e6 v=60
111348 On ch=1 n=b6 v=60
111463 On ch=1 n=b6 v=0
111463 On ch=1 n=e6 v=0
111468 On ch=1 n=e6 v=60
111468 On ch=1 n=b6 v=60
111583 On ch=1 n=b6 v=0
111583 On ch=1 n=e6 v=0
111583 On ch=1 n=g#7 v=0
111583 On ch=1 n=e7 v=0
111588 On ch=1 n=e7 v=60
111588 On ch=1 n=g#7 v=60
111703 On ch=1 n=g#7 v=0
111703 On ch=1 n=e7 v=0
111708 On ch=1 n=b6 v=60
111708 On ch=1 n=f#7 v=60
111823 On ch=1 n=f#7 v=0
111823 On ch=1 n=b6 v=0
111828 On ch=1 n=g#6 v=60
111828 On ch=1 n=e7 v=60
111828 On ch=1 n=b5 v=60
111828 On ch=1 n=e6 v=60
111943 On ch=1 n=e6 v=0
111943 On ch=1 n=b5 v=0
111948 On ch=1 n=b5 v=60
111948 On ch=1 n=e6 v=60
112063 On ch=1 n=e6 v=0
112063 On ch=1 n=b5 v=0
112063 On ch=1 n=e7 v=0
112063 On ch=1 n=g#6 v=0
112068 On ch=1 n=g#6 v=60
112068 On ch=1 n=b6 v=60
112183 On ch=1 n=b6 v=0
112183 On ch=1 n=g#6 v=0
112188 On ch=1 n=f#6 v=60
112188 On ch=1 n=a6 v=60
112303 On ch=1 n=a6 v=0
112303 On ch=1 n=f#6 v=0
112308 On ch=1 n=e6 v=60
112308 On ch=1 n=g#6 v=60
112308 On ch=1 n=e5 v=60
112308 On ch=1 n=b5 v=60
112423 On ch=1 n=b5 v=0
112423 On ch=1 n=e5 v=0
112428 On ch=1 n=e5 v=60
112428 On ch=1 n=b5 v=60
112543 On ch=1 n=b5 v=0
112543 On ch=1 n=e5 v=0
112543 On ch=1 n=g#6 v=0
112543 On ch=1 n=e6 v=0
112548 On ch=1 n=e6 v=60
112548 On ch=1 n=g#6 v=60
112663 On ch=1 n=g#6 v=0
112663 On ch=1 n=e6 v=0
112668 On ch=1 n=b5 v=60
112668 On ch=1 n=f#6 v=60
112783 On ch=1 n=f#6 v=0
112783 On ch=1 n=b5 v=0
112788 On ch=1 n=g#5 v=60
112788 On ch=1 n=e6 v=60
112788 On ch=1 n=b4 v=60
112788 On ch=1 n=e5 v=60
112903 On ch=1 n=e5 v=0
112903 On ch=1 n=b4 v=0
112908 On ch=1 n=b4 v=60
112908 On ch=1 n=e5 v=60
113023 On ch=1 n=e5 v=0
113023 On ch=1 n=b4 v=0
113023 On ch=1 n=e6 v=0
113023 On ch=1 n=g#5 v=0
113028 On ch=1 n=g#5 v=60
113028 On ch=1 n=e6 v=60
113143 On ch=1 n=e6 v=0
113143 On ch=1 n=g#5 v=0
113148 On ch=1 n=b5 v=60
113148 On ch=1 n=f#6 v=60
113263 On ch=1 n=f#6 v=0
113263 On ch=1 n=b5 v=0
113268 On ch=1 n=e6 v=60
113268 On ch=1 n=g#6 v=60
113268 On ch=1 n=e4 v=60
113268 On ch=1 n=b4 v=60
113383 On ch=1 n=b4 v=0
113383 On ch=1 n=e4 v=0
113388 On ch=1 n=e4 v=60
113388 On ch=1 n=b4 v=60
113503 On ch=1 n=b4 v=0
113503 On ch=1 n=e4 v=0
113503 On ch=1 n=g#6 v=0
113503 On ch=1 n=e6 v=0
113508 On ch=1 n=f#6 v=60
113508 On ch=1 n=a6 v=60
113623 On ch=1 n=a6 v=0
113623 On ch=1 n=f#6 v=0
113628 On ch=1 n=e6 v=60
113628 On ch=1 n=g#6 v=60
113743 On ch=1 n=g#6 v=0
113743 On ch=1 n=e6 v=0
113748 On ch=1 n=b5 v=60
113748 On ch=1 n=f#6 v=60
113748 On ch=1 n=b4 v=60
113748 On ch=1 n=d#5 v=60
113863 On ch=1 n=d#5 v=0
113863 On ch=1 n=b4 v=0
113868 On ch=1 n=b4 v=60
113868 On ch=1 n=d#5 v=60
113983 On ch=1 n=d#5 v=0
113983 On ch=1 n=b4 v=0
113983 On ch=1 n=f#6 v=0
113983 On ch=1 n=b5 v=0
113988 On ch=1 n=e6 v=60
113988 On ch=1 n=g#6 v=60
114103 On ch=1 n=g#6 v=0
114103 On ch=1 n=e6 v=0
114108 On ch=1 n=b5 v=60
114108 On ch=1 n=f#6 v=60
114223 On ch=1 n=f#6 v=0
114223 On ch=1 n=b5 v=0
114228 On ch=1 n=g#5 v=60
114228 On ch=1 n=e6 v=60
114228 On ch=1 n=b4 v=60
114228 On ch=1 n=e4 v=45
114343 On ch=1 n=e4 v=0
114343 On ch=1 n=b4 v=0
114348 On ch=1 n=b4 v=60
114348 On ch=1 n=e4 v=45
114463 On ch=1 n=e4 v=0
114463 On ch=1 n=b4 v=0
114468 On ch=1 n=e5 v=60
114583 On ch=1 n=e5 v=0
114588 On ch=1 n=e5 v=60
114628 On ch=1 n=e6 v=0
114628 On ch=1 n=g#5 v=0
114703 On ch=1 n=e5 v=0
114708 On ch=1 n=b5 v=60
114943 On ch=1 n=b5 v=0
114948 On ch=1 n=g#4 v=92
114948 On ch=1 n=e5 v=92
115063 On ch=1 n=e5 v=0
115063 On ch=1 n=g#4 v=0
115068 On ch=1 n=e5 v=92
115068 On ch=1 n=g#5 v=92
115183 On ch=1 n=g#5 v=0
115183 On ch=1 n=e5 v=0
115188 On ch=1 n=b4 v=92
115188 On ch=1 n=f#5 v=92
115423 On ch=1 n=f#5 v=0
115423 On ch=1 n=b4 v=0
115428 On ch=1 n=e5 v=92
115428 On ch=1 n=g#5 v=92
115543 On ch=1 n=g#5 v=0
115543 On ch=1 n=e5 v=0
115548 On ch=1 n=f#5 v=92
115548 On ch=1 n=a5 v=92
115663 On ch=1 n=a5 v=0
115663 On ch=1 n=f#5 v=0
115668 On ch=1 n=g#5 v=92
115668 On ch=1 n=b5 v=92
115903 On ch=1 n=b5 v=0
115903 On ch=1 n=g#5 v=0
115908 On ch=1 n=a5 v=92
115908 On ch=1 n=c#6 v=92
116023 On ch=1 n=c#6 v=0
116023 On ch=1 n=a5 v=0
116028 On ch=1 n=g#5 v=92
116028 On ch=1 n=b5 v=92
116143 On ch=1 n=b5 v=0
116143 On ch=1 n=g#5 v=0
116148 On ch=1 n=f#5 v=92
116148 On ch=1 n=a5 v=92
116383 On ch=1 n=a5 v=0
116383 On ch=1 n=f#5 v=0
116388 On ch=1 n=e5 v=92
116388 On ch=1 n=g#5 v=92
116503 On ch=1 n=g#5 v=0
116503 On ch=1 n=e5 v=0
116508 On ch=1 n=f#5 v=92
116508 On ch=1 n=a5 v=92
116623 On ch=1 n=a5 v=0
116623 On ch=1 n=f#5 v=0
116628 On ch=1 n=b4 v=92
116628 On ch=1 n=f#5 v=92
116863 On ch=1 n=f#5 v=0
116863 On ch=1 n=b4 v=0
116868 Tempo 545454
116868 On ch=1 n=g#4 v=92
116868 On ch=1 n=e5 v=92
116983 On ch=1 n=e5 v=0
116983 On ch=1 n=g#4 v=0
116988 On ch=1 n=e5 v=92
116988 On ch=1 n=g#5 v=92
117103 On ch=1 n=g#5 v=0
117103 On ch=1 n=e5 v=0
117108 On ch=1 n=b4 v=92
117108 On ch=1 n=f#5 v=92
117343 On ch=1 n=f#5 v=0
117343 On ch=1 n=b4 v=0
117348 On ch=1 n=e5 v=92
117348 On ch=1 n=g#5 v=92
117463 On ch=1 n=g#5 v=0
117463 On ch=1 n=e5 v=0
117468 On ch=1 n=f#5 v=92
117468 On ch=1 n=a5 v=92
117583 On ch=1 n=a5 v=0
117583 On ch=1 n=f#5 v=0
117588 On ch=1 n=g#5 v=92
117588 On ch=1 n=b5 v=92
117823 On ch=1 n=b5 v=0
117823 On ch=1 n=g#5 v=0
117828 On ch=1 n=a5 v=92
117828 On ch=1 n=c#6 v=92
117943 On ch=1 n=c#6 v=0
117943 On ch=1 n=a5 v=0
117948 On ch=1 n=g#5 v=92
117948 On ch=1 n=b5 v=92
118063 On ch=1 n=b5 v=0
118063 On ch=1 n=g#5 v=0
118068 On ch=1 n=f#5 v=92
118068 On ch=1 n=a5 v=92
118303 On ch=1 n=a5 v=0
118303 On ch=1 n=f#5 v=0
118308 On ch=1 n=e5 v=92
118308 On ch=1 n=g#5 v=92
118423 On ch=1 n=g#5 v=0
118423 On ch=1 n=e5 v=0
118428 On ch=1 n=f#5 v=92
118428 On ch=1 n=a5 v=92
118543 On ch=1 n=a5 v=0
118543 On ch=1 n=f#5 v=0
118548 On ch=1 n=b4 v=92
118548 On ch=1 n=f#5 v=92
118783 On ch=1 n=f#5 v=0
118783 On ch=1 n=b4 v=0
118788 Tempo 500000
118788 On ch=1 n=g#7 v=60
118788 On ch=1 n=b7 v=60
118903 On ch=1 n=b7 v=0
118903 On ch=1 n=g#7 v=0
118908 On ch=1 n=f#7 v=60
118908 On ch=1 n=a7 v=60
119023 On ch=1 n=a7 v=0
119023 On ch=1 n=f#7 v=0
119028 On ch=1 n=e7 v=60
119028 On ch=1 n=g#7 v=60
119028 On ch=1 n=e6 v=60
119028 On ch=1 n=b6 v=60
119143 On ch=1 n=b6 v=0
119143 On ch=1 n=e6 v=0
119148 On ch=1 n=e6 v=60
119148 On ch=1 n=b6 v=60
119263 On ch=1 n=b6 v=0
119263 On ch=1 n=e6 v=0
119263 On ch=1 n=g#7 v=0
119263 On ch=1 n=e7 v=0
119268 On ch=1 n=e7 v=60
119268 On ch=1 n=g#7 v=60
119383 On ch=1 n=g#7 v=0
119383 On ch=1 n=e7 v=0
119388 On ch=1 n=b6 v=60
119388 On ch=1 n=f#7 v=60
119503 On ch=1 n=f#7 v=0
119503 On ch=1 n=b6 v=0
119508 On ch=1 n=g#6 v=60
119508 On ch=1 n=e7 v=60
119508 On ch=1 n=b5 v=60
119508 On ch=1 n=e6 v=60
119623 On ch=1 n=e6 v=0
119623 On ch=1 n=b5 v=0
119628 On ch=1 n=b5 v=60
119628 On ch=1 n=e6 v=60
119743 On ch=1 n=e6 v=0
119743 On ch=1 n=b5 v=0
119743 On ch=1 n=e7 v=0
119743 On ch=1 n=g#6 v=0
119748 On ch=1 n=g#6 v=60
119748 On ch=1 n=b6 v=60
119863 On ch=1 n=b6 v=0
119863 On ch=1 n=g#6 v=0
119868 On ch=1 n=f#6 v=60
119868 On ch=1 n=a6 v=60
119983 On ch=1 n=a6 v=0
119983 On ch=1 n=f#6 v=0
119988 On ch=1 n=e6 v=60
119988 On ch=1 n=g#6 v=60
119988 On ch=1 n=e5 v=60
119988 On ch=1 n=b5 v=60
120103 On ch=1 n=b5 v=0
120103 On ch=1 n=e5 v=0
120108 On ch=1 n=e5 v=60
120108 On ch=1 n=b5 v=60
120223 On ch=1 n=b5 v=0
120223 On ch=1 n=e5 v=0
120223 On ch=1 n=g#6 v=0
120223 On ch=1 n=e6 v=0
120228 On ch=1 n=e6 v=60
120228 On ch=1 n=g#6 v=60
120343 On ch=1 n=g#6 v=0
120343 On ch=1 n=e6 v=0
120348 On ch=1 n=b5 v=60
120348 On ch=1 n=f#6 v=60
120463 On ch=1 n=f#6 v=0
120463 On ch=1 n=b5 v=0
120468 On ch=1 n=g#5 v=60
120468 On ch=1 n=e6 v=60
120468 On ch=1 n=e5 v=60
120468 On ch=1 n=b4 v=60
120583 On ch=1 n=b4 v=0
120583 On ch=1 n=e5 v=0
120588 On ch=1 n=e5 v=60
120588 On ch=1 n=b4 v=60
120703 On ch=1 n=b4 v=0
120703 On ch=1 n=e5 v=0
120703 On ch=1 n=e6 v=0
120703 On ch=1 n=g#5 v=0
120708 On ch=1 n=e5 v=60
120708 On ch=1 n=g#4 v=60
120823 On ch=1 n=g#4 v=0
120823 On ch=1 n=e5 v=0
120828 On ch=1 n=f#5 v=60
120828 On ch=1 n=b4 v=60
120943 On ch=1 n=b4 v=0
120943 On ch=1 n=f#5 v=0
120948 On ch=1 n=e5 v=60
120948 On ch=1 n=g#5 v=60
120948 On ch=1 n=e4 v=60
120948 On ch=1 n=b4 v=60
121063 On ch=1 n=b4 v=0
121063 On ch=1 n=e4 v=0
121068 On ch=1 n=e4 v=60
121068 On ch=1 n=b4 v=60
121183 On ch=1 n=b4 v=0
121183 On ch=1 n=e4 v=0
121183 On ch=1 n=g#5 v=0
121183 On ch=1 n=e5 v=0
121188 On ch=1 n=f#5 v=60
121188 On ch=1 n=a5 v=60
121303 On ch=1 n=a5 v=0
121303 On ch=1 n=f#5 v=0
121308 On ch=1 n=e5 v=60
121308 On ch=1 n=g#5 v=60
121423 On ch=1 n=g#5 v=0
121423 On ch=1 n=e5 v=0
121428 On ch=1 n=b4 v=60
121428 On ch=1 n=f#5 v=60
121428 On ch=1 n=b3 v=60
121428 On ch=1 n=d#4 v=60
121543 On ch=1 n=d#4 v=0
121543 On ch=1 n=b3 v=0
121548 On ch=1 n=b3 v=60
121548 On ch=1 n=d#4 v=60
121663 On ch=1 n=d#4 v=0
121663 On ch=1 n=b3 v=0
121663 On ch=1 n=f#5 v=0
121663 On ch=1 n=b4 v=0
121668 On ch=1 n=e5 v=60
121668 On ch=1 n=g#5 v=60
121783 On ch=1 n=g#5 v=0
121783 On ch=1 n=e5 v=0
121788 On ch=1 n=b4 v=60
121788 On ch=1 n=f#5 v=60
121903 On ch=1 n=f#5 v=0
121903 On ch=1 n=b4 v=0
121908 Tempo 500000
121908 On ch=1 n=g#4 v=60
121908 On ch=1 n=e5 v=60
121908 On ch=1 n=e3 v=60
121908 On ch=1 n=b3 v=60
121960 Tempo 508474
122015 Tempo 517241
122023 On ch=1 n=b3 v=0
122023 On ch=1 n=e3 v=0
122028 On ch=1 n=e3 v=60
122028 On ch=1 n=b3 v=60
122070 Tempo 526315
122125 Tempo 535714
122143 On ch=1 n=b3 v=0
122143 On ch=1 n=e3 v=0
122148 On ch=1 n=e3 v=60
122148 On ch=1 n=b3 v=60
122180 Tempo 545454
122235 Tempo 555555
122290 Tempo 566037
122308 On ch=1 n=e5 v=0
122308 On ch=1 n=g#4 v=0
122345 Tempo 576923
122383 On ch=1 n=b3 v=0
122383 On ch=1 n=e3 v=0
122388 On ch=1 n=b4 v=60
122388 On ch=1 n=f#5 v=60
122400 Tempo 588235
122455 Tempo 600000
122510 Tempo 612244
122565 Tempo 625000
122620 Tempo 638297
122623 On ch=1 n=f#5 v=0
122623 On ch=1 n=b4 v=0
122628 On ch=1 n=e5 v=60
122628 On ch=1 n=g#5 v=60
122675 Tempo 652173
122730 Tempo 666666
122740 On ch=1 n=g#5 v=0
122740 On ch=1 n=e5 v=0
122745 On ch=1 n=b4 v=60
122745 On ch=1 n=f#5 v=60
122782 Tempo 681818
122837 Tempo 697674
122860 On ch=1 n=f#5 v=0
122860 On ch=1 n=b4 v=0
122865 On ch=1 n=g#4 v=60
122865 On ch=1 n=e5 v=60
122865 On ch=1 n=e3 v=60
122865 On ch=1 n=b3 v=60
122890 Tempo 714285
122945 Tempo 731707
122980 On ch=1 n=b3 v=0
122980 On ch=1 n=e3 v=0
122985 On ch=1 n=e3 v=60
122985 On ch=1 n=b3 v=60
123000 Tempo 750000
123055 Tempo 769230
123100 On ch=1 n=b3 v=0
123100 On ch=1 n=e3 v=0
123105 On ch=1 n=e3 v=60
123105 On ch=1 n=b3 v=60
123110 Tempo 789473
123165 Tempo 810810
123220 Tempo 833333
123265 On ch=1 n=e5 v=0
123265 On ch=1 n=g#4 v=0
123275 Tempo 660534
123330 Tempo 685744
123340 On ch=1 n=b3 v=0
123340 On ch=1 n=e3 v=0
123345 On ch=1 n=b4 v=60
123345 On ch=1 n=f#5 v=60
123385 Tempo 712482
123440 Tempo 937500
123495 Tempo 967741
123550 Tempo 1000000
123580 On ch=1 n=f#5 v=0
123580 On ch=1 n=b4 v=0
123585 On ch=1 n=e5 v=60
123585 On ch=1 n=g#5 v=60
123605 Tempo 1034482
123660 Tempo 1071428
123700 On ch=1 n=g#5 v=0
123700 On ch=1 n=e5 v=0
123705 On ch=1 n=b4 v=60
123705 On ch=1 n=f#5 v=60
123715 Tempo 1111111
123770 Tempo 1153846
123820 On ch=1 n=f#5 v=0
123820 On ch=1 n=b4 v=0
123825 Tempo 1200000
123825 On ch=1 n=g#4 v=60
123825 On ch=1 n=e5 v=60
124060 On ch=1 n=e5 v=0
124060 On ch=1 n=g#4 v=0
124185 Tempo 500000
124185 On ch=1 n=e5 v=108
124185 On ch=1 n=g#5 v=108
124185 On ch=1 n=e6 v=108
124185 On ch=1 n=e3 v=92
124185 On ch=1 n=b3 v=92
124185 On ch=1 n=e4 v=92
124300 On ch=1 n=e4 v=0
124300 On ch=1 n=b3 v=0
124300 On ch=1 n=e3 v=0
124300 On ch=1 n=e6 v=0
124300 On ch=1 n=g#5 v=0
124300 On ch=1 n=e5 v=0
124305 On ch=1 n=e5 v=108
124305 On ch=1 n=g#5 v=108
124305 On ch=1 n=e6 v=108
124305 On ch=1 n=e3 v=92
124305 On ch=1 n=b3 v=92
124305 On ch=1 n=e4 v=92
124385 On ch=1 n=e4 v=0
124385 On ch=1 n=b3 v=0
124385 On ch=1 n=e3 v=0
124385 On ch=1 n=e6 v=0
124385 On ch=1 n=g#5 v=0
124385 On ch=1 n=e5 v=0
124385 Meta TrkEnd
TrkEnd
