MFile 1 2 480
MTrk
0 Meta SeqName "untitled"
0 SMPTE 96 0 3 0 0
0 TimeSig 4/4 24 8
0 KeySig 0 major
0 Tempo 500000
0 Meta TrkEnd
TrkEnd
MTrk
0 Meta 0x21 00
0 PrCh ch=1 p=0
0 Par ch=1 c=7 v=127
0 Par ch=1 c=64 v=127
0 Par ch=1 c=64 v=0
0 Par ch=1 c=64 v=127
0 On ch=1 n=d#6 v=20
26 On ch=1 n=d#5 v=22
90 On ch=1 n=d#5 v=0
100 On ch=1 n=d#6 v=0
320 On ch=1 n=d#6 v=32
328 On ch=1 n=d#5 v=32
388 On ch=1 n=d#6 v=0
391 On ch=1 n=d#5 v=0
638 On ch=1 n=d#6 v=40
648 On ch=1 n=d#5 v=33
700 On ch=1 n=d#6 v=0
706 On ch=1 n=d#5 v=0
934 On ch=1 n=d#7 v=34
940 On ch=1 n=d#8 v=36
1000 On ch=1 n=d#8 v=0
1002 On ch=1 n=d#7 v=0
1246 On ch=1 n=d#8 v=44
1248 On ch=1 n=d#7 v=33
1302 On ch=1 n=d#8 v=0
1312 On ch=1 n=d#7 v=0
1562 On ch=1 n=d#7 v=35
1572 On ch=1 n=d#8 v=38
1642 On ch=1 n=d#7 v=0
1662 On ch=1 n=d#8 v=0
1888 On ch=1 n=d#6 v=37
1900 On ch=1 n=d#5 v=32
1978 On ch=1 n=d#5 v=0
1984 On ch=1 n=d#6 v=0
2208 On ch=1 n=d#6 v=29
2228 On ch=1 n=d#5 v=20
2288 On ch=1 n=d#6 v=0
2300 On ch=1 n=d#5 v=0
2548 On ch=1 n=d#6 v=23
2562 On ch=1 n=d#5 v=17
2636 On ch=1 n=d#5 v=0
2644 On ch=1 n=d#6 v=0
2860 On ch=1 n=d#8 v=33
2868 On ch=1 n=d#7 v=23
2936 On ch=1 n=d#8 v=0
2948 On ch=1 n=d#7 v=0
3160 On ch=1 n=d#7 v=29
3160 On ch=1 n=d#8 v=39
3248 On ch=1 n=d#8 v=0
3253 On ch=1 n=d#7 v=0
3486 On ch=1 n=d#7 v=28
3486 On ch=1 n=d#8 v=37
3580 On ch=1 n=d#8 v=0
3594 On ch=1 n=d#7 v=0
3778 On ch=1 n=d#6 v=17
3798 On ch=1 n=d#5 v=18
3878 On ch=1 n=d#5 v=0
3892 On ch=1 n=d#6 v=0
4096 On ch=1 n=d#8 v=33
4108 On ch=1 n=d#7 v=20
4168 On ch=1 n=d#8 v=0
4188 On ch=1 n=d#7 v=0
4424 On ch=1 n=d#7 v=22
4440 On ch=1 n=d#8 v=26
4518 On ch=1 n=d#7 v=0
4530 On ch=1 n=d#8 v=0
4782 On ch=1 n=d#6 v=15
4820 On ch=1 n=d#5 v=11
4892 On ch=1 n=d#5 v=0
4900 On ch=1 n=d#6 v=0
5140 On ch=1 n=d#8 v=22
5150 On ch=1 n=d#7 v=20
5224 On ch=1 n=d#8 v=0
5230 On ch=1 n=d#7 v=0
5720 On ch=1 n=d#8 v=15
5728 On ch=1 n=d#7 v=7
5804 On ch=1 n=d#7 v=0
5870 On ch=1 n=d#8 v=0
7202 Par ch=1 c=64 v=0
7696 On ch=1 n=d#6 v=39
7778 On ch=1 n=d#6 v=0
7800 Par ch=1 c=64 v=127
7872 On ch=1 n=d#7 v=30
7876 Par ch=1 c=64 v=0
7932 On ch=1 n=d#7 v=0
8014 On ch=1 n=d#7 v=42
8134 On ch=1 n=d#7 v=0
8166 On ch=1 n=d#8 v=54
8216 On ch=1 n=d#8 v=0
8298 On ch=1 n=d#7 v=64
8390 On ch=1 n=d#7 v=0
8448 On ch=1 n=d#8 v=30
8512 On ch=1 n=d#8 v=0
8562 On ch=1 n=c#7 v=65
8614 On ch=1 n=c#7 v=0
8706 On ch=1 n=d#8 v=66
8746 On ch=1 n=d#8 v=0
8749 On ch=1 n=g#4 v=33
8818 On ch=1 n=g#4 v=0
8821 On ch=1 n=d#5 v=33
8860 Par ch=1 c=64 v=127
8870 On ch=1 n=b6 v=88
8894 On ch=1 n=d#5 v=0
8908 On ch=1 n=b6 v=0
8920 On ch=1 n=b5 v=25
8984 Par ch=1 c=64 v=0
9000 On ch=1 n=d#8 v=76
9014 On ch=1 n=b5 v=0
9036 On ch=1 n=d#8 v=0
9145 On ch=1 n=b6 v=93
9180 On ch=1 n=b6 v=0
9278 On ch=1 n=d#8 v=68
9314 On ch=1 n=d#8 v=0
9408 On ch=1 n=a#6 v=72
9450 On ch=1 n=a#6 v=0
9500 On ch=1 n=b4 v=33
9552 On ch=1 n=d#8 v=61
9552 Par ch=1 c=64 v=127
9558 On ch=1 n=b4 v=0
9590 On ch=1 n=d#8 v=0
9592 On ch=1 n=g#5 v=36
9668 On ch=1 n=g#5 v=0
9684 On ch=1 n=g#6 v=81
9688 On ch=1 n=d#6 v=55
9726 On ch=1 n=g#6 v=0
9766 On ch=1 n=d#6 v=0
9766 Par ch=1 c=64 v=0
9836 On ch=1 n=d#8 v=81
9868 On ch=1 n=d#8 v=0
9968 On ch=1 n=g6 v=83
10006 On ch=1 n=g6 v=0
10102 On ch=1 n=d#8 v=75
10136 On ch=1 n=d#8 v=0
10222 On ch=1 n=g#6 v=88
10264 On ch=1 n=g#6 v=0
10296 On ch=1 n=d#5 v=37
10364 On ch=1 n=a#5 v=37
10366 On ch=1 n=d#5 v=0
10370 On ch=1 n=d#8 v=77
10402 On ch=1 n=d#8 v=0
10424 On ch=1 n=a#5 v=0
10427 Par ch=1 c=64 v=127
10488 On ch=1 n=g6 v=63
10491 On ch=1 n=a#6 v=81
10532 On ch=1 n=a#6 v=0
10536 On ch=1 n=g6 v=0
10636 On ch=1 n=d#8 v=71
10670 On ch=1 n=d#8 v=0
10802 On ch=1 n=d#6 v=67
10838 On ch=1 n=d#6 v=0
10920 Par ch=1 c=64 v=0
10950 On ch=1 n=d#8 v=83
10980 On ch=1 n=d#8 v=0
11102 On ch=1 n=d#6 v=81
11204 On ch=1 n=d#6 v=0
11228 On ch=1 n=d#7 v=72
11272 On ch=1 n=d#7 v=0
11348 On ch=1 n=g5 v=35
11356 On ch=1 n=a#5 v=40
11360 On ch=1 n=e6 v=81
11452 On ch=1 n=e6 v=0
11490 On ch=1 n=d#7 v=53
11524 On ch=1 n=a#5 v=0
11538 On ch=1 n=g5 v=0
11546 On ch=1 n=d#7 v=0
11604 On ch=1 n=d#6 v=81
11710 On ch=1 n=d#6 v=0
11732 On ch=1 n=d#7 v=60
11776 On ch=1 n=d#7 v=0
11852 On ch=1 n=c#6 v=78
11918 On ch=1 n=c#6 v=0
11982 On ch=1 n=d#7 v=56
12026 On ch=1 n=d#7 v=0
12108 On ch=1 n=b5 v=83
12118 On ch=1 n=g#5 v=39
12146 On ch=1 n=b5 v=0
12238 On ch=1 n=d#7 v=76
12262 On ch=1 n=g#5 v=0
12276 On ch=1 n=d#7 v=0
12366 On ch=1 n=b5 v=85
12406 On ch=1 n=b5 v=0
12494 On ch=1 n=d#7 v=75
12528 On ch=1 n=d#7 v=0
12622 On ch=1 n=a#5 v=69
12668 On ch=1 n=a#5 v=0
12758 On ch=1 n=d#7 v=47
12802 On ch=1 n=b4 v=32
12810 On ch=1 n=d#7 v=0
12838 On ch=1 n=d5 v=23
12878 On ch=1 n=g#5 v=73
12896 On ch=1 n=f5 v=36
12918 On ch=1 n=g#5 v=0
12932 Par ch=1 c=64 v=127
12956 On ch=1 n=f5 v=0
13014 On ch=1 n=b4 v=0
13024 On ch=1 n=d#7 v=64
13040 On ch=1 n=d5 v=0
13040 Par ch=1 c=64 v=0
13064 On ch=1 n=d#7 v=0
13156 On ch=1 n=g5 v=55
13212 On ch=1 n=g5 v=0
13282 On ch=1 n=d#7 v=64
13322 On ch=1 n=d#7 v=0
13406 On ch=1 n=g#5 v=74
13450 On ch=1 n=g#5 v=0
13540 On ch=1 n=d#4 v=44
13552 On ch=1 n=d#7 v=78
13588 On ch=1 n=d#7 v=0
13622 On ch=1 n=d#4 v=0
13686 Par ch=1 c=64 v=127
13722 On ch=1 n=a#5 v=66
13734 On ch=1 n=g5 v=37
13786 On ch=1 n=a#5 v=0
13808 On ch=1 n=g5 v=0
13892 On ch=1 n=d#7 v=61
13932 On ch=1 n=d#7 v=0
14044 On ch=1 n=d#5 v=52
14094 On ch=1 n=d#5 v=0
14168 On ch=1 n=d#6 v=48
14218 On ch=1 n=d#6 v=0
14318 On ch=1 n=d#6 v=52
14374 On ch=1 n=d#6 v=0
14464 On ch=1 n=d#7 v=51
14508 On ch=1 n=d#7 v=0
14612 On ch=1 n=d#7 v=47
14668 Par ch=1 c=64 v=0
14706 On ch=1 n=d#7 v=0
14752 On ch=1 n=d#8 v=59
14794 On ch=1 n=d#8 v=0
14882 On ch=1 n=d#7 v=78
14976 On ch=1 n=d#7 v=0
15020 On ch=1 n=d#8 v=56
15064 On ch=1 n=d#8 v=0
15128 On ch=1 n=c#7 v=88
15206 On ch=1 n=c#7 v=0
15268 On ch=1 n=d#8 v=71
15276 On ch=1 n=g#4 v=49
15304 On ch=1 n=d#8 v=0
15326 On ch=1 n=g#4 v=0
15358 On ch=1 n=d#5 v=40
15404 On ch=1 n=b6 v=94
15414 On ch=1 n=d#5 v=0
15426 On ch=1 n=b5 v=60
15436 Par ch=1 c=64 v=127
15440 On ch=1 n=b6 v=0
15482 On ch=1 n=b5 v=0
15538 On ch=1 n=d#8 v=72
15572 On ch=1 n=d#8 v=0
15664 On ch=1 n=b6 v=94
15666 Par ch=1 c=64 v=0
15700 On ch=1 n=b6 v=0
15798 On ch=1 n=d#8 v=81
15832 On ch=1 n=d#8 v=0
15930 On ch=1 n=a#6 v=80
15976 On ch=1 n=a#6 v=0
16040 On ch=1 n=b4 v=42
16066 On ch=1 n=d#8 v=67
16092 On ch=1 n=b4 v=0
16104 On ch=1 n=d#8 v=0
16142 On ch=1 n=g#5 v=36
16190 Par ch=1 c=64 v=127
16193 On ch=1 n=g#6 v=80
16202 On ch=1 n=g#5 v=0
16232 On ch=1 n=g#6 v=0
16234 On ch=1 n=d#6 v=45
16296 On ch=1 n=d#6 v=0
16334 On ch=1 n=d#8 v=79
16368 On ch=1 n=d#8 v=0
16388 Par ch=1 c=64 v=0
16464 On ch=1 n=g6 v=78
16506 On ch=1 n=g6 v=0
16594 On ch=1 n=d#8 v=78
16626 On ch=1 n=d#8 v=0
16710 On ch=1 n=g#6 v=80
16752 On ch=1 n=g#6 v=0
16826 On ch=1 n=d#5 v=33
16848 On ch=1 n=d#8 v=71
16882 On ch=1 n=d#8 v=0
16892 On ch=1 n=d#5 v=0
16904 On ch=1 n=a#5 v=27
16976 On ch=1 n=a#5 v=0
16984 On ch=1 n=a#6 v=72
16988 Par ch=1 c=64 v=127
17024 On ch=1 n=a#6 v=0
17024 On ch=1 n=g6 v=32
17092 On ch=1 n=g6 v=0
17128 On ch=1 n=d#8 v=72
17162 On ch=1 n=d#8 v=0
17301 On ch=1 n=d#6 v=68
17338 On ch=1 n=d#6 v=0
17470 On ch=1 n=d#8 v=33
17534 On ch=1 n=d#8 v=0
17610 On ch=1 n=d#6 v=66
17666 On ch=1 n=d#6 v=0
17728 On ch=1 n=d#7 v=55
17774 On ch=1 n=d#7 v=0
17824 On ch=1 n=g5 v=20
17834 Par ch=1 c=64 v=0
17834 On ch=1 n=a#5 v=41
17870 On ch=1 n=e6 v=59
17924 On ch=1 n=e6 v=0
17996 On ch=1 n=a#5 v=0
17998 On ch=1 n=d#7 v=48
18052 On ch=1 n=d#7 v=0
18054 On ch=1 n=g5 v=0
18126 On ch=1 n=d#6 v=80
18206 On ch=1 n=d#6 v=0
18250 On ch=1 n=d#7 v=52
18310 On ch=1 n=d#7 v=0
18374 On ch=1 n=c#6 v=84
18478 On ch=1 n=c#6 v=0
18524 On ch=1 n=d#7 v=49
18600 On ch=1 n=d#7 v=0
18648 On ch=1 n=d#6 v=78
18674 On ch=1 n=b5 v=37
18682 On ch=1 n=g#5 v=25
18722 On ch=1 n=d#6 v=0
18756 On ch=1 n=g#5 v=0
18756 On ch=1 n=b5 v=0
18756 Par ch=1 c=64 v=127
18800 On ch=1 n=d#7 v=47
18880 On ch=1 n=d#7 v=0
18929 On ch=1 n=g#6 v=59
18940 Par ch=1 c=64 v=0
18976 On ch=1 n=g#6 v=0
19072 On ch=1 n=b6 v=88
19110 On ch=1 n=b6 v=0
19222 On ch=1 n=d#7 v=70
19334 On ch=1 n=d#7 v=0
19338 Par ch=1 c=64 v=127
19366 On ch=1 n=d#8 v=68
19402 On ch=1 n=d#8 v=0
19568 On ch=1 n=d#6 v=64
19582 On ch=1 n=c#6 v=27
19612 On ch=1 n=d#5 v=27
19646 On ch=1 n=g5 v=10
19648 On ch=1 n=d#6 v=0
19662 On ch=1 n=c#6 v=0
19714 On ch=1 n=d#7 v=40
19722 On ch=1 n=d#5 v=0
19736 On ch=1 n=g5 v=0
19774 On ch=1 n=d#7 v=0
19862 On ch=1 n=g6 v=52
19922 On ch=1 n=g6 v=0
19994 On ch=1 n=a#6 v=50
20042 On ch=1 n=a#6 v=0
20108 Par ch=1 c=64 v=0
20150 On ch=1 n=d#7 v=48
20228 On ch=1 n=d#7 v=0
20314 On ch=1 n=d#8 v=46
20400 On ch=1 n=d#8 v=0
20450 On ch=1 n=g#4 v=41
20506 Par ch=1 c=64 v=127
20590 On ch=1 n=g#4 v=0
20612 On ch=1 n=d#5 v=39
20686 On ch=1 n=d#5 v=0
20778 On ch=1 n=b5 v=55
20828 On ch=1 n=b5 v=0
20948 On ch=1 n=g#6 v=62
21018 On ch=1 n=g#6 v=0
21108 On ch=1 n=d#6 v=65
21162 On ch=1 n=d#6 v=0
21246 On ch=1 n=d#7 v=53
21296 On ch=1 n=d#7 v=0
21424 On ch=1 n=d#8 v=58
21480 On ch=1 n=d#8 v=0
21506 Par ch=1 c=64 v=0
21580 On ch=1 n=d#7 v=54
21644 On ch=1 n=d#7 v=0
21724 On ch=1 n=d#8 v=56
21774 On ch=1 n=d#8 v=0
21876 On ch=1 n=d#7 v=55
21962 On ch=1 n=d#7 v=0
22028 Par ch=1 c=64 v=127
22072 On ch=1 n=d#8 v=39
22122 On ch=1 n=d#8 v=0
22208 On ch=1 n=c#7 v=57
22264 On ch=1 n=c#7 v=0
22412 Par ch=1 c=64 v=0
22418 On ch=1 n=c#7 v=50
22460 On ch=1 n=b6 v=95
22462 On ch=1 n=g#3 v=36
22465 On ch=1 n=c#7 v=0
22500 On ch=1 n=b6 v=0
22546 On ch=1 n=g#3 v=0
22566 Par ch=1 c=64 v=127
22630 On ch=1 n=d#8 v=69
22664 On ch=1 n=d#8 v=0
22778 On ch=1 n=b6 v=85
22782 Par ch=1 c=64 v=0
22804 On ch=1 n=b4 v=30
22806 On ch=1 n=d#4 v=26
22816 On ch=1 n=b6 v=0
22916 On ch=1 n=d#8 v=78
22922 On ch=1 n=b4 v=0
22950 On ch=1 n=d#8 v=0
22970 On ch=1 n=d#4 v=0
23070 On ch=1 n=a#6 v=70
23116 On ch=1 n=a#6 v=0
23204 On ch=1 n=d#8 v=64
23242 On ch=1 n=d#8 v=0
23362 On ch=1 n=a#6 v=60
23372 On ch=1 n=g#6 v=76
23386 On ch=1 n=b3 v=34
23406 On ch=1 n=a#6 v=0
23442 Par ch=1 c=64 v=127
23444 On ch=1 n=b3 v=0
23466 On ch=1 n=g#6 v=0
23540 On ch=1 n=d#8 v=72
23574 On ch=1 n=d#8 v=0
23596 Par ch=1 c=64 v=0
23692 On ch=1 n=g6 v=71
23702 On ch=1 n=d#5 v=45
23716 On ch=1 n=g#4 v=32
23734 On ch=1 n=g6 v=0
23786 On ch=1 n=g#4 v=0
23790 On ch=1 n=d#5 v=0
23829 On ch=1 n=d#8 v=65
23870 On ch=1 n=d#8 v=0
23964 On ch=1 n=g#6 v=78
24010 On ch=1 n=g#6 v=0
24116 On ch=1 n=d#8 v=50
24162 On ch=1 n=d#8 v=0
24230 On ch=1 n=g6 v=78
24300 On ch=1 n=g6 v=0
24300 On ch=1 n=g#6 v=60
24308 On ch=1 n=d#4 v=40
24354 On ch=1 n=a#6 v=69
24398 On ch=1 n=d#4 v=0
24410 On ch=1 n=g#6 v=0
24438 On ch=1 n=a#6 v=0
24440 Par ch=1 c=64 v=127
24524 On ch=1 n=d#8 v=73
24558 On ch=1 n=d#8 v=0
24680 On ch=1 n=a#4 v=10
24685 On ch=1 n=g5 v=29
24708 On ch=1 n=d#6 v=46
24764 On ch=1 n=d#6 v=0
24770 On ch=1 n=a#4 v=0
24774 On ch=1 n=g5 v=0
24882 On ch=1 n=d#8 v=85
24916 On ch=1 n=d#8 v=0
24982 On ch=1 n=d#6 v=76
25040 On ch=1 n=d#6 v=0
25054 Par ch=1 c=64 v=0
25092 On ch=1 n=d#7 v=66
25142 On ch=1 n=d#7 v=0
25200 On ch=1 n=a#5 v=48
25204 On ch=1 n=f#6 v=76
25222 On ch=1 n=e6 v=75
25228 On ch=1 n=g5 v=51
25252 On ch=1 n=f#6 v=0
25274 On ch=1 n=a#5 v=0
25274 On ch=1 n=e6 v=0
25282 On ch=1 n=g5 v=0
25368 On ch=1 n=d#7 v=62
25414 On ch=1 n=d#7 v=0
25492 On ch=1 n=d#6 v=70
25506 On ch=1 n=a#5 v=48
25516 On ch=1 n=g5 v=35
25556 On ch=1 n=d#6 v=0
25578 On ch=1 n=a#5 v=0
25598 On ch=1 n=g5 v=0
25630 On ch=1 n=d#7 v=58
25680 On ch=1 n=d#7 v=0
25748 On ch=1 n=c#6 v=76
25808 On ch=1 n=c#6 v=0
25868 On ch=1 n=d#7 v=67
25906 On ch=1 n=d#7 v=0
26006 On ch=1 n=c#6 v=75
26012 On ch=1 n=b5 v=87
26036 On ch=1 n=g#5 v=51
26048 On ch=1 n=c#6 v=0
26062 On ch=1 n=b5 v=0
26088 On ch=1 n=g#5 v=0
26174 On ch=1 n=d#7 v=65
26212 On ch=1 n=d#7 v=0
26290 On ch=1 n=b5 v=77
26308 On ch=1 n=g#5 v=44
26332 On ch=1 n=b5 v=0
26366 On ch=1 n=g#5 v=0
26420 On ch=1 n=d#7 v=75
26454 On ch=1 n=d#7 v=0
26538 On ch=1 n=a#5 v=69
26586 On ch=1 n=a#5 v=0
26660 On ch=1 n=d#7 v=72
26694 On ch=1 n=d#7 v=0
26802 On ch=1 n=g#5 v=83
26808 On ch=1 n=a#5 v=53
26832 On ch=1 n=f5 v=30
26856 On ch=1 n=a#5 v=0
26856 On ch=1 n=d5 v=17
26859 On ch=1 n=b4 v=16
26894 On ch=1 n=f5 v=0
26906 On ch=1 n=g#5 v=0
26926 On ch=1 n=d5 v=0
26936 On ch=1 n=b4 v=0
26970 On ch=1 n=d#7 v=63
27010 On ch=1 n=d#7 v=0
27094 On ch=1 n=g5 v=78
27096 On ch=1 n=f5 v=35
27110 On ch=1 n=d5 v=44
27136 On ch=1 n=g5 v=0
27136 On ch=1 n=b4 v=41
27152 On ch=1 n=f5 v=0
27162 On ch=1 n=d5 v=0
27190 On ch=1 n=b4 v=0
27234 On ch=1 n=d#7 v=65
27272 On ch=1 n=d#7 v=0
27284 On ch=1 n=c#7 v=16
27344 On ch=1 n=c#7 v=0
27354 On ch=1 n=g#5 v=76
27402 On ch=1 n=g#5 v=0
27502 On ch=1 n=d#7 v=83
27534 On ch=1 n=d#4 v=53
27544 On ch=1 n=d#7 v=0
27618 On ch=1 n=d#4 v=0
27676 On ch=1 n=a#5 v=66
27704 On ch=1 n=g5 v=47
27714 Par ch=1 c=64 v=127
27736 On ch=1 n=a#5 v=0
27846 On ch=1 n=d#7 v=54
27884 On ch=1 n=g5 v=0
27888 On ch=1 n=d#7 v=0
27992 On ch=1 n=d#5 v=59
28046 On ch=1 n=d#5 v=0
28134 On ch=1 n=d#6 v=41
28192 On ch=1 n=d#6 v=0
28284 On ch=1 n=d#6 v=53
28350 On ch=1 n=d#6 v=0
28420 On ch=1 n=d#7 v=55
28466 On ch=1 n=d#7 v=0
28580 On ch=1 n=d#7 v=66
28650 Par ch=1 c=64 v=0
28686 On ch=1 n=d#7 v=0
28729 On ch=1 n=d#8 v=62
28770 On ch=1 n=d#8 v=0
28856 On ch=1 n=d#7 v=78
28930 On ch=1 n=d#7 v=0
28990 On ch=1 n=d#8 v=67
29030 On ch=1 n=d#8 v=0
29106 On ch=1 n=c#7 v=87
29182 On ch=1 n=c#7 v=0
29246 On ch=1 n=d#8 v=68
29282 On ch=1 n=d#8 v=0
29380 On ch=1 n=c#7 v=83
29404 On ch=1 n=b6 v=95
29406 On ch=1 n=g#3 v=39
29418 On ch=1 n=c#7 v=0
29446 On ch=1 n=b6 v=0
29474 On ch=1 n=g#3 v=0
29543 Par ch=1 c=64 v=127
29558 On ch=1 n=d#8 v=70
29588 Par ch=1 c=64 v=0
29592 On ch=1 n=d#8 v=0
29688 On ch=1 n=d#4 v=34
29691 On ch=1 n=b6 v=87
29691 On ch=1 n=b4 v=29
29728 On ch=1 n=b6 v=0
29774 On ch=1 n=d#4 v=0
29777 On ch=1 n=b4 v=0
29828 On ch=1 n=d#8 v=56
29868 On ch=1 n=d#8 v=0
29948 On ch=1 n=a#6 v=62
29992 On ch=1 n=a#6 v=0
30072 On ch=1 n=d#8 v=70
30108 On ch=1 n=d#8 v=0
30220 On ch=1 n=a#6 v=72
30226 On ch=1 n=g#6 v=84
30246 On ch=1 n=b3 v=44
30260 On ch=1 n=a#6 v=0
30294 Par ch=1 c=64 v=127
30296 On ch=1 n=b3 v=0
30316 On ch=1 n=g#6 v=0
30402 On ch=1 n=d#8 v=65
30418 Par ch=1 c=64 v=0
30440 On ch=1 n=d#8 v=0
30534 On ch=1 n=g6 v=86
30542 On ch=1 n=d#5 v=49
30554 On ch=1 n=g#4 v=37
30570 On ch=1 n=g6 v=0
30604 On ch=1 n=d#5 v=0
30618 On ch=1 n=g#4 v=0
30676 On ch=1 n=d#8 v=78
30708 On ch=1 n=d#8 v=0
30798 On ch=1 n=g#6 v=76
30834 On ch=1 n=g#6 v=0
30930 On ch=1 n=d#8 v=74
30962 On ch=1 n=d#8 v=0
31052 On ch=1 n=g6 v=79
31110 On ch=1 n=g6 v=0
31114 On ch=1 n=g#6 v=67
31142 On ch=1 n=d#4 v=28
31192 On ch=1 n=a#6 v=73
31218 On ch=1 n=d#4 v=0
31218 On ch=1 n=g#6 v=0
31230 On ch=1 n=a#6 v=0
31294 Par ch=1 c=64 v=127
31344 On ch=1 n=d#8 v=72
31378 On ch=1 n=d#8 v=0
31498 On ch=1 n=g5 v=33
31506 On ch=1 n=a#4 v=19
31524 On ch=1 n=d#6 v=55
31572 On ch=1 n=d#6 v=0
31584 On ch=1 n=g5 v=0
31606 On ch=1 n=a#4 v=0
31708 On ch=1 n=d#8 v=16
31768 On ch=1 n=d#8 v=0
31830 On ch=1 n=d#6 v=76
31918 On ch=1 n=d#6 v=0
31954 On ch=1 n=d#7 v=50
32004 On ch=1 n=d#7 v=0
32046 Par ch=1 c=64 v=0
32074 On ch=1 n=a#5 v=43
32076 On ch=1 n=f#6 v=65
32084 On ch=1 n=g#5 v=46
32088 On ch=1 n=c#5 v=44
32094 On ch=1 n=e6 v=60
32116 On ch=1 n=f#6 v=0
32136 On ch=1 n=a#5 v=0
32136 On ch=1 n=e6 v=0
32136 On ch=1 n=g#5 v=0
32162 On ch=1 n=c#5 v=0
32250 On ch=1 n=g#7 v=31
32326 On ch=1 n=g#7 v=0
32344 On ch=1 n=a#5 v=46
32347 On ch=1 n=d#6 v=77
32354 On ch=1 n=g#5 v=36
32374 On ch=1 n=d#5 v=35
32390 On ch=1 n=d#6 v=0
32404 On ch=1 n=a#5 v=0
32416 On ch=1 n=g#5 v=0
32432 On ch=1 n=d#5 v=0
32492 On ch=1 n=g#7 v=62
32536 On ch=1 n=g#7 v=0
32612 On ch=1 n=a#5 v=46
32616 On ch=1 n=c#6 v=70
32638 On ch=1 n=g#5 v=23
32652 On ch=1 n=e5 v=31
32660 On ch=1 n=c#6 v=0
32674 On ch=1 n=a#5 v=0
32708 On ch=1 n=e5 v=0
32714 On ch=1 n=g#5 v=0
32770 On ch=1 n=g#7 v=67
32812 On ch=1 n=g#7 v=0
32922 On ch=1 n=d#6 v=71
32930 On ch=1 n=b5 v=43
32938 On ch=1 n=g#5 v=26
32960 On ch=1 n=d#5 v=23
33048 On ch=1 n=d#6 v=0
33058 On ch=1 n=d#5 v=0
33061 Par ch=1 c=64 v=127
33071 On ch=1 n=d#7 v=47
33085 On ch=1 n=b5 v=0
33145 On ch=1 n=g#5 v=0
33189 On ch=1 n=g#6 v=64
33201 On ch=1 n=d#7 v=0
33249 On ch=1 n=g#6 v=0
33327 On ch=1 n=b6 v=98
33359 On ch=1 n=b6 v=0
33381 Par ch=1 c=64 v=0
33469 On ch=1 n=d#7 v=80
33583 On ch=1 n=d#7 v=0
33623 On ch=1 n=d#8 v=66
33657 Par ch=1 c=64 v=127
33657 On ch=1 n=d#4 v=36
33663 On ch=1 n=d#8 v=0
33785 On ch=1 n=d#4 v=0
33787 On ch=1 n=c#5 v=48
33851 On ch=1 n=c#5 v=0
33895 On ch=1 n=d#6 v=48
33931 On ch=1 n=g5 v=37
33993 On ch=1 n=d#6 v=0
34033 On ch=1 n=g5 v=0
34036 On ch=1 n=d#7 v=38
34101 On ch=1 n=d#7 v=0
34179 On ch=1 n=g6 v=49
34239 On ch=1 n=g6 v=0
34307 On ch=1 n=a#6 v=52
34351 On ch=1 n=a#6 v=0
34481 On ch=1 n=d#7 v=47
34533 Par ch=1 c=64 v=0
34559 On ch=1 n=d#7 v=0
34637 On ch=1 n=d#8 v=52
34689 On ch=1 n=d#8 v=0
34759 On ch=1 n=g#3 v=43
34809 Par ch=1 c=64 v=127
34829 On ch=1 n=g#3 v=0
34947 On ch=1 n=b4 v=27
35011 On ch=1 n=b4 v=0
35107 On ch=1 n=d#5 v=61
35175 On ch=1 n=d#5 v=0
35279 On ch=1 n=g#5 v=43
35333 On ch=1 n=g#5 v=0
35445 On ch=1 n=d#6 v=42
35501 On ch=1 n=d#6 v=0
35615 On ch=1 n=g#6 v=42
35679 On ch=1 n=g#6 v=0
35817 On ch=1 n=b6 v=52
35877 On ch=1 n=b6 v=0
36001 On ch=1 n=d#7 v=37
36075 On ch=1 n=d#7 v=0
36275 On ch=1 n=g#7 v=48
36329 On ch=1 n=g#7 v=0
37083 Par ch=1 c=64 v=0
37657 On ch=1 n=b5 v=50
37721 On ch=1 n=b5 v=0
37847 On ch=1 n=a#5 v=57
37853 On ch=1 n=g5 v=59
37901 On ch=1 n=g5 v=0
37941 On ch=1 n=a#5 v=0
38031 On ch=1 n=b5 v=80
38095 On ch=1 n=b5 v=0
38177 On ch=1 n=f#5 v=60
38180 On ch=1 n=a5 v=58
38229 On ch=1 n=a5 v=0
38241 On ch=1 n=f#5 v=0
38333 On ch=1 n=b5 v=83
38427 On ch=1 n=b5 v=0
38471 On ch=1 n=g#5 v=65
38485 On ch=1 n=f5 v=50
38533 On ch=1 n=f5 v=0
38547 On ch=1 n=g#5 v=0
38653 On ch=1 n=b5 v=85
38715 On ch=1 n=b5 v=0
38809 On ch=1 n=g5 v=76
38815 On ch=1 n=e5 v=75
38855 On ch=1 n=e5 v=0
38869 On ch=1 n=g5 v=0
39089 On ch=1 n=c#6 v=65
39127 On ch=1 n=b5 v=83
39189 On ch=1 n=c#6 v=0
39199 On ch=1 n=b5 v=0
39205 On ch=1 n=a#5 v=52
39257 On ch=1 n=a#5 v=0
39273 On ch=1 n=b5 v=65
39347 On ch=1 n=b5 v=0
39347 On ch=1 n=f#5 v=66
39373 On ch=1 n=d#5 v=62
39385 On ch=1 n=b4 v=41
39387 On ch=1 n=f#5 v=0
39423 On ch=1 n=d#5 v=0
39437 On ch=1 n=b4 v=0
39525 On ch=1 n=f#7 v=72
39541 Par ch=1 c=64 v=127
39565 On ch=1 n=f#7 v=0
39679 Par ch=1 c=64 v=0
39703 On ch=1 n=f#5 v=46
39709 On ch=1 n=b5 v=73
39719 On ch=1 n=f#4 v=46
39725 On ch=1 n=d#5 v=43
39751 On ch=1 n=b5 v=0
39775 On ch=1 n=f#5 v=0
39781 On ch=1 n=d#5 v=0
39799 On ch=1 n=f#4 v=0
39891 On ch=1 n=f#7 v=80
39927 On ch=1 n=f#7 v=0
40097 On ch=1 n=d#6 v=73
40155 On ch=1 n=c#6 v=54
40171 On ch=1 n=d#6 v=0
40211 On ch=1 n=c#6 v=0
40231 On ch=1 n=c6 v=56
40295 On ch=1 n=c#6 v=49
40313 On ch=1 n=c6 v=0
40365 On ch=1 n=f#5 v=68
40385 On ch=1 n=e5 v=59
40388 On ch=1 n=a#4 v=37
40405 On ch=1 n=f#5 v=0
40417 On ch=1 n=c#6 v=0
40429 On ch=1 n=e5 v=0
40455 On ch=1 n=a#4 v=0
40525 On ch=1 n=f#7 v=80
40565 On ch=1 n=f#7 v=0
40677 On ch=1 n=c#6 v=78
40685 On ch=1 n=f#5 v=61
40689 On ch=1 n=f#4 v=55
40713 On ch=1 n=e5 v=30
40729 On ch=1 n=f#5 v=0
40729 On ch=1 n=c#6 v=0
40745 On ch=1 n=f#4 v=0
40773 On ch=1 n=e5 v=0
40827 On ch=1 n=f#7 v=82
40859 On ch=1 n=f#7 v=0
41009 On ch=1 n=e6 v=74
41073 On ch=1 n=d#6 v=65
41095 On ch=1 n=e6 v=0
41141 On ch=1 n=d6 v=66
41165 On ch=1 n=d#6 v=0
41227 On ch=1 n=d6 v=0
41230 On ch=1 n=d#6 v=65
41323 On ch=1 n=f#5 v=24
41349 On ch=1 n=d#6 v=0
41352 On ch=1 n=d#5 v=32
41357 On ch=1 n=b5 v=68
41375 On ch=1 n=b4 v=17
41401 On ch=1 n=b5 v=0
41453 On ch=1 n=b4 v=0
41463 Par ch=1 c=64 v=127
41471 On ch=1 n=f#5 v=0
41481 On ch=1 n=d#5 v=0
41611 On ch=1 n=f#7 v=50
41661 On ch=1 n=f#7 v=0
41753 Par ch=1 c=64 v=0
41865 On ch=1 n=d#6 v=76
41901 On ch=1 n=d#6 v=0
42047 On ch=1 n=d6 v=79
42047 On ch=1 n=b5 v=76
42085 On ch=1 n=d6 v=0
42088 On ch=1 n=b5 v=0
42215 On ch=1 n=d#6 v=82
42257 On ch=1 n=d#6 v=0
42349 On ch=1 n=a#5 v=62
42353 On ch=1 n=c#6 v=66
42399 On ch=1 n=a#5 v=0
42403 On ch=1 n=c#6 v=0
42515 On ch=1 n=d#6 v=88
42589 On ch=1 n=d#6 v=0
42663 On ch=1 n=a5 v=62
42663 On ch=1 n=c6 v=74
42711 On ch=1 n=a5 v=0
42713 On ch=1 n=c6 v=0
42811 On ch=1 n=d#6 v=88
42847 On ch=1 n=d#6 v=0
42959 On ch=1 n=g#5 v=67
42961 On ch=1 n=b5 v=86
42999 On ch=1 n=b5 v=0
42999 On ch=1 n=g#5 v=0
43151 On ch=1 n=f6 v=85
43217 On ch=1 n=d#6 v=70
43251 On ch=1 n=f6 v=0
43279 On ch=1 n=d#6 v=0
43303 On ch=1 n=d6 v=51
43355 On ch=1 n=d6 v=0
43355 On ch=1 n=d#6 v=62
43437 On ch=1 n=a#5 v=57
43449 On ch=1 n=f#5 v=42
43451 On ch=1 n=d#6 v=0
43467 On ch=1 n=d#5 v=31
43483 On ch=1 n=a#5 v=0
43507 On ch=1 n=f#5 v=0
43523 On ch=1 n=d#5 v=0
43591 On ch=1 n=a#7 v=77
43627 On ch=1 n=a#7 v=0
43763 On ch=1 n=d#6 v=72
43767 On ch=1 n=a#5 v=44
43787 On ch=1 n=f#5 v=44
43795 On ch=1 n=a#4 v=20
43807 On ch=1 n=d#6 v=0
43837 On ch=1 n=a#5 v=0
43847 On ch=1 n=f#5 v=0
43875 On ch=1 n=a#4 v=0
43931 On ch=1 n=a#7 v=75
43965 On ch=1 n=a#7 v=0
44137 On ch=1 n=f#6 v=75
44191 On ch=1 n=f6 v=58
44209 On ch=1 n=f#6 v=0
44255 On ch=1 n=f6 v=0
44283 On ch=1 n=e6 v=49
44337 On ch=1 n=e6 v=0
44340 On ch=1 n=f6 v=55
44417 On ch=1 n=f6 v=0
44419 On ch=1 n=a#5 v=56
44419 On ch=1 n=g#5 v=46
44463 On ch=1 n=a#5 v=0
44463 On ch=1 n=d5 v=23
44477 On ch=1 n=g#5 v=0
44529 On ch=1 n=d5 v=0
44587 On ch=1 n=a#7 v=51
44633 On ch=1 n=a#7 v=0
44745 On ch=1 n=a#5 v=32
44755 On ch=1 n=f6 v=58
44761 On ch=1 n=g#5 v=34
44771 On ch=1 n=a#4 v=23
44795 On ch=1 n=f6 v=0
44817 On ch=1 n=a#5 v=0
44831 On ch=1 n=g#5 v=0
44849 On ch=1 n=a#4 v=0
44899 On ch=1 n=a#7 v=64
44939 On ch=1 n=a#7 v=0
45105 On ch=1 n=g#6 v=69
45165 On ch=1 n=g#6 v=0
45165 On ch=1 n=f#6 v=60
45241 On ch=1 n=f#6 v=0
45275 On ch=1 n=f6 v=39
45335 On ch=1 n=f6 v=0
45335 On ch=1 n=f#6 v=50
45413 On ch=1 n=f#6 v=0
45427 On ch=1 n=a#5 v=20
45451 On ch=1 n=d#6 v=43
45457 On ch=1 n=f#5 v=16
45461 On ch=1 n=d#5 v=23
45503 On ch=1 n=d#6 v=0
45535 On ch=1 n=d#5 v=0
45535 Par ch=1 c=64 v=127
45545 On ch=1 n=a#5 v=0
45557 On ch=1 n=f#5 v=0
45649 On ch=1 n=a#7 v=37
45709 On ch=1 n=a#7 v=0
45841 Par ch=1 c=64 v=0
45861 On ch=1 n=f#6 v=75
45903 On ch=1 n=f#6 v=0
46021 On ch=1 n=f6 v=76
46027 On ch=1 n=d6 v=70
46067 On ch=1 n=d6 v=0
46067 On ch=1 n=f6 v=0
46183 On ch=1 n=f#6 v=88
46237 On ch=1 n=f#6 v=0
46333 On ch=1 n=c#6 v=75
46339 On ch=1 n=e6 v=69
46387 On ch=1 n=e6 v=0
46429 On ch=1 n=c#6 v=0
46489 On ch=1 n=f#6 v=92
46599 On ch=1 n=f#6 v=0
46637 On ch=1 n=d#6 v=75
46639 On ch=1 n=c6 v=80
46689 On ch=1 n=c6 v=0
46735 On ch=1 n=d#6 v=0
46791 On ch=1 n=f#6 v=96
46837 On ch=1 n=f#6 v=0
46925 On ch=1 n=d6 v=89
46927 On ch=1 n=b5 v=84
46971 On ch=1 n=b5 v=0
46987 On ch=1 n=d6 v=0
47131 On ch=1 n=g#6 v=83
47179 On ch=1 n=f#6 v=76
47245 On ch=1 n=g#6 v=0
47273 On ch=1 n=f6 v=66
47285 On ch=1 n=f#6 v=0
47323 On ch=1 n=f6 v=0
47341 On ch=1 n=f#6 v=75
47405 On ch=1 n=f#5 v=53
47405 On ch=1 n=a#5 v=52
47408 On ch=1 n=c#6 v=62
47443 On ch=1 n=f#6 v=0
47451 On ch=1 n=c#6 v=0
47465 On ch=1 n=a#5 v=0
47469 On ch=1 n=f#5 v=0
47569 On ch=1 n=c#8 v=80
47601 On ch=1 n=c#8 v=0
47723 On ch=1 n=f#6 v=84
47728 On ch=1 n=c#6 v=52
47738 On ch=1 n=a#5 v=45
47750 On ch=1 n=c#5 v=38
47776 On ch=1 n=f#6 v=0
47784 On ch=1 n=c#6 v=0
47796 On ch=1 n=a#5 v=0
47812 On ch=1 n=c#5 v=0
47890 On ch=1 n=c#8 v=74
47924 On ch=1 n=c#8 v=0
48082 On ch=1 n=a#6 v=70
48142 On ch=1 n=g#6 v=61
48162 On ch=1 n=a#6 v=0
48206 On ch=1 n=g#6 v=0
48216 On ch=1 n=g6 v=64
48286 On ch=1 n=g6 v=0
48294 On ch=1 n=g#6 v=55
48380 On ch=1 n=c#6 v=43
48382 On ch=1 n=b5 v=47
48386 On ch=1 n=f5 v=31
48412 On ch=1 n=g#6 v=0
48432 On ch=1 n=c#6 v=0
48446 On ch=1 n=b5 v=0
48449 Par ch=1 c=64 v=127
48502 On ch=1 n=f5 v=0
48538 On ch=1 n=c#8 v=73
48574 On ch=1 n=c#8 v=0
48666 Par ch=1 c=64 v=0
48696 On ch=1 n=g#6 v=61
48699 On ch=1 n=c#6 v=60
48702 On ch=1 n=c#5 v=50
48718 On ch=1 n=b5 v=34
48742 On ch=1 n=g#6 v=0
48752 On ch=1 n=c#5 v=0
48772 On ch=1 n=c#6 v=0
48776 On ch=1 n=b5 v=0
48844 On ch=1 n=c#8 v=66
48882 On ch=1 n=c#8 v=0
48986 On ch=1 n=a#6 v=83
48998 On ch=1 n=f#6 v=68
49046 On ch=1 n=f#6 v=0
49092 On ch=1 n=a#6 v=0
49158 On ch=1 n=g#6 v=65
49160 On ch=1 n=b6 v=107
49202 On ch=1 n=g#6 v=0
49234 On ch=1 n=b6 v=0
49250 Par ch=1 c=64 v=127
49298 On ch=1 n=f#5 v=43
49354 On ch=1 n=f#5 v=0
49384 On ch=1 n=c#7 v=90
49404 On ch=1 n=a#6 v=81
49538 On ch=1 n=c#8 v=65
49546 On ch=1 n=f#7 v=57
49554 On ch=1 n=c#7 v=0
49558 On ch=1 n=a#6 v=0
49586 On ch=1 n=c#8 v=0
49594 On ch=1 n=f#7 v=0
49686 On ch=1 n=b6 v=103
49702 On ch=1 n=g#6 v=67
49752 On ch=1 n=g#6 v=0
49755 Par ch=1 c=64 v=0
49800 On ch=1 n=b6 v=0
49836 On ch=1 n=f#6 v=72
49839 On ch=1 n=a#6 v=72
49872 On ch=1 n=f#6 v=0
49912 On ch=1 n=a#6 v=0
50000 On ch=1 n=b5 v=74
50003 On ch=1 n=g#6 v=77
50042 On ch=1 n=b5 v=0
50060 On ch=1 n=g#6 v=0
50128 On ch=1 n=c#6 v=73
50152 On ch=1 n=a#6 v=70
50162 On ch=1 n=c#6 v=0
50196 On ch=1 n=a#6 v=0
50296 On ch=1 n=b4 v=53
50346 On ch=1 n=b4 v=0
50350 On ch=1 n=b6 v=97
50398 On ch=1 n=d#6 v=81
50432 Par ch=1 c=64 v=127
50470 On ch=1 n=d#6 v=0
50498 On ch=1 n=b6 v=0
50506 On ch=1 n=d#7 v=59
50508 On ch=1 n=b7 v=55
50558 On ch=1 n=b7 v=0
50566 On ch=1 n=d#7 v=0
50652 On ch=1 n=a#6 v=68
50670 On ch=1 n=c#6 v=46
50724 On ch=1 n=c#6 v=0
50724 Par ch=1 c=64 v=0
50749 On ch=1 n=a#6 v=0
50794 On ch=1 n=g#6 v=76
50794 On ch=1 n=b5 v=72
50840 On ch=1 n=b5 v=0
50852 On ch=1 n=g#6 v=0
50932 On ch=1 n=a#5 v=60
50940 On ch=1 n=f#6 v=83
50982 On ch=1 n=a#5 v=0
50992 On ch=1 n=f#6 v=0
51088 On ch=1 n=b5 v=62
51091 On ch=1 n=g#6 v=75
51130 On ch=1 n=g#6 v=0
51140 On ch=1 n=b5 v=0
51202 On ch=1 n=c#5 v=46
51248 On ch=1 n=a#6 v=78
51262 On ch=1 n=c#6 v=73
51330 On ch=1 n=c#6 v=0
51340 On ch=1 n=c#5 v=0
51350 On ch=1 n=a#6 v=0
51386 Par ch=1 c=64 v=127
51389 On ch=1 n=a#7 v=62
51393 On ch=1 n=c#7 v=62
51432 On ch=1 n=a#7 v=0
51442 On ch=1 n=c#7 v=0
51522 Par ch=1 c=64 v=0
51527 On ch=1 n=g#6 v=78
51530 On ch=1 n=b5 v=61
51580 On ch=1 n=b5 v=0
51608 On ch=1 n=g#6 v=0
51674 On ch=1 n=a#5 v=57
51676 On ch=1 n=f#6 v=68
51722 On ch=1 n=f#6 v=0
51728 On ch=1 n=a#5 v=0
51832 On ch=1 n=g#5 v=58
51844 On ch=1 n=f6 v=72
51888 On ch=1 n=g#5 v=0
51894 On ch=1 n=f6 v=0
51990 On ch=1 n=a#5 v=69
51992 On ch=1 n=f#6 v=71
52030 On ch=1 n=f#6 v=0
52033 On ch=1 n=a#5 v=0
52138 On ch=1 n=c#5 v=47
52176 On ch=1 n=g#6 v=65
52206 On ch=1 n=b5 v=62
52226 On ch=1 n=c#5 v=0
52304 On ch=1 n=g#6 v=0
52322 On ch=1 n=b5 v=0
52336 On ch=1 n=b6 v=43
52338 On ch=1 n=g#7 v=20
52338 Par ch=1 c=64 v=127
52402 On ch=1 n=g#7 v=0
52402 On ch=1 n=b6 v=0
52476 Par ch=1 c=64 v=0
52494 On ch=1 n=d#6 v=44
52499 On ch=1 n=f#5 v=31
52550 On ch=1 n=d#6 v=0
52568 On ch=1 n=f#5 v=0
52618 On ch=1 n=g#5 v=62
52636 On ch=1 n=f6 v=65
52658 On ch=1 n=g#5 v=0
52674 On ch=1 n=f6 v=0
52752 On ch=1 n=f#4 v=70
52796 On ch=1 n=f#4 v=0
52828 On ch=1 n=f#6 v=65
52876 Par ch=1 c=64 v=127
52878 On ch=1 n=a#5 v=57
52974 On ch=1 n=f#6 v=0
52988 On ch=1 n=a#5 v=0
53004 On ch=1 n=a#6 v=53
53004 On ch=1 n=f#7 v=50
53060 On ch=1 n=a#6 v=0
53068 On ch=1 n=f#7 v=0
53122 On ch=1 n=f#5 v=74
53236 On ch=1 n=f#5 v=0
53266 On ch=1 n=f#6 v=76
53334 On ch=1 n=f#6 v=0
53352 Par ch=1 c=64 v=0
53418 On ch=1 n=g5 v=76
53494 On ch=1 n=g5 v=0
53540 On ch=1 n=g6 v=94
53580 On ch=1 n=g6 v=0
53628 Par ch=1 c=64 v=127
53694 On ch=1 n=g#5 v=84
53736 Par ch=1 c=64 v=0
53772 On ch=1 n=g#5 v=0
53828 On ch=1 n=g#6 v=73
53874 On ch=1 n=g#6 v=0
53986 On ch=1 n=g#7 v=72
53986 On ch=1 n=g#5 v=50
54026 On ch=1 n=e5 v=39
54032 On ch=1 n=g#7 v=0
54046 On ch=1 n=g#5 v=0
54080 On ch=1 n=e5 v=0
54118 On ch=1 n=g#6 v=69
54180 On ch=1 n=g#6 v=0
54284 On ch=1 n=g#5 v=43
54288 On ch=1 n=g#7 v=59
54290 On ch=1 n=d#5 v=46
54338 On ch=1 n=g#7 v=0
54343 On ch=1 n=d#5 v=0
54358 On ch=1 n=g#5 v=0
54426 On ch=1 n=f#6 v=66
54484 On ch=1 n=f#6 v=0
54586 On ch=1 n=g#7 v=68
54610 On ch=1 n=c#5 v=39
54612 On ch=1 n=g#5 v=34
54632 On ch=1 n=g#7 v=0
54678 On ch=1 n=c#5 v=0
54694 On ch=1 n=g#5 v=0
54728 On ch=1 n=e6 v=52
54734 Par ch=1 c=64 v=127
54776 On ch=1 n=e6 v=0
54888 Par ch=1 c=64 v=0
54918 On ch=1 n=f#8 v=77
54944 On ch=1 n=d#6 v=47
54954 On ch=1 n=f#8 v=0
55012 On ch=1 n=d#6 v=0
55082 On ch=1 n=g#6 v=72
55120 On ch=1 n=g#6 v=0
55258 On ch=1 n=e8 v=62
55268 On ch=1 n=c#6 v=48
55298 On ch=1 n=e8 v=0
55316 On ch=1 n=c#6 v=0
55402 On ch=1 n=g#6 v=72
55442 On ch=1 n=g#6 v=0
55442 Par ch=1 c=64 v=127
55448 On ch=1 n=g#4 v=66
55490 On ch=1 n=g#4 v=0
55548 Par ch=1 c=64 v=0
55556 On ch=1 n=d#8 v=72
55588 On ch=1 n=d#8 v=0
55588 On ch=1 n=c#8 v=42
55608 On ch=1 n=c6 v=59
55634 On ch=1 n=c#8 v=0
55696 On ch=1 n=c6 v=0
55702 On ch=1 n=g#6 v=72
55746 On ch=1 n=g#6 v=0
55862 On ch=1 n=c#8 v=69
55868 On ch=1 n=a#5 v=55
55910 On ch=1 n=c#8 v=0
55936 On ch=1 n=a#5 v=0
55992 On ch=1 n=g#6 v=70
56032 On ch=1 n=g#6 v=0
56150 On ch=1 n=d#8 v=76
56158 On ch=1 n=c6 v=56
56182 On ch=1 n=d#8 v=0
56202 On ch=1 n=c6 v=0
56276 On ch=1 n=g#6 v=68
56320 On ch=1 n=g#6 v=0
56340 On ch=1 n=c#5 v=39
56408 On ch=1 n=c#5 v=0
56454 On ch=1 n=e8 v=54
56457 On ch=1 n=c#6 v=44
56500 On ch=1 n=e8 v=0
56538 On ch=1 n=c#6 v=0
56610 On ch=1 n=g#6 v=36
56672 On ch=1 n=g#6 v=0
56750 On ch=1 n=c#8 v=66
56772 On ch=1 n=e6 v=49
56802 On ch=1 n=c#8 v=0
56824 On ch=1 n=e6 v=0
56916 On ch=1 n=g#6 v=64
56958 On ch=1 n=g#6 v=0
57058 On ch=1 n=g5 v=53
57112 On ch=1 n=g5 v=0
57194 On ch=1 n=g6 v=61
57238 On ch=1 n=g6 v=0
57316 Par ch=1 c=64 v=127
57340 On ch=1 n=f#5 v=72
57378 On ch=1 n=f#5 v=0
57470 Par ch=1 c=64 v=0
57484 On ch=1 n=f#6 v=62
57524 On ch=1 n=f#6 v=0
57618 On ch=1 n=f#5 v=50
57632 On ch=1 n=d#5 v=56
57634 On ch=1 n=f#7 v=70
57678 On ch=1 n=f#5 v=0
57696 On ch=1 n=f#7 v=0
57706 On ch=1 n=d#5 v=0
57754 On ch=1 n=f#6 v=76
57806 On ch=1 n=f#6 v=0
57904 On ch=1 n=c#5 v=53
57906 On ch=1 n=f#5 v=45
57912 On ch=1 n=f#7 v=67
57964 On ch=1 n=c#5 v=0
57968 On ch=1 n=f#5 v=0
57972 On ch=1 n=f#7 v=0
58040 On ch=1 n=e6 v=62
58084 On ch=1 n=e6 v=0
58180 On ch=1 n=f#7 v=79
58200 On ch=1 n=f#5 v=40
58212 On ch=1 n=b4 v=29
58226 On ch=1 n=f#7 v=0
58270 On ch=1 n=b4 v=0
58270 On ch=1 n=f#5 v=0
58298 On ch=1 n=d#6 v=70
58342 On ch=1 n=d#6 v=0
58360 Par ch=1 c=64 v=127
58498 Par ch=1 c=64 v=0
58506 On ch=1 n=e8 v=73
58524 On ch=1 n=c#6 v=39
58540 On ch=1 n=e8 v=0
58586 On ch=1 n=c#6 v=0
58660 On ch=1 n=f#6 v=76
58702 On ch=1 n=f#6 v=0
58826 On ch=1 n=b5 v=63
58836 On ch=1 n=d#8 v=75
58868 On ch=1 n=d#8 v=0
58874 On ch=1 n=b5 v=0
58986 On ch=1 n=f#6 v=61
59006 On ch=1 n=f#4 v=75
59006 Par ch=1 c=64 v=127
59030 On ch=1 n=f#6 v=0
59054 On ch=1 n=f#4 v=0
59114 Par ch=1 c=64 v=0
59138 On ch=1 n=c#8 v=72
59168 On ch=1 n=a#5 v=62
59176 On ch=1 n=c#8 v=0
59284 On ch=1 n=a#5 v=0
59300 On ch=1 n=f#6 v=51
59352 On ch=1 n=f#6 v=0
59438 On ch=1 n=g#5 v=56
59443 On ch=1 n=b7 v=69
59482 On ch=1 n=b7 v=0
59498 On ch=1 n=g#5 v=0
59568 On ch=1 n=f#6 v=71
59614 On ch=1 n=f#6 v=0
59700 On ch=1 n=a#5 v=57
59728 On ch=1 n=c#8 v=64
59746 On ch=1 n=a#5 v=0
59768 On ch=1 n=c#8 v=0
59840 On ch=1 n=f#6 v=78
59882 On ch=1 n=f#6 v=0
59914 On ch=1 n=b4 v=43
59970 On ch=1 n=b4 v=0
59990 Par ch=1 c=64 v=127
60014 On ch=1 n=d#8 v=83
60044 On ch=1 n=d#8 v=0
60052 On ch=1 n=b5 v=52
60118 On ch=1 n=b5 v=0
60212 On ch=1 n=f#6 v=28
60266 Par ch=1 c=64 v=0
60278 On ch=1 n=f#6 v=0
60340 On ch=1 n=d#6 v=61
60352 On ch=1 n=b7 v=65
60382 On ch=1 n=d#6 v=0
60394 On ch=1 n=b7 v=0
60494 On ch=1 n=f#6 v=66
60538 On ch=1 n=f#6 v=0
60640 On ch=1 n=d5 v=45
60694 On ch=1 n=d5 v=0
60736 On ch=1 n=d6 v=61
60776 On ch=1 n=d6 v=0
60904 On ch=1 n=d#5 v=73
60944 On ch=1 n=d#5 v=0
61034 On ch=1 n=d#6 v=55
61076 On ch=1 n=d#6 v=0
61180 On ch=1 n=d#5 v=62
61182 On ch=1 n=g4 v=58
61194 On ch=1 n=d#7 v=62
61230 On ch=1 n=d#5 v=0
61236 On ch=1 n=d#7 v=0
61252 On ch=1 n=g4 v=0
61294 On ch=1 n=d#6 v=69
61356 On ch=1 n=d#6 v=0
61450 On ch=1 n=g#4 v=67
61454 On ch=1 n=d#7 v=70
61460 On ch=1 n=f5 v=59
61520 On ch=1 n=f5 v=0
61536 On ch=1 n=d#7 v=0
61566 On ch=1 n=g#4 v=0
61568 On ch=1 n=d6 v=78
61610 On ch=1 n=d6 v=0
61712 On ch=1 n=d#7 v=83
61720 On ch=1 n=g5 v=80
61722 On ch=1 n=a#4 v=72
61788 On ch=1 n=g5 v=0
61818 On ch=1 n=d#7 v=0
61826 On ch=1 n=a#4 v=0
61832 On ch=1 n=c#6 v=76
61918 On ch=1 n=c#6 v=0
61988 On ch=1 n=d#7 v=73
61994 On ch=1 n=g5 v=73
61998 On ch=1 n=a#4 v=64
62040 On ch=1 n=g5 v=0
62043 On ch=1 n=a#4 v=0
62072 On ch=1 n=d#7 v=0
62098 On ch=1 n=c#6 v=72
62154 On ch=1 n=c#6 v=0
62240 On ch=1 n=g#5 v=75
62244 On ch=1 n=d#7 v=77
62248 On ch=1 n=b4 v=69
62280 On ch=1 n=d#7 v=0
62288 On ch=1 n=g#5 v=0
62290 On ch=1 n=b4 v=0
62326 On ch=1 n=c#7 v=18
62358 On ch=1 n=b5 v=78
62388 On ch=1 n=c#7 v=0
62400 On ch=1 n=b5 v=0
62520 On ch=1 n=e7 v=87
62532 On ch=1 n=a#5 v=59
62534 On ch=1 n=e6 v=71
62544 On ch=1 n=c#5 v=56
62564 On ch=1 n=e7 v=0
62576 On ch=1 n=e6 v=0
62664 On ch=1 n=d#7 v=73
62666 On ch=1 n=a#6 v=72
62674 On ch=1 n=a#5 v=0
62702 On ch=1 n=d#7 v=0
62708 On ch=1 n=a#6 v=0
62716 On ch=1 n=c#5 v=0
62740 Par ch=1 c=64 v=127
62802 Par ch=1 c=64 v=0
62814 On ch=1 n=c#6 v=82
62826 On ch=1 n=c#7 v=72
62852 On ch=1 n=c#6 v=0
62868 On ch=1 n=c#7 v=0
62950 On ch=1 n=b6 v=96
62958 On ch=1 n=e6 v=60
62984 On ch=1 n=b6 v=0
63004 On ch=1 n=e6 v=0
63098 On ch=1 n=d5 v=39
63102 On ch=1 n=f5 v=30
63104 On ch=1 n=b5 v=64
63116 On ch=1 n=a#6 v=32
63158 On ch=1 n=b5 v=0
63160 On ch=1 n=d5 v=0
63160 On ch=1 n=f5 v=0
63190 On ch=1 n=a#6 v=0
63220 On ch=1 n=g#6 v=72
63228 On ch=1 n=f6 v=25
63290 On ch=1 n=f6 v=0
63316 On ch=1 n=g#6 v=0
63372 On ch=1 n=a#5 v=60
63378 On ch=1 n=g6 v=71
63392 On ch=1 n=g5 v=36
63398 On ch=1 n=d#5 v=39
63418 On ch=1 n=a#5 v=0
63428 On ch=1 n=g6 v=0
63500 On ch=1 n=a#6 v=62
63516 On ch=1 n=d#6 v=44
63558 On ch=1 n=a#6 v=0
63570 On ch=1 n=d#6 v=0
63572 On ch=1 n=d#5 v=0
63586 On ch=1 n=g5 v=0
63640 On ch=1 n=g6 v=61
63656 On ch=1 n=b6 v=71
63704 On ch=1 n=b6 v=0
63712 On ch=1 n=g6 v=0
63780 On ch=1 n=d#6 v=39
63780 On ch=1 n=a#6 v=48
63844 On ch=1 n=d#6 v=0
63846 On ch=1 n=a#6 v=0
63918 On ch=1 n=d6 v=61
63964 On ch=1 n=d6 v=0
64046 On ch=1 n=d7 v=86
64080 On ch=1 n=d7 v=0
64198 On ch=1 n=d#6 v=75
64248 On ch=1 n=d#6 v=0
64332 On ch=1 n=d#7 v=56
64354 Par ch=1 c=64 v=127
64372 On ch=1 n=d#7 v=0
64400 Par ch=1 c=64 v=0
64482 On ch=1 n=d#8 v=46
64490 On ch=1 n=d#6 v=54
64498 On ch=1 n=g5 v=46
64516 On ch=1 n=c#8 v=25
64528 On ch=1 n=d#8 v=0
64544 On ch=1 n=d#6 v=0
64558 On ch=1 n=g5 v=0
64586 On ch=1 n=c#8 v=0
64586 On ch=1 n=d#7 v=57
64646 On ch=1 n=d#7 v=0
64760 On ch=1 n=d#8 v=64
64766 On ch=1 n=f6 v=47
64774 On ch=1 n=g#5 v=28
64808 On ch=1 n=d#8 v=0
64838 On ch=1 n=f6 v=0
64858 On ch=1 n=g#5 v=0
64872 On ch=1 n=d7 v=43
64926 On ch=1 n=d7 v=0
65014 On ch=1 n=g6 v=76
65016 On ch=1 n=d#8 v=74
65022 On ch=1 n=a#5 v=54
65062 On ch=1 n=d#8 v=0
65086 On ch=1 n=g6 v=0
65096 On ch=1 n=a#5 v=0
65130 On ch=1 n=c#7 v=73
65192 On ch=1 n=c#7 v=0
65284 On ch=1 n=d#8 v=79
65287 On ch=1 n=g6 v=74
65287 On ch=1 n=a#5 v=61
65332 On ch=1 n=d#8 v=0
65338 On ch=1 n=a#5 v=0
65340 On ch=1 n=g6 v=0
65392 On ch=1 n=c#7 v=79
65449 On ch=1 n=c#7 v=0
65536 On ch=1 n=g#6 v=78
65540 On ch=1 n=d#8 v=86
65552 On ch=1 n=b5 v=59
65578 On ch=1 n=g#6 v=0
65604 On ch=1 n=b5 v=0
65604 On ch=1 n=d#8 v=0
65662 On ch=1 n=b6 v=96
65698 On ch=1 n=b6 v=0
65806 On ch=1 n=e8 v=88
65810 On ch=1 n=e7 v=69
65832 On ch=1 n=a6 v=64
65840 On ch=1 n=e8 v=0
65840 On ch=1 n=c#6 v=41
65856 On ch=1 n=e7 v=0
65908 On ch=1 n=a6 v=0
65936 On ch=1 n=d#8 v=73
65939 On ch=1 n=a7 v=64
65966 On ch=1 n=c#6 v=0
65970 On ch=1 n=d#8 v=0
65984 On ch=1 n=a7 v=0
66044 Par ch=1 c=64 v=127
66082 On ch=1 n=c#7 v=83
66098 On ch=1 n=c#8 v=55
66120 On ch=1 n=c#7 v=0
66142 On ch=1 n=c#8 v=0
66150 Par ch=1 c=64 v=0
66210 On ch=1 n=e7 v=67
66210 On ch=1 n=b7 v=70
66250 On ch=1 n=b7 v=0
66272 On ch=1 n=e7 v=0
66358 On ch=1 n=b6 v=101
66360 On ch=1 n=a7 v=67
66372 On ch=1 n=f6 v=43
66384 On ch=1 n=d6 v=36
66416 On ch=1 n=b6 v=0
66422 On ch=1 n=f6 v=0
66428 On ch=1 n=a7 v=0
66444 On ch=1 n=d6 v=0
66500 On ch=1 n=g#7 v=69
66510 On ch=1 n=f7 v=57
66558 On ch=1 n=f7 v=0
66566 On ch=1 n=g#7 v=0
66644 On ch=1 n=a#6 v=60
66654 On ch=1 n=g7 v=70
66660 On ch=1 n=g6 v=52
66662 On ch=1 n=d#6 v=38
66694 On ch=1 n=a#6 v=0
66722 On ch=1 n=d#6 v=0
66728 On ch=1 n=g7 v=0
66740 On ch=1 n=g6 v=0
66798 On ch=1 n=a#7 v=52
66818 On ch=1 n=d#7 v=35
66858 Par ch=1 c=64 v=127
66870 On ch=1 n=d#7 v=0
66938 On ch=1 n=a#7 v=0
66956 On ch=1 n=d6 v=61
67000 On ch=1 n=d6 v=0
67077 On ch=1 n=d7 v=63
67132 On ch=1 n=d7 v=0
67212 On ch=1 n=d#6 v=55
67226 Par ch=1 c=64 v=0
67278 On ch=1 n=d#6 v=0
67338 On ch=1 n=d#7 v=62
67408 On ch=1 n=d#7 v=0
67482 On ch=1 n=d#8 v=67
67594 On ch=1 n=d#8 v=0
67608 On ch=1 n=d#7 v=53
67668 On ch=1 n=d#7 v=0
67750 On ch=1 n=d#6 v=60
67810 On ch=1 n=d#6 v=0
67884 On ch=1 n=d#7 v=40
67958 On ch=1 n=d#7 v=0
68048 On ch=1 n=e6 v=45
68102 On ch=1 n=e6 v=0
68184 On ch=1 n=e7 v=47
68242 On ch=1 n=e7 v=0
68314 On ch=1 n=d#8 v=55
68422 On ch=1 n=d#8 v=0
68444 On ch=1 n=d#7 v=51
68508 On ch=1 n=d#7 v=0
68580 On ch=1 n=e6 v=44
68652 On ch=1 n=e6 v=0
68710 On ch=1 n=e7 v=34
68772 On ch=1 n=e7 v=0
68868 On ch=1 n=f6 v=36
68918 On ch=1 n=f6 v=0
69000 On ch=1 n=f7 v=32
69074 On ch=1 n=f7 v=0
69130 On ch=1 n=d#8 v=52
69214 On ch=1 n=d#8 v=0
69264 On ch=1 n=d#7 v=44
69324 On ch=1 n=d#7 v=0
69400 On ch=1 n=f#6 v=45
69462 On ch=1 n=f#6 v=0
69534 On ch=1 n=f#7 v=54
69608 On ch=1 n=f#7 v=0
69696 On ch=1 n=d#8 v=63
69826 On ch=1 n=d#8 v=0
69828 On ch=1 n=d#7 v=54
69886 On ch=1 n=d#7 v=0
69958 On ch=1 n=g6 v=59
70024 On ch=1 n=g6 v=0
70104 On ch=1 n=g7 v=55
70158 On ch=1 n=g7 v=0
70246 On ch=1 n=d#8 v=65
70360 On ch=1 n=d#8 v=0
70418 On ch=1 n=d#7 v=25
70490 On ch=1 n=d#7 v=0
70498 On ch=1 n=g#6 v=49
70564 On ch=1 n=g#6 v=0
70632 On ch=1 n=g#7 v=58
70680 On ch=1 n=g#7 v=0
70816 On ch=1 n=d#8 v=76
70898 Par ch=1 c=64 v=127
70920 On ch=1 n=d#8 v=0
70958 On ch=1 n=a6 v=63
71066 On ch=1 n=a6 v=0
71126 On ch=1 n=d#8 v=77
71216 On ch=1 n=d#8 v=0
71244 On ch=1 n=a#6 v=64
71334 On ch=1 n=a#6 v=0
71386 On ch=1 n=d#8 v=81
71488 On ch=1 n=d#8 v=0
71502 On ch=1 n=b6 v=98
71514 Par ch=1 c=64 v=0
71640 On ch=1 n=d#8 v=81
71652 On ch=1 n=b6 v=0
71756 On ch=1 n=d#8 v=0
71774 Par ch=1 c=64 v=127
71784 On ch=1 n=c7 v=79
71886 On ch=1 n=c7 v=0
71910 On ch=1 n=d#8 v=78
72018 On ch=1 n=d#8 v=0
72036 Par ch=1 c=64 v=0
72054 On ch=1 n=c#7 v=62
72110 On ch=1 n=c#7 v=0
72188 On ch=1 n=d#8 v=68
72220 Par ch=1 c=64 v=127
72260 On ch=1 n=d#8 v=0
72308 On ch=1 n=d7 v=63
72376 On ch=1 n=d7 v=0
72420 Par ch=1 c=64 v=0
72486 On ch=1 n=d#8 v=65
72626 On ch=1 n=d#7 v=47
72632 On ch=1 n=d#8 v=0
72752 On ch=1 n=d#7 v=0
72796 On ch=1 n=d#8 v=51
72804 Par ch=1 c=64 v=127
72868 On ch=1 n=d#8 v=0
72928 On ch=1 n=d#7 v=39
72996 On ch=1 n=d#7 v=0
73082 On ch=1 n=d#8 v=46
73144 On ch=1 n=d#8 v=0
73212 On ch=1 n=d#7 v=39
73280 On ch=1 n=d#7 v=0
73368 On ch=1 n=d#8 v=47
73442 On ch=1 n=d#8 v=0
73504 On ch=1 n=d#7 v=41
73568 On ch=1 n=d#7 v=0
73646 On ch=1 n=d#8 v=46
73708 On ch=1 n=d#8 v=0
73770 On ch=1 n=d#7 v=35
73840 On ch=1 n=d#7 v=0
73926 On ch=1 n=d#8 v=51
74018 On ch=1 n=d#8 v=0
74050 Par ch=1 c=64 v=0
74050 On ch=1 n=d#7 v=43
74124 On ch=1 n=d#7 v=0
74196 On ch=1 n=d#8 v=65
74232 On ch=1 n=d#8 v=0
74248 Par ch=1 c=64 v=127
74354 On ch=1 n=d#7 v=52
74424 On ch=1 n=d#7 v=0
74528 On ch=1 n=d#6 v=52
74578 On ch=1 n=d#6 v=0
74660 On ch=1 n=d#7 v=44
74708 On ch=1 n=d#7 v=0
74820 On ch=1 n=d#8 v=65
74858 On ch=1 n=d#8 v=0
74950 On ch=1 n=d#7 v=63
75036 On ch=1 n=d#7 v=0
75146 On ch=1 n=d#6 v=49
75192 On ch=1 n=d#6 v=0
75292 On ch=1 n=d#7 v=37
75342 On ch=1 n=d#7 v=0
75440 On ch=1 n=d#8 v=49
75486 On ch=1 n=d#8 v=0
75584 On ch=1 n=d#7 v=43
75638 On ch=1 n=d#7 v=0
75744 On ch=1 n=d#6 v=32
75750 On ch=1 n=d#5 v=43
75814 On ch=1 n=d#6 v=0
75830 On ch=1 n=d#5 v=0
75858 On ch=1 n=d#7 v=48
75904 On ch=1 n=d#7 v=0
76016 Par ch=1 c=64 v=0
76019 On ch=1 n=d#6 v=77
76026 On ch=1 n=d#8 v=55
76072 On ch=1 n=d#8 v=0
76082 On ch=1 n=d#6 v=0
76170 On ch=1 n=d#7 v=45
76260 On ch=1 n=d#7 v=0
76318 On ch=1 n=d#6 v=70
76362 On ch=1 n=d#6 v=0
76438 On ch=1 n=d#7 v=52
76484 On ch=1 n=d#7 v=0
76600 On ch=1 n=c#6 v=46
76622 On ch=1 n=d#8 v=17
76654 On ch=1 n=c#6 v=0
76680 On ch=1 n=d#8 v=0
76716 On ch=1 n=d#7 v=57
76778 On ch=1 n=g#4 v=35
76850 On ch=1 n=g#4 v=0
76868 On ch=1 n=d#7 v=0
76876 On ch=1 n=b5 v=83
76876 On ch=1 n=d#6 v=57
76918 On ch=1 n=d#6 v=0
76930 On ch=1 n=b5 v=0
77018 On ch=1 n=d#7 v=53
77062 On ch=1 n=d#7 v=0
77160 On ch=1 n=d#8 v=68
77178 On ch=1 n=b5 v=78
77196 On ch=1 n=d#8 v=0
77246 On ch=1 n=b5 v=0
77298 On ch=1 n=d#7 v=67
77392 On ch=1 n=d#7 v=0
77442 On ch=1 n=d#6 v=66
77445 On ch=1 n=a#5 v=63
77488 On ch=1 n=d#6 v=0
77528 On ch=1 n=a#5 v=0
77576 On ch=1 n=d#7 v=65
77616 On ch=1 n=d#7 v=0
77708 On ch=1 n=g#5 v=57
77732 On ch=1 n=b4 v=46
77750 On ch=1 n=d#8 v=21
77782 On ch=1 n=g#5 v=0
77785 On ch=1 n=b4 v=0
77814 On ch=1 n=d#8 v=0
77858 On ch=1 n=d#7 v=57
77940 On ch=1 n=d#7 v=0
77994 On ch=1 n=g5 v=70
78002 On ch=1 n=d#6 v=58
78050 On ch=1 n=d#6 v=0
78050 On ch=1 n=g5 v=0
78136 On ch=1 n=d#7 v=52
78180 On ch=1 n=d#7 v=0
78272 On ch=1 n=g#5 v=48
78276 On ch=1 n=d#8 v=67
78312 On ch=1 n=d#8 v=0
78340 On ch=1 n=g#5 v=0
78408 On ch=1 n=d#7 v=58
78528 On ch=1 n=d#7 v=0
78554 On ch=1 n=d#6 v=68
78554 On ch=1 n=a#5 v=64
78574 On ch=1 n=g5 v=40
78600 On ch=1 n=d#6 v=0
78676 On ch=1 n=d#7 v=56
78678 On ch=1 n=g5 v=0
78724 On ch=1 n=d#7 v=0
78752 On ch=1 n=a#5 v=0
78838 On ch=1 n=d#8 v=67
78848 On ch=1 n=d#5 v=62
78874 On ch=1 n=d#8 v=0
78888 On ch=1 n=d#5 v=0
78976 On ch=1 n=d#7 v=63
79078 On ch=1 n=d#7 v=0
79118 On ch=1 n=d#5 v=75
79130 On ch=1 n=d#6 v=61
79176 On ch=1 n=d#6 v=0
79184 On ch=1 n=d#5 v=0
79258 On ch=1 n=d#7 v=60
79296 On ch=1 n=d#7 v=0
79406 On ch=1 n=e5 v=83
79412 On ch=1 n=d#8 v=55
79416 On ch=1 n=g4 v=67
79456 On ch=1 n=d#8 v=0
79468 On ch=1 n=g4 v=0
79522 On ch=1 n=e5 v=0
79544 On ch=1 n=d#7 v=57
79672 On ch=1 n=d#7 v=0
79692 On ch=1 n=d#6 v=55
79700 On ch=1 n=d#5 v=68
79740 On ch=1 n=d#6 v=0
79790 On ch=1 n=d#5 v=0
79824 On ch=1 n=d#7 v=58
79866 On ch=1 n=d#7 v=0
79976 On ch=1 n=d#8 v=58
79984 On ch=1 n=c#5 v=65
80018 On ch=1 n=d#8 v=0
80034 On ch=1 n=c#5 v=0
80100 On ch=1 n=d#7 v=59
80236 On ch=1 n=d#7 v=0
80250 On ch=1 n=b4 v=47
80255 On ch=1 n=d#6 v=55
80260 On ch=1 n=g#4 v=40
80308 On ch=1 n=d#6 v=0
80320 On ch=1 n=b4 v=0
80362 On ch=1 n=g#4 v=0
80390 On ch=1 n=d#7 v=53
80432 On ch=1 n=d#7 v=0
80532 On ch=1 n=d#8 v=60
80542 On ch=1 n=b4 v=83
80572 On ch=1 n=d#8 v=0
80656 On ch=1 n=b4 v=0
80656 On ch=1 n=d#7 v=58
80796 On ch=1 n=d#7 v=0
80806 On ch=1 n=a#4 v=66
80818 On ch=1 n=d#6 v=61
80868 On ch=1 n=d#6 v=0
80928 On ch=1 n=a#4 v=0
80940 On ch=1 n=d#7 v=67
80982 On ch=1 n=d#7 v=0
81094 On ch=1 n=g#4 v=60
81098 On ch=1 n=d#8 v=48
81124 On ch=1 n=e4 v=52
81146 On ch=1 n=d#8 v=0
81190 On ch=1 n=e4 v=0
81224 On ch=1 n=g#4 v=0
81224 On ch=1 n=d#7 v=56
81310 On ch=1 n=d#7 v=0
81380 On ch=1 n=d#6 v=52
81388 On ch=1 n=g4 v=67
81430 On ch=1 n=d#6 v=0
81442 On ch=1 n=g4 v=0
81518 On ch=1 n=d#7 v=54
81560 On ch=1 n=d#7 v=0
81656 On ch=1 n=g#4 v=54
81676 On ch=1 n=d#8 v=46
81726 On ch=1 n=d#8 v=0
81746 On ch=1 n=g#4 v=0
81790 On ch=1 n=d#7 v=62
81914 On ch=1 n=d#7 v=0
81942 On ch=1 n=a#4 v=40
81978 On ch=1 n=d#6 v=40
82004 On ch=1 n=g4 v=34
82036 On ch=1 n=d#6 v=0
82078 On ch=1 n=g4 v=0
82116 Par ch=1 c=64 v=127
82124 On ch=1 n=d#7 v=34
82178 On ch=1 n=d#7 v=0
82198 On ch=1 n=a#4 v=0
82402 On ch=1 n=d#4 v=43
82464 On ch=1 n=d#4 v=0
82464 On ch=1 n=d#7 v=58
82524 On ch=1 n=d#7 v=0
82628 On ch=1 n=d#6 v=64
82676 On ch=1 n=d#6 v=0
82774 On ch=1 n=d#7 v=58
82784 On ch=1 n=d#5 v=63
82814 On ch=1 n=d#7 v=0
82848 On ch=1 n=d#5 v=0
82852 Par ch=1 c=64 v=0
82908 On ch=1 n=d#8 v=70
82930 On ch=1 n=d#6 v=79
82942 On ch=1 n=d#8 v=0
83024 On ch=1 n=d#6 v=0
83044 On ch=1 n=d#7 v=61
83176 On ch=1 n=d#7 v=0
83206 On ch=1 n=d#6 v=78
83256 On ch=1 n=d#6 v=0
83330 On ch=1 n=d#7 v=66
83378 On ch=1 n=d#7 v=0
83492 On ch=1 n=c#6 v=62
83492 On ch=1 n=d#8 v=66
83530 On ch=1 n=d#8 v=0
83533 On ch=1 n=c#6 v=0
83618 On ch=1 n=d#7 v=60
83656 On ch=1 n=g#4 v=71
83714 Par ch=1 c=64 v=127
83728 On ch=1 n=g#4 v=0
83768 On ch=1 n=d#7 v=0
83790 On ch=1 n=b5 v=91
83792 On ch=1 n=d#6 v=59
83822 Par ch=1 c=64 v=0
83836 On ch=1 n=d#6 v=0
83896 On ch=1 n=b5 v=0
83924 On ch=1 n=d#7 v=50
83972 On ch=1 n=d#7 v=0
84076 On ch=1 n=d#8 v=68
84080 On ch=1 n=b5 v=95
84112 On ch=1 n=d#8 v=0
84170 On ch=1 n=b5 v=0
84222 On ch=1 n=d#7 v=52
84342 On ch=1 n=d#7 v=0
84352 On ch=1 n=a#5 v=70
84362 On ch=1 n=d#6 v=57
84404 On ch=1 n=d#6 v=0
84416 On ch=1 n=a#5 v=0
84486 On ch=1 n=d#7 v=67
84528 On ch=1 n=d#7 v=0
84640 On ch=1 n=g#5 v=57
84650 On ch=1 n=d#8 v=46
84654 On ch=1 n=b4 v=46
84700 On ch=1 n=d#8 v=0
84703 On ch=1 n=b4 v=0
84708 On ch=1 n=g#5 v=0
84772 On ch=1 n=d#7 v=64
84902 On ch=1 n=d#7 v=0
84932 On ch=1 n=g5 v=60
84932 On ch=1 n=d#6 v=60
84974 On ch=1 n=d#6 v=0
84984 On ch=1 n=g5 v=0
85058 On ch=1 n=d#7 v=58
85102 On ch=1 n=d#7 v=0
85212 On ch=1 n=g#5 v=47
85215 On ch=1 n=d#8 v=70
85248 On ch=1 n=d#8 v=0
85274 On ch=1 n=g#5 v=0
85350 On ch=1 n=d#7 v=58
85480 On ch=1 n=d#7 v=0
85480 On ch=1 n=a#5 v=42
85514 On ch=1 n=d#6 v=44
85524 On ch=1 n=g5 v=22
85568 On ch=1 n=d#6 v=0
85620 On ch=1 n=g5 v=0
85636 On ch=1 n=d#7 v=52
85636 Par ch=1 c=64 v=127
85660 On ch=1 n=a#5 v=0
85684 On ch=1 n=d#7 v=0
85798 On ch=1 n=d#5 v=41
85818 On ch=1 n=d#8 v=47
85866 On ch=1 n=d#8 v=0
85880 On ch=1 n=d#5 v=0
85960 On ch=1 n=d#7 v=60
86020 On ch=1 n=d#7 v=0
86104 On ch=1 n=d#6 v=65
86204 On ch=1 n=d#6 v=0
86218 Par ch=1 c=64 v=0
86242 On ch=1 n=d#7 v=48
86320 On ch=1 n=d#7 v=0
86364 On ch=1 n=a#5 v=68
86370 On ch=1 n=c#5 v=73
86370 On ch=1 n=e6 v=69
86374 On ch=1 n=g#5 v=57
86416 On ch=1 n=a#5 v=0
86419 On ch=1 n=g#5 v=0
86440 On ch=1 n=e6 v=0
86440 On ch=1 n=c#5 v=0
86528 On ch=1 n=d#7 v=42
86606 On ch=1 n=d#7 v=0
86636 On ch=1 n=d#6 v=66
86639 On ch=1 n=a#5 v=62
86656 On ch=1 n=g#5 v=47
86668 On ch=1 n=d#5 v=44
86688 On ch=1 n=a#5 v=0
86706 On ch=1 n=g#5 v=0
86720 On ch=1 n=d#5 v=0
86736 On ch=1 n=d#6 v=0
86770 On ch=1 n=d#7 v=44
86832 On ch=1 n=d#7 v=0
86898 On ch=1 n=c#6 v=64
86898 On ch=1 n=a#5 v=59
86928 On ch=1 n=e5 v=42
86932 On ch=1 n=g#5 v=35
86952 On ch=1 n=c#6 v=0
86955 On ch=1 n=a#5 v=0
86978 On ch=1 n=e5 v=0
86994 On ch=1 n=g#5 v=0
87054 On ch=1 n=d#7 v=36
87118 On ch=1 n=d#7 v=0
87198 On ch=1 n=d#6 v=64
87210 On ch=1 n=b5 v=48
87228 On ch=1 n=d#5 v=31
87236 On ch=1 n=g#5 v=25
87302 On ch=1 n=d#6 v=0
87340 Par ch=1 c=64 v=127
87358 On ch=1 n=d#5 v=0
87370 On ch=1 n=d#7 v=42
87378 On ch=1 n=b5 v=0
87418 On ch=1 n=g#5 v=0
87488 On ch=1 n=d#7 v=0
87512 On ch=1 n=g#6 v=61
87538 Par ch=1 c=64 v=0
87574 On ch=1 n=g#6 v=0
87658 On ch=1 n=b6 v=89
87696 On ch=1 n=b6 v=0
87808 On ch=1 n=d#7 v=73
87908 On ch=1 n=d#7 v=0
87922 Par ch=1 c=64 v=127
87950 On ch=1 n=d#8 v=76
87982 On ch=1 n=d#8 v=0
88158 On ch=1 n=d#6 v=52
88180 On ch=1 n=c#6 v=31
88216 Par ch=1 c=64 v=0
88216 On ch=1 n=d#5 v=22
88228 On ch=1 n=g5 v=24
88308 On ch=1 n=d#6 v=0
88318 On ch=1 n=d#7 v=47
88378 On ch=1 n=d#7 v=0
88381 On ch=1 n=c#6 v=0
88414 On ch=1 n=g5 v=0
88430 Par ch=1 c=64 v=127
88462 On ch=1 n=d#5 v=0
88476 On ch=1 n=g6 v=52
88536 On ch=1 n=g6 v=0
88554 Par ch=1 c=64 v=0
88604 On ch=1 n=a#6 v=54
88648 On ch=1 n=a#6 v=0
88774 On ch=1 n=d#7 v=47
88842 On ch=1 n=d#7 v=0
88948 On ch=1 n=d#8 v=41
89008 On ch=1 n=d#8 v=0
89092 On ch=1 n=g#4 v=31
89136 Par ch=1 c=64 v=127
89182 On ch=1 n=g#4 v=0
89270 On ch=1 n=d#5 v=31
89354 On ch=1 n=d#5 v=0
89434 On ch=1 n=b5 v=54
89482 On ch=1 n=b5 v=0
89608 On ch=1 n=g#6 v=58
89682 On ch=1 n=g#6 v=0
89774 On ch=1 n=d#6 v=49
89822 On ch=1 n=d#6 v=0
89906 On ch=1 n=d#7 v=43
89952 On ch=1 n=d#7 v=0
90004 On ch=1 n=d#7 v=63
90070 On ch=1 n=d#7 v=0
90132 On ch=1 n=d#7 v=65
90176 On ch=1 n=d#7 v=0
90222 On ch=1 n=d#7 v=77
90304 On ch=1 n=d#7 v=0
90350 On ch=1 n=d#8 v=60
90388 On ch=1 n=d#8 v=0
90484 On ch=1 n=d#7 v=68
90524 On ch=1 n=d#7 v=0
90592 On ch=1 n=d#7 v=41
90642 Par ch=1 c=64 v=0
90658 On ch=1 n=d#7 v=0
90664 On ch=1 n=d#8 v=57
90702 On ch=1 n=d#8 v=0
90796 On ch=1 n=c#7 v=65
90834 On ch=1 n=c#7 v=0
90896 On ch=1 n=c#7 v=54
90966 On ch=1 n=c#7 v=0
91030 On ch=1 n=c#8 v=22
91098 On ch=1 n=c#8 v=0
91150 On ch=1 n=b6 v=95
91164 Par ch=1 c=64 v=127
91166 On ch=1 n=g#3 v=25
91190 On ch=1 n=b6 v=0
91258 On ch=1 n=b6 v=78
91270 On ch=1 n=g#3 v=0
91318 On ch=1 n=b6 v=0
91394 On ch=1 n=b7 v=42
91452 On ch=1 n=b7 v=0
91546 On ch=1 n=b6 v=85
91560 On ch=1 n=b4 v=25
91586 On ch=1 n=b6 v=0
91600 On ch=1 n=d#4 v=2
91628 On ch=1 n=b4 v=0
91646 On ch=1 n=b6 v=85
91670 On ch=1 n=d#4 v=0
91696 On ch=1 n=b6 v=0
91738 On ch=1 n=b7 v=71
91778 On ch=1 n=b7 v=0
91878 On ch=1 n=a#6 v=68
91881 On ch=1 n=d#4 v=32
91886 On ch=1 n=b4 v=30
91916 On ch=1 n=a#6 v=0
91952 On ch=1 n=b4 v=0
91960 On ch=1 n=d#4 v=0
91968 On ch=1 n=a#6 v=65
92038 On ch=1 n=a#6 v=0
92058 On ch=1 n=a#7 v=51
92102 Par ch=1 c=64 v=0
92104 On ch=1 n=a#7 v=0
92198 On ch=1 n=g#6 v=53
92200 On ch=1 n=b3 v=36
92246 On ch=1 n=g#6 v=0
92276 On ch=1 n=b3 v=0
92304 On ch=1 n=g#6 v=56
92332 Par ch=1 c=64 v=127
92350 On ch=1 n=g#6 v=0
92398 On ch=1 n=g#7 v=32
92472 On ch=1 n=g#7 v=0
92508 On ch=1 n=d#5 v=38
92522 On ch=1 n=g#4 v=32
92524 On ch=1 n=g6 v=72
92570 On ch=1 n=g6 v=0
92578 On ch=1 n=d#5 v=0
92592 On ch=1 n=g#4 v=0
92648 On ch=1 n=g6 v=46
92720 On ch=1 n=g6 v=0
92734 On ch=1 n=g7 v=40
92806 On ch=1 n=g7 v=0
92824 On ch=1 n=d#5 v=47
92830 On ch=1 n=g#6 v=79
92842 On ch=1 n=g#4 v=31
92866 On ch=1 n=g#6 v=0
92884 On ch=1 n=d#5 v=0
92912 On ch=1 n=g#4 v=0
92936 On ch=1 n=g#6 v=55
92996 On ch=1 n=g#6 v=0
93020 On ch=1 n=g#7 v=56
93040 Par ch=1 c=64 v=0
93066 On ch=1 n=g#7 v=0
93132 On ch=1 n=d#4 v=45
93156 On ch=1 n=a#6 v=59
93194 On ch=1 n=d#4 v=0
93200 On ch=1 n=a#6 v=0
93248 On ch=1 n=a#6 v=66
93254 Par ch=1 c=64 v=127
93328 On ch=1 n=a#6 v=0
93340 On ch=1 n=a#7 v=60
93378 On ch=1 n=a#7 v=0
93506 On ch=1 n=a#4 v=19
93510 On ch=1 n=d#6 v=69
93510 On ch=1 n=g5 v=26
93546 On ch=1 n=d#6 v=0
93588 On ch=1 n=g5 v=0
93598 On ch=1 n=d#6 v=62
93612 On ch=1 n=a#4 v=0
93658 On ch=1 n=d#6 v=0
93688 On ch=1 n=d#7 v=55
93730 On ch=1 n=d#7 v=0
93820 On ch=1 n=d#6 v=68
93830 On ch=1 n=a#4 v=31
93836 On ch=1 n=g5 v=34
93858 On ch=1 n=d#6 v=0
93908 On ch=1 n=g5 v=0
93910 On ch=1 n=a#4 v=0
93920 On ch=1 n=d#6 v=51
93986 On ch=1 n=d#6 v=0
93998 On ch=1 n=d#7 v=59
94042 On ch=1 n=d#7 v=0
94054 Par ch=1 c=64 v=0
94146 On ch=1 n=e6 v=68
94148 On ch=1 n=g4 v=32
94184 On ch=1 n=e6 v=0
94214 On ch=1 n=g4 v=0
94236 On ch=1 n=e6 v=61
94270 Par ch=1 c=64 v=127
94292 On ch=1 n=e6 v=0
94326 On ch=1 n=e7 v=69
94368 On ch=1 n=e7 v=0
94460 On ch=1 n=d#6 v=78
94472 On ch=1 n=a#5 v=27
94496 On ch=1 n=d#6 v=0
94504 On ch=1 n=d#5 v=24
94538 On ch=1 n=a#5 v=0
94550 On ch=1 n=d#6 v=69
94568 On ch=1 n=d#5 v=0
94628 On ch=1 n=d#7 v=66
94631 On ch=1 n=d#6 v=0
94664 On ch=1 n=d#7 v=0
94744 On ch=1 n=a#5 v=43
94758 On ch=1 n=c#6 v=71
94768 On ch=1 n=d#5 v=49
94792 On ch=1 n=c#6 v=0
94802 On ch=1 n=a#5 v=0
94814 On ch=1 n=d#5 v=0
94854 On ch=1 n=c#6 v=52
94926 On ch=1 n=c#6 v=0
94928 On ch=1 n=c#7 v=69
94964 On ch=1 n=c#7 v=0
95040 Par ch=1 c=64 v=0
95076 On ch=1 n=b5 v=75
95096 On ch=1 n=g#4 v=36
95118 On ch=1 n=b5 v=0
95170 On ch=1 n=b5 v=87
95210 On ch=1 n=g#4 v=0
95213 On ch=1 n=b5 v=0
95252 Par ch=1 c=64 v=127
95258 On ch=1 n=b6 v=94
95294 On ch=1 n=b6 v=0
95380 On ch=1 n=b5 v=80
95392 On ch=1 n=g#5 v=36
95420 On ch=1 n=b5 v=0
95428 On ch=1 n=d#5 v=29
95450 On ch=1 n=g#5 v=0
95468 On ch=1 n=b5 v=88
95490 On ch=1 n=d#5 v=0
95540 On ch=1 n=b5 v=0
95560 On ch=1 n=b6 v=93
95596 On ch=1 n=b6 v=0
95670 On ch=1 n=g#5 v=54
95692 On ch=1 n=a#5 v=72
95716 On ch=1 n=g#5 v=0
95722 On ch=1 n=d#5 v=15
95730 On ch=1 n=a#5 v=0
95776 On ch=1 n=a#5 v=67
95780 On ch=1 n=d#5 v=0
95852 On ch=1 n=a#5 v=0
95860 On ch=1 n=a#6 v=66
95900 On ch=1 n=a#6 v=0
95944 Par ch=1 c=64 v=0
95972 On ch=1 n=b4 v=41
95994 On ch=1 n=g#5 v=70
96032 On ch=1 n=g#5 v=0
96064 On ch=1 n=b4 v=0
96074 On ch=1 n=g#5 v=75
96144 Par ch=1 c=64 v=127
96180 On ch=1 n=g#6 v=47
96182 On ch=1 n=g#5 v=0
96230 On ch=1 n=g#6 v=0
96298 On ch=1 n=f5 v=36
96301 On ch=1 n=g5 v=78
96306 On ch=1 n=d5 v=42
96342 On ch=1 n=g5 v=0
96352 On ch=1 n=f5 v=0
96360 On ch=1 n=d5 v=0
96396 On ch=1 n=g5 v=67
96444 On ch=1 n=g5 v=0
96494 On ch=1 n=g6 v=34
96562 On ch=1 n=g6 v=0
96574 On ch=1 n=f5 v=43
96580 On ch=1 n=d5 v=54
96622 On ch=1 n=f5 v=0
96628 On ch=1 n=d5 v=0
96674 On ch=1 n=g#5 v=74
96730 On ch=1 n=g#5 v=0
96782 On ch=1 n=g#6 v=56
96820 Par ch=1 c=64 v=0
96828 On ch=1 n=g#6 v=0
96894 On ch=1 n=a#5 v=70
96894 On ch=1 n=d#4 v=46
96934 On ch=1 n=a#5 v=0
96998 On ch=1 n=a#5 v=45
97034 On ch=1 n=d#4 v=0
97064 Par ch=1 c=64 v=127
97072 On ch=1 n=a#5 v=0
97086 On ch=1 n=a#6 v=52
97132 On ch=1 n=a#6 v=0
97188 On ch=1 n=a#4 v=48
97188 On ch=1 n=d#5 v=67
97191 On ch=1 n=g5 v=42
97228 On ch=1 n=d#5 v=0
97240 On ch=1 n=a#4 v=0
97262 On ch=1 n=g5 v=0
97316 On ch=1 n=d#5 v=50
97362 On ch=1 n=d#5 v=0
97442 On ch=1 n=d#6 v=34
97542 Par ch=1 c=64 v=0
97554 On ch=1 n=d#6 v=0
97602 On ch=1 n=d#6 v=86
97646 On ch=1 n=d#6 v=0
97680 Par ch=1 c=64 v=127
97708 On ch=1 n=d#7 v=49
97760 On ch=1 n=d#7 v=0
97816 On ch=1 n=d#7 v=80
97982 On ch=1 n=d#7 v=0
98014 On ch=1 n=d#8 v=75
98050 On ch=1 n=d#8 v=0
98156 On ch=1 n=d#7 v=73
98190 On ch=1 n=d#7 v=0
98256 On ch=1 n=d#7 v=45
98354 On ch=1 n=d#7 v=0
98370 On ch=1 n=d#8 v=63
98408 On ch=1 n=d#8 v=0
98510 On ch=1 n=c#7 v=73
98546 On ch=1 n=c#7 v=0
98622 On ch=1 n=c#7 v=39
98678 On ch=1 n=c#7 v=0
98716 On ch=1 n=c#8 v=52
98758 On ch=1 n=c#8 v=0
98848 Par ch=1 c=64 v=0
98876 On ch=1 n=g#3 v=37
98886 On ch=1 n=b6 v=89
98924 On ch=1 n=b6 v=0
98974 On ch=1 n=g#3 v=0
98986 On ch=1 n=b6 v=82
99048 Par ch=1 c=64 v=127
99064 On ch=1 n=b6 v=0
99144 On ch=1 n=b7 v=22
99210 On ch=1 n=b7 v=0
99272 On ch=1 n=b6 v=79
99274 On ch=1 n=b4 v=28
99276 On ch=1 n=d#4 v=17
99314 On ch=1 n=b6 v=0
99338 On ch=1 n=b4 v=0
99374 On ch=1 n=d#4 v=0
99412 On ch=1 n=b6 v=17
99446 On ch=1 n=b7 v=62
99456 On ch=1 n=b6 v=0
99488 On ch=1 n=b7 v=0
99580 On ch=1 n=a#6 v=66
99590 On ch=1 n=d#4 v=35
99596 On ch=1 n=b4 v=30
99620 On ch=1 n=a#6 v=0
99660 On ch=1 n=b4 v=0
99678 On ch=1 n=d#4 v=0
99680 On ch=1 n=a#6 v=51
99752 On ch=1 n=a#6 v=0
99768 On ch=1 n=a#7 v=55
99810 On ch=1 n=a#7 v=0
99846 Par ch=1 c=64 v=0
99910 On ch=1 n=b3 v=38
99913 On ch=1 n=g#6 v=68
99950 On ch=1 n=g#6 v=0
99996 On ch=1 n=g#6 v=76
100004 On ch=1 n=b3 v=0
100046 Par ch=1 c=64 v=127
100060 On ch=1 n=g#6 v=0
100096 On ch=1 n=g#7 v=55
100142 On ch=1 n=g#7 v=0
100222 On ch=1 n=d#5 v=41
100234 On ch=1 n=g6 v=84
100242 On ch=1 n=g#4 v=29
100272 On ch=1 n=g6 v=0
100282 On ch=1 n=d#5 v=0
100314 On ch=1 n=g#4 v=0
100318 On ch=1 n=g6 v=88
100382 On ch=1 n=g6 v=0
100418 On ch=1 n=g7 v=61
100464 On ch=1 n=g7 v=0
100522 On ch=1 n=d#5 v=52
100525 On ch=1 n=g#6 v=80
100546 On ch=1 n=g#4 v=34
100564 On ch=1 n=g#6 v=0
100580 On ch=1 n=d#5 v=0
100608 On ch=1 n=g#4 v=0
100616 On ch=1 n=g#6 v=76
100720 On ch=1 n=g#6 v=0
100726 On ch=1 n=g#7 v=54
100754 Par ch=1 c=64 v=0
100774 On ch=1 n=g#7 v=0
100828 On ch=1 n=d#4 v=47
100842 On ch=1 n=a#6 v=70
100878 On ch=1 n=a#6 v=0
100888 On ch=1 n=d#4 v=0
100938 On ch=1 n=a#6 v=53
100952 Par ch=1 c=64 v=127
101014 On ch=1 n=a#6 v=0
101024 On ch=1 n=a#7 v=58
101064 On ch=1 n=a#7 v=0
101178 On ch=1 n=g5 v=38
101188 On ch=1 n=a#4 v=25
101196 On ch=1 n=d#6 v=68
101234 On ch=1 n=d#6 v=0
101246 On ch=1 n=g5 v=0
101260 On ch=1 n=a#4 v=0
101288 On ch=1 n=d#6 v=60
101354 On ch=1 n=d#6 v=0
101386 On ch=1 n=d#7 v=58
101430 On ch=1 n=d#7 v=0
101516 On ch=1 n=d#6 v=70
101518 On ch=1 n=a#5 v=48
101536 On ch=1 n=g5 v=41
101556 On ch=1 n=d#6 v=0
101596 On ch=1 n=a#5 v=0
101612 On ch=1 n=d#6 v=62
101624 On ch=1 n=g5 v=0
101702 On ch=1 n=d#6 v=0
101710 On ch=1 n=d#7 v=57
101752 On ch=1 n=d#7 v=0
101828 Par ch=1 c=64 v=0
101836 On ch=1 n=g#5 v=44
101838 On ch=1 n=b5 v=55
101856 On ch=1 n=e6 v=67
101898 On ch=1 n=e6 v=0
101954 On ch=1 n=e6 v=63
102026 On ch=1 n=e6 v=0
102034 Par ch=1 c=64 v=127
102042 On ch=1 n=b5 v=0
102056 On ch=1 n=g#5 v=0
102058 On ch=1 n=e7 v=66
102098 On ch=1 n=e7 v=0
102202 On ch=1 n=d#6 v=67
102222 On ch=1 n=a#5 v=52
102240 On ch=1 n=d#6 v=0
102240 On ch=1 n=f#5 v=52
102292 On ch=1 n=d#6 v=62
102356 On ch=1 n=d#6 v=0
102386 On ch=1 n=a#5 v=0
102386 On ch=1 n=d#7 v=62
102424 On ch=1 n=d#7 v=0
102458 On ch=1 n=f#5 v=0
102528 On ch=1 n=c#6 v=67
102536 On ch=1 n=g#5 v=46
102556 On ch=1 n=e5 v=49
102566 On ch=1 n=c#6 v=0
102612 On ch=1 n=c#6 v=72
102636 On ch=1 n=g#5 v=0
102642 On ch=1 n=e5 v=0
102666 On ch=1 n=c#6 v=0
102708 On ch=1 n=c#7 v=58
102752 On ch=1 n=c#7 v=0
102766 Par ch=1 c=64 v=0
102824 On ch=1 n=b5 v=61
102832 On ch=1 n=d#5 v=47
102832 On ch=1 n=g#5 v=42
102864 On ch=1 n=d#6 v=66
102904 On ch=1 n=d#6 v=0
102962 On ch=1 n=d#6 v=60
102980 Par ch=1 c=64 v=127
103028 On ch=1 n=d#6 v=0
103064 On ch=1 n=d#7 v=54
103067 On ch=1 n=b5 v=0
103088 On ch=1 n=g#5 v=0
103110 On ch=1 n=d#7 v=0
103134 On ch=1 n=d#5 v=0
103210 On ch=1 n=e6 v=63
103252 On ch=1 n=e6 v=0
103324 On ch=1 n=e6 v=40
103386 On ch=1 n=e6 v=0
103408 On ch=1 n=d#7 v=56
103452 On ch=1 n=d#7 v=0
103526 On ch=1 n=f6 v=79
103560 On ch=1 n=f6 v=0
103614 On ch=1 n=f6 v=71
103664 On ch=1 n=f6 v=0
103696 On ch=1 n=d#7 v=59
103742 On ch=1 n=d#7 v=0
103750 Par ch=1 c=64 v=0
103802 On ch=1 n=f#6 v=82
103838 On ch=1 n=f#6 v=0
103888 On ch=1 n=f#6 v=78
103948 Par ch=1 c=64 v=127
103986 On ch=1 n=d#7 v=47
103988 On ch=1 n=f#6 v=0
104038 On ch=1 n=d#7 v=0
104088 Par ch=1 c=64 v=0
104088 On ch=1 n=g6 v=82
104128 On ch=1 n=g6 v=0
104186 On ch=1 n=g6 v=75
104226 Par ch=1 c=64 v=127
104229 On ch=1 n=g6 v=0
104274 On ch=1 n=d#7 v=61
104302 Par ch=1 c=64 v=0
104316 On ch=1 n=d#7 v=0
104356 On ch=1 n=g#6 v=79
104394 On ch=1 n=g#6 v=0
104444 On ch=1 n=g#6 v=74
104456 Par ch=1 c=64 v=127
104528 On ch=1 n=g#6 v=0
104531 Par ch=1 c=64 v=0
104552 On ch=1 n=d#7 v=36
104612 On ch=1 n=d#7 v=0
104632 On ch=1 n=a6 v=77
104668 On ch=1 n=d#4 v=30
104672 On ch=1 n=a6 v=0
104730 On ch=1 n=a6 v=67
104733 Par ch=1 c=64 v=127
104742 On ch=1 n=d#4 v=0
104778 On ch=1 n=a6 v=0
104778 On ch=1 n=c#5 v=24
104826 On ch=1 n=d#7 v=60
104870 On ch=1 n=d#7 v=0
104870 On ch=1 n=c#5 v=0
104928 On ch=1 n=g5 v=27
104928 On ch=1 n=a#6 v=57
104974 On ch=1 n=a#6 v=0
105028 On ch=1 n=a#6 v=60
105036 On ch=1 n=g5 v=0
105074 On ch=1 n=a#6 v=0
105142 On ch=1 n=d#7 v=35
105200 On ch=1 n=d#7 v=0
105232 On ch=1 n=b6 v=87
105270 On ch=1 n=b6 v=0
105326 On ch=1 n=b6 v=92
105394 On ch=1 n=b6 v=0
105446 On ch=1 n=d#7 v=49
105506 On ch=1 n=d#7 v=0
105516 Par ch=1 c=64 v=0
105560 On ch=1 n=c7 v=68
105602 On ch=1 n=c7 v=0
105686 On ch=1 n=c7 v=25
105724 Par ch=1 c=64 v=127
105750 On ch=1 n=c7 v=0
105758 On ch=1 n=d#7 v=51
105792 Par ch=1 c=64 v=0
105804 On ch=1 n=d#7 v=0
105848 On ch=1 n=c#7 v=53
105894 On ch=1 n=c#7 v=0
105958 On ch=1 n=c#7 v=48
105992 Par ch=1 c=64 v=127
106010 On ch=1 n=c#7 v=0
106050 On ch=1 n=d#7 v=50
106104 On ch=1 n=d#7 v=0
106152 On ch=1 n=d7 v=52
106210 On ch=1 n=d7 v=0
106280 On ch=1 n=d7 v=30
106346 On ch=1 n=d#7 v=64
106349 On ch=1 n=d7 v=0
106376 Par ch=1 c=64 v=0
106386 On ch=1 n=d#7 v=0
106430 On ch=1 n=g#3 v=39
106460 On ch=1 n=d#7 v=43
106502 On ch=1 n=g#3 v=0
106506 On ch=1 n=d#7 v=0
106534 On ch=1 n=d#4 v=26
106558 On ch=1 n=d#7 v=66
106562 Par ch=1 c=64 v=127
106606 On ch=1 n=d#7 v=0
106624 On ch=1 n=d#4 v=0
106650 On ch=1 n=b4 v=38
106670 On ch=1 n=d#8 v=46
106702 On ch=1 n=b4 v=0
106716 On ch=1 n=d#8 v=0
106802 On ch=1 n=e7 v=60
106846 On ch=1 n=e7 v=0
106874 On ch=1 n=g#5 v=25
106910 On ch=1 n=e7 v=40
106978 On ch=1 n=e7 v=0
107016 On ch=1 n=d#8 v=49
107062 On ch=1 n=d#8 v=0
107152 On ch=1 n=f7 v=45
107216 On ch=1 n=f7 v=0
107352 On ch=1 n=d#8 v=42
107402 On ch=1 n=d#8 v=0
107446 On ch=1 n=f#7 v=65
107490 On ch=1 n=f#7 v=0
107560 On ch=1 n=f#7 v=44
107636 On ch=1 n=f#7 v=0
107682 On ch=1 n=d#8 v=39
107736 On ch=1 n=d#8 v=0
107790 On ch=1 n=g7 v=54
107842 On ch=1 n=g7 v=0
107898 On ch=1 n=g7 v=63
107952 On ch=1 n=g7 v=0
108156 On ch=1 n=g#7 v=53
108206 On ch=1 n=g#7 v=0
108290 On ch=1 n=g#7 v=27
108366 On ch=1 n=g#7 v=0
108516 On ch=1 n=d#8 v=26
108574 On ch=1 n=d#8 v=0
108908 On ch=1 n=g#5 v=0
109342 Par ch=1 c=64 v=0
109864 On ch=1 n=b5 v=58
109870 On ch=1 n=g#5 v=41
110074 On ch=1 n=g#5 v=0
110078 On ch=1 n=b5 v=0
110100 On ch=1 n=a#5 v=52
110120 On ch=1 n=g5 v=56
110184 On ch=1 n=g5 v=0
110194 On ch=1 n=a#5 v=0
110328 On ch=1 n=a5 v=57
110328 On ch=1 n=b5 v=74
110336 On ch=1 n=f#5 v=56
110386 On ch=1 n=f#5 v=0
110386 On ch=1 n=a5 v=0
110392 On ch=1 n=b5 v=0
110528 On ch=1 n=g#5 v=58
110534 On ch=1 n=b5 v=72
110538 On ch=1 n=f5 v=62
110582 On ch=1 n=f5 v=0
110586 On ch=1 n=b5 v=0
110590 On ch=1 n=g#5 v=0
110692 On ch=1 n=b5 v=74
110695 On ch=1 n=g5 v=70
110705 On ch=1 n=e5 v=71
110743 On ch=1 n=g5 v=0
110747 On ch=1 n=e5 v=0
110759 On ch=1 n=b5 v=0
110857 On ch=1 n=b5 v=62
110861 On ch=1 n=f#5 v=61
110861 On ch=1 n=d#5 v=73
110899 On ch=1 n=d#5 v=0
110909 On ch=1 n=f#5 v=0
110929 On ch=1 n=b5 v=0
111047 On ch=1 n=f5 v=45
111049 On ch=1 n=d5 v=53
111053 On ch=1 n=b5 v=51
111097 On ch=1 n=d5 v=0
111103 On ch=1 n=f5 v=0
111111 On ch=1 n=b5 v=0
111257 On ch=1 n=c#5 v=44
111257 On ch=1 n=b5 v=36
111275 On ch=1 n=e5 v=30
111313 On ch=1 n=c#5 v=0
111317 On ch=1 n=b5 v=0
111337 On ch=1 n=e5 v=0
111465 On ch=1 n=c#6 v=62
111561 On ch=1 n=b5 v=69
111589 On ch=1 n=c#6 v=0
111631 On ch=1 n=b5 v=0
111643 On ch=1 n=a#5 v=59
111735 On ch=1 n=a#5 v=0
111765 On ch=1 n=b5 v=54
111823 On ch=1 n=b5 v=0
111879 On ch=1 n=d#5 v=41
111879 On ch=1 n=f#5 v=49
111905 Par ch=1 c=64 v=127
111907 On ch=1 n=b4 v=17
111929 On ch=1 n=f#5 v=0
111949 On ch=1 n=d#5 v=0
111977 On ch=1 n=b4 v=0
112009 On ch=1 n=f#6 v=62
112063 On ch=1 n=f#6 v=0
112105 On ch=1 n=f#6 v=60
112141 On ch=1 n=f#6 v=0
112205 On ch=1 n=f#6 v=55
112271 On ch=1 n=f#6 v=0
112295 On ch=1 n=f#5 v=33
112313 On ch=1 n=f#4 v=30
112315 On ch=1 n=b5 v=60
112327 On ch=1 n=d#5 v=33
112365 On ch=1 n=b5 v=0
112389 On ch=1 n=d#5 v=0
112389 On ch=1 n=f#4 v=0
112392 On ch=1 n=f#5 v=0
112402 On ch=1 n=b6 v=91
112440 On ch=1 n=b6 v=0
112488 On ch=1 n=b6 v=103
112534 On ch=1 n=b6 v=0
112594 On ch=1 n=b6 v=103
112630 On ch=1 n=b6 v=0
112746 On ch=1 n=c#6 v=76
112762 Par ch=1 c=64 v=0
112802 On ch=1 n=c#6 v=0
112860 On ch=1 n=c#7 v=63
112902 On ch=1 n=c#7 v=0
112946 On ch=1 n=c#7 v=85
112978 Par ch=1 c=64 v=127
112994 On ch=1 n=c#7 v=0
113062 On ch=1 n=c#7 v=64
113114 On ch=1 n=c#7 v=0
113162 On ch=1 n=f#6 v=73
113192 On ch=1 n=a#4 v=26
113202 On ch=1 n=e5 v=36
113210 On ch=1 n=f#6 v=0
113264 On ch=1 n=e5 v=0
113274 On ch=1 n=a#4 v=0
113286 On ch=1 n=f#7 v=62
113332 On ch=1 n=f#7 v=0
113380 On ch=1 n=f#7 v=78
113418 On ch=1 n=f#7 v=0
113474 On ch=1 n=f#7 v=64
113546 On ch=1 n=f#7 v=0
113558 On ch=1 n=f#5 v=41
113580 On ch=1 n=a#4 v=31
113588 On ch=1 n=c#7 v=75
113590 On ch=1 n=f#4 v=31
113616 On ch=1 n=f#5 v=0
113646 On ch=1 n=a#4 v=0
113654 On ch=1 n=f#4 v=0
113694 On ch=1 n=c#7 v=0
113696 On ch=1 n=f#7 v=38
113700 On ch=1 n=c#8 v=64
113738 On ch=1 n=c#8 v=0
113767 On ch=1 n=f#7 v=0
113813 On ch=1 n=f#7 v=38
113814 On ch=1 n=c#8 v=38
113854 Par ch=1 c=64 v=0
113954 On ch=1 n=f#7 v=0
113978 On ch=1 n=d#7 v=55
113980 On ch=1 n=c#8 v=0
113986 On ch=1 n=b3 v=35
114036 On ch=1 n=d#7 v=0
114084 Par ch=1 c=64 v=127
114124 On ch=1 n=f#7 v=40
114140 On ch=1 n=d#8 v=36
114162 On ch=1 n=b3 v=0
114184 On ch=1 n=f#7 v=0
114196 On ch=1 n=d#8 v=0
114260 On ch=1 n=f#7 v=33
114268 On ch=1 n=d#8 v=55
114320 On ch=1 n=d#8 v=0
114328 On ch=1 n=f#7 v=0
114548 On ch=1 n=b6 v=76
114554 On ch=1 n=d#5 v=23
114562 On ch=1 n=f#4 v=25
114618 On ch=1 n=b6 v=0
114650 On ch=1 n=f#4 v=0
114670 On ch=1 n=d#5 v=0
115082 Par ch=1 c=64 v=0
115248 On ch=1 n=d#6 v=83
115262 On ch=1 n=b5 v=71
115482 Par ch=1 c=64 v=127
115486 On ch=1 n=d6 v=88
115516 On ch=1 n=b5 v=0
115526 On ch=1 n=d#6 v=0
115580 On ch=1 n=d6 v=0
115694 On ch=1 n=a#5 v=64
115696 On ch=1 n=c#6 v=75
115702 On ch=1 n=d#6 v=78
115712 Par ch=1 c=64 v=0
115748 On ch=1 n=a#5 v=0
115772 On ch=1 n=d#6 v=0
115772 On ch=1 n=c#6 v=0
115876 On ch=1 n=d#6 v=67
115882 On ch=1 n=c6 v=76
115888 On ch=1 n=a5 v=66
115952 On ch=1 n=a5 v=0
115955 On ch=1 n=c6 v=0
115982 On ch=1 n=d#6 v=0
116054 On ch=1 n=d#6 v=68
116066 On ch=1 n=g#5 v=66
116076 On ch=1 n=b5 v=63
116108 On ch=1 n=g#5 v=0
116126 On ch=1 n=b5 v=0
116164 On ch=1 n=d#6 v=0
116234 On ch=1 n=d#6 v=65
116244 On ch=1 n=a#5 v=56
116260 On ch=1 n=g5 v=60
116298 On ch=1 n=a#5 v=0
116312 On ch=1 n=g5 v=0
116350 On ch=1 n=d#6 v=0
116420 On ch=1 n=d#6 v=64
116438 On ch=1 n=a5 v=35
116444 On ch=1 n=f#5 v=39
116480 On ch=1 n=d#6 v=0
116502 On ch=1 n=f#5 v=0
116504 On ch=1 n=a5 v=0
116656 On ch=1 n=d#6 v=54
116670 On ch=1 n=g#5 v=36
116673 On ch=1 n=f5 v=18
116706 On ch=1 n=d#6 v=0
116726 On ch=1 n=g#5 v=0
116736 On ch=1 n=f5 v=0
116882 On ch=1 n=f6 v=66
116976 On ch=1 n=d#6 v=64
116988 On ch=1 n=f6 v=0
117068 On ch=1 n=d#6 v=0
117071 On ch=1 n=d6 v=63
117124 On ch=1 n=d6 v=0
117156 On ch=1 n=d#6 v=59
117200 On ch=1 n=d#6 v=0
117268 On ch=1 n=a#5 v=56
117296 On ch=1 n=d#5 v=32
117314 On ch=1 n=a#5 v=0
117326 Par ch=1 c=64 v=127
117326 On ch=1 n=f#5 v=12
117382 On ch=1 n=d#5 v=0
117385 On ch=1 n=a#6 v=42
117402 On ch=1 n=f#5 v=0
117443 On ch=1 n=a#6 v=0
117480 On ch=1 n=a#6 v=37
117526 On ch=1 n=a#6 v=0
117576 On ch=1 n=a#6 v=71
117628 On ch=1 n=a#6 v=0
117660 On ch=1 n=a#5 v=33
117674 On ch=1 n=a#4 v=19
117688 On ch=1 n=f#5 v=23
117696 On ch=1 n=d#6 v=55
117726 On ch=1 n=a#5 v=0
117742 On ch=1 n=d#6 v=0
117752 On ch=1 n=a#4 v=0
117772 On ch=1 n=f#5 v=0
117798 On ch=1 n=d#7 v=49
117846 On ch=1 n=d#7 v=0
117864 Par ch=1 c=64 v=0
117894 On ch=1 n=d#7 v=82
117930 On ch=1 n=d#7 v=0
117986 On ch=1 n=d#7 v=58
118038 On ch=1 n=d#7 v=0
118106 On ch=1 n=f6 v=67
118152 On ch=1 n=f6 v=0
118222 On ch=1 n=f7 v=69
118262 Par ch=1 c=64 v=127
118264 On ch=1 n=f7 v=0
118314 On ch=1 n=f7 v=57
118364 On ch=1 n=f7 v=0
118414 On ch=1 n=f7 v=85
118458 On ch=1 n=f7 v=0
118526 On ch=1 n=g#5 v=28
118536 On ch=1 n=a#6 v=66
118539 On ch=1 n=d5 v=24
118586 On ch=1 n=a#6 v=0
118594 On ch=1 n=g#5 v=0
118602 On ch=1 n=d5 v=0
118644 On ch=1 n=a#7 v=59
118690 On ch=1 n=a#7 v=0
118738 On ch=1 n=a#7 v=76
118794 On ch=1 n=a#7 v=0
118852 On ch=1 n=a#7 v=64
118898 On ch=1 n=a#7 v=0
118922 On ch=1 n=a#5 v=25
118956 On ch=1 n=a#4 v=21
118956 On ch=1 n=d5 v=30
118974 On ch=1 n=f7 v=55
119030 On ch=1 n=f7 v=0
119036 On ch=1 n=d5 v=0
119040 On ch=1 n=a#5 v=0
119070 On ch=1 n=f8 v=67
119077 On ch=1 n=a#7 v=29
119112 On ch=1 n=f8 v=0
119130 On ch=1 n=a#4 v=0
119152 On ch=1 n=a#7 v=0
119198 On ch=1 n=a#7 v=29
119200 On ch=1 n=f8 v=24
119278 Par ch=1 c=64 v=0
119326 On ch=1 n=d#4 v=44
119328 On ch=1 n=f8 v=0
119333 On ch=1 n=a#7 v=0
119362 On ch=1 n=f#7 v=56
119494 On ch=1 n=f#8 v=48
119502 On ch=1 n=a#7 v=35
119524 Par ch=1 c=64 v=127
119527 On ch=1 n=f#7 v=0
119546 On ch=1 n=f#8 v=0
119562 On ch=1 n=a#7 v=0
119592 On ch=1 n=d#4 v=0
119648 On ch=1 n=a#7 v=24
119662 On ch=1 n=f#8 v=17
119754 On ch=1 n=f#8 v=0
119774 On ch=1 n=a#4 v=19
119778 On ch=1 n=a#7 v=0
119874 On ch=1 n=d#7 v=40
119874 On ch=1 n=f#5 v=22
119877 On ch=1 n=a#4 v=0
119946 On ch=1 n=f#5 v=0
119962 On ch=1 n=d#7 v=0
120392 On ch=1 n=f#6 v=57
120402 On ch=1 n=d#6 v=46
120506 Par ch=1 c=64 v=0
120578 On ch=1 n=d#6 v=0
120602 On ch=1 n=f6 v=72
120608 On ch=1 n=f#6 v=0
120622 On ch=1 n=d6 v=62
120686 On ch=1 n=d6 v=0
120715 On ch=1 n=f6 v=0
120784 On ch=1 n=f#6 v=79
120788 On ch=1 n=e6 v=64
120800 On ch=1 n=c#6 v=63
120848 On ch=1 n=f#6 v=0
120852 On ch=1 n=c#6 v=0
120858 On ch=1 n=e6 v=0
120962 On ch=1 n=d#6 v=77
120965 On ch=1 n=f#6 v=74
120970 On ch=1 n=c6 v=76
121016 On ch=1 n=c6 v=0
121042 On ch=1 n=d#6 v=0
121048 On ch=1 n=f#6 v=0
121144 On ch=1 n=d6 v=74
121146 On ch=1 n=f#6 v=71
121150 On ch=1 n=b5 v=89
121196 On ch=1 n=b5 v=0
121210 On ch=1 n=d6 v=0
121228 On ch=1 n=f#6 v=0
121322 On ch=1 n=c#6 v=75
121328 On ch=1 n=f#6 v=55
121330 On ch=1 n=a#5 v=67
121376 On ch=1 n=a#5 v=0
121388 On ch=1 n=c#6 v=0
121392 On ch=1 n=f#6 v=0
121518 On ch=1 n=f#6 v=67
121520 On ch=1 n=c6 v=61
121529 On ch=1 n=a5 v=36
121570 On ch=1 n=f#6 v=0
121572 On ch=1 n=c6 v=0
121596 On ch=1 n=a5 v=0
121726 On ch=1 n=g#5 v=39
121726 On ch=1 n=f#6 v=61
121729 On ch=1 n=b5 v=66
121774 On ch=1 n=f#6 v=0
121778 On ch=1 n=b5 v=0
121788 On ch=1 n=g#5 v=0
121950 On ch=1 n=g#6 v=80
122034 On ch=1 n=f#6 v=68
122056 On ch=1 n=g#6 v=0
122128 On ch=1 n=f6 v=70
122152 On ch=1 n=f#6 v=0
122184 On ch=1 n=f6 v=0
122230 On ch=1 n=f#6 v=50
122276 On ch=1 n=f#6 v=0
122312 On ch=1 n=c#6 v=55
122322 On ch=1 n=a#5 v=30
122350 On ch=1 n=f#5 v=21
122358 On ch=1 n=c#6 v=0
122396 Par ch=1 c=64 v=127
122401 On ch=1 n=a#5 v=0
122424 On ch=1 n=f#5 v=0
122424 On ch=1 n=c#7 v=62
122470 On ch=1 n=c#7 v=0
122510 On ch=1 n=c#7 v=45
122552 On ch=1 n=c#7 v=0
122602 On ch=1 n=c#7 v=75
122654 On ch=1 n=c#7 v=0
122692 On ch=1 n=c#6 v=33
122706 On ch=1 n=a#5 v=30
122709 On ch=1 n=f#6 v=67
122730 On ch=1 n=c#5 v=14
122754 On ch=1 n=f#6 v=0
122758 On ch=1 n=c#6 v=0
122778 On ch=1 n=a#5 v=0
122818 On ch=1 n=c#5 v=0
122822 On ch=1 n=f#7 v=60
122868 On ch=1 n=f#7 v=0
122904 Par ch=1 c=64 v=0
122906 On ch=1 n=f#7 v=64
122948 On ch=1 n=f#7 v=0
122996 On ch=1 n=f#7 v=74
123046 On ch=1 n=f#7 v=0
123102 On ch=1 n=g#6 v=79
123148 On ch=1 n=g#6 v=0
123206 On ch=1 n=g#7 v=66
123250 On ch=1 n=g#7 v=0
123272 Par ch=1 c=64 v=127
123296 On ch=1 n=g#7 v=66
123338 On ch=1 n=g#7 v=0
123390 On ch=1 n=g#7 v=66
123452 On ch=1 n=g#7 v=0
123504 On ch=1 n=c#7 v=64
123518 On ch=1 n=b5 v=35
123552 On ch=1 n=c#7 v=0
123596 On ch=1 n=b5 v=0
123656 On ch=1 n=g#7 v=38
123658 On ch=1 n=c#8 v=37
123710 On ch=1 n=c#8 v=0
123720 On ch=1 n=g#7 v=0
123786 On ch=1 n=c#8 v=44
123786 On ch=1 n=g#7 v=48
123836 On ch=1 n=g#7 v=0
123842 On ch=1 n=c#8 v=0
123916 On ch=1 n=c#6 v=26
123922 On ch=1 n=c#8 v=50
123926 On ch=1 n=g#7 v=36
123944 On ch=1 n=f5 v=26
123956 On ch=1 n=c#5 v=22
123976 On ch=1 n=g#7 v=0
123994 On ch=1 n=c#8 v=0
124002 On ch=1 n=f5 v=0
124008 On ch=1 n=c#6 v=0
124028 On ch=1 n=c#5 v=0
124064 On ch=1 n=g#7 v=42
124064 On ch=1 n=c#8 v=53
124112 On ch=1 n=g#7 v=0
124114 On ch=1 n=c#8 v=0
124186 On ch=1 n=c#8 v=54
124196 On ch=1 n=g#7 v=37
124224 Par ch=1 c=64 v=0
124244 On ch=1 n=g#7 v=0
124264 On ch=1 n=c#8 v=0
124314 On ch=1 n=f#5 v=38
124334 On ch=1 n=a#7 v=59
124338 On ch=1 n=c#8 v=54
124372 On ch=1 n=f#5 v=0
124400 On ch=1 n=a#7 v=0
124430 On ch=1 n=c#8 v=0
124440 On ch=1 n=d#8 v=60
124440 Par ch=1 c=64 v=127
124488 On ch=1 n=d#8 v=0
124520 On ch=1 n=c#8 v=48
124548 On ch=1 n=a7 v=19
124576 On ch=1 n=c#8 v=0
124610 On ch=1 n=a7 v=0
124632 On ch=1 n=d#8 v=32
124688 On ch=1 n=c#8 v=55
124690 On ch=1 n=f#6 v=44
124692 On ch=1 n=d#8 v=0
124694 On ch=1 n=a#6 v=40
124702 On ch=1 n=g#7 v=48
124734 On ch=1 n=c#8 v=0
124748 On ch=1 n=f#6 v=0
124750 On ch=1 n=a#6 v=0
124760 On ch=1 n=d#8 v=55
124763 On ch=1 n=g#7 v=0
124810 Par ch=1 c=64 v=0
124828 On ch=1 n=d#8 v=0
124856 On ch=1 n=c#8 v=53
124860 On ch=1 n=g#6 v=28
124880 On ch=1 n=g7 v=32
124914 On ch=1 n=c#8 v=0
124932 On ch=1 n=g#6 v=0
124946 On ch=1 n=d#8 v=53
124952 On ch=1 n=g7 v=0
125010 On ch=1 n=d#8 v=0
125026 On ch=1 n=f#7 v=60
125030 On ch=1 n=c#7 v=53
125032 On ch=1 n=c#8 v=50
125048 On ch=1 n=a#6 v=31
125054 Par ch=1 c=64 v=127
125074 On ch=1 n=c#7 v=0
125082 On ch=1 n=c#8 v=0
125114 On ch=1 n=d#8 v=50
125117 On ch=1 n=a#6 v=0
125178 On ch=1 n=d#8 v=0
125182 On ch=1 n=c#8 v=42
125254 On ch=1 n=c#8 v=0
125274 On ch=1 n=d#8 v=47
125286 Par ch=1 c=64 v=0
125328 On ch=1 n=d#8 v=0
125328 On ch=1 n=f#7 v=0
125374 On ch=1 n=g#7 v=62
125386 On ch=1 n=b7 v=56
125422 On ch=1 n=b4 v=22
125436 On ch=1 n=g#7 v=0
125439 On ch=1 n=b7 v=0
125470 Par ch=1 c=64 v=127
125484 On ch=1 n=b4 v=0
125490 On ch=1 n=c#8 v=40
125544 On ch=1 n=c#8 v=0
125544 On ch=1 n=g7 v=56
125566 On ch=1 n=b7 v=34
125606 On ch=1 n=g7 v=0
125636 On ch=1 n=b7 v=0
125646 On ch=1 n=c#8 v=30
125700 Par ch=1 c=64 v=0
125708 On ch=1 n=b7 v=53
125720 On ch=1 n=f#7 v=54
125726 On ch=1 n=c#8 v=0
125728 On ch=1 n=g#6 v=52
125752 On ch=1 n=b5 v=26
125774 On ch=1 n=f#7 v=0
125776 On ch=1 n=b7 v=0
125778 On ch=1 n=g#6 v=0
125800 On ch=1 n=c#8 v=50
125830 On ch=1 n=b5 v=0
125882 On ch=1 n=a#6 v=51
125886 On ch=1 n=f7 v=57
125888 On ch=1 n=b7 v=47
125896 On ch=1 n=c#6 v=41
125910 On ch=1 n=c#8 v=0
125936 On ch=1 n=a#6 v=0
125942 On ch=1 n=f7 v=0
125948 On ch=1 n=b7 v=0
125952 On ch=1 n=c#6 v=0
125970 On ch=1 n=c#8 v=66
126066 On ch=1 n=b7 v=50
126069 On ch=1 n=d#7 v=57
126078 On ch=1 n=c#8 v=0
126081 On ch=1 n=b6 v=67
126090 On ch=1 n=d#6 v=37
126128 On ch=1 n=b6 v=0
126138 On ch=1 n=b7 v=0
126148 On ch=1 n=d#7 v=0
126148 On ch=1 n=d#6 v=0
126154 On ch=1 n=c#8 v=44
126192 Par ch=1 c=64 v=127
126216 On ch=1 n=b7 v=55
126222 On ch=1 n=c#8 v=0
126294 On ch=1 n=c#8 v=57
126314 Par ch=1 c=64 v=0
126338 On ch=1 n=b7 v=0
126362 On ch=1 n=c#8 v=0
126400 On ch=1 n=f#7 v=61
126408 On ch=1 n=a#7 v=50
126414 On ch=1 n=c#5 v=49
126450 On ch=1 n=f#7 v=0
126458 On ch=1 n=a#7 v=0
126466 On ch=1 n=c#5 v=0
126494 On ch=1 n=b7 v=70
126500 Par ch=1 c=64 v=127
126558 On ch=1 n=b7 v=0
126580 On ch=1 n=f7 v=22
126600 On ch=1 n=a#7 v=36
126644 On ch=1 n=f7 v=0
126652 On ch=1 n=b7 v=51
126656 On ch=1 n=a#7 v=0
126698 Par ch=1 c=64 v=0
126720 On ch=1 n=a#7 v=55
126723 On ch=1 n=b7 v=0
126726 On ch=1 n=d#7 v=57
126726 On ch=1 n=a#5 v=31
126752 On ch=1 n=f#6 v=21
126784 On ch=1 n=d#7 v=0
126794 On ch=1 n=a#5 v=0
126814 On ch=1 n=a#7 v=0
126817 On ch=1 n=f#6 v=0
126836 On ch=1 n=b7 v=39
126878 On ch=1 n=g#6 v=46
126892 On ch=1 n=a#7 v=48
126894 On ch=1 n=d7 v=67
126894 On ch=1 n=b5 v=36
126900 On ch=1 n=b7 v=0
126928 On ch=1 n=g#6 v=0
126942 On ch=1 n=d7 v=0
126962 On ch=1 n=b5 v=0
126984 On ch=1 n=b7 v=43
127004 On ch=1 n=a#7 v=0
127058 On ch=1 n=c#7 v=69
127058 On ch=1 n=a#6 v=60
127068 On ch=1 n=a#7 v=59
127088 On ch=1 n=b7 v=0
127088 On ch=1 n=c#6 v=42
127110 On ch=1 n=a#6 v=0
127124 On ch=1 n=a#7 v=0
127134 On ch=1 n=c#7 v=0
127144 On ch=1 n=c#6 v=0
127156 On ch=1 n=b7 v=63
127174 Par ch=1 c=64 v=127
127248 On ch=1 n=b7 v=0
127250 On ch=1 n=a#7 v=42
127318 On ch=1 n=b7 v=50
127330 On ch=1 n=a#7 v=0
127344 Par ch=1 c=64 v=0
127366 On ch=1 n=b7 v=0
127414 On ch=1 n=f7 v=49
127424 On ch=1 n=g#7 v=41
127424 On ch=1 n=c#5 v=49
127472 On ch=1 n=f7 v=0
127478 On ch=1 n=c#5 v=0
127480 On ch=1 n=g#7 v=0
127510 On ch=1 n=a#7 v=43
127544 Par ch=1 c=64 v=127
127544 On ch=1 n=d#7 v=44
127556 On ch=1 n=g#7 v=39
127564 On ch=1 n=a#7 v=0
127636 On ch=1 n=g#7 v=0
127638 On ch=1 n=d#7 v=0
127640 On ch=1 n=a#7 v=38
127726 On ch=1 n=a#7 v=0
127728 Par ch=1 c=64 v=0
127742 On ch=1 n=g#7 v=40
127745 On ch=1 n=d7 v=30
127748 On ch=1 n=g#5 v=45
127774 On ch=1 n=f6 v=12
127802 On ch=1 n=g#7 v=0
127802 On ch=1 n=a#7 v=48
127810 On ch=1 n=g#5 v=0
127818 On ch=1 n=d7 v=0
127828 On ch=1 n=f6 v=0
127882 On ch=1 n=a#7 v=0
127884 On ch=1 n=g#7 v=49
127902 On ch=1 n=c#7 v=44
127905 On ch=1 n=f#6 v=47
127942 On ch=1 n=a#5 v=10
128034 On ch=1 n=c0 v=8
128112 On ch=1 n=c0 v=6
128197 On ch=1 n=c0 v=28
128291 On ch=1 n=b3 v=50
128361 On ch=1 n=c0 v=38
128453 On ch=1 n=g#4 v=3
128533 On ch=1 n=d4 v=19
128627 On ch=1 n=c0 v=18
128710 On ch=1 n=a#4 v=8
128802 On ch=1 n=c0 v=8
128873 On ch=1 n=f1 v=34
128953 On ch=1 n=c0 v=3
135161 On ch=1 n=g10 v=23
137296 On ch=1 n=g#3 v=26
137367 On ch=1 n=c0 v=0
137450 On ch=1 n=c0 v=38
137537 On ch=1 n=c0 v=3
143745 On ch=1 n=c0 v=17
145881 On ch=1 n=f#3 v=48
145947 On ch=1 n=a2 v=5
146035 On ch=1 n=c0 v=17
146124 On ch=1 n=a#3 v=38
146190 On ch=1 n=c0 v=26
146279 On ch=1 n=c0 v=0
146352 On ch=1 n=d2 v=36
146442 On ch=1 n=b4 v=30
152650 On ch=1 n=g10 v=30
154780 On ch=1 n=e3 v=20
154870 On ch=1 n=c0 v=38
154962 On ch=1 n=a#2 v=2
155035 On ch=1 n=c0 v=44
155125 On ch=1 n=a3 v=16
155217 On ch=1 n=c0 v=38
155299 On ch=1 n=c0 v=20
155389 On ch=1 n=c0 v=10
155481 On ch=1 n=a#3 v=94
155571 On ch=1 n=f3 v=38
155663 On ch=1 n=c0 v=40
155753 On ch=1 n=c0 v=26
155831 On ch=1 n=f#5 v=112
155921 On ch=1 n=f#3 v=48
155999 On ch=1 n=c0 v=10
156089 On ch=1 n=c0 v=2
156181 On ch=1 n=c5 v=84
156271 On ch=1 n=a3 v=30
156363 On ch=1 n=c0 v=36
156453 On ch=1 n=c0 v=14
162661 On ch=1 n=c0 v=16
164788 On ch=1 n=c#7 v=72
164879 On ch=1 n=g5 v=50
164970 On ch=1 n=c0 v=28
165049 On ch=1 n=c0 v=12
165141 On ch=1 n=g4 v=52
171349 On ch=1 n=g10 v=42
173489 On ch=1 n=c0 v=6
173580 On ch=1 n=f#4 v=52
173671 On ch=1 n=c0 v=8
179879 On ch=1 n=c0 v=14
182007 On ch=1 n=e6 v=88
182099 On ch=1 n=f#4 v=22
188307 On ch=1 n=g10 v=12
190435 On ch=1 n=c0 v=30
190527 On ch=1 n=c0 v=38
190620 On ch=1 n=b4 v=56
190713 On ch=1 n=c0 v=48
190777 On ch=1 n=c#5 v=0
190869 On ch=1 n=d4 v=42
190933 On ch=1 n=c0 v=12
191025 On ch=1 n=c0 v=46
191118 On ch=1 n=g4 v=40
191198 On ch=1 n=a#5 v=10
191291 On ch=1 n=c0 v=28
191383 On ch=1 n=e4 v=22
191463 On ch=1 n=c0 v=32
191555 On ch=1 n=c0 v=12
191648 On ch=1 n=f3 v=92
191741 On ch=1 n=c0 v=2
197949 On ch=1 n=c0 v=6
200089 On ch=1 n=f3 v=62
200181 On ch=1 n=c0 v=3
200244 On ch=1 n=a#2 v=11
200337 On ch=1 n=b4 v=42
200400 On ch=1 n=c0 v=10
200478 On ch=1 n=d5 v=8
200571 On ch=1 n=c0 v=10
206779 On ch=1 n=g10 v=22
208919 On ch=1 n=d3 v=14
208997 On ch=1 n=c0 v=42
209089 On ch=1 n=c0 v=10
209182 On ch=1 n=f#4 v=64
209275 On ch=1 n=c0 v=28
209367 On ch=1 n=b2 v=22
215575 On ch=1 n=c0 v=42
217715 On ch=1 n=c0 v=0
217776 On ch=1 n=g#5 v=20
217869 On ch=1 n=g#4 v=26
217930 On ch=1 n=c0 v=28
218023 On ch=1 n=c0 v=14
218115 On ch=1 n=f#3 v=2
218191 On ch=1 n=d#5 v=20
224399 On ch=1 n=g10 v=30
226523 On ch=1 n=c0 v=26
226616 On ch=1 n=e4 v=16
226708 On ch=1 n=c0 v=44
226801 On ch=1 n=c0 v=28
226893 On ch=1 n=b3 v=74
226986 On ch=1 n=a#4 v=22
227078 On ch=1 n=c0 v=46
227171 On ch=1 n=c0 v=22
233379 On ch=1 n=c0 v=4
235519 On ch=1 n=c4 v=14
235606 On ch=1 n=c5 v=3
235708 On ch=1 n=g5 v=87
235801 On ch=1 n=c#4 v=8
235893 On ch=1 n=c0 v=50
235986 On ch=1 n=c0 v=6
236073 On ch=1 n=c0 v=4
236165 On ch=1 n=b4 v=2
236267 On ch=1 n=c0 v=52
242475 On ch=1 n=g10 v=18
244616 On ch=1 n=f3 v=5
244708 On ch=1 n=c0 v=81
244801 On ch=1 n=c0 v=30
244893 On ch=1 n=c4 v=0
244978 On ch=1 n=c#4 v=3
245078 On ch=1 n=e5 v=45
245163 On ch=1 n=c0 v=28
245255 On ch=1 n=c0 v=10
245348 On ch=1 n=c3 v=46
245448 On ch=1 n=c0 v=24
245540 On ch=1 n=e3 v=4
245633 On ch=1 n=c0 v=44
251841 On ch=1 n=c0 v=14
253957 On ch=1 n=d4 v=22
254049 On ch=1 n=c0 v=4
254142 On ch=1 n=f3 v=28
254210 On ch=1 n=c0 v=54
260418 On ch=1 n=g10 v=2
262559 On ch=1 n=c0 v=16
262658 On ch=1 n=d5 v=2
262750 On ch=1 n=a#3 v=22
262834 On ch=1 n=f#5 v=60
262926 On ch=1 n=c0 v=0
263019 On ch=1 n=g#3 v=58
263118 On ch=1 n=c0 v=12
263211 On ch=1 n=c0 v=10
263303 On ch=1 n=f3 v=18
263387 On ch=1 n=c0 v=60
263479 On ch=1 n=c0 v=6
269687 On ch=1 n=c0 v=2
271828 On ch=1 n=c#3 v=82
271921 On ch=1 n=c0 v=16
272013 On ch=1 n=d3 v=0
272110 On ch=1 n=d4 v=8
272192 On ch=1 n=a#3 v=62
272285 On ch=1 n=g#3 v=12
272377 On ch=1 n=c0 v=8
272459 On ch=1 n=c0 v=38
272556 On ch=1 n=c0 v=14
278764 On ch=1 n=g10 v=20
280905 On ch=1 n=c0 v=12
280997 On ch=1 n=c#3 v=46
287205 On ch=1 n=c0 v=14
289346 On ch=1 n=g4 v=4
289438 On ch=1 n=c0 v=118
289531 On ch=1 n=c0 v=3
289623 On ch=1 n=a#2 v=10
289722 On ch=1 n=g3 v=0
289806 On ch=1 n=b3 v=52
289898 On ch=1 n=c0 v=2
289982 On ch=1 n=c0 v=4
290075 On ch=1 n=c#4 v=50
296283 On ch=1 n=g10 v=8
298430 On ch=1 n=c0 v=10
298523 On ch=1 n=c0 v=10
298615 On ch=1 n=a1 v=72
298708 On ch=1 n=e3 v=3
298800 On ch=1 n=c0 v=55
298873 On ch=1 n=e2 v=70
298966 On ch=1 n=c0 v=4
299039 On ch=1 n=c0 v=10
299139 On ch=1 n=c4 v=20
299224 On ch=1 n=f#3 v=8
299316 On ch=1 n=d#0 v=44
299409 On ch=1 n=c3 v=8
299501 On ch=1 n=c0 v=14
299586 On ch=1 n=c0 v=53
299679 On ch=1 n=c0 v=31
299771 On ch=1 n=a2 v=68
299863 On ch=1 n=c0 v=6
299956 On ch=1 n=a#1 v=14
300056 On ch=1 n=c0 v=106
300149 On ch=1 n=c0 v=3
300241 On ch=1 n=e1 v=0
300329 On ch=1 n=a2 v=25
300426 On ch=1 n=f2 v=46
300514 On ch=1 n=c0 v=50
300611 On ch=1 n=c0 v=54
300703 On ch=1 n=c0 v=116
306911 On ch=1 n=c0 v=54
309038 On ch=1 n=c4 v=72
309129 On ch=1 n=c3 v=3
309208 On ch=1 n=c0 v=59
309299 On ch=1 n=c0 v=22
309392 On ch=1 n=d#3 v=18
315600 On ch=1 n=g10 v=60
317739 On ch=1 n=a#2 v=20
317832 On ch=1 n=c0 v=50
317923 On ch=1 n=c0 v=32
318001 On ch=1 n=d#3 v=8
324209 On ch=1 n=c0 v=42
326335 On ch=1 n=c0 v=18
326425 On ch=1 n=b3 v=64
326515 On ch=1 n=c0 v=28
326607 On ch=1 n=a2 v=2
332815 On ch=1 n=g10 v=44
334953 On ch=1 n=c#4 v=20
335045 On ch=1 n=c0 v=58
335135 On ch=1 n=c0 v=2
341343 On ch=1 n=c0 v=26
343454 On ch=1 n=a#3 v=8
343546 On ch=1 n=d#3 v=62
343609 On ch=1 n=c0 v=0
343687 On ch=1 n=d#4 v=6
343779 On ch=1 n=c0 v=38
343869 On ch=1 n=c5 v=34
343947 On ch=1 n=c0 v=10
350155 On ch=1 n=g10 v=10
352293 On ch=1 n=c0 v=48
352385 On ch=1 n=a#4 v=48
352477 On ch=1 n=c0 v=32
358685 On ch=1 n=c0 v=3
360823 On ch=1 n=c#4 v=37
360884 On ch=1 n=g#3 v=18
360974 On ch=1 n=c0 v=18
361066 On ch=1 n=a3 v=20
361127 On ch=1 n=c0 v=38
361219 On ch=1 n=c0 v=12
361295 On ch=1 n=a3 v=8
367503 On ch=1 n=g10 v=12
369641 On ch=1 n=d3 v=30
369717 On ch=1 n=c0 v=30
369807 On ch=1 n=c0 v=12
369899 On ch=1 n=d4 v=64
369991 On ch=1 n=c0 v=3
376199 On ch=1 n=c0 v=23
378337 On ch=1 n=e3 v=74
378427 On ch=1 n=c0 v=0
378486 On ch=1 n=c4 v=32
378578 On ch=1 n=g4 v=18
378637 On ch=1 n=c0 v=8
384845 On ch=1 n=g10 v=26
386985 On ch=1 n=c0 v=26
387075 On ch=1 n=d#3 v=24
387150 On ch=1 n=c#5 v=50
387240 On ch=1 n=c0 v=10
387332 On ch=1 n=d3 v=5
387407 On ch=1 n=c0 v=53
387499 On ch=1 n=c0 v=26
387589 On ch=1 n=f3 v=78
387681 On ch=1 n=g#3 v=24
387771 On ch=1 n=c0 v=36
387863 On ch=1 n=c0 v=32
387953 On ch=1 n=a#4 v=12
388053 On ch=1 n=g6 v=12
394261 On ch=1 n=c0 v=4
396394 On ch=1 n=f5 v=54
396484 On ch=1 n=c0 v=25
396576 On ch=1 n=c5 v=51
396668 On ch=1 n=c0 v=3
396768 On ch=1 n=c0 v=15
396858 On ch=1 n=e3 v=4
396943 On ch=1 n=c0 v=14
403151 On ch=1 n=g10 v=44
405291 On ch=1 n=c4 v=8
405381 On ch=1 n=c0 v=56
411589 On ch=1 n=c0 v=30
413729 On ch=1 n=c0 v=5
413819 On ch=1 n=a#4 v=9
413918 On ch=1 n=d#6 v=32
414001 On ch=1 n=d#6 v=44
414084 On ch=1 n=c0 v=3
414174 On ch=1 n=c0 v=0
414266 On ch=1 n=d#4 v=61
414365 On ch=1 n=c0 v=0
420573 On ch=1 n=g10 v=4
422713 On ch=1 n=c0 v=20
422803 On ch=1 n=f4 v=62
422869 On ch=1 n=d5 v=10
422959 On ch=1 n=c0 v=2
423051 On ch=1 n=f#3 v=44
423117 On ch=1 n=c0 v=48
423207 On ch=1 n=a#4 v=2
423299 On ch=1 n=c0 v=4
423396 On ch=1 n=e5 v=44
423478 On ch=1 n=a#4 v=30
423570 On ch=1 n=d#4 v=26
423660 On ch=1 n=c0 v=66
423757 On ch=1 n=c0 v=0
423847 On ch=1 n=f#4 v=22
423929 On ch=1 n=c0 v=0
430137 On ch=1 n=c0 v=14
432277 On ch=1 n=c0 v=66
432367 On ch=1 n=c0 v=2
432459 On ch=1 n=c5 v=56
432551 On ch=1 n=c0 v=0
432641 On ch=1 n=d#5 v=22
432736 On ch=1 n=f5 v=4
432816 On ch=1 n=f4 v=52
439024 On ch=1 n=g10 v=10
441152 On ch=1 n=c0 v=10
441244 On ch=1 n=b3 v=18
441334 On ch=1 n=c0 v=50
441426 On ch=1 n=c0 v=18
441516 On ch=1 n=c#4 v=46
447724 On ch=1 n=c0 v=20
449864 On ch=1 n=f3 v=8
449954 On ch=1 n=c0 v=84
450049 On ch=1 n=c0 v=2
450141 On ch=1 n=c0 v=2
450231 On ch=1 n=e3 v=6
450328 On ch=1 n=f#4 v=4
450410 On ch=1 n=g#3 v=44
456618 On ch=1 n=g10 v=6
458748 On ch=1 n=c0 v=28
458838 On ch=1 n=c0 v=4
458930 On ch=1 n=b3 v=8
465138 On ch=1 n=c0 v=42
467283 On ch=1 n=c0 v=16
467375 On ch=1 n=c0 v=22
467465 On ch=1 n=g2 v=28
473673 On ch=1 n=g10 v=48
475811 On ch=1 n=c0 v=0
475903 On ch=1 n=c3 v=14
482111 On ch=1 n=c0 v=26
484230 On ch=1 n=c#2 v=28
484322 On ch=1 n=c0 v=36
484421 On ch=1 n=a#3 v=10
484511 On ch=1 n=c2 v=2
484582 On ch=1 n=c0 v=32
484665 On ch=1 n=a#3 v=50
490873 On ch=1 n=g10 v=6
493011 On ch=1 n=c0 v=6
493103 On ch=1 n=g2 v=68
493195 On ch=1 n=c0 v=26
493285 On ch=1 n=g2 v=22
493368 On ch=1 n=c0 v=42
493460 On ch=1 n=d2 v=4
493550 On ch=1 n=c0 v=14
493649 On ch=1 n=c0 v=46
493744 On ch=1 n=a#3 v=8
493836 On ch=1 n=c0 v=26
493923 On ch=1 n=b2 v=6
494013 On ch=1 n=d1 v=36
494108 On ch=1 n=c0 v=14
494195 On ch=1 n=c0 v=64
494285 On ch=1 n=c0 v=129
494347 On ch=1 n=d6 v=47
494405 On ch=1 n=d6 v=0
494413 On ch=1 n=d7 v=55
494469 On ch=1 n=d7 v=0
494483 On ch=1 n=d#7 v=48
494547 On ch=1 n=d#7 v=0
494551 On ch=1 n=d7 v=42
494599 Par ch=1 c=64 v=0
494623 On ch=1 n=d7 v=0
494647 On ch=1 n=d#6 v=60
494699 On ch=1 n=d#7 v=53
494702 On ch=1 n=d#6 v=0
494767 On ch=1 n=d#7 v=0
494787 On ch=1 n=e7 v=63
494847 On ch=1 n=e7 v=0
494875 On ch=1 n=d#7 v=46
494933 On ch=1 n=d#7 v=0
494957 On ch=1 n=d#6 v=56
494963 On ch=1 n=e7 v=61
494979 On ch=1 n=d#5 v=35
494981 On ch=1 n=g5 v=43
495017 On ch=1 n=e7 v=0
495043 On ch=1 n=g5 v=0
495047 On ch=1 n=d#6 v=0
495053 On ch=1 n=d#5 v=0
495057 On ch=1 n=d#7 v=48
495109 On ch=1 n=d#7 v=0
495125 On ch=1 n=e7 v=60
495189 On ch=1 n=e7 v=0
495223 On ch=1 n=d#7 v=38
495279 On ch=1 n=d#7 v=0
495299 On ch=1 n=e7 v=63
495299 On ch=1 n=d6 v=64
495305 On ch=1 n=g#5 v=50
495313 On ch=1 n=f5 v=45
495365 On ch=1 n=e7 v=0
495367 On ch=1 n=d6 v=0
495369 On ch=1 n=f5 v=0
495375 On ch=1 n=d#7 v=44
495381 On ch=1 n=g#5 v=0
495467 On ch=1 n=d#7 v=0
495469 On ch=1 n=e7 v=66
495535 On ch=1 n=d#7 v=61
495543 On ch=1 n=e7 v=0
495627 Par ch=1 c=64 v=127
495637 On ch=1 n=d#7 v=0
495641 On ch=1 n=e7 v=67
495647 On ch=1 n=c#6 v=35
495671 On ch=1 n=g5 v=27
495674 On ch=1 n=a#5 v=22
495715 On ch=1 n=d#7 v=55
495759 On ch=1 n=g5 v=0
495759 On ch=1 n=e7 v=0
495759 On ch=1 n=c#6 v=0
495762 On ch=1 n=a#5 v=0
495807 On ch=1 n=d7 v=65
495817 On ch=1 n=d#7 v=0
495875 On ch=1 n=d7 v=0
495875 On ch=1 n=d#7 v=70
495913 On ch=1 n=d#7 v=0
495963 On ch=1 n=e7 v=60
496011 On ch=1 n=e7 v=0
496017 On ch=1 n=f7 v=68
496075 On ch=1 n=f#7 v=66
496095 On ch=1 n=f7 v=0
496117 On ch=1 n=f#7 v=0
496157 On ch=1 n=g7 v=67
496205 On ch=1 n=g7 v=0
496263 On ch=1 n=a7 v=59
496301 On ch=1 n=g7 v=16
496337 On ch=1 n=a#7 v=64
496349 Par ch=1 c=64 v=0
496367 On ch=1 n=g7 v=0
496371 On ch=1 n=a7 v=0
496391 On ch=1 n=a#7 v=0
496411 On ch=1 n=b7 v=61
496469 On ch=1 n=b7 v=0
496481 On ch=1 n=c8 v=74
496539 On ch=1 n=c8 v=0
496539 On ch=1 n=c#8 v=58
496581 On ch=1 n=c#8 v=0
496617 On ch=1 n=d8 v=71
496661 On ch=1 n=d8 v=0
496673 On ch=1 n=d#8 v=59
496713 On ch=1 n=g#5 v=17
496721 On ch=1 n=e6 v=19
496747 On ch=1 n=d#8 v=0
496749 On ch=1 n=e8 v=46
496751 On ch=1 n=b5 v=23
496781 Par ch=1 c=64 v=127
496795 On ch=1 n=e8 v=0
496815 On ch=1 n=f#8 v=57
496863 On ch=1 n=b5 v=0
496867 On ch=1 n=e6 v=0
496895 On ch=1 n=e8 v=24
496897 On ch=1 n=f#8 v=0
496941 On ch=1 n=g#5 v=0
496951 On ch=1 n=d#8 v=56
496979 On ch=1 n=e8 v=0
496993 On ch=1 n=d#8 v=0
497047 On ch=1 n=d8 v=57
497105 On ch=1 n=d8 v=0
497119 On ch=1 n=c#8 v=38
497199 On ch=1 n=c8 v=51
497233 On ch=1 n=c#8 v=0
497245 On ch=1 n=c8 v=0
497287 On ch=1 n=b7 v=47
497363 On ch=1 n=a#7 v=44
497399 On ch=1 n=b7 v=0
497431 On ch=1 n=a7 v=51
497435 On ch=1 n=a#7 v=0
497525 On ch=1 n=g#7 v=35
497527 On ch=1 n=a7 v=0
497583 On ch=1 n=g#7 v=0
497591 On ch=1 n=g7 v=37
497655 On ch=1 n=g7 v=0
497655 On ch=1 n=f#7 v=56
497658 Par ch=1 c=64 v=0
497697 On ch=1 n=d#5 v=29
497763 On ch=1 n=a#5 v=25
497767 On ch=1 n=d#5 v=0
497793 On ch=1 n=f#7 v=0
497821 On ch=1 n=e7 v=44
497871 Par ch=1 c=64 v=127
497885 On ch=1 n=g6 v=50
497885 On ch=1 n=d#7 v=58
497888 On ch=1 n=e7 v=0
497945 On ch=1 n=g6 v=0
497955 On ch=1 n=a#5 v=0
498027 On ch=1 n=d#7 v=0
498265 On ch=1 n=a#5 v=53
498301 Par ch=1 c=64 v=0
498355 On ch=1 n=a#6 v=50
498377 On ch=1 n=a#5 v=0
498411 On ch=1 n=a#6 v=0
498417 On ch=1 n=b6 v=88
498487 On ch=1 n=b6 v=0
498491 On ch=1 n=a#6 v=45
498543 On ch=1 n=a#6 v=0
498573 On ch=1 n=d6 v=73
498651 On ch=1 n=d7 v=70
498669 On ch=1 n=d6 v=0
498699 On ch=1 n=d7 v=0
498715 On ch=1 n=d#7 v=60
498793 On ch=1 n=d#7 v=0
498805 On ch=1 n=d7 v=53
498857 On ch=1 n=d7 v=0
498873 On ch=1 n=d#6 v=67
498933 On ch=1 n=d#6 v=0
498973 On ch=1 n=d#7 v=55
499029 On ch=1 n=d#7 v=0
499051 On ch=1 n=e7 v=62
499103 On ch=1 n=e7 v=0
499155 On ch=1 n=d#7 v=39
499205 On ch=1 n=d#7 v=0
499207 On ch=1 n=d#6 v=51
499217 On ch=1 n=d#5 v=46
499231 On ch=1 n=g5 v=32
499231 On ch=1 n=e7 v=63
499271 On ch=1 n=d#6 v=0
499279 On ch=1 n=e7 v=0
499285 On ch=1 n=d#5 v=0
499301 On ch=1 n=g5 v=0
499335 On ch=1 n=d#7 v=31
499394 On ch=1 n=d#7 v=0
499403 On ch=1 n=e7 v=50
499455 On ch=1 n=e7 v=0
499467 On ch=1 n=d#7 v=37
499555 On ch=1 n=d6 v=39
499557 On ch=1 n=g#5 v=37
499561 On ch=1 n=e7 v=45
499567 On ch=1 n=f5 v=31
499571 On ch=1 n=d#7 v=0
499623 On ch=1 n=f5 v=0
499629 On ch=1 n=e7 v=0
499631 On ch=1 n=d6 v=0
499639 On ch=1 n=g#5 v=0
499711 On ch=1 n=e7 v=51
499757 On ch=1 n=d#7 v=2
499760 On ch=1 n=e7 v=0
499871 On ch=1 n=d#7 v=0
499903 On ch=1 n=e7 v=46
499906 On ch=1 n=c#6 v=26
499937 On ch=1 n=a#5 v=22
499937 On ch=1 n=g5 v=19
499971 On ch=1 n=e7 v=0
499977 Par ch=1 c=64 v=127
499981 On ch=1 n=d#7 v=23
500023 On ch=1 n=c#6 v=0
500026 On ch=1 n=g5 v=0
500031 On ch=1 n=a#5 v=0
500055 On ch=1 n=d#7 v=0
500069 On ch=1 n=d7 v=44
500135 On ch=1 n=d7 v=0
500137 On ch=1 n=d#7 v=47
500187 On ch=1 n=d#7 v=0
500257 On ch=1 n=e7 v=30
500301 On ch=1 n=f7 v=63
500327 On ch=1 n=e7 v=0
500367 On ch=1 n=f#7 v=51
500381 On ch=1 n=f7 v=0
500417 On ch=1 n=f#7 v=0
500467 On ch=1 n=g7 v=41
500505 On ch=1 n=g#7 v=58
500527 On ch=1 n=g7 v=0
500561 On ch=1 n=a7 v=53
500583 On ch=1 n=g#7 v=0
500619 Par ch=1 c=64 v=0
500629 On ch=1 n=a#7 v=56
500641 On ch=1 n=a7 v=0
500669 On ch=1 n=a#7 v=0
500707 On ch=1 n=b7 v=49
500763 On ch=1 n=b7 v=0
500773 On ch=1 n=c8 v=71
500835 On ch=1 n=c8 v=0
500837 On ch=1 n=c#8 v=49
500883 On ch=1 n=c#8 v=0
500923 On ch=1 n=d8 v=58
500975 On ch=1 n=d8 v=0
500977 On ch=1 n=d#8 v=57
501055 On ch=1 n=d#8 v=0
501055 On ch=1 n=g#5 v=22
501055 On ch=1 n=e8 v=50
501067 On ch=1 n=e6 v=18
501075 On ch=1 n=b5 v=24
501099 Par ch=1 c=64 v=127
501103 On ch=1 n=e8 v=0
501141 On ch=1 n=f#8 v=48
501191 On ch=1 n=e6 v=0
501197 On ch=1 n=e8 v=32
501209 On ch=1 n=b5 v=0
501211 On ch=1 n=f#8 v=0
501247 On ch=1 n=g#5 v=0
501283 On ch=1 n=d#8 v=48
501286 On ch=1 n=e8 v=0
501329 On ch=1 n=d#8 v=0
501367 On ch=1 n=d8 v=42
501427 On ch=1 n=d8 v=0
501427 On ch=1 n=c#8 v=48
501507 On ch=1 n=c8 v=51
501549 On ch=1 n=c#8 v=0
501555 On ch=1 n=c8 v=0
501583 On ch=1 n=b7 v=56
501665 On ch=1 n=a#7 v=45
501703 On ch=1 n=b7 v=0
501713 Par ch=1 c=64 v=0
501723 On ch=1 n=a7 v=60
501747 On ch=1 n=a#7 v=0
501801 On ch=1 n=g#7 v=51
501819 On ch=1 n=a7 v=0
501857 On ch=1 n=g#7 v=0
501877 On ch=1 n=g7 v=44
501927 On ch=1 n=f#7 v=68
501933 On ch=1 n=g7 v=0
502019 Par ch=1 c=64 v=127
502033 On ch=1 n=f7 v=41
502039 On ch=1 n=d#5 v=26
502051 On ch=1 n=f#7 v=0
502069 On ch=1 n=a#5 v=28
502087 On ch=1 n=e7 v=55
502097 On ch=1 n=f7 v=0
502105 On ch=1 n=d#5 v=0
502127 On ch=1 n=a#5 v=0
502145 On ch=1 n=e7 v=0
502169 On ch=1 n=g6 v=65
502175 On ch=1 n=d#7 v=62
502225 On ch=1 n=g6 v=0
502228 On ch=1 n=d#7 v=0
502257 On ch=1 n=e7 v=60
502335 On ch=1 n=e7 v=0
502343 On ch=1 n=d#7 v=41
502403 On ch=1 n=d#7 v=0
502413 On ch=1 n=d7 v=50
502475 On ch=1 n=d#7 v=55
502481 On ch=1 n=d7 v=0
502541 On ch=1 n=d#7 v=0
502581 On ch=1 n=e7 v=45
502641 On ch=1 n=e7 v=0
502641 On ch=1 n=f7 v=67
502697 Par ch=1 c=64 v=0
502700 On ch=1 n=f#7 v=58
502723 On ch=1 n=f7 v=0
502743 On ch=1 n=f#7 v=0
502781 On ch=1 n=g7 v=68
502837 On ch=1 n=g7 v=0
502847 On ch=1 n=g#7 v=48
502893 On ch=1 n=a7 v=70
502929 On ch=1 n=g#7 v=0
502957 On ch=1 n=a#7 v=58
502979 On ch=1 n=a7 v=0
502997 On ch=1 n=a#7 v=0
503037 On ch=1 n=b7 v=63
503091 On ch=1 n=b7 v=0
503101 On ch=1 n=c8 v=68
503111 Par ch=1 c=64 v=127
503129 On ch=1 n=g#4 v=32
503165 On ch=1 n=c#8 v=49
503171 On ch=1 n=c8 v=0
503199 On ch=1 n=d#5 v=39
503201 On ch=1 n=g#4 v=0
503211 On ch=1 n=c#8 v=0
503241 On ch=1 n=d8 v=69
503287 On ch=1 n=d8 v=0
503311 On ch=1 n=d#8 v=46
503351 On ch=1 n=b5 v=61
503357 On ch=1 n=e8 v=63
503373 On ch=1 n=d#8 v=0
503403 On ch=1 n=e8 v=0
503441 On ch=1 n=d#5 v=0
503449 On ch=1 n=f#8 v=55
503467 On ch=1 n=b5 v=0
503525 On ch=1 n=f#8 v=0
503525 On ch=1 n=e8 v=33
503581 On ch=1 n=d#8 v=55
503593 On ch=1 n=e8 v=0
503629 On ch=1 n=d#8 v=0
503679 On ch=1 n=d8 v=32
503737 On ch=1 n=c#8 v=36
503749 On ch=1 n=d8 v=0
503829 On ch=1 n=c8 v=31
503863 On ch=1 n=c#8 v=0
503901 On ch=1 n=c8 v=0
503901 On ch=1 n=b7 v=42
503977 On ch=1 n=a#7 v=33
504011 On ch=1 n=b7 v=0
504033 Par ch=1 c=64 v=0
504037 On ch=1 n=a7 v=45
504081 On ch=1 n=a#7 v=0
504091 On ch=1 n=g#7 v=50
504109 On ch=1 n=a7 v=0
504143 On ch=1 n=g#7 v=0
504177 On ch=1 n=g7 v=46
504227 On ch=1 n=f#7 v=60
504230 On ch=1 n=g7 v=0
504315 On ch=1 n=f7 v=53
504351 On ch=1 n=d#4 v=37
504363 On ch=1 n=f7 v=0
504363 On ch=1 n=f#7 v=0
504377 On ch=1 n=e7 v=63
504397 On ch=1 n=a#4 v=35
504409 On ch=1 n=d#4 v=0
504417 Par ch=1 c=64 v=127
504453 On ch=1 n=e7 v=0
504475 On ch=1 n=d#7 v=59
504505 On ch=1 n=g5 v=53
504535 On ch=1 n=d#7 v=0
504557 On ch=1 n=e7 v=50
504611 On ch=1 n=g5 v=0
504617 On ch=1 n=a#4 v=0
504635 On ch=1 n=e7 v=0
504651 On ch=1 n=d#7 v=33
504709 On ch=1 n=d#7 v=0
504719 On ch=1 n=d7 v=51
504789 On ch=1 n=d7 v=0
504791 On ch=1 n=d#7 v=42
504849 On ch=1 n=d#7 v=0
504905 On ch=1 n=e7 v=30
504963 On ch=1 n=f7 v=64
504971 On ch=1 n=e7 v=0
505035 On ch=1 n=f#7 v=59
505067 On ch=1 n=f7 v=0
505083 On ch=1 n=f#7 v=0
505121 On ch=1 n=g7 v=64
505179 On ch=1 n=g7 v=0
505179 On ch=1 n=g#7 v=57
505247 On ch=1 n=a7 v=63
505297 On ch=1 n=g#7 v=0
505317 On ch=1 n=a#7 v=61
505341 On ch=1 n=a7 v=0
505355 On ch=1 n=a#7 v=0
505395 On ch=1 n=b7 v=67
505451 On ch=1 n=b7 v=0
505461 Par ch=1 c=64 v=0
505465 On ch=1 n=c8 v=72
505523 On ch=1 n=c#8 v=59
505541 On ch=1 n=c8 v=0
505561 On ch=1 n=c#8 v=0
505575 On ch=1 n=g#3 v=56
505603 On ch=1 n=d8 v=78
505629 On ch=1 n=g#3 v=0
505643 On ch=1 n=d8 v=0
505661 Par ch=1 c=64 v=127
505671 On ch=1 n=d#8 v=52
505707 On ch=1 n=b4 v=51
505735 On ch=1 n=e8 v=61
505755 On ch=1 n=d#8 v=0
505779 On ch=1 n=b4 v=0
505785 On ch=1 n=e8 v=0
505819 On ch=1 n=f#8 v=63
505905 On ch=1 n=e8 v=45
505917 On ch=1 n=f#8 v=0
505979 On ch=1 n=d#8 v=51
505987 On ch=1 n=e8 v=0
506025 On ch=1 n=d#8 v=0
506053 On ch=1 n=d8 v=70
506095 On ch=1 n=d8 v=0
506123 On ch=1 n=d#8 v=43
506193 On ch=1 n=d8 v=54
506217 On ch=1 n=d#8 v=0
506271 On ch=1 n=c#8 v=46
506279 On ch=1 n=d8 v=0
506323 On ch=1 n=c#8 v=0
506339 On ch=1 n=c8 v=56
506385 On ch=1 n=c8 v=0
506401 On ch=1 n=c#8 v=48
506467 On ch=1 n=c8 v=50
506523 On ch=1 n=c#8 v=0
506561 On ch=1 n=b7 v=57
506583 On ch=1 n=c8 v=0
506605 On ch=1 n=b7 v=0
506611 On ch=1 n=a#7 v=59
506653 On ch=1 n=a#7 v=0
506685 On ch=1 n=b7 v=44
506779 On ch=1 n=a#7 v=42
506805 On ch=1 n=b7 v=0
506895 On ch=1 n=a#7 v=0
506905 On ch=1 n=g#7 v=50
506959 On ch=1 n=g#7 v=0
506969 On ch=1 n=a7 v=63
507037 On ch=1 n=g#7 v=31
507065 On ch=1 n=a7 v=0
507125 On ch=1 n=g7 v=47
507143 On ch=1 n=g#7 v=0
507177 On ch=1 n=g7 v=0
507181 On ch=1 n=f#7 v=54
507233 On ch=1 n=f#7 v=0
507241 On ch=1 n=g7 v=68
507291 Par ch=1 c=64 v=0
507325 On ch=1 n=f#7 v=29
507363 On ch=1 n=g7 v=0
507403 On ch=1 n=f7 v=55
507437 On ch=1 n=f#7 v=0
507451 On ch=1 n=f7 v=0
507471 On ch=1 n=e7 v=58
507519 On ch=1 n=e7 v=0
507521 Par ch=1 c=64 v=127
507529 On ch=1 n=f#7 v=46
507601 On ch=1 n=e7 v=48
507647 On ch=1 n=f#7 v=0
507689 On ch=1 n=d#7 v=55
507719 On ch=1 n=e7 v=0
507741 On ch=1 n=d#7 v=0
507763 On ch=1 n=d7 v=59
507813 On ch=1 n=d7 v=0
507827 On ch=1 n=d#7 v=52
507897 On ch=1 n=d7 v=47
507919 Par ch=1 c=64 v=0
507943 On ch=1 n=d#7 v=0
507969 On ch=1 n=c#7 v=68
508011 On ch=1 n=d7 v=0
508033 On ch=1 n=c#7 v=0
508051 On ch=1 n=c7 v=50
508099 On ch=1 n=c7 v=0
508105 On ch=1 n=c#7 v=67
508105 Par ch=1 c=64 v=127
508169 On ch=1 n=c7 v=52
508235 On ch=1 n=c#7 v=0
508261 On ch=1 n=b6 v=88
508273 On ch=1 n=c7 v=0
508309 On ch=1 n=b6 v=0
508335 On ch=1 n=a#6 v=57
508380 On ch=1 n=a#6 v=0
508409 On ch=1 n=b6 v=73
508465 On ch=1 n=a#6 v=37
508517 On ch=1 n=b6 v=0
508553 On ch=1 n=a6 v=66
508583 On ch=1 n=a#6 v=0
508603 On ch=1 n=a6 v=0
508631 On ch=1 n=g#6 v=52
508699 On ch=1 n=a6 v=51
508733 On ch=1 n=g#6 v=0
508775 On ch=1 n=g#6 v=28
508783 On ch=1 n=a6 v=0
508853 On ch=1 n=g6 v=57
508885 On ch=1 n=g#6 v=0
508903 On ch=1 n=g6 v=0
508905 On ch=1 n=f#6 v=74
508947 On ch=1 n=f#6 v=0
508973 On ch=1 n=g6 v=65
509057 On ch=1 n=f#6 v=50
509091 On ch=1 n=g6 v=0
509137 On ch=1 n=f6 v=63
509155 On ch=1 n=f#6 v=0
509185 On ch=1 n=f6 v=0
509203 On ch=1 n=e6 v=63
509255 On ch=1 n=e6 v=0
509277 On ch=1 n=f#6 v=56
509347 On ch=1 n=e6 v=52
509393 On ch=1 n=f#6 v=0
509425 On ch=1 n=d#6 v=73
509471 On ch=1 n=e6 v=0
509509 On ch=1 n=d6 v=67
509511 On ch=1 n=d#6 v=0
509555 On ch=1 n=d6 v=0
509573 On ch=1 n=d#6 v=71
509629 On ch=1 n=d6 v=67
509691 On ch=1 n=d#6 v=0
509715 On ch=1 n=c#6 v=69
509735 On ch=1 n=d6 v=0
509797 On ch=1 n=c6 v=50
509809 On ch=1 n=c#6 v=0
509851 On ch=1 n=c6 v=0
509863 On ch=1 n=c#6 v=68
509907 On ch=1 n=c6 v=69
509979 On ch=1 n=c#6 v=0
509999 On ch=1 n=b5 v=78
510015 On ch=1 n=c6 v=0
510055 On ch=1 n=b5 v=0
510069 On ch=1 n=a#5 v=66
510119 On ch=1 n=a#5 v=0
510157 On ch=1 n=b5 v=39
510213 On ch=1 n=a#5 v=53
510271 On ch=1 n=b5 v=0
510289 On ch=1 n=a5 v=67
510331 On ch=1 n=a#5 v=0
510355 On ch=1 n=a5 v=0
510375 On ch=1 n=g#5 v=55
510429 On ch=1 n=g#5 v=0
510441 On ch=1 n=a5 v=49
510507 On ch=1 n=g#5 v=45
510579 On ch=1 n=a5 v=0
510591 On ch=1 n=g5 v=69
510621 On ch=1 n=g#5 v=0
510645 On ch=1 n=g5 v=0
510667 On ch=1 n=f#5 v=57
510727 On ch=1 n=f#5 v=0
510735 On ch=1 n=g5 v=59
510793 On ch=1 n=g3 v=53
510809 Par ch=1 c=64 v=0
510815 On ch=1 n=f#5 v=53
510887 On ch=1 n=g5 v=0
510890 On ch=1 n=g3 v=0
510917 On ch=1 n=f5 v=22
510947 Par ch=1 c=64 v=127
510949 On ch=1 n=a#4 v=57
510951 On ch=1 n=e5 v=43
510953 On ch=1 n=f#5 v=0
510985 On ch=1 n=f5 v=0
511067 On ch=1 n=e5 v=0
511071 On ch=1 n=d5 v=58
511099 On ch=1 n=a#4 v=0
511119 On ch=1 n=d5 v=0
511143 On ch=1 n=c#5 v=71
511149 On ch=1 n=e5 v=75
511201 On ch=1 n=c#5 v=0
511205 On ch=1 n=e5 v=0
511245 On ch=1 n=d#5 v=64
511325 On ch=1 n=f5 v=63
511349 On ch=1 n=d#5 v=0
511373 On ch=1 n=f5 v=0
511389 On ch=1 n=e5 v=73
511435 On ch=1 n=e5 v=0
511479 On ch=1 n=f#5 v=64
511525 On ch=1 n=f#5 v=0
511549 On ch=1 n=f5 v=63
511597 On ch=1 n=g5 v=48
511599 On ch=1 n=f5 v=0
511663 On ch=1 n=f#5 v=68
511683 On ch=1 n=g5 v=0
511743 On ch=1 n=g#5 v=63
511781 On ch=1 n=f#5 v=0
511783 On ch=1 n=g#5 v=0
511795 On ch=1 n=g5 v=69
511869 On ch=1 n=a5 v=61
511901 On ch=1 n=g5 v=0
511941 On ch=1 n=g#5 v=68
512005 On ch=1 n=a#5 v=69
512009 On ch=1 n=a5 v=0
512045 On ch=1 n=g#5 v=0
512057 On ch=1 n=a#5 v=0
512065 On ch=1 n=a5 v=72
512155 On ch=1 n=b5 v=63
512181 On ch=1 n=a5 v=0
512213 On ch=1 n=a#5 v=62
512249 On ch=1 n=b5 v=0
512293 On ch=1 n=c6 v=65
512315 On ch=1 n=a#5 v=0
512329 On ch=1 n=b5 v=74
512337 On ch=1 n=c6 v=0
512399 On ch=1 n=b5 v=0
512425 On ch=1 n=c#6 v=71
512509 On ch=1 n=c6 v=53
512527 On ch=1 n=c#6 v=0
512535 On ch=1 n=d6 v=73
512557 On ch=1 n=c6 v=0
512599 On ch=1 n=c#6 v=52
512649 On ch=1 n=d6 v=0
512687 On ch=1 n=d#6 v=81
512705 On ch=1 n=c#6 v=0
512719 On ch=1 n=d#6 v=0
512741 On ch=1 n=d6 v=80
512781 On ch=1 n=d6 v=0
512843 On ch=1 n=e6 v=62
512889 On ch=1 n=e6 v=0
512899 On ch=1 n=d#6 v=81
512955 On ch=1 n=d#6 v=0
512999 On ch=1 n=f6 v=54
513041 On ch=1 n=e6 v=81
513046 On ch=1 n=f6 v=0
513081 On ch=1 n=e6 v=0
513129 On ch=1 n=f#6 v=75
513179 On ch=1 n=f#6 v=0
513191 On ch=1 n=f6 v=81
513225 On ch=1 n=f6 v=0
513281 On ch=1 n=g6 v=88
513319 On ch=1 n=g6 v=0
513327 On ch=1 n=f#6 v=79
513389 On ch=1 n=f#6 v=0
513417 On ch=1 n=g#6 v=82
513465 On ch=1 n=g#6 v=0
513467 On ch=1 n=g6 v=84
513507 On ch=1 n=g6 v=0
513569 On ch=1 n=a6 v=82
513605 On ch=1 n=a6 v=0
513621 On ch=1 n=g#6 v=81
513675 On ch=1 n=g#6 v=0
513699 On ch=1 n=a#6 v=79
513765 On ch=1 n=a6 v=73
513767 On ch=1 n=a#6 v=0
513807 On ch=1 n=a6 v=0
513851 On ch=1 n=b6 v=106
513887 On ch=1 n=b6 v=0
513915 On ch=1 n=a#6 v=81
513975 On ch=1 n=a#6 v=0
513997 On ch=1 n=c7 v=91
514039 On ch=1 n=c7 v=0
514069 On ch=1 n=b6 v=101
514107 On ch=1 n=b6 v=0
514131 On ch=1 n=c#7 v=89
514209 On ch=1 n=c7 v=92
514212 On ch=1 n=c#7 v=0
514283 On ch=1 n=c7 v=0
514289 On ch=1 n=d7 v=95
514331 On ch=1 n=d7 v=0
514367 On ch=1 n=c#7 v=88
514389 Par ch=1 c=64 v=0
514435 On ch=1 n=d#7 v=86
514465 On ch=1 n=c#7 v=0
514501 On ch=1 n=d7 v=91
514519 On ch=1 n=d#7 v=0
514527 Par ch=1 c=64 v=127
514549 On ch=1 n=d7 v=0
514589 On ch=1 n=e7 v=90
514629 On ch=1 n=e7 v=0
514647 On ch=1 n=d#7 v=86
514723 On ch=1 n=f7 v=91
514749 On ch=1 n=d#7 v=0
514773 On ch=1 n=f7 v=0
514789 On ch=1 n=e7 v=87
514855 On ch=1 n=e7 v=0
514861 On ch=1 n=f#7 v=82
514923 On ch=1 n=f#7 v=0
514933 On ch=1 n=f7 v=88
514991 On ch=1 n=f7 v=0
515019 On ch=1 n=g7 v=83
515057 On ch=1 n=g7 v=0
515087 On ch=1 n=f#7 v=83
515129 On ch=1 n=f#7 v=0
515165 On ch=1 n=g#7 v=80
515217 On ch=1 n=g#7 v=0
515219 On ch=1 n=g7 v=84
515259 On ch=1 n=g7 v=0
515305 On ch=1 n=a7 v=94
515351 On ch=1 n=a7 v=0
515383 On ch=1 n=g#7 v=83
515427 On ch=1 n=g#7 v=0
515451 On ch=1 n=a#7 v=75
515507 On ch=1 n=a#7 v=0
515529 On ch=1 n=a7 v=80
515569 On ch=1 n=a7 v=0
515597 On ch=1 n=b7 v=84
515641 On ch=1 n=b7 v=0
515679 On ch=1 n=a#7 v=80
515729 On ch=1 n=a#7 v=0
515761 On ch=1 n=c8 v=70
515803 On ch=1 n=c8 v=0
515835 On ch=1 n=b7 v=51
515865 On ch=1 n=c8 v=37
515889 On ch=1 n=b7 v=0
515907 On ch=1 n=c#8 v=53
515935 On ch=1 n=c8 v=0
515953 On ch=1 n=c#8 v=0
515995 On ch=1 n=c8 v=73
516035 On ch=1 n=c8 v=0
516059 On ch=1 n=d8 v=82
516107 On ch=1 n=d8 v=0
516155 On ch=1 n=c#8 v=70
516197 On ch=1 n=c#8 v=0
516265 On ch=1 n=d#8 v=53
516309 On ch=1 n=d#8 v=0
516351 On ch=1 n=d8 v=82
516387 Par ch=1 c=64 v=0
516397 On ch=1 n=d8 v=0
516453 On ch=1 n=e8 v=53
516499 On ch=1 n=e8 v=0
516531 On ch=1 n=d8 v=78
516583 On ch=1 n=d8 v=0
516601 Par ch=1 c=64 v=127
516611 On ch=1 n=d#8 v=56
516661 On ch=1 n=d#8 v=0
516689 On ch=1 n=d8 v=79
516757 On ch=1 n=d8 v=0
516779 On ch=1 n=e8 v=61
516819 On ch=1 n=e8 v=0
516847 On ch=1 n=d8 v=72
516911 On ch=1 n=d8 v=0
516939 On ch=1 n=d#8 v=67
516989 On ch=1 n=d#8 v=0
517017 On ch=1 n=d8 v=79
517077 On ch=1 n=d8 v=0
517109 On ch=1 n=e8 v=73
517145 On ch=1 n=e8 v=0
517187 On ch=1 n=d8 v=83
517261 On ch=1 n=d8 v=0
517275 On ch=1 n=d#8 v=83
517337 On ch=1 n=d#8 v=0
517359 On ch=1 n=d8 v=85
517439 On ch=1 n=d8 v=0
517453 On ch=1 n=e8 v=78
517489 On ch=1 n=e8 v=0
517525 On ch=1 n=d8 v=83
517599 On ch=1 n=d8 v=0
517611 On ch=1 n=d#8 v=76
517663 On ch=1 n=d#8 v=0
517689 On ch=1 n=d8 v=85
517773 On ch=1 n=d8 v=0
517793 On ch=1 n=e8 v=75
517831 On ch=1 n=e8 v=0
517871 On ch=1 n=d8 v=81
517937 On ch=1 n=d8 v=0
517977 On ch=1 n=d#8 v=69
518015 On ch=1 n=d#8 v=0
518065 On ch=1 n=d8 v=89
518137 On ch=1 n=d8 v=0
518177 On ch=1 n=e8 v=71
518217 On ch=1 n=e8 v=0
518279 On ch=1 n=d8 v=88
518359 On ch=1 n=d8 v=0
518415 On ch=1 n=d#8 v=80
518537 Par ch=1 c=64 v=0
518575 On ch=1 n=e8 v=70
518587 On ch=1 n=d#8 v=0
518683 On ch=1 n=d#8 v=65
518709 On ch=1 n=e8 v=0
518797 On ch=1 n=e8 v=56
518800 On ch=1 n=d#8 v=0
518845 Par ch=1 c=64 v=127
518909 On ch=1 n=d#8 v=60
518913 On ch=1 n=e8 v=0
518981 On ch=1 n=d#8 v=0
518987 On ch=1 n=e8 v=60
519073 On ch=1 n=e8 v=0
519091 On ch=1 n=d#8 v=57
519139 On ch=1 n=d#8 v=0
519165 On ch=1 n=e8 v=49
519223 On ch=1 n=e8 v=0
519247 On ch=1 n=d#8 v=47
519297 On ch=1 n=d#8 v=0
519335 On ch=1 n=e8 v=32
519389 On ch=1 n=e8 v=0
519397 On ch=1 n=d#8 v=38
519457 On ch=1 n=d#8 v=0
519479 On ch=1 n=e8 v=37
519537 Par ch=1 c=64 v=0
519543 On ch=1 n=e8 v=0
519549 On ch=1 n=d#8 v=61
519661 On ch=1 n=d#8 v=0
519675 Par ch=1 c=64 v=127
519687 On ch=1 n=e8 v=27
519741 On ch=1 n=d#8 v=49
519753 On ch=1 n=e8 v=0
519809 On ch=1 n=d#8 v=0
519827 On ch=1 n=e8 v=50
519887 On ch=1 n=e8 v=0
519927 On ch=1 n=d#8 v=43
519975 On ch=1 n=d#8 v=0
519991 On ch=1 n=e8 v=42
520049 On ch=1 n=e8 v=0
520065 On ch=1 n=d#8 v=33
520127 On ch=1 n=d#8 v=0
520149 On ch=1 n=e8 v=35
520209 On ch=1 n=e8 v=0
520217 On ch=1 n=d#8 v=38
520279 On ch=1 n=d#8 v=0
520295 On ch=1 n=e8 v=36
520349 On ch=1 n=e8 v=0
520361 On ch=1 n=d#8 v=46
520415 On ch=1 n=d#8 v=0
520429 On ch=1 n=e8 v=43
520499 On ch=1 n=e8 v=0
520505 Par ch=1 c=64 v=0
520525 On ch=1 n=d#8 v=62
520609 On ch=1 n=d#8 v=0
520625 On ch=1 n=e8 v=38
520665 Par ch=1 c=64 v=127
520679 On ch=1 n=e8 v=0
520687 On ch=1 n=d#8 v=50
520757 On ch=1 n=d#8 v=0
520769 On ch=1 n=e8 v=42
520829 On ch=1 n=e8 v=0
520845 On ch=1 n=d#8 v=43
520909 On ch=1 n=d#8 v=0
520923 On ch=1 n=e8 v=36
520977 On ch=1 n=e8 v=0
520997 On ch=1 n=d#8 v=52
521089 On ch=1 n=e8 v=35
521099 On ch=1 n=d#8 v=0
521145 On ch=1 n=e8 v=0
521165 On ch=1 n=d#6 v=40
521177 On ch=1 n=d#8 v=47
521219 On ch=1 n=d#6 v=0
521245 On ch=1 n=e8 v=34
521255 On ch=1 n=d#8 v=0
521315 On ch=1 n=e8 v=0
521341 On ch=1 n=d#8 v=48
521433 On ch=1 n=d#8 v=0
521439 On ch=1 n=e8 v=33
521503 On ch=1 n=e8 v=0
521535 On ch=1 n=d#8 v=41
521547 On ch=1 n=d#7 v=55
521565 Par ch=1 c=64 v=0
521625 On ch=1 n=e8 v=33
521641 On ch=1 n=d#8 v=0
521679 On ch=1 n=d#7 v=0
521681 On ch=1 n=e8 v=0
521713 On ch=1 n=d#8 v=61
521783 On ch=1 n=d#8 v=0
521805 On ch=1 n=e8 v=34
521863 On ch=1 n=e8 v=0
521863 On ch=1 n=d#8 v=57
521889 On ch=1 n=d#7 v=68
521949 On ch=1 n=e8 v=50
521977 On ch=1 n=d#7 v=0
521981 On ch=1 n=d#8 v=0
522029 On ch=1 n=e8 v=0
522047 On ch=1 n=d#8 v=67
522095 On ch=1 n=d#8 v=0
522117 On ch=1 n=e8 v=42
522163 Par ch=1 c=64 v=127
522193 On ch=1 n=e8 v=0
522199 On ch=1 n=d#8 v=62
522202 On ch=1 n=c#7 v=70
522241 On ch=1 n=c#7 v=0
522285 On ch=1 n=e8 v=54
522317 On ch=1 n=d#8 v=0
522377 On ch=1 n=e8 v=0
522389 On ch=1 n=d#8 v=61
522417 On ch=1 n=g#5 v=50
522435 On ch=1 n=d#8 v=0
522457 On ch=1 n=e8 v=49
522463 On ch=1 n=g#5 v=0
522507 On ch=1 n=e8 v=0
522525 On ch=1 n=d#8 v=50
522533 On ch=1 n=b6 v=97
522535 On ch=1 n=d#7 v=58
522577 On ch=1 n=d#7 v=0
522603 On ch=1 n=b6 v=0
522609 On ch=1 n=e8 v=45
522659 On ch=1 n=e8 v=0
522687 Par ch=1 c=64 v=0
522779 On ch=1 n=e8 v=37
522793 On ch=1 n=d#8 v=0
522829 On ch=1 n=e8 v=0
522843 On ch=1 n=d#7 v=62
522865 On ch=1 n=d#8 v=61
522875 On ch=1 n=b6 v=89
522883 On ch=1 n=d#7 v=0
522927 On ch=1 n=d#8 v=0
522931 On ch=1 n=b6 v=0
522939 On ch=1 n=e8 v=33
522989 On ch=1 n=e8 v=0
522999 On ch=1 n=d#8 v=69
523077 On ch=1 n=e8 v=37
523111 On ch=1 n=d#8 v=0
523116 Par ch=1 c=64 v=127
523163 On ch=1 n=e8 v=0
523173 On ch=1 n=d#7 v=42
523197 On ch=1 n=d#8 v=45
523197 On ch=1 n=a#6 v=56
523225 On ch=1 n=d#7 v=0
523249 On ch=1 n=d#8 v=0
523249 On ch=1 n=e8 v=50
523263 On ch=1 n=a#6 v=0
523303 On ch=1 n=e8 v=0
523323 On ch=1 n=d#8 v=56
523331 Par ch=1 c=64 v=0
523421 On ch=1 n=e8 v=47
523445 On ch=1 n=d#8 v=0
523503 On ch=1 n=g#6 v=48
523511 On ch=1 n=d#8 v=71
523515 On ch=1 n=e8 v=0
523529 On ch=1 n=d#7 v=33
523539 On ch=1 n=b5 v=33
523557 On ch=1 n=d#8 v=0
523563 On ch=1 n=g#6 v=0
523593 On ch=1 n=d#7 v=0
523605 On ch=1 n=e8 v=52
523607 On ch=1 n=b5 v=0
523609 Par ch=1 c=64 v=127
523653 On ch=1 n=e8 v=0
523669 On ch=1 n=d#8 v=59
523747 On ch=1 n=e8 v=46
523755 On ch=1 n=d#8 v=0
523807 On ch=1 n=e8 v=0
523823 Par ch=1 c=64 v=0
523833 On ch=1 n=d#8 v=63
523839 On ch=1 n=d#7 v=43
523857 On ch=1 n=g6 v=55
523891 On ch=1 n=d#7 v=0
523919 On ch=1 n=d#8 v=0
523927 On ch=1 n=g6 v=0
523929 On ch=1 n=e8 v=54
523979 On ch=1 n=e8 v=0
523997 On ch=1 n=d#8 v=68
524079 On ch=1 n=e8 v=45
524109 On ch=1 n=d#8 v=0
524161 On ch=1 n=e8 v=0
524161 On ch=1 n=g#6 v=56
524173 On ch=1 n=d#7 v=38
524195 On ch=1 n=d#8 v=51
524227 On ch=1 n=d#7 v=0
524230 On ch=1 n=g#6 v=0
524251 On ch=1 n=d#8 v=0
524251 On ch=1 n=e8 v=52
524305 On ch=1 n=e8 v=0
524327 On ch=1 n=d#8 v=66
524407 On ch=1 n=e8 v=35
524423 On ch=1 n=d#8 v=0
524471 On ch=1 n=a#6 v=55
524483 On ch=1 n=d#7 v=46
524483 Par ch=1 c=64 v=127
524486 On ch=1 n=e8 v=0
524496 On ch=1 n=g6 v=46
524496 On ch=1 n=d#8 v=60
524526 On ch=1 n=d#7 v=0
524544 On ch=1 n=a#6 v=0
524558 On ch=1 n=e8 v=55
524560 On ch=1 n=d#8 v=0
524574 On ch=1 n=g6 v=0
524626 On ch=1 n=e8 v=0
524644 On ch=1 n=d#8 v=66
524708 On ch=1 n=e8 v=44
524712 On ch=1 n=d#8 v=0
524778 On ch=1 n=e8 v=0
524796 On ch=1 n=d#8 v=62
524798 On ch=1 n=d#7 v=49
524816 On ch=1 n=d#6 v=33
524848 On ch=1 n=d#7 v=0
524876 On ch=1 n=d#6 v=0
524906 On ch=1 n=e8 v=54
524932 On ch=1 n=d#8 v=0
524956 On ch=1 n=e8 v=0
524972 On ch=1 n=d#8 v=39
524988 Par ch=1 c=64 v=0
525056 On ch=1 n=e8 v=44
525094 On ch=1 n=d#8 v=0
525142 On ch=1 n=e8 v=0
525142 On ch=1 n=d#7 v=45
525156 On ch=1 n=d#6 v=48
525164 On ch=1 n=d#8 v=49
525194 On ch=1 n=d#7 v=0
525222 On ch=1 n=d#6 v=0
525232 On ch=1 n=d#8 v=0
525242 On ch=1 n=e8 v=49
525292 On ch=1 n=e8 v=0
525306 On ch=1 n=d#8 v=55
525370 On ch=1 n=e8 v=46
525382 On ch=1 n=d#8 v=0
525450 On ch=1 n=e8 v=0
525458 On ch=1 n=d#7 v=43
525463 On ch=1 n=d#8 v=58
525473 On ch=1 n=e6 v=55
525481 On ch=1 n=a#5 v=40
525507 Par ch=1 c=64 v=127
525509 On ch=1 n=d#7 v=0
525515 On ch=1 n=g5 v=24
525531 On ch=1 n=e6 v=0
525535 On ch=1 n=e8 v=54
525569 On ch=1 n=a#5 v=0
525571 On ch=1 n=d#8 v=0
525601 On ch=1 n=g5 v=0
525603 On ch=1 n=e8 v=0
525633 On ch=1 n=d#8 v=48
525695 On ch=1 n=e8 v=48
525705 On ch=1 n=d#8 v=0
525781 On ch=1 n=e8 v=0
525781 On ch=1 n=d#8 v=60
525793 On ch=1 n=d#7 v=38
525793 On ch=1 n=d#6 v=57
525845 On ch=1 n=d#7 v=0
525845 Par ch=1 c=64 v=0
525857 On ch=1 n=d#6 v=0
525875 On ch=1 n=e8 v=55
525931 On ch=1 n=e8 v=0
526031 On ch=1 n=e8 v=50
526065 On ch=1 n=d#8 v=0
526097 On ch=1 n=d#7 v=55
526107 On ch=1 n=e8 v=0
526109 On ch=1 n=c#6 v=48
526139 On ch=1 n=d#8 v=42
526141 On ch=1 n=d#7 v=0
526171 On ch=1 n=c#6 v=0
526197 On ch=1 n=d#8 v=0
526197 On ch=1 n=e8 v=46
526247 On ch=1 n=e8 v=0
526265 On ch=1 n=d#8 v=72
526349 On ch=1 n=e8 v=29
526389 On ch=1 n=d#8 v=0
526409 On ch=1 n=d#7 v=57
526412 On ch=1 n=e8 v=0
526419 On ch=1 n=b5 v=59
526429 Par ch=1 c=64 v=127
526435 On ch=1 n=g#5 v=43
526438 On ch=1 n=d#8 v=38
526457 On ch=1 n=d#7 v=0
526481 On ch=1 n=b5 v=0
526499 On ch=1 n=g#5 v=0
526513 On ch=1 n=e8 v=43
526531 On ch=1 n=d#8 v=0
526551 Par ch=1 c=64 v=0
526563 On ch=1 n=e8 v=0
526587 On ch=1 n=d#8 v=59
526667 On ch=1 n=e8 v=30
526715 On ch=1 n=d#8 v=0
526731 On ch=1 n=d#7 v=57
526734 On ch=1 n=e8 v=0
526734 On ch=1 n=b5 v=61
526745 On ch=1 n=g#5 v=41
526755 On ch=1 n=d#8 v=19
526767 Par ch=1 c=64 v=127
526775 On ch=1 n=d#7 v=0
526793 On ch=1 n=b5 v=0
526805 On ch=1 n=g#5 v=0
526823 On ch=1 n=e8 v=51
526841 On ch=1 n=d#8 v=0
526875 On ch=1 n=e8 v=0
526875 Par ch=1 c=64 v=0
526895 On ch=1 n=d#8 v=52
526979 On ch=1 n=e8 v=39
527015 On ch=1 n=d#8 v=0
527045 On ch=1 n=e8 v=0
527045 On ch=1 n=a#5 v=46
527045 On ch=1 n=d#7 v=57
527059 On ch=1 n=f#5 v=33
527067 On ch=1 n=d#8 v=39
527089 On ch=1 n=d#7 v=0
527107 On ch=1 n=a#5 v=0
527119 Par ch=1 c=64 v=127
527133 On ch=1 n=f#5 v=0
527159 On ch=1 n=d#8 v=0
527159 On ch=1 n=e8 v=30
527211 On ch=1 n=d#8 v=62
527214 On ch=1 n=e8 v=0
527273 Par ch=1 c=64 v=0
527285 On ch=1 n=e8 v=59
527335 On ch=1 n=d#8 v=0
527379 On ch=1 n=d#7 v=64
527387 On ch=1 n=e8 v=0
527387 On ch=1 n=d#8 v=62
527393 On ch=1 n=g#5 v=48
527421 On ch=1 n=d#7 v=0
527443 On ch=1 n=e5 v=22
527465 On ch=1 n=g#5 v=0
527475 On ch=1 n=e8 v=46
527505 Par ch=1 c=64 v=127
527515 On ch=1 n=e5 v=0
527531 On ch=1 n=e8 v=0
527621 On ch=1 n=e8 v=41
527643 On ch=1 n=d#8 v=0
527659 Par ch=1 c=64 v=0
527681 On ch=1 n=d#7 v=65
527695 On ch=1 n=e8 v=0
527711 On ch=1 n=d#8 v=66
527725 On ch=1 n=d#7 v=0
527737 On ch=1 n=g5 v=27
527801 On ch=1 n=e8 v=43
527809 On ch=1 n=d#8 v=0
527829 On ch=1 n=g5 v=0
527843 Par ch=1 c=64 v=127
527851 On ch=1 n=e8 v=0
527867 On ch=1 n=d#8 v=49
527935 On ch=1 n=e8 v=41
527949 Par ch=1 c=64 v=0
527983 On ch=1 n=d#8 v=0
528031 On ch=1 n=e8 v=0
528031 On ch=1 n=d#7 v=52
528051 On ch=1 n=g#5 v=35
528063 On ch=1 n=d#8 v=46
528077 On ch=1 n=d#7 v=0
528115 On ch=1 n=e8 v=52
528121 On ch=1 n=d#8 v=0
528127 On ch=1 n=g#5 v=0
528165 Par ch=1 c=64 v=127
528173 On ch=1 n=e8 v=0
528193 On ch=1 n=d#8 v=59
528257 Par ch=1 c=64 v=0
528275 On ch=1 n=e8 v=50
528319 On ch=1 n=d#8 v=0
528363 On ch=1 n=a#5 v=31
528373 On ch=1 n=d#7 v=49
528373 On ch=1 n=g5 v=23
528387 On ch=1 n=e8 v=0
528395 On ch=1 n=d#8 v=56
528419 On ch=1 n=d#7 v=0
528463 On ch=1 n=g5 v=0
528466 On ch=1 n=e8 v=48
528476 On ch=1 n=d#8 v=0
528500 Par ch=1 c=64 v=127
528526 On ch=1 n=e8 v=0
528552 On ch=1 n=d#8 v=50
528606 On ch=1 n=a#5 v=0
528624 On ch=1 n=e8 v=39
528628 On ch=1 n=d#8 v=0
528726 On ch=1 n=e8 v=0
528736 On ch=1 n=d#8 v=40
528752 On ch=1 n=d#7 v=18
528774 On ch=1 n=d#5 v=37
528816 On ch=1 n=d#7 v=0
528826 On ch=1 n=e8 v=37
528836 On ch=1 n=d#5 v=0
528852 On ch=1 n=d#8 v=0
528880 On ch=1 n=e8 v=0
528910 On ch=1 n=d#8 v=35
529000 On ch=1 n=e8 v=39
529008 On ch=1 n=d#8 v=0
529068 On ch=1 n=e8 v=0
529084 On ch=1 n=d#8 v=57
529102 On ch=1 n=d#7 v=33
529164 On ch=1 n=d#7 v=0
529167 On ch=1 n=d#8 v=0
529190 On ch=1 n=e8 v=48
529242 On ch=1 n=e8 v=0
529262 On ch=1 n=d#8 v=59
529328 On ch=1 n=d#5 v=36
529344 Par ch=1 c=64 v=0
529359 On ch=1 n=e8 v=42
529364 On ch=1 n=d#8 v=0
529416 On ch=1 n=d#5 v=0
529446 On ch=1 n=e8 v=0
529464 On ch=1 n=d#7 v=44
529466 On ch=1 n=d#8 v=43
529468 Par ch=1 c=64 v=127
529486 On ch=1 n=d#6 v=42
529514 On ch=1 n=d#7 v=0
529568 On ch=1 n=e8 v=39
529576 On ch=1 n=d#8 v=0
529618 On ch=1 n=e8 v=0
529621 On ch=1 n=d#6 v=0
529654 On ch=1 n=d#8 v=56
529728 On ch=1 n=e8 v=31
529731 On ch=1 n=d#8 v=0
529812 On ch=1 n=e8 v=0
529848 On ch=1 n=d#7 v=36
529848 On ch=1 n=d#8 v=43
529856 On ch=1 n=d#6 v=57
529906 On ch=1 n=d#7 v=0
529914 On ch=1 n=d#6 v=0
529936 On ch=1 n=e8 v=61
529938 On ch=1 n=d#8 v=0
530026 On ch=1 n=d#8 v=54
530110 On ch=1 n=d#8 v=0
530166 On ch=1 n=e8 v=0
530184 On ch=1 n=d#7 v=37
530204 On ch=1 n=c#6 v=48
530242 On ch=1 n=d#8 v=49
530246 On ch=1 n=d#7 v=0
530250 On ch=1 n=c#6 v=0
530302 On ch=1 n=d#8 v=0
530302 On ch=1 n=e8 v=57
530402 On ch=1 n=e8 v=0
530402 On ch=1 n=d#8 v=45
530498 Par ch=1 c=64 v=0
530504 On ch=1 n=g#4 v=36
530550 On ch=1 n=e8 v=66
530564 On ch=1 n=d#8 v=0
530570 On ch=1 n=g#4 v=0
530620 Par ch=1 c=64 v=127
530628 On ch=1 n=b5 v=59
530648 On ch=1 n=d#8 v=50
530680 On ch=1 n=e8 v=0
530738 On ch=1 n=b5 v=0
530740 On ch=1 n=d#7 v=51
530768 On ch=1 n=d#8 v=0
530798 On ch=1 n=d#7 v=0
530904 On ch=1 n=d#7 v=44
530936 On ch=1 n=b5 v=61
530987 On ch=1 n=d#7 v=0
530987 On ch=1 n=e7 v=57
530994 On ch=1 n=b5 v=0
531062 On ch=1 n=d#7 v=46
531072 On ch=1 n=e7 v=0
531136 On ch=1 n=d#7 v=0
531150 On ch=1 n=d#6 v=56
531198 On ch=1 n=d#6 v=0
531242 On ch=1 n=a#5 v=54
531254 On ch=1 n=d#7 v=44
531314 On ch=1 n=e7 v=49
531350 On ch=1 n=a#5 v=0
531362 On ch=1 n=e7 v=0
531366 On ch=1 n=d#7 v=0
531414 On ch=1 n=d#7 v=70
531496 Par ch=1 c=64 v=0
531518 On ch=1 n=d#7 v=0
531526 On ch=1 n=d#8 v=59
531536 On ch=1 n=g#5 v=44
531556 On ch=1 n=b4 v=41
531574 On ch=1 n=d#8 v=0
531577 On ch=1 n=e8 v=66
531634 On ch=1 n=b4 v=0
531650 Par ch=1 c=64 v=127
531662 On ch=1 n=d#8 v=50
531688 On ch=1 n=g#5 v=0
531702 On ch=1 n=e8 v=0
531716 On ch=1 n=d#8 v=0
531736 On ch=1 n=d#7 v=48
531782 On ch=1 n=d#7 v=0
531874 On ch=1 n=g5 v=55
531966 On ch=1 n=e7 v=32
531998 On ch=1 n=g5 v=0
532034 On ch=1 n=d#7 v=52
532054 On ch=1 n=e7 v=0
532112 On ch=1 n=d#7 v=0
532146 On ch=1 n=d#6 v=41
532204 On ch=1 n=d#6 v=0
532204 On ch=1 n=g#5 v=48
532242 On ch=1 n=d#7 v=52
532294 On ch=1 n=g#5 v=0
532302 On ch=1 n=e7 v=37
532346 On ch=1 n=d#7 v=0
532360 On ch=1 n=e7 v=0
532396 On ch=1 n=d#7 v=70
532508 On ch=1 n=d#7 v=0
532510 Par ch=1 c=64 v=0
532518 On ch=1 n=a#5 v=41
532523 On ch=1 n=d#8 v=65
532560 On ch=1 n=g5 v=33
532580 On ch=1 n=d#8 v=0
532588 On ch=1 n=e8 v=57
532672 On ch=1 n=g5 v=0
532680 On ch=1 n=d#8 v=57
532680 Par ch=1 c=64 v=127
532712 On ch=1 n=e8 v=0
532732 On ch=1 n=d#8 v=0
532744 On ch=1 n=a#5 v=0
532748 On ch=1 n=d#7 v=52
532798 On ch=1 n=d#7 v=0
532918 On ch=1 n=d#5 v=36
532970 On ch=1 n=d#5 v=0
532990 On ch=1 n=e7 v=46
533070 On ch=1 n=e7 v=0
533073 On ch=1 n=d#7 v=48
533126 On ch=1 n=d#7 v=0
533182 On ch=1 n=d#6 v=39
533238 On ch=1 n=d#6 v=0
533256 On ch=1 n=d#5 v=44
533280 On ch=1 n=d#7 v=45
533310 On ch=1 n=d#5 v=0
533366 On ch=1 n=e7 v=29
533398 On ch=1 n=d#7 v=0
533442 On ch=1 n=e7 v=0
533458 On ch=1 n=d#7 v=56
533556 Par ch=1 c=64 v=0
533572 On ch=1 n=d#7 v=0
533574 On ch=1 n=g#5 v=44
533588 On ch=1 n=d#8 v=53
533602 On ch=1 n=b4 v=36
533642 On ch=1 n=d#8 v=0
533656 On ch=1 n=e8 v=49
533714 On ch=1 n=g#5 v=0
533738 On ch=1 n=e8 v=0
533738 Par ch=1 c=64 v=127
533741 On ch=1 n=d#8 v=47
533768 On ch=1 n=b4 v=0
533804 On ch=1 n=d#8 v=0
533818 On ch=1 n=d#7 v=47
533868 On ch=1 n=d#7 v=0
533944 On ch=1 n=f#5 v=41
533978 On ch=1 n=c5 v=28
533978 On ch=1 n=d#7 v=23
534000 Par ch=1 c=64 v=0
534036 On ch=1 n=d#7 v=0
534036 On ch=1 n=e7 v=54
534076 On ch=1 n=f#5 v=0
534076 Par ch=1 c=64 v=127
534088 On ch=1 n=e7 v=0
534104 On ch=1 n=c5 v=0
534114 On ch=1 n=d#7 v=36
534226 On ch=1 n=d#7 v=0
534230 On ch=1 n=d#6 v=45
534262 Par ch=1 c=64 v=0
534282 On ch=1 n=d#6 v=0
534296 On ch=1 n=c#5 v=39
534310 On ch=1 n=e5 v=38
534326 On ch=1 n=d#7 v=31
534406 On ch=1 n=e5 v=0
534416 Par ch=1 c=64 v=127
534444 On ch=1 n=c#5 v=0
534446 On ch=1 n=e7 v=27
534486 On ch=1 n=d#7 v=0
534522 On ch=1 n=e7 v=0
534548 On ch=1 n=d#7 v=59
534568 Par ch=1 c=64 v=0
534612 On ch=1 n=d#7 v=0
534648 On ch=1 n=d#5 v=47
534678 On ch=1 n=d#8 v=55
534704 On ch=1 n=d#5 v=0
534750 On ch=1 n=d#8 v=0
534754 Par ch=1 c=64 v=127
534764 On ch=1 n=e8 v=51
534858 On ch=1 n=d#8 v=47
534884 On ch=1 n=e8 v=0
534952 On ch=1 n=d#7 v=41
534972 On ch=1 n=d#8 v=0
535016 On ch=1 n=d#7 v=0
535084 On ch=1 n=g#6 v=30
535088 On ch=1 n=b5 v=45
535146 On ch=1 n=g#6 v=0
535228 On ch=1 n=b6 v=68
535230 On ch=1 n=b5 v=0
535234 On ch=1 n=d#6 v=42
535282 On ch=1 n=b6 v=0
535364 On ch=1 n=d#6 v=0
535410 On ch=1 n=d#7 v=60
535413 On ch=1 n=g#6 v=50
535462 On ch=1 n=g#6 v=0
535466 On ch=1 n=d#7 v=0
535690 Par ch=1 c=64 v=0
535770 On ch=1 n=d#5 v=32
535782 On ch=1 n=d#8 v=52
535832 On ch=1 n=d#8 v=0
535834 On ch=1 n=d#5 v=0
535854 On ch=1 n=e8 v=42
535860 Par ch=1 c=64 v=127
535918 On ch=1 n=e8 v=0
535954 On ch=1 n=d#8 v=30
536034 On ch=1 n=d#8 v=0
536038 On ch=1 n=d#7 v=30
536102 On ch=1 n=d#7 v=0
536168 On ch=1 n=a#5 v=21
536178 On ch=1 n=g6 v=21
536266 On ch=1 n=g6 v=0
536332 On ch=1 n=a#6 v=42
536370 On ch=1 n=c#6 v=26
536382 On ch=1 n=a#5 v=0
536402 On ch=1 n=a#6 v=0
536444 On ch=1 n=c#6 v=0
536564 On ch=1 n=d#7 v=38
536580 On ch=1 n=g6 v=31
536660 On ch=1 n=g6 v=0
536736 On ch=1 n=d#7 v=0
536982 Par ch=1 c=64 v=0
536988 On ch=1 n=g#4 v=21
537182 Par ch=1 c=64 v=127
537318 On ch=1 n=d#5 v=23
537326 On ch=1 n=g#4 v=0
537408 On ch=1 n=b5 v=34
537550 On ch=1 n=g#6 v=38
537848 On ch=1 n=d#5 v=0
537878 On ch=1 n=b5 v=0
537970 On ch=1 n=g#6 v=0
538108 On ch=1 n=d#6 v=42
538184 On ch=1 n=d#6 v=0
538224 On ch=1 n=d#7 v=34
538312 On ch=1 n=d#7 v=0
538329 On ch=1 n=e7 v=38
538426 On ch=1 n=d#7 v=50
538438 On ch=1 n=e7 v=0
538470 On ch=1 n=d#7 v=0
538564 Par ch=1 c=64 v=0
538570 On ch=1 n=d#7 v=43
538696 On ch=1 n=d#7 v=0
538700 On ch=1 n=d#8 v=52
538764 Par ch=1 c=64 v=127
538776 On ch=1 n=d#8 v=0
538810 On ch=1 n=e8 v=45
538880 On ch=1 n=e8 v=0
538904 On ch=1 n=d#8 v=45
538956 On ch=1 n=d#8 v=0
538988 On ch=1 n=d#7 v=60
539048 On ch=1 n=d#7 v=0
539122 On ch=1 n=d#8 v=57
539174 On ch=1 n=d#8 v=0
539180 On ch=1 n=e8 v=62
539262 On ch=1 n=d#8 v=57
539268 On ch=1 n=e8 v=0
539340 On ch=1 n=d#8 v=0
539394 On ch=1 n=c#7 v=68
539484 On ch=1 n=c#8 v=42
539488 On ch=1 n=c#7 v=0
539584 On ch=1 n=d#8 v=68
539610 On ch=1 n=c#8 v=0
539674 On ch=1 n=c#8 v=57
539696 On ch=1 n=d#8 v=0
539756 On ch=1 n=c#8 v=0
539816 On ch=1 n=g#3 v=33
539818 On ch=1 n=g#2 v=26
539880 On ch=1 n=g#2 v=0
539922 On ch=1 n=g#3 v=0
539968 On ch=1 n=b7 v=53
540090 On ch=1 n=b7 v=0
540090 On ch=1 n=c#8 v=50
540186 On ch=1 n=b7 v=36
540216 On ch=1 n=c#8 v=0
540276 On ch=1 n=b7 v=0
540316 On ch=1 n=d#5 v=36
540326 On ch=1 n=b6 v=78
540358 On ch=1 n=d#4 v=16
540368 On ch=1 n=b6 v=0
540384 On ch=1 n=d#5 v=0
540384 On ch=1 n=b4 v=6
540428 On ch=1 n=b7 v=57
540450 On ch=1 n=b4 v=0
540458 On ch=1 n=d#4 v=0
540510 On ch=1 n=b7 v=0
540536 On ch=1 n=c#8 v=48
540604 On ch=1 n=b7 v=32
540644 On ch=1 n=c#8 v=0
540700 On ch=1 n=b7 v=0
540706 On ch=1 n=d#5 v=43
540716 On ch=1 n=b4 v=43
540730 On ch=1 n=g#4 v=39
540733 On ch=1 n=a#6 v=48
540756 On ch=1 n=d#5 v=0
540768 On ch=1 n=b4 v=0
540784 On ch=1 n=g#4 v=0
540787 On ch=1 n=a#6 v=0
540808 On ch=1 n=a#7 v=54
540912 On ch=1 n=b7 v=56
540922 On ch=1 n=a#7 v=0
540980 On ch=1 n=a#7 v=62
541008 On ch=1 n=b7 v=0
541090 On ch=1 n=a#7 v=0
541122 On ch=1 n=g#6 v=56
541130 Par ch=1 c=64 v=0
541134 On ch=1 n=b2 v=53
541134 On ch=1 n=b3 v=39
541178 On ch=1 n=g#6 v=0
541182 On ch=1 n=b2 v=0
541196 On ch=1 n=g#7 v=55
541198 On ch=1 n=b3 v=0
541254 Par ch=1 c=64 v=127
541284 On ch=1 n=a#7 v=54
541302 On ch=1 n=g#7 v=0
541370 On ch=1 n=g#7 v=57
541414 On ch=1 n=a#7 v=0
541484 On ch=1 n=d#5 v=38
541486 On ch=1 n=g6 v=75
541490 On ch=1 n=d#4 v=41
541494 On ch=1 n=g#7 v=0
541510 On ch=1 n=b4 v=22
541534 On ch=1 n=g6 v=0
541548 On ch=1 n=d#5 v=0
541576 On ch=1 n=g7 v=57
541578 On ch=1 n=b4 v=0
541586 On ch=1 n=d#4 v=0
541642 On ch=1 n=g7 v=0
541654 On ch=1 n=g#7 v=41
541740 On ch=1 n=g7 v=42
541756 On ch=1 n=g#7 v=0
541796 On ch=1 n=g7 v=0
541808 On ch=1 n=d#5 v=56
541832 On ch=1 n=b4 v=42
541846 On ch=1 n=g#4 v=33
541854 On ch=1 n=g#6 v=58
541860 On ch=1 n=d#5 v=0
541866 On ch=1 n=a#6 v=38
541882 On ch=1 n=b4 v=0
541902 On ch=1 n=g#4 v=0
541936 On ch=1 n=g#7 v=49
541938 On ch=1 n=g#6 v=0
541974 On ch=1 n=a#6 v=0
542018 On ch=1 n=a#7 v=52
542030 On ch=1 n=g#7 v=0
542096 On ch=1 n=g#7 v=56
542128 Par ch=1 c=64 v=0
542150 On ch=1 n=a#7 v=0
542174 On ch=1 n=d#3 v=52
542190 On ch=1 n=d#4 v=44
542192 On ch=1 n=a#6 v=63
542202 On ch=1 n=g#7 v=0
542240 On ch=1 n=d#3 v=0
542246 On ch=1 n=a#6 v=0
542266 On ch=1 n=d#4 v=0
542298 Par ch=1 c=64 v=127
542301 On ch=1 n=a#7 v=48
542382 On ch=1 n=b7 v=48
542402 On ch=1 n=a#7 v=0
542460 On ch=1 n=a#7 v=70
542492 On ch=1 n=b7 v=0
542510 On ch=1 n=a#7 v=0
542594 On ch=1 n=g5 v=37
542616 On ch=1 n=g4 v=26
542622 On ch=1 n=d#5 v=24
542648 On ch=1 n=d#6 v=53
542674 On ch=1 n=g5 v=0
542690 On ch=1 n=d#5 v=0
542698 On ch=1 n=d#6 v=0
542722 On ch=1 n=d#7 v=46
542750 On ch=1 n=g4 v=0
542804 On ch=1 n=e7 v=53
542806 On ch=1 n=d#7 v=0
542862 On ch=1 n=e7 v=0
542896 On ch=1 n=d#7 v=48
542940 On ch=1 n=g5 v=41
542948 On ch=1 n=a#4 v=35
542958 On ch=1 n=d#5 v=42
542994 On ch=1 n=d#6 v=58
543000 On ch=1 n=g5 v=0
543000 On ch=1 n=d#7 v=0
543008 On ch=1 n=d#5 v=0
543024 On ch=1 n=a#4 v=0
543056 On ch=1 n=d#6 v=0
543082 On ch=1 n=d#7 v=42
543162 On ch=1 n=e7 v=59
543196 On ch=1 n=d#7 v=0
543236 On ch=1 n=e7 v=0
543250 Par ch=1 c=64 v=0
543255 On ch=1 n=d#7 v=69
543302 On ch=1 n=g3 v=63
543316 On ch=1 n=g4 v=39
543336 On ch=1 n=d#7 v=0
543338 On ch=1 n=e6 v=58
543346 On ch=1 n=g3 v=0
543378 On ch=1 n=g4 v=0
543380 On ch=1 n=e6 v=0
543388 Par ch=1 c=64 v=127
543416 On ch=1 n=e7 v=63
543478 On ch=1 n=e7 v=0
543512 On ch=1 n=f#7 v=47
543562 On ch=1 n=e7 v=49
543570 On ch=1 n=f#7 v=0
543644 On ch=1 n=a#5 v=40
543666 On ch=1 n=e7 v=0
543668 On ch=1 n=d#6 v=67
543674 On ch=1 n=c#5 v=29
543698 On ch=1 n=d#5 v=27
543714 On ch=1 n=a#5 v=0
543742 On ch=1 n=c#5 v=0
543748 On ch=1 n=d#7 v=48
543751 On ch=1 n=d#6 v=0
543758 On ch=1 n=d#5 v=0
543834 On ch=1 n=e7 v=63
543850 On ch=1 n=d#7 v=0
543884 On ch=1 n=e7 v=0
543912 On ch=1 n=d#7 v=61
543952 On ch=1 n=d#7 v=0
543968 On ch=1 n=a#5 v=48
543990 On ch=1 n=c#7 v=12
544000 On ch=1 n=d#5 v=47
544000 On ch=1 n=c#6 v=70
544012 On ch=1 n=a#4 v=29
544018 On ch=1 n=a#5 v=0
544046 On ch=1 n=d#5 v=0
544072 On ch=1 n=a#4 v=0
544114 On ch=1 n=c#6 v=0
544170 On ch=1 n=d#7 v=58
544178 On ch=1 n=c#7 v=0
544240 On ch=1 n=c#7 v=78
544248 On ch=1 n=d#7 v=0
544280 Par ch=1 c=64 v=0
544298 On ch=1 n=c#7 v=0
544328 On ch=1 n=g#4 v=49
544336 On ch=1 n=g#3 v=54
544362 On ch=1 n=b5 v=64
544408 On ch=1 n=b5 v=0
544434 Par ch=1 c=64 v=127
544442 On ch=1 n=g#4 v=0
544442 On ch=1 n=b6 v=95
544448 On ch=1 n=g#3 v=0
544500 On ch=1 n=b6 v=0
544520 On ch=1 n=c#7 v=73
544622 On ch=1 n=b6 v=68
544648 On ch=1 n=c#7 v=0
544670 On ch=1 n=b6 v=0
544702 On ch=1 n=b5 v=66
544705 On ch=1 n=g#5 v=43
544716 On ch=1 n=d#5 v=44
544746 On ch=1 n=b5 v=0
544774 On ch=1 n=d#5 v=0
544778 On ch=1 n=g#5 v=0
544780 On ch=1 n=b6 v=83
544852 On ch=1 n=b6 v=0
544878 On ch=1 n=c#7 v=54
544928 On ch=1 n=b6 v=80
544954 On ch=1 n=c#7 v=0
545012 On ch=1 n=b6 v=0
545030 On ch=1 n=d#5 v=61
545040 On ch=1 n=a#5 v=67
545048 On ch=1 n=b4 v=39
545072 On ch=1 n=d#5 v=0
545098 On ch=1 n=b4 v=0
545106 On ch=1 n=a#5 v=0
545122 On ch=1 n=a#6 v=43
545208 On ch=1 n=b6 v=95
545254 On ch=1 n=b6 v=0
545328 On ch=1 n=a#6 v=0
545356 Par ch=1 c=64 v=0
545370 On ch=1 n=g#5 v=67
545382 On ch=1 n=e4 v=59
545390 On ch=1 n=e3 v=73
545436 On ch=1 n=g#6 v=2
545466 On ch=1 n=e3 v=0
545472 On ch=1 n=g#5 v=0
545508 On ch=1 n=e4 v=0
545508 Par ch=1 c=64 v=127
545522 On ch=1 n=a#6 v=57
545556 On ch=1 n=g#6 v=0
545616 On ch=1 n=g#6 v=64
545632 On ch=1 n=a#6 v=0
545664 On ch=1 n=g#6 v=0
545700 On ch=1 n=g5 v=72
545702 On ch=1 n=b4 v=37
545704 On ch=1 n=d5 v=58
545748 On ch=1 n=g5 v=0
545754 On ch=1 n=d5 v=0
545774 On ch=1 n=g6 v=76
545820 On ch=1 n=g6 v=0
545834 On ch=1 n=b4 v=0
545854 On ch=1 n=g#6 v=47
545932 On ch=1 n=g6 v=36
545976 On ch=1 n=g#6 v=0
545992 On ch=1 n=g6 v=0
546012 On ch=1 n=g#5 v=69
546020 On ch=1 n=a#4 v=49
546020 On ch=1 n=d5 v=49
546068 On ch=1 n=d5 v=0
546074 On ch=1 n=a#4 v=0
546074 On ch=1 n=g#5 v=0
546120 On ch=1 n=g#6 v=59
546188 On ch=1 n=g#6 v=0
546202 On ch=1 n=a#6 v=50
546262 On ch=1 n=g#6 v=51
546308 On ch=1 n=a#6 v=0
546308 Par ch=1 c=64 v=0
546344 On ch=1 n=a#5 v=52
546368 On ch=1 n=d#3 v=62
546371 On ch=1 n=d#4 v=59
546386 On ch=1 n=g#6 v=0
546422 On ch=1 n=a#5 v=0
546436 On ch=1 n=d#3 v=0
546446 Par ch=1 c=64 v=127
546448 On ch=1 n=d#4 v=0
546474 On ch=1 n=a#6 v=40
546576 On ch=1 n=a#6 v=0
546576 On ch=1 n=b6 v=59
546638 On ch=1 n=a#6 v=69
546666 On ch=1 n=b6 v=0
546740 On ch=1 n=a#6 v=0
546748 On ch=1 n=d#5 v=67
546770 On ch=1 n=a#4 v=31
546774 On ch=1 n=g4 v=22
546804 On ch=1 n=d#5 v=0
546832 On ch=1 n=d#6 v=66
546835 On ch=1 n=g4 v=0
546838 On ch=1 n=a#4 v=0
546910 On ch=1 n=e6 v=51
546912 On ch=1 n=d#6 v=0
546976 On ch=1 n=d#6 v=75
546990 On ch=1 n=e6 v=0
547012 On ch=1 n=d#6 v=0
547068 On ch=1 n=d#6 v=70
547082 On ch=1 n=g5 v=63
547085 On ch=1 n=a#5 v=60
547128 On ch=1 n=g5 v=0
547132 On ch=1 n=a#5 v=0
547166 On ch=1 n=d#7 v=72
547182 On ch=1 n=d#6 v=0
547244 On ch=1 n=d#7 v=0
547258 On ch=1 n=e7 v=49
547298 On ch=1 n=d#7 v=79
547310 On ch=1 n=e7 v=0
547366 On ch=1 n=d#7 v=0
547414 On ch=1 n=d#7 v=91
547417 On ch=1 n=g6 v=80
547428 On ch=1 n=a#6 v=67
547428 Par ch=1 c=64 v=0
547506 On ch=1 n=d#8 v=76
547564 On ch=1 n=d#7 v=0
547584 Par ch=1 c=64 v=127
547598 On ch=1 n=g6 v=0
547608 On ch=1 n=a#6 v=0
547610 On ch=1 n=e8 v=76
547632 On ch=1 n=d#8 v=0
547702 On ch=1 n=d#8 v=71
547760 On ch=1 n=e8 v=0
547820 On ch=1 n=d#7 v=83
547860 On ch=1 n=d#8 v=0
547890 Par ch=1 c=64 v=0
547928 On ch=1 n=d#8 v=69
547978 On ch=1 n=d#7 v=0
548014 Par ch=1 c=64 v=127
548060 On ch=1 n=e8 v=34
548063 On ch=1 n=d#8 v=0
548073 On ch=1 n=f8 v=30
548123 On ch=1 n=d#8 v=71
548145 On ch=1 n=f8 v=0
548145 On ch=1 n=e8 v=0
548221 On ch=1 n=d#8 v=0
548261 On ch=1 n=c#7 v=60
548323 On ch=1 n=c#7 v=0
548343 On ch=1 n=c#8 v=54
548445 On ch=1 n=d#8 v=62
548467 On ch=1 n=c#8 v=0
548541 On ch=1 n=c#8 v=53
548589 On ch=1 n=d#8 v=0
548657 On ch=1 n=c#8 v=0
548703 Par ch=1 c=64 v=0
548703 On ch=1 n=c7 v=72
548706 On ch=1 n=g#3 v=45
548765 On ch=1 n=g#3 v=0
548765 On ch=1 n=c7 v=0
548813 On ch=1 n=c8 v=69
548825 Par ch=1 c=64 v=127
548865 On ch=1 n=c8 v=0
548925 On ch=1 n=c#8 v=42
549013 On ch=1 n=c8 v=62
549059 On ch=1 n=c8 v=0
549059 On ch=1 n=c#8 v=0
549111 On ch=1 n=f#5 v=38
549117 On ch=1 n=c7 v=62
549133 On ch=1 n=d#5 v=39
549153 On ch=1 n=a4 v=19
549159 On ch=1 n=c7 v=0
549189 On ch=1 n=f#5 v=0
549189 On ch=1 n=c8 v=50
549195 On ch=1 n=d#5 v=0
549223 On ch=1 n=a4 v=0
549257 On ch=1 n=c8 v=0
549289 On ch=1 n=c#8 v=55
549345 On ch=1 n=c8 v=48
549409 On ch=1 n=c8 v=0
549419 On ch=1 n=c#8 v=0
549481 On ch=1 n=f#5 v=32
549493 On ch=1 n=a6 v=50
549496 On ch=1 n=a4 v=22
549513 On ch=1 n=d#5 v=35
549543 On ch=1 n=f#5 v=0
549546 On ch=1 n=a6 v=0
549565 On ch=1 n=a4 v=0
549565 On ch=1 n=d#5 v=0
549573 On ch=1 n=a7 v=45
549633 On ch=1 n=a7 v=0
549641 On ch=1 n=b7 v=57
549701 On ch=1 n=a7 v=49
549733 On ch=1 n=b7 v=0
549779 On ch=1 n=a7 v=0
549809 Par ch=1 c=64 v=0
549833 On ch=1 n=g#6 v=72
549845 On ch=1 n=c4 v=40
549899 On ch=1 n=c4 v=0
549913 On ch=1 n=g#6 v=0
549921 On ch=1 n=g#7 v=46
549963 Par ch=1 c=64 v=127
550009 On ch=1 n=a7 v=56
550041 On ch=1 n=g#7 v=0
550099 On ch=1 n=g#7 v=69
550111 On ch=1 n=a7 v=0
550185 On ch=1 n=g#7 v=0
550185 On ch=1 n=g#6 v=66
550197 On ch=1 n=d#5 v=30
550199 On ch=1 n=a4 v=21
550239 On ch=1 n=g#6 v=0
550259 On ch=1 n=d#5 v=0
550277 On ch=1 n=a4 v=0
550277 On ch=1 n=g#7 v=46
550367 On ch=1 n=a7 v=43
550459 On ch=1 n=a7 v=0
550499 On ch=1 n=g#7 v=0
550547 On ch=1 n=f#5 v=28
550557 On ch=1 n=f#6 v=57
550563 On ch=1 n=d#5 v=31
550589 On ch=1 n=a4 v=5
550615 On ch=1 n=f#5 v=0
550625 On ch=1 n=f#6 v=0
550625 On ch=1 n=d#5 v=0
550628 On ch=1 n=f#7 v=51
550659 On ch=1 n=a4 v=0
550719 On ch=1 n=g#7 v=58
550753 On ch=1 n=f#7 v=0
550811 On ch=1 n=f#7 v=68
550849 On ch=1 n=g#7 v=0
550931 On ch=1 n=f#7 v=0
550961 Par ch=1 c=64 v=0
550967 On ch=1 n=c#4 v=37
550987 On ch=1 n=e6 v=37
551039 On ch=1 n=e6 v=0
551071 On ch=1 n=e7 v=68
551097 On ch=1 n=c#4 v=0
551115 Par ch=1 c=64 v=127
551137 On ch=1 n=e7 v=0
551187 On ch=1 n=f#7 v=50
551279 On ch=1 n=e7 v=59
551293 On ch=1 n=f#7 v=0
551327 On ch=1 n=e7 v=0
551423 On ch=1 n=a5 v=30
551441 On ch=1 n=c#6 v=31
551447 On ch=1 n=e5 v=36
551493 On ch=1 n=c#7 v=39
551513 On ch=1 n=c#6 v=0
551513 On ch=1 n=a5 v=0
551579 On ch=1 n=d#7 v=53
551603 On ch=1 n=c#7 v=0
551689 On ch=1 n=e5 v=0
551691 On ch=1 n=c#7 v=44
551693 On ch=1 n=d#7 v=0
551773 On ch=1 n=c#7 v=0
551776 On ch=1 n=a5 v=35
551786 On ch=1 n=d#6 v=59
551812 On ch=1 n=c5 v=40
551848 On ch=1 n=d#6 v=0
551878 On ch=1 n=d#7 v=56
551918 On ch=1 n=a5 v=0
551964 On ch=1 n=e7 v=60
551992 On ch=1 n=d#7 v=0
552038 On ch=1 n=d#7 v=41
552078 On ch=1 n=e7 v=0
552078 On ch=1 n=c5 v=0
552100 On ch=1 n=c#5 v=55
552106 On ch=1 n=a5 v=47
552134 On ch=1 n=e6 v=51
552142 On ch=1 n=d#7 v=0
552182 On ch=1 n=e6 v=0
552220 On ch=1 n=e7 v=48
552264 On ch=1 n=a5 v=0
552278 On ch=1 n=e7 v=0
552288 On ch=1 n=f#7 v=63
552350 On ch=1 n=e7 v=47
552398 On ch=1 n=f#7 v=0
552456 On ch=1 n=f#5 v=46
552462 On ch=1 n=e7 v=0
552464 On ch=1 n=a5 v=40
552476 On ch=1 n=d#6 v=62
552524 Par ch=1 c=64 v=0
552538 On ch=1 n=c#5 v=0
552543 On ch=1 n=d#6 v=0
552552 On ch=1 n=d#7 v=47
552646 On ch=1 n=e7 v=65
552664 On ch=1 n=a5 v=0
552674 On ch=1 n=d#7 v=0
552694 Par ch=1 c=64 v=127
552708 On ch=1 n=e7 v=0
552732 On ch=1 n=d#7 v=60
552802 On ch=1 n=d#7 v=0
552830 On ch=1 n=a5 v=34
552832 On ch=1 n=e5 v=50
552842 On ch=1 n=f#5 v=0
552868 On ch=1 n=c#6 v=44
552922 On ch=1 n=c#6 v=0
552925 Par ch=1 c=64 v=0
552944 On ch=1 n=c#7 v=45
553034 On ch=1 n=a5 v=0
553048 On ch=1 n=d#7 v=54
553064 Par ch=1 c=64 v=127
553067 On ch=1 n=c#7 v=0
553134 On ch=1 n=d#5 v=49
553136 On ch=1 n=e5 v=0
553150 On ch=1 n=d#7 v=0
553156 On ch=1 n=c#7 v=54
553216 Par ch=1 c=64 v=0
553232 On ch=1 n=d#6 v=54
553238 On ch=1 n=c#7 v=0
553242 On ch=1 n=g#5 v=35
553262 On ch=1 n=b5 v=47
553298 On ch=1 n=d#6 v=0
553334 On ch=1 n=d#7 v=57
553388 On ch=1 n=d#7 v=0
553400 Par ch=1 c=64 v=127
553432 On ch=1 n=e6 v=42
553496 On ch=1 n=e6 v=0
553532 On ch=1 n=f6 v=63
553610 On ch=1 n=f6 v=0
553634 On ch=1 n=f#6 v=65
553648 On ch=1 n=g#5 v=0
553672 On ch=1 n=f#6 v=0
553706 On ch=1 n=g6 v=78
553728 On ch=1 n=b5 v=0
553764 On ch=1 n=g6 v=0
553788 On ch=1 n=g#6 v=62
553866 On ch=1 n=a6 v=74
553868 On ch=1 n=d#5 v=0
553892 On ch=1 n=g#6 v=0
553944 On ch=1 n=a#6 v=75
553976 On ch=1 n=a#6 v=0
553976 On ch=1 n=a6 v=0
554020 On ch=1 n=b6 v=83
554082 On ch=1 n=b6 v=0
554092 On ch=1 n=c7 v=73
554152 On ch=1 n=c7 v=0
554166 On ch=1 n=c#7 v=55
554220 On ch=1 n=c#7 v=0
554232 On ch=1 n=d7 v=69
554278 On ch=1 n=d7 v=0
554310 On ch=1 n=d#7 v=60
554358 On ch=1 n=d#7 v=0
554394 On ch=1 n=e7 v=73
554456 On ch=1 n=e7 v=0
554459 On ch=1 n=f7 v=73
554546 On ch=1 n=f#7 v=61
554568 On ch=1 n=f7 v=0
554590 On ch=1 n=f#7 v=0
554608 On ch=1 n=g7 v=81
554676 On ch=1 n=g7 v=0
554676 On ch=1 n=g#7 v=67
554738 Par ch=1 c=64 v=0
554766 On ch=1 n=a7 v=56
554796 On ch=1 n=g#7 v=0
554800 Par ch=1 c=64 v=127
554816 On ch=1 n=a#7 v=69
554846 On ch=1 n=a7 v=0
554849 On ch=1 n=a#7 v=0
554894 On ch=1 n=b7 v=76
554958 On ch=1 n=b7 v=0
554964 On ch=1 n=c8 v=74
554967 Par ch=1 c=64 v=0
555020 On ch=1 n=c8 v=0
555036 On ch=1 n=c#8 v=46
555074 On ch=1 n=d#4 v=21
555086 On ch=1 n=c#8 v=0
555114 On ch=1 n=d8 v=84
555142 On ch=1 n=c#5 v=24
555152 Par ch=1 c=64 v=127
555162 On ch=1 n=d8 v=0
555198 On ch=1 n=d#4 v=0
555202 On ch=1 n=d#8 v=41
555294 On ch=1 n=f#8 v=59
555308 On ch=1 n=d#8 v=0
555388 On ch=1 n=e8 v=49
555402 On ch=1 n=g5 v=25
555416 On ch=1 n=f#8 v=0
555480 On ch=1 n=e8 v=0
555494 On ch=1 n=c#8 v=25
555530 On ch=1 n=a#7 v=52
555554 On ch=1 n=c#8 v=0
555580 On ch=1 n=a#7 v=0
555608 On ch=1 n=g7 v=40
555674 On ch=1 n=g7 v=0
555730 On ch=1 n=d7 v=54
555818 On ch=1 n=d7 v=0
555844 On ch=1 n=d#7 v=49
555934 On ch=1 n=f#7 v=48
555952 On ch=1 n=d#7 v=0
556018 On ch=1 n=e7 v=51
556042 On ch=1 n=f#7 v=0
556108 On ch=1 n=c#7 v=56
556124 On ch=1 n=e7 v=0
556144 On ch=1 n=g5 v=0
556206 On ch=1 n=a#6 v=48
556218 On ch=1 n=c#7 v=0
556258 On ch=1 n=a#6 v=0
556290 On ch=1 n=g6 v=54
556302 On ch=1 n=c#5 v=0
556342 On ch=1 n=g6 v=0
556394 On ch=1 n=e6 v=55
556504 On ch=1 n=c#6 v=48
556510 On ch=1 n=e6 v=0
556570 On ch=1 n=c#6 v=0
556592 On ch=1 n=a#5 v=49
556668 On ch=1 n=a#5 v=0
556678 On ch=1 n=g5 v=57
556732 On ch=1 n=g5 v=0
556798 On ch=1 n=e5 v=59
556874 On ch=1 n=c#5 v=52
556877 On ch=1 n=e5 v=0
556956 On ch=1 n=a#4 v=48
556986 On ch=1 n=c#5 v=0
557044 On ch=1 n=g4 v=71
557050 On ch=1 n=a#4 v=0
557104 On ch=1 n=g4 v=0
557120 On ch=1 n=g#3 v=48
557230 On ch=1 n=d#4 v=48
557242 Par ch=1 c=64 v=0
557312 On ch=1 n=g#4 v=52
557422 On ch=1 n=b4 v=52
557425 On ch=1 n=g#3 v=0
557448 On ch=1 n=d#4 v=0
557454 On ch=1 n=g#4 v=0
557472 Par ch=1 c=64 v=127
557526 On ch=1 n=d#5 v=61
557554 On ch=1 n=b4 v=0
557598 On ch=1 n=d#5 v=0
557644 On ch=1 n=g#5 v=46
557696 On ch=1 n=g#5 v=0
557784 On ch=1 n=b5 v=41
557884 On ch=1 n=d#6 v=41
558006 On ch=1 n=g#6 v=53
558132 On ch=1 n=b6 v=65
558232 On ch=1 n=b6 v=0
558252 On ch=1 n=d#7 v=42
558332 On ch=1 n=d#7 v=0
558438 On ch=1 n=b7 v=36
558562 On ch=1 n=b7 v=0
558598 On ch=1 n=g#7 v=37
559364 On ch=1 n=g#6 v=0
559438 On ch=1 n=b5 v=0
559454 On ch=1 n=g#7 v=0
559498 On ch=1 n=d#6 v=0
559808 Par ch=1 c=64 v=0
560265 On ch=1 n=b6 v=58
560271 On ch=1 n=b5 v=33
560275 On ch=1 n=g#5 v=22
560327 On ch=1 n=b6 v=0
560353 On ch=1 n=b5 v=0
560355 On ch=1 n=g#5 v=0
560489 On ch=1 n=b6 v=75
560501 On ch=1 n=b5 v=47
560509 On ch=1 n=a#5 v=21
560515 On ch=1 n=g5 v=39
560567 On ch=1 n=b5 v=0
560567 On ch=1 n=b6 v=0
560579 On ch=1 n=g5 v=0
560593 On ch=1 n=a#5 v=0
560669 On ch=1 n=b6 v=84
560681 On ch=1 n=b5 v=55
560687 On ch=1 n=a5 v=30
560699 On ch=1 n=f#5 v=32
560741 On ch=1 n=b5 v=0
560755 On ch=1 n=b6 v=0
560759 On ch=1 n=a5 v=0
560761 On ch=1 n=f#5 v=0
560841 On ch=1 n=b6 v=85
560849 On ch=1 n=g#5 v=46
560857 On ch=1 n=b5 v=58
560865 On ch=1 n=f5 v=45
560907 On ch=1 n=g#5 v=0
560915 On ch=1 n=f5 v=0
560917 On ch=1 n=b5 v=0
560931 On ch=1 n=b6 v=0
561023 On ch=1 n=b6 v=91
561031 On ch=1 n=g5 v=45
561039 On ch=1 n=b5 v=61
561039 On ch=1 n=e5 v=45
561089 On ch=1 n=e5 v=0
561095 On ch=1 n=g5 v=0
561097 On ch=1 n=b5 v=0
561119 On ch=1 n=b6 v=0
561245 On ch=1 n=b6 v=95
561279 On ch=1 n=c4 v=19
561283 On ch=1 n=b6 v=0
561333 Par ch=1 c=64 v=127
561345 On ch=1 n=c4 v=0
561411 On ch=1 n=d#5 v=64
561413 On ch=1 n=f#5 v=61
561453 On ch=1 n=d#5 v=0
561475 On ch=1 n=f#5 v=0
561533 On ch=1 n=f#6 v=55
561535 Par ch=1 c=64 v=0
561539 On ch=1 n=f#4 v=58
561553 On ch=1 n=b4 v=37
561567 On ch=1 n=b5 v=46
561595 On ch=1 n=f#6 v=0
561605 On ch=1 n=b4 v=0
561613 On ch=1 n=f#4 v=0
561625 On ch=1 n=b5 v=0
561647 On ch=1 n=f#5 v=56
561647 On ch=1 n=d#5 v=59
561689 On ch=1 n=d#5 v=0
561693 On ch=1 n=f#5 v=0
561791 On ch=1 n=b6 v=96
561793 On ch=1 n=b3 v=38
561825 On ch=1 n=b6 v=0
561861 On ch=1 n=b3 v=0
561903 On ch=1 n=d#5 v=72
561921 On ch=1 n=f#5 v=54
561943 On ch=1 n=d#5 v=0
561969 On ch=1 n=f#5 v=0
562069 On ch=1 n=c#7 v=89
562085 On ch=1 n=f#3 v=57
562103 On ch=1 n=c#7 v=0
562131 On ch=1 n=f#3 v=0
562149 Par ch=1 c=64 v=127
562167 On ch=1 n=a#6 v=5
562211 On ch=1 n=a#6 v=0
562221 On ch=1 n=f#5 v=57
562273 On ch=1 n=f#5 v=0
562327 On ch=1 n=f#6 v=63
562343 On ch=1 n=f#4 v=56
562353 On ch=1 n=c#6 v=44
562355 On ch=1 n=a#4 v=38
562407 On ch=1 n=c#6 v=0
562407 On ch=1 n=f#4 v=0
562410 Par ch=1 c=64 v=0
562415 On ch=1 n=f#6 v=0
562417 On ch=1 n=a#4 v=0
562455 On ch=1 n=f#5 v=42
562515 On ch=1 n=f#5 v=0
562573 On ch=1 n=f#3 v=79
562585 On ch=1 n=c#7 v=89
562611 On ch=1 n=f#3 v=0
562623 On ch=1 n=c#7 v=0
562727 On ch=1 n=f#5 v=66
562743 On ch=1 n=e5 v=40
562771 On ch=1 n=f#5 v=0
562799 On ch=1 n=e5 v=0
562893 On ch=1 n=d#7 v=78
562915 On ch=1 n=b3 v=44
562927 On ch=1 n=d#7 v=0
562949 On ch=1 n=c#7 v=28
562975 On ch=1 n=b3 v=0
562995 Par ch=1 c=64 v=127
563021 On ch=1 n=c#7 v=0
563049 On ch=1 n=d#5 v=71
563055 On ch=1 n=f#5 v=68
563103 On ch=1 n=f#5 v=0
563109 On ch=1 n=d#5 v=0
563177 On ch=1 n=d#6 v=69
563203 On ch=1 n=f#4 v=30
563213 On ch=1 n=d#6 v=0
563271 On ch=1 n=f#4 v=0
563313 On ch=1 n=b6 v=106
563355 On ch=1 n=b6 v=0
563361 On ch=1 n=b3 v=30
563433 On ch=1 n=b3 v=0
563447 On ch=1 n=f#3 v=62
563463 On ch=1 n=d#7 v=78
563489 On ch=1 n=f#3 v=0
563513 On ch=1 n=d#7 v=0
563607 On ch=1 n=b7 v=93
563609 On ch=1 n=b2 v=75
563647 On ch=1 n=b2 v=0
563691 On ch=1 n=b7 v=0
563977 Par ch=1 c=64 v=0
564201 On ch=1 n=d#7 v=55
564204 On ch=1 n=d#6 v=55
564223 On ch=1 n=b5 v=48
564259 On ch=1 n=d#6 v=0
564259 On ch=1 n=d#7 v=0
564279 On ch=1 n=b5 v=0
564359 On ch=1 n=d6 v=42
564377 On ch=1 n=d#7 v=54
564380 On ch=1 n=d#6 v=49
564425 On ch=1 n=d#7 v=0
564427 On ch=1 n=d6 v=0
564433 On ch=1 n=d#6 v=0
564495 On ch=1 n=a#5 v=44
564505 On ch=1 n=c#6 v=50
564519 On ch=1 n=d#7 v=52
564521 On ch=1 n=d#6 v=56
564555 On ch=1 n=c#6 v=0
564555 On ch=1 n=a#5 v=0
564573 On ch=1 n=d#7 v=0
564583 On ch=1 n=d#6 v=0
564651 On ch=1 n=d#7 v=67
564659 On ch=1 n=c6 v=65
564661 On ch=1 n=d#6 v=63
564671 On ch=1 n=a5 v=54
564703 On ch=1 n=c6 v=0
564727 On ch=1 n=a5 v=0
564729 On ch=1 n=d#6 v=0
564741 On ch=1 n=d#7 v=0
564787 On ch=1 n=g#5 v=65
564797 On ch=1 n=d#7 v=81
564805 On ch=1 n=d#6 v=68
564827 On ch=1 n=g#5 v=0
564893 On ch=1 n=d#7 v=0
564903 On ch=1 n=d#6 v=0
564967 On ch=1 n=d#7 v=70
564987 On ch=1 n=d#4 v=70
565031 On ch=1 n=d#4 v=0
565053 Par ch=1 c=64 v=127
565057 On ch=1 n=d#7 v=0
565111 On ch=1 n=f#5 v=63
565125 On ch=1 n=a#5 v=68
565161 On ch=1 n=f#5 v=0
565241 On ch=1 n=a#5 v=0
565241 On ch=1 n=a#6 v=61
565249 On ch=1 n=d#5 v=62
565257 On ch=1 n=a#4 v=36
565271 On ch=1 n=d#6 v=40
565295 On ch=1 n=d#5 v=0
565307 On ch=1 n=a#6 v=0
565323 On ch=1 n=d#6 v=0
565325 On ch=1 n=a#4 v=0
565329 Par ch=1 c=64 v=0
565345 On ch=1 n=f#5 v=54
565353 On ch=1 n=a#5 v=56
565393 On ch=1 n=f#5 v=0
565397 On ch=1 n=a#5 v=0
565481 On ch=1 n=d#7 v=86
565481 On ch=1 n=d#4 v=79
565515 On ch=1 n=d#7 v=0
565535 On ch=1 n=d#4 v=0
565589 On ch=1 n=a#5 v=77
565595 On ch=1 n=f#5 v=60
565639 On ch=1 n=f#5 v=0
565641 On ch=1 n=a#5 v=0
565743 On ch=1 n=a#3 v=78
565745 On ch=1 n=f7 v=92
565777 On ch=1 n=f7 v=0
565785 On ch=1 n=a#3 v=0
565805 Par ch=1 c=64 v=127
565871 On ch=1 n=a#5 v=80
565893 On ch=1 n=g#5 v=62
565929 On ch=1 n=a#5 v=0
565953 On ch=1 n=g#5 v=0
565995 On ch=1 n=a#6 v=67
566005 On ch=1 n=a#4 v=46
566019 On ch=1 n=f6 v=58
566035 On ch=1 n=d5 v=33
566061 On ch=1 n=f6 v=0
566063 On ch=1 n=a#6 v=0
566067 Par ch=1 c=64 v=0
566069 On ch=1 n=a#4 v=0
566089 On ch=1 n=g#5 v=59
566092 On ch=1 n=d5 v=0
566101 On ch=1 n=a#5 v=62
566133 On ch=1 n=g#5 v=0
566143 On ch=1 n=a#5 v=0
566221 On ch=1 n=a#3 v=84
566237 On ch=1 n=f7 v=91
566255 On ch=1 n=a#3 v=0
566269 On ch=1 n=f7 v=0
566359 On ch=1 n=g#5 v=65
566359 On ch=1 n=a#5 v=69
566399 On ch=1 n=g#5 v=0
566401 On ch=1 n=a#5 v=0
566503 On ch=1 n=f#7 v=83
566523 On ch=1 n=d#4 v=73
566537 On ch=1 n=f#7 v=0
566563 On ch=1 n=d#4 v=0
566631 On ch=1 n=a#5 v=73
566634 Par ch=1 c=64 v=127
566644 On ch=1 n=f#5 v=55
566702 On ch=1 n=a#5 v=0
566734 On ch=1 n=f#5 v=0
566764 On ch=1 n=f#6 v=71
566767 On ch=1 n=a#4 v=42
566798 On ch=1 n=f#6 v=0
566826 On ch=1 n=a#4 v=0
566884 On ch=1 n=d#7 v=90
566906 On ch=1 n=d#4 v=70
566954 On ch=1 n=d#4 v=0
566960 On ch=1 n=d#7 v=0
567040 On ch=1 n=f#7 v=81
567058 On ch=1 n=a#3 v=32
567082 On ch=1 n=f#7 v=0
567134 On ch=1 n=a#3 v=0
567190 On ch=1 n=d#3 v=64
567194 On ch=1 n=d#8 v=90
567228 On ch=1 n=d#3 v=0
567230 On ch=1 n=d#8 v=0
567600 Par ch=1 c=64 v=0
567776 On ch=1 n=d#6 v=50
567780 On ch=1 n=f#7 v=47
567784 On ch=1 n=f#6 v=45
567834 On ch=1 n=f#7 v=0
567840 On ch=1 n=f#6 v=0
567846 On ch=1 n=d#6 v=0
567918 On ch=1 n=f#7 v=41
567920 On ch=1 n=f6 v=55
567922 On ch=1 n=d6 v=57
567926 On ch=1 n=f#6 v=47
567970 On ch=1 n=f6 v=0
567972 On ch=1 n=d6 v=0
567976 On ch=1 n=f#7 v=0
567984 On ch=1 n=f#6 v=0
568062 On ch=1 n=f#7 v=56
568062 On ch=1 n=c#6 v=60
568065 On ch=1 n=f#6 v=62
568094 On ch=1 n=e6 v=25
568114 On ch=1 n=c#6 v=0
568126 On ch=1 n=f#7 v=0
568130 On ch=1 n=f#6 v=0
568164 On ch=1 n=e6 v=0
568194 On ch=1 n=f#7 v=72
568198 On ch=1 n=d#6 v=76
568200 On ch=1 n=f#6 v=68
568234 On ch=1 n=c6 v=48
568236 On ch=1 n=d#6 v=0
568276 On ch=1 n=f#7 v=0
568276 On ch=1 n=f#6 v=0
568290 On ch=1 n=c6 v=0
568346 On ch=1 n=f#7 v=76
568354 On ch=1 n=d6 v=48
568356 On ch=1 n=b5 v=62
568356 On ch=1 n=f#6 v=73
568402 On ch=1 n=b5 v=0
568404 On ch=1 n=d6 v=0
568436 On ch=1 n=f#7 v=0
568458 On ch=1 n=f#6 v=0
568524 On ch=1 n=f#7 v=66
568530 On ch=1 n=f#4 v=88
568578 On ch=1 n=f#4 v=0
568598 Par ch=1 c=64 v=127
568624 On ch=1 n=f#7 v=0
568670 On ch=1 n=a#5 v=56
568674 On ch=1 n=c#6 v=72
568730 On ch=1 n=a#5 v=0
568740 On ch=1 n=c#6 v=0
568776 On ch=1 n=c#7 v=66
568788 On ch=1 n=c#5 v=58
568796 On ch=1 n=f#6 v=59
568838 On ch=1 n=c#5 v=0
568841 On ch=1 n=f#6 v=0
568872 On ch=1 n=c#7 v=0
568886 On ch=1 n=a#5 v=56
568894 On ch=1 n=c#6 v=70
568934 On ch=1 n=a#5 v=0
568937 On ch=1 n=c#6 v=0
569026 On ch=1 n=f#7 v=88
569032 On ch=1 n=f#4 v=81
569064 On ch=1 n=f#7 v=0
569082 On ch=1 n=f#4 v=0
569140 On ch=1 n=c#6 v=73
569150 On ch=1 n=a#5 v=52
569184 On ch=1 n=c#6 v=0
569198 On ch=1 n=a#5 v=0
569198 Par ch=1 c=64 v=0
569306 On ch=1 n=g#7 v=86
569309 On ch=1 n=c#4 v=78
569340 On ch=1 n=g#7 v=0
569346 On ch=1 n=c#4 v=0
569382 Par ch=1 c=64 v=127
569454 On ch=1 n=c#6 v=57
569466 On ch=1 n=b5 v=48
569502 On ch=1 n=c#6 v=0
569528 On ch=1 n=b5 v=0
569556 On ch=1 n=c#7 v=61
569580 On ch=1 n=c#5 v=52
569580 On ch=1 n=g#6 v=53
569596 On ch=1 n=f5 v=37
569630 On ch=1 n=g#6 v=0
569648 On ch=1 n=c#7 v=0
569650 On ch=1 n=f5 v=0
569676 On ch=1 n=c#5 v=0
569680 On ch=1 n=c#6 v=68
569696 On ch=1 n=b5 v=29
569724 On ch=1 n=c#6 v=0
569762 On ch=1 n=b5 v=0
569828 On ch=1 n=g#7 v=90
569828 On ch=1 n=c#4 v=80
569862 On ch=1 n=g#7 v=0
569868 On ch=1 n=c#4 v=0
569936 On ch=1 n=d#6 v=63
569976 On ch=1 n=b5 v=75
569979 On ch=1 n=d#6 v=0
570018 On ch=1 n=b5 v=0
570182 Par ch=1 c=64 v=0
570234 On ch=1 n=a#7 v=82
570240 On ch=1 n=c#7 v=83
570248 On ch=1 n=f#7 v=57
570248 On ch=1 n=f#4 v=90
570280 On ch=1 n=c#7 v=0
570282 On ch=1 n=a#7 v=0
570282 On ch=1 n=f#4 v=0
570298 On ch=1 n=f#7 v=0
570368 On ch=1 n=c#7 v=58
570378 On ch=1 n=g#7 v=61
570378 On ch=1 n=b7 v=70
570396 Par ch=1 c=64 v=127
570420 On ch=1 n=b7 v=0
570420 On ch=1 n=c#7 v=0
570432 On ch=1 n=g#7 v=0
570520 On ch=1 n=c#5 v=81
570520 On ch=1 n=c#8 v=75
570523 On ch=1 n=c#7 v=60
570548 On ch=1 n=a#7 v=37
570562 On ch=1 n=c#8 v=0
570568 On ch=1 n=c#7 v=0
570582 On ch=1 n=c#5 v=0
570606 On ch=1 n=a#7 v=0
570634 On ch=1 n=c#8 v=70
570656 On ch=1 n=a#5 v=60
570676 On ch=1 n=g#7 v=41
570696 On ch=1 n=c#8 v=0
570704 On ch=1 n=a#5 v=0
570734 On ch=1 n=g#7 v=0
570790 On ch=1 n=b7 v=63
570816 On ch=1 n=f#6 v=60
570826 On ch=1 n=c#7 v=19
570836 On ch=1 n=b7 v=0
570862 On ch=1 n=f#6 v=0
570892 On ch=1 n=c#7 v=0
570910 On ch=1 n=a#6 v=60
570910 On ch=1 n=a#7 v=73
570958 On ch=1 n=a#6 v=0
570970 On ch=1 n=c#7 v=4
571026 Par ch=1 c=64 v=0
571042 On ch=1 n=c#7 v=0
571046 On ch=1 n=a#7 v=0
571158 On ch=1 n=g#7 v=72
571158 On ch=1 n=b6 v=103
571158 On ch=1 n=b3 v=91
571176 On ch=1 n=d#7 v=54
571190 On ch=1 n=b3 v=0
571206 On ch=1 n=b6 v=0
571222 On ch=1 n=d#7 v=0
571256 Par ch=1 c=64 v=127
571300 On ch=1 n=a#7 v=63
571318 On ch=1 n=c#7 v=52
571356 On ch=1 n=a#7 v=0
571370 On ch=1 n=c#7 v=0
571370 On ch=1 n=g#7 v=0
571446 On ch=1 n=b7 v=78
571450 On ch=1 n=b4 v=65
571456 On ch=1 n=d#7 v=50
571488 On ch=1 n=b7 v=0
571500 On ch=1 n=b4 v=0
571504 On ch=1 n=d#7 v=0
571570 On ch=1 n=b7 v=51
571586 On ch=1 n=c#7 v=63
571589 On ch=1 n=g#5 v=57
571616 On ch=1 n=b7 v=0
571630 On ch=1 n=c#7 v=0
571638 On ch=1 n=g#5 v=0
571710 On ch=1 n=c#7 v=51
571728 On ch=1 n=d#6 v=50
571752 On ch=1 n=c#7 v=0
571790 On ch=1 n=d#6 v=0
571832 On ch=1 n=g#7 v=62
571848 On ch=1 n=b6 v=87
571894 On ch=1 n=b6 v=0
571896 On ch=1 n=g#7 v=0
571918 Par ch=1 c=64 v=0
572002 On ch=1 n=c#7 v=59
572004 On ch=1 n=f#7 v=67
572010 On ch=1 n=a#6 v=60
572016 On ch=1 n=c#4 v=83
572048 On ch=1 n=c#7 v=0
572060 On ch=1 n=f#7 v=0
572070 On ch=1 n=c#4 v=0
572114 On ch=1 n=a#6 v=0
572132 On ch=1 n=g#7 v=76
572132 Par ch=1 c=64 v=127
572135 On ch=1 n=c#7 v=45
572146 On ch=1 n=b6 v=78
572174 On ch=1 n=g#7 v=0
572186 On ch=1 n=c#7 v=0
572188 On ch=1 n=b6 v=0
572276 On ch=1 n=c#7 v=62
572276 On ch=1 n=a#7 v=74
572282 On ch=1 n=a#4 v=48
572312 On ch=1 n=a#7 v=0
572326 On ch=1 n=c#7 v=0
572356 On ch=1 n=a#4 v=0
572402 On ch=1 n=c#7 v=60
572412 On ch=1 n=a#7 v=42
572428 On ch=1 n=f#5 v=45
572462 On ch=1 n=a#7 v=0
572465 On ch=1 n=c#7 v=0
572492 On ch=1 n=f#5 v=0
572557 On ch=1 n=b6 v=88
572557 On ch=1 n=g#7 v=60
572561 On ch=1 n=c#6 v=48
572596 On ch=1 n=b6 v=0
572606 On ch=1 n=g#7 v=0
572614 On ch=1 n=c#6 v=0
572672 On ch=1 n=a#6 v=84
572676 On ch=1 n=f#6 v=72
572682 On ch=1 n=f#7 v=68
572702 On ch=1 n=c#7 v=42
572712 On ch=1 n=f#6 v=0
572728 On ch=1 n=a#6 v=0
572728 On ch=1 n=f#7 v=0
572754 On ch=1 n=c#7 v=0
572762 Par ch=1 c=64 v=0
572814 On ch=1 n=c#7 v=59
572818 On ch=1 n=f7 v=73
572824 On ch=1 n=g#6 v=79
572830 On ch=1 n=c#5 v=75
572864 On ch=1 n=c#7 v=0
572866 On ch=1 n=f7 v=0
572880 On ch=1 n=g#6 v=0
572888 On ch=1 n=c#5 v=0
572946 On ch=1 n=g#6 v=64
572946 Par ch=1 c=64 v=127
572956 On ch=1 n=f#7 v=64
572962 On ch=1 n=c#7 v=38
572980 On ch=1 n=a#6 v=33
573010 On ch=1 n=f#7 v=0
573018 On ch=1 n=c#7 v=0
573026 On ch=1 n=g#6 v=0
573064 On ch=1 n=a#6 v=0
573090 On ch=1 n=f6 v=62
573096 On ch=1 n=c#7 v=57
573102 On ch=1 n=g#7 v=66
573108 On ch=1 n=b6 v=94
573142 On ch=1 n=c#7 v=0
573142 On ch=1 n=f6 v=0
573144 On ch=1 n=g#7 v=0
573146 On ch=1 n=b6 v=0
573204 On ch=1 n=g#7 v=58
573214 On ch=1 n=b6 v=92
573222 On ch=1 n=c#7 v=50
573232 On ch=1 n=g#5 v=52
573260 On ch=1 n=b6 v=0
573266 On ch=1 n=c#7 v=0
573282 On ch=1 n=g#7 v=0
573282 On ch=1 n=g#5 v=0
573334 On ch=1 n=b6 v=73
573344 On ch=1 n=a#6 v=39
573372 On ch=1 n=f#7 v=45
573388 On ch=1 n=c#5 v=42
573416 On ch=1 n=b6 v=0
573418 On ch=1 n=a#6 v=0
573440 On ch=1 n=f#7 v=0
573443 On ch=1 n=c#5 v=0
573446 On ch=1 n=b5 v=43
573474 On ch=1 n=f7 v=79
573510 On ch=1 n=b5 v=0
573536 On ch=1 n=f7 v=0
573576 Par ch=1 c=64 v=0
573606 On ch=1 n=a#5 v=60
573611 On ch=1 n=f#7 v=90
573620 On ch=1 n=f#6 v=74
573622 On ch=1 n=f#5 v=50
573630 On ch=1 n=c#7 v=67
573708 On ch=1 n=a#5 v=0
573750 On ch=1 n=f#5 v=0
573768 On ch=1 n=f#6 v=0
573776 Par ch=1 c=64 v=127
573818 On ch=1 n=c#7 v=0
573866 On ch=1 n=f#7 v=0
573902 On ch=1 n=f#4 v=68
573902 On ch=1 n=f#3 v=66
573940 On ch=1 n=f#3 v=0
573943 On ch=1 n=f#4 v=0
573992 Par ch=1 c=64 v=0
573994 On ch=1 n=f#3 v=76
574004 On ch=1 n=f#4 v=76
574042 On ch=1 n=f#3 v=0
574050 On ch=1 n=f#4 v=0
574136 On ch=1 n=g3 v=75
574140 On ch=1 n=g4 v=72
574174 On ch=1 n=g3 v=0
574182 On ch=1 n=g4 v=0
574230 On ch=1 n=g3 v=83
574242 On ch=1 n=g4 v=78
574320 On ch=1 n=g3 v=0
574332 On ch=1 n=g4 v=0
574394 On ch=1 n=g#3 v=88
574402 On ch=1 n=g#4 v=87
574486 On ch=1 n=g#4 v=0
574496 On ch=1 n=g#3 v=0
574542 On ch=1 n=g#4 v=72
574546 On ch=1 n=g#3 v=92
574590 On ch=1 n=g#4 v=0
574612 On ch=1 n=g#3 v=0
574632 On ch=1 n=g#5 v=68
574635 On ch=1 n=g#4 v=70
574674 On ch=1 n=g#5 v=0
574678 On ch=1 n=g#4 v=0
574760 On ch=1 n=g#5 v=55
574914 On ch=1 n=g#6 v=84
574950 On ch=1 n=g#6 v=0
574972 On ch=1 n=g#5 v=0
575012 On ch=1 n=g#6 v=59
575028 On ch=1 n=g#5 v=68
575072 On ch=1 n=g#5 v=0
575084 On ch=1 n=g#6 v=0
575199 Par ch=1 c=64 v=127
575202 On ch=1 n=g#6 v=79
575208 On ch=1 n=g#7 v=78
575237 On ch=1 n=g#6 v=0
575249 On ch=1 n=g#7 v=0
575429 Par ch=1 c=64 v=0
575507 On ch=1 n=f#7 v=62
575512 On ch=1 n=f#8 v=58
575521 On ch=1 n=d#6 v=32
575523 On ch=1 n=g#6 v=26
575553 On ch=1 n=f#7 v=0
575559 On ch=1 n=f#8 v=0
575585 On ch=1 n=d#6 v=0
575595 On ch=1 n=g#6 v=0
575621 On ch=1 n=f#8 v=60
575627 On ch=1 n=f#7 v=38
575655 On ch=1 n=g#6 v=31
575671 On ch=1 n=f#8 v=0
575687 On ch=1 n=f#7 v=0
575711 On ch=1 n=g#6 v=0
575769 On ch=1 n=g#6 v=65
575775 On ch=1 n=c#6 v=48
575779 On ch=1 n=e7 v=57
575789 On ch=1 n=e8 v=45
575817 On ch=1 n=g#6 v=0
575827 On ch=1 n=e7 v=0
575833 On ch=1 n=c#6 v=0
575837 On ch=1 n=e8 v=0
575905 On ch=1 n=e7 v=43
575910 On ch=1 n=e8 v=59
575917 On ch=1 n=g#6 v=41
575951 On ch=1 n=e8 v=0
575954 On ch=1 n=e7 v=0
575995 On ch=1 n=g#6 v=0
576051 On ch=1 n=d#7 v=74
576054 On ch=1 n=d#8 v=73
576061 On ch=1 n=g#6 v=68
576087 On ch=1 n=c6 v=33
576095 On ch=1 n=d#8 v=0
576111 On ch=1 n=d#7 v=0
576125 On ch=1 n=g#6 v=0
576147 On ch=1 n=c6 v=0
576197 On ch=1 n=g#6 v=68
576199 On ch=1 n=d#7 v=63
576201 On ch=1 n=d#8 v=62
576243 On ch=1 n=d#8 v=0
576275 On ch=1 n=d#7 v=0
576307 On ch=1 n=g#6 v=0
576349 On ch=1 n=a#5 v=48
576359 On ch=1 n=c#7 v=65
576369 On ch=1 n=c#8 v=48
576395 On ch=1 n=g#6 v=17
576401 On ch=1 n=c#7 v=0
576417 On ch=1 n=c#8 v=0
576421 On ch=1 n=a#5 v=0
576475 On ch=1 n=c#7 v=41
576475 On ch=1 n=c#8 v=56
576527 On ch=1 n=c#8 v=0
576530 On ch=1 n=c#7 v=0
576557 On ch=1 n=g#6 v=0
576617 On ch=1 n=d#8 v=73
576617 On ch=1 n=d#7 v=61
576637 On ch=1 n=c6 v=31
576655 On ch=1 n=d#8 v=0
576661 On ch=1 n=g#6 v=18
576663 On ch=1 n=d#7 v=0
576707 On ch=1 n=c6 v=0
576763 On ch=1 n=d#7 v=33
576767 On ch=1 n=d#8 v=44
576819 On ch=1 n=g#6 v=0
576835 On ch=1 n=d#8 v=0
576855 On ch=1 n=d#7 v=0
576923 On ch=1 n=g#6 v=43
576931 On ch=1 n=e7 v=51
576937 On ch=1 n=e8 v=49
576939 On ch=1 n=c#6 v=42
576971 On ch=1 n=g#6 v=0
576993 On ch=1 n=c#6 v=0
576999 On ch=1 n=e8 v=0
577005 On ch=1 n=e7 v=0
577041 Par ch=1 c=64 v=127
577243 On ch=1 n=g#3 v=63
577245 On ch=1 n=g#4 v=49
577289 On ch=1 n=g#3 v=0
577301 On ch=1 n=g#4 v=0
577343 On ch=1 n=g#3 v=76
577365 Par ch=1 c=64 v=0
577368 On ch=1 n=g#4 v=51
577401 On ch=1 n=g#3 v=0
577421 On ch=1 n=g#4 v=0
577487 On ch=1 n=g3 v=65
577489 On ch=1 n=g4 v=72
577531 On ch=1 n=g4 v=0
577531 On ch=1 n=g3 v=0
577615 On ch=1 n=g4 v=52
577617 On ch=1 n=g3 v=55
577663 On ch=1 n=g4 v=0
577665 On ch=1 n=g3 v=0
577745 On ch=1 n=f#4 v=92
577751 On ch=1 n=f#3 v=79
577807 On ch=1 n=f#3 v=0
577823 On ch=1 n=f#4 v=0
577893 On ch=1 n=f#4 v=78
577895 On ch=1 n=f#3 v=72
577939 On ch=1 n=f#3 v=0
577945 On ch=1 n=f#4 v=0
577947 Par ch=1 c=64 v=127
578003 On ch=1 n=f#4 v=88
578021 On ch=1 n=f#5 v=51
578057 On ch=1 n=f#4 v=0
578069 On ch=1 n=f#5 v=0
578127 On ch=1 n=f#4 v=88
578131 On ch=1 n=f#5 v=47
578181 On ch=1 n=f#4 v=0
578245 On ch=1 n=f#5 v=0
578287 On ch=1 n=f#6 v=80
578293 On ch=1 n=f#5 v=50
578323 On ch=1 n=f#6 v=0
578341 On ch=1 n=f#5 v=0
578393 On ch=1 n=f#6 v=49
578411 On ch=1 n=f#5 v=52
578461 On ch=1 n=f#5 v=0
578495 On ch=1 n=f#6 v=0
578551 On ch=1 n=f#6 v=89
578563 On ch=1 n=f#7 v=84
578591 On ch=1 n=f#6 v=0
578603 On ch=1 n=f#7 v=0
578793 Par ch=1 c=64 v=0
578879 On ch=1 n=f#6 v=51
578887 On ch=1 n=c#6 v=38
578887 On ch=1 n=e8 v=69
578893 On ch=1 n=e7 v=56
578923 On ch=1 n=e8 v=0
578929 On ch=1 n=f#6 v=0
578943 On ch=1 n=e7 v=0
578953 On ch=1 n=c#6 v=0
578997 On ch=1 n=f#6 v=53
579001 On ch=1 n=e8 v=51
579003 On ch=1 n=e7 v=72
579049 On ch=1 n=e7 v=0
579057 On ch=1 n=e8 v=0
579089 On ch=1 n=f#6 v=0
579137 On ch=1 n=d#8 v=80
579141 On ch=1 n=d#7 v=75
579155 On ch=1 n=b5 v=54
579171 On ch=1 n=d#8 v=0
579171 On ch=1 n=f#6 v=42
579191 On ch=1 n=d#7 v=0
579209 On ch=1 n=b5 v=0
579233 On ch=1 n=f#6 v=0
579267 On ch=1 n=d#7 v=61
579269 On ch=1 n=d#8 v=47
579279 On ch=1 n=f#6 v=54
579311 On ch=1 n=d#7 v=0
579313 On ch=1 n=d#8 v=0
579331 On ch=1 n=f#6 v=0
579397 On ch=1 n=f#6 v=61
579403 On ch=1 n=c#7 v=83
579409 On ch=1 n=a#5 v=56
579421 On ch=1 n=c#8 v=53
579443 On ch=1 n=c#7 v=0
579451 On ch=1 n=f#6 v=0
579465 On ch=1 n=c#8 v=0
579487 On ch=1 n=a#5 v=0
579519 On ch=1 n=c#8 v=64
579529 On ch=1 n=c#7 v=48
579535 On ch=1 n=f#6 v=64
579569 On ch=1 n=c#8 v=0
579589 On ch=1 n=c#7 v=0
579619 On ch=1 n=f#6 v=0
579673 On ch=1 n=b6 v=93
579673 On ch=1 n=b7 v=51
579673 On ch=1 n=g#5 v=56
579687 On ch=1 n=f#6 v=38
579709 On ch=1 n=b6 v=0
579725 On ch=1 n=b7 v=0
579739 On ch=1 n=f#6 v=0
579741 On ch=1 n=g#5 v=0
579789 On ch=1 n=b7 v=68
579793 On ch=1 n=f#6 v=75
579801 On ch=1 n=b6 v=53
579827 On ch=1 n=b7 v=0
579855 On ch=1 n=b6 v=0
579873 On ch=1 n=f#6 v=0
579917 On ch=1 n=c#7 v=78
579931 On ch=1 n=c#8 v=66
579943 On ch=1 n=f#6 v=55
579957 On ch=1 n=a#5 v=38
579971 On ch=1 n=c#8 v=0
579971 On ch=1 n=c#7 v=0
579991 On ch=1 n=f#6 v=0
580021 On ch=1 n=a#5 v=0
580050 On ch=1 n=f#6 v=59
580055 On ch=1 n=c#8 v=47
580067 On ch=1 n=c#7 v=38
580107 On ch=1 n=c#8 v=0
580113 On ch=1 n=f#6 v=0
580125 On ch=1 n=c#7 v=0
580199 On ch=1 n=f#6 v=55
580225 On ch=1 n=d#7 v=60
580225 On ch=1 n=d#8 v=72
580239 On ch=1 n=f#6 v=0
580239 On ch=1 n=b5 v=45
580269 Par ch=1 c=64 v=127
580283 On ch=1 n=d#8 v=0
580285 On ch=1 n=d#7 v=0
580299 On ch=1 n=b5 v=0
580517 On ch=1 n=f4 v=91
580521 On ch=1 n=f3 v=66
580555 On ch=1 n=f4 v=0
580567 On ch=1 n=f3 v=0
580623 On ch=1 n=f3 v=48
580626 On ch=1 n=f4 v=78
580671 On ch=1 n=f4 v=0
580679 On ch=1 n=f3 v=0
580763 On ch=1 n=e4 v=85
580769 On ch=1 n=e3 v=87
580775 Par ch=1 c=64 v=0
580803 On ch=1 n=e3 v=0
580803 On ch=1 n=e4 v=0
580881 On ch=1 n=e4 v=74
580881 On ch=1 n=e3 v=81
580943 On ch=1 n=e4 v=0
580961 Par ch=1 c=64 v=127
580964 On ch=1 n=e3 v=0
581027 On ch=1 n=d#3 v=79
581027 On ch=1 n=d#4 v=84
581083 Par ch=1 c=64 v=0
581085 On ch=1 n=d#3 v=0
581091 On ch=1 n=d#4 v=0
581159 On ch=1 n=d#4 v=76
581159 On ch=1 n=d#3 v=83
581229 On ch=1 n=d#4 v=0
581237 On ch=1 n=d#3 v=0
581283 Par ch=1 c=64 v=127
581287 On ch=1 n=d#4 v=85
581292 On ch=1 n=d#5 v=73
581333 On ch=1 n=d#5 v=0
581349 On ch=1 n=d#4 v=0
581409 On ch=1 n=d#5 v=55
581561 On ch=1 n=d#6 v=92
581593 On ch=1 n=d#6 v=0
581617 On ch=1 n=d#5 v=0
581695 On ch=1 n=d#6 v=66
581701 On ch=1 n=d#5 v=75
581749 On ch=1 n=d#5 v=0
581801 On ch=1 n=d#6 v=0
581871 On ch=1 n=d#6 v=87
581877 On ch=1 n=d#7 v=90
581971 On ch=1 n=d#6 v=0
581999 On ch=1 n=d#7 v=0
582169 On ch=1 n=g5 v=59
582173 On ch=1 n=d#6 v=80
582177 On ch=1 n=d#7 v=73
582181 On ch=1 n=d#5 v=47
582209 On ch=1 n=d#6 v=0
582211 On ch=1 n=d#7 v=0
582217 On ch=1 n=g5 v=0
582231 On ch=1 n=d#5 v=0
582275 On ch=1 n=g5 v=70
582283 On ch=1 n=d#7 v=44
582283 On ch=1 n=d#6 v=55
582293 On ch=1 n=d#5 v=73
582329 On ch=1 n=d#5 v=0
582341 On ch=1 n=g5 v=0
582357 On ch=1 n=d#7 v=0
582359 On ch=1 n=d#6 v=0
582419 Par ch=1 c=64 v=0
582421 On ch=1 n=d#6 v=84
582427 On ch=1 n=d#7 v=68
582435 On ch=1 n=f5 v=55
582447 On ch=1 n=g#5 v=28
582471 On ch=1 n=d#7 v=0
582485 On ch=1 n=f5 v=0
582508 On ch=1 n=d#6 v=0
582541 On ch=1 n=f5 v=49
582549 On ch=1 n=d#7 v=62
582563 On ch=1 n=d#6 v=84
582593 On ch=1 n=f5 v=0
582601 On ch=1 n=g#5 v=0
582605 Par ch=1 c=64 v=127
582611 On ch=1 n=d#6 v=0
582641 On ch=1 n=d#7 v=0
582683 On ch=1 n=a5 v=68
582691 On ch=1 n=e7 v=97
582695 On ch=1 n=e6 v=88
582707 On ch=1 n=f#5 v=45
582731 On ch=1 n=e7 v=0
582731 On ch=1 n=a5 v=0
582737 On ch=1 n=e6 v=0
582765 On ch=1 n=f#5 v=0
582821 On ch=1 n=a5 v=45
582824 On ch=1 n=d#6 v=92
582824 On ch=1 n=f#5 v=58
582827 On ch=1 n=d#7 v=86
582863 On ch=1 n=d#7 v=0
582881 On ch=1 n=d#6 v=0
582883 On ch=1 n=f#5 v=0
582883 On ch=1 n=a5 v=0
582959 On ch=1 n=c#6 v=86
582962 On ch=1 n=c#7 v=83
582972 On ch=1 n=g5 v=65
582992 On ch=1 n=e5 v=34
583016 On ch=1 n=g5 v=0
583016 On ch=1 n=c#7 v=0
583048 On ch=1 n=e5 v=0
583062 On ch=1 n=c#6 v=0
583074 On ch=1 n=g5 v=70
583094 On ch=1 n=b6 v=105
583094 On ch=1 n=b5 v=94
583118 On ch=1 n=e5 v=44
583120 On ch=1 n=g5 v=0
583126 On ch=1 n=b6 v=0
583132 On ch=1 n=b5 v=0
583170 On ch=1 n=e5 v=0
583218 On ch=1 n=a#5 v=78
583224 On ch=1 n=a#6 v=76
583228 On ch=1 n=d5 v=66
583234 On ch=1 n=f5 v=62
583262 On ch=1 n=a#6 v=0
583264 On ch=1 n=a#5 v=0
583272 On ch=1 n=d5 v=0
583278 On ch=1 n=f5 v=0
583342 On ch=1 n=f5 v=63
583352 On ch=1 n=g#5 v=64
583354 On ch=1 n=g#6 v=70
583358 On ch=1 n=d5 v=50
583388 On ch=1 n=g#6 v=0
583408 On ch=1 n=g#5 v=0
583416 Par ch=1 c=64 v=0
583428 On ch=1 n=d5 v=0
583446 On ch=1 n=f5 v=0
583488 On ch=1 n=g6 v=89
583500 On ch=1 n=g5 v=66
583502 On ch=1 n=d#5 v=85
583542 On ch=1 n=d#5 v=0
583570 On ch=1 n=g5 v=0
583646 Par ch=1 c=64 v=127
583744 On ch=1 n=g6 v=0
583752 On ch=1 n=a#2 v=77
583752 On ch=1 n=a#3 v=74
583788 On ch=1 n=a#2 v=0
583791 On ch=1 n=a#3 v=0
583846 On ch=1 n=a#3 v=64
583846 On ch=1 n=a#2 v=58
583932 On ch=1 n=a#2 v=0
583944 On ch=1 n=a#3 v=0
583998 On ch=1 n=d4 v=97
583998 On ch=1 n=d3 v=92
584036 On ch=1 n=d3 v=0
584036 On ch=1 n=d4 v=0
584124 On ch=1 n=d3 v=67
584128 On ch=1 n=d4 v=62
584168 On ch=1 n=d3 v=0
584176 On ch=1 n=d4 v=0
584270 On ch=1 n=d#4 v=93
584276 On ch=1 n=d#3 v=91
584350 On ch=1 n=d#3 v=0
584358 On ch=1 n=d#4 v=0
584368 Par ch=1 c=64 v=0
584408 On ch=1 n=d#4 v=95
584411 On ch=1 n=d#3 v=86
584510 On ch=1 n=d#4 v=0
584534 On ch=1 n=d#5 v=86
584537 On ch=1 n=d#4 v=70
584540 On ch=1 n=d#3 v=0
584552 Par ch=1 c=64 v=127
584584 On ch=1 n=d#5 v=0
584612 On ch=1 n=d#4 v=0
584664 On ch=1 n=d#5 v=78
584802 On ch=1 n=d#5 v=0
584848 On ch=1 n=d#6 v=95
584860 On ch=1 n=d#5 v=88
584882 On ch=1 n=d#6 v=0
584892 On ch=1 n=d#5 v=0
584978 On ch=1 n=d#6 v=71
584986 On ch=1 n=d#5 v=68
585040 On ch=1 n=d#5 v=0
585056 On ch=1 n=d#6 v=0
585146 On ch=1 n=d#6 v=84
585152 On ch=1 n=d#7 v=90
585180 On ch=1 n=d#6 v=0
585188 On ch=1 n=d#7 v=0
585454 On ch=1 n=d#6 v=75
585456 On ch=1 n=d#7 v=95
585458 On ch=1 n=d#8 v=90
585462 On ch=1 n=g5 v=58
585488 On ch=1 n=d#8 v=0
585488 On ch=1 n=d#7 v=0
585491 On ch=1 n=d#6 v=0
585512 On ch=1 n=g5 v=0
585576 On ch=1 n=g5 v=59
585582 On ch=1 n=d#8 v=66
585584 On ch=1 n=d#7 v=70
585584 On ch=1 n=d#6 v=42
585626 On ch=1 n=g5 v=0
585629 On ch=1 n=d#6 v=0
585658 On ch=1 n=d#7 v=0
585682 On ch=1 n=d#8 v=0
585704 Par ch=1 c=64 v=0
585724 On ch=1 n=d#7 v=88
585730 On ch=1 n=d#8 v=97
585730 On ch=1 n=f6 v=85
585744 On ch=1 n=g#5 v=75
585776 On ch=1 n=f6 v=0
585784 On ch=1 n=g#5 v=0
585802 On ch=1 n=d#7 v=0
585810 On ch=1 n=d#8 v=0
585862 On ch=1 n=g#5 v=43
585862 On ch=1 n=d#7 v=78
585865 On ch=1 n=d#8 v=94
585870 On ch=1 n=f6 v=67
585874 Par ch=1 c=64 v=127
585940 On ch=1 n=f6 v=0
585950 On ch=1 n=d#7 v=0
585956 On ch=1 n=g#5 v=0
585972 On ch=1 n=d#8 v=0
585982 Par ch=1 c=64 v=0
586010 On ch=1 n=e8 v=96
586012 On ch=1 n=a5 v=81
586016 On ch=1 n=e7 v=93
586022 On ch=1 n=f#6 v=88
586062 On ch=1 n=f#6 v=0
586070 On ch=1 n=e7 v=0
586070 On ch=1 n=a5 v=0
586094 On ch=1 n=e8 v=0
586150 Par ch=1 c=64 v=127
586158 On ch=1 n=a5 v=62
586161 On ch=1 n=d#7 v=92
586164 On ch=1 n=d#8 v=88
586170 On ch=1 n=f#6 v=66
586206 On ch=1 n=a5 v=0
586218 On ch=1 n=d#8 v=0
586220 On ch=1 n=f#6 v=0
586262 On ch=1 n=d#7 v=0
586312 On ch=1 n=c#7 v=92
586315 On ch=1 n=c#8 v=83
586320 On ch=1 n=g6 v=90
586338 On ch=1 n=a#5 v=67
586342 On ch=1 n=c#8 v=0
586366 On ch=1 n=g6 v=0
586382 On ch=1 n=a#5 v=0
586392 On ch=1 n=c#7 v=0
586436 On ch=1 n=a#5 v=61
586452 On ch=1 n=g6 v=65
586460 On ch=1 n=b7 v=88
586460 On ch=1 n=b6 v=106
586500 On ch=1 n=b6 v=0
586505 On ch=1 n=b7 v=0
586514 On ch=1 n=g6 v=0
586594 On ch=1 n=a#6 v=88
586598 On ch=1 n=a#7 v=85
586602 On ch=1 n=d6 v=69
586612 On ch=1 n=f6 v=55
586614 On ch=1 n=a#5 v=0
586644 On ch=1 n=d6 v=0
586647 On ch=1 n=a#7 v=0
586654 On ch=1 n=f6 v=0
586698 On ch=1 n=a#6 v=0
586722 On ch=1 n=f6 v=68
586728 On ch=1 n=d6 v=61
586738 On ch=1 n=g#7 v=84
586740 On ch=1 n=g#6 v=86
586774 On ch=1 n=d6 v=0
586780 Par ch=1 c=64 v=0
586782 On ch=1 n=a#6 v=17
586784 On ch=1 n=g#7 v=0
586804 On ch=1 n=f6 v=0
586828 On ch=1 n=g#6 v=0
586842 On ch=1 n=a#6 v=0
586874 On ch=1 n=d#6 v=78
586876 On ch=1 n=g7 v=89
586888 On ch=1 n=g6 v=92
586896 On ch=1 n=a#5 v=50
586912 On ch=1 n=g7 v=0
586912 On ch=1 n=d#6 v=0
586922 On ch=1 n=g6 v=0
586934 Par ch=1 c=64 v=127
586944 On ch=1 n=a#5 v=0
587004 On ch=1 n=d#6 v=54
587006 On ch=1 n=a#5 v=52
587012 On ch=1 n=f#7 v=83
587014 On ch=1 n=f#6 v=84
587048 On ch=1 n=d#6 v=0
587058 On ch=1 n=f#7 v=0
587068 On ch=1 n=a#5 v=0
587084 On ch=1 n=f#6 v=0
587156 On ch=1 n=b5 v=92
587166 On ch=1 n=f7 v=87
587166 On ch=1 n=f6 v=89
587166 On ch=1 n=g#5 v=64
587194 On ch=1 n=b5 v=0
587204 On ch=1 n=f7 v=0
587208 On ch=1 n=g#5 v=0
587210 On ch=1 n=f6 v=0
587288 On ch=1 n=b5 v=68
587291 On ch=1 n=g#5 v=39
587298 On ch=1 n=e7 v=85
587306 On ch=1 n=e6 v=74
587350 On ch=1 n=e6 v=0
587350 On ch=1 n=e7 v=0
587350 On ch=1 n=g#5 v=0
587356 On ch=1 n=b5 v=0
587434 On ch=1 n=f#5 v=67
587438 On ch=1 n=d7 v=88
587442 On ch=1 n=a5 v=71
587444 On ch=1 n=d6 v=88
587478 On ch=1 n=d6 v=0
587478 On ch=1 n=d7 v=0
587484 On ch=1 n=f#5 v=0
587488 On ch=1 n=a5 v=0
587570 On ch=1 n=a5 v=49
587576 On ch=1 n=f#5 v=44
587579 On ch=1 n=d#7 v=86
587582 On ch=1 n=d#6 v=84
587638 On ch=1 n=d#7 v=0
587640 On ch=1 n=d#6 v=0
587656 On ch=1 n=a5 v=0
587664 On ch=1 n=f#5 v=0
587730 On ch=1 n=a#5 v=78
587736 On ch=1 n=e7 v=97
587736 On ch=1 n=e6 v=95
587740 On ch=1 n=g5 v=84
587764 Par ch=1 c=64 v=0
587767 On ch=1 n=e7 v=0
587772 On ch=1 n=e6 v=0
587774 On ch=1 n=a#5 v=0
587784 On ch=1 n=g5 v=0
587864 On ch=1 n=a#5 v=55
587874 On ch=1 n=d#6 v=94
587874 On ch=1 n=g5 v=58
587878 On ch=1 n=d#7 v=83
587902 Par ch=1 c=64 v=127
587920 On ch=1 n=d#7 v=0
587924 On ch=1 n=g5 v=0
587932 On ch=1 n=a#5 v=0
587974 On ch=1 n=d#6 v=0
588012 On ch=1 n=g5 v=74
588016 On ch=1 n=c#7 v=86
588016 On ch=1 n=c#6 v=87
588040 On ch=1 n=e5 v=70
588078 On ch=1 n=e5 v=0
588092 On ch=1 n=c#7 v=0
588106 On ch=1 n=g5 v=0
588126 On ch=1 n=c#6 v=0
588154 On ch=1 n=e5 v=71
588160 On ch=1 n=b6 v=103
588162 On ch=1 n=b5 v=95
588172 On ch=1 n=g5 v=52
588194 On ch=1 n=b6 v=0
588194 On ch=1 n=e5 v=0
588197 On ch=1 n=b5 v=0
588232 On ch=1 n=g5 v=0
588294 On ch=1 n=f5 v=89
588297 On ch=1 n=d5 v=75
588300 On ch=1 n=a#5 v=88
588300 On ch=1 n=a#6 v=81
588336 On ch=1 n=a#6 v=0
588342 On ch=1 n=d5 v=0
588354 On ch=1 n=a#5 v=0
588366 On ch=1 n=f5 v=0
588418 On ch=1 n=f5 v=81
588426 On ch=1 n=g#6 v=85
588428 On ch=1 n=g#5 v=84
588494 On ch=1 n=g#6 v=0
588508 On ch=1 n=g#5 v=0
588520 On ch=1 n=f5 v=0
588546 On ch=1 n=d#5 v=88
588568 On ch=1 n=a#4 v=73
588568 On ch=1 n=g6 v=92
588574 On ch=1 n=g5 v=91
588602 On ch=1 n=g6 v=0
588610 On ch=1 n=g5 v=0
588632 On ch=1 n=a#4 v=0
588634 On ch=1 n=d#5 v=0
588678 On ch=1 n=f#5 v=52
588688 On ch=1 n=a#4 v=70
588698 On ch=1 n=f#6 v=68
588698 On ch=1 n=d#5 v=46
588706 On ch=1 n=g#5 v=29
588734 On ch=1 n=a#4 v=0
588738 On ch=1 n=f#5 v=0
588740 On ch=1 n=f#6 v=0
588750 On ch=1 n=d#5 v=0
588778 On ch=1 n=g#5 v=0
588816 On ch=1 n=f6 v=80
588819 On ch=1 n=b4 v=95
588824 On ch=1 n=f5 v=69
588840 On ch=1 n=g#4 v=64
588850 On ch=1 n=f6 v=0
588864 On ch=1 n=b4 v=0
588864 On ch=1 n=f5 v=0
588886 On ch=1 n=g#4 v=0
588936 On ch=1 n=g#4 v=78
588936 On ch=1 n=b4 v=70
588942 On ch=1 n=e5 v=89
588944 On ch=1 n=e6 v=73
588986 On ch=1 n=e6 v=0
588986 On ch=1 n=e5 v=0
588994 On ch=1 n=b4 v=0
589038 On ch=1 n=g#4 v=0
589076 On ch=1 n=d6 v=89
589078 On ch=1 n=d5 v=85
589082 On ch=1 n=f#4 v=78
589088 On ch=1 n=a4 v=69
589110 On ch=1 n=d6 v=0
589118 On ch=1 n=d5 v=0
589130 On ch=1 n=a4 v=0
589134 On ch=1 n=f#4 v=0
589194 On ch=1 n=f#4 v=83
589206 On ch=1 n=d#5 v=84
589214 On ch=1 n=a4 v=45
589217 On ch=1 n=d#6 v=82
589246 On ch=1 n=d#5 v=0
589250 On ch=1 n=f#4 v=0
589260 On ch=1 n=a4 v=0
589264 On ch=1 n=d#6 v=0
589330 Par ch=1 c=64 v=0
589348 On ch=1 n=a#4 v=79
589354 On ch=1 n=g4 v=84
589360 On ch=1 n=e5 v=89
589360 On ch=1 n=e6 v=75
589394 On ch=1 n=e5 v=0
589394 On ch=1 n=g4 v=0
589396 On ch=1 n=a#4 v=0
589398 On ch=1 n=e6 v=0
589460 On ch=1 n=a#4 v=55
589460 Par ch=1 c=64 v=127
589482 On ch=1 n=g4 v=46
589488 On ch=1 n=d#5 v=92
589500 On ch=1 n=d#6 v=63
589528 On ch=1 n=d#5 v=0
589528 On ch=1 n=g4 v=0
589538 On ch=1 n=a#4 v=0
589544 On ch=1 n=d#6 v=0
589614 On ch=1 n=g4 v=77
589617 On ch=1 n=c#5 v=91
589622 On ch=1 n=c#6 v=76
589638 On ch=1 n=e4 v=71
589670 On ch=1 n=c#6 v=0
589678 On ch=1 n=e4 v=0
589702 On ch=1 n=c#5 v=0
589750 On ch=1 n=e4 v=61
589754 On ch=1 n=d4 v=51
589758 On ch=1 n=b5 v=88
589758 On ch=1 n=b4 v=90
589772 On ch=1 n=g4 v=0
589790 On ch=1 n=e4 v=0
589792 On ch=1 n=b4 v=0
589795 On ch=1 n=b5 v=0
589812 On ch=1 n=d4 v=0
589862 On ch=1 n=d4 v=99
589868 On ch=1 n=f4 v=106
589876 On ch=1 n=a#4 v=77
589882 On ch=1 n=a#5 v=78
589906 On ch=1 n=f4 v=0
589909 On ch=1 n=d4 v=0
589928 On ch=1 n=a#5 v=0
589970 On ch=1 n=a#4 v=0
589988 On ch=1 n=f4 v=97
589991 On ch=1 n=d4 v=73
590006 Par ch=1 c=64 v=0
590014 On ch=1 n=g#5 v=80
590018 On ch=1 n=g#4 v=85
590040 On ch=1 n=d4 v=0
590064 On ch=1 n=f4 v=0
590098 Par ch=1 c=64 v=127
590103 On ch=1 n=g#4 v=0
590134 On ch=1 n=g5 v=93
590136 On ch=1 n=d#4 v=88
590138 On ch=1 n=c#4 v=64
590144 On ch=1 n=g#5 v=0
590144 On ch=1 n=g4 v=87
590152 On ch=1 n=a#3 v=69
590170 On ch=1 n=d#4 v=0
590173 On ch=1 n=g5 v=0
590182 On ch=1 n=g4 v=0
590182 On ch=1 n=c#4 v=0
590194 On ch=1 n=a#3 v=0
590256 On ch=1 n=a#3 v=64
590266 On ch=1 n=f#4 v=97
590268 On ch=1 n=d#4 v=46
590272 On ch=1 n=f#5 v=81
590318 On ch=1 n=f#5 v=0
590324 On ch=1 n=d#4 v=0
590334 On ch=1 n=f#4 v=0
590362 On ch=1 n=a#3 v=0
590402 On ch=1 n=f5 v=89
590402 On ch=1 n=b3 v=95
590405 On ch=1 n=f4 v=106
590416 On ch=1 n=g#3 v=75
590438 On ch=1 n=f5 v=0
590444 On ch=1 n=b3 v=0
590444 On ch=1 n=f4 v=0
590454 On ch=1 n=g#3 v=0
590514 On ch=1 n=b3 v=74
590516 On ch=1 n=g#3 v=67
590528 On ch=1 n=e5 v=94
590534 On ch=1 n=e4 v=100
590600 On ch=1 n=e4 v=0
590610 On ch=1 n=b3 v=0
590610 On ch=1 n=g#3 v=0
590618 On ch=1 n=e5 v=0
590661 On ch=1 n=a3 v=92
590672 On ch=1 n=d5 v=82
590675 On ch=1 n=d4 v=87
590678 On ch=1 n=f#3 v=76
590712 On ch=1 n=d5 v=0
590715 On ch=1 n=e4 v=33
590725 On ch=1 n=f#3 v=0
590727 On ch=1 n=d4 v=0
590765 On ch=1 n=a3 v=0
590779 On ch=1 n=e4 v=0
590793 On ch=1 n=f#3 v=75
590801 On ch=1 n=a#3 v=91
590815 On ch=1 n=d#4 v=89
590829 On ch=1 n=d#5 v=72
590849 On ch=1 n=d#4 v=0
590869 On ch=1 n=d#5 v=0
590883 On ch=1 n=a#3 v=0
590887 On ch=1 n=f#3 v=0
590935 On ch=1 n=a#3 v=83
590943 On ch=1 n=g3 v=98
590946 On ch=1 n=e5 v=103
590961 On ch=1 n=e4 v=76
590981 On ch=1 n=f4 v=80
590987 Par ch=1 c=64 v=0
591007 On ch=1 n=e4 v=0
591025 On ch=1 n=f4 v=0
591027 On ch=1 n=g3 v=0
591047 On ch=1 n=a#3 v=0
591050 On ch=1 n=e5 v=0
591079 Par ch=1 c=64 v=127
591087 On ch=1 n=g3 v=89
591090 On ch=1 n=a#3 v=84
591090 On ch=1 n=e4 v=83
591107 On ch=1 n=c#5 v=52
591107 On ch=1 n=d5 v=72
591115 On ch=1 n=f4 v=57
591145 On ch=1 n=e4 v=0
591149 On ch=1 n=d5 v=0
591169 On ch=1 n=c#5 v=0
591172 On ch=1 n=g3 v=0
591175 On ch=1 n=f4 v=0
591201 On ch=1 n=a#3 v=0
591233 On ch=1 n=g3 v=80
591241 On ch=1 n=a#3 v=80
591244 On ch=1 n=e4 v=75
591255 On ch=1 n=c#5 v=64
591293 On ch=1 n=e4 v=0
591299 On ch=1 n=g3 v=0
591343 On ch=1 n=a#3 v=0
591367 On ch=1 n=a#3 v=41
591367 On ch=1 n=e4 v=87
591379 On ch=1 n=g3 v=69
591382 On ch=1 n=b4 v=81
591397 On ch=1 n=c#5 v=0
591415 On ch=1 n=e4 v=0
591433 On ch=1 n=g3 v=0
591435 On ch=1 n=b4 v=0
591465 On ch=1 n=a#3 v=0
591519 On ch=1 n=b3 v=95
591525 On ch=1 n=f4 v=101
591525 On ch=1 n=a#4 v=81
591527 On ch=1 n=d3 v=91
591575 On ch=1 n=d3 v=0
591607 On ch=1 n=f4 v=0
591610 On ch=1 n=b3 v=0
591663 On ch=1 n=a#4 v=0
591666 On ch=1 n=b3 v=92
591675 On ch=1 n=f4 v=99
591683 On ch=1 n=d3 v=70
591687 On ch=1 n=g#4 v=84
591731 On ch=1 n=d3 v=0
591757 On ch=1 n=b3 v=0
591769 On ch=1 n=f4 v=0
591833 On ch=1 n=g#4 v=0
591867 On ch=1 n=a#3 v=92
591867 On ch=1 n=g4 v=100
591870 On ch=1 n=d#3 v=90
591955 Par ch=1 c=64 v=0
592159 On ch=1 n=g4 v=0
592167 On ch=1 n=d5 v=95
592169 On ch=1 n=d#3 v=0
592175 On ch=1 n=d4 v=84
592177 On ch=1 n=a#3 v=0
592201 Par ch=1 c=64 v=127
592217 On ch=1 n=d4 v=0
592257 On ch=1 n=d5 v=0
592291 On ch=1 n=d4 v=78
592361 On ch=1 n=d4 v=0
592425 On ch=1 n=d#5 v=92
592425 On ch=1 n=d#4 v=83
592463 On ch=1 n=d#4 v=0
592467 On ch=1 n=d#5 v=0
592527 On ch=1 n=d#4 v=70
592617 On ch=1 n=d#4 v=0
592661 On ch=1 n=a5 v=69
592661 On ch=1 n=a4 v=77
592703 On ch=1 n=a4 v=0
592709 On ch=1 n=a5 v=0
592709 On ch=1 n=g5 v=14
592763 On ch=1 n=g5 v=0
592769 On ch=1 n=a4 v=48
592781 On ch=1 n=g4 v=55
592801 On ch=1 n=a3 v=26
592817 On ch=1 n=a4 v=0
592833 On ch=1 n=g4 v=0
592871 On ch=1 n=a3 v=0
592891 On ch=1 n=a#5 v=81
592891 On ch=1 n=a#4 v=81
592939 Par ch=1 c=64 v=0
592991 On ch=1 n=a#5 v=0
592995 On ch=1 n=a#3 v=83
593049 On ch=1 n=a#3 v=0
593100 On ch=1 n=a#4 v=0
593109 Par ch=1 c=64 v=127
593127 On ch=1 n=d6 v=98
593129 On ch=1 n=d5 v=89
593159 On ch=1 n=d6 v=0
593163 On ch=1 n=d5 v=0
593233 On ch=1 n=d5 v=62
593243 On ch=1 n=d4 v=92
593281 On ch=1 n=d4 v=0
593289 On ch=1 n=d5 v=0
593363 On ch=1 n=d#5 v=90
593363 On ch=1 n=d#6 v=88
593397 On ch=1 n=d#6 v=0
593397 On ch=1 n=d#5 v=0
593467 On ch=1 n=d#5 v=81
593479 On ch=1 n=d#4 v=86
593523 On ch=1 n=d#4 v=0
593567 On ch=1 n=d#5 v=0
593567 Par ch=1 c=64 v=0
593593 On ch=1 n=a6 v=92
593593 On ch=1 n=a5 v=84
593627 On ch=1 n=a6 v=0
593630 On ch=1 n=a5 v=0
593695 On ch=1 n=a5 v=49
593703 On ch=1 n=a4 v=80
593723 Par ch=1 c=64 v=127
593743 On ch=1 n=a4 v=0
593751 On ch=1 n=a5 v=0
593809 On ch=1 n=a#5 v=79
593813 On ch=1 n=a#6 v=83
593847 On ch=1 n=a#6 v=0
593849 On ch=1 n=a#5 v=0
593901 On ch=1 n=a#5 v=73
593917 On ch=1 n=a#4 v=75
593961 On ch=1 n=a#4 v=0
594007 On ch=1 n=a#5 v=0
594013 On ch=1 n=d7 v=101
594016 On ch=1 n=d6 v=96
594045 Par ch=1 c=64 v=0
594051 On ch=1 n=d6 v=0
594055 On ch=1 n=d7 v=0
594115 On ch=1 n=d6 v=87
594127 On ch=1 n=d5 v=89
594153 Par ch=1 c=64 v=127
594165 On ch=1 n=d5 v=0
594179 On ch=1 n=d6 v=0
594225 On ch=1 n=d#6 v=87
594225 On ch=1 n=d#7 v=88
594259 On ch=1 n=d#6 v=0
594267 On ch=1 n=d#7 v=0
594321 On ch=1 n=d#6 v=78
594339 On ch=1 n=d#5 v=86
594373 On ch=1 n=d#5 v=0
594413 On ch=1 n=d#6 v=0
594439 On ch=1 n=a7 v=92
594445 On ch=1 n=a6 v=81
594473 On ch=1 n=a7 v=0
594481 On ch=1 n=a6 v=0
594533 On ch=1 n=a6 v=87
594547 On ch=1 n=a5 v=74
594577 On ch=1 n=a6 v=0
594587 On ch=1 n=a5 v=0
594637 On ch=1 n=a#6 v=87
594639 On ch=1 n=a#7 v=86
594673 On ch=1 n=a#6 v=0
594676 On ch=1 n=a#7 v=0
594721 Par ch=1 c=64 v=0
594739 On ch=1 n=a#6 v=72
594751 On ch=1 n=a#5 v=83
594793 On ch=1 n=a#5 v=0
594849 On ch=1 n=d7 v=89
594851 On ch=1 n=a#6 v=0
594851 On ch=1 n=d8 v=103
594881 On ch=1 n=d8 v=0
594885 On ch=1 n=d7 v=0
594921 Par ch=1 c=64 v=127
594957 On ch=1 n=d7 v=67
594971 On ch=1 n=d6 v=97
595001 On ch=1 n=d6 v=0
595035 On ch=1 n=d7 v=0
595061 On ch=1 n=d#7 v=92
595065 On ch=1 n=d#8 v=90
595109 On ch=1 n=d#8 v=0
595135 On ch=1 n=d#7 v=0
595185 On ch=1 n=d#7 v=92
595188 On ch=1 n=d#6 v=86
595213 On ch=1 n=d#7 v=0
595219 On ch=1 n=d#6 v=0
595287 On ch=1 n=d7 v=97
595287 On ch=1 n=d8 v=105
595323 On ch=1 n=d8 v=0
595323 On ch=1 n=d7 v=0
595391 On ch=1 n=d7 v=83
595401 On ch=1 n=d6 v=97
595431 On ch=1 n=d6 v=0
595471 On ch=1 n=d7 v=0
595497 On ch=1 n=d#7 v=95
595500 On ch=1 n=d#8 v=95
595597 On ch=1 n=d#8 v=0
595619 On ch=1 n=d#6 v=88
595651 On ch=1 n=d#6 v=0
595689 On ch=1 n=d#7 v=0
595729 On ch=1 n=d7 v=101
595729 On ch=1 n=d8 v=107
595765 On ch=1 n=d8 v=0
595765 On ch=1 n=d7 v=0
595829 On ch=1 n=d7 v=84
595839 On ch=1 n=d6 v=100
595873 On ch=1 n=d6 v=0
595917 On ch=1 n=d7 v=0
595989 On ch=1 n=d#8 v=92
595991 On ch=1 n=d#7 v=97
596027 Par ch=1 c=64 v=0
596105 On ch=1 n=c#7 v=96
596113 On ch=1 n=c#6 v=86
596137 On ch=1 n=d#7 v=0
596149 On ch=1 n=d#8 v=0
596195 On ch=1 n=c#7 v=0
596201 On ch=1 n=c#6 v=0
596227 Par ch=1 c=64 v=127
596249 On ch=1 n=d#8 v=68
596251 On ch=1 n=d#7 v=79
596349 On ch=1 n=d#8 v=0
596357 On ch=1 n=d#7 v=0
596363 On ch=1 n=a#6 v=83
596372 On ch=1 n=a#5 v=76
596417 On ch=1 n=a#6 v=0
596421 On ch=1 n=a#5 v=0
596489 On ch=1 n=d#7 v=78
596489 On ch=1 n=d#8 v=78
596545 On ch=1 n=d#7 v=0
596557 On ch=1 n=d#8 v=0
596607 On ch=1 n=g6 v=87
596613 On ch=1 n=g5 v=79
596643 On ch=1 n=g6 v=0
596653 On ch=1 n=g5 v=0
596729 On ch=1 n=d#7 v=86
596729 On ch=1 n=d#8 v=87
596835 On ch=1 n=d#8 v=0
596835 On ch=1 n=d#7 v=0
596835 On ch=1 n=d#6 v=84
596843 On ch=1 n=d#5 v=86
596909 On ch=1 n=d#5 v=0
596943 On ch=1 n=d#6 v=0
596967 On ch=1 n=d#8 v=76
596969 On ch=1 n=d#7 v=77
597073 On ch=1 n=d#7 v=0
597073 On ch=1 n=d#8 v=0
597083 On ch=1 n=c#6 v=75
597089 On ch=1 n=c#5 v=82
597149 On ch=1 n=c#5 v=0
597153 On ch=1 n=c#6 v=0
597199 On ch=1 n=d#7 v=80
597201 On ch=1 n=d#8 v=80
597277 On ch=1 n=d#7 v=0
597287 On ch=1 n=d#8 v=0
597311 On ch=1 n=a#5 v=72
597314 On ch=1 n=a#4 v=73
597359 On ch=1 n=a#5 v=0
597365 On ch=1 n=a#4 v=0
597427 On ch=1 n=d#8 v=89
597427 On ch=1 n=d#7 v=90
597519 On ch=1 n=d#7 v=0
597541 On ch=1 n=d#8 v=0
597553 On ch=1 n=g5 v=90
597555 On ch=1 n=g4 v=91
597647 On ch=1 n=g5 v=0
597667 On ch=1 n=d#7 v=84
597673 On ch=1 n=g4 v=0
597675 On ch=1 n=d#8 v=86
597765 On ch=1 n=d#7 v=0
597779 On ch=1 n=d#8 v=0
597807 On ch=1 n=d#5 v=88
597813 On ch=1 n=d#4 v=87
597889 On ch=1 n=d#5 v=0
597893 On ch=1 n=d#4 v=0
597905 On ch=1 n=d#7 v=89
597913 On ch=1 n=d#8 v=89
598013 On ch=1 n=d#8 v=0
598013 On ch=1 n=d#7 v=0
598033 On ch=1 n=c#5 v=92
598043 On ch=1 n=c#4 v=86
598115 On ch=1 n=c#4 v=0
598135 On ch=1 n=c#5 v=0
598153 On ch=1 n=d#8 v=90
598153 On ch=1 n=d#7 v=90
598241 On ch=1 n=d#7 v=0
598257 On ch=1 n=d#8 v=0
598277 On ch=1 n=a#4 v=79
598285 On ch=1 n=a#3 v=86
598379 On ch=1 n=a#4 v=0
598405 On ch=1 n=d#7 v=92
598407 On ch=1 n=d#8 v=89
598417 On ch=1 n=a#3 v=0
598489 On ch=1 n=d#7 v=0
598501 On ch=1 n=d#8 v=0
598537 On ch=1 n=g3 v=90
598539 On ch=1 n=g4 v=93
598639 On ch=1 n=g4 v=0
598639 On ch=1 n=g3 v=0
598673 On ch=1 n=d#7 v=89
598676 On ch=1 n=d#8 v=88
598765 On ch=1 n=d#8 v=0
598777 On ch=1 n=d#7 v=0
598821 On ch=1 n=d#4 v=90
598824 On ch=1 n=d#3 v=93
598919 On ch=1 n=d#4 v=0
598953 On ch=1 n=d#3 v=0
598989 On ch=1 n=d#7 v=92
598993 On ch=1 n=d#8 v=89
599095 On ch=1 n=d#8 v=0
599095 On ch=1 n=d#7 v=0
599203 On ch=1 n=d#7 v=70
599207 On ch=1 n=d#8 v=78
599255 On ch=1 n=d#8 v=0
599277 On ch=1 n=d#7 v=0
599377 On ch=1 n=d#7 v=62
599383 On ch=1 n=d#8 v=73
599423 On ch=1 n=d#8 v=0
599437 On ch=1 n=d#7 v=0
599531 On ch=1 n=d#7 v=57
599535 On ch=1 n=d#8 v=67
599581 On ch=1 n=d#8 v=0
599591 On ch=1 n=d#7 v=0
599675 On ch=1 n=d#7 v=62
599677 On ch=1 n=d#8 v=73
599755 On ch=1 n=d#7 v=0
599757 On ch=1 n=d#8 v=0
599829 On ch=1 n=d#8 v=79
599829 On ch=1 n=d#7 v=68
599909 On ch=1 n=d#7 v=0
599921 On ch=1 n=d#8 v=0
599987 On ch=1 n=d#8 v=83
599990 On ch=1 n=d#7 v=72
600071 On ch=1 n=d#8 v=0
600081 On ch=1 n=d#7 v=0
600143 On ch=1 n=d#8 v=66
600143 On ch=1 n=d#7 v=66
600229 On ch=1 n=d#7 v=0
600245 On ch=1 n=d#8 v=0
600299 On ch=1 n=d#7 v=56
600303 On ch=1 n=d#8 v=74
600379 On ch=1 n=d#8 v=0
600379 On ch=1 n=d#7 v=0
600453 On ch=1 n=d#8 v=68
600459 On ch=1 n=d#7 v=50
600483 Par ch=1 c=64 v=0
600525 On ch=1 n=d#7 v=0
600545 On ch=1 n=d#8 v=0
600601 On ch=1 n=d#7 v=52
600607 On ch=1 n=d#8 v=75
600691 On ch=1 n=d#8 v=0
600693 On ch=1 n=d#7 v=0
600753 On ch=1 n=d#8 v=73
600755 On ch=1 n=d#7 v=60
600843 On ch=1 n=d#7 v=0
600857 On ch=1 n=d#8 v=0
600919 On ch=1 n=d#8 v=70
600927 On ch=1 n=d#7 v=49
601009 On ch=1 n=d#8 v=0
601012 On ch=1 n=d#7 v=0
601083 On ch=1 n=d#8 v=58
601086 On ch=1 n=d#7 v=50
601179 On ch=1 n=d#7 v=0
601185 On ch=1 n=d#8 v=0
601249 On ch=1 n=d#8 v=67
601249 On ch=1 n=d#7 v=47
601337 On ch=1 n=d#7 v=0
601349 On ch=1 n=d#8 v=0
601411 On ch=1 n=d#7 v=43
601414 On ch=1 n=d#8 v=66
601499 On ch=1 n=d#7 v=0
601502 On ch=1 n=d#8 v=0
601577 On ch=1 n=d#8 v=56
601583 On ch=1 n=d#7 v=32
601586 On ch=1 n=d#5 v=42
601657 On ch=1 n=d#7 v=0
601667 On ch=1 n=d#8 v=0
601747 On ch=1 n=d#5 v=0
601753 On ch=1 n=d#8 v=43
601767 On ch=1 n=d#7 v=21
601841 On ch=1 n=d#8 v=0
601845 On ch=1 n=d#7 v=0
601945 On ch=1 n=d#8 v=38
601963 On ch=1 n=d#7 v=26
602007 On ch=1 n=d#6 v=43
602029 On ch=1 n=d#8 v=0
602035 On ch=1 n=d#7 v=0
602119 On ch=1 n=d#6 v=0
602155 On ch=1 n=d#8 v=37
602161 On ch=1 n=d#7 v=25
602231 On ch=1 n=d#8 v=0
602241 On ch=1 n=d#7 v=0
602331 On ch=1 n=d#8 v=36
602333 On ch=1 n=d#7 v=30
602397 On ch=1 n=d#8 v=0
602415 On ch=1 n=d#7 v=0
602499 On ch=1 n=d#7 v=41
602505 On ch=1 n=d#8 v=32
602571 On ch=1 n=d#8 v=0
602609 On ch=1 n=d#7 v=0
602687 On ch=1 n=c#8 v=39
602699 On ch=1 n=c#7 v=29
602743 On ch=1 n=c#8 v=0
602779 On ch=1 n=c#7 v=0
602867 On ch=1 n=c#7 v=40
602875 On ch=1 n=c#8 v=17
602939 On ch=1 n=c#7 v=0
602941 On ch=1 n=c#8 v=0
603003 Par ch=1 c=64 v=127
603043 On ch=1 n=g#2 v=43
603065 On ch=1 n=g#3 v=36
603075 On ch=1 n=b6 v=68
603077 On ch=1 n=b7 v=42
603095 On ch=1 n=g#2 v=0
603123 On ch=1 n=b6 v=0
603125 On ch=1 n=g#3 v=0
603135 On ch=1 n=b7 v=0
603223 On ch=1 n=b7 v=31
603223 On ch=1 n=b6 v=63
603285 On ch=1 n=b6 v=0
603287 On ch=1 n=b7 v=0
603413 On ch=1 n=b7 v=44
603421 On ch=1 n=b6 v=45
603425 On ch=1 n=d#5 v=58
603425 On ch=1 n=d#4 v=55
603435 On ch=1 n=b4 v=55
603465 On ch=1 n=b7 v=0
603477 On ch=1 n=d#4 v=0
603477 On ch=1 n=d#5 v=0
603491 On ch=1 n=b6 v=0
603494 On ch=1 n=b4 v=0
603494 Par ch=1 c=64 v=0
603541 On ch=1 n=b7 v=57
603541 On ch=1 n=d#4 v=59
603557 On ch=1 n=b6 v=83
603575 On ch=1 n=d#5 v=24
603577 On ch=1 n=b4 v=29
603597 On ch=1 n=b6 v=0
603600 On ch=1 n=d#4 v=0
603627 On ch=1 n=b7 v=0
603635 On ch=1 n=b4 v=0
603637 On ch=1 n=d#5 v=0
603697 On ch=1 n=a#6 v=73
603705 On ch=1 n=a#7 v=59
603706 On ch=1 n=d#5 v=24
603708 On ch=1 n=b4 v=29
603709 On ch=1 n=g#4 v=58
603751 On ch=1 n=a#7 v=0
603756 On ch=1 n=g#4 v=0
603759 On ch=1 n=a#6 v=0
603766 On ch=1 n=b4 v=0
603768 On ch=1 n=d#5 v=0
603837 On ch=1 n=a#7 v=39
603843 On ch=1 n=a#6 v=52
603891 On ch=1 n=a#7 v=0
603905 On ch=1 n=a#6 v=0
603995 On ch=1 n=b2 v=92
603997 On ch=1 n=g#6 v=70
603999 On ch=1 n=b3 v=63
604009 On ch=1 n=g#7 v=55
604029 On ch=1 n=b2 v=0
604045 On ch=1 n=b3 v=0
604048 On ch=1 n=g#6 v=0
604058 On ch=1 n=g#7 v=0
604060 Par ch=1 c=64 v=127
604124 On ch=1 n=g#7 v=48
604126 On ch=1 n=g#6 v=47
604210 On ch=1 n=g#6 v=0
604224 On ch=1 n=g#7 v=0
604272 On ch=1 n=d#5 v=72
604280 On ch=1 n=d#4 v=61
604288 On ch=1 n=b4 v=50
604298 On ch=1 n=g6 v=62
604306 On ch=1 n=g7 v=43
604309 On ch=1 n=d#5 v=0
604336 On ch=1 n=b4 v=0
604340 On ch=1 n=d#4 v=0
604350 On ch=1 n=g6 v=0
604352 Par ch=1 c=64 v=0
604372 On ch=1 n=g7 v=0
604388 On ch=1 n=d#5 v=58
604400 On ch=1 n=b4 v=70
604402 On ch=1 n=g6 v=88
604404 On ch=1 n=d#4 v=55
604430 On ch=1 n=g7 v=50
604448 On ch=1 n=g6 v=0
604450 On ch=1 n=d#5 v=0
604456 On ch=1 n=b4 v=0
604462 On ch=1 n=d#4 v=0
604490 On ch=1 n=g7 v=0
604536 On ch=1 n=d#5 v=65
604539 On ch=1 n=g#6 v=81
604542 On ch=1 n=b4 v=68
604548 On ch=1 n=g#7 v=62
604562 On ch=1 n=g#4 v=60
604580 On ch=1 n=g#6 v=0
604583 On ch=1 n=d#5 v=0
604586 On ch=1 n=b4 v=0
604594 On ch=1 n=g#7 v=0
604608 On ch=1 n=g#4 v=0
604674 On ch=1 n=g#7 v=46
604682 On ch=1 n=g#6 v=47
604732 On ch=1 n=g#6 v=0
604737 On ch=1 n=g#7 v=0
604804 On ch=1 n=d#3 v=86
604812 On ch=1 n=a#6 v=65
604814 On ch=1 n=d#4 v=62
604820 On ch=1 n=a#7 v=65
604838 On ch=1 n=d#3 v=0
604862 On ch=1 n=d#4 v=0
604865 On ch=1 n=a#7 v=0
604868 On ch=1 n=a#6 v=0
604874 Par ch=1 c=64 v=127
604944 On ch=1 n=a#7 v=46
604948 On ch=1 n=a#6 v=60
604990 On ch=1 n=a#7 v=0
604998 On ch=1 n=a#6 v=0
605092 On ch=1 n=g5 v=69
605104 On ch=1 n=g4 v=65
605112 On ch=1 n=d#6 v=76
605124 On ch=1 n=d#7 v=58
605138 On ch=1 n=g5 v=0
605154 On ch=1 n=g4 v=0
605156 On ch=1 n=d#6 v=0
605166 On ch=1 n=d#7 v=0
605182 Par ch=1 c=64 v=0
605194 On ch=1 n=g5 v=68
605210 On ch=1 n=g4 v=69
605224 On ch=1 n=d#6 v=54
605228 On ch=1 n=d#7 v=50
605244 On ch=1 n=d#5 v=26
605260 On ch=1 n=g4 v=0
605260 On ch=1 n=g5 v=0
605290 On ch=1 n=d#7 v=0
605298 On ch=1 n=d#6 v=0
605310 On ch=1 n=d#5 v=0
605350 On ch=1 n=g5 v=69
605360 On ch=1 n=a#4 v=64
605360 On ch=1 n=d#7 v=61
605366 On ch=1 n=d#6 v=64
605376 On ch=1 n=d#5 v=81
605420 On ch=1 n=d#7 v=0
605423 On ch=1 n=d#5 v=0
605426 On ch=1 n=g5 v=0
605430 On ch=1 n=d#6 v=0
605474 On ch=1 n=a#4 v=0
605502 On ch=1 n=d#7 v=61
605508 On ch=1 n=d#6 v=55
605566 On ch=1 n=d#6 v=0
605574 On ch=1 n=d#7 v=0
605632 On ch=1 n=g3 v=93
605640 On ch=1 n=g4 v=73
605650 On ch=1 n=e7 v=80
605656 On ch=1 n=e6 v=67
605658 Par ch=1 c=64 v=127
605664 On ch=1 n=g3 v=0
605686 On ch=1 n=g4 v=0
605686 On ch=1 n=e7 v=0
605696 On ch=1 n=e6 v=0
605772 On ch=1 n=e7 v=25
605780 On ch=1 n=e6 v=31
605826 On ch=1 n=e7 v=0
605830 On ch=1 n=e6 v=0
605882 On ch=1 n=a#5 v=72
605900 On ch=1 n=c#5 v=51
605900 On ch=1 n=d#6 v=80
605906 On ch=1 n=d#7 v=67
605924 On ch=1 n=a#5 v=0
605948 On ch=1 n=d#7 v=0
605952 On ch=1 n=c#5 v=0
605960 On ch=1 n=d#6 v=0
606006 On ch=1 n=a#5 v=30
606009 On ch=1 n=c#5 v=69
606014 On ch=1 n=d#7 v=55
606026 Par ch=1 c=64 v=0
606030 On ch=1 n=d#6 v=56
606060 On ch=1 n=d#7 v=0
606063 On ch=1 n=c#5 v=0
606068 On ch=1 n=a#5 v=0
606078 On ch=1 n=d#6 v=0
606153 On ch=1 n=a#5 v=52
606157 On ch=1 n=c#6 v=68
606166 On ch=1 n=c#7 v=58
606186 On ch=1 n=a#4 v=46
606194 On ch=1 n=a#5 v=0
606196 On ch=1 n=d#5 v=55
606198 On ch=1 n=c#6 v=0
606212 On ch=1 n=c#7 v=0
606242 On ch=1 n=a#4 v=0
606242 On ch=1 n=d#5 v=0
606268 On ch=1 n=c#6 v=57
606268 On ch=1 n=c#7 v=67
606346 On ch=1 n=c#7 v=0
606370 On ch=1 n=c#6 v=0
606408 On ch=1 n=g#3 v=95
606410 On ch=1 n=g#4 v=74
606422 On ch=1 n=b5 v=73
606422 On ch=1 n=b6 v=91
606438 On ch=1 n=g#3 v=0
606450 On ch=1 n=g#4 v=0
606460 On ch=1 n=b6 v=0
606466 On ch=1 n=b5 v=0
606472 Par ch=1 c=64 v=127
606534 On ch=1 n=b5 v=70
606534 On ch=1 n=b6 v=76
606594 On ch=1 n=b5 v=0
606602 On ch=1 n=b6 v=0
606658 On ch=1 n=d#5 v=79
606662 On ch=1 n=g#5 v=58
606666 On ch=1 n=b6 v=98
606674 On ch=1 n=b5 v=55
606694 On ch=1 n=d#5 v=0
606710 On ch=1 n=g#5 v=0
606720 On ch=1 n=b6 v=0
606732 On ch=1 n=b5 v=0
606782 On ch=1 n=g#5 v=51
606785 On ch=1 n=d#5 v=55
606790 On ch=1 n=b6 v=93
606806 On ch=1 n=b5 v=56
606826 On ch=1 n=b6 v=0
606844 On ch=1 n=d#5 v=0
606864 On ch=1 n=b5 v=0
606867 On ch=1 n=g#5 v=0
606932 On ch=1 n=a#5 v=72
606946 On ch=1 n=a#6 v=56
606946 On ch=1 n=d#5 v=65
606964 On ch=1 n=b4 v=62
606974 On ch=1 n=a#5 v=0
606994 On ch=1 n=a#6 v=0
606997 On ch=1 n=d#5 v=0
607007 On ch=1 n=b4 v=0
607049 On ch=1 n=a#6 v=55
607053 On ch=1 n=a#5 v=34
607095 On ch=1 n=a#6 v=0
607125 On ch=1 n=a#5 v=0
607128 Par ch=1 c=64 v=0
607221 On ch=1 n=e4 v=101
607221 On ch=1 n=g#5 v=56
607227 On ch=1 n=g#6 v=55
607231 On ch=1 n=e3 v=94
607261 On ch=1 n=e3 v=0
607273 On ch=1 n=e4 v=0
607275 On ch=1 n=g#6 v=0
607275 On ch=1 n=g#5 v=0
607329 Par ch=1 c=64 v=127
607337 On ch=1 n=g#6 v=57
607337 On ch=1 n=g#5 v=58
607403 On ch=1 n=g#6 v=0
607451 On ch=1 n=g#5 v=0
607463 On ch=1 n=g6 v=42
607469 On ch=1 n=d5 v=65
607471 On ch=1 n=b4 v=71
607485 On ch=1 n=g5 v=14
607511 On ch=1 n=b4 v=0
607514 On ch=1 n=d5 v=0
607529 On ch=1 n=g6 v=0
607535 On ch=1 n=g5 v=0
607589 On ch=1 n=b4 v=59
607589 On ch=1 n=d5 v=61
607590 On ch=1 n=g6 v=42
607612 On ch=1 n=g5 v=14
607651 On ch=1 n=d5 v=0
607656 On ch=1 n=g6 v=0
607659 On ch=1 n=b4 v=0
607662 On ch=1 n=g5 v=0
607741 On ch=1 n=g#5 v=79
607743 On ch=1 n=d5 v=74
607749 On ch=1 n=a#4 v=73
607759 On ch=1 n=g#6 v=52
607783 On ch=1 n=d5 v=0
607787 On ch=1 n=g#5 v=0
607797 On ch=1 n=a#4 v=0
607807 On ch=1 n=g#6 v=0
607859 On ch=1 n=g#6 v=77
607864 On ch=1 n=g#5 v=54
607913 On ch=1 n=g#5 v=0
607923 On ch=1 n=g#6 v=0
607943 Par ch=1 c=64 v=0
608003 On ch=1 n=a#5 v=70
608006 On ch=1 n=a#6 v=68
608013 On ch=1 n=d#4 v=97
608019 On ch=1 n=d#3 v=92
608051 On ch=1 n=a#6 v=0
608059 On ch=1 n=d#3 v=0
608081 On ch=1 n=a#5 v=0
608083 On ch=1 n=d#4 v=0
608119 On ch=1 n=a#6 v=57
608129 Par ch=1 c=64 v=127
608135 On ch=1 n=a#5 v=56
608165 On ch=1 n=a#6 v=0
608191 On ch=1 n=a#5 v=0
608269 On ch=1 n=g4 v=101
608272 On ch=1 n=a#4 v=70
608295 On ch=1 n=d#5 v=89
608298 On ch=1 n=d#6 v=56
608317 On ch=1 n=a#4 v=0
608319 On ch=1 n=g4 v=0
608327 On ch=1 n=d#5 v=0
608343 On ch=1 n=d#6 v=0
608387 On ch=1 n=g4 v=88
608390 On ch=1 n=a#4 v=47
608413 On ch=1 n=d#6 v=29
608435 On ch=1 n=g4 v=0
608463 On ch=1 n=a#4 v=0
608481 On ch=1 n=d#6 v=0
608529 On ch=1 n=d#5 v=103
608529 On ch=1 n=a#4 v=64
608531 On ch=1 n=g4 v=69
608549 On ch=1 n=d#6 v=80
608559 On ch=1 n=d#7 v=83
608571 On ch=1 n=g4 v=0
608581 On ch=1 n=a#4 v=0
608592 On ch=1 n=d#7 v=0
608607 On ch=1 n=d#5 v=0
608615 On ch=1 n=d#6 v=0
608657 On ch=1 n=d#7 v=47
608757 On ch=1 n=d#7 v=0
608865 On ch=1 n=d#7 v=74
608867 On ch=1 n=d#8 v=91
608897 On ch=1 n=d#8 v=0
608901 On ch=1 n=d#6 v=92
608903 On ch=1 n=d#7 v=0
608915 On ch=1 n=g5 v=74
608919 On ch=1 n=a#5 v=52
609015 On ch=1 n=d#7 v=72
609027 On ch=1 n=d#8 v=81
609061 On ch=1 n=d#8 v=0
609061 On ch=1 n=d#6 v=0
609065 On ch=1 n=a#5 v=0
609067 On ch=1 n=d#7 v=0
609095 On ch=1 n=g5 v=0
609151 On ch=1 n=d#8 v=69
609153 On ch=1 n=d#7 v=82
609231 On ch=1 n=d#8 v=0
609239 On ch=1 n=d#7 v=0
609285 On ch=1 n=d#7 v=99
609287 On ch=1 n=d#8 v=91
609357 On ch=1 n=d#8 v=0
609373 On ch=1 n=d#7 v=0
609433 On ch=1 n=c#7 v=102
609443 On ch=1 n=c#8 v=86
609493 On ch=1 n=c#8 v=0
609511 On ch=1 n=c#7 v=0
609583 On ch=1 n=c#7 v=83
609593 On ch=1 n=c#8 v=76
609743 On ch=1 n=c#7 v=0
609751 On ch=1 n=c#8 v=0
609773 Par ch=1 c=64 v=0
609789 On ch=1 n=g#3 v=107
609793 On ch=1 n=g#2 v=104
609799 On ch=1 n=c8 v=101
609799 On ch=1 n=c7 v=102
609841 On ch=1 n=g#2 v=0
609887 On ch=1 n=g#3 v=0
609913 On ch=1 n=c8 v=0
609925 On ch=1 n=c7 v=0
609943 Par ch=1 c=64 v=127
609987 On ch=1 n=c8 v=70
609993 On ch=1 n=c7 v=85
610075 On ch=1 n=c8 v=0
610083 On ch=1 n=c7 v=0
610139 On ch=1 n=d#5 v=97
610143 On ch=1 n=c8 v=78
610151 On ch=1 n=c7 v=78
610153 On ch=1 n=f#4 v=72
610153 On ch=1 n=a4 v=67
610179 On ch=1 n=d#5 v=0
610193 On ch=1 n=f#4 v=0
610195 On ch=1 n=a4 v=0
610243 On ch=1 n=c7 v=0
610246 On ch=1 n=c8 v=0
610271 On ch=1 n=a4 v=36
610271 On ch=1 n=d#5 v=76
610274 On ch=1 n=f#4 v=57
610295 On ch=1 n=c8 v=91
610297 On ch=1 n=c7 v=87
610331 On ch=1 n=c8 v=0
610349 On ch=1 n=f#4 v=0
610349 On ch=1 n=c7 v=0
610355 On ch=1 n=d#5 v=0
610367 On ch=1 n=a4 v=0
610457 On ch=1 n=d#5 v=73
610467 On ch=1 n=a7 v=99
610469 On ch=1 n=a6 v=98
610471 On ch=1 n=a4 v=40
610489 On ch=1 n=d#5 v=0
610489 On ch=1 n=f#4 v=67
610507 On ch=1 n=a7 v=0
610513 On ch=1 n=a6 v=0
610525 On ch=1 n=a4 v=0
610529 On ch=1 n=f#4 v=0
610609 On ch=1 n=a6 v=87
610611 On ch=1 n=a7 v=89
610641 On ch=1 n=f#3 v=47
610679 On ch=1 n=a7 v=0
610697 On ch=1 n=f#3 v=0
610713 On ch=1 n=a6 v=0
610787 Par ch=1 c=64 v=0
610797 On ch=1 n=c4 v=108
610799 On ch=1 n=c3 v=113
610802 On ch=1 n=g#6 v=98
610807 On ch=1 n=g#7 v=92
610867 On ch=1 n=c3 v=0
610883 On ch=1 n=g#6 v=0
610901 On ch=1 n=g#7 v=0
610921 On ch=1 n=c4 v=0
610941 Par ch=1 c=64 v=127
610969 On ch=1 n=g#6 v=76
610971 On ch=1 n=g#7 v=65
611051 On ch=1 n=g#6 v=0
611065 On ch=1 n=g#7 v=0
611111 On ch=1 n=a5 v=82
611113 On ch=1 n=g#6 v=79
611115 On ch=1 n=d#5 v=84
611115 On ch=1 n=a4 v=78
611117 On ch=1 n=g#7 v=83
611151 On ch=1 n=a5 v=0
611153 On ch=1 n=d#5 v=0
611157 On ch=1 n=a4 v=0
611193 On ch=1 n=g#6 v=0
611197 On ch=1 n=g#7 v=0
611239 On ch=1 n=a4 v=42
611242 On ch=1 n=d#5 v=62
611245 On ch=1 n=a5 v=27
611247 On ch=1 n=g#6 v=85
611247 On ch=1 n=g#7 v=88
611287 On ch=1 n=d#5 v=0
611291 On ch=1 n=a4 v=0
611303 On ch=1 n=a5 v=0
611325 On ch=1 n=g#6 v=0
611349 On ch=1 n=g#7 v=0
611373 On ch=1 n=a5 v=54
611379 On ch=1 n=d#5 v=70
611389 On ch=1 n=f#7 v=77
611389 On ch=1 n=f#6 v=87
611393 On ch=1 n=a4 v=49
611419 On ch=1 n=a5 v=0
611443 On ch=1 n=d#5 v=0
611453 On ch=1 n=f#7 v=0
611477 On ch=1 n=a4 v=0
611487 On ch=1 n=f#6 v=0
611539 On ch=1 n=f#7 v=70
611545 On ch=1 n=f#6 v=58
611637 On ch=1 n=f#6 v=0
611661 On ch=1 n=f#7 v=0
611693 Par ch=1 c=64 v=0
611725 On ch=1 n=c#4 v=102
611731 On ch=1 n=c#3 v=104
611737 On ch=1 n=e7 v=97
611747 On ch=1 n=e6 v=79
611809 On ch=1 n=e6 v=0
611831 On ch=1 n=e7 v=0
611847 On ch=1 n=c#3 v=0
611853 On ch=1 n=c#4 v=0
611877 Par ch=1 c=64 v=127
612115 On ch=1 n=c#5 v=60
612127 On ch=1 n=c#6 v=69
612129 On ch=1 n=a4 v=27
612135 On ch=1 n=e5 v=66
612135 On ch=1 n=e4 v=62
612141 On ch=1 n=a5 v=47
612167 On ch=1 n=c#5 v=0
612179 On ch=1 n=e5 v=0
612182 On ch=1 n=e4 v=0
612185 On ch=1 n=c#6 v=0
612197 On ch=1 n=a4 v=0
612199 On ch=1 n=a5 v=0
612257 On ch=1 n=e4 v=68
612257 On ch=1 n=c#5 v=50
612267 On ch=1 n=a5 v=52
612271 On ch=1 n=c#6 v=57
612287 On ch=1 n=e5 v=40
612297 On ch=1 n=a4 v=34
612323 On ch=1 n=e4 v=0
612326 On ch=1 n=c#5 v=0
612337 On ch=1 n=e5 v=0
612345 On ch=1 n=c#6 v=0
612347 On ch=1 n=a5 v=0
612369 On ch=1 n=a4 v=0
612415 On ch=1 n=c#5 v=58
612417 On ch=1 n=d#4 v=75
612421 On ch=1 n=d#6 v=81
612431 On ch=1 n=a5 v=49
612439 On ch=1 n=e5 v=50
612445 On ch=1 n=a4 v=31
612477 On ch=1 n=c#5 v=0
612483 On ch=1 n=d#4 v=0
612485 On ch=1 n=e5 v=0
612485 On ch=1 n=d#6 v=0
612493 On ch=1 n=a5 v=0
612513 On ch=1 n=a4 v=0
612561 On ch=1 n=c#5 v=62
612563 On ch=1 n=d#4 v=66
612565 On ch=1 n=d#6 v=75
612581 On ch=1 n=a4 v=52
612584 On ch=1 n=e5 v=43
612587 On ch=1 n=a5 v=34
612633 On ch=1 n=a4 v=0
612637 On ch=1 n=e5 v=0
612639 On ch=1 n=d#4 v=0
612641 On ch=1 n=c#5 v=0
612649 On ch=1 n=a5 v=0
612675 On ch=1 n=d#6 v=0
612741 On ch=1 n=e6 v=93
612741 On ch=1 n=c#5 v=65
612744 On ch=1 n=a5 v=45
612747 On ch=1 n=c#4 v=76
612757 On ch=1 n=e5 v=66
612765 On ch=1 n=a4 v=17
612795 On ch=1 n=c#4 v=0
612803 On ch=1 n=e5 v=0
612815 On ch=1 n=c#5 v=0
612829 On ch=1 n=a4 v=0
612835 On ch=1 n=a5 v=0
612847 On ch=1 n=e6 v=0
612897 On ch=1 n=c#5 v=67
612903 On ch=1 n=c#4 v=63
612905 On ch=1 n=e6 v=78
612907 On ch=1 n=a5 v=55
612909 On ch=1 n=a4 v=12
612925 On ch=1 n=e5 v=36
612943 On ch=1 n=e6 v=0
612951 On ch=1 n=c#4 v=0
612963 On ch=1 n=c#5 v=0
612977 On ch=1 n=a4 v=0
612981 On ch=1 n=e5 v=0
612985 On ch=1 n=a5 v=0
613027 On ch=1 n=c#5 v=75
613035 On ch=1 n=d#4 v=76
613040 On ch=1 n=a4 v=12
613045 On ch=1 n=d#6 v=86
613045 On ch=1 n=e5 v=85
613051 On ch=1 n=a5 v=57
613097 On ch=1 n=d#4 v=0
613103 On ch=1 n=a5 v=0
613105 On ch=1 n=e5 v=0
613108 On ch=1 n=a4 v=0
613111 On ch=1 n=d#6 v=0
613115 On ch=1 n=c#5 v=0
613170 On ch=1 n=a4 v=12
613171 On ch=1 n=c#5 v=86
613173 On ch=1 n=e5 v=73
613176 On ch=1 n=a5 v=38
613181 On ch=1 n=d#6 v=79
613183 On ch=1 n=e4 v=73
613213 On ch=1 n=e5 v=0
613217 On ch=1 n=c#5 v=0
613223 On ch=1 n=e4 v=0
613225 On ch=1 n=a5 v=0
613233 On ch=1 n=d#6 v=0
613238 On ch=1 n=a4 v=0
613281 On ch=1 n=e4 v=94
613291 On ch=1 n=c#5 v=69
613295 On ch=1 n=a5 v=43
613299 On ch=1 n=e5 v=58
613299 On ch=1 n=c#6 v=81
613307 On ch=1 n=a4 v=24
613341 On ch=1 n=c#6 v=0
613349 On ch=1 n=e5 v=0
613371 On ch=1 n=a5 v=0
613373 On ch=1 n=a4 v=0
613377 On ch=1 n=c#5 v=0
613389 On ch=1 n=e4 v=0
613427 On ch=1 n=c#6 v=73
613430 On ch=1 n=a4 v=12
613431 On ch=1 n=c#5 v=86
613433 On ch=1 n=a5 v=66
613434 On ch=1 n=e4 v=78
613451 On ch=1 n=e5 v=78
613481 On ch=1 n=a5 v=0
613498 On ch=1 n=a4 v=0
613523 On ch=1 n=c#5 v=0
613523 On ch=1 n=e5 v=0
613537 On ch=1 n=e4 v=0
613561 On ch=1 n=c#6 v=0
613583 Par ch=1 c=64 v=0
613597 On ch=1 n=d#6 v=89
613599 On ch=1 n=b5 v=84
613602 On ch=1 n=d#5 v=100
613605 On ch=1 n=g#5 v=17
613611 On ch=1 n=g#4 v=77
613613 On ch=1 n=d#4 v=72
613615 On ch=1 n=b4 v=75
613659 On ch=1 n=b4 v=0
613671 On ch=1 n=g#5 v=0
613689 On ch=1 n=d#4 v=0
613701 On ch=1 n=d#5 v=0
613704 On ch=1 n=g#4 v=0
613714 On ch=1 n=b5 v=0
613722 Par ch=1 c=64 v=127
613736 On ch=1 n=d#6 v=0
613768 On ch=1 n=d5 v=79
613772 On ch=1 n=d4 v=68
613772 On ch=1 n=e6 v=71
613806 On ch=1 n=d5 v=0
613816 On ch=1 n=e6 v=0
613822 On ch=1 n=d4 v=0
613902 On ch=1 n=c#5 v=83
613912 On ch=1 n=c#4 v=71
613934 On ch=1 n=f6 v=47
613934 On ch=1 n=f5 v=34
613958 On ch=1 n=c#4 v=0
613960 On ch=1 n=c#5 v=0
613986 On ch=1 n=f6 v=0
613998 On ch=1 n=f5 v=0
614036 On ch=1 n=c4 v=67
614036 On ch=1 n=c5 v=59
614044 On ch=1 n=f#6 v=64
614050 On ch=1 n=f#5 v=69
614086 On ch=1 n=c5 v=0
614088 On ch=1 n=f#5 v=0
614094 On ch=1 n=c4 v=0
614096 On ch=1 n=f#6 v=0
614168 On ch=1 n=b4 v=79
614168 On ch=1 n=b3 v=81
614186 On ch=1 n=g6 v=89
614194 On ch=1 n=g5 v=59
614208 On ch=1 n=b4 v=0
614210 On ch=1 n=b3 v=0
614220 On ch=1 n=g6 v=0
614248 On ch=1 n=g5 v=0
614308 On ch=1 n=a#4 v=62
614311 On ch=1 n=a#3 v=69
614320 On ch=1 n=g#6 v=75
614324 On ch=1 n=g#5 v=64
614356 On ch=1 n=g#6 v=0
614358 On ch=1 n=a#4 v=0
614366 On ch=1 n=a#3 v=0
614366 On ch=1 n=g#5 v=0
614440 On ch=1 n=a4 v=72
614443 On ch=1 n=a3 v=72
614453 On ch=1 n=a6 v=83
614456 On ch=1 n=a5 v=61
614479 On ch=1 n=a4 v=0
614483 On ch=1 n=a3 v=0
614487 On ch=1 n=a6 v=0
614503 On ch=1 n=a5 v=0
614573 On ch=1 n=g#4 v=77
614579 On ch=1 n=g#3 v=88
614579 On ch=1 n=a#5 v=73
614581 On ch=1 n=a#6 v=78
614619 On ch=1 n=g#3 v=0
614621 On ch=1 n=g#4 v=0
614629 On ch=1 n=a#6 v=0
614657 On ch=1 n=a#5 v=0
614705 On ch=1 n=g4 v=88
614708 On ch=1 n=g3 v=85
614715 On ch=1 n=b6 v=101
614735 On ch=1 n=b5 v=41
614749 On ch=1 n=b6 v=0
614749 On ch=1 n=g4 v=0
614755 On ch=1 n=g3 v=0
614809 On ch=1 n=b5 v=0
614833 On ch=1 n=f#4 v=96
614836 On ch=1 n=f#3 v=92
614847 On ch=1 n=c6 v=74
614855 On ch=1 n=c7 v=64
614887 On ch=1 n=c6 v=0
614901 On ch=1 n=c7 v=0
614933 On ch=1 n=f#3 v=0
614935 On ch=1 n=f#4 v=0
614967 On ch=1 n=f3 v=98
614967 On ch=1 n=f4 v=106
614973 On ch=1 n=c#7 v=84
614975 On ch=1 n=c#6 v=79
614999 On ch=1 n=f4 v=0
615004 On ch=1 n=f3 v=0
615009 On ch=1 n=c#7 v=0
615027 On ch=1 n=c#6 v=0
615087 On ch=1 n=e3 v=106
615087 On ch=1 n=d7 v=98
615087 On ch=1 n=d6 v=94
615087 On ch=1 n=e4 v=98
615117 On ch=1 n=e3 v=0
615125 On ch=1 n=d7 v=0
615127 On ch=1 n=e4 v=0
615131 On ch=1 n=d6 v=0
615175 Par ch=1 c=64 v=0
615211 On ch=1 n=d#4 v=98
615211 On ch=1 n=d#7 v=89
615214 On ch=1 n=d#6 v=90
615217 On ch=1 n=g3 v=84
615220 On ch=1 n=g6 v=79
615220 On ch=1 n=a#6 v=62
615220 On ch=1 n=d#3 v=79
615220 On ch=1 n=a#3 v=70
615261 On ch=1 n=g6 v=0
615269 On ch=1 n=g3 v=0
615272 On ch=1 n=a#6 v=0
615283 On ch=1 n=d#3 v=0
615293 On ch=1 n=d#7 v=0
615301 On ch=1 n=a#3 v=0
615305 On ch=1 n=d#6 v=0
615313 Par ch=1 c=64 v=127
615325 On ch=1 n=d#4 v=0
615353 On ch=1 n=d3 v=95
615356 On ch=1 n=d4 v=88
615366 On ch=1 n=e7 v=89
615378 On ch=1 n=e6 v=48
615392 On ch=1 n=d3 v=0
615400 On ch=1 n=e7 v=0
615410 On ch=1 n=d4 v=0
615414 On ch=1 n=f6 v=22
615430 On ch=1 n=e6 v=0
615482 On ch=1 n=f7 v=84
615488 On ch=1 n=c#4 v=86
615492 On ch=1 n=c#3 v=92
615518 On ch=1 n=f7 v=0
615538 On ch=1 n=c#3 v=0
615546 On ch=1 n=f6 v=0
615548 On ch=1 n=c#4 v=0
615606 On ch=1 n=c3 v=94
615606 On ch=1 n=c4 v=83
615618 On ch=1 n=f#7 v=81
615648 On ch=1 n=c4 v=0
615666 On ch=1 n=f#7 v=0
615676 On ch=1 n=c3 v=0
615738 On ch=1 n=g7 v=92
615744 On ch=1 n=b3 v=93
615748 On ch=1 n=b2 v=100
615760 On ch=1 n=g6 v=55
615774 On ch=1 n=g7 v=0
615780 On ch=1 n=b2 v=0
615782 On ch=1 n=b3 v=0
615820 On ch=1 n=g6 v=0
615868 On ch=1 n=g#6 v=85
615868 On ch=1 n=a#3 v=81
615868 On ch=1 n=g#7 v=87
615874 On ch=1 n=a#2 v=89
615906 On ch=1 n=g#7 v=0
615910 On ch=1 n=g#6 v=0
615926 On ch=1 n=a#3 v=0
615986 On ch=1 n=a3 v=88
615989 On ch=1 n=a2 v=97
616004 On ch=1 n=a7 v=84
616004 On ch=1 n=a6 v=83
616034 On ch=1 n=a2 v=0
616034 On ch=1 n=a#2 v=0
616040 On ch=1 n=a6 v=0
616040 On ch=1 n=a7 v=0
616042 On ch=1 n=a3 v=0
616118 On ch=1 n=g#3 v=90
616118 On ch=1 n=a#7 v=77
616118 On ch=1 n=g#2 v=90
616130 On ch=1 n=a#6 v=70
616186 On ch=1 n=a#6 v=0
616210 On ch=1 n=a#7 v=0
616215 On ch=1 n=g#3 v=0
616242 On ch=1 n=g3 v=88
616246 On ch=1 n=g2 v=94
616264 On ch=1 n=b7 v=75
616264 On ch=1 n=b6 v=85
616284 On ch=1 n=g#2 v=0
616287 On ch=1 n=g2 v=0
616290 On ch=1 n=g3 v=0
616302 On ch=1 n=b7 v=0
616304 On ch=1 n=b6 v=0
616372 On ch=1 n=f#3 v=86
616374 On ch=1 n=f#2 v=94
616386 On ch=1 n=c#8 v=81
616388 On ch=1 n=c#7 v=70
616420 On ch=1 n=c#8 v=0
616432 On ch=1 n=c#7 v=0
616446 On ch=1 n=f#3 v=0
616500 On ch=1 n=f#2 v=0
616518 On ch=1 n=e2 v=70
616534 On ch=1 n=d8 v=81
616534 On ch=1 n=d7 v=58
616537 On ch=1 n=e3 v=63
616560 On ch=1 n=e2 v=0
616574 On ch=1 n=d8 v=0
616578 On ch=1 n=e3 v=0
616590 On ch=1 n=d7 v=0
616642 On ch=1 n=d#3 v=95
616645 On ch=1 n=d#2 v=88
616646 On ch=1 n=d#7 v=58
616650 On ch=1 n=d#8 v=89
616678 On ch=1 n=d#8 v=0
616702 On ch=1 n=d#7 v=0
616704 On ch=1 n=d#2 v=0
616738 On ch=1 n=d#3 v=0
616986 Par ch=1 c=64 v=0
616986 On ch=1 n=g#3 v=110
616992 On ch=1 n=g#2 v=103
616996 On ch=1 n=g#5 v=88
617010 On ch=1 n=b4 v=87
617010 On ch=1 n=d#5 v=39
617092 On ch=1 n=d#5 v=0
617150 On ch=1 n=g#2 v=0
617174 On ch=1 n=g#3 v=0
617174 On ch=1 n=b4 v=0
617200 Par ch=1 c=64 v=127
617266 On ch=1 n=g#5 v=0
617294 On ch=1 n=d#4 v=86
617302 On ch=1 n=d#3 v=75
617328 On ch=1 n=d#4 v=0
617336 On ch=1 n=d#3 v=0
617460 On ch=1 n=g#4 v=66
617488 On ch=1 n=g#3 v=31
617518 On ch=1 n=g#4 v=0
617566 On ch=1 n=g#3 v=0
617640 On ch=1 n=b6 v=119
617640 On ch=1 n=b5 v=107
617650 On ch=1 n=d#5 v=99
617656 On ch=1 n=d#6 v=72
617660 On ch=1 n=d#4 v=89
617700 On ch=1 n=d#5 v=0
617740 On ch=1 n=d#4 v=0
617743 On ch=1 n=b5 v=0
617762 On ch=1 n=b6 v=0
617822 On ch=1 n=d#6 v=0
617922 Par ch=1 c=64 v=0
617932 On ch=1 n=a#6 v=81
617932 On ch=1 n=a#5 v=85
617935 On ch=1 n=g#3 v=100
617942 On ch=1 n=g#2 v=99
617970 On ch=1 n=d#6 v=45
617986 On ch=1 n=g#2 v=0
617992 On ch=1 n=a#6 v=0
618018 On ch=1 n=d#6 v=0
618020 On ch=1 n=g#3 v=0
618060 On ch=1 n=b5 v=75
618060 Par ch=1 c=64 v=127
618066 On ch=1 n=a#5 v=0
618066 On ch=1 n=b6 v=101
618104 On ch=1 n=b6 v=0
618104 On ch=1 n=b5 v=0
618178 On ch=1 n=d#4 v=90
618186 On ch=1 n=d#3 v=83
618206 On ch=1 n=c#7 v=90
618210 On ch=1 n=c#6 v=82
618220 On ch=1 n=d#3 v=0
618220 On ch=1 n=d#4 v=0
618304 On ch=1 n=c#7 v=0
618318 On ch=1 n=c#6 v=0
618330 On ch=1 n=g#4 v=83
618344 On ch=1 n=g#3 v=76
618380 On ch=1 n=g#4 v=0
618383 On ch=1 n=g#3 v=0
618504 On ch=1 n=b5 v=93
618514 On ch=1 n=b6 v=85
618520 On ch=1 n=d#6 v=58
618530 On ch=1 n=d#5 v=98
618542 On ch=1 n=b5 v=0
618542 On ch=1 n=d#4 v=84
618556 On ch=1 n=b6 v=0
618564 On ch=1 n=d#6 v=0
618624 On ch=1 n=d#5 v=0
618644 On ch=1 n=a#6 v=72
618648 On ch=1 n=a#5 v=71
618672 On ch=1 n=d#4 v=0
618682 On ch=1 n=a#6 v=0
618694 On ch=1 n=a#5 v=0
618762 On ch=1 n=b6 v=112
618762 On ch=1 n=b5 v=85
618778 On ch=1 n=d#6 v=57
618781 Par ch=1 c=64 v=0
618791 On ch=1 n=b6 v=0
618799 On ch=1 n=b5 v=0
618801 On ch=1 n=g#3 v=94
618806 On ch=1 n=g#2 v=94
618821 On ch=1 n=d#6 v=0
618843 On ch=1 n=g#2 v=0
618851 On ch=1 n=g#3 v=0
618885 On ch=1 n=c#7 v=91
618887 On ch=1 n=c#6 v=86
618887 Par ch=1 c=64 v=127
618927 On ch=1 n=c#7 v=0
618929 On ch=1 n=c#6 v=0
619021 On ch=1 n=d#4 v=85
619024 On ch=1 n=d#3 v=78
619027 On ch=1 n=d#6 v=95
619031 On ch=1 n=d#7 v=92
619057 On ch=1 n=d#3 v=0
619057 On ch=1 n=d#4 v=0
619111 On ch=1 n=d#6 v=0
619129 On ch=1 n=d#7 v=0
619171 On ch=1 n=g#4 v=75
619181 On ch=1 n=g#3 v=68
619211 On ch=1 n=g#4 v=0
619225 On ch=1 n=g#3 v=0
619311 On ch=1 n=c#6 v=79
619313 On ch=1 n=c#7 v=82
619347 On ch=1 n=c#7 v=0
619351 On ch=1 n=c#6 v=0
619351 On ch=1 n=d#5 v=97
619359 On ch=1 n=d#4 v=88
619387 On ch=1 n=d#5 v=0
619413 On ch=1 n=d#4 v=0
619443 On ch=1 n=b6 v=96
619443 On ch=1 n=b5 v=86
619477 On ch=1 n=b6 v=0
619480 On ch=1 n=b5 v=0
619573 On ch=1 n=a#6 v=77
619577 On ch=1 n=a#5 v=68
619583 On ch=1 n=d#6 v=65
619595 Par ch=1 c=64 v=0
619611 On ch=1 n=g#3 v=94
619619 On ch=1 n=g#2 v=92
619633 On ch=1 n=d#6 v=0
619655 On ch=1 n=g#2 v=0
619677 On ch=1 n=b5 v=86
619683 On ch=1 n=g#3 v=0
619683 On ch=1 n=a#5 v=0
619683 On ch=1 n=b6 v=107
619699 On ch=1 n=a#6 v=0
619702 Par ch=1 c=64 v=127
619723 On ch=1 n=b5 v=0
619733 On ch=1 n=b6 v=0
619809 On ch=1 n=d#4 v=91
619819 On ch=1 n=d#3 v=82
619835 On ch=1 n=c#7 v=90
619841 On ch=1 n=c#6 v=84
619849 On ch=1 n=d#4 v=0
619853 On ch=1 n=d#3 v=0
619925 On ch=1 n=c#7 v=0
619945 On ch=1 n=c#6 v=0
619965 On ch=1 n=g#4 v=86
619975 On ch=1 n=g#3 v=77
620009 On ch=1 n=g#4 v=0
620015 On ch=1 n=g#3 v=0
620083 On ch=1 n=b5 v=89
620088 On ch=1 n=b6 v=84
620093 On ch=1 n=d#6 v=62
620121 On ch=1 n=b5 v=0
620131 On ch=1 n=b6 v=0
620134 On ch=1 n=d#6 v=0
620149 On ch=1 n=d#5 v=95
620163 On ch=1 n=d#4 v=77
620185 On ch=1 n=d#5 v=0
620221 On ch=1 n=d#4 v=0
620221 On ch=1 n=a#5 v=82
620221 On ch=1 n=a#6 v=81
620259 On ch=1 n=a#6 v=0
620267 On ch=1 n=a#5 v=0
620361 On ch=1 n=b6 v=105
620363 Par ch=1 c=64 v=0
620366 On ch=1 n=b5 v=85
620375 On ch=1 n=d#6 v=62
620391 On ch=1 n=g#3 v=97
620393 On ch=1 n=b6 v=0
620399 On ch=1 n=g#2 v=86
620405 On ch=1 n=b5 v=0
620421 On ch=1 n=d#6 v=0
620431 On ch=1 n=g#3 v=0
620431 On ch=1 n=g#2 v=0
620469 Par ch=1 c=64 v=127
620493 On ch=1 n=a#6 v=81
620493 On ch=1 n=a#5 v=84
620531 On ch=1 n=a#6 v=0
620534 On ch=1 n=a#5 v=0
620611 On ch=1 n=d#4 v=87
620614 On ch=1 n=d#3 v=82
620623 On ch=1 n=g#5 v=78
620625 On ch=1 n=g#6 v=79
620647 On ch=1 n=d#4 v=0
620649 On ch=1 n=d#3 v=0
620661 On ch=1 n=g#5 v=0
620671 On ch=1 n=g#6 v=0
620755 On ch=1 n=g#4 v=78
620767 On ch=1 n=g#3 v=75
620811 On ch=1 n=g#4 v=0
620813 On ch=1 n=g#3 v=0
620961 On ch=1 n=b7 v=103
620963 On ch=1 n=b6 v=114
620969 On ch=1 n=d#5 v=95
620977 On ch=1 n=d#7 v=49
620979 On ch=1 n=d#4 v=83
620995 On ch=1 n=b6 v=0
621003 On ch=1 n=b7 v=0
621013 On ch=1 n=d#5 v=0
621029 On ch=1 n=d#7 v=0
621045 On ch=1 n=d#4 v=0
621253 Par ch=1 c=64 v=0
621261 On ch=1 n=a#7 v=80
621263 On ch=1 n=a#6 v=83
621275 On ch=1 n=d#7 v=55
621275 On ch=1 n=g#3 v=97
621279 On ch=1 n=g#2 v=90
621313 On ch=1 n=g#2 v=0
621319 On ch=1 n=d#7 v=0
621321 On ch=1 n=g#3 v=0
621327 On ch=1 n=a#6 v=0
621329 On ch=1 n=a#7 v=0
621361 Par ch=1 c=64 v=127
621387 On ch=1 n=b7 v=77
621387 On ch=1 n=b6 v=80
621425 On ch=1 n=b7 v=0
621429 On ch=1 n=b6 v=0
621499 On ch=1 n=d#3 v=90
621502 On ch=1 n=d#4 v=82
621527 On ch=1 n=c#7 v=86
621531 On ch=1 n=c#8 v=81
621533 On ch=1 n=d#3 v=0
621539 On ch=1 n=d#4 v=0
621637 On ch=1 n=c#8 v=0
621643 On ch=1 n=c#7 v=0
621649 On ch=1 n=g#4 v=78
621663 On ch=1 n=g#3 v=71
621695 On ch=1 n=g#4 v=0
621707 On ch=1 n=g#3 v=0
621809 On ch=1 n=b6 v=103
621815 On ch=1 n=b7 v=71
621817 On ch=1 n=d#7 v=56
621831 On ch=1 n=d#5 v=90
621843 On ch=1 n=b6 v=0
621843 On ch=1 n=d#4 v=81
621857 On ch=1 n=b7 v=0
621860 On ch=1 n=d#7 v=0
621865 On ch=1 n=d#5 v=0
621893 On ch=1 n=d#4 v=0
621943 On ch=1 n=a#7 v=73
621947 On ch=1 n=a#6 v=66
621985 On ch=1 n=a#7 v=0
621991 On ch=1 n=a#6 v=0
622067 Par ch=1 c=64 v=0
622069 On ch=1 n=b7 v=91
622072 On ch=1 n=b6 v=104
622079 On ch=1 n=d#7 v=71
622081 On ch=1 n=g#3 v=97
622085 On ch=1 n=g#2 v=96
622103 On ch=1 n=b6 v=0
622109 On ch=1 n=b7 v=0
622115 On ch=1 n=g#2 v=0
622115 On ch=1 n=d#7 v=0
622117 On ch=1 n=g#3 v=0
622159 Par ch=1 c=64 v=127
622193 On ch=1 n=c#8 v=89
622193 On ch=1 n=c#7 v=90
622243 On ch=1 n=c#7 v=0
622251 On ch=1 n=c#8 v=0
622309 On ch=1 n=d#4 v=84
622309 On ch=1 n=d#3 v=84
622339 On ch=1 n=d#7 v=84
622341 On ch=1 n=d#3 v=0
622343 On ch=1 n=d#8 v=92
622345 On ch=1 n=d#4 v=0
622383 On ch=1 n=d#8 v=0
622387 On ch=1 n=d#7 v=0
622457 On ch=1 n=g#4 v=80
622475 On ch=1 n=g#3 v=69
622495 On ch=1 n=g#4 v=0
622517 On ch=1 n=g#3 v=0
622603 On ch=1 n=c#7 v=83
622607 On ch=1 n=c#8 v=79
622627 On ch=1 n=d#5 v=97
622639 On ch=1 n=c#8 v=0
622639 On ch=1 n=c#7 v=0
622639 On ch=1 n=d#4 v=84
622671 On ch=1 n=d#5 v=0
622711 On ch=1 n=d#4 v=0
622731 On ch=1 n=b7 v=81
622739 On ch=1 n=b6 v=85
622765 On ch=1 n=b7 v=0
622779 On ch=1 n=b6 v=0
622851 Par ch=1 c=64 v=0
622865 On ch=1 n=a#6 v=70
622865 On ch=1 n=a#7 v=73
622869 On ch=1 n=g#3 v=95
622875 On ch=1 n=g#2 v=93
622885 On ch=1 n=d#7 v=52
622915 On ch=1 n=g#2 v=0
622931 On ch=1 n=a#6 v=0
622933 On ch=1 n=g#3 v=0
622941 On ch=1 n=d#7 v=0
622959 Par ch=1 c=64 v=127
622961 On ch=1 n=a#7 v=0
622967 On ch=1 n=b6 v=97
622969 On ch=1 n=b7 v=85
623005 On ch=1 n=b6 v=0
623072 On ch=1 n=b7 v=0
623095 On ch=1 n=d#3 v=79
623099 On ch=1 n=d#4 v=77
623113 On ch=1 n=c#8 v=86
623117 On ch=1 n=c#7 v=91
623129 On ch=1 n=d#3 v=0
623137 On ch=1 n=d#4 v=0
623199 On ch=1 n=c#8 v=0
623215 On ch=1 n=c#7 v=0
623243 On ch=1 n=g#4 v=83
623257 On ch=1 n=g#3 v=77
623283 On ch=1 n=g#4 v=0
623297 On ch=1 n=g#3 v=0
623383 On ch=1 n=b6 v=111
623386 On ch=1 n=b7 v=91
623411 On ch=1 n=b6 v=0
623415 On ch=1 n=b7 v=0
623425 On ch=1 n=d#5 v=90
623435 On ch=1 n=d#4 v=75
623457 On ch=1 n=d#5 v=0
623483 On ch=1 n=d#4 v=0
623513 On ch=1 n=a#6 v=76
623513 On ch=1 n=a#7 v=73
623549 On ch=1 n=a#6 v=0
623551 On ch=1 n=a#7 v=0
623605 Par ch=1 c=64 v=0
623649 On ch=1 n=b7 v=88
623651 On ch=1 n=b6 v=90
623659 On ch=1 n=d#7 v=64
623659 On ch=1 n=g#3 v=96
623661 On ch=1 n=g#2 v=95
623683 On ch=1 n=b7 v=0
623691 On ch=1 n=b6 v=0
623693 On ch=1 n=g#2 v=0
623695 On ch=1 n=g#3 v=0
623719 On ch=1 n=d#7 v=0
623727 Par ch=1 c=64 v=127
623779 On ch=1 n=a#6 v=75
623784 On ch=1 n=a#7 v=63
623819 On ch=1 n=a#6 v=0
623829 On ch=1 n=a#7 v=0
623901 On ch=1 n=g#7 v=75
623903 On ch=1 n=g#6 v=86
623905 On ch=1 n=d#3 v=83
623907 On ch=1 n=d#4 v=84
623937 On ch=1 n=d#3 v=0
623937 On ch=1 n=g#7 v=0
623940 On ch=1 n=d#4 v=0
623950 On ch=1 n=g#6 v=0
624030 On ch=1 n=g#4 v=86
624050 On ch=1 n=g#3 v=55
624066 On ch=1 n=g#4 v=0
624102 On ch=1 n=g#3 v=0
624168 On ch=1 n=b5 v=95
624170 On ch=1 n=d#6 v=87
624173 On ch=1 n=d#5 v=98
624178 On ch=1 n=b4 v=103
624188 On ch=1 n=b3 v=82
624200 On ch=1 n=d#4 v=68
624210 On ch=1 n=b4 v=0
624212 On ch=1 n=d#6 v=0
624214 On ch=1 n=d#5 v=0
624224 On ch=1 n=b3 v=0
624234 On ch=1 n=b5 v=0
624242 On ch=1 n=d#4 v=0
624414 On ch=1 n=a#4 v=91
624426 On ch=1 n=a#3 v=85
624432 On ch=1 n=a#5 v=69
624434 On ch=1 n=d#5 v=89
624462 On ch=1 n=a#3 v=0
624466 On ch=1 n=d#6 v=23
624470 On ch=1 n=d#5 v=0
624474 On ch=1 n=a#5 v=0
624498 On ch=1 n=a#4 v=0
624530 On ch=1 n=d#5 v=82
624540 On ch=1 n=b3 v=87
624540 On ch=1 n=b5 v=82
624544 On ch=1 n=b4 v=90
624574 On ch=1 n=b3 v=0
624576 On ch=1 n=d#4 v=25
624578 On ch=1 n=b4 v=0
624596 On ch=1 n=b5 v=0
624596 On ch=1 n=d#5 v=0
624610 On ch=1 n=d#6 v=0
624646 On ch=1 n=d#4 v=0
624646 Par ch=1 c=64 v=0
624660 On ch=1 n=d#5 v=98
624662 On ch=1 n=d#6 v=86
624670 On ch=1 n=c#5 v=105
624675 On ch=1 n=c#6 v=85
624678 On ch=1 n=c#4 v=87
624696 On ch=1 n=d#4 v=74
624770 Par ch=1 c=64 v=127
624778 On ch=1 n=c#5 v=0
624778 On ch=1 n=d#6 v=0
624786 On ch=1 n=d#5 v=0
624788 On ch=1 n=d#4 v=0
624794 On ch=1 n=c#4 v=0
624818 On ch=1 n=c#6 v=0
624930 On ch=1 n=d#4 v=87
624932 On ch=1 n=b4 v=91
624942 On ch=1 n=d#5 v=90
624950 On ch=1 n=b5 v=76
624950 On ch=1 n=d#6 v=62
624962 On ch=1 n=b4 v=0
624964 On ch=1 n=d#4 v=0
624974 On ch=1 n=d#5 v=0
624992 On ch=1 n=b5 v=0
624992 On ch=1 n=d#6 v=0
625044 On ch=1 n=a#4 v=84
625047 On ch=1 n=d#5 v=74
625047 On ch=1 n=d#6 v=69
625056 On ch=1 n=a#3 v=77
625060 On ch=1 n=d#4 v=50
625068 On ch=1 n=a#5 v=67
625096 On ch=1 n=a#3 v=0
625108 On ch=1 n=d#4 v=0
625108 On ch=1 n=a#5 v=0
625112 On ch=1 n=d#6 v=0
625132 On ch=1 n=d#5 v=0
625132 On ch=1 n=a#4 v=0
625188 On ch=1 n=b4 v=89
625191 On ch=1 n=d#5 v=87
625191 On ch=1 n=d#6 v=59
625201 On ch=1 n=b3 v=60
625206 On ch=1 n=b5 v=87
625215 On ch=1 n=d#4 v=33
625225 On ch=1 n=b4 v=0
625233 On ch=1 n=d#6 v=0
625243 On ch=1 n=d#5 v=0
625245 On ch=1 n=b5 v=0
625251 On ch=1 n=b3 v=0
625273 On ch=1 n=d#4 v=0
625313 On ch=1 n=d#5 v=84
625313 On ch=1 n=d#6 v=54
625321 On ch=1 n=a#4 v=54
625325 On ch=1 n=d#4 v=90
625331 On ch=1 n=a#5 v=67
625363 On ch=1 n=d#6 v=0
625366 On ch=1 n=d#4 v=0
625373 On ch=1 n=a#5 v=0
625373 On ch=1 n=a#4 v=0
625391 On ch=1 n=d#5 v=0
625427 Par ch=1 c=64 v=0
625447 On ch=1 n=d#4 v=80
625449 On ch=1 n=d#6 v=66
625449 On ch=1 n=g#4 v=83
625452 On ch=1 n=d#5 v=88
625467 On ch=1 n=g#5 v=77
625473 On ch=1 n=g#3 v=65
625483 On ch=1 n=d#5 v=0
625489 On ch=1 n=g#4 v=0
625503 On ch=1 n=g#5 v=0
625508 On ch=1 n=d#4 v=0
625525 On ch=1 n=g#3 v=0
625535 Par ch=1 c=64 v=127
625551 On ch=1 n=d#6 v=0
625817 On ch=1 n=d#6 v=103
625820 On ch=1 n=g#3 v=108
625820 On ch=1 n=d#7 v=95
625820 On ch=1 n=g#2 v=96
625823 On ch=1 n=g#6 v=92
625839 On ch=1 n=d#3 v=78
625847 On ch=1 n=d#7 v=0
625850 On ch=1 n=g#6 v=0
625850 On ch=1 n=g#2 v=0
625857 On ch=1 n=d#6 v=0
625871 On ch=1 n=d#3 v=0
625921 On ch=1 n=g#3 v=0
626105 On ch=1 n=a#4 v=90
626109 On ch=1 n=a#3 v=96
626111 On ch=1 n=d#5 v=90
626121 On ch=1 n=d#6 v=65
626121 On ch=1 n=a#5 v=64
626131 On ch=1 n=d#4 v=58
626143 On ch=1 n=a#3 v=0
626157 On ch=1 n=a#4 v=0
626171 On ch=1 n=d#6 v=0
626179 On ch=1 n=a#5 v=0
626181 On ch=1 n=d#4 v=0
626187 On ch=1 n=d#5 v=0
626227 On ch=1 n=b4 v=92
626229 On ch=1 n=b3 v=88
626235 On ch=1 n=b5 v=85
626235 On ch=1 n=d#6 v=76
626235 On ch=1 n=d#5 v=79
626238 On ch=1 n=d#4 v=64
626259 On ch=1 n=b4 v=0
626263 On ch=1 n=b3 v=0
626271 On ch=1 n=d#6 v=0
626283 On ch=1 n=d#4 v=0
626295 On ch=1 n=d#5 v=0
626305 On ch=1 n=b5 v=0
626343 On ch=1 n=d#6 v=56
626349 On ch=1 n=c#5 v=100
626349 Par ch=1 c=64 v=0
626349 On ch=1 n=d#5 v=104
626352 On ch=1 n=d#4 v=64
626352 On ch=1 n=c#4 v=86
626359 On ch=1 n=c#6 v=88
626459 On ch=1 n=c#5 v=0
626487 On ch=1 n=c#4 v=0
626487 On ch=1 n=d#5 v=0
626487 Par ch=1 c=64 v=127
626495 On ch=1 n=d#6 v=0
626499 On ch=1 n=d#4 v=0
626529 On ch=1 n=c#6 v=0
626609 On ch=1 n=d#5 v=90
626609 On ch=1 n=d#4 v=70
626615 On ch=1 n=b4 v=71
626619 On ch=1 n=b5 v=77
626621 On ch=1 n=d#6 v=51
626649 On ch=1 n=d#4 v=0
626649 On ch=1 n=d#5 v=0
626657 On ch=1 n=b4 v=0
626663 On ch=1 n=b5 v=0
626669 On ch=1 n=d#6 v=0
626711 On ch=1 n=a#4 v=74
626721 On ch=1 n=d#4 v=60
626725 On ch=1 n=d#5 v=76
626737 On ch=1 n=a#5 v=72
626737 On ch=1 n=d#6 v=43
626751 On ch=1 n=a#3 v=28
626771 On ch=1 n=a#4 v=0
626785 On ch=1 n=d#5 v=0
626789 On ch=1 n=d#4 v=0
626793 On ch=1 n=d#6 v=0
626795 On ch=1 n=a#5 v=0
626823 On ch=1 n=a#3 v=0
626853 On ch=1 n=d#6 v=64
626856 On ch=1 n=b4 v=89
626863 On ch=1 n=b3 v=78
626863 On ch=1 n=d#5 v=73
626875 On ch=1 n=b5 v=80
626893 On ch=1 n=d#4 v=29
626899 On ch=1 n=b4 v=0
626901 On ch=1 n=b3 v=0
626919 On ch=1 n=b5 v=0
626933 On ch=1 n=d#6 v=0
626949 On ch=1 n=d#5 v=0
626959 On ch=1 n=d#4 v=0
627003 On ch=1 n=d#5 v=72
627003 On ch=1 n=a#4 v=67
627003 On ch=1 n=a#5 v=63
627011 On ch=1 n=d#4 v=92
627011 On ch=1 n=d#6 v=47
627039 On ch=1 n=g#4 v=44
627039 Par ch=1 c=64 v=0
627047 On ch=1 n=d#4 v=0
627053 On ch=1 n=a#4 v=0
627055 On ch=1 n=a#5 v=0
627063 On ch=1 n=d#6 v=0
627103 On ch=1 n=g#4 v=0
627125 On ch=1 n=d#6 v=67
627127 On ch=1 n=d#4 v=73
627139 On ch=1 n=g#4 v=41
627142 On ch=1 n=g#5 v=75
627145 On ch=1 n=g#3 v=74
627147 Par ch=1 c=64 v=127
627175 On ch=1 n=d#5 v=0
627178 On ch=1 n=g#5 v=0
627178 On ch=1 n=d#4 v=0
627187 On ch=1 n=g#4 v=0
627189 On ch=1 n=g#3 v=0
627225 On ch=1 n=d#6 v=0
627469 On ch=1 n=g#3 v=100
627471 On ch=1 n=d#6 v=103
627474 On ch=1 n=d#7 v=96
627477 On ch=1 n=g#2 v=90
627485 On ch=1 n=g#6 v=84
627487 On ch=1 n=d#3 v=83
627501 On ch=1 n=d#7 v=0
627511 On ch=1 n=d#6 v=0
627513 On ch=1 n=g#2 v=0
627517 On ch=1 n=g#6 v=0
627521 On ch=1 n=d#3 v=0
627553 On ch=1 n=g#3 v=0
627743 On ch=1 n=b3 v=83
627745 On ch=1 n=d#6 v=75
627748 On ch=1 n=d#5 v=84
627753 On ch=1 n=b5 v=80
627757 On ch=1 n=b4 v=46
627761 On ch=1 n=c5 v=52
627781 On ch=1 n=b3 v=0
627799 On ch=1 n=b5 v=0
627801 On ch=1 n=d#6 v=0
627807 On ch=1 n=b4 v=0
627807 On ch=1 n=d#5 v=0
627819 On ch=1 n=c5 v=0
627859 On ch=1 n=a#4 v=78
627861 On ch=1 n=d#5 v=89
627869 On ch=1 n=d#6 v=67
627885 On ch=1 n=a#5 v=61
627888 On ch=1 n=d#4 v=62
627911 On ch=1 n=a#4 v=0
627914 On ch=1 n=d#6 v=0
627929 On ch=1 n=a#5 v=0
627933 On ch=1 n=d#4 v=0
627947 Par ch=1 c=64 v=0
627977 On ch=1 n=d#5 v=0
627980 On ch=1 n=g#4 v=84
627989 On ch=1 n=d#6 v=66
627992 On ch=1 n=d#4 v=76
628003 On ch=1 n=g#3 v=81
628006 On ch=1 n=g#5 v=65
628023 On ch=1 n=g#4 v=0
628033 On ch=1 n=d#4 v=0
628045 On ch=1 n=g#5 v=0
628059 On ch=1 n=g#3 v=0
628085 Par ch=1 c=64 v=127
628091 On ch=1 n=d#6 v=0
628299 On ch=1 n=g#3 v=102
628303 On ch=1 n=g#6 v=105
628305 On ch=1 n=g#2 v=88
628307 On ch=1 n=g#7 v=89
628311 On ch=1 n=d#7 v=83
628317 On ch=1 n=d#3 v=79
628337 On ch=1 n=g#7 v=0
628340 On ch=1 n=d#7 v=0
628340 On ch=1 n=g#2 v=0
628340 On ch=1 n=g#6 v=0
628351 On ch=1 n=d#3 v=0
628387 On ch=1 n=g#3 v=0
628569 On ch=1 n=b4 v=94
628572 On ch=1 n=b3 v=83
628582 On ch=1 n=d#5 v=86
628582 On ch=1 n=b5 v=84
628585 On ch=1 n=d#6 v=67
628594 On ch=1 n=b4 v=0
628606 On ch=1 n=b3 v=0
628624 On ch=1 n=d#5 v=0
628628 On ch=1 n=d#6 v=0
628630 On ch=1 n=b5 v=0
628690 On ch=1 n=d#5 v=82
628690 On ch=1 n=a#4 v=78
628692 On ch=1 n=d#6 v=63
628712 On ch=1 n=d#4 v=66
628714 On ch=1 n=a#5 v=66
628738 On ch=1 n=a#4 v=0
628742 On ch=1 n=d#6 v=0
628752 On ch=1 n=d#4 v=0
628760 On ch=1 n=a#5 v=0
628772 Par ch=1 c=64 v=0
628816 On ch=1 n=g#4 v=89
628826 On ch=1 n=d#4 v=60
628828 On ch=1 n=d#6 v=52
628830 On ch=1 n=g#5 v=74
628836 On ch=1 n=d#5 v=0
628836 On ch=1 n=g#3 v=81
628864 On ch=1 n=g#4 v=0
628864 On ch=1 n=g#5 v=0
628872 On ch=1 n=d#4 v=0
628896 Par ch=1 c=64 v=127
628904 On ch=1 n=d#6 v=0
628922 On ch=1 n=g#3 v=0
629164 On ch=1 n=b6 v=122
629166 On ch=1 n=d#7 v=89
629169 On ch=1 n=g#3 v=100
629169 On ch=1 n=b7 v=94
629176 On ch=1 n=g#2 v=92
629190 On ch=1 n=d#3 v=73
629198 On ch=1 n=d#7 v=0
629200 On ch=1 n=b7 v=0
629200 On ch=1 n=b6 v=0
629206 On ch=1 n=g#2 v=0
629226 On ch=1 n=d#3 v=0
629256 On ch=1 n=g#3 v=0
629466 On ch=1 n=b4 v=91
629470 On ch=1 n=b3 v=87
629474 On ch=1 n=d#6 v=77
629476 On ch=1 n=d#5 v=86
629482 On ch=1 n=b5 v=80
629496 On ch=1 n=b4 v=0
629500 On ch=1 n=d#4 v=27
629504 On ch=1 n=b3 v=0
629522 On ch=1 n=d#6 v=0
629525 On ch=1 n=d#5 v=0
629528 On ch=1 n=b5 v=0
629570 On ch=1 n=d#4 v=0
629594 On ch=1 n=d#5 v=89
629594 On ch=1 n=a#4 v=78
629600 On ch=1 n=d#6 v=62
629607 On ch=1 n=a#5 v=68
629660 On ch=1 n=a#5 v=0
629660 On ch=1 n=d#6 v=0
629668 On ch=1 n=a#4 v=0
629680 Par ch=1 c=64 v=0
629696 On ch=1 n=d#5 v=0
629726 On ch=1 n=g#4 v=90
629740 On ch=1 n=d#4 v=90
629740 On ch=1 n=d#6 v=62
629743 On ch=1 n=g#5 v=81
629758 On ch=1 n=g#3 v=59
629778 On ch=1 n=d#4 v=0
629784 On ch=1 n=g#5 v=0
629806 On ch=1 n=g#3 v=0
629812 On ch=1 n=g#4 v=0
629818 Par ch=1 c=64 v=127
629852 On ch=1 n=d#6 v=0
630148 On ch=1 n=d#7 v=97
630150 On ch=1 n=g#3 v=96
630150 On ch=1 n=g#2 v=90
630153 On ch=1 n=d#8 v=101
630153 On ch=1 n=g#7 v=88
630178 On ch=1 n=d#3 v=64
630194 On ch=1 n=g#2 v=0
630218 On ch=1 n=d#3 v=0
630250 On ch=1 n=g#3 v=0
630358 On ch=1 n=d#7 v=0
630422 On ch=1 n=g#7 v=0
630434 On ch=1 n=d#8 v=0
630930 On ch=1 n=g#4 v=87
630932 On ch=1 n=d#8 v=90
630935 On ch=1 n=d#7 v=87
630935 On ch=1 n=g#3 v=84
630938 On ch=1 n=g#7 v=79
630950 On ch=1 n=d#4 v=72
630978 On ch=1 n=g#3 v=0
630990 On ch=1 n=d#4 v=0
631026 On ch=1 n=g#4 v=0
631070 On ch=1 n=d#7 v=0
631076 On ch=1 n=d#8 v=0
631108 On ch=1 n=g#7 v=0
631294 On ch=1 n=d#8 v=88
631297 On ch=1 n=g#5 v=88
631297 On ch=1 n=d#7 v=84
631297 On ch=1 n=g#7 v=76
631307 On ch=1 n=g#4 v=61
631323 On ch=1 n=g#5 v=0
631361 On ch=1 n=g#4 v=0
631427 On ch=1 n=d#7 v=0
631445 On ch=1 n=g#7 v=0
631461 On ch=1 n=d#8 v=0
631623 On ch=1 n=d#8 v=81
631625 On ch=1 n=g#7 v=73
631625 On ch=1 n=g#6 v=89
631625 On ch=1 n=d#7 v=75
631637 On ch=1 n=d#6 v=73
631643 On ch=1 n=g#5 v=60
631655 On ch=1 n=g#6 v=0
631671 On ch=1 n=d#6 v=0
631689 On ch=1 n=g#5 v=0
631757 On ch=1 n=d#7 v=0
631789 On ch=1 n=g#7 v=0
631799 On ch=1 n=d#8 v=0
631893 On ch=1 n=g#5 v=81
631901 On ch=1 n=g#4 v=79
631903 On ch=1 n=d#8 v=64
631903 On ch=1 n=d#7 v=75
631905 On ch=1 n=g#7 v=67
631925 On ch=1 n=g#5 v=0
631925 On ch=1 n=d#5 v=34
631937 On ch=1 n=g#4 v=0
631989 On ch=1 n=d#5 v=0
632019 On ch=1 n=d#7 v=0
632039 On ch=1 n=g#7 v=0
632059 On ch=1 n=d#8 v=0
632167 On ch=1 n=g#4 v=75
632170 On ch=1 n=g#3 v=88
632174 On ch=1 n=g#7 v=70
632177 On ch=1 n=d#4 v=69
632179 On ch=1 n=d#7 v=70
632181 On ch=1 n=d#8 v=68
632203 On ch=1 n=g#3 v=0
632206 On ch=1 n=g#4 v=0
632217 On ch=1 n=d#4 v=0
632299 On ch=1 n=d#7 v=0
632319 On ch=1 n=g#7 v=0
632345 On ch=1 n=d#8 v=0
632547 On ch=1 n=d#8 v=90
632551 On ch=1 n=d#7 v=84
632553 On ch=1 n=g#2 v=90
632555 On ch=1 n=g#3 v=93
632555 On ch=1 n=g#7 v=74
632575 On ch=1 n=d#3 v=56
632587 On ch=1 n=g#2 v=0
632595 On ch=1 n=g#3 v=0
632617 On ch=1 n=d#3 v=0
632635 On ch=1 n=d#8 v=0
632647 On ch=1 n=d#7 v=0
632669 On ch=1 n=g#7 v=0
633477 On ch=1 n=g#5 v=90
633482 On ch=1 n=g#4 v=89
633482 On ch=1 n=d#5 v=97
633482 On ch=1 n=b4 v=99
633489 On ch=1 n=g#3 v=91
633503 On ch=1 n=d#4 v=69
633753 On ch=1 n=g#4 v=0
633767 On ch=1 n=b4 v=0
633811 On ch=1 n=d#4 v=0
633837 On ch=1 n=g#3 v=0
633859 On ch=1 n=d#5 v=0
633913 On ch=1 n=g#5 v=0
634757 On ch=1 n=g#7 v=93
634760 On ch=1 n=b5 v=99
634760 On ch=1 n=g#6 v=92
634767 On ch=1 n=d#7 v=78
634767 On ch=1 n=b6 v=108
634767 On ch=1 n=g#5 v=76
634770 On ch=1 n=b4 v=80
634779 On ch=1 n=d#5 v=81
637647 On ch=1 n=b6 v=0
637667 On ch=1 n=b4 v=0
637679 On ch=1 n=g#7 v=0
637685 On ch=1 n=g#6 v=0
637703 On ch=1 n=d#7 v=0
637706 On ch=1 n=b5 v=0
637713 On ch=1 n=d#5 v=0
637721 On ch=1 n=g#5 v=0
638159 Par ch=1 c=64 v=0
638159 Meta TrkEnd
