MFile 1 3 480
MTrk
0 TimeSig 4/4 24 8
0 Tempo 1071428
687 Tempo 937500
790 Tempo 672957
1127 Tempo 1153846
1440 Tempo 3750000
1520 Tempo 2400000
1527 Tempo 2307692
1590 Tempo 1875000
1735 Tempo 1714285
1920 Tempo 1200000
3360 Tempo 2400000
3590 Tempo 1875000
3840 Tempo 1200000
5280 Tempo 3000000
5535 Tempo 2400000
5760 Tempo 1200000
6240 Tempo 2000000
6315 Tempo 1714285
6507 Tempo 1764705
6510 Tempo 1500000
6987 Tempo 1200000
8640 Tempo 600000
9600 TimeSig 3/4 24 8
9600 Tempo 1500000
49920 Tempo 1428571
52800 Tempo 1304347
60240 Tempo 1333333
60960 Tempo 1363636
61440 Tempo 1428571
62160 Tempo 1500000
62880 Tempo 1578947
63600 Tempo 1666666
63840 Tempo 1714285
64075 Tempo 2000000
64320 Tempo 3750000
64582 Tempo 1333333
74400 Tempo 983606
83040 Tempo 1500000
90730 Tempo 2000000
90840 Tempo 1764705
90975 Tempo 1500000
91450 Tempo 2000000
91547 Tempo 1818181
91680 Tempo 1500000
92442 Tempo 2000000
92602 Tempo 1764705
92767 Tempo 1500000
93250 Tempo 2000000
93390 Tempo 1818181
93707 Tempo 1578947
94030 Tempo 1500000
94502 Tempo 2000000
94560 TimeSig 7/4 24 8
94687 Tempo 1714285
94870 Tempo 1500000
95347 Tempo 2000000
95520 Tempo 1714285
95802 Tempo 1578947
96040 Tempo 1500000
96510 Tempo 2142857
96680 Tempo 1875000
96955 Tempo 1714285
97120 Tempo 1500000
97120 Meta TrkEnd
TrkEnd
MTrk
0 SeqSpec 43 00 01 00
0 Meta TrkName "Piano 2 Right       "
0 Meta 0x21 00
0 PrCh ch=1 p=0
1920 On ch=1 n=a#3 v=72
2430 On ch=1 n=a#3 v=0
2440 On ch=1 n=d4 v=67
2470 On ch=1 n=d4 v=0
2480 On ch=1 n=g4 v=67
2510 On ch=1 n=g4 v=0
2520 On ch=1 n=a#4 v=63
2550 On ch=1 n=a#4 v=0
2560 On ch=1 n=d5 v=59
2590 On ch=1 n=d5 v=0
2600 On ch=1 n=g5 v=59
2630 On ch=1 n=g5 v=0
2640 On ch=1 n=a#5 v=55
2670 On ch=1 n=a#5 v=0
2680 On ch=1 n=d6 v=59
2710 On ch=1 n=d6 v=0
2720 On ch=1 n=g6 v=59
2750 On ch=1 n=g6 v=0
2760 On ch=1 n=a#6 v=58
2790 On ch=1 n=a#6 v=0
2800 On ch=1 n=d7 v=56
2830 On ch=1 n=d7 v=0
2840 On ch=1 n=g7 v=56
2870 On ch=1 n=g7 v=0
2880 On ch=1 n=a#7 v=74
3240 On ch=1 n=a#7 v=0
3360 On ch=1 n=a#7 v=50
3370 On ch=1 n=a#7 v=0
3375 On ch=1 n=a7 v=47
3387 On ch=1 n=a7 v=0
3390 On ch=1 n=g7 v=52
3402 On ch=1 n=g7 v=0
3407 On ch=1 n=f#7 v=50
3419 On ch=1 n=f#7 v=0
3422 On ch=1 n=d#7 v=63
3434 On ch=1 n=d#7 v=0
3440 On ch=1 n=d7 v=52
3450 On ch=1 n=d7 v=0
3455 On ch=1 n=c7 v=50
3467 On ch=1 n=c7 v=0
3470 On ch=1 n=a#6 v=58
3482 On ch=1 n=a#6 v=0
3487 On ch=1 n=a6 v=59
3499 On ch=1 n=a6 v=0
3502 On ch=1 n=g6 v=52
3514 On ch=1 n=g6 v=0
3520 On ch=1 n=f#6 v=58
3530 On ch=1 n=f#6 v=0
3535 On ch=1 n=d#6 v=55
3547 On ch=1 n=d#6 v=0
3550 On ch=1 n=d6 v=56
3562 On ch=1 n=d6 v=0
3567 On ch=1 n=c6 v=47
3579 On ch=1 n=c6 v=0
3582 On ch=1 n=a#5 v=47
3594 On ch=1 n=a#5 v=0
3600 On ch=1 n=a5 v=56
3610 On ch=1 n=a5 v=0
3615 On ch=1 n=g5 v=52
3627 On ch=1 n=g5 v=0
3630 On ch=1 n=f#5 v=55
3642 On ch=1 n=f#5 v=0
3647 On ch=1 n=d#5 v=55
3659 On ch=1 n=d#5 v=0
3662 On ch=1 n=d5 v=52
3674 On ch=1 n=d5 v=0
3680 On ch=1 n=c5 v=47
3690 On ch=1 n=c5 v=0
3695 On ch=1 n=a#4 v=55
3707 On ch=1 n=a#4 v=0
3710 On ch=1 n=a4 v=44
3722 On ch=1 n=a4 v=0
3727 On ch=1 n=g4 v=50
3739 On ch=1 n=g4 v=0
3742 On ch=1 n=f#4 v=58
3754 On ch=1 n=f#4 v=0
3760 On ch=1 n=d#4 v=55
3770 On ch=1 n=d#4 v=0
3775 On ch=1 n=d4 v=56
3787 On ch=1 n=d4 v=0
3790 On ch=1 n=c4 v=52
3802 On ch=1 n=c4 v=0
3807 On ch=1 n=a#3 v=59
3819 On ch=1 n=a#3 v=0
3822 On ch=1 n=a3 v=39
3834 On ch=1 n=a3 v=0
3840 On ch=1 n=g3 v=62
4295 On ch=1 n=g3 v=0
4320 On ch=1 n=g3 v=41
4342 On ch=1 n=g3 v=0
4352 On ch=1 n=a#3 v=59
4377 On ch=1 n=a#3 v=0
4387 On ch=1 n=d4 v=56
4409 On ch=1 n=d4 v=0
4420 On ch=1 n=g4 v=56
4445 On ch=1 n=g4 v=0
4455 On ch=1 n=a#4 v=50
4480 On ch=1 n=a#4 v=0
4490 On ch=1 n=d5 v=56
4512 On ch=1 n=d5 v=0
4522 On ch=1 n=g5 v=62
4547 On ch=1 n=g5 v=0
4557 On ch=1 n=a#5 v=55
4579 On ch=1 n=a#5 v=0
4590 On ch=1 n=d6 v=50
4615 On ch=1 n=d6 v=0
4625 On ch=1 n=g6 v=56
4650 On ch=1 n=g6 v=0
4660 On ch=1 n=a#6 v=58
4682 On ch=1 n=a#6 v=0
4692 On ch=1 n=d7 v=59
4717 On ch=1 n=d7 v=0
4727 On ch=1 n=g7 v=62
4749 On ch=1 n=g7 v=0
4760 On ch=1 n=a#7 v=55
4785 On ch=1 n=a#7 v=0
4795 On ch=1 n=d8 v=79
5267 On ch=1 n=d8 v=0
5292 On ch=1 n=c8 v=59
5302 On ch=1 n=c8 v=0
5307 On ch=1 n=a#7 v=58
5317 On ch=1 n=a#7 v=0
5320 On ch=1 n=a7 v=50
5330 On ch=1 n=a7 v=0
5335 On ch=1 n=g7 v=50
5345 On ch=1 n=g7 v=0
5350 On ch=1 n=f#7 v=47
5360 On ch=1 n=f#7 v=0
5362 On ch=1 n=d#7 v=47
5372 On ch=1 n=d#7 v=0
5377 On ch=1 n=d7 v=44
5387 On ch=1 n=d7 v=0
5390 On ch=1 n=c7 v=50
5400 On ch=1 n=c7 v=0
5405 On ch=1 n=a#6 v=58
5415 On ch=1 n=a#6 v=0
5420 On ch=1 n=a6 v=44
5430 On ch=1 n=a6 v=0
5432 On ch=1 n=g6 v=50
5442 On ch=1 n=g6 v=0
5447 On ch=1 n=f#6 v=55
5457 On ch=1 n=f#6 v=0
5460 On ch=1 n=d#6 v=55
5470 On ch=1 n=d#6 v=0
5475 On ch=1 n=d6 v=56
5485 On ch=1 n=d6 v=0
5490 On ch=1 n=c6 v=50
5500 On ch=1 n=c6 v=0
5502 On ch=1 n=a#5 v=40
5512 On ch=1 n=a#5 v=0
5517 On ch=1 n=a5 v=52
5527 On ch=1 n=a5 v=0
5530 On ch=1 n=g5 v=50
5540 On ch=1 n=g5 v=0
5545 On ch=1 n=f#5 v=47
5555 On ch=1 n=f#5 v=0
5560 On ch=1 n=d#5 v=40
5570 On ch=1 n=d#5 v=0
5572 On ch=1 n=d5 v=50
5582 On ch=1 n=d5 v=0
5587 On ch=1 n=c5 v=56
5597 On ch=1 n=c5 v=0
5600 On ch=1 n=a#4 v=63
5610 On ch=1 n=a#4 v=0
5615 On ch=1 n=a4 v=62
5625 On ch=1 n=a4 v=0
5630 On ch=1 n=g4 v=67
5640 On ch=1 n=g4 v=0
5642 On ch=1 n=f#4 v=63
5652 On ch=1 n=f#4 v=0
5657 On ch=1 n=d#4 v=68
5667 On ch=1 n=d#4 v=0
5670 On ch=1 n=d4 v=67
5680 On ch=1 n=d4 v=0
5685 On ch=1 n=c4 v=59
5695 On ch=1 n=c4 v=0
5700 On ch=1 n=a#3 v=59
5710 On ch=1 n=a#3 v=0
5712 On ch=1 n=a3 v=50
5722 On ch=1 n=a3 v=0
5727 On ch=1 n=g3 v=75
6087 On ch=1 n=g3 v=0
6240 On ch=1 n=g3 v=36
6260 On ch=1 n=g3 v=0
6270 On ch=1 n=g#3 v=40
6290 On ch=1 n=g#3 v=0
6300 On ch=1 n=a3 v=36
6320 On ch=1 n=a3 v=0
6330 On ch=1 n=a#3 v=33
6350 On ch=1 n=a#3 v=0
6360 On ch=1 n=b3 v=44
6380 On ch=1 n=b3 v=0
6390 On ch=1 n=c4 v=41
6410 On ch=1 n=c4 v=0
6420 On ch=1 n=c#4 v=55
6440 On ch=1 n=c#4 v=0
6450 On ch=1 n=d4 v=52
6470 On ch=1 n=d4 v=0
6480 On ch=1 n=d#4 v=50
6500 On ch=1 n=d#4 v=0
6510 On ch=1 n=e4 v=62
6530 On ch=1 n=e4 v=0
6540 On ch=1 n=f4 v=66
6560 On ch=1 n=f4 v=0
6570 On ch=1 n=f#4 v=63
6590 On ch=1 n=f#4 v=0
6600 On ch=1 n=g4 v=59
6620 On ch=1 n=g4 v=0
6630 On ch=1 n=g#4 v=67
6650 On ch=1 n=g#4 v=0
6660 On ch=1 n=a4 v=59
6680 On ch=1 n=a4 v=0
6690 On ch=1 n=a#4 v=63
6710 On ch=1 n=a#4 v=0
6720 On ch=1 n=b4 v=66
6740 On ch=1 n=b4 v=0
6750 On ch=1 n=c5 v=62
6770 On ch=1 n=c5 v=0
6780 On ch=1 n=c#5 v=54
6800 On ch=1 n=c#5 v=0
6810 On ch=1 n=d5 v=67
6830 On ch=1 n=d5 v=0
6840 On ch=1 n=d#5 v=63
6860 On ch=1 n=d#5 v=0
6870 On ch=1 n=e5 v=67
6890 On ch=1 n=e5 v=0
6900 On ch=1 n=f5 v=70
6920 On ch=1 n=f5 v=0
6930 On ch=1 n=f#5 v=68
6950 On ch=1 n=f#5 v=0
6960 On ch=1 n=g5 v=75
6980 On ch=1 n=g5 v=0
6990 On ch=1 n=f#5 v=63
7010 On ch=1 n=f#5 v=0
7020 On ch=1 n=f5 v=62
7040 On ch=1 n=f5 v=0
7050 On ch=1 n=e5 v=52
7070 On ch=1 n=e5 v=0
7080 On ch=1 n=d#5 v=50
7100 On ch=1 n=d#5 v=0
7110 On ch=1 n=d5 v=50
7130 On ch=1 n=d5 v=0
7140 On ch=1 n=c#5 v=48
7160 On ch=1 n=c#5 v=0
7170 On ch=1 n=c5 v=41
7190 On ch=1 n=c5 v=0
7200 On ch=1 n=b4 v=54
7220 On ch=1 n=b4 v=0
7230 On ch=1 n=a#4 v=44
7250 On ch=1 n=a#4 v=0
7260 On ch=1 n=a4 v=47
7280 On ch=1 n=a4 v=0
7290 On ch=1 n=g#4 v=48
7310 On ch=1 n=g#4 v=0
7320 On ch=1 n=g4 v=44
7340 On ch=1 n=g4 v=0
7350 On ch=1 n=f#4 v=40
7370 On ch=1 n=f#4 v=0
7380 On ch=1 n=f4 v=45
7400 On ch=1 n=f4 v=0
7410 On ch=1 n=e4 v=36
7430 On ch=1 n=e4 v=0
7440 On ch=1 n=d#4 v=47
7460 On ch=1 n=d#4 v=0
7470 On ch=1 n=d4 v=41
7490 On ch=1 n=d4 v=0
7500 On ch=1 n=c#4 v=47
7520 On ch=1 n=c#4 v=0
7530 On ch=1 n=c4 v=39
7550 On ch=1 n=c4 v=0
7560 On ch=1 n=b3 v=31
7580 On ch=1 n=b3 v=0
7590 On ch=1 n=a#3 v=31
7610 On ch=1 n=a#3 v=0
7620 On ch=1 n=a3 v=23
7640 On ch=1 n=a3 v=0
7650 On ch=1 n=g#3 v=22
7670 On ch=1 n=g#3 v=0
7920 On ch=1 n=a#7 v=63
7920 On ch=1 n=g8 v=67
7920 On ch=1 n=g7 v=56
7920 On ch=1 n=d8 v=66
8100 On ch=1 n=d8 v=0
8100 On ch=1 n=g7 v=0
8100 On ch=1 n=g8 v=0
8100 On ch=1 n=a#7 v=0
9600 On ch=1 n=g4 v=28
9600 On ch=1 n=a#4 v=31
9600 On ch=1 n=g3 v=24
9615 On ch=1 n=d5 v=45
9620 On ch=1 n=g3 v=0
9620 On ch=1 n=g4 v=0
9627 On ch=1 n=a#4 v=0
10120 On ch=1 n=d5 v=0
10327 On ch=1 n=g5 v=40
10330 On ch=1 n=d#5 v=32
10342 On ch=1 n=d#5 v=0
10522 On ch=1 n=g5 v=0
10585 On ch=1 n=d5 v=24
10587 On ch=1 n=f#5 v=32
10597 On ch=1 n=d5 v=0
10779 On ch=1 n=f#5 v=0
10802 On ch=1 n=d#5 v=38
10810 On ch=1 n=c5 v=32
10827 On ch=1 n=c5 v=0
11009 On ch=1 n=d#5 v=0
11040 On ch=1 n=d5 v=40
11047 On ch=1 n=a#4 v=28
11167 On ch=1 n=a#4 v=0
11722 On ch=1 n=d5 v=0
11737 On ch=1 n=f4 v=28
11752 On ch=1 n=a4 v=35
11777 On ch=1 n=f4 v=0
11780 On ch=1 n=d5 v=38
11789 On ch=1 n=a4 v=0
11970 On ch=1 n=d#4 v=28
11987 On ch=1 n=g4 v=38
11995 On ch=1 n=d5 v=0
12015 On ch=1 n=c5 v=40
12017 On ch=1 n=d#4 v=0
12024 On ch=1 n=g4 v=0
12207 On ch=1 n=d4 v=28
12222 On ch=1 n=f4 v=37
12227 On ch=1 n=c5 v=0
12242 On ch=1 n=a#4 v=45
12259 On ch=1 n=d4 v=0
12262 On ch=1 n=f4 v=0
12442 On ch=1 n=c4 v=26
12460 On ch=1 n=d#4 v=41
12462 On ch=1 n=a#4 v=0
12487 On ch=1 n=a4 v=42
12579 On ch=1 n=c4 v=0
12590 On ch=1 n=d#4 v=0
13129 On ch=1 n=a4 v=0
13200 On ch=1 n=c5 v=33
13400 On ch=1 n=c#4 v=31
13412 On ch=1 n=c5 v=0
13420 On ch=1 n=e4 v=35
13440 On ch=1 n=a4 v=42
13460 On ch=1 n=e4 v=0
13537 On ch=1 n=c#4 v=0
13655 On ch=1 n=a4 v=0
13675 On ch=1 n=g4 v=38
13675 On ch=1 n=d#4 v=38
13740 On ch=1 n=d#4 v=0
13840 On ch=1 n=g4 v=0
13870 On ch=1 n=d4 v=16
13875 On ch=1 n=e4 v=24
13880 On ch=1 n=g4 v=35
13915 On ch=1 n=e4 v=0
13915 On ch=1 n=a#4 v=38
14045 On ch=1 n=d4 v=0
14100 On ch=1 n=g4 v=0
14295 On ch=1 n=a#4 v=0
14387 On ch=1 n=a4 v=38
14390 On ch=1 n=f#4 v=38
14517 On ch=1 n=f#4 v=0
14579 On ch=1 n=a4 v=0
14610 On ch=1 n=c4 v=28
14620 On ch=1 n=d#4 v=38
14635 On ch=1 n=a4 v=40
14657 On ch=1 n=c4 v=0
14750 On ch=1 n=d#4 v=0
14840 On ch=1 n=a4 v=0
14870 On ch=1 n=g4 v=42
14877 On ch=1 n=a#3 v=38
14877 On ch=1 n=d4 v=40
14999 On ch=1 n=a#3 v=0
15019 On ch=1 n=d4 v=0
15087 On ch=1 n=g4 v=0
15117 On ch=1 n=a3 v=38
15120 On ch=1 n=f#4 v=38
15120 On ch=1 n=d4 v=40
15172 On ch=1 n=a3 v=0
15190 On ch=1 n=d4 v=0
15340 On ch=1 n=f#4 v=0
15360 On ch=1 n=d5 v=38
15365 On ch=1 n=d4 v=35
15365 On ch=1 n=g4 v=40
15367 On ch=1 n=a#4 v=35
15372 On ch=1 n=g3 v=48
15492 On ch=1 n=d4 v=0
15504 On ch=1 n=g3 v=0
15510 On ch=1 n=g4 v=0
15532 On ch=1 n=a#4 v=0
16047 On ch=1 n=d5 v=0
16080 On ch=1 n=d5 v=33
16090 On ch=1 n=b4 v=32
16175 On ch=1 n=b4 v=0
16277 On ch=1 n=d5 v=0
16325 On ch=1 n=d#5 v=35
16330 On ch=1 n=c5 v=24
16430 On ch=1 n=c5 v=0
16530 On ch=1 n=d#5 v=0
16570 On ch=1 n=d#5 v=35
16572 On ch=1 n=c5 v=28
16679 On ch=1 n=c5 v=0
16785 On ch=1 n=d#5 v=0
16810 On ch=1 n=d#5 v=44
16815 On ch=1 n=c5 v=33
16820 On ch=1 n=a4 v=36
16950 On ch=1 n=a4 v=0
16985 On ch=1 n=c5 v=0
17450 On ch=1 n=d#5 v=0
17517 On ch=1 n=d#5 v=44
17520 On ch=1 n=a4 v=28
17520 On ch=1 n=c5 v=36
17637 On ch=1 n=a4 v=0
17662 On ch=1 n=c5 v=0
17732 On ch=1 n=d#5 v=0
17772 On ch=1 n=d5 v=36
17780 On ch=1 n=a#4 v=36
17877 On ch=1 n=a#4 v=0
17957 On ch=1 n=d5 v=0
17990 On ch=1 n=d5 v=40
18000 On ch=1 n=g#4 v=38
18120 On ch=1 n=g#4 v=0
18187 On ch=1 n=d#4 v=39
18210 On ch=1 n=d5 v=0
18210 On ch=1 n=g4 v=42
18235 On ch=1 n=c5 v=44
18329 On ch=1 n=d#4 v=0
18345 On ch=1 n=g4 v=0
18902 On ch=1 n=c5 v=0
18962 On ch=1 n=c#5 v=48
19117 On ch=1 n=c#5 v=0
19195 On ch=1 n=c5 v=44
19370 On ch=1 n=c5 v=0
19440 On ch=1 n=a#4 v=31
19550 On ch=1 n=a#4 v=0
19680 On ch=1 n=c5 v=41
19860 On ch=1 n=c5 v=0
20040 On ch=1 n=f5 v=35
20167 On ch=1 n=f5 v=0
20280 On ch=1 n=f5 v=44
20367 On ch=1 n=f5 v=0
20400 On ch=1 n=c5 v=28
20580 On ch=1 n=c5 v=0
20647 On ch=1 n=d5 v=37
20827 On ch=1 n=d5 v=0
21000 On ch=1 n=f5 v=44
21110 On ch=1 n=f5 v=0
21120 On ch=1 n=f5 v=56
21300 On ch=1 n=f5 v=0
21360 On ch=1 n=f#5 v=58
21540 On ch=1 n=f#5 v=0
21600 On ch=1 n=g5 v=70
21780 On ch=1 n=g5 v=0
21840 On ch=1 n=g5 v=67
22020 On ch=1 n=g5 v=0
22080 On ch=1 n=a#5 v=68
22260 On ch=1 n=a#5 v=0
22320 On ch=1 n=c#6 v=68
22500 On ch=1 n=c#6 v=0
22560 On ch=1 n=d6 v=67
22740 On ch=1 n=d6 v=0
22800 On ch=1 n=a#5 v=68
22980 On ch=1 n=a#5 v=0
23040 On ch=1 n=f5 v=62
23400 On ch=1 n=f5 v=0
23520 On ch=1 n=f5 v=59
23880 On ch=1 n=f5 v=0
24022 Par ch=1 c=64 v=64
24030 Par ch=1 c=64 v=96
24040 Par ch=1 c=64 v=127
24727 On ch=1 n=a#3 v=37
24789 On ch=1 n=a#3 v=0
24790 On ch=1 n=f4 v=28
24800 On ch=1 n=f4 v=0
24837 On ch=1 n=d5 v=40
24899 On ch=1 n=d5 v=0
24990 On ch=1 n=d#5 v=40
25000 Par ch=1 c=64 v=96
25000 On ch=1 n=a#3 v=32
25007 Par ch=1 c=64 v=64
25030 Par ch=1 c=64 v=96
25037 Par ch=1 c=64 v=127
25102 On ch=1 n=d#5 v=0
25112 On ch=1 n=a#3 v=0
25222 On ch=1 n=a#3 v=32
25222 On ch=1 n=d#5 v=44
25239 Par ch=1 c=64 v=96
25254 Par ch=1 c=64 v=127
25342 On ch=1 n=a#3 v=0
25349 On ch=1 n=d#5 v=0
25457 On ch=1 n=d#5 v=44
25467 Par ch=1 c=64 v=64
25474 Par ch=1 c=64 v=0
25492 Par ch=1 c=64 v=64
25499 Par ch=1 c=64 v=96
25507 Par ch=1 c=64 v=127
25934 On ch=1 n=d#5 v=0
25937 On ch=1 n=d5 v=40
25937 On ch=1 n=a#3 v=35
25949 Par ch=1 c=64 v=96
25957 Par ch=1 c=64 v=0
25977 Par ch=1 c=64 v=64
25987 Par ch=1 c=64 v=127
26057 On ch=1 n=d5 v=0
26062 On ch=1 n=a#3 v=0
26162 On ch=1 n=d5 v=40
26169 On ch=1 n=a#3 v=37
26306 On ch=1 n=a#3 v=0
26357 On ch=1 n=d5 v=0
26397 On ch=1 n=d#5 v=44
26402 Par ch=1 c=64 v=96
26404 On ch=1 n=a#3 v=40
26412 Par ch=1 c=64 v=64
26417 Par ch=1 c=64 v=96
26424 Par ch=1 c=64 v=127
26511 On ch=1 n=a#3 v=0
26537 On ch=1 n=d#5 v=0
26637 On ch=1 n=d#5 v=48
26642 On ch=1 n=a#3 v=35
26752 On ch=1 n=a#3 v=0
26767 On ch=1 n=d#5 v=0
26877 On ch=1 n=d#5 v=44
26897 Par ch=1 c=64 v=96
26902 Par ch=1 c=64 v=64
26917 Par ch=1 c=64 v=0
26922 Par ch=1 c=64 v=64
26927 Par ch=1 c=64 v=96
26937 Par ch=1 c=64 v=127
27367 On ch=1 n=d#5 v=0
27369 Par ch=1 c=64 v=96
27372 On ch=1 n=d5 v=35
27372 On ch=1 n=a#3 v=28
27379 Par ch=1 c=64 v=64
27387 Par ch=1 c=64 v=96
27394 Par ch=1 c=64 v=127
27434 On ch=1 n=a#3 v=0
27437 On ch=1 n=d5 v=0
27607 On ch=1 n=a#4 v=37
27612 On ch=1 n=g#4 v=40
27617 Par ch=1 c=64 v=96
27627 Par ch=1 c=64 v=64
27634 Par ch=1 c=64 v=96
27642 Par ch=1 c=64 v=127
27727 On ch=1 n=a#4 v=0
27829 On ch=1 n=g#4 v=0
27839 On ch=1 n=a#4 v=34
27844 Par ch=1 c=64 v=96
27847 On ch=1 n=g4 v=31
27852 Par ch=1 c=64 v=0
27864 Par ch=1 c=64 v=64
27872 Par ch=1 c=64 v=96
27877 Par ch=1 c=64 v=127
27961 On ch=1 n=a#4 v=0
27987 On ch=1 n=g4 v=0
28084 On ch=1 n=c5 v=40
28084 On ch=1 n=a#4 v=40
28094 Par ch=1 c=64 v=64
28102 Par ch=1 c=64 v=0
28107 Par ch=1 c=64 v=64
28114 Par ch=1 c=64 v=96
28122 Par ch=1 c=64 v=127
28236 On ch=1 n=a#4 v=0
28241 On ch=1 n=c5 v=0
28327 Par ch=1 c=64 v=96
28329 On ch=1 n=c5 v=59
28329 On ch=1 n=a4 v=56
28337 Par ch=1 c=64 v=0
28349 Par ch=1 c=64 v=64
28357 Par ch=1 c=64 v=96
28364 Par ch=1 c=64 v=127
28411 On ch=1 n=a4 v=0
28434 On ch=1 n=c5 v=0
28552 On ch=1 n=d5 v=70
28557 On ch=1 n=c5 v=59
28564 Par ch=1 c=64 v=64
28569 Par ch=1 c=64 v=0
28577 Par ch=1 c=64 v=64
28582 Par ch=1 c=64 v=127
28687 On ch=1 n=c5 v=0
28687 On ch=1 n=d5 v=0
28794 Par ch=1 c=64 v=96
28799 Par ch=1 c=64 v=64
28804 On ch=1 n=d5 v=62
28804 On ch=1 n=a#4 v=58
28814 Par ch=1 c=64 v=127
28856 On ch=1 n=a#4 v=0
28866 On ch=1 n=d5 v=0
29044 Par ch=1 c=64 v=64
29044 On ch=1 n=f5 v=75
29049 On ch=1 n=d#5 v=68
29054 Par ch=1 c=64 v=0
29061 Par ch=1 c=64 v=64
29066 Par ch=1 c=64 v=127
29176 On ch=1 n=d#5 v=0
29184 On ch=1 n=f5 v=0
29286 On ch=1 n=f5 v=67
29291 On ch=1 n=d5 v=59
29294 Par ch=1 c=64 v=64
29301 Par ch=1 c=64 v=0
29311 Par ch=1 c=64 v=64
29318 Par ch=1 c=64 v=127
29370 On ch=1 n=d5 v=0
29385 On ch=1 n=f5 v=0
29511 On ch=1 n=a5 v=67
29513 Par ch=1 c=64 v=96
29518 On ch=1 n=f5 v=67
29526 Par ch=1 c=64 v=64
29531 Par ch=1 c=64 v=96
29538 Par ch=1 c=64 v=127
29600 On ch=1 n=f5 v=0
29618 On ch=1 n=a5 v=0
29751 Par ch=1 c=64 v=96
29751 On ch=1 n=a#5 v=74
29761 Par ch=1 c=64 v=64
29768 Par ch=1 c=64 v=127
29871 On ch=1 n=a#5 v=0
29991 On ch=1 n=a#5 v=74
30133 On ch=1 n=a#5 v=0
30233 On ch=1 n=a#5 v=68
30233 On ch=1 n=c6 v=75
30243 Par ch=1 c=64 v=96
30255 Par ch=1 c=64 v=127
30342 On ch=1 n=a#5 v=0
30350 On ch=1 n=c6 v=0
30465 On ch=1 n=c#6 v=86
30580 On ch=1 n=c#6 v=0
30708 On ch=1 n=g6 v=75
30810 On ch=1 n=g6 v=0
30958 On ch=1 n=a#6 v=80
30988 On ch=1 n=a#6 v=0
31203 Par ch=1 c=64 v=96
31208 On ch=1 n=f6 v=75
31210 Par ch=1 c=64 v=64
31218 Par ch=1 c=64 v=96
31225 Par ch=1 c=64 v=127
31245 On ch=1 n=f6 v=0
31445 On ch=1 n=d6 v=70
31477 On ch=1 n=d6 v=0
31683 On ch=1 n=a#5 v=68
31915 On ch=1 n=a#5 v=0
31915 On ch=1 n=f5 v=70
32087 On ch=1 n=f5 v=0
32158 On ch=1 n=f#5 v=74
32165 Par ch=1 c=64 v=96
32170 Par ch=1 c=64 v=64
32188 Par ch=1 c=64 v=96
32195 Par ch=1 c=64 v=127
32395 On ch=1 n=f#5 v=0
32403 On ch=1 n=a4 v=67
32648 On ch=1 n=a#4 v=54
32650 On ch=1 n=a4 v=0
32658 Par ch=1 c=64 v=96
32663 Par ch=1 c=64 v=64
32668 Par ch=1 c=64 v=0
32678 Par ch=1 c=64 v=64
32683 Par ch=1 c=64 v=127
32883 On ch=1 n=a4 v=49
32898 Par ch=1 c=64 v=96
32900 On ch=1 n=a#4 v=0
32910 Par ch=1 c=64 v=127
33118 On ch=1 n=a4 v=0
33118 On ch=1 n=g#4 v=47
33128 Par ch=1 c=64 v=96
33138 Par ch=1 c=64 v=127
33348 On ch=1 n=g#4 v=0
33353 On ch=1 n=g4 v=49
33593 On ch=1 n=f#4 v=59
33603 Par ch=1 c=64 v=96
33605 On ch=1 n=g4 v=0
33610 Par ch=1 c=64 v=64
33630 Par ch=1 c=64 v=96
33638 Par ch=1 c=64 v=127
33845 On ch=1 n=f#4 v=0
33853 On ch=1 n=f4 v=43
33905 Par ch=1 c=64 v=96
33913 Par ch=1 c=64 v=64
33928 Par ch=1 c=64 v=96
33933 Par ch=1 c=64 v=127
33978 On ch=1 n=f4 v=0
34040 Par ch=1 c=64 v=96
34048 Par ch=1 c=64 v=64
34053 Par ch=1 c=64 v=0
35508 On ch=1 n=b4 v=60
35508 On ch=1 n=d4 v=44
35528 On ch=1 n=d4 v=0
35528 On ch=1 n=b4 v=0
35538 On ch=1 n=d5 v=59
35558 On ch=1 n=d5 v=0
35568 On ch=1 n=b4 v=51
35568 On ch=1 n=d4 v=39
35588 On ch=1 n=d4 v=0
35588 On ch=1 n=b4 v=0
35598 On ch=1 n=d5 v=56
35618 On ch=1 n=d5 v=0
35628 On ch=1 n=b4 v=63
35628 On ch=1 n=d4 v=39
35648 On ch=1 n=d4 v=0
35648 On ch=1 n=b4 v=0
35658 On ch=1 n=d5 v=50
35678 On ch=1 n=d5 v=0
35688 On ch=1 n=b4 v=60
35688 On ch=1 n=d4 v=50
35708 On ch=1 n=d4 v=0
35708 On ch=1 n=b4 v=0
35718 On ch=1 n=d5 v=52
35738 On ch=1 n=d5 v=0
35748 On ch=1 n=b4 v=63
35748 On ch=1 n=d4 v=47
35768 On ch=1 n=d4 v=0
35768 On ch=1 n=b4 v=0
35778 On ch=1 n=d5 v=56
35798 On ch=1 n=d5 v=0
35808 On ch=1 n=b4 v=60
35808 On ch=1 n=d4 v=47
35828 On ch=1 n=d4 v=0
35828 On ch=1 n=b4 v=0
35838 On ch=1 n=d5 v=52
35858 On ch=1 n=d5 v=0
35868 On ch=1 n=b4 v=60
35868 On ch=1 n=d4 v=47
35888 On ch=1 n=d4 v=0
35888 On ch=1 n=b4 v=0
35898 On ch=1 n=d5 v=56
35918 On ch=1 n=d5 v=0
35928 On ch=1 n=b4 v=54
35928 On ch=1 n=d4 v=47
35948 On ch=1 n=d4 v=0
35948 On ch=1 n=b4 v=0
35958 On ch=1 n=d5 v=52
35978 On ch=1 n=d5 v=0
35988 On ch=1 n=b4 v=54
35988 On ch=1 n=d4 v=29
36008 On ch=1 n=d4 v=0
36008 On ch=1 n=b4 v=0
36018 On ch=1 n=d5 v=59
36038 On ch=1 n=d5 v=0
36048 On ch=1 n=b4 v=56
36048 On ch=1 n=d4 v=31
36068 On ch=1 n=d4 v=0
36068 On ch=1 n=b4 v=0
36078 On ch=1 n=d5 v=47
36098 On ch=1 n=d5 v=0
36108 On ch=1 n=b4 v=60
36108 On ch=1 n=d4 v=44
36128 On ch=1 n=d4 v=0
36128 On ch=1 n=b4 v=0
36138 On ch=1 n=d5 v=52
36158 On ch=1 n=d5 v=0
36168 On ch=1 n=b4 v=54
36168 On ch=1 n=d4 v=34
36188 On ch=1 n=d4 v=0
36188 On ch=1 n=b4 v=0
36198 On ch=1 n=d5 v=39
36218 On ch=1 n=d5 v=0
36228 On ch=1 n=b3 v=59
36228 On ch=1 n=g4 v=52
36258 On ch=1 n=g4 v=0
36258 On ch=1 n=b3 v=0
36268 On ch=1 n=b4 v=48
36298 On ch=1 n=b4 v=0
36308 On ch=1 n=g4 v=32
36308 On ch=1 n=b3 v=32
36338 On ch=1 n=b3 v=0
36338 On ch=1 n=g4 v=0
36348 On ch=1 n=b4 v=40
36378 On ch=1 n=b4 v=0
36388 On ch=1 n=b3 v=56
36388 On ch=1 n=g4 v=39
36418 On ch=1 n=g4 v=0
36418 On ch=1 n=b3 v=0
36428 On ch=1 n=b4 v=40
36458 On ch=1 n=b4 v=0
36468 On ch=1 n=a4 v=52
36468 On ch=1 n=c4 v=50
36498 On ch=1 n=c4 v=0
36498 On ch=1 n=a4 v=0
36508 On ch=1 n=c5 v=39
36538 On ch=1 n=c5 v=0
36548 On ch=1 n=a4 v=34
36548 On ch=1 n=c4 v=41
36578 On ch=1 n=c4 v=0
36578 On ch=1 n=a4 v=0
36588 On ch=1 n=c5 v=34
36618 On ch=1 n=c5 v=0
36628 On ch=1 n=a4 v=41
36628 On ch=1 n=c4 v=44
36658 On ch=1 n=c4 v=0
36658 On ch=1 n=a4 v=0
36668 On ch=1 n=c5 v=32
36698 On ch=1 n=c5 v=0
36708 On ch=1 n=d4 v=62
36708 On ch=1 n=a#4 v=63
36738 On ch=1 n=a#4 v=0
36738 On ch=1 n=d4 v=0
36748 On ch=1 n=d5 v=52
36778 On ch=1 n=d5 v=0
36788 On ch=1 n=a#4 v=50
36788 On ch=1 n=d4 v=50
36818 On ch=1 n=d4 v=0
36818 On ch=1 n=a#4 v=0
36828 On ch=1 n=d5 v=41
36858 On ch=1 n=d5 v=0
36868 On ch=1 n=a#4 v=47
36868 On ch=1 n=d4 v=50
36898 On ch=1 n=d4 v=0
36898 On ch=1 n=a#4 v=0
36908 On ch=1 n=d5 v=39
36938 On ch=1 n=d5 v=0
36948 On ch=1 n=d#4 v=74
36948 On ch=1 n=c5 v=56
36978 On ch=1 n=c5 v=0
36978 On ch=1 n=d#4 v=0
36988 On ch=1 n=d#5 v=55
37018 On ch=1 n=d#5 v=0
37028 On ch=1 n=d#4 v=55
37028 On ch=1 n=c5 v=29
37058 On ch=1 n=c5 v=0
37058 On ch=1 n=d#4 v=0
37068 On ch=1 n=d#5 v=40
37098 On ch=1 n=d#5 v=0
37108 On ch=1 n=d#4 v=50
37108 On ch=1 n=c5 v=14
37138 On ch=1 n=c5 v=0
37138 On ch=1 n=d#4 v=0
37148 On ch=1 n=d#5 v=38
37178 On ch=1 n=d#5 v=0
37188 On ch=1 n=f4 v=71
37188 On ch=1 n=d5 v=59
37218 On ch=1 n=d5 v=0
37218 On ch=1 n=f4 v=0
37228 On ch=1 n=f5 v=50
37258 On ch=1 n=f5 v=0
37268 On ch=1 n=f4 v=40
37268 On ch=1 n=d5 v=34
37298 On ch=1 n=d5 v=0
37298 On ch=1 n=f4 v=0
37308 On ch=1 n=f5 v=47
37338 On ch=1 n=f5 v=0
37348 On ch=1 n=d5 v=41
37348 On ch=1 n=f4 v=48
37378 On ch=1 n=f4 v=0
37378 On ch=1 n=d5 v=0
37388 On ch=1 n=f5 v=36
37418 On ch=1 n=f5 v=0
37428 On ch=1 n=g4 v=70
37428 On ch=1 n=d#5 v=74
37458 On ch=1 n=d#5 v=0
37458 On ch=1 n=g4 v=0
37468 On ch=1 n=g5 v=56
37498 On ch=1 n=g5 v=0
37508 On ch=1 n=d#5 v=50
37508 On ch=1 n=g4 v=56
37538 On ch=1 n=g4 v=0
37538 On ch=1 n=d#5 v=0
37548 On ch=1 n=g5 v=56
37578 On ch=1 n=g5 v=0
37588 On ch=1 n=d#5 v=47
37588 On ch=1 n=g4 v=52
37618 On ch=1 n=g4 v=0
37618 On ch=1 n=d#5 v=0
37628 On ch=1 n=g5 v=44
37658 On ch=1 n=g5 v=0
37668 On ch=1 n=d#5 v=68
37668 On ch=1 n=g4 v=67
37698 On ch=1 n=g4 v=0
37698 On ch=1 n=d#5 v=0
37708 On ch=1 n=g5 v=59
37738 On ch=1 n=g5 v=0
37748 On ch=1 n=d#5 v=47
37778 On ch=1 n=d#5 v=0
37788 On ch=1 n=g5 v=44
37818 On ch=1 n=g5 v=0
37828 On ch=1 n=d#5 v=55
37858 On ch=1 n=d#5 v=0
37868 On ch=1 n=g5 v=41
37898 On ch=1 n=g5 v=0
37908 On ch=1 n=f4 v=71
37908 On ch=1 n=d5 v=67
37938 On ch=1 n=d5 v=0
37938 On ch=1 n=f4 v=0
37948 On ch=1 n=f5 v=56
37978 On ch=1 n=f5 v=0
37988 On ch=1 n=d5 v=50
37988 On ch=1 n=f4 v=60
38018 On ch=1 n=f4 v=0
38018 On ch=1 n=d5 v=0
38028 On ch=1 n=f5 v=47
38058 On ch=1 n=f5 v=0
38068 On ch=1 n=f4 v=45
38068 On ch=1 n=d5 v=47
38098 On ch=1 n=d5 v=0
38098 On ch=1 n=f4 v=0
38108 On ch=1 n=f5 v=50
38138 On ch=1 n=f5 v=0
38148 On ch=1 n=d#4 v=74
38148 On ch=1 n=c5 v=59
38178 On ch=1 n=c5 v=0
38178 On ch=1 n=d#4 v=0
38188 On ch=1 n=d#5 v=58
38218 On ch=1 n=d#5 v=0
38228 On ch=1 n=d#4 v=63
38228 On ch=1 n=c5 v=41
38258 On ch=1 n=c5 v=0
38258 On ch=1 n=d#4 v=0
38268 On ch=1 n=d#5 v=50
38298 On ch=1 n=d#5 v=0
38308 On ch=1 n=d#4 v=50
38308 On ch=1 n=c5 v=52
38338 On ch=1 n=c5 v=0
38338 On ch=1 n=d#4 v=0
38348 On ch=1 n=d#5 v=40
38378 On ch=1 n=d#5 v=0
38388 On ch=1 n=b4 v=56
38388 On ch=1 n=d4 v=32
38408 On ch=1 n=d4 v=0
38408 On ch=1 n=b4 v=0
38418 On ch=1 n=d5 v=39
38438 On ch=1 n=d5 v=0
38448 On ch=1 n=b4 v=54
38448 On ch=1 n=d4 v=15
38468 On ch=1 n=d4 v=0
38468 On ch=1 n=b4 v=0
38478 On ch=1 n=d5 v=50
38498 On ch=1 n=d5 v=0
38508 On ch=1 n=b4 v=45
38508 On ch=1 n=d4 v=32
38528 On ch=1 n=d4 v=0
38528 On ch=1 n=b4 v=0
38538 On ch=1 n=d5 v=56
38558 On ch=1 n=d5 v=0
38568 On ch=1 n=b4 v=51
38568 On ch=1 n=d4 v=26
38588 On ch=1 n=d4 v=0
38588 On ch=1 n=b4 v=0
38598 On ch=1 n=d5 v=32
38618 On ch=1 n=d5 v=0
38628 On ch=1 n=b4 v=43
38628 On ch=1 n=d4 v=25
38648 On ch=1 n=d4 v=0
38648 On ch=1 n=b4 v=0
38658 On ch=1 n=d5 v=41
38678 On ch=1 n=d5 v=0
38688 On ch=1 n=b4 v=48
38688 On ch=1 n=d4 v=29
38708 On ch=1 n=d4 v=0
38708 On ch=1 n=b4 v=0
38718 On ch=1 n=d5 v=36
38738 On ch=1 n=d5 v=0
38748 On ch=1 n=d4 v=41
38748 On ch=1 n=b4 v=45
38768 On ch=1 n=b4 v=0
38768 On ch=1 n=d4 v=0
38778 On ch=1 n=d5 v=44
38798 On ch=1 n=d5 v=0
38808 On ch=1 n=b4 v=48
38808 On ch=1 n=d4 v=39
38828 On ch=1 n=d4 v=0
38828 On ch=1 n=b4 v=0
38838 On ch=1 n=d5 v=50
38858 On ch=1 n=d5 v=0
38868 On ch=1 n=b4 v=54
38868 On ch=1 n=d4 v=41
38888 On ch=1 n=d4 v=0
38888 On ch=1 n=b4 v=0
38898 On ch=1 n=d5 v=56
38918 On ch=1 n=d5 v=0
38928 On ch=1 n=b4 v=54
38928 On ch=1 n=d4 v=47
38948 On ch=1 n=d4 v=0
38948 On ch=1 n=b4 v=0
38958 On ch=1 n=d5 v=39
38978 On ch=1 n=d5 v=0
38988 On ch=1 n=d4 v=36
38988 On ch=1 n=b4 v=43
39008 On ch=1 n=b4 v=0
39008 On ch=1 n=d4 v=0
39018 On ch=1 n=d5 v=29
39038 On ch=1 n=d5 v=0
39048 On ch=1 n=b4 v=35
39048 On ch=1 n=d4 v=26
39068 On ch=1 n=d4 v=0
39068 On ch=1 n=b4 v=0
39078 On ch=1 n=d5 v=41
39098 On ch=1 n=d5 v=0
41268 On ch=1 n=e4 v=29
41268 On ch=1 n=c#5 v=44
41288 On ch=1 n=c#5 v=0
41288 On ch=1 n=e4 v=0
41298 On ch=1 n=e5 v=44
41318 On ch=1 n=e5 v=0
41328 On ch=1 n=c#5 v=42
41328 On ch=1 n=e4 v=34
41348 On ch=1 n=e4 v=0
41348 On ch=1 n=c#5 v=0
41358 On ch=1 n=e5 v=47
41378 On ch=1 n=e5 v=0
41388 On ch=1 n=c#5 v=44
41388 On ch=1 n=e4 v=36
41408 On ch=1 n=e4 v=0
41408 On ch=1 n=c#5 v=0
41418 On ch=1 n=e5 v=52
41438 On ch=1 n=e5 v=0
41448 On ch=1 n=e4 v=41
41448 On ch=1 n=c#5 v=44
41468 On ch=1 n=c#5 v=0
41468 On ch=1 n=e4 v=0
41478 On ch=1 n=e5 v=33
41498 On ch=1 n=e5 v=0
41508 On ch=1 n=c#5 v=44
41508 On ch=1 n=e4 v=36
41528 On ch=1 n=e4 v=0
41528 On ch=1 n=c#5 v=0
41538 On ch=1 n=e5 v=47
41558 On ch=1 n=e5 v=0
41568 On ch=1 n=c#5 v=48
41568 On ch=1 n=e4 v=36
41588 On ch=1 n=e4 v=0
41588 On ch=1 n=c#5 v=0
41598 On ch=1 n=e5 v=47
41618 On ch=1 n=e5 v=0
41628 On ch=1 n=c#5 v=44
41628 On ch=1 n=e4 v=36
41648 On ch=1 n=e4 v=0
41648 On ch=1 n=c#5 v=0
41658 On ch=1 n=e5 v=40
41678 On ch=1 n=e5 v=0
41688 On ch=1 n=c#5 v=51
41688 On ch=1 n=e4 v=34
41708 On ch=1 n=e4 v=0
41708 On ch=1 n=c#5 v=0
41718 On ch=1 n=e5 v=37
41738 On ch=1 n=e5 v=0
41748 On ch=1 n=c#5 v=51
41748 On ch=1 n=e4 v=25
41768 On ch=1 n=e4 v=0
41768 On ch=1 n=c#5 v=0
41778 On ch=1 n=e5 v=55
41798 On ch=1 n=e5 v=0
41808 On ch=1 n=c#5 v=44
41808 On ch=1 n=e4 v=26
41828 On ch=1 n=e4 v=0
41828 On ch=1 n=c#5 v=0
41838 On ch=1 n=e5 v=44
41858 On ch=1 n=e5 v=0
41868 On ch=1 n=c#5 v=39
41868 On ch=1 n=e4 v=34
41888 On ch=1 n=e4 v=0
41888 On ch=1 n=c#5 v=0
41898 On ch=1 n=e5 v=47
41918 On ch=1 n=e5 v=0
41928 On ch=1 n=c#5 v=51
41928 On ch=1 n=e4 v=41
41948 On ch=1 n=e4 v=0
41948 On ch=1 n=c#5 v=0
41958 On ch=1 n=e5 v=44
41978 On ch=1 n=e5 v=0
41988 On ch=1 n=a4 v=62
41988 On ch=1 n=c#4 v=50
42018 On ch=1 n=c#4 v=0
42018 On ch=1 n=a4 v=0
42028 On ch=1 n=c#5 v=42
42058 On ch=1 n=c#5 v=0
42068 On ch=1 n=a4 v=34
42068 On ch=1 n=c#4 v=24
42098 On ch=1 n=c#4 v=0
42098 On ch=1 n=a4 v=0
42108 On ch=1 n=c#5 v=42
42138 On ch=1 n=c#5 v=0
42148 On ch=1 n=c#4 v=35
42148 On ch=1 n=a4 v=34
42178 On ch=1 n=a4 v=0
42178 On ch=1 n=c#4 v=0
42188 On ch=1 n=c#5 v=44
42218 On ch=1 n=c#5 v=0
42228 On ch=1 n=b4 v=63
42228 On ch=1 n=d4 v=52
42258 On ch=1 n=d4 v=0
42258 On ch=1 n=b4 v=0
42268 On ch=1 n=d5 v=21
42298 On ch=1 n=d5 v=0
42308 On ch=1 n=d4 v=39
42308 On ch=1 n=b4 v=35
42338 On ch=1 n=b4 v=0
42338 On ch=1 n=d4 v=0
42348 On ch=1 n=d5 v=41
42378 On ch=1 n=d5 v=0
42388 On ch=1 n=b4 v=38
42388 On ch=1 n=d4 v=31
42418 On ch=1 n=d4 v=0
42418 On ch=1 n=b4 v=0
42428 On ch=1 n=d5 v=34
42458 On ch=1 n=d5 v=0
42468 On ch=1 n=e4 v=59
42468 On ch=1 n=c#5 v=67
42498 On ch=1 n=c#5 v=0
42498 On ch=1 n=e4 v=0
42508 On ch=1 n=e5 v=49
42538 On ch=1 n=e5 v=0
42548 On ch=1 n=c#5 v=48
42578 On ch=1 n=c#5 v=0
42588 On ch=1 n=e5 v=39
42618 On ch=1 n=e5 v=0
42628 On ch=1 n=e4 v=39
42628 On ch=1 n=c#5 v=54
42658 On ch=1 n=c#5 v=0
42658 On ch=1 n=e4 v=0
42668 On ch=1 n=e5 v=44
42698 On ch=1 n=e5 v=0
42708 On ch=1 n=f4 v=60
42708 On ch=1 n=d5 v=62
42738 On ch=1 n=d5 v=0
42738 On ch=1 n=f4 v=0
42748 On ch=1 n=f5 v=47
42778 On ch=1 n=f5 v=0
42788 On ch=1 n=f4 v=40
42788 On ch=1 n=d5 v=36
42818 On ch=1 n=d5 v=0
42818 On ch=1 n=f4 v=0
42828 On ch=1 n=f5 v=50
42858 On ch=1 n=f5 v=0
42868 On ch=1 n=d5 v=47
42868 On ch=1 n=f4 v=35
42898 On ch=1 n=f4 v=0
42898 On ch=1 n=d5 v=0
42908 On ch=1 n=f5 v=39
42938 On ch=1 n=f5 v=0
42948 On ch=1 n=e5 v=67
42948 On ch=1 n=g4 v=56
42978 On ch=1 n=g4 v=0
42978 On ch=1 n=e5 v=0
42988 On ch=1 n=g5 v=44
43018 On ch=1 n=g5 v=0
43028 On ch=1 n=g4 v=32
43028 On ch=1 n=e5 v=44
43058 On ch=1 n=e5 v=0
43058 On ch=1 n=g4 v=0
43068 On ch=1 n=g5 v=47
43098 On ch=1 n=g5 v=0
43108 On ch=1 n=e5 v=44
43108 On ch=1 n=g4 v=41
43138 On ch=1 n=g4 v=0
43138 On ch=1 n=e5 v=0
43148 On ch=1 n=g5 v=32
43178 On ch=1 n=g5 v=0
43188 On ch=1 n=a4 v=52
43188 On ch=1 n=f5 v=62
43218 On ch=1 n=f5 v=0
43218 On ch=1 n=a4 v=0
43228 On ch=1 n=a5 v=52
43258 On ch=1 n=a5 v=0
43268 On ch=1 n=f5 v=41
43268 On ch=1 n=a4 v=16
43298 On ch=1 n=a4 v=0
43298 On ch=1 n=f5 v=0
43308 On ch=1 n=a5 v=47
43338 On ch=1 n=a5 v=0
43348 On ch=1 n=f5 v=47
43348 On ch=1 n=a4 v=29
43378 On ch=1 n=a4 v=0
43378 On ch=1 n=f5 v=0
43388 On ch=1 n=a5 v=18
43418 On ch=1 n=a5 v=0
43428 On ch=1 n=f5 v=59
43428 On ch=1 n=a4 v=50
43458 On ch=1 n=a4 v=0
43458 On ch=1 n=f5 v=0
43468 On ch=1 n=a5 v=50
43498 On ch=1 n=a5 v=0
43508 On ch=1 n=f5 v=26
43508 On ch=1 n=a4 v=32
43538 On ch=1 n=a4 v=0
43538 On ch=1 n=f5 v=0
43548 On ch=1 n=a5 v=41
43578 On ch=1 n=a5 v=0
43588 On ch=1 n=f5 v=34
43588 On ch=1 n=a4 v=20
43618 On ch=1 n=a4 v=0
43618 On ch=1 n=f5 v=0
43628 On ch=1 n=a5 v=34
43658 On ch=1 n=a5 v=0
43668 On ch=1 n=e5 v=67
43668 On ch=1 n=g4 v=56
43698 On ch=1 n=g4 v=0
43698 On ch=1 n=e5 v=0
43708 On ch=1 n=g5 v=39
43738 On ch=1 n=g5 v=0
43748 On ch=1 n=e5 v=39
43748 On ch=1 n=g4 v=36
43778 On ch=1 n=g4 v=0
43778 On ch=1 n=e5 v=0
43788 On ch=1 n=g5 v=44
43818 On ch=1 n=g5 v=0
43828 On ch=1 n=e5 v=47
43828 On ch=1 n=g4 v=36
43858 On ch=1 n=g4 v=0
43858 On ch=1 n=e5 v=0
43868 On ch=1 n=g5 v=36
43898 On ch=1 n=g5 v=0
43908 On ch=1 n=d5 v=59
43908 On ch=1 n=f4 v=51
43938 On ch=1 n=f4 v=0
43938 On ch=1 n=d5 v=0
43948 On ch=1 n=f5 v=50
43978 On ch=1 n=f5 v=0
43988 On ch=1 n=d5 v=44
43988 On ch=1 n=f4 v=35
44018 On ch=1 n=f4 v=0
44018 On ch=1 n=d5 v=0
44028 On ch=1 n=f5 v=39
44058 On ch=1 n=f5 v=0
44068 On ch=1 n=d5 v=41
44068 On ch=1 n=f4 v=27
44098 On ch=1 n=f4 v=0
44098 On ch=1 n=d5 v=0
44108 On ch=1 n=f5 v=32
44138 On ch=1 n=f5 v=0
44148 On ch=1 n=c#5 v=78
44148 On ch=1 n=e4 v=75
44168 On ch=1 n=e4 v=0
44168 On ch=1 n=c#5 v=0
44178 On ch=1 n=e5 v=37
44198 On ch=1 n=e5 v=0
44208 On ch=1 n=c#5 v=51
44208 On ch=1 n=e4 v=26
44228 On ch=1 n=e4 v=0
44228 On ch=1 n=c#5 v=0
44238 On ch=1 n=e5 v=44
44258 On ch=1 n=e5 v=0
44268 On ch=1 n=e4 v=41
44268 On ch=1 n=c#5 v=48
44288 On ch=1 n=c#5 v=0
44288 On ch=1 n=e4 v=0
44298 On ch=1 n=e5 v=55
44318 On ch=1 n=e5 v=0
44328 On ch=1 n=c#5 v=54
44328 On ch=1 n=e4 v=29
44348 On ch=1 n=e4 v=0
44348 On ch=1 n=c#5 v=0
44358 On ch=1 n=e5 v=52
44378 On ch=1 n=e5 v=0
44388 On ch=1 n=c#5 v=54
44388 On ch=1 n=e4 v=39
44408 On ch=1 n=e4 v=0
44408 On ch=1 n=c#5 v=0
44418 On ch=1 n=e5 v=47
44438 On ch=1 n=e5 v=0
44448 On ch=1 n=c#5 v=51
44448 On ch=1 n=e4 v=44
44468 On ch=1 n=e4 v=0
44468 On ch=1 n=c#5 v=0
44478 On ch=1 n=e5 v=52
44498 On ch=1 n=e5 v=0
44508 On ch=1 n=c#5 v=54
44508 On ch=1 n=e4 v=39
44528 On ch=1 n=e4 v=0
44528 On ch=1 n=c#5 v=0
44538 On ch=1 n=e5 v=52
44558 On ch=1 n=e5 v=0
44568 On ch=1 n=e4 v=47
44568 On ch=1 n=c#5 v=51
44588 On ch=1 n=c#5 v=0
44588 On ch=1 n=e4 v=0
44598 On ch=1 n=e5 v=58
44618 On ch=1 n=e5 v=0
44628 On ch=1 n=e4 v=50
44628 On ch=1 n=c#5 v=59
44648 On ch=1 n=c#5 v=0
44648 On ch=1 n=e4 v=0
44658 On ch=1 n=e5 v=58
44678 On ch=1 n=e5 v=0
44688 On ch=1 n=e4 v=39
44688 On ch=1 n=c#5 v=51
44708 On ch=1 n=c#5 v=0
44708 On ch=1 n=e4 v=0
44718 On ch=1 n=e5 v=47
44738 On ch=1 n=e5 v=0
44748 On ch=1 n=e4 v=36
44748 On ch=1 n=c#5 v=48
44768 On ch=1 n=c#5 v=0
44768 On ch=1 n=e4 v=0
44778 On ch=1 n=e5 v=34
44798 On ch=1 n=e5 v=0
44808 On ch=1 n=e4 v=32
44808 On ch=1 n=c#5 v=48
44828 On ch=1 n=c#5 v=0
44828 On ch=1 n=e4 v=0
44838 On ch=1 n=e5 v=31
44858 On ch=1 n=e5 v=0
47028 On ch=1 n=a6 v=70
47028 On ch=1 n=d#6 v=58
47028 On ch=1 n=f#6 v=68
47048 On ch=1 n=f#6 v=0
47048 On ch=1 n=d#6 v=0
47048 On ch=1 n=a6 v=0
47058 On ch=1 n=d#7 v=58
47078 On ch=1 n=d#7 v=0
47088 On ch=1 n=a6 v=62
47088 On ch=1 n=d#6 v=58
47088 On ch=1 n=f#6 v=68
47108 On ch=1 n=f#6 v=0
47108 On ch=1 n=d#6 v=0
47108 On ch=1 n=a6 v=0
47118 On ch=1 n=d#7 v=63
47138 On ch=1 n=d#7 v=0
47148 On ch=1 n=a6 v=62
47148 On ch=1 n=d#6 v=55
47148 On ch=1 n=f#6 v=58
47168 On ch=1 n=f#6 v=0
47168 On ch=1 n=d#6 v=0
47168 On ch=1 n=a6 v=0
47178 On ch=1 n=d#7 v=68
47198 On ch=1 n=d#7 v=0
47208 On ch=1 n=a6 v=67
47208 On ch=1 n=d#6 v=44
47208 On ch=1 n=f#6 v=58
47228 On ch=1 n=f#6 v=0
47228 On ch=1 n=d#6 v=0
47228 On ch=1 n=a6 v=0
47238 On ch=1 n=d#7 v=68
47258 On ch=1 n=d#7 v=0
47268 On ch=1 n=a6 v=62
47268 On ch=1 n=f#6 v=58
47268 On ch=1 n=d#6 v=47
47288 On ch=1 n=d#6 v=0
47288 On ch=1 n=f#6 v=0
47288 On ch=1 n=a6 v=0
47298 On ch=1 n=d#7 v=68
47318 On ch=1 n=d#7 v=0
47328 On ch=1 n=d#6 v=47
47328 On ch=1 n=f#6 v=50
47328 On ch=1 n=a6 v=52
47348 On ch=1 n=a6 v=0
47348 On ch=1 n=f#6 v=0
47348 On ch=1 n=d#6 v=0
47358 On ch=1 n=d#7 v=63
47378 On ch=1 n=d#7 v=0
47388 On ch=1 n=d#6 v=40
47388 On ch=1 n=a6 v=52
47388 On ch=1 n=f#6 v=50
47408 On ch=1 n=f#6 v=0
47408 On ch=1 n=a6 v=0
47408 On ch=1 n=d#6 v=0
47418 On ch=1 n=d#7 v=63
47438 On ch=1 n=d#7 v=0
47448 On ch=1 n=d#6 v=47
47448 On ch=1 n=a6 v=50
47448 On ch=1 n=f#6 v=55
47468 On ch=1 n=f#6 v=0
47468 On ch=1 n=a6 v=0
47468 On ch=1 n=d#6 v=0
47478 On ch=1 n=d#7 v=68
47498 On ch=1 n=d#7 v=0
47508 On ch=1 n=d#6 v=55
47508 On ch=1 n=f#6 v=63
47508 On ch=1 n=a6 v=62
47528 On ch=1 n=a6 v=0
47528 On ch=1 n=f#6 v=0
47528 On ch=1 n=d#6 v=0
47538 On ch=1 n=d#7 v=74
47558 On ch=1 n=d#7 v=0
47568 On ch=1 n=a6 v=67
47568 On ch=1 n=d#6 v=44
47568 On ch=1 n=f#6 v=58
47588 On ch=1 n=f#6 v=0
47588 On ch=1 n=d#6 v=0
47588 On ch=1 n=a6 v=0
47598 On ch=1 n=d#7 v=68
47618 On ch=1 n=d#7 v=0
47628 On ch=1 n=d#6 v=50
47628 On ch=1 n=a6 v=59
47628 On ch=1 n=f#6 v=63
47648 On ch=1 n=f#6 v=0
47648 On ch=1 n=a6 v=0
47648 On ch=1 n=d#6 v=0
47658 On ch=1 n=d#7 v=68
47678 On ch=1 n=d#7 v=0
47688 On ch=1 n=a6 v=62
47688 On ch=1 n=d#6 v=47
47688 On ch=1 n=f#6 v=58
47708 On ch=1 n=f#6 v=0
47708 On ch=1 n=d#6 v=0
47708 On ch=1 n=a6 v=0
47718 On ch=1 n=d#7 v=63
47738 On ch=1 n=d#7 v=0
47748 On ch=1 n=d#6 v=68
47748 On ch=1 n=a6 v=67
47748 On ch=1 n=f#6 v=68
47778 On ch=1 n=f#6 v=0
47778 On ch=1 n=a6 v=0
47778 On ch=1 n=d#6 v=0
47788 On ch=1 n=d#7 v=47
47818 On ch=1 n=d#7 v=0
47828 On ch=1 n=d#6 v=27
47828 On ch=1 n=a6 v=36
47828 On ch=1 n=f#6 v=24
47858 On ch=1 n=f#6 v=0
47858 On ch=1 n=a6 v=0
47858 On ch=1 n=d#6 v=0
47868 On ch=1 n=d#7 v=44
47898 On ch=1 n=d#7 v=0
47908 On ch=1 n=d#6 v=15
47908 On ch=1 n=a6 v=31
47938 On ch=1 n=a6 v=0
47938 On ch=1 n=d#6 v=0
47948 On ch=1 n=d#7 v=50
47978 On ch=1 n=d#7 v=0
47988 On ch=1 n=d#6 v=68
47988 On ch=1 n=f#6 v=68
47988 On ch=1 n=b6 v=70
48018 On ch=1 n=b6 v=0
48018 On ch=1 n=f#6 v=0
48018 On ch=1 n=d#6 v=0
48028 On ch=1 n=d#7 v=68
48058 On ch=1 n=d#7 v=0
48068 On ch=1 n=f#6 v=55
48068 On ch=1 n=b6 v=50
48068 On ch=1 n=d#6 v=29
48098 On ch=1 n=d#6 v=0
48098 On ch=1 n=b6 v=0
48098 On ch=1 n=f#6 v=0
48108 On ch=1 n=d#7 v=40
48138 On ch=1 n=d#7 v=0
48148 On ch=1 n=f#6 v=38
48148 On ch=1 n=d#6 v=11
48148 On ch=1 n=b6 v=44
48178 On ch=1 n=b6 v=0
48178 On ch=1 n=d#6 v=0
48178 On ch=1 n=f#6 v=0
48188 On ch=1 n=d#7 v=58
48218 On ch=1 n=d#7 v=0
48228 On ch=1 n=d#6 v=68
48228 On ch=1 n=c7 v=62
48228 On ch=1 n=f#6 v=63
48258 On ch=1 n=f#6 v=0
48258 On ch=1 n=c7 v=0
48258 On ch=1 n=d#6 v=0
48268 On ch=1 n=d#7 v=68
48298 On ch=1 n=d#7 v=0
48308 On ch=1 n=d#6 v=47
48308 On ch=1 n=f#6 v=50
48308 On ch=1 n=c7 v=47
48338 On ch=1 n=c7 v=0
48338 On ch=1 n=f#6 v=0
48338 On ch=1 n=d#6 v=0
48348 On ch=1 n=d#7 v=63
48378 On ch=1 n=d#7 v=0
48388 On ch=1 n=d#6 v=35
48388 On ch=1 n=c7 v=52
48388 On ch=1 n=f#6 v=50
48418 On ch=1 n=f#6 v=0
48418 On ch=1 n=c7 v=0
48418 On ch=1 n=d#6 v=0
48428 On ch=1 n=d#7 v=63
48458 On ch=1 n=d#7 v=0
48468 On ch=1 n=e6 v=70
48468 On ch=1 n=g#6 v=86
48498 On ch=1 n=g#6 v=0
48498 On ch=1 n=e6 v=0
48508 On ch=1 n=e7 v=59
48538 On ch=1 n=e7 v=0
48548 On ch=1 n=e6 v=39
48548 On ch=1 n=g#6 v=55
48578 On ch=1 n=g#6 v=0
48578 On ch=1 n=e6 v=0
48588 On ch=1 n=e7 v=59
48618 On ch=1 n=e7 v=0
48628 On ch=1 n=e6 v=41
48628 On ch=1 n=g#6 v=50
48658 On ch=1 n=g#6 v=0
48658 On ch=1 n=e6 v=0
48668 On ch=1 n=e7 v=44
48698 On ch=1 n=e7 v=0
48708 On ch=1 n=c7 v=80
48708 On ch=1 n=d#6 v=80
48738 On ch=1 n=d#6 v=0
48738 On ch=1 n=c7 v=0
48748 On ch=1 n=d#7 v=50
48778 On ch=1 n=d#7 v=0
48788 On ch=1 n=c7 v=52
48788 On ch=1 n=d#6 v=47
48818 On ch=1 n=d#6 v=0
48818 On ch=1 n=c7 v=0
48828 On ch=1 n=d#7 v=47
48858 On ch=1 n=d#7 v=0
48868 On ch=1 n=d#6 v=38
48868 On ch=1 n=c7 v=41
48898 On ch=1 n=c7 v=0
48898 On ch=1 n=d#6 v=0
48908 On ch=1 n=d#7 v=38
48938 On ch=1 n=d#7 v=0
48948 On ch=1 n=b6 v=75
48948 On ch=1 n=d6 v=70
48978 On ch=1 n=d6 v=0
48978 On ch=1 n=b6 v=0
48988 On ch=1 n=d7 v=56
49018 On ch=1 n=d7 v=0
49028 On ch=1 n=b6 v=56
49028 On ch=1 n=d6 v=47
49058 On ch=1 n=d6 v=0
49058 On ch=1 n=b6 v=0
49068 On ch=1 n=d7 v=50
49098 On ch=1 n=d7 v=0
49108 On ch=1 n=b6 v=59
49108 On ch=1 n=d6 v=52
49138 On ch=1 n=d6 v=0
49138 On ch=1 n=b6 v=0
49148 On ch=1 n=d7 v=50
49178 On ch=1 n=d7 v=0
49188 On ch=1 n=a#6 v=80
49188 On ch=1 n=c#6 v=63
49218 On ch=1 n=c#6 v=0
49218 On ch=1 n=a#6 v=0
49228 On ch=1 n=c#7 v=63
49258 On ch=1 n=c#7 v=0
49268 On ch=1 n=c#6 v=44
49268 On ch=1 n=a#6 v=50
49298 On ch=1 n=a#6 v=0
49298 On ch=1 n=c#6 v=0
49308 On ch=1 n=c#7 v=58
49338 On ch=1 n=c#7 v=0
49348 On ch=1 n=c#6 v=47
49348 On ch=1 n=a#6 v=47
49378 On ch=1 n=a#6 v=0
49378 On ch=1 n=c#6 v=0
49388 On ch=1 n=c#7 v=50
49418 On ch=1 n=c#7 v=0
49428 On ch=1 n=c6 v=70
49428 On ch=1 n=a6 v=80
49458 On ch=1 n=a6 v=0
49458 On ch=1 n=c6 v=0
49468 On ch=1 n=c7 v=47
49498 On ch=1 n=c7 v=0
49508 On ch=1 n=a6 v=52
49508 On ch=1 n=c6 v=36
49538 On ch=1 n=c6 v=0
49538 On ch=1 n=a6 v=0
49548 On ch=1 n=c7 v=56
49578 On ch=1 n=c7 v=0
49588 On ch=1 n=a6 v=56
49588 On ch=1 n=c6 v=47
49618 On ch=1 n=c6 v=0
49618 On ch=1 n=a6 v=0
49628 On ch=1 n=c7 v=44
49658 On ch=1 n=c7 v=0
49668 On ch=1 n=g#6 v=74
49668 On ch=1 n=b5 v=62
49698 On ch=1 n=b5 v=0
49698 On ch=1 n=g#6 v=0
49708 On ch=1 n=b6 v=50
49738 On ch=1 n=b6 v=0
49748 On ch=1 n=g#6 v=50
49748 On ch=1 n=b5 v=25
49778 On ch=1 n=b5 v=0
49778 On ch=1 n=g#6 v=0
49788 On ch=1 n=b6 v=34
49818 On ch=1 n=b6 v=0
49828 On ch=1 n=b5 v=34
49828 On ch=1 n=g#6 v=55
49858 On ch=1 n=g#6 v=0
49858 On ch=1 n=b5 v=0
49868 On ch=1 n=b6 v=52
49898 On ch=1 n=b6 v=0
49908 On ch=1 n=a#6 v=74
49908 On ch=1 n=e6 v=59
49908 On ch=1 n=g6 v=62
49928 On ch=1 n=g6 v=0
49928 On ch=1 n=e6 v=0
49928 On ch=1 n=a#6 v=0
49938 On ch=1 n=e7 v=59
49958 On ch=1 n=e7 v=0
49968 On ch=1 n=a#6 v=58
49968 On ch=1 n=e6 v=41
49968 On ch=1 n=g6 v=44
49988 On ch=1 n=g6 v=0
49988 On ch=1 n=e6 v=0
49988 On ch=1 n=a#6 v=0
49998 On ch=1 n=e7 v=56
50018 On ch=1 n=e7 v=0
50028 On ch=1 n=e6 v=36
50028 On ch=1 n=a#6 v=63
50028 On ch=1 n=g6 v=50
50048 On ch=1 n=g6 v=0
50048 On ch=1 n=a#6 v=0
50048 On ch=1 n=e6 v=0
50058 On ch=1 n=e7 v=52
50078 On ch=1 n=e7 v=0
50088 On ch=1 n=a#6 v=55
50088 On ch=1 n=e6 v=36
50088 On ch=1 n=g6 v=36
50108 On ch=1 n=g6 v=0
50108 On ch=1 n=e6 v=0
50108 On ch=1 n=a#6 v=0
50118 On ch=1 n=e7 v=59
50138 On ch=1 n=e7 v=0
50148 On ch=1 n=a#6 v=63
50148 On ch=1 n=e6 v=32
50148 On ch=1 n=g6 v=34
50168 On ch=1 n=g6 v=0
50168 On ch=1 n=e6 v=0
50168 On ch=1 n=a#6 v=0
50178 On ch=1 n=e7 v=59
50198 On ch=1 n=e7 v=0
50208 On ch=1 n=a#6 v=55
50208 On ch=1 n=g6 v=36
50208 On ch=1 n=e6 v=8
50228 On ch=1 n=e6 v=0
50228 On ch=1 n=g6 v=0
50228 On ch=1 n=a#6 v=0
50238 On ch=1 n=e7 v=47
50258 On ch=1 n=e7 v=0
50268 On ch=1 n=e6 v=31
50268 On ch=1 n=a#6 v=44
50268 On ch=1 n=g6 v=36
50288 On ch=1 n=g6 v=0
50288 On ch=1 n=a#6 v=0
50288 On ch=1 n=e6 v=0
50298 On ch=1 n=e7 v=56
50318 On ch=1 n=e7 v=0
50328 On ch=1 n=a#6 v=50
50328 On ch=1 n=e6 v=29
50328 On ch=1 n=g6 v=36
50348 On ch=1 n=g6 v=0
50348 On ch=1 n=e6 v=0
50348 On ch=1 n=a#6 v=0
50358 On ch=1 n=e7 v=56
50378 On ch=1 n=e7 v=0
50388 On ch=1 n=e6 v=47
50388 On ch=1 n=g6 v=52
50388 On ch=1 n=a#6 v=58
50408 On ch=1 n=a#6 v=0
50408 On ch=1 n=g6 v=0
50408 On ch=1 n=e6 v=0
50418 On ch=1 n=e7 v=62
50438 On ch=1 n=e7 v=0
50448 On ch=1 n=e6 v=41
50448 On ch=1 n=a#6 v=58
50448 On ch=1 n=g6 v=44
50468 On ch=1 n=g6 v=0
50468 On ch=1 n=a#6 v=0
50468 On ch=1 n=e6 v=0
50478 On ch=1 n=e7 v=56
50498 On ch=1 n=e7 v=0
50508 On ch=1 n=e6 v=50
50508 On ch=1 n=a#6 v=63
50508 On ch=1 n=g6 v=47
50528 On ch=1 n=g6 v=0
50528 On ch=1 n=a#6 v=0
50528 On ch=1 n=e6 v=0
50538 On ch=1 n=e7 v=52
50558 On ch=1 n=e7 v=0
50568 On ch=1 n=a#6 v=47
50568 On ch=1 n=e6 v=26
50568 On ch=1 n=g6 v=47
50588 On ch=1 n=g6 v=0
50588 On ch=1 n=e6 v=0
50588 On ch=1 n=a#6 v=0
50598 On ch=1 n=e7 v=50
50618 On ch=1 n=e7 v=0
50628 On ch=1 n=e6 v=32
50628 On ch=1 n=a#6 v=40
50628 On ch=1 n=g6 v=29
50658 On ch=1 n=g6 v=0
50658 On ch=1 n=a#6 v=0
50658 On ch=1 n=e6 v=0
50668 On ch=1 n=e7 v=41
50698 On ch=1 n=e7 v=0
50708 On ch=1 n=e6 v=29
50708 On ch=1 n=a#6 v=38
50708 On ch=1 n=g6 v=31
50738 On ch=1 n=g6 v=0
50738 On ch=1 n=a#6 v=0
50738 On ch=1 n=e6 v=0
50748 On ch=1 n=e7 v=47
50778 On ch=1 n=e7 v=0
50788 On ch=1 n=e6 v=32
50788 On ch=1 n=a#6 v=55
50788 On ch=1 n=g6 v=41
50818 On ch=1 n=g6 v=0
50818 On ch=1 n=a#6 v=0
50818 On ch=1 n=e6 v=0
50828 On ch=1 n=e7 v=47
50858 On ch=1 n=e7 v=0
50868 On ch=1 n=e6 v=41
50868 On ch=1 n=c7 v=52
50868 On ch=1 n=g6 v=36
50898 On ch=1 n=g6 v=0
50898 On ch=1 n=c7 v=0
50898 On ch=1 n=e6 v=0
50908 On ch=1 n=e7 v=67
50938 On ch=1 n=e7 v=0
50948 On ch=1 n=g6 v=50
50948 On ch=1 n=c7 v=59
50948 On ch=1 n=e6 v=29
50978 On ch=1 n=e6 v=0
50978 On ch=1 n=c7 v=0
50978 On ch=1 n=g6 v=0
50988 On ch=1 n=e7 v=67
51018 On ch=1 n=e7 v=0
51028 On ch=1 n=e6 v=52
51028 On ch=1 n=c7 v=67
51028 On ch=1 n=g6 v=52
51058 On ch=1 n=g6 v=0
51058 On ch=1 n=c7 v=0
51058 On ch=1 n=e6 v=0
51068 On ch=1 n=e7 v=47
51098 On ch=1 n=e7 v=0
51108 On ch=1 n=c#7 v=74
51108 On ch=1 n=g6 v=62
51108 On ch=1 n=e6 v=50
51138 On ch=1 n=e6 v=0
51138 On ch=1 n=g6 v=0
51138 On ch=1 n=c#7 v=0
51148 On ch=1 n=e7 v=59
51178 On ch=1 n=e7 v=0
51188 On ch=1 n=c#7 v=74
51188 On ch=1 n=g6 v=59
51188 On ch=1 n=e6 v=47
51218 On ch=1 n=e6 v=0
51218 On ch=1 n=g6 v=0
51218 On ch=1 n=c#7 v=0
51228 On ch=1 n=e7 v=62
51258 On ch=1 n=e7 v=0
51268 On ch=1 n=e6 v=50
51268 On ch=1 n=c#7 v=63
51268 On ch=1 n=g6 v=47
51298 On ch=1 n=g6 v=0
51298 On ch=1 n=c#7 v=0
51298 On ch=1 n=e6 v=0
51308 On ch=1 n=e7 v=62
51338 On ch=1 n=e7 v=0
51348 On ch=1 n=f6 v=56
51348 On ch=1 n=a6 v=59
51378 On ch=1 n=a6 v=0
51378 On ch=1 n=f6 v=0
51388 On ch=1 n=f7 v=41
51418 On ch=1 n=f7 v=0
51428 On ch=1 n=f6 v=23
51428 On ch=1 n=a6 v=39
51458 On ch=1 n=a6 v=0
51458 On ch=1 n=f6 v=0
51468 On ch=1 n=f7 v=39
51498 On ch=1 n=f7 v=0
51508 On ch=1 n=f6 v=32
51508 On ch=1 n=a6 v=31
51538 On ch=1 n=a6 v=0
51538 On ch=1 n=f6 v=0
51548 On ch=1 n=f7 v=44
51578 On ch=1 n=f7 v=0
51588 On ch=1 n=e6 v=59
51588 On ch=1 n=c#7 v=74
51618 On ch=1 n=c#7 v=0
51618 On ch=1 n=e6 v=0
51628 On ch=1 n=e7 v=56
51658 On ch=1 n=e7 v=0
51668 On ch=1 n=c#7 v=47
51668 On ch=1 n=e6 v=34
51698 On ch=1 n=e6 v=0
51698 On ch=1 n=c#7 v=0
51708 On ch=1 n=e7 v=39
51738 On ch=1 n=e7 v=0
51748 On ch=1 n=c#7 v=50
51748 On ch=1 n=e6 v=31
51778 On ch=1 n=e6 v=0
51778 On ch=1 n=c#7 v=0
51788 On ch=1 n=e7 v=41
51818 On ch=1 n=e7 v=0
51828 On ch=1 n=c7 v=70
51828 On ch=1 n=d#6 v=68
51858 On ch=1 n=d#6 v=0
51858 On ch=1 n=c7 v=0
51868 On ch=1 n=d#7 v=55
51898 On ch=1 n=d#7 v=0
51908 On ch=1 n=d#6 v=32
51908 On ch=1 n=c7 v=44
51938 On ch=1 n=c7 v=0
51938 On ch=1 n=d#6 v=0
51948 On ch=1 n=d#7 v=40
51978 On ch=1 n=d#7 v=0
51988 On ch=1 n=d#6 v=38
51988 On ch=1 n=c7 v=47
52018 On ch=1 n=c7 v=0
52018 On ch=1 n=d#6 v=0
52028 On ch=1 n=d#7 v=27
52058 On ch=1 n=d#7 v=0
52068 On ch=1 n=b6 v=70
52068 On ch=1 n=d6 v=62
52098 On ch=1 n=d6 v=0
52098 On ch=1 n=b6 v=0
52108 On ch=1 n=d7 v=41
52138 On ch=1 n=d7 v=0
52148 On ch=1 n=d6 v=34
52148 On ch=1 n=b6 v=50
52178 On ch=1 n=b6 v=0
52178 On ch=1 n=d6 v=0
52188 On ch=1 n=d7 v=34
52218 On ch=1 n=d7 v=0
52228 On ch=1 n=b6 v=50
52228 On ch=1 n=d6 v=41
52258 On ch=1 n=d6 v=0
52258 On ch=1 n=b6 v=0
52268 On ch=1 n=d7 v=47
52298 On ch=1 n=d7 v=0
52308 On ch=1 n=a#6 v=74
52308 On ch=1 n=c#6 v=68
52338 On ch=1 n=c#6 v=0
52338 On ch=1 n=a#6 v=0
52348 On ch=1 n=c#7 v=50
52378 On ch=1 n=c#7 v=0
52388 On ch=1 n=c#6 v=15
52388 On ch=1 n=a#6 v=35
52418 On ch=1 n=a#6 v=0
52418 On ch=1 n=c#6 v=0
52428 On ch=1 n=c#7 v=47
52458 On ch=1 n=c#7 v=0
52468 On ch=1 n=c#6 v=27
52468 On ch=1 n=a#6 v=44
52498 On ch=1 n=a#6 v=0
52498 On ch=1 n=c#6 v=0
52508 On ch=1 n=c#7 v=47
52538 On ch=1 n=c#7 v=0
52548 On ch=1 n=a6 v=80
52548 On ch=1 n=c6 v=70
52578 On ch=1 n=c6 v=0
52578 On ch=1 n=a6 v=0
52588 On ch=1 n=c7 v=52
52618 On ch=1 n=c7 v=0
52628 On ch=1 n=a6 v=50
52628 On ch=1 n=c6 v=41
52658 On ch=1 n=c6 v=0
52658 On ch=1 n=a6 v=0
52668 On ch=1 n=c7 v=52
52698 On ch=1 n=c7 v=0
52708 On ch=1 n=a6 v=59
52708 On ch=1 n=c6 v=44
52738 On ch=1 n=c6 v=0
52738 On ch=1 n=a6 v=0
52748 On ch=1 n=c7 v=50
52778 On ch=1 n=c7 v=0
52788 On ch=1 n=f#6 v=68
52788 On ch=1 n=c7 v=75
52788 On ch=1 n=a6 v=67
52808 On ch=1 n=a6 v=0
52808 On ch=1 n=c7 v=0
52808 On ch=1 n=f#6 v=0
52818 On ch=1 n=f#7 v=74
52838 On ch=1 n=f#7 v=0
52848 On ch=1 n=f#6 v=58
52848 On ch=1 n=a6 v=62
52848 On ch=1 n=c7 v=67
52868 On ch=1 n=c7 v=0
52868 On ch=1 n=a6 v=0
52868 On ch=1 n=f#6 v=0
52878 On ch=1 n=f#7 v=74
52898 On ch=1 n=f#7 v=0
52908 On ch=1 n=f#6 v=55
52908 On ch=1 n=a6 v=56
52908 On ch=1 n=c7 v=67
52928 On ch=1 n=c7 v=0
52928 On ch=1 n=a6 v=0
52928 On ch=1 n=f#6 v=0
52938 On ch=1 n=f#7 v=68
52958 On ch=1 n=f#7 v=0
52968 On ch=1 n=c7 v=70
52968 On ch=1 n=a6 v=52
52968 On ch=1 n=f#6 v=50
52988 On ch=1 n=f#6 v=0
52988 On ch=1 n=a6 v=0
52988 On ch=1 n=c7 v=0
52998 On ch=1 n=f#7 v=63
53018 On ch=1 n=f#7 v=0
53028 On ch=1 n=f#6 v=63
53028 On ch=1 n=a6 v=59
53028 On ch=1 n=c7 v=70
53048 On ch=1 n=c7 v=0
53048 On ch=1 n=a6 v=0
53048 On ch=1 n=f#6 v=0
53058 On ch=1 n=f#7 v=74
53078 On ch=1 n=f#7 v=0
53088 On ch=1 n=f#6 v=47
53088 On ch=1 n=c7 v=67
53088 On ch=1 n=a6 v=47
53108 On ch=1 n=a6 v=0
53108 On ch=1 n=c7 v=0
53108 On ch=1 n=f#6 v=0
53118 On ch=1 n=f#7 v=68
53138 On ch=1 n=f#7 v=0
53148 On ch=1 n=f#6 v=50
53148 On ch=1 n=c7 v=70
53148 On ch=1 n=a6 v=52
53168 On ch=1 n=a6 v=0
53168 On ch=1 n=c7 v=0
53168 On ch=1 n=f#6 v=0
53178 On ch=1 n=f#7 v=68
53198 On ch=1 n=f#7 v=0
53208 On ch=1 n=f#6 v=47
53208 On ch=1 n=c7 v=67
53208 On ch=1 n=a6 v=52
53228 On ch=1 n=a6 v=0
53228 On ch=1 n=c7 v=0
53228 On ch=1 n=f#6 v=0
53238 On ch=1 n=f#7 v=74
53258 On ch=1 n=f#7 v=0
53268 On ch=1 n=f#6 v=63
53268 On ch=1 n=c7 v=70
53268 On ch=1 n=a6 v=62
53288 On ch=1 n=a6 v=0
53288 On ch=1 n=c7 v=0
53288 On ch=1 n=f#6 v=0
53298 On ch=1 n=f#7 v=74
53318 On ch=1 n=f#7 v=0
53328 On ch=1 n=c7 v=70
53328 On ch=1 n=f#6 v=44
53328 On ch=1 n=a6 v=56
53348 On ch=1 n=a6 v=0
53348 On ch=1 n=f#6 v=0
53348 On ch=1 n=c7 v=0
53358 On ch=1 n=f#7 v=68
53378 On ch=1 n=f#7 v=0
53388 On ch=1 n=f#6 v=44
53388 On ch=1 n=c7 v=59
53388 On ch=1 n=a6 v=52
53408 On ch=1 n=a6 v=0
53408 On ch=1 n=c7 v=0
53408 On ch=1 n=f#6 v=0
53418 On ch=1 n=f#7 v=74
53438 On ch=1 n=f#7 v=0
53448 On ch=1 n=f#6 v=58
53448 On ch=1 n=a6 v=56
53448 On ch=1 n=c7 v=62
53468 On ch=1 n=c7 v=0
53468 On ch=1 n=a6 v=0
53468 On ch=1 n=f#6 v=0
53478 On ch=1 n=f#7 v=58
53498 On ch=1 n=f#7 v=0
53508 On ch=1 n=f#6 v=63
53508 On ch=1 n=a6 v=67
53508 On ch=1 n=c7 v=75
53538 On ch=1 n=c7 v=0
53538 On ch=1 n=a6 v=0
53538 On ch=1 n=f#6 v=0
53548 On ch=1 n=f#7 v=55
53578 On ch=1 n=f#7 v=0
53588 On ch=1 n=f#6 v=32
53588 On ch=1 n=a6 v=36
53588 On ch=1 n=c7 v=44
53618 On ch=1 n=c7 v=0
53618 On ch=1 n=a6 v=0
53618 On ch=1 n=f#6 v=0
53628 On ch=1 n=f#7 v=58
53658 On ch=1 n=f#7 v=0
53668 On ch=1 n=c7 v=47
53668 On ch=1 n=f#6 v=15
53668 On ch=1 n=a6 v=25
53698 On ch=1 n=a6 v=0
53698 On ch=1 n=f#6 v=0
53698 On ch=1 n=c7 v=0
53708 On ch=1 n=f#7 v=47
53738 On ch=1 n=f#7 v=0
53748 On ch=1 n=f#6 v=68
53748 On ch=1 n=a6 v=70
53748 On ch=1 n=d7 v=75
53778 On ch=1 n=d7 v=0
53778 On ch=1 n=a6 v=0
53778 On ch=1 n=f#6 v=0
53788 On ch=1 n=f#7 v=63
53818 On ch=1 n=f#7 v=0
53828 On ch=1 n=a6 v=41
53828 On ch=1 n=f#6 v=20
53828 On ch=1 n=d7 v=47
53858 On ch=1 n=d7 v=0
53858 On ch=1 n=f#6 v=0
53858 On ch=1 n=a6 v=0
53868 On ch=1 n=f#7 v=58
53898 On ch=1 n=f#7 v=0
53908 On ch=1 n=a6 v=44
53908 On ch=1 n=d7 v=50
53908 On ch=1 n=f#6 v=27
53938 On ch=1 n=f#6 v=0
53938 On ch=1 n=d7 v=0
53938 On ch=1 n=a6 v=0
53948 On ch=1 n=f#7 v=50
53978 On ch=1 n=f#7 v=0
53988 On ch=1 n=f#6 v=74
53988 On ch=1 n=d#7 v=80
53988 On ch=1 n=a6 v=67
54018 On ch=1 n=a6 v=0
54018 On ch=1 n=d#7 v=0
54018 On ch=1 n=f#6 v=0
54028 On ch=1 n=f#7 v=58
54058 On ch=1 n=f#7 v=0
54068 On ch=1 n=a6 v=47
54068 On ch=1 n=d#7 v=50
54068 On ch=1 n=f#6 v=32
54098 On ch=1 n=f#6 v=0
54098 On ch=1 n=d#7 v=0
54098 On ch=1 n=a6 v=0
54108 On ch=1 n=f#7 v=47
54138 On ch=1 n=f#7 v=0
54148 On ch=1 n=a6 v=44
54148 On ch=1 n=d#7 v=58
54148 On ch=1 n=f#6 v=27
54178 On ch=1 n=f#6 v=0
54178 On ch=1 n=d#7 v=0
54178 On ch=1 n=a6 v=0
54188 On ch=1 n=f#7 v=58
54218 On ch=1 n=f#7 v=0
54228 On ch=1 n=b6 v=31
54228 On ch=1 n=g6 v=18
54248 On ch=1 n=g6 v=0
54248 On ch=1 n=b6 v=0
54268 On ch=1 n=g7 v=50
54308 On ch=1 n=g6 v=25
54308 On ch=1 n=b6 v=34
54328 On ch=1 n=b6 v=0
54328 On ch=1 n=g6 v=0
54348 On ch=1 n=g7 v=0
54348 On ch=1 n=g7 v=41
54388 On ch=1 n=g6 v=34
54388 On ch=1 n=b6 v=39
54403 On ch=1 n=g7 v=0
54408 On ch=1 n=b6 v=0
54408 On ch=1 n=g6 v=0
54428 On ch=1 n=g7 v=36
54448 On ch=1 n=g7 v=0
54468 On ch=1 n=d7 v=41
54468 On ch=1 n=f6 v=10
54488 On ch=1 n=f6 v=0
54488 On ch=1 n=d7 v=0
54503 On ch=1 n=f7 v=67
54548 On ch=1 n=d7 v=44
54548 On ch=1 n=f6 v=15
54548 On ch=1 n=g6 v=15
54568 On ch=1 n=g6 v=0
54568 On ch=1 n=f6 v=0
54568 On ch=1 n=d7 v=0
54588 On ch=1 n=f7 v=0
54588 On ch=1 n=f7 v=31
54628 On ch=1 n=f6 v=14
54628 On ch=1 n=d7 v=44
54628 On ch=1 n=g6 v=12
54630 On ch=1 n=f7 v=0
54648 On ch=1 n=g6 v=0
54648 On ch=1 n=d7 v=0
54648 On ch=1 n=f6 v=0
54668 On ch=1 n=f7 v=36
54688 On ch=1 n=f7 v=0
54708 On ch=1 n=g6 v=34
54708 On ch=1 n=d#6 v=22
54728 On ch=1 n=d#6 v=0
54728 On ch=1 n=g6 v=0
54748 On ch=1 n=d#7 v=68
54788 On ch=1 n=d#6 v=14
54788 On ch=1 n=g6 v=36
54808 On ch=1 n=g6 v=0
54808 On ch=1 n=d#6 v=0
54828 On ch=1 n=d#7 v=0
54828 On ch=1 n=d#7 v=44
54868 On ch=1 n=d#6 v=15
54868 On ch=1 n=g6 v=29
54888 On ch=1 n=g6 v=0
54888 On ch=1 n=d#6 v=0
54908 On ch=1 n=d#7 v=0
54908 On ch=1 n=d#7 v=40
54928 On ch=1 n=d#7 v=0
54948 On ch=1 n=c6 v=31
54948 On ch=1 n=d#6 v=40
54968 On ch=1 n=d#6 v=0
54968 On ch=1 n=c6 v=0
54988 On ch=1 n=c7 v=67
55028 On ch=1 n=c6 v=29
55028 On ch=1 n=d#6 v=38
55048 On ch=1 n=d#6 v=0
55048 On ch=1 n=c6 v=0
55068 On ch=1 n=c7 v=0
55068 On ch=1 n=c7 v=15
55108 On ch=1 n=d#6 v=35
55128 On ch=1 n=d#6 v=0
55148 On ch=1 n=c7 v=0
55148 On ch=1 n=c7 v=47
55168 On ch=1 n=c7 v=0
55188 On ch=1 n=d#6 v=32
55188 On ch=1 n=g6 v=32
55208 On ch=1 n=g6 v=0
55208 On ch=1 n=d#6 v=0
55228 On ch=1 n=d#7 v=68
55268 On ch=1 n=d#6 v=27
55268 On ch=1 n=g6 v=32
55288 On ch=1 n=g6 v=0
55288 On ch=1 n=d#6 v=0
55308 On ch=1 n=d#7 v=0
55308 On ch=1 n=d#7 v=10
55348 On ch=1 n=d#6 v=20
55348 On ch=1 n=g6 v=26
55368 On ch=1 n=g6 v=0
55368 On ch=1 n=d#6 v=0
55388 On ch=1 n=d#7 v=0
55388 On ch=1 n=d#7 v=38
55423 On ch=1 n=d#7 v=0
55428 On ch=1 n=c6 v=29
55428 On ch=1 n=d#6 v=50
55448 On ch=1 n=d#6 v=0
55448 On ch=1 n=c6 v=0
55463 On ch=1 n=c7 v=67
55508 On ch=1 n=d#6 v=40
55508 On ch=1 n=c6 v=21
55528 On ch=1 n=c6 v=0
55528 On ch=1 n=d#6 v=0
55548 On ch=1 n=c7 v=0
55548 On ch=1 n=c7 v=36
55588 On ch=1 n=c6 v=23
55588 On ch=1 n=d#6 v=35
55608 On ch=1 n=d#6 v=0
55608 On ch=1 n=c6 v=0
55628 On ch=1 n=c7 v=0
55628 On ch=1 n=c7 v=32
55648 On ch=1 n=c7 v=0
55668 On ch=1 n=f6 v=32
55668 On ch=1 n=a6 v=39
55688 On ch=1 n=a6 v=0
55688 On ch=1 n=f6 v=0
55708 On ch=1 n=f7 v=62
55748 On ch=1 n=f6 v=34
55748 On ch=1 n=a6 v=44
55768 On ch=1 n=a6 v=0
55768 On ch=1 n=f6 v=0
55788 On ch=1 n=f7 v=0
55788 On ch=1 n=f7 v=41
55828 On ch=1 n=f6 v=18
55828 On ch=1 n=a6 v=36
55848 On ch=1 n=a6 v=0
55848 On ch=1 n=f6 v=0
55868 On ch=1 n=f7 v=0
55868 On ch=1 n=f7 v=16
55888 On ch=1 n=f7 v=0
55908 On ch=1 n=d#6 v=38
55908 On ch=1 n=c7 v=39
55928 On ch=1 n=c7 v=0
55928 On ch=1 n=d#6 v=0
55948 On ch=1 n=d#7 v=68
55988 On ch=1 n=d#6 v=35
55988 On ch=1 n=c7 v=47
56008 On ch=1 n=c7 v=0
56008 On ch=1 n=d#6 v=0
56028 On ch=1 n=d#7 v=0
56028 On ch=1 n=d#7 v=55
56068 On ch=1 n=d#6 v=38
56068 On ch=1 n=c7 v=47
56088 On ch=1 n=c7 v=0
56088 On ch=1 n=d#6 v=0
56108 On ch=1 n=d#7 v=0
56108 On ch=1 n=d#7 v=32
56135 On ch=1 n=d#7 v=0
56145 On ch=1 n=d6 v=36
56145 On ch=1 n=f6 v=47
56165 On ch=1 n=f6 v=0
56165 On ch=1 n=d6 v=0
56185 On ch=1 n=d7 v=62
56225 On ch=1 n=d6 v=26
56225 On ch=1 n=f6 v=44
56245 On ch=1 n=f6 v=0
56245 On ch=1 n=d6 v=0
56265 On ch=1 n=d7 v=0
56265 On ch=1 n=d7 v=39
56305 On ch=1 n=d6 v=26
56305 On ch=1 n=f6 v=41
56325 On ch=1 n=f6 v=0
56325 On ch=1 n=d6 v=0
56345 On ch=1 n=d7 v=0
56345 On ch=1 n=d7 v=31
56375 On ch=1 n=d7 v=0
56385 On ch=1 n=a#5 v=29
56385 On ch=1 n=d6 v=34
56405 On ch=1 n=d6 v=0
56405 On ch=1 n=a#5 v=0
56425 On ch=1 n=a#6 v=74
56465 On ch=1 n=a#5 v=15
56465 On ch=1 n=d6 v=36
56485 On ch=1 n=d6 v=0
56485 On ch=1 n=a#5 v=0
56505 On ch=1 n=a#6 v=0
56505 On ch=1 n=a#6 v=50
56545 On ch=1 n=a#5 v=17
56545 On ch=1 n=d6 v=32
56565 On ch=1 n=d6 v=0
56565 On ch=1 n=a#5 v=0
56580 On ch=1 n=a#6 v=0
56585 On ch=1 n=a#6 v=47
56605 On ch=1 n=a#6 v=0
56625 On ch=1 n=f6 v=56
56625 On ch=1 n=d6 v=41
56645 On ch=1 n=d6 v=0
56645 On ch=1 n=f6 v=0
56665 On ch=1 n=d7 v=70
56705 On ch=1 n=d6 v=32
56705 On ch=1 n=f6 v=44
56725 On ch=1 n=f6 v=0
56725 On ch=1 n=d6 v=0
56745 On ch=1 n=d7 v=0
56745 On ch=1 n=d7 v=52
56785 On ch=1 n=f6 v=39
56785 On ch=1 n=d6 v=25
56805 On ch=1 n=d6 v=0
56805 On ch=1 n=f6 v=0
56825 On ch=1 n=d7 v=0
56825 On ch=1 n=d7 v=20
56845 On ch=1 n=d7 v=0
56865 On ch=1 n=a#5 v=29
56865 On ch=1 n=d6 v=41
56885 On ch=1 n=d6 v=0
56885 On ch=1 n=a#5 v=0
56905 On ch=1 n=a#6 v=74
56945 On ch=1 n=a#5 v=22
56945 On ch=1 n=d6 v=41
56965 On ch=1 n=d6 v=0
56965 On ch=1 n=a#5 v=0
56985 On ch=1 n=a#6 v=0
56985 On ch=1 n=a#6 v=50
57025 On ch=1 n=a#5 v=12
57025 On ch=1 n=d6 v=34
57045 On ch=1 n=d6 v=0
57045 On ch=1 n=a#5 v=0
57047 On ch=1 n=a#6 v=0
57065 On ch=1 n=a#6 v=50
57085 On ch=1 n=a#6 v=0
57105 On ch=1 n=g6 v=44
57105 On ch=1 n=d#6 v=29
57125 On ch=1 n=d#6 v=0
57125 On ch=1 n=g6 v=0
57145 On ch=1 n=d#7 v=80
57185 On ch=1 n=d#6 v=27
57185 On ch=1 n=g6 v=41
57205 On ch=1 n=g6 v=0
57205 On ch=1 n=d#6 v=0
57225 On ch=1 n=d#7 v=0
57225 On ch=1 n=d#7 v=20
57265 On ch=1 n=d#6 v=19
57265 On ch=1 n=g6 v=23
57285 On ch=1 n=g6 v=0
57285 On ch=1 n=d#6 v=0
57305 On ch=1 n=d#7 v=0
57305 On ch=1 n=d#7 v=44
57325 On ch=1 n=d#7 v=0
57345 On ch=1 n=d6 v=26
57345 On ch=1 n=a#6 v=40
57365 On ch=1 n=a#6 v=0
57365 On ch=1 n=d6 v=0
57385 On ch=1 n=d7 v=59
57425 On ch=1 n=d6 v=20
57425 On ch=1 n=a#6 v=35
57445 On ch=1 n=a#6 v=0
57445 On ch=1 n=d6 v=0
57465 On ch=1 n=d7 v=0
57465 On ch=1 n=d7 v=41
57505 On ch=1 n=d6 v=31
57505 On ch=1 n=a#6 v=44
57525 On ch=1 n=a#6 v=0
57525 On ch=1 n=d6 v=0
57545 On ch=1 n=d7 v=0
57545 On ch=1 n=d7 v=44
57565 On ch=1 n=d7 v=0
57585 On ch=1 n=c6 v=39
57585 On ch=1 n=d#6 v=47
57605 On ch=1 n=d#6 v=0
57605 On ch=1 n=c6 v=0
57625 On ch=1 n=c7 v=70
57665 On ch=1 n=c6 v=34
57665 On ch=1 n=d#6 v=35
57685 On ch=1 n=d#6 v=0
57685 On ch=1 n=c6 v=0
57705 On ch=1 n=c7 v=0
57705 On ch=1 n=c7 v=47
57745 On ch=1 n=c6 v=18
57745 On ch=1 n=d#6 v=38
57765 On ch=1 n=d#6 v=0
57765 On ch=1 n=c6 v=0
57785 On ch=1 n=c7 v=0
57785 On ch=1 n=c7 v=39
57805 On ch=1 n=c7 v=0
57825 On ch=1 n=a5 v=31
57825 On ch=1 n=c6 v=39
57845 On ch=1 n=c6 v=0
57845 On ch=1 n=a5 v=0
57865 On ch=1 n=a6 v=67
57905 On ch=1 n=a5 v=32
57905 On ch=1 n=c6 v=16
57925 On ch=1 n=c6 v=0
57925 On ch=1 n=a5 v=0
57945 On ch=1 n=a6 v=0
57945 On ch=1 n=a6 v=39
57985 On ch=1 n=a5 v=29
57985 On ch=1 n=c6 v=41
58005 On ch=1 n=c6 v=0
58005 On ch=1 n=a5 v=0
58025 On ch=1 n=a6 v=0
58025 On ch=1 n=a6 v=41
58045 On ch=1 n=a6 v=0
58065 On ch=1 n=c6 v=26
58065 On ch=1 n=d#6 v=44
58085 On ch=1 n=d#6 v=0
58085 On ch=1 n=c6 v=0
58105 On ch=1 n=c7 v=75
58145 On ch=1 n=c6 v=34
58145 On ch=1 n=d#6 v=44
58165 On ch=1 n=d#6 v=0
58165 On ch=1 n=c6 v=0
58185 On ch=1 n=c7 v=0
58185 On ch=1 n=c7 v=36
58225 On ch=1 n=c6 v=15
58225 On ch=1 n=d#6 v=35
58245 On ch=1 n=d#6 v=0
58245 On ch=1 n=c6 v=0
58265 On ch=1 n=c7 v=0
58265 On ch=1 n=c7 v=39
58285 On ch=1 n=c7 v=0
58305 On ch=1 n=a5 v=32
58305 On ch=1 n=c6 v=32
58325 On ch=1 n=c6 v=0
58325 On ch=1 n=a5 v=0
58345 On ch=1 n=a6 v=75
58385 On ch=1 n=a5 v=34
58385 On ch=1 n=c6 v=44
58405 On ch=1 n=c6 v=0
58405 On ch=1 n=a5 v=0
58425 On ch=1 n=a6 v=0
58425 On ch=1 n=a6 v=44
58465 On ch=1 n=a5 v=20
58465 On ch=1 n=c6 v=36
58485 On ch=1 n=c6 v=0
58485 On ch=1 n=a5 v=0
58505 On ch=1 n=a6 v=0
58505 On ch=1 n=a6 v=34
58525 On ch=1 n=a6 v=0
58545 On ch=1 n=d6 v=44
58545 On ch=1 n=f#6 v=44
58565 On ch=1 n=f#6 v=0
58565 On ch=1 n=d6 v=0
58585 On ch=1 n=d7 v=67
58625 On ch=1 n=d6 v=14
58625 On ch=1 n=f#6 v=32
58645 On ch=1 n=f#6 v=0
58645 On ch=1 n=d6 v=0
58665 On ch=1 n=d7 v=0
58665 On ch=1 n=d7 v=39
58705 On ch=1 n=d6 v=25
58705 On ch=1 n=f#6 v=38
58725 On ch=1 n=f#6 v=0
58725 On ch=1 n=d6 v=0
58740 On ch=1 n=d7 v=0
58745 On ch=1 n=d7 v=23
58765 On ch=1 n=d7 v=0
58785 On ch=1 n=a6 v=44
58785 On ch=1 n=c6 v=25
58805 On ch=1 n=c6 v=0
58805 On ch=1 n=a6 v=0
58825 On ch=1 n=c7 v=67
58865 On ch=1 n=c6 v=26
58865 On ch=1 n=a6 v=32
58885 On ch=1 n=a6 v=0
58885 On ch=1 n=c6 v=0
58905 On ch=1 n=c7 v=0
58905 On ch=1 n=c7 v=31
58945 On ch=1 n=c6 v=29
58945 On ch=1 n=a6 v=36
58965 On ch=1 n=a6 v=0
58965 On ch=1 n=c6 v=0
58985 On ch=1 n=c7 v=0
58985 On ch=1 n=c7 v=36
59005 On ch=1 n=c7 v=0
59025 On ch=1 n=a#5 v=29
59025 On ch=1 n=g6 v=50
59045 On ch=1 n=g6 v=0
59045 On ch=1 n=a#5 v=0
59065 On ch=1 n=a#6 v=80
59105 On ch=1 n=a#5 v=24
59105 On ch=1 n=g6 v=52
59125 On ch=1 n=g6 v=0
59125 On ch=1 n=a#5 v=0
59145 On ch=1 n=a#6 v=0
59145 On ch=1 n=a#6 v=44
59185 On ch=1 n=a#5 v=32
59185 On ch=1 n=g6 v=39
59205 On ch=1 n=g6 v=0
59205 On ch=1 n=a#5 v=0
59225 On ch=1 n=a#6 v=0
59225 On ch=1 n=a#6 v=47
59245 On ch=1 n=a#6 v=0
59265 On ch=1 n=d6 v=32
59265 On ch=1 n=a6 v=44
59285 On ch=1 n=a6 v=0
59285 On ch=1 n=d6 v=0
59305 On ch=1 n=d7 v=70
59345 On ch=1 n=d6 v=29
59345 On ch=1 n=a6 v=44
59365 On ch=1 n=a6 v=0
59365 On ch=1 n=d6 v=0
59385 On ch=1 n=d7 v=0
59385 On ch=1 n=d7 v=26
59425 On ch=1 n=d6 v=20
59425 On ch=1 n=a6 v=34
59445 On ch=1 n=a6 v=0
59445 On ch=1 n=d6 v=0
59465 On ch=1 n=d7 v=0
59465 On ch=1 n=d7 v=36
59485 On ch=1 n=d7 v=0
59505 On ch=1 n=d6 v=26
59505 On ch=1 n=g6 v=44
59525 On ch=1 n=g6 v=0
59525 On ch=1 n=d6 v=0
59545 On ch=1 n=d7 v=62
59585 On ch=1 n=d6 v=34
59585 On ch=1 n=g6 v=44
59605 On ch=1 n=g6 v=0
59605 On ch=1 n=d6 v=0
59625 On ch=1 n=d7 v=0
59625 On ch=1 n=d7 v=31
59665 On ch=1 n=d6 v=21
59665 On ch=1 n=g6 v=36
59685 On ch=1 n=g6 v=0
59685 On ch=1 n=d6 v=0
59705 On ch=1 n=d7 v=0
59705 On ch=1 n=d7 v=41
59725 On ch=1 n=d7 v=0
59745 On ch=1 n=c#6 v=29
59745 On ch=1 n=g6 v=36
59765 On ch=1 n=g6 v=0
59765 On ch=1 n=c#6 v=0
59785 On ch=1 n=c#7 v=74
59825 On ch=1 n=c#6 v=38
59825 On ch=1 n=g6 v=44
59845 On ch=1 n=g6 v=0
59845 On ch=1 n=c#6 v=0
59865 On ch=1 n=c#7 v=0
59865 On ch=1 n=c#7 v=44
59905 On ch=1 n=c#6 v=27
59905 On ch=1 n=g6 v=34
59925 On ch=1 n=g6 v=0
59925 On ch=1 n=c#6 v=0
59945 On ch=1 n=c#7 v=0
59945 On ch=1 n=c#7 v=47
59965 On ch=1 n=c#7 v=0
59985 On ch=1 n=f#6 v=54
59985 On ch=1 n=d6 v=44
60025 On ch=1 n=d6 v=0
60025 On ch=1 n=f#6 v=0
60025 On ch=1 n=d7 v=40
60065 On ch=1 n=d7 v=0
60065 On ch=1 n=d6 v=24
60105 On ch=1 n=d6 v=0
60105 On ch=1 n=d7 v=37
60145 On ch=1 n=d7 v=0
60145 On ch=1 n=d6 v=27
60185 On ch=1 n=d6 v=0
60185 On ch=1 n=d7 v=35
60225 On ch=1 n=d7 v=0
60225 On ch=1 n=d6 v=25
60265 On ch=1 n=d6 v=0
60265 On ch=1 n=d7 v=31
60305 On ch=1 n=d7 v=0
60305 On ch=1 n=d6 v=27
60345 On ch=1 n=d6 v=0
60345 On ch=1 n=d7 v=32
60385 On ch=1 n=d7 v=0
60385 On ch=1 n=d6 v=32
60425 On ch=1 n=d6 v=0
60425 On ch=1 n=d7 v=37
60465 On ch=1 n=d7 v=0
60465 On ch=1 n=d6 v=37
60505 On ch=1 n=d6 v=0
60505 On ch=1 n=d7 v=41
60545 On ch=1 n=d7 v=0
60545 On ch=1 n=d6 v=37
60585 On ch=1 n=d6 v=0
60585 On ch=1 n=d7 v=35
60625 On ch=1 n=d7 v=0
60625 On ch=1 n=d6 v=32
60665 On ch=1 n=d6 v=0
60665 On ch=1 n=d7 v=28
60705 On ch=1 n=d7 v=0
60745 On ch=1 n=d7 v=37
60785 On ch=1 n=d7 v=0
60785 On ch=1 n=d6 v=24
60825 On ch=1 n=d6 v=0
60825 On ch=1 n=d7 v=40
60865 On ch=1 n=d7 v=0
60865 On ch=1 n=d6 v=25
60905 On ch=1 n=d6 v=0
60905 On ch=1 n=d7 v=40
60945 On ch=1 n=d7 v=0
60985 On ch=1 n=c7 v=40
61025 On ch=1 n=c7 v=0
61025 On ch=1 n=c6 v=25
61065 On ch=1 n=c6 v=0
61065 On ch=1 n=c7 v=32
61105 On ch=1 n=c7 v=0
61105 On ch=1 n=c6 v=31
61145 On ch=1 n=c6 v=0
61145 On ch=1 n=c7 v=40
61185 On ch=1 n=c7 v=0
61225 On ch=1 n=a#6 v=44
61265 On ch=1 n=a#6 v=0
61265 On ch=1 n=a#5 v=32
61305 On ch=1 n=a#5 v=0
61305 On ch=1 n=a#6 v=40
61345 On ch=1 n=a#6 v=0
61345 On ch=1 n=a#5 v=12
61385 On ch=1 n=a#5 v=0
61385 On ch=1 n=a#6 v=40
61425 On ch=1 n=a#6 v=0
61465 On ch=1 n=a6 v=35
61505 On ch=1 n=a6 v=0
61505 On ch=1 n=a5 v=25
61545 On ch=1 n=a5 v=0
61545 On ch=1 n=a6 v=35
61585 On ch=1 n=a6 v=0
61585 On ch=1 n=a5 v=32
61625 On ch=1 n=a5 v=0
61625 On ch=1 n=a6 v=28
61665 On ch=1 n=a6 v=0
61705 On ch=1 n=g6 v=37
61745 On ch=1 n=g6 v=0
61745 On ch=1 n=g5 v=32
61785 On ch=1 n=g5 v=0
61785 On ch=1 n=g6 v=37
61825 On ch=1 n=g6 v=0
61825 On ch=1 n=g5 v=32
61865 On ch=1 n=g5 v=0
61865 On ch=1 n=g6 v=44
61905 On ch=1 n=g6 v=0
61945 On ch=1 n=f#6 v=40
61985 On ch=1 n=f#6 v=0
61985 On ch=1 n=f#5 v=23
62025 On ch=1 n=f#5 v=0
62025 On ch=1 n=f#6 v=37
62065 On ch=1 n=f#6 v=0
62065 On ch=1 n=f#5 v=32
62105 On ch=1 n=f#5 v=0
62105 On ch=1 n=f#6 v=44
62145 On ch=1 n=f#6 v=0
62185 On ch=1 n=d#6 v=40
62225 On ch=1 n=d#6 v=0
62225 On ch=1 n=d#5 v=28
62265 On ch=1 n=d#5 v=0
62265 On ch=1 n=d#6 v=46
62305 On ch=1 n=d#6 v=0
62305 On ch=1 n=d#5 v=40
62345 On ch=1 n=d#5 v=0
62345 On ch=1 n=d#6 v=35
62385 On ch=1 n=d#6 v=0
62425 On ch=1 n=d6 v=40
62465 On ch=1 n=d6 v=0
62465 On ch=1 n=d5 v=20
62505 On ch=1 n=d5 v=0
62505 On ch=1 n=d6 v=40
62545 On ch=1 n=d6 v=0
62545 On ch=1 n=d5 v=25
62585 On ch=1 n=d5 v=0
62585 On ch=1 n=d6 v=37
62625 On ch=1 n=d6 v=0
62665 On ch=1 n=a#5 v=37
62665 On ch=1 n=d5 v=23
62705 On ch=1 n=d5 v=0
62705 On ch=1 n=a#5 v=0
62705 On ch=1 n=a#4 v=32
62745 On ch=1 n=a#4 v=0
62745 On ch=1 n=a#5 v=30
62745 On ch=1 n=d5 v=24
62785 On ch=1 n=d5 v=0
62785 On ch=1 n=a#5 v=0
62785 On ch=1 n=a#4 v=21
62825 On ch=1 n=a#4 v=0
62825 On ch=1 n=a#5 v=21
62825 On ch=1 n=d5 v=25
62865 On ch=1 n=d5 v=0
62865 On ch=1 n=a#5 v=0
62905 On ch=1 n=a5 v=37
62905 On ch=1 n=d5 v=25
62945 On ch=1 n=d5 v=0
62945 On ch=1 n=a5 v=0
62945 On ch=1 n=a4 v=31
62985 On ch=1 n=a4 v=0
62985 On ch=1 n=a5 v=37
62985 On ch=1 n=d5 v=28
63025 On ch=1 n=d5 v=0
63025 On ch=1 n=a5 v=0
63025 On ch=1 n=a4 v=31
63065 On ch=1 n=a4 v=0
63065 On ch=1 n=a5 v=37
63065 On ch=1 n=d5 v=25
63105 On ch=1 n=d5 v=0
63105 On ch=1 n=a5 v=0
63145 On ch=1 n=g5 v=41
63145 On ch=1 n=d5 v=31
63185 On ch=1 n=d5 v=0
63185 On ch=1 n=g5 v=0
63185 On ch=1 n=g4 v=28
63225 On ch=1 n=g4 v=0
63225 On ch=1 n=g5 v=28
63225 On ch=1 n=d5 v=28
63265 On ch=1 n=d5 v=0
63265 On ch=1 n=g5 v=0
63265 On ch=1 n=g4 v=31
63305 On ch=1 n=g4 v=0
63305 On ch=1 n=g5 v=31
63305 On ch=1 n=d5 v=24
63345 On ch=1 n=d5 v=0
63345 On ch=1 n=g5 v=0
63385 On ch=1 n=f#5 v=44
63385 On ch=1 n=d5 v=44
63425 On ch=1 n=d5 v=0
63425 On ch=1 n=f#5 v=0
63425 On ch=1 n=f#4 v=37
63465 On ch=1 n=f#4 v=0
63465 On ch=1 n=f#5 v=28
63465 On ch=1 n=d5 v=23
63505 On ch=1 n=d5 v=0
63505 On ch=1 n=f#5 v=0
63505 On ch=1 n=f#4 v=23
63545 On ch=1 n=f#4 v=0
63545 On ch=1 n=f#5 v=28
63545 On ch=1 n=d5 v=28
63585 On ch=1 n=d5 v=0
63585 On ch=1 n=f#5 v=0
63625 On ch=1 n=d#5 v=37
63625 On ch=1 n=f#4 v=44
63625 On ch=1 n=a4 v=25
63665 On ch=1 n=a4 v=0
63665 On ch=1 n=f#4 v=0
63665 On ch=1 n=d#5 v=0
63665 On ch=1 n=d#4 v=40
63705 On ch=1 n=d#4 v=0
63705 On ch=1 n=d#5 v=37
63705 On ch=1 n=f#4 v=37
63745 On ch=1 n=f#4 v=0
63745 On ch=1 n=d#5 v=0
63745 On ch=1 n=d#4 v=37
63785 On ch=1 n=d#4 v=0
63785 On ch=1 n=d#5 v=28
63785 On ch=1 n=f#4 v=35
63785 On ch=1 n=a4 v=20
63825 On ch=1 n=a4 v=0
63825 On ch=1 n=f#4 v=0
63825 On ch=1 n=d#5 v=0
63865 On ch=1 n=d5 v=28
63865 On ch=1 n=a#4 v=28
63865 On ch=1 n=g4 v=23
63905 On ch=1 n=g4 v=0
63905 On ch=1 n=a#4 v=0
63905 On ch=1 n=d5 v=0
63905 On ch=1 n=d4 v=23
63945 On ch=1 n=d4 v=0
63945 On ch=1 n=a#4 v=32
63945 On ch=1 n=d5 v=28
63945 On ch=1 n=g4 v=12
63985 On ch=1 n=g4 v=0
63985 On ch=1 n=d5 v=0
63985 On ch=1 n=a#4 v=0
63985 On ch=1 n=d4 v=31
64025 On ch=1 n=d4 v=0
64025 On ch=1 n=a#4 v=35
64025 On ch=1 n=d5 v=35
64025 On ch=1 n=g4 v=27
64065 On ch=1 n=g4 v=0
64065 On ch=1 n=d5 v=0
64065 On ch=1 n=a#4 v=0
64105 On ch=1 n=d5 v=28
64105 On ch=1 n=f#4 v=40
64105 On ch=1 n=c5 v=35
64145 On ch=1 n=c5 v=0
64145 On ch=1 n=f#4 v=0
64145 On ch=1 n=d5 v=0
64145 On ch=1 n=d4 v=37
64185 On ch=1 n=d4 v=0
64185 On ch=1 n=d5 v=24
64185 On ch=1 n=c5 v=31
64185 On ch=1 n=f#4 v=35
64225 On ch=1 n=f#4 v=0
64225 On ch=1 n=c5 v=0
64225 On ch=1 n=d5 v=0
64225 On ch=1 n=d4 v=32
64265 On ch=1 n=d4 v=0
64265 On ch=1 n=f#4 v=32
64265 On ch=1 n=d5 v=20
64265 On ch=1 n=c5 v=32
64305 On ch=1 n=c5 v=0
64305 On ch=1 n=d5 v=0
64305 On ch=1 n=f#4 v=0
64545 On ch=1 n=a#5 v=40
64575 On ch=1 n=a#5 v=0
64585 On ch=1 n=d7 v=36
64615 On ch=1 n=d7 v=0
64625 On ch=1 n=d6 v=41
64655 On ch=1 n=d6 v=0
64665 On ch=1 n=d7 v=41
64695 On ch=1 n=d7 v=0
64705 On ch=1 n=g6 v=44
64735 On ch=1 n=g6 v=0
64745 On ch=1 n=d7 v=50
64775 On ch=1 n=d7 v=0
64785 On ch=1 n=a#6 v=47
64815 On ch=1 n=a#6 v=0
64825 On ch=1 n=d7 v=29
64855 On ch=1 n=d7 v=0
64865 On ch=1 n=g6 v=41
64895 On ch=1 n=g6 v=0
64905 On ch=1 n=d7 v=41
64935 On ch=1 n=d7 v=0
64945 On ch=1 n=d6 v=50
64975 On ch=1 n=d6 v=0
64985 On ch=1 n=d7 v=52
65015 On ch=1 n=d7 v=0
65025 On ch=1 n=d#6 v=47
65055 On ch=1 n=d#6 v=0
65065 On ch=1 n=g7 v=44
65095 On ch=1 n=g7 v=0
65105 On ch=1 n=g6 v=36
65135 On ch=1 n=g6 v=0
65145 On ch=1 n=g7 v=47
65175 On ch=1 n=g7 v=0
65185 On ch=1 n=d#7 v=47
65215 On ch=1 n=d#7 v=0
65225 On ch=1 n=g7 v=34
65255 On ch=1 n=g7 v=0
65265 On ch=1 n=d6 v=59
65295 On ch=1 n=d6 v=0
65305 On ch=1 n=f#7 v=35
65335 On ch=1 n=f#7 v=0
65345 On ch=1 n=f#6 v=40
65375 On ch=1 n=f#6 v=0
65385 On ch=1 n=f#7 v=55
65415 On ch=1 n=f#7 v=0
65425 On ch=1 n=d7 v=44
65455 On ch=1 n=d7 v=0
65465 On ch=1 n=f#7 v=50
65495 On ch=1 n=f#7 v=0
65505 On ch=1 n=c6 v=34
65535 On ch=1 n=c6 v=0
65545 On ch=1 n=d#7 v=40
65575 On ch=1 n=d#7 v=0
65585 On ch=1 n=d#6 v=44
65615 On ch=1 n=d#6 v=0
65625 On ch=1 n=d#7 v=27
65655 On ch=1 n=d#7 v=0
65665 On ch=1 n=g6 v=41
65695 On ch=1 n=g6 v=0
65705 On ch=1 n=d#7 v=44
65735 On ch=1 n=d#7 v=0
65745 On ch=1 n=a#5 v=17
65775 On ch=1 n=a#5 v=0
65785 On ch=1 n=d7 v=29
65815 On ch=1 n=d7 v=0
65825 On ch=1 n=d6 v=23
65855 On ch=1 n=d6 v=0
65865 On ch=1 n=d7 v=21
65895 On ch=1 n=d7 v=0
65905 On ch=1 n=g6 v=28
65935 On ch=1 n=g6 v=0
65945 On ch=1 n=d7 v=19
65975 On ch=1 n=d7 v=0
65985 On ch=1 n=a#6 v=23
66015 On ch=1 n=a#6 v=0
66025 On ch=1 n=d7 v=23
66055 On ch=1 n=d7 v=0
66065 On ch=1 n=g6 v=23
66095 On ch=1 n=g6 v=0
66105 On ch=1 n=d7 v=26
66135 On ch=1 n=d7 v=0
66145 On ch=1 n=d6 v=19
66175 On ch=1 n=d6 v=0
66185 On ch=1 n=d7 v=23
66215 On ch=1 n=d7 v=0
66225 On ch=1 n=a#5 v=26
66255 On ch=1 n=a#5 v=0
66265 On ch=1 n=d7 v=26
66295 On ch=1 n=d7 v=0
66305 On ch=1 n=d6 v=26
66335 On ch=1 n=d6 v=0
66345 On ch=1 n=d7 v=17
66375 On ch=1 n=d7 v=0
66385 On ch=1 n=g6 v=21
66415 On ch=1 n=g6 v=0
66425 On ch=1 n=d7 v=19
66455 On ch=1 n=d7 v=0
66465 On ch=1 n=a5 v=35
66495 On ch=1 n=a5 v=0
66505 On ch=1 n=d7 v=26
66535 On ch=1 n=d7 v=0
66545 On ch=1 n=d6 v=21
66575 On ch=1 n=d6 v=0
66585 On ch=1 n=d7 v=28
66615 On ch=1 n=d7 v=0
66625 On ch=1 n=f6 v=23
66655 On ch=1 n=f6 v=0
66665 On ch=1 n=d7 v=26
66695 On ch=1 n=d7 v=0
66705 On ch=1 n=g5 v=31
66735 On ch=1 n=g5 v=0
66745 On ch=1 n=c7 v=21
66775 On ch=1 n=c7 v=0
66785 On ch=1 n=c6 v=11
66815 On ch=1 n=c6 v=0
66825 On ch=1 n=c7 v=29
66855 On ch=1 n=c7 v=0
66865 On ch=1 n=d#6 v=26
66895 On ch=1 n=d#6 v=0
66905 On ch=1 n=c7 v=21
66935 On ch=1 n=c7 v=0
66945 On ch=1 n=f5 v=31
66975 On ch=1 n=f5 v=0
66985 On ch=1 n=a#6 v=18
67015 On ch=1 n=a#6 v=0
67025 On ch=1 n=a#5 v=17
67055 On ch=1 n=a#5 v=0
67065 On ch=1 n=a#6 v=15
67095 On ch=1 n=a#6 v=0
67105 On ch=1 n=d6 v=29
67135 On ch=1 n=d6 v=0
67145 On ch=1 n=a#6 v=6
67175 On ch=1 n=a#6 v=0
67185 On ch=1 n=d#5 v=28
67215 On ch=1 n=d#5 v=0
67225 On ch=1 n=a6 v=26
67255 On ch=1 n=a6 v=0
67265 On ch=1 n=a5 v=26
67295 On ch=1 n=a5 v=0
67305 On ch=1 n=a6 v=28
67335 On ch=1 n=a6 v=0
67345 On ch=1 n=c6 v=35
67375 On ch=1 n=c6 v=0
67385 On ch=1 n=a6 v=23
67415 On ch=1 n=a6 v=0
67425 On ch=1 n=d#6 v=34
67455 On ch=1 n=d#6 v=0
67465 On ch=1 n=a6 v=28
67495 On ch=1 n=a6 v=0
67505 On ch=1 n=c6 v=33
67535 On ch=1 n=c6 v=0
67545 On ch=1 n=a6 v=29
67575 On ch=1 n=a6 v=0
67585 On ch=1 n=a5 v=31
67615 On ch=1 n=a5 v=0
67625 On ch=1 n=a6 v=29
67655 On ch=1 n=a6 v=0
67665 On ch=1 n=d#5 v=23
67695 On ch=1 n=d#5 v=0
67705 On ch=1 n=a6 v=23
67735 On ch=1 n=a6 v=0
67745 On ch=1 n=a5 v=28
67775 On ch=1 n=a5 v=0
67785 On ch=1 n=a6 v=19
67815 On ch=1 n=a6 v=0
67825 On ch=1 n=c6 v=29
67855 On ch=1 n=c6 v=0
67865 On ch=1 n=a6 v=18
67895 On ch=1 n=a6 v=0
67905 On ch=1 n=a5 v=29
67935 On ch=1 n=a5 v=0
67945 On ch=1 n=c7 v=26
67975 On ch=1 n=c7 v=0
67985 On ch=1 n=c6 v=29
68015 On ch=1 n=c6 v=0
68025 On ch=1 n=c7 v=33
68055 On ch=1 n=c7 v=0
68065 On ch=1 n=d#6 v=29
68095 On ch=1 n=d#6 v=0
68105 On ch=1 n=c7 v=18
68135 On ch=1 n=c7 v=0
68145 On ch=1 n=d#5 v=34
68175 On ch=1 n=d#5 v=0
68185 On ch=1 n=a6 v=11
68215 On ch=1 n=a6 v=0
68225 On ch=1 n=a5 v=21
68255 On ch=1 n=a5 v=0
68265 On ch=1 n=a6 v=9
68295 On ch=1 n=a6 v=0
68305 On ch=1 n=c6 v=31
68335 On ch=1 n=c6 v=0
68345 On ch=1 n=a6 v=29
68375 On ch=1 n=a6 v=0
68385 On ch=1 n=e5 v=36
68415 On ch=1 n=e5 v=0
68425 On ch=1 n=g6 v=28
68455 On ch=1 n=g6 v=0
68465 On ch=1 n=a#5 v=33
68495 On ch=1 n=a#5 v=0
68505 On ch=1 n=g6 v=26
68535 On ch=1 n=g6 v=0
68545 On ch=1 n=e6 v=23
68575 On ch=1 n=e6 v=0
68585 On ch=1 n=g6 v=21
68615 On ch=1 n=g6 v=0
68625 On ch=1 n=g5 v=28
68655 On ch=1 n=g5 v=0
68665 On ch=1 n=a#6 v=17
68695 On ch=1 n=a#6 v=0
68705 On ch=1 n=a#5 v=23
68735 On ch=1 n=a#5 v=0
68745 On ch=1 n=a#6 v=22
68775 On ch=1 n=a#6 v=0
68785 On ch=1 n=d6 v=21
68815 On ch=1 n=d6 v=0
68825 On ch=1 n=a#6 v=26
68855 On ch=1 n=a#6 v=0
68865 On ch=1 n=g6 v=26
68895 On ch=1 n=g6 v=0
68905 On ch=1 n=a#6 v=23
68935 On ch=1 n=a#6 v=0
68945 On ch=1 n=d6 v=28
68975 On ch=1 n=d6 v=0
68985 On ch=1 n=a#6 v=22
69015 On ch=1 n=a#6 v=0
69025 On ch=1 n=a#5 v=20
69055 On ch=1 n=a#5 v=0
69065 On ch=1 n=a#6 v=22
69095 On ch=1 n=a#6 v=0
69105 On ch=1 n=f#5 v=34
69135 On ch=1 n=f#5 v=0
69145 On ch=1 n=a6 v=23
69175 On ch=1 n=a6 v=0
69185 On ch=1 n=a5 v=31
69215 On ch=1 n=a5 v=0
69225 On ch=1 n=a6 v=23
69255 On ch=1 n=a6 v=0
69265 On ch=1 n=d6 v=33
69295 On ch=1 n=d6 v=0
69305 On ch=1 n=a6 v=23
69335 On ch=1 n=a6 v=0
69345 On ch=1 n=f#5 v=38
69375 On ch=1 n=f#5 v=0
69385 On ch=1 n=a6 v=21
69415 On ch=1 n=a6 v=0
69425 On ch=1 n=a5 v=31
69455 On ch=1 n=a5 v=0
69465 On ch=1 n=a6 v=23
69495 On ch=1 n=a6 v=0
69505 On ch=1 n=d#6 v=29
69535 On ch=1 n=d#6 v=0
69545 On ch=1 n=a6 v=21
69575 On ch=1 n=a6 v=0
69585 On ch=1 n=g5 v=33
69615 On ch=1 n=g5 v=0
69625 On ch=1 n=g6 v=26
69655 On ch=1 n=g6 v=0
69665 On ch=1 n=a#5 v=29
69695 On ch=1 n=a#5 v=0
69705 On ch=1 n=g6 v=23
69735 On ch=1 n=g6 v=0
69745 On ch=1 n=d6 v=29
69775 On ch=1 n=d6 v=0
69785 On ch=1 n=g6 v=26
69815 On ch=1 n=g6 v=0
69825 On ch=1 n=f#5 v=28
69855 On ch=1 n=f#5 v=0
69865 On ch=1 n=f#6 v=22
69895 On ch=1 n=f#6 v=0
69905 On ch=1 n=a5 v=29
69935 On ch=1 n=a5 v=0
69945 On ch=1 n=f#6 v=26
69975 On ch=1 n=f#6 v=0
69985 On ch=1 n=d6 v=29
70015 On ch=1 n=d6 v=0
70025 On ch=1 n=f#6 v=26
70055 On ch=1 n=f#6 v=0
70065 On ch=1 n=f5 v=33
70095 On ch=1 n=f5 v=0
70105 On ch=1 n=f6 v=23
70135 On ch=1 n=f6 v=0
70145 On ch=1 n=g#5 v=26
70175 On ch=1 n=g#5 v=0
70185 On ch=1 n=f6 v=28
70215 On ch=1 n=f6 v=0
70225 On ch=1 n=b5 v=28
70255 On ch=1 n=b5 v=0
70265 On ch=1 n=f6 v=21
70295 On ch=1 n=f6 v=0
70305 On ch=1 n=d6 v=28
70335 On ch=1 n=d6 v=0
70345 On ch=1 n=f6 v=26
70375 On ch=1 n=f6 v=0
70385 On ch=1 n=b5 v=18
70415 On ch=1 n=b5 v=0
70425 On ch=1 n=f6 v=26
70455 On ch=1 n=f6 v=0
70465 On ch=1 n=g#5 v=28
70495 On ch=1 n=g#5 v=0
70505 On ch=1 n=f6 v=21
70535 On ch=1 n=f6 v=0
70545 On ch=1 n=e5 v=34
70575 On ch=1 n=e5 v=0
70585 On ch=1 n=e6 v=23
70615 On ch=1 n=e6 v=0
70625 On ch=1 n=g5 v=29
70655 On ch=1 n=g5 v=0
70665 On ch=1 n=e6 v=31
70695 On ch=1 n=e6 v=0
70705 On ch=1 n=c6 v=23
70735 On ch=1 n=c6 v=0
70745 On ch=1 n=e6 v=10
70775 On ch=1 n=e6 v=0
70785 On ch=1 n=d#5 v=29
70815 On ch=1 n=d#5 v=0
70825 On ch=1 n=d#6 v=22
70855 On ch=1 n=d#6 v=0
70865 On ch=1 n=g5 v=28
70895 On ch=1 n=g5 v=0
70905 On ch=1 n=d#6 v=26
70935 On ch=1 n=d#6 v=0
70945 On ch=1 n=c6 v=28
70975 On ch=1 n=c6 v=0
70985 On ch=1 n=d#6 v=20
71015 On ch=1 n=d#6 v=0
71025 On ch=1 n=d5 v=29
71055 On ch=1 n=d5 v=0
71065 On ch=1 n=d6 v=26
71095 On ch=1 n=d6 v=0
71105 On ch=1 n=g5 v=29
71135 On ch=1 n=g5 v=0
71145 On ch=1 n=d6 v=23
71175 On ch=1 n=d6 v=0
71185 On ch=1 n=a#5 v=23
71215 On ch=1 n=a#5 v=0
71225 On ch=1 n=d6 v=23
71255 On ch=1 n=d6 v=0
71265 On ch=1 n=d#5 v=38
71295 On ch=1 n=d#5 v=0
71305 On ch=1 n=d#6 v=28
71335 On ch=1 n=d#6 v=0
71345 On ch=1 n=g5 v=35
71375 On ch=1 n=g5 v=0
71385 On ch=1 n=d#6 v=26
71415 On ch=1 n=d#6 v=0
71425 On ch=1 n=c6 v=29
71455 On ch=1 n=c6 v=0
71465 On ch=1 n=d#6 v=22
71495 On ch=1 n=d#6 v=0
71505 On ch=1 n=d#5 v=34
71535 On ch=1 n=d#5 v=0
71545 On ch=1 n=d#6 v=18
71575 On ch=1 n=d#6 v=0
71585 On ch=1 n=g5 v=31
71615 On ch=1 n=g5 v=0
71625 On ch=1 n=d#6 v=22
71655 On ch=1 n=d#6 v=0
71665 On ch=1 n=g#5 v=26
71695 On ch=1 n=g#5 v=0
71705 On ch=1 n=d#6 v=17
71735 On ch=1 n=d#6 v=0
71745 On ch=1 n=c6 v=26
71775 On ch=1 n=c6 v=0
71785 On ch=1 n=d#6 v=26
71815 On ch=1 n=d#6 v=0
71825 On ch=1 n=g5 v=26
71855 On ch=1 n=g5 v=0
71865 On ch=1 n=d#6 v=22
71895 On ch=1 n=d#6 v=0
71905 On ch=1 n=g#5 v=33
71935 On ch=1 n=g#5 v=0
71945 On ch=1 n=d#6 v=20
71975 On ch=1 n=d#6 v=0
71985 On ch=1 n=d#5 v=33
72015 On ch=1 n=d#5 v=0
72025 On ch=1 n=d#6 v=28
72055 On ch=1 n=d#6 v=0
72065 On ch=1 n=g#5 v=22
72095 On ch=1 n=g#5 v=0
72105 On ch=1 n=d#6 v=28
72135 On ch=1 n=d#6 v=0
72145 On ch=1 n=a5 v=29
72175 On ch=1 n=a5 v=0
72185 On ch=1 n=d#6 v=22
72215 On ch=1 n=d#6 v=0
72225 On ch=1 n=c6 v=29
72255 On ch=1 n=c6 v=0
72265 On ch=1 n=d#6 v=29
72295 On ch=1 n=d#6 v=0
72305 On ch=1 n=g#5 v=33
72335 On ch=1 n=g#5 v=0
72345 On ch=1 n=d#6 v=26
72375 On ch=1 n=d#6 v=0
72385 On ch=1 n=a5 v=28
72415 On ch=1 n=a5 v=0
72425 On ch=1 n=d#6 v=22
72455 On ch=1 n=d#6 v=0
72465 On ch=1 n=d5 v=28
72495 On ch=1 n=d5 v=0
72505 On ch=1 n=d6 v=28
72535 On ch=1 n=d6 v=0
72545 On ch=1 n=a5 v=31
72575 On ch=1 n=a5 v=0
72585 On ch=1 n=d6 v=23
72615 On ch=1 n=d6 v=0
72625 On ch=1 n=a#5 v=28
72655 On ch=1 n=a#5 v=0
72665 On ch=1 n=d6 v=28
72695 On ch=1 n=d6 v=0
72705 On ch=1 n=b5 v=31
72735 On ch=1 n=b5 v=0
72745 On ch=1 n=d6 v=29
72775 On ch=1 n=d6 v=0
72785 On ch=1 n=g5 v=29
72815 On ch=1 n=g5 v=0
72825 On ch=1 n=d6 v=26
72855 On ch=1 n=d6 v=0
72865 On ch=1 n=g#5 v=33
72895 On ch=1 n=g#5 v=0
72905 On ch=1 n=d6 v=23
72935 On ch=1 n=d6 v=0
72945 On ch=1 n=d5 v=35
72975 On ch=1 n=d5 v=0
72985 On ch=1 n=d6 v=28
73015 On ch=1 n=d6 v=0
73025 On ch=1 n=g5 v=28
73055 On ch=1 n=g5 v=0
73065 On ch=1 n=d6 v=26
73095 On ch=1 n=d6 v=0
73105 On ch=1 n=a5 v=23
73135 On ch=1 n=a5 v=0
73145 On ch=1 n=d6 v=28
73175 On ch=1 n=d6 v=0
73185 On ch=1 n=a#5 v=33
73215 On ch=1 n=a#5 v=0
73225 On ch=1 n=c#6 v=22
73255 On ch=1 n=c#6 v=0
73265 On ch=1 n=f#5 v=33
73295 On ch=1 n=f#5 v=0
73305 On ch=1 n=c#6 v=26
73335 On ch=1 n=c#6 v=0
73345 On ch=1 n=g5 v=31
73375 On ch=1 n=g5 v=0
73385 On ch=1 n=c#6 v=23
73415 On ch=1 n=c#6 v=0
73425 On ch=1 n=d5 v=26
73455 On ch=1 n=d5 v=0
73465 On ch=1 n=d6 v=23
73495 On ch=1 n=d6 v=0
73505 On ch=1 n=f#5 v=33
73535 On ch=1 n=f#5 v=0
73545 On ch=1 n=d6 v=28
73575 On ch=1 n=d6 v=0
73585 On ch=1 n=g5 v=29
73615 On ch=1 n=g5 v=0
73625 On ch=1 n=d6 v=23
73655 On ch=1 n=d6 v=0
73665 On ch=1 n=a#4 v=29
73695 On ch=1 n=a#4 v=0
73705 On ch=1 n=a#5 v=23
73735 On ch=1 n=a#5 v=0
73745 On ch=1 n=c5 v=26
73775 On ch=1 n=c5 v=0
73785 On ch=1 n=a#5 v=26
73815 On ch=1 n=a#5 v=0
73825 On ch=1 n=d5 v=33
73855 On ch=1 n=d5 v=0
73865 On ch=1 n=a#5 v=18
73895 On ch=1 n=a#5 v=0
73905 On ch=1 n=c5 v=35
73935 On ch=1 n=c5 v=0
73945 On ch=1 n=c6 v=26
73975 On ch=1 n=c6 v=0
73985 On ch=1 n=d#5 v=34
74015 On ch=1 n=d#5 v=0
74025 On ch=1 n=c6 v=29
74055 On ch=1 n=c6 v=0
74065 On ch=1 n=d5 v=35
74095 On ch=1 n=d5 v=0
74105 On ch=1 n=c6 v=28
74135 On ch=1 n=c6 v=0
74145 On ch=1 n=a4 v=33
74175 On ch=1 n=a4 v=0
74185 On ch=1 n=a5 v=23
74215 On ch=1 n=a5 v=0
74225 On ch=1 n=d#5 v=33
74255 On ch=1 n=d#5 v=0
74265 On ch=1 n=a5 v=21
74295 On ch=1 n=a5 v=0
74305 On ch=1 n=d5 v=28
74335 On ch=1 n=d5 v=0
74345 On ch=1 n=a5 v=26
74375 On ch=1 n=a5 v=0
74400 Par ch=1 c=64 v=64
74402 On ch=1 n=g3 v=52
74402 On ch=1 n=a#4 v=74
74405 On ch=1 n=g2 v=56
74407 Par ch=1 c=64 v=127
74457 On ch=1 n=a#4 v=0
74465 On ch=1 n=a#5 v=44
74467 On ch=1 n=g5 v=44
74497 On ch=1 n=a#5 v=0
74514 On ch=1 n=g5 v=0
74520 On ch=1 n=c#5 v=62
74585 On ch=1 n=c#5 v=0
74585 On ch=1 n=a#5 v=47
74590 On ch=1 n=g5 v=39
74620 On ch=1 n=g2 v=0
74622 On ch=1 n=a#5 v=0
74634 On ch=1 n=g3 v=0
74635 On ch=1 n=g5 v=0
74642 On ch=1 n=d5 v=56
74697 On ch=1 n=d5 v=0
74705 On ch=1 n=a#5 v=47
74707 On ch=1 n=g5 v=36
74747 On ch=1 n=a#5 v=0
74754 On ch=1 n=g5 v=0
74755 Par ch=1 c=64 v=96
74755 On ch=1 n=d4 v=50
74755 On ch=1 n=a#4 v=50
74760 On ch=1 n=d5 v=70
74760 On ch=1 n=g4 v=52
74765 Par ch=1 c=64 v=0
74775 Par ch=1 c=64 v=64
74780 Par ch=1 c=64 v=127
74825 On ch=1 n=d5 v=0
74832 On ch=1 n=d6 v=44
74837 On ch=1 n=a#5 v=44
74859 On ch=1 n=d6 v=0
74882 On ch=1 n=a#5 v=0
74885 On ch=1 n=f#5 v=55
74947 On ch=1 n=a#5 v=63
74950 On ch=1 n=f#5 v=0
74950 On ch=1 n=d6 v=56
74982 On ch=1 n=d6 v=0
74994 On ch=1 n=a#5 v=0
74997 On ch=1 n=g4 v=0
74997 On ch=1 n=d4 v=0
74997 On ch=1 n=g5 v=70
75007 On ch=1 n=a#4 v=0
75052 On ch=1 n=g5 v=0
75055 On ch=1 n=a#5 v=58
75057 On ch=1 n=d6 v=52
75064 On ch=1 n=d6 v=0
75070 On ch=1 n=a#5 v=0
75110 On ch=1 n=a#4 v=74
75110 On ch=1 n=g3 v=70
75115 On ch=1 n=g2 v=75
75115 Par ch=1 c=64 v=64
75122 Par ch=1 c=64 v=0
75137 Par ch=1 c=64 v=64
75142 Par ch=1 c=64 v=127
75172 On ch=1 n=a#5 v=50
75175 On ch=1 n=a#4 v=0
75177 On ch=1 n=g5 v=47
75202 On ch=1 n=a#5 v=0
75219 On ch=1 n=g5 v=0
75222 On ch=1 n=g2 v=0
75230 On ch=1 n=c#5 v=51
75245 On ch=1 n=g3 v=0
75290 On ch=1 n=c#5 v=0
75295 On ch=1 n=a#5 v=32
75300 On ch=1 n=g5 v=36
75335 On ch=1 n=a#5 v=0
75347 On ch=1 n=g5 v=0
75355 On ch=1 n=d5 v=56
75407 On ch=1 n=d5 v=0
75417 On ch=1 n=a#5 v=47
75419 On ch=1 n=g5 v=34
75466 On ch=1 n=g5 v=0
75467 On ch=1 n=a#5 v=0
75472 On ch=1 n=a#4 v=40
75472 Par ch=1 c=64 v=96
75474 On ch=1 n=d5 v=62
75474 On ch=1 n=d4 v=47
75477 On ch=1 n=g4 v=47
75482 Par ch=1 c=64 v=0
75492 Par ch=1 c=64 v=64
75494 Par ch=1 c=64 v=127
75544 On ch=1 n=d5 v=0
75552 On ch=1 n=a#5 v=50
75554 On ch=1 n=d6 v=39
75564 On ch=1 n=d6 v=0
75597 On ch=1 n=a#5 v=0
75599 On ch=1 n=g4 v=0
75599 On ch=1 n=d4 v=0
75602 On ch=1 n=f#5 v=63
75612 On ch=1 n=a#4 v=0
75664 On ch=1 n=a#5 v=63
75669 On ch=1 n=f#5 v=0
75672 On ch=1 n=d6 v=39
75697 On ch=1 n=d6 v=0
75716 On ch=1 n=a#5 v=0
75719 On ch=1 n=g5 v=67
75771 On ch=1 n=g5 v=0
75779 On ch=1 n=a#5 v=58
75782 On ch=1 n=d6 v=62
75822 On ch=1 n=d6 v=0
75831 On ch=1 n=a#5 v=0
75832 On ch=1 n=g3 v=70
75834 On ch=1 n=d5 v=62
75834 On ch=1 n=g2 v=70
75842 Par ch=1 c=64 v=64
75849 Par ch=1 c=64 v=0
75867 Par ch=1 c=64 v=64
75872 Par ch=1 c=64 v=127
75896 On ch=1 n=d5 v=0
75897 On ch=1 n=d6 v=47
75902 On ch=1 n=b5 v=50
75922 On ch=1 n=d6 v=0
75952 On ch=1 n=f#5 v=55
75954 On ch=1 n=b5 v=0
75959 On ch=1 n=g2 v=0
75979 On ch=1 n=g3 v=0
76012 On ch=1 n=f#5 v=0
76012 On ch=1 n=b5 v=44
76012 On ch=1 n=d6 v=52
76067 On ch=1 n=b5 v=0
76072 On ch=1 n=d6 v=0
76072 On ch=1 n=g5 v=62
76129 On ch=1 n=g5 v=0
76134 On ch=1 n=d6 v=50
76137 On ch=1 n=b5 v=26
76174 On ch=1 n=d6 v=0
76184 On ch=1 n=d5 v=41
76187 On ch=1 n=b5 v=0
76187 On ch=1 n=f4 v=43
76187 On ch=1 n=g4 v=41
76192 On ch=1 n=b4 v=51
76194 Par ch=1 c=64 v=0
76194 On ch=1 n=f5 v=67
76214 Par ch=1 c=64 v=64
76219 Par ch=1 c=64 v=127
76254 On ch=1 n=f5 v=0
76259 On ch=1 n=f6 v=44
76262 On ch=1 n=d6 v=47
76291 On ch=1 n=f6 v=0
76312 On ch=1 n=d6 v=0
76317 On ch=1 n=g#5 v=44
76382 On ch=1 n=d6 v=41
76384 On ch=1 n=f6 v=36
76387 On ch=1 n=g#5 v=0
76389 On ch=1 n=b4 v=0
76389 On ch=1 n=d5 v=0
76409 On ch=1 n=g4 v=0
76412 On ch=1 n=f4 v=0
76424 On ch=1 n=f6 v=0
76439 On ch=1 n=d6 v=0
76439 On ch=1 n=g5 v=62
76499 On ch=1 n=g5 v=0
76502 On ch=1 n=d6 v=50
76502 On ch=1 n=f6 v=59
76534 On ch=1 n=f6 v=0
76542 On ch=1 n=d6 v=0
76552 On ch=1 n=g5 v=75
76557 On ch=1 n=g3 v=67
76557 On ch=1 n=g2 v=70
76562 Par ch=1 c=64 v=96
76569 Par ch=1 c=64 v=0
76579 Par ch=1 c=64 v=64
76584 Par ch=1 c=64 v=127
76616 On ch=1 n=d#6 v=63
76619 On ch=1 n=g5 v=0
76619 On ch=1 n=g6 v=56
76649 On ch=1 n=g6 v=0
76668 On ch=1 n=d#6 v=0
76669 On ch=1 n=b5 v=75
76704 On ch=1 n=g2 v=0
76729 On ch=1 n=g3 v=0
76731 On ch=1 n=d#6 v=63
76734 On ch=1 n=b5 v=0
76734 On ch=1 n=g6 v=50
76769 On ch=1 n=g6 v=0
76783 On ch=1 n=d#6 v=0
76789 On ch=1 n=c6 v=59
76846 On ch=1 n=c6 v=0
76849 On ch=1 n=d#6 v=58
76854 On ch=1 n=g6 v=36
76861 On ch=1 n=g6 v=0
76864 On ch=1 n=d#6 v=0
76909 On ch=1 n=d#5 v=68
76911 On ch=1 n=d#4 v=55
76911 On ch=1 n=c5 v=56
76914 On ch=1 n=g4 v=47
76919 Par ch=1 c=64 v=64
76924 Par ch=1 c=64 v=0
76939 Par ch=1 c=64 v=64
76944 Par ch=1 c=64 v=127
76971 On ch=1 n=d#5 v=0
76976 On ch=1 n=d#6 v=40
76979 On ch=1 n=c6 v=36
77018 On ch=1 n=d#6 v=0
77019 On ch=1 n=c6 v=0
77031 On ch=1 n=f#5 v=50
77093 On ch=1 n=f#5 v=0
77099 On ch=1 n=c6 v=21
77109 On ch=1 n=d#6 v=10
77134 On ch=1 n=d#6 v=0
77146 On ch=1 n=c6 v=0
77148 On ch=1 n=c5 v=0
77154 On ch=1 n=g4 v=0
77159 On ch=1 n=g5 v=44
77176 On ch=1 n=d#4 v=0
77211 On ch=1 n=g5 v=0
77229 On ch=1 n=d#6 v=47
77231 On ch=1 n=c6 v=26
77243 On ch=1 n=c6 v=0
77244 On ch=1 n=d#6 v=0
77271 On ch=1 n=d3 v=15
77281 On ch=1 n=d5 v=59
77289 Par ch=1 c=64 v=96
77294 Par ch=1 c=64 v=0
77311 Par ch=1 c=64 v=64
77316 Par ch=1 c=64 v=127
77341 On ch=1 n=d5 v=0
77349 On ch=1 n=d6 v=32
77351 On ch=1 n=a#5 v=38
77361 On ch=1 n=d6 v=0
77395 On ch=1 n=a#5 v=0
77395 On ch=1 n=d3 v=0
77401 On ch=1 n=f#5 v=40
77461 On ch=1 n=a#5 v=47
77463 On ch=1 n=f#5 v=0
77473 On ch=1 n=d6 v=18
77495 On ch=1 n=d6 v=0
77505 On ch=1 n=a#5 v=0
77513 On ch=1 n=g5 v=41
77565 On ch=1 n=g5 v=0
77575 On ch=1 n=d6 v=21
77582 On ch=1 n=d6 v=0
77630 On ch=1 n=g4 v=39
77632 On ch=1 n=a#4 v=50
77632 On ch=1 n=d4 v=44
77640 Par ch=1 c=64 v=64
77647 Par ch=1 c=64 v=0
77657 Par ch=1 c=64 v=64
77662 Par ch=1 c=64 v=127
77689 On ch=1 n=a#4 v=0
77692 On ch=1 n=g5 v=44
77702 On ch=1 n=a#5 v=12
77714 On ch=1 n=a#5 v=0
77734 On ch=1 n=g5 v=0
77750 On ch=1 n=c#5 v=51
77802 On ch=1 n=c#5 v=0
77810 On ch=1 n=g5 v=44
77815 On ch=1 n=a#5 v=17
77827 On ch=1 n=a#5 v=0
77850 On ch=1 n=g5 v=0
77862 On ch=1 n=d5 v=36
77889 On ch=1 n=d4 v=0
77897 On ch=1 n=g4 v=0
77912 On ch=1 n=d5 v=0
77927 On ch=1 n=g5 v=34
77932 On ch=1 n=a#5 v=14
77967 On ch=1 n=a#5 v=0
77972 On ch=1 n=g5 v=0
77980 On ch=1 n=a4 v=32
77982 On ch=1 n=d4 v=39
77985 Par ch=1 c=64 v=64
77987 On ch=1 n=c5 v=44
77990 Par ch=1 c=64 v=0
78007 Par ch=1 c=64 v=64
78012 Par ch=1 c=64 v=127
78037 On ch=1 n=c5 v=0
78047 On ch=1 n=c6 v=36
78047 On ch=1 n=a5 v=34
78069 On ch=1 n=c6 v=0
78099 On ch=1 n=a5 v=0
78102 On ch=1 n=d#5 v=55
78167 On ch=1 n=d#5 v=0
78167 On ch=1 n=a5 v=41
78169 On ch=1 n=c6 v=36
78206 On ch=1 n=c6 v=0
78214 On ch=1 n=a5 v=0
78222 On ch=1 n=d5 v=47
78234 On ch=1 n=d4 v=0
78257 On ch=1 n=a4 v=0
78282 On ch=1 n=d5 v=0
78284 On ch=1 n=a5 v=39
78289 On ch=1 n=c6 v=47
78296 On ch=1 n=c6 v=0
78301 On ch=1 n=a5 v=0
78347 On ch=1 n=d4 v=47
78347 On ch=1 n=f#4 v=58
78349 On ch=1 n=a4 v=26
78357 Par ch=1 c=64 v=96
78362 Par ch=1 c=64 v=0
78379 Par ch=1 c=64 v=64
78387 Par ch=1 c=64 v=127
78409 On ch=1 n=f#5 v=35
78412 On ch=1 n=a5 v=44
78466 On ch=1 n=a4 v=0
78474 On ch=1 n=d#5 v=55
78494 On ch=1 n=a5 v=0
78496 On ch=1 n=f#5 v=0
78527 On ch=1 n=a5 v=52
78579 On ch=1 n=d#5 v=0
78589 On ch=1 n=f#5 v=50
78592 On ch=1 n=f#4 v=0
78602 On ch=1 n=d4 v=0
78647 On ch=1 n=a5 v=0
78649 On ch=1 n=d5 v=56
78654 On ch=1 n=f#5 v=0
78664 On ch=1 n=d5 v=0
78702 On ch=1 n=a#4 v=55
78707 Par ch=1 c=64 v=64
78707 On ch=1 n=g2 v=67
78707 On ch=1 n=g3 v=59
78714 Par ch=1 c=64 v=0
78729 Par ch=1 c=64 v=96
78737 Par ch=1 c=64 v=127
78767 On ch=1 n=a#4 v=0
78767 On ch=1 n=a#5 v=44
78769 On ch=1 n=g5 v=44
78807 On ch=1 n=a#5 v=0
78814 On ch=1 n=g5 v=0
78817 On ch=1 n=c#5 v=72
78834 On ch=1 n=g2 v=0
78857 On ch=1 n=g3 v=0
78887 On ch=1 n=c#5 v=0
78887 On ch=1 n=g5 v=50
78892 On ch=1 n=a#5 v=47
78929 On ch=1 n=a#5 v=0
78934 On ch=1 n=g5 v=0
78937 On ch=1 n=d5 v=67
78999 On ch=1 n=d5 v=0
79007 On ch=1 n=a#5 v=47
79007 On ch=1 n=g5 v=41
79009 On ch=1 n=g#5 v=17
79047 On ch=1 n=a#5 v=0
79051 On ch=1 n=g#5 v=0
79054 On ch=1 n=g5 v=0
79054 On ch=1 n=a#4 v=40
79057 On ch=1 n=d4 v=44
79057 On ch=1 n=d5 v=75
79059 On ch=1 n=g4 v=47
79067 Par ch=1 c=64 v=64
79069 Par ch=1 c=64 v=0
79084 Par ch=1 c=64 v=96
79089 Par ch=1 c=64 v=127
79129 On ch=1 n=d5 v=0
79137 On ch=1 n=a#5 v=40
79184 On ch=1 n=f#5 v=47
79187 On ch=1 n=a#5 v=0
79254 On ch=1 n=d4 v=0
79256 On ch=1 n=f#5 v=0
79256 On ch=1 n=g4 v=0
79257 On ch=1 n=a#5 v=40
79267 On ch=1 n=d6 v=10
79279 On ch=1 n=a#4 v=0
79289 On ch=1 n=d6 v=0
79299 On ch=1 n=a#5 v=0
79307 On ch=1 n=g5 v=56
79372 On ch=1 n=g5 v=0
79374 On ch=1 n=a#5 v=50
79377 On ch=1 n=d6 v=25
79387 On ch=1 n=d6 v=0
79391 On ch=1 n=a#5 v=0
79419 On ch=1 n=a#4 v=74
79422 On ch=1 n=g3 v=67
79422 On ch=1 n=g2 v=75
79432 Par ch=1 c=64 v=64
79437 Par ch=1 c=64 v=0
79452 Par ch=1 c=64 v=64
79457 Par ch=1 c=64 v=127
79489 On ch=1 n=a#5 v=50
79491 On ch=1 n=a#4 v=0
79492 On ch=1 n=g5 v=50
79529 On ch=1 n=a#5 v=0
79537 On ch=1 n=g5 v=0
79539 On ch=1 n=c#5 v=67
79549 On ch=1 n=g2 v=0
79584 On ch=1 n=g3 v=0
79603 On ch=1 n=c#5 v=0
79604 On ch=1 n=a#5 v=55
79604 On ch=1 n=g5 v=52
79654 On ch=1 n=g5 v=0
79654 On ch=1 n=a#5 v=0
79654 On ch=1 n=d5 v=67
79719 On ch=1 n=a#5 v=58
79721 On ch=1 n=d5 v=0
79721 On ch=1 n=g5 v=52
79724 On ch=1 n=g#5 v=38
79766 On ch=1 n=g#5 v=0
79768 On ch=1 n=g5 v=0
79769 On ch=1 n=a#5 v=0
79774 On ch=1 n=a#4 v=50
79774 On ch=1 n=d5 v=70
79776 On ch=1 n=d4 v=41
79781 On ch=1 n=g4 v=31
79791 Par ch=1 c=64 v=96
79796 Par ch=1 c=64 v=0
79821 Par ch=1 c=64 v=64
79826 Par ch=1 c=64 v=127
79828 On ch=1 n=d5 v=0
79831 On ch=1 n=a#5 v=55
79836 On ch=1 n=d6 v=50
79858 On ch=1 n=d6 v=0
79888 On ch=1 n=f#5 v=63
79891 On ch=1 n=a#5 v=0
79945 On ch=1 n=g4 v=0
79948 On ch=1 n=d6 v=56
79950 On ch=1 n=d4 v=0
79953 On ch=1 n=f#5 v=0
79953 On ch=1 n=a#4 v=0
79953 On ch=1 n=a#5 v=55
80000 On ch=1 n=d6 v=0
80008 On ch=1 n=a#5 v=0
80011 On ch=1 n=g5 v=67
80068 On ch=1 n=a#5 v=58
80071 On ch=1 n=g5 v=0
80110 On ch=1 n=a#5 v=0
80121 On ch=1 n=d5 v=62
80121 Par ch=1 c=64 v=64
80123 On ch=1 n=g2 v=67
80123 On ch=1 n=g3 v=62
80128 Par ch=1 c=64 v=0
80146 Par ch=1 c=64 v=64
80151 Par ch=1 c=64 v=127
80186 On ch=1 n=d6 v=41
80191 On ch=1 n=d5 v=0
80191 On ch=1 n=b5 v=44
80211 On ch=1 n=d6 v=0
80241 On ch=1 n=b5 v=0
80246 On ch=1 n=f#5 v=58
80248 On ch=1 n=g2 v=0
80270 On ch=1 n=g3 v=0
80313 On ch=1 n=b5 v=50
80316 On ch=1 n=d6 v=50
80321 On ch=1 n=f#5 v=0
80361 On ch=1 n=d6 v=0
80363 On ch=1 n=b5 v=0
80368 On ch=1 n=g5 v=62
80423 On ch=1 n=g5 v=0
80431 On ch=1 n=d6 v=44
80436 On ch=1 n=b5 v=47
80471 On ch=1 n=d6 v=0
80481 On ch=1 n=d5 v=41
80486 On ch=1 n=f4 v=38
80488 Par ch=1 c=64 v=96
80491 On ch=1 n=b5 v=0
80491 On ch=1 n=b4 v=38
80491 On ch=1 n=g4 v=44
80493 On ch=1 n=f5 v=62
80496 Par ch=1 c=64 v=0
80511 Par ch=1 c=64 v=64
80518 Par ch=1 c=64 v=127
80548 On ch=1 n=f5 v=0
80558 On ch=1 n=f6 v=52
80558 On ch=1 n=d6 v=59
80585 On ch=1 n=f6 v=0
80608 On ch=1 n=d6 v=0
80613 On ch=1 n=g#5 v=58
80670 On ch=1 n=b4 v=0
80673 On ch=1 n=d5 v=0
80685 On ch=1 n=f4 v=0
80688 On ch=1 n=f6 v=39
80688 On ch=1 n=d6 v=50
80690 On ch=1 n=g#5 v=0
80690 On ch=1 n=g4 v=0
80720 On ch=1 n=f6 v=0
80730 On ch=1 n=d6 v=0
80735 On ch=1 n=g5 v=50
80795 On ch=1 n=g5 v=0
80802 On ch=1 n=d6 v=44
80802 On ch=1 n=f6 v=44
80839 On ch=1 n=f6 v=0
80844 On ch=1 n=d6 v=0
80847 On ch=1 n=g3 v=50
80850 On ch=1 n=g2 v=56
80855 Par ch=1 c=64 v=64
80855 On ch=1 n=g5 v=47
80860 Par ch=1 c=64 v=0
80877 Par ch=1 c=64 v=64
80882 Par ch=1 c=64 v=127
80915 On ch=1 n=g5 v=0
80917 On ch=1 n=g6 v=52
80920 On ch=1 n=d#6 v=47
80944 On ch=1 n=g6 v=0
80945 On ch=1 n=g2 v=0
80972 On ch=1 n=d#6 v=0
80972 On ch=1 n=b5 v=70
81002 On ch=1 n=g3 v=0
81034 On ch=1 n=b5 v=0
81035 On ch=1 n=d#6 v=58
81042 On ch=1 n=g6 v=56
81074 On ch=1 n=g6 v=0
81090 On ch=1 n=c6 v=70
81095 On ch=1 n=d#6 v=0
81157 On ch=1 n=d#6 v=58
81160 On ch=1 n=c6 v=0
81162 On ch=1 n=g6 v=31
81172 On ch=1 n=g6 v=0
81174 On ch=1 n=d#6 v=0
81215 On ch=1 n=c5 v=56
81215 On ch=1 n=d#4 v=63
81217 On ch=1 n=g4 v=56
81217 On ch=1 n=d#5 v=40
81222 Par ch=1 c=64 v=0
81240 Par ch=1 c=64 v=64
81245 Par ch=1 c=64 v=127
81257 On ch=1 n=d#5 v=0
81275 On ch=1 n=d#6 v=50
81277 On ch=1 n=c6 v=47
81324 On ch=1 n=c6 v=0
81327 On ch=1 n=d#6 v=0
81327 On ch=1 n=f#5 v=63
81402 On ch=1 n=f#5 v=0
81405 On ch=1 n=c6 v=44
81405 On ch=1 n=d#6 v=27
81432 On ch=1 n=d#6 v=0
81444 On ch=1 n=g4 v=0
81445 On ch=1 n=c6 v=0
81445 On ch=1 n=c5 v=0
81455 On ch=1 n=g5 v=52
81467 On ch=1 n=d#4 v=0
81510 On ch=1 n=g5 v=0
81522 On ch=1 n=d#6 v=58
81537 On ch=1 n=d#6 v=0
81572 On ch=1 n=d3 v=52
81577 Par ch=1 c=64 v=64
81577 On ch=1 n=c5 v=41
81582 On ch=1 n=d5 v=41
81585 Par ch=1 c=64 v=0
81605 Par ch=1 c=64 v=64
81607 Par ch=1 c=64 v=127
81614 On ch=1 n=d5 v=0
81614 On ch=1 n=c5 v=0
81645 On ch=1 n=a#5 v=50
81647 On ch=1 n=d6 v=47
81672 On ch=1 n=d6 v=0
81682 On ch=1 n=a#5 v=0
81700 On ch=1 n=f#5 v=58
81775 On ch=1 n=a#5 v=44
81775 On ch=1 n=d6 v=34
81777 On ch=1 n=f#5 v=0
81805 On ch=1 n=d6 v=0
81817 On ch=1 n=a#5 v=0
81825 On ch=1 n=g5 v=47
81829 On ch=1 n=d3 v=0
81875 On ch=1 n=g5 v=0
81885 On ch=1 n=a#5 v=38
81895 On ch=1 n=a#5 v=0
81940 On ch=1 n=g4 v=52
81947 On ch=1 n=a#4 v=58
81950 Par ch=1 c=64 v=96
81952 On ch=1 n=d4 v=34
81955 Par ch=1 c=64 v=0
81970 Par ch=1 c=64 v=64
81975 Par ch=1 c=64 v=127
81999 On ch=1 n=a#4 v=0
82007 On ch=1 n=g5 v=52
82010 On ch=1 n=a#5 v=20
82032 On ch=1 n=a#5 v=0
82054 On ch=1 n=g5 v=0
82062 On ch=1 n=c#5 v=59
82124 On ch=1 n=c#5 v=0
82127 On ch=1 n=g5 v=41
82130 On ch=1 n=a#5 v=27
82165 On ch=1 n=a#5 v=0
82167 On ch=1 n=g5 v=0
82172 On ch=1 n=d5 v=41
82184 On ch=1 n=d4 v=0
82205 On ch=1 n=g4 v=0
82232 On ch=1 n=d5 v=0
82240 On ch=1 n=a#5 v=32
82242 On ch=1 n=g5 v=36
82282 On ch=1 n=a#5 v=0
82287 On ch=1 n=g5 v=0
82290 On ch=1 n=a4 v=36
82292 On ch=1 n=d4 v=39
82295 Par ch=1 c=64 v=96
82297 On ch=1 n=c5 v=52
82302 Par ch=1 c=64 v=0
82320 Par ch=1 c=64 v=64
82325 Par ch=1 c=64 v=127
82344 On ch=1 n=c5 v=0
82360 On ch=1 n=c6 v=31
82365 On ch=1 n=a5 v=44
82380 On ch=1 n=c6 v=0
82410 On ch=1 n=a5 v=0
82415 On ch=1 n=d#5 v=44
82480 On ch=1 n=a5 v=47
82485 On ch=1 n=d#5 v=0
82495 On ch=1 n=c6 v=18
82512 On ch=1 n=c6 v=0
82535 On ch=1 n=a5 v=0
82535 On ch=1 n=d5 v=44
82572 On ch=1 n=a4 v=0
82574 On ch=1 n=d4 v=0
82585 On ch=1 n=d5 v=0
82600 On ch=1 n=a5 v=26
82605 On ch=1 n=c6 v=29
82615 On ch=1 n=c6 v=0
82620 On ch=1 n=a5 v=0
82655 On ch=1 n=a4 v=41
82657 On ch=1 n=d4 v=36
82660 On ch=1 n=f#4 v=44
82665 Par ch=1 c=64 v=64
82667 Par ch=1 c=64 v=0
82685 Par ch=1 c=64 v=64
82690 Par ch=1 c=64 v=127
82715 On ch=1 n=a5 v=29
82720 On ch=1 n=f#5 v=44
82782 On ch=1 n=a4 v=0
82785 On ch=1 n=a5 v=0
82785 On ch=1 n=d#5 v=38
82795 On ch=1 n=f#5 v=0
82842 On ch=1 n=a5 v=50
82870 On ch=1 n=f#4 v=0
82874 On ch=1 n=d4 v=0
82894 On ch=1 n=a5 v=0
82905 On ch=1 n=d#5 v=0
82915 On ch=1 n=d5 v=39
82942 On ch=1 n=d5 v=0
82995 On ch=1 n=a#4 v=28
82995 On ch=1 n=d5 v=25
83015 On ch=1 n=g5 v=50
83025 On ch=1 n=d5 v=0
83025 On ch=1 n=a#4 v=0
83025 Par ch=1 c=64 v=64
83035 Par ch=1 c=64 v=96
83035 On ch=1 n=g4 v=35
83040 Par ch=1 c=64 v=127
83050 Par ch=1 c=64 v=96
83065 On ch=1 n=g4 v=0
83075 On ch=1 n=a#4 v=31
83105 On ch=1 n=a#4 v=0
83115 On ch=1 n=g4 v=23
83145 On ch=1 n=g4 v=0
83155 On ch=1 n=a#4 v=17
83185 On ch=1 n=a#4 v=0
83195 On ch=1 n=g4 v=20
83225 On ch=1 n=g4 v=0
83235 On ch=1 n=b4 v=24
83235 On ch=1 n=d5 v=22
83245 On ch=1 n=f5 v=53
83255 On ch=1 n=g5 v=0
83265 On ch=1 n=d5 v=0
83265 On ch=1 n=b4 v=0
83275 On ch=1 n=g4 v=28
83305 On ch=1 n=g4 v=0
83315 On ch=1 n=b4 v=34
83345 On ch=1 n=b4 v=0
83355 On ch=1 n=g4 v=23
83385 On ch=1 n=g4 v=0
83395 On ch=1 n=b4 v=30
83425 On ch=1 n=b4 v=0
83435 On ch=1 n=g4 v=23
83465 On ch=1 n=g4 v=0
83470 Par ch=1 c=64 v=96
83472 On ch=1 n=e5 v=56
83475 On ch=1 n=f5 v=0
83475 On ch=1 n=c5 v=28
83480 Par ch=1 c=64 v=0
83505 On ch=1 n=c5 v=0
83515 On ch=1 n=g4 v=31
83525 Par ch=1 c=64 v=64
83530 Par ch=1 c=64 v=96
83535 Par ch=1 c=64 v=127
83545 On ch=1 n=g4 v=0
83555 On ch=1 n=c5 v=33
83585 On ch=1 n=c5 v=0
83595 On ch=1 n=g4 v=31
83625 On ch=1 n=g4 v=0
83635 On ch=1 n=c5 v=25
83665 On ch=1 n=c5 v=0
83675 On ch=1 n=g4 v=22
83697 Par ch=1 c=64 v=96
83705 On ch=1 n=g4 v=0
83705 On ch=1 n=d#5 v=45
83707 Par ch=1 c=64 v=64
83710 On ch=1 n=g7 v=50
83710 On ch=1 n=g6 v=42
83715 On ch=1 n=c5 v=37
83717 Par ch=1 c=64 v=0
83722 On ch=1 n=e5 v=0
83732 Par ch=1 c=64 v=64
83737 Par ch=1 c=64 v=96
83745 On ch=1 n=c5 v=0
83745 Par ch=1 c=64 v=127
83755 On ch=1 n=g4 v=31
83785 On ch=1 n=g4 v=0
83790 On ch=1 n=g6 v=0
83792 On ch=1 n=g7 v=0
83795 On ch=1 n=c5 v=25
83825 On ch=1 n=c5 v=0
83835 On ch=1 n=g4 v=23
83865 On ch=1 n=g4 v=0
83875 On ch=1 n=c5 v=23
83905 On ch=1 n=c5 v=0
83915 On ch=1 n=g4 v=28
83945 On ch=1 n=g4 v=0
83952 On ch=1 n=f#5 v=45
83952 On ch=1 n=f#7 v=67
83955 On ch=1 n=d#5 v=0
83955 On ch=1 n=a4 v=33
83955 On ch=1 n=d#5 v=31
83960 On ch=1 n=f#6 v=48
83967 Par ch=1 c=64 v=64
83975 Par ch=1 c=64 v=0
83982 Par ch=1 c=64 v=64
83985 On ch=1 n=d#5 v=0
83985 On ch=1 n=a4 v=0
83987 Par ch=1 c=64 v=127
83995 On ch=1 n=c5 v=28
84025 On ch=1 n=c5 v=0
84035 On ch=1 n=d#5 v=31
84065 On ch=1 n=d#5 v=0
84075 On ch=1 n=c5 v=23
84094 On ch=1 n=f#7 v=0
84102 On ch=1 n=f#6 v=0
84105 On ch=1 n=c5 v=0
84115 On ch=1 n=d#5 v=35
84145 On ch=1 n=d#5 v=0
84155 On ch=1 n=c5 v=33
84185 On ch=1 n=c5 v=0
84195 On ch=1 n=d#5 v=39
84225 On ch=1 n=d#5 v=0
84235 On ch=1 n=c5 v=22
84265 On ch=1 n=c5 v=0
84275 On ch=1 n=d#5 v=31
84305 On ch=1 n=d#5 v=0
84315 On ch=1 n=c5 v=25
84345 On ch=1 n=c5 v=0
84355 On ch=1 n=d#5 v=33
84360 On ch=1 n=d#7 v=48
84365 On ch=1 n=d#6 v=48
84382 On ch=1 n=d#6 v=0
84385 On ch=1 n=d#5 v=0
84392 On ch=1 n=d#7 v=0
84395 On ch=1 n=c5 v=28
84405 On ch=1 n=d7 v=47
84410 On ch=1 n=d6 v=47
84417 On ch=1 n=g5 v=44
84422 Par ch=1 c=64 v=64
84424 On ch=1 n=f#5 v=0
84425 On ch=1 n=c5 v=0
84430 Par ch=1 c=64 v=0
84435 On ch=1 n=a#4 v=31
84435 On ch=1 n=d5 v=28
84465 On ch=1 n=d5 v=0
84465 On ch=1 n=a#4 v=0
84465 Par ch=1 c=64 v=64
84475 Par ch=1 c=64 v=127
84475 On ch=1 n=g4 v=31
84505 On ch=1 n=g4 v=0
84515 On ch=1 n=a#4 v=22
84545 On ch=1 n=a#4 v=0
84555 On ch=1 n=g4 v=23
84585 On ch=1 n=g4 v=0
84595 On ch=1 n=a#4 v=33
84625 On ch=1 n=a#4 v=0
84635 On ch=1 n=g4 v=28
84642 On ch=1 n=f5 v=50
84647 On ch=1 n=g5 v=0
84652 Par ch=1 c=64 v=64
84660 Par ch=1 c=64 v=0
84665 On ch=1 n=g4 v=0
84675 On ch=1 n=b4 v=21
84675 On ch=1 n=d5 v=14
84692 Par ch=1 c=64 v=64
84700 Par ch=1 c=64 v=96
84705 On ch=1 n=d5 v=0
84705 On ch=1 n=b4 v=0
84705 Par ch=1 c=64 v=127
84715 On ch=1 n=g4 v=28
84745 On ch=1 n=g4 v=0
84755 On ch=1 n=b4 v=32
84785 On ch=1 n=b4 v=0
84795 On ch=1 n=g4 v=33
84825 On ch=1 n=g4 v=0
84835 On ch=1 n=b4 v=32
84865 On ch=1 n=b4 v=0
84875 On ch=1 n=g4 v=28
84875 Par ch=1 c=64 v=96
84877 On ch=1 n=e5 v=53
84885 Par ch=1 c=64 v=0
84892 On ch=1 n=f5 v=0
84902 On ch=1 n=g4 v=0
84907 On ch=1 n=d7 v=0
84912 On ch=1 n=d6 v=0
84912 On ch=1 n=c5 v=28
84914 Par ch=1 c=64 v=64
84922 Par ch=1 c=64 v=127
84942 On ch=1 n=c5 v=0
84952 On ch=1 n=g4 v=28
84982 On ch=1 n=g4 v=0
84992 On ch=1 n=c5 v=28
85022 On ch=1 n=c5 v=0
85032 On ch=1 n=g4 v=23
85062 On ch=1 n=g4 v=0
85072 On ch=1 n=c5 v=25
85102 On ch=1 n=c5 v=0
85104 On ch=1 n=g6 v=50
85109 Par ch=1 c=64 v=96
85112 On ch=1 n=d#5 v=41
85112 On ch=1 n=g4 v=18
85112 On ch=1 n=g5 v=47
85122 Par ch=1 c=64 v=0
85124 On ch=1 n=e5 v=0
85142 On ch=1 n=g4 v=0
85144 Par ch=1 c=64 v=64
85152 On ch=1 n=c5 v=28
85152 Par ch=1 c=64 v=127
85182 On ch=1 n=c5 v=0
85192 On ch=1 n=g4 v=22
85211 On ch=1 n=g6 v=0
85212 On ch=1 n=g5 v=0
85222 On ch=1 n=g4 v=0
85232 On ch=1 n=c5 v=25
85262 On ch=1 n=c5 v=0
85272 On ch=1 n=g4 v=25
85302 On ch=1 n=g4 v=0
85312 On ch=1 n=c5 v=22
85317 On ch=1 n=d#5 v=0
85342 On ch=1 n=c5 v=0
85347 On ch=1 n=f#6 v=57
85347 On ch=1 n=f#5 v=48
85352 On ch=1 n=g4 v=23
85359 Par ch=1 c=64 v=64
85364 Par ch=1 c=64 v=0
85374 Par ch=1 c=64 v=64
85382 On ch=1 n=g4 v=0
85382 Par ch=1 c=64 v=96
85389 Par ch=1 c=64 v=127
85392 On ch=1 n=a4 v=33
85422 On ch=1 n=a4 v=0
85432 On ch=1 n=c5 v=22
85462 On ch=1 n=c5 v=0
85472 On ch=1 n=a4 v=25
85502 On ch=1 n=a4 v=0
85509 On ch=1 n=f#6 v=0
85512 On ch=1 n=c5 v=18
85527 On ch=1 n=f#5 v=0
85542 On ch=1 n=c5 v=0
85552 On ch=1 n=a4 v=22
85582 On ch=1 n=a4 v=0
85592 On ch=1 n=c5 v=20
85622 On ch=1 n=c5 v=0
85632 On ch=1 n=a4 v=28
85662 On ch=1 n=a4 v=0
85672 On ch=1 n=c5 v=25
85702 On ch=1 n=c5 v=0
85712 On ch=1 n=a4 v=23
85742 On ch=1 n=a4 v=0
85752 On ch=1 n=c5 v=22
85782 On ch=1 n=c5 v=0
85792 On ch=1 n=a4 v=25
85807 On ch=1 n=d#6 v=48
85812 Par ch=1 c=64 v=96
85814 On ch=1 n=d#5 v=48
85817 Par ch=1 c=64 v=64
85822 On ch=1 n=a4 v=0
85824 Par ch=1 c=64 v=0
85832 On ch=1 n=c5 v=22
85839 On ch=1 n=d#5 v=0
85839 On ch=1 n=d#6 v=0
85862 On ch=1 n=c5 v=0
85867 On ch=1 n=d6 v=50
85872 On ch=1 n=d5 v=47
85872 On ch=1 n=a#3 v=36
85872 On ch=1 n=g4 v=39
85889 Par ch=1 c=64 v=64
85894 Par ch=1 c=64 v=96
85902 On ch=1 n=g4 v=0
85902 On ch=1 n=a#3 v=0
85912 Par ch=1 c=64 v=127
85912 On ch=1 n=g3 v=33
85942 On ch=1 n=g3 v=0
85952 On ch=1 n=a#3 v=36
85982 On ch=1 n=a#3 v=0
85992 On ch=1 n=g3 v=28
86022 On ch=1 n=g3 v=0
86032 On ch=1 n=a#3 v=25
86062 On ch=1 n=a#3 v=0
86062 On ch=1 n=d5 v=0
86069 On ch=1 n=d6 v=0
86072 On ch=1 n=g3 v=25
86102 On ch=1 n=g3 v=0
86112 On ch=1 n=d5 v=34
86112 On ch=1 n=d6 v=50
86112 On ch=1 n=g5 v=47
86112 On ch=1 n=g4 v=37
86112 On ch=1 n=b3 v=37
86142 On ch=1 n=b3 v=0
86142 On ch=1 n=g4 v=0
86152 On ch=1 n=g3 v=33
86182 On ch=1 n=g3 v=0
86192 On ch=1 n=b3 v=28
86222 On ch=1 n=b3 v=0
86232 On ch=1 n=g3 v=31
86262 On ch=1 n=g3 v=0
86272 On ch=1 n=b3 v=31
86292 On ch=1 n=g5 v=0
86292 On ch=1 n=d6 v=0
86292 On ch=1 n=d5 v=0
86302 On ch=1 n=b3 v=0
86312 On ch=1 n=g3 v=37
86342 On ch=1 n=g3 v=0
86352 On ch=1 n=d6 v=47
86352 On ch=1 n=g5 v=47
86352 On ch=1 n=d5 v=34
86352 On ch=1 n=g4 v=35
86352 On ch=1 n=e4 v=42
86382 On ch=1 n=e4 v=0
86382 On ch=1 n=g4 v=0
86392 On ch=1 n=g3 v=31
86422 On ch=1 n=g3 v=0
86432 On ch=1 n=e4 v=31
86462 On ch=1 n=e4 v=0
86472 On ch=1 n=g3 v=37
86502 On ch=1 n=g3 v=0
86512 On ch=1 n=e4 v=33
86542 On ch=1 n=e4 v=0
86552 On ch=1 n=g3 v=37
86582 On ch=1 n=g3 v=0
86592 On ch=1 n=e4 v=35
86622 On ch=1 n=e4 v=0
86632 On ch=1 n=g3 v=33
86662 On ch=1 n=g3 v=0
86672 On ch=1 n=e4 v=37
86702 On ch=1 n=e4 v=0
86712 On ch=1 n=g3 v=28
86742 On ch=1 n=g3 v=0
86752 On ch=1 n=e4 v=35
86782 On ch=1 n=e4 v=0
86792 On ch=1 n=g3 v=28
86822 On ch=1 n=g3 v=0
86832 On ch=1 n=g4 v=39
86832 On ch=1 n=d#4 v=39
86862 On ch=1 n=d#4 v=0
86862 On ch=1 n=g4 v=0
86872 On ch=1 n=g3 v=23
86892 On ch=1 n=d5 v=0
86892 On ch=1 n=g5 v=0
86892 On ch=1 n=d6 v=0
86902 On ch=1 n=g3 v=0
86912 On ch=1 n=d#4 v=39
86942 On ch=1 n=d#4 v=0
86952 On ch=1 n=g3 v=28
86982 On ch=1 n=g3 v=0
86992 On ch=1 n=d#4 v=33
87022 On ch=1 n=d#4 v=0
87032 On ch=1 n=g3 v=23
87062 On ch=1 n=g3 v=0
87072 On ch=1 n=c5 v=44
87072 On ch=1 n=g5 v=50
87072 On ch=1 n=c6 v=47
87072 On ch=1 n=d#4 v=35
87102 On ch=1 n=d#4 v=0
87112 On ch=1 n=g3 v=31
87142 On ch=1 n=g3 v=0
87152 On ch=1 n=d#4 v=35
87182 On ch=1 n=d#4 v=0
87192 On ch=1 n=g3 v=28
87222 On ch=1 n=g3 v=0
87232 On ch=1 n=d#4 v=33
87252 On ch=1 n=c6 v=0
87252 On ch=1 n=g5 v=0
87252 On ch=1 n=c5 v=0
87262 On ch=1 n=d#4 v=0
87272 On ch=1 n=g3 v=28
87302 On ch=1 n=g3 v=0
87309 On ch=1 n=g3 v=59
87312 On ch=1 n=g5 v=39
87312 On ch=1 n=b4 v=43
87334 On ch=1 n=d4 v=56
87342 On ch=1 n=b4 v=0
87342 On ch=1 n=g5 v=0
87346 On ch=1 n=g3 v=0
87352 On ch=1 n=g4 v=47
87352 On ch=1 n=b5 v=36
87361 On ch=1 n=d4 v=0
87362 On ch=1 n=g4 v=0
87382 On ch=1 n=b5 v=0
87392 On ch=1 n=g5 v=26
87392 On ch=1 n=b4 v=33
87422 On ch=1 n=b4 v=0
87422 On ch=1 n=g5 v=0
87432 On ch=1 n=b5 v=34
87462 On ch=1 n=b5 v=0
87472 On ch=1 n=g5 v=36
87472 On ch=1 n=b4 v=35
87502 On ch=1 n=b4 v=0
87502 On ch=1 n=g5 v=0
87512 On ch=1 n=b5 v=41
87542 On ch=1 n=b5 v=0
87552 On ch=1 n=g5 v=32
87552 On ch=1 n=b4 v=10
87559 On ch=1 n=g3 v=62
87559 On ch=1 n=g4 v=62
87559 On ch=1 n=b3 v=62
87562 On ch=1 n=g5 v=0
87562 On ch=1 n=g5 v=68
87571 On ch=1 n=g3 v=0
87574 On ch=1 n=g4 v=0
87581 On ch=1 n=b3 v=0
87582 On ch=1 n=g5 v=0
87582 On ch=1 n=b4 v=0
87592 On ch=1 n=b5 v=29
87622 On ch=1 n=b5 v=0
87632 On ch=1 n=b4 v=40
87632 On ch=1 n=g5 v=26
87662 On ch=1 n=g5 v=0
87662 On ch=1 n=b4 v=0
87672 On ch=1 n=b5 v=44
87702 On ch=1 n=b5 v=0
87712 On ch=1 n=g5 v=44
87712 On ch=1 n=b4 v=40
87742 On ch=1 n=b4 v=0
87742 On ch=1 n=g5 v=0
87752 On ch=1 n=b5 v=47
87782 On ch=1 n=b5 v=0
87792 On ch=1 n=g5 v=44
87792 On ch=1 n=b4 v=36
87799 On ch=1 n=f#5 v=57
87802 On ch=1 n=f#3 v=68
87802 On ch=1 n=f#4 v=68
87809 On ch=1 n=b3 v=62
87819 On ch=1 n=b3 v=0
87821 On ch=1 n=f#5 v=0
87822 On ch=1 n=f#4 v=0
87822 On ch=1 n=b4 v=0
87822 On ch=1 n=g5 v=0
87824 On ch=1 n=f#3 v=0
87832 On ch=1 n=b5 v=44
87862 On ch=1 n=b5 v=0
87872 On ch=1 n=b4 v=33
87872 On ch=1 n=g5 v=34
87902 On ch=1 n=g5 v=0
87902 On ch=1 n=b4 v=0
87912 On ch=1 n=b5 v=39
87942 On ch=1 n=b5 v=0
87952 On ch=1 n=g5 v=44
87952 On ch=1 n=b4 v=38
87982 On ch=1 n=b4 v=0
87982 On ch=1 n=g5 v=0
87992 On ch=1 n=b5 v=44
88022 On ch=1 n=b5 v=0
88024 On ch=1 n=e5 v=66
88032 On ch=1 n=g5 v=44
88032 On ch=1 n=b4 v=33
88032 On ch=1 n=e3 v=70
88042 On ch=1 n=b3 v=67
88042 On ch=1 n=e4 v=67
88057 On ch=1 n=e4 v=0
88061 On ch=1 n=e5 v=0
88062 On ch=1 n=b3 v=0
88062 On ch=1 n=b4 v=0
88062 On ch=1 n=g5 v=0
88067 On ch=1 n=e3 v=0
88072 On ch=1 n=b5 v=41
88102 On ch=1 n=b5 v=0
88112 On ch=1 n=b4 v=38
88112 On ch=1 n=g5 v=47
88142 On ch=1 n=g5 v=0
88142 On ch=1 n=b4 v=0
88152 On ch=1 n=b5 v=34
88182 On ch=1 n=b5 v=0
88192 On ch=1 n=g5 v=41
88192 On ch=1 n=b4 v=27
88222 On ch=1 n=b4 v=0
88222 On ch=1 n=g5 v=0
88232 On ch=1 n=b5 v=36
88254 On ch=1 n=d5 v=63
88262 On ch=1 n=b5 v=0
88264 On ch=1 n=d3 v=75
88269 On ch=1 n=d4 v=67
88269 On ch=1 n=b3 v=67
88272 On ch=1 n=g5 v=41
88272 On ch=1 n=b4 v=38
88286 On ch=1 n=d4 v=0
88291 On ch=1 n=b3 v=0
88291 On ch=1 n=d3 v=0
88302 On ch=1 n=b4 v=0
88302 On ch=1 n=g5 v=0
88311 On ch=1 n=d5 v=0
88312 On ch=1 n=b5 v=50
88342 On ch=1 n=b5 v=0
88352 On ch=1 n=g5 v=36
88352 On ch=1 n=b4 v=29
88382 On ch=1 n=b4 v=0
88382 On ch=1 n=g5 v=0
88392 On ch=1 n=b5 v=44
88422 On ch=1 n=b5 v=0
88432 On ch=1 n=b4 v=33
88432 On ch=1 n=g5 v=36
88462 On ch=1 n=g5 v=0
88462 On ch=1 n=b4 v=0
88472 On ch=1 n=b5 v=41
88499 On ch=1 n=b3 v=67
88502 On ch=1 n=b5 v=0
88502 On ch=1 n=b2 v=67
88502 On ch=1 n=b4 v=71
88512 On ch=1 n=b4 v=0
88512 On ch=1 n=g5 v=44
88512 On ch=1 n=b4 v=29
88524 On ch=1 n=b3 v=0
88529 On ch=1 n=b2 v=0
88539 On ch=1 n=b4 v=0
88539 On ch=1 n=g5 v=0
88549 On ch=1 n=b5 v=44
88579 On ch=1 n=b5 v=0
88589 On ch=1 n=b4 v=19
88589 On ch=1 n=g5 v=32
88619 On ch=1 n=g5 v=0
88619 On ch=1 n=b4 v=0
88629 On ch=1 n=b5 v=41
88659 On ch=1 n=b5 v=0
88669 On ch=1 n=g5 v=36
88669 On ch=1 n=b4 v=25
88699 On ch=1 n=b4 v=0
88699 On ch=1 n=g5 v=0
88709 On ch=1 n=b5 v=29
88729 On ch=1 n=g2 v=70
88734 On ch=1 n=g3 v=75
88734 On ch=1 n=b2 v=70
88739 On ch=1 n=b5 v=0
88746 On ch=1 n=g4 v=73
88751 On ch=1 n=g4 v=0
88754 On ch=1 n=g3 v=0
88756 Par ch=1 c=64 v=96
88759 On ch=1 n=g2 v=0
88761 On ch=1 n=b2 v=0
88771 Par ch=1 c=64 v=127
88789 On ch=1 n=b4 v=45
88819 On ch=1 n=b4 v=0
88829 On ch=1 n=g4 v=36
88859 On ch=1 n=g4 v=0
88869 On ch=1 n=b4 v=36
88899 On ch=1 n=b4 v=0
88909 On ch=1 n=g4 v=41
88939 On ch=1 n=g4 v=0
88949 On ch=1 n=b4 v=43
88979 On ch=1 n=b4 v=0
88984 On ch=1 n=f#4 v=68
88986 On ch=1 n=f#3 v=74
88986 On ch=1 n=b2 v=67
88986 On ch=1 n=g2 v=52
88989 On ch=1 n=g4 v=34
88998 On ch=1 n=g2 v=0
88999 Par ch=1 c=64 v=96
89008 On ch=1 n=b2 v=0
89008 On ch=1 n=f#3 v=0
89016 Par ch=1 c=64 v=127
89019 On ch=1 n=g4 v=0
89029 On ch=1 n=b4 v=35
89059 On ch=1 n=b4 v=0
89069 On ch=1 n=g4 v=39
89084 On ch=1 n=f#4 v=0
89099 On ch=1 n=g4 v=0
89109 On ch=1 n=b4 v=38
89139 On ch=1 n=b4 v=0
89149 On ch=1 n=g4 v=36
89179 On ch=1 n=g4 v=0
89189 On ch=1 n=b4 v=35
89219 On ch=1 n=b4 v=0
89219 On ch=1 n=g2 v=67
89224 On ch=1 n=e3 v=67
89224 On ch=1 n=b2 v=67
89229 On ch=1 n=g4 v=47
89229 On ch=1 n=e4 v=68
89239 Par ch=1 c=64 v=96
89244 On ch=1 n=e3 v=0
89249 On ch=1 n=b2 v=0
89249 On ch=1 n=g2 v=0
89256 Par ch=1 c=64 v=127
89259 On ch=1 n=g4 v=0
89269 On ch=1 n=b4 v=38
89299 On ch=1 n=b4 v=0
89309 On ch=1 n=g4 v=39
89311 On ch=1 n=e4 v=0
89339 On ch=1 n=g4 v=0
89349 On ch=1 n=b4 v=33
89379 On ch=1 n=b4 v=0
89389 On ch=1 n=g4 v=36
89419 On ch=1 n=g4 v=0
89429 On ch=1 n=b4 v=29
89459 On ch=1 n=b4 v=0
89459 On ch=1 n=d#3 v=68
89464 On ch=1 n=g2 v=50
89469 On ch=1 n=b2 v=56
89469 On ch=1 n=g4 v=36
89474 On ch=1 n=d#4 v=68
89481 On ch=1 n=g2 v=0
89486 On ch=1 n=b2 v=0
89486 On ch=1 n=d#3 v=0
89486 Par ch=1 c=64 v=96
89494 Par ch=1 c=64 v=64
89499 On ch=1 n=g4 v=0
89506 Par ch=1 c=64 v=96
89509 On ch=1 n=b4 v=29
89511 Par ch=1 c=64 v=127
89539 On ch=1 n=b4 v=0
89549 On ch=1 n=g4 v=34
89566 On ch=1 n=d#4 v=0
89576 On ch=1 n=g4 v=0
89586 On ch=1 n=b4 v=25
89616 On ch=1 n=b4 v=0
89626 On ch=1 n=g4 v=31
89656 On ch=1 n=g4 v=0
89666 On ch=1 n=b4 v=33
89696 On ch=1 n=b4 v=0
89703 On ch=1 n=d3 v=67
89703 On ch=1 n=g2 v=67
89706 On ch=1 n=d4 v=63
89706 On ch=1 n=g4 v=32
89706 On ch=1 n=b2 v=62
89708 Par ch=1 c=64 v=96
89716 Par ch=1 c=64 v=64
89725 On ch=1 n=g2 v=0
89725 On ch=1 n=d3 v=0
89726 Par ch=1 c=64 v=96
89728 On ch=1 n=b2 v=0
89733 Par ch=1 c=64 v=127
89736 On ch=1 n=g4 v=0
89746 On ch=1 n=b4 v=43
89776 On ch=1 n=b4 v=0
89786 On ch=1 n=g4 v=39
89803 On ch=1 n=d4 v=0
89813 On ch=1 n=g4 v=0
89823 On ch=1 n=b4 v=38
89853 On ch=1 n=b4 v=0
89863 On ch=1 n=g4 v=36
89893 On ch=1 n=g4 v=0
89903 On ch=1 n=b4 v=35
89933 On ch=1 n=b4 v=0
89933 Par ch=1 c=64 v=96
89938 On ch=1 n=b2 v=67
89938 On ch=1 n=g2 v=70
89943 Par ch=1 c=64 v=64
89943 On ch=1 n=g4 v=39
89948 On ch=1 n=b3 v=68
89955 Par ch=1 c=64 v=96
89960 On ch=1 n=g2 v=0
89960 On ch=1 n=b2 v=0
89963 Par ch=1 c=64 v=127
89973 On ch=1 n=g4 v=0
89983 On ch=1 n=b4 v=20
89993 On ch=1 n=b3 v=0
90013 On ch=1 n=b4 v=0
90023 On ch=1 n=g4 v=34
90053 On ch=1 n=g4 v=0
90063 On ch=1 n=b4 v=35
90093 On ch=1 n=b4 v=0
90103 On ch=1 n=g4 v=39
90133 On ch=1 n=g4 v=0
90143 On ch=1 n=b4 v=25
90160 Par ch=1 c=64 v=96
90170 Par ch=1 c=64 v=64
90173 On ch=1 n=b4 v=0
90175 Par ch=1 c=64 v=0
90183 On ch=1 n=g2 v=86
90663 On ch=1 n=g2 v=0
90663 On ch=1 n=g2 v=50
90680 On ch=1 n=g2 v=0
90688 On ch=1 n=b2 v=56
90705 On ch=1 n=b2 v=0
90713 On ch=1 n=d3 v=59
90733 On ch=1 n=d3 v=0
90740 On ch=1 n=g3 v=62
90757 On ch=1 n=g3 v=0
90765 On ch=1 n=b3 v=63
90782 On ch=1 n=b3 v=0
90793 On ch=1 n=d4 v=56
90810 On ch=1 n=d4 v=0
90818 On ch=1 n=g4 v=67
90835 On ch=1 n=g4 v=0
90843 On ch=1 n=b4 v=67
90863 On ch=1 n=b4 v=0
90870 On ch=1 n=d5 v=56
90887 On ch=1 n=d5 v=0
90903 On ch=1 n=g5 v=67
91393 On ch=1 n=g5 v=0
91408 On ch=1 n=f#5 v=55
91425 On ch=1 n=f#5 v=0
91433 On ch=1 n=e5 v=52
91453 On ch=1 n=e5 v=0
91460 On ch=1 n=d5 v=47
91477 On ch=1 n=d5 v=0
91485 On ch=1 n=c5 v=50
91502 On ch=1 n=c5 v=0
91513 On ch=1 n=b4 v=56
91530 On ch=1 n=b4 v=0
91538 On ch=1 n=a4 v=59
91555 On ch=1 n=a4 v=0
91563 On ch=1 n=g4 v=56
91583 On ch=1 n=g4 v=0
91590 On ch=1 n=f#4 v=55
91607 On ch=1 n=f#4 v=0
91615 On ch=1 n=e4 v=55
91632 On ch=1 n=e4 v=0
91643 On ch=1 n=d4 v=56
91660 On ch=1 n=d4 v=0
91668 On ch=1 n=c4 v=52
91685 On ch=1 n=c4 v=0
91693 On ch=1 n=b3 v=63
91713 On ch=1 n=b3 v=0
91720 On ch=1 n=a3 v=62
91737 On ch=1 n=a3 v=0
91745 On ch=1 n=g3 v=59
91762 On ch=1 n=g3 v=0
91773 On ch=1 n=f#3 v=58
91790 On ch=1 n=f#3 v=0
91798 On ch=1 n=e3 v=59
91815 On ch=1 n=e3 v=0
91823 On ch=1 n=d3 v=59
91843 On ch=1 n=d3 v=0
91850 On ch=1 n=c3 v=47
91867 On ch=1 n=c3 v=0
91875 On ch=1 n=b2 v=52
91892 On ch=1 n=b2 v=0
91903 On ch=1 n=a2 v=56
91920 On ch=1 n=a2 v=0
91925 On ch=1 n=b3 v=67
91928 On ch=1 n=g2 v=75
92003 Par ch=1 c=64 v=64
92013 Par ch=1 c=64 v=96
92023 Par ch=1 c=64 v=127
92285 On ch=1 n=b3 v=0
92288 On ch=1 n=g2 v=0
92398 On ch=1 n=b3 v=36
92403 On ch=1 n=g2 v=52
92415 On ch=1 n=b3 v=0
92420 On ch=1 n=g2 v=0
92423 On ch=1 n=d4 v=52
92428 On ch=1 n=b2 v=50
92443 On ch=1 n=d4 v=0
92445 On ch=1 n=b2 v=0
92450 On ch=1 n=g4 v=59
92453 On ch=1 n=d3 v=52
92467 On ch=1 n=g4 v=0
92473 On ch=1 n=d3 v=0
92475 On ch=1 n=b4 v=56
92480 On ch=1 n=g3 v=47
92492 On ch=1 n=b4 v=0
92497 On ch=1 n=g3 v=0
92503 On ch=1 n=d5 v=52
92505 On ch=1 n=b3 v=54
92520 On ch=1 n=d5 v=0
92522 On ch=1 n=b3 v=0
92528 On ch=1 n=g5 v=56
92533 On ch=1 n=d4 v=59
92545 On ch=1 n=g5 v=0
92550 On ch=1 n=d4 v=0
92553 On ch=1 n=b5 v=56
92558 On ch=1 n=g4 v=52
92573 On ch=1 n=b5 v=0
92575 On ch=1 n=g4 v=0
92580 On ch=1 n=d6 v=59
92583 On ch=1 n=b4 v=50
92597 On ch=1 n=d6 v=0
92603 On ch=1 n=b4 v=0
92605 On ch=1 n=g6 v=67
92610 On ch=1 n=d5 v=59
92622 On ch=1 n=g6 v=0
92627 On ch=1 n=d5 v=0
92633 On ch=1 n=b6 v=67
92635 On ch=1 n=g5 v=52
92650 On ch=1 n=b6 v=0
92652 On ch=1 n=g5 v=0
92658 On ch=1 n=d7 v=59
92663 On ch=1 n=b5 v=47
92675 On ch=1 n=d7 v=0
92680 On ch=1 n=b5 v=0
92683 On ch=1 n=g7 v=56
92688 On ch=1 n=d6 v=44
92703 On ch=1 n=g7 v=0
92705 On ch=1 n=d6 v=0
92705 On ch=1 n=b7 v=75
92708 On ch=1 n=g6 v=59
93172 On ch=1 n=b7 v=0
93182 On ch=1 n=g6 v=0
93182 On ch=1 n=g6 v=56
93199 On ch=1 n=g6 v=0
93207 On ch=1 n=b7 v=56
93210 On ch=1 n=f#6 v=47
93224 On ch=1 n=b7 v=0
93227 On ch=1 n=f#6 v=0
93232 On ch=1 n=a7 v=52
93235 On ch=1 n=e6 v=50
93235 Par ch=1 c=64 v=96
93242 Par ch=1 c=64 v=0
93249 On ch=1 n=a7 v=0
93252 On ch=1 n=e6 v=0
93260 On ch=1 n=g7 v=44
93260 On ch=1 n=d6 v=50
93277 On ch=1 n=g7 v=0
93280 On ch=1 n=d6 v=0
93285 On ch=1 n=f#7 v=50
93287 On ch=1 n=c6 v=50
93302 On ch=1 n=f#7 v=0
93304 On ch=1 n=c6 v=0
93310 On ch=1 n=e7 v=47
93312 On ch=1 n=b5 v=50
93329 On ch=1 n=b5 v=0
93330 On ch=1 n=e7 v=0
93337 On ch=1 n=d7 v=44
93340 On ch=1 n=a5 v=47
93354 On ch=1 n=d7 v=0
93357 On ch=1 n=a5 v=0
93362 On ch=1 n=c7 v=44
93365 On ch=1 n=g5 v=50
93379 On ch=1 n=c7 v=0
93382 On ch=1 n=g5 v=0
93390 On ch=1 n=b6 v=44
93390 On ch=1 n=f#5 v=50
93407 On ch=1 n=b6 v=0
93410 On ch=1 n=f#5 v=0
93415 On ch=1 n=a6 v=47
93417 On ch=1 n=e5 v=40
93432 On ch=1 n=a6 v=0
93434 On ch=1 n=e5 v=0
93440 On ch=1 n=g6 v=52
93442 On ch=1 n=d5 v=47
93459 On ch=1 n=d5 v=0
93460 On ch=1 n=g6 v=0
93467 On ch=1 n=f#6 v=58
93470 On ch=1 n=c5 v=50
93484 On ch=1 n=f#6 v=0
93487 On ch=1 n=c5 v=0
93492 On ch=1 n=e6 v=52
93495 On ch=1 n=b4 v=48
93509 On ch=1 n=e6 v=0
93512 On ch=1 n=b4 v=0
93520 On ch=1 n=d6 v=52
93520 On ch=1 n=a4 v=56
93537 On ch=1 n=d6 v=0
93540 On ch=1 n=a4 v=0
93545 On ch=1 n=c6 v=52
93547 On ch=1 n=g4 v=59
93562 On ch=1 n=c6 v=0
93564 On ch=1 n=g4 v=0
93570 On ch=1 n=b5 v=50
93572 On ch=1 n=f#4 v=55
93589 On ch=1 n=f#4 v=0
93590 On ch=1 n=b5 v=0
93597 On ch=1 n=a5 v=50
93600 On ch=1 n=e4 v=59
93614 On ch=1 n=a5 v=0
93617 On ch=1 n=e4 v=0
93622 On ch=1 n=g5 v=52
93625 On ch=1 n=d4 v=62
93639 On ch=1 n=g5 v=0
93642 On ch=1 n=d4 v=0
93650 On ch=1 n=f#5 v=47
93650 On ch=1 n=c4 v=59
93667 On ch=1 n=f#5 v=0
93670 On ch=1 n=c4 v=0
93675 On ch=1 n=e5 v=49
93677 On ch=1 n=b3 v=59
93692 On ch=1 n=e5 v=0
93694 On ch=1 n=b3 v=0
93700 On ch=1 n=d5 v=47
93702 On ch=1 n=a3 v=62
93719 On ch=1 n=a3 v=0
93720 On ch=1 n=d5 v=0
93727 On ch=1 n=c5 v=47
93730 On ch=1 n=g3 v=59
93744 On ch=1 n=c5 v=0
93747 On ch=1 n=g3 v=0
93752 On ch=1 n=b4 v=51
93755 On ch=1 n=f#3 v=44
93769 On ch=1 n=b4 v=0
93772 On ch=1 n=f#3 v=0
93780 On ch=1 n=a4 v=56
93780 On ch=1 n=e3 v=52
93797 On ch=1 n=a4 v=0
93800 On ch=1 n=e3 v=0
93805 On ch=1 n=g4 v=52
93807 On ch=1 n=d3 v=56
93822 On ch=1 n=g4 v=0
93824 On ch=1 n=d3 v=0
93830 On ch=1 n=f#4 v=58
93832 On ch=1 n=c3 v=44
93849 On ch=1 n=c3 v=0
93850 On ch=1 n=f#4 v=0
93857 On ch=1 n=e4 v=56
93860 On ch=1 n=b2 v=52
93874 On ch=1 n=e4 v=0
93877 On ch=1 n=b2 v=0
93882 On ch=1 n=d4 v=56
93885 On ch=1 n=a2 v=59
93899 On ch=1 n=d4 v=0
93902 On ch=1 n=a2 v=0
93910 On ch=1 n=c4 v=56
93910 On ch=1 n=d3 v=56
93927 On ch=1 n=c4 v=0
93930 On ch=1 n=d3 v=0
93935 On ch=1 n=b3 v=47
93937 On ch=1 n=c3 v=50
93952 On ch=1 n=b3 v=0
93954 On ch=1 n=c3 v=0
93960 On ch=1 n=a3 v=47
93980 On ch=1 n=a3 v=0
93980 On ch=1 n=g3 v=70
93985 On ch=1 n=g2 v=67
93990 On ch=1 n=b2 v=72
94125 Par ch=1 c=64 v=64
94190 Par ch=1 c=64 v=96
94280 Par ch=1 c=64 v=127
94340 On ch=1 n=g3 v=0
94345 On ch=1 n=g2 v=0
94350 On ch=1 n=b2 v=0
94460 On ch=1 n=d3 v=50
94460 On ch=1 n=g3 v=41
94477 On ch=1 n=g3 v=0
94477 On ch=1 n=d3 v=0
94485 On ch=1 n=d3 v=59
94485 On ch=1 n=b3 v=56
94502 On ch=1 n=b3 v=0
94502 On ch=1 n=d3 v=0
94510 On ch=1 n=d4 v=70
94510 On ch=1 n=g3 v=62
94530 On ch=1 n=g3 v=0
94530 On ch=1 n=d4 v=0
94537 On ch=1 n=g4 v=62
94537 On ch=1 n=b3 v=50
94554 On ch=1 n=b3 v=0
94554 On ch=1 n=g4 v=0
94562 On ch=1 n=b4 v=63
94562 On ch=1 n=d4 v=52
94579 On ch=1 n=d4 v=0
94579 On ch=1 n=b4 v=0
94590 On ch=1 n=g4 v=47
94590 On ch=1 n=d5 v=59
94607 On ch=1 n=d5 v=0
94607 On ch=1 n=g4 v=0
94615 On ch=1 n=g5 v=62
94615 On ch=1 n=b4 v=54
94632 On ch=1 n=b4 v=0
94632 On ch=1 n=g5 v=0
94640 On ch=1 n=b5 v=59
94640 On ch=1 n=d5 v=44
94660 On ch=1 n=d5 v=0
94660 On ch=1 n=b5 v=0
94667 On ch=1 n=d6 v=59
94667 On ch=1 n=g5 v=56
94684 On ch=1 n=g5 v=0
94684 On ch=1 n=d6 v=0
94692 On ch=1 n=b5 v=50
94692 On ch=1 n=g6 v=67
94709 On ch=1 n=g6 v=0
94709 On ch=1 n=b5 v=0
94720 On ch=1 n=b6 v=56
94720 On ch=1 n=d6 v=47
94737 On ch=1 n=d6 v=0
94737 On ch=1 n=b6 v=0
94745 On ch=1 n=d7 v=59
94745 On ch=1 n=g6 v=44
94762 On ch=1 n=g6 v=0
94762 On ch=1 n=d7 v=0
94770 On ch=1 n=g7 v=59
94770 On ch=1 n=b6 v=56
94790 On ch=1 n=b6 v=0
94790 On ch=1 n=g7 v=0
94797 On ch=1 n=b7 v=56
94797 On ch=1 n=d7 v=47
94814 On ch=1 n=d7 v=0
94814 On ch=1 n=b7 v=0
94817 On ch=1 n=g7 v=75
94822 On ch=1 n=d8 v=66
95282 On ch=1 n=d8 v=0
95292 Par ch=1 c=64 v=96
95297 On ch=1 n=g7 v=0
95300 On ch=1 n=c8 v=47
95300 On ch=1 n=e7 v=41
95312 Par ch=1 c=64 v=64
95317 On ch=1 n=e7 v=0
95317 On ch=1 n=c8 v=0
95325 On ch=1 n=b7 v=50
95325 On ch=1 n=d7 v=41
95342 On ch=1 n=d7 v=0
95342 On ch=1 n=b7 v=0
95350 On ch=1 n=a7 v=59
95350 On ch=1 n=c7 v=41
95362 Par ch=1 c=64 v=0
95370 On ch=1 n=c7 v=0
95370 On ch=1 n=a7 v=0
95377 On ch=1 n=g7 v=59
95377 On ch=1 n=b6 v=47
95394 On ch=1 n=b6 v=0
95394 On ch=1 n=g7 v=0
95402 On ch=1 n=a6 v=36
95402 On ch=1 n=f#7 v=68
95419 On ch=1 n=f#7 v=0
95419 On ch=1 n=a6 v=0
95430 On ch=1 n=g6 v=50
95430 On ch=1 n=e7 v=62
95447 On ch=1 n=e7 v=0
95447 On ch=1 n=g6 v=0
95455 On ch=1 n=f#6 v=44
95455 On ch=1 n=d7 v=62
95472 On ch=1 n=d7 v=0
95472 On ch=1 n=f#6 v=0
95480 On ch=1 n=c7 v=62
95480 On ch=1 n=e6 v=29
95500 On ch=1 n=e6 v=0
95500 On ch=1 n=c7 v=0
95507 On ch=1 n=d6 v=56
95507 On ch=1 n=b6 v=62
95524 On ch=1 n=b6 v=0
95524 On ch=1 n=d6 v=0
95532 On ch=1 n=c6 v=44
95532 On ch=1 n=a6 v=67
95549 On ch=1 n=a6 v=0
95549 On ch=1 n=c6 v=0
95560 On ch=1 n=b5 v=52
95560 On ch=1 n=g6 v=67
95577 On ch=1 n=g6 v=0
95577 On ch=1 n=b5 v=0
95585 On ch=1 n=f#6 v=63
95585 On ch=1 n=a5 v=59
95602 On ch=1 n=a5 v=0
95602 On ch=1 n=f#6 v=0
95610 On ch=1 n=g5 v=59
95610 On ch=1 n=e6 v=56
95630 On ch=1 n=e6 v=0
95630 On ch=1 n=g5 v=0
95637 On ch=1 n=f#5 v=44
95637 On ch=1 n=d6 v=59
95654 On ch=1 n=d6 v=0
95654 On ch=1 n=f#5 v=0
95662 On ch=1 n=e5 v=47
95662 On ch=1 n=c6 v=59
95679 On ch=1 n=c6 v=0
95679 On ch=1 n=e5 v=0
95690 On ch=1 n=d5 v=26
95690 On ch=1 n=b5 v=52
95707 On ch=1 n=b5 v=0
95707 On ch=1 n=d5 v=0
95715 On ch=1 n=a5 v=52
95715 On ch=1 n=c5 v=50
95732 On ch=1 n=c5 v=0
95732 On ch=1 n=a5 v=0
95740 On ch=1 n=b4 v=60
95740 On ch=1 n=g5 v=59
95760 On ch=1 n=g5 v=0
95760 On ch=1 n=b4 v=0
95767 On ch=1 n=a4 v=50
95767 On ch=1 n=f#5 v=68
95784 On ch=1 n=f#5 v=0
95784 On ch=1 n=a4 v=0
95792 On ch=1 n=e5 v=42
95792 On ch=1 n=g4 v=36
95809 On ch=1 n=g4 v=0
95809 On ch=1 n=e5 v=0
95820 On ch=1 n=f#4 v=50
95820 On ch=1 n=d5 v=56
95837 On ch=1 n=d5 v=0
95837 On ch=1 n=f#4 v=0
95845 On ch=1 n=e4 v=52
95845 On ch=1 n=c5 v=56
95862 On ch=1 n=c5 v=0
95862 On ch=1 n=e4 v=0
95870 On ch=1 n=d4 v=44
95870 On ch=1 n=b4 v=60
95890 On ch=1 n=b4 v=0
95890 On ch=1 n=d4 v=0
95897 On ch=1 n=a4 v=56
95897 On ch=1 n=c4 v=34
95914 On ch=1 n=c4 v=0
95914 On ch=1 n=a4 v=0
95922 On ch=1 n=b3 v=47
95922 On ch=1 n=g4 v=56
95939 On ch=1 n=g4 v=0
95939 On ch=1 n=b3 v=0
95950 On ch=1 n=a3 v=59
95950 On ch=1 n=f#4 v=63
95967 On ch=1 n=f#4 v=0
95967 On ch=1 n=a3 v=0
95975 On ch=1 n=g2 v=59
95975 On ch=1 n=b2 v=62
95975 On ch=1 n=g3 v=67
96455 On ch=1 n=g3 v=0
96455 On ch=1 n=b2 v=0
96455 On ch=1 n=g2 v=0
96455 On ch=1 n=c3 v=21
96455 On ch=1 n=g#3 v=20
96480 On ch=1 n=g#3 v=0
96480 On ch=1 n=c3 v=0
96480 On ch=1 n=a3 v=29
96480 On ch=1 n=c#3 v=32
96507 On ch=1 n=c#3 v=0
96507 On ch=1 n=a3 v=0
96507 On ch=1 n=a#3 v=42
96507 On ch=1 n=d3 v=25
96532 On ch=1 n=d3 v=0
96532 On ch=1 n=a#3 v=0
96532 On ch=1 n=d#3 v=38
96532 On ch=1 n=b3 v=36
96559 On ch=1 n=b3 v=0
96559 On ch=1 n=d#3 v=0
96560 On ch=1 n=c4 v=47
96560 On ch=1 n=e3 v=44
96585 On ch=1 n=e3 v=0
96585 On ch=1 n=c4 v=0
96585 On ch=1 n=c#4 v=58
96585 On ch=1 n=f3 v=54
96610 On ch=1 n=f3 v=0
96610 On ch=1 n=c#4 v=0
96610 On ch=1 n=f#3 v=58
96610 On ch=1 n=d4 v=52
96637 On ch=1 n=d4 v=0
96637 On ch=1 n=f#3 v=0
96637 On ch=1 n=d#4 v=63
96637 On ch=1 n=g3 v=44
96662 On ch=1 n=g3 v=0
96662 On ch=1 n=d#4 v=0
96662 On ch=1 n=g#3 v=55
96662 On ch=1 n=e4 v=62
96689 On ch=1 n=e4 v=0
96689 On ch=1 n=g#3 v=0
96690 On ch=1 n=f4 v=56
96690 On ch=1 n=a3 v=52
96715 On ch=1 n=a3 v=0
96715 On ch=1 n=f4 v=0
96715 On ch=1 n=a#3 v=59
96715 Par ch=1 c=64 v=64
96715 On ch=1 n=f#4 v=55
96740 On ch=1 n=f#4 v=0
96740 On ch=1 n=a#3 v=0
96740 On ch=1 n=g4 v=47
96740 On ch=1 n=b3 v=44
96767 On ch=1 n=b3 v=0
96767 On ch=1 n=g4 v=0
96767 On ch=1 n=g#4 v=67
96767 On ch=1 n=c4 v=26
96792 On ch=1 n=c4 v=0
96792 On ch=1 n=g#4 v=0
96792 On ch=1 n=a4 v=52
96792 On ch=1 n=c#4 v=63
96819 On ch=1 n=c#4 v=0
96819 On ch=1 n=a4 v=0
96820 On ch=1 n=a#4 v=63
96820 On ch=1 n=d4 v=47
96845 On ch=1 n=d4 v=0
96845 On ch=1 n=a#4 v=0
96845 On ch=1 n=d#4 v=63
96845 On ch=1 n=b4 v=66
96870 On ch=1 n=b4 v=0
96870 On ch=1 n=d#4 v=0
96870 On ch=1 n=e4 v=47
96870 On ch=1 n=c5 v=59
96890 Par ch=1 c=64 v=96
96897 On ch=1 n=c5 v=0
96897 On ch=1 n=e4 v=0
96897 On ch=1 n=c#5 v=67
96897 On ch=1 n=f4 v=60
96922 On ch=1 n=f4 v=0
96922 On ch=1 n=c#5 v=0
96922 On ch=1 n=d5 v=52
96922 On ch=1 n=f#4 v=58
96949 On ch=1 n=f#4 v=0
96949 On ch=1 n=d5 v=0
96950 On ch=1 n=d#5 v=55
96950 On ch=1 n=g4 v=44
96970 Par ch=1 c=64 v=127
96975 On ch=1 n=g4 v=0
96975 On ch=1 n=d#5 v=0
96975 On ch=1 n=e5 v=55
96975 On ch=1 n=g#4 v=59
97000 On ch=1 n=g#4 v=0
97000 On ch=1 n=e5 v=0
97000 On ch=1 n=a4 v=52
97000 On ch=1 n=f5 v=67
97027 On ch=1 n=f5 v=0
97027 On ch=1 n=a4 v=0
97027 On ch=1 n=a#4 v=58
97027 On ch=1 n=f#5 v=68
97052 On ch=1 n=f#5 v=0
97052 On ch=1 n=a#4 v=0
97052 On ch=1 n=g5 v=67
97052 On ch=1 n=b4 v=66
97079 On ch=1 n=b4 v=0
97079 On ch=1 n=g5 v=0
97080 On ch=1 n=a#4 v=35
97080 On ch=1 n=f#5 v=55
97105 On ch=1 n=f#5 v=0
97105 On ch=1 n=a#4 v=0
97105 On ch=1 n=f5 v=50
97105 On ch=1 n=a4 v=39
97130 On ch=1 n=a4 v=0
97130 On ch=1 n=f5 v=0
97130 On ch=1 n=e5 v=40
97130 On ch=1 n=g#4 v=42
97157 On ch=1 n=g#4 v=0
97157 On ch=1 n=e5 v=0
97157 On ch=1 n=d#5 v=58
97157 On ch=1 n=g4 v=26
97182 On ch=1 n=g4 v=0
97182 On ch=1 n=d#5 v=0
97182 On ch=1 n=d5 v=44
97182 On ch=1 n=f#4 v=47
97200 Par ch=1 c=64 v=96
97209 On ch=1 n=f#4 v=0
97209 On ch=1 n=d5 v=0
97210 On ch=1 n=c#5 v=59
97210 On ch=1 n=f4 v=43
97235 On ch=1 n=f4 v=0
97235 On ch=1 n=c#5 v=0
97235 On ch=1 n=e4 v=50
97235 On ch=1 n=c5 v=56
97260 On ch=1 n=c5 v=0
97260 On ch=1 n=e4 v=0
97260 On ch=1 n=b4 v=51
97260 On ch=1 n=d#4 v=55
97267 Par ch=1 c=64 v=64
97287 On ch=1 n=d#4 v=0
97287 On ch=1 n=b4 v=0
97287 On ch=1 n=d4 v=39
97287 On ch=1 n=a#4 v=50
97312 On ch=1 n=a#4 v=0
97312 On ch=1 n=d4 v=0
97312 On ch=1 n=a4 v=52
97312 On ch=1 n=c#4 v=55
97315 Par ch=1 c=64 v=0
97339 On ch=1 n=c#4 v=0
97339 On ch=1 n=a4 v=0
97340 On ch=1 n=c4 v=44
97340 On ch=1 n=g#4 v=62
97365 On ch=1 n=g#4 v=0
97365 On ch=1 n=c4 v=0
97365 On ch=1 n=g4 v=50
97365 On ch=1 n=b3 v=12
97390 On ch=1 n=b3 v=0
97390 On ch=1 n=g4 v=0
97390 On ch=1 n=f#4 v=58
97390 On ch=1 n=a#3 v=48
97417 On ch=1 n=a#3 v=0
97417 On ch=1 n=f#4 v=0
97417 On ch=1 n=f4 v=60
97417 On ch=1 n=a3 v=47
97442 On ch=1 n=a3 v=0
97442 On ch=1 n=f4 v=0
97442 On ch=1 n=e4 v=52
97442 On ch=1 n=g#3 v=50
97469 On ch=1 n=g#3 v=0
97469 On ch=1 n=e4 v=0
97470 On ch=1 n=g3 v=44
97470 On ch=1 n=d#4 v=55
97495 On ch=1 n=d#4 v=0
97495 On ch=1 n=g3 v=0
97495 On ch=1 n=d4 v=39
97495 On ch=1 n=f#3 v=35
97520 On ch=1 n=f#3 v=0
97520 On ch=1 n=d4 v=0
97520 On ch=1 n=f3 v=38
97520 On ch=1 n=c#4 v=50
97547 On ch=1 n=c#4 v=0
97547 On ch=1 n=f3 v=0
97547 On ch=1 n=c4 v=41
97547 On ch=1 n=e3 v=44
97572 On ch=1 n=e3 v=0
97572 On ch=1 n=c4 v=0
97572 On ch=1 n=b3 v=34
97572 On ch=1 n=d#3 v=40
97599 On ch=1 n=d#3 v=0
97599 On ch=1 n=b3 v=0
97600 On ch=1 n=d3 v=31
97600 On ch=1 n=a#3 v=44
97625 On ch=1 n=a#3 v=0
97625 On ch=1 n=d3 v=0
97625 On ch=1 n=a3 v=36
97625 On ch=1 n=c#3 v=38
97650 On ch=1 n=c#3 v=0
97650 On ch=1 n=a3 v=0
97650 On ch=1 n=g#3 v=38
97650 On ch=1 n=c3 v=34
97675 On ch=1 n=g2 v=70
97675 On ch=1 n=b2 v=75
97675 On ch=1 n=g3 v=86
97677 On ch=1 n=c3 v=0
97677 On ch=1 n=g#3 v=0
97795 On ch=1 n=g3 v=0
97795 On ch=1 n=b2 v=0
97795 On ch=1 n=g2 v=0
98155 On ch=1 n=g4 v=86
98155 On ch=1 n=g5 v=86
98155 On ch=1 n=g8 v=86
98155 On ch=1 n=g7 v=70
98155 On ch=1 n=b4 v=74
98155 On ch=1 n=b7 v=75
98155 On ch=1 n=d8 v=79
98155 On ch=1 n=d5 v=75
98275 On ch=1 n=d5 v=0
98275 On ch=1 n=d8 v=0
98275 On ch=1 n=b7 v=0
98275 On ch=1 n=b4 v=0
98275 On ch=1 n=g7 v=0
98275 On ch=1 n=g8 v=0
98275 On ch=1 n=g5 v=0
98275 On ch=1 n=g4 v=0
98275 Meta TrkEnd
TrkEnd
MTrk
0 SeqSpec 43 00 01 00
0 Meta TrkName "Piano 2 Left        "
0 Meta 0x21 00
0 PrCh ch=1 p=0
0 On ch=1 n=g2 v=80
310 Par ch=1 c=64 v=64
320 Par ch=1 c=64 v=96
337 Par ch=1 c=64 v=127
480 On ch=1 n=g2 v=0
480 On ch=1 n=g2 v=52
530 On ch=1 n=g2 v=0
530 On ch=1 n=a#2 v=59
582 On ch=1 n=a#2 v=0
582 On ch=1 n=d3 v=32
634 On ch=1 n=d3 v=0
635 On ch=1 n=g3 v=54
687 On ch=1 n=g3 v=0
687 On ch=1 n=a#3 v=50
739 On ch=1 n=a#3 v=0
740 On ch=1 n=d4 v=51
790 On ch=1 n=d4 v=0
790 On ch=1 n=g4 v=52
842 On ch=1 n=g4 v=0
842 On ch=1 n=a#4 v=63
894 On ch=1 n=a#4 v=0
895 On ch=1 n=d5 v=69
947 On ch=1 n=d5 v=0
947 On ch=1 n=g5 v=75
1180 Par ch=1 c=64 v=96
1207 Par ch=1 c=64 v=64
1230 Par ch=1 c=64 v=0
1380 Par ch=1 c=64 v=64
1400 Par ch=1 c=64 v=96
1442 On ch=1 n=g5 v=0
1460 On ch=1 n=f#5 v=50
1477 On ch=1 n=f#5 v=0
1482 On ch=1 n=d#5 v=44
1499 On ch=1 n=d#5 v=0
1505 On ch=1 n=d5 v=44
1520 On ch=1 n=d5 v=0
1527 On ch=1 n=c5 v=47
1542 On ch=1 n=c5 v=0
1550 On ch=1 n=a#4 v=35
1565 On ch=1 n=a#4 v=0
1570 On ch=1 n=a4 v=44
1587 On ch=1 n=a4 v=0
1592 On ch=1 n=g4 v=47
1609 On ch=1 n=g4 v=0
1615 On ch=1 n=f#4 v=47
1630 On ch=1 n=f#4 v=0
1637 On ch=1 n=d#4 v=58
1652 On ch=1 n=d#4 v=0
1660 On ch=1 n=d4 v=56
1675 On ch=1 n=d4 v=0
1680 On ch=1 n=c4 v=52
1697 On ch=1 n=c4 v=0
1702 On ch=1 n=a#3 v=55
1719 On ch=1 n=a#3 v=0
1725 On ch=1 n=a3 v=59
1740 On ch=1 n=a3 v=0
1747 On ch=1 n=g3 v=56
1762 On ch=1 n=g3 v=0
1770 On ch=1 n=f#3 v=47
1785 On ch=1 n=f#3 v=0
1790 On ch=1 n=d#3 v=58
1807 On ch=1 n=d#3 v=0
1812 On ch=1 n=d3 v=52
1829 On ch=1 n=d3 v=0
1835 On ch=1 n=c3 v=50
1850 On ch=1 n=c3 v=0
1857 On ch=1 n=a#2 v=48
1857 Par ch=1 c=64 v=64
1872 On ch=1 n=a#2 v=0
1880 On ch=1 n=a2 v=47
1895 On ch=1 n=a2 v=0
1920 On ch=1 n=g2 v=80
1930 Par ch=1 c=64 v=0
2057 Par ch=1 c=64 v=64
2100 Par ch=1 c=64 v=96
2190 Par ch=1 c=64 v=127
2415 On ch=1 n=g2 v=0
2440 On ch=1 n=a#2 v=48
2470 On ch=1 n=a#2 v=0
2480 On ch=1 n=d3 v=41
2510 On ch=1 n=d3 v=0
2520 On ch=1 n=g3 v=52
2550 On ch=1 n=g3 v=0
2560 On ch=1 n=a#3 v=38
2590 On ch=1 n=a#3 v=0
2600 On ch=1 n=d4 v=47
2630 On ch=1 n=d4 v=0
2640 On ch=1 n=g4 v=50
2670 On ch=1 n=g4 v=0
2680 On ch=1 n=a#4 v=40
2710 On ch=1 n=a#4 v=0
2720 On ch=1 n=d5 v=50
2750 On ch=1 n=d5 v=0
2760 On ch=1 n=g5 v=39
2790 On ch=1 n=g5 v=0
2800 On ch=1 n=a#5 v=44
2827 Par ch=1 c=64 v=96
2830 On ch=1 n=a#5 v=0
2837 Par ch=1 c=64 v=64
2840 On ch=1 n=d6 v=41
2845 Par ch=1 c=64 v=0
2870 On ch=1 n=d6 v=0
2880 On ch=1 n=g6 v=80
2892 Par ch=1 c=64 v=96
2900 Par ch=1 c=64 v=127
3360 On ch=1 n=g6 v=0
3375 On ch=1 n=f#6 v=55
3387 On ch=1 n=f#6 v=0
3390 On ch=1 n=d#6 v=55
3402 On ch=1 n=d#6 v=0
3407 On ch=1 n=d6 v=50
3417 Par ch=1 c=64 v=96
3419 On ch=1 n=d6 v=0
3422 On ch=1 n=c6 v=56
3434 On ch=1 n=c6 v=0
3440 On ch=1 n=a#5 v=58
3450 On ch=1 n=a#5 v=0
3455 On ch=1 n=a5 v=52
3467 On ch=1 n=a5 v=0
3470 On ch=1 n=g5 v=62
3482 On ch=1 n=g5 v=0
3487 On ch=1 n=f#5 v=55
3499 On ch=1 n=f#5 v=0
3502 On ch=1 n=d#5 v=63
3514 On ch=1 n=d#5 v=0
3520 On ch=1 n=d5 v=56
3530 On ch=1 n=d5 v=0
3535 On ch=1 n=c5 v=47
3540 Par ch=1 c=64 v=127
3547 On ch=1 n=c5 v=0
3550 On ch=1 n=a#4 v=50
3562 On ch=1 n=a#4 v=0
3567 On ch=1 n=a4 v=56
3579 On ch=1 n=a4 v=0
3582 On ch=1 n=g4 v=50
3594 On ch=1 n=g4 v=0
3600 On ch=1 n=f#4 v=58
3610 On ch=1 n=f#4 v=0
3615 On ch=1 n=d#4 v=55
3627 On ch=1 n=d#4 v=0
3630 On ch=1 n=d4 v=56
3642 On ch=1 n=d4 v=0
3647 On ch=1 n=c4 v=50
3659 On ch=1 n=c4 v=0
3662 On ch=1 n=a#3 v=50
3674 On ch=1 n=a#3 v=0
3680 On ch=1 n=a3 v=56
3690 On ch=1 n=a3 v=0
3695 On ch=1 n=g3 v=52
3707 On ch=1 n=g3 v=0
3710 On ch=1 n=f#3 v=58
3722 On ch=1 n=f#3 v=0
3727 On ch=1 n=d#3 v=63
3739 On ch=1 n=d#3 v=0
3742 On ch=1 n=d3 v=62
3754 On ch=1 n=d3 v=0
3760 On ch=1 n=c3 v=52
3770 On ch=1 n=c3 v=0
3772 Par ch=1 c=64 v=96
3775 On ch=1 n=a#2 v=48
3780 Par ch=1 c=64 v=64
3787 On ch=1 n=a#2 v=0
3787 Par ch=1 c=64 v=0
3792 On ch=1 n=a2 v=62
3804 On ch=1 n=a2 v=0
3807 On ch=1 n=d3 v=50
3819 On ch=1 n=d3 v=0
3822 On ch=1 n=c3 v=52
3834 On ch=1 n=c3 v=0
3837 Par ch=1 c=64 v=64
3840 On ch=1 n=a#2 v=62
3840 On ch=1 n=g2 v=70
3857 Par ch=1 c=64 v=96
3887 Par ch=1 c=64 v=127
4310 On ch=1 n=g2 v=0
4310 On ch=1 n=a#2 v=0
4352 On ch=1 n=d3 v=59
4377 On ch=1 n=d3 v=0
4387 On ch=1 n=g3 v=56
4409 On ch=1 n=g3 v=0
4420 On ch=1 n=a#3 v=58
4445 On ch=1 n=a#3 v=0
4455 On ch=1 n=d4 v=62
4480 On ch=1 n=d4 v=0
4490 On ch=1 n=g4 v=52
4512 On ch=1 n=g4 v=0
4522 On ch=1 n=a#4 v=55
4547 On ch=1 n=a#4 v=0
4557 On ch=1 n=d5 v=44
4579 On ch=1 n=d5 v=0
4590 On ch=1 n=g5 v=47
4615 On ch=1 n=g5 v=0
4625 On ch=1 n=a#5 v=47
4650 On ch=1 n=a#5 v=0
4660 On ch=1 n=d6 v=56
4682 On ch=1 n=d6 v=0
4692 On ch=1 n=g6 v=59
4717 On ch=1 n=g6 v=0
4727 On ch=1 n=a#6 v=55
4745 Par ch=1 c=64 v=96
4749 On ch=1 n=a#6 v=0
4752 Par ch=1 c=64 v=64
4760 On ch=1 n=d7 v=63
4762 Par ch=1 c=64 v=0
4785 On ch=1 n=d7 v=0
4795 On ch=1 n=g7 v=67
4800 Par ch=1 c=64 v=64
4810 Par ch=1 c=64 v=127
5267 On ch=1 n=g7 v=0
5290 Par ch=1 c=64 v=96
5292 On ch=1 n=d#7 v=58
5292 Par ch=1 c=64 v=64
5300 Par ch=1 c=64 v=0
5302 On ch=1 n=d#7 v=0
5307 On ch=1 n=d7 v=43
5310 Par ch=1 c=64 v=64
5312 Par ch=1 c=64 v=96
5317 On ch=1 n=d7 v=0
5317 Par ch=1 c=64 v=127
5320 On ch=1 n=c7 v=56
5330 On ch=1 n=c7 v=0
5335 On ch=1 n=a#6 v=63
5345 On ch=1 n=a#6 v=0
5350 On ch=1 n=a6 v=52
5360 On ch=1 n=a6 v=0
5362 On ch=1 n=g6 v=47
5372 On ch=1 n=g6 v=0
5377 On ch=1 n=f#6 v=50
5387 On ch=1 n=f#6 v=0
5390 On ch=1 n=d#6 v=47
5400 On ch=1 n=d#6 v=0
5405 On ch=1 n=d6 v=52
5415 On ch=1 n=d6 v=0
5420 On ch=1 n=c6 v=56
5430 On ch=1 n=c6 v=0
5432 On ch=1 n=a#5 v=58
5442 On ch=1 n=a#5 v=0
5447 On ch=1 n=a5 v=44
5457 On ch=1 n=a5 v=0
5460 On ch=1 n=g5 v=44
5470 On ch=1 n=g5 v=0
5475 On ch=1 n=f#5 v=50
5485 On ch=1 n=f#5 v=0
5490 On ch=1 n=d#5 v=50
5500 On ch=1 n=d#5 v=0
5502 On ch=1 n=d5 v=52
5512 On ch=1 n=d5 v=0
5517 On ch=1 n=c5 v=56
5527 On ch=1 n=c5 v=0
5530 On ch=1 n=a#4 v=55
5540 On ch=1 n=a#4 v=0
5545 On ch=1 n=a4 v=50
5555 On ch=1 n=a4 v=0
5560 On ch=1 n=g4 v=56
5570 On ch=1 n=g4 v=0
5572 On ch=1 n=f#4 v=55
5582 On ch=1 n=f#4 v=0
5587 On ch=1 n=d#4 v=55
5597 On ch=1 n=d#4 v=0
5600 On ch=1 n=d4 v=52
5610 On ch=1 n=d4 v=0
5615 On ch=1 n=c4 v=62
5625 On ch=1 n=c4 v=0
5630 On ch=1 n=a#3 v=58
5640 On ch=1 n=a#3 v=0
5642 On ch=1 n=a3 v=59
5652 On ch=1 n=a3 v=0
5657 On ch=1 n=g3 v=52
5667 On ch=1 n=g3 v=0
5670 On ch=1 n=f#3 v=63
5677 Par ch=1 c=64 v=96
5680 On ch=1 n=f#3 v=0
5680 Par ch=1 c=64 v=64
5685 On ch=1 n=d#3 v=63
5687 Par ch=1 c=64 v=0
5695 On ch=1 n=d#3 v=0
5700 On ch=1 n=d3 v=59
5710 On ch=1 n=d3 v=0
5712 On ch=1 n=c3 v=50
5722 On ch=1 n=c3 v=0
5722 On ch=1 n=a#2 v=67
5722 On ch=1 n=g2 v=67
5740 Par ch=1 c=64 v=64
5745 Par ch=1 c=64 v=96
5752 Par ch=1 c=64 v=127
6187 On ch=1 n=g2 v=0
6189 On ch=1 n=a#2 v=0
6240 On ch=1 n=a#2 v=39
6260 On ch=1 n=a#2 v=0
6270 On ch=1 n=b2 v=20
6290 On ch=1 n=b2 v=0
6300 On ch=1 n=c3 v=39
6320 On ch=1 n=c3 v=0
6330 On ch=1 n=c#3 v=50
6340 Par ch=1 c=64 v=96
6350 On ch=1 n=c#3 v=0
6360 On ch=1 n=d3 v=52
6380 On ch=1 n=d3 v=0
6390 On ch=1 n=d#3 v=58
6410 On ch=1 n=d#3 v=0
6420 On ch=1 n=e3 v=52
6440 On ch=1 n=e3 v=0
6450 On ch=1 n=f3 v=45
6450 Par ch=1 c=64 v=64
6470 On ch=1 n=f3 v=0
6480 On ch=1 n=f#3 v=63
6500 On ch=1 n=f#3 v=0
6510 On ch=1 n=g3 v=39
6530 On ch=1 n=g3 v=0
6540 On ch=1 n=g#3 v=62
6560 On ch=1 n=g#3 v=0
6570 On ch=1 n=a3 v=41
6590 On ch=1 n=a3 v=0
6600 On ch=1 n=a#3 v=55
6620 On ch=1 n=a#3 v=0
6630 On ch=1 n=b3 v=63
6650 On ch=1 n=b3 v=0
6660 On ch=1 n=c4 v=50
6680 On ch=1 n=c4 v=0
6690 On ch=1 n=c#4 v=51
6710 On ch=1 n=c#4 v=0
6710 Par ch=1 c=64 v=96
6720 On ch=1 n=d4 v=52
6740 On ch=1 n=d4 v=0
6750 On ch=1 n=d#4 v=58
6770 On ch=1 n=d#4 v=0
6770 Par ch=1 c=64 v=127
6780 On ch=1 n=e4 v=52
6800 On ch=1 n=e4 v=0
6810 On ch=1 n=f4 v=47
6830 On ch=1 n=f4 v=0
6840 On ch=1 n=f#4 v=63
6860 On ch=1 n=f#4 v=0
6870 On ch=1 n=g4 v=56
6890 On ch=1 n=g4 v=0
6900 On ch=1 n=g#4 v=55
6920 On ch=1 n=g#4 v=0
6930 On ch=1 n=a4 v=56
6950 On ch=1 n=a4 v=0
6960 On ch=1 n=a#4 v=47
6980 On ch=1 n=a#4 v=0
6990 On ch=1 n=a4 v=34
7010 On ch=1 n=a4 v=0
7020 On ch=1 n=g#4 v=29
7040 On ch=1 n=g#4 v=0
7050 On ch=1 n=g4 v=50
7062 Par ch=1 c=64 v=96
7070 On ch=1 n=g4 v=0
7070 Par ch=1 c=64 v=64
7080 On ch=1 n=f#4 v=44
7100 On ch=1 n=f#4 v=0
7100 Par ch=1 c=64 v=0
7110 On ch=1 n=f4 v=52
7115 Par ch=1 c=64 v=64
7130 On ch=1 n=f4 v=0
7140 On ch=1 n=e4 v=37
7160 On ch=1 n=e4 v=0
7170 On ch=1 n=d#4 v=47
7190 On ch=1 n=d#4 v=0
7200 On ch=1 n=d4 v=47
7220 On ch=1 n=d4 v=0
7230 On ch=1 n=c#4 v=36
7250 On ch=1 n=c#4 v=0
7260 On ch=1 n=c4 v=44
7280 On ch=1 n=c4 v=0
7290 On ch=1 n=b3 v=40
7310 On ch=1 n=b3 v=0
7320 On ch=1 n=a#3 v=55
7340 On ch=1 n=a#3 v=0
7350 On ch=1 n=a3 v=39
7355 Par ch=1 c=64 v=0
7370 On ch=1 n=a3 v=0
7380 On ch=1 n=g#3 v=48
7400 On ch=1 n=g#3 v=0
7410 On ch=1 n=g3 v=36
7430 On ch=1 n=g3 v=0
7440 On ch=1 n=f#3 v=40
7460 On ch=1 n=f#3 v=0
7470 On ch=1 n=f3 v=48
7490 On ch=1 n=f3 v=0
7500 On ch=1 n=e3 v=34
7520 On ch=1 n=e3 v=0
7530 On ch=1 n=d#3 v=47
7550 On ch=1 n=d#3 v=0
7560 On ch=1 n=d3 v=44
7580 On ch=1 n=d3 v=0
7590 On ch=1 n=c#3 v=44
7610 On ch=1 n=c#3 v=0
7620 On ch=1 n=c3 v=34
7640 On ch=1 n=c3 v=0
7650 On ch=1 n=a#2 v=48
7670 On ch=1 n=a#2 v=0
7680 On ch=1 n=g2 v=67
7680 On ch=1 n=a#2 v=67
7860 On ch=1 n=a#2 v=0
7860 On ch=1 n=g2 v=0
7907 Par ch=1 c=64 v=64
7917 On ch=1 n=g4 v=70
7917 On ch=1 n=g5 v=80
7917 On ch=1 n=a#4 v=68
7917 On ch=1 n=d5 v=75
7919 Par ch=1 c=64 v=0
7952 Par ch=1 c=64 v=64
7959 Par ch=1 c=64 v=127
8097 On ch=1 n=d5 v=0
8097 On ch=1 n=a#4 v=0
8097 On ch=1 n=g5 v=0
8097 On ch=1 n=g4 v=0
8417 Par ch=1 c=64 v=96
8437 Par ch=1 c=64 v=64
8447 Par ch=1 c=64 v=0
9597 On ch=1 n=a#4 v=10
9617 On ch=1 n=a#4 v=0
9627 On ch=1 n=g4 v=10
9639 Par ch=1 c=64 v=64
9647 On ch=1 n=g4 v=0
9657 On ch=1 n=a#4 v=10
15865 On ch=1 n=c8 v=7
22073 On ch=1 n=g10 v=3
24179 On ch=1 n=c0 v=10
26282 On ch=1 n=a#0 v=20
28385 On ch=1 n=c0 v=10
30491 On ch=1 n=e1 v=20
32597 On ch=1 n=c0 v=10
34700 On ch=1 n=c1 v=20
36803 On ch=1 n=c0 v=10
38909 On ch=1 n=e1 v=20
41015 On ch=1 n=c0 v=10
43118 On ch=1 n=a#0 v=20
45221 On ch=1 n=c0 v=10
47327 On ch=1 n=e1 v=20
49433 On ch=1 n=c0 v=10
51536 On ch=1 n=a#0 v=20
53639 On ch=1 n=c0 v=10
55745 On ch=1 n=d#1 v=20
57851 On ch=1 n=c0 v=10
59954 On ch=1 n=e1 v=20
62057 On ch=1 n=c0 v=10
64163 On ch=1 n=a1 v=20
66269 On ch=1 n=c0 v=10
68372 On ch=1 n=d#1 v=20
70475 On ch=1 n=c0 v=10
72581 On ch=1 n=e1 v=20
74687 On ch=1 n=c0 v=10
76790 On ch=1 n=d#1 v=20
78893 On ch=1 n=c0 v=10
80999 On ch=1 n=e1 v=20
83105 On ch=1 n=c0 v=10
85208 On ch=1 n=a#0 v=20
87311 On ch=1 n=c0 v=10
89417 On ch=1 n=g#1 v=20
91523 On ch=1 n=c0 v=10
93626 On ch=1 n=g#1 v=20
95729 On ch=1 n=c0 v=10
97835 On ch=1 n=a1 v=20
99941 On ch=1 n=c0 v=10
102044 On ch=1 n=e1 v=20
104147 On ch=1 n=c0 v=10
106253 On ch=1 n=g#1 v=20
108359 On ch=1 n=c0 v=10
110462 On ch=1 n=a#0 v=20
112565 On ch=1 n=c0 v=10
114676 On ch=1 n=c1 v=10
120884 On ch=1 n=c8 v=10
122995 On ch=1 n=c0 v=0
129203 On ch=1 n=c0 v=10
131306 On ch=1 n=g1 v=20
133409 On ch=1 n=c0 v=5
139617 On ch=1 n=e5 v=5
141728 On ch=1 n=a1 v=7
147936 On ch=1 n=c8 v=10
150047 On ch=1 n=c0 v=10
152150 On ch=1 n=c1 v=7
158358 On ch=1 n=g10 v=10
160461 On ch=1 n=c0 v=10
162572 On ch=1 n=g#1 v=20
164683 On ch=1 n=c0 v=10
166786 On ch=1 n=d#1 v=20
168889 On ch=1 n=c0 v=10
171000 On ch=1 n=b1 v=20
173111 On ch=1 n=c0 v=10
175214 On ch=1 n=g1 v=20
177317 On ch=1 n=c0 v=10
179427 On ch=1 n=a1 v=0
185635 On ch=1 n=c8 v=10
191843 On ch=1 n=c0 v=10
193953 On ch=1 n=c0 v=10
196056 On ch=1 n=g#1 v=0
202264 On ch=1 n=e5 v=10
208472 On ch=1 n=c8 v=10
210575 On ch=1 n=c0 v=10
212685 On ch=1 n=b1 v=20
214795 On ch=1 n=c0 v=10
216898 On ch=1 n=e1 v=0
223106 On ch=1 n=g10 v=20
225209 On ch=1 n=c0 v=10
227319 On ch=1 n=g#1 v=20
229429 On ch=1 n=c0 v=10
231532 On ch=1 n=f1 v=20
233635 On ch=1 n=c0 v=10
235745 On ch=1 n=g#1 v=20
237855 On ch=1 n=c0 v=10
239958 On ch=1 n=c2 v=20
242061 On ch=1 n=c0 v=5
248269 On ch=1 n=c8 v=5
250377 On ch=1 n=b1 v=2
256585 On ch=1 n=c0 v=18
258693 On ch=1 n=c0 v=10
260796 On ch=1 n=f1 v=0
267004 On ch=1 n=e5 v=10
273212 On ch=1 n=c8 v=10
275315 On ch=1 n=c0 v=0
281523 On ch=1 n=g10 v=10
283631 On ch=1 n=d2 v=20
285739 On ch=1 n=c0 v=10
287842 On ch=1 n=b1 v=20
289945 On ch=1 n=c0 v=10
292053 On ch=1 n=g#1 v=20
294161 On ch=1 n=c0 v=10
296264 On ch=1 n=g1 v=20
298367 On ch=1 n=c0 v=10
300475 On ch=1 n=a1 v=20
302583 On ch=1 n=c0 v=10
304686 On ch=1 n=c1 v=20
306789 On ch=1 n=c0 v=0
312997 On ch=1 n=c8 v=5
319205 On ch=1 n=e5 v=5
321311 On ch=1 n=f#1 v=2
327519 On ch=1 n=c0 v=18
329625 On ch=1 n=c0 v=10
331728 On ch=1 n=e1 v=0
337936 On ch=1 n=e5 v=10
344144 On ch=1 n=c8 v=5
350352 On ch=1 n=g10 v=5
352455 On ch=1 n=c0 v=10
354561 On ch=1 n=g#1 v=20
356667 On ch=1 n=c0 v=10
358770 On ch=1 n=c1 v=20
360873 On ch=1 n=c0 v=10
362979 On ch=1 n=a0 v=20
365085 On ch=1 n=c0 v=10
367188 On ch=1 n=c1 v=20
369291 On ch=1 n=c0 v=10
371397 On ch=1 n=a#0 v=20
373503 On ch=1 n=c0 v=10
375606 On ch=1 n=a#0 v=20
377709 On ch=1 n=c0 v=10
379815 On ch=1 n=c2 v=20
381921 On ch=1 n=c0 v=10
384024 On ch=1 n=e1 v=20
386127 On ch=1 n=c0 v=10
388233 On ch=1 n=e1 v=20
390339 On ch=1 n=c0 v=10
392442 On ch=1 n=d#1 v=20
394545 On ch=1 n=c0 v=10
396651 On ch=1 n=g#1 v=20
398757 On ch=1 n=c0 v=10
400860 On ch=1 n=d#1 v=20
402963 On ch=1 n=c0 v=10
405069 On ch=1 n=e1 v=20
407175 On ch=1 n=c0 v=10
409278 On ch=1 n=a0 v=20
411381 On ch=1 n=c0 v=10
413487 On ch=1 n=e1 v=20
415593 On ch=1 n=c0 v=10
417696 On ch=1 n=c1 v=20
419799 On ch=1 n=c0 v=10
421905 On ch=1 n=f#1 v=20
424011 On ch=1 n=c0 v=10
426114 On ch=1 n=a#0 v=20
428217 On ch=1 n=c0 v=10
430323 On ch=1 n=g#1 v=20
432429 On ch=1 n=c0 v=10
434532 On ch=1 n=g1 v=20
436635 On ch=1 n=c0 v=10
438741 On ch=1 n=f#1 v=20
440847 On ch=1 n=c0 v=10
442950 On ch=1 n=e1 v=12
449158 On ch=1 n=c8 v=8
451261 On ch=1 n=c0 v=0
457469 On ch=1 n=c0 v=10
459574 On ch=1 n=e1 v=0
461675 On ch=1 n=c1 v=20
463776 On ch=1 n=c0 v=0
465881 On ch=1 n=c0 v=7
472089 On ch=1 n=e5 v=3
474190 On ch=1 n=d#1 v=5
480398 On ch=1 n=c8 v=7
486606 On ch=1 n=g10 v=8
488707 On ch=1 n=c0 v=10
490812 On ch=1 n=a1 v=20
492917 On ch=1 n=c0 v=10
495018 On ch=1 n=c1 v=20
497119 On ch=1 n=c0 v=10
499224 On ch=1 n=d#1 v=20
501329 On ch=1 n=c0 v=10
503430 On ch=1 n=c1 v=20
505531 On ch=1 n=c0 v=10
507636 On ch=1 n=g1 v=20
509741 On ch=1 n=c0 v=10
511842 On ch=1 n=g#1 v=7
518050 On ch=1 n=c8 v=8
524258 On ch=1 n=c0 v=5
526359 On ch=1 n=c0 v=10
528462 On ch=1 n=a1 v=0
530561 On ch=1 n=g#1 v=20
532660 On ch=1 n=c0 v=0
534763 On ch=1 n=c0 v=0
540971 On ch=1 n=e5 v=10
543070 On ch=1 n=f#1 v=0
549278 On ch=1 n=c8 v=7
555486 On ch=1 n=g10 v=10
557585 On ch=1 n=c0 v=10
559688 On ch=1 n=d#1 v=20
561791 On ch=1 n=c0 v=10
563890 On ch=1 n=f#1 v=20
565989 On ch=1 n=c0 v=10
568092 On ch=1 n=g1 v=20
570195 On ch=1 n=c0 v=10
572294 On ch=1 n=g#1 v=20
574393 On ch=1 n=c0 v=10
576496 On ch=1 n=e2 v=20
578599 On ch=1 n=c0 v=10
580698 On ch=1 n=c2 v=10
586906 On ch=1 n=e5 v=7
593114 On ch=1 n=c0 v=3
595213 On ch=1 n=c0 v=10
597314 On ch=1 n=g#1 v=0
599412 On ch=1 n=e1 v=17
605620 On ch=1 n=e5 v=3
607718 On ch=1 n=c0 v=0
609819 On ch=1 n=c0 v=2
616027 On ch=1 n=c8 v=8
618125 On ch=1 n=e1 v=0
624333 On ch=1 n=g10 v=20
626431 On ch=1 n=c0 v=10
628532 On ch=1 n=a#1 v=20
630633 On ch=1 n=c0 v=10
632731 On ch=1 n=a#0 v=20
634829 On ch=1 n=c0 v=10
636930 On ch=1 n=g1 v=20
639031 On ch=1 n=c0 v=10
641129 On ch=1 n=a#0 v=20
643227 On ch=1 n=c0 v=10
645328 On ch=1 n=g#1 v=20
647429 On ch=1 n=c0 v=10
649527 On ch=1 n=f1 v=7
655735 On ch=1 n=c8 v=5
661943 On ch=1 n=c0 v=8
664041 On ch=1 n=c0 v=10
666140 On ch=1 n=b1 v=0
668236 On ch=1 n=f1 v=20
670332 On ch=1 n=c0 v=0
672431 On ch=1 n=c0 v=0
678639 On ch=1 n=e5 v=10
680735 On ch=1 n=g#1 v=0
686943 On ch=1 n=c8 v=5
693151 On ch=1 n=g10 v=15
695247 On ch=1 n=c0 v=10
697346 On ch=1 n=b1 v=20
699445 On ch=1 n=c0 v=10
701541 On ch=1 n=e1 v=20
703637 On ch=1 n=c0 v=10
705736 On ch=1 n=b1 v=20
707835 On ch=1 n=c0 v=10
709931 On ch=1 n=d#1 v=20
712027 On ch=1 n=c0 v=10
714126 On ch=1 n=f#1 v=20
716225 On ch=1 n=c0 v=10
718321 On ch=1 n=a#0 v=20
720417 On ch=1 n=c0 v=10
722516 On ch=1 n=b1 v=20
724615 On ch=1 n=c0 v=10
726711 On ch=1 n=e1 v=20
728807 On ch=1 n=c0 v=10
730906 On ch=1 n=g#1 v=20
733005 On ch=1 n=c0 v=10
735101 On ch=1 n=a#0 v=20
737197 On ch=1 n=c0 v=10
739296 On ch=1 n=g#1 v=20
741395 On ch=1 n=c0 v=10
743491 On ch=1 n=c1 v=20
745587 On ch=1 n=c0 v=10
747686 On ch=1 n=f#1 v=20
749785 On ch=1 n=c0 v=10
751881 On ch=1 n=a#0 v=20
753977 On ch=1 n=c0 v=10
756076 On ch=1 n=e1 v=20
758175 On ch=1 n=c0 v=10
760271 On ch=1 n=f#0 v=20
762367 On ch=1 n=c0 v=10
764466 On ch=1 n=e1 v=20
766565 On ch=1 n=c0 v=10
768661 On ch=1 n=g0 v=20
770757 On ch=1 n=c0 v=10
772856 On ch=1 n=f#1 v=20
774955 On ch=1 n=c0 v=10
777051 On ch=1 n=d#1 v=20
779147 On ch=1 n=c0 v=10
781246 On ch=1 n=g#1 v=20
783345 On ch=1 n=c0 v=5
789553 On ch=1 n=c8 v=5
791649 On ch=1 n=e1 v=2
797857 On ch=1 n=c0 v=18
799953 On ch=1 n=c0 v=10
802052 On ch=1 n=f#1 v=10
808260 On ch=1 n=e5 v=7
814468 On ch=1 n=c8 v=3
816567 On ch=1 n=c0 v=2
822775 On ch=1 n=g10 v=8
824871 On ch=1 n=g#0 v=20
826967 On ch=1 n=c0 v=10
829066 On ch=1 n=a#0 v=20
831165 On ch=1 n=c0 v=10
833261 On ch=1 n=c1 v=20
835357 On ch=1 n=c0 v=10
837456 On ch=1 n=d#1 v=20
839555 On ch=1 n=c0 v=10
841651 On ch=1 n=c1 v=20
843747 On ch=1 n=c0 v=10
845846 On ch=1 n=e1 v=20
847945 On ch=1 n=c0 v=10
850041 On ch=1 n=d#1 v=12
856249 On ch=1 n=c8 v=8
858345 On ch=1 n=c0 v=0
864553 On ch=1 n=e5 v=7
870761 On ch=1 n=c0 v=3
872861 On ch=1 n=c2 v=0
874958 On ch=1 n=d2 v=10
881166 On ch=1 n=e5 v=10
883263 On ch=1 n=c0 v=0
885363 On ch=1 n=c0 v=0
891571 On ch=1 n=c8 v=10
893668 On ch=1 n=b1 v=0
899876 On ch=1 n=g10 v=20
901973 On ch=1 n=c0 v=10
904073 On ch=1 n=d#1 v=20
906173 On ch=1 n=c0 v=10
908270 On ch=1 n=a1 v=20
910367 On ch=1 n=c0 v=10
912467 On ch=1 n=b1 v=20
914567 On ch=1 n=c0 v=10
916664 On ch=1 n=g#1 v=20
918761 On ch=1 n=c0 v=10
920861 On ch=1 n=c2 v=20
922961 On ch=1 n=c0 v=0
929169 On ch=1 n=c8 v=7
935377 On ch=1 n=e5 v=3
937474 On ch=1 n=c2 v=2
943682 On ch=1 n=c0 v=18
945779 On ch=1 n=c0 v=5
951987 On ch=1 n=e5 v=5
954087 On ch=1 n=g1 v=5
960295 On ch=1 n=c8 v=7
966503 On ch=1 n=g10 v=8
968603 On ch=1 n=c0 v=10
970700 On ch=1 n=g#1 v=20
972797 On ch=1 n=c0 v=10
974897 On ch=1 n=b1 v=20
976997 On ch=1 n=c0 v=10
979094 On ch=1 n=a1 v=20
981191 On ch=1 n=c0 v=10
983291 On ch=1 n=g#1 v=20
985391 On ch=1 n=c0 v=10
987488 On ch=1 n=e1 v=20
989585 On ch=1 n=c0 v=10
991685 On ch=1 n=f1 v=20
993785 On ch=1 n=c0 v=10
995882 On ch=1 n=f#1 v=5
1002090 On ch=1 n=c8 v=7
1008298 On ch=1 n=c0 v=8
1010395 On ch=1 n=c0 v=10
1012498 On ch=1 n=g1 v=0
1014596 On ch=1 n=g#0 v=15
1020804 On ch=1 n=e5 v=5
1022902 On ch=1 n=c0 v=0
1025005 On ch=1 n=c0 v=0
1031213 On ch=1 n=c8 v=10
1033311 On ch=1 n=a#0 v=2
1039519 On ch=1 n=g10 v=18
1041617 On ch=1 n=c0 v=10
1043720 On ch=1 n=b1 v=20
1045823 On ch=1 n=c0 v=10
1047921 On ch=1 n=f#0 v=20
1050019 On ch=1 n=c0 v=10
1052122 On ch=1 n=f1 v=20
1054225 On ch=1 n=c0 v=10
1056323 On ch=1 n=c1 v=20
1058421 On ch=1 n=c0 v=10
1060524 On ch=1 n=a#0 v=20
1062627 On ch=1 n=c0 v=10
1064725 On ch=1 n=c1 v=20
1066823 On ch=1 n=c0 v=10
1068926 On ch=1 n=a1 v=20
1071029 On ch=1 n=c0 v=10
1073127 On ch=1 n=a1 v=20
1075225 On ch=1 n=c0 v=10
1077328 On ch=1 n=g#1 v=20
1079431 On ch=1 n=c0 v=10
1081529 On ch=1 n=c2 v=20
1083627 On ch=1 n=c0 v=10
1085730 On ch=1 n=b1 v=20
1087833 On ch=1 n=c0 v=10
1089931 On ch=1 n=g1 v=20
1092029 On ch=1 n=c0 v=10
1094132 On ch=1 n=g1 v=20
1096235 On ch=1 n=c0 v=10
1098333 On ch=1 n=d#1 v=20
1100431 On ch=1 n=c0 v=0
1106639 On ch=1 n=c8 v=5
1112847 On ch=1 n=c0 v=5
1114949 On ch=1 n=c1 v=20
1117051 On ch=1 n=c0 v=10
1119149 On ch=1 n=f#0 v=0
1125357 On ch=1 n=e5 v=10
1131565 On ch=1 n=c8 v=5
1137773 On ch=1 n=g10 v=5
1139871 On ch=1 n=c0 v=10
1141973 On ch=1 n=a#0 v=20
1144075 On ch=1 n=c0 v=10
1146173 On ch=1 n=a#0 v=20
1148271 On ch=1 n=c0 v=10
1150373 On ch=1 n=d#1 v=20
1152475 On ch=1 n=c0 v=10
1154573 On ch=1 n=f1 v=20
1156671 On ch=1 n=c0 v=10
1158773 On ch=1 n=g#1 v=20
1160875 On ch=1 n=c0 v=10
1162973 On ch=1 n=f1 v=7
1169181 On ch=1 n=c8 v=5
1175389 On ch=1 n=c0 v=8
1177487 On ch=1 n=c0 v=10
1179586 On ch=1 n=a1 v=0
1181682 On ch=1 n=f#0 v=12
1187890 On ch=1 n=e5 v=8
1189986 On ch=1 n=c0 v=0
1192085 On ch=1 n=c0 v=0
1198293 On ch=1 n=c8 v=10
1200389 On ch=1 n=e1 v=0
1206597 On ch=1 n=g10 v=20
1208693 On ch=1 n=c0 v=10
1210792 On ch=1 n=c2 v=20
1212891 On ch=1 n=c0 v=10
1214987 On ch=1 n=d#1 v=20
1217083 On ch=1 n=c0 v=10
1219182 On ch=1 n=a1 v=20
1221281 On ch=1 n=c0 v=10
1223377 On ch=1 n=d#1 v=20
1225473 On ch=1 n=c0 v=10
1227572 On ch=1 n=c2 v=20
1229671 On ch=1 n=c0 v=10
1231767 On ch=1 n=g1 v=20
1233863 On ch=1 n=c0 v=5
1240071 On ch=1 n=c8 v=5
1242169 On ch=1 n=d2 v=0
1244263 On ch=1 n=d#2 v=7
1250471 On ch=1 n=c0 v=10
1252565 On ch=1 n=c0 v=0
1254663 On ch=1 n=c0 v=10
1256757 On ch=1 n=d#2 v=2
1262965 On ch=1 n=e5 v=8
1269173 On ch=1 n=c8 v=7
1275381 On ch=1 n=g10 v=3
1277475 On ch=1 n=c0 v=10
1279573 On ch=1 n=b1 v=20
1281671 On ch=1 n=c0 v=10
1283765 On ch=1 n=b1 v=20
1285859 On ch=1 n=c0 v=10
1287957 On ch=1 n=g#1 v=20
1290055 On ch=1 n=c0 v=10
1292149 On ch=1 n=g#1 v=20
1294243 On ch=1 n=c0 v=10
1296341 On ch=1 n=a1 v=20
1298439 On ch=1 n=c0 v=10
1300533 On ch=1 n=f1 v=10
1306741 On ch=1 n=e5 v=7
1312949 On ch=1 n=c0 v=3
1315043 On ch=1 n=c0 v=10
1317141 On ch=1 n=d2 v=0
1319234 On ch=1 n=f1 v=17
1325442 On ch=1 n=e5 v=3
1327535 On ch=1 n=c0 v=0
1329633 On ch=1 n=c0 v=2
1335841 On ch=1 n=c8 v=8
1337934 On ch=1 n=f1 v=0
1344142 On ch=1 n=g10 v=20
1346235 On ch=1 n=c0 v=10
1348333 On ch=1 n=c2 v=20
1350431 On ch=1 n=c0 v=10
1352524 On ch=1 n=e1 v=20
1354617 On ch=1 n=c0 v=10
1356715 On ch=1 n=f2 v=20
1358813 On ch=1 n=c0 v=10
1360906 On ch=1 n=c1 v=20
1362999 On ch=1 n=c0 v=10
1365097 On ch=1 n=a1 v=20
1367195 On ch=1 n=c0 v=10
1369288 On ch=1 n=e1 v=0
1375496 On ch=1 n=c8 v=10
1381704 On ch=1 n=c0 v=10
1383797 On ch=1 n=c0 v=10
1385903 On ch=1 n=b1 v=20
1388009 On ch=1 n=c0 v=10
1390112 On ch=1 n=b1 v=5
1396320 On ch=1 n=e5 v=5
1402528 On ch=1 n=c8 v=7
1408736 On ch=1 n=g10 v=3
1410839 On ch=1 n=c0 v=10
1412945 On ch=1 n=e1 v=20
1415051 On ch=1 n=c0 v=10
1417154 On ch=1 n=a#0 v=20
1419257 On ch=1 n=c0 v=10
1421363 On ch=1 n=e1 v=20
1423469 On ch=1 n=c0 v=10
1425572 On ch=1 n=f1 v=20
1427675 On ch=1 n=c0 v=10
1429781 On ch=1 n=f#1 v=20
1431887 On ch=1 n=c0 v=10
1433990 On ch=1 n=f1 v=20
1436093 On ch=1 n=c0 v=10
1438199 On ch=1 n=a#0 v=20
1440305 On ch=1 n=c0 v=10
1442408 On ch=1 n=e1 v=20
1444511 On ch=1 n=c0 v=10
1446617 On ch=1 n=d#1 v=20
1448723 On ch=1 n=c0 v=10
1450826 On ch=1 n=e1 v=20
1452929 On ch=1 n=c0 v=10
1455035 On ch=1 n=e1 v=20
1457141 On ch=1 n=c0 v=10
1459244 On ch=1 n=e1 v=20
1461347 On ch=1 n=c0 v=10
1463453 On ch=1 n=f#1 v=20
1465559 On ch=1 n=c0 v=10
1467662 On ch=1 n=e1 v=20
1469765 On ch=1 n=c0 v=10
1471871 On ch=1 n=a1 v=20
1473977 On ch=1 n=c0 v=10
1476080 On ch=1 n=g1 v=20
1478183 On ch=1 n=c0 v=10
1480289 On ch=1 n=c1 v=20
1482395 On ch=1 n=c0 v=10
1484498 On ch=1 n=a#0 v=20
1486601 On ch=1 n=c0 v=10
1488707 On ch=1 n=a#0 v=20
1490813 On ch=1 n=c0 v=10
1492916 On ch=1 n=a#0 v=20
1495019 On ch=1 n=c0 v=10
1497125 On ch=1 n=a0 v=20
1499231 On ch=1 n=c0 v=10
1501334 On ch=1 n=g#1 v=20
1503437 On ch=1 n=c0 v=0
1509645 On ch=1 n=c8 v=7
1515853 On ch=1 n=c0 v=3
1517960 On ch=1 n=a0 v=20
1520067 On ch=1 n=c0 v=10
1522170 On ch=1 n=d#1 v=10
1528378 On ch=1 n=e5 v=5
1534586 On ch=1 n=c8 v=5
1536689 On ch=1 n=c0 v=0
1542897 On ch=1 n=g10 v=10
1545004 On ch=1 n=a#0 v=20
1547111 On ch=1 n=c0 v=10
1549214 On ch=1 n=e1 v=20
1551317 On ch=1 n=c0 v=10
1553424 On ch=1 n=c1 v=20
1555531 On ch=1 n=c0 v=10
1557634 On ch=1 n=e1 v=20
1559737 On ch=1 n=c0 v=10
1561844 On ch=1 n=a#0 v=20
1563951 On ch=1 n=c0 v=10
1566054 On ch=1 n=g1 v=10
1572262 On ch=1 n=c8 v=7
1578470 On ch=1 n=e5 v=3
1580573 On ch=1 n=c0 v=5
1586781 On ch=1 n=c0 v=5
1588889 On ch=1 n=g#1 v=20
1590997 On ch=1 n=c0 v=5
1597205 On ch=1 n=e5 v=5
1599308 On ch=1 n=g1 v=2
1605516 On ch=1 n=c8 v=8
1611724 On ch=1 n=g10 v=10
1613827 On ch=1 n=c0 v=10
1615935 On ch=1 n=f1 v=20
1618043 On ch=1 n=c0 v=10
1620146 On ch=1 n=d#1 v=20
1622249 On ch=1 n=c0 v=10
1624357 On ch=1 n=f1 v=20
1626465 On ch=1 n=c0 v=10
1628568 On ch=1 n=e1 v=20
1630671 On ch=1 n=c0 v=10
1632779 On ch=1 n=g1 v=20
1634887 On ch=1 n=c0 v=5
1641095 On ch=1 n=c8 v=5
1643198 On ch=1 n=c1 v=2
1649406 On ch=1 n=c0 v=18
1651509 On ch=1 n=c0 v=10
1653615 On ch=1 n=a1 v=10
1659823 On ch=1 n=e5 v=10
1661929 On ch=1 n=c0 v=0
1668137 On ch=1 n=g10 v=10
1670239 On ch=1 n=g#1 v=20
1672341 On ch=1 n=c0 v=10
1674447 On ch=1 n=a#0 v=20
1676553 On ch=1 n=c0 v=10
1678655 On ch=1 n=f#1 v=20
1680757 On ch=1 n=c0 v=10
1682863 On ch=1 n=f#1 v=20
1684969 On ch=1 n=c0 v=10
1687071 On ch=1 n=f#1 v=20
1689173 On ch=1 n=c0 v=10
1691279 On ch=1 n=e1 v=20
1693385 On ch=1 n=c0 v=0
1699593 On ch=1 n=c8 v=10
1701695 On ch=1 n=d#1 v=0
1707903 On ch=1 n=e5 v=7
1714111 On ch=1 n=c0 v=10
1716213 On ch=1 n=c0 v=10
1718318 On ch=1 n=a1 v=10
1724526 On ch=1 n=e5 v=5
1730734 On ch=1 n=c8 v=5
1732839 On ch=1 n=c0 v=5
1739047 On ch=1 n=g10 v=5
1741148 On ch=1 n=b1 v=20
1743249 On ch=1 n=c0 v=10
1745354 On ch=1 n=e1 v=20
1747459 On ch=1 n=c0 v=10
1749560 On ch=1 n=g1 v=20
1751661 On ch=1 n=c0 v=10
1753766 On ch=1 n=a#0 v=20
1755871 On ch=1 n=c0 v=10
1757972 On ch=1 n=a#1 v=20
1760073 On ch=1 n=c0 v=10
1762178 On ch=1 n=g1 v=20
1764283 On ch=1 n=c0 v=10
1766384 On ch=1 n=b1 v=20
1768485 On ch=1 n=c0 v=10
1770590 On ch=1 n=a1 v=20
1772695 On ch=1 n=c0 v=10
1774796 On ch=1 n=b1 v=20
1776897 On ch=1 n=c0 v=10
1779002 On ch=1 n=e1 v=20
1781107 On ch=1 n=c0 v=10
1783208 On ch=1 n=a#1 v=20
1785309 On ch=1 n=c0 v=10
1787414 On ch=1 n=f1 v=20
1789519 On ch=1 n=c0 v=10
1791620 On ch=1 n=g#1 v=20
1793721 On ch=1 n=c0 v=10
1795826 On ch=1 n=g#1 v=20
1797931 On ch=1 n=c0 v=10
1800032 On ch=1 n=g1 v=20
1802133 On ch=1 n=c0 v=10
1804238 On ch=1 n=a#1 v=20
1806343 On ch=1 n=c0 v=10
1808444 On ch=1 n=e1 v=20
1810545 On ch=1 n=c0 v=10
1812650 On ch=1 n=c1 v=20
1814755 On ch=1 n=c0 v=10
1816856 On ch=1 n=g#1 v=20
1818957 On ch=1 n=c0 v=10
1821062 On ch=1 n=d2 v=20
1823167 On ch=1 n=c0 v=10
1825268 On ch=1 n=b1 v=20
1827369 On ch=1 n=c0 v=10
1829474 On ch=1 n=c2 v=20
1831579 On ch=1 n=c0 v=10
1833680 On ch=1 n=c2 v=2
1839888 On ch=1 n=c8 v=8
1846096 On ch=1 n=c0 v=10
1848197 On ch=1 n=c0 v=10
1850302 On ch=1 n=d#2 v=20
1852407 On ch=1 n=c0 v=2
1858615 On ch=1 n=e5 v=8
1860717 On ch=1 n=a#0 v=0
1866925 On ch=1 n=c8 v=10
1873133 On ch=1 n=g10 v=10
1875235 On ch=1 n=c0 v=10
1877340 On ch=1 n=a1 v=20
1879445 On ch=1 n=c0 v=10
1881547 On ch=1 n=a1 v=20
1883649 On ch=1 n=c0 v=10
1885754 On ch=1 n=d#1 v=20
1887859 On ch=1 n=c0 v=10
1889961 On ch=1 n=c#2 v=20
1892063 On ch=1 n=c0 v=10
1894168 On ch=1 n=c2 v=20
1896273 On ch=1 n=c0 v=10
1898375 On ch=1 n=c#2 v=2
1904583 On ch=1 n=c8 v=10
1910791 On ch=1 n=c0 v=8
1912893 On ch=1 n=c0 v=10
1914999 On ch=1 n=c#2 v=17
1921207 On ch=1 n=e5 v=3
1923313 On ch=1 n=c0 v=5
1929521 On ch=1 n=c8 v=5
1931624 On ch=1 n=f1 v=2
1937832 On ch=1 n=g10 v=18
1939935 On ch=1 n=c0 v=10
1942041 On ch=1 n=g1 v=20
1944147 On ch=1 n=c0 v=10
1946250 On ch=1 n=g#1 v=20
1948353 On ch=1 n=c0 v=10
1950459 On ch=1 n=g1 v=20
1952565 On ch=1 n=c0 v=10
1954668 On ch=1 n=g#1 v=20
1956771 On ch=1 n=c0 v=10
1958877 On ch=1 n=c#2 v=20
1960983 On ch=1 n=c0 v=10
1963086 On ch=1 n=c2 v=2
1969294 On ch=1 n=c8 v=8
1975502 On ch=1 n=c0 v=10
1977605 On ch=1 n=c0 v=10
1979709 On ch=1 n=d2 v=12
1985917 On ch=1 n=e5 v=8
1988021 On ch=1 n=c0 v=0
1994229 On ch=1 n=c8 v=10
1996330 On ch=1 n=c2 v=0
2002538 On ch=1 n=g10 v=20
2004639 On ch=1 n=c0 v=10
2006743 On ch=1 n=d2 v=20
2008847 On ch=1 n=c0 v=10
2010948 On ch=1 n=c2 v=20
2013049 On ch=1 n=c0 v=10
2015153 On ch=1 n=e2 v=20
2017257 On ch=1 n=c0 v=10
2019358 On ch=1 n=c#2 v=20
2021459 On ch=1 n=c0 v=10
2023563 On ch=1 n=f2 v=20
2025667 On ch=1 n=c0 v=5
2031875 On ch=1 n=c8 v=5
2033976 On ch=1 n=d#2 v=0
2040184 On ch=1 n=c0 v=20
2042285 On ch=1 n=c0 v=10
2044388 On ch=1 n=c2 v=0
2046487 On ch=1 n=d#2 v=10
2052695 On ch=1 n=e5 v=10
2054794 On ch=1 n=c0 v=0
2056897 On ch=1 n=c0 v=0
2063105 On ch=1 n=c8 v=2
2069313 On ch=1 n=g10 v=8
2071412 On ch=1 n=d#2 v=20
2073511 On ch=1 n=c0 v=10
2075614 On ch=1 n=a2 v=20
2077717 On ch=1 n=c0 v=10
2079816 On ch=1 n=f2 v=20
2081915 On ch=1 n=c0 v=10
2084018 On ch=1 n=a#1 v=20
2086121 On ch=1 n=c0 v=10
2088220 On ch=1 n=d#2 v=20
2090319 On ch=1 n=c0 v=10
2092422 On ch=1 n=d2 v=20
2094525 On ch=1 n=c0 v=10
2096624 On ch=1 n=c#2 v=20
2098723 On ch=1 n=c0 v=10
2100826 On ch=1 n=a#1 v=20
2102929 On ch=1 n=c0 v=10
2105028 On ch=1 n=b1 v=20
2107127 On ch=1 n=c0 v=10
2109230 On ch=1 n=d2 v=20
2111333 On ch=1 n=c0 v=10
2113432 On ch=1 n=a1 v=20
2115531 On ch=1 n=c0 v=10
2117634 On ch=1 n=d2 v=20
2119737 On ch=1 n=c0 v=10
2121836 On ch=1 n=c#2 v=20
2123935 On ch=1 n=c0 v=10
2126038 On ch=1 n=f1 v=20
2128141 On ch=1 n=c0 v=10
2130240 On ch=1 n=b1 v=20
2132339 On ch=1 n=c0 v=10
2134442 On ch=1 n=a#1 v=20
2136545 On ch=1 n=c0 v=10
2138644 On ch=1 n=c#2 v=20
2140743 On ch=1 n=c0 v=10
2142846 On ch=1 n=d#1 v=20
2144949 On ch=1 n=c0 v=10
2147048 On ch=1 n=b1 v=20
2149147 On ch=1 n=c0 v=10
2151250 On ch=1 n=a1 v=20
2153353 On ch=1 n=c0 v=10
2155452 On ch=1 n=c#2 v=20
2157551 On ch=1 n=c0 v=10
2159654 On ch=1 n=d2 v=20
2161757 On ch=1 n=c0 v=0
2167965 On ch=1 n=c8 v=5
2174173 On ch=1 n=e5 v=5
2176272 On ch=1 n=d#2 v=2
2182480 On ch=1 n=c0 v=18
2184579 On ch=1 n=c0 v=10
2186682 On ch=1 n=a#1 v=15
2192890 On ch=1 n=e5 v=5
2194993 On ch=1 n=c0 v=0
2201201 On ch=1 n=c8 v=7
2207409 On ch=1 n=g10 v=3
2209509 On ch=1 n=a1 v=20
2211609 On ch=1 n=c0 v=10
2213712 On ch=1 n=c2 v=20
2215815 On ch=1 n=c0 v=10
2217915 On ch=1 n=g#1 v=20
2220015 On ch=1 n=c0 v=10
2222118 On ch=1 n=c2 v=20
2224221 On ch=1 n=c0 v=10
2226321 On ch=1 n=a#1 v=20
2228421 On ch=1 n=c0 v=10
2230524 On ch=1 n=a2 v=20
2232627 On ch=1 n=c0 v=10
2234727 On ch=1 n=d#2 v=12
2240935 On ch=1 n=c8 v=8
2243035 On ch=1 n=c0 v=0
2249243 On ch=1 n=e5 v=5
2255451 On ch=1 n=c0 v=5
2257554 On ch=1 n=f2 v=20
2259657 On ch=1 n=c0 v=10
2261757 On ch=1 n=d2 v=0
2267965 On ch=1 n=e5 v=7
2274173 On ch=1 n=c8 v=8
2280381 On ch=1 n=g10 v=5
2282481 On ch=1 n=c0 v=10
2284584 On ch=1 n=d#2 v=20
2286687 On ch=1 n=c0 v=10
2288787 On ch=1 n=g#1 v=20
2290887 On ch=1 n=c0 v=10
2292990 On ch=1 n=g2 v=20
2295093 On ch=1 n=c0 v=10
2297193 On ch=1 n=a#1 v=20
2299293 On ch=1 n=c0 v=10
2301396 On ch=1 n=g1 v=20
2303499 On ch=1 n=c0 v=10
2305599 On ch=1 n=g#1 v=0
2311807 On ch=1 n=c8 v=5
2318015 On ch=1 n=e5 v=12
2324223 On ch=1 n=c0 v=3
2326323 On ch=1 n=c0 v=10
2328426 On ch=1 n=d2 v=20
2330529 On ch=1 n=c0 v=0
2336737 On ch=1 n=e5 v=5
2342945 On ch=1 n=c8 v=5
2345045 On ch=1 n=c2 v=7
2351253 On ch=1 n=g10 v=10
2353353 On ch=1 n=c0 v=10
2355456 On ch=1 n=g1 v=20
2357559 On ch=1 n=c0 v=10
2359659 On ch=1 n=e1 v=20
2361759 On ch=1 n=c0 v=5
2367967 On ch=1 n=c8 v=5
2370070 On ch=1 n=d2 v=17
2376278 On ch=1 n=e5 v=3
2378381 On ch=1 n=c0 v=10
2380481 On ch=1 n=g#1 v=17
2386689 On ch=1 n=c0 v=3
2388789 On ch=1 n=c0 v=10
2390892 On ch=1 n=d2 v=20
2392995 On ch=1 n=c0 v=10
2395095 On ch=1 n=d#2 v=20
2397195 On ch=1 n=c0 v=2
2403405 On ch=1 n=g10 v=8
2405509 On ch=1 n=e2 v=20
2407613 On ch=1 n=c0 v=10
2409714 On ch=1 n=a#2 v=20
2411815 On ch=1 n=c0 v=10
2413919 On ch=1 n=e2 v=20
2416023 On ch=1 n=c0 v=10
2418124 On ch=1 n=a1 v=20
2420225 On ch=1 n=c0 v=10
2422329 On ch=1 n=e2 v=20
2424433 On ch=1 n=c0 v=10
2426534 On ch=1 n=a#2 v=20
2428635 On ch=1 n=c0 v=10
2430739 On ch=1 n=a2 v=20
2432843 On ch=1 n=c0 v=10
2434944 On ch=1 n=a#2 v=20
2437045 On ch=1 n=c0 v=5
2443255 On ch=1 n=c0 v=5
2445354 On ch=1 n=f#2 v=0
2447458 On ch=1 n=e2 v=20
2449562 On ch=1 n=c0 v=0
2451661 On ch=1 n=c0 v=10
2453760 On ch=1 n=g#2 v=20
2455859 On ch=1 n=c0 v=10
2457963 On ch=1 n=c2 v=20
2460067 On ch=1 n=c0 v=10
2462166 On ch=1 n=g#2 v=20
2464265 On ch=1 n=c0 v=10
2466369 On ch=1 n=c2 v=20
2468473 On ch=1 n=c0 v=10
2470572 On ch=1 n=a#0 v=20
2472671 On ch=1 n=c0 v=10
2474775 On ch=1 n=f#1 v=20
2476879 On ch=1 n=c0 v=10
2478978 On ch=1 n=f1 v=20
2481077 On ch=1 n=c0 v=10
2483183 On ch=1 n=e2 v=0
2485281 On ch=1 n=d#2 v=20
2487379 On ch=1 n=c0 v=0
2489485 On ch=1 n=c0 v=10
2491583 On ch=1 n=b2 v=20
2493681 On ch=1 n=c0 v=10
2495787 On ch=1 n=f#2 v=20
2497893 On ch=1 n=c0 v=10
2499991 On ch=1 n=g#2 v=20
2502089 On ch=1 n=c0 v=10
2504195 On ch=1 n=f#2 v=20
2506301 On ch=1 n=c0 v=10
2508399 On ch=1 n=g2 v=20
2510497 On ch=1 n=c0 v=10
2512603 On ch=1 n=g#2 v=20
2514709 On ch=1 n=c0 v=10
2516807 On ch=1 n=g2 v=20
2518905 On ch=1 n=c0 v=10
2521010 On ch=1 n=c#2 v=0
2523112 On ch=1 n=c#3 v=20
2525214 On ch=1 n=c0 v=0
2527319 On ch=1 n=c0 v=10
2529421 On ch=1 n=b2 v=20
2531523 On ch=1 n=c0 v=10
2533628 On ch=1 n=e2 v=20
2535733 On ch=1 n=c0 v=10
2537835 On ch=1 n=g#2 v=20
2539937 On ch=1 n=c0 v=10
2542042 On ch=1 n=e2 v=20
2544147 On ch=1 n=c0 v=10
2546249 On ch=1 n=e2 v=20
2548351 On ch=1 n=c0 v=10
2550456 On ch=1 n=g2 v=20
2552561 On ch=1 n=c0 v=10
2554663 On ch=1 n=g#2 v=20
2556765 On ch=1 n=c0 v=10
2558866 On ch=1 n=d3 v=0
2560972 On ch=1 n=c#3 v=20
2563078 On ch=1 n=c0 v=0
2565179 On ch=1 n=c0 v=10
2567280 On ch=1 n=c3 v=20
2569381 On ch=1 n=c0 v=10
2571487 On ch=1 n=f#2 v=20
2573593 On ch=1 n=c0 v=10
2575694 On ch=1 n=a#2 v=20
2577795 On ch=1 n=c0 v=10
2579901 On ch=1 n=g#2 v=20
2582007 On ch=1 n=c0 v=10
2584108 On ch=1 n=e2 v=20
2586209 On ch=1 n=c0 v=10
2588315 On ch=1 n=b2 v=20
2590421 On ch=1 n=c0 v=10
2592522 On ch=1 n=e2 v=20
2594623 On ch=1 n=c0 v=10
2596728 On ch=1 n=d#2 v=0
2598827 On ch=1 n=b2 v=20
2600926 On ch=1 n=c0 v=0
2603031 On ch=1 n=c0 v=10
2605130 On ch=1 n=a#3 v=20
2607229 On ch=1 n=c0 v=10
2609334 On ch=1 n=e3 v=20
2611439 On ch=1 n=c0 v=10
2613538 On ch=1 n=c#3 v=20
2615637 On ch=1 n=c0 v=10
2617742 On ch=1 n=e2 v=20
2619847 On ch=1 n=c0 v=10
2621946 On ch=1 n=g#2 v=20
2624045 On ch=1 n=c0 v=10
2626150 On ch=1 n=g#2 v=20
2628255 On ch=1 n=c0 v=10
2630354 On ch=1 n=f#2 v=20
2632453 On ch=1 n=c0 v=10
2634551 On ch=1 n=a#2 v=0
2636657 On ch=1 n=b2 v=20
2638763 On ch=1 n=c0 v=0
2640861 On ch=1 n=c0 v=10
2642959 On ch=1 n=g#3 v=20
2645057 On ch=1 n=c0 v=10
2647163 On ch=1 n=d3 v=20
2649269 On ch=1 n=c0 v=10
2651367 On ch=1 n=d#3 v=20
2653465 On ch=1 n=c0 v=10
2655571 On ch=1 n=g#3 v=20
2657677 On ch=1 n=c0 v=10
2659775 On ch=1 n=b3 v=2
2665983 On ch=1 n=e5 v=18
2668081 On ch=1 n=c0 v=10
2670187 On ch=1 n=d3 v=20
2672293 On ch=1 n=c0 v=10
2674391 On ch=1 n=c3 v=12
2680599 On ch=1 n=c8 v=8
2682697 On ch=1 n=c0 v=10
2684803 On ch=1 n=d3 v=20
2686909 On ch=1 n=c0 v=10
2689007 On ch=1 n=b3 v=20
2691105 On ch=1 n=c0 v=10
2693211 On ch=1 n=d3 v=20
2695317 On ch=1 n=c0 v=10
2697415 On ch=1 n=d#3 v=20
2699513 On ch=1 n=c0 v=10
2701619 On ch=1 n=f2 v=20
2703725 On ch=1 n=c0 v=5
2709933 On ch=1 n=g10 v=5
2712031 On ch=1 n=c3 v=20
2714129 On ch=1 n=c0 v=10
2716235 On ch=1 n=g#3 v=20
2718341 On ch=1 n=c0 v=10
2720439 On ch=1 n=a#2 v=17
2726647 On ch=1 n=c8 v=3
2728745 On ch=1 n=c0 v=2
2734953 On ch=1 n=e5 v=8
2737059 On ch=1 n=b3 v=0
2743267 On ch=1 n=c0 v=0
2745366 On ch=1 n=d3 v=20
2747465 On ch=1 n=c0 v=0
2749571 On ch=1 n=c0 v=10
2751670 On ch=1 n=a#4 v=2
2757878 On ch=1 n=e5 v=8
2764086 On ch=1 n=c8 v=7
2770294 On ch=1 n=g10 v=3
2772393 On ch=1 n=c0 v=10
2774499 On ch=1 n=b3 v=20
2776605 On ch=1 n=c0 v=10
2778704 On ch=1 n=d3 v=20
2780803 On ch=1 n=c0 v=10
2782909 On ch=1 n=b2 v=20
2785015 On ch=1 n=c0 v=10
2787114 On ch=1 n=b3 v=20
2789213 On ch=1 n=c0 v=10
2791319 On ch=1 n=b2 v=20
2793425 On ch=1 n=c0 v=10
2795524 On ch=1 n=f2 v=20
2797623 On ch=1 n=c0 v=10
2799732 On ch=1 n=f#3 v=0
2801838 On ch=1 n=g#3 v=20
2803944 On ch=1 n=c0 v=0
2806053 On ch=1 n=c0 v=10
2808153 On ch=1 n=g#3 v=20
2810253 On ch=1 n=c0 v=10
2812362 On ch=1 n=c4 v=0
2814468 On ch=1 n=d#2 v=20
2816574 On ch=1 n=c0 v=0
2818683 On ch=1 n=c0 v=10
2820783 On ch=1 n=d4 v=20
2822883 On ch=1 n=c0 v=10
2824992 On ch=1 n=c4 v=0
2827098 On ch=1 n=g#3 v=20
2829204 On ch=1 n=c0 v=0
2831313 On ch=1 n=c0 v=10
2833413 On ch=1 n=e4 v=20
2835513 On ch=1 n=c0 v=10
2837622 On ch=1 n=d#4 v=0
2839728 On ch=1 n=d3 v=20
2841834 On ch=1 n=c0 v=0
2843943 On ch=1 n=c0 v=10
2846043 On ch=1 n=g#4 v=17
2852251 On ch=1 n=c8 v=3
2854351 On ch=1 n=c0 v=2
2860559 On ch=1 n=e5 v=8
2862671 On ch=1 n=b3 v=0
2864780 On ch=1 n=c4 v=0
2870988 On ch=1 n=c0 v=20
2873097 On ch=1 n=c0 v=0
2875209 On ch=1 n=c0 v=2
2881417 On ch=1 n=e5 v=8
2883520 On ch=1 n=e4 v=0
2889728 On ch=1 n=c8 v=10
2895936 On ch=1 n=g10 v=10
2898039 On ch=1 n=c0 v=10
2900151 On ch=1 n=e4 v=0
2902260 On ch=1 n=c4 v=20
2904369 On ch=1 n=c0 v=0
2906481 On ch=1 n=c0 v=10
2908584 On ch=1 n=g#4 v=20
2910687 On ch=1 n=c0 v=10
2912799 On ch=1 n=b3 v=0
2914908 On ch=1 n=d#4 v=20
2917017 On ch=1 n=c0 v=0
2919129 On ch=1 n=c0 v=10
2921232 On ch=1 n=b4 v=20
2923335 On ch=1 n=c0 v=10
2925447 On ch=1 n=e3 v=0
2927556 On ch=1 n=g#3 v=20
2929665 On ch=1 n=c0 v=0
2931777 On ch=1 n=c0 v=10
2933880 On ch=1 n=b3 v=20
2935983 On ch=1 n=c0 v=10
2938098 On ch=1 n=d4 v=0
2940210 On ch=1 n=e4 v=20
2942322 On ch=1 n=c0 v=0
2944437 On ch=1 n=c0 v=10
2946543 On ch=1 n=a#4 v=20
2948649 On ch=1 n=c0 v=10
2950764 On ch=1 n=g#3 v=0
2952876 On ch=1 n=c#4 v=20
2954988 On ch=1 n=c0 v=0
2957103 On ch=1 n=c0 v=10
2959209 On ch=1 n=b3 v=20
2961315 On ch=1 n=c0 v=10
2963430 On ch=1 n=b4 v=0
2965542 On ch=1 n=g2 v=20
2967654 On ch=1 n=c0 v=0
2969769 On ch=1 n=c0 v=10
2971875 On ch=1 n=g4 v=20
2973981 On ch=1 n=c0 v=10
2976096 On ch=1 n=e4 v=0
2978208 On ch=1 n=b3 v=20
2980320 On ch=1 n=c0 v=0
2982435 On ch=1 n=c0 v=10
2984541 On ch=1 n=d4 v=17
2990749 On ch=1 n=c8 v=3
2992855 On ch=1 n=c0 v=2
2999063 On ch=1 n=c0 v=8
3001176 On ch=1 n=b4 v=20
3003289 On ch=1 n=c0 v=5
3009497 On ch=1 n=e5 v=5
3011603 On ch=1 n=e3 v=2
3017811 On ch=1 n=c8 v=8
3024019 On ch=1 n=g10 v=10
3026125 On ch=1 n=c0 v=10
3028238 On ch=1 n=b3 v=20
3030351 On ch=1 n=c0 v=10
3032457 On ch=1 n=b2 v=20
3034563 On ch=1 n=c0 v=10
3036676 On ch=1 n=b3 v=20
3038789 On ch=1 n=c0 v=10
3040895 On ch=1 n=g#2 v=20
3043001 On ch=1 n=c0 v=10
3045114 On ch=1 n=f3 v=20
3047227 On ch=1 n=c0 v=10
3049333 On ch=1 n=d3 v=20
3051439 On ch=1 n=c0 v=10
3053549 On ch=1 n=e4 v=20
3055659 On ch=1 n=c0 v=10
3057760 On ch=1 n=a3 v=20
3059861 On ch=1 n=c0 v=10
3061971 On ch=1 n=f3 v=20
3064081 On ch=1 n=c0 v=10
3066182 On ch=1 n=f#4 v=20
3068283 On ch=1 n=c0 v=10
3070393 On ch=1 n=e4 v=20
3072503 On ch=1 n=c0 v=10
3074604 On ch=1 n=g3 v=20
3076705 On ch=1 n=c0 v=10
3078815 On ch=1 n=f3 v=20
3080925 On ch=1 n=c0 v=10
3083026 On ch=1 n=g3 v=20
3085127 On ch=1 n=c0 v=10
3087233 On ch=1 n=b2 v=20
3089339 On ch=1 n=c0 v=10
3091437 On ch=1 n=g#3 v=20
3093535 On ch=1 n=c0 v=10
3095641 On ch=1 n=b3 v=20
3097747 On ch=1 n=c0 v=10
3099845 On ch=1 n=c3 v=20
3101943 On ch=1 n=c0 v=10
3104049 On ch=1 n=e3 v=20
3106155 On ch=1 n=c0 v=10
3108253 On ch=1 n=f3 v=20
3110351 On ch=1 n=c0 v=10
3112457 On ch=1 n=g#3 v=20
3114563 On ch=1 n=c0 v=10
3116661 On ch=1 n=f3 v=20
3118759 On ch=1 n=c0 v=10
3120866 On ch=1 n=a3 v=20
3122973 On ch=1 n=c0 v=10
3125071 On ch=1 n=g#2 v=20
3127169 On ch=1 n=c0 v=10
3129276 On ch=1 n=d3 v=20
3131383 On ch=1 n=c0 v=10
3133481 On ch=1 n=g#3 v=20
3135579 On ch=1 n=c0 v=10
3137686 On ch=1 n=e3 v=20
3139793 On ch=1 n=c0 v=10
3141891 On ch=1 n=f3 v=20
3143989 On ch=1 n=c0 v=10
3146096 On ch=1 n=g3 v=20
3148203 On ch=1 n=c0 v=10
3150301 On ch=1 n=f2 v=10
3156509 On ch=1 n=c8 v=5
3162717 On ch=1 n=e5 v=5
3164815 On ch=1 n=c0 v=0
3171023 On ch=1 n=c0 v=10
3173131 On ch=1 n=d2 v=20
3175239 On ch=1 n=c0 v=10
3177338 On ch=1 n=g#3 v=20
3179437 On ch=1 n=c0 v=10
3181545 On ch=1 n=g#3 v=20
3183653 On ch=1 n=c0 v=10
3185752 On ch=1 n=e3 v=20
3187851 On ch=1 n=c0 v=10
3189959 On ch=1 n=d#3 v=20
3192067 On ch=1 n=c0 v=10
3194166 On ch=1 n=b2 v=20
3196265 On ch=1 n=c0 v=10
3198373 On ch=1 n=f3 v=20
3200481 On ch=1 n=c0 v=10
3202580 On ch=1 n=e3 v=20
3204679 On ch=1 n=c0 v=10
3206784 On ch=1 n=c3 v=20
3208889 On ch=1 n=c0 v=10
3210985 On ch=1 n=a1 v=20
3213081 On ch=1 n=c0 v=10
3215186 On ch=1 n=g#2 v=20
3217291 On ch=1 n=c0 v=10
3219387 On ch=1 n=b1 v=20
3221483 On ch=1 n=c0 v=10
3223588 On ch=1 n=g2 v=20
3225693 On ch=1 n=c0 v=10
3227789 On ch=1 n=g2 v=20
3229885 On ch=1 n=c0 v=10
3231990 On ch=1 n=g#2 v=20
3234095 On ch=1 n=c0 v=10
3236191 On ch=1 n=e1 v=20
3238287 On ch=1 n=c0 v=10
3240385 On ch=1 n=b1 v=20
3242483 On ch=1 n=c0 v=10
3244584 On ch=1 n=g#2 v=20
3246685 On ch=1 n=c0 v=10
3248783 On ch=1 n=g#2 v=20
3250881 On ch=1 n=c0 v=10
3252982 On ch=1 n=e2 v=20
3255083 On ch=1 n=c0 v=10
3257181 On ch=1 n=g#2 v=20
3259279 On ch=1 n=c0 v=10
3261380 On ch=1 n=g#2 v=20
3263481 On ch=1 n=c0 v=10
3265579 On ch=1 n=g#2 v=20
3267677 On ch=1 n=c0 v=10
3269778 On ch=1 n=e2 v=20
3271879 On ch=1 n=c0 v=10
3273977 On ch=1 n=d#2 v=20
3276075 On ch=1 n=c0 v=10
3278176 On ch=1 n=c3 v=20
3280277 On ch=1 n=c0 v=10
3282375 On ch=1 n=c2 v=20
3284473 On ch=1 n=c0 v=10
3286574 On ch=1 n=f#2 v=20
3288675 On ch=1 n=c0 v=10
3290773 On ch=1 n=g#1 v=20
3292871 On ch=1 n=c0 v=10
3294972 On ch=1 n=e2 v=20
3297073 On ch=1 n=c0 v=10
3299171 On ch=1 n=g#1 v=20
3301269 On ch=1 n=c0 v=10
3303370 On ch=1 n=g1 v=20
3305471 On ch=1 n=c0 v=10
3307569 On ch=1 n=g#1 v=20
3309667 On ch=1 n=c0 v=10
3311768 On ch=1 n=a1 v=20
3313869 On ch=1 n=c0 v=10
3315967 On ch=1 n=g#1 v=20
3318065 On ch=1 n=c0 v=10
3320166 On ch=1 n=g#1 v=20
3322267 On ch=1 n=c0 v=10
3324365 On ch=1 n=e2 v=20
3326463 On ch=1 n=c0 v=10
3328564 On ch=1 n=f#2 v=20
3330665 On ch=1 n=c0 v=10
3332763 On ch=1 n=g#1 v=20
3334861 On ch=1 n=c0 v=10
3336962 On ch=1 n=d2 v=20
3339063 On ch=1 n=c0 v=10
3341168 On ch=1 n=e2 v=20
3343273 On ch=1 n=c0 v=10
3345374 On ch=1 n=f#2 v=20
3347475 On ch=1 n=c0 v=10
3349580 On ch=1 n=c2 v=20
3351685 On ch=1 n=c0 v=10
3353786 On ch=1 n=e2 v=20
3355887 On ch=1 n=c0 v=10
3357992 On ch=1 n=c2 v=20
3360097 On ch=1 n=c0 v=10
3362198 On ch=1 n=g#2 v=20
3364299 On ch=1 n=c0 v=10
3366404 On ch=1 n=b1 v=20
3368509 On ch=1 n=c0 v=10
3370610 On ch=1 n=g#2 v=20
3372711 On ch=1 n=c0 v=10
3374814 On ch=1 n=b1 v=20
3376917 On ch=1 n=c0 v=10
3379016 On ch=1 n=b2 v=20
3381115 On ch=1 n=c0 v=10
3383218 On ch=1 n=d#2 v=20
3385321 On ch=1 n=c0 v=10
3387420 On ch=1 n=e2 v=20
3389519 On ch=1 n=c0 v=10
3391622 On ch=1 n=d#2 v=20
3393725 On ch=1 n=c0 v=10
3395824 On ch=1 n=g#2 v=20
3397923 On ch=1 n=c0 v=10
3400026 On ch=1 n=c2 v=20
3402129 On ch=1 n=c0 v=10
3404228 On ch=1 n=f#2 v=20
3406327 On ch=1 n=c0 v=10
3408429 On ch=1 n=f#2 v=20
3410531 On ch=1 n=c0 v=10
3412628 On ch=1 n=b1 v=20
3414725 On ch=1 n=c0 v=10
3416827 On ch=1 n=e2 v=20
3418929 On ch=1 n=c0 v=10
3421026 On ch=1 n=b1 v=20
3423123 On ch=1 n=c0 v=10
3425225 On ch=1 n=f#2 v=20
3427327 On ch=1 n=c0 v=10
3429424 On ch=1 n=a1 v=20
3431521 On ch=1 n=c0 v=10
3433623 On ch=1 n=g#2 v=20
3435725 On ch=1 n=c0 v=10
3437822 On ch=1 n=f#2 v=20
3439919 On ch=1 n=c0 v=10
3442021 On ch=1 n=e3 v=20
3444123 On ch=1 n=c0 v=10
3446219 On ch=1 n=b2 v=20
3448315 On ch=1 n=c0 v=10
3450417 On ch=1 n=c#3 v=20
3452519 On ch=1 n=c0 v=10
3454615 On ch=1 n=c#2 v=20
3456711 On ch=1 n=c0 v=10
3458813 On ch=1 n=e2 v=20
3460915 On ch=1 n=c0 v=10
3463011 On ch=1 n=d#2 v=20
3465107 On ch=1 n=c0 v=10
3467209 On ch=1 n=f1 v=20
3469311 On ch=1 n=c0 v=10
3471407 On ch=1 n=c#2 v=20
3473503 On ch=1 n=c0 v=10
3475604 On ch=1 n=e2 v=20
3477705 On ch=1 n=c0 v=10
3479801 On ch=1 n=c1 v=20
3481897 On ch=1 n=c0 v=10
3483998 On ch=1 n=c2 v=20
3486099 On ch=1 n=c0 v=10
3488195 On ch=1 n=g#1 v=20
3490291 On ch=1 n=c0 v=10
3492392 On ch=1 n=c2 v=20
3494493 On ch=1 n=c0 v=10
3496589 On ch=1 n=f#1 v=20
3498685 On ch=1 n=c0 v=10
3500786 On ch=1 n=b1 v=20
3502887 On ch=1 n=c0 v=10
3504983 On ch=1 n=c#2 v=20
3507079 On ch=1 n=c0 v=10
3509180 On ch=1 n=e2 v=20
3511281 On ch=1 n=c0 v=10
3513379 On ch=1 n=d#2 v=20
3515477 On ch=1 n=c0 v=10
3517578 On ch=1 n=e2 v=20
3519679 On ch=1 n=c0 v=10
3521777 On ch=1 n=d#2 v=20
3523875 On ch=1 n=c0 v=10
3525976 On ch=1 n=f1 v=20
3528077 On ch=1 n=c0 v=10
3530175 On ch=1 n=g#1 v=20
3532273 On ch=1 n=c0 v=10
3534374 On ch=1 n=c2 v=20
3536475 On ch=1 n=c0 v=10
3538573 On ch=1 n=d#2 v=20
3540671 On ch=1 n=c0 v=10
3542775 On ch=1 n=d3 v=20
3544879 On ch=1 n=c0 v=10
3546980 On ch=1 n=e2 v=20
3549081 On ch=1 n=c0 v=10
3551185 On ch=1 n=a2 v=20
3553289 On ch=1 n=c0 v=10
3555390 On ch=1 n=c3 v=20
3557491 On ch=1 n=c0 v=10
3559595 On ch=1 n=d3 v=20
3561699 On ch=1 n=c0 v=10
3563800 On ch=1 n=c3 v=20
3565901 On ch=1 n=c0 v=10
3568005 On ch=1 n=b2 v=20
3570109 On ch=1 n=c0 v=10
3572210 On ch=1 n=c3 v=20
3574311 On ch=1 n=c0 v=10
3576414 On ch=1 n=e3 v=20
3578517 On ch=1 n=c0 v=10
3580616 On ch=1 n=a#3 v=20
3582715 On ch=1 n=c0 v=10
3584818 On ch=1 n=e3 v=20
3586921 On ch=1 n=c0 v=10
3589020 On ch=1 n=e3 v=20
3591119 On ch=1 n=c0 v=10
3593222 On ch=1 n=g#2 v=20
3595325 On ch=1 n=c0 v=10
3597424 On ch=1 n=c#3 v=20
3599523 On ch=1 n=c0 v=10
3601626 On ch=1 n=b2 v=20
3603729 On ch=1 n=c0 v=10
3605828 On ch=1 n=f#2 v=20
3607927 On ch=1 n=c0 v=10
3610029 On ch=1 n=g#3 v=20
3612131 On ch=1 n=c0 v=10
3614228 On ch=1 n=g#3 v=20
3616325 On ch=1 n=c0 v=10
3618427 On ch=1 n=e3 v=20
3620529 On ch=1 n=c0 v=10
3622626 On ch=1 n=a#3 v=20
3624723 On ch=1 n=c0 v=10
3626825 On ch=1 n=a#3 v=20
3628927 On ch=1 n=c0 v=10
3631024 On ch=1 n=d4 v=20
3633121 On ch=1 n=c0 v=10
3635223 On ch=1 n=d4 v=20
3637325 On ch=1 n=c0 v=10
3639422 On ch=1 n=a#3 v=20
3641519 On ch=1 n=c0 v=10
3643621 On ch=1 n=b2 v=20
3645723 On ch=1 n=c0 v=10
3647819 On ch=1 n=b2 v=20
3649915 On ch=1 n=c0 v=10
3652017 On ch=1 n=f#2 v=20
3654119 On ch=1 n=c0 v=10
3656215 On ch=1 n=e2 v=20
3658311 On ch=1 n=c0 v=10
3660413 On ch=1 n=g1 v=20
3662515 On ch=1 n=c0 v=10
3664611 On ch=1 n=g2 v=20
3666707 On ch=1 n=c0 v=10
3668809 On ch=1 n=c#2 v=20
3670911 On ch=1 n=c0 v=10
3673007 On ch=1 n=g#1 v=20
3675103 On ch=1 n=c0 v=10
3677204 On ch=1 n=g#2 v=20
3679305 On ch=1 n=c0 v=10
3681401 On ch=1 n=d1 v=20
3683497 On ch=1 n=c0 v=10
3685598 On ch=1 n=d2 v=20
3687699 On ch=1 n=c0 v=10
3689795 On ch=1 n=e1 v=20
3691891 On ch=1 n=c0 v=10
3693992 On ch=1 n=d2 v=20
3696093 On ch=1 n=c0 v=10
3698189 On ch=1 n=g#1 v=20
3700285 On ch=1 n=c0 v=10
3702386 On ch=1 n=g#1 v=20
3704487 On ch=1 n=c0 v=10
3706583 On ch=1 n=a#0 v=20
3708679 On ch=1 n=c0 v=10
3710780 On ch=1 n=e2 v=30
3712881 On ch=1 n=c0 v=10
3714979 On ch=1 n=c#2 v=30
3717077 On ch=1 n=c0 v=10
3719178 On ch=1 n=b1 v=30
3721279 On ch=1 n=c0 v=10
3723377 On ch=1 n=a#0 v=30
3725475 On ch=1 n=c0 v=10
3727576 On ch=1 n=e2 v=30
3729677 On ch=1 n=c0 v=10
3731775 On ch=1 n=c1 v=30
3733873 On ch=1 n=c0 v=10
3735974 On ch=1 n=f#2 v=30
3738075 On ch=1 n=c0 v=10
3740173 On ch=1 n=c#3 v=30
3742271 On ch=1 n=c0 v=10
3744372 On ch=1 n=e2 v=30
3746473 On ch=1 n=c0 v=10
3748571 On ch=1 n=c2 v=30
3750669 On ch=1 n=c0 v=10
3752770 On ch=1 n=e2 v=30
3754871 On ch=1 n=c0 v=10
3756969 On ch=1 n=c#2 v=30
3759067 On ch=1 n=c0 v=10
3761170 On ch=1 n=g#2 v=30
3763273 On ch=1 n=c0 v=10
3765372 On ch=1 n=c#3 v=30
3767471 On ch=1 n=c0 v=10
3769574 On ch=1 n=g#2 v=30
3771677 On ch=1 n=c0 v=10
3773776 On ch=1 n=b2 v=30
3775875 On ch=1 n=c0 v=10
3777978 On ch=1 n=g#2 v=30
3780081 On ch=1 n=c0 v=10
3782180 On ch=1 n=g#2 v=30
3784279 On ch=1 n=c0 v=10
3786382 On ch=1 n=b2 v=30
3788485 On ch=1 n=c0 v=10
3790585 On ch=1 n=g#2 v=30
3792685 On ch=1 n=c0 v=10
3794788 On ch=1 n=c#3 v=30
3796891 On ch=1 n=c0 v=10
3798991 On ch=1 n=e3 v=30
3801091 On ch=1 n=c0 v=10
3803194 On ch=1 n=d#2 v=30
3805297 On ch=1 n=c0 v=10
3807397 On ch=1 n=g2 v=30
3809497 On ch=1 n=c0 v=10
3811602 On ch=1 n=a#2 v=30
3813707 On ch=1 n=c0 v=10
3815808 On ch=1 n=g3 v=30
3817909 On ch=1 n=c0 v=10
3820014 On ch=1 n=a#2 v=30
3822119 On ch=1 n=c0 v=10
3824220 On ch=1 n=d3 v=30
3826321 On ch=1 n=c0 v=10
3828426 On ch=1 n=g2 v=30
3830531 On ch=1 n=c0 v=10
3832632 On ch=1 n=a#1 v=30
3834733 On ch=1 n=c0 v=10
3836838 On ch=1 n=d4 v=30
3838943 On ch=1 n=c0 v=10
3841045 On ch=1 n=g#3 v=30
3843147 On ch=1 n=c0 v=10
3845252 On ch=1 n=d#3 v=30
3847357 On ch=1 n=c0 v=10
3849459 On ch=1 n=e3 v=30
3851561 On ch=1 n=c0 v=10
3853666 On ch=1 n=a#2 v=30
3855771 On ch=1 n=c0 v=10
3857873 On ch=1 n=g#2 v=30
3859975 On ch=1 n=c0 v=10
3862081 On ch=1 n=d3 v=30
3864187 On ch=1 n=c0 v=10
3866290 On ch=1 n=c3 v=30
3868393 On ch=1 n=c0 v=10
3870499 On ch=1 n=d3 v=30
3872605 On ch=1 n=c0 v=10
3874708 On ch=1 n=g#3 v=30
3876811 On ch=1 n=c0 v=10
3878917 On ch=1 n=e3 v=30
3881023 On ch=1 n=c0 v=10
3883126 On ch=1 n=d#3 v=30
3885229 On ch=1 n=c0 v=10
3887337 On ch=1 n=d5 v=30
3889445 On ch=1 n=c0 v=10
3891550 On ch=1 n=f2 v=30
3893655 On ch=1 n=c0 v=10
3895763 On ch=1 n=f2 v=30
3897871 On ch=1 n=c0 v=10
3899976 On ch=1 n=f#1 v=30
3902081 On ch=1 n=c0 v=10
3904189 On ch=1 n=d2 v=30
3906297 On ch=1 n=c0 v=10
3908402 On ch=1 n=a#2 v=30
3910507 On ch=1 n=c0 v=10
3912617 On ch=1 n=g2 v=30
3914727 On ch=1 n=c0 v=10
3916833 On ch=1 n=d3 v=30
3918939 On ch=1 n=c0 v=10
3921049 On ch=1 n=g2 v=30
3923159 On ch=1 n=c0 v=10
3925265 On ch=1 n=e3 v=30
3927371 On ch=1 n=c0 v=10
3929481 On ch=1 n=c3 v=30
3931591 On ch=1 n=c0 v=10
3933697 On ch=1 n=e3 v=30
3935803 On ch=1 n=c0 v=10
3937914 On ch=1 n=d#5 v=30
3940025 On ch=1 n=c0 v=10
3942133 On ch=1 n=b3 v=30
3944241 On ch=1 n=c0 v=10
3946352 On ch=1 n=a#4 v=30
3948463 On ch=1 n=c0 v=10
3950571 On ch=1 n=g#3 v=30
3952679 On ch=1 n=c0 v=10
3954790 On ch=1 n=d4 v=30
3956901 On ch=1 n=c0 v=10
3959009 On ch=1 n=g#3 v=30
3961117 On ch=1 n=c0 v=10
3963230 On ch=1 n=d5 v=30
3965343 On ch=1 n=c0 v=10
3967453 On ch=1 n=b3 v=30
3969563 On ch=1 n=c0 v=10
3971676 On ch=1 n=g#3 v=30
3973789 On ch=1 n=c0 v=10
3975899 On ch=1 n=d#3 v=30
3978009 On ch=1 n=c0 v=10
3980122 On ch=1 n=d#3 v=30
3982235 On ch=1 n=c0 v=10
3984345 On ch=1 n=f2 v=30
3986455 On ch=1 n=c0 v=10
3988569 On ch=1 n=a#4 v=30
3990683 On ch=1 n=c0 v=10
3992794 On ch=1 n=d4 v=30
3994905 On ch=1 n=c0 v=10
3997019 On ch=1 n=d4 v=30
3999133 On ch=1 n=c0 v=10
4001244 On ch=1 n=d4 v=30
4003355 On ch=1 n=c0 v=10
4005469 On ch=1 n=g#3 v=30
4007583 On ch=1 n=c0 v=10
4009694 On ch=1 n=b3 v=30
4011805 On ch=1 n=c0 v=10
4013920 On ch=1 n=d5 v=30
4016035 On ch=1 n=c0 v=10
4018147 On ch=1 n=e4 v=30
4020259 On ch=1 n=c0 v=10
4022374 On ch=1 n=g#4 v=30
4024489 On ch=1 n=c0 v=10
4026601 On ch=1 n=b3 v=30
4028713 On ch=1 n=c0 v=10
4030828 On ch=1 n=e4 v=30
4032943 On ch=1 n=c0 v=10
4035055 On ch=1 n=g4 v=30
4037167 On ch=1 n=c0 v=10
4039285 On ch=1 n=g4 v=0
4041400 On ch=1 n=e4 v=30
4043515 On ch=1 n=c0 v=0
4045633 On ch=1 n=c0 v=10
4047745 On ch=1 n=c#4 v=30
4049857 On ch=1 n=c0 v=10
4051972 On ch=1 n=d5 v=0
4054090 On ch=1 n=d4 v=30
4056208 On ch=1 n=c0 v=0
4058323 On ch=1 n=c0 v=10
4060435 On ch=1 n=g4 v=30
4062547 On ch=1 n=c0 v=10
4064665 On ch=1 n=b2 v=0
4066780 On ch=1 n=c3 v=30
4068895 On ch=1 n=c0 v=0
4071013 On ch=1 n=c0 v=10
4073125 On ch=1 n=b3 v=30
4075237 On ch=1 n=c0 v=10
4077357 On ch=1 n=b4 v=0
4079475 On ch=1 n=a#4 v=30
4081593 On ch=1 n=c0 v=0
4083713 On ch=1 n=c0 v=10
4085825 On ch=1 n=f#3 v=30
4087937 On ch=1 n=c0 v=10
4090057 On ch=1 n=d#3 v=0
4092175 On ch=1 n=d3 v=30
4094293 On ch=1 n=c0 v=0
4096413 On ch=1 n=c0 v=10
4098525 On ch=1 n=g#3 v=30
4100637 On ch=1 n=c0 v=10
4102757 On ch=1 n=c3 v=0
4104875 On ch=1 n=e3 v=30
4106993 On ch=1 n=c0 v=0
4109113 On ch=1 n=c0 v=10
4111225 On ch=1 n=f#3 v=30
4113337 On ch=1 n=c0 v=10
4115461 On ch=1 n=g5 v=0
4117581 On ch=1 n=d5 v=30
4119701 On ch=1 n=c0 v=0
4121825 On ch=1 n=c0 v=10
4123940 On ch=1 n=b4 v=30
4126055 On ch=1 n=c0 v=10
4128179 On ch=1 n=d5 v=0
4130299 On ch=1 n=b4 v=30
4132419 On ch=1 n=c0 v=0
4134543 On ch=1 n=c0 v=10
4136658 On ch=1 n=d4 v=30
4138773 On ch=1 n=c0 v=10
4140897 On ch=1 n=e4 v=0
4143017 On ch=1 n=d4 v=30
4145137 On ch=1 n=c0 v=0
4147261 On ch=1 n=c0 v=10
4149376 On ch=1 n=d4 v=30
4151491 On ch=1 n=c0 v=10
4153609 On ch=1 n=a#4 v=0
4155731 On ch=1 n=d5 v=30
4157853 On ch=1 n=c0 v=0
4159971 On ch=1 n=c0 v=10
4162084 On ch=1 n=g#4 v=30
4164197 On ch=1 n=c0 v=10
4166319 On ch=1 n=b4 v=0
4168437 On ch=1 n=g4 v=30
4170555 On ch=1 n=c0 v=0
4172677 On ch=1 n=c0 v=10
4174790 On ch=1 n=g#3 v=30
4176903 On ch=1 n=c0 v=10
4179021 On ch=1 n=d4 v=0
4181143 On ch=1 n=b3 v=30
4183265 On ch=1 n=c0 v=0
4185383 On ch=1 n=c0 v=10
4187496 On ch=1 n=d#3 v=30
4189609 On ch=1 n=c0 v=10
4191722 On ch=1 n=g5 v=0
4193840 On ch=1 n=d#5 v=30
4195958 On ch=1 n=c0 v=0
4198071 On ch=1 n=c0 v=10
4200181 On ch=1 n=g#4 v=30
4202291 On ch=1 n=c0 v=10
4204404 On ch=1 n=b3 v=0
4206522 On ch=1 n=d4 v=30
4208640 On ch=1 n=c0 v=0
4210753 On ch=1 n=c0 v=10
4212863 On ch=1 n=e4 v=30
4214973 On ch=1 n=c0 v=10
4217091 On ch=1 n=g#3 v=0
4219204 On ch=1 n=b3 v=30
4221317 On ch=1 n=c0 v=0
4223435 On ch=1 n=c0 v=10
4225545 On ch=1 n=e4 v=30
4227655 On ch=1 n=c0 v=10
4229768 On ch=1 n=e4 v=0
4231878 On ch=1 n=e4 v=30
4233988 On ch=1 n=c0 v=0
4236101 On ch=1 n=c0 v=10
4238207 On ch=1 n=d4 v=30
4240313 On ch=1 n=c0 v=10
4242426 On ch=1 n=g#2 v=0
4244536 On ch=1 n=g#2 v=30
4246646 On ch=1 n=c0 v=0
4248759 On ch=1 n=c0 v=10
4250865 On ch=1 n=b3 v=30
4252971 On ch=1 n=c0 v=10
4255084 On ch=1 n=c3 v=0
4257194 On ch=1 n=c3 v=30
4259304 On ch=1 n=c0 v=0
4261417 On ch=1 n=c0 v=10
4263523 On ch=1 n=g4 v=30
4265629 On ch=1 n=c0 v=10
4267739 On ch=1 n=b3 v=0
4269845 On ch=1 n=b3 v=30
4271951 On ch=1 n=c0 v=0
4274061 On ch=1 n=c0 v=10
4276162 On ch=1 n=d#4 v=30
4278263 On ch=1 n=c0 v=10
4280373 On ch=1 n=c3 v=0
4282479 On ch=1 n=e3 v=30
4284585 On ch=1 n=c0 v=0
4286695 On ch=1 n=c0 v=10
4288796 On ch=1 n=a3 v=30
4290897 On ch=1 n=c0 v=10
4293007 On ch=1 n=d#3 v=0
4295113 On ch=1 n=g#3 v=30
4297219 On ch=1 n=c0 v=0
4299329 On ch=1 n=c0 v=10
4301430 On ch=1 n=c4 v=30
4303531 On ch=1 n=c0 v=10
4305639 On ch=1 n=d4 v=0
4307744 On ch=1 n=g#3 v=30
4309849 On ch=1 n=c0 v=0
4311957 On ch=1 n=c0 v=10
4314056 On ch=1 n=d#5 v=30
4316155 On ch=1 n=c0 v=10
4318263 On ch=1 n=g#3 v=0
4320368 On ch=1 n=g#3 v=30
4322473 On ch=1 n=c0 v=0
4324581 On ch=1 n=c0 v=10
4326680 On ch=1 n=b3 v=30
4328779 On ch=1 n=c0 v=10
4330887 On ch=1 n=d#3 v=0
4332992 On ch=1 n=c3 v=30
4335097 On ch=1 n=c0 v=0
4337205 On ch=1 n=c0 v=10
4339304 On ch=1 n=b3 v=30
4341403 On ch=1 n=c0 v=10
4343502 On ch=1 n=g#3 v=0
4345598 On ch=1 n=f3 v=30
4347694 On ch=1 n=c0 v=0
4349793 On ch=1 n=c0 v=10
4351882 On ch=1 n=d#5 v=30
4353971 On ch=1 n=c0 v=10
4356070 On ch=1 n=d3 v=0
4358166 On ch=1 n=g#3 v=30
4360262 On ch=1 n=c0 v=0
4362361 On ch=1 n=c0 v=10
4364450 On ch=1 n=d#5 v=30
4366539 On ch=1 n=c0 v=10
4368638 On ch=1 n=g#3 v=0
4370734 On ch=1 n=f3 v=30
4372830 On ch=1 n=c0 v=0
4374929 On ch=1 n=c0 v=10
4377018 On ch=1 n=d#4 v=30
4379107 On ch=1 n=c0 v=10
4381205 On ch=1 n=e3 v=30
4383303 On ch=1 n=c0 v=10
4385397 On ch=1 n=b2 v=30
4387491 On ch=1 n=c0 v=10
4389589 On ch=1 n=g2 v=30
4391687 On ch=1 n=c0 v=10
4393781 On ch=1 n=b2 v=30
4395875 On ch=1 n=c0 v=10
4397973 On ch=1 n=g2 v=30
4400071 On ch=1 n=c0 v=10
4402165 On ch=1 n=a2 v=30
4404259 On ch=1 n=c0 v=10
4406357 On ch=1 n=g#2 v=30
4408455 On ch=1 n=c0 v=10
4410549 On ch=1 n=a#1 v=30
4412643 On ch=1 n=c0 v=10
4414741 On ch=1 n=g#2 v=30
4416839 On ch=1 n=c0 v=10
4418933 On ch=1 n=e2 v=30
4421027 On ch=1 n=c0 v=10
4423125 On ch=1 n=b2 v=30
4425223 On ch=1 n=c0 v=10
4427317 On ch=1 n=d2 v=30
4429411 On ch=1 n=c0 v=10
4431509 On ch=1 n=d#2 v=30
4433607 On ch=1 n=c0 v=10
4435701 On ch=1 n=g2 v=30
4437795 On ch=1 n=c0 v=10
4439893 On ch=1 n=c2 v=30
4441991 On ch=1 n=c0 v=10
4444085 On ch=1 n=g2 v=30
4446179 On ch=1 n=c0 v=10
4448277 On ch=1 n=c2 v=30
4450375 On ch=1 n=c0 v=10
4452469 On ch=1 n=e2 v=30
4454563 On ch=1 n=c0 v=10
4456662 On ch=1 n=e3 v=30
4458761 On ch=1 n=c0 v=10
4460855 On ch=1 n=b2 v=30
4462949 On ch=1 n=c0 v=10
4465048 On ch=1 n=b2 v=30
4467147 On ch=1 n=c0 v=10
4469241 On ch=1 n=g#1 v=30
4471335 On ch=1 n=c0 v=10
4473434 On ch=1 n=g#2 v=30
4475533 On ch=1 n=c0 v=10
4477627 On ch=1 n=c1 v=30
4479721 On ch=1 n=c0 v=10
4481820 On ch=1 n=f#2 v=30
4483919 On ch=1 n=c0 v=10
4486012 On ch=1 n=e2 v=30
4488105 On ch=1 n=c0 v=10
4490204 On ch=1 n=f#2 v=30
4492303 On ch=1 n=c0 v=10
4494396 On ch=1 n=g#2 v=30
4496489 On ch=1 n=c0 v=10
4498588 On ch=1 n=g#2 v=30
4500687 On ch=1 n=c0 v=10
4502780 On ch=1 n=g#2 v=30
4504873 On ch=1 n=c0 v=10
4506972 On ch=1 n=a1 v=30
4509071 On ch=1 n=c0 v=10
4511164 On ch=1 n=g#1 v=30
4513257 On ch=1 n=c0 v=10
4515356 On ch=1 n=e2 v=30
4517455 On ch=1 n=c0 v=10
4519548 On ch=1 n=g#1 v=30
4521641 On ch=1 n=c0 v=10
4523740 On ch=1 n=b1 v=30
4525839 On ch=1 n=c0 v=10
4527932 On ch=1 n=g#1 v=30
4530025 On ch=1 n=c0 v=10
4532126 On ch=1 n=d6 v=0
4534225 On ch=1 n=c2 v=12
4540433 On ch=1 n=e5 v=8
4546641 On ch=1 n=g10 v=10
4548740 On ch=1 n=c0 v=10
4550834 On ch=1 n=a2 v=30
4552928 On ch=1 n=c0 v=0
4555029 On ch=1 n=c0 v=10
4557128 On ch=1 n=e3 v=30
4559227 On ch=1 n=c0 v=10
4561321 On ch=1 n=g#3 v=30
4563415 On ch=1 n=c0 v=10
4565514 On ch=1 n=g#2 v=30
4567613 On ch=1 n=c0 v=10
4569707 On ch=1 n=a2 v=30
4571801 On ch=1 n=c0 v=10
4573900 On ch=1 n=g#2 v=30
4575999 On ch=1 n=c0 v=10
4578093 On ch=1 n=d#1 v=30
4580187 On ch=1 n=c0 v=10
4582286 On ch=1 n=g#1 v=30
4584385 On ch=1 n=c0 v=10
4586479 On ch=1 n=d2 v=30
4588573 On ch=1 n=c0 v=10
4590672 On ch=1 n=d#2 v=30
4592771 On ch=1 n=c0 v=10
4594865 On ch=1 n=f#1 v=30
4596959 On ch=1 n=c0 v=5
4599060 On ch=1 n=f#5 v=5
4601158 On ch=1 n=b1 v=20
4607366 On ch=1 n=c8 v=5
4613574 On ch=1 n=e5 v=5
4615672 On ch=1 n=c0 v=10
4617766 On ch=1 n=a2 v=7
4623974 On ch=1 n=c8 v=5
4630182 On ch=1 n=g10 v=18
4632276 On ch=1 n=c0 v=10
4634374 On ch=1 n=a1 v=30
4636472 On ch=1 n=c0 v=10
4638566 On ch=1 n=a2 v=15
4640667 On ch=1 n=c0 v=15
4642761 On ch=1 n=c0 v=10
4644859 On ch=1 n=g2 v=30
4646957 On ch=1 n=c0 v=10
4649051 On ch=1 n=a2 v=30
4651145 On ch=1 n=c0 v=10
4653243 On ch=1 n=f2 v=30
4655341 On ch=1 n=c0 v=10
4657435 On ch=1 n=d#3 v=30
4659529 On ch=1 n=c0 v=10
4661627 On ch=1 n=a#2 v=30
4663725 On ch=1 n=c0 v=10
4665819 On ch=1 n=a2 v=30
4667913 On ch=1 n=c0 v=10
4670011 On ch=1 n=c#2 v=30
4672109 On ch=1 n=c0 v=10
4674203 On ch=1 n=d#3 v=30
4676297 On ch=1 n=c0 v=2
4678407 On ch=1 n=g#6 v=5
4680509 On ch=1 n=g#5 v=3
4682605 On ch=1 n=g2 v=0
4684703 On ch=1 n=d5 v=15
4690911 On ch=1 n=c8 v=7
4697119 On ch=1 n=e5 v=8
4699215 On ch=1 n=c0 v=10
4705423 On ch=1 n=c8 v=0
4707516 On ch=1 n=d2 v=7
4713724 On ch=1 n=g10 v=23
4715817 On ch=1 n=c0 v=10
4717913 On ch=1 n=f2 v=30
4720009 On ch=1 n=c0 v=10
4722102 On ch=1 n=c3 v=30
4724195 On ch=1 n=c0 v=10
4726291 On ch=1 n=f#1 v=30
4728387 On ch=1 n=c0 v=10
4730480 On ch=1 n=d#3 v=30
4732573 On ch=1 n=c0 v=10
4734669 On ch=1 n=g2 v=30
4736765 On ch=1 n=c0 v=10
4738858 On ch=1 n=a1 v=19
4740960 On ch=1 n=c0 v=11
4743053 On ch=1 n=c0 v=0
4745151 On ch=1 n=c0 v=2
4747261 On ch=1 n=c0 v=8
4749357 On ch=1 n=f2 v=30
4751453 On ch=1 n=c0 v=10
4753546 On ch=1 n=b1 v=30
4755639 On ch=1 n=c0 v=10
4757735 On ch=1 n=f#1 v=30
4759831 On ch=1 n=c0 v=10
4761924 On ch=1 n=d0 v=7
4764034 On ch=1 n=d7 v=3
4766132 On ch=1 n=d#6 v=19
4768242 On ch=1 n=c0 v=1
4770340 On ch=1 n=c0 v=0
4772433 On ch=1 n=c0 v=10
4774519 On ch=1 n=g5 v=0
4776602 On ch=1 n=b4 v=0
4778693 On ch=1 n=g5 v=0
4780772 On ch=1 n=a#5 v=0
4782882 On ch=1 n=a#8 v=12
4784980 On ch=1 n=d8 v=17
4787078 On ch=1 n=c0 v=1
4789188 On ch=1 n=c0 v=130
4789262 On ch=1 n=g2 v=0
4789262 On ch=1 n=g3 v=0
4789262 On ch=1 n=b2 v=0
4789262 On ch=1 n=d3 v=0
4789629 On ch=1 n=g6 v=86
4789632 On ch=1 n=g5 v=86
4789701 On ch=1 n=g6 v=0
4789737 On ch=1 n=g5 v=0
4789857 On ch=1 n=f#6 v=94
4789862 On ch=1 n=f#5 v=86
4789962 On ch=1 n=f#6 v=0
4789964 On ch=1 n=f#5 v=0
4790102 On ch=1 n=f6 v=86
4790102 On ch=1 n=f5 v=80
4790227 On ch=1 n=f6 v=0
4790249 On ch=1 n=f5 v=0
4790329 On ch=1 n=d#6 v=94
4790332 On ch=1 n=d#5 v=80
4790354 Par ch=1 c=64 v=96
4790364 Par ch=1 c=64 v=127
4790442 On ch=1 n=d#5 v=0
4790456 On ch=1 n=d#6 v=0
4790564 On ch=1 n=d6 v=86
4790569 On ch=1 n=d5 v=75
4790579 Par ch=1 c=64 v=96
4790589 Par ch=1 c=64 v=127
4790666 On ch=1 n=d6 v=0
4790801 On ch=1 n=c6 v=86
4790806 On ch=1 n=c5 v=80
4790816 Par ch=1 c=64 v=96
4790818 On ch=1 n=d5 v=0
4790829 Par ch=1 c=64 v=127
4790868 On ch=1 n=c5 v=0
4790871 On ch=1 n=c6 v=0
4791046 On ch=1 n=d#2 v=94
4791046 On ch=1 n=d#3 v=104
4791103 On ch=1 n=d#2 v=0
4791108 On ch=1 n=d#3 v=0
4791291 On ch=1 n=f3 v=102
4791291 On ch=1 n=f2 v=98
4791314 Par ch=1 c=64 v=64
4791331 Par ch=1 c=64 v=127
4791393 On ch=1 n=f2 v=0
4791403 On ch=1 n=f3 v=0
4791539 On ch=1 n=f#2 v=86
4791539 On ch=1 n=f#3 v=104
4791549 Par ch=1 c=64 v=64
4791569 Par ch=1 c=64 v=96
4791574 Par ch=1 c=64 v=127
4791666 On ch=1 n=f#3 v=0
4791666 On ch=1 n=f#2 v=0
4791721 On ch=1 n=g2 v=75
4791756 On ch=1 n=b2 v=59
4791781 On ch=1 n=d3 v=50
4791791 Par ch=1 c=64 v=127
4791803 On ch=1 n=d6 v=92
4791803 On ch=1 n=b5 v=86
4791810 On ch=1 n=g2 v=0
4791811 On ch=1 n=g3 v=98
4791815 On ch=1 n=b2 v=0
4791820 On ch=1 n=d3 v=0
4791828 On ch=1 n=g3 v=0
4791828 On ch=1 n=b5 v=0
4791833 On ch=1 n=d6 v=0
4792348 Par ch=1 c=64 v=96
4792356 Par ch=1 c=64 v=64
4792366 Par ch=1 c=64 v=0
4792496 On ch=1 n=f4 v=74
4792508 Par ch=1 c=64 v=64
4792516 On ch=1 n=f4 v=0
4792516 Par ch=1 c=64 v=96
4792516 On ch=1 n=g#4 v=51
4792521 Par ch=1 c=64 v=127
4792556 On ch=1 n=g#4 v=0
4792566 On ch=1 n=f4 v=40
4792596 On ch=1 n=f4 v=0
4792601 On ch=1 n=g#4 v=48
4792643 On ch=1 n=g#4 v=0
4792648 On ch=1 n=b5 v=70
4792653 On ch=1 n=d5 v=67
4792653 On ch=1 n=b4 v=60
4792656 On ch=1 n=f4 v=45
4792696 On ch=1 n=f4 v=0
4792698 On ch=1 n=g#4 v=62
4792700 On ch=1 n=d5 v=0
4792703 On ch=1 n=b4 v=0
4792710 On ch=1 n=b5 v=0
4792730 On ch=1 n=g#4 v=0
4792736 Par ch=1 c=64 v=64
4792736 On ch=1 n=d#4 v=80
4792743 Par ch=1 c=64 v=0
4792771 Par ch=1 c=64 v=64
4792776 Par ch=1 c=64 v=127
4792778 On ch=1 n=d#4 v=0
4792778 On ch=1 n=g4 v=56
4792818 On ch=1 n=g4 v=0
4792821 On ch=1 n=d#4 v=58
4792856 On ch=1 n=d#4 v=0
4792856 On ch=1 n=g4 v=50
4792858 Par ch=1 c=64 v=96
4792863 Par ch=1 c=64 v=64
4792871 Par ch=1 c=64 v=0
4792896 On ch=1 n=c6 v=70
4792906 On ch=1 n=g4 v=0
4792906 On ch=1 n=d#5 v=68
4792906 On ch=1 n=d#4 v=63
4792906 On ch=1 n=c5 v=52
4792913 Par ch=1 c=64 v=96
4792916 Par ch=1 c=64 v=127
4792931 On ch=1 n=c5 v=0
4792936 On ch=1 n=d#5 v=0
4792938 On ch=1 n=d#4 v=0
4792941 On ch=1 n=g4 v=52
4792946 On ch=1 n=c6 v=0
4792966 On ch=1 n=g4 v=0
4792986 Par ch=1 c=64 v=96
4792988 Par ch=1 c=64 v=0
4792991 On ch=1 n=g#3 v=80
4793018 Par ch=1 c=64 v=64
4793023 Par ch=1 c=64 v=127
4793028 On ch=1 n=f4 v=66
4793031 On ch=1 n=g#3 v=0
4793060 On ch=1 n=f4 v=0
4793066 On ch=1 n=g#3 v=55
4793098 On ch=1 n=f4 v=54
4793103 On ch=1 n=g#3 v=0
4793143 On ch=1 n=f4 v=0
4793143 On ch=1 n=d5 v=62
4793143 On ch=1 n=a#5 v=74
4793143 On ch=1 n=d6 v=75
4793148 On ch=1 n=g#3 v=68
4793151 Par ch=1 c=64 v=0
4793161 Par ch=1 c=64 v=64
4793166 Par ch=1 c=64 v=127
4793185 On ch=1 n=g#3 v=0
4793186 On ch=1 n=f4 v=54
4793216 On ch=1 n=f4 v=0
4793228 On ch=1 n=d5 v=0
4793231 Par ch=1 c=64 v=96
4793235 On ch=1 n=a#5 v=0
4793236 On ch=1 n=g3 v=75
4793236 Par ch=1 c=64 v=0
4793238 On ch=1 n=d6 v=0
4793261 Par ch=1 c=64 v=64
4793263 Par ch=1 c=64 v=127
4793273 On ch=1 n=g3 v=0
4793273 On ch=1 n=d#4 v=58
4793303 On ch=1 n=d#4 v=0
4793313 On ch=1 n=g3 v=59
4793343 On ch=1 n=g3 v=0
4793343 On ch=1 n=d#4 v=63
4793375 On ch=1 n=d#6 v=86
4793383 On ch=1 n=d#4 v=0
4793383 On ch=1 n=g3 v=62
4793383 On ch=1 n=d#5 v=74
4793383 On ch=1 n=c6 v=75
4793418 On ch=1 n=g3 v=0
4793420 On ch=1 n=d#4 v=58
4793447 On ch=1 n=d#4 v=0
4793453 Par ch=1 c=64 v=64
4793455 On ch=1 n=d#5 v=0
4793458 On ch=1 n=f3 v=84
4793460 On ch=1 n=c6 v=0
4793463 Par ch=1 c=64 v=0
4793465 On ch=1 n=d#6 v=0
4793483 Par ch=1 c=64 v=64
4793485 Par ch=1 c=64 v=127
4793495 On ch=1 n=d4 v=52
4793503 On ch=1 n=f3 v=0
4793537 On ch=1 n=d4 v=0
4793540 On ch=1 n=f3 v=63
4793570 On ch=1 n=f3 v=0
4793573 On ch=1 n=d4 v=56
4793613 On ch=1 n=d6 v=80
4793613 On ch=1 n=f6 v=86
4793618 On ch=1 n=d4 v=0
4793618 On ch=1 n=f3 v=71
4793618 On ch=1 n=f5 v=75
4793653 On ch=1 n=d4 v=59
4793660 On ch=1 n=f3 v=0
4793683 On ch=1 n=d4 v=0
4793685 On ch=1 n=f5 v=0
4793688 Par ch=1 c=64 v=64
4793690 On ch=1 n=f6 v=0
4793693 On ch=1 n=d6 v=0
4793693 Par ch=1 c=64 v=0
4793693 On ch=1 n=d#3 v=94
4793713 Par ch=1 c=64 v=64
4793718 Par ch=1 c=64 v=127
4793733 On ch=1 n=c4 v=62
4793738 On ch=1 n=d#3 v=0
4793773 On ch=1 n=d#3 v=80
4793778 On ch=1 n=c4 v=0
4793805 On ch=1 n=c4 v=62
4793810 On ch=1 n=d#3 v=0
4793843 On ch=1 n=g6 v=86
4793843 On ch=1 n=d#6 v=80
4793848 On ch=1 n=g5 v=75
4793850 On ch=1 n=d#3 v=63
4793852 On ch=1 n=c4 v=0
4793892 On ch=1 n=d#3 v=0
4793893 On ch=1 n=c4 v=56
4793920 On ch=1 n=c4 v=0
4793923 Par ch=1 c=64 v=96
4793925 Par ch=1 c=64 v=0
4793928 On ch=1 n=d3 v=80
4793933 On ch=1 n=g5 v=0
4793935 On ch=1 n=d#6 v=0
4793938 On ch=1 n=g6 v=0
4793950 Par ch=1 c=64 v=64
4793953 Par ch=1 c=64 v=127
4793965 On ch=1 n=b3 v=56
4793973 On ch=1 n=d3 v=0
4794008 On ch=1 n=d3 v=67
4794010 On ch=1 n=b3 v=0
4794045 On ch=1 n=b3 v=62
4794050 On ch=1 n=d3 v=0
4794083 On ch=1 n=g6 v=80
4794083 On ch=1 n=f6 v=80
4794083 On ch=1 n=g5 v=80
4794085 On ch=1 n=b3 v=0
4794085 On ch=1 n=d3 v=67
4794125 On ch=1 n=d3 v=0
4794125 On ch=1 n=b3 v=62
4794133 On ch=1 n=g5 v=0
4794150 On ch=1 n=g6 v=0
4794155 On ch=1 n=b3 v=0
4794155 On ch=1 n=f6 v=0
4794165 On ch=1 n=c3 v=75
4794168 Par ch=1 c=64 v=64
4794173 Par ch=1 c=64 v=0
4794190 Par ch=1 c=64 v=64
4794193 Par ch=1 c=64 v=127
4794213 On ch=1 n=d#3 v=44
4794215 On ch=1 n=c4 v=56
4794225 On ch=1 n=c3 v=0
4794233 On ch=1 n=d#3 v=0
4794252 On ch=1 n=c4 v=0
4794255 On ch=1 n=c3 v=80
4794260 On ch=1 n=d#3 v=47
4794295 On ch=1 n=c4 v=67
4794297 On ch=1 n=c3 v=0
4794330 On ch=1 n=c4 v=0
4794333 On ch=1 n=d#7 v=94
4794335 On ch=1 n=d#6 v=74
4794335 On ch=1 n=g6 v=80
4794342 On ch=1 n=d#3 v=0
4794343 On ch=1 n=c3 v=44
4794375 On ch=1 n=c4 v=70
4794378 On ch=1 n=c3 v=0
4794383 On ch=1 n=d#3 v=38
4794390 On ch=1 n=d#3 v=0
4794392 On ch=1 n=g6 v=0
4794395 On ch=1 n=c4 v=0
4794405 On ch=1 n=d#7 v=0
4794407 On ch=1 n=d#6 v=0
4794417 On ch=1 n=a#2 v=94
4794420 Par ch=1 c=64 v=96
4794425 Par ch=1 c=64 v=0
4794427 On ch=1 n=e3 v=67
4794450 Par ch=1 c=64 v=96
4794452 Par ch=1 c=64 v=127
4794460 On ch=1 n=a#3 v=62
4794467 On ch=1 n=a#2 v=0
4794479 On ch=1 n=e3 v=0
4794497 On ch=1 n=a#3 v=0
4794497 On ch=1 n=a#2 v=86
4794532 On ch=1 n=e3 v=75
4794535 On ch=1 n=a#3 v=90
4794544 On ch=1 n=a#2 v=0
4794570 On ch=1 n=a#3 v=0
4794580 On ch=1 n=d7 v=92
4794580 On ch=1 n=a#2 v=86
4794580 On ch=1 n=d6 v=86
4794580 On ch=1 n=g#6 v=86
4794587 On ch=1 n=a#3 v=67
4794595 On ch=1 n=d6 v=0
4794599 On ch=1 n=a#3 v=0
4794599 On ch=1 n=e3 v=0
4794600 On ch=1 n=d7 v=0
4794602 On ch=1 n=g#6 v=0
4794602 On ch=1 n=a#2 v=0
4794620 On ch=1 n=d#3 v=58
4794645 On ch=1 n=d#3 v=0
4794655 On ch=1 n=c#7 v=104
4794657 On ch=1 n=a6 v=86
4794657 On ch=1 n=c#6 v=86
4794660 On ch=1 n=a3 v=92
4794660 On ch=1 n=a2 v=86
4794662 On ch=1 n=e3 v=86
4794677 Par ch=1 c=64 v=64
4794680 Par ch=1 c=64 v=0
4794735 Par ch=1 c=64 v=64
4794740 Par ch=1 c=64 v=96
4794745 Par ch=1 c=64 v=127
4794825 Par ch=1 c=64 v=64
4794850 On ch=1 n=a2 v=0
4794852 On ch=1 n=e3 v=0
4794852 On ch=1 n=c#6 v=0
4794852 Par ch=1 c=64 v=96
4794855 On ch=1 n=a3 v=0
4794857 On ch=1 n=a6 v=0
4794857 On ch=1 n=c#7 v=0
4794890 Par ch=1 c=64 v=127
4795115 Par ch=1 c=64 v=96
4795122 Par ch=1 c=64 v=64
4795130 Par ch=1 c=64 v=0
4795392 On ch=1 n=a6 v=86
4795400 On ch=1 n=a5 v=86
4795570 On ch=1 n=a5 v=0
4795577 On ch=1 n=a6 v=0
4795617 On ch=1 n=g#5 v=74
4795617 On ch=1 n=g#6 v=94
4795627 Par ch=1 c=64 v=96
4795637 Par ch=1 c=64 v=127
4795679 On ch=1 n=g#6 v=0
4795709 On ch=1 n=g#5 v=0
4795845 On ch=1 n=g6 v=92
4795850 On ch=1 n=g5 v=80
4795855 Par ch=1 c=64 v=96
4795872 Par ch=1 c=64 v=127
4795915 On ch=1 n=g6 v=0
4795917 On ch=1 n=g5 v=0
4796070 On ch=1 n=f6 v=86
4796075 On ch=1 n=f5 v=86
4796080 Par ch=1 c=64 v=96
4796087 Par ch=1 c=64 v=64
4796102 Par ch=1 c=64 v=127
4796147 On ch=1 n=f6 v=0
4796150 On ch=1 n=f5 v=0
4796307 Par ch=1 c=64 v=96
4796310 On ch=1 n=e6 v=86
4796310 On ch=1 n=e5 v=78
4796317 Par ch=1 c=64 v=64
4796327 Par ch=1 c=64 v=96
4796332 Par ch=1 c=64 v=127
4796365 On ch=1 n=e6 v=0
4796367 On ch=1 n=e5 v=0
4796545 On ch=1 n=d6 v=86
4796545 On ch=1 n=d5 v=86
4796580 On ch=1 n=d5 v=0
4796590 On ch=1 n=d6 v=0
4796792 On ch=1 n=f3 v=110
4796797 On ch=1 n=f2 v=98
4796807 Par ch=1 c=64 v=96
4796817 Par ch=1 c=64 v=64
4796825 Par ch=1 c=64 v=0
4796830 Par ch=1 c=64 v=64
4796837 Par ch=1 c=64 v=127
4796899 On ch=1 n=f2 v=0
4796919 On ch=1 n=f3 v=0
4797032 On ch=1 n=g3 v=98
4797032 On ch=1 n=g2 v=98
4797042 Par ch=1 c=64 v=64
4797050 Par ch=1 c=64 v=0
4797072 Par ch=1 c=64 v=96
4797080 Par ch=1 c=64 v=127
4797119 On ch=1 n=g2 v=0
4797119 On ch=1 n=g3 v=0
4797257 On ch=1 n=g#2 v=94
4797262 Par ch=1 c=64 v=96
4797264 On ch=1 n=g#3 v=104
4797269 Par ch=1 c=64 v=0
4797279 Par ch=1 c=64 v=64
4797284 Par ch=1 c=64 v=127
4797324 On ch=1 n=g#2 v=0
4797363 On ch=1 n=g#3 v=0
4797444 On ch=1 n=a2 v=62
4797466 On ch=1 n=c#3 v=74
4797496 On ch=1 n=e3 v=41
4797511 Par ch=1 c=64 v=96
4797516 Par ch=1 c=64 v=0
4797519 On ch=1 n=c#6 v=94
4797521 On ch=1 n=e6 v=86
4797524 On ch=1 n=a3 v=106
4797556 Par ch=1 c=64 v=64
4797564 Par ch=1 c=64 v=127
4797656 On ch=1 n=a2 v=0
4797666 On ch=1 n=c#3 v=0
4797671 On ch=1 n=a3 v=0
4797671 On ch=1 n=e3 v=0
4797683 On ch=1 n=e6 v=0
4797691 On ch=1 n=c#6 v=0
4798204 Par ch=1 c=64 v=96
4798211 Par ch=1 c=64 v=64
4798219 Par ch=1 c=64 v=0
4798261 On ch=1 n=g4 v=56
4798271 Par ch=1 c=64 v=64
4798281 Par ch=1 c=64 v=96
4798288 Par ch=1 c=64 v=127
4798295 On ch=1 n=g4 v=0
4798301 On ch=1 n=a#4 v=15
4798321 Par ch=1 c=64 v=96
4798331 On ch=1 n=a#4 v=0
4798341 On ch=1 n=g4 v=23
4798371 On ch=1 n=g4 v=0
4798371 On ch=1 n=a#4 v=32
4798401 Par ch=1 c=64 v=127
4798406 On ch=1 n=a#4 v=0
4798411 On ch=1 n=c#6 v=63
4798416 On ch=1 n=c#5 v=36
4798416 On ch=1 n=e5 v=52
4798421 On ch=1 n=g4 v=32
4798448 On ch=1 n=g4 v=0
4798451 On ch=1 n=a#4 v=47
4798476 On ch=1 n=a#4 v=0
4798478 Par ch=1 c=64 v=96
4798483 Par ch=1 c=64 v=0
4798486 On ch=1 n=f4 v=63
4798498 On ch=1 n=e5 v=0
4798501 On ch=1 n=c#5 v=0
4798511 On ch=1 n=c#6 v=0
4798521 Par ch=1 c=64 v=64
4798521 On ch=1 n=a4 v=39
4798523 On ch=1 n=f4 v=0
4798526 Par ch=1 c=64 v=96
4798541 Par ch=1 c=64 v=127
4798558 On ch=1 n=a4 v=0
4798563 On ch=1 n=f4 v=51
4798590 On ch=1 n=f4 v=0
4798593 On ch=1 n=a4 v=44
4798630 On ch=1 n=a4 v=0
4798633 On ch=1 n=f4 v=54
4798636 On ch=1 n=d6 v=70
4798641 On ch=1 n=d5 v=52
4798641 On ch=1 n=f5 v=56
4798668 On ch=1 n=f4 v=0
4798678 On ch=1 n=a4 v=44
4798698 On ch=1 n=a4 v=0
4798701 Par ch=1 c=64 v=96
4798703 On ch=1 n=f5 v=0
4798706 Par ch=1 c=64 v=0
4798708 On ch=1 n=d5 v=0
4798708 On ch=1 n=a#3 v=72
4798716 On ch=1 n=d6 v=0
4798731 Par ch=1 c=64 v=64
4798736 Par ch=1 c=64 v=127
4798750 On ch=1 n=a#3 v=0
4798753 On ch=1 n=g4 v=52
4798785 On ch=1 n=g4 v=0
4798793 On ch=1 n=a#3 v=51
4798820 On ch=1 n=a#3 v=0
4798828 On ch=1 n=g4 v=41
4798863 On ch=1 n=g4 v=0
4798866 On ch=1 n=e6 v=70
4798868 On ch=1 n=c6 v=70
4798868 On ch=1 n=e5 v=60
4798873 On ch=1 n=a#3 v=62
4798908 On ch=1 n=a#3 v=0
4798911 On ch=1 n=g4 v=47
4798936 On ch=1 n=g4 v=0
4798940 On ch=1 n=e5 v=0
4798941 Par ch=1 c=64 v=96
4798943 On ch=1 n=a3 v=75
4798948 Par ch=1 c=64 v=0
4798950 On ch=1 n=c6 v=0
4798951 On ch=1 n=e6 v=0
4798968 Par ch=1 c=64 v=64
4798971 Par ch=1 c=64 v=127
4798986 On ch=1 n=f4 v=51
4798990 On ch=1 n=a3 v=0
4799018 On ch=1 n=f4 v=0
4799026 On ch=1 n=a3 v=56
4799051 On ch=1 n=a3 v=0
4799058 On ch=1 n=f4 v=54
4799091 On ch=1 n=f6 v=75
4799093 On ch=1 n=f4 v=0
4799093 On ch=1 n=d6 v=75
4799093 On ch=1 n=f5 v=67
4799101 On ch=1 n=a3 v=52
4799133 On ch=1 n=a3 v=0
4799141 On ch=1 n=f4 v=51
4799160 On ch=1 n=f5 v=0
4799161 On ch=1 n=f4 v=0
4799166 Par ch=1 c=64 v=64
4799168 On ch=1 n=d6 v=0
4799168 On ch=1 n=g3 v=80
4799171 Par ch=1 c=64 v=0
4799173 On ch=1 n=f6 v=0
4799191 Par ch=1 c=64 v=64
4799193 Par ch=1 c=64 v=127
4799210 On ch=1 n=g3 v=0
4799211 On ch=1 n=e4 v=52
4799246 On ch=1 n=e4 v=0
4799251 On ch=1 n=g3 v=67
4799283 On ch=1 n=g3 v=0
4799288 On ch=1 n=e4 v=62
4799313 On ch=1 n=g6 v=86
4799316 On ch=1 n=e6 v=86
4799316 On ch=1 n=g5 v=70
4799323 On ch=1 n=e4 v=0
4799323 On ch=1 n=a5 v=62
4799326 On ch=1 n=g3 v=67
4799328 On ch=1 n=a5 v=0
4799363 On ch=1 n=g3 v=0
4799366 On ch=1 n=e4 v=62
4799386 On ch=1 n=e4 v=0
4799386 On ch=1 n=g5 v=0
4799391 Par ch=1 c=64 v=0
4799395 On ch=1 n=g6 v=0
4799396 On ch=1 n=f3 v=90
4799398 On ch=1 n=e6 v=0
4799413 Par ch=1 c=64 v=64
4799418 Par ch=1 c=64 v=127
4799428 On ch=1 n=d4 v=67
4799430 On ch=1 n=f3 v=0
4799468 On ch=1 n=d4 v=0
4799470 On ch=1 n=f3 v=79
4799500 On ch=1 n=f3 v=0
4799503 On ch=1 n=d4 v=70
4799538 On ch=1 n=a6 v=80
4799540 On ch=1 n=d4 v=0
4799540 On ch=1 n=f6 v=80
4799540 On ch=1 n=a5 v=80
4799543 On ch=1 n=f3 v=74
4799570 On ch=1 n=f3 v=0
4799578 On ch=1 n=d4 v=44
4799600 On ch=1 n=d4 v=0
4799610 On ch=1 n=a5 v=0
4799613 On ch=1 n=a6 v=0
4799613 Par ch=1 c=64 v=64
4799617 On ch=1 n=f6 v=0
4799618 On ch=1 n=e3 v=86
4799618 Par ch=1 c=64 v=0
4799635 Par ch=1 c=64 v=64
4799638 Par ch=1 c=64 v=127
4799658 On ch=1 n=e3 v=0
4799658 On ch=1 n=c#4 v=58
4799688 On ch=1 n=c#4 v=0
4799688 On ch=1 n=e3 v=59
4799720 On ch=1 n=e3 v=0
4799725 On ch=1 n=c#4 v=74
4799755 On ch=1 n=c#4 v=0
4799758 On ch=1 n=e3 v=67
4799763 On ch=1 n=a6 v=75
4799768 On ch=1 n=g6 v=80
4799768 On ch=1 n=a5 v=80
4799788 On ch=1 n=e3 v=0
4799795 On ch=1 n=c#4 v=63
4799820 On ch=1 n=c#4 v=0
4799830 On ch=1 n=a5 v=0
4799835 Par ch=1 c=64 v=64
4799835 On ch=1 n=d3 v=98
4799840 Par ch=1 c=64 v=0
4799845 On ch=1 n=f3 v=16
4799848 On ch=1 n=g6 v=0
4799848 On ch=1 n=a6 v=0
4799855 On ch=1 n=f3 v=0
4799858 Par ch=1 c=64 v=64
4799860 Par ch=1 c=64 v=127
4799870 On ch=1 n=d4 v=56
4799873 On ch=1 n=a3 v=9
4799877 On ch=1 n=d3 v=0
4799878 On ch=1 n=f3 v=20
4799895 On ch=1 n=f3 v=0
4799905 On ch=1 n=a3 v=0
4799907 On ch=1 n=d4 v=0
4799913 On ch=1 n=d3 v=75
4799943 On ch=1 n=d3 v=0
4799943 On ch=1 n=d4 v=62
4799948 On ch=1 n=a3 v=50
4799985 On ch=1 n=f7 v=92
4799988 On ch=1 n=d4 v=0
4799988 On ch=1 n=d3 v=80
4799988 On ch=1 n=a6 v=75
4799988 On ch=1 n=f6 v=75
4799995 On ch=1 n=f3 v=29
4800000 On ch=1 n=a3 v=0
4800007 On ch=1 n=f3 v=0
4800025 On ch=1 n=d3 v=0
4800028 On ch=1 n=d4 v=31
4800040 On ch=1 n=d4 v=0
4800065 On ch=1 n=f6 v=0
4800065 On ch=1 n=f7 v=0
4800068 On ch=1 n=c#3 v=86
4800070 Par ch=1 c=64 v=64
4800073 On ch=1 n=a6 v=0
4800078 Par ch=1 c=64 v=0
4800088 Par ch=1 c=64 v=64
4800090 Par ch=1 c=64 v=127
4800100 On ch=1 n=a3 v=62
4800108 On ch=1 n=c#3 v=0
4800135 On ch=1 n=c#3 v=74
4800135 On ch=1 n=e3 v=75
4800137 On ch=1 n=a3 v=0
4800167 On ch=1 n=c#3 v=0
4800168 On ch=1 n=a3 v=44
4800175 On ch=1 n=c#4 v=74
4800187 On ch=1 n=e3 v=0
4800193 On ch=1 n=a3 v=0
4800195 On ch=1 n=c#4 v=0
4800215 On ch=1 n=e7 v=92
4800218 On ch=1 n=e6 v=80
4800218 On ch=1 n=a6 v=86
4800228 On ch=1 n=a3 v=41
4800230 On ch=1 n=e6 v=0
4800232 On ch=1 n=e7 v=0
4800233 On ch=1 n=a6 v=0
4800235 On ch=1 n=a3 v=0
4800260 On ch=1 n=c3 v=92
4800277 On ch=1 n=c3 v=0
4800278 On ch=1 n=c3 v=86
4800280 Par ch=1 c=64 v=64
4800285 Par ch=1 c=64 v=0
4800295 On ch=1 n=d#7 v=104
4800298 On ch=1 n=d#6 v=86
4800298 On ch=1 n=c4 v=98
4800298 On ch=1 n=f#6 v=86
4800298 On ch=1 n=a6 v=92
4800305 On ch=1 n=b3 v=67
4800307 On ch=1 n=b3 v=0
4800310 Par ch=1 c=64 v=127
4800315 On ch=1 n=c5 v=106
4800318 On ch=1 n=c4 v=0
4800318 On ch=1 n=c4 v=92
4800325 Par ch=1 c=64 v=127
4800328 On ch=1 n=b3 v=36
4800332 On ch=1 n=c5 v=0
4800338 On ch=1 n=b3 v=0
4800370 On ch=1 n=d#6 v=0
4800377 On ch=1 n=d#7 v=0
4800378 On ch=1 n=f#6 v=0
4800383 On ch=1 n=a6 v=0
4800508 Par ch=1 c=64 v=96
4800515 On ch=1 n=c3 v=0
4800525 On ch=1 n=c4 v=0
4800735 On ch=1 n=b2 v=75
4800782 On ch=1 n=b3 v=92
4800782 On ch=1 n=b4 v=102
4800792 On ch=1 n=b2 v=0
4800799 On ch=1 n=b4 v=0
4800799 On ch=1 n=b3 v=0
4801112 On ch=1 n=c6 v=92
4801112 On ch=1 n=c5 v=75
4801352 On ch=1 n=c5 v=0
4801352 On ch=1 n=c6 v=0
4801352 On ch=1 n=b5 v=92
4801352 On ch=1 n=b4 v=79
4801372 Par ch=1 c=64 v=64
4801387 Par ch=1 c=64 v=96
4801394 Par ch=1 c=64 v=127
4801592 On ch=1 n=b4 v=0
4801592 On ch=1 n=b5 v=0
4801592 On ch=1 n=a5 v=92
4801592 On ch=1 n=a4 v=75
4801612 Par ch=1 c=64 v=64
4801637 Par ch=1 c=64 v=96
4801644 Par ch=1 c=64 v=127
4801832 On ch=1 n=a4 v=0
4801832 On ch=1 n=a5 v=0
4801832 On ch=1 n=e5 v=78
4801832 On ch=1 n=g#4 v=84
4801849 Par ch=1 c=64 v=0
4801884 Par ch=1 c=64 v=64
4801892 On ch=1 n=g#4 v=0
4801892 On ch=1 n=e5 v=0
4801892 Par ch=1 c=64 v=96
4801902 Par ch=1 c=64 v=127
4801952 On ch=1 n=e3 v=80
4802012 On ch=1 n=e3 v=0
4802052 Par ch=1 c=64 v=96
4802059 Par ch=1 c=64 v=0
4802069 On ch=1 n=d#5 v=74
4802069 On ch=1 n=c5 v=70
4802081 Par ch=1 c=64 v=64
4802089 Par ch=1 c=64 v=127
4802129 On ch=1 n=c5 v=0
4802129 On ch=1 n=d#5 v=0
4802189 On ch=1 n=e4 v=80
4802249 On ch=1 n=e4 v=0
4802309 On ch=1 n=d5 v=70
4802309 On ch=1 n=b4 v=74
4802311 Par ch=1 c=64 v=96
4802326 Par ch=1 c=64 v=64
4802334 Par ch=1 c=64 v=96
4802339 Par ch=1 c=64 v=127
4802369 On ch=1 n=b4 v=0
4802369 On ch=1 n=d5 v=0
4802429 On ch=1 n=e3 v=56
4802489 On ch=1 n=e3 v=0
4802531 Par ch=1 c=64 v=96
4802539 Par ch=1 c=64 v=64
4802549 On ch=1 n=c#5 v=90
4802549 On ch=1 n=a#4 v=80
4802561 Par ch=1 c=64 v=96
4802569 Par ch=1 c=64 v=127
4802609 On ch=1 n=a#4 v=0
4802609 On ch=1 n=c#5 v=0
4802669 On ch=1 n=e4 v=67
4802729 On ch=1 n=e4 v=0
4802759 Par ch=1 c=64 v=96
4802766 Par ch=1 c=64 v=0
4802789 On ch=1 n=c5 v=75
4802789 On ch=1 n=a4 v=70
4802789 On ch=1 n=d#4 v=80
4802806 Par ch=1 c=64 v=127
4802849 On ch=1 n=d#4 v=0
4802849 On ch=1 n=a4 v=0
4802849 On ch=1 n=c5 v=0
4802909 On ch=1 n=e3 v=70
4802969 On ch=1 n=e3 v=0
4803024 Par ch=1 c=64 v=96
4803029 On ch=1 n=g#4 v=78
4803029 On ch=1 n=b4 v=71
4803029 On ch=1 n=e4 v=67
4803029 Par ch=1 c=64 v=64
4803046 Par ch=1 c=64 v=0
4803051 Par ch=1 c=64 v=64
4803059 Par ch=1 c=64 v=96
4803064 Par ch=1 c=64 v=127
4803089 On ch=1 n=e4 v=0
4803089 On ch=1 n=b4 v=0
4803089 On ch=1 n=g#4 v=0
4803199 On ch=1 n=c#3 v=80
4803246 Par ch=1 c=64 v=64
4803249 On ch=1 n=c#4 v=80
4803254 Par ch=1 c=64 v=127
4803266 On ch=1 n=c#3 v=0
4803276 On ch=1 n=c#4 v=0
4803316 On ch=1 n=c#5 v=108
4803336 On ch=1 n=c#5 v=0
4803656 On ch=1 n=c3 v=80
4803696 On ch=1 n=c4 v=75
4803713 On ch=1 n=c3 v=0
4803723 On ch=1 n=c4 v=0
4803768 On ch=1 n=c5 v=106
4803785 On ch=1 n=c5 v=0
4803986 On ch=1 n=c#5 v=78
4803986 On ch=1 n=c#6 v=86
4804166 On ch=1 n=c#6 v=0
4804166 On ch=1 n=c#5 v=0
4804226 On ch=1 n=c5 v=70
4804226 On ch=1 n=c6 v=80
4804406 On ch=1 n=c6 v=0
4804406 On ch=1 n=c5 v=0
4804466 On ch=1 n=a#4 v=74
4804466 On ch=1 n=a#5 v=74
4804646 On ch=1 n=a#5 v=0
4804646 On ch=1 n=a#4 v=0
4804696 Par ch=1 c=64 v=96
4804703 Par ch=1 c=64 v=0
4804706 On ch=1 n=a4 v=75
4804706 On ch=1 n=f5 v=80
4804746 Par ch=1 c=64 v=64
4804753 Par ch=1 c=64 v=127
4804763 On ch=1 n=f5 v=0
4804763 On ch=1 n=a4 v=0
4804823 On ch=1 n=f3 v=84
4804883 On ch=1 n=f3 v=0
4804915 Par ch=1 c=64 v=96
4804923 Par ch=1 c=64 v=0
4804943 On ch=1 n=e5 v=64
4804943 On ch=1 n=c#5 v=72
4804945 Par ch=1 c=64 v=64
4804960 Par ch=1 c=64 v=127
4805003 On ch=1 n=c#5 v=0
4805003 On ch=1 n=e5 v=0
4805063 On ch=1 n=f4 v=74
4805123 On ch=1 n=f4 v=0
4805163 Par ch=1 c=64 v=96
4805183 On ch=1 n=d#5 v=80
4805183 On ch=1 n=c5 v=70
4805203 Par ch=1 c=64 v=127
4805243 On ch=1 n=c5 v=0
4805243 On ch=1 n=d#5 v=0
4805303 On ch=1 n=f3 v=79
4805363 On ch=1 n=f3 v=0
4805400 Par ch=1 c=64 v=96
4805405 Par ch=1 c=64 v=64
4805415 Par ch=1 c=64 v=96
4805420 On ch=1 n=d5 v=62
4805420 On ch=1 n=b4 v=71
4805422 Par ch=1 c=64 v=127
4805480 On ch=1 n=b4 v=0
4805480 On ch=1 n=d5 v=0
4805540 On ch=1 n=f4 v=79
4805600 On ch=1 n=f4 v=0
4805630 Par ch=1 c=64 v=96
4805650 Par ch=1 c=64 v=127
4805660 On ch=1 n=c#5 v=84
4805660 On ch=1 n=e4 v=75
4805660 On ch=1 n=a#4 v=68
4805720 On ch=1 n=a#4 v=0
4805720 On ch=1 n=e4 v=0
4805720 On ch=1 n=c#5 v=0
4805780 On ch=1 n=f3 v=79
4805840 On ch=1 n=f3 v=0
4805870 Par ch=1 c=64 v=96
4805877 Par ch=1 c=64 v=0
4805887 Par ch=1 c=64 v=64
4805894 Par ch=1 c=64 v=96
4805897 On ch=1 n=c5 v=70
4805897 On ch=1 n=f4 v=74
4805897 On ch=1 n=a4 v=62
4805899 Par ch=1 c=64 v=127
4805957 On ch=1 n=a4 v=0
4805957 On ch=1 n=f4 v=0
4805957 On ch=1 n=c5 v=0
4806047 On ch=1 n=d#3 v=80
4806054 Par ch=1 c=64 v=96
4806059 Par ch=1 c=64 v=0
4806077 Par ch=1 c=64 v=64
4806084 Par ch=1 c=64 v=96
4806089 Par ch=1 c=64 v=127
4806094 On ch=1 n=d#4 v=74
4806104 On ch=1 n=d#3 v=0
4806116 On ch=1 n=d#4 v=0
4806154 On ch=1 n=d#5 v=94
4806174 On ch=1 n=d#5 v=0
4806484 On ch=1 n=d3 v=86
4806501 Par ch=1 c=64 v=96
4806511 Par ch=1 c=64 v=127
4806513 On ch=1 n=d4 v=67
4806523 On ch=1 n=d3 v=0
4806537 On ch=1 n=d4 v=0
4806585 On ch=1 n=d5 v=106
4806602 On ch=1 n=d5 v=0
4806848 On ch=1 n=d#5 v=80
4806848 On ch=1 n=d#6 v=86
4806968 On ch=1 n=d#6 v=0
4806968 On ch=1 n=d#5 v=0
4807088 On ch=1 n=d5 v=75
4807088 On ch=1 n=d6 v=80
4807125 Par ch=1 c=64 v=96
4807188 Par ch=1 c=64 v=64
4807208 On ch=1 n=d6 v=0
4807208 On ch=1 n=d5 v=0
4807243 Par ch=1 c=64 v=64
4807288 Par ch=1 c=64 v=96
4807328 On ch=1 n=c5 v=80
4807328 On ch=1 n=c6 v=92
4807348 Par ch=1 c=64 v=64
4807358 Par ch=1 c=64 v=96
4807403 Par ch=1 c=64 v=127
4807408 Par ch=1 c=64 v=0
4807448 On ch=1 n=c6 v=0
4807448 On ch=1 n=c5 v=0
4807568 On ch=1 n=b4 v=71
4807568 On ch=1 n=g4 v=75
4807600 Par ch=1 c=64 v=96
4807603 On ch=1 n=g5 v=86
4807610 Par ch=1 c=64 v=64
4807628 On ch=1 n=g4 v=0
4807628 On ch=1 n=b4 v=0
4807628 Par ch=1 c=64 v=96
4807635 Par ch=1 c=64 v=127
4807688 On ch=1 n=g3 v=70
4807748 On ch=1 n=g3 v=0
4807808 On ch=1 n=b4 v=66
4807808 On ch=1 n=d5 v=47
4807820 On ch=1 n=f5 v=80
4807828 On ch=1 n=g5 v=0
4807840 Par ch=1 c=64 v=96
4807848 Par ch=1 c=64 v=64
4807858 Par ch=1 c=64 v=0
4807868 On ch=1 n=d5 v=0
4807868 On ch=1 n=b4 v=0
4807868 Par ch=1 c=64 v=64
4807878 Par ch=1 c=64 v=127
4807928 On ch=1 n=b3 v=59
4807988 On ch=1 n=b3 v=0
4808047 On ch=1 n=f5 v=0
4808048 On ch=1 n=c5 v=62
4808053 On ch=1 n=d#5 v=86
4808068 Par ch=1 c=64 v=96
4808078 Par ch=1 c=64 v=64
4808088 Par ch=1 c=64 v=0
4808098 Par ch=1 c=64 v=96
4808105 Par ch=1 c=64 v=127
4808108 On ch=1 n=c5 v=0
4808168 On ch=1 n=c4 v=62
4808228 On ch=1 n=c4 v=0
4808288 On ch=1 n=a#4 v=63
4808298 On ch=1 n=d#5 v=0
4808298 On ch=1 n=c5 v=75
4808308 Par ch=1 c=64 v=96
4808318 Par ch=1 c=64 v=64
4808330 Par ch=1 c=64 v=96
4808340 Par ch=1 c=64 v=127
4808348 On ch=1 n=a#4 v=0
4808408 On ch=1 n=a#3 v=62
4808468 On ch=1 n=a#3 v=0
4808528 On ch=1 n=a4 v=67
4808538 On ch=1 n=c5 v=0
4808538 On ch=1 n=d#5 v=74
4808550 Par ch=1 c=64 v=96
4808558 Par ch=1 c=64 v=64
4808568 Par ch=1 c=64 v=0
4808578 Par ch=1 c=64 v=96
4808585 Par ch=1 c=64 v=127
4808588 On ch=1 n=a4 v=0
4808648 On ch=1 n=a3 v=59
4808708 On ch=1 n=a3 v=0
4808768 On ch=1 n=a4 v=56
4808768 On ch=1 n=g4 v=59
4808778 On ch=1 n=d#5 v=0
4808778 On ch=1 n=c5 v=75
4808790 Par ch=1 c=64 v=96
4808808 Par ch=1 c=64 v=127
4808828 On ch=1 n=g4 v=0
4808828 On ch=1 n=a4 v=0
4808888 On ch=1 n=g3 v=70
4808910 On ch=1 n=c5 v=0
4808948 On ch=1 n=g3 v=0
4809008 On ch=1 n=a4 v=67
4809008 On ch=1 n=f4 v=71
4809028 On ch=1 n=f5 v=86
4809043 Par ch=1 c=64 v=64
4809050 Par ch=1 c=64 v=0
4809068 On ch=1 n=f4 v=0
4809068 On ch=1 n=a4 v=0
4809070 Par ch=1 c=64 v=96
4809078 Par ch=1 c=64 v=127
4809128 On ch=1 n=f3 v=74
4809188 On ch=1 n=f3 v=0
4809248 On ch=1 n=a4 v=62
4809248 On ch=1 n=c5 v=62
4809258 On ch=1 n=d#5 v=74
4809265 On ch=1 n=f5 v=0
4809270 Par ch=1 c=64 v=64
4809280 Par ch=1 c=64 v=0
4809298 Par ch=1 c=64 v=64
4809305 Par ch=1 c=64 v=127
4809308 On ch=1 n=c5 v=0
4809308 On ch=1 n=a4 v=0
4809368 On ch=1 n=a3 v=62
4809428 On ch=1 n=a3 v=0
4809488 On ch=1 n=a#4 v=63
4809498 On ch=1 n=d#5 v=0
4809498 On ch=1 n=d5 v=75
4809503 Par ch=1 c=64 v=96
4809510 Par ch=1 c=64 v=0
4809528 Par ch=1 c=64 v=64
4809538 Par ch=1 c=64 v=127
4809548 On ch=1 n=a#4 v=0
4809608 On ch=1 n=a#3 v=62
4809668 On ch=1 n=a#3 v=0
4809728 On ch=1 n=a4 v=70
4809738 On ch=1 n=d5 v=0
4809738 On ch=1 n=a#4 v=74
4809748 Par ch=1 c=64 v=0
4809773 Par ch=1 c=64 v=64
4809783 Par ch=1 c=64 v=127
4809788 On ch=1 n=a4 v=0
4809848 On ch=1 n=a3 v=62
4809908 On ch=1 n=a3 v=0
4809968 On ch=1 n=a#4 v=0
4809968 On ch=1 n=g4 v=70
4809968 On ch=1 n=a#4 v=68
4809985 On ch=1 n=d5 v=70
4809995 Par ch=1 c=64 v=64
4810002 Par ch=1 c=64 v=0
4810020 Par ch=1 c=64 v=64
4810025 On ch=1 n=a#4 v=0
4810025 On ch=1 n=g4 v=0
4810025 Par ch=1 c=64 v=127
4810085 On ch=1 n=g3 v=75
4810145 On ch=1 n=g3 v=0
4810205 On ch=1 n=a4 v=67
4810205 On ch=1 n=f4 v=66
4810215 On ch=1 n=a#4 v=80
4810224 On ch=1 n=d5 v=0
4810225 Par ch=1 c=64 v=64
4810235 Par ch=1 c=64 v=0
4810240 Par ch=1 c=64 v=127
4810265 On ch=1 n=f4 v=0
4810265 On ch=1 n=a4 v=0
4810325 On ch=1 n=f3 v=74
4810385 On ch=1 n=f3 v=0
4810445 On ch=1 n=g4 v=70
4810445 On ch=1 n=d#4 v=74
4810447 Par ch=1 c=64 v=96
4810457 On ch=1 n=d#5 v=74
4810462 Par ch=1 c=64 v=0
4810467 On ch=1 n=a#4 v=0
4810482 Par ch=1 c=64 v=64
4810489 Par ch=1 c=64 v=127
4810499 On ch=1 n=d#4 v=0
4810499 On ch=1 n=g4 v=0
4810559 On ch=1 n=d#3 v=74
4810594 On ch=1 n=d#5 v=0
4810619 On ch=1 n=d#3 v=0
4810679 On ch=1 n=g4 v=70
4810679 On ch=1 n=a#4 v=63
4810699 On ch=1 n=d5 v=75
4810709 Par ch=1 c=64 v=64
4810716 Par ch=1 c=64 v=0
4810731 Par ch=1 c=64 v=96
4810739 On ch=1 n=a#4 v=0
4810739 On ch=1 n=g4 v=0
4810741 Par ch=1 c=64 v=127
4810799 On ch=1 n=g3 v=75
4810859 On ch=1 n=g3 v=0
4810919 On ch=1 n=c5 v=75
4810919 On ch=1 n=a4 v=62
4810929 On ch=1 n=d5 v=0
4810929 Par ch=1 c=64 v=64
4810939 Par ch=1 c=64 v=0
4810959 Par ch=1 c=64 v=64
4810969 Par ch=1 c=64 v=127
4810979 On ch=1 n=a4 v=0
4811039 On ch=1 n=a3 v=67
4811099 On ch=1 n=a3 v=0
4811159 On ch=1 n=g4 v=75
4811159 Par ch=1 c=64 v=96
4811169 On ch=1 n=c5 v=0
4811169 On ch=1 n=a4 v=75
4811176 Par ch=1 c=64 v=0
4811196 Par ch=1 c=64 v=96
4811204 Par ch=1 c=64 v=127
4811219 On ch=1 n=g4 v=0
4811279 On ch=1 n=g3 v=67
4811339 On ch=1 n=g3 v=0
4811399 On ch=1 n=f#4 v=74
4811409 On ch=1 n=a4 v=0
4811409 On ch=1 n=c5 v=70
4811416 Par ch=1 c=64 v=0
4811431 Par ch=1 c=64 v=64
4811439 Par ch=1 c=64 v=127
4811459 On ch=1 n=f#4 v=0
4811519 On ch=1 n=f#3 v=63
4811579 On ch=1 n=f#3 v=0
4811639 On ch=1 n=g4 v=62
4811639 On ch=1 n=d#4 v=68
4811649 On ch=1 n=a4 v=75
4811654 On ch=1 n=c5 v=0
4811661 Par ch=1 c=64 v=0
4811679 Par ch=1 c=64 v=64
4811689 Par ch=1 c=64 v=127
4811699 On ch=1 n=d#4 v=0
4811699 On ch=1 n=g4 v=0
4811759 On ch=1 n=d#3 v=68
4811819 On ch=1 n=d#3 v=0
4811879 On ch=1 n=d4 v=62
4811879 On ch=1 n=f#4 v=63
4811899 On ch=1 n=d5 v=75
4811901 Par ch=1 c=64 v=64
4811906 On ch=1 n=a4 v=0
4811911 Par ch=1 c=64 v=0
4811931 Par ch=1 c=64 v=64
4811939 On ch=1 n=f#4 v=0
4811939 On ch=1 n=d4 v=0
4811939 Par ch=1 c=64 v=127
4811999 On ch=1 n=d3 v=75
4812059 On ch=1 n=d3 v=0
4812119 On ch=1 n=a4 v=67
4812119 On ch=1 n=f#4 v=74
4812131 On ch=1 n=c5 v=75
4812141 Par ch=1 c=64 v=64
4812146 On ch=1 n=d5 v=0
4812151 Par ch=1 c=64 v=0
4812166 Par ch=1 c=64 v=64
4812174 Par ch=1 c=64 v=127
4812179 On ch=1 n=f#4 v=0
4812179 On ch=1 n=a4 v=0
4812239 On ch=1 n=f#3 v=68
4812299 On ch=1 n=f#3 v=0
4812359 On ch=1 n=g4 v=67
4812384 On ch=1 n=a#4 v=80
4812391 On ch=1 n=c5 v=0
4812396 Par ch=1 c=64 v=96
4812404 Par ch=1 c=64 v=0
4812419 On ch=1 n=g4 v=0
4812434 Par ch=1 c=64 v=64
4812441 Par ch=1 c=64 v=127
4812479 On ch=1 n=g3 v=70
4812539 On ch=1 n=g3 v=0
4812599 On ch=1 n=a4 v=62
4812599 On ch=1 n=f4 v=66
4812624 On ch=1 n=a#4 v=0
4812624 On ch=1 n=d5 v=86
4812631 Par ch=1 c=64 v=64
4812646 Par ch=1 c=64 v=96
4812654 Par ch=1 c=64 v=127
4812659 On ch=1 n=f4 v=0
4812659 On ch=1 n=a4 v=0
4812719 On ch=1 n=f3 v=74
4812769 On ch=1 n=d5 v=0
4812779 On ch=1 n=f3 v=0
4812839 On ch=1 n=g4 v=70
4812839 On ch=1 n=d#4 v=80
4812866 On ch=1 n=d5 v=86
4812874 Par ch=1 c=64 v=96
4812881 Par ch=1 c=64 v=64
4812891 Par ch=1 c=64 v=96
4812896 On ch=1 n=d#4 v=0
4812896 On ch=1 n=g4 v=0
4812898 Par ch=1 c=64 v=127
4812956 On ch=1 n=d#3 v=74
4813016 On ch=1 n=d#3 v=0
4813076 On ch=1 n=g4 v=56
4813076 On ch=1 n=d#4 v=63
4813088 On ch=1 n=c#5 v=72
4813098 On ch=1 n=d5 v=0
4813116 Par ch=1 c=64 v=96
4813126 Par ch=1 c=64 v=64
4813136 On ch=1 n=d#4 v=0
4813136 On ch=1 n=g4 v=0
4813136 Par ch=1 c=64 v=96
4813146 Par ch=1 c=64 v=127
4813266 Par ch=1 c=64 v=96
4813273 Par ch=1 c=64 v=64
4813278 On ch=1 n=c#5 v=0
4813283 Par ch=1 c=64 v=0
4813316 Par ch=1 c=64 v=64
4813316 Par ch=1 c=64 v=96
4813316 Par ch=1 c=64 v=127
4813316 On ch=1 n=d3 v=72
4813316 On ch=1 n=a3 v=67
4813316 On ch=1 n=d4 v=72
4813323 On ch=1 n=d3 v=0
4813326 On ch=1 n=d4 v=0
4813328 On ch=1 n=a3 v=0
4813538 On ch=1 n=d5 v=71
4813543 On ch=1 n=d4 v=66
4813555 On ch=1 n=d4 v=0
4813555 On ch=1 n=d5 v=0
4813761 Par ch=1 c=64 v=96
4813763 On ch=1 n=g4 v=56
4813768 Par ch=1 c=64 v=64
4813776 Par ch=1 c=64 v=96
4813781 Par ch=1 c=64 v=127
4813788 On ch=1 n=d5 v=56
4813793 On ch=1 n=a#5 v=62
4813798 On ch=1 n=g4 v=0
4813803 On ch=1 n=d5 v=0
4813810 On ch=1 n=a#5 v=0
4813993 On ch=1 n=a#4 v=52
4814003 Par ch=1 c=64 v=96
4814008 Par ch=1 c=64 v=0
4814023 Par ch=1 c=64 v=64
4814026 On ch=1 n=d6 v=64
4814028 On ch=1 n=g5 v=64
4814033 Par ch=1 c=64 v=127
4814035 On ch=1 n=a#4 v=0
4814043 On ch=1 n=g5 v=0
4814048 On ch=1 n=d6 v=0
4814236 On ch=1 n=a4 v=52
4814253 Par ch=1 c=64 v=96
4814258 Par ch=1 c=64 v=64
4814261 On ch=1 n=d5 v=54
4814266 Par ch=1 c=64 v=0
4814271 On ch=1 n=a4 v=0
4814276 Par ch=1 c=64 v=64
4814278 Par ch=1 c=64 v=127
4814281 On ch=1 n=c6 v=62
4814281 On ch=1 n=f#5 v=51
4814286 On ch=1 n=d5 v=0
4814293 On ch=1 n=f#5 v=0
4814396 On ch=1 n=c6 v=0
4814471 On ch=1 n=g4 v=47
4814488 Par ch=1 c=64 v=96
4814493 On ch=1 n=d5 v=57
4814496 Par ch=1 c=64 v=64
4814501 Par ch=1 c=64 v=0
4814506 On ch=1 n=g4 v=0
4814508 Par ch=1 c=64 v=64
4814511 On ch=1 n=a#5 v=64
4814516 Par ch=1 c=64 v=127
4814523 On ch=1 n=d5 v=0
4814643 On ch=1 n=a#5 v=0
4814726 On ch=1 n=f#4 v=58
4814736 Par ch=1 c=64 v=96
4814741 Par ch=1 c=64 v=0
4814756 Par ch=1 c=64 v=64
4814758 On ch=1 n=d5 v=52
4814766 On ch=1 n=f#4 v=0
4814766 Par ch=1 c=64 v=127
4814766 On ch=1 n=a5 v=60
4814775 On ch=1 n=d5 v=0
4814876 On ch=1 n=a5 v=0
4814956 On ch=1 n=d#4 v=53
4814973 Par ch=1 c=64 v=96
4814978 Par ch=1 c=64 v=64
4814988 Par ch=1 c=64 v=96
4814991 On ch=1 n=d#4 v=0
4814996 Par ch=1 c=64 v=127
4814996 On ch=1 n=g5 v=64
4814996 On ch=1 n=d5 v=56
4815003 On ch=1 n=d5 v=0
4815136 On ch=1 n=g5 v=0
4815208 On ch=1 n=d4 v=54
4815218 Par ch=1 c=64 v=96
4815223 Par ch=1 c=64 v=64
4815228 Par ch=1 c=64 v=0
4815236 On ch=1 n=a4 v=54
4815236 Par ch=1 c=64 v=64
4815243 On ch=1 n=f#5 v=66
4815245 On ch=1 n=d4 v=0
4815246 Par ch=1 c=64 v=127
4815256 On ch=1 n=a4 v=0
4815405 On ch=1 n=f#5 v=0
4815458 On ch=1 n=c4 v=44
4815473 Par ch=1 c=64 v=96
4815476 On ch=1 n=f#4 v=59
4815478 Par ch=1 c=64 v=0
4815483 On ch=1 n=d#5 v=64
4815491 On ch=1 n=a4 v=44
4815493 On ch=1 n=c4 v=0
4815496 Par ch=1 c=64 v=64
4815501 On ch=1 n=f#4 v=0
4815503 Par ch=1 c=64 v=127
4815506 On ch=1 n=a4 v=0
4815635 On ch=1 n=d#5 v=0
4815686 On ch=1 n=a#3 v=52
4815706 Par ch=1 c=64 v=64
4815713 Par ch=1 c=64 v=0
4815723 On ch=1 n=d5 v=60
4815723 On ch=1 n=g4 v=56
4815731 Par ch=1 c=64 v=64
4815733 On ch=1 n=a#3 v=0
4815736 Par ch=1 c=64 v=127
4815740 On ch=1 n=g4 v=0
4815845 On ch=1 n=d5 v=0
4815936 On ch=1 n=g3 v=54
4815938 Par ch=1 c=64 v=96
4815946 Par ch=1 c=64 v=0
4815963 On ch=1 n=d4 v=59
4815971 On ch=1 n=g3 v=0
4815971 Par ch=1 c=64 v=96
4815976 Par ch=1 c=64 v=127
4815976 On ch=1 n=a#4 v=62
4815980 On ch=1 n=d4 v=0
4816113 On ch=1 n=a#4 v=0
4816171 On ch=1 n=f#3 v=44
4816186 Par ch=1 c=64 v=64
4816188 Par ch=1 c=64 v=0
4816211 On ch=1 n=d4 v=57
4816213 On ch=1 n=a4 v=57
4816216 On ch=1 n=f#3 v=0
4816218 Par ch=1 c=64 v=127
4816228 On ch=1 n=d4 v=0
4816345 On ch=1 n=a4 v=0
4816403 On ch=1 n=d#3 v=50
4816426 Par ch=1 c=64 v=96
4816431 Par ch=1 c=64 v=0
4816451 On ch=1 n=d4 v=52
4816455 On ch=1 n=d#3 v=0
4816456 On ch=1 n=g4 v=52
4816458 Par ch=1 c=64 v=96
4816461 On ch=1 n=d4 v=0
4816466 Par ch=1 c=64 v=127
4816576 On ch=1 n=g4 v=0
4816666 On ch=1 n=d3 v=44
4816673 Par ch=1 c=64 v=96
4816676 Par ch=1 c=64 v=0
4816696 On ch=1 n=a3 v=48
4816701 On ch=1 n=f#4 v=53
4816706 Par ch=1 c=64 v=96
4816711 On ch=1 n=d3 v=0
4816713 On ch=1 n=a3 v=0
4816713 Par ch=1 c=64 v=127
4816776 On ch=1 n=f#4 v=0
4816898 On ch=1 n=c3 v=39
4816916 Par ch=1 c=64 v=64
4816923 Par ch=1 c=64 v=0
4816926 On ch=1 n=f#3 v=48
4816941 On ch=1 n=d#4 v=57
4816946 Par ch=1 c=64 v=64
4816950 On ch=1 n=c3 v=0
4816951 On ch=1 n=a3 v=31
4816953 Par ch=1 c=64 v=127
4816963 On ch=1 n=f#3 v=0
4816978 On ch=1 n=a3 v=0
4817051 On ch=1 n=d#4 v=0
4817146 On ch=1 n=a#2 v=40
4817166 Par ch=1 c=64 v=64
4817168 Par ch=1 c=64 v=0
4817178 On ch=1 n=g3 v=42
4817183 On ch=1 n=d4 v=49
4817200 Par ch=1 c=64 v=64
4817205 Par ch=1 c=64 v=127
4817213 On ch=1 n=g3 v=0
4817228 On ch=1 n=a#2 v=0
4817335 On ch=1 n=d4 v=0
4817398 On ch=1 n=a2 v=34
4817413 Par ch=1 c=64 v=96
4817418 Par ch=1 c=64 v=0
4817433 On ch=1 n=d3 v=34
4817440 On ch=1 n=f#3 v=30
4817440 On ch=1 n=c4 v=37
4817450 On ch=1 n=a2 v=0
4817450 Par ch=1 c=64 v=64
4817453 Par ch=1 c=64 v=127
4817462 On ch=1 n=f#3 v=0
4817465 On ch=1 n=d3 v=0
4817485 On ch=1 n=c4 v=0
4817613 On ch=1 n=g2 v=59
4817615 Par ch=1 c=64 v=96
4817620 Par ch=1 c=64 v=64
4817623 Par ch=1 c=64 v=64
4817625 Par ch=1 c=64 v=96
4817625 Par ch=1 c=64 v=0
4817633 Par ch=1 c=64 v=127
4817643 On ch=1 n=g2 v=0
4817643 On ch=1 n=d3 v=52
4817665 On ch=1 n=d3 v=0
4817665 On ch=1 n=a#3 v=59
4817670 On ch=1 n=a#3 v=0
4817680 On ch=1 n=d4 v=52
4817690 On ch=1 n=g4 v=56
4817700 On ch=1 n=d4 v=0
4817702 On ch=1 n=a#4 v=58
4817717 On ch=1 n=g4 v=0
4817717 On ch=1 n=d5 v=59
4817722 On ch=1 n=a#4 v=0
4817724 On ch=1 n=d5 v=0
4817820 Par ch=1 c=64 v=96
4817822 Par ch=1 c=64 v=64
4818317 On ch=1 n=g4 v=52
4818322 Par ch=1 c=64 v=64
4818330 Par ch=1 c=64 v=96
4818340 Par ch=1 c=64 v=127
4818349 On ch=1 n=g4 v=0
4818357 On ch=1 n=g5 v=59
4818369 On ch=1 n=g5 v=0
4818550 On ch=1 n=g4 v=59
4818562 Par ch=1 c=64 v=64
4818570 Par ch=1 c=64 v=0
4818580 On ch=1 n=f#5 v=63
4818585 On ch=1 n=g4 v=0
4818590 Par ch=1 c=64 v=64
4818600 Par ch=1 c=64 v=127
4818602 On ch=1 n=f#5 v=0
4818780 On ch=1 n=g4 v=56
4818787 Par ch=1 c=64 v=96
4818795 Par ch=1 c=64 v=0
4818820 Par ch=1 c=64 v=64
4818825 On ch=1 n=d#5 v=58
4818832 Par ch=1 c=64 v=127
4818837 On ch=1 n=g4 v=0
4818845 On ch=1 n=d#5 v=0
4819065 On ch=1 n=g4 v=50
4819070 On ch=1 n=d5 v=42
4819082 Par ch=1 c=64 v=96
4819090 Par ch=1 c=64 v=0
4819150 Par ch=1 c=64 v=64
4819160 Par ch=1 c=64 v=127
4819367 On ch=1 n=g4 v=0
4819430 On ch=1 n=d5 v=0
4819787 Par ch=1 c=64 v=96
4819792 Par ch=1 c=64 v=64
4819797 On ch=1 n=f5 v=52
4819805 Par ch=1 c=64 v=0
4819812 Par ch=1 c=64 v=64
4819820 Par ch=1 c=64 v=96
4819830 Par ch=1 c=64 v=127
4819842 On ch=1 n=f5 v=0
4819860 On ch=1 n=f5 v=10
4820045 Par ch=1 c=64 v=64
4820047 On ch=1 n=f5 v=0
4820047 On ch=1 n=d#5 v=53
4820055 Par ch=1 c=64 v=0
4820080 Par ch=1 c=64 v=64
4820087 Par ch=1 c=64 v=127
4820285 Par ch=1 c=64 v=96
4820289 On ch=1 n=d#5 v=0
4820290 On ch=1 n=d5 v=47
4820297 Par ch=1 c=64 v=64
4820302 Par ch=1 c=64 v=0
4820312 Par ch=1 c=64 v=64
4820319 Par ch=1 c=64 v=96
4820327 Par ch=1 c=64 v=127
4820522 On ch=1 n=d5 v=0
4820527 On ch=1 n=c5 v=50
4820547 Par ch=1 c=64 v=96
4820557 Par ch=1 c=64 v=0
4820587 Par ch=1 c=64 v=64
4820594 Par ch=1 c=64 v=127
4820874 On ch=1 n=c5 v=0
4821237 On ch=1 n=d#5 v=53
4821242 Par ch=1 c=64 v=64
4821247 On ch=1 n=c4 v=34
4821252 Par ch=1 c=64 v=0
4821267 Par ch=1 c=64 v=64
4821277 Par ch=1 c=64 v=96
4821284 Par ch=1 c=64 v=127
4821409 On ch=1 n=c4 v=0
4821487 On ch=1 n=d#5 v=0
4821492 On ch=1 n=c5 v=50
4821497 On ch=1 n=c4 v=34
4821499 Par ch=1 c=64 v=96
4821507 Par ch=1 c=64 v=64
4821524 Par ch=1 c=64 v=96
4821532 Par ch=1 c=64 v=127
4821722 On ch=1 n=c4 v=0
4821727 Par ch=1 c=64 v=96
4821729 On ch=1 n=c#4 v=34
4821729 On ch=1 n=a#4 v=46
4821737 Par ch=1 c=64 v=0
4821742 On ch=1 n=c5 v=0
4821754 Par ch=1 c=64 v=64
4821762 Par ch=1 c=64 v=96
4821769 Par ch=1 c=64 v=127
4821859 On ch=1 n=a#4 v=0
4821969 On ch=1 n=d5 v=50
4821974 On ch=1 n=c#4 v=0
4821974 On ch=1 n=a#4 v=39
4821974 On ch=1 n=d4 v=47
4821984 Par ch=1 c=64 v=0
4822024 Par ch=1 c=64 v=64
4822034 Par ch=1 c=64 v=127
4822311 On ch=1 n=d5 v=0
4822339 On ch=1 n=a#4 v=0
4822381 On ch=1 n=d4 v=0
4822414 Par ch=1 c=64 v=96
4822422 Par ch=1 c=64 v=0
4822427 On ch=1 n=d5 v=47
4822432 On ch=1 n=a4 v=42
4822447 Par ch=1 c=64 v=64
4822454 Par ch=1 c=64 v=127
4822477 On ch=1 n=a4 v=0
4822487 On ch=1 n=d5 v=0
4822677 On ch=1 n=d#5 v=42
4822682 Par ch=1 c=64 v=64
4822687 On ch=1 n=c5 v=33
4822692 Par ch=1 c=64 v=0
4822717 Par ch=1 c=64 v=64
4822727 Par ch=1 c=64 v=127
4822777 On ch=1 n=d#5 v=0
4822914 On ch=1 n=c5 v=0
4822917 On ch=1 n=d5 v=30
4822917 On ch=1 n=a#4 v=42
4822929 Par ch=1 c=64 v=96
4822937 Par ch=1 c=64 v=64
4822947 Par ch=1 c=64 v=0
4822959 Par ch=1 c=64 v=64
4822967 Par ch=1 c=64 v=127
4823022 On ch=1 n=d5 v=0
4823144 Par ch=1 c=64 v=96
4823152 Par ch=1 c=64 v=64
4823157 On ch=1 n=c5 v=37
4823164 Par ch=1 c=64 v=0
4823169 Par ch=1 c=64 v=64
4823177 On ch=1 n=a#4 v=0
4823177 Par ch=1 c=64 v=96
4823187 Par ch=1 c=64 v=127
4823237 On ch=1 n=c5 v=0
4823392 On ch=1 n=d5 v=47
4823397 On ch=1 n=b4 v=45
4823397 On ch=1 n=g#4 v=50
4823407 Par ch=1 c=64 v=64
4823414 Par ch=1 c=64 v=0
4823442 Par ch=1 c=64 v=64
4823449 Par ch=1 c=64 v=127
4823832 On ch=1 n=b4 v=0
4823847 On ch=1 n=d5 v=0
4823852 On ch=1 n=g#4 v=0
4823857 Par ch=1 c=64 v=96
4823859 On ch=1 n=g4 v=42
4823867 Par ch=1 c=64 v=0
4823887 Par ch=1 c=64 v=64
4823897 Par ch=1 c=64 v=127
4823919 On ch=1 n=g4 v=0
4824104 On ch=1 n=g5 v=56
4824122 Par ch=1 c=64 v=96
4824129 Par ch=1 c=64 v=64
4824137 Par ch=1 c=64 v=0
4824147 Par ch=1 c=64 v=64
4824157 Par ch=1 c=64 v=127
4824347 On ch=1 n=f5 v=56
4824359 Par ch=1 c=64 v=64
4824361 On ch=1 n=g5 v=0
4824367 Par ch=1 c=64 v=0
4824382 Par ch=1 c=64 v=64
4824389 Par ch=1 c=64 v=127
4824587 Par ch=1 c=64 v=96
4824592 On ch=1 n=c5 v=50
4824599 Par ch=1 c=64 v=64
4824604 On ch=1 n=f5 v=0
4824607 Par ch=1 c=64 v=96
4824614 Par ch=1 c=64 v=127
4824624 On ch=1 n=c5 v=0
4824831 On ch=1 n=c5 v=52
4824831 On ch=1 n=f#4 v=53
4824841 Par ch=1 c=64 v=64
4824849 Par ch=1 c=64 v=0
4824874 Par ch=1 c=64 v=96
4824884 Par ch=1 c=64 v=127
4825293 On ch=1 n=f#4 v=0
4825301 On ch=1 n=f4 v=53
4825319 Par ch=1 c=64 v=96
4825326 Par ch=1 c=64 v=0
4825354 Par ch=1 c=64 v=96
4825363 On ch=1 n=c5 v=0
4825364 Par ch=1 c=64 v=127
4825453 On ch=1 n=f4 v=0
4825544 On ch=1 n=c5 v=44
4825551 On ch=1 n=f#4 v=46
4825561 Par ch=1 c=64 v=64
4825566 Par ch=1 c=64 v=0
4825581 Par ch=1 c=64 v=64
4825586 Par ch=1 c=64 v=96
4825596 Par ch=1 c=64 v=127
4825669 On ch=1 n=c5 v=0
4825711 On ch=1 n=f#4 v=0
4825799 On ch=1 n=g4 v=42
4825804 On ch=1 n=a#4 v=34
4825806 Par ch=1 c=64 v=96
4825814 Par ch=1 c=64 v=0
4825834 Par ch=1 c=64 v=64
4825844 Par ch=1 c=64 v=127
4825989 On ch=1 n=g4 v=0
4826014 On ch=1 n=a#4 v=0
4826039 On ch=1 n=f4 v=45
4826044 Par ch=1 c=64 v=96
4826044 On ch=1 n=g#4 v=52
4826051 Par ch=1 c=64 v=64
4826061 Par ch=1 c=64 v=0
4826066 Par ch=1 c=64 v=64
4826076 Par ch=1 c=64 v=127
4826139 On ch=1 n=g#4 v=0
4826149 On ch=1 n=f4 v=0
4826264 On ch=1 n=g4 v=50
4826269 On ch=1 n=e4 v=52
4826284 Par ch=1 c=64 v=64
4826291 Par ch=1 c=64 v=0
4826316 Par ch=1 c=64 v=96
4826324 Par ch=1 c=64 v=127
4826404 On ch=1 n=e4 v=0
4826414 On ch=1 n=g4 v=0
4826511 On ch=1 n=g4 v=47
4826514 On ch=1 n=d#4 v=53
4826521 Par ch=1 c=64 v=64
4826529 Par ch=1 c=64 v=0
4826541 Par ch=1 c=64 v=64
4826549 Par ch=1 c=64 v=127
4826614 On ch=1 n=d#4 v=0
4826628 On ch=1 n=g4 v=0
4826744 On ch=1 n=a#4 v=39
4826754 On ch=1 n=d4 v=42
4826756 Par ch=1 c=64 v=64
4826764 Par ch=1 c=64 v=0
4826786 Par ch=1 c=64 v=64
4826796 Par ch=1 c=64 v=127
4826981 On ch=1 n=g4 v=39
4826989 On ch=1 n=d4 v=0
4827001 On ch=1 n=a#4 v=0
4827226 On ch=1 n=g4 v=0
4827231 Par ch=1 c=64 v=96
4827234 On ch=1 n=a4 v=39
4827234 On ch=1 n=d4 v=34
4827244 Par ch=1 c=64 v=0
4827261 Par ch=1 c=64 v=64
4827266 Par ch=1 c=64 v=127
4827474 On ch=1 n=f#4 v=46
4827484 On ch=1 n=d4 v=0
4827484 On ch=1 n=a4 v=0
4827534 On ch=1 n=f#4 v=0
4827681 Par ch=1 c=64 v=96
4827689 Par ch=1 c=64 v=64
4827694 Par ch=1 c=64 v=0
4827694 Meta TrkEnd
