MFile 0 1 480
MTrk
0 Tempo 600000
0 TimeSig 2/4 24 8
0 PrCh ch=1 p=0
0 Par ch=1 c=7 v=127
0 Par ch=1 c=10 v=64
0 On ch=1 n=a3 v=60
20 On ch=1 n=e4 v=60
40 On ch=1 n=a4 v=60
60 On ch=1 n=c5 v=60
90 On ch=1 n=e5 v=60
110 On ch=1 n=a5 v=60
130 On ch=1 n=c6 v=60
150 On ch=1 n=a6 v=60
235 On ch=1 n=a6 v=0
235 On ch=1 n=c6 v=0
235 On ch=1 n=a5 v=0
235 On ch=1 n=e5 v=0
235 On ch=1 n=c5 v=0
235 On ch=1 n=a4 v=0
235 On ch=1 n=e4 v=0
235 On ch=1 n=a3 v=0
240 Tempo 375000
420 On ch=1 n=a5 v=60
475 On ch=1 n=a5 v=0
480 On ch=1 n=a5 v=60
600 On ch=1 n=a5 v=0
600 On ch=1 n=c6 v=60
720 On ch=1 n=c6 v=0
720 On ch=1 n=b5 v=60
840 On ch=1 n=b5 v=0
840 On ch=1 n=a5 v=60
955 On ch=1 n=a5 v=0
960 Tempo 600000
960 On ch=1 n=e4 v=60
980 On ch=1 n=b4 v=60
1000 On ch=1 n=e5 v=60
1020 On ch=1 n=g#5 v=60
1050 On ch=1 n=b5 v=60
1070 On ch=1 n=e6 v=60
1090 On ch=1 n=g#6 v=60
1110 On ch=1 n=e7 v=60
1195 On ch=1 n=e7 v=0
1195 On ch=1 n=g#6 v=0
1195 On ch=1 n=e6 v=0
1195 On ch=1 n=b5 v=0
1195 On ch=1 n=g#5 v=0
1195 On ch=1 n=e5 v=0
1195 On ch=1 n=b4 v=0
1195 On ch=1 n=e4 v=0
1200 Tempo 375000
1380 On ch=1 n=e5 v=60
1435 On ch=1 n=e5 v=0
1440 On ch=1 n=e5 v=60
1560 On ch=1 n=e5 v=0
1560 On ch=1 n=g#5 v=60
1680 On ch=1 n=g#5 v=0
1680 On ch=1 n=f#5 v=60
1800 On ch=1 n=f#5 v=0
1800 On ch=1 n=e5 v=60
1915 On ch=1 n=e5 v=0
1920 Tempo 600000
1920 On ch=1 n=a3 v=60
1940 On ch=1 n=e4 v=60
1960 On ch=1 n=a4 v=60
1980 On ch=1 n=c5 v=60
2010 On ch=1 n=e5 v=60
2030 On ch=1 n=a5 v=60
2050 On ch=1 n=c6 v=60
2070 On ch=1 n=a6 v=60
2155 On ch=1 n=a6 v=0
2155 On ch=1 n=c6 v=0
2155 On ch=1 n=a5 v=0
2155 On ch=1 n=e5 v=0
2155 On ch=1 n=c5 v=0
2155 On ch=1 n=a4 v=0
2155 On ch=1 n=e4 v=0
2155 On ch=1 n=a3 v=0
2160 Tempo 375000
2340 On ch=1 n=a5 v=60
2395 On ch=1 n=a5 v=0
2400 On ch=1 n=a5 v=60
2520 On ch=1 n=a5 v=0
2520 On ch=1 n=c6 v=60
2640 On ch=1 n=c6 v=0
2640 On ch=1 n=b5 v=60
2760 On ch=1 n=b5 v=0
2760 On ch=1 n=a5 v=60
2875 On ch=1 n=a5 v=0
2880 Tempo 600000
2880 On ch=1 n=e4 v=60
2900 On ch=1 n=b4 v=60
2920 On ch=1 n=e5 v=60
2940 On ch=1 n=b5 v=60
2940 On ch=1 n=g#6 v=60
2940 On ch=1 n=e7 v=60
2940 On ch=1 n=e6 v=75
2940 On ch=1 n=g#5 v=60
3115 On ch=1 n=g#5 v=0
3115 On ch=1 n=e7 v=0
3115 On ch=1 n=g#6 v=0
3115 On ch=1 n=b5 v=0
3115 On ch=1 n=e5 v=0
3115 On ch=1 n=b4 v=0
3115 On ch=1 n=e4 v=0
3120 Tempo 375000
3360 On ch=1 n=e6 v=0
3360 On ch=1 n=e5 v=75
3595 On ch=1 n=e5 v=0
3840 Tempo 600000
3840 On ch=1 n=a3 v=60
3860 On ch=1 n=e4 v=60
3880 On ch=1 n=a4 v=60
3900 On ch=1 n=c5 v=60
3930 On ch=1 n=e5 v=60
3950 On ch=1 n=a5 v=60
3970 On ch=1 n=c6 v=60
3990 On ch=1 n=a6 v=60
4075 On ch=1 n=a6 v=0
4075 On ch=1 n=c6 v=0
4075 On ch=1 n=a5 v=0
4075 On ch=1 n=e5 v=0
4075 On ch=1 n=c5 v=0
4075 On ch=1 n=a4 v=0
4075 On ch=1 n=e4 v=0
4075 On ch=1 n=a3 v=0
4080 Tempo 375000
4260 On ch=1 n=a5 v=60
4315 On ch=1 n=a5 v=0
4320 On ch=1 n=a5 v=60
4440 On ch=1 n=a5 v=0
4440 On ch=1 n=c6 v=60
4560 On ch=1 n=c6 v=0
4560 On ch=1 n=b5 v=60
4680 On ch=1 n=b5 v=0
4680 On ch=1 n=a5 v=60
4795 On ch=1 n=a5 v=0
4800 Tempo 600000
4800 On ch=1 n=e4 v=60
4820 On ch=1 n=b4 v=60
4840 On ch=1 n=e5 v=60
4860 On ch=1 n=g#5 v=60
4890 On ch=1 n=b5 v=60
4910 On ch=1 n=e6 v=60
4930 On ch=1 n=g#6 v=60
4950 On ch=1 n=e7 v=60
5035 On ch=1 n=e7 v=0
5035 On ch=1 n=g#6 v=0
5035 On ch=1 n=e6 v=0
5035 On ch=1 n=b5 v=0
5035 On ch=1 n=g#5 v=0
5035 On ch=1 n=e5 v=0
5035 On ch=1 n=b4 v=0
5035 On ch=1 n=e4 v=0
5040 Tempo 375000
5220 On ch=1 n=e5 v=60
5275 On ch=1 n=e5 v=0
5280 On ch=1 n=e5 v=60
5400 On ch=1 n=e5 v=0
5400 On ch=1 n=g#5 v=60
5520 On ch=1 n=g#5 v=0
5520 On ch=1 n=f#5 v=60
5640 On ch=1 n=f#5 v=0
5640 On ch=1 n=e5 v=60
5755 On ch=1 n=e5 v=0
5760 Tempo 600000
5760 On ch=1 n=a3 v=60
5780 On ch=1 n=e4 v=60
5800 On ch=1 n=a4 v=60
5820 On ch=1 n=c5 v=60
5850 On ch=1 n=e5 v=60
5870 On ch=1 n=a5 v=60
5890 On ch=1 n=c6 v=60
5910 On ch=1 n=a6 v=60
5995 On ch=1 n=a6 v=0
5995 On ch=1 n=c6 v=0
5995 On ch=1 n=a5 v=0
5995 On ch=1 n=e5 v=0
5995 On ch=1 n=c5 v=0
5995 On ch=1 n=a4 v=0
5995 On ch=1 n=e4 v=0
5995 On ch=1 n=a3 v=0
6000 Tempo 375000
6180 On ch=1 n=a5 v=60
6235 On ch=1 n=a5 v=0
6240 On ch=1 n=a5 v=60
6360 On ch=1 n=a5 v=0
6360 On ch=1 n=c6 v=60
6480 On ch=1 n=c6 v=0
6480 On ch=1 n=b5 v=60
6600 On ch=1 n=b5 v=0
6600 On ch=1 n=a5 v=60
6715 On ch=1 n=a5 v=0
6720 Tempo 600000
6720 On ch=1 n=e4 v=60
6740 On ch=1 n=b4 v=60
6760 On ch=1 n=e5 v=60
6780 On ch=1 n=b5 v=60
6780 On ch=1 n=g#6 v=60
6780 On ch=1 n=e7 v=60
6780 On ch=1 n=e6 v=75
6780 On ch=1 n=g#5 v=60
6955 On ch=1 n=g#5 v=0
6955 On ch=1 n=e7 v=0
6955 On ch=1 n=g#6 v=0
6955 On ch=1 n=b5 v=0
6955 On ch=1 n=e5 v=0
6955 On ch=1 n=b4 v=0
6955 On ch=1 n=e4 v=0
6960 Tempo 375000
7200 On ch=1 n=e6 v=0
7200 On ch=1 n=e5 v=75
7435 On ch=1 n=e5 v=0
7680 Tempo 600000
7680 On ch=1 n=a3 v=60
7700 On ch=1 n=e4 v=60
7720 On ch=1 n=a4 v=60
7740 On ch=1 n=c#5 v=60
7770 On ch=1 n=e6 v=60
7790 On ch=1 n=a6 v=60
7810 On ch=1 n=c#7 v=60
7830 On ch=1 n=a7 v=60
7915 On ch=1 n=a7 v=0
7915 On ch=1 n=c#7 v=0
7915 On ch=1 n=a6 v=0
7915 On ch=1 n=e6 v=0
7915 On ch=1 n=c#5 v=0
7915 On ch=1 n=a4 v=0
7915 On ch=1 n=e4 v=0
7915 On ch=1 n=a3 v=0
7920 Tempo 375000
8100 On ch=1 n=a6 v=60
8155 On ch=1 n=a6 v=0
8160 On ch=1 n=a6 v=60
8280 On ch=1 n=a6 v=0
8280 On ch=1 n=a#6 v=60
8400 On ch=1 n=a#6 v=0
8400 On ch=1 n=a6 v=60
8520 On ch=1 n=a6 v=0
8520 On ch=1 n=g6 v=60
8635 On ch=1 n=g6 v=0
8640 Tempo 600000
8640 On ch=1 n=d4 v=60
8660 On ch=1 n=a4 v=60
8680 On ch=1 n=d5 v=60
8700 On ch=1 n=f5 v=60
8730 On ch=1 n=a5 v=60
8750 On ch=1 n=f6 v=60
8770 On ch=1 n=a6 v=60
8790 On ch=1 n=f7 v=60
8875 On ch=1 n=f7 v=0
8875 On ch=1 n=a6 v=0
8875 On ch=1 n=f6 v=0
8875 On ch=1 n=a5 v=0
8875 On ch=1 n=f5 v=0
8875 On ch=1 n=d5 v=0
8875 On ch=1 n=a4 v=0
8875 On ch=1 n=d4 v=0
8880 Tempo 375000
9060 On ch=1 n=d6 v=60
9115 On ch=1 n=d6 v=0
9120 On ch=1 n=d6 v=60
9240 On ch=1 n=d6 v=0
9240 On ch=1 n=f6 v=60
9360 On ch=1 n=f6 v=0
9360 On ch=1 n=e6 v=60
9480 On ch=1 n=e6 v=0
9480 On ch=1 n=d6 v=60
9595 On ch=1 n=d6 v=0
9600 Tempo 600000
9600 On ch=1 n=g3 v=60
9620 On ch=1 n=d4 v=60
9640 On ch=1 n=g4 v=60
9660 On ch=1 n=b4 v=60
9690 On ch=1 n=d6 v=60
9710 On ch=1 n=g6 v=60
9730 On ch=1 n=b6 v=60
9750 On ch=1 n=g7 v=60
9835 On ch=1 n=g7 v=0
9835 On ch=1 n=b6 v=0
9835 On ch=1 n=g6 v=0
9835 On ch=1 n=d6 v=0
9835 On ch=1 n=b4 v=0
9835 On ch=1 n=g4 v=0
9835 On ch=1 n=d4 v=0
9835 On ch=1 n=g3 v=0
9840 Tempo 375000
10020 On ch=1 n=g6 v=60
10075 On ch=1 n=g6 v=0
10080 On ch=1 n=g6 v=60
10200 On ch=1 n=g6 v=0
10200 On ch=1 n=a6 v=60
10320 On ch=1 n=a6 v=0
10320 On ch=1 n=g6 v=60
10440 On ch=1 n=g6 v=0
10440 On ch=1 n=f6 v=60
10555 On ch=1 n=f6 v=0
10560 Tempo 600000
10560 On ch=1 n=c4 v=60
10580 On ch=1 n=g4 v=60
10600 On ch=1 n=c5 v=60
10620 On ch=1 n=e5 v=60
10650 On ch=1 n=g5 v=60
10670 On ch=1 n=e6 v=60
10690 On ch=1 n=g6 v=60
10710 On ch=1 n=e7 v=60
10795 On ch=1 n=e7 v=0
10795 On ch=1 n=g6 v=0
10795 On ch=1 n=e6 v=0
10795 On ch=1 n=g5 v=0
10795 On ch=1 n=e5 v=0
10795 On ch=1 n=c5 v=0
10795 On ch=1 n=g4 v=0
10795 On ch=1 n=c4 v=0
10800 Tempo 375000
10980 On ch=1 n=c6 v=60
11035 On ch=1 n=c6 v=0
11040 On ch=1 n=c6 v=60
11160 On ch=1 n=c6 v=0
11160 On ch=1 n=e6 v=60
11280 On ch=1 n=e6 v=0
11280 On ch=1 n=d6 v=60
11400 On ch=1 n=d6 v=0
11400 On ch=1 n=c6 v=60
11515 On ch=1 n=c6 v=0
11520 Tempo 600000
11520 On ch=1 n=d4 v=60
11540 On ch=1 n=f4 v=60
11560 On ch=1 n=b4 v=60
11580 On ch=1 n=f5 v=60
11610 On ch=1 n=b5 v=60
11630 On ch=1 n=f6 v=60
11650 On ch=1 n=b6 v=60
11670 On ch=1 n=f7 v=60
11755 On ch=1 n=f7 v=0
11755 On ch=1 n=b6 v=0
11755 On ch=1 n=f6 v=0
11755 On ch=1 n=b5 v=0
11755 On ch=1 n=f5 v=0
11755 On ch=1 n=b4 v=0
11755 On ch=1 n=f4 v=0
11755 On ch=1 n=d4 v=0
11760 Tempo 375000
11940 On ch=1 n=b5 v=60
11995 On ch=1 n=b5 v=0
12000 On ch=1 n=b5 v=60
12120 On ch=1 n=b5 v=0
12120 On ch=1 n=d6 v=60
12240 On ch=1 n=d6 v=0
12240 On ch=1 n=c6 v=60
12360 On ch=1 n=c6 v=0
12360 On ch=1 n=b5 v=60
12475 On ch=1 n=b5 v=0
12480 Tempo 600000
12480 On ch=1 n=e4 v=60
12500 On ch=1 n=a4 v=60
12520 On ch=1 n=c5 v=60
12540 On ch=1 n=e5 v=60
12570 On ch=1 n=a5 v=60
12590 On ch=1 n=e6 v=60
12610 On ch=1 n=a6 v=60
12630 On ch=1 n=e7 v=60
12715 On ch=1 n=e7 v=0
12715 On ch=1 n=a6 v=0
12715 On ch=1 n=e6 v=0
12715 On ch=1 n=a5 v=0
12715 On ch=1 n=e5 v=0
12715 On ch=1 n=c5 v=0
12715 On ch=1 n=a4 v=0
12715 On ch=1 n=e4 v=0
12720 Tempo 375000
12900 On ch=1 n=a5 v=60
12955 On ch=1 n=a5 v=0
12960 On ch=1 n=a5 v=60
13080 On ch=1 n=a5 v=0
13080 On ch=1 n=c6 v=60
13200 On ch=1 n=c6 v=0
13200 On ch=1 n=b5 v=60
13320 On ch=1 n=b5 v=0
13320 On ch=1 n=a5 v=60
13435 On ch=1 n=a5 v=0
13440 Tempo 500000
13440 On ch=1 n=f5 v=75
13440 On ch=1 n=f4 v=60
13800 On ch=1 n=d#6 v=60
13800 On ch=1 n=a4 v=60
13800 On ch=1 n=d#5 v=60
13915 On ch=1 n=d#5 v=0
13915 On ch=1 n=a4 v=0
13915 On ch=1 n=d#6 v=0
13920 On ch=1 n=f4 v=0
13920 On ch=1 n=f5 v=0
13920 On ch=1 n=e5 v=60
13920 On ch=1 n=e4 v=60
14040 On ch=1 n=e6 v=60
14155 On ch=1 n=e6 v=0
14160 On ch=1 n=d6 v=60
14275 On ch=1 n=d6 v=0
14280 On ch=1 n=b5 v=60
14280 On ch=1 n=g#4 v=60
14280 On ch=1 n=d5 v=60
14395 On ch=1 n=d5 v=0
14395 On ch=1 n=g#4 v=0
14395 On ch=1 n=b5 v=0
14400 On ch=1 n=e4 v=0
14400 On ch=1 n=e5 v=0
14400 Tempo 428571
14400 On ch=1 n=e5 v=75
14400 On ch=1 n=a5 v=75
14400 On ch=1 n=a4 v=75
14400 On ch=1 n=c5 v=75
14880 On ch=1 n=c5 v=0
14880 On ch=1 n=a4 v=0
14880 On ch=1 n=a5 v=0
14880 On ch=1 n=e5 v=0
14880 On ch=1 n=c6 v=60
14880 On ch=1 n=a6 v=60
14880 On ch=1 n=e5 v=60
14880 On ch=1 n=a5 v=60
15115 On ch=1 n=a5 v=0
15115 On ch=1 n=e5 v=0
15115 On ch=1 n=a6 v=0
15115 On ch=1 n=c6 v=0
15360 Tempo 600000
15360 On ch=1 n=a3 v=60
15390 On ch=1 n=e4 v=60
15420 On ch=1 n=c#5 v=60
15450 On ch=1 n=e6 v=60
15470 On ch=1 n=a6 v=60
15490 On ch=1 n=c#7 v=60
15510 On ch=1 n=a7 v=60
15595 On ch=1 n=a7 v=0
15595 On ch=1 n=c#7 v=0
15595 On ch=1 n=a6 v=0
15595 On ch=1 n=e6 v=0
15595 On ch=1 n=c#5 v=0
15595 On ch=1 n=e4 v=0
15595 On ch=1 n=a3 v=0
15600 Tempo 428571
15780 On ch=1 n=a6 v=60
15835 On ch=1 n=a6 v=0
15840 On ch=1 n=a6 v=60
15840 On ch=1 n=c#5 v=60
15840 On ch=1 n=e5 v=60
15840 On ch=1 n=a5 v=60
15960 On ch=1 n=a6 v=0
15960 On ch=1 n=a#6 v=60
16075 On ch=1 n=a5 v=0
16075 On ch=1 n=e5 v=0
16075 On ch=1 n=c#5 v=0
16080 On ch=1 n=a#6 v=0
16080 On ch=1 n=a6 v=60
16200 On ch=1 n=a6 v=0
16200 On ch=1 n=g6 v=60
16315 On ch=1 n=g6 v=0
16320 Tempo 600000
16320 On ch=1 n=d4 v=60
16340 On ch=1 n=a4 v=60
16360 On ch=1 n=d5 v=60
16380 On ch=1 n=f5 v=60
16410 On ch=1 n=a5 v=60
16430 On ch=1 n=f6 v=60
16450 On ch=1 n=a6 v=60
16470 On ch=1 n=f7 v=60
16555 On ch=1 n=f7 v=0
16555 On ch=1 n=a6 v=0
16555 On ch=1 n=f6 v=0
16555 On ch=1 n=a5 v=0
16555 On ch=1 n=f5 v=0
16555 On ch=1 n=d5 v=0
16555 On ch=1 n=a4 v=0
16555 On ch=1 n=d4 v=0
16560 Tempo 428571
16740 On ch=1 n=d6 v=60
16795 On ch=1 n=d6 v=0
16800 On ch=1 n=d6 v=60
16800 On ch=1 n=d5 v=60
16800 On ch=1 n=f5 v=60
16800 On ch=1 n=a5 v=60
16920 On ch=1 n=d6 v=0
16920 On ch=1 n=f6 v=60
17035 On ch=1 n=a5 v=0
17035 On ch=1 n=f5 v=0
17035 On ch=1 n=d5 v=0
17040 On ch=1 n=f6 v=0
17040 On ch=1 n=e6 v=60
17160 On ch=1 n=e6 v=0
17160 On ch=1 n=d6 v=60
17275 On ch=1 n=d6 v=0
17280 Tempo 600000
17280 On ch=1 n=g3 v=60
17300 On ch=1 n=d4 v=60
17320 On ch=1 n=g4 v=60
17340 On ch=1 n=b4 v=60
17370 On ch=1 n=d6 v=60
17390 On ch=1 n=g6 v=60
17410 On ch=1 n=b6 v=60
17430 On ch=1 n=g7 v=60
17515 On ch=1 n=g7 v=0
17515 On ch=1 n=b6 v=0
17515 On ch=1 n=g6 v=0
17515 On ch=1 n=d6 v=0
17515 On ch=1 n=b4 v=0
17515 On ch=1 n=g4 v=0
17515 On ch=1 n=d4 v=0
17515 On ch=1 n=g3 v=0
17520 Tempo 428571
17700 On ch=1 n=g6 v=60
17755 On ch=1 n=g6 v=0
17760 On ch=1 n=g6 v=60
17760 On ch=1 n=b4 v=60
17760 On ch=1 n=d5 v=60
17760 On ch=1 n=g5 v=60
17880 On ch=1 n=g6 v=0
17880 On ch=1 n=a6 v=60
17995 On ch=1 n=g5 v=0
17995 On ch=1 n=d5 v=0
17995 On ch=1 n=b4 v=0
18000 On ch=1 n=a6 v=0
18000 On ch=1 n=g6 v=60
18120 On ch=1 n=g6 v=0
18120 On ch=1 n=f6 v=60
18235 On ch=1 n=f6 v=0
18240 Tempo 600000
18240 On ch=1 n=c4 v=60
18260 On ch=1 n=g4 v=60
18280 On ch=1 n=c5 v=60
18300 On ch=1 n=e5 v=60
18330 On ch=1 n=g5 v=60
18350 On ch=1 n=e6 v=60
18370 On ch=1 n=g6 v=60
18390 On ch=1 n=e7 v=60
18475 On ch=1 n=e7 v=0
18475 On ch=1 n=g6 v=0
18475 On ch=1 n=e6 v=0
18475 On ch=1 n=g5 v=0
18475 On ch=1 n=e5 v=0
18475 On ch=1 n=c5 v=0
18475 On ch=1 n=g4 v=0
18475 On ch=1 n=c4 v=0
18480 Tempo 428571
18660 On ch=1 n=c6 v=60
18715 On ch=1 n=c6 v=0
18720 On ch=1 n=c6 v=60
18720 On ch=1 n=e5 v=60
18720 On ch=1 n=g5 v=60
18840 On ch=1 n=c6 v=0
18840 On ch=1 n=e6 v=60
18955 On ch=1 n=g5 v=0
18955 On ch=1 n=e5 v=0
18960 On ch=1 n=e6 v=0
18960 On ch=1 n=d6 v=60
19080 On ch=1 n=d6 v=0
19080 On ch=1 n=c6 v=60
19195 On ch=1 n=c6 v=0
19200 Tempo 600000
19200 On ch=1 n=d4 v=60
19230 On ch=1 n=a#4 v=60
19260 On ch=1 n=f5 v=60
19290 On ch=1 n=a#5 v=60
19320 On ch=1 n=f6 v=60
19350 On ch=1 n=f7 v=60
19435 On ch=1 n=f7 v=0
19435 On ch=1 n=f6 v=0
19435 On ch=1 n=a#5 v=0
19435 On ch=1 n=f5 v=0
19435 On ch=1 n=a#4 v=0
19435 On ch=1 n=d4 v=0
19440 Tempo 428571
19620 On ch=1 n=a#5 v=60
19675 On ch=1 n=a#5 v=0
19680 On ch=1 n=a#5 v=60
19680 On ch=1 n=d5 v=60
19680 On ch=1 n=f5 v=60
19800 On ch=1 n=a#5 v=0
19800 On ch=1 n=d6 v=60
19915 On ch=1 n=f5 v=0
19915 On ch=1 n=d5 v=0
19920 On ch=1 n=d6 v=0
19920 On ch=1 n=c6 v=60
20040 On ch=1 n=c6 v=0
20040 On ch=1 n=a#5 v=60
20155 On ch=1 n=a#5 v=0
20160 Tempo 600000
20160 On ch=1 n=e4 v=60
20180 On ch=1 n=a4 v=60
20200 On ch=1 n=c5 v=60
20220 On ch=1 n=e5 v=60
20250 On ch=1 n=a5 v=60
20280 On ch=1 n=e6 v=60
20310 On ch=1 n=e7 v=60
20395 On ch=1 n=e7 v=0
20395 On ch=1 n=e6 v=0
20395 On ch=1 n=a5 v=0
20395 On ch=1 n=e5 v=0
20395 On ch=1 n=c5 v=0
20395 On ch=1 n=a4 v=0
20395 On ch=1 n=e4 v=0
20400 Tempo 428571
20580 On ch=1 n=a5 v=60
20635 On ch=1 n=a5 v=0
20640 On ch=1 n=a5 v=60
20640 On ch=1 n=c5 v=60
20640 On ch=1 n=e5 v=60
20760 On ch=1 n=a5 v=0
20760 On ch=1 n=c6 v=60
20875 On ch=1 n=e5 v=0
20875 On ch=1 n=c5 v=0
20880 On ch=1 n=c6 v=0
20880 On ch=1 n=b5 v=60
21000 On ch=1 n=b5 v=0
21000 On ch=1 n=a5 v=60
21115 On ch=1 n=a5 v=0
21120 Tempo 500000
21120 On ch=1 n=f5 v=75
21120 On ch=1 n=f4 v=60
21480 On ch=1 n=f5 v=0
21480 On ch=1 n=d#6 v=60
21480 On ch=1 n=a4 v=60
21480 On ch=1 n=d#5 v=60
21595 On ch=1 n=d#5 v=0
21595 On ch=1 n=a4 v=0
21595 On ch=1 n=d#6 v=0
21600 On ch=1 n=f4 v=0
21600 On ch=1 n=e5 v=60
21600 On ch=1 n=e4 v=60
21720 On ch=1 n=e5 v=0
21720 On ch=1 n=e6 v=60
21840 On ch=1 n=e6 v=0
21840 On ch=1 n=d6 v=60
21960 On ch=1 n=d6 v=0
21960 On ch=1 n=b5 v=60
21960 On ch=1 n=g#4 v=60
21960 On ch=1 n=d5 v=60
22075 On ch=1 n=d5 v=0
22075 On ch=1 n=g#4 v=0
22075 On ch=1 n=b5 v=0
22080 On ch=1 n=e4 v=0
22080 Tempo 428571
22080 On ch=1 n=e5 v=60
22080 On ch=1 n=a5 v=60
22080 On ch=1 n=a4 v=60
22080 On ch=1 n=c5 v=60
22560 On ch=1 n=c5 v=0
22560 On ch=1 n=a4 v=0
22560 On ch=1 n=a5 v=0
22560 On ch=1 n=e5 v=0
22560 On ch=1 n=c6 v=60
22560 On ch=1 n=a6 v=60
22560 On ch=1 n=e5 v=60
22560 On ch=1 n=a5 v=60
22795 On ch=1 n=a5 v=0
22795 On ch=1 n=e5 v=0
22795 On ch=1 n=a6 v=0
22795 On ch=1 n=c6 v=0
23040 Tempo 461538
23880 On ch=1 n=c6 v=60
23935 On ch=1 n=c6 v=0
23940 On ch=1 n=c7 v=60
23995 On ch=1 n=c7 v=0
24000 On ch=1 n=e7 v=84
24000 On ch=1 n=a4 v=60
24080 On ch=1 n=a4 v=0
24105 On ch=1 n=e7 v=0
24160 On ch=1 n=c7 v=60
24265 On ch=1 n=c7 v=0
24320 On ch=1 n=a6 v=60
24360 On ch=1 n=a4 v=60
24425 On ch=1 n=a6 v=0
24475 On ch=1 n=a4 v=0
24480 On ch=1 n=e6 v=60
24480 On ch=1 n=a4 v=60
24585 On ch=1 n=e6 v=0
24600 On ch=1 n=a4 v=0
24600 On ch=1 n=c5 v=60
24640 On ch=1 n=c6 v=60
24720 On ch=1 n=c5 v=0
24720 On ch=1 n=b4 v=60
24745 On ch=1 n=c6 v=0
24800 On ch=1 n=a5 v=60
24840 On ch=1 n=b4 v=0
24840 On ch=1 n=g#5 v=60
24840 On ch=1 n=a4 v=60
24895 On ch=1 n=g#5 v=0
24900 On ch=1 n=e6 v=60
24905 On ch=1 n=a5 v=0
24955 On ch=1 n=e6 v=0
24955 On ch=1 n=a4 v=0
24960 On ch=1 n=b6 v=84
24960 On ch=1 n=e5 v=60
25040 On ch=1 n=e5 v=0
25065 On ch=1 n=b6 v=0
25120 On ch=1 n=g#6 v=60
25225 On ch=1 n=g#6 v=0
25280 On ch=1 n=e6 v=60
25320 On ch=1 n=e4 v=60
25385 On ch=1 n=e6 v=0
25435 On ch=1 n=e4 v=0
25440 On ch=1 n=b5 v=60
25440 On ch=1 n=e4 v=60
25545 On ch=1 n=b5 v=0
25560 On ch=1 n=e4 v=0
25560 On ch=1 n=g4 v=60
25600 On ch=1 n=g#5 v=60
25680 On ch=1 n=g4 v=0
25680 On ch=1 n=f4 v=60
25705 On ch=1 n=g#5 v=0
25760 On ch=1 n=e5 v=60
25800 On ch=1 n=f4 v=0
25800 On ch=1 n=c6 v=60
25800 On ch=1 n=e4 v=60
25855 On ch=1 n=c6 v=0
25860 On ch=1 n=a6 v=60
25865 On ch=1 n=e5 v=0
25915 On ch=1 n=a6 v=0
25915 On ch=1 n=e4 v=0
25920 On ch=1 n=e7 v=84
25920 On ch=1 n=a4 v=60
26000 On ch=1 n=a4 v=0
26025 On ch=1 n=e7 v=0
26080 On ch=1 n=c7 v=60
26185 On ch=1 n=c7 v=0
26240 On ch=1 n=a6 v=60
26280 On ch=1 n=a4 v=60
26345 On ch=1 n=a6 v=0
26395 On ch=1 n=a4 v=0
26400 On ch=1 n=e6 v=60
26400 On ch=1 n=a4 v=60
26505 On ch=1 n=e6 v=0
26520 On ch=1 n=a4 v=0
26520 On ch=1 n=c5 v=60
26560 On ch=1 n=c6 v=60
26640 On ch=1 n=c5 v=0
26640 On ch=1 n=b4 v=60
26665 On ch=1 n=c6 v=0
26720 On ch=1 n=a5 v=60
26760 On ch=1 n=b4 v=0
26760 On ch=1 n=a4 v=60
26825 On ch=1 n=a5 v=0
26875 On ch=1 n=a4 v=0
26880 On ch=1 n=e5 v=84
27040 On ch=1 n=g#5 v=60
27040 On ch=1 n=e6 v=60
27145 On ch=1 n=e6 v=0
27145 On ch=1 n=g#5 v=0
27200 On ch=1 n=b5 v=60
27200 On ch=1 n=g#6 v=60
27305 On ch=1 n=g#6 v=0
27305 On ch=1 n=b5 v=0
27360 On ch=1 n=e5 v=0
27360 On ch=1 n=e6 v=60
27360 On ch=1 n=e7 v=60
27360 On ch=1 n=e4 v=60
27440 On ch=1 n=e7 v=0
27440 On ch=1 n=e6 v=0
27595 On ch=1 n=e4 v=0
27720 On ch=1 n=c6 v=60
27775 On ch=1 n=c6 v=0
27780 On ch=1 n=c7 v=60
27835 On ch=1 n=c7 v=0
27840 On ch=1 n=e7 v=84
27840 On ch=1 n=a4 v=60
27920 On ch=1 n=a4 v=0
27945 On ch=1 n=e7 v=0
28000 On ch=1 n=c7 v=60
28105 On ch=1 n=c7 v=0
28160 On ch=1 n=a6 v=60
28200 On ch=1 n=a4 v=60
28265 On ch=1 n=a6 v=0
28315 On ch=1 n=a4 v=0
28320 On ch=1 n=e6 v=60
28320 On ch=1 n=a4 v=60
28425 On ch=1 n=e6 v=0
28440 On ch=1 n=a4 v=0
28440 On ch=1 n=c5 v=60
28480 On ch=1 n=c6 v=60
28560 On ch=1 n=c5 v=0
28560 On ch=1 n=b4 v=60
28585 On ch=1 n=c6 v=0
28640 On ch=1 n=a5 v=60
28680 On ch=1 n=b4 v=0
28680 On ch=1 n=g#5 v=60
28680 On ch=1 n=a4 v=60
28735 On ch=1 n=g#5 v=0
28740 On ch=1 n=e6 v=60
28745 On ch=1 n=a5 v=0
28795 On ch=1 n=e6 v=0
28795 On ch=1 n=a4 v=0
28800 On ch=1 n=b6 v=84
28800 On ch=1 n=e5 v=60
28880 On ch=1 n=e5 v=0
28905 On ch=1 n=b6 v=0
28960 On ch=1 n=g#6 v=60
29065 On ch=1 n=g#6 v=0
29120 On ch=1 n=e6 v=60
29160 On ch=1 n=e4 v=60
29225 On ch=1 n=e6 v=0
29275 On ch=1 n=e4 v=0
29280 On ch=1 n=b5 v=60
29280 On ch=1 n=e4 v=60
29385 On ch=1 n=b5 v=0
29400 On ch=1 n=e4 v=0
29400 On ch=1 n=g4 v=60
29440 On ch=1 n=g#5 v=60
29520 On ch=1 n=g4 v=0
29520 On ch=1 n=f4 v=60
29545 On ch=1 n=g#5 v=0
29600 On ch=1 n=e5 v=60
29640 On ch=1 n=f4 v=0
29640 On ch=1 n=c6 v=60
29640 On ch=1 n=e4 v=60
29695 On ch=1 n=c6 v=0
29700 On ch=1 n=a6 v=60
29705 On ch=1 n=e5 v=0
29755 On ch=1 n=a6 v=0
29755 On ch=1 n=e4 v=0
29760 On ch=1 n=e7 v=84
29760 On ch=1 n=a4 v=60
29840 On ch=1 n=a4 v=0
29865 On ch=1 n=e7 v=0
29920 On ch=1 n=c7 v=60
30025 On ch=1 n=c7 v=0
30080 On ch=1 n=a6 v=60
30120 On ch=1 n=a4 v=60
30185 On ch=1 n=a6 v=0
30235 On ch=1 n=a4 v=0
30240 On ch=1 n=e6 v=60
30240 On ch=1 n=a4 v=60
30345 On ch=1 n=e6 v=0
30360 On ch=1 n=a4 v=0
30360 On ch=1 n=c5 v=60
30400 On ch=1 n=c6 v=60
30480 On ch=1 n=c5 v=0
30480 On ch=1 n=b4 v=60
30505 On ch=1 n=c6 v=0
30560 On ch=1 n=a5 v=60
30600 On ch=1 n=b4 v=0
30600 On ch=1 n=a4 v=60
30665 On ch=1 n=a5 v=0
30715 On ch=1 n=a4 v=0
30720 On ch=1 n=e5 v=84
30880 On ch=1 n=g#5 v=60
30880 On ch=1 n=e6 v=60
30985 On ch=1 n=e6 v=0
30985 On ch=1 n=g#5 v=0
31040 On ch=1 n=b5 v=60
31040 On ch=1 n=g#6 v=60
31145 On ch=1 n=g#6 v=0
31145 On ch=1 n=b5 v=0
31200 On ch=1 n=e5 v=0
31200 On ch=1 n=e6 v=60
31200 On ch=1 n=e7 v=60
31200 On ch=1 n=e4 v=60
31280 On ch=1 n=e7 v=0
31280 On ch=1 n=e6 v=0
31435 On ch=1 n=e4 v=0
31560 On ch=1 n=a5 v=60
31560 On ch=1 n=a4 v=60
31620 On ch=1 n=c#6 v=60
31620 On ch=1 n=e5 v=60
31680 On ch=1 n=a6 v=84
31680 On ch=1 n=a5 v=60
31760 On ch=1 n=e5 v=0
31760 On ch=1 n=a4 v=0
31760 On ch=1 n=a5 v=0
31785 On ch=1 n=a5 v=0
31785 On ch=1 n=a6 v=0
31785 On ch=1 n=c#6 v=0
31840 On ch=1 n=e6 v=60
31945 On ch=1 n=e6 v=0
32000 On ch=1 n=c#6 v=60
32040 On ch=1 n=a5 v=60
32105 On ch=1 n=c#6 v=0
32155 On ch=1 n=a5 v=0
32160 On ch=1 n=a5 v=60
32160 On ch=1 n=a5 v=60
32265 On ch=1 n=a5 v=0
32280 On ch=1 n=a5 v=0
32280 On ch=1 n=a#5 v=60
32320 On ch=1 n=e5 v=60
32400 On ch=1 n=a#5 v=0
32400 On ch=1 n=a5 v=60
32425 On ch=1 n=e5 v=0
32480 On ch=1 n=c#5 v=60
32520 On ch=1 n=a5 v=0
32520 On ch=1 n=g5 v=60
32580 On ch=1 n=d4 v=60
32585 On ch=1 n=c#5 v=0
32635 On ch=1 n=g5 v=0
32640 On ch=1 n=f5 v=60
32720 On ch=1 n=f5 v=0
32720 On ch=1 n=d4 v=0
32800 On ch=1 n=a5 v=60
32800 On ch=1 n=d6 v=60
32905 On ch=1 n=d6 v=0
32905 On ch=1 n=a5 v=0
32960 On ch=1 n=d6 v=60
32960 On ch=1 n=f6 v=60
33000 On ch=1 n=d5 v=60
33065 On ch=1 n=f6 v=0
33065 On ch=1 n=d6 v=0
33115 On ch=1 n=d5 v=0
33120 On ch=1 n=f6 v=60
33120 On ch=1 n=a6 v=60
33120 On ch=1 n=d5 v=60
33225 On ch=1 n=a6 v=0
33225 On ch=1 n=f6 v=0
33240 On ch=1 n=d5 v=0
33240 On ch=1 n=f5 v=60
33280 On ch=1 n=a6 v=60
33280 On ch=1 n=d7 v=60
33360 On ch=1 n=f5 v=0
33360 On ch=1 n=e5 v=60
33385 On ch=1 n=d7 v=0
33385 On ch=1 n=a6 v=0
33440 On ch=1 n=d7 v=60
33440 On ch=1 n=f7 v=60
33480 On ch=1 n=e5 v=0
33480 On ch=1 n=g6 v=60
33480 On ch=1 n=d5 v=60
33480 On ch=1 n=g4 v=60
33540 On ch=1 n=b6 v=60
33540 On ch=1 n=d5 v=60
33545 On ch=1 n=f7 v=0
33545 On ch=1 n=d7 v=0
33595 On ch=1 n=d5 v=0
33600 On ch=1 n=g7 v=84
33600 On ch=1 n=g5 v=60
33680 On ch=1 n=g5 v=0
33680 On ch=1 n=d5 v=0
33680 On ch=1 n=g4 v=0
33705 On ch=1 n=g7 v=0
33705 On ch=1 n=b6 v=0
33705 On ch=1 n=g6 v=0
33760 On ch=1 n=d7 v=60
33865 On ch=1 n=d7 v=0
33920 On ch=1 n=b6 v=60
33960 On ch=1 n=g5 v=60
34025 On ch=1 n=b6 v=0
34075 On ch=1 n=g5 v=0
34080 On ch=1 n=g6 v=60
34080 On ch=1 n=g5 v=60
34185 On ch=1 n=g6 v=0
34200 On ch=1 n=g5 v=0
34200 On ch=1 n=a5 v=60
34240 On ch=1 n=d6 v=60
34320 On ch=1 n=a5 v=0
34320 On ch=1 n=g5 v=60
34345 On ch=1 n=d6 v=0
34400 On ch=1 n=b5 v=60
34440 On ch=1 n=g5 v=0
34440 On ch=1 n=f5 v=60
34500 On ch=1 n=c4 v=60
34505 On ch=1 n=b5 v=0
34555 On ch=1 n=f5 v=0
34560 On ch=1 n=e5 v=60
34640 On ch=1 n=e5 v=0
34640 On ch=1 n=c4 v=0
34720 On ch=1 n=g5 v=60
34720 On ch=1 n=c6 v=60
34825 On ch=1 n=c6 v=0
34825 On ch=1 n=g5 v=0
34880 On ch=1 n=c6 v=60
34880 On ch=1 n=e6 v=60
34920 On ch=1 n=c5 v=60
34985 On ch=1 n=e6 v=0
34985 On ch=1 n=c6 v=0
35035 On ch=1 n=c5 v=0
35040 On ch=1 n=e6 v=60
35040 On ch=1 n=g6 v=60
35040 On ch=1 n=c5 v=60
35145 On ch=1 n=g6 v=0
35145 On ch=1 n=e6 v=0
35160 On ch=1 n=c5 v=0
35160 On ch=1 n=e5 v=60
35200 On ch=1 n=g6 v=60
35200 On ch=1 n=c7 v=60
35280 On ch=1 n=e5 v=0
35280 On ch=1 n=d5 v=60
35305 On ch=1 n=c7 v=0
35305 On ch=1 n=g6 v=0
35360 On ch=1 n=c7 v=60
35360 On ch=1 n=e7 v=60
35400 On ch=1 n=d5 v=0
35400 On ch=1 n=c5 v=60
35400 On ch=1 n=d4 v=60
35460 On ch=1 n=g#4 v=60
35465 On ch=1 n=e7 v=0
35465 On ch=1 n=c7 v=0
35515 On ch=1 n=c5 v=0
35520 On ch=1 n=b6 v=84
35520 On ch=1 n=f7 v=84
35520 On ch=1 n=f5 v=60
35600 On ch=1 n=f5 v=0
35625 On ch=1 n=f7 v=0
35625 On ch=1 n=b6 v=0
35680 On ch=1 n=g#6 v=60
35680 On ch=1 n=d7 v=60
35755 On ch=1 n=g#4 v=0
35755 On ch=1 n=d4 v=0
35785 On ch=1 n=d7 v=0
35785 On ch=1 n=g#6 v=0
35840 On ch=1 n=f6 v=60
35840 On ch=1 n=b6 v=60
35880 On ch=1 n=b4 v=60
35945 On ch=1 n=b6 v=0
35945 On ch=1 n=f6 v=0
35995 On ch=1 n=b4 v=0
36000 On ch=1 n=d6 v=60
36000 On ch=1 n=g#6 v=60
36000 On ch=1 n=b4 v=60
36105 On ch=1 n=g#6 v=0
36105 On ch=1 n=d6 v=0
36120 On ch=1 n=b4 v=0
36120 On ch=1 n=d5 v=60
36160 On ch=1 n=f6 v=60
36160 On ch=1 n=b5 v=60
36240 On ch=1 n=d5 v=0
36240 On ch=1 n=c5 v=60
36265 On ch=1 n=b5 v=0
36265 On ch=1 n=f6 v=0
36320 On ch=1 n=d6 v=60
36360 On ch=1 n=c5 v=0
36360 On ch=1 n=e6 v=60
36360 On ch=1 n=b4 v=60
36415 On ch=1 n=e6 v=0
36420 On ch=1 n=a6 v=60
36420 On ch=1 n=c4 v=60
36425 On ch=1 n=d6 v=0
36475 On ch=1 n=a6 v=0
36475 On ch=1 n=b4 v=0
36480 On ch=1 n=e7 v=84
36480 On ch=1 n=e5 v=60
36560 On ch=1 n=e5 v=0
36560 On ch=1 n=c4 v=0
36585 On ch=1 n=e7 v=0
36640 On ch=1 n=c7 v=60
36745 On ch=1 n=c7 v=0
36800 On ch=1 n=a6 v=60
36840 On ch=1 n=a4 v=60
36905 On ch=1 n=a6 v=0
36955 On ch=1 n=a4 v=0
36960 On ch=1 n=e6 v=60
36960 On ch=1 n=a4 v=60
37065 On ch=1 n=e6 v=0
37080 On ch=1 n=a4 v=0
37080 On ch=1 n=c5 v=60
37120 On ch=1 n=c6 v=60
37200 On ch=1 n=c5 v=0
37200 On ch=1 n=b4 v=60
37225 On ch=1 n=c6 v=0
37280 On ch=1 n=a5 v=60
37320 On ch=1 n=b4 v=0
37320 On ch=1 n=a4 v=60
37385 On ch=1 n=a5 v=0
37435 On ch=1 n=a4 v=0
37440 Tempo 461538
37440 On ch=1 n=f4 v=60
37502 Tempo 468750
37567 Tempo 476190
37600 On ch=1 n=d#5 v=60
37600 On ch=1 n=b5 v=60
37630 Tempo 483870
37695 Tempo 491803
37705 On ch=1 n=b5 v=0
37705 On ch=1 n=d#5 v=0
37760 Tempo 500000
37760 On ch=1 n=a5 v=60
37760 On ch=1 n=d#6 v=60
37800 On ch=1 n=f4 v=0
37800 On ch=1 n=b4 v=60
37822 Tempo 508474
37865 On ch=1 n=d#6 v=0
37865 On ch=1 n=a5 v=0
37887 Tempo 517241
37915 On ch=1 n=b4 v=0
37920 On ch=1 n=e4 v=60
37950 Tempo 526315
38015 Tempo 535714
38040 On ch=1 n=e5 v=60
38080 Tempo 545454
38080 On ch=1 n=g#5 v=60
38080 On ch=1 n=e6 v=60
38142 Tempo 555555
38160 On ch=1 n=e5 v=0
38160 On ch=1 n=d5 v=60
38185 On ch=1 n=e6 v=0
38185 On ch=1 n=g#5 v=0
38207 Tempo 566037
38240 On ch=1 n=b5 v=60
38240 On ch=1 n=g#6 v=60
38270 Tempo 576923
38280 On ch=1 n=d5 v=0
38280 On ch=1 n=b4 v=60
38320 On ch=1 n=e4 v=0
38335 Tempo 588235
38345 On ch=1 n=g#6 v=0
38345 On ch=1 n=b5 v=0
38395 On ch=1 n=b4 v=0
38400 Tempo 600000
38400 On ch=1 n=a4 v=60
38560 On ch=1 n=c6 v=60
38560 On ch=1 n=a6 v=60
38665 On ch=1 n=a6 v=0
38665 On ch=1 n=c6 v=0
38720 On ch=1 n=e6 v=60
38720 On ch=1 n=c7 v=60
38825 On ch=1 n=c7 v=0
38825 On ch=1 n=e6 v=0
38880 On ch=1 n=a4 v=0
38880 On ch=1 n=a6 v=60
38880 On ch=1 n=a7 v=60
38880 On ch=1 n=e5 v=60
38880 On ch=1 n=c6 v=60
38960 On ch=1 n=c6 v=0
38960 On ch=1 n=e5 v=0
38960 On ch=1 n=a7 v=0
38960 On ch=1 n=a6 v=0
39360 Tempo 333333
40320 On ch=1 n=a3 v=60
40320 On ch=1 n=f3 v=60
40440 On ch=1 n=a3 v=0
40440 On ch=1 n=g#3 v=60
40560 On ch=1 n=g#3 v=0
40560 On ch=1 n=a3 v=60
40680 On ch=1 n=a3 v=0
40680 On ch=1 n=g#3 v=60
40720 On ch=1 n=f3 v=0
40740 On ch=1 n=a#3 v=60
40795 On ch=1 n=a#3 v=0
40795 On ch=1 n=g#3 v=0
40800 On ch=1 n=a3 v=60
40920 On ch=1 n=a3 v=0
40920 On ch=1 n=b3 v=60
41040 On ch=1 n=b3 v=0
41040 On ch=1 n=c4 v=60
41160 On ch=1 n=c4 v=0
41160 On ch=1 n=d4 v=60
41160 On ch=1 n=e3 v=60
41220 On ch=1 n=g#3 v=60
41275 On ch=1 n=d4 v=0
41280 On ch=1 n=e4 v=60
41400 On ch=1 n=e4 v=0
41400 On ch=1 n=d#4 v=60
41520 On ch=1 n=d#4 v=0
41520 On ch=1 n=e4 v=60
41640 On ch=1 n=e4 v=0
41640 On ch=1 n=d#4 v=60
41680 On ch=1 n=g#3 v=0
41680 On ch=1 n=e3 v=0
41700 On ch=1 n=f4 v=60
41755 On ch=1 n=f4 v=0
41755 On ch=1 n=d#4 v=0
41760 On ch=1 n=e4 v=60
41880 On ch=1 n=e4 v=0
41880 On ch=1 n=d4 v=60
42000 On ch=1 n=d4 v=0
42000 On ch=1 n=c4 v=60
42120 On ch=1 n=c4 v=0
42120 On ch=1 n=b3 v=60
42235 On ch=1 n=b3 v=0
42240 On ch=1 n=a3 v=60
42240 On ch=1 n=a3 v=60
42360 On ch=1 n=a3 v=0
42360 On ch=1 n=g#3 v=60
42480 On ch=1 n=g#3 v=0
42480 On ch=1 n=a3 v=60
42600 On ch=1 n=a3 v=0
42600 On ch=1 n=g#3 v=60
42640 On ch=1 n=a3 v=0
42660 On ch=1 n=a#3 v=60
42715 On ch=1 n=a#3 v=0
42715 On ch=1 n=g#3 v=0
42720 On ch=1 n=a3 v=60
42840 On ch=1 n=a3 v=0
42840 On ch=1 n=b3 v=60
42960 On ch=1 n=b3 v=0
42960 On ch=1 n=c4 v=60
43080 On ch=1 n=c4 v=0
43080 On ch=1 n=d4 v=60
43080 On ch=1 n=e3 v=60
43140 On ch=1 n=g#3 v=60
43195 On ch=1 n=d4 v=0
43200 On ch=1 n=e4 v=60
43320 On ch=1 n=e4 v=0
43320 On ch=1 n=d#4 v=60
43440 On ch=1 n=d#4 v=0
43440 On ch=1 n=e4 v=60
43560 On ch=1 n=e4 v=0
43560 On ch=1 n=d#4 v=60
43600 On ch=1 n=g#3 v=0
43600 On ch=1 n=e3 v=0
43620 On ch=1 n=f4 v=60
43675 On ch=1 n=d#4 v=0
43680 On ch=1 n=f4 v=0
43680 On ch=1 n=e4 v=60
43760 On ch=1 n=e4 v=0
44160 On ch=1 n=a4 v=60
44160 On ch=1 n=f4 v=60
44280 On ch=1 n=a4 v=0
44280 On ch=1 n=g#4 v=60
44400 On ch=1 n=g#4 v=0
44400 On ch=1 n=a4 v=60
44520 On ch=1 n=a4 v=0
44520 On ch=1 n=g#4 v=60
44560 On ch=1 n=f4 v=0
44580 On ch=1 n=a#4 v=60
44635 On ch=1 n=a#4 v=0
44635 On ch=1 n=g#4 v=0
44640 On ch=1 n=a4 v=60
44760 On ch=1 n=a4 v=0
44760 On ch=1 n=b4 v=60
44880 On ch=1 n=b4 v=0
44880 On ch=1 n=c5 v=60
45000 On ch=1 n=c5 v=0
45000 On ch=1 n=d5 v=60
45000 On ch=1 n=e4 v=60
45060 On ch=1 n=g#4 v=60
45115 On ch=1 n=d5 v=0
45120 On ch=1 n=e5 v=60
45240 On ch=1 n=e5 v=0
45240 On ch=1 n=d#5 v=60
45360 On ch=1 n=d#5 v=0
45360 On ch=1 n=e5 v=60
45480 On ch=1 n=e5 v=0
45480 On ch=1 n=d#5 v=60
45520 On ch=1 n=g#4 v=0
45520 On ch=1 n=e4 v=0
45540 On ch=1 n=f5 v=60
45595 On ch=1 n=f5 v=0
45595 On ch=1 n=d#5 v=0
45600 On ch=1 n=e5 v=60
45720 On ch=1 n=e5 v=0
45720 On ch=1 n=d5 v=60
45840 On ch=1 n=d5 v=0
45840 On ch=1 n=c5 v=60
45960 On ch=1 n=c5 v=0
45960 On ch=1 n=b4 v=60
46075 On ch=1 n=b4 v=0
46080 On ch=1 n=a4 v=60
46080 On ch=1 n=a4 v=60
46200 On ch=1 n=a4 v=0
46200 On ch=1 n=g#4 v=60
46320 On ch=1 n=g#4 v=0
46320 On ch=1 n=a4 v=60
46440 On ch=1 n=a4 v=0
46440 On ch=1 n=g#4 v=60
46480 On ch=1 n=a4 v=0
46500 On ch=1 n=a#4 v=60
46555 On ch=1 n=a#4 v=0
46555 On ch=1 n=g#4 v=0
46560 On ch=1 n=a4 v=60
46680 On ch=1 n=a4 v=0
46680 On ch=1 n=b4 v=60
46800 On ch=1 n=b4 v=0
46800 On ch=1 n=c5 v=60
46920 On ch=1 n=c5 v=0
46920 On ch=1 n=d5 v=60
46920 On ch=1 n=e4 v=60
46980 On ch=1 n=g#4 v=60
47035 On ch=1 n=d5 v=0
47040 On ch=1 n=e5 v=60
47160 On ch=1 n=e5 v=0
47160 On ch=1 n=d#5 v=60
47280 On ch=1 n=d#5 v=0
47280 On ch=1 n=e5 v=60
47400 On ch=1 n=e5 v=0
47400 On ch=1 n=d#5 v=60
47440 On ch=1 n=g#4 v=0
47440 On ch=1 n=e4 v=0
47460 On ch=1 n=f5 v=60
47515 On ch=1 n=d#5 v=0
47520 On ch=1 n=f5 v=0
47520 On ch=1 n=e5 v=60
47600 On ch=1 n=e5 v=0
48000 On ch=1 n=a5 v=60
48000 On ch=1 n=c#5 v=60
48000 On ch=1 n=e5 v=60
48120 On ch=1 n=a5 v=0
48120 On ch=1 n=g#5 v=60
48240 On ch=1 n=g#5 v=0
48240 On ch=1 n=a5 v=60
48360 On ch=1 n=a5 v=0
48360 On ch=1 n=g#5 v=60
48400 On ch=1 n=e5 v=0
48400 On ch=1 n=c#5 v=0
48420 On ch=1 n=a#5 v=60
48475 On ch=1 n=a#5 v=0
48475 On ch=1 n=g#5 v=0
48480 On ch=1 n=a5 v=60
48600 On ch=1 n=a5 v=0
48600 On ch=1 n=g5 v=60
48720 On ch=1 n=g5 v=0
48720 On ch=1 n=f5 v=60
48840 On ch=1 n=f5 v=0
48840 On ch=1 n=e5 v=60
48955 On ch=1 n=e5 v=0
48960 On ch=1 n=d5 v=60
48960 On ch=1 n=f4 v=60
48960 On ch=1 n=a4 v=60
49080 On ch=1 n=d5 v=0
49080 On ch=1 n=c#5 v=60
49200 On ch=1 n=c#5 v=0
49200 On ch=1 n=d5 v=60
49320 On ch=1 n=d5 v=0
49320 On ch=1 n=c#5 v=60
49360 On ch=1 n=a4 v=0
49360 On ch=1 n=f4 v=0
49380 On ch=1 n=d#5 v=60
49435 On ch=1 n=d#5 v=0
49435 On ch=1 n=c#5 v=0
49440 On ch=1 n=d5 v=60
49560 On ch=1 n=d5 v=0
49560 On ch=1 n=d#5 v=60
49680 On ch=1 n=d#5 v=0
49680 On ch=1 n=f5 v=60
49800 On ch=1 n=f5 v=0
49800 On ch=1 n=d5 v=60
49915 On ch=1 n=d5 v=0
49920 On ch=1 n=g5 v=60
49920 On ch=1 n=b4 v=60
49920 On ch=1 n=d5 v=60
50040 On ch=1 n=g5 v=0
50040 On ch=1 n=f#5 v=60
50160 On ch=1 n=f#5 v=0
50160 On ch=1 n=g5 v=60
50280 On ch=1 n=g5 v=0
50280 On ch=1 n=f#5 v=60
50320 On ch=1 n=d5 v=0
50320 On ch=1 n=b4 v=0
50340 On ch=1 n=a#5 v=60
50395 On ch=1 n=a#5 v=0
50395 On ch=1 n=f#5 v=0
50400 On ch=1 n=a5 v=60
50520 On ch=1 n=a5 v=0
50520 On ch=1 n=g5 v=60
50640 On ch=1 n=g5 v=0
50640 On ch=1 n=f5 v=60
50760 On ch=1 n=f5 v=0
50760 On ch=1 n=e5 v=60
50875 On ch=1 n=e5 v=0
50880 On ch=1 n=c5 v=60
50880 On ch=1 n=e4 v=60
50880 On ch=1 n=g4 v=60
50995 On ch=1 n=c5 v=0
51000 On ch=1 n=b4 v=60
51115 On ch=1 n=b4 v=0
51120 On ch=1 n=c5 v=60
51235 On ch=1 n=c5 v=0
51240 On ch=1 n=b4 v=60
51280 On ch=1 n=g4 v=0
51280 On ch=1 n=e4 v=0
51300 On ch=1 n=c#5 v=60
51355 On ch=1 n=c#5 v=0
51355 On ch=1 n=b4 v=0
51360 On ch=1 n=c5 v=60
51480 On ch=1 n=c5 v=0
51480 On ch=1 n=c#5 v=60
51600 On ch=1 n=c#5 v=0
51600 On ch=1 n=e5 v=60
51720 On ch=1 n=e5 v=0
51720 On ch=1 n=c5 v=60
51835 On ch=1 n=c5 v=0
51840 On ch=1 n=f5 v=60
51840 On ch=1 n=d4 v=60
51840 On ch=1 n=g#4 v=60
51955 On ch=1 n=f5 v=0
51960 On ch=1 n=e5 v=60
52075 On ch=1 n=e5 v=0
52080 On ch=1 n=f5 v=60
52195 On ch=1 n=f5 v=0
52200 On ch=1 n=e5 v=60
52240 On ch=1 n=g#4 v=0
52240 On ch=1 n=d4 v=0
52260 On ch=1 n=g5 v=60
52315 On ch=1 n=g5 v=0
52315 On ch=1 n=e5 v=0
52320 On ch=1 n=f5 v=60
52440 On ch=1 n=f5 v=0
52440 On ch=1 n=d5 v=60
52560 On ch=1 n=d5 v=0
52560 On ch=1 n=c5 v=60
52680 On ch=1 n=c5 v=0
52680 On ch=1 n=b4 v=60
52795 On ch=1 n=b4 v=0
52800 On ch=1 n=e5 v=60
52800 On ch=1 n=c4 v=60
52800 On ch=1 n=a4 v=60
52915 On ch=1 n=e5 v=0
52920 On ch=1 n=d#5 v=60
53035 On ch=1 n=d#5 v=0
53040 On ch=1 n=e5 v=60
53155 On ch=1 n=e5 v=0
53160 On ch=1 n=d#5 v=60
53200 On ch=1 n=a4 v=0
53200 On ch=1 n=c4 v=0
53220 On ch=1 n=f5 v=60
53275 On ch=1 n=f5 v=0
53275 On ch=1 n=d#5 v=0
53280 On ch=1 n=e5 v=60
53400 On ch=1 n=e5 v=0
53400 On ch=1 n=c5 v=60
53520 On ch=1 n=c5 v=0
53520 On ch=1 n=b4 v=60
53640 On ch=1 n=b4 v=0
53640 On ch=1 n=a4 v=60
53755 On ch=1 n=a4 v=0
53760 On ch=1 n=a#4 v=60
53760 On ch=1 n=d4 v=60
53760 On ch=1 n=f4 v=60
53880 On ch=1 n=a#4 v=0
53880 On ch=1 n=a4 v=60
54000 On ch=1 n=a4 v=0
54000 On ch=1 n=a#4 v=60
54120 On ch=1 n=a#4 v=0
54120 On ch=1 n=a4 v=60
54160 On ch=1 n=f4 v=0
54160 On ch=1 n=d4 v=0
54180 On ch=1 n=c5 v=60
54235 On ch=1 n=c5 v=0
54240 On ch=1 n=a4 v=0
54240 On ch=1 n=b4 v=60
54240 On ch=1 n=g#4 v=60
54240 On ch=1 n=e4 v=60
54360 On ch=1 n=b4 v=0
54360 On ch=1 n=f5 v=60
54475 On ch=1 n=e4 v=0
54475 On ch=1 n=g#4 v=0
54480 On ch=1 n=f5 v=0
54480 On ch=1 n=e5 v=60
54600 On ch=1 n=e5 v=0
54600 On ch=1 n=g#4 v=60
54715 On ch=1 n=g#4 v=0
54720 Tempo 375000
54720 On ch=1 n=a4 v=60
54840 On ch=1 n=a4 v=0
54840 On ch=1 n=g#4 v=60
54960 On ch=1 n=g#4 v=0
54960 On ch=1 n=d4 v=60
54960 On ch=1 n=f4 v=60
54960 On ch=1 n=a4 v=60
55080 On ch=1 n=a4 v=0
55080 On ch=1 n=g#4 v=60
55195 On ch=1 n=g#4 v=0
55195 On ch=1 n=f4 v=0
55195 On ch=1 n=d4 v=0
55200 On ch=1 n=c4 v=60
55200 On ch=1 n=e4 v=60
55200 On ch=1 n=a4 v=60
55435 On ch=1 n=a4 v=0
55435 On ch=1 n=e4 v=0
55435 On ch=1 n=c4 v=0
55680 Tempo 333333
55680 On ch=1 n=a3 v=60
55795 On ch=1 n=a3 v=0
55800 On ch=1 n=g#3 v=60
55915 On ch=1 n=g#3 v=0
55920 On ch=1 n=a3 v=60
56035 On ch=1 n=a3 v=0
56040 On ch=1 n=e4 v=45
56040 On ch=1 n=g#3 v=60
56100 On ch=1 n=g4 v=45
56100 On ch=1 n=a#3 v=60
56155 On ch=1 n=a#3 v=0
56155 On ch=1 n=g#3 v=0
56160 On ch=1 n=c#5 v=45
56160 On ch=1 n=a3 v=84
56275 On ch=1 n=a3 v=0
56280 On ch=1 n=g3 v=60
56395 On ch=1 n=g3 v=0
56400 On ch=1 n=f3 v=60
56515 On ch=1 n=f3 v=0
56520 On ch=1 n=e3 v=60
56560 On ch=1 n=c#5 v=0
56560 On ch=1 n=g4 v=0
56560 On ch=1 n=e4 v=0
56635 On ch=1 n=e3 v=0
56640 On ch=1 n=d3 v=60
56755 On ch=1 n=d3 v=0
56760 On ch=1 n=c#3 v=60
56875 On ch=1 n=c#3 v=0
56880 On ch=1 n=d3 v=60
56995 On ch=1 n=d3 v=0
57000 On ch=1 n=f4 v=45
57000 On ch=1 n=c#3 v=60
57060 On ch=1 n=a4 v=45
57060 On ch=1 n=d#3 v=60
57115 On ch=1 n=d#3 v=0
57115 On ch=1 n=c#3 v=0
57120 On ch=1 n=f5 v=45
57120 On ch=1 n=d3 v=84
57235 On ch=1 n=d3 v=0
57240 On ch=1 n=e3 v=60
57355 On ch=1 n=e3 v=0
57360 On ch=1 n=f3 v=60
57475 On ch=1 n=f3 v=0
57480 On ch=1 n=d3 v=60
57520 On ch=1 n=f5 v=0
57520 On ch=1 n=a4 v=0
57520 On ch=1 n=f4 v=0
57595 On ch=1 n=d3 v=0
57600 On ch=1 n=g3 v=60
57715 On ch=1 n=g3 v=0
57720 On ch=1 n=f#3 v=60
57835 On ch=1 n=f#3 v=0
57840 On ch=1 n=g3 v=60
57955 On ch=1 n=g3 v=0
57960 On ch=1 n=d4 v=45
57960 On ch=1 n=f#3 v=60
58020 On ch=1 n=f4 v=45
58020 On ch=1 n=g#3 v=60
58075 On ch=1 n=g#3 v=0
58075 On ch=1 n=f#3 v=0
58080 On ch=1 n=b4 v=45
58080 On ch=1 n=g3 v=84
58195 On ch=1 n=g3 v=0
58200 On ch=1 n=f3 v=60
58315 On ch=1 n=f3 v=0
58320 On ch=1 n=e3 v=60
58435 On ch=1 n=e3 v=0
58440 On ch=1 n=d3 v=60
58480 On ch=1 n=b4 v=0
58480 On ch=1 n=f4 v=0
58480 On ch=1 n=d4 v=0
58555 On ch=1 n=d3 v=0
58560 On ch=1 n=c3 v=60
58675 On ch=1 n=c3 v=0
58680 On ch=1 n=b2 v=60
58795 On ch=1 n=b2 v=0
58800 On ch=1 n=c3 v=60
58915 On ch=1 n=c3 v=0
58920 On ch=1 n=e4 v=45
58920 On ch=1 n=b2 v=60
58980 On ch=1 n=g4 v=45
58980 On ch=1 n=c#3 v=60
59035 On ch=1 n=c#3 v=0
59035 On ch=1 n=b2 v=0
59040 On ch=1 n=e5 v=45
59040 On ch=1 n=c3 v=84
59155 On ch=1 n=c3 v=0
59160 On ch=1 n=d3 v=60
59275 On ch=1 n=d3 v=0
59280 On ch=1 n=e3 v=60
59395 On ch=1 n=e3 v=0
59400 On ch=1 n=c3 v=60
59440 On ch=1 n=e5 v=0
59440 On ch=1 n=g4 v=0
59440 On ch=1 n=e4 v=0
59515 On ch=1 n=c3 v=0
59520 On ch=1 n=f3 v=60
59635 On ch=1 n=f3 v=0
59640 On ch=1 n=e3 v=60
59755 On ch=1 n=e3 v=0
59760 On ch=1 n=f3 v=60
59875 On ch=1 n=f3 v=0
59880 On ch=1 n=d4 v=45
59880 On ch=1 n=e3 v=60
59940 On ch=1 n=g#4 v=45
59940 On ch=1 n=g3 v=60
59995 On ch=1 n=g3 v=0
59995 On ch=1 n=e3 v=0
60000 On ch=1 n=b4 v=45
60000 On ch=1 n=f3 v=84
60115 On ch=1 n=f3 v=0
60120 On ch=1 n=d3 v=60
60235 On ch=1 n=d3 v=0
60240 On ch=1 n=c3 v=60
60355 On ch=1 n=c3 v=0
60360 On ch=1 n=b2 v=60
60400 On ch=1 n=b4 v=0
60400 On ch=1 n=g#4 v=0
60400 On ch=1 n=d4 v=0
60475 On ch=1 n=b2 v=0
60480 Tempo 333333
60480 On ch=1 n=e3 v=60
60507 Tempo 337078
60537 Tempo 340909
60565 Tempo 344827
60595 On ch=1 n=e3 v=0
60595 Tempo 348837
60600 On ch=1 n=d#3 v=60
60622 Tempo 352941
60652 Tempo 357142
60680 Tempo 361445
60710 Tempo 365853
60715 On ch=1 n=d#3 v=0
60720 On ch=1 n=e3 v=60
60737 Tempo 370370
60767 Tempo 375000
60795 Tempo 379746
60825 Tempo 384615
60835 On ch=1 n=e3 v=0
60840 On ch=1 n=d#3 v=60
60852 Tempo 389610
60882 Tempo 394736
60900 On ch=1 n=f3 v=60
60910 Tempo 400000
60940 Tempo 405405
60955 On ch=1 n=f3 v=0
60955 On ch=1 n=d#3 v=0
60960 On ch=1 n=e4 v=45
60960 On ch=1 n=a4 v=45
60960 On ch=1 n=c5 v=45
60960 On ch=1 n=e3 v=84
60967 Tempo 410958
60997 Tempo 416666
61025 Tempo 422535
61055 Tempo 428571
61075 On ch=1 n=e3 v=0
61080 On ch=1 n=c3 v=60
61082 Tempo 434782
61112 Tempo 441176
61140 Tempo 447761
61170 Tempo 454545
61195 On ch=1 n=c3 v=0
61200 Tempo 461538
61200 On ch=1 n=b2 v=60
61227 Tempo 468750
61257 Tempo 476190
61285 Tempo 483870
61315 On ch=1 n=b2 v=0
61315 Tempo 491803
61320 On ch=1 n=a2 v=60
61342 Tempo 500000
61372 Tempo 508474
61400 Tempo 517241
61430 Tempo 526315
61435 On ch=1 n=a2 v=0
61440 On ch=1 n=c5 v=0
61440 On ch=1 n=a4 v=0
61440 On ch=1 n=e4 v=0
61440 On ch=1 n=d5 v=45
61440 On ch=1 n=f4 v=45
61440 On ch=1 n=a4 v=45
61440 On ch=1 n=b2 v=60
61457 Tempo 535714
61487 Tempo 545454
61515 Tempo 555555
61545 Tempo 566037
61555 On ch=1 n=b2 v=0
61560 On ch=1 n=a#2 v=60
61572 Tempo 576923
61602 Tempo 588235
61630 Tempo 600000
61660 Tempo 612244
61675 On ch=1 n=a#2 v=0
61680 On ch=1 n=d5 v=0
61680 On ch=1 n=d#5 v=45
61680 On ch=1 n=b2 v=60
61687 Tempo 625000
61717 Tempo 638297
61745 Tempo 652173
61775 Tempo 666666
61795 On ch=1 n=b2 v=0
61800 On ch=1 n=a#2 v=60
61802 Tempo 681818
61832 Tempo 697674
61840 On ch=1 n=a4 v=0
61840 On ch=1 n=f4 v=0
61860 Tempo 714285
61890 Tempo 731707
61915 On ch=1 n=a#2 v=0
61920 On ch=1 n=d#5 v=0
61920 Tempo 750000
61920 On ch=1 n=e5 v=45
61920 On ch=1 n=e4 v=45
61920 On ch=1 n=g#4 v=45
61920 On ch=1 n=c3 v=60
62035 On ch=1 n=c3 v=0
62040 On ch=1 n=b2 v=60
62155 On ch=1 n=b2 v=0
62155 On ch=1 n=g#4 v=0
62155 On ch=1 n=e4 v=0
62155 On ch=1 n=e5 v=0
62160 On ch=1 n=f3 v=60
62275 On ch=1 n=f3 v=0
62280 On ch=1 n=e3 v=60
62335 On ch=1 n=e3 v=0
62400 Tempo 333333
63360 Tempo 333333
63360 On ch=1 n=a2 v=60
63455 Tempo 337078
63475 On ch=1 n=a2 v=0
63480 On ch=1 n=g#2 v=60
63550 Tempo 340909
63595 On ch=1 n=g#2 v=0
63600 On ch=1 n=a2 v=60
63647 Tempo 344827
63715 On ch=1 n=a2 v=0
63720 On ch=1 n=g#2 v=60
63742 Tempo 348837
63780 On ch=1 n=a#2 v=60
63835 On ch=1 n=a#2 v=0
63835 On ch=1 n=g#2 v=0
63840 Tempo 352941
63840 On ch=1 n=f4 v=45
63840 On ch=1 n=a4 v=45
63840 On ch=1 n=d5 v=45
63840 On ch=1 n=a2 v=60
63920 On ch=1 n=d5 v=0
63920 On ch=1 n=a4 v=0
63920 On ch=1 n=f4 v=0
63935 Tempo 357142
63955 On ch=1 n=a2 v=0
63960 On ch=1 n=g#2 v=59
64030 Tempo 361445
64075 On ch=1 n=g#2 v=0
64080 On ch=1 n=a2 v=58
64127 Tempo 365853
64195 On ch=1 n=a2 v=0
64200 On ch=1 n=g#2 v=57
64222 Tempo 370370
64315 On ch=1 n=g#2 v=0
64320 Tempo 375000
64320 On ch=1 n=e4 v=43
64320 On ch=1 n=a4 v=43
64320 On ch=1 n=c5 v=43
64320 On ch=1 n=a2 v=56
64400 On ch=1 n=c5 v=0
64400 On ch=1 n=a4 v=0
64400 On ch=1 n=e4 v=0
64415 Tempo 379746
64435 On ch=1 n=a2 v=0
64440 On ch=1 n=g#2 v=55
64510 Tempo 384615
64555 On ch=1 n=g#2 v=0
64560 On ch=1 n=a2 v=54
64607 Tempo 389610
64675 On ch=1 n=a2 v=0
64680 On ch=1 n=g#2 v=53
64702 Tempo 394736
64740 On ch=1 n=a#2 v=60
64795 On ch=1 n=a#2 v=0
64795 On ch=1 n=g#2 v=0
64800 Tempo 400000
64800 On ch=1 n=d4 v=41
64800 On ch=1 n=f4 v=41
64800 On ch=1 n=a4 v=41
64800 On ch=1 n=a2 v=52
64880 On ch=1 n=a4 v=0
64880 On ch=1 n=f4 v=0
64880 On ch=1 n=d4 v=0
64895 Tempo 405405
64915 On ch=1 n=a2 v=0
64920 On ch=1 n=g#2 v=51
64990 Tempo 410958
65035 On ch=1 n=g#2 v=0
65040 On ch=1 n=a2 v=50
65087 Tempo 416666
65155 On ch=1 n=a2 v=0
65160 On ch=1 n=g#2 v=48
65182 Tempo 422535
65275 On ch=1 n=g#2 v=0
65280 Tempo 428571
65280 On ch=1 n=c4 v=38
65280 On ch=1 n=e4 v=38
65280 On ch=1 n=a4 v=38
65280 On ch=1 n=a2 v=46
65360 On ch=1 n=a4 v=0
65360 On ch=1 n=e4 v=0
65360 On ch=1 n=c4 v=0
65375 Tempo 434782
65395 On ch=1 n=a2 v=0
65400 On ch=1 n=g#2 v=44
65470 Tempo 441176
65515 On ch=1 n=g#2 v=0
65520 On ch=1 n=a2 v=42
65567 Tempo 447761
65635 On ch=1 n=a2 v=0
65640 On ch=1 n=g#2 v=40
65662 Tempo 454545
65700 On ch=1 n=a#2 v=60
65755 On ch=1 n=a#2 v=0
65755 On ch=1 n=g#2 v=0
65760 Tempo 461538
65760 On ch=1 n=d4 v=34
65760 On ch=1 n=f4 v=34
65760 On ch=1 n=a2 v=38
65840 On ch=1 n=f4 v=0
65840 On ch=1 n=d4 v=0
65855 Tempo 468750
65875 On ch=1 n=a2 v=0
65880 On ch=1 n=g#2 v=36
65950 Tempo 476190
65995 On ch=1 n=g#2 v=0
66000 On ch=1 n=a2 v=34
66047 Tempo 483870
66115 On ch=1 n=a2 v=0
66120 On ch=1 n=g#2 v=32
66142 Tempo 491803
66235 On ch=1 n=g#2 v=0
66240 Tempo 500000
66240 On ch=1 n=c4 v=30
66240 On ch=1 n=e4 v=30
66240 On ch=1 n=a4 v=30
66240 On ch=1 n=a2 v=30
66320 On ch=1 n=a2 v=0
66320 On ch=1 n=a4 v=0
66320 On ch=1 n=e4 v=0
66320 On ch=1 n=c4 v=0
68160 On ch=1 n=a4 v=127
68160 On ch=1 n=a5 v=127
68160 On ch=1 n=c3 v=127
68160 On ch=1 n=c4 v=127
68280 On ch=1 n=a5 v=0
68280 On ch=1 n=a4 v=0
68280 On ch=1 n=d#5 v=108
68280 On ch=1 n=f#5 v=108
68360 On ch=1 n=f#5 v=0
68360 On ch=1 n=d#5 v=0
68520 On ch=1 n=a4 v=108
68520 On ch=1 n=a5 v=108
68520 On ch=1 n=d#4 v=92
68520 On ch=1 n=f#4 v=92
68520 On ch=1 n=c5 v=92
68600 On ch=1 n=c5 v=0
68600 On ch=1 n=f#4 v=0
68600 On ch=1 n=d#4 v=0
68600 On ch=1 n=a5 v=0
68600 On ch=1 n=a4 v=0
68640 On ch=1 n=a4 v=108
68640 On ch=1 n=a5 v=108
68640 On ch=1 n=d#4 v=92
68640 On ch=1 n=f#4 v=92
68640 On ch=1 n=c5 v=92
68720 On ch=1 n=c5 v=0
68720 On ch=1 n=f#4 v=0
68720 On ch=1 n=d#4 v=0
68720 On ch=1 n=a5 v=0
68720 On ch=1 n=a4 v=0
68760 On ch=1 n=c5 v=108
68760 On ch=1 n=c6 v=108
68800 On ch=1 n=c4 v=0
68800 On ch=1 n=c3 v=0
68840 On ch=1 n=c6 v=0
68840 On ch=1 n=c5 v=0
68880 On ch=1 n=b4 v=108
68880 On ch=1 n=b5 v=108
68880 On ch=1 n=a2 v=92
68880 On ch=1 n=a3 v=92
68960 On ch=1 n=b5 v=0
68960 On ch=1 n=b4 v=0
69000 On ch=1 n=a4 v=108
69000 On ch=1 n=a5 v=108
69080 On ch=1 n=a5 v=0
69080 On ch=1 n=a4 v=0
69120 On ch=1 n=a3 v=0
69120 On ch=1 n=a2 v=0
69120 On ch=1 n=e5 v=127
69120 On ch=1 n=e6 v=127
69120 On ch=1 n=g#2 v=92
69120 On ch=1 n=g#3 v=92
69240 On ch=1 n=e6 v=0
69240 On ch=1 n=e5 v=0
69240 On ch=1 n=g#5 v=108
69240 On ch=1 n=b5 v=108
69355 On ch=1 n=b5 v=0
69355 On ch=1 n=g#5 v=0
69360 On ch=1 n=g#3 v=0
69360 On ch=1 n=g#2 v=0
69360 On ch=1 n=b2 v=92
69360 On ch=1 n=b3 v=92
69480 On ch=1 n=e5 v=108
69480 On ch=1 n=e6 v=108
69560 On ch=1 n=e6 v=0
69560 On ch=1 n=e5 v=0
69600 On ch=1 n=b3 v=0
69600 On ch=1 n=b2 v=0
69600 On ch=1 n=e5 v=108
69600 On ch=1 n=e6 v=108
69600 On ch=1 n=e3 v=92
69600 On ch=1 n=g#3 v=92
69600 On ch=1 n=e4 v=92
69680 On ch=1 n=e6 v=0
69680 On ch=1 n=e5 v=0
69720 On ch=1 n=g5 v=108
69720 On ch=1 n=g6 v=108
69800 On ch=1 n=g6 v=0
69800 On ch=1 n=g5 v=0
69840 On ch=1 n=f5 v=108
69840 On ch=1 n=f6 v=108
69920 On ch=1 n=f6 v=0
69920 On ch=1 n=f5 v=0
69960 On ch=1 n=e5 v=108
69960 On ch=1 n=e6 v=108
70000 On ch=1 n=e4 v=0
70000 On ch=1 n=g#3 v=0
70000 On ch=1 n=e3 v=0
70040 On ch=1 n=e6 v=0
70040 On ch=1 n=e5 v=0
70080 On ch=1 n=a4 v=127
70080 On ch=1 n=a5 v=127
70080 On ch=1 n=c3 v=127
70080 On ch=1 n=c4 v=127
70200 On ch=1 n=a5 v=0
70200 On ch=1 n=a4 v=0
70200 On ch=1 n=d#5 v=108
70200 On ch=1 n=f#5 v=108
70280 On ch=1 n=f#5 v=0
70280 On ch=1 n=d#5 v=0
70440 On ch=1 n=a4 v=108
70440 On ch=1 n=a5 v=108
70440 On ch=1 n=d#4 v=92
70440 On ch=1 n=f#4 v=92
70440 On ch=1 n=c5 v=92
70520 On ch=1 n=c5 v=0
70520 On ch=1 n=f#4 v=0
70520 On ch=1 n=d#4 v=0
70520 On ch=1 n=a5 v=0
70520 On ch=1 n=a4 v=0
70560 On ch=1 n=a4 v=108
70560 On ch=1 n=a5 v=108
70560 On ch=1 n=d#4 v=92
70560 On ch=1 n=f#4 v=92
70560 On ch=1 n=c5 v=92
70640 On ch=1 n=c5 v=0
70640 On ch=1 n=f#4 v=0
70640 On ch=1 n=d#4 v=0
70640 On ch=1 n=a5 v=0
70640 On ch=1 n=a4 v=0
70680 On ch=1 n=c5 v=108
70680 On ch=1 n=c6 v=108
70720 On ch=1 n=c4 v=0
70720 On ch=1 n=c3 v=0
70760 On ch=1 n=c6 v=0
70760 On ch=1 n=c5 v=0
70800 On ch=1 n=b4 v=108
70800 On ch=1 n=b5 v=108
70800 On ch=1 n=a2 v=92
70800 On ch=1 n=a3 v=92
70880 On ch=1 n=b5 v=0
70880 On ch=1 n=b4 v=0
70920 On ch=1 n=a4 v=108
70920 On ch=1 n=a5 v=108
71000 On ch=1 n=a5 v=0
71000 On ch=1 n=a4 v=0
71040 On ch=1 n=a3 v=0
71040 On ch=1 n=a2 v=0
71040 On ch=1 n=g#4 v=108
71040 On ch=1 n=g#5 v=108
71040 On ch=1 n=b2 v=92
71040 On ch=1 n=b3 v=92
71160 On ch=1 n=g#5 v=0
71160 On ch=1 n=g#4 v=0
71160 On ch=1 n=b4 v=108
71240 On ch=1 n=b4 v=0
71280 On ch=1 n=b3 v=0
71280 On ch=1 n=b2 v=0
71280 On ch=1 n=d#3 v=92
71280 On ch=1 n=d#4 v=92
71400 On ch=1 n=d#5 v=108
71515 On ch=1 n=d#5 v=0
71520 On ch=1 n=d#4 v=0
71520 On ch=1 n=d#3 v=0
71520 On ch=1 n=g#4 v=127
71520 On ch=1 n=b4 v=127
71520 On ch=1 n=f5 v=127
71520 On ch=1 n=f3 v=127
71520 On ch=1 n=f4 v=127
71760 On ch=1 n=f4 v=0
71760 On ch=1 n=f3 v=0
71760 On ch=1 n=f5 v=0
71760 On ch=1 n=b4 v=0
71760 On ch=1 n=g#4 v=0
71760 On ch=1 n=e5 v=108
71760 On ch=1 n=e3 v=92
71760 On ch=1 n=e4 v=92
71995 On ch=1 n=e4 v=0
71995 On ch=1 n=e3 v=0
71995 On ch=1 n=e5 v=0
72000 On ch=1 n=a5 v=127
72000 On ch=1 n=a6 v=127
72000 On ch=1 n=c3 v=127
72000 On ch=1 n=c4 v=127
72120 On ch=1 n=a6 v=0
72120 On ch=1 n=a5 v=0
72120 On ch=1 n=d#6 v=108
72120 On ch=1 n=f#6 v=108
72200 On ch=1 n=f#6 v=0
72200 On ch=1 n=d#6 v=0
72360 On ch=1 n=a5 v=108
72360 On ch=1 n=a6 v=108
72360 On ch=1 n=d#4 v=92
72360 On ch=1 n=f#4 v=92
72360 On ch=1 n=c5 v=92
72440 On ch=1 n=c5 v=0
72440 On ch=1 n=f#4 v=0
72440 On ch=1 n=d#4 v=0
72440 On ch=1 n=a6 v=0
72440 On ch=1 n=a5 v=0
72480 On ch=1 n=a5 v=108
72480 On ch=1 n=a6 v=108
72480 On ch=1 n=d#4 v=92
72480 On ch=1 n=f#4 v=92
72480 On ch=1 n=c5 v=92
72560 On ch=1 n=c5 v=0
72560 On ch=1 n=f#4 v=0
72560 On ch=1 n=d#4 v=0
72560 On ch=1 n=a6 v=0
72560 On ch=1 n=a5 v=0
72600 On ch=1 n=c6 v=108
72600 On ch=1 n=c7 v=108
72640 On ch=1 n=c4 v=0
72640 On ch=1 n=c3 v=0
72680 On ch=1 n=c7 v=0
72680 On ch=1 n=c6 v=0
72720 On ch=1 n=b5 v=108
72720 On ch=1 n=b6 v=108
72720 On ch=1 n=a2 v=92
72720 On ch=1 n=a3 v=92
72800 On ch=1 n=b6 v=0
72800 On ch=1 n=b5 v=0
72840 On ch=1 n=a5 v=108
72840 On ch=1 n=a6 v=108
72920 On ch=1 n=a6 v=0
72920 On ch=1 n=a5 v=0
72960 On ch=1 n=a3 v=0
72960 On ch=1 n=a2 v=0
72960 On ch=1 n=e6 v=127
72960 On ch=1 n=e7 v=127
72960 On ch=1 n=g#2 v=92
72960 On ch=1 n=g#3 v=92
73080 On ch=1 n=e7 v=0
73080 On ch=1 n=e6 v=0
73080 On ch=1 n=g#6 v=108
73080 On ch=1 n=b6 v=108
73195 On ch=1 n=b6 v=0
73195 On ch=1 n=g#6 v=0
73200 On ch=1 n=g#3 v=0
73200 On ch=1 n=g#2 v=0
73200 On ch=1 n=b2 v=92
73200 On ch=1 n=b3 v=92
73320 On ch=1 n=e6 v=108
73320 On ch=1 n=e7 v=108
73400 On ch=1 n=e7 v=0
73400 On ch=1 n=e6 v=0
73440 On ch=1 n=b3 v=0
73440 On ch=1 n=b2 v=0
73440 On ch=1 n=e7 v=108
73440 On ch=1 n=e6 v=108
73440 On ch=1 n=e3 v=92
73440 On ch=1 n=g#3 v=92
73440 On ch=1 n=e4 v=92
73520 On ch=1 n=e6 v=0
73520 On ch=1 n=e7 v=0
73560 On ch=1 n=g7 v=108
73560 On ch=1 n=g6 v=108
73640 On ch=1 n=g6 v=0
73640 On ch=1 n=g7 v=0
73680 On ch=1 n=f6 v=108
73680 On ch=1 n=f7 v=108
73760 On ch=1 n=f7 v=0
73760 On ch=1 n=f6 v=0
73800 On ch=1 n=e6 v=108
73800 On ch=1 n=e7 v=108
73840 On ch=1 n=e4 v=0
73840 On ch=1 n=g#3 v=0
73840 On ch=1 n=e3 v=0
73880 On ch=1 n=e7 v=0
73880 On ch=1 n=e6 v=0
73920 On ch=1 n=a5 v=127
73920 On ch=1 n=a6 v=127
73920 On ch=1 n=c3 v=127
73920 On ch=1 n=c4 v=127
74040 On ch=1 n=a6 v=0
74040 On ch=1 n=a5 v=0
74040 On ch=1 n=d#6 v=108
74040 On ch=1 n=f#6 v=108
74120 On ch=1 n=f#6 v=0
74120 On ch=1 n=d#6 v=0
74280 On ch=1 n=a5 v=108
74280 On ch=1 n=a6 v=108
74280 On ch=1 n=d#4 v=92
74280 On ch=1 n=f#4 v=92
74280 On ch=1 n=c5 v=92
74360 On ch=1 n=c5 v=0
74360 On ch=1 n=f#4 v=0
74360 On ch=1 n=d#4 v=0
74360 On ch=1 n=a6 v=0
74360 On ch=1 n=a5 v=0
74400 On ch=1 n=a5 v=108
74400 On ch=1 n=a6 v=108
74400 On ch=1 n=d#4 v=92
74400 On ch=1 n=f#4 v=92
74400 On ch=1 n=c5 v=92
74480 On ch=1 n=c5 v=0
74480 On ch=1 n=f#4 v=0
74480 On ch=1 n=d#4 v=0
74480 On ch=1 n=a6 v=0
74480 On ch=1 n=a5 v=0
74520 On ch=1 n=c6 v=108
74520 On ch=1 n=c7 v=108
74560 On ch=1 n=c4 v=0
74560 On ch=1 n=c3 v=0
74600 On ch=1 n=c7 v=0
74600 On ch=1 n=c6 v=0
74640 On ch=1 n=b5 v=108
74640 On ch=1 n=b6 v=108
74640 On ch=1 n=a2 v=92
74640 On ch=1 n=a3 v=92
74720 On ch=1 n=b6 v=0
74720 On ch=1 n=b5 v=0
74760 On ch=1 n=a5 v=108
74760 On ch=1 n=a6 v=108
74840 On ch=1 n=a6 v=0
74840 On ch=1 n=a5 v=0
74880 On ch=1 n=a3 v=0
74880 On ch=1 n=a2 v=0
74880 On ch=1 n=g#5 v=108
74880 On ch=1 n=g#6 v=108
74880 On ch=1 n=b2 v=92
74880 On ch=1 n=b3 v=92
75000 On ch=1 n=g#6 v=0
75000 On ch=1 n=g#5 v=0
75000 On ch=1 n=b5 v=108
75000 On ch=1 n=b6 v=108
75080 On ch=1 n=b6 v=0
75080 On ch=1 n=b5 v=0
75120 On ch=1 n=b3 v=0
75120 On ch=1 n=b2 v=0
75120 On ch=1 n=d#3 v=92
75120 On ch=1 n=d#4 v=92
75240 On ch=1 n=d#6 v=108
75240 On ch=1 n=d#7 v=108
75355 On ch=1 n=d#7 v=0
75355 On ch=1 n=d#6 v=0
75360 On ch=1 n=d#4 v=0
75360 On ch=1 n=d#3 v=0
75360 On ch=1 n=f6 v=127
75360 On ch=1 n=f7 v=127
75360 On ch=1 n=f3 v=127
75360 On ch=1 n=f4 v=127
75600 On ch=1 n=f4 v=0
75600 On ch=1 n=f3 v=0
75600 On ch=1 n=f7 v=0
75600 On ch=1 n=f6 v=0
75600 On ch=1 n=e6 v=108
75600 On ch=1 n=e7 v=108
75600 On ch=1 n=e3 v=92
75600 On ch=1 n=e4 v=92
75715 On ch=1 n=e4 v=0
75715 On ch=1 n=e3 v=0
75715 On ch=1 n=e7 v=0
75715 On ch=1 n=e6 v=0
75840 On ch=1 n=g6 v=127
75840 On ch=1 n=a6 v=127
75840 On ch=1 n=g7 v=127
75840 On ch=1 n=a3 v=92
75840 On ch=1 n=e4 v=92
75840 On ch=1 n=c#5 v=92
75960 On ch=1 n=g7 v=0
75960 On ch=1 n=a6 v=0
75960 On ch=1 n=g6 v=0
75960 On ch=1 n=c#7 v=108
75960 On ch=1 n=e7 v=108
76040 On ch=1 n=e7 v=0
76040 On ch=1 n=c#7 v=0
76200 On ch=1 n=a6 v=108
76200 On ch=1 n=a7 v=108
76200 On ch=1 n=c#5 v=92
76200 On ch=1 n=e5 v=92
76200 On ch=1 n=a5 v=92
76240 On ch=1 n=c#5 v=0
76240 On ch=1 n=e4 v=0
76240 On ch=1 n=a3 v=0
76280 On ch=1 n=a5 v=0
76280 On ch=1 n=e5 v=0
76280 On ch=1 n=c#5 v=0
76280 On ch=1 n=a7 v=0
76280 On ch=1 n=a6 v=0
76320 On ch=1 n=a6 v=108
76320 On ch=1 n=a7 v=108
76320 On ch=1 n=c#5 v=92
76320 On ch=1 n=e5 v=92
76320 On ch=1 n=a5 v=92
76400 On ch=1 n=a5 v=0
76400 On ch=1 n=e5 v=0
76400 On ch=1 n=c#5 v=0
76400 On ch=1 n=a7 v=0
76400 On ch=1 n=a6 v=0
76440 On ch=1 n=a#6 v=108
76440 On ch=1 n=a#7 v=108
76520 On ch=1 n=a#7 v=0
76520 On ch=1 n=a#6 v=0
76560 On ch=1 n=a6 v=108
76560 On ch=1 n=a7 v=108
76560 On ch=1 n=c#3 v=92
76560 On ch=1 n=e4 v=92
76640 On ch=1 n=a7 v=0
76640 On ch=1 n=a6 v=0
76680 On ch=1 n=g6 v=108
76680 On ch=1 n=g7 v=108
76760 On ch=1 n=g7 v=0
76760 On ch=1 n=g6 v=0
76800 On ch=1 n=e4 v=0
76800 On ch=1 n=c#3 v=0
76800 On ch=1 n=f6 v=108
76800 On ch=1 n=f7 v=108
76800 On ch=1 n=d3 v=92
76800 On ch=1 n=f4 v=92
76920 On ch=1 n=f7 v=0
76920 On ch=1 n=f6 v=0
76920 On ch=1 n=a6 v=108
76920 On ch=1 n=d7 v=108
77000 On ch=1 n=d7 v=0
77000 On ch=1 n=a6 v=0
77040 On ch=1 n=f4 v=0
77040 On ch=1 n=d3 v=0
77040 On ch=1 n=e3 v=103
77040 On ch=1 n=g4 v=103
77160 On ch=1 n=c#6 v=108
77160 On ch=1 n=c#7 v=108
77240 On ch=1 n=c#7 v=0
77240 On ch=1 n=c#6 v=0
77280 On ch=1 n=g4 v=0
77280 On ch=1 n=e3 v=0
77280 On ch=1 n=d6 v=108
77280 On ch=1 n=d7 v=108
77280 On ch=1 n=f3 v=115
77280 On ch=1 n=g#4 v=115
77360 On ch=1 n=d7 v=0
77360 On ch=1 n=d6 v=0
77400 On ch=1 n=f6 v=108
77400 On ch=1 n=f7 v=108
77480 On ch=1 n=f7 v=0
77480 On ch=1 n=f6 v=0
77520 On ch=1 n=g#4 v=0
77520 On ch=1 n=f3 v=0
77520 On ch=1 n=d#6 v=108
77520 On ch=1 n=d#7 v=108
77520 On ch=1 n=f#3 v=127
77520 On ch=1 n=a4 v=127
77600 On ch=1 n=d#7 v=0
77600 On ch=1 n=d#6 v=0
77640 On ch=1 n=d6 v=108
77640 On ch=1 n=d7 v=108
77720 On ch=1 n=d7 v=0
77720 On ch=1 n=d6 v=0
77755 On ch=1 n=a4 v=0
77755 On ch=1 n=f#3 v=0
77760 On ch=1 n=f6 v=127
77760 On ch=1 n=g6 v=127
77760 On ch=1 n=g7 v=127
77760 On ch=1 n=g3 v=92
77760 On ch=1 n=d4 v=92
77760 On ch=1 n=b4 v=92
77880 On ch=1 n=g7 v=0
77880 On ch=1 n=g6 v=0
77880 On ch=1 n=f6 v=0
77880 On ch=1 n=b6 v=108
77880 On ch=1 n=d7 v=108
77960 On ch=1 n=d7 v=0
77960 On ch=1 n=b6 v=0
78120 On ch=1 n=g6 v=108
78120 On ch=1 n=g7 v=108
78120 On ch=1 n=g6 v=92
78120 On ch=1 n=b6 v=92
78120 On ch=1 n=e7 v=92
78160 On ch=1 n=b4 v=0
78160 On ch=1 n=d4 v=0
78160 On ch=1 n=g3 v=0
78200 On ch=1 n=e7 v=0
78200 On ch=1 n=b6 v=0
78200 On ch=1 n=g6 v=0
78200 On ch=1 n=g7 v=0
78200 On ch=1 n=g6 v=0
78240 On ch=1 n=g6 v=108
78240 On ch=1 n=g7 v=108
78240 On ch=1 n=g6 v=92
78240 On ch=1 n=b6 v=92
78240 On ch=1 n=e7 v=92
78320 On ch=1 n=e7 v=0
78320 On ch=1 n=b6 v=0
78320 On ch=1 n=g6 v=0
78320 On ch=1 n=g7 v=0
78320 On ch=1 n=g6 v=0
78360 On ch=1 n=g#6 v=108
78360 On ch=1 n=g#7 v=108
78440 On ch=1 n=g#7 v=0
78440 On ch=1 n=g#6 v=0
78480 On ch=1 n=g6 v=108
78480 On ch=1 n=g7 v=108
78480 On ch=1 n=b2 v=92
78480 On ch=1 n=d4 v=92
78560 On ch=1 n=g7 v=0
78560 On ch=1 n=g6 v=0
78600 On ch=1 n=f6 v=108
78600 On ch=1 n=f7 v=108
78680 On ch=1 n=f7 v=0
78680 On ch=1 n=f6 v=0
78720 On ch=1 n=d4 v=0
78720 On ch=1 n=b2 v=0
78720 On ch=1 n=e6 v=108
78720 On ch=1 n=e7 v=108
78720 On ch=1 n=c3 v=92
78720 On ch=1 n=e4 v=92
78840 On ch=1 n=e7 v=0
78840 On ch=1 n=e6 v=0
78840 On ch=1 n=g6 v=108
78840 On ch=1 n=c7 v=108
78920 On ch=1 n=c7 v=0
78920 On ch=1 n=g6 v=0
78960 On ch=1 n=e4 v=0
78960 On ch=1 n=c3 v=0
78960 On ch=1 n=d3 v=103
78960 On ch=1 n=f4 v=103
79080 On ch=1 n=b5 v=108
79080 On ch=1 n=b6 v=108
79160 On ch=1 n=b6 v=0
79160 On ch=1 n=b5 v=0
79200 On ch=1 n=f4 v=0
79200 On ch=1 n=d3 v=0
79200 On ch=1 n=c6 v=108
79200 On ch=1 n=c7 v=108
79200 On ch=1 n=d#3 v=115
79200 On ch=1 n=f#4 v=115
79280 On ch=1 n=c7 v=0
79280 On ch=1 n=c6 v=0
79320 On ch=1 n=d#6 v=108
79320 On ch=1 n=d#7 v=108
79400 On ch=1 n=d#7 v=0
79400 On ch=1 n=d#6 v=0
79440 On ch=1 n=f#4 v=0
79440 On ch=1 n=d#3 v=0
79440 On ch=1 n=c#6 v=108
79440 On ch=1 n=c#7 v=108
79440 On ch=1 n=e3 v=127
79440 On ch=1 n=g4 v=127
79520 On ch=1 n=c#7 v=0
79520 On ch=1 n=c#6 v=0
79560 On ch=1 n=c6 v=108
79560 On ch=1 n=c7 v=108
79640 On ch=1 n=c7 v=0
79640 On ch=1 n=c6 v=0
79675 On ch=1 n=g4 v=0
79675 On ch=1 n=e3 v=0
79680 On ch=1 n=f6 v=127
79680 On ch=1 n=f7 v=127
79680 On ch=1 n=f3 v=127
79680 On ch=1 n=b3 v=127
79680 On ch=1 n=d4 v=127
79680 On ch=1 n=g#4 v=127
79760 On ch=1 n=g#4 v=0
79760 On ch=1 n=d4 v=0
79760 On ch=1 n=b3 v=0
79760 On ch=1 n=f3 v=0
79800 On ch=1 n=f7 v=0
79800 On ch=1 n=f6 v=0
79800 On ch=1 n=g#6 v=108
79800 On ch=1 n=b6 v=108
79880 On ch=1 n=b6 v=0
79880 On ch=1 n=g#6 v=0
80040 On ch=1 n=b5 v=108
80040 On ch=1 n=c4 v=92
80040 On ch=1 n=f5 v=92
80040 On ch=1 n=d5 v=127
80155 On ch=1 n=d5 v=0
80155 On ch=1 n=f5 v=0
80155 On ch=1 n=c4 v=0
80155 On ch=1 n=b5 v=0
80160 On ch=1 n=b5 v=108
80160 On ch=1 n=c4 v=92
80160 On ch=1 n=f5 v=127
80160 On ch=1 n=d5 v=127
80280 On ch=1 n=d5 v=0
80280 On ch=1 n=b5 v=0
80280 On ch=1 n=d6 v=108
80280 On ch=1 n=b4 v=127
80400 On ch=1 n=b4 v=0
80400 On ch=1 n=d6 v=0
80400 On ch=1 n=c6 v=108
80400 On ch=1 n=c5 v=127
80520 On ch=1 n=c5 v=0
80520 On ch=1 n=c6 v=0
80520 On ch=1 n=b5 v=108
80520 On ch=1 n=d5 v=127
80560 On ch=1 n=f5 v=0
80560 On ch=1 n=c4 v=0
80635 On ch=1 n=d5 v=0
80635 On ch=1 n=b5 v=0
80640 Tempo 500000
80640 On ch=1 n=e6 v=127
80640 On ch=1 n=e7 v=127
80640 On ch=1 n=e3 v=127
80640 On ch=1 n=c4 v=127
80640 On ch=1 n=a4 v=127
80700 Tempo 508474
80720 On ch=1 n=a4 v=0
80720 On ch=1 n=c4 v=0
80720 On ch=1 n=e3 v=0
80760 On ch=1 n=e7 v=0
80760 On ch=1 n=e6 v=0
80760 Tempo 517241
80760 On ch=1 n=a6 v=108
80760 On ch=1 n=c7 v=108
80820 Tempo 526315
80840 On ch=1 n=c7 v=0
80840 On ch=1 n=a6 v=0
80880 Tempo 535714
80940 Tempo 545454
81000 Tempo 555555
81000 On ch=1 n=a5 v=108
81000 On ch=1 n=g3 v=92
81000 On ch=1 n=c5 v=92
81060 Tempo 566037
81115 On ch=1 n=c5 v=0
81115 On ch=1 n=g3 v=0
81115 On ch=1 n=a5 v=0
81120 Tempo 576923
81120 On ch=1 n=a5 v=108
81120 On ch=1 n=g3 v=92
81120 On ch=1 n=c5 v=127
81180 Tempo 588235
81240 On ch=1 n=c5 v=0
81240 On ch=1 n=a5 v=0
81240 Tempo 600000
81240 On ch=1 n=c6 v=108
81240 On ch=1 n=a4 v=92
81300 Tempo 612244
81360 On ch=1 n=a4 v=0
81360 On ch=1 n=c6 v=0
81360 Tempo 625000
81360 On ch=1 n=b5 v=108
81360 On ch=1 n=b4 v=92
81420 Tempo 638297
81480 On ch=1 n=b4 v=0
81480 On ch=1 n=b5 v=0
81480 Tempo 652173
81480 On ch=1 n=a5 v=108
81480 On ch=1 n=c5 v=92
81520 On ch=1 n=g3 v=0
81540 Tempo 666666
81595 On ch=1 n=c5 v=0
81595 On ch=1 n=a5 v=0
81600 Tempo 681818
81600 On ch=1 n=d5 v=127
81600 On ch=1 n=d6 v=127
81600 On ch=1 n=b3 v=92
81600 On ch=1 n=f4 v=92
81600 On ch=1 n=a4 v=92
81660 Tempo 697674
81715 On ch=1 n=d6 v=0
81715 On ch=1 n=d5 v=0
81720 Tempo 714285
81720 On ch=1 n=f5 v=108
81720 On ch=1 n=f6 v=108
81780 Tempo 731707
81835 On ch=1 n=f6 v=0
81835 On ch=1 n=f5 v=0
81840 Tempo 750000
81840 On ch=1 n=e5 v=108
81840 On ch=1 n=e6 v=108
81900 Tempo 769230
81955 On ch=1 n=e6 v=0
81955 On ch=1 n=e5 v=0
81960 Tempo 789473
81960 On ch=1 n=d#5 v=108
81960 On ch=1 n=d#6 v=108
82000 On ch=1 n=a4 v=0
82000 On ch=1 n=f4 v=0
82000 On ch=1 n=b3 v=0
82020 Tempo 810810
82075 On ch=1 n=d#6 v=0
82075 On ch=1 n=d#5 v=0
82080 Tempo 833333
82080 On ch=1 n=e5 v=108
82080 On ch=1 n=e6 v=108
82080 On ch=1 n=e3 v=92
82080 On ch=1 n=g#4 v=92
82140 Tempo 660534
82195 On ch=1 n=e6 v=0
82195 On ch=1 n=e5 v=0
82200 Tempo 685744
82200 On ch=1 n=b4 v=108
82200 On ch=1 n=b5 v=108
82260 Tempo 712482
82315 On ch=1 n=b5 v=0
82315 On ch=1 n=b4 v=0
82320 Tempo 937500
82320 On ch=1 n=d5 v=108
82320 On ch=1 n=d6 v=108
82380 Tempo 967741
82435 On ch=1 n=d6 v=0
82435 On ch=1 n=d5 v=0
82440 Tempo 1000000
82440 On ch=1 n=c5 v=108
82440 On ch=1 n=c6 v=108
82480 On ch=1 n=g#4 v=0
82480 On ch=1 n=e3 v=0
82500 Tempo 1034482
82555 On ch=1 n=c6 v=0
82555 On ch=1 n=c5 v=0
82560 Tempo 1071428
82560 Par ch=1 c=64 v=127
82560 On ch=1 n=b4 v=92
82560 On ch=1 n=b5 v=92
82560 On ch=1 n=g3 v=75
82560 On ch=1 n=e4 v=75
82560 On ch=1 n=a3 v=75
82560 On ch=1 n=d4 v=75
82560 On ch=1 n=g#4 v=75
82620 Tempo 1111111
82675 On ch=1 n=g3 v=0
82680 On ch=1 n=e4 v=0
82680 Tempo 1153846
82680 On ch=1 n=b3 v=75
82680 On ch=1 n=g4 v=75
82740 Tempo 1200000
82795 On ch=1 n=b3 v=0
82800 On ch=1 n=g4 v=0
82800 Tempo 1250000
82800 On ch=1 n=a3 v=75
82800 On ch=1 n=f4 v=75
82860 Tempo 1304347
82915 On ch=1 n=a3 v=0
82920 On ch=1 n=f4 v=0
82920 Tempo 1363636
82920 On ch=1 n=g3 v=75
82920 On ch=1 n=e4 v=75
82960 On ch=1 n=a3 v=0
82960 On ch=1 n=g#4 v=0
82960 On ch=1 n=d4 v=0
82980 Tempo 1428571
83040 On ch=1 n=b5 v=0
83040 On ch=1 n=b4 v=0
83040 Tempo 1500000
83040 Tempo 3000000
83040 Par ch=1 c=64 v=0
83040 On ch=1 n=a4 v=92
83040 On ch=1 n=a5 v=92
83040 On ch=1 n=a3 v=60
83040 On ch=1 n=c4 v=60
83275 On ch=1 n=c4 v=0
83275 On ch=1 n=a3 v=0
83275 On ch=1 n=a5 v=0
83275 On ch=1 n=a4 v=0
83275 On ch=1 n=e4 v=0
83275 On ch=1 n=g3 v=0
83520 Tempo 500000
84420 On ch=1 n=a4 v=45
84450 On ch=1 n=c5 v=45
84480 On ch=1 n=a6 v=60
84480 On ch=1 n=a5 v=45
84560 On ch=1 n=a5 v=0
84560 On ch=1 n=c5 v=0
84560 On ch=1 n=a4 v=0
84600 On ch=1 n=a7 v=60
84680 On ch=1 n=a7 v=0
84680 On ch=1 n=a6 v=0
84720 On ch=1 n=g#6 v=60
84720 On ch=1 n=g#7 v=60
84720 On ch=1 n=e5 v=45
84720 On ch=1 n=c6 v=45
84800 On ch=1 n=c6 v=0
84800 On ch=1 n=e5 v=0
84800 On ch=1 n=g#7 v=0
84800 On ch=1 n=g#6 v=0
84840 On ch=1 n=g6 v=60
84840 On ch=1 n=g7 v=60
84920 On ch=1 n=g7 v=0
84920 On ch=1 n=g6 v=0
84960 On ch=1 n=f#6 v=60
84960 On ch=1 n=f#7 v=60
84960 On ch=1 n=d5 v=45
84960 On ch=1 n=b5 v=45
85040 On ch=1 n=b5 v=0
85040 On ch=1 n=d5 v=0
85040 On ch=1 n=f#7 v=0
85040 On ch=1 n=f#6 v=0
85080 On ch=1 n=f6 v=60
85080 On ch=1 n=f7 v=60
85160 On ch=1 n=f7 v=0
85160 On ch=1 n=f6 v=0
85200 On ch=1 n=e6 v=60
85200 On ch=1 n=e7 v=60
85200 On ch=1 n=c5 v=45
85200 On ch=1 n=a5 v=45
85280 On ch=1 n=a5 v=0
85280 On ch=1 n=c5 v=0
85280 On ch=1 n=e7 v=0
85280 On ch=1 n=e6 v=0
85320 On ch=1 n=d#6 v=60
85320 On ch=1 n=d#7 v=60
85380 On ch=1 n=e4 v=45
85400 On ch=1 n=d#7 v=0
85400 On ch=1 n=d#6 v=0
85410 On ch=1 n=g#4 v=45
85440 On ch=1 n=f6 v=60
85440 On ch=1 n=f7 v=60
85440 On ch=1 n=e5 v=45
85520 On ch=1 n=e5 v=0
85520 On ch=1 n=f7 v=0
85520 On ch=1 n=f6 v=0
85520 On ch=1 n=g#4 v=0
85520 On ch=1 n=e4 v=0
85560 On ch=1 n=e6 v=60
85560 On ch=1 n=e7 v=60
85640 On ch=1 n=e7 v=0
85640 On ch=1 n=e6 v=0
85680 On ch=1 n=d#6 v=60
85680 On ch=1 n=d#7 v=60
85680 On ch=1 n=b4 v=45
85680 On ch=1 n=g5 v=45
85760 On ch=1 n=g5 v=0
85760 On ch=1 n=b4 v=0
85760 On ch=1 n=d#7 v=0
85760 On ch=1 n=d#6 v=0
85800 On ch=1 n=f6 v=60
85800 On ch=1 n=f7 v=60
85880 On ch=1 n=f7 v=0
85880 On ch=1 n=f6 v=0
85920 On ch=1 n=e7 v=60
85920 On ch=1 n=g4 v=45
85920 On ch=1 n=a4 v=45
85920 On ch=1 n=f5 v=45
86000 On ch=1 n=f5 v=0
86000 On ch=1 n=a4 v=0
86040 On ch=1 n=e7 v=0
86040 On ch=1 n=b6 v=60
86120 On ch=1 n=b6 v=0
86155 On ch=1 n=g4 v=0
86160 On ch=1 n=g#6 v=60
86160 On ch=1 n=d4 v=45
86160 On ch=1 n=g#4 v=45
86160 On ch=1 n=e5 v=45
86240 On ch=1 n=e5 v=0
86240 On ch=1 n=g#4 v=0
86240 On ch=1 n=g#6 v=0
86280 On ch=1 n=e6 v=60
86340 On ch=1 n=a4 v=45
86360 On ch=1 n=e6 v=0
86370 On ch=1 n=c5 v=45
86395 On ch=1 n=d4 v=0
86400 On ch=1 n=a6 v=60
86400 On ch=1 n=a5 v=45
86480 On ch=1 n=a5 v=0
86480 On ch=1 n=c5 v=0
86480 On ch=1 n=a4 v=0
86520 On ch=1 n=a7 v=60
86600 On ch=1 n=a7 v=0
86600 On ch=1 n=a6 v=0
86640 On ch=1 n=g#6 v=60
86640 On ch=1 n=g#7 v=60
86640 On ch=1 n=e5 v=45
86640 On ch=1 n=c6 v=45
86720 On ch=1 n=c6 v=0
86720 On ch=1 n=e5 v=0
86720 On ch=1 n=g#7 v=0
86720 On ch=1 n=g#6 v=0
86760 On ch=1 n=g6 v=60
86760 On ch=1 n=g7 v=60
86840 On ch=1 n=g7 v=0
86840 On ch=1 n=g6 v=0
86880 On ch=1 n=f#6 v=60
86880 On ch=1 n=f#7 v=60
86880 On ch=1 n=d5 v=45
86880 On ch=1 n=b5 v=45
86960 On ch=1 n=b5 v=0
86960 On ch=1 n=d5 v=0
86960 On ch=1 n=f#7 v=0
86960 On ch=1 n=f#6 v=0
87000 On ch=1 n=f6 v=60
87000 On ch=1 n=f7 v=60
87080 On ch=1 n=f7 v=0
87080 On ch=1 n=f6 v=0
87120 On ch=1 n=e6 v=60
87120 On ch=1 n=e7 v=60
87120 On ch=1 n=c5 v=45
87120 On ch=1 n=a5 v=45
87200 On ch=1 n=a5 v=0
87200 On ch=1 n=c5 v=0
87200 On ch=1 n=e7 v=0
87200 On ch=1 n=e6 v=0
87240 On ch=1 n=d#6 v=60
87240 On ch=1 n=d#7 v=60
87320 On ch=1 n=d#7 v=0
87320 On ch=1 n=d#6 v=0
87360 On ch=1 n=f6 v=60
87360 On ch=1 n=f7 v=60
87360 On ch=1 n=a4 v=45
87360 On ch=1 n=c5 v=45
87360 On ch=1 n=f5 v=45
87440 On ch=1 n=f5 v=0
87440 On ch=1 n=c5 v=0
87440 On ch=1 n=a4 v=0
87440 On ch=1 n=f7 v=0
87440 On ch=1 n=f6 v=0
87480 On ch=1 n=e6 v=60
87480 On ch=1 n=e7 v=60
87560 On ch=1 n=e7 v=0
87560 On ch=1 n=e6 v=0
87600 On ch=1 n=d#6 v=60
87600 On ch=1 n=d#7 v=60
87680 On ch=1 n=d#7 v=0
87680 On ch=1 n=d#6 v=0
87720 On ch=1 n=f6 v=60
87720 On ch=1 n=f7 v=60
87800 On ch=1 n=f7 v=0
87800 On ch=1 n=f6 v=0
87840 On ch=1 n=e6 v=60
87840 On ch=1 n=e7 v=60
87840 On ch=1 n=e4 v=45
87840 On ch=1 n=g#4 v=45
87840 On ch=1 n=e5 v=45
87920 On ch=1 n=e5 v=0
87920 On ch=1 n=g#4 v=0
87920 On ch=1 n=e4 v=0
87920 On ch=1 n=e7 v=0
87920 On ch=1 n=e6 v=0
88080 On ch=1 n=e6 v=84
88160 On ch=1 n=e6 v=0
88260 On ch=1 n=a4 v=45
88290 On ch=1 n=c5 v=45
88320 On ch=1 n=a6 v=60
88320 On ch=1 n=a5 v=45
88400 On ch=1 n=a5 v=0
88400 On ch=1 n=c5 v=0
88400 On ch=1 n=a4 v=0
88440 On ch=1 n=a7 v=60
88520 On ch=1 n=a7 v=0
88520 On ch=1 n=a6 v=0
88560 On ch=1 n=g#6 v=60
88560 On ch=1 n=g#7 v=60
88560 On ch=1 n=e5 v=45
88560 On ch=1 n=c6 v=45
88640 On ch=1 n=c6 v=0
88640 On ch=1 n=e5 v=0
88640 On ch=1 n=g#7 v=0
88640 On ch=1 n=g#6 v=0
88680 On ch=1 n=g6 v=60
88680 On ch=1 n=g7 v=60
88760 On ch=1 n=g7 v=0
88760 On ch=1 n=g6 v=0
88800 On ch=1 n=f#6 v=60
88800 On ch=1 n=f#7 v=60
88800 On ch=1 n=d5 v=45
88800 On ch=1 n=b5 v=45
88880 On ch=1 n=b5 v=0
88880 On ch=1 n=d5 v=0
88880 On ch=1 n=f#7 v=0
88880 On ch=1 n=f#6 v=0
88920 On ch=1 n=f6 v=60
88920 On ch=1 n=f7 v=60
89000 On ch=1 n=f7 v=0
89000 On ch=1 n=f6 v=0
89040 On ch=1 n=e6 v=60
89040 On ch=1 n=e7 v=60
89040 On ch=1 n=c5 v=45
89040 On ch=1 n=a5 v=45
89120 On ch=1 n=a5 v=0
89120 On ch=1 n=c5 v=0
89120 On ch=1 n=e7 v=0
89120 On ch=1 n=e6 v=0
89160 On ch=1 n=d#6 v=60
89160 On ch=1 n=d#7 v=60
89220 On ch=1 n=e4 v=45
89240 On ch=1 n=d#7 v=0
89240 On ch=1 n=d#6 v=0
89250 On ch=1 n=g#4 v=45
89280 On ch=1 n=f6 v=60
89280 On ch=1 n=f7 v=60
89280 On ch=1 n=e5 v=45
89360 On ch=1 n=e5 v=0
89360 On ch=1 n=f7 v=0
89360 On ch=1 n=f6 v=0
89360 On ch=1 n=g#4 v=0
89360 On ch=1 n=e4 v=0
89400 On ch=1 n=e6 v=60
89400 On ch=1 n=e7 v=60
89480 On ch=1 n=e7 v=0
89480 On ch=1 n=e6 v=0
89520 On ch=1 n=d#6 v=60
89520 On ch=1 n=d#7 v=60
89520 On ch=1 n=b4 v=45
89520 On ch=1 n=g5 v=45
89600 On ch=1 n=g5 v=0
89600 On ch=1 n=b4 v=0
89600 On ch=1 n=d#7 v=0
89600 On ch=1 n=d#6 v=0
89640 On ch=1 n=f6 v=60
89640 On ch=1 n=f7 v=60
89720 On ch=1 n=f7 v=0
89720 On ch=1 n=f6 v=0
89760 On ch=1 n=e7 v=60
89760 On ch=1 n=g4 v=45
89760 On ch=1 n=a4 v=45
89760 On ch=1 n=f5 v=45
89840 On ch=1 n=f5 v=0
89840 On ch=1 n=a4 v=0
89880 On ch=1 n=e7 v=0
89880 On ch=1 n=b6 v=60
89960 On ch=1 n=b6 v=0
89995 On ch=1 n=g4 v=0
90000 On ch=1 n=g#6 v=60
90000 On ch=1 n=d4 v=45
90000 On ch=1 n=g#4 v=45
90000 On ch=1 n=e5 v=45
90080 On ch=1 n=e5 v=0
90080 On ch=1 n=g#4 v=0
90080 On ch=1 n=g#6 v=0
90120 On ch=1 n=e6 v=60
90180 On ch=1 n=a4 v=45
90200 On ch=1 n=e6 v=0
90210 On ch=1 n=c5 v=45
90235 On ch=1 n=d4 v=0
90240 On ch=1 n=a6 v=60
90240 On ch=1 n=a5 v=45
90320 On ch=1 n=a5 v=0
90320 On ch=1 n=c5 v=0
90320 On ch=1 n=a4 v=0
90360 On ch=1 n=a7 v=60
90440 On ch=1 n=a7 v=0
90440 On ch=1 n=a6 v=0
90480 On ch=1 n=g#6 v=60
90480 On ch=1 n=g#7 v=60
90480 On ch=1 n=e5 v=45
90480 On ch=1 n=c6 v=45
90560 On ch=1 n=c6 v=0
90560 On ch=1 n=e5 v=0
90560 On ch=1 n=g#7 v=0
90560 On ch=1 n=g#6 v=0
90600 On ch=1 n=g6 v=60
90600 On ch=1 n=g7 v=60
90680 On ch=1 n=g7 v=0
90680 On ch=1 n=g6 v=0
90720 On ch=1 n=f#6 v=60
90720 On ch=1 n=f#7 v=60
90720 On ch=1 n=d5 v=45
90720 On ch=1 n=b5 v=45
90800 On ch=1 n=b5 v=0
90800 On ch=1 n=d5 v=0
90800 On ch=1 n=f#7 v=0
90800 On ch=1 n=f#6 v=0
90840 On ch=1 n=f6 v=60
90840 On ch=1 n=f7 v=60
90920 On ch=1 n=f7 v=0
90920 On ch=1 n=f6 v=0
90960 On ch=1 n=e6 v=60
90960 On ch=1 n=e7 v=60
90960 On ch=1 n=c5 v=45
90960 On ch=1 n=a5 v=45
91040 On ch=1 n=a5 v=0
91040 On ch=1 n=c5 v=0
91040 On ch=1 n=e7 v=0
91040 On ch=1 n=e6 v=0
91080 On ch=1 n=d#6 v=60
91080 On ch=1 n=d#7 v=60
91160 On ch=1 n=d#7 v=0
91160 On ch=1 n=d#6 v=0
91200 On ch=1 n=f6 v=60
91200 On ch=1 n=f7 v=60
91200 On ch=1 n=a4 v=45
91200 On ch=1 n=c5 v=45
91200 On ch=1 n=f5 v=45
91280 On ch=1 n=f5 v=0
91280 On ch=1 n=c5 v=0
91280 On ch=1 n=a4 v=0
91280 On ch=1 n=f7 v=0
91280 On ch=1 n=f6 v=0
91320 On ch=1 n=e6 v=60
91320 On ch=1 n=e7 v=60
91400 On ch=1 n=e7 v=0
91400 On ch=1 n=e6 v=0
91440 On ch=1 n=d#6 v=60
91440 On ch=1 n=d#7 v=60
91520 On ch=1 n=d#7 v=0
91520 On ch=1 n=d#6 v=0
91560 On ch=1 n=f6 v=60
91560 On ch=1 n=f7 v=60
91640 On ch=1 n=f7 v=0
91640 On ch=1 n=f6 v=0
91680 On ch=1 n=e6 v=60
91680 On ch=1 n=e7 v=60
91680 On ch=1 n=e4 v=45
91680 On ch=1 n=g#4 v=45
91680 On ch=1 n=e5 v=45
91760 On ch=1 n=e5 v=0
91760 On ch=1 n=g#4 v=0
91760 On ch=1 n=e4 v=0
91760 On ch=1 n=e7 v=0
91760 On ch=1 n=e6 v=0
91920 On ch=1 n=e6 v=84
92000 On ch=1 n=e6 v=0
92160 On ch=1 n=a6 v=60
92160 On ch=1 n=c#5 v=45
92160 On ch=1 n=a5 v=45
92160 On ch=1 n=a4 v=45
92240 On ch=1 n=a5 v=0
92240 On ch=1 n=c#5 v=0
92280 On ch=1 n=a7 v=62
92360 On ch=1 n=a7 v=0
92360 On ch=1 n=a6 v=0
92395 On ch=1 n=a4 v=0
92400 On ch=1 n=g#6 v=64
92400 On ch=1 n=g#7 v=64
92400 On ch=1 n=d5 v=49
92400 On ch=1 n=a#5 v=49
92480 On ch=1 n=a#5 v=0
92480 On ch=1 n=d5 v=0
92480 On ch=1 n=g#7 v=0
92480 On ch=1 n=g#6 v=0
92520 On ch=1 n=g6 v=66
92520 On ch=1 n=g7 v=66
92600 On ch=1 n=g7 v=0
92600 On ch=1 n=g6 v=0
92640 On ch=1 n=f#6 v=68
92640 On ch=1 n=f#7 v=68
92640 On ch=1 n=c#5 v=53
92640 On ch=1 n=a5 v=53
92720 On ch=1 n=a5 v=0
92720 On ch=1 n=c#5 v=0
92720 On ch=1 n=f#7 v=0
92720 On ch=1 n=f#6 v=0
92760 On ch=1 n=f6 v=70
92760 On ch=1 n=f7 v=70
92840 On ch=1 n=f7 v=0
92840 On ch=1 n=f6 v=0
92880 On ch=1 n=e6 v=72
92880 On ch=1 n=e7 v=72
92880 On ch=1 n=a#4 v=57
92880 On ch=1 n=g5 v=57
92960 On ch=1 n=g5 v=0
92960 On ch=1 n=a#4 v=0
92960 On ch=1 n=e7 v=0
92960 On ch=1 n=e6 v=0
93000 On ch=1 n=d6 v=74
93000 On ch=1 n=d7 v=74
93080 On ch=1 n=d7 v=0
93080 On ch=1 n=d6 v=0
93120 On ch=1 n=c#7 v=76
93120 On ch=1 n=f4 v=60
93120 On ch=1 n=a4 v=61
93120 On ch=1 n=f5 v=61
93200 On ch=1 n=f5 v=0
93200 On ch=1 n=a4 v=0
93240 On ch=1 n=c#7 v=0
93240 On ch=1 n=e7 v=78
93320 On ch=1 n=e7 v=0
93355 On ch=1 n=f4 v=0
93360 On ch=1 n=a6 v=80
93360 On ch=1 n=f4 v=60
93360 On ch=1 n=g4 v=65
93360 On ch=1 n=e5 v=65
93440 On ch=1 n=e5 v=0
93440 On ch=1 n=g4 v=0
93440 On ch=1 n=a6 v=0
93480 On ch=1 n=c#7 v=82
93560 On ch=1 n=c#7 v=0
93595 On ch=1 n=f4 v=0
93600 On ch=1 n=d7 v=84
93600 On ch=1 n=f4 v=67
93600 On ch=1 n=f4 v=69
93600 On ch=1 n=d5 v=69
93680 On ch=1 n=d5 v=0
93680 On ch=1 n=f4 v=0
93720 On ch=1 n=d7 v=0
93720 On ch=1 n=a6 v=86
93800 On ch=1 n=a6 v=0
93835 On ch=1 n=f4 v=0
93840 On ch=1 n=f6 v=89
93840 On ch=1 n=c4 v=75
93840 On ch=1 n=d4 v=75
93840 On ch=1 n=f5 v=75
93920 On ch=1 n=f5 v=0
93920 On ch=1 n=d4 v=0
93920 On ch=1 n=f6 v=0
93960 On ch=1 n=d6 v=92
94040 On ch=1 n=d6 v=0
94075 On ch=1 n=c4 v=0
94080 On ch=1 n=g6 v=60
94080 On ch=1 n=b4 v=45
94080 On ch=1 n=g5 v=45
94080 On ch=1 n=g4 v=45
94160 On ch=1 n=g5 v=0
94160 On ch=1 n=b4 v=0
94200 On ch=1 n=g7 v=60
94280 On ch=1 n=g7 v=0
94280 On ch=1 n=g6 v=0
94315 On ch=1 n=g4 v=0
94320 On ch=1 n=f#6 v=62
94320 On ch=1 n=f#7 v=62
94320 On ch=1 n=c5 v=47
94320 On ch=1 n=g#5 v=47
94400 On ch=1 n=g#5 v=0
94400 On ch=1 n=c5 v=0
94400 On ch=1 n=f#7 v=0
94400 On ch=1 n=f#6 v=0
94440 On ch=1 n=f6 v=64
94440 On ch=1 n=f7 v=64
94520 On ch=1 n=f7 v=0
94520 On ch=1 n=f6 v=0
94560 On ch=1 n=e6 v=66
94560 On ch=1 n=e7 v=66
94560 On ch=1 n=b4 v=51
94560 On ch=1 n=g5 v=51
94640 On ch=1 n=g5 v=0
94640 On ch=1 n=b4 v=0
94640 On ch=1 n=e7 v=0
94640 On ch=1 n=e6 v=0
94680 On ch=1 n=d#6 v=68
94680 On ch=1 n=d#7 v=68
94760 On ch=1 n=d#7 v=0
94760 On ch=1 n=d#6 v=0
94800 On ch=1 n=d6 v=70
94800 On ch=1 n=d7 v=70
94800 On ch=1 n=g#4 v=55
94800 On ch=1 n=f5 v=55
94880 On ch=1 n=f5 v=0
94880 On ch=1 n=g#4 v=0
94880 On ch=1 n=d7 v=0
94880 On ch=1 n=d6 v=0
94920 On ch=1 n=c6 v=72
94920 On ch=1 n=c7 v=72
95000 On ch=1 n=c7 v=0
95000 On ch=1 n=c6 v=0
95040 On ch=1 n=b6 v=74
95040 On ch=1 n=d4 v=60
95040 On ch=1 n=g4 v=59
95040 On ch=1 n=e5 v=59
95120 On ch=1 n=e5 v=0
95120 On ch=1 n=g4 v=0
95160 On ch=1 n=b6 v=0
95160 On ch=1 n=d7 v=76
95240 On ch=1 n=d7 v=0
95275 On ch=1 n=d4 v=0
95280 On ch=1 n=g6 v=78
95280 On ch=1 n=d4 v=60
95280 On ch=1 n=f4 v=63
95280 On ch=1 n=d5 v=63
95360 On ch=1 n=d5 v=0
95360 On ch=1 n=f4 v=0
95360 On ch=1 n=g6 v=0
95400 On ch=1 n=b6 v=80
95480 On ch=1 n=b6 v=0
95515 On ch=1 n=d4 v=0
95520 On ch=1 n=c7 v=83
95520 On ch=1 n=e4 v=67
95520 On ch=1 n=e4 v=69
95520 On ch=1 n=c5 v=69
95600 On ch=1 n=c5 v=0
95600 On ch=1 n=e4 v=0
95640 On ch=1 n=c7 v=0
95640 On ch=1 n=g6 v=86
95720 On ch=1 n=g6 v=0
95755 On ch=1 n=e4 v=0
95760 On ch=1 n=e6 v=89
95760 On ch=1 n=b3 v=75
95760 On ch=1 n=c4 v=75
95760 On ch=1 n=e5 v=75
95840 On ch=1 n=e5 v=0
95840 On ch=1 n=c4 v=0
95840 On ch=1 n=e6 v=0
95880 On ch=1 n=c6 v=92
95960 On ch=1 n=c6 v=0
95995 On ch=1 n=b3 v=0
96000 On ch=1 n=f6 v=60
96000 On ch=1 n=d4 v=45
96000 On ch=1 n=g#4 v=45
96000 On ch=1 n=b4 v=45
96000 On ch=1 n=f5 v=45
96060 On ch=1 n=f7 v=60
96080 On ch=1 n=f5 v=0
96080 On ch=1 n=b4 v=0
96080 On ch=1 n=g#4 v=0
96080 On ch=1 n=d4 v=0
96100 On ch=1 n=f7 v=0
96100 On ch=1 n=f6 v=0
96240 On ch=1 n=e7 v=60
96240 On ch=1 n=e6 v=60
96320 On ch=1 n=e6 v=0
96320 On ch=1 n=e7 v=0
96360 On ch=1 n=d#6 v=60
96360 On ch=1 n=d#7 v=60
96440 On ch=1 n=d#7 v=0
96440 On ch=1 n=d#6 v=0
96480 On ch=1 n=d6 v=60
96560 On ch=1 n=d6 v=0
96600 On ch=1 n=c#6 v=60
96600 On ch=1 n=c#7 v=60
96680 On ch=1 n=c#7 v=0
96680 On ch=1 n=c#6 v=0
96720 On ch=1 n=c6 v=60
96720 On ch=1 n=c7 v=60
96800 On ch=1 n=c7 v=0
96800 On ch=1 n=c6 v=0
96840 On ch=1 n=b5 v=60
96840 On ch=1 n=b6 v=60
96920 On ch=1 n=b6 v=0
96920 On ch=1 n=b5 v=0
96960 On ch=1 n=e6 v=60
96960 On ch=1 n=c4 v=45
96960 On ch=1 n=a4 v=45
96960 On ch=1 n=e5 v=45
97020 On ch=1 n=e7 v=60
97040 On ch=1 n=e5 v=0
97040 On ch=1 n=a4 v=0
97040 On ch=1 n=c4 v=0
97060 On ch=1 n=e7 v=0
97060 On ch=1 n=e6 v=0
97200 On ch=1 n=d#6 v=60
97200 On ch=1 n=d#7 v=60
97280 On ch=1 n=d#7 v=0
97280 On ch=1 n=d#6 v=0
97320 On ch=1 n=d6 v=60
97320 On ch=1 n=d7 v=60
97400 On ch=1 n=d7 v=0
97400 On ch=1 n=d6 v=0
97440 On ch=1 n=c6 v=60
97520 On ch=1 n=c6 v=0
97560 On ch=1 n=b5 v=60
97560 On ch=1 n=b6 v=60
97640 On ch=1 n=b6 v=0
97640 On ch=1 n=b5 v=0
97680 On ch=1 n=a#5 v=60
97680 On ch=1 n=a#6 v=60
97760 On ch=1 n=a#6 v=0
97760 On ch=1 n=a#5 v=0
97800 On ch=1 n=a5 v=60
97800 On ch=1 n=a6 v=60
97880 On ch=1 n=a6 v=0
97880 On ch=1 n=a5 v=0
97920 Tempo 500000
97920 On ch=1 n=a4 v=45
97920 On ch=1 n=f5 v=45
98000 On ch=1 n=f5 v=0
98000 On ch=1 n=a4 v=0
98015 Tempo 508474
98040 On ch=1 n=e5 v=60
98040 On ch=1 n=e6 v=60
98110 Tempo 517241
98155 On ch=1 n=e6 v=0
98155 On ch=1 n=e5 v=0
98160 On ch=1 n=d#5 v=60
98160 On ch=1 n=d#6 v=60
98207 Tempo 526315
98275 On ch=1 n=d#6 v=0
98275 On ch=1 n=d#5 v=0
98280 On ch=1 n=d5 v=60
98280 On ch=1 n=d6 v=60
98302 Tempo 535714
98395 On ch=1 n=d6 v=0
98395 On ch=1 n=d5 v=0
98400 Tempo 545454
98400 On ch=1 n=g#4 v=45
98400 On ch=1 n=e5 v=45
98480 On ch=1 n=e5 v=0
98480 On ch=1 n=g#4 v=0
98495 Tempo 555555
98520 On ch=1 n=c5 v=60
98520 On ch=1 n=c6 v=60
98590 Tempo 566037
98635 On ch=1 n=c6 v=0
98635 On ch=1 n=c5 v=0
98640 On ch=1 n=b4 v=60
98640 On ch=1 n=b5 v=60
98687 Tempo 576923
98755 On ch=1 n=b5 v=0
98755 On ch=1 n=b4 v=0
98760 On ch=1 n=a#4 v=60
98760 On ch=1 n=a#5 v=60
98782 Tempo 588235
98875 On ch=1 n=a#5 v=0
98875 On ch=1 n=a#4 v=0
98880 Tempo 600000
98880 On ch=1 n=a4 v=63
98975 Tempo 612244
99000 On ch=1 n=a4 v=0
99000 On ch=1 n=f5 v=60
99000 On ch=1 n=f4 v=48
99070 Tempo 625000
99120 On ch=1 n=f4 v=0
99120 On ch=1 n=f5 v=0
99120 On ch=1 n=e5 v=64
99120 On ch=1 n=e4 v=51
99167 Tempo 638297
99240 On ch=1 n=e4 v=0
99240 On ch=1 n=e5 v=0
99240 On ch=1 n=d#5 v=68
99240 On ch=1 n=d#4 v=55
99262 Tempo 652173
99360 On ch=1 n=d#4 v=0
99360 On ch=1 n=d#5 v=0
99360 Tempo 666666
99360 On ch=1 n=d5 v=72
99360 On ch=1 n=d4 v=59
99455 Tempo 681818
99480 On ch=1 n=d4 v=0
99480 On ch=1 n=d5 v=0
99480 On ch=1 n=c5 v=77
99480 On ch=1 n=c4 v=63
99550 Tempo 697674
99600 On ch=1 n=c4 v=0
99600 On ch=1 n=c5 v=0
99600 On ch=1 n=b4 v=82
99600 On ch=1 n=b3 v=67
99647 Tempo 714285
99720 On ch=1 n=b3 v=0
99720 On ch=1 n=b4 v=0
99720 On ch=1 n=a#4 v=87
99720 On ch=1 n=a#3 v=71
99742 Tempo 731707
99835 On ch=1 n=a#3 v=0
99835 On ch=1 n=a#4 v=0
99840 Tempo 750000
99840 Tempo 500000
99840 Par ch=1 c=64 v=127
99840 On ch=1 n=a4 v=92
99840 On ch=1 n=a3 v=75
100075 On ch=1 n=a3 v=0
100075 On ch=1 n=a4 v=0
100080 On ch=1 n=a6 v=75
100080 On ch=1 n=f7 v=75
100200 On ch=1 n=f7 v=0
100200 On ch=1 n=a6 v=0
100200 On ch=1 n=f6 v=75
100200 On ch=1 n=c7 v=75
100320 On ch=1 n=c7 v=0
100320 On ch=1 n=f6 v=0
100320 On ch=1 n=a5 v=75
100320 On ch=1 n=e6 v=75
100440 On ch=1 n=e6 v=0
100440 On ch=1 n=a5 v=0
100440 On ch=1 n=e5 v=75
100440 On ch=1 n=c6 v=75
100555 On ch=1 n=c6 v=0
100555 On ch=1 n=e5 v=0
100560 Par ch=1 c=64 v=0
100560 On ch=1 n=c4 v=75
100560 On ch=1 n=c5 v=75
100640 On ch=1 n=c5 v=0
100640 On ch=1 n=c4 v=0
100640 On ch=1 n=b3 v=75
100640 On ch=1 n=b4 v=75
100720 On ch=1 n=b4 v=0
100720 On ch=1 n=b3 v=0
100720 On ch=1 n=a3 v=75
100720 On ch=1 n=a4 v=75
100800 On ch=1 n=a4 v=0
100800 On ch=1 n=a3 v=0
100800 Par ch=1 c=64 v=127
100800 On ch=1 n=g#3 v=105
100800 On ch=1 n=g#4 v=105
101035 On ch=1 n=g#4 v=0
101035 On ch=1 n=g#3 v=0
101040 On ch=1 n=g#6 v=75
101040 On ch=1 n=d#7 v=75
101160 On ch=1 n=d#7 v=0
101160 On ch=1 n=g#6 v=0
101160 On ch=1 n=d#6 v=75
101160 On ch=1 n=c7 v=75
101280 On ch=1 n=c7 v=0
101280 On ch=1 n=d#6 v=0
101280 On ch=1 n=g#5 v=75
101280 On ch=1 n=e6 v=75
101400 On ch=1 n=e6 v=0
101400 On ch=1 n=g#5 v=0
101400 On ch=1 n=e5 v=75
101400 On ch=1 n=b5 v=75
101515 On ch=1 n=b5 v=0
101515 On ch=1 n=e5 v=0
101520 Par ch=1 c=64 v=0
101520 On ch=1 n=e3 v=75
101520 On ch=1 n=e4 v=75
101600 On ch=1 n=e4 v=0
101600 On ch=1 n=e3 v=0
101600 On ch=1 n=f#3 v=75
101600 On ch=1 n=f#4 v=75
101680 On ch=1 n=f#4 v=0
101680 On ch=1 n=f#3 v=0
101680 On ch=1 n=g#3 v=75
101680 On ch=1 n=g#4 v=75
101760 On ch=1 n=g#4 v=0
101760 On ch=1 n=g#3 v=0
101760 Par ch=1 c=64 v=127
101760 On ch=1 n=a3 v=105
101760 On ch=1 n=a4 v=105
101995 On ch=1 n=a4 v=0
101995 On ch=1 n=a3 v=0
102000 On ch=1 n=a6 v=75
102000 On ch=1 n=f7 v=75
102120 On ch=1 n=f7 v=0
102120 On ch=1 n=a6 v=0
102120 On ch=1 n=f6 v=75
102120 On ch=1 n=c7 v=75
102240 On ch=1 n=c7 v=0
102240 On ch=1 n=f6 v=0
102240 On ch=1 n=a5 v=75
102240 On ch=1 n=e6 v=75
102360 On ch=1 n=e6 v=0
102360 On ch=1 n=a5 v=0
102360 On ch=1 n=e5 v=75
102360 On ch=1 n=c6 v=75
102475 On ch=1 n=c6 v=0
102475 On ch=1 n=e5 v=0
102480 Par ch=1 c=64 v=0
102480 On ch=1 n=c4 v=75
102480 On ch=1 n=c5 v=75
102560 On ch=1 n=c5 v=0
102560 On ch=1 n=c4 v=0
102560 On ch=1 n=b3 v=75
102560 On ch=1 n=b4 v=75
102640 On ch=1 n=b4 v=0
102640 On ch=1 n=b3 v=0
102640 On ch=1 n=a3 v=75
102640 On ch=1 n=a4 v=75
102720 On ch=1 n=a4 v=0
102720 On ch=1 n=a3 v=0
102720 Par ch=1 c=64 v=127
102720 On ch=1 n=g#3 v=105
102720 On ch=1 n=g#4 v=105
102955 On ch=1 n=g#4 v=0
102955 On ch=1 n=g#3 v=0
102960 On ch=1 n=g#6 v=75
102960 On ch=1 n=d#7 v=75
103080 On ch=1 n=d#7 v=0
103080 On ch=1 n=g#6 v=0
103080 On ch=1 n=d#6 v=75
103080 On ch=1 n=c7 v=75
103200 On ch=1 n=c7 v=0
103200 On ch=1 n=d#6 v=0
103200 On ch=1 n=g#5 v=75
103200 On ch=1 n=e6 v=75
103320 On ch=1 n=e6 v=0
103320 On ch=1 n=g#5 v=0
103320 On ch=1 n=e5 v=75
103320 On ch=1 n=b5 v=75
103435 On ch=1 n=b5 v=0
103435 On ch=1 n=e5 v=0
103440 Par ch=1 c=64 v=0
103440 On ch=1 n=e3 v=75
103440 On ch=1 n=e4 v=75
103520 On ch=1 n=e4 v=0
103520 On ch=1 n=e3 v=0
103520 On ch=1 n=f#3 v=75
103520 On ch=1 n=f#4 v=75
103600 On ch=1 n=f#4 v=0
103600 On ch=1 n=f#3 v=0
103600 On ch=1 n=g#3 v=75
103600 On ch=1 n=g#4 v=75
103680 On ch=1 n=g#4 v=0
103680 On ch=1 n=g#3 v=0
103680 Par ch=1 c=64 v=127
103680 On ch=1 n=a2 v=105
103680 On ch=1 n=a3 v=105
103680 On ch=1 n=a4 v=105
103915 On ch=1 n=a4 v=0
103915 On ch=1 n=a3 v=0
103915 On ch=1 n=a2 v=0
103920 On ch=1 n=a6 v=75
103920 On ch=1 n=f7 v=75
104040 On ch=1 n=f7 v=0
104040 On ch=1 n=a6 v=0
104040 On ch=1 n=f6 v=75
104040 On ch=1 n=c7 v=75
104160 On ch=1 n=c7 v=0
104160 On ch=1 n=f6 v=0
104160 On ch=1 n=a5 v=75
104160 On ch=1 n=e6 v=75
104280 On ch=1 n=e6 v=0
104280 On ch=1 n=a5 v=0
104280 On ch=1 n=e5 v=75
104280 On ch=1 n=c6 v=75
104395 On ch=1 n=c6 v=0
104395 On ch=1 n=e5 v=0
104400 Par ch=1 c=64 v=0
104400 On ch=1 n=c4 v=75
104400 On ch=1 n=c5 v=75
104480 On ch=1 n=c5 v=0
104480 On ch=1 n=c4 v=0
104480 On ch=1 n=b3 v=75
104480 On ch=1 n=b4 v=75
104560 On ch=1 n=b4 v=0
104560 On ch=1 n=b3 v=0
104560 On ch=1 n=a3 v=75
104560 On ch=1 n=a4 v=75
104640 On ch=1 n=a4 v=0
104640 On ch=1 n=a3 v=0
104640 Par ch=1 c=64 v=127
104640 On ch=1 n=g#2 v=105
104640 On ch=1 n=g#3 v=105
104640 On ch=1 n=g#4 v=105
104875 On ch=1 n=g#4 v=0
104875 On ch=1 n=g#3 v=0
104875 On ch=1 n=g#2 v=0
104880 On ch=1 n=g#6 v=75
104880 On ch=1 n=d#7 v=75
105000 On ch=1 n=d#7 v=0
105000 On ch=1 n=g#6 v=0
105000 On ch=1 n=d#6 v=75
105000 On ch=1 n=c7 v=75
105120 On ch=1 n=c7 v=0
105120 On ch=1 n=d#6 v=0
105120 On ch=1 n=g#5 v=75
105120 On ch=1 n=e6 v=75
105240 On ch=1 n=e6 v=0
105240 On ch=1 n=g#5 v=0
105240 On ch=1 n=e5 v=75
105240 On ch=1 n=b5 v=75
105355 On ch=1 n=b5 v=0
105355 On ch=1 n=e5 v=0
105360 Par ch=1 c=64 v=0
105360 On ch=1 n=e3 v=75
105360 On ch=1 n=e4 v=75
105440 On ch=1 n=e4 v=0
105440 On ch=1 n=e3 v=0
105440 On ch=1 n=f#3 v=75
105440 On ch=1 n=f#4 v=75
105520 On ch=1 n=f#4 v=0
105520 On ch=1 n=f#3 v=0
105520 On ch=1 n=g#3 v=75
105520 On ch=1 n=g#4 v=75
105600 On ch=1 n=g#4 v=0
105600 On ch=1 n=g#3 v=0
105600 Par ch=1 c=64 v=127
105600 On ch=1 n=a2 v=105
105600 On ch=1 n=a3 v=105
105600 On ch=1 n=a4 v=105
105835 On ch=1 n=a4 v=0
105835 On ch=1 n=a3 v=0
105835 On ch=1 n=a2 v=0
105840 On ch=1 n=a6 v=75
105840 On ch=1 n=f7 v=75
105960 On ch=1 n=f7 v=0
105960 On ch=1 n=a6 v=0
105960 On ch=1 n=f6 v=75
105960 On ch=1 n=c7 v=75
106080 On ch=1 n=c7 v=0
106080 On ch=1 n=f6 v=0
106080 On ch=1 n=a5 v=75
106080 On ch=1 n=e6 v=75
106200 On ch=1 n=e6 v=0
106200 On ch=1 n=a5 v=0
106200 On ch=1 n=e5 v=75
106200 On ch=1 n=c6 v=75
106315 On ch=1 n=c6 v=0
106315 On ch=1 n=e5 v=0
106320 Par ch=1 c=64 v=0
106320 On ch=1 n=c4 v=75
106320 On ch=1 n=c5 v=75
106400 On ch=1 n=c5 v=0
106400 On ch=1 n=c4 v=0
106400 On ch=1 n=b3 v=75
106400 On ch=1 n=b4 v=75
106480 On ch=1 n=b4 v=0
106480 On ch=1 n=b3 v=0
106480 On ch=1 n=a3 v=75
106480 On ch=1 n=a4 v=75
106560 On ch=1 n=a4 v=0
106560 On ch=1 n=a3 v=0
106560 Par ch=1 c=64 v=127
106560 On ch=1 n=g#2 v=105
106560 On ch=1 n=g#3 v=105
106560 On ch=1 n=g#4 v=105
106795 On ch=1 n=g#4 v=0
106795 On ch=1 n=g#3 v=0
106795 On ch=1 n=g#2 v=0
106800 On ch=1 n=g#6 v=75
106800 On ch=1 n=d#7 v=75
106920 On ch=1 n=d#7 v=0
106920 On ch=1 n=g#6 v=0
106920 On ch=1 n=d#6 v=75
106920 On ch=1 n=c7 v=75
107040 On ch=1 n=c7 v=0
107040 On ch=1 n=d#6 v=0
107040 On ch=1 n=g#5 v=75
107040 On ch=1 n=e6 v=75
107160 On ch=1 n=e6 v=0
107160 On ch=1 n=g#5 v=0
107160 On ch=1 n=e5 v=75
107160 On ch=1 n=b5 v=75
107275 On ch=1 n=b5 v=0
107275 On ch=1 n=e5 v=0
107280 Par ch=1 c=64 v=0
107280 On ch=1 n=a3 v=75
107280 On ch=1 n=a4 v=75
107360 On ch=1 n=a4 v=0
107360 On ch=1 n=a3 v=0
107360 On ch=1 n=b3 v=75
107360 On ch=1 n=b4 v=75
107440 On ch=1 n=b4 v=0
107440 On ch=1 n=b3 v=0
107440 On ch=1 n=c4 v=75
107440 On ch=1 n=c5 v=75
107520 On ch=1 n=c5 v=0
107520 On ch=1 n=c4 v=0
107520 Par ch=1 c=64 v=127
107520 On ch=1 n=c#3 v=105
107520 On ch=1 n=c#4 v=105
107520 On ch=1 n=c#5 v=105
107755 On ch=1 n=c#5 v=0
107755 On ch=1 n=c#4 v=0
107755 On ch=1 n=c#3 v=0
107760 On ch=1 n=e7 v=75
107760 On ch=1 n=a#7 v=75
107880 On ch=1 n=a#7 v=0
107880 On ch=1 n=e7 v=0
107880 On ch=1 n=a#6 v=75
107880 On ch=1 n=g7 v=75
108000 On ch=1 n=g7 v=0
108000 On ch=1 n=a#6 v=0
108000 On ch=1 n=e6 v=75
108000 On ch=1 n=a6 v=75
108120 On ch=1 n=a6 v=0
108120 On ch=1 n=e6 v=0
108120 On ch=1 n=a5 v=75
108120 On ch=1 n=g6 v=75
108235 On ch=1 n=g6 v=0
108235 On ch=1 n=a5 v=0
108240 Par ch=1 c=64 v=0
108240 On ch=1 n=a3 v=75
108240 On ch=1 n=a4 v=75
108320 On ch=1 n=a4 v=0
108320 On ch=1 n=a3 v=0
108320 On ch=1 n=b3 v=75
108320 On ch=1 n=b4 v=75
108400 On ch=1 n=b4 v=0
108400 On ch=1 n=b3 v=0
108400 On ch=1 n=c#4 v=75
108400 On ch=1 n=c#5 v=75
108480 On ch=1 n=c#5 v=0
108480 On ch=1 n=c#4 v=0
108480 Par ch=1 c=64 v=127
108480 On ch=1 n=d3 v=105
108480 On ch=1 n=d4 v=105
108480 On ch=1 n=d5 v=105
108715 On ch=1 n=d5 v=0
108715 On ch=1 n=d4 v=0
108715 On ch=1 n=d3 v=0
108720 On ch=1 n=a6 v=75
108720 On ch=1 n=e7 v=75
108840 On ch=1 n=e7 v=0
108840 On ch=1 n=a6 v=0
108840 On ch=1 n=e6 v=75
108840 On ch=1 n=d7 v=75
108960 On ch=1 n=d7 v=0
108960 On ch=1 n=e6 v=0
108960 On ch=1 n=a5 v=75
108960 On ch=1 n=f6 v=75
109080 On ch=1 n=f6 v=0
109080 On ch=1 n=a5 v=0
109080 On ch=1 n=f5 v=75
109080 On ch=1 n=d6 v=75
109195 On ch=1 n=d6 v=0
109195 On ch=1 n=f5 v=0
109200 Par ch=1 c=64 v=0
109200 On ch=1 n=e4 v=75
109200 On ch=1 n=e5 v=75
109280 On ch=1 n=e5 v=0
109280 On ch=1 n=e4 v=0
109280 On ch=1 n=d4 v=75
109280 On ch=1 n=d5 v=75
109360 On ch=1 n=d5 v=0
109360 On ch=1 n=d4 v=0
109360 On ch=1 n=c4 v=75
109360 On ch=1 n=c5 v=75
109440 On ch=1 n=c5 v=0
109440 On ch=1 n=c4 v=0
109440 Par ch=1 c=64 v=127
109440 On ch=1 n=b2 v=105
109440 On ch=1 n=b3 v=105
109440 On ch=1 n=b4 v=105
109675 On ch=1 n=b4 v=0
109675 On ch=1 n=b3 v=0
109675 On ch=1 n=b2 v=0
109680 On ch=1 n=d7 v=75
109680 On ch=1 n=g#7 v=75
109800 On ch=1 n=g#7 v=0
109800 On ch=1 n=d7 v=0
109800 On ch=1 n=g#6 v=75
109800 On ch=1 n=f7 v=75
109920 On ch=1 n=f7 v=0
109920 On ch=1 n=g#6 v=0
109920 On ch=1 n=d6 v=75
109920 On ch=1 n=g6 v=75
110040 On ch=1 n=g6 v=0
110040 On ch=1 n=d6 v=0
110040 On ch=1 n=g5 v=75
110040 On ch=1 n=f6 v=75
110155 On ch=1 n=f6 v=0
110155 On ch=1 n=g5 v=0
110160 Par ch=1 c=64 v=0
110160 On ch=1 n=g3 v=75
110160 On ch=1 n=g4 v=75
110240 On ch=1 n=g4 v=0
110240 On ch=1 n=g3 v=0
110240 On ch=1 n=a3 v=75
110240 On ch=1 n=a4 v=75
110320 On ch=1 n=a4 v=0
110320 On ch=1 n=a3 v=0
110320 On ch=1 n=b3 v=75
110320 On ch=1 n=b4 v=75
110400 On ch=1 n=b4 v=0
110400 On ch=1 n=b3 v=0
110400 Par ch=1 c=64 v=127
110400 On ch=1 n=c3 v=105
110400 On ch=1 n=c4 v=105
110400 On ch=1 n=c5 v=105
110635 On ch=1 n=c5 v=0
110635 On ch=1 n=c4 v=0
110635 On ch=1 n=c3 v=0
110640 On ch=1 n=g6 v=75
110640 On ch=1 n=d#7 v=75
110760 On ch=1 n=d#7 v=0
110760 On ch=1 n=g6 v=0
110760 On ch=1 n=d#6 v=75
110760 On ch=1 n=c7 v=75
110880 On ch=1 n=c7 v=0
110880 On ch=1 n=d#6 v=0
110880 On ch=1 n=g5 v=75
110880 On ch=1 n=e6 v=75
111000 On ch=1 n=e6 v=0
111000 On ch=1 n=g5 v=0
111000 On ch=1 n=e5 v=75
111000 On ch=1 n=c6 v=75
111115 On ch=1 n=c6 v=0
111115 On ch=1 n=e5 v=0
111120 Par ch=1 c=64 v=0
111120 On ch=1 n=b3 v=75
111120 On ch=1 n=b4 v=75
111200 On ch=1 n=b4 v=0
111200 On ch=1 n=b3 v=0
111200 On ch=1 n=c4 v=75
111200 On ch=1 n=c5 v=75
111280 On ch=1 n=c5 v=0
111280 On ch=1 n=c4 v=0
111280 On ch=1 n=c#4 v=75
111280 On ch=1 n=c#5 v=75
111360 On ch=1 n=c#5 v=0
111360 On ch=1 n=c#4 v=0
111360 Par ch=1 c=64 v=127
111360 On ch=1 n=d3 v=105
111360 On ch=1 n=d4 v=105
111360 On ch=1 n=d5 v=105
111595 On ch=1 n=d5 v=0
111595 On ch=1 n=d4 v=0
111595 On ch=1 n=d3 v=0
111600 On ch=1 n=d7 v=75
111600 On ch=1 n=b7 v=75
111720 On ch=1 n=b7 v=0
111720 On ch=1 n=d7 v=0
111720 On ch=1 n=b6 v=75
111720 On ch=1 n=f7 v=75
111840 On ch=1 n=f7 v=0
111840 On ch=1 n=b6 v=0
111840 On ch=1 n=d6 v=75
111840 On ch=1 n=a#6 v=75
111960 On ch=1 n=a#6 v=0
111960 On ch=1 n=d6 v=0
111960 On ch=1 n=a#5 v=75
111960 On ch=1 n=f6 v=75
112075 On ch=1 n=f6 v=0
112075 On ch=1 n=a#5 v=0
112080 Par ch=1 c=64 v=0
112080 On ch=1 n=a3 v=75
112080 On ch=1 n=a4 v=75
112160 On ch=1 n=a4 v=0
112160 On ch=1 n=a3 v=0
112160 On ch=1 n=c4 v=75
112160 On ch=1 n=c5 v=75
112240 On ch=1 n=c5 v=0
112240 On ch=1 n=c4 v=0
112240 On ch=1 n=d4 v=75
112240 On ch=1 n=d5 v=75
112320 On ch=1 n=d5 v=0
112320 On ch=1 n=d4 v=0
112320 Par ch=1 c=64 v=127
112320 On ch=1 n=e3 v=105
112320 On ch=1 n=e4 v=105
112320 On ch=1 n=e5 v=105
112555 On ch=1 n=e5 v=0
112555 On ch=1 n=e4 v=0
112555 On ch=1 n=e3 v=0
112560 On ch=1 n=b6 v=75
112560 On ch=1 n=g#7 v=75
112680 On ch=1 n=g#7 v=0
112680 On ch=1 n=b6 v=0
112680 On ch=1 n=g#6 v=75
112680 On ch=1 n=d7 v=75
112800 On ch=1 n=d7 v=0
112800 On ch=1 n=g#6 v=0
112800 On ch=1 n=c6 v=75
112800 On ch=1 n=a6 v=75
112920 On ch=1 n=a6 v=0
112920 On ch=1 n=c6 v=0
112920 On ch=1 n=a5 v=75
112920 On ch=1 n=e6 v=75
113035 On ch=1 n=e6 v=0
113035 On ch=1 n=a5 v=0
113040 Par ch=1 c=64 v=0
113040 On ch=1 n=f4 v=75
113040 On ch=1 n=f5 v=75
113120 On ch=1 n=f5 v=0
113120 On ch=1 n=f4 v=0
113120 On ch=1 n=e4 v=75
113120 On ch=1 n=e5 v=75
113200 On ch=1 n=e5 v=0
113200 On ch=1 n=e4 v=0
113200 On ch=1 n=d#4 v=75
113200 On ch=1 n=d#5 v=75
113280 On ch=1 n=d#5 v=0
113280 On ch=1 n=d#4 v=0
113280 Tempo 500000
113280 Par ch=1 c=64 v=127
113280 On ch=1 n=d3 v=105
113280 On ch=1 n=d4 v=105
113280 On ch=1 n=d5 v=105
113355 Tempo 508474
113432 Tempo 517241
113510 Tempo 526315
113515 On ch=1 n=d5 v=0
113515 On ch=1 n=d4 v=0
113515 On ch=1 n=d3 v=0
113520 On ch=1 n=a6 v=75
113520 On ch=1 n=f7 v=75
113520 On ch=1 n=b3 v=75
113585 Tempo 535714
113600 On ch=1 n=b3 v=0
113600 On ch=1 n=c4 v=75
113640 On ch=1 n=f7 v=0
113640 On ch=1 n=a6 v=0
113640 On ch=1 n=f6 v=75
113640 On ch=1 n=d7 v=75
113662 Tempo 545454
113680 On ch=1 n=c4 v=0
113680 On ch=1 n=d4 v=75
113740 Tempo 555555
113760 On ch=1 n=d4 v=0
113760 On ch=1 n=d7 v=0
113760 On ch=1 n=f6 v=0
113760 On ch=1 n=g#5 v=75
113760 On ch=1 n=e6 v=75
113760 On ch=1 n=e3 v=105
113760 On ch=1 n=e4 v=105
113817 Tempo 566037
113880 On ch=1 n=e6 v=0
113880 On ch=1 n=g#5 v=0
113880 On ch=1 n=e5 v=75
113880 On ch=1 n=b5 v=75
113892 Tempo 576923
113970 Tempo 588235
113995 On ch=1 n=b5 v=0
113995 On ch=1 n=e5 v=0
113995 On ch=1 n=e4 v=0
113995 On ch=1 n=e3 v=0
114000 Par ch=1 c=64 v=0
114000 On ch=1 n=d4 v=75
114000 On ch=1 n=d5 v=75
114047 Tempo 600000
114080 On ch=1 n=d5 v=0
114080 On ch=1 n=d4 v=0
114080 On ch=1 n=c4 v=75
114080 On ch=1 n=c5 v=75
114122 Tempo 612244
114160 On ch=1 n=c5 v=0
114160 On ch=1 n=c4 v=0
114160 On ch=1 n=b3 v=75
114160 On ch=1 n=b4 v=75
114200 Tempo 625000
114240 On ch=1 n=b4 v=0
114240 On ch=1 n=b3 v=0
114240 Par ch=1 c=64 v=127
114240 On ch=1 n=a2 v=105
114240 On ch=1 n=a3 v=105
114240 On ch=1 n=a4 v=105
114277 Tempo 638297
114355 Tempo 652173
114430 Tempo 666666
114475 On ch=1 n=a4 v=0
114475 On ch=1 n=a3 v=0
114475 On ch=1 n=a2 v=0
114480 On ch=1 n=e7 v=75
114480 On ch=1 n=c8 v=75
114480 On ch=1 n=e5 v=75
114480 On ch=1 n=c6 v=75
114507 Tempo 681818
114560 On ch=1 n=c6 v=0
114560 On ch=1 n=e5 v=0
114585 Tempo 697674
114600 On ch=1 n=c8 v=0
114600 On ch=1 n=e7 v=0
114600 On ch=1 n=c7 v=75
114660 Tempo 714285
114720 On ch=1 n=c7 v=0
114720 On ch=1 n=e7 v=75
114720 On ch=1 n=a7 v=75
114720 On ch=1 n=c5 v=75
114720 On ch=1 n=a5 v=75
114737 Tempo 731707
114800 On ch=1 n=a5 v=0
114800 On ch=1 n=c5 v=0
114815 Tempo 750000
114840 On ch=1 n=a7 v=0
114840 On ch=1 n=e7 v=0
114840 On ch=1 n=a6 v=75
114892 Tempo 769230
114955 On ch=1 n=a6 v=0
114960 Par ch=1 c=64 v=0
114967 Tempo 789473
115045 Tempo 810810
115122 Tempo 833333
115200 Tempo 660534
115200 Tempo 500000
116160 On ch=1 n=e7 v=108
116160 On ch=1 n=c8 v=108
116160 On ch=1 n=e8 v=108
116160 On ch=1 n=a2 v=92
116160 On ch=1 n=c3 v=92
116240 On ch=1 n=c3 v=0
116240 On ch=1 n=a2 v=0
116280 On ch=1 n=b2 v=92
116280 On ch=1 n=d3 v=92
116360 On ch=1 n=d3 v=0
116360 On ch=1 n=b2 v=0
116400 On ch=1 n=c3 v=92
116400 On ch=1 n=e3 v=92
116480 On ch=1 n=e3 v=0
116480 On ch=1 n=c3 v=0
116520 On ch=1 n=d3 v=92
116520 On ch=1 n=f3 v=92
116600 On ch=1 n=f3 v=0
116600 On ch=1 n=d3 v=0
116640 On ch=1 n=e3 v=92
116640 On ch=1 n=g#3 v=92
116720 On ch=1 n=g#3 v=0
116720 On ch=1 n=e3 v=0
116760 On ch=1 n=f3 v=92
116760 On ch=1 n=a3 v=92
116840 On ch=1 n=a3 v=0
116840 On ch=1 n=f3 v=0
116880 On ch=1 n=e8 v=0
116880 On ch=1 n=c8 v=0
116880 On ch=1 n=e7 v=0
116880 On ch=1 n=d7 v=108
116880 On ch=1 n=b7 v=108
116880 On ch=1 n=d8 v=108
116880 On ch=1 n=g#3 v=92
116880 On ch=1 n=b3 v=92
116960 On ch=1 n=b3 v=0
116960 On ch=1 n=g#3 v=0
116960 On ch=1 n=d8 v=0
116960 On ch=1 n=b7 v=0
116960 On ch=1 n=d7 v=0
117000 On ch=1 n=c7 v=108
117000 On ch=1 n=a7 v=108
117000 On ch=1 n=c8 v=108
117000 On ch=1 n=a3 v=92
117000 On ch=1 n=c4 v=92
117080 On ch=1 n=c4 v=0
117080 On ch=1 n=a3 v=0
117080 On ch=1 n=c8 v=0
117080 On ch=1 n=a7 v=0
117080 On ch=1 n=c7 v=0
117120 On ch=1 n=b6 v=108
117120 On ch=1 n=g#7 v=108
117120 On ch=1 n=b7 v=108
117120 On ch=1 n=b3 v=92
117120 On ch=1 n=d4 v=92
117200 On ch=1 n=d4 v=0
117200 On ch=1 n=b3 v=0
117200 On ch=1 n=b7 v=0
117200 On ch=1 n=g#7 v=0
117200 On ch=1 n=b6 v=0
117240 On ch=1 n=a6 v=108
117240 On ch=1 n=f7 v=108
117240 On ch=1 n=a7 v=108
117240 On ch=1 n=c4 v=92
117240 On ch=1 n=e4 v=92
117320 On ch=1 n=e4 v=0
117320 On ch=1 n=c4 v=0
117320 On ch=1 n=a7 v=0
117320 On ch=1 n=f7 v=0
117320 On ch=1 n=a6 v=0
117360 On ch=1 n=g#6 v=108
117360 On ch=1 n=e7 v=108
117360 On ch=1 n=g#7 v=108
117360 On ch=1 n=d4 v=92
117360 On ch=1 n=f4 v=92
117440 On ch=1 n=f4 v=0
117440 On ch=1 n=d4 v=0
117440 On ch=1 n=g#7 v=0
117440 On ch=1 n=e7 v=0
117440 On ch=1 n=g#6 v=0
117480 On ch=1 n=f6 v=108
117480 On ch=1 n=d7 v=108
117480 On ch=1 n=f7 v=108
117480 On ch=1 n=e4 v=92
117480 On ch=1 n=g#4 v=92
117560 On ch=1 n=g#4 v=0
117560 On ch=1 n=e4 v=0
117560 On ch=1 n=f7 v=0
117560 On ch=1 n=d7 v=0
117560 On ch=1 n=f6 v=0
117600 On ch=1 n=e6 v=108
117600 On ch=1 n=c7 v=108
117600 On ch=1 n=e7 v=108
117600 On ch=1 n=f4 v=92
117600 On ch=1 n=a4 v=92
117680 On ch=1 n=a4 v=0
117680 On ch=1 n=f4 v=0
117680 On ch=1 n=e7 v=0
117680 On ch=1 n=c7 v=0
117680 On ch=1 n=e6 v=0
117720 On ch=1 n=d6 v=108
117720 On ch=1 n=b6 v=108
117720 On ch=1 n=d7 v=108
117720 On ch=1 n=g#4 v=92
117720 On ch=1 n=b4 v=92
117800 On ch=1 n=b4 v=0
117800 On ch=1 n=g#4 v=0
117800 On ch=1 n=d7 v=0
117800 On ch=1 n=b6 v=0
117800 On ch=1 n=d6 v=0
117840 On ch=1 n=c6 v=108
117840 On ch=1 n=a6 v=108
117840 On ch=1 n=c7 v=108
117840 On ch=1 n=a4 v=92
117840 On ch=1 n=c5 v=92
117920 On ch=1 n=c5 v=0
117920 On ch=1 n=a4 v=0
117920 On ch=1 n=c7 v=0
117920 On ch=1 n=a6 v=0
117920 On ch=1 n=c6 v=0
117960 On ch=1 n=b5 v=108
117960 On ch=1 n=g#6 v=108
117960 On ch=1 n=b6 v=108
117960 On ch=1 n=b4 v=92
117960 On ch=1 n=d5 v=92
118040 On ch=1 n=d5 v=0
118040 On ch=1 n=b4 v=0
118040 On ch=1 n=b6 v=0
118040 On ch=1 n=g#6 v=0
118040 On ch=1 n=b5 v=0
118080 On ch=1 n=c6 v=108
118080 On ch=1 n=a6 v=108
118080 On ch=1 n=c7 v=108
118080 On ch=1 n=a4 v=92
118080 On ch=1 n=c5 v=92
118160 On ch=1 n=c5 v=0
118160 On ch=1 n=a4 v=0
118200 On ch=1 n=b4 v=96
118200 On ch=1 n=d5 v=96
118280 On ch=1 n=d5 v=0
118280 On ch=1 n=b4 v=0
118320 On ch=1 n=c5 v=100
118320 On ch=1 n=e5 v=100
118400 On ch=1 n=e5 v=0
118400 On ch=1 n=c5 v=0
118440 On ch=1 n=d5 v=104
118440 On ch=1 n=f5 v=104
118520 On ch=1 n=f5 v=0
118520 On ch=1 n=d5 v=0
118560 On ch=1 n=d5 v=108
118560 On ch=1 n=f5 v=108
118640 On ch=1 n=f5 v=0
118640 On ch=1 n=d5 v=0
118680 On ch=1 n=c5 v=108
118680 On ch=1 n=e5 v=108
118760 On ch=1 n=e5 v=0
118760 On ch=1 n=c5 v=0
118800 On ch=1 n=c7 v=0
118800 On ch=1 n=a6 v=0
118800 On ch=1 n=c6 v=0
118800 On ch=1 n=d6 v=108
118800 On ch=1 n=b6 v=108
118800 On ch=1 n=d7 v=108
118800 On ch=1 n=b4 v=103
118800 On ch=1 n=d5 v=103
118880 On ch=1 n=d5 v=0
118880 On ch=1 n=b4 v=0
118880 On ch=1 n=d7 v=0
118880 On ch=1 n=b6 v=0
118880 On ch=1 n=d6 v=0
118920 On ch=1 n=e6 v=108
118920 On ch=1 n=c7 v=108
118920 On ch=1 n=e7 v=108
118920 On ch=1 n=a4 v=98
118920 On ch=1 n=c5 v=98
119000 On ch=1 n=c5 v=0
119000 On ch=1 n=a4 v=0
119000 On ch=1 n=e7 v=0
119000 On ch=1 n=c7 v=0
119000 On ch=1 n=e6 v=0
119040 On ch=1 n=d6 v=108
119040 On ch=1 n=b6 v=108
119040 On ch=1 n=d7 v=108
119040 On ch=1 n=b4 v=92
119040 On ch=1 n=d5 v=92
119120 On ch=1 n=d5 v=0
119120 On ch=1 n=b4 v=0
119120 On ch=1 n=d7 v=0
119120 On ch=1 n=b6 v=0
119120 On ch=1 n=d6 v=0
119160 On ch=1 n=c6 v=108
119160 On ch=1 n=a6 v=108
119160 On ch=1 n=c7 v=108
119160 On ch=1 n=a4 v=92
119160 On ch=1 n=c5 v=92
119240 On ch=1 n=c5 v=0
119240 On ch=1 n=a4 v=0
119240 On ch=1 n=c7 v=0
119240 On ch=1 n=a6 v=0
119240 On ch=1 n=c6 v=0
119280 On ch=1 n=b5 v=108
119280 On ch=1 n=g#6 v=108
119280 On ch=1 n=b6 v=108
119280 On ch=1 n=g#4 v=92
119280 On ch=1 n=b4 v=92
119360 On ch=1 n=b4 v=0
119360 On ch=1 n=g#4 v=0
119360 On ch=1 n=b6 v=0
119360 On ch=1 n=g#6 v=0
119360 On ch=1 n=b5 v=0
119400 On ch=1 n=a5 v=108
119400 On ch=1 n=f6 v=108
119400 On ch=1 n=a6 v=108
119400 On ch=1 n=f4 v=92
119400 On ch=1 n=a4 v=92
119480 On ch=1 n=a4 v=0
119480 On ch=1 n=f4 v=0
119480 On ch=1 n=a6 v=0
119480 On ch=1 n=f6 v=0
119480 On ch=1 n=a5 v=0
119520 On ch=1 n=g#5 v=108
119520 On ch=1 n=e6 v=108
119520 On ch=1 n=g#6 v=108
119520 On ch=1 n=e4 v=92
119520 On ch=1 n=g#4 v=92
119920 On ch=1 n=g#4 v=0
119920 On ch=1 n=e4 v=0
120000 On ch=1 n=g#6 v=0
120000 On ch=1 n=e6 v=0
120000 On ch=1 n=g#5 v=0
120000 On ch=1 n=e7 v=127
120000 On ch=1 n=c8 v=127
120000 On ch=1 n=e8 v=127
120000 On ch=1 n=a2 v=92
120000 On ch=1 n=a3 v=92
120080 On ch=1 n=a3 v=0
120080 On ch=1 n=a2 v=0
120120 On ch=1 n=b2 v=92
120120 On ch=1 n=b3 v=92
120200 On ch=1 n=b3 v=0
120200 On ch=1 n=b2 v=0
120240 On ch=1 n=c3 v=92
120240 On ch=1 n=c4 v=92
120320 On ch=1 n=c4 v=0
120320 On ch=1 n=c3 v=0
120360 On ch=1 n=d3 v=92
120360 On ch=1 n=d4 v=92
120440 On ch=1 n=d4 v=0
120440 On ch=1 n=d3 v=0
120480 On ch=1 n=e3 v=92
120480 On ch=1 n=e4 v=92
120560 On ch=1 n=e4 v=0
120560 On ch=1 n=e3 v=0
120600 On ch=1 n=f3 v=92
120600 On ch=1 n=f4 v=92
120680 On ch=1 n=f4 v=0
120680 On ch=1 n=f3 v=0
120720 On ch=1 n=e8 v=0
120720 On ch=1 n=c8 v=0
120720 On ch=1 n=e7 v=0
120720 On ch=1 n=d7 v=108
120720 On ch=1 n=b7 v=108
120720 On ch=1 n=d8 v=108
120720 On ch=1 n=g#3 v=92
120720 On ch=1 n=g#4 v=92
120800 On ch=1 n=g#4 v=0
120800 On ch=1 n=g#3 v=0
120800 On ch=1 n=d8 v=0
120800 On ch=1 n=b7 v=0
120800 On ch=1 n=d7 v=0
120840 On ch=1 n=c7 v=108
120840 On ch=1 n=a7 v=108
120840 On ch=1 n=c8 v=108
120840 On ch=1 n=a3 v=92
120840 On ch=1 n=a4 v=92
120920 On ch=1 n=a4 v=0
120920 On ch=1 n=a3 v=0
120920 On ch=1 n=c8 v=0
120920 On ch=1 n=a7 v=0
120920 On ch=1 n=c7 v=0
120960 On ch=1 n=b6 v=108
120960 On ch=1 n=g#7 v=108
120960 On ch=1 n=b7 v=108
120960 On ch=1 n=b4 v=92
120960 On ch=1 n=b3 v=92
121040 On ch=1 n=b3 v=0
121040 On ch=1 n=b4 v=0
121040 On ch=1 n=b7 v=0
121040 On ch=1 n=g#7 v=0
121040 On ch=1 n=b6 v=0
121080 On ch=1 n=a6 v=108
121080 On ch=1 n=f7 v=108
121080 On ch=1 n=a7 v=108
121080 On ch=1 n=c4 v=92
121080 On ch=1 n=c5 v=92
121160 On ch=1 n=c5 v=0
121160 On ch=1 n=c4 v=0
121160 On ch=1 n=a7 v=0
121160 On ch=1 n=f7 v=0
121160 On ch=1 n=a6 v=0
121200 On ch=1 n=g#6 v=108
121200 On ch=1 n=e7 v=108
121200 On ch=1 n=g#7 v=108
121200 On ch=1 n=d4 v=92
121200 On ch=1 n=d5 v=92
121280 On ch=1 n=d5 v=0
121280 On ch=1 n=d4 v=0
121280 On ch=1 n=g#7 v=0
121280 On ch=1 n=e7 v=0
121280 On ch=1 n=g#6 v=0
121320 On ch=1 n=f6 v=108
121320 On ch=1 n=d7 v=108
121320 On ch=1 n=f7 v=108
121320 On ch=1 n=e4 v=92
121320 On ch=1 n=e5 v=92
121400 On ch=1 n=e5 v=0
121400 On ch=1 n=e4 v=0
121400 On ch=1 n=f7 v=0
121400 On ch=1 n=d7 v=0
121400 On ch=1 n=f6 v=0
121440 On ch=1 n=e6 v=108
121440 On ch=1 n=c7 v=108
121440 On ch=1 n=e7 v=108
121440 On ch=1 n=f4 v=92
121440 On ch=1 n=f5 v=92
121520 On ch=1 n=f5 v=0
121520 On ch=1 n=f4 v=0
121520 On ch=1 n=e7 v=0
121520 On ch=1 n=c7 v=0
121520 On ch=1 n=e6 v=0
121560 On ch=1 n=d6 v=108
121560 On ch=1 n=b6 v=108
121560 On ch=1 n=d7 v=108
121560 On ch=1 n=g#4 v=92
121560 On ch=1 n=g#5 v=92
121640 On ch=1 n=g#5 v=0
121640 On ch=1 n=g#4 v=0
121640 On ch=1 n=d7 v=0
121640 On ch=1 n=b6 v=0
121640 On ch=1 n=d6 v=0
121680 On ch=1 n=c6 v=108
121680 On ch=1 n=a6 v=108
121680 On ch=1 n=c7 v=108
121680 On ch=1 n=a4 v=92
121680 On ch=1 n=a5 v=92
121760 On ch=1 n=a5 v=0
121760 On ch=1 n=a4 v=0
121760 On ch=1 n=c7 v=0
121760 On ch=1 n=a6 v=0
121760 On ch=1 n=c6 v=0
121800 On ch=1 n=g#6 v=108
121800 On ch=1 n=b6 v=108
121800 On ch=1 n=b4 v=92
121800 On ch=1 n=b5 v=92
121880 On ch=1 n=b5 v=0
121880 On ch=1 n=b4 v=0
121880 On ch=1 n=b6 v=0
121880 On ch=1 n=g#6 v=0
121920 On ch=1 n=c6 v=108
121920 On ch=1 n=a6 v=108
121920 On ch=1 n=c7 v=108
121920 On ch=1 n=a4 v=92
121920 On ch=1 n=a5 v=92
122000 On ch=1 n=a5 v=0
122000 On ch=1 n=a4 v=0
122040 On ch=1 n=g#4 v=92
122040 On ch=1 n=g#5 v=92
122120 On ch=1 n=g#5 v=0
122120 On ch=1 n=g#4 v=0
122160 On ch=1 n=f4 v=92
122160 On ch=1 n=f5 v=92
122240 On ch=1 n=f5 v=0
122240 On ch=1 n=f4 v=0
122280 On ch=1 n=e4 v=92
122280 On ch=1 n=e5 v=92
122360 On ch=1 n=e5 v=0
122360 On ch=1 n=e4 v=0
122400 On ch=1 n=f4 v=92
122400 On ch=1 n=f5 v=92
122480 On ch=1 n=f5 v=0
122480 On ch=1 n=f4 v=0
122520 On ch=1 n=e4 v=92
122520 On ch=1 n=e5 v=92
122560 On ch=1 n=c7 v=0
122560 On ch=1 n=a6 v=0
122560 On ch=1 n=c6 v=0
122600 On ch=1 n=e5 v=0
122600 On ch=1 n=e4 v=0
122640 On ch=1 n=d6 v=108
122640 On ch=1 n=b6 v=108
122640 On ch=1 n=d7 v=108
122640 On ch=1 n=d4 v=92
122640 On ch=1 n=d5 v=92
122720 On ch=1 n=d5 v=0
122720 On ch=1 n=d4 v=0
122720 On ch=1 n=d7 v=0
122720 On ch=1 n=b6 v=0
122720 On ch=1 n=d6 v=0
122760 On ch=1 n=e6 v=108
122760 On ch=1 n=c7 v=108
122760 On ch=1 n=e7 v=108
122760 On ch=1 n=c4 v=92
122760 On ch=1 n=c5 v=92
122840 On ch=1 n=c5 v=0
122840 On ch=1 n=c4 v=0
122840 On ch=1 n=e7 v=0
122840 On ch=1 n=c7 v=0
122840 On ch=1 n=e6 v=0
122880 On ch=1 n=d6 v=108
122880 On ch=1 n=d7 v=108
122880 On ch=1 n=b3 v=92
122880 On ch=1 n=b4 v=92
122960 On ch=1 n=b4 v=0
122960 On ch=1 n=b3 v=0
122960 On ch=1 n=d7 v=0
122960 On ch=1 n=d6 v=0
123000 On ch=1 n=c6 v=108
123000 On ch=1 n=c7 v=108
123000 On ch=1 n=a3 v=92
123000 On ch=1 n=a4 v=92
123080 On ch=1 n=a4 v=0
123080 On ch=1 n=a3 v=0
123080 On ch=1 n=c7 v=0
123080 On ch=1 n=c6 v=0
123120 On ch=1 n=b5 v=108
123120 On ch=1 n=b6 v=108
123120 On ch=1 n=g#3 v=92
123120 On ch=1 n=g#4 v=92
123200 On ch=1 n=g#4 v=0
123200 On ch=1 n=g#3 v=0
123200 On ch=1 n=b6 v=0
123200 On ch=1 n=b5 v=0
123240 On ch=1 n=a5 v=108
123240 On ch=1 n=a6 v=108
123240 On ch=1 n=f4 v=92
123240 On ch=1 n=f5 v=92
123320 On ch=1 n=f5 v=0
123320 On ch=1 n=f4 v=0
123320 On ch=1 n=a6 v=0
123320 On ch=1 n=a5 v=0
123360 On ch=1 n=g#5 v=108
123360 On ch=1 n=g#6 v=108
123360 On ch=1 n=e4 v=92
123360 On ch=1 n=e5 v=92
123760 On ch=1 n=e5 v=0
123760 On ch=1 n=e4 v=0
123760 On ch=1 n=g#6 v=0
123760 On ch=1 n=g#5 v=0
123840 On ch=1 n=c#6 v=127
123840 On ch=1 n=e6 v=127
123840 On ch=1 n=c#7 v=127
123840 On ch=1 n=a#4 v=127
123840 On ch=1 n=a#5 v=127
123920 On ch=1 n=a#5 v=0
123920 On ch=1 n=a#4 v=0
123960 On ch=1 n=a4 v=92
123960 On ch=1 n=a5 v=92
124040 On ch=1 n=a5 v=0
124040 On ch=1 n=a4 v=0
124080 On ch=1 n=g4 v=92
124080 On ch=1 n=g5 v=92
124160 On ch=1 n=g5 v=0
124160 On ch=1 n=g4 v=0
124200 On ch=1 n=e4 v=92
124200 On ch=1 n=e5 v=92
124280 On ch=1 n=e5 v=0
124280 On ch=1 n=e4 v=0
124320 On ch=1 n=c#4 v=92
124320 On ch=1 n=c#5 v=92
124400 On ch=1 n=c#5 v=0
124400 On ch=1 n=c#4 v=0
124440 On ch=1 n=a#3 v=92
124440 On ch=1 n=a#4 v=92
124520 On ch=1 n=a#4 v=0
124520 On ch=1 n=a#3 v=0
124555 On ch=1 n=c#7 v=0
124555 On ch=1 n=e6 v=0
124555 On ch=1 n=c#6 v=0
124560 On ch=1 n=d6 v=108
124560 On ch=1 n=b6 v=108
124560 On ch=1 n=d7 v=108
124560 On ch=1 n=a4 v=92
124560 On ch=1 n=a3 v=92
124640 On ch=1 n=a4 v=0
124675 On ch=1 n=d7 v=0
124675 On ch=1 n=b6 v=0
124675 On ch=1 n=d6 v=0
124680 On ch=1 n=e6 v=108
124680 On ch=1 n=c#7 v=108
124680 On ch=1 n=e7 v=108
124680 On ch=1 n=g4 v=93
124760 On ch=1 n=g4 v=0
124795 On ch=1 n=e7 v=0
124795 On ch=1 n=c#7 v=0
124795 On ch=1 n=e6 v=0
124795 On ch=1 n=a3 v=0
124800 On ch=1 n=f6 v=108
124800 On ch=1 n=d7 v=108
124800 On ch=1 n=f7 v=108
124800 On ch=1 n=d4 v=94
124800 On ch=1 n=f4 v=94
124880 On ch=1 n=f4 v=0
124880 On ch=1 n=d4 v=0
124915 On ch=1 n=f7 v=0
124915 On ch=1 n=d7 v=0
124915 On ch=1 n=f6 v=0
124920 On ch=1 n=g6 v=110
124920 On ch=1 n=e7 v=110
124920 On ch=1 n=g7 v=110
124920 On ch=1 n=c#4 v=95
124920 On ch=1 n=e4 v=95
125000 On ch=1 n=e4 v=0
125000 On ch=1 n=c#4 v=0
125035 On ch=1 n=g7 v=0
125035 On ch=1 n=e7 v=0
125035 On ch=1 n=g6 v=0
125040 On ch=1 n=a6 v=112
125040 On ch=1 n=f7 v=112
125040 On ch=1 n=a7 v=112
125040 On ch=1 n=b3 v=96
125040 On ch=1 n=d4 v=96
125120 On ch=1 n=d4 v=0
125120 On ch=1 n=b3 v=0
125155 On ch=1 n=a7 v=0
125155 On ch=1 n=f7 v=0
125155 On ch=1 n=a6 v=0
125160 On ch=1 n=b6 v=114
125160 On ch=1 n=g7 v=114
125160 On ch=1 n=b7 v=114
125160 On ch=1 n=a3 v=98
125160 On ch=1 n=c#4 v=98
125240 On ch=1 n=c#4 v=0
125240 On ch=1 n=a3 v=0
125275 On ch=1 n=b7 v=0
125275 On ch=1 n=g7 v=0
125275 On ch=1 n=b6 v=0
125280 On ch=1 n=c#7 v=116
125280 On ch=1 n=a7 v=116
125280 On ch=1 n=c#8 v=116
125280 On ch=1 n=g3 v=100
125280 On ch=1 n=b3 v=100
125360 On ch=1 n=b3 v=0
125360 On ch=1 n=g3 v=0
125395 On ch=1 n=c#8 v=0
125395 On ch=1 n=a7 v=0
125395 On ch=1 n=c#7 v=0
125400 On ch=1 n=d7 v=118
125400 On ch=1 n=b7 v=118
125400 On ch=1 n=d8 v=118
125400 On ch=1 n=f3 v=102
125400 On ch=1 n=a3 v=102
125480 On ch=1 n=a3 v=0
125480 On ch=1 n=f3 v=0
125515 On ch=1 n=d8 v=0
125515 On ch=1 n=b7 v=0
125515 On ch=1 n=d7 v=0
125520 On ch=1 n=e7 v=121
125520 On ch=1 n=c#8 v=121
125520 On ch=1 n=e8 v=121
125520 On ch=1 n=e3 v=104
125520 On ch=1 n=g3 v=104
125600 On ch=1 n=g3 v=0
125600 On ch=1 n=e3 v=0
125635 On ch=1 n=e8 v=0
125635 On ch=1 n=c#8 v=0
125635 On ch=1 n=e7 v=0
125640 On ch=1 n=f7 v=124
125640 On ch=1 n=d8 v=124
125640 On ch=1 n=f8 v=124
125640 On ch=1 n=d3 v=106
125640 On ch=1 n=f3 v=106
125720 On ch=1 n=f3 v=0
125720 On ch=1 n=d3 v=0
125755 On ch=1 n=f8 v=0
125755 On ch=1 n=d8 v=0
125755 On ch=1 n=f7 v=0
125760 On ch=1 n=b5 v=127
125760 On ch=1 n=d6 v=127
125760 On ch=1 n=b6 v=127
125760 On ch=1 n=g#4 v=108
125760 On ch=1 n=g#5 v=108
125840 On ch=1 n=g#5 v=0
125840 On ch=1 n=g#4 v=0
125880 On ch=1 n=g4 v=92
125880 On ch=1 n=g5 v=92
125960 On ch=1 n=g5 v=0
125960 On ch=1 n=g4 v=0
126000 On ch=1 n=f4 v=92
126000 On ch=1 n=f5 v=92
126080 On ch=1 n=f5 v=0
126080 On ch=1 n=f4 v=0
126120 On ch=1 n=d4 v=92
126120 On ch=1 n=d5 v=92
126200 On ch=1 n=d5 v=0
126200 On ch=1 n=d4 v=0
126240 On ch=1 n=b3 v=92
126240 On ch=1 n=b4 v=92
126320 On ch=1 n=b4 v=0
126320 On ch=1 n=b3 v=0
126360 On ch=1 n=g#3 v=92
126360 On ch=1 n=g#4 v=92
126440 On ch=1 n=g#4 v=0
126440 On ch=1 n=g#3 v=0
126475 On ch=1 n=b6 v=0
126475 On ch=1 n=d6 v=0
126475 On ch=1 n=b5 v=0
126480 On ch=1 n=c6 v=108
126480 On ch=1 n=a6 v=108
126480 On ch=1 n=c7 v=108
126480 On ch=1 n=g4 v=92
126480 On ch=1 n=g3 v=92
126560 On ch=1 n=g4 v=0
126595 On ch=1 n=c7 v=0
126595 On ch=1 n=a6 v=0
126595 On ch=1 n=c6 v=0
126600 On ch=1 n=d6 v=108
126600 On ch=1 n=b6 v=108
126600 On ch=1 n=d7 v=108
126600 On ch=1 n=f4 v=93
126680 On ch=1 n=f4 v=0
126715 On ch=1 n=d7 v=0
126715 On ch=1 n=b6 v=0
126715 On ch=1 n=d6 v=0
126715 On ch=1 n=g3 v=0
126720 On ch=1 n=e6 v=108
126720 On ch=1 n=c7 v=108
126720 On ch=1 n=e7 v=108
126720 On ch=1 n=c4 v=94
126720 On ch=1 n=e4 v=94
126800 On ch=1 n=e4 v=0
126800 On ch=1 n=c4 v=0
126835 On ch=1 n=e7 v=0
126835 On ch=1 n=c7 v=0
126835 On ch=1 n=e6 v=0
126840 On ch=1 n=f6 v=110
126840 On ch=1 n=d7 v=110
126840 On ch=1 n=f7 v=110
126840 On ch=1 n=b3 v=95
126840 On ch=1 n=d4 v=95
126920 On ch=1 n=d4 v=0
126920 On ch=1 n=b3 v=0
126955 On ch=1 n=f7 v=0
126955 On ch=1 n=d7 v=0
126955 On ch=1 n=f6 v=0
126960 On ch=1 n=g6 v=112
126960 On ch=1 n=e7 v=112
126960 On ch=1 n=g7 v=112
126960 On ch=1 n=a3 v=96
126960 On ch=1 n=c4 v=96
127040 On ch=1 n=c4 v=0
127040 On ch=1 n=a3 v=0
127075 On ch=1 n=g7 v=0
127075 On ch=1 n=e7 v=0
127075 On ch=1 n=g6 v=0
127080 On ch=1 n=a6 v=114
127080 On ch=1 n=f7 v=114
127080 On ch=1 n=a7 v=114
127080 On ch=1 n=g3 v=98
127080 On ch=1 n=b3 v=98
127160 On ch=1 n=b3 v=0
127160 On ch=1 n=g3 v=0
127195 On ch=1 n=a7 v=0
127195 On ch=1 n=f7 v=0
127195 On ch=1 n=a6 v=0
127200 On ch=1 n=b6 v=116
127200 On ch=1 n=g7 v=116
127200 On ch=1 n=b7 v=116
127200 On ch=1 n=f3 v=100
127200 On ch=1 n=a3 v=100
127280 On ch=1 n=a3 v=0
127280 On ch=1 n=f3 v=0
127315 On ch=1 n=b7 v=0
127315 On ch=1 n=g7 v=0
127315 On ch=1 n=b6 v=0
127320 On ch=1 n=c7 v=118
127320 On ch=1 n=a7 v=118
127320 On ch=1 n=c8 v=118
127320 On ch=1 n=e3 v=102
127320 On ch=1 n=g3 v=102
127400 On ch=1 n=g3 v=0
127400 On ch=1 n=e3 v=0
127435 On ch=1 n=c8 v=0
127435 On ch=1 n=a7 v=0
127435 On ch=1 n=c7 v=0
127440 On ch=1 n=d7 v=121
127440 On ch=1 n=b7 v=121
127440 On ch=1 n=d8 v=121
127440 On ch=1 n=d3 v=104
127440 On ch=1 n=f3 v=104
127520 On ch=1 n=f3 v=0
127520 On ch=1 n=d3 v=0
127555 On ch=1 n=d8 v=0
127555 On ch=1 n=b7 v=0
127555 On ch=1 n=d7 v=0
127560 On ch=1 n=e7 v=124
127560 On ch=1 n=c8 v=124
127560 On ch=1 n=e8 v=124
127560 On ch=1 n=c3 v=106
127560 On ch=1 n=e3 v=106
127640 On ch=1 n=e3 v=0
127640 On ch=1 n=c3 v=0
127675 On ch=1 n=e8 v=0
127675 On ch=1 n=c8 v=0
127675 On ch=1 n=e7 v=0
127680 On ch=1 n=f7 v=127
127680 On ch=1 n=g#7 v=127
127680 On ch=1 n=b7 v=127
127680 On ch=1 n=f8 v=127
127680 On ch=1 n=d3 v=127
127680 On ch=1 n=g#3 v=127
127680 On ch=1 n=b3 v=127
127680 On ch=1 n=d4 v=127
127760 On ch=1 n=d4 v=0
127760 On ch=1 n=b3 v=0
127760 On ch=1 n=g#3 v=0
127760 On ch=1 n=d3 v=0
127795 On ch=1 n=f8 v=0
127795 On ch=1 n=b7 v=0
127795 On ch=1 n=g#7 v=0
127795 On ch=1 n=f7 v=0
127800 On ch=1 n=d7 v=108
127800 On ch=1 n=d8 v=108
127800 On ch=1 n=f3 v=92
127800 On ch=1 n=f4 v=92
127880 On ch=1 n=f4 v=0
127880 On ch=1 n=f3 v=0
127915 On ch=1 n=d8 v=0
127915 On ch=1 n=d7 v=0
127920 On ch=1 n=b6 v=108
127920 On ch=1 n=b7 v=108
127920 On ch=1 n=g#3 v=92
127920 On ch=1 n=g#4 v=92
128000 On ch=1 n=g#4 v=0
128000 On ch=1 n=g#3 v=0
128035 On ch=1 n=b7 v=0
128035 On ch=1 n=b6 v=0
128040 On ch=1 n=g#6 v=108
128040 On ch=1 n=g#7 v=108
128040 On ch=1 n=b3 v=92
128040 On ch=1 n=b4 v=92
128120 On ch=1 n=b4 v=0
128120 On ch=1 n=b3 v=0
128155 On ch=1 n=g#7 v=0
128155 On ch=1 n=g#6 v=0
128160 On ch=1 n=f6 v=127
128160 On ch=1 n=g#6 v=127
128160 On ch=1 n=b6 v=127
128160 On ch=1 n=f7 v=127
128160 On ch=1 n=d4 v=127
128160 On ch=1 n=g#4 v=127
128160 On ch=1 n=b4 v=127
128160 On ch=1 n=d5 v=127
128240 On ch=1 n=d5 v=0
128240 On ch=1 n=b4 v=0
128240 On ch=1 n=g#4 v=0
128240 On ch=1 n=d4 v=0
128275 On ch=1 n=f7 v=0
128275 On ch=1 n=b6 v=0
128275 On ch=1 n=g#6 v=0
128275 On ch=1 n=f6 v=0
128280 On ch=1 n=d#6 v=108
128280 On ch=1 n=d#7 v=108
128280 On ch=1 n=d#4 v=92
128280 On ch=1 n=d#5 v=92
128360 On ch=1 n=d#5 v=0
128360 On ch=1 n=d#4 v=0
128395 On ch=1 n=d#7 v=0
128395 On ch=1 n=d#6 v=0
128400 On ch=1 n=e6 v=108
128400 On ch=1 n=e7 v=108
128400 On ch=1 n=e4 v=92
128400 On ch=1 n=e5 v=92
128480 On ch=1 n=e5 v=0
128480 On ch=1 n=e4 v=0
128515 On ch=1 n=e7 v=0
128515 On ch=1 n=e6 v=0
128520 On ch=1 n=d6 v=108
128520 On ch=1 n=d7 v=108
128520 On ch=1 n=f4 v=92
128520 On ch=1 n=f5 v=92
128600 On ch=1 n=f5 v=0
128600 On ch=1 n=f4 v=0
128635 On ch=1 n=d7 v=0
128635 On ch=1 n=d6 v=0
128640 Tempo 500000
128640 On ch=1 n=c7 v=127
128640 On ch=1 n=d#7 v=127
128640 On ch=1 n=f#7 v=127
128640 On ch=1 n=c8 v=127
128640 On ch=1 n=a2 v=127
128640 On ch=1 n=d#3 v=127
128640 On ch=1 n=f#3 v=127
128640 On ch=1 n=a3 v=127
128715 Tempo 508474
128720 On ch=1 n=a3 v=0
128720 On ch=1 n=f#3 v=0
128720 On ch=1 n=d#3 v=0
128720 On ch=1 n=a2 v=0
128755 On ch=1 n=c8 v=0
128755 On ch=1 n=f#7 v=0
128755 On ch=1 n=d#7 v=0
128755 On ch=1 n=c7 v=0
128760 On ch=1 n=a6 v=108
128760 On ch=1 n=a7 v=108
128760 On ch=1 n=c3 v=92
128760 On ch=1 n=c4 v=92
128792 Tempo 517241
128840 On ch=1 n=c4 v=0
128840 On ch=1 n=c3 v=0
128870 Tempo 526315
128875 On ch=1 n=a7 v=0
128875 On ch=1 n=a6 v=0
128880 On ch=1 n=f#6 v=108
128880 On ch=1 n=f#7 v=108
128880 On ch=1 n=d#3 v=92
128880 On ch=1 n=d#4 v=92
128945 Tempo 535714
128960 On ch=1 n=d#4 v=0
128960 On ch=1 n=d#3 v=0
128995 On ch=1 n=f#7 v=0
128995 On ch=1 n=f#6 v=0
129000 On ch=1 n=d#6 v=108
129000 On ch=1 n=d#7 v=108
129000 On ch=1 n=f#3 v=92
129000 On ch=1 n=f#4 v=92
129022 Tempo 545454
129080 On ch=1 n=f#4 v=0
129080 On ch=1 n=f#3 v=0
129100 Tempo 555555
129115 On ch=1 n=d#7 v=0
129115 On ch=1 n=d#6 v=0
129120 On ch=1 n=c6 v=127
129120 On ch=1 n=d#6 v=127
129120 On ch=1 n=f#6 v=127
129120 On ch=1 n=c7 v=127
129120 On ch=1 n=a3 v=127
129120 On ch=1 n=d#4 v=127
129120 On ch=1 n=f#4 v=127
129120 On ch=1 n=a4 v=127
129177 Tempo 566037
129200 On ch=1 n=a4 v=0
129200 On ch=1 n=f#4 v=0
129200 On ch=1 n=d#4 v=0
129200 On ch=1 n=a3 v=0
129235 On ch=1 n=c7 v=0
129235 On ch=1 n=f#6 v=0
129235 On ch=1 n=d#6 v=0
129235 On ch=1 n=c6 v=0
129240 On ch=1 n=a#5 v=108
129240 On ch=1 n=a#6 v=108
129240 On ch=1 n=a#3 v=92
129240 On ch=1 n=a#4 v=92
129252 Tempo 576923
129320 On ch=1 n=a#4 v=0
129320 On ch=1 n=a#3 v=0
129330 Tempo 588235
129355 On ch=1 n=a#6 v=0
129355 On ch=1 n=a#5 v=0
129360 On ch=1 n=b5 v=108
129360 On ch=1 n=b6 v=108
129360 On ch=1 n=b3 v=92
129360 On ch=1 n=b4 v=92
129407 Tempo 600000
129440 On ch=1 n=b4 v=0
129440 On ch=1 n=b3 v=0
129475 On ch=1 n=b6 v=0
129475 On ch=1 n=b5 v=0
129480 On ch=1 n=a5 v=108
129480 On ch=1 n=a6 v=108
129480 On ch=1 n=c4 v=92
129480 On ch=1 n=c5 v=92
129482 Tempo 612244
129560 On ch=1 n=c5 v=0
129560 On ch=1 n=c4 v=0
129560 Tempo 625000
129595 On ch=1 n=a6 v=0
129595 On ch=1 n=a5 v=0
129600 On ch=1 n=f5 v=127
129600 On ch=1 n=a5 v=127
129600 On ch=1 n=b5 v=127
129600 On ch=1 n=f6 v=127
129600 On ch=1 n=d4 v=92
129600 On ch=1 n=a4 v=92
129600 On ch=1 n=b4 v=92
129637 Tempo 638297
129680 On ch=1 n=b4 v=0
129680 On ch=1 n=a4 v=0
129680 On ch=1 n=d4 v=0
129715 On ch=1 n=f6 v=0
129715 On ch=1 n=b5 v=0
129715 On ch=1 n=a5 v=0
129715 On ch=1 n=f5 v=0
129715 Tempo 652173
129720 On ch=1 n=d#5 v=108
129720 On ch=1 n=d#6 v=108
129720 On ch=1 n=d#4 v=92
129790 Tempo 666666
129800 On ch=1 n=d#4 v=0
129835 On ch=1 n=d#6 v=0
129835 On ch=1 n=d#5 v=0
129840 On ch=1 n=e5 v=108
129840 On ch=1 n=e6 v=108
129840 On ch=1 n=e4 v=92
129867 Tempo 681818
129920 On ch=1 n=e4 v=0
129945 Tempo 697674
129955 On ch=1 n=e6 v=0
129955 On ch=1 n=e5 v=0
129960 On ch=1 n=d5 v=108
129960 On ch=1 n=d6 v=108
129960 On ch=1 n=f4 v=92
130020 Tempo 714285
130040 On ch=1 n=f4 v=0
130075 On ch=1 n=d6 v=0
130075 On ch=1 n=d5 v=0
130080 On ch=1 n=c#5 v=127
130080 On ch=1 n=c#6 v=127
130080 On ch=1 n=e4 v=127
130080 On ch=1 n=g#4 v=127
130080 On ch=1 n=e5 v=127
130097 Tempo 731707
130175 Tempo 750000
130195 On ch=1 n=c#6 v=0
130195 On ch=1 n=c#5 v=0
130200 On ch=1 n=b4 v=108
130200 On ch=1 n=b5 v=108
130252 Tempo 769230
130315 On ch=1 n=b5 v=0
130315 On ch=1 n=b4 v=0
130315 On ch=1 n=e5 v=0
130315 On ch=1 n=g#4 v=0
130315 On ch=1 n=e4 v=0
130320 On ch=1 n=c5 v=127
130320 On ch=1 n=c6 v=127
130320 On ch=1 n=e4 v=127
130320 On ch=1 n=g#4 v=127
130320 On ch=1 n=d5 v=127
130327 Tempo 789473
130405 Tempo 810810
130435 On ch=1 n=c6 v=0
130435 On ch=1 n=c5 v=0
130440 On ch=1 n=b4 v=108
130440 On ch=1 n=b5 v=108
130482 Tempo 833333
130555 On ch=1 n=b5 v=0
130555 On ch=1 n=b4 v=0
130555 On ch=1 n=d5 v=0
130555 On ch=1 n=g#4 v=0
130555 On ch=1 n=e4 v=0
130560 Tempo 660534
130560 On ch=1 n=a4 v=108
130560 On ch=1 n=a5 v=108
130560 On ch=1 n=d5 v=127
130560 On ch=1 n=f5 v=127
130560 On ch=1 n=d4 v=127
130560 On ch=1 n=f4 v=127
130560 On ch=1 n=a3 v=92
131040 On ch=1 n=f4 v=0
131040 On ch=1 n=d4 v=0
131040 On ch=1 n=f5 v=0
131040 On ch=1 n=d5 v=0
131040 Tempo 1500000
131040 On ch=1 n=c5 v=75
131040 On ch=1 n=e5 v=75
131040 On ch=1 n=c4 v=75
131040 On ch=1 n=e4 v=75
131275 On ch=1 n=e4 v=0
131275 On ch=1 n=c4 v=0
131275 On ch=1 n=e5 v=0
131275 On ch=1 n=c5 v=0
131275 On ch=1 n=a3 v=0
131275 On ch=1 n=a5 v=0
131275 On ch=1 n=a4 v=0
131520 Tempo 750000
132480 On ch=1 n=e7 v=75
132480 On ch=1 n=e5 v=60
132560 On ch=1 n=e5 v=0
132560 On ch=1 n=e7 v=0
132560 On ch=1 n=f7 v=75
132560 On ch=1 n=f5 v=60
132640 On ch=1 n=f5 v=0
132640 On ch=1 n=f7 v=0
132640 On ch=1 n=e7 v=75
132640 On ch=1 n=e5 v=60
132720 On ch=1 n=e5 v=0
132720 On ch=1 n=e7 v=0
132720 On ch=1 n=c7 v=75
132720 On ch=1 n=c5 v=60
132960 On ch=1 n=c6 v=75
132960 On ch=1 n=e6 v=75
132960 On ch=1 n=a3 v=60
132960 On ch=1 n=e4 v=60
133040 On ch=1 n=e4 v=0
133040 On ch=1 n=a3 v=0
133040 On ch=1 n=e6 v=0
133040 On ch=1 n=c6 v=0
133120 On ch=1 n=c5 v=0
133120 On ch=1 n=c7 v=0
133200 On ch=1 n=a6 v=75
133200 On ch=1 n=a4 v=60
133280 On ch=1 n=a4 v=0
133280 On ch=1 n=a6 v=0
133280 On ch=1 n=b6 v=75
133280 On ch=1 n=b4 v=60
133360 On ch=1 n=b4 v=0
133360 On ch=1 n=b6 v=0
133360 On ch=1 n=a6 v=75
133360 On ch=1 n=a4 v=60
133435 On ch=1 n=a4 v=0
133435 On ch=1 n=a6 v=0
133440 On ch=1 n=b6 v=75
133440 On ch=1 n=b4 v=60
133520 On ch=1 n=b4 v=0
133520 On ch=1 n=b6 v=0
133520 On ch=1 n=c7 v=75
133520 On ch=1 n=c5 v=60
133600 On ch=1 n=c5 v=0
133600 On ch=1 n=c7 v=0
133600 On ch=1 n=b6 v=75
133600 On ch=1 n=b4 v=60
133675 On ch=1 n=b4 v=0
133675 On ch=1 n=b6 v=0
133680 On ch=1 n=g#6 v=75
133680 On ch=1 n=g#4 v=60
133760 On ch=1 n=g#4 v=0
133760 On ch=1 n=g#6 v=0
133760 On ch=1 n=a6 v=75
133760 On ch=1 n=a4 v=60
133840 On ch=1 n=a4 v=0
133840 On ch=1 n=a6 v=0
133840 On ch=1 n=g#6 v=75
133840 On ch=1 n=g#4 v=60
133915 On ch=1 n=g#4 v=0
133915 On ch=1 n=g#6 v=0
133920 On ch=1 n=e6 v=75
133920 On ch=1 n=e4 v=60
134000 On ch=1 n=e4 v=0
134000 On ch=1 n=e6 v=0
134000 On ch=1 n=f6 v=75
134000 On ch=1 n=f4 v=60
134080 On ch=1 n=f4 v=0
134080 On ch=1 n=f6 v=0
134080 On ch=1 n=e6 v=75
134080 On ch=1 n=e4 v=60
134155 On ch=1 n=e4 v=0
134155 On ch=1 n=e6 v=0
134160 On ch=1 n=d5 v=75
134160 On ch=1 n=e5 v=75
134160 On ch=1 n=b5 v=75
134160 On ch=1 n=a3 v=60
134160 On ch=1 n=g4 v=60
134240 On ch=1 n=g4 v=0
134240 On ch=1 n=a3 v=0
134240 On ch=1 n=b5 v=0
134240 On ch=1 n=e5 v=0
134240 On ch=1 n=d5 v=0
134400 On ch=1 n=e7 v=75
134400 On ch=1 n=e5 v=60
134480 On ch=1 n=e5 v=0
134480 On ch=1 n=e7 v=0
134480 On ch=1 n=f7 v=75
134480 On ch=1 n=f5 v=60
134560 On ch=1 n=f5 v=0
134560 On ch=1 n=f7 v=0
134560 On ch=1 n=e7 v=75
134560 On ch=1 n=e5 v=60
134640 On ch=1 n=e5 v=0
134640 On ch=1 n=e7 v=0
134640 On ch=1 n=c7 v=75
134640 On ch=1 n=c5 v=60
134880 On ch=1 n=c6 v=75
134880 On ch=1 n=e6 v=75
134880 On ch=1 n=a3 v=60
134880 On ch=1 n=e4 v=60
134960 On ch=1 n=e4 v=0
134960 On ch=1 n=a3 v=0
134960 On ch=1 n=e6 v=0
134960 On ch=1 n=c6 v=0
135040 On ch=1 n=c5 v=0
135040 On ch=1 n=c7 v=0
135120 On ch=1 n=e5 v=75
135120 On ch=1 n=c5 v=75
135120 On ch=1 n=a4 v=60
135200 On ch=1 n=a4 v=0
135200 On ch=1 n=c5 v=0
135200 On ch=1 n=d5 v=75
135200 On ch=1 n=b4 v=60
135280 On ch=1 n=b4 v=0
135280 On ch=1 n=d5 v=0
135280 On ch=1 n=c5 v=75
135280 On ch=1 n=a4 v=60
135355 On ch=1 n=a4 v=0
135355 On ch=1 n=c5 v=0
135355 On ch=1 n=e5 v=0
135360 On ch=1 n=e5 v=75
135360 On ch=1 n=b4 v=75
135360 On ch=1 n=g#4 v=60
135440 On ch=1 n=g#4 v=0
135440 On ch=1 n=b4 v=0
135440 On ch=1 n=c5 v=80
135440 On ch=1 n=a4 v=65
135520 On ch=1 n=a4 v=0
135520 On ch=1 n=c5 v=0
135520 On ch=1 n=b4 v=86
135520 On ch=1 n=g#4 v=70
135595 On ch=1 n=g#4 v=0
135595 On ch=1 n=b4 v=0
135595 On ch=1 n=e5 v=0
135600 On ch=1 n=a5 v=92
135600 On ch=1 n=d#5 v=92
135600 On ch=1 n=f#4 v=75
135680 On ch=1 n=f#4 v=0
135680 On ch=1 n=a5 v=0
135680 On ch=1 n=b5 v=92
135680 On ch=1 n=g#4 v=75
135760 On ch=1 n=g#4 v=0
135760 On ch=1 n=b5 v=0
135760 On ch=1 n=a5 v=92
135760 On ch=1 n=f4 v=75
135835 On ch=1 n=f4 v=0
135835 On ch=1 n=a5 v=0
135835 On ch=1 n=d#5 v=0
135840 On ch=1 n=g#5 v=92
135840 On ch=1 n=e5 v=92
135840 On ch=1 n=e4 v=75
135920 On ch=1 n=e4 v=0
135920 On ch=1 n=g#5 v=0
135920 On ch=1 n=a5 v=92
135920 On ch=1 n=f4 v=75
136000 On ch=1 n=f4 v=0
136000 On ch=1 n=a5 v=0
136000 On ch=1 n=g#5 v=92
136000 On ch=1 n=e4 v=75
136075 On ch=1 n=e4 v=0
136075 On ch=1 n=g#5 v=0
136075 On ch=1 n=e5 v=0
136080 On ch=1 n=e3 v=75
136160 On ch=1 n=e3 v=0
136320 On ch=1 n=e7 v=60
136320 On ch=1 n=e5 v=45
136400 On ch=1 n=e5 v=0
136400 On ch=1 n=e7 v=0
136400 On ch=1 n=f7 v=60
136400 On ch=1 n=f5 v=45
136480 On ch=1 n=f5 v=0
136480 On ch=1 n=f7 v=0
136480 On ch=1 n=e7 v=60
136480 On ch=1 n=e5 v=45
136560 On ch=1 n=e5 v=0
136560 On ch=1 n=e7 v=0
136560 On ch=1 n=c#7 v=60
136560 On ch=1 n=c#5 v=45
136800 On ch=1 n=c#6 v=60
136800 On ch=1 n=e6 v=60
136800 On ch=1 n=a3 v=45
136800 On ch=1 n=g4 v=45
136800 On ch=1 n=a#4 v=45
136880 On ch=1 n=a#4 v=0
136880 On ch=1 n=g4 v=0
136880 On ch=1 n=a3 v=0
136880 On ch=1 n=e6 v=0
136880 On ch=1 n=c#6 v=0
136960 On ch=1 n=c#5 v=0
136960 On ch=1 n=c#7 v=0
137040 On ch=1 n=a6 v=60
137040 On ch=1 n=a4 v=45
137120 On ch=1 n=a4 v=0
137120 On ch=1 n=a6 v=0
137120 On ch=1 n=a#6 v=60
137120 On ch=1 n=a#4 v=45
137200 On ch=1 n=a#4 v=0
137200 On ch=1 n=a#6 v=0
137200 On ch=1 n=a6 v=60
137200 On ch=1 n=a4 v=45
137275 On ch=1 n=a4 v=0
137275 On ch=1 n=a6 v=0
137280 On ch=1 n=d7 v=60
137280 On ch=1 n=d5 v=45
137360 On ch=1 n=d5 v=0
137360 On ch=1 n=d7 v=0
137360 On ch=1 n=e7 v=60
137360 On ch=1 n=e5 v=45
137440 On ch=1 n=e5 v=0
137440 On ch=1 n=e7 v=0
137440 On ch=1 n=d7 v=60
137440 On ch=1 n=d5 v=45
137515 On ch=1 n=d5 v=0
137515 On ch=1 n=d7 v=0
137520 On ch=1 n=c#5 v=84
137520 On ch=1 n=a5 v=84
137595 On ch=1 n=a5 v=0
137595 On ch=1 n=c#5 v=0
137600 On ch=1 n=e5 v=60
137600 On ch=1 n=a#5 v=60
137680 On ch=1 n=a#5 v=0
137680 On ch=1 n=e5 v=0
137680 On ch=1 n=a5 v=60
137755 On ch=1 n=a5 v=0
137760 On ch=1 n=a4 v=84
137760 On ch=1 n=f5 v=84
137835 On ch=1 n=f5 v=0
137835 On ch=1 n=a4 v=0
137840 On ch=1 n=d5 v=60
137840 On ch=1 n=g5 v=60
137920 On ch=1 n=g5 v=0
137920 On ch=1 n=d5 v=0
137920 On ch=1 n=f5 v=60
137940 On ch=1 n=f4 v=45
137970 On ch=1 n=a4 v=45
137995 On ch=1 n=f5 v=0
138000 On ch=1 n=d5 v=45
138080 On ch=1 n=d5 v=0
138080 On ch=1 n=a4 v=0
138080 On ch=1 n=f4 v=0
138240 On ch=1 n=d7 v=60
138240 On ch=1 n=d5 v=45
138320 On ch=1 n=d5 v=0
138320 On ch=1 n=d7 v=0
138320 On ch=1 n=e7 v=60
138320 On ch=1 n=e5 v=45
138400 On ch=1 n=e5 v=0
138400 On ch=1 n=e7 v=0
138400 On ch=1 n=d7 v=60
138400 On ch=1 n=d5 v=45
138480 On ch=1 n=d5 v=0
138480 On ch=1 n=d7 v=0
138480 On ch=1 n=b6 v=60
138480 On ch=1 n=b4 v=45
138720 On ch=1 n=b5 v=60
138720 On ch=1 n=d6 v=60
138720 On ch=1 n=g3 v=45
138720 On ch=1 n=f4 v=45
138720 On ch=1 n=g#4 v=45
138800 On ch=1 n=g#4 v=0
138800 On ch=1 n=f4 v=0
138800 On ch=1 n=g3 v=0
138800 On ch=1 n=d6 v=0
138800 On ch=1 n=b5 v=0
138880 On ch=1 n=b4 v=0
138880 On ch=1 n=b6 v=0
138960 On ch=1 n=g6 v=60
138960 On ch=1 n=g4 v=45
139040 On ch=1 n=g4 v=0
139040 On ch=1 n=g6 v=0
139040 On ch=1 n=a6 v=60
139040 On ch=1 n=a4 v=45
139120 On ch=1 n=a4 v=0
139120 On ch=1 n=a6 v=0
139120 On ch=1 n=g6 v=60
139120 On ch=1 n=g4 v=45
139195 On ch=1 n=g4 v=0
139195 On ch=1 n=g6 v=0
139200 On ch=1 n=c7 v=60
139200 On ch=1 n=c5 v=45
139280 On ch=1 n=c5 v=0
139280 On ch=1 n=c7 v=0
139280 On ch=1 n=d7 v=60
139280 On ch=1 n=d5 v=45
139360 On ch=1 n=d5 v=0
139360 On ch=1 n=d7 v=0
139360 On ch=1 n=c7 v=60
139360 On ch=1 n=c5 v=45
139435 On ch=1 n=c5 v=0
139435 On ch=1 n=c7 v=0
139440 On ch=1 n=b4 v=84
139440 On ch=1 n=g5 v=84
139515 On ch=1 n=g5 v=0
139515 On ch=1 n=b4 v=0
139520 On ch=1 n=d5 v=60
139520 On ch=1 n=a5 v=60
139600 On ch=1 n=a5 v=0
139600 On ch=1 n=d5 v=0
139600 On ch=1 n=g5 v=60
139675 On ch=1 n=g5 v=0
139680 On ch=1 n=g4 v=84
139680 On ch=1 n=e5 v=84
139755 On ch=1 n=e5 v=0
139755 On ch=1 n=g4 v=0
139760 On ch=1 n=c5 v=60
139760 On ch=1 n=f5 v=60
139840 On ch=1 n=f5 v=0
139840 On ch=1 n=c5 v=0
139840 On ch=1 n=e5 v=60
139860 On ch=1 n=e4 v=45
139890 On ch=1 n=g4 v=45
139915 On ch=1 n=e5 v=0
139920 On ch=1 n=c5 v=45
140000 On ch=1 n=c5 v=0
140000 On ch=1 n=g4 v=0
140000 On ch=1 n=e4 v=0
140160 On ch=1 n=d7 v=92
140160 On ch=1 n=d5 v=75
140240 On ch=1 n=d5 v=0
140240 On ch=1 n=d7 v=0
140240 On ch=1 n=e7 v=92
140240 On ch=1 n=e5 v=75
140320 On ch=1 n=e5 v=0
140320 On ch=1 n=e7 v=0
140320 On ch=1 n=d7 v=92
140320 On ch=1 n=d5 v=75
140400 On ch=1 n=d5 v=0
140400 On ch=1 n=d7 v=0
140400 On ch=1 n=f7 v=127
140400 On ch=1 n=f5 v=105
140635 On ch=1 n=f5 v=0
140635 On ch=1 n=f7 v=0
140640 On ch=1 n=f6 v=92
140640 On ch=1 n=d4 v=75
140640 On ch=1 n=b4 v=75
140640 On ch=1 n=g#6 v=92
140720 On ch=1 n=g#6 v=0
140720 On ch=1 n=b4 v=0
140720 On ch=1 n=d4 v=0
140720 On ch=1 n=f6 v=0
140880 On ch=1 n=g#5 v=127
140880 On ch=1 n=f5 v=127
140880 On ch=1 n=d5 v=127
140880 On ch=1 n=b5 v=105
140920 On ch=1 n=b5 v=0
140920 On ch=1 n=d5 v=0
140920 On ch=1 n=f5 v=0
140920 On ch=1 n=g#5 v=0
140920 On ch=1 n=e5 v=92
140920 On ch=1 n=c6 v=75
140960 On ch=1 n=c6 v=0
140960 On ch=1 n=e5 v=0
140960 On ch=1 n=d5 v=92
140960 On ch=1 n=b5 v=75
140995 On ch=1 n=b5 v=0
140995 On ch=1 n=d5 v=0
141120 On ch=1 n=c7 v=92
141120 On ch=1 n=c5 v=75
141200 On ch=1 n=c5 v=0
141200 On ch=1 n=c7 v=0
141200 On ch=1 n=d7 v=92
141200 On ch=1 n=d5 v=75
141280 On ch=1 n=d5 v=0
141280 On ch=1 n=d7 v=0
141280 On ch=1 n=c7 v=92
141280 On ch=1 n=c5 v=75
141360 On ch=1 n=c5 v=0
141360 On ch=1 n=c7 v=0
141360 On ch=1 n=e7 v=92
141360 On ch=1 n=e5 v=75
141600 On ch=1 n=e6 v=92
141600 On ch=1 n=a6 v=92
141600 On ch=1 n=c4 v=45
141600 On ch=1 n=a4 v=45
141680 On ch=1 n=a4 v=0
141680 On ch=1 n=c4 v=0
141680 On ch=1 n=a6 v=0
141680 On ch=1 n=e6 v=0
141760 On ch=1 n=e5 v=0
141760 On ch=1 n=e7 v=0
141840 On ch=1 n=c5 v=127
141840 On ch=1 n=e5 v=127
141840 On ch=1 n=a5 v=105
141880 On ch=1 n=a5 v=0
141880 On ch=1 n=e5 v=0
141880 On ch=1 n=c5 v=0
141880 On ch=1 n=d5 v=92
141880 On ch=1 n=a#5 v=75
141920 On ch=1 n=a#5 v=0
141920 On ch=1 n=d5 v=0
141920 On ch=1 n=c5 v=92
141920 On ch=1 n=a5 v=75
141955 On ch=1 n=a5 v=0
141955 On ch=1 n=c5 v=0
142080 Tempo 750000
142080 On ch=1 n=f5 v=60
142080 On ch=1 n=b5 v=60
142080 On ch=1 n=d4 v=45
142120 On ch=1 n=b5 v=0
142120 On ch=1 n=f5 v=0
142120 On ch=1 n=a5 v=60
142120 On ch=1 n=c6 v=60
142160 On ch=1 n=c6 v=0
142160 On ch=1 n=a5 v=0
142160 On ch=1 n=d4 v=0
142160 On ch=1 n=f5 v=60
142160 On ch=1 n=b5 v=60
142175 Tempo 769230
142185 On ch=1 n=b5 v=0
142185 On ch=1 n=f5 v=0
142270 Tempo 789473
142320 On ch=1 n=a5 v=60
142320 On ch=1 n=f6 v=60
142320 On ch=1 n=d5 v=45
142320 On ch=1 n=f5 v=45
142360 On ch=1 n=f6 v=0
142360 On ch=1 n=a5 v=0
142360 On ch=1 n=b5 v=60
142360 On ch=1 n=g6 v=60
142367 Tempo 810810
142400 On ch=1 n=g6 v=0
142400 On ch=1 n=b5 v=0
142400 On ch=1 n=f5 v=0
142400 On ch=1 n=d5 v=0
142400 On ch=1 n=a5 v=60
142400 On ch=1 n=f6 v=60
142425 On ch=1 n=f6 v=0
142425 On ch=1 n=a5 v=0
142462 Tempo 833333
142560 Tempo 660534
142560 On ch=1 n=g#5 v=60
142560 On ch=1 n=e6 v=60
142560 On ch=1 n=e4 v=45
142600 On ch=1 n=e6 v=0
142600 On ch=1 n=g#5 v=0
142600 On ch=1 n=b5 v=60
142600 On ch=1 n=f6 v=60
142640 On ch=1 n=f6 v=0
142640 On ch=1 n=b5 v=0
142640 On ch=1 n=e4 v=0
142640 On ch=1 n=g#5 v=60
142640 On ch=1 n=e6 v=60
142655 Tempo 685744
142665 On ch=1 n=e6 v=0
142665 On ch=1 n=g#5 v=0
142750 Tempo 712482
142800 On ch=1 n=d6 v=60
142800 On ch=1 n=b6 v=60
142800 On ch=1 n=e5 v=45
142800 On ch=1 n=g#5 v=45
142840 On ch=1 n=b6 v=0
142840 On ch=1 n=d6 v=0
142840 On ch=1 n=e6 v=60
142840 On ch=1 n=c7 v=60
142847 Tempo 937500
142880 On ch=1 n=c7 v=0
142880 On ch=1 n=e6 v=0
142880 On ch=1 n=g#5 v=0
142880 On ch=1 n=e5 v=0
142880 On ch=1 n=d6 v=60
142880 On ch=1 n=b6 v=60
142905 On ch=1 n=b6 v=0
142905 On ch=1 n=d6 v=0
142942 Tempo 967741
143040 Tempo 1000000
143040 On ch=1 n=c6 v=60
143040 On ch=1 n=a6 v=60
143040 On ch=1 n=a4 v=45
143040 On ch=1 n=e5 v=45
143040 On ch=1 n=a5 v=45
143080 On ch=1 n=a6 v=0
143080 On ch=1 n=c6 v=0
143080 On ch=1 n=e6 v=60
143080 On ch=1 n=b6 v=60
143120 On ch=1 n=b6 v=0
143120 On ch=1 n=e6 v=0
143120 On ch=1 n=a5 v=0
143120 On ch=1 n=e5 v=0
143120 On ch=1 n=a4 v=0
143120 On ch=1 n=c6 v=60
143120 On ch=1 n=a6 v=60
143135 Tempo 1034482
143145 On ch=1 n=a6 v=0
143145 On ch=1 n=c6 v=0
143230 Tempo 1071428
143280 On ch=1 n=a6 v=60
143280 On ch=1 n=f7 v=60
143280 On ch=1 n=d3 v=45
143280 On ch=1 n=a3 v=45
143320 On ch=1 n=f7 v=0
143320 On ch=1 n=a6 v=0
143320 On ch=1 n=d7 v=60
143320 On ch=1 n=g7 v=60
143327 Tempo 1111111
143360 On ch=1 n=g7 v=0
143360 On ch=1 n=d7 v=0
143360 On ch=1 n=a3 v=0
143360 On ch=1 n=d3 v=0
143360 On ch=1 n=a6 v=60
143360 On ch=1 n=f7 v=60
143385 On ch=1 n=f7 v=0
143385 On ch=1 n=a6 v=0
143422 Tempo 1153846
143520 Tempo 1200000
143520 On ch=1 n=c7 v=60
143520 On ch=1 n=e7 v=60
143520 On ch=1 n=c8 v=60
143520 On ch=1 n=a2 v=45
143520 On ch=1 n=a3 v=45
143615 Tempo 1250000
143710 Tempo 1304347
143755 On ch=1 n=a3 v=0
143755 On ch=1 n=a2 v=0
143755 On ch=1 n=c8 v=0
143755 On ch=1 n=e7 v=0
143755 On ch=1 n=c7 v=0
143807 Tempo 1363636
143902 Tempo 1428571
144000 Tempo 1500000
144000 Tempo 375000
144960 On ch=1 n=a4 v=108
144960 On ch=1 n=c5 v=108
144960 On ch=1 n=e5 v=108
144960 On ch=1 n=a3 v=92
144960 On ch=1 n=e4 v=92
145040 On ch=1 n=e4 v=0
145040 On ch=1 n=a3 v=0
145040 On ch=1 n=e5 v=0
145040 On ch=1 n=c5 v=0
145040 On ch=1 n=a4 v=0
145200 On ch=1 n=c4 v=92
145200 On ch=1 n=e4 v=92
145280 On ch=1 n=e4 v=0
145280 On ch=1 n=c4 v=0
145320 On ch=1 n=e5 v=108
145400 On ch=1 n=e5 v=0
145440 On ch=1 n=b3 v=92
145440 On ch=1 n=e4 v=92
145520 On ch=1 n=e4 v=0
145520 On ch=1 n=b3 v=0
145560 On ch=1 n=d5 v=108
145560 On ch=1 n=e5 v=108
145640 On ch=1 n=e5 v=0
145640 On ch=1 n=d5 v=0
145680 On ch=1 n=a3 v=92
145680 On ch=1 n=e4 v=92
145760 On ch=1 n=e4 v=0
145760 On ch=1 n=a3 v=0
145800 On ch=1 n=c5 v=108
145800 On ch=1 n=e5 v=108
145915 On ch=1 n=e5 v=0
145915 On ch=1 n=c5 v=0
145920 On ch=1 n=g#3 v=92
145920 On ch=1 n=e4 v=92
146000 On ch=1 n=e4 v=0
146000 On ch=1 n=g#3 v=0
146040 On ch=1 n=b4 v=108
146040 On ch=1 n=e5 v=108
146120 On ch=1 n=e5 v=0
146120 On ch=1 n=b4 v=0
146160 On ch=1 n=e3 v=92
146160 On ch=1 n=e4 v=92
146240 On ch=1 n=e4 v=0
146240 On ch=1 n=e3 v=0
146280 On ch=1 n=b4 v=108
146280 On ch=1 n=e5 v=108
146280 On ch=1 n=b5 v=108
146360 On ch=1 n=b5 v=0
146360 On ch=1 n=e5 v=0
146360 On ch=1 n=b4 v=0
146400 On ch=1 n=f#3 v=92
146400 On ch=1 n=e4 v=92
146480 On ch=1 n=e4 v=0
146480 On ch=1 n=f#3 v=0
146520 On ch=1 n=a4 v=108
146520 On ch=1 n=e5 v=108
146600 On ch=1 n=e5 v=0
146600 On ch=1 n=a4 v=0
146640 On ch=1 n=g#3 v=92
146640 On ch=1 n=e4 v=92
146720 On ch=1 n=e4 v=0
146720 On ch=1 n=g#3 v=0
146760 On ch=1 n=b4 v=108
146760 On ch=1 n=e5 v=108
146875 On ch=1 n=e5 v=0
146875 On ch=1 n=b4 v=0
146880 On ch=1 n=a4 v=127
146880 On ch=1 n=c5 v=127
146880 On ch=1 n=e5 v=127
146880 On ch=1 n=a3 v=127
146880 On ch=1 n=e4 v=127
146960 On ch=1 n=e4 v=0
146960 On ch=1 n=a3 v=0
146960 On ch=1 n=e5 v=0
146960 On ch=1 n=c5 v=0
146960 On ch=1 n=a4 v=0
147120 On ch=1 n=c4 v=92
147120 On ch=1 n=e4 v=92
147200 On ch=1 n=e4 v=0
147200 On ch=1 n=c4 v=0
147240 On ch=1 n=e5 v=108
147320 On ch=1 n=e5 v=0
147360 On ch=1 n=b3 v=92
147360 On ch=1 n=e4 v=92
147440 On ch=1 n=e4 v=0
147440 On ch=1 n=b3 v=0
147480 On ch=1 n=d5 v=108
147480 On ch=1 n=e5 v=108
147560 On ch=1 n=e5 v=0
147560 On ch=1 n=d5 v=0
147600 On ch=1 n=a3 v=92
147600 On ch=1 n=e4 v=92
147680 On ch=1 n=e4 v=0
147680 On ch=1 n=a3 v=0
147720 On ch=1 n=c5 v=108
147720 On ch=1 n=e5 v=108
147835 On ch=1 n=e5 v=0
147835 On ch=1 n=c5 v=0
147840 On ch=1 n=g#3 v=92
147840 On ch=1 n=e4 v=92
147920 On ch=1 n=e4 v=0
147920 On ch=1 n=g#3 v=0
147960 On ch=1 n=b4 v=108
147960 On ch=1 n=e5 v=108
148040 On ch=1 n=e5 v=0
148040 On ch=1 n=b4 v=0
148080 On ch=1 n=f3 v=92
148080 On ch=1 n=d#4 v=92
148160 On ch=1 n=d#4 v=0
148160 On ch=1 n=f3 v=0
148200 On ch=1 n=b4 v=108
148200 On ch=1 n=d#5 v=108
148200 On ch=1 n=a5 v=108
148280 On ch=1 n=a5 v=0
148280 On ch=1 n=d#5 v=0
148280 On ch=1 n=b4 v=0
148320 On ch=1 n=e3 v=92
148320 On ch=1 n=e4 v=92
148400 On ch=1 n=e4 v=0
148400 On ch=1 n=e3 v=0
148440 On ch=1 n=b4 v=108
148440 On ch=1 n=e5 v=108
148440 On ch=1 n=g#5 v=108
148520 On ch=1 n=g#5 v=0
148520 On ch=1 n=e5 v=0
148520 On ch=1 n=b4 v=0
148560 On ch=1 n=e4 v=92
148560 On ch=1 n=g#4 v=92
148640 On ch=1 n=g#4 v=0
148640 On ch=1 n=e4 v=0
148680 On ch=1 n=e5 v=108
148795 On ch=1 n=e5 v=0
148800 On ch=1 n=e5 v=127
148800 On ch=1 n=a5 v=127
148800 On ch=1 n=c6 v=127
148800 On ch=1 n=e6 v=127
148800 On ch=1 n=a3 v=127
148800 On ch=1 n=a4 v=127
148880 On ch=1 n=a4 v=0
148880 On ch=1 n=a3 v=0
148880 On ch=1 n=e6 v=0
148880 On ch=1 n=c6 v=0
148880 On ch=1 n=a5 v=0
148880 On ch=1 n=e5 v=0
149040 On ch=1 n=c4 v=92
149040 On ch=1 n=c5 v=92
149120 On ch=1 n=c5 v=0
149120 On ch=1 n=c4 v=0
149160 On ch=1 n=e5 v=108
149160 On ch=1 n=e6 v=108
149240 On ch=1 n=e6 v=0
149240 On ch=1 n=e5 v=0
149280 On ch=1 n=b3 v=92
149280 On ch=1 n=b4 v=92
149360 On ch=1 n=b4 v=0
149360 On ch=1 n=b3 v=0
149400 On ch=1 n=e5 v=108
149400 On ch=1 n=d6 v=108
149400 On ch=1 n=e6 v=108
149480 On ch=1 n=e6 v=0
149480 On ch=1 n=d6 v=0
149480 On ch=1 n=e5 v=0
149520 On ch=1 n=a3 v=92
149520 On ch=1 n=a4 v=92
149600 On ch=1 n=a4 v=0
149600 On ch=1 n=a3 v=0
149640 On ch=1 n=e5 v=108
149640 On ch=1 n=c6 v=108
149640 On ch=1 n=e6 v=108
149755 On ch=1 n=e6 v=0
149755 On ch=1 n=c6 v=0
149755 On ch=1 n=e5 v=0
149760 On ch=1 n=g#3 v=92
149760 On ch=1 n=g#4 v=92
149840 On ch=1 n=g#4 v=0
149840 On ch=1 n=g#3 v=0
149880 On ch=1 n=e5 v=108
149880 On ch=1 n=b5 v=108
149880 On ch=1 n=e6 v=108
149960 On ch=1 n=e6 v=0
149960 On ch=1 n=b5 v=0
149960 On ch=1 n=e5 v=0
150000 On ch=1 n=e3 v=92
150000 On ch=1 n=e4 v=92
150080 On ch=1 n=e4 v=0
150080 On ch=1 n=e3 v=0
150120 On ch=1 n=b5 v=108
150120 On ch=1 n=b6 v=108
150200 On ch=1 n=b6 v=0
150200 On ch=1 n=b5 v=0
150240 On ch=1 n=f#3 v=92
150240 On ch=1 n=f#4 v=92
150320 On ch=1 n=f#4 v=0
150320 On ch=1 n=f#3 v=0
150360 On ch=1 n=e5 v=108
150360 On ch=1 n=a5 v=108
150360 On ch=1 n=e6 v=108
150440 On ch=1 n=e6 v=0
150440 On ch=1 n=a5 v=0
150440 On ch=1 n=e5 v=0
150480 On ch=1 n=g#3 v=92
150480 On ch=1 n=g#4 v=92
150560 On ch=1 n=g#4 v=0
150560 On ch=1 n=g#3 v=0
150600 On ch=1 n=e5 v=108
150600 On ch=1 n=b5 v=108
150600 On ch=1 n=e6 v=108
150715 On ch=1 n=e6 v=0
150715 On ch=1 n=b5 v=0
150715 On ch=1 n=e5 v=0
150720 On ch=1 n=e5 v=127
150720 On ch=1 n=a5 v=127
150720 On ch=1 n=c6 v=127
150720 On ch=1 n=e6 v=127
150720 On ch=1 n=a3 v=127
150720 On ch=1 n=a4 v=127
150800 On ch=1 n=a4 v=0
150800 On ch=1 n=a3 v=0
150800 On ch=1 n=e6 v=0
150800 On ch=1 n=c6 v=0
150800 On ch=1 n=a5 v=0
150800 On ch=1 n=e5 v=0
150960 On ch=1 n=c4 v=92
150960 On ch=1 n=c5 v=92
151040 On ch=1 n=c5 v=0
151040 On ch=1 n=c4 v=0
151080 On ch=1 n=e5 v=108
151080 On ch=1 n=e6 v=108
151160 On ch=1 n=e6 v=0
151160 On ch=1 n=e5 v=0
151200 On ch=1 n=b3 v=92
151200 On ch=1 n=b4 v=92
151280 On ch=1 n=b4 v=0
151280 On ch=1 n=b3 v=0
151320 On ch=1 n=e5 v=108
151320 On ch=1 n=d6 v=108
151320 On ch=1 n=e6 v=108
151400 On ch=1 n=e6 v=0
151400 On ch=1 n=d6 v=0
151400 On ch=1 n=e5 v=0
151440 On ch=1 n=a3 v=92
151440 On ch=1 n=a4 v=92
151520 On ch=1 n=a4 v=0
151520 On ch=1 n=a3 v=0
151560 On ch=1 n=e5 v=108
151560 On ch=1 n=c6 v=108
151560 On ch=1 n=e6 v=108
151675 On ch=1 n=e6 v=0
151675 On ch=1 n=c6 v=0
151675 On ch=1 n=e5 v=0
151680 On ch=1 n=g#3 v=92
151680 On ch=1 n=g#4 v=92
151760 On ch=1 n=g#4 v=0
151760 On ch=1 n=g#3 v=0
151800 On ch=1 n=e5 v=108
151800 On ch=1 n=b5 v=108
151800 On ch=1 n=e6 v=108
151880 On ch=1 n=e6 v=0
151880 On ch=1 n=b5 v=0
151880 On ch=1 n=e5 v=0
151920 On ch=1 n=f3 v=92
151920 On ch=1 n=f4 v=92
152000 On ch=1 n=f4 v=0
152000 On ch=1 n=f3 v=0
152040 On ch=1 n=a5 v=108
152040 On ch=1 n=d#6 v=108
152040 On ch=1 n=a6 v=108
152120 On ch=1 n=a6 v=0
152120 On ch=1 n=d#6 v=0
152120 On ch=1 n=a5 v=0
152160 On ch=1 n=e3 v=92
152160 On ch=1 n=e4 v=92
152240 On ch=1 n=e4 v=0
152240 On ch=1 n=e3 v=0
152280 On ch=1 n=g#5 v=108
152280 On ch=1 n=e6 v=108
152280 On ch=1 n=g#6 v=108
152360 On ch=1 n=g#6 v=0
152360 On ch=1 n=e6 v=0
152360 On ch=1 n=g#5 v=0
152400 On ch=1 n=g#4 v=92
152400 On ch=1 n=b4 v=92
152400 On ch=1 n=e5 v=92
152520 On ch=1 n=g#5 v=108
152520 On ch=1 n=b5 v=108
152520 On ch=1 n=e6 v=108
152635 On ch=1 n=e6 v=0
152635 On ch=1 n=b5 v=0
152635 On ch=1 n=g#5 v=0
152635 On ch=1 n=e5 v=0
152635 On ch=1 n=b4 v=0
152635 On ch=1 n=g#4 v=0
152640 On ch=1 n=e5 v=127
152640 On ch=1 n=a5 v=127
152640 On ch=1 n=c#6 v=127
152640 On ch=1 n=e6 v=127
152640 On ch=1 n=a3 v=127
152640 On ch=1 n=a4 v=127
152720 On ch=1 n=a4 v=0
152720 On ch=1 n=a3 v=0
152720 On ch=1 n=e6 v=0
152720 On ch=1 n=c#6 v=0
152720 On ch=1 n=a5 v=0
152720 On ch=1 n=e5 v=0
152880 On ch=1 n=b3 v=92
152880 On ch=1 n=b4 v=92
152960 On ch=1 n=b4 v=0
152960 On ch=1 n=b3 v=0
153000 On ch=1 n=e5 v=109
153000 On ch=1 n=a5 v=109
153000 On ch=1 n=d6 v=109
153000 On ch=1 n=e6 v=109
153080 On ch=1 n=e6 v=0
153080 On ch=1 n=d6 v=0
153080 On ch=1 n=a5 v=0
153080 On ch=1 n=e5 v=0
153120 On ch=1 n=c#4 v=94
153120 On ch=1 n=c#5 v=94
153200 On ch=1 n=c#5 v=0
153200 On ch=1 n=c#4 v=0
153240 On ch=1 n=e5 v=111
153240 On ch=1 n=a5 v=111
153240 On ch=1 n=e6 v=111
153320 On ch=1 n=e6 v=0
153320 On ch=1 n=a5 v=0
153320 On ch=1 n=e5 v=0
153360 On ch=1 n=a3 v=96
153360 On ch=1 n=a4 v=96
153440 On ch=1 n=a4 v=0
153440 On ch=1 n=a3 v=0
153480 On ch=1 n=e5 v=113
153480 On ch=1 n=c#6 v=113
153480 On ch=1 n=e6 v=113
153595 On ch=1 n=e6 v=0
153595 On ch=1 n=c#6 v=0
153595 On ch=1 n=e5 v=0
153600 On ch=1 n=d4 v=98
153600 On ch=1 n=d5 v=98
153680 On ch=1 n=d5 v=0
153680 On ch=1 n=d4 v=0
153720 On ch=1 n=d6 v=115
153720 On ch=1 n=f6 v=115
153720 On ch=1 n=d7 v=115
153800 On ch=1 n=d7 v=0
153800 On ch=1 n=f6 v=0
153800 On ch=1 n=d6 v=0
153840 On ch=1 n=c#5 v=100
153840 On ch=1 n=a#5 v=100
153920 On ch=1 n=a#5 v=0
153920 On ch=1 n=c#5 v=0
153960 On ch=1 n=e6 v=118
153960 On ch=1 n=g6 v=118
153960 On ch=1 n=e7 v=118
154040 On ch=1 n=e7 v=0
154040 On ch=1 n=g6 v=0
154040 On ch=1 n=e6 v=0
154080 On ch=1 n=d5 v=102
154080 On ch=1 n=a5 v=102
154160 On ch=1 n=a5 v=0
154160 On ch=1 n=d5 v=0
154200 On ch=1 n=f6 v=121
154200 On ch=1 n=a6 v=121
154200 On ch=1 n=f7 v=121
154280 On ch=1 n=f7 v=0
154280 On ch=1 n=a6 v=0
154280 On ch=1 n=f6 v=0
154320 On ch=1 n=f5 v=105
154320 On ch=1 n=a5 v=105
154400 On ch=1 n=a5 v=0
154400 On ch=1 n=f5 v=0
154440 On ch=1 n=d6 v=125
154440 On ch=1 n=f6 v=125
154440 On ch=1 n=d7 v=125
154555 On ch=1 n=d7 v=0
154555 On ch=1 n=f6 v=0
154555 On ch=1 n=d6 v=0
154560 On ch=1 n=d5 v=127
154560 On ch=1 n=g5 v=127
154560 On ch=1 n=b5 v=127
154560 On ch=1 n=d6 v=127
154560 On ch=1 n=g3 v=108
154560 On ch=1 n=g4 v=108
154640 On ch=1 n=g4 v=0
154640 On ch=1 n=g3 v=0
154640 On ch=1 n=d6 v=0
154640 On ch=1 n=b5 v=0
154640 On ch=1 n=g5 v=0
154640 On ch=1 n=d5 v=0
154800 On ch=1 n=a3 v=92
154800 On ch=1 n=a4 v=92
154880 On ch=1 n=a4 v=0
154880 On ch=1 n=a3 v=0
154920 On ch=1 n=d5 v=108
154920 On ch=1 n=g5 v=108
154920 On ch=1 n=c6 v=108
154920 On ch=1 n=d6 v=108
155000 On ch=1 n=d6 v=0
155000 On ch=1 n=c6 v=0
155000 On ch=1 n=g5 v=0
155000 On ch=1 n=d5 v=0
155040 On ch=1 n=b3 v=92
155040 On ch=1 n=b4 v=92
155120 On ch=1 n=b4 v=0
155120 On ch=1 n=b3 v=0
155160 On ch=1 n=d5 v=108
155160 On ch=1 n=g5 v=108
155160 On ch=1 n=d6 v=108
155240 On ch=1 n=d6 v=0
155240 On ch=1 n=g5 v=0
155240 On ch=1 n=d5 v=0
155280 On ch=1 n=g3 v=94
155280 On ch=1 n=g4 v=94
155360 On ch=1 n=g4 v=0
155360 On ch=1 n=g3 v=0
155400 On ch=1 n=d5 v=111
155400 On ch=1 n=b5 v=111
155400 On ch=1 n=d6 v=111
155515 On ch=1 n=d6 v=0
155515 On ch=1 n=b5 v=0
155515 On ch=1 n=d5 v=0
155520 On ch=1 n=c4 v=96
155520 On ch=1 n=c5 v=96
155600 On ch=1 n=c5 v=0
155600 On ch=1 n=c4 v=0
155640 On ch=1 n=e6 v=113
155640 On ch=1 n=c7 v=113
155640 On ch=1 n=e7 v=113
155720 On ch=1 n=e7 v=0
155720 On ch=1 n=c7 v=0
155720 On ch=1 n=e6 v=0
155760 On ch=1 n=d5 v=99
155760 On ch=1 n=g5 v=99
155840 On ch=1 n=g5 v=0
155840 On ch=1 n=d5 v=0
155880 On ch=1 n=f6 v=117
155880 On ch=1 n=c7 v=117
155880 On ch=1 n=f7 v=117
155960 On ch=1 n=f7 v=0
155960 On ch=1 n=c7 v=0
155960 On ch=1 n=f6 v=0
156000 On ch=1 n=e5 v=102
156000 On ch=1 n=g5 v=102
156080 On ch=1 n=g5 v=0
156080 On ch=1 n=e5 v=0
156120 On ch=1 n=g6 v=121
156120 On ch=1 n=c7 v=121
156120 On ch=1 n=g7 v=121
156200 On ch=1 n=g7 v=0
156200 On ch=1 n=c7 v=0
156200 On ch=1 n=g6 v=0
156240 On ch=1 n=c5 v=105
156240 On ch=1 n=g5 v=105
156320 On ch=1 n=g5 v=0
156320 On ch=1 n=c5 v=0
156360 On ch=1 n=e6 v=125
156360 On ch=1 n=c7 v=125
156360 On ch=1 n=e7 v=125
156475 On ch=1 n=e7 v=0
156475 On ch=1 n=c7 v=0
156475 On ch=1 n=e6 v=0
156480 On ch=1 n=f6 v=127
156480 On ch=1 n=g#6 v=127
156480 On ch=1 n=b6 v=127
156480 On ch=1 n=f7 v=127
156480 On ch=1 n=d4 v=127
156480 On ch=1 n=d5 v=127
156560 On ch=1 n=d5 v=0
156560 On ch=1 n=d4 v=0
156560 On ch=1 n=f7 v=0
156560 On ch=1 n=b6 v=0
156560 On ch=1 n=g#6 v=0
156560 On ch=1 n=f6 v=0
156720 On ch=1 n=f5 v=92
156720 On ch=1 n=g#5 v=92
156720 On ch=1 n=b5 v=92
156800 On ch=1 n=b5 v=0
156800 On ch=1 n=g#5 v=0
156800 On ch=1 n=f5 v=0
156840 On ch=1 n=d6 v=108
156840 On ch=1 n=g#6 v=108
156840 On ch=1 n=b6 v=108
156840 On ch=1 n=d7 v=108
156920 On ch=1 n=d7 v=0
156920 On ch=1 n=b6 v=0
156920 On ch=1 n=g#6 v=0
156920 On ch=1 n=d6 v=0
156960 On ch=1 n=e5 v=92
156960 On ch=1 n=g#5 v=92
156960 On ch=1 n=b5 v=92
157040 On ch=1 n=b5 v=0
157040 On ch=1 n=g#5 v=0
157040 On ch=1 n=e5 v=0
157080 On ch=1 n=e6 v=108
157080 On ch=1 n=g#6 v=108
157080 On ch=1 n=b6 v=108
157080 On ch=1 n=e7 v=108
157160 On ch=1 n=e7 v=0
157160 On ch=1 n=b6 v=0
157160 On ch=1 n=g#6 v=0
157160 On ch=1 n=e6 v=0
157200 On ch=1 n=d5 v=92
157200 On ch=1 n=g#5 v=92
157200 On ch=1 n=b5 v=92
157280 On ch=1 n=b5 v=0
157280 On ch=1 n=g#5 v=0
157280 On ch=1 n=d5 v=0
157320 On ch=1 n=f6 v=108
157320 On ch=1 n=g#6 v=108
157320 On ch=1 n=b6 v=108
157320 On ch=1 n=f7 v=108
157435 On ch=1 n=f7 v=0
157435 On ch=1 n=b6 v=0
157435 On ch=1 n=g#6 v=0
157435 On ch=1 n=f6 v=0
157440 On ch=1 n=c5 v=92
157440 On ch=1 n=g5 v=92
157440 On ch=1 n=c6 v=92
157520 On ch=1 n=c6 v=0
157520 On ch=1 n=g5 v=0
157520 On ch=1 n=c5 v=0
157560 On ch=1 n=e6 v=108
157560 On ch=1 n=a6 v=108
157560 On ch=1 n=e7 v=108
157640 On ch=1 n=e7 v=0
157640 On ch=1 n=a6 v=0
157640 On ch=1 n=e6 v=0
157680 On ch=1 n=b4 v=92
157680 On ch=1 n=f5 v=92
157680 On ch=1 n=g#5 v=92
157760 On ch=1 n=g#5 v=0
157760 On ch=1 n=f5 v=0
157760 On ch=1 n=b4 v=0
157800 On ch=1 n=d6 v=108
157800 On ch=1 n=f6 v=108
157800 On ch=1 n=g#6 v=108
157800 On ch=1 n=d7 v=108
157880 On ch=1 n=d7 v=0
157880 On ch=1 n=g#6 v=0
157880 On ch=1 n=f6 v=0
157880 On ch=1 n=d6 v=0
157920 On ch=1 n=a4 v=92
157920 On ch=1 n=e5 v=92
157920 On ch=1 n=a5 v=92
158000 On ch=1 n=a5 v=0
158000 On ch=1 n=e5 v=0
158000 On ch=1 n=a4 v=0
158040 On ch=1 n=c6 v=108
158040 On ch=1 n=e6 v=108
158040 On ch=1 n=a6 v=108
158040 On ch=1 n=c7 v=108
158120 On ch=1 n=c7 v=0
158120 On ch=1 n=a6 v=0
158120 On ch=1 n=e6 v=0
158120 On ch=1 n=c6 v=0
158160 On ch=1 n=g4 v=92
158160 On ch=1 n=c#5 v=92
158160 On ch=1 n=e5 v=92
158240 On ch=1 n=e5 v=0
158240 On ch=1 n=c#5 v=0
158240 On ch=1 n=g4 v=0
158280 On ch=1 n=c#6 v=108
158280 On ch=1 n=e6 v=108
158280 On ch=1 n=a#6 v=108
158280 On ch=1 n=c#7 v=108
158395 On ch=1 n=c#7 v=0
158395 On ch=1 n=a#6 v=0
158395 On ch=1 n=e6 v=0
158395 On ch=1 n=c#6 v=0
158400 On ch=1 n=f4 v=92
158400 On ch=1 n=d5 v=92
158400 On ch=1 n=f5 v=92
158480 On ch=1 n=f5 v=0
158480 On ch=1 n=d5 v=0
158480 On ch=1 n=f4 v=0
158520 On ch=1 n=d6 v=108
158520 On ch=1 n=f6 v=108
158520 On ch=1 n=a#6 v=108
158520 On ch=1 n=d7 v=108
158600 On ch=1 n=d7 v=0
158600 On ch=1 n=a#6 v=0
158600 On ch=1 n=f6 v=0
158600 On ch=1 n=d6 v=0
158640 On ch=1 n=d#4 v=92
158640 On ch=1 n=a4 v=92
158640 On ch=1 n=c5 v=92
158640 On ch=1 n=d#5 v=92
158720 On ch=1 n=d#5 v=0
158720 On ch=1 n=c5 v=0
158720 On ch=1 n=a4 v=0
158720 On ch=1 n=d#4 v=0
158760 On ch=1 n=a6 v=108
158760 On ch=1 n=c7 v=108
158760 On ch=1 n=f7 v=108
158760 On ch=1 n=a7 v=108
158840 On ch=1 n=a7 v=0
158840 On ch=1 n=f7 v=0
158840 On ch=1 n=c7 v=0
158840 On ch=1 n=a6 v=0
158880 On ch=1 n=e4 v=92
158880 On ch=1 n=a4 v=92
158880 On ch=1 n=c5 v=92
158880 On ch=1 n=e5 v=92
158960 On ch=1 n=e5 v=0
158960 On ch=1 n=c5 v=0
158960 On ch=1 n=a4 v=0
158960 On ch=1 n=e4 v=0
159000 On ch=1 n=a6 v=108
159000 On ch=1 n=c7 v=108
159000 On ch=1 n=e7 v=108
159000 On ch=1 n=a7 v=108
159080 On ch=1 n=a7 v=0
159080 On ch=1 n=e7 v=0
159080 On ch=1 n=c7 v=0
159080 On ch=1 n=a6 v=0
159120 On ch=1 n=e4 v=92
159120 On ch=1 n=g#4 v=92
159120 On ch=1 n=b4 v=92
159120 On ch=1 n=e5 v=92
159200 On ch=1 n=e5 v=0
159200 On ch=1 n=b4 v=0
159200 On ch=1 n=g#4 v=0
159200 On ch=1 n=e4 v=0
159240 On ch=1 n=g#6 v=108
159240 On ch=1 n=b6 v=108
159240 On ch=1 n=e7 v=108
159240 On ch=1 n=g#7 v=108
159355 On ch=1 n=g#7 v=0
159355 On ch=1 n=e7 v=0
159355 On ch=1 n=b6 v=0
159355 On ch=1 n=g#6 v=0
159360 Tempo 500000
159360 On ch=1 n=a6 v=127
159360 On ch=1 n=c7 v=127
159360 On ch=1 n=e7 v=127
159360 On ch=1 n=a7 v=127
159360 On ch=1 n=a3 v=127
159360 On ch=1 n=e4 v=127
159360 On ch=1 n=a4 v=127
159840 On ch=1 n=a4 v=0
159840 On ch=1 n=e4 v=0
159840 On ch=1 n=a3 v=0
159840 On ch=1 n=a7 v=0
159840 On ch=1 n=e7 v=0
159840 On ch=1 n=c7 v=0
159840 On ch=1 n=a6 v=0
159840 On ch=1 n=c6 v=108
159840 On ch=1 n=e6 v=108
159840 On ch=1 n=a6 v=108
159840 On ch=1 n=c5 v=92
159840 On ch=1 n=e5 v=92
159840 On ch=1 n=a5 v=92
159920 On ch=1 n=a5 v=0
159920 On ch=1 n=e5 v=0
159920 On ch=1 n=c5 v=0
159920 On ch=1 n=a6 v=0
159920 On ch=1 n=e6 v=0
159920 On ch=1 n=c6 v=0
160320 Tempo 375000
161250 On ch=1 n=e6 v=60
161280 On ch=1 n=c7 v=84
161280 On ch=1 n=a4 v=45
161360 On ch=1 n=c7 v=0
161395 On ch=1 n=a4 v=0
161400 On ch=1 n=a6 v=60
161400 On ch=1 n=e5 v=45
161480 On ch=1 n=e5 v=0
161480 On ch=1 n=a6 v=0
161515 On ch=1 n=e6 v=0
161520 On ch=1 n=e6 v=60
161520 On ch=1 n=e4 v=45
161600 On ch=1 n=e4 v=0
161600 On ch=1 n=e6 v=0
161640 On ch=1 n=c6 v=60
161640 On ch=1 n=e5 v=45
161720 On ch=1 n=e5 v=0
161720 On ch=1 n=c6 v=0
161760 On ch=1 n=a5 v=60
161760 On ch=1 n=c5 v=45
161840 On ch=1 n=c5 v=0
161840 On ch=1 n=a5 v=0
161880 On ch=1 n=e6 v=60
161880 On ch=1 n=e5 v=45
161960 On ch=1 n=e5 v=0
161960 On ch=1 n=e6 v=0
162000 On ch=1 n=c6 v=60
162000 On ch=1 n=a4 v=45
162080 On ch=1 n=a4 v=0
162080 On ch=1 n=c6 v=0
162120 On ch=1 n=a5 v=60
162120 On ch=1 n=e5 v=45
162200 On ch=1 n=e5 v=0
162200 On ch=1 n=a5 v=0
162210 On ch=1 n=e6 v=60
162240 On ch=1 n=b6 v=84
162240 On ch=1 n=g#4 v=45
162320 On ch=1 n=g#4 v=0
162320 On ch=1 n=b6 v=0
162360 On ch=1 n=g#6 v=60
162360 On ch=1 n=e5 v=45
162440 On ch=1 n=e5 v=0
162440 On ch=1 n=g#6 v=0
162475 On ch=1 n=e6 v=0
162480 On ch=1 n=e6 v=60
162480 On ch=1 n=e4 v=45
162560 On ch=1 n=e4 v=0
162560 On ch=1 n=e6 v=0
162600 On ch=1 n=d7 v=60
162600 On ch=1 n=e5 v=45
162680 On ch=1 n=e5 v=0
162680 On ch=1 n=d7 v=0
162720 On ch=1 n=b6 v=60
162720 On ch=1 n=g#4 v=45
162800 On ch=1 n=g#4 v=0
162800 On ch=1 n=b6 v=0
162840 On ch=1 n=e6 v=60
162840 On ch=1 n=e5 v=45
162920 On ch=1 n=e5 v=0
162920 On ch=1 n=e6 v=0
162960 On ch=1 n=g#6 v=60
162960 On ch=1 n=b4 v=45
163040 On ch=1 n=b4 v=0
163040 On ch=1 n=g#6 v=0
163080 On ch=1 n=e6 v=60
163080 On ch=1 n=e5 v=45
163160 On ch=1 n=e5 v=0
163160 On ch=1 n=e6 v=0
163170 On ch=1 n=e6 v=60
163200 On ch=1 n=c7 v=84
163200 On ch=1 n=a4 v=45
163280 On ch=1 n=a4 v=0
163280 On ch=1 n=c7 v=0
163320 On ch=1 n=a6 v=60
163320 On ch=1 n=e5 v=45
163400 On ch=1 n=e5 v=0
163400 On ch=1 n=a6 v=0
163435 On ch=1 n=e6 v=0
163440 On ch=1 n=e6 v=60
163440 On ch=1 n=e4 v=45
163520 On ch=1 n=e4 v=0
163520 On ch=1 n=e6 v=0
163560 On ch=1 n=c6 v=60
163560 On ch=1 n=e5 v=45
163640 On ch=1 n=e5 v=0
163640 On ch=1 n=c6 v=0
163680 On ch=1 n=a5 v=60
163680 On ch=1 n=c5 v=45
163760 On ch=1 n=c5 v=0
163760 On ch=1 n=a5 v=0
163800 On ch=1 n=e6 v=60
163800 On ch=1 n=e5 v=45
163880 On ch=1 n=e5 v=0
163880 On ch=1 n=e6 v=0
163920 On ch=1 n=c6 v=60
163920 On ch=1 n=a4 v=45
164000 On ch=1 n=a4 v=0
164000 On ch=1 n=c6 v=0
164040 On ch=1 n=a5 v=60
164040 On ch=1 n=e5 v=45
164120 On ch=1 n=e5 v=0
164120 On ch=1 n=a5 v=0
164130 On ch=1 n=e6 v=60
164160 On ch=1 n=b6 v=84
164160 On ch=1 n=g#4 v=45
164240 On ch=1 n=g#4 v=0
164240 On ch=1 n=b6 v=0
164280 On ch=1 n=g#6 v=60
164280 On ch=1 n=e5 v=45
164360 On ch=1 n=e5 v=0
164360 On ch=1 n=g#6 v=0
164395 On ch=1 n=e6 v=0
164400 On ch=1 n=e6 v=60
164400 On ch=1 n=e4 v=45
164480 On ch=1 n=e4 v=0
164480 On ch=1 n=e6 v=0
164520 On ch=1 n=e6 v=60
164520 On ch=1 n=e5 v=45
164600 On ch=1 n=e5 v=0
164600 On ch=1 n=e6 v=0
164640 On ch=1 n=b5 v=60
164640 On ch=1 n=g#4 v=45
164720 On ch=1 n=g#4 v=0
164720 On ch=1 n=b5 v=0
164760 On ch=1 n=g#5 v=60
164760 On ch=1 n=b4 v=45
164840 On ch=1 n=b4 v=0
164840 On ch=1 n=g#5 v=0
164880 On ch=1 n=e5 v=63
164960 On ch=1 n=e5 v=0
165060 On ch=1 n=c7 v=60
165090 On ch=1 n=e7 v=60
165120 On ch=1 n=c8 v=84
165120 On ch=1 n=a4 v=45
165200 On ch=1 n=a4 v=0
165200 On ch=1 n=c8 v=0
165240 On ch=1 n=a7 v=60
165240 On ch=1 n=e5 v=45
165320 On ch=1 n=e5 v=0
165320 On ch=1 n=a7 v=0
165355 On ch=1 n=e7 v=0
165355 On ch=1 n=c7 v=0
165360 On ch=1 n=e7 v=60
165360 On ch=1 n=e4 v=45
165440 On ch=1 n=e4 v=0
165440 On ch=1 n=e7 v=0
165480 On ch=1 n=c7 v=60
165480 On ch=1 n=e5 v=45
165560 On ch=1 n=e5 v=0
165560 On ch=1 n=c7 v=0
165600 On ch=1 n=a6 v=60
165600 On ch=1 n=c5 v=45
165680 On ch=1 n=c5 v=0
165680 On ch=1 n=a6 v=0
165720 On ch=1 n=e7 v=60
165720 On ch=1 n=e5 v=45
165800 On ch=1 n=e5 v=0
165800 On ch=1 n=e7 v=0
165840 On ch=1 n=c7 v=60
165840 On ch=1 n=a4 v=45
165920 On ch=1 n=a4 v=0
165920 On ch=1 n=c7 v=0
165960 On ch=1 n=a6 v=60
165960 On ch=1 n=e5 v=45
166020 On ch=1 n=b6 v=60
166040 On ch=1 n=e5 v=0
166040 On ch=1 n=a6 v=0
166050 On ch=1 n=e7 v=60
166080 On ch=1 n=b7 v=60
166080 On ch=1 n=g#4 v=45
166160 On ch=1 n=g#4 v=0
166160 On ch=1 n=b7 v=0
166200 On ch=1 n=g#7 v=60
166200 On ch=1 n=e5 v=45
166280 On ch=1 n=e5 v=0
166280 On ch=1 n=g#7 v=0
166315 On ch=1 n=e7 v=0
166315 On ch=1 n=b6 v=0
166320 On ch=1 n=e7 v=60
166320 On ch=1 n=e4 v=45
166400 On ch=1 n=e4 v=0
166400 On ch=1 n=e7 v=0
166440 On ch=1 n=d8 v=60
166440 On ch=1 n=e5 v=45
166520 On ch=1 n=e5 v=0
166520 On ch=1 n=d8 v=0
166560 On ch=1 n=b7 v=60
166560 On ch=1 n=g#4 v=45
166640 On ch=1 n=g#4 v=0
166640 On ch=1 n=b7 v=0
166680 On ch=1 n=e7 v=60
166680 On ch=1 n=e5 v=45
166760 On ch=1 n=e5 v=0
166760 On ch=1 n=e7 v=0
166800 On ch=1 n=g#7 v=60
166800 On ch=1 n=b4 v=45
166880 On ch=1 n=b4 v=0
166880 On ch=1 n=g#7 v=0
166920 On ch=1 n=e7 v=60
166920 On ch=1 n=e5 v=45
166980 On ch=1 n=c7 v=60
167000 On ch=1 n=e5 v=0
167000 On ch=1 n=e7 v=0
167010 On ch=1 n=e7 v=60
167040 On ch=1 n=c8 v=84
167040 On ch=1 n=a4 v=45
167120 On ch=1 n=a4 v=0
167120 On ch=1 n=c8 v=0
167160 On ch=1 n=a7 v=60
167160 On ch=1 n=e5 v=45
167240 On ch=1 n=e5 v=0
167240 On ch=1 n=a7 v=0
167275 On ch=1 n=e7 v=0
167275 On ch=1 n=c7 v=0
167280 On ch=1 n=e7 v=60
167280 On ch=1 n=e4 v=45
167360 On ch=1 n=e4 v=0
167360 On ch=1 n=e7 v=0
167400 On ch=1 n=c7 v=60
167400 On ch=1 n=e5 v=45
167480 On ch=1 n=e5 v=0
167480 On ch=1 n=c7 v=0
167520 On ch=1 n=a6 v=60
167520 On ch=1 n=c5 v=45
167600 On ch=1 n=c5 v=0
167600 On ch=1 n=a6 v=0
167640 On ch=1 n=e7 v=60
167640 On ch=1 n=e5 v=45
167720 On ch=1 n=e5 v=0
167720 On ch=1 n=e7 v=0
167760 On ch=1 n=c7 v=60
167760 On ch=1 n=a4 v=45
167840 On ch=1 n=a4 v=0
167840 On ch=1 n=c7 v=0
167880 On ch=1 n=a6 v=60
167880 On ch=1 n=e5 v=45
167940 On ch=1 n=b6 v=60
167960 On ch=1 n=e5 v=0
167960 On ch=1 n=a6 v=0
167970 On ch=1 n=e7 v=60
168000 On ch=1 n=b7 v=84
168000 On ch=1 n=g#4 v=45
168080 On ch=1 n=g#4 v=0
168080 On ch=1 n=b7 v=0
168120 On ch=1 n=g#7 v=60
168120 On ch=1 n=e5 v=45
168200 On ch=1 n=e5 v=0
168200 On ch=1 n=g#7 v=0
168235 On ch=1 n=e7 v=0
168235 On ch=1 n=b6 v=0
168240 On ch=1 n=e7 v=60
168240 On ch=1 n=e4 v=45
168320 On ch=1 n=e4 v=0
168320 On ch=1 n=e7 v=0
168360 On ch=1 n=b6 v=60
168360 On ch=1 n=e5 v=45
168440 On ch=1 n=e5 v=0
168440 On ch=1 n=b6 v=0
168480 On ch=1 n=g#6 v=60
168480 On ch=1 n=b4 v=45
168560 On ch=1 n=b4 v=0
168560 On ch=1 n=g#6 v=0
168600 On ch=1 n=b5 v=60
168600 On ch=1 n=g#5 v=45
168680 On ch=1 n=g#5 v=0
168680 On ch=1 n=b5 v=0
168720 On ch=1 n=e6 v=84
168720 On ch=1 n=e5 v=63
168800 On ch=1 n=e5 v=0
168800 On ch=1 n=e6 v=0
168930 On ch=1 n=a6 v=84
168960 On ch=1 n=e7 v=60
168960 On ch=1 n=c#5 v=45
169040 On ch=1 n=c#5 v=0
169040 On ch=1 n=e7 v=0
169080 On ch=1 n=c#7 v=60
169080 On ch=1 n=a5 v=45
169160 On ch=1 n=a5 v=0
169160 On ch=1 n=c#7 v=0
169200 On ch=1 n=a6 v=60
169200 On ch=1 n=a4 v=45
169280 On ch=1 n=a4 v=0
169280 On ch=1 n=a6 v=0
169320 On ch=1 n=e6 v=60
169320 On ch=1 n=a5 v=45
169360 On ch=1 n=a6 v=0
169400 On ch=1 n=a5 v=0
169400 On ch=1 n=e6 v=0
169440 On ch=1 n=c#6 v=60
169520 On ch=1 n=c#6 v=0
169560 On ch=1 n=a5 v=60
169640 On ch=1 n=a5 v=0
169680 On ch=1 n=g5 v=60
169760 On ch=1 n=g5 v=0
169800 On ch=1 n=e5 v=60
169880 On ch=1 n=e5 v=0
169920 On ch=1 n=f5 v=60
169920 On ch=1 n=d4 v=45
169920 On ch=1 n=a4 v=45
170000 On ch=1 n=a4 v=0
170000 On ch=1 n=d4 v=0
170000 On ch=1 n=f5 v=0
170040 On ch=1 n=d5 v=60
170120 On ch=1 n=d5 v=0
170160 On ch=1 n=d7 v=60
170240 On ch=1 n=d7 v=0
170280 On ch=1 n=a6 v=60
170360 On ch=1 n=a6 v=0
170400 On ch=1 n=f6 v=60
170480 On ch=1 n=f6 v=0
170520 On ch=1 n=d6 v=60
170600 On ch=1 n=d6 v=0
170640 On ch=1 n=f5 v=60
170720 On ch=1 n=f5 v=0
170760 On ch=1 n=d5 v=60
170840 On ch=1 n=d5 v=0
170850 On ch=1 n=g6 v=84
170880 On ch=1 n=d7 v=84
170880 On ch=1 n=b4 v=45
170960 On ch=1 n=b4 v=0
170960 On ch=1 n=d7 v=0
171000 On ch=1 n=b6 v=60
171000 On ch=1 n=g5 v=45
171080 On ch=1 n=g5 v=0
171080 On ch=1 n=b6 v=0
171120 On ch=1 n=g6 v=60
171120 On ch=1 n=g4 v=45
171200 On ch=1 n=g4 v=0
171200 On ch=1 n=g6 v=0
171240 On ch=1 n=f6 v=60
171240 On ch=1 n=g5 v=45
171280 On ch=1 n=g6 v=0
171320 On ch=1 n=g5 v=0
171320 On ch=1 n=f6 v=0
171360 On ch=1 n=d6 v=60
171440 On ch=1 n=d6 v=0
171480 On ch=1 n=b5 v=60
171560 On ch=1 n=b5 v=0
171600 On ch=1 n=f5 v=60
171680 On ch=1 n=f5 v=0
171720 On ch=1 n=d5 v=60
171800 On ch=1 n=d5 v=0
171840 On ch=1 n=e5 v=60
171840 On ch=1 n=c4 v=45
171840 On ch=1 n=g4 v=45
171920 On ch=1 n=g4 v=0
171920 On ch=1 n=c4 v=0
171920 On ch=1 n=e5 v=0
171960 On ch=1 n=c5 v=60
172040 On ch=1 n=c5 v=0
172080 On ch=1 n=c7 v=60
172160 On ch=1 n=c7 v=0
172200 On ch=1 n=g6 v=60
172280 On ch=1 n=g6 v=0
172320 On ch=1 n=e6 v=60
172400 On ch=1 n=e6 v=0
172440 On ch=1 n=c6 v=60
172520 On ch=1 n=c6 v=0
172560 On ch=1 n=e5 v=60
172640 On ch=1 n=e5 v=0
172680 On ch=1 n=c5 v=60
172760 On ch=1 n=c5 v=0
172800 On ch=1 n=b6 v=60
172800 On ch=1 n=g#4 v=45
172800 On ch=1 n=d5 v=45
172800 On ch=1 n=f5 v=45
172880 On ch=1 n=f5 v=0
172880 On ch=1 n=d5 v=0
172880 On ch=1 n=g#4 v=0
172880 On ch=1 n=b6 v=0
172920 On ch=1 n=f7 v=60
172920 On ch=1 n=a6 v=60
173000 On ch=1 n=a6 v=0
173000 On ch=1 n=f7 v=0
173040 On ch=1 n=g#6 v=60
173120 On ch=1 n=g#6 v=0
173160 On ch=1 n=d7 v=60
173160 On ch=1 n=f6 v=60
173240 On ch=1 n=f6 v=0
173240 On ch=1 n=d7 v=0
173280 On ch=1 n=e6 v=60
173360 On ch=1 n=e6 v=0
173400 On ch=1 n=b6 v=60
173400 On ch=1 n=d6 v=60
173480 On ch=1 n=d6 v=0
173480 On ch=1 n=b6 v=0
173520 On ch=1 n=c6 v=60
173600 On ch=1 n=c6 v=0
173640 On ch=1 n=g6 v=60
173640 On ch=1 n=b5 v=60
173720 On ch=1 n=b5 v=0
173720 On ch=1 n=g6 v=0
173760 Tempo 375000
173760 On ch=1 n=a5 v=60
173760 On ch=1 n=c5 v=45
173760 On ch=1 n=e5 v=45
173822 Tempo 379746
173840 On ch=1 n=e5 v=0
173840 On ch=1 n=c5 v=0
173840 On ch=1 n=a5 v=0
173880 On ch=1 n=e6 v=60
173880 On ch=1 n=g5 v=60
173887 Tempo 384615
173950 Tempo 389610
173960 On ch=1 n=g5 v=0
173960 On ch=1 n=e6 v=0
174000 On ch=1 n=f5 v=60
174015 Tempo 394736
174080 On ch=1 n=f5 v=0
174080 Tempo 400000
174120 On ch=1 n=e5 v=60
174120 On ch=1 n=c6 v=60
174142 Tempo 405405
174200 On ch=1 n=c6 v=0
174200 On ch=1 n=e5 v=0
174207 Tempo 410958
174240 On ch=1 n=d5 v=60
174270 Tempo 416666
174320 On ch=1 n=d5 v=0
174335 Tempo 422535
174360 On ch=1 n=c5 v=60
174360 On ch=1 n=a5 v=60
174400 Tempo 428571
174440 On ch=1 n=a5 v=0
174440 On ch=1 n=c5 v=0
174462 Tempo 434782
174480 On ch=1 n=b4 v=60
174527 Tempo 441176
174560 On ch=1 n=b4 v=0
174590 Tempo 447761
174600 On ch=1 n=a4 v=60
174600 On ch=1 n=e5 v=60
174655 Tempo 454545
174680 On ch=1 n=e5 v=0
174680 On ch=1 n=a4 v=0
174720 Tempo 461538
174720 On ch=1 n=f5 v=60
174782 Tempo 468750
174800 On ch=1 n=f5 v=0
174840 On ch=1 n=d4 v=60
174847 Tempo 476190
174910 Tempo 483870
174920 On ch=1 n=d4 v=0
174960 On ch=1 n=b5 v=60
174960 On ch=1 n=a6 v=60
174975 Tempo 491803
175040 On ch=1 n=a6 v=0
175040 On ch=1 n=b5 v=0
175040 Tempo 500000
175080 On ch=1 n=d6 v=60
175080 On ch=1 n=f6 v=60
175102 Tempo 508474
175160 On ch=1 n=f6 v=0
175160 On ch=1 n=d6 v=0
175167 Tempo 517241
175200 On ch=1 n=g#5 v=60
175230 Tempo 526315
175280 On ch=1 n=g#5 v=0
175295 Tempo 535714
175320 On ch=1 n=e4 v=60
175360 Tempo 545454
175400 On ch=1 n=e4 v=0
175422 Tempo 555555
175440 On ch=1 n=b5 v=60
175440 On ch=1 n=b6 v=60
175487 Tempo 566037
175520 On ch=1 n=b6 v=0
175520 On ch=1 n=b5 v=0
175550 Tempo 576923
175560 On ch=1 n=d6 v=60
175560 On ch=1 n=g#6 v=60
175615 Tempo 588235
175640 On ch=1 n=g#6 v=0
175640 On ch=1 n=d6 v=0
175680 Tempo 600000
175680 On ch=1 n=c6 v=60
175680 On ch=1 n=a6 v=60
175760 On ch=1 n=a6 v=0
175760 On ch=1 n=c6 v=0
175800 On ch=1 n=e5 v=60
175800 On ch=1 n=a5 v=60
175880 On ch=1 n=a5 v=0
175880 On ch=1 n=e5 v=0
175920 On ch=1 n=c5 v=60
176000 On ch=1 n=c5 v=0
176040 On ch=1 n=a4 v=60
176120 On ch=1 n=a4 v=0
176160 On ch=1 n=a3 v=60
176395 On ch=1 n=a3 v=0
177600 Tempo 750000
177600 On ch=1 n=a7 v=60
177600 On ch=1 n=a6 v=45
177600 On ch=1 n=c7 v=45
177600 On ch=1 n=e6 v=45
177600 On ch=1 n=a5 v=45
177655 On ch=1 n=e6 v=0
177660 On ch=1 n=f6 v=45
177715 On ch=1 n=f6 v=0
177720 On ch=1 n=e6 v=45
177775 On ch=1 n=e6 v=0
177780 On ch=1 n=f6 v=45
177835 On ch=1 n=f6 v=0
177840 On ch=1 n=e6 v=45
177895 On ch=1 n=e6 v=0
177900 On ch=1 n=f6 v=45
177955 On ch=1 n=f6 v=0
177960 On ch=1 n=e6 v=45
178015 On ch=1 n=e6 v=0
178020 On ch=1 n=f6 v=45
178075 On ch=1 n=f6 v=0
178080 On ch=1 n=e6 v=45
178135 On ch=1 n=e6 v=0
178140 On ch=1 n=f6 v=45
178195 On ch=1 n=f6 v=0
178200 On ch=1 n=e6 v=45
178255 On ch=1 n=e6 v=0
178260 On ch=1 n=f6 v=45
178315 On ch=1 n=f6 v=0
178320 On ch=1 n=a7 v=0
178320 On ch=1 n=e7 v=60
178320 On ch=1 n=e6 v=45
178375 On ch=1 n=e6 v=0
178380 On ch=1 n=f6 v=45
178435 On ch=1 n=f6 v=0
178440 On ch=1 n=e7 v=0
178440 On ch=1 n=a5 v=0
178440 On ch=1 n=c7 v=0
178440 On ch=1 n=a6 v=0
178440 On ch=1 n=c8 v=60
178440 On ch=1 n=e6 v=45
178495 On ch=1 n=e6 v=0
178500 On ch=1 n=f6 v=45
178555 On ch=1 n=f6 v=0
178560 On ch=1 n=c8 v=0
178560 On ch=1 n=b7 v=60
178560 On ch=1 n=b6 v=45
178560 On ch=1 n=e7 v=45
178560 On ch=1 n=e6 v=45
178560 On ch=1 n=a5 v=45
178560 On ch=1 n=d6 v=45
178615 On ch=1 n=e6 v=0
178620 On ch=1 n=f6 v=45
178675 On ch=1 n=f6 v=0
178680 On ch=1 n=b7 v=0
178680 On ch=1 n=a7 v=60
178680 On ch=1 n=e6 v=45
178735 On ch=1 n=e6 v=0
178740 On ch=1 n=f6 v=45
178795 On ch=1 n=f6 v=0
178800 On ch=1 n=a7 v=0
178800 On ch=1 n=g#7 v=60
178800 On ch=1 n=e6 v=45
178855 On ch=1 n=e6 v=0
178860 On ch=1 n=f6 v=45
178915 On ch=1 n=f6 v=0
178920 On ch=1 n=g#7 v=0
178920 On ch=1 n=f#7 v=60
178920 On ch=1 n=e6 v=45
178975 On ch=1 n=e6 v=0
178980 On ch=1 n=f6 v=45
179035 On ch=1 n=f6 v=0
179040 On ch=1 n=f#7 v=0
179040 On ch=1 n=e7 v=60
179040 On ch=1 n=e6 v=45
179095 On ch=1 n=e6 v=0
179100 On ch=1 n=f6 v=45
179155 On ch=1 n=f6 v=0
179160 On ch=1 n=e7 v=0
179160 On ch=1 n=f#7 v=60
179160 On ch=1 n=e6 v=45
179215 On ch=1 n=e6 v=0
179220 On ch=1 n=f6 v=45
179275 On ch=1 n=f6 v=0
179280 On ch=1 n=f#7 v=0
179280 On ch=1 n=g#7 v=60
179280 On ch=1 n=e6 v=45
179335 On ch=1 n=e6 v=0
179340 On ch=1 n=f6 v=45
179395 On ch=1 n=f6 v=0
179400 On ch=1 n=g#7 v=0
179400 On ch=1 n=e7 v=0
179400 On ch=1 n=d6 v=0
179400 On ch=1 n=a5 v=0
179400 On ch=1 n=b6 v=0
179400 On ch=1 n=e7 v=60
179400 On ch=1 n=e6 v=45
179455 On ch=1 n=e6 v=0
179460 On ch=1 n=f6 v=45
179515 On ch=1 n=f6 v=0
179515 On ch=1 n=e7 v=0
179520 On ch=1 n=a7 v=60
179520 On ch=1 n=c7 v=45
179520 On ch=1 n=e7 v=45
179520 On ch=1 n=e6 v=45
179520 On ch=1 n=a5 v=45
179520 On ch=1 n=c6 v=45
179575 On ch=1 n=e6 v=0
179580 On ch=1 n=f6 v=45
179635 On ch=1 n=f6 v=0
179640 On ch=1 n=e6 v=45
179695 On ch=1 n=e6 v=0
179700 On ch=1 n=f6 v=45
179755 On ch=1 n=f6 v=0
179760 On ch=1 n=e6 v=45
179815 On ch=1 n=e6 v=0
179820 On ch=1 n=f6 v=45
179875 On ch=1 n=f6 v=0
179880 On ch=1 n=a7 v=0
179880 On ch=1 n=b7 v=60
179880 On ch=1 n=e6 v=45
179920 On ch=1 n=b7 v=0
179920 On ch=1 n=a7 v=60
179935 On ch=1 n=e6 v=0
179940 On ch=1 n=f6 v=45
179960 On ch=1 n=a7 v=0
179960 On ch=1 n=g#7 v=60
179995 On ch=1 n=f6 v=0
180000 On ch=1 n=g#7 v=0
180000 On ch=1 n=a7 v=60
180000 On ch=1 n=e6 v=45
180055 On ch=1 n=e6 v=0
180060 On ch=1 n=f6 v=45
180115 On ch=1 n=f6 v=0
180120 On ch=1 n=a7 v=0
180120 On ch=1 n=b7 v=60
180120 On ch=1 n=e6 v=45
180175 On ch=1 n=e6 v=0
180180 On ch=1 n=f6 v=45
180235 On ch=1 n=f6 v=0
180240 On ch=1 n=b7 v=0
180240 On ch=1 n=c8 v=60
180240 On ch=1 n=e6 v=45
180295 On ch=1 n=e6 v=0
180300 On ch=1 n=f6 v=45
180355 On ch=1 n=f6 v=0
180360 On ch=1 n=c8 v=0
180360 On ch=1 n=c6 v=0
180360 On ch=1 n=a5 v=0
180360 On ch=1 n=e7 v=0
180360 On ch=1 n=c7 v=0
180360 On ch=1 n=d8 v=60
180360 On ch=1 n=e6 v=45
180415 On ch=1 n=e6 v=0
180420 On ch=1 n=f6 v=45
180475 On ch=1 n=f6 v=0
180480 On ch=1 n=d8 v=0
180480 On ch=1 n=d#8 v=60
180480 On ch=1 n=d7 v=45
180480 On ch=1 n=g#7 v=45
180480 On ch=1 n=e6 v=45
180480 On ch=1 n=a5 v=45
180480 On ch=1 n=b5 v=45
180535 On ch=1 n=e6 v=0
180540 On ch=1 n=f6 v=45
180595 On ch=1 n=f6 v=0
180600 On ch=1 n=e6 v=45
180655 On ch=1 n=e6 v=0
180660 On ch=1 n=f6 v=45
180715 On ch=1 n=f6 v=0
180720 On ch=1 n=e6 v=45
180775 On ch=1 n=e6 v=0
180780 On ch=1 n=f6 v=45
180835 On ch=1 n=f6 v=0
180840 On ch=1 n=d#8 v=0
180840 On ch=1 n=e8 v=60
180840 On ch=1 n=e6 v=45
180895 On ch=1 n=e6 v=0
180900 On ch=1 n=f6 v=45
180955 On ch=1 n=f6 v=0
180960 On ch=1 n=e8 v=0
180960 On ch=1 n=e7 v=60
180960 On ch=1 n=e6 v=45
181015 On ch=1 n=e6 v=0
181020 On ch=1 n=f6 v=45
181075 On ch=1 n=f6 v=0
181080 On ch=1 n=e6 v=45
181135 On ch=1 n=e6 v=0
181140 On ch=1 n=f6 v=45
181195 On ch=1 n=f6 v=0
181200 On ch=1 n=e6 v=45
181255 On ch=1 n=e6 v=0
181260 On ch=1 n=f6 v=45
181315 On ch=1 n=f6 v=0
181320 On ch=1 n=b5 v=0
181320 On ch=1 n=a5 v=0
181320 On ch=1 n=g#7 v=0
181320 On ch=1 n=d7 v=0
181320 On ch=1 n=e6 v=45
181360 On ch=1 n=e7 v=0
181375 On ch=1 n=e6 v=0
181380 On ch=1 n=f6 v=45
181435 On ch=1 n=f6 v=0
181440 On ch=1 n=a7 v=60
181440 On ch=1 n=a6 v=45
181440 On ch=1 n=c7 v=45
181440 On ch=1 n=e6 v=45
181440 On ch=1 n=a5 v=45
181495 On ch=1 n=e6 v=0
181500 On ch=1 n=f6 v=45
181555 On ch=1 n=f6 v=0
181560 On ch=1 n=e6 v=45
181615 On ch=1 n=e6 v=0
181620 On ch=1 n=f6 v=45
181675 On ch=1 n=f6 v=0
181680 On ch=1 n=e6 v=45
181735 On ch=1 n=e6 v=0
181740 On ch=1 n=f6 v=45
181795 On ch=1 n=f6 v=0
181800 On ch=1 n=e6 v=45
181855 On ch=1 n=e6 v=0
181860 On ch=1 n=f6 v=45
181915 On ch=1 n=f6 v=0
181920 On ch=1 n=e6 v=45
181975 On ch=1 n=e6 v=0
181980 On ch=1 n=f6 v=45
182035 On ch=1 n=f6 v=0
182040 On ch=1 n=e6 v=45
182095 On ch=1 n=e6 v=0
182100 On ch=1 n=f6 v=45
182155 On ch=1 n=f6 v=0
182160 On ch=1 n=a7 v=0
182160 On ch=1 n=e7 v=60
182160 On ch=1 n=e6 v=45
182215 On ch=1 n=e6 v=0
182220 On ch=1 n=f6 v=45
182275 On ch=1 n=f6 v=0
182280 On ch=1 n=e7 v=0
182280 On ch=1 n=a5 v=0
182280 On ch=1 n=c7 v=0
182280 On ch=1 n=a6 v=0
182280 On ch=1 n=c8 v=60
182280 On ch=1 n=e6 v=45
182335 On ch=1 n=e6 v=0
182340 On ch=1 n=f6 v=45
182395 On ch=1 n=f6 v=0
182400 On ch=1 n=c8 v=0
182400 On ch=1 n=b7 v=60
182400 On ch=1 n=b6 v=45
182400 On ch=1 n=e7 v=45
182400 On ch=1 n=e6 v=45
182400 On ch=1 n=a5 v=45
182400 On ch=1 n=d6 v=45
182455 On ch=1 n=e6 v=0
182460 On ch=1 n=f6 v=45
182515 On ch=1 n=f6 v=0
182520 On ch=1 n=b7 v=0
182520 On ch=1 n=a7 v=60
182520 On ch=1 n=e6 v=45
182575 On ch=1 n=e6 v=0
182580 On ch=1 n=f6 v=45
182635 On ch=1 n=f6 v=0
182640 On ch=1 n=a7 v=0
182640 On ch=1 n=g#7 v=60
182640 On ch=1 n=e6 v=45
182695 On ch=1 n=e6 v=0
182700 On ch=1 n=f6 v=45
182755 On ch=1 n=f6 v=0
182760 On ch=1 n=g#7 v=0
182760 On ch=1 n=f#7 v=60
182760 On ch=1 n=e6 v=45
182815 On ch=1 n=e6 v=0
182820 On ch=1 n=f6 v=45
182875 On ch=1 n=f6 v=0
182880 On ch=1 n=f#7 v=0
182880 On ch=1 n=e7 v=60
182880 On ch=1 n=e6 v=45
182935 On ch=1 n=e6 v=0
182940 On ch=1 n=f6 v=45
182995 On ch=1 n=f6 v=0
183000 On ch=1 n=e7 v=0
183000 On ch=1 n=f#7 v=60
183000 On ch=1 n=e6 v=45
183055 On ch=1 n=e6 v=0
183060 On ch=1 n=f6 v=45
183115 On ch=1 n=f6 v=0
183120 On ch=1 n=f#7 v=0
183120 On ch=1 n=g#7 v=60
183120 On ch=1 n=e6 v=45
183175 On ch=1 n=e6 v=0
183180 On ch=1 n=f6 v=45
183235 On ch=1 n=f6 v=0
183240 On ch=1 n=g#7 v=0
183240 On ch=1 n=e7 v=0
183240 On ch=1 n=d6 v=0
183240 On ch=1 n=a5 v=0
183240 On ch=1 n=b6 v=0
183240 On ch=1 n=e7 v=60
183240 On ch=1 n=e6 v=45
183295 On ch=1 n=e6 v=0
183300 On ch=1 n=f6 v=45
183355 On ch=1 n=f6 v=0
183355 On ch=1 n=e7 v=0
183360 On ch=1 n=a7 v=60
183360 On ch=1 n=c7 v=45
183360 On ch=1 n=e7 v=45
183360 On ch=1 n=e6 v=45
183360 On ch=1 n=a5 v=45
183360 On ch=1 n=c6 v=45
183415 On ch=1 n=e6 v=0
183420 On ch=1 n=f6 v=45
183475 On ch=1 n=f6 v=0
183480 On ch=1 n=e6 v=45
183535 On ch=1 n=e6 v=0
183540 On ch=1 n=f6 v=45
183595 On ch=1 n=f6 v=0
183600 On ch=1 n=e6 v=45
183655 On ch=1 n=e6 v=0
183660 On ch=1 n=f6 v=45
183715 On ch=1 n=f6 v=0
183720 On ch=1 n=a7 v=0
183720 On ch=1 n=b7 v=60
183720 On ch=1 n=e6 v=45
183760 On ch=1 n=b7 v=0
183760 On ch=1 n=a7 v=60
183775 On ch=1 n=e6 v=0
183780 On ch=1 n=f6 v=45
183800 On ch=1 n=a7 v=0
183800 On ch=1 n=g#7 v=60
183835 On ch=1 n=f6 v=0
183840 On ch=1 n=g#7 v=0
183840 On ch=1 n=a7 v=60
183840 On ch=1 n=e6 v=45
183895 On ch=1 n=e6 v=0
183900 On ch=1 n=f6 v=45
183955 On ch=1 n=f6 v=0
183960 On ch=1 n=a7 v=0
183960 On ch=1 n=b7 v=60
183960 On ch=1 n=e6 v=45
184015 On ch=1 n=e6 v=0
184020 On ch=1 n=f6 v=45
184075 On ch=1 n=f6 v=0
184080 On ch=1 n=b7 v=0
184080 On ch=1 n=c8 v=60
184080 On ch=1 n=e6 v=45
184135 On ch=1 n=e6 v=0
184140 On ch=1 n=f6 v=45
184195 On ch=1 n=f6 v=0
184200 On ch=1 n=c8 v=0
184200 On ch=1 n=c6 v=0
184200 On ch=1 n=a5 v=0
184200 On ch=1 n=e7 v=0
184200 On ch=1 n=c7 v=0
184200 On ch=1 n=d8 v=60
184200 On ch=1 n=e6 v=45
184255 On ch=1 n=e6 v=0
184260 On ch=1 n=f6 v=45
184315 On ch=1 n=f6 v=0
184320 On ch=1 n=d8 v=0
184320 On ch=1 n=d#8 v=60
184320 On ch=1 n=d7 v=45
184320 On ch=1 n=g#7 v=45
184320 On ch=1 n=e6 v=45
184320 On ch=1 n=a5 v=45
184320 On ch=1 n=b5 v=45
184375 On ch=1 n=e6 v=0
184380 On ch=1 n=f6 v=45
184435 On ch=1 n=f6 v=0
184440 On ch=1 n=e6 v=45
184495 On ch=1 n=e6 v=0
184500 On ch=1 n=f6 v=45
184555 On ch=1 n=f6 v=0
184560 On ch=1 n=e6 v=45
184615 On ch=1 n=e6 v=0
184620 On ch=1 n=f6 v=45
184675 On ch=1 n=f6 v=0
184680 On ch=1 n=d#8 v=0
184680 On ch=1 n=e8 v=60
184680 On ch=1 n=e6 v=45
184735 On ch=1 n=e6 v=0
184740 On ch=1 n=f6 v=45
184795 On ch=1 n=f6 v=0
184800 On ch=1 n=e8 v=0
184800 On ch=1 n=e7 v=60
184800 On ch=1 n=e6 v=45
184855 On ch=1 n=e6 v=0
184860 On ch=1 n=f6 v=45
184915 On ch=1 n=f6 v=0
184920 On ch=1 n=e6 v=45
184975 On ch=1 n=e6 v=0
184980 On ch=1 n=f6 v=45
185035 On ch=1 n=f6 v=0
185040 On ch=1 n=e6 v=45
185095 On ch=1 n=e6 v=0
185100 On ch=1 n=f6 v=45
185155 On ch=1 n=f6 v=0
185160 On ch=1 n=b5 v=0
185160 On ch=1 n=a5 v=0
185160 On ch=1 n=g#7 v=0
185160 On ch=1 n=d7 v=0
185160 On ch=1 n=e6 v=45
185200 On ch=1 n=e7 v=0
185215 On ch=1 n=e6 v=0
185220 On ch=1 n=f6 v=45
185275 On ch=1 n=f6 v=0
185280 On ch=1 n=a7 v=84
185280 On ch=1 n=g6 v=45
185280 On ch=1 n=c#7 v=45
185280 On ch=1 n=e6 v=45
185280 On ch=1 n=a5 v=45
185340 On ch=1 n=e6 v=0
185340 On ch=1 n=f6 v=45
185400 On ch=1 n=f6 v=0
185400 On ch=1 n=e6 v=45
185460 On ch=1 n=e6 v=0
185460 On ch=1 n=f6 v=45
185520 On ch=1 n=f6 v=0
185520 On ch=1 n=e6 v=45
185580 On ch=1 n=e6 v=0
185580 On ch=1 n=f6 v=45
185640 On ch=1 n=f6 v=0
185640 On ch=1 n=e6 v=45
185680 On ch=1 n=a5 v=0
185680 On ch=1 n=c#7 v=0
185680 On ch=1 n=g6 v=0
185700 On ch=1 n=e6 v=0
185700 On ch=1 n=f6 v=45
185760 On ch=1 n=f6 v=0
185760 On ch=1 n=e6 v=45
185875 On ch=1 n=a7 v=0
185880 On ch=1 n=e8 v=60
185995 On ch=1 n=e6 v=0
186000 On ch=1 n=e8 v=0
186000 On ch=1 n=c#8 v=60
186120 On ch=1 n=c#8 v=0
186120 On ch=1 n=a7 v=60
186240 On ch=1 n=a7 v=0
186240 On ch=1 n=g7 v=60
186360 On ch=1 n=g7 v=0
186360 On ch=1 n=e7 v=60
186480 On ch=1 n=e7 v=0
186480 On ch=1 n=c#7 v=60
186600 On ch=1 n=c#7 v=0
186600 On ch=1 n=a6 v=60
186720 On ch=1 n=a6 v=0
186720 On ch=1 n=g6 v=60
186840 On ch=1 n=g6 v=0
186840 On ch=1 n=f6 v=60
186960 On ch=1 n=f6 v=0
186960 On ch=1 n=e6 v=60
186960 On ch=1 n=a6 v=45
186960 On ch=1 n=d7 v=45
186960 On ch=1 n=f7 v=45
187040 On ch=1 n=f7 v=0
187040 On ch=1 n=d7 v=0
187040 On ch=1 n=a6 v=0
187080 On ch=1 n=e6 v=0
187080 On ch=1 n=d6 v=60
187195 On ch=1 n=d6 v=0
187200 On ch=1 n=g7 v=84
187200 On ch=1 n=g6 v=45
187200 On ch=1 n=d7 v=45
187200 On ch=1 n=f6 v=45
187200 On ch=1 n=b5 v=45
187260 On ch=1 n=f6 v=0
187260 On ch=1 n=e6 v=45
187320 On ch=1 n=e6 v=0
187320 On ch=1 n=f6 v=45
187380 On ch=1 n=f6 v=0
187380 On ch=1 n=e6 v=45
187440 On ch=1 n=e6 v=0
187440 On ch=1 n=f6 v=45
187500 On ch=1 n=f6 v=0
187500 On ch=1 n=e6 v=45
187560 On ch=1 n=e6 v=0
187560 On ch=1 n=f6 v=45
187600 On ch=1 n=b5 v=0
187600 On ch=1 n=d7 v=0
187600 On ch=1 n=g6 v=0
187620 On ch=1 n=f6 v=0
187620 On ch=1 n=e6 v=45
187680 On ch=1 n=e6 v=0
187680 On ch=1 n=f6 v=45
187795 On ch=1 n=g7 v=0
187800 On ch=1 n=d8 v=60
187915 On ch=1 n=f6 v=0
187920 On ch=1 n=d8 v=0
187920 On ch=1 n=b7 v=60
188040 On ch=1 n=b7 v=0
188040 On ch=1 n=g7 v=60
188160 On ch=1 n=g7 v=0
188160 On ch=1 n=f7 v=60
188280 On ch=1 n=f7 v=0
188280 On ch=1 n=d7 v=60
188400 On ch=1 n=d7 v=0
188400 On ch=1 n=b6 v=60
188520 On ch=1 n=b6 v=0
188520 On ch=1 n=g6 v=60
188640 On ch=1 n=g6 v=0
188640 On ch=1 n=f6 v=60
188760 On ch=1 n=f6 v=0
188760 On ch=1 n=e6 v=60
188880 On ch=1 n=e6 v=0
188880 On ch=1 n=d6 v=60
188880 On ch=1 n=g6 v=45
188880 On ch=1 n=c7 v=45
188880 On ch=1 n=e7 v=45
188960 On ch=1 n=e7 v=0
188960 On ch=1 n=c7 v=0
188960 On ch=1 n=g6 v=0
189000 On ch=1 n=d6 v=0
189000 On ch=1 n=c6 v=60
189115 On ch=1 n=c6 v=0
189120 On ch=1 n=b6 v=60
189120 On ch=1 n=f7 v=60
189120 On ch=1 n=f6 v=45
189120 On ch=1 n=g#5 v=45
189120 On ch=1 n=d6 v=45
189180 On ch=1 n=f6 v=0
189180 On ch=1 n=e6 v=45
189240 On ch=1 n=e6 v=0
189240 On ch=1 n=f6 v=45
189300 On ch=1 n=f6 v=0
189300 On ch=1 n=e6 v=45
189360 On ch=1 n=e6 v=0
189360 On ch=1 n=f6 v=45
189420 On ch=1 n=f6 v=0
189420 On ch=1 n=e6 v=45
189480 On ch=1 n=e6 v=0
189480 On ch=1 n=f6 v=45
189520 On ch=1 n=d6 v=0
189520 On ch=1 n=g#5 v=0
189540 On ch=1 n=f6 v=0
189540 On ch=1 n=e6 v=45
189600 On ch=1 n=e6 v=0
189600 On ch=1 n=f6 v=45
189715 On ch=1 n=f7 v=0
189715 On ch=1 n=b6 v=0
189720 On ch=1 n=d7 v=60
189835 On ch=1 n=f6 v=0
189840 On ch=1 n=d7 v=0
189840 On ch=1 n=b6 v=60
189960 On ch=1 n=b6 v=0
189960 On ch=1 n=a6 v=60
190080 On ch=1 n=a6 v=0
190080 Tempo 750000
190080 On ch=1 n=g#6 v=60
190200 On ch=1 n=g#6 v=0
190200 On ch=1 n=e6 v=60
190270 Tempo 769230
190320 On ch=1 n=e6 v=0
190320 On ch=1 n=d6 v=60
190320 On ch=1 n=g#6 v=45
190320 On ch=1 n=e7 v=45
190400 On ch=1 n=e7 v=0
190400 On ch=1 n=g#6 v=0
190440 On ch=1 n=d6 v=0
190440 On ch=1 n=b5 v=60
190462 Tempo 789473
190560 On ch=1 n=b5 v=0
190560 On ch=1 n=c6 v=60
190560 On ch=1 n=a6 v=45
190560 On ch=1 n=e7 v=45
190640 On ch=1 n=e7 v=0
190640 On ch=1 n=a6 v=0
190655 Tempo 810810
190680 On ch=1 n=c6 v=0
190680 On ch=1 n=e6 v=60
190800 On ch=1 n=e6 v=0
190800 On ch=1 n=a6 v=60
190800 On ch=1 n=c#7 v=45
190800 On ch=1 n=e7 v=45
190847 Tempo 833333
190880 On ch=1 n=e7 v=0
190880 On ch=1 n=c#7 v=0
190920 On ch=1 n=a6 v=0
190920 On ch=1 n=g6 v=60
191040 On ch=1 n=g6 v=0
191040 Tempo 660534
191040 On ch=1 n=f6 v=60
191040 On ch=1 n=d7 v=45
191040 On ch=1 n=f7 v=45
191120 On ch=1 n=f7 v=0
191120 On ch=1 n=d7 v=0
191160 On ch=1 n=f6 v=0
191160 On ch=1 n=d7 v=60
191230 Tempo 685744
191280 On ch=1 n=d7 v=0
191280 On ch=1 n=b6 v=60
191400 On ch=1 n=b6 v=0
191400 On ch=1 n=a6 v=60
191422 Tempo 712482
191520 On ch=1 n=a6 v=0
191520 On ch=1 n=g#6 v=60
191520 On ch=1 n=e6 v=45
191520 On ch=1 n=d7 v=45
191600 On ch=1 n=d7 v=0
191600 On ch=1 n=e6 v=0
191615 Tempo 937500
191640 On ch=1 n=g#6 v=0
191640 On ch=1 n=b7 v=60
191760 On ch=1 n=b7 v=0
191760 On ch=1 n=g#7 v=60
191807 Tempo 967741
191880 On ch=1 n=g#7 v=0
191880 On ch=1 n=e7 v=60
191995 On ch=1 n=e7 v=0
192000 Tempo 1000000
192000 On ch=1 n=g7 v=60
192000 On ch=1 n=a6 v=45
192000 On ch=1 n=c7 v=45
192030 On ch=1 n=g7 v=0
192030 On ch=1 n=a7 v=60
192400 On ch=1 n=c7 v=0
192400 On ch=1 n=a6 v=0
192480 On ch=1 n=a7 v=0
192480 On ch=1 n=a6 v=60
192560 On ch=1 n=a6 v=0
193800 On ch=1 n=e3 v=108
193840 On ch=1 n=e3 v=0
193840 On ch=1 n=f#3 v=108
193880 On ch=1 n=f#3 v=0
193880 On ch=1 n=g#3 v=108
193915 On ch=1 n=g#3 v=0
193920 Par ch=1 c=64 v=127
193920 On ch=1 n=a2 v=108
193920 On ch=1 n=a3 v=108
193960 On ch=1 n=e4 v=108
194000 On ch=1 n=e4 v=0
194000 On ch=1 n=a4 v=108
194035 On ch=1 n=a4 v=0
194035 On ch=1 n=a3 v=0
194035 On ch=1 n=a2 v=0
194040 Par ch=1 c=64 v=0
194040 On ch=1 n=c5 v=108
194040 On ch=1 n=e5 v=108
194040 On ch=1 n=a4 v=108
194080 On ch=1 n=e5 v=0
194080 On ch=1 n=c5 v=0
194080 On ch=1 n=e5 v=108
194120 On ch=1 n=e5 v=0
194120 On ch=1 n=a5 v=108
194155 On ch=1 n=a5 v=0
194155 On ch=1 n=a4 v=0
194160 Par ch=1 c=64 v=127
194160 On ch=1 n=c6 v=108
194160 On ch=1 n=e6 v=108
194160 On ch=1 n=c3 v=108
194160 On ch=1 n=c4 v=108
194200 On ch=1 n=e6 v=0
194200 On ch=1 n=c6 v=0
194200 On ch=1 n=e6 v=108
194240 On ch=1 n=e6 v=0
194240 On ch=1 n=a6 v=108
194275 On ch=1 n=a6 v=0
194275 On ch=1 n=c4 v=0
194275 On ch=1 n=c3 v=0
194280 Par ch=1 c=64 v=0
194280 On ch=1 n=c7 v=108
194280 On ch=1 n=e7 v=108
194280 On ch=1 n=c5 v=108
194320 On ch=1 n=e7 v=0
194320 On ch=1 n=c7 v=0
194320 On ch=1 n=e7 v=108
194360 On ch=1 n=e7 v=0
194360 On ch=1 n=a7 v=108
194395 On ch=1 n=a7 v=0
194395 On ch=1 n=c5 v=0
194400 Par ch=1 c=64 v=127
194400 On ch=1 n=d8 v=108
194400 On ch=1 n=e8 v=108
194400 On ch=1 n=b2 v=108
194400 On ch=1 n=b3 v=108
194440 On ch=1 n=e8 v=0
194440 On ch=1 n=d8 v=0
194440 On ch=1 n=g#7 v=108
194480 On ch=1 n=g#7 v=0
194480 On ch=1 n=e7 v=108
194515 On ch=1 n=e7 v=0
194515 On ch=1 n=b3 v=0
194515 On ch=1 n=b2 v=0
194520 Par ch=1 c=64 v=0
194520 On ch=1 n=d7 v=108
194520 On ch=1 n=e7 v=108
194520 On ch=1 n=b4 v=108
194560 On ch=1 n=e7 v=0
194560 On ch=1 n=d7 v=0
194560 On ch=1 n=g#6 v=108
194600 On ch=1 n=g#6 v=0
194600 On ch=1 n=e6 v=108
194635 On ch=1 n=e6 v=0
194635 On ch=1 n=b4 v=0
194640 Par ch=1 c=64 v=127
194640 On ch=1 n=c6 v=108
194640 On ch=1 n=e6 v=108
194640 On ch=1 n=a2 v=108
194640 On ch=1 n=a3 v=108
194680 On ch=1 n=e6 v=0
194680 On ch=1 n=c6 v=0
194680 On ch=1 n=a5 v=108
194720 On ch=1 n=a5 v=0
194720 On ch=1 n=e5 v=108
194755 On ch=1 n=e5 v=0
194755 On ch=1 n=a3 v=0
194755 On ch=1 n=a2 v=0
194760 Par ch=1 c=64 v=0
194760 On ch=1 n=c5 v=108
194760 On ch=1 n=e5 v=108
194760 On ch=1 n=a4 v=108
194875 On ch=1 n=a4 v=0
194875 On ch=1 n=e5 v=0
194875 On ch=1 n=c5 v=0
194880 Par ch=1 c=64 v=127
194880 On ch=1 n=g#4 v=108
194880 On ch=1 n=e5 v=108
194880 On ch=1 n=b4 v=108
194920 On ch=1 n=g#2 v=108
194955 On ch=1 n=g#2 v=0
194960 On ch=1 n=b2 v=108
194995 On ch=1 n=b2 v=0
194995 On ch=1 n=b4 v=0
194995 On ch=1 n=e5 v=0
194995 On ch=1 n=g#4 v=0
195000 On ch=1 n=e6 v=127
195000 On ch=1 n=g#6 v=127
195000 On ch=1 n=b6 v=127
195000 On ch=1 n=e7 v=127
195000 On ch=1 n=e3 v=108
195035 On ch=1 n=e3 v=0
195040 On ch=1 n=g#3 v=108
195075 On ch=1 n=g#3 v=0
195080 On ch=1 n=b3 v=108
195115 On ch=1 n=b3 v=0
195120 On ch=1 n=e4 v=108
195155 On ch=1 n=e4 v=0
195160 On ch=1 n=g#4 v=108
195195 On ch=1 n=g#4 v=0
195200 On ch=1 n=b4 v=108
195235 On ch=1 n=b4 v=0
195235 On ch=1 n=e7 v=0
195235 On ch=1 n=b6 v=0
195235 On ch=1 n=g#6 v=0
195235 On ch=1 n=e6 v=0
195240 On ch=1 n=g6 v=127
195240 On ch=1 n=b6 v=127
195240 On ch=1 n=d7 v=127
195240 On ch=1 n=g7 v=127
195240 On ch=1 n=e5 v=108
195275 On ch=1 n=e5 v=0
195280 On ch=1 n=g#5 v=108
195315 On ch=1 n=g#5 v=0
195320 On ch=1 n=b5 v=108
195355 On ch=1 n=b5 v=0
195360 On ch=1 n=e6 v=108
195395 On ch=1 n=e6 v=0
195400 On ch=1 n=b5 v=108
195435 On ch=1 n=b5 v=0
195440 On ch=1 n=g#5 v=108
195475 On ch=1 n=g#5 v=0
195475 On ch=1 n=g7 v=0
195475 On ch=1 n=d7 v=0
195475 On ch=1 n=b6 v=0
195475 On ch=1 n=g6 v=0
195480 On ch=1 n=f6 v=127
195480 On ch=1 n=b6 v=127
195480 On ch=1 n=d7 v=127
195480 On ch=1 n=f7 v=127
195480 On ch=1 n=e5 v=108
195515 On ch=1 n=e5 v=0
195520 On ch=1 n=b4 v=108
195555 On ch=1 n=b4 v=0
195560 On ch=1 n=g#4 v=108
195595 On ch=1 n=g#4 v=0
195600 On ch=1 n=e4 v=108
195635 On ch=1 n=e4 v=0
195640 On ch=1 n=b3 v=108
195675 On ch=1 n=b3 v=0
195680 On ch=1 n=g#3 v=108
195715 On ch=1 n=g#3 v=0
195720 On ch=1 n=f7 v=0
195720 On ch=1 n=d7 v=0
195720 On ch=1 n=b6 v=0
195720 On ch=1 n=f6 v=0
195720 On ch=1 n=e6 v=108
195720 On ch=1 n=b6 v=108
195720 On ch=1 n=d7 v=108
195720 On ch=1 n=e7 v=108
195720 On ch=1 n=e3 v=108
195755 On ch=1 n=e3 v=0
195760 On ch=1 n=b2 v=108
195780 Par ch=1 c=64 v=0
195795 On ch=1 n=b2 v=0
195800 On ch=1 n=g#2 v=108
195835 On ch=1 n=g#2 v=0
195835 On ch=1 n=e7 v=0
195835 On ch=1 n=d7 v=0
195835 On ch=1 n=b6 v=0
195835 On ch=1 n=e6 v=0
195840 Par ch=1 c=64 v=127
195840 On ch=1 n=a2 v=108
195840 On ch=1 n=a3 v=108
195880 On ch=1 n=e4 v=108
195920 On ch=1 n=e4 v=0
195920 On ch=1 n=a4 v=108
195955 On ch=1 n=a4 v=0
195955 On ch=1 n=a3 v=0
195955 On ch=1 n=a2 v=0
195960 Par ch=1 c=64 v=0
195960 On ch=1 n=c5 v=108
195960 On ch=1 n=e5 v=108
195960 On ch=1 n=a4 v=108
196000 On ch=1 n=e5 v=0
196000 On ch=1 n=c5 v=0
196000 On ch=1 n=e5 v=108
196040 On ch=1 n=e5 v=0
196040 On ch=1 n=a5 v=108
196075 On ch=1 n=a5 v=0
196075 On ch=1 n=a4 v=0
196080 Par ch=1 c=64 v=127
196080 On ch=1 n=c6 v=108
196080 On ch=1 n=e6 v=108
196080 On ch=1 n=c3 v=108
196080 On ch=1 n=c4 v=108
196120 On ch=1 n=e6 v=0
196120 On ch=1 n=c6 v=0
196120 On ch=1 n=e6 v=108
196160 On ch=1 n=e6 v=0
196160 On ch=1 n=a6 v=108
196195 On ch=1 n=a6 v=0
196195 On ch=1 n=c4 v=0
196195 On ch=1 n=c3 v=0
196200 Par ch=1 c=64 v=0
196200 On ch=1 n=c7 v=108
196200 On ch=1 n=e7 v=108
196200 On ch=1 n=c5 v=108
196240 On ch=1 n=e7 v=0
196240 On ch=1 n=c7 v=0
196240 On ch=1 n=e7 v=108
196280 On ch=1 n=e7 v=0
196280 On ch=1 n=a7 v=108
196315 On ch=1 n=a7 v=0
196315 On ch=1 n=c5 v=0
196320 Par ch=1 c=64 v=127
196320 On ch=1 n=d8 v=108
196320 On ch=1 n=e8 v=108
196320 On ch=1 n=b2 v=108
196320 On ch=1 n=b3 v=108
196360 On ch=1 n=e8 v=0
196360 On ch=1 n=d8 v=0
196360 On ch=1 n=g#7 v=108
196400 On ch=1 n=g#7 v=0
196400 On ch=1 n=e7 v=108
196435 On ch=1 n=e7 v=0
196435 On ch=1 n=b3 v=0
196435 On ch=1 n=b2 v=0
196440 Par ch=1 c=64 v=0
196440 On ch=1 n=d7 v=108
196440 On ch=1 n=e7 v=108
196440 On ch=1 n=b4 v=108
196480 On ch=1 n=e7 v=0
196480 On ch=1 n=d7 v=0
196480 On ch=1 n=g#6 v=108
196520 On ch=1 n=g#6 v=0
196520 On ch=1 n=e6 v=108
196555 On ch=1 n=e6 v=0
196555 On ch=1 n=b4 v=0
196560 Par ch=1 c=64 v=127
196560 On ch=1 n=c6 v=108
196560 On ch=1 n=e6 v=108
196560 On ch=1 n=a2 v=108
196560 On ch=1 n=a3 v=108
196600 On ch=1 n=e6 v=0
196600 On ch=1 n=c6 v=0
196600 On ch=1 n=a5 v=108
196640 On ch=1 n=a5 v=0
196640 On ch=1 n=e5 v=108
196675 On ch=1 n=e5 v=0
196675 On ch=1 n=a3 v=0
196675 On ch=1 n=a2 v=0
196680 Par ch=1 c=64 v=0
196680 On ch=1 n=c5 v=108
196680 On ch=1 n=e5 v=108
196680 On ch=1 n=a4 v=108
196795 On ch=1 n=a4 v=0
196795 On ch=1 n=e5 v=0
196795 On ch=1 n=c5 v=0
196800 On ch=1 n=g#4 v=108
196800 On ch=1 n=e5 v=108
196800 On ch=1 n=e3 v=108
196800 On ch=1 n=b3 v=108
196800 On ch=1 n=e4 v=108
196855 On ch=1 n=e4 v=0
196855 On ch=1 n=b3 v=0
196855 On ch=1 n=e3 v=0
196855 On ch=1 n=e5 v=0
196855 On ch=1 n=g#4 v=0
196860 On ch=1 n=e5 v=92
196860 On ch=1 n=e6 v=92
196860 On ch=1 n=e4 v=75
196915 On ch=1 n=e4 v=0
196915 On ch=1 n=e6 v=0
196915 On ch=1 n=e5 v=0
196920 On ch=1 n=f5 v=92
196920 On ch=1 n=f6 v=92
196920 On ch=1 n=f4 v=75
196975 On ch=1 n=f4 v=0
196975 On ch=1 n=f6 v=0
196975 On ch=1 n=f5 v=0
196980 On ch=1 n=f#5 v=94
196980 On ch=1 n=f#6 v=94
196980 On ch=1 n=f#4 v=77
197035 On ch=1 n=f#4 v=0
197035 On ch=1 n=f#6 v=0
197035 On ch=1 n=f#5 v=0
197040 On ch=1 n=g5 v=96
197040 On ch=1 n=g6 v=96
197040 On ch=1 n=g4 v=79
197095 On ch=1 n=g4 v=0
197095 On ch=1 n=g6 v=0
197095 On ch=1 n=g5 v=0
197100 On ch=1 n=g#5 v=98
197100 On ch=1 n=g#6 v=98
197100 On ch=1 n=g#4 v=81
197155 On ch=1 n=g#4 v=0
197155 On ch=1 n=g#6 v=0
197155 On ch=1 n=g#5 v=0
197160 On ch=1 n=a5 v=100
197160 On ch=1 n=a6 v=100
197160 On ch=1 n=a4 v=83
197215 On ch=1 n=a4 v=0
197215 On ch=1 n=a6 v=0
197215 On ch=1 n=a5 v=0
197220 On ch=1 n=a#5 v=102
197220 On ch=1 n=a#6 v=102
197220 On ch=1 n=a#4 v=85
197275 On ch=1 n=a#4 v=0
197275 On ch=1 n=a#6 v=0
197275 On ch=1 n=a#5 v=0
197280 On ch=1 n=b5 v=104
197280 On ch=1 n=b6 v=104
197280 On ch=1 n=b4 v=87
197335 On ch=1 n=b4 v=0
197335 On ch=1 n=b6 v=0
197335 On ch=1 n=b5 v=0
197340 On ch=1 n=c6 v=106
197340 On ch=1 n=c7 v=106
197340 On ch=1 n=c5 v=89
197395 On ch=1 n=c5 v=0
197395 On ch=1 n=c7 v=0
197395 On ch=1 n=c6 v=0
197400 On ch=1 n=c#6 v=109
197400 On ch=1 n=c#7 v=109
197400 On ch=1 n=c#5 v=91
197455 On ch=1 n=c#5 v=0
197455 On ch=1 n=c#7 v=0
197455 On ch=1 n=c#6 v=0
197460 On ch=1 n=d6 v=112
197460 On ch=1 n=d7 v=112
197460 On ch=1 n=d5 v=93
197515 On ch=1 n=d5 v=0
197515 On ch=1 n=d7 v=0
197515 On ch=1 n=d6 v=0
197520 On ch=1 n=d#6 v=115
197520 On ch=1 n=d#7 v=115
197520 On ch=1 n=d#5 v=96
197575 On ch=1 n=d#5 v=0
197575 On ch=1 n=d#7 v=0
197575 On ch=1 n=d#6 v=0
197580 On ch=1 n=e6 v=118
197580 On ch=1 n=e7 v=118
197580 On ch=1 n=e5 v=99
197635 On ch=1 n=e5 v=0
197635 On ch=1 n=e7 v=0
197635 On ch=1 n=e6 v=0
197640 On ch=1 n=f6 v=121
197640 On ch=1 n=f7 v=121
197640 On ch=1 n=f5 v=102
197695 On ch=1 n=f5 v=0
197695 On ch=1 n=f7 v=0
197695 On ch=1 n=f6 v=0
197700 Tempo 2000000
197700 On ch=1 n=e6 v=124
197700 On ch=1 n=e7 v=124
197700 On ch=1 n=e5 v=105
197700 On ch=1 n=c5 v=108
197720 On ch=1 n=c5 v=0
197720 On ch=1 n=d#5 v=108
197740 On ch=1 n=d#5 v=0
197740 On ch=1 n=f5 v=108
197755 On ch=1 n=f5 v=0
197755 On ch=1 n=e5 v=0
197755 On ch=1 n=e7 v=0
197755 On ch=1 n=e6 v=0
197760 Tempo 1000000
197760 Par ch=1 c=64 v=127
197760 On ch=1 n=a2 v=108
197760 On ch=1 n=a3 v=108
197800 On ch=1 n=e4 v=127
197840 On ch=1 n=e4 v=0
197840 On ch=1 n=a4 v=127
197875 On ch=1 n=a4 v=0
197875 On ch=1 n=a3 v=0
197875 On ch=1 n=a2 v=0
197880 Par ch=1 c=64 v=0
197880 On ch=1 n=c5 v=127
197880 On ch=1 n=e5 v=127
197880 On ch=1 n=a4 v=108
197920 On ch=1 n=e5 v=0
197920 On ch=1 n=c5 v=0
197920 On ch=1 n=e5 v=127
197960 On ch=1 n=e5 v=0
197960 On ch=1 n=a5 v=127
197995 On ch=1 n=a5 v=0
197995 On ch=1 n=a4 v=0
198000 Par ch=1 c=64 v=127
198000 On ch=1 n=c6 v=127
198000 On ch=1 n=e6 v=127
198000 On ch=1 n=c3 v=108
198000 On ch=1 n=c4 v=108
198040 On ch=1 n=e6 v=0
198040 On ch=1 n=c6 v=0
198040 On ch=1 n=e6 v=127
198080 On ch=1 n=e6 v=0
198080 On ch=1 n=a6 v=127
198115 On ch=1 n=a6 v=0
198115 On ch=1 n=c4 v=0
198115 On ch=1 n=c3 v=0
198120 Par ch=1 c=64 v=0
198120 On ch=1 n=c7 v=127
198120 On ch=1 n=e7 v=127
198120 On ch=1 n=c5 v=108
198160 On ch=1 n=e7 v=0
198160 On ch=1 n=c7 v=0
198160 On ch=1 n=e7 v=127
198200 On ch=1 n=e7 v=0
198200 On ch=1 n=a7 v=127
198235 On ch=1 n=a7 v=0
198235 On ch=1 n=c5 v=0
198240 Par ch=1 c=64 v=127
198240 On ch=1 n=d8 v=127
198240 On ch=1 n=e8 v=127
198240 On ch=1 n=b2 v=108
198240 On ch=1 n=b3 v=108
198280 On ch=1 n=e8 v=0
198280 On ch=1 n=d8 v=0
198280 On ch=1 n=g#7 v=127
198320 On ch=1 n=g#7 v=0
198320 On ch=1 n=e7 v=127
198355 On ch=1 n=e7 v=0
198355 On ch=1 n=b3 v=0
198355 On ch=1 n=b2 v=0
198360 Par ch=1 c=64 v=0
198360 On ch=1 n=d7 v=127
198360 On ch=1 n=e7 v=127
198360 On ch=1 n=b4 v=108
198400 On ch=1 n=e7 v=0
198400 On ch=1 n=d7 v=0
198400 On ch=1 n=g#6 v=127
198440 On ch=1 n=g#6 v=0
198440 On ch=1 n=e6 v=127
198475 On ch=1 n=e6 v=0
198475 On ch=1 n=b4 v=0
198480 Par ch=1 c=64 v=127
198480 On ch=1 n=c6 v=127
198480 On ch=1 n=e6 v=127
198480 On ch=1 n=a2 v=108
198480 On ch=1 n=a3 v=108
198520 On ch=1 n=e6 v=0
198520 On ch=1 n=c6 v=0
198520 On ch=1 n=a5 v=127
198560 On ch=1 n=a5 v=0
198560 On ch=1 n=e5 v=127
198595 On ch=1 n=e5 v=0
198595 On ch=1 n=a3 v=0
198595 On ch=1 n=a2 v=0
198600 Par ch=1 c=64 v=0
198600 On ch=1 n=c5 v=127
198600 On ch=1 n=e5 v=127
198600 On ch=1 n=a4 v=108
198715 On ch=1 n=a4 v=0
198715 On ch=1 n=e5 v=0
198715 On ch=1 n=c5 v=0
198720 Par ch=1 c=64 v=127
198720 On ch=1 n=g#4 v=127
198720 On ch=1 n=b4 v=127
198720 On ch=1 n=e5 v=127
198760 On ch=1 n=g#2 v=108
198795 On ch=1 n=g#2 v=0
198800 On ch=1 n=b2 v=108
198835 On ch=1 n=b2 v=0
198835 On ch=1 n=e5 v=0
198835 On ch=1 n=b4 v=0
198835 On ch=1 n=g#4 v=0
198840 On ch=1 n=e6 v=127
198840 On ch=1 n=g#6 v=127
198840 On ch=1 n=b6 v=127
198840 On ch=1 n=e7 v=127
198840 On ch=1 n=e3 v=108
198875 On ch=1 n=e3 v=0
198880 On ch=1 n=g#3 v=108
198915 On ch=1 n=g#3 v=0
198920 On ch=1 n=b3 v=108
198955 On ch=1 n=b3 v=0
198960 On ch=1 n=e4 v=108
198995 On ch=1 n=e4 v=0
199000 On ch=1 n=g#4 v=108
199035 On ch=1 n=g#4 v=0
199040 On ch=1 n=b4 v=108
199075 On ch=1 n=b4 v=0
199075 On ch=1 n=e7 v=0
199075 On ch=1 n=b6 v=0
199075 On ch=1 n=g#6 v=0
199075 On ch=1 n=e6 v=0
199080 On ch=1 n=g6 v=127
199080 On ch=1 n=b6 v=127
199080 On ch=1 n=d7 v=127
199080 On ch=1 n=g7 v=127
199080 On ch=1 n=e5 v=108
199115 On ch=1 n=e5 v=0
199120 On ch=1 n=g#5 v=108
199155 On ch=1 n=g#5 v=0
199160 On ch=1 n=b5 v=108
199195 On ch=1 n=b5 v=0
199200 On ch=1 n=e6 v=108
199235 On ch=1 n=e6 v=0
199240 On ch=1 n=b5 v=108
199275 On ch=1 n=b5 v=0
199280 On ch=1 n=g#5 v=108
199315 On ch=1 n=g#5 v=0
199315 On ch=1 n=g7 v=0
199315 On ch=1 n=d7 v=0
199315 On ch=1 n=b6 v=0
199315 On ch=1 n=g6 v=0
199320 On ch=1 n=f6 v=127
199320 On ch=1 n=b6 v=127
199320 On ch=1 n=d7 v=127
199320 On ch=1 n=f7 v=127
199320 On ch=1 n=e5 v=108
199355 On ch=1 n=e5 v=0
199360 On ch=1 n=b4 v=108
199395 On ch=1 n=b4 v=0
199400 On ch=1 n=g#4 v=108
199435 On ch=1 n=g#4 v=0
199440 On ch=1 n=e4 v=108
199475 On ch=1 n=e4 v=0
199480 On ch=1 n=b3 v=108
199515 On ch=1 n=b3 v=0
199520 On ch=1 n=g#3 v=108
199555 On ch=1 n=g#3 v=0
199560 On ch=1 n=f7 v=0
199560 On ch=1 n=d7 v=0
199560 On ch=1 n=b6 v=0
199560 On ch=1 n=f6 v=0
199560 On ch=1 n=e6 v=127
199560 On ch=1 n=b6 v=127
199560 On ch=1 n=d7 v=127
199560 On ch=1 n=e7 v=127
199560 On ch=1 n=e3 v=108
199595 On ch=1 n=e3 v=0
199600 On ch=1 n=b2 v=108
199620 Par ch=1 c=64 v=0
199635 On ch=1 n=b2 v=0
199640 On ch=1 n=g#2 v=108
199675 On ch=1 n=g#2 v=0
199675 On ch=1 n=e7 v=0
199675 On ch=1 n=d7 v=0
199675 On ch=1 n=b6 v=0
199675 On ch=1 n=e6 v=0
199680 Par ch=1 c=64 v=127
199680 On ch=1 n=a2 v=108
199680 On ch=1 n=a3 v=108
199720 On ch=1 n=e4 v=127
199760 On ch=1 n=e4 v=0
199760 On ch=1 n=a4 v=127
199795 On ch=1 n=a4 v=0
199795 On ch=1 n=a3 v=0
199795 On ch=1 n=a2 v=0
199800 Par ch=1 c=64 v=0
199800 On ch=1 n=c5 v=127
199800 On ch=1 n=e5 v=127
199800 On ch=1 n=a4 v=108
199840 On ch=1 n=e5 v=0
199840 On ch=1 n=c5 v=0
199840 On ch=1 n=e5 v=127
199880 On ch=1 n=e5 v=0
199880 On ch=1 n=a5 v=127
199915 On ch=1 n=a5 v=0
199915 On ch=1 n=a4 v=0
199920 Par ch=1 c=64 v=127
199920 On ch=1 n=c6 v=127
199920 On ch=1 n=e6 v=127
199920 On ch=1 n=c3 v=108
199920 On ch=1 n=c4 v=108
199960 On ch=1 n=e6 v=0
199960 On ch=1 n=c6 v=0
199960 On ch=1 n=e6 v=127
200000 On ch=1 n=e6 v=0
200000 On ch=1 n=a6 v=127
200035 On ch=1 n=a6 v=0
200035 On ch=1 n=c4 v=0
200035 On ch=1 n=c3 v=0
200040 Par ch=1 c=64 v=0
200040 On ch=1 n=c7 v=127
200040 On ch=1 n=e7 v=127
200040 On ch=1 n=c5 v=108
200080 On ch=1 n=e7 v=0
200080 On ch=1 n=c7 v=0
200080 On ch=1 n=e7 v=127
200120 On ch=1 n=e7 v=0
200120 On ch=1 n=a7 v=127
200155 On ch=1 n=a7 v=0
200155 On ch=1 n=c5 v=0
200160 Par ch=1 c=64 v=127
200160 On ch=1 n=d8 v=127
200160 On ch=1 n=e8 v=127
200160 On ch=1 n=b2 v=108
200160 On ch=1 n=b3 v=108
200200 On ch=1 n=e8 v=0
200200 On ch=1 n=d8 v=0
200200 On ch=1 n=g#7 v=127
200240 On ch=1 n=g#7 v=0
200240 On ch=1 n=e7 v=127
200275 On ch=1 n=e7 v=0
200275 On ch=1 n=b3 v=0
200275 On ch=1 n=b2 v=0
200280 Par ch=1 c=64 v=0
200280 On ch=1 n=d7 v=127
200280 On ch=1 n=e7 v=127
200280 On ch=1 n=b4 v=108
200320 On ch=1 n=e7 v=0
200320 On ch=1 n=d7 v=0
200320 On ch=1 n=g#6 v=127
200360 On ch=1 n=g#6 v=0
200360 On ch=1 n=e6 v=127
200395 On ch=1 n=e6 v=0
200395 On ch=1 n=b4 v=0
200400 Par ch=1 c=64 v=127
200400 On ch=1 n=c6 v=127
200400 On ch=1 n=e6 v=127
200400 On ch=1 n=a2 v=108
200400 On ch=1 n=a3 v=108
200440 On ch=1 n=e6 v=0
200440 On ch=1 n=c6 v=0
200440 On ch=1 n=a5 v=127
200480 On ch=1 n=a5 v=0
200480 On ch=1 n=e5 v=127
200515 On ch=1 n=e5 v=0
200515 On ch=1 n=a3 v=0
200515 On ch=1 n=a2 v=0
200520 Par ch=1 c=64 v=0
200520 On ch=1 n=c5 v=127
200520 On ch=1 n=e5 v=127
200520 On ch=1 n=a4 v=108
200635 On ch=1 n=a4 v=0
200635 On ch=1 n=e5 v=0
200635 On ch=1 n=c5 v=0
200640 On ch=1 n=g#4 v=127
200640 On ch=1 n=e5 v=127
200640 On ch=1 n=e3 v=108
200640 On ch=1 n=b3 v=108
200640 On ch=1 n=e4 v=108
200695 On ch=1 n=e4 v=0
200695 On ch=1 n=b3 v=0
200695 On ch=1 n=e3 v=0
200695 On ch=1 n=e5 v=0
200695 On ch=1 n=g#4 v=0
200700 On ch=1 n=e5 v=92
200700 On ch=1 n=e6 v=92
200700 On ch=1 n=e4 v=75
200755 On ch=1 n=e4 v=0
200755 On ch=1 n=e6 v=0
200755 On ch=1 n=e5 v=0
200760 On ch=1 n=f5 v=92
200760 On ch=1 n=f6 v=92
200760 On ch=1 n=f4 v=75
200815 On ch=1 n=f4 v=0
200815 On ch=1 n=f6 v=0
200815 On ch=1 n=f5 v=0
200820 On ch=1 n=f#5 v=94
200820 On ch=1 n=f#6 v=94
200820 On ch=1 n=f#4 v=77
200875 On ch=1 n=f#4 v=0
200875 On ch=1 n=f#6 v=0
200875 On ch=1 n=f#5 v=0
200880 On ch=1 n=g5 v=96
200880 On ch=1 n=g6 v=96
200880 On ch=1 n=g4 v=79
200935 On ch=1 n=g4 v=0
200935 On ch=1 n=g6 v=0
200935 On ch=1 n=g5 v=0
200940 On ch=1 n=g#5 v=98
200940 On ch=1 n=g#6 v=98
200940 On ch=1 n=g#4 v=81
200995 On ch=1 n=g#4 v=0
200995 On ch=1 n=g#6 v=0
200995 On ch=1 n=g#5 v=0
201000 On ch=1 n=a5 v=100
201000 On ch=1 n=a6 v=100
201000 On ch=1 n=a4 v=83
201055 On ch=1 n=a4 v=0
201055 On ch=1 n=a6 v=0
201055 On ch=1 n=a5 v=0
201060 On ch=1 n=a#5 v=102
201060 On ch=1 n=a#6 v=102
201060 On ch=1 n=a#4 v=85
201115 On ch=1 n=a#4 v=0
201115 On ch=1 n=a#6 v=0
201115 On ch=1 n=a#5 v=0
201120 On ch=1 n=b5 v=104
201120 On ch=1 n=b6 v=104
201120 On ch=1 n=b4 v=87
201175 On ch=1 n=b4 v=0
201175 On ch=1 n=b6 v=0
201175 On ch=1 n=b5 v=0
201180 On ch=1 n=c6 v=106
201180 On ch=1 n=c7 v=106
201180 On ch=1 n=c5 v=89
201235 On ch=1 n=c5 v=0
201235 On ch=1 n=c7 v=0
201235 On ch=1 n=c6 v=0
201240 On ch=1 n=c#6 v=109
201240 On ch=1 n=c#7 v=109
201240 On ch=1 n=c#5 v=91
201295 On ch=1 n=c#5 v=0
201295 On ch=1 n=c#7 v=0
201295 On ch=1 n=c#6 v=0
201300 On ch=1 n=d6 v=112
201300 On ch=1 n=d7 v=112
201300 On ch=1 n=d5 v=93
201355 On ch=1 n=d5 v=0
201355 On ch=1 n=d7 v=0
201355 On ch=1 n=d6 v=0
201360 On ch=1 n=d#6 v=115
201360 On ch=1 n=d#7 v=115
201360 On ch=1 n=d#5 v=96
201415 On ch=1 n=d#5 v=0
201415 On ch=1 n=d#7 v=0
201415 On ch=1 n=d#6 v=0
201420 On ch=1 n=e6 v=118
201420 On ch=1 n=e7 v=118
201420 On ch=1 n=e5 v=99
201475 On ch=1 n=e5 v=0
201475 On ch=1 n=e7 v=0
201475 On ch=1 n=e6 v=0
201480 On ch=1 n=f6 v=121
201480 On ch=1 n=f7 v=121
201480 On ch=1 n=f5 v=102
201535 On ch=1 n=f5 v=0
201535 On ch=1 n=f7 v=0
201535 On ch=1 n=f6 v=0
201540 On ch=1 n=e6 v=124
201540 On ch=1 n=e7 v=124
201540 On ch=1 n=e5 v=105
201595 On ch=1 n=e5 v=0
201595 On ch=1 n=e7 v=0
201595 On ch=1 n=e6 v=0
201600 On ch=1 n=c#4 v=75
201600 On ch=1 n=e4 v=75
201600 On ch=1 n=a4 v=75
201640 On ch=1 n=c#5 v=92
201675 On ch=1 n=c#5 v=0
201680 On ch=1 n=a4 v=0
201680 On ch=1 n=e4 v=0
201680 On ch=1 n=c#4 v=0
201680 On ch=1 n=e5 v=92
201715 On ch=1 n=e5 v=0
201720 On ch=1 n=a5 v=95
201720 On ch=1 n=b2 v=75
201755 On ch=1 n=a5 v=0
201760 On ch=1 n=a5 v=98
201795 On ch=1 n=a5 v=0
201800 On ch=1 n=b2 v=0
201800 On ch=1 n=c#6 v=101
201835 On ch=1 n=c#6 v=0
201840 On ch=1 n=g6 v=104
201840 On ch=1 n=a#6 v=104
201840 On ch=1 n=b3 v=120
201840 On ch=1 n=g4 v=120
201840 On ch=1 n=a#4 v=120
201875 On ch=1 n=a#6 v=0
201875 On ch=1 n=g6 v=0
201880 On ch=1 n=a#6 v=107
201915 On ch=1 n=a#6 v=0
201920 On ch=1 n=a#4 v=0
201920 On ch=1 n=g4 v=0
201920 On ch=1 n=b3 v=0
201920 On ch=1 n=c#7 v=111
201955 On ch=1 n=c#7 v=0
201960 On ch=1 n=g7 v=115
201960 On ch=1 n=a#7 v=115
201960 On ch=1 n=a3 v=97
201995 On ch=1 n=a#7 v=0
201995 On ch=1 n=g7 v=0
202000 On ch=1 n=c#7 v=119
202035 On ch=1 n=c#7 v=0
202040 On ch=1 n=a3 v=0
202040 On ch=1 n=a#6 v=123
202075 On ch=1 n=a#6 v=0
202080 On ch=1 n=f7 v=127
202080 On ch=1 n=a7 v=127
202080 On ch=1 n=b3 v=108
202080 On ch=1 n=f4 v=108
202080 On ch=1 n=a4 v=108
202115 On ch=1 n=a7 v=0
202115 On ch=1 n=f7 v=0
202120 On ch=1 n=c#7 v=127
202155 On ch=1 n=c#7 v=0
202160 On ch=1 n=a4 v=0
202160 On ch=1 n=f4 v=0
202160 On ch=1 n=b3 v=0
202160 On ch=1 n=a6 v=127
202195 On ch=1 n=a6 v=0
202200 On ch=1 n=f6 v=127
202200 On ch=1 n=a6 v=127
202200 On ch=1 n=b2 v=108
202235 On ch=1 n=a6 v=0
202235 On ch=1 n=f6 v=0
202240 On ch=1 n=c#6 v=127
202275 On ch=1 n=c#6 v=0
202280 On ch=1 n=b2 v=0
202280 On ch=1 n=a5 v=127
202315 On ch=1 n=a5 v=0
202320 On ch=1 n=e6 v=127
202320 On ch=1 n=g6 v=127
202320 On ch=1 n=b3 v=108
202320 On ch=1 n=e4 v=108
202320 On ch=1 n=g4 v=108
202355 On ch=1 n=g6 v=0
202355 On ch=1 n=e6 v=0
202360 On ch=1 n=a#5 v=127
202395 On ch=1 n=a#5 v=0
202400 On ch=1 n=g4 v=0
202400 On ch=1 n=e4 v=0
202400 On ch=1 n=b3 v=0
202400 On ch=1 n=a5 v=127
202435 On ch=1 n=a5 v=0
202440 On ch=1 n=e5 v=127
202440 On ch=1 n=g5 v=127
202440 On ch=1 n=a3 v=108
202475 On ch=1 n=g5 v=0
202475 On ch=1 n=e5 v=0
202480 On ch=1 n=a#4 v=127
202515 On ch=1 n=a#4 v=0
202520 On ch=1 n=a3 v=0
202520 On ch=1 n=a4 v=127
202555 On ch=1 n=a4 v=0
202560 On ch=1 n=d5 v=127
202560 On ch=1 n=f5 v=127
202560 On ch=1 n=d3 v=108
202560 On ch=1 n=f4 v=108
202675 On ch=1 n=f4 v=0
202675 On ch=1 n=d3 v=0
202675 On ch=1 n=f5 v=0
202675 On ch=1 n=d5 v=0
202680 On ch=1 n=c#6 v=92
202680 On ch=1 n=g5 v=92
202680 On ch=1 n=g4 v=92
202680 On ch=1 n=a#4 v=92
202680 On ch=1 n=e5 v=92
202715 On ch=1 n=c#6 v=0
202720 On ch=1 n=d6 v=92
202755 On ch=1 n=d6 v=0
202760 On ch=1 n=e5 v=0
202760 On ch=1 n=a#4 v=0
202760 On ch=1 n=g4 v=0
202760 On ch=1 n=g5 v=0
202760 On ch=1 n=e6 v=94
202795 On ch=1 n=e6 v=0
202800 On ch=1 n=f6 v=96
202800 On ch=1 n=d6 v=92
202800 On ch=1 n=a4 v=92
202800 On ch=1 n=d5 v=92
202800 On ch=1 n=f5 v=92
202835 On ch=1 n=f6 v=0
202840 On ch=1 n=g6 v=98
202875 On ch=1 n=g6 v=0
202880 On ch=1 n=f5 v=0
202880 On ch=1 n=d5 v=0
202880 On ch=1 n=a4 v=0
202880 On ch=1 n=d6 v=0
202880 On ch=1 n=a6 v=100
202915 On ch=1 n=a6 v=0
202920 On ch=1 n=c#7 v=102
202920 On ch=1 n=g6 v=100
202920 On ch=1 n=g5 v=100
202920 On ch=1 n=a#5 v=100
202920 On ch=1 n=e6 v=100
202955 On ch=1 n=c#7 v=0
202960 On ch=1 n=d7 v=104
202995 On ch=1 n=d7 v=0
203000 On ch=1 n=e6 v=0
203000 On ch=1 n=a#5 v=0
203000 On ch=1 n=g5 v=0
203000 On ch=1 n=g6 v=0
203000 On ch=1 n=e7 v=106
203035 On ch=1 n=e7 v=0
203040 On ch=1 n=f7 v=109
203040 On ch=1 n=d7 v=109
203040 On ch=1 n=a5 v=109
203040 On ch=1 n=d6 v=109
203040 On ch=1 n=f6 v=109
203075 On ch=1 n=f7 v=0
203080 On ch=1 n=g7 v=112
203115 On ch=1 n=g7 v=0
203120 On ch=1 n=f6 v=0
203120 On ch=1 n=d6 v=0
203120 On ch=1 n=a5 v=0
203120 On ch=1 n=d7 v=0
203120 On ch=1 n=a7 v=115
203155 On ch=1 n=a7 v=0
203160 On ch=1 n=c#8 v=118
203160 On ch=1 n=g7 v=118
203160 On ch=1 n=g6 v=118
203160 On ch=1 n=a#6 v=118
203160 On ch=1 n=e7 v=118
203195 On ch=1 n=c#8 v=0
203200 On ch=1 n=d8 v=121
203235 On ch=1 n=d8 v=0
203240 On ch=1 n=e7 v=0
203240 On ch=1 n=a#6 v=0
203240 On ch=1 n=g6 v=0
203240 On ch=1 n=g7 v=0
203240 On ch=1 n=e8 v=124
203275 On ch=1 n=e8 v=0
203280 On ch=1 n=f8 v=127
203280 On ch=1 n=a7 v=127
203280 On ch=1 n=a6 v=127
203280 On ch=1 n=d7 v=127
203280 On ch=1 n=f7 v=127
203360 On ch=1 n=f7 v=0
203360 On ch=1 n=d7 v=0
203360 On ch=1 n=a6 v=0
203395 On ch=1 n=a7 v=0
203395 On ch=1 n=f8 v=0
203520 On ch=1 n=b3 v=75
203520 On ch=1 n=d4 v=75
203520 On ch=1 n=g4 v=75
203560 On ch=1 n=b4 v=92
203595 On ch=1 n=b4 v=0
203600 On ch=1 n=g4 v=0
203600 On ch=1 n=d4 v=0
203600 On ch=1 n=b3 v=0
203600 On ch=1 n=d5 v=92
203635 On ch=1 n=d5 v=0
203640 On ch=1 n=g5 v=95
203640 On ch=1 n=b2 v=75
203675 On ch=1 n=g5 v=0
203680 On ch=1 n=g5 v=98
203715 On ch=1 n=g5 v=0
203720 On ch=1 n=b2 v=0
203720 On ch=1 n=b5 v=101
203755 On ch=1 n=b5 v=0
203760 On ch=1 n=f6 v=104
203760 On ch=1 n=g#6 v=104
203760 On ch=1 n=b3 v=120
203760 On ch=1 n=f4 v=120
203760 On ch=1 n=g#4 v=120
203795 On ch=1 n=g#6 v=0
203795 On ch=1 n=f6 v=0
203800 On ch=1 n=g#6 v=107
203835 On ch=1 n=g#6 v=0
203840 On ch=1 n=g#4 v=0
203840 On ch=1 n=f4 v=0
203840 On ch=1 n=b3 v=0
203840 On ch=1 n=b6 v=111
203875 On ch=1 n=b6 v=0
203880 On ch=1 n=f7 v=115
203880 On ch=1 n=g#7 v=115
203880 On ch=1 n=g3 v=97
203915 On ch=1 n=g#7 v=0
203915 On ch=1 n=f7 v=0
203920 On ch=1 n=b6 v=119
203955 On ch=1 n=b6 v=0
203960 On ch=1 n=g3 v=0
203960 On ch=1 n=g#6 v=123
203995 On ch=1 n=g#6 v=0
204000 On ch=1 n=e7 v=127
204000 On ch=1 n=g7 v=127
204000 On ch=1 n=b3 v=108
204000 On ch=1 n=e4 v=108
204000 On ch=1 n=g4 v=108
204035 On ch=1 n=g7 v=0
204035 On ch=1 n=e7 v=0
204040 On ch=1 n=b6 v=127
204075 On ch=1 n=b6 v=0
204080 On ch=1 n=g4 v=0
204080 On ch=1 n=e4 v=0
204080 On ch=1 n=b3 v=0
204080 On ch=1 n=g6 v=127
204115 On ch=1 n=g6 v=0
204120 On ch=1 n=e6 v=127
204120 On ch=1 n=g6 v=127
204120 On ch=1 n=b2 v=108
204155 On ch=1 n=g6 v=0
204155 On ch=1 n=e6 v=0
204160 On ch=1 n=b5 v=127
204195 On ch=1 n=b5 v=0
204200 On ch=1 n=b2 v=0
204200 On ch=1 n=g5 v=127
204235 On ch=1 n=g5 v=0
204240 On ch=1 n=d6 v=127
204240 On ch=1 n=f6 v=127
204240 On ch=1 n=b3 v=108
204240 On ch=1 n=d4 v=108
204240 On ch=1 n=f4 v=108
204275 On ch=1 n=f6 v=0
204275 On ch=1 n=d6 v=0
204280 On ch=1 n=g#5 v=127
204315 On ch=1 n=g#5 v=0
204320 On ch=1 n=f4 v=0
204320 On ch=1 n=d4 v=0
204320 On ch=1 n=b3 v=0
204320 On ch=1 n=g5 v=127
204355 On ch=1 n=g5 v=0
204360 On ch=1 n=d5 v=127
204360 On ch=1 n=f5 v=127
204360 On ch=1 n=g3 v=108
204395 On ch=1 n=f5 v=0
204395 On ch=1 n=d5 v=0
204400 On ch=1 n=g#4 v=127
204435 On ch=1 n=g#4 v=0
204440 On ch=1 n=g3 v=0
204440 On ch=1 n=g4 v=127
204475 On ch=1 n=g4 v=0
204480 On ch=1 n=c5 v=127
204480 On ch=1 n=e5 v=127
204480 On ch=1 n=c3 v=108
204480 On ch=1 n=e4 v=108
204595 On ch=1 n=e4 v=0
204595 On ch=1 n=c3 v=0
204595 On ch=1 n=e5 v=0
204595 On ch=1 n=c5 v=0
204600 On ch=1 n=b5 v=92
204600 On ch=1 n=f5 v=92
204600 On ch=1 n=f4 v=92
204600 On ch=1 n=g#4 v=92
204600 On ch=1 n=d5 v=92
204635 On ch=1 n=b5 v=0
204640 On ch=1 n=c6 v=92
204675 On ch=1 n=c6 v=0
204680 On ch=1 n=d5 v=0
204680 On ch=1 n=g#4 v=0
204680 On ch=1 n=f4 v=0
204680 On ch=1 n=f5 v=0
204680 On ch=1 n=d6 v=94
204715 On ch=1 n=d6 v=0
204720 On ch=1 n=e6 v=96
204720 On ch=1 n=c6 v=92
204720 On ch=1 n=g4 v=92
204720 On ch=1 n=c5 v=92
204720 On ch=1 n=e5 v=92
204755 On ch=1 n=e6 v=0
204760 On ch=1 n=f6 v=98
204795 On ch=1 n=f6 v=0
204800 On ch=1 n=e5 v=0
204800 On ch=1 n=c5 v=0
204800 On ch=1 n=g4 v=0
204800 On ch=1 n=c6 v=0
204800 On ch=1 n=g6 v=100
204835 On ch=1 n=g6 v=0
204840 On ch=1 n=b6 v=102
204840 On ch=1 n=f6 v=100
204840 On ch=1 n=f5 v=100
204840 On ch=1 n=g#5 v=100
204840 On ch=1 n=d6 v=100
204875 On ch=1 n=b6 v=0
204880 On ch=1 n=c7 v=104
204915 On ch=1 n=c7 v=0
204920 On ch=1 n=d6 v=0
204920 On ch=1 n=g#5 v=0
204920 On ch=1 n=f5 v=0
204920 On ch=1 n=f6 v=0
204920 On ch=1 n=d7 v=106
204955 On ch=1 n=d7 v=0
204960 On ch=1 n=e7 v=109
204960 On ch=1 n=c7 v=109
204960 On ch=1 n=g5 v=109
204960 On ch=1 n=c6 v=109
204960 On ch=1 n=e6 v=109
204995 On ch=1 n=e7 v=0
205000 On ch=1 n=f7 v=112
205035 On ch=1 n=f7 v=0
205040 On ch=1 n=e6 v=0
205040 On ch=1 n=c6 v=0
205040 On ch=1 n=g5 v=0
205040 On ch=1 n=c7 v=0
205040 On ch=1 n=g7 v=115
205075 On ch=1 n=g7 v=0
205080 On ch=1 n=b7 v=118
205080 On ch=1 n=f7 v=118
205080 On ch=1 n=f6 v=118
205080 On ch=1 n=g#6 v=118
205080 On ch=1 n=d7 v=118
205115 On ch=1 n=b7 v=0
205120 On ch=1 n=c8 v=121
205155 On ch=1 n=c8 v=0
205160 On ch=1 n=d7 v=0
205160 On ch=1 n=g#6 v=0
205160 On ch=1 n=f6 v=0
205160 On ch=1 n=f7 v=0
205160 On ch=1 n=d8 v=124
205195 On ch=1 n=d8 v=0
205200 On ch=1 n=e8 v=127
205200 On ch=1 n=g7 v=127
205200 On ch=1 n=g6 v=127
205200 On ch=1 n=c7 v=127
205200 On ch=1 n=e7 v=127
205280 On ch=1 n=e7 v=0
205280 On ch=1 n=c7 v=0
205280 On ch=1 n=g6 v=0
205315 On ch=1 n=g7 v=0
205315 On ch=1 n=e8 v=0
205320 On ch=1 n=c5 v=92
205320 On ch=1 n=d4 v=92
205360 On ch=1 n=d4 v=0
205360 On ch=1 n=c5 v=0
205360 On ch=1 n=d5 v=92
205360 On ch=1 n=e4 v=92
205400 On ch=1 n=e4 v=0
205400 On ch=1 n=d5 v=0
205400 On ch=1 n=e5 v=92
205400 On ch=1 n=f4 v=92
205440 On ch=1 n=f4 v=0
205440 On ch=1 n=e5 v=0
205440 Par ch=1 c=64 v=127
205440 On ch=1 n=f5 v=127
205440 On ch=1 n=f3 v=127
205440 On ch=1 n=f4 v=127
205555 On ch=1 n=f4 v=0
205555 On ch=1 n=f3 v=0
205555 On ch=1 n=f5 v=0
205560 On ch=1 n=f6 v=108
205560 On ch=1 n=f7 v=108
205560 On ch=1 n=b4 v=92
205560 On ch=1 n=d5 v=92
205560 On ch=1 n=g#5 v=92
205675 On ch=1 n=g#5 v=0
205675 On ch=1 n=d5 v=0
205675 On ch=1 n=b4 v=0
205675 On ch=1 n=f7 v=0
205675 On ch=1 n=f6 v=0
205680 Par ch=1 c=64 v=0
205680 On ch=1 n=b6 v=108
205680 On ch=1 n=b5 v=108
205680 On ch=1 n=b4 v=92
205680 On ch=1 n=d5 v=92
205680 On ch=1 n=g#5 v=92
205795 On ch=1 n=g#5 v=0
205795 On ch=1 n=d5 v=0
205795 On ch=1 n=b4 v=0
205795 On ch=1 n=b5 v=0
205795 On ch=1 n=b6 v=0
205800 On ch=1 n=b2 v=92
205800 On ch=1 n=b3 v=92
205800 On ch=1 n=b4 v=108
205840 On ch=1 n=b4 v=0
205840 On ch=1 n=c5 v=108
205880 On ch=1 n=c5 v=0
205880 On ch=1 n=d5 v=108
205915 On ch=1 n=d5 v=0
205915 On ch=1 n=b3 v=0
205915 On ch=1 n=b2 v=0
205920 Par ch=1 c=64 v=127
205920 On ch=1 n=d#5 v=127
205920 On ch=1 n=d#3 v=127
205920 On ch=1 n=d#4 v=127
206035 On ch=1 n=d#4 v=0
206035 On ch=1 n=d#3 v=0
206035 On ch=1 n=d#5 v=0
206040 On ch=1 n=d#7 v=108
206040 On ch=1 n=d#6 v=108
206040 On ch=1 n=a4 v=92
206040 On ch=1 n=c5 v=92
206040 On ch=1 n=f#5 v=92
206155 On ch=1 n=f#5 v=0
206155 On ch=1 n=c5 v=0
206155 On ch=1 n=a4 v=0
206155 On ch=1 n=d#6 v=0
206155 On ch=1 n=d#7 v=0
206160 Par ch=1 c=64 v=0
206160 On ch=1 n=a6 v=108
206160 On ch=1 n=a5 v=108
206160 On ch=1 n=a4 v=92
206160 On ch=1 n=c5 v=92
206160 On ch=1 n=f#5 v=92
206275 On ch=1 n=f#5 v=0
206275 On ch=1 n=c5 v=0
206275 On ch=1 n=a4 v=0
206275 On ch=1 n=a5 v=0
206275 On ch=1 n=a6 v=0
206280 On ch=1 n=a4 v=108
206280 On ch=1 n=a2 v=92
206280 On ch=1 n=a3 v=92
206320 On ch=1 n=a4 v=0
206320 On ch=1 n=b4 v=108
206360 On ch=1 n=b4 v=0
206360 On ch=1 n=c5 v=108
206395 On ch=1 n=c5 v=0
206395 On ch=1 n=a3 v=0
206395 On ch=1 n=a2 v=0
206400 Par ch=1 c=64 v=127
206400 On ch=1 n=c#5 v=127
206400 On ch=1 n=c#3 v=127
206400 On ch=1 n=c#4 v=127
206515 On ch=1 n=c#4 v=0
206515 On ch=1 n=c#3 v=0
206515 On ch=1 n=c#5 v=0
206520 On ch=1 n=c#6 v=108
206520 On ch=1 n=c#7 v=108
206520 On ch=1 n=g4 v=92
206520 On ch=1 n=a#4 v=92
206520 On ch=1 n=e5 v=92
206635 On ch=1 n=e5 v=0
206635 On ch=1 n=a#4 v=0
206635 On ch=1 n=g4 v=0
206635 On ch=1 n=c#7 v=0
206635 On ch=1 n=c#6 v=0
206640 Par ch=1 c=64 v=0
206640 On ch=1 n=g5 v=108
206640 On ch=1 n=g6 v=108
206640 On ch=1 n=g4 v=92
206640 On ch=1 n=a#4 v=92
206640 On ch=1 n=e5 v=92
206755 On ch=1 n=e5 v=0
206755 On ch=1 n=a#4 v=0
206755 On ch=1 n=g4 v=0
206755 On ch=1 n=g6 v=0
206755 On ch=1 n=g5 v=0
206760 On ch=1 n=g4 v=108
206760 On ch=1 n=g2 v=92
206760 On ch=1 n=g3 v=92
206800 On ch=1 n=g4 v=0
206800 On ch=1 n=g#4 v=108
206840 On ch=1 n=g#4 v=0
206840 On ch=1 n=a#4 v=108
206875 On ch=1 n=a#4 v=0
206875 On ch=1 n=g3 v=0
206875 On ch=1 n=g2 v=0
206880 Par ch=1 c=64 v=127
206880 On ch=1 n=b4 v=127
206880 On ch=1 n=b2 v=127
206880 On ch=1 n=b3 v=127
206995 On ch=1 n=b3 v=0
206995 On ch=1 n=b2 v=0
206995 On ch=1 n=b4 v=0
207000 On ch=1 n=b5 v=108
207000 On ch=1 n=b6 v=108
207000 On ch=1 n=f4 v=92
207000 On ch=1 n=g#4 v=92
207000 On ch=1 n=d5 v=92
207115 On ch=1 n=d5 v=0
207115 On ch=1 n=g#4 v=0
207115 On ch=1 n=f4 v=0
207115 On ch=1 n=b6 v=0
207115 On ch=1 n=b5 v=0
207120 Par ch=1 c=64 v=0
207120 On ch=1 n=f5 v=108
207120 On ch=1 n=f6 v=108
207120 On ch=1 n=f4 v=92
207120 On ch=1 n=g#4 v=92
207120 On ch=1 n=d5 v=92
207235 On ch=1 n=d5 v=0
207235 On ch=1 n=g#4 v=0
207235 On ch=1 n=f4 v=0
207235 On ch=1 n=f6 v=0
207235 On ch=1 n=f5 v=0
207240 On ch=1 n=f4 v=108
207240 On ch=1 n=f2 v=92
207240 On ch=1 n=f3 v=92
207280 On ch=1 n=f4 v=0
207280 On ch=1 n=g#4 v=108
207320 On ch=1 n=g#4 v=0
207320 On ch=1 n=a#4 v=108
207355 On ch=1 n=a#4 v=0
207355 On ch=1 n=f3 v=0
207355 On ch=1 n=f2 v=0
207360 Tempo 1000000
207360 Par ch=1 c=64 v=127
207360 On ch=1 n=b4 v=127
207360 On ch=1 n=b2 v=127
207360 On ch=1 n=b3 v=127
207475 On ch=1 n=b3 v=0
207475 On ch=1 n=b2 v=0
207475 On ch=1 n=b4 v=0
207480 On ch=1 n=b5 v=108
207480 On ch=1 n=b6 v=108
207480 On ch=1 n=f4 v=92
207480 On ch=1 n=a4 v=92
207480 On ch=1 n=d5 v=92
207487 Tempo 1034482
207595 On ch=1 n=d5 v=0
207595 On ch=1 n=a4 v=0
207595 On ch=1 n=f4 v=0
207595 On ch=1 n=b6 v=0
207595 On ch=1 n=b5 v=0
207600 Par ch=1 c=64 v=0
207600 On ch=1 n=f5 v=108
207600 On ch=1 n=f6 v=108
207600 On ch=1 n=f4 v=92
207600 On ch=1 n=a4 v=92
207600 On ch=1 n=d5 v=92
207615 Tempo 1071428
207715 On ch=1 n=d5 v=0
207715 On ch=1 n=a4 v=0
207715 On ch=1 n=f4 v=0
207715 On ch=1 n=f6 v=0
207715 On ch=1 n=f5 v=0
207720 On ch=1 n=f4 v=108
207720 On ch=1 n=f2 v=92
207720 On ch=1 n=f3 v=92
207742 Tempo 1111111
207760 On ch=1 n=f4 v=0
207760 On ch=1 n=a4 v=108
207800 On ch=1 n=a4 v=0
207800 On ch=1 n=a#4 v=108
207835 On ch=1 n=a#4 v=0
207835 On ch=1 n=f3 v=0
207835 On ch=1 n=f2 v=0
207840 Par ch=1 c=64 v=127
207840 On ch=1 n=b4 v=127
207840 On ch=1 n=b2 v=127
207840 On ch=1 n=b3 v=127
207870 Tempo 1153846
207955 On ch=1 n=b3 v=0
207955 On ch=1 n=b2 v=0
207955 On ch=1 n=b4 v=0
207960 On ch=1 n=b5 v=108
207960 On ch=1 n=b6 v=108
207960 On ch=1 n=f4 v=92
207960 On ch=1 n=a4 v=92
207960 On ch=1 n=d#5 v=92
208000 Tempo 1200000
208075 On ch=1 n=d#5 v=0
208075 On ch=1 n=a4 v=0
208075 On ch=1 n=f4 v=0
208075 On ch=1 n=b6 v=0
208075 On ch=1 n=b5 v=0
208080 Par ch=1 c=64 v=0
208080 On ch=1 n=f5 v=108
208080 On ch=1 n=f6 v=108
208080 On ch=1 n=f4 v=92
208080 On ch=1 n=a4 v=92
208080 On ch=1 n=d#5 v=92
208127 Tempo 1250000
208195 On ch=1 n=d#5 v=0
208195 On ch=1 n=a4 v=0
208195 On ch=1 n=f4 v=0
208195 On ch=1 n=f6 v=0
208195 On ch=1 n=f5 v=0
208200 On ch=1 n=a4 v=108
208200 On ch=1 n=a3 v=92
208240 On ch=1 n=a3 v=0
208240 On ch=1 n=a4 v=0
208240 On ch=1 n=g4 v=108
208240 On ch=1 n=g3 v=92
208255 Tempo 1304347
208280 On ch=1 n=g3 v=0
208280 On ch=1 n=g4 v=0
208280 On ch=1 n=f4 v=108
208280 On ch=1 n=f3 v=92
208315 On ch=1 n=f3 v=0
208315 On ch=1 n=f4 v=0
208320 On ch=1 n=e4 v=108
208320 On ch=1 n=e3 v=92
208382 Tempo 1363636
208510 Tempo 1428571
208555 On ch=1 n=e3 v=0
208555 On ch=1 n=e4 v=0
208560 On ch=1 n=b5 v=108
208560 On ch=1 n=e6 v=108
208560 On ch=1 n=a6 v=108
208560 On ch=1 n=b6 v=108
208560 On ch=1 n=e4 v=92
208560 On ch=1 n=a4 v=92
208560 On ch=1 n=b4 v=92
208560 On ch=1 n=e5 v=92
208640 Tempo 1500000
208767 Tempo 1578947
208795 On ch=1 n=e5 v=0
208795 On ch=1 n=b4 v=0
208795 On ch=1 n=a4 v=0
208795 On ch=1 n=e4 v=0
208795 On ch=1 n=b6 v=0
208795 On ch=1 n=a6 v=0
208795 On ch=1 n=e6 v=0
208795 On ch=1 n=b5 v=0
208800 On ch=1 n=e5 v=108
208800 On ch=1 n=e3 v=92
208800 On ch=1 n=e4 v=92
208895 Tempo 1666666
209022 Tempo 1764705
209032 On ch=1 n=e4 v=0
209032 On ch=1 n=e3 v=0
209032 On ch=1 n=e5 v=0
209037 On ch=1 n=e6 v=108
209037 On ch=1 n=g#6 v=108
209037 On ch=1 n=b6 v=108
209037 On ch=1 n=e7 v=108
209037 On ch=1 n=e4 v=92
209037 On ch=1 n=g#4 v=92
209037 On ch=1 n=b4 v=92
209037 On ch=1 n=e5 v=92
209147 Tempo 1875000
209272 On ch=1 n=e5 v=0
209272 On ch=1 n=b4 v=0
209272 On ch=1 n=g#4 v=0
209272 On ch=1 n=e4 v=0
209272 On ch=1 n=e7 v=0
209272 On ch=1 n=b6 v=0
209272 On ch=1 n=g#6 v=0
209272 On ch=1 n=e6 v=0
209277 Tempo 2000000
209277 Tempo 1000000
209277 Par ch=1 c=64 v=127
209277 On ch=1 n=a2 v=108
209277 On ch=1 n=c3 v=108
209277 On ch=1 n=e3 v=108
209277 On ch=1 n=a3 v=108
209317 On ch=1 n=e4 v=92
209352 On ch=1 n=e4 v=0
209357 On ch=1 n=a3 v=0
209357 On ch=1 n=e3 v=0
209357 On ch=1 n=c3 v=0
209357 On ch=1 n=a2 v=0
209357 On ch=1 n=a4 v=92
209392 On ch=1 n=a4 v=0
209397 On ch=1 n=c5 v=92
209397 On ch=1 n=e5 v=92
209397 On ch=1 n=a4 v=127
209432 On ch=1 n=e5 v=0
209432 On ch=1 n=c5 v=0
209437 On ch=1 n=e5 v=92
209452 On ch=1 n=a4 v=0
209457 On ch=1 n=a4 v=127
209472 On ch=1 n=e5 v=0
209477 On ch=1 n=a5 v=92
209512 On ch=1 n=a5 v=0
209517 On ch=1 n=a4 v=0
209517 On ch=1 n=c6 v=92
209517 On ch=1 n=e6 v=92
209517 On ch=1 n=c5 v=127
209552 On ch=1 n=e6 v=0
209552 On ch=1 n=c6 v=0
209557 On ch=1 n=e6 v=92
209577 On ch=1 n=c5 v=0
209577 On ch=1 n=b4 v=127
209592 On ch=1 n=e6 v=0
209597 On ch=1 n=a6 v=92
209632 On ch=1 n=a6 v=0
209637 On ch=1 n=b4 v=0
209637 On ch=1 n=c7 v=92
209637 On ch=1 n=e7 v=92
209637 On ch=1 n=a4 v=127
209672 On ch=1 n=e7 v=0
209672 On ch=1 n=c7 v=0
209677 On ch=1 n=e7 v=92
209692 On ch=1 n=a4 v=0
209697 On ch=1 n=e5 v=127
209712 On ch=1 n=e7 v=0
209717 On ch=1 n=a7 v=92
209752 On ch=1 n=a7 v=0
209757 On ch=1 n=c8 v=92
209757 On ch=1 n=e8 v=92
209777 On ch=1 n=e5 v=0
209792 On ch=1 n=e8 v=0
209792 On ch=1 n=c8 v=0
209797 On ch=1 n=a7 v=92
209832 On ch=1 n=a7 v=0
209837 On ch=1 n=e7 v=92
209872 On ch=1 n=e7 v=0
209877 On ch=1 n=c7 v=92
209877 On ch=1 n=e7 v=92
209912 On ch=1 n=e7 v=0
209912 On ch=1 n=c7 v=0
209917 On ch=1 n=a6 v=92
209937 On ch=1 n=e3 v=127
209952 On ch=1 n=a6 v=0
209957 On ch=1 n=e6 v=92
209992 On ch=1 n=e6 v=0
209992 On ch=1 n=e3 v=0
209997 On ch=1 n=c6 v=92
209997 On ch=1 n=e6 v=92
209997 On ch=1 n=e3 v=127
210032 On ch=1 n=e6 v=0
210032 On ch=1 n=c6 v=0
210037 On ch=1 n=a5 v=92
210057 On ch=1 n=e3 v=0
210057 On ch=1 n=g3 v=127
210072 On ch=1 n=a5 v=0
210077 On ch=1 n=e5 v=92
210112 On ch=1 n=e5 v=0
210117 On ch=1 n=g3 v=0
210117 On ch=1 n=c5 v=92
210117 On ch=1 n=e5 v=92
210117 On ch=1 n=f3 v=127
210152 On ch=1 n=e5 v=0
210152 On ch=1 n=c5 v=0
210157 On ch=1 n=a4 v=92
210177 On ch=1 n=f3 v=0
210177 Par ch=1 c=64 v=0
210177 On ch=1 n=e3 v=127
210192 On ch=1 n=a4 v=0
210197 On ch=1 n=e4 v=92
210232 On ch=1 n=e4 v=0
210232 On ch=1 n=e3 v=0
210237 Par ch=1 c=64 v=127
210237 On ch=1 n=a2 v=108
210237 On ch=1 n=c#3 v=108
210237 On ch=1 n=e3 v=108
210237 On ch=1 n=a3 v=108
210277 On ch=1 n=e4 v=92
210312 On ch=1 n=e4 v=0
210317 On ch=1 n=a3 v=0
210317 On ch=1 n=e3 v=0
210317 On ch=1 n=c#3 v=0
210317 On ch=1 n=a2 v=0
210317 On ch=1 n=a4 v=92
210352 On ch=1 n=a4 v=0
210357 On ch=1 n=c#5 v=92
210357 On ch=1 n=e5 v=92
210357 On ch=1 n=a4 v=127
210392 On ch=1 n=e5 v=0
210392 On ch=1 n=c#5 v=0
210397 On ch=1 n=e5 v=92
210412 On ch=1 n=a4 v=0
210417 On ch=1 n=a4 v=127
210432 On ch=1 n=e5 v=0
210437 On ch=1 n=a5 v=92
210472 On ch=1 n=a5 v=0
210477 On ch=1 n=a4 v=0
210477 On ch=1 n=c#6 v=92
210477 On ch=1 n=e6 v=92
210477 On ch=1 n=c5 v=127
210512 On ch=1 n=e6 v=0
210512 On ch=1 n=c#6 v=0
210517 On ch=1 n=e6 v=92
210537 On ch=1 n=c5 v=0
210537 On ch=1 n=a#4 v=127
210552 On ch=1 n=e6 v=0
210557 On ch=1 n=a6 v=92
210592 On ch=1 n=a6 v=0
210597 On ch=1 n=a#4 v=0
210597 On ch=1 n=c#7 v=92
210597 On ch=1 n=e7 v=92
210597 On ch=1 n=a4 v=127
210632 On ch=1 n=e7 v=0
210632 On ch=1 n=c#7 v=0
210637 On ch=1 n=e7 v=92
210652 On ch=1 n=a4 v=0
210657 On ch=1 n=g5 v=127
210672 On ch=1 n=e7 v=0
210677 On ch=1 n=a7 v=92
210712 On ch=1 n=a7 v=0
210717 On ch=1 n=c#8 v=92
210717 On ch=1 n=e8 v=92
210737 On ch=1 n=g5 v=0
210752 On ch=1 n=e8 v=0
210752 On ch=1 n=c#8 v=0
210757 On ch=1 n=a7 v=92
210792 On ch=1 n=a7 v=0
210797 On ch=1 n=e7 v=92
210832 On ch=1 n=e7 v=0
210837 On ch=1 n=c#7 v=92
210837 On ch=1 n=e7 v=92
210872 On ch=1 n=e7 v=0
210872 On ch=1 n=c#7 v=0
210877 On ch=1 n=a6 v=92
210897 On ch=1 n=a3 v=127
210912 On ch=1 n=a6 v=0
210917 On ch=1 n=e6 v=92
210952 On ch=1 n=e6 v=0
210952 On ch=1 n=a3 v=0
210957 On ch=1 n=c#6 v=92
210957 On ch=1 n=e6 v=92
210957 On ch=1 n=a3 v=127
210992 On ch=1 n=e6 v=0
210992 On ch=1 n=c#6 v=0
210997 On ch=1 n=a5 v=92
211017 On ch=1 n=a3 v=0
211017 On ch=1 n=c4 v=127
211032 On ch=1 n=a5 v=0
211037 On ch=1 n=e5 v=92
211072 On ch=1 n=e5 v=0
211077 On ch=1 n=c4 v=0
211077 On ch=1 n=c#5 v=92
211077 On ch=1 n=e5 v=92
211077 On ch=1 n=a#3 v=127
211112 On ch=1 n=e5 v=0
211112 On ch=1 n=c#5 v=0
211117 On ch=1 n=a4 v=92
211137 On ch=1 n=a#3 v=0
211137 Par ch=1 c=64 v=0
211137 On ch=1 n=a3 v=127
211152 On ch=1 n=a4 v=0
211157 On ch=1 n=e4 v=92
211192 On ch=1 n=e4 v=0
211192 On ch=1 n=a3 v=0
211197 Par ch=1 c=64 v=127
211197 On ch=1 n=d3 v=108
211197 On ch=1 n=f3 v=108
211197 On ch=1 n=a3 v=108
211197 On ch=1 n=d4 v=108
211237 On ch=1 n=f4 v=92
211272 On ch=1 n=f4 v=0
211277 On ch=1 n=d4 v=0
211277 On ch=1 n=a3 v=0
211277 On ch=1 n=f3 v=0
211277 On ch=1 n=d3 v=0
211277 On ch=1 n=a4 v=92
211312 On ch=1 n=a4 v=0
211317 On ch=1 n=d5 v=92
211317 On ch=1 n=f5 v=92
211317 On ch=1 n=a4 v=127
211352 On ch=1 n=f5 v=0
211352 On ch=1 n=d5 v=0
211357 On ch=1 n=f5 v=92
211372 On ch=1 n=a4 v=0
211377 On ch=1 n=a4 v=127
211392 On ch=1 n=f5 v=0
211397 On ch=1 n=a5 v=92
211432 On ch=1 n=a5 v=0
211437 On ch=1 n=a4 v=0
211437 On ch=1 n=d6 v=92
211437 On ch=1 n=f6 v=92
211437 On ch=1 n=c5 v=127
211472 On ch=1 n=f6 v=0
211472 On ch=1 n=d6 v=0
211477 On ch=1 n=f6 v=92
211497 On ch=1 n=c5 v=0
211497 On ch=1 n=a#4 v=127
211512 On ch=1 n=f6 v=0
211517 On ch=1 n=a6 v=92
211552 On ch=1 n=a6 v=0
211557 On ch=1 n=a#4 v=0
211557 On ch=1 n=d7 v=92
211557 On ch=1 n=f7 v=92
211557 On ch=1 n=a4 v=127
211592 On ch=1 n=f7 v=0
211592 On ch=1 n=d7 v=0
211597 On ch=1 n=f7 v=92
211612 On ch=1 n=a4 v=0
211617 On ch=1 n=f5 v=127
211632 On ch=1 n=f7 v=0
211637 On ch=1 n=a7 v=92
211672 On ch=1 n=a7 v=0
211677 On ch=1 n=d8 v=92
211677 On ch=1 n=f8 v=92
211697 On ch=1 n=f5 v=0
211712 On ch=1 n=f8 v=0
211712 On ch=1 n=d8 v=0
211717 On ch=1 n=a7 v=92
211752 On ch=1 n=a7 v=0
211757 On ch=1 n=f7 v=92
211792 On ch=1 n=f7 v=0
211797 On ch=1 n=d7 v=92
211797 On ch=1 n=f7 v=92
211832 On ch=1 n=f7 v=0
211832 On ch=1 n=d7 v=0
211837 On ch=1 n=a6 v=92
211857 On ch=1 n=d3 v=127
211872 On ch=1 n=a6 v=0
211877 On ch=1 n=f6 v=92
211912 On ch=1 n=f6 v=0
211912 On ch=1 n=d3 v=0
211917 On ch=1 n=d6 v=92
211917 On ch=1 n=f6 v=92
211917 On ch=1 n=d3 v=127
211952 On ch=1 n=f6 v=0
211952 On ch=1 n=d6 v=0
211957 On ch=1 n=a5 v=92
211977 On ch=1 n=d3 v=0
211977 On ch=1 n=c#3 v=127
211992 On ch=1 n=a5 v=0
211997 On ch=1 n=f5 v=92
212032 On ch=1 n=f5 v=0
212037 On ch=1 n=c#3 v=0
212037 On ch=1 n=d5 v=92
212037 On ch=1 n=f5 v=92
212037 On ch=1 n=d3 v=127
212072 On ch=1 n=f5 v=0
212072 On ch=1 n=d5 v=0
212077 On ch=1 n=a4 v=92
212097 On ch=1 n=d3 v=0
212097 Par ch=1 c=64 v=0
212097 On ch=1 n=e3 v=127
212112 On ch=1 n=a4 v=0
212117 On ch=1 n=f4 v=92
212152 On ch=1 n=f4 v=0
212152 On ch=1 n=e3 v=0
212157 Tempo 1000000
212157 On ch=1 n=f3 v=108
212157 On ch=1 n=f4 v=108
212219 Tempo 1034482
212277 On ch=1 n=b5 v=108
212277 On ch=1 n=d6 v=108
212277 On ch=1 n=b6 v=108
212277 On ch=1 n=g#4 v=108
212277 On ch=1 n=d5 v=108
212277 On ch=1 n=f5 v=108
212284 Tempo 1071428
212347 Tempo 1111111
212392 On ch=1 n=f5 v=0
212392 On ch=1 n=d5 v=0
212392 On ch=1 n=g#4 v=0
212392 On ch=1 n=b6 v=0
212392 On ch=1 n=d6 v=0
212392 On ch=1 n=b5 v=0
212392 On ch=1 n=f4 v=0
212392 On ch=1 n=f3 v=0
212397 On ch=1 n=g#3 v=108
212397 On ch=1 n=g#4 v=108
212412 Tempo 1153846
212477 Tempo 1200000
212517 On ch=1 n=d6 v=108
212517 On ch=1 n=f6 v=108
212517 On ch=1 n=d7 v=108
212517 On ch=1 n=b4 v=108
212517 On ch=1 n=f5 v=108
212517 On ch=1 n=g#5 v=108
212539 Tempo 1250000
212604 Tempo 1304347
212632 On ch=1 n=g#5 v=0
212632 On ch=1 n=f5 v=0
212632 On ch=1 n=b4 v=0
212632 On ch=1 n=d7 v=0
212632 On ch=1 n=f6 v=0
212632 On ch=1 n=d6 v=0
212632 On ch=1 n=g#4 v=0
212632 On ch=1 n=g#3 v=0
212637 On ch=1 n=b3 v=108
212637 On ch=1 n=b4 v=108
212667 Tempo 1363636
212732 Tempo 1428571
212757 On ch=1 n=f6 v=108
212757 On ch=1 n=g#6 v=108
212757 On ch=1 n=f7 v=108
212757 On ch=1 n=d5 v=108
212757 On ch=1 n=g#5 v=108
212757 On ch=1 n=b5 v=108
212797 Tempo 1500000
212859 Tempo 1578947
212869 On ch=1 n=b5 v=0
212869 On ch=1 n=g#5 v=0
212869 On ch=1 n=d5 v=0
212869 On ch=1 n=f7 v=0
212869 On ch=1 n=g#6 v=0
212869 On ch=1 n=f6 v=0
212869 On ch=1 n=b4 v=0
212869 On ch=1 n=b3 v=0
212874 On ch=1 n=e3 v=108
212874 On ch=1 n=e4 v=108
212921 Tempo 1666666
212984 Tempo 1764705
212994 On ch=1 n=e6 v=108
212994 On ch=1 n=g#6 v=108
212994 On ch=1 n=e7 v=108
212994 On ch=1 n=g#4 v=108
212994 On ch=1 n=b4 v=108
212994 On ch=1 n=e5 v=108
213049 Tempo 1875000
213109 On ch=1 n=e5 v=0
213109 On ch=1 n=b4 v=0
213109 On ch=1 n=g#4 v=0
213109 On ch=1 n=e7 v=0
213109 On ch=1 n=g#6 v=0
213109 On ch=1 n=e6 v=0
213109 On ch=1 n=e4 v=0
213109 On ch=1 n=e3 v=0
213114 Tempo 2000000
213114 Tempo 1000000
213114 Par ch=1 c=64 v=127
213114 On ch=1 n=a2 v=108
213114 On ch=1 n=c3 v=108
213114 On ch=1 n=e3 v=108
213114 On ch=1 n=a3 v=108
213154 On ch=1 n=e4 v=92
213189 On ch=1 n=e4 v=0
213194 On ch=1 n=a3 v=0
213194 On ch=1 n=e3 v=0
213194 On ch=1 n=c3 v=0
213194 On ch=1 n=a2 v=0
213194 On ch=1 n=a4 v=92
213229 On ch=1 n=a4 v=0
213234 On ch=1 n=c5 v=92
213234 On ch=1 n=e5 v=92
213234 On ch=1 n=a4 v=127
213269 On ch=1 n=e5 v=0
213269 On ch=1 n=c5 v=0
213274 On ch=1 n=e5 v=92
213289 On ch=1 n=a4 v=0
213294 On ch=1 n=a4 v=127
213309 On ch=1 n=e5 v=0
213314 On ch=1 n=a5 v=92
213349 On ch=1 n=a5 v=0
213354 On ch=1 n=a4 v=0
213354 On ch=1 n=c6 v=92
213354 On ch=1 n=e6 v=92
213354 On ch=1 n=c5 v=127
213389 On ch=1 n=e6 v=0
213389 On ch=1 n=c6 v=0
213394 On ch=1 n=e6 v=92
213414 On ch=1 n=c5 v=0
213414 On ch=1 n=b4 v=127
213429 On ch=1 n=e6 v=0
213434 On ch=1 n=a6 v=92
213469 On ch=1 n=a6 v=0
213474 On ch=1 n=b4 v=0
213474 On ch=1 n=c7 v=92
213474 On ch=1 n=e7 v=92
213474 On ch=1 n=a4 v=127
213509 On ch=1 n=e7 v=0
213509 On ch=1 n=c7 v=0
213514 On ch=1 n=e7 v=92
213529 On ch=1 n=a4 v=0
213534 On ch=1 n=e5 v=127
213549 On ch=1 n=e7 v=0
213554 On ch=1 n=a7 v=92
213589 On ch=1 n=a7 v=0
213594 On ch=1 n=c8 v=92
213594 On ch=1 n=e8 v=92
213614 On ch=1 n=e5 v=0
213629 On ch=1 n=e8 v=0
213629 On ch=1 n=c8 v=0
213634 On ch=1 n=a7 v=92
213669 On ch=1 n=a7 v=0
213674 On ch=1 n=e7 v=92
213709 On ch=1 n=e7 v=0
213714 On ch=1 n=c7 v=92
213714 On ch=1 n=e7 v=92
213749 On ch=1 n=e7 v=0
213749 On ch=1 n=c7 v=0
213754 On ch=1 n=a6 v=92
213774 On ch=1 n=e3 v=127
213789 On ch=1 n=a6 v=0
213794 On ch=1 n=e6 v=92
213829 On ch=1 n=e6 v=0
213829 On ch=1 n=e3 v=0
213834 On ch=1 n=c6 v=92
213834 On ch=1 n=e6 v=92
213834 On ch=1 n=e3 v=127
213869 On ch=1 n=e6 v=0
213869 On ch=1 n=c6 v=0
213874 On ch=1 n=a5 v=92
213894 On ch=1 n=e3 v=0
213894 On ch=1 n=g3 v=127
213909 On ch=1 n=a5 v=0
213914 On ch=1 n=e5 v=92
213949 On ch=1 n=e5 v=0
213954 On ch=1 n=g3 v=0
213954 On ch=1 n=c5 v=92
213954 On ch=1 n=e5 v=92
213954 On ch=1 n=f3 v=127
213989 On ch=1 n=e5 v=0
213989 On ch=1 n=c5 v=0
213994 On ch=1 n=a4 v=92
214014 On ch=1 n=f3 v=0
214014 Par ch=1 c=64 v=0
214014 On ch=1 n=e3 v=127
214029 On ch=1 n=a4 v=0
214034 On ch=1 n=e4 v=92
214069 On ch=1 n=e4 v=0
214069 On ch=1 n=e3 v=0
214074 Par ch=1 c=64 v=127
214074 On ch=1 n=a2 v=108
214074 On ch=1 n=c#3 v=108
214074 On ch=1 n=e3 v=108
214074 On ch=1 n=a3 v=108
214114 On ch=1 n=e4 v=92
214149 On ch=1 n=e4 v=0
214154 On ch=1 n=a3 v=0
214154 On ch=1 n=e3 v=0
214154 On ch=1 n=c#3 v=0
214154 On ch=1 n=a2 v=0
214154 On ch=1 n=a4 v=92
214189 On ch=1 n=a4 v=0
214194 On ch=1 n=c#5 v=92
214194 On ch=1 n=e5 v=92
214194 On ch=1 n=a4 v=127
214229 On ch=1 n=e5 v=0
214229 On ch=1 n=c#5 v=0
214234 On ch=1 n=e5 v=92
214249 On ch=1 n=a4 v=0
214254 On ch=1 n=a4 v=127
214269 On ch=1 n=e5 v=0
214274 On ch=1 n=a5 v=92
214309 On ch=1 n=a5 v=0
214314 On ch=1 n=a4 v=0
214314 On ch=1 n=c#6 v=92
214314 On ch=1 n=e6 v=92
214314 On ch=1 n=c5 v=127
214349 On ch=1 n=e6 v=0
214349 On ch=1 n=c#6 v=0
214354 On ch=1 n=e6 v=92
214374 On ch=1 n=c5 v=0
214374 On ch=1 n=a#4 v=127
214389 On ch=1 n=e6 v=0
214394 On ch=1 n=a6 v=92
214429 On ch=1 n=a6 v=0
214434 On ch=1 n=a#4 v=0
214434 On ch=1 n=c#7 v=92
214434 On ch=1 n=e7 v=92
214434 On ch=1 n=a4 v=127
214469 On ch=1 n=e7 v=0
214469 On ch=1 n=c#7 v=0
214474 On ch=1 n=e7 v=92
214489 On ch=1 n=a4 v=0
214494 On ch=1 n=g5 v=127
214509 On ch=1 n=e7 v=0
214514 On ch=1 n=a7 v=92
214549 On ch=1 n=a7 v=0
214554 On ch=1 n=c#8 v=92
214554 On ch=1 n=e8 v=92
214574 On ch=1 n=g5 v=0
214589 On ch=1 n=e8 v=0
214589 On ch=1 n=c#8 v=0
214594 On ch=1 n=a7 v=92
214629 On ch=1 n=a7 v=0
214634 On ch=1 n=e7 v=92
214669 On ch=1 n=e7 v=0
214674 On ch=1 n=c#7 v=92
214674 On ch=1 n=e7 v=92
214709 On ch=1 n=e7 v=0
214709 On ch=1 n=c#7 v=0
214714 On ch=1 n=a6 v=92
214734 On ch=1 n=a3 v=127
214749 On ch=1 n=a6 v=0
214754 On ch=1 n=e6 v=92
214789 On ch=1 n=e6 v=0
214789 On ch=1 n=a3 v=0
214794 On ch=1 n=c#6 v=92
214794 On ch=1 n=e6 v=92
214794 On ch=1 n=a3 v=127
214829 On ch=1 n=e6 v=0
214829 On ch=1 n=c#6 v=0
214834 On ch=1 n=a5 v=92
214854 On ch=1 n=a3 v=0
214854 On ch=1 n=c4 v=127
214869 On ch=1 n=a5 v=0
214874 On ch=1 n=e5 v=92
214909 On ch=1 n=e5 v=0
214914 On ch=1 n=c4 v=0
214914 On ch=1 n=c#5 v=92
214914 On ch=1 n=e5 v=92
214914 On ch=1 n=a#3 v=127
214949 On ch=1 n=e5 v=0
214949 On ch=1 n=c#5 v=0
214954 On ch=1 n=a4 v=92
214974 On ch=1 n=a#3 v=0
214974 Par ch=1 c=64 v=0
214974 On ch=1 n=a3 v=127
214989 On ch=1 n=a4 v=0
214994 On ch=1 n=e4 v=92
215029 On ch=1 n=e4 v=0
215029 On ch=1 n=a3 v=0
215034 Par ch=1 c=64 v=127
215034 On ch=1 n=d3 v=108
215034 On ch=1 n=f3 v=108
215034 On ch=1 n=a3 v=108
215034 On ch=1 n=d4 v=108
215074 On ch=1 n=f4 v=92
215109 On ch=1 n=f4 v=0
215114 On ch=1 n=d4 v=0
215114 On ch=1 n=a3 v=0
215114 On ch=1 n=f3 v=0
215114 On ch=1 n=d3 v=0
215114 On ch=1 n=a4 v=92
215149 On ch=1 n=a4 v=0
215154 On ch=1 n=d5 v=92
215154 On ch=1 n=f5 v=92
215154 On ch=1 n=a4 v=127
215189 On ch=1 n=f5 v=0
215189 On ch=1 n=d5 v=0
215194 On ch=1 n=f5 v=92
215209 On ch=1 n=a4 v=0
215214 On ch=1 n=a4 v=127
215229 On ch=1 n=f5 v=0
215234 On ch=1 n=a5 v=92
215269 On ch=1 n=a5 v=0
215274 On ch=1 n=a4 v=0
215274 On ch=1 n=d6 v=92
215274 On ch=1 n=f6 v=92
215274 On ch=1 n=c5 v=127
215309 On ch=1 n=f6 v=0
215309 On ch=1 n=d6 v=0
215314 On ch=1 n=f6 v=92
215334 On ch=1 n=c5 v=0
215334 On ch=1 n=a#4 v=127
215349 On ch=1 n=f6 v=0
215354 On ch=1 n=a6 v=92
215389 On ch=1 n=a6 v=0
215394 On ch=1 n=a#4 v=0
215394 On ch=1 n=d7 v=92
215394 On ch=1 n=f7 v=92
215394 On ch=1 n=a4 v=127
215429 On ch=1 n=f7 v=0
215429 On ch=1 n=d7 v=0
215434 On ch=1 n=f7 v=92
215449 On ch=1 n=a4 v=0
215454 On ch=1 n=f5 v=127
215469 On ch=1 n=f7 v=0
215474 On ch=1 n=a7 v=92
215509 On ch=1 n=a7 v=0
215514 On ch=1 n=d8 v=92
215514 On ch=1 n=f8 v=92
215534 On ch=1 n=f5 v=0
215549 On ch=1 n=f8 v=0
215549 On ch=1 n=d8 v=0
215554 On ch=1 n=a7 v=92
215589 On ch=1 n=a7 v=0
215594 On ch=1 n=f7 v=92
215629 On ch=1 n=f7 v=0
215634 On ch=1 n=d7 v=92
215634 On ch=1 n=f7 v=92
215669 On ch=1 n=f7 v=0
215669 On ch=1 n=d7 v=0
215674 On ch=1 n=a6 v=92
215694 On ch=1 n=d3 v=127
215709 On ch=1 n=a6 v=0
215714 On ch=1 n=f6 v=92
215749 On ch=1 n=f6 v=0
215749 On ch=1 n=d3 v=0
215754 On ch=1 n=d6 v=92
215754 On ch=1 n=f6 v=92
215754 On ch=1 n=d3 v=127
215789 On ch=1 n=f6 v=0
215789 On ch=1 n=d6 v=0
215794 On ch=1 n=a5 v=92
215814 On ch=1 n=d3 v=0
215814 On ch=1 n=c#3 v=127
215829 On ch=1 n=a5 v=0
215834 On ch=1 n=f5 v=92
215869 On ch=1 n=f5 v=0
215874 On ch=1 n=c#3 v=0
215874 On ch=1 n=d5 v=92
215874 On ch=1 n=f5 v=92
215874 On ch=1 n=d3 v=127
215909 On ch=1 n=f5 v=0
215909 On ch=1 n=d5 v=0
215914 On ch=1 n=a4 v=92
215934 On ch=1 n=d3 v=0
215934 Par ch=1 c=64 v=0
215934 On ch=1 n=e3 v=127
215949 On ch=1 n=a4 v=0
215954 On ch=1 n=f4 v=92
215989 On ch=1 n=f4 v=0
215989 On ch=1 n=e3 v=0
215994 Tempo 1000000
215994 On ch=1 n=f3 v=108
215994 On ch=1 n=f4 v=108
216056 Tempo 1034482
216114 On ch=1 n=b5 v=108
216114 On ch=1 n=d6 v=108
216114 On ch=1 n=b6 v=108
216114 On ch=1 n=g#4 v=108
216114 On ch=1 n=d5 v=108
216114 On ch=1 n=f5 v=108
216121 Tempo 1071428
216184 Tempo 1111111
216229 On ch=1 n=f5 v=0
216229 On ch=1 n=d5 v=0
216229 On ch=1 n=g#4 v=0
216229 On ch=1 n=b6 v=0
216229 On ch=1 n=d6 v=0
216229 On ch=1 n=b5 v=0
216229 On ch=1 n=f4 v=0
216229 On ch=1 n=f3 v=0
216234 On ch=1 n=g#3 v=108
216234 On ch=1 n=g#4 v=108
216249 Tempo 1153846
216314 Tempo 1200000
216354 On ch=1 n=d6 v=108
216354 On ch=1 n=f6 v=108
216354 On ch=1 n=d7 v=108
216354 On ch=1 n=b4 v=108
216354 On ch=1 n=f5 v=108
216354 On ch=1 n=g#5 v=108
216376 Tempo 1250000
216441 Tempo 1304347
216469 On ch=1 n=g#5 v=0
216469 On ch=1 n=f5 v=0
216469 On ch=1 n=b4 v=0
216469 On ch=1 n=d7 v=0
216469 On ch=1 n=f6 v=0
216469 On ch=1 n=d6 v=0
216469 On ch=1 n=g#4 v=0
216469 On ch=1 n=g#3 v=0
216474 On ch=1 n=b3 v=108
216474 On ch=1 n=b4 v=108
216504 Tempo 1363636
216569 Tempo 1428571
216594 On ch=1 n=f6 v=108
216594 On ch=1 n=g#6 v=108
216594 On ch=1 n=f7 v=108
216594 On ch=1 n=d5 v=108
216594 On ch=1 n=g#5 v=108
216594 On ch=1 n=b5 v=108
216634 Tempo 1500000
216696 Tempo 1578947
216706 On ch=1 n=b5 v=0
216706 On ch=1 n=g#5 v=0
216706 On ch=1 n=d5 v=0
216706 On ch=1 n=f7 v=0
216706 On ch=1 n=g#6 v=0
216706 On ch=1 n=f6 v=0
216706 On ch=1 n=b4 v=0
216706 On ch=1 n=b3 v=0
216711 On ch=1 n=e3 v=108
216711 On ch=1 n=e4 v=108
216758 Tempo 1666666
216821 Tempo 1764705
216831 On ch=1 n=e6 v=108
216831 On ch=1 n=g#6 v=108
216831 On ch=1 n=e7 v=108
216831 On ch=1 n=g#4 v=108
216831 On ch=1 n=b4 v=108
216831 On ch=1 n=e5 v=108
216886 Tempo 1875000
216946 On ch=1 n=e5 v=0
216946 On ch=1 n=b4 v=0
216946 On ch=1 n=g#4 v=0
216946 On ch=1 n=e7 v=0
216946 On ch=1 n=g#6 v=0
216946 On ch=1 n=e6 v=0
216946 On ch=1 n=e4 v=0
216946 On ch=1 n=e3 v=0
216951 Tempo 2000000
216951 Tempo 1000000
216951 KeySig 3 major
216951 Par ch=1 c=64 v=127
216951 On ch=1 n=a3 v=108
216951 On ch=1 n=a2 v=92
216986 On ch=1 n=a2 v=0
216986 On ch=1 n=a3 v=0
216991 On ch=1 n=c#4 v=108
216991 On ch=1 n=c#3 v=92
217026 On ch=1 n=c#3 v=0
217026 On ch=1 n=c#4 v=0
217031 On ch=1 n=e4 v=108
217031 On ch=1 n=e3 v=92
217066 On ch=1 n=e3 v=0
217066 On ch=1 n=e4 v=0
217071 On ch=1 n=a4 v=108
217071 On ch=1 n=a3 v=92
217106 On ch=1 n=a3 v=0
217106 On ch=1 n=a4 v=0
217111 On ch=1 n=c#5 v=108
217111 On ch=1 n=c#4 v=92
217146 On ch=1 n=c#4 v=0
217146 On ch=1 n=c#5 v=0
217151 On ch=1 n=e5 v=108
217151 On ch=1 n=e4 v=92
217186 On ch=1 n=e4 v=0
217186 On ch=1 n=e5 v=0
217191 On ch=1 n=a5 v=108
217191 On ch=1 n=a4 v=92
217226 On ch=1 n=a4 v=0
217226 On ch=1 n=a5 v=0
217231 On ch=1 n=c#6 v=108
217231 On ch=1 n=c#5 v=92
217266 On ch=1 n=c#5 v=0
217266 On ch=1 n=c#6 v=0
217271 On ch=1 n=e6 v=108
217271 On ch=1 n=e5 v=92
217306 On ch=1 n=e5 v=0
217306 On ch=1 n=e6 v=0
217311 On ch=1 n=a5 v=92
217311 On ch=1 n=a6 v=108
217346 On ch=1 n=a6 v=0
217346 On ch=1 n=a5 v=0
217351 On ch=1 n=c#7 v=108
217351 On ch=1 n=c#6 v=92
217386 On ch=1 n=c#6 v=0
217386 On ch=1 n=c#7 v=0
217391 On ch=1 n=e7 v=108
217391 On ch=1 n=e6 v=92
217426 On ch=1 n=e6 v=0
217426 On ch=1 n=e7 v=0
217431 On ch=1 n=a7 v=108
217431 On ch=1 n=a6 v=92
217466 On ch=1 n=a6 v=0
217466 On ch=1 n=a7 v=0
217471 On ch=1 n=e7 v=108
217471 On ch=1 n=e6 v=92
217506 On ch=1 n=e6 v=0
217506 On ch=1 n=e7 v=0
217511 On ch=1 n=c#7 v=108
217511 On ch=1 n=c#6 v=92
217546 On ch=1 n=c#6 v=0
217546 On ch=1 n=c#7 v=0
217551 On ch=1 n=a6 v=108
217551 On ch=1 n=a5 v=92
217586 On ch=1 n=a5 v=0
217586 On ch=1 n=a6 v=0
217591 On ch=1 n=e6 v=108
217591 On ch=1 n=e5 v=92
217626 On ch=1 n=e5 v=0
217626 On ch=1 n=e6 v=0
217631 On ch=1 n=c#6 v=108
217631 On ch=1 n=c#5 v=92
217666 On ch=1 n=c#5 v=0
217666 On ch=1 n=c#6 v=0
217671 On ch=1 n=a5 v=108
217671 On ch=1 n=a4 v=92
217706 On ch=1 n=a4 v=0
217706 On ch=1 n=a5 v=0
217711 On ch=1 n=e5 v=108
217711 On ch=1 n=e4 v=92
217746 On ch=1 n=e4 v=0
217746 On ch=1 n=e5 v=0
217751 On ch=1 n=c#5 v=108
217751 On ch=1 n=c#4 v=92
217786 On ch=1 n=c#4 v=0
217786 On ch=1 n=c#5 v=0
217791 On ch=1 n=a4 v=108
217791 On ch=1 n=a3 v=92
217826 On ch=1 n=a3 v=0
217826 On ch=1 n=a4 v=0
217831 On ch=1 n=e4 v=108
217831 On ch=1 n=e3 v=92
217851 Par ch=1 c=64 v=0
217866 On ch=1 n=e3 v=0
217866 On ch=1 n=e4 v=0
217871 On ch=1 n=c#4 v=108
217871 On ch=1 n=c#3 v=92
217906 On ch=1 n=c#3 v=0
217906 On ch=1 n=c#4 v=0
217911 Tempo 821917
217911 Par ch=1 c=64 v=127
217911 On ch=1 n=a3 v=108
217911 On ch=1 n=a2 v=92
217951 On ch=1 n=a2 v=0
217951 On ch=1 n=a3 v=0
217956 On ch=1 n=c#4 v=108
217956 On ch=1 n=c#3 v=92
217996 On ch=1 n=c#3 v=0
217996 On ch=1 n=c#4 v=0
218001 On ch=1 n=e4 v=108
218001 On ch=1 n=e3 v=92
218041 On ch=1 n=e3 v=0
218041 On ch=1 n=e4 v=0
218046 On ch=1 n=a4 v=108
218046 On ch=1 n=a3 v=92
218086 On ch=1 n=a3 v=0
218086 On ch=1 n=a4 v=0
218091 On ch=1 n=c#5 v=108
218091 On ch=1 n=c#4 v=92
218131 On ch=1 n=c#4 v=0
218131 On ch=1 n=c#5 v=0
218136 On ch=1 n=e5 v=108
218136 On ch=1 n=e4 v=92
218176 On ch=1 n=e4 v=0
218176 On ch=1 n=e5 v=0
218181 On ch=1 n=a5 v=108
218181 On ch=1 n=a4 v=92
218221 On ch=1 n=a4 v=0
218221 On ch=1 n=a5 v=0
218226 On ch=1 n=c#6 v=108
218226 On ch=1 n=c#5 v=92
218266 On ch=1 n=c#5 v=0
218266 On ch=1 n=c#6 v=0
218271 On ch=1 n=e6 v=108
218271 On ch=1 n=e5 v=92
218311 On ch=1 n=e5 v=0
218311 On ch=1 n=e6 v=0
218316 On ch=1 n=a6 v=108
218316 On ch=1 n=a5 v=92
218356 On ch=1 n=a5 v=0
218356 On ch=1 n=a6 v=0
218361 On ch=1 n=c#7 v=108
218361 On ch=1 n=c#6 v=92
218401 On ch=1 n=c#6 v=0
218401 On ch=1 n=c#7 v=0
218406 On ch=1 n=e7 v=108
218406 On ch=1 n=e6 v=92
218446 On ch=1 n=e6 v=0
218446 On ch=1 n=e7 v=0
218451 Tempo 1224489
218451 On ch=1 n=a7 v=108
218451 On ch=1 n=a6 v=92
218476 On ch=1 n=a6 v=0
218476 On ch=1 n=a7 v=0
218481 On ch=1 n=c#8 v=108
218481 On ch=1 n=c#7 v=92
218506 On ch=1 n=c#7 v=0
218506 On ch=1 n=c#8 v=0
218511 On ch=1 n=a7 v=108
218511 On ch=1 n=a6 v=92
218536 On ch=1 n=a6 v=0
218536 On ch=1 n=a7 v=0
218541 On ch=1 n=e7 v=108
218541 On ch=1 n=e6 v=92
218566 On ch=1 n=e6 v=0
218566 On ch=1 n=e7 v=0
218571 On ch=1 n=c#7 v=108
218571 On ch=1 n=c#6 v=92
218596 On ch=1 n=c#6 v=0
218596 On ch=1 n=c#7 v=0
218601 On ch=1 n=a6 v=108
218601 On ch=1 n=a5 v=92
218626 On ch=1 n=a5 v=0
218626 On ch=1 n=a6 v=0
218631 On ch=1 n=e6 v=108
218631 On ch=1 n=e5 v=92
218656 On ch=1 n=e5 v=0
218656 On ch=1 n=e6 v=0
218661 On ch=1 n=c#6 v=108
218661 On ch=1 n=c#5 v=92
218686 On ch=1 n=c#5 v=0
218686 On ch=1 n=c#6 v=0
218691 On ch=1 n=a5 v=108
218691 On ch=1 n=a4 v=92
218716 On ch=1 n=a4 v=0
218716 On ch=1 n=a5 v=0
218721 On ch=1 n=e5 v=108
218721 On ch=1 n=e4 v=92
218746 On ch=1 n=e4 v=0
218746 On ch=1 n=e5 v=0
218751 On ch=1 n=c#5 v=108
218751 On ch=1 n=c#4 v=92
218776 On ch=1 n=c#4 v=0
218776 On ch=1 n=c#5 v=0
218781 On ch=1 n=a4 v=108
218781 On ch=1 n=a3 v=92
218806 On ch=1 n=a3 v=0
218806 On ch=1 n=a4 v=0
218811 Par ch=1 c=64 v=0
218811 On ch=1 n=e4 v=108
218811 On ch=1 n=e3 v=92
218836 On ch=1 n=e3 v=0
218836 On ch=1 n=e4 v=0
218841 On ch=1 n=c#4 v=108
218841 On ch=1 n=c#3 v=92
218866 On ch=1 n=c#3 v=0
218866 On ch=1 n=c#4 v=0
218871 Tempo 731707
218871 Par ch=1 c=64 v=127
218871 On ch=1 n=a3 v=108
218871 On ch=1 n=a2 v=92
218911 On ch=1 n=a2 v=0
218911 On ch=1 n=a3 v=0
218916 On ch=1 n=c#4 v=108
218916 On ch=1 n=c#3 v=92
218956 On ch=1 n=c#3 v=0
218956 On ch=1 n=c#4 v=0
218961 On ch=1 n=e4 v=108
218961 On ch=1 n=e3 v=92
219001 On ch=1 n=e3 v=0
219001 On ch=1 n=e4 v=0
219006 On ch=1 n=a4 v=108
219006 On ch=1 n=a3 v=92
219046 On ch=1 n=a3 v=0
219046 On ch=1 n=a4 v=0
219051 On ch=1 n=c#5 v=108
219051 On ch=1 n=c#4 v=92
219091 On ch=1 n=c#4 v=0
219091 On ch=1 n=c#5 v=0
219096 On ch=1 n=e5 v=108
219096 On ch=1 n=e4 v=92
219136 On ch=1 n=e4 v=0
219136 On ch=1 n=e5 v=0
219141 Tempo 1111111
219141 On ch=1 n=a5 v=108
219141 On ch=1 n=g#4 v=92
219166 On ch=1 n=g#4 v=0
219166 On ch=1 n=a5 v=0
219171 On ch=1 n=c#6 v=108
219171 On ch=1 n=c#5 v=92
219196 On ch=1 n=c#5 v=0
219196 On ch=1 n=c#6 v=0
219201 On ch=1 n=e6 v=108
219201 On ch=1 n=e5 v=92
219226 On ch=1 n=e5 v=0
219226 On ch=1 n=e6 v=0
219231 On ch=1 n=a6 v=108
219231 On ch=1 n=a5 v=92
219256 On ch=1 n=a5 v=0
219256 On ch=1 n=a6 v=0
219261 On ch=1 n=c#7 v=108
219261 On ch=1 n=c#6 v=92
219286 On ch=1 n=c#6 v=0
219286 On ch=1 n=c#7 v=0
219291 On ch=1 n=e7 v=108
219291 On ch=1 n=e6 v=92
219316 On ch=1 n=e6 v=0
219316 On ch=1 n=e7 v=0
219321 On ch=1 n=a7 v=108
219321 On ch=1 n=a6 v=92
219346 On ch=1 n=a6 v=0
219346 On ch=1 n=a7 v=0
219351 On ch=1 n=c#8 v=108
219351 On ch=1 n=c#7 v=92
219376 On ch=1 n=c#7 v=0
219376 On ch=1 n=c#8 v=0
219381 On ch=1 n=f8 v=108
219381 On ch=1 n=f7 v=92
219406 On ch=1 n=f7 v=0
219406 On ch=1 n=f8 v=0
219411 On ch=1 n=e8 v=108
219411 On ch=1 n=e7 v=92
219436 On ch=1 n=e7 v=0
219436 On ch=1 n=e8 v=0
219441 On ch=1 n=c#8 v=108
219441 On ch=1 n=c#7 v=92
219466 On ch=1 n=c#7 v=0
219466 On ch=1 n=c#8 v=0
219471 On ch=1 n=a7 v=108
219471 On ch=1 n=a6 v=92
219496 On ch=1 n=a6 v=0
219496 On ch=1 n=a7 v=0
219501 On ch=1 n=e7 v=108
219501 On ch=1 n=e6 v=92
219526 On ch=1 n=e6 v=0
219526 On ch=1 n=e7 v=0
219531 On ch=1 n=c#7 v=108
219531 On ch=1 n=c#6 v=92
219556 On ch=1 n=c#6 v=0
219556 On ch=1 n=c#7 v=0
219561 On ch=1 n=a6 v=108
219561 On ch=1 n=a5 v=92
219586 On ch=1 n=a5 v=0
219586 On ch=1 n=a6 v=0
219591 On ch=1 n=e6 v=108
219591 On ch=1 n=e5 v=92
219616 On ch=1 n=e5 v=0
219616 On ch=1 n=e6 v=0
219621 On ch=1 n=c#6 v=108
219621 On ch=1 n=c#5 v=92
219646 On ch=1 n=c#5 v=0
219646 On ch=1 n=c#6 v=0
219651 On ch=1 n=a5 v=108
219651 On ch=1 n=a4 v=92
219676 On ch=1 n=a4 v=0
219676 On ch=1 n=a5 v=0
219681 On ch=1 n=e5 v=108
219681 On ch=1 n=e4 v=92
219706 On ch=1 n=e4 v=0
219706 On ch=1 n=e5 v=0
219711 On ch=1 n=c#5 v=108
219711 On ch=1 n=c#4 v=92
219736 On ch=1 n=c#4 v=0
219736 On ch=1 n=c#5 v=0
219741 On ch=1 n=a4 v=108
219741 On ch=1 n=a3 v=92
219766 On ch=1 n=a3 v=0
219766 On ch=1 n=a4 v=0
219771 Par ch=1 c=64 v=0
219771 On ch=1 n=e4 v=108
219771 On ch=1 n=e3 v=92
219796 On ch=1 n=e3 v=0
219796 On ch=1 n=e4 v=0
219801 On ch=1 n=c#4 v=108
219801 On ch=1 n=c#3 v=92
219826 On ch=1 n=c#3 v=0
219826 On ch=1 n=c#4 v=0
219831 Par ch=1 c=64 v=127
219831 On ch=1 n=a3 v=108
219831 On ch=1 n=a2 v=92
219946 On ch=1 n=a2 v=0
219946 On ch=1 n=a3 v=0
219951 On ch=1 n=a#3 v=108
219951 On ch=1 n=a#2 v=92
219976 On ch=1 n=a#2 v=0
219976 On ch=1 n=a#3 v=0
219981 On ch=1 n=a3 v=108
219981 On ch=1 n=a2 v=92
220006 On ch=1 n=a2 v=0
220006 On ch=1 n=a3 v=0
220011 On ch=1 n=a#3 v=108
220011 On ch=1 n=a#2 v=92
220036 On ch=1 n=a#2 v=0
220036 On ch=1 n=a#3 v=0
220041 On ch=1 n=a3 v=108
220041 On ch=1 n=a2 v=92
220066 On ch=1 n=a2 v=0
220066 On ch=1 n=a3 v=0
220071 On ch=1 n=a#3 v=108
220071 On ch=1 n=a#2 v=92
220096 On ch=1 n=a#2 v=0
220096 On ch=1 n=a#3 v=0
220101 On ch=1 n=a3 v=108
220101 On ch=1 n=a2 v=92
220126 On ch=1 n=a2 v=0
220126 On ch=1 n=a3 v=0
220131 On ch=1 n=a#3 v=108
220131 On ch=1 n=a#2 v=92
220156 On ch=1 n=a#2 v=0
220156 On ch=1 n=a#3 v=0
220161 On ch=1 n=a3 v=108
220161 On ch=1 n=a2 v=92
220186 On ch=1 n=a2 v=0
220186 On ch=1 n=a3 v=0
220191 On ch=1 n=a#3 v=108
220191 On ch=1 n=a#2 v=92
220216 On ch=1 n=a#2 v=0
220216 On ch=1 n=a#3 v=0
220221 On ch=1 n=a3 v=108
220221 On ch=1 n=a2 v=92
220246 On ch=1 n=a2 v=0
220246 On ch=1 n=a3 v=0
220251 Par ch=1 c=64 v=0
220251 On ch=1 n=a#3 v=108
220251 On ch=1 n=a#2 v=92
220276 On ch=1 n=a#2 v=0
220276 On ch=1 n=a#3 v=0
220281 On ch=1 n=a3 v=108
220281 On ch=1 n=a2 v=92
220306 On ch=1 n=a2 v=0
220306 On ch=1 n=a3 v=0
220311 Par ch=1 c=64 v=127
220311 On ch=1 n=a3 v=108
220311 On ch=1 n=a2 v=92
220336 On ch=1 n=a2 v=0
220336 On ch=1 n=a3 v=0
220341 On ch=1 n=a#3 v=108
220341 On ch=1 n=a#2 v=92
220366 On ch=1 n=a#2 v=0
220366 On ch=1 n=a#3 v=0
220371 On ch=1 n=b3 v=108
220371 On ch=1 n=b2 v=92
220396 On ch=1 n=b2 v=0
220396 On ch=1 n=b3 v=0
220401 On ch=1 n=c4 v=108
220401 On ch=1 n=c3 v=92
220426 On ch=1 n=c3 v=0
220426 On ch=1 n=c4 v=0
220431 On ch=1 n=c#4 v=108
220431 On ch=1 n=c#3 v=92
220456 On ch=1 n=c#3 v=0
220456 On ch=1 n=c#4 v=0
220461 On ch=1 n=d4 v=108
220461 On ch=1 n=d3 v=92
220486 On ch=1 n=d3 v=0
220486 On ch=1 n=d4 v=0
220491 On ch=1 n=d#4 v=108
220491 On ch=1 n=d#3 v=92
220516 On ch=1 n=d#3 v=0
220516 On ch=1 n=d#4 v=0
220521 On ch=1 n=e4 v=108
220521 On ch=1 n=e3 v=92
220546 On ch=1 n=e3 v=0
220546 On ch=1 n=e4 v=0
220551 On ch=1 n=f4 v=108
220551 On ch=1 n=f3 v=92
220576 On ch=1 n=f3 v=0
220576 On ch=1 n=f4 v=0
220581 On ch=1 n=e4 v=108
220581 On ch=1 n=e3 v=92
220606 On ch=1 n=e3 v=0
220606 On ch=1 n=e4 v=0
220611 On ch=1 n=d#4 v=108
220611 On ch=1 n=d#3 v=92
220636 On ch=1 n=d#3 v=0
220636 On ch=1 n=d#4 v=0
220641 On ch=1 n=d4 v=108
220641 On ch=1 n=d3 v=92
220666 On ch=1 n=d3 v=0
220666 On ch=1 n=d4 v=0
220671 On ch=1 n=c#4 v=108
220671 On ch=1 n=c#3 v=92
220696 On ch=1 n=c#3 v=0
220696 On ch=1 n=c#4 v=0
220701 On ch=1 n=c4 v=108
220701 On ch=1 n=c3 v=92
220726 On ch=1 n=c3 v=0
220726 On ch=1 n=c4 v=0
220731 On ch=1 n=b3 v=108
220731 On ch=1 n=b2 v=92
220756 On ch=1 n=b2 v=0
220756 On ch=1 n=b3 v=0
220761 On ch=1 n=a#3 v=108
220761 On ch=1 n=a#2 v=92
220786 On ch=1 n=a#2 v=0
220786 On ch=1 n=a#3 v=0
220791 Par ch=1 c=64 v=0
220791 On ch=1 n=a3 v=108
220791 On ch=1 n=a2 v=92
220871 On ch=1 n=a2 v=0
220871 On ch=1 n=a3 v=0
221031 On ch=1 n=a5 v=108
221031 On ch=1 n=c#6 v=108
221031 On ch=1 n=e6 v=108
221031 On ch=1 n=a6 v=108
221031 On ch=1 n=a3 v=92
221031 On ch=1 n=c#4 v=92
221031 On ch=1 n=e4 v=92
221031 On ch=1 n=a4 v=92
221111 On ch=1 n=a4 v=0
221111 On ch=1 n=e4 v=0
221111 On ch=1 n=c#4 v=0
221111 On ch=1 n=a3 v=0
221111 On ch=1 n=a6 v=0
221111 On ch=1 n=e6 v=0
221111 On ch=1 n=c#6 v=0
221111 On ch=1 n=a5 v=0
221271 On ch=1 n=a6 v=108
221271 On ch=1 n=c#7 v=108
221271 On ch=1 n=e7 v=108
221271 On ch=1 n=a7 v=108
221271 On ch=1 n=a4 v=92
221271 On ch=1 n=c#5 v=92
221271 On ch=1 n=e5 v=92
221271 On ch=1 n=a5 v=92
221351 On ch=1 n=a5 v=0
221351 On ch=1 n=e5 v=0
221351 On ch=1 n=c#5 v=0
221351 On ch=1 n=a4 v=0
221351 On ch=1 n=a7 v=0
221351 On ch=1 n=e7 v=0
221351 On ch=1 n=c#7 v=0
221351 On ch=1 n=a6 v=0
221351 Meta TrkEnd
TrkEnd
