MFile 1 5 480
MTrk
0 TimeSig 2/4 96 8
0 Tempo 704225
0 Meta TrkEnd
TrkEnd
MTrk
0 SeqSpec 43 00 01 00
0 Par ch=1 c=0 v=0
0 PrCh ch=1 p=0
0 Par ch=1 c=7 v=100
0 KeySig 4 major
530 On ch=1 n=g#5 v=50
555 On ch=1 n=g#5 v=0
590 On ch=1 n=b5 v=50
620 On ch=1 n=b5 v=0
645 On ch=1 n=e6 v=50
665 On ch=1 n=e6 v=0
770 On ch=1 n=b5 v=50
790 On ch=1 n=b5 v=0
830 On ch=1 n=g#5 v=50
855 On ch=1 n=g#5 v=0
890 On ch=1 n=e5 v=50
905 On ch=1 n=e5 v=0
1015 On ch=1 n=f#5 v=50
1040 On ch=1 n=f#5 v=0
1075 On ch=1 n=b5 v=50
1105 On ch=1 n=b5 v=0
1125 On ch=1 n=f#6 v=50
1145 On ch=1 n=f#6 v=0
1245 On ch=1 n=b5 v=50
1270 On ch=1 n=b5 v=0
1300 On ch=1 n=f#5 v=50
1320 On ch=1 n=f#5 v=0
1360 On ch=1 n=d#5 v=50
1380 On ch=1 n=d#5 v=0
1495 On ch=1 n=g#5 v=50
1520 On ch=1 n=g#5 v=0
1550 On ch=1 n=b5 v=50
1575 On ch=1 n=b5 v=0
1600 On ch=1 n=e6 v=50
1620 On ch=1 n=e6 v=0
1720 On ch=1 n=b5 v=50
1745 On ch=1 n=b5 v=0
1780 On ch=1 n=g#5 v=50
1810 On ch=1 n=g#5 v=0
1840 On ch=1 n=e5 v=50
1865 On ch=1 n=e5 v=0
1970 On ch=1 n=f#5 v=50
1990 On ch=1 n=f#5 v=0
2030 On ch=1 n=d#6 v=50
2045 On ch=1 n=d#6 v=0
2090 On ch=1 n=b6 v=50
2100 On ch=1 n=b6 v=0
2205 On ch=1 n=d#6 v=50
2220 On ch=1 n=d#6 v=0
2265 On ch=1 n=f#5 v=50
2280 On ch=1 n=f#5 v=0
2440 On ch=1 n=g#5 v=50
2455 On ch=1 n=g#5 v=0
2515 On ch=1 n=b5 v=50
2540 On ch=1 n=b5 v=0
2565 On ch=1 n=e6 v=50
2590 On ch=1 n=e6 v=0
2680 On ch=1 n=b5 v=50
2700 On ch=1 n=b5 v=0
2740 On ch=1 n=g#5 v=50
2760 On ch=1 n=g#5 v=0
2795 On ch=1 n=e5 v=50
2815 On ch=1 n=e5 v=0
2915 On ch=1 n=f#5 v=50
2935 On ch=1 n=f#5 v=0
2990 On ch=1 n=b5 v=50
3005 On ch=1 n=b5 v=0
3050 On ch=1 n=f#6 v=50
3065 On ch=1 n=f#6 v=0
3160 On ch=1 n=b5 v=50
3180 On ch=1 n=b5 v=0
3210 On ch=1 n=f#5 v=50
3230 On ch=1 n=f#5 v=0
3270 On ch=1 n=d#5 v=50
3285 On ch=1 n=d#5 v=0
3405 On ch=1 n=g#5 v=50
3430 On ch=1 n=g#5 v=0
3465 On ch=1 n=b5 v=50
3490 On ch=1 n=b5 v=0
3520 On ch=1 n=e6 v=50
3530 On ch=1 n=e6 v=0
3635 On ch=1 n=b5 v=50
3660 On ch=1 n=b5 v=0
3700 On ch=1 n=g#5 v=50
3725 On ch=1 n=g#5 v=0
3760 On ch=1 n=e5 v=50
3775 On ch=1 n=e5 v=0
3890 On ch=1 n=f#5 v=50
3910 On ch=1 n=f#5 v=0
3945 On ch=1 n=d#6 v=50
3960 On ch=1 n=d#6 v=0
4005 On ch=1 n=b6 v=50
4015 On ch=1 n=b6 v=0
4145 On ch=1 n=d#6 v=50
4150 On ch=1 n=d#6 v=0
4205 On ch=1 n=f#5 v=50
4220 On ch=1 n=f#5 v=0
4370 On ch=1 n=e5 v=50
4390 On ch=1 n=e5 v=0
4430 On ch=1 n=b5 v=50
4460 On ch=1 n=b5 v=0
4490 On ch=1 n=g#6 v=50
4510 On ch=1 n=g#6 v=0
4610 On ch=1 n=b5 v=50
4625 On ch=1 n=b5 v=0
4675 On ch=1 n=e5 v=50
4695 On ch=1 n=e5 v=0
4850 On ch=1 n=e5 v=50
4870 On ch=1 n=e5 v=0
4920 On ch=1 n=c#6 v=50
4940 On ch=1 n=c#6 v=0
4970 On ch=1 n=a6 v=50
4990 On ch=1 n=a6 v=0
5325 On ch=1 n=f#5 v=50
5345 On ch=1 n=f#5 v=0
5390 On ch=1 n=c#6 v=50
5420 On ch=1 n=c#6 v=0
5450 On ch=1 n=a#6 v=50
5465 On ch=1 n=a#6 v=0
5585 On ch=1 n=c#6 v=50
5605 On ch=1 n=c#6 v=0
5635 On ch=1 n=f#5 v=50
5655 On ch=1 n=f#5 v=0
5805 On ch=1 n=f#5 v=50
5825 On ch=1 n=f#5 v=0
5875 On ch=1 n=d#6 v=50
5900 On ch=1 n=d#6 v=0
5935 On ch=1 n=b6 v=50
5950 On ch=1 n=b6 v=0
6290 On ch=1 n=b5 v=50
6310 On ch=1 n=b5 v=0
6350 On ch=1 n=f#6 v=51
6380 On ch=1 n=f#6 v=0
6410 On ch=1 n=d#7 v=52
6430 On ch=1 n=d#7 v=0
6475 On ch=1 n=d#7 v=52
6495 On ch=1 n=d#7 v=0
6525 On ch=1 n=f#6 v=53
6540 On ch=1 n=f#6 v=0
6780 On ch=1 n=b5 v=56
6800 On ch=1 n=b5 v=0
6835 On ch=1 n=g#6 v=57
6860 On ch=1 n=g#6 v=0
6895 On ch=1 n=e7 v=57
6915 On ch=1 n=e7 v=0
6965 On ch=1 n=e7 v=58
6980 On ch=1 n=e7 v=0
7015 On ch=1 n=g#6 v=59
7030 On ch=1 n=g#6 v=0
7265 On ch=1 n=d#6 v=62
7285 On ch=1 n=d#6 v=0
7320 On ch=1 n=b6 v=63
7345 On ch=1 n=b6 v=0
7380 On ch=1 n=f#7 v=63
7395 On ch=1 n=f#7 v=0
7445 On ch=1 n=f#7 v=64
7460 On ch=1 n=f#7 v=0
7500 On ch=1 n=b6 v=65
7520 On ch=1 n=b6 v=0
7735 On ch=1 n=e6 v=68
7750 On ch=1 n=e6 v=0
7805 On ch=1 n=b6 v=69
7825 On ch=1 n=b6 v=0
7860 On ch=1 n=g#7 v=69
7875 On ch=1 n=g#7 v=0
7925 On ch=1 n=g#7 v=70
7940 On ch=1 n=g#7 v=0
7985 On ch=1 n=b6 v=71
8005 On ch=1 n=b6 v=0
8210 On ch=1 n=e6 v=73
8225 On ch=1 n=e6 v=0
8285 On ch=1 n=c#7 v=74
8310 On ch=1 n=c#7 v=0
8335 On ch=1 n=a7 v=75
8360 On ch=1 n=a7 v=0
8400 On ch=1 n=a7 v=76
8420 On ch=1 n=a7 v=0
8460 On ch=1 n=c#7 v=77
8475 On ch=1 n=c#7 v=0
8685 On ch=1 n=g6 v=79
8705 On ch=1 n=g6 v=0
8750 On ch=1 n=e7 v=80
8780 On ch=1 n=e7 v=0
8805 On ch=1 n=c#8 v=81
8830 On ch=1 n=c#8 v=0
8865 On ch=1 n=c#8 v=81
8890 On ch=1 n=c#8 v=0
8925 On ch=1 n=e7 v=82
8945 On ch=1 n=e7 v=0
9175 On ch=1 n=a#6 v=85
9190 On ch=1 n=a#6 v=0
9235 On ch=1 n=g7 v=85
9265 On ch=1 n=g7 v=0
9290 On ch=1 n=e8 v=85
9315 On ch=1 n=e8 v=0
9355 On ch=1 n=e8 v=85
9380 On ch=1 n=e8 v=0
9415 On ch=1 n=g7 v=85
9430 On ch=1 n=g7 v=0
9655 On ch=1 n=g6 v=84
9670 On ch=1 n=g6 v=0
9715 On ch=1 n=e7 v=83
9735 On ch=1 n=e7 v=0
9775 On ch=1 n=c#8 v=82
9785 On ch=1 n=c#8 v=0
9835 On ch=1 n=c#8 v=81
9855 On ch=1 n=c#8 v=0
9895 On ch=1 n=e7 v=80
9915 On ch=1 n=e7 v=0
10125 On ch=1 n=e6 v=76
10140 On ch=1 n=e6 v=0
10195 On ch=1 n=c#7 v=75
10220 On ch=1 n=c#7 v=0
10250 On ch=1 n=a#7 v=74
10265 On ch=1 n=a#7 v=0
10305 On ch=1 n=a#7 v=73
10320 On ch=1 n=a#7 v=0
10365 On ch=1 n=c#7 v=72
10385 On ch=1 n=c#7 v=0
10600 On ch=1 n=c#6 v=67
10615 On ch=1 n=c#6 v=0
10670 On ch=1 n=a#6 v=66
10695 On ch=1 n=a#6 v=0
10730 On ch=1 n=g7 v=65
10745 On ch=1 n=g7 v=0
10790 On ch=1 n=g7 v=64
10815 On ch=1 n=g7 v=0
10855 On ch=1 n=a#6 v=63
10875 On ch=1 n=a#6 v=0
11095 On ch=1 n=a#5 v=58
11115 On ch=1 n=a#5 v=0
11150 On ch=1 n=g6 v=57
11175 On ch=1 n=g6 v=0
11210 On ch=1 n=e7 v=56
11230 On ch=1 n=e7 v=0
11265 On ch=1 n=e7 v=55
11290 On ch=1 n=e7 v=0
11330 On ch=1 n=g6 v=54
11345 On ch=1 n=g6 v=0
11575 On ch=1 n=f#5 v=50
11590 On ch=1 n=f#5 v=0
11630 On ch=1 n=d#6 v=50
11655 On ch=1 n=d#6 v=0
11685 On ch=1 n=b6 v=50
11710 On ch=1 n=b6 v=0
12060 On ch=1 n=d#5 v=50
12080 On ch=1 n=d#5 v=0
12120 On ch=1 n=b5 v=50
12150 On ch=1 n=b5 v=0
12175 On ch=1 n=f#6 v=50
12195 On ch=1 n=f#6 v=0
12305 On ch=1 n=b5 v=50
12325 On ch=1 n=b5 v=0
12365 On ch=1 n=d#5 v=50
12385 On ch=1 n=d#5 v=0
12540 On ch=1 n=e5 v=50
12560 On ch=1 n=e5 v=0
12600 On ch=1 n=b5 v=50
12635 On ch=1 n=b5 v=0
12655 On ch=1 n=g#6 v=50
12675 On ch=1 n=g#6 v=0
13015 On ch=1 n=d#5 v=50
13035 On ch=1 n=d#5 v=0
13075 On ch=1 n=b5 v=50
13110 On ch=1 n=b5 v=0
13125 On ch=1 n=f#6 v=50
13150 On ch=1 n=f#6 v=0
13250 On ch=1 n=b5 v=50
13270 On ch=1 n=b5 v=0
13315 On ch=1 n=d#5 v=50
13335 On ch=1 n=d#5 v=0
13500 On ch=1 n=e5 v=50
13520 On ch=1 n=e5 v=0
13560 On ch=1 n=b5 v=50
13590 On ch=1 n=b5 v=0
13620 On ch=1 n=g#6 v=50
13635 On ch=1 n=g#6 v=0
14035 On ch=1 n=a5 v=100
14040 On ch=1 n=e6 v=100
14040 On ch=1 n=a6 v=100
14040 On ch=1 n=c#6 v=100
14060 On ch=1 n=a6 v=0
14060 On ch=1 n=e6 v=0
14060 On ch=1 n=a5 v=0
14065 On ch=1 n=c#6 v=0
14260 On ch=1 n=e6 v=100
14260 On ch=1 n=g#6 v=100
14260 On ch=1 n=b5 v=100
14260 On ch=1 n=b6 v=100
14280 On ch=1 n=b6 v=0
14280 On ch=1 n=b5 v=0
14280 On ch=1 n=g#6 v=0
14280 On ch=1 n=e6 v=0
14515 On ch=1 n=c#6 v=100
14520 On ch=1 n=e6 v=100
14520 On ch=1 n=a6 v=100
14520 On ch=1 n=c#7 v=100
14535 On ch=1 n=c#7 v=0
14535 On ch=1 n=c#6 v=0
14540 On ch=1 n=a6 v=0
14540 On ch=1 n=e6 v=0
14755 On ch=1 n=g6 v=100
14755 On ch=1 n=c6 v=100
14755 On ch=1 n=e6 v=100
14755 On ch=1 n=c7 v=100
14775 On ch=1 n=c7 v=0
14775 On ch=1 n=c6 v=0
14775 On ch=1 n=g6 v=0
14780 On ch=1 n=e6 v=0
14990 On ch=1 n=e6 v=100
14990 On ch=1 n=b5 v=100
14990 On ch=1 n=g#6 v=100
14990 On ch=1 n=b6 v=100
15005 On ch=1 n=b6 v=0
15005 On ch=1 n=b5 v=0
15010 On ch=1 n=g#6 v=0
15010 On ch=1 n=e6 v=0
15225 On ch=1 n=b5 v=100
15225 On ch=1 n=d#6 v=100
15225 On ch=1 n=b6 v=100
15230 On ch=1 n=f#6 v=100
15245 On ch=1 n=f#6 v=0
15245 On ch=1 n=b6 v=0
15245 On ch=1 n=d#6 v=0
15245 On ch=1 n=b5 v=0
15360 KeySig 1 minor
15590 On ch=1 n=g#6 v=100
15590 On ch=1 n=e7 v=100
15595 On ch=1 n=e6 v=100
15595 On ch=1 n=b6 v=100
15625 On ch=1 n=b6 v=0
15625 On ch=1 n=e6 v=0
15625 On ch=1 n=e7 v=0
15625 On ch=1 n=g#6 v=0
15895 On ch=1 n=g5 v=50
15920 On ch=1 n=g5 v=0
15950 On ch=1 n=b5 v=50
15975 On ch=1 n=b5 v=0
16010 On ch=1 n=e6 v=50
16025 On ch=1 n=e6 v=0
16135 On ch=1 n=b5 v=50
16160 On ch=1 n=b5 v=0
16190 On ch=1 n=g5 v=50
16215 On ch=1 n=g5 v=0
16255 On ch=1 n=e5 v=50
16270 On ch=1 n=e5 v=0
16375 On ch=1 n=f#5 v=50
16405 On ch=1 n=f#5 v=0
16440 On ch=1 n=b5 v=50
16465 On ch=1 n=b5 v=0
16485 On ch=1 n=f#6 v=50
16500 On ch=1 n=f#6 v=0
16620 On ch=1 n=b5 v=50
16635 On ch=1 n=b5 v=0
16685 On ch=1 n=f#5 v=50
16705 On ch=1 n=f#5 v=0
16740 On ch=1 n=d#5 v=50
16755 On ch=1 n=d#5 v=0
16860 On ch=1 n=g5 v=50
16885 On ch=1 n=g5 v=0
16920 On ch=1 n=b5 v=50
16945 On ch=1 n=b5 v=0
16985 On ch=1 n=e6 v=50
17000 On ch=1 n=e6 v=0
17095 On ch=1 n=b5 v=50
17115 On ch=1 n=b5 v=0
17150 On ch=1 n=g5 v=50
17170 On ch=1 n=g5 v=0
17210 On ch=1 n=e5 v=50
17225 On ch=1 n=e5 v=0
17340 On ch=1 n=f#5 v=50
17355 On ch=1 n=f#5 v=0
17395 On ch=1 n=d#6 v=50
17420 On ch=1 n=d#6 v=0
17450 On ch=1 n=b6 v=50
17470 On ch=1 n=b6 v=0
17565 On ch=1 n=d#6 v=50
17580 On ch=1 n=d#6 v=0
17625 On ch=1 n=f#5 v=50
17635 On ch=1 n=f#5 v=0
17815 On ch=1 n=g5 v=50
17825 On ch=1 n=g5 v=0
17880 On ch=1 n=b5 v=50
17900 On ch=1 n=b5 v=0
17930 On ch=1 n=e6 v=50
17945 On ch=1 n=e6 v=0
18055 On ch=1 n=b5 v=50
18075 On ch=1 n=b5 v=0
18115 On ch=1 n=g5 v=50
18135 On ch=1 n=g5 v=0
18180 On ch=1 n=e5 v=50
18195 On ch=1 n=e5 v=0
18290 On ch=1 n=f#5 v=50
18305 On ch=1 n=f#5 v=0
18355 On ch=1 n=b5 v=50
18380 On ch=1 n=b5 v=0
18410 On ch=1 n=f#6 v=50
18425 On ch=1 n=f#6 v=0
18530 On ch=1 n=b5 v=50
18550 On ch=1 n=b5 v=0
18585 On ch=1 n=f#5 v=50
18605 On ch=1 n=f#5 v=0
18640 On ch=1 n=d#5 v=50
18660 On ch=1 n=d#5 v=0
18765 On ch=1 n=g5 v=50
18785 On ch=1 n=g5 v=0
18835 On ch=1 n=b5 v=50
18855 On ch=1 n=b5 v=0
18890 On ch=1 n=e6 v=50
18910 On ch=1 n=e6 v=0
19005 On ch=1 n=b5 v=50
19025 On ch=1 n=b5 v=0
19065 On ch=1 n=g5 v=50
19090 On ch=1 n=g5 v=0
19125 On ch=1 n=e5 v=50
19145 On ch=1 n=e5 v=0
19245 On ch=1 n=f#5 v=50
19265 On ch=1 n=f#5 v=0
19315 On ch=1 n=d#6 v=50
19340 On ch=1 n=d#6 v=0
19365 On ch=1 n=b6 v=50
19385 On ch=1 n=b6 v=0
19490 On ch=1 n=d#6 v=50
19510 On ch=1 n=d#6 v=0
19550 On ch=1 n=f#5 v=50
19570 On ch=1 n=f#5 v=0
19725 On ch=1 n=f#5 v=50
19740 On ch=1 n=f#5 v=0
19785 On ch=1 n=d6 v=50
19815 On ch=1 n=d6 v=0
19840 On ch=1 n=b6 v=50
19860 On ch=1 n=b6 v=0
19960 On ch=1 n=d6 v=50
19980 On ch=1 n=d6 v=0
20020 On ch=1 n=f#5 v=50
20040 On ch=1 n=f#5 v=0
20195 On ch=1 n=f#5 v=50
20210 On ch=1 n=f#5 v=0
20260 On ch=1 n=d6 v=50
20280 On ch=1 n=d6 v=0
20320 On ch=1 n=c7 v=50
20340 On ch=1 n=c7 v=0
20450 On ch=1 n=d6 v=50
20470 On ch=1 n=d6 v=0
20510 On ch=1 n=f#5 v=50
20530 On ch=1 n=f#5 v=0
20695 On ch=1 n=f#5 v=50
20710 On ch=1 n=f#5 v=0
20750 On ch=1 n=d6 v=50
20775 On ch=1 n=d6 v=0
20800 On ch=1 n=a6 v=50
20820 On ch=1 n=a6 v=0
20950 On ch=1 n=d6 v=50
20965 On ch=1 n=d6 v=0
20995 On ch=1 n=f#5 v=50
21015 On ch=1 n=f#5 v=0
21235 On ch=1 n=b5 v=51
21255 On ch=1 n=b5 v=0
21295 On ch=1 n=d7 v=51
21315 On ch=1 n=d7 v=0
21350 On ch=1 n=d7 v=52
21370 On ch=1 n=d7 v=0
21410 On ch=1 n=b5 v=53
21425 On ch=1 n=b5 v=0
21715 On ch=1 n=d6 v=56
21730 On ch=1 n=d6 v=0
21775 On ch=1 n=g7 v=56
21800 On ch=1 n=g7 v=0
21835 On ch=1 n=g7 v=57
21855 On ch=1 n=g7 v=0
21885 On ch=1 n=d6 v=57
21900 On ch=1 n=d6 v=0
22205 On ch=1 n=g6 v=61
22220 On ch=1 n=g6 v=0
22260 On ch=1 n=b7 v=61
22280 On ch=1 n=b7 v=0
22320 On ch=1 n=b7 v=62
22340 On ch=1 n=b7 v=0
22385 On ch=1 n=g6 v=63
22400 On ch=1 n=g6 v=0
22675 On ch=1 n=b6 v=66
22690 On ch=1 n=b6 v=0
22730 On ch=1 n=d8 v=66
22755 On ch=1 n=d8 v=0
22795 On ch=1 n=d8 v=67
22815 On ch=1 n=d8 v=0
22855 On ch=1 n=b6 v=68
22865 On ch=1 n=b6 v=0
23140 On ch=1 n=e6 v=71
23145 On ch=1 n=c6 v=71
23160 On ch=1 n=c6 v=0
23170 On ch=1 n=e6 v=0
23195 On ch=1 n=c7 v=71
23210 On ch=1 n=c7 v=0
23395 On ch=1 n=e6 v=73
23395 On ch=1 n=e7 v=73
23400 On ch=1 n=g6 v=73
23415 On ch=1 n=e6 v=0
23420 On ch=1 n=g6 v=0
23420 On ch=1 n=e7 v=0
23660 On ch=1 n=f#6 v=76
23660 On ch=1 n=d6 v=76
23675 On ch=1 n=d6 v=0
23690 On ch=1 n=f#6 v=0
23705 On ch=1 n=d7 v=76
23725 On ch=1 n=d7 v=0
23880 On ch=1 n=a6 v=78
23880 On ch=1 n=f#6 v=78
23880 On ch=1 n=f#7 v=78
23895 On ch=1 n=f#6 v=0
23900 On ch=1 n=f#7 v=0
23900 On ch=1 n=a6 v=0
24125 On ch=1 n=e6 v=81
24140 On ch=1 n=e6 v=0
24175 On ch=1 n=e7 v=81
24180 On ch=1 n=g6 v=81
24195 On ch=1 n=e7 v=0
24200 On ch=1 n=g6 v=0
24350 On ch=1 n=f#7 v=83
24350 On ch=1 n=f#6 v=83
24355 On ch=1 n=a6 v=83
24370 On ch=1 n=f#6 v=0
24370 On ch=1 n=f#7 v=0
24380 On ch=1 n=a6 v=0
24590 On ch=1 n=g6 v=86
24590 On ch=1 n=b6 v=86
24590 On ch=1 n=g7 v=86
24615 On ch=1 n=g7 v=0
24615 On ch=1 n=g6 v=0
24625 On ch=1 n=b6 v=0
24835 On ch=1 n=a7 v=88
24835 On ch=1 n=a6 v=88
24840 On ch=1 n=d7 v=88
24865 On ch=1 n=d7 v=0
24865 On ch=1 n=a7 v=0
24870 On ch=1 n=a6 v=0
25075 On ch=1 n=b7 v=91
25075 On ch=1 n=b6 v=91
25080 On ch=1 n=d7 v=91
25095 On ch=1 n=b6 v=0
25100 On ch=1 n=b7 v=0
25105 On ch=1 n=d7 v=0
25330 On ch=1 n=c8 v=93
25335 On ch=1 n=e7 v=93
25335 On ch=1 n=c7 v=93
25355 On ch=1 n=c7 v=0
25355 On ch=1 n=e7 v=0
25355 On ch=1 n=c8 v=0
25570 On ch=1 n=c#7 v=96
25610 On ch=1 n=c#7 v=0
25610 On ch=1 n=g7 v=96
25640 On ch=1 n=a#7 v=97
25650 On ch=1 n=g7 v=0
25685 On ch=1 n=e8 v=97
25690 On ch=1 n=a#7 v=0
25700 On ch=1 n=e8 v=0
25800 On ch=1 n=c#5 v=98
25815 On ch=1 n=c#5 v=0
25920 On ch=1 n=d5 v=100
25940 On ch=1 n=d5 v=0
26000 On ch=1 n=b6 v=100
26000 On ch=1 n=d7 v=100
26025 On ch=1 n=d7 v=0
26030 On ch=1 n=b6 v=0
26080 On ch=1 n=a6 v=100
26085 On ch=1 n=c7 v=100
26105 On ch=1 n=c7 v=0
26105 On ch=1 n=a6 v=0
26155 On ch=1 n=g6 v=100
26160 On ch=1 n=b6 v=100
26175 On ch=1 n=g6 v=0
26190 On ch=1 n=b6 v=0
26235 On ch=1 n=f#6 v=100
26240 On ch=1 n=a6 v=100
26255 On ch=1 n=f#6 v=0
26265 On ch=1 n=a6 v=0
26315 On ch=1 n=e6 v=100
26320 On ch=1 n=g6 v=100
26340 On ch=1 n=e6 v=0
26345 On ch=1 n=g6 v=0
26400 On ch=1 n=d6 v=100
26400 On ch=1 n=f#6 v=100
26420 On ch=1 n=d6 v=0
26425 On ch=1 n=f#6 v=0
26475 On ch=1 n=c6 v=100
26480 On ch=1 n=e6 v=100
26500 On ch=1 n=e6 v=0
26500 On ch=1 n=c6 v=0
26560 On ch=1 n=b5 v=100
26565 On ch=1 n=d6 v=100
26580 On ch=1 n=b5 v=0
26585 On ch=1 n=d6 v=0
26635 On ch=1 n=a5 v=100
26640 On ch=1 n=c6 v=100
26660 On ch=1 n=c6 v=0
26660 On ch=1 n=a5 v=0
26720 On ch=1 n=g5 v=100
26730 On ch=1 n=b5 v=100
26740 On ch=1 n=g5 v=0
26750 On ch=1 n=b5 v=0
26795 On ch=1 n=f#5 v=100
26800 On ch=1 n=a5 v=100
26815 On ch=1 n=f#5 v=0
26820 On ch=1 n=a5 v=0
26930 On ch=1 n=d5 v=50
26955 On ch=1 n=d5 v=0
26985 On ch=1 n=b5 v=50
27005 On ch=1 n=b5 v=0
27055 On ch=1 n=g6 v=50
27075 On ch=1 n=g6 v=0
27170 On ch=1 n=b5 v=50
27195 On ch=1 n=b5 v=0
27225 On ch=1 n=d5 v=50
27245 On ch=1 n=d5 v=0
27395 On ch=1 n=d#5 v=51
27420 On ch=1 n=d#5 v=0
27460 On ch=1 n=c6 v=54
27480 On ch=1 n=c6 v=0
27515 On ch=1 n=f#6 v=56
27540 On ch=1 n=f#6 v=0
27635 On ch=1 n=c6 v=61
27660 On ch=1 n=c6 v=0
27705 On ch=1 n=d#5 v=64
27720 On ch=1 n=d#5 v=0
27905 On ch=1 n=b6 v=68
27910 On ch=1 n=d7 v=68
27930 On ch=1 n=d7 v=0
27930 On ch=1 n=b6 v=0
27980 On ch=1 n=c7 v=65
27980 On ch=1 n=a6 v=65
28000 On ch=1 n=a6 v=0
28005 On ch=1 n=c7 v=0
28055 On ch=1 n=g6 v=61
28060 On ch=1 n=b6 v=61
28080 On ch=1 n=g6 v=0
28085 On ch=1 n=b6 v=0
28140 On ch=1 n=a6 v=58
28140 On ch=1 n=f#6 v=58
28165 On ch=1 n=f#6 v=0
28165 On ch=1 n=a6 v=0
28215 On ch=1 n=g6 v=55
28220 On ch=1 n=e6 v=54
28240 On ch=1 n=g6 v=0
28245 On ch=1 n=e6 v=0
28300 On ch=1 n=f#6 v=51
28300 On ch=1 n=d6 v=51
28315 On ch=1 n=d6 v=0
28325 On ch=1 n=f#6 v=0
28380 On ch=1 n=c6 v=50
28385 On ch=1 n=e6 v=50
28405 On ch=1 n=c6 v=0
28410 On ch=1 n=e6 v=0
28460 On ch=1 n=b5 v=50
28465 On ch=1 n=d6 v=50
28480 On ch=1 n=b5 v=0
28485 On ch=1 n=d6 v=0
28540 On ch=1 n=a5 v=50
28550 On ch=1 n=c6 v=50
28565 On ch=1 n=a5 v=0
28570 On ch=1 n=c6 v=0
28620 On ch=1 n=g5 v=50
28630 On ch=1 n=b5 v=50
28645 On ch=1 n=g5 v=0
28655 On ch=1 n=b5 v=0
28695 On ch=1 n=f#5 v=50
28700 On ch=1 n=a5 v=50
28710 On ch=1 n=f#5 v=0
28720 On ch=1 n=a5 v=0
28840 On ch=1 n=d5 v=50
28855 On ch=1 n=d5 v=0
28900 On ch=1 n=b5 v=50
28915 On ch=1 n=b5 v=0
28965 On ch=1 n=g6 v=50
28990 On ch=1 n=g6 v=0
29085 On ch=1 n=b5 v=50
29110 On ch=1 n=b5 v=0
29145 On ch=1 n=d5 v=50
29165 On ch=1 n=d5 v=0
29325 On ch=1 n=d#5 v=51
29345 On ch=1 n=d#5 v=0
29390 On ch=1 n=c6 v=54
29410 On ch=1 n=c6 v=0
29455 On ch=1 n=f#6 v=57
29470 On ch=1 n=f#6 v=0
29575 On ch=1 n=c6 v=62
29595 On ch=1 n=c6 v=0
29630 On ch=1 n=d#5 v=64
29645 On ch=1 n=d#5 v=0
29835 On ch=1 n=b6 v=67
29840 On ch=1 n=d7 v=67
29855 On ch=1 n=b6 v=0
29860 On ch=1 n=d7 v=0
29910 On ch=1 n=a6 v=64
29915 On ch=1 n=c7 v=64
29935 On ch=1 n=c7 v=0
29940 On ch=1 n=a6 v=0
29995 On ch=1 n=g6 v=61
30000 On ch=1 n=b6 v=60
30020 On ch=1 n=b6 v=0
30020 On ch=1 n=g6 v=0
30075 On ch=1 n=f#6 v=57
30080 On ch=1 n=a6 v=57
30100 On ch=1 n=a6 v=0
30100 On ch=1 n=f#6 v=0
30155 On ch=1 n=e6 v=54
30155 On ch=1 n=g6 v=54
30175 On ch=1 n=g6 v=0
30175 On ch=1 n=e6 v=0
30230 On ch=1 n=d6 v=51
30235 On ch=1 n=f#6 v=50
30260 On ch=1 n=d6 v=0
30265 On ch=1 n=f#6 v=0
30305 On ch=1 n=c6 v=50
30310 On ch=1 n=e6 v=50
30335 On ch=1 n=c6 v=0
30340 On ch=1 n=e6 v=0
30390 On ch=1 n=d6 v=50
30390 On ch=1 n=b5 v=50
30410 On ch=1 n=b5 v=0
30415 On ch=1 n=d6 v=0
30465 On ch=1 n=c6 v=50
30465 On ch=1 n=a5 v=50
30490 On ch=1 n=a5 v=0
30490 On ch=1 n=c6 v=0
30540 On ch=1 n=b5 v=50
30540 On ch=1 n=g5 v=50
30565 On ch=1 n=g5 v=0
30570 On ch=1 n=b5 v=0
30615 On ch=1 n=f#5 v=50
30620 On ch=1 n=a5 v=50
30635 On ch=1 n=f#5 v=0
30640 On ch=1 n=a5 v=0
30755 On ch=1 n=d5 v=50
30780 On ch=1 n=d5 v=0
30815 On ch=1 n=b5 v=50
30845 On ch=1 n=b5 v=0
30880 On ch=1 n=g6 v=50
30900 On ch=1 n=g6 v=0
31010 On ch=1 n=b5 v=50
31035 On ch=1 n=b5 v=0
31070 On ch=1 n=d5 v=50
31095 On ch=1 n=d5 v=0
31260 On ch=1 n=d5 v=52
31285 On ch=1 n=d5 v=0
31315 On ch=1 n=a#5 v=54
31340 On ch=1 n=a#5 v=0
31375 On ch=1 n=g6 v=57
31400 On ch=1 n=g6 v=0
31495 On ch=1 n=a#5 v=62
31525 On ch=1 n=a#5 v=0
31555 On ch=1 n=d5 v=64
31570 On ch=1 n=d5 v=0
31745 On ch=1 n=a#6 v=70
31750 On ch=1 n=c#7 v=70
31770 On ch=1 n=c#7 v=0
31770 On ch=1 n=a#6 v=0
31830 On ch=1 n=g#6 v=70
31830 On ch=1 n=c7 v=70
31850 On ch=1 n=g#6 v=0
31855 On ch=1 n=c7 v=0
31915 On ch=1 n=g6 v=70
31920 On ch=1 n=a#6 v=70
31940 On ch=1 n=a#6 v=0
31945 On ch=1 n=g6 v=0
31990 On ch=1 n=a#6 v=70
31995 On ch=1 n=g6 v=70
32010 On ch=1 n=g6 v=0
32010 On ch=1 n=a#6 v=0
32050 On ch=1 n=g#6 v=70
32050 On ch=1 n=f6 v=70
32075 On ch=1 n=f6 v=0
32075 On ch=1 n=g#6 v=0
32135 On ch=1 n=g6 v=70
32135 On ch=1 n=d#6 v=70
32155 On ch=1 n=d#6 v=0
32165 On ch=1 n=g6 v=0
32215 On ch=1 n=c#6 v=70
32220 On ch=1 n=f6 v=70
32230 On ch=1 n=c#6 v=0
32240 On ch=1 n=f6 v=0
32295 On ch=1 n=c6 v=70
32295 On ch=1 n=d#6 v=70
32315 On ch=1 n=d#6 v=0
32315 On ch=1 n=c6 v=0
32380 On ch=1 n=c#6 v=70
32380 On ch=1 n=a#5 v=70
32405 On ch=1 n=a#5 v=0
32405 On ch=1 n=c#6 v=0
32455 On ch=1 n=g#5 v=70
32465 On ch=1 n=c6 v=70
32480 On ch=1 n=g#5 v=0
32495 On ch=1 n=c6 v=0
32530 On ch=1 n=g5 v=70
32535 On ch=1 n=a#5 v=70
32550 On ch=1 n=g5 v=0
32555 On ch=1 n=a#5 v=0
32685 On ch=1 n=d#5 v=70
32700 On ch=1 n=d#5 v=0
32740 On ch=1 n=c6 v=70
32765 On ch=1 n=c6 v=0
32805 On ch=1 n=g#6 v=70
32820 On ch=1 n=g#6 v=0
32920 On ch=1 n=c6 v=70
32940 On ch=1 n=c6 v=0
32980 On ch=1 n=d#5 v=70
32995 On ch=1 n=d#5 v=0
33170 On ch=1 n=d#5 v=71
33190 On ch=1 n=d#5 v=0
33235 On ch=1 n=b5 v=73
33255 On ch=1 n=b5 v=0
33290 On ch=1 n=g#6 v=75
33305 On ch=1 n=g#6 v=0
33410 On ch=1 n=b5 v=79
33425 On ch=1 n=b5 v=0
33465 On ch=1 n=d#5 v=80
33485 On ch=1 n=d#5 v=0
33675 On ch=1 n=b6 v=85
33675 On ch=1 n=d7 v=85
33700 On ch=1 n=d7 v=0
33705 On ch=1 n=b6 v=0
33750 On ch=1 n=a6 v=85
33750 On ch=1 n=c#7 v=85
33770 On ch=1 n=c#7 v=0
33775 On ch=1 n=a6 v=0
33830 On ch=1 n=g#6 v=85
33835 On ch=1 n=b6 v=85
33860 On ch=1 n=b6 v=0
33860 On ch=1 n=g#6 v=0
33905 On ch=1 n=g#6 v=85
33915 On ch=1 n=b6 v=85
33940 On ch=1 n=b6 v=0
33945 On ch=1 n=g#6 v=0
33995 On ch=1 n=a6 v=85
33995 On ch=1 n=f#6 v=85
34015 On ch=1 n=f#6 v=0
34020 On ch=1 n=a6 v=0
34085 On ch=1 n=g#6 v=85
34085 On ch=1 n=e6 v=85
34110 On ch=1 n=e6 v=0
34110 On ch=1 n=g#6 v=0
34165 On ch=1 n=f#6 v=85
34165 On ch=1 n=d6 v=85
34190 On ch=1 n=d6 v=0
34190 On ch=1 n=f#6 v=0
34255 On ch=1 n=e6 v=85
34255 On ch=1 n=c#6 v=85
34275 On ch=1 n=c#6 v=0
34280 On ch=1 n=e6 v=0
34335 On ch=1 n=b5 v=85
34340 On ch=1 n=d6 v=85
34355 On ch=1 n=b5 v=0
34365 On ch=1 n=d6 v=0
34410 On ch=1 n=a5 v=85
34415 On ch=1 n=c#6 v=85
34430 On ch=1 n=a5 v=0
34435 On ch=1 n=c#6 v=0
34490 On ch=1 n=g#5 v=85
34500 On ch=1 n=b5 v=85
34510 On ch=1 n=g#5 v=0
34520 On ch=1 n=b5 v=0
34620 On ch=1 n=e5 v=85
34645 On ch=1 n=e5 v=0
34675 On ch=1 n=c#6 v=85
34695 On ch=1 n=c#6 v=0
34735 On ch=1 n=a6 v=85
34760 On ch=1 n=a6 v=0
34860 On ch=1 n=c#6 v=85
34890 On ch=1 n=c#6 v=0
34915 On ch=1 n=e5 v=85
34940 On ch=1 n=e5 v=0
35090 On ch=1 n=e5 v=86
35120 On ch=1 n=e5 v=0
35150 On ch=1 n=c6 v=88
35175 On ch=1 n=c6 v=0
35210 On ch=1 n=a6 v=90
35245 On ch=1 n=a6 v=0
35325 On ch=1 n=c6 v=94
35370 On ch=1 n=c6 v=0
35385 On ch=1 n=e5 v=95
35410 On ch=1 n=e5 v=0
35600 On ch=1 n=d#7 v=100
35600 On ch=1 n=c7 v=100
35620 On ch=1 n=d#7 v=0
35625 On ch=1 n=c7 v=0
35685 On ch=1 n=a#6 v=100
35690 On ch=1 n=d7 v=100
35710 On ch=1 n=d7 v=0
35710 On ch=1 n=a#6 v=0
35765 On ch=1 n=c7 v=100
35765 On ch=1 n=a6 v=100
35795 On ch=1 n=c7 v=0
35800 On ch=1 n=a6 v=0
35840 On ch=1 n=c7 v=100
35840 On ch=1 n=a6 v=100
35860 On ch=1 n=a6 v=0
35860 On ch=1 n=c7 v=0
35910 On ch=1 n=g6 v=100
35915 On ch=1 n=a#6 v=100
35930 On ch=1 n=g6 v=0
35940 On ch=1 n=a#6 v=0
35990 On ch=1 n=f6 v=100
36000 On ch=1 n=a6 v=100
36015 On ch=1 n=f6 v=0
36025 On ch=1 n=a6 v=0
36075 On ch=1 n=d#6 v=100
36080 On ch=1 n=g6 v=100
36100 On ch=1 n=d#6 v=0
36105 On ch=1 n=g6 v=0
36155 On ch=1 n=f6 v=100
36160 On ch=1 n=d6 v=100
36180 On ch=1 n=d6 v=0
36180 On ch=1 n=f6 v=0
36240 On ch=1 n=d#6 v=100
36245 On ch=1 n=c6 v=100
36260 On ch=1 n=c6 v=0
36265 On ch=1 n=d#6 v=0
36325 On ch=1 n=d6 v=100
36350 On ch=1 n=d6 v=0
36415 On ch=1 n=a5 v=100
36415 On ch=1 n=c6 v=100
36435 On ch=1 n=c6 v=0
36440 On ch=1 n=a5 v=0
36525 On ch=1 n=f5 v=50
36545 On ch=1 n=f5 v=0
36585 On ch=1 n=d6 v=50
36615 On ch=1 n=d6 v=0
36640 On ch=1 n=a#6 v=50
36655 On ch=1 n=a#6 v=0
36765 On ch=1 n=d6 v=50
36785 On ch=1 n=d6 v=0
36825 On ch=1 n=f5 v=50
36845 On ch=1 n=f5 v=0
37015 On ch=1 n=f5 v=50
37030 On ch=1 n=f5 v=0
37080 On ch=1 n=c#6 v=50
37105 On ch=1 n=c#6 v=0
37135 On ch=1 n=a#6 v=50
37150 On ch=1 n=a#6 v=0
37250 On ch=1 n=c#6 v=50
37265 On ch=1 n=c#6 v=0
37310 On ch=1 n=f5 v=50
37325 On ch=1 n=f5 v=0
37500 On ch=1 n=f#5 v=50
37515 On ch=1 n=f#5 v=0
37560 On ch=1 n=c#6 v=51
37585 On ch=1 n=c#6 v=0
37610 On ch=1 n=a#6 v=51
37625 On ch=1 n=a#6 v=0
37740 On ch=1 n=c#6 v=53
37755 On ch=1 n=c#6 v=0
37800 On ch=1 n=f#5 v=53
37820 On ch=1 n=f#5 v=0
37980 On ch=1 n=f#5 v=55
38000 On ch=1 n=f#5 v=0
38040 On ch=1 n=e6 v=56
38070 On ch=1 n=e6 v=0
38100 On ch=1 n=c#7 v=56
38115 On ch=1 n=c#7 v=0
38220 On ch=1 n=e6 v=58
38240 On ch=1 n=e6 v=0
38280 On ch=1 n=f#5 v=58
38300 On ch=1 n=f#5 v=0
38460 On ch=1 n=f#5 v=60
38480 On ch=1 n=f#5 v=0
38525 On ch=1 n=d#6 v=61
38545 On ch=1 n=d#6 v=0
38580 On ch=1 n=b6 v=61
38595 On ch=1 n=b6 v=0
38700 On ch=1 n=d#6 v=63
38715 On ch=1 n=d#6 v=0
38760 On ch=1 n=f#5 v=63
38780 On ch=1 n=f#5 v=0
38955 On ch=1 n=f#5 v=65
38970 On ch=1 n=f#5 v=0
39015 On ch=1 n=d6 v=66
39035 On ch=1 n=d6 v=0
39065 On ch=1 n=b6 v=66
39080 On ch=1 n=b6 v=0
39175 On ch=1 n=d6 v=68
39190 On ch=1 n=d6 v=0
39230 On ch=1 n=f#5 v=68
39250 On ch=1 n=f#5 v=0
39405 On ch=1 n=g5 v=70
39420 On ch=1 n=g5 v=0
39475 On ch=1 n=d6 v=71
39500 On ch=1 n=d6 v=0
39535 On ch=1 n=b6 v=71
39555 On ch=1 n=b6 v=0
39650 On ch=1 n=d6 v=73
39670 On ch=1 n=d6 v=0
39710 On ch=1 n=g5 v=73
39730 On ch=1 n=g5 v=0
39895 On ch=1 n=g5 v=75
39910 On ch=1 n=g5 v=0
39960 On ch=1 n=f6 v=76
39975 On ch=1 n=f6 v=0
40015 On ch=1 n=d7 v=76
40030 On ch=1 n=d7 v=0
40120 On ch=1 n=f6 v=77
40145 On ch=1 n=f6 v=0
40185 On ch=1 n=g5 v=78
40200 On ch=1 n=g5 v=0
40365 On ch=1 n=g5 v=80
40385 On ch=1 n=g5 v=0
40425 On ch=1 n=e6 v=81
40455 On ch=1 n=e6 v=0
40495 On ch=1 n=c7 v=81
40515 On ch=1 n=c7 v=0
40610 On ch=1 n=e6 v=83
40635 On ch=1 n=e6 v=0
40665 On ch=1 n=g5 v=83
40690 On ch=1 n=g5 v=0
40835 On ch=1 n=g5 v=85
40860 On ch=1 n=g5 v=0
40905 On ch=1 n=d#6 v=86
40930 On ch=1 n=d#6 v=0
40965 On ch=1 n=c7 v=86
40990 On ch=1 n=c7 v=0
41085 On ch=1 n=d#6 v=88
41125 On ch=1 n=d#6 v=0
41145 On ch=1 n=g5 v=88
41170 On ch=1 n=g5 v=0
41330 On ch=1 n=g#5 v=90
41350 On ch=1 n=g#5 v=0
41395 On ch=1 n=d#6 v=91
41415 On ch=1 n=d#6 v=0
41455 On ch=1 n=c7 v=91
41475 On ch=1 n=c7 v=0
41570 On ch=1 n=d#6 v=93
41600 On ch=1 n=d#6 v=0
41630 On ch=1 n=g#5 v=93
41645 On ch=1 n=g#5 v=0
41805 On ch=1 n=g#5 v=95
41830 On ch=1 n=g#5 v=0
41865 On ch=1 n=f#6 v=96
41885 On ch=1 n=f#6 v=0
41920 On ch=1 n=d#7 v=96
41945 On ch=1 n=d#7 v=0
42045 On ch=1 n=f#6 v=98
42070 On ch=1 n=f#6 v=0
42095 On ch=1 n=g#5 v=98
42120 On ch=1 n=g#5 v=0
42830 On ch=1 n=g#5 v=50
42885 On ch=1 n=f6 v=50
42885 On ch=1 n=c#6 v=50
42910 On ch=1 n=g#5 v=0
42920 On ch=1 n=f6 v=0
42925 On ch=1 n=c#6 v=0
42950 On ch=1 n=f6 v=50
43005 On ch=1 n=g#5 v=50
43010 On ch=1 n=f6 v=0
43060 On ch=1 n=g#5 v=0
43315 On ch=1 n=g#5 v=50
43365 On ch=1 n=f#6 v=50
43370 On ch=1 n=d#6 v=50
43380 On ch=1 n=g#5 v=0
43405 On ch=1 n=f#6 v=0
43410 On ch=1 n=d#6 v=0
43430 On ch=1 n=f#6 v=50
43435 On ch=1 n=d#6 v=50
43490 On ch=1 n=g#5 v=50
43500 On ch=1 n=f#6 v=0
43505 On ch=1 n=d#6 v=0
43555 On ch=1 n=g#5 v=0
43785 On ch=1 n=g#5 v=50
43840 On ch=1 n=f6 v=50
43840 On ch=1 n=c#6 v=50
43860 On ch=1 n=g#5 v=0
43875 On ch=1 n=f6 v=0
43880 On ch=1 n=c#6 v=0
43910 On ch=1 n=f6 v=50
43910 On ch=1 n=c#6 v=50
43955 On ch=1 n=f6 v=0
43960 On ch=1 n=c#6 v=0
43960 On ch=1 n=g#5 v=50
44035 On ch=1 n=g#5 v=0
44275 On ch=1 n=g#5 v=50
44330 On ch=1 n=g#6 v=50
44335 On ch=1 n=c6 v=50
44350 On ch=1 n=g#5 v=0
44365 On ch=1 n=g#6 v=0
44375 On ch=1 n=c6 v=0
44395 On ch=1 n=g#6 v=50
44400 On ch=1 n=c6 v=50
44455 On ch=1 n=g#5 v=50
44465 On ch=1 n=c6 v=0
44470 On ch=1 n=g#6 v=0
44520 On ch=1 n=g#5 v=0
44770 On ch=1 n=g#5 v=50
44815 On ch=1 n=e6 v=50
44815 On ch=1 n=c#6 v=50
44845 On ch=1 n=g#5 v=0
44860 On ch=1 n=c#6 v=0
44860 On ch=1 n=e6 v=0
44885 On ch=1 n=e6 v=50
44885 On ch=1 n=c#6 v=50
44940 On ch=1 n=g#5 v=50
44945 On ch=1 n=e6 v=0
44955 On ch=1 n=c#6 v=0
45015 On ch=1 n=g#5 v=0
45265 On ch=1 n=g#5 v=50
45310 On ch=1 n=f#6 v=50
45315 On ch=1 n=d#6 v=50
45330 On ch=1 n=f#6 v=0
45330 On ch=1 n=g#5 v=0
45340 On ch=1 n=d#6 v=0
45365 On ch=1 n=f#6 v=50
45370 On ch=1 n=d#6 v=50
45420 On ch=1 n=f#6 v=0
45420 On ch=1 n=g#5 v=50
45430 On ch=1 n=d#6 v=0
45490 On ch=1 n=g#5 v=0
45715 On ch=1 n=g#5 v=50
45765 On ch=1 n=c#6 v=50
45770 On ch=1 n=e6 v=50
45790 On ch=1 n=g#5 v=0
45810 On ch=1 n=e6 v=0
45815 On ch=1 n=c#6 v=0
45835 On ch=1 n=c#6 v=50
45840 On ch=1 n=e6 v=50
45895 On ch=1 n=g#5 v=50
45900 On ch=1 n=e6 v=0
45910 On ch=1 n=c#6 v=0
45970 On ch=1 n=g#5 v=0
46195 On ch=1 n=g#5 v=50
46255 On ch=1 n=c6 v=50
46255 On ch=1 n=g#6 v=50
46265 On ch=1 n=g#5 v=0
46290 On ch=1 n=g#6 v=0
46295 On ch=1 n=c6 v=0
46315 On ch=1 n=g#6 v=50
46320 On ch=1 n=c6 v=50
46375 On ch=1 n=g#5 v=50
46380 On ch=1 n=g#6 v=0
46385 On ch=1 n=c6 v=0
46440 On ch=1 n=g#5 v=0
46695 On ch=1 n=g#5 v=50
46745 On ch=1 n=g#5 v=0
46750 On ch=1 n=c#6 v=50
46755 On ch=1 n=e6 v=50
46775 On ch=1 n=e6 v=0
46780 On ch=1 n=c#6 v=0
46800 On ch=1 n=c#6 v=50
46800 On ch=1 n=e6 v=50
46850 On ch=1 n=g#5 v=50
46855 On ch=1 n=e6 v=0
46855 On ch=1 n=c#6 v=0
46925 On ch=1 n=g#5 v=0
47155 On ch=1 n=g#5 v=54
47215 On ch=1 n=e6 v=56
47220 On ch=1 n=d6 v=56
47245 On ch=1 n=g#5 v=0
47250 On ch=1 n=d6 v=0
47250 On ch=1 n=e6 v=0
47280 On ch=1 n=d6 v=58
47285 On ch=1 n=e6 v=58
47335 On ch=1 n=e6 v=0
47335 On ch=1 n=g#5 v=60
47345 On ch=1 n=d6 v=0
47410 On ch=1 n=g#5 v=0
47640 On ch=1 n=a5 v=70
47690 On ch=1 n=a6 v=72
47695 On ch=1 n=c#6 v=72
47720 On ch=1 n=a6 v=0
47725 On ch=1 n=a5 v=0
47730 On ch=1 n=c#6 v=0
47755 On ch=1 n=c#6 v=74
47755 On ch=1 n=a6 v=74
47800 On ch=1 n=a6 v=0
47805 On ch=1 n=a5 v=76
47830 On ch=1 n=c#6 v=0
47885 On ch=1 n=a5 v=0
48110 On ch=1 n=c#6 v=87
48165 On ch=1 n=c#7 v=89
48170 On ch=1 n=e6 v=89
48180 On ch=1 n=c#6 v=0
48200 On ch=1 n=c#7 v=0
48205 On ch=1 n=e6 v=0
48230 On ch=1 n=c#7 v=91
48235 On ch=1 n=e6 v=91
48285 On ch=1 n=c#6 v=93
48300 On ch=1 n=c#7 v=0
48310 On ch=1 n=e6 v=0
48355 On ch=1 n=c#6 v=0
48590 On ch=1 n=b5 v=100
48590 On ch=1 n=d#6 v=100
48595 On ch=1 n=b6 v=100
48635 On ch=1 n=b6 v=0
48635 On ch=1 n=b5 v=0
48640 On ch=1 n=d#6 v=0
48840 On ch=1 n=d#6 v=100
48840 On ch=1 n=f#6 v=100
48845 On ch=1 n=b5 v=100
48845 On ch=1 n=b6 v=100
48880 On ch=1 n=b6 v=0
48880 On ch=1 n=b5 v=0
48885 On ch=1 n=f#6 v=0
48885 On ch=1 n=d#6 v=0
49075 On ch=1 n=g#6 v=100
49080 On ch=1 n=e6 v=100
49080 On ch=1 n=g#5 v=100
49080 On ch=1 n=b5 v=100
49120 On ch=1 n=b5 v=0
49120 On ch=1 n=e6 v=0
49125 On ch=1 n=g#5 v=0
49125 On ch=1 n=g#6 v=0
49320 On ch=1 n=c#6 v=100
49325 On ch=1 n=e6 v=100
49325 On ch=1 n=a6 v=100
49325 On ch=1 n=a5 v=100
49365 On ch=1 n=a5 v=0
49365 On ch=1 n=e6 v=0
49365 On ch=1 n=c#6 v=0
49370 On ch=1 n=a6 v=0
49560 On ch=1 n=b5 v=100
49560 On ch=1 n=g#6 v=100
49565 On ch=1 n=b6 v=100
49565 On ch=1 n=e6 v=100
49600 On ch=1 n=b6 v=0
49605 On ch=1 n=e6 v=0
49605 On ch=1 n=g#6 v=0
49605 On ch=1 n=b5 v=0
49805 On ch=1 n=d#6 v=100
49805 On ch=1 n=f#6 v=100
49805 On ch=1 n=b5 v=100
49805 On ch=1 n=b6 v=100
49845 On ch=1 n=b6 v=0
49845 On ch=1 n=b5 v=0
49845 On ch=1 n=f#6 v=0
49845 On ch=1 n=d#6 v=0
49920 KeySig 4 major
50170 On ch=1 n=e7 v=100
50170 On ch=1 n=b6 v=100
50175 On ch=1 n=g#6 v=100
50175 On ch=1 n=e6 v=100
50205 On ch=1 n=b6 v=0
50210 On ch=1 n=e6 v=0
50210 On ch=1 n=g#6 v=0
50210 On ch=1 n=e7 v=0
50395 On ch=1 n=e5 v=100
50420 On ch=1 n=e5 v=0
50650 On ch=1 n=e6 v=80
50670 On ch=1 n=e6 v=0
50890 On ch=1 n=e5 v=80
50915 On ch=1 n=e5 v=0
51135 On ch=1 n=e6 v=80
51155 On ch=1 n=e6 v=0
51365 On ch=1 n=e5 v=80
51395 On ch=1 n=e5 v=0
51615 On ch=1 n=e6 v=80
51635 On ch=1 n=e6 v=0
51850 On ch=1 n=e5 v=80
51875 On ch=1 n=e5 v=0
52080 On ch=1 n=b6 v=80
52080 On ch=1 n=g#6 v=80
52120 On ch=1 n=g#6 v=0
52120 On ch=1 n=b6 v=0
52165 On ch=1 n=a6 v=80
52165 On ch=1 n=f#6 v=80
52190 On ch=1 n=a6 v=0
52195 On ch=1 n=f#6 v=0
52240 On ch=1 n=e6 v=80
52240 On ch=1 n=g#6 v=80
52265 On ch=1 n=g#6 v=0
52265 On ch=1 n=e6 v=0
52325 On ch=1 n=c#7 v=80
52330 On ch=1 n=a6 v=80
52350 On ch=1 n=c#7 v=0
52365 On ch=1 n=a6 v=0
52405 On ch=1 n=b6 v=80
52410 On ch=1 n=g#6 v=80
52430 On ch=1 n=b6 v=0
52440 On ch=1 n=g#6 v=0
52480 On ch=1 n=f#6 v=80
52485 On ch=1 n=a6 v=80
52505 On ch=1 n=a6 v=0
52510 On ch=1 n=f#6 v=0
52560 On ch=1 n=e6 v=80
52560 On ch=1 n=g#6 v=80
52585 On ch=1 n=g#6 v=0
52590 On ch=1 n=e6 v=0
52645 On ch=1 n=d#6 v=80
52645 On ch=1 n=f#6 v=80
52665 On ch=1 n=f#6 v=0
52665 On ch=1 n=d#6 v=0
52715 On ch=1 n=c#6 v=80
52715 On ch=1 n=e6 v=80
52745 On ch=1 n=e6 v=0
52745 On ch=1 n=c#6 v=0
52845 On ch=1 n=g#5 v=80
52870 On ch=1 n=g#5 v=0
52920 On ch=1 n=e6 v=80
52945 On ch=1 n=e6 v=0
52965 On ch=1 n=b6 v=80
52990 On ch=1 n=b6 v=0
53110 On ch=1 n=e6 v=80
53130 On ch=1 n=e6 v=0
53160 On ch=1 n=g#5 v=80
53180 On ch=1 n=g#5 v=0
53345 On ch=1 n=f#5 v=80
53360 On ch=1 n=f#5 v=0
53400 On ch=1 n=d#6 v=80
53425 On ch=1 n=d#6 v=0
53465 On ch=1 n=b6 v=80
53485 On ch=1 n=b6 v=0
53590 On ch=1 n=d#6 v=80
53605 On ch=1 n=d#6 v=0
53650 On ch=1 n=f#5 v=80
53670 On ch=1 n=f#5 v=0
53845 On ch=1 n=g#5 v=80
53870 On ch=1 n=g#5 v=0
53895 On ch=1 n=e6 v=80
53920 On ch=1 n=e6 v=0
53950 On ch=1 n=b6 v=80
53970 On ch=1 n=b6 v=0
54360 On ch=1 n=e6 v=80
54385 On ch=1 n=e6 v=0
54395 Par ch=1 c=1 v=41
54405 Par ch=1 c=1 v=44
54420 On ch=1 n=g#6 v=80
54420 On ch=1 n=e7 v=80
54420 Par ch=1 c=1 v=42
54430 Par ch=1 c=1 v=38
54435 On ch=1 n=e7 v=0
54440 On ch=1 n=g#6 v=0
54440 Par ch=1 c=1 v=37
54450 Par ch=1 c=1 v=28
54460 Par ch=1 c=1 v=0
54475 On ch=1 n=e7 v=80
54480 On ch=1 n=g#6 v=80
54490 On ch=1 n=e7 v=0
54495 On ch=1 n=g#6 v=0
54530 On ch=1 n=e6 v=80
54545 On ch=1 n=e6 v=0
54840 On ch=1 n=e6 v=80
54870 On ch=1 n=e6 v=0
54900 On ch=1 n=a6 v=80
54900 On ch=1 n=e7 v=80
54920 On ch=1 n=e7 v=0
54925 On ch=1 n=a6 v=0
54960 On ch=1 n=a6 v=80
54960 On ch=1 n=e7 v=80
54975 On ch=1 n=e7 v=0
54980 On ch=1 n=a6 v=0
55015 On ch=1 n=e6 v=80
55035 On ch=1 n=e6 v=0
55325 On ch=1 n=e6 v=82
55345 On ch=1 n=e6 v=0
55380 On ch=1 n=g6 v=83
55385 On ch=1 n=e7 v=83
55400 On ch=1 n=e7 v=0
55405 On ch=1 n=g6 v=0
55440 On ch=1 n=g6 v=85
55440 On ch=1 n=e7 v=85
55460 On ch=1 n=e7 v=0
55465 On ch=1 n=g6 v=0
55500 On ch=1 n=e6 v=86
55515 On ch=1 n=e6 v=0
55800 On ch=1 n=e6 v=90
55830 On ch=1 n=e6 v=0
55855 On ch=1 n=e7 v=90
55855 On ch=1 n=g#6 v=90
55875 On ch=1 n=e7 v=0
55880 On ch=1 n=g#6 v=0
55915 On ch=1 n=e5 v=90
55915 On ch=1 n=g#5 v=90
55940 On ch=1 n=e5 v=0
55945 On ch=1 n=g#5 v=0
56000 On ch=1 n=f#5 v=90
56005 On ch=1 n=a5 v=90
56025 On ch=1 n=a5 v=0
56025 On ch=1 n=f#5 v=0
56085 On ch=1 n=g#5 v=90
56085 On ch=1 n=b5 v=90
56105 On ch=1 n=b5 v=0
56110 On ch=1 n=g#5 v=0
56150 On ch=1 n=a5 v=90
56155 On ch=1 n=c#6 v=90
56175 On ch=1 n=c#6 v=0
56175 On ch=1 n=a5 v=0
56230 On ch=1 n=b5 v=91
56235 On ch=1 n=d#6 v=91
56250 On ch=1 n=b5 v=0
56255 On ch=1 n=d#6 v=0
56315 On ch=1 n=e6 v=93
56320 On ch=1 n=c#6 v=93
56340 On ch=1 n=c#6 v=0
56340 On ch=1 n=e6 v=0
56400 On ch=1 n=f#6 v=95
56405 On ch=1 n=d#6 v=95
56420 On ch=1 n=d#6 v=0
56425 On ch=1 n=f#6 v=0
56475 On ch=1 n=g#6 v=96
56475 On ch=1 n=e6 v=96
56500 On ch=1 n=e6 v=0
56500 On ch=1 n=g#6 v=0
56560 On ch=1 n=a6 v=98
56565 On ch=1 n=f#6 v=98
56580 On ch=1 n=a6 v=0
56585 On ch=1 n=f#6 v=0
56765 On ch=1 n=e6 v=100
56795 On ch=1 n=e6 v=0
56825 On ch=1 n=g#6 v=100
56825 On ch=1 n=e7 v=100
56845 On ch=1 n=e7 v=0
56850 On ch=1 n=g#6 v=0
56885 On ch=1 n=g#6 v=100
56885 On ch=1 n=e7 v=100
56900 On ch=1 n=e7 v=0
56915 On ch=1 n=g#6 v=0
56940 On ch=1 n=e6 v=100
56960 On ch=1 n=e6 v=0
57225 On ch=1 n=d#6 v=100
57250 On ch=1 n=d#6 v=0
57280 On ch=1 n=d#7 v=100
57285 On ch=1 n=f#6 v=100
57295 On ch=1 n=d#7 v=0
57305 On ch=1 n=f#6 v=0
57345 On ch=1 n=d#7 v=100
57350 On ch=1 n=f#6 v=100
57365 On ch=1 n=d#7 v=0
57370 On ch=1 n=f#6 v=0
57410 On ch=1 n=d#6 v=100
57425 On ch=1 n=d#6 v=0
57715 On ch=1 n=g#6 v=100
57750 On ch=1 n=g#6 v=0
57775 On ch=1 n=e7 v=100
57775 On ch=1 n=b6 v=100
57800 On ch=1 n=b6 v=0
57800 On ch=1 n=e7 v=0
57830 On ch=1 n=g#7 v=100
57855 On ch=1 n=g#7 v=0
57900 On ch=1 n=g#6 v=100
57920 On ch=1 n=g#6 v=0
58205 On ch=1 n=a6 v=100
58235 On ch=1 n=a6 v=0
58265 On ch=1 n=c7 v=100
58270 On ch=1 n=e7 v=100
58295 On ch=1 n=e7 v=0
58295 On ch=1 n=c7 v=0
58325 On ch=1 n=a7 v=100
58345 On ch=1 n=a7 v=0
58385 On ch=1 n=a6 v=100
58405 On ch=1 n=a6 v=0
58685 On ch=1 n=g#6 v=101
58720 On ch=1 n=g#6 v=0
58745 On ch=1 n=e7 v=101
58745 On ch=1 n=b6 v=101
58760 On ch=1 n=e7 v=0
58770 On ch=1 n=b6 v=0
58800 On ch=1 n=g#7 v=102
58825 On ch=1 n=g#7 v=0
58860 On ch=1 n=g#6 v=103
58880 On ch=1 n=g#6 v=0
59160 On ch=1 n=a6 v=106
59185 On ch=1 n=a6 v=0
59215 On ch=1 n=c7 v=106
59215 On ch=1 n=e7 v=106
59245 On ch=1 n=e7 v=0
59245 On ch=1 n=c7 v=0
59280 On ch=1 n=a7 v=107
59300 On ch=1 n=a7 v=0
59335 On ch=1 n=a6 v=108
59355 On ch=1 n=a6 v=0
59640 On ch=1 n=g#6 v=111
59675 On ch=1 n=g#6 v=0
59700 On ch=1 n=e7 v=111
59705 On ch=1 n=b6 v=111
59720 On ch=1 n=b6 v=0
59720 On ch=1 n=e7 v=0
59755 On ch=1 n=g#7 v=112
59785 On ch=1 n=g#7 v=0
59815 On ch=1 n=g#6 v=113
59845 On ch=1 n=g#6 v=0
60115 On ch=1 n=e6 v=116
60145 On ch=1 n=e6 v=0
60165 On ch=1 n=e7 v=116
60170 On ch=1 n=g6 v=116
60190 On ch=1 n=g6 v=0
60190 On ch=1 n=e7 v=0
60565 On ch=1 n=b6 v=120
60565 On ch=1 n=g#6 v=120
60595 On ch=1 n=g#6 v=0
60595 On ch=1 n=b6 v=0
60645 On ch=1 n=a6 v=120
60650 On ch=1 n=f#6 v=120
60675 On ch=1 n=f#6 v=0
60675 On ch=1 n=a6 v=0
60715 On ch=1 n=g#6 v=120
60720 On ch=1 n=e6 v=120
60740 On ch=1 n=g#6 v=0
60745 On ch=1 n=e6 v=0
60800 On ch=1 n=d#6 v=120
60800 On ch=1 n=f#6 v=120
60820 On ch=1 n=f#6 v=0
60825 On ch=1 n=d#6 v=0
60870 On ch=1 n=c#6 v=120
60870 On ch=1 n=e6 v=120
60900 On ch=1 n=e6 v=0
60900 On ch=1 n=c#6 v=0
61030 On ch=1 n=a5 v=110
61035 On ch=1 n=c#6 v=109
61060 On ch=1 n=c#6 v=0
61065 On ch=1 n=a5 v=0
61105 On ch=1 n=g#5 v=99
61105 On ch=1 n=b5 v=99
61135 On ch=1 n=b5 v=0
61145 On ch=1 n=g#5 v=0
61185 On ch=1 n=f#5 v=87
61185 On ch=1 n=a5 v=87
61210 On ch=1 n=a5 v=0
61215 On ch=1 n=f#5 v=0
61265 On ch=1 n=g#5 v=76
61265 On ch=1 n=e5 v=76
61285 On ch=1 n=g#5 v=0
61300 On ch=1 n=e5 v=0
61335 On ch=1 n=d#5 v=65
61340 On ch=1 n=f#5 v=64
61360 On ch=1 n=f#5 v=0
61360 On ch=1 n=d#5 v=0
61475 On ch=1 n=g#5 v=50
61505 On ch=1 n=g#5 v=0
61540 On ch=1 n=b5 v=50
61565 On ch=1 n=b5 v=0
61605 On ch=1 n=e6 v=50
61615 On ch=1 n=e6 v=0
61720 On ch=1 n=b5 v=50
61745 On ch=1 n=b5 v=0
61780 On ch=1 n=g#5 v=50
61805 On ch=1 n=g#5 v=0
61835 On ch=1 n=e5 v=50
61855 On ch=1 n=e5 v=0
61960 On ch=1 n=a5 v=50
61990 On ch=1 n=a5 v=0
62015 On ch=1 n=c6 v=50
62045 On ch=1 n=c6 v=0
62070 On ch=1 n=e6 v=50
62090 On ch=1 n=e6 v=0
62200 On ch=1 n=c6 v=50
62230 On ch=1 n=c6 v=0
62255 On ch=1 n=a5 v=50
62285 On ch=1 n=a5 v=0
62310 On ch=1 n=e5 v=50
62340 On ch=1 n=e5 v=0
62440 On ch=1 n=g#5 v=51
62470 On ch=1 n=g#5 v=0
62510 On ch=1 n=b5 v=52
62535 On ch=1 n=b5 v=0
62565 On ch=1 n=e6 v=54
62580 On ch=1 n=e6 v=0
62685 On ch=1 n=b5 v=57
62710 On ch=1 n=b5 v=0
62740 On ch=1 n=g#5 v=58
62770 On ch=1 n=g#5 v=0
62805 On ch=1 n=e5 v=60
62830 On ch=1 n=e5 v=0
62925 On ch=1 n=a5 v=63
62950 On ch=1 n=a5 v=0
62985 On ch=1 n=c6 v=65
63010 On ch=1 n=c6 v=0
63040 On ch=1 n=e6 v=66
63065 On ch=1 n=e6 v=0
63165 On ch=1 n=c6 v=69
63190 On ch=1 n=c6 v=0
63225 On ch=1 n=a5 v=71
63250 On ch=1 n=a5 v=0
63280 On ch=1 n=e5 v=72
63300 On ch=1 n=e5 v=0
63410 On ch=1 n=g#5 v=76
63440 On ch=1 n=g#5 v=0
63465 On ch=1 n=b5 v=77
63490 On ch=1 n=b5 v=0
63525 On ch=1 n=e6 v=79
63550 On ch=1 n=e6 v=0
63635 On ch=1 n=b5 v=82
63665 On ch=1 n=b5 v=0
63695 On ch=1 n=g#5 v=83
63720 On ch=1 n=g#5 v=0
63750 On ch=1 n=e5 v=85
63775 On ch=1 n=e5 v=0
63875 On ch=1 n=g5 v=88
63905 On ch=1 n=g5 v=0
63940 On ch=1 n=a#5 v=90
63965 On ch=1 n=a#5 v=0
63995 On ch=1 n=e6 v=91
64015 On ch=1 n=e6 v=0
64395 On ch=1 n=b5 v=100
64395 On ch=1 n=e6 v=100
64420 On ch=1 n=e6 v=0
64430 On ch=1 n=b5 v=0
64475 On ch=1 n=b5 v=100
64475 On ch=1 n=g#5 v=100
64495 On ch=1 n=g#5 v=0
64500 On ch=1 n=b5 v=0
64555 On ch=1 n=b6 v=100
64570 On ch=1 n=b6 v=0
64640 On ch=1 n=d#5 v=100
64640 On ch=1 n=b4 v=100
64660 On ch=1 n=b4 v=0
64665 On ch=1 n=d#5 v=0
64725 On ch=1 n=e5 v=100
64730 On ch=1 n=c#5 v=100
64745 On ch=1 n=c#5 v=0
64745 On ch=1 n=e5 v=0
64800 On ch=1 n=f#5 v=100
64800 On ch=1 n=d#5 v=100
64815 On ch=1 n=d#5 v=0
64820 On ch=1 n=f#5 v=0
64880 On ch=1 n=e5 v=101
64885 On ch=1 n=g#5 v=101
64900 On ch=1 n=e5 v=0
64905 On ch=1 n=g#5 v=0
64965 On ch=1 n=a5 v=103
64965 On ch=1 n=f#5 v=103
64985 On ch=1 n=f#5 v=0
64985 On ch=1 n=a5 v=0
65040 On ch=1 n=b5 v=105
65040 On ch=1 n=g#5 v=105
65060 On ch=1 n=g#5 v=0
65065 On ch=1 n=b5 v=0
65120 On ch=1 n=c#6 v=106
65120 On ch=1 n=a5 v=106
65140 On ch=1 n=c#6 v=0
65145 On ch=1 n=a5 v=0
65195 On ch=1 n=d#6 v=108
65195 On ch=1 n=b5 v=108
65210 On ch=1 n=b5 v=0
65215 On ch=1 n=d#6 v=0
65265 On ch=1 n=e6 v=109
65290 On ch=1 n=e6 v=0
65320 On ch=1 n=g#6 v=110
65345 On ch=1 n=g#6 v=0
65385 On ch=1 n=b6 v=110
65405 On ch=1 n=b6 v=0
65570 On ch=1 n=b6 v=110
65595 On ch=1 n=b6 v=0
65625 On ch=1 n=g#6 v=110
65650 On ch=1 n=g#6 v=0
65685 On ch=1 n=e6 v=110
65705 On ch=1 n=e6 v=0
65750 On ch=1 n=e6 v=110
65775 On ch=1 n=e6 v=0
65815 On ch=1 n=a6 v=110
65840 On ch=1 n=a6 v=0
65870 On ch=1 n=c7 v=110
65885 On ch=1 n=c7 v=0
66045 On ch=1 n=c7 v=110
66070 On ch=1 n=c7 v=0
66105 On ch=1 n=a6 v=110
66130 On ch=1 n=a6 v=0
66170 On ch=1 n=e6 v=110
66190 On ch=1 n=e6 v=0
66235 On ch=1 n=e6 v=110
66265 On ch=1 n=e6 v=0
66295 On ch=1 n=g#6 v=110
66320 On ch=1 n=g#6 v=0
66355 On ch=1 n=b6 v=110
66380 On ch=1 n=b6 v=0
66540 On ch=1 n=b6 v=110
66565 On ch=1 n=b6 v=0
66595 On ch=1 n=g#6 v=110
66625 On ch=1 n=g#6 v=0
66645 On ch=1 n=e6 v=110
66665 On ch=1 n=e6 v=0
66710 On ch=1 n=d#6 v=110
66730 On ch=1 n=d#6 v=0
66770 On ch=1 n=f#6 v=110
66790 On ch=1 n=f#6 v=0
66830 On ch=1 n=b6 v=110
66850 On ch=1 n=b6 v=0
67000 On ch=1 n=b6 v=110
67015 On ch=1 n=b6 v=0
67065 On ch=1 n=f#6 v=110
67085 On ch=1 n=f#6 v=0
67115 On ch=1 n=d#6 v=110
67135 On ch=1 n=d#6 v=0
67180 On ch=1 n=c#6 v=110
67210 On ch=1 n=c#6 v=0
67245 On ch=1 n=e6 v=110
67275 On ch=1 n=e6 v=0
67310 On ch=1 n=a6 v=110
67330 On ch=1 n=a6 v=0
67500 On ch=1 n=a6 v=110
67525 On ch=1 n=a6 v=0
67560 On ch=1 n=e6 v=110
67580 On ch=1 n=e6 v=0
67615 On ch=1 n=c#6 v=110
67640 On ch=1 n=c#6 v=0
67675 On ch=1 n=b5 v=110
67705 On ch=1 n=b5 v=0
67745 On ch=1 n=d#6 v=110
67765 On ch=1 n=d#6 v=0
67800 On ch=1 n=g#6 v=110
67825 On ch=1 n=g#6 v=0
67975 On ch=1 n=g#6 v=110
68000 On ch=1 n=g#6 v=0
68035 On ch=1 n=d#6 v=110
68055 On ch=1 n=d#6 v=0
68090 On ch=1 n=b5 v=110
68110 On ch=1 n=b5 v=0
68155 On ch=1 n=a5 v=110
68185 On ch=1 n=a5 v=0
68220 On ch=1 n=c#6 v=110
68245 On ch=1 n=c#6 v=0
68275 On ch=1 n=f#6 v=110
68300 On ch=1 n=f#6 v=0
68455 On ch=1 n=f#6 v=110
68485 On ch=1 n=f#6 v=0
68515 On ch=1 n=c#6 v=110
68535 On ch=1 n=c#6 v=0
68575 On ch=1 n=a5 v=110
68590 On ch=1 n=a5 v=0
68635 On ch=1 n=f#5 v=110
68655 On ch=1 n=f#5 v=0
68700 On ch=1 n=a5 v=110
68725 On ch=1 n=a5 v=0
68755 On ch=1 n=d#6 v=110
68770 On ch=1 n=d#6 v=0
68930 On ch=1 n=d#6 v=110
68960 On ch=1 n=d#6 v=0
68990 On ch=1 n=a5 v=110
69010 On ch=1 n=a5 v=0
69050 On ch=1 n=f#5 v=110
69070 On ch=1 n=f#5 v=0
69115 On ch=1 n=e5 v=110
69140 On ch=1 n=e5 v=0
69170 On ch=1 n=g#5 v=110
69195 On ch=1 n=g#5 v=0
69235 On ch=1 n=e6 v=110
69255 On ch=1 n=e6 v=0
69410 On ch=1 n=e6 v=110
69435 On ch=1 n=e6 v=0
69470 On ch=1 n=g#5 v=110
69490 On ch=1 n=g#5 v=0
69525 On ch=1 n=e5 v=110
69545 On ch=1 n=e5 v=0
69585 On ch=1 n=f5 v=110
69585 On ch=1 n=f5 v=110
69620 On ch=1 n=f5 v=0
69620 On ch=1 n=f5 v=0
69650 On ch=1 n=a5 v=110
69680 On ch=1 n=a5 v=0
69705 On ch=1 n=d#6 v=110
69725 On ch=1 n=d#6 v=0
69885 On ch=1 n=d#6 v=110
69910 On ch=1 n=d#6 v=0
69940 On ch=1 n=a5 v=110
69970 On ch=1 n=a5 v=0
70000 On ch=1 n=f5 v=110
70020 On ch=1 n=f5 v=0
70065 On ch=1 n=e5 v=110
70095 On ch=1 n=e5 v=0
70130 On ch=1 n=g#5 v=110
70155 On ch=1 n=g#5 v=0
70190 On ch=1 n=e6 v=110
70210 On ch=1 n=e6 v=0
70380 On ch=1 n=e6 v=110
70405 On ch=1 n=e6 v=0
70440 On ch=1 n=g#5 v=110
70460 On ch=1 n=g#5 v=0
70495 On ch=1 n=e5 v=110
70520 On ch=1 n=e5 v=0
70560 On ch=1 n=f5 v=110
70560 On ch=1 n=f5 v=110
70595 On ch=1 n=f5 v=0
70595 On ch=1 n=f5 v=0
70620 On ch=1 n=a5 v=110
70650 On ch=1 n=a5 v=0
70675 On ch=1 n=d#6 v=110
70695 On ch=1 n=d#6 v=0
70845 On ch=1 n=d#6 v=110
70875 On ch=1 n=d#6 v=0
70905 On ch=1 n=a5 v=110
70930 On ch=1 n=a5 v=0
70965 On ch=1 n=f5 v=110
70985 On ch=1 n=f5 v=0
71030 On ch=1 n=e5 v=110
71050 On ch=1 n=e5 v=0
71520 On ch=1 n=e5 v=120
71545 On ch=1 n=e5 v=0
71980 On ch=1 n=e5 v=120
72010 On ch=1 n=e5 v=0
72045 On ch=1 n=g#5 v=120
72070 On ch=1 n=g#5 v=0
72105 On ch=1 n=e6 v=120
72125 On ch=1 n=e6 v=0
72300 On ch=1 n=g#6 v=120
72330 On ch=1 n=g#6 v=0
72360 On ch=1 n=b5 v=120
72385 On ch=1 n=b5 v=0
72410 On ch=1 n=g#5 v=120
72430 On ch=1 n=g#5 v=0
72475 On ch=1 n=e5 v=120
72500 On ch=1 n=e5 v=0
72545 On ch=1 n=g#5 v=120
72565 On ch=1 n=g#5 v=0
72600 On ch=1 n=e6 v=120
72615 On ch=1 n=e6 v=0
72775 On ch=1 n=g#6 v=120
72810 On ch=1 n=g#6 v=0
72830 On ch=1 n=b5 v=120
72850 On ch=1 n=b5 v=0
72885 On ch=1 n=g#5 v=120
72905 On ch=1 n=g#5 v=0
72905 Meta TrkEnd
TrkEnd
MTrk
0 SeqSpec 43 00 01 00
0 Par ch=2 c=0 v=0
0 PrCh ch=2 p=0
0 Par ch=2 c=7 v=100
0 KeySig 4 major
475 On ch=2 n=e5 v=50
495 On ch=2 n=e5 v=0
715 On ch=2 n=e6 v=50
735 On ch=2 n=e6 v=0
950 On ch=2 n=d#5 v=50
970 On ch=2 n=d#5 v=0
1185 On ch=2 n=f#6 v=50
1205 On ch=2 n=f#6 v=0
1430 On ch=2 n=e5 v=50
1450 On ch=2 n=e5 v=0
1675 On ch=2 n=e6 v=50
1695 On ch=2 n=e6 v=0
1910 On ch=2 n=b4 v=50
1930 On ch=2 n=b4 v=0
2150 On ch=2 n=b6 v=50
2170 On ch=2 n=b6 v=0
2325 On ch=2 n=b4 v=50
2340 On ch=2 n=b4 v=0
2385 On ch=2 n=e5 v=50
2405 On ch=2 n=e5 v=0
2620 On ch=2 n=e6 v=50
2645 On ch=2 n=e6 v=0
2855 On ch=2 n=d#5 v=50
2875 On ch=2 n=d#5 v=0
3105 On ch=2 n=f#6 v=50
3125 On ch=2 n=f#6 v=0
3340 On ch=2 n=e5 v=50
3365 On ch=2 n=e5 v=0
3590 On ch=2 n=e6 v=50
3610 On ch=2 n=e6 v=0
3830 On ch=2 n=b4 v=50
3855 On ch=2 n=b4 v=0
4080 On ch=2 n=b6 v=50
4100 On ch=2 n=b6 v=0
4245 On ch=2 n=b4 v=50
4270 On ch=2 n=b4 v=0
4315 On ch=2 n=g#4 v=50
4335 On ch=2 n=g#4 v=0
4560 On ch=2 n=g#6 v=50
4580 On ch=2 n=g#6 v=0
4735 On ch=2 n=g#4 v=50
4760 On ch=2 n=g#4 v=0
4795 On ch=2 n=a4 v=50
4820 On ch=2 n=a4 v=0
5035 On ch=2 n=c#7 v=50
5060 On ch=2 n=c#7 v=0
5150 On ch=2 n=e7 v=50
5165 On ch=2 n=e7 v=0
5275 On ch=2 n=a#4 v=50
5290 On ch=2 n=a#4 v=0
5520 On ch=2 n=a#6 v=50
5540 On ch=2 n=a#6 v=0
5695 On ch=2 n=a#4 v=50
5715 On ch=2 n=a#4 v=0
5760 On ch=2 n=b4 v=50
5780 On ch=2 n=b4 v=0
6000 On ch=2 n=d#7 v=50
6020 On ch=2 n=d#7 v=0
6120 On ch=2 n=f#7 v=50
6135 On ch=2 n=f#7 v=0
6230 On ch=2 n=d#5 v=50
6250 On ch=2 n=d#5 v=0
6600 On ch=2 n=b5 v=54
6615 On ch=2 n=b5 v=0
6655 On ch=2 n=d#5 v=55
6675 On ch=2 n=d#5 v=0
6710 On ch=2 n=e5 v=55
6720 On ch=2 n=e5 v=0
7085 On ch=2 n=b5 v=60
7105 On ch=2 n=b5 v=0
7135 On ch=2 n=e5 v=60
7160 On ch=2 n=e5 v=0
7200 On ch=2 n=f#5 v=61
7220 On ch=2 n=f#5 v=0
7565 On ch=2 n=d#6 v=66
7580 On ch=2 n=d#6 v=0
7620 On ch=2 n=f#5 v=66
7640 On ch=2 n=f#5 v=0
7680 On ch=2 n=g#5 v=67
7700 On ch=2 n=g#5 v=0
8045 On ch=2 n=e6 v=71
8065 On ch=2 n=e6 v=0
8095 On ch=2 n=g#5 v=72
8120 On ch=2 n=g#5 v=0
8160 On ch=2 n=a5 v=73
8185 On ch=2 n=a5 v=0
8505 On ch=2 n=e6 v=77
8525 On ch=2 n=e6 v=0
8565 On ch=2 n=a5 v=78
8585 On ch=2 n=a5 v=0
8620 On ch=2 n=a#5 v=78
8640 On ch=2 n=a#5 v=0
8995 On ch=2 n=g6 v=83
9020 On ch=2 n=g6 v=0
9050 On ch=2 n=a#5 v=84
9070 On ch=2 n=a#5 v=0
9115 On ch=2 n=c#6 v=85
9130 On ch=2 n=c#6 v=0
9470 On ch=2 n=a#6 v=85
9500 On ch=2 n=a#6 v=0
9535 On ch=2 n=c#6 v=85
9555 On ch=2 n=c#6 v=0
9595 On ch=2 n=a#5 v=85
9610 On ch=2 n=a#5 v=0
9945 On ch=2 n=g6 v=79
9965 On ch=2 n=g6 v=0
10005 On ch=2 n=a#5 v=78
10025 On ch=2 n=a#5 v=0
10070 On ch=2 n=g5 v=77
10085 On ch=2 n=g5 v=0
10425 On ch=2 n=e6 v=70
10445 On ch=2 n=e6 v=0
10485 On ch=2 n=g5 v=69
10505 On ch=2 n=g5 v=0
10540 On ch=2 n=e5 v=68
10560 On ch=2 n=e5 v=0
10905 On ch=2 n=c#6 v=62
10925 On ch=2 n=c#6 v=0
10960 On ch=2 n=e5 v=61
10985 On ch=2 n=e5 v=0
11025 On ch=2 n=c#5 v=59
11045 On ch=2 n=c#5 v=0
11385 On ch=2 n=a#5 v=53
11405 On ch=2 n=a#5 v=0
11440 On ch=2 n=c#5 v=52
11460 On ch=2 n=c#5 v=0
11500 On ch=2 n=b4 v=51
11520 On ch=2 n=b4 v=0
11755 On ch=2 n=d#7 v=50
11775 On ch=2 n=d#7 v=0
11865 On ch=2 n=f#7 v=50
11885 On ch=2 n=f#7 v=0
12005 On ch=2 n=a4 v=50
12015 On ch=2 n=a4 v=0
12245 On ch=2 n=f#6 v=50
12265 On ch=2 n=f#6 v=0
12415 On ch=2 n=a4 v=50
12445 On ch=2 n=a4 v=0
12485 On ch=2 n=g#4 v=50
12505 On ch=2 n=g#4 v=0
12725 On ch=2 n=b6 v=50
12745 On ch=2 n=b6 v=0
12840 On ch=2 n=e7 v=50
12855 On ch=2 n=e7 v=0
12960 On ch=2 n=a4 v=50
12985 On ch=2 n=a4 v=0
13210 On ch=2 n=f#6 v=50
13225 On ch=2 n=f#6 v=0
13375 On ch=2 n=a4 v=50
13400 On ch=2 n=a4 v=0
13440 On ch=2 n=g#4 v=50
13460 On ch=2 n=g#4 v=0
13680 On ch=2 n=b6 v=50
13705 On ch=2 n=b6 v=0
13785 On ch=2 n=e7 v=50
13800 On ch=2 n=e7 v=0
13915 On ch=2 n=a4 v=100
13940 On ch=2 n=a4 v=0
14035 On ch=2 n=e5 v=100
14035 On ch=2 n=c#5 v=100
14055 On ch=2 n=e5 v=0
14060 On ch=2 n=c#5 v=0
14145 On ch=2 n=b4 v=100
14165 On ch=2 n=b4 v=0
14270 On ch=2 n=g#5 v=100
14270 On ch=2 n=e5 v=100
14290 On ch=2 n=g#5 v=0
14295 On ch=2 n=e5 v=0
14390 On ch=2 n=c#5 v=100
14415 On ch=2 n=c#5 v=0
14510 On ch=2 n=a5 v=100
14510 On ch=2 n=e5 v=100
14540 On ch=2 n=e5 v=0
14540 On ch=2 n=a5 v=0
14630 On ch=2 n=c5 v=100
14650 On ch=2 n=c5 v=0
14745 On ch=2 n=g5 v=100
14745 On ch=2 n=e5 v=100
14745 On ch=2 n=a#5 v=100
14775 On ch=2 n=a#5 v=0
14775 On ch=2 n=e5 v=0
14775 On ch=2 n=g5 v=0
14865 On ch=2 n=b4 v=100
14885 On ch=2 n=b4 v=0
14995 On ch=2 n=e5 v=100
14995 On ch=2 n=g#5 v=100
15020 On ch=2 n=g#5 v=0
15020 On ch=2 n=e5 v=0
15105 On ch=2 n=b4 v=100
15120 On ch=2 n=b4 v=0
15235 On ch=2 n=a5 v=100
15235 On ch=2 n=f#5 v=100
15255 On ch=2 n=f#5 v=0
15255 On ch=2 n=a5 v=0
15350 On ch=2 n=e5 v=100
15360 KeySig 1 minor
15595 On ch=2 n=b5 v=100
15595 On ch=2 n=g#5 v=100
15610 On ch=2 n=b5 v=0
15610 On ch=2 n=e5 v=0
15615 On ch=2 n=g#5 v=0
15835 On ch=2 n=e5 v=50
15855 On ch=2 n=e5 v=0
16080 On ch=2 n=e6 v=50
16100 On ch=2 n=e6 v=0
16315 On ch=2 n=d#5 v=50
16340 On ch=2 n=d#5 v=0
16565 On ch=2 n=f#6 v=50
16585 On ch=2 n=f#6 v=0
16810 On ch=2 n=e5 v=50
16825 On ch=2 n=e5 v=0
17035 On ch=2 n=e6 v=50
17055 On ch=2 n=e6 v=0
17275 On ch=2 n=b4 v=50
17290 On ch=2 n=b4 v=0
17510 On ch=2 n=b6 v=50
17525 On ch=2 n=b6 v=0
17700 On ch=2 n=b4 v=50
17720 On ch=2 n=b4 v=0
17760 On ch=2 n=e5 v=50
17780 On ch=2 n=e5 v=0
18000 On ch=2 n=e6 v=50
18015 On ch=2 n=e6 v=0
18240 On ch=2 n=d#5 v=50
18255 On ch=2 n=d#5 v=0
18480 On ch=2 n=f#6 v=50
18500 On ch=2 n=f#6 v=0
18725 On ch=2 n=e5 v=50
18750 On ch=2 n=e5 v=0
18960 On ch=2 n=e6 v=50
18980 On ch=2 n=e6 v=0
19195 On ch=2 n=b4 v=50
19215 On ch=2 n=b4 v=0
19430 On ch=2 n=b6 v=50
19450 On ch=2 n=b6 v=0
19610 On ch=2 n=b4 v=50
19635 On ch=2 n=b4 v=0
19675 On ch=2 n=b4 v=50
19695 On ch=2 n=b4 v=0
19910 On ch=2 n=b6 v=50
19935 On ch=2 n=b6 v=0
20085 On ch=2 n=b4 v=50
20105 On ch=2 n=b4 v=0
20145 On ch=2 n=a4 v=50
20160 On ch=2 n=a4 v=0
20390 On ch=2 n=c7 v=50
20410 On ch=2 n=c7 v=0
20565 On ch=2 n=a4 v=50
20590 On ch=2 n=a4 v=0
20635 On ch=2 n=a4 v=50
20650 On ch=2 n=a4 v=0
20870 On ch=2 n=a6 v=50
20890 On ch=2 n=a6 v=0
21050 On ch=2 n=a4 v=50
21060 On ch=2 n=a4 v=0
21110 On ch=2 n=g4 v=50
21145 On ch=2 n=g4 v=0
21165 On ch=2 n=d5 v=50
21195 On ch=2 n=d5 v=0
21480 On ch=2 n=d5 v=53
21505 On ch=2 n=d5 v=0
21535 On ch=2 n=g4 v=54
21555 On ch=2 n=g4 v=0
21600 On ch=2 n=g4 v=55
21620 On ch=2 n=g4 v=0
21660 On ch=2 n=b5 v=55
21660 On ch=2 n=d5 v=55
21675 On ch=2 n=d5 v=0
21675 On ch=2 n=b5 v=0
21965 On ch=2 n=b5 v=58
21970 On ch=2 n=d5 v=58
21985 On ch=2 n=b5 v=0
21995 On ch=2 n=d5 v=0
22025 On ch=2 n=g4 v=59
22045 On ch=2 n=g4 v=0
22090 On ch=2 n=g4 v=60
22110 On ch=2 n=g4 v=0
22150 On ch=2 n=d5 v=60
22150 On ch=2 n=b5 v=60
22170 On ch=2 n=b5 v=0
22170 On ch=2 n=d5 v=0
22440 On ch=2 n=d5 v=63
22440 On ch=2 n=b5 v=63
22460 On ch=2 n=b5 v=0
22470 On ch=2 n=d5 v=0
22500 On ch=2 n=g4 v=64
22515 On ch=2 n=g4 v=0
22560 On ch=2 n=g4 v=65
22580 On ch=2 n=g4 v=0
22610 On ch=2 n=b5 v=65
22615 On ch=2 n=d5 v=65
22635 On ch=2 n=d5 v=0
22635 On ch=2 n=b5 v=0
22900 On ch=2 n=b5 v=68
22905 On ch=2 n=d5 v=68
22920 On ch=2 n=b5 v=0
22925 On ch=2 n=d5 v=0
22955 On ch=2 n=g4 v=69
22975 On ch=2 n=g4 v=0
23020 On ch=2 n=c5 v=69
23040 On ch=2 n=c5 v=0
23075 On ch=2 n=g5 v=70
23090 On ch=2 n=g5 v=0
23285 On ch=2 n=c#5 v=72
23305 On ch=2 n=c#5 v=0
23395 On ch=2 n=a5 v=73
23400 On ch=2 n=c#5 v=73
23415 On ch=2 n=c#5 v=0
23420 On ch=2 n=a5 v=0
23530 On ch=2 n=d5 v=75
23550 On ch=2 n=d5 v=0
23590 On ch=2 n=a5 v=75
23605 On ch=2 n=a5 v=0
23770 On ch=2 n=d#5 v=77
23790 On ch=2 n=d#5 v=0
23895 On ch=2 n=b5 v=78
23895 On ch=2 n=d#5 v=78
23915 On ch=2 n=d#5 v=0
23915 On ch=2 n=b5 v=0
24020 On ch=2 n=e5 v=80
24035 On ch=2 n=e5 v=0
24065 On ch=2 n=b5 v=80
24090 On ch=2 n=b5 v=0
24240 On ch=2 n=f#5 v=82
24265 On ch=2 n=f#5 v=0
24360 On ch=2 n=a5 v=83
24360 On ch=2 n=d6 v=83
24385 On ch=2 n=d6 v=0
24385 On ch=2 n=a5 v=0
24480 On ch=2 n=g5 v=85
24500 On ch=2 n=g5 v=0
24595 On ch=2 n=d6 v=86
24600 On ch=2 n=b5 v=86
24620 On ch=2 n=b5 v=0
24620 On ch=2 n=d6 v=0
24720 On ch=2 n=a5 v=87
24745 On ch=2 n=a5 v=0
24845 On ch=2 n=d6 v=88
24845 On ch=2 n=f#6 v=88
24870 On ch=2 n=f#6 v=0
24870 On ch=2 n=d6 v=0
24970 On ch=2 n=b5 v=90
24990 On ch=2 n=b5 v=0
25090 On ch=2 n=g6 v=91
25090 On ch=2 n=d6 v=91
25110 On ch=2 n=g6 v=0
25115 On ch=2 n=d6 v=0
25210 On ch=2 n=c6 v=92
25225 On ch=2 n=c6 v=0
25335 On ch=2 n=e6 v=93
25335 On ch=2 n=g6 v=93
25350 On ch=2 n=g6 v=0
25355 On ch=2 n=e6 v=0
25460 On ch=2 n=c#5 v=95
25500 On ch=2 n=g5 v=95
25525 On ch=2 n=c#5 v=0
25535 On ch=2 n=a#5 v=96
25545 On ch=2 n=g5 v=0
25560 On ch=2 n=a#5 v=0
26160 On ch=2 n=b4 v=100
26195 On ch=2 n=b4 v=0
26240 On ch=2 n=c5 v=100
26265 On ch=2 n=c5 v=0
26315 On ch=2 n=c#5 v=100
26330 On ch=2 n=c#5 v=0
26395 On ch=2 n=d5 v=100
26415 On ch=2 n=d5 v=0
26640 On ch=2 n=d6 v=100
26660 On ch=2 n=d6 v=0
26870 On ch=2 n=g4 v=50
26890 On ch=2 n=g4 v=0
27110 On ch=2 n=g6 v=50
27135 On ch=2 n=g6 v=0
27280 On ch=2 n=g4 v=50
27295 On ch=2 n=g4 v=0
27345 On ch=2 n=g4 v=50
27360 On ch=2 n=g4 v=0
27595 On ch=2 n=f#6 v=59
27615 On ch=2 n=f#6 v=0
27765 On ch=2 n=g4 v=67
27790 On ch=2 n=g4 v=0
27825 On ch=2 n=g4 v=69
27850 On ch=2 n=g4 v=0
28070 On ch=2 n=b4 v=61
28105 On ch=2 n=b4 v=0
28155 On ch=2 n=c5 v=57
28180 On ch=2 n=c5 v=0
28225 On ch=2 n=c#5 v=54
28245 On ch=2 n=c#5 v=0
28315 On ch=2 n=d5 v=50
28330 On ch=2 n=d5 v=0
28550 On ch=2 n=d6 v=50
28570 On ch=2 n=d6 v=0
28785 On ch=2 n=g4 v=50
28805 On ch=2 n=g4 v=0
29035 On ch=2 n=g6 v=50
29055 On ch=2 n=g6 v=0
29215 On ch=2 n=g4 v=50
29240 On ch=2 n=g4 v=0
29275 On ch=2 n=g4 v=50
29300 On ch=2 n=g4 v=0
29500 On ch=2 n=f#6 v=59
29520 On ch=2 n=f#6 v=0
29685 On ch=2 n=g4 v=67
29705 On ch=2 n=g4 v=0
29760 On ch=2 n=g4 v=70
29775 On ch=2 n=g4 v=0
30000 On ch=2 n=b4 v=60
30020 On ch=2 n=b4 v=0
30085 On ch=2 n=c5 v=57
30115 On ch=2 n=c5 v=0
30155 On ch=2 n=c#5 v=54
30180 On ch=2 n=c#5 v=0
30240 On ch=2 n=d5 v=50
30260 On ch=2 n=d5 v=0
30475 On ch=2 n=d6 v=50
30490 On ch=2 n=d6 v=0
30700 On ch=2 n=g4 v=50
30715 On ch=2 n=g4 v=0
30955 On ch=2 n=g6 v=50
30975 On ch=2 n=g6 v=0
31135 On ch=2 n=g4 v=50
31150 On ch=2 n=g4 v=0
31200 On ch=2 n=g4 v=50
31215 On ch=2 n=g4 v=0
31435 On ch=2 n=g6 v=59
31455 On ch=2 n=g6 v=0
31595 On ch=2 n=g4 v=66
31660 On ch=2 n=d#5 v=69
31720 On ch=2 n=d#5 v=0
31730 On ch=2 n=g4 v=0
31895 On ch=2 n=a#4 v=70
31915 On ch=2 n=a#4 v=0
31980 On ch=2 n=c#5 v=70
32000 On ch=2 n=c#5 v=0
32060 On ch=2 n=d5 v=70
32080 On ch=2 n=d5 v=0
32135 On ch=2 n=d#5 v=70
32155 On ch=2 n=d#5 v=0
32385 On ch=2 n=d#6 v=70
32405 On ch=2 n=d#6 v=0
32625 On ch=2 n=g#4 v=70
32640 On ch=2 n=g#4 v=0
32860 On ch=2 n=g#6 v=70
32885 On ch=2 n=g#6 v=0
33050 On ch=2 n=g#4 v=70
33070 On ch=2 n=g#4 v=0
33115 On ch=2 n=g#4 v=70
33130 On ch=2 n=g#4 v=0
33345 On ch=2 n=g#6 v=77
33370 On ch=2 n=g#6 v=0
33525 On ch=2 n=g#4 v=82
33595 On ch=2 n=e5 v=85
33620 On ch=2 n=e5 v=0
33700 On ch=2 n=g#4 v=0
33840 On ch=2 n=b4 v=85
33870 On ch=2 n=b4 v=0
33925 On ch=2 n=d5 v=85
33955 On ch=2 n=d5 v=0
34010 On ch=2 n=d#5 v=85
34030 On ch=2 n=d#5 v=0
34090 On ch=2 n=e5 v=85
34115 On ch=2 n=e5 v=0
34330 On ch=2 n=e6 v=85
34355 On ch=2 n=e6 v=0
34565 On ch=2 n=a4 v=85
34590 On ch=2 n=a4 v=0
34800 On ch=2 n=a6 v=85
34820 On ch=2 n=a6 v=0
34970 On ch=2 n=a4 v=85
34990 On ch=2 n=a4 v=0
35030 On ch=2 n=a4 v=85
35055 On ch=2 n=a4 v=0
35285 On ch=2 n=a6 v=92
35300 On ch=2 n=a6 v=0
35460 On ch=2 n=a4 v=98
35525 On ch=2 n=f5 v=100
35560 On ch=2 n=f5 v=0
35565 On ch=2 n=a4 v=0
35740 On ch=2 n=c5 v=100
35765 On ch=2 n=c5 v=0
35825 On ch=2 n=d#5 v=100
35845 On ch=2 n=d#5 v=0
35910 On ch=2 n=e5 v=100
35935 On ch=2 n=e5 v=0
35985 On ch=2 n=f5 v=100
36010 On ch=2 n=f5 v=0
36245 On ch=2 n=f6 v=100
36265 On ch=2 n=f6 v=0
36480 On ch=2 n=a#4 v=50
36480 On ch=2 n=a#4 v=50
36500 On ch=2 n=a#4 v=0
36500 On ch=2 n=a#4 v=0
36715 On ch=2 n=a#6 v=50
36740 On ch=2 n=a#6 v=0
36895 On ch=2 n=a#4 v=50
36920 On ch=2 n=a#4 v=0
36960 On ch=2 n=a#4 v=50
36960 On ch=2 n=a#4 v=50
36980 On ch=2 n=a#4 v=0
36980 On ch=2 n=a#4 v=0
37195 On ch=2 n=a#6 v=50
37220 On ch=2 n=a#6 v=0
37370 On ch=2 n=a#4 v=50
37390 On ch=2 n=a#4 v=0
37440 On ch=2 n=a#4 v=50
37440 On ch=2 n=a#4 v=50
37455 On ch=2 n=a#4 v=0
37455 On ch=2 n=a#4 v=0
37685 On ch=2 n=a#6 v=52
37705 On ch=2 n=a#6 v=0
37855 On ch=2 n=a#4 v=54
37875 On ch=2 n=a#4 v=0
37925 On ch=2 n=a#4 v=55
37925 On ch=2 n=a#4 v=55
37935 On ch=2 n=a#4 v=0
37935 On ch=2 n=a#4 v=0
38170 On ch=2 n=c#7 v=57
38190 On ch=2 n=c#7 v=0
38340 On ch=2 n=a#4 v=59
38385 On ch=2 n=a#4 v=0
38410 On ch=2 n=b4 v=60
38410 On ch=2 n=b4 v=60
38430 On ch=2 n=b4 v=0
38430 On ch=2 n=b4 v=0
38650 On ch=2 n=b6 v=62
38675 On ch=2 n=b6 v=0
38830 On ch=2 n=b4 v=64
38850 On ch=2 n=b4 v=0
38895 On ch=2 n=b4 v=65
38895 On ch=2 n=b4 v=65
38915 On ch=2 n=b4 v=0
38915 On ch=2 n=b4 v=0
39120 On ch=2 n=b6 v=67
39145 On ch=2 n=b6 v=0
39295 On ch=2 n=b4 v=69
39315 On ch=2 n=b4 v=0
39360 On ch=2 n=b4 v=70
39360 On ch=2 n=b4 v=70
39380 On ch=2 n=b4 v=0
39380 On ch=2 n=b4 v=0
39595 On ch=2 n=b6 v=72
39615 On ch=2 n=b6 v=0
39780 On ch=2 n=b4 v=75
39800 On ch=2 n=b4 v=0
39840 On ch=2 n=b4 v=74
39840 On ch=2 n=b4 v=75
39860 On ch=2 n=b4 v=0
39865 On ch=2 n=b4 v=0
40070 On ch=2 n=d7 v=77
40090 On ch=2 n=d7 v=0
40225 On ch=2 n=b4 v=79
40295 On ch=2 n=c5 v=79
40295 On ch=2 n=c5 v=79
40300 On ch=2 n=b4 v=0
40320 On ch=2 n=c5 v=0
40320 On ch=2 n=c5 v=0
40545 On ch=2 n=c7 v=82
40565 On ch=2 n=c7 v=0
40725 On ch=2 n=c5 v=84
40740 On ch=2 n=c5 v=0
40775 On ch=2 n=c5 v=84
40775 On ch=2 n=c5 v=84
40800 On ch=2 n=c5 v=0
40800 On ch=2 n=c5 v=0
41030 On ch=2 n=c7 v=87
41050 On ch=2 n=c7 v=0
41205 On ch=2 n=c5 v=89
41220 On ch=2 n=c5 v=0
41270 On ch=2 n=c5 v=89
41270 On ch=2 n=c5 v=89
41285 On ch=2 n=c5 v=0
41285 On ch=2 n=c5 v=0
41510 On ch=2 n=c7 v=92
41530 On ch=2 n=c7 v=0
41685 On ch=2 n=c5 v=94
41705 On ch=2 n=c5 v=0
41760 On ch=2 n=c5 v=95
41760 On ch=2 n=c5 v=95
41800 On ch=2 n=c5 v=0
41800 On ch=2 n=c5 v=0
41995 On ch=2 n=d#7 v=97
42015 On ch=2 n=d#7 v=0
42160 On ch=2 n=c5 v=99
42175 On ch=2 n=c5 v=0
42715 On ch=2 n=c#5 v=50
42775 On ch=2 n=f5 v=50
42780 On ch=2 n=c#5 v=0
42830 On ch=2 n=f5 v=0
43075 On ch=2 n=f5 v=50
43125 On ch=2 n=c#5 v=50
43135 On ch=2 n=f5 v=0
43190 On ch=2 n=c5 v=50
43210 On ch=2 n=c#5 v=0
43240 On ch=2 n=c5 v=0
43245 On ch=2 n=d#5 v=50
43315 On ch=2 n=d#5 v=0
43540 On ch=2 n=d#5 v=50
43600 On ch=2 n=d#5 v=0
43600 On ch=2 n=c5 v=50
43655 On ch=2 n=c5 v=0
43660 On ch=2 n=c#5 v=50
43730 On ch=2 n=f5 v=50
43735 On ch=2 n=c#5 v=0
43765 On ch=2 n=f5 v=0
44030 On ch=2 n=f5 v=50
44090 On ch=2 n=c#5 v=50
44100 On ch=2 n=f5 v=0
44155 On ch=2 n=g#4 v=50
44160 On ch=2 n=c#5 v=0
44210 On ch=2 n=g#4 v=0
44215 On ch=2 n=d#5 v=50
44270 On ch=2 n=d#5 v=0
44510 On ch=2 n=d#5 v=50
44560 On ch=2 n=g#4 v=50
44565 On ch=2 n=d#5 v=0
44635 On ch=2 n=g#4 v=0
44635 On ch=2 n=c#5 v=50
44690 On ch=2 n=e5 v=50
44700 On ch=2 n=c#5 v=0
44730 On ch=2 n=e5 v=0
45000 On ch=2 n=e5 v=50
45065 On ch=2 n=c#5 v=50
45070 On ch=2 n=e5 v=0
45125 On ch=2 n=c5 v=50
45130 On ch=2 n=c#5 v=0
45170 On ch=2 n=c5 v=0
45180 On ch=2 n=d#5 v=50
45240 On ch=2 n=d#5 v=0
45490 On ch=2 n=d#5 v=50
45540 On ch=2 n=d#5 v=0
45540 On ch=2 n=c5 v=50
45585 On ch=2 n=c5 v=0
45605 On ch=2 n=c#5 v=50
45660 On ch=2 n=e5 v=50
45675 On ch=2 n=c#5 v=0
45715 On ch=2 n=e5 v=0
45960 On ch=2 n=e5 v=50
46020 On ch=2 n=c#5 v=50
46030 On ch=2 n=e5 v=0
46075 On ch=2 n=c#5 v=0
46080 On ch=2 n=g#4 v=50
46140 On ch=2 n=g#4 v=0
46140 On ch=2 n=d#5 v=50
46205 On ch=2 n=d#5 v=0
46435 On ch=2 n=d#5 v=50
46495 On ch=2 n=g#4 v=50
46500 On ch=2 n=d#5 v=0
46555 On ch=2 n=g#4 v=0
46555 On ch=2 n=c#5 v=50
46615 On ch=2 n=e5 v=50
46635 On ch=2 n=c#5 v=0
46655 On ch=2 n=e5 v=0
46905 On ch=2 n=e5 v=50
46960 On ch=2 n=e5 v=0
46965 On ch=2 n=c#5 v=50
47030 On ch=2 n=c#5 v=0
47035 On ch=2 n=b4 v=50
47090 On ch=2 n=b4 v=0
47100 On ch=2 n=e5 v=52
47150 On ch=2 n=e5 v=0
47395 On ch=2 n=e5 v=62
47450 On ch=2 n=b4 v=64
47455 On ch=2 n=e5 v=0
47520 On ch=2 n=a4 v=66
47530 On ch=2 n=b4 v=0
47590 On ch=2 n=a4 v=0
47590 On ch=2 n=e5 v=69
47640 On ch=2 n=e5 v=0
47875 On ch=2 n=e5 v=79
47930 On ch=2 n=e5 v=0
47930 On ch=2 n=a4 v=81
47980 On ch=2 n=a4 v=0
47990 On ch=2 n=a#4 v=83
48065 On ch=2 n=g5 v=85
48070 On ch=2 n=a#4 v=0
48105 On ch=2 n=g5 v=0
48355 On ch=2 n=g5 v=95
48415 On ch=2 n=a#4 v=97
48430 On ch=2 n=g5 v=0
48465 On ch=2 n=a#4 v=0
48485 On ch=2 n=b4 v=100
48515 On ch=2 n=b4 v=0
48605 On ch=2 n=f#5 v=100
48610 On ch=2 n=d#5 v=100
48630 On ch=2 n=d#5 v=0
48630 On ch=2 n=f#5 v=0
48715 On ch=2 n=a4 v=100
48745 On ch=2 n=a4 v=0
48830 On ch=2 n=f#5 v=100
48835 On ch=2 n=d#5 v=100
48855 On ch=2 n=d#5 v=0
48860 On ch=2 n=f#5 v=0
48955 On ch=2 n=g#4 v=100
48990 On ch=2 n=g#4 v=0
49075 On ch=2 n=e5 v=100
49075 On ch=2 n=b4 v=100
49105 On ch=2 n=b4 v=0
49110 On ch=2 n=e5 v=0
49205 On ch=2 n=a4 v=100
49235 On ch=2 n=a4 v=0
49315 On ch=2 n=e5 v=100
49320 On ch=2 n=c#5 v=100
49340 On ch=2 n=c#5 v=0
49340 On ch=2 n=e5 v=0
49445 On ch=2 n=b4 v=100
49475 On ch=2 n=b4 v=0
49565 On ch=2 n=g#5 v=100
49570 On ch=2 n=e5 v=100
49585 On ch=2 n=e5 v=0
49595 On ch=2 n=g#5 v=0
49675 On ch=2 n=b4 v=100
49700 On ch=2 n=b4 v=0
49800 On ch=2 n=f#5 v=100
49805 On ch=2 n=d#5 v=100
49825 On ch=2 n=d#5 v=0
49825 On ch=2 n=f#5 v=0
49920 KeySig 4 major
49930 On ch=2 n=e5 v=100
50170 On ch=2 n=g#5 v=100
50175 On ch=2 n=b5 v=100
50180 On ch=2 n=e5 v=0
50195 On ch=2 n=b5 v=0
50195 On ch=2 n=g#5 v=0
50455 On ch=2 n=g#5 v=80
50485 On ch=2 n=g#5 v=0
50510 On ch=2 n=b5 v=80
50540 On ch=2 n=b5 v=0
50565 On ch=2 n=e6 v=80
50585 On ch=2 n=e6 v=0
50695 On ch=2 n=b5 v=80
50725 On ch=2 n=b5 v=0
50760 On ch=2 n=g#5 v=80
50780 On ch=2 n=g#5 v=0
50820 On ch=2 n=e5 v=80
50840 On ch=2 n=e5 v=0
50940 On ch=2 n=a5 v=80
50965 On ch=2 n=a5 v=0
51000 On ch=2 n=c6 v=80
51030 On ch=2 n=c6 v=0
51055 On ch=2 n=e6 v=80
51075 On ch=2 n=e6 v=0
51180 On ch=2 n=c6 v=80
51205 On ch=2 n=c6 v=0
51245 On ch=2 n=a5 v=80
51265 On ch=2 n=a5 v=0
51300 On ch=2 n=e5 v=80
51320 On ch=2 n=e5 v=0
51420 On ch=2 n=g5 v=80
51440 On ch=2 n=g5 v=0
51475 On ch=2 n=a#5 v=80
51505 On ch=2 n=a#5 v=0
51535 On ch=2 n=e6 v=80
51555 On ch=2 n=e6 v=0
51665 On ch=2 n=a#5 v=80
51685 On ch=2 n=a#5 v=0
51730 On ch=2 n=g5 v=80
51750 On ch=2 n=g5 v=0
51780 On ch=2 n=e5 v=80
51800 On ch=2 n=e5 v=0
51900 On ch=2 n=g#5 v=80
51925 On ch=2 n=g#5 v=0
51960 On ch=2 n=b5 v=80
51985 On ch=2 n=b5 v=0
52005 On ch=2 n=e6 v=80
52030 On ch=2 n=e6 v=0
52080 On ch=2 n=e5 v=80
52095 On ch=2 n=e5 v=0
52160 On ch=2 n=f#5 v=80
52185 On ch=2 n=f#5 v=0
52235 On ch=2 n=g#5 v=80
52255 On ch=2 n=g#5 v=0
52320 On ch=2 n=a5 v=80
52345 On ch=2 n=a5 v=0
52550 On ch=2 n=a4 v=80
52580 On ch=2 n=a4 v=0
52670 On ch=2 n=a#4 v=80
52695 On ch=2 n=a#4 v=0
52785 On ch=2 n=b4 v=80
52810 On ch=2 n=b4 v=0
53050 On ch=2 n=b6 v=80
53080 On ch=2 n=b6 v=0
53220 On ch=2 n=b4 v=80
53245 On ch=2 n=b4 v=0
53285 On ch=2 n=b4 v=80
53315 On ch=2 n=b4 v=0
53545 On ch=2 n=b6 v=80
53565 On ch=2 n=b6 v=0
53715 On ch=2 n=b4 v=80
53740 On ch=2 n=b4 v=0
53780 On ch=2 n=e5 v=80
53795 On ch=2 n=e5 v=0
54025 On ch=2 n=g#7 v=80
54050 On ch=2 n=g#7 v=0
54130 On ch=2 n=e7 v=80
54150 On ch=2 n=e7 v=0
54255 On ch=2 n=e5 v=80
54255 On ch=2 n=e5 v=80
54275 On ch=2 n=e5 v=0
54275 On ch=2 n=e5 v=0
54305 On ch=2 n=g#5 v=80
54310 On ch=2 n=b5 v=80
54330 On ch=2 n=b5 v=0
54335 On ch=2 n=g#5 v=0
54590 On ch=2 n=b5 v=80
54590 On ch=2 n=g#5 v=80
54615 On ch=2 n=b5 v=0
54625 On ch=2 n=g#5 v=0
54645 On ch=2 n=e5 v=80
54665 On ch=2 n=e5 v=0
54705 On ch=2 n=e5 v=80
54705 On ch=2 n=e5 v=80
54730 On ch=2 n=e5 v=0
54730 On ch=2 n=e5 v=0
54765 On ch=2 n=a5 v=80
54765 On ch=2 n=c6 v=80
54790 On ch=2 n=c6 v=0
54800 On ch=2 n=a5 v=0
55080 On ch=2 n=a5 v=80
55080 On ch=2 n=c6 v=80
55105 On ch=2 n=c6 v=0
55110 On ch=2 n=a5 v=0
55140 On ch=2 n=e5 v=80
55160 On ch=2 n=e5 v=0
55205 On ch=2 n=e5 v=80
55205 On ch=2 n=e5 v=80
55225 On ch=2 n=e5 v=0
55225 On ch=2 n=e5 v=0
55260 On ch=2 n=a#5 v=81
55265 On ch=2 n=g5 v=81
55285 On ch=2 n=g5 v=0
55285 On ch=2 n=a#5 v=0
55560 On ch=2 n=g5 v=87
55560 On ch=2 n=a#5 v=87
55585 On ch=2 n=a#5 v=0
55585 On ch=2 n=g5 v=0
55620 On ch=2 n=e5 v=88
55640 On ch=2 n=e5 v=0
55675 On ch=2 n=e5 v=90
55675 On ch=2 n=e5 v=90
55715 On ch=2 n=e5 v=0
55715 On ch=2 n=e5 v=0
55740 On ch=2 n=g#5 v=90
55740 On ch=2 n=b5 v=90
55760 On ch=2 n=b5 v=0
55765 On ch=2 n=g#5 v=0
55985 On ch=2 n=d#5 v=90
56010 On ch=2 n=d#5 v=0
56070 On ch=2 n=d5 v=90
56090 On ch=2 n=d5 v=0
56150 On ch=2 n=c#5 v=90
56175 On ch=2 n=c#5 v=0
56390 On ch=2 n=a4 v=94
56425 On ch=2 n=a4 v=0
56625 On ch=2 n=b4 v=99
56625 On ch=2 n=b4 v=99
56650 On ch=2 n=b4 v=0
56650 On ch=2 n=b4 v=0
56690 On ch=2 n=g#5 v=100
56690 On ch=2 n=b5 v=100
56715 On ch=2 n=b5 v=0
56720 On ch=2 n=g#5 v=0
56995 On ch=2 n=b5 v=100
56995 On ch=2 n=g#5 v=100
57020 On ch=2 n=g#5 v=0
57020 On ch=2 n=b5 v=0
57060 On ch=2 n=b4 v=100
57080 On ch=2 n=b4 v=0
57120 On ch=2 n=b4 v=100
57120 On ch=2 n=b4 v=100
57145 On ch=2 n=b4 v=0
57145 On ch=2 n=b4 v=0
57180 On ch=2 n=b5 v=100
57180 On ch=2 n=f#5 v=100
57200 On ch=2 n=f#5 v=0
57200 On ch=2 n=b5 v=0
57465 On ch=2 n=f#5 v=100
57465 On ch=2 n=b5 v=100
57485 On ch=2 n=b5 v=0
57490 On ch=2 n=f#5 v=0
57520 On ch=2 n=b4 v=100
57540 On ch=2 n=b4 v=0
57590 On ch=2 n=e5 v=100
57590 On ch=2 n=e5 v=100
57590 On ch=2 n=e5 v=100
57610 On ch=2 n=e5 v=0
57610 On ch=2 n=e5 v=0
57610 On ch=2 n=e5 v=0
57650 On ch=2 n=g#5 v=100
57650 On ch=2 n=e6 v=100
57655 On ch=2 n=b5 v=100
57675 On ch=2 n=e6 v=0
57675 On ch=2 n=g#5 v=0
57680 On ch=2 n=b5 v=0
57950 On ch=2 n=b5 v=100
57950 On ch=2 n=g#5 v=100
57950 On ch=2 n=e6 v=100
57975 On ch=2 n=e6 v=0
57975 On ch=2 n=g#5 v=0
57975 On ch=2 n=b5 v=0
58005 On ch=2 n=e5 v=100
58015 On ch=2 n=e5 v=100
58030 On ch=2 n=e5 v=0
58035 On ch=2 n=e5 v=0
58075 On ch=2 n=e5 v=100
58075 On ch=2 n=e5 v=100
58095 On ch=2 n=e5 v=0
58095 On ch=2 n=e5 v=0
58130 On ch=2 n=c6 v=100
58130 On ch=2 n=e6 v=100
58135 On ch=2 n=a5 v=100
58155 On ch=2 n=a5 v=0
58155 On ch=2 n=e6 v=0
58155 On ch=2 n=c6 v=0
58440 On ch=2 n=c6 v=100
58445 On ch=2 n=a5 v=100
58445 On ch=2 n=e6 v=100
58465 On ch=2 n=e6 v=0
58470 On ch=2 n=a5 v=0
58470 On ch=2 n=c6 v=0
58495 On ch=2 n=e5 v=100
58520 On ch=2 n=e5 v=0
58565 On ch=2 n=e5 v=100
58565 On ch=2 n=e5 v=100
58565 On ch=2 n=e5 v=100
58585 On ch=2 n=e5 v=0
58585 On ch=2 n=e5 v=0
58585 On ch=2 n=e5 v=0
58620 On ch=2 n=e6 v=100
58625 On ch=2 n=b5 v=100
58625 On ch=2 n=g#5 v=100
58645 On ch=2 n=g#5 v=0
58645 On ch=2 n=b5 v=0
58650 On ch=2 n=e6 v=0
58920 On ch=2 n=b5 v=103
58920 On ch=2 n=e6 v=103
58925 On ch=2 n=g#5 v=103
58945 On ch=2 n=e6 v=0
58950 On ch=2 n=g#5 v=0
58955 On ch=2 n=b5 v=0
58980 On ch=2 n=e5 v=104
59000 On ch=2 n=e5 v=0
59045 On ch=2 n=e5 v=105
59045 On ch=2 n=e5 v=105
59045 On ch=2 n=e5 v=105
59065 On ch=2 n=e5 v=0
59065 On ch=2 n=e5 v=0
59065 On ch=2 n=e5 v=0
59100 On ch=2 n=e6 v=105
59105 On ch=2 n=a5 v=105
59105 On ch=2 n=c6 v=105
59125 On ch=2 n=c6 v=0
59125 On ch=2 n=a5 v=0
59125 On ch=2 n=e6 v=0
59395 On ch=2 n=e6 v=108
59395 On ch=2 n=c6 v=108
59400 On ch=2 n=a5 v=108
59425 On ch=2 n=a5 v=0
59425 On ch=2 n=c6 v=0
59425 On ch=2 n=e6 v=0
59455 On ch=2 n=e5 v=109
59480 On ch=2 n=e5 v=0
59520 On ch=2 n=e5 v=110
59520 On ch=2 n=e5 v=110
59520 On ch=2 n=e5 v=110
59540 On ch=2 n=e5 v=0
59540 On ch=2 n=e5 v=0
59540 On ch=2 n=e5 v=0
59575 On ch=2 n=e6 v=110
59580 On ch=2 n=g#5 v=110
59580 On ch=2 n=b5 v=110
59605 On ch=2 n=b5 v=0
59605 On ch=2 n=g#5 v=0
59605 On ch=2 n=e6 v=0
59870 On ch=2 n=b5 v=113
59905 On ch=2 n=b5 v=0
59925 On ch=2 n=e5 v=114
59925 On ch=2 n=g#5 v=114
59945 On ch=2 n=g#5 v=0
59950 On ch=2 n=e5 v=0
59995 On ch=2 n=c#5 v=114
59995 On ch=2 n=c#5 v=114
59995 On ch=2 n=c#5 v=114
60015 On ch=2 n=c#5 v=0
60015 On ch=2 n=c#5 v=0
60015 On ch=2 n=c#5 v=0
60050 On ch=2 n=g5 v=115
60050 On ch=2 n=a#5 v=115
60070 On ch=2 n=a#5 v=0
60070 On ch=2 n=g5 v=0
60225 On ch=2 n=c#5 v=117
60245 On ch=2 n=c#5 v=0
60350 On ch=2 n=a#4 v=118
60370 On ch=2 n=a#4 v=0
60465 On ch=2 n=b4 v=119
60485 On ch=2 n=b4 v=0
60720 On ch=2 n=g#5 v=120
60735 On ch=2 n=g#5 v=0
60800 On ch=2 n=a5 v=120
60825 On ch=2 n=a5 v=0
60870 On ch=2 n=a#5 v=120
60890 On ch=2 n=a#5 v=0
60945 On ch=2 n=d#6 v=120
60950 On ch=2 n=b5 v=120
60970 On ch=2 n=d#6 v=0
60975 On ch=2 n=b5 v=0
61180 On ch=2 n=b4 v=88
61210 On ch=2 n=b4 v=0
61400 On ch=2 n=e5 v=56
61420 On ch=2 n=e5 v=0
61665 On ch=2 n=g#6 v=50
61685 On ch=2 n=g#6 v=0
61900 On ch=2 n=e5 v=50
61920 On ch=2 n=e5 v=0
62135 On ch=2 n=a6 v=50
62160 On ch=2 n=a6 v=0
62370 On ch=2 n=e5 v=50
62395 On ch=2 n=e5 v=0
62630 On ch=2 n=g#6 v=56
62655 On ch=2 n=g#6 v=0
62875 On ch=2 n=e5 v=62
62895 On ch=2 n=e5 v=0
63105 On ch=2 n=a6 v=68
63125 On ch=2 n=a6 v=0
63345 On ch=2 n=e5 v=74
63365 On ch=2 n=e5 v=0
63585 On ch=2 n=g#6 v=80
63610 On ch=2 n=g#6 v=0
63810 On ch=2 n=c5 v=86
63835 On ch=2 n=c5 v=0
64055 On ch=2 n=g6 v=93
64075 On ch=2 n=g6 v=0
64175 On ch=2 n=e6 v=96
64195 On ch=2 n=e6 v=0
64295 On ch=2 n=b4 v=99
64320 On ch=2 n=b4 v=0
64885 On ch=2 n=b4 v=101
64905 On ch=2 n=b4 v=0
64955 On ch=2 n=c#5 v=103
64985 On ch=2 n=c#5 v=0
65040 On ch=2 n=b4 v=105
65040 On ch=2 n=d#5 v=105
65065 On ch=2 n=d#5 v=0
65065 On ch=2 n=b4 v=0
65120 On ch=2 n=e5 v=106
65145 On ch=2 n=e5 v=0
65195 On ch=2 n=f#5 v=108
65215 On ch=2 n=f#5 v=0
65275 On ch=2 n=e5 v=110
65280 On ch=2 n=g#5 v=110
65300 On ch=2 n=e5 v=0
65305 On ch=2 n=g#5 v=0
65440 On ch=2 n=e6 v=110
65465 On ch=2 n=e6 v=0
65505 On ch=2 n=e6 v=110
65530 On ch=2 n=e6 v=0
65740 On ch=2 n=e5 v=110
65765 On ch=2 n=e5 v=0
65930 On ch=2 n=e6 v=110
65950 On ch=2 n=e6 v=0
65985 On ch=2 n=e6 v=110
66005 On ch=2 n=e6 v=0
66225 On ch=2 n=e5 v=110
66245 On ch=2 n=e5 v=0
66415 On ch=2 n=e6 v=110
66435 On ch=2 n=e6 v=0
66470 On ch=2 n=e6 v=110
66495 On ch=2 n=e6 v=0
66710 On ch=2 n=e5 v=110
66730 On ch=2 n=e5 v=0
66890 On ch=2 n=e6 v=110
66910 On ch=2 n=e6 v=0
66950 On ch=2 n=e6 v=110
66970 On ch=2 n=e6 v=0
67180 On ch=2 n=e5 v=110
67195 On ch=2 n=e5 v=0
67365 On ch=2 n=e6 v=110
67385 On ch=2 n=e6 v=0
67425 On ch=2 n=e6 v=110
67450 On ch=2 n=e6 v=0
67670 On ch=2 n=e5 v=110
67695 On ch=2 n=e5 v=0
67855 On ch=2 n=e6 v=110
67875 On ch=2 n=e6 v=0
67915 On ch=2 n=e6 v=110
67940 On ch=2 n=e6 v=0
68150 On ch=2 n=e5 v=110
68175 On ch=2 n=e5 v=0
68330 On ch=2 n=e6 v=110
68355 On ch=2 n=e6 v=0
68390 On ch=2 n=e6 v=110
68415 On ch=2 n=e6 v=0
68630 On ch=2 n=e5 v=110
68650 On ch=2 n=e5 v=0
68815 On ch=2 n=e6 v=110
68830 On ch=2 n=e6 v=0
68870 On ch=2 n=e6 v=110
68890 On ch=2 n=e6 v=0
69290 On ch=2 n=e6 v=110
69310 On ch=2 n=e6 v=0
69350 On ch=2 n=e6 v=110
69370 On ch=2 n=e6 v=0
69765 On ch=2 n=e6 v=110
69780 On ch=2 n=e6 v=0
69825 On ch=2 n=e6 v=110
69850 On ch=2 n=e6 v=0
70250 On ch=2 n=e6 v=110
70270 On ch=2 n=e6 v=0
70310 On ch=2 n=e6 v=110
70335 On ch=2 n=e6 v=0
70730 On ch=2 n=e6 v=110
70755 On ch=2 n=e6 v=0
70795 On ch=2 n=e6 v=110
70820 On ch=2 n=e6 v=0
71145 On ch=2 n=e6 v=120
71150 On ch=2 n=g#5 v=120
71180 On ch=2 n=g#5 v=0
71180 On ch=2 n=e6 v=0
71625 On ch=2 n=g#6 v=120
71630 On ch=2 n=e6 v=120
71630 On ch=2 n=g#5 v=120
71665 On ch=2 n=g#5 v=0
71665 On ch=2 n=e6 v=0
71670 On ch=2 n=g#6 v=0
72165 On ch=2 n=e6 v=120
72185 On ch=2 n=e6 v=0
72225 On ch=2 n=e6 v=120
72250 On ch=2 n=e6 v=0
72660 On ch=2 n=e6 v=120
72680 On ch=2 n=e6 v=0
72720 On ch=2 n=e6 v=120
72745 On ch=2 n=e6 v=0
72945 On ch=2 n=e5 v=120
72950 On ch=2 n=e6 v=120
72950 On ch=2 n=g#5 v=120
73440 On ch=2 n=e6 v=0
73440 On ch=2 n=e5 v=0
73445 On ch=2 n=g#5 v=0
73445 Meta TrkEnd
TrkEnd
MTrk
0 SeqSpec 43 00 01 00
0 Par ch=3 c=7 v=100
0 KeySig 4 major
15360 KeySig 1 minor
49920 KeySig 4 major
49920 Meta TrkEnd
TrkEnd
MTrk
0 SeqSpec 43 00 01 00
0 Par ch=4 c=7 v=100
0 KeySig 4 major
15360 KeySig 1 minor
49920 KeySig 4 major
49920 Meta TrkEnd
TrkEnd
