MFile 1 8 240
MTrk
0 TimeSig 4/4 24 8
0 Tempo 500000
0 Meta TrkEnd
TrkEnd
MTrk
0 Meta TrkName "Frederic Chopin:"
0 PrCh ch=14 p=0
0 Par ch=14 c=7 v=91
40 On ch=14 n=g3 v=46
131 Par ch=14 c=64 v=127
177 On ch=14 n=d4 v=46
272 Off ch=14 n=d4 v=64
277 On ch=14 n=g4 v=46
345 On ch=14 n=b4 v=46
372 Off ch=14 n=g4 v=64
421 On ch=14 n=d5 v=46
427 Off ch=14 n=b4 v=64
457 Off ch=14 n=g3 v=64
488 On ch=14 n=b4 v=46
497 Off ch=14 n=d5 v=64
542 On ch=14 n=g4 v=46
583 Off ch=14 n=b4 v=64
592 On ch=14 n=d4 v=46
623 Off ch=14 n=g4 v=64
655 On ch=14 n=g3 v=46
661 Off ch=14 n=d4 v=64
707 On ch=14 n=d4 v=46
729 Off ch=14 n=g3 v=64
774 On ch=14 n=g3 v=46
775 Off ch=14 n=d4 v=64
820 On ch=14 n=d4 v=46
830 Off ch=14 n=g3 v=64
903 On ch=14 n=g3 v=46
907 Off ch=14 n=d4 v=64
942 Par ch=14 c=64 v=0
997 Par ch=14 c=64 v=127
1018 On ch=14 n=d4 v=46
1088 On ch=14 n=g4 v=46
1113 Off ch=14 n=d4 v=64
1149 On ch=14 n=b4 v=46
1177 Off ch=14 n=g4 v=64
1189 On ch=14 n=d5 v=46
1204 Off ch=14 n=b4 v=64
1248 On ch=14 n=b4 v=46
1269 Off ch=14 n=d5 v=64
1294 On ch=14 n=g4 v=46
1320 Off ch=14 n=g3 v=64
1326 Off ch=14 n=b4 v=64
1334 On ch=14 n=d4 v=46
1357 Off ch=14 n=g4 v=64
1394 On ch=14 n=g3 v=46
1396 Off ch=14 n=d4 v=64
1437 On ch=14 n=d4 v=46
1462 Off ch=14 n=g3 v=64
1500 Off ch=14 n=d4 v=64
1502 On ch=14 n=g3 v=46
1547 On ch=14 n=d4 v=46
1557 Off ch=14 n=g3 v=64
1613 Off ch=14 n=d4 v=64
1624 On ch=14 n=g3 v=46
1653 Par ch=14 c=64 v=0
1689 On ch=14 n=d4 v=46
1734 Par ch=14 c=64 v=127
1763 On ch=14 n=g4 v=46
1784 Off ch=14 n=d4 v=64
1830 On ch=14 n=b4 v=46
1858 Off ch=14 n=g4 v=64
1891 On ch=14 n=d5 v=46
1896 Off ch=14 n=b4 v=64
1944 On ch=14 n=b4 v=46
1967 Off ch=14 n=d5 v=64
1991 On ch=14 n=g4 v=46
2029 On ch=14 n=d4 v=46
2039 Off ch=14 n=b4 v=64
2041 Off ch=14 n=g3 v=64
2065 Off ch=14 n=g4 v=64
2087 On ch=14 n=g3 v=46
2088 Off ch=14 n=d4 v=64
2139 On ch=14 n=d4 v=46
2155 Off ch=14 n=g3 v=64
2201 Off ch=14 n=d4 v=64
2208 On ch=14 n=g3 v=46
2249 On ch=14 n=d4 v=46
2267 Off ch=14 n=g3 v=64
2311 Off ch=14 n=d4 v=64
2323 On ch=14 n=g3 v=46
2361 Par ch=14 c=64 v=0
2384 On ch=14 n=d4 v=46
2416 Par ch=14 c=64 v=127
2452 On ch=14 n=g4 v=46
2479 Off ch=14 n=d4 v=64
2502 On ch=14 n=b4 v=46
2544 Off ch=14 n=g4 v=64
2565 On ch=14 n=d5 v=46
2573 Off ch=14 n=b4 v=64
2628 On ch=14 n=b4 v=46
2650 Off ch=14 n=d5 v=64
2695 On ch=14 n=g4 v=46
2701 Off ch=14 n=b4 v=64
2740 Off ch=14 n=g3 v=64
2745 On ch=14 n=d4 v=46
2760 Off ch=14 n=g4 v=64
2814 On ch=14 n=g3 v=46
2821 Off ch=14 n=d4 v=64
2882 On ch=14 n=d4 v=46
2901 Off ch=14 n=g3 v=64
2958 Off ch=14 n=d4 v=64
2968 On ch=14 n=g3 v=46
3037 On ch=14 n=d4 v=46
3046 Off ch=14 n=g3 v=64
3142 Off ch=14 n=d4 v=64
3157 On ch=14 n=g3 v=46
3226 On ch=14 n=b6 v=79
3250 Par ch=14 c=64 v=0
3319 Par ch=14 c=64 v=127
3379 On ch=14 n=d4 v=46
3444 Off ch=14 n=d4 v=64
3452 On ch=14 n=g4 v=46
3522 On ch=14 n=b4 v=46
3547 Off ch=14 n=g4 v=64
3574 Off ch=14 n=g3 v=64
3581 On ch=14 n=d5 v=46
3585 Off ch=14 n=b4 v=64
3634 On ch=14 n=b4 v=46
3649 Off ch=14 n=d5 v=64
3713 On ch=14 n=g4 v=46
3717 On ch=14 n=d6 v=64
3729 Off ch=14 n=b4 v=64
3755 Off ch=14 n=b6 v=64
3755 On ch=14 n=d4 v=46
3808 Off ch=14 n=g4 v=64
3812 Off ch=14 n=d4 v=64
3813 On ch=14 n=g3 v=46
3864 On ch=14 n=d4 v=46
3874 Off ch=14 n=g3 v=64
3923 Off ch=14 n=d4 v=64
3923 On ch=14 n=g3 v=46
3951 On ch=14 n=e6 v=59
3958 Off ch=14 n=d6 v=64
3967 On ch=14 n=d4 v=46
3973 Off ch=14 n=g3 v=64
4027 Off ch=14 n=d4 v=64
4069 On ch=14 n=g3 v=46
4105 On ch=14 n=f#6 v=65
4126 Par ch=14 c=64 v=0
4136 Off ch=14 n=e6 v=64
4190 Par ch=14 c=64 v=127
4200 On ch=14 n=d4 v=46
4263 On ch=14 n=a4 v=46
4295 Off ch=14 n=d4 v=64
4334 On ch=14 n=c5 v=46
4358 Off ch=14 n=a4 v=64
4386 On ch=14 n=d5 v=46
4401 Off ch=14 n=c5 v=64
4444 On ch=14 n=c5 v=46
4463 Off ch=14 n=d5 v=64
4483 Off ch=14 n=g3 v=64
4513 On ch=14 n=a4 v=46
4539 Off ch=14 n=c5 v=64
4551 On ch=14 n=d4 v=46
4608 Off ch=14 n=a4 v=64
4608 On ch=14 n=g3 v=46
4613 Off ch=14 n=d4 v=64
4656 On ch=14 n=d4 v=46
4680 Off ch=14 n=g3 v=64
4727 On ch=14 n=g3 v=46
4729 Off ch=14 n=d4 v=64
4752 On ch=14 n=g6 v=64
4764 Off ch=14 n=f#6 v=64
4792 On ch=14 n=d4 v=46
4808 Off ch=14 n=g3 v=64
4847 On ch=14 n=g3 v=46
4865 Off ch=14 n=d4 v=64
4876 On ch=14 n=a6 v=65
4925 On ch=14 n=d4 v=46
4932 Off ch=14 n=g6 v=64
4997 Off ch=14 n=d4 v=64
5004 On ch=14 n=a4 v=46
5073 On ch=14 n=c5 v=46
5099 Off ch=14 n=a4 v=64
5139 On ch=14 n=d5 v=46
5140 On ch=14 n=b6 v=71
5144 Off ch=14 n=c5 v=64
5193 On ch=14 n=c5 v=46
5200 Off ch=14 n=d5 v=64
5209 Off ch=14 n=a6 v=64
5264 Off ch=14 n=g3 v=64
5269 On ch=14 n=a4 v=46
5288 Off ch=14 n=c5 v=64
5292 On ch=14 n=c7 v=77
5307 Off ch=14 n=b6 v=64
5329 On ch=14 n=d4 v=46
5345 Off ch=14 n=a4 v=64
5397 Off ch=14 n=d4 v=64
5398 On ch=14 n=g3 v=46
5450 On ch=14 n=d4 v=46
5458 Off ch=14 n=g3 v=64
5511 On ch=14 n=g3 v=46
5514 Off ch=14 n=d4 v=64
5520 On ch=14 n=e7 v=79
5530 Off ch=14 n=c7 v=64
5569 Off ch=14 n=g3 v=64
5585 On ch=14 n=d4 v=46
5625 Off ch=14 n=e7 v=64
5634 Par ch=14 c=64 v=0
5649 On ch=14 n=g3 v=46
5657 Off ch=14 n=d4 v=64
5673 On ch=14 n=e7 v=80
5701 Par ch=14 c=64 v=127
5739 On ch=14 n=d4 v=46
5806 On ch=14 n=a#4 v=46
5834 Off ch=14 n=d4 v=64
5853 On ch=14 n=c#5 v=46
5901 Off ch=14 n=a#4 v=64
5926 On ch=14 n=e5 v=46
5936 Off ch=14 n=c#5 v=64
5985 On ch=14 n=c#5 v=46
6021 Off ch=14 n=e5 v=64
6032 On ch=14 n=a#4 v=46
6066 Off ch=14 n=g3 v=64
6080 Off ch=14 n=c#5 v=64
6081 On ch=14 n=d4 v=46
6127 Off ch=14 n=a#4 v=64
6139 On ch=14 n=g3 v=46
6146 Off ch=14 n=d4 v=64
6198 Off ch=14 n=g3 v=64
6207 On ch=14 n=d4 v=46
6254 Off ch=14 n=d4 v=64
6266 On ch=14 n=g3 v=46
6321 On ch=14 n=d4 v=46
6327 Off ch=14 n=g3 v=64
6368 Off ch=14 n=d4 v=64
6372 On ch=14 n=g3 v=46
6373 Par ch=14 c=64 v=0
6403 Par ch=14 c=64 v=127
6428 On ch=14 n=d4 v=46
6477 On ch=14 n=b4 v=46
6523 Off ch=14 n=d4 v=64
6533 On ch=14 n=d5 v=46
6576 Off ch=14 n=b4 v=64
6597 On ch=14 n=d7 v=75
6601 On ch=14 n=g5 v=46
6618 Off ch=14 n=d5 v=64
6632 Off ch=14 n=e7 v=64
6661 On ch=14 n=d5 v=46
6696 Off ch=14 n=g5 v=64
6721 On ch=14 n=d6 v=65
6721 On ch=14 n=b4 v=46
6756 Off ch=14 n=d5 v=64
6789 Off ch=14 n=g3 v=64
6789 On ch=14 n=d4 v=46
6816 Off ch=14 n=b4 v=64
6853 On ch=14 n=g3 v=46
6865 Off ch=14 n=d4 v=64
6885 Off ch=14 n=d7 v=64
6925 On ch=14 n=d4 v=46
6954 Off ch=14 n=g3 v=64
7021 On ch=14 n=g3 v=46
7029 On ch=14 n=e6 v=54
7033 Off ch=14 n=d4 v=64
7079 On ch=14 n=d4 v=46
7089 Off ch=14 n=d6 v=64
7118 Off ch=14 n=g3 v=64
7165 Off ch=14 n=d4 v=64
7175 On ch=14 n=f#6 v=67
7178 On ch=14 n=g3 v=46
7217 Par ch=14 c=64 v=0
7262 Off ch=14 n=e6 v=64
7272 On ch=14 n=d4 v=46
7275 Par ch=14 c=64 v=127
7331 Off ch=14 n=d4 v=64
7341 On ch=14 n=a4 v=46
7416 On ch=14 n=c5 v=46
7436 Off ch=14 n=a4 v=64
7474 On ch=14 n=d5 v=46
7480 Off ch=14 n=c5 v=64
7537 On ch=14 n=c5 v=46
7569 Off ch=14 n=d5 v=64
7587 On ch=14 n=a4 v=46
7589 Off ch=14 n=g3 v=64
7622 Off ch=14 n=c5 v=64
7637 On ch=14 n=d4 v=46
7681 On ch=14 n=g3 v=46
7682 Off ch=14 n=a4 v=64
7704 Off ch=14 n=d4 v=64
7732 On ch=14 n=d4 v=46
7746 Off ch=14 n=f#6 v=64
7768 Off ch=14 n=g3 v=64
7793 Off ch=14 n=d4 v=64
7799 On ch=14 n=g3 v=46
7807 On ch=14 n=g6 v=67
7885 On ch=14 n=d4 v=46
7886 Off ch=14 n=g3 v=64
7943 Off ch=14 n=d4 v=64
7953 On ch=14 n=g3 v=46
7980 Off ch=14 n=g6 v=64
8003 On ch=14 n=a6 v=64
8013 Par ch=14 c=64 v=0
8050 On ch=14 n=d4 v=46
8074 Par ch=14 c=64 v=127
8117 Off ch=14 n=d4 v=64
8128 On ch=14 n=a4 v=46
8132 On ch=14 n=b6 v=62
8148 Off ch=14 n=a6 v=64
8199 On ch=14 n=a6 v=64
8203 On ch=14 n=c5 v=46
8211 Off ch=14 n=b6 v=64
8223 Off ch=14 n=a4 v=64
8256 On ch=14 n=g#6 v=72
8259 Off ch=14 n=a6 v=64
8270 On ch=14 n=d5 v=46
8278 Off ch=14 n=c5 v=64
8300 Off ch=14 n=g#6 v=64
8311 On ch=14 n=a6 v=54
8317 On ch=14 n=c5 v=46
8323 Off ch=14 n=d5 v=64
8367 Off ch=14 n=g3 v=64
8382 On ch=14 n=c7 v=62
8392 Off ch=14 n=c5 v=64
8397 On ch=14 n=f#4 v=46
8406 Off ch=14 n=a6 v=64
8434 Off ch=14 n=c7 v=64
8437 On ch=14 n=d4 v=46
8492 Off ch=14 n=f#4 v=64
8515 On ch=14 n=c7 v=72
8521 On ch=14 n=g3 v=46
8522 Off ch=14 n=d4 v=64
8619 On ch=14 n=d4 v=46
8631 Off ch=14 n=g3 v=64
8715 On ch=14 n=g3 v=46
8725 Off ch=14 n=d4 v=64
8785 On ch=14 n=b6 v=78
8807 On ch=14 n=d4 v=46
8825 Off ch=14 n=g3 v=64
8835 Off ch=14 n=c7 v=64
8856 Off ch=14 n=b6 v=64
8881 Off ch=14 n=d4 v=64
8888 On ch=14 n=g3 v=53
8949 On ch=14 n=d4 v=46
8963 On ch=14 n=b6 v=67
9008 On ch=14 n=a6 v=64
9025 Off ch=14 n=d4 v=64
9028 Off ch=14 n=b6 v=64
9038 On ch=14 n=g4 v=46
9049 On ch=14 n=g6 v=59
9070 Off ch=14 n=a6 v=64
9101 On ch=14 n=b4 v=46
9103 Off ch=14 n=g4 v=64
9174 On ch=14 n=d5 v=46
9177 Off ch=14 n=b4 v=64
9221 Off ch=14 n=d5 v=64
9225 On ch=14 n=b4 v=46
9290 On ch=14 n=g4 v=46
9300 Off ch=14 n=b4 v=64
9305 Off ch=14 n=g3 v=64
9340 Off ch=14 n=g4 v=64
9348 On ch=14 n=d4 v=46
9387 On ch=14 n=g3 v=46
9407 Off ch=14 n=d4 v=64
9444 On ch=14 n=d4 v=46
9452 Off ch=14 n=g3 v=64
9504 On ch=14 n=g3 v=46
9518 Off ch=14 n=d4 v=64
9559 Off ch=14 n=g3 v=64
9564 On ch=14 n=d4 v=52
9624 Off ch=14 n=d4 v=64
9624 Off ch=14 n=g6 v=64
9664 On ch=14 n=g3 v=52
9676 On ch=14 n=b6 v=100
9743 Par ch=14 c=64 v=127
9827 On ch=14 n=d4 v=52
9886 Off ch=14 n=d4 v=64
9900 On ch=14 n=g4 v=52
9960 On ch=14 n=b4 v=52
9975 Off ch=14 n=g4 v=64
10017 On ch=14 n=d5 v=52
10024 Off ch=14 n=b4 v=64
10059 On ch=14 n=b4 v=52
10067 Off ch=14 n=d5 v=64
10081 Off ch=14 n=g3 v=64
10134 Off ch=14 n=b4 v=64
10135 On ch=14 n=g4 v=52
10136 On ch=14 n=d6 v=89
10181 Off ch=14 n=g4 v=64
10187 On ch=14 n=d4 v=52
10226 Off ch=14 n=d4 v=64
10230 Off ch=14 n=b6 v=64
10240 On ch=14 n=g3 v=52
10290 On ch=14 n=d4 v=52
10327 Off ch=14 n=g3 v=64
10357 Off ch=14 n=d4 v=64
10362 On ch=14 n=g3 v=52
10368 On ch=14 n=e6 v=83
10376 Off ch=14 n=d6 v=64
10417 On ch=14 n=d4 v=52
10449 Off ch=14 n=g3 v=64
10486 Off ch=14 n=d4 v=64
10514 Par ch=14 c=64 v=0
10524 On ch=14 n=g3 v=52
10528 On ch=14 n=f#6 v=82
10558 Off ch=14 n=e6 v=64
10577 Par ch=14 c=64 v=127
10593 On ch=14 n=d4 v=52
10657 On ch=14 n=a4 v=52
10677 Off ch=14 n=d4 v=64
10713 On ch=14 n=c5 v=52
10752 Off ch=14 n=a4 v=64
10777 On ch=14 n=d5 v=52
10787 Off ch=14 n=c5 v=64
10830 On ch=14 n=c5 v=52
10851 Off ch=14 n=d5 v=64
10899 On ch=14 n=a4 v=52
10905 Off ch=14 n=c5 v=64
10938 Off ch=14 n=g3 v=64
10958 On ch=14 n=d4 v=52
10976 Off ch=14 n=a4 v=64
11010 Off ch=14 n=d4 v=64
11014 On ch=14 n=g3 v=52
11066 On ch=14 n=d4 v=52
11076 Off ch=14 n=g3 v=64
11119 On ch=14 n=g6 v=80
11123 On ch=14 n=g3 v=52
11126 Off ch=14 n=f#6 v=64
11142 Off ch=14 n=d4 v=64
11167 On ch=14 n=d4 v=52
11194 Off ch=14 n=g3 v=64
11241 On ch=14 n=g3 v=52
11246 Off ch=14 n=d4 v=64
11250 Par ch=14 c=64 v=0
11264 On ch=14 n=a6 v=83
11269 Par ch=14 c=64 v=127
11285 Off ch=14 n=g6 v=64
11285 On ch=14 n=d4 v=52
11336 On ch=14 n=f#4 v=52
11352 Off ch=14 n=d4 v=64
11403 Off ch=14 n=f#4 v=64
11404 On ch=14 n=c5 v=52
11474 Off ch=14 n=c5 v=64
11483 On ch=14 n=d5 v=52
11493 On ch=14 n=b6 v=89
11515 Off ch=14 n=a6 v=64
11557 Off ch=14 n=d5 v=64
11560 On ch=14 n=c5 v=52
11627 Off ch=14 n=c5 v=64
11632 On ch=14 n=f#4 v=52
11634 On ch=14 n=c7 v=89
11655 Off ch=14 n=g3 v=64
11658 Off ch=14 n=b6 v=64
11667 On ch=14 n=d7 v=93
11677 On ch=14 n=d4 v=52
11678 Off ch=14 n=c7 v=64
11683 Off ch=14 n=f#4 v=64
11705 On ch=14 n=g3 v=52
11715 On ch=14 n=c7 v=89
11731 Off ch=14 n=d7 v=64
11737 Off ch=14 n=d4 v=64
11742 On ch=14 n=b6 v=90
11747 Off ch=14 n=c7 v=64
11775 On ch=14 n=c7 v=101
11782 On ch=14 n=d4 v=52
11784 Off ch=14 n=b6 v=64
11799 Off ch=14 n=g3 v=64
11830 On ch=14 n=f#7 v=103
11834 On ch=14 n=g3 v=52
11856 Off ch=14 n=c7 v=64
11859 Off ch=14 n=d4 v=64
11922 On ch=14 n=d4 v=52
11944 Off ch=14 n=g3 v=64
11964 On ch=14 n=e7 v=86
11983 Off ch=14 n=f#7 v=64
11993 Off ch=14 n=e7 v=64
11999 Off ch=14 n=d4 v=64
12009 Par ch=14 c=64 v=0
12015 On ch=14 n=g3 v=52
12018 On ch=14 n=e7 v=102
12058 Par ch=14 c=64 v=127
12092 On ch=14 n=d4 v=52
12162 On ch=14 n=a#4 v=52
12169 Off ch=14 n=d4 v=64
12222 On ch=14 n=c#5 v=52
12237 Off ch=14 n=a#4 v=64
12281 On ch=14 n=e5 v=52
12289 Off ch=14 n=c#5 v=64
12330 On ch=14 n=c#5 v=52
12358 Off ch=14 n=e5 v=64
12385 On ch=14 n=a#4 v=52
12397 Off ch=14 n=c#5 v=64
12422 On ch=14 n=d4 v=52
12432 Off ch=14 n=g3 v=64
12460 Off ch=14 n=a#4 v=64
12477 On ch=14 n=g3 v=52
12489 Off ch=14 n=d4 v=64
12539 On ch=14 n=d4 v=52
12564 Off ch=14 n=g3 v=64
12578 Off ch=14 n=d4 v=64
12600 On ch=14 n=g3 v=52
12659 On ch=14 n=d4 v=52
12687 Off ch=14 n=g3 v=64
12713 Off ch=14 n=d4 v=64
12718 On ch=14 n=g3 v=52
12764 On ch=14 n=d4 v=52
12781 Off ch=14 n=e7 v=64
12805 Off ch=14 n=d4 v=64
12809 On ch=14 n=b4 v=52
12872 On ch=14 n=d5 v=52
12874 Off ch=14 n=b4 v=64
12932 On ch=14 n=d7 v=64
12940 Off ch=14 n=d5 v=64
12962 On ch=14 n=g5 v=52
12991 On ch=14 n=b7 v=63
13010 Off ch=14 n=d7 v=64
13010 On ch=14 n=f#7 v=64
13013 Off ch=14 n=g5 v=64
13024 Off ch=14 n=b7 v=64
13034 On ch=14 n=a7 v=56
13043 Off ch=14 n=f#7 v=64
13058 On ch=14 n=g7 v=64
13061 On ch=14 n=d5 v=52
13067 Off ch=14 n=a7 v=64
13091 Off ch=14 n=g7 v=64
13092 On ch=14 n=d7 v=64
13125 Off ch=14 n=d7 v=64
13134 On ch=14 n=b6 v=64
13135 Off ch=14 n=g3 v=64
13146 Off ch=14 n=d5 v=64
13167 Off ch=14 n=b6 v=64
13176 On ch=14 n=g6 v=64
13209 Off ch=14 n=g6 v=64
13214 On ch=14 n=b4 v=52
13215 On ch=14 n=d6 v=81
13270 On ch=14 n=d4 v=52
13309 Off ch=14 n=b4 v=64
13330 On ch=14 n=g3 v=52
13340 Off ch=14 n=d4 v=64
13383 On ch=14 n=d4 v=52
13414 Off ch=14 n=g3 v=64
13447 Off ch=14 n=d4 v=64
13467 On ch=14 n=g3 v=52
13523 On ch=14 n=d4 v=52
13531 On ch=14 n=e6 v=80
13547 Off ch=14 n=d6 v=64
13554 Off ch=14 n=g3 v=64
13555 Par ch=14 c=64 v=0
13571 On ch=14 n=g3 v=52
13576 Off ch=14 n=d4 v=64
13597 On ch=14 n=f#6 v=80
13611 Off ch=14 n=e6 v=64
13617 Par ch=14 c=64 v=127
13655 On ch=14 n=d4 v=52
13701 Off ch=14 n=d4 v=64
13715 On ch=14 n=a4 v=52
13760 Off ch=14 n=a4 v=64
13771 On ch=14 n=c5 v=52
13824 On ch=14 n=d5 v=52
13829 Off ch=14 n=c5 v=64
13866 On ch=14 n=c5 v=52
13869 Off ch=14 n=d5 v=64
13911 Off ch=14 n=c5 v=64
13932 On ch=14 n=a4 v=52
13968 On ch=14 n=d4 v=52
13973 Off ch=14 n=a4 v=64
13988 Off ch=14 n=g3 v=64
14017 On ch=14 n=g3 v=52
14026 Off ch=14 n=d4 v=64
14079 On ch=14 n=d4 v=52
14104 Off ch=14 n=g3 v=64
14130 Off ch=14 n=f#6 v=64
14131 On ch=14 n=g6 v=85
14152 Off ch=14 n=d4 v=64
14167 On ch=14 n=g3 v=52
14223 On ch=14 n=d4 v=52
14254 Off ch=14 n=g3 v=64
14255 On ch=14 n=a6 v=79
14279 Off ch=14 n=a6 v=64
14279 Off ch=14 n=g6 v=64
14283 On ch=14 n=g3 v=52
14293 Off ch=14 n=d4 v=64
14296 On ch=14 n=a6 v=81
14298 Par ch=14 c=64 v=0
14361 On ch=14 n=d4 v=52
14361 Par ch=14 c=64 v=127
14402 Off ch=14 n=d4 v=64
14407 Off ch=14 n=a6 v=64
14416 On ch=14 n=a4 v=52
14422 On ch=14 n=b6 v=71
14470 On ch=14 n=a6 v=72
14476 Off ch=14 n=b6 v=64
14481 Off ch=14 n=a4 v=64
14485 On ch=14 n=c5 v=52
14525 Off ch=14 n=a6 v=64
14529 On ch=14 n=g#6 v=80
14545 Off ch=14 n=c5 v=64
14552 On ch=14 n=d5 v=52
14557 On ch=14 n=a6 v=79
14559 Off ch=14 n=g#6 v=64
14588 Off ch=14 n=a6 v=64
14598 On ch=14 n=c5 v=52
14608 On ch=14 n=a6 v=83
14622 Off ch=14 n=d5 v=64
14661 On ch=14 n=a4 v=52
14670 Off ch=14 n=c5 v=64
14676 On ch=14 n=c7 v=73
14691 Off ch=14 n=a6 v=64
14694 Off ch=14 n=g3 v=64
14716 Off ch=14 n=a4 v=64
14728 On ch=14 n=d4 v=52
14769 On ch=14 n=g3 v=52
14795 Off ch=14 n=d4 v=64
14805 Off ch=14 n=c7 v=64
14820 On ch=14 n=c7 v=81
14873 On ch=14 n=d4 v=52
14874 Off ch=14 n=g3 v=64
14946 Off ch=14 n=d4 v=64
14961 On ch=14 n=g3 v=52
15058 Off ch=14 n=g3 v=64
15060 Off ch=14 n=c7 v=64
15061 On ch=14 n=d4 v=52
15062 On ch=14 n=b6 v=94
15098 Off ch=14 n=b6 v=64
15117 On ch=14 n=b6 v=94
15128 Off ch=14 n=d4 v=64
15153 Off ch=14 n=b6 v=64
15177 On ch=14 n=b6 v=77
15177 On ch=14 n=g3 v=52
15194 Par ch=14 c=64 v=0
15206 On ch=14 n=a6 v=73
15228 Off ch=14 n=b6 v=64
15243 On ch=14 n=g6 v=79
15246 Par ch=14 c=64 v=127
15253 On ch=14 n=d4 v=52
15260 Off ch=14 n=a6 v=64
15304 On ch=14 n=g4 v=52
15320 Off ch=14 n=d4 v=64
15327 Off ch=14 n=g6 v=64
15369 Off ch=14 n=g4 v=64
15369 On ch=14 n=b4 v=52
15426 On ch=14 n=d5 v=52
15436 Off ch=14 n=b4 v=64
15473 On ch=14 n=b4 v=52
15503 Off ch=14 n=d5 v=64
15537 On ch=14 n=g4 v=52
15540 Off ch=14 n=b4 v=64
15594 Off ch=14 n=g3 v=64
15601 On ch=14 n=d4 v=56
15622 Off ch=14 n=g4 v=64
15665 On ch=14 n=g3 v=70
15675 Off ch=14 n=d4 v=64
15754 On ch=14 n=d4 v=54
15759 Off ch=14 n=g3 v=64
15811 Off ch=14 n=d4 v=64
15822 On ch=14 n=f#3 v=78
15910 On ch=14 n=b3 v=60
15919 Off ch=14 n=f#3 v=64
15961 Off ch=14 n=b3 v=64
16024 On ch=14 n=e3 v=73
16025 On ch=14 n=b6 v=95
16053 Par ch=14 c=64 v=0
16120 Par ch=14 c=64 v=127
16148 On ch=14 n=b3 v=46
16209 Off ch=14 n=b3 v=64
16211 On ch=14 n=e4 v=46
16246 Off ch=14 n=e4 v=64
16262 On ch=14 n=g4 v=46
16318 Off ch=14 n=g4 v=64
16321 On ch=14 n=b4 v=46
16378 On ch=14 n=g4 v=46
16381 Off ch=14 n=b4 v=64
16419 Off ch=14 n=g4 v=64
16441 Off ch=14 n=e3 v=64
16449 On ch=14 n=e4 v=46
16458 On ch=14 n=e6 v=78
16479 Off ch=14 n=b6 v=57
16497 Off ch=14 n=e4 v=64
16513 On ch=14 n=b3 v=46
16556 Off ch=14 n=b3 v=64
16556 On ch=14 n=e3 v=46
16626 Off ch=14 n=e3 v=64
16646 On ch=14 n=b3 v=46
16697 Off ch=14 n=b3 v=64
16706 On ch=14 n=e3 v=46
16718 On ch=14 n=f#6 v=81
16733 Off ch=14 n=e6 v=64
16754 On ch=14 n=b3 v=46
16766 Off ch=14 n=e3 v=64
16808 On ch=14 n=e3 v=64
16811 Off ch=14 n=b3 v=64
16822 Par ch=14 c=64 v=0
16830 On ch=14 n=g6 v=85
16860 Off ch=14 n=f#6 v=64
16862 On ch=14 n=b3 v=46
16877 Par ch=14 c=64 v=127
16914 Off ch=14 n=b3 v=64
16920 On ch=14 n=e4 v=46
16976 Off ch=14 n=e4 v=64
16981 On ch=14 n=g4 v=46
17028 On ch=14 n=b4 v=46
17039 Off ch=14 n=g4 v=64
17079 Off ch=14 n=b4 v=64
17086 On ch=14 n=g4 v=46
17142 Off ch=14 n=g4 v=64
17142 On ch=14 n=e4 v=46
17185 On ch=14 n=b3 v=46
17201 Off ch=14 n=e4 v=64
17225 Off ch=14 n=e3 v=64
17239 On ch=14 n=e3 v=46
17248 Off ch=14 n=b3 v=64
17294 On ch=14 n=b3 v=46
17332 Off ch=14 n=e3 v=64
17346 On ch=14 n=a6 v=73
17346 On ch=14 n=e3 v=46
17361 Off ch=14 n=b3 v=64
17385 Off ch=14 n=g6 v=64
17438 On ch=14 n=b3 v=46
17454 Off ch=14 n=b3 v=64
17454 Off ch=14 n=e3 v=64
17454 On ch=14 n=b3 v=46
17466 On ch=14 n=b6 v=77
17493 Off ch=14 n=a6 v=64
17494 On ch=14 n=c#7 v=77
17498 Par ch=14 c=64 v=0
17502 Off ch=14 n=b6 v=64
17504 On ch=14 n=e3 v=64
17518 On ch=14 n=b6 v=77
17521 Off ch=14 n=b3 v=64
17546 Off ch=14 n=c#7 v=64
17555 Par ch=14 c=64 v=127
17592 On ch=14 n=a3 v=46
17646 On ch=14 n=e4 v=46
17669 Off ch=14 n=a3 v=64
17721 On ch=14 n=g4 v=46
17723 Off ch=14 n=e4 v=64
17776 On ch=14 n=a4 v=46
17778 On ch=14 n=a6 v=77
17785 Off ch=14 n=g4 v=64
17790 Off ch=14 n=b6 v=64
17846 On ch=14 n=g4 v=46
17853 Off ch=14 n=a4 v=64
17889 On ch=14 n=e4 v=46
17895 On ch=14 n=b6 v=77
17911 Off ch=14 n=a6 v=64
17913 Off ch=14 n=g4 v=64
17921 Off ch=14 n=e3 v=64
17941 On ch=14 n=a3 v=46
17958 Off ch=14 n=e4 v=64
18003 On ch=14 n=e3 v=46
18017 Off ch=14 n=a3 v=64
18073 On ch=14 n=a3 v=46
18087 Off ch=14 n=e3 v=64
18125 Off ch=14 n=a3 v=64
18131 On ch=14 n=c#7 v=77
18138 On ch=14 n=e3 v=46
18144 Off ch=14 n=b6 v=64
18202 On ch=14 n=a3 v=46
18205 Off ch=14 n=e3 v=64
18283 Off ch=14 n=a3 v=64
18294 Off ch=14 n=c#7 v=64
18305 On ch=14 n=d3 v=64
18307 On ch=14 n=c#7 v=77
18317 Par ch=14 c=64 v=0
18385 Par ch=14 c=64 v=127
18410 On ch=14 n=a3 v=46
18462 On ch=14 n=d4 v=46
18466 Off ch=14 n=a3 v=64
18502 Off ch=14 n=d4 v=64
18532 On ch=14 n=f#4 v=46
18586 On ch=14 n=a4 v=46
18590 Off ch=14 n=f#4 v=64
18646 On ch=14 n=f#4 v=46
18661 Off ch=14 n=a4 v=64
18705 On ch=14 n=d7 v=72
18709 On ch=14 n=d4 v=46
18719 Off ch=14 n=d3 v=64
18721 Off ch=14 n=f#4 v=64
18726 Off ch=14 n=c#7 v=64
18755 On ch=14 n=a3 v=46
18783 Off ch=14 n=d4 v=64
18816 Off ch=14 n=a3 v=64
18817 On ch=14 n=d3 v=46
18856 On ch=14 n=a3 v=46
18877 Off ch=14 n=d3 v=64
18916 Off ch=14 n=a3 v=64
18928 On ch=14 n=d3 v=46
18974 On ch=14 n=a3 v=46
18992 Off ch=14 n=d3 v=64
19053 Off ch=14 n=a3 v=64
19068 On ch=14 n=d3 v=56
19124 On ch=14 n=a6 v=60
19132 Off ch=14 n=d7 v=64
19140 Par ch=14 c=64 v=0
19216 Par ch=14 c=64 v=127
19239 On ch=14 n=a3 v=39
19293 On ch=14 n=d4 v=39
19303 Off ch=14 n=a3 v=64
19344 On ch=14 n=f4 v=39
19379 Off ch=14 n=d4 v=64
19389 On ch=14 n=a4 v=39
19399 Off ch=14 n=f4 v=64
19453 On ch=14 n=f4 v=39
19462 Off ch=14 n=a4 v=64
19479 Off ch=14 n=d3 v=64
19518 Off ch=14 n=f4 v=64
19539 On ch=14 n=d4 v=39
19562 On ch=14 n=d6 v=54
19576 Off ch=14 n=a6 v=64
19599 On ch=14 n=a3 v=39
19614 Off ch=14 n=d4 v=64
19657 Off ch=14 n=a3 v=64
19665 On ch=14 n=d3 v=40
19728 On ch=14 n=a3 v=40
19739 Off ch=14 n=d3 v=64
19796 Off ch=14 n=a3 v=64
19803 On ch=14 n=d3 v=40
19829 On ch=14 n=e6 v=69
19846 Off ch=14 n=d6 v=64
19876 Off ch=14 n=d3 v=64
19899 On ch=14 n=a3 v=40
19974 Off ch=14 n=a3 v=64
19985 On ch=14 n=d3 v=65
20009 On ch=14 n=f6 v=75
20025 Off ch=14 n=e6 v=64
20054 Par ch=14 c=64 v=0
20107 Par ch=14 c=64 v=127
20119 On ch=14 n=a3 v=48
20194 Off ch=14 n=a3 v=64
20204 On ch=14 n=d4 v=49
20278 On ch=14 n=f4 v=49
20297 Off ch=14 n=d4 v=64
20334 On ch=14 n=a4 v=49
20339 Off ch=14 n=f4 v=64
20397 On ch=14 n=f4 v=49
20402 Off ch=14 n=d3 v=64
20409 Off ch=14 n=a4 v=64
20455 On ch=14 n=d4 v=50
20459 Off ch=14 n=f4 v=64
20499 On ch=14 n=a3 v=50
20511 Off ch=14 n=d4 v=64
20566 Off ch=14 n=a3 v=64
20570 On ch=14 n=d3 v=50
20642 Off ch=14 n=d3 v=64
20665 On ch=14 n=a3 v=50
20700 On ch=14 n=g6 v=74
20710 Off ch=14 n=a3 v=64
20714 Off ch=14 n=f6 v=64
20720 On ch=14 n=d3 v=50
20803 Off ch=14 n=d3 v=64
20833 On ch=14 n=a3 v=50
20873 On ch=14 n=a6 v=75
20887 Off ch=14 n=g6 v=64
20904 On ch=14 n=b6 v=81
20916 Off ch=14 n=a6 v=64
20923 Off ch=14 n=a3 v=64
20923 On ch=14 n=d3 v=67
20932 Par ch=14 c=64 v=0
20942 On ch=14 n=a6 v=75
20952 Off ch=14 n=b6 v=64
20987 On ch=14 n=g3 v=51
20989 Par ch=14 c=64 v=127
21042 Off ch=14 n=g3 v=64
21054 On ch=14 n=d4 v=51
21119 On ch=14 n=f4 v=51
21129 Off ch=14 n=d4 v=64
21183 On ch=14 n=g4 v=51
21188 On ch=14 n=g6 v=79
21195 Off ch=14 n=f4 v=64
21197 Off ch=14 n=a6 v=64
21232 On ch=14 n=f4 v=51
21234 Off ch=14 n=g4 v=64
21287 Off ch=14 n=f4 v=64
21297 On ch=14 n=d4 v=51
21303 On ch=14 n=a6 v=82
21331 Off ch=14 n=g6 v=57
21334 Off ch=14 n=d3 v=64
21353 On ch=14 n=g3 v=51
21374 Off ch=14 n=d4 v=64
21420 Off ch=14 n=g3 v=64
21424 On ch=14 n=d3 v=51
21478 On ch=14 n=g3 v=51
21500 Off ch=14 n=d3 v=64
21546 Off ch=14 n=g3 v=64
21548 On ch=14 n=b6 v=86
21554 Off ch=14 n=a6 v=57
21556 On ch=14 n=d3 v=52
21608 On ch=14 n=g3 v=52
21614 Off ch=14 n=d3 v=64
21652 Off ch=14 n=b6 v=64
21666 Off ch=14 n=g3 v=64
21698 On ch=14 n=c3 v=72
21705 On ch=14 n=b6 v=93
21715 Par ch=14 c=64 v=0
21780 Par ch=14 c=64 v=127
21792 On ch=14 n=g3 v=52
21847 Off ch=14 n=g3 v=64
21853 On ch=14 n=c4 v=52
21914 On ch=14 n=e4 v=52
21918 Off ch=14 n=c4 v=64
21968 On ch=14 n=g4 v=52
21976 Off ch=14 n=e4 v=64
22021 Off ch=14 n=g4 v=64
22021 On ch=14 n=e4 v=52
22086 Off ch=14 n=e4 v=64
22089 On ch=14 n=c4 v=54
22107 On ch=14 n=c7 v=84
22112 Off ch=14 n=c3 v=64
22129 On ch=14 n=g3 v=54
22139 Off ch=14 n=b6 v=64
22154 Off ch=14 n=c4 v=64
22187 Off ch=14 n=g3 v=64
22194 On ch=14 n=c3 v=54
22255 On ch=14 n=g3 v=55
22261 Off ch=14 n=c3 v=64
22306 Off ch=14 n=g3 v=64
22316 On ch=14 n=c3 v=55
22319 On ch=14 n=b6 v=87
22340 Off ch=14 n=c7 v=64
22362 On ch=14 n=g3 v=55
22392 Off ch=14 n=c3 v=64
22434 Off ch=14 n=g3 v=64
22476 On ch=14 n=c3 v=75
22500 On ch=14 n=a#6 v=94
22506 Off ch=14 n=b6 v=64
22516 Par ch=14 c=64 v=0
22540 On ch=14 n=f#3 v=55
22543 Par ch=14 c=64 v=127
22601 Off ch=14 n=f#3 v=64
22607 On ch=14 n=c4 v=56
22674 Off ch=14 n=c4 v=64
22685 On ch=14 n=e4 v=57
22737 On ch=14 n=f#4 v=57
22744 Off ch=14 n=e4 v=64
22776 On ch=14 n=e6 v=60
22797 On ch=14 n=e4 v=48
22800 Off ch=14 n=f#4 v=64
22854 On ch=14 n=c4 v=48
22857 Off ch=14 n=e4 v=64
22887 On ch=14 n=f#6 v=61
22890 Off ch=14 n=c3 v=64
22899 On ch=14 n=f#3 v=48
22921 Off ch=14 n=e6 v=64
22931 Off ch=14 n=c4 v=64
22962 Off ch=14 n=f#3 v=64
22971 On ch=14 n=c3 v=49
23014 On ch=14 n=f#3 v=49
23036 Off ch=14 n=c3 v=64
23075 Off ch=14 n=f#3 v=64
23094 On ch=14 n=c3 v=49
23104 On ch=14 n=e6 v=66
23126 Off ch=14 n=f#6 v=64
23150 Off ch=14 n=c3 v=64
23173 On ch=14 n=f#3 v=49
23231 Off ch=14 n=f#3 v=64
23241 On ch=14 n=b2 v=75
23263 On ch=14 n=d#6 v=56
23284 Off ch=14 n=e6 v=64
23308 On ch=14 n=f#3 v=43
23369 On ch=14 n=b3 v=43
23380 Off ch=14 n=f#3 v=64
23433 On ch=14 n=d#4 v=53
23481 Off ch=14 n=b3 v=64
23509 On ch=14 n=f#4 v=53
23513 On ch=14 n=b6 v=88
23519 Off ch=14 n=a#6 v=64
23526 Off ch=14 n=d#4 v=64
23557 On ch=14 n=d#4 v=55
23589 Off ch=14 n=b6 v=64
23597 On ch=14 n=b3 v=55
23598 Off ch=14 n=f#4 v=64
23607 On ch=14 n=b6 v=93
23634 Off ch=14 n=d#4 v=64
23634 On ch=14 n=d7 v=85
23650 Off ch=14 n=b6 v=64
23651 On ch=14 n=f#3 v=55
23658 Off ch=14 n=b2 v=64
23661 On ch=14 n=c7 v=86
23679 Off ch=14 n=d7 v=64
23688 Off ch=14 n=b3 v=64
23732 On ch=14 n=b2 v=55
23735 Off ch=14 n=f#3 v=64
23793 On ch=14 n=f#3 v=56
23816 Off ch=14 n=b2 v=64
23888 Off ch=14 n=f#3 v=64
23900 Off ch=14 n=c7 v=64
23901 On ch=14 n=b2 v=56
23904 On ch=14 n=b6 v=90
23985 On ch=14 n=f#3 v=56
23993 Off ch=14 n=b2 v=64
24076 On ch=14 n=a#6 v=95
24076 On ch=14 n=c3 v=65
24088 Par ch=14 c=64 v=0
24094 Off ch=14 n=b6 v=64
24104 Off ch=14 n=f#3 v=64
24149 Par ch=14 c=64 v=127
24196 On ch=14 n=f#3 v=49
24262 Off ch=14 n=f#3 v=64
24269 On ch=14 n=c4 v=49
24325 Off ch=14 n=c4 v=64
24330 On ch=14 n=e4 v=49
24380 On ch=14 n=f#4 v=49
24391 Off ch=14 n=e4 v=64
24397 On ch=14 n=e6 v=61
24426 On ch=14 n=e4 v=49
24438 Off ch=14 n=d#6 v=64
24448 Off ch=14 n=f#4 v=64
24490 Off ch=14 n=c3 v=64
24493 Off ch=14 n=e4 v=64
24493 On ch=14 n=c4 v=50
24503 Off ch=14 n=a#6 v=64
24510 On ch=14 n=f#6 v=66
24524 On ch=14 n=f#3 v=51
24534 Off ch=14 n=e6 v=64
24560 Off ch=14 n=c4 v=64
24594 Off ch=14 n=f#3 v=64
24596 On ch=14 n=c3 v=51
24644 On ch=14 n=f#3 v=51
24663 Off ch=14 n=c3 v=64
24701 Off ch=14 n=f#3 v=64
24723 On ch=14 n=c3 v=51
24744 On ch=14 n=e6 v=68
24750 Off ch=14 n=f#6 v=64
24773 On ch=14 n=f#3 v=51
24791 Off ch=14 n=c3 v=64
24834 Off ch=14 n=f#3 v=64
24853 On ch=14 n=b2 v=89
24863 Par ch=14 c=64 v=0
24879 On ch=14 n=d#6 v=56
24903 Off ch=14 n=e6 v=64
24918 On ch=14 n=f#3 v=51
24922 Par ch=14 c=64 v=127
24978 On ch=14 n=b3 v=51
24980 Off ch=14 n=f#3 v=64
25030 On ch=14 n=d#4 v=51
25040 Off ch=14 n=b3 v=64
25097 Off ch=14 n=d#4 v=64
25099 On ch=14 n=f#4 v=53
25103 On ch=14 n=b6 v=87
25191 On ch=14 n=d#4 v=53
25195 Off ch=14 n=f#4 v=64
25229 Off ch=14 n=b6 v=64
25249 On ch=14 n=b6 v=92
25258 Off ch=14 n=d#4 v=64
25258 On ch=14 n=b3 v=53
25267 Off ch=14 n=b2 v=64
25285 On ch=14 n=d7 v=89
25303 On ch=14 n=f#3 v=53
25308 On ch=14 n=c7 v=105
25317 Off ch=14 n=b6 v=64
25322 Off ch=14 n=b3 v=64
25330 Off ch=14 n=d7 v=64
25375 On ch=14 n=b2 v=73
25378 Off ch=14 n=f#3 v=64
25459 On ch=14 n=f#3 v=54
25463 Off ch=14 n=b2 v=64
25515 Off ch=14 n=f#3 v=64
25515 On ch=14 n=b6 v=105
25519 On ch=14 n=b2 v=74
25536 Off ch=14 n=c7 v=64
25594 Off ch=14 n=b2 v=64
25604 On ch=14 n=f#3 v=55
25688 Par ch=14 c=64 v=0
25690 Off ch=14 n=f#3 v=64
25712 On ch=14 n=d#7 v=89
25715 On ch=14 n=b2 v=69
25721 Off ch=14 n=b6 v=64
25752 Par ch=14 c=64 v=127
25778 On ch=14 n=f#3 v=60
25826 Off ch=14 n=f#3 v=64
25826 On ch=14 n=b3 v=61
25878 Off ch=14 n=d#6 v=64
25890 On ch=14 n=d#4 v=63
25893 Off ch=14 n=b3 v=64
25939 Off ch=14 n=d#4 v=64
25944 On ch=14 n=f#4 v=63
26020 On ch=14 n=d#4 v=64
26043 Off ch=14 n=f#4 v=64
26084 On ch=14 n=b3 v=66
26113 Off ch=14 n=d#4 v=64
26132 Off ch=14 n=b2 v=64
26140 On ch=14 n=f#4 v=66
26194 On ch=14 n=b4 v=58
26204 Off ch=14 n=f#4 v=64
26247 Off ch=14 n=b4 v=64
26252 On ch=14 n=d#5 v=58
26302 On ch=14 n=f#5 v=59
26309 Off ch=14 n=d#5 v=64
26362 On ch=14 n=d#5 v=60
26377 Off ch=14 n=f#5 v=64
26438 On ch=14 n=b4 v=62
26448 Off ch=14 n=d#5 v=64
26498 Off ch=14 n=b3 v=64
26513 On ch=14 n=f#5 v=56
26565 On ch=14 n=b5 v=64
26591 Off ch=14 n=d#7 v=64
26594 Off ch=14 n=f#5 v=64
26617 On ch=14 n=d#6 v=77
26623 Off ch=14 n=b5 v=64
26661 On ch=14 n=f#6 v=65
26662 Off ch=14 n=d#6 v=64
26713 Off ch=14 n=f#6 v=64
26717 On ch=14 n=d#6 v=78
26769 Off ch=14 n=d#6 v=64
26785 On ch=14 n=b5 v=67
26829 On ch=14 n=f#6 v=69
26855 Off ch=14 n=b4 v=64
26877 Off ch=14 n=f#6 v=64
26885 On ch=14 n=b6 v=73
26929 On ch=14 n=d#7 v=77
26950 Off ch=14 n=b6 v=64
26989 On ch=14 n=b7 v=77
26989 On ch=14 n=f#7 v=77
26993 Off ch=14 n=d#7 v=64
27045 Off ch=14 n=f#7 v=64
27045 Off ch=14 n=b7 v=64
27049 On ch=14 n=d#8 v=75
27049 On ch=14 n=d#7 v=75
27101 On ch=14 n=b6 v=74
27105 On ch=14 n=f#7 v=74
27115 Off ch=14 n=d#7 v=64
27115 Off ch=14 n=d#8 v=64
27157 On ch=14 n=b7 v=73
27157 On ch=14 n=g#6 v=73
27176 Off ch=14 n=b6 v=64
27180 Off ch=14 n=f#7 v=64
27202 Off ch=14 n=b5 v=64
27221 On ch=14 n=d#7 v=72
27221 On ch=14 n=f#6 v=72
27231 Off ch=14 n=g#6 v=64
27231 Off ch=14 n=b7 v=64
27282 On ch=14 n=f#7 v=71
27290 On ch=14 n=d#6 v=71
27295 Off ch=14 n=f#6 v=64
27295 Off ch=14 n=d#7 v=64
27354 On ch=14 n=b6 v=70
27354 On ch=14 n=b5 v=70
27359 Off ch=14 n=f#7 v=64
27367 Off ch=14 n=d#6 v=64
27410 On ch=14 n=d#7 v=69
27418 On ch=14 n=g#5 v=69
27428 Off ch=14 n=b5 v=64
27428 Off ch=14 n=b6 v=64
27475 On ch=14 n=f#5 v=68
27479 On ch=14 n=f#6 v=68
27484 Off ch=14 n=d#7 v=64
27492 Off ch=14 n=g#5 v=64
27527 On ch=14 n=b6 v=66
27527 On ch=14 n=d#5 v=66
27546 Off ch=14 n=f#5 v=64
27556 Off ch=14 n=f#6 v=64
27583 On ch=14 n=d#6 v=66
27591 On ch=14 n=b4 v=66
27601 Off ch=14 n=d#5 v=64
27601 Off ch=14 n=b6 v=64
27628 On ch=14 n=g#4 v=65
27633 On ch=14 n=f#6 v=65
27657 Off ch=14 n=d#6 v=64
27665 Off ch=14 n=b4 v=64
27692 On ch=14 n=f#4 v=63
27700 On ch=14 n=b5 v=63
27705 Off ch=14 n=g#4 v=64
27710 Off ch=14 n=f#6 v=64
27751 On ch=14 n=d#6 v=63
27752 On ch=14 n=d#4 v=63
27769 Off ch=14 n=f#4 v=64
27777 Off ch=14 n=b5 v=64
27808 On ch=14 n=f#5 v=82
27808 On ch=14 n=b3 v=65
27828 Off ch=14 n=d#6 v=64
27829 Off ch=14 n=d#4 v=64
27856 On ch=14 n=b5 v=55
27885 Off ch=14 n=f#5 v=64
27920 On ch=14 n=d#5 v=55
27924 On ch=14 n=b2 v=68
27933 Off ch=14 n=b5 v=64
28012 On ch=14 n=d#6 v=68
28029 Off ch=14 n=d#5 v=64
28094 On ch=14 n=f#5 v=55
28108 Off ch=14 n=d#6 v=64
28160 On ch=14 n=b5 v=58
28191 Off ch=14 n=f#5 v=64
28207 Off ch=14 n=b3 v=64
28227 Off ch=14 n=b2 v=64
28246 On ch=14 n=d#5 v=60
28257 Off ch=14 n=b5 v=64
28330 On ch=14 n=d#6 v=66
28342 Off ch=14 n=d#5 v=64
28426 Off ch=14 n=d#6 v=64
28427 On ch=14 n=f#5 v=53
28533 On ch=14 n=b5 v=48
28550 Off ch=14 n=f#5 v=64
28661 On ch=14 n=d5 v=37
28670 Off ch=14 n=b5 v=64
28788 On ch=14 n=d6 v=50
28873 Off ch=14 n=d5 v=64
28929 On ch=14 n=g3 v=46
29018 On ch=14 n=b6 v=79
29033 Par ch=14 c=64 v=0
29073 Off ch=14 n=d6 v=64
29099 Par ch=14 c=64 v=127
29126 On ch=14 n=d4 v=46
29189 Off ch=14 n=d4 v=64
29197 On ch=14 n=g4 v=46
29236 Off ch=14 n=g4 v=64
29266 On ch=14 n=b4 v=46
29318 On ch=14 n=d5 v=46
29327 Off ch=14 n=b4 v=64
29346 Off ch=14 n=g3 v=64
29387 Off ch=14 n=d5 v=64
29390 On ch=14 n=b4 v=46
29456 Off ch=14 n=b4 v=64
29461 On ch=14 n=g4 v=46
29478 On ch=14 n=d6 v=66
29506 Off ch=14 n=g4 v=64
29512 On ch=14 n=d4 v=46
29565 Off ch=14 n=d4 v=64
29612 On ch=14 n=g3 v=46
29638 Off ch=14 n=b6 v=64
29652 On ch=14 n=d4 v=46
29678 Off ch=14 n=g3 v=64
29716 On ch=14 n=e6 v=68
29722 Off ch=14 n=d4 v=64
29724 On ch=14 n=g3 v=46
29763 Off ch=14 n=d6 v=64
29780 On ch=14 n=d4 v=46
29795 Off ch=14 n=g3 v=64
29819 Par ch=14 c=64 v=0
29829 On ch=14 n=f#6 v=75
29829 On ch=14 n=g3 v=46
29851 Off ch=14 n=d4 v=64
29879 On ch=14 n=d4 v=46
29885 Par ch=14 c=64 v=127
29887 Off ch=14 n=e6 v=64
29927 Off ch=14 n=d4 v=64
29933 On ch=14 n=a4 v=46
29976 Off ch=14 n=a4 v=64
29984 On ch=14 n=c5 v=46
30032 On ch=14 n=d5 v=46
30044 Off ch=14 n=c5 v=64
30104 On ch=14 n=c5 v=46
30107 Off ch=14 n=d5 v=64
30156 On ch=14 n=a4 v=46
30161 Off ch=14 n=c5 v=64
30197 On ch=14 n=d4 v=46
30223 Off ch=14 n=a4 v=64
30246 Off ch=14 n=g3 v=64
30264 On ch=14 n=g3 v=46
30271 Off ch=14 n=d4 v=64
30317 On ch=14 n=d4 v=46
30333 Off ch=14 n=g3 v=64
30364 On ch=14 n=g3 v=46
30368 On ch=14 n=g6 v=72
30371 Off ch=14 n=f#6 v=64
30388 Off ch=14 n=d4 v=64
30433 Off ch=14 n=g3 v=64
30436 On ch=14 n=d4 v=46
30468 On ch=14 n=g6 v=85
30489 Par ch=14 c=64 v=0
30507 Off ch=14 n=d4 v=64
30512 On ch=14 n=g3 v=46
30520 On ch=14 n=a6 v=77
30548 Off ch=14 n=g6 v=64
30552 On ch=14 n=d4 v=46
30552 Par ch=14 c=64 v=127
30616 On ch=14 n=f#4 v=46
30626 Off ch=14 n=d4 v=64
30648 Off ch=14 n=g6 v=64
30683 Off ch=14 n=f#4 v=64
30684 On ch=14 n=c5 v=46
30748 On ch=14 n=b6 v=84
30748 On ch=14 n=d5 v=46
30750 Off ch=14 n=c5 v=64
30769 Off ch=14 n=a6 v=64
30808 On ch=14 n=c5 v=46
30823 Off ch=14 n=d5 v=64
30868 On ch=14 n=f#4 v=46
30873 On ch=14 n=c7 v=60
30875 Off ch=14 n=c5 v=64
30900 Off ch=14 n=b6 v=64
30900 On ch=14 n=d7 v=87
30915 Off ch=14 n=c7 v=64
30924 On ch=14 n=g3 v=46
30928 On ch=14 n=d4 v=46
30929 Off ch=14 n=g3 v=64
30934 Off ch=14 n=d7 v=64
30934 On ch=14 n=c7 v=91
30935 Off ch=14 n=f#4 v=64
30969 On ch=14 n=b6 v=88
30975 Off ch=14 n=c7 v=64
30986 Off ch=14 n=g3 v=64
31000 On ch=14 n=g3 v=46
31005 Off ch=14 n=d4 v=64
31008 On ch=14 n=c7 v=85
31028 Off ch=14 n=b6 v=64
31028 On ch=14 n=d4 v=46
31058 Off ch=14 n=c7 v=64
31062 On ch=14 n=f#7 v=91
31083 Off ch=14 n=d4 v=64
31087 Off ch=14 n=g3 v=64
31112 On ch=14 n=g3 v=46
31152 On ch=14 n=d4 v=46
31190 Off ch=14 n=g3 v=64
31210 On ch=14 n=e7 v=103
31220 Off ch=14 n=f#7 v=64
31227 Off ch=14 n=d4 v=64
31236 Off ch=14 n=e7 v=64
31243 Par ch=14 c=64 v=0
31248 On ch=14 n=g3 v=46
31266 On ch=14 n=e7 v=98
31296 Par ch=14 c=64 v=127
31297 On ch=14 n=d4 v=46
31362 Off ch=14 n=d4 v=64
31369 On ch=14 n=a#4 v=46
31413 Off ch=14 n=a#4 v=64
31427 On ch=14 n=c#5 v=46
31471 Off ch=14 n=c#5 v=64
31483 On ch=14 n=e5 v=46
31524 On ch=14 n=c#5 v=46
31530 Off ch=14 n=e5 v=64
31589 Off ch=14 n=c#5 v=64
31600 On ch=14 n=a#4 v=46
31657 Off ch=14 n=a#4 v=64
31657 On ch=14 n=d4 v=46
31665 Off ch=14 n=g3 v=64
31713 On ch=14 n=g3 v=46
31724 Off ch=14 n=d4 v=64
31734 On ch=14 n=g3 v=46
31757 On ch=14 n=d4 v=46
31771 Off ch=14 n=g3 v=64
31796 Off ch=14 n=g3 v=64
31814 Off ch=14 n=d4 v=64
31821 On ch=14 n=g3 v=46
31857 On ch=14 n=d4 v=46
31895 Off ch=14 n=g3 v=64
31925 On ch=14 n=g3 v=46
31928 Par ch=14 c=64 v=0
31931 Off ch=14 n=d4 v=64
31981 On ch=14 n=c#7 v=55
31985 On ch=14 n=d4 v=46
31986 Off ch=14 n=e7 v=64
32003 Par ch=14 c=64 v=127
32013 On ch=14 n=e7 v=55
32036 Off ch=14 n=c#7 v=64
32046 On ch=14 n=d7 v=55
32049 Off ch=14 n=d4 v=64
32054 On ch=14 n=b4 v=46
32073 Off ch=14 n=e7 v=64
32082 On ch=14 n=b7 v=55
32121 Off ch=14 n=b4 v=64
32121 Off ch=14 n=d7 v=64
32122 On ch=14 n=f#7 v=55
32130 On ch=14 n=d5 v=46
32152 Off ch=14 n=b7 v=64
32154 On ch=14 n=a7 v=55
32165 Off ch=14 n=f#7 v=64
32182 On ch=14 n=g7 v=55
32197 Off ch=14 n=d5 v=64
32202 Off ch=14 n=a7 v=64
32202 On ch=14 n=g5 v=46
32226 On ch=14 n=d7 v=55
32247 Off ch=14 n=g7 v=64
32274 On ch=14 n=b6 v=55
32277 Off ch=14 n=g5 v=64
32278 On ch=14 n=d5 v=46
32288 Off ch=14 n=d7 v=64
32307 On ch=14 n=g6 v=55
32336 Off ch=14 n=b6 v=64
32336 Off ch=14 n=g3 v=64
32340 Off ch=14 n=d5 v=64
32343 On ch=14 n=d6 v=65
32343 On ch=14 n=b4 v=46
32372 Off ch=14 n=g6 v=64
32387 On ch=14 n=d4 v=46
32393 Off ch=14 n=b4 v=64
32443 Off ch=14 n=d4 v=64
32479 On ch=14 n=g3 v=46
32527 On ch=14 n=d4 v=46
32532 Off ch=14 n=g3 v=64
32587 Off ch=14 n=d4 v=64
32592 On ch=14 n=e6 v=62
32595 On ch=14 n=g3 v=46
32648 Off ch=14 n=d6 v=64
32663 On ch=14 n=d4 v=46
32681 Off ch=14 n=g3 v=64
32725 Off ch=14 n=d4 v=64
32731 Par ch=14 c=64 v=0
32737 On ch=14 n=g3 v=46
32761 On ch=14 n=f#6 v=73
32785 Off ch=14 n=e6 v=64
32796 Par ch=14 c=64 v=127
32806 On ch=14 n=d4 v=46
32858 On ch=14 n=a4 v=46
32868 Off ch=14 n=d4 v=64
32916 On ch=14 n=c5 v=46
32920 Off ch=14 n=a4 v=64
32960 On ch=14 n=d5 v=46
32970 Off ch=14 n=c5 v=64
33015 On ch=14 n=c5 v=46
33035 Off ch=14 n=d5 v=64
33064 On ch=14 n=a4 v=46
33080 Off ch=14 n=c5 v=64
33112 On ch=14 n=d4 v=46
33120 Off ch=14 n=a4 v=64
33151 Off ch=14 n=g3 v=64
33172 On ch=14 n=g3 v=46
33177 Off ch=14 n=d4 v=64
33244 On ch=14 n=d4 v=46
33254 Off ch=14 n=g3 v=64
33277 On ch=14 n=g6 v=64
33293 On ch=14 n=g3 v=46
33301 Off ch=14 n=f#6 v=64
33325 Off ch=14 n=d4 v=64
33369 On ch=14 n=d4 v=66
33378 Off ch=14 n=g3 v=64
33418 On ch=14 n=a6 v=69
33421 On ch=14 n=g3 v=46
33427 Off ch=14 n=g6 v=64
33427 Par ch=14 c=64 v=0
33434 Off ch=14 n=d4 v=64
33478 Par ch=14 c=64 v=127
33489 On ch=14 n=d4 v=46
33537 On ch=14 n=b6 v=65
33545 Off ch=14 n=a6 v=64
33547 On ch=14 n=f#4 v=46
33556 Off ch=14 n=d4 v=64
33577 On ch=14 n=g#6 v=65
33605 Off ch=14 n=b6 v=64
33614 Off ch=14 n=f#4 v=64
33622 On ch=14 n=c5 v=46
33633 On ch=14 n=a6 v=65
33653 Off ch=14 n=g#6 v=64
33683 Off ch=14 n=c5 v=64
33689 On ch=14 n=d#6 v=55
33705 On ch=14 n=d5 v=46
33709 Off ch=14 n=a6 v=64
33737 On ch=14 n=d6 v=65
33759 Off ch=14 n=d#6 v=64
33776 On ch=14 n=c5 v=46
33780 Off ch=14 n=d5 v=64
33790 On ch=14 n=a6 v=65
33816 Off ch=14 n=c5 v=64
33822 Off ch=14 n=d6 v=64
33824 On ch=14 n=a4 v=46
33835 Off ch=14 n=g3 v=64
33859 Off ch=14 n=a6 v=64
33861 On ch=14 n=c7 v=85
33882 On ch=14 n=d4 v=46
33891 Off ch=14 n=a4 v=64
33954 On ch=14 n=g3 v=46
33955 Off ch=14 n=d4 v=64
33965 Off ch=14 n=c7 v=64
33997 On ch=14 n=c7 v=79
34028 Off ch=14 n=g3 v=64
34030 On ch=14 n=d4 v=46
34089 Off ch=14 n=d4 v=64
34142 On ch=14 n=g3 v=46
34201 On ch=14 n=d4 v=46
34225 Off ch=14 n=g3 v=64
34262 On ch=14 n=b6 v=74
34266 Off ch=14 n=d4 v=64
34282 Off ch=14 n=c7 v=64
34375 On ch=14 n=g3 v=46
34395 Par ch=14 c=64 v=0
34438 Off ch=14 n=b6 v=64
34448 On ch=14 n=b6 v=68
34450 On ch=14 n=d4 v=46
34455 Par ch=14 c=64 v=127
34490 On ch=14 n=g6 v=62
34496 Off ch=14 n=d4 v=64
34503 Off ch=14 n=b6 v=64
34518 On ch=14 n=g4 v=46
34574 Off ch=14 n=g4 v=64
34577 On ch=14 n=b4 v=46
34634 On ch=14 n=d5 v=46
34637 Off ch=14 n=b4 v=64
34683 On ch=14 n=b4 v=46
34709 Off ch=14 n=d5 v=64
34739 Off ch=14 n=b4 v=64
34749 On ch=14 n=g4 v=46
34781 On ch=14 n=d4 v=46
34789 Off ch=14 n=g3 v=64
34804 Off ch=14 n=g4 v=64
34851 Off ch=14 n=d4 v=64
34851 On ch=14 n=g3 v=46
34911 On ch=14 n=d4 v=46
34926 Off ch=14 n=g3 v=64
34970 Off ch=14 n=d4 v=64
34993 On ch=14 n=g3 v=46
35051 On ch=14 n=d4 v=46
35061 Off ch=14 n=g3 v=64
35137 Off ch=14 n=d4 v=64
35144 Off ch=14 n=g6 v=64
35154 On ch=14 n=g3 v=46
35162 On ch=14 n=b6 v=85
35176 Par ch=14 c=64 v=0
35234 Par ch=14 c=64 v=127
35235 On ch=14 n=d4 v=46
35302 Off ch=14 n=d4 v=64
35303 On ch=14 n=g4 v=46
35370 Off ch=14 n=g4 v=64
35380 On ch=14 n=b4 v=46
35439 Off ch=14 n=b4 v=64
35443 On ch=14 n=d5 v=46
35505 Off ch=14 n=d5 v=64
35507 On ch=14 n=b4 v=46
35571 Off ch=14 n=g3 v=64
35572 Off ch=14 n=b4 v=64
35579 On ch=14 n=g4 v=46
35583 On ch=14 n=d6 v=68
35627 Off ch=14 n=b6 v=64
35631 On ch=14 n=d4 v=46
35641 Off ch=14 n=g4 v=64
35705 Off ch=14 n=d4 v=64
35740 On ch=14 n=c6 v=61
35744 On ch=14 n=g3 v=46
35792 On ch=14 n=b5 v=64
35792 On ch=14 n=d4 v=46
35816 Off ch=14 n=c6 v=64
35839 Off ch=14 n=g3 v=64
35860 On ch=14 n=e6 v=57
35860 On ch=14 n=a5 v=62
35864 On ch=14 n=g3 v=46
35868 Off ch=14 n=b5 v=64
35869 Off ch=14 n=d4 v=64
35916 Off ch=14 n=d6 v=64
35928 On ch=14 n=g5 v=52
35932 On ch=14 n=d4 v=46
35936 Off ch=14 n=a5 v=64
35951 Off ch=14 n=g3 v=64
36009 Off ch=14 n=d4 v=64
36026 On ch=14 n=f#6 v=74
36028 On ch=14 n=f#5 v=54
36040 Off ch=14 n=g5 v=64
36044 On ch=14 n=g3 v=46
36050 Off ch=14 n=e6 v=64
36053 Par ch=14 c=64 v=0
36104 Par ch=14 c=64 v=127
36114 On ch=14 n=d4 v=46
36164 On ch=14 n=a4 v=46
36181 Off ch=14 n=d4 v=64
36231 Off ch=14 n=a4 v=64
36232 On ch=14 n=c5 v=46
36277 On ch=14 n=d5 v=46
36286 Off ch=14 n=c5 v=64
36332 On ch=14 n=c5 v=46
36340 Off ch=14 n=d5 v=64
36384 On ch=14 n=a4 v=46
36389 Off ch=14 n=c5 v=64
36437 On ch=14 n=d4 v=46
36444 Off ch=14 n=a4 v=64
36461 Off ch=14 n=g3 v=64
36486 Off ch=14 n=d4 v=64
36501 On ch=14 n=g3 v=46
36521 On ch=14 n=e6 v=60
36572 Off ch=14 n=g3 v=64
36572 On ch=14 n=d4 v=46
36582 On ch=14 n=d6 v=62
36597 Off ch=14 n=e6 v=64
36615 Off ch=14 n=d4 v=64
36635 On ch=14 n=g3 v=46
36637 On ch=14 n=g6 v=79
36638 On ch=14 n=c6 v=66
36654 Off ch=14 n=d6 v=64
36679 Off ch=14 n=f#6 v=64
36681 Off ch=14 n=f#5 v=64
36702 Off ch=14 n=g3 v=64
36705 On ch=14 n=b5 v=69
36714 Off ch=14 n=c6 v=64
36717 On ch=14 n=d4 v=46
36763 Off ch=14 n=d4 v=64
36782 On ch=14 n=a5 v=56
36787 On ch=14 n=a6 v=81
36789 Off ch=14 n=b5 v=64
36790 On ch=14 n=g3 v=46
36798 Par ch=14 c=64 v=0
36827 Off ch=14 n=g6 v=64
36827 Par ch=14 c=64 v=127
36849 On ch=14 n=d4 v=46
36905 On ch=14 n=f#4 v=46
36906 Off ch=14 n=d4 v=64
36962 Off ch=14 n=f#4 v=64
36973 On ch=14 n=c5 v=46
37022 Off ch=14 n=a5 v=64
37027 Off ch=14 n=c5 v=64
37037 On ch=14 n=b6 v=76
37037 On ch=14 n=d5 v=46
37082 Off ch=14 n=a6 v=64
37094 Off ch=14 n=d5 v=64
37121 On ch=14 n=c5 v=46
37169 On ch=14 n=f#4 v=46
37177 On ch=14 n=c7 v=82
37178 Off ch=14 n=c5 v=64
37197 Off ch=14 n=b6 v=64
37207 Off ch=14 n=g3 v=64
37244 Off ch=14 n=f#4 v=64
37245 On ch=14 n=d4 v=46
37305 On ch=14 n=g3 v=46
37306 Off ch=14 n=d4 v=64
37317 On ch=14 n=a6 v=51
37357 On ch=14 n=g6 v=61
37369 On ch=14 n=d4 v=46
37380 Off ch=14 n=g3 v=64
37390 Off ch=14 n=a6 v=64
37413 Off ch=14 n=c7 v=64
37414 On ch=14 n=d7 v=79
37414 On ch=14 n=f#6 v=73
37422 On ch=14 n=g3 v=46
37433 Off ch=14 n=d4 v=64
37436 Off ch=14 n=g6 v=64
37474 On ch=14 n=e6 v=57
37476 On ch=14 n=e7 v=85
37510 On ch=14 n=d4 v=46
37519 Off ch=14 n=g3 v=64
37524 Off ch=14 n=f#6 v=64
37524 Off ch=14 n=d7 v=64
37572 Off ch=14 n=d4 v=64
37586 On ch=14 n=c#6 v=64
37586 On ch=14 n=g3 v=46
37601 Off ch=14 n=e6 v=64
37625 On ch=14 n=g6 v=62
37635 Par ch=14 c=64 v=0
37659 Off ch=14 n=e7 v=64
37665 On ch=14 n=e7 v=89
37665 Par ch=14 c=64 v=127
37690 Off ch=14 n=c#6 v=64
37718 On ch=14 n=d4 v=46
37763 On ch=14 n=a#4 v=46
37779 Off ch=14 n=g6 v=64
37783 Off ch=14 n=d4 v=64
37828 Off ch=14 n=a#4 v=64
37830 On ch=14 n=c#5 v=46
37881 On ch=14 n=e5 v=46
37897 Off ch=14 n=c#5 v=64
37954 On ch=14 n=c#5 v=46
37956 Off ch=14 n=e5 v=64
37998 On ch=14 n=a#4 v=46
38003 Off ch=14 n=g3 v=64
38021 Off ch=14 n=c#5 v=64
38050 On ch=14 n=d4 v=46
38054 Off ch=14 n=a#4 v=64
38105 Off ch=14 n=d4 v=64
38106 On ch=14 n=g3 v=46
38150 On ch=14 n=d4 v=46
38192 Off ch=14 n=g3 v=64
38201 Off ch=14 n=d4 v=64
38230 On ch=14 n=g3 v=46
38282 On ch=14 n=d4 v=46
38314 Par ch=14 c=64 v=0
38316 Off ch=14 n=g3 v=64
38338 Off ch=14 n=d4 v=64
38338 On ch=14 n=g3 v=46
38406 Par ch=14 c=64 v=127
38466 On ch=14 n=d6 v=46
38486 Off ch=14 n=e7 v=64
38496 Off ch=14 n=d6 v=64
38499 On ch=14 n=g6 v=46
38531 On ch=14 n=e7 v=47
38532 Off ch=14 n=g6 v=64
38547 On ch=14 n=d4 v=46
38563 On ch=14 n=c#7 v=48
38564 Off ch=14 n=e7 v=64
38596 Off ch=14 n=c#7 v=64
38603 On ch=14 n=d7 v=48
38606 Off ch=14 n=d4 v=64
38635 On ch=14 n=b7 v=49
38636 Off ch=14 n=d7 v=64
38639 On ch=14 n=b4 v=46
38667 On ch=14 n=f#7 v=50
38668 Off ch=14 n=b7 v=64
38691 On ch=14 n=a7 v=50
38694 Off ch=14 n=b4 v=64
38700 Off ch=14 n=f#7 v=64
38715 On ch=14 n=d5 v=46
38723 On ch=14 n=g7 v=51
38724 Off ch=14 n=a7 v=64
38743 On ch=14 n=d#7 v=51
38752 Off ch=14 n=g3 v=64
38756 Off ch=14 n=g7 v=64
38767 On ch=14 n=f#7 v=51
38771 Off ch=14 n=d5 v=64
38776 Off ch=14 n=d#7 v=64
38779 On ch=14 n=g5 v=46
38799 On ch=14 n=e7 v=52
38800 Off ch=14 n=f#7 v=64
38823 On ch=14 n=d7 v=53
38832 Off ch=14 n=e7 v=64
38851 On ch=14 n=d5 v=46
38854 Off ch=14 n=g5 v=64
38856 Off ch=14 n=d7 v=64
38863 On ch=14 n=b6 v=54
38896 Off ch=14 n=b6 v=64
38918 Off ch=14 n=d5 v=64
38919 On ch=14 n=g6 v=54
38947 On ch=14 n=d6 v=65
38947 On ch=14 n=b4 v=46
38952 Off ch=14 n=g6 v=64
39014 Off ch=14 n=b4 v=64
39031 On ch=14 n=d4 v=46
39098 Off ch=14 n=d4 v=64
39131 On ch=14 n=g3 v=46
39147 On ch=14 n=c6 v=62
39211 On ch=14 n=d4 v=46
39214 On ch=14 n=b5 v=69
39220 Off ch=14 n=g3 v=64
39223 Off ch=14 n=c6 v=64
39278 Off ch=14 n=d4 v=64
39283 On ch=14 n=g3 v=46
39287 On ch=14 n=a5 v=37
39298 Off ch=14 n=b5 v=64
39351 On ch=14 n=e6 v=69
39355 On ch=14 n=g5 v=31
39367 On ch=14 n=d4 v=46
39371 Off ch=14 n=a5 v=64
39382 Off ch=14 n=d6 v=64
39397 Off ch=14 n=g3 v=64
39434 Off ch=14 n=d4 v=64
39452 Par ch=14 c=64 v=0
39467 On ch=14 n=g3 v=46
39485 On ch=14 n=f#6 v=73
39487 On ch=14 n=f#5 v=37
39488 Par ch=14 c=64 v=127
39500 Off ch=14 n=g5 v=64
39536 Off ch=14 n=e6 v=64
39579 On ch=14 n=d4 v=46
39635 On ch=14 n=a4 v=46
39637 Off ch=14 n=d4 v=64
39691 On ch=14 n=c5 v=46
39701 Off ch=14 n=a4 v=64
39739 On ch=14 n=d5 v=46
39749 Off ch=14 n=c5 v=64
39808 On ch=14 n=c5 v=46
39811 Off ch=14 n=d5 v=64
39814 Off ch=14 n=f#5 v=64
39848 On ch=14 n=a4 v=46
39864 Off ch=14 n=c5 v=64
39880 On ch=14 n=d4 v=46
39881 Off ch=14 n=g3 v=64
39904 Off ch=14 n=a4 v=64
39929 On ch=14 n=g3 v=46
39934 On ch=14 n=e6 v=62
39948 Off ch=14 n=d4 v=64
39983 On ch=14 n=d4 v=46
39993 On ch=14 n=d6 v=63
40005 Off ch=14 n=g3 v=64
40011 Off ch=14 n=e6 v=64
40059 On ch=14 n=c6 v=63
40066 Off ch=14 n=d4 v=64
40070 Off ch=14 n=d6 v=64
40088 On ch=14 n=g3 v=46
40116 On ch=14 n=g6 v=63
40116 On ch=14 n=b5 v=69
40136 Off ch=14 n=c6 v=64
40140 On ch=14 n=d4 v=46
40166 Off ch=14 n=f#6 v=64
40173 Off ch=14 n=g3 v=64
40208 On ch=14 n=a6 v=71
40208 On ch=14 n=a5 v=37
40212 On ch=14 n=g3 v=46
40224 Off ch=14 n=g6 v=64
40225 Off ch=14 n=d4 v=64
40226 Off ch=14 n=b5 v=64
40292 On ch=14 n=d4 v=46
40349 Off ch=14 n=d4 v=64
40360 On ch=14 n=f#4 v=46
40374 On ch=14 n=g6 v=58
40417 Off ch=14 n=f#4 v=64
40424 On ch=14 n=c5 v=46
40428 On ch=14 n=f#6 v=68
40451 Off ch=14 n=g6 v=64
40491 Off ch=14 n=c5 v=64
40498 Off ch=14 n=a5 v=64
40504 On ch=14 n=f6 v=68
40508 On ch=14 n=d5 v=46
40512 Off ch=14 n=f#6 v=64
40564 On ch=14 n=b6 v=66
40568 On ch=14 n=e6 v=69
40568 On ch=14 n=c5 v=46
40583 Off ch=14 n=d5 v=64
40588 Off ch=14 n=f6 v=64
40607 Off ch=14 n=a6 v=64
40629 Off ch=14 n=g3 v=64
40636 On ch=14 n=d#6 v=69
40639 On ch=14 n=c7 v=77
40640 Off ch=14 n=c5 v=64
40640 On ch=14 n=f#4 v=46
40645 Off ch=14 n=e6 v=64
40653 Off ch=14 n=b6 v=64
40712 On ch=14 n=d4 v=46
40715 Off ch=14 n=f#4 v=64
40767 Off ch=14 n=d4 v=64
40768 On ch=14 n=g3 v=39
40772 On ch=14 n=b6 v=49
40824 Off ch=14 n=d#6 v=64
40856 On ch=14 n=a#6 v=44
40856 On ch=14 n=d4 v=39
40873 Off ch=14 n=g3 v=64
40877 Off ch=14 n=b6 v=64
40921 Off ch=14 n=d4 v=64
40924 On ch=14 n=a6 v=44
40924 On ch=14 n=g3 v=39
40940 Off ch=14 n=a#6 v=64
40996 On ch=14 n=d7 v=70
41000 On ch=14 n=g6 v=57
41000 On ch=14 n=d4 v=39
41008 Off ch=14 n=a6 v=64
41018 Off ch=14 n=c7 v=64
41026 Off ch=14 n=g3 v=64
41062 Off ch=14 n=d4 v=64
41068 On ch=14 n=d#7 v=86
41071 On ch=14 n=f#6 v=54
41081 On ch=14 n=g3 v=39
41089 Off ch=14 n=d7 v=64
41093 Off ch=14 n=g6 v=64
41164 Off ch=14 n=d#7 v=64
41167 Off ch=14 n=f#6 v=64
41189 On ch=14 n=c8 v=79
41189 On ch=14 n=d#7 v=79
41189 On ch=14 n=d4 v=39
41241 Off ch=14 n=d#7 v=64
41241 Off ch=14 n=c8 v=64
41265 On ch=14 n=a4 v=39
41267 On ch=14 n=b7 v=54
41267 On ch=14 n=d7 v=62
41308 Off ch=14 n=d4 v=64
41319 Off ch=14 n=d7 v=64
41319 Off ch=14 n=b7 v=64
41353 On ch=14 n=g#7 v=76
41353 On ch=14 n=c5 v=39
41354 On ch=14 n=b6 v=68
41364 Off ch=14 n=a4 v=64
41405 Off ch=14 n=g#7 v=64
41406 Off ch=14 n=b6 v=64
41429 On ch=14 n=a7 v=67
41429 On ch=14 n=d5 v=39
41431 On ch=14 n=c7 v=62
41450 Off ch=14 n=c5 v=64
41481 Off ch=14 n=a7 v=64
41483 Off ch=14 n=c7 v=64
41503 On ch=14 n=a6 v=64
41503 On ch=14 n=c5 v=39
41504 On ch=14 n=f#7 v=76
41514 Off ch=14 n=d5 v=64
41552 Off ch=14 n=a6 v=64
41553 Off ch=14 n=f#7 v=64
41580 Off ch=14 n=g3 v=64
41580 On ch=14 n=f#6 v=53
41582 On ch=14 n=d#7 v=62
41584 On ch=14 n=b4 v=39
41600 Off ch=14 n=c5 v=64
41632 Off ch=14 n=f#6 v=64
41634 Off ch=14 n=d#7 v=64
41660 On ch=14 n=d4 v=39
41662 On ch=14 n=c7 v=62
41662 On ch=14 n=d#6 v=57
41679 Off ch=14 n=b4 v=64
41714 Off ch=14 n=d#6 v=64
41714 Off ch=14 n=c7 v=64
41742 On ch=14 n=g3 v=39
41756 On ch=14 n=b6 v=58
41756 On ch=14 n=d6 v=49
41808 Off ch=14 n=d6 v=64
41808 Off ch=14 n=b6 v=64
41825 Off ch=14 n=d4 v=64
41850 On ch=14 n=b5 v=50
41850 On ch=14 n=d4 v=39
41853 On ch=14 n=g#6 v=64
41902 Off ch=14 n=b5 v=64
41905 Off ch=14 n=g#6 v=64
41907 Off ch=14 n=g3 v=64
41948 On ch=14 n=g3 v=39
41950 On ch=14 n=a6 v=52
41950 On ch=14 n=c6 v=40
42002 Off ch=14 n=c6 v=64
42002 Off ch=14 n=a6 v=64
42012 Off ch=14 n=d4 v=64
42073 On ch=14 n=d4 v=39
42075 On ch=14 n=c6 v=48
42076 On ch=14 n=d6 v=48
42110 Off ch=14 n=g3 v=64
42219 Par ch=14 c=64 v=0
42247 On ch=14 n=b5 v=42
42248 On ch=14 n=g6 v=45
42259 On ch=14 n=g3 v=39
42267 Off ch=14 n=c6 v=64
42268 Off ch=14 n=d6 v=64
42272 Off ch=14 n=d4 v=64
42275 Par ch=14 c=64 v=127
42337 Off ch=14 n=b5 v=64
42338 Off ch=14 n=g6 v=64
42499 On ch=14 n=d4 v=46
42520 On ch=14 n=e8 v=56
42611 On ch=14 n=g4 v=46
42613 On ch=14 n=d8 v=56
42628 Off ch=14 n=e8 v=64
42634 Off ch=14 n=d4 v=64
42676 Off ch=14 n=g3 v=64
42691 On ch=14 n=b4 v=46
42695 On ch=14 n=b7 v=56
42705 Off ch=14 n=g4 v=64
42707 Off ch=14 n=d8 v=64
42768 On ch=14 n=c8 v=56
42768 On ch=14 n=d5 v=46
42771 Off ch=14 n=b4 v=64
42789 Off ch=14 n=b7 v=64
42840 On ch=14 n=b7 v=56
42840 On ch=14 n=b4 v=46
42843 Off ch=14 n=c8 v=64
42855 Off ch=14 n=d5 v=64
42899 On ch=14 n=g7 v=56
42900 On ch=14 n=g4 v=46
42917 Off ch=14 n=b4 v=64
42937 Off ch=14 n=b7 v=64
42957 On ch=14 n=a7 v=56
42960 On ch=14 n=d4 v=46
42977 Off ch=14 n=g4 v=64
42986 Off ch=14 n=g7 v=64
43012 On ch=14 n=g3 v=46
43014 On ch=14 n=g7 v=56
43022 Off ch=14 n=d4 v=64
43044 Off ch=14 n=a7 v=64
43064 On ch=14 n=d4 v=46
43080 On ch=14 n=e7 v=56
43098 Off ch=14 n=g3 v=64
43101 Off ch=14 n=g7 v=64
43124 On ch=14 n=g3 v=46
43131 On ch=14 n=f#7 v=56
43140 Off ch=14 n=d4 v=64
43167 Off ch=14 n=e7 v=64
43192 On ch=14 n=d4 v=46
43196 On ch=14 n=e7 v=56
43211 Off ch=14 n=g3 v=64
43218 Off ch=14 n=f#7 v=64
43260 On ch=14 n=g3 v=46
43267 On ch=14 n=d7 v=56
43269 Off ch=14 n=d4 v=64
43283 Off ch=14 n=e7 v=64
43332 On ch=14 n=e7 v=56
43332 On ch=14 n=d4 v=46
43344 Off ch=14 n=d7 v=64
43386 On ch=14 n=d7 v=56
43392 On ch=14 n=g4 v=46
43399 Off ch=14 n=d4 v=64
43405 Off ch=14 n=e7 v=64
43441 On ch=14 n=b6 v=56
43444 On ch=14 n=b4 v=46
43456 Off ch=14 n=d7 v=64
43459 Off ch=14 n=g4 v=64
43498 On ch=14 n=c7 v=56
43500 On ch=14 n=d5 v=46
43502 Off ch=14 n=b6 v=64
43505 Off ch=14 n=b4 v=64
43544 On ch=14 n=b6 v=56
43544 On ch=14 n=b4 v=46
43573 Off ch=14 n=d5 v=64
43585 Off ch=14 n=c7 v=64
43588 On ch=14 n=g4 v=46
43590 On ch=14 n=g6 v=56
43610 Off ch=14 n=b6 v=64
43611 Off ch=14 n=b4 v=64
43639 Off ch=14 n=g6 v=64
43644 On ch=14 n=a6 v=56
43648 On ch=14 n=d4 v=46
43655 Off ch=14 n=g4 v=64
43677 Off ch=14 n=g3 v=64
43688 On ch=14 n=g3 v=46
43690 On ch=14 n=g6 v=56
43706 Off ch=14 n=a6 v=64
43715 Off ch=14 n=d4 v=64
43740 On ch=14 n=e6 v=56
43740 On ch=14 n=d4 v=46
43757 Off ch=14 n=g6 v=64
43775 Off ch=14 n=g3 v=64
43800 On ch=14 n=f#6 v=56
43800 On ch=14 n=g3 v=46
43816 Off ch=14 n=d4 v=64
43817 Off ch=14 n=e6 v=64
43852 On ch=14 n=d4 v=46
43856 On ch=14 n=e6 v=56
43877 Off ch=14 n=f#6 v=64
43887 Off ch=14 n=g3 v=64
43910 On ch=14 n=d6 v=56
43910 On ch=14 n=g3 v=46
43918 Par ch=14 c=64 v=0
43928 Off ch=14 n=d4 v=64
43931 Off ch=14 n=e6 v=64
43961 On ch=14 n=e6 v=56
43961 On ch=14 n=d4 v=46
43984 Par ch=14 c=64 v=127
43989 Off ch=14 n=g3 v=64
43989 Off ch=14 n=d6 v=64
43989 On ch=14 n=g3 v=46
43993 Off ch=14 n=d4 v=64
44003 On ch=14 n=f#4 v=46
44006 On ch=14 n=d6 v=69
44010 Off ch=14 n=e6 v=64
44071 On ch=14 n=c5 v=46
44075 Off ch=14 n=d6 v=64
44075 On ch=14 n=a5 v=56
44080 Off ch=14 n=f#4 v=64
44123 On ch=14 n=d5 v=46
44127 On ch=14 n=f#6 v=56
44138 Off ch=14 n=c5 v=64
44173 Off ch=14 n=a5 v=64
44181 On ch=14 n=e6 v=56
44181 On ch=14 n=c5 v=46
44208 Off ch=14 n=f#6 v=64
44210 Off ch=14 n=d5 v=64
44247 On ch=14 n=f#4 v=46
44248 On ch=14 n=d6 v=56
44250 Off ch=14 n=e6 v=64
44259 Off ch=14 n=c5 v=64
44264 Off ch=14 n=g3 v=64
44293 On ch=14 n=e6 v=56
44297 On ch=14 n=d4 v=46
44322 Off ch=14 n=d6 v=64
44324 Off ch=14 n=f#4 v=64
44351 On ch=14 n=g3 v=46
44356 On ch=14 n=d6 v=56
44363 Off ch=14 n=e6 v=64
44374 Off ch=14 n=d4 v=64
44415 On ch=14 n=d4 v=46
44417 On ch=14 n=a5 v=56
44421 Off ch=14 n=d6 v=64
44428 Off ch=14 n=g3 v=64
44471 On ch=14 n=g3 v=46
44475 On ch=14 n=f#6 v=56
44524 Off ch=14 n=a5 v=64
44531 Off ch=14 n=d4 v=64
44539 On ch=14 n=e6 v=56
44543 On ch=14 n=d4 v=46
44551 Off ch=14 n=f#6 v=64
44557 Off ch=14 n=g3 v=64
44583 On ch=14 n=d6 v=56
44583 On ch=14 n=g3 v=46
44606 Off ch=14 n=e6 v=64
44630 Off ch=14 n=d4 v=64
44630 Par ch=14 c=64 v=0
44633 On ch=14 n=e6 v=56
44637 On ch=14 n=d4 v=46
44655 Off ch=14 n=d6 v=64
44681 Par ch=14 c=64 v=127
44695 On ch=14 n=a4 v=46
44697 On ch=14 n=d6 v=69
44702 Off ch=14 n=d4 v=64
44703 Off ch=14 n=e6 v=64
44759 On ch=14 n=c5 v=46
44762 Off ch=14 n=a4 v=64
44762 On ch=14 n=b5 v=56
44766 Off ch=14 n=d6 v=64
44807 On ch=14 n=d5 v=46
44811 On ch=14 n=f#6 v=56
44826 Off ch=14 n=c5 v=64
44861 Off ch=14 n=b5 v=64
44867 On ch=14 n=c5 v=46
44870 On ch=14 n=e6 v=56
44882 Off ch=14 n=d5 v=64
44892 Off ch=14 n=f#6 v=64
44931 On ch=14 n=d6 v=56
44934 Off ch=14 n=c5 v=64
44935 On ch=14 n=a4 v=46
44950 Off ch=14 n=e6 v=64
44985 On ch=14 n=e6 v=56
44985 On ch=14 n=d4 v=46
45000 Off ch=14 n=g3 v=64
45002 Off ch=14 n=a4 v=64
45003 Off ch=14 n=d6 v=64
45043 On ch=14 n=d6 v=69
45047 On ch=14 n=g3 v=46
45055 Off ch=14 n=e6 v=64
45062 Off ch=14 n=d4 v=64
45103 On ch=14 n=d4 v=46
45105 On ch=14 n=f#5 v=56
45116 Off ch=14 n=d6 v=64
45134 Off ch=14 n=g3 v=64
45170 Off ch=14 n=d4 v=64
45171 On ch=14 n=g3 v=46
45178 On ch=14 n=f#6 v=56
45249 On ch=14 n=e6 v=56
45251 On ch=14 n=d4 v=46
45255 Off ch=14 n=f#5 v=64
45257 Off ch=14 n=g3 v=64
45267 Off ch=14 n=f#6 v=64
45329 Off ch=14 n=d4 v=64
45337 Par ch=14 c=64 v=0
45371 On ch=14 n=d6 v=56
45371 On ch=14 n=g5 v=56
45373 On ch=14 n=g3 v=46
45383 Off ch=14 n=e6 v=64
45401 Par ch=14 c=64 v=127
45524 On ch=14 n=e8 v=48
45524 On ch=14 n=d4 v=35
45558 Off ch=14 n=g5 v=64
45558 Off ch=14 n=d6 v=64
45580 On ch=14 n=g4 v=35
45583 On ch=14 n=d8 v=48
45590 Off ch=14 n=d4 v=64
45606 Off ch=14 n=e8 v=64
45628 On ch=14 n=b4 v=35
45638 On ch=14 n=b7 v=48
45647 Off ch=14 n=g4 v=64
45657 Off ch=14 n=d8 v=64
45689 On ch=14 n=c8 v=48
45689 On ch=14 n=d5 v=35
45692 Off ch=14 n=b4 v=64
45712 Off ch=14 n=b7 v=64
45745 On ch=14 n=b7 v=48
45745 On ch=14 n=b4 v=35
45776 Off ch=14 n=c8 v=64
45777 Off ch=14 n=d5 v=64
45784 Off ch=14 n=g3 v=64
45809 On ch=14 n=g7 v=48
45812 Off ch=14 n=b4 v=64
45813 On ch=14 n=g4 v=33
45832 Off ch=14 n=b7 v=64
45865 On ch=14 n=d4 v=35
45872 On ch=14 n=a7 v=48
45886 Off ch=14 n=g7 v=64
45888 Off ch=14 n=g4 v=64
45925 On ch=14 n=g7 v=48
45925 On ch=14 n=g3 v=33
45932 Off ch=14 n=d4 v=64
45949 Off ch=14 n=a7 v=64
45969 On ch=14 n=e7 v=48
45973 On ch=14 n=d4 v=35
45981 Off ch=14 n=g7 v=64
46002 Off ch=14 n=g3 v=64
46021 On ch=14 n=f#7 v=48
46025 On ch=14 n=g3 v=33
46040 Off ch=14 n=d4 v=64
46046 Off ch=14 n=e7 v=64
46077 On ch=14 n=e7 v=48
46077 On ch=14 n=d4 v=33
46098 Off ch=14 n=f#7 v=64
46100 Off ch=14 n=g3 v=64
46110 Par ch=14 c=64 v=0
46149 Off ch=14 n=d4 v=64
46152 On ch=14 n=d7 v=48
46152 On ch=14 n=g3 v=35
46161 Off ch=14 n=e7 v=64
46170 Par ch=14 c=64 v=127
46198 On ch=14 n=d4 v=35
46206 On ch=14 n=e7 v=48
46239 Off ch=14 n=d7 v=64
46265 Off ch=14 n=d4 v=64
46266 On ch=14 n=d7 v=48
46270 On ch=14 n=g4 v=35
46280 Off ch=14 n=e7 v=64
46324 On ch=14 n=b6 v=48
46327 On ch=14 n=b4 v=35
46334 Off ch=14 n=g4 v=64
46340 Off ch=14 n=d7 v=64
46383 On ch=14 n=c7 v=48
46387 On ch=14 n=d5 v=35
46397 Off ch=14 n=b4 v=64
46401 Off ch=14 n=b6 v=64
46443 On ch=14 n=b4 v=35
46444 On ch=14 n=b6 v=48
46451 Off ch=14 n=c7 v=64
46474 Off ch=14 n=d5 v=64
46474 Off ch=14 n=g3 v=64
46484 On ch=14 n=g4 v=35
46487 On ch=14 n=g6 v=48
46496 Off ch=14 n=b6 v=64
46517 Off ch=14 n=b4 v=64
46542 On ch=14 n=a6 v=48
46542 On ch=14 n=d4 v=35
46571 Off ch=14 n=g4 v=64
46574 Off ch=14 n=g6 v=64
46609 Off ch=14 n=d4 v=64
46617 On ch=14 n=g6 v=48
46620 On ch=14 n=g3 v=35
46629 Off ch=14 n=a6 v=64
46680 On ch=14 n=d4 v=35
46684 On ch=14 n=e6 v=48
46704 Off ch=14 n=g6 v=64
46707 Off ch=14 n=g3 v=64
46728 On ch=14 n=g3 v=35
46729 On ch=14 n=f#6 v=48
46753 Off ch=14 n=e6 v=64
46757 Off ch=14 n=d4 v=64
46784 On ch=14 n=e6 v=48
46788 On ch=14 n=d4 v=35
46805 Off ch=14 n=g3 v=64
46816 Off ch=14 n=f#6 v=64
46824 On ch=14 n=d4 v=35
46825 Off ch=14 n=d4 v=64
46830 On ch=14 n=g3 v=35
46832 On ch=14 n=d6 v=48
46842 Off ch=14 n=d4 v=64
46853 Off ch=14 n=e6 v=64
46867 Par ch=14 c=64 v=127
46894 On ch=14 n=e6 v=48
46894 On ch=14 n=d4 v=35
46919 Off ch=14 n=d6 v=64
46949 Off ch=14 n=d4 v=64
46956 On ch=14 n=d6 v=48
46956 On ch=14 n=f#4 v=35
46967 Off ch=14 n=e6 v=64
47010 Off ch=14 n=f#4 v=64
47012 On ch=14 n=a5 v=46
47012 On ch=14 n=c5 v=35
47019 Off ch=14 n=d6 v=64
47060 On ch=14 n=d5 v=35
47062 On ch=14 n=f#6 v=48
47088 Off ch=14 n=c5 v=64
47120 On ch=14 n=c5 v=35
47124 On ch=14 n=e6 v=48
47135 Off ch=14 n=d5 v=64
47161 Off ch=14 n=f#6 v=64
47172 On ch=14 n=f#4 v=35
47175 On ch=14 n=d6 v=48
47196 Off ch=14 n=e6 v=64
47199 Off ch=14 n=c5 v=64
47228 On ch=14 n=d4 v=35
47230 On ch=14 n=e6 v=48
47247 Off ch=14 n=g3 v=64
47252 Off ch=14 n=d6 v=64
47259 Off ch=14 n=f#4 v=64
47267 Off ch=14 n=a5 v=64
47295 Off ch=14 n=d4 v=64
47296 On ch=14 n=d6 v=59
47296 On ch=14 n=g3 v=35
47310 Off ch=14 n=e6 v=64
47363 Off ch=14 n=g3 v=64
47364 On ch=14 n=a5 v=46
47368 Off ch=14 n=d6 v=64
47368 On ch=14 n=d4 v=35
47412 On ch=14 n=g3 v=35
47413 On ch=14 n=f#6 v=48
47434 Off ch=14 n=d4 v=64
47468 On ch=14 n=d4 v=35
47471 On ch=14 n=e6 v=48
47487 Off ch=14 n=f#6 v=64
47497 Off ch=14 n=g3 v=64
47528 On ch=14 n=g3 v=35
47532 Off ch=14 n=d4 v=64
47536 On ch=14 n=d6 v=48
47542 Off ch=14 n=e6 v=64
47581 On ch=14 n=d4 v=35
47583 On ch=14 n=e6 v=48
47592 Off ch=14 n=d6 v=64
47616 Off ch=14 n=a5 v=64
47641 Off ch=14 n=d4 v=64
47641 On ch=14 n=d6 v=59
47641 On ch=14 n=f#4 v=35
47658 Off ch=14 n=e6 v=64
47705 On ch=14 n=c5 v=35
47706 On ch=14 n=b5 v=56
47708 Off ch=14 n=f#4 v=64
47717 Off ch=14 n=d6 v=64
47757 On ch=14 n=d5 v=35
47763 On ch=14 n=f#6 v=48
47791 Off ch=14 n=c5 v=64
47825 On ch=14 n=e6 v=48
47825 On ch=14 n=c5 v=35
47841 Off ch=14 n=f#6 v=64
47845 Off ch=14 n=d5 v=64
47885 On ch=14 n=d6 v=48
47885 On ch=14 n=f#4 v=35
47897 Off ch=14 n=e6 v=64
47902 Off ch=14 n=c5 v=64
47941 On ch=14 n=d4 v=35
47942 On ch=14 n=e6 v=48
47945 Off ch=14 n=g3 v=64
47952 Off ch=14 n=f#4 v=64
47953 Off ch=14 n=d6 v=64
47961 Off ch=14 n=b5 v=64
47989 On ch=14 n=g3 v=35
47996 On ch=14 n=d6 v=59
48008 Off ch=14 n=d4 v=64
48020 Off ch=14 n=e6 v=64
48049 On ch=14 n=d4 v=35
48056 On ch=14 n=a5 v=46
48058 Off ch=14 n=d6 v=64
48076 Off ch=14 n=g3 v=64
48113 On ch=14 n=g3 v=35
48116 Off ch=14 n=d4 v=64
48116 On ch=14 n=f#6 v=48
48165 On ch=14 n=e6 v=48
48165 On ch=14 n=d4 v=35
48194 Off ch=14 n=f#6 v=64
48200 Off ch=14 n=g3 v=64
48217 Par ch=14 c=64 v=0
48231 On ch=14 n=d6 v=48
48232 Off ch=14 n=d4 v=64
48234 On ch=14 n=g3 v=35
48242 Off ch=14 n=e6 v=64
48264 Par ch=14 c=64 v=127
48274 On ch=14 n=d4 v=35
48277 On ch=14 n=e6 v=48
48285 Off ch=14 n=d6 v=64
48308 Off ch=14 n=a5 v=64
48330 On ch=14 n=d6 v=59
48334 On ch=14 n=g4 v=35
48337 Off ch=14 n=d4 v=64
48344 Off ch=14 n=e6 v=64
48372 On ch=14 n=b4 v=35
48376 On ch=14 n=g5 v=40
48399 Off ch=14 n=d6 v=64
48401 Off ch=14 n=g4 v=64
48422 On ch=14 n=g6 v=48
48422 On ch=14 n=d5 v=35
48440 Off ch=14 n=b4 v=64
48474 On ch=14 n=b4 v=35
48479 On ch=14 n=e6 v=48
48485 Off ch=14 n=g6 v=64
48499 Off ch=14 n=d5 v=64
48534 On ch=14 n=g4 v=35
48539 On ch=14 n=d6 v=48
48551 Off ch=14 n=b4 v=64
48553 Off ch=14 n=e6 v=64
48556 Off ch=14 n=g3 v=64
48578 On ch=14 n=d4 v=35
48585 On ch=14 n=e6 v=48
48594 Off ch=14 n=d6 v=64
48615 Off ch=14 n=g4 v=64
48618 On ch=14 n=g3 v=42
48621 On ch=14 n=d6 v=59
48631 Off ch=14 n=g5 v=64
48639 Off ch=14 n=e6 v=64
48645 Off ch=14 n=d4 v=64
48670 On ch=14 n=d4 v=35
48676 Off ch=14 n=d6 v=64
48676 On ch=14 n=b5 v=48
48705 Off ch=14 n=g3 v=64
48722 On ch=14 n=g3 v=42
48728 On ch=14 n=b6 v=48
48732 Off ch=14 n=d4 v=64
48782 On ch=14 n=d4 v=35
48786 On ch=14 n=g6 v=48
48798 Off ch=14 n=b6 v=64
48809 Off ch=14 n=g3 v=64
48844 Off ch=14 n=d4 v=64
48850 On ch=14 n=e6 v=48
48850 On ch=14 n=g3 v=35
48860 Off ch=14 n=g6 v=64
48894 On ch=14 n=d4 v=35
48897 On ch=14 n=f#6 v=48
48905 Off ch=14 n=e6 v=64
48931 Off ch=14 n=b5 v=64
48950 On ch=14 n=e6 v=48
48950 On ch=14 n=g4 v=35
48971 Off ch=14 n=d4 v=64
48975 Off ch=14 n=f#6 v=64
49002 On ch=14 n=b4 v=35
49006 On ch=14 n=d6 v=59
49017 Off ch=14 n=g4 v=64
49017 Off ch=14 n=e6 v=64
49066 On ch=14 n=d7 v=48
49066 On ch=14 n=d5 v=35
49084 Off ch=14 n=b4 v=64
49130 On ch=14 n=b4 v=35
49137 Off ch=14 n=d7 v=64
49137 On ch=14 n=b6 v=48
49143 Off ch=14 n=d5 v=64
49194 On ch=14 n=g4 v=35
49198 On ch=14 n=a6 v=48
49207 Off ch=14 n=b6 v=64
49207 Off ch=14 n=b4 v=64
49238 On ch=14 n=d4 v=35
49242 On ch=14 n=b6 v=48
49245 Off ch=14 n=a6 v=64
49261 Off ch=14 n=g4 v=64
49261 Off ch=14 n=d6 v=64
49267 Off ch=14 n=g3 v=64
49298 On ch=14 n=a6 v=48
49298 On ch=14 n=g3 v=42
49299 Off ch=14 n=b6 v=64
49300 Off ch=14 n=d4 v=64
49362 On ch=14 n=g6 v=48
49363 Off ch=14 n=a6 v=64
49366 On ch=14 n=d4 v=35
49385 Off ch=14 n=g3 v=64
49414 On ch=14 n=g3 v=42
49418 On ch=14 n=g7 v=48
49428 Off ch=14 n=d4 v=64
49461 On ch=14 n=d4 v=35
49462 On ch=14 n=e7 v=48
49490 Off ch=14 n=g7 v=64
49501 Off ch=14 n=g3 v=64
49511 Off ch=14 n=d4 v=64
49511 On ch=14 n=g3 v=35
49513 On ch=14 n=d7 v=48
49535 Off ch=14 n=e7 v=64
49563 On ch=14 n=d4 v=35
49565 Off ch=14 n=d7 v=64
49571 On ch=14 n=e7 v=48
49614 Off ch=14 n=g6 v=64
49619 On ch=14 n=d7 v=48
49619 On ch=14 n=g4 v=35
49630 Off ch=14 n=d4 v=64
49650 Off ch=14 n=e7 v=64
49660 On ch=14 n=b4 v=35
49663 On ch=14 n=b6 v=48
49683 Off ch=14 n=g4 v=64
49683 Off ch=14 n=d7 v=64
49712 On ch=14 n=b7 v=48
49712 On ch=14 n=d5 v=35
49742 Off ch=14 n=b4 v=64
49758 On ch=14 n=g7 v=48
49760 On ch=14 n=b4 v=35
49780 Off ch=14 n=b7 v=64
49789 Off ch=14 n=d5 v=64
49827 Off ch=14 n=b4 v=64
49828 On ch=14 n=g4 v=35
49835 On ch=14 n=e7 v=48
49844 Off ch=14 n=g7 v=64
49878 On ch=14 n=d4 v=35
49882 On ch=14 n=f#7 v=48
49887 Off ch=14 n=e7 v=64
49897 Off ch=14 n=g4 v=64
49918 Off ch=14 n=b6 v=64
49925 Off ch=14 n=g3 v=64
49925 On ch=14 n=e7 v=48
49934 Off ch=14 n=f#7 v=64
49934 On ch=14 n=g3 v=42
49940 Off ch=14 n=d4 v=64
49974 On ch=14 n=d4 v=35
49978 On ch=14 n=d7 v=48
49988 Off ch=14 n=e7 v=64
50018 Off ch=14 n=g3 v=64
50025 On ch=14 n=d8 v=48
50029 On ch=14 n=g3 v=42
50038 Off ch=14 n=d4 v=64
50073 On ch=14 n=b7 v=48
50073 On ch=14 n=d4 v=35
50112 Off ch=14 n=d8 v=64
50116 Off ch=14 n=g3 v=64
50135 Off ch=14 n=d4 v=64
50139 On ch=14 n=g3 v=35
50147 On ch=14 n=a7 v=47
50165 Off ch=14 n=b7 v=64
50203 On ch=14 n=b7 v=47
50207 On ch=14 n=d4 v=35
50225 Off ch=14 n=a7 v=64
50230 Off ch=14 n=d7 v=64
50274 Off ch=14 n=d4 v=64
50277 On ch=14 n=g4 v=35
50279 On ch=14 n=a7 v=46
50289 Off ch=14 n=b7 v=64
50326 On ch=14 n=b4 v=35
50334 On ch=14 n=g7 v=46
50341 Off ch=14 n=g4 v=64
50351 Off ch=14 n=a7 v=64
50383 On ch=14 n=d8 v=44
50383 On ch=14 n=d5 v=35
50390 Off ch=14 n=b4 v=64
50435 On ch=14 n=b4 v=35
50440 On ch=14 n=b7 v=44
50460 Off ch=14 n=d8 v=64
50470 Off ch=14 n=d5 v=64
50512 Off ch=14 n=b4 v=64
50515 On ch=14 n=g4 v=35
50516 On ch=14 n=a7 v=44
50526 Off ch=14 n=b7 v=64
50547 Off ch=14 n=g3 v=64
50583 Off ch=14 n=g7 v=64
50584 On ch=14 n=b7 v=44
50584 On ch=14 n=d4 v=35
50589 Off ch=14 n=g4 v=64
50593 Off ch=14 n=a7 v=64
50640 On ch=14 n=a7 v=44
50640 On ch=14 n=g3 v=42
50646 Off ch=14 n=d4 v=64
50655 Off ch=14 n=b7 v=64
50708 On ch=14 n=g7 v=44
50712 On ch=14 n=d4 v=35
50713 Off ch=14 n=a7 v=64
50727 Off ch=14 n=g3 v=64
50774 Off ch=14 n=d4 v=64
50796 On ch=14 n=g3 v=42
50801 On ch=14 n=e8 v=42
50868 On ch=14 n=d4 v=35
50874 On ch=14 n=c#8 v=42
50883 Off ch=14 n=g3 v=64
50888 Off ch=14 n=e8 v=64
50930 Off ch=14 n=d4 v=64
50940 Off ch=14 n=g7 v=64
50956 On ch=14 n=d8 v=41
50960 On ch=14 n=g3 v=35
50961 Off ch=14 n=c#8 v=64
50991 Par ch=14 c=64 v=0
51049 Par ch=14 c=64 v=127
51084 On ch=14 n=d4 v=35
51160 Off ch=14 n=d8 v=64
51168 On ch=14 n=g4 v=35
51171 Off ch=14 n=d4 v=64
51240 On ch=14 n=b4 v=35
51265 Off ch=14 n=g4 v=64
51344 On ch=14 n=d5 v=35
51359 Off ch=14 n=b4 v=64
51377 Off ch=14 n=g3 v=64
51420 On ch=14 n=b4 v=35
51431 Off ch=14 n=d5 v=64
51483 Par ch=14 c=64 v=0
51495 On ch=14 n=g4 v=35
51503 On ch=14 n=e7 v=48
51522 Off ch=14 n=b4 v=64
51565 Par ch=14 c=64 v=127
51604 On ch=14 n=f#7 v=48
51608 On ch=14 n=d4 v=35
51610 Off ch=14 n=g4 v=64
51636 Off ch=14 n=e7 v=64
51688 On ch=14 n=e7 v=48
51688 On ch=14 n=g3 v=35
51694 Off ch=14 n=d4 v=64
51701 Off ch=14 n=f#7 v=64
51771 On ch=14 n=d7 v=48
51775 Off ch=14 n=e7 v=64
51775 On ch=14 n=d4 v=35
51798 Off ch=14 n=g3 v=64
51844 On ch=14 n=b7 v=48
51848 On ch=14 n=g3 v=35
51853 Off ch=14 n=d4 v=64
51944 Off ch=14 n=b7 v=64
51944 On ch=14 n=g7 v=48
51950 On ch=14 n=d4 v=35
51967 Off ch=14 n=g3 v=64
52026 Off ch=14 n=d7 v=64
52029 Off ch=14 n=g7 v=64
52037 On ch=14 n=g7 v=48
52040 On ch=14 n=g3 v=35
52052 Off ch=14 n=d4 v=64
52118 On ch=14 n=d4 v=35
52178 On ch=14 n=g4 v=35
52185 Off ch=14 n=d4 v=64
52244 On ch=14 n=b4 v=35
52245 Off ch=14 n=g4 v=64
52304 Off ch=14 n=b4 v=64
52304 On ch=14 n=d5 v=35
52372 On ch=14 n=b4 v=35
52379 Off ch=14 n=d5 v=64
52436 On ch=14 n=g4 v=35
52439 Off ch=14 n=b4 v=64
52457 Off ch=14 n=g3 v=64
52503 Off ch=14 n=g4 v=64
52508 On ch=14 n=d4 v=35
52563 On ch=14 n=g3 v=35
52592 Off ch=14 n=d4 v=64
52637 Off ch=14 n=g7 v=64
52647 On ch=14 n=d4 v=35
52673 Off ch=14 n=g3 v=64
52736 On ch=14 n=g3 v=42
52739 Off ch=14 n=d4 v=64
52805 On ch=14 n=d4 v=42
52846 Off ch=14 n=g3 v=64
52934 On ch=14 n=c4 v=42
52942 On ch=14 n=g4 v=42
52947 On ch=14 n=c6 v=56
52949 On ch=14 n=e5 v=42
52958 Off ch=14 n=d4 v=64
52992 Par ch=14 c=64 v=0
53112 Par ch=14 c=64 v=127
53420 On ch=14 n=b3 v=42
53424 On ch=14 n=g5 v=49
53424 On ch=14 n=d5 v=42
53449 Par ch=14 c=64 v=0
53509 Off ch=14 n=c4 v=64
53518 Par ch=14 c=64 v=127
53522 Off ch=14 n=c6 v=64
53524 Off ch=14 n=e5 v=64
53654 On ch=14 n=b5 v=49
53654 On ch=14 n=e5 v=42
53654 Par ch=14 c=64 v=0
53676 On ch=14 n=c4 v=42
53691 Off ch=14 n=b3 v=64
53695 Off ch=14 n=d5 v=64
53695 Off ch=14 n=g5 v=64
53712 Par ch=14 c=64 v=127
53872 Off ch=14 n=b5 v=64
53881 Par ch=14 c=64 v=0
53893 On ch=14 n=b5 v=58
53896 On ch=14 n=c5 v=35
53896 On ch=14 n=d4 v=35
53904 On ch=14 n=f#4 v=35
53925 Off ch=14 n=e5 v=64
53940 Par ch=14 c=64 v=127
53947 Off ch=14 n=c4 v=64
53976 Off ch=14 n=g4 v=64
53990 On ch=14 n=a5 v=50
53993 On ch=14 n=d4 v=35
54028 Off ch=14 n=b5 v=64
54059 Off ch=14 n=d4 v=64
54084 On ch=14 n=g4 v=35
54090 On ch=14 n=g5 v=57
54096 On ch=14 n=g3 v=35
54104 On ch=14 n=b4 v=35
54108 Par ch=14 c=64 v=0
54125 Off ch=14 n=a5 v=64
54128 Par ch=14 c=64 v=127
54146 Off ch=14 n=d4 v=64
54167 Off ch=14 n=c5 v=64
54175 Off ch=14 n=f#4 v=64
54295 On ch=14 n=f#5 v=54
54304 On ch=14 n=b5 v=50
54304 On ch=14 n=c5 v=42
54304 On ch=14 n=d4 v=42
54318 Off ch=14 n=g5 v=64
54324 Par ch=14 c=64 v=0
54357 Off ch=14 n=g4 v=64
54369 Off ch=14 n=g3 v=64
54375 Off ch=14 n=b4 v=64
54376 Par ch=14 c=64 v=127
54497 On ch=14 n=d3 v=42
54499 Off ch=14 n=b5 v=64
54524 On ch=14 n=b5 v=50
54620 On ch=14 n=a5 v=47
54659 Off ch=14 n=b5 v=64
54736 On ch=14 n=b4 v=42
54736 On ch=14 n=g3 v=42
54740 On ch=14 n=g5 v=50
54748 Off ch=14 n=d3 v=64
54750 Off ch=14 n=f#5 v=64
54755 Off ch=14 n=a5 v=64
54759 Off ch=14 n=c5 v=64
54788 Par ch=14 c=64 v=0
54854 Par ch=14 c=64 v=127
54901 Off ch=14 n=d4 v=64
54926 Off ch=14 n=g3 v=64
54926 Off ch=14 n=b4 v=64
54930 Off ch=14 n=g5 v=64
55072 On ch=14 n=e5 v=28
55072 On ch=14 n=g4 v=28
55075 On ch=14 n=c6 v=40
55076 On ch=14 n=c4 v=28
55140 Par ch=14 c=64 v=0
55248 Par ch=14 c=64 v=127
55496 On ch=14 n=b3 v=28
55500 On ch=14 n=d5 v=28
55503 On ch=14 n=g5 v=40
55507 Off ch=14 n=e5 v=64
55551 Par ch=14 c=64 v=0
55650 Off ch=14 n=c6 v=64
55651 Off ch=14 n=c4 v=64
55694 On ch=14 n=b5 v=45
55700 Par ch=14 c=64 v=127
55709 On ch=14 n=c4 v=28
55710 On ch=14 n=e5 v=28
55713 Off ch=14 n=b3 v=64
55722 Off ch=14 n=g5 v=64
55726 Off ch=14 n=d5 v=64
55791 Off ch=14 n=g4 v=64
55853 Off ch=14 n=b5 v=64
55876 On ch=14 n=f#4 v=28
55882 On ch=14 n=d4 v=28
55883 On ch=14 n=b5 v=45
55887 On ch=14 n=c5 v=28
55958 On ch=14 n=a5 v=45
55960 Off ch=14 n=c4 v=64
55961 Off ch=14 n=e5 v=64
56018 Off ch=14 n=b5 v=64
56024 Par ch=14 c=64 v=0
56040 On ch=14 n=b4 v=28
56040 On ch=14 n=g4 v=28
56048 On ch=14 n=g5 v=40
56056 On ch=14 n=g3 v=28
56084 On ch=14 n=g3 v=28
56093 Off ch=14 n=a5 v=64
56100 Par ch=14 c=64 v=127
56127 Off ch=14 n=f#4 v=64
56133 Off ch=14 n=d4 v=64
56138 Off ch=14 n=c5 v=64
56250 On ch=14 n=b5 v=40
56256 On ch=14 n=f#5 v=39
56256 On ch=14 n=d4 v=28
56261 On ch=14 n=c5 v=28
56291 Off ch=14 n=g4 v=64
56291 Off ch=14 n=b4 v=64
56299 Off ch=14 n=g5 v=64
56307 Off ch=14 n=g3 v=64
56307 Off ch=14 n=g3 v=64
56440 Off ch=14 n=b5 v=64
56471 On ch=14 n=b5 v=36
56472 On ch=14 n=d3 v=28
56580 On ch=14 n=a5 v=28
56598 Off ch=14 n=f#5 v=64
56616 Off ch=14 n=c5 v=64
56617 Off ch=14 n=b5 v=64
56688 On ch=14 n=g3 v=28
56700 On ch=14 n=b4 v=28
56706 On ch=14 n=g5 v=40
56713 Off ch=14 n=a5 v=64
56720 Par ch=14 c=64 v=0
56730 Off ch=14 n=d3 v=64
56767 Par ch=14 c=64 v=127
56855 Off ch=14 n=d4 v=64
56875 Off ch=14 n=g3 v=64
56887 Off ch=14 n=b4 v=64
56893 Off ch=14 n=g5 v=64
57054 On ch=14 n=e6 v=52
57057 On ch=14 n=c5 v=44
57061 On ch=14 n=g5 v=47
57087 Par ch=14 c=64 v=0
57176 Par ch=14 c=64 v=127
57577 On ch=14 n=f#6 v=46
57581 On ch=14 n=a5 v=47
57589 Off ch=14 n=e6 v=64
57671 On ch=14 n=e6 v=45
57693 Off ch=14 n=f#6 v=64
57769 On ch=14 n=d6 v=46
57776 On ch=14 n=f#5 v=47
57785 Off ch=14 n=e6 v=64
57830 Off ch=14 n=g5 v=64
57951 On ch=14 n=e6 v=47
57958 On ch=14 n=e5 v=47
58000 Off ch=14 n=f#5 v=64
58020 On ch=14 n=f#6 v=46
58028 On ch=14 n=d5 v=47
58049 Off ch=14 n=e5 v=64
58057 Off ch=14 n=e6 v=64
58095 Par ch=14 c=64 v=0
58111 On ch=14 n=g5 v=47
58111 On ch=14 n=b4 v=47
58112 On ch=14 n=g6 v=47
58134 Off ch=14 n=f#6 v=64
58150 Off ch=14 n=a5 v=64
58150 Par ch=14 c=64 v=127
58157 Off ch=14 n=c5 v=64
58283 Off ch=14 n=d6 v=64
58285 Off ch=14 n=g6 v=64
58308 Par ch=14 c=64 v=0
58315 On ch=14 n=a5 v=33
58315 On ch=14 n=f#5 v=33
58316 On ch=14 n=d6 v=37
58331 Off ch=14 n=g5 v=64
58335 On ch=14 n=c5 v=33
58343 Off ch=14 n=d5 v=64
58350 Off ch=14 n=b4 v=64
58376 Par ch=14 c=64 v=127
58506 On ch=14 n=e6 v=32
58506 On ch=14 n=e5 v=33
58529 Off ch=14 n=f#5 v=64
58551 Off ch=14 n=a5 v=64
58582 On ch=14 n=f#6 v=33
58586 On ch=14 n=d5 v=33
58608 Off ch=14 n=e5 v=64
58623 Off ch=14 n=e6 v=64
58642 Par ch=14 c=64 v=0
58662 On ch=14 n=g6 v=33
58671 On ch=14 n=g5 v=33
58676 On ch=14 n=b4 v=33
58687 Off ch=14 n=f#6 v=64
58690 Off ch=14 n=c5 v=64
58711 Par ch=14 c=64 v=127
58837 Off ch=14 n=g6 v=64
58841 Off ch=14 n=d6 v=64
58869 On ch=14 n=e5 v=35
58873 On ch=14 n=c6 v=52
58900 Off ch=14 n=d5 v=64
59049 Par ch=14 c=64 v=0
59078 On ch=14 n=a4 v=35
59121 Off ch=14 n=b4 v=64
59129 Par ch=14 c=64 v=127
59282 On ch=14 n=d6 v=35
59301 Off ch=14 n=c6 v=64
59348 Off ch=14 n=g5 v=64
59388 On ch=14 n=c6 v=35
59407 Off ch=14 n=d6 v=64
59454 Par ch=14 c=64 v=0
59471 On ch=14 n=f#5 v=29
59471 On ch=14 n=d#5 v=29
59475 On ch=14 n=b5 v=35
59498 Off ch=14 n=c6 v=64
59510 Par ch=14 c=64 v=127
59531 Off ch=14 n=e5 v=64
59647 On ch=14 n=c#5 v=35
59652 On ch=14 n=c#6 v=35
59670 Off ch=14 n=d#5 v=64
59727 On ch=14 n=b4 v=35
59728 On ch=14 n=d#6 v=35
59759 Off ch=14 n=c#5 v=64
59762 Off ch=14 n=c#6 v=64
59791 Par ch=14 c=64 v=0
59817 On ch=14 n=e5 v=35
59817 On ch=14 n=g4 v=35
59820 On ch=14 n=e6 v=35
59826 Off ch=14 n=f#5 v=64
59831 Off ch=14 n=a4 v=64
59849 Off ch=14 n=d#6 v=64
59865 Par ch=14 c=64 v=127
59989 Off ch=14 n=b5 v=64
59995 Off ch=14 n=e6 v=64
60045 On ch=14 n=a5 v=37
60045 On ch=14 n=c5 v=28
60045 On ch=14 n=f#4 v=28
60048 On ch=14 n=d#5 v=28
60056 Off ch=14 n=g4 v=64
60056 Off ch=14 n=e5 v=64
60062 Off ch=14 n=b4 v=64
60197 Par ch=14 c=64 v=0
60267 On ch=14 n=d5 v=28
60273 On ch=14 n=b5 v=38
60273 On ch=14 n=g4 v=28
60304 Par ch=14 c=64 v=127
60365 Off ch=14 n=f#4 v=64
60365 Off ch=14 n=c5 v=64
60365 Off ch=14 n=a5 v=64
60368 Off ch=14 n=d#5 v=64
60501 On ch=14 n=f5 v=28
60522 On ch=14 n=g3 v=28
60660 Off ch=14 n=d5 v=64
60849 On ch=14 n=c6 v=48
60851 On ch=14 n=e5 v=44
60856 On ch=14 n=c4 v=27
60864 Off ch=14 n=g3 v=64
60867 Off ch=14 n=b5 v=64
60868 Par ch=14 c=64 v=0
60891 Off ch=14 n=f5 v=64
61038 Par ch=14 c=64 v=127
61220 On ch=14 n=g5 v=41
61227 On ch=14 n=d5 v=38
61227 On ch=14 n=b3 v=38
61235 Off ch=14 n=c6 v=64
61237 Off ch=14 n=e5 v=64
61257 Off ch=14 n=c4 v=64
61358 Par ch=14 c=64 v=0
61398 On ch=14 n=b5 v=33
61408 On ch=14 n=c4 v=38
61411 On ch=14 n=e5 v=38
61425 Off ch=14 n=g5 v=64
61433 Off ch=14 n=b3 v=64
61433 Off ch=14 n=d5 v=64
61437 Par ch=14 c=64 v=127
61477 Off ch=14 n=g4 v=64
61548 Off ch=14 n=b5 v=64
61562 Par ch=14 c=64 v=0
61591 On ch=14 n=b5 v=48
61593 On ch=14 n=f#5 v=38
61599 On ch=14 n=c5 v=27
61605 On ch=14 n=f#4 v=27
61608 On ch=14 n=d4 v=27
61628 Off ch=14 n=c4 v=64
61631 Off ch=14 n=e5 v=64
61642 Par ch=14 c=64 v=127
61674 On ch=14 n=a5 v=54
61707 Off ch=14 n=b5 v=64
61751 On ch=14 n=g5 v=55
61755 On ch=14 n=b4 v=27
61755 On ch=14 n=g4 v=27
61755 On ch=14 n=g3 v=27
61775 Off ch=14 n=a5 v=64
61781 Par ch=14 c=64 v=0
61790 Off ch=14 n=f#5 v=64
61796 Off ch=14 n=c5 v=64
61802 Off ch=14 n=f#4 v=64
61805 Off ch=14 n=d4 v=64
61893 Par ch=14 c=64 v=127
61915 On ch=14 n=b5 v=48
61922 On ch=14 n=f#5 v=38
61922 On ch=14 n=d4 v=32
61923 On ch=14 n=c5 v=32
61937 Off ch=14 n=g5 v=64
61941 Off ch=14 n=g3 v=64
61941 Off ch=14 n=g4 v=64
61941 Off ch=14 n=b4 v=64
62066 Off ch=14 n=b5 v=64
62107 On ch=14 n=b5 v=41
62107 On ch=14 n=d3 v=32
62187 On ch=14 n=a5 v=48
62211 Off ch=14 n=b5 v=64
62267 On ch=14 n=b4 v=32
62275 On ch=14 n=g3 v=32
62277 On ch=14 n=g5 v=48
62284 Off ch=14 n=a5 v=64
62284 Par ch=14 c=64 v=0
62287 Off ch=14 n=f#5 v=64
62288 Off ch=14 n=c5 v=64
62331 Off ch=14 n=d3 v=64
62358 Par ch=14 c=64 v=127
62415 Off ch=14 n=d4 v=64
62484 Off ch=14 n=b4 v=64
62492 Off ch=14 n=g3 v=64
62494 Off ch=14 n=g5 v=64
62554 On ch=14 n=c6 v=44
62558 On ch=14 n=e5 v=29
62559 On ch=14 n=c4 v=29
62564 On ch=14 n=g4 v=29
62623 Par ch=14 c=64 v=0
62754 Par ch=14 c=64 v=127
62943 On ch=14 n=d5 v=29
62943 On ch=14 n=b3 v=29
62950 On ch=14 n=g5 v=29
62969 Off ch=14 n=e5 v=64
62969 Par ch=14 c=64 v=0
62981 Off ch=14 n=c4 v=64
62982 Off ch=14 n=c6 v=64
63165 On ch=14 n=c4 v=29
63170 On ch=14 n=b5 v=36
63174 On ch=14 n=e5 v=29
63188 Off ch=14 n=b3 v=64
63188 Off ch=14 n=d5 v=64
63195 Off ch=14 n=g5 v=64
63223 On ch=14 n=d5 v=29
63229 On ch=14 n=b3 v=29
63236 Off ch=14 n=c4 v=64
63244 Par ch=14 c=64 v=127
63245 Off ch=14 n=e5 v=64
63285 On ch=14 n=e5 v=29
63301 On ch=14 n=c4 v=29
63303 Off ch=14 n=d5 v=64
63309 Off ch=14 n=b3 v=64
63321 Off ch=14 n=b5 v=64
63321 Par ch=14 c=64 v=0
63345 On ch=14 n=f#4 v=29
63345 On ch=14 n=d4 v=29
63365 On ch=14 n=c5 v=29
63368 On ch=14 n=b5 v=29
63374 Off ch=14 n=e5 v=64
63390 Off ch=14 n=c4 v=64
63398 Par ch=14 c=64 v=127
63418 Off ch=14 n=g4 v=64
63488 On ch=14 n=a5 v=42
63518 Off ch=14 n=b5 v=64
63573 On ch=14 n=b4 v=29
63573 On ch=14 n=g4 v=29
63573 On ch=14 n=g3 v=29
63584 Off ch=14 n=d4 v=64
63584 Off ch=14 n=f#4 v=64
63594 On ch=14 n=g5 v=36
63604 Off ch=14 n=c5 v=64
63632 Off ch=14 n=a5 v=64
63770 Par ch=14 c=64 v=0
63782 On ch=14 n=c5 v=29
63783 On ch=14 n=f#5 v=24
63787 Off ch=14 n=g3 v=64
63787 Off ch=14 n=g4 v=64
63787 Off ch=14 n=b4 v=64
63787 On ch=14 n=b5 v=39
63787 On ch=14 n=d4 v=29
63808 Off ch=14 n=g5 v=64
63886 Par ch=14 c=64 v=127
63948 Off ch=14 n=b5 v=64
63958 Par ch=14 c=64 v=0
63988 On ch=14 n=b5 v=29
63989 On ch=14 n=d3 v=29
64039 Par ch=14 c=64 v=127
64110 On ch=14 n=a5 v=32
64128 Off ch=14 n=b5 v=64
64184 Par ch=14 c=64 v=0
64201 Off ch=14 n=d3 v=64
64211 On ch=14 n=g3 v=29
64216 On ch=14 n=g5 v=39
64217 Off ch=14 n=c5 v=64
64218 Off ch=14 n=f#5 v=64
64219 On ch=14 n=b4 v=29
64222 Off ch=14 n=d4 v=64
64252 Off ch=14 n=a5 v=64
64262 Par ch=14 c=64 v=127
64422 Off ch=14 n=g3 v=64
64427 Off ch=14 n=g5 v=64
64430 Off ch=14 n=b4 v=64
64591 On ch=14 n=c5 v=45
64598 On ch=14 n=g5 v=45
64605 On ch=14 n=e6 v=51
64613 Par ch=14 c=64 v=0
64689 Par ch=14 c=64 v=127
65016 On ch=14 n=f#6 v=45
65022 On ch=14 n=a5 v=45
65057 Off ch=14 n=e6 v=64
65101 On ch=14 n=e6 v=45
65111 Off ch=14 n=f#6 v=64
65139 Par ch=14 c=64 v=0
65207 Off ch=14 n=g5 v=64
65207 On ch=14 n=d6 v=45
65207 On ch=14 n=f#5 v=45
65215 Par ch=14 c=64 v=127
65222 Off ch=14 n=e6 v=64
65365 On ch=14 n=e6 v=45
65365 On ch=14 n=e5 v=45
65396 Off ch=14 n=f#5 v=64
65444 On ch=14 n=d5 v=45
65446 On ch=14 n=f#6 v=45
65470 Off ch=14 n=e5 v=64
65498 Par ch=14 c=64 v=0
65521 Off ch=14 n=e6 v=64
65563 Par ch=14 c=64 v=127
65567 On ch=14 n=g6 v=45
65567 On ch=14 n=g5 v=45
65567 On ch=14 n=b4 v=45
65576 Off ch=14 n=c5 v=64
65582 Off ch=14 n=f#6 v=64
65601 Off ch=14 n=a5 v=64
65612 Off ch=14 n=d5 v=64
65732 Off ch=14 n=d6 v=64
65749 Off ch=14 n=g6 v=64
65773 On ch=14 n=d6 v=27
65773 On ch=14 n=f#5 v=27
65778 On ch=14 n=c5 v=27
65783 On ch=14 n=a5 v=27
65806 Off ch=14 n=g5 v=64
65837 On ch=14 n=e5 v=27
65845 On ch=14 n=e6 v=27
65863 Off ch=14 n=f#5 v=64
65864 Off ch=14 n=d6 v=64
65882 Off ch=14 n=b4 v=64
65893 On ch=14 n=d6 v=27
65893 On ch=14 n=f#5 v=27
65927 Off ch=14 n=e5 v=64
65935 Off ch=14 n=e6 v=64
65965 On ch=14 n=e5 v=27
65973 On ch=14 n=e6 v=27
65983 Off ch=14 n=f#5 v=64
66079 On ch=14 n=d5 v=27
66081 On ch=14 n=f#6 v=27
66105 Off ch=14 n=e5 v=64
66113 Off ch=14 n=e6 v=64
66181 Off ch=14 n=d5 v=64
66205 On ch=14 n=g6 v=27
66217 On ch=14 n=g5 v=27
66217 On ch=14 n=b4 v=27
66224 Off ch=14 n=f#6 v=64
66229 Par ch=14 c=64 v=0
66251 Off ch=14 n=a5 v=64
66255 Off ch=14 n=c5 v=64
66287 Par ch=14 c=64 v=127
66306 Off ch=14 n=d6 v=64
66309 Off ch=14 n=g6 v=64
66418 On ch=14 n=c6 v=47
66424 On ch=14 n=e5 v=47
66577 Par ch=14 c=64 v=0
66619 On ch=14 n=a4 v=47
66637 Off ch=14 n=b4 v=64
66657 Par ch=14 c=64 v=127
66809 On ch=14 n=d6 v=47
66840 Off ch=14 n=c6 v=64
66884 On ch=14 n=c6 v=47
66889 Off ch=14 n=d6 v=64
66953 Par ch=14 c=64 v=0
66974 Off ch=14 n=c6 v=64
66976 On ch=14 n=d#5 v=33
66981 On ch=14 n=f#5 v=33
66983 On ch=14 n=b5 v=39
67000 Off ch=14 n=g5 v=64
67029 Par ch=14 c=64 v=127
67040 Off ch=14 n=e5 v=64
67138 Off ch=14 n=d#5 v=64
67149 On ch=14 n=c#5 v=39
67150 On ch=14 n=c#6 v=39
67229 On ch=14 n=b4 v=39
67232 On ch=14 n=d#6 v=39
67261 Off ch=14 n=c#5 v=64
67268 Off ch=14 n=c#6 v=64
67290 Par ch=14 c=64 v=0
67311 Off ch=14 n=a4 v=64
67325 On ch=14 n=e5 v=39
67333 On ch=14 n=e6 v=39
67333 On ch=14 n=g4 v=39
67335 Off ch=14 n=f#5 v=64
67349 Off ch=14 n=b4 v=64
67352 Off ch=14 n=d#6 v=64
67380 Par ch=14 c=64 v=127
67520 Par ch=14 c=64 v=0
67526 On ch=14 n=a5 v=36
67533 On ch=14 n=d#5 v=36
67533 On ch=14 n=f#4 v=36
67541 On ch=14 n=c5 v=30
67556 Off ch=14 n=e5 v=64
67564 Off ch=14 n=e6 v=64
67569 Off ch=14 n=b5 v=64
67638 Off ch=14 n=g4 v=64
67749 Off ch=14 n=c5 v=64
67763 On ch=14 n=b5 v=36
67764 On ch=14 n=d5 v=30
67773 On ch=14 n=g4 v=30
67821 Off ch=14 n=a5 v=64
67830 Off ch=14 n=f#4 v=64
67838 Off ch=14 n=d#5 v=64
67900 Par ch=14 c=64 v=127
68027 On ch=14 n=f5 v=36
68027 On ch=14 n=g3 v=36
68059 Off ch=14 n=d5 v=64
68297 On ch=14 n=c6 v=43
68301 On ch=14 n=e5 v=38
68301 On ch=14 n=c4 v=38
68318 Off ch=14 n=b5 v=64
68321 Off ch=14 n=g3 v=64
68322 Off ch=14 n=f5 v=64
68374 Par ch=14 c=64 v=0
68474 Par ch=14 c=64 v=127
68685 On ch=14 n=g5 v=39
68687 On ch=14 n=d5 v=38
68692 On ch=14 n=b3 v=38
68698 Off ch=14 n=e5 v=64
68700 Par ch=14 c=64 v=0
68722 Off ch=14 n=c4 v=64
68722 Off ch=14 n=c6 v=64
68744 Par ch=14 c=64 v=127
68899 On ch=14 n=e5 v=38
68899 On ch=14 n=c4 v=38
68903 On ch=14 n=b5 v=48
68904 Off ch=14 n=g5 v=64
68906 Off ch=14 n=d5 v=64
68909 Par ch=14 c=64 v=0
68914 Off ch=14 n=b3 v=64
68948 Par ch=14 c=64 v=127
69018 Off ch=14 n=b5 v=64
69056 Off ch=14 n=g4 v=64
69063 Off ch=14 n=c4 v=64
69063 Off ch=14 n=e5 v=64
69067 Par ch=14 c=64 v=0
69086 On ch=14 n=b5 v=47
69090 On ch=14 n=c5 v=38
69091 On ch=14 n=f#5 v=38
69093 On ch=14 n=d4 v=38
69124 Par ch=14 c=64 v=127
69181 On ch=14 n=a5 v=43
69228 Off ch=14 n=b5 v=64
69250 Par ch=14 c=64 v=0
69259 On ch=14 n=b4 v=38
69259 On ch=14 n=g4 v=38
69259 On ch=14 n=g3 v=38
69261 On ch=14 n=g5 v=42
69266 Off ch=14 n=a5 v=64
69276 Off ch=14 n=c5 v=64
69277 Off ch=14 n=f#5 v=64
69284 Off ch=14 n=d4 v=64
69303 Par ch=14 c=64 v=127
69423 Par ch=14 c=64 v=0
69441 On ch=14 n=d4 v=38
69444 On ch=14 n=b5 v=43
69444 On ch=14 n=f#5 v=38
69445 On ch=14 n=c5 v=38
69483 Par ch=14 c=64 v=127
69490 Off ch=14 n=g3 v=64
69490 Off ch=14 n=g4 v=64
69490 Off ch=14 n=b4 v=64
69492 Off ch=14 n=g5 v=64
69561 Off ch=14 n=b5 v=64
69657 On ch=14 n=b5 v=47
69666 On ch=14 n=d3 v=38
69809 On ch=14 n=a5 v=29
69849 Off ch=14 n=f#5 v=64
69853 Off ch=14 n=b5 v=64
69854 Off ch=14 n=c5 v=64
69875 On ch=14 n=g3 v=38
69882 Off ch=14 n=a5 v=64
69883 On ch=14 n=b4 v=38
69884 On ch=14 n=g5 v=43
69894 Off ch=14 n=d3 v=64
69900 Par ch=14 c=64 v=0
69949 Par ch=14 c=64 v=127
69972 Off ch=14 n=d4 v=64
70165 On ch=14 n=g4 v=27
70173 On ch=14 n=e5 v=27
70173 On ch=14 n=c4 v=27
70176 On ch=14 n=c6 v=33
70195 Off ch=14 n=g3 v=64
70203 Off ch=14 n=b4 v=64
70204 Off ch=14 n=g5 v=64
70264 Par ch=14 c=64 v=0
70348 Par ch=14 c=64 v=127
70558 Off ch=14 n=e5 v=64
70567 On ch=14 n=g5 v=36
70574 On ch=14 n=d5 v=31
70574 On ch=14 n=b3 v=27
70582 Off ch=14 n=c4 v=64
70588 Par ch=14 c=64 v=0
70613 Off ch=14 n=c6 v=64
70688 Par ch=14 c=64 v=127
70771 On ch=14 n=b5 v=29
70771 On ch=14 n=e5 v=31
70781 On ch=14 n=c4 v=27
70786 Off ch=14 n=g5 v=64
70793 Off ch=14 n=b3 v=64
70793 Off ch=14 n=d5 v=64
70822 On ch=14 n=d5 v=31
70837 Off ch=14 n=e5 v=64
70837 On ch=14 n=b3 v=27
70847 Off ch=14 n=c4 v=64
70893 On ch=14 n=e5 v=31
70898 Off ch=14 n=d5 v=64
70901 On ch=14 n=c4 v=27
70903 Off ch=14 n=b3 v=64
70931 Par ch=14 c=64 v=0
70932 Off ch=14 n=b5 v=64
70944 Off ch=14 n=g4 v=64
70959 Off ch=14 n=e5 v=64
70965 On ch=14 n=b5 v=29
70965 On ch=14 n=d4 v=31
70966 On ch=14 n=c5 v=35
70967 Off ch=14 n=c4 v=64
70969 On ch=14 n=f#5 v=31
71003 Par ch=14 c=64 v=127
71145 On ch=14 n=a5 v=37
71157 Off ch=14 n=b5 v=64
71189 On ch=14 n=b4 v=34
71190 On ch=14 n=g5 v=41
71190 On ch=14 n=g3 v=25
71199 Off ch=14 n=d4 v=64
71200 Off ch=14 n=c5 v=64
71203 Off ch=14 n=f#5 v=64
71211 Off ch=14 n=a5 v=64
71368 Off ch=14 n=b4 v=64
71369 Off ch=14 n=g3 v=64
71369 Off ch=14 n=g5 v=64
71413 On ch=14 n=d3 v=22
71437 On ch=14 n=c5 v=32
71443 On ch=14 n=b5 v=33
71443 On ch=14 n=f#5 v=28
71818 Off ch=14 n=b5 v=64
71866 On ch=14 n=b5 v=39
71869 On ch=14 n=d4 v=23
72237 On ch=14 n=d5 v=19
72447 Off ch=14 n=c5 v=64
72453 Off ch=14 n=f#5 v=64
72493 On ch=14 n=a5 v=23
72522 Off ch=14 n=b5 v=64
72848 Par ch=14 c=64 v=0
72894 Off ch=14 n=d4 v=64
72897 On ch=14 n=g3 v=25
72901 On ch=14 n=d8 v=39
72902 Off ch=14 n=d5 v=64
72908 Off ch=14 n=a5 v=64
72918 Off ch=14 n=d3 v=64
72921 Par ch=14 c=64 v=127
72981 On ch=14 n=e8 v=39
72997 On ch=14 n=d4 v=25
73022 Off ch=14 n=d8 v=64
73061 On ch=14 n=d8 v=39
73069 On ch=14 n=g4 v=25
73078 Off ch=14 n=e8 v=64
73094 Off ch=14 n=d4 v=64
73141 On ch=14 n=b7 v=39
73141 On ch=14 n=b4 v=25
73148 Off ch=14 n=d8 v=64
73156 Off ch=14 n=g4 v=64
73205 On ch=14 n=d5 v=31
73213 On ch=14 n=c8 v=39
73215 Off ch=14 n=b7 v=64
73218 Off ch=14 n=b4 v=64
73272 Off ch=14 n=d5 v=64
73293 On ch=14 n=b7 v=39
73293 On ch=14 n=b4 v=25
73294 Off ch=14 n=c8 v=64
73314 Off ch=14 n=g3 v=64
73353 On ch=14 n=g7 v=39
73353 On ch=14 n=g4 v=25
73355 Off ch=14 n=b4 v=64
73360 Off ch=14 n=b7 v=64
73409 On ch=14 n=d4 v=25
73418 On ch=14 n=a7 v=39
73423 Off ch=14 n=g4 v=64
73429 Off ch=14 n=g7 v=64
73466 On ch=14 n=g7 v=39
73469 On ch=14 n=g3 v=31
73471 Off ch=14 n=d4 v=64
73480 Off ch=14 n=a7 v=64
73525 On ch=14 n=d4 v=25
73526 On ch=14 n=e7 v=39
73533 Off ch=14 n=g7 v=64
73556 Off ch=14 n=g3 v=64
73594 On ch=14 n=f#7 v=39
73597 On ch=14 n=g3 v=25
73602 Off ch=14 n=d4 v=64
73603 Off ch=14 n=e7 v=64
73645 On ch=14 n=d4 v=25
73651 On ch=14 n=e7 v=39
73672 Off ch=14 n=f#7 v=64
73681 Par ch=14 c=64 v=0
73684 Off ch=14 n=g3 v=64
73722 Off ch=14 n=d4 v=64
73722 On ch=14 n=d7 v=39
73722 On ch=14 n=g3 v=25
73732 Off ch=14 n=e7 v=64
73746 Par ch=14 c=64 v=127
73781 On ch=14 n=d4 v=25
73787 On ch=14 n=e7 v=39
73798 Off ch=14 n=d7 v=64
73845 On ch=14 n=g4 v=25
73846 On ch=14 n=d7 v=39
73858 Off ch=14 n=d4 v=64
73868 Off ch=14 n=e7 v=64
73904 On ch=14 n=b6 v=31
73905 On ch=14 n=b4 v=25
73917 Off ch=14 n=d7 v=64
73932 Off ch=14 n=g4 v=64
73973 On ch=14 n=c7 v=31
73973 On ch=14 n=d5 v=25
73991 Off ch=14 n=b6 v=64
73992 Off ch=14 n=b4 v=64
74030 On ch=14 n=b6 v=31
74037 On ch=14 n=b4 v=25
74041 Off ch=14 n=c7 v=64
74049 Off ch=14 n=d5 v=64
74077 On ch=14 n=g4 v=25
74078 On ch=14 n=g6 v=31
74107 Off ch=14 n=b6 v=64
74114 Off ch=14 n=b4 v=64
74129 On ch=14 n=a6 v=31
74133 On ch=14 n=d4 v=25
74139 Off ch=14 n=g4 v=64
74139 Off ch=14 n=g3 v=64
74145 Off ch=14 n=g6 v=64
74190 On ch=14 n=g6 v=31
74193 On ch=14 n=g3 v=31
74197 Off ch=14 n=a6 v=64
74202 Off ch=14 n=d4 v=64
74253 On ch=14 n=e6 v=31
74253 On ch=14 n=d4 v=25
74258 Off ch=14 n=g6 v=64
74280 Off ch=14 n=g3 v=64
74301 On ch=14 n=g3 v=25
74305 On ch=14 n=f#6 v=31
74320 Off ch=14 n=d4 v=64
74340 Off ch=14 n=e6 v=64
74373 On ch=14 n=d4 v=25
74377 On ch=14 n=e6 v=31
74385 Off ch=14 n=f#6 v=64
74388 Off ch=14 n=g3 v=64
74435 Off ch=14 n=d4 v=64
74437 On ch=14 n=g3 v=25
74441 On ch=14 n=d6 v=31
74445 Par ch=14 c=64 v=0
74457 Off ch=14 n=e6 v=64
74469 Par ch=14 c=64 v=127
74493 On ch=14 n=e6 v=31
74497 On ch=14 n=d4 v=25
74506 Off ch=14 n=d6 v=64
74557 On ch=14 n=d6 v=38
74557 On ch=14 n=f#4 v=25
74567 Off ch=14 n=e6 v=64
74571 Off ch=14 n=d4 v=64
74603 On ch=14 n=a5 v=31
74606 On ch=14 n=c5 v=25
74631 Off ch=14 n=d6 v=64
74641 Off ch=14 n=f#4 v=64
74662 On ch=14 n=f#6 v=31
74662 On ch=14 n=d5 v=25
74686 Off ch=14 n=c5 v=64
74714 On ch=14 n=c5 v=25
74717 On ch=14 n=e6 v=31
74731 Off ch=14 n=f#6 v=64
74739 Off ch=14 n=d5 v=64
74779 On ch=14 n=d6 v=31
74782 On ch=14 n=f#4 v=25
74786 Off ch=14 n=e6 v=64
74791 Off ch=14 n=c5 v=64
74834 On ch=14 n=d4 v=25
74841 On ch=14 n=e6 v=31
74847 Off ch=14 n=d6 v=64
74851 Off ch=14 n=g3 v=64
74858 Off ch=14 n=a5 v=64
74859 Off ch=14 n=f#4 v=64
74890 Off ch=14 n=d4 v=64
74890 On ch=14 n=g3 v=25
74891 On ch=14 n=d6 v=38
74913 Off ch=14 n=e6 v=64
74942 On ch=14 n=d4 v=25
74943 On ch=14 n=a5 v=31
74950 Off ch=14 n=d6 v=64
74960 Off ch=14 n=g3 v=64
74987 On ch=14 n=f#6 v=31
74987 On ch=14 n=g3 v=31
74997 Off ch=14 n=d4 v=64
75044 On ch=14 n=d4 v=25
75047 On ch=14 n=e6 v=31
75057 Off ch=14 n=f#6 v=64
75068 Off ch=14 n=g3 v=64
75101 On ch=14 n=d6 v=31
75101 On ch=14 n=g3 v=25
75113 Off ch=14 n=e6 v=64
75118 Off ch=14 n=d4 v=64
75127 Par ch=14 c=64 v=0
75164 On ch=14 n=e6 v=31
75165 On ch=14 n=d4 v=25
75170 Off ch=14 n=d6 v=64
75189 Off ch=14 n=a5 v=64
75194 Par ch=14 c=64 v=127
75217 On ch=14 n=d6 v=38
75217 On ch=14 n=f#4 v=25
75231 Off ch=14 n=e6 v=64
75242 Off ch=14 n=d4 v=64
75276 On ch=14 n=b5 v=31
75277 On ch=14 n=c5 v=25
75291 Off ch=14 n=d6 v=64
75294 Off ch=14 n=f#4 v=64
75329 On ch=14 n=f#6 v=31
75329 On ch=14 n=d5 v=25
75344 Off ch=14 n=c5 v=64
75397 On ch=14 n=e6 v=31
75397 On ch=14 n=c5 v=25
75406 Off ch=14 n=d5 v=64
75411 Off ch=14 n=f#6 v=64
75473 Off ch=14 n=e6 v=64
75477 On ch=14 n=d6 v=31
75477 On ch=14 n=f#4 v=25
75480 Off ch=14 n=c5 v=64
75518 Off ch=14 n=g3 v=64
75528 Off ch=14 n=b5 v=64
75534 On ch=14 n=e6 v=31
75534 On ch=14 n=d4 v=25
75541 Off ch=14 n=f#4 v=64
75557 Off ch=14 n=d6 v=64
75596 Off ch=14 n=d4 v=64
75606 On ch=14 n=d6 v=38
75606 On ch=14 n=g3 v=31
75611 Off ch=14 n=e6 v=64
75670 On ch=14 n=f#5 v=31
75670 On ch=14 n=d4 v=25
75680 Off ch=14 n=d6 v=64
75690 Off ch=14 n=g3 v=64
75744 Off ch=14 n=d4 v=64
75751 On ch=14 n=g3 v=25
75755 On ch=14 n=f#6 v=31
75842 Off ch=14 n=f#6 v=64
75843 On ch=14 n=e6 v=31
75843 On ch=14 n=d4 v=25
75862 Off ch=14 n=g3 v=64
75896 Par ch=14 c=64 v=0
75922 Off ch=14 n=f#5 v=64
75944 On ch=14 n=d6 v=31
75947 On ch=14 n=g5 v=31
75957 On ch=14 n=g3 v=25
75965 Off ch=14 n=d4 v=64
75965 Off ch=14 n=e6 v=64
75971 Par ch=14 c=64 v=127
76009 Off ch=14 n=d6 v=64
76012 Off ch=14 n=g5 v=64
76104 On ch=14 n=d4 v=21
76106 On ch=14 n=e8 v=32
76172 On ch=14 n=g4 v=21
76174 On ch=14 n=d8 v=32
76183 Off ch=14 n=d4 v=64
76190 Off ch=14 n=e8 v=64
76232 On ch=14 n=b4 v=21
76234 On ch=14 n=b7 v=32
76241 Off ch=14 n=d8 v=64
76249 Off ch=14 n=g4 v=64
76292 On ch=14 n=d5 v=21
76295 On ch=14 n=c8 v=32
76301 Off ch=14 n=b7 v=64
76309 Off ch=14 n=b4 v=64
76344 On ch=14 n=b7 v=32
76352 On ch=14 n=b4 v=21
76353 Off ch=14 n=d5 v=64
76374 Off ch=14 n=g3 v=64
76381 Off ch=14 n=c8 v=64
76400 On ch=14 n=g4 v=21
76401 On ch=14 n=g7 v=32
76409 Off ch=14 n=b4 v=64
76411 Off ch=14 n=b7 v=64
76461 On ch=14 n=a7 v=32
76462 Off ch=14 n=g4 v=64
76464 Off ch=14 n=g7 v=64
76464 On ch=14 n=d4 v=21
76512 On ch=14 n=g3 v=25
76515 On ch=14 n=g7 v=32
76525 Off ch=14 n=a7 v=64
76526 Off ch=14 n=d4 v=64
76568 On ch=14 n=e7 v=32
76572 On ch=14 n=d4 v=21
76589 Off ch=14 n=g7 v=64
76599 Off ch=14 n=g3 v=64
76636 On ch=14 n=g3 v=25
76637 Off ch=14 n=d4 v=64
76640 On ch=14 n=f#7 v=32
76644 Off ch=14 n=e7 v=64
76692 On ch=14 n=d4 v=21
76696 On ch=14 n=e7 v=32
76716 Off ch=14 n=f#7 v=64
76723 Off ch=14 n=g3 v=64
76727 Par ch=14 c=64 v=0
76754 Off ch=14 n=d4 v=64
76760 On ch=14 n=d7 v=32
76766 On ch=14 n=g3 v=21
76772 Off ch=14 n=e7 v=64
76789 Par ch=14 c=64 v=127
76824 On ch=14 n=d4 v=21
76830 On ch=14 n=e7 v=32
76841 Off ch=14 n=d7 v=64
76880 On ch=14 n=d7 v=32
76880 On ch=14 n=g4 v=21
76891 Off ch=14 n=d4 v=64
76901 Off ch=14 n=e7 v=64
76936 On ch=14 n=b6 v=25
76936 On ch=14 n=b4 v=21
76946 Off ch=14 n=d7 v=64
76947 Off ch=14 n=g4 v=64
77005 On ch=14 n=c7 v=25
77008 On ch=14 n=d5 v=21
77013 Off ch=14 n=b4 v=64
77013 Off ch=14 n=b6 v=64
77065 On ch=14 n=b6 v=25
77068 On ch=14 n=b4 v=21
77078 Off ch=14 n=c7 v=64
77082 Off ch=14 n=d5 v=64
77109 On ch=14 n=g6 v=25
77109 On ch=14 n=g4 v=21
77138 Off ch=14 n=b6 v=64
77142 Off ch=14 n=b4 v=64
77165 On ch=14 n=a6 v=25
77176 Off ch=14 n=g6 v=64
77177 On ch=14 n=d4 v=21
77180 Off ch=14 n=g3 v=64
77186 Off ch=14 n=g4 v=64
77221 On ch=14 n=g6 v=25
77221 On ch=14 n=g3 v=25
77232 Off ch=14 n=a6 v=64
77239 Off ch=14 n=d4 v=64
77273 On ch=14 n=d4 v=21
77277 On ch=14 n=e6 v=25
77294 Off ch=14 n=g6 v=64
77308 Off ch=14 n=g3 v=64
77345 On ch=14 n=g3 v=25
77349 On ch=14 n=f#6 v=25
77350 Off ch=14 n=d4 v=64
77360 Off ch=14 n=e6 v=64
77432 Off ch=14 n=g3 v=64
77433 On ch=14 n=e6 v=25
77437 On ch=14 n=d4 v=25
77446 Off ch=14 n=f#6 v=64
77454 Par ch=14 c=64 v=0
77514 Off ch=14 n=d4 v=64
77517 On ch=14 n=d6 v=25
77521 On ch=14 n=g3 v=21
77528 Par ch=14 c=64 v=127
77530 Off ch=14 n=e6 v=64
77583 On ch=14 n=d4 v=21
77591 On ch=14 n=e6 v=25
77630 Off ch=14 n=d6 v=64
77651 Off ch=14 n=d4 v=64
77663 On ch=14 n=d6 v=32
77668 Off ch=14 n=e6 v=64
77671 On ch=14 n=f#4 v=21
77738 Off ch=14 n=f#4 v=64
77740 Off ch=14 n=d6 v=64
77741 On ch=14 n=a5 v=29
77741 On ch=14 n=c5 v=21
77797 On ch=14 n=f#6 v=25
77797 On ch=14 n=d5 v=21
77808 Off ch=14 n=c5 v=64
77856 On ch=14 n=e6 v=25
77857 On ch=14 n=c5 v=21
77872 Off ch=14 n=d5 v=64
77876 Off ch=14 n=f#6 v=64
77917 On ch=14 n=f#4 v=21
77924 Off ch=14 n=c5 v=64
77924 On ch=14 n=d6 v=25
77936 Off ch=14 n=e6 v=64
77938 Off ch=14 n=g3 v=64
77981 On ch=14 n=d4 v=21
77984 Off ch=14 n=f#4 v=64
77985 On ch=14 n=e6 v=25
77994 Off ch=14 n=d6 v=64
77996 Off ch=14 n=a5 v=64
78035 On ch=14 n=d6 v=32
78037 On ch=14 n=g3 v=25
78043 Off ch=14 n=d4 v=64
78060 Off ch=14 n=e6 v=64
78097 On ch=14 n=d4 v=21
78098 On ch=14 n=a5 v=29
78114 Off ch=14 n=d6 v=64
78124 Off ch=14 n=g3 v=64
78161 On ch=14 n=g3 v=25
78163 On ch=14 n=f#6 v=25
78174 Off ch=14 n=d4 v=64
78221 On ch=14 n=d4 v=21
78223 On ch=14 n=e6 v=25
78242 Off ch=14 n=f#6 v=64
78248 Off ch=14 n=g3 v=64
78283 Off ch=14 n=d4 v=64
78285 On ch=14 n=g3 v=21
78289 On ch=14 n=d6 v=25
78296 Par ch=14 c=64 v=0
78303 Off ch=14 n=e6 v=64
78313 Par ch=14 c=64 v=0
78350 Off ch=14 n=a5 v=64
78355 On ch=14 n=e6 v=25
78358 On ch=14 n=d4 v=21
78361 Par ch=14 c=64 v=127
78365 Off ch=14 n=d6 v=64
78414 On ch=14 n=f#4 v=21
78417 On ch=14 n=d6 v=32
78427 Off ch=14 n=d4 v=64
78432 Off ch=14 n=e6 v=64
78481 Off ch=14 n=f#4 v=64
78482 On ch=14 n=c5 v=21
78485 On ch=14 n=b5 v=29
78489 Off ch=14 n=d6 v=64
78546 On ch=14 n=f#6 v=25
78546 On ch=14 n=d5 v=21
78560 Off ch=14 n=c5 v=64
78610 On ch=14 n=c5 v=21
78611 On ch=14 n=e6 v=25
78628 Off ch=14 n=f#6 v=64
78630 Off ch=14 n=d5 v=64
78670 On ch=14 n=f#4 v=21
78671 On ch=14 n=d6 v=25
78677 Off ch=14 n=c5 v=64
78693 Off ch=14 n=e6 v=64
78699 Off ch=14 n=g3 v=64
78734 On ch=14 n=e6 v=25
78734 On ch=14 n=d4 v=21
78735 Off ch=14 n=f#4 v=64
78740 Off ch=14 n=b5 v=64
78755 Off ch=14 n=d6 v=64
78796 Off ch=14 n=d4 v=64
78802 On ch=14 n=g3 v=25
78807 On ch=14 n=d6 v=32
78814 Off ch=14 n=e6 v=64
78862 On ch=14 n=d4 v=21
78869 On ch=14 n=a5 v=29
78881 Off ch=14 n=d6 v=64
78889 Off ch=14 n=g3 v=64
78926 On ch=14 n=g3 v=25
78930 On ch=14 n=f#6 v=25
78946 Off ch=14 n=d4 v=64
78986 On ch=14 n=d4 v=21
78989 On ch=14 n=e6 v=25
79001 Par ch=14 c=64 v=0
79013 Off ch=14 n=f#6 v=64
79013 Off ch=14 n=g3 v=64
79051 Off ch=14 n=d4 v=64
79051 Par ch=14 c=64 v=0
79071 On ch=14 n=d6 v=25
79072 On ch=14 n=g3 v=21
79086 Off ch=14 n=e6 v=64
79124 Off ch=14 n=a5 v=64
79136 Par ch=14 c=64 v=127
79140 Off ch=14 n=d6 v=64
79144 On ch=14 n=e6 v=25
79144 On ch=14 n=d4 v=21
79200 Off ch=14 n=e6 v=64
79212 On ch=14 n=d6 v=32
79212 On ch=14 n=g4 v=21
79213 Off ch=14 n=d4 v=64
79267 Off ch=14 n=d6 v=64
79287 Off ch=14 n=g4 v=64
79288 On ch=14 n=g5 v=25
79292 On ch=14 n=b4 v=21
79317 Par ch=14 c=64 v=0
79352 On ch=14 n=d5 v=21
79356 On ch=14 n=g6 v=25
79367 Off ch=14 n=b4 v=64
79424 On ch=14 n=b4 v=21
79427 Off ch=14 n=d5 v=64
79428 On ch=14 n=e6 v=25
79439 Off ch=14 n=g6 v=64
79472 On ch=14 n=d6 v=25
79472 On ch=14 n=g4 v=25
79489 Off ch=14 n=g3 v=64
79499 Off ch=14 n=b4 v=64
79511 Off ch=14 n=e6 v=64
79532 On ch=14 n=e6 v=25
79532 On ch=14 n=d4 v=21
79543 Off ch=14 n=g5 v=64
79547 Off ch=14 n=g4 v=64
79555 Off ch=14 n=d6 v=64
79580 On ch=14 n=d6 v=32
79580 On ch=14 n=g3 v=25
79607 Off ch=14 n=d4 v=64
79615 Off ch=14 n=e6 v=64
79652 On ch=14 n=b5 v=25
79652 On ch=14 n=d4 v=21
79655 Off ch=14 n=g3 v=64
79663 Off ch=14 n=d6 v=64
79712 On ch=14 n=g3 v=25
79714 On ch=14 n=b6 v=25
79724 Off ch=14 n=d4 v=64
79755 On ch=14 n=g6 v=25
79755 On ch=14 n=d4 v=21
79786 Off ch=14 n=b6 v=64
79789 Off ch=14 n=g3 v=64
79798 Par ch=14 c=64 v=0
79807 On ch=14 n=g3 v=21
79810 On ch=14 n=e6 v=25
79813 Par ch=14 c=64 v=0
79822 Off ch=14 n=d4 v=64
79838 Off ch=14 n=g6 v=64
79863 On ch=14 n=f#6 v=25
79863 On ch=14 n=d4 v=21
79880 Par ch=14 c=64 v=127
79890 Off ch=14 n=e6 v=64
79901 Off ch=14 n=b5 v=64
79904 On ch=14 n=g4 v=21
79906 On ch=14 n=e6 v=25
79927 Off ch=14 n=d4 v=64
79943 Off ch=14 n=f#6 v=64
79964 On ch=14 n=d6 v=32
79964 On ch=14 n=b4 v=21
79981 Off ch=14 n=g4 v=64
79989 Off ch=14 n=e6 v=64
80026 On ch=14 n=d7 v=32
80028 On ch=14 n=d5 v=21
80031 Off ch=14 n=b4 v=64
80084 On ch=14 n=b4 v=21
80085 On ch=14 n=b6 v=25
80105 Off ch=14 n=d5 v=64
80109 Off ch=14 n=d7 v=64
80132 On ch=14 n=g4 v=21
80135 On ch=14 n=a6 v=25
80161 Off ch=14 n=b4 v=64
80168 Off ch=14 n=b6 v=64
80184 On ch=14 n=b6 v=25
80188 On ch=14 n=d4 v=21
80218 Off ch=14 n=a6 v=64
80219 Off ch=14 n=d6 v=64
80221 Off ch=14 n=g3 v=64
80225 Off ch=14 n=g4 v=64
80228 On ch=14 n=g3 v=25
80230 On ch=14 n=a6 v=25
80250 Off ch=14 n=d4 v=64
80267 Off ch=14 n=b6 v=64
80272 On ch=14 n=d4 v=21
80273 On ch=14 n=g6 v=25
80313 Off ch=14 n=a6 v=64
80315 Off ch=14 n=g3 v=64
80332 On ch=14 n=g3 v=25
80334 On ch=14 n=g7 v=32
80344 Off ch=14 n=d4 v=64
80381 On ch=14 n=d4 v=21
80389 On ch=14 n=e7 v=32
80414 Off ch=14 n=g7 v=64
80416 Off ch=14 n=g3 v=64
80453 On ch=14 n=g3 v=21
80456 Off ch=14 n=d4 v=64
80456 Par ch=14 c=64 v=0
80457 On ch=14 n=d7 v=31
80465 Off ch=14 n=e7 v=64
80513 On ch=14 n=d4 v=21
80517 On ch=14 n=e7 v=31
80525 Off ch=14 n=g6 v=64
80540 Off ch=14 n=d7 v=64
80565 On ch=14 n=d7 v=31
80565 On ch=14 n=g4 v=21
80588 Off ch=14 n=d4 v=64
80600 Off ch=14 n=e7 v=64
80610 On ch=14 n=b6 v=24
80610 On ch=14 n=b4 v=21
80637 Off ch=14 n=g4 v=64
80645 Off ch=14 n=d7 v=64
80650 On ch=14 n=b7 v=31
80650 On ch=14 n=d5 v=21
80685 Off ch=14 n=b4 v=64
80694 On ch=14 n=g7 v=31
80698 On ch=14 n=b4 v=21
80725 Off ch=14 n=d5 v=64
80733 Off ch=14 n=b7 v=64
80742 On ch=14 n=e7 v=31
80742 On ch=14 n=g4 v=21
80773 Off ch=14 n=b4 v=64
80780 Off ch=14 n=g3 v=64
80781 Off ch=14 n=g7 v=64
80786 On ch=14 n=d4 v=21
80790 On ch=14 n=f#7 v=30
80817 Off ch=14 n=g4 v=64
80825 Off ch=14 n=e7 v=64
80834 On ch=14 n=g3 v=25
80838 On ch=14 n=e7 v=30
80848 Off ch=14 n=d4 v=64
80865 Off ch=14 n=b6 v=64
80873 Off ch=14 n=f#7 v=64
80882 On ch=14 n=d4 v=21
80887 On ch=14 n=d7 v=30
80921 Off ch=14 n=e7 v=64
80921 Off ch=14 n=g3 v=64
80935 On ch=14 n=d8 v=30
80938 On ch=14 n=g3 v=25
80947 Off ch=14 n=d4 v=64
80986 On ch=14 n=d4 v=21
80991 On ch=14 n=b7 v=30
81018 Off ch=14 n=d8 v=64
81025 Off ch=14 n=g3 v=64
81049 Par ch=14 c=64 v=0
81050 On ch=14 n=g3 v=21
81054 On ch=14 n=a7 v=30
81073 Off ch=14 n=d4 v=64
81074 Off ch=14 n=b7 v=64
81104 On ch=14 n=d4 v=21
81109 On ch=14 n=b7 v=29
81131 Off ch=14 n=a7 v=64
81142 Off ch=14 n=d7 v=64
81150 On ch=14 n=a7 v=29
81150 On ch=14 n=g4 v=21
81179 Off ch=14 n=d4 v=64
81186 Off ch=14 n=b7 v=64
81202 On ch=14 n=b4 v=21
81208 On ch=14 n=g7 v=28
81225 Off ch=14 n=g4 v=64
81227 Off ch=14 n=a7 v=64
81266 On ch=14 n=d5 v=21
81268 On ch=14 n=d8 v=28
81279 Off ch=14 n=b4 v=64
81318 On ch=14 n=b4 v=21
81321 On ch=14 n=b7 v=28
81351 Off ch=14 n=d8 v=64
81352 Off ch=14 n=d5 v=64
81375 Off ch=14 n=g3 v=64
81378 On ch=14 n=g4 v=24
81381 On ch=14 n=a7 v=28
81395 Off ch=14 n=b4 v=64
81404 Off ch=14 n=b7 v=64
81430 On ch=14 n=d4 v=20
81434 On ch=14 n=b7 v=27
81455 Off ch=14 n=g4 v=64
81463 Off ch=14 n=g7 v=64
81464 Off ch=14 n=a7 v=64
81492 On ch=14 n=a7 v=27
81494 On ch=14 n=g3 v=24
81505 Off ch=14 n=d4 v=64
81517 Off ch=14 n=b7 v=64
81554 On ch=14 n=d4 v=19
81555 On ch=14 n=g7 v=27
81575 Off ch=14 n=a7 v=64
81581 Off ch=14 n=g3 v=64
81618 On ch=14 n=g3 v=24
81619 On ch=14 n=e8 v=27
81629 Off ch=14 n=d4 v=64
81705 Off ch=14 n=g3 v=64
81709 Par ch=14 c=64 v=0
81714 On ch=14 n=c#8 v=27
81714 On ch=14 n=d4 v=19
81729 Off ch=14 n=e8 v=64
81778 On ch=14 n=d8 v=27
81782 On ch=14 n=g3 v=19
81789 Off ch=14 n=d4 v=64
81795 Off ch=14 n=c#8 v=64
81798 Off ch=14 n=g7 v=64
81820 Par ch=14 c=64 v=127
81854 On ch=14 n=d4 v=18
81912 On ch=14 n=g4 v=18
81931 Off ch=14 n=d4 v=64
81949 Off ch=14 n=d8 v=64
81989 Off ch=14 n=g4 v=64
81990 On ch=14 n=b4 v=18
82084 On ch=14 n=d5 v=18
82098 Off ch=14 n=b4 v=64
82162 On ch=14 n=b4 v=18
82170 Off ch=14 n=g3 v=64
82171 Off ch=14 n=d5 v=64
82242 On ch=14 n=e7 v=19
82246 On ch=14 n=g4 v=18
82280 Off ch=14 n=b4 v=64
82318 On ch=14 n=f#7 v=19
82326 On ch=14 n=d4 v=18
82329 Off ch=14 n=e7 v=64
82345 Off ch=14 n=g4 v=64
82395 Off ch=14 n=f#7 v=64
82398 On ch=14 n=e7 v=19
82401 Off ch=14 n=d4 v=64
82402 On ch=14 n=g3 v=21
82481 Par ch=14 c=64 v=0
82482 On ch=14 n=d4 v=18
82485 Off ch=14 n=e7 v=64
82489 Off ch=14 n=g3 v=64
82490 On ch=14 n=d7 v=19
82554 On ch=14 n=b7 v=19
82554 On ch=14 n=g3 v=21
82578 Off ch=14 n=d4 v=64
82634 On ch=14 n=d4 v=17
82638 On ch=14 n=g7 v=19
82640 Off ch=14 n=b7 v=64
82657 Off ch=14 n=g3 v=64
82693 Off ch=14 n=g7 v=64
82714 Par ch=14 c=64 v=0
82728 On ch=14 n=g7 v=19
82730 On ch=14 n=g3 v=17
82745 Off ch=14 n=d7 v=64
82765 Off ch=14 n=d4 v=64
82776 Par ch=14 c=64 v=127
82822 On ch=14 n=d4 v=17
82908 On ch=14 n=g4 v=17
82947 Off ch=14 n=d4 v=64
82985 On ch=14 n=b4 v=16
82997 Off ch=14 n=g4 v=64
83058 On ch=14 n=d5 v=16
83077 Off ch=14 n=b4 v=64
83147 Off ch=14 n=g3 v=64
83151 On ch=14 n=b4 v=16
83161 Off ch=14 n=d5 v=64
83235 On ch=14 n=g4 v=16
83240 Off ch=14 n=b4 v=64
83308 On ch=14 n=d4 v=16
83330 Off ch=14 n=g4 v=64
83383 Off ch=14 n=g7 v=64
83405 Off ch=14 n=d4 v=64
83420 On ch=14 n=g3 v=16
83519 On ch=14 n=d4 v=15
83533 Off ch=14 n=g3 v=64
83649 Off ch=14 n=d4 v=64
83651 On ch=14 n=g3 v=14
83762 On ch=14 n=d4 v=14
83786 Off ch=14 n=g3 v=64
83960 Off ch=14 n=d4 v=64
83970 On ch=14 n=c6 v=33
83970 On ch=14 n=e5 v=28
83970 On ch=14 n=g4 v=27
83971 On ch=14 n=c4 v=34
83996 Par ch=14 c=64 v=0
84135 Par ch=14 c=64 v=127
84304 Par ch=14 c=64 v=0
84683 On ch=14 n=g5 v=45
84689 Off ch=14 n=e5 v=64
84689 Off ch=14 n=c6 v=64
84690 Off ch=14 n=c4 v=64
84690 On ch=14 n=d5 v=34
84693 On ch=14 n=b3 v=34
84709 Par ch=14 c=64 v=0
84758 Par ch=14 c=64 v=127
84863 Par ch=14 c=64 v=0
85002 On ch=14 n=b5 v=40
85008 On ch=14 n=e5 v=29
85012 On ch=14 n=c4 v=34
85022 Off ch=14 n=g5 v=64
85029 Off ch=14 n=d5 v=64
85032 Off ch=14 n=b3 v=64
85037 Par ch=14 c=64 v=127
85284 Off ch=14 n=b5 v=64
85302 On ch=14 n=b5 v=36
85306 On ch=14 n=c5 v=23
85312 Off ch=14 n=g4 v=64
85312 On ch=14 n=f#4 v=24
85312 On ch=14 n=d4 v=24
85331 Par ch=14 c=64 v=0
85347 Off ch=14 n=e5 v=64
85351 Off ch=14 n=c4 v=64
85361 Par ch=14 c=64 v=127
85430 On ch=14 n=a5 v=34
85435 Off ch=14 n=b5 v=64
85550 On ch=14 n=g5 v=32
85550 On ch=14 n=b4 v=21
85550 On ch=14 n=g4 v=10
85554 On ch=14 n=g3 v=19
85557 Off ch=14 n=c5 v=64
85563 Off ch=14 n=d4 v=64
85563 Off ch=14 n=f#4 v=64
85594 Off ch=14 n=a5 v=64
85753 Off ch=14 n=g4 v=64
85753 Off ch=14 n=b4 v=64
85753 Off ch=14 n=g5 v=64
85757 Off ch=14 n=g3 v=64
85832 On ch=14 n=b5 v=42
85835 On ch=14 n=c5 v=20
85836 On ch=14 n=f#5 v=23
85848 On ch=14 n=d3 v=32
85934 Par ch=14 c=64 v=0
86048 Par ch=14 c=64 v=127
86177 Off ch=14 n=b5 v=64
86319 Par ch=14 c=64 v=0
86360 On ch=14 n=d4 v=28
86374 On ch=14 n=b5 v=43
86388 Par ch=14 c=64 v=127
87038 On ch=14 n=d5 v=24
87131 Off ch=14 n=c5 v=64
87134 Off ch=14 n=f#5 v=64
87326 Off ch=14 n=b5 v=64
87327 Off ch=14 n=d5 v=64
87329 On ch=14 n=a5 v=37
87808 Off ch=14 n=a5 v=64
87808 On ch=14 n=g5 v=34
87879 Off ch=14 n=g5 v=64
87916 Off ch=14 n=d4 v=64
87921 On ch=14 n=g2 v=36
87945 On ch=14 n=g5 v=28
87953 Off ch=14 n=d3 v=64
88089 On ch=14 n=g3 v=24
88221 On ch=14 n=d4 v=31
88341 On ch=14 n=b4 v=30
90072 Off ch=14 n=g3 v=64
90072 Off ch=14 n=g5 v=64
90076 Off ch=14 n=b4 v=64
90079 Off ch=14 n=d4 v=64
90080 Off ch=14 n=g2 v=64
91144 Par ch=14 c=64 v=0
91144 Meta TrkEnd
TrkEnd
MTrk
0 Meta TrkName "Andante Spianato, Op. 22"
0 Meta TrkEnd
TrkEnd
MTrk
0 Meta TrkName "Realtime  sequence 8/97 by"
0 Meta TrkEnd
TrkEnd
MTrk
0 Meta TrkName "Ron Lubetsky, MD"
0 Meta TrkEnd
TrkEnd
MTrk
0 Meta TrkName "Copyright \xffffffa9 1997 by"
0 Meta TrkEnd
TrkEnd
MTrk
0 Meta TrkName "Ron Lubetsky, MD"
0 Meta TrkEnd
TrkEnd
MTrk
0 Meta TrkName "All rights reserved."
0 Meta TrkEnd
TrkEnd
