MFile 1 4 480
MTrk
0 Tempo 240000
0 Meta TrkEnd
TrkEnd
MTrk
0 SeqSpec 43 00 01 00
0 Meta TrkName "Melodie main droite"
4 PrCh ch=1 p=0
4 Par ch=1 c=10 v=72
4 Par ch=1 c=7 v=120
4 On ch=1 n=a#4 v=65
354 On ch=1 n=a#4 v=0
354 On ch=1 n=b4 v=60
680 On ch=1 n=b4 v=0
680 On ch=1 n=a4 v=65
1012 On ch=1 n=a4 v=0
1012 On ch=1 n=a#4 v=65
1354 On ch=1 n=a#4 v=0
1354 On ch=1 n=d#4 v=65
2248 On ch=1 n=d#4 v=0
4290 On ch=1 n=d#4 v=41
4290 On ch=1 n=f#4 v=41
4290 On ch=1 n=a#4 v=41
4716 On ch=1 n=a#4 v=0
4716 On ch=1 n=f#4 v=0
4716 On ch=1 n=d#4 v=0
4716 On ch=1 n=a#4 v=45
4716 On ch=1 n=f#4 v=45
4716 On ch=1 n=d#4 v=45
5108 On ch=1 n=d#4 v=0
5108 On ch=1 n=f#4 v=0
5108 On ch=1 n=a#4 v=0
5108 On ch=1 n=a#4 v=56
5108 On ch=1 n=f#4 v=56
5108 On ch=1 n=d#4 v=56
5958 On ch=1 n=d#4 v=0
5958 On ch=1 n=f#4 v=0
5958 On ch=1 n=a#4 v=0
5958 On ch=1 n=a#4 v=50
5958 On ch=1 n=f#4 v=50
5958 On ch=1 n=d#4 v=50
6372 On ch=1 n=d#4 v=0
6372 On ch=1 n=f#4 v=0
6372 On ch=1 n=a#4 v=0
6372 On ch=1 n=a#4 v=55
6372 On ch=1 n=f#4 v=55
6372 On ch=1 n=d#4 v=55
6772 On ch=1 n=d#4 v=0
6772 On ch=1 n=f#4 v=0
6772 On ch=1 n=a#4 v=0
6772 On ch=1 n=a#4 v=65
6772 On ch=1 n=f#4 v=65
6772 On ch=1 n=d#4 v=65
7682 On ch=1 n=d#4 v=0
7682 On ch=1 n=f#4 v=0
7682 On ch=1 n=a#4 v=0
7682 On ch=1 n=a#4 v=65
7682 On ch=1 n=f#4 v=65
7682 On ch=1 n=d#4 v=65
8090 On ch=1 n=d#4 v=0
8090 On ch=1 n=f#4 v=0
8090 On ch=1 n=a#4 v=0
8090 On ch=1 n=a#4 v=65
8090 On ch=1 n=f#4 v=65
8090 On ch=1 n=d#4 v=65
8638 On ch=1 n=d#4 v=0
8638 On ch=1 n=f#4 v=0
8638 On ch=1 n=a#4 v=0
8638 On ch=1 n=a#4 v=67
8638 On ch=1 n=f#4 v=67
8638 On ch=1 n=d#4 v=67
9932 On ch=1 n=d#4 v=0
9932 On ch=1 n=f#4 v=0
9932 On ch=1 n=a#4 v=0
11178 On ch=1 n=a#4 v=47
11554 On ch=1 n=a#4 v=0
11554 On ch=1 n=b4 v=65
11918 On ch=1 n=b4 v=0
11918 On ch=1 n=a4 v=65
12264 On ch=1 n=a4 v=0
12264 On ch=1 n=a#4 v=65
12694 On ch=1 n=a#4 v=0
12694 On ch=1 n=d#4 v=48
13894 On ch=1 n=d#4 v=0
15576 On ch=1 n=b4 v=51
15576 On ch=1 n=g#4 v=51
15576 On ch=1 n=f4 v=51
15940 On ch=1 n=f4 v=0
15940 On ch=1 n=g#4 v=0
15940 On ch=1 n=b4 v=0
15940 On ch=1 n=b4 v=65
15940 On ch=1 n=g#4 v=65
15940 On ch=1 n=f4 v=65
16304 On ch=1 n=f4 v=0
16304 On ch=1 n=g#4 v=0
16304 On ch=1 n=b4 v=0
16304 On ch=1 n=b4 v=64
16304 On ch=1 n=g#4 v=64
16304 On ch=1 n=f4 v=64
17146 On ch=1 n=f4 v=0
17146 On ch=1 n=g#4 v=0
17146 On ch=1 n=b4 v=0
17146 On ch=1 n=b4 v=55
17146 On ch=1 n=g#4 v=55
17146 On ch=1 n=f4 v=55
17530 On ch=1 n=f4 v=0
17530 On ch=1 n=g#4 v=0
17530 On ch=1 n=b4 v=0
17530 On ch=1 n=b4 v=58
17530 On ch=1 n=g#4 v=58
17530 On ch=1 n=f4 v=58
17918 On ch=1 n=f4 v=0
17918 On ch=1 n=g#4 v=0
17918 On ch=1 n=b4 v=0
17918 On ch=1 n=b4 v=59
17918 On ch=1 n=g#4 v=59
17918 On ch=1 n=f4 v=59
18744 On ch=1 n=f4 v=0
18744 On ch=1 n=g#4 v=0
18744 On ch=1 n=b4 v=0
18744 On ch=1 n=b4 v=65
18744 On ch=1 n=g#4 v=65
18744 On ch=1 n=f4 v=65
19126 On ch=1 n=f4 v=0
19126 On ch=1 n=g#4 v=0
19126 On ch=1 n=b4 v=0
19126 On ch=1 n=b4 v=65
19126 On ch=1 n=g#4 v=65
19126 On ch=1 n=f4 v=65
19600 On ch=1 n=f4 v=0
19600 On ch=1 n=g#4 v=0
19600 On ch=1 n=b4 v=0
19600 On ch=1 n=b4 v=65
19600 On ch=1 n=g#4 v=65
19600 On ch=1 n=f4 v=65
20438 On ch=1 n=f4 v=0
20438 On ch=1 n=g#4 v=0
20438 On ch=1 n=b4 v=0
21604 On ch=1 n=b4 v=77
21962 On ch=1 n=b4 v=0
21962 On ch=1 n=c#5 v=77
22316 On ch=1 n=c#5 v=0
22316 On ch=1 n=a#4 v=77
22702 On ch=1 n=a#4 v=0
22702 On ch=1 n=b4 v=77
23084 On ch=1 n=b4 v=0
23084 On ch=1 n=d#4 v=77
23870 On ch=1 n=d#4 v=0
25464 On ch=1 n=b4 v=70
25464 On ch=1 n=g#4 v=70
25464 On ch=1 n=f4 v=70
25850 On ch=1 n=f4 v=0
25850 On ch=1 n=g#4 v=0
25850 On ch=1 n=b4 v=0
25850 On ch=1 n=b4 v=71
25850 On ch=1 n=g#4 v=71
25850 On ch=1 n=f4 v=71
26230 On ch=1 n=f4 v=0
26230 On ch=1 n=g#4 v=0
26230 On ch=1 n=b4 v=0
26230 On ch=1 n=b4 v=77
26230 On ch=1 n=g#4 v=77
26230 On ch=1 n=f4 v=77
27014 On ch=1 n=f4 v=0
27014 On ch=1 n=g#4 v=0
27014 On ch=1 n=b4 v=0
27014 On ch=1 n=b4 v=70
27014 On ch=1 n=g#4 v=70
27014 On ch=1 n=f4 v=70
27384 On ch=1 n=f4 v=0
27384 On ch=1 n=g#4 v=0
27384 On ch=1 n=b4 v=0
27384 On ch=1 n=b4 v=70
27384 On ch=1 n=g#4 v=70
27384 On ch=1 n=f4 v=70
27778 On ch=1 n=f4 v=0
27778 On ch=1 n=g#4 v=0
27778 On ch=1 n=b4 v=0
27778 On ch=1 n=b4 v=67
27778 On ch=1 n=g#4 v=67
27778 On ch=1 n=f4 v=67
28584 On ch=1 n=f4 v=0
28584 On ch=1 n=g#4 v=0
28584 On ch=1 n=b4 v=0
28584 On ch=1 n=b4 v=77
28584 On ch=1 n=g#4 v=77
28584 On ch=1 n=f4 v=77
28974 On ch=1 n=f4 v=0
28974 On ch=1 n=g#4 v=0
28974 On ch=1 n=b4 v=0
28974 On ch=1 n=b4 v=77
28974 On ch=1 n=g#4 v=77
28974 On ch=1 n=f4 v=77
29382 On ch=1 n=f4 v=0
29382 On ch=1 n=g#4 v=0
29382 On ch=1 n=b4 v=0
29382 On ch=1 n=b4 v=77
29382 On ch=1 n=g#4 v=77
29382 On ch=1 n=f4 v=77
30546 On ch=1 n=f4 v=0
30546 On ch=1 n=g#4 v=0
30546 On ch=1 n=b4 v=0
31370 On ch=1 n=b4 v=91
31752 On ch=1 n=b4 v=0
31752 On ch=1 n=c#5 v=95
32108 On ch=1 n=c#5 v=0
32108 On ch=1 n=a#4 v=95
32468 On ch=1 n=a#4 v=0
32468 On ch=1 n=b4 v=96
32814 On ch=1 n=b4 v=0
32814 On ch=1 n=d#4 v=96
33624 On ch=1 n=d#4 v=0
33624 On ch=1 n=b4 v=96
33624 On ch=1 n=g#4 v=96
33624 On ch=1 n=f4 v=96
33970 On ch=1 n=f4 v=0
33970 On ch=1 n=g#4 v=0
33970 On ch=1 n=b4 v=0
33970 On ch=1 n=b4 v=96
33970 On ch=1 n=g#4 v=96
33970 On ch=1 n=f4 v=96
34332 On ch=1 n=f4 v=0
34332 On ch=1 n=g#4 v=0
34332 On ch=1 n=b4 v=0
34332 On ch=1 n=b4 v=96
34332 On ch=1 n=g#4 v=96
34332 On ch=1 n=f4 v=96
35068 On ch=1 n=f4 v=0
35068 On ch=1 n=g#4 v=0
35068 On ch=1 n=b4 v=0
35068 On ch=1 n=f5 v=96
35068 On ch=1 n=d#5 v=96
35068 On ch=1 n=b4 v=96
35068 On ch=1 n=f4 v=96
35080 Par ch=1 c=64 v=127
35386 On ch=1 n=f4 v=0
35386 On ch=1 n=b4 v=0
35386 On ch=1 n=d#5 v=0
35386 On ch=1 n=f5 v=0
35386 On ch=1 n=f5 v=96
35386 On ch=1 n=d#5 v=96
35386 On ch=1 n=b4 v=96
35386 On ch=1 n=f4 v=96
35736 On ch=1 n=f4 v=0
35736 On ch=1 n=b4 v=0
35736 On ch=1 n=d#5 v=0
35736 On ch=1 n=f5 v=0
35736 On ch=1 n=f5 v=96
35736 On ch=1 n=d#5 v=96
35736 On ch=1 n=b4 v=96
35736 On ch=1 n=f4 v=96
36450 On ch=1 n=f4 v=0
36450 On ch=1 n=b4 v=0
36450 On ch=1 n=d#5 v=0
36450 On ch=1 n=f5 v=0
36450 On ch=1 n=f6 v=96
36450 On ch=1 n=d#6 v=96
36450 On ch=1 n=b5 v=96
36450 On ch=1 n=f5 v=96
36786 On ch=1 n=f5 v=0
36786 On ch=1 n=b5 v=0
36786 On ch=1 n=d#6 v=0
36786 On ch=1 n=f6 v=0
36786 On ch=1 n=f6 v=96
36786 On ch=1 n=d#6 v=96
36786 On ch=1 n=b5 v=96
36786 On ch=1 n=f5 v=96
37112 On ch=1 n=f5 v=0
37112 On ch=1 n=b5 v=0
37112 On ch=1 n=d#6 v=0
37112 On ch=1 n=f6 v=0
37112 On ch=1 n=f6 v=96
37112 On ch=1 n=d#6 v=96
37112 On ch=1 n=b5 v=96
37112 On ch=1 n=f5 v=96
37812 On ch=1 n=f5 v=0
37812 On ch=1 n=b5 v=0
37812 On ch=1 n=d#6 v=0
37812 On ch=1 n=f6 v=0
37812 On ch=1 n=f6 v=96
37812 On ch=1 n=d#6 v=96
37812 On ch=1 n=b5 v=96
37812 On ch=1 n=f5 v=96
38128 On ch=1 n=f5 v=0
38128 On ch=1 n=b5 v=0
38128 On ch=1 n=d#6 v=0
38128 On ch=1 n=f6 v=0
38128 On ch=1 n=f6 v=96
38128 On ch=1 n=d#6 v=96
38128 On ch=1 n=b5 v=96
38128 On ch=1 n=f5 v=96
38464 On ch=1 n=f5 v=0
38464 On ch=1 n=b5 v=0
38464 On ch=1 n=d#6 v=0
38464 On ch=1 n=f6 v=0
38464 On ch=1 n=f6 v=96
38464 On ch=1 n=d#6 v=96
38464 On ch=1 n=b5 v=96
38464 On ch=1 n=f5 v=96
39174 On ch=1 n=f5 v=0
39174 On ch=1 n=b5 v=0
39174 On ch=1 n=d#6 v=0
39174 On ch=1 n=f6 v=0
39174 On ch=1 n=f6 v=96
39174 On ch=1 n=d#6 v=96
39174 On ch=1 n=b5 v=96
39174 On ch=1 n=f5 v=96
39528 On ch=1 n=f5 v=0
39528 On ch=1 n=b5 v=0
39528 On ch=1 n=d#6 v=0
39528 On ch=1 n=f6 v=0
39528 On ch=1 n=f6 v=96
39528 On ch=1 n=d#6 v=96
39528 On ch=1 n=b5 v=96
39528 On ch=1 n=f5 v=96
40004 On ch=1 n=f5 v=0
40004 On ch=1 n=b5 v=0
40004 On ch=1 n=d#6 v=0
40004 On ch=1 n=f6 v=0
40004 Par ch=1 c=64 v=0
40004 On ch=1 n=a#6 v=114
40004 On ch=1 n=f6 v=114
40004 On ch=1 n=a#5 v=114
40018 Par ch=1 c=64 v=127
43094 On ch=1 n=a#5 v=0
43094 On ch=1 n=f6 v=0
43094 On ch=1 n=a#6 v=0
43094 Par ch=1 c=64 v=0
43094 On ch=1 n=d#5 v=99
44580 On ch=1 n=d#5 v=0
44580 On ch=1 n=f5 v=103
44592 Par ch=1 c=64 v=127
44670 On ch=1 n=f5 v=0
44670 On ch=1 n=d#5 v=103
44762 On ch=1 n=d#5 v=0
44762 On ch=1 n=f5 v=103
44852 On ch=1 n=f5 v=0
44852 On ch=1 n=d#5 v=103
44886 On ch=1 n=d#5 v=0
44886 On ch=1 n=f5 v=99
44960 On ch=1 n=f5 v=0
44960 On ch=1 n=d#5 v=99
45034 On ch=1 n=d#5 v=0
45034 On ch=1 n=f5 v=99
45108 On ch=1 n=f5 v=0
45108 On ch=1 n=d#5 v=99
45212 On ch=1 n=d#5 v=0
45212 On ch=1 n=f5 v=100
45292 On ch=1 n=f5 v=0
45292 On ch=1 n=d#5 v=100
45370 On ch=1 n=d#5 v=0
45370 On ch=1 n=f5 v=100
45450 On ch=1 n=f5 v=0
45450 On ch=1 n=d#5 v=100
45560 On ch=1 n=d#5 v=0
45560 On ch=1 n=f5 v=103
45644 On ch=1 n=f5 v=0
45644 On ch=1 n=d#5 v=103
45730 On ch=1 n=d#5 v=0
45730 On ch=1 n=f5 v=103
45814 On ch=1 n=f5 v=0
45814 On ch=1 n=d#5 v=103
45888 On ch=1 n=d#5 v=0
45888 On ch=1 n=f5 v=105
45974 On ch=1 n=f5 v=0
45974 On ch=1 n=d#5 v=105
46058 On ch=1 n=d#5 v=0
46058 On ch=1 n=f5 v=105
46142 On ch=1 n=f5 v=0
46142 On ch=1 n=d#5 v=105
46238 On ch=1 n=d#5 v=0
46238 On ch=1 n=f5 v=106
46324 On ch=1 n=f5 v=0
46324 On ch=1 n=d#5 v=106
46408 On ch=1 n=d#5 v=0
46408 On ch=1 n=f5 v=106
46492 On ch=1 n=f5 v=0
46492 On ch=1 n=d#5 v=106
46594 On ch=1 n=d#5 v=0
46594 On ch=1 n=f5 v=108
46684 On ch=1 n=f5 v=0
46684 On ch=1 n=d#5 v=108
46772 On ch=1 n=d#5 v=0
46772 On ch=1 n=f5 v=108
46860 On ch=1 n=f5 v=0
46860 On ch=1 n=d#5 v=108
46930 On ch=1 n=d#5 v=0
46930 On ch=1 n=f5 v=110
47018 On ch=1 n=f5 v=0
47018 On ch=1 n=d#5 v=110
47104 On ch=1 n=d#5 v=0
47104 On ch=1 n=d5 v=110
47190 On ch=1 n=d5 v=0
47190 On ch=1 n=d#5 v=110
47276 On ch=1 n=d#5 v=0
47276 Par ch=1 c=64 v=0
47276 On ch=1 n=f5 v=112
47374 On ch=1 n=f5 v=0
47374 On ch=1 n=f#5 v=112
47470 On ch=1 n=f#5 v=0
47470 On ch=1 n=g#5 v=112
47566 On ch=1 n=g#5 v=0
47566 On ch=1 n=a#5 v=112
47672 On ch=1 n=a#5 v=0
47672 On ch=1 n=b5 v=114
47770 On ch=1 n=b5 v=0
47770 On ch=1 n=c#6 v=114
47868 On ch=1 n=c#6 v=0
47868 On ch=1 n=d#6 v=114
47962 On ch=1 n=d#6 v=0
47962 On ch=1 n=f6 v=116
48048 On ch=1 n=f6 v=0
48048 On ch=1 n=f#6 v=116
48134 On ch=1 n=f#6 v=0
48134 On ch=1 n=g#6 v=116
48220 On ch=1 n=g#6 v=0
48220 On ch=1 n=a#6 v=116
48292 On ch=1 n=a#6 v=0
48292 On ch=1 n=b6 v=118
48376 On ch=1 n=b6 v=0
48376 On ch=1 n=c#7 v=118
48460 On ch=1 n=c#7 v=0
48460 On ch=1 n=d#7 v=118
48544 On ch=1 n=d#7 v=0
48544 On ch=1 n=f7 v=118
48684 On ch=1 n=f7 v=0
48684 On ch=1 n=f#7 v=126
48696 Par ch=1 c=64 v=127
50522 On ch=1 n=f#7 v=0
50522 On ch=1 n=d#7 v=104
50898 On ch=1 n=d#7 v=0
50898 On ch=1 n=a#6 v=104
51256 On ch=1 n=a#6 v=0
51256 On ch=1 n=f#6 v=104
51658 On ch=1 n=f#6 v=0
51658 Par ch=1 c=64 v=0
51658 On ch=1 n=f6 v=104
51752 On ch=1 n=f6 v=0
51752 On ch=1 n=f#6 v=104
51848 On ch=1 n=f#6 v=0
51848 On ch=1 n=f6 v=104
51980 On ch=1 n=f6 v=0
51980 On ch=1 n=e6 v=105
52318 On ch=1 n=e6 v=0
52318 On ch=1 n=f6 v=106
52666 On ch=1 n=f6 v=0
52838 On ch=1 n=a#6 v=107
53086 On ch=1 n=a#6 v=0
53086 On ch=1 n=d#6 v=111
55970 On ch=1 n=d#6 v=0
56748 On ch=1 n=d6 v=78
57096 On ch=1 n=d6 v=0
57096 On ch=1 n=d#6 v=78
57438 On ch=1 n=d#6 v=0
57438 On ch=1 n=f#6 v=74
57792 On ch=1 n=f#6 v=0
57792 On ch=1 n=f6 v=73
58140 On ch=1 n=f6 v=0
58140 On ch=1 n=f6 v=68
58506 On ch=1 n=f6 v=0
58506 On ch=1 n=c6 v=69
58884 On ch=1 n=c6 v=0
58884 On ch=1 n=b5 v=67
60790 On ch=1 n=b5 v=0
60790 On ch=1 n=a#5 v=68
61162 On ch=1 n=a#5 v=0
61162 On ch=1 n=d6 v=69
61516 On ch=1 n=d6 v=0
61516 On ch=1 n=d#6 v=67
61878 On ch=1 n=d#6 v=0
61878 On ch=1 n=f#6 v=68
62230 On ch=1 n=f#6 v=0
62230 On ch=1 n=f6 v=74
62582 On ch=1 n=f6 v=0
62582 On ch=1 n=f6 v=71
62938 On ch=1 n=f6 v=0
62938 On ch=1 n=c6 v=70
63320 On ch=1 n=c6 v=0
63320 On ch=1 n=b5 v=71
65194 On ch=1 n=b5 v=0
65194 On ch=1 n=a#5 v=78
65546 On ch=1 n=a#5 v=0
65546 On ch=1 n=d6 v=78
65888 On ch=1 n=d6 v=0
65888 On ch=1 n=d#6 v=78
66230 On ch=1 n=d#6 v=0
66230 On ch=1 n=f#6 v=80
66576 On ch=1 n=f#6 v=0
66576 On ch=1 n=f6 v=80
66926 On ch=1 n=f6 v=0
66926 On ch=1 n=f6 v=80
67286 On ch=1 n=f6 v=0
67286 On ch=1 n=c6 v=80
67640 On ch=1 n=c6 v=0
67640 On ch=1 n=g#6 v=80
67994 On ch=1 n=g#6 v=0
67994 On ch=1 n=g6 v=82
68344 On ch=1 n=g6 v=0
68344 On ch=1 n=g6 v=82
68698 On ch=1 n=g6 v=0
68698 On ch=1 n=d#6 v=84
69068 On ch=1 n=d#6 v=0
69068 On ch=1 n=a#6 v=86
69404 On ch=1 n=a#6 v=0
69404 On ch=1 n=g#6 v=86
69752 On ch=1 n=g#6 v=0
69752 On ch=1 n=g#6 v=86
70128 On ch=1 n=g#6 v=0
70128 On ch=1 n=d#6 v=87
70496 On ch=1 n=d#6 v=0
70496 On ch=1 n=b6 v=90
70838 On ch=1 n=b6 v=0
70838 On ch=1 n=a#6 v=91
71180 On ch=1 n=a#6 v=0
71180 On ch=1 n=a#6 v=90
71552 On ch=1 n=a#6 v=0
71552 On ch=1 n=f6 v=93
71906 On ch=1 n=f6 v=0
71906 On ch=1 n=b6 v=92
72234 On ch=1 n=b6 v=0
72234 On ch=1 n=a#6 v=91
72578 On ch=1 n=a#6 v=0
72578 On ch=1 n=a#6 v=92
72936 On ch=1 n=a#6 v=0
72936 On ch=1 n=a6 v=94
73278 On ch=1 n=a6 v=0
73278 On ch=1 n=a#6 v=93
73608 On ch=1 n=a#6 v=0
73608 On ch=1 n=b6 v=93
73950 On ch=1 n=b6 v=0
73950 On ch=1 n=a#6 v=93
74300 On ch=1 n=a#6 v=0
74300 On ch=1 n=f#7 v=96
74686 On ch=1 n=f#7 v=0
74686 On ch=1 n=f#7 v=103
75030 On ch=1 n=f#7 v=0
75030 On ch=1 n=f7 v=101
75374 On ch=1 n=f7 v=0
75374 On ch=1 n=f7 v=99
75734 On ch=1 n=f7 v=0
75734 On ch=1 n=b6 v=98
76110 On ch=1 n=b6 v=0
76110 On ch=1 n=b6 v=96
77992 On ch=1 n=b6 v=0
77992 On ch=1 n=a#6 v=96
78370 On ch=1 n=a#6 v=0
78370 On ch=1 n=d7 v=96
78718 On ch=1 n=d7 v=0
78718 On ch=1 n=d#7 v=96
79098 On ch=1 n=d#7 v=0
79098 On ch=1 n=f#7 v=105
79410 On ch=1 n=f#7 v=0
79410 On ch=1 n=f7 v=98
79756 On ch=1 n=f7 v=0
79756 On ch=1 n=f7 v=100
80106 On ch=1 n=f7 v=0
80106 On ch=1 n=b6 v=99
80472 On ch=1 n=b6 v=0
80472 On ch=1 n=b6 v=99
82282 On ch=1 n=b6 v=0
82282 On ch=1 n=a#6 v=100
82632 On ch=1 n=a#6 v=0
82632 On ch=1 n=a#6 v=100
82986 On ch=1 n=a#6 v=0
82986 On ch=1 n=e7 v=100
83320 On ch=1 n=e7 v=0
83320 On ch=1 n=e7 v=100
83674 On ch=1 n=e7 v=0
83674 On ch=1 n=d#7 v=100
84014 On ch=1 n=d#7 v=0
84014 On ch=1 n=d#7 v=100
84366 On ch=1 n=d#7 v=0
84366 On ch=1 n=g#6 v=100
84728 On ch=1 n=g#6 v=0
84728 On ch=1 n=f7 v=100
85072 On ch=1 n=f7 v=0
85072 On ch=1 n=d#7 v=100
85396 On ch=1 n=d#7 v=0
85396 On ch=1 n=d#7 v=100
85722 On ch=1 n=d#7 v=0
85722 On ch=1 n=f#6 v=100
86098 On ch=1 n=f#6 v=0
86098 On ch=1 n=f7 v=100
86416 On ch=1 n=f7 v=0
86416 On ch=1 n=d#7 v=100
86752 On ch=1 n=d#7 v=0
86752 On ch=1 n=d#7 v=100
87098 On ch=1 n=d#7 v=0
87098 On ch=1 n=f6 v=100
88820 On ch=1 n=f6 v=0
89354 On ch=1 n=b5 v=73
89808 On ch=1 n=b5 v=0
89808 On ch=1 n=b5 v=70
90242 On ch=1 n=b5 v=0
90242 On ch=1 n=d5 v=72
90736 On ch=1 n=d5 v=0
90736 On ch=1 n=d5 v=70
92836 On ch=1 n=d5 v=0
92836 On ch=1 n=g#4 v=62
92836 On ch=1 n=d#5 v=62
93962 On ch=1 n=d#5 v=0
93962 On ch=1 n=g#4 v=0
95104 On ch=1 n=a#4 v=56
95568 On ch=1 n=a#4 v=0
95568 On ch=1 n=b4 v=67
95954 On ch=1 n=b4 v=0
95954 On ch=1 n=a4 v=66
96320 On ch=1 n=a4 v=0
96320 On ch=1 n=a#4 v=77
96704 On ch=1 n=a#4 v=0
96704 On ch=1 n=d#4 v=82
97614 On ch=1 n=d#4 v=0
99404 On ch=1 n=d#4 v=43
99404 On ch=1 n=f#4 v=43
99404 On ch=1 n=a#4 v=43
99806 On ch=1 n=a#4 v=0
99806 On ch=1 n=f#4 v=0
99806 On ch=1 n=d#4 v=0
99806 On ch=1 n=a#4 v=47
99806 On ch=1 n=f#4 v=47
99806 On ch=1 n=d#4 v=47
100188 On ch=1 n=d#4 v=0
100188 On ch=1 n=f#4 v=0
100188 On ch=1 n=a#4 v=0
100188 On ch=1 n=a#4 v=62
100188 On ch=1 n=f#4 v=62
100188 On ch=1 n=d#4 v=62
100998 On ch=1 n=d#4 v=0
100998 On ch=1 n=f#4 v=0
100998 On ch=1 n=a#4 v=0
100998 On ch=1 n=a#4 v=69
100998 On ch=1 n=f#4 v=69
100998 On ch=1 n=d#4 v=69
101384 On ch=1 n=d#4 v=0
101384 On ch=1 n=f#4 v=0
101384 On ch=1 n=a#4 v=0
101384 On ch=1 n=a#4 v=69
101384 On ch=1 n=f#4 v=69
101384 On ch=1 n=d#4 v=69
101742 On ch=1 n=d#4 v=0
101742 On ch=1 n=f#4 v=0
101742 On ch=1 n=a#4 v=0
101742 On ch=1 n=a#4 v=69
101742 On ch=1 n=f#4 v=69
101742 On ch=1 n=d#4 v=69
102532 On ch=1 n=d#4 v=0
102532 On ch=1 n=f#4 v=0
102532 On ch=1 n=a#4 v=0
102532 On ch=1 n=a#4 v=69
102532 On ch=1 n=f#4 v=69
102532 On ch=1 n=d#4 v=69
102876 On ch=1 n=d#4 v=0
102876 On ch=1 n=f#4 v=0
102876 On ch=1 n=a#4 v=0
102876 On ch=1 n=a#4 v=69
102876 On ch=1 n=f#4 v=69
102876 On ch=1 n=d#4 v=69
103338 On ch=1 n=d#4 v=0
103338 On ch=1 n=f#4 v=0
103338 On ch=1 n=a#4 v=0
103338 On ch=1 n=a#4 v=83
103338 On ch=1 n=f#4 v=83
103338 On ch=1 n=d#4 v=83
104548 On ch=1 n=d#4 v=0
104548 On ch=1 n=f#4 v=0
104548 On ch=1 n=a#4 v=0
105546 On ch=1 n=a#4 v=56
105934 On ch=1 n=a#4 v=0
105934 On ch=1 n=b4 v=66
106294 On ch=1 n=b4 v=0
106294 On ch=1 n=a4 v=72
106648 On ch=1 n=a4 v=0
106648 On ch=1 n=a#4 v=72
107036 On ch=1 n=a#4 v=0
107036 On ch=1 n=d#4 v=72
107842 On ch=1 n=d#4 v=0
109428 On ch=1 n=b4 v=77
109428 On ch=1 n=g#4 v=77
109428 On ch=1 n=f4 v=77
109784 On ch=1 n=f4 v=0
109784 On ch=1 n=g#4 v=0
109784 On ch=1 n=b4 v=0
109784 On ch=1 n=b4 v=78
109784 On ch=1 n=g#4 v=78
109784 On ch=1 n=f4 v=78
110142 On ch=1 n=f4 v=0
110142 On ch=1 n=g#4 v=0
110142 On ch=1 n=b4 v=0
110142 On ch=1 n=b4 v=78
110142 On ch=1 n=g#4 v=78
110142 On ch=1 n=f4 v=78
110916 On ch=1 n=f4 v=0
110916 On ch=1 n=g#4 v=0
110916 On ch=1 n=b4 v=0
110916 On ch=1 n=b4 v=79
110916 On ch=1 n=g#4 v=79
110916 On ch=1 n=f4 v=79
111270 On ch=1 n=f4 v=0
111270 On ch=1 n=g#4 v=0
111270 On ch=1 n=b4 v=0
111270 On ch=1 n=b4 v=80
111270 On ch=1 n=g#4 v=80
111270 On ch=1 n=f4 v=80
111624 On ch=1 n=f4 v=0
111624 On ch=1 n=g#4 v=0
111624 On ch=1 n=b4 v=0
111624 On ch=1 n=b4 v=80
111624 On ch=1 n=g#4 v=80
111624 On ch=1 n=f4 v=80
112396 On ch=1 n=f4 v=0
112396 On ch=1 n=g#4 v=0
112396 On ch=1 n=b4 v=0
112396 On ch=1 n=b4 v=81
112396 On ch=1 n=g#4 v=81
112396 On ch=1 n=f4 v=81
112730 On ch=1 n=f4 v=0
112730 On ch=1 n=g#4 v=0
112730 On ch=1 n=b4 v=0
112730 On ch=1 n=b4 v=81
112730 On ch=1 n=g#4 v=81
112730 On ch=1 n=f4 v=81
113154 On ch=1 n=f4 v=0
113154 On ch=1 n=g#4 v=0
113154 On ch=1 n=b4 v=0
113154 On ch=1 n=b4 v=81
113154 On ch=1 n=g#4 v=81
113154 On ch=1 n=f4 v=81
113888 On ch=1 n=f4 v=0
113888 On ch=1 n=g#4 v=0
113888 On ch=1 n=b4 v=0
114846 On ch=1 n=b4 v=63
115222 On ch=1 n=b4 v=0
115222 On ch=1 n=c#5 v=87
115550 On ch=1 n=c#5 v=0
115550 On ch=1 n=a#4 v=87
115908 On ch=1 n=a#4 v=0
115908 On ch=1 n=b4 v=87
116270 On ch=1 n=b4 v=0
116270 On ch=1 n=d#4 v=87
117012 On ch=1 n=d#4 v=0
118496 On ch=1 n=b4 v=87
118496 On ch=1 n=g#4 v=87
118496 On ch=1 n=f4 v=87
118862 On ch=1 n=f4 v=0
118862 On ch=1 n=g#4 v=0
118862 On ch=1 n=b4 v=0
118862 On ch=1 n=b4 v=89
118862 On ch=1 n=g#4 v=89
118862 On ch=1 n=f4 v=89
119212 On ch=1 n=f4 v=0
119212 On ch=1 n=g#4 v=0
119212 On ch=1 n=b4 v=0
119212 On ch=1 n=b4 v=90
119212 On ch=1 n=g#4 v=90
119212 On ch=1 n=f4 v=90
119966 On ch=1 n=f4 v=0
119966 On ch=1 n=g#4 v=0
119966 On ch=1 n=b4 v=0
119966 On ch=1 n=b4 v=90
119966 On ch=1 n=g#4 v=90
119966 On ch=1 n=f4 v=90
120324 On ch=1 n=f4 v=0
120324 On ch=1 n=g#4 v=0
120324 On ch=1 n=b4 v=0
120324 On ch=1 n=b4 v=90
120324 On ch=1 n=g#4 v=90
120324 On ch=1 n=f4 v=90
120670 On ch=1 n=f4 v=0
120670 On ch=1 n=g#4 v=0
120670 On ch=1 n=b4 v=0
120670 On ch=1 n=b4 v=90
120670 On ch=1 n=g#4 v=90
120670 On ch=1 n=f4 v=90
121436 On ch=1 n=f4 v=0
121436 On ch=1 n=g#4 v=0
121436 On ch=1 n=b4 v=0
121436 On ch=1 n=b4 v=90
121436 On ch=1 n=g#4 v=90
121436 On ch=1 n=f4 v=90
121790 On ch=1 n=f4 v=0
121790 On ch=1 n=g#4 v=0
121790 On ch=1 n=b4 v=0
121790 On ch=1 n=b4 v=90
121790 On ch=1 n=g#4 v=90
121790 On ch=1 n=f4 v=90
122192 On ch=1 n=f4 v=0
122192 On ch=1 n=g#4 v=0
122192 On ch=1 n=b4 v=0
122192 On ch=1 n=b4 v=115
122192 On ch=1 n=g#4 v=115
122192 On ch=1 n=f4 v=115
122956 On ch=1 n=f4 v=0
122956 On ch=1 n=g#4 v=0
122956 On ch=1 n=b4 v=0
123864 On ch=1 n=b4 v=95
124218 On ch=1 n=b4 v=0
124218 On ch=1 n=c#5 v=99
124566 On ch=1 n=c#5 v=0
124566 On ch=1 n=a#4 v=102
124914 On ch=1 n=a#4 v=0
124914 On ch=1 n=b4 v=101
125302 On ch=1 n=b4 v=0
125302 On ch=1 n=d#4 v=106
126068 On ch=1 n=d#4 v=0
126068 On ch=1 n=b4 v=101
126068 On ch=1 n=g#4 v=101
126068 On ch=1 n=f4 v=101
126436 On ch=1 n=f4 v=0
126436 On ch=1 n=g#4 v=0
126436 On ch=1 n=b4 v=0
126436 On ch=1 n=b4 v=97
126436 On ch=1 n=g#4 v=97
126436 On ch=1 n=f4 v=97
126780 On ch=1 n=f4 v=0
126780 On ch=1 n=g#4 v=0
126780 On ch=1 n=b4 v=0
126780 On ch=1 n=b4 v=99
126780 On ch=1 n=g#4 v=99
126780 On ch=1 n=f4 v=99
127546 On ch=1 n=f4 v=0
127546 On ch=1 n=g#4 v=0
127546 On ch=1 n=b4 v=0
127546 On ch=1 n=f5 v=102
127546 On ch=1 n=d#5 v=102
127546 On ch=1 n=b4 v=102
127546 On ch=1 n=f4 v=102
127558 Par ch=1 c=64 v=127
127908 On ch=1 n=f4 v=0
127908 On ch=1 n=b4 v=0
127908 On ch=1 n=d#5 v=0
127908 On ch=1 n=f5 v=0
127908 On ch=1 n=f5 v=104
127908 On ch=1 n=d#5 v=104
127908 On ch=1 n=b4 v=104
127908 On ch=1 n=f4 v=104
128278 On ch=1 n=f4 v=0
128278 On ch=1 n=b4 v=0
128278 On ch=1 n=d#5 v=0
128278 On ch=1 n=f5 v=0
128278 On ch=1 n=f5 v=107
128278 On ch=1 n=d#5 v=107
128278 On ch=1 n=b4 v=107
128278 On ch=1 n=f4 v=107
129048 On ch=1 n=f4 v=0
129048 On ch=1 n=b4 v=0
129048 On ch=1 n=d#5 v=0
129048 On ch=1 n=f5 v=0
129048 On ch=1 n=f6 v=106
129048 On ch=1 n=d#6 v=106
129048 On ch=1 n=b5 v=106
129048 On ch=1 n=f5 v=106
129406 On ch=1 n=f5 v=0
129406 On ch=1 n=b5 v=0
129406 On ch=1 n=d#6 v=0
129406 On ch=1 n=f6 v=0
129406 On ch=1 n=f6 v=102
129406 On ch=1 n=d#6 v=102
129406 On ch=1 n=b5 v=102
129406 On ch=1 n=f5 v=102
129754 On ch=1 n=f5 v=0
129754 On ch=1 n=b5 v=0
129754 On ch=1 n=d#6 v=0
129754 On ch=1 n=f6 v=0
129754 On ch=1 n=f6 v=103
129754 On ch=1 n=d#6 v=103
129754 On ch=1 n=b5 v=103
129754 On ch=1 n=f5 v=103
130464 On ch=1 n=f5 v=0
130464 On ch=1 n=b5 v=0
130464 On ch=1 n=d#6 v=0
130464 On ch=1 n=f6 v=0
130464 On ch=1 n=f6 v=101
130464 On ch=1 n=d#6 v=101
130464 On ch=1 n=b5 v=101
130464 On ch=1 n=f5 v=101
130796 On ch=1 n=f5 v=0
130796 On ch=1 n=b5 v=0
130796 On ch=1 n=d#6 v=0
130796 On ch=1 n=f6 v=0
130796 On ch=1 n=f6 v=103
130796 On ch=1 n=d#6 v=103
130796 On ch=1 n=b5 v=103
130796 On ch=1 n=f5 v=103
131170 On ch=1 n=f5 v=0
131170 On ch=1 n=b5 v=0
131170 On ch=1 n=d#6 v=0
131170 On ch=1 n=f6 v=0
131170 On ch=1 n=f6 v=104
131170 On ch=1 n=d#6 v=104
131170 On ch=1 n=b5 v=104
131170 On ch=1 n=f5 v=104
131876 On ch=1 n=f5 v=0
131876 On ch=1 n=b5 v=0
131876 On ch=1 n=d#6 v=0
131876 On ch=1 n=f6 v=0
131876 On ch=1 n=f6 v=101
131876 On ch=1 n=d#6 v=101
131876 On ch=1 n=b5 v=101
131876 On ch=1 n=f5 v=101
132212 On ch=1 n=f5 v=0
132212 On ch=1 n=b5 v=0
132212 On ch=1 n=d#6 v=0
132212 On ch=1 n=f6 v=0
132212 On ch=1 n=f6 v=101
132212 On ch=1 n=d#6 v=101
132212 On ch=1 n=b5 v=101
132212 On ch=1 n=f5 v=101
132666 On ch=1 n=f5 v=0
132666 On ch=1 n=b5 v=0
132666 On ch=1 n=d#6 v=0
132666 On ch=1 n=f6 v=0
132666 Par ch=1 c=64 v=0
132666 On ch=1 n=a#6 v=122
132666 On ch=1 n=f6 v=122
132666 On ch=1 n=a#5 v=122
132678 Par ch=1 c=64 v=127
135730 On ch=1 n=a#5 v=0
135730 On ch=1 n=f6 v=0
135730 On ch=1 n=a#6 v=0
135730 Par ch=1 c=64 v=0
135730 On ch=1 n=d#5 v=114
137224 On ch=1 n=d#5 v=0
137224 On ch=1 n=f5 v=106
137236 Par ch=1 c=64 v=127
137322 On ch=1 n=f5 v=0
137322 On ch=1 n=d#5 v=106
137420 On ch=1 n=d#5 v=0
137420 On ch=1 n=f5 v=106
137518 On ch=1 n=f5 v=0
137518 On ch=1 n=d#5 v=106
137590 On ch=1 n=d#5 v=0
137590 On ch=1 n=f5 v=108
137684 On ch=1 n=f5 v=0
137684 On ch=1 n=d#5 v=108
137778 On ch=1 n=d#5 v=0
137778 On ch=1 n=f5 v=108
137872 On ch=1 n=f5 v=0
137872 On ch=1 n=d#5 v=108
137922 On ch=1 n=d#5 v=0
137922 On ch=1 n=f5 v=106
138010 On ch=1 n=f5 v=0
138010 On ch=1 n=d#5 v=106
138098 On ch=1 n=d#5 v=0
138098 On ch=1 n=f5 v=106
138186 On ch=1 n=f5 v=0
138186 On ch=1 n=d#5 v=106
138290 On ch=1 n=d#5 v=0
138290 On ch=1 n=f5 v=117
138378 On ch=1 n=f5 v=0
138378 On ch=1 n=d#5 v=117
138466 On ch=1 n=d#5 v=0
138466 On ch=1 n=f5 v=117
138554 On ch=1 n=f5 v=0
138554 On ch=1 n=d#5 v=117
138670 On ch=1 n=d#5 v=0
138670 On ch=1 n=f5 v=117
138762 On ch=1 n=f5 v=0
138762 On ch=1 n=d#5 v=117
138856 On ch=1 n=d#5 v=0
138856 On ch=1 n=f5 v=117
138948 On ch=1 n=f5 v=0
138948 On ch=1 n=d#5 v=117
139050 On ch=1 n=d#5 v=0
139050 On ch=1 n=f5 v=116
139144 On ch=1 n=f5 v=0
139144 On ch=1 n=d#5 v=116
139238 On ch=1 n=d#5 v=0
139238 On ch=1 n=f5 v=116
139334 On ch=1 n=f5 v=0
139334 On ch=1 n=d#5 v=116
139434 On ch=1 n=d#5 v=0
139434 On ch=1 n=f5 v=122
139528 On ch=1 n=f5 v=0
139528 On ch=1 n=d#5 v=122
139624 On ch=1 n=d#5 v=0
139624 On ch=1 n=f5 v=122
139720 On ch=1 n=f5 v=0
139720 On ch=1 n=d#5 v=122
139806 On ch=1 n=d#5 v=0
139806 On ch=1 n=f5 v=121
139900 On ch=1 n=f5 v=0
139900 On ch=1 n=d#5 v=121
139994 On ch=1 n=d#5 v=0
139994 On ch=1 n=d5 v=121
140088 On ch=1 n=d5 v=0
140088 On ch=1 n=d#5 v=121
140172 On ch=1 n=d#5 v=0
140172 Par ch=1 c=64 v=0
140172 On ch=1 n=f5 v=120
140276 On ch=1 n=f5 v=0
140276 On ch=1 n=f#5 v=120
140380 On ch=1 n=f#5 v=0
140380 On ch=1 n=g#5 v=120
140484 On ch=1 n=g#5 v=0
140484 On ch=1 n=a#5 v=120
140584 On ch=1 n=a#5 v=0
140584 On ch=1 n=b5 v=122
140688 On ch=1 n=b5 v=0
140688 On ch=1 n=c#6 v=122
140790 On ch=1 n=c#6 v=0
140790 On ch=1 n=d#6 v=122
140908 On ch=1 n=d#6 v=0
140908 On ch=1 n=f6 v=123
141000 On ch=1 n=f6 v=0
141000 On ch=1 n=f#6 v=123
141092 On ch=1 n=f#6 v=0
141092 On ch=1 n=g#6 v=123
141184 On ch=1 n=g#6 v=0
141184 On ch=1 n=a#6 v=123
141298 On ch=1 n=a#6 v=0
141298 On ch=1 n=b6 v=127
141392 On ch=1 n=b6 v=0
141392 On ch=1 n=c#7 v=127
141488 On ch=1 n=c#7 v=0
141488 On ch=1 n=d#7 v=127
141584 On ch=1 n=d#7 v=0
141584 On ch=1 n=f7 v=127
141726 On ch=1 n=f7 v=0
141726 On ch=1 n=f#7 v=127
141740 Par ch=1 c=64 v=127
143762 On ch=1 n=f#7 v=0
143762 On ch=1 n=d#7 v=107
144164 On ch=1 n=d#7 v=0
144164 On ch=1 n=a#6 v=107
144550 On ch=1 n=a#6 v=0
144550 On ch=1 n=f#6 v=105
144976 On ch=1 n=f#6 v=0
144976 Par ch=1 c=64 v=0
144976 On ch=1 n=f6 v=105
145078 On ch=1 n=f6 v=0
145078 On ch=1 n=f#6 v=105
145178 On ch=1 n=f#6 v=0
145178 On ch=1 n=f6 v=105
145358 On ch=1 n=f6 v=0
145358 On ch=1 n=e6 v=105
145722 On ch=1 n=e6 v=0
145722 On ch=1 n=f6 v=105
146162 On ch=1 n=f6 v=0
146362 On ch=1 n=a#6 v=105
146552 On ch=1 n=a#6 v=0
146552 On ch=1 n=d#6 v=105
149762 On ch=1 n=d#6 v=0
150560 On ch=1 n=d6 v=84
150918 On ch=1 n=d6 v=0
150918 On ch=1 n=d#6 v=79
151284 On ch=1 n=d#6 v=0
151284 On ch=1 n=f#6 v=77
151670 On ch=1 n=f#6 v=0
151670 On ch=1 n=f6 v=70
152044 On ch=1 n=f6 v=0
152044 On ch=1 n=f6 v=75
152432 On ch=1 n=f6 v=0
152432 On ch=1 n=c6 v=68
152822 On ch=1 n=c6 v=0
152822 On ch=1 n=b5 v=67
154802 On ch=1 n=b5 v=0
154802 On ch=1 n=a#5 v=62
155190 On ch=1 n=a#5 v=0
155190 On ch=1 n=d6 v=67
155554 On ch=1 n=d6 v=0
155554 On ch=1 n=d#6 v=70
155942 On ch=1 n=d#6 v=0
155942 On ch=1 n=f#6 v=76
156306 On ch=1 n=f#6 v=0
156306 On ch=1 n=f6 v=80
156680 On ch=1 n=f6 v=0
156680 On ch=1 n=f6 v=80
157084 On ch=1 n=f6 v=0
157084 On ch=1 n=c6 v=80
157500 On ch=1 n=c6 v=0
157500 On ch=1 n=b5 v=76
159494 On ch=1 n=b5 v=0
159494 On ch=1 n=a#5 v=66
159876 On ch=1 n=a#5 v=0
159876 On ch=1 n=d6 v=68
160238 On ch=1 n=d6 v=0
160238 On ch=1 n=d#6 v=73
160614 On ch=1 n=d#6 v=0
160614 On ch=1 n=f#6 v=71
160992 On ch=1 n=f#6 v=0
160992 On ch=1 n=f6 v=75
161356 On ch=1 n=f6 v=0
161356 On ch=1 n=f6 v=79
161726 On ch=1 n=f6 v=0
161726 On ch=1 n=c6 v=80
162098 On ch=1 n=c6 v=0
162098 On ch=1 n=g#6 v=81
162470 On ch=1 n=g#6 v=0
162470 On ch=1 n=g6 v=81
162830 On ch=1 n=g6 v=0
162830 On ch=1 n=g6 v=83
163194 On ch=1 n=g6 v=0
163194 On ch=1 n=d#6 v=84
163568 On ch=1 n=d#6 v=0
163568 On ch=1 n=a#6 v=80
163920 On ch=1 n=a#6 v=0
163920 On ch=1 n=g#6 v=85
164272 On ch=1 n=g#6 v=0
164272 On ch=1 n=g#6 v=85
164632 On ch=1 n=g#6 v=0
164632 On ch=1 n=d#6 v=85
164986 On ch=1 n=d#6 v=0
164986 On ch=1 n=b6 v=85
165336 On ch=1 n=b6 v=0
165336 On ch=1 n=a#6 v=85
165674 On ch=1 n=a#6 v=0
165674 On ch=1 n=a#6 v=85
166040 On ch=1 n=a#6 v=0
166040 On ch=1 n=f6 v=85
166384 On ch=1 n=f6 v=0
166384 On ch=1 n=b6 v=85
166736 On ch=1 n=b6 v=0
166736 On ch=1 n=a#6 v=85
167072 On ch=1 n=a#6 v=0
167072 On ch=1 n=a#6 v=85
167408 On ch=1 n=a#6 v=0
167408 On ch=1 n=a6 v=85
167764 On ch=1 n=a6 v=0
167764 On ch=1 n=a#6 v=85
168098 On ch=1 n=a#6 v=0
168098 On ch=1 n=b6 v=85
168450 On ch=1 n=b6 v=0
168450 On ch=1 n=a#6 v=85
168828 On ch=1 n=a#6 v=0
168828 On ch=1 n=f#7 v=85
169228 On ch=1 n=f#7 v=0
169228 On ch=1 n=f#7 v=85
169604 On ch=1 n=f#7 v=0
169604 On ch=1 n=f7 v=85
170014 On ch=1 n=f7 v=0
170014 On ch=1 n=f7 v=85
170372 On ch=1 n=f7 v=0
170372 On ch=1 n=b6 v=75
170766 On ch=1 n=b6 v=0
170766 On ch=1 n=b6 v=81
172602 On ch=1 n=b6 v=0
172602 On ch=1 n=a#6 v=86
172936 On ch=1 n=a#6 v=0
172936 On ch=1 n=d7 v=86
173270 On ch=1 n=d7 v=0
173270 On ch=1 n=d#7 v=86
173624 On ch=1 n=d#7 v=0
173624 On ch=1 n=f#7 v=86
173970 On ch=1 n=f#7 v=0
173970 On ch=1 n=f7 v=86
174306 On ch=1 n=f7 v=0
174306 On ch=1 n=f7 v=86
174656 On ch=1 n=f7 v=0
174656 On ch=1 n=b6 v=86
175028 On ch=1 n=b6 v=0
175028 On ch=1 n=b6 v=86
176904 On ch=1 n=b6 v=0
176904 On ch=1 n=a#6 v=86
177250 On ch=1 n=a#6 v=0
177250 On ch=1 n=a#6 v=86
177602 On ch=1 n=a#6 v=0
177602 On ch=1 n=e7 v=87
177960 On ch=1 n=e7 v=0
177960 On ch=1 n=e7 v=89
178316 On ch=1 n=e7 v=0
178316 On ch=1 n=d#7 v=89
178660 On ch=1 n=d#7 v=0
178660 On ch=1 n=d#7 v=89
179022 On ch=1 n=d#7 v=0
179022 On ch=1 n=g#6 v=89
179388 On ch=1 n=g#6 v=0
179388 On ch=1 n=f7 v=89
179728 On ch=1 n=f7 v=0
179728 On ch=1 n=d#7 v=89
180134 On ch=1 n=d#7 v=0
180134 On ch=1 n=d#7 v=89
180464 On ch=1 n=d#7 v=0
180464 On ch=1 n=f#6 v=83
180844 On ch=1 n=f#6 v=0
180844 On ch=1 n=f7 v=89
181198 On ch=1 n=f7 v=0
181198 On ch=1 n=d#7 v=89
181540 On ch=1 n=d#7 v=0
181540 On ch=1 n=d#7 v=89
181892 On ch=1 n=d#7 v=0
181892 On ch=1 n=f6 v=89
183024 On ch=1 n=f6 v=0
183424 On ch=1 n=b5 v=77
183808 On ch=1 n=b5 v=0
183808 On ch=1 n=b5 v=78
184214 On ch=1 n=b5 v=0
184214 On ch=1 n=d5 v=72
184628 On ch=1 n=d5 v=0
184628 On ch=1 n=d5 v=62
186528 On ch=1 n=d5 v=0
186528 On ch=1 n=g#4 v=43
186528 On ch=1 n=d#5 v=43
187516 On ch=1 n=d#5 v=0
187516 On ch=1 n=g#4 v=0
188456 On ch=1 n=f5 v=45
188456 On ch=1 n=g#4 v=45
188456 On ch=1 n=f4 v=45
190300 On ch=1 n=f4 v=0
190300 On ch=1 n=g#4 v=0
190300 On ch=1 n=f5 v=0
191228 On ch=1 n=c#5 v=74
191228 On ch=1 n=a#4 v=74
192116 On ch=1 n=a#4 v=0
192116 On ch=1 n=c#5 v=0
192116 On ch=1 n=f5 v=65
192116 On ch=1 n=g#4 v=65
192540 On ch=1 n=g#4 v=0
192540 On ch=1 n=f5 v=0
192540 On ch=1 n=d#5 v=71
192950 On ch=1 n=d#5 v=0
192950 On ch=1 n=c#5 v=70
192950 On ch=1 n=a#4 v=70
193810 On ch=1 n=a#4 v=0
193810 On ch=1 n=c#5 v=0
193810 On ch=1 n=g#5 v=70
193810 On ch=1 n=f5 v=70
193810 On ch=1 n=c#5 v=70
193810 On ch=1 n=b4 v=70
193824 Par ch=1 c=64 v=127
194642 On ch=1 n=b4 v=0
194642 On ch=1 n=c#5 v=0
194642 On ch=1 n=f5 v=0
194642 On ch=1 n=g#5 v=0
194642 On ch=1 n=g#5 v=66
194642 On ch=1 n=f5 v=66
194642 On ch=1 n=c#5 v=66
195038 On ch=1 n=c#5 v=0
195038 On ch=1 n=f5 v=0
195038 On ch=1 n=g#5 v=0
195038 On ch=1 n=g#5 v=66
195038 On ch=1 n=f5 v=66
195038 On ch=1 n=c#5 v=66
195434 On ch=1 n=c#5 v=0
195434 On ch=1 n=f5 v=0
195434 On ch=1 n=g#5 v=0
195434 On ch=1 n=a#5 v=66
195434 On ch=1 n=f5 v=66
195434 On ch=1 n=c#5 v=66
195826 On ch=1 n=a#5 v=0
195826 On ch=1 n=g#5 v=63
196220 On ch=1 n=g#5 v=0
196220 On ch=1 n=c#5 v=0
196220 On ch=1 n=f5 v=0
196220 On ch=1 n=f5 v=66
196220 On ch=1 n=c#5 v=66
196220 On ch=1 n=b4 v=66
196604 On ch=1 n=b4 v=0
196604 On ch=1 n=c#5 v=0
196604 On ch=1 n=f5 v=0
196604 On ch=1 n=c#5 v=69
196604 On ch=1 n=b4 v=69
196986 On ch=1 n=b4 v=0
196986 On ch=1 n=c#5 v=0
196986 Par ch=1 c=64 v=0
196986 On ch=1 n=a#5 v=68
196986 On ch=1 n=c#5 v=68
196986 On ch=1 n=a#4 v=68
197830 On ch=1 n=a#4 v=0
197830 On ch=1 n=c#5 v=0
197830 On ch=1 n=a#5 v=0
197830 On ch=1 n=f#5 v=61
197830 On ch=1 n=c#5 v=61
197830 On ch=1 n=a#4 v=61
198694 On ch=1 n=a#4 v=0
198694 On ch=1 n=c#5 v=0
198694 On ch=1 n=f#5 v=0
198694 On ch=1 n=f5 v=61
198694 On ch=1 n=c#5 v=61
198694 On ch=1 n=g#4 v=61
200442 On ch=1 n=g#4 v=0
200442 On ch=1 n=c#5 v=0
200442 On ch=1 n=f5 v=0
201328 On ch=1 n=c#5 v=54
201328 On ch=1 n=a#4 v=54
202146 On ch=1 n=a#4 v=0
202146 On ch=1 n=c#5 v=0
202146 On ch=1 n=f5 v=57
202146 On ch=1 n=g#4 v=57
202538 On ch=1 n=g#4 v=0
202538 On ch=1 n=f5 v=0
202538 On ch=1 n=d#5 v=57
202924 On ch=1 n=d#5 v=0
202924 On ch=1 n=c#5 v=61
202924 On ch=1 n=g#4 v=61
203726 On ch=1 n=g#4 v=0
203726 On ch=1 n=c#5 v=0
203726 On ch=1 n=d#5 v=64
203726 On ch=1 n=c5 v=64
203726 On ch=1 n=g#4 v=64
204508 On ch=1 n=g#4 v=0
204508 On ch=1 n=c5 v=0
204508 On ch=1 n=d#5 v=0
204508 On ch=1 n=d#5 v=62
204508 On ch=1 n=c5 v=62
204880 On ch=1 n=c5 v=0
204880 On ch=1 n=d#5 v=0
204880 On ch=1 n=d#5 v=62
204880 On ch=1 n=c5 v=62
205252 On ch=1 n=c5 v=0
205252 On ch=1 n=d#5 v=0
205252 On ch=1 n=f5 v=67
205252 On ch=1 n=c#5 v=67
205626 On ch=1 n=c#5 v=0
205626 On ch=1 n=f5 v=0
205626 On ch=1 n=d#5 v=63
205626 On ch=1 n=c5 v=63
206002 On ch=1 n=c5 v=0
206002 On ch=1 n=d#5 v=0
206002 On ch=1 n=c#5 v=63
206002 On ch=1 n=a#4 v=63
206374 On ch=1 n=a#4 v=0
206374 On ch=1 n=c#5 v=0
206374 On ch=1 n=d#5 v=66
206374 On ch=1 n=c5 v=66
206750 On ch=1 n=c5 v=0
206750 On ch=1 n=d#5 v=0
206750 On ch=1 n=f5 v=66
206750 On ch=1 n=c#5 v=66
207540 On ch=1 n=c#5 v=0
207540 On ch=1 n=f5 v=0
207540 On ch=1 n=c#5 v=64
207540 On ch=1 n=f4 v=64
208342 On ch=1 n=f4 v=0
208342 On ch=1 n=c#5 v=0
208342 On ch=1 n=f5 v=63
208342 On ch=1 n=c#5 v=63
209930 On ch=1 n=c#5 v=0
209930 On ch=1 n=f5 v=0
210734 On ch=1 n=c#6 v=62
210734 On ch=1 n=a#5 v=62
210734 On ch=1 n=f#5 v=62
211514 On ch=1 n=f#5 v=0
211514 On ch=1 n=a#5 v=0
211514 On ch=1 n=c#6 v=0
211514 On ch=1 n=f6 v=68
211514 On ch=1 n=g#5 v=68
211514 On ch=1 n=f5 v=68
211886 On ch=1 n=f6 v=0
211886 On ch=1 n=d#6 v=70
212264 On ch=1 n=d#6 v=0
212264 On ch=1 n=f5 v=0
212264 On ch=1 n=g#5 v=0
212264 On ch=1 n=c#6 v=68
212264 On ch=1 n=a#5 v=68
212264 On ch=1 n=f#5 v=68
213038 On ch=1 n=f#5 v=0
213038 On ch=1 n=a#5 v=0
213038 On ch=1 n=c#6 v=0
213038 On ch=1 n=g#6 v=69
213038 On ch=1 n=c#6 v=69
213038 On ch=1 n=b5 v=69
213802 On ch=1 n=b5 v=0
213802 On ch=1 n=c#6 v=0
213802 On ch=1 n=g#6 v=0
213802 On ch=1 n=g#6 v=69
213802 On ch=1 n=c#6 v=69
213802 On ch=1 n=b5 v=69
214180 On ch=1 n=b5 v=0
214180 On ch=1 n=c#6 v=0
214180 On ch=1 n=g#6 v=0
214180 On ch=1 n=g#6 v=68
214180 On ch=1 n=c#6 v=68
214180 On ch=1 n=b5 v=68
214552 On ch=1 n=b5 v=0
214552 On ch=1 n=c#6 v=0
214552 On ch=1 n=g#6 v=0
214552 On ch=1 n=a#6 v=76
214552 On ch=1 n=c#6 v=76
214552 On ch=1 n=b5 v=76
214922 On ch=1 n=a#6 v=0
214922 On ch=1 n=g#6 v=71
215298 On ch=1 n=g#6 v=0
215298 On ch=1 n=b5 v=0
215298 On ch=1 n=c#6 v=0
215298 On ch=1 n=f6 v=70
215298 On ch=1 n=c#6 v=70
215298 On ch=1 n=b5 v=70
215682 On ch=1 n=b5 v=0
215682 On ch=1 n=c#6 v=0
215682 On ch=1 n=f6 v=0
215682 On ch=1 n=c#6 v=74
215682 On ch=1 n=b5 v=74
216068 On ch=1 n=b5 v=0
216068 On ch=1 n=c#6 v=0
216068 On ch=1 n=a#6 v=78
216068 On ch=1 n=c#6 v=78
216068 On ch=1 n=a#5 v=78
216838 On ch=1 n=a#5 v=0
216838 On ch=1 n=c#6 v=0
216838 On ch=1 n=a#6 v=0
216838 On ch=1 n=f#6 v=80
216838 On ch=1 n=c#6 v=80
216838 On ch=1 n=a#5 v=80
217624 On ch=1 n=a#5 v=0
217624 On ch=1 n=c#6 v=0
217624 On ch=1 n=f#6 v=0
217624 On ch=1 n=f6 v=77
217624 On ch=1 n=c#6 v=77
217624 On ch=1 n=g#5 v=77
217624 On ch=1 n=f5 v=77
219128 On ch=1 n=f5 v=0
219128 On ch=1 n=g#5 v=0
219128 On ch=1 n=c#6 v=0
219128 On ch=1 n=f6 v=0
219946 On ch=1 n=c#6 v=81
219946 On ch=1 n=a#5 v=81
219946 On ch=1 n=f#5 v=81
220712 On ch=1 n=f#5 v=0
220712 On ch=1 n=a#5 v=0
220712 On ch=1 n=c#6 v=0
220712 On ch=1 n=f6 v=83
220712 On ch=1 n=g#5 v=83
220712 On ch=1 n=f5 v=83
221064 On ch=1 n=f6 v=0
221064 On ch=1 n=d#6 v=83
221444 On ch=1 n=d#6 v=0
221444 On ch=1 n=f5 v=0
221444 On ch=1 n=g#5 v=0
221444 On ch=1 n=c#6 v=83
221444 On ch=1 n=g#5 v=83
221444 On ch=1 n=f5 v=83
222222 On ch=1 n=f5 v=0
222222 On ch=1 n=g#5 v=0
222222 On ch=1 n=c#6 v=0
222222 On ch=1 n=d#6 v=84
222222 On ch=1 n=g#5 v=84
222222 On ch=1 n=f#5 v=84
222982 On ch=1 n=f#5 v=0
222982 On ch=1 n=g#5 v=0
222982 On ch=1 n=d#6 v=0
222982 On ch=1 n=d#6 v=84
222982 On ch=1 n=g#5 v=84
222982 On ch=1 n=f#5 v=84
223316 On ch=1 n=f#5 v=0
223316 On ch=1 n=g#5 v=0
223316 On ch=1 n=d#6 v=0
223316 On ch=1 n=d#6 v=84
223316 On ch=1 n=g#5 v=84
223316 On ch=1 n=f#5 v=84
223694 On ch=1 n=f#5 v=0
223694 On ch=1 n=g#5 v=0
223694 On ch=1 n=d#6 v=0
223694 On ch=1 n=f6 v=84
223694 On ch=1 n=g#5 v=84
223694 On ch=1 n=f#5 v=84
224034 On ch=1 n=f#5 v=0
224034 On ch=1 n=g#5 v=0
224034 On ch=1 n=f6 v=0
224034 On ch=1 n=d#6 v=85
224034 On ch=1 n=g#5 v=85
224034 On ch=1 n=f#5 v=85
224412 On ch=1 n=f#5 v=0
224412 On ch=1 n=g#5 v=0
224412 On ch=1 n=d#6 v=0
224412 On ch=1 n=c#6 v=85
224412 On ch=1 n=g#5 v=85
224412 On ch=1 n=f#5 v=85
224770 On ch=1 n=f#5 v=0
224770 On ch=1 n=g#5 v=0
224770 On ch=1 n=c#6 v=0
224770 On ch=1 n=d#6 v=85
224770 On ch=1 n=g#5 v=85
224770 On ch=1 n=f#5 v=85
225144 On ch=1 n=f#5 v=0
225144 On ch=1 n=g#5 v=0
225144 On ch=1 n=d#6 v=0
225144 On ch=1 n=f6 v=85
225144 On ch=1 n=g#5 v=85
225144 On ch=1 n=f5 v=85
225906 On ch=1 n=f5 v=0
225906 On ch=1 n=g#5 v=0
225906 On ch=1 n=f6 v=0
225906 On ch=1 n=c#6 v=87
225906 On ch=1 n=c#5 v=87
226672 On ch=1 n=c#5 v=0
226672 On ch=1 n=c#6 v=0
226672 On ch=1 n=c#6 v=88
226672 On ch=1 n=c#5 v=88
227440 On ch=1 n=c#5 v=0
227440 On ch=1 n=c#6 v=0
227440 On ch=1 n=d#6 v=90
227820 On ch=1 n=d#6 v=0
227820 On ch=1 n=d#5 v=91
228190 On ch=1 n=d#5 v=0
228190 On ch=1 n=d#6 v=91
228556 On ch=1 n=d#6 v=0
228556 On ch=1 n=e6 v=93
228556 On ch=1 n=e5 v=93
228568 Par ch=1 c=64 v=127
229270 On ch=1 n=e5 v=0
229270 On ch=1 n=e6 v=0
229270 On ch=1 n=e6 v=95
229270 On ch=1 n=a5 v=95
229270 On ch=1 n=e5 v=95
229634 On ch=1 n=e5 v=0
229634 On ch=1 n=a5 v=0
229634 On ch=1 n=e6 v=0
229634 On ch=1 n=e6 v=96
229634 On ch=1 n=a5 v=96
229634 On ch=1 n=e5 v=96
230000 On ch=1 n=e5 v=0
230000 On ch=1 n=a5 v=0
230000 On ch=1 n=e6 v=0
230000 On ch=1 n=e6 v=96
230000 On ch=1 n=a5 v=96
230000 On ch=1 n=e5 v=96
230728 On ch=1 n=e5 v=0
230728 On ch=1 n=a5 v=0
230728 On ch=1 n=e6 v=0
230728 On ch=1 n=e5 v=96
230728 On ch=1 n=a5 v=96
230728 On ch=1 n=e6 v=96
231096 On ch=1 n=e6 v=0
231096 On ch=1 n=a5 v=0
231096 On ch=1 n=e5 v=0
231096 Par ch=1 c=64 v=0
231096 On ch=1 n=e6 v=96
231096 On ch=1 n=g#5 v=96
231096 On ch=1 n=e5 v=96
231850 On ch=1 n=e5 v=0
231850 On ch=1 n=g#5 v=0
231850 On ch=1 n=e6 v=0
231850 On ch=1 n=e6 v=96
231850 On ch=1 n=d6 v=96
231850 On ch=1 n=g#5 v=96
232212 On ch=1 n=g#5 v=0
232212 On ch=1 n=d6 v=0
232212 On ch=1 n=e6 v=0
232212 On ch=1 n=e6 v=96
232212 On ch=1 n=d6 v=96
232212 On ch=1 n=g#5 v=96
232574 On ch=1 n=g#5 v=0
232574 On ch=1 n=d6 v=0
232574 On ch=1 n=e6 v=0
232574 On ch=1 n=f#6 v=97
232574 On ch=1 n=d6 v=97
232574 On ch=1 n=g#5 v=97
232936 On ch=1 n=g#5 v=0
232936 On ch=1 n=d6 v=0
232936 On ch=1 n=f#6 v=0
232936 On ch=1 n=e6 v=97
232936 On ch=1 n=d6 v=97
232936 On ch=1 n=g#5 v=97
233300 On ch=1 n=g#5 v=0
233300 On ch=1 n=d6 v=0
233300 On ch=1 n=e6 v=0
233300 On ch=1 n=a6 v=97
233300 On ch=1 n=e6 v=97
233300 On ch=1 n=d6 v=97
233300 On ch=1 n=a5 v=97
233666 On ch=1 n=a5 v=0
233666 On ch=1 n=d6 v=0
233666 On ch=1 n=e6 v=0
233666 On ch=1 n=a6 v=0
233666 On ch=1 n=b6 v=97
233666 On ch=1 n=e6 v=97
233666 On ch=1 n=d6 v=97
233666 On ch=1 n=b5 v=97
234038 On ch=1 n=b5 v=0
234038 On ch=1 n=d6 v=0
234038 On ch=1 n=e6 v=0
234038 On ch=1 n=b6 v=0
234038 On ch=1 n=c#7 v=99
234038 On ch=1 n=e6 v=99
234038 On ch=1 n=c#6 v=99
234772 On ch=1 n=c#6 v=0
234772 On ch=1 n=e6 v=0
234772 On ch=1 n=c#7 v=0
234772 On ch=1 n=a6 v=100
234772 On ch=1 n=a5 v=100
235536 On ch=1 n=a5 v=0
235536 On ch=1 n=a6 v=0
235536 On ch=1 n=a6 v=100
235536 On ch=1 n=a5 v=100
236288 On ch=1 n=a5 v=0
236288 On ch=1 n=a6 v=0
236288 On ch=1 n=a#6 v=102
236668 On ch=1 n=a#6 v=0
236668 On ch=1 n=a#5 v=102
237040 On ch=1 n=a#5 v=0
237040 On ch=1 n=a#6 v=102
237386 On ch=1 n=a#6 v=0
237386 Par ch=1 c=64 v=127
237386 On ch=1 n=c7 v=103
237386 On ch=1 n=c6 v=103
238116 On ch=1 n=c6 v=0
238116 On ch=1 n=c7 v=0
238116 On ch=1 n=c7 v=103
238116 On ch=1 n=f6 v=103
238116 On ch=1 n=c6 v=103
238466 On ch=1 n=c6 v=0
238466 On ch=1 n=f6 v=0
238466 On ch=1 n=c7 v=0
238466 On ch=1 n=c7 v=103
238466 On ch=1 n=f6 v=103
238466 On ch=1 n=c6 v=103
238816 On ch=1 n=c6 v=0
238816 On ch=1 n=f6 v=0
238816 On ch=1 n=c7 v=0
238816 On ch=1 n=c7 v=103
238816 On ch=1 n=f6 v=103
238816 On ch=1 n=c6 v=103
239540 On ch=1 n=c6 v=0
239540 On ch=1 n=f6 v=0
239540 On ch=1 n=c7 v=0
239540 On ch=1 n=c7 v=103
239540 On ch=1 n=f6 v=103
239540 On ch=1 n=c6 v=103
239880 On ch=1 n=c6 v=0
239880 On ch=1 n=f6 v=0
239880 On ch=1 n=c7 v=0
239880 Par ch=1 c=64 v=0
239880 On ch=1 n=c7 v=103
239880 On ch=1 n=e6 v=103
239880 On ch=1 n=c6 v=103
240612 On ch=1 n=c6 v=0
240612 On ch=1 n=e6 v=0
240612 On ch=1 n=c7 v=0
240612 On ch=1 n=c7 v=104
240612 On ch=1 n=e6 v=104
240612 On ch=1 n=c6 v=104
240940 On ch=1 n=c6 v=0
240940 On ch=1 n=e6 v=0
240940 On ch=1 n=c7 v=0
240940 On ch=1 n=c7 v=104
240940 On ch=1 n=e6 v=104
240940 On ch=1 n=c6 v=104
241302 On ch=1 n=c6 v=0
241302 On ch=1 n=e6 v=0
241302 On ch=1 n=c7 v=0
241302 On ch=1 n=d7 v=104
241302 On ch=1 n=f6 v=104
241302 On ch=1 n=d6 v=104
241666 On ch=1 n=d6 v=0
241666 On ch=1 n=f6 v=0
241666 On ch=1 n=d7 v=0
241666 On ch=1 n=c7 v=104
241666 On ch=1 n=e6 v=104
241666 On ch=1 n=c6 v=104
242040 On ch=1 n=c6 v=0
242040 On ch=1 n=e6 v=0
242040 On ch=1 n=c7 v=0
242040 On ch=1 n=f7 v=104
242040 On ch=1 n=a6 v=104
242040 On ch=1 n=f6 v=104
242422 On ch=1 n=f6 v=0
242422 On ch=1 n=a6 v=0
242422 On ch=1 n=f7 v=0
242422 On ch=1 n=g7 v=108
242422 On ch=1 n=a#6 v=108
242422 On ch=1 n=g6 v=108
242796 On ch=1 n=g6 v=0
242796 On ch=1 n=a#6 v=0
242796 On ch=1 n=g7 v=0
242796 On ch=1 n=a7 v=117
242796 On ch=1 n=c7 v=117
242796 On ch=1 n=g6 v=117
243540 On ch=1 n=g6 v=0
243540 On ch=1 n=c7 v=0
243540 On ch=1 n=a7 v=0
243540 On ch=1 n=f7 v=115
243540 On ch=1 n=a6 v=115
243540 On ch=1 n=f6 v=115
244334 On ch=1 n=f6 v=0
244334 On ch=1 n=a6 v=0
244334 On ch=1 n=f7 v=0
244334 On ch=1 n=f#7 v=127
244334 On ch=1 n=a6 v=127
244334 On ch=1 n=f#6 v=127
244346 Par ch=1 c=64 v=127
245440 On ch=1 n=f#6 v=0
245440 On ch=1 n=a6 v=0
245440 On ch=1 n=f#7 v=0
245440 On ch=1 n=d#7 v=115
245620 On ch=1 n=d#7 v=0
245620 On ch=1 n=c7 v=115
245776 On ch=1 n=c7 v=0
245776 On ch=1 n=a6 v=116
245946 On ch=1 n=a6 v=0
245946 On ch=1 n=f#6 v=116
246106 On ch=1 n=f#6 v=0
246106 On ch=1 n=d#6 v=115
246274 On ch=1 n=d#6 v=0
246274 On ch=1 n=c6 v=115
246430 On ch=1 n=c6 v=0
246430 On ch=1 n=a5 v=113
246594 On ch=1 n=a5 v=0
246594 On ch=1 n=f#5 v=113
246750 On ch=1 n=f#5 v=0
246750 On ch=1 n=d#5 v=109
246912 On ch=1 n=d#5 v=0
246912 On ch=1 n=c5 v=109
247074 On ch=1 n=c5 v=0
247074 Par ch=1 c=64 v=0
247074 On ch=1 n=a4 v=105
247776 On ch=1 n=a4 v=0
247776 On ch=1 n=c#5 v=103
247776 On ch=1 n=a#4 v=103
248504 On ch=1 n=a#4 v=0
248504 On ch=1 n=c#5 v=0
248504 On ch=1 n=c5 v=102
248504 On ch=1 n=a4 v=102
249206 On ch=1 n=a4 v=0
249206 On ch=1 n=c5 v=0
249206 On ch=1 n=f#6 v=111
249206 On ch=1 n=f#5 v=111
249570 On ch=1 n=f#5 v=0
249570 On ch=1 n=f#6 v=0
249570 On ch=1 n=f6 v=114
249570 On ch=1 n=f5 v=114
249956 On ch=1 n=f5 v=0
249956 On ch=1 n=f6 v=0
249956 On ch=1 n=e6 v=115
249956 On ch=1 n=e5 v=115
250706 On ch=1 n=e5 v=0
250706 On ch=1 n=e6 v=0
250706 On ch=1 n=f6 v=113
250706 On ch=1 n=f5 v=113
251064 On ch=1 n=f5 v=0
251064 On ch=1 n=f6 v=0
251064 On ch=1 n=e6 v=111
251064 On ch=1 n=e5 v=111
251446 On ch=1 n=e5 v=0
251446 On ch=1 n=e6 v=0
251446 On ch=1 n=d#6 v=111
251446 On ch=1 n=d#5 v=111
252198 On ch=1 n=d#5 v=0
252198 On ch=1 n=d#6 v=0
252198 On ch=1 n=d6 v=111
252198 On ch=1 n=d5 v=111
252544 On ch=1 n=d5 v=0
252544 On ch=1 n=d6 v=0
252544 On ch=1 n=c#6 v=111
252544 On ch=1 n=c#5 v=111
252914 On ch=1 n=c#5 v=0
252914 On ch=1 n=c#6 v=0
252914 On ch=1 n=c6 v=111
252914 On ch=1 n=c5 v=111
253638 On ch=1 n=c5 v=0
253638 On ch=1 n=c6 v=0
253638 On ch=1 n=f#7 v=114
253638 On ch=1 n=c7 v=114
253638 On ch=1 n=a6 v=114
253650 Par ch=1 c=64 v=127
253988 On ch=1 n=a6 v=0
253988 On ch=1 n=c7 v=0
253988 On ch=1 n=f#7 v=0
253988 On ch=1 n=d#7 v=119
254162 On ch=1 n=d#7 v=0
254162 On ch=1 n=c7 v=119
254420 On ch=1 n=c7 v=0
254420 On ch=1 n=a6 v=127
254616 On ch=1 n=a6 v=0
254616 On ch=1 n=f#6 v=127
254716 On ch=1 n=f#6 v=0
254716 On ch=1 n=f6 v=120
254896 On ch=1 n=f6 v=0
254896 On ch=1 n=c6 v=120
255066 On ch=1 n=c6 v=0
255066 On ch=1 n=a5 v=113
255228 On ch=1 n=a5 v=0
255228 On ch=1 n=f#5 v=113
255422 On ch=1 n=f#5 v=0
255422 On ch=1 n=d#5 v=111
255600 On ch=1 n=d#5 v=0
255600 On ch=1 n=c5 v=111
255764 On ch=1 n=c5 v=0
255764 Par ch=1 c=64 v=0
255764 On ch=1 n=a4 v=111
256530 On ch=1 n=a4 v=0
256530 On ch=1 n=c#5 v=111
256530 On ch=1 n=a#4 v=111
257316 On ch=1 n=a#4 v=0
257316 On ch=1 n=c#5 v=0
257316 On ch=1 n=c5 v=106
257316 On ch=1 n=a4 v=106
258092 On ch=1 n=a4 v=0
258092 On ch=1 n=c5 v=0
258092 On ch=1 n=f#6 v=106
258092 On ch=1 n=f#5 v=106
258448 On ch=1 n=f#5 v=0
258448 On ch=1 n=f#6 v=0
258448 On ch=1 n=f6 v=103
258448 On ch=1 n=f5 v=103
258806 On ch=1 n=f5 v=0
258806 On ch=1 n=f6 v=0
258806 On ch=1 n=e6 v=99
258806 On ch=1 n=e5 v=99
259586 On ch=1 n=e5 v=0
259586 On ch=1 n=e6 v=0
259586 On ch=1 n=f6 v=101
259586 On ch=1 n=f5 v=101
259958 On ch=1 n=f5 v=0
259958 On ch=1 n=f6 v=0
259958 On ch=1 n=e6 v=101
259958 On ch=1 n=e5 v=101
260324 On ch=1 n=e5 v=0
260324 On ch=1 n=e6 v=0
260324 On ch=1 n=d#6 v=101
260324 On ch=1 n=d#5 v=101
261054 On ch=1 n=d#5 v=0
261054 On ch=1 n=d#6 v=0
261054 On ch=1 n=d6 v=101
261054 On ch=1 n=d5 v=101
261406 On ch=1 n=d5 v=0
261406 On ch=1 n=d6 v=0
261406 On ch=1 n=c#6 v=101
261406 On ch=1 n=c#5 v=101
261760 On ch=1 n=c#5 v=0
261760 On ch=1 n=c#6 v=0
261760 On ch=1 n=c6 v=101
261760 On ch=1 n=c5 v=101
262520 On ch=1 n=c5 v=0
262520 On ch=1 n=c6 v=0
262520 On ch=1 n=f6 v=101
262520 On ch=1 n=f5 v=101
262870 On ch=1 n=f5 v=0
262870 On ch=1 n=f6 v=0
262870 On ch=1 n=e6 v=101
262870 On ch=1 n=d5 v=101
263244 On ch=1 n=d5 v=0
263244 On ch=1 n=e6 v=0
263244 On ch=1 n=d#6 v=101
263244 On ch=1 n=d#5 v=101
263964 On ch=1 n=d#5 v=0
263964 On ch=1 n=d#6 v=0
263964 On ch=1 n=e6 v=101
263964 On ch=1 n=e5 v=101
264312 On ch=1 n=e5 v=0
264312 On ch=1 n=e6 v=0
264312 On ch=1 n=d#6 v=101
264312 On ch=1 n=d#5 v=101
264688 On ch=1 n=d#5 v=0
264688 On ch=1 n=d#6 v=0
264688 On ch=1 n=d6 v=101
264688 On ch=1 n=d5 v=101
265424 On ch=1 n=d5 v=0
265424 On ch=1 n=d6 v=0
265424 On ch=1 n=c#6 v=101
265424 On ch=1 n=c#5 v=101
265786 On ch=1 n=c#5 v=0
265786 On ch=1 n=c#6 v=0
265786 On ch=1 n=c6 v=101
265786 On ch=1 n=c5 v=101
266150 On ch=1 n=c5 v=0
266150 On ch=1 n=c6 v=0
266150 On ch=1 n=a#5 v=101
266150 On ch=1 n=a#4 v=101
266900 On ch=1 n=a#4 v=0
266900 On ch=1 n=a#5 v=0
266900 On ch=1 n=d#6 v=101
266900 On ch=1 n=d#5 v=101
267256 On ch=1 n=d#5 v=0
267256 On ch=1 n=d#6 v=0
267256 On ch=1 n=d6 v=101
267256 On ch=1 n=d5 v=101
267604 On ch=1 n=d5 v=0
267604 On ch=1 n=d6 v=0
267604 On ch=1 n=c#6 v=101
267604 On ch=1 n=c#5 v=101
268346 On ch=1 n=c#5 v=0
268346 On ch=1 n=c#6 v=0
268346 On ch=1 n=d#6 v=101
268346 On ch=1 n=d#5 v=101
268688 On ch=1 n=d#5 v=0
268688 On ch=1 n=d#6 v=0
268688 On ch=1 n=c#6 v=101
268688 On ch=1 n=c#5 v=101
269058 On ch=1 n=c#5 v=0
269058 On ch=1 n=c#6 v=0
269058 On ch=1 n=c6 v=101
269058 On ch=1 n=c5 v=101
269794 On ch=1 n=c5 v=0
269794 On ch=1 n=c6 v=0
269794 On ch=1 n=a#5 v=101
269794 On ch=1 n=a#4 v=101
270146 On ch=1 n=a#4 v=0
270146 On ch=1 n=a#5 v=0
270146 On ch=1 n=g#5 v=101
270146 On ch=1 n=a#4 v=101
270500 On ch=1 n=a#4 v=0
270500 On ch=1 n=g#5 v=0
270500 On ch=1 n=g#5 v=101
270500 On ch=1 n=a#4 v=101
270678 On ch=1 n=g#5 v=0
270678 On ch=1 n=f#5 v=101
270858 On ch=1 n=f#5 v=0
270858 On ch=1 n=g#5 v=101
271036 On ch=1 n=g#5 v=0
271036 On ch=1 n=f#5 v=101
271210 On ch=1 n=f#5 v=0
271210 On ch=1 n=a#4 v=0
271210 On ch=1 n=g#5 v=101
271210 On ch=1 n=a#4 v=101
271388 On ch=1 n=g#5 v=0
271388 On ch=1 n=f#5 v=101
271562 On ch=1 n=f#5 v=0
271562 On ch=1 n=a#4 v=0
271562 On ch=1 n=g#5 v=99
271562 On ch=1 n=a#4 v=99
271738 On ch=1 n=g#5 v=0
271738 On ch=1 n=f#5 v=99
271924 On ch=1 n=f#5 v=0
271924 On ch=1 n=a#4 v=0
271924 On ch=1 n=g#5 v=98
271924 On ch=1 n=a#4 v=98
272104 On ch=1 n=g#5 v=0
272104 On ch=1 n=f#5 v=98
272282 On ch=1 n=f#5 v=0
272282 On ch=1 n=g#5 v=98
272462 On ch=1 n=g#5 v=0
272462 On ch=1 n=f#5 v=98
272648 On ch=1 n=f#5 v=0
272648 On ch=1 n=a#4 v=0
272648 On ch=1 n=g#5 v=98
272648 On ch=1 n=a#4 v=98
272828 On ch=1 n=g#5 v=0
272828 On ch=1 n=f#5 v=98
273012 On ch=1 n=f#5 v=0
273012 On ch=1 n=g#5 v=98
273194 On ch=1 n=g#5 v=0
273194 On ch=1 n=f#5 v=98
273372 On ch=1 n=f#5 v=0
273372 On ch=1 n=a#4 v=0
273372 On ch=1 n=f5 v=98
273372 On ch=1 n=a#4 v=98
273738 On ch=1 n=f5 v=0
273738 On ch=1 n=f#5 v=98
274112 On ch=1 n=f#5 v=0
274112 On ch=1 n=a#4 v=0
274112 On ch=1 n=g#5 v=98
274112 On ch=1 n=a#4 v=98
274496 On ch=1 n=g#5 v=0
274496 On ch=1 n=f#5 v=98
274880 On ch=1 n=f#5 v=0
274880 On ch=1 n=a#4 v=0
274880 On ch=1 n=f5 v=98
274880 On ch=1 n=a4 v=98
275626 On ch=1 n=a4 v=0
275626 On ch=1 n=f5 v=0
275626 On ch=1 n=f5 v=98
275626 On ch=1 n=f4 v=98
275986 On ch=1 n=f4 v=0
275986 On ch=1 n=f5 v=0
275986 On ch=1 n=f5 v=98
275986 On ch=1 n=f4 v=98
276344 On ch=1 n=f4 v=0
276344 On ch=1 n=f5 v=0
276344 On ch=1 n=f5 v=98
276344 On ch=1 n=f4 v=98
277074 On ch=1 n=f4 v=0
277074 On ch=1 n=f5 v=0
277074 On ch=1 n=f5 v=98
277074 On ch=1 n=f4 v=98
277782 On ch=1 n=f4 v=0
277782 On ch=1 n=f5 v=0
277782 On ch=1 n=f5 v=98
277782 On ch=1 n=f4 v=98
278496 On ch=1 n=f4 v=0
278496 On ch=1 n=f5 v=0
278496 On ch=1 n=f5 v=98
278496 On ch=1 n=f4 v=98
279238 On ch=1 n=f4 v=0
279238 On ch=1 n=f5 v=0
279238 On ch=1 n=f5 v=98
280724 On ch=1 n=a#5 v=98
280724 On ch=1 n=c#5 v=98
282458 On ch=1 n=c#5 v=0
282458 On ch=1 n=a#5 v=0
282458 On ch=1 n=a5 v=91
282458 On ch=1 n=c5 v=91
284304 On ch=1 n=f5 v=0
284304 On ch=1 n=e5 v=69
286142 On ch=1 n=c5 v=0
286142 On ch=1 n=a5 v=0
286142 On ch=1 n=a5 v=68
286142 On ch=1 n=c5 v=68
288016 On ch=1 n=c5 v=0
288016 On ch=1 n=a5 v=0
288016 On ch=1 n=g#5 v=63
288016 On ch=1 n=b4 v=63
290026 On ch=1 n=e5 v=0
290026 On ch=1 n=d#5 v=61
290902 On ch=1 n=d#5 v=0
290902 On ch=1 n=d#5 v=54
291384 On ch=1 n=d#5 v=0
291384 On ch=1 n=d#5 v=59
291842 On ch=1 n=d#5 v=0
291842 On ch=1 n=b4 v=0
291842 On ch=1 n=g#5 v=0
291842 On ch=1 n=g#5 v=60
291842 On ch=1 n=b4 v=60
291842 On ch=1 n=d#5 v=60
292830 On ch=1 n=d#5 v=0
292830 On ch=1 n=d#5 v=57
293896 On ch=1 n=d#5 v=0
293896 On ch=1 n=b4 v=0
293896 On ch=1 n=g#5 v=0
293896 On ch=1 n=g5 v=56
293896 On ch=1 n=a#4 v=56
293896 On ch=1 n=d#5 v=56
294912 On ch=1 n=d#5 v=0
294912 On ch=1 n=d#5 v=57
295978 On ch=1 n=a#4 v=0
295978 On ch=1 n=g5 v=0
295978 On ch=1 n=f#5 v=54
295978 On ch=1 n=c5 v=54
298134 On ch=1 n=c5 v=0
298134 On ch=1 n=f#5 v=0
298134 On ch=1 n=d#5 v=0
298134 On ch=1 n=f5 v=56
298134 On ch=1 n=d5 v=56
300372 On ch=1 n=d5 v=0
300372 On ch=1 n=f5 v=0
302530 On ch=1 n=b4 v=52
304786 On ch=1 n=b4 v=0
304786 On ch=1 n=d4 v=54
306962 On ch=1 n=d4 v=0
309158 On ch=1 n=b4 v=52
311426 On ch=1 n=b4 v=0
311426 On ch=1 n=d4 v=49
313606 On ch=1 n=d4 v=0
315836 On ch=1 n=b4 v=52
318052 On ch=1 n=b4 v=0
318052 On ch=1 n=d4 v=44
320138 On ch=1 n=d4 v=0
320138 On ch=1 n=b4 v=54
322262 On ch=1 n=b4 v=0
322262 On ch=1 n=d4 v=48
324356 On ch=1 n=d4 v=0
327414 On ch=1 n=a#4 v=59
327782 On ch=1 n=a#4 v=0
327782 On ch=1 n=b4 v=62
328116 On ch=1 n=b4 v=0
328116 On ch=1 n=a4 v=61
328448 On ch=1 n=a4 v=0
328448 On ch=1 n=a#4 v=51
328810 On ch=1 n=a#4 v=0
328810 On ch=1 n=d#4 v=59
329610 On ch=1 n=d#4 v=0
331152 On ch=1 n=d#4 v=65
331152 On ch=1 n=f#4 v=65
331152 On ch=1 n=a#4 v=65
331510 On ch=1 n=a#4 v=0
331510 On ch=1 n=f#4 v=0
331510 On ch=1 n=d#4 v=0
331510 On ch=1 n=a#4 v=65
331510 On ch=1 n=f#4 v=65
331510 On ch=1 n=d#4 v=65
331848 On ch=1 n=d#4 v=0
331848 On ch=1 n=f#4 v=0
331848 On ch=1 n=a#4 v=0
331848 On ch=1 n=a#4 v=65
331848 On ch=1 n=f#4 v=65
331848 On ch=1 n=d#4 v=65
332654 On ch=1 n=d#4 v=0
332654 On ch=1 n=f#4 v=0
332654 On ch=1 n=a#4 v=0
332654 On ch=1 n=a#4 v=65
332654 On ch=1 n=f#4 v=65
332654 On ch=1 n=d#4 v=65
333008 On ch=1 n=d#4 v=0
333008 On ch=1 n=f#4 v=0
333008 On ch=1 n=a#4 v=0
333008 On ch=1 n=a#4 v=65
333008 On ch=1 n=f#4 v=65
333008 On ch=1 n=d#4 v=65
333378 On ch=1 n=d#4 v=0
333378 On ch=1 n=f#4 v=0
333378 On ch=1 n=a#4 v=0
333378 On ch=1 n=a#4 v=65
333378 On ch=1 n=f#4 v=65
333378 On ch=1 n=d#4 v=65
334176 On ch=1 n=d#4 v=0
334176 On ch=1 n=f#4 v=0
334176 On ch=1 n=a#4 v=0
334176 On ch=1 n=a#4 v=65
334176 On ch=1 n=f#4 v=65
334176 On ch=1 n=d#4 v=65
334554 On ch=1 n=d#4 v=0
334554 On ch=1 n=f#4 v=0
334554 On ch=1 n=a#4 v=0
334554 On ch=1 n=a#4 v=65
334554 On ch=1 n=f#4 v=65
334554 On ch=1 n=d#4 v=65
335012 On ch=1 n=d#4 v=0
335012 On ch=1 n=f#4 v=0
335012 On ch=1 n=a#4 v=0
335012 On ch=1 n=a#4 v=69
335012 On ch=1 n=f#4 v=69
335012 On ch=1 n=d#4 v=69
335946 On ch=1 n=d#4 v=0
335946 On ch=1 n=f#4 v=0
335946 On ch=1 n=a#4 v=0
336966 On ch=1 n=a#4 v=39
337394 On ch=1 n=a#4 v=0
337394 On ch=1 n=b4 v=44
337796 On ch=1 n=b4 v=0
337796 On ch=1 n=a4 v=45
338198 On ch=1 n=a4 v=0
338198 On ch=1 n=a#4 v=44
338616 On ch=1 n=a#4 v=0
338616 On ch=1 n=d#4 v=50
339428 On ch=1 n=d#4 v=0
341008 On ch=1 n=b4 v=53
341008 On ch=1 n=g#4 v=53
341008 On ch=1 n=f4 v=53
341398 On ch=1 n=f4 v=0
341398 On ch=1 n=g#4 v=0
341398 On ch=1 n=b4 v=0
341398 On ch=1 n=b4 v=49
341398 On ch=1 n=g#4 v=49
341398 On ch=1 n=f4 v=49
341796 On ch=1 n=f4 v=0
341796 On ch=1 n=g#4 v=0
341796 On ch=1 n=b4 v=0
341796 On ch=1 n=b4 v=48
341796 On ch=1 n=g#4 v=48
341796 On ch=1 n=f4 v=48
342618 On ch=1 n=f4 v=0
342618 On ch=1 n=g#4 v=0
342618 On ch=1 n=b4 v=0
342618 On ch=1 n=b4 v=51
342618 On ch=1 n=g#4 v=51
342618 On ch=1 n=f4 v=51
342994 On ch=1 n=f4 v=0
342994 On ch=1 n=g#4 v=0
342994 On ch=1 n=b4 v=0
342994 On ch=1 n=b4 v=55
342994 On ch=1 n=g#4 v=55
342994 On ch=1 n=f4 v=55
343382 On ch=1 n=f4 v=0
343382 On ch=1 n=g#4 v=0
343382 On ch=1 n=b4 v=0
343382 On ch=1 n=b4 v=58
343382 On ch=1 n=g#4 v=58
343382 On ch=1 n=f4 v=58
344208 On ch=1 n=f4 v=0
344208 On ch=1 n=g#4 v=0
344208 On ch=1 n=b4 v=0
344208 On ch=1 n=b4 v=65
344208 On ch=1 n=g#4 v=65
344208 On ch=1 n=f4 v=65
344594 On ch=1 n=f4 v=0
344594 On ch=1 n=g#4 v=0
344594 On ch=1 n=b4 v=0
344594 On ch=1 n=b4 v=65
344594 On ch=1 n=g#4 v=65
344594 On ch=1 n=f4 v=65
345002 On ch=1 n=f4 v=0
345002 On ch=1 n=g#4 v=0
345002 On ch=1 n=b4 v=0
345002 On ch=1 n=b4 v=65
345002 On ch=1 n=g#4 v=65
345002 On ch=1 n=f4 v=65
345804 On ch=1 n=f4 v=0
345804 On ch=1 n=g#4 v=0
345804 On ch=1 n=b4 v=0
346640 On ch=1 n=b4 v=63
347034 On ch=1 n=b4 v=0
347034 On ch=1 n=c#5 v=73
347394 On ch=1 n=c#5 v=0
347394 On ch=1 n=a#4 v=73
347770 On ch=1 n=a#4 v=0
347770 On ch=1 n=b4 v=73
348162 On ch=1 n=b4 v=0
348162 On ch=1 n=d#4 v=73
348928 On ch=1 n=d#4 v=0
350480 On ch=1 n=b4 v=75
350480 On ch=1 n=g#4 v=75
350480 On ch=1 n=f4 v=75
350830 On ch=1 n=f4 v=0
350830 On ch=1 n=g#4 v=0
350830 On ch=1 n=b4 v=0
350830 On ch=1 n=b4 v=75
350830 On ch=1 n=g#4 v=75
350830 On ch=1 n=f4 v=75
351194 On ch=1 n=f4 v=0
351194 On ch=1 n=g#4 v=0
351194 On ch=1 n=b4 v=0
351194 On ch=1 n=b4 v=75
351194 On ch=1 n=g#4 v=75
351194 On ch=1 n=f4 v=75
352004 On ch=1 n=f4 v=0
352004 On ch=1 n=g#4 v=0
352004 On ch=1 n=b4 v=0
352004 On ch=1 n=b4 v=75
352004 On ch=1 n=g#4 v=75
352004 On ch=1 n=f4 v=75
352344 On ch=1 n=f4 v=0
352344 On ch=1 n=g#4 v=0
352344 On ch=1 n=b4 v=0
352344 On ch=1 n=b4 v=75
352344 On ch=1 n=g#4 v=75
352344 On ch=1 n=f4 v=75
352726 On ch=1 n=f4 v=0
352726 On ch=1 n=g#4 v=0
352726 On ch=1 n=b4 v=0
352726 On ch=1 n=b4 v=75
352726 On ch=1 n=g#4 v=75
352726 On ch=1 n=f4 v=75
353494 On ch=1 n=f4 v=0
353494 On ch=1 n=g#4 v=0
353494 On ch=1 n=b4 v=0
353494 On ch=1 n=b4 v=75
353494 On ch=1 n=g#4 v=75
353494 On ch=1 n=f4 v=75
353834 On ch=1 n=f4 v=0
353834 On ch=1 n=g#4 v=0
353834 On ch=1 n=b4 v=0
353834 On ch=1 n=b4 v=75
353834 On ch=1 n=g#4 v=75
353834 On ch=1 n=f4 v=75
354254 On ch=1 n=f4 v=0
354254 On ch=1 n=g#4 v=0
354254 On ch=1 n=b4 v=0
354254 On ch=1 n=b4 v=76
354254 On ch=1 n=g#4 v=76
354254 On ch=1 n=f4 v=76
355186 On ch=1 n=f4 v=0
355186 On ch=1 n=g#4 v=0
355186 On ch=1 n=b4 v=0
356042 On ch=1 n=b4 v=81
356402 On ch=1 n=b4 v=0
356402 On ch=1 n=c#5 v=83
356762 On ch=1 n=c#5 v=0
356762 On ch=1 n=a#4 v=86
357130 On ch=1 n=a#4 v=0
357130 On ch=1 n=b4 v=88
357498 On ch=1 n=b4 v=0
357498 On ch=1 n=d#4 v=88
358252 On ch=1 n=d#4 v=0
358252 On ch=1 n=b4 v=88
358252 On ch=1 n=g#4 v=88
358252 On ch=1 n=f4 v=88
358602 On ch=1 n=f4 v=0
358602 On ch=1 n=g#4 v=0
358602 On ch=1 n=b4 v=0
358602 On ch=1 n=b4 v=88
358602 On ch=1 n=g#4 v=88
358602 On ch=1 n=f4 v=88
358964 On ch=1 n=f4 v=0
358964 On ch=1 n=g#4 v=0
358964 On ch=1 n=b4 v=0
358964 On ch=1 n=b4 v=88
358964 On ch=1 n=g#4 v=88
358964 On ch=1 n=f4 v=88
359740 On ch=1 n=f4 v=0
359740 On ch=1 n=g#4 v=0
359740 On ch=1 n=b4 v=0
359740 On ch=1 n=f5 v=88
359740 On ch=1 n=d#5 v=88
359740 On ch=1 n=b4 v=88
359740 On ch=1 n=f4 v=88
359752 Par ch=1 c=64 v=127
360100 On ch=1 n=f4 v=0
360100 On ch=1 n=b4 v=0
360100 On ch=1 n=d#5 v=0
360100 On ch=1 n=f5 v=0
360100 On ch=1 n=f5 v=88
360100 On ch=1 n=d#5 v=88
360100 On ch=1 n=b4 v=88
360100 On ch=1 n=f4 v=88
360454 On ch=1 n=f4 v=0
360454 On ch=1 n=b4 v=0
360454 On ch=1 n=d#5 v=0
360454 On ch=1 n=f5 v=0
360454 On ch=1 n=f5 v=88
360454 On ch=1 n=d#5 v=88
360454 On ch=1 n=b4 v=88
360454 On ch=1 n=f4 v=88
361208 On ch=1 n=f4 v=0
361208 On ch=1 n=b4 v=0
361208 On ch=1 n=d#5 v=0
361208 On ch=1 n=f5 v=0
361208 On ch=1 n=f6 v=92
361208 On ch=1 n=d#6 v=92
361208 On ch=1 n=b5 v=92
361208 On ch=1 n=f5 v=92
361562 On ch=1 n=f5 v=0
361562 On ch=1 n=b5 v=0
361562 On ch=1 n=d#6 v=0
361562 On ch=1 n=f6 v=0
361562 On ch=1 n=f6 v=93
361562 On ch=1 n=d#6 v=93
361562 On ch=1 n=b5 v=93
361562 On ch=1 n=f5 v=93
361930 On ch=1 n=f5 v=0
361930 On ch=1 n=b5 v=0
361930 On ch=1 n=d#6 v=0
361930 On ch=1 n=f6 v=0
361930 On ch=1 n=f6 v=94
361930 On ch=1 n=d#6 v=94
361930 On ch=1 n=b5 v=94
361930 On ch=1 n=f5 v=94
362662 On ch=1 n=f5 v=0
362662 On ch=1 n=b5 v=0
362662 On ch=1 n=d#6 v=0
362662 On ch=1 n=f6 v=0
362662 On ch=1 n=f6 v=95
362662 On ch=1 n=d#6 v=95
362662 On ch=1 n=b5 v=95
362662 On ch=1 n=f5 v=95
363022 On ch=1 n=f5 v=0
363022 On ch=1 n=b5 v=0
363022 On ch=1 n=d#6 v=0
363022 On ch=1 n=f6 v=0
363022 On ch=1 n=f6 v=96
363022 On ch=1 n=d#6 v=96
363022 On ch=1 n=b5 v=96
363022 On ch=1 n=f5 v=96
363384 On ch=1 n=f5 v=0
363384 On ch=1 n=b5 v=0
363384 On ch=1 n=d#6 v=0
363384 On ch=1 n=f6 v=0
363384 On ch=1 n=f6 v=96
363384 On ch=1 n=d#6 v=96
363384 On ch=1 n=b5 v=96
363384 On ch=1 n=f5 v=96
364136 On ch=1 n=f5 v=0
364136 On ch=1 n=b5 v=0
364136 On ch=1 n=d#6 v=0
364136 On ch=1 n=f6 v=0
364136 On ch=1 n=f6 v=97
364136 On ch=1 n=d#6 v=97
364136 On ch=1 n=b5 v=97
364136 On ch=1 n=f5 v=97
364492 On ch=1 n=f5 v=0
364492 On ch=1 n=b5 v=0
364492 On ch=1 n=d#6 v=0
364492 On ch=1 n=f6 v=0
364492 On ch=1 n=f6 v=99
364492 On ch=1 n=d#6 v=99
364492 On ch=1 n=b5 v=99
364492 On ch=1 n=f5 v=99
364932 On ch=1 n=f5 v=0
364932 On ch=1 n=b5 v=0
364932 On ch=1 n=d#6 v=0
364932 On ch=1 n=f6 v=0
364932 Par ch=1 c=64 v=0
364932 On ch=1 n=a#6 v=103
364932 On ch=1 n=f6 v=103
364932 On ch=1 n=a#5 v=103
364944 Par ch=1 c=64 v=127
367998 On ch=1 n=a#5 v=0
367998 On ch=1 n=f6 v=0
367998 On ch=1 n=a#6 v=0
367998 Par ch=1 c=64 v=0
367998 On ch=1 n=d#5 v=102
369502 On ch=1 n=d#5 v=0
369502 On ch=1 n=f5 v=104
369514 Par ch=1 c=64 v=127
369598 On ch=1 n=f5 v=0
369598 On ch=1 n=d#5 v=104
369694 On ch=1 n=d#5 v=0
369694 On ch=1 n=f5 v=104
369790 On ch=1 n=f5 v=0
369790 On ch=1 n=d#5 v=104
369884 On ch=1 n=d#5 v=0
369884 On ch=1 n=f5 v=105
369978 On ch=1 n=f5 v=0
369978 On ch=1 n=d#5 v=105
370072 On ch=1 n=d#5 v=0
370072 On ch=1 n=f5 v=105
370166 On ch=1 n=f5 v=0
370166 On ch=1 n=d#5 v=105
370242 On ch=1 n=d#5 v=0
370242 On ch=1 n=f5 v=107
370334 On ch=1 n=f5 v=0
370334 On ch=1 n=d#5 v=107
370426 On ch=1 n=d#5 v=0
370426 On ch=1 n=f5 v=107
370518 On ch=1 n=f5 v=0
370518 On ch=1 n=d#5 v=107
370612 On ch=1 n=d#5 v=0
370612 On ch=1 n=f5 v=107
370702 On ch=1 n=f5 v=0
370702 On ch=1 n=d#5 v=107
370794 On ch=1 n=d#5 v=0
370794 On ch=1 n=f5 v=107
370884 On ch=1 n=f5 v=0
370884 On ch=1 n=d#5 v=107
370972 On ch=1 n=d#5 v=0
370972 On ch=1 n=f5 v=107
371062 On ch=1 n=f5 v=0
371062 On ch=1 n=d#5 v=107
371154 On ch=1 n=d#5 v=0
371154 On ch=1 n=f5 v=107
371244 On ch=1 n=f5 v=0
371244 On ch=1 n=d#5 v=107
371340 On ch=1 n=d#5 v=0
371340 On ch=1 n=f5 v=108
371430 On ch=1 n=f5 v=0
371430 On ch=1 n=d#5 v=108
371522 On ch=1 n=d#5 v=0
371522 On ch=1 n=f5 v=108
371612 On ch=1 n=f5 v=0
371612 On ch=1 n=d#5 v=108
371716 On ch=1 n=d#5 v=0
371716 On ch=1 n=f5 v=110
371808 On ch=1 n=f5 v=0
371808 On ch=1 n=d#5 v=110
371902 On ch=1 n=d#5 v=0
371902 On ch=1 n=f5 v=110
371994 On ch=1 n=f5 v=0
371994 On ch=1 n=d#5 v=110
372090 On ch=1 n=d#5 v=0
372090 On ch=1 n=f5 v=111
372184 On ch=1 n=f5 v=0
372184 On ch=1 n=d#5 v=111
372276 On ch=1 n=d#5 v=0
372276 On ch=1 n=d5 v=111
372370 On ch=1 n=d5 v=0
372370 On ch=1 n=d#5 v=111
372454 On ch=1 n=d#5 v=0
372454 Par ch=1 c=64 v=0
372454 On ch=1 n=f5 v=111
372558 On ch=1 n=f5 v=0
372558 On ch=1 n=f#5 v=111
372662 On ch=1 n=f#5 v=0
372662 On ch=1 n=g#5 v=111
372766 On ch=1 n=g#5 v=0
372766 On ch=1 n=a#5 v=111
372876 On ch=1 n=a#5 v=0
372876 On ch=1 n=b5 v=111
372980 On ch=1 n=b5 v=0
372980 On ch=1 n=c#6 v=111
373086 On ch=1 n=c#6 v=0
373086 On ch=1 n=d#6 v=111
373192 On ch=1 n=d#6 v=0
373192 On ch=1 n=f6 v=114
373284 On ch=1 n=f6 v=0
373284 On ch=1 n=f#6 v=114
373376 On ch=1 n=f#6 v=0
373376 On ch=1 n=g#6 v=114
373468 On ch=1 n=g#6 v=0
373468 On ch=1 n=a#6 v=114
373548 On ch=1 n=a#6 v=0
373548 On ch=1 n=b6 v=117
373638 On ch=1 n=b6 v=0
373638 On ch=1 n=c#7 v=117
373728 On ch=1 n=c#7 v=0
373728 On ch=1 n=d#7 v=117
373818 On ch=1 n=d#7 v=0
373818 On ch=1 n=f7 v=117
373974 On ch=1 n=f7 v=0
373974 On ch=1 n=f#7 v=122
373986 Par ch=1 c=64 v=127
375876 On ch=1 n=f#7 v=0
375876 On ch=1 n=d#7 v=112
376240 On ch=1 n=d#7 v=0
376240 On ch=1 n=a#6 v=112
376596 On ch=1 n=a#6 v=0
376596 On ch=1 n=f#6 v=112
377004 On ch=1 n=f#6 v=0
377004 Par ch=1 c=64 v=0
377004 On ch=1 n=f6 v=114
377098 On ch=1 n=f6 v=0
377098 On ch=1 n=f#6 v=114
377194 On ch=1 n=f#6 v=0
377194 On ch=1 n=f6 v=114
377328 On ch=1 n=f6 v=0
377328 On ch=1 n=e6 v=112
377674 On ch=1 n=e6 v=0
377674 On ch=1 n=f6 v=112
378086 On ch=1 n=f6 v=0
378274 On ch=1 n=a#6 v=114
378516 On ch=1 n=a#6 v=0
378516 On ch=1 n=d#6 v=119
381690 On ch=1 n=d#6 v=0
382432 On ch=1 n=d6 v=86
382796 On ch=1 n=d6 v=0
382796 On ch=1 n=d#6 v=85
383160 On ch=1 n=d#6 v=0
383160 On ch=1 n=f#6 v=81
383518 On ch=1 n=f#6 v=0
383518 On ch=1 n=f6 v=81
383874 On ch=1 n=f6 v=0
383874 On ch=1 n=f6 v=81
384240 On ch=1 n=f6 v=0
384240 On ch=1 n=c6 v=76
384620 On ch=1 n=c6 v=0
384620 On ch=1 n=b5 v=81
386490 On ch=1 n=b5 v=0
386490 On ch=1 n=a#5 v=81
386840 On ch=1 n=a#5 v=0
386840 On ch=1 n=d6 v=81
387180 On ch=1 n=d6 v=0
387180 On ch=1 n=d#6 v=83
387528 On ch=1 n=d#6 v=0
387528 On ch=1 n=f#6 v=86
387866 On ch=1 n=f#6 v=0
387866 On ch=1 n=f6 v=86
388258 On ch=1 n=f6 v=0
388258 On ch=1 n=f6 v=86
388620 On ch=1 n=f6 v=0
388620 On ch=1 n=c6 v=87
388990 On ch=1 n=c6 v=0
388990 On ch=1 n=b5 v=88
390882 On ch=1 n=b5 v=0
390882 On ch=1 n=a#5 v=92
391252 On ch=1 n=a#5 v=0
391252 On ch=1 n=d6 v=92
391612 On ch=1 n=d6 v=0
391612 On ch=1 n=d#6 v=93
391966 On ch=1 n=d#6 v=0
391966 On ch=1 n=f#6 v=93
392318 On ch=1 n=f#6 v=0
392318 On ch=1 n=f6 v=95
392668 On ch=1 n=f6 v=0
392668 On ch=1 n=f6 v=95
393040 On ch=1 n=f6 v=0
393040 On ch=1 n=c6 v=95
393400 On ch=1 n=c6 v=0
393400 On ch=1 n=g#6 v=96
393752 On ch=1 n=g#6 v=0
393752 On ch=1 n=g6 v=96
394108 On ch=1 n=g6 v=0
394108 On ch=1 n=g6 v=96
394458 On ch=1 n=g6 v=0
394458 On ch=1 n=d#6 v=96
394816 On ch=1 n=d#6 v=0
394816 On ch=1 n=a#6 v=97
395164 On ch=1 n=a#6 v=0
395164 On ch=1 n=g#6 v=97
395528 On ch=1 n=g#6 v=0
395528 On ch=1 n=g#6 v=97
395872 On ch=1 n=g#6 v=0
395872 On ch=1 n=d#6 v=97
396238 On ch=1 n=d#6 v=0
396238 On ch=1 n=b6 v=100
396584 On ch=1 n=b6 v=0
396584 On ch=1 n=a#6 v=100
396940 On ch=1 n=a#6 v=0
396940 On ch=1 n=a#6 v=100
397290 On ch=1 n=a#6 v=0
397290 On ch=1 n=f6 v=100
397656 On ch=1 n=f6 v=0
397656 On ch=1 n=b6 v=101
398012 On ch=1 n=b6 v=0
398012 On ch=1 n=a#6 v=101
398356 On ch=1 n=a#6 v=0
398356 On ch=1 n=a#6 v=101
398704 On ch=1 n=a#6 v=0
398704 On ch=1 n=a6 v=101
399066 On ch=1 n=a6 v=0
399066 On ch=1 n=a#6 v=101
399416 On ch=1 n=a#6 v=0
399416 On ch=1 n=b6 v=101
399768 On ch=1 n=b6 v=0
399768 On ch=1 n=a#6 v=101
400114 On ch=1 n=a#6 v=0
400114 On ch=1 n=f#7 v=101
400504 On ch=1 n=f#7 v=0
400504 On ch=1 n=f#7 v=101
400848 On ch=1 n=f#7 v=0
400848 On ch=1 n=f7 v=101
401208 On ch=1 n=f7 v=0
401208 On ch=1 n=f7 v=101
401584 On ch=1 n=f7 v=0
401584 On ch=1 n=b6 v=101
401984 On ch=1 n=b6 v=0
401984 On ch=1 n=b6 v=101
403918 On ch=1 n=b6 v=0
403918 On ch=1 n=a#6 v=92
404266 On ch=1 n=a#6 v=0
404266 On ch=1 n=d7 v=92
404602 On ch=1 n=d7 v=0
404602 On ch=1 n=d#7 v=97
404948 On ch=1 n=d#7 v=0
404948 On ch=1 n=f#7 v=99
405294 On ch=1 n=f#7 v=0
405294 On ch=1 n=f7 v=101
405644 On ch=1 n=f7 v=0
405644 On ch=1 n=f7 v=101
405996 On ch=1 n=f7 v=0
405996 On ch=1 n=b6 v=101
406352 On ch=1 n=b6 v=0
406352 On ch=1 n=b6 v=101
408354 On ch=1 n=b6 v=0
408354 On ch=1 n=a#6 v=86
408746 On ch=1 n=a#6 v=0
408746 On ch=1 n=a#6 v=82
409126 On ch=1 n=a#6 v=0
409126 On ch=1 n=e7 v=78
409508 On ch=1 n=e7 v=0
409508 On ch=1 n=e7 v=86
409882 On ch=1 n=e7 v=0
409882 On ch=1 n=d#7 v=75
410284 On ch=1 n=d#7 v=0
410284 On ch=1 n=d#7 v=84
410670 On ch=1 n=d#7 v=0
410670 On ch=1 n=g#6 v=86
411060 On ch=1 n=g#6 v=0
411060 On ch=1 n=f7 v=86
411450 On ch=1 n=f7 v=0
411450 On ch=1 n=d#7 v=94
411828 On ch=1 n=d#7 v=0
411828 On ch=1 n=d#7 v=88
412240 On ch=1 n=d#7 v=0
412240 On ch=1 n=f#6 v=82
412662 On ch=1 n=f#6 v=0
412662 On ch=1 n=f7 v=81
413056 On ch=1 n=f7 v=0
413056 On ch=1 n=d#7 v=84
413448 On ch=1 n=d#7 v=0
413448 On ch=1 n=d#7 v=82
413856 On ch=1 n=d#7 v=0
413856 On ch=1 n=f6 v=78
415214 On ch=1 n=f6 v=0
415676 On ch=1 n=b5 v=67
416126 On ch=1 n=b5 v=0
416126 On ch=1 n=b5 v=60
416578 On ch=1 n=b5 v=0
416578 On ch=1 n=d5 v=61
417040 On ch=1 n=d5 v=0
417040 On ch=1 n=d5 v=59
420152 On ch=1 n=d5 v=0
420152 On ch=1 n=g#4 v=67
420152 On ch=1 n=d#5 v=67
421260 On ch=1 n=d#5 v=0
421260 On ch=1 n=g#4 v=0
423396 On ch=1 n=f#5 v=29
423396 On ch=1 n=d#5 v=29
423396 On ch=1 n=b4 v=29
425564 On ch=1 n=b4 v=0
425564 On ch=1 n=d#5 v=0
425564 On ch=1 n=f#5 v=0
426634 On ch=1 n=f#5 v=46
426634 On ch=1 n=d#5 v=46
426634 On ch=1 n=b4 v=46
427666 On ch=1 n=b4 v=0
427666 On ch=1 n=d#5 v=0
427666 On ch=1 n=f#5 v=0
427666 On ch=1 n=g#5 v=48
427666 On ch=1 n=e5 v=48
427666 On ch=1 n=b4 v=48
428736 On ch=1 n=b4 v=0
428736 On ch=1 n=e5 v=0
428736 On ch=1 n=g#5 v=0
428736 On ch=1 n=f#5 v=49
428736 On ch=1 n=d#5 v=49
428736 On ch=1 n=b4 v=49
429522 On ch=1 n=b4 v=0
429522 On ch=1 n=d#5 v=0
429522 On ch=1 n=f#5 v=0
429522 On ch=1 n=f5 v=44
429522 On ch=1 n=d5 v=44
429522 On ch=1 n=b4 v=44
429796 On ch=1 n=b4 v=0
429796 On ch=1 n=d5 v=0
429796 On ch=1 n=f5 v=0
429796 On ch=1 n=f#5 v=49
429796 On ch=1 n=d#5 v=49
429796 On ch=1 n=b4 v=49
430860 On ch=1 n=b4 v=0
430860 On ch=1 n=d#5 v=0
430860 On ch=1 n=f#5 v=0
430860 On ch=1 n=d#5 v=65
430860 On ch=1 n=b4 v=65
430860 On ch=1 n=f#4 v=65
431950 On ch=1 n=f#4 v=0
431950 On ch=1 n=b4 v=0
431950 On ch=1 n=d#5 v=0
433020 On ch=1 n=d#5 v=47
433020 On ch=1 n=b4 v=47
433020 On ch=1 n=f#4 v=47
434150 On ch=1 n=f#4 v=0
434150 On ch=1 n=b4 v=0
434150 On ch=1 n=d#5 v=0
434150 On ch=1 n=e5 v=45
434150 On ch=1 n=b4 v=45
434150 On ch=1 n=g#4 v=45
435228 On ch=1 n=g#4 v=0
435228 On ch=1 n=b4 v=0
435228 On ch=1 n=e5 v=0
435228 On ch=1 n=d#5 v=44
435228 On ch=1 n=b4 v=44
435228 On ch=1 n=f#4 v=44
436082 On ch=1 n=f#4 v=0
436082 On ch=1 n=b4 v=0
436082 On ch=1 n=d#5 v=0
436082 On ch=1 n=c#5 v=41
436082 On ch=1 n=b4 v=41
436082 On ch=1 n=e4 v=41
436370 On ch=1 n=e4 v=0
436370 On ch=1 n=b4 v=0
436370 On ch=1 n=c#5 v=0
436370 On ch=1 n=d#5 v=44
436370 On ch=1 n=b4 v=44
436370 On ch=1 n=f#4 v=44
437516 On ch=1 n=f#4 v=0
437516 On ch=1 n=b4 v=0
437516 On ch=1 n=d#5 v=0
437516 On ch=1 n=b4 v=42
437516 On ch=1 n=f#4 v=42
437516 On ch=1 n=d#4 v=42
438570 On ch=1 n=d#4 v=0
438570 On ch=1 n=f#4 v=0
438570 On ch=1 n=b4 v=0
439640 On ch=1 n=f#5 v=44
439640 On ch=1 n=d#5 v=44
440160 On ch=1 n=d#5 v=0
440160 On ch=1 n=f#5 v=0
440160 On ch=1 n=f#5 v=46
440160 On ch=1 n=d#5 v=46
440656 On ch=1 n=d#5 v=0
440656 On ch=1 n=f#5 v=0
440656 On ch=1 n=f#5 v=49
440656 On ch=1 n=d#5 v=49
441656 On ch=1 n=d#5 v=0
441656 On ch=1 n=f#5 v=0
441656 On ch=1 n=g#5 v=49
441656 On ch=1 n=d#5 v=49
442650 On ch=1 n=d#5 v=0
442650 On ch=1 n=g#5 v=0
442650 On ch=1 n=a#5 v=58
442650 On ch=1 n=d#5 v=58
443652 On ch=1 n=d#5 v=0
443652 On ch=1 n=a#5 v=0
443652 On ch=1 n=a#5 v=57
443652 On ch=1 n=d#5 v=57
444128 On ch=1 n=d#5 v=0
444128 On ch=1 n=a#5 v=0
444128 On ch=1 n=a#5 v=60
444128 On ch=1 n=d#5 v=60
444612 On ch=1 n=d#5 v=0
444612 On ch=1 n=a#5 v=0
444612 On ch=1 n=a#5 v=59
444612 On ch=1 n=d5 v=59
445574 On ch=1 n=d5 v=0
445574 On ch=1 n=a#5 v=0
445574 On ch=1 n=a#5 v=74
445574 On ch=1 n=d5 v=74
445574 On ch=1 n=a#4 v=74
446624 On ch=1 n=a#4 v=0
446624 On ch=1 n=d5 v=0
446624 On ch=1 n=a#5 v=0
446624 On ch=1 n=c#6 v=74
446624 On ch=1 n=e5 v=74
446624 On ch=1 n=a#4 v=74
448758 On ch=1 n=a#4 v=0
448758 On ch=1 n=e5 v=0
448758 On ch=1 n=c#6 v=0
448758 On ch=1 n=f#5 v=46
448758 On ch=1 n=d#5 v=46
448758 On ch=1 n=b4 v=46
450858 On ch=1 n=b4 v=0
450858 On ch=1 n=d#5 v=0
450858 On ch=1 n=f#5 v=0
451864 On ch=1 n=f#5 v=51
451864 On ch=1 n=d#5 v=51
451864 On ch=1 n=b4 v=51
452886 On ch=1 n=b4 v=0
452886 On ch=1 n=d#5 v=0
452886 On ch=1 n=f#5 v=0
452886 On ch=1 n=g#5 v=60
452886 On ch=1 n=e5 v=60
452886 On ch=1 n=b4 v=60
453920 On ch=1 n=b4 v=0
453920 On ch=1 n=e5 v=0
453920 On ch=1 n=g#5 v=0
453920 On ch=1 n=f#5 v=61
453920 On ch=1 n=d#5 v=61
453920 On ch=1 n=b4 v=61
454664 On ch=1 n=b4 v=0
454664 On ch=1 n=d#5 v=0
454664 On ch=1 n=f#5 v=0
454664 On ch=1 n=f5 v=58
454664 On ch=1 n=d5 v=58
454664 On ch=1 n=b4 v=58
454914 On ch=1 n=b4 v=0
454914 On ch=1 n=d5 v=0
454914 On ch=1 n=f5 v=0
454914 On ch=1 n=f#5 v=60
454914 On ch=1 n=d#5 v=60
454914 On ch=1 n=b4 v=60
455990 On ch=1 n=b4 v=0
455990 On ch=1 n=d#5 v=0
455990 On ch=1 n=f#5 v=0
455990 On ch=1 n=d#5 v=61
455990 On ch=1 n=b4 v=61
455990 On ch=1 n=f#4 v=61
457048 On ch=1 n=f#4 v=0
457048 On ch=1 n=b4 v=0
457048 On ch=1 n=d#5 v=0
458100 On ch=1 n=d#5 v=51
458100 On ch=1 n=b4 v=51
458100 On ch=1 n=g#4 v=51
459176 On ch=1 n=g#4 v=0
459176 On ch=1 n=b4 v=0
459176 On ch=1 n=d#5 v=0
459176 On ch=1 n=e5 v=54
459176 On ch=1 n=c#5 v=54
459176 On ch=1 n=g#4 v=54
460282 On ch=1 n=g#4 v=0
460282 On ch=1 n=c#5 v=0
460282 On ch=1 n=e5 v=0
460282 On ch=1 n=d#5 v=48
460282 On ch=1 n=b4 v=48
460282 On ch=1 n=g#4 v=48
461098 On ch=1 n=g#4 v=0
461098 On ch=1 n=b4 v=0
461098 On ch=1 n=d#5 v=0
461098 On ch=1 n=c#5 v=46
461098 On ch=1 n=a#4 v=46
461098 On ch=1 n=g#4 v=46
461356 On ch=1 n=g#4 v=0
461356 On ch=1 n=a#4 v=0
461356 On ch=1 n=c#5 v=0
461356 On ch=1 n=d#5 v=47
461356 On ch=1 n=b4 v=47
461356 On ch=1 n=g#4 v=47
462488 On ch=1 n=g#4 v=0
462488 On ch=1 n=b4 v=0
462488 On ch=1 n=d#5 v=0
462488 On ch=1 n=b4 v=44
462488 On ch=1 n=g#4 v=44
462488 On ch=1 n=d#4 v=44
463584 On ch=1 n=d#4 v=0
463584 On ch=1 n=g#4 v=0
463584 On ch=1 n=b4 v=0
464664 On ch=1 n=b5 v=49
464664 On ch=1 n=d#5 v=49
465134 On ch=1 n=d#5 v=0
465134 On ch=1 n=b5 v=0
465134 On ch=1 n=b5 v=55
465134 On ch=1 n=d#5 v=55
465606 On ch=1 n=d#5 v=0
465606 On ch=1 n=b5 v=0
465606 On ch=1 n=b5 v=56
465606 On ch=1 n=d#5 v=56
466564 On ch=1 n=d#5 v=0
466564 On ch=1 n=b5 v=0
466564 On ch=1 n=b5 v=60
466564 On ch=1 n=e5 v=60
467538 On ch=1 n=e5 v=0
467538 On ch=1 n=b5 v=0
467538 On ch=1 n=b5 v=63
467538 On ch=1 n=e5 v=63
468518 On ch=1 n=e5 v=0
468518 On ch=1 n=b5 v=0
468518 On ch=1 n=c#6 v=65
468518 On ch=1 n=e5 v=65
469292 On ch=1 n=c#6 v=0
469292 On ch=1 n=d#6 v=63
469518 On ch=1 n=d#6 v=0
469518 On ch=1 n=e5 v=0
469518 On ch=1 n=c#6 v=74
469518 On ch=1 n=e5 v=74
471546 On ch=1 n=e5 v=0
471546 On ch=1 n=c#6 v=0
471546 On ch=1 n=b5 v=44
471546 On ch=1 n=d#5 v=44
472630 On ch=1 n=d#5 v=0
472630 On ch=1 n=b5 v=0
473714 On ch=1 n=f#5 v=41
473714 On ch=1 n=d#5 v=41
473714 On ch=1 n=b4 v=41
475814 On ch=1 n=b4 v=0
475814 On ch=1 n=d#5 v=0
475814 On ch=1 n=f#5 v=0
476844 On ch=1 n=f#5 v=47
476844 On ch=1 n=d#5 v=47
476844 On ch=1 n=b4 v=47
477890 On ch=1 n=b4 v=0
477890 On ch=1 n=d#5 v=0
477890 On ch=1 n=f#5 v=0
477890 On ch=1 n=g#5 v=47
477890 On ch=1 n=e5 v=47
477890 On ch=1 n=b4 v=47
478942 On ch=1 n=b4 v=0
478942 On ch=1 n=e5 v=0
478942 On ch=1 n=g#5 v=0
478942 On ch=1 n=f#5 v=44
478942 On ch=1 n=d#5 v=44
478942 On ch=1 n=b4 v=44
479714 On ch=1 n=b4 v=0
479714 On ch=1 n=d#5 v=0
479714 On ch=1 n=f#5 v=0
479714 On ch=1 n=f5 v=46
479714 On ch=1 n=d5 v=46
479714 On ch=1 n=b4 v=46
479964 On ch=1 n=b4 v=0
479964 On ch=1 n=d5 v=0
479964 On ch=1 n=f5 v=0
479964 On ch=1 n=f#5 v=44
479964 On ch=1 n=d#5 v=44
479964 On ch=1 n=b4 v=44
480990 On ch=1 n=b4 v=0
480990 On ch=1 n=d#5 v=0
480990 On ch=1 n=f#5 v=0
480990 On ch=1 n=d#5 v=44
480990 On ch=1 n=b4 v=44
480990 On ch=1 n=f#4 v=44
482030 On ch=1 n=f#4 v=0
482030 On ch=1 n=b4 v=0
482030 On ch=1 n=d#5 v=0
483034 On ch=1 n=d#5 v=46
483034 On ch=1 n=b4 v=46
483034 On ch=1 n=f#4 v=46
484032 On ch=1 n=f#4 v=0
484032 On ch=1 n=b4 v=0
484032 On ch=1 n=d#5 v=0
484032 On ch=1 n=e5 v=49
484032 On ch=1 n=b4 v=49
484032 On ch=1 n=g#4 v=49
485024 On ch=1 n=g#4 v=0
485024 On ch=1 n=b4 v=0
485024 On ch=1 n=e5 v=0
485024 On ch=1 n=d#5 v=48
485024 On ch=1 n=b4 v=48
485024 On ch=1 n=f#4 v=48
485792 On ch=1 n=f#4 v=0
485792 On ch=1 n=b4 v=0
485792 On ch=1 n=d#5 v=0
485792 On ch=1 n=c#5 v=39
485792 On ch=1 n=b4 v=39
485792 On ch=1 n=e4 v=39
486046 On ch=1 n=e4 v=0
486046 On ch=1 n=b4 v=0
486046 On ch=1 n=c#5 v=0
486046 On ch=1 n=d#5 v=35
486046 On ch=1 n=b4 v=35
486046 On ch=1 n=f#4 v=35
487028 On ch=1 n=f#4 v=0
487028 On ch=1 n=b4 v=0
487028 On ch=1 n=d#5 v=0
487028 On ch=1 n=b4 v=41
487028 On ch=1 n=f#4 v=41
487028 On ch=1 n=d#4 v=41
488042 On ch=1 n=d#4 v=0
488042 On ch=1 n=f#4 v=0
488042 On ch=1 n=b4 v=0
489012 On ch=1 n=f#5 v=49
489012 On ch=1 n=d#5 v=49
489012 On ch=1 n=b4 v=49
489482 On ch=1 n=b4 v=0
489482 On ch=1 n=d#5 v=0
489482 On ch=1 n=f#5 v=0
489482 On ch=1 n=f#5 v=54
489482 On ch=1 n=d#5 v=54
489482 On ch=1 n=b4 v=54
489928 On ch=1 n=b4 v=0
489928 On ch=1 n=d#5 v=0
489928 On ch=1 n=f#5 v=0
489928 On ch=1 n=f#5 v=46
489928 On ch=1 n=d#5 v=46
489928 On ch=1 n=b4 v=46
490826 On ch=1 n=b4 v=0
490826 On ch=1 n=d#5 v=0
490826 On ch=1 n=f#5 v=0
490826 On ch=1 n=f#5 v=60
490826 On ch=1 n=d#5 v=60
490826 On ch=1 n=a#4 v=60
491764 On ch=1 n=a#4 v=0
491764 On ch=1 n=d#5 v=0
491764 On ch=1 n=f#5 v=0
491764 On ch=1 n=a#5 v=57
491764 On ch=1 n=f#5 v=57
491764 On ch=1 n=d#5 v=57
491764 On ch=1 n=a#4 v=57
492628 On ch=1 n=a#4 v=0
492628 On ch=1 n=d#5 v=0
492628 On ch=1 n=f#5 v=0
492628 On ch=1 n=a#5 v=0
492628 On ch=1 n=a#5 v=58
492628 On ch=1 n=f#5 v=58
492628 On ch=1 n=d#5 v=58
492628 On ch=1 n=a#4 v=58
493042 On ch=1 n=a#4 v=0
493042 On ch=1 n=d#5 v=0
493042 On ch=1 n=f#5 v=0
493042 On ch=1 n=a#5 v=0
493042 On ch=1 n=a#5 v=67
493042 On ch=1 n=f#5 v=67
493042 On ch=1 n=d#5 v=67
493042 On ch=1 n=a#4 v=67
493458 On ch=1 n=a#4 v=0
493458 On ch=1 n=d#5 v=0
493458 On ch=1 n=f#5 v=0
493458 On ch=1 n=a#5 v=0
493458 On ch=1 n=a#5 v=59
493458 On ch=1 n=f#5 v=59
493458 On ch=1 n=d#5 v=59
493458 On ch=1 n=a#4 v=59
494382 On ch=1 n=a#4 v=0
494382 On ch=1 n=d#5 v=0
494382 On ch=1 n=f#5 v=0
494382 On ch=1 n=a#5 v=0
494382 On ch=1 n=a#5 v=63
494382 On ch=1 n=f#5 v=63
494382 On ch=1 n=d#5 v=63
494382 On ch=1 n=a#4 v=63
495364 On ch=1 n=a#4 v=0
495364 On ch=1 n=d#5 v=0
495364 On ch=1 n=f#5 v=0
495364 On ch=1 n=a#5 v=0
495364 On ch=1 n=c#6 v=74
495364 On ch=1 n=f#5 v=74
495364 On ch=1 n=e5 v=74
495364 On ch=1 n=a#4 v=74
498284 On ch=1 n=a#4 v=0
498284 On ch=1 n=e5 v=0
498284 On ch=1 n=f#5 v=0
498284 On ch=1 n=c#6 v=0
498284 On ch=1 n=f#5 v=48
498284 On ch=1 n=d#5 v=48
498284 On ch=1 n=b4 v=48
498284 On ch=1 n=a4 v=48
500258 On ch=1 n=a4 v=0
500258 On ch=1 n=b4 v=0
500258 On ch=1 n=d#5 v=0
500258 On ch=1 n=f#5 v=0
501248 On ch=1 n=f#5 v=52
501248 On ch=1 n=d#5 v=52
501248 On ch=1 n=b4 v=52
502220 On ch=1 n=b4 v=0
502220 On ch=1 n=d#5 v=0
502220 On ch=1 n=f#5 v=0
502220 On ch=1 n=g#5 v=54
502220 On ch=1 n=d#5 v=54
502220 On ch=1 n=b4 v=54
503166 On ch=1 n=b4 v=0
503166 On ch=1 n=d#5 v=0
503166 On ch=1 n=g#5 v=0
503166 On ch=1 n=f#5 v=56
503166 On ch=1 n=d#5 v=56
503166 On ch=1 n=b4 v=56
503888 On ch=1 n=b4 v=0
503888 On ch=1 n=d#5 v=0
503888 On ch=1 n=f#5 v=0
503888 On ch=1 n=f5 v=52
503888 On ch=1 n=d#5 v=52
503888 On ch=1 n=b4 v=52
504138 On ch=1 n=b4 v=0
504138 On ch=1 n=d#5 v=0
504138 On ch=1 n=f5 v=0
504138 On ch=1 n=f#5 v=54
504138 On ch=1 n=d#5 v=54
504138 On ch=1 n=b4 v=54
505234 On ch=1 n=b4 v=0
505234 On ch=1 n=d#5 v=0
505234 On ch=1 n=f#5 v=0
505234 On ch=1 n=d#5 v=38
505234 On ch=1 n=b4 v=38
506250 On ch=1 n=b4 v=0
506250 On ch=1 n=d#5 v=0
507270 On ch=1 n=d#5 v=46
507270 On ch=1 n=b4 v=46
507270 On ch=1 n=a4 v=46
508276 On ch=1 n=a4 v=0
508276 On ch=1 n=b4 v=0
508276 On ch=1 n=d#5 v=0
508276 On ch=1 n=e5 v=46
508276 On ch=1 n=b4 v=46
508276 On ch=1 n=g4 v=46
509298 On ch=1 n=g4 v=0
509298 On ch=1 n=b4 v=0
509298 On ch=1 n=e5 v=0
509298 On ch=1 n=d#5 v=41
509298 On ch=1 n=b4 v=41
509298 On ch=1 n=g4 v=41
510032 On ch=1 n=g4 v=0
510032 On ch=1 n=b4 v=0
510032 On ch=1 n=d#5 v=0
510032 On ch=1 n=c#5 v=47
510032 On ch=1 n=b4 v=47
510032 On ch=1 n=g4 v=47
510298 On ch=1 n=g4 v=0
510298 On ch=1 n=b4 v=0
510298 On ch=1 n=c#5 v=0
510298 On ch=1 n=d#5 v=45
510298 On ch=1 n=b4 v=45
510298 On ch=1 n=f#4 v=45
511388 On ch=1 n=f#4 v=0
511388 On ch=1 n=b4 v=0
511388 On ch=1 n=d#5 v=0
511388 On ch=1 n=b4 v=39
511388 On ch=1 n=f#4 v=39
511388 On ch=1 n=d#4 v=39
512454 On ch=1 n=d#4 v=0
512454 On ch=1 n=f#4 v=0
512454 On ch=1 n=b4 v=0
513468 On ch=1 n=b5 v=54
513468 On ch=1 n=d#5 v=54
513468 On ch=1 n=b4 v=54
513942 On ch=1 n=b4 v=0
513942 On ch=1 n=d#5 v=0
513942 On ch=1 n=b5 v=0
513942 On ch=1 n=b5 v=54
513942 On ch=1 n=d#5 v=54
513942 On ch=1 n=b4 v=54
514380 On ch=1 n=b4 v=0
514380 On ch=1 n=d#5 v=0
514380 On ch=1 n=b5 v=0
514380 On ch=1 n=b5 v=55
514380 On ch=1 n=d#5 v=55
514380 On ch=1 n=b4 v=55
515336 On ch=1 n=b4 v=0
515336 On ch=1 n=d#5 v=0
515336 On ch=1 n=b5 v=0
515336 On ch=1 n=b5 v=52
515336 On ch=1 n=e5 v=52
515336 On ch=1 n=b4 v=52
516324 On ch=1 n=b4 v=0
516324 On ch=1 n=e5 v=0
516324 On ch=1 n=b5 v=0
516324 On ch=1 n=b5 v=52
516324 On ch=1 n=e5 v=52
516324 On ch=1 n=b4 v=52
517354 On ch=1 n=b4 v=0
517354 On ch=1 n=e5 v=0
517354 On ch=1 n=b5 v=0
517354 On ch=1 n=c#6 v=54
517354 On ch=1 n=e5 v=54
517354 On ch=1 n=a#4 v=54
517370 Par ch=1 c=64 v=127
518160 On ch=1 n=a#4 v=0
518160 On ch=1 n=e5 v=0
518160 On ch=1 n=c#6 v=0
518160 On ch=1 n=d#6 v=54
518160 On ch=1 n=f#5 v=54
518392 On ch=1 n=f#5 v=0
518392 On ch=1 n=d#6 v=0
518392 On ch=1 n=c#6 v=56
518392 On ch=1 n=e5 v=56
520638 On ch=1 n=e5 v=0
520638 On ch=1 n=c#6 v=0
520638 Par ch=1 c=64 v=0
520638 On ch=1 n=b5 v=45
520638 On ch=1 n=d#5 v=45
522826 On ch=1 n=b5 v=0
522826 On ch=1 n=a#5 v=46
522826 On ch=1 n=f#5 v=46
524906 On ch=1 n=f#5 v=0
524906 On ch=1 n=a#5 v=0
524906 On ch=1 n=d#5 v=0
526018 On ch=1 n=a#5 v=39
526018 On ch=1 n=f#5 v=39
526018 On ch=1 n=d#5 v=39
527106 On ch=1 n=d#5 v=0
527106 On ch=1 n=f#5 v=0
527106 On ch=1 n=a#5 v=0
527106 On ch=1 n=b5 v=49
527106 On ch=1 n=g#5 v=49
527106 On ch=1 n=d#5 v=49
528158 On ch=1 n=d#5 v=0
528158 On ch=1 n=g#5 v=0
528158 On ch=1 n=b5 v=0
528158 On ch=1 n=a#5 v=49
528158 On ch=1 n=f#5 v=49
528158 On ch=1 n=d#5 v=49
528960 On ch=1 n=d#5 v=0
528960 On ch=1 n=f#5 v=0
528960 On ch=1 n=a#5 v=0
528960 On ch=1 n=g#5 v=44
528960 On ch=1 n=f5 v=44
528960 On ch=1 n=d#5 v=44
529192 On ch=1 n=d#5 v=0
529192 On ch=1 n=f5 v=0
529192 On ch=1 n=g#5 v=0
529192 On ch=1 n=a#5 v=49
529192 On ch=1 n=f#5 v=49
529192 On ch=1 n=d#5 v=49
530198 On ch=1 n=d#5 v=0
530198 On ch=1 n=f#5 v=0
530198 On ch=1 n=a#5 v=0
530198 On ch=1 n=f#5 v=46
530198 On ch=1 n=d#5 v=46
530198 On ch=1 n=a#4 v=46
531222 On ch=1 n=a#4 v=0
531222 On ch=1 n=d#5 v=0
531222 On ch=1 n=f#5 v=0
532248 On ch=1 n=f#5 v=45
532248 On ch=1 n=d#5 v=45
532248 On ch=1 n=a#4 v=45
533246 On ch=1 n=a#4 v=0
533246 On ch=1 n=d#5 v=0
533246 On ch=1 n=f#5 v=0
533246 On ch=1 n=g#5 v=56
533246 On ch=1 n=d#5 v=56
533246 On ch=1 n=b4 v=56
534268 On ch=1 n=b4 v=0
534268 On ch=1 n=d#5 v=0
534268 On ch=1 n=g#5 v=0
534268 On ch=1 n=f#5 v=63
534268 On ch=1 n=c#5 v=63
534268 On ch=1 n=a#4 v=63
535066 On ch=1 n=a#4 v=0
535066 On ch=1 n=c#5 v=0
535066 On ch=1 n=f#5 v=0
535066 On ch=1 n=f5 v=49
535066 On ch=1 n=c#5 v=49
535066 On ch=1 n=a#4 v=49
535298 On ch=1 n=a#4 v=0
535298 On ch=1 n=c#5 v=0
535298 On ch=1 n=f5 v=0
535298 On ch=1 n=f#5 v=55
535298 On ch=1 n=d#5 v=55
535298 On ch=1 n=a#4 v=55
536312 On ch=1 n=a#4 v=0
536312 On ch=1 n=d#5 v=0
536312 On ch=1 n=f#5 v=0
536312 On ch=1 n=d#5 v=51
536312 On ch=1 n=a#4 v=51
536312 On ch=1 n=f#4 v=51
537312 On ch=1 n=f#4 v=0
537312 On ch=1 n=a#4 v=0
537312 On ch=1 n=d#5 v=0
538308 On ch=1 n=f#5 v=54
538308 On ch=1 n=d#5 v=54
538308 On ch=1 n=a#4 v=54
538770 On ch=1 n=a#4 v=0
538770 On ch=1 n=d#5 v=0
538770 On ch=1 n=f#5 v=0
538770 On ch=1 n=a#5 v=59
538770 On ch=1 n=f#5 v=59
538770 On ch=1 n=d#5 v=59
538770 On ch=1 n=a#4 v=59
539208 On ch=1 n=a#4 v=0
539208 On ch=1 n=d#5 v=0
539208 On ch=1 n=f#5 v=0
539208 On ch=1 n=a#5 v=0
539208 On ch=1 n=a#5 v=63
539208 On ch=1 n=f#5 v=63
539208 On ch=1 n=d#5 v=63
539208 On ch=1 n=a#4 v=63
540118 On ch=1 n=a#4 v=0
540118 On ch=1 n=d#5 v=0
540118 On ch=1 n=f#5 v=0
540118 On ch=1 n=a#5 v=0
540118 On ch=1 n=a#5 v=71
540118 On ch=1 n=f#5 v=71
540118 On ch=1 n=d#5 v=71
540118 On ch=1 n=a#4 v=71
540604 On ch=1 n=a#4 v=0
540604 On ch=1 n=d#5 v=0
540604 On ch=1 n=f#5 v=0
540604 On ch=1 n=a#5 v=0
540604 On ch=1 n=a#5 v=64
540604 On ch=1 n=f#5 v=64
540604 On ch=1 n=d#5 v=64
540604 On ch=1 n=a#4 v=64
541030 On ch=1 n=a#4 v=0
541030 On ch=1 n=d#5 v=0
541030 On ch=1 n=f#5 v=0
541030 On ch=1 n=a#5 v=0
541030 On ch=1 n=a#5 v=69
541030 On ch=1 n=f#5 v=69
541030 On ch=1 n=d#5 v=69
541030 On ch=1 n=a#4 v=69
541946 On ch=1 n=a#4 v=0
541946 On ch=1 n=d#5 v=0
541946 On ch=1 n=f#5 v=0
541946 On ch=1 n=a#5 v=0
541946 On ch=1 n=a#5 v=73
541946 On ch=1 n=f#5 v=73
541946 On ch=1 n=d#5 v=73
541946 On ch=1 n=a#4 v=73
542360 On ch=1 n=a#4 v=0
542360 On ch=1 n=d#5 v=0
542360 On ch=1 n=f#5 v=0
542360 On ch=1 n=a#5 v=0
542360 On ch=1 n=a#5 v=74
542360 On ch=1 n=f#5 v=74
542360 On ch=1 n=d#5 v=74
542360 On ch=1 n=a#4 v=74
542806 On ch=1 n=a#4 v=0
542806 On ch=1 n=d#5 v=0
542806 On ch=1 n=f#5 v=0
542806 On ch=1 n=a#5 v=0
542806 On ch=1 n=a#5 v=69
542806 On ch=1 n=f#5 v=69
542806 On ch=1 n=d#5 v=69
542806 On ch=1 n=a#4 v=69
543694 On ch=1 n=a#4 v=0
543694 On ch=1 n=d#5 v=0
543694 On ch=1 n=f#5 v=0
543694 On ch=1 n=a#5 v=0
543694 On ch=1 n=a#5 v=73
543694 On ch=1 n=f#5 v=73
543694 On ch=1 n=d#5 v=73
543694 On ch=1 n=a#4 v=73
544718 On ch=1 n=a#4 v=0
544718 On ch=1 n=d#5 v=0
544718 On ch=1 n=f#5 v=0
544718 On ch=1 n=a#5 v=0
544718 On ch=1 n=c#6 v=74
544718 On ch=1 n=f#5 v=74
544718 On ch=1 n=e5 v=74
544718 On ch=1 n=a#4 v=74
546894 On ch=1 n=a#4 v=0
546894 On ch=1 n=e5 v=0
546894 On ch=1 n=f#5 v=0
546894 On ch=1 n=c#6 v=0
546894 On ch=1 n=f#5 v=61
546894 On ch=1 n=d#5 v=61
546894 On ch=1 n=b4 v=61
546894 On ch=1 n=a4 v=61
548912 On ch=1 n=a4 v=0
548912 On ch=1 n=b4 v=0
548912 On ch=1 n=d#5 v=0
548912 On ch=1 n=f#5 v=0
549914 On ch=1 n=f#5 v=45
549914 On ch=1 n=d#5 v=45
549914 On ch=1 n=b4 v=45
550934 On ch=1 n=b4 v=0
550934 On ch=1 n=d#5 v=0
550934 On ch=1 n=f#5 v=0
550934 On ch=1 n=g#5 v=48
550934 On ch=1 n=d#5 v=48
550934 On ch=1 n=b4 v=48
551952 On ch=1 n=b4 v=0
551952 On ch=1 n=d#5 v=0
551952 On ch=1 n=g#5 v=0
551952 On ch=1 n=f#5 v=47
551952 On ch=1 n=d#5 v=47
551952 On ch=1 n=b4 v=47
552694 On ch=1 n=b4 v=0
552694 On ch=1 n=d#5 v=0
552694 On ch=1 n=f#5 v=0
552694 On ch=1 n=f5 v=49
552694 On ch=1 n=d#5 v=49
552694 On ch=1 n=b4 v=49
552942 On ch=1 n=b4 v=0
552942 On ch=1 n=d#5 v=0
552942 On ch=1 n=f5 v=0
552942 On ch=1 n=f#5 v=46
552942 On ch=1 n=d#5 v=46
552942 On ch=1 n=b4 v=46
553968 On ch=1 n=b4 v=0
553968 On ch=1 n=d#5 v=0
553968 On ch=1 n=f#5 v=0
553968 On ch=1 n=d#5 v=44
553968 On ch=1 n=b4 v=44
555002 On ch=1 n=b4 v=0
555002 On ch=1 n=d#5 v=0
556120 On ch=1 n=d#5 v=35
556120 On ch=1 n=b4 v=35
556120 On ch=1 n=a4 v=35
557188 On ch=1 n=a4 v=0
557188 On ch=1 n=b4 v=0
557188 On ch=1 n=d#5 v=0
557188 On ch=1 n=e5 v=44
557188 On ch=1 n=b4 v=44
557188 On ch=1 n=g4 v=44
558218 On ch=1 n=g4 v=0
558218 On ch=1 n=b4 v=0
558218 On ch=1 n=e5 v=0
558218 On ch=1 n=d#5 v=49
558218 On ch=1 n=b4 v=49
558218 On ch=1 n=g4 v=49
558982 On ch=1 n=g4 v=0
558982 On ch=1 n=b4 v=0
558982 On ch=1 n=d#5 v=0
558982 On ch=1 n=c#5 v=45
558982 On ch=1 n=b4 v=45
558982 On ch=1 n=g4 v=45
559266 On ch=1 n=g4 v=0
559266 On ch=1 n=b4 v=0
559266 On ch=1 n=c#5 v=0
559266 On ch=1 n=d#5 v=45
559266 On ch=1 n=b4 v=45
559266 On ch=1 n=f#4 v=45
560328 On ch=1 n=f#4 v=0
560328 On ch=1 n=b4 v=0
560328 On ch=1 n=d#5 v=0
560328 On ch=1 n=b4 v=44
560328 On ch=1 n=f#4 v=44
560328 On ch=1 n=d#4 v=44
561368 On ch=1 n=d#4 v=0
561368 On ch=1 n=f#4 v=0
561368 On ch=1 n=b4 v=0
562378 On ch=1 n=b5 v=46
562378 On ch=1 n=d#5 v=46
562378 On ch=1 n=b4 v=46
562858 On ch=1 n=b4 v=0
562858 On ch=1 n=d#5 v=0
562858 On ch=1 n=b5 v=0
562858 On ch=1 n=b5 v=52
562858 On ch=1 n=d#5 v=52
562858 On ch=1 n=b4 v=52
563298 On ch=1 n=b4 v=0
563298 On ch=1 n=d#5 v=0
563298 On ch=1 n=b5 v=0
563298 On ch=1 n=b5 v=54
563298 On ch=1 n=d#5 v=54
563298 On ch=1 n=b4 v=54
564184 On ch=1 n=b4 v=0
564184 On ch=1 n=d#5 v=0
564184 On ch=1 n=b5 v=0
564184 On ch=1 n=b5 v=69
564184 On ch=1 n=e5 v=69
564184 On ch=1 n=b4 v=69
565054 On ch=1 n=b4 v=0
565054 On ch=1 n=e5 v=0
565054 On ch=1 n=b5 v=0
565054 On ch=1 n=b5 v=64
565054 On ch=1 n=e5 v=64
565054 On ch=1 n=b4 v=64
565930 On ch=1 n=b4 v=0
565930 On ch=1 n=e5 v=0
565930 On ch=1 n=b5 v=0
565930 On ch=1 n=c#6 v=64
565930 On ch=1 n=e5 v=64
565930 On ch=1 n=a#4 v=64
565944 Par ch=1 c=64 v=127
566636 On ch=1 n=a#4 v=0
566636 On ch=1 n=e5 v=0
566636 On ch=1 n=c#6 v=0
566636 On ch=1 n=d#6 v=67
566636 On ch=1 n=f#5 v=67
566894 On ch=1 n=f#5 v=0
566894 On ch=1 n=d#6 v=0
566894 On ch=1 n=e5 v=65
568984 On ch=1 n=e5 v=0
568984 Par ch=1 c=64 v=0
568984 On ch=1 n=b5 v=44
568984 On ch=1 n=d#5 v=44
571058 On ch=1 n=d#5 v=0
571058 On ch=1 n=b5 v=0
571058 On ch=1 n=a#5 v=44
571058 On ch=1 n=f#5 v=44
571058 On ch=1 n=d#5 v=44
571058 On ch=1 n=a#4 v=44
573128 On ch=1 n=a#4 v=0
573128 On ch=1 n=d#5 v=0
573128 On ch=1 n=f#5 v=0
573128 On ch=1 n=a#5 v=0
574144 On ch=1 n=a#5 v=54
574144 On ch=1 n=f#5 v=54
574144 On ch=1 n=d#5 v=54
575144 On ch=1 n=d#5 v=0
575144 On ch=1 n=f#5 v=0
575144 On ch=1 n=a#5 v=0
575144 On ch=1 n=b5 v=48
575144 On ch=1 n=g#5 v=48
575144 On ch=1 n=d#5 v=48
576180 On ch=1 n=d#5 v=0
576180 On ch=1 n=g#5 v=0
576180 On ch=1 n=b5 v=0
576180 On ch=1 n=a#5 v=49
576180 On ch=1 n=f#5 v=49
576180 On ch=1 n=d#5 v=49
576944 On ch=1 n=d#5 v=0
576944 On ch=1 n=f#5 v=0
576944 On ch=1 n=a#5 v=0
576944 On ch=1 n=g#5 v=45
576944 On ch=1 n=f5 v=45
576944 On ch=1 n=d#5 v=45
577188 On ch=1 n=d#5 v=0
577188 On ch=1 n=f5 v=0
577188 On ch=1 n=g#5 v=0
577188 On ch=1 n=a#5 v=48
577188 On ch=1 n=f#5 v=48
577188 On ch=1 n=d#5 v=48
578230 On ch=1 n=d#5 v=0
578230 On ch=1 n=f#5 v=0
578230 On ch=1 n=a#5 v=0
578230 On ch=1 n=f#5 v=47
578230 On ch=1 n=d#5 v=47
578230 On ch=1 n=a#4 v=47
579262 On ch=1 n=a#4 v=0
579262 On ch=1 n=d#5 v=0
579262 On ch=1 n=f#5 v=0
580326 On ch=1 n=f#5 v=41
580326 On ch=1 n=d#5 v=41
580326 On ch=1 n=a#4 v=41
581358 On ch=1 n=a#4 v=0
581358 On ch=1 n=d#5 v=0
581358 On ch=1 n=f#5 v=0
581358 On ch=1 n=g#5 v=46
581358 On ch=1 n=d#5 v=46
581358 On ch=1 n=b4 v=46
582402 On ch=1 n=b4 v=0
582402 On ch=1 n=d#5 v=0
582402 On ch=1 n=g#5 v=0
582402 On ch=1 n=f#5 v=47
582402 On ch=1 n=d#5 v=47
582402 On ch=1 n=a#4 v=47
583180 On ch=1 n=a#4 v=0
583180 On ch=1 n=d#5 v=0
583180 On ch=1 n=f#5 v=0
583180 On ch=1 n=f5 v=45
583180 On ch=1 n=d5 v=45
583180 On ch=1 n=a#4 v=45
583430 On ch=1 n=a#4 v=0
583430 On ch=1 n=d5 v=0
583430 On ch=1 n=f5 v=0
583430 On ch=1 n=f#5 v=45
583430 On ch=1 n=d#5 v=45
583430 On ch=1 n=a#4 v=45
584496 On ch=1 n=a#4 v=0
584496 On ch=1 n=d#5 v=0
584496 On ch=1 n=f#5 v=0
584496 On ch=1 n=d#5 v=44
584496 On ch=1 n=a#4 v=44
584496 On ch=1 n=f#4 v=44
585540 On ch=1 n=f#4 v=0
585540 On ch=1 n=a#4 v=0
585540 On ch=1 n=d#5 v=0
586534 On ch=1 n=a#5 v=54
586534 On ch=1 n=f#5 v=54
586534 On ch=1 n=d#5 v=54
586534 On ch=1 n=a#4 v=54
586992 On ch=1 n=a#4 v=0
586992 On ch=1 n=d#5 v=0
586992 On ch=1 n=f#5 v=0
586992 On ch=1 n=a#5 v=0
586992 On ch=1 n=a#5 v=54
586992 On ch=1 n=f#5 v=54
586992 On ch=1 n=d#5 v=54
586992 On ch=1 n=a#4 v=54
587428 On ch=1 n=a#4 v=0
587428 On ch=1 n=d#5 v=0
587428 On ch=1 n=f#5 v=0
587428 On ch=1 n=a#5 v=0
587428 On ch=1 n=a#5 v=54
587428 On ch=1 n=f#5 v=54
587428 On ch=1 n=d#5 v=54
587428 On ch=1 n=a#4 v=54
588318 On ch=1 n=a#4 v=0
588318 On ch=1 n=d#5 v=0
588318 On ch=1 n=f#5 v=0
588318 On ch=1 n=a#5 v=0
588318 On ch=1 n=a#5 v=58
588318 On ch=1 n=f#5 v=58
588318 On ch=1 n=d#5 v=58
588318 On ch=1 n=a#4 v=58
588750 On ch=1 n=a#4 v=0
588750 On ch=1 n=d#5 v=0
588750 On ch=1 n=f#5 v=0
588750 On ch=1 n=a#5 v=0
588750 On ch=1 n=a#5 v=57
588750 On ch=1 n=f#5 v=57
588750 On ch=1 n=d#5 v=57
588750 On ch=1 n=a#4 v=57
589178 On ch=1 n=a#4 v=0
589178 On ch=1 n=d#5 v=0
589178 On ch=1 n=f#5 v=0
589178 On ch=1 n=a#5 v=0
589178 On ch=1 n=a#5 v=65
589178 On ch=1 n=f#5 v=65
589178 On ch=1 n=d#5 v=65
589178 On ch=1 n=a#4 v=65
590038 On ch=1 n=a#4 v=0
590038 On ch=1 n=d#5 v=0
590038 On ch=1 n=f#5 v=0
590038 On ch=1 n=a#5 v=0
590038 On ch=1 n=a#5 v=74
590038 On ch=1 n=f#5 v=74
590038 On ch=1 n=d#5 v=74
590038 On ch=1 n=a#4 v=74
590446 On ch=1 n=a#4 v=0
590446 On ch=1 n=d#5 v=0
590446 On ch=1 n=f#5 v=0
590446 On ch=1 n=a#5 v=0
590446 On ch=1 n=a#5 v=74
590446 On ch=1 n=f#5 v=74
590446 On ch=1 n=d#5 v=74
590446 On ch=1 n=a#4 v=74
590860 On ch=1 n=a#4 v=0
590860 On ch=1 n=d#5 v=0
590860 On ch=1 n=f#5 v=0
590860 On ch=1 n=a#5 v=0
590860 On ch=1 n=a#5 v=67
590860 On ch=1 n=f#5 v=67
590860 On ch=1 n=d#5 v=67
590860 On ch=1 n=a#4 v=67
591666 On ch=1 n=a#4 v=0
591666 On ch=1 n=d#5 v=0
591666 On ch=1 n=f#5 v=0
591666 On ch=1 n=a#5 v=0
591666 On ch=1 n=a#5 v=74
591666 On ch=1 n=f#5 v=74
591666 On ch=1 n=d#5 v=74
591666 On ch=1 n=a#4 v=74
592540 On ch=1 n=a#4 v=0
592540 On ch=1 n=d#5 v=0
592540 On ch=1 n=f#5 v=0
592540 On ch=1 n=a#5 v=0
592540 On ch=1 n=c#6 v=67
592540 On ch=1 n=f#5 v=67
592540 On ch=1 n=e5 v=67
592540 On ch=1 n=a#4 v=67
594440 On ch=1 n=a#4 v=0
594440 On ch=1 n=e5 v=0
594440 On ch=1 n=f#5 v=0
594440 On ch=1 n=c#6 v=0
594440 On ch=1 n=f#5 v=49
594440 On ch=1 n=d#5 v=49
594440 On ch=1 n=b4 v=49
594440 On ch=1 n=a4 v=49
594456 Par ch=1 c=64 v=127
596298 On ch=1 n=a4 v=0
596298 On ch=1 n=b4 v=0
596298 On ch=1 n=d#5 v=0
596298 On ch=1 n=f#5 v=0
597238 On ch=1 n=b4 v=51
597238 On ch=1 n=d#5 v=51
597238 On ch=1 n=f#5 v=51
597238 On ch=1 n=b5 v=51
597238 On ch=1 n=a4 v=51
598232 On ch=1 n=a4 v=0
598232 On ch=1 n=b5 v=0
598232 On ch=1 n=f#5 v=0
598232 On ch=1 n=d#5 v=0
598232 On ch=1 n=b4 v=0
598232 On ch=1 n=b5 v=44
598232 On ch=1 n=g#5 v=44
598232 On ch=1 n=d#5 v=44
598232 On ch=1 n=b4 v=44
598232 On ch=1 n=a4 v=44
599198 On ch=1 n=a4 v=0
599198 On ch=1 n=b4 v=0
599198 On ch=1 n=d#5 v=0
599198 On ch=1 n=g#5 v=0
599198 On ch=1 n=b5 v=0
599198 On ch=1 n=b5 v=49
599198 On ch=1 n=f#5 v=49
599198 On ch=1 n=d#5 v=49
599198 On ch=1 n=b4 v=49
599198 On ch=1 n=a4 v=49
599694 On ch=1 n=a4 v=0
599694 On ch=1 n=b4 v=0
599694 On ch=1 n=d#5 v=0
599694 On ch=1 n=f#5 v=0
599694 On ch=1 n=b5 v=0
599694 On ch=1 n=b5 v=46
599694 On ch=1 n=f5 v=46
599694 On ch=1 n=d#5 v=46
599694 On ch=1 n=b4 v=46
599694 On ch=1 n=a4 v=46
600190 On ch=1 n=a4 v=0
600190 On ch=1 n=b4 v=0
600190 On ch=1 n=d#5 v=0
600190 On ch=1 n=f5 v=0
600190 On ch=1 n=b5 v=0
600190 On ch=1 n=b5 v=45
600190 On ch=1 n=f#5 v=45
600190 On ch=1 n=d#5 v=45
600190 On ch=1 n=b4 v=45
600190 On ch=1 n=a4 v=45
601232 On ch=1 n=a4 v=0
601232 On ch=1 n=b4 v=0
601232 On ch=1 n=d#5 v=0
601232 On ch=1 n=f#5 v=0
601232 On ch=1 n=b5 v=0
601232 On ch=1 n=b5 v=44
601232 On ch=1 n=d#5 v=44
601232 On ch=1 n=b4 v=44
601232 On ch=1 n=a4 v=44
602226 Par ch=1 c=64 v=0
602300 On ch=1 n=a4 v=0
602300 On ch=1 n=b4 v=0
602300 On ch=1 n=d#5 v=0
602300 On ch=1 n=b5 v=0
603378 On ch=1 n=d#5 v=37
603378 On ch=1 n=b4 v=37
603378 On ch=1 n=a4 v=37
604488 On ch=1 n=a4 v=0
604488 On ch=1 n=b4 v=0
604488 On ch=1 n=d#5 v=0
604488 On ch=1 n=e5 v=41
604488 On ch=1 n=b4 v=41
604488 On ch=1 n=g4 v=41
605596 On ch=1 n=g4 v=0
605596 On ch=1 n=b4 v=0
605596 On ch=1 n=e5 v=0
605596 On ch=1 n=d#5 v=42
605596 On ch=1 n=b4 v=42
605596 On ch=1 n=g4 v=42
606362 On ch=1 n=g4 v=0
606362 On ch=1 n=b4 v=0
606362 On ch=1 n=d#5 v=0
606362 On ch=1 n=c#5 v=46
606362 On ch=1 n=g4 v=46
606644 On ch=1 n=g4 v=0
606644 On ch=1 n=c#5 v=0
606644 On ch=1 n=d#5 v=41
606644 On ch=1 n=c#5 v=41
606644 On ch=1 n=g4 v=41
607702 On ch=1 n=g4 v=0
607702 On ch=1 n=c#5 v=0
607702 On ch=1 n=d#5 v=0
607702 On ch=1 n=b4 v=42
607702 On ch=1 n=g#4 v=42
607702 On ch=1 n=d#4 v=42
608806 On ch=1 n=d#4 v=0
608806 On ch=1 n=g#4 v=0
608806 On ch=1 n=b4 v=0
609882 On ch=1 n=b5 v=42
609882 On ch=1 n=d#5 v=42
609882 On ch=1 n=b4 v=42
610400 On ch=1 n=b4 v=0
610400 On ch=1 n=d#5 v=0
610400 On ch=1 n=b5 v=0
610400 On ch=1 n=b5 v=45
610400 On ch=1 n=d#5 v=45
610400 On ch=1 n=b4 v=45
610884 On ch=1 n=b4 v=0
610884 On ch=1 n=d#5 v=0
610884 On ch=1 n=b5 v=0
610884 On ch=1 n=b5 v=48
610884 On ch=1 n=d#5 v=48
610884 On ch=1 n=b4 v=48
611916 On ch=1 n=b4 v=0
611916 On ch=1 n=d#5 v=0
611916 On ch=1 n=b5 v=0
611916 On ch=1 n=b5 v=46
611916 On ch=1 n=e5 v=46
611916 On ch=1 n=b4 v=46
612990 On ch=1 n=b4 v=0
612990 On ch=1 n=e5 v=0
612990 On ch=1 n=b5 v=0
612990 On ch=1 n=b5 v=42
612990 On ch=1 n=e5 v=42
612990 On ch=1 n=b4 v=42
614092 On ch=1 n=b4 v=0
614092 On ch=1 n=e5 v=0
614092 On ch=1 n=b5 v=0
614092 On ch=1 n=c#6 v=47
614092 On ch=1 n=e5 v=47
614092 On ch=1 n=a#4 v=47
614940 On ch=1 n=a#4 v=0
614940 On ch=1 n=e5 v=0
614940 On ch=1 n=c#6 v=0
614940 On ch=1 n=d#6 v=38
614940 On ch=1 n=f#5 v=38
615242 On ch=1 n=f#5 v=0
615242 On ch=1 n=d#6 v=0
615242 On ch=1 n=c#6 v=36
615242 On ch=1 n=e5 v=36
617426 On ch=1 n=e5 v=0
617426 On ch=1 n=c#6 v=0
617426 On ch=1 n=b5 v=39
617426 On ch=1 n=d#5 v=39
618526 On ch=1 n=d#5 v=0
618526 On ch=1 n=b5 v=0
620870 On ch=1 n=b5 v=38
620870 On ch=1 n=d#5 v=38
621722 On ch=1 n=b5 v=0
621722 On ch=1 n=c#6 v=37
622064 On ch=1 n=c#6 v=0
622064 On ch=1 n=d#5 v=0
622064 On ch=1 n=b5 v=35
622064 On ch=1 n=d#5 v=35
624388 On ch=1 n=d#5 v=0
624388 On ch=1 n=b5 v=0
624388 On ch=1 n=a#5 v=39
624388 On ch=1 n=d5 v=39
625546 On ch=1 n=d5 v=0
625546 On ch=1 n=a#5 v=0
627994 On ch=1 n=b5 v=37
627994 On ch=1 n=d#5 v=37
628834 On ch=1 n=b5 v=0
628834 On ch=1 n=c#6 v=44
629102 On ch=1 n=c#6 v=0
629102 On ch=1 n=d#5 v=0
629102 On ch=1 n=b5 v=44
629102 On ch=1 n=d#5 v=44
631350 On ch=1 n=d#5 v=0
631350 On ch=1 n=b5 v=0
631350 On ch=1 n=a#5 v=41
631350 On ch=1 n=d5 v=41
632486 On ch=1 n=d5 v=0
632486 On ch=1 n=a#5 v=0
635892 On ch=1 n=b4 v=45
635892 On ch=1 n=d#4 v=45
638080 On ch=1 n=b4 v=0
638080 On ch=1 n=g#4 v=42
638080 On ch=1 n=b3 v=42
640340 On ch=1 n=b3 v=0
640340 On ch=1 n=g#4 v=0
640340 On ch=1 n=d#4 v=0
640340 On ch=1 n=a#4 v=35
640340 On ch=1 n=f4 v=35
640340 On ch=1 n=a#3 v=35
646256 On ch=1 n=a#3 v=0
646256 On ch=1 n=f4 v=0
646256 On ch=1 n=a#4 v=0
646256 On ch=1 n=a#4 v=43
646658 On ch=1 n=a#4 v=0
646658 On ch=1 n=b4 v=49
647012 On ch=1 n=b4 v=0
647012 On ch=1 n=a4 v=49
647370 On ch=1 n=a4 v=0
647370 On ch=1 n=a#4 v=65
647724 On ch=1 n=a#4 v=0
647724 On ch=1 n=d#4 v=65
648612 On ch=1 n=d#4 v=0
650240 On ch=1 n=d#4 v=58
650240 On ch=1 n=f#4 v=58
650240 On ch=1 n=a#4 v=58
650606 On ch=1 n=a#4 v=0
650606 On ch=1 n=f#4 v=0
650606 On ch=1 n=d#4 v=0
650606 On ch=1 n=a#4 v=55
650606 On ch=1 n=f#4 v=55
650606 On ch=1 n=d#4 v=55
650974 On ch=1 n=d#4 v=0
650974 On ch=1 n=f#4 v=0
650974 On ch=1 n=a#4 v=0
650974 On ch=1 n=a#4 v=56
650974 On ch=1 n=f#4 v=56
650974 On ch=1 n=d#4 v=56
651770 On ch=1 n=d#4 v=0
651770 On ch=1 n=f#4 v=0
651770 On ch=1 n=a#4 v=0
651770 On ch=1 n=a#4 v=59
651770 On ch=1 n=f#4 v=59
651770 On ch=1 n=d#4 v=59
652176 On ch=1 n=d#4 v=0
652176 On ch=1 n=f#4 v=0
652176 On ch=1 n=a#4 v=0
652176 On ch=1 n=a#4 v=53
652176 On ch=1 n=f#4 v=53
652176 On ch=1 n=d#4 v=53
652594 On ch=1 n=d#4 v=0
652594 On ch=1 n=f#4 v=0
652594 On ch=1 n=a#4 v=0
652594 On ch=1 n=a#4 v=61
652594 On ch=1 n=f#4 v=61
652594 On ch=1 n=d#4 v=61
653472 On ch=1 n=d#4 v=0
653472 On ch=1 n=f#4 v=0
653472 On ch=1 n=a#4 v=0
653472 On ch=1 n=a#4 v=65
653472 On ch=1 n=f#4 v=65
653472 On ch=1 n=d#4 v=65
653906 On ch=1 n=d#4 v=0
653906 On ch=1 n=f#4 v=0
653906 On ch=1 n=a#4 v=0
653906 On ch=1 n=a#4 v=65
653906 On ch=1 n=f#4 v=65
653906 On ch=1 n=d#4 v=65
654394 On ch=1 n=d#4 v=0
654394 On ch=1 n=f#4 v=0
654394 On ch=1 n=a#4 v=0
654394 On ch=1 n=a#4 v=65
654394 On ch=1 n=f#4 v=65
654394 On ch=1 n=d#4 v=65
655478 On ch=1 n=d#4 v=0
655478 On ch=1 n=f#4 v=0
655478 On ch=1 n=a#4 v=0
656580 On ch=1 n=a#4 v=46
657044 On ch=1 n=a#4 v=0
657044 On ch=1 n=b4 v=41
657440 On ch=1 n=b4 v=0
657440 On ch=1 n=a4 v=46
657826 On ch=1 n=a4 v=0
657826 On ch=1 n=a#4 v=53
658242 On ch=1 n=a#4 v=0
658242 On ch=1 n=d#4 v=60
659178 On ch=1 n=d#4 v=0
660908 On ch=1 n=b4 v=65
660908 On ch=1 n=g#4 v=65
660908 On ch=1 n=f4 v=65
661302 On ch=1 n=f4 v=0
661302 On ch=1 n=g#4 v=0
661302 On ch=1 n=b4 v=0
661302 On ch=1 n=b4 v=65
661302 On ch=1 n=g#4 v=65
661302 On ch=1 n=f4 v=65
661696 On ch=1 n=f4 v=0
661696 On ch=1 n=g#4 v=0
661696 On ch=1 n=b4 v=0
661696 On ch=1 n=b4 v=65
661696 On ch=1 n=g#4 v=65
661696 On ch=1 n=f4 v=65
662566 On ch=1 n=f4 v=0
662566 On ch=1 n=g#4 v=0
662566 On ch=1 n=b4 v=0
662566 On ch=1 n=b4 v=65
662566 On ch=1 n=g#4 v=65
662566 On ch=1 n=f4 v=65
662964 On ch=1 n=f4 v=0
662964 On ch=1 n=g#4 v=0
662964 On ch=1 n=b4 v=0
662964 On ch=1 n=b4 v=58
662964 On ch=1 n=g#4 v=58
662964 On ch=1 n=f4 v=58
663366 On ch=1 n=f4 v=0
663366 On ch=1 n=g#4 v=0
663366 On ch=1 n=b4 v=0
663366 On ch=1 n=b4 v=65
663366 On ch=1 n=g#4 v=65
663366 On ch=1 n=f4 v=65
664234 On ch=1 n=f4 v=0
664234 On ch=1 n=g#4 v=0
664234 On ch=1 n=b4 v=0
664234 On ch=1 n=b4 v=65
664234 On ch=1 n=g#4 v=65
664234 On ch=1 n=f4 v=65
664636 On ch=1 n=f4 v=0
664636 On ch=1 n=g#4 v=0
664636 On ch=1 n=b4 v=0
664636 On ch=1 n=b4 v=65
664636 On ch=1 n=g#4 v=65
664636 On ch=1 n=f4 v=65
665146 On ch=1 n=f4 v=0
665146 On ch=1 n=g#4 v=0
665146 On ch=1 n=b4 v=0
665146 On ch=1 n=b4 v=78
665146 On ch=1 n=g#4 v=78
665146 On ch=1 n=f4 v=78
666302 On ch=1 n=f4 v=0
666302 On ch=1 n=g#4 v=0
666302 On ch=1 n=b4 v=0
667358 On ch=1 n=b4 v=69
667756 On ch=1 n=b4 v=0
667756 On ch=1 n=c#5 v=79
668146 On ch=1 n=c#5 v=0
668146 On ch=1 n=a#4 v=77
668540 On ch=1 n=a#4 v=0
668540 On ch=1 n=b4 v=74
668952 On ch=1 n=b4 v=0
668952 On ch=1 n=d#4 v=79
669848 On ch=1 n=d#4 v=0
671534 On ch=1 n=b4 v=80
671534 On ch=1 n=g#4 v=80
671534 On ch=1 n=f4 v=80
671910 On ch=1 n=f4 v=0
671910 On ch=1 n=g#4 v=0
671910 On ch=1 n=b4 v=0
671910 On ch=1 n=b4 v=80
671910 On ch=1 n=g#4 v=80
671910 On ch=1 n=f4 v=80
672306 On ch=1 n=f4 v=0
672306 On ch=1 n=g#4 v=0
672306 On ch=1 n=b4 v=0
672306 On ch=1 n=b4 v=80
672306 On ch=1 n=g#4 v=80
672306 On ch=1 n=f4 v=80
673142 On ch=1 n=f4 v=0
673142 On ch=1 n=g#4 v=0
673142 On ch=1 n=b4 v=0
673142 On ch=1 n=b4 v=82
673142 On ch=1 n=g#4 v=82
673142 On ch=1 n=f4 v=82
673520 On ch=1 n=f4 v=0
673520 On ch=1 n=g#4 v=0
673520 On ch=1 n=b4 v=0
673520 On ch=1 n=b4 v=83
673520 On ch=1 n=g#4 v=83
673520 On ch=1 n=f4 v=83
673916 On ch=1 n=f4 v=0
673916 On ch=1 n=g#4 v=0
673916 On ch=1 n=b4 v=0
673916 On ch=1 n=b4 v=83
673916 On ch=1 n=g#4 v=83
673916 On ch=1 n=f4 v=83
674740 On ch=1 n=f4 v=0
674740 On ch=1 n=g#4 v=0
674740 On ch=1 n=b4 v=0
674740 On ch=1 n=b4 v=84
674740 On ch=1 n=g#4 v=84
674740 On ch=1 n=f4 v=84
675118 On ch=1 n=f4 v=0
675118 On ch=1 n=g#4 v=0
675118 On ch=1 n=b4 v=0
675118 On ch=1 n=b4 v=84
675118 On ch=1 n=g#4 v=84
675118 On ch=1 n=f4 v=84
675584 On ch=1 n=f4 v=0
675584 On ch=1 n=g#4 v=0
675584 On ch=1 n=b4 v=0
675584 On ch=1 n=b4 v=88
675584 On ch=1 n=g#4 v=88
675584 On ch=1 n=f4 v=88
676424 On ch=1 n=f4 v=0
676424 On ch=1 n=g#4 v=0
676424 On ch=1 n=b4 v=0
677344 On ch=1 n=b4 v=99
677718 On ch=1 n=b4 v=0
677718 On ch=1 n=c#5 v=99
678084 On ch=1 n=c#5 v=0
678084 On ch=1 n=a#4 v=99
678466 On ch=1 n=a#4 v=0
678466 On ch=1 n=b4 v=99
678858 On ch=1 n=b4 v=0
678858 On ch=1 n=d#4 v=99
679702 On ch=1 n=d#4 v=0
679702 On ch=1 n=b4 v=99
679702 On ch=1 n=g#4 v=99
679702 On ch=1 n=f4 v=99
680060 On ch=1 n=f4 v=0
680060 On ch=1 n=g#4 v=0
680060 On ch=1 n=b4 v=0
680060 On ch=1 n=b4 v=99
680060 On ch=1 n=g#4 v=99
680060 On ch=1 n=f4 v=99
680444 On ch=1 n=f4 v=0
680444 On ch=1 n=g#4 v=0
680444 On ch=1 n=b4 v=0
680444 On ch=1 n=b4 v=99
680444 On ch=1 n=g#4 v=99
680444 On ch=1 n=f4 v=99
681258 On ch=1 n=f4 v=0
681258 On ch=1 n=g#4 v=0
681258 On ch=1 n=b4 v=0
681258 On ch=1 n=f5 v=99
681258 On ch=1 n=d#5 v=99
681258 On ch=1 n=b4 v=99
681258 On ch=1 n=f4 v=99
681272 Par ch=1 c=64 v=127
681626 On ch=1 n=f4 v=0
681626 On ch=1 n=b4 v=0
681626 On ch=1 n=d#5 v=0
681626 On ch=1 n=f5 v=0
681626 On ch=1 n=f5 v=99
681626 On ch=1 n=d#5 v=99
681626 On ch=1 n=b4 v=99
681626 On ch=1 n=f4 v=99
681998 On ch=1 n=f4 v=0
681998 On ch=1 n=b4 v=0
681998 On ch=1 n=d#5 v=0
681998 On ch=1 n=f5 v=0
681998 On ch=1 n=f5 v=97
681998 On ch=1 n=d#5 v=97
681998 On ch=1 n=b4 v=97
681998 On ch=1 n=f4 v=97
682772 On ch=1 n=f4 v=0
682772 On ch=1 n=b4 v=0
682772 On ch=1 n=d#5 v=0
682772 On ch=1 n=f5 v=0
682772 On ch=1 n=f6 v=97
682772 On ch=1 n=d#6 v=97
682772 On ch=1 n=b5 v=97
682772 On ch=1 n=f5 v=97
683110 On ch=1 n=f5 v=0
683110 On ch=1 n=b5 v=0
683110 On ch=1 n=d#6 v=0
683110 On ch=1 n=f6 v=0
683110 On ch=1 n=f6 v=97
683110 On ch=1 n=d#6 v=97
683110 On ch=1 n=b5 v=97
683110 On ch=1 n=f5 v=97
683450 On ch=1 n=f5 v=0
683450 On ch=1 n=b5 v=0
683450 On ch=1 n=d#6 v=0
683450 On ch=1 n=f6 v=0
683450 On ch=1 n=f6 v=97
683450 On ch=1 n=d#6 v=97
683450 On ch=1 n=b5 v=97
683450 On ch=1 n=f5 v=97
684282 On ch=1 n=f5 v=0
684282 On ch=1 n=b5 v=0
684282 On ch=1 n=d#6 v=0
684282 On ch=1 n=f6 v=0
684282 On ch=1 n=f6 v=97
684282 On ch=1 n=d#6 v=97
684282 On ch=1 n=b5 v=97
684282 On ch=1 n=f5 v=97
684606 On ch=1 n=f5 v=0
684606 On ch=1 n=b5 v=0
684606 On ch=1 n=d#6 v=0
684606 On ch=1 n=f6 v=0
684606 On ch=1 n=f6 v=97
684606 On ch=1 n=d#6 v=97
684606 On ch=1 n=b5 v=97
684606 On ch=1 n=f5 v=97
684968 On ch=1 n=f5 v=0
684968 On ch=1 n=b5 v=0
684968 On ch=1 n=d#6 v=0
684968 On ch=1 n=f6 v=0
684968 On ch=1 n=f6 v=97
684968 On ch=1 n=d#6 v=97
684968 On ch=1 n=b5 v=97
684968 On ch=1 n=f5 v=97
685728 On ch=1 n=f5 v=0
685728 On ch=1 n=b5 v=0
685728 On ch=1 n=d#6 v=0
685728 On ch=1 n=f6 v=0
685728 On ch=1 n=f6 v=97
685728 On ch=1 n=d#6 v=97
685728 On ch=1 n=b5 v=97
685728 On ch=1 n=f5 v=97
686066 On ch=1 n=f5 v=0
686066 On ch=1 n=b5 v=0
686066 On ch=1 n=d#6 v=0
686066 On ch=1 n=f6 v=0
686066 On ch=1 n=f6 v=97
686066 On ch=1 n=d#6 v=97
686066 On ch=1 n=b5 v=97
686066 On ch=1 n=f5 v=97
686490 On ch=1 n=f5 v=0
686490 On ch=1 n=b5 v=0
686490 On ch=1 n=d#6 v=0
686490 On ch=1 n=f6 v=0
686490 Par ch=1 c=64 v=0
686490 On ch=1 n=a#6 v=112
686490 On ch=1 n=f6 v=112
686490 On ch=1 n=a#5 v=112
686502 Par ch=1 c=64 v=127
689542 On ch=1 n=a#5 v=0
689542 On ch=1 n=f6 v=0
689542 On ch=1 n=a#6 v=0
689542 Par ch=1 c=64 v=0
689542 On ch=1 n=d#5 v=102
691100 On ch=1 n=d#5 v=0
691100 On ch=1 n=f5 v=98
691114 Par ch=1 c=64 v=127
691200 On ch=1 n=f5 v=0
691200 On ch=1 n=d#5 v=98
691300 On ch=1 n=d#5 v=0
691300 On ch=1 n=f5 v=98
691400 On ch=1 n=f5 v=0
691400 On ch=1 n=d#5 v=98
691460 On ch=1 n=d#5 v=0
691460 On ch=1 n=f5 v=99
691554 On ch=1 n=f5 v=0
691554 On ch=1 n=d#5 v=99
691650 On ch=1 n=d#5 v=0
691650 On ch=1 n=f5 v=99
691744 On ch=1 n=f5 v=0
691744 On ch=1 n=d#5 v=99
691810 On ch=1 n=d#5 v=0
691810 On ch=1 n=f5 v=102
691900 On ch=1 n=f5 v=0
691900 On ch=1 n=d#5 v=102
691988 On ch=1 n=d#5 v=0
691988 On ch=1 n=f5 v=102
692078 On ch=1 n=f5 v=0
692078 On ch=1 n=d#5 v=102
692192 On ch=1 n=d#5 v=0
692192 On ch=1 n=f5 v=104
692282 On ch=1 n=f5 v=0
692282 On ch=1 n=d#5 v=104
692374 On ch=1 n=d#5 v=0
692374 On ch=1 n=f5 v=104
692466 On ch=1 n=f5 v=0
692466 On ch=1 n=d#5 v=104
692574 On ch=1 n=d#5 v=0
692574 On ch=1 n=f5 v=105
692668 On ch=1 n=f5 v=0
692668 On ch=1 n=d#5 v=105
692764 On ch=1 n=d#5 v=0
692764 On ch=1 n=f5 v=105
692860 On ch=1 n=f5 v=0
692860 On ch=1 n=d#5 v=105
692966 On ch=1 n=d#5 v=0
692966 On ch=1 n=f5 v=110
693062 On ch=1 n=f5 v=0
693062 On ch=1 n=d#5 v=110
693158 On ch=1 n=d#5 v=0
693158 On ch=1 n=f5 v=110
693256 On ch=1 n=f5 v=0
693256 On ch=1 n=d#5 v=110
693360 On ch=1 n=d#5 v=0
693360 On ch=1 n=f5 v=111
693458 On ch=1 n=f5 v=0
693458 On ch=1 n=d#5 v=111
693556 On ch=1 n=d#5 v=0
693556 On ch=1 n=f5 v=111
693654 On ch=1 n=f5 v=0
693654 On ch=1 n=d#5 v=111
693734 On ch=1 n=d#5 v=0
693734 On ch=1 n=f5 v=112
693830 On ch=1 n=f5 v=0
693830 On ch=1 n=d#5 v=112
693926 On ch=1 n=d#5 v=0
693926 On ch=1 n=d5 v=112
694022 On ch=1 n=d5 v=0
694022 On ch=1 n=d#5 v=112
694128 On ch=1 n=d#5 v=0
694128 Par ch=1 c=64 v=0
694128 On ch=1 n=f5 v=112
694236 On ch=1 n=f5 v=0
694236 On ch=1 n=f#5 v=112
694344 On ch=1 n=f#5 v=0
694344 On ch=1 n=g#5 v=112
694454 On ch=1 n=g#5 v=0
694454 On ch=1 n=a#5 v=112
694566 On ch=1 n=a#5 v=0
694566 On ch=1 n=b5 v=112
694676 On ch=1 n=b5 v=0
694676 On ch=1 n=c#6 v=112
694786 On ch=1 n=c#6 v=0
694786 On ch=1 n=d#6 v=112
694890 On ch=1 n=d#6 v=0
694890 On ch=1 n=f6 v=112
694984 On ch=1 n=f6 v=0
694984 On ch=1 n=f#6 v=112
695080 On ch=1 n=f#6 v=0
695080 On ch=1 n=g#6 v=112
695176 On ch=1 n=g#6 v=0
695176 On ch=1 n=a#6 v=112
695294 On ch=1 n=a#6 v=0
695294 On ch=1 n=b6 v=114
695390 On ch=1 n=b6 v=0
695390 On ch=1 n=c#7 v=114
695488 On ch=1 n=c#7 v=0
695488 On ch=1 n=d#7 v=114
695586 On ch=1 n=d#7 v=0
695586 On ch=1 n=f7 v=114
695740 On ch=1 n=f7 v=0
695740 On ch=1 n=f#7 v=122
695754 Par ch=1 c=64 v=127
697722 On ch=1 n=f#7 v=0
697722 On ch=1 n=d#7 v=112
698104 On ch=1 n=d#7 v=0
698104 On ch=1 n=a#6 v=112
698484 On ch=1 n=a#6 v=0
698484 On ch=1 n=f#6 v=112
698934 On ch=1 n=f#6 v=0
698934 Par ch=1 c=64 v=0
698934 On ch=1 n=f6 v=112
699038 On ch=1 n=f6 v=0
699038 On ch=1 n=f#6 v=112
699142 On ch=1 n=f#6 v=0
699142 On ch=1 n=f6 v=112
699298 On ch=1 n=f6 v=0
699298 On ch=1 n=e6 v=114
699666 On ch=1 n=e6 v=0
699666 On ch=1 n=f6 v=114
700052 On ch=1 n=f6 v=0
700240 On ch=1 n=a#6 v=116
700518 On ch=1 n=a#6 v=0
700518 On ch=1 n=d#6 v=123
703770 On ch=1 n=d#6 v=0
704592 On ch=1 n=d6 v=65
704986 On ch=1 n=d6 v=0
704986 On ch=1 n=d#6 v=65
705352 On ch=1 n=d#6 v=0
705352 On ch=1 n=f#6 v=65
705724 On ch=1 n=f#6 v=0
705724 On ch=1 n=f6 v=65
706090 On ch=1 n=f6 v=0
706090 On ch=1 n=f6 v=61
706474 On ch=1 n=f6 v=0
706474 On ch=1 n=c6 v=65
706858 On ch=1 n=c6 v=0
706858 On ch=1 n=b5 v=65
708920 On ch=1 n=b5 v=0
708920 On ch=1 n=a#5 v=65
709306 On ch=1 n=a#5 v=0
709306 On ch=1 n=d6 v=60
709678 On ch=1 n=d6 v=0
709678 On ch=1 n=d#6 v=65
710060 On ch=1 n=d#6 v=0
710060 On ch=1 n=f#6 v=65
710420 On ch=1 n=f#6 v=0
710420 On ch=1 n=f6 v=65
710816 On ch=1 n=f6 v=0
710816 On ch=1 n=f6 v=62
711206 On ch=1 n=f6 v=0
711206 On ch=1 n=c6 v=68
711588 On ch=1 n=c6 v=0
711588 On ch=1 n=b5 v=69
713576 On ch=1 n=b5 v=0
713576 On ch=1 n=a#5 v=69
713972 On ch=1 n=a#5 v=0
713972 On ch=1 n=d6 v=69
714362 On ch=1 n=d6 v=0
714362 On ch=1 n=d#6 v=71
714720 On ch=1 n=d#6 v=0
714720 On ch=1 n=f#6 v=73
715088 On ch=1 n=f#6 v=0
715088 On ch=1 n=f6 v=74
715458 On ch=1 n=f6 v=0
715458 On ch=1 n=f6 v=74
715800 On ch=1 n=f6 v=0
715800 On ch=1 n=c6 v=74
716170 On ch=1 n=c6 v=0
716170 On ch=1 n=g#6 v=74
716576 On ch=1 n=g#6 v=0
716576 On ch=1 n=g6 v=74
716934 On ch=1 n=g6 v=0
716934 On ch=1 n=g6 v=74
717308 On ch=1 n=g6 v=0
717308 On ch=1 n=d#6 v=74
717708 On ch=1 n=d#6 v=0
717708 On ch=1 n=a#6 v=74
718088 On ch=1 n=a#6 v=0
718088 On ch=1 n=g#6 v=74
718478 On ch=1 n=g#6 v=0
718478 On ch=1 n=g#6 v=74
718872 On ch=1 n=g#6 v=0
718872 On ch=1 n=d#6 v=74
719270 On ch=1 n=d#6 v=0
719270 On ch=1 n=b6 v=73
719666 On ch=1 n=b6 v=0
719666 On ch=1 n=a#6 v=64
720066 On ch=1 n=a#6 v=0
720066 On ch=1 n=a#6 v=67
720454 On ch=1 n=a#6 v=0
720454 On ch=1 n=f6 v=65
720894 On ch=1 n=f6 v=0
720894 On ch=1 n=b6 v=64
721254 On ch=1 n=b6 v=0
721254 On ch=1 n=a#6 v=59
721634 On ch=1 n=a#6 v=0
721634 On ch=1 n=a#6 v=61
722012 On ch=1 n=a#6 v=0
722012 On ch=1 n=a6 v=64
722382 On ch=1 n=a6 v=0
722382 On ch=1 n=a#6 v=73
722728 On ch=1 n=a#6 v=0
722728 On ch=1 n=b6 v=74
723086 On ch=1 n=b6 v=0
723086 On ch=1 n=a#6 v=67
723470 On ch=1 n=a#6 v=0
723470 On ch=1 n=f#7 v=65
723838 On ch=1 n=f#7 v=0
723838 On ch=1 n=f#7 v=69
724176 On ch=1 n=f#7 v=0
724176 On ch=1 n=f7 v=74
724522 On ch=1 n=f7 v=0
724522 On ch=1 n=f7 v=73
724882 On ch=1 n=f7 v=0
724882 On ch=1 n=b6 v=73
725266 On ch=1 n=b6 v=0
725266 On ch=1 n=b6 v=64
727320 On ch=1 n=b6 v=0
727320 On ch=1 n=a#6 v=63
727698 On ch=1 n=a#6 v=0
727698 On ch=1 n=d7 v=64
728096 On ch=1 n=d7 v=0
728096 On ch=1 n=d#7 v=61
728496 On ch=1 n=d#7 v=0
728496 On ch=1 n=f#7 v=60
728902 On ch=1 n=f#7 v=0
728902 On ch=1 n=f7 v=60
729292 On ch=1 n=f7 v=0
729292 On ch=1 n=f7 v=61
729670 On ch=1 n=f7 v=0
729670 On ch=1 n=b6 v=63
730044 On ch=1 n=b6 v=0
730044 On ch=1 n=b6 v=61
732076 On ch=1 n=b6 v=0
732076 On ch=1 n=a#6 v=64
732452 On ch=1 n=a#6 v=0
732452 On ch=1 n=a#6 v=64
732824 On ch=1 n=a#6 v=0
732824 On ch=1 n=e7 v=74
733202 On ch=1 n=e7 v=0
733202 On ch=1 n=e7 v=74
733564 On ch=1 n=e7 v=0
733564 On ch=1 n=d#7 v=75
733938 On ch=1 n=d#7 v=0
733938 On ch=1 n=d#7 v=77
734322 On ch=1 n=d#7 v=0
734322 On ch=1 n=g#6 v=77
734696 On ch=1 n=g#6 v=0
734696 On ch=1 n=f7 v=74
735076 On ch=1 n=f7 v=0
735076 On ch=1 n=d#7 v=79
735448 On ch=1 n=d#7 v=0
735448 On ch=1 n=d#7 v=79
735822 On ch=1 n=d#7 v=0
735822 On ch=1 n=f#6 v=80
736198 On ch=1 n=f#6 v=0
736198 On ch=1 n=f7 v=80
736572 On ch=1 n=f7 v=0
736572 On ch=1 n=d#7 v=82
736934 On ch=1 n=d#7 v=0
736934 On ch=1 n=d#7 v=83
737304 On ch=1 n=d#7 v=0
737304 On ch=1 n=f6 v=83
738488 On ch=1 n=f6 v=0
738882 On ch=1 n=b5 v=83
739290 On ch=1 n=b5 v=0
739290 On ch=1 n=b5 v=72
739718 On ch=1 n=b5 v=0
739718 On ch=1 n=d5 v=67
740166 On ch=1 n=d5 v=0
740166 On ch=1 n=d5 v=60
742116 On ch=1 n=d5 v=0
742116 On ch=1 n=g#4 v=54
742116 On ch=1 n=d#5 v=54
743126 On ch=1 n=d#5 v=0
743126 On ch=1 n=g#4 v=0
744290 On ch=1 n=f5 v=53
744290 On ch=1 n=g#4 v=53
744290 On ch=1 n=f4 v=53
746190 On ch=1 n=f4 v=0
746190 On ch=1 n=g#4 v=0
746190 On ch=1 n=f5 v=0
747094 On ch=1 n=c#5 v=53
747094 On ch=1 n=a#4 v=53
747932 On ch=1 n=a#4 v=0
747932 On ch=1 n=c#5 v=0
747932 On ch=1 n=f5 v=56
747932 On ch=1 n=g#4 v=56
748324 On ch=1 n=g#4 v=0
748324 On ch=1 n=f5 v=0
748324 On ch=1 n=d#5 v=61
748696 On ch=1 n=d#5 v=0
748696 On ch=1 n=c#5 v=59
748696 On ch=1 n=a#4 v=59
749496 On ch=1 n=a#4 v=0
749496 On ch=1 n=c#5 v=0
749496 On ch=1 n=g#5 v=60
749496 On ch=1 n=f5 v=60
749496 On ch=1 n=c#5 v=60
749496 On ch=1 n=b4 v=60
749508 Par ch=1 c=64 v=127
750296 On ch=1 n=b4 v=0
750296 On ch=1 n=c#5 v=0
750296 On ch=1 n=f5 v=0
750296 On ch=1 n=g#5 v=0
750296 On ch=1 n=g#5 v=60
750296 On ch=1 n=f5 v=60
750296 On ch=1 n=c#5 v=60
750662 On ch=1 n=c#5 v=0
750662 On ch=1 n=f5 v=0
750662 On ch=1 n=g#5 v=0
750662 On ch=1 n=g#5 v=63
750662 On ch=1 n=f5 v=63
750662 On ch=1 n=c#5 v=63
751004 On ch=1 n=c#5 v=0
751004 On ch=1 n=f5 v=0
751004 On ch=1 n=g#5 v=0
751004 On ch=1 n=a#5 v=68
751004 On ch=1 n=f5 v=68
751004 On ch=1 n=c#5 v=68
751370 On ch=1 n=a#5 v=0
751370 On ch=1 n=g#5 v=54
751756 On ch=1 n=g#5 v=0
751756 On ch=1 n=c#5 v=0
751756 On ch=1 n=f5 v=0
751756 On ch=1 n=f5 v=56
751756 On ch=1 n=c#5 v=56
751756 On ch=1 n=b4 v=56
752130 On ch=1 n=b4 v=0
752130 On ch=1 n=c#5 v=0
752130 On ch=1 n=f5 v=0
752130 On ch=1 n=c#5 v=61
752130 On ch=1 n=b4 v=61
752508 On ch=1 n=b4 v=0
752508 On ch=1 n=c#5 v=0
752508 Par ch=1 c=64 v=0
752508 On ch=1 n=a#5 v=68
752508 On ch=1 n=c#5 v=68
752508 On ch=1 n=a#4 v=68
753310 On ch=1 n=a#4 v=0
753310 On ch=1 n=c#5 v=0
753310 On ch=1 n=a#5 v=0
753310 On ch=1 n=f#5 v=53
753310 On ch=1 n=c#5 v=53
753310 On ch=1 n=a#4 v=53
754132 On ch=1 n=a#4 v=0
754132 On ch=1 n=c#5 v=0
754132 On ch=1 n=f#5 v=0
754132 On ch=1 n=f5 v=68
754132 On ch=1 n=c#5 v=68
754132 On ch=1 n=g#4 v=68
755794 On ch=1 n=g#4 v=0
755794 On ch=1 n=c#5 v=0
755794 On ch=1 n=f5 v=0
756636 On ch=1 n=c#5 v=56
756636 On ch=1 n=a#4 v=56
757428 On ch=1 n=a#4 v=0
757428 On ch=1 n=c#5 v=0
757428 On ch=1 n=f5 v=63
757428 On ch=1 n=g#4 v=63
757794 On ch=1 n=g#4 v=0
757794 On ch=1 n=f5 v=0
757794 On ch=1 n=d#5 v=65
758154 On ch=1 n=d#5 v=0
758154 On ch=1 n=c#5 v=63
758154 On ch=1 n=g#4 v=63
758964 On ch=1 n=g#4 v=0
758964 On ch=1 n=c#5 v=0
758964 On ch=1 n=d#5 v=63
758964 On ch=1 n=c5 v=63
758964 On ch=1 n=g#4 v=63
759730 On ch=1 n=g#4 v=0
759730 On ch=1 n=c5 v=0
759730 On ch=1 n=d#5 v=0
759730 On ch=1 n=d#5 v=63
759730 On ch=1 n=c5 v=63
760092 On ch=1 n=c5 v=0
760092 On ch=1 n=d#5 v=0
760092 On ch=1 n=d#5 v=63
760092 On ch=1 n=c5 v=63
760450 On ch=1 n=c5 v=0
760450 On ch=1 n=d#5 v=0
760450 On ch=1 n=f5 v=61
760450 On ch=1 n=c#5 v=61
760824 On ch=1 n=c#5 v=0
760824 On ch=1 n=f5 v=0
760824 On ch=1 n=d#5 v=58
760824 On ch=1 n=c5 v=58
761208 On ch=1 n=c5 v=0
761208 On ch=1 n=d#5 v=0
761208 On ch=1 n=c#5 v=56
761208 On ch=1 n=a#4 v=56
761590 On ch=1 n=a#4 v=0
761590 On ch=1 n=c#5 v=0
761590 On ch=1 n=d#5 v=55
761590 On ch=1 n=c5 v=55
761978 On ch=1 n=c5 v=0
761978 On ch=1 n=d#5 v=0
761978 On ch=1 n=f5 v=57
761978 On ch=1 n=c#5 v=57
762794 On ch=1 n=c#5 v=0
762794 On ch=1 n=f5 v=0
762794 On ch=1 n=c#5 v=55
762794 On ch=1 n=f4 v=55
763634 On ch=1 n=f4 v=0
763634 On ch=1 n=c#5 v=0
763634 On ch=1 n=f5 v=53
763634 On ch=1 n=c#5 v=53
765314 On ch=1 n=c#5 v=0
765314 On ch=1 n=f5 v=0
766166 On ch=1 n=c#6 v=55
766166 On ch=1 n=a#5 v=55
766166 On ch=1 n=f#5 v=55
766972 On ch=1 n=f#5 v=0
766972 On ch=1 n=a#5 v=0
766972 On ch=1 n=c#6 v=0
766972 On ch=1 n=f6 v=56
766972 On ch=1 n=g#5 v=56
766972 On ch=1 n=f5 v=56
767352 On ch=1 n=f6 v=0
767352 On ch=1 n=d#6 v=60
767728 On ch=1 n=d#6 v=0
767728 On ch=1 n=f5 v=0
767728 On ch=1 n=g#5 v=0
767728 On ch=1 n=c#6 v=62
767728 On ch=1 n=a#5 v=62
767728 On ch=1 n=f#5 v=62
768496 On ch=1 n=f#5 v=0
768496 On ch=1 n=a#5 v=0
768496 On ch=1 n=c#6 v=0
768496 On ch=1 n=g#6 v=65
768496 On ch=1 n=c#6 v=65
768496 On ch=1 n=b5 v=65
769236 On ch=1 n=b5 v=0
769236 On ch=1 n=c#6 v=0
769236 On ch=1 n=g#6 v=0
769236 On ch=1 n=g#6 v=68
769236 On ch=1 n=c#6 v=68
769236 On ch=1 n=b5 v=68
769608 On ch=1 n=b5 v=0
769608 On ch=1 n=c#6 v=0
769608 On ch=1 n=g#6 v=0
769608 On ch=1 n=g#6 v=66
769608 On ch=1 n=c#6 v=66
769608 On ch=1 n=b5 v=66
769984 On ch=1 n=b5 v=0
769984 On ch=1 n=c#6 v=0
769984 On ch=1 n=g#6 v=0
769984 On ch=1 n=a#6 v=66
769984 On ch=1 n=c#6 v=66
769984 On ch=1 n=b5 v=66
770358 On ch=1 n=a#6 v=0
770358 On ch=1 n=g#6 v=66
770732 On ch=1 n=g#6 v=0
770732 On ch=1 n=b5 v=0
770732 On ch=1 n=c#6 v=0
770732 On ch=1 n=f6 v=65
770732 On ch=1 n=c#6 v=65
770732 On ch=1 n=b5 v=65
771104 On ch=1 n=b5 v=0
771104 On ch=1 n=c#6 v=0
771104 On ch=1 n=f6 v=0
771104 On ch=1 n=c#6 v=70
771104 On ch=1 n=b5 v=70
771474 On ch=1 n=b5 v=0
771474 On ch=1 n=c#6 v=0
771474 On ch=1 n=a#6 v=68
771474 On ch=1 n=c#6 v=68
771474 On ch=1 n=a#5 v=68
772258 On ch=1 n=a#5 v=0
772258 On ch=1 n=c#6 v=0
772258 On ch=1 n=a#6 v=0
772258 On ch=1 n=f#6 v=66
772258 On ch=1 n=c#6 v=66
772258 On ch=1 n=a#5 v=66
773016 On ch=1 n=a#5 v=0
773016 On ch=1 n=c#6 v=0
773016 On ch=1 n=f#6 v=0
773016 On ch=1 n=f6 v=65
773016 On ch=1 n=c#6 v=65
773016 On ch=1 n=g#5 v=65
773016 On ch=1 n=f5 v=65
774488 On ch=1 n=f5 v=0
774488 On ch=1 n=g#5 v=0
774488 On ch=1 n=c#6 v=0
774488 On ch=1 n=f6 v=0
775290 On ch=1 n=c#6 v=81
775290 On ch=1 n=a#5 v=81
775290 On ch=1 n=f#5 v=81
776036 On ch=1 n=f#5 v=0
776036 On ch=1 n=a#5 v=0
776036 On ch=1 n=c#6 v=0
776036 On ch=1 n=f6 v=74
776036 On ch=1 n=g#5 v=74
776036 On ch=1 n=f5 v=74
776406 On ch=1 n=f6 v=0
776406 On ch=1 n=d#6 v=77
776788 On ch=1 n=d#6 v=0
776788 On ch=1 n=f5 v=0
776788 On ch=1 n=g#5 v=0
776788 On ch=1 n=c#6 v=81
776788 On ch=1 n=g#5 v=81
776788 On ch=1 n=f5 v=81
777568 On ch=1 n=f5 v=0
777568 On ch=1 n=g#5 v=0
777568 On ch=1 n=c#6 v=0
777568 On ch=1 n=d#6 v=77
777568 On ch=1 n=g#5 v=77
777568 On ch=1 n=f#5 v=77
778326 On ch=1 n=f#5 v=0
778326 On ch=1 n=g#5 v=0
778326 On ch=1 n=d#6 v=0
778326 On ch=1 n=d#6 v=74
778326 On ch=1 n=g#5 v=74
778326 On ch=1 n=f#5 v=74
778682 On ch=1 n=f#5 v=0
778682 On ch=1 n=g#5 v=0
778682 On ch=1 n=d#6 v=0
778682 On ch=1 n=d#6 v=74
778682 On ch=1 n=g#5 v=74
778682 On ch=1 n=f#5 v=74
779040 On ch=1 n=f#5 v=0
779040 On ch=1 n=g#5 v=0
779040 On ch=1 n=d#6 v=0
779040 On ch=1 n=f6 v=81
779040 On ch=1 n=g#5 v=81
779040 On ch=1 n=f#5 v=81
779410 On ch=1 n=f#5 v=0
779410 On ch=1 n=g#5 v=0
779410 On ch=1 n=f6 v=0
779410 On ch=1 n=d#6 v=74
779410 On ch=1 n=g#5 v=74
779410 On ch=1 n=f#5 v=74
779780 On ch=1 n=f#5 v=0
779780 On ch=1 n=g#5 v=0
779780 On ch=1 n=d#6 v=0
779780 On ch=1 n=c#6 v=74
779780 On ch=1 n=g#5 v=74
779780 On ch=1 n=f#5 v=74
780150 On ch=1 n=f#5 v=0
780150 On ch=1 n=g#5 v=0
780150 On ch=1 n=c#6 v=0
780150 On ch=1 n=d#6 v=74
780150 On ch=1 n=g#5 v=74
780150 On ch=1 n=f#5 v=74
780522 On ch=1 n=f#5 v=0
780522 On ch=1 n=g#5 v=0
780522 On ch=1 n=d#6 v=0
780522 On ch=1 n=f6 v=77
780522 On ch=1 n=g#5 v=77
780522 On ch=1 n=f5 v=77
781300 On ch=1 n=f5 v=0
781300 On ch=1 n=g#5 v=0
781300 On ch=1 n=f6 v=0
781300 On ch=1 n=c#6 v=81
781300 On ch=1 n=c#5 v=81
782096 On ch=1 n=c#5 v=0
782096 On ch=1 n=c#6 v=0
782096 On ch=1 n=c#6 v=81
782096 On ch=1 n=c#5 v=81
782846 On ch=1 n=c#5 v=0
782846 On ch=1 n=c#6 v=0
782846 On ch=1 n=d#6 v=82
783236 On ch=1 n=d#6 v=0
783236 On ch=1 n=d#5 v=82
783624 On ch=1 n=d#5 v=0
783624 On ch=1 n=d#6 v=83
784004 On ch=1 n=d#6 v=0
784004 On ch=1 n=e6 v=86
784004 On ch=1 n=e5 v=86
784016 Par ch=1 c=64 v=127
784734 On ch=1 n=e5 v=0
784734 On ch=1 n=e6 v=0
784734 On ch=1 n=e6 v=88
784734 On ch=1 n=a5 v=88
784734 On ch=1 n=e5 v=88
785102 On ch=1 n=e5 v=0
785102 On ch=1 n=a5 v=0
785102 On ch=1 n=e6 v=0
785102 On ch=1 n=e6 v=88
785102 On ch=1 n=a5 v=88
785102 On ch=1 n=e5 v=88
785464 On ch=1 n=e5 v=0
785464 On ch=1 n=a5 v=0
785464 On ch=1 n=e6 v=0
785464 On ch=1 n=e6 v=88
785464 On ch=1 n=a5 v=88
785464 On ch=1 n=e5 v=88
786226 On ch=1 n=e5 v=0
786226 On ch=1 n=a5 v=0
786226 On ch=1 n=e6 v=0
786226 On ch=1 n=e5 v=90
786226 On ch=1 n=a5 v=90
786226 On ch=1 n=e6 v=90
786610 On ch=1 n=e6 v=0
786610 On ch=1 n=a5 v=0
786610 On ch=1 n=e5 v=0
786610 Par ch=1 c=64 v=0
786610 On ch=1 n=e6 v=90
786610 On ch=1 n=g#5 v=90
786610 On ch=1 n=e5 v=90
787392 On ch=1 n=e5 v=0
787392 On ch=1 n=g#5 v=0
787392 On ch=1 n=e6 v=0
787392 On ch=1 n=e6 v=90
787392 On ch=1 n=d6 v=90
787392 On ch=1 n=g#5 v=90
787760 On ch=1 n=g#5 v=0
787760 On ch=1 n=d6 v=0
787760 On ch=1 n=e6 v=0
787760 On ch=1 n=e6 v=86
787760 On ch=1 n=d6 v=86
787760 On ch=1 n=g#5 v=86
788122 On ch=1 n=g#5 v=0
788122 On ch=1 n=d6 v=0
788122 On ch=1 n=e6 v=0
788122 On ch=1 n=f#6 v=87
788122 On ch=1 n=d6 v=87
788122 On ch=1 n=g#5 v=87
788482 On ch=1 n=g#5 v=0
788482 On ch=1 n=d6 v=0
788482 On ch=1 n=f#6 v=0
788482 On ch=1 n=e6 v=89
788482 On ch=1 n=d6 v=89
788482 On ch=1 n=g#5 v=89
788858 On ch=1 n=g#5 v=0
788858 On ch=1 n=d6 v=0
788858 On ch=1 n=e6 v=0
788858 On ch=1 n=a6 v=87
788858 On ch=1 n=e6 v=87
788858 On ch=1 n=d6 v=87
788858 On ch=1 n=a5 v=87
789228 On ch=1 n=a5 v=0
789228 On ch=1 n=d6 v=0
789228 On ch=1 n=e6 v=0
789228 On ch=1 n=a6 v=0
789228 On ch=1 n=b6 v=90
789228 On ch=1 n=e6 v=90
789228 On ch=1 n=d6 v=90
789228 On ch=1 n=b5 v=90
789596 On ch=1 n=b5 v=0
789596 On ch=1 n=d6 v=0
789596 On ch=1 n=e6 v=0
789596 On ch=1 n=b6 v=0
789596 On ch=1 n=c#7 v=88
789596 On ch=1 n=e6 v=88
789596 On ch=1 n=c#6 v=88
790356 On ch=1 n=c#6 v=0
790356 On ch=1 n=e6 v=0
790356 On ch=1 n=c#7 v=0
790356 On ch=1 n=a6 v=90
790356 On ch=1 n=a5 v=90
791110 On ch=1 n=a5 v=0
791110 On ch=1 n=a6 v=0
791110 On ch=1 n=a6 v=91
791110 On ch=1 n=a5 v=91
791850 On ch=1 n=a5 v=0
791850 On ch=1 n=a6 v=0
791850 On ch=1 n=a#6 v=94
792218 On ch=1 n=a#6 v=0
792218 On ch=1 n=a#5 v=94
792584 On ch=1 n=a#5 v=0
792584 On ch=1 n=a#6 v=96
792942 On ch=1 n=a#6 v=0
792942 Par ch=1 c=64 v=127
792942 On ch=1 n=c7 v=96
792942 On ch=1 n=c6 v=96
793716 On ch=1 n=c6 v=0
793716 On ch=1 n=c7 v=0
793716 On ch=1 n=c7 v=96
793716 On ch=1 n=f6 v=96
793716 On ch=1 n=c6 v=96
794084 On ch=1 n=c6 v=0
794084 On ch=1 n=f6 v=0
794084 On ch=1 n=c7 v=0
794084 On ch=1 n=c7 v=96
794084 On ch=1 n=f6 v=96
794084 On ch=1 n=c6 v=96
794444 On ch=1 n=c6 v=0
794444 On ch=1 n=f6 v=0
794444 On ch=1 n=c7 v=0
794444 On ch=1 n=c7 v=92
794444 On ch=1 n=f6 v=92
794444 On ch=1 n=c6 v=92
795214 On ch=1 n=c6 v=0
795214 On ch=1 n=f6 v=0
795214 On ch=1 n=c7 v=0
795214 On ch=1 n=c7 v=94
795214 On ch=1 n=f6 v=94
795214 On ch=1 n=c6 v=94
795590 On ch=1 n=c6 v=0
795590 On ch=1 n=f6 v=0
795590 On ch=1 n=c7 v=0
795590 Par ch=1 c=64 v=0
795590 On ch=1 n=c7 v=94
795590 On ch=1 n=e6 v=94
795590 On ch=1 n=c6 v=94
796340 On ch=1 n=c6 v=0
796340 On ch=1 n=e6 v=0
796340 On ch=1 n=c7 v=0
796340 On ch=1 n=c7 v=89
796340 On ch=1 n=e6 v=89
796340 On ch=1 n=c6 v=89
796718 On ch=1 n=c6 v=0
796718 On ch=1 n=e6 v=0
796718 On ch=1 n=c7 v=0
796718 On ch=1 n=c7 v=94
796718 On ch=1 n=e6 v=94
796718 On ch=1 n=c6 v=94
797084 On ch=1 n=c6 v=0
797084 On ch=1 n=e6 v=0
797084 On ch=1 n=c7 v=0
797084 On ch=1 n=d7 v=95
797084 On ch=1 n=f6 v=95
797084 On ch=1 n=d6 v=95
797454 On ch=1 n=d6 v=0
797454 On ch=1 n=f6 v=0
797454 On ch=1 n=d7 v=0
797454 On ch=1 n=c7 v=94
797454 On ch=1 n=e6 v=94
797454 On ch=1 n=c6 v=94
797818 On ch=1 n=c6 v=0
797818 On ch=1 n=e6 v=0
797818 On ch=1 n=c7 v=0
797818 On ch=1 n=f7 v=92
797818 On ch=1 n=a6 v=92
797818 On ch=1 n=f6 v=92
798186 On ch=1 n=f6 v=0
798186 On ch=1 n=a6 v=0
798186 On ch=1 n=f7 v=0
798186 On ch=1 n=g7 v=93
798186 On ch=1 n=a#6 v=93
798186 On ch=1 n=g6 v=93
798548 On ch=1 n=g6 v=0
798548 On ch=1 n=a#6 v=0
798548 On ch=1 n=g7 v=0
798548 On ch=1 n=a7 v=93
798548 On ch=1 n=c7 v=93
798548 On ch=1 n=g6 v=93
799290 On ch=1 n=g6 v=0
799290 On ch=1 n=c7 v=0
799290 On ch=1 n=a7 v=0
799290 On ch=1 n=f7 v=96
799290 On ch=1 n=a6 v=96
799290 On ch=1 n=f6 v=96
800064 On ch=1 n=f6 v=0
800064 On ch=1 n=a6 v=0
800064 On ch=1 n=f7 v=0
800064 On ch=1 n=f#7 v=107
800064 On ch=1 n=a6 v=107
800064 On ch=1 n=f#6 v=107
800076 Par ch=1 c=64 v=127
801230 On ch=1 n=f#6 v=0
801230 On ch=1 n=a6 v=0
801230 On ch=1 n=f#7 v=0
801230 On ch=1 n=d#7 v=104
801426 On ch=1 n=d#7 v=0
801426 On ch=1 n=c7 v=104
801584 On ch=1 n=c7 v=0
801584 On ch=1 n=a6 v=106
801772 On ch=1 n=a6 v=0
801772 On ch=1 n=f#6 v=106
801954 On ch=1 n=f#6 v=0
801954 On ch=1 n=d#6 v=98
802134 On ch=1 n=d#6 v=0
802134 On ch=1 n=c6 v=98
802344 On ch=1 n=c6 v=0
802344 On ch=1 n=a5 v=91
802534 On ch=1 n=a5 v=0
802534 On ch=1 n=f#5 v=91
802726 On ch=1 n=f#5 v=0
802726 On ch=1 n=d#5 v=89
802918 On ch=1 n=d#5 v=0
802918 On ch=1 n=c5 v=89
803110 On ch=1 n=c5 v=0
803110 Par ch=1 c=64 v=0
803110 On ch=1 n=a4 v=86
803884 On ch=1 n=a4 v=0
803884 On ch=1 n=c#5 v=86
803884 On ch=1 n=a#4 v=86
804658 On ch=1 n=a#4 v=0
804658 On ch=1 n=c#5 v=0
804658 On ch=1 n=c5 v=86
804658 On ch=1 n=a4 v=86
805406 On ch=1 n=a4 v=0
805406 On ch=1 n=c5 v=0
805406 On ch=1 n=f#6 v=95
805406 On ch=1 n=f#5 v=95
805772 On ch=1 n=f#5 v=0
805772 On ch=1 n=f#6 v=0
805772 On ch=1 n=f6 v=96
805772 On ch=1 n=f5 v=96
806156 On ch=1 n=f5 v=0
806156 On ch=1 n=f6 v=0
806156 On ch=1 n=e6 v=98
806156 On ch=1 n=e5 v=98
806946 On ch=1 n=e5 v=0
806946 On ch=1 n=e6 v=0
806946 On ch=1 n=f6 v=100
806946 On ch=1 n=f5 v=100
807326 On ch=1 n=f5 v=0
807326 On ch=1 n=f6 v=0
807326 On ch=1 n=e6 v=101
807326 On ch=1 n=e5 v=101
807708 On ch=1 n=e5 v=0
807708 On ch=1 n=e6 v=0
807708 On ch=1 n=d#6 v=102
807708 On ch=1 n=d#5 v=102
808480 On ch=1 n=d#5 v=0
808480 On ch=1 n=d#6 v=0
808480 On ch=1 n=d6 v=104
808480 On ch=1 n=d5 v=104
808856 On ch=1 n=d5 v=0
808856 On ch=1 n=d6 v=0
808856 On ch=1 n=c#6 v=106
808856 On ch=1 n=c#5 v=106
809246 On ch=1 n=c#5 v=0
809246 On ch=1 n=c#6 v=0
809246 On ch=1 n=c6 v=108
809246 On ch=1 n=c5 v=108
810030 On ch=1 n=c5 v=0
810030 On ch=1 n=c6 v=0
810030 On ch=1 n=f#7 v=110
810030 On ch=1 n=c7 v=110
810030 On ch=1 n=a6 v=110
810042 Par ch=1 c=64 v=127
810414 On ch=1 n=a6 v=0
810414 On ch=1 n=c7 v=0
810414 On ch=1 n=f#7 v=0
810414 On ch=1 n=d#7 v=110
810604 On ch=1 n=d#7 v=0
810604 On ch=1 n=c7 v=110
810806 On ch=1 n=c7 v=0
810806 On ch=1 n=a6 v=110
811000 On ch=1 n=a6 v=0
811000 On ch=1 n=f#6 v=110
811168 On ch=1 n=f#6 v=0
811168 On ch=1 n=f6 v=110
811356 On ch=1 n=f6 v=0
811356 On ch=1 n=c6 v=110
811536 On ch=1 n=c6 v=0
811536 On ch=1 n=a5 v=110
811718 On ch=1 n=a5 v=0
811718 On ch=1 n=f#5 v=110
811910 On ch=1 n=f#5 v=0
811910 On ch=1 n=d#5 v=110
812094 On ch=1 n=d#5 v=0
812094 On ch=1 n=c5 v=110
812290 On ch=1 n=c5 v=0
812290 Par ch=1 c=64 v=0
812290 On ch=1 n=a4 v=110
813058 On ch=1 n=a4 v=0
813058 On ch=1 n=c#5 v=110
813058 On ch=1 n=a#4 v=110
813832 On ch=1 n=a#4 v=0
813832 On ch=1 n=c#5 v=0
813832 On ch=1 n=c5 v=110
813832 On ch=1 n=a4 v=110
814604 On ch=1 n=a4 v=0
814604 On ch=1 n=c5 v=0
814604 On ch=1 n=f#6 v=110
814604 On ch=1 n=f#5 v=110
814984 On ch=1 n=f#5 v=0
814984 On ch=1 n=f#6 v=0
814984 On ch=1 n=f6 v=110
814984 On ch=1 n=f5 v=110
815352 On ch=1 n=f5 v=0
815352 On ch=1 n=f6 v=0
815352 On ch=1 n=e6 v=110
815352 On ch=1 n=e5 v=110
816110 On ch=1 n=e5 v=0
816110 On ch=1 n=e6 v=0
816110 On ch=1 n=f6 v=110
816110 On ch=1 n=f5 v=110
816484 On ch=1 n=f5 v=0
816484 On ch=1 n=f6 v=0
816484 On ch=1 n=e6 v=110
816484 On ch=1 n=e5 v=110
816864 On ch=1 n=e5 v=0
816864 On ch=1 n=e6 v=0
816864 On ch=1 n=d#6 v=110
816864 On ch=1 n=d#5 v=110
817616 On ch=1 n=d#5 v=0
817616 On ch=1 n=d#6 v=0
817616 On ch=1 n=d6 v=110
817616 On ch=1 n=d5 v=110
817992 On ch=1 n=d5 v=0
817992 On ch=1 n=d6 v=0
817992 On ch=1 n=c#6 v=109
817992 On ch=1 n=c#5 v=109
818366 On ch=1 n=c#5 v=0
818366 On ch=1 n=c#6 v=0
818366 On ch=1 n=c6 v=109
818366 On ch=1 n=c5 v=109
819110 On ch=1 n=c5 v=0
819110 On ch=1 n=c6 v=0
819110 On ch=1 n=f6 v=108
819110 On ch=1 n=f5 v=108
819474 On ch=1 n=f5 v=0
819474 On ch=1 n=f6 v=0
819474 On ch=1 n=e6 v=108
819474 On ch=1 n=d5 v=108
819846 On ch=1 n=d5 v=0
819846 On ch=1 n=e6 v=0
819846 On ch=1 n=d#6 v=108
819846 On ch=1 n=d#5 v=108
820602 On ch=1 n=d#5 v=0
820602 On ch=1 n=d#6 v=0
820602 On ch=1 n=e6 v=108
820602 On ch=1 n=e5 v=108
820994 On ch=1 n=e5 v=0
820994 On ch=1 n=e6 v=0
820994 On ch=1 n=d#6 v=108
820994 On ch=1 n=d#5 v=108
821350 On ch=1 n=d#5 v=0
821350 On ch=1 n=d#6 v=0
821350 On ch=1 n=d6 v=108
821350 On ch=1 n=d5 v=108
822112 On ch=1 n=d5 v=0
822112 On ch=1 n=d6 v=0
822112 On ch=1 n=c#6 v=107
822112 On ch=1 n=c#5 v=107
822482 On ch=1 n=c#5 v=0
822482 On ch=1 n=c#6 v=0
822482 On ch=1 n=c6 v=107
822482 On ch=1 n=c5 v=107
822858 On ch=1 n=c5 v=0
822858 On ch=1 n=c6 v=0
822858 On ch=1 n=a#5 v=107
822858 On ch=1 n=a#4 v=107
823634 On ch=1 n=a#4 v=0
823634 On ch=1 n=a#5 v=0
823634 On ch=1 n=d#6 v=107
823634 On ch=1 n=d#5 v=107
824000 On ch=1 n=d#5 v=0
824000 On ch=1 n=d#6 v=0
824000 On ch=1 n=d6 v=107
824000 On ch=1 n=d5 v=107
824378 On ch=1 n=d5 v=0
824378 On ch=1 n=d6 v=0
824378 On ch=1 n=c#6 v=107
824378 On ch=1 n=c#5 v=107
825140 On ch=1 n=c#5 v=0
825140 On ch=1 n=c#6 v=0
825140 On ch=1 n=d#6 v=104
825140 On ch=1 n=d#5 v=104
825520 On ch=1 n=d#5 v=0
825520 On ch=1 n=d#6 v=0
825520 On ch=1 n=c#6 v=104
825520 On ch=1 n=c#5 v=104
825886 On ch=1 n=c#5 v=0
825886 On ch=1 n=c#6 v=0
825886 On ch=1 n=c6 v=104
825886 On ch=1 n=c5 v=104
826644 On ch=1 n=c5 v=0
826644 On ch=1 n=c6 v=0
826644 On ch=1 n=a#5 v=108
826644 On ch=1 n=a#4 v=108
827012 On ch=1 n=a#4 v=0
827012 On ch=1 n=a#5 v=0
827012 On ch=1 n=g#5 v=108
827012 On ch=1 n=a#4 v=108
827380 On ch=1 n=a#4 v=0
827380 On ch=1 n=g#5 v=0
827380 On ch=1 n=g#5 v=108
827380 On ch=1 n=a#4 v=108
827564 On ch=1 n=g#5 v=0
827564 On ch=1 n=f#5 v=108
827738 On ch=1 n=f#5 v=0
827738 On ch=1 n=g#5 v=108
827918 On ch=1 n=g#5 v=0
827918 On ch=1 n=f#5 v=108
828122 On ch=1 n=f#5 v=0
828122 On ch=1 n=a#4 v=0
828122 On ch=1 n=g#5 v=108
828122 On ch=1 n=a#4 v=108
828306 On ch=1 n=g#5 v=0
828306 On ch=1 n=f#5 v=108
828504 On ch=1 n=f#5 v=0
828504 On ch=1 n=a#4 v=0
828504 On ch=1 n=g#5 v=108
828504 On ch=1 n=a#4 v=108
828694 On ch=1 n=g#5 v=0
828694 On ch=1 n=f#5 v=108
828874 On ch=1 n=f#5 v=0
828874 On ch=1 n=a#4 v=0
828874 On ch=1 n=g#5 v=108
828874 On ch=1 n=a#4 v=108
829062 On ch=1 n=g#5 v=0
829062 On ch=1 n=f#5 v=108
829254 On ch=1 n=f#5 v=0
829254 On ch=1 n=g#5 v=108
829440 On ch=1 n=g#5 v=0
829440 On ch=1 n=f#5 v=108
829636 On ch=1 n=f#5 v=0
829636 On ch=1 n=a#4 v=0
829636 On ch=1 n=g#5 v=108
829636 On ch=1 n=a#4 v=108
829826 On ch=1 n=g#5 v=0
829826 On ch=1 n=f#5 v=108
830016 On ch=1 n=f#5 v=0
830016 On ch=1 n=g#5 v=108
830206 On ch=1 n=g#5 v=0
830206 On ch=1 n=f#5 v=108
830400 On ch=1 n=f#5 v=0
830400 On ch=1 n=a#4 v=0
830400 On ch=1 n=f5 v=108
830400 On ch=1 n=a#4 v=108
830770 On ch=1 n=f5 v=0
830770 On ch=1 n=f#5 v=108
831142 On ch=1 n=f#5 v=0
831142 On ch=1 n=a#4 v=0
831142 On ch=1 n=g#5 v=108
831142 On ch=1 n=a#4 v=108
831528 On ch=1 n=g#5 v=0
831528 On ch=1 n=f#5 v=108
831920 On ch=1 n=f#5 v=0
831920 On ch=1 n=a#4 v=0
831920 On ch=1 n=f5 v=108
831920 On ch=1 n=a4 v=108
832676 On ch=1 n=a4 v=0
832676 On ch=1 n=f5 v=0
832676 On ch=1 n=f5 v=108
832676 On ch=1 n=f4 v=108
833044 On ch=1 n=f4 v=0
833044 On ch=1 n=f5 v=0
833044 On ch=1 n=f5 v=108
833044 On ch=1 n=f4 v=108
833424 On ch=1 n=f4 v=0
833424 On ch=1 n=f5 v=0
833424 On ch=1 n=f5 v=108
833424 On ch=1 n=f4 v=108
834184 On ch=1 n=f4 v=0
834184 On ch=1 n=f5 v=0
834184 On ch=1 n=f5 v=108
834184 On ch=1 n=f4 v=108
834952 On ch=1 n=f4 v=0
834952 On ch=1 n=f5 v=0
834952 On ch=1 n=f5 v=108
834952 On ch=1 n=f4 v=108
835718 On ch=1 n=f4 v=0
835718 On ch=1 n=f5 v=0
835718 On ch=1 n=f5 v=108
835718 On ch=1 n=f4 v=108
836492 On ch=1 n=f4 v=0
836492 On ch=1 n=f5 v=0
836492 On ch=1 n=f5 v=108
838090 On ch=1 n=a#5 v=107
838090 On ch=1 n=c#5 v=107
839950 On ch=1 n=c#5 v=0
839950 On ch=1 n=a#5 v=0
839950 On ch=1 n=a5 v=96
839950 On ch=1 n=c5 v=96
841842 On ch=1 n=f5 v=0
841842 On ch=1 n=e5 v=85
843778 On ch=1 n=c5 v=0
843778 On ch=1 n=a5 v=0
843778 On ch=1 n=a5 v=74
843778 On ch=1 n=c5 v=74
845764 On ch=1 n=c5 v=0
845764 On ch=1 n=a5 v=0
845764 On ch=1 n=g#5 v=72
845764 On ch=1 n=b4 v=72
847786 On ch=1 n=e5 v=0
847786 On ch=1 n=d#5 v=69
848784 On ch=1 n=d#5 v=0
848784 On ch=1 n=d#5 v=67
849268 On ch=1 n=d#5 v=0
849268 On ch=1 n=d#5 v=66
849768 On ch=1 n=d#5 v=0
849768 On ch=1 n=b4 v=0
849768 On ch=1 n=g#5 v=0
849768 On ch=1 n=g#5 v=65
849768 On ch=1 n=b4 v=65
849768 On ch=1 n=d#5 v=65
850836 On ch=1 n=d#5 v=0
850836 On ch=1 n=d#5 v=61
851878 On ch=1 n=d#5 v=0
851878 On ch=1 n=b4 v=0
851878 On ch=1 n=g#5 v=0
851878 On ch=1 n=g5 v=63
851878 On ch=1 n=a#4 v=63
851878 On ch=1 n=d#5 v=63
852960 On ch=1 n=d#5 v=0
852960 On ch=1 n=d#5 v=60
854044 On ch=1 n=a#4 v=0
854044 On ch=1 n=g5 v=0
854044 On ch=1 n=f#5 v=61
854044 On ch=1 n=c5 v=61
856192 On ch=1 n=c5 v=0
856192 On ch=1 n=f#5 v=0
856192 On ch=1 n=d#5 v=0
856192 On ch=1 n=f5 v=56
856192 On ch=1 n=d5 v=56
858244 On ch=1 n=d5 v=0
858244 On ch=1 n=f5 v=0
860282 On ch=1 n=b4 v=60
862280 On ch=1 n=b4 v=0
862280 On ch=1 n=d4 v=59
864256 On ch=1 n=d4 v=0
866440 On ch=1 n=b4 v=58
868506 On ch=1 n=b4 v=0
868506 On ch=1 n=d4 v=58
870606 On ch=1 n=d4 v=0
872738 On ch=1 n=b4 v=59
874830 On ch=1 n=b4 v=0
874830 On ch=1 n=d4 v=51
876970 On ch=1 n=d4 v=0
876970 On ch=1 n=b4 v=51
879060 On ch=1 n=b4 v=0
879060 On ch=1 n=d4 v=49
880972 On ch=1 n=d4 v=0
884274 On ch=1 n=a#4 v=57
884660 On ch=1 n=a#4 v=0
884660 On ch=1 n=b4 v=62
885030 On ch=1 n=b4 v=0
885030 On ch=1 n=a4 v=58
885394 On ch=1 n=a4 v=0
885394 On ch=1 n=a#4 v=58
885768 On ch=1 n=a#4 v=0
885768 On ch=1 n=d#4 v=65
886562 On ch=1 n=d#4 v=0
888196 On ch=1 n=d#4 v=58
888196 On ch=1 n=f#4 v=58
888196 On ch=1 n=a#4 v=58
888568 On ch=1 n=a#4 v=0
888568 On ch=1 n=f#4 v=0
888568 On ch=1 n=d#4 v=0
888568 On ch=1 n=a#4 v=57
888568 On ch=1 n=f#4 v=57
888568 On ch=1 n=d#4 v=57
888944 On ch=1 n=d#4 v=0
888944 On ch=1 n=f#4 v=0
888944 On ch=1 n=a#4 v=0
888944 On ch=1 n=a#4 v=56
888944 On ch=1 n=f#4 v=56
888944 On ch=1 n=d#4 v=56
889714 On ch=1 n=d#4 v=0
889714 On ch=1 n=f#4 v=0
889714 On ch=1 n=a#4 v=0
889714 On ch=1 n=a#4 v=59
889714 On ch=1 n=f#4 v=59
889714 On ch=1 n=d#4 v=59
890098 On ch=1 n=d#4 v=0
890098 On ch=1 n=f#4 v=0
890098 On ch=1 n=a#4 v=0
890098 On ch=1 n=a#4 v=58
890098 On ch=1 n=f#4 v=58
890098 On ch=1 n=d#4 v=58
890478 On ch=1 n=d#4 v=0
890478 On ch=1 n=f#4 v=0
890478 On ch=1 n=a#4 v=0
890478 On ch=1 n=a#4 v=58
890478 On ch=1 n=f#4 v=58
890478 On ch=1 n=d#4 v=58
891288 On ch=1 n=d#4 v=0
891288 On ch=1 n=f#4 v=0
891288 On ch=1 n=a#4 v=0
891288 On ch=1 n=a#4 v=57
891288 On ch=1 n=f#4 v=57
891288 On ch=1 n=d#4 v=57
891676 On ch=1 n=d#4 v=0
891676 On ch=1 n=f#4 v=0
891676 On ch=1 n=a#4 v=0
891676 On ch=1 n=a#4 v=57
891676 On ch=1 n=f#4 v=57
891676 On ch=1 n=d#4 v=57
892070 On ch=1 n=d#4 v=0
892070 On ch=1 n=f#4 v=0
892070 On ch=1 n=a#4 v=0
892070 On ch=1 n=a#4 v=58
892070 On ch=1 n=f#4 v=58
892070 On ch=1 n=d#4 v=58
892876 On ch=1 n=d#4 v=0
892876 On ch=1 n=f#4 v=0
892876 On ch=1 n=a#4 v=0
893636 On ch=1 n=a#4 v=60
894020 On ch=1 n=a#4 v=0
894020 On ch=1 n=b4 v=60
894386 On ch=1 n=b4 v=0
894386 On ch=1 n=a4 v=57
894770 On ch=1 n=a4 v=0
894770 On ch=1 n=a#4 v=65
895148 On ch=1 n=a#4 v=0
895148 On ch=1 n=d#4 v=61
895948 On ch=1 n=d#4 v=0
897594 On ch=1 n=b4 v=56
897594 On ch=1 n=g#4 v=56
897594 On ch=1 n=f4 v=56
897978 On ch=1 n=f4 v=0
897978 On ch=1 n=g#4 v=0
897978 On ch=1 n=b4 v=0
897978 On ch=1 n=b4 v=55
897978 On ch=1 n=g#4 v=55
897978 On ch=1 n=f4 v=55
898356 On ch=1 n=f4 v=0
898356 On ch=1 n=g#4 v=0
898356 On ch=1 n=b4 v=0
898356 On ch=1 n=b4 v=60
898356 On ch=1 n=g#4 v=60
898356 On ch=1 n=f4 v=60
899138 On ch=1 n=f4 v=0
899138 On ch=1 n=g#4 v=0
899138 On ch=1 n=b4 v=0
899138 On ch=1 n=b4 v=65
899138 On ch=1 n=g#4 v=65
899138 On ch=1 n=f4 v=65
899518 On ch=1 n=f4 v=0
899518 On ch=1 n=g#4 v=0
899518 On ch=1 n=b4 v=0
899518 On ch=1 n=b4 v=65
899518 On ch=1 n=g#4 v=65
899518 On ch=1 n=f4 v=65
899914 On ch=1 n=f4 v=0
899914 On ch=1 n=g#4 v=0
899914 On ch=1 n=b4 v=0
899914 On ch=1 n=b4 v=65
899914 On ch=1 n=g#4 v=65
899914 On ch=1 n=f4 v=65
900708 On ch=1 n=f4 v=0
900708 On ch=1 n=g#4 v=0
900708 On ch=1 n=b4 v=0
900708 On ch=1 n=b4 v=65
900708 On ch=1 n=g#4 v=65
900708 On ch=1 n=f4 v=65
901086 On ch=1 n=f4 v=0
901086 On ch=1 n=g#4 v=0
901086 On ch=1 n=b4 v=0
901086 On ch=1 n=b4 v=65
901086 On ch=1 n=g#4 v=65
901086 On ch=1 n=f4 v=65
901538 On ch=1 n=f4 v=0
901538 On ch=1 n=g#4 v=0
901538 On ch=1 n=b4 v=0
901538 On ch=1 n=b4 v=65
901538 On ch=1 n=g#4 v=65
901538 On ch=1 n=f4 v=65
902374 On ch=1 n=f4 v=0
902374 On ch=1 n=g#4 v=0
902374 On ch=1 n=b4 v=0
903322 On ch=1 n=b4 v=54
903700 On ch=1 n=b4 v=0
903700 On ch=1 n=c#5 v=75
904082 On ch=1 n=c#5 v=0
904082 On ch=1 n=a#4 v=76
904456 On ch=1 n=a#4 v=0
904456 On ch=1 n=b4 v=76
904860 On ch=1 n=b4 v=0
904860 On ch=1 n=d#4 v=78
905692 On ch=1 n=d#4 v=0
907246 On ch=1 n=b4 v=78
907246 On ch=1 n=g#4 v=78
907246 On ch=1 n=f4 v=78
907616 On ch=1 n=f4 v=0
907616 On ch=1 n=g#4 v=0
907616 On ch=1 n=b4 v=0
907616 On ch=1 n=b4 v=78
907616 On ch=1 n=g#4 v=78
907616 On ch=1 n=f4 v=78
907988 On ch=1 n=f4 v=0
907988 On ch=1 n=g#4 v=0
907988 On ch=1 n=b4 v=0
907988 On ch=1 n=b4 v=78
907988 On ch=1 n=g#4 v=78
907988 On ch=1 n=f4 v=78
908774 On ch=1 n=f4 v=0
908774 On ch=1 n=g#4 v=0
908774 On ch=1 n=b4 v=0
908774 On ch=1 n=b4 v=78
908774 On ch=1 n=g#4 v=78
908774 On ch=1 n=f4 v=78
909134 On ch=1 n=f4 v=0
909134 On ch=1 n=g#4 v=0
909134 On ch=1 n=b4 v=0
909134 On ch=1 n=b4 v=78
909134 On ch=1 n=g#4 v=78
909134 On ch=1 n=f4 v=78
909490 On ch=1 n=f4 v=0
909490 On ch=1 n=g#4 v=0
909490 On ch=1 n=b4 v=0
909490 On ch=1 n=b4 v=78
909490 On ch=1 n=g#4 v=78
909490 On ch=1 n=f4 v=78
910286 On ch=1 n=f4 v=0
910286 On ch=1 n=g#4 v=0
910286 On ch=1 n=b4 v=0
910286 On ch=1 n=b4 v=80
910286 On ch=1 n=g#4 v=80
910286 On ch=1 n=f4 v=80
910652 On ch=1 n=f4 v=0
910652 On ch=1 n=g#4 v=0
910652 On ch=1 n=b4 v=0
910652 On ch=1 n=b4 v=80
910652 On ch=1 n=g#4 v=80
910652 On ch=1 n=f4 v=80
911074 On ch=1 n=f4 v=0
911074 On ch=1 n=g#4 v=0
911074 On ch=1 n=b4 v=0
911074 On ch=1 n=b4 v=84
911074 On ch=1 n=g#4 v=84
911074 On ch=1 n=f4 v=84
911840 On ch=1 n=f4 v=0
911840 On ch=1 n=g#4 v=0
911840 On ch=1 n=b4 v=0
912766 On ch=1 n=b4 v=84
913148 On ch=1 n=b4 v=0
913148 On ch=1 n=c#5 v=85
913510 On ch=1 n=c#5 v=0
913510 On ch=1 n=a#4 v=87
913880 On ch=1 n=a#4 v=0
913880 On ch=1 n=b4 v=88
914276 On ch=1 n=b4 v=0
914276 On ch=1 n=d#4 v=89
915080 On ch=1 n=d#4 v=0
915080 On ch=1 n=b4 v=89
915080 On ch=1 n=g#4 v=89
915080 On ch=1 n=f4 v=89
915458 On ch=1 n=f4 v=0
915458 On ch=1 n=g#4 v=0
915458 On ch=1 n=b4 v=0
915458 On ch=1 n=b4 v=89
915458 On ch=1 n=g#4 v=89
915458 On ch=1 n=f4 v=89
915832 On ch=1 n=f4 v=0
915832 On ch=1 n=g#4 v=0
915832 On ch=1 n=b4 v=0
915832 On ch=1 n=b4 v=89
915832 On ch=1 n=g#4 v=89
915832 On ch=1 n=f4 v=89
916606 On ch=1 n=f4 v=0
916606 On ch=1 n=g#4 v=0
916606 On ch=1 n=b4 v=0
916606 On ch=1 n=f5 v=90
916606 On ch=1 n=d#5 v=90
916606 On ch=1 n=b4 v=90
916606 On ch=1 n=f4 v=90
916618 Par ch=1 c=64 v=127
916972 On ch=1 n=f4 v=0
916972 On ch=1 n=b4 v=0
916972 On ch=1 n=d#5 v=0
916972 On ch=1 n=f5 v=0
916972 On ch=1 n=f5 v=90
916972 On ch=1 n=d#5 v=90
916972 On ch=1 n=b4 v=90
916972 On ch=1 n=f4 v=90
917342 On ch=1 n=f4 v=0
917342 On ch=1 n=b4 v=0
917342 On ch=1 n=d#5 v=0
917342 On ch=1 n=f5 v=0
917342 On ch=1 n=f5 v=90
917342 On ch=1 n=d#5 v=90
917342 On ch=1 n=b4 v=90
917342 On ch=1 n=f4 v=90
918118 On ch=1 n=f4 v=0
918118 On ch=1 n=b4 v=0
918118 On ch=1 n=d#5 v=0
918118 On ch=1 n=f5 v=0
918118 On ch=1 n=f6 v=94
918118 On ch=1 n=d#6 v=94
918118 On ch=1 n=b5 v=94
918118 On ch=1 n=f5 v=94
918484 On ch=1 n=f5 v=0
918484 On ch=1 n=b5 v=0
918484 On ch=1 n=d#6 v=0
918484 On ch=1 n=f6 v=0
918484 On ch=1 n=f6 v=95
918484 On ch=1 n=d#6 v=95
918484 On ch=1 n=b5 v=95
918484 On ch=1 n=f5 v=95
918846 On ch=1 n=f5 v=0
918846 On ch=1 n=b5 v=0
918846 On ch=1 n=d#6 v=0
918846 On ch=1 n=f6 v=0
918846 On ch=1 n=f6 v=96
918846 On ch=1 n=d#6 v=96
918846 On ch=1 n=b5 v=96
918846 On ch=1 n=f5 v=96
919610 On ch=1 n=f5 v=0
919610 On ch=1 n=b5 v=0
919610 On ch=1 n=d#6 v=0
919610 On ch=1 n=f6 v=0
919610 On ch=1 n=f6 v=97
919610 On ch=1 n=d#6 v=97
919610 On ch=1 n=b5 v=97
919610 On ch=1 n=f5 v=97
919976 On ch=1 n=f5 v=0
919976 On ch=1 n=b5 v=0
919976 On ch=1 n=d#6 v=0
919976 On ch=1 n=f6 v=0
919976 On ch=1 n=f6 v=97
919976 On ch=1 n=d#6 v=97
919976 On ch=1 n=b5 v=97
919976 On ch=1 n=f5 v=97
920340 On ch=1 n=f5 v=0
920340 On ch=1 n=b5 v=0
920340 On ch=1 n=d#6 v=0
920340 On ch=1 n=f6 v=0
920340 On ch=1 n=f6 v=99
920340 On ch=1 n=d#6 v=99
920340 On ch=1 n=b5 v=99
920340 On ch=1 n=f5 v=99
921108 On ch=1 n=f5 v=0
921108 On ch=1 n=b5 v=0
921108 On ch=1 n=d#6 v=0
921108 On ch=1 n=f6 v=0
921108 On ch=1 n=f6 v=100
921108 On ch=1 n=d#6 v=100
921108 On ch=1 n=b5 v=100
921108 On ch=1 n=f5 v=100
921474 On ch=1 n=f5 v=0
921474 On ch=1 n=b5 v=0
921474 On ch=1 n=d#6 v=0
921474 On ch=1 n=f6 v=0
921474 On ch=1 n=f6 v=103
921474 On ch=1 n=d#6 v=103
921474 On ch=1 n=b5 v=103
921474 On ch=1 n=f5 v=103
921878 On ch=1 n=f5 v=0
921878 On ch=1 n=b5 v=0
921878 On ch=1 n=d#6 v=0
921878 On ch=1 n=f6 v=0
921878 Par ch=1 c=64 v=0
921878 On ch=1 n=a#6 v=103
921878 On ch=1 n=f6 v=103
921878 On ch=1 n=a#5 v=103
921890 Par ch=1 c=64 v=127
924908 On ch=1 n=a#5 v=0
924908 On ch=1 n=f6 v=0
924908 On ch=1 n=a#6 v=0
924908 Par ch=1 c=64 v=0
924908 On ch=1 n=d#5 v=111
926472 On ch=1 n=d#5 v=0
926472 On ch=1 n=f5 v=111
926484 Par ch=1 c=64 v=127
926570 On ch=1 n=f5 v=0
926570 On ch=1 n=d#5 v=111
926668 On ch=1 n=d#5 v=0
926668 On ch=1 n=f5 v=111
926766 On ch=1 n=f5 v=0
926766 On ch=1 n=d#5 v=111
926822 On ch=1 n=d#5 v=0
926822 On ch=1 n=f5 v=111
926912 On ch=1 n=f5 v=0
926912 On ch=1 n=d#5 v=111
927002 On ch=1 n=d#5 v=0
927002 On ch=1 n=f5 v=111
927092 On ch=1 n=f5 v=0
927092 On ch=1 n=d#5 v=111
927166 On ch=1 n=d#5 v=0
927166 On ch=1 n=f5 v=111
927254 On ch=1 n=f5 v=0
927254 On ch=1 n=d#5 v=111
927340 On ch=1 n=d#5 v=0
927340 On ch=1 n=f5 v=111
927428 On ch=1 n=f5 v=0
927428 On ch=1 n=d#5 v=111
927528 On ch=1 n=d#5 v=0
927528 On ch=1 n=f5 v=112
927618 On ch=1 n=f5 v=0
927618 On ch=1 n=d#5 v=112
927706 On ch=1 n=d#5 v=0
927706 On ch=1 n=f5 v=112
927794 On ch=1 n=f5 v=0
927794 On ch=1 n=d#5 v=112
927922 On ch=1 n=d#5 v=0
927922 On ch=1 n=f5 v=116
928016 On ch=1 n=f5 v=0
928016 On ch=1 n=d#5 v=116
928110 On ch=1 n=d#5 v=0
928110 On ch=1 n=f5 v=116
928204 On ch=1 n=f5 v=0
928204 On ch=1 n=d#5 v=116
928290 On ch=1 n=d#5 v=0
928290 On ch=1 n=f5 v=118
928384 On ch=1 n=f5 v=0
928384 On ch=1 n=d#5 v=118
928480 On ch=1 n=d#5 v=0
928480 On ch=1 n=f5 v=118
928574 On ch=1 n=f5 v=0
928574 On ch=1 n=d#5 v=118
928668 On ch=1 n=d#5 v=0
928668 On ch=1 n=f5 v=121
928760 On ch=1 n=f5 v=0
928760 On ch=1 n=d#5 v=121
928854 On ch=1 n=d#5 v=0
928854 On ch=1 n=f5 v=121
928946 On ch=1 n=f5 v=0
928946 On ch=1 n=d#5 v=121
929058 On ch=1 n=d#5 v=0
929058 On ch=1 n=f5 v=124
929154 On ch=1 n=f5 v=0
929154 On ch=1 n=d#5 v=124
929250 On ch=1 n=d#5 v=0
929250 On ch=1 n=d5 v=124
929346 On ch=1 n=d5 v=0
929346 On ch=1 n=d#5 v=124
929442 On ch=1 n=d#5 v=0
929442 Par ch=1 c=64 v=0
929442 On ch=1 n=f5 v=127
929552 On ch=1 n=f5 v=0
929552 On ch=1 n=f#5 v=127
929660 On ch=1 n=f#5 v=0
929660 On ch=1 n=g#5 v=127
929770 On ch=1 n=g#5 v=0
929770 On ch=1 n=a#5 v=127
929860 On ch=1 n=a#5 v=0
929860 On ch=1 n=b5 v=127
929966 On ch=1 n=b5 v=0
929966 On ch=1 n=c#6 v=127
930072 On ch=1 n=c#6 v=0
930072 On ch=1 n=d#6 v=127
930182 On ch=1 n=d#6 v=0
930182 On ch=1 n=f6 v=127
930274 On ch=1 n=f6 v=0
930274 On ch=1 n=f#6 v=127
930366 On ch=1 n=f#6 v=0
930366 On ch=1 n=g#6 v=127
930458 On ch=1 n=g#6 v=0
930458 On ch=1 n=a#6 v=127
930562 On ch=1 n=a#6 v=0
930562 On ch=1 n=b6 v=127
930656 On ch=1 n=b6 v=0
930656 On ch=1 n=c#7 v=127
930750 On ch=1 n=c#7 v=0
930750 On ch=1 n=d#7 v=127
930844 On ch=1 n=d#7 v=0
930844 On ch=1 n=f7 v=127
930956 On ch=1 n=f7 v=0
930956 On ch=1 n=f#7 v=127
930968 Par ch=1 c=64 v=127
932882 On ch=1 n=f#7 v=0
932882 On ch=1 n=d#7 v=107
933278 On ch=1 n=d#7 v=0
933278 On ch=1 n=a#6 v=105
933656 On ch=1 n=a#6 v=0
933656 On ch=1 n=f#6 v=104
934032 On ch=1 n=f#6 v=0
934032 Par ch=1 c=64 v=0
934032 On ch=1 n=f6 v=102
934126 On ch=1 n=f6 v=0
934126 On ch=1 n=f#6 v=102
934220 On ch=1 n=f#6 v=0
934220 On ch=1 n=f6 v=102
934406 On ch=1 n=f6 v=0
934406 On ch=1 n=e6 v=102
934784 On ch=1 n=e6 v=0
934784 On ch=1 n=f6 v=102
935198 On ch=1 n=f6 v=0
935396 On ch=1 n=a#6 v=102
935562 On ch=1 n=a#6 v=0
935562 On ch=1 n=d#6 v=102
938672 On ch=1 n=d#6 v=0
939456 On ch=1 n=d6 v=72
939828 On ch=1 n=d6 v=0
939828 On ch=1 n=d#6 v=67
940208 On ch=1 n=d#6 v=0
940208 On ch=1 n=f#6 v=65
940576 On ch=1 n=f#6 v=0
940576 On ch=1 n=f6 v=72
940936 On ch=1 n=f6 v=0
940936 On ch=1 n=f6 v=68
941318 On ch=1 n=f6 v=0
941318 On ch=1 n=c6 v=65
941718 On ch=1 n=c6 v=0
941718 On ch=1 n=b5 v=67
943650 On ch=1 n=b5 v=0
943650 On ch=1 n=a#5 v=69
944034 On ch=1 n=a#5 v=0
944034 On ch=1 n=d6 v=76
944402 On ch=1 n=d6 v=0
944402 On ch=1 n=d#6 v=78
944772 On ch=1 n=d#6 v=0
944772 On ch=1 n=f#6 v=80
945132 On ch=1 n=f#6 v=0
945132 On ch=1 n=f6 v=81
945498 On ch=1 n=f6 v=0
945498 On ch=1 n=f6 v=83
945866 On ch=1 n=f6 v=0
945866 On ch=1 n=c6 v=83
946244 On ch=1 n=c6 v=0
946244 On ch=1 n=b5 v=84
948200 On ch=1 n=b5 v=0
948200 On ch=1 n=a#5 v=88
948584 On ch=1 n=a#5 v=0
948584 On ch=1 n=d6 v=88
948974 On ch=1 n=d6 v=0
948974 On ch=1 n=d#6 v=90
949340 On ch=1 n=d#6 v=0
949340 On ch=1 n=f#6 v=91
949690 On ch=1 n=f#6 v=0
949690 On ch=1 n=f6 v=92
950038 On ch=1 n=f6 v=0
950038 On ch=1 n=f6 v=92
950414 On ch=1 n=f6 v=0
950414 On ch=1 n=c6 v=95
950794 On ch=1 n=c6 v=0
950794 On ch=1 n=g#6 v=98
951178 On ch=1 n=g#6 v=0
951178 On ch=1 n=g6 v=99
951550 On ch=1 n=g6 v=0
951550 On ch=1 n=g6 v=99
951926 On ch=1 n=g6 v=0
951926 On ch=1 n=d#6 v=99
952292 On ch=1 n=d#6 v=0
952292 On ch=1 n=a#6 v=102
952680 On ch=1 n=a#6 v=0
952680 On ch=1 n=g#6 v=109
953018 On ch=1 n=g#6 v=0
953018 On ch=1 n=g#6 v=107
953386 On ch=1 n=g#6 v=0
953386 On ch=1 n=d#6 v=109
953758 On ch=1 n=d#6 v=0
953758 On ch=1 n=b6 v=110
954118 On ch=1 n=b6 v=0
954118 On ch=1 n=a#6 v=111
954488 On ch=1 n=a#6 v=0
954488 On ch=1 n=a#6 v=107
954842 On ch=1 n=a#6 v=0
954842 On ch=1 n=f6 v=107
955214 On ch=1 n=f6 v=0
955214 On ch=1 n=b6 v=116
955570 On ch=1 n=b6 v=0
955570 On ch=1 n=a#6 v=110
955948 On ch=1 n=a#6 v=0
955948 On ch=1 n=a#6 v=111
956294 On ch=1 n=a#6 v=0
956294 On ch=1 n=a6 v=107
956632 On ch=1 n=a6 v=0
956632 On ch=1 n=a#6 v=105
956982 On ch=1 n=a#6 v=0
956982 On ch=1 n=b6 v=107
957362 On ch=1 n=b6 v=0
957362 On ch=1 n=a#6 v=105
957732 On ch=1 n=a#6 v=0
957732 On ch=1 n=f#7 v=105
958084 On ch=1 n=f#7 v=0
958084 On ch=1 n=f#7 v=116
958416 On ch=1 n=f#7 v=0
958416 On ch=1 n=f7 v=110
958760 On ch=1 n=f7 v=0
958760 On ch=1 n=f7 v=107
959168 On ch=1 n=f7 v=0
959168 On ch=1 n=b6 v=114
959544 On ch=1 n=b6 v=0
959544 On ch=1 n=b6 v=113
961352 On ch=1 n=b6 v=0
961352 On ch=1 n=a#6 v=105
961744 On ch=1 n=a#6 v=0
961744 On ch=1 n=d7 v=105
962066 On ch=1 n=d7 v=0
962066 On ch=1 n=d#7 v=108
962482 On ch=1 n=d#7 v=0
962482 On ch=1 n=f#7 v=123
962826 On ch=1 n=f#7 v=0
962826 On ch=1 n=f7 v=109
963174 On ch=1 n=f7 v=0
963174 On ch=1 n=f7 v=105
963548 On ch=1 n=f7 v=0
963548 On ch=1 n=b6 v=105
963928 On ch=1 n=b6 v=0
963928 On ch=1 n=b6 v=103
965840 On ch=1 n=b6 v=0
965840 On ch=1 n=a#6 v=94
966202 On ch=1 n=a#6 v=0
966202 On ch=1 n=a#6 v=95
966592 On ch=1 n=a#6 v=0
966592 On ch=1 n=e7 v=96
967002 On ch=1 n=e7 v=0
967002 On ch=1 n=e7 v=103
967358 On ch=1 n=e7 v=0
967358 On ch=1 n=d#7 v=94
967716 On ch=1 n=d#7 v=0
967716 On ch=1 n=d#7 v=94
968180 On ch=1 n=d#7 v=0
968180 On ch=1 n=g#6 v=94
968564 On ch=1 n=g#6 v=0
968564 On ch=1 n=f7 v=98
968944 On ch=1 n=f7 v=0
968944 On ch=1 n=d#7 v=94
969334 On ch=1 n=d#7 v=0
969334 On ch=1 n=d#7 v=94
969740 On ch=1 n=d#7 v=0
969740 On ch=1 n=f#6 v=94
970146 On ch=1 n=f#6 v=0
970146 On ch=1 n=f7 v=94
970548 On ch=1 n=f7 v=0
970548 On ch=1 n=d#7 v=94
970952 On ch=1 n=d#7 v=0
970952 On ch=1 n=d#7 v=94
971372 On ch=1 n=d#7 v=0
971372 On ch=1 n=f6 v=94
972860 On ch=1 n=f6 v=0
973350 On ch=1 n=b5 v=73
973802 On ch=1 n=b5 v=0
973802 On ch=1 n=b5 v=74
974254 On ch=1 n=b5 v=0
974254 On ch=1 n=d5 v=71
974748 On ch=1 n=d5 v=0
974748 On ch=1 n=d5 v=70
979350 On ch=1 n=d5 v=0
979870 On ch=1 n=c6 v=60
980380 On ch=1 n=c6 v=0
980380 On ch=1 n=c6 v=62
980908 On ch=1 n=c6 v=0
980908 On ch=1 n=d#5 v=58
981444 On ch=1 n=d#5 v=0
981444 On ch=1 n=d#5 v=65
985966 On ch=1 n=d#5 v=0
986530 On ch=1 n=f#6 v=50
987068 On ch=1 n=f#6 v=0
987068 On ch=1 n=f#6 v=57
987630 On ch=1 n=f#6 v=0
987630 On ch=1 n=f#5 v=54
988160 On ch=1 n=f#5 v=0
988160 On ch=1 n=f#5 v=52
990904 On ch=1 n=f#5 v=0
990904 On ch=1 n=f#5 v=40
991524 On ch=1 n=f#5 v=0
991524 On ch=1 n=f5 v=50
992144 On ch=1 n=f5 v=0
992144 On ch=1 n=d#5 v=42
992738 On ch=1 n=d#5 v=0
992738 On ch=1 n=d#5 v=58
993386 On ch=1 n=d#5 v=0
993386 On ch=1 n=b5 v=46
994058 On ch=1 n=b5 v=0
994058 On ch=1 n=b5 v=41
994698 On ch=1 n=b5 v=0
994698 On ch=1 n=d5 v=47
995422 On ch=1 n=d5 v=0
995422 On ch=1 n=d5 v=48
996938 On ch=1 n=g#4 v=30
998894 On ch=1 n=g#4 v=0
998894 On ch=1 n=d5 v=0
998894 On ch=1 n=d#5 v=39
998894 On ch=1 n=f#4 v=39
1000778 On ch=1 n=f#4 v=0
1000778 On ch=1 n=d#5 v=0
1000778 Meta TrkEnd
TrkEnd
MTrk
0 SeqSpec 43 00 01 00
0 Meta TrkName "Melodie main gauche"
4 PrCh ch=2 p=0
4 Par ch=2 c=10 v=55
4 Par ch=2 c=7 v=120
4 On ch=2 n=a#3 v=65
354 On ch=2 n=a#3 v=0
354 On ch=2 n=b3 v=60
680 On ch=2 n=b3 v=0
680 On ch=2 n=a3 v=65
1012 On ch=2 n=a3 v=0
1012 On ch=2 n=a#3 v=65
1354 On ch=2 n=a#3 v=0
1354 On ch=2 n=d#3 v=65
2248 On ch=2 n=d#3 v=0
4290 On ch=2 n=a#3 v=41
4290 On ch=2 n=d#3 v=41
4716 On ch=2 n=d#3 v=0
4716 On ch=2 n=a#3 v=0
4716 On ch=2 n=a#3 v=45
4716 On ch=2 n=d#3 v=45
5108 On ch=2 n=d#3 v=0
5108 On ch=2 n=a#3 v=0
5108 On ch=2 n=a#3 v=56
5108 On ch=2 n=d#3 v=56
5958 On ch=2 n=d#3 v=0
5958 On ch=2 n=a#3 v=0
5958 On ch=2 n=a#3 v=50
5958 On ch=2 n=d#3 v=50
6372 On ch=2 n=d#3 v=0
6372 On ch=2 n=a#3 v=0
6372 On ch=2 n=a#3 v=55
6372 On ch=2 n=d#3 v=55
6772 On ch=2 n=d#3 v=0
6772 On ch=2 n=a#3 v=0
6772 On ch=2 n=a#3 v=65
6772 On ch=2 n=d#3 v=65
7682 On ch=2 n=d#3 v=0
7682 On ch=2 n=a#3 v=0
7682 On ch=2 n=a#3 v=65
7682 On ch=2 n=d#3 v=65
8090 On ch=2 n=d#3 v=0
8090 On ch=2 n=a#3 v=0
8090 On ch=2 n=a#3 v=65
8090 On ch=2 n=d#3 v=65
8638 On ch=2 n=d#3 v=0
8638 On ch=2 n=a#3 v=0
8638 On ch=2 n=a#3 v=67
8638 On ch=2 n=d#3 v=67
9932 On ch=2 n=d#3 v=0
9932 On ch=2 n=a#3 v=0
11178 On ch=2 n=a#3 v=47
11554 On ch=2 n=a#3 v=0
11554 On ch=2 n=b3 v=65
11918 On ch=2 n=b3 v=0
11918 On ch=2 n=a3 v=65
12264 On ch=2 n=a3 v=0
12264 On ch=2 n=a#3 v=65
12694 On ch=2 n=a#3 v=0
12694 On ch=2 n=d#3 v=48
13894 On ch=2 n=d#3 v=0
15576 On ch=2 n=d#4 v=51
15576 On ch=2 n=g#3 v=51
15576 On ch=2 n=d#3 v=51
15940 On ch=2 n=d#3 v=0
15940 On ch=2 n=g#3 v=0
15940 On ch=2 n=d#4 v=0
15940 On ch=2 n=d#4 v=65
15940 On ch=2 n=g#3 v=65
15940 On ch=2 n=d#3 v=65
16304 On ch=2 n=d#3 v=0
16304 On ch=2 n=g#3 v=0
16304 On ch=2 n=d#4 v=0
16304 On ch=2 n=d#4 v=64
16304 On ch=2 n=g#3 v=64
16304 On ch=2 n=d#3 v=64
17146 On ch=2 n=d#3 v=0
17146 On ch=2 n=g#3 v=0
17146 On ch=2 n=d#4 v=0
17146 On ch=2 n=d#4 v=55
17146 On ch=2 n=g#3 v=55
17146 On ch=2 n=d#3 v=55
17530 On ch=2 n=d#3 v=0
17530 On ch=2 n=g#3 v=0
17530 On ch=2 n=d#4 v=0
17530 On ch=2 n=d#4 v=58
17530 On ch=2 n=g#3 v=58
17530 On ch=2 n=d#3 v=58
17918 On ch=2 n=d#3 v=0
17918 On ch=2 n=g#3 v=0
17918 On ch=2 n=d#4 v=0
17918 On ch=2 n=d#4 v=59
17918 On ch=2 n=g#3 v=59
17918 On ch=2 n=d#3 v=59
18744 On ch=2 n=d#3 v=0
18744 On ch=2 n=g#3 v=0
18744 On ch=2 n=d#4 v=0
18744 On ch=2 n=d#4 v=65
18744 On ch=2 n=g#3 v=65
18744 On ch=2 n=d#3 v=65
19126 On ch=2 n=d#3 v=0
19126 On ch=2 n=g#3 v=0
19126 On ch=2 n=d#4 v=0
19126 On ch=2 n=d#4 v=65
19126 On ch=2 n=g#3 v=65
19126 On ch=2 n=d#3 v=65
19600 On ch=2 n=d#3 v=0
19600 On ch=2 n=g#3 v=0
19600 On ch=2 n=d#4 v=0
19600 On ch=2 n=d#4 v=65
19600 On ch=2 n=g#3 v=65
19600 On ch=2 n=d#3 v=65
20438 On ch=2 n=d#3 v=0
20438 On ch=2 n=g#3 v=0
20438 On ch=2 n=d#4 v=0
21604 On ch=2 n=b3 v=77
21962 On ch=2 n=b3 v=0
21962 On ch=2 n=c#4 v=77
22316 On ch=2 n=c#4 v=0
22316 On ch=2 n=a#3 v=77
22702 On ch=2 n=a#3 v=0
22702 On ch=2 n=b3 v=77
23084 On ch=2 n=b3 v=0
23084 On ch=2 n=d#3 v=77
23870 On ch=2 n=d#3 v=0
25464 On ch=2 n=d#4 v=70
25464 On ch=2 n=g#3 v=70
25464 On ch=2 n=d#3 v=70
25850 On ch=2 n=d#3 v=0
25850 On ch=2 n=g#3 v=0
25850 On ch=2 n=d#4 v=0
25850 On ch=2 n=d#4 v=71
25850 On ch=2 n=g#3 v=71
25850 On ch=2 n=d#3 v=71
26230 On ch=2 n=d#3 v=0
26230 On ch=2 n=g#3 v=0
26230 On ch=2 n=d#4 v=0
26230 On ch=2 n=d#4 v=77
26230 On ch=2 n=g#3 v=77
26230 On ch=2 n=d#3 v=77
27014 On ch=2 n=d#3 v=0
27014 On ch=2 n=g#3 v=0
27014 On ch=2 n=d#4 v=0
27014 On ch=2 n=d#4 v=70
27014 On ch=2 n=g#3 v=70
27014 On ch=2 n=d#3 v=70
27384 On ch=2 n=d#3 v=0
27384 On ch=2 n=g#3 v=0
27384 On ch=2 n=d#4 v=0
27384 On ch=2 n=d#4 v=70
27384 On ch=2 n=g#3 v=70
27384 On ch=2 n=d#3 v=70
27778 On ch=2 n=d#3 v=0
27778 On ch=2 n=g#3 v=0
27778 On ch=2 n=d#4 v=0
27778 On ch=2 n=d#4 v=67
27778 On ch=2 n=g#3 v=67
27778 On ch=2 n=d#3 v=67
28584 On ch=2 n=d#3 v=0
28584 On ch=2 n=g#3 v=0
28584 On ch=2 n=d#4 v=0
28584 On ch=2 n=d#4 v=77
28584 On ch=2 n=g#3 v=77
28584 On ch=2 n=d#3 v=77
28974 On ch=2 n=d#3 v=0
28974 On ch=2 n=g#3 v=0
28974 On ch=2 n=d#4 v=0
28974 On ch=2 n=d#4 v=77
28974 On ch=2 n=g#3 v=77
28974 On ch=2 n=d#3 v=77
29382 On ch=2 n=d#3 v=0
29382 On ch=2 n=g#3 v=0
29382 On ch=2 n=d#4 v=0
29382 On ch=2 n=d#4 v=77
29382 On ch=2 n=g#3 v=77
29382 On ch=2 n=d#3 v=77
30546 On ch=2 n=d#3 v=0
30546 On ch=2 n=g#3 v=0
30546 On ch=2 n=d#4 v=0
31370 On ch=2 n=b3 v=91
31752 On ch=2 n=b3 v=0
31752 On ch=2 n=c#4 v=95
32108 On ch=2 n=c#4 v=0
32108 On ch=2 n=a#3 v=95
32468 On ch=2 n=a#3 v=0
32468 On ch=2 n=b3 v=96
32814 On ch=2 n=b3 v=0
32814 On ch=2 n=d#3 v=96
33624 On ch=2 n=d#3 v=0
33624 On ch=2 n=d#4 v=96
33624 On ch=2 n=b3 v=96
33624 On ch=2 n=g#3 v=96
33624 On ch=2 n=d#3 v=96
33970 On ch=2 n=d#3 v=0
33970 On ch=2 n=g#3 v=0
33970 On ch=2 n=b3 v=0
33970 On ch=2 n=d#4 v=0
33970 On ch=2 n=d#4 v=96
33970 On ch=2 n=b3 v=96
33970 On ch=2 n=g#3 v=96
33970 On ch=2 n=d#3 v=96
34332 On ch=2 n=d#3 v=0
34332 On ch=2 n=g#3 v=0
34332 On ch=2 n=b3 v=0
34332 On ch=2 n=d#4 v=0
34332 On ch=2 n=d#4 v=96
34332 On ch=2 n=b3 v=96
34332 On ch=2 n=g#3 v=96
34332 On ch=2 n=d#3 v=96
35068 On ch=2 n=d#3 v=0
35068 On ch=2 n=g#3 v=0
35068 On ch=2 n=b3 v=0
35068 On ch=2 n=d#4 v=0
35068 On ch=2 n=d#4 v=96
35068 On ch=2 n=b3 v=96
35068 On ch=2 n=g#3 v=96
35068 On ch=2 n=d#3 v=96
35080 Par ch=2 c=64 v=127
35386 On ch=2 n=d#3 v=0
35386 On ch=2 n=g#3 v=0
35386 On ch=2 n=b3 v=0
35386 On ch=2 n=d#4 v=0
35386 On ch=2 n=d#4 v=96
35386 On ch=2 n=b3 v=96
35386 On ch=2 n=g#3 v=96
35386 On ch=2 n=d#3 v=96
35736 On ch=2 n=d#3 v=0
35736 On ch=2 n=g#3 v=0
35736 On ch=2 n=b3 v=0
35736 On ch=2 n=d#4 v=0
35736 On ch=2 n=d#4 v=96
35736 On ch=2 n=b3 v=96
35736 On ch=2 n=g#3 v=96
35736 On ch=2 n=d#3 v=96
36450 On ch=2 n=d#3 v=0
36450 On ch=2 n=g#3 v=0
36450 On ch=2 n=b3 v=0
36450 On ch=2 n=d#4 v=0
36450 On ch=2 n=d#5 v=96
36450 On ch=2 n=b4 v=96
36450 On ch=2 n=g#4 v=96
36450 On ch=2 n=d#4 v=96
36786 On ch=2 n=d#4 v=0
36786 On ch=2 n=g#4 v=0
36786 On ch=2 n=b4 v=0
36786 On ch=2 n=d#5 v=0
36786 On ch=2 n=d#5 v=96
36786 On ch=2 n=b4 v=96
36786 On ch=2 n=g#4 v=96
36786 On ch=2 n=d#4 v=96
37112 On ch=2 n=d#4 v=0
37112 On ch=2 n=g#4 v=0
37112 On ch=2 n=b4 v=0
37112 On ch=2 n=d#5 v=0
37112 On ch=2 n=d#5 v=96
37112 On ch=2 n=b4 v=96
37112 On ch=2 n=g#4 v=96
37112 On ch=2 n=d#4 v=96
37812 On ch=2 n=d#4 v=0
37812 On ch=2 n=g#4 v=0
37812 On ch=2 n=b4 v=0
37812 On ch=2 n=d#5 v=0
37812 On ch=2 n=d#5 v=96
37812 On ch=2 n=b4 v=96
37812 On ch=2 n=g#4 v=96
37812 On ch=2 n=d#4 v=96
38128 On ch=2 n=d#4 v=0
38128 On ch=2 n=g#4 v=0
38128 On ch=2 n=b4 v=0
38128 On ch=2 n=d#5 v=0
38128 On ch=2 n=d#5 v=96
38128 On ch=2 n=b4 v=96
38128 On ch=2 n=g#4 v=96
38128 On ch=2 n=d#4 v=96
38464 On ch=2 n=d#4 v=0
38464 On ch=2 n=g#4 v=0
38464 On ch=2 n=b4 v=0
38464 On ch=2 n=d#5 v=0
38464 On ch=2 n=d#5 v=96
38464 On ch=2 n=b4 v=96
38464 On ch=2 n=g#4 v=96
38464 On ch=2 n=d#4 v=96
39174 On ch=2 n=d#4 v=0
39174 On ch=2 n=g#4 v=0
39174 On ch=2 n=b4 v=0
39174 On ch=2 n=d#5 v=0
39174 On ch=2 n=d#5 v=96
39174 On ch=2 n=b4 v=96
39174 On ch=2 n=g#4 v=96
39174 On ch=2 n=d#4 v=96
39528 On ch=2 n=d#4 v=0
39528 On ch=2 n=g#4 v=0
39528 On ch=2 n=b4 v=0
39528 On ch=2 n=d#5 v=0
39528 On ch=2 n=d#5 v=96
39528 On ch=2 n=b4 v=96
39528 On ch=2 n=g#4 v=96
39528 On ch=2 n=d#4 v=96
40004 On ch=2 n=d#4 v=0
40004 On ch=2 n=g#4 v=0
40004 On ch=2 n=b4 v=0
40004 On ch=2 n=d#5 v=0
40004 Par ch=2 c=64 v=0
40004 On ch=2 n=d4 v=114
40004 On ch=2 n=d3 v=114
40018 Par ch=2 c=64 v=127
40804 On ch=2 n=d3 v=0
40804 On ch=2 n=d4 v=0
40804 On ch=2 n=a#4 v=96
40804 On ch=2 n=f4 v=96
40804 On ch=2 n=d4 v=96
41162 On ch=2 n=d4 v=0
41162 On ch=2 n=f4 v=0
41162 On ch=2 n=a#4 v=0
41162 On ch=2 n=a#4 v=96
41162 On ch=2 n=f4 v=96
41162 On ch=2 n=d4 v=96
41528 On ch=2 n=d4 v=0
41528 On ch=2 n=f4 v=0
41528 On ch=2 n=a#4 v=0
41528 On ch=2 n=a#4 v=96
41528 On ch=2 n=f4 v=96
41528 On ch=2 n=d4 v=96
42276 On ch=2 n=d4 v=0
42276 On ch=2 n=f4 v=0
42276 On ch=2 n=a#4 v=0
42276 On ch=2 n=a#4 v=96
42276 On ch=2 n=f4 v=96
42276 On ch=2 n=d4 v=96
42648 On ch=2 n=d4 v=0
42648 On ch=2 n=f4 v=0
42648 On ch=2 n=a#4 v=0
42648 On ch=2 n=a#4 v=96
42648 On ch=2 n=f4 v=96
42648 On ch=2 n=d4 v=96
43094 On ch=2 n=d4 v=0
43094 On ch=2 n=f4 v=0
43094 On ch=2 n=a#4 v=0
43094 Par ch=2 c=64 v=0
43094 On ch=2 n=a#4 v=99
43094 On ch=2 n=g4 v=99
43094 On ch=2 n=d#4 v=99
43094 On ch=2 n=c#4 v=99
43850 On ch=2 n=c#4 v=0
43850 On ch=2 n=d#4 v=0
43850 On ch=2 n=g4 v=0
43850 On ch=2 n=a#4 v=0
43850 On ch=2 n=a#4 v=96
43850 On ch=2 n=g4 v=96
43850 On ch=2 n=d#4 v=96
43850 On ch=2 n=c#4 v=96
44296 On ch=2 n=c#4 v=0
44296 On ch=2 n=d#4 v=0
44296 On ch=2 n=g4 v=0
44296 On ch=2 n=a#4 v=0
44296 On ch=2 n=a#4 v=100
44296 On ch=2 n=g4 v=100
44296 On ch=2 n=d#4 v=100
44296 On ch=2 n=c#4 v=100
44580 On ch=2 n=c#4 v=0
44580 On ch=2 n=d#4 v=0
44580 On ch=2 n=g4 v=0
44580 On ch=2 n=a#4 v=0
44580 On ch=2 n=a#4 v=103
44580 On ch=2 n=d#4 v=103
44580 On ch=2 n=b3 v=103
44592 Par ch=2 c=64 v=127
45212 On ch=2 n=b3 v=0
45212 On ch=2 n=d#4 v=0
45212 On ch=2 n=a#4 v=0
45212 On ch=2 n=a#4 v=100
45212 On ch=2 n=d#4 v=100
45212 On ch=2 n=b3 v=100
45560 On ch=2 n=b3 v=0
45560 On ch=2 n=d#4 v=0
45560 On ch=2 n=a#4 v=0
45560 On ch=2 n=a#4 v=103
45560 On ch=2 n=d#4 v=103
45560 On ch=2 n=b3 v=103
45888 On ch=2 n=b3 v=0
45888 On ch=2 n=d#4 v=0
45888 On ch=2 n=a#4 v=0
45888 On ch=2 n=a#4 v=105
45888 On ch=2 n=d#4 v=105
45888 On ch=2 n=b3 v=105
46594 On ch=2 n=b3 v=0
46594 On ch=2 n=d#4 v=0
46594 On ch=2 n=a#4 v=0
46594 On ch=2 n=a#4 v=108
46594 On ch=2 n=d#4 v=108
46594 On ch=2 n=b3 v=108
47276 On ch=2 n=b3 v=0
47276 On ch=2 n=d#4 v=0
47276 On ch=2 n=a#4 v=0
47276 Par ch=2 c=64 v=0
47276 On ch=2 n=g#4 v=112
47276 On ch=2 n=d#4 v=112
47276 On ch=2 n=b3 v=112
47962 On ch=2 n=b3 v=0
47962 On ch=2 n=d#4 v=0
47962 On ch=2 n=g#4 v=0
47962 On ch=2 n=a4 v=116
47962 On ch=2 n=d#4 v=116
47962 On ch=2 n=b3 v=116
48684 On ch=2 n=b3 v=0
48684 On ch=2 n=d#4 v=0
48684 On ch=2 n=a4 v=0
48684 On ch=2 n=a#4 v=126
48684 On ch=2 n=f#4 v=126
48684 On ch=2 n=d#4 v=126
48684 On ch=2 n=a#3 v=126
48696 Par ch=2 c=64 v=127
49424 On ch=2 n=a#3 v=0
49424 On ch=2 n=d#4 v=0
49424 On ch=2 n=f#4 v=0
49424 On ch=2 n=a#4 v=0
49424 On ch=2 n=a#5 v=112
49424 On ch=2 n=f#5 v=112
49424 On ch=2 n=d#5 v=112
49424 On ch=2 n=a#4 v=112
49794 On ch=2 n=a#4 v=0
49794 On ch=2 n=d#5 v=0
49794 On ch=2 n=f#5 v=0
49794 On ch=2 n=a#5 v=0
49794 On ch=2 n=a#5 v=109
49794 On ch=2 n=f#5 v=109
49794 On ch=2 n=d#5 v=109
49794 On ch=2 n=a#4 v=109
50144 On ch=2 n=a#4 v=0
50144 On ch=2 n=d#5 v=0
50144 On ch=2 n=f#5 v=0
50144 On ch=2 n=a#5 v=0
50144 On ch=2 n=a#5 v=105
50144 On ch=2 n=f#5 v=105
50144 On ch=2 n=d#5 v=105
50144 On ch=2 n=a#4 v=105
50898 On ch=2 n=a#4 v=0
50898 On ch=2 n=d#5 v=0
50898 On ch=2 n=f#5 v=0
50898 On ch=2 n=a#5 v=0
50898 On ch=2 n=a#5 v=104
50898 On ch=2 n=f#5 v=104
50898 On ch=2 n=d#5 v=104
50898 On ch=2 n=a#4 v=104
51658 On ch=2 n=a#4 v=0
51658 On ch=2 n=d#5 v=0
51658 On ch=2 n=f#5 v=0
51658 On ch=2 n=a#5 v=0
51658 Par ch=2 c=64 v=0
51658 On ch=2 n=a#5 v=104
51658 On ch=2 n=g#5 v=104
51658 On ch=2 n=d5 v=104
51658 On ch=2 n=a#4 v=104
52318 On ch=2 n=a#4 v=0
52318 On ch=2 n=d5 v=0
52318 On ch=2 n=g#5 v=0
52318 On ch=2 n=a#5 v=0
52318 On ch=2 n=a#5 v=106
52318 On ch=2 n=g#5 v=106
52318 On ch=2 n=d5 v=106
52318 On ch=2 n=a#4 v=106
53086 On ch=2 n=a#4 v=0
53086 On ch=2 n=d5 v=0
53086 On ch=2 n=g#5 v=0
53086 On ch=2 n=a#5 v=0
88820 On ch=2 n=g#4 v=78
88820 On ch=2 n=a#3 v=78
89808 On ch=2 n=a#3 v=0
89808 On ch=2 n=g#4 v=0
91756 On ch=2 n=a#3 v=66
92836 On ch=2 n=a#3 v=0
92836 On ch=2 n=d#3 v=62
93962 On ch=2 n=d#3 v=0
95104 On ch=2 n=a#3 v=56
95568 On ch=2 n=a#3 v=0
95568 On ch=2 n=b3 v=67
95954 On ch=2 n=b3 v=0
95954 On ch=2 n=a3 v=66
96320 On ch=2 n=a3 v=0
96320 On ch=2 n=a#3 v=77
96704 On ch=2 n=a#3 v=0
96704 On ch=2 n=d#3 v=82
97614 On ch=2 n=d#3 v=0
99404 On ch=2 n=a#3 v=43
99404 On ch=2 n=d#3 v=43
99806 On ch=2 n=d#3 v=0
99806 On ch=2 n=a#3 v=0
99806 On ch=2 n=a#3 v=47
99806 On ch=2 n=d#3 v=47
100188 On ch=2 n=d#3 v=0
100188 On ch=2 n=a#3 v=0
100188 On ch=2 n=a#3 v=62
100188 On ch=2 n=d#3 v=62
100998 On ch=2 n=d#3 v=0
100998 On ch=2 n=a#3 v=0
100998 On ch=2 n=a#3 v=69
100998 On ch=2 n=d#3 v=69
101384 On ch=2 n=d#3 v=0
101384 On ch=2 n=a#3 v=0
101384 On ch=2 n=a#3 v=69
101384 On ch=2 n=d#3 v=69
101742 On ch=2 n=d#3 v=0
101742 On ch=2 n=a#3 v=0
101742 On ch=2 n=a#3 v=69
101742 On ch=2 n=d#3 v=69
102532 On ch=2 n=d#3 v=0
102532 On ch=2 n=a#3 v=0
102532 On ch=2 n=a#3 v=69
102532 On ch=2 n=d#3 v=69
102876 On ch=2 n=d#3 v=0
102876 On ch=2 n=a#3 v=0
102876 On ch=2 n=a#3 v=69
102876 On ch=2 n=d#3 v=69
103338 On ch=2 n=d#3 v=0
103338 On ch=2 n=a#3 v=0
103338 On ch=2 n=a#3 v=83
103338 On ch=2 n=d#3 v=83
104548 On ch=2 n=d#3 v=0
104548 On ch=2 n=a#3 v=0
105546 On ch=2 n=a#3 v=56
105934 On ch=2 n=a#3 v=0
105934 On ch=2 n=b3 v=66
106294 On ch=2 n=b3 v=0
106294 On ch=2 n=a3 v=72
106648 On ch=2 n=a3 v=0
106648 On ch=2 n=a#3 v=72
107036 On ch=2 n=a#3 v=0
107036 On ch=2 n=d#3 v=72
107842 On ch=2 n=d#3 v=0
109428 On ch=2 n=d#4 v=77
109428 On ch=2 n=g#3 v=77
109428 On ch=2 n=d#3 v=77
109784 On ch=2 n=d#3 v=0
109784 On ch=2 n=g#3 v=0
109784 On ch=2 n=d#4 v=0
109784 On ch=2 n=d#4 v=78
109784 On ch=2 n=g#3 v=78
109784 On ch=2 n=d#3 v=78
110142 On ch=2 n=d#3 v=0
110142 On ch=2 n=g#3 v=0
110142 On ch=2 n=d#4 v=0
110142 On ch=2 n=d#4 v=78
110142 On ch=2 n=g#3 v=78
110142 On ch=2 n=d#3 v=78
110916 On ch=2 n=d#3 v=0
110916 On ch=2 n=g#3 v=0
110916 On ch=2 n=d#4 v=0
110916 On ch=2 n=d#4 v=79
110916 On ch=2 n=g#3 v=79
110916 On ch=2 n=d#3 v=79
111270 On ch=2 n=d#3 v=0
111270 On ch=2 n=g#3 v=0
111270 On ch=2 n=d#4 v=0
111270 On ch=2 n=d#4 v=80
111270 On ch=2 n=g#3 v=80
111270 On ch=2 n=d#3 v=80
111624 On ch=2 n=d#3 v=0
111624 On ch=2 n=g#3 v=0
111624 On ch=2 n=d#4 v=0
111624 On ch=2 n=d#4 v=80
111624 On ch=2 n=g#3 v=80
111624 On ch=2 n=d#3 v=80
112396 On ch=2 n=d#3 v=0
112396 On ch=2 n=g#3 v=0
112396 On ch=2 n=d#4 v=0
112396 On ch=2 n=d#4 v=81
112396 On ch=2 n=g#3 v=81
112396 On ch=2 n=d#3 v=81
112730 On ch=2 n=d#3 v=0
112730 On ch=2 n=g#3 v=0
112730 On ch=2 n=d#4 v=0
112730 On ch=2 n=d#4 v=81
112730 On ch=2 n=g#3 v=81
112730 On ch=2 n=d#3 v=81
113154 On ch=2 n=d#3 v=0
113154 On ch=2 n=g#3 v=0
113154 On ch=2 n=d#4 v=0
113154 On ch=2 n=d#4 v=81
113154 On ch=2 n=g#3 v=81
113154 On ch=2 n=d#3 v=81
113888 On ch=2 n=d#3 v=0
113888 On ch=2 n=g#3 v=0
113888 On ch=2 n=d#4 v=0
114846 On ch=2 n=b3 v=63
115222 On ch=2 n=b3 v=0
115222 On ch=2 n=c#4 v=87
115550 On ch=2 n=c#4 v=0
115550 On ch=2 n=a#3 v=87
115908 On ch=2 n=a#3 v=0
115908 On ch=2 n=b3 v=87
116270 On ch=2 n=b3 v=0
116270 On ch=2 n=d#3 v=87
117012 On ch=2 n=d#3 v=0
118496 On ch=2 n=d#4 v=87
118496 On ch=2 n=g#3 v=87
118496 On ch=2 n=d#3 v=87
118862 On ch=2 n=d#3 v=0
118862 On ch=2 n=g#3 v=0
118862 On ch=2 n=d#4 v=0
118862 On ch=2 n=d#4 v=89
118862 On ch=2 n=g#3 v=89
118862 On ch=2 n=d#3 v=89
119212 On ch=2 n=d#3 v=0
119212 On ch=2 n=g#3 v=0
119212 On ch=2 n=d#4 v=0
119212 On ch=2 n=d#4 v=90
119212 On ch=2 n=g#3 v=90
119212 On ch=2 n=d#3 v=90
119966 On ch=2 n=d#3 v=0
119966 On ch=2 n=g#3 v=0
119966 On ch=2 n=d#4 v=0
119966 On ch=2 n=d#4 v=90
119966 On ch=2 n=g#3 v=90
119966 On ch=2 n=d#3 v=90
120324 On ch=2 n=d#3 v=0
120324 On ch=2 n=g#3 v=0
120324 On ch=2 n=d#4 v=0
120324 On ch=2 n=d#4 v=90
120324 On ch=2 n=g#3 v=90
120324 On ch=2 n=d#3 v=90
120670 On ch=2 n=d#3 v=0
120670 On ch=2 n=g#3 v=0
120670 On ch=2 n=d#4 v=0
120670 On ch=2 n=d#4 v=90
120670 On ch=2 n=g#3 v=90
120670 On ch=2 n=d#3 v=90
121436 On ch=2 n=d#3 v=0
121436 On ch=2 n=g#3 v=0
121436 On ch=2 n=d#4 v=0
121436 On ch=2 n=d#4 v=90
121436 On ch=2 n=g#3 v=90
121436 On ch=2 n=d#3 v=90
121790 On ch=2 n=d#3 v=0
121790 On ch=2 n=g#3 v=0
121790 On ch=2 n=d#4 v=0
121790 On ch=2 n=d#4 v=90
121790 On ch=2 n=g#3 v=90
121790 On ch=2 n=d#3 v=90
122192 On ch=2 n=d#3 v=0
122192 On ch=2 n=g#3 v=0
122192 On ch=2 n=d#4 v=0
122192 On ch=2 n=d#4 v=115
122192 On ch=2 n=g#3 v=115
122192 On ch=2 n=d#3 v=115
122956 On ch=2 n=d#3 v=0
122956 On ch=2 n=g#3 v=0
122956 On ch=2 n=d#4 v=0
123864 On ch=2 n=b3 v=95
124218 On ch=2 n=b3 v=0
124218 On ch=2 n=c#4 v=99
124566 On ch=2 n=c#4 v=0
124566 On ch=2 n=a#3 v=102
124914 On ch=2 n=a#3 v=0
124914 On ch=2 n=b3 v=101
125302 On ch=2 n=b3 v=0
125302 On ch=2 n=d#3 v=106
126068 On ch=2 n=d#3 v=0
126068 On ch=2 n=d#4 v=101
126068 On ch=2 n=b3 v=101
126068 On ch=2 n=g#3 v=101
126068 On ch=2 n=d#3 v=101
126436 On ch=2 n=d#3 v=0
126436 On ch=2 n=g#3 v=0
126436 On ch=2 n=b3 v=0
126436 On ch=2 n=d#4 v=0
126436 On ch=2 n=d#4 v=97
126436 On ch=2 n=b3 v=97
126436 On ch=2 n=g#3 v=97
126436 On ch=2 n=d#3 v=97
126780 On ch=2 n=d#3 v=0
126780 On ch=2 n=g#3 v=0
126780 On ch=2 n=b3 v=0
126780 On ch=2 n=d#4 v=0
126780 On ch=2 n=d#4 v=99
126780 On ch=2 n=b3 v=99
126780 On ch=2 n=g#3 v=99
126780 On ch=2 n=d#3 v=99
127546 On ch=2 n=d#3 v=0
127546 On ch=2 n=g#3 v=0
127546 On ch=2 n=b3 v=0
127546 On ch=2 n=d#4 v=0
127546 On ch=2 n=d#4 v=102
127546 On ch=2 n=b3 v=102
127546 On ch=2 n=g#3 v=102
127546 On ch=2 n=d#3 v=102
127558 Par ch=2 c=64 v=127
127908 On ch=2 n=d#3 v=0
127908 On ch=2 n=g#3 v=0
127908 On ch=2 n=b3 v=0
127908 On ch=2 n=d#4 v=0
127908 On ch=2 n=d#4 v=104
127908 On ch=2 n=b3 v=104
127908 On ch=2 n=g#3 v=104
127908 On ch=2 n=d#3 v=104
128278 On ch=2 n=d#3 v=0
128278 On ch=2 n=g#3 v=0
128278 On ch=2 n=b3 v=0
128278 On ch=2 n=d#4 v=0
128278 On ch=2 n=d#4 v=107
128278 On ch=2 n=b3 v=107
128278 On ch=2 n=g#3 v=107
128278 On ch=2 n=d#3 v=107
129048 On ch=2 n=d#3 v=0
129048 On ch=2 n=g#3 v=0
129048 On ch=2 n=b3 v=0
129048 On ch=2 n=d#4 v=0
129048 On ch=2 n=d#5 v=106
129048 On ch=2 n=b4 v=106
129048 On ch=2 n=g#4 v=106
129048 On ch=2 n=d#4 v=106
129406 On ch=2 n=d#4 v=0
129406 On ch=2 n=g#4 v=0
129406 On ch=2 n=b4 v=0
129406 On ch=2 n=d#5 v=0
129406 On ch=2 n=d#5 v=102
129406 On ch=2 n=b4 v=102
129406 On ch=2 n=g#4 v=102
129406 On ch=2 n=d#4 v=102
129754 On ch=2 n=d#4 v=0
129754 On ch=2 n=g#4 v=0
129754 On ch=2 n=b4 v=0
129754 On ch=2 n=d#5 v=0
129754 On ch=2 n=d#5 v=103
129754 On ch=2 n=b4 v=103
129754 On ch=2 n=g#4 v=103
129754 On ch=2 n=d#4 v=103
130464 On ch=2 n=d#4 v=0
130464 On ch=2 n=g#4 v=0
130464 On ch=2 n=b4 v=0
130464 On ch=2 n=d#5 v=0
130464 On ch=2 n=d#5 v=101
130464 On ch=2 n=b4 v=101
130464 On ch=2 n=g#4 v=101
130464 On ch=2 n=d#4 v=101
130796 On ch=2 n=d#4 v=0
130796 On ch=2 n=g#4 v=0
130796 On ch=2 n=b4 v=0
130796 On ch=2 n=d#5 v=0
130796 On ch=2 n=d#5 v=103
130796 On ch=2 n=b4 v=103
130796 On ch=2 n=g#4 v=103
130796 On ch=2 n=d#4 v=103
131170 On ch=2 n=d#4 v=0
131170 On ch=2 n=g#4 v=0
131170 On ch=2 n=b4 v=0
131170 On ch=2 n=d#5 v=0
131170 On ch=2 n=d#5 v=104
131170 On ch=2 n=b4 v=104
131170 On ch=2 n=g#4 v=104
131170 On ch=2 n=d#4 v=104
131876 On ch=2 n=d#4 v=0
131876 On ch=2 n=g#4 v=0
131876 On ch=2 n=b4 v=0
131876 On ch=2 n=d#5 v=0
131876 On ch=2 n=d#5 v=101
131876 On ch=2 n=b4 v=101
131876 On ch=2 n=g#4 v=101
131876 On ch=2 n=d#4 v=101
132212 On ch=2 n=d#4 v=0
132212 On ch=2 n=g#4 v=0
132212 On ch=2 n=b4 v=0
132212 On ch=2 n=d#5 v=0
132212 On ch=2 n=d#5 v=101
132212 On ch=2 n=b4 v=101
132212 On ch=2 n=g#4 v=101
132212 On ch=2 n=d#4 v=101
132666 On ch=2 n=d#4 v=0
132666 On ch=2 n=g#4 v=0
132666 On ch=2 n=b4 v=0
132666 On ch=2 n=d#5 v=0
132666 Par ch=2 c=64 v=0
132666 On ch=2 n=d4 v=122
132666 On ch=2 n=d3 v=122
132678 Par ch=2 c=64 v=127
133442 On ch=2 n=d3 v=0
133442 On ch=2 n=d4 v=0
133442 On ch=2 n=a#4 v=101
133442 On ch=2 n=f4 v=101
133442 On ch=2 n=d4 v=101
133848 On ch=2 n=d4 v=0
133848 On ch=2 n=f4 v=0
133848 On ch=2 n=a#4 v=0
133848 On ch=2 n=a#4 v=101
133848 On ch=2 n=f4 v=101
133848 On ch=2 n=d4 v=101
134214 On ch=2 n=d4 v=0
134214 On ch=2 n=f4 v=0
134214 On ch=2 n=a#4 v=0
134214 On ch=2 n=a#4 v=101
134214 On ch=2 n=f4 v=101
134214 On ch=2 n=d4 v=101
134956 On ch=2 n=d4 v=0
134956 On ch=2 n=f4 v=0
134956 On ch=2 n=a#4 v=0
134956 On ch=2 n=a#4 v=101
134956 On ch=2 n=f4 v=101
134956 On ch=2 n=d4 v=101
135338 On ch=2 n=d4 v=0
135338 On ch=2 n=f4 v=0
135338 On ch=2 n=a#4 v=0
135338 On ch=2 n=a#4 v=101
135338 On ch=2 n=f4 v=101
135338 On ch=2 n=d4 v=101
135730 On ch=2 n=d4 v=0
135730 On ch=2 n=f4 v=0
135730 On ch=2 n=a#4 v=0
135730 Par ch=2 c=64 v=0
135730 On ch=2 n=a#4 v=114
135730 On ch=2 n=g4 v=114
135730 On ch=2 n=d#4 v=114
135730 On ch=2 n=c#4 v=114
136436 On ch=2 n=c#4 v=0
136436 On ch=2 n=d#4 v=0
136436 On ch=2 n=g4 v=0
136436 On ch=2 n=a#4 v=0
136436 On ch=2 n=a#4 v=103
136436 On ch=2 n=g4 v=103
136436 On ch=2 n=d#4 v=103
136436 On ch=2 n=c#4 v=103
136838 On ch=2 n=c#4 v=0
136838 On ch=2 n=d#4 v=0
136838 On ch=2 n=g4 v=0
136838 On ch=2 n=a#4 v=0
136838 On ch=2 n=a#4 v=103
136838 On ch=2 n=g4 v=103
136838 On ch=2 n=d#4 v=103
136838 On ch=2 n=c#4 v=103
137224 On ch=2 n=c#4 v=0
137224 On ch=2 n=d#4 v=0
137224 On ch=2 n=g4 v=0
137224 On ch=2 n=a#4 v=0
137224 On ch=2 n=a#4 v=106
137224 On ch=2 n=d#4 v=106
137224 On ch=2 n=b3 v=106
137236 Par ch=2 c=64 v=127
137922 On ch=2 n=b3 v=0
137922 On ch=2 n=d#4 v=0
137922 On ch=2 n=a#4 v=0
137922 On ch=2 n=a#4 v=106
137922 On ch=2 n=d#4 v=106
137922 On ch=2 n=b3 v=106
138290 On ch=2 n=b3 v=0
138290 On ch=2 n=d#4 v=0
138290 On ch=2 n=a#4 v=0
138290 On ch=2 n=a#4 v=117
138290 On ch=2 n=d#4 v=117
138290 On ch=2 n=b3 v=117
138670 On ch=2 n=b3 v=0
138670 On ch=2 n=d#4 v=0
138670 On ch=2 n=a#4 v=0
138670 On ch=2 n=a#4 v=117
138670 On ch=2 n=d#4 v=117
138670 On ch=2 n=b3 v=117
139434 On ch=2 n=b3 v=0
139434 On ch=2 n=d#4 v=0
139434 On ch=2 n=a#4 v=0
139434 On ch=2 n=a#4 v=122
139434 On ch=2 n=d#4 v=122
139434 On ch=2 n=b3 v=122
140172 On ch=2 n=b3 v=0
140172 On ch=2 n=d#4 v=0
140172 On ch=2 n=a#4 v=0
140172 Par ch=2 c=64 v=0
140172 On ch=2 n=g#4 v=120
140172 On ch=2 n=d#4 v=120
140172 On ch=2 n=b3 v=120
140908 On ch=2 n=b3 v=0
140908 On ch=2 n=d#4 v=0
140908 On ch=2 n=g#4 v=0
140908 On ch=2 n=a4 v=123
140908 On ch=2 n=d#4 v=123
140908 On ch=2 n=b3 v=123
141726 On ch=2 n=b3 v=0
141726 On ch=2 n=d#4 v=0
141726 On ch=2 n=a4 v=0
141726 On ch=2 n=a#4 v=127
141726 On ch=2 n=f#4 v=127
141726 On ch=2 n=d#4 v=127
141726 On ch=2 n=a#3 v=127
141740 Par ch=2 c=64 v=127
142588 On ch=2 n=a#3 v=0
142588 On ch=2 n=d#4 v=0
142588 On ch=2 n=f#4 v=0
142588 On ch=2 n=a#4 v=0
142588 On ch=2 n=a#5 v=111
142588 On ch=2 n=f#5 v=111
142588 On ch=2 n=d#5 v=111
142588 On ch=2 n=a#4 v=111
142972 On ch=2 n=a#4 v=0
142972 On ch=2 n=d#5 v=0
142972 On ch=2 n=f#5 v=0
142972 On ch=2 n=a#5 v=0
142972 On ch=2 n=a#5 v=111
142972 On ch=2 n=f#5 v=111
142972 On ch=2 n=d#5 v=111
142972 On ch=2 n=a#4 v=111
143370 On ch=2 n=a#4 v=0
143370 On ch=2 n=d#5 v=0
143370 On ch=2 n=f#5 v=0
143370 On ch=2 n=a#5 v=0
143370 On ch=2 n=a#5 v=107
143370 On ch=2 n=f#5 v=107
143370 On ch=2 n=d#5 v=107
143370 On ch=2 n=a#4 v=107
144164 On ch=2 n=a#4 v=0
144164 On ch=2 n=d#5 v=0
144164 On ch=2 n=f#5 v=0
144164 On ch=2 n=a#5 v=0
144164 On ch=2 n=a#5 v=107
144164 On ch=2 n=f#5 v=107
144164 On ch=2 n=d#5 v=107
144164 On ch=2 n=a#4 v=107
144976 On ch=2 n=a#4 v=0
144976 On ch=2 n=d#5 v=0
144976 On ch=2 n=f#5 v=0
144976 On ch=2 n=a#5 v=0
144976 Par ch=2 c=64 v=0
144976 On ch=2 n=a#5 v=105
144976 On ch=2 n=g#5 v=105
144976 On ch=2 n=d5 v=105
144976 On ch=2 n=a#4 v=105
145722 On ch=2 n=a#4 v=0
145722 On ch=2 n=d5 v=0
145722 On ch=2 n=g#5 v=0
145722 On ch=2 n=a#5 v=0
145722 On ch=2 n=a#5 v=105
145722 On ch=2 n=g#5 v=105
145722 On ch=2 n=d5 v=105
145722 On ch=2 n=a#4 v=105
146552 On ch=2 n=a#4 v=0
146552 On ch=2 n=d5 v=0
146552 On ch=2 n=g#5 v=0
146552 On ch=2 n=a#5 v=0
183024 On ch=2 n=g#4 v=90
183024 On ch=2 n=a#3 v=90
183808 On ch=2 n=a#3 v=0
183808 On ch=2 n=g#4 v=0
185496 On ch=2 n=a#3 v=61
186528 On ch=2 n=a#3 v=0
186528 On ch=2 n=d#3 v=43
187516 On ch=2 n=d#3 v=0
188456 On ch=2 n=c#4 v=45
188456 On ch=2 n=c#3 v=45
190300 On ch=2 n=c#3 v=0
190300 On ch=2 n=c#4 v=0
191228 On ch=2 n=c#4 v=74
191228 On ch=2 n=f#3 v=74
192116 On ch=2 n=f#3 v=0
192116 On ch=2 n=c#4 v=0
192116 On ch=2 n=c#4 v=65
192116 On ch=2 n=c#3 v=65
192950 On ch=2 n=c#3 v=0
192950 On ch=2 n=c#4 v=0
192950 On ch=2 n=c#4 v=70
192950 On ch=2 n=f#3 v=70
193810 On ch=2 n=f#3 v=0
193810 On ch=2 n=c#4 v=0
193810 On ch=2 n=c#4 v=70
193810 On ch=2 n=c#3 v=70
193824 Par ch=2 c=64 v=127
194642 On ch=2 n=c#3 v=0
194642 On ch=2 n=c#4 v=0
194642 On ch=2 n=b4 v=66
194642 On ch=2 n=g#4 v=66
194642 On ch=2 n=c#4 v=66
195038 On ch=2 n=c#4 v=0
195038 On ch=2 n=g#4 v=0
195038 On ch=2 n=b4 v=0
195038 On ch=2 n=b4 v=66
195038 On ch=2 n=g#4 v=66
195038 On ch=2 n=c#4 v=66
195434 On ch=2 n=c#4 v=0
195434 On ch=2 n=g#4 v=0
195434 On ch=2 n=b4 v=0
195434 On ch=2 n=b4 v=66
195434 On ch=2 n=g#4 v=66
195434 On ch=2 n=c#4 v=66
196220 On ch=2 n=c#4 v=0
196220 On ch=2 n=g#4 v=0
196220 On ch=2 n=b4 v=0
196220 On ch=2 n=g#4 v=66
196220 On ch=2 n=c#4 v=66
196604 On ch=2 n=c#4 v=0
196604 On ch=2 n=g#4 v=0
196604 On ch=2 n=g#4 v=69
196604 On ch=2 n=c#4 v=69
196986 On ch=2 n=c#4 v=0
196986 On ch=2 n=g#4 v=0
196986 Par ch=2 c=64 v=0
196986 On ch=2 n=f#4 v=68
196986 On ch=2 n=f#3 v=68
197830 On ch=2 n=f#3 v=0
197830 On ch=2 n=f#4 v=0
197830 On ch=2 n=a#3 v=61
198694 On ch=2 n=a#3 v=0
198694 On ch=2 n=c#4 v=61
200442 On ch=2 n=c#4 v=0
201328 On ch=2 n=c#4 v=54
201328 On ch=2 n=f#3 v=54
202146 On ch=2 n=f#3 v=0
202146 On ch=2 n=c#4 v=0
202146 On ch=2 n=c#4 v=57
202146 On ch=2 n=c#3 v=57
202924 On ch=2 n=c#3 v=0
202924 On ch=2 n=c#4 v=0
202924 On ch=2 n=c#4 v=61
202924 On ch=2 n=f3 v=61
203328 On ch=2 n=f3 v=0
203328 On ch=2 n=c#4 v=0
203328 On ch=2 n=f#3 v=60
203726 On ch=2 n=f#3 v=0
203726 On ch=2 n=g#3 v=64
204508 On ch=2 n=g#3 v=0
204508 On ch=2 n=g#4 v=62
204508 On ch=2 n=g#3 v=62
204880 On ch=2 n=g#3 v=0
204880 On ch=2 n=g#4 v=0
204880 On ch=2 n=g#4 v=62
204880 On ch=2 n=g#3 v=62
205252 On ch=2 n=g#3 v=0
205252 On ch=2 n=g#4 v=0
205252 On ch=2 n=g#4 v=67
205252 On ch=2 n=g#3 v=67
206002 On ch=2 n=g#3 v=0
206002 On ch=2 n=g#4 v=0
206002 On ch=2 n=g#4 v=63
206002 On ch=2 n=g#3 v=63
206374 On ch=2 n=g#3 v=0
206374 On ch=2 n=g#4 v=0
206374 On ch=2 n=g#4 v=66
206374 On ch=2 n=g#3 v=66
206750 On ch=2 n=g#3 v=0
206750 On ch=2 n=g#4 v=0
206750 On ch=2 n=g#4 v=66
206750 On ch=2 n=c#4 v=66
207540 On ch=2 n=c#4 v=0
207540 On ch=2 n=g#4 v=0
207540 On ch=2 n=g#4 v=64
207540 On ch=2 n=c#4 v=64
208342 On ch=2 n=c#4 v=0
208342 On ch=2 n=g#4 v=0
208342 On ch=2 n=g#4 v=63
208342 On ch=2 n=c#4 v=63
209930 On ch=2 n=c#4 v=0
209930 On ch=2 n=g#4 v=0
210734 On ch=2 n=c#5 v=62
210734 On ch=2 n=f#4 v=62
211514 On ch=2 n=f#4 v=0
211514 On ch=2 n=c#5 v=0
211514 On ch=2 n=c#5 v=68
211514 On ch=2 n=c#4 v=68
212264 On ch=2 n=c#4 v=0
212264 On ch=2 n=c#5 v=0
212264 On ch=2 n=c#5 v=68
212264 On ch=2 n=f#4 v=68
213038 On ch=2 n=f#4 v=0
213038 On ch=2 n=c#5 v=0
213038 On ch=2 n=c#4 v=69
213038 On ch=2 n=c#3 v=69
213802 On ch=2 n=f5 v=69
213802 On ch=2 n=c#5 v=69
213802 On ch=2 n=g#4 v=69
213802 On ch=2 n=f4 v=69
214180 On ch=2 n=f4 v=0
214180 On ch=2 n=g#4 v=0
214180 On ch=2 n=c#5 v=0
214180 On ch=2 n=f5 v=0
214180 On ch=2 n=f5 v=68
214180 On ch=2 n=c#5 v=68
214180 On ch=2 n=g#4 v=68
214180 On ch=2 n=f4 v=68
214552 On ch=2 n=f4 v=0
214552 On ch=2 n=g#4 v=0
214552 On ch=2 n=c#5 v=0
214552 On ch=2 n=f5 v=0
214552 On ch=2 n=f5 v=76
214552 On ch=2 n=c#5 v=76
214552 On ch=2 n=g#4 v=76
214552 On ch=2 n=f4 v=76
215298 On ch=2 n=f4 v=0
215298 On ch=2 n=g#4 v=0
215298 On ch=2 n=c#5 v=0
215298 On ch=2 n=f5 v=0
215298 On ch=2 n=f5 v=70
215298 On ch=2 n=c#5 v=70
215298 On ch=2 n=g#4 v=70
215298 On ch=2 n=f4 v=70
215682 On ch=2 n=f4 v=0
215682 On ch=2 n=g#4 v=0
215682 On ch=2 n=c#5 v=0
215682 On ch=2 n=f5 v=0
215682 On ch=2 n=f5 v=74
215682 On ch=2 n=c#5 v=74
215682 On ch=2 n=g#4 v=74
215682 On ch=2 n=f4 v=74
216068 On ch=2 n=f4 v=0
216068 On ch=2 n=g#4 v=0
216068 On ch=2 n=c#5 v=0
216068 On ch=2 n=f5 v=0
216068 On ch=2 n=c#3 v=0
216068 On ch=2 n=c#4 v=0
216068 On ch=2 n=f#4 v=78
216068 On ch=2 n=f#3 v=78
216838 On ch=2 n=f#3 v=0
216838 On ch=2 n=f#4 v=0
216838 On ch=2 n=a#4 v=80
216838 On ch=2 n=a#3 v=80
217624 On ch=2 n=a#3 v=0
217624 On ch=2 n=a#4 v=0
217624 On ch=2 n=c#5 v=77
217624 On ch=2 n=c#4 v=77
219128 On ch=2 n=c#4 v=0
219128 On ch=2 n=c#5 v=0
219946 On ch=2 n=c#5 v=81
219946 On ch=2 n=f#4 v=81
220712 On ch=2 n=f#4 v=0
220712 On ch=2 n=c#5 v=0
220712 On ch=2 n=c#4 v=83
220712 On ch=2 n=c#3 v=83
221444 On ch=2 n=c#3 v=0
221444 On ch=2 n=c#4 v=0
221444 On ch=2 n=f4 v=83
221444 On ch=2 n=f3 v=83
221844 On ch=2 n=f3 v=0
221844 On ch=2 n=f4 v=0
221844 On ch=2 n=f#4 v=83
221844 On ch=2 n=f#3 v=83
222222 On ch=2 n=f#3 v=0
222222 On ch=2 n=f#4 v=0
222222 On ch=2 n=g#4 v=84
222222 On ch=2 n=g#3 v=84
222982 On ch=2 n=g#3 v=0
222982 On ch=2 n=g#4 v=0
222982 On ch=2 n=c5 v=84
222982 On ch=2 n=g#4 v=84
222982 On ch=2 n=d#4 v=84
223316 On ch=2 n=d#4 v=0
223316 On ch=2 n=g#4 v=0
223316 On ch=2 n=c5 v=0
223316 On ch=2 n=c5 v=84
223316 On ch=2 n=g#4 v=84
223316 On ch=2 n=d#4 v=84
223694 On ch=2 n=d#4 v=0
223694 On ch=2 n=g#4 v=0
223694 On ch=2 n=c5 v=0
223694 On ch=2 n=c5 v=84
223694 On ch=2 n=g#4 v=84
223694 On ch=2 n=d#4 v=84
224412 On ch=2 n=d#4 v=0
224412 On ch=2 n=g#4 v=0
224412 On ch=2 n=c5 v=0
224412 On ch=2 n=c5 v=85
224412 On ch=2 n=g#4 v=85
224412 On ch=2 n=d#4 v=85
224770 On ch=2 n=d#4 v=0
224770 On ch=2 n=g#4 v=0
224770 On ch=2 n=c5 v=0
224770 On ch=2 n=c5 v=85
224770 On ch=2 n=g#4 v=85
224770 On ch=2 n=d#4 v=85
225144 On ch=2 n=d#4 v=0
225144 On ch=2 n=g#4 v=0
225144 On ch=2 n=c5 v=0
225144 On ch=2 n=c#5 v=85
225144 On ch=2 n=g#4 v=85
225144 On ch=2 n=c#4 v=85
225906 On ch=2 n=c#4 v=0
225906 On ch=2 n=g#4 v=0
225906 On ch=2 n=c#5 v=0
225906 On ch=2 n=c#4 v=87
225906 On ch=2 n=c#3 v=87
226672 On ch=2 n=c#3 v=0
226672 On ch=2 n=c#4 v=0
226672 On ch=2 n=c#4 v=88
226672 On ch=2 n=c#3 v=88
227440 On ch=2 n=c#3 v=0
227440 On ch=2 n=c#4 v=0
227440 On ch=2 n=d#4 v=90
227440 On ch=2 n=d#3 v=90
228190 On ch=2 n=d#3 v=0
228190 On ch=2 n=d#4 v=0
228190 On ch=2 n=e4 v=91
228190 On ch=2 n=e3 v=91
228568 Par ch=2 c=64 v=127
228910 On ch=2 n=e3 v=0
228910 On ch=2 n=e4 v=0
228910 On ch=2 n=c#5 v=95
228910 On ch=2 n=a4 v=95
228910 On ch=2 n=e4 v=95
229270 On ch=2 n=e4 v=0
229270 On ch=2 n=a4 v=0
229270 On ch=2 n=c#5 v=0
229270 On ch=2 n=c#5 v=95
229270 On ch=2 n=a4 v=95
229270 On ch=2 n=e4 v=95
229634 On ch=2 n=e4 v=0
229634 On ch=2 n=a4 v=0
229634 On ch=2 n=c#5 v=0
229634 On ch=2 n=c#5 v=96
229634 On ch=2 n=a4 v=96
229634 On ch=2 n=e4 v=96
230358 On ch=2 n=e4 v=0
230358 On ch=2 n=a4 v=0
230358 On ch=2 n=c#5 v=0
230358 On ch=2 n=c#5 v=96
230358 On ch=2 n=a4 v=96
230358 On ch=2 n=e4 v=96
231096 On ch=2 n=e4 v=0
231096 On ch=2 n=a4 v=0
231096 On ch=2 n=c#5 v=0
231096 Par ch=2 c=64 v=0
231096 On ch=2 n=d5 v=96
231096 On ch=2 n=b4 v=96
231096 On ch=2 n=e4 v=96
231850 On ch=2 n=e4 v=0
231850 On ch=2 n=b4 v=0
231850 On ch=2 n=d5 v=0
231850 On ch=2 n=e5 v=96
231850 On ch=2 n=d5 v=96
231850 On ch=2 n=b4 v=96
231850 On ch=2 n=e4 v=96
232212 On ch=2 n=e4 v=0
232212 On ch=2 n=b4 v=0
232212 On ch=2 n=d5 v=0
232212 On ch=2 n=e5 v=0
232212 On ch=2 n=e5 v=96
232212 On ch=2 n=d5 v=96
232212 On ch=2 n=b4 v=96
232212 On ch=2 n=e4 v=96
232574 On ch=2 n=e4 v=0
232574 On ch=2 n=b4 v=0
232574 On ch=2 n=d5 v=0
232574 On ch=2 n=e5 v=0
232574 On ch=2 n=e5 v=97
232574 On ch=2 n=d5 v=97
232574 On ch=2 n=b4 v=97
232574 On ch=2 n=e4 v=97
233300 On ch=2 n=e4 v=0
233300 On ch=2 n=b4 v=0
233300 On ch=2 n=d5 v=0
233300 On ch=2 n=e5 v=0
233300 On ch=2 n=e5 v=97
233300 On ch=2 n=d5 v=97
233300 On ch=2 n=b4 v=97
233300 On ch=2 n=e4 v=97
233666 On ch=2 n=e4 v=0
233666 On ch=2 n=b4 v=0
233666 On ch=2 n=d5 v=0
233666 On ch=2 n=e5 v=0
233666 On ch=2 n=e5 v=97
233666 On ch=2 n=d5 v=97
233666 On ch=2 n=b4 v=97
233666 On ch=2 n=e4 v=97
234038 On ch=2 n=e4 v=0
234038 On ch=2 n=b4 v=0
234038 On ch=2 n=d5 v=0
234038 On ch=2 n=e5 v=0
234038 On ch=2 n=e5 v=99
234038 On ch=2 n=c#5 v=99
234038 On ch=2 n=a4 v=99
234772 On ch=2 n=a4 v=0
234772 On ch=2 n=c#5 v=0
234772 On ch=2 n=e5 v=0
234772 On ch=2 n=a4 v=100
234772 On ch=2 n=a3 v=100
235536 On ch=2 n=a3 v=0
235536 On ch=2 n=a4 v=0
235536 On ch=2 n=a3 v=100
235536 On ch=2 n=a2 v=100
236288 On ch=2 n=a2 v=0
236288 On ch=2 n=a3 v=0
236288 On ch=2 n=a#3 v=102
236288 On ch=2 n=a#2 v=102
237040 On ch=2 n=a#2 v=0
237040 On ch=2 n=a#3 v=0
237040 On ch=2 n=c4 v=102
237040 On ch=2 n=c3 v=102
237386 Par ch=2 c=64 v=127
237764 On ch=2 n=c3 v=0
237764 On ch=2 n=c4 v=0
237764 On ch=2 n=c5 v=103
237764 On ch=2 n=a4 v=103
237764 On ch=2 n=c4 v=103
238116 On ch=2 n=c4 v=0
238116 On ch=2 n=a4 v=0
238116 On ch=2 n=c5 v=0
238116 On ch=2 n=c5 v=103
238116 On ch=2 n=a4 v=103
238116 On ch=2 n=c4 v=103
238466 On ch=2 n=c4 v=0
238466 On ch=2 n=a4 v=0
238466 On ch=2 n=c5 v=0
238466 On ch=2 n=c5 v=103
238466 On ch=2 n=a4 v=103
238466 On ch=2 n=c4 v=103
239174 On ch=2 n=c4 v=0
239174 On ch=2 n=a4 v=0
239174 On ch=2 n=c5 v=0
239174 On ch=2 n=c5 v=103
239174 On ch=2 n=a4 v=103
239174 On ch=2 n=c4 v=103
239540 On ch=2 n=c4 v=0
239540 On ch=2 n=a4 v=0
239540 On ch=2 n=c5 v=0
239540 On ch=2 n=c5 v=103
239540 On ch=2 n=a4 v=103
239540 On ch=2 n=c4 v=103
239880 On ch=2 n=c4 v=0
239880 On ch=2 n=a4 v=0
239880 On ch=2 n=c5 v=0
239880 Par ch=2 c=64 v=0
239880 On ch=2 n=c5 v=103
239880 On ch=2 n=a#4 v=103
239880 On ch=2 n=g4 v=103
239880 On ch=2 n=c4 v=103
240612 On ch=2 n=c4 v=0
240612 On ch=2 n=g4 v=0
240612 On ch=2 n=a#4 v=0
240612 On ch=2 n=c5 v=0
240612 On ch=2 n=c5 v=104
240612 On ch=2 n=a#4 v=104
240612 On ch=2 n=g4 v=104
240612 On ch=2 n=c4 v=104
240940 On ch=2 n=c4 v=0
240940 On ch=2 n=g4 v=0
240940 On ch=2 n=a#4 v=0
240940 On ch=2 n=c5 v=0
240940 On ch=2 n=c5 v=104
240940 On ch=2 n=a#4 v=104
240940 On ch=2 n=g4 v=104
240940 On ch=2 n=c4 v=104
241302 On ch=2 n=c4 v=0
241302 On ch=2 n=g4 v=0
241302 On ch=2 n=a#4 v=0
241302 On ch=2 n=c5 v=0
241302 On ch=2 n=c5 v=104
241302 On ch=2 n=a#4 v=104
241302 On ch=2 n=g4 v=104
241302 On ch=2 n=c4 v=104
242040 On ch=2 n=c4 v=0
242040 On ch=2 n=g4 v=0
242040 On ch=2 n=a#4 v=0
242040 On ch=2 n=c5 v=0
242040 On ch=2 n=c5 v=104
242040 On ch=2 n=a#4 v=104
242040 On ch=2 n=g4 v=104
242040 On ch=2 n=c4 v=104
242422 On ch=2 n=c4 v=0
242422 On ch=2 n=g4 v=0
242422 On ch=2 n=a#4 v=0
242422 On ch=2 n=c5 v=0
242422 On ch=2 n=c5 v=108
242422 On ch=2 n=a#4 v=108
242422 On ch=2 n=g4 v=108
242422 On ch=2 n=c4 v=108
242796 On ch=2 n=c4 v=0
242796 On ch=2 n=g4 v=0
242796 On ch=2 n=a#4 v=0
242796 On ch=2 n=c5 v=0
242796 On ch=2 n=c5 v=117
242796 On ch=2 n=a4 v=117
242796 On ch=2 n=f4 v=117
243540 On ch=2 n=f4 v=0
243540 On ch=2 n=a4 v=0
243540 On ch=2 n=c5 v=0
243540 On ch=2 n=f4 v=115
243540 On ch=2 n=f3 v=115
244334 On ch=2 n=f3 v=0
244334 On ch=2 n=f4 v=0
244334 On ch=2 n=f#4 v=127
244334 On ch=2 n=d#4 v=127
244334 On ch=2 n=f3 v=127
244346 Par ch=2 c=64 v=127
245098 On ch=2 n=f3 v=0
245098 On ch=2 n=f3 v=112
245440 On ch=2 n=f3 v=0
245440 On ch=2 n=f3 v=115
245776 On ch=2 n=f3 v=0
245776 On ch=2 n=f3 v=116
246430 On ch=2 n=f3 v=0
246430 On ch=2 n=f3 v=113
247074 On ch=2 n=f3 v=0
247074 Par ch=2 c=64 v=0
247074 On ch=2 n=f3 v=105
247776 On ch=2 n=f3 v=0
247776 On ch=2 n=d#4 v=0
247776 On ch=2 n=f#4 v=0
247776 On ch=2 n=e4 v=103
247776 On ch=2 n=f3 v=103
248504 On ch=2 n=f3 v=0
248504 On ch=2 n=e4 v=0
248504 On ch=2 n=f4 v=102
248504 On ch=2 n=f3 v=102
249206 On ch=2 n=f3 v=0
249206 On ch=2 n=f4 v=0
249206 On ch=2 n=f#4 v=111
249206 On ch=2 n=f3 v=111
249570 On ch=2 n=f3 v=0
249570 On ch=2 n=f#4 v=0
249570 On ch=2 n=f4 v=114
249570 On ch=2 n=f3 v=114
249956 On ch=2 n=f3 v=0
249956 On ch=2 n=f4 v=0
249956 On ch=2 n=e4 v=115
249956 On ch=2 n=f3 v=115
250706 On ch=2 n=f3 v=0
250706 On ch=2 n=e4 v=0
250706 On ch=2 n=f4 v=113
250706 On ch=2 n=f3 v=113
251064 On ch=2 n=f3 v=0
251064 On ch=2 n=f4 v=0
251064 On ch=2 n=e4 v=111
251064 On ch=2 n=f3 v=111
251446 On ch=2 n=f3 v=0
251446 On ch=2 n=e4 v=0
251446 On ch=2 n=d#4 v=111
251446 On ch=2 n=f3 v=111
252198 On ch=2 n=f3 v=0
252198 On ch=2 n=d#4 v=0
252198 On ch=2 n=d4 v=111
252198 On ch=2 n=f3 v=111
252544 On ch=2 n=f3 v=0
252544 On ch=2 n=d4 v=0
252544 On ch=2 n=c#4 v=111
252544 On ch=2 n=f3 v=111
252914 On ch=2 n=f3 v=0
252914 On ch=2 n=c#4 v=0
252914 On ch=2 n=c4 v=111
252914 On ch=2 n=f3 v=111
253638 On ch=2 n=f3 v=0
253638 On ch=2 n=c4 v=0
253638 On ch=2 n=f#4 v=114
253638 On ch=2 n=f3 v=114
253650 Par ch=2 c=64 v=127
253988 On ch=2 n=f3 v=0
253988 On ch=2 n=f#4 v=0
253988 On ch=2 n=f#4 v=119
253988 On ch=2 n=f3 v=119
254420 On ch=2 n=f3 v=0
254420 On ch=2 n=f#4 v=0
254420 On ch=2 n=f#4 v=127
254420 On ch=2 n=f3 v=127
255066 On ch=2 n=f3 v=0
255066 On ch=2 n=f#4 v=0
255066 On ch=2 n=f#4 v=113
255066 On ch=2 n=f3 v=113
255764 On ch=2 n=f3 v=0
255764 On ch=2 n=f#4 v=0
255764 Par ch=2 c=64 v=0
255764 On ch=2 n=f#4 v=111
255764 On ch=2 n=f3 v=111
256530 On ch=2 n=f3 v=0
256530 On ch=2 n=f#4 v=0
256530 On ch=2 n=e4 v=111
256530 On ch=2 n=f3 v=111
257316 On ch=2 n=f3 v=0
257316 On ch=2 n=e4 v=0
257316 On ch=2 n=f4 v=106
257316 On ch=2 n=f3 v=106
258092 On ch=2 n=f3 v=0
258092 On ch=2 n=f4 v=0
258092 On ch=2 n=f#4 v=106
258092 On ch=2 n=f3 v=106
258448 On ch=2 n=f3 v=0
258448 On ch=2 n=f#4 v=0
258448 On ch=2 n=f4 v=103
258448 On ch=2 n=f3 v=103
258806 On ch=2 n=f3 v=0
258806 On ch=2 n=f4 v=0
258806 On ch=2 n=e4 v=99
258806 On ch=2 n=f3 v=99
259586 On ch=2 n=f3 v=0
259586 On ch=2 n=e4 v=0
259586 On ch=2 n=f4 v=101
259586 On ch=2 n=f3 v=101
259958 On ch=2 n=f3 v=0
259958 On ch=2 n=f4 v=0
259958 On ch=2 n=e4 v=101
259958 On ch=2 n=f3 v=101
260324 On ch=2 n=f3 v=0
260324 On ch=2 n=e4 v=0
260324 On ch=2 n=d#4 v=101
260324 On ch=2 n=f3 v=101
261054 On ch=2 n=f3 v=0
261054 On ch=2 n=d#4 v=0
261054 On ch=2 n=f3 v=101
261054 On ch=2 n=d4 v=101
261406 On ch=2 n=d4 v=0
261406 On ch=2 n=f3 v=0
261406 On ch=2 n=c#4 v=101
261406 On ch=2 n=f3 v=101
261760 On ch=2 n=f3 v=0
261760 On ch=2 n=c#4 v=0
261760 On ch=2 n=c4 v=101
261760 On ch=2 n=f3 v=101
262520 On ch=2 n=f3 v=0
262520 On ch=2 n=c4 v=0
262520 On ch=2 n=f4 v=101
262520 On ch=2 n=f3 v=101
262870 On ch=2 n=f3 v=0
262870 On ch=2 n=f4 v=0
262870 On ch=2 n=e4 v=101
262870 On ch=2 n=f3 v=101
263244 On ch=2 n=f3 v=0
263244 On ch=2 n=e4 v=0
263244 On ch=2 n=e4 v=101
263244 On ch=2 n=f3 v=101
263964 On ch=2 n=f3 v=0
263964 On ch=2 n=e4 v=0
263964 On ch=2 n=e4 v=101
263964 On ch=2 n=f3 v=101
264312 On ch=2 n=f3 v=0
264312 On ch=2 n=e4 v=0
264312 On ch=2 n=e4 v=101
264312 On ch=2 n=f3 v=101
264688 On ch=2 n=f3 v=0
264688 On ch=2 n=e4 v=0
264688 On ch=2 n=d4 v=101
264688 On ch=2 n=f3 v=101
265424 On ch=2 n=f3 v=0
265424 On ch=2 n=d4 v=0
265424 On ch=2 n=c#4 v=101
265424 On ch=2 n=f3 v=101
265786 On ch=2 n=f3 v=0
265786 On ch=2 n=c#4 v=0
265786 On ch=2 n=c4 v=101
265786 On ch=2 n=f3 v=101
266150 On ch=2 n=f3 v=0
266150 On ch=2 n=c4 v=0
266150 On ch=2 n=a#3 v=101
266150 On ch=2 n=f3 v=101
266900 On ch=2 n=f3 v=0
266900 On ch=2 n=a#3 v=0
266900 On ch=2 n=d#4 v=101
266900 On ch=2 n=f3 v=101
267256 On ch=2 n=f3 v=0
267256 On ch=2 n=d#4 v=0
267256 On ch=2 n=d4 v=101
267256 On ch=2 n=f3 v=101
267604 On ch=2 n=f3 v=0
267604 On ch=2 n=d4 v=0
267604 On ch=2 n=c#4 v=101
267604 On ch=2 n=f3 v=101
268346 On ch=2 n=f3 v=0
268346 On ch=2 n=c#4 v=0
268346 On ch=2 n=d#4 v=101
268346 On ch=2 n=f3 v=101
268688 On ch=2 n=f3 v=0
268688 On ch=2 n=d#4 v=0
268688 On ch=2 n=c#4 v=101
268688 On ch=2 n=f3 v=101
269058 On ch=2 n=f3 v=0
269058 On ch=2 n=c#4 v=0
269058 On ch=2 n=c4 v=101
269058 On ch=2 n=f3 v=101
269794 On ch=2 n=f3 v=0
269794 On ch=2 n=c4 v=0
269794 On ch=2 n=a#3 v=101
269794 On ch=2 n=f3 v=101
270146 On ch=2 n=f3 v=0
270146 On ch=2 n=a#3 v=0
270146 On ch=2 n=c4 v=101
270146 On ch=2 n=f3 v=101
270500 On ch=2 n=f3 v=0
270500 On ch=2 n=c4 v=0
270500 On ch=2 n=c#4 v=101
270500 On ch=2 n=f3 v=101
271210 On ch=2 n=f3 v=0
271210 On ch=2 n=c#4 v=0
271210 On ch=2 n=c#4 v=101
271210 On ch=2 n=f3 v=101
271562 On ch=2 n=f3 v=0
271562 On ch=2 n=c#4 v=0
271562 On ch=2 n=c#4 v=99
271562 On ch=2 n=f3 v=99
271924 On ch=2 n=f3 v=0
271924 On ch=2 n=c#4 v=0
271924 On ch=2 n=f3 v=98
271924 On ch=2 n=c#4 v=98
272648 On ch=2 n=c#4 v=0
272648 On ch=2 n=f3 v=0
272648 On ch=2 n=f3 v=98
272648 On ch=2 n=c#4 v=98
273372 On ch=2 n=c#4 v=0
273372 On ch=2 n=f3 v=0
273372 On ch=2 n=f3 v=98
273372 On ch=2 n=c#4 v=98
274112 On ch=2 n=c#4 v=0
274112 On ch=2 n=f3 v=0
274112 On ch=2 n=f3 v=98
274112 On ch=2 n=c#4 v=98
274112 On ch=2 n=e4 v=98
274880 On ch=2 n=e4 v=0
274880 On ch=2 n=c#4 v=0
274880 On ch=2 n=f3 v=0
274880 On ch=2 n=f4 v=98
274880 On ch=2 n=c4 v=98
274880 On ch=2 n=f3 v=98
275626 On ch=2 n=f3 v=0
275626 On ch=2 n=c4 v=0
275626 On ch=2 n=f4 v=0
279238 On ch=2 n=f4 v=98
284304 On ch=2 n=f4 v=0
284304 On ch=2 n=e4 v=69
290026 On ch=2 n=e4 v=0
290026 On ch=2 n=d#4 v=61
290902 On ch=2 n=d#4 v=0
290902 On ch=2 n=d#4 v=54
291384 On ch=2 n=d#4 v=0
291384 On ch=2 n=d#4 v=59
291842 On ch=2 n=d#4 v=0
291842 On ch=2 n=d#4 v=60
292830 On ch=2 n=d#4 v=0
292830 On ch=2 n=d#4 v=57
293896 On ch=2 n=d#4 v=0
293896 On ch=2 n=d#4 v=56
294912 On ch=2 n=d#4 v=0
294912 On ch=2 n=d#4 v=57
295978 On ch=2 n=d#4 v=0
295978 On ch=2 n=a3 v=54
298134 On ch=2 n=a3 v=0
298134 On ch=2 n=a#3 v=56
300372 On ch=2 n=a#3 v=0
302530 On ch=2 n=b3 v=52
304786 On ch=2 n=b3 v=0
304786 On ch=2 n=d3 v=54
306962 On ch=2 n=d3 v=0
309158 On ch=2 n=b3 v=52
311426 On ch=2 n=b3 v=0
311426 On ch=2 n=d3 v=49
313606 On ch=2 n=d3 v=0
315836 On ch=2 n=b3 v=52
318052 On ch=2 n=b3 v=0
318052 On ch=2 n=d3 v=44
320138 On ch=2 n=d3 v=0
320138 On ch=2 n=b3 v=54
322262 On ch=2 n=b3 v=0
322262 On ch=2 n=d3 v=48
324356 On ch=2 n=d3 v=0
327414 On ch=2 n=a#3 v=59
327782 On ch=2 n=a#3 v=0
327782 On ch=2 n=b3 v=62
328116 On ch=2 n=b3 v=0
328116 On ch=2 n=a3 v=61
328448 On ch=2 n=a3 v=0
328448 On ch=2 n=a#3 v=51
328810 On ch=2 n=a#3 v=0
328810 On ch=2 n=d#3 v=59
329610 On ch=2 n=d#3 v=0
331152 On ch=2 n=a#3 v=65
331152 On ch=2 n=d#3 v=65
331510 On ch=2 n=d#3 v=0
331510 On ch=2 n=a#3 v=0
331510 On ch=2 n=a#3 v=65
331510 On ch=2 n=d#3 v=65
331848 On ch=2 n=d#3 v=0
331848 On ch=2 n=a#3 v=0
331848 On ch=2 n=a#3 v=65
331848 On ch=2 n=d#3 v=65
332654 On ch=2 n=d#3 v=0
332654 On ch=2 n=a#3 v=0
332654 On ch=2 n=a#3 v=65
332654 On ch=2 n=d#3 v=65
333008 On ch=2 n=d#3 v=0
333008 On ch=2 n=a#3 v=0
333008 On ch=2 n=a#3 v=65
333008 On ch=2 n=d#3 v=65
333378 On ch=2 n=d#3 v=0
333378 On ch=2 n=a#3 v=0
333378 On ch=2 n=a#3 v=65
333378 On ch=2 n=d#3 v=65
334176 On ch=2 n=d#3 v=0
334176 On ch=2 n=a#3 v=0
334176 On ch=2 n=a#3 v=65
334176 On ch=2 n=d#3 v=65
334554 On ch=2 n=d#3 v=0
334554 On ch=2 n=a#3 v=0
334554 On ch=2 n=a#3 v=65
334554 On ch=2 n=d#3 v=65
335012 On ch=2 n=d#3 v=0
335012 On ch=2 n=a#3 v=0
335012 On ch=2 n=a#3 v=69
335012 On ch=2 n=d#3 v=69
335946 On ch=2 n=d#3 v=0
335946 On ch=2 n=a#3 v=0
336966 On ch=2 n=a#3 v=39
337394 On ch=2 n=a#3 v=0
337394 On ch=2 n=b3 v=44
337796 On ch=2 n=b3 v=0
337796 On ch=2 n=a3 v=45
338198 On ch=2 n=a3 v=0
338198 On ch=2 n=a#3 v=44
338616 On ch=2 n=a#3 v=0
338616 On ch=2 n=d#3 v=50
339428 On ch=2 n=d#3 v=0
341008 On ch=2 n=d#4 v=53
341008 On ch=2 n=g#3 v=53
341008 On ch=2 n=d#3 v=53
341398 On ch=2 n=d#3 v=0
341398 On ch=2 n=g#3 v=0
341398 On ch=2 n=d#4 v=0
341398 On ch=2 n=d#4 v=49
341398 On ch=2 n=g#3 v=49
341398 On ch=2 n=d#3 v=49
341796 On ch=2 n=d#3 v=0
341796 On ch=2 n=g#3 v=0
341796 On ch=2 n=d#4 v=0
341796 On ch=2 n=d#4 v=48
341796 On ch=2 n=g#3 v=48
341796 On ch=2 n=d#3 v=48
342618 On ch=2 n=d#3 v=0
342618 On ch=2 n=g#3 v=0
342618 On ch=2 n=d#4 v=0
342618 On ch=2 n=d#4 v=51
342618 On ch=2 n=g#3 v=51
342618 On ch=2 n=d#3 v=51
342994 On ch=2 n=d#3 v=0
342994 On ch=2 n=g#3 v=0
342994 On ch=2 n=d#4 v=0
342994 On ch=2 n=d#4 v=55
342994 On ch=2 n=g#3 v=55
342994 On ch=2 n=d#3 v=55
343382 On ch=2 n=d#3 v=0
343382 On ch=2 n=g#3 v=0
343382 On ch=2 n=d#4 v=0
343382 On ch=2 n=d#4 v=58
343382 On ch=2 n=g#3 v=58
343382 On ch=2 n=d#3 v=58
344208 On ch=2 n=d#3 v=0
344208 On ch=2 n=g#3 v=0
344208 On ch=2 n=d#4 v=0
344208 On ch=2 n=d#4 v=65
344208 On ch=2 n=g#3 v=65
344208 On ch=2 n=d#3 v=65
344594 On ch=2 n=d#3 v=0
344594 On ch=2 n=g#3 v=0
344594 On ch=2 n=d#4 v=0
344594 On ch=2 n=d#4 v=65
344594 On ch=2 n=g#3 v=65
344594 On ch=2 n=d#3 v=65
345002 On ch=2 n=d#3 v=0
345002 On ch=2 n=g#3 v=0
345002 On ch=2 n=d#4 v=0
345002 On ch=2 n=d#4 v=65
345002 On ch=2 n=g#3 v=65
345002 On ch=2 n=d#3 v=65
345804 On ch=2 n=d#3 v=0
345804 On ch=2 n=g#3 v=0
345804 On ch=2 n=d#4 v=0
346640 On ch=2 n=b3 v=63
347034 On ch=2 n=b3 v=0
347034 On ch=2 n=c#4 v=73
347394 On ch=2 n=c#4 v=0
347394 On ch=2 n=a#3 v=73
347770 On ch=2 n=a#3 v=0
347770 On ch=2 n=b3 v=73
348162 On ch=2 n=b3 v=0
348162 On ch=2 n=d#3 v=73
348928 On ch=2 n=d#3 v=0
350480 On ch=2 n=d#4 v=75
350480 On ch=2 n=g#3 v=75
350480 On ch=2 n=d#3 v=75
350830 On ch=2 n=d#3 v=0
350830 On ch=2 n=g#3 v=0
350830 On ch=2 n=d#4 v=0
350830 On ch=2 n=d#4 v=75
350830 On ch=2 n=g#3 v=75
350830 On ch=2 n=d#3 v=75
351194 On ch=2 n=d#3 v=0
351194 On ch=2 n=g#3 v=0
351194 On ch=2 n=d#4 v=0
351194 On ch=2 n=d#4 v=75
351194 On ch=2 n=g#3 v=75
351194 On ch=2 n=d#3 v=75
352004 On ch=2 n=d#3 v=0
352004 On ch=2 n=g#3 v=0
352004 On ch=2 n=d#4 v=0
352004 On ch=2 n=d#4 v=75
352004 On ch=2 n=g#3 v=75
352004 On ch=2 n=d#3 v=75
352344 On ch=2 n=d#3 v=0
352344 On ch=2 n=g#3 v=0
352344 On ch=2 n=d#4 v=0
352344 On ch=2 n=d#4 v=75
352344 On ch=2 n=g#3 v=75
352344 On ch=2 n=d#3 v=75
352726 On ch=2 n=d#3 v=0
352726 On ch=2 n=g#3 v=0
352726 On ch=2 n=d#4 v=0
352726 On ch=2 n=d#4 v=75
352726 On ch=2 n=g#3 v=75
352726 On ch=2 n=d#3 v=75
353494 On ch=2 n=d#3 v=0
353494 On ch=2 n=g#3 v=0
353494 On ch=2 n=d#4 v=0
353494 On ch=2 n=d#4 v=75
353494 On ch=2 n=g#3 v=75
353494 On ch=2 n=d#3 v=75
353834 On ch=2 n=d#3 v=0
353834 On ch=2 n=g#3 v=0
353834 On ch=2 n=d#4 v=0
353834 On ch=2 n=d#4 v=75
353834 On ch=2 n=g#3 v=75
353834 On ch=2 n=d#3 v=75
354254 On ch=2 n=d#3 v=0
354254 On ch=2 n=g#3 v=0
354254 On ch=2 n=d#4 v=0
354254 On ch=2 n=d#4 v=76
354254 On ch=2 n=g#3 v=76
354254 On ch=2 n=d#3 v=76
355186 On ch=2 n=d#3 v=0
355186 On ch=2 n=g#3 v=0
355186 On ch=2 n=d#4 v=0
356042 On ch=2 n=b3 v=81
356402 On ch=2 n=b3 v=0
356402 On ch=2 n=c#4 v=83
356762 On ch=2 n=c#4 v=0
356762 On ch=2 n=a#3 v=86
357130 On ch=2 n=a#3 v=0
357130 On ch=2 n=b3 v=88
357498 On ch=2 n=b3 v=0
357498 On ch=2 n=d#3 v=88
358252 On ch=2 n=d#3 v=0
358252 On ch=2 n=d#4 v=88
358252 On ch=2 n=b3 v=88
358252 On ch=2 n=g#3 v=88
358252 On ch=2 n=d#3 v=88
358602 On ch=2 n=d#3 v=0
358602 On ch=2 n=g#3 v=0
358602 On ch=2 n=b3 v=0
358602 On ch=2 n=d#4 v=0
358602 On ch=2 n=d#4 v=88
358602 On ch=2 n=b3 v=88
358602 On ch=2 n=g#3 v=88
358602 On ch=2 n=d#3 v=88
358964 On ch=2 n=d#3 v=0
358964 On ch=2 n=g#3 v=0
358964 On ch=2 n=b3 v=0
358964 On ch=2 n=d#4 v=0
358964 On ch=2 n=d#4 v=88
358964 On ch=2 n=b3 v=88
358964 On ch=2 n=g#3 v=88
358964 On ch=2 n=d#3 v=88
359740 On ch=2 n=d#3 v=0
359740 On ch=2 n=g#3 v=0
359740 On ch=2 n=b3 v=0
359740 On ch=2 n=d#4 v=0
359740 On ch=2 n=d#4 v=88
359740 On ch=2 n=b3 v=88
359740 On ch=2 n=g#3 v=88
359740 On ch=2 n=d#3 v=88
359752 Par ch=2 c=64 v=127
360100 On ch=2 n=d#3 v=0
360100 On ch=2 n=g#3 v=0
360100 On ch=2 n=b3 v=0
360100 On ch=2 n=d#4 v=0
360100 On ch=2 n=d#4 v=88
360100 On ch=2 n=b3 v=88
360100 On ch=2 n=g#3 v=88
360100 On ch=2 n=d#3 v=88
360454 On ch=2 n=d#3 v=0
360454 On ch=2 n=g#3 v=0
360454 On ch=2 n=b3 v=0
360454 On ch=2 n=d#4 v=0
360454 On ch=2 n=d#4 v=88
360454 On ch=2 n=b3 v=88
360454 On ch=2 n=g#3 v=88
360454 On ch=2 n=d#3 v=88
361208 On ch=2 n=d#3 v=0
361208 On ch=2 n=g#3 v=0
361208 On ch=2 n=b3 v=0
361208 On ch=2 n=d#4 v=0
361208 On ch=2 n=d#5 v=92
361208 On ch=2 n=b4 v=92
361208 On ch=2 n=g#4 v=92
361208 On ch=2 n=d#4 v=92
361562 On ch=2 n=d#4 v=0
361562 On ch=2 n=g#4 v=0
361562 On ch=2 n=b4 v=0
361562 On ch=2 n=d#5 v=0
361562 On ch=2 n=d#5 v=93
361562 On ch=2 n=b4 v=93
361562 On ch=2 n=g#4 v=93
361562 On ch=2 n=d#4 v=93
361930 On ch=2 n=d#4 v=0
361930 On ch=2 n=g#4 v=0
361930 On ch=2 n=b4 v=0
361930 On ch=2 n=d#5 v=0
361930 On ch=2 n=d#5 v=94
361930 On ch=2 n=b4 v=94
361930 On ch=2 n=g#4 v=94
361930 On ch=2 n=d#4 v=94
362662 On ch=2 n=d#4 v=0
362662 On ch=2 n=g#4 v=0
362662 On ch=2 n=b4 v=0
362662 On ch=2 n=d#5 v=0
362662 On ch=2 n=d#5 v=95
362662 On ch=2 n=b4 v=95
362662 On ch=2 n=g#4 v=95
362662 On ch=2 n=d#4 v=95
363022 On ch=2 n=d#4 v=0
363022 On ch=2 n=g#4 v=0
363022 On ch=2 n=b4 v=0
363022 On ch=2 n=d#5 v=0
363022 On ch=2 n=d#5 v=96
363022 On ch=2 n=b4 v=96
363022 On ch=2 n=g#4 v=96
363022 On ch=2 n=d#4 v=96
363384 On ch=2 n=d#4 v=0
363384 On ch=2 n=g#4 v=0
363384 On ch=2 n=b4 v=0
363384 On ch=2 n=d#5 v=0
363384 On ch=2 n=d#5 v=96
363384 On ch=2 n=b4 v=96
363384 On ch=2 n=g#4 v=96
363384 On ch=2 n=d#4 v=96
364136 On ch=2 n=d#4 v=0
364136 On ch=2 n=g#4 v=0
364136 On ch=2 n=b4 v=0
364136 On ch=2 n=d#5 v=0
364136 On ch=2 n=d#5 v=97
364136 On ch=2 n=b4 v=97
364136 On ch=2 n=g#4 v=97
364136 On ch=2 n=d#4 v=97
364492 On ch=2 n=d#4 v=0
364492 On ch=2 n=g#4 v=0
364492 On ch=2 n=b4 v=0
364492 On ch=2 n=d#5 v=0
364492 On ch=2 n=d#5 v=99
364492 On ch=2 n=b4 v=99
364492 On ch=2 n=g#4 v=99
364492 On ch=2 n=d#4 v=99
364932 On ch=2 n=d#4 v=0
364932 On ch=2 n=g#4 v=0
364932 On ch=2 n=b4 v=0
364932 On ch=2 n=d#5 v=0
364932 Par ch=2 c=64 v=0
364932 On ch=2 n=d4 v=103
364932 On ch=2 n=d3 v=103
364944 Par ch=2 c=64 v=127
365690 On ch=2 n=d3 v=0
365690 On ch=2 n=d4 v=0
365690 On ch=2 n=a#4 v=102
365690 On ch=2 n=f4 v=102
365690 On ch=2 n=d4 v=102
366058 On ch=2 n=d4 v=0
366058 On ch=2 n=f4 v=0
366058 On ch=2 n=a#4 v=0
366058 On ch=2 n=a#4 v=102
366058 On ch=2 n=f4 v=102
366058 On ch=2 n=d4 v=102
366450 On ch=2 n=d4 v=0
366450 On ch=2 n=f4 v=0
366450 On ch=2 n=a#4 v=0
366450 On ch=2 n=a#4 v=102
366450 On ch=2 n=f4 v=102
366450 On ch=2 n=d4 v=102
367196 On ch=2 n=d4 v=0
367196 On ch=2 n=f4 v=0
367196 On ch=2 n=a#4 v=0
367196 On ch=2 n=a#4 v=102
367196 On ch=2 n=f4 v=102
367196 On ch=2 n=d4 v=102
367668 On ch=2 n=d4 v=0
367668 On ch=2 n=f4 v=0
367668 On ch=2 n=a#4 v=0
367668 On ch=2 n=a#4 v=102
367668 On ch=2 n=f4 v=102
367668 On ch=2 n=d4 v=102
367998 On ch=2 n=d4 v=0
367998 On ch=2 n=f4 v=0
367998 On ch=2 n=a#4 v=0
367998 Par ch=2 c=64 v=0
367998 On ch=2 n=a#4 v=102
367998 On ch=2 n=g4 v=102
367998 On ch=2 n=d#4 v=102
367998 On ch=2 n=c#4 v=102
368734 On ch=2 n=c#4 v=0
368734 On ch=2 n=d#4 v=0
368734 On ch=2 n=g4 v=0
368734 On ch=2 n=a#4 v=0
368734 On ch=2 n=a#4 v=103
368734 On ch=2 n=g4 v=103
368734 On ch=2 n=d#4 v=103
368734 On ch=2 n=c#4 v=103
369130 On ch=2 n=c#4 v=0
369130 On ch=2 n=d#4 v=0
369130 On ch=2 n=g4 v=0
369130 On ch=2 n=a#4 v=0
369130 On ch=2 n=a#4 v=104
369130 On ch=2 n=g4 v=104
369130 On ch=2 n=d#4 v=104
369130 On ch=2 n=c#4 v=104
369502 On ch=2 n=c#4 v=0
369502 On ch=2 n=d#4 v=0
369502 On ch=2 n=g4 v=0
369502 On ch=2 n=a#4 v=0
369502 On ch=2 n=a#4 v=104
369502 On ch=2 n=d#4 v=104
369502 On ch=2 n=b3 v=104
369514 Par ch=2 c=64 v=127
370242 On ch=2 n=b3 v=0
370242 On ch=2 n=d#4 v=0
370242 On ch=2 n=a#4 v=0
370242 On ch=2 n=a#4 v=107
370242 On ch=2 n=d#4 v=107
370242 On ch=2 n=b3 v=107
370612 On ch=2 n=b3 v=0
370612 On ch=2 n=d#4 v=0
370612 On ch=2 n=a#4 v=0
370612 On ch=2 n=a#4 v=107
370612 On ch=2 n=d#4 v=107
370612 On ch=2 n=b3 v=107
370972 On ch=2 n=b3 v=0
370972 On ch=2 n=d#4 v=0
370972 On ch=2 n=a#4 v=0
370972 On ch=2 n=a#4 v=107
370972 On ch=2 n=d#4 v=107
370972 On ch=2 n=b3 v=107
371716 On ch=2 n=b3 v=0
371716 On ch=2 n=d#4 v=0
371716 On ch=2 n=a#4 v=0
371716 On ch=2 n=a#4 v=110
371716 On ch=2 n=d#4 v=110
371716 On ch=2 n=b3 v=110
372454 On ch=2 n=b3 v=0
372454 On ch=2 n=d#4 v=0
372454 On ch=2 n=a#4 v=0
372454 Par ch=2 c=64 v=0
372454 On ch=2 n=g#4 v=111
372454 On ch=2 n=d#4 v=111
372454 On ch=2 n=b3 v=111
373192 On ch=2 n=b3 v=0
373192 On ch=2 n=d#4 v=0
373192 On ch=2 n=g#4 v=0
373192 On ch=2 n=a4 v=114
373192 On ch=2 n=d#4 v=114
373192 On ch=2 n=b3 v=114
373974 On ch=2 n=b3 v=0
373974 On ch=2 n=d#4 v=0
373974 On ch=2 n=a4 v=0
373974 On ch=2 n=a#4 v=122
373974 On ch=2 n=f#4 v=122
373974 On ch=2 n=d#4 v=122
373974 On ch=2 n=a#3 v=122
373986 Par ch=2 c=64 v=127
374720 On ch=2 n=a#3 v=0
374720 On ch=2 n=d#4 v=0
374720 On ch=2 n=f#4 v=0
374720 On ch=2 n=a#4 v=0
374720 On ch=2 n=a#5 v=112
374720 On ch=2 n=f#5 v=112
374720 On ch=2 n=d#5 v=112
374720 On ch=2 n=a#4 v=112
375098 On ch=2 n=a#4 v=0
375098 On ch=2 n=d#5 v=0
375098 On ch=2 n=f#5 v=0
375098 On ch=2 n=a#5 v=0
375098 On ch=2 n=a#5 v=112
375098 On ch=2 n=f#5 v=112
375098 On ch=2 n=d#5 v=112
375098 On ch=2 n=a#4 v=112
375496 On ch=2 n=a#4 v=0
375496 On ch=2 n=d#5 v=0
375496 On ch=2 n=f#5 v=0
375496 On ch=2 n=a#5 v=0
375496 On ch=2 n=a#5 v=112
375496 On ch=2 n=f#5 v=112
375496 On ch=2 n=d#5 v=112
375496 On ch=2 n=a#4 v=112
376240 On ch=2 n=a#4 v=0
376240 On ch=2 n=d#5 v=0
376240 On ch=2 n=f#5 v=0
376240 On ch=2 n=a#5 v=0
376240 On ch=2 n=a#5 v=112
376240 On ch=2 n=f#5 v=112
376240 On ch=2 n=d#5 v=112
376240 On ch=2 n=a#4 v=112
377004 On ch=2 n=a#4 v=0
377004 On ch=2 n=d#5 v=0
377004 On ch=2 n=f#5 v=0
377004 On ch=2 n=a#5 v=0
377004 Par ch=2 c=64 v=0
377004 On ch=2 n=a#5 v=114
377004 On ch=2 n=g#5 v=114
377004 On ch=2 n=d5 v=114
377004 On ch=2 n=a#4 v=114
377674 On ch=2 n=a#4 v=0
377674 On ch=2 n=d5 v=0
377674 On ch=2 n=g#5 v=0
377674 On ch=2 n=a#5 v=0
377674 On ch=2 n=a#5 v=112
377674 On ch=2 n=g#5 v=112
377674 On ch=2 n=d5 v=112
377674 On ch=2 n=a#4 v=112
378516 On ch=2 n=a#4 v=0
378516 On ch=2 n=d5 v=0
378516 On ch=2 n=g#5 v=0
378516 On ch=2 n=a#5 v=0
415214 On ch=2 n=g#4 v=73
415214 On ch=2 n=a#3 v=73
416126 On ch=2 n=a#3 v=0
416126 On ch=2 n=g#4 v=0
419124 On ch=2 n=a#3 v=66
420152 On ch=2 n=a#3 v=0
420152 On ch=2 n=d#3 v=67
421260 On ch=2 n=d#3 v=0
423396 On ch=2 n=b3 v=29
425564 On ch=2 n=b3 v=0
426634 On ch=2 n=b3 v=46
427666 On ch=2 n=b3 v=0
427666 On ch=2 n=e4 v=48
428736 On ch=2 n=e4 v=0
428736 On ch=2 n=b3 v=49
429522 On ch=2 n=b3 v=0
429522 On ch=2 n=g#4 v=44
429522 On ch=2 n=b3 v=44
429796 On ch=2 n=b3 v=0
429796 On ch=2 n=g#4 v=0
429796 On ch=2 n=f#4 v=49
429796 On ch=2 n=b3 v=49
430860 On ch=2 n=b3 v=0
430860 On ch=2 n=f#4 v=0
430860 On ch=2 n=b3 v=65
431950 On ch=2 n=b3 v=0
433020 On ch=2 n=b3 v=47
434150 On ch=2 n=b3 v=0
434150 On ch=2 n=b3 v=45
435228 On ch=2 n=b3 v=0
435228 On ch=2 n=b3 v=44
436082 On ch=2 n=b3 v=0
436082 On ch=2 n=b3 v=41
436370 On ch=2 n=b3 v=0
436370 On ch=2 n=b3 v=44
437516 On ch=2 n=b3 v=0
437516 On ch=2 n=b3 v=42
438570 On ch=2 n=b3 v=0
439640 On ch=2 n=f#4 v=44
439640 On ch=2 n=b3 v=44
440160 On ch=2 n=b3 v=0
440160 On ch=2 n=f#4 v=0
440160 On ch=2 n=f#4 v=46
440160 On ch=2 n=b3 v=46
440656 On ch=2 n=b3 v=0
440656 On ch=2 n=f#4 v=0
440656 On ch=2 n=f#4 v=49
440656 On ch=2 n=b3 v=49
441656 On ch=2 n=b3 v=0
441656 On ch=2 n=f#4 v=0
441656 On ch=2 n=f4 v=49
441656 On ch=2 n=b3 v=49
442650 On ch=2 n=b3 v=0
442650 On ch=2 n=f4 v=0
442650 On ch=2 n=f#4 v=58
442650 On ch=2 n=a#3 v=58
443652 On ch=2 n=a#3 v=0
443652 On ch=2 n=f#4 v=0
443652 On ch=2 n=f#4 v=57
443652 On ch=2 n=a#3 v=57
444128 On ch=2 n=a#3 v=0
444128 On ch=2 n=f#4 v=0
444128 On ch=2 n=f#4 v=60
444128 On ch=2 n=a#3 v=60
444612 On ch=2 n=a#3 v=0
444612 On ch=2 n=f#4 v=0
444612 On ch=2 n=f4 v=59
444612 On ch=2 n=a#3 v=59
445574 On ch=2 n=a#3 v=0
445574 On ch=2 n=f4 v=0
445574 On ch=2 n=f4 v=74
445574 On ch=2 n=a#3 v=74
446624 On ch=2 n=a#3 v=0
446624 On ch=2 n=f4 v=0
446624 On ch=2 n=f#4 v=74
446624 On ch=2 n=f#3 v=74
448758 On ch=2 n=f#3 v=0
448758 On ch=2 n=f#4 v=0
448758 On ch=2 n=f#4 v=46
448758 On ch=2 n=b3 v=46
450858 On ch=2 n=b3 v=0
450858 On ch=2 n=f#4 v=0
451864 On ch=2 n=b3 v=51
452886 On ch=2 n=b3 v=0
452886 On ch=2 n=e4 v=60
453920 On ch=2 n=e4 v=0
453920 On ch=2 n=b3 v=61
454664 On ch=2 n=b3 v=0
454664 On ch=2 n=g#4 v=58
454664 On ch=2 n=b3 v=58
454914 On ch=2 n=b3 v=0
454914 On ch=2 n=g#4 v=0
454914 On ch=2 n=f#4 v=60
454914 On ch=2 n=b3 v=60
455990 On ch=2 n=b3 v=0
455990 On ch=2 n=f#4 v=0
455990 On ch=2 n=b3 v=61
457048 On ch=2 n=b3 v=0
458100 On ch=2 n=g#3 v=51
459176 On ch=2 n=g#3 v=0
459176 On ch=2 n=c#4 v=54
460282 On ch=2 n=c#4 v=0
460282 On ch=2 n=g#3 v=48
461098 On ch=2 n=g#3 v=0
461098 On ch=2 n=e4 v=46
461098 On ch=2 n=g#3 v=46
461356 On ch=2 n=g#3 v=0
461356 On ch=2 n=e4 v=0
461356 On ch=2 n=d#4 v=47
461356 On ch=2 n=g#3 v=47
462488 On ch=2 n=g#3 v=0
462488 On ch=2 n=d#4 v=0
462488 On ch=2 n=g#3 v=44
463584 On ch=2 n=g#3 v=0
464664 On ch=2 n=b4 v=49
464664 On ch=2 n=g#4 v=49
465134 On ch=2 n=g#4 v=0
465134 On ch=2 n=b4 v=0
465134 On ch=2 n=b4 v=55
465134 On ch=2 n=g#4 v=55
465606 On ch=2 n=g#4 v=0
465606 On ch=2 n=b4 v=0
465606 On ch=2 n=b4 v=56
465606 On ch=2 n=g#4 v=56
466564 On ch=2 n=g#4 v=0
466564 On ch=2 n=b4 v=0
466564 On ch=2 n=b4 v=60
466564 On ch=2 n=g4 v=60
467538 On ch=2 n=g4 v=0
467538 On ch=2 n=b4 v=0
467538 On ch=2 n=b4 v=63
467538 On ch=2 n=g4 v=63
468518 On ch=2 n=g4 v=0
468518 On ch=2 n=b4 v=0
468518 On ch=2 n=a#4 v=65
468518 On ch=2 n=f#4 v=65
469518 On ch=2 n=f#4 v=0
469518 On ch=2 n=a#4 v=0
469518 On ch=2 n=a#4 v=74
469518 On ch=2 n=f#4 v=74
471546 On ch=2 n=f#4 v=0
471546 On ch=2 n=a#4 v=0
471546 On ch=2 n=b4 v=44
471546 On ch=2 n=b3 v=44
472630 On ch=2 n=b3 v=0
472630 On ch=2 n=b4 v=0
473714 On ch=2 n=f#4 v=41
473714 On ch=2 n=b3 v=41
475814 On ch=2 n=b3 v=0
475814 On ch=2 n=f#4 v=0
476844 On ch=2 n=b3 v=47
477890 On ch=2 n=b3 v=0
477890 On ch=2 n=e4 v=47
478942 On ch=2 n=e4 v=0
478942 On ch=2 n=b3 v=44
479714 On ch=2 n=b3 v=0
479714 On ch=2 n=g#4 v=46
479714 On ch=2 n=b3 v=46
479964 On ch=2 n=b3 v=0
479964 On ch=2 n=g#4 v=0
479964 On ch=2 n=f#4 v=44
479964 On ch=2 n=b3 v=44
480990 On ch=2 n=b3 v=0
480990 On ch=2 n=f#4 v=0
480990 On ch=2 n=b3 v=44
482030 On ch=2 n=b3 v=0
483034 On ch=2 n=b2 v=46
484032 On ch=2 n=b2 v=0
484032 On ch=2 n=b3 v=49
484032 On ch=2 n=b2 v=49
485024 On ch=2 n=b2 v=0
485024 On ch=2 n=b3 v=0
485024 On ch=2 n=b3 v=48
485024 On ch=2 n=b2 v=48
485792 On ch=2 n=b2 v=0
485792 On ch=2 n=b3 v=0
485792 On ch=2 n=b3 v=39
485792 On ch=2 n=b2 v=39
486046 On ch=2 n=b2 v=0
486046 On ch=2 n=b3 v=0
486046 On ch=2 n=b3 v=35
486046 On ch=2 n=b2 v=35
487028 On ch=2 n=b2 v=0
487028 On ch=2 n=b3 v=0
487028 On ch=2 n=b3 v=41
487028 On ch=2 n=b2 v=41
488042 On ch=2 n=b2 v=0
488042 On ch=2 n=b3 v=0
489012 On ch=2 n=b3 v=49
489482 On ch=2 n=b3 v=0
489482 On ch=2 n=b3 v=54
489928 On ch=2 n=b3 v=0
489928 On ch=2 n=b3 v=46
490826 On ch=2 n=b3 v=0
490826 On ch=2 n=d#4 v=60
491764 On ch=2 n=d#4 v=0
491764 On ch=2 n=d#4 v=57
492628 On ch=2 n=d#4 v=0
492628 On ch=2 n=d#4 v=58
493042 On ch=2 n=d#4 v=0
493042 On ch=2 n=d#4 v=67
493458 On ch=2 n=d#4 v=0
493458 On ch=2 n=d#4 v=59
494382 On ch=2 n=d#4 v=0
494382 On ch=2 n=f#4 v=63
495364 On ch=2 n=f#4 v=0
495364 On ch=2 n=f#3 v=74
495364 On ch=2 n=f#2 v=74
498284 On ch=2 n=f#2 v=0
498284 On ch=2 n=f#3 v=0
498284 On ch=2 n=b3 v=48
498284 On ch=2 n=b2 v=48
500258 On ch=2 n=b2 v=0
500258 On ch=2 n=b3 v=0
501248 On ch=2 n=a4 v=52
501248 On ch=2 n=b3 v=52
502220 On ch=2 n=b3 v=0
502220 On ch=2 n=a4 v=0
502220 On ch=2 n=a4 v=54
502220 On ch=2 n=b3 v=54
503166 On ch=2 n=b3 v=0
503166 On ch=2 n=a4 v=0
503166 On ch=2 n=a4 v=56
503166 On ch=2 n=b3 v=56
503888 On ch=2 n=b3 v=0
503888 On ch=2 n=a4 v=0
503888 On ch=2 n=a4 v=52
503888 On ch=2 n=b3 v=52
504138 On ch=2 n=b3 v=0
504138 On ch=2 n=a4 v=0
504138 On ch=2 n=a4 v=54
504138 On ch=2 n=b3 v=54
505234 On ch=2 n=b3 v=0
505234 On ch=2 n=a4 v=0
505234 On ch=2 n=a4 v=38
505234 On ch=2 n=b3 v=38
506250 On ch=2 n=b3 v=0
506250 On ch=2 n=a4 v=0
507270 On ch=2 n=b3 v=46
508276 On ch=2 n=b3 v=0
508276 On ch=2 n=b3 v=46
508276 On ch=2 n=e3 v=46
509298 On ch=2 n=e3 v=0
509298 On ch=2 n=b3 v=0
509298 On ch=2 n=b3 v=41
509298 On ch=2 n=e3 v=41
510032 On ch=2 n=e3 v=0
510032 On ch=2 n=b3 v=0
510032 On ch=2 n=b3 v=47
510032 On ch=2 n=e3 v=47
510298 On ch=2 n=e3 v=0
510298 On ch=2 n=b3 v=0
510298 On ch=2 n=b3 v=45
510298 On ch=2 n=b2 v=45
511388 On ch=2 n=b2 v=0
511388 On ch=2 n=b3 v=0
511388 On ch=2 n=b3 v=39
511388 On ch=2 n=b2 v=39
512454 On ch=2 n=b2 v=0
512454 On ch=2 n=b3 v=0
513468 On ch=2 n=g#4 v=54
513942 On ch=2 n=g#4 v=0
513942 On ch=2 n=g#4 v=54
514380 On ch=2 n=g#4 v=0
514380 On ch=2 n=g#4 v=55
515336 On ch=2 n=g#4 v=0
515336 On ch=2 n=g4 v=52
515336 On ch=2 n=g3 v=52
516324 On ch=2 n=g3 v=0
516324 On ch=2 n=g4 v=0
516324 On ch=2 n=g4 v=52
516324 On ch=2 n=g3 v=52
517354 On ch=2 n=g3 v=0
517354 On ch=2 n=g4 v=0
517354 On ch=2 n=f#4 v=54
517354 On ch=2 n=f#3 v=54
517370 Par ch=2 c=64 v=127
518392 On ch=2 n=f#3 v=0
518392 On ch=2 n=f#4 v=0
518392 On ch=2 n=a#4 v=56
518392 On ch=2 n=f#4 v=56
520638 On ch=2 n=a#4 v=0
520638 Par ch=2 c=64 v=0
520638 On ch=2 n=b4 v=45
520638 On ch=2 n=b3 v=45
522826 On ch=2 n=b3 v=0
522826 On ch=2 n=b4 v=0
522826 On ch=2 n=a#4 v=46
522826 On ch=2 n=d#4 v=46
524906 On ch=2 n=d#4 v=0
524906 On ch=2 n=a#4 v=0
524906 On ch=2 n=f#4 v=0
526018 On ch=2 n=d#4 v=39
527106 On ch=2 n=d#4 v=0
527106 On ch=2 n=g#4 v=49
528158 On ch=2 n=g#4 v=0
528158 On ch=2 n=d#4 v=49
528960 On ch=2 n=d#4 v=0
528960 On ch=2 n=b4 v=44
528960 On ch=2 n=d#4 v=44
529192 On ch=2 n=d#4 v=0
529192 On ch=2 n=b4 v=0
529192 On ch=2 n=a#4 v=49
529192 On ch=2 n=d#4 v=49
530198 On ch=2 n=d#4 v=0
530198 On ch=2 n=a#4 v=0
530198 On ch=2 n=d#4 v=46
531222 On ch=2 n=d#4 v=0
532248 On ch=2 n=d#4 v=45
533246 On ch=2 n=d#4 v=0
533246 On ch=2 n=g#3 v=56
534268 On ch=2 n=g#3 v=0
534268 On ch=2 n=a#3 v=63
535066 On ch=2 n=a#3 v=0
535066 On ch=2 n=g#4 v=49
535066 On ch=2 n=a#3 v=49
535298 On ch=2 n=a#3 v=0
535298 On ch=2 n=g#4 v=0
535298 On ch=2 n=f#4 v=55
535298 On ch=2 n=d#4 v=55
536312 On ch=2 n=d#4 v=0
536312 On ch=2 n=f#4 v=0
536312 On ch=2 n=d#4 v=51
537312 On ch=2 n=d#4 v=0
538308 On ch=2 n=d#4 v=54
538770 On ch=2 n=d#4 v=0
538770 On ch=2 n=d#4 v=59
539208 On ch=2 n=d#4 v=0
539208 On ch=2 n=d#4 v=63
540118 On ch=2 n=d#4 v=0
540118 On ch=2 n=d#4 v=71
540604 On ch=2 n=d#4 v=0
540604 On ch=2 n=d#4 v=64
541030 On ch=2 n=d#4 v=0
541030 On ch=2 n=d#4 v=69
541946 On ch=2 n=d#4 v=0
541946 On ch=2 n=d#4 v=73
542360 On ch=2 n=d#4 v=0
542360 On ch=2 n=d#4 v=74
542806 On ch=2 n=d#4 v=0
542806 On ch=2 n=d#4 v=69
543694 On ch=2 n=d#4 v=0
543694 On ch=2 n=f#4 v=73
544718 On ch=2 n=f#4 v=0
544718 On ch=2 n=f#3 v=74
544718 On ch=2 n=f#2 v=74
546894 On ch=2 n=f#2 v=0
546894 On ch=2 n=f#3 v=0
546894 On ch=2 n=b3 v=61
546894 On ch=2 n=b2 v=61
548912 On ch=2 n=b2 v=0
548912 On ch=2 n=b3 v=0
549914 On ch=2 n=a4 v=45
549914 On ch=2 n=b3 v=45
550934 On ch=2 n=b3 v=0
550934 On ch=2 n=a4 v=0
550934 On ch=2 n=a4 v=48
550934 On ch=2 n=b3 v=48
551952 On ch=2 n=b3 v=0
551952 On ch=2 n=a4 v=0
551952 On ch=2 n=a4 v=47
551952 On ch=2 n=b3 v=47
552694 On ch=2 n=b3 v=0
552694 On ch=2 n=a4 v=0
552694 On ch=2 n=a4 v=49
552694 On ch=2 n=b3 v=49
552942 On ch=2 n=b3 v=0
552942 On ch=2 n=a4 v=0
552942 On ch=2 n=a4 v=46
552942 On ch=2 n=b3 v=46
553968 On ch=2 n=b3 v=0
553968 On ch=2 n=a4 v=0
553968 On ch=2 n=a4 v=44
553968 On ch=2 n=b3 v=44
555002 On ch=2 n=b3 v=0
555002 On ch=2 n=a4 v=0
556120 On ch=2 n=b3 v=35
557188 On ch=2 n=b3 v=0
557188 On ch=2 n=b3 v=44
557188 On ch=2 n=e3 v=44
558218 On ch=2 n=e3 v=0
558218 On ch=2 n=b3 v=0
558218 On ch=2 n=b3 v=49
558218 On ch=2 n=e3 v=49
558982 On ch=2 n=e3 v=0
558982 On ch=2 n=b3 v=0
558982 On ch=2 n=b3 v=45
558982 On ch=2 n=e3 v=45
559266 On ch=2 n=e3 v=0
559266 On ch=2 n=b3 v=0
559266 On ch=2 n=b3 v=45
559266 On ch=2 n=b2 v=45
560328 On ch=2 n=b2 v=0
560328 On ch=2 n=b3 v=0
560328 On ch=2 n=b3 v=44
560328 On ch=2 n=b2 v=44
561368 On ch=2 n=b2 v=0
561368 On ch=2 n=b3 v=0
562378 On ch=2 n=g#4 v=46
562858 On ch=2 n=g#4 v=0
562858 On ch=2 n=g#4 v=52
563298 On ch=2 n=g#4 v=0
563298 On ch=2 n=g#4 v=54
564184 On ch=2 n=g#4 v=0
564184 On ch=2 n=g4 v=69
564184 On ch=2 n=g3 v=69
565054 On ch=2 n=g3 v=0
565054 On ch=2 n=g4 v=0
565054 On ch=2 n=g4 v=64
565054 On ch=2 n=g3 v=64
565930 On ch=2 n=g3 v=0
565930 On ch=2 n=g4 v=0
565930 On ch=2 n=f#4 v=64
565930 On ch=2 n=f#3 v=64
565944 Par ch=2 c=64 v=127
566894 On ch=2 n=f#3 v=0
566894 On ch=2 n=f#4 v=0
566894 On ch=2 n=a#4 v=65
566894 On ch=2 n=f#4 v=65
568984 On ch=2 n=a#4 v=0
568984 Par ch=2 c=64 v=0
568984 On ch=2 n=b4 v=44
568984 On ch=2 n=b3 v=44
571058 On ch=2 n=b3 v=0
571058 On ch=2 n=b4 v=0
571058 On ch=2 n=f#4 v=0
571058 On ch=2 n=d#4 v=44
571058 On ch=2 n=d#3 v=44
573128 On ch=2 n=d#3 v=0
573128 On ch=2 n=d#4 v=0
574144 On ch=2 n=d#4 v=54
574144 On ch=2 n=d#3 v=54
575144 On ch=2 n=d#3 v=0
575144 On ch=2 n=d#4 v=0
575144 On ch=2 n=d#4 v=48
575144 On ch=2 n=g#3 v=48
576180 On ch=2 n=g#3 v=0
576180 On ch=2 n=d#4 v=0
576180 On ch=2 n=d#4 v=49
576180 On ch=2 n=d#3 v=49
576944 On ch=2 n=d#3 v=0
576944 On ch=2 n=d#4 v=0
576944 On ch=2 n=b4 v=45
576944 On ch=2 n=d#4 v=45
577188 On ch=2 n=d#4 v=0
577188 On ch=2 n=b4 v=0
577188 On ch=2 n=a#4 v=48
577188 On ch=2 n=d#4 v=48
578230 On ch=2 n=d#4 v=0
578230 On ch=2 n=a#4 v=0
578230 On ch=2 n=d#4 v=47
579262 On ch=2 n=d#4 v=0
580326 On ch=2 n=d#4 v=41
580326 On ch=2 n=d#3 v=41
581358 On ch=2 n=d#3 v=0
581358 On ch=2 n=d#4 v=0
581358 On ch=2 n=d#4 v=46
581358 On ch=2 n=g#3 v=46
582402 On ch=2 n=g#3 v=0
582402 On ch=2 n=d#4 v=0
582402 On ch=2 n=d#4 v=47
582402 On ch=2 n=d#3 v=47
583180 On ch=2 n=d#3 v=0
583180 On ch=2 n=d#4 v=0
583180 On ch=2 n=g#4 v=45
583180 On ch=2 n=a#3 v=45
583430 On ch=2 n=a#3 v=0
583430 On ch=2 n=g#4 v=0
583430 On ch=2 n=f#4 v=45
583430 On ch=2 n=d#4 v=45
584496 On ch=2 n=d#4 v=0
584496 On ch=2 n=f#4 v=0
584496 On ch=2 n=d#4 v=44
585540 On ch=2 n=d#4 v=0
586534 On ch=2 n=d#4 v=54
586534 On ch=2 n=d#3 v=54
586992 On ch=2 n=d#3 v=0
586992 On ch=2 n=d#4 v=0
586992 On ch=2 n=d#4 v=54
586992 On ch=2 n=d#3 v=54
587428 On ch=2 n=d#3 v=0
587428 On ch=2 n=d#4 v=0
587428 On ch=2 n=d#4 v=54
587428 On ch=2 n=d#3 v=54
588318 On ch=2 n=d#3 v=0
588318 On ch=2 n=d#4 v=0
588318 On ch=2 n=d#4 v=58
588750 On ch=2 n=d#4 v=0
588750 On ch=2 n=d#4 v=57
589178 On ch=2 n=d#4 v=0
589178 On ch=2 n=d#4 v=65
590038 On ch=2 n=d#4 v=0
590038 On ch=2 n=d#4 v=74
590446 On ch=2 n=d#4 v=0
590446 On ch=2 n=d#4 v=74
590860 On ch=2 n=d#4 v=0
590860 On ch=2 n=d#4 v=67
591666 On ch=2 n=d#4 v=0
591666 On ch=2 n=f#4 v=74
592540 On ch=2 n=f#4 v=0
592540 On ch=2 n=f#3 v=67
592540 On ch=2 n=f#2 v=67
594440 On ch=2 n=f#2 v=0
594440 On ch=2 n=f#3 v=0
594440 On ch=2 n=b2 v=49
594456 Par ch=2 c=64 v=127
594684 On ch=2 n=b2 v=0
594684 On ch=2 n=b3 v=49
594940 On ch=2 n=b3 v=0
594940 On ch=2 n=b2 v=48
595186 On ch=2 n=b2 v=0
595186 On ch=2 n=b3 v=48
595394 On ch=2 n=b3 v=0
595394 On ch=2 n=b2 v=49
595634 On ch=2 n=b2 v=0
595634 On ch=2 n=b3 v=49
595864 On ch=2 n=b3 v=0
595864 On ch=2 n=b2 v=51
596096 On ch=2 n=b2 v=0
596096 On ch=2 n=b3 v=51
596298 On ch=2 n=b3 v=0
596298 On ch=2 n=b2 v=46
596524 On ch=2 n=b2 v=0
596524 On ch=2 n=b3 v=46
596772 On ch=2 n=b3 v=0
596772 On ch=2 n=b2 v=45
597000 On ch=2 n=b2 v=0
597000 On ch=2 n=b3 v=45
597238 On ch=2 n=b3 v=0
597238 On ch=2 n=b2 v=51
597474 On ch=2 n=b2 v=0
597474 On ch=2 n=b3 v=51
597716 On ch=2 n=b3 v=0
597716 On ch=2 n=b2 v=48
597952 On ch=2 n=b2 v=0
597952 On ch=2 n=b3 v=48
598232 On ch=2 n=b3 v=0
598232 On ch=2 n=b2 v=44
598480 On ch=2 n=b2 v=0
598480 On ch=2 n=b3 v=44
598720 On ch=2 n=b3 v=0
598720 On ch=2 n=b2 v=48
598970 On ch=2 n=b2 v=0
598970 On ch=2 n=b3 v=48
599198 On ch=2 n=b3 v=0
599198 On ch=2 n=b2 v=49
599438 On ch=2 n=b2 v=0
599438 On ch=2 n=b3 v=49
599694 On ch=2 n=b3 v=0
599694 On ch=2 n=b2 v=46
599936 On ch=2 n=b2 v=0
599936 On ch=2 n=b3 v=46
600190 On ch=2 n=b3 v=0
600190 On ch=2 n=b3 v=45
600190 On ch=2 n=b2 v=45
601232 On ch=2 n=b2 v=0
601232 On ch=2 n=b3 v=0
601232 On ch=2 n=b3 v=44
601232 On ch=2 n=b2 v=44
602226 Par ch=2 c=64 v=0
602300 On ch=2 n=b2 v=0
602300 On ch=2 n=b3 v=0
603378 On ch=2 n=b3 v=37
603378 On ch=2 n=b2 v=37
604488 On ch=2 n=b2 v=0
604488 On ch=2 n=b3 v=0
604488 On ch=2 n=b3 v=41
604488 On ch=2 n=e3 v=41
605596 On ch=2 n=e3 v=0
605596 On ch=2 n=b3 v=0
605596 On ch=2 n=b3 v=42
605596 On ch=2 n=e3 v=42
606362 On ch=2 n=e3 v=0
606362 On ch=2 n=b3 v=0
606362 On ch=2 n=e3 v=46
606362 On ch=2 n=a#3 v=46
606644 On ch=2 n=a#3 v=0
606644 On ch=2 n=e3 v=0
606644 On ch=2 n=a#3 v=41
606644 On ch=2 n=d#3 v=41
607702 On ch=2 n=d#3 v=0
607702 On ch=2 n=a#3 v=0
607702 On ch=2 n=g#3 v=42
608806 On ch=2 n=g#3 v=0
609882 On ch=2 n=g#4 v=42
609882 On ch=2 n=g#3 v=42
610400 On ch=2 n=g#3 v=0
610400 On ch=2 n=g#4 v=0
610400 On ch=2 n=g#4 v=45
610400 On ch=2 n=g#3 v=45
610884 On ch=2 n=g#3 v=0
610884 On ch=2 n=g#4 v=0
610884 On ch=2 n=g#4 v=48
610884 On ch=2 n=g#3 v=48
611916 On ch=2 n=g#3 v=0
611916 On ch=2 n=g#4 v=0
611916 On ch=2 n=g4 v=46
611916 On ch=2 n=g3 v=46
612990 On ch=2 n=g3 v=0
612990 On ch=2 n=g4 v=0
612990 On ch=2 n=g4 v=42
612990 On ch=2 n=g3 v=42
614092 On ch=2 n=g3 v=0
614092 On ch=2 n=g4 v=0
614092 On ch=2 n=f#4 v=47
614092 On ch=2 n=f#3 v=47
615242 On ch=2 n=f#3 v=0
615242 On ch=2 n=f#4 v=0
615242 On ch=2 n=a#4 v=36
615242 On ch=2 n=f#4 v=36
617426 On ch=2 n=f#4 v=0
617426 On ch=2 n=a#4 v=0
617426 On ch=2 n=b4 v=39
617426 On ch=2 n=b3 v=39
618526 On ch=2 n=b3 v=0
618526 On ch=2 n=b4 v=0
620870 On ch=2 n=g#4 v=38
620870 On ch=2 n=f4 v=38
622064 On ch=2 n=f4 v=0
622064 On ch=2 n=g#4 v=0
622064 On ch=2 n=g#4 v=35
622064 On ch=2 n=f4 v=35
625546 On ch=2 n=f4 v=0
625546 On ch=2 n=a#3 v=41
626794 On ch=2 n=a#3 v=0
626794 On ch=2 n=g#4 v=0
627994 On ch=2 n=g#4 v=37
627994 On ch=2 n=f4 v=37
629102 On ch=2 n=f4 v=0
629102 On ch=2 n=g#4 v=0
629102 On ch=2 n=g#4 v=44
629102 On ch=2 n=f4 v=44
632486 On ch=2 n=f4 v=0
632486 On ch=2 n=a#3 v=42
633608 On ch=2 n=a#3 v=0
633608 On ch=2 n=g#4 v=0
635892 On ch=2 n=g#3 v=45
635892 On ch=2 n=g#2 v=45
638080 On ch=2 n=g#2 v=0
638080 On ch=2 n=g#3 v=0
638080 On ch=2 n=b2 v=42
640340 On ch=2 n=b2 v=0
640340 On ch=2 n=d3 v=35
640340 On ch=2 n=d2 v=35
646256 On ch=2 n=d2 v=0
646256 On ch=2 n=d3 v=0
646256 On ch=2 n=a#3 v=43
646658 On ch=2 n=a#3 v=0
646658 On ch=2 n=b3 v=49
647012 On ch=2 n=b3 v=0
647012 On ch=2 n=a3 v=49
647370 On ch=2 n=a3 v=0
647370 On ch=2 n=a#3 v=65
647724 On ch=2 n=a#3 v=0
647724 On ch=2 n=d#3 v=65
648612 On ch=2 n=d#3 v=0
650240 On ch=2 n=a#3 v=58
650240 On ch=2 n=d#3 v=58
650606 On ch=2 n=d#3 v=0
650606 On ch=2 n=a#3 v=0
650606 On ch=2 n=a#3 v=55
650606 On ch=2 n=d#3 v=55
650974 On ch=2 n=d#3 v=0
650974 On ch=2 n=a#3 v=0
650974 On ch=2 n=a#3 v=56
650974 On ch=2 n=d#3 v=56
651770 On ch=2 n=d#3 v=0
651770 On ch=2 n=a#3 v=0
651770 On ch=2 n=a#3 v=59
651770 On ch=2 n=d#3 v=59
652176 On ch=2 n=d#3 v=0
652176 On ch=2 n=a#3 v=0
652176 On ch=2 n=a#3 v=53
652176 On ch=2 n=d#3 v=53
652594 On ch=2 n=d#3 v=0
652594 On ch=2 n=a#3 v=0
652594 On ch=2 n=a#3 v=61
652594 On ch=2 n=d#3 v=61
653472 On ch=2 n=d#3 v=0
653472 On ch=2 n=a#3 v=0
653472 On ch=2 n=a#3 v=65
653472 On ch=2 n=d#3 v=65
653906 On ch=2 n=d#3 v=0
653906 On ch=2 n=a#3 v=0
653906 On ch=2 n=a#3 v=65
653906 On ch=2 n=d#3 v=65
654394 On ch=2 n=d#3 v=0
654394 On ch=2 n=a#3 v=0
654394 On ch=2 n=a#3 v=65
654394 On ch=2 n=d#3 v=65
655478 On ch=2 n=d#3 v=0
655478 On ch=2 n=a#3 v=0
656580 On ch=2 n=a#3 v=46
657044 On ch=2 n=a#3 v=0
657044 On ch=2 n=b3 v=41
657440 On ch=2 n=b3 v=0
657440 On ch=2 n=a3 v=46
657826 On ch=2 n=a3 v=0
657826 On ch=2 n=a#3 v=53
658242 On ch=2 n=a#3 v=0
658242 On ch=2 n=d#3 v=60
659178 On ch=2 n=d#3 v=0
660908 On ch=2 n=d#4 v=65
660908 On ch=2 n=g#3 v=65
660908 On ch=2 n=d#3 v=65
661302 On ch=2 n=d#3 v=0
661302 On ch=2 n=g#3 v=0
661302 On ch=2 n=d#4 v=0
661302 On ch=2 n=d#4 v=65
661302 On ch=2 n=g#3 v=65
661302 On ch=2 n=d#3 v=65
661696 On ch=2 n=d#3 v=0
661696 On ch=2 n=g#3 v=0
661696 On ch=2 n=d#4 v=0
661696 On ch=2 n=d#4 v=65
661696 On ch=2 n=g#3 v=65
661696 On ch=2 n=d#3 v=65
662566 On ch=2 n=d#3 v=0
662566 On ch=2 n=g#3 v=0
662566 On ch=2 n=d#4 v=0
662566 On ch=2 n=d#4 v=65
662566 On ch=2 n=g#3 v=65
662566 On ch=2 n=d#3 v=65
662964 On ch=2 n=d#3 v=0
662964 On ch=2 n=g#3 v=0
662964 On ch=2 n=d#4 v=0
662964 On ch=2 n=d#4 v=58
662964 On ch=2 n=g#3 v=58
662964 On ch=2 n=d#3 v=58
663366 On ch=2 n=d#3 v=0
663366 On ch=2 n=g#3 v=0
663366 On ch=2 n=d#4 v=0
663366 On ch=2 n=d#4 v=65
663366 On ch=2 n=g#3 v=65
663366 On ch=2 n=d#3 v=65
664234 On ch=2 n=d#3 v=0
664234 On ch=2 n=g#3 v=0
664234 On ch=2 n=d#4 v=0
664234 On ch=2 n=d#4 v=65
664234 On ch=2 n=g#3 v=65
664234 On ch=2 n=d#3 v=65
664636 On ch=2 n=d#3 v=0
664636 On ch=2 n=g#3 v=0
664636 On ch=2 n=d#4 v=0
664636 On ch=2 n=d#4 v=65
664636 On ch=2 n=g#3 v=65
664636 On ch=2 n=d#3 v=65
665146 On ch=2 n=d#3 v=0
665146 On ch=2 n=g#3 v=0
665146 On ch=2 n=d#4 v=0
665146 On ch=2 n=d#4 v=78
665146 On ch=2 n=g#3 v=78
665146 On ch=2 n=d#3 v=78
666302 On ch=2 n=d#3 v=0
666302 On ch=2 n=g#3 v=0
666302 On ch=2 n=d#4 v=0
667358 On ch=2 n=b3 v=69
667756 On ch=2 n=b3 v=0
667756 On ch=2 n=c#4 v=79
668146 On ch=2 n=c#4 v=0
668146 On ch=2 n=a#3 v=77
668540 On ch=2 n=a#3 v=0
668540 On ch=2 n=b3 v=74
668952 On ch=2 n=b3 v=0
668952 On ch=2 n=d#3 v=79
669848 On ch=2 n=d#3 v=0
671534 On ch=2 n=d#4 v=80
671534 On ch=2 n=g#3 v=80
671534 On ch=2 n=d#3 v=80
671910 On ch=2 n=d#3 v=0
671910 On ch=2 n=g#3 v=0
671910 On ch=2 n=d#4 v=0
671910 On ch=2 n=d#4 v=80
671910 On ch=2 n=g#3 v=80
671910 On ch=2 n=d#3 v=80
672306 On ch=2 n=d#3 v=0
672306 On ch=2 n=g#3 v=0
672306 On ch=2 n=d#4 v=0
672306 On ch=2 n=d#4 v=80
672306 On ch=2 n=g#3 v=80
672306 On ch=2 n=d#3 v=80
673142 On ch=2 n=d#3 v=0
673142 On ch=2 n=g#3 v=0
673142 On ch=2 n=d#4 v=0
673142 On ch=2 n=d#4 v=82
673142 On ch=2 n=g#3 v=82
673142 On ch=2 n=d#3 v=82
673520 On ch=2 n=d#3 v=0
673520 On ch=2 n=g#3 v=0
673520 On ch=2 n=d#4 v=0
673520 On ch=2 n=d#4 v=83
673520 On ch=2 n=g#3 v=83
673520 On ch=2 n=d#3 v=83
673916 On ch=2 n=d#3 v=0
673916 On ch=2 n=g#3 v=0
673916 On ch=2 n=d#4 v=0
673916 On ch=2 n=d#4 v=83
673916 On ch=2 n=g#3 v=83
673916 On ch=2 n=d#3 v=83
674740 On ch=2 n=d#3 v=0
674740 On ch=2 n=g#3 v=0
674740 On ch=2 n=d#4 v=0
674740 On ch=2 n=d#4 v=84
674740 On ch=2 n=g#3 v=84
674740 On ch=2 n=d#3 v=84
675118 On ch=2 n=d#3 v=0
675118 On ch=2 n=g#3 v=0
675118 On ch=2 n=d#4 v=0
675118 On ch=2 n=d#4 v=84
675118 On ch=2 n=g#3 v=84
675118 On ch=2 n=d#3 v=84
675584 On ch=2 n=d#3 v=0
675584 On ch=2 n=g#3 v=0
675584 On ch=2 n=d#4 v=0
675584 On ch=2 n=d#4 v=88
675584 On ch=2 n=g#3 v=88
675584 On ch=2 n=d#3 v=88
676424 On ch=2 n=d#3 v=0
676424 On ch=2 n=g#3 v=0
676424 On ch=2 n=d#4 v=0
677344 On ch=2 n=b3 v=99
677718 On ch=2 n=b3 v=0
677718 On ch=2 n=c#4 v=99
678084 On ch=2 n=c#4 v=0
678084 On ch=2 n=a#3 v=99
678466 On ch=2 n=a#3 v=0
678466 On ch=2 n=b3 v=99
678858 On ch=2 n=b3 v=0
678858 On ch=2 n=d#3 v=99
679702 On ch=2 n=d#3 v=0
679702 On ch=2 n=d#4 v=99
679702 On ch=2 n=b3 v=99
679702 On ch=2 n=g#3 v=99
679702 On ch=2 n=d#3 v=99
680060 On ch=2 n=d#3 v=0
680060 On ch=2 n=g#3 v=0
680060 On ch=2 n=b3 v=0
680060 On ch=2 n=d#4 v=0
680060 On ch=2 n=d#4 v=99
680060 On ch=2 n=b3 v=99
680060 On ch=2 n=g#3 v=99
680060 On ch=2 n=d#3 v=99
680444 On ch=2 n=d#3 v=0
680444 On ch=2 n=g#3 v=0
680444 On ch=2 n=b3 v=0
680444 On ch=2 n=d#4 v=0
680444 On ch=2 n=d#4 v=99
680444 On ch=2 n=b3 v=99
680444 On ch=2 n=g#3 v=99
680444 On ch=2 n=d#3 v=99
681258 On ch=2 n=d#3 v=0
681258 On ch=2 n=g#3 v=0
681258 On ch=2 n=b3 v=0
681258 On ch=2 n=d#4 v=0
681258 On ch=2 n=d#4 v=99
681258 On ch=2 n=b3 v=99
681258 On ch=2 n=g#3 v=99
681258 On ch=2 n=d#3 v=99
681272 Par ch=2 c=64 v=127
681626 On ch=2 n=d#3 v=0
681626 On ch=2 n=g#3 v=0
681626 On ch=2 n=b3 v=0
681626 On ch=2 n=d#4 v=0
681626 On ch=2 n=d#4 v=99
681626 On ch=2 n=b3 v=99
681626 On ch=2 n=g#3 v=99
681626 On ch=2 n=d#3 v=99
681998 On ch=2 n=d#3 v=0
681998 On ch=2 n=g#3 v=0
681998 On ch=2 n=b3 v=0
681998 On ch=2 n=d#4 v=0
681998 On ch=2 n=d#4 v=97
681998 On ch=2 n=b3 v=97
681998 On ch=2 n=g#3 v=97
681998 On ch=2 n=d#3 v=97
682772 On ch=2 n=d#3 v=0
682772 On ch=2 n=g#3 v=0
682772 On ch=2 n=b3 v=0
682772 On ch=2 n=d#4 v=0
682772 On ch=2 n=d#5 v=97
682772 On ch=2 n=b4 v=97
682772 On ch=2 n=g#4 v=97
682772 On ch=2 n=d#4 v=97
683110 On ch=2 n=d#4 v=0
683110 On ch=2 n=g#4 v=0
683110 On ch=2 n=b4 v=0
683110 On ch=2 n=d#5 v=0
683110 On ch=2 n=d#5 v=97
683110 On ch=2 n=b4 v=97
683110 On ch=2 n=g#4 v=97
683110 On ch=2 n=d#4 v=97
683450 On ch=2 n=d#4 v=0
683450 On ch=2 n=g#4 v=0
683450 On ch=2 n=b4 v=0
683450 On ch=2 n=d#5 v=0
683450 On ch=2 n=d#5 v=97
683450 On ch=2 n=b4 v=97
683450 On ch=2 n=g#4 v=97
683450 On ch=2 n=d#4 v=97
684282 On ch=2 n=d#4 v=0
684282 On ch=2 n=g#4 v=0
684282 On ch=2 n=b4 v=0
684282 On ch=2 n=d#5 v=0
684282 On ch=2 n=d#5 v=97
684282 On ch=2 n=b4 v=97
684282 On ch=2 n=g#4 v=97
684282 On ch=2 n=d#4 v=97
684606 On ch=2 n=d#4 v=0
684606 On ch=2 n=g#4 v=0
684606 On ch=2 n=b4 v=0
684606 On ch=2 n=d#5 v=0
684606 On ch=2 n=d#5 v=97
684606 On ch=2 n=b4 v=97
684606 On ch=2 n=g#4 v=97
684606 On ch=2 n=d#4 v=97
684968 On ch=2 n=d#4 v=0
684968 On ch=2 n=g#4 v=0
684968 On ch=2 n=b4 v=0
684968 On ch=2 n=d#5 v=0
684968 On ch=2 n=d#5 v=97
684968 On ch=2 n=b4 v=97
684968 On ch=2 n=g#4 v=97
684968 On ch=2 n=d#4 v=97
685728 On ch=2 n=d#4 v=0
685728 On ch=2 n=g#4 v=0
685728 On ch=2 n=b4 v=0
685728 On ch=2 n=d#5 v=0
685728 On ch=2 n=d#5 v=97
685728 On ch=2 n=b4 v=97
685728 On ch=2 n=g#4 v=97
685728 On ch=2 n=d#4 v=97
686066 On ch=2 n=d#4 v=0
686066 On ch=2 n=g#4 v=0
686066 On ch=2 n=b4 v=0
686066 On ch=2 n=d#5 v=0
686066 On ch=2 n=d#5 v=97
686066 On ch=2 n=b4 v=97
686066 On ch=2 n=g#4 v=97
686066 On ch=2 n=d#4 v=97
686490 On ch=2 n=d#4 v=0
686490 On ch=2 n=g#4 v=0
686490 On ch=2 n=b4 v=0
686490 On ch=2 n=d#5 v=0
686490 Par ch=2 c=64 v=0
686490 On ch=2 n=d4 v=112
686490 On ch=2 n=d3 v=112
686502 Par ch=2 c=64 v=127
687272 On ch=2 n=d3 v=0
687272 On ch=2 n=d4 v=0
687272 On ch=2 n=a#4 v=97
687272 On ch=2 n=f4 v=97
687272 On ch=2 n=d4 v=97
687638 On ch=2 n=d4 v=0
687638 On ch=2 n=f4 v=0
687638 On ch=2 n=a#4 v=0
687638 On ch=2 n=a#4 v=97
687638 On ch=2 n=f4 v=97
687638 On ch=2 n=d4 v=97
687986 On ch=2 n=d4 v=0
687986 On ch=2 n=f4 v=0
687986 On ch=2 n=a#4 v=0
687986 On ch=2 n=a#4 v=97
687986 On ch=2 n=f4 v=97
687986 On ch=2 n=d4 v=97
688756 On ch=2 n=d4 v=0
688756 On ch=2 n=f4 v=0
688756 On ch=2 n=a#4 v=0
688756 On ch=2 n=a#4 v=97
688756 On ch=2 n=f4 v=97
688756 On ch=2 n=d4 v=97
689140 On ch=2 n=d4 v=0
689140 On ch=2 n=f4 v=0
689140 On ch=2 n=a#4 v=0
689140 On ch=2 n=a#4 v=97
689140 On ch=2 n=f4 v=97
689140 On ch=2 n=d4 v=97
689542 On ch=2 n=d4 v=0
689542 On ch=2 n=f4 v=0
689542 On ch=2 n=a#4 v=0
689542 Par ch=2 c=64 v=0
689542 On ch=2 n=a#4 v=102
689542 On ch=2 n=g4 v=102
689542 On ch=2 n=d#4 v=102
689542 On ch=2 n=c#4 v=102
690298 On ch=2 n=c#4 v=0
690298 On ch=2 n=d#4 v=0
690298 On ch=2 n=g4 v=0
690298 On ch=2 n=a#4 v=0
690298 On ch=2 n=a#4 v=100
690298 On ch=2 n=g4 v=100
690298 On ch=2 n=d#4 v=100
690298 On ch=2 n=c#4 v=100
690700 On ch=2 n=c#4 v=0
690700 On ch=2 n=d#4 v=0
690700 On ch=2 n=g4 v=0
690700 On ch=2 n=a#4 v=0
690700 On ch=2 n=a#4 v=98
690700 On ch=2 n=g4 v=98
690700 On ch=2 n=d#4 v=98
690700 On ch=2 n=c#4 v=98
691100 On ch=2 n=c#4 v=0
691100 On ch=2 n=d#4 v=0
691100 On ch=2 n=g4 v=0
691100 On ch=2 n=a#4 v=0
691100 On ch=2 n=a#4 v=98
691100 On ch=2 n=d#4 v=98
691100 On ch=2 n=b3 v=98
691114 Par ch=2 c=64 v=127
691810 On ch=2 n=b3 v=0
691810 On ch=2 n=d#4 v=0
691810 On ch=2 n=a#4 v=0
691810 On ch=2 n=a#4 v=102
691810 On ch=2 n=d#4 v=102
691810 On ch=2 n=b3 v=102
692192 On ch=2 n=b3 v=0
692192 On ch=2 n=d#4 v=0
692192 On ch=2 n=a#4 v=0
692192 On ch=2 n=a#4 v=104
692192 On ch=2 n=d#4 v=104
692192 On ch=2 n=b3 v=104
692574 On ch=2 n=b3 v=0
692574 On ch=2 n=d#4 v=0
692574 On ch=2 n=a#4 v=0
692574 On ch=2 n=a#4 v=105
692574 On ch=2 n=d#4 v=105
692574 On ch=2 n=b3 v=105
693360 On ch=2 n=b3 v=0
693360 On ch=2 n=d#4 v=0
693360 On ch=2 n=a#4 v=0
693360 On ch=2 n=a#4 v=111
693360 On ch=2 n=d#4 v=111
693360 On ch=2 n=b3 v=111
694128 On ch=2 n=b3 v=0
694128 On ch=2 n=d#4 v=0
694128 On ch=2 n=a#4 v=0
694128 Par ch=2 c=64 v=0
694128 On ch=2 n=g#4 v=112
694128 On ch=2 n=d#4 v=112
694128 On ch=2 n=b3 v=112
694890 On ch=2 n=b3 v=0
694890 On ch=2 n=d#4 v=0
694890 On ch=2 n=g#4 v=0
694890 On ch=2 n=a4 v=112
694890 On ch=2 n=d#4 v=112
694890 On ch=2 n=b3 v=112
695740 On ch=2 n=b3 v=0
695740 On ch=2 n=d#4 v=0
695740 On ch=2 n=a4 v=0
695740 On ch=2 n=a#4 v=122
695740 On ch=2 n=f#4 v=122
695740 On ch=2 n=d#4 v=122
695740 On ch=2 n=a#3 v=122
695754 Par ch=2 c=64 v=127
696582 On ch=2 n=a#3 v=0
696582 On ch=2 n=d#4 v=0
696582 On ch=2 n=f#4 v=0
696582 On ch=2 n=a#4 v=0
696582 On ch=2 n=a#5 v=112
696582 On ch=2 n=f#5 v=112
696582 On ch=2 n=d#5 v=112
696582 On ch=2 n=a#4 v=112
696976 On ch=2 n=a#4 v=0
696976 On ch=2 n=d#5 v=0
696976 On ch=2 n=f#5 v=0
696976 On ch=2 n=a#5 v=0
696976 On ch=2 n=a#5 v=112
696976 On ch=2 n=f#5 v=112
696976 On ch=2 n=d#5 v=112
696976 On ch=2 n=a#4 v=112
697358 On ch=2 n=a#4 v=0
697358 On ch=2 n=d#5 v=0
697358 On ch=2 n=f#5 v=0
697358 On ch=2 n=a#5 v=0
697358 On ch=2 n=a#5 v=112
697358 On ch=2 n=f#5 v=112
697358 On ch=2 n=d#5 v=112
697358 On ch=2 n=a#4 v=112
698104 On ch=2 n=a#4 v=0
698104 On ch=2 n=d#5 v=0
698104 On ch=2 n=f#5 v=0
698104 On ch=2 n=a#5 v=0
698104 On ch=2 n=a#5 v=112
698104 On ch=2 n=f#5 v=112
698104 On ch=2 n=d#5 v=112
698104 On ch=2 n=a#4 v=112
698934 On ch=2 n=a#4 v=0
698934 On ch=2 n=d#5 v=0
698934 On ch=2 n=f#5 v=0
698934 On ch=2 n=a#5 v=0
698934 Par ch=2 c=64 v=0
698934 On ch=2 n=a#5 v=112
698934 On ch=2 n=g#5 v=112
698934 On ch=2 n=d5 v=112
698934 On ch=2 n=a#4 v=112
699666 On ch=2 n=a#4 v=0
699666 On ch=2 n=d5 v=0
699666 On ch=2 n=g#5 v=0
699666 On ch=2 n=a#5 v=0
699666 On ch=2 n=a#5 v=114
699666 On ch=2 n=g#5 v=114
699666 On ch=2 n=d5 v=114
699666 On ch=2 n=a#4 v=114
700518 On ch=2 n=a#4 v=0
700518 On ch=2 n=d5 v=0
700518 On ch=2 n=g#5 v=0
700518 On ch=2 n=a#5 v=0
738488 On ch=2 n=g#4 v=72
738488 On ch=2 n=a#3 v=72
739290 On ch=2 n=a#3 v=0
739290 On ch=2 n=g#4 v=0
741110 On ch=2 n=a#3 v=62
742116 On ch=2 n=a#3 v=0
742116 On ch=2 n=d#3 v=54
743126 On ch=2 n=d#3 v=0
744290 On ch=2 n=c#4 v=53
744290 On ch=2 n=c#3 v=53
746190 On ch=2 n=c#3 v=0
746190 On ch=2 n=c#4 v=0
747094 On ch=2 n=c#4 v=53
747094 On ch=2 n=f#3 v=53
747932 On ch=2 n=f#3 v=0
747932 On ch=2 n=c#4 v=0
747932 On ch=2 n=c#4 v=56
747932 On ch=2 n=c#3 v=56
748696 On ch=2 n=c#3 v=0
748696 On ch=2 n=c#4 v=0
748696 On ch=2 n=c#4 v=59
748696 On ch=2 n=f#3 v=59
749496 On ch=2 n=f#3 v=0
749496 On ch=2 n=c#4 v=0
749496 On ch=2 n=c#4 v=60
749496 On ch=2 n=c#3 v=60
749508 Par ch=2 c=64 v=127
750296 On ch=2 n=c#3 v=0
750296 On ch=2 n=c#4 v=0
750296 On ch=2 n=b4 v=60
750296 On ch=2 n=g#4 v=60
750296 On ch=2 n=c#4 v=60
750662 On ch=2 n=c#4 v=0
750662 On ch=2 n=g#4 v=0
750662 On ch=2 n=b4 v=0
750662 On ch=2 n=b4 v=63
750662 On ch=2 n=g#4 v=63
750662 On ch=2 n=c#4 v=63
751004 On ch=2 n=c#4 v=0
751004 On ch=2 n=g#4 v=0
751004 On ch=2 n=b4 v=0
751004 On ch=2 n=b4 v=68
751004 On ch=2 n=g#4 v=68
751004 On ch=2 n=c#4 v=68
751756 On ch=2 n=c#4 v=0
751756 On ch=2 n=g#4 v=0
751756 On ch=2 n=b4 v=0
751756 On ch=2 n=g#4 v=56
751756 On ch=2 n=c#4 v=56
752130 On ch=2 n=c#4 v=0
752130 On ch=2 n=g#4 v=0
752130 On ch=2 n=g#4 v=61
752130 On ch=2 n=c#4 v=61
752508 On ch=2 n=c#4 v=0
752508 On ch=2 n=g#4 v=0
752508 Par ch=2 c=64 v=0
752508 On ch=2 n=f#4 v=68
752508 On ch=2 n=f#3 v=68
753310 On ch=2 n=f#3 v=0
753310 On ch=2 n=f#4 v=0
753310 On ch=2 n=a#3 v=53
754132 On ch=2 n=a#3 v=0
754132 On ch=2 n=c#4 v=68
755794 On ch=2 n=c#4 v=0
756636 On ch=2 n=c#4 v=56
756636 On ch=2 n=f#3 v=56
757428 On ch=2 n=f#3 v=0
757428 On ch=2 n=c#4 v=0
757428 On ch=2 n=c#4 v=63
757428 On ch=2 n=c#3 v=63
758154 On ch=2 n=c#3 v=0
758154 On ch=2 n=c#4 v=0
758154 On ch=2 n=c#4 v=63
758154 On ch=2 n=f3 v=63
758560 On ch=2 n=f3 v=0
758560 On ch=2 n=c#4 v=0
758560 On ch=2 n=f#3 v=57
758964 On ch=2 n=f#3 v=0
758964 On ch=2 n=g#3 v=63
759730 On ch=2 n=g#3 v=0
759730 On ch=2 n=g#4 v=63
759730 On ch=2 n=g#3 v=63
760092 On ch=2 n=g#3 v=0
760092 On ch=2 n=g#4 v=0
760092 On ch=2 n=g#4 v=63
760092 On ch=2 n=g#3 v=63
760450 On ch=2 n=g#3 v=0
760450 On ch=2 n=g#4 v=0
760450 On ch=2 n=g#4 v=61
760450 On ch=2 n=g#3 v=61
761208 On ch=2 n=g#3 v=0
761208 On ch=2 n=g#4 v=0
761208 On ch=2 n=g#4 v=56
761208 On ch=2 n=g#3 v=56
761590 On ch=2 n=g#3 v=0
761590 On ch=2 n=g#4 v=0
761590 On ch=2 n=g#4 v=55
761590 On ch=2 n=g#3 v=55
761978 On ch=2 n=g#3 v=0
761978 On ch=2 n=g#4 v=0
761978 On ch=2 n=g#4 v=57
761978 On ch=2 n=c#4 v=57
762794 On ch=2 n=c#4 v=0
762794 On ch=2 n=g#4 v=0
762794 On ch=2 n=g#4 v=55
762794 On ch=2 n=c#4 v=55
763634 On ch=2 n=c#4 v=0
763634 On ch=2 n=g#4 v=0
763634 On ch=2 n=g#4 v=53
763634 On ch=2 n=c#4 v=53
765314 On ch=2 n=c#4 v=0
765314 On ch=2 n=g#4 v=0
766166 On ch=2 n=c#5 v=55
766166 On ch=2 n=f#4 v=55
766972 On ch=2 n=f#4 v=0
766972 On ch=2 n=c#5 v=0
766972 On ch=2 n=c#5 v=56
766972 On ch=2 n=c#4 v=56
767728 On ch=2 n=c#4 v=0
767728 On ch=2 n=c#5 v=0
767728 On ch=2 n=c#5 v=62
767728 On ch=2 n=f#4 v=62
768496 On ch=2 n=f#4 v=0
768496 On ch=2 n=c#5 v=0
768496 On ch=2 n=c#4 v=65
768496 On ch=2 n=c#3 v=65
769236 On ch=2 n=f5 v=68
769236 On ch=2 n=c#5 v=68
769236 On ch=2 n=g#4 v=68
769236 On ch=2 n=f4 v=68
769608 On ch=2 n=f4 v=0
769608 On ch=2 n=g#4 v=0
769608 On ch=2 n=c#5 v=0
769608 On ch=2 n=f5 v=0
769608 On ch=2 n=f5 v=66
769608 On ch=2 n=c#5 v=66
769608 On ch=2 n=g#4 v=66
769608 On ch=2 n=f4 v=66
769984 On ch=2 n=f4 v=0
769984 On ch=2 n=g#4 v=0
769984 On ch=2 n=c#5 v=0
769984 On ch=2 n=f5 v=0
769984 On ch=2 n=f5 v=66
769984 On ch=2 n=c#5 v=66
769984 On ch=2 n=g#4 v=66
769984 On ch=2 n=f4 v=66
770732 On ch=2 n=f4 v=0
770732 On ch=2 n=g#4 v=0
770732 On ch=2 n=c#5 v=0
770732 On ch=2 n=f5 v=0
770732 On ch=2 n=f5 v=65
770732 On ch=2 n=c#5 v=65
770732 On ch=2 n=g#4 v=65
770732 On ch=2 n=f4 v=65
771104 On ch=2 n=f4 v=0
771104 On ch=2 n=g#4 v=0
771104 On ch=2 n=c#5 v=0
771104 On ch=2 n=f5 v=0
771104 On ch=2 n=f5 v=70
771104 On ch=2 n=c#5 v=70
771104 On ch=2 n=g#4 v=70
771104 On ch=2 n=f4 v=70
771474 On ch=2 n=f4 v=0
771474 On ch=2 n=g#4 v=0
771474 On ch=2 n=c#5 v=0
771474 On ch=2 n=f5 v=0
771474 On ch=2 n=c#3 v=0
771474 On ch=2 n=c#4 v=0
771474 On ch=2 n=f#4 v=68
771474 On ch=2 n=f#3 v=68
772258 On ch=2 n=f#3 v=0
772258 On ch=2 n=f#4 v=0
772258 On ch=2 n=a#4 v=66
772258 On ch=2 n=a#3 v=66
773016 On ch=2 n=a#3 v=0
773016 On ch=2 n=a#4 v=0
773016 On ch=2 n=c#5 v=65
773016 On ch=2 n=c#4 v=65
774488 On ch=2 n=c#4 v=0
774488 On ch=2 n=c#5 v=0
775290 On ch=2 n=c#5 v=81
775290 On ch=2 n=f#4 v=81
776036 On ch=2 n=f#4 v=0
776036 On ch=2 n=c#5 v=0
776036 On ch=2 n=c#4 v=74
776036 On ch=2 n=c#3 v=74
776788 On ch=2 n=c#3 v=0
776788 On ch=2 n=c#4 v=0
776788 On ch=2 n=f4 v=81
776788 On ch=2 n=f3 v=81
777182 On ch=2 n=f3 v=0
777182 On ch=2 n=f4 v=0
777182 On ch=2 n=f#4 v=74
777182 On ch=2 n=f#3 v=74
777568 On ch=2 n=f#3 v=0
777568 On ch=2 n=f#4 v=0
777568 On ch=2 n=g#4 v=77
777568 On ch=2 n=g#3 v=77
778326 On ch=2 n=g#3 v=0
778326 On ch=2 n=g#4 v=0
778326 On ch=2 n=c5 v=74
778326 On ch=2 n=g#4 v=74
778326 On ch=2 n=d#4 v=74
778682 On ch=2 n=d#4 v=0
778682 On ch=2 n=g#4 v=0
778682 On ch=2 n=c5 v=0
778682 On ch=2 n=c5 v=74
778682 On ch=2 n=g#4 v=74
778682 On ch=2 n=d#4 v=74
779040 On ch=2 n=d#4 v=0
779040 On ch=2 n=g#4 v=0
779040 On ch=2 n=c5 v=0
779040 On ch=2 n=c5 v=81
779040 On ch=2 n=g#4 v=81
779040 On ch=2 n=d#4 v=81
779780 On ch=2 n=d#4 v=0
779780 On ch=2 n=g#4 v=0
779780 On ch=2 n=c5 v=0
779780 On ch=2 n=c5 v=74
779780 On ch=2 n=g#4 v=74
779780 On ch=2 n=d#4 v=74
780150 On ch=2 n=d#4 v=0
780150 On ch=2 n=g#4 v=0
780150 On ch=2 n=c5 v=0
780150 On ch=2 n=c5 v=74
780150 On ch=2 n=g#4 v=74
780150 On ch=2 n=d#4 v=74
780522 On ch=2 n=d#4 v=0
780522 On ch=2 n=g#4 v=0
780522 On ch=2 n=c5 v=0
780522 On ch=2 n=c#5 v=77
780522 On ch=2 n=g#4 v=77
780522 On ch=2 n=c#4 v=77
781300 On ch=2 n=c#4 v=0
781300 On ch=2 n=g#4 v=0
781300 On ch=2 n=c#5 v=0
781300 On ch=2 n=c#4 v=81
781300 On ch=2 n=c#3 v=81
782096 On ch=2 n=c#3 v=0
782096 On ch=2 n=c#4 v=0
782096 On ch=2 n=c#4 v=81
782096 On ch=2 n=c#3 v=81
782846 On ch=2 n=c#3 v=0
782846 On ch=2 n=c#4 v=0
782846 On ch=2 n=d#4 v=82
782846 On ch=2 n=d#3 v=82
783624 On ch=2 n=d#3 v=0
783624 On ch=2 n=d#4 v=0
783624 On ch=2 n=e4 v=83
783624 On ch=2 n=e3 v=83
784016 Par ch=2 c=64 v=127
784370 On ch=2 n=e3 v=0
784370 On ch=2 n=e4 v=0
784370 On ch=2 n=c#5 v=87
784370 On ch=2 n=a4 v=87
784370 On ch=2 n=e4 v=87
784734 On ch=2 n=e4 v=0
784734 On ch=2 n=a4 v=0
784734 On ch=2 n=c#5 v=0
784734 On ch=2 n=c#5 v=88
784734 On ch=2 n=a4 v=88
784734 On ch=2 n=e4 v=88
785102 On ch=2 n=e4 v=0
785102 On ch=2 n=a4 v=0
785102 On ch=2 n=c#5 v=0
785102 On ch=2 n=c#5 v=88
785102 On ch=2 n=a4 v=88
785102 On ch=2 n=e4 v=88
785840 On ch=2 n=e4 v=0
785840 On ch=2 n=a4 v=0
785840 On ch=2 n=c#5 v=0
785840 On ch=2 n=c#5 v=90
785840 On ch=2 n=a4 v=90
785840 On ch=2 n=e4 v=90
786610 On ch=2 n=e4 v=0
786610 On ch=2 n=a4 v=0
786610 On ch=2 n=c#5 v=0
786610 Par ch=2 c=64 v=0
786610 On ch=2 n=d5 v=90
786610 On ch=2 n=b4 v=90
786610 On ch=2 n=e4 v=90
787392 On ch=2 n=e4 v=0
787392 On ch=2 n=b4 v=0
787392 On ch=2 n=d5 v=0
787392 On ch=2 n=e5 v=90
787392 On ch=2 n=d5 v=90
787392 On ch=2 n=b4 v=90
787392 On ch=2 n=e4 v=90
787760 On ch=2 n=e4 v=0
787760 On ch=2 n=b4 v=0
787760 On ch=2 n=d5 v=0
787760 On ch=2 n=e5 v=0
787760 On ch=2 n=e5 v=86
787760 On ch=2 n=d5 v=86
787760 On ch=2 n=b4 v=86
787760 On ch=2 n=e4 v=86
788122 On ch=2 n=e4 v=0
788122 On ch=2 n=b4 v=0
788122 On ch=2 n=d5 v=0
788122 On ch=2 n=e5 v=0
788122 On ch=2 n=e5 v=87
788122 On ch=2 n=d5 v=87
788122 On ch=2 n=b4 v=87
788122 On ch=2 n=e4 v=87
788858 On ch=2 n=e4 v=0
788858 On ch=2 n=b4 v=0
788858 On ch=2 n=d5 v=0
788858 On ch=2 n=e5 v=0
788858 On ch=2 n=e5 v=87
788858 On ch=2 n=d5 v=87
788858 On ch=2 n=b4 v=87
788858 On ch=2 n=e4 v=87
789228 On ch=2 n=e4 v=0
789228 On ch=2 n=b4 v=0
789228 On ch=2 n=d5 v=0
789228 On ch=2 n=e5 v=0
789228 On ch=2 n=e5 v=90
789228 On ch=2 n=d5 v=90
789228 On ch=2 n=b4 v=90
789228 On ch=2 n=e4 v=90
789596 On ch=2 n=e4 v=0
789596 On ch=2 n=b4 v=0
789596 On ch=2 n=d5 v=0
789596 On ch=2 n=e5 v=0
789596 On ch=2 n=e5 v=88
789596 On ch=2 n=c#5 v=88
789596 On ch=2 n=a4 v=88
790356 On ch=2 n=a4 v=0
790356 On ch=2 n=c#5 v=0
790356 On ch=2 n=e5 v=0
790356 On ch=2 n=a4 v=90
790356 On ch=2 n=a3 v=90
791110 On ch=2 n=a3 v=0
791110 On ch=2 n=a4 v=0
791110 On ch=2 n=a3 v=91
791110 On ch=2 n=a2 v=91
791850 On ch=2 n=a2 v=0
791850 On ch=2 n=a3 v=0
791850 On ch=2 n=a#3 v=94
791850 On ch=2 n=a#2 v=94
792584 On ch=2 n=a#2 v=0
792584 On ch=2 n=a#3 v=0
792584 On ch=2 n=c4 v=96
792584 On ch=2 n=c3 v=96
792942 Par ch=2 c=64 v=127
793308 On ch=2 n=c3 v=0
793308 On ch=2 n=c4 v=0
793308 On ch=2 n=c5 v=96
793308 On ch=2 n=a4 v=96
793308 On ch=2 n=c4 v=96
793716 On ch=2 n=c4 v=0
793716 On ch=2 n=a4 v=0
793716 On ch=2 n=c5 v=0
793716 On ch=2 n=c5 v=96
793716 On ch=2 n=a4 v=96
793716 On ch=2 n=c4 v=96
794084 On ch=2 n=c4 v=0
794084 On ch=2 n=a4 v=0
794084 On ch=2 n=c5 v=0
794084 On ch=2 n=c5 v=96
794084 On ch=2 n=a4 v=96
794084 On ch=2 n=c4 v=96
794828 On ch=2 n=c4 v=0
794828 On ch=2 n=a4 v=0
794828 On ch=2 n=c5 v=0
794828 On ch=2 n=c5 v=91
794828 On ch=2 n=a4 v=91
794828 On ch=2 n=c4 v=91
795214 On ch=2 n=c4 v=0
795214 On ch=2 n=a4 v=0
795214 On ch=2 n=c5 v=0
795214 On ch=2 n=c5 v=94
795214 On ch=2 n=a4 v=94
795214 On ch=2 n=c4 v=94
795590 On ch=2 n=c4 v=0
795590 On ch=2 n=a4 v=0
795590 On ch=2 n=c5 v=0
795590 Par ch=2 c=64 v=0
795590 On ch=2 n=c5 v=94
795590 On ch=2 n=a#4 v=94
795590 On ch=2 n=g4 v=94
795590 On ch=2 n=c4 v=94
796340 On ch=2 n=c4 v=0
796340 On ch=2 n=g4 v=0
796340 On ch=2 n=a#4 v=0
796340 On ch=2 n=c5 v=0
796340 On ch=2 n=c5 v=89
796340 On ch=2 n=a#4 v=89
796340 On ch=2 n=g4 v=89
796340 On ch=2 n=c4 v=89
796718 On ch=2 n=c4 v=0
796718 On ch=2 n=g4 v=0
796718 On ch=2 n=a#4 v=0
796718 On ch=2 n=c5 v=0
796718 On ch=2 n=c5 v=94
796718 On ch=2 n=a#4 v=94
796718 On ch=2 n=g4 v=94
796718 On ch=2 n=c4 v=94
797084 On ch=2 n=c4 v=0
797084 On ch=2 n=g4 v=0
797084 On ch=2 n=a#4 v=0
797084 On ch=2 n=c5 v=0
797084 On ch=2 n=c5 v=95
797084 On ch=2 n=a#4 v=95
797084 On ch=2 n=g4 v=95
797084 On ch=2 n=c4 v=95
797818 On ch=2 n=c4 v=0
797818 On ch=2 n=g4 v=0
797818 On ch=2 n=a#4 v=0
797818 On ch=2 n=c5 v=0
797818 On ch=2 n=c5 v=92
797818 On ch=2 n=a#4 v=92
797818 On ch=2 n=g4 v=92
797818 On ch=2 n=c4 v=92
798186 On ch=2 n=c4 v=0
798186 On ch=2 n=g4 v=0
798186 On ch=2 n=a#4 v=0
798186 On ch=2 n=c5 v=0
798186 On ch=2 n=c5 v=93
798186 On ch=2 n=a#4 v=93
798186 On ch=2 n=g4 v=93
798186 On ch=2 n=c4 v=93
798548 On ch=2 n=c4 v=0
798548 On ch=2 n=g4 v=0
798548 On ch=2 n=a#4 v=0
798548 On ch=2 n=c5 v=0
798548 On ch=2 n=c5 v=93
798548 On ch=2 n=a4 v=93
798548 On ch=2 n=f4 v=93
799290 On ch=2 n=f4 v=0
799290 On ch=2 n=a4 v=0
799290 On ch=2 n=c5 v=0
799290 On ch=2 n=f4 v=96
799290 On ch=2 n=f3 v=96
800064 On ch=2 n=f3 v=0
800064 On ch=2 n=f4 v=0
800064 On ch=2 n=f#4 v=107
800064 On ch=2 n=d#4 v=107
800064 On ch=2 n=f3 v=107
800076 Par ch=2 c=64 v=127
800830 On ch=2 n=f3 v=0
800830 On ch=2 n=f3 v=101
801230 On ch=2 n=f3 v=0
801230 On ch=2 n=f3 v=104
801584 On ch=2 n=f3 v=0
801584 On ch=2 n=f3 v=106
802344 On ch=2 n=f3 v=0
802344 On ch=2 n=f3 v=91
803110 On ch=2 n=f3 v=0
803110 Par ch=2 c=64 v=0
803110 On ch=2 n=f3 v=86
803884 On ch=2 n=f3 v=0
803884 On ch=2 n=d#4 v=0
803884 On ch=2 n=f#4 v=0
803884 On ch=2 n=e4 v=86
803884 On ch=2 n=f3 v=86
804658 On ch=2 n=f3 v=0
804658 On ch=2 n=e4 v=0
804658 On ch=2 n=f4 v=86
804658 On ch=2 n=f3 v=86
805406 On ch=2 n=f3 v=0
805406 On ch=2 n=f4 v=0
805406 On ch=2 n=f#4 v=95
805406 On ch=2 n=f3 v=95
805772 On ch=2 n=f3 v=0
805772 On ch=2 n=f#4 v=0
805772 On ch=2 n=f4 v=96
805772 On ch=2 n=f3 v=96
806156 On ch=2 n=f3 v=0
806156 On ch=2 n=f4 v=0
806156 On ch=2 n=e4 v=98
806156 On ch=2 n=f3 v=98
806946 On ch=2 n=f3 v=0
806946 On ch=2 n=e4 v=0
806946 On ch=2 n=f4 v=100
806946 On ch=2 n=f3 v=100
807326 On ch=2 n=f3 v=0
807326 On ch=2 n=f4 v=0
807326 On ch=2 n=e4 v=101
807326 On ch=2 n=f3 v=101
807708 On ch=2 n=f3 v=0
807708 On ch=2 n=e4 v=0
807708 On ch=2 n=d#4 v=102
807708 On ch=2 n=f3 v=102
808480 On ch=2 n=f3 v=0
808480 On ch=2 n=d#4 v=0
808480 On ch=2 n=d4 v=104
808480 On ch=2 n=f3 v=104
808856 On ch=2 n=f3 v=0
808856 On ch=2 n=d4 v=0
808856 On ch=2 n=c#4 v=106
808856 On ch=2 n=f3 v=106
809246 On ch=2 n=f3 v=0
809246 On ch=2 n=c#4 v=0
809246 On ch=2 n=c4 v=108
809246 On ch=2 n=f3 v=108
810030 On ch=2 n=f3 v=0
810030 On ch=2 n=c4 v=0
810030 On ch=2 n=f#4 v=110
810030 On ch=2 n=f3 v=110
810042 Par ch=2 c=64 v=127
810414 On ch=2 n=f3 v=0
810414 On ch=2 n=f#4 v=0
810414 On ch=2 n=f#4 v=110
810414 On ch=2 n=f3 v=110
810806 On ch=2 n=f3 v=0
810806 On ch=2 n=f#4 v=0
810806 On ch=2 n=f#4 v=110
810806 On ch=2 n=f3 v=110
811536 On ch=2 n=f3 v=0
811536 On ch=2 n=f#4 v=0
811536 On ch=2 n=f#4 v=110
811536 On ch=2 n=f3 v=110
812290 On ch=2 n=f3 v=0
812290 On ch=2 n=f#4 v=0
812290 Par ch=2 c=64 v=0
812290 On ch=2 n=f#4 v=110
812290 On ch=2 n=f3 v=110
813058 On ch=2 n=f3 v=0
813058 On ch=2 n=f#4 v=0
813058 On ch=2 n=e4 v=110
813058 On ch=2 n=f3 v=110
813832 On ch=2 n=f3 v=0
813832 On ch=2 n=e4 v=0
813832 On ch=2 n=f4 v=110
813832 On ch=2 n=f3 v=110
814604 On ch=2 n=f3 v=0
814604 On ch=2 n=f4 v=0
814604 On ch=2 n=f#4 v=110
814604 On ch=2 n=f3 v=110
814984 On ch=2 n=f3 v=0
814984 On ch=2 n=f#4 v=0
814984 On ch=2 n=f4 v=110
814984 On ch=2 n=f3 v=110
815352 On ch=2 n=f3 v=0
815352 On ch=2 n=f4 v=0
815352 On ch=2 n=e4 v=110
815352 On ch=2 n=f3 v=110
816110 On ch=2 n=f3 v=0
816110 On ch=2 n=e4 v=0
816110 On ch=2 n=f4 v=110
816110 On ch=2 n=f3 v=110
816484 On ch=2 n=f3 v=0
816484 On ch=2 n=f4 v=0
816484 On ch=2 n=e4 v=110
816484 On ch=2 n=f3 v=110
816864 On ch=2 n=f3 v=0
816864 On ch=2 n=e4 v=0
816864 On ch=2 n=d#4 v=110
816864 On ch=2 n=f3 v=110
817616 On ch=2 n=f3 v=0
817616 On ch=2 n=d#4 v=0
817616 On ch=2 n=f3 v=110
817616 On ch=2 n=d4 v=110
817992 On ch=2 n=d4 v=0
817992 On ch=2 n=f3 v=0
817992 On ch=2 n=c#4 v=109
817992 On ch=2 n=f3 v=109
818366 On ch=2 n=f3 v=0
818366 On ch=2 n=c#4 v=0
818366 On ch=2 n=c4 v=109
818366 On ch=2 n=f3 v=109
819110 On ch=2 n=f3 v=0
819110 On ch=2 n=c4 v=0
819110 On ch=2 n=f4 v=108
819110 On ch=2 n=f3 v=108
819474 On ch=2 n=f3 v=0
819474 On ch=2 n=f4 v=0
819474 On ch=2 n=e4 v=108
819474 On ch=2 n=f3 v=108
819846 On ch=2 n=f3 v=0
819846 On ch=2 n=e4 v=0
819846 On ch=2 n=e4 v=108
819846 On ch=2 n=f3 v=108
820602 On ch=2 n=f3 v=0
820602 On ch=2 n=e4 v=0
820602 On ch=2 n=e4 v=108
820602 On ch=2 n=f3 v=108
820994 On ch=2 n=f3 v=0
820994 On ch=2 n=e4 v=0
820994 On ch=2 n=e4 v=108
820994 On ch=2 n=f3 v=108
821350 On ch=2 n=f3 v=0
821350 On ch=2 n=e4 v=0
821350 On ch=2 n=d4 v=108
821350 On ch=2 n=f3 v=108
822112 On ch=2 n=f3 v=0
822112 On ch=2 n=d4 v=0
822112 On ch=2 n=c#4 v=107
822112 On ch=2 n=f3 v=107
822482 On ch=2 n=f3 v=0
822482 On ch=2 n=c#4 v=0
822482 On ch=2 n=c4 v=107
822482 On ch=2 n=f3 v=107
822858 On ch=2 n=f3 v=0
822858 On ch=2 n=c4 v=0
822858 On ch=2 n=a#3 v=107
822858 On ch=2 n=f3 v=107
823634 On ch=2 n=f3 v=0
823634 On ch=2 n=a#3 v=0
823634 On ch=2 n=d#4 v=107
823634 On ch=2 n=f3 v=107
824000 On ch=2 n=f3 v=0
824000 On ch=2 n=d#4 v=0
824000 On ch=2 n=d4 v=107
824000 On ch=2 n=f3 v=107
824378 On ch=2 n=f3 v=0
824378 On ch=2 n=d4 v=0
824378 On ch=2 n=c#4 v=107
824378 On ch=2 n=f3 v=107
825140 On ch=2 n=f3 v=0
825140 On ch=2 n=c#4 v=0
825140 On ch=2 n=d#4 v=104
825140 On ch=2 n=f3 v=104
825520 On ch=2 n=f3 v=0
825520 On ch=2 n=d#4 v=0
825520 On ch=2 n=c#4 v=104
825520 On ch=2 n=f3 v=104
825886 On ch=2 n=f3 v=0
825886 On ch=2 n=c#4 v=0
825886 On ch=2 n=c4 v=104
825886 On ch=2 n=f3 v=104
826644 On ch=2 n=f3 v=0
826644 On ch=2 n=c4 v=0
826644 On ch=2 n=a#3 v=108
826644 On ch=2 n=f3 v=108
827012 On ch=2 n=f3 v=0
827012 On ch=2 n=a#3 v=0
827012 On ch=2 n=c4 v=108
827012 On ch=2 n=f3 v=108
827380 On ch=2 n=f3 v=0
827380 On ch=2 n=c4 v=0
827380 On ch=2 n=c#4 v=108
827380 On ch=2 n=f3 v=108
828122 On ch=2 n=f3 v=0
828122 On ch=2 n=c#4 v=0
828122 On ch=2 n=c#4 v=108
828122 On ch=2 n=f3 v=108
828504 On ch=2 n=f3 v=0
828504 On ch=2 n=c#4 v=0
828504 On ch=2 n=c#4 v=108
828504 On ch=2 n=f3 v=108
828874 On ch=2 n=f3 v=0
828874 On ch=2 n=c#4 v=0
828874 On ch=2 n=f3 v=108
828874 On ch=2 n=c#4 v=108
829636 On ch=2 n=c#4 v=0
829636 On ch=2 n=f3 v=0
829636 On ch=2 n=f3 v=108
829636 On ch=2 n=c#4 v=108
830400 On ch=2 n=c#4 v=0
830400 On ch=2 n=f3 v=0
830400 On ch=2 n=f3 v=108
830400 On ch=2 n=c#4 v=108
831142 On ch=2 n=c#4 v=0
831142 On ch=2 n=f3 v=0
831142 On ch=2 n=f3 v=108
831142 On ch=2 n=c#4 v=108
831142 On ch=2 n=e4 v=108
831920 On ch=2 n=e4 v=0
831920 On ch=2 n=c#4 v=0
831920 On ch=2 n=f3 v=0
831920 On ch=2 n=f4 v=108
831920 On ch=2 n=c4 v=108
831920 On ch=2 n=f3 v=108
832676 On ch=2 n=f3 v=0
832676 On ch=2 n=c4 v=0
832676 On ch=2 n=f4 v=0
836492 On ch=2 n=f4 v=108
841842 On ch=2 n=f4 v=0
841842 On ch=2 n=e4 v=85
847786 On ch=2 n=e4 v=0
847786 On ch=2 n=d#4 v=69
848784 On ch=2 n=d#4 v=0
848784 On ch=2 n=d#4 v=67
849268 On ch=2 n=d#4 v=0
849268 On ch=2 n=d#4 v=66
849768 On ch=2 n=d#4 v=0
849768 On ch=2 n=d#4 v=65
850836 On ch=2 n=d#4 v=0
850836 On ch=2 n=d#4 v=61
851878 On ch=2 n=d#4 v=0
851878 On ch=2 n=d#4 v=63
852960 On ch=2 n=d#4 v=0
852960 On ch=2 n=d#4 v=60
854044 On ch=2 n=d#4 v=0
854044 On ch=2 n=a3 v=61
856192 On ch=2 n=a3 v=0
856192 On ch=2 n=a#3 v=56
858244 On ch=2 n=a#3 v=0
860282 On ch=2 n=b3 v=60
862280 On ch=2 n=b3 v=0
862280 On ch=2 n=d3 v=59
864256 On ch=2 n=d3 v=0
866440 On ch=2 n=b3 v=58
868506 On ch=2 n=b3 v=0
868506 On ch=2 n=d3 v=58
870606 On ch=2 n=d3 v=0
872738 On ch=2 n=b3 v=59
874830 On ch=2 n=b3 v=0
874830 On ch=2 n=d3 v=51
876970 On ch=2 n=d3 v=0
876970 On ch=2 n=b3 v=51
879060 On ch=2 n=b3 v=0
879060 On ch=2 n=d3 v=49
880972 On ch=2 n=d3 v=0
884274 On ch=2 n=a#3 v=57
884660 On ch=2 n=a#3 v=0
884660 On ch=2 n=b3 v=62
885030 On ch=2 n=b3 v=0
885030 On ch=2 n=a3 v=58
885394 On ch=2 n=a3 v=0
885394 On ch=2 n=a#3 v=58
885768 On ch=2 n=a#3 v=0
885768 On ch=2 n=d#3 v=65
886562 On ch=2 n=d#3 v=0
888196 On ch=2 n=a#3 v=58
888196 On ch=2 n=d#3 v=58
888568 On ch=2 n=d#3 v=0
888568 On ch=2 n=a#3 v=0
888568 On ch=2 n=a#3 v=57
888568 On ch=2 n=d#3 v=57
888944 On ch=2 n=d#3 v=0
888944 On ch=2 n=a#3 v=0
888944 On ch=2 n=a#3 v=56
888944 On ch=2 n=d#3 v=56
889714 On ch=2 n=d#3 v=0
889714 On ch=2 n=a#3 v=0
889714 On ch=2 n=a#3 v=59
889714 On ch=2 n=d#3 v=59
890098 On ch=2 n=d#3 v=0
890098 On ch=2 n=a#3 v=0
890098 On ch=2 n=a#3 v=58
890098 On ch=2 n=d#3 v=58
890478 On ch=2 n=d#3 v=0
890478 On ch=2 n=a#3 v=0
890478 On ch=2 n=a#3 v=58
890478 On ch=2 n=d#3 v=58
891288 On ch=2 n=d#3 v=0
891288 On ch=2 n=a#3 v=0
891288 On ch=2 n=a#3 v=57
891288 On ch=2 n=d#3 v=57
891676 On ch=2 n=d#3 v=0
891676 On ch=2 n=a#3 v=0
891676 On ch=2 n=a#3 v=57
891676 On ch=2 n=d#3 v=57
892070 On ch=2 n=d#3 v=0
892070 On ch=2 n=a#3 v=0
892070 On ch=2 n=a#3 v=58
892070 On ch=2 n=d#3 v=58
892876 On ch=2 n=d#3 v=0
892876 On ch=2 n=a#3 v=0
893636 On ch=2 n=a#3 v=60
894020 On ch=2 n=a#3 v=0
894020 On ch=2 n=b3 v=60
894386 On ch=2 n=b3 v=0
894386 On ch=2 n=a3 v=57
894770 On ch=2 n=a3 v=0
894770 On ch=2 n=a#3 v=65
895148 On ch=2 n=a#3 v=0
895148 On ch=2 n=d#3 v=61
895948 On ch=2 n=d#3 v=0
897594 On ch=2 n=d#4 v=56
897594 On ch=2 n=g#3 v=56
897594 On ch=2 n=d#3 v=56
897978 On ch=2 n=d#3 v=0
897978 On ch=2 n=g#3 v=0
897978 On ch=2 n=d#4 v=0
897978 On ch=2 n=d#4 v=55
897978 On ch=2 n=g#3 v=55
897978 On ch=2 n=d#3 v=55
898356 On ch=2 n=d#3 v=0
898356 On ch=2 n=g#3 v=0
898356 On ch=2 n=d#4 v=0
898356 On ch=2 n=d#4 v=60
898356 On ch=2 n=g#3 v=60
898356 On ch=2 n=d#3 v=60
899138 On ch=2 n=d#3 v=0
899138 On ch=2 n=g#3 v=0
899138 On ch=2 n=d#4 v=0
899138 On ch=2 n=d#4 v=65
899138 On ch=2 n=g#3 v=65
899138 On ch=2 n=d#3 v=65
899518 On ch=2 n=d#3 v=0
899518 On ch=2 n=g#3 v=0
899518 On ch=2 n=d#4 v=0
899518 On ch=2 n=d#4 v=65
899518 On ch=2 n=g#3 v=65
899518 On ch=2 n=d#3 v=65
899914 On ch=2 n=d#3 v=0
899914 On ch=2 n=g#3 v=0
899914 On ch=2 n=d#4 v=0
899914 On ch=2 n=d#4 v=65
899914 On ch=2 n=g#3 v=65
899914 On ch=2 n=d#3 v=65
900708 On ch=2 n=d#3 v=0
900708 On ch=2 n=g#3 v=0
900708 On ch=2 n=d#4 v=0
900708 On ch=2 n=d#4 v=65
900708 On ch=2 n=g#3 v=65
900708 On ch=2 n=d#3 v=65
901086 On ch=2 n=d#3 v=0
901086 On ch=2 n=g#3 v=0
901086 On ch=2 n=d#4 v=0
901086 On ch=2 n=d#4 v=65
901086 On ch=2 n=g#3 v=65
901086 On ch=2 n=d#3 v=65
901538 On ch=2 n=d#3 v=0
901538 On ch=2 n=g#3 v=0
901538 On ch=2 n=d#4 v=0
901538 On ch=2 n=d#4 v=65
901538 On ch=2 n=g#3 v=65
901538 On ch=2 n=d#3 v=65
902374 On ch=2 n=d#3 v=0
902374 On ch=2 n=g#3 v=0
902374 On ch=2 n=d#4 v=0
903322 On ch=2 n=b3 v=54
903700 On ch=2 n=b3 v=0
903700 On ch=2 n=c#4 v=75
904082 On ch=2 n=c#4 v=0
904082 On ch=2 n=a#3 v=76
904456 On ch=2 n=a#3 v=0
904456 On ch=2 n=b3 v=76
904860 On ch=2 n=b3 v=0
904860 On ch=2 n=d#3 v=78
905692 On ch=2 n=d#3 v=0
907246 On ch=2 n=d#4 v=78
907246 On ch=2 n=g#3 v=78
907246 On ch=2 n=d#3 v=78
907616 On ch=2 n=d#3 v=0
907616 On ch=2 n=g#3 v=0
907616 On ch=2 n=d#4 v=0
907616 On ch=2 n=d#4 v=78
907616 On ch=2 n=g#3 v=78
907616 On ch=2 n=d#3 v=78
907988 On ch=2 n=d#3 v=0
907988 On ch=2 n=g#3 v=0
907988 On ch=2 n=d#4 v=0
907988 On ch=2 n=d#4 v=78
907988 On ch=2 n=g#3 v=78
907988 On ch=2 n=d#3 v=78
908774 On ch=2 n=d#3 v=0
908774 On ch=2 n=g#3 v=0
908774 On ch=2 n=d#4 v=0
908774 On ch=2 n=d#4 v=78
908774 On ch=2 n=g#3 v=78
908774 On ch=2 n=d#3 v=78
909134 On ch=2 n=d#3 v=0
909134 On ch=2 n=g#3 v=0
909134 On ch=2 n=d#4 v=0
909134 On ch=2 n=d#4 v=78
909134 On ch=2 n=g#3 v=78
909134 On ch=2 n=d#3 v=78
909490 On ch=2 n=d#3 v=0
909490 On ch=2 n=g#3 v=0
909490 On ch=2 n=d#4 v=0
909490 On ch=2 n=d#4 v=78
909490 On ch=2 n=g#3 v=78
909490 On ch=2 n=d#3 v=78
910286 On ch=2 n=d#3 v=0
910286 On ch=2 n=g#3 v=0
910286 On ch=2 n=d#4 v=0
910286 On ch=2 n=d#4 v=80
910286 On ch=2 n=g#3 v=80
910286 On ch=2 n=d#3 v=80
910652 On ch=2 n=d#3 v=0
910652 On ch=2 n=g#3 v=0
910652 On ch=2 n=d#4 v=0
910652 On ch=2 n=d#4 v=80
910652 On ch=2 n=g#3 v=80
910652 On ch=2 n=d#3 v=80
911074 On ch=2 n=d#3 v=0
911074 On ch=2 n=g#3 v=0
911074 On ch=2 n=d#4 v=0
911074 On ch=2 n=d#4 v=84
911074 On ch=2 n=g#3 v=84
911074 On ch=2 n=d#3 v=84
911840 On ch=2 n=d#3 v=0
911840 On ch=2 n=g#3 v=0
911840 On ch=2 n=d#4 v=0
912766 On ch=2 n=b3 v=84
913148 On ch=2 n=b3 v=0
913148 On ch=2 n=c#4 v=85
913510 On ch=2 n=c#4 v=0
913510 On ch=2 n=a#3 v=87
913880 On ch=2 n=a#3 v=0
913880 On ch=2 n=b3 v=88
914276 On ch=2 n=b3 v=0
914276 On ch=2 n=d#3 v=89
915080 On ch=2 n=d#3 v=0
915080 On ch=2 n=d#4 v=89
915080 On ch=2 n=b3 v=89
915080 On ch=2 n=g#3 v=89
915080 On ch=2 n=d#3 v=89
915458 On ch=2 n=d#3 v=0
915458 On ch=2 n=g#3 v=0
915458 On ch=2 n=b3 v=0
915458 On ch=2 n=d#4 v=0
915458 On ch=2 n=d#4 v=89
915458 On ch=2 n=b3 v=89
915458 On ch=2 n=g#3 v=89
915458 On ch=2 n=d#3 v=89
915832 On ch=2 n=d#3 v=0
915832 On ch=2 n=g#3 v=0
915832 On ch=2 n=b3 v=0
915832 On ch=2 n=d#4 v=0
915832 On ch=2 n=d#4 v=89
915832 On ch=2 n=b3 v=89
915832 On ch=2 n=g#3 v=89
915832 On ch=2 n=d#3 v=89
916606 On ch=2 n=d#3 v=0
916606 On ch=2 n=g#3 v=0
916606 On ch=2 n=b3 v=0
916606 On ch=2 n=d#4 v=0
916606 On ch=2 n=d#4 v=90
916606 On ch=2 n=b3 v=90
916606 On ch=2 n=g#3 v=90
916606 On ch=2 n=d#3 v=90
916618 Par ch=2 c=64 v=127
916972 On ch=2 n=d#3 v=0
916972 On ch=2 n=g#3 v=0
916972 On ch=2 n=b3 v=0
916972 On ch=2 n=d#4 v=0
916972 On ch=2 n=d#4 v=90
916972 On ch=2 n=b3 v=90
916972 On ch=2 n=g#3 v=90
916972 On ch=2 n=d#3 v=90
917342 On ch=2 n=d#3 v=0
917342 On ch=2 n=g#3 v=0
917342 On ch=2 n=b3 v=0
917342 On ch=2 n=d#4 v=0
917342 On ch=2 n=d#4 v=90
917342 On ch=2 n=b3 v=90
917342 On ch=2 n=g#3 v=90
917342 On ch=2 n=d#3 v=90
918118 On ch=2 n=d#3 v=0
918118 On ch=2 n=g#3 v=0
918118 On ch=2 n=b3 v=0
918118 On ch=2 n=d#4 v=0
918118 On ch=2 n=d#5 v=94
918118 On ch=2 n=b4 v=94
918118 On ch=2 n=g#4 v=94
918118 On ch=2 n=d#4 v=94
918484 On ch=2 n=d#4 v=0
918484 On ch=2 n=g#4 v=0
918484 On ch=2 n=b4 v=0
918484 On ch=2 n=d#5 v=0
918484 On ch=2 n=d#5 v=95
918484 On ch=2 n=b4 v=95
918484 On ch=2 n=g#4 v=95
918484 On ch=2 n=d#4 v=95
918846 On ch=2 n=d#4 v=0
918846 On ch=2 n=g#4 v=0
918846 On ch=2 n=b4 v=0
918846 On ch=2 n=d#5 v=0
918846 On ch=2 n=d#5 v=96
918846 On ch=2 n=b4 v=96
918846 On ch=2 n=g#4 v=96
918846 On ch=2 n=d#4 v=96
919610 On ch=2 n=d#4 v=0
919610 On ch=2 n=g#4 v=0
919610 On ch=2 n=b4 v=0
919610 On ch=2 n=d#5 v=0
919610 On ch=2 n=d#5 v=97
919610 On ch=2 n=b4 v=97
919610 On ch=2 n=g#4 v=97
919610 On ch=2 n=d#4 v=97
919976 On ch=2 n=d#4 v=0
919976 On ch=2 n=g#4 v=0
919976 On ch=2 n=b4 v=0
919976 On ch=2 n=d#5 v=0
919976 On ch=2 n=d#5 v=97
919976 On ch=2 n=b4 v=97
919976 On ch=2 n=g#4 v=97
919976 On ch=2 n=d#4 v=97
920340 On ch=2 n=d#4 v=0
920340 On ch=2 n=g#4 v=0
920340 On ch=2 n=b4 v=0
920340 On ch=2 n=d#5 v=0
920340 On ch=2 n=d#5 v=99
920340 On ch=2 n=b4 v=99
920340 On ch=2 n=g#4 v=99
920340 On ch=2 n=d#4 v=99
921108 On ch=2 n=d#4 v=0
921108 On ch=2 n=g#4 v=0
921108 On ch=2 n=b4 v=0
921108 On ch=2 n=d#5 v=0
921108 On ch=2 n=d#5 v=100
921108 On ch=2 n=b4 v=100
921108 On ch=2 n=g#4 v=100
921108 On ch=2 n=d#4 v=100
921474 On ch=2 n=d#4 v=0
921474 On ch=2 n=g#4 v=0
921474 On ch=2 n=b4 v=0
921474 On ch=2 n=d#5 v=0
921474 On ch=2 n=d#5 v=103
921474 On ch=2 n=b4 v=103
921474 On ch=2 n=g#4 v=103
921474 On ch=2 n=d#4 v=103
921878 On ch=2 n=d#4 v=0
921878 On ch=2 n=g#4 v=0
921878 On ch=2 n=b4 v=0
921878 On ch=2 n=d#5 v=0
921878 Par ch=2 c=64 v=0
921878 On ch=2 n=d4 v=103
921878 On ch=2 n=d3 v=103
921890 Par ch=2 c=64 v=127
922624 On ch=2 n=d3 v=0
922624 On ch=2 n=d4 v=0
922624 On ch=2 n=a#4 v=103
922624 On ch=2 n=f4 v=103
922624 On ch=2 n=d4 v=103
923010 On ch=2 n=d4 v=0
923010 On ch=2 n=f4 v=0
923010 On ch=2 n=a#4 v=0
923010 On ch=2 n=a#4 v=103
923010 On ch=2 n=f4 v=103
923010 On ch=2 n=d4 v=103
923382 On ch=2 n=d4 v=0
923382 On ch=2 n=f4 v=0
923382 On ch=2 n=a#4 v=0
923382 On ch=2 n=a#4 v=103
923382 On ch=2 n=f4 v=103
923382 On ch=2 n=d4 v=103
924140 On ch=2 n=d4 v=0
924140 On ch=2 n=f4 v=0
924140 On ch=2 n=a#4 v=0
924140 On ch=2 n=a#4 v=103
924140 On ch=2 n=f4 v=103
924140 On ch=2 n=d4 v=103
924540 On ch=2 n=d4 v=0
924540 On ch=2 n=f4 v=0
924540 On ch=2 n=a#4 v=0
924540 On ch=2 n=a#4 v=105
924540 On ch=2 n=f4 v=105
924540 On ch=2 n=d4 v=105
924908 On ch=2 n=d4 v=0
924908 On ch=2 n=f4 v=0
924908 On ch=2 n=a#4 v=0
924908 Par ch=2 c=64 v=0
924908 On ch=2 n=a#4 v=111
924908 On ch=2 n=g4 v=111
924908 On ch=2 n=d#4 v=111
924908 On ch=2 n=c#4 v=111
925688 On ch=2 n=c#4 v=0
925688 On ch=2 n=d#4 v=0
925688 On ch=2 n=g4 v=0
925688 On ch=2 n=a#4 v=0
925688 On ch=2 n=a#4 v=111
925688 On ch=2 n=g4 v=111
925688 On ch=2 n=d#4 v=111
925688 On ch=2 n=c#4 v=111
926102 On ch=2 n=c#4 v=0
926102 On ch=2 n=d#4 v=0
926102 On ch=2 n=g4 v=0
926102 On ch=2 n=a#4 v=0
926102 On ch=2 n=a#4 v=111
926102 On ch=2 n=g4 v=111
926102 On ch=2 n=d#4 v=111
926102 On ch=2 n=c#4 v=111
926472 On ch=2 n=c#4 v=0
926472 On ch=2 n=d#4 v=0
926472 On ch=2 n=g4 v=0
926472 On ch=2 n=a#4 v=0
926472 On ch=2 n=a#4 v=111
926472 On ch=2 n=d#4 v=111
926472 On ch=2 n=b3 v=111
926484 Par ch=2 c=64 v=127
927166 On ch=2 n=b3 v=0
927166 On ch=2 n=d#4 v=0
927166 On ch=2 n=a#4 v=0
927166 On ch=2 n=a#4 v=111
927166 On ch=2 n=d#4 v=111
927166 On ch=2 n=b3 v=111
927528 On ch=2 n=b3 v=0
927528 On ch=2 n=d#4 v=0
927528 On ch=2 n=a#4 v=0
927528 On ch=2 n=a#4 v=112
927528 On ch=2 n=d#4 v=112
927528 On ch=2 n=b3 v=112
927922 On ch=2 n=b3 v=0
927922 On ch=2 n=d#4 v=0
927922 On ch=2 n=a#4 v=0
927922 On ch=2 n=a#4 v=116
927922 On ch=2 n=d#4 v=116
927922 On ch=2 n=b3 v=116
928668 On ch=2 n=b3 v=0
928668 On ch=2 n=d#4 v=0
928668 On ch=2 n=a#4 v=0
928668 On ch=2 n=a#4 v=121
928668 On ch=2 n=d#4 v=121
928668 On ch=2 n=b3 v=121
929442 On ch=2 n=b3 v=0
929442 On ch=2 n=d#4 v=0
929442 On ch=2 n=a#4 v=0
929442 Par ch=2 c=64 v=0
929442 On ch=2 n=g#4 v=127
929442 On ch=2 n=d#4 v=127
929442 On ch=2 n=b3 v=127
930182 On ch=2 n=b3 v=0
930182 On ch=2 n=d#4 v=0
930182 On ch=2 n=g#4 v=0
930182 On ch=2 n=a4 v=127
930182 On ch=2 n=d#4 v=127
930182 On ch=2 n=b3 v=127
930956 On ch=2 n=b3 v=0
930956 On ch=2 n=d#4 v=0
930956 On ch=2 n=a4 v=0
930956 On ch=2 n=a#4 v=127
930956 On ch=2 n=f#4 v=127
930956 On ch=2 n=d#4 v=127
930956 On ch=2 n=a#3 v=127
930968 Par ch=2 c=64 v=127
931732 On ch=2 n=a#3 v=0
931732 On ch=2 n=d#4 v=0
931732 On ch=2 n=f#4 v=0
931732 On ch=2 n=a#4 v=0
931732 On ch=2 n=a#5 v=111
931732 On ch=2 n=f#5 v=111
931732 On ch=2 n=d#5 v=111
931732 On ch=2 n=a#4 v=111
932116 On ch=2 n=a#4 v=0
932116 On ch=2 n=d#5 v=0
932116 On ch=2 n=f#5 v=0
932116 On ch=2 n=a#5 v=0
932116 On ch=2 n=a#5 v=111
932116 On ch=2 n=f#5 v=111
932116 On ch=2 n=d#5 v=111
932116 On ch=2 n=a#4 v=111
932496 On ch=2 n=a#4 v=0
932496 On ch=2 n=d#5 v=0
932496 On ch=2 n=f#5 v=0
932496 On ch=2 n=a#5 v=0
932496 On ch=2 n=a#5 v=108
932496 On ch=2 n=f#5 v=108
932496 On ch=2 n=d#5 v=108
932496 On ch=2 n=a#4 v=108
933278 On ch=2 n=a#4 v=0
933278 On ch=2 n=d#5 v=0
933278 On ch=2 n=f#5 v=0
933278 On ch=2 n=a#5 v=0
933278 On ch=2 n=a#5 v=105
933278 On ch=2 n=f#5 v=105
933278 On ch=2 n=d#5 v=105
933278 On ch=2 n=a#4 v=105
934032 On ch=2 n=a#4 v=0
934032 On ch=2 n=d#5 v=0
934032 On ch=2 n=f#5 v=0
934032 On ch=2 n=a#5 v=0
934032 Par ch=2 c=64 v=0
934032 On ch=2 n=a#5 v=102
934032 On ch=2 n=g#5 v=102
934032 On ch=2 n=d5 v=102
934032 On ch=2 n=a#4 v=102
934784 On ch=2 n=a#4 v=0
934784 On ch=2 n=d5 v=0
934784 On ch=2 n=g#5 v=0
934784 On ch=2 n=a#5 v=0
934784 On ch=2 n=a#5 v=102
934784 On ch=2 n=g#5 v=102
934784 On ch=2 n=d5 v=102
934784 On ch=2 n=a#4 v=102
935562 On ch=2 n=a#4 v=0
935562 On ch=2 n=d5 v=0
935562 On ch=2 n=g#5 v=0
935562 On ch=2 n=a#5 v=0
972860 On ch=2 n=g#4 v=89
972860 On ch=2 n=f4 v=89
972860 On ch=2 n=a#3 v=89
974748 On ch=2 n=a#3 v=0
974748 On ch=2 n=f4 v=0
974748 On ch=2 n=g#4 v=0
975860 On ch=2 n=g#4 v=61
975860 On ch=2 n=f4 v=61
975860 On ch=2 n=a#3 v=61
977096 On ch=2 n=a#3 v=0
977096 On ch=2 n=f4 v=0
977096 On ch=2 n=g#4 v=0
977096 On ch=2 n=a#3 v=59
977096 On ch=2 n=a#2 v=59
978294 On ch=2 n=a#2 v=0
978294 On ch=2 n=a#3 v=0
979350 On ch=2 n=a4 v=61
979350 On ch=2 n=f#4 v=61
979350 On ch=2 n=a#3 v=61
981444 On ch=2 n=a#3 v=0
981444 On ch=2 n=f#4 v=0
981444 On ch=2 n=a4 v=0
982486 On ch=2 n=a4 v=56
982486 On ch=2 n=f#4 v=56
982486 On ch=2 n=a#3 v=56
983696 On ch=2 n=a#3 v=0
983696 On ch=2 n=f#4 v=0
983696 On ch=2 n=a4 v=0
983696 On ch=2 n=a#3 v=53
983696 On ch=2 n=a#2 v=53
984826 On ch=2 n=a#2 v=0
984826 On ch=2 n=a#3 v=0
996938 On ch=2 n=a#3 v=30
996938 On ch=2 n=a#2 v=30
998894 On ch=2 n=a#2 v=0
998894 On ch=2 n=a#3 v=0
998894 On ch=2 n=d#3 v=39
998894 On ch=2 n=d#2 v=39
1000778 On ch=2 n=d#2 v=0
1000778 On ch=2 n=d#3 v=0
1000778 Meta TrkEnd
TrkEnd
MTrk
0 SeqSpec 43 00 01 00
0 Meta TrkName "Accompagnement main gauche"
4 PrCh ch=3 p=0
4 Par ch=3 c=10 v=55
4 Par ch=3 c=7 v=120
53086 On ch=3 n=d#4 v=91
53712 On ch=3 n=d#4 v=0
53712 On ch=3 n=f#5 v=88
53712 On ch=3 n=d#5 v=88
54456 On ch=3 n=d#5 v=0
54456 On ch=3 n=f#4 v=60
55236 On ch=3 n=f#5 v=0
55236 On ch=3 n=f#5 v=58
55236 On ch=3 n=d#5 v=58
55970 On ch=3 n=d#5 v=0
55970 On ch=3 n=f#4 v=0
55970 On ch=3 n=a#4 v=58
56748 On ch=3 n=f#5 v=0
56748 On ch=3 n=f#5 v=58
56748 On ch=3 n=d#5 v=58
57438 On ch=3 n=d#5 v=0
57438 On ch=3 n=f#5 v=0
57438 On ch=3 n=a#4 v=0
57438 On ch=3 n=a4 v=54
58140 On ch=3 n=f5 v=48
58140 On ch=3 n=d#5 v=48
58884 On ch=3 n=d#5 v=0
58884 On ch=3 n=f5 v=0
58884 On ch=3 n=a4 v=0
58884 On ch=3 n=g#4 v=47
59646 On ch=3 n=f5 v=48
59646 On ch=3 n=d5 v=48
60412 On ch=3 n=d5 v=0
60412 On ch=3 n=f5 v=0
60412 On ch=3 n=g#4 v=0
60412 On ch=3 n=f#4 v=47
61162 On ch=3 n=f#5 v=49
61162 On ch=3 n=d#5 v=49
61878 On ch=3 n=d#5 v=0
61878 On ch=3 n=f#5 v=0
61878 On ch=3 n=f#4 v=0
61878 On ch=3 n=a4 v=48
62582 On ch=3 n=f5 v=51
62582 On ch=3 n=d#5 v=51
63320 On ch=3 n=d#5 v=0
63320 On ch=3 n=f5 v=0
63320 On ch=3 n=a4 v=0
63320 On ch=3 n=g#4 v=51
64076 On ch=3 n=f5 v=56
64076 On ch=3 n=d5 v=56
64820 On ch=3 n=d5 v=0
64820 On ch=3 n=f5 v=0
64820 On ch=3 n=g#4 v=0
64820 On ch=3 n=f#4 v=58
65546 On ch=3 n=f#5 v=58
65546 On ch=3 n=d#5 v=58
65546 On ch=3 n=a#4 v=58
66230 On ch=3 n=a#4 v=0
66230 On ch=3 n=d#5 v=0
66230 On ch=3 n=f#5 v=0
66230 On ch=3 n=f#4 v=0
66230 On ch=3 n=a4 v=60
66926 On ch=3 n=f5 v=60
66926 On ch=3 n=d#5 v=60
66926 On ch=3 n=c5 v=60
67640 On ch=3 n=c5 v=0
67640 On ch=3 n=d#5 v=0
67640 On ch=3 n=f5 v=0
67640 On ch=3 n=a4 v=0
67640 On ch=3 n=a#4 v=60
68344 On ch=3 n=g5 v=62
68344 On ch=3 n=d#5 v=62
68344 On ch=3 n=c#5 v=62
69068 On ch=3 n=c#5 v=0
69068 On ch=3 n=d#5 v=0
69068 On ch=3 n=g5 v=0
69068 On ch=3 n=a#4 v=0
69068 On ch=3 n=b4 v=66
69752 On ch=3 n=g#5 v=66
69752 On ch=3 n=d#5 v=66
70496 On ch=3 n=d#5 v=0
70496 On ch=3 n=g#5 v=0
70496 On ch=3 n=b4 v=0
70496 On ch=3 n=c5 v=70
71180 On ch=3 n=a#5 v=70
71180 On ch=3 n=f5 v=70
71906 On ch=3 n=f5 v=0
71906 On ch=3 n=a#5 v=0
71906 On ch=3 n=c5 v=0
71906 On ch=3 n=d#5 v=72
72578 On ch=3 n=a#5 v=72
72578 On ch=3 n=f#5 v=72
73278 On ch=3 n=f#5 v=0
73278 On ch=3 n=a#5 v=0
73278 On ch=3 n=d#5 v=0
73278 On ch=3 n=a#4 v=73
73950 On ch=3 n=a#5 v=73
73950 On ch=3 n=f#5 v=73
74686 On ch=3 n=f#5 v=0
74686 On ch=3 n=a#5 v=0
74686 On ch=3 n=a#4 v=0
74686 On ch=3 n=d5 v=83
75374 On ch=3 n=b5 v=79
75374 On ch=3 n=g#5 v=79
76110 On ch=3 n=g#5 v=0
76110 On ch=3 n=b5 v=0
76110 On ch=3 n=d5 v=0
76110 On ch=3 n=d#5 v=76
76886 On ch=3 n=b5 v=76
76886 On ch=3 n=f#5 v=76
77642 On ch=3 n=f#5 v=0
77642 On ch=3 n=b5 v=0
77642 On ch=3 n=d#5 v=0
77642 On ch=3 n=a#4 v=76
78370 On ch=3 n=a#5 v=76
78370 On ch=3 n=f#5 v=76
79098 On ch=3 n=f#5 v=0
79098 On ch=3 n=a#5 v=0
79098 On ch=3 n=a#4 v=0
79098 On ch=3 n=c5 v=85
79756 On ch=3 n=b5 v=80
79756 On ch=3 n=g#5 v=80
80472 On ch=3 n=g#5 v=0
80472 On ch=3 n=b5 v=0
80472 On ch=3 n=c5 v=0
80472 On ch=3 n=d#5 v=79
81216 On ch=3 n=b5 v=80
81216 On ch=3 n=f#5 v=80
81924 On ch=3 n=f#5 v=0
81924 On ch=3 n=b5 v=0
81924 On ch=3 n=d#5 v=0
81924 On ch=3 n=c#5 v=80
82632 On ch=3 n=a#5 v=80
82632 On ch=3 n=g5 v=80
82632 On ch=3 n=e5 v=80
83320 On ch=3 n=e5 v=0
83320 On ch=3 n=g5 v=0
83320 On ch=3 n=a#5 v=0
83320 On ch=3 n=c#5 v=0
83320 On ch=3 n=b4 v=80
84014 On ch=3 n=g#5 v=80
84014 On ch=3 n=d#5 v=80
84728 On ch=3 n=d#5 v=0
84728 On ch=3 n=g#5 v=0
84728 On ch=3 n=b4 v=0
84728 On ch=3 n=a#4 v=80
85396 On ch=3 n=a#5 v=80
85396 On ch=3 n=d#5 v=80
86098 On ch=3 n=d#5 v=0
86098 On ch=3 n=a#5 v=0
86098 On ch=3 n=a#4 v=0
86098 On ch=3 n=g#4 v=80
86752 On ch=3 n=b5 v=80
86752 On ch=3 n=f5 v=80
86752 On ch=3 n=d#5 v=80
88820 On ch=3 n=d#5 v=0
88820 On ch=3 n=f5 v=0
88820 On ch=3 n=b5 v=0
88820 On ch=3 n=g#4 v=0
146552 On ch=3 n=d#4 v=85
147322 On ch=3 n=d#4 v=0
147322 On ch=3 n=f#5 v=85
147322 On ch=3 n=d#5 v=85
148118 On ch=3 n=d#5 v=0
148118 On ch=3 n=f#4 v=82
148924 On ch=3 n=f#5 v=0
148924 On ch=3 n=f#5 v=70
148924 On ch=3 n=d#5 v=70
149762 On ch=3 n=d#5 v=0
149762 On ch=3 n=f#4 v=0
149762 On ch=3 n=a#4 v=59
150560 On ch=3 n=f#5 v=0
150560 On ch=3 n=f#5 v=64
150560 On ch=3 n=d#5 v=64
151284 On ch=3 n=d#5 v=0
151284 On ch=3 n=f#5 v=0
151284 On ch=3 n=a#4 v=0
151284 On ch=3 n=a4 v=57
152044 On ch=3 n=f5 v=55
152044 On ch=3 n=d#5 v=55
152822 On ch=3 n=d#5 v=0
152822 On ch=3 n=f5 v=0
152822 On ch=3 n=a4 v=0
152822 On ch=3 n=g#4 v=47
153618 On ch=3 n=f5 v=47
153618 On ch=3 n=d5 v=47
154410 On ch=3 n=d5 v=0
154410 On ch=3 n=f5 v=0
154410 On ch=3 n=g#4 v=0
154410 On ch=3 n=f#4 v=45
155190 On ch=3 n=f#5 v=47
155190 On ch=3 n=d#5 v=47
155942 On ch=3 n=d#5 v=0
155942 On ch=3 n=f#5 v=0
155942 On ch=3 n=f#4 v=0
155942 On ch=3 n=a4 v=56
156680 On ch=3 n=f5 v=60
156680 On ch=3 n=d#5 v=60
157500 On ch=3 n=d#5 v=0
157500 On ch=3 n=f5 v=0
157500 On ch=3 n=a4 v=0
157500 On ch=3 n=g#4 v=56
158308 On ch=3 n=f5 v=50
158308 On ch=3 n=d5 v=50
159110 On ch=3 n=d5 v=0
159110 On ch=3 n=f5 v=0
159110 On ch=3 n=g#4 v=0
159110 On ch=3 n=f#4 v=43
159876 On ch=3 n=f#5 v=48
159876 On ch=3 n=d#5 v=48
159876 On ch=3 n=a#4 v=48
160614 On ch=3 n=a#4 v=0
160614 On ch=3 n=d#5 v=0
160614 On ch=3 n=f#5 v=0
160614 On ch=3 n=f#4 v=0
160614 On ch=3 n=a4 v=51
161356 On ch=3 n=f5 v=59
161356 On ch=3 n=d#5 v=59
161356 On ch=3 n=c5 v=59
162098 On ch=3 n=c5 v=0
162098 On ch=3 n=d#5 v=0
162098 On ch=3 n=f5 v=0
162098 On ch=3 n=a4 v=0
162098 On ch=3 n=a#4 v=61
162830 On ch=3 n=g5 v=63
162830 On ch=3 n=d#5 v=63
162830 On ch=3 n=c#5 v=63
163568 On ch=3 n=c#5 v=0
163568 On ch=3 n=d#5 v=0
163568 On ch=3 n=g5 v=0
163568 On ch=3 n=a#4 v=0
163568 On ch=3 n=b4 v=60
164272 On ch=3 n=g#5 v=65
164272 On ch=3 n=d#5 v=65
164986 On ch=3 n=d#5 v=0
164986 On ch=3 n=g#5 v=0
164986 On ch=3 n=b4 v=0
164986 On ch=3 n=c5 v=65
165674 On ch=3 n=a#5 v=65
165674 On ch=3 n=f5 v=65
166384 On ch=3 n=f5 v=0
166384 On ch=3 n=a#5 v=0
166384 On ch=3 n=c5 v=0
166384 On ch=3 n=d#5 v=65
167072 On ch=3 n=a#5 v=65
167072 On ch=3 n=f#5 v=65
167764 On ch=3 n=f#5 v=0
167764 On ch=3 n=a#5 v=0
167764 On ch=3 n=d#5 v=0
167764 On ch=3 n=a#4 v=65
168450 On ch=3 n=a#5 v=65
168450 On ch=3 n=f#5 v=65
169228 On ch=3 n=f#5 v=0
169228 On ch=3 n=a#5 v=0
169228 On ch=3 n=a#4 v=0
169228 On ch=3 n=d5 v=65
170014 On ch=3 n=b5 v=65
170014 On ch=3 n=g#5 v=65
170766 On ch=3 n=g#5 v=0
170766 On ch=3 n=b5 v=0
170766 On ch=3 n=d5 v=0
170766 On ch=3 n=d#5 v=61
171530 On ch=3 n=b5 v=66
171530 On ch=3 n=f#5 v=66
172262 On ch=3 n=f#5 v=0
172262 On ch=3 n=b5 v=0
172262 On ch=3 n=d#5 v=0
172262 On ch=3 n=a#4 v=66
172936 On ch=3 n=a#5 v=66
172936 On ch=3 n=f#5 v=66
173624 On ch=3 n=f#5 v=0
173624 On ch=3 n=a#5 v=0
173624 On ch=3 n=a#4 v=0
173624 On ch=3 n=c5 v=66
174306 On ch=3 n=b5 v=66
174306 On ch=3 n=g#5 v=66
175028 On ch=3 n=g#5 v=0
175028 On ch=3 n=b5 v=0
175028 On ch=3 n=c5 v=0
175028 On ch=3 n=d#5 v=66
175780 On ch=3 n=b5 v=66
175780 On ch=3 n=f#5 v=66
176540 On ch=3 n=f#5 v=0
176540 On ch=3 n=b5 v=0
176540 On ch=3 n=d#5 v=0
176540 On ch=3 n=c#5 v=66
177250 On ch=3 n=a#5 v=66
177250 On ch=3 n=g5 v=66
177250 On ch=3 n=e5 v=66
177960 On ch=3 n=e5 v=0
177960 On ch=3 n=g5 v=0
177960 On ch=3 n=a#5 v=0
177960 On ch=3 n=c#5 v=0
177960 On ch=3 n=b4 v=69
178660 On ch=3 n=g#5 v=69
178660 On ch=3 n=d#5 v=69
179388 On ch=3 n=d#5 v=0
179388 On ch=3 n=g#5 v=0
179388 On ch=3 n=b4 v=0
179388 On ch=3 n=a#4 v=69
180134 On ch=3 n=a#5 v=69
180134 On ch=3 n=d#5 v=69
180844 On ch=3 n=d#5 v=0
180844 On ch=3 n=a#5 v=0
180844 On ch=3 n=a#4 v=0
180844 On ch=3 n=g#4 v=69
181540 On ch=3 n=b5 v=69
181540 On ch=3 n=f5 v=69
181540 On ch=3 n=d#5 v=69
183024 On ch=3 n=d#5 v=0
183024 On ch=3 n=f5 v=0
183024 On ch=3 n=b5 v=0
183024 On ch=3 n=g#4 v=0
378516 On ch=3 n=d#4 v=99
379286 On ch=3 n=d#4 v=0
379286 On ch=3 n=f#5 v=92
379286 On ch=3 n=d#5 v=92
380124 On ch=3 n=d#5 v=0
380124 On ch=3 n=f#4 v=80
380920 On ch=3 n=f#5 v=0
380920 On ch=3 n=f#5 v=78
380920 On ch=3 n=d#5 v=78
381690 On ch=3 n=d#5 v=0
381690 On ch=3 n=f#4 v=0
381690 On ch=3 n=a#4 v=70
382432 On ch=3 n=f#5 v=0
382432 On ch=3 n=f#5 v=66
382432 On ch=3 n=d#5 v=66
383160 On ch=3 n=d#5 v=0
383160 On ch=3 n=f#5 v=0
383160 On ch=3 n=a#4 v=0
383160 On ch=3 n=a4 v=61
383874 On ch=3 n=f5 v=61
383874 On ch=3 n=d#5 v=61
384620 On ch=3 n=d#5 v=0
384620 On ch=3 n=f5 v=0
384620 On ch=3 n=a4 v=0
384620 On ch=3 n=g#4 v=61
385376 On ch=3 n=f5 v=56
385376 On ch=3 n=d5 v=56
386130 On ch=3 n=d5 v=0
386130 On ch=3 n=f5 v=0
386130 On ch=3 n=g#4 v=0
386130 On ch=3 n=f#4 v=56
386840 On ch=3 n=f#5 v=61
386840 On ch=3 n=d#5 v=61
387528 On ch=3 n=d#5 v=0
387528 On ch=3 n=f#5 v=0
387528 On ch=3 n=f#4 v=0
387528 On ch=3 n=a4 v=66
388258 On ch=3 n=f5 v=66
388258 On ch=3 n=d#5 v=66
388990 On ch=3 n=d#5 v=0
388990 On ch=3 n=f5 v=0
388990 On ch=3 n=a4 v=0
388990 On ch=3 n=g#4 v=68
389770 On ch=3 n=f5 v=71
389770 On ch=3 n=d5 v=71
390526 On ch=3 n=d5 v=0
390526 On ch=3 n=f5 v=0
390526 On ch=3 n=g#4 v=0
390526 On ch=3 n=f#4 v=72
391252 On ch=3 n=f#5 v=72
391252 On ch=3 n=d#5 v=72
391252 On ch=3 n=a#4 v=72
391966 On ch=3 n=a#4 v=0
391966 On ch=3 n=d#5 v=0
391966 On ch=3 n=f#5 v=0
391966 On ch=3 n=f#4 v=0
391966 On ch=3 n=a4 v=73
392668 On ch=3 n=f5 v=75
392668 On ch=3 n=d#5 v=75
392668 On ch=3 n=c5 v=75
393400 On ch=3 n=c5 v=0
393400 On ch=3 n=d#5 v=0
393400 On ch=3 n=f5 v=0
393400 On ch=3 n=a4 v=0
393400 On ch=3 n=a#4 v=76
394108 On ch=3 n=g5 v=76
394108 On ch=3 n=d#5 v=76
394108 On ch=3 n=c#5 v=76
394816 On ch=3 n=c#5 v=0
394816 On ch=3 n=d#5 v=0
394816 On ch=3 n=g5 v=0
394816 On ch=3 n=a#4 v=0
394816 On ch=3 n=b4 v=77
395528 On ch=3 n=g#5 v=77
395528 On ch=3 n=d#5 v=77
396238 On ch=3 n=d#5 v=0
396238 On ch=3 n=g#5 v=0
396238 On ch=3 n=b4 v=0
396238 On ch=3 n=c5 v=80
396940 On ch=3 n=a#5 v=80
396940 On ch=3 n=f5 v=80
397656 On ch=3 n=f5 v=0
397656 On ch=3 n=a#5 v=0
397656 On ch=3 n=c5 v=0
397656 On ch=3 n=d#5 v=81
398356 On ch=3 n=a#5 v=81
398356 On ch=3 n=f#5 v=81
399066 On ch=3 n=f#5 v=0
399066 On ch=3 n=a#5 v=0
399066 On ch=3 n=d#5 v=0
399066 On ch=3 n=a#4 v=81
399768 On ch=3 n=a#5 v=81
399768 On ch=3 n=f#5 v=81
400504 On ch=3 n=f#5 v=0
400504 On ch=3 n=a#5 v=0
400504 On ch=3 n=a#4 v=0
400504 On ch=3 n=d5 v=81
401208 On ch=3 n=b5 v=81
401208 On ch=3 n=g#5 v=81
401984 On ch=3 n=g#5 v=0
401984 On ch=3 n=b5 v=0
401984 On ch=3 n=d5 v=0
401984 On ch=3 n=d#5 v=81
402772 On ch=3 n=b5 v=80
402772 On ch=3 n=f#5 v=80
403552 On ch=3 n=f#5 v=0
403552 On ch=3 n=b5 v=0
403552 On ch=3 n=d#5 v=0
403552 On ch=3 n=a#4 v=73
404266 On ch=3 n=a#5 v=72
404266 On ch=3 n=f#5 v=72
404948 On ch=3 n=f#5 v=0
404948 On ch=3 n=a#5 v=0
404948 On ch=3 n=a#4 v=0
404948 On ch=3 n=c5 v=79
405644 On ch=3 n=b5 v=81
405644 On ch=3 n=g#5 v=81
406352 On ch=3 n=g#5 v=0
406352 On ch=3 n=b5 v=0
406352 On ch=3 n=c5 v=0
406352 On ch=3 n=d#5 v=81
407146 On ch=3 n=b5 v=74
407146 On ch=3 n=f#5 v=74
407936 On ch=3 n=f#5 v=0
407936 On ch=3 n=b5 v=0
407936 On ch=3 n=d#5 v=0
407936 On ch=3 n=c#5 v=68
408746 On ch=3 n=a#5 v=62
408746 On ch=3 n=g5 v=62
408746 On ch=3 n=e5 v=62
409508 On ch=3 n=e5 v=0
409508 On ch=3 n=g5 v=0
409508 On ch=3 n=a#5 v=0
409508 On ch=3 n=c#5 v=0
409508 On ch=3 n=b4 v=66
410284 On ch=3 n=g#5 v=64
410284 On ch=3 n=d#5 v=64
411060 On ch=3 n=d#5 v=0
411060 On ch=3 n=g#5 v=0
411060 On ch=3 n=b4 v=0
411060 On ch=3 n=a#4 v=66
411828 On ch=3 n=a#5 v=68
411828 On ch=3 n=d#5 v=68
412662 On ch=3 n=d#5 v=0
412662 On ch=3 n=a#5 v=0
412662 On ch=3 n=a#4 v=0
412662 On ch=3 n=g#4 v=61
413448 On ch=3 n=b5 v=62
413448 On ch=3 n=f5 v=62
413448 On ch=3 n=d#5 v=62
415214 On ch=3 n=d#5 v=0
415214 On ch=3 n=f5 v=0
415214 On ch=3 n=b5 v=0
415214 On ch=3 n=g#4 v=0
700518 On ch=3 n=d#4 v=103
701346 On ch=3 n=d#4 v=0
701346 On ch=3 n=f#5 v=71
701346 On ch=3 n=d#5 v=71
702148 On ch=3 n=d#5 v=0
702148 On ch=3 n=f#4 v=45
702962 On ch=3 n=f#5 v=0
702962 On ch=3 n=f#5 v=45
702962 On ch=3 n=d#5 v=45
703770 On ch=3 n=d#5 v=0
703770 On ch=3 n=f#4 v=0
703770 On ch=3 n=a#4 v=45
704592 On ch=3 n=f#5 v=0
704592 On ch=3 n=f#5 v=45
704592 On ch=3 n=d#5 v=45
705352 On ch=3 n=d#5 v=0
705352 On ch=3 n=f#5 v=0
705352 On ch=3 n=a#4 v=0
705352 On ch=3 n=a4 v=45
706090 On ch=3 n=f5 v=41
706090 On ch=3 n=d#5 v=41
706858 On ch=3 n=d#5 v=0
706858 On ch=3 n=f5 v=0
706858 On ch=3 n=a4 v=0
706858 On ch=3 n=g#4 v=45
707704 On ch=3 n=f5 v=40
707704 On ch=3 n=d5 v=40
708526 On ch=3 n=d5 v=0
708526 On ch=3 n=f5 v=0
708526 On ch=3 n=g#4 v=0
708526 On ch=3 n=f#4 v=41
709306 On ch=3 n=f#5 v=40
709306 On ch=3 n=d#5 v=40
710060 On ch=3 n=d#5 v=0
710060 On ch=3 n=f#5 v=0
710060 On ch=3 n=f#4 v=0
710060 On ch=3 n=a4 v=45
710816 On ch=3 n=f5 v=42
710816 On ch=3 n=d#5 v=42
711588 On ch=3 n=d#5 v=0
711588 On ch=3 n=f5 v=0
711588 On ch=3 n=a4 v=0
711588 On ch=3 n=g#4 v=49
712366 On ch=3 n=f5 v=44
712366 On ch=3 n=d5 v=44
713166 On ch=3 n=d5 v=0
713166 On ch=3 n=f5 v=0
713166 On ch=3 n=g#4 v=0
713166 On ch=3 n=f#4 v=43
713972 On ch=3 n=f#5 v=49
713972 On ch=3 n=d#5 v=49
713972 On ch=3 n=a#4 v=49
714720 On ch=3 n=a#4 v=0
714720 On ch=3 n=d#5 v=0
714720 On ch=3 n=f#5 v=0
714720 On ch=3 n=f#4 v=0
714720 On ch=3 n=a4 v=53
715458 On ch=3 n=f5 v=54
715458 On ch=3 n=d#5 v=54
715458 On ch=3 n=c5 v=54
716170 On ch=3 n=c5 v=0
716170 On ch=3 n=d#5 v=0
716170 On ch=3 n=f5 v=0
716170 On ch=3 n=a4 v=0
716170 On ch=3 n=a#4 v=54
716934 On ch=3 n=g5 v=54
716934 On ch=3 n=d#5 v=54
716934 On ch=3 n=c#5 v=54
717708 On ch=3 n=c#5 v=0
717708 On ch=3 n=d#5 v=0
717708 On ch=3 n=g5 v=0
717708 On ch=3 n=a#4 v=0
717708 On ch=3 n=b4 v=54
718478 On ch=3 n=g#5 v=54
718478 On ch=3 n=d#5 v=54
719270 On ch=3 n=d#5 v=0
719270 On ch=3 n=g#5 v=0
719270 On ch=3 n=b4 v=0
719270 On ch=3 n=c5 v=53
720066 On ch=3 n=a#5 v=47
720066 On ch=3 n=f5 v=47
720894 On ch=3 n=f5 v=0
720894 On ch=3 n=a#5 v=0
720894 On ch=3 n=c5 v=0
720894 On ch=3 n=d#5 v=44
721634 On ch=3 n=a#5 v=41
721634 On ch=3 n=f#5 v=41
722382 On ch=3 n=f#5 v=0
722382 On ch=3 n=a#5 v=0
722382 On ch=3 n=d#5 v=0
722382 On ch=3 n=a#4 v=53
723086 On ch=3 n=a#5 v=47
723086 On ch=3 n=f#5 v=47
723838 On ch=3 n=f#5 v=0
723838 On ch=3 n=a#5 v=0
723838 On ch=3 n=a#4 v=0
723838 On ch=3 n=d5 v=49
724522 On ch=3 n=b5 v=53
724522 On ch=3 n=g#5 v=53
725266 On ch=3 n=g#5 v=0
725266 On ch=3 n=b5 v=0
725266 On ch=3 n=d5 v=0
725266 On ch=3 n=d#5 v=44
726078 On ch=3 n=b5 v=40
726078 On ch=3 n=f#5 v=40
726914 On ch=3 n=f#5 v=0
726914 On ch=3 n=b5 v=0
726914 On ch=3 n=d#5 v=0
726914 On ch=3 n=a#4 v=37
727698 On ch=3 n=a#5 v=44
727698 On ch=3 n=f#5 v=44
728496 On ch=3 n=f#5 v=0
728496 On ch=3 n=a#5 v=0
728496 On ch=3 n=a#4 v=0
728496 On ch=3 n=c5 v=40
729292 On ch=3 n=b5 v=41
729292 On ch=3 n=g#5 v=41
730044 On ch=3 n=g#5 v=0
730044 On ch=3 n=b5 v=0
730044 On ch=3 n=c5 v=0
730044 On ch=3 n=d#5 v=41
730876 On ch=3 n=b5 v=44
730876 On ch=3 n=f#5 v=44
731682 On ch=3 n=f#5 v=0
731682 On ch=3 n=b5 v=0
731682 On ch=3 n=d#5 v=0
731682 On ch=3 n=c#5 v=43
732452 On ch=3 n=a#5 v=44
732452 On ch=3 n=g5 v=44
732452 On ch=3 n=e5 v=44
733202 On ch=3 n=e5 v=0
TrkEnd
