MFile 1 3 480
MTrk
0 TimeSig 3/4 24 8
0 Tempo 625000
0 SMPTE 0 0 0 0 0
125280 TimeSig 3/4 12 8
125520 Tempo 674157
125760 Tempo 645161
126000 Tempo 666667
126240 Tempo 697674
126480 Tempo 731707
126720 Tempo 800000
126960 Tempo 600000
128160 TimeSig 3/4 24 8
149784 Meta Marker "T2"
182880 TimeSig 3/4 12 8
183600 Tempo 618557
183840 Tempo 674157
184080 Tempo 779221
184320 TimeSig 3/4 24 8
184320 Tempo 600000
184320 Meta Marker "A"
195840 Meta Marker "B"
216400 Tempo 618557
216880 Tempo 638298
217440 Tempo 659341
217920 Tempo 689655
218400 Tempo 731707
218400 Meta TrkEnd
TrkEnd
MTrk
0 SeqSpec 43 00 01 00
0 Par ch=1 c=64 v=0
0 On ch=1 n=c#5 v=76
0 On ch=1 n=e5 v=76
0 On ch=1 n=a5 v=76
48 Par ch=1 c=64 v=127
240 On ch=1 n=a5 v=0
240 On ch=1 n=e5 v=0
240 On ch=1 n=c#5 v=0
360 On ch=1 n=e5 v=76
360 On ch=1 n=c#5 v=76
438 On ch=1 n=c#5 v=0
438 On ch=1 n=e5 v=0
480 On ch=1 n=c#5 v=76
480 On ch=1 n=e5 v=76
720 On ch=1 n=e5 v=0
720 On ch=1 n=c#5 v=0
840 On ch=1 n=c#5 v=76
840 On ch=1 n=e5 v=76
936 Par ch=1 c=64 v=0
960 On ch=1 n=e5 v=0
960 On ch=1 n=c#5 v=0
960 On ch=1 n=f#5 v=76
960 On ch=1 n=d5 v=76
1032 On ch=1 n=d5 v=0
1032 On ch=1 n=f#5 v=0
1080 On ch=1 n=g#5 v=76
1080 On ch=1 n=d5 v=76
1152 On ch=1 n=d5 v=0
1152 On ch=1 n=g#5 v=0
1200 On ch=1 n=a5 v=76
1200 On ch=1 n=d5 v=76
1272 On ch=1 n=d5 v=0
1272 On ch=1 n=a5 v=0
1320 On ch=1 n=d5 v=76
1320 On ch=1 n=b5 v=76
1392 On ch=1 n=b5 v=0
1392 On ch=1 n=d5 v=0
1440 Par ch=1 c=64 v=0
1440 On ch=1 n=c#5 v=76
1440 On ch=1 n=c#6 v=76
1488 Par ch=1 c=64 v=127
1800 On ch=1 n=c#6 v=0
1800 On ch=1 n=c#5 v=0
1800 On ch=1 n=c#5 v=76
1800 On ch=1 n=a5 v=76
1920 On ch=1 n=a5 v=0
1920 On ch=1 n=c#5 v=0
1920 On ch=1 n=a5 v=76
1920 Par ch=1 c=64 v=0
1920 On ch=1 n=c#5 v=76
2064 On ch=1 n=c#5 v=0
2064 On ch=1 n=a5 v=0
2160 On ch=1 n=g#4 v=76
2238 On ch=1 n=g#4 v=0
2238 On ch=1 n=a4 v=76
2318 On ch=1 n=a4 v=0
2318 On ch=1 n=b4 v=76
2398 On ch=1 n=b4 v=0
2400 On ch=1 n=a4 v=76
2544 On ch=1 n=a4 v=0
2640 On ch=1 n=e4 v=76
2784 On ch=1 n=e4 v=0
2880 Par ch=1 c=64 v=0
2880 On ch=1 n=c#5 v=76
2880 On ch=1 n=c#6 v=76
2928 Par ch=1 c=64 v=127
3120 On ch=1 n=c#6 v=0
3120 On ch=1 n=c#5 v=0
3240 On ch=1 n=c#5 v=76
3240 On ch=1 n=a5 v=76
3360 On ch=1 n=a5 v=0
3360 On ch=1 n=c#5 v=0
3360 On ch=1 n=c#5 v=76
3360 On ch=1 n=a5 v=76
3600 On ch=1 n=a5 v=0
3600 On ch=1 n=c#5 v=0
3720 On ch=1 n=c#5 v=76
3720 On ch=1 n=g#5 v=76
3816 Par ch=1 c=64 v=0
3840 On ch=1 n=g#5 v=0
3840 On ch=1 n=c#5 v=0
3840 On ch=1 n=a5 v=76
3840 On ch=1 n=c#5 v=76
3912 On ch=1 n=c#5 v=0
3912 On ch=1 n=a5 v=0
3960 On ch=1 n=b5 v=76
3960 On ch=1 n=a5 v=76
3960 On ch=1 n=c#5 v=76
4032 On ch=1 n=c#5 v=0
4032 On ch=1 n=a5 v=0
4032 On ch=1 n=b5 v=0
4080 On ch=1 n=c#6 v=76
4080 On ch=1 n=a5 v=76
4080 On ch=1 n=c#5 v=76
4152 On ch=1 n=c#5 v=0
4152 On ch=1 n=a5 v=0
4152 On ch=1 n=c#6 v=0
4200 On ch=1 n=d5 v=76
4200 On ch=1 n=a5 v=76
4200 On ch=1 n=d6 v=76
4272 On ch=1 n=d6 v=0
4272 On ch=1 n=a5 v=0
4272 On ch=1 n=d5 v=0
4320 Par ch=1 c=64 v=0
4320 On ch=1 n=d#5 v=76
4320 On ch=1 n=a5 v=76
4320 On ch=1 n=f#6 v=76
4368 Par ch=1 c=64 v=127
4680 On ch=1 n=f#6 v=0
4680 On ch=1 n=a5 v=0
4680 On ch=1 n=d#5 v=0
4680 On ch=1 n=e5 v=76
4680 On ch=1 n=a5 v=76
4680 On ch=1 n=e6 v=76
4752 Par ch=1 c=64 v=0
4800 On ch=1 n=e6 v=0
4800 On ch=1 n=a5 v=0
4800 On ch=1 n=e5 v=0
4800 On ch=1 n=e5 v=76
4800 Par ch=1 c=64 v=0
4800 On ch=1 n=a5 v=76
4800 On ch=1 n=e6 v=76
5040 On ch=1 n=e6 v=0
5040 On ch=1 n=a5 v=0
5040 On ch=1 n=e5 v=0
5040 On ch=1 n=g#4 v=76
5118 On ch=1 n=g#4 v=0
5118 On ch=1 n=a4 v=76
5198 On ch=1 n=a4 v=0
5198 On ch=1 n=b4 v=76
5278 On ch=1 n=b4 v=0
5280 On ch=1 n=a4 v=76
5424 On ch=1 n=a4 v=0
5520 On ch=1 n=e4 v=76
5664 On ch=1 n=e4 v=0
5760 On ch=1 n=c#7 v=80
5760 On ch=1 n=f6 v=80
5760 On ch=1 n=c#6 v=80
5760 Par ch=1 c=64 v=0
5808 Par ch=1 c=64 v=127
5904 On ch=1 n=c#6 v=0
5904 On ch=1 n=f6 v=0
5904 On ch=1 n=c#7 v=0
6000 On ch=1 n=g#5 v=80
6000 On ch=1 n=c#6 v=80
6000 On ch=1 n=g#6 v=80
6078 On ch=1 n=g#6 v=0
6078 On ch=1 n=c#6 v=0
6078 On ch=1 n=g#5 v=0
6078 On ch=1 n=g#5 v=80
6078 On ch=1 n=c#6 v=80
6078 On ch=1 n=g#6 v=80
6158 On ch=1 n=g#6 v=0
6158 On ch=1 n=c#6 v=0
6158 On ch=1 n=g#5 v=0
6158 On ch=1 n=g#5 v=81
6158 On ch=1 n=c#6 v=81
6158 On ch=1 n=g#6 v=81
6238 On ch=1 n=g#6 v=0
6238 On ch=1 n=c#6 v=0
6238 On ch=1 n=g#5 v=0
6240 On ch=1 n=g#5 v=81
6240 On ch=1 n=c#6 v=81
6240 On ch=1 n=g#6 v=81
6480 On ch=1 n=g#6 v=0
6480 On ch=1 n=c#6 v=0
6480 On ch=1 n=g#5 v=0
6480 On ch=1 n=g#5 v=82
6480 On ch=1 n=c#6 v=82
6480 On ch=1 n=g#6 v=82
6528 Par ch=1 c=64 v=0
6720 On ch=1 n=g#6 v=0
6720 On ch=1 n=c#6 v=0
6720 On ch=1 n=g#5 v=0
6720 On ch=1 n=a#6 v=82
6720 On ch=1 n=d#6 v=82
6720 On ch=1 n=a#5 v=82
6744 Par ch=1 c=64 v=127
6792 On ch=1 n=a#5 v=0
6792 On ch=1 n=d#6 v=0
6792 On ch=1 n=a#6 v=0
6840 On ch=1 n=c7 v=83
6840 On ch=1 n=c6 v=83
6912 On ch=1 n=c6 v=0
6912 On ch=1 n=c7 v=0
6960 On ch=1 n=c#7 v=83
6960 On ch=1 n=g#6 v=83
6960 On ch=1 n=c#6 v=83
7032 On ch=1 n=c#6 v=0
7032 On ch=1 n=g#6 v=0
7032 On ch=1 n=c#7 v=0
7080 On ch=1 n=d#6 v=83
7080 On ch=1 n=d#7 v=83
7152 On ch=1 n=d#7 v=0
7152 On ch=1 n=d#6 v=0
7176 Par ch=1 c=64 v=0
7200 Par ch=1 c=64 v=0
7200 On ch=1 n=f6 v=84
7200 On ch=1 n=c#7 v=84
7200 On ch=1 n=f7 v=84
7248 Par ch=1 c=64 v=127
7560 On ch=1 n=f7 v=0
7560 On ch=1 n=c#7 v=0
7560 On ch=1 n=f6 v=0
7560 On ch=1 n=c#7 v=85
7560 On ch=1 n=c#6 v=85
7632 On ch=1 n=c#6 v=0
7632 On ch=1 n=c#7 v=0
7680 On ch=1 n=c#7 v=85
7680 On ch=1 n=c#6 v=85
7824 On ch=1 n=c#6 v=0
7824 On ch=1 n=c#7 v=0
7920 On ch=1 n=c#7 v=86
7920 On ch=1 n=c#6 v=86
7992 On ch=1 n=c#6 v=0
7992 On ch=1 n=c#7 v=0
8040 On ch=1 n=c#7 v=86
8040 On ch=1 n=c#6 v=86
8112 On ch=1 n=c#6 v=0
8112 On ch=1 n=c#7 v=0
8160 On ch=1 n=c#7 v=86
8160 On ch=1 n=c#6 v=86
8232 On ch=1 n=c#6 v=0
8232 On ch=1 n=c#7 v=0
8280 On ch=1 n=c#7 v=87
8280 On ch=1 n=c#6 v=87
8352 On ch=1 n=c#6 v=0
8352 On ch=1 n=c#7 v=0
8400 On ch=1 n=c#7 v=87
8400 On ch=1 n=c#6 v=87
8472 On ch=1 n=c#6 v=0
8472 On ch=1 n=c#7 v=0
8520 On ch=1 n=c#6 v=87
8520 On ch=1 n=c#7 v=87
8592 On ch=1 n=c#7 v=0
8592 On ch=1 n=c#6 v=0
8616 Par ch=1 c=64 v=0
8640 Par ch=1 c=64 v=0
8640 On ch=1 n=c#6 v=88
8640 On ch=1 n=c#7 v=88
8880 On ch=1 n=c#7 v=0
8880 On ch=1 n=c#6 v=0
8880 On ch=1 n=b5 v=88
8880 On ch=1 n=f#6 v=88
8880 On ch=1 n=b6 v=88
9060 On ch=1 n=b6 v=0
9060 On ch=1 n=f#6 v=0
9060 On ch=1 n=b5 v=0
9060 On ch=1 n=b5 v=88
9060 On ch=1 n=f#6 v=88
9060 On ch=1 n=b6 v=88
9120 On ch=1 n=b6 v=0
9120 On ch=1 n=f#6 v=0
9120 On ch=1 n=b5 v=0
9120 On ch=1 n=b5 v=88
9120 On ch=1 n=f#6 v=88
9120 On ch=1 n=b6 v=88
9360 On ch=1 n=b6 v=0
9360 On ch=1 n=f#6 v=0
9360 On ch=1 n=b5 v=0
9360 On ch=1 n=c#6 v=88
9360 On ch=1 n=c#7 v=88
9600 On ch=1 n=c#7 v=0
9600 On ch=1 n=c#6 v=0
9600 On ch=1 n=e6 v=88
9600 On ch=1 n=a6 v=88
9600 On ch=1 n=e7 v=88
9840 On ch=1 n=e7 v=0
9840 On ch=1 n=a6 v=0
9840 On ch=1 n=e6 v=0
9840 On ch=1 n=d6 v=88
9840 On ch=1 n=d7 v=88
9960 On ch=1 n=d7 v=0
9960 On ch=1 n=d6 v=0
9960 On ch=1 n=c#7 v=88
9960 On ch=1 n=c#6 v=88
10080 On ch=1 n=c#6 v=0
10080 On ch=1 n=c#7 v=0
10080 Par ch=1 c=64 v=0
10080 On ch=1 n=b5 v=88
10080 On ch=1 n=b6 v=88
10320 On ch=1 n=b6 v=0
10320 On ch=1 n=b5 v=0
10320 On ch=1 n=b5 v=87
10320 On ch=1 n=e6 v=87
10320 On ch=1 n=b6 v=87
10500 On ch=1 n=b6 v=0
10500 On ch=1 n=e6 v=0
10500 On ch=1 n=b5 v=0
10500 On ch=1 n=c#6 v=86
10500 On ch=1 n=c#7 v=86
10560 On ch=1 n=c#7 v=0
10560 On ch=1 n=c#6 v=0
10560 On ch=1 n=b5 v=85
10560 On ch=1 n=e6 v=85
10560 On ch=1 n=b6 v=85
10584 Par ch=1 c=64 v=127
11040 On ch=1 n=b6 v=0
11040 On ch=1 n=e6 v=0
11040 On ch=1 n=b5 v=0
11040 On ch=1 n=a5 v=82
11040 On ch=1 n=a6 v=82
11280 On ch=1 n=a6 v=0
11280 On ch=1 n=a5 v=0
11280 Par ch=1 c=64 v=0
11520 Par ch=1 c=64 v=0
11520 On ch=1 n=c#5 v=76
11520 On ch=1 n=e5 v=76
11520 On ch=1 n=a5 v=76
11568 Par ch=1 c=64 v=127
11760 On ch=1 n=a5 v=0
11760 On ch=1 n=e5 v=0
11760 On ch=1 n=c#5 v=0
11880 On ch=1 n=c#5 v=76
11880 On ch=1 n=e5 v=76
12000 On ch=1 n=e5 v=0
12000 On ch=1 n=c#5 v=0
12000 On ch=1 n=c#5 v=76
12000 On ch=1 n=e5 v=76
12240 On ch=1 n=e5 v=0
12240 On ch=1 n=c#5 v=0
12360 On ch=1 n=c#5 v=76
12360 On ch=1 n=e5 v=76
12456 Par ch=1 c=64 v=0
12480 On ch=1 n=e5 v=0
12480 On ch=1 n=c#5 v=0
12480 On ch=1 n=f#5 v=76
12480 On ch=1 n=d5 v=76
12552 On ch=1 n=d5 v=0
12552 On ch=1 n=f#5 v=0
12600 On ch=1 n=g#5 v=76
12600 On ch=1 n=d5 v=76
12672 On ch=1 n=d5 v=0
12672 On ch=1 n=g#5 v=0
12720 On ch=1 n=a5 v=76
12720 On ch=1 n=d5 v=76
12792 On ch=1 n=d5 v=0
12792 On ch=1 n=a5 v=0
12840 On ch=1 n=d5 v=76
12840 On ch=1 n=b5 v=76
12912 On ch=1 n=b5 v=0
12912 On ch=1 n=d5 v=0
12960 Par ch=1 c=64 v=0
12960 On ch=1 n=c#5 v=76
12960 On ch=1 n=c#6 v=76
13008 Par ch=1 c=64 v=127
13320 On ch=1 n=c#6 v=0
13320 On ch=1 n=c#5 v=0
13320 On ch=1 n=c#5 v=76
13320 On ch=1 n=a5 v=76
13440 On ch=1 n=a5 v=0
13440 On ch=1 n=c#5 v=0
13440 On ch=1 n=a5 v=76
13440 Par ch=1 c=64 v=0
13440 On ch=1 n=c#5 v=76
13584 On ch=1 n=c#5 v=0
13584 On ch=1 n=a5 v=0
13680 On ch=1 n=g#4 v=76
13758 On ch=1 n=g#4 v=0
13758 On ch=1 n=a4 v=76
13838 On ch=1 n=a4 v=0
13838 On ch=1 n=b4 v=76
13918 On ch=1 n=b4 v=0
13920 On ch=1 n=a4 v=76
14064 On ch=1 n=a4 v=0
14160 On ch=1 n=e4 v=76
14304 On ch=1 n=e4 v=0
14400 Par ch=1 c=64 v=0
14400 On ch=1 n=c#5 v=76
14400 On ch=1 n=c#6 v=76
14448 Par ch=1 c=64 v=127
14640 On ch=1 n=c#6 v=0
14640 On ch=1 n=c#5 v=0
14760 On ch=1 n=c#5 v=76
14760 On ch=1 n=a5 v=76
14880 On ch=1 n=a5 v=0
14880 On ch=1 n=c#5 v=0
14880 On ch=1 n=c#5 v=76
14880 On ch=1 n=a5 v=76
15120 On ch=1 n=a5 v=0
15120 On ch=1 n=c#5 v=0
15240 On ch=1 n=c#5 v=76
15240 On ch=1 n=g#5 v=76
15336 Par ch=1 c=64 v=0
15360 On ch=1 n=g#5 v=0
15360 On ch=1 n=c#5 v=0
15360 On ch=1 n=a5 v=76
15360 On ch=1 n=c#5 v=76
15432 On ch=1 n=c#5 v=0
15432 On ch=1 n=a5 v=0
15480 On ch=1 n=b5 v=76
15480 On ch=1 n=a5 v=76
15480 On ch=1 n=c#5 v=76
15552 On ch=1 n=c#5 v=0
15552 On ch=1 n=a5 v=0
15552 On ch=1 n=b5 v=0
15600 On ch=1 n=c#6 v=76
15600 On ch=1 n=a5 v=76
15600 On ch=1 n=c#5 v=76
15672 On ch=1 n=c#5 v=0
15672 On ch=1 n=a5 v=0
15672 On ch=1 n=c#6 v=0
15720 On ch=1 n=d5 v=76
15720 On ch=1 n=a5 v=76
15720 On ch=1 n=d6 v=76
15792 On ch=1 n=d6 v=0
15792 On ch=1 n=a5 v=0
15792 On ch=1 n=d5 v=0
15840 Par ch=1 c=64 v=0
15840 On ch=1 n=d#5 v=76
15840 On ch=1 n=a5 v=76
15840 On ch=1 n=f#6 v=76
15888 Par ch=1 c=64 v=127
16200 On ch=1 n=f#6 v=0
16200 On ch=1 n=a5 v=0
16200 On ch=1 n=d#5 v=0
16200 On ch=1 n=e5 v=76
16200 On ch=1 n=a5 v=76
16200 On ch=1 n=e6 v=76
16272 Par ch=1 c=64 v=0
16320 On ch=1 n=e6 v=0
16320 On ch=1 n=a5 v=0
16320 On ch=1 n=e5 v=0
16320 On ch=1 n=e5 v=76
16320 Par ch=1 c=64 v=0
16320 On ch=1 n=a5 v=76
16320 On ch=1 n=e6 v=76
16560 On ch=1 n=e6 v=0
16560 On ch=1 n=a5 v=0
16560 On ch=1 n=e5 v=0
16560 On ch=1 n=g#4 v=76
16638 On ch=1 n=g#4 v=0
16638 On ch=1 n=a4 v=76
16718 On ch=1 n=a4 v=0
16718 On ch=1 n=b4 v=76
16798 On ch=1 n=b4 v=0
16800 On ch=1 n=a4 v=76
16944 On ch=1 n=a4 v=0
17040 On ch=1 n=e4 v=76
17184 On ch=1 n=e4 v=0
17280 On ch=1 n=c#7 v=80
17280 On ch=1 n=f6 v=80
17280 On ch=1 n=c#6 v=80
17280 Par ch=1 c=64 v=0
17328 Par ch=1 c=64 v=127
17424 On ch=1 n=c#6 v=0
17424 On ch=1 n=f6 v=0
17424 On ch=1 n=c#7 v=0
17520 On ch=1 n=g#5 v=80
17520 On ch=1 n=c#6 v=80
17520 On ch=1 n=g#6 v=80
17598 On ch=1 n=g#6 v=0
17598 On ch=1 n=c#6 v=0
17598 On ch=1 n=g#5 v=0
17598 On ch=1 n=g#5 v=80
17598 On ch=1 n=c#6 v=80
17598 On ch=1 n=g#6 v=80
17678 On ch=1 n=g#6 v=0
17678 On ch=1 n=c#6 v=0
17678 On ch=1 n=g#5 v=0
17678 On ch=1 n=g#5 v=81
17678 On ch=1 n=c#6 v=81
17678 On ch=1 n=g#6 v=81
17758 On ch=1 n=g#6 v=0
17758 On ch=1 n=c#6 v=0
17758 On ch=1 n=g#5 v=0
17760 On ch=1 n=g#5 v=81
17760 On ch=1 n=c#6 v=81
17760 On ch=1 n=g#6 v=81
18000 On ch=1 n=g#6 v=0
18000 On ch=1 n=c#6 v=0
18000 On ch=1 n=g#5 v=0
18000 On ch=1 n=g#5 v=82
18000 On ch=1 n=c#6 v=82
18000 On ch=1 n=g#6 v=82
18048 Par ch=1 c=64 v=0
18240 On ch=1 n=g#6 v=0
18240 On ch=1 n=c#6 v=0
18240 On ch=1 n=g#5 v=0
18240 On ch=1 n=a#6 v=82
18240 On ch=1 n=d#6 v=82
18240 On ch=1 n=a#5 v=82
18264 Par ch=1 c=64 v=127
18312 On ch=1 n=a#5 v=0
18312 On ch=1 n=d#6 v=0
18312 On ch=1 n=a#6 v=0
18360 On ch=1 n=c7 v=83
18360 On ch=1 n=c6 v=83
18432 On ch=1 n=c6 v=0
18432 On ch=1 n=c7 v=0
18480 On ch=1 n=c#7 v=83
18480 On ch=1 n=g#6 v=83
18480 On ch=1 n=c#6 v=83
18552 On ch=1 n=c#6 v=0
18552 On ch=1 n=g#6 v=0
18552 On ch=1 n=c#7 v=0
18600 On ch=1 n=d#6 v=83
18600 On ch=1 n=d#7 v=83
18672 On ch=1 n=d#7 v=0
18672 On ch=1 n=d#6 v=0
18696 Par ch=1 c=64 v=0
18720 Par ch=1 c=64 v=0
18720 On ch=1 n=f6 v=84
18720 On ch=1 n=c#7 v=84
18720 On ch=1 n=f7 v=84
18768 Par ch=1 c=64 v=127
19080 On ch=1 n=f7 v=0
19080 On ch=1 n=c#7 v=0
19080 On ch=1 n=f6 v=0
19080 On ch=1 n=c#7 v=85
19080 On ch=1 n=c#6 v=85
19152 On ch=1 n=c#6 v=0
19152 On ch=1 n=c#7 v=0
19200 On ch=1 n=c#7 v=85
19200 On ch=1 n=c#6 v=85
19344 On ch=1 n=c#6 v=0
19344 On ch=1 n=c#7 v=0
19440 On ch=1 n=c#7 v=86
19440 On ch=1 n=c#6 v=86
19512 On ch=1 n=c#6 v=0
19512 On ch=1 n=c#7 v=0
19560 On ch=1 n=c#7 v=86
19560 On ch=1 n=c#6 v=86
19632 On ch=1 n=c#6 v=0
19632 On ch=1 n=c#7 v=0
19680 On ch=1 n=c#7 v=86
19680 On ch=1 n=c#6 v=86
19752 On ch=1 n=c#6 v=0
19752 On ch=1 n=c#7 v=0
19800 On ch=1 n=c#7 v=87
19800 On ch=1 n=c#6 v=87
19872 On ch=1 n=c#6 v=0
19872 On ch=1 n=c#7 v=0
19920 On ch=1 n=c#7 v=87
19920 On ch=1 n=c#6 v=87
19992 On ch=1 n=c#6 v=0
19992 On ch=1 n=c#7 v=0
20040 On ch=1 n=c#6 v=87
20040 On ch=1 n=c#7 v=87
20112 On ch=1 n=c#7 v=0
20112 On ch=1 n=c#6 v=0
20136 Par ch=1 c=64 v=0
20160 Par ch=1 c=64 v=0
20160 On ch=1 n=c#6 v=88
20160 On ch=1 n=c#7 v=88
20400 On ch=1 n=c#7 v=0
20400 On ch=1 n=c#6 v=0
20400 On ch=1 n=b5 v=88
20400 On ch=1 n=f#6 v=88
20400 On ch=1 n=b6 v=88
20580 On ch=1 n=b6 v=0
20580 On ch=1 n=f#6 v=0
20580 On ch=1 n=b5 v=0
20580 On ch=1 n=b5 v=88
20580 On ch=1 n=f#6 v=88
20580 On ch=1 n=b6 v=88
20640 On ch=1 n=b6 v=0
20640 On ch=1 n=f#6 v=0
20640 On ch=1 n=b5 v=0
20640 On ch=1 n=b5 v=88
20640 On ch=1 n=f#6 v=88
20640 On ch=1 n=b6 v=88
20880 On ch=1 n=b6 v=0
20880 On ch=1 n=f#6 v=0
20880 On ch=1 n=b5 v=0
20880 On ch=1 n=c#6 v=88
20880 On ch=1 n=c#7 v=88
21120 On ch=1 n=c#7 v=0
21120 On ch=1 n=c#6 v=0
21120 On ch=1 n=e6 v=88
21120 On ch=1 n=a6 v=88
21120 On ch=1 n=e7 v=88
21360 On ch=1 n=e7 v=0
21360 On ch=1 n=a6 v=0
21360 On ch=1 n=e6 v=0
21360 On ch=1 n=d6 v=88
21360 On ch=1 n=d7 v=88
21480 On ch=1 n=d7 v=0
21480 On ch=1 n=d6 v=0
21480 On ch=1 n=c#7 v=88
21480 On ch=1 n=c#6 v=88
21600 On ch=1 n=c#6 v=0
21600 On ch=1 n=c#7 v=0
21600 Par ch=1 c=64 v=0
21600 On ch=1 n=b5 v=88
21600 On ch=1 n=b6 v=88
21840 On ch=1 n=b6 v=0
21840 On ch=1 n=b5 v=0
21840 On ch=1 n=b5 v=87
21840 On ch=1 n=e6 v=87
21840 On ch=1 n=b6 v=87
22020 On ch=1 n=b6 v=0
22020 On ch=1 n=e6 v=0
22020 On ch=1 n=b5 v=0
22020 On ch=1 n=c#6 v=86
22020 On ch=1 n=c#7 v=86
22080 On ch=1 n=c#7 v=0
22080 On ch=1 n=c#6 v=0
22080 On ch=1 n=b5 v=85
22080 On ch=1 n=e6 v=85
22080 On ch=1 n=b6 v=85
22104 Par ch=1 c=64 v=127
22560 On ch=1 n=b6 v=0
22560 On ch=1 n=e6 v=0
22560 On ch=1 n=b5 v=0
22560 On ch=1 n=a5 v=82
22560 On ch=1 n=a6 v=82
22800 On ch=1 n=a6 v=0
22800 On ch=1 n=a5 v=0
22800 Par ch=1 c=64 v=0
23040 Par ch=1 c=64 v=0
23040 On ch=1 n=a5 v=76
23040 On ch=1 n=b5 v=76
23040 On ch=1 n=d#6 v=76
23040 On ch=1 n=f#6 v=76
23040 On ch=1 n=b6 v=76
23088 Par ch=1 c=64 v=127
23280 On ch=1 n=b6 v=0
23280 On ch=1 n=f#6 v=0
23280 On ch=1 n=d#6 v=0
23280 On ch=1 n=b5 v=0
23280 On ch=1 n=a5 v=0
23400 On ch=1 n=a5 v=76
23400 On ch=1 n=b5 v=76
23400 On ch=1 n=d#6 v=76
23400 On ch=1 n=f#6 v=76
23496 Par ch=1 c=64 v=0
23520 On ch=1 n=f#6 v=0
23520 On ch=1 n=d#6 v=0
23520 On ch=1 n=b5 v=0
23520 On ch=1 n=a5 v=0
23520 On ch=1 n=a5 v=76
23520 On ch=1 n=b5 v=76
23520 On ch=1 n=d#6 v=76
23520 On ch=1 n=f#6 v=76
23760 On ch=1 n=f#6 v=0
23760 On ch=1 n=d#6 v=0
23760 On ch=1 n=b5 v=0
23760 On ch=1 n=a5 v=0
23760 On ch=1 n=a#4 v=76
23838 On ch=1 n=a#4 v=0
23838 On ch=1 n=b4 v=76
23918 On ch=1 n=b4 v=0
23918 On ch=1 n=c#5 v=76
23998 On ch=1 n=c#5 v=0
24000 On ch=1 n=b4 v=76
24240 On ch=1 n=b4 v=0
24240 On ch=1 n=g#5 v=76
24240 On ch=1 n=e6 v=76
24240 On ch=1 n=g#6 v=76
24384 On ch=1 n=g#6 v=0
24384 On ch=1 n=e6 v=0
24384 On ch=1 n=g#5 v=0
24480 On ch=1 n=b6 v=76
24480 On ch=1 n=f#6 v=76
24480 On ch=1 n=d#6 v=76
24480 On ch=1 n=b5 v=76
24480 On ch=1 n=a5 v=76
24480 Par ch=1 c=64 v=0
24528 Par ch=1 c=64 v=127
24624 On ch=1 n=a5 v=0
24624 On ch=1 n=b5 v=0
24624 On ch=1 n=d#6 v=0
24624 On ch=1 n=f#6 v=0
24624 On ch=1 n=b6 v=0
24720 On ch=1 n=f#6 v=76
24720 On ch=1 n=d#6 v=76
24720 On ch=1 n=b5 v=76
24720 On ch=1 n=a5 v=76
24786 On ch=1 n=a5 v=0
24786 On ch=1 n=b5 v=0
24786 On ch=1 n=d#6 v=0
24786 On ch=1 n=f#6 v=0
24798 On ch=1 n=f#6 v=76
24798 On ch=1 n=d#6 v=76
24798 On ch=1 n=b5 v=76
24798 On ch=1 n=a5 v=76
24866 On ch=1 n=a5 v=0
24866 On ch=1 n=b5 v=0
24866 On ch=1 n=d#6 v=0
24866 On ch=1 n=f#6 v=0
24878 On ch=1 n=f#6 v=76
24878 On ch=1 n=d#6 v=76
24878 On ch=1 n=b5 v=76
24878 On ch=1 n=a5 v=76
24946 On ch=1 n=a5 v=0
24946 On ch=1 n=b5 v=0
24946 On ch=1 n=d#6 v=0
24946 On ch=1 n=f#6 v=0
24960 On ch=1 n=a5 v=76
24960 On ch=1 n=b5 v=76
24960 On ch=1 n=d#6 v=76
24960 On ch=1 n=f#6 v=76
25104 Par ch=1 c=64 v=0
25200 On ch=1 n=f#6 v=0
25200 On ch=1 n=d#6 v=0
25200 On ch=1 n=b5 v=0
25200 On ch=1 n=a5 v=0
25200 On ch=1 n=a#4 v=76
25278 On ch=1 n=a#4 v=0
25278 On ch=1 n=b4 v=76
25358 On ch=1 n=b4 v=0
25358 On ch=1 n=c#5 v=76
25438 On ch=1 n=c#5 v=0
25440 On ch=1 n=b4 v=76
25680 On ch=1 n=b4 v=0
25680 On ch=1 n=g#6 v=76
25680 On ch=1 n=d#6 v=76
25680 On ch=1 n=g#5 v=76
25704 Par ch=1 c=64 v=127
25896 Par ch=1 c=64 v=0
25920 On ch=1 n=g#5 v=0
25920 On ch=1 n=d#6 v=0
25920 On ch=1 n=g#6 v=0
25920 Par ch=1 c=64 v=0
25920 Par ch=1 c=64 v=0
25920 On ch=1 n=e5 v=76
25920 On ch=1 n=g#5 v=76
25920 On ch=1 n=c#6 v=76
25920 On ch=1 n=e6 v=76
26160 On ch=1 n=e6 v=0
26160 On ch=1 n=c#6 v=0
26160 On ch=1 n=g#5 v=0
26160 On ch=1 n=e5 v=0
26160 On ch=1 n=e6 v=76
26160 On ch=1 n=c#6 v=76
26160 On ch=1 n=g#5 v=76
26160 On ch=1 n=e5 v=76
26232 On ch=1 n=e5 v=0
26232 On ch=1 n=g#5 v=0
26232 On ch=1 n=c#6 v=0
26232 On ch=1 n=e6 v=0
26280 On ch=1 n=e6 v=76
26280 On ch=1 n=c#6 v=76
26280 On ch=1 n=g#5 v=76
26280 On ch=1 n=e5 v=76
26352 On ch=1 n=e5 v=0
26352 On ch=1 n=g#5 v=0
26352 On ch=1 n=c#6 v=0
26352 On ch=1 n=e6 v=0
26400 On ch=1 n=a5 v=76
26400 On ch=1 n=c#6 v=76
26400 On ch=1 n=a6 v=76
26640 On ch=1 n=a6 v=0
26640 On ch=1 n=c#6 v=0
26640 On ch=1 n=a5 v=0
26640 On ch=1 n=g#5 v=76
26640 On ch=1 n=c#6 v=76
26640 On ch=1 n=g#6 v=76
26880 On ch=1 n=g#6 v=0
26880 On ch=1 n=c#6 v=0
26880 On ch=1 n=g#5 v=0
26880 On ch=1 n=f#5 v=76
26880 On ch=1 n=c#6 v=76
26880 On ch=1 n=f#6 v=76
27120 On ch=1 n=f#6 v=0
27120 On ch=1 n=c#6 v=0
27120 On ch=1 n=f#5 v=0
27120 On ch=1 n=g#6 v=76
27120 On ch=1 n=d#6 v=76
27120 On ch=1 n=c6 v=76
27120 On ch=1 n=g#5 v=76
27120 On ch=1 n=f#5 v=76
27360 On ch=1 n=f#5 v=0
27360 On ch=1 n=g#5 v=0
27360 On ch=1 n=c6 v=0
27360 On ch=1 n=d#6 v=0
27360 On ch=1 n=g#6 v=0
27360 Par ch=1 c=64 v=0
27360 On ch=1 n=e5 v=76
27360 On ch=1 n=g#5 v=76
27360 On ch=1 n=c#6 v=76
27360 On ch=1 n=e6 v=76
27600 On ch=1 n=e6 v=0
27600 On ch=1 n=c#6 v=0
27600 On ch=1 n=g#5 v=0
27600 On ch=1 n=e5 v=0
27600 On ch=1 n=c#5 v=76
27600 On ch=1 n=d#5 v=76
27600 On ch=1 n=g5 v=76
27600 On ch=1 n=a#5 v=76
27600 On ch=1 n=c#6 v=76
27600 On ch=1 n=d#6 v=76
27840 On ch=1 n=d#6 v=0
27840 On ch=1 n=c#6 v=0
27840 On ch=1 n=a#5 v=0
27840 On ch=1 n=g5 v=0
27840 On ch=1 n=d#5 v=0
27840 On ch=1 n=c#5 v=0
27840 On ch=1 n=c5 v=76
27840 On ch=1 n=d#5 v=76
27840 On ch=1 n=g#5 v=76
27840 On ch=1 n=c6 v=76
28080 On ch=1 n=c6 v=0
28080 On ch=1 n=g#5 v=0
28080 On ch=1 n=d#5 v=0
28080 On ch=1 n=c5 v=0
28080 On ch=1 n=d#5 v=76
28080 On ch=1 n=d#6 v=76
28104 Par ch=1 c=64 v=127
28200 On ch=1 n=d#6 v=0
28200 On ch=1 n=d#5 v=0
28200 On ch=1 n=d#5 v=76
28200 On ch=1 n=d#6 v=76
28320 On ch=1 n=d#6 v=0
28320 On ch=1 n=d#5 v=0
28320 On ch=1 n=d#5 v=76
28320 On ch=1 n=d#6 v=76
28440 On ch=1 n=d#6 v=0
28440 On ch=1 n=d#5 v=0
28440 On ch=1 n=d#5 v=76
28440 On ch=1 n=d#6 v=76
28560 On ch=1 n=d#6 v=0
28560 On ch=1 n=d#5 v=0
28560 On ch=1 n=d#5 v=76
28560 On ch=1 n=d#6 v=76
28680 On ch=1 n=d#6 v=0
28680 On ch=1 n=d#5 v=0
28680 On ch=1 n=d#6 v=76
28680 On ch=1 n=d#5 v=76
28776 Par ch=1 c=64 v=0
28800 On ch=1 n=d#5 v=0
28800 On ch=1 n=d#6 v=0
28800 Par ch=1 c=64 v=0
28800 On ch=1 n=c#6 v=76
28800 On ch=1 n=d#6 v=76
28800 On ch=1 n=g6 v=76
28800 On ch=1 n=a#6 v=76
28800 On ch=1 n=d#7 v=76
28848 Par ch=1 c=64 v=127
29040 On ch=1 n=d#7 v=0
29040 On ch=1 n=a#6 v=0
29040 On ch=1 n=g6 v=0
29040 On ch=1 n=d#6 v=0
29040 On ch=1 n=c#6 v=0
29160 On ch=1 n=a#6 v=76
29160 On ch=1 n=d#6 v=76
29160 On ch=1 n=c#6 v=76
29160 On ch=1 n=a#5 v=76
29232 On ch=1 n=a#5 v=0
29232 On ch=1 n=c#6 v=0
29232 On ch=1 n=d#6 v=0
29232 On ch=1 n=a#6 v=0
29280 On ch=1 n=a#6 v=76
29280 On ch=1 n=d#6 v=76
29280 On ch=1 n=c#6 v=76
29280 On ch=1 n=a#5 v=76
29424 On ch=1 n=a#5 v=0
29424 On ch=1 n=c#6 v=0
29424 On ch=1 n=d#6 v=0
29424 On ch=1 n=a#6 v=0
29496 Par ch=1 c=64 v=0
29520 On ch=1 n=d5 v=76
29598 On ch=1 n=d5 v=0
29598 On ch=1 n=d#5 v=76
29678 On ch=1 n=d#5 v=0
29678 On ch=1 n=f5 v=76
29758 On ch=1 n=f5 v=0
29760 On ch=1 n=d#5 v=76
30000 On ch=1 n=d#5 v=0
30000 On ch=1 n=c6 v=76
30000 On ch=1 n=d#6 v=76
30000 On ch=1 n=g#6 v=76
30000 On ch=1 n=c7 v=76
30144 On ch=1 n=c7 v=0
30144 On ch=1 n=g#6 v=0
30144 On ch=1 n=d#6 v=0
30144 On ch=1 n=c6 v=0
30240 On ch=1 n=d#7 v=76
30240 On ch=1 n=a#6 v=76
30240 On ch=1 n=g6 v=76
30240 On ch=1 n=d#6 v=76
30240 On ch=1 n=c#6 v=76
30240 Par ch=1 c=64 v=0
30288 Par ch=1 c=64 v=127
30444 On ch=1 n=c#6 v=0
30444 On ch=1 n=d#6 v=0
30444 On ch=1 n=g6 v=0
30444 On ch=1 n=a#6 v=0
30444 On ch=1 n=d#7 v=0
30480 On ch=1 n=a#6 v=76
30480 On ch=1 n=d#6 v=76
30480 On ch=1 n=c#6 v=76
30480 On ch=1 n=a#5 v=76
30546 On ch=1 n=a#5 v=0
30546 On ch=1 n=c#6 v=0
30546 On ch=1 n=d#6 v=0
30546 On ch=1 n=a#6 v=0
30558 On ch=1 n=a#6 v=76
30558 On ch=1 n=d#6 v=76
30558 On ch=1 n=c#6 v=76
30558 On ch=1 n=a#5 v=76
30626 On ch=1 n=a#5 v=0
30626 On ch=1 n=c#6 v=0
30626 On ch=1 n=d#6 v=0
30626 On ch=1 n=a#6 v=0
30638 On ch=1 n=a#6 v=76
30638 On ch=1 n=d#6 v=76
30638 On ch=1 n=c#6 v=76
30638 On ch=1 n=a#5 v=76
30706 On ch=1 n=a#5 v=0
30706 On ch=1 n=c#6 v=0
30706 On ch=1 n=d#6 v=0
30706 On ch=1 n=a#6 v=0
30720 On ch=1 n=a#5 v=76
30720 On ch=1 n=c#6 v=76
30720 On ch=1 n=d#6 v=76
30720 On ch=1 n=a#6 v=76
30936 Par ch=1 c=64 v=0
30960 On ch=1 n=a#6 v=0
30960 On ch=1 n=d#6 v=0
30960 On ch=1 n=c#6 v=0
30960 On ch=1 n=a#5 v=0
30960 On ch=1 n=d5 v=76
31038 On ch=1 n=d5 v=0
31038 On ch=1 n=d#5 v=76
31118 On ch=1 n=d#5 v=0
31118 On ch=1 n=f5 v=76
31198 On ch=1 n=f5 v=0
31200 On ch=1 n=d#5 v=76
31440 On ch=1 n=d#5 v=0
31440 On ch=1 n=c6 v=76
31440 On ch=1 n=d#6 v=76
31440 On ch=1 n=g#6 v=76
31440 On ch=1 n=c7 v=76
31560 On ch=1 n=c7 v=0
31560 On ch=1 n=g#6 v=0
31560 On ch=1 n=d#6 v=0
31560 On ch=1 n=c6 v=0
31680 On ch=1 n=c#7 v=76
31680 On ch=1 n=f#6 v=76
31680 On ch=1 n=c#6 v=76
31680 Par ch=1 c=64 v=0
31728 Par ch=1 c=64 v=127
31800 On ch=1 n=c#6 v=0
31800 On ch=1 n=f#6 v=0
31800 On ch=1 n=c#7 v=0
31920 On ch=1 n=f#6 v=76
31920 On ch=1 n=c#6 v=76
31920 On ch=1 n=f#5 v=76
31986 On ch=1 n=f#5 v=0
31986 On ch=1 n=c#6 v=0
31986 On ch=1 n=f#6 v=0
31998 On ch=1 n=f#6 v=76
31998 On ch=1 n=c#6 v=76
31998 On ch=1 n=f#5 v=76
32066 On ch=1 n=f#5 v=0
32066 On ch=1 n=c#6 v=0
32066 On ch=1 n=f#6 v=0
32078 On ch=1 n=f#6 v=76
32078 On ch=1 n=c#6 v=76
32078 On ch=1 n=f#5 v=76
32146 On ch=1 n=f#5 v=0
32146 On ch=1 n=c#6 v=0
32146 On ch=1 n=f#6 v=0
32160 On ch=1 n=f#5 v=76
32160 On ch=1 n=c#6 v=76
32160 On ch=1 n=f#6 v=76
32208 Par ch=1 c=64 v=0
32400 On ch=1 n=f#6 v=0
32400 On ch=1 n=c#6 v=0
32400 On ch=1 n=f#5 v=0
32400 On ch=1 n=g#5 v=76
32400 On ch=1 n=c#6 v=76
32400 On ch=1 n=e6 v=76
32400 On ch=1 n=g#6 v=76
32640 On ch=1 n=g#6 v=0
32640 On ch=1 n=e6 v=0
32640 On ch=1 n=c#6 v=0
32640 On ch=1 n=g#5 v=0
32640 On ch=1 n=a5 v=76
32640 On ch=1 n=c#6 v=76
32640 On ch=1 n=e6 v=76
32640 On ch=1 n=a6 v=76
32880 On ch=1 n=a6 v=0
32880 On ch=1 n=e6 v=0
32880 On ch=1 n=c#6 v=0
32880 On ch=1 n=a5 v=0
32880 On ch=1 n=b6 v=76
32880 On ch=1 n=d#6 v=76
32880 On ch=1 n=b5 v=76
32880 On ch=1 n=a5 v=76
33120 On ch=1 n=a5 v=0
33120 On ch=1 n=b5 v=0
33120 On ch=1 n=d#6 v=0
33120 On ch=1 n=b6 v=0
33120 Par ch=1 c=64 v=0
33120 On ch=1 n=e5 v=76
33120 On ch=1 n=g#5 v=76
33120 On ch=1 n=e6 v=76
33360 On ch=1 n=e6 v=0
33360 On ch=1 n=g#5 v=0
33360 On ch=1 n=e5 v=0
33360 On ch=1 n=e5 v=76
33360 On ch=1 n=g#5 v=76
33360 On ch=1 n=e6 v=76
33540 On ch=1 n=e6 v=0
33540 On ch=1 n=g#5 v=0
33540 On ch=1 n=e5 v=0
33540 On ch=1 n=e5 v=76
33540 On ch=1 n=e6 v=76
33600 On ch=1 n=e6 v=0
33600 On ch=1 n=e5 v=0
33600 On ch=1 n=e6 v=76
33600 On ch=1 n=e5 v=76
33600 On ch=1 n=a5 v=76
33720 On ch=1 n=e6 v=0
33780 On ch=1 n=a5 v=0
33780 On ch=1 n=e5 v=0
33780 On ch=1 n=e6 v=84
33840 On ch=1 n=e6 v=0
33840 On ch=1 n=a5 v=76
33840 On ch=1 n=d5 v=76
33840 On ch=1 n=d6 v=76
33960 On ch=1 n=d6 v=0
33960 On ch=1 n=d5 v=0
33960 On ch=1 n=c#5 v=76
33960 On ch=1 n=c#6 v=76
34080 On ch=1 n=c#6 v=0
34080 On ch=1 n=c#5 v=0
34080 On ch=1 n=a5 v=0
34080 On ch=1 n=d6 v=76
34080 On ch=1 n=d5 v=76
34080 On ch=1 n=e5 v=76
34080 On ch=1 n=g#5 v=76
34200 On ch=1 n=d6 v=0
34260 On ch=1 n=g#5 v=0
34260 On ch=1 n=e5 v=0
34260 On ch=1 n=d5 v=0
34260 On ch=1 n=d6 v=84
34320 On ch=1 n=d6 v=0
34320 On ch=1 n=g#5 v=76
34320 On ch=1 n=e5 v=76
34320 On ch=1 n=d5 v=76
34320 On ch=1 n=c#6 v=76
34440 On ch=1 n=c#6 v=0
34440 On ch=1 n=b5 v=76
34560 On ch=1 n=b5 v=0
34560 On ch=1 n=d5 v=0
34560 On ch=1 n=e5 v=0
34560 On ch=1 n=g#5 v=0
34560 Par ch=1 c=64 v=0
34560 On ch=1 n=c#5 v=76
34560 On ch=1 n=e5 v=76
34560 On ch=1 n=a5 v=76
34608 Par ch=1 c=64 v=127
34800 On ch=1 n=a5 v=0
34800 On ch=1 n=e5 v=0
34800 On ch=1 n=c#5 v=0
34920 On ch=1 n=c#5 v=76
34920 On ch=1 n=e5 v=76
35040 On ch=1 n=e5 v=0
35040 On ch=1 n=c#5 v=0
35040 On ch=1 n=c#5 v=76
35040 On ch=1 n=e5 v=76
35280 On ch=1 n=e5 v=0
35280 On ch=1 n=c#5 v=0
35400 On ch=1 n=c#5 v=76
35400 On ch=1 n=e5 v=76
35496 Par ch=1 c=64 v=0
35520 On ch=1 n=e5 v=0
35520 On ch=1 n=c#5 v=0
35520 On ch=1 n=f#5 v=76
35520 On ch=1 n=d5 v=76
35592 On ch=1 n=d5 v=0
35592 On ch=1 n=f#5 v=0
35640 On ch=1 n=g#5 v=76
35640 On ch=1 n=d5 v=76
35712 On ch=1 n=d5 v=0
35712 On ch=1 n=g#5 v=0
35760 On ch=1 n=a5 v=76
35760 On ch=1 n=d5 v=76
35832 On ch=1 n=d5 v=0
35832 On ch=1 n=a5 v=0
35880 On ch=1 n=d5 v=76
35880 On ch=1 n=b5 v=76
35952 On ch=1 n=b5 v=0
35952 On ch=1 n=d5 v=0
36000 Par ch=1 c=64 v=0
36000 On ch=1 n=c#5 v=76
36000 On ch=1 n=c#6 v=76
36048 Par ch=1 c=64 v=127
36360 On ch=1 n=c#6 v=0
36360 On ch=1 n=c#5 v=0
36360 On ch=1 n=c#5 v=76
36360 On ch=1 n=a5 v=76
36480 On ch=1 n=a5 v=0
36480 On ch=1 n=c#5 v=0
36480 On ch=1 n=a5 v=76
36480 Par ch=1 c=64 v=0
36480 On ch=1 n=c#5 v=76
36624 On ch=1 n=c#5 v=0
36624 On ch=1 n=a5 v=0
36720 On ch=1 n=g#4 v=76
36798 On ch=1 n=g#4 v=0
36798 On ch=1 n=a4 v=76
36878 On ch=1 n=a4 v=0
36878 On ch=1 n=b4 v=76
36958 On ch=1 n=b4 v=0
36960 On ch=1 n=a4 v=76
37104 On ch=1 n=a4 v=0
37200 On ch=1 n=e4 v=76
37344 On ch=1 n=e4 v=0
37440 Par ch=1 c=64 v=0
37440 On ch=1 n=c#5 v=76
37440 On ch=1 n=c#6 v=76
37488 Par ch=1 c=64 v=127
37680 On ch=1 n=c#6 v=0
37680 On ch=1 n=c#5 v=0
37800 On ch=1 n=c#5 v=76
37800 On ch=1 n=a5 v=76
37920 On ch=1 n=a5 v=0
37920 On ch=1 n=c#5 v=0
37920 On ch=1 n=c#5 v=76
37920 On ch=1 n=a5 v=76
38160 On ch=1 n=a5 v=0
38160 On ch=1 n=c#5 v=0
38280 On ch=1 n=c#5 v=76
38280 On ch=1 n=g#5 v=76
38376 Par ch=1 c=64 v=0
38400 On ch=1 n=g#5 v=0
38400 On ch=1 n=c#5 v=0
38400 On ch=1 n=a5 v=76
38400 On ch=1 n=c#5 v=76
38472 On ch=1 n=c#5 v=0
38472 On ch=1 n=a5 v=0
38520 On ch=1 n=b5 v=76
38520 On ch=1 n=a5 v=76
38520 On ch=1 n=c#5 v=76
38592 On ch=1 n=c#5 v=0
38592 On ch=1 n=a5 v=0
38592 On ch=1 n=b5 v=0
38640 On ch=1 n=c#6 v=76
38640 On ch=1 n=a5 v=76
38640 On ch=1 n=c#5 v=76
38712 On ch=1 n=c#5 v=0
38712 On ch=1 n=a5 v=0
38712 On ch=1 n=c#6 v=0
38760 On ch=1 n=d5 v=76
38760 On ch=1 n=a5 v=76
38760 On ch=1 n=d6 v=76
38832 On ch=1 n=d6 v=0
38832 On ch=1 n=a5 v=0
38832 On ch=1 n=d5 v=0
38880 Par ch=1 c=64 v=0
38880 On ch=1 n=d#5 v=76
38880 On ch=1 n=a5 v=76
38880 On ch=1 n=f#6 v=76
38928 Par ch=1 c=64 v=127
39240 On ch=1 n=f#6 v=0
39240 On ch=1 n=a5 v=0
39240 On ch=1 n=d#5 v=0
39240 On ch=1 n=e5 v=76
39240 On ch=1 n=a5 v=76
39240 On ch=1 n=e6 v=76
39312 Par ch=1 c=64 v=0
39360 On ch=1 n=e6 v=0
39360 On ch=1 n=a5 v=0
39360 On ch=1 n=e5 v=0
39360 On ch=1 n=e5 v=76
39360 Par ch=1 c=64 v=0
39360 On ch=1 n=a5 v=76
39360 On ch=1 n=e6 v=76
39600 On ch=1 n=e6 v=0
39600 On ch=1 n=a5 v=0
39600 On ch=1 n=e5 v=0
39600 On ch=1 n=g#4 v=76
39678 On ch=1 n=g#4 v=0
39678 On ch=1 n=a4 v=76
39758 On ch=1 n=a4 v=0
39758 On ch=1 n=b4 v=76
39838 On ch=1 n=b4 v=0
39840 On ch=1 n=a4 v=76
39984 On ch=1 n=a4 v=0
40080 On ch=1 n=e4 v=76
40224 On ch=1 n=e4 v=0
40320 On ch=1 n=c#7 v=76
40320 On ch=1 n=f6 v=76
40320 On ch=1 n=c#6 v=76
40320 Par ch=1 c=64 v=0
40368 Par ch=1 c=64 v=127
40464 On ch=1 n=c#6 v=0
40464 On ch=1 n=f6 v=0
40464 On ch=1 n=c#7 v=0
40560 On ch=1 n=g#5 v=76
40560 On ch=1 n=c#6 v=76
40560 On ch=1 n=g#6 v=76
40638 On ch=1 n=g#6 v=0
40638 On ch=1 n=c#6 v=0
40638 On ch=1 n=g#5 v=0
40638 On ch=1 n=g#5 v=76
40638 On ch=1 n=c#6 v=76
40638 On ch=1 n=g#6 v=76
40718 On ch=1 n=g#6 v=0
40718 On ch=1 n=c#6 v=0
40718 On ch=1 n=g#5 v=0
40718 On ch=1 n=g#5 v=76
40718 On ch=1 n=c#6 v=76
40718 On ch=1 n=g#6 v=76
40798 On ch=1 n=g#6 v=0
40798 On ch=1 n=c#6 v=0
40798 On ch=1 n=g#5 v=0
40800 On ch=1 n=g#5 v=76
40800 On ch=1 n=c#6 v=76
40800 On ch=1 n=g#6 v=76
41040 On ch=1 n=g#6 v=0
41040 On ch=1 n=c#6 v=0
41040 On ch=1 n=g#5 v=0
41040 On ch=1 n=g#5 v=76
41040 On ch=1 n=c#6 v=76
41040 On ch=1 n=g#6 v=76
41088 Par ch=1 c=64 v=0
41280 On ch=1 n=g#6 v=0
41280 On ch=1 n=c#6 v=0
41280 On ch=1 n=g#5 v=0
41280 On ch=1 n=a#6 v=76
41280 On ch=1 n=d#6 v=76
41280 On ch=1 n=a#5 v=76
41304 Par ch=1 c=64 v=127
41352 On ch=1 n=a#5 v=0
41352 On ch=1 n=d#6 v=0
41352 On ch=1 n=a#6 v=0
41400 On ch=1 n=c7 v=76
41400 On ch=1 n=c6 v=76
41472 On ch=1 n=c6 v=0
41472 On ch=1 n=c7 v=0
41520 On ch=1 n=c#7 v=76
41520 On ch=1 n=g#6 v=76
41520 On ch=1 n=c#6 v=76
41592 On ch=1 n=c#6 v=0
41592 On ch=1 n=g#6 v=0
41592 On ch=1 n=c#7 v=0
41640 On ch=1 n=d#6 v=76
41640 On ch=1 n=d#7 v=76
41712 On ch=1 n=d#7 v=0
41712 On ch=1 n=d#6 v=0
41736 Par ch=1 c=64 v=0
41760 Par ch=1 c=64 v=0
41760 On ch=1 n=f6 v=76
41760 On ch=1 n=c#7 v=76
41760 On ch=1 n=f7 v=76
41808 Par ch=1 c=64 v=127
42120 On ch=1 n=f7 v=0
42120 On ch=1 n=c#7 v=0
42120 On ch=1 n=f6 v=0
42120 On ch=1 n=c#7 v=76
42120 On ch=1 n=c#6 v=76
42192 On ch=1 n=c#6 v=0
42192 On ch=1 n=c#7 v=0
42240 On ch=1 n=c#7 v=76
42240 On ch=1 n=c#6 v=76
42384 On ch=1 n=c#6 v=0
42384 On ch=1 n=c#7 v=0
42480 On ch=1 n=c#7 v=76
42480 On ch=1 n=c#6 v=76
42552 On ch=1 n=c#6 v=0
42552 On ch=1 n=c#7 v=0
42600 On ch=1 n=c#7 v=76
42600 On ch=1 n=c#6 v=76
42672 On ch=1 n=c#6 v=0
42672 On ch=1 n=c#7 v=0
42720 On ch=1 n=c#7 v=76
42720 On ch=1 n=c#6 v=76
42792 On ch=1 n=c#6 v=0
42792 On ch=1 n=c#7 v=0
42840 On ch=1 n=c#7 v=76
42840 On ch=1 n=c#6 v=76
42912 On ch=1 n=c#6 v=0
42912 On ch=1 n=c#7 v=0
42960 On ch=1 n=c#7 v=76
42960 On ch=1 n=c#6 v=76
43032 On ch=1 n=c#6 v=0
43032 On ch=1 n=c#7 v=0
43080 On ch=1 n=c#6 v=76
43080 On ch=1 n=c#7 v=76
43152 On ch=1 n=c#7 v=0
43152 On ch=1 n=c#6 v=0
43176 Par ch=1 c=64 v=0
43200 Par ch=1 c=64 v=0
43200 On ch=1 n=c#6 v=76
43200 On ch=1 n=c#7 v=76
43440 On ch=1 n=c#7 v=0
43440 On ch=1 n=c#6 v=0
43440 On ch=1 n=b5 v=76
43440 On ch=1 n=f#6 v=76
43440 On ch=1 n=b6 v=76
43620 On ch=1 n=b6 v=0
43620 On ch=1 n=f#6 v=0
43620 On ch=1 n=b5 v=0
43620 On ch=1 n=b5 v=76
43620 On ch=1 n=f#6 v=76
43620 On ch=1 n=b6 v=76
43680 On ch=1 n=b6 v=0
43680 On ch=1 n=f#6 v=0
43680 On ch=1 n=b5 v=0
43680 On ch=1 n=b5 v=76
43680 On ch=1 n=f#6 v=76
43680 On ch=1 n=b6 v=76
43920 On ch=1 n=b6 v=0
43920 On ch=1 n=f#6 v=0
43920 On ch=1 n=b5 v=0
43920 On ch=1 n=c#6 v=76
43920 On ch=1 n=c#7 v=76
44160 On ch=1 n=c#7 v=0
44160 On ch=1 n=c#6 v=0
44160 On ch=1 n=e6 v=76
44160 On ch=1 n=a6 v=76
44160 On ch=1 n=e7 v=76
44400 On ch=1 n=e7 v=0
44400 On ch=1 n=a6 v=0
44400 On ch=1 n=e6 v=0
44400 On ch=1 n=d6 v=76
44400 On ch=1 n=d7 v=76
44520 On ch=1 n=d7 v=0
44520 On ch=1 n=d6 v=0
44520 On ch=1 n=c#7 v=76
44520 On ch=1 n=c#6 v=76
44640 On ch=1 n=c#6 v=0
44640 On ch=1 n=c#7 v=0
44640 On ch=1 n=b6 v=76
44640 On ch=1 n=b5 v=76
44640 Par ch=1 c=64 v=0
44760 On ch=1 n=b5 v=0
44760 On ch=1 n=b6 v=0
44880 On ch=1 n=b5 v=76
44880 On ch=1 n=e6 v=76
44880 On ch=1 n=b6 v=76
45060 On ch=1 n=b6 v=0
45060 On ch=1 n=e6 v=0
45060 On ch=1 n=b5 v=0
45060 On ch=1 n=c#6 v=76
45060 On ch=1 n=c#7 v=76
45120 On ch=1 n=c#7 v=0
45120 On ch=1 n=c#6 v=0
45120 On ch=1 n=b5 v=76
45120 On ch=1 n=e6 v=76
45120 On ch=1 n=b6 v=76
45144 Par ch=1 c=64 v=127
45600 On ch=1 n=b6 v=0
45600 On ch=1 n=e6 v=0
45600 On ch=1 n=b5 v=0
45600 On ch=1 n=a5 v=76
45600 On ch=1 n=a6 v=76
45840 On ch=1 n=a6 v=0
45840 On ch=1 n=a5 v=0
45840 Par ch=1 c=64 v=0
46080 Par ch=1 c=64 v=0
46080 On ch=1 n=a5 v=76
46080 On ch=1 n=b5 v=76
46080 On ch=1 n=d#6 v=76
46080 On ch=1 n=f#6 v=76
46080 On ch=1 n=b6 v=76
46128 Par ch=1 c=64 v=127
46320 On ch=1 n=b6 v=0
46320 On ch=1 n=f#6 v=0
46320 On ch=1 n=d#6 v=0
46320 On ch=1 n=b5 v=0
46320 On ch=1 n=a5 v=0
46440 On ch=1 n=a5 v=76
46440 On ch=1 n=b5 v=76
46440 On ch=1 n=d#6 v=76
46440 On ch=1 n=f#6 v=76
46536 Par ch=1 c=64 v=0
46560 On ch=1 n=f#6 v=0
46560 On ch=1 n=d#6 v=0
46560 On ch=1 n=b5 v=0
46560 On ch=1 n=a5 v=0
46560 On ch=1 n=a5 v=76
46560 On ch=1 n=b5 v=76
46560 On ch=1 n=d#6 v=76
46560 On ch=1 n=f#6 v=76
46800 On ch=1 n=f#6 v=0
46800 On ch=1 n=d#6 v=0
46800 On ch=1 n=b5 v=0
46800 On ch=1 n=a5 v=0
46800 On ch=1 n=a#4 v=76
46878 On ch=1 n=a#4 v=0
46878 On ch=1 n=b4 v=76
46958 On ch=1 n=b4 v=0
46958 On ch=1 n=c#5 v=76
47038 On ch=1 n=c#5 v=0
47040 On ch=1 n=b4 v=76
47280 On ch=1 n=b4 v=0
47280 On ch=1 n=g#5 v=76
47280 On ch=1 n=e6 v=76
47280 On ch=1 n=g#6 v=76
47424 On ch=1 n=g#6 v=0
47424 On ch=1 n=e6 v=0
47424 On ch=1 n=g#5 v=0
47520 On ch=1 n=b6 v=76
47520 On ch=1 n=f#6 v=76
47520 On ch=1 n=d#6 v=76
47520 On ch=1 n=b5 v=76
47520 On ch=1 n=a5 v=76
47520 Par ch=1 c=64 v=0
47568 Par ch=1 c=64 v=127
47664 On ch=1 n=a5 v=0
47664 On ch=1 n=b5 v=0
47664 On ch=1 n=d#6 v=0
47664 On ch=1 n=f#6 v=0
47664 On ch=1 n=b6 v=0
47760 On ch=1 n=f#6 v=76
47760 On ch=1 n=d#6 v=76
47760 On ch=1 n=b5 v=76
47760 On ch=1 n=a5 v=76
47826 On ch=1 n=a5 v=0
47826 On ch=1 n=b5 v=0
47826 On ch=1 n=d#6 v=0
47826 On ch=1 n=f#6 v=0
47838 On ch=1 n=f#6 v=76
47838 On ch=1 n=d#6 v=76
47838 On ch=1 n=b5 v=76
47838 On ch=1 n=a5 v=76
47906 On ch=1 n=a5 v=0
47906 On ch=1 n=b5 v=0
47906 On ch=1 n=d#6 v=0
47906 On ch=1 n=f#6 v=0
47918 On ch=1 n=f#6 v=76
47918 On ch=1 n=d#6 v=76
47918 On ch=1 n=b5 v=76
47918 On ch=1 n=a5 v=76
47986 On ch=1 n=a5 v=0
47986 On ch=1 n=b5 v=0
47986 On ch=1 n=d#6 v=0
47986 On ch=1 n=f#6 v=0
48000 On ch=1 n=a5 v=76
48000 On ch=1 n=b5 v=76
48000 On ch=1 n=d#6 v=76
48000 On ch=1 n=f#6 v=76
48144 Par ch=1 c=64 v=0
48240 On ch=1 n=f#6 v=0
48240 On ch=1 n=d#6 v=0
48240 On ch=1 n=b5 v=0
48240 On ch=1 n=a5 v=0
48240 On ch=1 n=a#4 v=76
48318 On ch=1 n=a#4 v=0
48318 On ch=1 n=b4 v=76
48398 On ch=1 n=b4 v=0
48398 On ch=1 n=c#5 v=76
48478 On ch=1 n=c#5 v=0
48480 On ch=1 n=b4 v=76
48720 On ch=1 n=b4 v=0
48720 On ch=1 n=g#6 v=76
48720 On ch=1 n=d#6 v=76
48720 On ch=1 n=g#5 v=76
48744 Par ch=1 c=64 v=127
48936 Par ch=1 c=64 v=0
48960 On ch=1 n=g#5 v=0
48960 On ch=1 n=d#6 v=0
48960 On ch=1 n=g#6 v=0
48960 Par ch=1 c=64 v=0
48960 Par ch=1 c=64 v=0
48960 On ch=1 n=e5 v=76
48960 On ch=1 n=g#5 v=76
48960 On ch=1 n=c#6 v=76
48960 On ch=1 n=e6 v=76
49200 On ch=1 n=e6 v=0
49200 On ch=1 n=c#6 v=0
49200 On ch=1 n=g#5 v=0
49200 On ch=1 n=e5 v=0
49200 On ch=1 n=e6 v=76
49200 On ch=1 n=c#6 v=76
49200 On ch=1 n=g#5 v=76
49200 On ch=1 n=e5 v=76
49272 On ch=1 n=e5 v=0
49272 On ch=1 n=g#5 v=0
49272 On ch=1 n=c#6 v=0
49272 On ch=1 n=e6 v=0
49320 On ch=1 n=e6 v=76
49320 On ch=1 n=c#6 v=76
49320 On ch=1 n=g#5 v=76
49320 On ch=1 n=e5 v=76
49392 On ch=1 n=e5 v=0
49392 On ch=1 n=g#5 v=0
49392 On ch=1 n=c#6 v=0
49392 On ch=1 n=e6 v=0
49440 On ch=1 n=a5 v=76
49440 On ch=1 n=c#6 v=76
49440 On ch=1 n=a6 v=76
49680 On ch=1 n=a6 v=0
49680 On ch=1 n=c#6 v=0
49680 On ch=1 n=a5 v=0
49680 On ch=1 n=g#5 v=76
49680 On ch=1 n=c#6 v=76
49680 On ch=1 n=g#6 v=76
49920 On ch=1 n=g#6 v=0
49920 On ch=1 n=c#6 v=0
49920 On ch=1 n=g#5 v=0
49920 On ch=1 n=f#5 v=76
49920 On ch=1 n=c#6 v=76
49920 On ch=1 n=f#6 v=76
50160 On ch=1 n=f#6 v=0
50160 On ch=1 n=c#6 v=0
50160 On ch=1 n=f#5 v=0
50160 On ch=1 n=g#6 v=76
50160 On ch=1 n=d#6 v=76
50160 On ch=1 n=c6 v=76
50160 On ch=1 n=g#5 v=76
50160 On ch=1 n=f#5 v=76
50400 On ch=1 n=f#5 v=0
50400 On ch=1 n=g#5 v=0
50400 On ch=1 n=c6 v=0
50400 On ch=1 n=d#6 v=0
50400 On ch=1 n=g#6 v=0
50400 Par ch=1 c=64 v=0
50400 On ch=1 n=e5 v=76
50400 On ch=1 n=g#5 v=76
50400 On ch=1 n=c#6 v=76
50400 On ch=1 n=e6 v=76
50640 On ch=1 n=e6 v=0
50640 On ch=1 n=c#6 v=0
50640 On ch=1 n=g#5 v=0
50640 On ch=1 n=e5 v=0
50640 On ch=1 n=c#5 v=76
50640 On ch=1 n=d#5 v=76
50640 On ch=1 n=g5 v=76
50640 On ch=1 n=a#5 v=76
50640 On ch=1 n=c#6 v=76
50640 On ch=1 n=d#6 v=76
50880 On ch=1 n=d#6 v=0
50880 On ch=1 n=c#6 v=0
50880 On ch=1 n=a#5 v=0
50880 On ch=1 n=g5 v=0
50880 On ch=1 n=d#5 v=0
50880 On ch=1 n=c#5 v=0
50880 On ch=1 n=c5 v=76
50880 On ch=1 n=d#5 v=76
50880 On ch=1 n=g#5 v=76
50880 On ch=1 n=c6 v=76
51120 On ch=1 n=c6 v=0
51120 On ch=1 n=g#5 v=0
51120 On ch=1 n=d#5 v=0
51120 On ch=1 n=c5 v=0
51120 On ch=1 n=d#5 v=76
51120 On ch=1 n=d#6 v=76
51144 Par ch=1 c=64 v=127
51240 On ch=1 n=d#6 v=0
51240 On ch=1 n=d#5 v=0
51240 On ch=1 n=d#5 v=76
51240 On ch=1 n=d#6 v=76
51360 On ch=1 n=d#6 v=0
51360 On ch=1 n=d#5 v=0
51360 On ch=1 n=d#5 v=76
51360 On ch=1 n=d#6 v=76
51480 On ch=1 n=d#6 v=0
51480 On ch=1 n=d#5 v=0
51480 On ch=1 n=d#5 v=76
51480 On ch=1 n=d#6 v=76
51600 On ch=1 n=d#6 v=0
51600 On ch=1 n=d#5 v=0
51600 On ch=1 n=d#5 v=76
51600 On ch=1 n=d#6 v=76
51720 On ch=1 n=d#6 v=0
51720 On ch=1 n=d#5 v=0
51720 On ch=1 n=d#6 v=76
51720 On ch=1 n=d#5 v=76
51816 Par ch=1 c=64 v=0
51840 On ch=1 n=d#5 v=0
51840 On ch=1 n=d#6 v=0
51840 Par ch=1 c=64 v=0
51840 On ch=1 n=c#6 v=76
51840 On ch=1 n=d#6 v=76
51840 On ch=1 n=g6 v=76
51840 On ch=1 n=a#6 v=76
51840 On ch=1 n=d#7 v=76
51888 Par ch=1 c=64 v=127
52080 On ch=1 n=d#7 v=0
52080 On ch=1 n=a#6 v=0
52080 On ch=1 n=g6 v=0
52080 On ch=1 n=d#6 v=0
52080 On ch=1 n=c#6 v=0
52200 On ch=1 n=a#6 v=76
52200 On ch=1 n=d#6 v=76
52200 On ch=1 n=c#6 v=76
52200 On ch=1 n=a#5 v=76
52272 On ch=1 n=a#5 v=0
52272 On ch=1 n=c#6 v=0
52272 On ch=1 n=d#6 v=0
52272 On ch=1 n=a#6 v=0
52320 On ch=1 n=a#6 v=76
52320 On ch=1 n=d#6 v=76
52320 On ch=1 n=c#6 v=76
52320 On ch=1 n=a#5 v=76
52464 On ch=1 n=a#5 v=0
52464 On ch=1 n=c#6 v=0
52464 On ch=1 n=d#6 v=0
52464 On ch=1 n=a#6 v=0
52536 Par ch=1 c=64 v=0
52560 On ch=1 n=d5 v=76
52638 On ch=1 n=d5 v=0
52638 On ch=1 n=d#5 v=76
52718 On ch=1 n=d#5 v=0
52718 On ch=1 n=f5 v=76
52798 On ch=1 n=f5 v=0
52800 On ch=1 n=d#5 v=76
53040 On ch=1 n=d#5 v=0
53040 On ch=1 n=c6 v=76
53040 On ch=1 n=d#6 v=76
53040 On ch=1 n=g#6 v=76
53040 On ch=1 n=c7 v=76
53184 On ch=1 n=c7 v=0
53184 On ch=1 n=g#6 v=0
53184 On ch=1 n=d#6 v=0
53184 On ch=1 n=c6 v=0
53280 On ch=1 n=d#7 v=76
53280 On ch=1 n=a#6 v=76
53280 On ch=1 n=g6 v=76
53280 On ch=1 n=d#6 v=76
53280 On ch=1 n=c#6 v=76
53280 Par ch=1 c=64 v=0
53328 Par ch=1 c=64 v=127
53484 On ch=1 n=c#6 v=0
53484 On ch=1 n=d#6 v=0
53484 On ch=1 n=g6 v=0
53484 On ch=1 n=a#6 v=0
53484 On ch=1 n=d#7 v=0
53520 On ch=1 n=a#6 v=76
53520 On ch=1 n=d#6 v=76
53520 On ch=1 n=c#6 v=76
53520 On ch=1 n=a#5 v=76
53586 On ch=1 n=a#5 v=0
53586 On ch=1 n=c#6 v=0
53586 On ch=1 n=d#6 v=0
53586 On ch=1 n=a#6 v=0
53598 On ch=1 n=a#6 v=76
53598 On ch=1 n=d#6 v=76
53598 On ch=1 n=c#6 v=76
53598 On ch=1 n=a#5 v=76
53666 On ch=1 n=a#5 v=0
53666 On ch=1 n=c#6 v=0
53666 On ch=1 n=d#6 v=0
53666 On ch=1 n=a#6 v=0
53678 On ch=1 n=a#6 v=76
53678 On ch=1 n=d#6 v=76
53678 On ch=1 n=c#6 v=76
53678 On ch=1 n=a#5 v=76
53746 On ch=1 n=a#5 v=0
53746 On ch=1 n=c#6 v=0
53746 On ch=1 n=d#6 v=0
53746 On ch=1 n=a#6 v=0
53760 On ch=1 n=a#5 v=76
53760 On ch=1 n=c#6 v=76
53760 On ch=1 n=d#6 v=76
53760 On ch=1 n=a#6 v=76
53976 Par ch=1 c=64 v=0
54000 On ch=1 n=a#6 v=0
54000 On ch=1 n=d#6 v=0
54000 On ch=1 n=c#6 v=0
54000 On ch=1 n=a#5 v=0
54000 On ch=1 n=d5 v=76
54078 On ch=1 n=d5 v=0
54078 On ch=1 n=d#5 v=76
54158 On ch=1 n=d#5 v=0
54158 On ch=1 n=f5 v=76
54238 On ch=1 n=f5 v=0
54240 On ch=1 n=d#5 v=76
54480 On ch=1 n=d#5 v=0
54480 On ch=1 n=c6 v=76
54480 On ch=1 n=d#6 v=76
54480 On ch=1 n=g#6 v=76
54480 On ch=1 n=c7 v=76
54600 On ch=1 n=c7 v=0
54600 On ch=1 n=g#6 v=0
54600 On ch=1 n=d#6 v=0
54600 On ch=1 n=c6 v=0
54720 On ch=1 n=c#7 v=76
54720 On ch=1 n=f#6 v=76
54720 On ch=1 n=c#6 v=76
54720 Par ch=1 c=64 v=0
54768 Par ch=1 c=64 v=127
54840 On ch=1 n=c#6 v=0
54840 On ch=1 n=f#6 v=0
54840 On ch=1 n=c#7 v=0
54960 On ch=1 n=f#6 v=76
54960 On ch=1 n=c#6 v=76
54960 On ch=1 n=f#5 v=76
55026 On ch=1 n=f#5 v=0
55026 On ch=1 n=c#6 v=0
55026 On ch=1 n=f#6 v=0
55038 On ch=1 n=f#6 v=76
55038 On ch=1 n=c#6 v=76
55038 On ch=1 n=f#5 v=76
55106 On ch=1 n=f#5 v=0
55106 On ch=1 n=c#6 v=0
55106 On ch=1 n=f#6 v=0
55118 On ch=1 n=f#6 v=76
55118 On ch=1 n=c#6 v=76
55118 On ch=1 n=f#5 v=76
55186 On ch=1 n=f#5 v=0
55186 On ch=1 n=c#6 v=0
55186 On ch=1 n=f#6 v=0
55200 On ch=1 n=f#5 v=76
55200 On ch=1 n=c#6 v=76
55200 On ch=1 n=f#6 v=76
55248 Par ch=1 c=64 v=0
55440 On ch=1 n=f#6 v=0
55440 On ch=1 n=c#6 v=0
55440 On ch=1 n=f#5 v=0
55440 On ch=1 n=g#5 v=76
55440 On ch=1 n=c#6 v=76
55440 On ch=1 n=e6 v=76
55440 On ch=1 n=g#6 v=76
55680 On ch=1 n=g#6 v=0
55680 On ch=1 n=e6 v=0
55680 On ch=1 n=c#6 v=0
55680 On ch=1 n=g#5 v=0
55680 On ch=1 n=a5 v=76
55680 On ch=1 n=c#6 v=76
55680 On ch=1 n=e6 v=76
55680 On ch=1 n=a6 v=76
55920 On ch=1 n=a6 v=0
55920 On ch=1 n=e6 v=0
55920 On ch=1 n=c#6 v=0
55920 On ch=1 n=a5 v=0
55920 On ch=1 n=b6 v=76
55920 On ch=1 n=d#6 v=76
55920 On ch=1 n=b5 v=76
55920 On ch=1 n=a5 v=76
56160 On ch=1 n=a5 v=0
56160 On ch=1 n=b5 v=0
56160 On ch=1 n=d#6 v=0
56160 On ch=1 n=b6 v=0
56160 Par ch=1 c=64 v=0
56160 On ch=1 n=e5 v=76
56160 On ch=1 n=g#5 v=76
56160 On ch=1 n=e6 v=76
56400 On ch=1 n=e6 v=0
56400 On ch=1 n=g#5 v=0
56400 On ch=1 n=e5 v=0
56400 On ch=1 n=e5 v=76
56400 On ch=1 n=g#5 v=76
56400 On ch=1 n=e6 v=76
56580 On ch=1 n=e6 v=0
56580 On ch=1 n=g#5 v=0
56580 On ch=1 n=e5 v=0
56580 On ch=1 n=e5 v=76
56580 On ch=1 n=e6 v=76
56640 On ch=1 n=e6 v=0
56640 On ch=1 n=e5 v=0
56640 On ch=1 n=e6 v=76
56640 On ch=1 n=e5 v=76
56640 On ch=1 n=a5 v=76
56760 On ch=1 n=e6 v=0
56820 On ch=1 n=a5 v=0
56820 On ch=1 n=e5 v=0
56820 On ch=1 n=e6 v=84
56880 On ch=1 n=e6 v=0
56880 On ch=1 n=a5 v=76
56880 On ch=1 n=d5 v=76
56880 On ch=1 n=d6 v=76
57000 On ch=1 n=d6 v=0
57000 On ch=1 n=d5 v=0
57000 On ch=1 n=c#5 v=76
57000 On ch=1 n=c#6 v=76
57120 On ch=1 n=c#6 v=0
57120 On ch=1 n=c#5 v=0
57120 On ch=1 n=a5 v=0
57120 On ch=1 n=d6 v=76
57120 On ch=1 n=d5 v=76
57120 On ch=1 n=e5 v=76
57120 On ch=1 n=g#5 v=76
57240 On ch=1 n=d6 v=0
57300 On ch=1 n=g#5 v=0
57300 On ch=1 n=e5 v=0
57300 On ch=1 n=d5 v=0
57300 On ch=1 n=d6 v=84
57360 On ch=1 n=d6 v=0
57360 On ch=1 n=g#5 v=76
57360 On ch=1 n=e5 v=76
57360 On ch=1 n=d5 v=76
57360 On ch=1 n=c#6 v=76
57480 On ch=1 n=c#6 v=0
57480 On ch=1 n=b5 v=76
57600 On ch=1 n=b5 v=0
57600 On ch=1 n=d5 v=0
57600 On ch=1 n=e5 v=0
57600 On ch=1 n=g#5 v=0
57600 Par ch=1 c=64 v=0
57600 On ch=1 n=c#5 v=76
57600 On ch=1 n=e5 v=76
57600 On ch=1 n=a5 v=76
57648 Par ch=1 c=64 v=127
57840 On ch=1 n=a5 v=0
57840 On ch=1 n=e5 v=0
57840 On ch=1 n=c#5 v=0
57960 On ch=1 n=c#5 v=76
57960 On ch=1 n=e5 v=76
58080 On ch=1 n=e5 v=0
58080 On ch=1 n=c#5 v=0
58080 On ch=1 n=c#5 v=76
58080 On ch=1 n=e5 v=76
58320 On ch=1 n=e5 v=0
58320 On ch=1 n=c#5 v=0
58440 On ch=1 n=c#5 v=76
58440 On ch=1 n=e5 v=76
58536 Par ch=1 c=64 v=0
58560 On ch=1 n=e5 v=0
58560 On ch=1 n=c#5 v=0
58560 On ch=1 n=f#5 v=76
58560 On ch=1 n=d5 v=76
58632 On ch=1 n=d5 v=0
58632 On ch=1 n=f#5 v=0
58680 On ch=1 n=g#5 v=76
58680 On ch=1 n=d5 v=76
58752 On ch=1 n=d5 v=0
58752 On ch=1 n=g#5 v=0
58800 On ch=1 n=a5 v=76
58800 On ch=1 n=d5 v=76
58872 On ch=1 n=d5 v=0
58872 On ch=1 n=a5 v=0
58920 On ch=1 n=d5 v=76
58920 On ch=1 n=b5 v=76
58992 On ch=1 n=b5 v=0
58992 On ch=1 n=d5 v=0
59040 Par ch=1 c=64 v=0
59040 On ch=1 n=c#5 v=76
59040 On ch=1 n=c#6 v=76
59088 Par ch=1 c=64 v=127
59400 On ch=1 n=c#6 v=0
59400 On ch=1 n=c#5 v=0
59400 On ch=1 n=c#5 v=76
59400 On ch=1 n=a5 v=76
59520 On ch=1 n=a5 v=0
59520 On ch=1 n=c#5 v=0
59520 On ch=1 n=a5 v=76
59520 Par ch=1 c=64 v=0
59520 On ch=1 n=c#5 v=76
59664 On ch=1 n=c#5 v=0
59664 On ch=1 n=a5 v=0
59760 On ch=1 n=g#4 v=76
59838 On ch=1 n=g#4 v=0
59838 On ch=1 n=a4 v=76
59918 On ch=1 n=a4 v=0
59918 On ch=1 n=b4 v=76
59998 On ch=1 n=b4 v=0
60000 On ch=1 n=a4 v=76
60144 On ch=1 n=a4 v=0
60240 On ch=1 n=e4 v=76
60384 On ch=1 n=e4 v=0
60480 Par ch=1 c=64 v=0
60480 On ch=1 n=c#5 v=76
60480 On ch=1 n=c#6 v=76
60528 Par ch=1 c=64 v=127
60720 On ch=1 n=c#6 v=0
60720 On ch=1 n=c#5 v=0
60840 On ch=1 n=c#5 v=76
60840 On ch=1 n=a5 v=76
60960 On ch=1 n=a5 v=0
60960 On ch=1 n=c#5 v=0
60960 On ch=1 n=c#5 v=76
60960 On ch=1 n=a5 v=76
61200 On ch=1 n=a5 v=0
61200 On ch=1 n=c#5 v=0
61320 On ch=1 n=c#5 v=76
61320 On ch=1 n=g#5 v=76
61416 Par ch=1 c=64 v=0
61440 On ch=1 n=g#5 v=0
61440 On ch=1 n=c#5 v=0
61440 On ch=1 n=a5 v=76
61440 On ch=1 n=c#5 v=76
61512 On ch=1 n=c#5 v=0
61512 On ch=1 n=a5 v=0
61560 On ch=1 n=b5 v=76
61560 On ch=1 n=a5 v=76
61560 On ch=1 n=c#5 v=76
61632 On ch=1 n=c#5 v=0
61632 On ch=1 n=a5 v=0
61632 On ch=1 n=b5 v=0
61680 On ch=1 n=c#6 v=76
61680 On ch=1 n=a5 v=76
61680 On ch=1 n=c#5 v=76
61752 On ch=1 n=c#5 v=0
61752 On ch=1 n=a5 v=0
61752 On ch=1 n=c#6 v=0
61800 On ch=1 n=d5 v=76
61800 On ch=1 n=a5 v=76
61800 On ch=1 n=d6 v=76
61872 On ch=1 n=d6 v=0
61872 On ch=1 n=a5 v=0
61872 On ch=1 n=d5 v=0
61920 Par ch=1 c=64 v=0
61920 On ch=1 n=d#5 v=76
61920 On ch=1 n=a5 v=76
61920 On ch=1 n=f#6 v=76
61968 Par ch=1 c=64 v=127
62280 On ch=1 n=f#6 v=0
62280 On ch=1 n=a5 v=0
62280 On ch=1 n=d#5 v=0
62280 On ch=1 n=e5 v=76
62280 On ch=1 n=a5 v=76
62280 On ch=1 n=e6 v=76
62352 Par ch=1 c=64 v=0
62400 On ch=1 n=e6 v=0
62400 On ch=1 n=a5 v=0
62400 On ch=1 n=e5 v=0
62400 On ch=1 n=e5 v=76
62400 Par ch=1 c=64 v=0
62400 On ch=1 n=a5 v=76
62400 On ch=1 n=e6 v=76
62640 On ch=1 n=e6 v=0
62640 On ch=1 n=a5 v=0
62640 On ch=1 n=e5 v=0
62640 On ch=1 n=g#4 v=76
62718 On ch=1 n=g#4 v=0
62718 On ch=1 n=a4 v=76
62798 On ch=1 n=a4 v=0
62798 On ch=1 n=b4 v=76
62878 On ch=1 n=b4 v=0
62880 On ch=1 n=a4 v=76
63024 On ch=1 n=a4 v=0
63120 On ch=1 n=e4 v=76
63264 On ch=1 n=e4 v=0
63360 On ch=1 n=c#7 v=76
63360 On ch=1 n=f6 v=76
63360 On ch=1 n=c#6 v=76
63360 Par ch=1 c=64 v=0
63408 Par ch=1 c=64 v=127
63504 On ch=1 n=c#6 v=0
63504 On ch=1 n=f6 v=0
63504 On ch=1 n=c#7 v=0
63600 On ch=1 n=g#5 v=76
63600 On ch=1 n=c#6 v=76
63600 On ch=1 n=g#6 v=76
63678 On ch=1 n=g#6 v=0
63678 On ch=1 n=c#6 v=0
63678 On ch=1 n=g#5 v=0
63678 On ch=1 n=g#5 v=76
63678 On ch=1 n=c#6 v=76
63678 On ch=1 n=g#6 v=76
63758 On ch=1 n=g#6 v=0
63758 On ch=1 n=c#6 v=0
63758 On ch=1 n=g#5 v=0
63758 On ch=1 n=g#5 v=76
63758 On ch=1 n=c#6 v=76
63758 On ch=1 n=g#6 v=76
63838 On ch=1 n=g#6 v=0
63838 On ch=1 n=c#6 v=0
63838 On ch=1 n=g#5 v=0
63840 On ch=1 n=g#5 v=76
63840 On ch=1 n=c#6 v=76
63840 On ch=1 n=g#6 v=76
64080 On ch=1 n=g#6 v=0
64080 On ch=1 n=c#6 v=0
64080 On ch=1 n=g#5 v=0
64080 On ch=1 n=g#5 v=76
64080 On ch=1 n=c#6 v=76
64080 On ch=1 n=g#6 v=76
64128 Par ch=1 c=64 v=0
64320 On ch=1 n=g#6 v=0
64320 On ch=1 n=c#6 v=0
64320 On ch=1 n=g#5 v=0
64320 On ch=1 n=a#6 v=76
64320 On ch=1 n=d#6 v=76
64320 On ch=1 n=a#5 v=76
64344 Par ch=1 c=64 v=127
64392 On ch=1 n=a#5 v=0
64392 On ch=1 n=d#6 v=0
64392 On ch=1 n=a#6 v=0
64440 On ch=1 n=c7 v=76
64440 On ch=1 n=c6 v=76
64512 On ch=1 n=c6 v=0
64512 On ch=1 n=c7 v=0
64560 On ch=1 n=c#7 v=76
64560 On ch=1 n=g#6 v=76
64560 On ch=1 n=c#6 v=76
64632 On ch=1 n=c#6 v=0
64632 On ch=1 n=g#6 v=0
64632 On ch=1 n=c#7 v=0
64680 On ch=1 n=d#6 v=76
64680 On ch=1 n=d#7 v=76
64752 On ch=1 n=d#7 v=0
64752 On ch=1 n=d#6 v=0
64776 Par ch=1 c=64 v=0
64800 Par ch=1 c=64 v=0
64800 On ch=1 n=f6 v=76
64800 On ch=1 n=c#7 v=76
64800 On ch=1 n=f7 v=76
64848 Par ch=1 c=64 v=127
65160 On ch=1 n=f7 v=0
65160 On ch=1 n=c#7 v=0
65160 On ch=1 n=f6 v=0
65160 On ch=1 n=c#7 v=76
65160 On ch=1 n=c#6 v=76
65232 On ch=1 n=c#6 v=0
65232 On ch=1 n=c#7 v=0
65280 On ch=1 n=c#7 v=76
65280 On ch=1 n=c#6 v=76
65424 On ch=1 n=c#6 v=0
65424 On ch=1 n=c#7 v=0
65520 On ch=1 n=c#7 v=76
65520 On ch=1 n=c#6 v=76
65592 On ch=1 n=c#6 v=0
65592 On ch=1 n=c#7 v=0
65640 On ch=1 n=c#7 v=76
65640 On ch=1 n=c#6 v=76
65712 On ch=1 n=c#6 v=0
65712 On ch=1 n=c#7 v=0
65760 On ch=1 n=c#7 v=76
65760 On ch=1 n=c#6 v=76
65832 On ch=1 n=c#6 v=0
65832 On ch=1 n=c#7 v=0
65880 On ch=1 n=c#7 v=76
65880 On ch=1 n=c#6 v=76
65952 On ch=1 n=c#6 v=0
65952 On ch=1 n=c#7 v=0
66000 On ch=1 n=c#7 v=76
66000 On ch=1 n=c#6 v=76
66072 On ch=1 n=c#6 v=0
66072 On ch=1 n=c#7 v=0
66120 On ch=1 n=c#6 v=76
66120 On ch=1 n=c#7 v=76
66192 On ch=1 n=c#7 v=0
66192 On ch=1 n=c#6 v=0
66216 Par ch=1 c=64 v=0
66240 Par ch=1 c=64 v=0
66240 On ch=1 n=c#6 v=76
66240 On ch=1 n=c#7 v=76
66480 On ch=1 n=c#7 v=0
66480 On ch=1 n=c#6 v=0
66480 On ch=1 n=b5 v=76
66480 On ch=1 n=f#6 v=76
66480 On ch=1 n=b6 v=76
66660 On ch=1 n=b6 v=0
66660 On ch=1 n=f#6 v=0
66660 On ch=1 n=b5 v=0
66660 On ch=1 n=b5 v=76
66660 On ch=1 n=f#6 v=76
66660 On ch=1 n=b6 v=76
66720 On ch=1 n=b6 v=0
66720 On ch=1 n=f#6 v=0
66720 On ch=1 n=b5 v=0
66720 On ch=1 n=b5 v=76
66720 On ch=1 n=f#6 v=76
66720 On ch=1 n=b6 v=76
66960 On ch=1 n=b6 v=0
66960 On ch=1 n=f#6 v=0
66960 On ch=1 n=b5 v=0
66960 On ch=1 n=c#6 v=76
66960 On ch=1 n=c#7 v=76
67200 On ch=1 n=c#7 v=0
67200 On ch=1 n=c#6 v=0
67200 On ch=1 n=e6 v=76
67200 On ch=1 n=a6 v=76
67200 On ch=1 n=e7 v=76
67440 On ch=1 n=e7 v=0
67440 On ch=1 n=a6 v=0
67440 On ch=1 n=e6 v=0
67440 On ch=1 n=d6 v=76
67440 On ch=1 n=d7 v=76
67560 On ch=1 n=d7 v=0
67560 On ch=1 n=d6 v=0
67560 On ch=1 n=c#7 v=76
67560 On ch=1 n=c#6 v=76
67680 On ch=1 n=c#6 v=0
67680 On ch=1 n=c#7 v=0
67680 On ch=1 n=b6 v=76
67680 On ch=1 n=b5 v=76
67680 Par ch=1 c=64 v=0
67800 On ch=1 n=b5 v=0
67800 On ch=1 n=b6 v=0
67920 On ch=1 n=b5 v=76
67920 On ch=1 n=e6 v=76
67920 On ch=1 n=b6 v=76
68100 On ch=1 n=b6 v=0
68100 On ch=1 n=e6 v=0
68100 On ch=1 n=b5 v=0
68100 On ch=1 n=c#6 v=76
68100 On ch=1 n=c#7 v=76
68160 On ch=1 n=c#7 v=0
68160 On ch=1 n=c#6 v=0
68160 On ch=1 n=b5 v=76
68160 On ch=1 n=e6 v=76
68160 On ch=1 n=b6 v=76
68184 Par ch=1 c=64 v=127
68640 On ch=1 n=b6 v=0
68640 On ch=1 n=e6 v=0
68640 On ch=1 n=b5 v=0
68640 On ch=1 n=a5 v=76
68640 On ch=1 n=a6 v=76
68880 On ch=1 n=a6 v=0
68880 On ch=1 n=a5 v=0
68880 Par ch=1 c=64 v=0
69120 Par ch=1 c=64 v=0
69120 On ch=1 n=d6 v=88
69168 Par ch=1 c=64 v=127
70056 Par ch=1 c=64 v=0
70080 On ch=1 n=d6 v=0
70080 On ch=1 n=a5 v=88
70560 On ch=1 n=a5 v=0
70560 Par ch=1 c=64 v=0
70560 On ch=1 n=d5 v=88
70608 Par ch=1 c=64 v=127
70800 On ch=1 n=d5 v=0
70920 On ch=1 n=a4 v=96
71040 On ch=1 n=a4 v=0
71040 On ch=1 n=d5 v=88
71496 Par ch=1 c=64 v=0
72000 On ch=1 n=d5 v=0
72000 Par ch=1 c=64 v=0
72000 On ch=1 n=a5 v=88
72048 Par ch=1 c=64 v=127
72936 Par ch=1 c=64 v=0
72960 On ch=1 n=a5 v=0
72960 On ch=1 n=e5 v=88
73440 On ch=1 n=e5 v=0
73440 Par ch=1 c=64 v=0
73440 On ch=1 n=a4 v=88
73488 Par ch=1 c=64 v=127
73680 On ch=1 n=a4 v=0
73800 On ch=1 n=e4 v=96
73920 On ch=1 n=e4 v=0
73920 On ch=1 n=a4 v=88
74376 Par ch=1 c=64 v=0
74880 On ch=1 n=a4 v=0
74880 Par ch=1 c=64 v=0
74880 On ch=1 n=b4 v=60
74928 Par ch=1 c=64 v=127
75120 On ch=1 n=b4 v=0
75120 On ch=1 n=b5 v=61
75120 On ch=1 n=g5 v=61
75120 On ch=1 n=d5 v=61
75178 On ch=1 n=d5 v=0
75178 On ch=1 n=g5 v=0
75178 On ch=1 n=b5 v=0
75198 On ch=1 n=b4 v=61
75258 On ch=1 n=b4 v=0
75278 On ch=1 n=d5 v=61
75278 On ch=1 n=g5 v=61
75278 On ch=1 n=b5 v=61
75360 On ch=1 n=b4 v=62
75384 Par ch=1 c=64 v=0
75600 On ch=1 n=b4 v=0
75600 On ch=1 n=b5 v=0
75600 On ch=1 n=g5 v=0
75600 On ch=1 n=d5 v=0
75600 On ch=1 n=c#5 v=63
75600 On ch=1 n=f#5 v=63
75600 On ch=1 n=a#5 v=63
75600 On ch=1 n=c#6 v=63
75840 On ch=1 n=c#6 v=0
75840 On ch=1 n=a#5 v=0
75840 On ch=1 n=f#5 v=0
75840 On ch=1 n=c#5 v=0
75840 On ch=1 n=d5 v=64
75840 On ch=1 n=f#5 v=64
75840 On ch=1 n=b5 v=64
75840 On ch=1 n=d6 v=64
76080 On ch=1 n=d6 v=0
76080 On ch=1 n=b5 v=0
76080 On ch=1 n=f#5 v=0
76080 On ch=1 n=d5 v=0
76080 On ch=1 n=e6 v=65
76080 On ch=1 n=c#6 v=65
76080 On ch=1 n=a5 v=65
76080 On ch=1 n=e5 v=65
76320 On ch=1 n=e5 v=0
76320 On ch=1 n=a5 v=0
76320 On ch=1 n=c#6 v=0
76320 On ch=1 n=e6 v=0
76320 On ch=1 n=f#6 v=66
76320 On ch=1 n=d6 v=66
76320 On ch=1 n=a5 v=66
76320 On ch=1 n=f#5 v=66
76320 Par ch=1 c=64 v=0
76344 Par ch=1 c=64 v=127
76464 On ch=1 n=f#5 v=0
76464 On ch=1 n=a5 v=0
76464 On ch=1 n=d6 v=0
76464 On ch=1 n=f#6 v=0
76560 On ch=1 n=f#6 v=67
76560 On ch=1 n=d6 v=67
76560 On ch=1 n=a5 v=67
76618 On ch=1 n=a5 v=0
76618 On ch=1 n=d6 v=0
76618 On ch=1 n=f#6 v=0
76638 On ch=1 n=f#5 v=67
76698 On ch=1 n=f#5 v=0
76718 On ch=1 n=a5 v=68
76718 On ch=1 n=d6 v=68
76718 On ch=1 n=f#6 v=68
76800 On ch=1 n=f#5 v=68
77016 Par ch=1 c=64 v=0
77040 On ch=1 n=f#5 v=0
77040 On ch=1 n=f#6 v=0
77040 On ch=1 n=d6 v=0
77040 On ch=1 n=a5 v=0
77040 On ch=1 n=g#5 v=69
77040 On ch=1 n=c#6 v=69
77040 On ch=1 n=f6 v=69
77040 On ch=1 n=g#6 v=69
77280 On ch=1 n=g#6 v=0
77280 On ch=1 n=f6 v=0
77280 On ch=1 n=c#6 v=0
77280 On ch=1 n=g#5 v=0
77280 On ch=1 n=a5 v=70
77280 On ch=1 n=c#6 v=70
77280 On ch=1 n=f#6 v=70
77280 On ch=1 n=a6 v=70
77520 On ch=1 n=a6 v=0
77520 On ch=1 n=f#6 v=0
77520 On ch=1 n=c#6 v=0
77520 On ch=1 n=a5 v=0
77520 On ch=1 n=b6 v=71
77520 On ch=1 n=g#6 v=71
77520 On ch=1 n=e6 v=71
77520 On ch=1 n=b5 v=71
77760 On ch=1 n=b5 v=0
77760 On ch=1 n=e6 v=0
77760 On ch=1 n=g#6 v=0
77760 On ch=1 n=b6 v=0
77760 On ch=1 n=c#7 v=73
77760 On ch=1 n=g6 v=73
77760 On ch=1 n=c#6 v=73
77760 Par ch=1 c=64 v=0
77784 Par ch=1 c=64 v=127
77904 On ch=1 n=c#6 v=0
77904 On ch=1 n=g6 v=0
77904 On ch=1 n=c#7 v=0
78000 On ch=1 n=c#7 v=74
78000 On ch=1 n=g6 v=74
78000 On ch=1 n=c#6 v=74
78072 On ch=1 n=c#6 v=0
78072 On ch=1 n=g6 v=0
78072 On ch=1 n=c#7 v=0
78120 On ch=1 n=c#7 v=74
78120 On ch=1 n=g6 v=74
78120 On ch=1 n=c#6 v=74
78192 On ch=1 n=c#6 v=0
78192 On ch=1 n=g6 v=0
78192 On ch=1 n=c#7 v=0
78240 On ch=1 n=c#7 v=75
78240 On ch=1 n=g6 v=75
78240 On ch=1 n=c#6 v=75
78384 On ch=1 n=c#6 v=0
78384 On ch=1 n=g6 v=0
78384 On ch=1 n=c#7 v=0
78480 On ch=1 n=b6 v=76
78480 On ch=1 n=g6 v=76
78480 On ch=1 n=c#6 v=76
78552 On ch=1 n=c#6 v=0
78552 On ch=1 n=g6 v=0
78552 On ch=1 n=b6 v=0
78600 On ch=1 n=a6 v=76
78600 On ch=1 n=g6 v=76
78600 On ch=1 n=c#6 v=76
78672 On ch=1 n=c#6 v=0
78672 On ch=1 n=g6 v=0
78672 On ch=1 n=a6 v=0
78672 Par ch=1 c=64 v=0
78720 On ch=1 n=d6 v=77
78720 On ch=1 n=f#6 v=77
78720 On ch=1 n=d7 v=77
78960 On ch=1 n=d7 v=0
78960 On ch=1 n=f#6 v=0
78960 On ch=1 n=d6 v=0
78960 On ch=1 n=d#7 v=78
78960 On ch=1 n=a6 v=78
78960 On ch=1 n=d#6 v=78
79200 On ch=1 n=d#6 v=0
79200 On ch=1 n=a6 v=0
79200 On ch=1 n=d#7 v=0
79200 On ch=1 n=e7 v=79
79200 On ch=1 n=a6 v=79
79200 On ch=1 n=e6 v=79
79200 Par ch=1 c=64 v=0
79344 On ch=1 n=e6 v=0
79344 On ch=1 n=a6 v=0
79344 On ch=1 n=e7 v=0
79440 On ch=1 n=a7 v=80
79440 On ch=1 n=a6 v=80
79464 Par ch=1 c=64 v=127
79512 On ch=1 n=a6 v=0
79512 On ch=1 n=a7 v=0
79560 On ch=1 n=a7 v=81
79560 On ch=1 n=a6 v=81
79632 On ch=1 n=a6 v=0
79632 On ch=1 n=a7 v=0
79680 On ch=1 n=a7 v=81
79680 On ch=1 n=a6 v=81
79824 On ch=1 n=a6 v=0
79824 On ch=1 n=a7 v=0
79920 On ch=1 n=g#7 v=82
79920 On ch=1 n=g#6 v=82
79992 On ch=1 n=g#6 v=0
79992 On ch=1 n=g#7 v=0
80040 On ch=1 n=a7 v=83
80040 On ch=1 n=a6 v=83
80112 On ch=1 n=a6 v=0
80112 On ch=1 n=a7 v=0
80136 Par ch=1 c=64 v=0
80160 On ch=1 n=a#7 v=83
80160 On ch=1 n=a#6 v=83
80232 On ch=1 n=a#6 v=0
80232 On ch=1 n=a#7 v=0
80280 On ch=1 n=b7 v=84
80280 On ch=1 n=b6 v=84
80352 On ch=1 n=b6 v=0
80352 On ch=1 n=b7 v=0
80400 On ch=1 n=c8 v=84
80400 On ch=1 n=c7 v=84
80472 On ch=1 n=c7 v=0
80472 On ch=1 n=c8 v=0
80520 On ch=1 n=c#7 v=85
80520 On ch=1 n=c#8 v=85
80592 On ch=1 n=c#8 v=0
80592 On ch=1 n=c#7 v=0
80640 On ch=1 n=d7 v=88
80640 On ch=1 n=d8 v=88
80688 Par ch=1 c=64 v=127
81576 Par ch=1 c=64 v=0
81600 On ch=1 n=d8 v=0
81600 On ch=1 n=d7 v=0
81600 On ch=1 n=a7 v=88
81600 On ch=1 n=a6 v=88
82080 On ch=1 n=a6 v=0
82080 On ch=1 n=a7 v=0
82080 On ch=1 n=d6 v=88
82080 On ch=1 n=d7 v=88
82128 Par ch=1 c=64 v=127
82320 On ch=1 n=d7 v=0
82320 On ch=1 n=d6 v=0
82440 On ch=1 n=a5 v=88
82440 On ch=1 n=a6 v=88
82560 On ch=1 n=a6 v=0
82560 On ch=1 n=a5 v=0
82560 On ch=1 n=d7 v=88
82560 On ch=1 n=d6 v=88
83016 Par ch=1 c=64 v=0
83520 On ch=1 n=d6 v=0
83520 On ch=1 n=d7 v=0
83520 On ch=1 n=a6 v=88
83520 On ch=1 n=a7 v=88
83568 Par ch=1 c=64 v=127
84456 Par ch=1 c=64 v=0
84480 On ch=1 n=a7 v=0
84480 On ch=1 n=a6 v=0
84480 On ch=1 n=e7 v=88
84480 On ch=1 n=e6 v=88
84960 On ch=1 n=e6 v=0
84960 On ch=1 n=e7 v=0
84960 Par ch=1 c=64 v=0
84960 On ch=1 n=a5 v=88
84960 On ch=1 n=a6 v=88
85008 Par ch=1 c=64 v=127
85200 On ch=1 n=a6 v=0
85200 On ch=1 n=a5 v=0
85320 On ch=1 n=e5 v=88
85320 On ch=1 n=e6 v=88
85440 On ch=1 n=e6 v=0
85440 On ch=1 n=e5 v=0
85440 On ch=1 n=a6 v=88
85440 On ch=1 n=a5 v=88
85896 Par ch=1 c=64 v=0
86400 On ch=1 n=a5 v=0
86400 On ch=1 n=a6 v=0
86400 On ch=1 n=a6 v=88
86400 On ch=1 n=d#6 v=88
86400 On ch=1 n=a5 v=88
86400 Par ch=1 c=64 v=0
86448 Par ch=1 c=64 v=127
86544 On ch=1 n=a5 v=0
86544 On ch=1 n=d#6 v=0
86544 On ch=1 n=a6 v=0
86640 On ch=1 n=a5 v=88
86640 On ch=1 n=d#6 v=88
86640 On ch=1 n=a6 v=88
86760 On ch=1 n=a6 v=0
86760 On ch=1 n=d#6 v=0
86760 On ch=1 n=a5 v=0
86760 On ch=1 n=a5 v=88
86760 On ch=1 n=d#6 v=88
86760 On ch=1 n=a6 v=88
86880 On ch=1 n=a6 v=0
86880 On ch=1 n=d#6 v=0
86880 On ch=1 n=a5 v=0
86880 On ch=1 n=a5 v=88
86880 On ch=1 n=d#6 v=88
86880 On ch=1 n=a6 v=88
87120 On ch=1 n=a6 v=0
87120 On ch=1 n=d#6 v=0
87120 On ch=1 n=a5 v=0
87120 On ch=1 n=a5 v=88
87120 On ch=1 n=d#6 v=88
87120 On ch=1 n=g6 v=88
87240 On ch=1 n=g6 v=0
87240 On ch=1 n=d#6 v=0
87240 On ch=1 n=a5 v=0
87240 On ch=1 n=a5 v=88
87240 Par ch=1 c=64 v=0
87240 On ch=1 n=d#6 v=88
87240 On ch=1 n=f6 v=88
87240 On ch=1 n=a6 v=88
87360 On ch=1 n=a6 v=0
87360 On ch=1 n=f6 v=0
87360 On ch=1 n=d#6 v=0
87360 On ch=1 n=a5 v=0
87360 On ch=1 n=a#6 v=88
87360 On ch=1 n=a#5 v=88
87360 On ch=1 n=d6 v=88
87360 On ch=1 n=f6 v=88
87408 Par ch=1 c=64 v=127
87600 On ch=1 n=f6 v=0
87600 On ch=1 n=d6 v=0
87600 On ch=1 n=a#5 v=0
87600 On ch=1 n=f6 v=64
87600 On ch=1 n=d6 v=64
87600 On ch=1 n=a#5 v=64
87816 Par ch=1 c=64 v=0
87840 On ch=1 n=a#5 v=0
87840 On ch=1 n=d6 v=0
87840 On ch=1 n=f6 v=0
87840 On ch=1 n=a#6 v=0
87840 Par ch=1 c=64 v=0
87840 On ch=1 n=b5 v=88
87840 On ch=1 n=f6 v=88
87840 On ch=1 n=b6 v=88
87888 Par ch=1 c=64 v=127
88080 On ch=1 n=b6 v=0
88080 On ch=1 n=f6 v=0
88080 On ch=1 n=b5 v=0
88080 On ch=1 n=b5 v=88
88080 On ch=1 n=f6 v=88
88080 On ch=1 n=b6 v=88
88200 On ch=1 n=b6 v=0
88200 On ch=1 n=f6 v=0
88200 On ch=1 n=b5 v=0
88200 On ch=1 n=b5 v=88
88200 On ch=1 n=f6 v=88
88200 On ch=1 n=b6 v=88
88320 On ch=1 n=b6 v=0
88320 On ch=1 n=f6 v=0
88320 On ch=1 n=b5 v=0
88320 On ch=1 n=b5 v=88
88320 On ch=1 n=f6 v=88
88320 On ch=1 n=b6 v=88
88560 On ch=1 n=b6 v=0
88560 On ch=1 n=f6 v=0
88560 On ch=1 n=b5 v=0
88560 On ch=1 n=b5 v=88
88560 On ch=1 n=f6 v=88
88560 On ch=1 n=a6 v=88
88680 On ch=1 n=a6 v=0
88680 On ch=1 n=f6 v=0
88680 On ch=1 n=b5 v=0
88680 On ch=1 n=b5 v=88
88680 Par ch=1 c=64 v=0
88680 On ch=1 n=f6 v=88
88680 On ch=1 n=g6 v=88
88680 On ch=1 n=b6 v=88
88800 On ch=1 n=b6 v=0
88800 On ch=1 n=g6 v=0
88800 On ch=1 n=f6 v=0
88800 On ch=1 n=b5 v=0
88800 On ch=1 n=c7 v=88
88800 On ch=1 n=c6 v=88
88800 On ch=1 n=e6 v=88
88800 On ch=1 n=g6 v=88
88848 Par ch=1 c=64 v=127
89040 On ch=1 n=g6 v=0
89040 On ch=1 n=e6 v=0
89040 On ch=1 n=c6 v=0
89040 On ch=1 n=g6 v=64
89040 On ch=1 n=e6 v=64
89040 On ch=1 n=c6 v=64
89256 Par ch=1 c=64 v=0
89280 On ch=1 n=c6 v=0
89280 On ch=1 n=e6 v=0
89280 On ch=1 n=g6 v=0
89280 On ch=1 n=c7 v=0
89280 Par ch=1 c=64 v=0
89280 On ch=1 n=c#6 v=88
89280 On ch=1 n=g6 v=88
89280 On ch=1 n=c#7 v=88
89328 Par ch=1 c=64 v=127
89520 On ch=1 n=c#7 v=0
89520 On ch=1 n=g6 v=0
89520 On ch=1 n=c#6 v=0
89520 On ch=1 n=c#6 v=88
89520 On ch=1 n=g6 v=88
89520 On ch=1 n=c#7 v=88
89640 On ch=1 n=c#7 v=0
89640 On ch=1 n=g6 v=0
89640 On ch=1 n=c#6 v=0
89640 On ch=1 n=d6 v=88
89640 On ch=1 n=g6 v=88
89640 On ch=1 n=d7 v=88
89760 On ch=1 n=d7 v=0
89760 On ch=1 n=g6 v=0
89760 On ch=1 n=d6 v=0
89760 On ch=1 n=e6 v=88
89760 On ch=1 n=g6 v=88
89760 On ch=1 n=e7 v=88
90000 On ch=1 n=e7 v=0
90000 On ch=1 n=g6 v=0
90000 On ch=1 n=e6 v=0
90000 On ch=1 n=c#6 v=88
90000 On ch=1 n=g6 v=88
90000 On ch=1 n=c#7 v=88
90120 On ch=1 n=c#7 v=0
90120 On ch=1 n=g6 v=0
90120 On ch=1 n=c#6 v=0
90120 On ch=1 n=d6 v=88
90120 On ch=1 n=d7 v=88
90240 On ch=1 n=d7 v=0
90240 On ch=1 n=d6 v=0
90240 On ch=1 n=e6 v=88
90240 On ch=1 n=e7 v=88
90360 On ch=1 n=e7 v=0
90360 On ch=1 n=e6 v=0
90360 On ch=1 n=f#6 v=88
90360 On ch=1 n=f#7 v=88
90480 On ch=1 n=f#7 v=0
90480 On ch=1 n=f#6 v=0
90480 On ch=1 n=g6 v=88
90480 On ch=1 n=g7 v=88
90600 On ch=1 n=g7 v=0
90600 On ch=1 n=g6 v=0
90600 On ch=1 n=g#7 v=88
90600 On ch=1 n=g#6 v=88
90720 On ch=1 n=g#6 v=0
90720 On ch=1 n=g#7 v=0
90720 Par ch=1 c=64 v=0
90720 On ch=1 n=a6 v=88
90720 On ch=1 n=a7 v=88
90840 On ch=1 n=a7 v=0
90840 On ch=1 n=a6 v=0
90840 On ch=1 n=a#6 v=88
90840 On ch=1 n=a#7 v=88
90960 On ch=1 n=a#7 v=0
90960 On ch=1 n=a#6 v=0
90960 On ch=1 n=b6 v=88
90960 On ch=1 n=b7 v=88
91080 On ch=1 n=b7 v=0
91080 On ch=1 n=b6 v=0
91080 On ch=1 n=c#7 v=88
91080 On ch=1 n=c#8 v=88
91200 On ch=1 n=c#8 v=0
91200 On ch=1 n=c#7 v=0
91200 On ch=1 n=e7 v=88
91200 On ch=1 n=a7 v=88
91200 On ch=1 n=e8 v=88
91680 On ch=1 n=e8 v=0
91680 On ch=1 n=a7 v=0
91680 On ch=1 n=e7 v=0
91680 On ch=1 n=d7 v=88
91680 On ch=1 n=d8 v=88
91920 On ch=1 n=d8 v=0
91920 On ch=1 n=d7 v=0
91920 Par ch=1 c=64 v=0
92160 On ch=1 n=d5 v=76
92160 Par ch=1 c=64 v=0
92208 Par ch=1 c=64 v=127
92220 On ch=1 n=d6 v=76
92280 On ch=1 n=d5 v=0
93096 Par ch=1 c=64 v=0
93120 On ch=1 n=d6 v=0
93120 On ch=1 n=a5 v=76
93600 On ch=1 n=a5 v=0
93600 Par ch=1 c=64 v=0
93600 On ch=1 n=d5 v=76
93648 Par ch=1 c=64 v=127
93840 On ch=1 n=d5 v=0
93960 On ch=1 n=a4 v=84
94080 On ch=1 n=a4 v=0
94080 On ch=1 n=d5 v=76
94536 Par ch=1 c=64 v=0
95040 On ch=1 n=d5 v=0
95040 Par ch=1 c=64 v=0
95040 On ch=1 n=a5 v=76
95088 Par ch=1 c=64 v=127
95976 Par ch=1 c=64 v=0
96000 On ch=1 n=a5 v=0
96000 On ch=1 n=e5 v=76
96480 On ch=1 n=e5 v=0
96480 Par ch=1 c=64 v=0
96480 On ch=1 n=a4 v=76
96528 Par ch=1 c=64 v=127
96720 On ch=1 n=a4 v=0
96840 On ch=1 n=e4 v=84
96960 On ch=1 n=e4 v=0
96960 On ch=1 n=a4 v=76
97416 Par ch=1 c=64 v=0
97920 On ch=1 n=a4 v=0
97920 Par ch=1 c=64 v=0
97920 On ch=1 n=b4 v=56
97968 Par ch=1 c=64 v=127
98160 On ch=1 n=b4 v=0
98160 On ch=1 n=d5 v=57
98160 On ch=1 n=g5 v=57
98160 On ch=1 n=b5 v=57
98238 On ch=1 n=b5 v=0
98238 On ch=1 n=g5 v=0
98238 On ch=1 n=d5 v=0
98238 On ch=1 n=b4 v=57
98318 On ch=1 n=b4 v=0
98318 On ch=1 n=d5 v=58
98318 On ch=1 n=g5 v=58
98318 On ch=1 n=b5 v=58
98400 On ch=1 n=b4 v=58
98424 Par ch=1 c=64 v=0
98640 On ch=1 n=b4 v=0
98640 On ch=1 n=b5 v=0
98640 On ch=1 n=g5 v=0
98640 On ch=1 n=d5 v=0
98640 On ch=1 n=c#5 v=59
98640 On ch=1 n=f#5 v=59
98640 On ch=1 n=a#5 v=59
98640 On ch=1 n=c#6 v=59
98880 On ch=1 n=c#6 v=0
98880 On ch=1 n=a#5 v=0
98880 On ch=1 n=f#5 v=0
98880 On ch=1 n=c#5 v=0
98880 On ch=1 n=d5 v=61
98880 On ch=1 n=f#5 v=61
98880 On ch=1 n=b5 v=61
98880 On ch=1 n=d6 v=61
99120 On ch=1 n=d6 v=0
99120 On ch=1 n=b5 v=0
99120 On ch=1 n=f#5 v=0
99120 On ch=1 n=d5 v=0
99120 On ch=1 n=e6 v=62
99120 On ch=1 n=c#6 v=62
99120 On ch=1 n=a5 v=62
99120 On ch=1 n=e5 v=62
99360 On ch=1 n=e5 v=0
99360 On ch=1 n=a5 v=0
99360 On ch=1 n=c#6 v=0
99360 On ch=1 n=e6 v=0
99360 On ch=1 n=f#6 v=63
99360 On ch=1 n=d6 v=63
99360 On ch=1 n=a5 v=63
99360 On ch=1 n=f#5 v=63
99360 Par ch=1 c=64 v=0
99384 Par ch=1 c=64 v=127
99504 On ch=1 n=f#5 v=0
99504 On ch=1 n=a5 v=0
99504 On ch=1 n=d6 v=0
99504 On ch=1 n=f#6 v=0
99600 On ch=1 n=a5 v=64
99600 On ch=1 n=d6 v=64
99600 On ch=1 n=f#6 v=64
99678 On ch=1 n=f#6 v=0
99678 On ch=1 n=d6 v=0
99678 On ch=1 n=a5 v=0
99678 On ch=1 n=f#5 v=65
99758 On ch=1 n=f#5 v=0
99758 On ch=1 n=a5 v=65
99758 On ch=1 n=d6 v=65
99758 On ch=1 n=f#6 v=65
99840 On ch=1 n=f#5 v=66
100056 Par ch=1 c=64 v=0
100080 On ch=1 n=f#5 v=0
100080 On ch=1 n=f#6 v=0
100080 On ch=1 n=d6 v=0
100080 On ch=1 n=a5 v=0
100080 On ch=1 n=g#5 v=67
100080 On ch=1 n=c#6 v=67
100080 On ch=1 n=f6 v=67
100080 On ch=1 n=g#6 v=67
100320 On ch=1 n=g#6 v=0
100320 On ch=1 n=f6 v=0
100320 On ch=1 n=c#6 v=0
100320 On ch=1 n=g#5 v=0
100320 On ch=1 n=a5 v=68
100320 On ch=1 n=c#6 v=68
100320 On ch=1 n=f#6 v=68
100320 On ch=1 n=a6 v=68
100560 On ch=1 n=a6 v=0
100560 On ch=1 n=f#6 v=0
100560 On ch=1 n=c#6 v=0
100560 On ch=1 n=a5 v=0
100560 On ch=1 n=b6 v=69
100560 On ch=1 n=g#6 v=69
100560 On ch=1 n=e6 v=69
100560 On ch=1 n=b5 v=69
100800 On ch=1 n=b5 v=0
100800 On ch=1 n=e6 v=0
100800 On ch=1 n=g#6 v=0
100800 On ch=1 n=b6 v=0
100800 On ch=1 n=c#7 v=71
100800 On ch=1 n=g6 v=71
100800 On ch=1 n=c#6 v=71
100800 Par ch=1 c=64 v=0
100824 Par ch=1 c=64 v=127
100944 On ch=1 n=c#6 v=0
100944 On ch=1 n=g6 v=0
100944 On ch=1 n=c#7 v=0
101040 On ch=1 n=c#7 v=72
101040 On ch=1 n=g6 v=72
101040 On ch=1 n=c#6 v=72
101112 On ch=1 n=c#6 v=0
101112 On ch=1 n=g6 v=0
101112 On ch=1 n=c#7 v=0
101160 On ch=1 n=c#7 v=72
101160 On ch=1 n=g6 v=72
101160 On ch=1 n=c#6 v=72
101232 On ch=1 n=c#6 v=0
101232 On ch=1 n=g6 v=0
101232 On ch=1 n=c#7 v=0
101280 On ch=1 n=c#7 v=73
101280 On ch=1 n=g6 v=73
101280 On ch=1 n=c#6 v=73
101424 On ch=1 n=c#6 v=0
101424 On ch=1 n=g6 v=0
101424 On ch=1 n=c#7 v=0
101520 On ch=1 n=b6 v=74
101520 On ch=1 n=g6 v=74
101520 On ch=1 n=c#6 v=74
101592 On ch=1 n=c#6 v=0
101592 On ch=1 n=g6 v=0
101592 On ch=1 n=b6 v=0
101640 On ch=1 n=a6 v=75
101640 On ch=1 n=g6 v=75
101640 On ch=1 n=c#6 v=75
101712 On ch=1 n=c#6 v=0
101712 On ch=1 n=g6 v=0
101712 On ch=1 n=a6 v=0
101712 Par ch=1 c=64 v=0
101760 On ch=1 n=d6 v=76
101760 On ch=1 n=f#6 v=76
101760 On ch=1 n=d7 v=76
102000 On ch=1 n=d7 v=0
102000 On ch=1 n=f#6 v=0
102000 On ch=1 n=d6 v=0
102000 On ch=1 n=d#7 v=77
102000 On ch=1 n=a6 v=77
102000 On ch=1 n=d#6 v=77
102240 On ch=1 n=d#6 v=0
102240 On ch=1 n=a6 v=0
102240 On ch=1 n=d#7 v=0
102240 On ch=1 n=e7 v=78
102240 On ch=1 n=a6 v=78
102240 On ch=1 n=e6 v=78
102240 Par ch=1 c=64 v=0
102384 On ch=1 n=e6 v=0
102384 On ch=1 n=a6 v=0
102384 On ch=1 n=e7 v=0
102480 On ch=1 n=a7 v=79
102480 On ch=1 n=a6 v=79
102504 Par ch=1 c=64 v=127
102552 On ch=1 n=a6 v=0
102552 On ch=1 n=a7 v=0
102600 On ch=1 n=a7 v=80
102600 On ch=1 n=a6 v=80
102672 On ch=1 n=a6 v=0
102672 On ch=1 n=a7 v=0
102720 On ch=1 n=a7 v=81
102720 On ch=1 n=a6 v=81
102864 On ch=1 n=a6 v=0
102864 On ch=1 n=a7 v=0
102960 On ch=1 n=g#7 v=82
102960 On ch=1 n=g#6 v=82
103032 On ch=1 n=g#6 v=0
103032 On ch=1 n=g#7 v=0
103080 On ch=1 n=a7 v=82
103080 On ch=1 n=a6 v=82
103152 On ch=1 n=a6 v=0
103152 On ch=1 n=a7 v=0
103176 Par ch=1 c=64 v=0
103200 On ch=1 n=a#7 v=83
103200 On ch=1 n=a#6 v=83
103272 On ch=1 n=a#6 v=0
103272 On ch=1 n=a#7 v=0
103320 On ch=1 n=b7 v=84
103320 On ch=1 n=b6 v=84
103392 On ch=1 n=b6 v=0
103392 On ch=1 n=b7 v=0
103440 On ch=1 n=c8 v=84
103440 On ch=1 n=c7 v=84
103512 On ch=1 n=c7 v=0
103512 On ch=1 n=c8 v=0
103560 On ch=1 n=c#7 v=85
103560 On ch=1 n=c#8 v=85
103632 On ch=1 n=c#8 v=0
103632 On ch=1 n=c#7 v=0
103680 On ch=1 n=d7 v=88
103680 On ch=1 n=d8 v=88
103728 Par ch=1 c=64 v=127
104616 Par ch=1 c=64 v=0
104640 On ch=1 n=d8 v=0
104640 On ch=1 n=d7 v=0
104640 On ch=1 n=a7 v=88
104640 On ch=1 n=a6 v=88
105120 On ch=1 n=a6 v=0
105120 On ch=1 n=a7 v=0
105120 On ch=1 n=d6 v=88
105120 On ch=1 n=d7 v=88
105168 Par ch=1 c=64 v=127
105360 On ch=1 n=d7 v=0
105360 On ch=1 n=d6 v=0
105480 On ch=1 n=a5 v=88
105480 On ch=1 n=a6 v=88
105600 On ch=1 n=a6 v=0
105600 On ch=1 n=a5 v=0
105600 On ch=1 n=d7 v=88
105600 On ch=1 n=d6 v=88
106056 Par ch=1 c=64 v=0
106560 On ch=1 n=d6 v=0
106560 On ch=1 n=d7 v=0
106560 On ch=1 n=a6 v=88
106560 On ch=1 n=a7 v=88
106608 Par ch=1 c=64 v=127
107496 Par ch=1 c=64 v=0
107520 On ch=1 n=a7 v=0
107520 On ch=1 n=a6 v=0
107520 On ch=1 n=e7 v=88
107520 On ch=1 n=e6 v=88
108000 On ch=1 n=e6 v=0
108000 On ch=1 n=e7 v=0
108000 Par ch=1 c=64 v=0
108000 On ch=1 n=a5 v=88
108000 On ch=1 n=a6 v=88
108048 Par ch=1 c=64 v=127
108240 On ch=1 n=a6 v=0
108240 On ch=1 n=a5 v=0
108360 On ch=1 n=e5 v=88
108360 On ch=1 n=e6 v=88
108480 On ch=1 n=e6 v=0
108480 On ch=1 n=e5 v=0
108480 On ch=1 n=a6 v=88
108480 On ch=1 n=a5 v=88
108936 Par ch=1 c=64 v=0
109440 On ch=1 n=a5 v=0
109440 On ch=1 n=a6 v=0
109440 On ch=1 n=a6 v=88
109440 On ch=1 n=d#6 v=88
109440 On ch=1 n=a5 v=88
109440 Par ch=1 c=64 v=0
109488 Par ch=1 c=64 v=127
109584 On ch=1 n=a5 v=0
109584 On ch=1 n=d#6 v=0
109584 On ch=1 n=a6 v=0
109680 On ch=1 n=a5 v=88
109680 On ch=1 n=d#6 v=88
109680 On ch=1 n=a6 v=88
109800 On ch=1 n=a6 v=0
109800 On ch=1 n=d#6 v=0
109800 On ch=1 n=a5 v=0
109800 On ch=1 n=a5 v=88
109800 On ch=1 n=d#6 v=88
109800 On ch=1 n=a6 v=88
109920 On ch=1 n=a6 v=0
109920 On ch=1 n=d#6 v=0
109920 On ch=1 n=a5 v=0
109920 On ch=1 n=a5 v=88
109920 On ch=1 n=d#6 v=88
109920 On ch=1 n=a6 v=88
110160 On ch=1 n=a6 v=0
110160 On ch=1 n=d#6 v=0
110160 On ch=1 n=a5 v=0
110160 On ch=1 n=a5 v=88
110160 On ch=1 n=d#6 v=88
110160 On ch=1 n=g6 v=88
110280 On ch=1 n=g6 v=0
110280 On ch=1 n=d#6 v=0
110280 On ch=1 n=a5 v=0
110280 On ch=1 n=a5 v=88
110280 Par ch=1 c=64 v=0
110280 On ch=1 n=d#6 v=88
110280 On ch=1 n=f6 v=88
110280 On ch=1 n=a6 v=88
110400 On ch=1 n=a6 v=0
110400 On ch=1 n=f6 v=0
110400 On ch=1 n=d#6 v=0
110400 On ch=1 n=a5 v=0
110400 On ch=1 n=a#6 v=88
110400 On ch=1 n=a#5 v=88
110400 On ch=1 n=d6 v=88
110400 On ch=1 n=f6 v=88
110448 Par ch=1 c=64 v=127
110640 On ch=1 n=f6 v=0
110640 On ch=1 n=d6 v=0
110640 On ch=1 n=a#5 v=0
110640 On ch=1 n=f6 v=64
110640 On ch=1 n=d6 v=64
110640 On ch=1 n=a#5 v=64
110856 Par ch=1 c=64 v=0
110880 On ch=1 n=a#5 v=0
110880 On ch=1 n=d6 v=0
110880 On ch=1 n=f6 v=0
110880 On ch=1 n=a#6 v=0
110880 Par ch=1 c=64 v=0
110880 On ch=1 n=b5 v=88
110880 On ch=1 n=f6 v=88
110880 On ch=1 n=b6 v=88
110928 Par ch=1 c=64 v=127
111120 On ch=1 n=b6 v=0
111120 On ch=1 n=f6 v=0
111120 On ch=1 n=b5 v=0
111120 On ch=1 n=b5 v=88
111120 On ch=1 n=f6 v=88
111120 On ch=1 n=b6 v=88
111240 On ch=1 n=b6 v=0
111240 On ch=1 n=f6 v=0
111240 On ch=1 n=b5 v=0
111240 On ch=1 n=b5 v=88
111240 On ch=1 n=f6 v=88
111240 On ch=1 n=b6 v=88
111360 On ch=1 n=b6 v=0
111360 On ch=1 n=f6 v=0
111360 On ch=1 n=b5 v=0
111360 On ch=1 n=b5 v=88
111360 On ch=1 n=f6 v=88
111360 On ch=1 n=b6 v=88
111600 On ch=1 n=b6 v=0
111600 On ch=1 n=f6 v=0
111600 On ch=1 n=b5 v=0
111600 On ch=1 n=b5 v=88
111600 On ch=1 n=f6 v=88
111600 On ch=1 n=a6 v=88
111720 On ch=1 n=a6 v=0
111720 On ch=1 n=f6 v=0
111720 On ch=1 n=b5 v=0
111720 On ch=1 n=b5 v=88
111720 Par ch=1 c=64 v=0
111720 On ch=1 n=f6 v=88
111720 On ch=1 n=g6 v=88
111720 On ch=1 n=b6 v=88
111840 On ch=1 n=b6 v=0
111840 On ch=1 n=g6 v=0
111840 On ch=1 n=f6 v=0
111840 On ch=1 n=b5 v=0
111840 On ch=1 n=c7 v=88
111840 On ch=1 n=c6 v=88
111840 On ch=1 n=e6 v=88
111840 On ch=1 n=g6 v=88
111888 Par ch=1 c=64 v=127
112080 On ch=1 n=g6 v=0
112080 On ch=1 n=e6 v=0
112080 On ch=1 n=c6 v=0
112080 On ch=1 n=g6 v=64
112080 On ch=1 n=e6 v=64
112080 On ch=1 n=c6 v=64
112296 Par ch=1 c=64 v=0
112320 On ch=1 n=c6 v=0
112320 On ch=1 n=e6 v=0
112320 On ch=1 n=g6 v=0
112320 On ch=1 n=c7 v=0
112320 Par ch=1 c=64 v=0
112320 On ch=1 n=c#6 v=88
112320 On ch=1 n=g6 v=88
112320 On ch=1 n=c#7 v=88
112368 Par ch=1 c=64 v=127
112560 On ch=1 n=c#7 v=0
112560 On ch=1 n=g6 v=0
112560 On ch=1 n=c#6 v=0
112560 On ch=1 n=c#6 v=88
112560 On ch=1 n=g6 v=88
112560 On ch=1 n=c#7 v=88
112680 On ch=1 n=c#7 v=0
112680 On ch=1 n=g6 v=0
112680 On ch=1 n=c#6 v=0
112680 On ch=1 n=d6 v=88
112680 On ch=1 n=g6 v=88
112680 On ch=1 n=d7 v=88
112800 On ch=1 n=d7 v=0
112800 On ch=1 n=g6 v=0
112800 On ch=1 n=d6 v=0
112800 On ch=1 n=e6 v=88
112800 On ch=1 n=g6 v=88
112800 On ch=1 n=e7 v=88
113040 On ch=1 n=e7 v=0
113040 On ch=1 n=g6 v=0
113040 On ch=1 n=e6 v=0
113040 On ch=1 n=c#6 v=88
113040 On ch=1 n=g6 v=88
113040 On ch=1 n=c#7 v=88
113160 On ch=1 n=c#7 v=0
113160 On ch=1 n=g6 v=0
113160 On ch=1 n=c#6 v=0
113160 On ch=1 n=d6 v=88
113160 On ch=1 n=d7 v=88
113280 On ch=1 n=d7 v=0
113280 On ch=1 n=d6 v=0
113280 On ch=1 n=e6 v=88
113280 On ch=1 n=e7 v=88
113400 On ch=1 n=e7 v=0
113400 On ch=1 n=e6 v=0
113400 On ch=1 n=f#6 v=88
113400 On ch=1 n=f#7 v=88
113520 On ch=1 n=f#7 v=0
113520 On ch=1 n=f#6 v=0
113520 On ch=1 n=g6 v=88
113520 On ch=1 n=g7 v=88
113640 On ch=1 n=g7 v=0
113640 On ch=1 n=g6 v=0
113640 On ch=1 n=g#7 v=88
113640 On ch=1 n=g#6 v=88
113760 On ch=1 n=g#6 v=0
113760 On ch=1 n=g#7 v=0
113760 Par ch=1 c=64 v=0
113760 On ch=1 n=a6 v=88
113760 On ch=1 n=a7 v=88
113880 On ch=1 n=a7 v=0
113880 On ch=1 n=a6 v=0
113880 On ch=1 n=a#6 v=88
113880 On ch=1 n=a#7 v=88
114000 On ch=1 n=a#7 v=0
114000 On ch=1 n=a#6 v=0
114000 On ch=1 n=b6 v=88
114000 On ch=1 n=b7 v=88
114120 On ch=1 n=b7 v=0
114120 On ch=1 n=b6 v=0
114120 On ch=1 n=c#7 v=88
114120 On ch=1 n=c#8 v=88
114240 On ch=1 n=c#8 v=0
114240 On ch=1 n=c#7 v=0
114240 On ch=1 n=e7 v=88
114240 On ch=1 n=a7 v=88
114240 On ch=1 n=e8 v=88
114720 On ch=1 n=e8 v=0
114720 On ch=1 n=a7 v=0
114720 On ch=1 n=e7 v=0
114720 On ch=1 n=d7 v=88
114720 On ch=1 n=d8 v=88
114960 On ch=1 n=d8 v=0
114960 On ch=1 n=d7 v=0
114960 Par ch=1 c=64 v=0
115200 On ch=1 n=c#4 v=88
115200 Par ch=1 c=64 v=0
115248 Par ch=1 c=64 v=127
115260 On ch=1 n=d4 v=48
115272 On ch=1 n=c#4 v=0
115320 On ch=1 n=c#4 v=49
115332 On ch=1 n=d4 v=0
115380 On ch=1 n=d4 v=51
115392 On ch=1 n=c#4 v=0
115440 On ch=1 n=c#4 v=52
115452 On ch=1 n=d4 v=0
115500 On ch=1 n=d4 v=53
115512 On ch=1 n=c#4 v=0
115560 On ch=1 n=c#4 v=55
115572 On ch=1 n=d4 v=0
115620 On ch=1 n=d4 v=56
115632 On ch=1 n=c#4 v=0
115680 On ch=1 n=c#4 v=57
115692 On ch=1 n=d4 v=0
115740 On ch=1 n=d4 v=59
115752 On ch=1 n=c#4 v=0
115800 On ch=1 n=c#4 v=60
115812 On ch=1 n=d4 v=0
115860 On ch=1 n=d4 v=62
115872 On ch=1 n=c#4 v=0
115920 On ch=1 n=c#4 v=63
115932 On ch=1 n=d4 v=0
115980 On ch=1 n=d4 v=64
115992 On ch=1 n=c#4 v=0
116040 On ch=1 n=c#4 v=66
116052 On ch=1 n=d4 v=0
116100 On ch=1 n=d4 v=67
116112 On ch=1 n=c#4 v=0
116160 On ch=1 n=c#4 v=68
116172 On ch=1 n=d4 v=0
116328 Par ch=1 c=64 v=0
116340 On ch=1 n=c#4 v=0
116400 On ch=1 n=c4 v=84
116460 On ch=1 n=c4 v=0
116460 On ch=1 n=c#4 v=76
116520 On ch=1 n=c#4 v=0
116520 On ch=1 n=d4 v=76
116580 On ch=1 n=d4 v=0
116580 On ch=1 n=e4 v=76
116640 On ch=1 n=e4 v=0
116640 Par ch=1 c=64 v=0
116640 On ch=1 n=a#3 v=76
116688 Par ch=1 c=64 v=127
116880 On ch=1 n=a#3 v=0
116880 On ch=1 n=d6 v=76
116880 On ch=1 n=g6 v=76
116880 On ch=1 n=d7 v=76
117000 On ch=1 n=d7 v=0
117000 On ch=1 n=g6 v=0
117000 On ch=1 n=d6 v=0
117000 On ch=1 n=d6 v=76
117000 On ch=1 n=g6 v=76
117000 On ch=1 n=d7 v=76
117120 On ch=1 n=d7 v=0
117120 On ch=1 n=g6 v=0
117120 On ch=1 n=d6 v=0
117120 On ch=1 n=d7 v=76
117120 On ch=1 n=g6 v=76
117120 On ch=1 n=d6 v=76
117264 On ch=1 n=d6 v=0
117264 On ch=1 n=g6 v=0
117264 On ch=1 n=d7 v=0
117360 On ch=1 n=d7 v=76
117360 On ch=1 n=g6 v=76
117360 On ch=1 n=d6 v=76
117504 On ch=1 n=d6 v=0
117504 On ch=1 n=g6 v=0
117504 On ch=1 n=d7 v=0
117600 On ch=1 n=d7 v=76
117600 On ch=1 n=g6 v=76
117600 On ch=1 n=d6 v=76
117744 On ch=1 n=d6 v=0
117744 On ch=1 n=g6 v=0
117744 On ch=1 n=d7 v=0
117840 On ch=1 n=d6 v=76
117840 On ch=1 n=g6 v=76
117840 On ch=1 n=d7 v=76
117984 On ch=1 n=d7 v=0
117984 On ch=1 n=g6 v=0
117984 On ch=1 n=d6 v=0
117984 Par ch=1 c=64 v=0
118080 On ch=1 n=d4 v=88
118080 Par ch=1 c=64 v=0
118128 Par ch=1 c=64 v=127
118140 On ch=1 n=e4 v=48
118152 On ch=1 n=d4 v=0
118200 On ch=1 n=d4 v=49
118212 On ch=1 n=e4 v=0
118260 On ch=1 n=e4 v=51
118272 On ch=1 n=d4 v=0
118320 On ch=1 n=d4 v=52
118332 On ch=1 n=e4 v=0
118380 On ch=1 n=e4 v=54
118392 On ch=1 n=d4 v=0
118440 On ch=1 n=d4 v=55
118452 On ch=1 n=e4 v=0
118500 On ch=1 n=e4 v=56
118512 On ch=1 n=d4 v=0
118560 On ch=1 n=d4 v=58
118572 On ch=1 n=e4 v=0
118620 On ch=1 n=e4 v=59
118632 On ch=1 n=d4 v=0
118680 On ch=1 n=d4 v=60
118692 On ch=1 n=e4 v=0
118740 On ch=1 n=e4 v=62
118752 On ch=1 n=d4 v=0
118800 On ch=1 n=d4 v=63
118812 On ch=1 n=e4 v=0
118860 On ch=1 n=e4 v=64
118872 On ch=1 n=d4 v=0
118920 On ch=1 n=d4 v=66
118932 On ch=1 n=e4 v=0
118980 On ch=1 n=e4 v=67
118992 On ch=1 n=d4 v=0
119040 On ch=1 n=d4 v=68
119052 On ch=1 n=e4 v=0
119208 Par ch=1 c=64 v=0
119220 On ch=1 n=d4 v=0
119280 On ch=1 n=c#4 v=84
119340 On ch=1 n=c#4 v=0
119340 On ch=1 n=d4 v=76
119400 On ch=1 n=d4 v=0
119400 On ch=1 n=e4 v=76
119460 On ch=1 n=e4 v=0
119460 On ch=1 n=f4 v=76
119520 On ch=1 n=f4 v=0
119520 Par ch=1 c=64 v=0
119520 On ch=1 n=b3 v=76
119568 Par ch=1 c=64 v=127
119760 On ch=1 n=b3 v=0
119760 On ch=1 n=d6 v=76
119760 On ch=1 n=g#6 v=76
119760 On ch=1 n=d7 v=76
119880 On ch=1 n=d7 v=0
119880 On ch=1 n=g#6 v=0
119880 On ch=1 n=d6 v=0
119880 On ch=1 n=d6 v=76
119880 On ch=1 n=g#6 v=76
119880 On ch=1 n=d7 v=76
120000 On ch=1 n=d7 v=0
120000 On ch=1 n=g#6 v=0
120000 On ch=1 n=d6 v=0
120000 On ch=1 n=d7 v=76
120000 On ch=1 n=g#6 v=76
120000 On ch=1 n=d6 v=76
120144 On ch=1 n=d6 v=0
120144 On ch=1 n=g#6 v=0
120144 On ch=1 n=d7 v=0
120240 On ch=1 n=d7 v=76
120240 On ch=1 n=g#6 v=76
120240 On ch=1 n=d6 v=76
120384 On ch=1 n=d6 v=0
120384 On ch=1 n=g#6 v=0
120384 On ch=1 n=d7 v=0
120480 On ch=1 n=d7 v=76
120480 On ch=1 n=g#6 v=76
120480 On ch=1 n=d6 v=76
120624 On ch=1 n=d6 v=0
120624 On ch=1 n=g#6 v=0
120624 On ch=1 n=d7 v=0
120720 On ch=1 n=d6 v=76
120720 On ch=1 n=g#6 v=76
120720 On ch=1 n=d7 v=76
120864 On ch=1 n=d7 v=0
120864 On ch=1 n=g#6 v=0
120864 On ch=1 n=d6 v=0
120864 Par ch=1 c=64 v=0
120960 On ch=1 n=d4 v=88
120960 Par ch=1 c=64 v=0
121008 Par ch=1 c=64 v=127
121020 On ch=1 n=e4 v=48
121032 On ch=1 n=d4 v=0
121080 On ch=1 n=d4 v=49
121092 On ch=1 n=e4 v=0
121140 On ch=1 n=e4 v=51
121152 On ch=1 n=d4 v=0
121200 On ch=1 n=d4 v=53
121212 On ch=1 n=e4 v=0
121260 On ch=1 n=e4 v=54
121272 On ch=1 n=d4 v=0
121320 On ch=1 n=d4 v=56
121332 On ch=1 n=e4 v=0
121380 On ch=1 n=e4 v=58
121392 On ch=1 n=d4 v=0
121440 On ch=1 n=d4 v=59
121452 On ch=1 n=e4 v=0
121500 On ch=1 n=e4 v=61
121512 On ch=1 n=d4 v=0
121560 On ch=1 n=d4 v=63
121572 On ch=1 n=e4 v=0
121620 On ch=1 n=e4 v=64
121632 On ch=1 n=d4 v=0
121680 On ch=1 n=d4 v=66
121692 On ch=1 n=e4 v=0
121740 On ch=1 n=e4 v=68
121752 On ch=1 n=d4 v=0
121800 On ch=1 n=d4 v=69
121812 On ch=1 n=e4 v=0
121872 On ch=1 n=d4 v=0
121896 Par ch=1 c=64 v=0
121920 On ch=1 n=c#4 v=76
122040 On ch=1 n=c#4 v=0
122040 On ch=1 n=d4 v=76
122160 On ch=1 n=d4 v=0
122160 On ch=1 n=f4 v=76
122280 On ch=1 n=f4 v=0
122280 On ch=1 n=f#4 v=76
122400 On ch=1 n=f#4 v=0
122400 Par ch=1 c=64 v=0
122400 On ch=1 n=c4 v=76
122448 Par ch=1 c=64 v=127
122640 On ch=1 n=c4 v=0
122640 On ch=1 n=d7 v=76
122640 On ch=1 n=f#6 v=76
122640 On ch=1 n=d6 v=76
122712 On ch=1 n=d6 v=0
122712 On ch=1 n=f#6 v=0
122712 On ch=1 n=d7 v=0
122760 On ch=1 n=d7 v=76
122760 On ch=1 n=f#6 v=76
122760 On ch=1 n=d6 v=76
122832 On ch=1 n=d6 v=0
122832 On ch=1 n=f#6 v=0
122832 On ch=1 n=d7 v=0
122880 On ch=1 n=d7 v=76
122880 On ch=1 n=f#6 v=76
122880 On ch=1 n=d6 v=76
123024 On ch=1 n=d6 v=0
123024 On ch=1 n=f#6 v=0
123024 On ch=1 n=d7 v=0
123120 On ch=1 n=d7 v=76
123120 On ch=1 n=f#6 v=76
123120 On ch=1 n=d6 v=76
123264 On ch=1 n=d6 v=0
123264 On ch=1 n=f#6 v=0
123264 On ch=1 n=d7 v=0
123336 Par ch=1 c=64 v=0
123360 On ch=1 n=c#4 v=76
123480 On ch=1 n=c#4 v=0
123480 On ch=1 n=d4 v=76
123600 On ch=1 n=d4 v=0
123600 On ch=1 n=f#4 v=76
123720 On ch=1 n=f#4 v=0
123720 On ch=1 n=g4 v=76
123840 On ch=1 n=g4 v=0
123840 Par ch=1 c=64 v=0
123840 On ch=1 n=b3 v=64
123888 Par ch=1 c=64 v=127
124080 On ch=1 n=b3 v=0
124080 On ch=1 n=d6 v=66
124080 On ch=1 n=g6 v=66
124080 On ch=1 n=d7 v=66
124200 On ch=1 n=d7 v=0
124200 On ch=1 n=g6 v=0
124200 On ch=1 n=d6 v=0
124200 On ch=1 n=d6 v=68
124200 On ch=1 n=g6 v=68
124200 On ch=1 n=d7 v=68
124320 On ch=1 n=d7 v=0
124320 On ch=1 n=g6 v=0
124320 On ch=1 n=d6 v=0
124320 On ch=1 n=d6 v=69
124320 Par ch=1 c=64 v=0
124320 On ch=1 n=g6 v=69
124320 On ch=1 n=d7 v=69
124560 On ch=1 n=d7 v=0
124560 On ch=1 n=g6 v=0
124560 On ch=1 n=d6 v=0
124560 On ch=1 n=d6 v=72
124560 On ch=1 n=e6 v=72
124560 On ch=1 n=g#6 v=72
124560 On ch=1 n=d7 v=72
124560 On ch=1 n=e7 v=72
124584 Par ch=1 c=64 v=127
124680 On ch=1 n=e7 v=0
124680 On ch=1 n=d7 v=0
124680 On ch=1 n=g#6 v=0
124680 On ch=1 n=e6 v=0
124680 On ch=1 n=d6 v=0
124680 On ch=1 n=d6 v=73
124680 On ch=1 n=e6 v=73
124680 On ch=1 n=g#6 v=73
124680 On ch=1 n=d7 v=73
124680 On ch=1 n=e7 v=73
124800 On ch=1 n=e7 v=0
124800 On ch=1 n=d7 v=0
124800 On ch=1 n=g#6 v=0
124800 On ch=1 n=e6 v=0
124800 On ch=1 n=d6 v=0
124800 On ch=1 n=d6 v=75
124800 On ch=1 n=e6 v=75
124800 On ch=1 n=g#6 v=75
124800 On ch=1 n=d7 v=75
124800 On ch=1 n=e7 v=75
125040 On ch=1 n=e7 v=0
125040 On ch=1 n=d7 v=0
125040 On ch=1 n=g#6 v=0
125040 On ch=1 n=e6 v=0
125040 On ch=1 n=d6 v=0
125040 On ch=1 n=e7 v=78
125040 On ch=1 n=d7 v=78
125040 On ch=1 n=g#6 v=78
125040 On ch=1 n=e6 v=78
125040 On ch=1 n=d6 v=78
125256 Par ch=1 c=64 v=0
125280 On ch=1 n=d6 v=0
125280 On ch=1 n=e6 v=0
125280 On ch=1 n=g#6 v=0
125280 On ch=1 n=d7 v=0
125280 On ch=1 n=e7 v=0
125280 Par ch=1 c=64 v=0
125280 On ch=1 n=a6 v=81
125280 On ch=1 n=c#7 v=81
125280 On ch=1 n=a7 v=81
125520 On ch=1 n=a7 v=0
125520 On ch=1 n=c#7 v=0
125520 On ch=1 n=a6 v=0
125520 On ch=1 n=b4 v=93
125544 Par ch=1 c=64 v=127
125580 On ch=1 n=b4 v=0
125580 On ch=1 n=c#5 v=84
125640 On ch=1 n=c#5 v=0
125640 On ch=1 n=b4 v=85
125700 On ch=1 n=b4 v=0
125700 On ch=1 n=c#5 v=85
125760 On ch=1 n=c#5 v=0
125760 On ch=1 n=a4 v=96
125760 Par ch=1 c=64 v=0
125808 Par ch=1 c=64 v=127
125820 On ch=1 n=a4 v=0
125820 On ch=1 n=b4 v=87
125880 On ch=1 n=b4 v=0
125880 On ch=1 n=a4 v=88
125940 On ch=1 n=a4 v=0
125940 On ch=1 n=b4 v=88
126000 On ch=1 n=b4 v=0
126000 On ch=1 n=g4 v=99
126000 Par ch=1 c=64 v=0
126024 Par ch=1 c=64 v=127
126060 On ch=1 n=g4 v=0
126060 On ch=1 n=a4 v=90
126120 On ch=1 n=a4 v=0
126120 On ch=1 n=g4 v=90
126180 On ch=1 n=g4 v=0
126180 On ch=1 n=a4 v=91
126240 On ch=1 n=a4 v=0
126240 On ch=1 n=f#4 v=102
126240 Par ch=1 c=64 v=0
126288 Par ch=1 c=64 v=127
126300 On ch=1 n=f#4 v=0
126300 On ch=1 n=g4 v=93
126360 On ch=1 n=g4 v=0
126360 On ch=1 n=f#4 v=93
126420 On ch=1 n=f#4 v=0
126420 On ch=1 n=g4 v=94
126480 On ch=1 n=g4 v=0
126480 On ch=1 n=e4 v=105
126480 Par ch=1 c=64 v=0
126504 Par ch=1 c=64 v=127
126540 On ch=1 n=e4 v=0
126540 On ch=1 n=f#4 v=95
126600 On ch=1 n=f#4 v=0
126600 On ch=1 n=e4 v=96
126660 On ch=1 n=e4 v=0
126660 On ch=1 n=f#4 v=97
126696 Par ch=1 c=64 v=0
126720 On ch=1 n=f#4 v=0
126720 On ch=1 n=d5 v=108
126720 Par ch=1 c=64 v=0
126768 Par ch=1 c=64 v=127
126780 On ch=1 n=d6 v=100
126840 On ch=1 n=d5 v=0
127656 Par ch=1 c=64 v=0
127680 On ch=1 n=d6 v=0
127680 On ch=1 n=a5 v=100
128160 On ch=1 n=a5 v=0
128160 Par ch=1 c=64 v=0
128160 On ch=1 n=d5 v=100
128208 Par ch=1 c=64 v=127
128400 On ch=1 n=d5 v=0
128520 On ch=1 n=a4 v=108
128640 On ch=1 n=a4 v=0
128640 On ch=1 n=d5 v=100
129096 Par ch=1 c=64 v=0
129600 On ch=1 n=d5 v=0
129600 Par ch=1 c=64 v=0
129600 On ch=1 n=a5 v=100
129648 Par ch=1 c=64 v=127
130536 Par ch=1 c=64 v=0
130560 On ch=1 n=a5 v=0
130560 On ch=1 n=e5 v=100
131040 On ch=1 n=e5 v=0
131040 Par ch=1 c=64 v=0
131040 On ch=1 n=a4 v=100
131088 Par ch=1 c=64 v=127
131280 On ch=1 n=a4 v=0
131400 On ch=1 n=e4 v=108
131520 On ch=1 n=e4 v=0
131520 On ch=1 n=a4 v=100
131976 Par ch=1 c=64 v=0
132480 On ch=1 n=a4 v=0
132480 Par ch=1 c=64 v=0
132480 On ch=1 n=b4 v=76
132528 Par ch=1 c=64 v=127
132720 On ch=1 n=b4 v=0
132720 On ch=1 n=d5 v=76
132720 On ch=1 n=g5 v=76
132720 On ch=1 n=b5 v=76
132798 On ch=1 n=b5 v=0
132798 On ch=1 n=g5 v=0
132798 On ch=1 n=d5 v=0
132798 On ch=1 n=b4 v=76
132878 On ch=1 n=b4 v=0
132878 On ch=1 n=d5 v=76
132878 On ch=1 n=g5 v=76
132878 On ch=1 n=b5 v=76
132960 On ch=1 n=b4 v=76
132984 Par ch=1 c=64 v=0
133200 On ch=1 n=b4 v=0
133200 On ch=1 n=b5 v=0
133200 On ch=1 n=g5 v=0
133200 On ch=1 n=d5 v=0
133200 On ch=1 n=c#5 v=77
133200 On ch=1 n=f#5 v=77
133200 On ch=1 n=a#5 v=77
133200 On ch=1 n=c#6 v=77
133440 On ch=1 n=c#6 v=0
133440 On ch=1 n=a#5 v=0
133440 On ch=1 n=f#5 v=0
133440 On ch=1 n=c#5 v=0
133440 On ch=1 n=d5 v=77
133440 On ch=1 n=f#5 v=77
133440 On ch=1 n=b5 v=77
133440 On ch=1 n=d6 v=77
133680 On ch=1 n=d6 v=0
133680 On ch=1 n=b5 v=0
133680 On ch=1 n=f#5 v=0
133680 On ch=1 n=d5 v=0
133680 On ch=1 n=e6 v=78
133680 On ch=1 n=c#6 v=78
133680 On ch=1 n=a5 v=78
133680 On ch=1 n=e5 v=78
133920 On ch=1 n=e5 v=0
133920 On ch=1 n=a5 v=0
133920 On ch=1 n=c#6 v=0
133920 On ch=1 n=e6 v=0
133920 On ch=1 n=f#6 v=78
133920 On ch=1 n=d6 v=78
133920 On ch=1 n=a5 v=78
133920 On ch=1 n=f#5 v=78
133920 Par ch=1 c=64 v=0
133944 Par ch=1 c=64 v=127
134064 On ch=1 n=f#5 v=0
134064 On ch=1 n=a5 v=0
134064 On ch=1 n=d6 v=0
134064 On ch=1 n=f#6 v=0
134160 On ch=1 n=a5 v=78
134160 On ch=1 n=d6 v=78
134160 On ch=1 n=f#6 v=78
134238 On ch=1 n=f#6 v=0
134238 On ch=1 n=d6 v=0
134238 On ch=1 n=a5 v=0
134238 On ch=1 n=f#5 v=79
134318 On ch=1 n=f#5 v=0
134318 On ch=1 n=a5 v=79
134318 On ch=1 n=d6 v=79
134318 On ch=1 n=f#6 v=79
134400 On ch=1 n=f#5 v=79
134616 Par ch=1 c=64 v=0
134640 On ch=1 n=f#5 v=0
134640 On ch=1 n=f#6 v=0
134640 On ch=1 n=d6 v=0
134640 On ch=1 n=a5 v=0
134640 On ch=1 n=g#5 v=79
134640 On ch=1 n=c#6 v=79
134640 On ch=1 n=f6 v=79
134640 On ch=1 n=g#6 v=79
134880 On ch=1 n=g#6 v=0
134880 On ch=1 n=f6 v=0
134880 On ch=1 n=c#6 v=0
134880 On ch=1 n=g#5 v=0
134880 On ch=1 n=a5 v=80
134880 On ch=1 n=c#6 v=80
134880 On ch=1 n=f#6 v=80
134880 On ch=1 n=a6 v=80
135120 On ch=1 n=a6 v=0
135120 On ch=1 n=f#6 v=0
135120 On ch=1 n=c#6 v=0
135120 On ch=1 n=a5 v=0
135120 On ch=1 n=b6 v=80
135120 On ch=1 n=g#6 v=80
135120 On ch=1 n=e6 v=80
135120 On ch=1 n=b5 v=80
135360 On ch=1 n=b5 v=0
135360 On ch=1 n=e6 v=0
135360 On ch=1 n=g#6 v=0
135360 On ch=1 n=b6 v=0
135360 On ch=1 n=c#7 v=81
135360 On ch=1 n=g6 v=81
135360 On ch=1 n=c#6 v=81
135360 Par ch=1 c=64 v=0
135384 Par ch=1 c=64 v=127
135504 On ch=1 n=c#6 v=0
135504 On ch=1 n=g6 v=0
135504 On ch=1 n=c#7 v=0
135600 On ch=1 n=c#7 v=81
135600 On ch=1 n=g6 v=81
135600 On ch=1 n=c#6 v=81
135672 On ch=1 n=c#6 v=0
135672 On ch=1 n=g6 v=0
135672 On ch=1 n=c#7 v=0
135720 On ch=1 n=c#7 v=81
135720 On ch=1 n=g6 v=81
135720 On ch=1 n=c#6 v=81
135792 On ch=1 n=c#6 v=0
135792 On ch=1 n=g6 v=0
135792 On ch=1 n=c#7 v=0
135840 On ch=1 n=c#7 v=81
135840 On ch=1 n=g6 v=81
135840 On ch=1 n=c#6 v=81
135984 On ch=1 n=c#6 v=0
135984 On ch=1 n=g6 v=0
135984 On ch=1 n=c#7 v=0
136080 On ch=1 n=b6 v=82
136080 On ch=1 n=g6 v=82
136080 On ch=1 n=c#6 v=82
136152 On ch=1 n=c#6 v=0
136152 On ch=1 n=g6 v=0
136152 On ch=1 n=b6 v=0
136200 On ch=1 n=a6 v=82
136200 On ch=1 n=g6 v=82
136200 On ch=1 n=c#6 v=82
136272 On ch=1 n=c#6 v=0
136272 On ch=1 n=g6 v=0
136272 On ch=1 n=a6 v=0
136272 Par ch=1 c=64 v=0
136320 On ch=1 n=d6 v=82
136320 On ch=1 n=f#6 v=82
136320 On ch=1 n=d7 v=82
136560 On ch=1 n=d7 v=0
136560 On ch=1 n=f#6 v=0
136560 On ch=1 n=d6 v=0
136560 On ch=1 n=d#7 v=83
136560 On ch=1 n=a6 v=83
136560 On ch=1 n=d#6 v=83
136800 On ch=1 n=d#6 v=0
136800 On ch=1 n=a6 v=0
136800 On ch=1 n=d#7 v=0
136800 On ch=1 n=e7 v=83
136800 On ch=1 n=a6 v=83
136800 On ch=1 n=e6 v=83
136800 Par ch=1 c=64 v=0
136944 On ch=1 n=e6 v=0
136944 On ch=1 n=a6 v=0
136944 On ch=1 n=e7 v=0
137040 On ch=1 n=a7 v=83
137040 On ch=1 n=a6 v=83
137064 Par ch=1 c=64 v=127
137112 On ch=1 n=a6 v=0
137112 On ch=1 n=a7 v=0
137160 On ch=1 n=a7 v=84
137160 On ch=1 n=a6 v=84
137232 On ch=1 n=a6 v=0
137232 On ch=1 n=a7 v=0
137280 On ch=1 n=a7 v=84
137280 On ch=1 n=a6 v=84
137424 On ch=1 n=a6 v=0
137424 On ch=1 n=a7 v=0
137520 On ch=1 n=g#7 v=84
137520 On ch=1 n=g#6 v=84
137592 On ch=1 n=g#6 v=0
137592 On ch=1 n=g#7 v=0
137640 On ch=1 n=a7 v=84
137640 On ch=1 n=a6 v=84
137712 On ch=1 n=a6 v=0
137712 On ch=1 n=a7 v=0
137736 Par ch=1 c=64 v=0
137760 On ch=1 n=a#7 v=85
137760 On ch=1 n=a#6 v=85
137832 On ch=1 n=a#6 v=0
137832 On ch=1 n=a#7 v=0
137880 On ch=1 n=b7 v=85
137880 On ch=1 n=b6 v=85
137952 On ch=1 n=b6 v=0
137952 On ch=1 n=b7 v=0
138000 On ch=1 n=c8 v=85
138000 On ch=1 n=c7 v=85
138072 On ch=1 n=c7 v=0
138072 On ch=1 n=c8 v=0
138120 On ch=1 n=c#7 v=85
138120 On ch=1 n=c#8 v=85
138192 On ch=1 n=c#8 v=0
138192 On ch=1 n=c#7 v=0
138240 On ch=1 n=d7 v=88
138240 On ch=1 n=d8 v=88
138288 Par ch=1 c=64 v=127
139176 Par ch=1 c=64 v=0
139200 On ch=1 n=d8 v=0
139200 On ch=1 n=d7 v=0
139200 On ch=1 n=a7 v=88
139200 On ch=1 n=a6 v=88
139680 On ch=1 n=a6 v=0
139680 On ch=1 n=a7 v=0
139680 On ch=1 n=d6 v=88
139680 On ch=1 n=d7 v=88
139728 Par ch=1 c=64 v=127
139920 On ch=1 n=d7 v=0
139920 On ch=1 n=d6 v=0
140040 On ch=1 n=a5 v=88
140040 On ch=1 n=a6 v=88
140160 On ch=1 n=a6 v=0
140160 On ch=1 n=a5 v=0
140160 On ch=1 n=d7 v=88
140160 On ch=1 n=d6 v=88
140616 Par ch=1 c=64 v=0
141120 On ch=1 n=d6 v=0
141120 On ch=1 n=d7 v=0
141120 On ch=1 n=a6 v=88
141120 On ch=1 n=a7 v=88
141168 Par ch=1 c=64 v=127
142056 Par ch=1 c=64 v=0
142080 On ch=1 n=a7 v=0
142080 On ch=1 n=a6 v=0
142080 On ch=1 n=e7 v=88
142080 On ch=1 n=e6 v=88
142560 On ch=1 n=e6 v=0
142560 On ch=1 n=e7 v=0
142560 Par ch=1 c=64 v=0
142560 On ch=1 n=a5 v=88
142560 On ch=1 n=a6 v=88
142608 Par ch=1 c=64 v=127
142800 On ch=1 n=a6 v=0
142800 On ch=1 n=a5 v=0
142920 On ch=1 n=e5 v=88
142920 On ch=1 n=e6 v=88
143040 On ch=1 n=e6 v=0
143040 On ch=1 n=e5 v=0
143040 On ch=1 n=a6 v=88
143040 On ch=1 n=a5 v=88
143496 Par ch=1 c=64 v=0
144000 On ch=1 n=a5 v=0
144000 On ch=1 n=a6 v=0
144000 On ch=1 n=a6 v=88
144000 On ch=1 n=d#6 v=88
144000 On ch=1 n=a5 v=88
144000 Par ch=1 c=64 v=0
144048 Par ch=1 c=64 v=127
144144 On ch=1 n=a5 v=0
144144 On ch=1 n=d#6 v=0
144144 On ch=1 n=a6 v=0
144240 On ch=1 n=a5 v=88
144240 On ch=1 n=d#6 v=88
144240 On ch=1 n=a6 v=88
144360 On ch=1 n=a6 v=0
144360 On ch=1 n=d#6 v=0
144360 On ch=1 n=a5 v=0
144360 On ch=1 n=a5 v=88
144360 On ch=1 n=d#6 v=88
144360 On ch=1 n=a6 v=88
144480 On ch=1 n=a6 v=0
144480 On ch=1 n=d#6 v=0
144480 On ch=1 n=a5 v=0
144480 On ch=1 n=a5 v=88
144480 On ch=1 n=d#6 v=88
144480 On ch=1 n=a6 v=88
144720 On ch=1 n=a6 v=0
144720 On ch=1 n=d#6 v=0
144720 On ch=1 n=a5 v=0
144720 On ch=1 n=a5 v=88
144720 On ch=1 n=d#6 v=88
144720 On ch=1 n=g6 v=88
144840 On ch=1 n=g6 v=0
144840 On ch=1 n=d#6 v=0
144840 On ch=1 n=a5 v=0
144840 On ch=1 n=a5 v=88
144840 Par ch=1 c=64 v=0
144840 On ch=1 n=d#6 v=88
144840 On ch=1 n=f6 v=88
144840 On ch=1 n=a6 v=88
144960 On ch=1 n=a6 v=0
144960 On ch=1 n=f6 v=0
144960 On ch=1 n=d#6 v=0
144960 On ch=1 n=a5 v=0
144960 On ch=1 n=a#6 v=88
144960 On ch=1 n=a#5 v=88
144960 On ch=1 n=d6 v=88
144960 On ch=1 n=f6 v=88
145008 Par ch=1 c=64 v=127
145200 On ch=1 n=f6 v=0
145200 On ch=1 n=d6 v=0
145200 On ch=1 n=a#5 v=0
145200 On ch=1 n=f6 v=88
145200 On ch=1 n=d6 v=88
145200 On ch=1 n=a#5 v=88
145416 Par ch=1 c=64 v=0
145440 On ch=1 n=a#5 v=0
145440 On ch=1 n=d6 v=0
145440 On ch=1 n=f6 v=0
145440 On ch=1 n=a#6 v=0
145440 Par ch=1 c=64 v=0
145440 On ch=1 n=b5 v=88
145440 On ch=1 n=f6 v=88
145440 On ch=1 n=b6 v=88
145488 Par ch=1 c=64 v=127
145680 On ch=1 n=b6 v=0
145680 On ch=1 n=f6 v=0
145680 On ch=1 n=b5 v=0
145680 On ch=1 n=b5 v=88
145680 On ch=1 n=f6 v=88
145680 On ch=1 n=b6 v=88
145800 On ch=1 n=b6 v=0
145800 On ch=1 n=f6 v=0
145800 On ch=1 n=b5 v=0
145800 On ch=1 n=b5 v=88
145800 On ch=1 n=f6 v=88
145800 On ch=1 n=b6 v=88
145920 On ch=1 n=b6 v=0
145920 On ch=1 n=f6 v=0
145920 On ch=1 n=b5 v=0
145920 On ch=1 n=b5 v=88
145920 On ch=1 n=f6 v=88
145920 On ch=1 n=b6 v=88
146160 On ch=1 n=b6 v=0
146160 On ch=1 n=f6 v=0
146160 On ch=1 n=b5 v=0
146160 On ch=1 n=b5 v=88
146160 On ch=1 n=f6 v=88
146160 On ch=1 n=a6 v=88
146280 On ch=1 n=a6 v=0
146280 On ch=1 n=f6 v=0
146280 On ch=1 n=b5 v=0
146280 On ch=1 n=b5 v=88
146280 Par ch=1 c=64 v=0
146280 On ch=1 n=f6 v=88
146280 On ch=1 n=g6 v=88
146280 On ch=1 n=b6 v=88
146400 On ch=1 n=b6 v=0
146400 On ch=1 n=g6 v=0
146400 On ch=1 n=f6 v=0
146400 On ch=1 n=b5 v=0
146400 On ch=1 n=c7 v=88
146400 On ch=1 n=c6 v=88
146400 On ch=1 n=e6 v=88
146400 On ch=1 n=g6 v=88
146448 Par ch=1 c=64 v=127
146640 On ch=1 n=g6 v=0
146640 On ch=1 n=e6 v=0
146640 On ch=1 n=c6 v=0
146640 On ch=1 n=g6 v=88
146640 On ch=1 n=e6 v=88
146640 On ch=1 n=c6 v=88
146856 Par ch=1 c=64 v=0
146880 On ch=1 n=c6 v=0
146880 On ch=1 n=e6 v=0
146880 On ch=1 n=g6 v=0
146880 On ch=1 n=c7 v=0
146880 Par ch=1 c=64 v=0
146880 On ch=1 n=c#6 v=88
146880 On ch=1 n=g6 v=88
146880 On ch=1 n=c#7 v=88
146928 Par ch=1 c=64 v=127
147120 On ch=1 n=c#7 v=0
147120 On ch=1 n=g6 v=0
147120 On ch=1 n=c#6 v=0
147120 On ch=1 n=c#6 v=88
147120 On ch=1 n=g6 v=88
147120 On ch=1 n=c#7 v=88
147240 On ch=1 n=c#7 v=0
147240 On ch=1 n=g6 v=0
147240 On ch=1 n=c#6 v=0
147240 On ch=1 n=d6 v=88
147240 On ch=1 n=g6 v=88
147240 On ch=1 n=d7 v=88
147360 On ch=1 n=d7 v=0
147360 On ch=1 n=g6 v=0
147360 On ch=1 n=d6 v=0
147360 On ch=1 n=e6 v=88
147360 On ch=1 n=g6 v=88
147360 On ch=1 n=e7 v=88
147600 On ch=1 n=e7 v=0
147600 On ch=1 n=g6 v=0
147600 On ch=1 n=e6 v=0
147600 On ch=1 n=c#6 v=88
147600 On ch=1 n=g6 v=88
147600 On ch=1 n=c#7 v=88
147720 On ch=1 n=c#7 v=0
147720 On ch=1 n=g6 v=0
147720 On ch=1 n=c#6 v=0
147720 On ch=1 n=d6 v=88
147720 On ch=1 n=d7 v=88
147840 On ch=1 n=d7 v=0
147840 On ch=1 n=d6 v=0
147840 On ch=1 n=e6 v=88
147840 On ch=1 n=e7 v=88
147960 On ch=1 n=e7 v=0
147960 On ch=1 n=e6 v=0
147960 On ch=1 n=f#6 v=88
147960 On ch=1 n=f#7 v=88
148080 On ch=1 n=f#7 v=0
148080 On ch=1 n=f#6 v=0
148080 On ch=1 n=g6 v=88
148080 On ch=1 n=g7 v=88
148200 On ch=1 n=g7 v=0
148200 On ch=1 n=g6 v=0
148200 On ch=1 n=g#7 v=88
148200 On ch=1 n=g#6 v=88
148320 On ch=1 n=g#6 v=0
148320 On ch=1 n=g#7 v=0
148320 Par ch=1 c=64 v=0
148320 On ch=1 n=a6 v=88
148320 On ch=1 n=a7 v=88
148440 On ch=1 n=a7 v=0
148440 On ch=1 n=a6 v=0
148440 On ch=1 n=a#6 v=88
148440 On ch=1 n=a#7 v=88
148560 On ch=1 n=a#7 v=0
148560 On ch=1 n=a#6 v=0
148560 On ch=1 n=b6 v=88
148560 On ch=1 n=b7 v=88
148680 On ch=1 n=b7 v=0
148680 On ch=1 n=b6 v=0
148680 On ch=1 n=c#7 v=88
148680 On ch=1 n=c#8 v=88
148800 On ch=1 n=c#8 v=0
148800 On ch=1 n=c#7 v=0
148800 On ch=1 n=e7 v=88
148800 On ch=1 n=a7 v=88
148800 On ch=1 n=e8 v=88
149280 On ch=1 n=e8 v=0
149280 On ch=1 n=a7 v=0
149280 On ch=1 n=e7 v=0
149280 On ch=1 n=d7 v=88
149280 On ch=1 n=d8 v=88
149520 On ch=1 n=d8 v=0
149520 On ch=1 n=d7 v=0
149520 Par ch=1 c=64 v=0
149760 On ch=1 n=c#4 v=88
149760 Par ch=1 c=64 v=0
149808 Par ch=1 c=64 v=127
149820 On ch=1 n=d4 v=48
149832 On ch=1 n=c#4 v=0
149880 On ch=1 n=c#4 v=49
149892 On ch=1 n=d4 v=0
149940 On ch=1 n=d4 v=51
149952 On ch=1 n=c#4 v=0
150000 On ch=1 n=c#4 v=52
150012 On ch=1 n=d4 v=0
150060 On ch=1 n=d4 v=53
150072 On ch=1 n=c#4 v=0
150120 On ch=1 n=c#4 v=55
150132 On ch=1 n=d4 v=0
150180 On ch=1 n=d4 v=56
150192 On ch=1 n=c#4 v=0
150240 On ch=1 n=c#4 v=57
150252 On ch=1 n=d4 v=0
150300 On ch=1 n=d4 v=59
150312 On ch=1 n=c#4 v=0
150360 On ch=1 n=c#4 v=60
150372 On ch=1 n=d4 v=0
150420 On ch=1 n=d4 v=62
150432 On ch=1 n=c#4 v=0
150480 On ch=1 n=c#4 v=63
150492 On ch=1 n=d4 v=0
150540 On ch=1 n=d4 v=64
150552 On ch=1 n=c#4 v=0
150600 On ch=1 n=c#4 v=66
150612 On ch=1 n=d4 v=0
150660 On ch=1 n=d4 v=67
150672 On ch=1 n=c#4 v=0
150720 On ch=1 n=c#4 v=68
150732 On ch=1 n=d4 v=0
150888 Par ch=1 c=64 v=0
150900 On ch=1 n=c#4 v=0
150960 On ch=1 n=c4 v=84
151020 On ch=1 n=c4 v=0
151020 On ch=1 n=c#4 v=76
151080 On ch=1 n=c#4 v=0
151080 On ch=1 n=d4 v=76
151140 On ch=1 n=d4 v=0
151140 On ch=1 n=e4 v=76
151200 On ch=1 n=e4 v=0
151200 Par ch=1 c=64 v=0
151200 On ch=1 n=a#3 v=76
151248 Par ch=1 c=64 v=127
151440 On ch=1 n=a#3 v=0
151440 On ch=1 n=d6 v=76
151440 On ch=1 n=g6 v=76
151440 On ch=1 n=d7 v=76
151560 On ch=1 n=d7 v=0
151560 On ch=1 n=g6 v=0
151560 On ch=1 n=d6 v=0
151560 On ch=1 n=d6 v=76
151560 On ch=1 n=g6 v=76
151560 On ch=1 n=d7 v=76
151680 On ch=1 n=d7 v=0
151680 On ch=1 n=g6 v=0
151680 On ch=1 n=d6 v=0
151680 On ch=1 n=d7 v=76
151680 On ch=1 n=g6 v=76
151680 On ch=1 n=d6 v=76
151824 On ch=1 n=d6 v=0
151824 On ch=1 n=g6 v=0
151824 On ch=1 n=d7 v=0
151920 On ch=1 n=d7 v=76
151920 On ch=1 n=g6 v=76
151920 On ch=1 n=d6 v=76
152064 On ch=1 n=d6 v=0
152064 On ch=1 n=g6 v=0
152064 On ch=1 n=d7 v=0
152160 On ch=1 n=d7 v=76
152160 On ch=1 n=g6 v=76
152160 On ch=1 n=d6 v=76
152304 On ch=1 n=d6 v=0
152304 On ch=1 n=g6 v=0
152304 On ch=1 n=d7 v=0
152400 On ch=1 n=d6 v=76
152400 On ch=1 n=g6 v=76
152400 On ch=1 n=d7 v=76
152544 On ch=1 n=d7 v=0
152544 On ch=1 n=g6 v=0
152544 On ch=1 n=d6 v=0
152544 Par ch=1 c=64 v=0
152640 On ch=1 n=d4 v=88
152640 Par ch=1 c=64 v=0
152688 Par ch=1 c=64 v=127
152700 On ch=1 n=e4 v=48
152712 On ch=1 n=d4 v=0
152760 On ch=1 n=d4 v=49
152772 On ch=1 n=e4 v=0
152820 On ch=1 n=e4 v=51
152832 On ch=1 n=d4 v=0
152880 On ch=1 n=d4 v=52
152892 On ch=1 n=e4 v=0
152940 On ch=1 n=e4 v=54
152952 On ch=1 n=d4 v=0
153000 On ch=1 n=d4 v=55
153012 On ch=1 n=e4 v=0
153060 On ch=1 n=e4 v=56
153072 On ch=1 n=d4 v=0
153120 On ch=1 n=d4 v=58
153132 On ch=1 n=e4 v=0
153180 On ch=1 n=e4 v=59
153192 On ch=1 n=d4 v=0
153240 On ch=1 n=d4 v=60
153252 On ch=1 n=e4 v=0
153300 On ch=1 n=e4 v=62
153312 On ch=1 n=d4 v=0
153360 On ch=1 n=d4 v=63
153372 On ch=1 n=e4 v=0
153420 On ch=1 n=e4 v=64
153432 On ch=1 n=d4 v=0
153480 On ch=1 n=d4 v=66
153492 On ch=1 n=e4 v=0
153540 On ch=1 n=e4 v=67
153552 On ch=1 n=d4 v=0
153600 On ch=1 n=d4 v=68
153612 On ch=1 n=e4 v=0
153768 Par ch=1 c=64 v=0
153780 On ch=1 n=d4 v=0
153840 On ch=1 n=c#4 v=84
153900 On ch=1 n=c#4 v=0
153900 On ch=1 n=d4 v=76
153960 On ch=1 n=d4 v=0
153960 On ch=1 n=e4 v=76
154020 On ch=1 n=e4 v=0
154020 On ch=1 n=f4 v=76
154080 On ch=1 n=f4 v=0
154080 Par ch=1 c=64 v=0
154080 On ch=1 n=b3 v=76
154128 Par ch=1 c=64 v=127
154320 On ch=1 n=b3 v=0
154320 On ch=1 n=d6 v=76
154320 On ch=1 n=g#6 v=76
154320 On ch=1 n=d7 v=76
154440 On ch=1 n=d7 v=0
154440 On ch=1 n=g#6 v=0
154440 On ch=1 n=d6 v=0
154440 On ch=1 n=d6 v=76
154440 On ch=1 n=g#6 v=76
154440 On ch=1 n=d7 v=76
154560 On ch=1 n=d7 v=0
154560 On ch=1 n=g#6 v=0
154560 On ch=1 n=d6 v=0
154560 On ch=1 n=d7 v=76
154560 On ch=1 n=g#6 v=76
154560 On ch=1 n=d6 v=76
154704 On ch=1 n=d6 v=0
154704 On ch=1 n=g#6 v=0
154704 On ch=1 n=d7 v=0
154800 On ch=1 n=d7 v=76
154800 On ch=1 n=g#6 v=76
154800 On ch=1 n=d6 v=76
154944 On ch=1 n=d6 v=0
154944 On ch=1 n=g#6 v=0
154944 On ch=1 n=d7 v=0
155040 On ch=1 n=d7 v=76
155040 On ch=1 n=g#6 v=76
155040 On ch=1 n=d6 v=76
155184 On ch=1 n=d6 v=0
155184 On ch=1 n=g#6 v=0
155184 On ch=1 n=d7 v=0
155280 On ch=1 n=d6 v=76
155280 On ch=1 n=g#6 v=76
155280 On ch=1 n=d7 v=76
155424 On ch=1 n=d7 v=0
155424 On ch=1 n=g#6 v=0
155424 On ch=1 n=d6 v=0
155424 Par ch=1 c=64 v=0
155520 On ch=1 n=d4 v=88
155520 Par ch=1 c=64 v=0
155568 Par ch=1 c=64 v=127
155580 On ch=1 n=e4 v=48
155592 On ch=1 n=d4 v=0
155640 On ch=1 n=d4 v=49
155652 On ch=1 n=e4 v=0
155700 On ch=1 n=e4 v=51
155712 On ch=1 n=d4 v=0
155760 On ch=1 n=d4 v=53
155772 On ch=1 n=e4 v=0
155820 On ch=1 n=e4 v=54
155832 On ch=1 n=d4 v=0
155880 On ch=1 n=d4 v=56
155892 On ch=1 n=e4 v=0
155940 On ch=1 n=e4 v=58
155952 On ch=1 n=d4 v=0
156000 On ch=1 n=d4 v=59
156012 On ch=1 n=e4 v=0
156060 On ch=1 n=e4 v=61
156072 On ch=1 n=d4 v=0
156120 On ch=1 n=d4 v=63
156132 On ch=1 n=e4 v=0
156180 On ch=1 n=e4 v=64
156192 On ch=1 n=d4 v=0
156240 On ch=1 n=d4 v=66
156252 On ch=1 n=e4 v=0
156300 On ch=1 n=e4 v=68
156312 On ch=1 n=d4 v=0
156360 On ch=1 n=d4 v=69
156372 On ch=1 n=e4 v=0
156432 On ch=1 n=d4 v=0
156456 Par ch=1 c=64 v=0
156480 On ch=1 n=c#4 v=76
156600 On ch=1 n=c#4 v=0
156600 On ch=1 n=d4 v=76
156720 On ch=1 n=d4 v=0
156720 On ch=1 n=f4 v=76
156840 On ch=1 n=f4 v=0
156840 On ch=1 n=f#4 v=76
156960 On ch=1 n=f#4 v=0
156960 Par ch=1 c=64 v=0
156960 On ch=1 n=c4 v=76
157008 Par ch=1 c=64 v=127
157200 On ch=1 n=c4 v=0
157200 On ch=1 n=d7 v=76
157200 On ch=1 n=f#6 v=76
157200 On ch=1 n=d6 v=76
157272 On ch=1 n=d6 v=0
157272 On ch=1 n=f#6 v=0
157272 On ch=1 n=d7 v=0
157320 On ch=1 n=d7 v=76
157320 On ch=1 n=f#6 v=76
157320 On ch=1 n=d6 v=76
157392 On ch=1 n=d6 v=0
157392 On ch=1 n=f#6 v=0
157392 On ch=1 n=d7 v=0
157440 On ch=1 n=d7 v=76
157440 On ch=1 n=f#6 v=76
157440 On ch=1 n=d6 v=76
157584 On ch=1 n=d6 v=0
157584 On ch=1 n=f#6 v=0
157584 On ch=1 n=d7 v=0
157680 On ch=1 n=d7 v=76
157680 On ch=1 n=f#6 v=76
157680 On ch=1 n=d6 v=76
157824 On ch=1 n=d6 v=0
157824 On ch=1 n=f#6 v=0
157824 On ch=1 n=d7 v=0
157896 Par ch=1 c=64 v=0
157920 On ch=1 n=c#4 v=76
158040 On ch=1 n=c#4 v=0
158040 On ch=1 n=d4 v=76
158160 On ch=1 n=d4 v=0
158160 On ch=1 n=f#4 v=76
158280 On ch=1 n=f#4 v=0
158280 On ch=1 n=g4 v=76
158400 On ch=1 n=g4 v=0
158400 Par ch=1 c=64 v=0
158400 On ch=1 n=b3 v=64
158448 Par ch=1 c=64 v=127
158640 On ch=1 n=b3 v=0
158640 On ch=1 n=d6 v=66
158640 On ch=1 n=g6 v=66
158640 On ch=1 n=d7 v=66
158760 On ch=1 n=d7 v=0
158760 On ch=1 n=g6 v=0
158760 On ch=1 n=d6 v=0
158760 On ch=1 n=d6 v=68
158760 On ch=1 n=g6 v=68
158760 On ch=1 n=d7 v=68
158880 On ch=1 n=d7 v=0
158880 On ch=1 n=g6 v=0
158880 On ch=1 n=d6 v=0
158880 On ch=1 n=d6 v=69
158880 Par ch=1 c=64 v=0
158880 On ch=1 n=g6 v=69
158880 On ch=1 n=d7 v=69
159120 On ch=1 n=d7 v=0
159120 On ch=1 n=g6 v=0
159120 On ch=1 n=d6 v=0
159120 On ch=1 n=d6 v=72
159120 On ch=1 n=e6 v=72
159120 On ch=1 n=g#6 v=72
159120 On ch=1 n=d7 v=72
159120 On ch=1 n=e7 v=72
159144 Par ch=1 c=64 v=127
159240 On ch=1 n=e7 v=0
159240 On ch=1 n=d7 v=0
159240 On ch=1 n=g#6 v=0
159240 On ch=1 n=e6 v=0
159240 On ch=1 n=d6 v=0
159240 On ch=1 n=d6 v=73
159240 On ch=1 n=e6 v=73
159240 On ch=1 n=g#6 v=73
159240 On ch=1 n=d7 v=73
159240 On ch=1 n=e7 v=73
159360 On ch=1 n=e7 v=0
159360 On ch=1 n=d7 v=0
159360 On ch=1 n=g#6 v=0
159360 On ch=1 n=e6 v=0
159360 On ch=1 n=d6 v=0
159360 On ch=1 n=d6 v=75
159360 On ch=1 n=e6 v=75
159360 On ch=1 n=g#6 v=75
159360 On ch=1 n=d7 v=75
159360 On ch=1 n=e7 v=75
159600 On ch=1 n=e7 v=0
159600 On ch=1 n=d7 v=0
159600 On ch=1 n=g#6 v=0
159600 On ch=1 n=e6 v=0
159600 On ch=1 n=d6 v=0
159600 On ch=1 n=e7 v=78
159600 On ch=1 n=d7 v=78
159600 On ch=1 n=g#6 v=78
159600 On ch=1 n=e6 v=78
159600 On ch=1 n=d6 v=78
159816 Par ch=1 c=64 v=0
159840 On ch=1 n=d6 v=0
159840 On ch=1 n=e6 v=0
159840 On ch=1 n=g#6 v=0
159840 On ch=1 n=d7 v=0
159840 On ch=1 n=e7 v=0
159840 Par ch=1 c=64 v=0
159840 On ch=1 n=a6 v=81
159840 On ch=1 n=c#7 v=81
159840 On ch=1 n=a7 v=81
160080 On ch=1 n=a7 v=0
160080 On ch=1 n=c#7 v=0
160080 On ch=1 n=a6 v=0
160080 On ch=1 n=b4 v=93
160104 Par ch=1 c=64 v=127
160140 On ch=1 n=b4 v=0
160140 On ch=1 n=c#5 v=84
160200 On ch=1 n=c#5 v=0
160200 On ch=1 n=b4 v=85
160260 On ch=1 n=b4 v=0
160260 On ch=1 n=c#5 v=85
160320 On ch=1 n=c#5 v=0
160320 On ch=1 n=a4 v=96
160320 Par ch=1 c=64 v=0
160368 Par ch=1 c=64 v=127
160380 On ch=1 n=a4 v=0
160380 On ch=1 n=b4 v=87
160440 On ch=1 n=b4 v=0
160440 On ch=1 n=a4 v=88
160500 On ch=1 n=a4 v=0
160500 On ch=1 n=b4 v=88
160560 On ch=1 n=b4 v=0
160560 On ch=1 n=g4 v=99
160560 Par ch=1 c=64 v=0
160584 Par ch=1 c=64 v=127
160620 On ch=1 n=g4 v=0
160620 On ch=1 n=a4 v=90
160680 On ch=1 n=a4 v=0
160680 On ch=1 n=g4 v=90
160740 On ch=1 n=g4 v=0
160740 On ch=1 n=a4 v=91
160800 On ch=1 n=a4 v=0
160800 On ch=1 n=f#4 v=102
160800 Par ch=1 c=64 v=0
160848 Par ch=1 c=64 v=127
160860 On ch=1 n=f#4 v=0
160860 On ch=1 n=g4 v=93
160920 On ch=1 n=g4 v=0
160920 On ch=1 n=f#4 v=93
160980 On ch=1 n=f#4 v=0
160980 On ch=1 n=g4 v=94
161040 On ch=1 n=g4 v=0
161040 On ch=1 n=e4 v=105
161040 Par ch=1 c=64 v=0
161064 Par ch=1 c=64 v=127
161100 On ch=1 n=e4 v=0
161100 On ch=1 n=f#4 v=95
161160 On ch=1 n=f#4 v=0
161160 On ch=1 n=e4 v=96
161220 On ch=1 n=e4 v=0
161220 On ch=1 n=f#4 v=97
161256 Par ch=1 c=64 v=0
161280 On ch=1 n=f#4 v=0
161280 On ch=1 n=d5 v=108
161280 Par ch=1 c=64 v=0
161328 Par ch=1 c=64 v=127
161340 On ch=1 n=d6 v=100
161400 On ch=1 n=d5 v=0
162216 Par ch=1 c=64 v=0
162240 On ch=1 n=d6 v=0
162240 On ch=1 n=a5 v=100
162720 On ch=1 n=a5 v=0
162720 Par ch=1 c=64 v=0
162720 On ch=1 n=d5 v=100
162768 Par ch=1 c=64 v=127
162960 On ch=1 n=d5 v=0
163080 On ch=1 n=a4 v=108
163200 On ch=1 n=a4 v=0
163200 On ch=1 n=d5 v=100
163656 Par ch=1 c=64 v=0
164160 On ch=1 n=d5 v=0
164160 Par ch=1 c=64 v=0
164160 On ch=1 n=a5 v=100
164208 Par ch=1 c=64 v=127
165096 Par ch=1 c=64 v=0
165120 On ch=1 n=a5 v=0
165120 On ch=1 n=e5 v=100
165600 On ch=1 n=e5 v=0
165600 Par ch=1 c=64 v=0
165600 On ch=1 n=a4 v=100
165648 Par ch=1 c=64 v=127
165840 On ch=1 n=a4 v=0
165960 On ch=1 n=e4 v=108
166080 On ch=1 n=e4 v=0
166080 On ch=1 n=a4 v=100
166536 Par ch=1 c=64 v=0
167040 On ch=1 n=a4 v=0
167040 Par ch=1 c=64 v=0
167040 On ch=1 n=b4 v=76
167088 Par ch=1 c=64 v=127
167280 On ch=1 n=b4 v=0
167280 On ch=1 n=d5 v=76
167280 On ch=1 n=g5 v=76
167280 On ch=1 n=b5 v=76
167358 On ch=1 n=b5 v=0
167358 On ch=1 n=g5 v=0
167358 On ch=1 n=d5 v=0
167358 On ch=1 n=b4 v=76
167438 On ch=1 n=b4 v=0
167438 On ch=1 n=d5 v=76
167438 On ch=1 n=g5 v=76
167438 On ch=1 n=b5 v=76
167520 On ch=1 n=b4 v=76
167544 Par ch=1 c=64 v=0
167760 On ch=1 n=b4 v=0
167760 On ch=1 n=b5 v=0
167760 On ch=1 n=g5 v=0
167760 On ch=1 n=d5 v=0
167760 On ch=1 n=c#5 v=77
167760 On ch=1 n=f#5 v=77
167760 On ch=1 n=a#5 v=77
167760 On ch=1 n=c#6 v=77
168000 On ch=1 n=c#6 v=0
168000 On ch=1 n=a#5 v=0
168000 On ch=1 n=f#5 v=0
168000 On ch=1 n=c#5 v=0
168000 On ch=1 n=d5 v=77
168000 On ch=1 n=f#5 v=77
168000 On ch=1 n=b5 v=77
168000 On ch=1 n=d6 v=77
168240 On ch=1 n=d6 v=0
168240 On ch=1 n=b5 v=0
168240 On ch=1 n=f#5 v=0
168240 On ch=1 n=d5 v=0
168240 On ch=1 n=e6 v=78
168240 On ch=1 n=c#6 v=78
168240 On ch=1 n=a5 v=78
168240 On ch=1 n=e5 v=78
168480 On ch=1 n=e5 v=0
168480 On ch=1 n=a5 v=0
168480 On ch=1 n=c#6 v=0
168480 On ch=1 n=e6 v=0
168480 On ch=1 n=f#6 v=78
168480 On ch=1 n=d6 v=78
168480 On ch=1 n=a5 v=78
168480 On ch=1 n=f#5 v=78
168480 Par ch=1 c=64 v=0
168504 Par ch=1 c=64 v=127
168624 On ch=1 n=f#5 v=0
168624 On ch=1 n=a5 v=0
168624 On ch=1 n=d6 v=0
168624 On ch=1 n=f#6 v=0
168720 On ch=1 n=a5 v=78
168720 On ch=1 n=d6 v=78
168720 On ch=1 n=f#6 v=78
168798 On ch=1 n=f#6 v=0
168798 On ch=1 n=d6 v=0
168798 On ch=1 n=a5 v=0
168798 On ch=1 n=f#5 v=79
168878 On ch=1 n=f#5 v=0
168878 On ch=1 n=a5 v=79
168878 On ch=1 n=d6 v=79
168878 On ch=1 n=f#6 v=79
168960 On ch=1 n=f#5 v=79
169176 Par ch=1 c=64 v=0
169200 On ch=1 n=f#5 v=0
169200 On ch=1 n=f#6 v=0
169200 On ch=1 n=d6 v=0
169200 On ch=1 n=a5 v=0
169200 On ch=1 n=g#5 v=79
169200 On ch=1 n=c#6 v=79
169200 On ch=1 n=f6 v=79
169200 On ch=1 n=g#6 v=79
169440 On ch=1 n=g#6 v=0
169440 On ch=1 n=f6 v=0
169440 On ch=1 n=c#6 v=0
169440 On ch=1 n=g#5 v=0
169440 On ch=1 n=a5 v=80
169440 On ch=1 n=c#6 v=80
169440 On ch=1 n=f#6 v=80
169440 On ch=1 n=a6 v=80
169680 On ch=1 n=a6 v=0
169680 On ch=1 n=f#6 v=0
169680 On ch=1 n=c#6 v=0
169680 On ch=1 n=a5 v=0
169680 On ch=1 n=b6 v=80
169680 On ch=1 n=g#6 v=80
169680 On ch=1 n=e6 v=80
169680 On ch=1 n=b5 v=80
169920 On ch=1 n=b5 v=0
169920 On ch=1 n=e6 v=0
169920 On ch=1 n=g#6 v=0
169920 On ch=1 n=b6 v=0
169920 On ch=1 n=c#7 v=81
169920 On ch=1 n=g6 v=81
169920 On ch=1 n=c#6 v=81
169920 Par ch=1 c=64 v=0
169944 Par ch=1 c=64 v=127
170064 On ch=1 n=c#6 v=0
170064 On ch=1 n=g6 v=0
170064 On ch=1 n=c#7 v=0
170160 On ch=1 n=c#7 v=81
170160 On ch=1 n=g6 v=81
170160 On ch=1 n=c#6 v=81
170232 On ch=1 n=c#6 v=0
170232 On ch=1 n=g6 v=0
170232 On ch=1 n=c#7 v=0
170280 On ch=1 n=c#7 v=81
170280 On ch=1 n=g6 v=81
170280 On ch=1 n=c#6 v=81
170352 On ch=1 n=c#6 v=0
170352 On ch=1 n=g6 v=0
170352 On ch=1 n=c#7 v=0
170400 On ch=1 n=c#7 v=81
170400 On ch=1 n=g6 v=81
170400 On ch=1 n=c#6 v=81
170544 On ch=1 n=c#6 v=0
170544 On ch=1 n=g6 v=0
170544 On ch=1 n=c#7 v=0
170640 On ch=1 n=b6 v=82
170640 On ch=1 n=g6 v=82
170640 On ch=1 n=c#6 v=82
170712 On ch=1 n=c#6 v=0
170712 On ch=1 n=g6 v=0
170712 On ch=1 n=b6 v=0
170760 On ch=1 n=a6 v=82
170760 On ch=1 n=g6 v=82
170760 On ch=1 n=c#6 v=82
170832 On ch=1 n=c#6 v=0
170832 On ch=1 n=g6 v=0
170832 On ch=1 n=a6 v=0
170832 Par ch=1 c=64 v=0
170880 On ch=1 n=d6 v=82
170880 On ch=1 n=f#6 v=82
170880 On ch=1 n=d7 v=82
171120 On ch=1 n=d7 v=0
171120 On ch=1 n=f#6 v=0
171120 On ch=1 n=d6 v=0
171120 On ch=1 n=d#7 v=83
171120 On ch=1 n=a6 v=83
171120 On ch=1 n=d#6 v=83
171360 On ch=1 n=d#6 v=0
171360 On ch=1 n=a6 v=0
171360 On ch=1 n=d#7 v=0
171360 On ch=1 n=e7 v=83
171360 On ch=1 n=a6 v=83
171360 On ch=1 n=e6 v=83
171360 Par ch=1 c=64 v=0
171504 On ch=1 n=e6 v=0
171504 On ch=1 n=a6 v=0
171504 On ch=1 n=e7 v=0
171600 On ch=1 n=a7 v=83
171600 On ch=1 n=a6 v=83
171624 Par ch=1 c=64 v=127
171672 On ch=1 n=a6 v=0
171672 On ch=1 n=a7 v=0
171720 On ch=1 n=a7 v=84
171720 On ch=1 n=a6 v=84
171792 On ch=1 n=a6 v=0
171792 On ch=1 n=a7 v=0
171840 On ch=1 n=a7 v=84
171840 On ch=1 n=a6 v=84
171984 On ch=1 n=a6 v=0
171984 On ch=1 n=a7 v=0
172080 On ch=1 n=g#7 v=84
172080 On ch=1 n=g#6 v=84
172152 On ch=1 n=g#6 v=0
172152 On ch=1 n=g#7 v=0
172200 On ch=1 n=a7 v=84
172200 On ch=1 n=a6 v=84
172272 On ch=1 n=a6 v=0
172272 On ch=1 n=a7 v=0
172296 Par ch=1 c=64 v=0
172320 On ch=1 n=a#7 v=85
172320 On ch=1 n=a#6 v=85
172392 On ch=1 n=a#6 v=0
172392 On ch=1 n=a#7 v=0
172440 On ch=1 n=b7 v=85
172440 On ch=1 n=b6 v=85
172512 On ch=1 n=b6 v=0
172512 On ch=1 n=b7 v=0
172560 On ch=1 n=c8 v=85
172560 On ch=1 n=c7 v=85
172632 On ch=1 n=c7 v=0
172632 On ch=1 n=c8 v=0
172680 On ch=1 n=c#7 v=85
172680 On ch=1 n=c#8 v=85
172752 On ch=1 n=c#8 v=0
172752 On ch=1 n=c#7 v=0
172800 On ch=1 n=d7 v=88
172800 On ch=1 n=d8 v=88
172848 Par ch=1 c=64 v=127
173736 Par ch=1 c=64 v=0
173760 On ch=1 n=d8 v=0
173760 On ch=1 n=d7 v=0
173760 On ch=1 n=a7 v=88
173760 On ch=1 n=a6 v=88
174240 On ch=1 n=a6 v=0
174240 On ch=1 n=a7 v=0
174240 On ch=1 n=d6 v=88
174240 On ch=1 n=d7 v=88
174288 Par ch=1 c=64 v=127
174480 On ch=1 n=d7 v=0
174480 On ch=1 n=d6 v=0
174600 On ch=1 n=a5 v=88
174600 On ch=1 n=a6 v=88
174720 On ch=1 n=a6 v=0
174720 On ch=1 n=a5 v=0
174720 On ch=1 n=d7 v=88
174720 On ch=1 n=d6 v=88
175176 Par ch=1 c=64 v=0
175680 On ch=1 n=d6 v=0
175680 On ch=1 n=d7 v=0
175680 On ch=1 n=a6 v=88
175680 On ch=1 n=a7 v=88
175728 Par ch=1 c=64 v=127
176616 Par ch=1 c=64 v=0
176640 On ch=1 n=a7 v=0
176640 On ch=1 n=a6 v=0
176640 On ch=1 n=e7 v=88
176640 On ch=1 n=e6 v=88
177120 On ch=1 n=e6 v=0
177120 On ch=1 n=e7 v=0
177120 Par ch=1 c=64 v=0
177120 On ch=1 n=a5 v=88
177120 On ch=1 n=a6 v=88
177168 Par ch=1 c=64 v=127
177360 On ch=1 n=a6 v=0
177360 On ch=1 n=a5 v=0
177480 On ch=1 n=e5 v=88
177480 On ch=1 n=e6 v=88
177600 On ch=1 n=e6 v=0
177600 On ch=1 n=e5 v=0
177600 On ch=1 n=a6 v=88
177600 On ch=1 n=a5 v=88
178056 Par ch=1 c=64 v=0
178560 On ch=1 n=a5 v=0
178560 On ch=1 n=a6 v=0
178560 On ch=1 n=a6 v=88
178560 On ch=1 n=d#6 v=88
178560 On ch=1 n=a5 v=88
178560 Par ch=1 c=64 v=0
178608 Par ch=1 c=64 v=127
178704 On ch=1 n=a5 v=0
178704 On ch=1 n=d#6 v=0
178704 On ch=1 n=a6 v=0
178800 On ch=1 n=a5 v=88
178800 On ch=1 n=d#6 v=88
178800 On ch=1 n=a6 v=88
178920 On ch=1 n=a6 v=0
178920 On ch=1 n=d#6 v=0
178920 On ch=1 n=a5 v=0
178920 On ch=1 n=a5 v=88
178920 On ch=1 n=d#6 v=88
178920 On ch=1 n=a6 v=88
179040 On ch=1 n=a6 v=0
179040 On ch=1 n=d#6 v=0
179040 On ch=1 n=a5 v=0
179040 On ch=1 n=a5 v=88
179040 On ch=1 n=d#6 v=88
179040 On ch=1 n=a6 v=88
179280 On ch=1 n=a6 v=0
179280 On ch=1 n=d#6 v=0
179280 On ch=1 n=a5 v=0
179280 On ch=1 n=a5 v=88
179280 On ch=1 n=d#6 v=88
179280 On ch=1 n=g6 v=88
179400 On ch=1 n=g6 v=0
179400 On ch=1 n=d#6 v=0
179400 On ch=1 n=a5 v=0
179400 On ch=1 n=a5 v=88
179400 Par ch=1 c=64 v=0
179400 On ch=1 n=d#6 v=88
179400 On ch=1 n=f6 v=88
179400 On ch=1 n=a6 v=88
179520 On ch=1 n=a6 v=0
179520 On ch=1 n=f6 v=0
179520 On ch=1 n=d#6 v=0
179520 On ch=1 n=a5 v=0
179520 On ch=1 n=a#6 v=88
179520 On ch=1 n=a#5 v=88
179520 On ch=1 n=d6 v=88
179520 On ch=1 n=f6 v=88
179568 Par ch=1 c=64 v=127
179760 On ch=1 n=f6 v=0
179760 On ch=1 n=d6 v=0
179760 On ch=1 n=a#5 v=0
179760 On ch=1 n=f6 v=88
179760 On ch=1 n=d6 v=88
179760 On ch=1 n=a#5 v=88
179976 Par ch=1 c=64 v=0
180000 On ch=1 n=a#5 v=0
180000 On ch=1 n=d6 v=0
180000 On ch=1 n=f6 v=0
180000 On ch=1 n=a#6 v=0
180000 Par ch=1 c=64 v=0
180000 On ch=1 n=b5 v=88
180000 On ch=1 n=f6 v=88
180000 On ch=1 n=b6 v=88
180048 Par ch=1 c=64 v=127
180240 On ch=1 n=b6 v=0
180240 On ch=1 n=f6 v=0
180240 On ch=1 n=b5 v=0
180240 On ch=1 n=b5 v=88
180240 On ch=1 n=f6 v=88
180240 On ch=1 n=b6 v=88
180360 On ch=1 n=b6 v=0
180360 On ch=1 n=f6 v=0
180360 On ch=1 n=b5 v=0
180360 On ch=1 n=b5 v=88
180360 On ch=1 n=f6 v=88
180360 On ch=1 n=b6 v=88
180480 On ch=1 n=b6 v=0
180480 On ch=1 n=f6 v=0
180480 On ch=1 n=b5 v=0
180480 On ch=1 n=b5 v=88
180480 On ch=1 n=f6 v=88
180480 On ch=1 n=b6 v=88
180720 On ch=1 n=b6 v=0
180720 On ch=1 n=f6 v=0
180720 On ch=1 n=b5 v=0
180720 On ch=1 n=b5 v=88
180720 On ch=1 n=f6 v=88
180720 On ch=1 n=a6 v=88
180840 On ch=1 n=a6 v=0
180840 On ch=1 n=f6 v=0
180840 On ch=1 n=b5 v=0
180840 On ch=1 n=b5 v=88
180840 Par ch=1 c=64 v=0
180840 On ch=1 n=f6 v=88
180840 On ch=1 n=g6 v=88
180840 On ch=1 n=b6 v=88
180960 On ch=1 n=b6 v=0
180960 On ch=1 n=g6 v=0
180960 On ch=1 n=f6 v=0
180960 On ch=1 n=b5 v=0
180960 On ch=1 n=c7 v=88
180960 On ch=1 n=c6 v=88
180960 On ch=1 n=e6 v=88
180960 On ch=1 n=g6 v=88
181008 Par ch=1 c=64 v=127
181200 On ch=1 n=g6 v=0
181200 On ch=1 n=e6 v=0
181200 On ch=1 n=c6 v=0
181200 On ch=1 n=g6 v=88
181200 On ch=1 n=e6 v=88
181200 On ch=1 n=c6 v=88
181416 Par ch=1 c=64 v=0
181440 On ch=1 n=c6 v=0
181440 On ch=1 n=e6 v=0
181440 On ch=1 n=g6 v=0
181440 On ch=1 n=c7 v=0
181440 Par ch=1 c=64 v=0
181440 On ch=1 n=c#6 v=88
181440 On ch=1 n=g6 v=88
181440 On ch=1 n=c#7 v=88
181488 Par ch=1 c=64 v=127
181680 On ch=1 n=c#7 v=0
181680 On ch=1 n=g6 v=0
181680 On ch=1 n=c#6 v=0
181680 On ch=1 n=c#6 v=88
181680 On ch=1 n=g6 v=88
181680 On ch=1 n=c#7 v=88
181800 On ch=1 n=c#7 v=0
181800 On ch=1 n=g6 v=0
181800 On ch=1 n=c#6 v=0
181800 On ch=1 n=d6 v=88
181800 On ch=1 n=g6 v=88
181800 On ch=1 n=d7 v=88
181920 On ch=1 n=d7 v=0
181920 On ch=1 n=g6 v=0
181920 On ch=1 n=d6 v=0
181920 On ch=1 n=e6 v=88
181920 On ch=1 n=g6 v=88
181920 On ch=1 n=e7 v=88
182160 On ch=1 n=e7 v=0
182160 On ch=1 n=g6 v=0
182160 On ch=1 n=e6 v=0
182160 On ch=1 n=c#6 v=88
182160 On ch=1 n=g6 v=88
182160 On ch=1 n=c#7 v=88
182280 On ch=1 n=c#7 v=0
182280 On ch=1 n=g6 v=0
182280 On ch=1 n=c#6 v=0
182280 On ch=1 n=d6 v=88
182280 On ch=1 n=d7 v=88
182400 On ch=1 n=d7 v=0
182400 On ch=1 n=d6 v=0
182400 On ch=1 n=e6 v=88
182400 On ch=1 n=e7 v=88
182520 On ch=1 n=e7 v=0
182520 On ch=1 n=e6 v=0
182520 On ch=1 n=f#6 v=88
182520 On ch=1 n=f#7 v=88
182640 On ch=1 n=f#7 v=0
182640 On ch=1 n=f#6 v=0
182640 On ch=1 n=g6 v=88
182640 On ch=1 n=g7 v=88
182760 On ch=1 n=g7 v=0
182760 On ch=1 n=g6 v=0
182760 On ch=1 n=g#7 v=88
182760 On ch=1 n=g#6 v=88
182880 On ch=1 n=g#6 v=0
182880 On ch=1 n=g#7 v=0
182880 Par ch=1 c=64 v=0
182880 On ch=1 n=a6 v=83
182880 On ch=1 n=a7 v=83
183000 On ch=1 n=a7 v=0
183000 On ch=1 n=a6 v=0
183000 On ch=1 n=a#6 v=83
183000 On ch=1 n=a#7 v=83
183120 On ch=1 n=a#7 v=0
183120 On ch=1 n=a#6 v=0
183120 On ch=1 n=b6 v=83
183120 On ch=1 n=b7 v=83
183240 On ch=1 n=b7 v=0
183240 On ch=1 n=b6 v=0
183240 On ch=1 n=c#7 v=82
183240 On ch=1 n=c#8 v=82
183360 On ch=1 n=c#8 v=0
183360 On ch=1 n=c#7 v=0
183360 On ch=1 n=e7 v=82
183360 On ch=1 n=a7 v=82
183360 On ch=1 n=e8 v=82
183840 On ch=1 n=e8 v=0
183840 On ch=1 n=a7 v=0
183840 On ch=1 n=e7 v=0
183840 On ch=1 n=d7 v=80
183840 On ch=1 n=d8 v=80
184080 On ch=1 n=d8 v=0
184080 On ch=1 n=d7 v=0
184080 Par ch=1 c=64 v=0
184320 Par ch=1 c=64 v=0
184320 On ch=1 n=c#5 v=88
184320 On ch=1 n=e5 v=88
184320 On ch=1 n=a5 v=88
184368 Par ch=1 c=64 v=127
184560 On ch=1 n=a5 v=0
184560 On ch=1 n=e5 v=0
184560 On ch=1 n=c#5 v=0
184680 On ch=1 n=c#5 v=87
184680 On ch=1 n=e5 v=87
184800 On ch=1 n=e5 v=0
184800 On ch=1 n=c#5 v=0
184800 On ch=1 n=c#5 v=87
184800 On ch=1 n=e5 v=87
185040 On ch=1 n=e5 v=0
185040 On ch=1 n=c#5 v=0
185160 On ch=1 n=c#5 v=86
185160 On ch=1 n=e5 v=86
185256 Par ch=1 c=64 v=0
185280 On ch=1 n=e5 v=0
185280 On ch=1 n=c#5 v=0
185280 On ch=1 n=f#5 v=85
185280 On ch=1 n=d5 v=85
185352 On ch=1 n=d5 v=0
185352 On ch=1 n=f#5 v=0
185400 On ch=1 n=g#5 v=85
185400 On ch=1 n=d5 v=85
185472 On ch=1 n=d5 v=0
185472 On ch=1 n=g#5 v=0
185520 On ch=1 n=a5 v=84
185520 On ch=1 n=d5 v=84
185592 On ch=1 n=d5 v=0
185592 On ch=1 n=a5 v=0
185640 On ch=1 n=d5 v=84
185640 On ch=1 n=b5 v=84
185712 On ch=1 n=b5 v=0
185712 On ch=1 n=d5 v=0
185760 Par ch=1 c=64 v=0
185760 On ch=1 n=c#5 v=83
185760 On ch=1 n=c#6 v=83
185808 Par ch=1 c=64 v=127
186120 On ch=1 n=c#6 v=0
186120 On ch=1 n=c#5 v=0
186120 On ch=1 n=c#5 v=82
186120 On ch=1 n=a5 v=82
186240 On ch=1 n=a5 v=0
186240 On ch=1 n=c#5 v=0
186240 On ch=1 n=a5 v=82
186240 Par ch=1 c=64 v=0
186240 On ch=1 n=c#5 v=82
186384 On ch=1 n=c#5 v=0
186384 On ch=1 n=a5 v=0
186480 On ch=1 n=g#4 v=81
186558 On ch=1 n=g#4 v=0
186558 On ch=1 n=a4 v=81
186638 On ch=1 n=a4 v=0
186638 On ch=1 n=b4 v=80
186718 On ch=1 n=b4 v=0
186720 On ch=1 n=a4 v=80
186864 On ch=1 n=a4 v=0
186960 On ch=1 n=e4 v=79
187104 On ch=1 n=e4 v=0
187200 Par ch=1 c=64 v=0
187200 On ch=1 n=c#5 v=76
187200 On ch=1 n=c#6 v=76
187248 Par ch=1 c=64 v=127
187440 On ch=1 n=c#6 v=0
187440 On ch=1 n=c#5 v=0
187560 On ch=1 n=c#5 v=76
187560 On ch=1 n=a5 v=76
187680 On ch=1 n=a5 v=0
187680 On ch=1 n=c#5 v=0
187680 On ch=1 n=c#5 v=76
187680 On ch=1 n=a5 v=76
187920 On ch=1 n=a5 v=0
187920 On ch=1 n=c#5 v=0
188040 On ch=1 n=c#5 v=76
188040 On ch=1 n=g#5 v=76
188136 Par ch=1 c=64 v=0
188160 On ch=1 n=g#5 v=0
188160 On ch=1 n=c#5 v=0
188160 On ch=1 n=a5 v=76
188160 On ch=1 n=c#5 v=76
188232 On ch=1 n=c#5 v=0
188232 On ch=1 n=a5 v=0
188280 On ch=1 n=b5 v=76
188280 On ch=1 n=a5 v=76
188280 On ch=1 n=c#5 v=76
188352 On ch=1 n=c#5 v=0
188352 On ch=1 n=a5 v=0
188352 On ch=1 n=b5 v=0
188400 On ch=1 n=c#6 v=76
188400 On ch=1 n=a5 v=76
188400 On ch=1 n=c#5 v=76
188472 On ch=1 n=c#5 v=0
188472 On ch=1 n=a5 v=0
188472 On ch=1 n=c#6 v=0
188520 On ch=1 n=d5 v=76
188520 On ch=1 n=a5 v=76
188520 On ch=1 n=d6 v=76
188592 On ch=1 n=d6 v=0
188592 On ch=1 n=a5 v=0
188592 On ch=1 n=d5 v=0
188640 Par ch=1 c=64 v=0
188640 On ch=1 n=d#5 v=76
188640 On ch=1 n=a5 v=76
188640 On ch=1 n=f#6 v=76
188688 Par ch=1 c=64 v=127
189000 On ch=1 n=f#6 v=0
189000 On ch=1 n=a5 v=0
189000 On ch=1 n=d#5 v=0
189000 On ch=1 n=e5 v=76
189000 On ch=1 n=a5 v=76
189000 On ch=1 n=e6 v=76
189072 Par ch=1 c=64 v=0
189120 On ch=1 n=e6 v=0
189120 On ch=1 n=a5 v=0
189120 On ch=1 n=e5 v=0
189120 On ch=1 n=e5 v=76
189120 Par ch=1 c=64 v=0
189120 On ch=1 n=a5 v=76
189120 On ch=1 n=e6 v=76
189360 On ch=1 n=e6 v=0
189360 On ch=1 n=a5 v=0
189360 On ch=1 n=e5 v=0
189360 On ch=1 n=g#4 v=76
189438 On ch=1 n=g#4 v=0
189438 On ch=1 n=a4 v=76
189518 On ch=1 n=a4 v=0
189518 On ch=1 n=b4 v=76
189598 On ch=1 n=b4 v=0
189600 On ch=1 n=a4 v=76
189744 On ch=1 n=a4 v=0
189840 On ch=1 n=e4 v=76
189984 On ch=1 n=e4 v=0
190080 On ch=1 n=c#7 v=80
190080 On ch=1 n=f6 v=80
190080 On ch=1 n=c#6 v=80
190080 Par ch=1 c=64 v=0
190128 Par ch=1 c=64 v=127
190224 On ch=1 n=c#6 v=0
190224 On ch=1 n=f6 v=0
190224 On ch=1 n=c#7 v=0
190320 On ch=1 n=g#5 v=80
190320 On ch=1 n=c#6 v=80
190320 On ch=1 n=g#6 v=80
190398 On ch=1 n=g#6 v=0
190398 On ch=1 n=c#6 v=0
190398 On ch=1 n=g#5 v=0
190398 On ch=1 n=g#5 v=80
190398 On ch=1 n=c#6 v=80
190398 On ch=1 n=g#6 v=80
190478 On ch=1 n=g#6 v=0
190478 On ch=1 n=c#6 v=0
190478 On ch=1 n=g#5 v=0
190478 On ch=1 n=g#5 v=81
190478 On ch=1 n=c#6 v=81
190478 On ch=1 n=g#6 v=81
190558 On ch=1 n=g#6 v=0
190558 On ch=1 n=c#6 v=0
190558 On ch=1 n=g#5 v=0
190560 On ch=1 n=g#5 v=81
190560 On ch=1 n=c#6 v=81
190560 On ch=1 n=g#6 v=81
190800 On ch=1 n=g#6 v=0
190800 On ch=1 n=c#6 v=0
190800 On ch=1 n=g#5 v=0
190800 On ch=1 n=g#5 v=82
190800 On ch=1 n=c#6 v=82
190800 On ch=1 n=g#6 v=82
190848 Par ch=1 c=64 v=0
191040 On ch=1 n=g#6 v=0
191040 On ch=1 n=c#6 v=0
191040 On ch=1 n=g#5 v=0
191040 On ch=1 n=a#6 v=82
191040 On ch=1 n=d#6 v=82
191040 On ch=1 n=a#5 v=82
191064 Par ch=1 c=64 v=127
191112 On ch=1 n=a#5 v=0
191112 On ch=1 n=d#6 v=0
191112 On ch=1 n=a#6 v=0
191160 On ch=1 n=c7 v=83
191160 On ch=1 n=c6 v=83
191232 On ch=1 n=c6 v=0
191232 On ch=1 n=c7 v=0
191280 On ch=1 n=c#7 v=83
191280 On ch=1 n=g#6 v=83
191280 On ch=1 n=c#6 v=83
191352 On ch=1 n=c#6 v=0
191352 On ch=1 n=g#6 v=0
191352 On ch=1 n=c#7 v=0
191400 On ch=1 n=d#6 v=83
191400 On ch=1 n=d#7 v=83
191472 On ch=1 n=d#7 v=0
191472 On ch=1 n=d#6 v=0
191496 Par ch=1 c=64 v=0
191520 Par ch=1 c=64 v=0
191520 On ch=1 n=f6 v=84
191520 On ch=1 n=c#7 v=84
191520 On ch=1 n=f7 v=84
191568 Par ch=1 c=64 v=127
191880 On ch=1 n=f7 v=0
191880 On ch=1 n=c#7 v=0
191880 On ch=1 n=f6 v=0
191880 On ch=1 n=c#7 v=85
191880 On ch=1 n=c#6 v=85
191952 On ch=1 n=c#6 v=0
191952 On ch=1 n=c#7 v=0
192000 On ch=1 n=c#7 v=85
192000 On ch=1 n=c#6 v=85
192144 On ch=1 n=c#6 v=0
192144 On ch=1 n=c#7 v=0
192240 On ch=1 n=c#7 v=86
192240 On ch=1 n=c#6 v=86
192312 On ch=1 n=c#6 v=0
192312 On ch=1 n=c#7 v=0
192360 On ch=1 n=c#7 v=86
192360 On ch=1 n=c#6 v=86
192432 On ch=1 n=c#6 v=0
192432 On ch=1 n=c#7 v=0
192480 On ch=1 n=c#7 v=86
192480 On ch=1 n=c#6 v=86
192552 On ch=1 n=c#6 v=0
192552 On ch=1 n=c#7 v=0
192600 On ch=1 n=c#7 v=87
192600 On ch=1 n=c#6 v=87
192672 On ch=1 n=c#6 v=0
192672 On ch=1 n=c#7 v=0
192720 On ch=1 n=c#7 v=87
192720 On ch=1 n=c#6 v=87
192792 On ch=1 n=c#6 v=0
192792 On ch=1 n=c#7 v=0
192840 On ch=1 n=c#6 v=87
192840 On ch=1 n=c#7 v=87
192912 On ch=1 n=c#7 v=0
192912 On ch=1 n=c#6 v=0
192936 Par ch=1 c=64 v=0
192960 Par ch=1 c=64 v=0
192960 On ch=1 n=c#6 v=88
192960 On ch=1 n=c#7 v=88
193200 On ch=1 n=c#7 v=0
193200 On ch=1 n=c#6 v=0
193200 On ch=1 n=b5 v=88
193200 On ch=1 n=f#6 v=88
193200 On ch=1 n=b6 v=88
193380 On ch=1 n=b6 v=0
193380 On ch=1 n=f#6 v=0
193380 On ch=1 n=b5 v=0
193380 On ch=1 n=b5 v=88
193380 On ch=1 n=f#6 v=88
193380 On ch=1 n=b6 v=88
193440 On ch=1 n=b6 v=0
193440 On ch=1 n=f#6 v=0
193440 On ch=1 n=b5 v=0
193440 On ch=1 n=b5 v=88
193440 On ch=1 n=f#6 v=88
193440 On ch=1 n=b6 v=88
193680 On ch=1 n=b6 v=0
193680 On ch=1 n=f#6 v=0
193680 On ch=1 n=b5 v=0
193680 On ch=1 n=c#6 v=88
193680 On ch=1 n=c#7 v=88
193920 On ch=1 n=c#7 v=0
193920 On ch=1 n=c#6 v=0
193920 On ch=1 n=e6 v=88
193920 On ch=1 n=a6 v=88
193920 On ch=1 n=e7 v=88
194160 On ch=1 n=e7 v=0
194160 On ch=1 n=a6 v=0
194160 On ch=1 n=e6 v=0
194160 On ch=1 n=d6 v=88
194160 On ch=1 n=d7 v=88
194280 On ch=1 n=d7 v=0
194280 On ch=1 n=d6 v=0
194280 On ch=1 n=c#7 v=88
194280 On ch=1 n=c#6 v=88
194400 On ch=1 n=c#6 v=0
194400 On ch=1 n=c#7 v=0
194400 On ch=1 n=b6 v=88
194400 On ch=1 n=b5 v=88
194400 Par ch=1 c=64 v=0
194558 On ch=1 n=b5 v=0
194558 On ch=1 n=b6 v=0
194640 On ch=1 n=b5 v=87
194640 On ch=1 n=e6 v=87
194640 On ch=1 n=b6 v=87
194820 On ch=1 n=b6 v=0
194820 On ch=1 n=e6 v=0
194820 On ch=1 n=b5 v=0
194820 On ch=1 n=c#6 v=86
194820 On ch=1 n=c#7 v=86
194880 On ch=1 n=c#7 v=0
194880 On ch=1 n=c#6 v=0
194880 On ch=1 n=b5 v=85
194880 On ch=1 n=e6 v=85
194880 On ch=1 n=b6 v=85
194904 Par ch=1 c=64 v=127
195360 On ch=1 n=b6 v=0
195360 On ch=1 n=e6 v=0
195360 On ch=1 n=b5 v=0
195360 On ch=1 n=a5 v=82
195360 On ch=1 n=a6 v=82
195600 On ch=1 n=a6 v=0
195600 On ch=1 n=a5 v=0
195600 Par ch=1 c=64 v=0
195840 Par ch=1 c=64 v=0
195840 On ch=1 n=a5 v=76
195840 On ch=1 n=b5 v=76
195840 On ch=1 n=d#6 v=76
195840 On ch=1 n=f#6 v=76
195840 On ch=1 n=b6 v=76
195888 Par ch=1 c=64 v=127
196080 On ch=1 n=b6 v=0
196080 On ch=1 n=f#6 v=0
196080 On ch=1 n=d#6 v=0
196080 On ch=1 n=b5 v=0
196080 On ch=1 n=a5 v=0
196200 On ch=1 n=a5 v=76
196200 On ch=1 n=b5 v=76
196200 On ch=1 n=d#6 v=76
196200 On ch=1 n=f#6 v=76
196296 Par ch=1 c=64 v=0
196320 On ch=1 n=f#6 v=0
196320 On ch=1 n=d#6 v=0
196320 On ch=1 n=b5 v=0
196320 On ch=1 n=a5 v=0
196320 On ch=1 n=a5 v=76
196320 On ch=1 n=b5 v=76
196320 On ch=1 n=d#6 v=76
196320 On ch=1 n=f#6 v=76
196560 On ch=1 n=f#6 v=0
196560 On ch=1 n=d#6 v=0
196560 On ch=1 n=b5 v=0
196560 On ch=1 n=a5 v=0
196560 On ch=1 n=a#4 v=76
196638 On ch=1 n=a#4 v=0
196638 On ch=1 n=b4 v=76
196718 On ch=1 n=b4 v=0
196718 On ch=1 n=c#5 v=76
196798 On ch=1 n=c#5 v=0
196800 On ch=1 n=b4 v=76
197040 On ch=1 n=b4 v=0
197040 On ch=1 n=g#5 v=76
197040 On ch=1 n=e6 v=76
197040 On ch=1 n=g#6 v=76
197184 On ch=1 n=g#6 v=0
197184 On ch=1 n=e6 v=0
197184 On ch=1 n=g#5 v=0
197280 On ch=1 n=b6 v=76
197280 On ch=1 n=f#6 v=76
197280 On ch=1 n=d#6 v=76
197280 On ch=1 n=b5 v=76
197280 On ch=1 n=a5 v=76
197280 Par ch=1 c=64 v=0
197328 Par ch=1 c=64 v=127
197424 On ch=1 n=a5 v=0
197424 On ch=1 n=b5 v=0
197424 On ch=1 n=d#6 v=0
197424 On ch=1 n=f#6 v=0
197424 On ch=1 n=b6 v=0
197520 On ch=1 n=f#6 v=76
197520 On ch=1 n=d#6 v=76
197520 On ch=1 n=b5 v=76
197520 On ch=1 n=a5 v=76
197586 On ch=1 n=a5 v=0
197586 On ch=1 n=b5 v=0
197586 On ch=1 n=d#6 v=0
197586 On ch=1 n=f#6 v=0
197598 On ch=1 n=f#6 v=76
197598 On ch=1 n=d#6 v=76
197598 On ch=1 n=b5 v=76
197598 On ch=1 n=a5 v=76
197666 On ch=1 n=a5 v=0
197666 On ch=1 n=b5 v=0
197666 On ch=1 n=d#6 v=0
197666 On ch=1 n=f#6 v=0
197678 On ch=1 n=f#6 v=76
197678 On ch=1 n=d#6 v=76
197678 On ch=1 n=b5 v=76
197678 On ch=1 n=a5 v=76
197746 On ch=1 n=a5 v=0
197746 On ch=1 n=b5 v=0
197746 On ch=1 n=d#6 v=0
197746 On ch=1 n=f#6 v=0
197760 On ch=1 n=a5 v=76
197760 On ch=1 n=b5 v=76
197760 On ch=1 n=d#6 v=76
197760 On ch=1 n=f#6 v=76
197904 Par ch=1 c=64 v=0
198000 On ch=1 n=f#6 v=0
198000 On ch=1 n=d#6 v=0
198000 On ch=1 n=b5 v=0
198000 On ch=1 n=a5 v=0
198000 On ch=1 n=a#4 v=76
198078 On ch=1 n=a#4 v=0
198078 On ch=1 n=b4 v=76
198158 On ch=1 n=b4 v=0
198158 On ch=1 n=c#5 v=76
198238 On ch=1 n=c#5 v=0
198240 On ch=1 n=b4 v=76
198480 On ch=1 n=b4 v=0
198480 On ch=1 n=g#6 v=76
198480 On ch=1 n=d#6 v=76
198480 On ch=1 n=g#5 v=76
198504 Par ch=1 c=64 v=127
198696 Par ch=1 c=64 v=0
198720 On ch=1 n=g#5 v=0
198720 On ch=1 n=d#6 v=0
198720 On ch=1 n=g#6 v=0
198720 Par ch=1 c=64 v=0
198720 Par ch=1 c=64 v=0
198720 On ch=1 n=e5 v=76
198720 On ch=1 n=g#5 v=76
198720 On ch=1 n=c#6 v=76
198720 On ch=1 n=e6 v=76
198960 On ch=1 n=e6 v=0
198960 On ch=1 n=c#6 v=0
198960 On ch=1 n=g#5 v=0
198960 On ch=1 n=e5 v=0
198960 On ch=1 n=e6 v=76
198960 On ch=1 n=c#6 v=76
198960 On ch=1 n=g#5 v=76
198960 On ch=1 n=e5 v=76
199032 On ch=1 n=e5 v=0
199032 On ch=1 n=g#5 v=0
199032 On ch=1 n=c#6 v=0
199032 On ch=1 n=e6 v=0
199080 On ch=1 n=e6 v=76
199080 On ch=1 n=c#6 v=76
199080 On ch=1 n=g#5 v=76
199080 On ch=1 n=e5 v=76
199152 On ch=1 n=e5 v=0
199152 On ch=1 n=g#5 v=0
199152 On ch=1 n=c#6 v=0
199152 On ch=1 n=e6 v=0
199200 On ch=1 n=a5 v=76
199200 On ch=1 n=c#6 v=76
199200 On ch=1 n=a6 v=76
199440 On ch=1 n=a6 v=0
199440 On ch=1 n=c#6 v=0
199440 On ch=1 n=a5 v=0
199440 On ch=1 n=g#5 v=76
199440 On ch=1 n=c#6 v=76
199440 On ch=1 n=g#6 v=76
199680 On ch=1 n=g#6 v=0
199680 On ch=1 n=c#6 v=0
199680 On ch=1 n=g#5 v=0
199680 On ch=1 n=f#5 v=76
199680 On ch=1 n=c#6 v=76
199680 On ch=1 n=f#6 v=76
199920 On ch=1 n=f#6 v=0
199920 On ch=1 n=c#6 v=0
199920 On ch=1 n=f#5 v=0
199920 On ch=1 n=g#6 v=76
199920 On ch=1 n=d#6 v=76
199920 On ch=1 n=c6 v=76
199920 On ch=1 n=g#5 v=76
199920 On ch=1 n=f#5 v=76
200160 On ch=1 n=f#5 v=0
200160 On ch=1 n=g#5 v=0
200160 On ch=1 n=c6 v=0
200160 On ch=1 n=d#6 v=0
200160 On ch=1 n=g#6 v=0
200160 Par ch=1 c=64 v=0
200160 On ch=1 n=e5 v=76
200160 On ch=1 n=g#5 v=76
200160 On ch=1 n=c#6 v=76
200160 On ch=1 n=e6 v=76
200400 On ch=1 n=e6 v=0
200400 On ch=1 n=c#6 v=0
200400 On ch=1 n=g#5 v=0
200400 On ch=1 n=e5 v=0
200400 On ch=1 n=c#5 v=76
200400 On ch=1 n=d#5 v=76
200400 On ch=1 n=g5 v=76
200400 On ch=1 n=a#5 v=76
200400 On ch=1 n=c#6 v=76
200400 On ch=1 n=d#6 v=76
200640 On ch=1 n=d#6 v=0
200640 On ch=1 n=c#6 v=0
200640 On ch=1 n=a#5 v=0
200640 On ch=1 n=g5 v=0
200640 On ch=1 n=d#5 v=0
200640 On ch=1 n=c#5 v=0
200640 On ch=1 n=c5 v=76
200640 On ch=1 n=d#5 v=76
200640 On ch=1 n=g#5 v=76
200640 On ch=1 n=c6 v=76
200880 On ch=1 n=c6 v=0
200880 On ch=1 n=g#5 v=0
200880 On ch=1 n=d#5 v=0
200880 On ch=1 n=c5 v=0
200880 On ch=1 n=d#5 v=76
200880 On ch=1 n=d#6 v=76
200904 Par ch=1 c=64 v=127
201000 On ch=1 n=d#6 v=0
201000 On ch=1 n=d#5 v=0
201000 On ch=1 n=d#5 v=76
201000 On ch=1 n=d#6 v=76
201120 On ch=1 n=d#6 v=0
201120 On ch=1 n=d#5 v=0
201120 On ch=1 n=d#5 v=76
201120 On ch=1 n=d#6 v=76
201240 On ch=1 n=d#6 v=0
201240 On ch=1 n=d#5 v=0
201240 On ch=1 n=d#5 v=76
201240 On ch=1 n=d#6 v=76
201360 On ch=1 n=d#6 v=0
201360 On ch=1 n=d#5 v=0
201360 On ch=1 n=d#5 v=76
201360 On ch=1 n=d#6 v=76
201480 On ch=1 n=d#6 v=0
201480 On ch=1 n=d#5 v=0
201480 On ch=1 n=d#6 v=76
201480 On ch=1 n=d#5 v=76
201576 Par ch=1 c=64 v=0
201600 On ch=1 n=d#5 v=0
201600 On ch=1 n=d#6 v=0
201600 Par ch=1 c=64 v=0
201600 On ch=1 n=c#6 v=76
201600 On ch=1 n=d#6 v=76
201600 On ch=1 n=g6 v=76
201600 On ch=1 n=a#6 v=76
201600 On ch=1 n=d#7 v=76
201648 Par ch=1 c=64 v=127
201840 On ch=1 n=d#7 v=0
201840 On ch=1 n=a#6 v=0
201840 On ch=1 n=g6 v=0
201840 On ch=1 n=d#6 v=0
201840 On ch=1 n=c#6 v=0
201960 On ch=1 n=a#6 v=76
201960 On ch=1 n=d#6 v=76
201960 On ch=1 n=c#6 v=76
201960 On ch=1 n=a#5 v=76
202032 On ch=1 n=a#5 v=0
202032 On ch=1 n=c#6 v=0
202032 On ch=1 n=d#6 v=0
202032 On ch=1 n=a#6 v=0
202080 On ch=1 n=a#6 v=76
202080 On ch=1 n=d#6 v=76
202080 On ch=1 n=c#6 v=76
202080 On ch=1 n=a#5 v=76
202224 On ch=1 n=a#5 v=0
202224 On ch=1 n=c#6 v=0
202224 On ch=1 n=d#6 v=0
202224 On ch=1 n=a#6 v=0
202296 Par ch=1 c=64 v=0
202320 On ch=1 n=d5 v=76
202398 On ch=1 n=d5 v=0
202398 On ch=1 n=d#5 v=76
202478 On ch=1 n=d#5 v=0
202478 On ch=1 n=f5 v=76
202558 On ch=1 n=f5 v=0
202560 On ch=1 n=d#5 v=76
202800 On ch=1 n=d#5 v=0
202800 On ch=1 n=c6 v=76
202800 On ch=1 n=d#6 v=76
202800 On ch=1 n=g#6 v=76
202800 On ch=1 n=c7 v=76
202944 On ch=1 n=c7 v=0
202944 On ch=1 n=g#6 v=0
202944 On ch=1 n=d#6 v=0
202944 On ch=1 n=c6 v=0
203040 On ch=1 n=d#7 v=76
203040 On ch=1 n=a#6 v=76
203040 On ch=1 n=g6 v=76
203040 On ch=1 n=d#6 v=76
203040 On ch=1 n=c#6 v=76
203040 Par ch=1 c=64 v=0
203088 Par ch=1 c=64 v=127
203244 On ch=1 n=c#6 v=0
203244 On ch=1 n=d#6 v=0
203244 On ch=1 n=g6 v=0
203244 On ch=1 n=a#6 v=0
203244 On ch=1 n=d#7 v=0
203280 On ch=1 n=a#6 v=76
203280 On ch=1 n=d#6 v=76
203280 On ch=1 n=c#6 v=76
203280 On ch=1 n=a#5 v=76
203346 On ch=1 n=a#5 v=0
203346 On ch=1 n=c#6 v=0
203346 On ch=1 n=d#6 v=0
203346 On ch=1 n=a#6 v=0
203358 On ch=1 n=a#6 v=76
203358 On ch=1 n=d#6 v=76
203358 On ch=1 n=c#6 v=76
203358 On ch=1 n=a#5 v=76
203426 On ch=1 n=a#5 v=0
203426 On ch=1 n=c#6 v=0
203426 On ch=1 n=d#6 v=0
203426 On ch=1 n=a#6 v=0
203438 On ch=1 n=a#6 v=76
203438 On ch=1 n=d#6 v=76
203438 On ch=1 n=c#6 v=76
203438 On ch=1 n=a#5 v=76
203506 On ch=1 n=a#5 v=0
203506 On ch=1 n=c#6 v=0
203506 On ch=1 n=d#6 v=0
203506 On ch=1 n=a#6 v=0
203520 On ch=1 n=a#5 v=76
203520 On ch=1 n=c#6 v=76
203520 On ch=1 n=d#6 v=76
203520 On ch=1 n=a#6 v=76
203736 Par ch=1 c=64 v=0
203760 On ch=1 n=a#6 v=0
203760 On ch=1 n=d#6 v=0
203760 On ch=1 n=c#6 v=0
203760 On ch=1 n=a#5 v=0
203760 On ch=1 n=d5 v=76
203838 On ch=1 n=d5 v=0
203838 On ch=1 n=d#5 v=76
203918 On ch=1 n=d#5 v=0
203918 On ch=1 n=f5 v=76
203998 On ch=1 n=f5 v=0
204000 On ch=1 n=d#5 v=76
204240 On ch=1 n=d#5 v=0
204240 On ch=1 n=c6 v=76
204240 On ch=1 n=d#6 v=76
204240 On ch=1 n=g#6 v=76
204240 On ch=1 n=c7 v=76
204360 On ch=1 n=c7 v=0
204360 On ch=1 n=g#6 v=0
204360 On ch=1 n=d#6 v=0
204360 On ch=1 n=c6 v=0
204480 On ch=1 n=c#7 v=76
204480 On ch=1 n=f#6 v=76
204480 On ch=1 n=c#6 v=76
204480 Par ch=1 c=64 v=0
204528 Par ch=1 c=64 v=127
204600 On ch=1 n=c#6 v=0
204600 On ch=1 n=f#6 v=0
204600 On ch=1 n=c#7 v=0
204720 On ch=1 n=f#6 v=76
204720 On ch=1 n=c#6 v=76
204720 On ch=1 n=f#5 v=76
204786 On ch=1 n=f#5 v=0
204786 On ch=1 n=c#6 v=0
204786 On ch=1 n=f#6 v=0
204798 On ch=1 n=f#6 v=76
204798 On ch=1 n=c#6 v=76
204798 On ch=1 n=f#5 v=76
204866 On ch=1 n=f#5 v=0
204866 On ch=1 n=c#6 v=0
204866 On ch=1 n=f#6 v=0
204878 On ch=1 n=f#6 v=76
204878 On ch=1 n=c#6 v=76
204878 On ch=1 n=f#5 v=76
204946 On ch=1 n=f#5 v=0
204946 On ch=1 n=c#6 v=0
204946 On ch=1 n=f#6 v=0
204960 On ch=1 n=f#5 v=76
204960 On ch=1 n=c#6 v=76
204960 On ch=1 n=f#6 v=76
205008 Par ch=1 c=64 v=0
205200 On ch=1 n=f#6 v=0
205200 On ch=1 n=c#6 v=0
205200 On ch=1 n=f#5 v=0
205200 On ch=1 n=g#5 v=76
205200 On ch=1 n=c#6 v=76
205200 On ch=1 n=e6 v=76
205200 On ch=1 n=g#6 v=76
205440 On ch=1 n=g#6 v=0
205440 On ch=1 n=e6 v=0
205440 On ch=1 n=c#6 v=0
205440 On ch=1 n=g#5 v=0
205440 On ch=1 n=a5 v=76
205440 On ch=1 n=c#6 v=76
205440 On ch=1 n=e6 v=76
205440 On ch=1 n=a6 v=76
205680 On ch=1 n=a6 v=0
205680 On ch=1 n=e6 v=0
205680 On ch=1 n=c#6 v=0
205680 On ch=1 n=a5 v=0
205680 On ch=1 n=b6 v=76
205680 On ch=1 n=d#6 v=76
205680 On ch=1 n=b5 v=76
205680 On ch=1 n=a5 v=76
205920 On ch=1 n=a5 v=0
205920 On ch=1 n=b5 v=0
205920 On ch=1 n=d#6 v=0
205920 On ch=1 n=b6 v=0
205920 Par ch=1 c=64 v=0
205920 On ch=1 n=e5 v=76
205920 On ch=1 n=g#5 v=76
205920 On ch=1 n=e6 v=76
206160 On ch=1 n=e6 v=0
206160 On ch=1 n=g#5 v=0
206160 On ch=1 n=e5 v=0
206160 On ch=1 n=e5 v=76
206160 On ch=1 n=g#5 v=76
206160 On ch=1 n=e6 v=76
206340 On ch=1 n=e6 v=0
206340 On ch=1 n=g#5 v=0
206340 On ch=1 n=e5 v=0
206340 On ch=1 n=e5 v=76
206340 On ch=1 n=e6 v=76
206400 On ch=1 n=e6 v=0
206400 On ch=1 n=e5 v=0
206400 On ch=1 n=e6 v=76
206400 On ch=1 n=e5 v=76
206400 On ch=1 n=a5 v=76
206520 On ch=1 n=e6 v=0
206580 On ch=1 n=a5 v=0
206580 On ch=1 n=e5 v=0
206580 On ch=1 n=e6 v=84
206640 On ch=1 n=e6 v=0
206640 On ch=1 n=a5 v=76
206640 On ch=1 n=d5 v=76
206640 On ch=1 n=d6 v=76
206760 On ch=1 n=d6 v=0
206760 On ch=1 n=d5 v=0
206760 On ch=1 n=c#5 v=76
206760 On ch=1 n=c#6 v=76
206880 On ch=1 n=c#6 v=0
206880 On ch=1 n=c#5 v=0
206880 On ch=1 n=a5 v=0
206880 On ch=1 n=d6 v=76
206880 On ch=1 n=d5 v=76
206880 On ch=1 n=e5 v=76
206880 On ch=1 n=g#5 v=76
207000 On ch=1 n=d6 v=0
207060 On ch=1 n=g#5 v=0
207060 On ch=1 n=e5 v=0
207060 On ch=1 n=d5 v=0
207060 On ch=1 n=d6 v=84
207120 On ch=1 n=d6 v=0
207120 On ch=1 n=g#5 v=76
207120 On ch=1 n=e5 v=76
207120 On ch=1 n=d5 v=76
207120 On ch=1 n=c#6 v=76
207240 On ch=1 n=c#6 v=0
207240 On ch=1 n=b5 v=76
207360 On ch=1 n=b5 v=0
207360 On ch=1 n=d5 v=0
207360 On ch=1 n=e5 v=0
207360 On ch=1 n=g#5 v=0
207360 Par ch=1 c=64 v=0
207360 On ch=1 n=c#5 v=76
207360 On ch=1 n=e5 v=76
207360 On ch=1 n=a5 v=76
207408 Par ch=1 c=64 v=127
207600 On ch=1 n=a5 v=0
207600 On ch=1 n=e5 v=0
207600 On ch=1 n=c#5 v=0
207720 On ch=1 n=c#5 v=76
207720 On ch=1 n=e5 v=76
207840 On ch=1 n=e5 v=0
207840 On ch=1 n=c#5 v=0
207840 On ch=1 n=c#5 v=76
207840 On ch=1 n=e5 v=76
208080 On ch=1 n=e5 v=0
208080 On ch=1 n=c#5 v=0
208200 On ch=1 n=c#5 v=76
208200 On ch=1 n=e5 v=76
208296 Par ch=1 c=64 v=0
208320 On ch=1 n=e5 v=0
208320 On ch=1 n=c#5 v=0
208320 On ch=1 n=f#5 v=76
208320 On ch=1 n=d5 v=76
208392 On ch=1 n=d5 v=0
208392 On ch=1 n=f#5 v=0
208440 On ch=1 n=g#5 v=76
208440 On ch=1 n=d5 v=76
208512 On ch=1 n=d5 v=0
208512 On ch=1 n=g#5 v=0
208560 On ch=1 n=a5 v=76
208560 On ch=1 n=d5 v=76
208632 On ch=1 n=d5 v=0
208632 On ch=1 n=a5 v=0
208680 On ch=1 n=d5 v=76
208680 On ch=1 n=b5 v=76
208752 On ch=1 n=b5 v=0
208752 On ch=1 n=d5 v=0
208800 Par ch=1 c=64 v=0
208800 On ch=1 n=c#5 v=76
208800 On ch=1 n=c#6 v=76
208848 Par ch=1 c=64 v=127
209160 On ch=1 n=c#6 v=0
209160 On ch=1 n=c#5 v=0
209160 On ch=1 n=c#5 v=76
209160 On ch=1 n=a5 v=76
209280 On ch=1 n=a5 v=0
209280 On ch=1 n=c#5 v=0
209280 On ch=1 n=a5 v=76
209280 Par ch=1 c=64 v=0
209280 On ch=1 n=c#5 v=76
209424 On ch=1 n=c#5 v=0
209424 On ch=1 n=a5 v=0
209520 On ch=1 n=g#4 v=76
209598 On ch=1 n=g#4 v=0
209598 On ch=1 n=a4 v=76
209678 On ch=1 n=a4 v=0
209678 On ch=1 n=b4 v=76
209758 On ch=1 n=b4 v=0
209760 On ch=1 n=a4 v=76
209904 On ch=1 n=a4 v=0
210000 On ch=1 n=e4 v=76
210144 On ch=1 n=e4 v=0
210240 Par ch=1 c=64 v=0
210240 On ch=1 n=c#5 v=76
210240 On ch=1 n=c#6 v=76
210288 Par ch=1 c=64 v=127
210480 On ch=1 n=c#6 v=0
210480 On ch=1 n=c#5 v=0
210600 On ch=1 n=c#5 v=76
210600 On ch=1 n=a5 v=76
210720 On ch=1 n=a5 v=0
210720 On ch=1 n=c#5 v=0
210720 On ch=1 n=c#5 v=76
210720 On ch=1 n=a5 v=76
210960 On ch=1 n=a5 v=0
210960 On ch=1 n=c#5 v=0
211080 On ch=1 n=c#5 v=76
211080 On ch=1 n=g#5 v=76
211176 Par ch=1 c=64 v=0
211200 On ch=1 n=g#5 v=0
211200 On ch=1 n=c#5 v=0
211200 On ch=1 n=a5 v=76
211200 On ch=1 n=c#5 v=76
211272 On ch=1 n=c#5 v=0
211272 On ch=1 n=a5 v=0
211320 On ch=1 n=b5 v=76
211320 On ch=1 n=a5 v=76
211320 On ch=1 n=c#5 v=76
211392 On ch=1 n=c#5 v=0
211392 On ch=1 n=a5 v=0
211392 On ch=1 n=b5 v=0
211440 On ch=1 n=c#6 v=76
211440 On ch=1 n=a5 v=76
211440 On ch=1 n=c#5 v=76
211512 On ch=1 n=c#5 v=0
211512 On ch=1 n=a5 v=0
211512 On ch=1 n=c#6 v=0
211560 On ch=1 n=d5 v=76
211560 On ch=1 n=a5 v=76
211560 On ch=1 n=d6 v=76
211632 On ch=1 n=d6 v=0
211632 On ch=1 n=a5 v=0
211632 On ch=1 n=d5 v=0
211680 Par ch=1 c=64 v=0
211680 On ch=1 n=d#5 v=76
211680 On ch=1 n=a5 v=76
211680 On ch=1 n=f#6 v=76
211728 Par ch=1 c=64 v=127
212040 On ch=1 n=f#6 v=0
212040 On ch=1 n=a5 v=0
212040 On ch=1 n=d#5 v=0
212040 On ch=1 n=e5 v=76
212040 On ch=1 n=a5 v=76
212040 On ch=1 n=e6 v=76
212112 Par ch=1 c=64 v=0
212160 On ch=1 n=e6 v=0
212160 On ch=1 n=a5 v=0
212160 On ch=1 n=e5 v=0
212160 On ch=1 n=e5 v=76
212160 Par ch=1 c=64 v=0
212160 On ch=1 n=a5 v=76
212160 On ch=1 n=e6 v=76
212400 On ch=1 n=e6 v=0
212400 On ch=1 n=a5 v=0
212400 On ch=1 n=e5 v=0
212400 On ch=1 n=g#4 v=76
212478 On ch=1 n=g#4 v=0
212478 On ch=1 n=a4 v=76
212558 On ch=1 n=a4 v=0
212558 On ch=1 n=b4 v=76
212638 On ch=1 n=b4 v=0
212640 On ch=1 n=a4 v=76
212784 On ch=1 n=a4 v=0
212880 On ch=1 n=e4 v=76
213024 On ch=1 n=e4 v=0
213120 On ch=1 n=c#7 v=76
213120 On ch=1 n=f6 v=76
213120 On ch=1 n=c#6 v=76
213120 Par ch=1 c=64 v=0
213168 Par ch=1 c=64 v=127
213264 On ch=1 n=c#6 v=0
213264 On ch=1 n=f6 v=0
213264 On ch=1 n=c#7 v=0
213360 On ch=1 n=g#5 v=76
213360 On ch=1 n=c#6 v=76
213360 On ch=1 n=g#6 v=76
213438 On ch=1 n=g#6 v=0
213438 On ch=1 n=c#6 v=0
213438 On ch=1 n=g#5 v=0
213438 On ch=1 n=g#5 v=76
213438 On ch=1 n=c#6 v=76
213438 On ch=1 n=g#6 v=76
213518 On ch=1 n=g#6 v=0
213518 On ch=1 n=c#6 v=0
213518 On ch=1 n=g#5 v=0
213518 On ch=1 n=g#5 v=76
213518 On ch=1 n=c#6 v=76
213518 On ch=1 n=g#6 v=76
213598 On ch=1 n=g#6 v=0
213598 On ch=1 n=c#6 v=0
213598 On ch=1 n=g#5 v=0
213600 On ch=1 n=g#5 v=76
213600 On ch=1 n=c#6 v=76
213600 On ch=1 n=g#6 v=76
213840 On ch=1 n=g#6 v=0
213840 On ch=1 n=c#6 v=0
213840 On ch=1 n=g#5 v=0
213840 On ch=1 n=g#5 v=76
213840 On ch=1 n=c#6 v=76
213840 On ch=1 n=g#6 v=76
213888 Par ch=1 c=64 v=0
214080 On ch=1 n=g#6 v=0
214080 On ch=1 n=c#6 v=0
214080 On ch=1 n=g#5 v=0
214080 On ch=1 n=a#6 v=76
214080 On ch=1 n=d#6 v=76
214080 On ch=1 n=a#5 v=76
214104 Par ch=1 c=64 v=127
214152 On ch=1 n=a#5 v=0
214152 On ch=1 n=d#6 v=0
214152 On ch=1 n=a#6 v=0
214200 On ch=1 n=c7 v=76
214200 On ch=1 n=c6 v=76
214272 On ch=1 n=c6 v=0
214272 On ch=1 n=c7 v=0
214320 On ch=1 n=c#7 v=76
214320 On ch=1 n=g#6 v=76
214320 On ch=1 n=c#6 v=76
214392 On ch=1 n=c#6 v=0
214392 On ch=1 n=g#6 v=0
214392 On ch=1 n=c#7 v=0
214440 On ch=1 n=d#6 v=76
214440 On ch=1 n=d#7 v=76
214512 On ch=1 n=d#7 v=0
214512 On ch=1 n=d#6 v=0
214536 Par ch=1 c=64 v=0
214560 Par ch=1 c=64 v=0
214560 On ch=1 n=f6 v=76
214560 On ch=1 n=c#7 v=76
214560 On ch=1 n=f7 v=76
214608 Par ch=1 c=64 v=127
214920 On ch=1 n=f7 v=0
214920 On ch=1 n=c#7 v=0
214920 On ch=1 n=f6 v=0
214920 On ch=1 n=c#7 v=76
214920 On ch=1 n=c#6 v=76
214992 On ch=1 n=c#6 v=0
214992 On ch=1 n=c#7 v=0
215040 On ch=1 n=c#7 v=76
215040 On ch=1 n=c#6 v=76
215184 On ch=1 n=c#6 v=0
215184 On ch=1 n=c#7 v=0
215280 On ch=1 n=c#7 v=76
215280 On ch=1 n=c#6 v=76
215352 On ch=1 n=c#6 v=0
215352 On ch=1 n=c#7 v=0
215400 On ch=1 n=c#7 v=76
215400 On ch=1 n=c#6 v=76
215472 On ch=1 n=c#6 v=0
215472 On ch=1 n=c#7 v=0
215520 On ch=1 n=c#7 v=76
215520 On ch=1 n=c#6 v=76
215592 On ch=1 n=c#6 v=0
215592 On ch=1 n=c#7 v=0
215640 On ch=1 n=c#7 v=76
215640 On ch=1 n=c#6 v=76
215712 On ch=1 n=c#6 v=0
215712 On ch=1 n=c#7 v=0
215760 On ch=1 n=c#7 v=76
215760 On ch=1 n=c#6 v=76
215832 On ch=1 n=c#6 v=0
215832 On ch=1 n=c#7 v=0
215880 On ch=1 n=c#6 v=76
215880 On ch=1 n=c#7 v=76
215952 On ch=1 n=c#7 v=0
215952 On ch=1 n=c#6 v=0
215976 Par ch=1 c=64 v=0
216000 Par ch=1 c=64 v=0
216000 On ch=1 n=c#6 v=76
216000 On ch=1 n=c#7 v=76
216240 On ch=1 n=c#7 v=0
216240 On ch=1 n=c#6 v=0
216240 On ch=1 n=b5 v=76
216240 On ch=1 n=f#6 v=76
216240 On ch=1 n=b6 v=76
216420 On ch=1 n=b6 v=0
216420 On ch=1 n=f#6 v=0
216420 On ch=1 n=b5 v=0
216420 On ch=1 n=b5 v=76
216420 On ch=1 n=f#6 v=76
216420 On ch=1 n=b6 v=76
216480 On ch=1 n=b6 v=0
216480 On ch=1 n=f#6 v=0
216480 On ch=1 n=b5 v=0
216480 On ch=1 n=b5 v=76
216480 On ch=1 n=f#6 v=76
216480 On ch=1 n=b6 v=76
216720 On ch=1 n=b6 v=0
216720 On ch=1 n=f#6 v=0
216720 On ch=1 n=b5 v=0
216720 On ch=1 n=c#6 v=76
216720 On ch=1 n=c#7 v=76
216960 On ch=1 n=c#7 v=0
216960 On ch=1 n=c#6 v=0
216960 On ch=1 n=e6 v=76
216960 On ch=1 n=a6 v=76
216960 On ch=1 n=e7 v=76
217200 On ch=1 n=e7 v=0
217200 On ch=1 n=a6 v=0
217200 On ch=1 n=e6 v=0
217200 On ch=1 n=d6 v=76
217200 On ch=1 n=d7 v=76
217320 On ch=1 n=d7 v=0
217320 On ch=1 n=d6 v=0
217320 On ch=1 n=c#7 v=76
217320 On ch=1 n=c#6 v=76
217440 On ch=1 n=c#6 v=0
217440 On ch=1 n=c#7 v=0
217440 On ch=1 n=b6 v=76
217440 On ch=1 n=b5 v=76
217440 Par ch=1 c=64 v=0
217560 On ch=1 n=b5 v=0
217560 On ch=1 n=b6 v=0
217680 On ch=1 n=b5 v=76
217680 On ch=1 n=e6 v=76
217680 On ch=1 n=b6 v=76
217860 On ch=1 n=b6 v=0
217860 On ch=1 n=e6 v=0
217860 On ch=1 n=b5 v=0
217860 On ch=1 n=c#6 v=76
217860 On ch=1 n=c#7 v=76
217920 On ch=1 n=c#7 v=0
217920 On ch=1 n=c#6 v=0
217920 On ch=1 n=b5 v=76
217920 On ch=1 n=e6 v=76
217920 On ch=1 n=b6 v=76
217944 Par ch=1 c=64 v=127
218400 On ch=1 n=b6 v=0
218400 On ch=1 n=e6 v=0
218400 On ch=1 n=b5 v=0
218400 On ch=1 n=a5 v=76
218400 On ch=1 n=a6 v=76
218640 On ch=1 n=a6 v=0
218640 On ch=1 n=a5 v=0
218640 Par ch=1 c=64 v=0
218640 Meta TrkEnd
TrkEnd
MTrk
0 SeqSpec 43 00 01 00
0 On ch=2 n=a2 v=76
0 On ch=2 n=a3 v=76
48 Par ch=2 c=64 v=127
240 On ch=2 n=a3 v=0
240 On ch=2 n=a2 v=0
360 On ch=2 n=a4 v=76
360 On ch=2 n=e4 v=76
360 On ch=2 n=a3 v=76
438 On ch=2 n=a3 v=0
438 On ch=2 n=e4 v=0
438 On ch=2 n=a4 v=0
480 On ch=2 n=a3 v=76
480 On ch=2 n=e4 v=76
480 On ch=2 n=a4 v=76
720 On ch=2 n=a4 v=0
720 On ch=2 n=e4 v=0
720 On ch=2 n=a3 v=0
840 On ch=2 n=a3 v=76
840 On ch=2 n=e4 v=76
840 On ch=2 n=a4 v=76
936 Par ch=2 c=64 v=0
960 On ch=2 n=a4 v=0
960 On ch=2 n=e4 v=0
960 On ch=2 n=a3 v=0
960 On ch=2 n=b4 v=76
960 On ch=2 n=e4 v=76
960 On ch=2 n=a3 v=76
1032 On ch=2 n=a3 v=0
1032 On ch=2 n=e4 v=0
1032 On ch=2 n=b4 v=0
1080 On ch=2 n=b4 v=76
1080 On ch=2 n=e4 v=76
1080 On ch=2 n=a3 v=76
1152 On ch=2 n=a3 v=0
1152 On ch=2 n=e4 v=0
1152 On ch=2 n=b4 v=0
1200 On ch=2 n=b4 v=76
1200 On ch=2 n=e4 v=76
1200 On ch=2 n=a3 v=76
1272 On ch=2 n=a3 v=0
1272 On ch=2 n=e4 v=0
1272 On ch=2 n=b4 v=0
1320 On ch=2 n=a3 v=76
1320 On ch=2 n=e4 v=76
1320 On ch=2 n=b4 v=76
1392 On ch=2 n=b4 v=0
1392 On ch=2 n=e4 v=0
1392 On ch=2 n=a3 v=0
1440 On ch=2 n=a3 v=76
1440 On ch=2 n=e4 v=76
1440 On ch=2 n=a4 v=76
1488 Par ch=2 c=64 v=127
1800 On ch=2 n=a4 v=0
1800 On ch=2 n=e4 v=0
1800 On ch=2 n=a3 v=0
1800 On ch=2 n=a3 v=76
1800 On ch=2 n=e4 v=76
1800 On ch=2 n=a4 v=76
1920 On ch=2 n=a4 v=0
1920 On ch=2 n=e4 v=0
1920 On ch=2 n=a3 v=0
1920 On ch=2 n=a4 v=76
1920 On ch=2 n=e4 v=76
1920 On ch=2 n=a3 v=76
1920 Par ch=2 c=64 v=0
2064 On ch=2 n=a3 v=0
2064 On ch=2 n=e4 v=0
2064 On ch=2 n=a4 v=0
2160 On ch=2 n=g#3 v=76
2238 On ch=2 n=g#3 v=0
2238 On ch=2 n=a3 v=76
2318 On ch=2 n=a3 v=0
2318 On ch=2 n=b3 v=76
2398 On ch=2 n=b3 v=0
2400 On ch=2 n=a3 v=76
2544 On ch=2 n=a3 v=0
2640 On ch=2 n=e3 v=76
2784 On ch=2 n=e3 v=0
2880 On ch=2 n=a2 v=76
2880 On ch=2 n=a3 v=76
2928 Par ch=2 c=64 v=127
3120 On ch=2 n=a3 v=0
3120 On ch=2 n=a2 v=0
3240 On ch=2 n=a3 v=76
3240 On ch=2 n=e4 v=76
3240 On ch=2 n=a4 v=76
3360 On ch=2 n=a4 v=0
3360 On ch=2 n=e4 v=0
3360 On ch=2 n=a3 v=0
3360 On ch=2 n=a3 v=76
3360 On ch=2 n=e4 v=76
3360 On ch=2 n=a4 v=76
3600 On ch=2 n=a4 v=0
3600 On ch=2 n=e4 v=0
3600 On ch=2 n=a3 v=0
3720 On ch=2 n=a3 v=76
3720 On ch=2 n=e4 v=76
3720 On ch=2 n=a4 v=76
3816 Par ch=2 c=64 v=0
3840 On ch=2 n=a4 v=0
3840 On ch=2 n=e4 v=0
3840 On ch=2 n=a3 v=0
3840 On ch=2 n=a4 v=76
3840 On ch=2 n=e4 v=76
3840 On ch=2 n=a3 v=76
3912 On ch=2 n=a3 v=0
3912 On ch=2 n=e4 v=0
3912 On ch=2 n=a4 v=0
3960 On ch=2 n=a4 v=76
3960 On ch=2 n=e4 v=76
3960 On ch=2 n=a3 v=76
4032 On ch=2 n=a3 v=0
4032 On ch=2 n=e4 v=0
4032 On ch=2 n=a4 v=0
4080 On ch=2 n=a4 v=76
4080 On ch=2 n=e4 v=76
4080 On ch=2 n=a3 v=76
4152 On ch=2 n=a3 v=0
4152 On ch=2 n=e4 v=0
4152 On ch=2 n=a4 v=0
4200 On ch=2 n=a3 v=76
4200 On ch=2 n=e4 v=76
4200 On ch=2 n=b4 v=76
4272 On ch=2 n=b4 v=0
4272 On ch=2 n=e4 v=0
4272 On ch=2 n=a3 v=0
4320 On ch=2 n=a3 v=76
4320 On ch=2 n=d#4 v=76
4320 On ch=2 n=f#4 v=76
4320 On ch=2 n=c5 v=76
4368 Par ch=2 c=64 v=127
4680 On ch=2 n=c5 v=0
4680 On ch=2 n=f#4 v=0
4680 On ch=2 n=d#4 v=0
4680 On ch=2 n=a3 v=0
4680 On ch=2 n=e4 v=76
4680 On ch=2 n=a4 v=76
4680 On ch=2 n=c#5 v=76
4752 Par ch=2 c=64 v=0
4800 On ch=2 n=c#5 v=0
4800 On ch=2 n=a4 v=0
4800 On ch=2 n=e4 v=0
4800 On ch=2 n=e4 v=76
4800 Par ch=2 c=64 v=0
4800 On ch=2 n=a4 v=76
4800 On ch=2 n=c#5 v=76
5040 On ch=2 n=c#5 v=0
5040 On ch=2 n=a4 v=0
5040 On ch=2 n=e4 v=0
5040 On ch=2 n=g#3 v=76
5118 On ch=2 n=g#3 v=0
5118 On ch=2 n=a3 v=76
5198 On ch=2 n=a3 v=0
5198 On ch=2 n=b3 v=76
5278 On ch=2 n=b3 v=0
5280 On ch=2 n=a3 v=76
5424 On ch=2 n=a3 v=0
5520 On ch=2 n=e3 v=76
5664 On ch=2 n=e3 v=0
5760 On ch=2 n=g#3 v=80
5760 On ch=2 n=g#2 v=80
5808 Par ch=2 c=64 v=127
5904 On ch=2 n=g#2 v=0
5904 On ch=2 n=g#3 v=0
6000 On ch=2 n=f4 v=80
6000 On ch=2 n=g#4 v=80
6000 On ch=2 n=c#5 v=80
6000 On ch=2 n=f5 v=80
6078 On ch=2 n=f5 v=0
6078 On ch=2 n=c#5 v=0
6078 On ch=2 n=g#4 v=0
6078 On ch=2 n=f4 v=0
6078 On ch=2 n=f4 v=80
6078 On ch=2 n=g#4 v=80
6078 On ch=2 n=c#5 v=80
6078 On ch=2 n=f5 v=80
6158 On ch=2 n=f5 v=0
6158 On ch=2 n=c#5 v=0
6158 On ch=2 n=g#4 v=0
6158 On ch=2 n=f4 v=0
6158 On ch=2 n=f4 v=81
6158 On ch=2 n=g#4 v=81
6158 On ch=2 n=c#5 v=81
6158 On ch=2 n=f5 v=81
6238 On ch=2 n=f5 v=0
6238 On ch=2 n=c#5 v=0
6238 On ch=2 n=g#4 v=0
6238 On ch=2 n=f4 v=0
6240 On ch=2 n=f4 v=81
6240 On ch=2 n=g#4 v=81
6240 On ch=2 n=c#5 v=81
6240 On ch=2 n=f5 v=81
6480 On ch=2 n=f5 v=0
6480 On ch=2 n=c#5 v=0
6480 On ch=2 n=g#4 v=0
6480 On ch=2 n=f4 v=0
6480 On ch=2 n=f4 v=82
6480 On ch=2 n=g#4 v=82
6480 On ch=2 n=c#5 v=82
6480 On ch=2 n=f5 v=82
6528 Par ch=2 c=64 v=0
6720 On ch=2 n=f5 v=0
6720 On ch=2 n=c#5 v=0
6720 On ch=2 n=g#4 v=0
6720 On ch=2 n=f4 v=0
6720 On ch=2 n=f#4 v=82
6720 On ch=2 n=g#4 v=82
6720 On ch=2 n=c5 v=82
6720 On ch=2 n=d#5 v=82
6744 Par ch=2 c=64 v=127
6960 On ch=2 n=d#5 v=0
6960 On ch=2 n=c5 v=0
6960 On ch=2 n=g#4 v=0
6960 On ch=2 n=f#4 v=0
6960 On ch=2 n=g#3 v=83
6960 On ch=2 n=g#2 v=83
7176 Par ch=2 c=64 v=0
7200 On ch=2 n=g#2 v=0
7200 On ch=2 n=g#3 v=0
7200 On ch=2 n=c#2 v=84
7200 On ch=2 n=c#3 v=84
7248 Par ch=2 c=64 v=127
7560 On ch=2 n=c#3 v=0
7560 On ch=2 n=c#2 v=0
7560 On ch=2 n=c#5 v=85
7560 On ch=2 n=c#4 v=85
7632 On ch=2 n=c#4 v=0
7632 On ch=2 n=c#5 v=0
7680 On ch=2 n=c#5 v=85
7680 On ch=2 n=c#4 v=85
7824 On ch=2 n=c#4 v=0
7824 On ch=2 n=c#5 v=0
7920 On ch=2 n=c#5 v=86
7920 On ch=2 n=c#4 v=86
7992 On ch=2 n=c#4 v=0
7992 On ch=2 n=c#5 v=0
8040 On ch=2 n=c#5 v=86
8040 On ch=2 n=c#4 v=86
8112 On ch=2 n=c#4 v=0
8112 On ch=2 n=c#5 v=0
8160 On ch=2 n=c#5 v=86
8160 On ch=2 n=c#4 v=86
8232 On ch=2 n=c#4 v=0
8232 On ch=2 n=c#5 v=0
8280 On ch=2 n=c#5 v=87
8280 On ch=2 n=c#4 v=87
8352 On ch=2 n=c#4 v=0
8352 On ch=2 n=c#5 v=0
8400 On ch=2 n=c#5 v=87
8400 On ch=2 n=c#4 v=87
8472 On ch=2 n=c#4 v=0
8472 On ch=2 n=c#5 v=0
8520 On ch=2 n=c#4 v=87
8520 On ch=2 n=c#5 v=87
8592 On ch=2 n=c#5 v=0
8592 On ch=2 n=c#4 v=0
8616 Par ch=2 c=64 v=0
8640 On ch=2 n=c#4 v=88
8640 On ch=2 n=c#5 v=88
8880 On ch=2 n=c#5 v=0
8880 On ch=2 n=c#4 v=0
8880 On ch=2 n=d4 v=88
8880 On ch=2 n=f#4 v=88
8880 On ch=2 n=b4 v=88
9060 On ch=2 n=b4 v=0
9060 On ch=2 n=f#4 v=0
9060 On ch=2 n=d4 v=0
9060 On ch=2 n=d4 v=88
9060 On ch=2 n=f#4 v=88
9060 On ch=2 n=b4 v=88
9120 On ch=2 n=b4 v=0
9120 On ch=2 n=f#4 v=0
9120 On ch=2 n=d4 v=0
9120 On ch=2 n=d4 v=88
9120 On ch=2 n=f#4 v=88
9120 On ch=2 n=b4 v=88
9360 On ch=2 n=b4 v=0
9360 On ch=2 n=f#4 v=0
9360 On ch=2 n=d4 v=0
9360 On ch=2 n=e4 v=88
9360 On ch=2 n=g#4 v=88
9360 On ch=2 n=c#5 v=88
9600 On ch=2 n=c#5 v=0
9600 On ch=2 n=g#4 v=0
9600 On ch=2 n=e4 v=0
9600 On ch=2 n=a4 v=88
9600 On ch=2 n=f#4 v=88
9600 On ch=2 n=e5 v=88
9840 On ch=2 n=e5 v=0
9840 On ch=2 n=d5 v=88
10080 On ch=2 n=d5 v=0
10080 On ch=2 n=f#4 v=0
10080 On ch=2 n=a4 v=0
10080 On ch=2 n=e4 v=88
10080 On ch=2 n=g#4 v=88
10080 On ch=2 n=d5 v=88
10320 On ch=2 n=d5 v=0
10320 On ch=2 n=g#4 v=0
10320 On ch=2 n=e4 v=0
10320 On ch=2 n=e4 v=87
10320 On ch=2 n=g#4 v=87
10320 On ch=2 n=d5 v=87
10320 On ch=2 n=e5 v=87
10560 On ch=2 n=e5 v=0
10560 On ch=2 n=d5 v=0
10560 On ch=2 n=g#4 v=0
10560 On ch=2 n=e4 v=0
10560 On ch=2 n=e4 v=85
10560 On ch=2 n=g#4 v=85
10560 On ch=2 n=d5 v=85
10560 On ch=2 n=e5 v=85
10584 Par ch=2 c=64 v=127
11040 On ch=2 n=e5 v=0
11040 On ch=2 n=d5 v=0
11040 On ch=2 n=g#4 v=0
11040 On ch=2 n=e4 v=0
11040 On ch=2 n=a4 v=82
11040 On ch=2 n=c#5 v=82
11040 On ch=2 n=e5 v=82
11280 On ch=2 n=e5 v=0
11280 On ch=2 n=c#5 v=0
11280 On ch=2 n=a4 v=0
11280 Par ch=2 c=64 v=0
11520 On ch=2 n=a2 v=76
11520 On ch=2 n=a3 v=76
11568 Par ch=2 c=64 v=127
11760 On ch=2 n=a3 v=0
11760 On ch=2 n=a2 v=0
11880 On ch=2 n=a3 v=76
11880 On ch=2 n=e4 v=76
11880 On ch=2 n=a4 v=76
12000 On ch=2 n=a4 v=0
12000 On ch=2 n=e4 v=0
12000 On ch=2 n=a3 v=0
12000 On ch=2 n=a3 v=76
12000 On ch=2 n=e4 v=76
12000 On ch=2 n=a4 v=76
12240 On ch=2 n=a4 v=0
12240 On ch=2 n=e4 v=0
12240 On ch=2 n=a3 v=0
12360 On ch=2 n=a3 v=76
12360 On ch=2 n=e4 v=76
12360 On ch=2 n=a4 v=76
12456 Par ch=2 c=64 v=0
12480 On ch=2 n=a4 v=0
12480 On ch=2 n=e4 v=0
12480 On ch=2 n=a3 v=0
12480 On ch=2 n=b4 v=76
12480 On ch=2 n=e4 v=76
12480 On ch=2 n=a3 v=76
12552 On ch=2 n=a3 v=0
12552 On ch=2 n=e4 v=0
12552 On ch=2 n=b4 v=0
12600 On ch=2 n=b4 v=76
12600 On ch=2 n=e4 v=76
12600 On ch=2 n=a3 v=76
12672 On ch=2 n=a3 v=0
12672 On ch=2 n=e4 v=0
12672 On ch=2 n=b4 v=0
12720 On ch=2 n=b4 v=76
12720 On ch=2 n=e4 v=76
12720 On ch=2 n=a3 v=76
12792 On ch=2 n=a3 v=0
12792 On ch=2 n=e4 v=0
12792 On ch=2 n=b4 v=0
12840 On ch=2 n=a3 v=76
12840 On ch=2 n=e4 v=76
12840 On ch=2 n=b4 v=76
12912 On ch=2 n=b4 v=0
12912 On ch=2 n=e4 v=0
12912 On ch=2 n=a3 v=0
12960 On ch=2 n=a3 v=76
12960 On ch=2 n=e4 v=76
12960 On ch=2 n=a4 v=76
13008 Par ch=2 c=64 v=127
13320 On ch=2 n=a4 v=0
13320 On ch=2 n=e4 v=0
13320 On ch=2 n=a3 v=0
13320 On ch=2 n=a3 v=76
13320 On ch=2 n=e4 v=76
13320 On ch=2 n=a4 v=76
13440 On ch=2 n=a4 v=0
13440 On ch=2 n=e4 v=0
13440 On ch=2 n=a3 v=0
13440 On ch=2 n=a4 v=76
13440 On ch=2 n=e4 v=76
13440 On ch=2 n=a3 v=76
13440 Par ch=2 c=64 v=0
13584 On ch=2 n=a3 v=0
13584 On ch=2 n=e4 v=0
13584 On ch=2 n=a4 v=0
13680 On ch=2 n=g#3 v=76
13758 On ch=2 n=g#3 v=0
13758 On ch=2 n=a3 v=76
13838 On ch=2 n=a3 v=0
13838 On ch=2 n=b3 v=76
13918 On ch=2 n=b3 v=0
13920 On ch=2 n=a3 v=76
14064 On ch=2 n=a3 v=0
14160 On ch=2 n=e3 v=76
14304 On ch=2 n=e3 v=0
14400 On ch=2 n=a2 v=76
14400 On ch=2 n=a3 v=76
14448 Par ch=2 c=64 v=127
14640 On ch=2 n=a3 v=0
14640 On ch=2 n=a2 v=0
14760 On ch=2 n=a3 v=76
14760 On ch=2 n=e4 v=76
14760 On ch=2 n=a4 v=76
14880 On ch=2 n=a4 v=0
14880 On ch=2 n=e4 v=0
14880 On ch=2 n=a3 v=0
14880 On ch=2 n=a3 v=76
14880 On ch=2 n=e4 v=76
14880 On ch=2 n=a4 v=76
15120 On ch=2 n=a4 v=0
15120 On ch=2 n=e4 v=0
15120 On ch=2 n=a3 v=0
15240 On ch=2 n=a3 v=76
15240 On ch=2 n=e4 v=76
15240 On ch=2 n=a4 v=76
15336 Par ch=2 c=64 v=0
15360 On ch=2 n=a4 v=0
15360 On ch=2 n=e4 v=0
15360 On ch=2 n=a3 v=0
15360 On ch=2 n=a4 v=76
15360 On ch=2 n=e4 v=76
15360 On ch=2 n=a3 v=76
15432 On ch=2 n=a3 v=0
15432 On ch=2 n=e4 v=0
15432 On ch=2 n=a4 v=0
15480 On ch=2 n=a4 v=76
15480 On ch=2 n=e4 v=76
15480 On ch=2 n=a3 v=76
15552 On ch=2 n=a3 v=0
15552 On ch=2 n=e4 v=0
15552 On ch=2 n=a4 v=0
15600 On ch=2 n=a4 v=76
15600 On ch=2 n=e4 v=76
15600 On ch=2 n=a3 v=76
15672 On ch=2 n=a3 v=0
15672 On ch=2 n=e4 v=0
15672 On ch=2 n=a4 v=0
15720 On ch=2 n=a3 v=76
15720 On ch=2 n=e4 v=76
15720 On ch=2 n=b4 v=76
15792 On ch=2 n=b4 v=0
15792 On ch=2 n=e4 v=0
15792 On ch=2 n=a3 v=0
15840 On ch=2 n=a3 v=76
15840 On ch=2 n=d#4 v=76
15840 On ch=2 n=f#4 v=76
15840 On ch=2 n=c5 v=76
15888 Par ch=2 c=64 v=127
16200 On ch=2 n=c5 v=0
16200 On ch=2 n=f#4 v=0
16200 On ch=2 n=d#4 v=0
16200 On ch=2 n=a3 v=0
16200 On ch=2 n=e4 v=76
16200 On ch=2 n=a4 v=76
16200 On ch=2 n=c#5 v=76
16272 Par ch=2 c=64 v=0
16320 On ch=2 n=c#5 v=0
16320 On ch=2 n=a4 v=0
16320 On ch=2 n=e4 v=0
16320 On ch=2 n=e4 v=76
16320 Par ch=2 c=64 v=0
16320 On ch=2 n=a4 v=76
16320 On ch=2 n=c#5 v=76
16560 On ch=2 n=c#5 v=0
16560 On ch=2 n=a4 v=0
16560 On ch=2 n=e4 v=0
16560 On ch=2 n=g#3 v=76
16638 On ch=2 n=g#3 v=0
16638 On ch=2 n=a3 v=76
16718 On ch=2 n=a3 v=0
16718 On ch=2 n=b3 v=76
16798 On ch=2 n=b3 v=0
16800 On ch=2 n=a3 v=76
16944 On ch=2 n=a3 v=0
17040 On ch=2 n=e3 v=76
17184 On ch=2 n=e3 v=0
17280 On ch=2 n=g#3 v=80
17280 On ch=2 n=g#2 v=80
17328 Par ch=2 c=64 v=127
17424 On ch=2 n=g#2 v=0
17424 On ch=2 n=g#3 v=0
17520 On ch=2 n=f4 v=80
17520 On ch=2 n=g#4 v=80
17520 On ch=2 n=c#5 v=80
17520 On ch=2 n=f5 v=80
17598 On ch=2 n=f5 v=0
17598 On ch=2 n=c#5 v=0
17598 On ch=2 n=g#4 v=0
17598 On ch=2 n=f4 v=0
17598 On ch=2 n=f4 v=80
17598 On ch=2 n=g#4 v=80
17598 On ch=2 n=c#5 v=80
17598 On ch=2 n=f5 v=80
17678 On ch=2 n=f5 v=0
17678 On ch=2 n=c#5 v=0
17678 On ch=2 n=g#4 v=0
17678 On ch=2 n=f4 v=0
17678 On ch=2 n=f4 v=81
17678 On ch=2 n=g#4 v=81
17678 On ch=2 n=c#5 v=81
17678 On ch=2 n=f5 v=81
17758 On ch=2 n=f5 v=0
17758 On ch=2 n=c#5 v=0
17758 On ch=2 n=g#4 v=0
17758 On ch=2 n=f4 v=0
17760 On ch=2 n=f4 v=81
17760 On ch=2 n=g#4 v=81
17760 On ch=2 n=c#5 v=81
17760 On ch=2 n=f5 v=81
18000 On ch=2 n=f5 v=0
18000 On ch=2 n=c#5 v=0
18000 On ch=2 n=g#4 v=0
18000 On ch=2 n=f4 v=0
18000 On ch=2 n=f4 v=82
18000 On ch=2 n=g#4 v=82
18000 On ch=2 n=c#5 v=82
18000 On ch=2 n=f5 v=82
18048 Par ch=2 c=64 v=0
18240 On ch=2 n=f5 v=0
18240 On ch=2 n=c#5 v=0
18240 On ch=2 n=g#4 v=0
18240 On ch=2 n=f4 v=0
18240 On ch=2 n=f#4 v=82
18240 On ch=2 n=g#4 v=82
18240 On ch=2 n=c5 v=82
18240 On ch=2 n=d#5 v=82
18264 Par ch=2 c=64 v=127
18480 On ch=2 n=d#5 v=0
18480 On ch=2 n=c5 v=0
18480 On ch=2 n=g#4 v=0
18480 On ch=2 n=f#4 v=0
18480 On ch=2 n=g#3 v=83
18480 On ch=2 n=g#2 v=83
18696 Par ch=2 c=64 v=0
18720 On ch=2 n=g#2 v=0
18720 On ch=2 n=g#3 v=0
18720 On ch=2 n=c#2 v=84
18720 On ch=2 n=c#3 v=84
18768 Par ch=2 c=64 v=127
19080 On ch=2 n=c#3 v=0
19080 On ch=2 n=c#2 v=0
19080 On ch=2 n=c#5 v=85
19080 On ch=2 n=c#4 v=85
19152 On ch=2 n=c#4 v=0
19152 On ch=2 n=c#5 v=0
19200 On ch=2 n=c#5 v=85
19200 On ch=2 n=c#4 v=85
19344 On ch=2 n=c#4 v=0
19344 On ch=2 n=c#5 v=0
19440 On ch=2 n=c#5 v=86
19440 On ch=2 n=c#4 v=86
19512 On ch=2 n=c#4 v=0
19512 On ch=2 n=c#5 v=0
19560 On ch=2 n=c#5 v=86
19560 On ch=2 n=c#4 v=86
19632 On ch=2 n=c#4 v=0
19632 On ch=2 n=c#5 v=0
19680 On ch=2 n=c#5 v=86
19680 On ch=2 n=c#4 v=86
19752 On ch=2 n=c#4 v=0
19752 On ch=2 n=c#5 v=0
19800 On ch=2 n=c#5 v=87
19800 On ch=2 n=c#4 v=87
19872 On ch=2 n=c#4 v=0
19872 On ch=2 n=c#5 v=0
19920 On ch=2 n=c#5 v=87
19920 On ch=2 n=c#4 v=87
19992 On ch=2 n=c#4 v=0
19992 On ch=2 n=c#5 v=0
20040 On ch=2 n=c#4 v=87
20040 On ch=2 n=c#5 v=87
20112 On ch=2 n=c#5 v=0
20112 On ch=2 n=c#4 v=0
20136 Par ch=2 c=64 v=0
20160 On ch=2 n=c#4 v=88
20160 On ch=2 n=c#5 v=88
20400 On ch=2 n=c#5 v=0
20400 On ch=2 n=c#4 v=0
20400 On ch=2 n=d4 v=88
20400 On ch=2 n=f#4 v=88
20400 On ch=2 n=b4 v=88
20580 On ch=2 n=b4 v=0
20580 On ch=2 n=f#4 v=0
20580 On ch=2 n=d4 v=0
20580 On ch=2 n=d4 v=88
20580 On ch=2 n=f#4 v=88
20580 On ch=2 n=b4 v=88
20640 On ch=2 n=b4 v=0
20640 On ch=2 n=f#4 v=0
20640 On ch=2 n=d4 v=0
20640 On ch=2 n=d4 v=88
20640 On ch=2 n=f#4 v=88
20640 On ch=2 n=b4 v=88
20880 On ch=2 n=b4 v=0
20880 On ch=2 n=f#4 v=0
20880 On ch=2 n=d4 v=0
20880 On ch=2 n=e4 v=88
20880 On ch=2 n=g#4 v=88
20880 On ch=2 n=c#5 v=88
21120 On ch=2 n=c#5 v=0
21120 On ch=2 n=g#4 v=0
21120 On ch=2 n=e4 v=0
21120 On ch=2 n=a4 v=88
21120 On ch=2 n=f#4 v=88
21120 On ch=2 n=e5 v=88
21360 On ch=2 n=e5 v=0
21360 On ch=2 n=d5 v=88
21600 On ch=2 n=d5 v=0
21600 On ch=2 n=f#4 v=0
21600 On ch=2 n=a4 v=0
21600 On ch=2 n=e4 v=88
21600 On ch=2 n=g#4 v=88
21600 On ch=2 n=d5 v=88
21840 On ch=2 n=d5 v=0
21840 On ch=2 n=g#4 v=0
21840 On ch=2 n=e4 v=0
21840 On ch=2 n=e4 v=87
21840 On ch=2 n=g#4 v=87
21840 On ch=2 n=d5 v=87
21840 On ch=2 n=e5 v=87
22080 On ch=2 n=e5 v=0
22080 On ch=2 n=d5 v=0
22080 On ch=2 n=g#4 v=0
22080 On ch=2 n=e4 v=0
22080 On ch=2 n=e4 v=85
22080 On ch=2 n=g#4 v=85
22080 On ch=2 n=d5 v=85
22080 On ch=2 n=e5 v=85
22104 Par ch=2 c=64 v=127
22560 On ch=2 n=e5 v=0
22560 On ch=2 n=d5 v=0
22560 On ch=2 n=g#4 v=0
22560 On ch=2 n=e4 v=0
22560 On ch=2 n=a4 v=82
22560 On ch=2 n=c#5 v=82
22560 On ch=2 n=e5 v=82
22800 On ch=2 n=e5 v=0
22800 On ch=2 n=c#5 v=0
22800 On ch=2 n=a4 v=0
22800 Par ch=2 c=64 v=0
23040 On ch=2 n=b2 v=76
23040 On ch=2 n=b3 v=76
23088 Par ch=2 c=64 v=127
23280 On ch=2 n=b3 v=0
23280 On ch=2 n=b2 v=0
23400 On ch=2 n=b3 v=76
23400 On ch=2 n=b4 v=76
23496 Par ch=2 c=64 v=0
23520 On ch=2 n=b4 v=0
23520 On ch=2 n=b3 v=0
23520 On ch=2 n=b3 v=76
23520 On ch=2 n=b4 v=76
23760 On ch=2 n=b4 v=0
23760 On ch=2 n=b3 v=0
23760 On ch=2 n=a#3 v=76
23838 On ch=2 n=a#3 v=0
23838 On ch=2 n=b3 v=76
23918 On ch=2 n=b3 v=0
23918 On ch=2 n=c#4 v=76
23998 On ch=2 n=c#4 v=0
24000 On ch=2 n=b3 v=76
24240 On ch=2 n=b3 v=0
24240 On ch=2 n=e4 v=76
24240 On ch=2 n=e3 v=76
24480 On ch=2 n=e3 v=0
24480 On ch=2 n=e4 v=0
24480 On ch=2 n=b3 v=76
24480 On ch=2 n=b2 v=76
24528 Par ch=2 c=64 v=127
24684 On ch=2 n=b2 v=0
24684 On ch=2 n=b3 v=0
24720 On ch=2 n=b4 v=76
24720 On ch=2 n=b3 v=76
24786 On ch=2 n=b3 v=0
24786 On ch=2 n=b4 v=0
24798 On ch=2 n=b4 v=76
24798 On ch=2 n=b3 v=76
24866 On ch=2 n=b3 v=0
24866 On ch=2 n=b4 v=0
24878 On ch=2 n=b4 v=76
24878 On ch=2 n=b3 v=76
24946 On ch=2 n=b3 v=0
24946 On ch=2 n=b4 v=0
24960 On ch=2 n=b3 v=76
24960 On ch=2 n=b4 v=76
25104 Par ch=2 c=64 v=0
25200 On ch=2 n=b4 v=0
25200 On ch=2 n=b3 v=0
25200 On ch=2 n=a#3 v=76
25278 On ch=2 n=a#3 v=0
25278 On ch=2 n=b3 v=76
25358 On ch=2 n=b3 v=0
25358 On ch=2 n=c#4 v=76
25438 On ch=2 n=c#4 v=0
25440 On ch=2 n=b3 v=76
25584 On ch=2 n=b3 v=0
25680 On ch=2 n=b3 v=76
25680 On ch=2 n=b2 v=76
25704 Par ch=2 c=64 v=127
25896 Par ch=2 c=64 v=0
25920 On ch=2 n=b2 v=0
25920 On ch=2 n=b3 v=0
25920 Par ch=2 c=64 v=0
25920 On ch=2 n=c#3 v=76
25920 On ch=2 n=c#4 v=76
26160 On ch=2 n=c#4 v=0
26160 On ch=2 n=c#3 v=0
26160 On ch=2 n=c#4 v=76
26160 On ch=2 n=c#3 v=76
26232 On ch=2 n=c#3 v=0
26232 On ch=2 n=c#4 v=0
26280 On ch=2 n=c#4 v=76
26280 On ch=2 n=c#3 v=76
26352 On ch=2 n=c#3 v=0
26352 On ch=2 n=c#4 v=0
26400 On ch=2 n=f#2 v=76
26400 On ch=2 n=f#3 v=76
26640 On ch=2 n=f#3 v=0
26640 On ch=2 n=f#2 v=0
26640 On ch=2 n=g#2 v=76
26640 On ch=2 n=g#3 v=76
26880 On ch=2 n=g#3 v=0
26880 On ch=2 n=g#2 v=0
26880 On ch=2 n=a2 v=76
26880 On ch=2 n=a3 v=76
27120 On ch=2 n=a3 v=0
27120 On ch=2 n=a2 v=0
27120 On ch=2 n=g#3 v=76
27120 On ch=2 n=g#2 v=76
27360 On ch=2 n=g#2 v=0
27360 On ch=2 n=g#3 v=0
27360 On ch=2 n=c#3 v=76
27360 On ch=2 n=c#4 v=76
27600 On ch=2 n=c#4 v=0
27600 On ch=2 n=c#3 v=0
27600 On ch=2 n=d#3 v=76
27600 On ch=2 n=d#4 v=76
27840 On ch=2 n=d#4 v=0
27840 On ch=2 n=d#3 v=0
27840 On ch=2 n=g#3 v=76
27840 On ch=2 n=g#4 v=76
28080 On ch=2 n=g#4 v=0
28080 On ch=2 n=g#3 v=0
28080 On ch=2 n=d#3 v=76
28080 On ch=2 n=d#4 v=76
28104 Par ch=2 c=64 v=127
28200 On ch=2 n=d#4 v=0
28200 On ch=2 n=d#3 v=0
28200 On ch=2 n=d#3 v=76
28200 On ch=2 n=d#4 v=76
28320 On ch=2 n=d#4 v=0
28320 On ch=2 n=d#3 v=0
28320 On ch=2 n=d#3 v=76
28320 On ch=2 n=d#4 v=76
28440 On ch=2 n=d#4 v=0
28440 On ch=2 n=d#3 v=0
28440 On ch=2 n=d#3 v=76
28440 On ch=2 n=d#4 v=76
28560 On ch=2 n=d#4 v=0
28560 On ch=2 n=d#3 v=0
28560 On ch=2 n=d#3 v=76
28560 On ch=2 n=d#4 v=76
28680 On ch=2 n=d#4 v=0
28680 On ch=2 n=d#3 v=0
28680 On ch=2 n=d#4 v=76
28680 On ch=2 n=d#3 v=76
28776 Par ch=2 c=64 v=0
28800 On ch=2 n=d#3 v=0
28800 On ch=2 n=d#4 v=0
28800 On ch=2 n=d#2 v=76
28800 On ch=2 n=d#3 v=76
28848 Par ch=2 c=64 v=127
29040 On ch=2 n=d#3 v=0
29040 On ch=2 n=d#2 v=0
29160 On ch=2 n=g5 v=76
29160 On ch=2 n=d#5 v=76
29160 On ch=2 n=c#5 v=76
29160 On ch=2 n=a#4 v=76
29160 On ch=2 n=g4 v=76
29232 On ch=2 n=g4 v=0
29232 On ch=2 n=a#4 v=0
29232 On ch=2 n=c#5 v=0
29232 On ch=2 n=d#5 v=0
29232 On ch=2 n=g5 v=0
29280 On ch=2 n=g5 v=76
29280 On ch=2 n=d#5 v=76
29280 On ch=2 n=c#5 v=76
29280 On ch=2 n=a#4 v=76
29280 On ch=2 n=g4 v=76
29424 On ch=2 n=g4 v=0
29424 On ch=2 n=a#4 v=0
29424 On ch=2 n=c#5 v=0
29424 On ch=2 n=d#5 v=0
29424 On ch=2 n=g5 v=0
29496 Par ch=2 c=64 v=0
29520 On ch=2 n=d4 v=76
29598 On ch=2 n=d4 v=0
29598 On ch=2 n=d#4 v=76
29678 On ch=2 n=d#4 v=0
29678 On ch=2 n=f4 v=76
29758 On ch=2 n=f4 v=0
29760 On ch=2 n=d#4 v=76
30000 On ch=2 n=d#4 v=0
30000 On ch=2 n=g#3 v=76
30000 On ch=2 n=g#2 v=76
30240 On ch=2 n=g#2 v=0
30240 On ch=2 n=g#3 v=0
30240 On ch=2 n=d#3 v=76
30240 On ch=2 n=d#2 v=76
30288 Par ch=2 c=64 v=127
30444 On ch=2 n=d#2 v=0
30444 On ch=2 n=d#3 v=0
30480 On ch=2 n=d#5 v=76
30480 On ch=2 n=c#5 v=76
30480 On ch=2 n=a#4 v=76
30480 On ch=2 n=g4 v=76
30480 On ch=2 n=g5 v=76
30546 On ch=2 n=g4 v=0
30546 On ch=2 n=a#4 v=0
30546 On ch=2 n=c#5 v=0
30546 On ch=2 n=d#5 v=0
30558 On ch=2 n=g5 v=0
30558 On ch=2 n=d#5 v=76
30558 On ch=2 n=c#5 v=76
30558 On ch=2 n=a#4 v=76
30558 On ch=2 n=g4 v=76
30558 On ch=2 n=g5 v=76
30626 On ch=2 n=g4 v=0
30626 On ch=2 n=a#4 v=0
30626 On ch=2 n=c#5 v=0
30626 On ch=2 n=d#5 v=0
30638 On ch=2 n=g5 v=0
30638 On ch=2 n=d#5 v=76
30638 On ch=2 n=c#5 v=76
30638 On ch=2 n=a#4 v=76
30638 On ch=2 n=g4 v=76
30638 On ch=2 n=g5 v=76
30706 On ch=2 n=g4 v=0
30706 On ch=2 n=a#4 v=0
30706 On ch=2 n=c#5 v=0
30706 On ch=2 n=d#5 v=0
30718 On ch=2 n=g5 v=0
30720 On ch=2 n=g4 v=76
30720 On ch=2 n=a#4 v=76
30720 On ch=2 n=c#5 v=76
30720 On ch=2 n=d#5 v=76
30720 On ch=2 n=g5 v=76
30936 Par ch=2 c=64 v=0
30960 On ch=2 n=g5 v=0
30960 On ch=2 n=d#5 v=0
30960 On ch=2 n=c#5 v=0
30960 On ch=2 n=a#4 v=0
30960 On ch=2 n=g4 v=0
30960 On ch=2 n=d4 v=76
31038 On ch=2 n=d4 v=0
31038 On ch=2 n=d#4 v=76
31118 On ch=2 n=d#4 v=0
31118 On ch=2 n=f4 v=76
31198 On ch=2 n=f4 v=0
31200 On ch=2 n=d#4 v=76
31440 On ch=2 n=d#4 v=0
31440 On ch=2 n=g#2 v=76
31440 On ch=2 n=g#3 v=76
31560 On ch=2 n=g#3 v=0
31560 On ch=2 n=g#2 v=0
31680 On ch=2 n=a3 v=76
31680 On ch=2 n=a2 v=76
31728 Par ch=2 c=64 v=127
31800 On ch=2 n=a2 v=0
31800 On ch=2 n=a3 v=0
31920 On ch=2 n=a4 v=76
31920 On ch=2 n=a3 v=76
31986 On ch=2 n=a3 v=0
31986 On ch=2 n=a4 v=0
31998 On ch=2 n=a4 v=76
31998 On ch=2 n=a3 v=76
32066 On ch=2 n=a3 v=0
32066 On ch=2 n=a4 v=0
32078 On ch=2 n=a4 v=76
32078 On ch=2 n=a3 v=76
32146 On ch=2 n=a3 v=0
32146 On ch=2 n=a4 v=0
32160 On ch=2 n=a3 v=76
32160 On ch=2 n=a4 v=76
32208 Par ch=2 c=64 v=0
32400 On ch=2 n=a4 v=0
32400 On ch=2 n=a3 v=0
32400 On ch=2 n=g#3 v=76
32400 On ch=2 n=g#4 v=76
32640 On ch=2 n=g#4 v=0
32640 On ch=2 n=g#3 v=0
32640 On ch=2 n=f#3 v=76
32640 On ch=2 n=f#4 v=76
32880 On ch=2 n=f#4 v=0
32880 On ch=2 n=f#3 v=0
32880 On ch=2 n=b3 v=76
32880 On ch=2 n=b2 v=76
33120 On ch=2 n=b2 v=0
33120 On ch=2 n=b3 v=0
33120 On ch=2 n=e4 v=76
33120 On ch=2 n=e3 v=76
33136 Par ch=2 c=64 v=0
33324 On ch=2 n=e3 v=0
33324 On ch=2 n=e4 v=0
33360 On ch=2 n=c#4 v=76
33360 On ch=2 n=c#3 v=76
33564 On ch=2 n=c#3 v=0
33564 On ch=2 n=c#4 v=0
33600 On ch=2 n=f#4 v=76
33600 On ch=2 n=f#3 v=76
33804 On ch=2 n=f#3 v=0
33804 On ch=2 n=f#4 v=0
33840 On ch=2 n=b3 v=76
33840 On ch=2 n=b2 v=76
34044 On ch=2 n=b2 v=0
34044 On ch=2 n=b3 v=0
34080 On ch=2 n=e4 v=76
34080 On ch=2 n=e3 v=76
34284 On ch=2 n=e3 v=0
34284 On ch=2 n=e4 v=0
34320 On ch=2 n=e2 v=76
34320 On ch=2 n=e3 v=76
34524 On ch=2 n=e3 v=0
34524 On ch=2 n=e2 v=0
34560 On ch=2 n=a2 v=76
34560 On ch=2 n=a3 v=76
34608 Par ch=2 c=64 v=127
34800 On ch=2 n=a3 v=0
34800 On ch=2 n=a2 v=0
34920 On ch=2 n=a3 v=76
34920 On ch=2 n=e4 v=76
34920 On ch=2 n=a4 v=76
35040 On ch=2 n=a4 v=0
35040 On ch=2 n=e4 v=0
35040 On ch=2 n=a3 v=0
35040 On ch=2 n=a3 v=76
35040 On ch=2 n=e4 v=76
35040 On ch=2 n=a4 v=76
35280 On ch=2 n=a4 v=0
35280 On ch=2 n=e4 v=0
35280 On ch=2 n=a3 v=0
35400 On ch=2 n=a3 v=76
35400 On ch=2 n=e4 v=76
35400 On ch=2 n=a4 v=76
35496 Par ch=2 c=64 v=0
35520 On ch=2 n=a4 v=0
35520 On ch=2 n=e4 v=0
35520 On ch=2 n=a3 v=0
35520 On ch=2 n=b4 v=76
35520 On ch=2 n=e4 v=76
35520 On ch=2 n=a3 v=76
35592 On ch=2 n=a3 v=0
35592 On ch=2 n=e4 v=0
35592 On ch=2 n=b4 v=0
35640 On ch=2 n=b4 v=76
35640 On ch=2 n=e4 v=76
35640 On ch=2 n=a3 v=76
35712 On ch=2 n=a3 v=0
35712 On ch=2 n=e4 v=0
35712 On ch=2 n=b4 v=0
35760 On ch=2 n=b4 v=76
35760 On ch=2 n=e4 v=76
35760 On ch=2 n=a3 v=76
35832 On ch=2 n=a3 v=0
35832 On ch=2 n=e4 v=0
35832 On ch=2 n=b4 v=0
35880 On ch=2 n=a3 v=76
35880 On ch=2 n=e4 v=76
35880 On ch=2 n=b4 v=76
35952 On ch=2 n=b4 v=0
35952 On ch=2 n=e4 v=0
35952 On ch=2 n=a3 v=0
36000 On ch=2 n=a3 v=76
36000 On ch=2 n=e4 v=76
36000 On ch=2 n=a4 v=76
36048 Par ch=2 c=64 v=127
36360 On ch=2 n=a4 v=0
36360 On ch=2 n=e4 v=0
36360 On ch=2 n=a3 v=0
36360 On ch=2 n=a3 v=76
36360 On ch=2 n=e4 v=76
36360 On ch=2 n=a4 v=76
36480 On ch=2 n=a4 v=0
36480 On ch=2 n=e4 v=0
36480 On ch=2 n=a3 v=0
36480 On ch=2 n=a4 v=76
36480 On ch=2 n=e4 v=76
36480 On ch=2 n=a3 v=76
36480 Par ch=2 c=64 v=0
36624 On ch=2 n=a3 v=0
36624 On ch=2 n=e4 v=0
36624 On ch=2 n=a4 v=0
36720 On ch=2 n=g#3 v=76
36798 On ch=2 n=g#3 v=0
36798 On ch=2 n=a3 v=76
36878 On ch=2 n=a3 v=0
36878 On ch=2 n=b3 v=76
36958 On ch=2 n=b3 v=0
36960 On ch=2 n=a3 v=76
37104 On ch=2 n=a3 v=0
37200 On ch=2 n=e3 v=76
37344 On ch=2 n=e3 v=0
37440 On ch=2 n=a2 v=76
37440 On ch=2 n=a3 v=76
37488 Par ch=2 c=64 v=127
37680 On ch=2 n=a3 v=0
37680 On ch=2 n=a2 v=0
37800 On ch=2 n=a3 v=76
37800 On ch=2 n=e4 v=76
37800 On ch=2 n=a4 v=76
37920 On ch=2 n=a4 v=0
37920 On ch=2 n=e4 v=0
37920 On ch=2 n=a3 v=0
37920 On ch=2 n=a3 v=76
37920 On ch=2 n=e4 v=76
37920 On ch=2 n=a4 v=76
38160 On ch=2 n=a4 v=0
38160 On ch=2 n=e4 v=0
38160 On ch=2 n=a3 v=0
38280 On ch=2 n=a3 v=76
38280 On ch=2 n=e4 v=76
38280 On ch=2 n=a4 v=76
38376 Par ch=2 c=64 v=0
38400 On ch=2 n=a4 v=0
38400 On ch=2 n=e4 v=0
38400 On ch=2 n=a3 v=0
38400 On ch=2 n=a4 v=76
38400 On ch=2 n=e4 v=76
38400 On ch=2 n=a3 v=76
38472 On ch=2 n=a3 v=0
38472 On ch=2 n=e4 v=0
38472 On ch=2 n=a4 v=0
38520 On ch=2 n=a4 v=76
38520 On ch=2 n=e4 v=76
38520 On ch=2 n=a3 v=76
38592 On ch=2 n=a3 v=0
38592 On ch=2 n=e4 v=0
38592 On ch=2 n=a4 v=0
38640 On ch=2 n=a4 v=76
38640 On ch=2 n=e4 v=76
38640 On ch=2 n=a3 v=76
38712 On ch=2 n=a3 v=0
38712 On ch=2 n=e4 v=0
38712 On ch=2 n=a4 v=0
38760 On ch=2 n=a3 v=76
38760 On ch=2 n=e4 v=76
38760 On ch=2 n=b4 v=76
38832 On ch=2 n=b4 v=0
38832 On ch=2 n=e4 v=0
38832 On ch=2 n=a3 v=0
38880 On ch=2 n=a3 v=76
38880 On ch=2 n=d#4 v=76
38880 On ch=2 n=f#4 v=76
38880 On ch=2 n=c5 v=76
38928 Par ch=2 c=64 v=127
39240 On ch=2 n=c5 v=0
39240 On ch=2 n=f#4 v=0
39240 On ch=2 n=d#4 v=0
39240 On ch=2 n=a3 v=0
39240 On ch=2 n=e4 v=76
39240 On ch=2 n=a4 v=76
39240 On ch=2 n=c#5 v=76
39312 Par ch=2 c=64 v=0
39360 On ch=2 n=c#5 v=0
39360 On ch=2 n=a4 v=0
39360 On ch=2 n=e4 v=0
39360 On ch=2 n=e4 v=76
39360 Par ch=2 c=64 v=0
39360 On ch=2 n=a4 v=76
39360 On ch=2 n=c#5 v=76
39600 On ch=2 n=c#5 v=0
39600 On ch=2 n=a4 v=0
39600 On ch=2 n=e4 v=0
39600 On ch=2 n=g#3 v=76
39678 On ch=2 n=g#3 v=0
39678 On ch=2 n=a3 v=76
39758 On ch=2 n=a3 v=0
39758 On ch=2 n=b3 v=76
39838 On ch=2 n=b3 v=0
39840 On ch=2 n=a3 v=76
39984 On ch=2 n=a3 v=0
40080 On ch=2 n=e3 v=76
40224 On ch=2 n=e3 v=0
40320 On ch=2 n=g#3 v=76
40320 On ch=2 n=g#2 v=76
40368 Par ch=2 c=64 v=127
40464 On ch=2 n=g#2 v=0
40464 On ch=2 n=g#3 v=0
40560 On ch=2 n=f4 v=76
40560 On ch=2 n=g#4 v=76
40560 On ch=2 n=c#5 v=76
40560 On ch=2 n=f5 v=76
40638 On ch=2 n=f5 v=0
40638 On ch=2 n=c#5 v=0
40638 On ch=2 n=g#4 v=0
40638 On ch=2 n=f4 v=0
40638 On ch=2 n=f4 v=76
40638 On ch=2 n=g#4 v=76
40638 On ch=2 n=c#5 v=76
40638 On ch=2 n=f5 v=76
40718 On ch=2 n=f5 v=0
40718 On ch=2 n=c#5 v=0
40718 On ch=2 n=g#4 v=0
40718 On ch=2 n=f4 v=0
40718 On ch=2 n=f4 v=76
40718 On ch=2 n=g#4 v=76
40718 On ch=2 n=c#5 v=76
40718 On ch=2 n=f5 v=76
40798 On ch=2 n=f5 v=0
40798 On ch=2 n=c#5 v=0
40798 On ch=2 n=g#4 v=0
40798 On ch=2 n=f4 v=0
40800 On ch=2 n=f4 v=76
40800 On ch=2 n=g#4 v=76
40800 On ch=2 n=c#5 v=76
40800 On ch=2 n=f5 v=76
41040 On ch=2 n=f5 v=0
41040 On ch=2 n=c#5 v=0
41040 On ch=2 n=g#4 v=0
41040 On ch=2 n=f4 v=0
41040 On ch=2 n=f4 v=76
41040 On ch=2 n=g#4 v=76
41040 On ch=2 n=c#5 v=76
41040 On ch=2 n=f5 v=76
41088 Par ch=2 c=64 v=0
41280 On ch=2 n=f5 v=0
41280 On ch=2 n=c#5 v=0
41280 On ch=2 n=g#4 v=0
41280 On ch=2 n=f4 v=0
41280 On ch=2 n=f#4 v=76
41280 On ch=2 n=g#4 v=76
41280 On ch=2 n=c5 v=76
41280 On ch=2 n=d#5 v=76
41304 Par ch=2 c=64 v=127
41520 On ch=2 n=d#5 v=0
41520 On ch=2 n=c5 v=0
41520 On ch=2 n=g#4 v=0
41520 On ch=2 n=f#4 v=0
41520 On ch=2 n=g#3 v=76
41520 On ch=2 n=g#2 v=76
41736 Par ch=2 c=64 v=0
41760 On ch=2 n=g#2 v=0
41760 On ch=2 n=g#3 v=0
41760 On ch=2 n=c#2 v=76
41760 On ch=2 n=c#3 v=76
41808 Par ch=2 c=64 v=127
42120 On ch=2 n=c#3 v=0
42120 On ch=2 n=c#2 v=0
42120 On ch=2 n=c#5 v=76
42120 On ch=2 n=c#4 v=76
42192 On ch=2 n=c#4 v=0
42192 On ch=2 n=c#5 v=0
42240 On ch=2 n=c#5 v=76
42240 On ch=2 n=c#4 v=76
42384 On ch=2 n=c#4 v=0
42384 On ch=2 n=c#5 v=0
42480 On ch=2 n=c#5 v=76
42480 On ch=2 n=c#4 v=76
42552 On ch=2 n=c#4 v=0
42552 On ch=2 n=c#5 v=0
42600 On ch=2 n=c#5 v=76
42600 On ch=2 n=c#4 v=76
42672 On ch=2 n=c#4 v=0
42672 On ch=2 n=c#5 v=0
42720 On ch=2 n=c#5 v=76
42720 On ch=2 n=c#4 v=76
42792 On ch=2 n=c#4 v=0
42792 On ch=2 n=c#5 v=0
42840 On ch=2 n=c#5 v=76
42840 On ch=2 n=c#4 v=76
42912 On ch=2 n=c#4 v=0
42912 On ch=2 n=c#5 v=0
42960 On ch=2 n=c#5 v=76
42960 On ch=2 n=c#4 v=76
43032 On ch=2 n=c#4 v=0
43032 On ch=2 n=c#5 v=0
43080 On ch=2 n=c#4 v=76
43080 On ch=2 n=c#5 v=76
43152 On ch=2 n=c#5 v=0
43152 On ch=2 n=c#4 v=0
43176 Par ch=2 c=64 v=0
43200 On ch=2 n=c#4 v=76
43200 On ch=2 n=c#5 v=76
43440 On ch=2 n=c#5 v=0
43440 On ch=2 n=c#4 v=0
43440 On ch=2 n=d4 v=76
43440 On ch=2 n=f#4 v=76
43440 On ch=2 n=b4 v=76
43620 On ch=2 n=b4 v=0
43620 On ch=2 n=f#4 v=0
43620 On ch=2 n=d4 v=0
43620 On ch=2 n=d4 v=76
43620 On ch=2 n=f#4 v=76
43620 On ch=2 n=b4 v=76
43680 On ch=2 n=b4 v=0
43680 On ch=2 n=f#4 v=0
43680 On ch=2 n=d4 v=0
43680 On ch=2 n=d4 v=76
43680 On ch=2 n=f#4 v=76
43680 On ch=2 n=b4 v=76
43920 On ch=2 n=b4 v=0
43920 On ch=2 n=f#4 v=0
43920 On ch=2 n=d4 v=0
43920 On ch=2 n=e4 v=76
43920 On ch=2 n=g#4 v=76
43920 On ch=2 n=c#5 v=76
44160 On ch=2 n=c#5 v=0
44160 On ch=2 n=g#4 v=0
44160 On ch=2 n=e4 v=0
44160 On ch=2 n=a4 v=76
44160 On ch=2 n=f#4 v=76
44160 On ch=2 n=e5 v=76
44400 On ch=2 n=e5 v=0
44400 On ch=2 n=d5 v=76
44640 On ch=2 n=d5 v=0
44640 On ch=2 n=f#4 v=0
44640 On ch=2 n=a4 v=0
44640 On ch=2 n=d5 v=76
44640 On ch=2 n=g#4 v=76
44640 On ch=2 n=e4 v=76
44760 On ch=2 n=e4 v=0
44760 On ch=2 n=g#4 v=0
44760 On ch=2 n=d5 v=0
44880 On ch=2 n=e4 v=76
44880 On ch=2 n=g#4 v=76
44880 On ch=2 n=d5 v=76
44880 On ch=2 n=e5 v=76
45120 On ch=2 n=e5 v=0
45120 On ch=2 n=d5 v=0
45120 On ch=2 n=g#4 v=0
45120 On ch=2 n=e4 v=0
45120 On ch=2 n=e4 v=76
45120 On ch=2 n=g#4 v=76
45120 On ch=2 n=d5 v=76
45120 On ch=2 n=e5 v=76
45144 Par ch=2 c=64 v=127
45600 On ch=2 n=e5 v=0
45600 On ch=2 n=d5 v=0
45600 On ch=2 n=g#4 v=0
45600 On ch=2 n=e4 v=0
45600 On ch=2 n=a4 v=76
45600 On ch=2 n=c#5 v=76
45600 On ch=2 n=e5 v=76
45840 On ch=2 n=e5 v=0
45840 On ch=2 n=c#5 v=0
45840 On ch=2 n=a4 v=0
45840 Par ch=2 c=64 v=0
46080 On ch=2 n=b2 v=76
46080 On ch=2 n=b3 v=76
46128 Par ch=2 c=64 v=127
46320 On ch=2 n=b3 v=0
46320 On ch=2 n=b2 v=0
46440 On ch=2 n=b3 v=76
46440 On ch=2 n=b4 v=76
46536 Par ch=2 c=64 v=0
46560 On ch=2 n=b4 v=0
46560 On ch=2 n=b3 v=0
46560 On ch=2 n=b3 v=76
46560 On ch=2 n=b4 v=76
46800 On ch=2 n=b4 v=0
46800 On ch=2 n=b3 v=0
46800 On ch=2 n=a#3 v=76
46878 On ch=2 n=a#3 v=0
46878 On ch=2 n=b3 v=76
46958 On ch=2 n=b3 v=0
46958 On ch=2 n=c#4 v=76
47038 On ch=2 n=c#4 v=0
47040 On ch=2 n=b3 v=76
47280 On ch=2 n=b3 v=0
47280 On ch=2 n=e4 v=76
47280 On ch=2 n=e3 v=76
47520 On ch=2 n=e3 v=0
47520 On ch=2 n=e4 v=0
47520 On ch=2 n=b3 v=76
47520 On ch=2 n=b2 v=76
47568 Par ch=2 c=64 v=127
47724 On ch=2 n=b2 v=0
47724 On ch=2 n=b3 v=0
47760 On ch=2 n=b4 v=76
47760 On ch=2 n=b3 v=76
47826 On ch=2 n=b3 v=0
47826 On ch=2 n=b4 v=0
47838 On ch=2 n=b4 v=76
47838 On ch=2 n=b3 v=76
47906 On ch=2 n=b3 v=0
47906 On ch=2 n=b4 v=0
47918 On ch=2 n=b4 v=76
47918 On ch=2 n=b3 v=76
47986 On ch=2 n=b3 v=0
47986 On ch=2 n=b4 v=0
48000 On ch=2 n=b3 v=76
48000 On ch=2 n=b4 v=76
48144 Par ch=2 c=64 v=0
48240 On ch=2 n=b4 v=0
48240 On ch=2 n=b3 v=0
48240 On ch=2 n=a#3 v=76
48318 On ch=2 n=a#3 v=0
48318 On ch=2 n=b3 v=76
48398 On ch=2 n=b3 v=0
48398 On ch=2 n=c#4 v=76
48478 On ch=2 n=c#4 v=0
48480 On ch=2 n=b3 v=76
48624 On ch=2 n=b3 v=0
48720 On ch=2 n=b3 v=76
48720 On ch=2 n=b2 v=76
48744 Par ch=2 c=64 v=127
48936 Par ch=2 c=64 v=0
48960 On ch=2 n=b2 v=0
48960 On ch=2 n=b3 v=0
48960 Par ch=2 c=64 v=0
48960 On ch=2 n=c#3 v=76
48960 On ch=2 n=c#4 v=76
49200 On ch=2 n=c#4 v=0
49200 On ch=2 n=c#3 v=0
49200 On ch=2 n=c#4 v=76
49200 On ch=2 n=c#3 v=76
49272 On ch=2 n=c#3 v=0
49272 On ch=2 n=c#4 v=0
49320 On ch=2 n=c#4 v=76
49320 On ch=2 n=c#3 v=76
49392 On ch=2 n=c#3 v=0
49392 On ch=2 n=c#4 v=0
49440 On ch=2 n=f#2 v=76
49440 On ch=2 n=f#3 v=76
49680 On ch=2 n=f#3 v=0
49680 On ch=2 n=f#2 v=0
49680 On ch=2 n=g#2 v=76
49680 On ch=2 n=g#3 v=76
49920 On ch=2 n=g#3 v=0
49920 On ch=2 n=g#2 v=0
49920 On ch=2 n=a2 v=76
49920 On ch=2 n=a3 v=76
50160 On ch=2 n=a3 v=0
50160 On ch=2 n=a2 v=0
50160 On ch=2 n=g#3 v=76
50160 On ch=2 n=g#2 v=76
50400 On ch=2 n=g#2 v=0
50400 On ch=2 n=g#3 v=0
50400 On ch=2 n=c#3 v=76
50400 On ch=2 n=c#4 v=76
50640 On ch=2 n=c#4 v=0
50640 On ch=2 n=c#3 v=0
50640 On ch=2 n=d#3 v=76
50640 On ch=2 n=d#4 v=76
50880 On ch=2 n=d#4 v=0
50880 On ch=2 n=d#3 v=0
50880 On ch=2 n=g#3 v=76
50880 On ch=2 n=g#4 v=76
51120 On ch=2 n=g#4 v=0
51120 On ch=2 n=g#3 v=0
51120 On ch=2 n=d#3 v=76
51120 On ch=2 n=d#4 v=76
51144 Par ch=2 c=64 v=127
51240 On ch=2 n=d#4 v=0
51240 On ch=2 n=d#3 v=0
51240 On ch=2 n=d#3 v=76
51240 On ch=2 n=d#4 v=76
51360 On ch=2 n=d#4 v=0
51360 On ch=2 n=d#3 v=0
51360 On ch=2 n=d#3 v=76
51360 On ch=2 n=d#4 v=76
51480 On ch=2 n=d#4 v=0
51480 On ch=2 n=d#3 v=0
51480 On ch=2 n=d#3 v=76
51480 On ch=2 n=d#4 v=76
51600 On ch=2 n=d#4 v=0
51600 On ch=2 n=d#3 v=0
51600 On ch=2 n=d#3 v=76
51600 On ch=2 n=d#4 v=76
51720 On ch=2 n=d#4 v=0
51720 On ch=2 n=d#3 v=0
51720 On ch=2 n=d#4 v=76
51720 On ch=2 n=d#3 v=76
51816 Par ch=2 c=64 v=0
51840 On ch=2 n=d#3 v=0
51840 On ch=2 n=d#4 v=0
51840 On ch=2 n=d#2 v=76
51840 On ch=2 n=d#3 v=76
51888 Par ch=2 c=64 v=127
52080 On ch=2 n=d#3 v=0
52080 On ch=2 n=d#2 v=0
52200 On ch=2 n=g5 v=76
52200 On ch=2 n=d#5 v=76
52200 On ch=2 n=c#5 v=76
52200 On ch=2 n=a#4 v=76
52200 On ch=2 n=g4 v=76
52272 On ch=2 n=g4 v=0
52272 On ch=2 n=a#4 v=0
52272 On ch=2 n=c#5 v=0
52272 On ch=2 n=d#5 v=0
52272 On ch=2 n=g5 v=0
52320 On ch=2 n=g5 v=76
52320 On ch=2 n=d#5 v=76
52320 On ch=2 n=c#5 v=76
52320 On ch=2 n=a#4 v=76
52320 On ch=2 n=g4 v=76
52464 On ch=2 n=g4 v=0
52464 On ch=2 n=a#4 v=0
52464 On ch=2 n=c#5 v=0
52464 On ch=2 n=d#5 v=0
52464 On ch=2 n=g5 v=0
52536 Par ch=2 c=64 v=0
52560 On ch=2 n=d4 v=76
52638 On ch=2 n=d4 v=0
52638 On ch=2 n=d#4 v=76
52718 On ch=2 n=d#4 v=0
52718 On ch=2 n=f4 v=76
52798 On ch=2 n=f4 v=0
52800 On ch=2 n=d#4 v=76
53040 On ch=2 n=d#4 v=0
53040 On ch=2 n=g#3 v=76
53040 On ch=2 n=g#2 v=76
53280 On ch=2 n=g#2 v=0
53280 On ch=2 n=g#3 v=0
53280 On ch=2 n=d#3 v=76
53280 On ch=2 n=d#2 v=76
53328 Par ch=2 c=64 v=127
53484 On ch=2 n=d#2 v=0
53484 On ch=2 n=d#3 v=0
53520 On ch=2 n=d#5 v=76
53520 On ch=2 n=c#5 v=76
53520 On ch=2 n=a#4 v=76
53520 On ch=2 n=g4 v=76
53520 On ch=2 n=g5 v=76
53586 On ch=2 n=g4 v=0
53586 On ch=2 n=a#4 v=0
53586 On ch=2 n=c#5 v=0
53586 On ch=2 n=d#5 v=0
53598 On ch=2 n=g5 v=0
53598 On ch=2 n=d#5 v=76
53598 On ch=2 n=c#5 v=76
53598 On ch=2 n=a#4 v=76
53598 On ch=2 n=g4 v=76
53598 On ch=2 n=g5 v=76
53666 On ch=2 n=g4 v=0
53666 On ch=2 n=a#4 v=0
53666 On ch=2 n=c#5 v=0
53666 On ch=2 n=d#5 v=0
53678 On ch=2 n=g5 v=0
53678 On ch=2 n=d#5 v=76
53678 On ch=2 n=c#5 v=76
53678 On ch=2 n=a#4 v=76
53678 On ch=2 n=g4 v=76
53678 On ch=2 n=g5 v=76
53746 On ch=2 n=g4 v=0
53746 On ch=2 n=a#4 v=0
53746 On ch=2 n=c#5 v=0
53746 On ch=2 n=d#5 v=0
53758 On ch=2 n=g5 v=0
53760 On ch=2 n=g4 v=76
53760 On ch=2 n=a#4 v=76
53760 On ch=2 n=c#5 v=76
53760 On ch=2 n=d#5 v=76
53760 On ch=2 n=g5 v=76
53976 Par ch=2 c=64 v=0
54000 On ch=2 n=g5 v=0
54000 On ch=2 n=d#5 v=0
54000 On ch=2 n=c#5 v=0
54000 On ch=2 n=a#4 v=0
54000 On ch=2 n=g4 v=0
54000 On ch=2 n=d4 v=76
54078 On ch=2 n=d4 v=0
54078 On ch=2 n=d#4 v=76
54158 On ch=2 n=d#4 v=0
54158 On ch=2 n=f4 v=76
54238 On ch=2 n=f4 v=0
54240 On ch=2 n=d#4 v=76
54480 On ch=2 n=d#4 v=0
54480 On ch=2 n=g#2 v=76
54480 On ch=2 n=g#3 v=76
54600 On ch=2 n=g#3 v=0
54600 On ch=2 n=g#2 v=0
54720 On ch=2 n=a3 v=76
54720 On ch=2 n=a2 v=76
54768 Par ch=2 c=64 v=127
54840 On ch=2 n=a2 v=0
54840 On ch=2 n=a3 v=0
54960 On ch=2 n=a4 v=76
54960 On ch=2 n=a3 v=76
55026 On ch=2 n=a3 v=0
55026 On ch=2 n=a4 v=0
55038 On ch=2 n=a4 v=76
55038 On ch=2 n=a3 v=76
55106 On ch=2 n=a3 v=0
55106 On ch=2 n=a4 v=0
55118 On ch=2 n=a4 v=76
55118 On ch=2 n=a3 v=76
55186 On ch=2 n=a3 v=0
55186 On ch=2 n=a4 v=0
55200 On ch=2 n=a3 v=76
55200 On ch=2 n=a4 v=76
55248 Par ch=2 c=64 v=0
55440 On ch=2 n=a4 v=0
55440 On ch=2 n=a3 v=0
55440 On ch=2 n=g#3 v=76
55440 On ch=2 n=g#4 v=76
55680 On ch=2 n=g#4 v=0
55680 On ch=2 n=g#3 v=0
55680 On ch=2 n=f#3 v=76
55680 On ch=2 n=f#4 v=76
55920 On ch=2 n=f#4 v=0
55920 On ch=2 n=f#3 v=0
55920 On ch=2 n=b3 v=76
55920 On ch=2 n=b2 v=76
56160 On ch=2 n=b2 v=0
56160 On ch=2 n=b3 v=0
56160 On ch=2 n=e4 v=76
56160 On ch=2 n=e3 v=76
56176 Par ch=2 c=64 v=0
56364 On ch=2 n=e3 v=0
56364 On ch=2 n=e4 v=0
56400 On ch=2 n=c#4 v=76
56400 On ch=2 n=c#3 v=76
56604 On ch=2 n=c#3 v=0
56604 On ch=2 n=c#4 v=0
56640 On ch=2 n=f#4 v=76
56640 On ch=2 n=f#3 v=76
56844 On ch=2 n=f#3 v=0
56844 On ch=2 n=f#4 v=0
56880 On ch=2 n=b3 v=76
56880 On ch=2 n=b2 v=76
57084 On ch=2 n=b2 v=0
57084 On ch=2 n=b3 v=0
57120 On ch=2 n=e4 v=76
57120 On ch=2 n=e3 v=76
57324 On ch=2 n=e3 v=0
57324 On ch=2 n=e4 v=0
57360 On ch=2 n=e2 v=76
57360 On ch=2 n=e3 v=76
57564 On ch=2 n=e3 v=0
57564 On ch=2 n=e2 v=0
57600 On ch=2 n=a2 v=76
57600 On ch=2 n=a3 v=76
57648 Par ch=2 c=64 v=127
57840 On ch=2 n=a3 v=0
57840 On ch=2 n=a2 v=0
57960 On ch=2 n=a3 v=76
57960 On ch=2 n=e4 v=76
57960 On ch=2 n=a4 v=76
58080 On ch=2 n=a4 v=0
58080 On ch=2 n=e4 v=0
58080 On ch=2 n=a3 v=0
58080 On ch=2 n=a3 v=76
58080 On ch=2 n=e4 v=76
58080 On ch=2 n=a4 v=76
58320 On ch=2 n=a4 v=0
58320 On ch=2 n=e4 v=0
58320 On ch=2 n=a3 v=0
58440 On ch=2 n=a3 v=76
58440 On ch=2 n=e4 v=76
58440 On ch=2 n=a4 v=76
58536 Par ch=2 c=64 v=0
58560 On ch=2 n=a4 v=0
58560 On ch=2 n=e4 v=0
58560 On ch=2 n=a3 v=0
58560 On ch=2 n=b4 v=76
58560 On ch=2 n=e4 v=76
58560 On ch=2 n=a3 v=76
58632 On ch=2 n=a3 v=0
58632 On ch=2 n=e4 v=0
58632 On ch=2 n=b4 v=0
58680 On ch=2 n=b4 v=76
58680 On ch=2 n=e4 v=76
58680 On ch=2 n=a3 v=76
58752 On ch=2 n=a3 v=0
58752 On ch=2 n=e4 v=0
58752 On ch=2 n=b4 v=0
58800 On ch=2 n=b4 v=76
58800 On ch=2 n=e4 v=76
58800 On ch=2 n=a3 v=76
58872 On ch=2 n=a3 v=0
58872 On ch=2 n=e4 v=0
58872 On ch=2 n=b4 v=0
58920 On ch=2 n=a3 v=76
58920 On ch=2 n=e4 v=76
58920 On ch=2 n=b4 v=76
58992 On ch=2 n=b4 v=0
58992 On ch=2 n=e4 v=0
58992 On ch=2 n=a3 v=0
59040 On ch=2 n=a3 v=76
59040 On ch=2 n=e4 v=76
59040 On ch=2 n=a4 v=76
59088 Par ch=2 c=64 v=127
59400 On ch=2 n=a4 v=0
59400 On ch=2 n=e4 v=0
59400 On ch=2 n=a3 v=0
59400 On ch=2 n=a3 v=76
59400 On ch=2 n=e4 v=76
59400 On ch=2 n=a4 v=76
59520 On ch=2 n=a4 v=0
59520 On ch=2 n=e4 v=0
59520 On ch=2 n=a3 v=0
59520 On ch=2 n=a4 v=76
59520 On ch=2 n=e4 v=76
59520 On ch=2 n=a3 v=76
59520 Par ch=2 c=64 v=0
59664 On ch=2 n=a3 v=0
59664 On ch=2 n=e4 v=0
59664 On ch=2 n=a4 v=0
59760 On ch=2 n=g#3 v=76
59838 On ch=2 n=g#3 v=0
59838 On ch=2 n=a3 v=76
59918 On ch=2 n=a3 v=0
59918 On ch=2 n=b3 v=76
59998 On ch=2 n=b3 v=0
60000 On ch=2 n=a3 v=76
60144 On ch=2 n=a3 v=0
60240 On ch=2 n=e3 v=76
60384 On ch=2 n=e3 v=0
60480 On ch=2 n=a2 v=76
60480 On ch=2 n=a3 v=76
60528 Par ch=2 c=64 v=127
60720 On ch=2 n=a3 v=0
60720 On ch=2 n=a2 v=0
60840 On ch=2 n=a3 v=76
60840 On ch=2 n=e4 v=76
60840 On ch=2 n=a4 v=76
60960 On ch=2 n=a4 v=0
60960 On ch=2 n=e4 v=0
60960 On ch=2 n=a3 v=0
60960 On ch=2 n=a3 v=76
60960 On ch=2 n=e4 v=76
60960 On ch=2 n=a4 v=76
61200 On ch=2 n=a4 v=0
61200 On ch=2 n=e4 v=0
61200 On ch=2 n=a3 v=0
61320 On ch=2 n=a3 v=76
61320 On ch=2 n=e4 v=76
61320 On ch=2 n=a4 v=76
61416 Par ch=2 c=64 v=0
61440 On ch=2 n=a4 v=0
61440 On ch=2 n=e4 v=0
61440 On ch=2 n=a3 v=0
61440 On ch=2 n=a4 v=76
61440 On ch=2 n=e4 v=76
61440 On ch=2 n=a3 v=76
61512 On ch=2 n=a3 v=0
61512 On ch=2 n=e4 v=0
61512 On ch=2 n=a4 v=0
61560 On ch=2 n=a4 v=76
61560 On ch=2 n=e4 v=76
61560 On ch=2 n=a3 v=76
61632 On ch=2 n=a3 v=0
61632 On ch=2 n=e4 v=0
61632 On ch=2 n=a4 v=0
61680 On ch=2 n=a4 v=76
61680 On ch=2 n=e4 v=76
61680 On ch=2 n=a3 v=76
61752 On ch=2 n=a3 v=0
61752 On ch=2 n=e4 v=0
61752 On ch=2 n=a4 v=0
61800 On ch=2 n=a3 v=76
61800 On ch=2 n=e4 v=76
61800 On ch=2 n=b4 v=76
61872 On ch=2 n=b4 v=0
61872 On ch=2 n=e4 v=0
61872 On ch=2 n=a3 v=0
61920 On ch=2 n=a3 v=76
61920 On ch=2 n=d#4 v=76
61920 On ch=2 n=f#4 v=76
61920 On ch=2 n=c5 v=76
61968 Par ch=2 c=64 v=127
62280 On ch=2 n=c5 v=0
62280 On ch=2 n=f#4 v=0
62280 On ch=2 n=d#4 v=0
62280 On ch=2 n=a3 v=0
62280 On ch=2 n=e4 v=76
62280 On ch=2 n=a4 v=76
62280 On ch=2 n=c#5 v=76
62352 Par ch=2 c=64 v=0
62400 On ch=2 n=c#5 v=0
62400 On ch=2 n=a4 v=0
62400 On ch=2 n=e4 v=0
62400 On ch=2 n=e4 v=76
62400 Par ch=2 c=64 v=0
62400 On ch=2 n=a4 v=76
62400 On ch=2 n=c#5 v=76
62640 On ch=2 n=c#5 v=0
62640 On ch=2 n=a4 v=0
62640 On ch=2 n=e4 v=0
62640 On ch=2 n=g#3 v=76
62718 On ch=2 n=g#3 v=0
62718 On ch=2 n=a3 v=76
62798 On ch=2 n=a3 v=0
62798 On ch=2 n=b3 v=76
62878 On ch=2 n=b3 v=0
62880 On ch=2 n=a3 v=76
63024 On ch=2 n=a3 v=0
63120 On ch=2 n=e3 v=76
63264 On ch=2 n=e3 v=0
63360 On ch=2 n=g#3 v=76
63360 On ch=2 n=g#2 v=76
63408 Par ch=2 c=64 v=127
63504 On ch=2 n=g#2 v=0
63504 On ch=2 n=g#3 v=0
63600 On ch=2 n=f4 v=76
63600 On ch=2 n=g#4 v=76
63600 On ch=2 n=c#5 v=76
63600 On ch=2 n=f5 v=76
63678 On ch=2 n=f5 v=0
63678 On ch=2 n=c#5 v=0
63678 On ch=2 n=g#4 v=0
63678 On ch=2 n=f4 v=0
63678 On ch=2 n=f4 v=76
63678 On ch=2 n=g#4 v=76
63678 On ch=2 n=c#5 v=76
63678 On ch=2 n=f5 v=76
63758 On ch=2 n=f5 v=0
63758 On ch=2 n=c#5 v=0
63758 On ch=2 n=g#4 v=0
63758 On ch=2 n=f4 v=0
63758 On ch=2 n=f4 v=76
63758 On ch=2 n=g#4 v=76
63758 On ch=2 n=c#5 v=76
63758 On ch=2 n=f5 v=76
63838 On ch=2 n=f5 v=0
63838 On ch=2 n=c#5 v=0
63838 On ch=2 n=g#4 v=0
63838 On ch=2 n=f4 v=0
63840 On ch=2 n=f4 v=76
63840 On ch=2 n=g#4 v=76
63840 On ch=2 n=c#5 v=76
63840 On ch=2 n=f5 v=76
64080 On ch=2 n=f5 v=0
64080 On ch=2 n=c#5 v=0
64080 On ch=2 n=g#4 v=0
64080 On ch=2 n=f4 v=0
64080 On ch=2 n=f4 v=76
64080 On ch=2 n=g#4 v=76
64080 On ch=2 n=c#5 v=76
64080 On ch=2 n=f5 v=76
64128 Par ch=2 c=64 v=0
64320 On ch=2 n=f5 v=0
64320 On ch=2 n=c#5 v=0
64320 On ch=2 n=g#4 v=0
64320 On ch=2 n=f4 v=0
64320 On ch=2 n=f#4 v=76
64320 On ch=2 n=g#4 v=76
64320 On ch=2 n=c5 v=76
64320 On ch=2 n=d#5 v=76
64344 Par ch=2 c=64 v=127
64560 On ch=2 n=d#5 v=0
64560 On ch=2 n=c5 v=0
64560 On ch=2 n=g#4 v=0
64560 On ch=2 n=f#4 v=0
64560 On ch=2 n=g#3 v=76
64560 On ch=2 n=g#2 v=76
64776 Par ch=2 c=64 v=0
64800 On ch=2 n=g#2 v=0
64800 On ch=2 n=g#3 v=0
64800 On ch=2 n=c#2 v=76
64800 On ch=2 n=c#3 v=76
64848 Par ch=2 c=64 v=127
65160 On ch=2 n=c#3 v=0
65160 On ch=2 n=c#2 v=0
65160 On ch=2 n=c#5 v=76
65160 On ch=2 n=c#4 v=76
65232 On ch=2 n=c#4 v=0
65232 On ch=2 n=c#5 v=0
65280 On ch=2 n=c#5 v=76
65280 On ch=2 n=c#4 v=76
65424 On ch=2 n=c#4 v=0
65424 On ch=2 n=c#5 v=0
65520 On ch=2 n=c#5 v=76
65520 On ch=2 n=c#4 v=76
65592 On ch=2 n=c#4 v=0
65592 On ch=2 n=c#5 v=0
65640 On ch=2 n=c#5 v=76
65640 On ch=2 n=c#4 v=76
65712 On ch=2 n=c#4 v=0
65712 On ch=2 n=c#5 v=0
65760 On ch=2 n=c#5 v=76
65760 On ch=2 n=c#4 v=76
65832 On ch=2 n=c#4 v=0
65832 On ch=2 n=c#5 v=0
65880 On ch=2 n=c#5 v=76
65880 On ch=2 n=c#4 v=76
65952 On ch=2 n=c#4 v=0
65952 On ch=2 n=c#5 v=0
66000 On ch=2 n=c#5 v=76
66000 On ch=2 n=c#4 v=76
66072 On ch=2 n=c#4 v=0
66072 On ch=2 n=c#5 v=0
66120 On ch=2 n=c#4 v=76
66120 On ch=2 n=c#5 v=76
66192 On ch=2 n=c#5 v=0
66192 On ch=2 n=c#4 v=0
66216 Par ch=2 c=64 v=0
66240 On ch=2 n=c#4 v=76
66240 On ch=2 n=c#5 v=76
66480 On ch=2 n=c#5 v=0
66480 On ch=2 n=c#4 v=0
66480 On ch=2 n=d4 v=76
66480 On ch=2 n=f#4 v=76
66480 On ch=2 n=b4 v=76
66660 On ch=2 n=b4 v=0
66660 On ch=2 n=f#4 v=0
66660 On ch=2 n=d4 v=0
66660 On ch=2 n=d4 v=76
66660 On ch=2 n=f#4 v=76
66660 On ch=2 n=b4 v=76
66720 On ch=2 n=b4 v=0
66720 On ch=2 n=f#4 v=0
66720 On ch=2 n=d4 v=0
66720 On ch=2 n=d4 v=76
66720 On ch=2 n=f#4 v=76
66720 On ch=2 n=b4 v=76
66960 On ch=2 n=b4 v=0
66960 On ch=2 n=f#4 v=0
66960 On ch=2 n=d4 v=0
66960 On ch=2 n=e4 v=76
66960 On ch=2 n=g#4 v=76
66960 On ch=2 n=c#5 v=76
67200 On ch=2 n=c#5 v=0
67200 On ch=2 n=g#4 v=0
67200 On ch=2 n=e4 v=0
67200 On ch=2 n=a4 v=76
67200 On ch=2 n=f#4 v=76
67200 On ch=2 n=e5 v=76
67440 On ch=2 n=e5 v=0
67440 On ch=2 n=d5 v=76
67680 On ch=2 n=d5 v=0
67680 On ch=2 n=f#4 v=0
67680 On ch=2 n=a4 v=0
67680 On ch=2 n=d5 v=76
67680 On ch=2 n=g#4 v=76
67680 On ch=2 n=e4 v=76
67800 On ch=2 n=e4 v=0
67800 On ch=2 n=g#4 v=0
67800 On ch=2 n=d5 v=0
67920 On ch=2 n=e4 v=76
67920 On ch=2 n=g#4 v=76
67920 On ch=2 n=d5 v=76
67920 On ch=2 n=e5 v=76
68160 On ch=2 n=e5 v=0
68160 On ch=2 n=d5 v=0
68160 On ch=2 n=g#4 v=0
68160 On ch=2 n=e4 v=0
68160 On ch=2 n=e4 v=76
68160 On ch=2 n=g#4 v=76
68160 On ch=2 n=d5 v=76
68160 On ch=2 n=e5 v=76
68184 Par ch=2 c=64 v=127
68640 On ch=2 n=e5 v=0
68640 On ch=2 n=d5 v=0
68640 On ch=2 n=g#4 v=0
68640 On ch=2 n=e4 v=0
68640 On ch=2 n=a4 v=76
68640 On ch=2 n=c#5 v=76
68640 On ch=2 n=e5 v=76
68880 On ch=2 n=e5 v=0
68880 On ch=2 n=c#5 v=0
68880 On ch=2 n=a4 v=0
68880 Par ch=2 c=64 v=0
69120 On ch=2 n=d2 v=76
69120 On ch=2 n=d3 v=76
69168 Par ch=2 c=64 v=127
69360 On ch=2 n=d3 v=0
69360 On ch=2 n=d2 v=0
69360 On ch=2 n=d5 v=76
69360 On ch=2 n=a4 v=76
69360 On ch=2 n=f#4 v=76
69432 On ch=2 n=f#4 v=0
69432 On ch=2 n=a4 v=0
69432 On ch=2 n=d5 v=0
69480 On ch=2 n=d5 v=76
69480 On ch=2 n=a4 v=76
69480 On ch=2 n=f#4 v=76
69552 On ch=2 n=f#4 v=0
69552 On ch=2 n=a4 v=0
69552 On ch=2 n=d5 v=0
69600 On ch=2 n=d5 v=76
69600 On ch=2 n=a4 v=76
69600 On ch=2 n=f#4 v=76
69744 On ch=2 n=f#4 v=0
69744 On ch=2 n=a4 v=0
69744 On ch=2 n=d5 v=0
69840 On ch=2 n=d5 v=76
69840 On ch=2 n=a4 v=76
69840 On ch=2 n=f#4 v=76
69984 On ch=2 n=f#4 v=0
69984 On ch=2 n=a4 v=0
69984 On ch=2 n=d5 v=0
70056 Par ch=2 c=64 v=0
70080 On ch=2 n=c#5 v=76
70080 On ch=2 n=a4 v=76
70080 On ch=2 n=g4 v=76
70224 On ch=2 n=g4 v=0
70224 On ch=2 n=a4 v=0
70224 On ch=2 n=c#5 v=0
70320 On ch=2 n=g4 v=76
70320 On ch=2 n=a4 v=76
70320 On ch=2 n=c#5 v=76
70464 On ch=2 n=c#5 v=0
70464 On ch=2 n=a4 v=0
70464 On ch=2 n=g4 v=0
70560 On ch=2 n=d2 v=76
70560 On ch=2 n=d3 v=76
70608 Par ch=2 c=64 v=127
70800 On ch=2 n=d3 v=0
70800 On ch=2 n=d2 v=0
70800 On ch=2 n=f#4 v=76
70800 On ch=2 n=d4 v=76
70872 On ch=2 n=d4 v=0
70872 On ch=2 n=f#4 v=0
70920 On ch=2 n=f#4 v=76
70920 On ch=2 n=d4 v=76
70992 On ch=2 n=d4 v=0
70992 On ch=2 n=f#4 v=0
71040 On ch=2 n=f#4 v=76
71040 On ch=2 n=d4 v=76
71184 On ch=2 n=d4 v=0
71184 On ch=2 n=f#4 v=0
71280 On ch=2 n=a4 v=76
71280 On ch=2 n=f#4 v=76
71424 On ch=2 n=f#4 v=0
71424 On ch=2 n=a4 v=0
71496 Par ch=2 c=64 v=0
71520 On ch=2 n=a4 v=76
71520 On ch=2 n=g4 v=76
71520 On ch=2 n=e4 v=76
71664 On ch=2 n=e4 v=0
71664 On ch=2 n=g4 v=0
71664 On ch=2 n=a4 v=0
71760 On ch=2 n=d4 v=76
71760 On ch=2 n=f#4 v=76
71760 On ch=2 n=a4 v=76
71904 On ch=2 n=a4 v=0
71904 On ch=2 n=f#4 v=0
71904 On ch=2 n=d4 v=0
72000 On ch=2 n=a2 v=76
72000 On ch=2 n=a3 v=76
72048 Par ch=2 c=64 v=127
72240 On ch=2 n=a3 v=0
72240 On ch=2 n=a2 v=0
72240 On ch=2 n=a4 v=76
72240 On ch=2 n=e4 v=76
72240 On ch=2 n=c#4 v=76
72312 On ch=2 n=c#4 v=0
72312 On ch=2 n=e4 v=0
72312 On ch=2 n=a4 v=0
72360 On ch=2 n=a4 v=76
72360 On ch=2 n=e4 v=76
72360 On ch=2 n=c#4 v=76
72432 On ch=2 n=c#4 v=0
72432 On ch=2 n=e4 v=0
72432 On ch=2 n=a4 v=0
72480 On ch=2 n=a4 v=76
72480 On ch=2 n=e4 v=76
72480 On ch=2 n=c#4 v=76
72624 On ch=2 n=c#4 v=0
72624 On ch=2 n=e4 v=0
72624 On ch=2 n=a4 v=0
72720 On ch=2 n=a4 v=76
72720 On ch=2 n=e4 v=76
72720 On ch=2 n=c#4 v=76
72864 On ch=2 n=c#4 v=0
72864 On ch=2 n=e4 v=0
72864 On ch=2 n=a4 v=0
72936 Par ch=2 c=64 v=0
72960 On ch=2 n=a4 v=76
72960 On ch=2 n=d4 v=76
72960 On ch=2 n=b3 v=76
73104 On ch=2 n=b3 v=0
73104 On ch=2 n=d4 v=0
73104 On ch=2 n=a4 v=0
73200 On ch=2 n=b3 v=76
73200 On ch=2 n=d4 v=76
73200 On ch=2 n=a4 v=76
73344 On ch=2 n=a4 v=0
73344 On ch=2 n=d4 v=0
73344 On ch=2 n=b3 v=0
73440 On ch=2 n=a2 v=76
73440 On ch=2 n=a3 v=76
73488 Par ch=2 c=64 v=127
73680 On ch=2 n=a3 v=0
73680 On ch=2 n=a2 v=0
73680 On ch=2 n=c#4 v=76
73680 On ch=2 n=a3 v=76
73752 On ch=2 n=a3 v=0
73752 On ch=2 n=c#4 v=0
73800 On ch=2 n=c#4 v=76
73800 On ch=2 n=a3 v=76
73872 On ch=2 n=a3 v=0
73872 On ch=2 n=c#4 v=0
73920 On ch=2 n=c#4 v=76
73920 On ch=2 n=a3 v=76
74064 On ch=2 n=a3 v=0
74064 On ch=2 n=c#4 v=0
74160 On ch=2 n=e4 v=76
74160 On ch=2 n=c#4 v=76
74304 On ch=2 n=c#4 v=0
74304 On ch=2 n=e4 v=0
74376 Par ch=2 c=64 v=0
74400 On ch=2 n=e4 v=76
74400 On ch=2 n=d4 v=76
74400 On ch=2 n=b3 v=76
74544 On ch=2 n=b3 v=0
74544 On ch=2 n=d4 v=0
74544 On ch=2 n=e4 v=0
74640 On ch=2 n=a3 v=76
74640 On ch=2 n=c#4 v=76
74640 On ch=2 n=e4 v=76
74784 On ch=2 n=e4 v=0
74784 On ch=2 n=c#4 v=0
74784 On ch=2 n=a3 v=0
74880 On ch=2 n=g2 v=60
74880 On ch=2 n=g3 v=60
74928 Par ch=2 c=64 v=127
75120 On ch=2 n=g3 v=0
75120 On ch=2 n=g2 v=0
75120 On ch=2 n=g4 v=61
75120 On ch=2 n=g3 v=61
75210 On ch=2 n=g3 v=0
75210 On ch=2 n=g4 v=0
75240 On ch=2 n=g4 v=61
75240 On ch=2 n=g3 v=61
75330 On ch=2 n=g3 v=0
75330 On ch=2 n=g4 v=0
75360 On ch=2 n=g3 v=62
75360 On ch=2 n=g4 v=62
75384 Par ch=2 c=64 v=0
75600 On ch=2 n=g4 v=0
75600 On ch=2 n=g3 v=0
75600 On ch=2 n=f#3 v=63
75600 On ch=2 n=f#4 v=63
75840 On ch=2 n=f#4 v=0
75840 On ch=2 n=f#3 v=0
75840 On ch=2 n=b2 v=64
75840 On ch=2 n=b3 v=64
76080 On ch=2 n=b3 v=0
76080 On ch=2 n=b2 v=0
76080 On ch=2 n=a3 v=65
76080 On ch=2 n=a2 v=65
76320 On ch=2 n=a2 v=0
76320 On ch=2 n=a3 v=0
76320 On ch=2 n=d2 v=66
76320 On ch=2 n=d3 v=66
76344 Par ch=2 c=64 v=127
76560 On ch=2 n=d3 v=0
76560 On ch=2 n=d2 v=0
76560 On ch=2 n=d5 v=67
76560 On ch=2 n=d4 v=67
76650 On ch=2 n=d4 v=0
76650 On ch=2 n=d5 v=0
76680 On ch=2 n=d5 v=68
76680 On ch=2 n=d4 v=68
76770 On ch=2 n=d4 v=0
76770 On ch=2 n=d5 v=0
76800 On ch=2 n=d4 v=68
76800 On ch=2 n=d5 v=68
77016 Par ch=2 c=64 v=0
77040 On ch=2 n=d5 v=0
77040 On ch=2 n=d4 v=0
77040 On ch=2 n=c#4 v=69
77040 On ch=2 n=c#5 v=69
77280 On ch=2 n=c#5 v=0
77280 On ch=2 n=c#4 v=0
77280 On ch=2 n=f#3 v=70
77280 On ch=2 n=f#4 v=70
77520 On ch=2 n=f#4 v=0
77520 On ch=2 n=f#3 v=0
77520 On ch=2 n=e4 v=71
77520 On ch=2 n=e3 v=71
77760 On ch=2 n=e3 v=0
77760 On ch=2 n=e4 v=0
77760 On ch=2 n=a2 v=73
77760 On ch=2 n=a3 v=73
77784 Par ch=2 c=64 v=127
78000 On ch=2 n=a3 v=0
78000 On ch=2 n=a2 v=0
78000 On ch=2 n=a4 v=74
78000 On ch=2 n=e5 v=74
78000 On ch=2 n=g5 v=74
78000 On ch=2 n=a5 v=74
78120 On ch=2 n=a5 v=0
78120 On ch=2 n=g5 v=0
78120 On ch=2 n=e5 v=0
78120 On ch=2 n=a4 v=0
78120 On ch=2 n=a4 v=74
78120 On ch=2 n=e5 v=74
78120 On ch=2 n=g5 v=74
78120 On ch=2 n=a5 v=74
78240 On ch=2 n=a5 v=0
78240 On ch=2 n=g5 v=0
78240 On ch=2 n=e5 v=0
78240 On ch=2 n=a4 v=0
78240 On ch=2 n=a4 v=75
78240 On ch=2 n=e5 v=75
78240 On ch=2 n=g5 v=75
78240 On ch=2 n=a5 v=75
78480 On ch=2 n=a5 v=0
78480 On ch=2 n=g5 v=0
78480 On ch=2 n=e5 v=0
78480 On ch=2 n=a4 v=0
78480 On ch=2 n=a4 v=76
78480 On ch=2 n=e5 v=76
78480 On ch=2 n=g5 v=76
78480 On ch=2 n=a5 v=76
78600 On ch=2 n=a5 v=0
78600 On ch=2 n=g5 v=0
78600 On ch=2 n=e5 v=0
78600 On ch=2 n=a4 v=0
78600 On ch=2 n=a4 v=76
78600 On ch=2 n=e5 v=76
78600 On ch=2 n=g5 v=76
78600 On ch=2 n=a5 v=76
78672 Par ch=2 c=64 v=0
78720 On ch=2 n=a5 v=0
78720 On ch=2 n=g5 v=0
78720 On ch=2 n=e5 v=0
78720 On ch=2 n=a4 v=0
78720 On ch=2 n=a4 v=77
78720 On ch=2 n=f#5 v=77
78720 On ch=2 n=a5 v=77
78960 On ch=2 n=a5 v=0
78960 On ch=2 n=f#5 v=0
78960 On ch=2 n=a4 v=0
78960 On ch=2 n=a5 v=78
78960 On ch=2 n=f#5 v=78
78960 On ch=2 n=c5 v=78
78960 On ch=2 n=a4 v=78
79200 On ch=2 n=a4 v=0
79200 On ch=2 n=c5 v=0
79200 On ch=2 n=f#5 v=0
79200 On ch=2 n=a5 v=0
79200 On ch=2 n=a4 v=79
79200 On ch=2 n=c#5 v=79
79200 On ch=2 n=g5 v=79
79200 On ch=2 n=a5 v=79
79440 On ch=2 n=a5 v=0
79440 On ch=2 n=g5 v=0
79440 On ch=2 n=c#5 v=0
79440 On ch=2 n=a4 v=0
79440 On ch=2 n=a3 v=80
79440 On ch=2 n=a2 v=80
79464 Par ch=2 c=64 v=127
79512 On ch=2 n=a2 v=0
79512 On ch=2 n=a3 v=0
79560 On ch=2 n=a3 v=81
79560 On ch=2 n=a2 v=81
79632 On ch=2 n=a2 v=0
79632 On ch=2 n=a3 v=0
79680 On ch=2 n=a3 v=81
79680 On ch=2 n=a2 v=81
79824 On ch=2 n=a2 v=0
79824 On ch=2 n=a3 v=0
79920 On ch=2 n=a#3 v=82
79920 On ch=2 n=a#2 v=82
79992 On ch=2 n=a#2 v=0
79992 On ch=2 n=a#3 v=0
80040 On ch=2 n=a3 v=83
80040 On ch=2 n=a2 v=83
80112 On ch=2 n=a2 v=0
80112 On ch=2 n=a3 v=0
80136 Par ch=2 c=64 v=0
80160 On ch=2 n=g#3 v=83
80160 On ch=2 n=g#2 v=83
80232 On ch=2 n=g#2 v=0
80232 On ch=2 n=g#3 v=0
80280 On ch=2 n=g3 v=84
80280 On ch=2 n=g2 v=84
80352 On ch=2 n=g2 v=0
80352 On ch=2 n=g3 v=0
80400 On ch=2 n=f#3 v=84
80400 On ch=2 n=f#2 v=84
80472 On ch=2 n=f#2 v=0
80472 On ch=2 n=f#3 v=0
80520 On ch=2 n=e2 v=85
80520 On ch=2 n=e3 v=85
80592 On ch=2 n=e3 v=0
80592 On ch=2 n=e2 v=0
80640 On ch=2 n=d2 v=88
80640 On ch=2 n=d3 v=88
80688 Par ch=2 c=64 v=127
80880 On ch=2 n=d3 v=0
80880 On ch=2 n=d2 v=0
80880 On ch=2 n=d5 v=88
80880 On ch=2 n=a4 v=88
80880 On ch=2 n=f#4 v=88
80952 On ch=2 n=f#4 v=0
80952 On ch=2 n=a4 v=0
80952 On ch=2 n=d5 v=0
81000 On ch=2 n=d5 v=88
81000 On ch=2 n=a4 v=88
81000 On ch=2 n=f#4 v=88
81072 On ch=2 n=f#4 v=0
81072 On ch=2 n=a4 v=0
81072 On ch=2 n=d5 v=0
81120 On ch=2 n=d5 v=88
81120 On ch=2 n=a4 v=88
81120 On ch=2 n=f#4 v=88
81264 On ch=2 n=f#4 v=0
81264 On ch=2 n=a4 v=0
81264 On ch=2 n=d5 v=0
81360 On ch=2 n=d5 v=88
81360 On ch=2 n=a4 v=88
81360 On ch=2 n=f#4 v=88
81504 On ch=2 n=f#4 v=0
81504 On ch=2 n=a4 v=0
81504 On ch=2 n=d5 v=0
81576 Par ch=2 c=64 v=0
81600 On ch=2 n=c#5 v=88
81600 On ch=2 n=a4 v=88
81600 On ch=2 n=g4 v=88
81744 On ch=2 n=g4 v=0
81744 On ch=2 n=a4 v=0
81744 On ch=2 n=c#5 v=0
81840 On ch=2 n=g4 v=88
81840 On ch=2 n=a4 v=88
81840 On ch=2 n=c#5 v=88
81984 On ch=2 n=c#5 v=0
81984 On ch=2 n=a4 v=0
81984 On ch=2 n=g4 v=0
82080 On ch=2 n=d2 v=88
82080 On ch=2 n=d3 v=88
82128 Par ch=2 c=64 v=127
82320 On ch=2 n=d3 v=0
82320 On ch=2 n=d2 v=0
82320 On ch=2 n=d5 v=88
82320 On ch=2 n=f#4 v=88
82320 On ch=2 n=d4 v=88
82392 On ch=2 n=d4 v=0
82392 On ch=2 n=f#4 v=0
82392 On ch=2 n=d5 v=0
82440 On ch=2 n=d5 v=88
82440 On ch=2 n=f#4 v=88
82440 On ch=2 n=d4 v=88
82512 On ch=2 n=d4 v=0
82512 On ch=2 n=f#4 v=0
82512 On ch=2 n=d5 v=0
82560 On ch=2 n=d5 v=88
82560 On ch=2 n=f#4 v=88
82560 On ch=2 n=d4 v=88
82704 On ch=2 n=d4 v=0
82704 On ch=2 n=f#4 v=0
82704 On ch=2 n=d5 v=0
82800 On ch=2 n=d5 v=88
82800 On ch=2 n=a4 v=88
82800 On ch=2 n=f#4 v=88
82944 On ch=2 n=f#4 v=0
82944 On ch=2 n=a4 v=0
82944 On ch=2 n=d5 v=0
83016 Par ch=2 c=64 v=0
83040 On ch=2 n=d5 v=88
83040 On ch=2 n=g4 v=88
83040 On ch=2 n=e4 v=88
83184 On ch=2 n=e4 v=0
83184 On ch=2 n=g4 v=0
83184 On ch=2 n=d5 v=0
83280 On ch=2 n=d4 v=88
83280 On ch=2 n=f#4 v=88
83280 On ch=2 n=d5 v=88
83424 On ch=2 n=d5 v=0
83424 On ch=2 n=f#4 v=0
83424 On ch=2 n=d4 v=0
83520 On ch=2 n=a2 v=88
83520 On ch=2 n=a3 v=88
83568 Par ch=2 c=64 v=127
83760 On ch=2 n=a3 v=0
83760 On ch=2 n=a2 v=0
83760 On ch=2 n=a4 v=88
83760 On ch=2 n=e4 v=88
83760 On ch=2 n=c#4 v=88
83832 On ch=2 n=c#4 v=0
83832 On ch=2 n=e4 v=0
83832 On ch=2 n=a4 v=0
83880 On ch=2 n=a4 v=88
83880 On ch=2 n=e4 v=88
83880 On ch=2 n=c#4 v=88
83952 On ch=2 n=c#4 v=0
83952 On ch=2 n=e4 v=0
83952 On ch=2 n=a4 v=0
84000 On ch=2 n=a4 v=88
84000 On ch=2 n=e4 v=88
84000 On ch=2 n=c#4 v=88
84144 On ch=2 n=c#4 v=0
84144 On ch=2 n=e4 v=0
84144 On ch=2 n=a4 v=0
84240 On ch=2 n=a4 v=88
84240 On ch=2 n=e4 v=88
84240 On ch=2 n=c#4 v=88
84384 On ch=2 n=c#4 v=0
84384 On ch=2 n=e4 v=0
84384 On ch=2 n=a4 v=0
84456 Par ch=2 c=64 v=0
84480 On ch=2 n=a4 v=88
84480 On ch=2 n=d4 v=88
84480 On ch=2 n=b3 v=88
84624 On ch=2 n=b3 v=0
84624 On ch=2 n=d4 v=0
84624 On ch=2 n=a4 v=0
84720 On ch=2 n=b3 v=88
84720 On ch=2 n=d4 v=88
84720 On ch=2 n=a4 v=88
84864 On ch=2 n=a4 v=0
84864 On ch=2 n=d4 v=0
84864 On ch=2 n=b3 v=0
84960 On ch=2 n=a2 v=88
84960 On ch=2 n=a3 v=88
85008 Par ch=2 c=64 v=127
85200 On ch=2 n=a3 v=0
85200 On ch=2 n=a2 v=0
85200 On ch=2 n=a4 v=88
85200 On ch=2 n=e4 v=88
85200 On ch=2 n=c#4 v=88
85272 On ch=2 n=c#4 v=0
85272 On ch=2 n=e4 v=0
85272 On ch=2 n=a4 v=0
85320 On ch=2 n=a4 v=88
85320 On ch=2 n=e4 v=88
85320 On ch=2 n=c#4 v=88
85392 On ch=2 n=c#4 v=0
85392 On ch=2 n=e4 v=0
85392 On ch=2 n=a4 v=0
85440 On ch=2 n=a4 v=88
85440 On ch=2 n=e4 v=88
85440 On ch=2 n=c#4 v=88
85584 On ch=2 n=c#4 v=0
85584 On ch=2 n=e4 v=0
85584 On ch=2 n=a4 v=0
85680 On ch=2 n=a4 v=88
85680 On ch=2 n=e4 v=88
85680 On ch=2 n=c#4 v=88
85824 On ch=2 n=c#4 v=0
85824 On ch=2 n=e4 v=0
85824 On ch=2 n=a4 v=0
85896 Par ch=2 c=64 v=0
85920 On ch=2 n=a4 v=88
85920 On ch=2 n=d4 v=88
85920 On ch=2 n=b3 v=88
86064 On ch=2 n=b3 v=0
86064 On ch=2 n=d4 v=0
86064 On ch=2 n=a4 v=0
86160 On ch=2 n=a3 v=88
86160 On ch=2 n=c#4 v=88
86160 On ch=2 n=a4 v=88
86304 On ch=2 n=a4 v=0
86304 On ch=2 n=c#4 v=0
86304 On ch=2 n=a3 v=0
86400 On ch=2 n=f2 v=88
86400 On ch=2 n=f3 v=88
86448 Par ch=2 c=64 v=127
86640 On ch=2 n=f3 v=0
86640 On ch=2 n=f2 v=0
86640 On ch=2 n=f4 v=88
86640 On ch=2 n=c5 v=88
86640 On ch=2 n=d#5 v=88
86640 On ch=2 n=f5 v=88
86760 On ch=2 n=f5 v=0
86760 On ch=2 n=d#5 v=0
86760 On ch=2 n=c5 v=0
86760 On ch=2 n=f4 v=0
86760 On ch=2 n=f4 v=88
86760 On ch=2 n=c5 v=88
86760 On ch=2 n=d#5 v=88
86760 On ch=2 n=f5 v=88
86880 On ch=2 n=f5 v=0
86880 On ch=2 n=d#5 v=0
86880 On ch=2 n=c5 v=0
86880 On ch=2 n=f4 v=0
86880 On ch=2 n=f4 v=88
86880 On ch=2 n=c5 v=88
86880 On ch=2 n=d#5 v=88
86880 On ch=2 n=f5 v=88
87120 On ch=2 n=f5 v=0
87120 On ch=2 n=d#5 v=0
87120 On ch=2 n=c5 v=0
87120 On ch=2 n=f4 v=0
87120 On ch=2 n=f4 v=88
87120 On ch=2 n=c5 v=88
87120 On ch=2 n=d#5 v=88
87120 On ch=2 n=f5 v=88
87240 On ch=2 n=f5 v=0
87240 On ch=2 n=d#5 v=0
87240 On ch=2 n=c5 v=0
87240 On ch=2 n=f4 v=0
87240 Par ch=2 c=64 v=0
87240 On ch=2 n=f4 v=88
87240 On ch=2 n=c5 v=88
87240 On ch=2 n=d#5 v=88
87240 On ch=2 n=f5 v=88
87360 On ch=2 n=f5 v=0
87360 On ch=2 n=d#5 v=0
87360 On ch=2 n=c5 v=0
87360 On ch=2 n=f4 v=0
87360 On ch=2 n=a#4 v=88
87360 On ch=2 n=d5 v=88
87360 On ch=2 n=f5 v=88
87408 Par ch=2 c=64 v=127
87600 On ch=2 n=f5 v=0
87600 On ch=2 n=d5 v=0
87600 On ch=2 n=a#4 v=0
87600 On ch=2 n=a#3 v=88
87600 On ch=2 n=a#2 v=88
87816 Par ch=2 c=64 v=0
87840 On ch=2 n=a#2 v=0
87840 On ch=2 n=a#3 v=0
87840 On ch=2 n=g2 v=88
87840 On ch=2 n=g3 v=88
87888 Par ch=2 c=64 v=127
88080 On ch=2 n=g3 v=0
88080 On ch=2 n=g2 v=0
88080 On ch=2 n=g4 v=88
88080 On ch=2 n=d5 v=88
88080 On ch=2 n=f5 v=88
88080 On ch=2 n=g5 v=88
88200 On ch=2 n=g5 v=0
88200 On ch=2 n=f5 v=0
88200 On ch=2 n=d5 v=0
88200 On ch=2 n=g4 v=0
88200 On ch=2 n=g4 v=88
88200 On ch=2 n=d5 v=88
88200 On ch=2 n=f5 v=88
88200 On ch=2 n=g5 v=88
88320 On ch=2 n=g5 v=0
88320 On ch=2 n=f5 v=0
88320 On ch=2 n=d5 v=0
88320 On ch=2 n=g4 v=0
88320 On ch=2 n=g4 v=88
88320 On ch=2 n=d5 v=88
88320 On ch=2 n=f5 v=88
88320 On ch=2 n=g5 v=88
88560 On ch=2 n=g5 v=0
88560 On ch=2 n=f5 v=0
88560 On ch=2 n=d5 v=0
88560 On ch=2 n=g4 v=0
88560 On ch=2 n=g4 v=88
88560 On ch=2 n=d5 v=88
88560 On ch=2 n=f5 v=88
88560 On ch=2 n=g5 v=88
88680 On ch=2 n=g5 v=0
88680 On ch=2 n=f5 v=0
88680 On ch=2 n=d5 v=0
88680 On ch=2 n=g4 v=0
88680 On ch=2 n=g4 v=88
88680 Par ch=2 c=64 v=0
88680 On ch=2 n=d5 v=88
88680 On ch=2 n=f5 v=88
88680 On ch=2 n=g5 v=88
88800 On ch=2 n=g5 v=0
88800 On ch=2 n=f5 v=0
88800 On ch=2 n=d5 v=0
88800 On ch=2 n=g4 v=0
88800 On ch=2 n=c5 v=88
88800 On ch=2 n=e5 v=88
88800 On ch=2 n=g5 v=88
88848 Par ch=2 c=64 v=127
89040 On ch=2 n=g5 v=0
89040 On ch=2 n=e5 v=0
89040 On ch=2 n=c5 v=0
89040 On ch=2 n=c4 v=88
89040 On ch=2 n=c3 v=88
89256 Par ch=2 c=64 v=0
89280 On ch=2 n=c3 v=0
89280 On ch=2 n=c4 v=0
89280 On ch=2 n=a2 v=88
89280 On ch=2 n=a3 v=88
89328 Par ch=2 c=64 v=127
89520 On ch=2 n=a3 v=0
89520 On ch=2 n=a2 v=0
89520 On ch=2 n=a4 v=88
89520 On ch=2 n=c#5 v=88
89520 On ch=2 n=e5 v=88
89520 On ch=2 n=g5 v=88
89520 On ch=2 n=a5 v=88
89640 On ch=2 n=a5 v=0
89640 On ch=2 n=g5 v=0
89640 On ch=2 n=e5 v=0
89640 On ch=2 n=c#5 v=0
89640 On ch=2 n=a4 v=0
89640 On ch=2 n=a4 v=88
89640 On ch=2 n=c#5 v=88
89640 On ch=2 n=e5 v=88
89640 On ch=2 n=g5 v=88
89640 On ch=2 n=a5 v=88
89760 On ch=2 n=a5 v=0
89760 On ch=2 n=g5 v=0
89760 On ch=2 n=e5 v=0
89760 On ch=2 n=c#5 v=0
89760 On ch=2 n=a4 v=0
89760 On ch=2 n=a4 v=88
89760 On ch=2 n=c#5 v=88
89760 On ch=2 n=e5 v=88
89760 On ch=2 n=g5 v=88
89760 On ch=2 n=a5 v=88
90000 On ch=2 n=a5 v=0
90000 On ch=2 n=g5 v=0
90000 On ch=2 n=e5 v=0
90000 On ch=2 n=c#5 v=0
90000 On ch=2 n=a4 v=0
90000 On ch=2 n=a4 v=88
90000 On ch=2 n=c#5 v=88
90000 On ch=2 n=e5 v=88
90000 On ch=2 n=g5 v=88
90000 On ch=2 n=a5 v=88
90120 On ch=2 n=a5 v=0
90120 On ch=2 n=g5 v=0
90120 On ch=2 n=e5 v=0
90120 On ch=2 n=c#5 v=0
90120 On ch=2 n=a4 v=0
90120 On ch=2 n=a4 v=88
90120 On ch=2 n=c#5 v=88
90120 On ch=2 n=e5 v=88
90120 On ch=2 n=g5 v=88
90120 On ch=2 n=a5 v=88
90240 On ch=2 n=a5 v=0
90240 On ch=2 n=g5 v=0
90240 On ch=2 n=e5 v=0
90240 On ch=2 n=c#5 v=0
90240 On ch=2 n=a4 v=0
90240 On ch=2 n=a4 v=88
90240 On ch=2 n=c#5 v=88
90240 On ch=2 n=e5 v=88
90240 On ch=2 n=g5 v=88
90240 On ch=2 n=a5 v=88
90480 On ch=2 n=a5 v=0
90480 On ch=2 n=g5 v=0
90480 On ch=2 n=e5 v=0
90480 On ch=2 n=c#5 v=0
90480 On ch=2 n=a4 v=0
90480 On ch=2 n=a4 v=88
90480 On ch=2 n=c#5 v=88
90480 On ch=2 n=e5 v=88
90480 On ch=2 n=g5 v=88
90480 On ch=2 n=a5 v=88
90600 On ch=2 n=a5 v=0
90600 On ch=2 n=g5 v=0
90600 On ch=2 n=e5 v=0
90600 On ch=2 n=c#5 v=0
90600 On ch=2 n=a4 v=0
90600 On ch=2 n=a5 v=88
90600 On ch=2 n=g5 v=88
90600 On ch=2 n=e5 v=88
90600 On ch=2 n=c#5 v=88
90600 On ch=2 n=a4 v=88
90720 On ch=2 n=a4 v=0
90720 On ch=2 n=c#5 v=0
90720 On ch=2 n=e5 v=0
90720 On ch=2 n=g5 v=0
90720 On ch=2 n=a5 v=0
90720 On ch=2 n=a4 v=88
90720 On ch=2 n=c#5 v=88
90720 On ch=2 n=e5 v=88
90720 On ch=2 n=g5 v=88
90720 On ch=2 n=a5 v=88
90960 On ch=2 n=a5 v=0
90960 On ch=2 n=g5 v=0
90960 On ch=2 n=e5 v=0
90960 On ch=2 n=c#5 v=0
90960 On ch=2 n=a4 v=0
90960 On ch=2 n=a4 v=88
90960 On ch=2 n=c#5 v=88
90960 On ch=2 n=e5 v=88
90960 On ch=2 n=g5 v=88
90960 On ch=2 n=a5 v=88
91200 On ch=2 n=a5 v=0
91200 On ch=2 n=g5 v=0
91200 On ch=2 n=e5 v=0
91200 On ch=2 n=c#5 v=0
91200 On ch=2 n=a4 v=0
91200 On ch=2 n=a4 v=88
91200 On ch=2 n=c#5 v=88
91200 On ch=2 n=e5 v=88
91200 On ch=2 n=g5 v=88
91200 On ch=2 n=a5 v=88
91680 On ch=2 n=a5 v=0
91680 On ch=2 n=g5 v=0
91680 On ch=2 n=e5 v=0
91680 On ch=2 n=c#5 v=0
91680 On ch=2 n=a4 v=0
91680 On ch=2 n=d5 v=88
91680 On ch=2 n=f#5 v=88
91680 On ch=2 n=a5 v=88
91920 On ch=2 n=a5 v=0
91920 On ch=2 n=f#5 v=0
91920 On ch=2 n=d5 v=0
91920 Par ch=2 c=64 v=0
92160 On ch=2 n=d2 v=64
92160 On ch=2 n=d3 v=64
92208 Par ch=2 c=64 v=127
92400 On ch=2 n=d3 v=0
92400 On ch=2 n=d2 v=0
92400 On ch=2 n=d5 v=64
92400 On ch=2 n=a4 v=64
92400 On ch=2 n=f#4 v=64
92472 On ch=2 n=f#4 v=0
92472 On ch=2 n=a4 v=0
92472 On ch=2 n=d5 v=0
92520 On ch=2 n=d5 v=64
92520 On ch=2 n=a4 v=64
92520 On ch=2 n=f#4 v=64
92592 On ch=2 n=f#4 v=0
92592 On ch=2 n=a4 v=0
92592 On ch=2 n=d5 v=0
92640 On ch=2 n=d5 v=64
92640 On ch=2 n=a4 v=64
92640 On ch=2 n=f#4 v=64
92784 On ch=2 n=f#4 v=0
92784 On ch=2 n=a4 v=0
92784 On ch=2 n=d5 v=0
92880 On ch=2 n=d5 v=64
92880 On ch=2 n=a4 v=64
92880 On ch=2 n=f#4 v=64
93024 On ch=2 n=f#4 v=0
93024 On ch=2 n=a4 v=0
93024 On ch=2 n=d5 v=0
93096 Par ch=2 c=64 v=0
93120 On ch=2 n=c#5 v=64
93120 On ch=2 n=a4 v=64
93120 On ch=2 n=g4 v=64
93264 On ch=2 n=g4 v=0
93264 On ch=2 n=a4 v=0
93264 On ch=2 n=c#5 v=0
93360 On ch=2 n=g4 v=64
93360 On ch=2 n=a4 v=64
93360 On ch=2 n=c#5 v=64
93504 On ch=2 n=c#5 v=0
93504 On ch=2 n=a4 v=0
93504 On ch=2 n=g4 v=0
93600 On ch=2 n=d2 v=64
93600 On ch=2 n=d3 v=64
93648 Par ch=2 c=64 v=127
93840 On ch=2 n=d3 v=0
93840 On ch=2 n=d2 v=0
93840 On ch=2 n=f#4 v=64
93840 On ch=2 n=d4 v=64
93912 On ch=2 n=d4 v=0
93912 On ch=2 n=f#4 v=0
93960 On ch=2 n=f#4 v=64
93960 On ch=2 n=d4 v=64
94032 On ch=2 n=d4 v=0
94032 On ch=2 n=f#4 v=0
94080 On ch=2 n=f#4 v=64
94080 On ch=2 n=d4 v=64
94224 On ch=2 n=d4 v=0
94224 On ch=2 n=f#4 v=0
94320 On ch=2 n=a4 v=64
94320 On ch=2 n=f#4 v=64
94464 On ch=2 n=f#4 v=0
94464 On ch=2 n=a4 v=0
94536 Par ch=2 c=64 v=0
94560 On ch=2 n=a4 v=64
94560 On ch=2 n=g4 v=64
94560 On ch=2 n=e4 v=64
94704 On ch=2 n=e4 v=0
94704 On ch=2 n=g4 v=0
94704 On ch=2 n=a4 v=0
94800 On ch=2 n=d4 v=64
94800 On ch=2 n=f#4 v=64
94800 On ch=2 n=a4 v=64
94944 On ch=2 n=a4 v=0
94944 On ch=2 n=f#4 v=0
94944 On ch=2 n=d4 v=0
95040 On ch=2 n=a2 v=64
95040 On ch=2 n=a3 v=64
95088 Par ch=2 c=64 v=127
95280 On ch=2 n=a3 v=0
95280 On ch=2 n=a2 v=0
95280 On ch=2 n=a4 v=64
95280 On ch=2 n=e4 v=64
95280 On ch=2 n=c#4 v=64
95352 On ch=2 n=c#4 v=0
95352 On ch=2 n=e4 v=0
95352 On ch=2 n=a4 v=0
95400 On ch=2 n=a4 v=64
95400 On ch=2 n=e4 v=64
95400 On ch=2 n=c#4 v=64
95472 On ch=2 n=c#4 v=0
95472 On ch=2 n=e4 v=0
95472 On ch=2 n=a4 v=0
95520 On ch=2 n=a4 v=64
95520 On ch=2 n=e4 v=64
95520 On ch=2 n=c#4 v=64
95664 On ch=2 n=c#4 v=0
95664 On ch=2 n=e4 v=0
95664 On ch=2 n=a4 v=0
95760 On ch=2 n=a4 v=64
95760 On ch=2 n=e4 v=64
95760 On ch=2 n=c#4 v=64
95904 On ch=2 n=c#4 v=0
95904 On ch=2 n=e4 v=0
95904 On ch=2 n=a4 v=0
95976 Par ch=2 c=64 v=0
96000 On ch=2 n=a4 v=64
96000 On ch=2 n=d4 v=64
96000 On ch=2 n=b3 v=64
96144 On ch=2 n=b3 v=0
96144 On ch=2 n=d4 v=0
96144 On ch=2 n=a4 v=0
96240 On ch=2 n=b3 v=64
96240 On ch=2 n=d4 v=64
96240 On ch=2 n=a4 v=64
96384 On ch=2 n=a4 v=0
96384 On ch=2 n=d4 v=0
96384 On ch=2 n=b3 v=0
96480 On ch=2 n=a2 v=64
96480 On ch=2 n=a3 v=64
96528 Par ch=2 c=64 v=127
96720 On ch=2 n=a3 v=0
96720 On ch=2 n=a2 v=0
96720 On ch=2 n=c#4 v=64
96720 On ch=2 n=a3 v=64
96792 On ch=2 n=a3 v=0
96792 On ch=2 n=c#4 v=0
96840 On ch=2 n=c#4 v=64
96840 On ch=2 n=a3 v=64
96912 On ch=2 n=a3 v=0
96912 On ch=2 n=c#4 v=0
96960 On ch=2 n=c#4 v=64
96960 On ch=2 n=a3 v=64
97104 On ch=2 n=a3 v=0
97104 On ch=2 n=c#4 v=0
97200 On ch=2 n=e4 v=64
97200 On ch=2 n=c#4 v=64
97344 On ch=2 n=c#4 v=0
97344 On ch=2 n=e4 v=0
97416 Par ch=2 c=64 v=0
97440 On ch=2 n=e4 v=64
97440 On ch=2 n=d4 v=64
97440 On ch=2 n=b3 v=64
97584 On ch=2 n=b3 v=0
97584 On ch=2 n=d4 v=0
97584 On ch=2 n=e4 v=0
97680 On ch=2 n=a3 v=64
97680 On ch=2 n=c#4 v=64
97680 On ch=2 n=e4 v=64
97824 On ch=2 n=e4 v=0
97824 On ch=2 n=c#4 v=0
97824 On ch=2 n=a3 v=0
97920 On ch=2 n=g2 v=56
97920 On ch=2 n=g3 v=56
97968 Par ch=2 c=64 v=127
98160 On ch=2 n=g3 v=0
98160 On ch=2 n=g2 v=0
98160 On ch=2 n=g4 v=57
98160 On ch=2 n=g3 v=57
98250 On ch=2 n=g3 v=0
98250 On ch=2 n=g4 v=0
98280 On ch=2 n=g4 v=57
98280 On ch=2 n=g3 v=57
98370 On ch=2 n=g3 v=0
98370 On ch=2 n=g4 v=0
98400 On ch=2 n=g3 v=58
98400 On ch=2 n=g4 v=58
98424 Par ch=2 c=64 v=0
98640 On ch=2 n=g4 v=0
98640 On ch=2 n=g3 v=0
98640 On ch=2 n=f#3 v=59
98640 On ch=2 n=f#4 v=59
98880 On ch=2 n=f#4 v=0
98880 On ch=2 n=f#3 v=0
98880 On ch=2 n=b2 v=61
98880 On ch=2 n=b3 v=61
99120 On ch=2 n=b3 v=0
99120 On ch=2 n=b2 v=0
99120 On ch=2 n=a3 v=62
99120 On ch=2 n=a2 v=62
99360 On ch=2 n=a2 v=0
99360 On ch=2 n=a3 v=0
99360 On ch=2 n=d2 v=63
99360 On ch=2 n=d3 v=63
99384 Par ch=2 c=64 v=127
99600 On ch=2 n=d3 v=0
99600 On ch=2 n=d2 v=0
99600 On ch=2 n=d5 v=64
99600 On ch=2 n=d4 v=64
99690 On ch=2 n=d4 v=0
99690 On ch=2 n=d5 v=0
99720 On ch=2 n=d5 v=65
99720 On ch=2 n=d4 v=65
99810 On ch=2 n=d4 v=0
99810 On ch=2 n=d5 v=0
99840 On ch=2 n=d4 v=66
99840 On ch=2 n=d5 v=66
100056 Par ch=2 c=64 v=0
100080 On ch=2 n=d5 v=0
100080 On ch=2 n=d4 v=0
100080 On ch=2 n=c#4 v=67
100080 On ch=2 n=c#5 v=67
100320 On ch=2 n=c#5 v=0
100320 On ch=2 n=c#4 v=0
100320 On ch=2 n=f#3 v=68
100320 On ch=2 n=f#4 v=68
100560 On ch=2 n=f#4 v=0
100560 On ch=2 n=f#3 v=0
100560 On ch=2 n=e4 v=69
100560 On ch=2 n=e3 v=69
100800 On ch=2 n=e3 v=0
100800 On ch=2 n=e4 v=0
100800 On ch=2 n=a2 v=71
100800 On ch=2 n=a3 v=71
100824 Par ch=2 c=64 v=127
101040 On ch=2 n=a3 v=0
101040 On ch=2 n=a2 v=0
101040 On ch=2 n=a4 v=72
101040 On ch=2 n=e5 v=72
101040 On ch=2 n=g5 v=72
101040 On ch=2 n=a5 v=72
101160 On ch=2 n=a5 v=0
101160 On ch=2 n=g5 v=0
101160 On ch=2 n=e5 v=0
101160 On ch=2 n=a4 v=0
101160 On ch=2 n=a4 v=72
101160 On ch=2 n=e5 v=72
101160 On ch=2 n=g5 v=72
101160 On ch=2 n=a5 v=72
101280 On ch=2 n=a5 v=0
101280 On ch=2 n=g5 v=0
101280 On ch=2 n=e5 v=0
101280 On ch=2 n=a4 v=0
101280 On ch=2 n=a4 v=73
101280 On ch=2 n=e5 v=73
101280 On ch=2 n=g5 v=73
101280 On ch=2 n=a5 v=73
101520 On ch=2 n=a5 v=0
101520 On ch=2 n=g5 v=0
101520 On ch=2 n=e5 v=0
101520 On ch=2 n=a4 v=0
101520 On ch=2 n=a4 v=74
101520 On ch=2 n=e5 v=74
101520 On ch=2 n=g5 v=74
101520 On ch=2 n=a5 v=74
101640 On ch=2 n=a5 v=0
101640 On ch=2 n=g5 v=0
101640 On ch=2 n=e5 v=0
101640 On ch=2 n=a4 v=0
101640 On ch=2 n=a4 v=75
101640 On ch=2 n=e5 v=75
101640 On ch=2 n=g5 v=75
101640 On ch=2 n=a5 v=75
101712 Par ch=2 c=64 v=0
101760 On ch=2 n=a5 v=0
101760 On ch=2 n=g5 v=0
101760 On ch=2 n=e5 v=0
101760 On ch=2 n=a4 v=0
101760 On ch=2 n=a4 v=76
101760 On ch=2 n=f#5 v=76
101760 On ch=2 n=a5 v=76
102000 On ch=2 n=a5 v=0
102000 On ch=2 n=f#5 v=0
102000 On ch=2 n=a4 v=0
102000 On ch=2 n=a5 v=77
102000 On ch=2 n=f#5 v=77
102000 On ch=2 n=c5 v=77
102000 On ch=2 n=a4 v=77
102240 On ch=2 n=a4 v=0
102240 On ch=2 n=c5 v=0
102240 On ch=2 n=f#5 v=0
102240 On ch=2 n=a5 v=0
102240 On ch=2 n=a4 v=78
102240 On ch=2 n=c#5 v=78
102240 On ch=2 n=g5 v=78
102240 On ch=2 n=a5 v=78
102480 On ch=2 n=a5 v=0
102480 On ch=2 n=g5 v=0
102480 On ch=2 n=c#5 v=0
102480 On ch=2 n=a4 v=0
102480 On ch=2 n=a3 v=79
102480 On ch=2 n=a2 v=79
102504 Par ch=2 c=64 v=127
102552 On ch=2 n=a2 v=0
102552 On ch=2 n=a3 v=0
102600 On ch=2 n=a3 v=80
102600 On ch=2 n=a2 v=80
102672 On ch=2 n=a2 v=0
102672 On ch=2 n=a3 v=0
102720 On ch=2 n=a3 v=81
102720 On ch=2 n=a2 v=81
102864 On ch=2 n=a2 v=0
102864 On ch=2 n=a3 v=0
102960 On ch=2 n=a#3 v=82
102960 On ch=2 n=a#2 v=82
103032 On ch=2 n=a#2 v=0
103032 On ch=2 n=a#3 v=0
103080 On ch=2 n=a3 v=82
103080 On ch=2 n=a2 v=82
103152 On ch=2 n=a2 v=0
103152 On ch=2 n=a3 v=0
103176 Par ch=2 c=64 v=0
103200 On ch=2 n=g#3 v=83
103200 On ch=2 n=g#2 v=83
103272 On ch=2 n=g#2 v=0
103272 On ch=2 n=g#3 v=0
103320 On ch=2 n=g3 v=84
103320 On ch=2 n=g2 v=84
103392 On ch=2 n=g2 v=0
103392 On ch=2 n=g3 v=0
103440 On ch=2 n=f#3 v=84
103440 On ch=2 n=f#2 v=84
103512 On ch=2 n=f#2 v=0
103512 On ch=2 n=f#3 v=0
103560 On ch=2 n=e2 v=85
103560 On ch=2 n=e3 v=85
103632 On ch=2 n=e3 v=0
103632 On ch=2 n=e2 v=0
103680 On ch=2 n=d2 v=88
103680 On ch=2 n=d3 v=88
103728 Par ch=2 c=64 v=127
103920 On ch=2 n=d3 v=0
103920 On ch=2 n=d2 v=0
103920 On ch=2 n=d5 v=88
103920 On ch=2 n=a4 v=88
103920 On ch=2 n=f#4 v=88
103992 On ch=2 n=f#4 v=0
103992 On ch=2 n=a4 v=0
103992 On ch=2 n=d5 v=0
104040 On ch=2 n=d5 v=88
104040 On ch=2 n=a4 v=88
104040 On ch=2 n=f#4 v=88
104112 On ch=2 n=f#4 v=0
104112 On ch=2 n=a4 v=0
104112 On ch=2 n=d5 v=0
104160 On ch=2 n=d5 v=88
104160 On ch=2 n=a4 v=88
104160 On ch=2 n=f#4 v=88
104304 On ch=2 n=f#4 v=0
104304 On ch=2 n=a4 v=0
104304 On ch=2 n=d5 v=0
104400 On ch=2 n=d5 v=88
104400 On ch=2 n=a4 v=88
104400 On ch=2 n=f#4 v=88
104544 On ch=2 n=f#4 v=0
104544 On ch=2 n=a4 v=0
104544 On ch=2 n=d5 v=0
104616 Par ch=2 c=64 v=0
104640 On ch=2 n=c#5 v=88
104640 On ch=2 n=a4 v=88
104640 On ch=2 n=g4 v=88
104784 On ch=2 n=g4 v=0
104784 On ch=2 n=a4 v=0
104784 On ch=2 n=c#5 v=0
104880 On ch=2 n=g4 v=88
104880 On ch=2 n=a4 v=88
104880 On ch=2 n=c#5 v=88
105024 On ch=2 n=c#5 v=0
105024 On ch=2 n=a4 v=0
105024 On ch=2 n=g4 v=0
105120 On ch=2 n=d2 v=88
105120 On ch=2 n=d3 v=88
105168 Par ch=2 c=64 v=127
105360 On ch=2 n=d3 v=0
105360 On ch=2 n=d2 v=0
105360 On ch=2 n=d5 v=88
105360 On ch=2 n=f#4 v=88
105360 On ch=2 n=d4 v=88
105432 On ch=2 n=d4 v=0
105432 On ch=2 n=f#4 v=0
105432 On ch=2 n=d5 v=0
105480 On ch=2 n=d5 v=88
105480 On ch=2 n=f#4 v=88
105480 On ch=2 n=d4 v=88
105552 On ch=2 n=d4 v=0
105552 On ch=2 n=f#4 v=0
105552 On ch=2 n=d5 v=0
105600 On ch=2 n=d5 v=88
105600 On ch=2 n=f#4 v=88
105600 On ch=2 n=d4 v=88
105744 On ch=2 n=d4 v=0
105744 On ch=2 n=f#4 v=0
105744 On ch=2 n=d5 v=0
105840 On ch=2 n=d5 v=88
105840 On ch=2 n=a4 v=88
105840 On ch=2 n=f#4 v=88
105984 On ch=2 n=f#4 v=0
105984 On ch=2 n=a4 v=0
105984 On ch=2 n=d5 v=0
106056 Par ch=2 c=64 v=0
106080 On ch=2 n=d5 v=88
106080 On ch=2 n=g4 v=88
106080 On ch=2 n=e4 v=88
106224 On ch=2 n=e4 v=0
106224 On ch=2 n=g4 v=0
106224 On ch=2 n=d5 v=0
106320 On ch=2 n=d4 v=88
106320 On ch=2 n=f#4 v=88
106320 On ch=2 n=d5 v=88
106464 On ch=2 n=d5 v=0
106464 On ch=2 n=f#4 v=0
106464 On ch=2 n=d4 v=0
106560 On ch=2 n=a2 v=88
106560 On ch=2 n=a3 v=88
106608 Par ch=2 c=64 v=127
106800 On ch=2 n=a3 v=0
106800 On ch=2 n=a2 v=0
106800 On ch=2 n=a4 v=88
106800 On ch=2 n=e4 v=88
106800 On ch=2 n=c#4 v=88
106872 On ch=2 n=c#4 v=0
106872 On ch=2 n=e4 v=0
106872 On ch=2 n=a4 v=0
106920 On ch=2 n=a4 v=88
106920 On ch=2 n=e4 v=88
106920 On ch=2 n=c#4 v=88
106992 On ch=2 n=c#4 v=0
106992 On ch=2 n=e4 v=0
106992 On ch=2 n=a4 v=0
107040 On ch=2 n=a4 v=88
107040 On ch=2 n=e4 v=88
107040 On ch=2 n=c#4 v=88
107184 On ch=2 n=c#4 v=0
107184 On ch=2 n=e4 v=0
107184 On ch=2 n=a4 v=0
107280 On ch=2 n=a4 v=88
107280 On ch=2 n=e4 v=88
107280 On ch=2 n=c#4 v=88
107424 On ch=2 n=c#4 v=0
107424 On ch=2 n=e4 v=0
107424 On ch=2 n=a4 v=0
107496 Par ch=2 c=64 v=0
107520 On ch=2 n=a4 v=88
107520 On ch=2 n=d4 v=88
107520 On ch=2 n=b3 v=88
107664 On ch=2 n=b3 v=0
107664 On ch=2 n=d4 v=0
107664 On ch=2 n=a4 v=0
107760 On ch=2 n=b3 v=88
107760 On ch=2 n=d4 v=88
107760 On ch=2 n=a4 v=88
107904 On ch=2 n=a4 v=0
107904 On ch=2 n=d4 v=0
107904 On ch=2 n=b3 v=0
108000 On ch=2 n=a2 v=88
108000 On ch=2 n=a3 v=88
108048 Par ch=2 c=64 v=127
108240 On ch=2 n=a3 v=0
108240 On ch=2 n=a2 v=0
108240 On ch=2 n=a4 v=88
108240 On ch=2 n=e4 v=88
108240 On ch=2 n=c#4 v=88
108312 On ch=2 n=c#4 v=0
108312 On ch=2 n=e4 v=0
108312 On ch=2 n=a4 v=0
108360 On ch=2 n=a4 v=88
108360 On ch=2 n=e4 v=88
108360 On ch=2 n=c#4 v=88
108432 On ch=2 n=c#4 v=0
108432 On ch=2 n=e4 v=0
108432 On ch=2 n=a4 v=0
108480 On ch=2 n=a4 v=88
108480 On ch=2 n=e4 v=88
108480 On ch=2 n=c#4 v=88
108624 On ch=2 n=c#4 v=0
108624 On ch=2 n=e4 v=0
108624 On ch=2 n=a4 v=0
108720 On ch=2 n=a4 v=88
108720 On ch=2 n=e4 v=88
108720 On ch=2 n=c#4 v=88
108864 On ch=2 n=c#4 v=0
108864 On ch=2 n=e4 v=0
108864 On ch=2 n=a4 v=0
108936 Par ch=2 c=64 v=0
108960 On ch=2 n=a4 v=88
108960 On ch=2 n=d4 v=88
108960 On ch=2 n=b3 v=88
109104 On ch=2 n=b3 v=0
109104 On ch=2 n=d4 v=0
109104 On ch=2 n=a4 v=0
109200 On ch=2 n=a3 v=88
109200 On ch=2 n=c#4 v=88
109200 On ch=2 n=a4 v=88
109344 On ch=2 n=a4 v=0
109344 On ch=2 n=c#4 v=0
109344 On ch=2 n=a3 v=0
109440 On ch=2 n=f2 v=88
109440 On ch=2 n=f3 v=88
109488 Par ch=2 c=64 v=127
109680 On ch=2 n=f3 v=0
109680 On ch=2 n=f2 v=0
109680 On ch=2 n=f4 v=88
109680 On ch=2 n=c5 v=88
109680 On ch=2 n=d#5 v=88
109680 On ch=2 n=f5 v=88
109800 On ch=2 n=f5 v=0
109800 On ch=2 n=d#5 v=0
109800 On ch=2 n=c5 v=0
109800 On ch=2 n=f4 v=0
109800 On ch=2 n=f4 v=88
109800 On ch=2 n=c5 v=88
109800 On ch=2 n=d#5 v=88
109800 On ch=2 n=f5 v=88
109920 On ch=2 n=f5 v=0
109920 On ch=2 n=d#5 v=0
109920 On ch=2 n=c5 v=0
109920 On ch=2 n=f4 v=0
109920 On ch=2 n=f4 v=88
109920 On ch=2 n=c5 v=88
109920 On ch=2 n=d#5 v=88
109920 On ch=2 n=f5 v=88
110160 On ch=2 n=f5 v=0
110160 On ch=2 n=d#5 v=0
110160 On ch=2 n=c5 v=0
110160 On ch=2 n=f4 v=0
110160 On ch=2 n=f4 v=88
110160 On ch=2 n=c5 v=88
110160 On ch=2 n=d#5 v=88
110160 On ch=2 n=f5 v=88
110280 On ch=2 n=f5 v=0
110280 On ch=2 n=d#5 v=0
110280 On ch=2 n=c5 v=0
110280 On ch=2 n=f4 v=0
110280 Par ch=2 c=64 v=0
110280 On ch=2 n=f4 v=88
110280 On ch=2 n=c5 v=88
110280 On ch=2 n=d#5 v=88
110280 On ch=2 n=f5 v=88
110400 On ch=2 n=f5 v=0
110400 On ch=2 n=d#5 v=0
110400 On ch=2 n=c5 v=0
110400 On ch=2 n=f4 v=0
110400 On ch=2 n=a#4 v=88
110400 On ch=2 n=d5 v=88
110400 On ch=2 n=f5 v=88
110448 Par ch=2 c=64 v=127
110640 On ch=2 n=f5 v=0
110640 On ch=2 n=d5 v=0
110640 On ch=2 n=a#4 v=0
110640 On ch=2 n=a#3 v=88
110640 On ch=2 n=a#2 v=88
110856 Par ch=2 c=64 v=0
110880 On ch=2 n=a#2 v=0
110880 On ch=2 n=a#3 v=0
110880 On ch=2 n=g2 v=88
110880 On ch=2 n=g3 v=88
110928 Par ch=2 c=64 v=127
111120 On ch=2 n=g3 v=0
111120 On ch=2 n=g2 v=0
111120 On ch=2 n=g4 v=88
111120 On ch=2 n=d5 v=88
111120 On ch=2 n=f5 v=88
111120 On ch=2 n=g5 v=88
111240 On ch=2 n=g5 v=0
111240 On ch=2 n=f5 v=0
111240 On ch=2 n=d5 v=0
111240 On ch=2 n=g4 v=0
111240 On ch=2 n=g4 v=88
111240 On ch=2 n=d5 v=88
111240 On ch=2 n=f5 v=88
111240 On ch=2 n=g5 v=88
111360 On ch=2 n=g5 v=0
111360 On ch=2 n=f5 v=0
111360 On ch=2 n=d5 v=0
111360 On ch=2 n=g4 v=0
111360 On ch=2 n=g4 v=88
111360 On ch=2 n=d5 v=88
111360 On ch=2 n=f5 v=88
111360 On ch=2 n=g5 v=88
111600 On ch=2 n=g5 v=0
111600 On ch=2 n=f5 v=0
111600 On ch=2 n=d5 v=0
111600 On ch=2 n=g4 v=0
111600 On ch=2 n=g4 v=88
111600 On ch=2 n=d5 v=88
111600 On ch=2 n=f5 v=88
111600 On ch=2 n=g5 v=88
111720 On ch=2 n=g5 v=0
111720 On ch=2 n=f5 v=0
111720 On ch=2 n=d5 v=0
111720 On ch=2 n=g4 v=0
111720 On ch=2 n=g4 v=88
111720 Par ch=2 c=64 v=0
111720 On ch=2 n=d5 v=88
111720 On ch=2 n=f5 v=88
111720 On ch=2 n=g5 v=88
111840 On ch=2 n=g5 v=0
111840 On ch=2 n=f5 v=0
111840 On ch=2 n=d5 v=0
111840 On ch=2 n=g4 v=0
111840 On ch=2 n=c5 v=88
111840 On ch=2 n=e5 v=88
111840 On ch=2 n=g5 v=88
111888 Par ch=2 c=64 v=127
112080 On ch=2 n=g5 v=0
112080 On ch=2 n=e5 v=0
112080 On ch=2 n=c5 v=0
112080 On ch=2 n=c4 v=88
112080 On ch=2 n=c3 v=88
112296 Par ch=2 c=64 v=0
112320 On ch=2 n=c3 v=0
112320 On ch=2 n=c4 v=0
112320 On ch=2 n=a2 v=88
112320 On ch=2 n=a3 v=88
112368 Par ch=2 c=64 v=127
112560 On ch=2 n=a3 v=0
112560 On ch=2 n=a2 v=0
112560 On ch=2 n=a4 v=88
112560 On ch=2 n=c#5 v=88
112560 On ch=2 n=e5 v=88
112560 On ch=2 n=g5 v=88
112560 On ch=2 n=a5 v=88
112680 On ch=2 n=a5 v=0
112680 On ch=2 n=g5 v=0
112680 On ch=2 n=e5 v=0
112680 On ch=2 n=c#5 v=0
112680 On ch=2 n=a4 v=0
112680 On ch=2 n=a4 v=88
112680 On ch=2 n=c#5 v=88
112680 On ch=2 n=e5 v=88
112680 On ch=2 n=g5 v=88
112680 On ch=2 n=a5 v=88
112800 On ch=2 n=a5 v=0
112800 On ch=2 n=g5 v=0
112800 On ch=2 n=e5 v=0
112800 On ch=2 n=c#5 v=0
112800 On ch=2 n=a4 v=0
112800 On ch=2 n=a4 v=88
112800 On ch=2 n=c#5 v=88
112800 On ch=2 n=e5 v=88
112800 On ch=2 n=g5 v=88
112800 On ch=2 n=a5 v=88
113040 On ch=2 n=a5 v=0
113040 On ch=2 n=g5 v=0
113040 On ch=2 n=e5 v=0
113040 On ch=2 n=c#5 v=0
113040 On ch=2 n=a4 v=0
113040 On ch=2 n=a4 v=88
113040 On ch=2 n=c#5 v=88
113040 On ch=2 n=e5 v=88
113040 On ch=2 n=g5 v=88
113040 On ch=2 n=a5 v=88
113160 On ch=2 n=a5 v=0
113160 On ch=2 n=g5 v=0
113160 On ch=2 n=e5 v=0
113160 On ch=2 n=c#5 v=0
113160 On ch=2 n=a4 v=0
113160 On ch=2 n=a4 v=88
113160 On ch=2 n=c#5 v=88
113160 On ch=2 n=e5 v=88
113160 On ch=2 n=g5 v=88
113160 On ch=2 n=a5 v=88
113280 On ch=2 n=a5 v=0
113280 On ch=2 n=g5 v=0
113280 On ch=2 n=e5 v=0
113280 On ch=2 n=c#5 v=0
113280 On ch=2 n=a4 v=0
113280 On ch=2 n=a4 v=88
113280 On ch=2 n=c#5 v=88
113280 On ch=2 n=e5 v=88
113280 On ch=2 n=g5 v=88
113280 On ch=2 n=a5 v=88
113520 On ch=2 n=a5 v=0
113520 On ch=2 n=g5 v=0
113520 On ch=2 n=e5 v=0
113520 On ch=2 n=c#5 v=0
113520 On ch=2 n=a4 v=0
113520 On ch=2 n=a4 v=88
113520 On ch=2 n=c#5 v=88
113520 On ch=2 n=e5 v=88
113520 On ch=2 n=g5 v=88
113520 On ch=2 n=a5 v=88
113640 On ch=2 n=a5 v=0
113640 On ch=2 n=g5 v=0
113640 On ch=2 n=e5 v=0
113640 On ch=2 n=c#5 v=0
113640 On ch=2 n=a4 v=0
113640 On ch=2 n=a5 v=88
113640 On ch=2 n=g5 v=88
113640 On ch=2 n=e5 v=88
113640 On ch=2 n=c#5 v=88
113640 On ch=2 n=a4 v=88
113760 On ch=2 n=a4 v=0
113760 On ch=2 n=c#5 v=0
113760 On ch=2 n=e5 v=0
113760 On ch=2 n=g5 v=0
113760 On ch=2 n=a5 v=0
113760 On ch=2 n=a4 v=88
113760 On ch=2 n=c#5 v=88
113760 On ch=2 n=e5 v=88
113760 On ch=2 n=g5 v=88
113760 On ch=2 n=a5 v=88
114000 On ch=2 n=a5 v=0
114000 On ch=2 n=g5 v=0
114000 On ch=2 n=e5 v=0
114000 On ch=2 n=c#5 v=0
114000 On ch=2 n=a4 v=0
114000 On ch=2 n=a4 v=88
114000 On ch=2 n=c#5 v=88
114000 On ch=2 n=e5 v=88
114000 On ch=2 n=g5 v=88
114000 On ch=2 n=a5 v=88
114240 On ch=2 n=a5 v=0
114240 On ch=2 n=g5 v=0
114240 On ch=2 n=e5 v=0
114240 On ch=2 n=c#5 v=0
114240 On ch=2 n=a4 v=0
114240 On ch=2 n=a4 v=88
114240 On ch=2 n=c#5 v=88
114240 On ch=2 n=e5 v=88
114240 On ch=2 n=g5 v=88
114240 On ch=2 n=a5 v=88
114720 On ch=2 n=a5 v=0
114720 On ch=2 n=g5 v=0
114720 On ch=2 n=e5 v=0
114720 On ch=2 n=c#5 v=0
114720 On ch=2 n=a4 v=0
114720 On ch=2 n=d5 v=88
114720 On ch=2 n=f#5 v=88
114720 On ch=2 n=a5 v=88
114960 On ch=2 n=a5 v=0
114960 On ch=2 n=f#5 v=0
114960 On ch=2 n=d5 v=0
114960 Par ch=2 c=64 v=0
115200 On ch=2 n=c#3 v=88
115248 Par ch=2 c=64 v=127
115260 On ch=2 n=d3 v=48
115272 On ch=2 n=c#3 v=0
115320 On ch=2 n=c#3 v=49
115332 On ch=2 n=d3 v=0
115380 On ch=2 n=d3 v=51
115392 On ch=2 n=c#3 v=0
115440 On ch=2 n=c#3 v=52
115452 On ch=2 n=d3 v=0
115500 On ch=2 n=d3 v=53
115512 On ch=2 n=c#3 v=0
115560 On ch=2 n=c#3 v=55
115572 On ch=2 n=d3 v=0
115620 On ch=2 n=d3 v=56
115632 On ch=2 n=c#3 v=0
115680 On ch=2 n=c#3 v=57
115692 On ch=2 n=d3 v=0
115740 On ch=2 n=d3 v=59
115752 On ch=2 n=c#3 v=0
115800 On ch=2 n=c#3 v=60
115812 On ch=2 n=d3 v=0
115860 On ch=2 n=d3 v=61
115872 On ch=2 n=c#3 v=0
115920 On ch=2 n=c#3 v=63
115932 On ch=2 n=d3 v=0
115980 On ch=2 n=d3 v=64
115992 On ch=2 n=c#3 v=0
116040 On ch=2 n=c#3 v=65
116052 On ch=2 n=d3 v=0
116100 On ch=2 n=d3 v=67
116112 On ch=2 n=c#3 v=0
116160 On ch=2 n=c#3 v=68
116172 On ch=2 n=d3 v=0
116328 Par ch=2 c=64 v=0
116340 On ch=2 n=c#3 v=0
116400 On ch=2 n=c3 v=84
116460 On ch=2 n=c3 v=0
116460 On ch=2 n=c#3 v=76
116520 On ch=2 n=c#3 v=0
116520 On ch=2 n=d3 v=76
116580 On ch=2 n=d3 v=0
116580 On ch=2 n=e3 v=76
116640 On ch=2 n=e3 v=0
116640 On ch=2 n=a#2 v=76
116688 Par ch=2 c=64 v=127
116880 On ch=2 n=a#2 v=0
116880 On ch=2 n=d4 v=76
116880 On ch=2 n=g4 v=76
116880 On ch=2 n=d5 v=76
117000 On ch=2 n=d5 v=0
117000 On ch=2 n=g4 v=0
117000 On ch=2 n=d4 v=0
117000 On ch=2 n=d4 v=76
117000 On ch=2 n=g4 v=76
117000 On ch=2 n=d5 v=76
117120 On ch=2 n=d5 v=0
117120 On ch=2 n=g4 v=0
117120 On ch=2 n=d4 v=0
117120 On ch=2 n=d5 v=76
117120 On ch=2 n=g4 v=76
117120 On ch=2 n=d4 v=76
117264 On ch=2 n=d4 v=0
117264 On ch=2 n=g4 v=0
117264 On ch=2 n=d5 v=0
117360 On ch=2 n=d5 v=76
117360 On ch=2 n=g4 v=76
117360 On ch=2 n=d4 v=76
117504 On ch=2 n=d4 v=0
117504 On ch=2 n=g4 v=0
117504 On ch=2 n=d5 v=0
117600 On ch=2 n=d5 v=76
117600 On ch=2 n=g4 v=76
117600 On ch=2 n=d4 v=76
117744 On ch=2 n=d4 v=0
117744 On ch=2 n=g4 v=0
117744 On ch=2 n=d5 v=0
117840 On ch=2 n=d4 v=76
117840 On ch=2 n=g4 v=76
117840 On ch=2 n=d5 v=76
117984 On ch=2 n=d5 v=0
117984 On ch=2 n=g4 v=0
117984 On ch=2 n=d4 v=0
117984 Par ch=2 c=64 v=0
118080 On ch=2 n=d3 v=88
118128 Par ch=2 c=64 v=127
118140 On ch=2 n=e3 v=48
118152 On ch=2 n=d3 v=0
118200 On ch=2 n=d3 v=49
118212 On ch=2 n=e3 v=0
118260 On ch=2 n=e3 v=51
118272 On ch=2 n=d3 v=0
118320 On ch=2 n=d3 v=52
118332 On ch=2 n=e3 v=0
118380 On ch=2 n=e3 v=53
118392 On ch=2 n=d3 v=0
118440 On ch=2 n=d3 v=55
118452 On ch=2 n=e3 v=0
118500 On ch=2 n=e3 v=56
118512 On ch=2 n=d3 v=0
118560 On ch=2 n=d3 v=57
118572 On ch=2 n=e3 v=0
118620 On ch=2 n=e3 v=59
118632 On ch=2 n=d3 v=0
118680 On ch=2 n=d3 v=60
118692 On ch=2 n=e3 v=0
118740 On ch=2 n=e3 v=62
118752 On ch=2 n=d3 v=0
118800 On ch=2 n=d3 v=63
118812 On ch=2 n=e3 v=0
118860 On ch=2 n=e3 v=64
118872 On ch=2 n=d3 v=0
118920 On ch=2 n=d3 v=66
118932 On ch=2 n=e3 v=0
118980 On ch=2 n=e3 v=67
118992 On ch=2 n=d3 v=0
119040 On ch=2 n=d3 v=68
119052 On ch=2 n=e3 v=0
119208 Par ch=2 c=64 v=0
119220 On ch=2 n=d3 v=0
119280 On ch=2 n=c#3 v=84
119340 On ch=2 n=c#3 v=0
119340 On ch=2 n=d3 v=76
119400 On ch=2 n=d3 v=0
119400 On ch=2 n=e3 v=76
119460 On ch=2 n=e3 v=0
119460 On ch=2 n=f3 v=76
119520 On ch=2 n=f3 v=0
119520 On ch=2 n=b2 v=76
119568 Par ch=2 c=64 v=127
119760 On ch=2 n=b2 v=0
119760 On ch=2 n=d4 v=76
119760 On ch=2 n=g#4 v=76
119760 On ch=2 n=d5 v=76
119880 On ch=2 n=d5 v=0
119880 On ch=2 n=g#4 v=0
119880 On ch=2 n=d4 v=0
119880 On ch=2 n=d4 v=76
119880 On ch=2 n=g#4 v=76
119880 On ch=2 n=d5 v=76
120000 On ch=2 n=d5 v=0
120000 On ch=2 n=g#4 v=0
120000 On ch=2 n=d4 v=0
120000 On ch=2 n=d5 v=76
120000 On ch=2 n=g#4 v=76
120000 On ch=2 n=d4 v=76
120144 On ch=2 n=d4 v=0
120144 On ch=2 n=g#4 v=0
120144 On ch=2 n=d5 v=0
120240 On ch=2 n=d5 v=76
120240 On ch=2 n=g#4 v=76
120240 On ch=2 n=d4 v=76
120384 On ch=2 n=d4 v=0
120384 On ch=2 n=g#4 v=0
120384 On ch=2 n=d5 v=0
120480 On ch=2 n=d5 v=76
120480 On ch=2 n=g#4 v=76
120480 On ch=2 n=d4 v=76
120624 On ch=2 n=d4 v=0
120624 On ch=2 n=g#4 v=0
120624 On ch=2 n=d5 v=0
120720 On ch=2 n=d4 v=76
120720 On ch=2 n=g#4 v=76
120720 On ch=2 n=d5 v=76
120864 On ch=2 n=d5 v=0
120864 On ch=2 n=g#4 v=0
120864 On ch=2 n=d4 v=0
120864 Par ch=2 c=64 v=0
120960 On ch=2 n=d3 v=88
121008 Par ch=2 c=64 v=127
121020 On ch=2 n=e3 v=64
121032 On ch=2 n=d3 v=0
121080 On ch=2 n=d3 v=65
121092 On ch=2 n=e3 v=0
121140 On ch=2 n=e3 v=66
121152 On ch=2 n=d3 v=0
121200 On ch=2 n=d3 v=66
121212 On ch=2 n=e3 v=0
121260 On ch=2 n=e3 v=67
121272 On ch=2 n=d3 v=0
121320 On ch=2 n=d3 v=68
121332 On ch=2 n=e3 v=0
121380 On ch=2 n=e3 v=68
121392 On ch=2 n=d3 v=0
121440 On ch=2 n=d3 v=69
121452 On ch=2 n=e3 v=0
121500 On ch=2 n=e3 v=70
121512 On ch=2 n=d3 v=0
121560 On ch=2 n=d3 v=71
121572 On ch=2 n=e3 v=0
121620 On ch=2 n=e3 v=71
121632 On ch=2 n=d3 v=0
121680 On ch=2 n=d3 v=72
121692 On ch=2 n=e3 v=0
121740 On ch=2 n=e3 v=73
121752 On ch=2 n=d3 v=0
121800 On ch=2 n=d3 v=73
121812 On ch=2 n=e3 v=0
121872 On ch=2 n=d3 v=0
121896 Par ch=2 c=64 v=0
121920 On ch=2 n=c#3 v=75
122040 On ch=2 n=c#3 v=0
122040 On ch=2 n=d3 v=76
122160 On ch=2 n=d3 v=0
122160 On ch=2 n=f3 v=78
122280 On ch=2 n=f3 v=0
122280 On ch=2 n=f#3 v=76
122400 On ch=2 n=f#3 v=0
122400 On ch=2 n=c3 v=81
122448 Par ch=2 c=64 v=127
122640 On ch=2 n=c3 v=0
122640 On ch=2 n=d5 v=76
122640 On ch=2 n=f#4 v=76
122640 On ch=2 n=d4 v=76
122712 On ch=2 n=d4 v=0
122712 On ch=2 n=f#4 v=0
122712 On ch=2 n=d5 v=0
122760 On ch=2 n=d5 v=76
122760 On ch=2 n=f#4 v=76
122760 On ch=2 n=d4 v=76
122832 On ch=2 n=d4 v=0
122832 On ch=2 n=f#4 v=0
122832 On ch=2 n=d5 v=0
122880 On ch=2 n=d5 v=76
122880 On ch=2 n=f#4 v=76
122880 On ch=2 n=d4 v=76
123024 On ch=2 n=d4 v=0
123024 On ch=2 n=f#4 v=0
123024 On ch=2 n=d5 v=0
123120 On ch=2 n=d5 v=76
123120 On ch=2 n=f#4 v=76
123120 On ch=2 n=d4 v=76
123264 On ch=2 n=d4 v=0
123264 On ch=2 n=f#4 v=0
123264 On ch=2 n=d5 v=0
123336 Par ch=2 c=64 v=0
123360 On ch=2 n=c#3 v=92
123480 On ch=2 n=c#3 v=0
123480 On ch=2 n=d3 v=93
123600 On ch=2 n=d3 v=0
123600 On ch=2 n=f#3 v=76
123720 On ch=2 n=f#3 v=0
123720 On ch=2 n=g3 v=76
123840 On ch=2 n=g3 v=0
123840 On ch=2 n=b2 v=64
123888 Par ch=2 c=64 v=127
124080 On ch=2 n=b2 v=0
124080 On ch=2 n=d4 v=66
124080 On ch=2 n=g4 v=66
124080 On ch=2 n=d5 v=66
124200 On ch=2 n=d5 v=0
124200 On ch=2 n=g4 v=0
124200 On ch=2 n=d4 v=0
124200 On ch=2 n=d4 v=68
124200 On ch=2 n=g4 v=68
124200 On ch=2 n=d5 v=68
124320 On ch=2 n=d5 v=0
124320 On ch=2 n=g4 v=0
124320 On ch=2 n=d4 v=0
124320 Par ch=2 c=64 v=0
124320 On ch=2 n=d4 v=69
124320 On ch=2 n=g4 v=69
124320 On ch=2 n=d5 v=69
124560 On ch=2 n=d5 v=0
124560 On ch=2 n=g4 v=0
124560 On ch=2 n=d4 v=0
124560 On ch=2 n=a#2 v=72
124560 On ch=2 n=a#3 v=72
124584 Par ch=2 c=64 v=127
124680 On ch=2 n=a#3 v=0
124680 On ch=2 n=a#2 v=0
124680 On ch=2 n=a#2 v=73
124680 On ch=2 n=a#3 v=73
124800 On ch=2 n=a#3 v=0
124800 On ch=2 n=a#2 v=0
124800 On ch=2 n=a#2 v=75
124800 On ch=2 n=a#3 v=75
125040 On ch=2 n=a#3 v=0
125040 On ch=2 n=a#2 v=0
125040 On ch=2 n=a#3 v=78
125040 On ch=2 n=a#2 v=78
125256 Par ch=2 c=64 v=0
125280 On ch=2 n=a#2 v=0
125280 On ch=2 n=a#3 v=0
125280 On ch=2 n=a2 v=81
125280 On ch=2 n=a3 v=81
125520 On ch=2 n=a3 v=0
125520 On ch=2 n=a2 v=0
125520 On ch=2 n=b2 v=83
125520 On ch=2 n=b3 v=83
125544 Par ch=2 c=64 v=127
125760 On ch=2 n=b3 v=0
125760 On ch=2 n=b2 v=0
125760 Par ch=2 c=64 v=0
125760 On ch=2 n=a2 v=86
125760 On ch=2 n=a3 v=86
125808 Par ch=2 c=64 v=127
126000 On ch=2 n=a3 v=0
126000 On ch=2 n=a2 v=0
126000 Par ch=2 c=64 v=0
126000 On ch=2 n=g2 v=89
126000 On ch=2 n=g3 v=89
126024 Par ch=2 c=64 v=127
126240 On ch=2 n=g3 v=0
126240 On ch=2 n=g2 v=0
126240 Par ch=2 c=64 v=0
126240 On ch=2 n=f#2 v=92
126240 On ch=2 n=f#3 v=92
126288 Par ch=2 c=64 v=127
126480 On ch=2 n=f#3 v=0
126480 On ch=2 n=f#2 v=0
126480 Par ch=2 c=64 v=0
126480 On ch=2 n=e3 v=95
126480 On ch=2 n=e2 v=95
126504 Par ch=2 c=64 v=127
126696 Par ch=2 c=64 v=0
126720 On ch=2 n=e2 v=0
126720 On ch=2 n=e3 v=0
126720 On ch=2 n=d2 v=94
126720 On ch=2 n=d3 v=94
126768 Par ch=2 c=64 v=127
126960 On ch=2 n=d3 v=0
126960 On ch=2 n=d2 v=0
126960 On ch=2 n=d5 v=94
126960 On ch=2 n=a4 v=94
126960 On ch=2 n=f#4 v=94
127032 On ch=2 n=f#4 v=0
127032 On ch=2 n=a4 v=0
127032 On ch=2 n=d5 v=0
127080 On ch=2 n=d5 v=94
127080 On ch=2 n=a4 v=94
127080 On ch=2 n=f#4 v=94
127152 On ch=2 n=f#4 v=0
127152 On ch=2 n=a4 v=0
127152 On ch=2 n=d5 v=0
127200 On ch=2 n=d5 v=94
127200 On ch=2 n=a4 v=94
127200 On ch=2 n=f#4 v=94
127344 On ch=2 n=f#4 v=0
127344 On ch=2 n=a4 v=0
127344 On ch=2 n=d5 v=0
127440 On ch=2 n=d5 v=94
127440 On ch=2 n=a4 v=94
127440 On ch=2 n=f#4 v=94
127584 On ch=2 n=f#4 v=0
127584 On ch=2 n=a4 v=0
127584 On ch=2 n=d5 v=0
127656 Par ch=2 c=64 v=0
127680 On ch=2 n=c#5 v=94
127680 On ch=2 n=a4 v=94
127680 On ch=2 n=g4 v=94
127824 On ch=2 n=g4 v=0
127824 On ch=2 n=a4 v=0
127824 On ch=2 n=c#5 v=0
127920 On ch=2 n=g4 v=94
127920 On ch=2 n=a4 v=94
127920 On ch=2 n=c#5 v=94
128064 On ch=2 n=c#5 v=0
128064 On ch=2 n=a4 v=0
128064 On ch=2 n=g4 v=0
128160 On ch=2 n=d2 v=94
128160 On ch=2 n=d3 v=94
128208 Par ch=2 c=64 v=127
128400 On ch=2 n=d3 v=0
128400 On ch=2 n=d2 v=0
128400 On ch=2 n=f#4 v=94
128400 On ch=2 n=d4 v=94
128472 On ch=2 n=d4 v=0
128472 On ch=2 n=f#4 v=0
128520 On ch=2 n=f#4 v=94
128520 On ch=2 n=d4 v=94
128592 On ch=2 n=d4 v=0
128592 On ch=2 n=f#4 v=0
128640 On ch=2 n=f#4 v=94
128640 On ch=2 n=d4 v=94
128784 On ch=2 n=d4 v=0
128784 On ch=2 n=f#4 v=0
128880 On ch=2 n=a4 v=94
128880 On ch=2 n=f#4 v=94
129024 On ch=2 n=f#4 v=0
129024 On ch=2 n=a4 v=0
129096 Par ch=2 c=64 v=0
129120 On ch=2 n=a4 v=94
129120 On ch=2 n=g4 v=94
129120 On ch=2 n=e4 v=94
129264 On ch=2 n=e4 v=0
129264 On ch=2 n=g4 v=0
129264 On ch=2 n=a4 v=0
129360 On ch=2 n=d4 v=94
129360 On ch=2 n=f#4 v=94
129360 On ch=2 n=a4 v=94
129504 On ch=2 n=a4 v=0
129504 On ch=2 n=f#4 v=0
129504 On ch=2 n=d4 v=0
129600 On ch=2 n=a2 v=94
129600 On ch=2 n=a3 v=94
129648 Par ch=2 c=64 v=127
129840 On ch=2 n=a3 v=0
129840 On ch=2 n=a2 v=0
129840 On ch=2 n=a4 v=94
129840 On ch=2 n=e4 v=94
129840 On ch=2 n=c#4 v=94
129912 On ch=2 n=c#4 v=0
129912 On ch=2 n=e4 v=0
129912 On ch=2 n=a4 v=0
129960 On ch=2 n=a4 v=94
129960 On ch=2 n=e4 v=94
129960 On ch=2 n=c#4 v=94
130032 On ch=2 n=c#4 v=0
130032 On ch=2 n=e4 v=0
130032 On ch=2 n=a4 v=0
130080 On ch=2 n=a4 v=94
130080 On ch=2 n=e4 v=94
130080 On ch=2 n=c#4 v=94
130224 On ch=2 n=c#4 v=0
130224 On ch=2 n=e4 v=0
130224 On ch=2 n=a4 v=0
130320 On ch=2 n=a4 v=94
130320 On ch=2 n=e4 v=94
130320 On ch=2 n=c#4 v=94
130464 On ch=2 n=c#4 v=0
130464 On ch=2 n=e4 v=0
130464 On ch=2 n=a4 v=0
130536 Par ch=2 c=64 v=0
130560 On ch=2 n=a4 v=94
130560 On ch=2 n=d4 v=94
130560 On ch=2 n=b3 v=94
130704 On ch=2 n=b3 v=0
130704 On ch=2 n=d4 v=0
130704 On ch=2 n=a4 v=0
130800 On ch=2 n=b3 v=94
130800 On ch=2 n=d4 v=94
130800 On ch=2 n=a4 v=94
130944 On ch=2 n=a4 v=0
130944 On ch=2 n=d4 v=0
130944 On ch=2 n=b3 v=0
131040 On ch=2 n=a2 v=94
131040 On ch=2 n=a3 v=94
131088 Par ch=2 c=64 v=127
131280 On ch=2 n=a3 v=0
131280 On ch=2 n=a2 v=0
131280 On ch=2 n=c#4 v=94
131280 On ch=2 n=a3 v=94
131352 On ch=2 n=a3 v=0
131352 On ch=2 n=c#4 v=0
131400 On ch=2 n=c#4 v=94
131400 On ch=2 n=a3 v=94
131472 On ch=2 n=a3 v=0
131472 On ch=2 n=c#4 v=0
131520 On ch=2 n=c#4 v=94
131520 On ch=2 n=a3 v=94
131664 On ch=2 n=a3 v=0
131664 On ch=2 n=c#4 v=0
131760 On ch=2 n=e4 v=94
131760 On ch=2 n=c#4 v=94
131904 On ch=2 n=c#4 v=0
131904 On ch=2 n=e4 v=0
131976 Par ch=2 c=64 v=0
132000 On ch=2 n=e4 v=94
132000 On ch=2 n=d4 v=94
132000 On ch=2 n=b3 v=94
132144 On ch=2 n=b3 v=0
132144 On ch=2 n=d4 v=0
132144 On ch=2 n=e4 v=0
132240 On ch=2 n=a3 v=94
132240 On ch=2 n=c#4 v=94
132240 On ch=2 n=e4 v=94
132384 On ch=2 n=e4 v=0
132384 On ch=2 n=c#4 v=0
132384 On ch=2 n=a3 v=0
132480 On ch=2 n=g2 v=76
132480 On ch=2 n=g3 v=76
132528 Par ch=2 c=64 v=127
132720 On ch=2 n=g3 v=0
132720 On ch=2 n=g2 v=0
132720 On ch=2 n=g4 v=76
132720 On ch=2 n=g3 v=76
132810 On ch=2 n=g3 v=0
132810 On ch=2 n=g4 v=0
132840 On ch=2 n=g4 v=76
132840 On ch=2 n=g3 v=76
132930 On ch=2 n=g3 v=0
132930 On ch=2 n=g4 v=0
132960 On ch=2 n=g3 v=76
132960 On ch=2 n=g4 v=76
132984 Par ch=2 c=64 v=0
133200 On ch=2 n=g4 v=0
133200 On ch=2 n=g3 v=0
133200 On ch=2 n=f#3 v=77
133200 On ch=2 n=f#4 v=77
133440 On ch=2 n=f#4 v=0
133440 On ch=2 n=f#3 v=0
133440 On ch=2 n=b2 v=77
133440 On ch=2 n=b3 v=77
133680 On ch=2 n=b3 v=0
133680 On ch=2 n=b2 v=0
133680 On ch=2 n=a3 v=78
133680 On ch=2 n=a2 v=78
133920 On ch=2 n=a2 v=0
133920 On ch=2 n=a3 v=0
133920 On ch=2 n=d2 v=78
133920 On ch=2 n=d3 v=78
133944 Par ch=2 c=64 v=127
134160 On ch=2 n=d3 v=0
134160 On ch=2 n=d2 v=0
134160 On ch=2 n=d5 v=78
134160 On ch=2 n=d4 v=78
134250 On ch=2 n=d4 v=0
134250 On ch=2 n=d5 v=0
134280 On ch=2 n=d5 v=79
134280 On ch=2 n=d4 v=79
134370 On ch=2 n=d4 v=0
134370 On ch=2 n=d5 v=0
134400 On ch=2 n=d4 v=79
134400 On ch=2 n=d5 v=79
134616 Par ch=2 c=64 v=0
134640 On ch=2 n=d5 v=0
134640 On ch=2 n=d4 v=0
134640 On ch=2 n=c#4 v=79
134640 On ch=2 n=c#5 v=79
134880 On ch=2 n=c#5 v=0
134880 On ch=2 n=c#4 v=0
134880 On ch=2 n=f#3 v=80
134880 On ch=2 n=f#4 v=80
135120 On ch=2 n=f#4 v=0
135120 On ch=2 n=f#3 v=0
135120 On ch=2 n=e4 v=80
135120 On ch=2 n=e3 v=80
135360 On ch=2 n=e3 v=0
135360 On ch=2 n=e4 v=0
135360 On ch=2 n=a2 v=81
135360 On ch=2 n=a3 v=81
135384 Par ch=2 c=64 v=127
135600 On ch=2 n=a3 v=0
135600 On ch=2 n=a2 v=0
135600 On ch=2 n=a4 v=81
135600 On ch=2 n=e5 v=81
135600 On ch=2 n=g5 v=81
135600 On ch=2 n=a5 v=81
135720 On ch=2 n=a5 v=0
135720 On ch=2 n=g5 v=0
135720 On ch=2 n=e5 v=0
135720 On ch=2 n=a4 v=0
135720 On ch=2 n=a4 v=81
135720 On ch=2 n=e5 v=81
135720 On ch=2 n=g5 v=81
135720 On ch=2 n=a5 v=81
135840 On ch=2 n=a5 v=0
135840 On ch=2 n=g5 v=0
135840 On ch=2 n=e5 v=0
135840 On ch=2 n=a4 v=0
135840 On ch=2 n=a4 v=81
135840 On ch=2 n=e5 v=81
135840 On ch=2 n=g5 v=81
135840 On ch=2 n=a5 v=81
136080 On ch=2 n=a5 v=0
136080 On ch=2 n=g5 v=0
136080 On ch=2 n=e5 v=0
136080 On ch=2 n=a4 v=0
136080 On ch=2 n=a4 v=82
136080 On ch=2 n=e5 v=82
136080 On ch=2 n=g5 v=82
136080 On ch=2 n=a5 v=82
136200 On ch=2 n=a5 v=0
136200 On ch=2 n=g5 v=0
136200 On ch=2 n=e5 v=0
136200 On ch=2 n=a4 v=0
136200 On ch=2 n=a4 v=82
136200 On ch=2 n=e5 v=82
136200 On ch=2 n=g5 v=82
136200 On ch=2 n=a5 v=82
136272 Par ch=2 c=64 v=0
136320 On ch=2 n=a5 v=0
136320 On ch=2 n=g5 v=0
136320 On ch=2 n=e5 v=0
136320 On ch=2 n=a4 v=0
136320 On ch=2 n=a4 v=82
136320 On ch=2 n=f#5 v=82
136320 On ch=2 n=a5 v=82
136560 On ch=2 n=a5 v=0
136560 On ch=2 n=f#5 v=0
136560 On ch=2 n=a4 v=0
136560 On ch=2 n=a5 v=83
136560 On ch=2 n=f#5 v=83
136560 On ch=2 n=c5 v=83
136560 On ch=2 n=a4 v=83
136800 On ch=2 n=a4 v=0
136800 On ch=2 n=c5 v=0
136800 On ch=2 n=f#5 v=0
136800 On ch=2 n=a5 v=0
136800 On ch=2 n=a4 v=83
136800 On ch=2 n=c#5 v=83
136800 On ch=2 n=g5 v=83
136800 On ch=2 n=a5 v=83
137040 On ch=2 n=a5 v=0
137040 On ch=2 n=g5 v=0
137040 On ch=2 n=c#5 v=0
137040 On ch=2 n=a4 v=0
137040 On ch=2 n=a3 v=83
137040 On ch=2 n=a2 v=83
137064 Par ch=2 c=64 v=127
137112 On ch=2 n=a2 v=0
137112 On ch=2 n=a3 v=0
137160 On ch=2 n=a3 v=84
137160 On ch=2 n=a2 v=84
137232 On ch=2 n=a2 v=0
137232 On ch=2 n=a3 v=0
137280 On ch=2 n=a3 v=84
137280 On ch=2 n=a2 v=84
137424 On ch=2 n=a2 v=0
137424 On ch=2 n=a3 v=0
137520 On ch=2 n=a#3 v=84
137520 On ch=2 n=a#2 v=84
137592 On ch=2 n=a#2 v=0
137592 On ch=2 n=a#3 v=0
137640 On ch=2 n=a3 v=84
137640 On ch=2 n=a2 v=84
137712 On ch=2 n=a2 v=0
137712 On ch=2 n=a3 v=0
137736 Par ch=2 c=64 v=0
137760 On ch=2 n=g#3 v=85
137760 On ch=2 n=g#2 v=85
137832 On ch=2 n=g#2 v=0
137832 On ch=2 n=g#3 v=0
137880 On ch=2 n=g3 v=85
137880 On ch=2 n=g2 v=85
137952 On ch=2 n=g2 v=0
137952 On ch=2 n=g3 v=0
138000 On ch=2 n=f#3 v=85
138000 On ch=2 n=f#2 v=85
138072 On ch=2 n=f#2 v=0
138072 On ch=2 n=f#3 v=0
138120 On ch=2 n=e2 v=85
138120 On ch=2 n=e3 v=85
138192 On ch=2 n=e3 v=0
138192 On ch=2 n=e2 v=0
138240 On ch=2 n=d2 v=88
138240 On ch=2 n=d3 v=88
138288 Par ch=2 c=64 v=127
138480 On ch=2 n=d3 v=0
138480 On ch=2 n=d2 v=0
138480 On ch=2 n=d5 v=88
138480 On ch=2 n=a4 v=88
138480 On ch=2 n=f#4 v=88
138552 On ch=2 n=f#4 v=0
138552 On ch=2 n=a4 v=0
138552 On ch=2 n=d5 v=0
138600 On ch=2 n=d5 v=88
138600 On ch=2 n=a4 v=88
138600 On ch=2 n=f#4 v=88
138672 On ch=2 n=f#4 v=0
138672 On ch=2 n=a4 v=0
138672 On ch=2 n=d5 v=0
138720 On ch=2 n=d5 v=88
138720 On ch=2 n=a4 v=88
138720 On ch=2 n=f#4 v=88
138864 On ch=2 n=f#4 v=0
138864 On ch=2 n=a4 v=0
138864 On ch=2 n=d5 v=0
138960 On ch=2 n=d5 v=88
138960 On ch=2 n=a4 v=88
138960 On ch=2 n=f#4 v=88
139104 On ch=2 n=f#4 v=0
139104 On ch=2 n=a4 v=0
139104 On ch=2 n=d5 v=0
139176 Par ch=2 c=64 v=0
139200 On ch=2 n=c#5 v=88
139200 On ch=2 n=a4 v=88
139200 On ch=2 n=g4 v=88
139344 On ch=2 n=g4 v=0
139344 On ch=2 n=a4 v=0
139344 On ch=2 n=c#5 v=0
139440 On ch=2 n=g4 v=88
139440 On ch=2 n=a4 v=88
139440 On ch=2 n=c#5 v=88
139584 On ch=2 n=c#5 v=0
139584 On ch=2 n=a4 v=0
139584 On ch=2 n=g4 v=0
139680 On ch=2 n=d2 v=88
139680 On ch=2 n=d3 v=88
139728 Par ch=2 c=64 v=127
139920 On ch=2 n=d3 v=0
139920 On ch=2 n=d2 v=0
139920 On ch=2 n=d5 v=88
139920 On ch=2 n=f#4 v=88
139920 On ch=2 n=d4 v=88
139992 On ch=2 n=d4 v=0
139992 On ch=2 n=f#4 v=0
139992 On ch=2 n=d5 v=0
140040 On ch=2 n=d5 v=88
140040 On ch=2 n=f#4 v=88
140040 On ch=2 n=d4 v=88
140112 On ch=2 n=d4 v=0
140112 On ch=2 n=f#4 v=0
140112 On ch=2 n=d5 v=0
140160 On ch=2 n=d5 v=88
140160 On ch=2 n=f#4 v=88
140160 On ch=2 n=d4 v=88
140304 On ch=2 n=d4 v=0
140304 On ch=2 n=f#4 v=0
140304 On ch=2 n=d5 v=0
140400 On ch=2 n=d5 v=88
140400 On ch=2 n=a4 v=88
140400 On ch=2 n=f#4 v=88
140544 On ch=2 n=f#4 v=0
140544 On ch=2 n=a4 v=0
140544 On ch=2 n=d5 v=0
140616 Par ch=2 c=64 v=0
140640 On ch=2 n=d5 v=88
140640 On ch=2 n=g4 v=88
140640 On ch=2 n=e4 v=88
140784 On ch=2 n=e4 v=0
140784 On ch=2 n=g4 v=0
140784 On ch=2 n=d5 v=0
140880 On ch=2 n=d4 v=88
140880 On ch=2 n=f#4 v=88
140880 On ch=2 n=d5 v=88
141024 On ch=2 n=d5 v=0
141024 On ch=2 n=f#4 v=0
141024 On ch=2 n=d4 v=0
141120 On ch=2 n=a2 v=88
141120 On ch=2 n=a3 v=88
141168 Par ch=2 c=64 v=127
141360 On ch=2 n=a3 v=0
141360 On ch=2 n=a2 v=0
141360 On ch=2 n=a4 v=88
141360 On ch=2 n=e4 v=88
141360 On ch=2 n=c#4 v=88
141432 On ch=2 n=c#4 v=0
141432 On ch=2 n=e4 v=0
141432 On ch=2 n=a4 v=0
141480 On ch=2 n=a4 v=88
141480 On ch=2 n=e4 v=88
141480 On ch=2 n=c#4 v=88
141552 On ch=2 n=c#4 v=0
141552 On ch=2 n=e4 v=0
141552 On ch=2 n=a4 v=0
141600 On ch=2 n=a4 v=88
141600 On ch=2 n=e4 v=88
141600 On ch=2 n=c#4 v=88
141744 On ch=2 n=c#4 v=0
141744 On ch=2 n=e4 v=0
141744 On ch=2 n=a4 v=0
141840 On ch=2 n=a4 v=88
141840 On ch=2 n=e4 v=88
141840 On ch=2 n=c#4 v=88
141984 On ch=2 n=c#4 v=0
141984 On ch=2 n=e4 v=0
141984 On ch=2 n=a4 v=0
142056 Par ch=2 c=64 v=0
142080 On ch=2 n=a4 v=88
142080 On ch=2 n=d4 v=88
142080 On ch=2 n=b3 v=88
142224 On ch=2 n=b3 v=0
142224 On ch=2 n=d4 v=0
142224 On ch=2 n=a4 v=0
142320 On ch=2 n=b3 v=88
142320 On ch=2 n=d4 v=88
142320 On ch=2 n=a4 v=88
142464 On ch=2 n=a4 v=0
142464 On ch=2 n=d4 v=0
142464 On ch=2 n=b3 v=0
142560 On ch=2 n=a2 v=88
142560 On ch=2 n=a3 v=88
142608 Par ch=2 c=64 v=127
142800 On ch=2 n=a3 v=0
142800 On ch=2 n=a2 v=0
142800 On ch=2 n=a4 v=88
142800 On ch=2 n=e4 v=88
142800 On ch=2 n=c#4 v=88
142872 On ch=2 n=c#4 v=0
142872 On ch=2 n=e4 v=0
142872 On ch=2 n=a4 v=0
142920 On ch=2 n=a4 v=88
142920 On ch=2 n=e4 v=88
142920 On ch=2 n=c#4 v=88
142992 On ch=2 n=c#4 v=0
142992 On ch=2 n=e4 v=0
142992 On ch=2 n=a4 v=0
143040 On ch=2 n=a4 v=88
143040 On ch=2 n=e4 v=88
143040 On ch=2 n=c#4 v=88
143184 On ch=2 n=c#4 v=0
143184 On ch=2 n=e4 v=0
143184 On ch=2 n=a4 v=0
143280 On ch=2 n=a4 v=88
143280 On ch=2 n=e4 v=88
143280 On ch=2 n=c#4 v=88
143424 On ch=2 n=c#4 v=0
143424 On ch=2 n=e4 v=0
143424 On ch=2 n=a4 v=0
143496 Par ch=2 c=64 v=0
143520 On ch=2 n=a4 v=88
143520 On ch=2 n=d4 v=88
143520 On ch=2 n=b3 v=88
143664 On ch=2 n=b3 v=0
143664 On ch=2 n=d4 v=0
143664 On ch=2 n=a4 v=0
143760 On ch=2 n=a3 v=88
143760 On ch=2 n=c#4 v=88
143760 On ch=2 n=a4 v=88
143904 On ch=2 n=a4 v=0
143904 On ch=2 n=c#4 v=0
143904 On ch=2 n=a3 v=0
144000 On ch=2 n=f2 v=88
144000 On ch=2 n=f3 v=88
144048 Par ch=2 c=64 v=127
144240 On ch=2 n=f3 v=0
144240 On ch=2 n=f2 v=0
144240 On ch=2 n=f4 v=88
144240 On ch=2 n=c5 v=88
144240 On ch=2 n=d#5 v=88
144240 On ch=2 n=f5 v=88
144360 On ch=2 n=f5 v=0
144360 On ch=2 n=d#5 v=0
144360 On ch=2 n=c5 v=0
144360 On ch=2 n=f4 v=0
144360 On ch=2 n=f4 v=88
144360 On ch=2 n=c5 v=88
144360 On ch=2 n=d#5 v=88
144360 On ch=2 n=f5 v=88
144480 On ch=2 n=f5 v=0
144480 On ch=2 n=d#5 v=0
144480 On ch=2 n=c5 v=0
144480 On ch=2 n=f4 v=0
144480 On ch=2 n=f4 v=88
144480 On ch=2 n=c5 v=88
144480 On ch=2 n=d#5 v=88
144480 On ch=2 n=f5 v=88
144720 On ch=2 n=f5 v=0
144720 On ch=2 n=d#5 v=0
144720 On ch=2 n=c5 v=0
144720 On ch=2 n=f4 v=0
144720 On ch=2 n=f4 v=88
144720 On ch=2 n=c5 v=88
144720 On ch=2 n=d#5 v=88
144720 On ch=2 n=f5 v=88
144840 On ch=2 n=f5 v=0
144840 On ch=2 n=d#5 v=0
144840 On ch=2 n=c5 v=0
144840 On ch=2 n=f4 v=0
144840 Par ch=2 c=64 v=0
144840 On ch=2 n=f4 v=88
144840 On ch=2 n=c5 v=88
144840 On ch=2 n=d#5 v=88
144840 On ch=2 n=f5 v=88
144960 On ch=2 n=f5 v=0
144960 On ch=2 n=d#5 v=0
144960 On ch=2 n=c5 v=0
144960 On ch=2 n=f4 v=0
144960 On ch=2 n=a#4 v=88
144960 On ch=2 n=d5 v=88
144960 On ch=2 n=f5 v=88
145008 Par ch=2 c=64 v=127
145200 On ch=2 n=f5 v=0
145200 On ch=2 n=d5 v=0
145200 On ch=2 n=a#4 v=0
145200 On ch=2 n=a#3 v=88
145200 On ch=2 n=a#2 v=88
145416 Par ch=2 c=64 v=0
145440 On ch=2 n=a#2 v=0
145440 On ch=2 n=a#3 v=0
145440 On ch=2 n=g2 v=88
145440 On ch=2 n=g3 v=88
145488 Par ch=2 c=64 v=127
145680 On ch=2 n=g3 v=0
145680 On ch=2 n=g2 v=0
145680 On ch=2 n=g4 v=88
145680 On ch=2 n=d5 v=88
145680 On ch=2 n=f5 v=88
145680 On ch=2 n=g5 v=88
145800 On ch=2 n=g5 v=0
145800 On ch=2 n=f5 v=0
145800 On ch=2 n=d5 v=0
145800 On ch=2 n=g4 v=0
145800 On ch=2 n=g4 v=88
145800 On ch=2 n=d5 v=88
145800 On ch=2 n=f5 v=88
145800 On ch=2 n=g5 v=88
145920 On ch=2 n=g5 v=0
145920 On ch=2 n=f5 v=0
145920 On ch=2 n=d5 v=0
145920 On ch=2 n=g4 v=0
145920 On ch=2 n=g4 v=88
145920 On ch=2 n=d5 v=88
145920 On ch=2 n=f5 v=88
145920 On ch=2 n=g5 v=88
146160 On ch=2 n=g5 v=0
146160 On ch=2 n=f5 v=0
146160 On ch=2 n=d5 v=0
146160 On ch=2 n=g4 v=0
146160 On ch=2 n=g4 v=88
146160 On ch=2 n=d5 v=88
146160 On ch=2 n=f5 v=88
146160 On ch=2 n=g5 v=88
146280 On ch=2 n=g5 v=0
146280 On ch=2 n=f5 v=0
146280 On ch=2 n=d5 v=0
146280 On ch=2 n=g4 v=0
146280 On ch=2 n=g4 v=88
146280 Par ch=2 c=64 v=0
146280 On ch=2 n=d5 v=88
146280 On ch=2 n=f5 v=88
146280 On ch=2 n=g5 v=88
146400 On ch=2 n=g5 v=0
146400 On ch=2 n=f5 v=0
146400 On ch=2 n=d5 v=0
146400 On ch=2 n=g4 v=0
146400 On ch=2 n=c5 v=88
146400 On ch=2 n=e5 v=88
146400 On ch=2 n=g5 v=88
146448 Par ch=2 c=64 v=127
146640 On ch=2 n=g5 v=0
146640 On ch=2 n=e5 v=0
146640 On ch=2 n=c5 v=0
146640 On ch=2 n=c4 v=88
146640 On ch=2 n=c3 v=88
146856 Par ch=2 c=64 v=0
146880 On ch=2 n=c3 v=0
146880 On ch=2 n=c4 v=0
146880 On ch=2 n=a2 v=88
146880 On ch=2 n=a3 v=88
146928 Par ch=2 c=64 v=127
147120 On ch=2 n=a3 v=0
147120 On ch=2 n=a2 v=0
147120 On ch=2 n=a4 v=88
147120 On ch=2 n=c#5 v=88
147120 On ch=2 n=e5 v=88
147120 On ch=2 n=g5 v=88
147120 On ch=2 n=a5 v=88
147240 On ch=2 n=a5 v=0
147240 On ch=2 n=g5 v=0
147240 On ch=2 n=e5 v=0
147240 On ch=2 n=c#5 v=0
147240 On ch=2 n=a4 v=0
147240 On ch=2 n=a4 v=88
147240 On ch=2 n=c#5 v=88
147240 On ch=2 n=e5 v=88
147240 On ch=2 n=g5 v=88
147240 On ch=2 n=a5 v=88
147360 On ch=2 n=a5 v=0
147360 On ch=2 n=g5 v=0
147360 On ch=2 n=e5 v=0
147360 On ch=2 n=c#5 v=0
147360 On ch=2 n=a4 v=0
147360 On ch=2 n=a4 v=88
147360 On ch=2 n=c#5 v=88
147360 On ch=2 n=e5 v=88
147360 On ch=2 n=g5 v=88
147360 On ch=2 n=a5 v=88
147600 On ch=2 n=a5 v=0
147600 On ch=2 n=g5 v=0
147600 On ch=2 n=e5 v=0
147600 On ch=2 n=c#5 v=0
147600 On ch=2 n=a4 v=0
147600 On ch=2 n=a4 v=88
147600 On ch=2 n=c#5 v=88
147600 On ch=2 n=e5 v=88
147600 On ch=2 n=g5 v=88
147600 On ch=2 n=a5 v=88
147720 On ch=2 n=a5 v=0
147720 On ch=2 n=g5 v=0
147720 On ch=2 n=e5 v=0
147720 On ch=2 n=c#5 v=0
147720 On ch=2 n=a4 v=0
147720 On ch=2 n=a4 v=88
147720 On ch=2 n=c#5 v=88
147720 On ch=2 n=e5 v=88
147720 On ch=2 n=g5 v=88
147720 On ch=2 n=a5 v=88
147840 On ch=2 n=a5 v=0
147840 On ch=2 n=g5 v=0
147840 On ch=2 n=e5 v=0
147840 On ch=2 n=c#5 v=0
147840 On ch=2 n=a4 v=0
147840 On ch=2 n=a4 v=88
147840 On ch=2 n=c#5 v=88
147840 On ch=2 n=e5 v=88
147840 On ch=2 n=g5 v=88
147840 On ch=2 n=a5 v=88
148080 On ch=2 n=a5 v=0
148080 On ch=2 n=g5 v=0
148080 On ch=2 n=e5 v=0
148080 On ch=2 n=c#5 v=0
148080 On ch=2 n=a4 v=0
148080 On ch=2 n=a4 v=88
148080 On ch=2 n=c#5 v=88
148080 On ch=2 n=e5 v=88
148080 On ch=2 n=g5 v=88
148080 On ch=2 n=a5 v=88
148200 On ch=2 n=a5 v=0
148200 On ch=2 n=g5 v=0
148200 On ch=2 n=e5 v=0
148200 On ch=2 n=c#5 v=0
148200 On ch=2 n=a4 v=0
148200 On ch=2 n=a5 v=88
148200 On ch=2 n=g5 v=88
148200 On ch=2 n=e5 v=88
148200 On ch=2 n=c#5 v=88
148200 On ch=2 n=a4 v=88
148320 On ch=2 n=a4 v=0
148320 On ch=2 n=c#5 v=0
148320 On ch=2 n=e5 v=0
148320 On ch=2 n=g5 v=0
148320 On ch=2 n=a5 v=0
148320 On ch=2 n=a4 v=88
148320 On ch=2 n=c#5 v=88
148320 On ch=2 n=e5 v=88
148320 On ch=2 n=g5 v=88
148320 On ch=2 n=a5 v=88
148560 On ch=2 n=a5 v=0
148560 On ch=2 n=g5 v=0
148560 On ch=2 n=e5 v=0
148560 On ch=2 n=c#5 v=0
148560 On ch=2 n=a4 v=0
148560 On ch=2 n=a4 v=88
148560 On ch=2 n=c#5 v=88
148560 On ch=2 n=e5 v=88
148560 On ch=2 n=g5 v=88
148560 On ch=2 n=a5 v=88
148800 On ch=2 n=a5 v=0
148800 On ch=2 n=g5 v=0
148800 On ch=2 n=e5 v=0
148800 On ch=2 n=c#5 v=0
148800 On ch=2 n=a4 v=0
148800 On ch=2 n=a4 v=88
148800 On ch=2 n=c#5 v=88
148800 On ch=2 n=e5 v=88
148800 On ch=2 n=g5 v=88
148800 On ch=2 n=a5 v=88
149280 On ch=2 n=a5 v=0
149280 On ch=2 n=g5 v=0
149280 On ch=2 n=e5 v=0
149280 On ch=2 n=c#5 v=0
149280 On ch=2 n=a4 v=0
149280 On ch=2 n=d5 v=88
149280 On ch=2 n=f#5 v=88
149280 On ch=2 n=a5 v=88
149520 On ch=2 n=a5 v=0
149520 On ch=2 n=f#5 v=0
149520 On ch=2 n=d5 v=0
149520 Par ch=2 c=64 v=0
149760 On ch=2 n=c#3 v=88
149808 Par ch=2 c=64 v=127
149820 On ch=2 n=d3 v=48
149832 On ch=2 n=c#3 v=0
149880 On ch=2 n=c#3 v=49
149892 On ch=2 n=d3 v=0
149940 On ch=2 n=d3 v=51
149952 On ch=2 n=c#3 v=0
150000 On ch=2 n=c#3 v=52
150012 On ch=2 n=d3 v=0
150060 On ch=2 n=d3 v=53
150072 On ch=2 n=c#3 v=0
150120 On ch=2 n=c#3 v=55
150132 On ch=2 n=d3 v=0
150180 On ch=2 n=d3 v=56
150192 On ch=2 n=c#3 v=0
150240 On ch=2 n=c#3 v=57
150252 On ch=2 n=d3 v=0
150300 On ch=2 n=d3 v=59
150312 On ch=2 n=c#3 v=0
150360 On ch=2 n=c#3 v=60
150372 On ch=2 n=d3 v=0
150420 On ch=2 n=d3 v=61
150432 On ch=2 n=c#3 v=0
150480 On ch=2 n=c#3 v=63
150492 On ch=2 n=d3 v=0
150540 On ch=2 n=d3 v=64
150552 On ch=2 n=c#3 v=0
150600 On ch=2 n=c#3 v=65
150612 On ch=2 n=d3 v=0
150660 On ch=2 n=d3 v=67
150672 On ch=2 n=c#3 v=0
150720 On ch=2 n=c#3 v=68
150732 On ch=2 n=d3 v=0
150888 Par ch=2 c=64 v=0
150900 On ch=2 n=c#3 v=0
150960 On ch=2 n=c3 v=84
151020 On ch=2 n=c3 v=0
151020 On ch=2 n=c#3 v=76
151080 On ch=2 n=c#3 v=0
151080 On ch=2 n=d3 v=76
151140 On ch=2 n=d3 v=0
151140 On ch=2 n=e3 v=76
151200 On ch=2 n=e3 v=0
151200 On ch=2 n=a#2 v=76
151248 Par ch=2 c=64 v=127
151440 On ch=2 n=a#2 v=0
151440 On ch=2 n=d4 v=76
151440 On ch=2 n=g4 v=76
151440 On ch=2 n=d5 v=76
151560 On ch=2 n=d5 v=0
151560 On ch=2 n=g4 v=0
151560 On ch=2 n=d4 v=0
151560 On ch=2 n=d4 v=76
151560 On ch=2 n=g4 v=76
151560 On ch=2 n=d5 v=76
151680 On ch=2 n=d5 v=0
151680 On ch=2 n=g4 v=0
151680 On ch=2 n=d4 v=0
151680 On ch=2 n=d5 v=76
151680 On ch=2 n=g4 v=76
151680 On ch=2 n=d4 v=76
151824 On ch=2 n=d4 v=0
151824 On ch=2 n=g4 v=0
151824 On ch=2 n=d5 v=0
151920 On ch=2 n=d5 v=76
151920 On ch=2 n=g4 v=76
151920 On ch=2 n=d4 v=76
152064 On ch=2 n=d4 v=0
152064 On ch=2 n=g4 v=0
152064 On ch=2 n=d5 v=0
152160 On ch=2 n=d5 v=76
152160 On ch=2 n=g4 v=76
152160 On ch=2 n=d4 v=76
152304 On ch=2 n=d4 v=0
152304 On ch=2 n=g4 v=0
152304 On ch=2 n=d5 v=0
152400 On ch=2 n=d4 v=76
152400 On ch=2 n=g4 v=76
152400 On ch=2 n=d5 v=76
152544 On ch=2 n=d5 v=0
152544 On ch=2 n=g4 v=0
152544 On ch=2 n=d4 v=0
152544 Par ch=2 c=64 v=0
152640 On ch=2 n=d3 v=88
152688 Par ch=2 c=64 v=127
152700 On ch=2 n=e3 v=48
152712 On ch=2 n=d3 v=0
152760 On ch=2 n=d3 v=49
152772 On ch=2 n=e3 v=0
152820 On ch=2 n=e3 v=51
152832 On ch=2 n=d3 v=0
152880 On ch=2 n=d3 v=52
152892 On ch=2 n=e3 v=0
152940 On ch=2 n=e3 v=53
152952 On ch=2 n=d3 v=0
153000 On ch=2 n=d3 v=55
153012 On ch=2 n=e3 v=0
153060 On ch=2 n=e3 v=56
153072 On ch=2 n=d3 v=0
153120 On ch=2 n=d3 v=57
153132 On ch=2 n=e3 v=0
153180 On ch=2 n=e3 v=59
153192 On ch=2 n=d3 v=0
153240 On ch=2 n=d3 v=60
153252 On ch=2 n=e3 v=0
153300 On ch=2 n=e3 v=62
153312 On ch=2 n=d3 v=0
153360 On ch=2 n=d3 v=63
153372 On ch=2 n=e3 v=0
153420 On ch=2 n=e3 v=64
153432 On ch=2 n=d3 v=0
153480 On ch=2 n=d3 v=66
153492 On ch=2 n=e3 v=0
153540 On ch=2 n=e3 v=67
153552 On ch=2 n=d3 v=0
153600 On ch=2 n=d3 v=68
153612 On ch=2 n=e3 v=0
153768 Par ch=2 c=64 v=0
153780 On ch=2 n=d3 v=0
153840 On ch=2 n=c#3 v=84
153900 On ch=2 n=c#3 v=0
153900 On ch=2 n=d3 v=76
153960 On ch=2 n=d3 v=0
153960 On ch=2 n=e3 v=76
154020 On ch=2 n=e3 v=0
154020 On ch=2 n=f3 v=76
154080 On ch=2 n=f3 v=0
154080 On ch=2 n=b2 v=76
154128 Par ch=2 c=64 v=127
154320 On ch=2 n=b2 v=0
154320 On ch=2 n=d4 v=76
154320 On ch=2 n=g#4 v=76
154320 On ch=2 n=d5 v=76
154440 On ch=2 n=d5 v=0
154440 On ch=2 n=g#4 v=0
154440 On ch=2 n=d4 v=0
154440 On ch=2 n=d4 v=76
154440 On ch=2 n=g#4 v=76
154440 On ch=2 n=d5 v=76
154560 On ch=2 n=d5 v=0
154560 On ch=2 n=g#4 v=0
154560 On ch=2 n=d4 v=0
154560 On ch=2 n=d5 v=76
154560 On ch=2 n=g#4 v=76
154560 On ch=2 n=d4 v=76
154704 On ch=2 n=d4 v=0
154704 On ch=2 n=g#4 v=0
154704 On ch=2 n=d5 v=0
154800 On ch=2 n=d5 v=76
154800 On ch=2 n=g#4 v=76
154800 On ch=2 n=d4 v=76
154944 On ch=2 n=d4 v=0
154944 On ch=2 n=g#4 v=0
154944 On ch=2 n=d5 v=0
155040 On ch=2 n=d5 v=76
155040 On ch=2 n=g#4 v=76
155040 On ch=2 n=d4 v=76
155184 On ch=2 n=d4 v=0
155184 On ch=2 n=g#4 v=0
155184 On ch=2 n=d5 v=0
155280 On ch=2 n=d4 v=76
155280 On ch=2 n=g#4 v=76
155280 On ch=2 n=d5 v=76
155424 On ch=2 n=d5 v=0
155424 On ch=2 n=g#4 v=0
155424 On ch=2 n=d4 v=0
155424 Par ch=2 c=64 v=0
155520 On ch=2 n=d3 v=88
155568 Par ch=2 c=64 v=127
155580 On ch=2 n=e3 v=64
155592 On ch=2 n=d3 v=0
155640 On ch=2 n=d3 v=65
155652 On ch=2 n=e3 v=0
155700 On ch=2 n=e3 v=66
155712 On ch=2 n=d3 v=0
155760 On ch=2 n=d3 v=66
155772 On ch=2 n=e3 v=0
155820 On ch=2 n=e3 v=67
155832 On ch=2 n=d3 v=0
155880 On ch=2 n=d3 v=68
155892 On ch=2 n=e3 v=0
155940 On ch=2 n=e3 v=68
155952 On ch=2 n=d3 v=0
156000 On ch=2 n=d3 v=69
156012 On ch=2 n=e3 v=0
156060 On ch=2 n=e3 v=70
156072 On ch=2 n=d3 v=0
156120 On ch=2 n=d3 v=71
156132 On ch=2 n=e3 v=0
156180 On ch=2 n=e3 v=71
156192 On ch=2 n=d3 v=0
156240 On ch=2 n=d3 v=72
156252 On ch=2 n=e3 v=0
156300 On ch=2 n=e3 v=73
156312 On ch=2 n=d3 v=0
156360 On ch=2 n=d3 v=73
156372 On ch=2 n=e3 v=0
156432 On ch=2 n=d3 v=0
156456 Par ch=2 c=64 v=0
156480 On ch=2 n=c#3 v=75
156600 On ch=2 n=c#3 v=0
156600 On ch=2 n=d3 v=76
156720 On ch=2 n=d3 v=0
156720 On ch=2 n=f3 v=78
156840 On ch=2 n=f3 v=0
156840 On ch=2 n=f#3 v=76
156960 On ch=2 n=f#3 v=0
156960 On ch=2 n=c3 v=81
157008 Par ch=2 c=64 v=127
157200 On ch=2 n=c3 v=0
157200 On ch=2 n=d5 v=76
157200 On ch=2 n=f#4 v=76
157200 On ch=2 n=d4 v=76
157272 On ch=2 n=d4 v=0
157272 On ch=2 n=f#4 v=0
157272 On ch=2 n=d5 v=0
157320 On ch=2 n=d5 v=76
157320 On ch=2 n=f#4 v=76
157320 On ch=2 n=d4 v=76
157392 On ch=2 n=d4 v=0
157392 On ch=2 n=f#4 v=0
157392 On ch=2 n=d5 v=0
157440 On ch=2 n=d5 v=76
157440 On ch=2 n=f#4 v=76
157440 On ch=2 n=d4 v=76
157584 On ch=2 n=d4 v=0
157584 On ch=2 n=f#4 v=0
157584 On ch=2 n=d5 v=0
157680 On ch=2 n=d5 v=76
157680 On ch=2 n=f#4 v=76
157680 On ch=2 n=d4 v=76
157824 On ch=2 n=d4 v=0
157824 On ch=2 n=f#4 v=0
157824 On ch=2 n=d5 v=0
157896 Par ch=2 c=64 v=0
157920 On ch=2 n=c#3 v=92
158040 On ch=2 n=c#3 v=0
158040 On ch=2 n=d3 v=93
158160 On ch=2 n=d3 v=0
158160 On ch=2 n=f#3 v=76
158280 On ch=2 n=f#3 v=0
158280 On ch=2 n=g3 v=76
158400 On ch=2 n=g3 v=0
158400 On ch=2 n=b2 v=64
158448 Par ch=2 c=64 v=127
158640 On ch=2 n=b2 v=0
158640 On ch=2 n=d4 v=66
158640 On ch=2 n=g4 v=66
158640 On ch=2 n=d5 v=66
158760 On ch=2 n=d5 v=0
158760 On ch=2 n=g4 v=0
158760 On ch=2 n=d4 v=0
158760 On ch=2 n=d4 v=68
158760 On ch=2 n=g4 v=68
158760 On ch=2 n=d5 v=68
158880 On ch=2 n=d5 v=0
158880 On ch=2 n=g4 v=0
158880 On ch=2 n=d4 v=0
158880 Par ch=2 c=64 v=0
158880 On ch=2 n=d4 v=69
158880 On ch=2 n=g4 v=69
158880 On ch=2 n=d5 v=69
159120 On ch=2 n=d5 v=0
159120 On ch=2 n=g4 v=0
159120 On ch=2 n=d4 v=0
159120 On ch=2 n=a#2 v=72
159120 On ch=2 n=a#3 v=72
159144 Par ch=2 c=64 v=127
159240 On ch=2 n=a#3 v=0
159240 On ch=2 n=a#2 v=0
159240 On ch=2 n=a#2 v=73
159240 On ch=2 n=a#3 v=73
159360 On ch=2 n=a#3 v=0
159360 On ch=2 n=a#2 v=0
159360 On ch=2 n=a#2 v=75
159360 On ch=2 n=a#3 v=75
159600 On ch=2 n=a#3 v=0
159600 On ch=2 n=a#2 v=0
159600 On ch=2 n=a#3 v=78
159600 On ch=2 n=a#2 v=78
159816 Par ch=2 c=64 v=0
159840 On ch=2 n=a#2 v=0
159840 On ch=2 n=a#3 v=0
159840 On ch=2 n=a2 v=81
159840 On ch=2 n=a3 v=81
160080 On ch=2 n=a3 v=0
160080 On ch=2 n=a2 v=0
160080 On ch=2 n=b2 v=83
160080 On ch=2 n=b3 v=83
160104 Par ch=2 c=64 v=127
160320 On ch=2 n=b3 v=0
160320 On ch=2 n=b2 v=0
160320 Par ch=2 c=64 v=0
160320 On ch=2 n=a2 v=86
160320 On ch=2 n=a3 v=86
160368 Par ch=2 c=64 v=127
160560 On ch=2 n=a3 v=0
160560 On ch=2 n=a2 v=0
160560 Par ch=2 c=64 v=0
160560 On ch=2 n=g2 v=89
160560 On ch=2 n=g3 v=89
160584 Par ch=2 c=64 v=127
160800 On ch=2 n=g3 v=0
160800 On ch=2 n=g2 v=0
160800 Par ch=2 c=64 v=0
160800 On ch=2 n=f#2 v=92
160800 On ch=2 n=f#3 v=92
160848 Par ch=2 c=64 v=127
161040 On ch=2 n=f#3 v=0
161040 On ch=2 n=f#2 v=0
161040 Par ch=2 c=64 v=0
161040 On ch=2 n=e3 v=95
161040 On ch=2 n=e2 v=95
161064 Par ch=2 c=64 v=127
161256 Par ch=2 c=64 v=0
161280 On ch=2 n=e2 v=0
161280 On ch=2 n=e3 v=0
161280 On ch=2 n=d2 v=94
161280 On ch=2 n=d3 v=94
161328 Par ch=2 c=64 v=127
161520 On ch=2 n=d3 v=0
161520 On ch=2 n=d2 v=0
161520 On ch=2 n=d5 v=94
161520 On ch=2 n=a4 v=94
161520 On ch=2 n=f#4 v=94
161592 On ch=2 n=f#4 v=0
161592 On ch=2 n=a4 v=0
161592 On ch=2 n=d5 v=0
161640 On ch=2 n=d5 v=94
161640 On ch=2 n=a4 v=94
161640 On ch=2 n=f#4 v=94
161712 On ch=2 n=f#4 v=0
161712 On ch=2 n=a4 v=0
161712 On ch=2 n=d5 v=0
161760 On ch=2 n=d5 v=94
161760 On ch=2 n=a4 v=94
161760 On ch=2 n=f#4 v=94
161904 On ch=2 n=f#4 v=0
161904 On ch=2 n=a4 v=0
161904 On ch=2 n=d5 v=0
162000 On ch=2 n=d5 v=94
162000 On ch=2 n=a4 v=94
162000 On ch=2 n=f#4 v=94
162144 On ch=2 n=f#4 v=0
162144 On ch=2 n=a4 v=0
162144 On ch=2 n=d5 v=0
162216 Par ch=2 c=64 v=0
162240 On ch=2 n=c#5 v=94
162240 On ch=2 n=a4 v=94
162240 On ch=2 n=g4 v=94
162384 On ch=2 n=g4 v=0
162384 On ch=2 n=a4 v=0
162384 On ch=2 n=c#5 v=0
162480 On ch=2 n=g4 v=94
162480 On ch=2 n=a4 v=94
162480 On ch=2 n=c#5 v=94
162624 On ch=2 n=c#5 v=0
162624 On ch=2 n=a4 v=0
162624 On ch=2 n=g4 v=0
162720 On ch=2 n=d2 v=94
162720 On ch=2 n=d3 v=94
162768 Par ch=2 c=64 v=127
162960 On ch=2 n=d3 v=0
162960 On ch=2 n=d2 v=0
162960 On ch=2 n=f#4 v=94
162960 On ch=2 n=d4 v=94
163032 On ch=2 n=d4 v=0
163032 On ch=2 n=f#4 v=0
163080 On ch=2 n=f#4 v=94
163080 On ch=2 n=d4 v=94
163152 On ch=2 n=d4 v=0
163152 On ch=2 n=f#4 v=0
163200 On ch=2 n=f#4 v=94
163200 On ch=2 n=d4 v=94
163344 On ch=2 n=d4 v=0
163344 On ch=2 n=f#4 v=0
163440 On ch=2 n=a4 v=94
163440 On ch=2 n=f#4 v=94
163584 On ch=2 n=f#4 v=0
163584 On ch=2 n=a4 v=0
163656 Par ch=2 c=64 v=0
163680 On ch=2 n=a4 v=94
163680 On ch=2 n=g4 v=94
163680 On ch=2 n=e4 v=94
163824 On ch=2 n=e4 v=0
163824 On ch=2 n=g4 v=0
163824 On ch=2 n=a4 v=0
163920 On ch=2 n=d4 v=94
163920 On ch=2 n=f#4 v=94
163920 On ch=2 n=a4 v=94
164064 On ch=2 n=a4 v=0
164064 On ch=2 n=f#4 v=0
164064 On ch=2 n=d4 v=0
164160 On ch=2 n=a2 v=94
164160 On ch=2 n=a3 v=94
164208 Par ch=2 c=64 v=127
164400 On ch=2 n=a3 v=0
164400 On ch=2 n=a2 v=0
164400 On ch=2 n=a4 v=94
164400 On ch=2 n=e4 v=94
164400 On ch=2 n=c#4 v=94
164472 On ch=2 n=c#4 v=0
164472 On ch=2 n=e4 v=0
164472 On ch=2 n=a4 v=0
164520 On ch=2 n=a4 v=94
164520 On ch=2 n=e4 v=94
164520 On ch=2 n=c#4 v=94
164592 On ch=2 n=c#4 v=0
164592 On ch=2 n=e4 v=0
164592 On ch=2 n=a4 v=0
164640 On ch=2 n=a4 v=94
164640 On ch=2 n=e4 v=94
164640 On ch=2 n=c#4 v=94
164784 On ch=2 n=c#4 v=0
164784 On ch=2 n=e4 v=0
164784 On ch=2 n=a4 v=0
164880 On ch=2 n=a4 v=94
164880 On ch=2 n=e4 v=94
164880 On ch=2 n=c#4 v=94
165024 On ch=2 n=c#4 v=0
165024 On ch=2 n=e4 v=0
165024 On ch=2 n=a4 v=0
165096 Par ch=2 c=64 v=0
165120 On ch=2 n=a4 v=94
165120 On ch=2 n=d4 v=94
165120 On ch=2 n=b3 v=94
165264 On ch=2 n=b3 v=0
165264 On ch=2 n=d4 v=0
165264 On ch=2 n=a4 v=0
165360 On ch=2 n=b3 v=94
165360 On ch=2 n=d4 v=94
165360 On ch=2 n=a4 v=94
165504 On ch=2 n=a4 v=0
165504 On ch=2 n=d4 v=0
165504 On ch=2 n=b3 v=0
165600 On ch=2 n=a2 v=94
165600 On ch=2 n=a3 v=94
165648 Par ch=2 c=64 v=127
165840 On ch=2 n=a3 v=0
165840 On ch=2 n=a2 v=0
165840 On ch=2 n=c#4 v=94
165840 On ch=2 n=a3 v=94
165912 On ch=2 n=a3 v=0
165912 On ch=2 n=c#4 v=0
165960 On ch=2 n=c#4 v=94
165960 On ch=2 n=a3 v=94
166032 On ch=2 n=a3 v=0
166032 On ch=2 n=c#4 v=0
166080 On ch=2 n=c#4 v=94
166080 On ch=2 n=a3 v=94
166224 On ch=2 n=a3 v=0
166224 On ch=2 n=c#4 v=0
166320 On ch=2 n=e4 v=94
166320 On ch=2 n=c#4 v=94
166464 On ch=2 n=c#4 v=0
166464 On ch=2 n=e4 v=0
166536 Par ch=2 c=64 v=0
166560 On ch=2 n=e4 v=94
166560 On ch=2 n=d4 v=94
166560 On ch=2 n=b3 v=94
166704 On ch=2 n=b3 v=0
166704 On ch=2 n=d4 v=0
166704 On ch=2 n=e4 v=0
166800 On ch=2 n=a3 v=94
166800 On ch=2 n=c#4 v=94
166800 On ch=2 n=e4 v=94
166944 On ch=2 n=e4 v=0
166944 On ch=2 n=c#4 v=0
166944 On ch=2 n=a3 v=0
167040 On ch=2 n=g2 v=76
167040 On ch=2 n=g3 v=76
167088 Par ch=2 c=64 v=127
167280 On ch=2 n=g3 v=0
167280 On ch=2 n=g2 v=0
167280 On ch=2 n=g4 v=76
167280 On ch=2 n=g3 v=76
167370 On ch=2 n=g3 v=0
167370 On ch=2 n=g4 v=0
167400 On ch=2 n=g4 v=76
167400 On ch=2 n=g3 v=76
167490 On ch=2 n=g3 v=0
167490 On ch=2 n=g4 v=0
167520 On ch=2 n=g3 v=76
167520 On ch=2 n=g4 v=76
167544 Par ch=2 c=64 v=0
167760 On ch=2 n=g4 v=0
167760 On ch=2 n=g3 v=0
167760 On ch=2 n=f#3 v=77
167760 On ch=2 n=f#4 v=77
168000 On ch=2 n=f#4 v=0
168000 On ch=2 n=f#3 v=0
168000 On ch=2 n=b2 v=77
168000 On ch=2 n=b3 v=77
168240 On ch=2 n=b3 v=0
168240 On ch=2 n=b2 v=0
168240 On ch=2 n=a3 v=78
168240 On ch=2 n=a2 v=78
168480 On ch=2 n=a2 v=0
168480 On ch=2 n=a3 v=0
168480 On ch=2 n=d2 v=78
168480 On ch=2 n=d3 v=78
168504 Par ch=2 c=64 v=127
168720 On ch=2 n=d3 v=0
168720 On ch=2 n=d2 v=0
168720 On ch=2 n=d5 v=78
168720 On ch=2 n=d4 v=78
168810 On ch=2 n=d4 v=0
168810 On ch=2 n=d5 v=0
168840 On ch=2 n=d5 v=79
168840 On ch=2 n=d4 v=79
168930 On ch=2 n=d4 v=0
168930 On ch=2 n=d5 v=0
168960 On ch=2 n=d4 v=79
168960 On ch=2 n=d5 v=79
169176 Par ch=2 c=64 v=0
169200 On ch=2 n=d5 v=0
169200 On ch=2 n=d4 v=0
169200 On ch=2 n=c#4 v=79
169200 On ch=2 n=c#5 v=79
169440 On ch=2 n=c#5 v=0
169440 On ch=2 n=c#4 v=0
169440 On ch=2 n=f#3 v=80
169440 On ch=2 n=f#4 v=80
169680 On ch=2 n=f#4 v=0
169680 On ch=2 n=f#3 v=0
169680 On ch=2 n=e4 v=80
169680 On ch=2 n=e3 v=80
169920 On ch=2 n=e3 v=0
169920 On ch=2 n=e4 v=0
169920 On ch=2 n=a2 v=81
169920 On ch=2 n=a3 v=81
169944 Par ch=2 c=64 v=127
170160 On ch=2 n=a3 v=0
170160 On ch=2 n=a2 v=0
170160 On ch=2 n=a4 v=81
170160 On ch=2 n=e5 v=81
170160 On ch=2 n=g5 v=81
170160 On ch=2 n=a5 v=81
170280 On ch=2 n=a5 v=0
170280 On ch=2 n=g5 v=0
170280 On ch=2 n=e5 v=0
170280 On ch=2 n=a4 v=0
170280 On ch=2 n=a4 v=81
170280 On ch=2 n=e5 v=81
170280 On ch=2 n=g5 v=81
170280 On ch=2 n=a5 v=81
170400 On ch=2 n=a5 v=0
170400 On ch=2 n=g5 v=0
170400 On ch=2 n=e5 v=0
170400 On ch=2 n=a4 v=0
170400 On ch=2 n=a4 v=81
170400 On ch=2 n=e5 v=81
170400 On ch=2 n=g5 v=81
170400 On ch=2 n=a5 v=81
170640 On ch=2 n=a5 v=0
170640 On ch=2 n=g5 v=0
170640 On ch=2 n=e5 v=0
170640 On ch=2 n=a4 v=0
170640 On ch=2 n=a4 v=82
170640 On ch=2 n=e5 v=82
170640 On ch=2 n=g5 v=82
170640 On ch=2 n=a5 v=82
170760 On ch=2 n=a5 v=0
170760 On ch=2 n=g5 v=0
170760 On ch=2 n=e5 v=0
170760 On ch=2 n=a4 v=0
170760 On ch=2 n=a4 v=82
170760 On ch=2 n=e5 v=82
170760 On ch=2 n=g5 v=82
170760 On ch=2 n=a5 v=82
170832 Par ch=2 c=64 v=0
170880 On ch=2 n=a5 v=0
170880 On ch=2 n=g5 v=0
170880 On ch=2 n=e5 v=0
170880 On ch=2 n=a4 v=0
170880 On ch=2 n=a4 v=82
170880 On ch=2 n=f#5 v=82
170880 On ch=2 n=a5 v=82
171120 On ch=2 n=a5 v=0
171120 On ch=2 n=f#5 v=0
171120 On ch=2 n=a4 v=0
171120 On ch=2 n=a5 v=83
171120 On ch=2 n=f#5 v=83
171120 On ch=2 n=c5 v=83
171120 On ch=2 n=a4 v=83
171360 On ch=2 n=a4 v=0
171360 On ch=2 n=c5 v=0
171360 On ch=2 n=f#5 v=0
171360 On ch=2 n=a5 v=0
171360 On ch=2 n=a4 v=83
171360 On ch=2 n=c#5 v=83
171360 On ch=2 n=g5 v=83
171360 On ch=2 n=a5 v=83
171600 On ch=2 n=a5 v=0
171600 On ch=2 n=g5 v=0
171600 On ch=2 n=c#5 v=0
171600 On ch=2 n=a4 v=0
171600 On ch=2 n=a3 v=83
171600 On ch=2 n=a2 v=83
171624 Par ch=2 c=64 v=127
171672 On ch=2 n=a2 v=0
171672 On ch=2 n=a3 v=0
171720 On ch=2 n=a3 v=84
171720 On ch=2 n=a2 v=84
171792 On ch=2 n=a2 v=0
171792 On ch=2 n=a3 v=0
171840 On ch=2 n=a3 v=84
171840 On ch=2 n=a2 v=84
171984 On ch=2 n=a2 v=0
171984 On ch=2 n=a3 v=0
172080 On ch=2 n=a#3 v=84
172080 On ch=2 n=a#2 v=84
172152 On ch=2 n=a#2 v=0
172152 On ch=2 n=a#3 v=0
172200 On ch=2 n=a3 v=84
172200 On ch=2 n=a2 v=84
172272 On ch=2 n=a2 v=0
172272 On ch=2 n=a3 v=0
172296 Par ch=2 c=64 v=0
172320 On ch=2 n=g#3 v=85
172320 On ch=2 n=g#2 v=85
172392 On ch=2 n=g#2 v=0
172392 On ch=2 n=g#3 v=0
172440 On ch=2 n=g3 v=85
172440 On ch=2 n=g2 v=85
172512 On ch=2 n=g2 v=0
172512 On ch=2 n=g3 v=0
172560 On ch=2 n=f#3 v=85
172560 On ch=2 n=f#2 v=85
172632 On ch=2 n=f#2 v=0
172632 On ch=2 n=f#3 v=0
172680 On ch=2 n=e2 v=85
172680 On ch=2 n=e3 v=85
172752 On ch=2 n=e3 v=0
172752 On ch=2 n=e2 v=0
172800 On ch=2 n=d2 v=88
172800 On ch=2 n=d3 v=88
172848 Par ch=2 c=64 v=127
173040 On ch=2 n=d3 v=0
173040 On ch=2 n=d2 v=0
173040 On ch=2 n=d5 v=88
173040 On ch=2 n=a4 v=88
173040 On ch=2 n=f#4 v=88
173112 On ch=2 n=f#4 v=0
173112 On ch=2 n=a4 v=0
173112 On ch=2 n=d5 v=0
173160 On ch=2 n=d5 v=88
173160 On ch=2 n=a4 v=88
173160 On ch=2 n=f#4 v=88
173232 On ch=2 n=f#4 v=0
173232 On ch=2 n=a4 v=0
173232 On ch=2 n=d5 v=0
173280 On ch=2 n=d5 v=88
173280 On ch=2 n=a4 v=88
173280 On ch=2 n=f#4 v=88
173424 On ch=2 n=f#4 v=0
173424 On ch=2 n=a4 v=0
173424 On ch=2 n=d5 v=0
173520 On ch=2 n=d5 v=88
173520 On ch=2 n=a4 v=88
173520 On ch=2 n=f#4 v=88
173664 On ch=2 n=f#4 v=0
173664 On ch=2 n=a4 v=0
173664 On ch=2 n=d5 v=0
173736 Par ch=2 c=64 v=0
173760 On ch=2 n=c#5 v=88
173760 On ch=2 n=a4 v=88
173760 On ch=2 n=g4 v=88
173904 On ch=2 n=g4 v=0
173904 On ch=2 n=a4 v=0
173904 On ch=2 n=c#5 v=0
174000 On ch=2 n=g4 v=88
174000 On ch=2 n=a4 v=88
174000 On ch=2 n=c#5 v=88
174144 On ch=2 n=c#5 v=0
174144 On ch=2 n=a4 v=0
174144 On ch=2 n=g4 v=0
174240 On ch=2 n=d2 v=88
174240 On ch=2 n=d3 v=88
174288 Par ch=2 c=64 v=127
174480 On ch=2 n=d3 v=0
174480 On ch=2 n=d2 v=0
174480 On ch=2 n=d5 v=88
174480 On ch=2 n=f#4 v=88
174480 On ch=2 n=d4 v=88
174552 On ch=2 n=d4 v=0
174552 On ch=2 n=f#4 v=0
174552 On ch=2 n=d5 v=0
174600 On ch=2 n=d5 v=88
174600 On ch=2 n=f#4 v=88
174600 On ch=2 n=d4 v=88
174672 On ch=2 n=d4 v=0
174672 On ch=2 n=f#4 v=0
174672 On ch=2 n=d5 v=0
174720 On ch=2 n=d5 v=88
174720 On ch=2 n=f#4 v=88
174720 On ch=2 n=d4 v=88
174864 On ch=2 n=d4 v=0
174864 On ch=2 n=f#4 v=0
174864 On ch=2 n=d5 v=0
174960 On ch=2 n=d5 v=88
174960 On ch=2 n=a4 v=88
174960 On ch=2 n=f#4 v=88
175104 On ch=2 n=f#4 v=0
175104 On ch=2 n=a4 v=0
175104 On ch=2 n=d5 v=0
175176 Par ch=2 c=64 v=0
175200 On ch=2 n=d5 v=88
175200 On ch=2 n=g4 v=88
175200 On ch=2 n=e4 v=88
175344 On ch=2 n=e4 v=0
175344 On ch=2 n=g4 v=0
175344 On ch=2 n=d5 v=0
175440 On ch=2 n=d4 v=88
175440 On ch=2 n=f#4 v=88
175440 On ch=2 n=d5 v=88
175584 On ch=2 n=d5 v=0
175584 On ch=2 n=f#4 v=0
175584 On ch=2 n=d4 v=0
175680 On ch=2 n=a2 v=88
175680 On ch=2 n=a3 v=88
175728 Par ch=2 c=64 v=127
175920 On ch=2 n=a3 v=0
175920 On ch=2 n=a2 v=0
175920 On ch=2 n=a4 v=88
175920 On ch=2 n=e4 v=88
175920 On ch=2 n=c#4 v=88
175992 On ch=2 n=c#4 v=0
175992 On ch=2 n=e4 v=0
175992 On ch=2 n=a4 v=0
176040 On ch=2 n=a4 v=88
176040 On ch=2 n=e4 v=88
176040 On ch=2 n=c#4 v=88
176112 On ch=2 n=c#4 v=0
176112 On ch=2 n=e4 v=0
176112 On ch=2 n=a4 v=0
176160 On ch=2 n=a4 v=88
176160 On ch=2 n=e4 v=88
176160 On ch=2 n=c#4 v=88
176304 On ch=2 n=c#4 v=0
176304 On ch=2 n=e4 v=0
176304 On ch=2 n=a4 v=0
176400 On ch=2 n=a4 v=88
176400 On ch=2 n=e4 v=88
176400 On ch=2 n=c#4 v=88
176544 On ch=2 n=c#4 v=0
176544 On ch=2 n=e4 v=0
176544 On ch=2 n=a4 v=0
176616 Par ch=2 c=64 v=0
176640 On ch=2 n=a4 v=88
176640 On ch=2 n=d4 v=88
176640 On ch=2 n=b3 v=88
176784 On ch=2 n=b3 v=0
176784 On ch=2 n=d4 v=0
176784 On ch=2 n=a4 v=0
176880 On ch=2 n=b3 v=88
176880 On ch=2 n=d4 v=88
176880 On ch=2 n=a4 v=88
177024 On ch=2 n=a4 v=0
177024 On ch=2 n=d4 v=0
177024 On ch=2 n=b3 v=0
177120 On ch=2 n=a2 v=88
177120 On ch=2 n=a3 v=88
177168 Par ch=2 c=64 v=127
177360 On ch=2 n=a3 v=0
177360 On ch=2 n=a2 v=0
177360 On ch=2 n=a4 v=88
177360 On ch=2 n=e4 v=88
177360 On ch=2 n=c#4 v=88
177432 On ch=2 n=c#4 v=0
177432 On ch=2 n=e4 v=0
177432 On ch=2 n=a4 v=0
177480 On ch=2 n=a4 v=88
177480 On ch=2 n=e4 v=88
177480 On ch=2 n=c#4 v=88
177552 On ch=2 n=c#4 v=0
177552 On ch=2 n=e4 v=0
177552 On ch=2 n=a4 v=0
177600 On ch=2 n=a4 v=88
177600 On ch=2 n=e4 v=88
177600 On ch=2 n=c#4 v=88
177744 On ch=2 n=c#4 v=0
177744 On ch=2 n=e4 v=0
177744 On ch=2 n=a4 v=0
177840 On ch=2 n=a4 v=88
177840 On ch=2 n=e4 v=88
177840 On ch=2 n=c#4 v=88
177984 On ch=2 n=c#4 v=0
177984 On ch=2 n=e4 v=0
177984 On ch=2 n=a4 v=0
178056 Par ch=2 c=64 v=0
178080 On ch=2 n=a4 v=88
178080 On ch=2 n=d4 v=88
178080 On ch=2 n=b3 v=88
178224 On ch=2 n=b3 v=0
178224 On ch=2 n=d4 v=0
178224 On ch=2 n=a4 v=0
178320 On ch=2 n=a3 v=88
178320 On ch=2 n=c#4 v=88
178320 On ch=2 n=a4 v=88
178464 On ch=2 n=a4 v=0
178464 On ch=2 n=c#4 v=0
178464 On ch=2 n=a3 v=0
178560 On ch=2 n=f2 v=88
178560 On ch=2 n=f3 v=88
178608 Par ch=2 c=64 v=127
178800 On ch=2 n=f3 v=0
178800 On ch=2 n=f2 v=0
178800 On ch=2 n=f4 v=88
178800 On ch=2 n=c5 v=88
178800 On ch=2 n=d#5 v=88
178800 On ch=2 n=f5 v=88
178920 On ch=2 n=f5 v=0
178920 On ch=2 n=d#5 v=0
178920 On ch=2 n=c5 v=0
178920 On ch=2 n=f4 v=0
178920 On ch=2 n=f4 v=88
178920 On ch=2 n=c5 v=88
178920 On ch=2 n=d#5 v=88
178920 On ch=2 n=f5 v=88
179040 On ch=2 n=f5 v=0
179040 On ch=2 n=d#5 v=0
179040 On ch=2 n=c5 v=0
179040 On ch=2 n=f4 v=0
179040 On ch=2 n=f4 v=88
179040 On ch=2 n=c5 v=88
179040 On ch=2 n=d#5 v=88
179040 On ch=2 n=f5 v=88
179280 On ch=2 n=f5 v=0
179280 On ch=2 n=d#5 v=0
179280 On ch=2 n=c5 v=0
179280 On ch=2 n=f4 v=0
179280 On ch=2 n=f4 v=88
179280 On ch=2 n=c5 v=88
179280 On ch=2 n=d#5 v=88
179280 On ch=2 n=f5 v=88
179400 On ch=2 n=f5 v=0
179400 On ch=2 n=d#5 v=0
179400 On ch=2 n=c5 v=0
179400 On ch=2 n=f4 v=0
179400 Par ch=2 c=64 v=0
179400 On ch=2 n=f4 v=88
179400 On ch=2 n=c5 v=88
179400 On ch=2 n=d#5 v=88
179400 On ch=2 n=f5 v=88
179520 On ch=2 n=f5 v=0
179520 On ch=2 n=d#5 v=0
179520 On ch=2 n=c5 v=0
179520 On ch=2 n=f4 v=0
179520 On ch=2 n=a#4 v=88
179520 On ch=2 n=d5 v=88
179520 On ch=2 n=f5 v=88
179568 Par ch=2 c=64 v=127
179760 On ch=2 n=f5 v=0
179760 On ch=2 n=d5 v=0
179760 On ch=2 n=a#4 v=0
179760 On ch=2 n=a#3 v=88
179760 On ch=2 n=a#2 v=88
179976 Par ch=2 c=64 v=0
180000 On ch=2 n=a#2 v=0
180000 On ch=2 n=a#3 v=0
180000 On ch=2 n=g2 v=88
180000 On ch=2 n=g3 v=88
180048 Par ch=2 c=64 v=127
180240 On ch=2 n=g3 v=0
180240 On ch=2 n=g2 v=0
180240 On ch=2 n=g4 v=88
180240 On ch=2 n=d5 v=88
180240 On ch=2 n=f5 v=88
180240 On ch=2 n=g5 v=88
180360 On ch=2 n=g5 v=0
180360 On ch=2 n=f5 v=0
180360 On ch=2 n=d5 v=0
180360 On ch=2 n=g4 v=0
180360 On ch=2 n=g4 v=88
180360 On ch=2 n=d5 v=88
180360 On ch=2 n=f5 v=88
180360 On ch=2 n=g5 v=88
180480 On ch=2 n=g5 v=0
180480 On ch=2 n=f5 v=0
180480 On ch=2 n=d5 v=0
180480 On ch=2 n=g4 v=0
180480 On ch=2 n=g4 v=88
180480 On ch=2 n=d5 v=88
180480 On ch=2 n=f5 v=88
180480 On ch=2 n=g5 v=88
180720 On ch=2 n=g5 v=0
180720 On ch=2 n=f5 v=0
180720 On ch=2 n=d5 v=0
180720 On ch=2 n=g4 v=0
180720 On ch=2 n=g4 v=88
180720 On ch=2 n=d5 v=88
180720 On ch=2 n=f5 v=88
180720 On ch=2 n=g5 v=88
180840 On ch=2 n=g5 v=0
180840 On ch=2 n=f5 v=0
180840 On ch=2 n=d5 v=0
180840 On ch=2 n=g4 v=0
180840 On ch=2 n=g4 v=88
180840 Par ch=2 c=64 v=0
180840 On ch=2 n=d5 v=88
180840 On ch=2 n=f5 v=88
180840 On ch=2 n=g5 v=88
180960 On ch=2 n=g5 v=0
180960 On ch=2 n=f5 v=0
180960 On ch=2 n=d5 v=0
180960 On ch=2 n=g4 v=0
180960 On ch=2 n=c5 v=88
180960 On ch=2 n=e5 v=88
180960 On ch=2 n=g5 v=88
181008 Par ch=2 c=64 v=127
181200 On ch=2 n=g5 v=0
181200 On ch=2 n=e5 v=0
181200 On ch=2 n=c5 v=0
181200 On ch=2 n=c4 v=88
181200 On ch=2 n=c3 v=88
181416 Par ch=2 c=64 v=0
181440 On ch=2 n=c3 v=0
181440 On ch=2 n=c4 v=0
181440 On ch=2 n=a2 v=88
181440 On ch=2 n=a3 v=88
181488 Par ch=2 c=64 v=127
181680 On ch=2 n=a3 v=0
181680 On ch=2 n=a2 v=0
181680 On ch=2 n=a4 v=88
181680 On ch=2 n=c#5 v=88
181680 On ch=2 n=e5 v=88
181680 On ch=2 n=g5 v=88
181680 On ch=2 n=a5 v=88
181800 On ch=2 n=a5 v=0
181800 On ch=2 n=g5 v=0
181800 On ch=2 n=e5 v=0
181800 On ch=2 n=c#5 v=0
181800 On ch=2 n=a4 v=0
181800 On ch=2 n=a4 v=88
181800 On ch=2 n=c#5 v=88
181800 On ch=2 n=e5 v=88
181800 On ch=2 n=g5 v=88
181800 On ch=2 n=a5 v=88
181920 On ch=2 n=a5 v=0
181920 On ch=2 n=g5 v=0
181920 On ch=2 n=e5 v=0
181920 On ch=2 n=c#5 v=0
181920 On ch=2 n=a4 v=0
181920 On ch=2 n=a4 v=88
181920 On ch=2 n=c#5 v=88
181920 On ch=2 n=e5 v=88
181920 On ch=2 n=g5 v=88
181920 On ch=2 n=a5 v=88
182160 On ch=2 n=a5 v=0
182160 On ch=2 n=g5 v=0
182160 On ch=2 n=e5 v=0
182160 On ch=2 n=c#5 v=0
182160 On ch=2 n=a4 v=0
182160 On ch=2 n=a4 v=88
182160 On ch=2 n=c#5 v=88
182160 On ch=2 n=e5 v=88
182160 On ch=2 n=g5 v=88
182160 On ch=2 n=a5 v=88
182280 On ch=2 n=a5 v=0
182280 On ch=2 n=g5 v=0
182280 On ch=2 n=e5 v=0
182280 On ch=2 n=c#5 v=0
182280 On ch=2 n=a4 v=0
182280 On ch=2 n=a4 v=88
182280 On ch=2 n=c#5 v=88
182280 On ch=2 n=e5 v=88
182280 On ch=2 n=g5 v=88
182280 On ch=2 n=a5 v=88
182400 On ch=2 n=a5 v=0
182400 On ch=2 n=g5 v=0
182400 On ch=2 n=e5 v=0
182400 On ch=2 n=c#5 v=0
182400 On ch=2 n=a4 v=0
182400 On ch=2 n=a4 v=88
182400 On ch=2 n=c#5 v=88
182400 On ch=2 n=e5 v=88
182400 On ch=2 n=g5 v=88
182400 On ch=2 n=a5 v=88
182640 On ch=2 n=a5 v=0
182640 On ch=2 n=g5 v=0
182640 On ch=2 n=e5 v=0
182640 On ch=2 n=c#5 v=0
182640 On ch=2 n=a4 v=0
182640 On ch=2 n=a4 v=88
182640 On ch=2 n=c#5 v=88
182640 On ch=2 n=e5 v=88
182640 On ch=2 n=g5 v=88
182640 On ch=2 n=a5 v=88
182760 On ch=2 n=a5 v=0
182760 On ch=2 n=g5 v=0
182760 On ch=2 n=e5 v=0
182760 On ch=2 n=c#5 v=0
182760 On ch=2 n=a4 v=0
182760 On ch=2 n=a5 v=88
182760 On ch=2 n=g5 v=88
182760 On ch=2 n=e5 v=88
182760 On ch=2 n=c#5 v=88
182760 On ch=2 n=a4 v=88
182880 On ch=2 n=a4 v=0
182880 On ch=2 n=c#5 v=0
182880 On ch=2 n=e5 v=0
182880 On ch=2 n=g5 v=0
182880 On ch=2 n=a5 v=0
182880 On ch=2 n=a4 v=83
182880 On ch=2 n=c#5 v=83
182880 On ch=2 n=e5 v=83
182880 On ch=2 n=g5 v=83
182880 On ch=2 n=a5 v=83
183120 On ch=2 n=a5 v=0
183120 On ch=2 n=g5 v=0
183120 On ch=2 n=e5 v=0
183120 On ch=2 n=c#5 v=0
183120 On ch=2 n=a4 v=0
183120 On ch=2 n=a4 v=83
183120 On ch=2 n=c#5 v=83
183120 On ch=2 n=e5 v=83
183120 On ch=2 n=g5 v=83
183120 On ch=2 n=a5 v=83
183360 On ch=2 n=a5 v=0
183360 On ch=2 n=g5 v=0
183360 On ch=2 n=e5 v=0
183360 On ch=2 n=c#5 v=0
183360 On ch=2 n=a4 v=0
183360 On ch=2 n=a4 v=82
183360 On ch=2 n=c#5 v=82
183360 On ch=2 n=e5 v=82
183360 On ch=2 n=g5 v=82
183360 On ch=2 n=a5 v=82
183840 On ch=2 n=a5 v=0
183840 On ch=2 n=g5 v=0
183840 On ch=2 n=e5 v=0
183840 On ch=2 n=c#5 v=0
183840 On ch=2 n=a4 v=0
183840 On ch=2 n=d5 v=80
183840 On ch=2 n=f#5 v=80
183840 On ch=2 n=a5 v=80
184080 On ch=2 n=a5 v=0
184080 On ch=2 n=f#5 v=0
184080 On ch=2 n=d5 v=0
184080 Par ch=2 c=64 v=0
184320 On ch=2 n=a2 v=88
184320 On ch=2 n=a3 v=88
184368 Par ch=2 c=64 v=127
184560 On ch=2 n=a3 v=0
184560 On ch=2 n=a2 v=0
184680 On ch=2 n=a3 v=87
184680 On ch=2 n=e4 v=87
184680 On ch=2 n=a4 v=87
184800 On ch=2 n=a4 v=0
184800 On ch=2 n=e4 v=0
184800 On ch=2 n=a3 v=0
184800 On ch=2 n=a3 v=87
184800 On ch=2 n=e4 v=87
184800 On ch=2 n=a4 v=87
185040 On ch=2 n=a4 v=0
185040 On ch=2 n=e4 v=0
185040 On ch=2 n=a3 v=0
185160 On ch=2 n=a3 v=86
185160 On ch=2 n=e4 v=86
185160 On ch=2 n=a4 v=86
185256 Par ch=2 c=64 v=0
185280 On ch=2 n=a4 v=0
185280 On ch=2 n=e4 v=0
185280 On ch=2 n=a3 v=0
185280 On ch=2 n=b4 v=85
185280 On ch=2 n=e4 v=85
185280 On ch=2 n=a3 v=85
185352 On ch=2 n=a3 v=0
185352 On ch=2 n=e4 v=0
185352 On ch=2 n=b4 v=0
185400 On ch=2 n=b4 v=85
185400 On ch=2 n=e4 v=85
185400 On ch=2 n=a3 v=85
185472 On ch=2 n=a3 v=0
185472 On ch=2 n=e4 v=0
185472 On ch=2 n=b4 v=0
185520 On ch=2 n=b4 v=84
185520 On ch=2 n=e4 v=84
185520 On ch=2 n=a3 v=84
185592 On ch=2 n=a3 v=0
185592 On ch=2 n=e4 v=0
185592 On ch=2 n=b4 v=0
185640 On ch=2 n=a3 v=84
185640 On ch=2 n=e4 v=84
185640 On ch=2 n=b4 v=84
185712 On ch=2 n=b4 v=0
185712 On ch=2 n=e4 v=0
185712 On ch=2 n=a3 v=0
185760 On ch=2 n=a3 v=83
185760 On ch=2 n=e4 v=83
185760 On ch=2 n=a4 v=83
185808 Par ch=2 c=64 v=127
186120 On ch=2 n=a4 v=0
186120 On ch=2 n=e4 v=0
186120 On ch=2 n=a3 v=0
186120 On ch=2 n=a3 v=82
186120 On ch=2 n=e4 v=82
186120 On ch=2 n=a4 v=82
186240 On ch=2 n=a4 v=0
186240 On ch=2 n=e4 v=0
186240 On ch=2 n=a3 v=0
186240 On ch=2 n=a4 v=82
186240 On ch=2 n=e4 v=82
186240 On ch=2 n=a3 v=82
186240 Par ch=2 c=64 v=0
186384 On ch=2 n=a3 v=0
186384 On ch=2 n=e4 v=0
186384 On ch=2 n=a4 v=0
186480 On ch=2 n=g#3 v=81
186558 On ch=2 n=g#3 v=0
186558 On ch=2 n=a3 v=81
186638 On ch=2 n=a3 v=0
186638 On ch=2 n=b3 v=80
186718 On ch=2 n=b3 v=0
186720 On ch=2 n=a3 v=80
186864 On ch=2 n=a3 v=0
186960 On ch=2 n=e3 v=79
187104 On ch=2 n=e3 v=0
187200 On ch=2 n=a2 v=76
187200 On ch=2 n=a3 v=76
187248 Par ch=2 c=64 v=127
187440 On ch=2 n=a3 v=0
187440 On ch=2 n=a2 v=0
187560 On ch=2 n=a3 v=76
187560 On ch=2 n=e4 v=76
187560 On ch=2 n=a4 v=76
187680 On ch=2 n=a4 v=0
187680 On ch=2 n=e4 v=0
187680 On ch=2 n=a3 v=0
187680 On ch=2 n=a3 v=76
187680 On ch=2 n=e4 v=76
187680 On ch=2 n=a4 v=76
187920 On ch=2 n=a4 v=0
187920 On ch=2 n=e4 v=0
187920 On ch=2 n=a3 v=0
188040 On ch=2 n=a3 v=76
188040 On ch=2 n=e4 v=76
188040 On ch=2 n=a4 v=76
188136 Par ch=2 c=64 v=0
188160 On ch=2 n=a4 v=0
188160 On ch=2 n=e4 v=0
188160 On ch=2 n=a3 v=0
188160 On ch=2 n=a4 v=76
188160 On ch=2 n=e4 v=76
188160 On ch=2 n=a3 v=76
188232 On ch=2 n=a3 v=0
188232 On ch=2 n=e4 v=0
188232 On ch=2 n=a4 v=0
188280 On ch=2 n=a4 v=76
188280 On ch=2 n=e4 v=76
188280 On ch=2 n=a3 v=76
188352 On ch=2 n=a3 v=0
188352 On ch=2 n=e4 v=0
188352 On ch=2 n=a4 v=0
188400 On ch=2 n=a4 v=76
188400 On ch=2 n=e4 v=76
188400 On ch=2 n=a3 v=76
188472 On ch=2 n=a3 v=0
188472 On ch=2 n=e4 v=0
188472 On ch=2 n=a4 v=0
188520 On ch=2 n=a3 v=76
188520 On ch=2 n=e4 v=76
188520 On ch=2 n=b4 v=76
188592 On ch=2 n=b4 v=0
188592 On ch=2 n=e4 v=0
188592 On ch=2 n=a3 v=0
188640 On ch=2 n=a3 v=76
188640 On ch=2 n=d#4 v=76
188640 On ch=2 n=f#4 v=76
188640 On ch=2 n=c5 v=76
188688 Par ch=2 c=64 v=127
189000 On ch=2 n=c5 v=0
189000 On ch=2 n=f#4 v=0
189000 On ch=2 n=d#4 v=0
189000 On ch=2 n=a3 v=0
189000 On ch=2 n=e4 v=76
189000 On ch=2 n=a4 v=76
189000 On ch=2 n=c#5 v=76
189072 Par ch=2 c=64 v=0
189120 On ch=2 n=c#5 v=0
189120 On ch=2 n=a4 v=0
189120 On ch=2 n=e4 v=0
189120 On ch=2 n=e4 v=76
189120 Par ch=2 c=64 v=0
189120 On ch=2 n=a4 v=76
189120 On ch=2 n=c#5 v=76
189360 On ch=2 n=c#5 v=0
189360 On ch=2 n=a4 v=0
189360 On ch=2 n=e4 v=0
189360 On ch=2 n=g#3 v=76
189438 On ch=2 n=g#3 v=0
189438 On ch=2 n=a3 v=76
189518 On ch=2 n=a3 v=0
189518 On ch=2 n=b3 v=76
189598 On ch=2 n=b3 v=0
189600 On ch=2 n=a3 v=76
189744 On ch=2 n=a3 v=0
189840 On ch=2 n=e3 v=76
189984 On ch=2 n=e3 v=0
190080 On ch=2 n=g#3 v=80
190080 On ch=2 n=g#2 v=80
190128 Par ch=2 c=64 v=127
190224 On ch=2 n=g#2 v=0
190224 On ch=2 n=g#3 v=0
190320 On ch=2 n=f4 v=80
190320 On ch=2 n=g#4 v=80
190320 On ch=2 n=c#5 v=80
190320 On ch=2 n=f5 v=80
190398 On ch=2 n=f5 v=0
190398 On ch=2 n=c#5 v=0
190398 On ch=2 n=g#4 v=0
190398 On ch=2 n=f4 v=0
190398 On ch=2 n=f4 v=80
190398 On ch=2 n=g#4 v=80
190398 On ch=2 n=c#5 v=80
190398 On ch=2 n=f5 v=80
190478 On ch=2 n=f5 v=0
190478 On ch=2 n=c#5 v=0
190478 On ch=2 n=g#4 v=0
190478 On ch=2 n=f4 v=0
190478 On ch=2 n=f4 v=81
190478 On ch=2 n=g#4 v=81
190478 On ch=2 n=c#5 v=81
190478 On ch=2 n=f5 v=81
190558 On ch=2 n=f5 v=0
190558 On ch=2 n=c#5 v=0
190558 On ch=2 n=g#4 v=0
190558 On ch=2 n=f4 v=0
190560 On ch=2 n=f4 v=81
190560 On ch=2 n=g#4 v=81
190560 On ch=2 n=c#5 v=81
190560 On ch=2 n=f5 v=81
190800 On ch=2 n=f5 v=0
190800 On ch=2 n=c#5 v=0
190800 On ch=2 n=g#4 v=0
190800 On ch=2 n=f4 v=0
190800 On ch=2 n=f4 v=82
190800 On ch=2 n=g#4 v=82
190800 On ch=2 n=c#5 v=82
190800 On ch=2 n=f5 v=82
190848 Par ch=2 c=64 v=0
191040 On ch=2 n=f5 v=0
191040 On ch=2 n=c#5 v=0
191040 On ch=2 n=g#4 v=0
191040 On ch=2 n=f4 v=0
191040 On ch=2 n=f#4 v=82
191040 On ch=2 n=g#4 v=82
191040 On ch=2 n=c5 v=82
191040 On ch=2 n=d#5 v=82
191064 Par ch=2 c=64 v=127
191280 On ch=2 n=d#5 v=0
191280 On ch=2 n=c5 v=0
191280 On ch=2 n=g#4 v=0
191280 On ch=2 n=f#4 v=0
191280 On ch=2 n=g#3 v=83
191280 On ch=2 n=g#2 v=83
191496 Par ch=2 c=64 v=0
191520 On ch=2 n=g#2 v=0
191520 On ch=2 n=g#3 v=0
191520 On ch=2 n=c#2 v=84
191520 On ch=2 n=c#3 v=84
191568 Par ch=2 c=64 v=127
191880 On ch=2 n=c#3 v=0
191880 On ch=2 n=c#2 v=0
191880 On ch=2 n=c#5 v=85
191880 On ch=2 n=c#4 v=85
191952 On ch=2 n=c#4 v=0
191952 On ch=2 n=c#5 v=0
192000 On ch=2 n=c#5 v=85
192000 On ch=2 n=c#4 v=85
192144 On ch=2 n=c#4 v=0
192144 On ch=2 n=c#5 v=0
192240 On ch=2 n=c#5 v=86
192240 On ch=2 n=c#4 v=86
192312 On ch=2 n=c#4 v=0
192312 On ch=2 n=c#5 v=0
192360 On ch=2 n=c#5 v=86
192360 On ch=2 n=c#4 v=86
192432 On ch=2 n=c#4 v=0
192432 On ch=2 n=c#5 v=0
192480 On ch=2 n=c#5 v=86
192480 On ch=2 n=c#4 v=86
192552 On ch=2 n=c#4 v=0
192552 On ch=2 n=c#5 v=0
192600 On ch=2 n=c#5 v=87
192600 On ch=2 n=c#4 v=87
192672 On ch=2 n=c#4 v=0
192672 On ch=2 n=c#5 v=0
192720 On ch=2 n=c#5 v=87
192720 On ch=2 n=c#4 v=87
192792 On ch=2 n=c#4 v=0
192792 On ch=2 n=c#5 v=0
192840 On ch=2 n=c#4 v=87
192840 On ch=2 n=c#5 v=87
192912 On ch=2 n=c#5 v=0
192912 On ch=2 n=c#4 v=0
192936 Par ch=2 c=64 v=0
192960 On ch=2 n=c#4 v=88
192960 On ch=2 n=c#5 v=88
193200 On ch=2 n=c#5 v=0
193200 On ch=2 n=c#4 v=0
193200 On ch=2 n=d4 v=88
193200 On ch=2 n=f#4 v=88
193200 On ch=2 n=b4 v=88
193380 On ch=2 n=b4 v=0
193380 On ch=2 n=f#4 v=0
193380 On ch=2 n=d4 v=0
193380 On ch=2 n=d4 v=88
193380 On ch=2 n=f#4 v=88
193380 On ch=2 n=b4 v=88
193440 On ch=2 n=b4 v=0
193440 On ch=2 n=f#4 v=0
193440 On ch=2 n=d4 v=0
193440 On ch=2 n=d4 v=88
193440 On ch=2 n=f#4 v=88
193440 On ch=2 n=b4 v=88
193680 On ch=2 n=b4 v=0
193680 On ch=2 n=f#4 v=0
193680 On ch=2 n=d4 v=0
193680 On ch=2 n=e4 v=88
193680 On ch=2 n=g#4 v=88
193680 On ch=2 n=c#5 v=88
193920 On ch=2 n=c#5 v=0
193920 On ch=2 n=g#4 v=0
193920 On ch=2 n=e4 v=0
193920 On ch=2 n=a4 v=88
193920 On ch=2 n=f#4 v=88
193920 On ch=2 n=e5 v=88
194160 On ch=2 n=e5 v=0
194160 On ch=2 n=d5 v=88
194400 On ch=2 n=d5 v=0
194400 On ch=2 n=f#4 v=0
194400 On ch=2 n=a4 v=0
194400 On ch=2 n=e4 v=88
194400 On ch=2 n=g#4 v=88
194400 On ch=2 n=d5 v=88
194640 On ch=2 n=d5 v=0
194640 On ch=2 n=g#4 v=0
194640 On ch=2 n=e4 v=0
194640 On ch=2 n=e4 v=87
194640 On ch=2 n=g#4 v=87
194640 On ch=2 n=d5 v=87
194640 On ch=2 n=e5 v=87
194880 On ch=2 n=e5 v=0
194880 On ch=2 n=d5 v=0
194880 On ch=2 n=g#4 v=0
194880 On ch=2 n=e4 v=0
194880 On ch=2 n=e4 v=85
194880 On ch=2 n=g#4 v=85
194880 On ch=2 n=d5 v=85
194880 On ch=2 n=e5 v=85
194904 Par ch=2 c=64 v=127
195360 On ch=2 n=e5 v=0
195360 On ch=2 n=d5 v=0
195360 On ch=2 n=g#4 v=0
195360 On ch=2 n=e4 v=0
195360 On ch=2 n=a4 v=82
195360 On ch=2 n=c#5 v=82
195360 On ch=2 n=e5 v=82
195600 On ch=2 n=e5 v=0
195600 On ch=2 n=c#5 v=0
195600 On ch=2 n=a4 v=0
195600 Par ch=2 c=64 v=0
195840 On ch=2 n=b2 v=76
195840 On ch=2 n=b3 v=76
195888 Par ch=2 c=64 v=127
196080 On ch=2 n=b3 v=0
196080 On ch=2 n=b2 v=0
196200 On ch=2 n=b3 v=76
196200 On ch=2 n=b4 v=76
196296 Par ch=2 c=64 v=0
196320 On ch=2 n=b4 v=0
196320 On ch=2 n=b3 v=0
196320 On ch=2 n=b3 v=76
196320 On ch=2 n=b4 v=76
196560 On ch=2 n=b4 v=0
196560 On ch=2 n=b3 v=0
196560 On ch=2 n=a#3 v=76
196638 On ch=2 n=a#3 v=0
196638 On ch=2 n=b3 v=76
196718 On ch=2 n=b3 v=0
196718 On ch=2 n=c#4 v=76
196798 On ch=2 n=c#4 v=0
196800 On ch=2 n=b3 v=76
197040 On ch=2 n=b3 v=0
197040 On ch=2 n=e4 v=76
197040 On ch=2 n=e3 v=76
197280 On ch=2 n=e3 v=0
197280 On ch=2 n=e4 v=0
197280 On ch=2 n=b3 v=76
197280 On ch=2 n=b2 v=76
197328 Par ch=2 c=64 v=127
197484 On ch=2 n=b2 v=0
197484 On ch=2 n=b3 v=0
197520 On ch=2 n=b4 v=76
197520 On ch=2 n=b3 v=76
197586 On ch=2 n=b3 v=0
197586 On ch=2 n=b4 v=0
197598 On ch=2 n=b4 v=76
197598 On ch=2 n=b3 v=76
197666 On ch=2 n=b3 v=0
197666 On ch=2 n=b4 v=0
197678 On ch=2 n=b4 v=76
197678 On ch=2 n=b3 v=76
197746 On ch=2 n=b3 v=0
197746 On ch=2 n=b4 v=0
197760 On ch=2 n=b3 v=76
197760 On ch=2 n=b4 v=76
197904 Par ch=2 c=64 v=0
198000 On ch=2 n=b4 v=0
198000 On ch=2 n=b3 v=0
198000 On ch=2 n=a#3 v=76
198078 On ch=2 n=a#3 v=0
198078 On ch=2 n=b3 v=76
198158 On ch=2 n=b3 v=0
198158 On ch=2 n=c#4 v=76
198238 On ch=2 n=c#4 v=0
198240 On ch=2 n=b3 v=76
198384 On ch=2 n=b3 v=0
198480 On ch=2 n=b3 v=76
198480 On ch=2 n=b2 v=76
198504 Par ch=2 c=64 v=127
198696 Par ch=2 c=64 v=0
198720 On ch=2 n=b2 v=0
198720 On ch=2 n=b3 v=0
198720 Par ch=2 c=64 v=0
198720 On ch=2 n=c#3 v=76
198720 On ch=2 n=c#4 v=76
198960 On ch=2 n=c#4 v=0
198960 On ch=2 n=c#3 v=0
198960 On ch=2 n=c#4 v=76
198960 On ch=2 n=c#3 v=76
199032 On ch=2 n=c#3 v=0
199032 On ch=2 n=c#4 v=0
199080 On ch=2 n=c#4 v=76
199080 On ch=2 n=c#3 v=76
199152 On ch=2 n=c#3 v=0
199152 On ch=2 n=c#4 v=0
199200 On ch=2 n=f#2 v=76
199200 On ch=2 n=f#3 v=76
199440 On ch=2 n=f#3 v=0
199440 On ch=2 n=f#2 v=0
199440 On ch=2 n=g#2 v=76
199440 On ch=2 n=g#3 v=76
199680 On ch=2 n=g#3 v=0
199680 On ch=2 n=g#2 v=0
199680 On ch=2 n=a2 v=76
199680 On ch=2 n=a3 v=76
199920 On ch=2 n=a3 v=0
199920 On ch=2 n=a2 v=0
199920 On ch=2 n=g#3 v=76
199920 On ch=2 n=g#2 v=76
200160 On ch=2 n=g#2 v=0
200160 On ch=2 n=g#3 v=0
200160 On ch=2 n=c#3 v=76
200160 On ch=2 n=c#4 v=76
200400 On ch=2 n=c#4 v=0
200400 On ch=2 n=c#3 v=0
200400 On ch=2 n=d#3 v=76
200400 On ch=2 n=d#4 v=76
200640 On ch=2 n=d#4 v=0
200640 On ch=2 n=d#3 v=0
200640 On ch=2 n=g#3 v=76
200640 On ch=2 n=g#4 v=76
200880 On ch=2 n=g#4 v=0
200880 On ch=2 n=g#3 v=0
200880 On ch=2 n=d#3 v=76
200880 On ch=2 n=d#4 v=76
200904 Par ch=2 c=64 v=127
201000 On ch=2 n=d#4 v=0
201000 On ch=2 n=d#3 v=0
201000 On ch=2 n=d#3 v=76
201000 On ch=2 n=d#4 v=76
201120 On ch=2 n=d#4 v=0
201120 On ch=2 n=d#3 v=0
201120 On ch=2 n=d#3 v=76
201120 On ch=2 n=d#4 v=76
201240 On ch=2 n=d#4 v=0
201240 On ch=2 n=d#3 v=0
201240 On ch=2 n=d#3 v=76
201240 On ch=2 n=d#4 v=76
201360 On ch=2 n=d#4 v=0
201360 On ch=2 n=d#3 v=0
201360 On ch=2 n=d#3 v=76
201360 On ch=2 n=d#4 v=76
201480 On ch=2 n=d#4 v=0
201480 On ch=2 n=d#3 v=0
201480 On ch=2 n=d#4 v=76
201480 On ch=2 n=d#3 v=76
201576 Par ch=2 c=64 v=0
201600 On ch=2 n=d#3 v=0
201600 On ch=2 n=d#4 v=0
201600 On ch=2 n=d#2 v=76
201600 On ch=2 n=d#3 v=76
201648 Par ch=2 c=64 v=127
201840 On ch=2 n=d#3 v=0
201840 On ch=2 n=d#2 v=0
201960 On ch=2 n=g5 v=76
201960 On ch=2 n=d#5 v=76
201960 On ch=2 n=c#5 v=76
201960 On ch=2 n=a#4 v=76
201960 On ch=2 n=g4 v=76
202032 On ch=2 n=g4 v=0
202032 On ch=2 n=a#4 v=0
202032 On ch=2 n=c#5 v=0
202032 On ch=2 n=d#5 v=0
202032 On ch=2 n=g5 v=0
202080 On ch=2 n=g5 v=76
202080 On ch=2 n=d#5 v=76
202080 On ch=2 n=c#5 v=76
202080 On ch=2 n=a#4 v=76
202080 On ch=2 n=g4 v=76
202224 On ch=2 n=g4 v=0
202224 On ch=2 n=a#4 v=0
202224 On ch=2 n=c#5 v=0
202224 On ch=2 n=d#5 v=0
202224 On ch=2 n=g5 v=0
202296 Par ch=2 c=64 v=0
202320 On ch=2 n=d4 v=76
202398 On ch=2 n=d4 v=0
202398 On ch=2 n=d#4 v=76
202478 On ch=2 n=d#4 v=0
202478 On ch=2 n=f4 v=76
202558 On ch=2 n=f4 v=0
202560 On ch=2 n=d#4 v=76
202800 On ch=2 n=d#4 v=0
202800 On ch=2 n=g#3 v=76
202800 On ch=2 n=g#2 v=76
203040 On ch=2 n=g#2 v=0
203040 On ch=2 n=g#3 v=0
203040 On ch=2 n=d#3 v=76
203040 On ch=2 n=d#2 v=76
203088 Par ch=2 c=64 v=127
203244 On ch=2 n=d#2 v=0
203244 On ch=2 n=d#3 v=0
203280 On ch=2 n=d#5 v=76
203280 On ch=2 n=c#5 v=76
203280 On ch=2 n=a#4 v=76
203280 On ch=2 n=g4 v=76
203280 On ch=2 n=g5 v=76
203346 On ch=2 n=g4 v=0
203346 On ch=2 n=a#4 v=0
203346 On ch=2 n=c#5 v=0
203346 On ch=2 n=d#5 v=0
203358 On ch=2 n=g5 v=0
203358 On ch=2 n=d#5 v=76
203358 On ch=2 n=c#5 v=76
203358 On ch=2 n=a#4 v=76
203358 On ch=2 n=g4 v=76
203358 On ch=2 n=g5 v=76
203426 On ch=2 n=g4 v=0
203426 On ch=2 n=a#4 v=0
203426 On ch=2 n=c#5 v=0
203426 On ch=2 n=d#5 v=0
203438 On ch=2 n=g5 v=0
203438 On ch=2 n=d#5 v=76
203438 On ch=2 n=c#5 v=76
203438 On ch=2 n=a#4 v=76
203438 On ch=2 n=g4 v=76
203438 On ch=2 n=g5 v=76
203506 On ch=2 n=g4 v=0
203506 On ch=2 n=a#4 v=0
203506 On ch=2 n=c#5 v=0
203506 On ch=2 n=d#5 v=0
203518 On ch=2 n=g5 v=0
203520 On ch=2 n=g4 v=76
203520 On ch=2 n=a#4 v=76
203520 On ch=2 n=c#5 v=76
203520 On ch=2 n=d#5 v=76
203520 On ch=2 n=g5 v=76
203736 Par ch=2 c=64 v=0
203760 On ch=2 n=g5 v=0
203760 On ch=2 n=d#5 v=0
203760 On ch=2 n=c#5 v=0
203760 On ch=2 n=a#4 v=0
203760 On ch=2 n=g4 v=0
203760 On ch=2 n=d4 v=76
203838 On ch=2 n=d4 v=0
203838 On ch=2 n=d#4 v=76
203918 On ch=2 n=d#4 v=0
203918 On ch=2 n=f4 v=76
203998 On ch=2 n=f4 v=0
204000 On ch=2 n=d#4 v=76
204240 On ch=2 n=d#4 v=0
204240 On ch=2 n=g#2 v=76
204240 On ch=2 n=g#3 v=76
204360 On ch=2 n=g#3 v=0
204360 On ch=2 n=g#2 v=0
204480 On ch=2 n=a3 v=76
204480 On ch=2 n=a2 v=76
204528 Par ch=2 c=64 v=127
204600 On ch=2 n=a2 v=0
204600 On ch=2 n=a3 v=0
204720 On ch=2 n=a4 v=76
204720 On ch=2 n=a3 v=76
204786 On ch=2 n=a3 v=0
204786 On ch=2 n=a4 v=0
204798 On ch=2 n=a4 v=76
204798 On ch=2 n=a3 v=76
204866 On ch=2 n=a3 v=0
204866 On ch=2 n=a4 v=0
204878 On ch=2 n=a4 v=76
204878 On ch=2 n=a3 v=76
204946 On ch=2 n=a3 v=0
204946 On ch=2 n=a4 v=0
204960 On ch=2 n=a3 v=76
204960 On ch=2 n=a4 v=76
205008 Par ch=2 c=64 v=0
205200 On ch=2 n=a4 v=0
205200 On ch=2 n=a3 v=0
205200 On ch=2 n=g#3 v=76
205200 On ch=2 n=g#4 v=76
205440 On ch=2 n=g#4 v=0
205440 On ch=2 n=g#3 v=0
205440 On ch=2 n=f#3 v=76
205440 On ch=2 n=f#4 v=76
205680 On ch=2 n=f#4 v=0
205680 On ch=2 n=f#3 v=0
205680 On ch=2 n=b3 v=76
205680 On ch=2 n=b2 v=76
205920 On ch=2 n=b2 v=0
205920 On ch=2 n=b3 v=0
205920 On ch=2 n=e4 v=76
205920 On ch=2 n=e3 v=76
205936 Par ch=2 c=64 v=0
206124 On ch=2 n=e3 v=0
206124 On ch=2 n=e4 v=0
206160 On ch=2 n=c#4 v=76
206160 On ch=2 n=c#3 v=76
206364 On ch=2 n=c#3 v=0
206364 On ch=2 n=c#4 v=0
206400 On ch=2 n=f#4 v=76
206400 On ch=2 n=f#3 v=76
206604 On ch=2 n=f#3 v=0
206604 On ch=2 n=f#4 v=0
206640 On ch=2 n=b3 v=76
206640 On ch=2 n=b2 v=76
206844 On ch=2 n=b2 v=0
206844 On ch=2 n=b3 v=0
206880 On ch=2 n=e4 v=76
206880 On ch=2 n=e3 v=76
207084 On ch=2 n=e3 v=0
207084 On ch=2 n=e4 v=0
207120 On ch=2 n=e2 v=76
207120 On ch=2 n=e3 v=76
207324 On ch=2 n=e3 v=0
207324 On ch=2 n=e2 v=0
207360 On ch=2 n=a2 v=76
207360 On ch=2 n=a3 v=76
207408 Par ch=2 c=64 v=127
207600 On ch=2 n=a3 v=0
207600 On ch=2 n=a2 v=0
207720 On ch=2 n=a3 v=76
207720 On ch=2 n=e4 v=76
207720 On ch=2 n=a4 v=76
207840 On ch=2 n=a4 v=0
207840 On ch=2 n=e4 v=0
207840 On ch=2 n=a3 v=0
207840 On ch=2 n=a3 v=76
207840 On ch=2 n=e4 v=76
207840 On ch=2 n=a4 v=76
208080 On ch=2 n=a4 v=0
208080 On ch=2 n=e4 v=0
208080 On ch=2 n=a3 v=0
208200 On ch=2 n=a3 v=76
208200 On ch=2 n=e4 v=76
208200 On ch=2 n=a4 v=76
208296 Par ch=2 c=64 v=0
208320 On ch=2 n=a4 v=0
208320 On ch=2 n=e4 v=0
208320 On ch=2 n=a3 v=0
208320 On ch=2 n=b4 v=76
208320 On ch=2 n=e4 v=76
208320 On ch=2 n=a3 v=76
208392 On ch=2 n=a3 v=0
208392 On ch=2 n=e4 v=0
208392 On ch=2 n=b4 v=0
208440 On ch=2 n=b4 v=76
208440 On ch=2 n=e4 v=76
208440 On ch=2 n=a3 v=76
208512 On ch=2 n=a3 v=0
208512 On ch=2 n=e4 v=0
208512 On ch=2 n=b4 v=0
208560 On ch=2 n=b4 v=76
208560 On ch=2 n=e4 v=76
208560 On ch=2 n=a3 v=76
208632 On ch=2 n=a3 v=0
208632 On ch=2 n=e4 v=0
208632 On ch=2 n=b4 v=0
208680 On ch=2 n=a3 v=76
208680 On ch=2 n=e4 v=76
208680 On ch=2 n=b4 v=76
208752 On ch=2 n=b4 v=0
208752 On ch=2 n=e4 v=0
208752 On ch=2 n=a3 v=0
208800 On ch=2 n=a3 v=76
208800 On ch=2 n=e4 v=76
208800 On ch=2 n=a4 v=76
208848 Par ch=2 c=64 v=127
209160 On ch=2 n=a4 v=0
209160 On ch=2 n=e4 v=0
209160 On ch=2 n=a3 v=0
209160 On ch=2 n=a3 v=76
209160 On ch=2 n=e4 v=76
209160 On ch=2 n=a4 v=76
209280 On ch=2 n=a4 v=0
209280 On ch=2 n=e4 v=0
209280 On ch=2 n=a3 v=0
209280 On ch=2 n=a4 v=76
209280 On ch=2 n=e4 v=76
209280 On ch=2 n=a3 v=76
209280 Par ch=2 c=64 v=0
209424 On ch=2 n=a3 v=0
209424 On ch=2 n=e4 v=0
209424 On ch=2 n=a4 v=0
209520 On ch=2 n=g#3 v=76
209598 On ch=2 n=g#3 v=0
209598 On ch=2 n=a3 v=76
209678 On ch=2 n=a3 v=0
209678 On ch=2 n=b3 v=76
209758 On ch=2 n=b3 v=0
209760 On ch=2 n=a3 v=76
209904 On ch=2 n=a3 v=0
210000 On ch=2 n=e3 v=76
210144 On ch=2 n=e3 v=0
210240 On ch=2 n=a2 v=76
210240 On ch=2 n=a3 v=76
210288 Par ch=2 c=64 v=127
210480 On ch=2 n=a3 v=0
210480 On ch=2 n=a2 v=0
210600 On ch=2 n=a3 v=76
210600 On ch=2 n=e4 v=76
210600 On ch=2 n=a4 v=76
210720 On ch=2 n=a4 v=0
210720 On ch=2 n=e4 v=0
210720 On ch=2 n=a3 v=0
210720 On ch=2 n=a3 v=76
210720 On ch=2 n=e4 v=76
210720 On ch=2 n=a4 v=76
210960 On ch=2 n=a4 v=0
210960 On ch=2 n=e4 v=0
210960 On ch=2 n=a3 v=0
211080 On ch=2 n=a3 v=76
211080 On ch=2 n=e4 v=76
211080 On ch=2 n=a4 v=76
211176 Par ch=2 c=64 v=0
211200 On ch=2 n=a4 v=0
211200 On ch=2 n=e4 v=0
211200 On ch=2 n=a3 v=0
211200 On ch=2 n=a4 v=76
211200 On ch=2 n=e4 v=76
211200 On ch=2 n=a3 v=76
211272 On ch=2 n=a3 v=0
211272 On ch=2 n=e4 v=0
211272 On ch=2 n=a4 v=0
211320 On ch=2 n=a4 v=76
211320 On ch=2 n=e4 v=76
211320 On ch=2 n=a3 v=76
211392 On ch=2 n=a3 v=0
211392 On ch=2 n=e4 v=0
211392 On ch=2 n=a4 v=0
211440 On ch=2 n=a4 v=76
211440 On ch=2 n=e4 v=76
211440 On ch=2 n=a3 v=76
211512 On ch=2 n=a3 v=0
211512 On ch=2 n=e4 v=0
211512 On ch=2 n=a4 v=0
211560 On ch=2 n=a3 v=76
211560 On ch=2 n=e4 v=76
211560 On ch=2 n=b4 v=76
211632 On ch=2 n=b4 v=0
211632 On ch=2 n=e4 v=0
211632 On ch=2 n=a3 v=0
211680 On ch=2 n=a3 v=76
211680 On ch=2 n=d#4 v=76
211680 On ch=2 n=f#4 v=76
211680 On ch=2 n=c5 v=76
211728 Par ch=2 c=64 v=127
212040 On ch=2 n=c5 v=0
212040 On ch=2 n=f#4 v=0
212040 On ch=2 n=d#4 v=0
212040 On ch=2 n=a3 v=0
212040 On ch=2 n=e4 v=76
212040 On ch=2 n=a4 v=76
212040 On ch=2 n=c#5 v=76
212112 Par ch=2 c=64 v=0
212160 On ch=2 n=c#5 v=0
212160 On ch=2 n=a4 v=0
212160 On ch=2 n=e4 v=0
212160 On ch=2 n=e4 v=76
212160 Par ch=2 c=64 v=0
212160 On ch=2 n=a4 v=76
212160 On ch=2 n=c#5 v=76
212400 On ch=2 n=c#5 v=0
212400 On ch=2 n=a4 v=0
212400 On ch=2 n=e4 v=0
212400 On ch=2 n=g#3 v=76
212478 On ch=2 n=g#3 v=0
212478 On ch=2 n=a3 v=76
212558 On ch=2 n=a3 v=0
212558 On ch=2 n=b3 v=76
212638 On ch=2 n=b3 v=0
212640 On ch=2 n=a3 v=76
212784 On ch=2 n=a3 v=0
212880 On ch=2 n=e3 v=76
213024 On ch=2 n=e3 v=0
213120 On ch=2 n=g#3 v=76
213120 On ch=2 n=g#2 v=76
213168 Par ch=2 c=64 v=127
213264 On ch=2 n=g#2 v=0
213264 On ch=2 n=g#3 v=0
213360 On ch=2 n=f4 v=76
213360 On ch=2 n=g#4 v=76
213360 On ch=2 n=c#5 v=76
213360 On ch=2 n=f5 v=76
213438 On ch=2 n=f5 v=0
213438 On ch=2 n=c#5 v=0
213438 On ch=2 n=g#4 v=0
213438 On ch=2 n=f4 v=0
213438 On ch=2 n=f4 v=76
213438 On ch=2 n=g#4 v=76
213438 On ch=2 n=c#5 v=76
213438 On ch=2 n=f5 v=76
213518 On ch=2 n=f5 v=0
213518 On ch=2 n=c#5 v=0
213518 On ch=2 n=g#4 v=0
213518 On ch=2 n=f4 v=0
213518 On ch=2 n=f4 v=76
213518 On ch=2 n=g#4 v=76
213518 On ch=2 n=c#5 v=76
213518 On ch=2 n=f5 v=76
213598 On ch=2 n=f5 v=0
213598 On ch=2 n=c#5 v=0
213598 On ch=2 n=g#4 v=0
213598 On ch=2 n=f4 v=0
213600 On ch=2 n=f4 v=76
213600 On ch=2 n=g#4 v=76
213600 On ch=2 n=c#5 v=76
213600 On ch=2 n=f5 v=76
213840 On ch=2 n=f5 v=0
213840 On ch=2 n=c#5 v=0
213840 On ch=2 n=g#4 v=0
213840 On ch=2 n=f4 v=0
213840 On ch=2 n=f4 v=76
213840 On ch=2 n=g#4 v=76
213840 On ch=2 n=c#5 v=76
213840 On ch=2 n=f5 v=76
213888 Par ch=2 c=64 v=0
214080 On ch=2 n=f5 v=0
214080 On ch=2 n=c#5 v=0
214080 On ch=2 n=g#4 v=0
214080 On ch=2 n=f4 v=0
214080 On ch=2 n=f#4 v=76
214080 On ch=2 n=g#4 v=76
214080 On ch=2 n=c5 v=76
214080 On ch=2 n=d#5 v=76
214104 Par ch=2 c=64 v=127
214320 On ch=2 n=d#5 v=0
214320 On ch=2 n=c5 v=0
214320 On ch=2 n=g#4 v=0
214320 On ch=2 n=f#4 v=0
214320 On ch=2 n=g#3 v=76
214320 On ch=2 n=g#2 v=76
214536 Par ch=2 c=64 v=0
214560 On ch=2 n=g#2 v=0
214560 On ch=2 n=g#3 v=0
214560 On ch=2 n=c#2 v=76
214560 On ch=2 n=c#3 v=76
214608 Par ch=2 c=64 v=127
214920 On ch=2 n=c#3 v=0
214920 On ch=2 n=c#2 v=0
214920 On ch=2 n=c#5 v=76
214920 On ch=2 n=c#4 v=76
214992 On ch=2 n=c#4 v=0
214992 On ch=2 n=c#5 v=0
215040 On ch=2 n=c#5 v=76
215040 On ch=2 n=c#4 v=76
215184 On ch=2 n=c#4 v=0
215184 On ch=2 n=c#5 v=0
215280 On ch=2 n=c#5 v=76
215280 On ch=2 n=c#4 v=76
215352 On ch=2 n=c#4 v=0
215352 On ch=2 n=c#5 v=0
215400 On ch=2 n=c#5 v=76
215400 On ch=2 n=c#4 v=76
215472 On ch=2 n=c#4 v=0
215472 On ch=2 n=c#5 v=0
215520 On ch=2 n=c#5 v=76
215520 On ch=2 n=c#4 v=76
215592 On ch=2 n=c#4 v=0
215592 On ch=2 n=c#5 v=0
215640 On ch=2 n=c#5 v=76
215640 On ch=2 n=c#4 v=76
215712 On ch=2 n=c#4 v=0
215712 On ch=2 n=c#5 v=0
215760 On ch=2 n=c#5 v=76
215760 On ch=2 n=c#4 v=76
215832 On ch=2 n=c#4 v=0
215832 On ch=2 n=c#5 v=0
215880 On ch=2 n=c#4 v=76
215880 On ch=2 n=c#5 v=76
215952 On ch=2 n=c#5 v=0
215952 On ch=2 n=c#4 v=0
215976 Par ch=2 c=64 v=0
216000 On ch=2 n=c#4 v=76
216000 On ch=2 n=c#5 v=76
216240 On ch=2 n=c#5 v=0
216240 On ch=2 n=c#4 v=0
216240 On ch=2 n=d4 v=76
216240 On ch=2 n=f#4 v=76
216240 On ch=2 n=b4 v=76
216420 On ch=2 n=b4 v=0
216420 On ch=2 n=f#4 v=0
216420 On ch=2 n=d4 v=0
216420 On ch=2 n=d4 v=76
216420 On ch=2 n=f#4 v=76
216420 On ch=2 n=b4 v=76
216480 On ch=2 n=b4 v=0
216480 On ch=2 n=f#4 v=0
216480 On ch=2 n=d4 v=0
216480 On ch=2 n=d4 v=76
216480 On ch=2 n=f#4 v=76
216480 On ch=2 n=b4 v=76
216720 On ch=2 n=b4 v=0
216720 On ch=2 n=f#4 v=0
216720 On ch=2 n=d4 v=0
216720 On ch=2 n=e4 v=76
216720 On ch=2 n=g#4 v=76
216720 On ch=2 n=c#5 v=76
216960 On ch=2 n=c#5 v=0
216960 On ch=2 n=g#4 v=0
216960 On ch=2 n=e4 v=0
216960 On ch=2 n=a4 v=76
216960 On ch=2 n=f#4 v=76
216960 On ch=2 n=e5 v=76
217200 On ch=2 n=e5 v=0
217200 On ch=2 n=d5 v=76
217440 On ch=2 n=d5 v=0
217440 On ch=2 n=f#4 v=0
217440 On ch=2 n=a4 v=0
217440 On ch=2 n=d5 v=76
217440 On ch=2 n=g#4 v=76
217440 On ch=2 n=e4 v=76
217560 On ch=2 n=e4 v=0
217560 On ch=2 n=g#4 v=0
217560 On ch=2 n=d5 v=0
217680 On ch=2 n=e4 v=76
217680 On ch=2 n=g#4 v=76
217680 On ch=2 n=d5 v=76
217680 On ch=2 n=e5 v=76
217920 On ch=2 n=e5 v=0
217920 On ch=2 n=d5 v=0
217920 On ch=2 n=g#4 v=0
217920 On ch=2 n=e4 v=0
217920 On ch=2 n=e4 v=76
217920 On ch=2 n=g#4 v=76
217920 On ch=2 n=d5 v=76
217920 On ch=2 n=e5 v=76
217944 Par ch=2 c=64 v=127
218400 On ch=2 n=e5 v=0
218400 On ch=2 n=d5 v=0
218400 On ch=2 n=g#4 v=0
218400 On ch=2 n=e4 v=0
218400 On ch=2 n=a4 v=76
218400 On ch=2 n=c#5 v=76
218400 On ch=2 n=e5 v=76
218640 On ch=2 n=e5 v=0
218640 On ch=2 n=c#5 v=0
218640 On ch=2 n=a4 v=0
218640 Par ch=2 c=64 v=0
218640 Meta TrkEnd
TrkEnd
