MFile 1 5 480
MTrk
0 Tempo 240000
0 TimeSig 3/4 24 8
0 KeySig 3 major
0 Meta TrkEnd
TrkEnd
MTrk
0 SeqSpec 43 00 01 00
0 Meta TrkName "1Main droite melodie"
0 PrCh ch=1 p=0
0 Par ch=1 c=10 v=45
0 Par ch=1 c=91 v=100
0 Par ch=1 c=93 v=100
0 Par ch=1 c=7 v=120
1708 On ch=1 n=d4 v=55
2154 On ch=1 n=d4 v=0
2154 On ch=1 n=c#4 v=55
2628 On ch=1 n=c#4 v=0
2628 On ch=1 n=f#4 v=57
3098 On ch=1 n=f#4 v=0
3098 On ch=1 n=f4 v=60
4458 On ch=1 n=f4 v=0
6000 On ch=1 n=d4 v=67
6472 On ch=1 n=d4 v=0
6472 On ch=1 n=c#4 v=71
6940 On ch=1 n=c#4 v=0
6940 On ch=1 n=a4 v=67
7392 On ch=1 n=a4 v=0
7392 On ch=1 n=g#4 v=65
8802 On ch=1 n=g#4 v=0
10284 On ch=1 n=d4 v=75
10580 On ch=1 n=d4 v=0
10580 On ch=1 n=c#4 v=74
10876 On ch=1 n=c#4 v=0
10876 On ch=1 n=c#4 v=73
11160 On ch=1 n=c#4 v=0
11160 On ch=1 n=f#4 v=72
11438 On ch=1 n=f#4 v=0
11438 On ch=1 n=f4 v=69
12660 On ch=1 n=f4 v=0
13784 On ch=1 n=d4 v=78
14060 On ch=1 n=d4 v=0
14060 On ch=1 n=d4 v=78
14342 On ch=1 n=d4 v=0
14342 On ch=1 n=c#4 v=78
14624 On ch=1 n=c#4 v=0
14624 On ch=1 n=c#4 v=78
14894 On ch=1 n=c#4 v=0
14894 On ch=1 n=a4 v=76
15184 On ch=1 n=a4 v=0
15184 On ch=1 n=g#4 v=77
16388 On ch=1 n=g#4 v=0
17374 On ch=1 n=d5 v=84
17374 On ch=1 n=d4 v=84
17658 On ch=1 n=d4 v=0
17658 On ch=1 n=d5 v=0
17658 On ch=1 n=d5 v=84
17658 On ch=1 n=d4 v=84
17942 On ch=1 n=d4 v=0
17942 On ch=1 n=d5 v=0
17942 On ch=1 n=c#5 v=82
18232 On ch=1 n=c#5 v=0
18232 On ch=1 n=c#5 v=80
18508 On ch=1 n=c#5 v=0
18508 On ch=1 n=f#5 v=80
18508 On ch=1 n=f#4 v=80
18810 On ch=1 n=f#4 v=0
18810 On ch=1 n=f#5 v=0
18810 On ch=1 n=f#5 v=81
18810 On ch=1 n=f#4 v=81
19102 On ch=1 n=f#4 v=0
19102 On ch=1 n=f#5 v=0
19102 On ch=1 n=f5 v=82
19102 On ch=1 n=f4 v=82
19390 On ch=1 n=f4 v=0
19390 On ch=1 n=f5 v=0
19390 On ch=1 n=f5 v=83
19390 On ch=1 n=f4 v=83
19668 On ch=1 n=f4 v=0
19668 On ch=1 n=f5 v=0
19668 On ch=1 n=d5 v=83
19946 On ch=1 n=d5 v=0
19946 On ch=1 n=d5 v=83
20222 On ch=1 n=d5 v=0
20222 On ch=1 n=c#5 v=81
20500 On ch=1 n=c#5 v=0
20500 On ch=1 n=c#5 v=81
20786 On ch=1 n=c#5 v=0
20786 On ch=1 n=a5 v=82
20786 On ch=1 n=a4 v=82
21068 On ch=1 n=a4 v=0
21068 On ch=1 n=a5 v=0
21068 On ch=1 n=a5 v=83
21068 On ch=1 n=a4 v=83
21340 On ch=1 n=a4 v=0
21340 On ch=1 n=a5 v=0
21340 On ch=1 n=g#5 v=85
21340 On ch=1 n=g#4 v=85
21626 On ch=1 n=g#4 v=0
21626 On ch=1 n=g#5 v=0
21626 On ch=1 n=g#5 v=84
21626 On ch=1 n=g#4 v=84
21914 On ch=1 n=g#4 v=0
21914 On ch=1 n=g#5 v=0
21914 On ch=1 n=d6 v=83
21914 On ch=1 n=d5 v=83
22200 On ch=1 n=d5 v=0
22200 On ch=1 n=d6 v=0
22200 On ch=1 n=d6 v=85
22200 On ch=1 n=d5 v=85
22486 On ch=1 n=d5 v=0
22486 On ch=1 n=d6 v=0
22486 On ch=1 n=c#6 v=85
22486 On ch=1 n=c#5 v=85
22758 On ch=1 n=c#5 v=0
22758 On ch=1 n=c#6 v=0
22758 On ch=1 n=c#6 v=85
22758 On ch=1 n=c#5 v=85
23032 On ch=1 n=c#5 v=0
23032 On ch=1 n=c#6 v=0
23032 On ch=1 n=f#6 v=87
23032 On ch=1 n=f#5 v=87
23316 On ch=1 n=f#5 v=0
23316 On ch=1 n=f#6 v=0
23316 On ch=1 n=f#6 v=86
23316 On ch=1 n=f#5 v=86
23596 On ch=1 n=f#5 v=0
23596 On ch=1 n=f#6 v=0
23596 On ch=1 n=f6 v=85
23596 On ch=1 n=f5 v=85
23860 On ch=1 n=f5 v=0
23860 On ch=1 n=f6 v=0
23860 On ch=1 n=f6 v=89
23860 On ch=1 n=f5 v=89
24130 On ch=1 n=f5 v=0
24130 On ch=1 n=f6 v=0
24130 On ch=1 n=a6 v=89
24130 On ch=1 n=a5 v=89
24398 On ch=1 n=a5 v=0
24398 On ch=1 n=a6 v=0
24398 On ch=1 n=a6 v=90
24398 On ch=1 n=a5 v=90
24674 On ch=1 n=a5 v=0
24674 On ch=1 n=a6 v=0
24674 On ch=1 n=g#6 v=93
24674 On ch=1 n=g#5 v=93
24940 On ch=1 n=g#5 v=0
24940 On ch=1 n=g#6 v=0
24940 On ch=1 n=g#6 v=95
24940 On ch=1 n=g#5 v=95
25220 On ch=1 n=g#5 v=0
25220 On ch=1 n=g#6 v=0
25220 On ch=1 n=d7 v=93
25220 On ch=1 n=d6 v=93
25492 On ch=1 n=d6 v=0
25492 On ch=1 n=d7 v=0
25492 On ch=1 n=d7 v=94
25492 On ch=1 n=d6 v=94
25766 On ch=1 n=d6 v=0
25766 On ch=1 n=d7 v=0
25766 On ch=1 n=c#7 v=98
25766 On ch=1 n=c#6 v=98
26026 On ch=1 n=c#6 v=0
26026 On ch=1 n=c#7 v=0
26026 On ch=1 n=c#7 v=98
26026 On ch=1 n=c#6 v=98
26310 On ch=1 n=c#6 v=0
26310 On ch=1 n=c#7 v=0
26310 On ch=1 n=a6 v=99
26310 On ch=1 n=a5 v=99
26590 On ch=1 n=a5 v=0
26590 On ch=1 n=a6 v=0
26590 On ch=1 n=a6 v=101
26590 On ch=1 n=a5 v=101
26862 On ch=1 n=a5 v=0
26862 On ch=1 n=a6 v=0
26862 On ch=1 n=g#6 v=104
26862 On ch=1 n=g#5 v=104
27138 On ch=1 n=g#5 v=0
27138 On ch=1 n=g#6 v=0
27138 On ch=1 n=g#6 v=102
27138 On ch=1 n=g#5 v=102
27400 On ch=1 n=g#5 v=0
27400 On ch=1 n=g#6 v=0
27400 On ch=1 n=d7 v=102
27400 On ch=1 n=d6 v=102
27674 On ch=1 n=d6 v=0
27674 On ch=1 n=d7 v=0
27674 On ch=1 n=d7 v=102
27674 On ch=1 n=d6 v=102
27962 On ch=1 n=d6 v=0
27962 On ch=1 n=d7 v=0
27962 On ch=1 n=c#7 v=102
27962 On ch=1 n=c#6 v=102
28246 On ch=1 n=c#6 v=0
28246 On ch=1 n=c#7 v=0
28246 On ch=1 n=c#7 v=101
28246 On ch=1 n=c#6 v=101
28504 On ch=1 n=c#6 v=0
28504 On ch=1 n=c#7 v=0
28504 On ch=1 n=f#7 v=104
28504 On ch=1 n=f#6 v=104
28784 On ch=1 n=f#6 v=0
28784 On ch=1 n=f#7 v=0
28784 On ch=1 n=f#7 v=110
28784 On ch=1 n=f#6 v=110
29074 On ch=1 n=f#6 v=0
29074 On ch=1 n=f#7 v=0
29074 On ch=1 n=f7 v=114
29074 On ch=1 n=f6 v=114
29350 On ch=1 n=f6 v=0
29350 On ch=1 n=f7 v=0
29350 On ch=1 n=f7 v=109
29350 On ch=1 n=f6 v=109
29354 Par ch=1 c=64 v=127
29646 On ch=1 n=f6 v=0
29646 On ch=1 n=f7 v=0
29788 On ch=1 n=c#8 v=126
29788 On ch=1 n=c#7 v=126
29934 On ch=1 n=c#7 v=0
29934 On ch=1 n=c#8 v=0
29934 On ch=1 n=c#8 v=126
29934 On ch=1 n=c#7 v=126
31298 Par ch=1 c=64 v=0
31304 On ch=1 n=c#7 v=0
31304 On ch=1 n=c#8 v=0
31304 On ch=1 n=f#5 v=95
31310 Par ch=1 c=64 v=127
33306 Par ch=1 c=64 v=0
33310 On ch=1 n=f#5 v=0
33310 On ch=1 n=e5 v=96
33602 On ch=1 n=e5 v=0
33602 On ch=1 n=d5 v=98
33902 On ch=1 n=d5 v=0
33902 On ch=1 n=c#5 v=100
33906 Par ch=1 c=64 v=127
34546 On ch=1 n=c#5 v=0
34546 On ch=1 n=d#5 v=101
34832 On ch=1 n=d#5 v=0
34832 On ch=1 n=f5 v=101
35170 Par ch=1 c=64 v=0
35174 On ch=1 n=f5 v=0
35174 On ch=1 n=f5 v=113
35180 Par ch=1 c=64 v=127
35332 On ch=1 n=f5 v=0
35332 On ch=1 n=f#5 v=113
35444 On ch=1 n=f#5 v=0
35444 On ch=1 n=g#5 v=106
35598 On ch=1 n=g#5 v=0
35598 On ch=1 n=f#5 v=106
35728 On ch=1 n=f#5 v=0
35728 On ch=1 n=g#5 v=103
35866 On ch=1 n=g#5 v=0
35866 On ch=1 n=f#5 v=103
36032 On ch=1 n=f#5 v=0
36032 On ch=1 n=g#5 v=103
36178 On ch=1 n=g#5 v=0
36178 On ch=1 n=f#5 v=103
36354 On ch=1 n=f#5 v=0
36354 On ch=1 n=g#5 v=103
36510 On ch=1 n=g#5 v=0
36510 On ch=1 n=f#5 v=103
36682 On ch=1 n=f#5 v=0
36682 On ch=1 n=g#5 v=103
36844 On ch=1 n=g#5 v=0
36844 On ch=1 n=f#5 v=103
36970 Par ch=1 c=64 v=0
36974 On ch=1 n=f#5 v=0
36974 On ch=1 n=f5 v=101
37270 On ch=1 n=f5 v=0
37270 On ch=1 n=f#5 v=103
37606 On ch=1 n=f#5 v=0
37606 On ch=1 n=a5 v=113
37606 On ch=1 n=f5 v=113
37612 Par ch=1 c=64 v=127
37764 On ch=1 n=a5 v=0
37764 On ch=1 n=g#5 v=113
37886 On ch=1 n=g#5 v=0
37886 On ch=1 n=a5 v=106
38040 On ch=1 n=a5 v=0
38040 On ch=1 n=g#5 v=106
38192 On ch=1 n=g#5 v=0
38192 On ch=1 n=f5 v=0
38192 On ch=1 n=f#5 v=103
38192 On ch=1 n=d#5 v=103
38500 On ch=1 n=d#5 v=0
38500 On ch=1 n=f#5 v=0
38500 On ch=1 n=g#5 v=103
38500 On ch=1 n=f5 v=103
38820 Par ch=1 c=64 v=0
38824 On ch=1 n=f5 v=0
38824 On ch=1 n=g#5 v=0
38824 On ch=1 n=a5 v=116
38824 On ch=1 n=f#5 v=116
38830 Par ch=1 c=64 v=127
40694 Par ch=1 c=64 v=0
40698 On ch=1 n=f#5 v=0
40698 On ch=1 n=a5 v=0
40698 On ch=1 n=g#5 v=99
40698 On ch=1 n=e5 v=99
40994 On ch=1 n=e5 v=0
40994 On ch=1 n=g#5 v=0
40994 On ch=1 n=f#5 v=100
40994 On ch=1 n=d5 v=100
41328 On ch=1 n=d5 v=0
41328 On ch=1 n=f#5 v=0
41328 On ch=1 n=f5 v=104
41328 On ch=1 n=c#5 v=104
41334 Par ch=1 c=64 v=127
41940 On ch=1 n=c#5 v=0
41940 On ch=1 n=f5 v=0
41940 On ch=1 n=f#5 v=103
41940 On ch=1 n=d#5 v=103
42222 On ch=1 n=d#5 v=0
42222 On ch=1 n=f#5 v=0
42222 On ch=1 n=g#5 v=102
42222 On ch=1 n=f5 v=102
42544 Par ch=1 c=64 v=0
42548 On ch=1 n=f5 v=0
42548 On ch=1 n=g#5 v=0
42548 On ch=1 n=b5 v=106
42548 On ch=1 n=f#5 v=106
42554 Par ch=1 c=64 v=127
42700 On ch=1 n=b5 v=0
42700 On ch=1 n=a5 v=106
42834 On ch=1 n=a5 v=0
42834 On ch=1 n=b5 v=103
42988 On ch=1 n=b5 v=0
42988 On ch=1 n=a5 v=103
43136 On ch=1 n=a5 v=0
43136 On ch=1 n=b5 v=101
43282 On ch=1 n=b5 v=0
43282 On ch=1 n=a5 v=101
43436 On ch=1 n=a5 v=0
43436 On ch=1 n=b5 v=103
43586 On ch=1 n=b5 v=0
43586 On ch=1 n=a5 v=103
43730 On ch=1 n=a5 v=0
43730 On ch=1 n=b5 v=100
43878 On ch=1 n=b5 v=0
43878 On ch=1 n=a5 v=100
44050 On ch=1 n=a5 v=0
44050 On ch=1 n=b5 v=101
44204 On ch=1 n=b5 v=0
44204 On ch=1 n=a5 v=101
44360 Par ch=1 c=64 v=0
44364 On ch=1 n=a5 v=0
44364 On ch=1 n=f#5 v=0
44364 On ch=1 n=g#5 v=97
44364 On ch=1 n=f5 v=97
44652 On ch=1 n=f5 v=0
44652 On ch=1 n=g#5 v=0
44652 On ch=1 n=a5 v=99
44652 On ch=1 n=f#5 v=99
44954 On ch=1 n=f#5 v=0
44954 On ch=1 n=a5 v=0
44954 On ch=1 n=b5 v=103
44954 On ch=1 n=g#5 v=103
44954 On ch=1 n=d5 v=103
44958 Par ch=1 c=64 v=127
45588 On ch=1 n=d5 v=0
45588 On ch=1 n=g#5 v=0
45588 On ch=1 n=b5 v=0
45588 On ch=1 n=a5 v=101
45588 On ch=1 n=f#5 v=101
46226 Par ch=1 c=64 v=0
46230 On ch=1 n=f#5 v=0
46230 On ch=1 n=a5 v=0
46230 On ch=1 n=c#6 v=103
46230 On ch=1 n=c#5 v=103
46236 Par ch=1 c=64 v=127
46844 On ch=1 n=c#5 v=0
46844 On ch=1 n=c#6 v=0
46844 On ch=1 n=a5 v=101
46844 On ch=1 n=f#5 v=101
47132 On ch=1 n=f#5 v=0
47132 On ch=1 n=a5 v=0
47132 On ch=1 n=c#6 v=101
47132 On ch=1 n=c#5 v=101
47440 Par ch=1 c=64 v=0
47444 On ch=1 n=c#5 v=0
47444 On ch=1 n=c#6 v=0
47444 On ch=1 n=d5 v=104
47444 On ch=1 n=d6 v=104
48062 On ch=1 n=a5 v=101
48062 On ch=1 n=f#5 v=101
48356 On ch=1 n=f#5 v=0
48356 On ch=1 n=a5 v=0
48356 On ch=1 n=a5 v=99
48356 On ch=1 n=f#5 v=99
48650 On ch=1 n=f#5 v=0
48650 On ch=1 n=a5 v=0
48650 On ch=1 n=a5 v=100
48650 On ch=1 n=f#5 v=100
49280 On ch=1 n=f#5 v=0
49280 On ch=1 n=a5 v=0
49280 On ch=1 n=d6 v=0
49280 On ch=1 n=d5 v=0
49280 On ch=1 n=c#6 v=101
49280 On ch=1 n=c#5 v=101
49592 On ch=1 n=c#5 v=0
49592 On ch=1 n=c#6 v=0
49592 On ch=1 n=c6 v=101
49592 On ch=1 n=c5 v=101
49884 On ch=1 n=c5 v=0
49884 On ch=1 n=c6 v=0
49884 On ch=1 n=c#6 v=99
49884 On ch=1 n=c#5 v=99
49890 Par ch=1 c=64 v=127
50180 On ch=1 n=c#5 v=0
50180 On ch=1 n=c#6 v=0
50180 On ch=1 n=a5 v=101
50180 On ch=1 n=f#5 v=101
50458 On ch=1 n=f#5 v=0
50458 On ch=1 n=a5 v=0
50458 On ch=1 n=c#6 v=101
50458 On ch=1 n=c#5 v=101
50738 On ch=1 n=c#5 v=0
50738 On ch=1 n=c#6 v=0
50738 On ch=1 n=f#6 v=101
50738 On ch=1 n=f#5 v=101
51034 Par ch=1 c=64 v=0
51038 On ch=1 n=f#5 v=0
51038 On ch=1 n=f#6 v=0
51038 On ch=1 n=a6 v=107
51038 On ch=1 n=a5 v=107
51042 Par ch=1 c=64 v=127
51718 On ch=1 n=d#6 v=98
51718 On ch=1 n=c#6 v=98
51998 On ch=1 n=c#6 v=0
51998 On ch=1 n=d#6 v=0
51998 On ch=1 n=d#6 v=98
51998 On ch=1 n=c#6 v=98
52272 On ch=1 n=c#6 v=0
52272 On ch=1 n=d#6 v=0
52272 On ch=1 n=d#6 v=97
52272 On ch=1 n=c#6 v=97
52932 Par ch=1 c=64 v=0
52936 On ch=1 n=c#6 v=0
52936 On ch=1 n=d#6 v=0
52936 On ch=1 n=a5 v=0
52936 On ch=1 n=a6 v=0
52936 On ch=1 n=g#6 v=104
52936 On ch=1 n=g#5 v=104
53226 On ch=1 n=g#5 v=0
53226 On ch=1 n=g#6 v=0
53226 On ch=1 n=g6 v=100
53226 On ch=1 n=g5 v=100
53504 On ch=1 n=g5 v=0
53504 On ch=1 n=g6 v=0
53504 On ch=1 n=g#6 v=100
53504 On ch=1 n=g#5 v=100
53508 Par ch=1 c=64 v=127
53828 On ch=1 n=g#5 v=0
53828 On ch=1 n=g#6 v=0
53828 On ch=1 n=e6 v=102
53828 On ch=1 n=c#6 v=102
54132 On ch=1 n=c#6 v=0
54132 On ch=1 n=e6 v=0
54132 On ch=1 n=g#6 v=101
54132 On ch=1 n=g#5 v=101
54414 On ch=1 n=g#5 v=0
54414 On ch=1 n=g#6 v=0
54414 On ch=1 n=a#6 v=101
54414 On ch=1 n=a#5 v=101
54716 On ch=1 n=a#5 v=0
54716 On ch=1 n=a#6 v=0
54716 On ch=1 n=c7 v=103
54716 On ch=1 n=c6 v=103
55006 On ch=1 n=c6 v=0
55006 On ch=1 n=c7 v=0
55006 On ch=1 n=c#7 v=103
55006 On ch=1 n=c#6 v=103
55302 On ch=1 n=c#6 v=0
55302 On ch=1 n=c#7 v=0
55302 On ch=1 n=d#7 v=103
55302 On ch=1 n=d#6 v=103
55592 On ch=1 n=d#6 v=0
55592 On ch=1 n=d#7 v=0
55592 On ch=1 n=e7 v=106
55592 On ch=1 n=e6 v=106
55886 Par ch=1 c=64 v=0
55890 On ch=1 n=e6 v=0
55890 On ch=1 n=e7 v=0
55890 On ch=1 n=e7 v=109
55890 On ch=1 n=e6 v=109
56178 On ch=1 n=c7 v=113
56178 On ch=1 n=g#6 v=113
56488 On ch=1 n=g#6 v=0
56488 On ch=1 n=c7 v=0
56488 On ch=1 n=c7 v=112
56488 On ch=1 n=g#6 v=112
56796 On ch=1 n=g#6 v=0
56796 On ch=1 n=c7 v=0
56796 On ch=1 n=e6 v=0
56796 On ch=1 n=e7 v=0
56796 On ch=1 n=d#7 v=113
56796 On ch=1 n=d#6 v=113
57110 On ch=1 n=d#6 v=0
57110 On ch=1 n=d#7 v=0
57110 On ch=1 n=c#7 v=114
57110 On ch=1 n=c#6 v=114
57116 Par ch=1 c=64 v=127
57416 On ch=1 n=g#6 v=111
57416 On ch=1 n=f6 v=111
57692 On ch=1 n=f6 v=0
57692 On ch=1 n=g#6 v=0
57692 On ch=1 n=c#6 v=0
57692 On ch=1 n=c#7 v=0
57692 On ch=1 n=c#7 v=110
57692 On ch=1 n=c#6 v=110
57988 On ch=1 n=c#6 v=0
57988 On ch=1 n=c#7 v=0
57988 On ch=1 n=d#7 v=107
57988 On ch=1 n=d#6 v=107
58266 On ch=1 n=d#6 v=0
58266 On ch=1 n=d#7 v=0
58266 On ch=1 n=f7 v=109
58266 On ch=1 n=f6 v=109
58556 On ch=1 n=f6 v=0
58556 On ch=1 n=f7 v=0
58556 On ch=1 n=f#7 v=111
58556 On ch=1 n=f#6 v=111
58856 On ch=1 n=f#6 v=0
58856 On ch=1 n=f#7 v=0
58856 On ch=1 n=g#7 v=104
58856 On ch=1 n=g#6 v=104
59138 On ch=1 n=g#6 v=0
59138 On ch=1 n=g#7 v=0
59138 On ch=1 n=a7 v=106
59138 On ch=1 n=a6 v=106
59432 On ch=1 n=a6 v=0
59432 On ch=1 n=a7 v=0
59432 On ch=1 n=b7 v=104
59432 On ch=1 n=b6 v=104
59730 On ch=1 n=b6 v=0
59730 On ch=1 n=b7 v=0
59730 On ch=1 n=c#8 v=104
59730 On ch=1 n=c#7 v=104
60032 On ch=1 n=c#7 v=0
60032 On ch=1 n=c#8 v=0
60032 On ch=1 n=d8 v=104
60032 On ch=1 n=d7 v=104
60320 On ch=1 n=d7 v=0
60320 On ch=1 n=d8 v=0
60320 On ch=1 n=c#8 v=106
60320 On ch=1 n=c#7 v=106
60606 Par ch=1 c=64 v=0
60610 On ch=1 n=c#7 v=0
60610 On ch=1 n=c#8 v=0
60610 On ch=1 n=f#5 v=106
61858 On ch=1 n=f#5 v=0
61858 On ch=1 n=a5 v=99
63040 On ch=1 n=a5 v=0
63040 On ch=1 n=a5 v=94
63918 On ch=1 n=a5 v=0
63918 On ch=1 n=g#5 v=96
64214 On ch=1 n=g#5 v=0
64214 On ch=1 n=f#5 v=94
65404 On ch=1 n=f#5 v=0
65404 On ch=1 n=c#5 v=99
68002 On ch=1 n=c#5 v=0
68002 On ch=1 n=c#6 v=93
69252 On ch=1 n=c#6 v=0
69252 On ch=1 n=e6 v=93
70512 On ch=1 n=e6 v=0
70512 On ch=1 n=e6 v=94
71474 On ch=1 n=e6 v=0
71474 On ch=1 n=d6 v=91
71778 On ch=1 n=d6 v=0
71778 On ch=1 n=c#6 v=92
73002 On ch=1 n=c#6 v=0
73002 On ch=1 n=b5 v=96
74230 On ch=1 n=b5 v=0
74230 On ch=1 n=a5 v=99
75468 On ch=1 n=a5 v=0
75468 On ch=1 n=f6 v=108
75468 On ch=1 n=c#6 v=108
75468 On ch=1 n=b5 v=108
75468 On ch=1 n=f5 v=108
75474 Par ch=1 c=64 v=127
76076 On ch=1 n=f5 v=0
76076 On ch=1 n=b5 v=0
76076 On ch=1 n=c#6 v=0
76076 On ch=1 n=f6 v=0
76076 On ch=1 n=f#6 v=105
76076 On ch=1 n=f#5 v=105
76382 On ch=1 n=f#5 v=0
76382 On ch=1 n=f#6 v=0
76382 On ch=1 n=g#6 v=106
76382 On ch=1 n=g#5 v=106
76688 Par ch=1 c=64 v=0
76692 On ch=1 n=g#5 v=0
76692 On ch=1 n=g#6 v=0
76692 On ch=1 n=a6 v=106
76692 On ch=1 n=c#6 v=106
76692 On ch=1 n=a5 v=106
76698 Par ch=1 c=64 v=127
77316 On ch=1 n=a5 v=0
77316 On ch=1 n=c#6 v=0
77316 On ch=1 n=a6 v=0
77316 On ch=1 n=b6 v=109
77316 On ch=1 n=b5 v=109
77610 On ch=1 n=b5 v=0
77610 On ch=1 n=b6 v=0
77610 On ch=1 n=a6 v=106
77610 On ch=1 n=a5 v=106
77930 Par ch=1 c=64 v=0
77934 On ch=1 n=a5 v=0
77934 On ch=1 n=a6 v=0
77934 On ch=1 n=g#6 v=106
77934 On ch=1 n=d6 v=106
77934 On ch=1 n=g#5 v=106
77940 Par ch=1 c=64 v=127
78570 On ch=1 n=g#5 v=0
78570 On ch=1 n=d6 v=0
78570 On ch=1 n=g#6 v=0
78570 On ch=1 n=f#6 v=109
78570 On ch=1 n=f#5 v=109
78866 On ch=1 n=f#5 v=0
78866 On ch=1 n=f#6 v=0
78866 On ch=1 n=g#6 v=108
78866 On ch=1 n=g#5 v=108
79162 Par ch=1 c=64 v=0
79166 On ch=1 n=g#5 v=0
79166 On ch=1 n=g#6 v=0
79166 On ch=1 n=f6 v=112
79166 On ch=1 n=c#6 v=112
79166 On ch=1 n=f5 v=112
79170 Par ch=1 c=64 v=127
79786 On ch=1 n=f5 v=0
79786 On ch=1 n=c#6 v=0
79786 On ch=1 n=f6 v=0
79786 On ch=1 n=f#6 v=108
79786 On ch=1 n=f#5 v=108
80098 On ch=1 n=f#5 v=0
80098 On ch=1 n=f#6 v=0
80098 On ch=1 n=g#6 v=108
80098 On ch=1 n=g#5 v=108
80398 Par ch=1 c=64 v=0
80402 On ch=1 n=g#5 v=0
80402 On ch=1 n=g#6 v=0
80402 On ch=1 n=a6 v=109
80402 On ch=1 n=c#6 v=109
80402 On ch=1 n=a5 v=109
80408 Par ch=1 c=64 v=127
81028 On ch=1 n=a5 v=0
81028 On ch=1 n=c#6 v=0
81028 On ch=1 n=a6 v=0
81028 On ch=1 n=b6 v=104
81028 On ch=1 n=b5 v=104
81322 On ch=1 n=b5 v=0
81322 On ch=1 n=b6 v=0
81322 On ch=1 n=c#7 v=106
81322 On ch=1 n=c#6 v=106
81628 Par ch=1 c=64 v=0
81632 On ch=1 n=c#6 v=0
81632 On ch=1 n=c#7 v=0
81632 On ch=1 n=d7 v=115
81632 On ch=1 n=f#6 v=115
81632 On ch=1 n=d6 v=115
81638 Par ch=1 c=64 v=127
82276 On ch=1 n=d6 v=0
82276 On ch=1 n=f#6 v=0
82276 On ch=1 n=d7 v=0
82276 On ch=1 n=f#6 v=109
82276 On ch=1 n=f#5 v=109
82564 On ch=1 n=f#5 v=0
82564 On ch=1 n=f#6 v=0
82564 On ch=1 n=g#6 v=106
82564 On ch=1 n=g#5 v=106
82878 Par ch=1 c=64 v=0
82882 On ch=1 n=g#5 v=0
82882 On ch=1 n=g#6 v=0
82882 On ch=1 n=a6 v=107
82882 On ch=1 n=d6 v=107
82882 On ch=1 n=a5 v=107
83510 On ch=1 n=a5 v=0
83510 On ch=1 n=d6 v=0
83510 On ch=1 n=a6 v=0
83510 On ch=1 n=g#6 v=109
83510 On ch=1 n=g#5 v=109
83792 On ch=1 n=g#5 v=0
83792 On ch=1 n=g#6 v=0
83792 On ch=1 n=f#6 v=104
83792 On ch=1 n=f#5 v=104
84118 On ch=1 n=f#5 v=0
84118 On ch=1 n=f#6 v=0
84118 On ch=1 n=f#7 v=126
84118 On ch=1 n=f#6 v=126
84124 Par ch=1 c=64 v=127
84748 On ch=1 n=f#6 v=0
84748 On ch=1 n=f#7 v=0
84748 On ch=1 n=g#5 v=107
84748 On ch=1 n=f#5 v=107
84748 On ch=1 n=d5 v=107
84748 On ch=1 n=g#4 v=107
85366 On ch=1 n=g#4 v=0
85366 On ch=1 n=d5 v=0
85366 On ch=1 n=f#5 v=0
85366 On ch=1 n=g#5 v=0
85366 On ch=1 n=g#6 v=112
85366 On ch=1 n=d6 v=112
85366 On ch=1 n=g#5 v=112
86006 Par ch=1 c=64 v=0
86010 On ch=1 n=g#5 v=0
86010 On ch=1 n=d6 v=0
86010 On ch=1 n=g#6 v=0
86010 On ch=1 n=f#6 v=115
86010 On ch=1 n=f#5 v=115
86330 On ch=1 n=f#5 v=0
86330 On ch=1 n=f#6 v=0
86330 On ch=1 n=g#6 v=108
86330 On ch=1 n=g#5 v=108
86644 On ch=1 n=g#5 v=0
86644 On ch=1 n=g#6 v=0
86644 On ch=1 n=b6 v=109
86644 On ch=1 n=d6 v=109
86644 On ch=1 n=b5 v=109
86922 On ch=1 n=b5 v=0
86922 On ch=1 n=d6 v=0
86922 On ch=1 n=b6 v=0
86922 On ch=1 n=a6 v=103
86922 On ch=1 n=a5 v=103
87214 On ch=1 n=a5 v=0
87214 On ch=1 n=a6 v=0
87214 On ch=1 n=a6 v=104
87214 On ch=1 n=d6 v=104
87214 On ch=1 n=a5 v=104
87404 On ch=1 n=a5 v=0
87404 On ch=1 n=d6 v=0
87404 On ch=1 n=a6 v=0
87404 On ch=1 n=g#6 v=104
87404 On ch=1 n=g#5 v=104
87632 On ch=1 n=g#5 v=0
87632 On ch=1 n=g#6 v=0
87632 On ch=1 n=f#6 v=105
87632 On ch=1 n=f#5 v=105
87868 On ch=1 n=f#5 v=0
87868 On ch=1 n=f#6 v=0
87868 On ch=1 n=a7 v=115
87868 On ch=1 n=a6 v=115
87874 Par ch=1 c=64 v=127
88526 On ch=1 n=a6 v=0
88526 On ch=1 n=a7 v=0
88526 On ch=1 n=f#5 v=107
88526 On ch=1 n=c5 v=107
88526 On ch=1 n=f#4 v=107
89922 On ch=1 n=f#4 v=0
89922 On ch=1 n=c5 v=0
89922 On ch=1 n=f#5 v=0
89922 On ch=1 n=f#5 v=103
89922 On ch=1 n=c5 v=103
89922 On ch=1 n=f#4 v=103
91274 On ch=1 n=f#4 v=0
91274 On ch=1 n=c5 v=0
91274 On ch=1 n=f#5 v=0
91274 On ch=1 n=f#5 v=101
91274 On ch=1 n=c5 v=101
91274 On ch=1 n=f#4 v=101
92618 Par ch=1 c=64 v=0
92622 On ch=1 n=f#4 v=0
92622 On ch=1 n=c5 v=0
92622 On ch=1 n=f#5 v=0
92622 On ch=1 n=g5 v=104
92622 On ch=1 n=b4 v=104
92622 On ch=1 n=g4 v=104
93308 On ch=1 n=g4 v=0
93308 On ch=1 n=b4 v=0
93308 On ch=1 n=g5 v=0
93308 On ch=1 n=g5 v=100
93308 On ch=1 n=b4 v=100
93308 On ch=1 n=g4 v=100
93980 On ch=1 n=g4 v=0
93980 On ch=1 n=b4 v=0
93980 On ch=1 n=g5 v=0
93980 On ch=1 n=f5 v=98
93980 On ch=1 n=b4 v=98
93980 On ch=1 n=f4 v=98
94666 On ch=1 n=f4 v=0
94666 On ch=1 n=b4 v=0
94666 On ch=1 n=f5 v=0
94666 On ch=1 n=f5 v=95
94666 On ch=1 n=b4 v=95
94666 On ch=1 n=f4 v=95
95334 On ch=1 n=f4 v=0
95334 On ch=1 n=b4 v=0
95334 On ch=1 n=f5 v=0
95334 On ch=1 n=f#5 v=98
95334 On ch=1 n=a4 v=98
95334 On ch=1 n=f#4 v=98
96016 On ch=1 n=f#4 v=0
96016 On ch=1 n=a4 v=0
96016 On ch=1 n=f#5 v=0
96016 On ch=1 n=c#4 v=107
96188 On ch=1 n=c#4 v=0
96188 On ch=1 n=d4 v=107
96332 On ch=1 n=d4 v=0
96332 On ch=1 n=c#4 v=101
96664 On ch=1 n=c#4 v=0
96664 On ch=1 n=g#3 v=103
97040 On ch=1 n=g#3 v=0
97040 On ch=1 n=a3 v=100
97382 On ch=1 n=a3 v=0
97382 On ch=1 n=f#3 v=101
98042 On ch=1 n=f#3 v=0
98692 On ch=1 n=f4 v=108
98850 On ch=1 n=f4 v=0
98850 On ch=1 n=f5 v=108
98850 On ch=1 n=f4 v=108
100716 On ch=1 n=f4 v=0
100716 On ch=1 n=f5 v=0
100716 On ch=1 n=g5 v=101
100716 On ch=1 n=g4 v=101
101436 On ch=1 n=g4 v=0
101436 On ch=1 n=g5 v=0
101436 On ch=1 n=a5 v=101
101436 On ch=1 n=a4 v=101
101852 On ch=1 n=a4 v=0
101852 On ch=1 n=a5 v=0
101852 On ch=1 n=a#5 v=100
101852 On ch=1 n=a#4 v=100
102262 On ch=1 n=a#4 v=0
102262 On ch=1 n=a#5 v=0
102262 On ch=1 n=c6 v=100
102262 On ch=1 n=c5 v=100
102660 On ch=1 n=c5 v=0
102660 On ch=1 n=c6 v=0
102660 On ch=1 n=c#6 v=100
102660 On ch=1 n=c#5 v=100
102666 Par ch=1 c=64 v=127
103708 On ch=1 n=c#5 v=0
103708 On ch=1 n=c#6 v=0
103708 On ch=1 n=d#6 v=99
103708 On ch=1 n=d#5 v=99
103858 On ch=1 n=d#5 v=0
103858 On ch=1 n=d#6 v=0
103858 On ch=1 n=f6 v=100
103858 On ch=1 n=f5 v=100
104472 On ch=1 n=f5 v=0
104472 On ch=1 n=f6 v=0
104472 On ch=1 n=g6 v=101
104472 On ch=1 n=g5 v=101
105110 Par ch=1 c=64 v=0
105114 On ch=1 n=g5 v=0
105114 On ch=1 n=g6 v=0
105114 On ch=1 n=a6 v=101
105114 On ch=1 n=a5 v=101
105512 On ch=1 n=a5 v=0
105512 On ch=1 n=a6 v=0
105512 On ch=1 n=a#6 v=100
105512 On ch=1 n=a#5 v=100
105896 On ch=1 n=a#5 v=0
105896 On ch=1 n=a#6 v=0
105896 On ch=1 n=c7 v=100
105896 On ch=1 n=c6 v=100
106280 On ch=1 n=c6 v=0
106280 On ch=1 n=c7 v=0
106280 On ch=1 n=c#7 v=101
106280 On ch=1 n=c#6 v=101
106284 Par ch=1 c=64 v=127
106924 On ch=1 n=c#6 v=0
106924 On ch=1 n=c#7 v=0
107242 On ch=1 n=f6 v=101
107242 On ch=1 n=f5 v=101
107528 On ch=1 n=f5 v=0
107528 On ch=1 n=f6 v=0
107528 On ch=1 n=c#6 v=106
107680 On ch=1 n=c#6 v=0
107680 On ch=1 n=c#7 v=106
107680 On ch=1 n=c#6 v=106
108816 Par ch=1 c=64 v=0
108820 On ch=1 n=c#6 v=0
108820 On ch=1 n=c#7 v=0
108820 On ch=1 n=c7 v=107
108820 On ch=1 n=c6 v=107
110134 On ch=1 n=c6 v=0
110134 On ch=1 n=c7 v=0
110134 On ch=1 n=a#6 v=103
110134 On ch=1 n=a#5 v=103
110140 Par ch=1 c=64 v=127
110140 Par ch=1 c=64 v=127
111398 On ch=1 n=a#5 v=0
111398 On ch=1 n=a#6 v=0
111398 On ch=1 n=f5 v=101
111398 On ch=1 n=f4 v=101
112630 Par ch=1 c=64 v=0
112634 On ch=1 n=f4 v=0
112634 On ch=1 n=f5 v=0
112634 On ch=1 n=g4 v=108
112946 On ch=1 n=g4 v=0
112946 On ch=1 n=g#5 v=106
113096 On ch=1 n=g#5 v=0
113096 On ch=1 n=g5 v=106
113268 On ch=1 n=g5 v=0
113268 On ch=1 n=g#5 v=103
113426 On ch=1 n=g#5 v=0
113426 On ch=1 n=g5 v=103
113632 On ch=1 n=g5 v=0
113632 On ch=1 n=f5 v=105
113804 On ch=1 n=f5 v=0
113804 On ch=1 n=g5 v=105
113900 Par ch=1 c=64 v=0
113904 On ch=1 n=g5 v=0
113904 On ch=1 n=d#5 v=105
113910 Par ch=1 c=64 v=127
114252 On ch=1 n=d#5 v=0
114252 On ch=1 n=d#5 v=104
114252 On ch=1 n=d#4 v=104
115810 On ch=1 n=d#4 v=0
115810 On ch=1 n=d#5 v=0
115810 On ch=1 n=f5 v=103
115810 On ch=1 n=f4 v=103
116446 Par ch=1 c=64 v=0
116450 On ch=1 n=f4 v=0
116450 On ch=1 n=f5 v=0
116450 On ch=1 n=g5 v=103
116450 On ch=1 n=g4 v=103
116864 On ch=1 n=g4 v=0
116864 On ch=1 n=g5 v=0
116864 On ch=1 n=g#5 v=101
116864 On ch=1 n=g#4 v=101
117252 On ch=1 n=g#4 v=0
117252 On ch=1 n=g#5 v=0
117252 On ch=1 n=a#5 v=102
117252 On ch=1 n=a#4 v=102
117670 Par ch=1 c=64 v=0
117674 On ch=1 n=a#4 v=0
117674 On ch=1 n=a#5 v=0
117674 On ch=1 n=c6 v=101
117674 On ch=1 n=c5 v=101
117680 Par ch=1 c=64 v=127
118744 On ch=1 n=c5 v=0
118744 On ch=1 n=c6 v=0
118744 On ch=1 n=c#6 v=103
118744 On ch=1 n=c#5 v=103
118918 On ch=1 n=c#5 v=0
118918 On ch=1 n=c#6 v=0
118918 On ch=1 n=d#6 v=101
118918 On ch=1 n=d#5 v=101
119540 On ch=1 n=d#5 v=0
119540 On ch=1 n=d#6 v=0
119540 On ch=1 n=f6 v=102
119540 On ch=1 n=f5 v=102
120152 On ch=1 n=f5 v=0
120152 On ch=1 n=f6 v=0
120152 On ch=1 n=g6 v=99
120152 On ch=1 n=g5 v=99
120158 Par ch=1 c=64 v=127
120558 On ch=1 n=g5 v=0
120558 On ch=1 n=g6 v=0
120558 On ch=1 n=g#6 v=103
120558 On ch=1 n=g#5 v=103
120954 On ch=1 n=g#5 v=0
120954 On ch=1 n=g#6 v=0
120954 On ch=1 n=a#6 v=103
120954 On ch=1 n=a#5 v=103
121358 On ch=1 n=a#5 v=0
121358 On ch=1 n=a#6 v=0
121358 On ch=1 n=c7 v=103
121358 On ch=1 n=c6 v=103
121976 On ch=1 n=c6 v=0
121976 On ch=1 n=c7 v=0
122314 On ch=1 n=d#6 v=97
122314 On ch=1 n=d#5 v=97
122580 On ch=1 n=d#5 v=0
122580 On ch=1 n=d#6 v=0
122580 On ch=1 n=c6 v=103
122732 On ch=1 n=c6 v=0
122732 On ch=1 n=c7 v=103
122732 On ch=1 n=c6 v=103
123920 Par ch=1 c=64 v=0
123924 On ch=1 n=c6 v=0
123924 On ch=1 n=c7 v=0
123924 On ch=1 n=a#6 v=103
123924 On ch=1 n=a#5 v=103
125306 On ch=1 n=a#5 v=0
125306 On ch=1 n=a#6 v=0
125306 On ch=1 n=g#6 v=101
125306 On ch=1 n=g#5 v=101
125312 Par ch=1 c=64 v=127
126566 On ch=1 n=g#5 v=0
126566 On ch=1 n=g#6 v=0
126566 On ch=1 n=d#6 v=99
126566 On ch=1 n=d#5 v=99
127292 Par ch=1 c=64 v=0
127976 On ch=1 n=d#5 v=0
127976 On ch=1 n=d#6 v=0
127976 On ch=1 n=f5 v=100
127982 Par ch=1 c=64 v=127
128312 On ch=1 n=f5 v=0
128312 On ch=1 n=f#6 v=103
128474 On ch=1 n=f#6 v=0
128474 On ch=1 n=f6 v=103
128598 On ch=1 n=f6 v=0
128598 On ch=1 n=f#6 v=103
128754 On ch=1 n=f#6 v=0
128754 On ch=1 n=f6 v=103
128936 On ch=1 n=f6 v=0
128936 On ch=1 n=d#6 v=107
129092 On ch=1 n=d#6 v=0
129092 On ch=1 n=f6 v=107
129206 Par ch=1 c=64 v=0
129210 On ch=1 n=f6 v=0
129210 On ch=1 n=f#6 v=109
129210 On ch=1 n=f#5 v=109
129216 Par ch=1 c=64 v=127
129870 On ch=1 n=c#6 v=105
129870 On ch=1 n=a5 v=105
130160 On ch=1 n=a5 v=0
130160 On ch=1 n=c#6 v=0
130160 On ch=1 n=c#6 v=110
130160 On ch=1 n=a5 v=110
130438 Par ch=1 c=64 v=0
130442 On ch=1 n=a5 v=0
130442 On ch=1 n=c#6 v=0
130442 On ch=1 n=f#5 v=0
130442 On ch=1 n=c#6 v=112
130442 On ch=1 n=f#5 v=112
131078 On ch=1 n=f#5 v=0
131078 On ch=1 n=c#6 v=0
131078 On ch=1 n=f#6 v=0
131078 On ch=1 n=e6 v=112
131078 On ch=1 n=b5 v=112
131078 On ch=1 n=f#5 v=112
131078 On ch=1 n=e5 v=112
131372 On ch=1 n=e5 v=0
131372 On ch=1 n=f#5 v=0
131372 On ch=1 n=b5 v=0
131372 On ch=1 n=e6 v=0
131372 On ch=1 n=d6 v=110
131372 On ch=1 n=d5 v=110
131686 On ch=1 n=d5 v=0
131686 On ch=1 n=d6 v=0
131686 On ch=1 n=c#6 v=112
131686 On ch=1 n=g#5 v=112
131686 On ch=1 n=c#5 v=112
131692 Par ch=1 c=64 v=127
132398 On ch=1 n=c#5 v=0
132398 On ch=1 n=g#5 v=0
132398 On ch=1 n=c#6 v=0
132398 On ch=1 n=d#6 v=123
132398 On ch=1 n=d#5 v=123
132696 On ch=1 n=d#5 v=0
132696 On ch=1 n=d#6 v=0
132696 On ch=1 n=f6 v=113
132696 On ch=1 n=f5 v=113
132980 Par ch=1 c=64 v=0
132984 On ch=1 n=f5 v=0
132984 On ch=1 n=f6 v=0
132984 On ch=1 n=f#6 v=112
132984 On ch=1 n=f#5 v=112
132988 Par ch=1 c=64 v=127
133674 On ch=1 n=c#6 v=114
133674 On ch=1 n=a5 v=114
133980 On ch=1 n=a5 v=0
133980 On ch=1 n=c#6 v=0
133980 On ch=1 n=c#6 v=108
133980 On ch=1 n=a5 v=108
134290 Par ch=1 c=64 v=0
134294 On ch=1 n=a5 v=0
134294 On ch=1 n=c#6 v=0
134294 On ch=1 n=c#6 v=112
134294 On ch=1 n=a5 v=112
134930 On ch=1 n=a5 v=0
134930 On ch=1 n=c#6 v=0
134930 On ch=1 n=f#5 v=0
134930 On ch=1 n=f#6 v=0
134930 On ch=1 n=f6 v=114
134930 On ch=1 n=b5 v=114
134930 On ch=1 n=f5 v=114
135226 On ch=1 n=f5 v=0
135226 On ch=1 n=b5 v=0
135226 On ch=1 n=f6 v=0
135226 On ch=1 n=f#6 v=108
135226 On ch=1 n=f#5 v=108
135530 On ch=1 n=f#5 v=0
135530 On ch=1 n=f#6 v=0
135530 On ch=1 n=g#6 v=109
135536 Par ch=1 c=64 v=127
136162 On ch=1 n=g#6 v=0
136162 On ch=1 n=f#6 v=113
136162 On ch=1 n=f#5 v=113
136456 On ch=1 n=f#5 v=0
136456 On ch=1 n=f#6 v=0
136456 On ch=1 n=g#6 v=111
136456 On ch=1 n=g#5 v=111
136768 Par ch=1 c=64 v=0
136772 On ch=1 n=g#5 v=0
136772 On ch=1 n=g#6 v=0
136772 On ch=1 n=a6 v=116
136772 On ch=1 n=a5 v=116
136778 Par ch=1 c=64 v=127
137432 On ch=1 n=f#6 v=112
137432 On ch=1 n=c#6 v=112
137734 On ch=1 n=c#6 v=0
137734 On ch=1 n=f#6 v=0
137734 On ch=1 n=f#6 v=104
137734 On ch=1 n=c#6 v=104
138030 Par ch=1 c=64 v=0
138034 On ch=1 n=c#6 v=0
138034 On ch=1 n=f#6 v=0
138034 On ch=1 n=f#6 v=107
138034 On ch=1 n=c#6 v=107
138678 On ch=1 n=c#6 v=0
138678 On ch=1 n=f#6 v=0
138678 On ch=1 n=a5 v=0
138678 On ch=1 n=a6 v=0
138678 On ch=1 n=g#6 v=115
138678 On ch=1 n=d6 v=115
138678 On ch=1 n=b5 v=115
138678 On ch=1 n=g#5 v=115
138982 On ch=1 n=g#5 v=0
138982 On ch=1 n=b5 v=0
138982 On ch=1 n=d6 v=0
138982 On ch=1 n=g#6 v=0
138982 On ch=1 n=f#6 v=111
138982 On ch=1 n=f#5 v=111
139292 On ch=1 n=f#5 v=0
139292 On ch=1 n=f#6 v=0
139292 On ch=1 n=f6 v=110
139292 On ch=1 n=d6 v=110
139292 On ch=1 n=b5 v=110
139292 On ch=1 n=f5 v=110
139298 Par ch=1 c=64 v=127
139936 On ch=1 n=f5 v=0
139936 On ch=1 n=b5 v=0
139936 On ch=1 n=d6 v=0
139936 On ch=1 n=f6 v=0
139936 On ch=1 n=f#6 v=110
139936 On ch=1 n=f#5 v=110
140242 On ch=1 n=f#5 v=0
140242 On ch=1 n=f#6 v=0
140242 On ch=1 n=g#6 v=112
140242 On ch=1 n=g#5 v=112
140542 Par ch=1 c=64 v=0
140546 On ch=1 n=g#5 v=0
140546 On ch=1 n=g#6 v=0
140546 On ch=1 n=a6 v=118
140546 On ch=1 n=a5 v=118
140552 Par ch=1 c=64 v=127
141164 On ch=1 n=f#6 v=107
141164 On ch=1 n=c#6 v=107
141482 On ch=1 n=c#6 v=0
141482 On ch=1 n=f#6 v=0
141482 On ch=1 n=f#6 v=107
141482 On ch=1 n=c#6 v=107
141780 Par ch=1 c=64 v=0
141784 On ch=1 n=c#6 v=0
141784 On ch=1 n=f#6 v=0
141784 On ch=1 n=f#6 v=109
141784 On ch=1 n=c#6 v=109
142424 On ch=1 n=c#6 v=0
142424 On ch=1 n=f#6 v=0
142424 On ch=1 n=a5 v=0
142424 On ch=1 n=a6 v=0
142424 On ch=1 n=g#6 v=113
142424 On ch=1 n=d6 v=113
142424 On ch=1 n=b5 v=113
142424 On ch=1 n=g#5 v=113
142722 On ch=1 n=g#5 v=0
142722 On ch=1 n=b5 v=0
142722 On ch=1 n=d6 v=0
142722 On ch=1 n=g#6 v=0
142722 On ch=1 n=a6 v=113
142722 On ch=1 n=a5 v=113
143034 On ch=1 n=a5 v=0
143034 On ch=1 n=a6 v=0
143034 On ch=1 n=b6 v=111
143034 On ch=1 n=g#6 v=111
143034 On ch=1 n=d6 v=111
143034 On ch=1 n=b5 v=111
143040 Par ch=1 c=64 v=127
143690 On ch=1 n=b5 v=0
143690 On ch=1 n=d6 v=0
143690 On ch=1 n=g#6 v=0
143690 On ch=1 n=b6 v=0
143690 On ch=1 n=a6 v=114
143690 On ch=1 n=a5 v=114
143990 On ch=1 n=a5 v=0
143990 On ch=1 n=a6 v=0
143990 On ch=1 n=b6 v=112
143990 On ch=1 n=b5 v=112
144296 Par ch=1 c=64 v=0
144300 On ch=1 n=b5 v=0
144300 On ch=1 n=b6 v=0
144300 On ch=1 n=c#7 v=118
144300 On ch=1 n=c#6 v=118
144306 Par ch=1 c=64 v=127
144952 On ch=1 n=c#6 v=0
144952 On ch=1 n=c#7 v=0
144952 On ch=1 n=a6 v=118
144952 On ch=1 n=f#6 v=118
145270 On ch=1 n=f#6 v=0
145270 On ch=1 n=a6 v=0
145270 On ch=1 n=c#7 v=115
145270 On ch=1 n=c#6 v=115
145568 Par ch=1 c=64 v=0
145572 On ch=1 n=c#6 v=0
145572 On ch=1 n=c#7 v=0
145572 On ch=1 n=d7 v=115
145572 On ch=1 n=d6 v=115
145578 Par ch=1 c=64 v=127
146228 On ch=1 n=a6 v=113
146228 On ch=1 n=f#6 v=113
146528 On ch=1 n=f#6 v=0
146528 On ch=1 n=a6 v=0
146528 On ch=1 n=a6 v=109
146528 On ch=1 n=f#6 v=109
146834 On ch=1 n=f#6 v=0
146834 On ch=1 n=a6 v=0
146834 On ch=1 n=a6 v=113
146834 On ch=1 n=f#6 v=113
147504 Par ch=1 c=64 v=0
147508 On ch=1 n=f#6 v=0
147508 On ch=1 n=a6 v=0
147508 On ch=1 n=d6 v=0
147508 On ch=1 n=d7 v=0
147508 On ch=1 n=c#7 v=126
147508 On ch=1 n=c#6 v=126
147812 On ch=1 n=c#6 v=0
147812 On ch=1 n=c#7 v=0
147812 On ch=1 n=c7 v=124
147812 On ch=1 n=c6 v=124
148112 On ch=1 n=c6 v=0
148112 On ch=1 n=c7 v=0
148112 On ch=1 n=c#7 v=118
148112 On ch=1 n=c#6 v=118
148118 Par ch=1 c=64 v=127
148416 On ch=1 n=c#6 v=0
148416 On ch=1 n=c#7 v=0
148416 On ch=1 n=a6 v=119
148416 On ch=1 n=f#6 v=119
148718 On ch=1 n=f#6 v=0
148718 On ch=1 n=a6 v=0
148718 On ch=1 n=c#7 v=113
148718 On ch=1 n=c#6 v=113
149024 On ch=1 n=c#6 v=0
149024 On ch=1 n=c#7 v=0
149024 On ch=1 n=f#7 v=115
149024 On ch=1 n=f#6 v=115
149328 Par ch=1 c=64 v=0
149332 On ch=1 n=f#6 v=0
149332 On ch=1 n=f#7 v=0
149332 On ch=1 n=a7 v=124
149332 On ch=1 n=a6 v=124
149338 Par ch=1 c=64 v=127
150024 On ch=1 n=d#7 v=114
150024 On ch=1 n=c#7 v=114
150352 On ch=1 n=c#7 v=0
150352 On ch=1 n=d#7 v=0
150352 On ch=1 n=d#7 v=110
150352 On ch=1 n=c#7 v=110
150664 On ch=1 n=c#7 v=0
150664 On ch=1 n=d#7 v=0
150664 On ch=1 n=d#7 v=106
150664 On ch=1 n=c#7 v=106
151318 Par ch=1 c=64 v=0
151322 On ch=1 n=c#7 v=0
151322 On ch=1 n=d#7 v=0
151322 On ch=1 n=a6 v=0
151322 On ch=1 n=a7 v=0
151322 On ch=1 n=g#7 v=119
151322 On ch=1 n=g#6 v=119
151650 On ch=1 n=g#6 v=0
151650 On ch=1 n=g#7 v=0
151650 On ch=1 n=g7 v=126
151650 On ch=1 n=g6 v=126
151970 On ch=1 n=g6 v=0
151970 On ch=1 n=g7 v=0
151970 On ch=1 n=g#7 v=127
151970 On ch=1 n=e7 v=127
151970 On ch=1 n=c#7 v=127
151970 On ch=1 n=g#6 v=127
151976 Par ch=1 c=64 v=127
152276 On ch=1 n=g#6 v=0
152276 On ch=1 n=c#7 v=0
152276 On ch=1 n=e7 v=0
152276 On ch=1 n=g#7 v=0
152276 On ch=1 n=g7 v=126
152276 On ch=1 n=g6 v=126
152594 On ch=1 n=g6 v=0
152594 On ch=1 n=g7 v=0
152594 On ch=1 n=f#7 v=123
152594 On ch=1 n=f#6 v=123
152916 On ch=1 n=f#6 v=0
152916 On ch=1 n=f#7 v=0
152916 On ch=1 n=f7 v=119
152916 On ch=1 n=f6 v=119
153222 On ch=1 n=f6 v=0
153222 On ch=1 n=f7 v=0
153222 On ch=1 n=e7 v=116
153222 On ch=1 n=e6 v=116
153516 On ch=1 n=e6 v=0
153516 On ch=1 n=e7 v=0
153516 On ch=1 n=d#7 v=123
153516 On ch=1 n=d#6 v=123
153826 On ch=1 n=d#6 v=0
153826 On ch=1 n=d#7 v=0
153826 On ch=1 n=d7 v=118
153826 On ch=1 n=d6 v=118
154142 On ch=1 n=d6 v=0
154142 On ch=1 n=d7 v=0
154142 On ch=1 n=c#7 v=116
154142 On ch=1 n=c#6 v=116
154458 Par ch=1 c=64 v=0
154462 On ch=1 n=c#6 v=0
154462 On ch=1 n=c#7 v=0
154462 On ch=1 n=c7 v=119
154462 On ch=1 n=c6 v=119
154468 Par ch=1 c=64 v=127
154788 On ch=1 n=c6 v=0
154788 On ch=1 n=c7 v=0
154788 On ch=1 n=b6 v=116
154788 On ch=1 n=b5 v=116
155108 On ch=1 n=b5 v=0
155108 On ch=1 n=b6 v=0
155108 On ch=1 n=a6 v=115
155108 On ch=1 n=a5 v=115
155414 On ch=1 n=a5 v=0
155414 On ch=1 n=a6 v=0
155414 On ch=1 n=g#6 v=116
155414 On ch=1 n=g#5 v=116
155732 Par ch=1 c=64 v=0
155736 On ch=1 n=g#5 v=0
155736 On ch=1 n=g#6 v=0
155736 On ch=1 n=c#7 v=115
155736 On ch=1 n=c#6 v=115
156386 On ch=1 n=c#6 v=0
156386 On ch=1 n=c#7 v=0
156386 On ch=1 n=c#6 v=118
156386 On ch=1 n=b5 v=118
156386 On ch=1 n=f5 v=118
156386 On ch=1 n=c#5 v=118
157678 On ch=1 n=c#5 v=0
157678 On ch=1 n=f5 v=0
157678 On ch=1 n=b5 v=0
157678 On ch=1 n=c#6 v=0
157678 On ch=1 n=c#6 v=115
157996 On ch=1 n=c#6 v=0
157996 On ch=1 n=c#6 v=115
158318 On ch=1 n=c#6 v=0
158318 On ch=1 n=c#6 v=109
158954 On ch=1 n=c#6 v=0
158954 On ch=1 n=c#6 v=114
159594 On ch=1 n=c#6 v=0
159594 On ch=1 n=c#6 v=111
160250 On ch=1 n=c#6 v=0
160848 On ch=1 n=a5 v=105
162208 On ch=1 n=a5 v=0
162208 On ch=1 n=a5 v=103
163174 On ch=1 n=a5 v=0
163174 On ch=1 n=g#5 v=100
163466 On ch=1 n=g#5 v=0
163466 On ch=1 n=f#5 v=98
164736 On ch=1 n=f#5 v=0
164736 On ch=1 n=c#5 v=97
167402 On ch=1 n=c#5 v=0
167402 On ch=1 n=c#6 v=100
168744 On ch=1 n=c#6 v=0
168744 On ch=1 n=e6 v=100
170050 On ch=1 n=e6 v=0
170050 On ch=1 n=e6 v=100
171042 On ch=1 n=e6 v=0
171042 On ch=1 n=d6 v=99
171362 On ch=1 n=d6 v=0
171362 On ch=1 n=c#6 v=100
172662 On ch=1 n=c#6 v=0
172662 On ch=1 n=b5 v=106
173970 On ch=1 n=b5 v=0
173970 On ch=1 n=a5 v=111
175256 On ch=1 n=a5 v=0
175256 On ch=1 n=f6 v=123
175256 On ch=1 n=c#6 v=123
175256 On ch=1 n=b5 v=123
175256 On ch=1 n=f5 v=123
175262 Par ch=1 c=64 v=127
175886 On ch=1 n=f5 v=0
175886 On ch=1 n=b5 v=0
175886 On ch=1 n=c#6 v=0
175886 On ch=1 n=f6 v=0
175886 On ch=1 n=f#6 v=116
175886 On ch=1 n=f#5 v=116
176208 On ch=1 n=f#5 v=0
176208 On ch=1 n=f#6 v=0
176208 On ch=1 n=g#6 v=123
176208 On ch=1 n=g#5 v=123
176546 Par ch=1 c=64 v=0
176550 On ch=1 n=g#5 v=0
176550 On ch=1 n=g#6 v=0
176550 On ch=1 n=a6 v=123
176550 On ch=1 n=c#6 v=123
176550 On ch=1 n=a5 v=123
176556 Par ch=1 c=64 v=127
177186 On ch=1 n=a5 v=0
177186 On ch=1 n=c#6 v=0
177186 On ch=1 n=a6 v=0
177186 On ch=1 n=b6 v=116
177186 On ch=1 n=b5 v=116
177506 On ch=1 n=b5 v=0
177506 On ch=1 n=b6 v=0
177506 On ch=1 n=a6 v=119
177506 On ch=1 n=a5 v=119
177830 Par ch=1 c=64 v=0
177834 On ch=1 n=a5 v=0
177834 On ch=1 n=a6 v=0
177834 On ch=1 n=g#6 v=118
177834 On ch=1 n=d6 v=118
177834 On ch=1 n=g#5 v=118
177840 Par ch=1 c=64 v=127
178494 On ch=1 n=g#5 v=0
178494 On ch=1 n=d6 v=0
178494 On ch=1 n=g#6 v=0
178494 On ch=1 n=f#6 v=116
178494 On ch=1 n=f#5 v=116
178812 On ch=1 n=f#5 v=0
178812 On ch=1 n=f#6 v=0
178812 On ch=1 n=g#6 v=111
178812 On ch=1 n=g#5 v=111
179130 Par ch=1 c=64 v=0
179134 On ch=1 n=g#5 v=0
179134 On ch=1 n=g#6 v=0
179134 On ch=1 n=f6 v=115
179134 On ch=1 n=c#6 v=115
179134 On ch=1 n=f5 v=115
179140 Par ch=1 c=64 v=127
179798 On ch=1 n=f5 v=0
179798 On ch=1 n=c#6 v=0
179798 On ch=1 n=f6 v=0
179798 On ch=1 n=f#6 v=112
179798 On ch=1 n=f#5 v=112
180122 On ch=1 n=f#5 v=0
180122 On ch=1 n=f#6 v=0
180122 On ch=1 n=g#6 v=108
180122 On ch=1 n=g#5 v=108
180408 Par ch=1 c=64 v=0
180412 On ch=1 n=g#5 v=0
180412 On ch=1 n=g#6 v=0
180412 On ch=1 n=a6 v=109
180412 On ch=1 n=c#6 v=109
180412 On ch=1 n=a5 v=109
180418 Par ch=1 c=64 v=127
181094 On ch=1 n=a5 v=0
181094 On ch=1 n=c#6 v=0
181094 On ch=1 n=a6 v=0
181094 On ch=1 n=b6 v=112
181094 On ch=1 n=b5 v=112
181406 On ch=1 n=b5 v=0
181406 On ch=1 n=b6 v=0
181406 On ch=1 n=c#7 v=116
181406 On ch=1 n=c#6 v=116
181708 Par ch=1 c=64 v=0
181712 On ch=1 n=c#6 v=0
181712 On ch=1 n=c#7 v=0
181712 On ch=1 n=d7 v=113
181712 On ch=1 n=f#6 v=113
181712 On ch=1 n=d6 v=113
181718 Par ch=1 c=64 v=127
182406 On ch=1 n=d6 v=0
182406 On ch=1 n=f#6 v=0
182406 On ch=1 n=d7 v=0
182406 On ch=1 n=f#6 v=114
182406 On ch=1 n=f#5 v=114
182728 On ch=1 n=f#5 v=0
182728 On ch=1 n=f#6 v=0
182728 On ch=1 n=g#6 v=108
182728 On ch=1 n=g#5 v=108
183024 Par ch=1 c=64 v=0
183028 On ch=1 n=g#5 v=0
183028 On ch=1 n=g#6 v=0
183028 On ch=1 n=a6 v=109
183028 On ch=1 n=d6 v=109
183028 On ch=1 n=a5 v=109
183692 On ch=1 n=a5 v=0
183692 On ch=1 n=d6 v=0
183692 On ch=1 n=a6 v=0
183692 On ch=1 n=g#6 v=113
183692 On ch=1 n=g#5 v=113
183984 On ch=1 n=g#5 v=0
183984 On ch=1 n=g#6 v=0
183984 On ch=1 n=f#6 v=109
183984 On ch=1 n=f#5 v=109
184308 On ch=1 n=f#5 v=0
184308 On ch=1 n=f#6 v=0
184308 On ch=1 n=f#7 v=127
184308 On ch=1 n=f#6 v=127
184314 Par ch=1 c=64 v=127
184978 On ch=1 n=f#6 v=0
184978 On ch=1 n=f#7 v=0
184978 On ch=1 n=g#5 v=115
184978 On ch=1 n=f#5 v=115
184978 On ch=1 n=d5 v=115
184978 On ch=1 n=g#4 v=115
185660 Par ch=1 c=64 v=0
185664 On ch=1 n=g#4 v=0
185664 On ch=1 n=d5 v=0
185664 On ch=1 n=f#5 v=0
185664 On ch=1 n=g#5 v=0
185664 On ch=1 n=g#6 v=123
185664 On ch=1 n=d6 v=123
185664 On ch=1 n=g#5 v=123
186328 On ch=1 n=g#5 v=0
186328 On ch=1 n=d6 v=0
186328 On ch=1 n=g#6 v=0
186328 On ch=1 n=f#6 v=116
186328 On ch=1 n=f#5 v=116
186646 On ch=1 n=f#5 v=0
186646 On ch=1 n=f#6 v=0
186646 On ch=1 n=g#6 v=116
186646 On ch=1 n=g#5 v=116
186972 On ch=1 n=g#5 v=0
186972 On ch=1 n=g#6 v=0
186972 On ch=1 n=b6 v=124
186972 On ch=1 n=d6 v=124
186972 On ch=1 n=b5 v=124
187414 On ch=1 n=b5 v=0
187414 On ch=1 n=d6 v=0
187414 On ch=1 n=b6 v=0
187414 On ch=1 n=a6 v=123
187414 On ch=1 n=a5 v=123
187546 On ch=1 n=a5 v=0
187546 On ch=1 n=a6 v=0
187546 On ch=1 n=a6 v=116
187546 On ch=1 n=d6 v=116
187546 On ch=1 n=a5 v=116
187738 On ch=1 n=a5 v=0
187738 On ch=1 n=d6 v=0
187738 On ch=1 n=a6 v=0
187738 On ch=1 n=g#6 v=116
187738 On ch=1 n=g#5 v=116
187958 On ch=1 n=g#5 v=0
187958 On ch=1 n=g#6 v=0
187958 On ch=1 n=f#6 v=112
187958 On ch=1 n=f#5 v=112
188166 On ch=1 n=f#5 v=0
188166 On ch=1 n=f#6 v=0
188166 On ch=1 n=a7 v=118
188166 On ch=1 n=a6 v=118
188172 Par ch=1 c=64 v=127
188852 On ch=1 n=a6 v=0
188852 On ch=1 n=a7 v=0
188852 On ch=1 n=f#5 v=116
188852 On ch=1 n=c5 v=116
188852 On ch=1 n=f#4 v=116
190324 On ch=1 n=f#4 v=0
190324 On ch=1 n=c5 v=0
190324 On ch=1 n=f#5 v=0
190324 On ch=1 n=f#5 v=111
190324 On ch=1 n=c5 v=111
190324 On ch=1 n=f#4 v=111
191686 On ch=1 n=f#4 v=0
191686 On ch=1 n=c5 v=0
191686 On ch=1 n=f#5 v=0
191686 On ch=1 n=f#5 v=109
191686 On ch=1 n=c5 v=109
191686 On ch=1 n=f#4 v=109
193044 Par ch=1 c=64 v=0
193048 On ch=1 n=f#4 v=0
193048 On ch=1 n=c5 v=0
193048 On ch=1 n=f#5 v=0
193048 On ch=1 n=g5 v=113
193048 On ch=1 n=b4 v=113
193048 On ch=1 n=g4 v=113
193716 On ch=1 n=g4 v=0
193716 On ch=1 n=b4 v=0
193716 On ch=1 n=g5 v=0
193716 On ch=1 n=g5 v=113
193716 On ch=1 n=b4 v=113
193716 On ch=1 n=g4 v=113
194406 On ch=1 n=g4 v=0
194406 On ch=1 n=b4 v=0
194406 On ch=1 n=g5 v=0
194406 On ch=1 n=f5 v=105
194406 On ch=1 n=b4 v=105
194406 On ch=1 n=f4 v=105
195062 On ch=1 n=f4 v=0
195062 On ch=1 n=b4 v=0
195062 On ch=1 n=f5 v=0
195062 On ch=1 n=f5 v=101
195062 On ch=1 n=b4 v=101
195062 On ch=1 n=f4 v=101
195704 On ch=1 n=f4 v=0
195704 On ch=1 n=b4 v=0
195704 On ch=1 n=f5 v=0
195704 On ch=1 n=f#5 v=101
195704 On ch=1 n=a4 v=101
195704 On ch=1 n=f#4 v=101
196328 On ch=1 n=f#4 v=0
196328 On ch=1 n=a4 v=0
196328 On ch=1 n=f#5 v=0
196328 On ch=1 n=c#4 v=123
196484 On ch=1 n=c#4 v=0
196484 On ch=1 n=d4 v=123
196646 On ch=1 n=d4 v=0
196646 On ch=1 n=c#4 v=120
197032 On ch=1 n=c#4 v=0
197032 On ch=1 n=g#3 v=112
197386 On ch=1 n=g#3 v=0
197386 On ch=1 n=a3 v=109
197712 On ch=1 n=a3 v=0
197712 On ch=1 n=f#3 v=109
198396 On ch=1 n=f#3 v=0
199094 On ch=1 n=f5 v=124
199094 On ch=1 n=f4 v=124
199100 Par ch=1 c=64 v=127
201128 Par ch=1 c=64 v=0
201132 On ch=1 n=f4 v=0
201132 On ch=1 n=f5 v=0
201132 On ch=1 n=g5 v=113
201132 On ch=1 n=g4 v=113
201818 On ch=1 n=g4 v=0
201818 On ch=1 n=g5 v=0
201818 On ch=1 n=a5 v=119
201818 On ch=1 n=a4 v=119
202232 On ch=1 n=a4 v=0
202232 On ch=1 n=a5 v=0
202232 On ch=1 n=a#5 v=116
202232 On ch=1 n=a#4 v=116
202640 On ch=1 n=a#4 v=0
202640 On ch=1 n=a#5 v=0
202640 On ch=1 n=c6 v=114
202640 On ch=1 n=c5 v=114
203070 On ch=1 n=c5 v=0
203070 On ch=1 n=c6 v=0
203070 On ch=1 n=c#6 v=109
203070 On ch=1 n=c#5 v=109
203076 Par ch=1 c=64 v=127
203542 On ch=1 n=c#5 v=0
203542 On ch=1 n=c#6 v=0
203542 On ch=1 n=d#6 v=112
203542 On ch=1 n=d#5 v=112
203684 On ch=1 n=d#5 v=0
203684 On ch=1 n=d#6 v=0
203684 On ch=1 n=f6 v=114
203684 On ch=1 n=f5 v=114
203980 On ch=1 n=f5 v=0
203980 On ch=1 n=f6 v=0
203980 On ch=1 n=g6 v=108
203980 On ch=1 n=g5 v=108
204274 On ch=1 n=g5 v=0
204274 On ch=1 n=g6 v=0
204274 On ch=1 n=a6 v=107
204274 On ch=1 n=a5 v=107
204510 On ch=1 n=a5 v=0
204510 On ch=1 n=a6 v=0
204510 On ch=1 n=a#6 v=107
204510 On ch=1 n=a#5 v=107
204712 On ch=1 n=a#5 v=0
204712 On ch=1 n=a#6 v=0
204712 On ch=1 n=c7 v=106
204712 On ch=1 n=c6 v=106
204924 On ch=1 n=c6 v=0
204924 On ch=1 n=c7 v=0
204924 On ch=1 n=c#7 v=106
204924 On ch=1 n=c#6 v=106
205146 On ch=1 n=c#6 v=0
205146 On ch=1 n=c#7 v=0
205146 On ch=1 n=d#7 v=109
205146 On ch=1 n=d#6 v=109
205358 Par ch=1 c=64 v=0
205362 On ch=1 n=d#6 v=0
205362 On ch=1 n=d#7 v=0
205362 On ch=1 n=f7 v=104
205362 On ch=1 n=f6 v=104
205580 On ch=1 n=f6 v=0
205580 On ch=1 n=f7 v=0
205580 On ch=1 n=g7 v=104
205580 On ch=1 n=g6 v=104
205798 On ch=1 n=g6 v=0
205798 On ch=1 n=g7 v=0
205798 On ch=1 n=a7 v=104
205798 On ch=1 n=a6 v=104
206014 On ch=1 n=a6 v=0
206014 On ch=1 n=a7 v=0
206014 On ch=1 n=a#7 v=109
206014 On ch=1 n=a#6 v=109
206254 On ch=1 n=a#6 v=0
206254 On ch=1 n=a#7 v=0
206254 On ch=1 n=c8 v=114
206254 On ch=1 n=c7 v=114
206484 On ch=1 n=c7 v=0
206484 On ch=1 n=c8 v=0
206484 On ch=1 n=c#8 v=123
206484 On ch=1 n=c#7 v=123
206488 Par ch=1 c=64 v=127
207112 On ch=1 n=c#7 v=0
207112 On ch=1 n=c#8 v=0
207448 On ch=1 n=f7 v=119
207448 On ch=1 n=f6 v=119
207748 On ch=1 n=f6 v=0
207748 On ch=1 n=f7 v=0
207748 On ch=1 n=c#8 v=124
207748 On ch=1 n=c#7 v=124
209006 Par ch=1 c=64 v=0
209010 On ch=1 n=c#7 v=0
209010 On ch=1 n=c#8 v=0
209010 On ch=1 n=c8 v=120
209010 On ch=1 n=c7 v=120
210280 On ch=1 n=c7 v=0
210280 On ch=1 n=c8 v=0
210280 On ch=1 n=a#7 v=127
210280 On ch=1 n=a#6 v=127
210286 Par ch=1 c=64 v=127
211498 On ch=1 n=a#6 v=0
211498 On ch=1 n=a#7 v=0
211498 On ch=1 n=f5 v=115
211498 On ch=1 n=f4 v=115
212740 Par ch=1 c=64 v=0
212744 On ch=1 n=f4 v=0
212744 On ch=1 n=f5 v=0
212744 On ch=1 n=g4 v=111
212750 Par ch=1 c=64 v=127
213024 On ch=1 n=g4 v=0
213024 On ch=1 n=a5 v=111
213170 On ch=1 n=a5 v=0
213170 On ch=1 n=g5 v=111
213302 On ch=1 n=g5 v=0
213302 On ch=1 n=a5 v=106
213442 On ch=1 n=a5 v=0
213442 On ch=1 n=g5 v=106
213634 On ch=1 n=g5 v=0
213634 On ch=1 n=f#5 v=113
213786 On ch=1 n=f#5 v=0
213786 On ch=1 n=g5 v=113
213900 Par ch=1 c=64 v=0
213904 On ch=1 n=g5 v=0
213904 On ch=1 n=d#5 v=126
213904 On ch=1 n=d#4 v=126
213910 Par ch=1 c=64 v=127
215822 On ch=1 n=d#4 v=0
215822 On ch=1 n=d#5 v=0
215822 On ch=1 n=f5 v=114
215822 On ch=1 n=f4 v=114
216454 Par ch=1 c=64 v=0
216458 On ch=1 n=f4 v=0
216458 On ch=1 n=f5 v=0
216458 On ch=1 n=g5 v=119
216458 On ch=1 n=g4 v=119
216464 Par ch=1 c=64 v=127
216872 On ch=1 n=g4 v=0
216872 On ch=1 n=g5 v=0
216872 On ch=1 n=g#5 v=123
216872 On ch=1 n=g#4 v=123
217290 On ch=1 n=g#4 v=0
217290 On ch=1 n=g#5 v=0
217290 On ch=1 n=a#5 v=119
217290 On ch=1 n=a#4 v=119
217666 Par ch=1 c=64 v=0
217670 On ch=1 n=a#4 v=0
217670 On ch=1 n=a#5 v=0
217670 On ch=1 n=c6 v=118
217670 On ch=1 n=c5 v=118
217674 Par ch=1 c=64 v=127
218100 On ch=1 n=c5 v=0
218100 On ch=1 n=c6 v=0
218100 On ch=1 n=c#6 v=116
218100 On ch=1 n=c#5 v=116
218222 On ch=1 n=c#5 v=0
218222 On ch=1 n=c#6 v=0
218222 On ch=1 n=d#6 v=113
218222 On ch=1 n=d#5 v=113
218504 On ch=1 n=d#5 v=0
218504 On ch=1 n=d#6 v=0
218504 On ch=1 n=f6 v=103
218504 On ch=1 n=f5 v=103
218792 On ch=1 n=f5 v=0
218792 On ch=1 n=f6 v=0
218792 On ch=1 n=g6 v=110
218792 On ch=1 n=g5 v=110
219020 On ch=1 n=g5 v=0
219020 On ch=1 n=g6 v=0
219020 On ch=1 n=g#6 v=110
219020 On ch=1 n=g#5 v=110
219236 On ch=1 n=g#5 v=0
219236 On ch=1 n=g#6 v=0
219236 On ch=1 n=a#6 v=111
219236 On ch=1 n=a#5 v=111
219438 On ch=1 n=a#5 v=0
219438 On ch=1 n=a#6 v=0
219438 On ch=1 n=c7 v=114
219438 On ch=1 n=c6 v=114
219648 On ch=1 n=c6 v=0
219648 On ch=1 n=c7 v=0
219648 On ch=1 n=c#7 v=111
219648 On ch=1 n=c#6 v=111
219854 Par ch=1 c=64 v=0
219858 On ch=1 n=c#6 v=0
219858 On ch=1 n=c#7 v=0
219858 On ch=1 n=d#7 v=114
219858 On ch=1 n=d#6 v=114
220068 On ch=1 n=d#6 v=0
220068 On ch=1 n=d#7 v=0
220068 On ch=1 n=f7 v=114
220068 On ch=1 n=f6 v=114
220290 On ch=1 n=f6 v=0
220290 On ch=1 n=f7 v=0
220290 On ch=1 n=g7 v=116
220290 On ch=1 n=g6 v=116
220484 On ch=1 n=g6 v=0
220484 On ch=1 n=g7 v=0
220484 On ch=1 n=g#7 v=115
220484 On ch=1 n=g#6 v=115
220734 On ch=1 n=g#6 v=0
220734 On ch=1 n=g#7 v=0
220734 On ch=1 n=a#7 v=118
220734 On ch=1 n=a#6 v=118
220968 On ch=1 n=a#6 v=0
220968 On ch=1 n=a#7 v=0
220968 On ch=1 n=c8 v=127
220968 On ch=1 n=c7 v=127
220972 Par ch=1 c=64 v=127
221584 On ch=1 n=c7 v=0
221584 On ch=1 n=c8 v=0
221896 On ch=1 n=d#7 v=124
221896 On ch=1 n=d#6 v=124
222184 On ch=1 n=d#6 v=0
222184 On ch=1 n=d#7 v=0
222184 On ch=1 n=c8 v=126
222184 On ch=1 n=c7 v=126
223426 Par ch=1 c=64 v=0
223430 On ch=1 n=c7 v=0
223430 On ch=1 n=c8 v=0
223430 On ch=1 n=a#7 v=126
223430 On ch=1 n=a#6 v=126
224704 On ch=1 n=a#6 v=0
224704 On ch=1 n=a#7 v=0
224704 On ch=1 n=g#7 v=127
224704 On ch=1 n=g#6 v=127
224710 Par ch=1 c=64 v=127
225944 On ch=1 n=g#6 v=0
225944 On ch=1 n=g#7 v=0
225944 On ch=1 n=d#6 v=112
225944 On ch=1 n=d#5 v=112
226574 Par ch=1 c=64 v=0
227182 On ch=1 n=d#5 v=0
227182 On ch=1 n=d#6 v=0
227182 On ch=1 n=f5 v=109
227188 Par ch=1 c=64 v=127
227474 On ch=1 n=f5 v=0
227474 On ch=1 n=g6 v=110
227618 On ch=1 n=g6 v=0
227618 On ch=1 n=f6 v=110
227788 On ch=1 n=f6 v=0
227788 On ch=1 n=g6 v=107
227940 On ch=1 n=g6 v=0
227940 On ch=1 n=f6 v=107
228118 On ch=1 n=f6 v=0
228118 On ch=1 n=d#6 v=119
228280 On ch=1 n=d#6 v=0
228280 On ch=1 n=f6 v=119
228388 Par ch=1 c=64 v=0
228392 On ch=1 n=f6 v=0
228392 On ch=1 n=f#6 v=124
228392 On ch=1 n=f#5 v=124
229048 On ch=1 n=c#6 v=107
229048 On ch=1 n=a5 v=107
229322 On ch=1 n=a5 v=0
229322 On ch=1 n=c#6 v=0
229322 On ch=1 n=c#6 v=115
229322 On ch=1 n=a5 v=115
229612 On ch=1 n=a5 v=0
229612 On ch=1 n=c#6 v=0
229612 On ch=1 n=c#6 v=126
229612 On ch=1 n=a5 v=126
230278 On ch=1 n=a5 v=0
230278 On ch=1 n=c#6 v=0
230278 On ch=1 n=f#5 v=0
230278 On ch=1 n=f#6 v=0
230278 On ch=1 n=e6 v=127
230278 On ch=1 n=a5 v=127
230278 On ch=1 n=e5 v=127
230588 On ch=1 n=e5 v=0
230588 On ch=1 n=a5 v=0
230588 On ch=1 n=e6 v=0
230588 On ch=1 n=d6 v=124
230588 On ch=1 n=d5 v=124
230896 On ch=1 n=d5 v=0
230896 On ch=1 n=d6 v=0
230896 On ch=1 n=c#6 v=127
230896 On ch=1 n=g#5 v=127
230896 On ch=1 n=c#5 v=127
230902 Par ch=1 c=64 v=127
231506 On ch=1 n=c#5 v=0
231506 On ch=1 n=g#5 v=0
231506 On ch=1 n=c#6 v=0
231506 On ch=1 n=d#6 v=118
231506 On ch=1 n=d#5 v=118
231802 On ch=1 n=d#5 v=0
231802 On ch=1 n=d#6 v=0
231802 On ch=1 n=f6 v=126
231802 On ch=1 n=f5 v=126
232098 Par ch=1 c=64 v=0
232102 On ch=1 n=f5 v=0
232102 On ch=1 n=f6 v=0
232102 On ch=1 n=f#6 v=127
232102 On ch=1 n=f#5 v=127
232786 On ch=1 n=c#6 v=115
232786 On ch=1 n=a5 v=115
233122 On ch=1 n=a5 v=0
233122 On ch=1 n=c#6 v=0
233122 On ch=1 n=c#6 v=111
233122 On ch=1 n=a5 v=111
233428 On ch=1 n=a5 v=0
233428 On ch=1 n=c#6 v=0
233428 On ch=1 n=c#6 v=113
233428 On ch=1 n=a5 v=113
234094 On ch=1 n=a5 v=0
234094 On ch=1 n=c#6 v=0
234094 On ch=1 n=f#5 v=0
234094 On ch=1 n=f#6 v=0
234094 On ch=1 n=f6 v=123
234094 On ch=1 n=c#6 v=123
234094 On ch=1 n=f5 v=123
234380 On ch=1 n=f5 v=0
234380 On ch=1 n=c#6 v=0
234380 On ch=1 n=f6 v=0
234380 On ch=1 n=f#6 v=120
234380 On ch=1 n=f#5 v=120
234678 On ch=1 n=f#5 v=0
234678 On ch=1 n=f#6 v=0
234678 On ch=1 n=g#6 v=127
234678 On ch=1 n=d6 v=127
234678 On ch=1 n=b5 v=127
234678 On ch=1 n=g#5 v=127
234682 Par ch=1 c=64 v=127
235350 On ch=1 n=g#5 v=0
235350 On ch=1 n=b5 v=0
235350 On ch=1 n=d6 v=0
235350 On ch=1 n=g#6 v=0
235350 On ch=1 n=f#6 v=124
235350 On ch=1 n=f#5 v=124
235634 On ch=1 n=f#5 v=0
235634 On ch=1 n=f#6 v=0
235634 On ch=1 n=g#6 v=118
235634 On ch=1 n=g#5 v=118
235902 Par ch=1 c=64 v=0
235906 On ch=1 n=g#5 v=0
235906 On ch=1 n=g#6 v=0
235906 On ch=1 n=a6 v=120
235906 On ch=1 n=a5 v=120
236608 On ch=1 n=f#6 v=111
236608 On ch=1 n=c#6 v=111
236920 On ch=1 n=c#6 v=0
236920 On ch=1 n=f#6 v=0
236920 On ch=1 n=f#6 v=105
236920 On ch=1 n=c#6 v=105
237200 On ch=1 n=c#6 v=0
237200 On ch=1 n=f#6 v=0
237200 On ch=1 n=f#6 v=104
237200 On ch=1 n=c#6 v=104
237870 On ch=1 n=c#6 v=0
237870 On ch=1 n=f#6 v=0
237870 On ch=1 n=a5 v=0
237870 On ch=1 n=a6 v=0
237870 On ch=1 n=g#6 v=112
237870 On ch=1 n=c#6 v=112
237870 On ch=1 n=g#5 v=112
238180 On ch=1 n=g#5 v=0
238180 On ch=1 n=c#6 v=0
238180 On ch=1 n=g#6 v=0
238180 On ch=1 n=f#6 v=115
238180 On ch=1 n=f#5 v=115
238472 On ch=1 n=f#5 v=0
238472 On ch=1 n=f#6 v=0
238472 On ch=1 n=f6 v=120
238472 On ch=1 n=d6 v=120
238472 On ch=1 n=b5 v=120
238472 On ch=1 n=f5 v=120
238478 Par ch=1 c=64 v=127
239148 On ch=1 n=f5 v=0
239148 On ch=1 n=b5 v=0
239148 On ch=1 n=d6 v=0
239148 On ch=1 n=f6 v=0
239148 On ch=1 n=f#6 v=113
239148 On ch=1 n=f#5 v=113
239458 On ch=1 n=f#5 v=0
239458 On ch=1 n=f#6 v=0
239458 On ch=1 n=g#6 v=123
239458 On ch=1 n=g#5 v=123
239726 Par ch=1 c=64 v=0
239730 On ch=1 n=g#5 v=0
239730 On ch=1 n=g#6 v=0
239730 On ch=1 n=a6 v=123
239730 On ch=1 n=a5 v=123
240440 On ch=1 n=f#6 v=106
240440 On ch=1 n=c#6 v=106
240744 On ch=1 n=c#6 v=0
240744 On ch=1 n=f#6 v=0
240744 On ch=1 n=f#6 v=107
240744 On ch=1 n=c#6 v=107
241048 On ch=1 n=c#6 v=0
241048 On ch=1 n=f#6 v=0
241048 On ch=1 n=f#6 v=107
241048 On ch=1 n=c#6 v=107
241720 On ch=1 n=c#6 v=0
241720 On ch=1 n=f#6 v=0
241720 On ch=1 n=a5 v=0
241720 On ch=1 n=a6 v=0
241720 On ch=1 n=g#6 v=115
241720 On ch=1 n=c#6 v=115
241720 On ch=1 n=g#5 v=115
242032 On ch=1 n=g#5 v=0
242032 On ch=1 n=c#6 v=0
242032 On ch=1 n=g#6 v=0
242032 On ch=1 n=a6 v=118
242032 On ch=1 n=a5 v=118
242328 On ch=1 n=a5 v=0
242328 On ch=1 n=a6 v=0
242328 On ch=1 n=b6 v=124
242328 On ch=1 n=f#6 v=124
242328 On ch=1 n=d6 v=124
242328 On ch=1 n=b5 v=124
242334 Par ch=1 c=64 v=127
242970 On ch=1 n=b5 v=0
242970 On ch=1 n=d6 v=0
242970 On ch=1 n=f#6 v=0
242970 On ch=1 n=b6 v=0
242970 On ch=1 n=a6 v=114
242970 On ch=1 n=a5 v=114
243296 On ch=1 n=a5 v=0
243296 On ch=1 n=a6 v=0
243296 On ch=1 n=b6 v=120
243296 On ch=1 n=b5 v=120
243590 Par ch=1 c=64 v=0
243594 On ch=1 n=b5 v=0
243594 On ch=1 n=b6 v=0
243594 On ch=1 n=c#7 v=124
243594 On ch=1 n=c#6 v=124
244302 On ch=1 n=c#6 v=0
244302 On ch=1 n=c#7 v=0
244302 On ch=1 n=a6 v=120
244302 On ch=1 n=f#6 v=120
244640 On ch=1 n=f#6 v=0
244640 On ch=1 n=a6 v=0
244640 On ch=1 n=c#7 v=120
244640 On ch=1 n=c#6 v=120
244908 On ch=1 n=c#6 v=0
244908 On ch=1 n=c#7 v=0
244908 On ch=1 n=d7 v=126
244908 On ch=1 n=d6 v=126
244914 Par ch=1 c=64 v=127
245562 On ch=1 n=a6 v=119
245562 On ch=1 n=f#6 v=119
245886 On ch=1 n=f#6 v=0
245886 On ch=1 n=a6 v=0
245886 On ch=1 n=a6 v=113
245886 On ch=1 n=f#6 v=113
246176 On ch=1 n=f#6 v=0
246176 On ch=1 n=a6 v=0
246176 On ch=1 n=a6 v=112
246176 On ch=1 n=f#6 v=112
246808 Par ch=1 c=64 v=0
246812 On ch=1 n=f#6 v=0
246812 On ch=1 n=a6 v=0
246812 On ch=1 n=d6 v=0
246812 On ch=1 n=d7 v=0
246812 On ch=1 n=c#7 v=124
246812 On ch=1 n=c#6 v=124
247122 On ch=1 n=c#6 v=0
247122 On ch=1 n=c#7 v=0
247122 On ch=1 n=c7 v=126
247122 On ch=1 n=c6 v=126
247404 On ch=1 n=c6 v=0
247404 On ch=1 n=c7 v=0
247404 On ch=1 n=c#7 v=123
247404 On ch=1 n=c#6 v=123
247692 On ch=1 n=c#6 v=0
247692 On ch=1 n=c#7 v=0
247692 On ch=1 n=a6 v=115
247692 On ch=1 n=f#6 v=115
247992 On ch=1 n=f#6 v=0
247992 On ch=1 n=a6 v=0
247992 On ch=1 n=c#7 v=116
247992 On ch=1 n=c#6 v=116
248304 On ch=1 n=c#6 v=0
248304 On ch=1 n=c#7 v=0
248304 On ch=1 n=f#7 v=123
248304 On ch=1 n=f#6 v=123
248596 On ch=1 n=f#6 v=0
248596 On ch=1 n=f#7 v=0
248596 On ch=1 n=a7 v=127
248596 On ch=1 n=a6 v=127
248602 Par ch=1 c=64 v=127
249258 On ch=1 n=d#7 v=115
249258 On ch=1 n=c#7 v=115
249566 On ch=1 n=c#7 v=0
249566 On ch=1 n=d#7 v=0
249566 On ch=1 n=d#7 v=110
249566 On ch=1 n=c#7 v=110
249860 On ch=1 n=c#7 v=0
249860 On ch=1 n=d#7 v=0
249860 On ch=1 n=d#7 v=113
249860 On ch=1 n=c#7 v=113
250532 Par ch=1 c=64 v=0
250536 On ch=1 n=c#7 v=0
250536 On ch=1 n=d#7 v=0
250536 On ch=1 n=a6 v=0
250536 On ch=1 n=a7 v=0
250536 On ch=1 n=g#7 v=120
250536 On ch=1 n=g#6 v=120
250850 On ch=1 n=g#6 v=0
250850 On ch=1 n=g#7 v=0
250850 On ch=1 n=g7 v=124
250850 On ch=1 n=g6 v=124
251140 On ch=1 n=g6 v=0
251140 On ch=1 n=g7 v=0
251140 On ch=1 n=g#7 v=126
251140 On ch=1 n=e7 v=126
251140 On ch=1 n=c#7 v=126
251140 On ch=1 n=g#6 v=126
251146 Par ch=1 c=64 v=127
251420 On ch=1 n=g#6 v=0
251420 On ch=1 n=c#7 v=0
251420 On ch=1 n=e7 v=0
251420 On ch=1 n=g#7 v=0
251420 On ch=1 n=g7 v=127
251420 On ch=1 n=g6 v=127
251716 On ch=1 n=g6 v=0
251716 On ch=1 n=g7 v=0
251716 On ch=1 n=f#7 v=123
251716 On ch=1 n=f#6 v=123
251996 On ch=1 n=f#6 v=0
251996 On ch=1 n=f#7 v=0
251996 On ch=1 n=f7 v=123
251996 On ch=1 n=f6 v=123
252294 On ch=1 n=f6 v=0
252294 On ch=1 n=f7 v=0
252294 On ch=1 n=e7 v=123
252294 On ch=1 n=e6 v=123
252618 On ch=1 n=e6 v=0
252618 On ch=1 n=e7 v=0
252618 On ch=1 n=d#7 v=123
252618 On ch=1 n=d#6 v=123
252920 On ch=1 n=d#6 v=0
252920 On ch=1 n=d#7 v=0
252920 On ch=1 n=d7 v=127
252920 On ch=1 n=d6 v=127
253226 On ch=1 n=d6 v=0
253226 On ch=1 n=d7 v=0
253226 On ch=1 n=c#7 v=120
253226 On ch=1 n=c#6 v=120
253542 Par ch=1 c=64 v=0
253546 On ch=1 n=c#6 v=0
253546 On ch=1 n=c#7 v=0
253546 On ch=1 n=c7 v=123
253546 On ch=1 n=c6 v=123
253552 Par ch=1 c=64 v=127
253856 On ch=1 n=c6 v=0
253856 On ch=1 n=c7 v=0
253856 On ch=1 n=b6 v=123
253856 On ch=1 n=b5 v=123
254162 On ch=1 n=b5 v=0
254162 On ch=1 n=b6 v=0
254162 On ch=1 n=a6 v=120
254162 On ch=1 n=a5 v=120
254492 On ch=1 n=a5 v=0
254492 On ch=1 n=a6 v=0
254492 On ch=1 n=g#6 v=118
254492 On ch=1 n=g#5 v=118
254822 Par ch=1 c=64 v=0
254826 On ch=1 n=g#5 v=0
254826 On ch=1 n=g#6 v=0
254826 On ch=1 n=c#7 v=115
254826 On ch=1 n=c#6 v=115
255454 On ch=1 n=c#6 v=0
255454 On ch=1 n=c#7 v=0
255454 On ch=1 n=c#6 v=115
255454 On ch=1 n=b5 v=115
255454 On ch=1 n=f5 v=115
255454 On ch=1 n=c#5 v=115
256726 On ch=1 n=c#5 v=0
256726 On ch=1 n=f5 v=0
256726 On ch=1 n=b5 v=0
256726 On ch=1 n=c#6 v=0
256726 On ch=1 n=c#6 v=113
257050 On ch=1 n=c#6 v=0
257050 On ch=1 n=c#6 v=113
257356 On ch=1 n=c#6 v=0
257356 On ch=1 n=c#6 v=113
257982 On ch=1 n=c#6 v=0
257982 On ch=1 n=c#6 v=111
258600 On ch=1 n=c#6 v=0
258600 On ch=1 n=c#6 v=113
259298 On ch=1 n=c#6 v=0
259926 On ch=1 n=a5 v=102
261210 On ch=1 n=a5 v=0
261210 On ch=1 n=a5 v=99
262204 On ch=1 n=a5 v=0
262204 On ch=1 n=g#5 v=97
262526 On ch=1 n=g#5 v=0
262526 On ch=1 n=f#5 v=99
263858 On ch=1 n=f#5 v=0
263858 On ch=1 n=c#5 v=99
266560 On ch=1 n=c#5 v=0
266560 On ch=1 n=c#6 v=101
267900 On ch=1 n=c#6 v=0
267900 On ch=1 n=e6 v=98
269284 On ch=1 n=e6 v=0
269284 On ch=1 n=e6 v=97
270266 On ch=1 n=e6 v=0
270266 On ch=1 n=d6 v=93
270574 On ch=1 n=d6 v=0
270574 On ch=1 n=c#6 v=97
271902 On ch=1 n=c#6 v=0
271902 On ch=1 n=b5 v=104
273230 On ch=1 n=b5 v=0
273230 On ch=1 n=a5 v=111
274550 On ch=1 n=a5 v=0
274550 On ch=1 n=f6 v=123
274550 On ch=1 n=c#6 v=123
274550 On ch=1 n=b5 v=123
274550 On ch=1 n=f5 v=123
274556 Par ch=1 c=64 v=127
275228 On ch=1 n=f5 v=0
275228 On ch=1 n=b5 v=0
275228 On ch=1 n=c#6 v=0
275228 On ch=1 n=f6 v=0
275228 On ch=1 n=f#6 v=123
275228 On ch=1 n=f#5 v=123
275546 On ch=1 n=f#5 v=0
275546 On ch=1 n=f#6 v=0
275546 On ch=1 n=g#6 v=126
275546 On ch=1 n=g#5 v=126
275844 Par ch=1 c=64 v=0
275848 On ch=1 n=g#5 v=0
275848 On ch=1 n=g#6 v=0
275848 On ch=1 n=a6 v=123
275848 On ch=1 n=c#6 v=123
275848 On ch=1 n=a5 v=123
275854 Par ch=1 c=64 v=127
276524 On ch=1 n=a5 v=0
276524 On ch=1 n=c#6 v=0
276524 On ch=1 n=a6 v=0
276524 On ch=1 n=b6 v=123
276524 On ch=1 n=b5 v=123
276836 On ch=1 n=b5 v=0
276836 On ch=1 n=b6 v=0
276836 On ch=1 n=a6 v=126
276836 On ch=1 n=a5 v=126
277142 Par ch=1 c=64 v=0
277146 On ch=1 n=a5 v=0
277146 On ch=1 n=d6 v=124
277146 On ch=1 n=g#5 v=124
277152 Par ch=1 c=64 v=127
277814 On ch=1 n=g#5 v=0
277814 On ch=1 n=d6 v=0
277814 On ch=1 n=f#6 v=120
277814 On ch=1 n=f#5 v=120
278112 On ch=1 n=f#5 v=0
278112 On ch=1 n=f#6 v=0
278112 On ch=1 n=a6 v=0
278112 On ch=1 n=g#6 v=123
278112 On ch=1 n=g#5 v=123
278426 Par ch=1 c=64 v=0
278430 On ch=1 n=g#5 v=0
278430 On ch=1 n=g#6 v=0
278430 On ch=1 n=f6 v=126
278430 On ch=1 n=c#6 v=126
278430 On ch=1 n=f5 v=126
278436 Par ch=1 c=64 v=127
279110 On ch=1 n=f5 v=0
279110 On ch=1 n=c#6 v=0
279110 On ch=1 n=f6 v=0
279110 On ch=1 n=f#6 v=123
279110 On ch=1 n=f#5 v=123
279410 On ch=1 n=f#5 v=0
279410 On ch=1 n=f#6 v=0
279410 On ch=1 n=g#6 v=123
279410 On ch=1 n=g#5 v=123
279722 Par ch=1 c=64 v=0
279726 On ch=1 n=g#5 v=0
279726 On ch=1 n=g#6 v=0
279726 On ch=1 n=a6 v=120
279726 On ch=1 n=c#6 v=120
279726 On ch=1 n=a5 v=120
279732 Par ch=1 c=64 v=127
280406 On ch=1 n=a5 v=0
280406 On ch=1 n=c#6 v=0
280406 On ch=1 n=a6 v=0
280406 On ch=1 n=b6 v=123
280406 On ch=1 n=b5 v=123
280708 On ch=1 n=b5 v=0
280708 On ch=1 n=b6 v=0
280708 On ch=1 n=c#7 v=116
280708 On ch=1 n=c#6 v=116
281008 Par ch=1 c=64 v=0
281012 On ch=1 n=c#6 v=0
281012 On ch=1 n=c#7 v=0
281012 On ch=1 n=d7 v=123
281012 On ch=1 n=f#6 v=123
281012 On ch=1 n=d6 v=123
281018 Par ch=1 c=64 v=127
281706 On ch=1 n=d6 v=0
281706 On ch=1 n=f#6 v=0
281706 On ch=1 n=d7 v=0
281706 On ch=1 n=f#6 v=120
281706 On ch=1 n=f#5 v=120
282022 On ch=1 n=f#5 v=0
282022 On ch=1 n=f#6 v=0
282022 On ch=1 n=g#6 v=119
282022 On ch=1 n=g#5 v=119
282338 Par ch=1 c=64 v=0
282342 On ch=1 n=g#5 v=0
282342 On ch=1 n=g#6 v=0
282342 On ch=1 n=a6 v=118
282342 On ch=1 n=d6 v=118
282342 On ch=1 n=a5 v=118
283002 On ch=1 n=a5 v=0
283002 On ch=1 n=d6 v=0
283002 On ch=1 n=a6 v=0
283002 On ch=1 n=g#6 v=118
283002 On ch=1 n=g#5 v=118
283312 On ch=1 n=g#5 v=0
283312 On ch=1 n=g#6 v=0
283312 On ch=1 n=f#6 v=120
283312 On ch=1 n=f#5 v=120
283626 On ch=1 n=f#5 v=0
283626 On ch=1 n=f#6 v=0
283626 On ch=1 n=f#7 v=127
283626 On ch=1 n=f#6 v=127
283632 Par ch=1 c=64 v=127
284340 On ch=1 n=f#6 v=0
284340 On ch=1 n=f#7 v=0
284340 On ch=1 n=g#5 v=106
284340 On ch=1 n=f#5 v=106
284340 On ch=1 n=d5 v=106
284340 On ch=1 n=g#4 v=106
284988 Par ch=1 c=64 v=0
284992 On ch=1 n=g#4 v=0
284992 On ch=1 n=d5 v=0
284992 On ch=1 n=f#5 v=0
284992 On ch=1 n=g#5 v=0
284992 On ch=1 n=g#6 v=123
284992 On ch=1 n=d6 v=123
284992 On ch=1 n=g#5 v=123
285652 On ch=1 n=g#5 v=0
285652 On ch=1 n=d6 v=0
285652 On ch=1 n=g#6 v=0
285652 On ch=1 n=f#6 v=119
285652 On ch=1 n=f#5 v=119
285952 On ch=1 n=f#5 v=0
285952 On ch=1 n=f#6 v=0
285952 On ch=1 n=g#6 v=120
285952 On ch=1 n=g#5 v=120
286260 On ch=1 n=g#5 v=0
286260 On ch=1 n=g#6 v=0
286260 On ch=1 n=b6 v=123
286462 On ch=1 n=b6 v=0
286462 On ch=1 n=a#6 v=123
286462 On ch=1 n=a#5 v=123
286652 On ch=1 n=a#5 v=0
286652 On ch=1 n=a#6 v=0
286652 On ch=1 n=a6 v=123
286652 On ch=1 n=a5 v=123
286840 On ch=1 n=a5 v=0
286840 On ch=1 n=a6 v=0
286840 On ch=1 n=g#6 v=119
286840 On ch=1 n=g#5 v=119
287034 On ch=1 n=g#5 v=0
287034 On ch=1 n=g#6 v=0
287034 On ch=1 n=g6 v=119
287034 On ch=1 n=g5 v=119
287248 On ch=1 n=g5 v=0
287248 On ch=1 n=g6 v=0
287248 On ch=1 n=f#6 v=123
287248 On ch=1 n=f#5 v=123
287454 On ch=1 n=f#5 v=0
287454 On ch=1 n=f#6 v=0
287454 On ch=1 n=a7 v=120
287454 On ch=1 n=a6 v=120
287460 Par ch=1 c=64 v=127
288090 On ch=1 n=a6 v=0
288090 On ch=1 n=a7 v=0
288090 On ch=1 n=f#5 v=119
288090 On ch=1 n=c5 v=119
288090 On ch=1 n=f#4 v=119
289526 On ch=1 n=f#4 v=0
289526 On ch=1 n=c5 v=0
289526 On ch=1 n=f#5 v=0
289526 On ch=1 n=f#5 v=110
289526 On ch=1 n=c5 v=110
289526 On ch=1 n=f#4 v=110
290884 On ch=1 n=f#4 v=0
290884 On ch=1 n=c5 v=0
290884 On ch=1 n=f#5 v=0
290884 On ch=1 n=f#5 v=108
290884 On ch=1 n=c5 v=108
290884 On ch=1 n=f#4 v=108
292246 Par ch=1 c=64 v=0
292250 On ch=1 n=f#4 v=0
292250 On ch=1 n=c5 v=0
292250 On ch=1 n=f#5 v=0
292250 On ch=1 n=g5 v=120
292250 On ch=1 n=b4 v=120
292250 On ch=1 n=g4 v=120
292938 On ch=1 n=g4 v=0
292938 On ch=1 n=b4 v=0
292938 On ch=1 n=g5 v=0
292938 On ch=1 n=g5 v=119
292938 On ch=1 n=b4 v=119
292938 On ch=1 n=g4 v=119
293604 On ch=1 n=g4 v=0
293604 On ch=1 n=b4 v=0
293604 On ch=1 n=g5 v=0
293604 On ch=1 n=f5 v=118
293604 On ch=1 n=b4 v=118
293604 On ch=1 n=f4 v=118
294296 On ch=1 n=f4 v=0
294296 On ch=1 n=b4 v=0
294296 On ch=1 n=f5 v=0
294296 On ch=1 n=f5 v=115
294296 On ch=1 n=b4 v=115
294296 On ch=1 n=f4 v=115
294964 On ch=1 n=f4 v=0
294964 On ch=1 n=b4 v=0
294964 On ch=1 n=f5 v=0
294964 On ch=1 n=f#5 v=120
294964 On ch=1 n=a4 v=120
294964 On ch=1 n=f#4 v=120
295654 On ch=1 n=f#4 v=0
295654 On ch=1 n=a4 v=0
295654 On ch=1 n=f#5 v=0
295654 On ch=1 n=c#4 v=123
295828 On ch=1 n=c#4 v=0
295828 On ch=1 n=d#4 v=123
295992 On ch=1 n=d#4 v=0
295992 On ch=1 n=c#4 v=124
296434 On ch=1 n=c#4 v=0
296434 On ch=1 n=g#3 v=118
296780 On ch=1 n=g#3 v=0
296780 On ch=1 n=a3 v=116
297100 On ch=1 n=a3 v=0
297100 On ch=1 n=f#3 v=115
297768 On ch=1 n=f#3 v=0
298470 On ch=1 n=e4 v=123
298476 Par ch=1 c=64 v=127
301488 On ch=1 n=e4 v=0
301488 On ch=1 n=b4 v=100
301488 On ch=1 n=g#4 v=100
301488 On ch=1 n=b3 v=100
303088 Par ch=1 c=64 v=0
303094 On ch=1 n=b3 v=0
303094 On ch=1 n=g#4 v=0
303094 On ch=1 n=b4 v=0
303094 On ch=1 n=e4 v=113
303100 Par ch=1 c=64 v=127
306232 On ch=1 n=e4 v=0
306232 On ch=1 n=b4 v=99
306232 On ch=1 n=g#4 v=99
306232 On ch=1 n=b3 v=99
308060 On ch=1 n=b3 v=0
308060 On ch=1 n=g#4 v=0
308060 On ch=1 n=b4 v=0
308060 On ch=1 n=e4 v=97
310488 On ch=1 n=e4 v=0
310488 On ch=1 n=b4 v=90
310488 On ch=1 n=f#4 v=90
310488 On ch=1 n=d4 v=90
312752 On ch=1 n=d4 v=0
312752 On ch=1 n=f#4 v=0
312752 On ch=1 n=b4 v=0
312752 On ch=1 n=c#5 v=99
312752 On ch=1 n=g#4 v=99
312752 On ch=1 n=e4 v=99
314752 On ch=1 n=e4 v=0
314752 On ch=1 n=g#4 v=0
314752 On ch=1 n=c#5 v=0
314752 On ch=1 n=d5 v=101
314752 On ch=1 n=a4 v=101
314752 On ch=1 n=f#4 v=101
316900 On ch=1 n=f#4 v=0
316900 On ch=1 n=a4 v=0
316900 On ch=1 n=d5 v=0
316900 On ch=1 n=b4 v=94
316900 On ch=1 n=f#4 v=94
316900 On ch=1 n=d4 v=94
318834 On ch=1 n=d4 v=0
318834 On ch=1 n=f#4 v=0
318834 On ch=1 n=b4 v=0
318834 On ch=1 n=c#5 v=92
318834 On ch=1 n=g#4 v=92
318834 On ch=1 n=e4 v=92
320658 On ch=1 n=e4 v=0
320658 On ch=1 n=g#4 v=0
320658 On ch=1 n=c#5 v=0
320658 On ch=1 n=a4 v=123
320666 Par ch=1 c=64 v=127
321450 On ch=1 n=a4 v=0
321450 On ch=1 n=d#5 v=104
321648 On ch=1 n=d#5 v=0
321648 On ch=1 n=f#5 v=104
321784 On ch=1 n=f#5 v=0
321784 On ch=1 n=e5 v=103
321958 On ch=1 n=e5 v=0
321958 On ch=1 n=c#5 v=103
322106 On ch=1 n=c#5 v=0
322106 On ch=1 n=a4 v=105
322842 On ch=1 n=a4 v=0
322842 On ch=1 n=d#5 v=103
323024 On ch=1 n=d#5 v=0
323024 On ch=1 n=f#5 v=103
323158 On ch=1 n=f#5 v=0
323158 On ch=1 n=e5 v=103
323318 On ch=1 n=e5 v=0
323318 On ch=1 n=c#5 v=103
323490 On ch=1 n=c#5 v=0
324094 Par ch=1 c=64 v=0
324864 Par ch=1 c=64 v=127
325614 On ch=1 n=d#5 v=104
325802 On ch=1 n=d#5 v=0
325802 On ch=1 n=f#5 v=104
325966 On ch=1 n=f#5 v=0
325966 On ch=1 n=e5 v=100
326146 On ch=1 n=e5 v=0
326146 On ch=1 n=c#5 v=100
326308 On ch=1 n=c#5 v=0
326950 Par ch=1 c=64 v=0
329036 Par ch=1 c=64 v=127
329778 On ch=1 n=d#5 v=100
329964 On ch=1 n=d#5 v=0
329964 On ch=1 n=f#5 v=100
330140 On ch=1 n=f#5 v=0
330140 On ch=1 n=e5 v=97
330320 On ch=1 n=e5 v=0
330320 On ch=1 n=c#5 v=97
330486 On ch=1 n=c#5 v=0
331134 On ch=1 n=d#5 v=99
331296 On ch=1 n=d#5 v=0
331296 On ch=1 n=f#5 v=99
331478 On ch=1 n=f#5 v=0
331478 On ch=1 n=e5 v=98
331642 On ch=1 n=e5 v=0
331642 On ch=1 n=c#5 v=98
331804 On ch=1 n=c#5 v=0
332388 Par ch=1 c=64 v=0
333104 Par ch=1 c=64 v=127
333824 On ch=1 n=d#5 v=103
334004 On ch=1 n=d#5 v=0
334004 On ch=1 n=f#5 v=103
334160 On ch=1 n=f#5 v=0
334160 On ch=1 n=e5 v=99
334334 On ch=1 n=e5 v=0
334334 On ch=1 n=c#5 v=99
334476 On ch=1 n=c#5 v=0
335092 Par ch=1 c=64 v=0
337100 On ch=1 n=a5 v=120
337100 On ch=1 n=a4 v=120
337106 Par ch=1 c=64 v=127
337840 On ch=1 n=a4 v=0
337840 On ch=1 n=a5 v=0
337840 On ch=1 n=d#5 v=99
338024 On ch=1 n=d#5 v=0
338024 On ch=1 n=f#5 v=99
338174 On ch=1 n=f#5 v=0
338174 On ch=1 n=e5 v=100
338354 On ch=1 n=e5 v=0
338354 On ch=1 n=c#5 v=100
338494 On ch=1 n=c#5 v=0
339158 On ch=1 n=d#5 v=99
339324 On ch=1 n=d#5 v=0
339324 On ch=1 n=f#5 v=99
339494 On ch=1 n=f#5 v=0
339494 On ch=1 n=e5 v=99
339656 On ch=1 n=e5 v=0
339656 On ch=1 n=c#5 v=99
339826 On ch=1 n=c#5 v=0
340416 Par ch=1 c=64 v=0
341078 On ch=1 n=a5 v=119
341078 On ch=1 n=a4 v=119
341084 Par ch=1 c=64 v=127
341808 On ch=1 n=a4 v=0
341808 On ch=1 n=a5 v=0
341808 On ch=1 n=e5 v=103
341990 On ch=1 n=e5 v=0
341990 On ch=1 n=g5 v=103
342156 On ch=1 n=g5 v=0
342156 On ch=1 n=f5 v=103
342336 On ch=1 n=f5 v=0
342336 On ch=1 n=d5 v=103
342476 On ch=1 n=d5 v=0
343086 Par ch=1 c=64 v=0
344966 On ch=1 n=a5 v=105
345106 On ch=1 n=a5 v=0
345106 On ch=1 n=a5 v=123
345112 Par ch=1 c=64 v=127
345836 On ch=1 n=a5 v=0
345836 On ch=1 n=f5 v=104
346018 On ch=1 n=f5 v=0
346018 On ch=1 n=g#5 v=104
346170 On ch=1 n=g#5 v=0
346170 On ch=1 n=f#5 v=101
346346 On ch=1 n=f#5 v=0
346346 On ch=1 n=d#5 v=101
346490 On ch=1 n=d#5 v=0
347144 On ch=1 n=f5 v=101
347308 On ch=1 n=f5 v=0
347308 On ch=1 n=g#5 v=101
347452 On ch=1 n=g#5 v=0
347452 On ch=1 n=f#5 v=100
347608 On ch=1 n=f#5 v=0
347608 On ch=1 n=d#5 v=100
347760 On ch=1 n=d#5 v=0
348322 Par ch=1 c=64 v=0
349024 On ch=1 n=a5 v=120
349030 Par ch=1 c=64 v=127
349740 On ch=1 n=a5 v=0
349740 On ch=1 n=e5 v=103
349920 On ch=1 n=e5 v=0
349920 On ch=1 n=g5 v=103
350068 On ch=1 n=g5 v=0
350068 On ch=1 n=f5 v=100
350240 On ch=1 n=f5 v=0
350240 On ch=1 n=d5 v=100
350376 On ch=1 n=d5 v=0
351010 Par ch=1 c=64 v=0
352840 On ch=1 n=a5 v=106
352962 On ch=1 n=a5 v=0
352962 On ch=1 n=a5 v=119
352968 Par ch=1 c=64 v=127
353634 On ch=1 n=a5 v=0
353634 On ch=1 n=c5 v=109
353802 On ch=1 n=c5 v=0
353802 On ch=1 n=e5 v=109
353972 On ch=1 n=e5 v=0
353972 On ch=1 n=d5 v=102
354146 On ch=1 n=d5 v=0
354146 On ch=1 n=b4 v=102
354306 On ch=1 n=b4 v=0
354948 On ch=1 n=c5 v=101
355108 On ch=1 n=c5 v=0
355108 On ch=1 n=e5 v=101
355238 On ch=1 n=e5 v=0
355238 On ch=1 n=d5 v=101
355386 On ch=1 n=d5 v=0
355386 On ch=1 n=b4 v=101
355548 On ch=1 n=b4 v=0
356100 Par ch=1 c=64 v=0
356786 On ch=1 n=a5 v=116
356792 Par ch=1 c=64 v=127
357436 On ch=1 n=a5 v=0
357436 On ch=1 n=e5 v=106
357598 On ch=1 n=e5 v=0
357598 On ch=1 n=g5 v=106
357728 On ch=1 n=g5 v=0
357728 On ch=1 n=f5 v=103
357886 On ch=1 n=f5 v=0
357886 On ch=1 n=d5 v=103
358034 On ch=1 n=d5 v=0
358612 Par ch=1 c=64 v=0
360332 On ch=1 n=a5 v=105
360486 On ch=1 n=a5 v=0
360486 On ch=1 n=a5 v=120
360492 Par ch=1 c=64 v=127
361138 On ch=1 n=a5 v=0
361138 On ch=1 n=d5 v=111
361302 On ch=1 n=d5 v=0
361302 On ch=1 n=f5 v=111
361456 On ch=1 n=f5 v=0
361456 On ch=1 n=e5 v=103
361620 On ch=1 n=e5 v=0
361620 On ch=1 n=c5 v=103
361752 On ch=1 n=c5 v=0
362368 On ch=1 n=d5 v=103
362522 On ch=1 n=d5 v=0
362522 On ch=1 n=f5 v=103
362662 On ch=1 n=f5 v=0
362662 On ch=1 n=e5 v=100
362814 On ch=1 n=e5 v=0
362814 On ch=1 n=c5 v=100
362958 On ch=1 n=c5 v=0
363514 Par ch=1 c=64 v=0
364134 On ch=1 n=a5 v=120
364138 Par ch=1 c=64 v=127
364784 On ch=1 n=a5 v=0
364784 On ch=1 n=d5 v=105
364946 On ch=1 n=d5 v=0
364946 On ch=1 n=f5 v=105
365134 On ch=1 n=f5 v=0
365134 On ch=1 n=e5 v=98
365310 On ch=1 n=e5 v=0
365310 On ch=1 n=c5 v=98
365456 On ch=1 n=c5 v=0
366046 Par ch=1 c=64 v=0
367484 Par ch=1 c=64 v=0
367794 On ch=1 n=a5 v=111
367896 On ch=1 n=a5 v=0
367896 On ch=1 n=a5 v=123
367902 Par ch=1 c=64 v=127
368544 On ch=1 n=a5 v=0
368544 On ch=1 n=e5 v=106
368706 On ch=1 n=e5 v=0
368706 On ch=1 n=g5 v=106
368870 On ch=1 n=g5 v=0
368870 On ch=1 n=f5 v=103
369038 On ch=1 n=f5 v=0
369038 On ch=1 n=c5 v=103
369188 On ch=1 n=c5 v=0
369808 On ch=1 n=e5 v=104
369964 On ch=1 n=e5 v=0
369964 On ch=1 n=g5 v=104
370130 On ch=1 n=g5 v=0
370130 On ch=1 n=f5 v=104
370284 On ch=1 n=f5 v=0
370284 On ch=1 n=c5 v=104
370446 On ch=1 n=c5 v=0
371014 Par ch=1 c=64 v=0
371664 On ch=1 n=a5 v=119
371670 Par ch=1 c=64 v=127
372318 On ch=1 n=a5 v=0
372318 On ch=1 n=e5 v=107
372482 On ch=1 n=e5 v=0
372482 On ch=1 n=g5 v=107
372634 On ch=1 n=g5 v=0
372634 On ch=1 n=f5 v=107
372798 On ch=1 n=f5 v=0
372798 On ch=1 n=d5 v=107
372938 On ch=1 n=d5 v=0
373532 Par ch=1 c=64 v=0
375280 On ch=1 n=a5 v=112
375376 On ch=1 n=a5 v=0
375376 On ch=1 n=a5 v=124
375380 Par ch=1 c=64 v=127
376032 On ch=1 n=a5 v=0
376032 On ch=1 n=d5 v=115
376196 On ch=1 n=d5 v=0
376196 On ch=1 n=f5 v=115
376344 On ch=1 n=f5 v=0
376344 On ch=1 n=d#5 v=106
376508 On ch=1 n=d#5 v=0
376508 On ch=1 n=c5 v=106
376692 On ch=1 n=c5 v=0
377360 On ch=1 n=d5 v=106
377528 On ch=1 n=d5 v=0
377528 On ch=1 n=f5 v=106
377682 On ch=1 n=f5 v=0
377682 On ch=1 n=d#5 v=104
377846 On ch=1 n=d#5 v=0
377846 On ch=1 n=c5 v=104
377998 On ch=1 n=c5 v=0
378564 Par ch=1 c=64 v=0
379212 On ch=1 n=a5 v=124
379218 Par ch=1 c=64 v=127
379886 On ch=1 n=a5 v=0
379886 On ch=1 n=d5 v=106
380056 On ch=1 n=d5 v=0
380056 On ch=1 n=f5 v=106
380214 On ch=1 n=f5 v=0
380214 On ch=1 n=d#5 v=103
380380 On ch=1 n=d#5 v=0
380380 On ch=1 n=b4 v=103
380524 On ch=1 n=b4 v=0
381106 Par ch=1 c=64 v=0
382828 On ch=1 n=a5 v=113
382956 On ch=1 n=a5 v=0
382956 On ch=1 n=a5 v=120
382962 Par ch=1 c=64 v=127
383632 On ch=1 n=a5 v=0
383632 On ch=1 n=d5 v=105
383802 On ch=1 n=d5 v=0
383802 On ch=1 n=f5 v=105
383960 On ch=1 n=f5 v=0
383960 On ch=1 n=e5 v=106
384130 On ch=1 n=e5 v=0
384130 On ch=1 n=c5 v=106
384262 On ch=1 n=c5 v=0
384882 On ch=1 n=d5 v=104
385038 On ch=1 n=d5 v=0
385038 On ch=1 n=f5 v=104
385196 On ch=1 n=f5 v=0
385196 On ch=1 n=e5 v=105
385350 On ch=1 n=e5 v=0
385350 On ch=1 n=c5 v=105
385494 On ch=1 n=c5 v=0
386040 Par ch=1 c=64 v=0
386572 On ch=1 n=a5 v=110
386692 On ch=1 n=a5 v=0
386692 On ch=1 n=a5 v=123
386698 Par ch=1 c=64 v=127
387366 On ch=1 n=a5 v=0
387366 On ch=1 n=c5 v=103
387536 On ch=1 n=c5 v=0
387536 On ch=1 n=e5 v=103
387696 On ch=1 n=e5 v=0
387696 On ch=1 n=d5 v=104
387866 On ch=1 n=d5 v=0
387866 On ch=1 n=b4 v=104
388008 On ch=1 n=b4 v=0
388606 Par ch=1 c=64 v=0
390396 On ch=1 n=a5 v=114
390522 On ch=1 n=a5 v=0
390522 On ch=1 n=a5 v=123
390528 Par ch=1 c=64 v=127
391202 On ch=1 n=a5 v=0
391202 On ch=1 n=d5 v=104
391372 On ch=1 n=d5 v=0
391372 On ch=1 n=f5 v=104
391532 On ch=1 n=f5 v=0
391532 On ch=1 n=e5 v=105
391700 On ch=1 n=e5 v=0
391700 On ch=1 n=c5 v=105
391878 On ch=1 n=c5 v=0
392542 On ch=1 n=d5 v=103
392708 On ch=1 n=d5 v=0
392708 On ch=1 n=f5 v=103
392856 On ch=1 n=f5 v=0
392856 On ch=1 n=e5 v=103
393018 On ch=1 n=e5 v=0
393018 On ch=1 n=c5 v=103
393172 On ch=1 n=c5 v=0
393732 Par ch=1 c=64 v=0
394402 On ch=1 n=a5 v=119
394408 Par ch=1 c=64 v=127
395080 On ch=1 n=a5 v=0
395080 On ch=1 n=d5 v=106
395250 On ch=1 n=d5 v=0
395250 On ch=1 n=f5 v=106
395380 On ch=1 n=f5 v=0
395380 On ch=1 n=e5 v=105
395538 On ch=1 n=e5 v=0
395538 On ch=1 n=c5 v=105
395702 On ch=1 n=c5 v=0
396282 Par ch=1 c=64 v=0
398066 On ch=1 n=g#5 v=113
398188 On ch=1 n=g#5 v=0
398188 On ch=1 n=g#5 v=120
398188 On ch=1 n=g#4 v=120
398194 Par ch=1 c=64 v=127
400206 On ch=1 n=g#4 v=0
400206 On ch=1 n=g#5 v=0
400206 On ch=1 n=a#5 v=100
400206 On ch=1 n=a#4 v=100
400930 Par ch=1 c=64 v=0
400936 On ch=1 n=a#4 v=0
400936 On ch=1 n=a#5 v=0
400936 On ch=1 n=c6 v=101
400936 On ch=1 n=c5 v=101
401436 On ch=1 n=c5 v=0
401436 On ch=1 n=c6 v=0
401436 On ch=1 n=c#6 v=99
401436 On ch=1 n=c#5 v=99
401812 On ch=1 n=c#5 v=0
401812 On ch=1 n=c#6 v=0
401812 On ch=1 n=d#6 v=104
401812 On ch=1 n=d#5 v=104
402268 On ch=1 n=d#5 v=0
402268 On ch=1 n=d#6 v=0
402268 On ch=1 n=e6 v=110
402268 On ch=1 n=e5 v=110
402274 Par ch=1 c=64 v=127
403268 On ch=1 n=e5 v=0
403268 On ch=1 n=e6 v=0
403268 On ch=1 n=f#6 v=104
403268 On ch=1 n=f#5 v=104
403630 On ch=1 n=f#5 v=0
403630 On ch=1 n=f#6 v=0
403630 On ch=1 n=g#6 v=104
403630 On ch=1 n=g#5 v=104
404332 On ch=1 n=g#5 v=0
404332 On ch=1 n=g#6 v=0
404332 On ch=1 n=a#6 v=104
404332 On ch=1 n=a#5 v=104
405030 Par ch=1 c=64 v=0
405034 On ch=1 n=a#5 v=0
405034 On ch=1 n=a#6 v=0
405034 On ch=1 n=c7 v=105
405034 On ch=1 n=c6 v=105
405486 On ch=1 n=c6 v=0
405486 On ch=1 n=c7 v=0
405486 On ch=1 n=c#7 v=102
405486 On ch=1 n=c#6 v=102
405894 On ch=1 n=c#6 v=0
405894 On ch=1 n=c#7 v=0
405894 On ch=1 n=d#7 v=101
405894 On ch=1 n=d#6 v=101
406284 On ch=1 n=d#6 v=0
406284 On ch=1 n=d#7 v=0
406284 On ch=1 n=e7 v=102
406284 On ch=1 n=e6 v=102
406290 Par ch=1 c=64 v=127
406936 On ch=1 n=e6 v=0
406936 On ch=1 n=e7 v=0
407252 On ch=1 n=g#6 v=101
407252 On ch=1 n=g#5 v=101
407554 On ch=1 n=g#5 v=0
407554 On ch=1 n=g#6 v=0
407554 On ch=1 n=e7 v=98
407554 On ch=1 n=e6 v=98
408904 Par ch=1 c=64 v=0
408908 On ch=1 n=e6 v=0
408908 On ch=1 n=e7 v=0
408908 On ch=1 n=d#7 v=100
408908 On ch=1 n=d#6 v=100
410290 On ch=1 n=d#6 v=0
410290 On ch=1 n=d#7 v=0
410290 On ch=1 n=c#7 v=100
410290 On ch=1 n=c#6 v=100
410296 Par ch=1 c=64 v=127
411608 On ch=1 n=c#6 v=0
411608 On ch=1 n=c#7 v=0
411608 On ch=1 n=g#6 v=97
411608 On ch=1 n=g#5 v=97
412918 Par ch=1 c=64 v=0
412922 On ch=1 n=g#5 v=0
412922 On ch=1 n=g#6 v=0
412922 On ch=1 n=b6 v=101
412922 On ch=1 n=a#5 v=101
412928 Par ch=1 c=64 v=127
413086 On ch=1 n=b6 v=0
413086 On ch=1 n=a#6 v=101
413266 On ch=1 n=a#6 v=0
413266 On ch=1 n=b6 v=99
413432 On ch=1 n=b6 v=0
413432 On ch=1 n=a#6 v=99
413586 On ch=1 n=a#6 v=0
413586 On ch=1 n=b6 v=98
413752 On ch=1 n=b6 v=0
413752 On ch=1 n=a#6 v=98
413914 On ch=1 n=a#6 v=0
413914 On ch=1 n=g#6 v=102
414076 On ch=1 n=g#6 v=0
414076 On ch=1 n=a#6 v=102
414228 Par ch=1 c=64 v=0
414232 On ch=1 n=a#6 v=0
414232 On ch=1 n=a#5 v=0
414232 On ch=1 n=f#5 v=102
414232 On ch=1 n=f#4 v=102
414238 Par ch=1 c=64 v=127
416222 On ch=1 n=f#4 v=0
416222 On ch=1 n=f#5 v=0
416222 On ch=1 n=g#5 v=97
416222 On ch=1 n=g#4 v=97
416902 Par ch=1 c=64 v=0
416906 On ch=1 n=g#4 v=0
416906 On ch=1 n=g#5 v=0
416906 On ch=1 n=a#5 v=101
416906 On ch=1 n=a#4 v=101
417368 On ch=1 n=a#4 v=0
417368 On ch=1 n=a#5 v=0
417368 On ch=1 n=b5 v=101
417368 On ch=1 n=b4 v=101
417798 On ch=1 n=b4 v=0
417798 On ch=1 n=b5 v=0
417798 On ch=1 n=c#6 v=101
417798 On ch=1 n=c#5 v=101
418206 On ch=1 n=c#5 v=0
418206 On ch=1 n=c#6 v=0
418206 On ch=1 n=d#6 v=97
418206 On ch=1 n=d#5 v=97
418212 Par ch=1 c=64 v=127
419168 On ch=1 n=d#5 v=0
419168 On ch=1 n=d#6 v=0
419168 On ch=1 n=e6 v=103
419168 On ch=1 n=e5 v=103
419488 On ch=1 n=e5 v=0
419488 On ch=1 n=e6 v=0
419488 On ch=1 n=f#6 v=103
419488 On ch=1 n=f#5 v=103
420160 On ch=1 n=f#5 v=0
420160 On ch=1 n=f#6 v=0
420160 On ch=1 n=g#6 v=106
420160 On ch=1 n=g#5 v=106
420852 Par ch=1 c=64 v=0
420856 On ch=1 n=g#5 v=0
420856 On ch=1 n=g#6 v=0
420856 On ch=1 n=a#6 v=104
420856 On ch=1 n=a#5 v=104
421270 On ch=1 n=a#5 v=0
421270 On ch=1 n=a#6 v=0
421270 On ch=1 n=b6 v=100
421270 On ch=1 n=b5 v=100
421682 On ch=1 n=b5 v=0
421682 On ch=1 n=b6 v=0
421682 On ch=1 n=c#7 v=101
421682 On ch=1 n=c#6 v=101
422106 On ch=1 n=c#6 v=0
422106 On ch=1 n=c#7 v=0
422106 On ch=1 n=d#7 v=103
422106 On ch=1 n=d#6 v=103
422112 Par ch=1 c=64 v=127
422790 On ch=1 n=d#6 v=0
422790 On ch=1 n=d#7 v=0
423124 On ch=1 n=f#6 v=100
423124 On ch=1 n=f#5 v=100
423430 On ch=1 n=f#5 v=0
423430 On ch=1 n=f#6 v=0
423430 On ch=1 n=d#7 v=101
423430 On ch=1 n=d#6 v=101
424852 Par ch=1 c=64 v=0
424856 On ch=1 n=d#6 v=0
424856 On ch=1 n=d#7 v=0
424856 On ch=1 n=c#7 v=100
424856 On ch=1 n=c#6 v=100
426162 On ch=1 n=c#6 v=0
426162 On ch=1 n=c#7 v=0
426162 On ch=1 n=b6 v=101
426162 On ch=1 n=b5 v=101
426168 Par ch=1 c=64 v=127
427498 On ch=1 n=b5 v=0
427498 On ch=1 n=b6 v=0
427498 On ch=1 n=f#6 v=100
427498 On ch=1 n=f#5 v=100
428204 Par ch=1 c=64 v=0
428892 On ch=1 n=f#5 v=0
428892 On ch=1 n=f#6 v=0
428892 On ch=1 n=a6 v=103
428892 On ch=1 n=g#5 v=103
428898 Par ch=1 c=64 v=127
429064 On ch=1 n=a6 v=0
429064 On ch=1 n=g#6 v=103
429222 On ch=1 n=g#6 v=0
429222 On ch=1 n=a6 v=103
429390 On ch=1 n=a6 v=0
429390 On ch=1 n=g#6 v=103
429546 On ch=1 n=g#6 v=0
429546 On ch=1 n=a6 v=101
429710 On ch=1 n=a6 v=0
429710 On ch=1 n=g#6 v=101
429868 On ch=1 n=g#6 v=0
429868 On ch=1 n=f#6 v=104
430030 On ch=1 n=f#6 v=0
430030 On ch=1 n=g#6 v=104
430180 Par ch=1 c=64 v=0
430184 On ch=1 n=g#6 v=0
430184 On ch=1 n=g#5 v=0
430184 On ch=1 n=a6 v=107
430184 On ch=1 n=a5 v=107
430190 Par ch=1 c=64 v=127
430872 On ch=1 n=a5 v=0
430872 On ch=1 n=a6 v=0
430872 On ch=1 n=d#6 v=123
431044 On ch=1 n=d#6 v=0
431044 On ch=1 n=f#6 v=123
431140 On ch=1 n=f#6 v=0
431140 On ch=1 n=e6 v=120
431290 On ch=1 n=e6 v=0
431290 On ch=1 n=c#6 v=120
431426 On ch=1 n=c#6 v=0
431426 On ch=1 n=a5 v=116
432138 On ch=1 n=a5 v=0
432138 On ch=1 n=d#6 v=123
432316 On ch=1 n=d#6 v=0
432316 On ch=1 n=f#6 v=123
432412 On ch=1 n=f#6 v=0
432412 On ch=1 n=e6 v=123
432560 On ch=1 n=e6 v=0
432560 On ch=1 n=c#6 v=123
432710 On ch=1 n=c#6 v=0
432710 On ch=1 n=a5 v=118
433322 Par ch=1 c=64 v=0
433348 On ch=1 n=a5 v=0
433974 On ch=1 n=a6 v=127
433974 On ch=1 n=a5 v=127
433980 Par ch=1 c=64 v=127
434608 On ch=1 n=a5 v=0
434608 On ch=1 n=a6 v=0
434608 On ch=1 n=e6 v=119
434766 On ch=1 n=e6 v=0
434766 On ch=1 n=g6 v=119
434904 On ch=1 n=g6 v=0
434904 On ch=1 n=f6 v=118
435056 On ch=1 n=f6 v=0
435056 On ch=1 n=d6 v=118
435222 On ch=1 n=d6 v=0
435222 On ch=1 n=a5 v=126
435772 Par ch=1 c=64 v=0
435864 On ch=1 n=a5 v=0
437540 On ch=1 n=a6 v=116
437758 On ch=1 n=a6 v=0
437758 On ch=1 n=a6 v=127
437758 On ch=1 n=a5 v=127
437764 Par ch=1 c=64 v=127
438412 On ch=1 n=a5 v=0
438412 On ch=1 n=a6 v=0
438412 On ch=1 n=f6 v=118
438576 On ch=1 n=f6 v=0
438576 On ch=1 n=g#6 v=118
438700 On ch=1 n=g#6 v=0
438700 On ch=1 n=f#6 v=110
438860 On ch=1 n=f#6 v=0
438860 On ch=1 n=d#6 v=110
439026 On ch=1 n=d#6 v=0
439026 On ch=1 n=a5 v=108
439684 On ch=1 n=a5 v=0
439684 On ch=1 n=f6 v=108
439848 On ch=1 n=f6 v=0
439848 On ch=1 n=g#6 v=108
439984 On ch=1 n=g#6 v=0
439984 On ch=1 n=f#6 v=111
440136 On ch=1 n=f#6 v=0
440136 On ch=1 n=d#6 v=111
440278 On ch=1 n=d#6 v=0
440278 On ch=1 n=a5 v=109
440840 Par ch=1 c=64 v=0
440898 On ch=1 n=a5 v=0
441558 On ch=1 n=a6 v=127
441558 On ch=1 n=a5 v=127
441564 Par ch=1 c=64 v=127
442248 On ch=1 n=a5 v=0
442248 On ch=1 n=a6 v=0
442248 On ch=1 n=e6 v=108
442422 On ch=1 n=e6 v=0
442422 On ch=1 n=g6 v=108
442580 On ch=1 n=g6 v=0
442580 On ch=1 n=f6 v=107
442750 On ch=1 n=f6 v=0
442750 On ch=1 n=d6 v=107
442894 On ch=1 n=d6 v=0
442894 On ch=1 n=a5 v=110
443498 Par ch=1 c=64 v=0
443548 On ch=1 n=a5 v=0
445246 On ch=1 n=a6 v=110
445418 On ch=1 n=a6 v=0
445418 On ch=1 n=a6 v=127
445418 On ch=1 n=a5 v=127
445424 Par ch=1 c=64 v=127
446078 On ch=1 n=a5 v=0
446078 On ch=1 n=a6 v=0
446078 On ch=1 n=c6 v=113
446244 On ch=1 n=c6 v=0
446244 On ch=1 n=e6 v=113
446398 On ch=1 n=e6 v=0
446398 On ch=1 n=d6 v=112
446562 On ch=1 n=d6 v=0
446562 On ch=1 n=b5 v=112
446696 On ch=1 n=b5 v=0
446696 On ch=1 n=a5 v=116
447320 On ch=1 n=a5 v=0
447320 On ch=1 n=c6 v=114
447476 On ch=1 n=c6 v=0
447476 On ch=1 n=e6 v=114
447642 On ch=1 n=e6 v=0
447642 On ch=1 n=d6 v=114
447796 On ch=1 n=d6 v=0
447796 On ch=1 n=b5 v=114
447966 On ch=1 n=b5 v=0
447966 On ch=1 n=a5 v=115
448558 Par ch=1 c=64 v=0
448578 On ch=1 n=a5 v=0
449236 On ch=1 n=a6 v=120
449236 On ch=1 n=a5 v=120
449242 Par ch=1 c=64 v=127
449946 On ch=1 n=a5 v=0
449946 On ch=1 n=a6 v=0
449946 On ch=1 n=e6 v=118
450124 On ch=1 n=e6 v=0
450124 On ch=1 n=g6 v=118
450260 On ch=1 n=g6 v=0
450260 On ch=1 n=f6 v=116
450422 On ch=1 n=f6 v=0
450422 On ch=1 n=d6 v=116
450576 On ch=1 n=d6 v=0
450576 On ch=1 n=a5 v=120
451216 Par ch=1 c=64 v=0
451270 On ch=1 n=a5 v=0
453078 On ch=1 n=a6 v=116
453194 On ch=1 n=a6 v=0
453194 On ch=1 n=a6 v=127
453194 On ch=1 n=a5 v=127
453200 Par ch=1 c=64 v=127
453886 On ch=1 n=a5 v=0
453886 On ch=1 n=a6 v=0
453886 On ch=1 n=d6 v=113
454060 On ch=1 n=d6 v=0
454060 On ch=1 n=f6 v=113
454236 On ch=1 n=f6 v=0
454236 On ch=1 n=e6 v=100
454412 On ch=1 n=e6 v=0
454412 On ch=1 n=b5 v=100
454566 On ch=1 n=b5 v=0
454566 On ch=1 n=a5 v=103
455232 On ch=1 n=a5 v=0
455232 On ch=1 n=d6 v=109
455400 On ch=1 n=d6 v=0
455400 On ch=1 n=f6 v=109
455558 On ch=1 n=f6 v=0
455558 On ch=1 n=e6 v=110
455718 On ch=1 n=e6 v=0
455718 On ch=1 n=c#6 v=110
455876 On ch=1 n=c#6 v=0
455876 On ch=1 n=a5 v=107
456446 Par ch=1 c=64 v=0
456498 On ch=1 n=a5 v=0
457166 On ch=1 n=a6 v=120
457166 On ch=1 n=a5 v=120
457172 Par ch=1 c=64 v=127
457822 On ch=1 n=a5 v=0
457822 On ch=1 n=a6 v=0
457822 On ch=1 n=d6 v=111
457986 On ch=1 n=d6 v=0
457986 On ch=1 n=f6 v=111
458144 On ch=1 n=f6 v=0
458144 On ch=1 n=e6 v=109
458306 On ch=1 n=e6 v=0
458306 On ch=1 n=c6 v=109
458448 On ch=1 n=c6 v=0
458448 On ch=1 n=a5 v=109
459042 Par ch=1 c=64 v=0
459092 On ch=1 n=a5 v=0
460934 On ch=1 n=a6 v=111
461074 On ch=1 n=a6 v=0
461074 On ch=1 n=a6 v=107
461074 On ch=1 n=a5 v=107
461080 Par ch=1 c=64 v=127
461782 On ch=1 n=a5 v=0
461782 On ch=1 n=a6 v=0
461782 On ch=1 n=e6 v=102
461960 On ch=1 n=e6 v=0
461960 On ch=1 n=g6 v=102
462118 On ch=1 n=g6 v=0
462118 On ch=1 n=f6 v=101
462288 On ch=1 n=f6 v=0
462288 On ch=1 n=c6 v=101
462444 On ch=1 n=c6 v=0
462444 On ch=1 n=a5 v=102
463114 On ch=1 n=a5 v=0
463114 On ch=1 n=e6 v=101
463282 On ch=1 n=e6 v=0
463282 On ch=1 n=g6 v=101
463430 On ch=1 n=g6 v=0
463430 On ch=1 n=f6 v=101
463590 On ch=1 n=f6 v=0
463590 On ch=1 n=c6 v=101
463766 On ch=1 n=c6 v=0
463766 On ch=1 n=a5 v=95
464328 Par ch=1 c=64 v=0
464366 On ch=1 n=a5 v=0
465016 On ch=1 n=a6 v=118
465016 On ch=1 n=a5 v=118
465022 Par ch=1 c=64 v=127
465688 On ch=1 n=a5 v=0
465688 On ch=1 n=a6 v=0
465688 On ch=1 n=e6 v=93
465856 On ch=1 n=e6 v=0
465856 On ch=1 n=g6 v=93
466020 On ch=1 n=g6 v=0
466020 On ch=1 n=f6 v=89
466188 On ch=1 n=f6 v=0
466188 On ch=1 n=d6 v=89
466340 On ch=1 n=d6 v=0
466340 On ch=1 n=a#5 v=88
466952 Par ch=1 c=64 v=0
467020 On ch=1 n=a#5 v=0
468780 On ch=1 n=a6 v=95
468920 On ch=1 n=a6 v=0
468920 On ch=1 n=a6 v=107
468920 On ch=1 n=a5 v=107
468926 Par ch=1 c=64 v=127
469604 On ch=1 n=a5 v=0
469604 On ch=1 n=a6 v=0
469604 On ch=1 n=d6 v=92
469776 On ch=1 n=d6 v=0
469776 On ch=1 n=f6 v=92
469932 On ch=1 n=f6 v=0
469932 On ch=1 n=d#6 v=91
470102 On ch=1 n=d#6 v=0
470102 On ch=1 n=c6 v=91
470260 On ch=1 n=c6 v=0
470260 On ch=1 n=a5 v=91
470902 On ch=1 n=a5 v=0
470902 On ch=1 n=d6 v=90
471062 On ch=1 n=d6 v=0
471062 On ch=1 n=f6 v=90
471232 On ch=1 n=f6 v=0
471232 On ch=1 n=d#6 v=90
471390 On ch=1 n=d#6 v=0
471390 On ch=1 n=c6 v=90
471556 On ch=1 n=c6 v=0
471556 On ch=1 n=a5 v=90
472120 Par ch=1 c=64 v=0
472160 On ch=1 n=a5 v=0
472796 On ch=1 n=a6 v=112
472796 On ch=1 n=a5 v=112
472802 Par ch=1 c=64 v=127
473496 On ch=1 n=a5 v=0
473496 On ch=1 n=a6 v=0
473496 On ch=1 n=d6 v=84
473672 On ch=1 n=d6 v=0
473672 On ch=1 n=f6 v=84
473824 On ch=1 n=f6 v=0
473824 On ch=1 n=d#6 v=86
473994 On ch=1 n=d#6 v=0
473994 On ch=1 n=b5 v=86
474138 On ch=1 n=b5 v=0
474138 On ch=1 n=a5 v=86
474746 Par ch=1 c=64 v=0
474774 On ch=1 n=a5 v=0
476536 On ch=1 n=a6 v=88
476660 On ch=1 n=a6 v=0
476660 On ch=1 n=a6 v=102
476660 On ch=1 n=a5 v=102
476666 Par ch=1 c=64 v=127
477368 On ch=1 n=a5 v=0
477368 On ch=1 n=a6 v=0
477368 On ch=1 n=d6 v=86
477546 On ch=1 n=d6 v=0
477546 On ch=1 n=f6 v=86
477708 On ch=1 n=f6 v=0
477708 On ch=1 n=e6 v=81
477886 On ch=1 n=e6 v=0
477886 On ch=1 n=c6 v=81
478036 On ch=1 n=c6 v=0
478036 On ch=1 n=a5 v=78
478700 On ch=1 n=a5 v=0
478700 On ch=1 n=d6 v=76
478866 On ch=1 n=d6 v=0
478866 On ch=1 n=f6 v=76
479016 On ch=1 n=f6 v=0
479016 On ch=1 n=e6 v=79
479178 On ch=1 n=e6 v=0
479178 On ch=1 n=c6 v=79
479322 On ch=1 n=c6 v=0
479322 On ch=1 n=a5 v=78
479892 Par ch=1 c=64 v=0
479928 On ch=1 n=a5 v=0
480386 On ch=1 n=a6 v=76
480542 On ch=1 n=a6 v=0
480542 On ch=1 n=a6 v=88
480542 On ch=1 n=a5 v=88
480548 Par ch=1 c=64 v=127
481200 On ch=1 n=a5 v=0
481200 On ch=1 n=a6 v=0
481200 On ch=1 n=c6 v=71
481364 On ch=1 n=c6 v=0
481364 On ch=1 n=e6 v=71
481534 On ch=1 n=e6 v=0
481534 On ch=1 n=d6 v=70
481698 On ch=1 n=d6 v=0
481698 On ch=1 n=b5 v=70
481850 On ch=1 n=b5 v=0
481850 On ch=1 n=a5 v=71
482460 Par ch=1 c=64 v=0
482512 On ch=1 n=a5 v=0
484236 On ch=1 n=a6 v=66
484358 On ch=1 n=a6 v=0
484358 On ch=1 n=a6 v=73
484358 On ch=1 n=a5 v=73
484362 Par ch=1 c=64 v=127
485032 On ch=1 n=a5 v=0
485032 On ch=1 n=a6 v=0
485032 On ch=1 n=d6 v=66
485202 On ch=1 n=d6 v=0
485202 On ch=1 n=f6 v=66
485380 On ch=1 n=f6 v=0
485380 On ch=1 n=e6 v=65
485550 On ch=1 n=e6 v=0
485550 On ch=1 n=c6 v=65
485692 On ch=1 n=c6 v=0
485692 On ch=1 n=a5 v=67
486324 On ch=1 n=a5 v=0
486324 On ch=1 n=d6 v=66
486482 On ch=1 n=d6 v=0
486482 On ch=1 n=f6 v=66
486640 On ch=1 n=f6 v=0
486640 On ch=1 n=e6 v=64
486796 On ch=1 n=e6 v=0
486796 On ch=1 n=c6 v=64
486940 On ch=1 n=c6 v=0
486940 On ch=1 n=a5 v=64
487536 Par ch=1 c=64 v=0
487576 On ch=1 n=a5 v=0
487576 On ch=1 n=d5 v=64
487736 On ch=1 n=d5 v=0
487736 On ch=1 n=f5 v=64
487908 On ch=1 n=f5 v=0
487908 On ch=1 n=e5 v=66
488068 On ch=1 n=e5 v=0
488068 On ch=1 n=c5 v=66
488198 On ch=1 n=c5 v=0
488198 On ch=1 n=a4 v=81
488874 On ch=1 n=a4 v=0
488874 On ch=1 n=d5 v=60
489044 On ch=1 n=d5 v=0
489044 On ch=1 n=f5 v=60
489278 On ch=1 n=f5 v=0
489278 On ch=1 n=e5 v=56
489462 On ch=1 n=e5 v=0
489462 On ch=1 n=c5 v=56
489640 On ch=1 n=c5 v=0
489640 On ch=1 n=a4 v=51
490474 On ch=1 n=a4 v=0
490474 On ch=1 n=d5 v=55
490682 On ch=1 n=d5 v=0
490682 On ch=1 n=f5 v=55
490862 On ch=1 n=f5 v=0
490862 On ch=1 n=e5 v=48
491068 On ch=1 n=e5 v=0
491068 On ch=1 n=c5 v=48
491274 On ch=1 n=c5 v=0
491274 On ch=1 n=a4 v=39
492274 On ch=1 n=a4 v=0
492274 On ch=1 n=d5 v=46
492522 On ch=1 n=d5 v=0
492522 On ch=1 n=f5 v=46
492770 On ch=1 n=f5 v=0
492770 On ch=1 n=e5 v=41
493020 On ch=1 n=e5 v=0
493020 On ch=1 n=c5 v=41
493318 On ch=1 n=c5 v=0
493318 On ch=1 n=a4 v=36
493324 Par ch=1 c=64 v=127
494600 On ch=1 n=a4 v=0
499862 Par ch=1 c=64 v=0
499866 On ch=1 n=e6 v=57
499866 On ch=1 n=c#6 v=57
499870 Par ch=1 c=64 v=127
505562 On ch=1 n=c#6 v=0
505562 On ch=1 n=e6 v=0
505562 On ch=1 n=d#6 v=51
505562 On ch=1 n=c6 v=51
506068 Par ch=1 c=64 v=0
506072 On ch=1 n=c6 v=0
506072 On ch=1 n=d#6 v=0
506072 On ch=1 n=d6 v=55
506072 On ch=1 n=b5 v=55
506076 Par ch=1 c=64 v=127
506574 On ch=1 n=b5 v=0
506574 On ch=1 n=d6 v=0
506574 On ch=1 n=c#6 v=55
506574 On ch=1 n=a5 v=55
507098 On ch=1 n=a5 v=0
507098 On ch=1 n=c#6 v=0
507098 On ch=1 n=b5 v=50
507098 On ch=1 n=g#5 v=50
508596 On ch=1 n=g#5 v=0
508596 On ch=1 n=b5 v=0
508596 On ch=1 n=f#6 v=57
508596 On ch=1 n=d6 v=57
509098 Par ch=1 c=64 v=0
509102 On ch=1 n=d6 v=0
509102 On ch=1 n=f#6 v=0
509102 On ch=1 n=f#6 v=57
509102 On ch=1 n=d6 v=57
509106 Par ch=1 c=64 v=127
509612 On ch=1 n=d6 v=0
509612 On ch=1 n=f#6 v=0
509612 On ch=1 n=e6 v=56
509612 On ch=1 n=c#6 v=56
510116 On ch=1 n=c#6 v=0
510116 On ch=1 n=e6 v=0
510116 On ch=1 n=e6 v=56
510116 On ch=1 n=c#6 v=56
511672 On ch=1 n=c#6 v=0
511672 On ch=1 n=e6 v=0
511672 On ch=1 n=d#6 v=49
511672 On ch=1 n=c6 v=49
512218 Par ch=1 c=64 v=0
512222 On ch=1 n=c6 v=0
512222 On ch=1 n=d#6 v=0
512222 On ch=1 n=d6 v=56
512222 On ch=1 n=b5 v=56
512226 Par ch=1 c=64 v=127
512718 On ch=1 n=b5 v=0
512718 On ch=1 n=d6 v=0
512718 On ch=1 n=c#6 v=56
512718 On ch=1 n=a5 v=56
513244 On ch=1 n=a5 v=0
513244 On ch=1 n=c#6 v=0
513244 On ch=1 n=b5 v=51
513244 On ch=1 n=g#5 v=51
514808 On ch=1 n=g#5 v=0
514808 On ch=1 n=b5 v=0
514808 On ch=1 n=d6 v=52
514808 On ch=1 n=f#5 v=52
515322 Par ch=1 c=64 v=0
515326 On ch=1 n=f#5 v=0
515326 On ch=1 n=d6 v=0
515326 On ch=1 n=d6 v=51
515326 On ch=1 n=f#5 v=51
515330 Par ch=1 c=64 v=127
515842 On ch=1 n=f#5 v=0
515842 On ch=1 n=d6 v=0
515842 On ch=1 n=c#6 v=55
515842 On ch=1 n=e5 v=55
516374 On ch=1 n=e5 v=0
516374 On ch=1 n=c#6 v=0
516374 On ch=1 n=c#6 v=49
516374 On ch=1 n=e5 v=49
518020 On ch=1 n=e5 v=0
518020 On ch=1 n=c#6 v=0
518020 On ch=1 n=c6 v=49
518020 On ch=1 n=d#5 v=49
518552 Par ch=1 c=64 v=0
518556 On ch=1 n=d#5 v=0
518556 On ch=1 n=c6 v=0
518556 On ch=1 n=b5 v=56
518556 On ch=1 n=d5 v=56
518560 Par ch=1 c=64 v=127
519066 On ch=1 n=d5 v=0
519066 On ch=1 n=b5 v=0
519066 On ch=1 n=a5 v=56
519066 On ch=1 n=c#5 v=56
519584 On ch=1 n=c#5 v=0
519584 On ch=1 n=a5 v=0
519584 On ch=1 n=g#5 v=50
519584 On ch=1 n=b4 v=50
521176 On ch=1 n=b4 v=0
521176 On ch=1 n=g#5 v=0
521176 On ch=1 n=d6 v=50
521176 On ch=1 n=f#5 v=50
521692 Par ch=1 c=64 v=0
521696 On ch=1 n=f#5 v=0
521696 On ch=1 n=d6 v=0
521696 On ch=1 n=d6 v=52
521696 On ch=1 n=f#5 v=52
521700 Par ch=1 c=64 v=127
522240 On ch=1 n=f#5 v=0
522240 On ch=1 n=d6 v=0
522240 On ch=1 n=c#6 v=51
522240 On ch=1 n=e5 v=51
522750 On ch=1 n=e5 v=0
522750 On ch=1 n=c#6 v=0
522750 On ch=1 n=c#6 v=54
522750 On ch=1 n=e5 v=54
524344 On ch=1 n=e5 v=0
524344 On ch=1 n=c#6 v=0
524344 On ch=1 n=e5 v=47
524344 On ch=1 n=c#5 v=47
524810 Par ch=1 c=64 v=0
524812 On ch=1 n=c#5 v=0
524812 On ch=1 n=e5 v=0
524812 On ch=1 n=e5 v=50
524812 On ch=1 n=d5 v=50
524816 Par ch=1 c=64 v=127
524930 On ch=1 n=e5 v=0
524930 On ch=1 n=g#5 v=50
525048 On ch=1 n=g#5 v=0
525048 On ch=1 n=f#5 v=50
525310 On ch=1 n=f#5 v=0
525310 On ch=1 n=d5 v=0
525310 On ch=1 n=e5 v=49
525310 On ch=1 n=c#5 v=49
525846 On ch=1 n=c#5 v=0
525846 On ch=1 n=e5 v=0
525846 On ch=1 n=d5 v=48
525846 On ch=1 n=b4 v=48
527410 On ch=1 n=b4 v=0
527410 On ch=1 n=d5 v=0
527410 On ch=1 n=b5 v=49
527410 On ch=1 n=d5 v=49
527924 Par ch=1 c=64 v=0
527928 On ch=1 n=d5 v=0
527928 On ch=1 n=b5 v=0
527928 On ch=1 n=b5 v=50
527928 On ch=1 n=d5 v=50
527932 Par ch=1 c=64 v=127
528416 On ch=1 n=d5 v=0
528416 On ch=1 n=b5 v=0
528416 On ch=1 n=a5 v=46
528416 On ch=1 n=c#5 v=46
528926 On ch=1 n=c#5 v=0
528926 On ch=1 n=a5 v=0
528926 On ch=1 n=a5 v=41
528926 On ch=1 n=c#5 v=41
530480 On ch=1 n=c#5 v=0
530480 On ch=1 n=a5 v=0
530480 On ch=1 n=e5 v=51
530480 On ch=1 n=c#5 v=51
530980 Par ch=1 c=64 v=0
530984 On ch=1 n=c#5 v=0
530984 On ch=1 n=e5 v=0
530984 On ch=1 n=e5 v=48
530984 On ch=1 n=d5 v=48
530988 Par ch=1 c=64 v=127
531110 On ch=1 n=e5 v=0
531110 On ch=1 n=g#5 v=48
531236 On ch=1 n=g#5 v=0
531236 On ch=1 n=f#5 v=48
531500 On ch=1 n=f#5 v=0
531500 On ch=1 n=d5 v=0
531500 On ch=1 n=e5 v=44
531500 On ch=1 n=c#5 v=44
532046 On ch=1 n=c#5 v=0
532046 On ch=1 n=e5 v=0
532046 On ch=1 n=e5 v=46
532046 On ch=1 n=c#5 v=46
533092 On ch=1 n=c#5 v=0
533092 On ch=1 n=e5 v=0
534174 Par ch=1 c=64 v=0
537868 On ch=1 n=c#6 v=51
538372 On ch=1 n=c#6 v=0
538372 On ch=1 n=b5 v=49
539420 On ch=1 n=b5 v=0
539420 On ch=1 n=a5 v=49
540486 On ch=1 n=a5 v=0
540486 On ch=1 n=f#5 v=48
541260 On ch=1 n=f#5 v=0
541260 On ch=1 n=g#5 v=50
541514 On ch=1 n=g#5 v=0
541514 On ch=1 n=e5 v=50
542570 On ch=1 n=d6 v=48
542570 On ch=1 n=g#5 v=48
543616 On ch=1 n=g#5 v=0
543616 On ch=1 n=a5 v=47
544140 On ch=1 n=a5 v=0
544140 On ch=1 n=d6 v=0
544140 On ch=1 n=e5 v=0
544140 On ch=1 n=c#6 v=51
544668 On ch=1 n=c#6 v=0
544668 On ch=1 n=b5 v=48
545706 On ch=1 n=b5 v=0
545706 On ch=1 n=a5 v=47
546762 On ch=1 n=a5 v=0
546762 On ch=1 n=f#5 v=49
547550 On ch=1 n=f#5 v=0
547550 On ch=1 n=g#5 v=44
547780 On ch=1 n=g#5 v=0
547780 On ch=1 n=e5 v=48
548832 On ch=1 n=g#5 v=46
548832 On ch=1 n=d6 v=46
549876 On ch=1 n=d6 v=0
549876 On ch=1 n=g#5 v=0
549876 On ch=1 n=c#6 v=50
549876 On ch=1 n=a5 v=50
550380 On ch=1 n=a5 v=0
550380 On ch=1 n=c#6 v=0
550380 On ch=1 n=e5 v=0
550632 On ch=1 n=g#5 v=48
550904 On ch=1 n=g#5 v=0
550904 On ch=1 n=a5 v=49
551938 On ch=1 n=a5 v=0
551938 On ch=1 n=c#6 v=49
553034 On ch=1 n=c#6 v=0
553034 On ch=1 n=b5 v=46
553568 On ch=1 n=b5 v=0
553568 On ch=1 n=a5 v=50
554102 On ch=1 n=a5 v=0
554102 On ch=1 n=f#5 v=52
554610 On ch=1 n=f#5 v=0
554610 On ch=1 n=g#5 v=56
555114 On ch=1 n=g#5 v=0
555114 On ch=1 n=d#5 v=55
555114 On ch=1 n=a4 v=55
556200 On ch=1 n=a4 v=0
556200 On ch=1 n=d#5 v=0
556200 On ch=1 n=e5 v=50
556200 On ch=1 n=g#4 v=50
556204 Par ch=1 c=64 v=127
557300 On ch=1 n=g#4 v=0
557300 On ch=1 n=e5 v=0
562364 On ch=1 n=b5 v=51
562364 On ch=1 n=g#5 v=51
562590 Par ch=1 c=64 v=0
562594 On ch=1 n=g#5 v=0
562594 On ch=1 n=b5 v=0
562594 On ch=1 n=b5 v=60
562594 On ch=1 n=b6 v=60
562594 On ch=1 n=g#6 v=60
562598 Par ch=1 c=64 v=127
562842 On ch=1 n=b5 v=0
568566 On ch=1 n=g#6 v=0
568566 On ch=1 n=b6 v=0
568566 On ch=1 n=a#6 v=54
568566 On ch=1 n=g6 v=54
569076 Par ch=1 c=64 v=0
569080 On ch=1 n=g6 v=0
569080 On ch=1 n=a#6 v=0
569080 On ch=1 n=a6 v=58
569080 On ch=1 n=f#6 v=58
569084 Par ch=1 c=64 v=127
569592 On ch=1 n=f#6 v=0
569592 On ch=1 n=a6 v=0
569592 On ch=1 n=g#6 v=61
569592 On ch=1 n=e6 v=61
570092 On ch=1 n=e6 v=0
570092 On ch=1 n=g#6 v=0
570092 On ch=1 n=f#6 v=65
570092 On ch=1 n=d#6 v=65
571702 On ch=1 n=d#6 v=0
571702 On ch=1 n=f#6 v=0
571702 On ch=1 n=c#7 v=55
571702 On ch=1 n=a6 v=55
572244 Par ch=1 c=64 v=0
572248 On ch=1 n=a6 v=0
572248 On ch=1 n=c#7 v=0
572248 On ch=1 n=c#7 v=58
572248 On ch=1 n=a6 v=58
572252 Par ch=1 c=64 v=127
572754 On ch=1 n=a6 v=0
572754 On ch=1 n=c#7 v=0
572754 On ch=1 n=b6 v=60
572754 On ch=1 n=g#6 v=60
573286 On ch=1 n=g#6 v=0
573286 On ch=1 n=b6 v=0
573286 On ch=1 n=c#7 v=59
573286 On ch=1 n=g#6 v=59
573552 On ch=1 n=c#7 v=0
573552 On ch=1 n=b6 v=59
574890 On ch=1 n=b6 v=0
574890 On ch=1 n=g#6 v=0
574890 On ch=1 n=a#6 v=57
574890 On ch=1 n=g6 v=57
575416 Par ch=1 c=64 v=0
575420 On ch=1 n=g6 v=0
575420 On ch=1 n=a#6 v=0
575420 On ch=1 n=a6 v=56
575420 On ch=1 n=f#6 v=56
575424 Par ch=1 c=64 v=127
575962 On ch=1 n=f#6 v=0
575962 On ch=1 n=a6 v=0
575962 On ch=1 n=g#6 v=57
575962 On ch=1 n=e6 v=57
576482 On ch=1 n=e6 v=0
576482 On ch=1 n=g#6 v=0
576482 On ch=1 n=f#6 v=57
576482 On ch=1 n=d#6 v=57
578138 On ch=1 n=d#6 v=0
578138 On ch=1 n=f#6 v=0
578138 On ch=1 n=a6 v=58
578138 On ch=1 n=c#6 v=58
578658 Par ch=1 c=64 v=0
578662 On ch=1 n=c#6 v=0
578662 On ch=1 n=a6 v=0
578662 On ch=1 n=a6 v=59
578662 On ch=1 n=c#6 v=59
578666 Par ch=1 c=64 v=127
579188 On ch=1 n=c#6 v=0
579188 On ch=1 n=a6 v=0
579188 On ch=1 n=g#6 v=61
579188 On ch=1 n=b5 v=61
579736 On ch=1 n=b5 v=0
579736 On ch=1 n=g#6 v=0
579736 On ch=1 n=g#6 v=59
579736 On ch=1 n=b5 v=59
581356 On ch=1 n=b5 v=0
581356 On ch=1 n=g#6 v=0
581356 On ch=1 n=g6 v=58
581356 On ch=1 n=a#5 v=58
581894 Par ch=1 c=64 v=0
581898 On ch=1 n=a#5 v=0
581898 On ch=1 n=g6 v=0
581898 On ch=1 n=a5 v=61
581898 On ch=1 n=f#6 v=61
581902 Par ch=1 c=64 v=127
582386 On ch=1 n=f#6 v=0
582386 On ch=1 n=a5 v=0
582386 On ch=1 n=e6 v=63
582386 On ch=1 n=g#5 v=63
582914 On ch=1 n=g#5 v=0
582914 On ch=1 n=e6 v=0
582914 On ch=1 n=d#6 v=58
582914 On ch=1 n=f#5 v=58
584514 On ch=1 n=f#5 v=0
584514 On ch=1 n=d#6 v=0
584514 On ch=1 n=a6 v=53
584514 On ch=1 n=c#6 v=53
585024 Par ch=1 c=64 v=0
585028 On ch=1 n=c#6 v=0
585028 On ch=1 n=a6 v=0
585028 On ch=1 n=a6 v=55
585028 On ch=1 n=c#6 v=55
585032 Par ch=1 c=64 v=127
585556 On ch=1 n=c#6 v=0
585556 On ch=1 n=a6 v=0
585556 On ch=1 n=g#6 v=59
585556 On ch=1 n=b5 v=59
586090 On ch=1 n=b5 v=0
586090 On ch=1 n=g#6 v=0
586090 On ch=1 n=g#6 v=58
586090 On ch=1 n=b5 v=58
587724 On ch=1 n=b5 v=0
587724 On ch=1 n=g#6 v=0
587724 On ch=1 n=b5 v=58
587724 On ch=1 n=g#5 v=58
588258 Par ch=1 c=64 v=0
588262 On ch=1 n=g#5 v=0
588262 On ch=1 n=b5 v=0
588262 On ch=1 n=a5 v=58
588262 On ch=1 n=b5 v=58
588266 Par ch=1 c=64 v=127
588396 On ch=1 n=b5 v=0
588396 On ch=1 n=d#6 v=58
588530 On ch=1 n=d#6 v=0
588530 On ch=1 n=c#6 v=58
588788 On ch=1 n=c#6 v=0
588788 On ch=1 n=a5 v=0
588788 On ch=1 n=b5 v=58
588788 On ch=1 n=g#5 v=58
589312 On ch=1 n=g#5 v=0
589312 On ch=1 n=b5 v=0
589312 On ch=1 n=a5 v=56
589312 On ch=1 n=f#5 v=56
590942 On ch=1 n=f#5 v=0
590942 On ch=1 n=a5 v=0
590942 On ch=1 n=f#6 v=56
590942 On ch=1 n=a5 v=56
591458 Par ch=1 c=64 v=0
591462 On ch=1 n=a5 v=0
591462 On ch=1 n=f#6 v=0
591462 On ch=1 n=f#6 v=58
591462 On ch=1 n=a5 v=58
591466 Par ch=1 c=64 v=127
591998 On ch=1 n=a5 v=0
591998 On ch=1 n=f#6 v=0
591998 On ch=1 n=e6 v=55
591998 On ch=1 n=g#5 v=55
592506 On ch=1 n=g#5 v=0
592506 On ch=1 n=e6 v=0
592506 On ch=1 n=e6 v=55
592506 On ch=1 n=g#5 v=55
594134 On ch=1 n=g#5 v=0
594134 On ch=1 n=e6 v=0
594134 On ch=1 n=b5 v=53
594134 On ch=1 n=g#5 v=53
594644 Par ch=1 c=64 v=0
594648 On ch=1 n=g#5 v=0
594648 On ch=1 n=b5 v=0
594648 On ch=1 n=b5 v=56
594648 On ch=1 n=a5 v=56
594652 Par ch=1 c=64 v=127
594776 On ch=1 n=b5 v=0
594776 On ch=1 n=d#6 v=56
594904 On ch=1 n=d#6 v=0
594904 On ch=1 n=c#6 v=56
595196 On ch=1 n=c#6 v=0
595196 On ch=1 n=a5 v=0
595196 On ch=1 n=b5 v=55
595196 On ch=1 n=g#5 v=55
595734 On ch=1 n=g#5 v=0
595734 On ch=1 n=b5 v=0
595734 On ch=1 n=b5 v=55
595734 On ch=1 n=g#5 v=55
596842 Par ch=1 c=64 v=0
596846 On ch=1 n=g#5 v=0
596846 On ch=1 n=b5 v=0
601730 On ch=1 n=g#6 v=58
602254 On ch=1 n=g#6 v=0
602254 On ch=1 n=f#6 v=55
603318 On ch=1 n=f#6 v=0
603318 On ch=1 n=e6 v=55
604390 On ch=1 n=e6 v=0
604390 On ch=1 n=c#6 v=55
605188 On ch=1 n=c#6 v=0
605188 On ch=1 n=d#6 v=56
605450 On ch=1 n=d#6 v=0
605450 On ch=1 n=b5 v=53
606524 On ch=1 n=a6 v=53
606524 On ch=1 n=d#6 v=53
607616 On ch=1 n=d#6 v=0
607616 On ch=1 n=e6 v=55
608132 On ch=1 n=e6 v=0
608132 On ch=1 n=a6 v=0
608132 On ch=1 n=b5 v=0
608132 On ch=1 n=g#6 v=63
608652 On ch=1 n=g#6 v=0
608652 On ch=1 n=f#6 v=53
609716 On ch=1 n=f#6 v=0
609716 On ch=1 n=e6 v=55
610764 On ch=1 n=e6 v=0
610764 On ch=1 n=c#6 v=58
611564 On ch=1 n=c#6 v=0
611564 On ch=1 n=d#6 v=55
611798 On ch=1 n=d#6 v=0
611798 On ch=1 n=b5 v=58
612868 On ch=1 n=a6 v=50
612868 On ch=1 n=d#6 v=50
613980 On ch=1 n=d#6 v=0
613980 On ch=1 n=a6 v=0
613980 On ch=1 n=g#6 v=55
613980 On ch=1 n=e6 v=55
614496 On ch=1 n=e6 v=0
614496 On ch=1 n=g#6 v=0
614496 On ch=1 n=b5 v=0
614754 On ch=1 n=c#7 v=58
614754 On ch=1 n=g6 v=58
615036 On ch=1 n=g6 v=0
615036 On ch=1 n=c#7 v=0
615036 On ch=1 n=d7 v=55
615036 On ch=1 n=f#6 v=55
616092 On ch=1 n=f#6 v=0
616092 On ch=1 n=d7 v=0
616092 On ch=1 n=d#7 v=55
616092 On ch=1 n=f6 v=55
617186 On ch=1 n=f6 v=0
617186 On ch=1 n=d#7 v=0
617186 On ch=1 n=e7 v=54
617186 On ch=1 n=e6 v=54
618044 On ch=1 n=e6 v=0
618044 On ch=1 n=e7 v=0
618044 On ch=1 n=c#7 v=53
618044 On ch=1 n=g6 v=53
618298 On ch=1 n=g6 v=0
618298 On ch=1 n=c#7 v=0
618298 On ch=1 n=d7 v=54
618298 On ch=1 n=f#6 v=54
619418 On ch=1 n=f#6 v=0
619418 On ch=1 n=d7 v=0
619418 On ch=1 n=d#7 v=51
619418 On ch=1 n=f6 v=51
620526 On ch=1 n=f6 v=0
620526 On ch=1 n=d#7 v=0
620526 On ch=1 n=e7 v=53
620526 On ch=1 n=e6 v=53
621052 On ch=1 n=e6 v=0
621052 On ch=1 n=e7 v=0
621314 On ch=1 n=f#7 v=52
621314 On ch=1 n=a6 v=52
621596 On ch=1 n=a6 v=0
621596 On ch=1 n=f#7 v=0
621596 On ch=1 n=b6 v=53
621596 On ch=1 n=g#6 v=53
622706 On ch=1 n=g#6 v=0
622706 On ch=1 n=b6 v=0
622706 On ch=1 n=f#7 v=52
622706 On ch=1 n=a#6 v=52
623854 On ch=1 n=a#6 v=0
623854 On ch=1 n=f#7 v=0
623854 On ch=1 n=b6 v=50
624694 On ch=1 n=b6 v=0
624694 On ch=1 n=c#7 v=50
624694 On ch=1 n=a#6 v=50
624952 On ch=1 n=a#6 v=0
624952 On ch=1 n=c#7 v=0
624952 On ch=1 n=e7 v=51
624952 On ch=1 n=b6 v=51
625220 On ch=1 n=e7 v=0
625220 On ch=1 n=d7 v=51
626058 On ch=1 n=d7 v=0
626058 On ch=1 n=b6 v=0
626058 On ch=1 n=c#7 v=53
626058 On ch=1 n=a#6 v=53
627146 On ch=1 n=a#6 v=0
627146 On ch=1 n=c#7 v=0
627146 On ch=1 n=d7 v=53
627146 On ch=1 n=b6 v=53
627150 Par ch=1 c=64 v=127
628250 On ch=1 n=f#6 v=52
628250 On ch=1 n=d6 v=52
629318 Par ch=1 c=64 v=0
629322 On ch=1 n=d6 v=0
629322 On ch=1 n=f#6 v=0
629322 On ch=1 n=b6 v=0
629322 On ch=1 n=d7 v=0
629322 On ch=1 n=c#7 v=57
629322 On ch=1 n=a6 v=57
630422 On ch=1 n=a6 v=0
630422 On ch=1 n=c#7 v=0
630422 On ch=1 n=c#7 v=62
630422 On ch=1 n=a6 v=62
630426 Par ch=1 c=64 v=127
630956 On ch=1 n=a6 v=0
630956 On ch=1 n=c#7 v=0
630956 On ch=1 n=b6 v=61
630956 On ch=1 n=g#6 v=61
631476 On ch=1 n=g#6 v=0
631476 On ch=1 n=b6 v=0
631476 On ch=1 n=c#7 v=59
631476 On ch=1 n=g#6 v=59
631736 On ch=1 n=c#7 v=0
631736 On ch=1 n=b6 v=59
632018 On ch=1 n=b6 v=0
632018 On ch=1 n=g#6 v=0
632018 On ch=1 n=a6 v=58
632018 On ch=1 n=f#6 v=58
632544 Par ch=1 c=64 v=0
632548 On ch=1 n=f#6 v=0
632548 On ch=1 n=a6 v=0
632548 On ch=1 n=b6 v=58
632548 On ch=1 n=e6 v=58
633074 On ch=1 n=e6 v=0
633074 On ch=1 n=b6 v=0
633074 On ch=1 n=c#7 v=59
633074 On ch=1 n=d6 v=59
633600 On ch=1 n=d6 v=0
633600 On ch=1 n=c#7 v=0
633600 On ch=1 n=b6 v=59
633600 On ch=1 n=d6 v=59
634140 On ch=1 n=b6 v=0
634140 On ch=1 n=a6 v=58
634646 On ch=1 n=a6 v=0
634646 On ch=1 n=b6 v=59
634898 On ch=1 n=b6 v=0
634898 On ch=1 n=a6 v=59
635180 On ch=1 n=a6 v=0
635180 On ch=1 n=g#6 v=56
635730 On ch=1 n=g#6 v=0
635730 On ch=1 n=a6 v=56
636546 On ch=1 n=a6 v=0
636546 On ch=1 n=f#6 v=56
636814 On ch=1 n=f#6 v=0
636814 On ch=1 n=d6 v=0
636814 On ch=1 n=d#6 v=59
636814 On ch=1 n=c6 v=59
637554 On ch=1 n=d#6 v=0
637554 On ch=1 n=e6 v=61
637846 On ch=1 n=e6 v=0
637846 On ch=1 n=c6 v=0
637846 On ch=1 n=e6 v=58
637846 On ch=1 n=c#6 v=58
638918 On ch=1 n=c#6 v=0
638918 On ch=1 n=b5 v=55
639990 Par ch=1 c=64 v=0
639994 On ch=1 n=b5 v=0
639994 On ch=1 n=e6 v=0
639994 On ch=1 n=a6 v=59
639998 Par ch=1 c=64 v=127
641082 On ch=1 n=e6 v=53
641082 On ch=1 n=a5 v=53
642124 On ch=1 n=a5 v=0
642124 On ch=1 n=e6 v=0
642124 On ch=1 n=a6 v=0
642124 On ch=1 n=g#6 v=59
643172 Par ch=1 c=64 v=0
643176 On ch=1 n=g#6 v=0
643176 On ch=1 n=g#6 v=58
643180 Par ch=1 c=64 v=127
643682 On ch=1 n=g#6 v=0
643682 On ch=1 n=f#6 v=61
644214 On ch=1 n=f#6 v=0
644214 On ch=1 n=g#6 v=59
644214 On ch=1 n=d#6 v=59
644480 On ch=1 n=g#6 v=0
644480 On ch=1 n=f#6 v=59
644728 On ch=1 n=f#6 v=0
644728 On ch=1 n=d#6 v=0
644728 On ch=1 n=e6 v=59
644728 On ch=1 n=c#6 v=59
645250 On ch=1 n=c#6 v=0
645250 On ch=1 n=e6 v=0
645250 On ch=1 n=f#6 v=61
645250 On ch=1 n=b5 v=61
645752 On ch=1 n=b5 v=0
645752 On ch=1 n=f#6 v=0
645752 On ch=1 n=g#6 v=63
645752 On ch=1 n=a5 v=63
646260 On ch=1 n=a5 v=0
646260 On ch=1 n=g#6 v=0
646260 On ch=1 n=f#6 v=66
646260 On ch=1 n=a5 v=66
646780 On ch=1 n=f#6 v=0
646780 On ch=1 n=e6 v=63
647272 On ch=1 n=e6 v=0
647272 On ch=1 n=f#6 v=70
647518 On ch=1 n=f#6 v=0
647518 On ch=1 n=e6 v=70
647794 On ch=1 n=e6 v=0
647794 On ch=1 n=d#6 v=66
648340 On ch=1 n=d#6 v=0
648340 On ch=1 n=e6 v=69
649200 On ch=1 n=e6 v=0
649200 On ch=1 n=c#6 v=61
649458 On ch=1 n=c#6 v=0
649458 On ch=1 n=a5 v=0
649458 On ch=1 n=a#5 v=56
649458 On ch=1 n=g5 v=56
650246 On ch=1 n=a#5 v=0
650246 On ch=1 n=b5 v=55
650494 On ch=1 n=b5 v=0
650494 On ch=1 n=g5 v=0
650494 On ch=1 n=b5 v=55
650494 On ch=1 n=g#5 v=55
652700 On ch=1 n=g#5 v=0
652700 On ch=1 n=b5 v=0
652700 On ch=1 n=d6 v=56
653810 On ch=1 n=a5 v=56
653810 On ch=1 n=f#5 v=56
654888 On ch=1 n=f#5 v=0
654888 On ch=1 n=a5 v=0
654888 On ch=1 n=d6 v=0
654888 On ch=1 n=b5 v=59
654888 On ch=1 n=g#5 v=59
655996 On ch=1 n=g#5 v=0
655996 On ch=1 n=b5 v=0
655996 On ch=1 n=d6 v=58
656520 On ch=1 n=d6 v=0
656520 On ch=1 n=e6 v=59
657060 On ch=1 n=e6 v=0
657060 On ch=1 n=f#6 v=58
657060 On ch=1 n=a5 v=58
657060 On ch=1 n=f#5 v=58
658124 On ch=1 n=f#5 v=0
658124 On ch=1 n=a5 v=0
658124 On ch=1 n=f#6 v=0
658124 On ch=1 n=b5 v=58
658124 On ch=1 n=g#5 v=58
659226 On ch=1 n=g#5 v=0
659226 On ch=1 n=b5 v=0
659226 On ch=1 n=d6 v=56
660308 On ch=1 n=a5 v=52
660308 On ch=1 n=f#5 v=52
661380 On ch=1 n=f#5 v=0
661380 On ch=1 n=a5 v=0
661380 On ch=1 n=d6 v=0
661380 On ch=1 n=b5 v=58
661380 On ch=1 n=g#5 v=58
662168 On ch=1 n=b5 v=0
662168 On ch=1 n=c#6 v=56
662430 On ch=1 n=c#6 v=0
662430 On ch=1 n=g#5 v=0
662430 On ch=1 n=b5 v=55
662974 On ch=1 n=b5 v=0
662974 On ch=1 n=a5 v=58
663478 On ch=1 n=a5 v=0
663478 On ch=1 n=f#5 v=62
663478 On ch=1 n=d5 v=62
663478 On ch=1 n=a4 v=62
664540 On ch=1 n=a4 v=0
664540 On ch=1 n=d5 v=0
664540 On ch=1 n=f#5 v=0
664540 On ch=1 n=e5 v=56
664540 On ch=1 n=d5 v=56
664540 On ch=1 n=b4 v=56
665584 On ch=1 n=b4 v=0
665584 On ch=1 n=d5 v=0
665584 On ch=1 n=e5 v=0
665584 On ch=1 n=e5 v=61
665584 On ch=1 n=c#5 v=61
665588 Par ch=1 c=64 v=127
666168 On ch=1 n=c#5 v=0
666168 On ch=1 n=e5 v=0
666460 On ch=1 n=a5 v=56
666460 On ch=1 n=e5 v=56
666658 On ch=1 n=e5 v=0
666658 On ch=1 n=a5 v=0
666658 On ch=1 n=c#6 v=67
666658 On ch=1 n=a5 v=67
667708 On ch=1 n=a5 v=0
667708 On ch=1 n=c#6 v=0
667708 On ch=1 n=e6 v=64
667708 On ch=1 n=c#6 v=64
667974 On ch=1 n=e6 v=0
667974 On ch=1 n=f#6 v=64
668222 On ch=1 n=f#6 v=0
668222 On ch=1 n=e6 v=63
668798 On ch=1 n=e6 v=0
668798 On ch=1 n=c#6 v=0
668798 On ch=1 n=d#6 v=56
668798 On ch=1 n=c6 v=56
669574 On ch=1 n=c6 v=0
669574 On ch=1 n=d#6 v=0
669574 On ch=1 n=e6 v=62
669574 On ch=1 n=c#6 v=62
669842 On ch=1 n=c#6 v=0
669842 On ch=1 n=e6 v=0
669842 On ch=1 n=c#7 v=63
669842 On ch=1 n=e6 v=63
670914 On ch=1 n=e6 v=0
670914 On ch=1 n=c#7 v=0
670914 On ch=1 n=c7 v=66
670914 On ch=1 n=d#6 v=66
671984 Par ch=1 c=64 v=0
671988 On ch=1 n=d#6 v=0
671988 On ch=1 n=c7 v=0
671988 On ch=1 n=a#6 v=64
671988 On ch=1 n=c#6 v=64
671992 Par ch=1 c=64 v=127
672512 On ch=1 n=c#6 v=0
672512 On ch=1 n=a#6 v=0
672512 On ch=1 n=b6 v=69
672512 On ch=1 n=d6 v=69
673044 On ch=1 n=d6 v=0
673044 On ch=1 n=b6 v=0
673044 On ch=1 n=d7 v=70
673044 On ch=1 n=f#6 v=70
674146 Par ch=1 c=64 v=0
674736 On ch=1 n=f#6 v=0
674736 On ch=1 n=d7 v=0
674736 On ch=1 n=g#6 v=52
674736 On ch=1 n=b5 v=52
675274 On ch=1 n=b5 v=0
675274 On ch=1 n=g#6 v=0
675274 On ch=1 n=b6 v=61
675274 On ch=1 n=d6 v=61
675278 Par ch=1 c=64 v=127
675820 On ch=1 n=d6 v=0
675820 On ch=1 n=b6 v=0
675820 On ch=1 n=a6 v=56
675820 On ch=1 n=c#6 v=56
676388 On ch=1 n=c#6 v=0
676388 On ch=1 n=a6 v=0
676388 On ch=1 n=c#7 v=55
676388 On ch=1 n=e6 v=55
677510 Par ch=1 c=64 v=0
677514 On ch=1 n=e6 v=0
677514 On ch=1 n=c#7 v=0
681806 On ch=1 n=b4 v=56
681898 On ch=1 n=b4 v=59
681902 Par ch=1 c=64 v=127
681914 On ch=1 n=b4 v=0
682028 On ch=1 n=b4 v=0
682028 On ch=1 n=g#5 v=59
682028 On ch=1 n=b5 v=59
688386 On ch=1 n=b4 v=62
688500 Par ch=1 c=64 v=0
688504 On ch=1 n=b5 v=0
688504 On ch=1 n=g#5 v=0
688504 On ch=1 n=b4 v=71
688508 Par ch=1 c=64 v=127
688520 On ch=1 n=b4 v=0
688632 On ch=1 n=b4 v=0
688632 On ch=1 n=g#5 v=71
688632 On ch=1 n=b5 v=71
694006 Par ch=1 c=64 v=0
694010 On ch=1 n=b5 v=0
694010 On ch=1 n=g#5 v=0
694010 On ch=1 n=b5 v=62
694010 On ch=1 n=a#5 v=62
694010 On ch=1 n=g5 v=62
695080 On ch=1 n=g5 v=0
695080 On ch=1 n=a#5 v=0
695080 On ch=1 n=b5 v=0
695080 On ch=1 n=b5 v=66
695080 On ch=1 n=a5 v=66
695080 On ch=1 n=f#5 v=66
695084 Par ch=1 c=64 v=127
695582 On ch=1 n=f#5 v=0
695582 On ch=1 n=a5 v=0
695582 On ch=1 n=b5 v=0
695582 On ch=1 n=b5 v=72
695582 On ch=1 n=g#5 v=72
695582 On ch=1 n=e5 v=72
696132 On ch=1 n=e5 v=0
696132 On ch=1 n=g#5 v=0
696132 On ch=1 n=b5 v=0
696132 On ch=1 n=b5 v=61
696132 On ch=1 n=f#5 v=61
696132 On ch=1 n=d#5 v=61
697684 Par ch=1 c=64 v=0
697688 On ch=1 n=d#5 v=0
697688 On ch=1 n=f#5 v=0
697688 On ch=1 n=b5 v=0
697688 On ch=1 n=c#6 v=66
697688 On ch=1 n=a5 v=66
698194 On ch=1 n=a5 v=0
698194 On ch=1 n=c#6 v=0
698194 On ch=1 n=d#6 v=69
698194 On ch=1 n=a5 v=69
698198 Par ch=1 c=64 v=127
698446 On ch=1 n=d#6 v=0
698446 On ch=1 n=c#6 v=69
698730 On ch=1 n=c#6 v=0
698730 On ch=1 n=a5 v=0
698730 On ch=1 n=b5 v=66
698730 On ch=1 n=g#5 v=66
699268 On ch=1 n=g#5 v=0
699268 On ch=1 n=b5 v=0
699268 On ch=1 n=b5 v=62
699268 On ch=1 n=g#5 v=62
700846 Par ch=1 c=64 v=0
700850 On ch=1 n=g#5 v=0
700850 On ch=1 n=b5 v=0
700850 On ch=1 n=b5 v=69
700850 On ch=1 n=a#5 v=69
700850 On ch=1 n=g5 v=69
701346 On ch=1 n=g5 v=0
701346 On ch=1 n=a#5 v=0
701346 On ch=1 n=b5 v=0
701346 On ch=1 n=b5 v=73
701346 On ch=1 n=a5 v=73
701346 On ch=1 n=f#5 v=73
701350 Par ch=1 c=64 v=127
701866 On ch=1 n=f#5 v=0
701866 On ch=1 n=a5 v=0
701866 On ch=1 n=b5 v=0
701866 On ch=1 n=b5 v=71
701866 On ch=1 n=g#5 v=71
701866 On ch=1 n=e5 v=71
702392 On ch=1 n=e5 v=0
702392 On ch=1 n=g#5 v=0
702392 On ch=1 n=b5 v=0
702392 On ch=1 n=b5 v=63
702392 On ch=1 n=f#5 v=63
702392 On ch=1 n=d#5 v=63
704004 Par ch=1 c=64 v=0
704008 On ch=1 n=d#5 v=0
704008 On ch=1 n=f#5 v=0
704008 On ch=1 n=b5 v=0
704008 On ch=1 n=a5 v=69
704008 On ch=1 n=c#5 v=69
704514 On ch=1 n=c#5 v=0
704514 On ch=1 n=a5 v=0
704514 On ch=1 n=b5 v=68
704514 On ch=1 n=c#5 v=68
704518 Par ch=1 c=64 v=127
704766 On ch=1 n=b5 v=0
704766 On ch=1 n=a5 v=68
705046 On ch=1 n=a5 v=0
705046 On ch=1 n=c#5 v=0
705046 On ch=1 n=g#5 v=68
705046 On ch=1 n=b4 v=68
705556 On ch=1 n=b4 v=0
705556 On ch=1 n=g#5 v=0
705556 On ch=1 n=g#5 v=67
705556 On ch=1 n=b4 v=67
707150 Par ch=1 c=64 v=0
707154 On ch=1 n=b4 v=0
707154 On ch=1 n=g#5 v=0
707154 On ch=1 n=g5 v=67
707154 On ch=1 n=a#4 v=67
707666 On ch=1 n=a#4 v=0
707666 On ch=1 n=g5 v=0
707666 On ch=1 n=f#5 v=65
707666 On ch=1 n=a4 v=65
707670 Par ch=1 c=64 v=127
708176 On ch=1 n=a4 v=0
708176 On ch=1 n=f#5 v=0
708176 On ch=1 n=e5 v=65
708176 On ch=1 n=g#4 v=65
708714 On ch=1 n=g#4 v=0
708714 On ch=1 n=e5 v=0
708714 On ch=1 n=d#5 v=60
708714 On ch=1 n=f#4 v=60
710322 Par ch=1 c=64 v=0
710326 On ch=1 n=f#4 v=0
710326 On ch=1 n=d#5 v=0
710326 On ch=1 n=c#5 v=61
710326 On ch=1 n=a5 v=61
710864 On ch=1 n=a5 v=0
710864 On ch=1 n=c#5 v=0
710864 On ch=1 n=a5 v=63
710864 On ch=1 n=c#5 v=63
710868 Par ch=1 c=64 v=127
711378 On ch=1 n=c#5 v=0
711378 On ch=1 n=a5 v=0
711378 On ch=1 n=g#5 v=63
711378 On ch=1 n=b4 v=63
711882 On ch=1 n=b4 v=0
711882 On ch=1 n=g#5 v=0
711882 On ch=1 n=g#5 v=62
711882 On ch=1 n=b4 v=62
713472 Par ch=1 c=64 v=0
713476 On ch=1 n=b4 v=0
713476 On ch=1 n=g#5 v=0
713476 On ch=1 n=b4 v=63
713476 On ch=1 n=g#4 v=63
713986 On ch=1 n=g#4 v=0
713986 On ch=1 n=b4 v=0
713986 On ch=1 n=b4 v=67
713986 On ch=1 n=a4 v=67
713990 Par ch=1 c=64 v=127
714112 On ch=1 n=b4 v=0
714112 On ch=1 n=d#5 v=67
714240 On ch=1 n=d#5 v=0
714240 On ch=1 n=c#5 v=67
714508 On ch=1 n=c#5 v=0
714508 On ch=1 n=a4 v=0
714508 On ch=1 n=b4 v=70
714508 On ch=1 n=g#4 v=70
715028 On ch=1 n=g#4 v=0
715028 On ch=1 n=b4 v=0
715028 On ch=1 n=a4 v=71
715028 On ch=1 n=f#4 v=71
716676 Par ch=1 c=64 v=0
716680 On ch=1 n=f#4 v=0
716680 On ch=1 n=a4 v=0
716680 On ch=1 n=f#5 v=67
716680 On ch=1 n=a4 v=67
717200 On ch=1 n=a4 v=0
717200 On ch=1 n=f#5 v=0
717200 On ch=1 n=f#5 v=65
717200 On ch=1 n=a4 v=65
717204 Par ch=1 c=64 v=127
717702 On ch=1 n=a4 v=0
717702 On ch=1 n=f#5 v=0
717702 On ch=1 n=e5 v=67
717702 On ch=1 n=g#4 v=67
718220 On ch=1 n=g#4 v=0
718220 On ch=1 n=e5 v=0
718220 On ch=1 n=e5 v=65
718220 On ch=1 n=g#4 v=65
719806 Par ch=1 c=64 v=0
719810 On ch=1 n=g#4 v=0
719810 On ch=1 n=e5 v=0
719810 On ch=1 n=b4 v=71
719810 On ch=1 n=g#4 v=71
720320 On ch=1 n=g#4 v=0
720320 On ch=1 n=b4 v=0
720320 On ch=1 n=b4 v=75
720320 On ch=1 n=a4 v=75
720446 On ch=1 n=b4 v=0
720446 On ch=1 n=c#5 v=75
720832 On ch=1 n=c#5 v=0
720832 On ch=1 n=a4 v=0
720832 On ch=1 n=b4 v=74
720832 On ch=1 n=g#4 v=74
721350 On ch=1 n=g#4 v=0
721350 On ch=1 n=b4 v=0
721350 On ch=1 n=b4 v=78
721350 On ch=1 n=g#4 v=78
722990 On ch=1 n=g#4 v=0
722990 On ch=1 n=a4 v=60
723514 On ch=1 n=a4 v=0
723514 On ch=1 n=g#4 v=63
724046 On ch=1 n=g#4 v=0
724046 On ch=1 n=a4 v=60
724584 On ch=1 n=a4 v=0
724584 On ch=1 n=g#4 v=60
725684 On ch=1 n=g#4 v=0
725684 On ch=1 n=a4 v=57
726782 On ch=1 n=a4 v=0
726782 On ch=1 n=g#4 v=60
727282 On ch=1 n=g#4 v=0
727282 On ch=1 n=b4 v=0
727282 On ch=1 n=g#5 v=65
727798 On ch=1 n=g#5 v=0
727798 On ch=1 n=f#5 v=67
728824 On ch=1 n=f#5 v=0
728824 On ch=1 n=e5 v=65
729890 On ch=1 n=e5 v=0
729890 On ch=1 n=c#5 v=61
730654 On ch=1 n=c#5 v=0
730654 On ch=1 n=d#5 v=63
730924 On ch=1 n=d#5 v=0
730924 On ch=1 n=b4 v=60
731954 On ch=1 n=b2 v=77
731954 On ch=1 n=d5 v=77
731954 On ch=1 n=a5 v=77
732996 On ch=1 n=a5 v=0
732996 On ch=1 n=d5 v=0
732996 On ch=1 n=b2 v=0
732996 On ch=1 n=g#5 v=67
732996 On ch=1 n=e5 v=67
732996 On ch=1 n=b4 v=67
733514 On ch=1 n=b4 v=0
733514 On ch=1 n=e5 v=0
733514 On ch=1 n=g#5 v=0
733514 On ch=1 n=b4 v=0
733514 On ch=1 n=g#6 v=65
734080 On ch=1 n=g#6 v=0
734080 On ch=1 n=f#6 v=57
735164 On ch=1 n=f#6 v=0
735164 On ch=1 n=e6 v=61
736218 On ch=1 n=e6 v=0
736218 On ch=1 n=c#6 v=62
737012 On ch=1 n=c#6 v=0
737012 On ch=1 n=d#6 v=60
737256 On ch=1 n=d#6 v=0
737256 On ch=1 n=b5 v=61
738352 On ch=1 n=b3 v=59
738352 On ch=1 n=d6 v=59
738352 On ch=1 n=a6 v=59
739380 On ch=1 n=a6 v=0
739380 On ch=1 n=d6 v=0
739380 On ch=1 n=b3 v=0
739380 On ch=1 n=g#6 v=62
739380 On ch=1 n=e6 v=62
739914 On ch=1 n=e6 v=0
739914 On ch=1 n=g#6 v=0
739914 On ch=1 n=b5 v=0
739914 On ch=1 n=d#6 v=60
740412 On ch=1 n=d#6 v=0
740412 On ch=1 n=e6 v=62
741440 On ch=1 n=e6 v=0
741440 On ch=1 n=g#6 v=63
742522 On ch=1 n=g#6 v=0
742522 On ch=1 n=f#6 v=58
743040 On ch=1 n=f#6 v=0
743040 On ch=1 n=e6 v=70
743546 On ch=1 n=e6 v=0
743546 On ch=1 n=c#6 v=67
744040 On ch=1 n=c#6 v=0
744040 On ch=1 n=d#6 v=68
744576 On ch=1 n=d#6 v=0
744576 On ch=1 n=a#5 v=56
744576 On ch=1 n=e5 v=56
745626 On ch=1 n=e5 v=0
745626 On ch=1 n=a#5 v=0
745626 On ch=1 n=b5 v=74
745626 On ch=1 n=d5 v=74
745632 Par ch=1 c=64 v=127
746738 On ch=1 n=d5 v=0
746738 On ch=1 n=b5 v=0
748534 On ch=1 n=f#6 v=75
748534 On ch=1 n=d#6 v=75
748808 On ch=1 n=d#6 v=0
748808 On ch=1 n=f#6 v=0
748808 On ch=1 n=f#6 v=84
748808 On ch=1 n=d#6 v=84
749062 On ch=1 n=f#6 v=0
749062 On ch=1 n=f#7 v=84
749062 On ch=1 n=d#7 v=84
749062 On ch=1 n=f#6 v=84
749080 On ch=1 n=d#6 v=0
751630 On ch=1 n=f#6 v=0
751630 On ch=1 n=f#6 v=77
751914 Par ch=1 c=64 v=0
751918 On ch=1 n=f#6 v=0
751918 On ch=1 n=d#7 v=0
751918 On ch=1 n=f#7 v=0
751918 On ch=1 n=f#6 v=81
751918 On ch=1 n=d#6 v=81
751922 Par ch=1 c=64 v=127
752180 On ch=1 n=f#7 v=81
752180 On ch=1 n=d#7 v=81
752180 On ch=1 n=f#6 v=81
752198 On ch=1 n=d#6 v=0
752198 On ch=1 n=f#6 v=0
757094 Par ch=1 c=64 v=0
757098 On ch=1 n=f#6 v=0
757098 On ch=1 n=d#7 v=0
757098 On ch=1 n=f#7 v=0
757098 On ch=1 n=f7 v=70
757098 On ch=1 n=d7 v=70
757098 On ch=1 n=f6 v=70
758090 On ch=1 n=f6 v=0
758090 On ch=1 n=d7 v=0
758090 On ch=1 n=f7 v=0
758090 On ch=1 n=e7 v=74
758090 On ch=1 n=c#7 v=74
758090 On ch=1 n=e6 v=74
758094 Par ch=1 c=64 v=127
758624 On ch=1 n=e6 v=0
758624 On ch=1 n=c#7 v=0
758624 On ch=1 n=e7 v=0
758624 On ch=1 n=d#7 v=64
758624 On ch=1 n=b6 v=64
758624 On ch=1 n=d#6 v=64
759134 On ch=1 n=d#6 v=0
759134 On ch=1 n=b6 v=0
759134 On ch=1 n=d#7 v=0
759134 On ch=1 n=c#7 v=65
759134 On ch=1 n=a#6 v=65
759134 On ch=1 n=c#6 v=65
760684 Par ch=1 c=64 v=0
760688 On ch=1 n=c#6 v=0
760688 On ch=1 n=a#6 v=0
760688 On ch=1 n=c#7 v=0
760688 On ch=1 n=g#7 v=72
760688 On ch=1 n=e7 v=72
760688 On ch=1 n=g#6 v=72
761174 On ch=1 n=g#6 v=0
761174 On ch=1 n=e7 v=0
761174 On ch=1 n=g#7 v=0
761174 On ch=1 n=g#7 v=71
761174 On ch=1 n=e7 v=71
761174 On ch=1 n=a6 v=71
761178 Par ch=1 c=64 v=127
761708 On ch=1 n=a6 v=0
761708 On ch=1 n=e7 v=0
761708 On ch=1 n=g#7 v=0
761708 On ch=1 n=f#7 v=71
761708 On ch=1 n=d#7 v=71
761708 On ch=1 n=f#6 v=71
762270 On ch=1 n=f#6 v=0
762270 On ch=1 n=d#7 v=0
762270 On ch=1 n=f#7 v=0
762270 On ch=1 n=f#7 v=65
762270 On ch=1 n=d#7 v=65
762270 On ch=1 n=f#6 v=65
763862 Par ch=1 c=64 v=0
763866 On ch=1 n=f#6 v=0
763866 On ch=1 n=d#7 v=0
763866 On ch=1 n=f#7 v=0
763866 On ch=1 n=f7 v=68
763866 On ch=1 n=d7 v=68
763866 On ch=1 n=f6 v=68
764368 On ch=1 n=f6 v=0
764368 On ch=1 n=d7 v=0
764368 On ch=1 n=f7 v=0
764368 On ch=1 n=e7 v=67
764368 On ch=1 n=c#7 v=67
764368 On ch=1 n=e6 v=67
764372 Par ch=1 c=64 v=127
764856 On ch=1 n=e6 v=0
764856 On ch=1 n=c#7 v=0
764856 On ch=1 n=e7 v=0
764856 On ch=1 n=d#7 v=71
764856 On ch=1 n=b6 v=71
764856 On ch=1 n=d#6 v=71
765398 On ch=1 n=d#6 v=0
765398 On ch=1 n=b6 v=0
765398 On ch=1 n=d#7 v=0
765398 On ch=1 n=c#7 v=70
765398 On ch=1 n=a#6 v=70
765398 On ch=1 n=c#6 v=70
766986 Par ch=1 c=64 v=0
766990 On ch=1 n=c#6 v=0
766990 On ch=1 n=a#6 v=0
766990 On ch=1 n=c#7 v=0
766990 On ch=1 n=e7 v=71
766990 On ch=1 n=g#6 v=71
766990 On ch=1 n=e6 v=71
767462 On ch=1 n=e6 v=0
767462 On ch=1 n=g#6 v=0
767462 On ch=1 n=e7 v=0
767462 On ch=1 n=e7 v=74
767462 On ch=1 n=g#6 v=74
767462 On ch=1 n=e6 v=74
767466 Par ch=1 c=64 v=127
767928 On ch=1 n=e6 v=0
767928 On ch=1 n=g#6 v=0
767928 On ch=1 n=e7 v=0
767928 On ch=1 n=d#7 v=74
767928 On ch=1 n=f#6 v=74
767928 On ch=1 n=d#6 v=74
768430 On ch=1 n=d#6 v=0
768430 On ch=1 n=f#6 v=0
768430 On ch=1 n=d#7 v=0
768430 On ch=1 n=d#7 v=71
768430 On ch=1 n=f#6 v=71
768430 On ch=1 n=d#6 v=71
770092 Par ch=1 c=64 v=0
770096 On ch=1 n=d#6 v=0
770096 On ch=1 n=f#6 v=0
770096 On ch=1 n=d#7 v=0
770096 On ch=1 n=d7 v=67
770096 On ch=1 n=f6 v=67
770096 On ch=1 n=d6 v=67
770590 On ch=1 n=d6 v=0
770590 On ch=1 n=f6 v=0
770590 On ch=1 n=d7 v=0
770590 On ch=1 n=c#7 v=68
770590 On ch=1 n=e6 v=68
770590 On ch=1 n=c#6 v=68
770594 Par ch=1 c=64 v=127
771078 On ch=1 n=c#6 v=0
771078 On ch=1 n=e6 v=0
771078 On ch=1 n=c#7 v=0
771078 On ch=1 n=b6 v=67
771078 On ch=1 n=d#6 v=67
771078 On ch=1 n=b5 v=67
771606 On ch=1 n=b5 v=0
771606 On ch=1 n=d#6 v=0
771606 On ch=1 n=b6 v=0
771606 On ch=1 n=a#6 v=62
771606 On ch=1 n=c#6 v=62
771606 On ch=1 n=a#5 v=62
773228 Par ch=1 c=64 v=0
773232 On ch=1 n=a#5 v=0
773232 On ch=1 n=c#6 v=0
773232 On ch=1 n=a#6 v=0
773232 On ch=1 n=e7 v=68
773232 On ch=1 n=g#6 v=68
773232 On ch=1 n=e6 v=68
773710 On ch=1 n=e6 v=0
773710 On ch=1 n=g#6 v=0
773710 On ch=1 n=e7 v=0
773710 On ch=1 n=e7 v=71
773710 On ch=1 n=g#6 v=71
773710 On ch=1 n=e6 v=71
773714 Par ch=1 c=64 v=127
774214 On ch=1 n=e6 v=0
774214 On ch=1 n=g#6 v=0
774214 On ch=1 n=e7 v=0
774214 On ch=1 n=d#7 v=71
774214 On ch=1 n=f#6 v=71
774214 On ch=1 n=d#6 v=71
774754 On ch=1 n=d#6 v=0
774754 On ch=1 n=f#6 v=0
774754 On ch=1 n=d#7 v=0
774754 On ch=1 n=d#7 v=67
774754 On ch=1 n=f#6 v=67
774754 On ch=1 n=d#6 v=67
776288 Par ch=1 c=64 v=0
776292 On ch=1 n=d#6 v=0
776292 On ch=1 n=f#6 v=0
776292 On ch=1 n=d#7 v=0
776292 On ch=1 n=f#6 v=67
776292 On ch=1 n=d#6 v=67
776292 On ch=1 n=f#5 v=67
776800 On ch=1 n=f#5 v=0
776800 On ch=1 n=d#6 v=0
776800 On ch=1 n=f#6 v=0
776800 On ch=1 n=f#6 v=65
776800 On ch=1 n=d#6 v=65
776800 On ch=1 n=f#5 v=65
776804 Par ch=1 c=64 v=127
776926 On ch=1 n=f#5 v=0
776926 On ch=1 n=d#6 v=0
776926 On ch=1 n=f#6 v=0
776926 On ch=1 n=e6 v=65
776926 On ch=1 n=a#6 v=65
776926 On ch=1 n=g#5 v=65
777054 On ch=1 n=a#6 v=0
777054 On ch=1 n=g#6 v=65
777310 On ch=1 n=g#6 v=0
777310 On ch=1 n=g#5 v=0
777310 On ch=1 n=e6 v=0
777310 On ch=1 n=f#6 v=64
777310 On ch=1 n=d6 v=64
777310 On ch=1 n=f#5 v=64
777878 On ch=1 n=f#5 v=0
777878 On ch=1 n=d6 v=0
777878 On ch=1 n=f#6 v=0
777878 On ch=1 n=e6 v=56
777878 On ch=1 n=c#6 v=56
777878 On ch=1 n=e5 v=56
779460 Par ch=1 c=64 v=0
779464 On ch=1 n=e5 v=0
779464 On ch=1 n=c#6 v=0
779464 On ch=1 n=e6 v=0
779464 On ch=1 n=c#7 v=67
779464 On ch=1 n=e6 v=67
779464 On ch=1 n=c#6 v=67
779970 On ch=1 n=c#6 v=0
779970 On ch=1 n=e6 v=0
779970 On ch=1 n=c#7 v=0
779970 On ch=1 n=c#7 v=65
779970 On ch=1 n=e6 v=65
779970 On ch=1 n=c#6 v=65
779974 Par ch=1 c=64 v=127
780490 On ch=1 n=c#6 v=0
780490 On ch=1 n=e6 v=0
780490 On ch=1 n=c#7 v=0
780490 On ch=1 n=b6 v=65
780490 On ch=1 n=d#6 v=65
780490 On ch=1 n=b5 v=65
781032 On ch=1 n=b5 v=0
781032 On ch=1 n=d#6 v=0
781032 On ch=1 n=b6 v=0
781032 On ch=1 n=b6 v=61
781032 On ch=1 n=d#6 v=61
781032 On ch=1 n=b5 v=61
782086 On ch=1 n=b5 v=0
782086 On ch=1 n=d#6 v=0
782086 On ch=1 n=b6 v=0
782620 Par ch=1 c=64 v=0
782624 On ch=1 n=f#5 v=61
782624 On ch=1 n=d#5 v=61
783120 Par ch=1 c=64 v=0
783124 On ch=1 n=d#5 v=0
783124 On ch=1 n=f#5 v=0
783124 On ch=1 n=f#5 v=62
783124 On ch=1 n=d#5 v=62
783128 Par ch=1 c=64 v=127
783248 On ch=1 n=d#5 v=0
783248 On ch=1 n=f#5 v=0
783248 On ch=1 n=a#5 v=62
783248 On ch=1 n=e5 v=62
783374 On ch=1 n=a#5 v=0
783374 On ch=1 n=g#5 v=62
783626 On ch=1 n=g#5 v=0
783626 On ch=1 n=e5 v=0
783626 On ch=1 n=f#5 v=62
783626 On ch=1 n=d#5 v=62
784154 On ch=1 n=d#5 v=0
784154 On ch=1 n=f#5 v=0
784154 On ch=1 n=f#5 v=59
784154 On ch=1 n=d#5 v=59
785788 On ch=1 n=d#5 v=0
785788 On ch=1 n=e5 v=65
786286 On ch=1 n=e5 v=0
786286 On ch=1 n=d#5 v=65
786780 On ch=1 n=d#5 v=0
786780 On ch=1 n=e5 v=65
787310 On ch=1 n=e5 v=0
787310 On ch=1 n=d#5 v=63
788378 On ch=1 n=d#5 v=0
788378 On ch=1 n=e5 v=63
789442 On ch=1 n=e5 v=0
789442 On ch=1 n=d#5 v=63
789950 On ch=1 n=d#5 v=0
789950 On ch=1 n=f#5 v=0
789950 On ch=1 n=d#6 v=71
790472 On ch=1 n=d#6 v=0
790472 On ch=1 n=c#6 v=60
791522 On ch=1 n=c#6 v=0
791522 On ch=1 n=b5 v=65
792554 On ch=1 n=b5 v=0
792554 On ch=1 n=g#5 v=65
793300 On ch=1 n=g#5 v=0
793300 On ch=1 n=a#5 v=67
793536 On ch=1 n=a#5 v=0
793536 On ch=1 n=f#5 v=68
794544 On ch=1 n=e6 v=71
794544 On ch=1 n=a#5 v=71
794544 On ch=1 n=e5 v=71
795610 On ch=1 n=e5 v=0
795610 On ch=1 n=a#5 v=0
795610 On ch=1 n=f#5 v=0
795610 On ch=1 n=b5 v=65
795610 On ch=1 n=d#5 v=65
796134 On ch=1 n=d#5 v=0
796134 On ch=1 n=b5 v=0
796396 On ch=1 n=e6 v=0
796396 On ch=1 n=d#6 v=62
796712 On ch=1 n=d#6 v=0
796712 On ch=1 n=c#6 v=53
797814 On ch=1 n=c#6 v=0
797814 On ch=1 n=b5 v=64
798874 On ch=1 n=b5 v=0
798874 On ch=1 n=g#5 v=63
799624 On ch=1 n=g#5 v=0
799624 On ch=1 n=a#5 v=65
799872 On ch=1 n=a#5 v=0
799872 On ch=1 n=f#5 v=63
800902 On ch=1 n=e6 v=67
800902 On ch=1 n=a#5 v=67
800902 On ch=1 n=e5 v=67
801944 On ch=1 n=e5 v=0
801944 On ch=1 n=a#5 v=0
801944 On ch=1 n=e6 v=0
801944 On ch=1 n=f#5 v=0
801944 On ch=1 n=d#6 v=68
801944 On ch=1 n=b5 v=68
801944 On ch=1 n=d#5 v=68
802482 On ch=1 n=d#5 v=0
802482 On ch=1 n=b5 v=0
802482 On ch=1 n=d#6 v=0
802750 On ch=1 n=g#6 v=64
802750 On ch=1 n=d6 v=64
802968 On ch=1 n=d6 v=0
802968 On ch=1 n=g#6 v=0
802968 On ch=1 n=a6 v=70
802968 On ch=1 n=c#6 v=70
804014 On ch=1 n=c#6 v=0
804014 On ch=1 n=a6 v=0
804014 On ch=1 n=a#6 v=63
804014 On ch=1 n=c6 v=63
805046 On ch=1 n=c6 v=0
805046 On ch=1 n=a#6 v=0
805046 On ch=1 n=b6 v=65
805046 On ch=1 n=b5 v=65
805524 On ch=1 n=b5 v=0
805524 On ch=1 n=b6 v=0
805524 On ch=1 n=g#6 v=71
805524 On ch=1 n=d6 v=71
806032 On ch=1 n=d6 v=0
806032 On ch=1 n=g#6 v=0
806032 On ch=1 n=a6 v=67
806032 On ch=1 n=c#6 v=67
807082 On ch=1 n=c#6 v=0
807082 On ch=1 n=a6 v=0
807082 On ch=1 n=a#6 v=62
807082 On ch=1 n=c6 v=62
808140 On ch=1 n=c6 v=0
808140 On ch=1 n=a#6 v=0
808140 On ch=1 n=b6 v=60
808140 On ch=1 n=b5 v=60
808640 On ch=1 n=b5 v=0
808640 On ch=1 n=b6 v=0
808890 On ch=1 n=c#7 v=64
808890 On ch=1 n=e6 v=64
809134 On ch=1 n=e6 v=0
809134 On ch=1 n=c#7 v=0
809134 On ch=1 n=f#6 v=64
809134 On ch=1 n=d#6 v=64
810190 On ch=1 n=d#6 v=0
810190 On ch=1 n=f#6 v=0
810190 On ch=1 n=c#7 v=58
810190 On ch=1 n=f6 v=58
811252 On ch=1 n=f6 v=0
811252 On ch=1 n=c#7 v=0
811252 On ch=1 n=f#6 v=57
811738 On ch=1 n=f#6 v=0
811738 On ch=1 n=g#6 v=67
811738 On ch=1 n=f6 v=67
812236 On ch=1 n=f6 v=0
812236 On ch=1 n=g#6 v=0
812236 On ch=1 n=b6 v=64
812236 On ch=1 n=f#6 v=64
812484 On ch=1 n=b6 v=0
812484 On ch=1 n=a6 v=64
813262 On ch=1 n=a6 v=0
813262 On ch=1 n=f#6 v=0
813262 On ch=1 n=g#6 v=62
813262 On ch=1 n=f6 v=62
814332 On ch=1 n=f6 v=0
814332 On ch=1 n=g#6 v=0
814332 On ch=1 n=f#6 v=58
814332 On ch=1 n=a6 v=58
814336 Par ch=1 c=64 v=127
815330 On ch=1 n=c#6 v=63
815330 On ch=1 n=a5 v=63
816340 Par ch=1 c=64 v=0
816344 On ch=1 n=a5 v=0
816344 On ch=1 n=c#6 v=0
816344 On ch=1 n=a6 v=0
816344 On ch=1 n=f#6 v=0
816344 On ch=1 n=g#6 v=63
816344 On ch=1 n=e6 v=63
817412 On ch=1 n=e6 v=0
817412 On ch=1 n=g#6 v=0
817412 On ch=1 n=g#6 v=67
817412 On ch=1 n=e6 v=67
817416 Par ch=1 c=64 v=127
817932 On ch=1 n=e6 v=0
817932 On ch=1 n=g#6 v=0
817932 On ch=1 n=f#6 v=64
817932 On ch=1 n=d#6 v=64
818426 On ch=1 n=d#6 v=0
818426 On ch=1 n=f#6 v=0
818426 On ch=1 n=g#6 v=64
818426 On ch=1 n=d#6 v=64
818548 On ch=1 n=g#6 v=0
818548 On ch=1 n=f#6 v=64
818976 On ch=1 n=f#6 v=0
818976 On ch=1 n=d#6 v=0
818976 On ch=1 n=e6 v=60
818976 On ch=1 n=c#6 v=60
819490 On ch=1 n=c#6 v=0
819490 On ch=1 n=e6 v=0
819490 On ch=1 n=f#6 v=63
819490 On ch=1 n=b5 v=63
819982 On ch=1 n=b5 v=0
819982 On ch=1 n=f#6 v=0
819982 On ch=1 n=g#6 v=67
819982 On ch=1 n=a5 v=67
820470 On ch=1 n=a5 v=0
820470 On ch=1 n=g#6 v=0
820470 On ch=1 n=f#6 v=65
820470 On ch=1 n=a5 v=65
820944 On ch=1 n=f#6 v=0
820944 On ch=1 n=e6 v=70
821468 Par ch=1 c=64 v=0
821472 On ch=1 n=e6 v=0
821472 On ch=1 n=f#6 v=64
821602 On ch=1 n=f#6 v=0
821602 On ch=1 n=e6 v=64
821982 On ch=1 n=e6 v=0
821982 On ch=1 n=d#6 v=65
822498 On ch=1 n=d#6 v=0
822498 On ch=1 n=e6 v=64
823304 On ch=1 n=e6 v=0
823304 On ch=1 n=c#6 v=61
823554 On ch=1 n=c#6 v=0
823554 On ch=1 n=a5 v=0
823554 On ch=1 n=a#5 v=62
823554 On ch=1 n=g5 v=62
824322 On ch=1 n=a#5 v=0
824322 On ch=1 n=b5 v=63
824578 On ch=1 n=b5 v=0
824578 On ch=1 n=g5 v=0
824578 On ch=1 n=b5 v=63
824578 On ch=1 n=g#5 v=63
825604 On ch=1 n=g#5 v=0
825604 On ch=1 n=f#5 v=62
826660 On ch=1 n=f#5 v=0
826660 On ch=1 n=b5 v=0
826660 On ch=1 n=e6 v=64
826664 Par ch=1 c=64 v=127
827710 On ch=1 n=b5 v=63
827710 On ch=1 n=e5 v=63
828746 Par ch=1 c=64 v=0
828750 On ch=1 n=e5 v=0
828750 On ch=1 n=b5 v=0
828750 On ch=1 n=e6 v=0
828750 On ch=1 n=d#6 v=65
829806 On ch=1 n=d#6 v=0
829806 On ch=1 n=d#6 v=62
829810 Par ch=1 c=64 v=127
830314 On ch=1 n=d#6 v=0
830314 On ch=1 n=c#6 v=68
830816 On ch=1 n=c#6 v=0
830816 On ch=1 n=d#6 v=65
830816 On ch=1 n=a#5 v=65
830940 On ch=1 n=d#6 v=0
830940 On ch=1 n=c#6 v=65
831318 On ch=1 n=c#6 v=0
831318 On ch=1 n=a#5 v=0
831318 On ch=1 n=b5 v=65
831318 On ch=1 n=g#5 v=65
831826 On ch=1 n=g#5 v=0
831826 On ch=1 n=b5 v=0
831826 On ch=1 n=c#6 v=65
831826 On ch=1 n=f#5 v=65
832334 On ch=1 n=f#5 v=0
832334 On ch=1 n=c#6 v=0
832334 On ch=1 n=d#6 v=65
832334 On ch=1 n=e5 v=65
832828 Par ch=1 c=64 v=0
832832 On ch=1 n=e5 v=0
832832 On ch=1 n=d#6 v=0
832832 On ch=1 n=c#6 v=65
832832 On ch=1 n=e5 v=65
833322 On ch=1 n=c#6 v=0
833322 On ch=1 n=b5 v=67
833820 On ch=1 n=b5 v=0
833820 On ch=1 n=c#6 v=65
833944 On ch=1 n=c#6 v=0
833944 On ch=1 n=b5 v=65
834318 On ch=1 n=b5 v=0
834318 On ch=1 n=a#5 v=65
834828 On ch=1 n=a#5 v=0
834828 On ch=1 n=b5 v=63
835580 On ch=1 n=b5 v=0
835580 On ch=1 n=g#5 v=67
835828 On ch=1 n=g#5 v=0
835828 On ch=1 n=e5 v=0
835828 On ch=1 n=f5 v=67
835828 On ch=1 n=d5 v=67
836598 On ch=1 n=f5 v=0
836598 On ch=1 n=f#5 v=63
836844 On ch=1 n=f#5 v=0
836844 On ch=1 n=d5 v=0
836844 On ch=1 n=f#5 v=65
836844 On ch=1 n=d#5 v=65
838910 On ch=1 n=d#5 v=0
838910 On ch=1 n=f#5 v=0
838910 On ch=1 n=a5 v=60
839944 On ch=1 n=e5 v=65
839944 On ch=1 n=c#5 v=65
840988 On ch=1 n=c#5 v=0
840988 On ch=1 n=e5 v=0
840988 On ch=1 n=a5 v=0
840988 On ch=1 n=f#5 v=65
840988 On ch=1 n=d#5 v=65
842072 On ch=1 n=d#5 v=0
842072 On ch=1 n=f#5 v=0
842072 On ch=1 n=a5 v=62
842572 On ch=1 n=a5 v=0
842572 On ch=1 n=b5 v=62
843070 On ch=1 n=b5 v=0
843070 On ch=1 n=c#6 v=63
843070 On ch=1 n=e5 v=63
843070 On ch=1 n=c#5 v=63
844112 On ch=1 n=c#5 v=0
844112 On ch=1 n=e5 v=0
844112 On ch=1 n=c#6 v=0
844112 On ch=1 n=f#5 v=61
844112 On ch=1 n=d#5 v=61
845182 On ch=1 n=d#5 v=0
845182 On ch=1 n=f#5 v=0
845182 On ch=1 n=a5 v=57
846228 On ch=1 n=e5 v=62
846228 On ch=1 n=c#5 v=62
847284 On ch=1 n=c#5 v=0
847284 On ch=1 n=e5 v=0
847284 On ch=1 n=a5 v=0
847284 On ch=1 n=f#5 v=57
847284 On ch=1 n=d#5 v=57
848072 On ch=1 n=f#5 v=0
848072 On ch=1 n=g#5 v=57
848326 On ch=1 n=g#5 v=0
848326 On ch=1 n=d#5 v=0
848326 On ch=1 n=f#5 v=61
848838 On ch=1 n=f#5 v=0
848838 On ch=1 n=e5 v=67
849332 On ch=1 n=e5 v=0
851396 On ch=1 n=b4 v=67
851396 On ch=1 n=g#4 v=67
851400 Par ch=1 c=64 v=127
851946 On ch=1 n=g#4 v=0
851946 On ch=1 n=b4 v=0
852208 On ch=1 n=e5 v=64
852208 On ch=1 n=b4 v=64
852436 On ch=1 n=b4 v=0
852436 On ch=1 n=e5 v=0
852436 On ch=1 n=g#5 v=75
852436 On ch=1 n=e5 v=75
853466 On ch=1 n=e5 v=0
853466 On ch=1 n=g#5 v=0
853466 On ch=1 n=b5 v=74
853466 On ch=1 n=g#5 v=74
853718 On ch=1 n=b5 v=0
853718 On ch=1 n=c#6 v=74
853958 On ch=1 n=c#6 v=0
853958 On ch=1 n=b5 v=74
854458 On ch=1 n=b5 v=0
854458 On ch=1 n=g#5 v=0
854458 On ch=1 n=a#5 v=79
854458 On ch=1 n=g5 v=79
855198 On ch=1 n=g5 v=0
855198 On ch=1 n=a#5 v=0
855198 On ch=1 n=b5 v=77
855198 On ch=1 n=g#5 v=77
855430 On ch=1 n=g#5 v=0
855430 On ch=1 n=b5 v=0
855430 On ch=1 n=b5 v=79
855430 On ch=1 n=g#5 v=79
855670 On ch=1 n=g#5 v=0
855670 On ch=1 n=b5 v=0
855670 On ch=1 n=g#6 v=79
855670 On ch=1 n=b5 v=79
857064 Par ch=1 c=64 v=0
857068 On ch=1 n=b5 v=0
857068 On ch=1 n=g#6 v=0
857068 On ch=1 n=g6 v=64
857068 On ch=1 n=a#5 v=64
857584 On ch=1 n=a#5 v=0
857584 On ch=1 n=g6 v=0
857584 On ch=1 n=f6 v=63
857584 On ch=1 n=g#5 v=63
857588 Par ch=1 c=64 v=127
858330 On ch=1 n=g#5 v=0
858330 On ch=1 n=f6 v=0
858330 On ch=1 n=f#6 v=64
858330 On ch=1 n=a5 v=64
858586 On ch=1 n=a5 v=0
858586 On ch=1 n=f#6 v=0
858586 On ch=1 n=a6 v=61
858586 On ch=1 n=c#6 v=61
860090 Par ch=1 c=64 v=0
860094 On ch=1 n=c#6 v=0
860094 On ch=1 n=a6 v=0
860094 On ch=1 n=d#6 v=64
860094 On ch=1 n=f#5 v=64
860570 On ch=1 n=f#5 v=0
860570 On ch=1 n=d#6 v=0
860570 On ch=1 n=f#6 v=70
860570 On ch=1 n=a5 v=70
860574 Par ch=1 c=64 v=127
861276 On ch=1 n=a5 v=0
861276 On ch=1 n=f#6 v=0
861276 On ch=1 n=e6 v=72
861276 On ch=1 n=g#5 v=72
861574 On ch=1 n=g#5 v=0
861574 On ch=1 n=e6 v=0
861574 On ch=1 n=e6 v=78
861574 On ch=1 n=g#5 v=78
861840 On ch=1 n=g#5 v=0
861840 On ch=1 n=e6 v=0
861840 On ch=1 n=g#6 v=78
861840 On ch=1 n=b5 v=78
863270 Par ch=1 c=64 v=0
863274 On ch=1 n=b5 v=0
863274 On ch=1 n=g#6 v=0
863274 On ch=1 n=g6 v=61
863274 On ch=1 n=a#5 v=61
863826 On ch=1 n=a#5 v=0
863826 On ch=1 n=g6 v=0
863826 On ch=1 n=f6 v=59
863826 On ch=1 n=g#5 v=59
863830 Par ch=1 c=64 v=127
864346 On ch=1 n=g#5 v=0
864346 On ch=1 n=f6 v=0
864346 On ch=1 n=f#6 v=62
864346 On ch=1 n=a5 v=62
864868 On ch=1 n=a5 v=0
864868 On ch=1 n=f#6 v=0
864868 On ch=1 n=a6 v=61
864868 On ch=1 n=c#6 v=61
866452 Par ch=1 c=64 v=0
866456 On ch=1 n=c#6 v=0
866456 On ch=1 n=a6 v=0
866456 On ch=1 n=d#6 v=64
866456 On ch=1 n=f#5 v=64
866950 On ch=1 n=f#5 v=0
866950 On ch=1 n=d#6 v=0
866950 On ch=1 n=f#6 v=68
866950 On ch=1 n=a5 v=68
867434 On ch=1 n=a5 v=0
867434 On ch=1 n=f#6 v=0
867434 On ch=1 n=e6 v=70
867434 On ch=1 n=g#5 v=70
867926 On ch=1 n=g#5 v=0
867926 On ch=1 n=e6 v=0
867926 On ch=1 n=g#5 v=71
867926 On ch=1 n=g#6 v=71
867926 On ch=1 n=b5 v=71
875358 On ch=1 n=g#6 v=0
875358 On ch=1 n=g#5 v=0
875358 On ch=1 n=f#6 v=57
875358 On ch=1 n=f#5 v=57
876442 On ch=1 n=f#5 v=0
876442 On ch=1 n=f#6 v=0
876442 On ch=1 n=b5 v=0
876442 On ch=1 n=b5 v=56
876442 On ch=1 n=f#6 v=56
876442 On ch=1 n=f#5 v=56
876974 On ch=1 n=f#5 v=0
876974 On ch=1 n=f#6 v=0
876974 On ch=1 n=f6 v=60
876974 On ch=1 n=f5 v=60
877494 On ch=1 n=f5 v=0
877494 On ch=1 n=f6 v=0
877494 On ch=1 n=f6 v=53
877494 On ch=1 n=f5 v=53
878596 On ch=1 n=f5 v=0
878596 On ch=1 n=f6 v=0
878596 On ch=1 n=b5 v=0
882714 On ch=1 n=c4 v=100
883030 On ch=1 n=c4 v=0
883030 On ch=1 n=c#4 v=100
883210 On ch=1 n=c#4 v=0
883210 On ch=1 n=e4 v=101
883458 On ch=1 n=e4 v=0
883458 On ch=1 n=f4 v=101
883728 On ch=1 n=f4 v=0
883728 On ch=1 n=g4 v=101
883986 On ch=1 n=g4 v=0
883986 On ch=1 n=g#4 v=101
884224 On ch=1 n=g#4 v=0
884224 On ch=1 n=c5 v=101
884472 On ch=1 n=c5 v=0
884472 On ch=1 n=c#5 v=101
884708 On ch=1 n=c#5 v=0
884708 On ch=1 n=e5 v=101
884950 On ch=1 n=e5 v=0
884950 On ch=1 n=f5 v=101
885226 On ch=1 n=f5 v=0
885226 On ch=1 n=g5 v=101
885484 On ch=1 n=g5 v=0
885484 On ch=1 n=g#5 v=101
885718 On ch=1 n=g#5 v=0
885718 On ch=1 n=c6 v=101
885964 On ch=1 n=c6 v=0
885964 On ch=1 n=c#6 v=101
886218 On ch=1 n=c#6 v=0
886218 On ch=1 n=e6 v=104
886468 On ch=1 n=e6 v=0
886468 On ch=1 n=f6 v=104
886704 On ch=1 n=f6 v=0
886704 On ch=1 n=g6 v=107
886946 On ch=1 n=g6 v=0
886946 On ch=1 n=g#6 v=107
887198 On ch=1 n=g#6 v=0
887198 On ch=1 n=c7 v=113
887444 On ch=1 n=c7 v=0
887444 On ch=1 n=c#7 v=113
887704 On ch=1 n=c#7 v=0
887704 On ch=1 n=e7 v=115
887956 On ch=1 n=e7 v=0
887956 On ch=1 n=f7 v=115
888210 On ch=1 n=f7 v=0
888210 On ch=1 n=g7 v=116
888462 On ch=1 n=g7 v=0
888462 On ch=1 n=g#7 v=116
888716 On ch=1 n=g#7 v=0
888716 On ch=1 n=c#8 v=118
889840 On ch=1 n=c#8 v=0
896680 On ch=1 n=g#6 v=64
896680 On ch=1 n=b5 v=64
896680 On ch=1 n=g#5 v=64
903646 On ch=1 n=g#5 v=0
903646 On ch=1 n=g#6 v=0
903646 On ch=1 n=f#6 v=49
903646 On ch=1 n=f#5 v=49
905052 On ch=1 n=f#5 v=0
905052 On ch=1 n=f#6 v=0
905052 On ch=1 n=b5 v=0
905052 On ch=1 n=b5 v=58
905052 On ch=1 n=f#6 v=58
905052 On ch=1 n=f#5 v=58
906458 On ch=1 n=f#5 v=0
906458 On ch=1 n=f#6 v=0
906458 On ch=1 n=f6 v=54
906458 On ch=1 n=f5 v=54
907882 On ch=1 n=f5 v=0
907882 On ch=1 n=f6 v=0
907882 On ch=1 n=b5 v=0
913314 On ch=1 n=c4 v=100
913586 On ch=1 n=c4 v=0
913586 On ch=1 n=c#4 v=100
913872 On ch=1 n=c#4 v=0
913872 On ch=1 n=e4 v=100
914150 On ch=1 n=e4 v=0
914150 On ch=1 n=f4 v=100
914410 On ch=1 n=f4 v=0
914410 On ch=1 n=g4 v=98
914678 On ch=1 n=g4 v=0
914678 On ch=1 n=g#4 v=98
914940 On ch=1 n=g#4 v=0
914940 On ch=1 n=c5 v=101
915204 On ch=1 n=c5 v=0
915204 On ch=1 n=c#5 v=101
915432 On ch=1 n=c#5 v=0
915432 On ch=1 n=d5 v=103
915678 On ch=1 n=d5 v=0
915678 On ch=1 n=f5 v=103
915924 On ch=1 n=f5 v=0
915924 On ch=1 n=g5 v=111
916170 On ch=1 n=g5 v=0
916170 On ch=1 n=g#5 v=111
916422 On ch=1 n=g#5 v=0
916422 On ch=1 n=c6 v=111
916670 On ch=1 n=c6 v=0
916670 On ch=1 n=c#6 v=111
916904 On ch=1 n=c#6 v=0
916904 On ch=1 n=e6 v=111
917144 On ch=1 n=e6 v=0
917144 On ch=1 n=f6 v=111
917394 On ch=1 n=f6 v=0
917394 On ch=1 n=g6 v=111
917638 On ch=1 n=g6 v=0
917638 On ch=1 n=g#6 v=111
917862 On ch=1 n=g#6 v=0
917862 On ch=1 n=c7 v=111
918098 On ch=1 n=c7 v=0
918098 On ch=1 n=c#7 v=111
918348 On ch=1 n=c#7 v=0
918348 On ch=1 n=e7 v=111
918590 On ch=1 n=e7 v=0
918590 On ch=1 n=f7 v=111
918816 On ch=1 n=f7 v=0
918816 On ch=1 n=g7 v=111
918974 On ch=1 n=g7 v=0
918974 On ch=1 n=g#7 v=111
919130 On ch=1 n=g#7 v=0
919130 On ch=1 n=c#8 v=111
919312 On ch=1 n=c#8 v=0
919312 On ch=1 n=f8 v=115
920924 On ch=1 n=f8 v=0
930192 On ch=1 n=d4 v=65
931016 On ch=1 n=d4 v=0
931016 On ch=1 n=d4 v=67
931392 On ch=1 n=d4 v=0
931392 On ch=1 n=c#4 v=65
931728 On ch=1 n=c#4 v=0
931728 On ch=1 n=c#4 v=67
932064 On ch=1 n=c#4 v=0
932064 On ch=1 n=f#4 v=66
932064 On ch=1 n=f#3 v=66
932398 On ch=1 n=f#3 v=0
932398 On ch=1 n=f#4 v=0
932398 On ch=1 n=f4 v=66
932398 On ch=1 n=f3 v=66
933904 On ch=1 n=f3 v=0
933904 On ch=1 n=f4 v=0
935116 On ch=1 n=d4 v=65
935504 On ch=1 n=d4 v=0
935504 On ch=1 n=d4 v=62
935848 On ch=1 n=d4 v=0
935848 On ch=1 n=c#4 v=65
936168 On ch=1 n=c#4 v=0
936168 On ch=1 n=c#4 v=67
936500 On ch=1 n=c#4 v=0
936500 On ch=1 n=a4 v=65
936500 On ch=1 n=a3 v=65
936864 On ch=1 n=a3 v=0
936864 On ch=1 n=a4 v=0
936864 On ch=1 n=g#4 v=66
936864 On ch=1 n=g#3 v=66
938400 On ch=1 n=g#3 v=0
938400 On ch=1 n=g#4 v=0
939564 On ch=1 n=d5 v=65
939564 On ch=1 n=d4 v=65
939922 On ch=1 n=d4 v=0
939922 On ch=1 n=d5 v=0
939922 On ch=1 n=d5 v=66
939922 On ch=1 n=d4 v=66
940266 On ch=1 n=d4 v=0
940266 On ch=1 n=d5 v=0
940266 On ch=1 n=c#5 v=69
940266 On ch=1 n=c#4 v=69
940586 On ch=1 n=c#4 v=0
940586 On ch=1 n=c#5 v=0
940586 On ch=1 n=c#5 v=70
940586 On ch=1 n=c#4 v=70
940894 On ch=1 n=c#4 v=0
940894 On ch=1 n=c#5 v=0
940894 On ch=1 n=f#5 v=72
940894 On ch=1 n=f#4 v=72
941224 On ch=1 n=f#4 v=0
941224 On ch=1 n=f#5 v=0
941224 On ch=1 n=f#5 v=73
941224 On ch=1 n=f#4 v=73
941556 On ch=1 n=f#4 v=0
941556 On ch=1 n=f#5 v=0
941556 On ch=1 n=f5 v=75
941556 On ch=1 n=f4 v=75
941874 On ch=1 n=f4 v=0
941874 On ch=1 n=f5 v=0
941874 On ch=1 n=f5 v=76
941874 On ch=1 n=f4 v=76
942204 On ch=1 n=f4 v=0
942204 On ch=1 n=f5 v=0
942204 On ch=1 n=d5 v=82
942204 On ch=1 n=d4 v=82
942554 On ch=1 n=d4 v=0
942554 On ch=1 n=d5 v=0
942554 On ch=1 n=d5 v=85
942554 On ch=1 n=d4 v=85
942870 On ch=1 n=d4 v=0
942870 On ch=1 n=d5 v=0
942870 On ch=1 n=c#5 v=87
942870 On ch=1 n=c#4 v=87
943184 On ch=1 n=c#4 v=0
943184 On ch=1 n=c#5 v=0
943184 On ch=1 n=c#5 v=83
943184 On ch=1 n=c#4 v=83
943480 On ch=1 n=c#4 v=0
943480 On ch=1 n=c#5 v=0
943480 On ch=1 n=a5 v=82
943480 On ch=1 n=a4 v=82
943776 On ch=1 n=a4 v=0
943776 On ch=1 n=a5 v=0
943776 On ch=1 n=a5 v=82
943776 On ch=1 n=a4 v=82
944070 On ch=1 n=a4 v=0
944070 On ch=1 n=a5 v=0
944070 On ch=1 n=g#5 v=80
944070 On ch=1 n=g#4 v=80
944370 On ch=1 n=g#4 v=0
944370 On ch=1 n=g#5 v=0
944370 On ch=1 n=g#5 v=80
944370 On ch=1 n=g#4 v=80
944664 On ch=1 n=g#4 v=0
944664 On ch=1 n=g#5 v=0
944664 On ch=1 n=d6 v=76
944664 On ch=1 n=d5 v=76
944962 On ch=1 n=d5 v=0
944962 On ch=1 n=d6 v=0
944962 On ch=1 n=d6 v=76
944962 On ch=1 n=d5 v=76
945258 On ch=1 n=d5 v=0
945258 On ch=1 n=d6 v=0
945258 On ch=1 n=c#6 v=75
945258 On ch=1 n=c#5 v=75
945538 On ch=1 n=c#5 v=0
945538 On ch=1 n=c#6 v=0
945538 On ch=1 n=c#6 v=73
945538 On ch=1 n=c#5 v=73
945838 On ch=1 n=c#5 v=0
945838 On ch=1 n=c#6 v=0
945838 On ch=1 n=f#6 v=75
945838 On ch=1 n=f#5 v=75
946136 On ch=1 n=f#5 v=0
946136 On ch=1 n=f#6 v=0
946136 On ch=1 n=f#6 v=75
946136 On ch=1 n=f#5 v=75
946428 On ch=1 n=f#5 v=0
946428 On ch=1 n=f#6 v=0
946428 On ch=1 n=f6 v=76
946428 On ch=1 n=f5 v=76
946712 On ch=1 n=f5 v=0
946712 On ch=1 n=f6 v=0
946712 On ch=1 n=f6 v=76
946712 On ch=1 n=f5 v=76
946990 On ch=1 n=f5 v=0
946990 On ch=1 n=f6 v=0
946990 On ch=1 n=a6 v=77
946990 On ch=1 n=a5 v=77
947294 On ch=1 n=a5 v=0
947294 On ch=1 n=a6 v=0
947294 On ch=1 n=a6 v=76
947294 On ch=1 n=a5 v=76
947592 On ch=1 n=a5 v=0
947592 On ch=1 n=a6 v=0
947592 On ch=1 n=g#6 v=75
947592 On ch=1 n=g#5 v=75
947866 On ch=1 n=g#5 v=0
947866 On ch=1 n=g#6 v=0
947866 On ch=1 n=g#6 v=74
947866 On ch=1 n=g#5 v=74
948152 On ch=1 n=g#5 v=0
948152 On ch=1 n=g#6 v=0
948152 On ch=1 n=d7 v=75
948152 On ch=1 n=d6 v=75
948442 On ch=1 n=d6 v=0
948442 On ch=1 n=d7 v=0
948442 On ch=1 n=d7 v=77
948442 On ch=1 n=d6 v=77
948736 On ch=1 n=d6 v=0
948736 On ch=1 n=d7 v=0
948736 On ch=1 n=c#7 v=82
948736 On ch=1 n=c#6 v=82
949038 On ch=1 n=c#6 v=0
949038 On ch=1 n=c#7 v=0
949038 On ch=1 n=c#7 v=83
949038 On ch=1 n=c#6 v=83
949328 On ch=1 n=c#6 v=0
949328 On ch=1 n=c#7 v=0
949328 On ch=1 n=a6 v=88
949328 On ch=1 n=a5 v=88
949630 On ch=1 n=a5 v=0
949630 On ch=1 n=a6 v=0
949630 On ch=1 n=a6 v=92
949630 On ch=1 n=a5 v=92
949924 On ch=1 n=a5 v=0
949924 On ch=1 n=a6 v=0
949924 On ch=1 n=g#6 v=93
949924 On ch=1 n=g#5 v=93
950222 On ch=1 n=g#5 v=0
950222 On ch=1 n=g#6 v=0
950222 On ch=1 n=g#6 v=95
950222 On ch=1 n=g#5 v=95
950520 On ch=1 n=g#5 v=0
950520 On ch=1 n=g#6 v=0
950520 On ch=1 n=d7 v=97
950520 On ch=1 n=d6 v=97
950814 On ch=1 n=d6 v=0
950814 On ch=1 n=d7 v=0
950814 On ch=1 n=d7 v=100
950814 On ch=1 n=d6 v=100
951114 On ch=1 n=d6 v=0
951114 On ch=1 n=d7 v=0
951114 On ch=1 n=c#7 v=100
951114 On ch=1 n=c#6 v=100
951404 On ch=1 n=c#6 v=0
951404 On ch=1 n=c#7 v=0
951404 On ch=1 n=c#7 v=102
951404 On ch=1 n=c#6 v=102
951700 On ch=1 n=c#6 v=0
951700 On ch=1 n=c#7 v=0
951700 On ch=1 n=f#7 v=106
951700 On ch=1 n=f#6 v=106
951994 On ch=1 n=f#6 v=0
951994 On ch=1 n=f#7 v=0
951994 On ch=1 n=f#7 v=110
951994 On ch=1 n=f#6 v=110
952286 On ch=1 n=f#6 v=0
952286 On ch=1 n=f#7 v=0
952286 On ch=1 n=f7 v=114
952286 On ch=1 n=f6 v=114
952580 On ch=1 n=f6 v=0
952580 On ch=1 n=f7 v=0
952580 On ch=1 n=f7 v=115
952580 On ch=1 n=f6 v=115
952876 On ch=1 n=f6 v=0
952876 On ch=1 n=f7 v=0
953024 On ch=1 n=c#8 v=125
953024 On ch=1 n=c#7 v=125
953154 On ch=1 n=c#7 v=0
953154 On ch=1 n=c#8 v=0
953154 On ch=1 n=c#8 v=125
953154 On ch=1 n=c#7 v=125
954542 On ch=1 n=c#7 v=0
954542 On ch=1 n=c#8 v=0
954542 On ch=1 n=f#6 v=110
954542 On ch=1 n=f#5 v=110
954548 Par ch=1 c=64 v=127
955232 On ch=1 n=c#6 v=101
955232 On ch=1 n=a5 v=101
955532 On ch=1 n=a5 v=0
955532 On ch=1 n=c#6 v=0
955532 On ch=1 n=c#6 v=101
955532 On ch=1 n=a5 v=101
955808 Par ch=1 c=64 v=0
955812 On ch=1 n=a5 v=0
955812 On ch=1 n=c#6 v=0
955812 On ch=1 n=f#5 v=0
955812 On ch=1 n=c#6 v=100
955812 On ch=1 n=f#5 v=100
956508 On ch=1 n=f#5 v=0
956508 On ch=1 n=c#6 v=0
956508 On ch=1 n=f#6 v=0
956508 On ch=1 n=e6 v=114
956508 On ch=1 n=b5 v=114
956508 On ch=1 n=f#5 v=114
956508 On ch=1 n=e5 v=114
956802 On ch=1 n=e5 v=0
956802 On ch=1 n=f#5 v=0
956802 On ch=1 n=b5 v=0
956802 On ch=1 n=e6 v=0
956802 On ch=1 n=d6 v=111
956802 On ch=1 n=d5 v=111
957092 On ch=1 n=d5 v=0
957092 On ch=1 n=d6 v=0
957092 On ch=1 n=c#6 v=109
957092 On ch=1 n=g#5 v=109
957092 On ch=1 n=c#5 v=109
957096 Par ch=1 c=64 v=127
957778 On ch=1 n=c#5 v=0
957778 On ch=1 n=g#5 v=0
957778 On ch=1 n=c#6 v=0
957778 On ch=1 n=d#6 v=112
957778 On ch=1 n=d#5 v=112
958082 On ch=1 n=d#5 v=0
958082 On ch=1 n=d#6 v=0
958082 On ch=1 n=f6 v=110
958082 On ch=1 n=f5 v=110
958336 Par ch=1 c=64 v=0
958340 On ch=1 n=f5 v=0
958340 On ch=1 n=f6 v=0
958340 On ch=1 n=f#6 v=112
958340 On ch=1 n=f#5 v=112
958344 Par ch=1 c=64 v=127
958976 On ch=1 n=c#6 v=104
958976 On ch=1 n=a5 v=104
959304 On ch=1 n=a5 v=0
959304 On ch=1 n=c#6 v=0
959304 On ch=1 n=c#6 v=101
959304 On ch=1 n=a5 v=101
959572 Par ch=1 c=64 v=0
959576 On ch=1 n=a5 v=0
959576 On ch=1 n=c#6 v=0
959576 On ch=1 n=c#6 v=101
959576 On ch=1 n=a5 v=101
960218 On ch=1 n=a5 v=0
960218 On ch=1 n=c#6 v=0
960218 On ch=1 n=f#5 v=0
960218 On ch=1 n=f#6 v=0
960218 On ch=1 n=f6 v=104
960218 On ch=1 n=b5 v=104
960218 On ch=1 n=f5 v=104
960508 On ch=1 n=f5 v=0
960508 On ch=1 n=b5 v=0
960508 On ch=1 n=f6 v=0
960508 On ch=1 n=f#6 v=101
960508 On ch=1 n=f#5 v=101
960776 On ch=1 n=f#5 v=0
960776 On ch=1 n=f#6 v=0
960776 On ch=1 n=g#6 v=104
960776 On ch=1 n=d6 v=104
960776 On ch=1 n=b5 v=104
960776 On ch=1 n=g#5 v=104
960780 Par ch=1 c=64 v=127
961444 On ch=1 n=g#5 v=0
961444 On ch=1 n=b5 v=0
961444 On ch=1 n=d6 v=0
961444 On ch=1 n=g#6 v=0
961444 On ch=1 n=f#6 v=109
961444 On ch=1 n=f#5 v=109
961734 On ch=1 n=f#5 v=0
961734 On ch=1 n=f#6 v=0
961734 On ch=1 n=g#6 v=109
961734 On ch=1 n=g#5 v=109
961996 Par ch=1 c=64 v=0
962000 On ch=1 n=g#5 v=0
962000 On ch=1 n=g#6 v=0
962000 On ch=1 n=a6 v=112
962000 On ch=1 n=a5 v=112
962004 Par ch=1 c=64 v=127
962710 On ch=1 n=f#6 v=104
962710 On ch=1 n=c#6 v=104
963024 On ch=1 n=c#6 v=0
963024 On ch=1 n=f#6 v=0
963024 On ch=1 n=f#6 v=102
963024 On ch=1 n=c#6 v=102
963310 Par ch=1 c=64 v=0
963314 On ch=1 n=c#6 v=0
963314 On ch=1 n=f#6 v=0
963314 On ch=1 n=f#6 v=101
963314 On ch=1 n=c#6 v=101
963948 On ch=1 n=c#6 v=0
963948 On ch=1 n=f#6 v=0
963948 On ch=1 n=a5 v=0
963948 On ch=1 n=a6 v=0
963948 On ch=1 n=g#6 v=107
963948 On ch=1 n=d6 v=107
963948 On ch=1 n=b5 v=107
963948 On ch=1 n=g#5 v=107
964232 On ch=1 n=g#5 v=0
964232 On ch=1 n=b5 v=0
964232 On ch=1 n=d6 v=0
964232 On ch=1 n=g#6 v=0
964232 On ch=1 n=f#6 v=109
964232 On ch=1 n=f#5 v=109
964526 On ch=1 n=f#5 v=0
964526 On ch=1 n=f#6 v=0
964526 On ch=1 n=f6 v=111
964526 On ch=1 n=d6 v=111
964526 On ch=1 n=b5 v=111
964526 On ch=1 n=f5 v=111
964530 Par ch=1 c=64 v=127
965204 On ch=1 n=f5 v=0
965204 On ch=1 n=b5 v=0
965204 On ch=1 n=d6 v=0
965204 On ch=1 n=f6 v=0
965204 On ch=1 n=f#6 v=112
965204 On ch=1 n=f#5 v=112
965508 On ch=1 n=f#5 v=0
965508 On ch=1 n=f#6 v=0
965508 On ch=1 n=g#6 v=113
965508 On ch=1 n=g#5 v=113
965766 Par ch=1 c=64 v=0
965770 On ch=1 n=g#5 v=0
965770 On ch=1 n=g#6 v=0
965770 On ch=1 n=a6 v=112
965770 On ch=1 n=a5 v=112
965774 Par ch=1 c=64 v=127
966452 On ch=1 n=f#6 v=106
966452 On ch=1 n=c#6 v=106
966742 On ch=1 n=c#6 v=0
966742 On ch=1 n=f#6 v=0
966742 On ch=1 n=f#6 v=102
966742 On ch=1 n=c#6 v=102
967010 Par ch=1 c=64 v=0
967014 On ch=1 n=c#6 v=0
967014 On ch=1 n=f#6 v=0
967014 On ch=1 n=f#6 v=107
967014 On ch=1 n=c#6 v=107
967664 On ch=1 n=c#6 v=0
967664 On ch=1 n=f#6 v=0
967664 On ch=1 n=a5 v=0
967664 On ch=1 n=a6 v=0
967664 On ch=1 n=g#6 v=113
967664 On ch=1 n=d6 v=113
967664 On ch=1 n=b5 v=113
967664 On ch=1 n=g#5 v=113
967972 On ch=1 n=g#5 v=0
967972 On ch=1 n=b5 v=0
967972 On ch=1 n=d6 v=0
967972 On ch=1 n=g#6 v=0
967972 On ch=1 n=a6 v=116
967972 On ch=1 n=a5 v=116
968238 On ch=1 n=a5 v=0
968238 On ch=1 n=a6 v=0
968238 On ch=1 n=b6 v=118
968238 On ch=1 n=g#6 v=118
968238 On ch=1 n=d6 v=118
968238 On ch=1 n=b5 v=118
968242 Par ch=1 c=64 v=127
968920 On ch=1 n=b5 v=0
968920 On ch=1 n=d6 v=0
968920 On ch=1 n=g#6 v=0
968920 On ch=1 n=b6 v=0
968920 On ch=1 n=a6 v=120
968920 On ch=1 n=a5 v=120
969240 On ch=1 n=a5 v=0
969240 On ch=1 n=a6 v=0
969240 On ch=1 n=b6 v=122
969240 On ch=1 n=b5 v=122
969518 Par ch=1 c=64 v=0
969522 On ch=1 n=b5 v=0
969522 On ch=1 n=b6 v=0
969522 On ch=1 n=c#7 v=118
969522 On ch=1 n=c#6 v=118
969528 Par ch=1 c=64 v=127
970186 On ch=1 n=c#6 v=0
970186 On ch=1 n=c#7 v=0
970186 On ch=1 n=a6 v=114
970186 On ch=1 n=f#6 v=114
970492 On ch=1 n=f#6 v=0
970492 On ch=1 n=a6 v=0
970492 On ch=1 n=c#7 v=114
970492 On ch=1 n=c#6 v=114
970754 Par ch=1 c=64 v=0
970758 On ch=1 n=c#6 v=0
970758 On ch=1 n=c#7 v=0
970758 On ch=1 n=d7 v=109
970758 On ch=1 n=d6 v=109
970762 Par ch=1 c=64 v=127
971488 On ch=1 n=a6 v=104
971488 On ch=1 n=f#6 v=104
971792 On ch=1 n=f#6 v=0
971792 On ch=1 n=a6 v=0
971792 On ch=1 n=a6 v=95
971792 On ch=1 n=f#6 v=95
972092 On ch=1 n=f#6 v=0
972092 On ch=1 n=a6 v=0
972092 On ch=1 n=a6 v=98
972092 On ch=1 n=f#6 v=98
972724 Par ch=1 c=64 v=0
972728 On ch=1 n=f#6 v=0
972728 On ch=1 n=a6 v=0
972728 On ch=1 n=d6 v=0
972728 On ch=1 n=d7 v=0
972728 On ch=1 n=c#7 v=113
972728 On ch=1 n=c#6 v=113
973032 On ch=1 n=c#6 v=0
973032 On ch=1 n=c#7 v=0
973032 On ch=1 n=c7 v=112
973032 On ch=1 n=c6 v=112
973312 On ch=1 n=c6 v=0
973312 On ch=1 n=c7 v=0
973312 On ch=1 n=c#7 v=110
973312 On ch=1 n=c#6 v=110
973316 Par ch=1 c=64 v=127
973600 On ch=1 n=c#6 v=0
973600 On ch=1 n=c#7 v=0
973600 On ch=1 n=a6 v=108
973600 On ch=1 n=f#6 v=108
973902 On ch=1 n=f#6 v=0
973902 On ch=1 n=a6 v=0
973902 On ch=1 n=c#7 v=109
973902 On ch=1 n=c#6 v=109
974202 On ch=1 n=c#6 v=0
974202 On ch=1 n=c#7 v=0
974202 On ch=1 n=f#7 v=111
974202 On ch=1 n=f#6 v=111
974488 Par ch=1 c=64 v=0
974492 On ch=1 n=f#6 v=0
974492 On ch=1 n=f#7 v=0
974492 On ch=1 n=a7 v=113
974492 On ch=1 n=a6 v=113
974496 Par ch=1 c=64 v=127
975234 On ch=1 n=d#7 v=112
975234 On ch=1 n=c#7 v=112
975572 On ch=1 n=c#7 v=0
975572 On ch=1 n=d#7 v=0
975572 On ch=1 n=d#7 v=104
975572 On ch=1 n=c#7 v=104
975878 On ch=1 n=c#7 v=0
975878 On ch=1 n=d#7 v=0
975878 On ch=1 n=d#7 v=100
975878 On ch=1 n=c#7 v=100
976510 Par ch=1 c=64 v=0
976514 On ch=1 n=c#7 v=0
976514 On ch=1 n=d#7 v=0
976514 On ch=1 n=a6 v=0
976514 On ch=1 n=a7 v=0
976514 On ch=1 n=g#7 v=101
976514 On ch=1 n=g#6 v=101
976824 On ch=1 n=g#6 v=0
976824 On ch=1 n=g#7 v=0
976824 On ch=1 n=g7 v=105
976824 On ch=1 n=g6 v=105
977130 On ch=1 n=g6 v=0
977130 On ch=1 n=g7 v=0
977130 On ch=1 n=g#7 v=107
977130 On ch=1 n=e7 v=107
977130 On ch=1 n=c#7 v=107
977130 On ch=1 n=g#6 v=107
977136 Par ch=1 c=64 v=127
977456 On ch=1 n=g#6 v=0
977456 On ch=1 n=c#7 v=0
977456 On ch=1 n=e7 v=0
977456 On ch=1 n=g#7 v=0
977456 On ch=1 n=g7 v=110
977456 On ch=1 n=g6 v=110
977766 On ch=1 n=g6 v=0
977766 On ch=1 n=g7 v=0
977766 On ch=1 n=f#7 v=104
977766 On ch=1 n=f#6 v=104
978076 On ch=1 n=f#6 v=0
978076 On ch=1 n=f#7 v=0
978076 On ch=1 n=f7 v=107
978076 On ch=1 n=f6 v=107
978402 On ch=1 n=f6 v=0
978402 On ch=1 n=f7 v=0
978402 On ch=1 n=e7 v=110
978402 On ch=1 n=e6 v=110
978716 On ch=1 n=e6 v=0
978716 On ch=1 n=e7 v=0
978716 On ch=1 n=d#7 v=106
978716 On ch=1 n=d#6 v=106
979022 On ch=1 n=d#6 v=0
979022 On ch=1 n=d#7 v=0
979022 On ch=1 n=d7 v=107
979022 On ch=1 n=d6 v=107
979334 On ch=1 n=d6 v=0
979334 On ch=1 n=d7 v=0
979334 On ch=1 n=c#7 v=106
979334 On ch=1 n=c#6 v=106
979624 Par ch=1 c=64 v=0
979628 On ch=1 n=c#6 v=0
979628 On ch=1 n=c#7 v=0
979628 On ch=1 n=c7 v=102
979628 On ch=1 n=c6 v=102
979634 Par ch=1 c=64 v=127
979940 On ch=1 n=c6 v=0
979940 On ch=1 n=c7 v=0
979940 On ch=1 n=b6 v=100
979940 On ch=1 n=b5 v=100
980246 On ch=1 n=b5 v=0
980246 On ch=1 n=b6 v=0
980246 On ch=1 n=a6 v=100
980246 On ch=1 n=a5 v=100
980560 On ch=1 n=a5 v=0
980560 On ch=1 n=a6 v=0
980560 On ch=1 n=g#6 v=103
980560 On ch=1 n=g#5 v=103
980878 Par ch=1 c=64 v=0
980882 On ch=1 n=g#5 v=0
980882 On ch=1 n=g#6 v=0
980882 On ch=1 n=c#7 v=103
980882 On ch=1 n=c#6 v=103
981516 On ch=1 n=c#6 v=0
981516 On ch=1 n=c#7 v=0
981516 On ch=1 n=c#6 v=101
981516 On ch=1 n=b5 v=101
981516 On ch=1 n=f5 v=101
981516 On ch=1 n=c#5 v=101
982752 On ch=1 n=c#5 v=0
982752 On ch=1 n=f5 v=0
982752 On ch=1 n=b5 v=0
982752 On ch=1 n=c#6 v=0
982752 On ch=1 n=c#6 v=96
983050 On ch=1 n=c#6 v=0
983050 On ch=1 n=c#6 v=94
983346 On ch=1 n=c#6 v=0
983346 On ch=1 n=c#6 v=96
983968 On ch=1 n=c#6 v=0
983968 On ch=1 n=c#6 v=96
984588 On ch=1 n=c#6 v=0
984588 On ch=1 n=c#6 v=94
985236 On ch=1 n=c#6 v=0
985854 On ch=1 n=a5 v=93
987138 On ch=1 n=a5 v=0
987138 On ch=1 n=a5 v=88
988066 On ch=1 n=a5 v=0
988066 On ch=1 n=g#5 v=88
988372 On ch=1 n=g#5 v=0
988372 On ch=1 n=f#5 v=85
989606 On ch=1 n=f#5 v=0
989606 On ch=1 n=c#5 v=83
992198 On ch=1 n=c#5 v=0
992198 On ch=1 n=c#6 v=86
993484 On ch=1 n=c#6 v=0
993484 On ch=1 n=e6 v=86
994772 On ch=1 n=e6 v=0
994772 On ch=1 n=e6 v=86
995748 On ch=1 n=e6 v=0
995748 On ch=1 n=d6 v=86
996082 On ch=1 n=d6 v=0
996082 On ch=1 n=c#6 v=83
997370 On ch=1 n=c#6 v=0
997370 On ch=1 n=b5 v=94
998644 On ch=1 n=b5 v=0
998644 On ch=1 n=a5 v=99
999958 On ch=1 n=a5 v=0
999958 On ch=1 n=f6 v=117
999958 On ch=1 n=c#6 v=117
999958 On ch=1 n=b5 v=117
999958 On ch=1 n=f5 v=117
999964 Par ch=1 c=64 v=127
1000598 On ch=1 n=f5 v=0
1000598 On ch=1 n=b5 v=0
1000598 On ch=1 n=c#6 v=0
1000598 On ch=1 n=f6 v=0
1000598 On ch=1 n=f#6 v=106
1000598 On ch=1 n=f#5 v=106
1000892 On ch=1 n=f#5 v=0
1000892 On ch=1 n=f#6 v=0
1000892 On ch=1 n=g#6 v=105
1000892 On ch=1 n=g#5 v=105
1001206 Par ch=1 c=64 v=0
1001210 On ch=1 n=g#5 v=0
1001210 On ch=1 n=g#6 v=0
1001210 On ch=1 n=a6 v=113
1001210 On ch=1 n=c#6 v=113
1001210 On ch=1 n=a5 v=113
1001216 Par ch=1 c=64 v=127
1001848 On ch=1 n=a5 v=0
1001848 On ch=1 n=c#6 v=0
1001848 On ch=1 n=a6 v=0
1001848 On ch=1 n=b6 v=104
1001848 On ch=1 n=b5 v=104
1002140 On ch=1 n=b5 v=0
1002140 On ch=1 n=b6 v=0
1002140 On ch=1 n=a6 v=107
1002140 On ch=1 n=a5 v=107
1002452 Par ch=1 c=64 v=0
1002456 On ch=1 n=a5 v=0
1002456 On ch=1 n=a6 v=0
1002456 On ch=1 n=g#6 v=112
1002456 On ch=1 n=d6 v=112
1002456 On ch=1 n=g#5 v=112
1002462 Par ch=1 c=64 v=127
1003108 On ch=1 n=g#5 v=0
1003108 On ch=1 n=d6 v=0
1003108 On ch=1 n=g#6 v=0
1003108 On ch=1 n=f#6 v=108
1003108 On ch=1 n=f#5 v=108
1003422 On ch=1 n=f#5 v=0
1003422 On ch=1 n=f#6 v=0
1003422 On ch=1 n=g#6 v=103
1003422 On ch=1 n=g#5 v=103
1003732 Par ch=1 c=64 v=0
1003736 On ch=1 n=g#5 v=0
1003736 On ch=1 n=g#6 v=0
1003736 On ch=1 n=f6 v=101
1003736 On ch=1 n=c#6 v=101
1003736 On ch=1 n=f5 v=101
1003742 Par ch=1 c=64 v=127
1004380 On ch=1 n=f5 v=0
1004380 On ch=1 n=c#6 v=0
1004380 On ch=1 n=f6 v=0
1004380 On ch=1 n=f#6 v=102
1004380 On ch=1 n=f#5 v=102
1004700 On ch=1 n=f#5 v=0
1004700 On ch=1 n=f#6 v=0
1004700 On ch=1 n=g#6 v=102
1004700 On ch=1 n=g#5 v=102
1005024 Par ch=1 c=64 v=0
1005028 On ch=1 n=g#5 v=0
1005028 On ch=1 n=g#6 v=0
1005028 On ch=1 n=a6 v=106
1005028 On ch=1 n=c#6 v=106
1005028 On ch=1 n=a5 v=106
1005034 Par ch=1 c=64 v=127
1005632 On ch=1 n=a5 v=0
1005632 On ch=1 n=c#6 v=0
1005632 On ch=1 n=a6 v=0
1005632 On ch=1 n=b6 v=99
1005632 On ch=1 n=b5 v=99
1005932 On ch=1 n=b5 v=0
1005932 On ch=1 n=b6 v=0
1005932 On ch=1 n=c#7 v=97
1005932 On ch=1 n=c#6 v=97
1006234 Par ch=1 c=64 v=0
1006238 On ch=1 n=c#6 v=0
1006238 On ch=1 n=c#7 v=0
1006238 On ch=1 n=d7 v=105
1006238 On ch=1 n=f#6 v=105
1006238 On ch=1 n=d6 v=105
1006244 Par ch=1 c=64 v=127
1006872 On ch=1 n=d6 v=0
1006872 On ch=1 n=f#6 v=0
1006872 On ch=1 n=d7 v=0
1006872 On ch=1 n=f#6 v=105
1006872 On ch=1 n=f#5 v=105
1007180 On ch=1 n=f#5 v=0
1007180 On ch=1 n=f#6 v=0
1007180 On ch=1 n=g#6 v=105
1007180 On ch=1 n=g#5 v=105
1007488 Par ch=1 c=64 v=0
1007492 On ch=1 n=g#5 v=0
1007492 On ch=1 n=g#6 v=0
1007492 On ch=1 n=a6 v=104
1007492 On ch=1 n=d6 v=104
1007492 On ch=1 n=a5 v=104
1008126 On ch=1 n=a5 v=0
1008126 On ch=1 n=d6 v=0
1008126 On ch=1 n=a6 v=0
1008126 On ch=1 n=g#6 v=104
1008126 On ch=1 n=g#5 v=104
1008434 On ch=1 n=g#5 v=0
1008434 On ch=1 n=g#6 v=0
1008434 On ch=1 n=f#6 v=105
1008434 On ch=1 n=f#5 v=105
1008720 On ch=1 n=f#5 v=0
1008720 On ch=1 n=f#6 v=0
1008720 On ch=1 n=f#7 v=125
1008720 On ch=1 n=f#6 v=125
1008724 Par ch=1 c=64 v=127
1009416 On ch=1 n=f#6 v=0
1009416 On ch=1 n=f#7 v=0
1009416 On ch=1 n=g#5 v=110
1009416 On ch=1 n=f#5 v=110
1009416 On ch=1 n=d5 v=110
1009416 On ch=1 n=g#4 v=110
1010040 Par ch=1 c=64 v=0
1010044 On ch=1 n=g#4 v=0
1010044 On ch=1 n=d5 v=0
1010044 On ch=1 n=f#5 v=0
1010044 On ch=1 n=g#5 v=0
1010044 On ch=1 n=g#6 v=123
1010044 On ch=1 n=d6 v=123
1010044 On ch=1 n=g#5 v=123
1010708 On ch=1 n=g#5 v=0
1010708 On ch=1 n=d6 v=0
1010708 On ch=1 n=g#6 v=0
1010708 On ch=1 n=f#6 v=111
1010708 On ch=1 n=f#5 v=111
1011028 On ch=1 n=f#5 v=0
1011028 On ch=1 n=f#6 v=0
1011028 On ch=1 n=g#6 v=115
1011028 On ch=1 n=g#5 v=115
1011348 On ch=1 n=g#5 v=0
1011348 On ch=1 n=g#6 v=0
1011348 On ch=1 n=b6 v=116
1011348 On ch=1 n=d6 v=116
1011348 On ch=1 n=b5 v=116
1011768 On ch=1 n=b5 v=0
1011768 On ch=1 n=d6 v=0
1011768 On ch=1 n=b6 v=0
1011768 On ch=1 n=a6 v=119
1011768 On ch=1 n=a5 v=119
1011898 On ch=1 n=a5 v=0
1011898 On ch=1 n=a6 v=0
1011898 On ch=1 n=a6 v=119
1011898 On ch=1 n=d6 v=119
1011898 On ch=1 n=a5 v=119
1012080 On ch=1 n=a5 v=0
1012080 On ch=1 n=d6 v=0
1012080 On ch=1 n=a6 v=0
1012080 On ch=1 n=g#6 v=119
1012080 On ch=1 n=g#5 v=119
1012298 On ch=1 n=g#5 v=0
1012298 On ch=1 n=g#6 v=0
1012298 On ch=1 n=f#6 v=116
1012298 On ch=1 n=f#5 v=116
1012510 On ch=1 n=f#5 v=0
1012510 On ch=1 n=f#6 v=0
1012510 On ch=1 n=a7 v=121
1012510 On ch=1 n=a6 v=121
1012516 Par ch=1 c=64 v=127
1013186 On ch=1 n=a6 v=0
1013186 On ch=1 n=a7 v=0
1013186 On ch=1 n=f#5 v=105
1013186 On ch=1 n=c5 v=105
1013186 On ch=1 n=f#4 v=105
1014650 On ch=1 n=f#4 v=0
1014650 On ch=1 n=c5 v=0
1014650 On ch=1 n=f#5 v=0
1014650 On ch=1 n=f#5 v=97
1014650 On ch=1 n=c5 v=97
1014650 On ch=1 n=f#4 v=97
1015980 On ch=1 n=f#4 v=0
1015980 On ch=1 n=c5 v=0
1015980 On ch=1 n=f#5 v=0
1015980 On ch=1 n=f#5 v=95
1015980 On ch=1 n=c5 v=95
1015980 On ch=1 n=f#4 v=95
1017332 Par ch=1 c=64 v=0
1017336 On ch=1 n=f#4 v=0
1017336 On ch=1 n=c5 v=0
1017336 On ch=1 n=f#5 v=0
1017336 On ch=1 n=g5 v=107
1017336 On ch=1 n=b4 v=107
1017336 On ch=1 n=g4 v=107
1017986 On ch=1 n=g4 v=0
1017986 On ch=1 n=b4 v=0
1017986 On ch=1 n=g5 v=0
1017986 On ch=1 n=g5 v=105
1017986 On ch=1 n=b4 v=105
1017986 On ch=1 n=g4 v=105
1018634 On ch=1 n=g4 v=0
1018634 On ch=1 n=b4 v=0
1018634 On ch=1 n=g5 v=0
1018634 On ch=1 n=f5 v=105
1018634 On ch=1 n=b4 v=105
1018634 On ch=1 n=f4 v=105
1019260 On ch=1 n=f4 v=0
1019260 On ch=1 n=b4 v=0
1019260 On ch=1 n=f5 v=0
1019260 On ch=1 n=f5 v=101
1019260 On ch=1 n=b4 v=101
1019260 On ch=1 n=f4 v=101
1019874 On ch=1 n=f4 v=0
1019874 On ch=1 n=b4 v=0
1019874 On ch=1 n=f5 v=0
1019874 On ch=1 n=f#5 v=100
1019874 On ch=1 n=a4 v=100
1019874 On ch=1 n=f#4 v=100
1020552 On ch=1 n=f#4 v=0
1020552 On ch=1 n=a4 v=0
1020552 On ch=1 n=f#5 v=0
1020552 On ch=1 n=c#4 v=126
1020722 On ch=1 n=c#4 v=0
1020722 On ch=1 n=d4 v=126
1020864 On ch=1 n=d4 v=0
1020864 On ch=1 n=c#4 v=115
1021234 On ch=1 n=c#4 v=0
1021234 On ch=1 n=g#3 v=112
1021574 On ch=1 n=g#3 v=0
1021574 On ch=1 n=a3 v=105
1021886 On ch=1 n=a3 v=0
1021886 On ch=1 n=f#3 v=99
1022510 On ch=1 n=f#3 v=0
1023220 On ch=1 n=f5 v=125
1023220 On ch=1 n=f4 v=125
1023226 Par ch=1 c=64 v=127
1025224 On ch=1 n=f4 v=0
1025224 On ch=1 n=f5 v=0
1025224 On ch=1 n=g5 v=123
1025224 On ch=1 n=g4 v=123
1025980 Par ch=1 c=64 v=0
1025986 On ch=1 n=g4 v=0
1025986 On ch=1 n=g5 v=0
1025986 On ch=1 n=a5 v=126
1025986 On ch=1 n=a4 v=126
1026410 On ch=1 n=a4 v=0
1026410 On ch=1 n=a5 v=0
1026410 On ch=1 n=a#5 v=123
1026410 On ch=1 n=a#4 v=123
1026798 On ch=1 n=a#4 v=0
1026798 On ch=1 n=a#5 v=0
1026798 On ch=1 n=c6 v=119
1026798 On ch=1 n=c5 v=119
1027212 On ch=1 n=c5 v=0
1027212 On ch=1 n=c6 v=0
1027212 On ch=1 n=c#6 v=119
1027212 On ch=1 n=c#5 v=119
1027218 Par ch=1 c=64 v=127
1027658 On ch=1 n=c#5 v=0
1027658 On ch=1 n=c#6 v=0
1027658 On ch=1 n=d#6 v=115
1027658 On ch=1 n=d#5 v=115
1027782 On ch=1 n=d#5 v=0
1027782 On ch=1 n=d#6 v=0
1027782 On ch=1 n=f6 v=115
1027782 On ch=1 n=f5 v=115
1028070 On ch=1 n=f5 v=0
1028070 On ch=1 n=f6 v=0
1028070 On ch=1 n=g6 v=110
1028070 On ch=1 n=g5 v=110
1028376 On ch=1 n=g5 v=0
1028376 On ch=1 n=g6 v=0
1028376 On ch=1 n=a6 v=112
1028376 On ch=1 n=a5 v=112
1028614 On ch=1 n=a5 v=0
1028614 On ch=1 n=a6 v=0
1028614 On ch=1 n=a#6 v=112
1028614 On ch=1 n=a#5 v=112
1028868 On ch=1 n=a#5 v=0
1028868 On ch=1 n=a#6 v=0
1028868 On ch=1 n=c7 v=115
1028868 On ch=1 n=c6 v=115
1029112 On ch=1 n=c6 v=0
1029112 On ch=1 n=c7 v=0
1029112 On ch=1 n=c#7 v=115
1029112 On ch=1 n=c#6 v=115
1029360 On ch=1 n=c#6 v=0
1029360 On ch=1 n=c#7 v=0
1029360 On ch=1 n=d#7 v=116
1029360 On ch=1 n=d#6 v=116
1029604 Par ch=1 c=64 v=0
1029608 On ch=1 n=d#6 v=0
1029608 On ch=1 n=d#7 v=0
1029608 On ch=1 n=f7 v=119
1029608 On ch=1 n=f6 v=119
1029856 On ch=1 n=f6 v=0
1029856 On ch=1 n=f7 v=0
1029856 On ch=1 n=g7 v=119
1029856 On ch=1 n=g6 v=119
1030086 On ch=1 n=g6 v=0
1030086 On ch=1 n=g7 v=0
1030086 On ch=1 n=a7 v=115
1030086 On ch=1 n=a6 v=115
1030342 On ch=1 n=a6 v=0
1030342 On ch=1 n=a7 v=0
1030342 On ch=1 n=a#7 v=115
1030342 On ch=1 n=a#6 v=115
1030596 On ch=1 n=a#6 v=0
1030596 On ch=1 n=a#7 v=0
1030596 On ch=1 n=c8 v=119
1030596 On ch=1 n=c7 v=119
1030836 On ch=1 n=c7 v=0
1030836 On ch=1 n=c8 v=0
1030836 On ch=1 n=c#8 v=125
1030836 On ch=1 n=c#7 v=125
1030842 Par ch=1 c=64 v=127
1031488 On ch=1 n=c#7 v=0
1031488 On ch=1 n=c#8 v=0
1031830 On ch=1 n=f7 v=115
1031830 On ch=1 n=f6 v=115
1032104 On ch=1 n=f6 v=0
1032104 On ch=1 n=f7 v=0
1032104 On ch=1 n=c#8 v=123
1032104 On ch=1 n=c#7 v=123
1033464 Par ch=1 c=64 v=0
1033468 On ch=1 n=c#7 v=0
1033468 On ch=1 n=c#8 v=0
1033468 On ch=1 n=c8 v=123
1033468 On ch=1 n=c7 v=123
1034780 On ch=1 n=c7 v=0
1034780 On ch=1 n=c8 v=0
1034780 On ch=1 n=a#7 v=116
1034780 On ch=1 n=a#6 v=116
1034786 Par ch=1 c=64 v=127
1036042 On ch=1 n=a#6 v=0
1036042 On ch=1 n=a#7 v=0
1036042 On ch=1 n=f5 v=97
1036042 On ch=1 n=f4 v=97
1037272 Par ch=1 c=64 v=0
1037276 On ch=1 n=f4 v=0
1037276 On ch=1 n=f5 v=0
1037276 On ch=1 n=g4 v=115
1037282 Par ch=1 c=64 v=127
1037570 On ch=1 n=g4 v=0
1037570 On ch=1 n=a5 v=115
1037716 On ch=1 n=a5 v=0
1037716 On ch=1 n=g5 v=115
1037870 On ch=1 n=g5 v=0
1037870 On ch=1 n=a5 v=106
1038018 On ch=1 n=a5 v=0
1038018 On ch=1 n=g5 v=106
1038164 On ch=1 n=g5 v=0
1038164 On ch=1 n=f#5 v=106
1038312 On ch=1 n=f#5 v=0
1038312 On ch=1 n=g5 v=106
1038526 Par ch=1 c=64 v=0
1038530 On ch=1 n=g5 v=0
1038530 On ch=1 n=d#5 v=127
1038530 On ch=1 n=d#4 v=127
1038536 Par ch=1 c=64 v=127
1040584 On ch=1 n=d#4 v=0
1040584 On ch=1 n=d#5 v=0
1040584 On ch=1 n=f5 v=116
1040584 On ch=1 n=f4 v=116
1041252 Par ch=1 c=64 v=0
1041256 On ch=1 n=f4 v=0
1041256 On ch=1 n=f5 v=0
1041256 On ch=1 n=g5 v=116
1041256 On ch=1 n=g4 v=116
1041262 Par ch=1 c=64 v=127
1041616 On ch=1 n=g4 v=0
1041616 On ch=1 n=g5 v=0
1041616 On ch=1 n=g#5 v=108
1041616 On ch=1 n=g#4 v=108
1041954 On ch=1 n=g#4 v=0
1041954 On ch=1 n=g#5 v=0
1041954 On ch=1 n=a#5 v=108
1041954 On ch=1 n=a#4 v=108
1042362 Par ch=1 c=64 v=0
1042366 On ch=1 n=a#4 v=0
1042366 On ch=1 n=a#5 v=0
1042366 On ch=1 n=c6 v=110
1042366 On ch=1 n=c5 v=110
1042370 Par ch=1 c=64 v=127
1042796 On ch=1 n=c5 v=0
1042796 On ch=1 n=c6 v=0
1042796 On ch=1 n=c#6 v=112
1042796 On ch=1 n=c#5 v=112
1042932 On ch=1 n=c#5 v=0
1042932 On ch=1 n=c#6 v=0
1042932 On ch=1 n=d#6 v=108
1042932 On ch=1 n=d#5 v=108
1043226 On ch=1 n=d#5 v=0
1043226 On ch=1 n=d#6 v=0
1043226 On ch=1 n=f6 v=108
1043226 On ch=1 n=f5 v=108
1043522 On ch=1 n=f5 v=0
1043522 On ch=1 n=f6 v=0
1043522 On ch=1 n=g6 v=108
1043522 On ch=1 n=g5 v=108
1043758 On ch=1 n=g5 v=0
1043758 On ch=1 n=g6 v=0
1043758 On ch=1 n=g#6 v=108
1043758 On ch=1 n=g#5 v=108
1043980 On ch=1 n=g#5 v=0
1043980 On ch=1 n=g#6 v=0
1043980 On ch=1 n=a#6 v=110
1043980 On ch=1 n=a#5 v=110
1044192 On ch=1 n=a#5 v=0
1044192 On ch=1 n=a#6 v=0
1044192 On ch=1 n=c7 v=108
1044192 On ch=1 n=c6 v=108
1044402 On ch=1 n=c6 v=0
1044402 On ch=1 n=c7 v=0
1044402 On ch=1 n=c#7 v=110
1044402 On ch=1 n=c#6 v=110
1044604 Par ch=1 c=64 v=0
1044608 On ch=1 n=c#6 v=0
1044608 On ch=1 n=c#7 v=0
1044608 On ch=1 n=d#7 v=111
1044608 On ch=1 n=d#6 v=111
1044818 On ch=1 n=d#6 v=0
1044818 On ch=1 n=d#7 v=0
1044818 On ch=1 n=f7 v=111
1044818 On ch=1 n=f6 v=111
1045046 On ch=1 n=f6 v=0
1045046 On ch=1 n=f7 v=0
1045046 On ch=1 n=g7 v=110
1045046 On ch=1 n=g6 v=110
1045270 On ch=1 n=g6 v=0
1045270 On ch=1 n=g7 v=0
1045270 On ch=1 n=g#7 v=110
1045270 On ch=1 n=g#6 v=110
1045486 On ch=1 n=g#6 v=0
1045486 On ch=1 n=g#7 v=0
1045486 On ch=1 n=a#7 v=111
1045486 On ch=1 n=a#6 v=111
1045706 On ch=1 n=a#6 v=0
1045706 On ch=1 n=a#7 v=0
1045706 On ch=1 n=c8 v=108
1045706 On ch=1 n=c7 v=108
1046364 On ch=1 n=c7 v=0
1046364 On ch=1 n=c8 v=0
1046658 On ch=1 n=d#7 v=112
1046658 On ch=1 n=d#6 v=112
1046664 Par ch=1 c=64 v=127
1046948 On ch=1 n=d#6 v=0
1046948 On ch=1 n=d#7 v=0
1046948 On ch=1 n=c8 v=125
1046948 On ch=1 n=c7 v=125
1048174 Par ch=1 c=64 v=0
1048178 On ch=1 n=c7 v=0
1048178 On ch=1 n=c8 v=0
1048178 On ch=1 n=a#7 v=126
1048178 On ch=1 n=a#6 v=126
1048184 Par ch=1 c=64 v=127
1049440 Par ch=1 c=64 v=0
1049444 On ch=1 n=a#6 v=0
1049444 On ch=1 n=a#7 v=0
1049444 On ch=1 n=g#7 v=123
1049444 On ch=1 n=g#6 v=123
1049450 Par ch=1 c=64 v=127
1050726 On ch=1 n=g#6 v=0
1050726 On ch=1 n=g#7 v=0
1050726 On ch=1 n=d#6 v=105
1050726 On ch=1 n=d#5 v=105
1051310 Par ch=1 c=64 v=0
1051990 On ch=1 n=d#5 v=0
1051990 On ch=1 n=d#6 v=0
1051990 On ch=1 n=f5 v=125
1051996 Par ch=1 c=64 v=127
1052278 On ch=1 n=f5 v=0
1052278 On ch=1 n=g6 v=115
1052440 On ch=1 n=g6 v=0
1052440 On ch=1 n=f6 v=115
1052598 On ch=1 n=f6 v=0
1052598 On ch=1 n=g6 v=108
1052750 On ch=1 n=g6 v=0
1052750 On ch=1 n=f6 v=108
1053020 On ch=1 n=f6 v=0
1053020 On ch=1 n=d#6 v=125
1053204 On ch=1 n=d#6 v=0
1053204 On ch=1 n=f6 v=125
1053258 Par ch=1 c=64 v=0
1053262 On ch=1 n=f6 v=0
1053262 On ch=1 n=f#6 v=116
1053262 On ch=1 n=f#5 v=116
1053998 On ch=1 n=c#6 v=105
1053998 On ch=1 n=a5 v=105
1054332 On ch=1 n=a5 v=0
1054332 On ch=1 n=c#6 v=0
1054332 On ch=1 n=c#6 v=96
1054332 On ch=1 n=a5 v=96
1054606 On ch=1 n=a5 v=0
1054606 On ch=1 n=c#6 v=0
1054606 On ch=1 n=c#6 v=97
1054606 On ch=1 n=a5 v=97
1055296 On ch=1 n=a5 v=0
1055296 On ch=1 n=c#6 v=0
1055296 On ch=1 n=f#5 v=0
1055296 On ch=1 n=f#6 v=0
1055296 On ch=1 n=e6 v=105
1055296 On ch=1 n=a5 v=105
1055296 On ch=1 n=e5 v=105
1055584 On ch=1 n=e5 v=0
1055584 On ch=1 n=a5 v=0
1055584 On ch=1 n=e6 v=0
1055584 On ch=1 n=d6 v=105
1055584 On ch=1 n=d5 v=105
1055884 On ch=1 n=d5 v=0
1055884 On ch=1 n=d6 v=0
1055884 On ch=1 n=c#6 v=107
1055884 On ch=1 n=g#5 v=107
1055884 On ch=1 n=c#5 v=107
1055888 Par ch=1 c=64 v=127
1056568 On ch=1 n=c#5 v=0
1056568 On ch=1 n=g#5 v=0
1056568 On ch=1 n=c#6 v=0
1056568 On ch=1 n=d#6 v=106
1056568 On ch=1 n=d#5 v=106
1056858 On ch=1 n=d#5 v=0
1056858 On ch=1 n=d#6 v=0
1056858 On ch=1 n=f6 v=115
1056858 On ch=1 n=f5 v=115
1057130 Par ch=1 c=64 v=0
1057134 On ch=1 n=f5 v=0
1057134 On ch=1 n=f6 v=0
1057134 On ch=1 n=f#6 v=119
1057134 On ch=1 n=f#5 v=119
1057836 On ch=1 n=c#6 v=99
1057836 On ch=1 n=a5 v=99
1058120 On ch=1 n=a5 v=0
1058120 On ch=1 n=c#6 v=0
1058120 On ch=1 n=c#6 v=97
1058120 On ch=1 n=a5 v=97
1058418 On ch=1 n=a5 v=0
1058418 On ch=1 n=c#6 v=0
1058418 On ch=1 n=c#6 v=97
1058418 On ch=1 n=a5 v=97
1059028 On ch=1 n=a5 v=0
1059028 On ch=1 n=c#6 v=0
1059028 On ch=1 n=f#5 v=0
1059028 On ch=1 n=f#6 v=0
1059028 On ch=1 n=f6 v=115
1059028 On ch=1 n=c#6 v=115
1059028 On ch=1 n=f5 v=115
1059290 On ch=1 n=f5 v=0
1059290 On ch=1 n=c#6 v=0
1059290 On ch=1 n=f6 v=0
1059290 On ch=1 n=f#6 v=115
1059290 On ch=1 n=f#5 v=115
1059582 On ch=1 n=f#5 v=0
1059582 On ch=1 n=f#6 v=0
1059582 On ch=1 n=g#6 v=116
1059582 On ch=1 n=d6 v=116
1059582 On ch=1 n=b5 v=116
1059582 On ch=1 n=g#5 v=116
1059586 Par ch=1 c=64 v=127
1060258 On ch=1 n=g#5 v=0
1060258 On ch=1 n=b5 v=0
1060258 On ch=1 n=d6 v=0
1060258 On ch=1 n=g#6 v=0
1060258 On ch=1 n=f#6 v=116
1060258 On ch=1 n=f#5 v=116
1060558 On ch=1 n=f#5 v=0
1060558 On ch=1 n=f#6 v=0
1060558 On ch=1 n=g#6 v=121
1060558 On ch=1 n=g#5 v=121
1060816 Par ch=1 c=64 v=0
1060820 On ch=1 n=g#5 v=0
1060820 On ch=1 n=g#6 v=0
1060820 On ch=1 n=a6 v=123
1060820 On ch=1 n=a5 v=123
1061558 On ch=1 n=f#6 v=112
1061558 On ch=1 n=c#6 v=112
1061854 On ch=1 n=c#6 v=0
1061854 On ch=1 n=f#6 v=0
1061854 On ch=1 n=f#6 v=105
1061854 On ch=1 n=c#6 v=105
1062110 On ch=1 n=c#6 v=0
1062110 On ch=1 n=f#6 v=0
1062110 On ch=1 n=f#6 v=105
1062110 On ch=1 n=c#6 v=105
1062798 On ch=1 n=c#6 v=0
1062798 On ch=1 n=f#6 v=0
1062798 On ch=1 n=a5 v=0
1062798 On ch=1 n=a6 v=0
1062798 On ch=1 n=g#6 v=121
1062798 On ch=1 n=c#6 v=121
1062798 On ch=1 n=g#5 v=121
1063092 On ch=1 n=g#5 v=0
1063092 On ch=1 n=c#6 v=0
1063092 On ch=1 n=g#6 v=0
1063092 On ch=1 n=f#6 v=115
1063092 On ch=1 n=f#5 v=115
1063386 On ch=1 n=f#5 v=0
1063386 On ch=1 n=f#6 v=0
1063386 On ch=1 n=f6 v=115
1063386 On ch=1 n=d6 v=115
1063386 On ch=1 n=b5 v=115
1063386 On ch=1 n=f5 v=115
1063390 Par ch=1 c=64 v=127
1064052 On ch=1 n=f5 v=0
1064052 On ch=1 n=b5 v=0
1064052 On ch=1 n=d6 v=0
1064052 On ch=1 n=f6 v=0
1064052 On ch=1 n=f#6 v=115
1064052 On ch=1 n=f#5 v=115
1064334 On ch=1 n=f#5 v=0
1064334 On ch=1 n=f#6 v=0
1064334 On ch=1 n=g#6 v=121
1064334 On ch=1 n=g#5 v=121
1064616 Par ch=1 c=64 v=0
1064620 On ch=1 n=g#5 v=0
1064620 On ch=1 n=g#6 v=0
1064620 On ch=1 n=a6 v=123
1064620 On ch=1 n=a5 v=123
1065300 On ch=1 n=f#6 v=110
1065300 On ch=1 n=c#6 v=110
1065604 On ch=1 n=c#6 v=0
1065604 On ch=1 n=f#6 v=0
1065604 On ch=1 n=f#6 v=107
1065604 On ch=1 n=c#6 v=107
1065898 On ch=1 n=c#6 v=0
1065898 On ch=1 n=f#6 v=0
1065898 On ch=1 n=f#6 v=105
1065898 On ch=1 n=c#6 v=105
1066520 On ch=1 n=c#6 v=0
1066520 On ch=1 n=f#6 v=0
1066520 On ch=1 n=a5 v=0
1066520 On ch=1 n=a6 v=0
1066520 On ch=1 n=g#6 v=115
1066520 On ch=1 n=c#6 v=115
1066520 On ch=1 n=g#5 v=115
1066824 On ch=1 n=g#5 v=0
1066824 On ch=1 n=c#6 v=0
1066824 On ch=1 n=g#6 v=0
1066824 On ch=1 n=a6 v=123
1066824 On ch=1 n=a5 v=123
1067126 On ch=1 n=a5 v=0
1067126 On ch=1 n=a6 v=0
1067126 On ch=1 n=b6 v=121
1067126 On ch=1 n=f#6 v=121
1067126 On ch=1 n=d6 v=121
1067126 On ch=1 n=b5 v=121
1067132 Par ch=1 c=64 v=127
1067806 On ch=1 n=b5 v=0
1067806 On ch=1 n=d6 v=0
1067806 On ch=1 n=f#6 v=0
1067806 On ch=1 n=b6 v=0
1067806 On ch=1 n=a6 v=121
1067806 On ch=1 n=a5 v=121
1068106 On ch=1 n=a5 v=0
1068106 On ch=1 n=a6 v=0
1068106 On ch=1 n=b6 v=121
1068106 On ch=1 n=b5 v=121
1068404 Par ch=1 c=64 v=0
1068408 On ch=1 n=b5 v=0
1068408 On ch=1 n=b6 v=0
1068408 On ch=1 n=c#7 v=123
1068408 On ch=1 n=c#6 v=123
1069074 On ch=1 n=c#6 v=0
1069074 On ch=1 n=c#7 v=0
1069074 On ch=1 n=a6 v=121
1069074 On ch=1 n=f#6 v=121
1069398 On ch=1 n=f#6 v=0
1069398 On ch=1 n=a6 v=0
1069398 On ch=1 n=c#7 v=126
1069398 On ch=1 n=c#6 v=126
1069670 On ch=1 n=c#6 v=0
1069670 On ch=1 n=c#7 v=0
1069670 On ch=1 n=d7 v=127
1069670 On ch=1 n=d6 v=127
1069674 Par ch=1 c=64 v=127
1070400 On ch=1 n=a6 v=112
1070400 On ch=1 n=f#6 v=112
1070696 On ch=1 n=f#6 v=0
1070696 On ch=1 n=a6 v=0
1070696 On ch=1 n=a6 v=111
1070696 On ch=1 n=f#6 v=111
1071018 On ch=1 n=f#6 v=0
1071018 On ch=1 n=a6 v=0
1071018 On ch=1 n=a6 v=111
1071018 On ch=1 n=f#6 v=111
1071680 Par ch=1 c=64 v=0
1071684 On ch=1 n=f#6 v=0
1071684 On ch=1 n=a6 v=0
1071684 On ch=1 n=d6 v=0
1071684 On ch=1 n=d7 v=0
1071684 On ch=1 n=c#7 v=126
1071684 On ch=1 n=c#6 v=126
1071972 On ch=1 n=c#6 v=0
1071972 On ch=1 n=c#7 v=0
1071972 On ch=1 n=c7 v=126
1071972 On ch=1 n=c6 v=126
1072270 On ch=1 n=c6 v=0
1072270 On ch=1 n=c7 v=0
1072270 On ch=1 n=c#7 v=126
1072270 On ch=1 n=c#6 v=126
1072568 On ch=1 n=c#6 v=0
1072568 On ch=1 n=c#7 v=0
1072568 On ch=1 n=a6 v=125
1072568 On ch=1 n=f#6 v=125
1072852 On ch=1 n=f#6 v=0
1072852 On ch=1 n=a6 v=0
1072852 On ch=1 n=c#7 v=123
1072852 On ch=1 n=c#6 v=123
1073164 On ch=1 n=c#6 v=0
1073164 On ch=1 n=c#7 v=0
1073164 On ch=1 n=f#7 v=125
1073164 On ch=1 n=f#6 v=125
1073488 On ch=1 n=f#6 v=0
1073488 On ch=1 n=f#7 v=0
1073488 On ch=1 n=a7 v=127
1073488 On ch=1 n=a6 v=127
1073494 Par ch=1 c=64 v=127
1074248 On ch=1 n=d#7 v=123
1074248 On ch=1 n=c#7 v=123
1074540 On ch=1 n=c#7 v=0
1074540 On ch=1 n=d#7 v=0
1074540 On ch=1 n=d#7 v=116
1074540 On ch=1 n=c#7 v=116
1074830 On ch=1 n=c#7 v=0
1074830 On ch=1 n=d#7 v=0
1074830 On ch=1 n=d#7 v=116
1074830 On ch=1 n=c#7 v=116
1075564 Par ch=1 c=64 v=0
1075570 On ch=1 n=c#7 v=0
1075570 On ch=1 n=d#7 v=0
1075570 On ch=1 n=a6 v=0
1075570 On ch=1 n=a7 v=0
1075570 On ch=1 n=g#7 v=127
1075570 On ch=1 n=g#6 v=127
1075884 On ch=1 n=g#6 v=0
1075884 On ch=1 n=g#7 v=0
1075884 On ch=1 n=g7 v=127
1075884 On ch=1 n=g6 v=127
1076214 On ch=1 n=g6 v=0
1076214 On ch=1 n=g7 v=0
1076214 On ch=1 n=g#7 v=127
1076214 On ch=1 n=e7 v=127
1076214 On ch=1 n=c#7 v=127
1076214 On ch=1 n=g#6 v=127
1076220 Par ch=1 c=64 v=127
1076510 On ch=1 n=g#6 v=0
1076510 On ch=1 n=c#7 v=0
1076510 On ch=1 n=e7 v=0
1076510 On ch=1 n=g#7 v=0
1076510 On ch=1 n=g7 v=126
1076510 On ch=1 n=g6 v=126
1076808 On ch=1 n=g6 v=0
1076808 On ch=1 n=g7 v=0
1076808 On ch=1 n=f#7 v=123
1076808 On ch=1 n=f#6 v=123
1077112 On ch=1 n=f#6 v=0
1077112 On ch=1 n=f#7 v=0
1077112 On ch=1 n=f7 v=123
1077112 On ch=1 n=f6 v=123
1077430 On ch=1 n=f6 v=0
1077430 On ch=1 n=f7 v=0
1077430 On ch=1 n=e7 v=121
1077430 On ch=1 n=e6 v=121
1077744 On ch=1 n=e6 v=0
1077744 On ch=1 n=e7 v=0
1077744 On ch=1 n=d#7 v=121
1077744 On ch=1 n=d#6 v=121
1078064 On ch=1 n=d#6 v=0
1078064 On ch=1 n=d#7 v=0
1078064 On ch=1 n=d7 v=115
1078064 On ch=1 n=d6 v=115
1078364 On ch=1 n=d6 v=0
1078364 On ch=1 n=d7 v=0
1078364 On ch=1 n=c#7 v=112
1078364 On ch=1 n=c#6 v=112
1078678 Par ch=1 c=64 v=0
1078682 On ch=1 n=c#6 v=0
1078682 On ch=1 n=c#7 v=0
1078682 On ch=1 n=c7 v=112
1078682 On ch=1 n=c6 v=112
1078688 Par ch=1 c=64 v=127
1078984 On ch=1 n=c6 v=0
1078984 On ch=1 n=c7 v=0
1078984 On ch=1 n=b6 v=110
1078984 On ch=1 n=b5 v=110
1079290 On ch=1 n=b5 v=0
1079290 On ch=1 n=b6 v=0
1079290 On ch=1 n=a6 v=112
1079290 On ch=1 n=a5 v=112
1079596 On ch=1 n=a5 v=0
1079596 On ch=1 n=a6 v=0
1079596 On ch=1 n=g#6 v=105
1079596 On ch=1 n=g#5 v=105
1079880 Par ch=1 c=64 v=0
1079884 On ch=1 n=g#5 v=0
1079884 On ch=1 n=g#6 v=0
1079884 On ch=1 n=c#7 v=110
1079884 On ch=1 n=c#6 v=110
1080504 On ch=1 n=c#6 v=0
1080504 On ch=1 n=c#7 v=0
1080504 On ch=1 n=c#6 v=108
1080504 On ch=1 n=b5 v=108
1080504 On ch=1 n=f5 v=108
1080504 On ch=1 n=c#5 v=108
1081754 On ch=1 n=c#5 v=0
1081754 On ch=1 n=f5 v=0
1081754 On ch=1 n=b5 v=0
1081754 On ch=1 n=c#6 v=0
1081754 On ch=1 n=c#6 v=101
1082062 On ch=1 n=c#6 v=0
1082062 On ch=1 n=c#6 v=100
1082372 On ch=1 n=c#6 v=0
1082372 On ch=1 n=c#6 v=99
1083010 On ch=1 n=c#6 v=0
1083010 On ch=1 n=c#6 v=97
1083646 On ch=1 n=c#6 v=0
1083646 On ch=1 n=c#6 v=100
1084298 On ch=1 n=c#6 v=0
1084298 On ch=1 n=c#5 v=97
1084612 On ch=1 n=c#5 v=0
1084612 On ch=1 n=c#5 v=96
1084910 On ch=1 n=c#5 v=0
1084910 On ch=1 n=a5 v=97
1086160 On ch=1 n=a5 v=0
1086160 On ch=1 n=a5 v=100
1087116 On ch=1 n=a5 v=0
1087116 On ch=1 n=g#5 v=96
1087416 On ch=1 n=g#5 v=0
1087416 On ch=1 n=f#5 v=99
1088718 On ch=1 n=f#5 v=0
1088718 On ch=1 n=c#5 v=94
1091348 On ch=1 n=c#5 v=0
1091348 On ch=1 n=c#6 v=91
1092674 On ch=1 n=c#6 v=0
1092674 On ch=1 n=e6 v=88
1094000 On ch=1 n=e6 v=0
1094000 On ch=1 n=e6 v=85
1094998 On ch=1 n=e6 v=0
1094998 On ch=1 n=d6 v=88
1095326 On ch=1 n=d6 v=0
1095326 On ch=1 n=c#6 v=88
1096624 On ch=1 n=c#6 v=0
1096624 On ch=1 n=b5 v=93
1097894 On ch=1 n=b5 v=0
1097894 On ch=1 n=a5 v=105
1099122 On ch=1 n=a5 v=0
1099122 On ch=1 n=f6 v=107
1099122 On ch=1 n=c#6 v=107
1099122 On ch=1 n=b5 v=107
1099122 On ch=1 n=f5 v=107
1099128 Par ch=1 c=64 v=127
1099128 Par ch=1 c=64 v=127
1099796 On ch=1 n=f5 v=0
1099796 On ch=1 n=b5 v=0
1099796 On ch=1 n=c#6 v=0
1099796 On ch=1 n=f6 v=0
1099796 On ch=1 n=f#6 v=112
1099796 On ch=1 n=f#5 v=112
1100116 On ch=1 n=f#5 v=0
1100116 On ch=1 n=f#6 v=0
1100116 On ch=1 n=g#6 v=115
1100116 On ch=1 n=g#5 v=115
1100434 Par ch=1 c=64 v=0
1100438 On ch=1 n=g#5 v=0
1100438 On ch=1 n=g#6 v=0
1100438 On ch=1 n=a6 v=116
1100438 On ch=1 n=c#6 v=116
1100438 On ch=1 n=a5 v=116
1100444 Par ch=1 c=64 v=127
1101056 On ch=1 n=a5 v=0
1101056 On ch=1 n=c#6 v=0
1101056 On ch=1 n=a6 v=0
1101056 On ch=1 n=b6 v=112
1101056 On ch=1 n=b5 v=112
1101366 On ch=1 n=b5 v=0
1101366 On ch=1 n=b6 v=0
1101366 On ch=1 n=a6 v=119
1101366 On ch=1 n=a5 v=119
1101674 Par ch=1 c=64 v=0
1101678 On ch=1 n=a5 v=0
1101678 On ch=1 n=d6 v=112
1101678 On ch=1 n=g#5 v=112
1101684 Par ch=1 c=64 v=127
1102316 On ch=1 n=g#5 v=0
1102316 On ch=1 n=d6 v=0
1102316 On ch=1 n=f#6 v=115
1102316 On ch=1 n=f#5 v=115
1102642 On ch=1 n=f#5 v=0
1102642 On ch=1 n=f#6 v=0
1102642 On ch=1 n=a6 v=0
1102642 On ch=1 n=g#6 v=119
1102642 On ch=1 n=g#5 v=119
1102966 Par ch=1 c=64 v=0
1102970 On ch=1 n=g#5 v=0
1102970 On ch=1 n=g#6 v=0
1102970 On ch=1 n=f6 v=115
1102970 On ch=1 n=c#6 v=115
1102970 On ch=1 n=f5 v=115
1102976 Par ch=1 c=64 v=127
1103592 On ch=1 n=f5 v=0
1103592 On ch=1 n=c#6 v=0
1103592 On ch=1 n=f6 v=0
1103592 On ch=1 n=f#6 v=112
1103592 On ch=1 n=f#5 v=112
1103892 On ch=1 n=f#5 v=0
1103892 On ch=1 n=f#6 v=0
1103892 On ch=1 n=g#6 v=101
1103892 On ch=1 n=g#5 v=101
1104208 Par ch=1 c=64 v=0
1104212 On ch=1 n=g#5 v=0
1104212 On ch=1 n=g#6 v=0
1104212 On ch=1 n=a6 v=110
1104212 On ch=1 n=c#6 v=110
1104212 On ch=1 n=a5 v=110
1104218 Par ch=1 c=64 v=127
1104866 On ch=1 n=a5 v=0
1104866 On ch=1 n=c#6 v=0
1104866 On ch=1 n=a6 v=0
1104866 On ch=1 n=b6 v=104
1104866 On ch=1 n=b5 v=104
1105178 On ch=1 n=b5 v=0
1105178 On ch=1 n=b6 v=0
1105178 On ch=1 n=c#7 v=101
1105178 On ch=1 n=c#6 v=101
1105474 Par ch=1 c=64 v=0
1105478 On ch=1 n=c#6 v=0
1105478 On ch=1 n=c#7 v=0
1105478 On ch=1 n=d7 v=101
1105478 On ch=1 n=f#6 v=101
1105478 On ch=1 n=d6 v=101
1105484 Par ch=1 c=64 v=127
1106168 On ch=1 n=d6 v=0
1106168 On ch=1 n=f#6 v=0
1106168 On ch=1 n=d7 v=0
1106168 On ch=1 n=f#6 v=100
1106168 On ch=1 n=f#5 v=100
1106502 On ch=1 n=f#5 v=0
1106502 On ch=1 n=f#6 v=0
1106502 On ch=1 n=g#6 v=101
1106502 On ch=1 n=g#5 v=101
1106832 Par ch=1 c=64 v=0
1106836 On ch=1 n=g#5 v=0
1106836 On ch=1 n=g#6 v=0
1106836 On ch=1 n=a6 v=102
1106836 On ch=1 n=d6 v=102
1106836 On ch=1 n=a5 v=102
1107534 On ch=1 n=a5 v=0
1107534 On ch=1 n=d6 v=0
1107534 On ch=1 n=a6 v=0
1107534 On ch=1 n=g#6 v=104
1107534 On ch=1 n=g#5 v=104
1107830 On ch=1 n=g#5 v=0
1107830 On ch=1 n=g#6 v=0
1107830 On ch=1 n=f#6 v=106
1107830 On ch=1 n=f#5 v=106
1108128 On ch=1 n=f#5 v=0
1108128 On ch=1 n=f#6 v=0
1108128 On ch=1 n=f#7 v=116
1108128 On ch=1 n=f#6 v=116
1108132 Par ch=1 c=64 v=127
1108864 On ch=1 n=f#6 v=0
1108864 On ch=1 n=f#7 v=0
1108864 On ch=1 n=g#5 v=111
1108864 On ch=1 n=f#5 v=111
1108864 On ch=1 n=d5 v=111
1108864 On ch=1 n=g#4 v=111
1109572 Par ch=1 c=64 v=0
1109576 On ch=1 n=g#4 v=0
1109576 On ch=1 n=d5 v=0
1109576 On ch=1 n=f#5 v=0
1109576 On ch=1 n=g#5 v=0
1109576 On ch=1 n=g#6 v=108
1109576 On ch=1 n=d6 v=108
1109576 On ch=1 n=g#5 v=108
1110272 On ch=1 n=g#5 v=0
1110272 On ch=1 n=d6 v=0
1110272 On ch=1 n=g#6 v=0
1110272 On ch=1 n=f#6 v=107
1110272 On ch=1 n=f#5 v=107
1110582 On ch=1 n=f#5 v=0
1110582 On ch=1 n=f#6 v=0
1110582 On ch=1 n=g#6 v=102
1110582 On ch=1 n=g#5 v=102
1110920 On ch=1 n=g#5 v=0
1110920 On ch=1 n=g#6 v=0
1110920 On ch=1 n=b6 v=104
1111136 On ch=1 n=b6 v=0
1111136 On ch=1 n=a#6 v=104
1111136 On ch=1 n=a#5 v=104
1111322 On ch=1 n=a#5 v=0
1111322 On ch=1 n=a#6 v=0
1111322 On ch=1 n=a6 v=105
1111322 On ch=1 n=a5 v=105
1111538 On ch=1 n=a5 v=0
1111538 On ch=1 n=a6 v=0
1111538 On ch=1 n=g#6 v=101
1111538 On ch=1 n=g#5 v=101
1111744 On ch=1 n=g#5 v=0
1111744 On ch=1 n=g#6 v=0
1111744 On ch=1 n=g6 v=101
1111744 On ch=1 n=g5 v=101
1111944 On ch=1 n=g5 v=0
1111944 On ch=1 n=g6 v=0
1111944 On ch=1 n=f#6 v=105
1111944 On ch=1 n=f#5 v=105
1112144 On ch=1 n=f#5 v=0
1112144 On ch=1 n=f#6 v=0
1112144 On ch=1 n=a7 v=100
1112144 On ch=1 n=a6 v=100
1112150 Par ch=1 c=64 v=127
1112860 On ch=1 n=a6 v=0
1112860 On ch=1 n=a7 v=0
1112860 On ch=1 n=f#5 v=121
1112860 On ch=1 n=c5 v=121
1112860 On ch=1 n=f#4 v=121
1114286 On ch=1 n=f#4 v=0
1114286 On ch=1 n=c5 v=0
1114286 On ch=1 n=f#5 v=0
1114286 On ch=1 n=f#5 v=111
1114286 On ch=1 n=c5 v=111
1114286 On ch=1 n=f#4 v=111
1115686 On ch=1 n=f#4 v=0
1115686 On ch=1 n=c5 v=0
1115686 On ch=1 n=f#5 v=0
1115686 On ch=1 n=f#5 v=115
1115686 On ch=1 n=c5 v=115
1115686 On ch=1 n=f#4 v=115
1117164 Par ch=1 c=64 v=0
1117170 On ch=1 n=f#4 v=0
1117170 On ch=1 n=c5 v=0
1117170 On ch=1 n=f#5 v=0
1117170 On ch=1 n=g5 v=101
1117170 On ch=1 n=b4 v=101
1117170 On ch=1 n=g4 v=101
1117836 On ch=1 n=g4 v=0
1117836 On ch=1 n=b4 v=0
1117836 On ch=1 n=g5 v=0
1117836 On ch=1 n=g5 v=98
1117836 On ch=1 n=b4 v=98
1117836 On ch=1 n=g4 v=98
1118540 On ch=1 n=g4 v=0
1118540 On ch=1 n=b4 v=0
1118540 On ch=1 n=g5 v=0
1118540 On ch=1 n=f5 v=97
1118540 On ch=1 n=b4 v=97
1118540 On ch=1 n=f4 v=97
1119212 On ch=1 n=f4 v=0
1119212 On ch=1 n=b4 v=0
1119212 On ch=1 n=f5 v=0
1119212 On ch=1 n=f5 v=96
1119212 On ch=1 n=b4 v=96
1119212 On ch=1 n=f4 v=96
1119892 On ch=1 n=f4 v=0
1119892 On ch=1 n=b4 v=0
1119892 On ch=1 n=f5 v=0
1119892 On ch=1 n=f#5 v=97
1119892 On ch=1 n=a4 v=97
1119892 On ch=1 n=f#4 v=97
1120620 On ch=1 n=f#4 v=0
1120620 On ch=1 n=a4 v=0
1120620 On ch=1 n=f#5 v=0
1120620 On ch=1 n=a#5 v=104
1120620 On ch=1 n=f#5 v=104
1120620 On ch=1 n=e5 v=104
1120620 On ch=1 n=a#4 v=104
1121408 On ch=1 n=a#4 v=0
1121408 On ch=1 n=e5 v=0
1121408 On ch=1 n=f#5 v=0
1121408 On ch=1 n=a#5 v=0
1121692 On ch=1 n=b5 v=111
1121692 On ch=1 n=f#5 v=111
1121692 On ch=1 n=d5 v=111
1121692 On ch=1 n=b4 v=111
1121998 On ch=1 n=b4 v=0
1121998 On ch=1 n=d5 v=0
1121998 On ch=1 n=f#5 v=0
1121998 On ch=1 n=b5 v=0
1121998 On ch=1 n=b5 v=112
1121998 On ch=1 n=f#5 v=112
1121998 On ch=1 n=d5 v=112
1121998 On ch=1 n=b4 v=112
1122670 On ch=1 n=b4 v=0
1122670 On ch=1 n=d5 v=0
1122670 On ch=1 n=f#5 v=0
1122670 On ch=1 n=b5 v=0
1122670 On ch=1 n=g#5 v=114
1122670 On ch=1 n=e5 v=114
1122670 On ch=1 n=d5 v=114
1122670 On ch=1 n=g#4 v=114
1123348 On ch=1 n=g#4 v=0
1123348 On ch=1 n=d5 v=0
1123348 On ch=1 n=e5 v=0
1123348 On ch=1 n=g#5 v=0
1123348 On ch=1 n=g#5 v=110
1123348 On ch=1 n=e5 v=110
1123348 On ch=1 n=d5 v=110
1123348 On ch=1 n=g#4 v=110
1123974 On ch=1 n=g#4 v=0
1123974 On ch=1 n=d5 v=0
1123974 On ch=1 n=e5 v=0
1123974 On ch=1 n=g#5 v=0
1123974 On ch=1 n=a5 v=106
1123974 On ch=1 n=c#5 v=106
1123974 On ch=1 n=a4 v=106
1124620 On ch=1 n=a4 v=0
1124620 On ch=1 n=c#5 v=0
1124620 On ch=1 n=a5 v=0
1124620 On ch=1 n=c6 v=127
1124620 On ch=1 n=g#5 v=127
1124620 On ch=1 n=f#5 v=127
1124620 On ch=1 n=c5 v=127
1125284 On ch=1 n=c5 v=0
1125284 On ch=1 n=f#5 v=0
1125284 On ch=1 n=g#5 v=0
1125284 On ch=1 n=c6 v=0
1125592 On ch=1 n=c#6 v=109
1125592 On ch=1 n=g#5 v=109
1125592 On ch=1 n=f5 v=109
1125592 On ch=1 n=c#5 v=109
1125910 On ch=1 n=c#5 v=0
1125910 On ch=1 n=f5 v=0
1125910 On ch=1 n=g#5 v=0
1125910 On ch=1 n=c#6 v=0
1125910 On ch=1 n=f6 v=107
1125910 On ch=1 n=c#6 v=107
1125910 On ch=1 n=b5 v=107
1125910 On ch=1 n=f5 v=107
1126540 On ch=1 n=f5 v=0
1126540 On ch=1 n=b5 v=0
1126540 On ch=1 n=c#6 v=0
1126540 On ch=1 n=f6 v=0
1126540 On ch=1 n=f#6 v=107
1126540 On ch=1 n=a5 v=107
1126540 On ch=1 n=f#5 v=107
1127160 On ch=1 n=f#5 v=0
1127160 On ch=1 n=a5 v=0
1127160 On ch=1 n=f#6 v=0
1127160 On ch=1 n=g#6 v=107
1127160 On ch=1 n=e6 v=107
1127160 On ch=1 n=d6 v=107
1127160 On ch=1 n=g#5 v=107
1127804 On ch=1 n=g#5 v=0
1127804 On ch=1 n=d6 v=0
1127804 On ch=1 n=e6 v=0
1127804 On ch=1 n=g#6 v=0
1127804 On ch=1 n=a6 v=119
1127804 On ch=1 n=e6 v=119
1127804 On ch=1 n=c#6 v=119
1127804 On ch=1 n=a5 v=119
1128478 On ch=1 n=a5 v=0
1128478 On ch=1 n=c#6 v=0
1128478 On ch=1 n=e6 v=0
1128478 On ch=1 n=a6 v=0
1128478 On ch=1 n=a#6 v=122
1128478 On ch=1 n=f#6 v=122
1128478 On ch=1 n=e6 v=122
1128478 On ch=1 n=a#5 v=122
1129098 On ch=1 n=a#5 v=0
1129098 On ch=1 n=e6 v=0
1129098 On ch=1 n=f#6 v=0
1129098 On ch=1 n=a#6 v=0
1129098 On ch=1 n=b6 v=119
1129098 On ch=1 n=f#6 v=119
1129098 On ch=1 n=d6 v=119
1129098 On ch=1 n=b5 v=119
1129738 On ch=1 n=b5 v=0
1129738 On ch=1 n=d6 v=0
1129738 On ch=1 n=f#6 v=0
1129738 On ch=1 n=b6 v=0
1129738 On ch=1 n=c7 v=123
1129738 On ch=1 n=g#6 v=123
1129738 On ch=1 n=f#6 v=123
1129738 On ch=1 n=c6 v=123
1130390 On ch=1 n=c6 v=0
1130390 On ch=1 n=f#6 v=0
1130390 On ch=1 n=g#6 v=0
1130390 On ch=1 n=c7 v=0
1130390 On ch=1 n=c#7 v=123
1130390 On ch=1 n=g#6 v=123
1130390 On ch=1 n=f6 v=123
1130390 On ch=1 n=c#6 v=123
1131046 On ch=1 n=c#6 v=0
1131046 On ch=1 n=f6 v=0
1131046 On ch=1 n=g#6 v=0
1131046 On ch=1 n=c#7 v=0
1131046 On ch=1 n=e7 v=127
1131046 On ch=1 n=c#7 v=127
1131046 On ch=1 n=e6 v=127
1131386 Par ch=1 c=64 v=127
1131706 On ch=1 n=e6 v=0
1131706 On ch=1 n=c#7 v=0
1131706 On ch=1 n=c#7 v=127
1131706 On ch=1 n=e6 v=127
1132348 On ch=1 n=e6 v=0
1132348 On ch=1 n=c#7 v=0
1132348 On ch=1 n=c#7 v=127
1132348 On ch=1 n=e6 v=127
1132978 On ch=1 n=e6 v=0
1132978 On ch=1 n=c#7 v=0
1132978 On ch=1 n=c#7 v=127
1132978 On ch=1 n=e6 v=127
1133448 Par ch=1 c=64 v=0
1133618 On ch=1 n=e6 v=0
1133618 On ch=1 n=c#7 v=0
1133618 On ch=1 n=e7 v=0
1133618 On ch=1 n=d#7 v=127
1133618 On ch=1 n=c7 v=127
1133618 On ch=1 n=d#6 v=127
1134254 On ch=1 n=d#6 v=0
1134254 On ch=1 n=c7 v=0
1134254 On ch=1 n=c7 v=127
1134254 On ch=1 n=d#6 v=127
1134890 On ch=1 n=d#6 v=0
1134890 On ch=1 n=c7 v=0
1134890 On ch=1 n=d#7 v=0
1134890 On ch=1 n=d7 v=127
1134890 On ch=1 n=b6 v=127
1134890 On ch=1 n=d6 v=127
1135526 On ch=1 n=d6 v=0
1135526 On ch=1 n=b6 v=0
1135526 On ch=1 n=b6 v=127
1135526 On ch=1 n=d6 v=127
1136164 On ch=1 n=d6 v=0
1136164 On ch=1 n=b6 v=0
1136164 On ch=1 n=d7 v=0
1136164 On ch=1 n=c#7 v=127
1136164 On ch=1 n=a6 v=127
1136164 On ch=1 n=c#6 v=127
1136798 On ch=1 n=c#6 v=0
1136798 On ch=1 n=a6 v=0
1136798 On ch=1 n=a6 v=127
1136798 On ch=1 n=c#6 v=127
1137438 On ch=1 n=c#6 v=0
1137438 On ch=1 n=a6 v=0
1137438 On ch=1 n=c#7 v=0
1137438 On ch=1 n=b6 v=127
1137438 On ch=1 n=g#6 v=127
1137438 On ch=1 n=c#6 v=127
1137438 On ch=1 n=b5 v=127
1138090 On ch=1 n=b5 v=0
1138090 On ch=1 n=c#6 v=0
1138090 On ch=1 n=c#6 v=127
1138090 On ch=1 n=b5 v=127
1138748 On ch=1 n=b5 v=0
1138748 On ch=1 n=c#6 v=0
1138748 On ch=1 n=g#6 v=0
1138748 On ch=1 n=b6 v=0
1138748 On ch=1 n=a6 v=127
1138748 On ch=1 n=f#6 v=127
1138748 On ch=1 n=c#6 v=127
1138748 On ch=1 n=a5 v=127
1139398 On ch=1 n=a5 v=0
1139398 On ch=1 n=c#6 v=0
1139398 On ch=1 n=c#6 v=120
1139398 On ch=1 n=a5 v=120
1140076 On ch=1 n=a5 v=0
1140076 On ch=1 n=c#6 v=0
1140076 On ch=1 n=f#6 v=0
1140076 On ch=1 n=a6 v=0
1140076 On ch=1 n=c#6 v=112
1140076 On ch=1 n=f#5 v=112
1140076 On ch=1 n=d5 v=112
1140778 On ch=1 n=d5 v=0
1140778 On ch=1 n=f#5 v=0
1140778 On ch=1 n=c#6 v=0
1140778 On ch=1 n=b5 v=107
1140778 On ch=1 n=f#5 v=107
1140778 On ch=1 n=d5 v=107
1141494 On ch=1 n=d5 v=0
1141494 On ch=1 n=f#5 v=0
1141494 On ch=1 n=b5 v=0
1141494 On ch=1 n=a5 v=101
1141494 On ch=1 n=d5 v=101
1141494 On ch=1 n=b4 v=101
1142234 On ch=1 n=b4 v=0
1142234 On ch=1 n=d5 v=0
1142234 On ch=1 n=a5 v=0
1142234 On ch=1 n=g#5 v=102
1142234 On ch=1 n=d5 v=102
1142234 On ch=1 n=b4 v=102
1142938 On ch=1 n=b4 v=0
1142938 On ch=1 n=d5 v=0
1142938 On ch=1 n=g#5 v=0
1142938 On ch=1 n=f#5 v=99
1144414 On ch=1 n=f#5 v=0
1144414 On ch=1 n=a5 v=103
1145732 On ch=1 n=a5 v=0
1145732 On ch=1 n=g#5 v=96
1146812 On ch=1 n=g#5 v=0
1146812 On ch=1 n=f#5 v=97
1147118 On ch=1 n=f#5 v=0
1147118 On ch=1 n=e5 v=97
1148548 On ch=1 n=e5 v=0
1148548 On ch=1 n=f#5 v=93
1149932 On ch=1 n=f#5 v=0
1149932 On ch=1 n=d5 v=96
1151374 On ch=1 n=d5 v=0
1151374 On ch=1 n=c#5 v=93
1152458 On ch=1 n=c#5 v=0
1152458 On ch=1 n=d5 v=90
1152796 On ch=1 n=d5 v=0
1152796 On ch=1 n=c#5 v=90
1155284 On ch=1 n=c#5 v=0
1155284 On ch=1 n=c#5 v=86
1155634 On ch=1 n=c#5 v=0
1155634 On ch=1 n=c#5 v=86
1155640 Par ch=1 c=64 v=127
1156724 On ch=1 n=c#5 v=0
1156724 On ch=1 n=d5 v=84
1157074 On ch=1 n=d5 v=0
1157074 On ch=1 n=c#5 v=83
1157792 Par ch=1 c=64 v=0
1161074 On ch=1 n=c#5 v=0
1161074 On ch=1 n=d5 v=83
1161412 On ch=1 n=d5 v=0
1161412 On ch=1 n=c#5 v=83
1164280 On ch=1 n=c#5 v=0
1164280 On ch=1 n=c#5 v=82
1167216 On ch=1 n=c#5 v=0
1167216 On ch=1 n=c#5 v=82
1168680 On ch=1 n=c#5 v=0
1168680 On ch=1 n=c#5 v=82
1171314 Par ch=1 c=64 v=127
1174696 Par ch=1 c=64 v=0
1175882 Par ch=1 c=64 v=127
1183040 On ch=1 n=c#5 v=0
1183040 On ch=1 n=f#7 v=85
1183040 On ch=1 n=f#6 v=85
1196254 Par ch=1 c=64 v=0
1196270 On ch=1 n=f#6 v=0
1196270 On ch=1 n=f#7 v=0
1196270 Meta TrkEnd
TrkEnd
MTrk
0 SeqSpec 43 00 01 00
0 Meta TrkName "2Main gauche melodie"
0 PrCh ch=2 p=0
0 Par ch=2 c=10 v=82
0 Par ch=2 c=93 v=100
0 Par ch=2 c=91 v=100
0 Par ch=2 c=7 v=120
1708 On ch=2 n=d3 v=55
2154 On ch=2 n=d3 v=0
2154 On ch=2 n=c#3 v=55
2628 On ch=2 n=c#3 v=0
2628 On ch=2 n=f#3 v=57
3098 On ch=2 n=f#3 v=0
3098 On ch=2 n=f3 v=60
4458 On ch=2 n=f3 v=0
6000 On ch=2 n=d3 v=67
6472 On ch=2 n=d3 v=0
6472 On ch=2 n=c#3 v=71
6940 On ch=2 n=c#3 v=0
6940 On ch=2 n=a3 v=67
7392 On ch=2 n=a3 v=0
7392 On ch=2 n=g#3 v=65
8802 On ch=2 n=g#3 v=0
10284 On ch=2 n=d3 v=75
10580 On ch=2 n=d3 v=0
10580 On ch=2 n=c#3 v=74
10876 On ch=2 n=c#3 v=0
10876 On ch=2 n=c#3 v=73
11160 On ch=2 n=c#3 v=0
11160 On ch=2 n=f#3 v=72
11438 On ch=2 n=f#3 v=0
11438 On ch=2 n=f3 v=69
12660 On ch=2 n=f3 v=0
13784 On ch=2 n=d3 v=78
14060 On ch=2 n=d3 v=0
14060 On ch=2 n=d3 v=78
14342 On ch=2 n=d3 v=0
14342 On ch=2 n=c#3 v=78
14624 On ch=2 n=c#3 v=0
14624 On ch=2 n=c#3 v=78
14894 On ch=2 n=c#3 v=0
14894 On ch=2 n=a3 v=76
15184 On ch=2 n=a3 v=0
15184 On ch=2 n=g#3 v=77
16388 On ch=2 n=g#3 v=0
17374 On ch=2 n=d3 v=84
17658 On ch=2 n=d3 v=0
17658 On ch=2 n=d3 v=84
17942 On ch=2 n=d3 v=0
17942 On ch=2 n=c#4 v=82
17942 On ch=2 n=c#3 v=82
18232 On ch=2 n=c#3 v=0
18232 On ch=2 n=c#4 v=0
18232 On ch=2 n=c#4 v=80
18232 On ch=2 n=c#3 v=80
18508 On ch=2 n=c#3 v=0
18508 On ch=2 n=c#4 v=0
18508 On ch=2 n=f#3 v=80
18810 On ch=2 n=f#3 v=0
18810 On ch=2 n=f#3 v=81
19102 On ch=2 n=f#3 v=0
19102 On ch=2 n=f3 v=82
19390 On ch=2 n=f3 v=0
19390 On ch=2 n=f3 v=83
19668 On ch=2 n=f3 v=0
19668 On ch=2 n=d4 v=83
19668 On ch=2 n=d3 v=83
19946 On ch=2 n=d3 v=0
19946 On ch=2 n=d4 v=0
19946 On ch=2 n=d4 v=83
19946 On ch=2 n=d3 v=83
20222 On ch=2 n=d3 v=0
20222 On ch=2 n=d4 v=0
20222 On ch=2 n=c#4 v=81
20222 On ch=2 n=c#3 v=81
20500 On ch=2 n=c#3 v=0
20500 On ch=2 n=c#4 v=0
20500 On ch=2 n=c#4 v=81
20500 On ch=2 n=c#3 v=81
20786 On ch=2 n=c#3 v=0
20786 On ch=2 n=c#4 v=0
20786 On ch=2 n=a3 v=82
21068 On ch=2 n=a3 v=0
21068 On ch=2 n=a3 v=83
21340 On ch=2 n=a3 v=0
21340 On ch=2 n=g#3 v=85
21626 On ch=2 n=g#3 v=0
21626 On ch=2 n=g#3 v=84
21914 On ch=2 n=g#3 v=0
21914 On ch=2 n=d4 v=83
21914 On ch=2 n=d3 v=83
22200 On ch=2 n=d3 v=0
22200 On ch=2 n=d4 v=0
22200 On ch=2 n=d4 v=85
22200 On ch=2 n=d3 v=85
22486 On ch=2 n=d3 v=0
22486 On ch=2 n=d4 v=0
22486 On ch=2 n=c#4 v=85
22486 On ch=2 n=c#3 v=85
22758 On ch=2 n=c#3 v=0
22758 On ch=2 n=c#4 v=0
22758 On ch=2 n=c#4 v=85
22758 On ch=2 n=c#3 v=85
23032 On ch=2 n=c#3 v=0
23032 On ch=2 n=c#4 v=0
23032 On ch=2 n=f#4 v=87
23032 On ch=2 n=f#3 v=87
23316 On ch=2 n=f#3 v=0
23316 On ch=2 n=f#4 v=0
23316 On ch=2 n=f#4 v=86
23316 On ch=2 n=f#3 v=86
23596 On ch=2 n=f#3 v=0
23596 On ch=2 n=f#4 v=0
23596 On ch=2 n=f4 v=85
23596 On ch=2 n=f3 v=85
23860 On ch=2 n=f3 v=0
23860 On ch=2 n=f4 v=0
23860 On ch=2 n=f4 v=89
23860 On ch=2 n=f3 v=89
24130 On ch=2 n=f3 v=0
24130 On ch=2 n=f4 v=0
24130 On ch=2 n=a4 v=89
24130 On ch=2 n=a3 v=89
24398 On ch=2 n=a3 v=0
24398 On ch=2 n=a4 v=0
24398 On ch=2 n=a4 v=90
24398 On ch=2 n=a3 v=90
24674 On ch=2 n=a3 v=0
24674 On ch=2 n=a4 v=0
24674 On ch=2 n=g#4 v=93
24674 On ch=2 n=g#3 v=93
24940 On ch=2 n=g#3 v=0
24940 On ch=2 n=g#4 v=0
24940 On ch=2 n=g#4 v=95
24940 On ch=2 n=g#3 v=95
25220 On ch=2 n=g#3 v=0
25220 On ch=2 n=g#4 v=0
25220 On ch=2 n=d5 v=93
25220 On ch=2 n=d4 v=93
25492 On ch=2 n=d4 v=0
25492 On ch=2 n=d5 v=0
25492 On ch=2 n=d5 v=94
25492 On ch=2 n=d4 v=94
25766 On ch=2 n=d4 v=0
25766 On ch=2 n=d5 v=0
25766 On ch=2 n=c#5 v=98
25766 On ch=2 n=c#4 v=98
26026 On ch=2 n=c#4 v=0
26026 On ch=2 n=c#5 v=0
26026 On ch=2 n=c#5 v=98
26026 On ch=2 n=c#4 v=98
26310 On ch=2 n=c#4 v=0
26310 On ch=2 n=c#5 v=0
26310 On ch=2 n=a4 v=99
26310 On ch=2 n=a3 v=99
26590 On ch=2 n=a3 v=0
26590 On ch=2 n=a4 v=0
26590 On ch=2 n=a4 v=101
26590 On ch=2 n=a3 v=101
26862 On ch=2 n=a3 v=0
26862 On ch=2 n=a4 v=0
26862 On ch=2 n=g#4 v=104
26862 On ch=2 n=g#3 v=104
27138 On ch=2 n=g#3 v=0
27138 On ch=2 n=g#4 v=0
27138 On ch=2 n=g#4 v=102
27138 On ch=2 n=g#3 v=102
27400 On ch=2 n=g#3 v=0
27400 On ch=2 n=g#4 v=0
27400 On ch=2 n=d5 v=102
27400 On ch=2 n=d4 v=102
27674 On ch=2 n=d4 v=0
27674 On ch=2 n=d5 v=0
27674 On ch=2 n=d5 v=102
27674 On ch=2 n=d4 v=102
27962 On ch=2 n=d4 v=0
27962 On ch=2 n=d5 v=0
27962 On ch=2 n=c#5 v=102
27962 On ch=2 n=c#4 v=102
28246 On ch=2 n=c#4 v=0
28246 On ch=2 n=c#5 v=0
28246 On ch=2 n=c#5 v=101
28246 On ch=2 n=c#4 v=101
28504 On ch=2 n=c#4 v=0
28504 On ch=2 n=c#5 v=0
28504 On ch=2 n=f#5 v=104
28504 On ch=2 n=f#4 v=104
28784 On ch=2 n=f#4 v=0
28784 On ch=2 n=f#5 v=0
28784 On ch=2 n=f#5 v=110
28784 On ch=2 n=f#4 v=110
29074 On ch=2 n=f#4 v=0
29074 On ch=2 n=f#5 v=0
29074 On ch=2 n=f5 v=114
29074 On ch=2 n=f4 v=114
29350 On ch=2 n=f4 v=0
29350 On ch=2 n=f5 v=0
29350 On ch=2 n=f5 v=109
29350 On ch=2 n=f4 v=109
29354 Par ch=2 c=64 v=127
29646 On ch=2 n=f4 v=0
29646 On ch=2 n=f5 v=0
29788 On ch=2 n=c#6 v=126
29788 On ch=2 n=c#5 v=126
29934 On ch=2 n=c#5 v=0
29934 On ch=2 n=c#6 v=0
29934 On ch=2 n=c#6 v=126
29934 On ch=2 n=c#5 v=126
31298 Par ch=2 c=64 v=0
31304 On ch=2 n=c#5 v=0
31304 On ch=2 n=c#6 v=0
49890 Par ch=2 c=64 v=127
51034 Par ch=2 c=64 v=0
51042 Par ch=2 c=64 v=127
52932 Par ch=2 c=64 v=0
53508 Par ch=2 c=64 v=127
55886 Par ch=2 c=64 v=0
57116 Par ch=2 c=64 v=127
60606 Par ch=2 c=64 v=0
60610 On ch=2 n=f#3 v=106
60610 On ch=2 n=f#2 v=106
62456 On ch=2 n=f#2 v=0
62456 On ch=2 n=f#3 v=0
62456 On ch=2 n=e3 v=96
62456 On ch=2 n=e2 v=96
62746 On ch=2 n=e2 v=0
62746 On ch=2 n=e3 v=0
62746 On ch=2 n=d3 v=94
62746 On ch=2 n=d2 v=94
63040 On ch=2 n=d2 v=0
63040 On ch=2 n=d3 v=0
63040 On ch=2 n=c#3 v=94
63040 On ch=2 n=c#2 v=94
63612 On ch=2 n=c#2 v=0
63612 On ch=2 n=c#3 v=0
63612 On ch=2 n=d#3 v=96
63612 On ch=2 n=d#2 v=96
63918 On ch=2 n=d#2 v=0
63918 On ch=2 n=d#3 v=0
63918 On ch=2 n=f3 v=96
63918 On ch=2 n=f2 v=96
64214 On ch=2 n=f2 v=0
64214 On ch=2 n=f3 v=0
64214 On ch=2 n=f#3 v=94
64214 On ch=2 n=f#2 v=94
64832 On ch=2 n=f#2 v=0
64832 On ch=2 n=f#3 v=0
64832 On ch=2 n=f3 v=94
64832 On ch=2 n=f2 v=94
65126 On ch=2 n=f2 v=0
65126 On ch=2 n=f3 v=0
65126 On ch=2 n=f#3 v=92
65126 On ch=2 n=f#2 v=92
65404 On ch=2 n=f#2 v=0
65404 On ch=2 n=f#3 v=0
65404 On ch=2 n=f#2 v=99
65408 Par ch=2 c=64 v=127
65736 On ch=2 n=f#2 v=0
65736 On ch=2 n=a3 v=98
65888 On ch=2 n=a3 v=0
65888 On ch=2 n=g#3 v=98
66070 On ch=2 n=g#3 v=0
66070 On ch=2 n=a3 v=92
66238 On ch=2 n=a3 v=0
66238 On ch=2 n=g#3 v=92
66372 On ch=2 n=g#3 v=0
66372 On ch=2 n=a3 v=92
66532 On ch=2 n=a3 v=0
66532 On ch=2 n=g#3 v=92
66686 On ch=2 n=g#3 v=0
66686 On ch=2 n=a3 v=94
66840 On ch=2 n=a3 v=0
66840 On ch=2 n=g#3 v=94
67002 On ch=2 n=g#3 v=0
67002 On ch=2 n=a3 v=94
67160 On ch=2 n=a3 v=0
67160 On ch=2 n=g#3 v=94
67348 On ch=2 n=g#3 v=0
67348 On ch=2 n=a3 v=90
67514 On ch=2 n=a3 v=0
67514 On ch=2 n=g#3 v=90
67656 On ch=2 n=g#3 v=0
67656 On ch=2 n=g3 v=96
67820 On ch=2 n=g3 v=0
67820 On ch=2 n=g#3 v=96
67998 Par ch=2 c=64 v=0
68002 On ch=2 n=g#3 v=0
68002 On ch=2 n=a3 v=93
68002 On ch=2 n=a2 v=93
69890 On ch=2 n=a2 v=0
69890 On ch=2 n=a3 v=0
69890 On ch=2 n=g#3 v=92
69890 On ch=2 n=a2 v=92
70204 On ch=2 n=a2 v=0
70204 On ch=2 n=g#3 v=0
70204 On ch=2 n=f#3 v=90
70204 On ch=2 n=f#2 v=90
70512 On ch=2 n=f#2 v=0
70512 On ch=2 n=f#3 v=0
70512 On ch=2 n=e3 v=94
70512 On ch=2 n=e2 v=94
71152 On ch=2 n=e2 v=0
71152 On ch=2 n=e3 v=0
71152 On ch=2 n=f#3 v=91
71152 On ch=2 n=f#2 v=91
71474 On ch=2 n=f#2 v=0
71474 On ch=2 n=f#3 v=0
71474 On ch=2 n=g#3 v=91
71474 On ch=2 n=g#2 v=91
71778 On ch=2 n=g#2 v=0
71778 On ch=2 n=g#3 v=0
71778 On ch=2 n=a2 v=92
71784 Par ch=2 c=64 v=127
72092 On ch=2 n=a2 v=0
72092 On ch=2 n=b3 v=92
72246 On ch=2 n=b3 v=0
72246 On ch=2 n=a3 v=92
72396 On ch=2 n=a3 v=0
72396 On ch=2 n=b3 v=93
72550 On ch=2 n=b3 v=0
72550 On ch=2 n=a3 v=93
72698 On ch=2 n=a3 v=0
72698 On ch=2 n=g#3 v=96
72850 On ch=2 n=g#3 v=0
72850 On ch=2 n=a3 v=96
72998 Par ch=2 c=64 v=0
73002 On ch=2 n=a3 v=0
73002 On ch=2 n=c#4 v=96
73008 Par ch=2 c=64 v=127
73154 On ch=2 n=c#4 v=0
73154 On ch=2 n=b3 v=96
73300 On ch=2 n=b3 v=0
73300 On ch=2 n=c#4 v=96
73450 On ch=2 n=c#4 v=0
73450 On ch=2 n=b3 v=96
73612 On ch=2 n=b3 v=0
73612 On ch=2 n=c#4 v=95
73764 On ch=2 n=c#4 v=0
73764 On ch=2 n=b3 v=95
73908 On ch=2 n=b3 v=0
73908 On ch=2 n=a#3 v=97
74060 On ch=2 n=a#3 v=0
74060 On ch=2 n=b3 v=97
74226 Par ch=2 c=64 v=0
74230 On ch=2 n=b3 v=0
74230 On ch=2 n=c#4 v=99
74236 Par ch=2 c=64 v=127
74384 On ch=2 n=c#4 v=0
74384 On ch=2 n=c4 v=99
74520 On ch=2 n=c4 v=0
74520 On ch=2 n=c#4 v=99
74674 On ch=2 n=c#4 v=0
74674 On ch=2 n=c4 v=99
74818 On ch=2 n=c4 v=0
74818 On ch=2 n=c#4 v=99
74964 On ch=2 n=c#4 v=0
74964 On ch=2 n=c4 v=99
75120 On ch=2 n=c4 v=0
75120 On ch=2 n=b3 v=103
75270 On ch=2 n=b3 v=0
75270 On ch=2 n=c4 v=103
75464 Par ch=2 c=64 v=0
75468 On ch=2 n=c4 v=0
75474 Par ch=2 c=64 v=127
76688 Par ch=2 c=64 v=0
76698 Par ch=2 c=64 v=127
77930 Par ch=2 c=64 v=0
77940 Par ch=2 c=64 v=127
79162 Par ch=2 c=64 v=0
79170 Par ch=2 c=64 v=127
80398 Par ch=2 c=64 v=0
80408 Par ch=2 c=64 v=127
81628 Par ch=2 c=64 v=0
81638 Par ch=2 c=64 v=127
82878 Par ch=2 c=64 v=0
84124 Par ch=2 c=64 v=127
86006 Par ch=2 c=64 v=0
87874 Par ch=2 c=64 v=127
92618 Par ch=2 c=64 v=0
102666 Par ch=2 c=64 v=127
105110 Par ch=2 c=64 v=0
106284 Par ch=2 c=64 v=127
108816 Par ch=2 c=64 v=0
110140 Par ch=2 c=64 v=127
110140 Par ch=2 c=64 v=127
112630 Par ch=2 c=64 v=0
113900 Par ch=2 c=64 v=0
113910 Par ch=2 c=64 v=127
116446 Par ch=2 c=64 v=0
117670 Par ch=2 c=64 v=0
117680 Par ch=2 c=64 v=127
120158 Par ch=2 c=64 v=127
123920 Par ch=2 c=64 v=0
125312 Par ch=2 c=64 v=127
127292 Par ch=2 c=64 v=0
127982 Par ch=2 c=64 v=127
129206 Par ch=2 c=64 v=0
155736 On ch=2 n=c#5 v=115
155736 On ch=2 n=c#4 v=115
156050 On ch=2 n=c#4 v=0
156050 On ch=2 n=c#5 v=0
156050 On ch=2 n=c5 v=113
156050 On ch=2 n=c4 v=113
156386 On ch=2 n=c4 v=0
156386 On ch=2 n=c5 v=0
156386 On ch=2 n=b4 v=118
156386 On ch=2 n=b3 v=118
156700 On ch=2 n=b3 v=0
156700 On ch=2 n=b4 v=0
156700 On ch=2 n=a4 v=114
156700 On ch=2 n=a3 v=114
157026 On ch=2 n=a3 v=0
157026 On ch=2 n=a4 v=0
157026 On ch=2 n=g#4 v=114
157026 On ch=2 n=g#3 v=114
157350 On ch=2 n=g#3 v=0
157350 On ch=2 n=g#4 v=0
157350 On ch=2 n=f#4 v=119
157350 On ch=2 n=f#3 v=119
157678 On ch=2 n=f#3 v=0
157678 On ch=2 n=f#4 v=0
157678 On ch=2 n=f4 v=115
157678 On ch=2 n=f3 v=115
157996 On ch=2 n=f3 v=0
157996 On ch=2 n=f4 v=0
157996 On ch=2 n=d4 v=115
157996 On ch=2 n=d3 v=115
158318 On ch=2 n=d3 v=0
158318 On ch=2 n=d4 v=0
158318 On ch=2 n=c4 v=109
158318 On ch=2 n=c3 v=109
158630 On ch=2 n=c3 v=0
158630 On ch=2 n=c4 v=0
158630 On ch=2 n=c#4 v=111
158630 On ch=2 n=c#3 v=111
158954 On ch=2 n=c#3 v=0
158954 On ch=2 n=c#4 v=0
158954 On ch=2 n=g#3 v=114
158954 On ch=2 n=g#2 v=114
159268 On ch=2 n=g#2 v=0
159268 On ch=2 n=g#3 v=0
159268 On ch=2 n=a3 v=107
159268 On ch=2 n=a2 v=107
159594 On ch=2 n=a2 v=0
159594 On ch=2 n=a3 v=0
159594 On ch=2 n=f#3 v=111
159594 On ch=2 n=f#2 v=111
161482 On ch=2 n=f#2 v=0
161482 On ch=2 n=f#3 v=0
161482 On ch=2 n=e3 v=102
161482 On ch=2 n=e2 v=102
161848 On ch=2 n=e2 v=0
161848 On ch=2 n=e3 v=0
161848 On ch=2 n=d3 v=103
161848 On ch=2 n=d2 v=103
162208 On ch=2 n=d2 v=0
162208 On ch=2 n=d3 v=0
162208 On ch=2 n=c#3 v=103
162208 On ch=2 n=c#2 v=103
162850 On ch=2 n=c#2 v=0
162850 On ch=2 n=c#3 v=0
162850 On ch=2 n=d#3 v=98
162850 On ch=2 n=d#2 v=98
163174 On ch=2 n=d#2 v=0
163174 On ch=2 n=d#3 v=0
163174 On ch=2 n=f3 v=100
163174 On ch=2 n=f2 v=100
163466 On ch=2 n=f2 v=0
163466 On ch=2 n=f3 v=0
163466 On ch=2 n=f#3 v=98
163466 On ch=2 n=f#2 v=98
164108 On ch=2 n=f#2 v=0
164108 On ch=2 n=f#3 v=0
164108 On ch=2 n=f3 v=98
164108 On ch=2 n=f2 v=98
164454 On ch=2 n=f2 v=0
164454 On ch=2 n=f3 v=0
164454 On ch=2 n=f#3 v=94
164454 On ch=2 n=f#2 v=94
164736 On ch=2 n=f#2 v=0
164736 On ch=2 n=f#3 v=0
164736 On ch=2 n=g#2 v=97
164742 Par ch=2 c=64 v=127
165086 On ch=2 n=g#2 v=0
165086 On ch=2 n=a3 v=99
165244 On ch=2 n=a3 v=0
165244 On ch=2 n=g#3 v=99
165422 On ch=2 n=g#3 v=0
165422 On ch=2 n=a3 v=99
165594 On ch=2 n=a3 v=0
165594 On ch=2 n=g#3 v=99
165770 On ch=2 n=g#3 v=0
165770 On ch=2 n=a3 v=98
165942 On ch=2 n=a3 v=0
165942 On ch=2 n=g#3 v=98
166106 On ch=2 n=g#3 v=0
166106 On ch=2 n=a3 v=99
166278 On ch=2 n=a3 v=0
166278 On ch=2 n=g#3 v=99
166438 On ch=2 n=g#3 v=0
166438 On ch=2 n=a3 v=97
166606 On ch=2 n=a3 v=0
166606 On ch=2 n=g#3 v=97
166756 On ch=2 n=g#3 v=0
166756 On ch=2 n=a3 v=100
166918 On ch=2 n=a3 v=0
166918 On ch=2 n=g#3 v=100
167104 On ch=2 n=g#3 v=0
167104 On ch=2 n=g3 v=99
167272 On ch=2 n=g3 v=0
167272 On ch=2 n=g#3 v=99
167398 Par ch=2 c=64 v=0
167402 On ch=2 n=g#3 v=0
167402 On ch=2 n=a3 v=100
167402 On ch=2 n=a2 v=100
169410 On ch=2 n=a2 v=0
169410 On ch=2 n=a3 v=0
169410 On ch=2 n=g#3 v=99
169410 On ch=2 n=g#2 v=99
169742 On ch=2 n=g#2 v=0
169742 On ch=2 n=g#3 v=0
169742 On ch=2 n=f#3 v=100
169742 On ch=2 n=f#2 v=100
170050 On ch=2 n=f#2 v=0
170050 On ch=2 n=f#3 v=0
170050 On ch=2 n=e3 v=100
170050 On ch=2 n=e2 v=100
170706 On ch=2 n=e2 v=0
170706 On ch=2 n=e3 v=0
170706 On ch=2 n=f#3 v=100
170706 On ch=2 n=f#2 v=100
171042 On ch=2 n=f#2 v=0
171042 On ch=2 n=f#3 v=0
171042 On ch=2 n=g#3 v=99
171042 On ch=2 n=g#2 v=99
171362 On ch=2 n=g#2 v=0
171362 On ch=2 n=g#3 v=0
171362 On ch=2 n=a2 v=100
171368 Par ch=2 c=64 v=127
171682 On ch=2 n=a2 v=0
171682 On ch=2 n=b3 v=100
171842 On ch=2 n=b3 v=0
171842 On ch=2 n=a3 v=100
171984 On ch=2 n=a3 v=0
171984 On ch=2 n=b3 v=102
172140 On ch=2 n=b3 v=0
172140 On ch=2 n=a3 v=102
172328 On ch=2 n=a3 v=0
172328 On ch=2 n=g#3 v=100
172490 On ch=2 n=g#3 v=0
172490 On ch=2 n=a3 v=100
172658 Par ch=2 c=64 v=0
172662 On ch=2 n=a3 v=0
172662 On ch=2 n=c#4 v=106
172668 Par ch=2 c=64 v=127
172832 On ch=2 n=c#4 v=0
172832 On ch=2 n=b3 v=106
172972 On ch=2 n=b3 v=0
172972 On ch=2 n=c#4 v=110
173134 On ch=2 n=c#4 v=0
173134 On ch=2 n=b3 v=110
173294 On ch=2 n=b3 v=0
173294 On ch=2 n=c#4 v=105
173452 On ch=2 n=c#4 v=0
173452 On ch=2 n=b3 v=105
173630 On ch=2 n=b3 v=0
173630 On ch=2 n=a#3 v=109
173794 On ch=2 n=a#3 v=0
173794 On ch=2 n=b3 v=109
173966 Par ch=2 c=64 v=0
173970 On ch=2 n=b3 v=0
173970 On ch=2 n=c#4 v=111
173976 Par ch=2 c=64 v=127
174140 On ch=2 n=c#4 v=0
174140 On ch=2 n=c4 v=111
174276 On ch=2 n=c4 v=0
174276 On ch=2 n=c#4 v=114
174438 On ch=2 n=c#4 v=0
174438 On ch=2 n=c4 v=114
174600 On ch=2 n=c4 v=0
174600 On ch=2 n=c#4 v=106
174758 On ch=2 n=c#4 v=0
174758 On ch=2 n=c4 v=106
174930 On ch=2 n=c4 v=0
174930 On ch=2 n=a#3 v=115
175094 On ch=2 n=a#3 v=0
175094 On ch=2 n=c4 v=115
175252 Par ch=2 c=64 v=0
175256 On ch=2 n=c4 v=0
175256 On ch=2 n=c#4 v=123
175256 On ch=2 n=c#3 v=123
175262 Par ch=2 c=64 v=127
175886 On ch=2 n=c#3 v=0
175886 On ch=2 n=c#4 v=0
175886 On ch=2 n=b4 v=116
175886 On ch=2 n=g#4 v=116
175886 On ch=2 n=c#4 v=116
176546 Par ch=2 c=64 v=0
176550 On ch=2 n=c#4 v=0
176550 On ch=2 n=g#4 v=0
176550 On ch=2 n=b4 v=0
176550 On ch=2 n=f#3 v=123
176550 On ch=2 n=f#2 v=123
176556 Par ch=2 c=64 v=127
177186 On ch=2 n=f#2 v=0
177186 On ch=2 n=f#3 v=0
177186 On ch=2 n=c#5 v=116
177186 On ch=2 n=f#4 v=116
177186 On ch=2 n=c#4 v=116
177830 Par ch=2 c=64 v=0
177834 On ch=2 n=c#4 v=0
177834 On ch=2 n=f#4 v=0
177834 On ch=2 n=c#5 v=0
177834 On ch=2 n=b3 v=118
177834 On ch=2 n=b2 v=118
177840 Par ch=2 c=64 v=127
178494 On ch=2 n=b2 v=0
178494 On ch=2 n=b3 v=0
178494 On ch=2 n=d5 v=116
178494 On ch=2 n=g#4 v=116
178494 On ch=2 n=f#4 v=116
179130 Par ch=2 c=64 v=0
179134 On ch=2 n=f#4 v=0
179134 On ch=2 n=g#4 v=0
179134 On ch=2 n=d5 v=0
179134 On ch=2 n=c#4 v=115
179134 On ch=2 n=c#3 v=115
179140 Par ch=2 c=64 v=127
179798 On ch=2 n=c#3 v=0
179798 On ch=2 n=c#4 v=0
179798 On ch=2 n=b4 v=112
179798 On ch=2 n=g#4 v=112
179798 On ch=2 n=c#4 v=112
180408 Par ch=2 c=64 v=0
180412 On ch=2 n=c#4 v=0
180412 On ch=2 n=g#4 v=0
180412 On ch=2 n=b4 v=0
180412 On ch=2 n=f#3 v=109
180412 On ch=2 n=f#2 v=109
180418 Par ch=2 c=64 v=127
181094 On ch=2 n=f#2 v=0
181094 On ch=2 n=f#3 v=0
181094 On ch=2 n=c#5 v=112
181094 On ch=2 n=f#4 v=112
181094 On ch=2 n=c#4 v=112
181708 Par ch=2 c=64 v=0
181712 On ch=2 n=c#4 v=0
181712 On ch=2 n=f#4 v=0
181712 On ch=2 n=c#5 v=0
181712 On ch=2 n=b3 v=113
181712 On ch=2 n=b2 v=113
181718 Par ch=2 c=64 v=127
182406 On ch=2 n=b2 v=0
182406 On ch=2 n=b3 v=0
182406 On ch=2 n=d5 v=114
182406 On ch=2 n=g#4 v=114
182406 On ch=2 n=f#4 v=114
183024 Par ch=2 c=64 v=0
183028 On ch=2 n=f#4 v=0
183028 On ch=2 n=g#4 v=0
183028 On ch=2 n=d5 v=0
183028 On ch=2 n=a4 v=109
183028 On ch=2 n=d4 v=109
183028 On ch=2 n=a3 v=109
183692 On ch=2 n=a3 v=0
183692 On ch=2 n=d4 v=0
183692 On ch=2 n=a4 v=0
183692 On ch=2 n=g#4 v=113
183692 On ch=2 n=g#3 v=113
183984 On ch=2 n=g#3 v=0
183984 On ch=2 n=g#4 v=0
183984 On ch=2 n=f#4 v=109
183984 On ch=2 n=f#3 v=109
184308 On ch=2 n=f#3 v=0
184308 On ch=2 n=f#4 v=0
184308 On ch=2 n=f#5 v=127
184308 On ch=2 n=f#4 v=127
184314 Par ch=2 c=64 v=127
184978 On ch=2 n=f#4 v=0
184978 On ch=2 n=f#5 v=0
184978 On ch=2 n=b3 v=115
184978 On ch=2 n=b2 v=115
185660 Par ch=2 c=64 v=0
185664 On ch=2 n=b2 v=0
185664 On ch=2 n=b3 v=0
185664 On ch=2 n=d4 v=123
185664 On ch=2 n=g#3 v=123
186328 On ch=2 n=g#3 v=0
186328 On ch=2 n=d4 v=0
186328 On ch=2 n=f#4 v=116
186328 On ch=2 n=f#3 v=116
186646 On ch=2 n=f#3 v=0
186646 On ch=2 n=f#4 v=0
186646 On ch=2 n=g#4 v=116
186646 On ch=2 n=g#3 v=116
186972 On ch=2 n=g#3 v=0
186972 On ch=2 n=g#4 v=0
186972 On ch=2 n=b4 v=124
186972 On ch=2 n=d4 v=124
186972 On ch=2 n=b3 v=124
187414 On ch=2 n=b3 v=0
187414 On ch=2 n=d4 v=0
187414 On ch=2 n=b4 v=0
187414 On ch=2 n=a4 v=123
187414 On ch=2 n=a3 v=123
187546 On ch=2 n=a3 v=0
187546 On ch=2 n=a4 v=0
187546 On ch=2 n=a4 v=116
187546 On ch=2 n=d4 v=116
187546 On ch=2 n=a3 v=116
187738 On ch=2 n=a3 v=0
187738 On ch=2 n=d4 v=0
187738 On ch=2 n=a4 v=0
187738 On ch=2 n=g#4 v=116
187738 On ch=2 n=g#3 v=116
187958 On ch=2 n=g#3 v=0
187958 On ch=2 n=g#4 v=0
187958 On ch=2 n=f#4 v=112
187958 On ch=2 n=f#3 v=112
188166 On ch=2 n=f#3 v=0
188166 On ch=2 n=f#4 v=0
188166 On ch=2 n=a5 v=118
188166 On ch=2 n=a4 v=118
188172 Par ch=2 c=64 v=127
188852 On ch=2 n=a4 v=0
188852 On ch=2 n=a5 v=0
188852 On ch=2 n=d3 v=116
188852 On ch=2 n=d2 v=116
190324 On ch=2 n=d2 v=0
190324 On ch=2 n=d3 v=0
190324 On ch=2 n=d4 v=111
190324 On ch=2 n=d3 v=111
191686 On ch=2 n=d3 v=0
191686 On ch=2 n=d4 v=0
191686 On ch=2 n=d4 v=109
191686 On ch=2 n=d3 v=109
193044 Par ch=2 c=64 v=0
193048 On ch=2 n=d3 v=0
193048 On ch=2 n=d4 v=0
193048 On ch=2 n=g3 v=113
193048 On ch=2 n=g2 v=113
193716 On ch=2 n=g2 v=0
193716 On ch=2 n=g3 v=0
193716 On ch=2 n=g3 v=113
193716 On ch=2 n=g2 v=113
194406 On ch=2 n=g2 v=0
194406 On ch=2 n=g3 v=0
194406 On ch=2 n=c#4 v=105
194406 On ch=2 n=c#3 v=105
195062 On ch=2 n=c#3 v=0
195062 On ch=2 n=c#4 v=0
195062 On ch=2 n=c#4 v=101
195062 On ch=2 n=c#3 v=101
195704 On ch=2 n=c#3 v=0
195704 On ch=2 n=c#4 v=0
195704 On ch=2 n=f#3 v=101
195704 On ch=2 n=f#2 v=101
196328 On ch=2 n=f#2 v=0
196328 On ch=2 n=f#3 v=0
196328 On ch=2 n=c#3 v=123
197032 On ch=2 n=c#3 v=0
197032 On ch=2 n=g#2 v=112
197386 On ch=2 n=g#2 v=0
197386 On ch=2 n=a2 v=109
197712 On ch=2 n=a2 v=0
197712 On ch=2 n=f#2 v=109
198396 On ch=2 n=f#2 v=0
198396 On ch=2 n=f3 v=108
198396 On ch=2 n=f2 v=108
199094 On ch=2 n=f2 v=0
199094 On ch=2 n=f3 v=0
199094 On ch=2 n=f3 v=124
199094 On ch=2 n=f2 v=124
199100 Par ch=2 c=64 v=127
199810 On ch=2 n=f2 v=0
199810 On ch=2 n=f3 v=0
199810 On ch=2 n=a#4 v=103
199810 On ch=2 n=c#4 v=103
200146 On ch=2 n=c#4 v=0
200146 On ch=2 n=a#4 v=0
200146 On ch=2 n=a#4 v=106
200146 On ch=2 n=c#4 v=106
200456 On ch=2 n=c#4 v=0
200456 On ch=2 n=a#4 v=0
200456 On ch=2 n=a#4 v=104
200456 On ch=2 n=c#4 v=104
201128 Par ch=2 c=64 v=0
201132 On ch=2 n=c#4 v=0
201132 On ch=2 n=a#4 v=0
201132 On ch=2 n=a#4 v=113
201818 On ch=2 n=a#4 v=0
201818 On ch=2 n=c5 v=119
201818 On ch=2 n=f4 v=119
201818 On ch=2 n=c4 v=119
202434 On ch=2 n=c4 v=0
202434 On ch=2 n=f4 v=0
202434 On ch=2 n=c5 v=0
202434 On ch=2 n=f4 v=114
202434 On ch=2 n=d#4 v=114
203070 On ch=2 n=d#4 v=0
203070 On ch=2 n=f4 v=0
228392 On ch=2 n=f#3 v=124
228392 On ch=2 n=f#2 v=124
229048 On ch=2 n=f#2 v=0
229048 On ch=2 n=f#3 v=0
229048 On ch=2 n=f3 v=107
229048 On ch=2 n=f3 v=107
229180 On ch=2 n=f3 v=0
229180 On ch=2 n=f3 v=0
229180 On ch=2 n=f#3 v=107
229180 On ch=2 n=f#3 v=107
229310 On ch=2 n=f#3 v=0
229310 On ch=2 n=f#3 v=0
229310 On ch=2 n=g#3 v=107
229310 On ch=2 n=g#3 v=107
229380 On ch=2 n=g#3 v=0
229380 On ch=2 n=g#3 v=0
229380 On ch=2 n=a3 v=115
229380 On ch=2 n=a3 v=115
229498 On ch=2 n=a3 v=0
229498 On ch=2 n=a3 v=0
229498 On ch=2 n=b3 v=115
229498 On ch=2 n=b3 v=115
229612 On ch=2 n=b3 v=0
229612 On ch=2 n=b3 v=0
229612 On ch=2 n=c#4 v=126
229612 On ch=2 n=c#4 v=126
229724 On ch=2 n=c#4 v=0
229724 On ch=2 n=c#4 v=0
229724 On ch=2 n=d#4 v=126
229724 On ch=2 n=d#4 v=126
229838 On ch=2 n=d#4 v=0
229838 On ch=2 n=d#4 v=0
229838 On ch=2 n=f4 v=126
229838 On ch=2 n=f4 v=126
230030 On ch=2 n=f4 v=0
230030 On ch=2 n=f4 v=0
230030 On ch=2 n=f#4 v=126
230030 On ch=2 n=f#4 v=126
230160 On ch=2 n=f#4 v=0
230160 On ch=2 n=f#4 v=0
230160 On ch=2 n=g#4 v=126
230160 On ch=2 n=g#4 v=126
230278 On ch=2 n=g#4 v=0
230278 On ch=2 n=g#4 v=0
230278 On ch=2 n=a4 v=127
230896 On ch=2 n=a4 v=0
230896 On ch=2 n=b4 v=127
230896 On ch=2 n=f4 v=127
230902 Par ch=2 c=64 v=127
231506 On ch=2 n=f4 v=0
231506 On ch=2 n=b4 v=0
231506 On ch=2 n=c#4 v=118
231506 On ch=2 n=c#3 v=118
232098 Par ch=2 c=64 v=0
232102 On ch=2 n=c#3 v=0
232102 On ch=2 n=c#4 v=0
232102 On ch=2 n=f#3 v=127
232102 On ch=2 n=f#2 v=127
232786 On ch=2 n=f#2 v=0
232786 On ch=2 n=f#3 v=0
232786 On ch=2 n=f3 v=115
232924 On ch=2 n=f3 v=0
232924 On ch=2 n=f#3 v=115
233060 On ch=2 n=f#3 v=0
233060 On ch=2 n=g#3 v=115
233190 On ch=2 n=g#3 v=0
233190 On ch=2 n=a3 v=111
233324 On ch=2 n=a3 v=0
233324 On ch=2 n=b3 v=111
233428 On ch=2 n=b3 v=0
233428 On ch=2 n=c#4 v=113
233556 On ch=2 n=c#4 v=0
233556 On ch=2 n=d#4 v=113
233686 On ch=2 n=d#4 v=0
233686 On ch=2 n=f4 v=113
233830 On ch=2 n=f4 v=0
233830 On ch=2 n=f#4 v=118
233960 On ch=2 n=f#4 v=0
233960 On ch=2 n=g#4 v=118
234094 On ch=2 n=g#4 v=0
234094 On ch=2 n=a4 v=123
234678 On ch=2 n=a4 v=0
234678 On ch=2 n=d5 v=127
234678 On ch=2 n=b4 v=127
234678 On ch=2 n=f#4 v=127
234678 On ch=2 n=d4 v=127
234682 Par ch=2 c=64 v=127
235350 On ch=2 n=d4 v=0
235350 On ch=2 n=f#4 v=0
235350 On ch=2 n=b4 v=0
235350 On ch=2 n=d5 v=0
235350 On ch=2 n=b3 v=124
235350 On ch=2 n=b2 v=124
235902 Par ch=2 c=64 v=0
235906 On ch=2 n=b2 v=0
235906 On ch=2 n=b3 v=0
235906 On ch=2 n=f#3 v=120
235906 On ch=2 n=f#2 v=120
236608 On ch=2 n=f#2 v=0
236608 On ch=2 n=f#3 v=0
236608 On ch=2 n=f3 v=111
236750 On ch=2 n=f3 v=0
236750 On ch=2 n=f#3 v=111
236890 On ch=2 n=f#3 v=0
236890 On ch=2 n=g#3 v=111
236984 On ch=2 n=g#3 v=0
236984 On ch=2 n=a3 v=105
237114 On ch=2 n=a3 v=0
237114 On ch=2 n=b3 v=105
237200 On ch=2 n=b3 v=0
237200 On ch=2 n=c#4 v=104
237318 On ch=2 n=c#4 v=0
237318 On ch=2 n=d#4 v=104
237436 On ch=2 n=d#4 v=0
237436 On ch=2 n=f4 v=104
237596 On ch=2 n=f4 v=0
237596 On ch=2 n=f#4 v=108
237718 On ch=2 n=f#4 v=0
237718 On ch=2 n=g#4 v=108
237870 On ch=2 n=g#4 v=0
237870 On ch=2 n=a4 v=112
238472 On ch=2 n=a4 v=0
238472 On ch=2 n=d5 v=120
238472 On ch=2 n=b4 v=120
238472 On ch=2 n=g#4 v=120
238472 On ch=2 n=d4 v=120
238478 Par ch=2 c=64 v=127
239148 On ch=2 n=d4 v=0
239148 On ch=2 n=g#4 v=0
239148 On ch=2 n=b4 v=0
239148 On ch=2 n=d5 v=0
239148 On ch=2 n=b3 v=113
239148 On ch=2 n=b2 v=113
239726 Par ch=2 c=64 v=0
239730 On ch=2 n=b2 v=0
239730 On ch=2 n=b3 v=0
239730 On ch=2 n=f#3 v=123
239730 On ch=2 n=f#2 v=123
240440 On ch=2 n=f#2 v=0
240440 On ch=2 n=f#3 v=0
240440 On ch=2 n=f3 v=106
240582 On ch=2 n=f3 v=0
240582 On ch=2 n=f#3 v=106
240724 On ch=2 n=f#3 v=0
240724 On ch=2 n=g#3 v=106
240808 On ch=2 n=g#3 v=0
240808 On ch=2 n=a3 v=107
240934 On ch=2 n=a3 v=0
240934 On ch=2 n=b3 v=107
241048 On ch=2 n=b3 v=0
241048 On ch=2 n=c#4 v=107
241170 On ch=2 n=c#4 v=0
241170 On ch=2 n=d#4 v=107
241292 On ch=2 n=d#4 v=0
241292 On ch=2 n=f4 v=107
241468 On ch=2 n=f4 v=0
241468 On ch=2 n=f#4 v=109
241600 On ch=2 n=f#4 v=0
241600 On ch=2 n=g#4 v=109
241720 On ch=2 n=g#4 v=0
241720 On ch=2 n=a4 v=115
242328 On ch=2 n=a4 v=0
242328 On ch=2 n=f#5 v=124
242328 On ch=2 n=d5 v=124
242328 On ch=2 n=b4 v=124
242328 On ch=2 n=f#4 v=124
242334 Par ch=2 c=64 v=127
242970 On ch=2 n=f#4 v=0
242970 On ch=2 n=b4 v=0
242970 On ch=2 n=d5 v=0
242970 On ch=2 n=f#5 v=0
242970 On ch=2 n=b3 v=114
242970 On ch=2 n=b2 v=114
243590 Par ch=2 c=64 v=0
243594 On ch=2 n=b2 v=0
243594 On ch=2 n=b3 v=0
243594 On ch=2 n=f#3 v=124
243594 On ch=2 n=f#2 v=124
244302 On ch=2 n=f#2 v=0
244302 On ch=2 n=f#3 v=0
244302 On ch=2 n=c#5 v=120
244302 On ch=2 n=a4 v=120
244302 On ch=2 n=f#4 v=120
244302 On ch=2 n=c#4 v=120
244908 On ch=2 n=c#4 v=0
244908 On ch=2 n=f#4 v=0
244908 On ch=2 n=a4 v=0
244908 On ch=2 n=c#5 v=0
244908 On ch=2 n=c4 v=126
244908 On ch=2 n=c3 v=126
244914 Par ch=2 c=64 v=127
245562 On ch=2 n=c3 v=0
245562 On ch=2 n=c4 v=0
245562 On ch=2 n=d5 v=119
245562 On ch=2 n=a4 v=119
245562 On ch=2 n=f#4 v=119
245886 On ch=2 n=f#4 v=0
245886 On ch=2 n=a4 v=0
245886 On ch=2 n=d5 v=0
245886 On ch=2 n=d5 v=113
245886 On ch=2 n=a4 v=113
245886 On ch=2 n=f#4 v=113
246176 On ch=2 n=f#4 v=0
246176 On ch=2 n=a4 v=0
246176 On ch=2 n=d5 v=0
246176 On ch=2 n=d5 v=112
246176 On ch=2 n=a4 v=112
246176 On ch=2 n=f#4 v=112
246808 Par ch=2 c=64 v=0
246812 On ch=2 n=f#4 v=0
246812 On ch=2 n=a4 v=0
246812 On ch=2 n=d5 v=0
246812 On ch=2 n=c#4 v=124
246812 On ch=2 n=c#3 v=124
247122 On ch=2 n=c#3 v=0
247122 On ch=2 n=c#4 v=0
247122 On ch=2 n=d4 v=126
247122 On ch=2 n=d3 v=126
247404 On ch=2 n=d3 v=0
247404 On ch=2 n=d4 v=0
247404 On ch=2 n=c#4 v=123
247404 On ch=2 n=c#3 v=123
247692 On ch=2 n=c#3 v=0
247692 On ch=2 n=c#4 v=0
247692 On ch=2 n=d4 v=115
247692 On ch=2 n=d3 v=115
247992 On ch=2 n=d3 v=0
247992 On ch=2 n=d4 v=0
247992 On ch=2 n=c#4 v=116
247992 On ch=2 n=c#3 v=116
248304 On ch=2 n=c#3 v=0
248304 On ch=2 n=c#4 v=0
248304 On ch=2 n=a3 v=123
248304 On ch=2 n=a2 v=123
248596 On ch=2 n=a2 v=0
248596 On ch=2 n=a3 v=0
248596 On ch=2 n=f#3 v=127
248596 On ch=2 n=f#2 v=127
248602 Par ch=2 c=64 v=127
249258 On ch=2 n=f#2 v=0
249258 On ch=2 n=f#3 v=0
249258 On ch=2 n=d#5 v=115
249258 On ch=2 n=c#5 v=115
249258 On ch=2 n=f#4 v=115
249566 On ch=2 n=f#4 v=0
249566 On ch=2 n=c#5 v=0
249566 On ch=2 n=d#5 v=0
249566 On ch=2 n=d#5 v=110
249566 On ch=2 n=c#5 v=110
249566 On ch=2 n=f#4 v=110
249860 On ch=2 n=f#4 v=0
249860 On ch=2 n=c#5 v=0
249860 On ch=2 n=d#5 v=0
249860 On ch=2 n=d#5 v=113
249860 On ch=2 n=c#5 v=113
249860 On ch=2 n=f#4 v=113
250532 Par ch=2 c=64 v=0
250536 On ch=2 n=f#4 v=0
250536 On ch=2 n=c#5 v=0
250536 On ch=2 n=d#5 v=0
250536 On ch=2 n=g#3 v=120
250536 On ch=2 n=g#2 v=120
250850 On ch=2 n=g#2 v=0
250850 On ch=2 n=g#3 v=0
250850 On ch=2 n=a3 v=124
250850 On ch=2 n=a2 v=124
251140 On ch=2 n=a2 v=0
251140 On ch=2 n=a3 v=0
251140 On ch=2 n=g#3 v=126
251140 On ch=2 n=g#2 v=126
251146 Par ch=2 c=64 v=127
251716 On ch=2 n=g#2 v=0
251716 On ch=2 n=e5 v=123
251716 On ch=2 n=c#5 v=123
251716 On ch=2 n=g#4 v=123
251716 On ch=2 n=e4 v=123
251996 On ch=2 n=e4 v=0
251996 On ch=2 n=g#4 v=0
251996 On ch=2 n=c#5 v=0
251996 On ch=2 n=e5 v=0
251996 On ch=2 n=e5 v=123
251996 On ch=2 n=c#5 v=123
251996 On ch=2 n=g#4 v=123
251996 On ch=2 n=e4 v=123
252294 On ch=2 n=e4 v=0
252294 On ch=2 n=g#4 v=0
252294 On ch=2 n=c#5 v=0
252294 On ch=2 n=e5 v=0
252294 On ch=2 n=g#3 v=0
252294 On ch=2 n=e5 v=123
252294 On ch=2 n=c#5 v=123
252294 On ch=2 n=g#4 v=123
252294 On ch=2 n=e4 v=123
252920 On ch=2 n=e4 v=0
252920 On ch=2 n=g#4 v=0
252920 On ch=2 n=c#5 v=0
252920 On ch=2 n=e5 v=0
252920 On ch=2 n=e5 v=127
252920 On ch=2 n=c#5 v=127
252920 On ch=2 n=g#4 v=127
252920 On ch=2 n=e4 v=127
253542 Par ch=2 c=64 v=0
253546 On ch=2 n=e4 v=0
253546 On ch=2 n=g#4 v=0
253546 On ch=2 n=c#5 v=0
253546 On ch=2 n=e5 v=0
253546 On ch=2 n=g#3 v=123
253546 On ch=2 n=g#2 v=123
253552 Par ch=2 c=64 v=127
254162 On ch=2 n=g#2 v=0
254162 On ch=2 n=g#3 v=0
254162 On ch=2 n=c5 v=120
254162 On ch=2 n=g#4 v=120
254162 On ch=2 n=f#4 v=120
254162 On ch=2 n=d#4 v=120
254822 Par ch=2 c=64 v=0
254826 On ch=2 n=d#4 v=0
254826 On ch=2 n=f#4 v=0
254826 On ch=2 n=g#4 v=0
254826 On ch=2 n=c5 v=0
254826 On ch=2 n=c#5 v=115
254826 On ch=2 n=c#4 v=115
255138 On ch=2 n=c#4 v=0
255138 On ch=2 n=c#5 v=0
255138 On ch=2 n=c5 v=116
255138 On ch=2 n=c4 v=116
255454 On ch=2 n=c4 v=0
255454 On ch=2 n=c5 v=0
255454 On ch=2 n=b4 v=115
255454 On ch=2 n=b3 v=115
255764 On ch=2 n=b3 v=0
255764 On ch=2 n=b4 v=0
255764 On ch=2 n=a4 v=115
255764 On ch=2 n=a3 v=115
256096 On ch=2 n=a3 v=0
256096 On ch=2 n=a4 v=0
256096 On ch=2 n=g#4 v=114
256096 On ch=2 n=g#3 v=114
256424 On ch=2 n=g#3 v=0
256424 On ch=2 n=g#4 v=0
256424 On ch=2 n=f#4 v=112
256424 On ch=2 n=f#3 v=112
256726 On ch=2 n=f#3 v=0
256726 On ch=2 n=f#4 v=0
256726 On ch=2 n=f4 v=113
256726 On ch=2 n=f3 v=113
257050 On ch=2 n=f3 v=0
257050 On ch=2 n=f4 v=0
257050 On ch=2 n=d4 v=113
257050 On ch=2 n=d3 v=113
257356 On ch=2 n=d3 v=0
257356 On ch=2 n=d4 v=0
257356 On ch=2 n=c4 v=113
257356 On ch=2 n=c3 v=113
257688 On ch=2 n=c3 v=0
257688 On ch=2 n=c4 v=0
257688 On ch=2 n=c#4 v=109
257688 On ch=2 n=c#3 v=109
257982 On ch=2 n=c#3 v=0
257982 On ch=2 n=c#4 v=0
257982 On ch=2 n=g#3 v=111
257982 On ch=2 n=g#2 v=111
258288 On ch=2 n=g#2 v=0
258288 On ch=2 n=g#3 v=0
258288 On ch=2 n=a3 v=109
258288 On ch=2 n=a2 v=109
258600 On ch=2 n=a2 v=0
258600 On ch=2 n=a3 v=0
258600 On ch=2 n=f#3 v=113
258600 On ch=2 n=f#2 v=113
258606 Par ch=2 c=64 v=127
260574 Par ch=2 c=64 v=0
260578 On ch=2 n=f#2 v=0
260578 On ch=2 n=f#3 v=0
260578 On ch=2 n=e3 v=94
260578 On ch=2 n=e2 v=94
260892 On ch=2 n=e2 v=0
260892 On ch=2 n=e3 v=0
260892 On ch=2 n=d3 v=100
260892 On ch=2 n=d2 v=100
261210 On ch=2 n=d2 v=0
261210 On ch=2 n=d3 v=0
261210 On ch=2 n=c#3 v=99
261210 On ch=2 n=c#2 v=99
261876 On ch=2 n=c#2 v=0
261876 On ch=2 n=c#3 v=0
261876 On ch=2 n=d#3 v=96
261876 On ch=2 n=d#2 v=96
262204 On ch=2 n=d#2 v=0
262204 On ch=2 n=d#3 v=0
262204 On ch=2 n=f3 v=97
262204 On ch=2 n=f2 v=97
262526 On ch=2 n=f2 v=0
262526 On ch=2 n=f3 v=0
262526 On ch=2 n=f#3 v=99
262526 On ch=2 n=f#2 v=99
263192 On ch=2 n=f#2 v=0
263192 On ch=2 n=f#3 v=0
263192 On ch=2 n=f3 v=99
263192 On ch=2 n=f2 v=99
263518 On ch=2 n=f2 v=0
263518 On ch=2 n=f3 v=0
263518 On ch=2 n=f#3 v=99
263518 On ch=2 n=f#2 v=99
263858 On ch=2 n=f#2 v=0
263858 On ch=2 n=f#3 v=0
263858 On ch=2 n=g#2 v=99
263864 Par ch=2 c=64 v=127
264208 On ch=2 n=g#2 v=0
264208 On ch=2 n=a3 v=97
264382 On ch=2 n=a3 v=0
264382 On ch=2 n=g#3 v=97
264556 On ch=2 n=g#3 v=0
264556 On ch=2 n=a3 v=97
264732 On ch=2 n=a3 v=0
264732 On ch=2 n=g#3 v=97
264888 On ch=2 n=g#3 v=0
264888 On ch=2 n=a3 v=96
265058 On ch=2 n=a3 v=0
265058 On ch=2 n=g#3 v=96
265224 On ch=2 n=g#3 v=0
265224 On ch=2 n=a3 v=95
265392 On ch=2 n=a3 v=0
265392 On ch=2 n=g#3 v=95
265542 On ch=2 n=g#3 v=0
265542 On ch=2 n=a3 v=97
265706 On ch=2 n=a3 v=0
265706 On ch=2 n=g#3 v=97
265872 On ch=2 n=g#3 v=0
265872 On ch=2 n=a3 v=97
266034 On ch=2 n=a3 v=0
266034 On ch=2 n=g#3 v=97
266216 On ch=2 n=g#3 v=0
266216 On ch=2 n=g3 v=97
266386 On ch=2 n=g3 v=0
266386 On ch=2 n=g#3 v=97
266556 Par ch=2 c=64 v=0
266560 On ch=2 n=g#3 v=0
266560 On ch=2 n=a3 v=101
266560 On ch=2 n=a2 v=101
266566 Par ch=2 c=64 v=127
268594 Par ch=2 c=64 v=0
268598 On ch=2 n=a2 v=0
268598 On ch=2 n=a3 v=0
268598 On ch=2 n=g#3 v=99
268598 On ch=2 n=g#2 v=99
268942 On ch=2 n=g#2 v=0
268942 On ch=2 n=g#3 v=0
268942 On ch=2 n=f#3 v=98
268942 On ch=2 n=f#2 v=98
269284 On ch=2 n=f#2 v=0
269284 On ch=2 n=f#3 v=0
269284 On ch=2 n=e3 v=97
269284 On ch=2 n=e2 v=97
269930 On ch=2 n=e2 v=0
269930 On ch=2 n=e3 v=0
269930 On ch=2 n=f#3 v=99
269930 On ch=2 n=f#2 v=99
270266 On ch=2 n=f#2 v=0
270266 On ch=2 n=f#3 v=0
270266 On ch=2 n=g#3 v=93
270266 On ch=2 n=g#2 v=93
270574 On ch=2 n=g#2 v=0
270574 On ch=2 n=g#3 v=0
270574 On ch=2 n=a2 v=97
270920 On ch=2 n=a2 v=0
270920 On ch=2 n=b3 v=95
271084 On ch=2 n=b3 v=0
271084 On ch=2 n=a3 v=95
271250 On ch=2 n=a3 v=0
271250 On ch=2 n=b3 v=97
271420 On ch=2 n=b3 v=0
271420 On ch=2 n=a3 v=97
271570 On ch=2 n=a3 v=0
271570 On ch=2 n=g#3 v=101
271732 On ch=2 n=g#3 v=0
271732 On ch=2 n=a3 v=101
271902 On ch=2 n=a3 v=0
271902 On ch=2 n=c#4 v=104
272066 On ch=2 n=c#4 v=0
272066 On ch=2 n=b3 v=104
272228 On ch=2 n=b3 v=0
272228 On ch=2 n=c#4 v=105
272392 On ch=2 n=c#4 v=0
272392 On ch=2 n=b3 v=105
272560 On ch=2 n=b3 v=0
272560 On ch=2 n=c#4 v=106
272724 On ch=2 n=c#4 v=0
272724 On ch=2 n=b3 v=106
272898 On ch=2 n=b3 v=0
272898 On ch=2 n=a#3 v=109
273066 On ch=2 n=a#3 v=0
273066 On ch=2 n=b3 v=109
273230 On ch=2 n=b3 v=0
273230 On ch=2 n=c#4 v=111
273398 On ch=2 n=c#4 v=0
273398 On ch=2 n=c4 v=111
273564 On ch=2 n=c4 v=0
273564 On ch=2 n=c#4 v=106
273732 On ch=2 n=c#4 v=0
273732 On ch=2 n=c4 v=106
273904 On ch=2 n=c4 v=0
273904 On ch=2 n=c#4 v=111
274074 On ch=2 n=c#4 v=0
274074 On ch=2 n=c4 v=111
274236 On ch=2 n=c4 v=0
274236 On ch=2 n=a#3 v=113
274404 On ch=2 n=a#3 v=0
274404 On ch=2 n=c4 v=113
274550 On ch=2 n=c4 v=0
274550 On ch=2 n=c#4 v=123
274550 On ch=2 n=c#3 v=123
274556 Par ch=2 c=64 v=127
275228 On ch=2 n=c#3 v=0
275228 On ch=2 n=c#4 v=0
275228 On ch=2 n=b4 v=123
275228 On ch=2 n=g#4 v=123
275228 On ch=2 n=c#4 v=123
275844 Par ch=2 c=64 v=0
275848 On ch=2 n=c#4 v=0
275848 On ch=2 n=g#4 v=0
275848 On ch=2 n=b4 v=0
275848 On ch=2 n=f#3 v=123
275848 On ch=2 n=f#2 v=123
275854 Par ch=2 c=64 v=127
276524 On ch=2 n=f#2 v=0
276524 On ch=2 n=f#3 v=0
276524 On ch=2 n=c#5 v=123
276524 On ch=2 n=f#4 v=123
276524 On ch=2 n=c#4 v=123
277142 Par ch=2 c=64 v=0
277146 On ch=2 n=c#4 v=0
277146 On ch=2 n=f#4 v=0
277146 On ch=2 n=c#5 v=0
277146 On ch=2 n=b3 v=124
277146 On ch=2 n=b2 v=124
277152 Par ch=2 c=64 v=127
277814 On ch=2 n=b2 v=0
277814 On ch=2 n=b3 v=0
277814 On ch=2 n=d5 v=120
277814 On ch=2 n=g#4 v=120
277814 On ch=2 n=f#4 v=120
278426 Par ch=2 c=64 v=0
278430 On ch=2 n=f#4 v=0
278430 On ch=2 n=g#4 v=0
278430 On ch=2 n=d5 v=0
278430 On ch=2 n=c#4 v=126
278430 On ch=2 n=c#3 v=126
278436 Par ch=2 c=64 v=127
279110 On ch=2 n=c#3 v=0
279110 On ch=2 n=c#4 v=0
279110 On ch=2 n=b4 v=123
279110 On ch=2 n=g#4 v=123
279110 On ch=2 n=c#4 v=123
279722 Par ch=2 c=64 v=0
279726 On ch=2 n=c#4 v=0
279726 On ch=2 n=g#4 v=0
279726 On ch=2 n=b4 v=0
279726 On ch=2 n=f#3 v=120
279726 On ch=2 n=f#2 v=120
279732 Par ch=2 c=64 v=127
280406 On ch=2 n=f#2 v=0
280406 On ch=2 n=f#3 v=0
280406 On ch=2 n=c#5 v=123
280406 On ch=2 n=f#4 v=123
280406 On ch=2 n=c#4 v=123
281008 Par ch=2 c=64 v=0
281012 On ch=2 n=c#4 v=0
281012 On ch=2 n=f#4 v=0
281012 On ch=2 n=c#5 v=0
281012 On ch=2 n=b3 v=123
281012 On ch=2 n=b2 v=123
281018 Par ch=2 c=64 v=127
281706 On ch=2 n=b2 v=0
281706 On ch=2 n=b3 v=0
281706 On ch=2 n=d5 v=120
281706 On ch=2 n=g#4 v=120
281706 On ch=2 n=f#4 v=120
282338 Par ch=2 c=64 v=0
282342 On ch=2 n=f#4 v=0
282342 On ch=2 n=g#4 v=0
282342 On ch=2 n=d5 v=0
282342 On ch=2 n=a4 v=118
282342 On ch=2 n=d4 v=118
282342 On ch=2 n=a3 v=118
283002 On ch=2 n=a3 v=0
283002 On ch=2 n=d4 v=0
283002 On ch=2 n=a4 v=0
283002 On ch=2 n=g#4 v=118
283002 On ch=2 n=g#3 v=118
283312 On ch=2 n=g#3 v=0
283312 On ch=2 n=g#4 v=0
283312 On ch=2 n=f#4 v=120
283312 On ch=2 n=f#3 v=120
283626 On ch=2 n=f#3 v=0
283626 On ch=2 n=f#4 v=0
283626 On ch=2 n=f#5 v=127
283626 On ch=2 n=f#4 v=127
283632 Par ch=2 c=64 v=127
284340 On ch=2 n=f#4 v=0
284340 On ch=2 n=f#5 v=0
284340 On ch=2 n=b3 v=106
284340 On ch=2 n=b2 v=106
284988 Par ch=2 c=64 v=0
284992 On ch=2 n=b2 v=0
284992 On ch=2 n=b3 v=0
284992 On ch=2 n=g#4 v=123
284992 On ch=2 n=d4 v=123
284992 On ch=2 n=g#3 v=123
285652 On ch=2 n=g#3 v=0
285652 On ch=2 n=d4 v=0
285652 On ch=2 n=g#4 v=0
285652 On ch=2 n=f#4 v=119
285652 On ch=2 n=f#3 v=119
285952 On ch=2 n=f#3 v=0
285952 On ch=2 n=f#4 v=0
285952 On ch=2 n=g#4 v=120
285952 On ch=2 n=g#3 v=120
286260 On ch=2 n=g#3 v=0
286260 On ch=2 n=g#4 v=0
286260 On ch=2 n=b4 v=123
286260 On ch=2 n=d4 v=123
286260 On ch=2 n=b3 v=123
286462 On ch=2 n=b3 v=0
286462 On ch=2 n=d4 v=0
286462 On ch=2 n=b4 v=0
286462 On ch=2 n=a#4 v=123
286462 On ch=2 n=a#3 v=123
286652 On ch=2 n=a#3 v=0
286652 On ch=2 n=a#4 v=0
286652 On ch=2 n=a4 v=123
286652 On ch=2 n=a3 v=123
286840 On ch=2 n=a3 v=0
286840 On ch=2 n=a4 v=0
286840 On ch=2 n=g#4 v=119
286840 On ch=2 n=g#3 v=119
287034 On ch=2 n=g#3 v=0
287034 On ch=2 n=g#4 v=0
287034 On ch=2 n=g4 v=119
287034 On ch=2 n=g3 v=119
287248 On ch=2 n=g3 v=0
287248 On ch=2 n=g4 v=0
287248 On ch=2 n=f#4 v=123
287248 On ch=2 n=f#3 v=123
287454 On ch=2 n=f#3 v=0
287454 On ch=2 n=f#4 v=0
287454 On ch=2 n=a5 v=120
287454 On ch=2 n=a4 v=120
287460 Par ch=2 c=64 v=127
288090 On ch=2 n=a4 v=0
288090 On ch=2 n=a5 v=0
288090 On ch=2 n=d3 v=119
288090 On ch=2 n=d2 v=119
289526 On ch=2 n=d2 v=0
289526 On ch=2 n=d3 v=0
289526 On ch=2 n=d4 v=110
289526 On ch=2 n=d3 v=110
290884 On ch=2 n=d3 v=0
290884 On ch=2 n=d4 v=0
290884 On ch=2 n=d4 v=108
290884 On ch=2 n=d3 v=108
292246 Par ch=2 c=64 v=0
292250 On ch=2 n=d3 v=0
292250 On ch=2 n=d4 v=0
292250 On ch=2 n=g3 v=120
292250 On ch=2 n=g2 v=120
292938 On ch=2 n=g2 v=0
292938 On ch=2 n=g3 v=0
292938 On ch=2 n=g3 v=119
292938 On ch=2 n=g2 v=119
293604 On ch=2 n=g2 v=0
293604 On ch=2 n=g3 v=0
293604 On ch=2 n=c#4 v=118
293604 On ch=2 n=c#3 v=118
294296 On ch=2 n=c#3 v=0
294296 On ch=2 n=c#4 v=0
294296 On ch=2 n=c#4 v=115
294296 On ch=2 n=c#3 v=115
294964 On ch=2 n=c#3 v=0
294964 On ch=2 n=c#4 v=0
294964 On ch=2 n=f#3 v=120
294964 On ch=2 n=f#2 v=120
295654 On ch=2 n=f#2 v=0
295654 On ch=2 n=f#3 v=0
295654 On ch=2 n=c#3 v=123
296434 On ch=2 n=c#3 v=0
296434 On ch=2 n=g#2 v=118
296780 On ch=2 n=g#2 v=0
296780 On ch=2 n=a2 v=116
297100 On ch=2 n=a2 v=0
297100 On ch=2 n=f#2 v=115
297768 On ch=2 n=f#2 v=0
297768 On ch=2 n=e3 v=110
297768 On ch=2 n=e2 v=110
298470 On ch=2 n=e2 v=0
298470 On ch=2 n=e3 v=0
298470 On ch=2 n=e3 v=123
298470 On ch=2 n=e2 v=123
298476 Par ch=2 c=64 v=127
303088 Par ch=2 c=64 v=0
303094 On ch=2 n=e2 v=0
303094 On ch=2 n=e3 v=0
303094 On ch=2 n=e3 v=113
303094 On ch=2 n=e2 v=113
303100 Par ch=2 c=64 v=127
308060 On ch=2 n=e2 v=0
308060 On ch=2 n=e3 v=0
308060 On ch=2 n=e3 v=97
308060 On ch=2 n=e2 v=97
320658 On ch=2 n=e2 v=0
320658 On ch=2 n=e3 v=0
320658 On ch=2 n=a3 v=123
320658 On ch=2 n=a2 v=123
320666 Par ch=2 c=64 v=127
321450 On ch=2 n=a2 v=0
321450 On ch=2 n=a3 v=0
321450 On ch=2 n=d#4 v=104
321648 On ch=2 n=d#4 v=0
321648 On ch=2 n=f#4 v=104
321784 On ch=2 n=f#4 v=0
321784 On ch=2 n=e4 v=103
321958 On ch=2 n=e4 v=0
321958 On ch=2 n=c#4 v=103
322106 On ch=2 n=c#4 v=0
322106 On ch=2 n=a3 v=105
322842 On ch=2 n=a3 v=0
322842 On ch=2 n=d#4 v=103
323024 On ch=2 n=d#4 v=0
323024 On ch=2 n=f#4 v=103
323158 On ch=2 n=f#4 v=0
323158 On ch=2 n=e4 v=103
323318 On ch=2 n=e4 v=0
323318 On ch=2 n=c#4 v=103
323490 On ch=2 n=c#4 v=0
323490 On ch=2 n=a4 v=103
323490 On ch=2 n=a3 v=103
324094 Par ch=2 c=64 v=0
324128 On ch=2 n=a3 v=0
324128 On ch=2 n=a4 v=0
324128 On ch=2 n=e4 v=103
324128 On ch=2 n=e3 v=103
324858 On ch=2 n=e3 v=0
324858 On ch=2 n=e4 v=0
324858 On ch=2 n=a4 v=126
324858 On ch=2 n=a3 v=126
324858 On ch=2 n=a2 v=126
324864 Par ch=2 c=64 v=127
325614 On ch=2 n=a2 v=0
325614 On ch=2 n=a3 v=0
325614 On ch=2 n=a4 v=0
325614 On ch=2 n=d#4 v=104
325802 On ch=2 n=d#4 v=0
325802 On ch=2 n=f#4 v=104
325966 On ch=2 n=f#4 v=0
325966 On ch=2 n=e4 v=100
326146 On ch=2 n=e4 v=0
326146 On ch=2 n=c#4 v=100
326308 On ch=2 n=c#4 v=0
326308 On ch=2 n=a4 v=103
326308 On ch=2 n=a3 v=103
326950 Par ch=2 c=64 v=0
327018 On ch=2 n=a3 v=0
327018 On ch=2 n=a4 v=0
327018 On ch=2 n=e4 v=101
327018 On ch=2 n=e3 v=101
327690 On ch=2 n=e3 v=0
327690 On ch=2 n=e4 v=0
327690 On ch=2 n=a4 v=101
327690 On ch=2 n=a3 v=101
328330 On ch=2 n=a3 v=0
328330 On ch=2 n=a4 v=0
328330 On ch=2 n=e4 v=101
328330 On ch=2 n=e3 v=101
329030 On ch=2 n=e3 v=0
329030 On ch=2 n=e4 v=0
329030 On ch=2 n=a4 v=123
329030 On ch=2 n=a3 v=123
329030 On ch=2 n=a2 v=123
329036 Par ch=2 c=64 v=127
329778 On ch=2 n=a2 v=0
329778 On ch=2 n=a3 v=0
329778 On ch=2 n=a4 v=0
329778 On ch=2 n=d#4 v=100
329964 On ch=2 n=d#4 v=0
329964 On ch=2 n=f#4 v=100
330140 On ch=2 n=f#4 v=0
330140 On ch=2 n=e4 v=97
330320 On ch=2 n=e4 v=0
330320 On ch=2 n=c#4 v=97
330486 On ch=2 n=c#4 v=0
330486 On ch=2 n=a4 v=97
330486 On ch=2 n=a3 v=97
331134 On ch=2 n=a3 v=0
331134 On ch=2 n=a4 v=0
331134 On ch=2 n=d#4 v=99
331296 On ch=2 n=d#4 v=0
331296 On ch=2 n=f#4 v=99
331478 On ch=2 n=f#4 v=0
331478 On ch=2 n=e4 v=98
331642 On ch=2 n=e4 v=0
331642 On ch=2 n=c#4 v=98
331804 On ch=2 n=c#4 v=0
331804 On ch=2 n=a4 v=98
331804 On ch=2 n=a3 v=98
332388 Par ch=2 c=64 v=0
332428 On ch=2 n=a3 v=0
332428 On ch=2 n=a4 v=0
332428 On ch=2 n=e4 v=99
332428 On ch=2 n=e3 v=99
333098 On ch=2 n=e3 v=0
333098 On ch=2 n=e4 v=0
333098 On ch=2 n=a4 v=120
333098 On ch=2 n=a3 v=120
333098 On ch=2 n=a2 v=120
333104 Par ch=2 c=64 v=127
333824 On ch=2 n=a2 v=0
333824 On ch=2 n=a3 v=0
333824 On ch=2 n=a4 v=0
333824 On ch=2 n=d#4 v=103
334004 On ch=2 n=d#4 v=0
334004 On ch=2 n=f#4 v=103
334160 On ch=2 n=f#4 v=0
334160 On ch=2 n=e4 v=99
334334 On ch=2 n=e4 v=0
334334 On ch=2 n=c#4 v=99
334476 On ch=2 n=c#4 v=0
334476 On ch=2 n=a4 v=101
334476 On ch=2 n=a3 v=101
335092 Par ch=2 c=64 v=0
335136 On ch=2 n=a3 v=0
335136 On ch=2 n=a4 v=0
335136 On ch=2 n=e4 v=100
335136 On ch=2 n=e3 v=100
335824 On ch=2 n=e3 v=0
335824 On ch=2 n=e4 v=0
335824 On ch=2 n=a4 v=100
335824 On ch=2 n=a3 v=100
336434 On ch=2 n=a3 v=0
336434 On ch=2 n=a4 v=0
336434 On ch=2 n=e4 v=102
336434 On ch=2 n=e3 v=102
337100 On ch=2 n=e3 v=0
337100 On ch=2 n=e4 v=0
337100 On ch=2 n=a3 v=120
337100 On ch=2 n=a2 v=120
337106 Par ch=2 c=64 v=127
337840 On ch=2 n=a2 v=0
337840 On ch=2 n=a3 v=0
337840 On ch=2 n=d#4 v=99
338024 On ch=2 n=d#4 v=0
338024 On ch=2 n=f#4 v=99
338174 On ch=2 n=f#4 v=0
338174 On ch=2 n=e4 v=100
338354 On ch=2 n=e4 v=0
338354 On ch=2 n=c#4 v=100
338494 On ch=2 n=c#4 v=0
338494 On ch=2 n=a4 v=98
338494 On ch=2 n=a3 v=98
339158 On ch=2 n=a3 v=0
339158 On ch=2 n=a4 v=0
339158 On ch=2 n=d#4 v=99
339324 On ch=2 n=d#4 v=0
339324 On ch=2 n=f#4 v=99
339494 On ch=2 n=f#4 v=0
339494 On ch=2 n=e4 v=99
339656 On ch=2 n=e4 v=0
339656 On ch=2 n=c#4 v=99
339826 On ch=2 n=c#4 v=0
339826 On ch=2 n=a4 v=98
339826 On ch=2 n=a3 v=98
340416 Par ch=2 c=64 v=0
340440 On ch=2 n=a3 v=0
340440 On ch=2 n=a4 v=0
340440 On ch=2 n=e4 v=102
340440 On ch=2 n=e3 v=102
341078 On ch=2 n=e3 v=0
341078 On ch=2 n=e4 v=0
341078 On ch=2 n=a3 v=119
341078 On ch=2 n=a2 v=119
341084 Par ch=2 c=64 v=127
341808 On ch=2 n=a2 v=0
341808 On ch=2 n=a3 v=0
341808 On ch=2 n=e4 v=103
341990 On ch=2 n=e4 v=0
341990 On ch=2 n=g4 v=103
342156 On ch=2 n=g4 v=0
342156 On ch=2 n=e4 v=103
342336 On ch=2 n=e4 v=0
342336 On ch=2 n=d4 v=103
342476 On ch=2 n=d4 v=0
342476 On ch=2 n=a4 v=101
342476 On ch=2 n=a3 v=101
343086 Par ch=2 c=64 v=0
343152 On ch=2 n=a3 v=0
343152 On ch=2 n=a4 v=0
343152 On ch=2 n=e3 v=100
343812 On ch=2 n=e3 v=0
343812 On ch=2 n=f#4 v=102
344468 On ch=2 n=f#4 v=0
344468 On ch=2 n=a4 v=103
344468 On ch=2 n=a3 v=103
345106 On ch=2 n=a3 v=0
345106 On ch=2 n=a4 v=0
345106 On ch=2 n=a4 v=123
345106 On ch=2 n=a3 v=123
345106 On ch=2 n=a2 v=123
345112 Par ch=2 c=64 v=127
345836 On ch=2 n=a2 v=0
345836 On ch=2 n=a3 v=0
345836 On ch=2 n=a4 v=0
345836 On ch=2 n=f4 v=104
346018 On ch=2 n=f4 v=0
346018 On ch=2 n=g#4 v=104
346170 On ch=2 n=g#4 v=0
346170 On ch=2 n=f#4 v=101
346346 On ch=2 n=f#4 v=0
346346 On ch=2 n=d#4 v=101
346490 On ch=2 n=d#4 v=0
346490 On ch=2 n=a4 v=103
346490 On ch=2 n=a3 v=103
347144 On ch=2 n=a3 v=0
347144 On ch=2 n=a4 v=0
347144 On ch=2 n=f4 v=101
347308 On ch=2 n=f4 v=0
347308 On ch=2 n=g#4 v=101
347452 On ch=2 n=g#4 v=0
347452 On ch=2 n=f#4 v=100
347608 On ch=2 n=f#4 v=0
347608 On ch=2 n=d#4 v=100
347760 On ch=2 n=d#4 v=0
347760 On ch=2 n=a4 v=99
347760 On ch=2 n=a3 v=99
348322 Par ch=2 c=64 v=0
348372 On ch=2 n=a3 v=0
348372 On ch=2 n=a4 v=0
348372 On ch=2 n=f#4 v=100
348372 On ch=2 n=f#3 v=100
349024 On ch=2 n=f#3 v=0
349024 On ch=2 n=f#4 v=0
349024 On ch=2 n=a4 v=120
349024 On ch=2 n=a3 v=120
349024 On ch=2 n=a2 v=120
349030 Par ch=2 c=64 v=127
349740 On ch=2 n=a2 v=0
349740 On ch=2 n=a3 v=0
349740 On ch=2 n=a4 v=0
349740 On ch=2 n=e4 v=103
349920 On ch=2 n=e4 v=0
349920 On ch=2 n=g4 v=103
350068 On ch=2 n=g4 v=0
350068 On ch=2 n=f4 v=100
350240 On ch=2 n=f4 v=0
350240 On ch=2 n=d4 v=100
350376 On ch=2 n=d4 v=0
350376 On ch=2 n=a4 v=100
350376 On ch=2 n=a3 v=100
351010 Par ch=2 c=64 v=0
351062 On ch=2 n=a3 v=0
351062 On ch=2 n=a4 v=0
351062 On ch=2 n=f4 v=101
351062 On ch=2 n=f3 v=101
351704 On ch=2 n=f3 v=0
351704 On ch=2 n=f4 v=0
351704 On ch=2 n=a4 v=101
351704 On ch=2 n=a3 v=101
352310 On ch=2 n=a3 v=0
352310 On ch=2 n=a4 v=0
352310 On ch=2 n=e4 v=100
352310 On ch=2 n=e3 v=100
352962 On ch=2 n=e3 v=0
352962 On ch=2 n=e4 v=0
352962 On ch=2 n=a4 v=119
352962 On ch=2 n=a3 v=119
352962 On ch=2 n=a2 v=119
352968 Par ch=2 c=64 v=127
353634 On ch=2 n=a2 v=0
353634 On ch=2 n=a3 v=0
353634 On ch=2 n=a4 v=0
353634 On ch=2 n=c4 v=109
353802 On ch=2 n=c4 v=0
353802 On ch=2 n=e4 v=109
353972 On ch=2 n=e4 v=0
353972 On ch=2 n=d4 v=102
354146 On ch=2 n=d4 v=0
354146 On ch=2 n=b3 v=102
354306 On ch=2 n=b3 v=0
354306 On ch=2 n=a4 v=101
354306 On ch=2 n=a3 v=101
354948 On ch=2 n=a3 v=0
354948 On ch=2 n=a4 v=0
354948 On ch=2 n=c4 v=101
355108 On ch=2 n=c4 v=0
355108 On ch=2 n=e4 v=101
355238 On ch=2 n=e4 v=0
355238 On ch=2 n=d4 v=101
355386 On ch=2 n=d4 v=0
355386 On ch=2 n=b3 v=101
355548 On ch=2 n=b3 v=0
355548 On ch=2 n=a4 v=101
355548 On ch=2 n=a3 v=101
356100 Par ch=2 c=64 v=0
356140 On ch=2 n=a3 v=0
356140 On ch=2 n=a4 v=0
356140 On ch=2 n=d4 v=100
356140 On ch=2 n=d3 v=100
356786 On ch=2 n=d3 v=0
356786 On ch=2 n=d4 v=0
356786 On ch=2 n=a4 v=116
356786 On ch=2 n=a3 v=116
356786 On ch=2 n=a2 v=116
356792 Par ch=2 c=64 v=127
357436 On ch=2 n=a2 v=0
357436 On ch=2 n=a3 v=0
357436 On ch=2 n=a4 v=0
357436 On ch=2 n=e4 v=106
357598 On ch=2 n=e4 v=0
357598 On ch=2 n=g4 v=106
357728 On ch=2 n=g4 v=0
357728 On ch=2 n=f4 v=103
357886 On ch=2 n=f4 v=0
357886 On ch=2 n=d4 v=103
358034 On ch=2 n=d4 v=0
358034 On ch=2 n=a4 v=103
358034 On ch=2 n=a3 v=103
358612 Par ch=2 c=64 v=0
358656 On ch=2 n=a3 v=0
358656 On ch=2 n=a4 v=0
358656 On ch=2 n=f4 v=103
358656 On ch=2 n=f3 v=103
359252 On ch=2 n=f3 v=0
359252 On ch=2 n=f4 v=0
359252 On ch=2 n=a4 v=103
359252 On ch=2 n=a3 v=103
359856 On ch=2 n=a3 v=0
359856 On ch=2 n=a4 v=0
359856 On ch=2 n=d4 v=103
359856 On ch=2 n=d3 v=103
360486 On ch=2 n=d3 v=0
360486 On ch=2 n=d4 v=0
360486 On ch=2 n=a4 v=120
360486 On ch=2 n=a3 v=120
360486 On ch=2 n=a2 v=120
360492 Par ch=2 c=64 v=127
361138 On ch=2 n=a2 v=0
361138 On ch=2 n=a3 v=0
361138 On ch=2 n=a4 v=0
361138 On ch=2 n=d4 v=111
361302 On ch=2 n=d4 v=0
361302 On ch=2 n=f4 v=111
361456 On ch=2 n=f4 v=0
361456 On ch=2 n=e4 v=103
361620 On ch=2 n=e4 v=0
361620 On ch=2 n=c4 v=103
361752 On ch=2 n=c4 v=0
361752 On ch=2 n=a4 v=103
361752 On ch=2 n=a3 v=103
362368 On ch=2 n=a3 v=0
362368 On ch=2 n=a4 v=0
362368 On ch=2 n=d4 v=103
362522 On ch=2 n=d4 v=0
362522 On ch=2 n=f4 v=103
362662 On ch=2 n=f4 v=0
362662 On ch=2 n=e4 v=100
362814 On ch=2 n=e4 v=0
362814 On ch=2 n=c4 v=100
362958 On ch=2 n=c4 v=0
362958 On ch=2 n=a4 v=101
362958 On ch=2 n=a3 v=101
363514 Par ch=2 c=64 v=0
363542 On ch=2 n=a3 v=0
363542 On ch=2 n=a4 v=0
363542 On ch=2 n=e4 v=103
363542 On ch=2 n=e3 v=103
364134 On ch=2 n=e3 v=0
364134 On ch=2 n=e4 v=0
364134 On ch=2 n=a4 v=120
364134 On ch=2 n=a3 v=120
364134 On ch=2 n=a2 v=120
364138 Par ch=2 c=64 v=127
364784 On ch=2 n=a2 v=0
364784 On ch=2 n=a3 v=0
364784 On ch=2 n=a4 v=0
364784 On ch=2 n=d4 v=105
364946 On ch=2 n=d4 v=0
364946 On ch=2 n=f4 v=105
365134 On ch=2 n=f4 v=0
365134 On ch=2 n=e4 v=98
365310 On ch=2 n=e4 v=0
365310 On ch=2 n=c4 v=98
365456 On ch=2 n=c4 v=0
365456 On ch=2 n=a4 v=101
365456 On ch=2 n=a3 v=101
366046 Par ch=2 c=64 v=0
366074 On ch=2 n=a3 v=0
366074 On ch=2 n=a4 v=0
366074 On ch=2 n=e4 v=101
366074 On ch=2 n=e3 v=101
366678 On ch=2 n=e3 v=0
366678 On ch=2 n=e4 v=0
366678 On ch=2 n=a4 v=99
366678 On ch=2 n=a3 v=99
367286 On ch=2 n=a3 v=0
367286 On ch=2 n=a4 v=0
367286 On ch=2 n=c4 v=101
367286 On ch=2 n=c3 v=101
367484 Par ch=2 c=64 v=0
367896 On ch=2 n=c3 v=0
367896 On ch=2 n=c4 v=0
367896 On ch=2 n=a4 v=123
367896 On ch=2 n=f3 v=123
367896 On ch=2 n=f2 v=123
367902 Par ch=2 c=64 v=127
368544 On ch=2 n=f2 v=0
368544 On ch=2 n=f3 v=0
368544 On ch=2 n=a4 v=0
368544 On ch=2 n=e4 v=106
368706 On ch=2 n=e4 v=0
368706 On ch=2 n=g4 v=106
368870 On ch=2 n=g4 v=0
368870 On ch=2 n=f4 v=103
369038 On ch=2 n=f4 v=0
369038 On ch=2 n=c4 v=103
369188 On ch=2 n=c4 v=0
369188 On ch=2 n=a4 v=103
369188 On ch=2 n=a3 v=103
369808 On ch=2 n=a3 v=0
369808 On ch=2 n=a4 v=0
369808 On ch=2 n=e4 v=104
369964 On ch=2 n=e4 v=0
369964 On ch=2 n=g4 v=104
370130 On ch=2 n=g4 v=0
370130 On ch=2 n=f4 v=104
370284 On ch=2 n=f4 v=0
370284 On ch=2 n=c4 v=104
370446 On ch=2 n=c4 v=0
370446 On ch=2 n=a4 v=104
370446 On ch=2 n=a3 v=104
371014 Par ch=2 c=64 v=0
371040 On ch=2 n=a3 v=0
371040 On ch=2 n=a4 v=0
371040 On ch=2 n=f4 v=104
371040 On ch=2 n=f3 v=104
371664 On ch=2 n=f3 v=0
371664 On ch=2 n=f4 v=0
371664 On ch=2 n=a4 v=119
371664 On ch=2 n=f3 v=119
371664 On ch=2 n=f2 v=119
371670 Par ch=2 c=64 v=127
372318 On ch=2 n=f2 v=0
372318 On ch=2 n=f3 v=0
372318 On ch=2 n=a4 v=0
372318 On ch=2 n=e4 v=107
372482 On ch=2 n=e4 v=0
372482 On ch=2 n=g4 v=107
372634 On ch=2 n=g4 v=0
372634 On ch=2 n=f4 v=107
372798 On ch=2 n=f4 v=0
372798 On ch=2 n=d4 v=107
372938 On ch=2 n=d4 v=0
372938 On ch=2 n=a#4 v=106
372938 On ch=2 n=a#3 v=106
373532 Par ch=2 c=64 v=0
373582 On ch=2 n=a#3 v=0
373582 On ch=2 n=a#4 v=0
373582 On ch=2 n=f4 v=106
373582 On ch=2 n=f3 v=106
374216 On ch=2 n=f3 v=0
374216 On ch=2 n=f4 v=0
374216 On ch=2 n=a#4 v=110
374216 On ch=2 n=a#3 v=110
374802 On ch=2 n=a#3 v=0
374802 On ch=2 n=a#4 v=0
374802 On ch=2 n=d4 v=110
374802 On ch=2 n=d3 v=110
375376 On ch=2 n=d3 v=0
375376 On ch=2 n=d4 v=0
375376 On ch=2 n=g#4 v=124
375376 On ch=2 n=f3 v=124
375376 On ch=2 n=f2 v=124
375380 Par ch=2 c=64 v=127
376032 On ch=2 n=f2 v=0
376032 On ch=2 n=f3 v=0
376032 On ch=2 n=g#4 v=0
376032 On ch=2 n=d4 v=115
376196 On ch=2 n=d4 v=0
376196 On ch=2 n=f4 v=115
376344 On ch=2 n=f4 v=0
376344 On ch=2 n=d#4 v=106
376508 On ch=2 n=d#4 v=0
376508 On ch=2 n=c4 v=106
376692 On ch=2 n=c4 v=0
376692 On ch=2 n=a4 v=102
376692 On ch=2 n=a3 v=102
377360 On ch=2 n=a3 v=0
377360 On ch=2 n=a4 v=0
377360 On ch=2 n=d4 v=106
377528 On ch=2 n=d4 v=0
377528 On ch=2 n=f4 v=106
377682 On ch=2 n=f4 v=0
377682 On ch=2 n=d#4 v=104
377846 On ch=2 n=d#4 v=0
377846 On ch=2 n=c4 v=104
377998 On ch=2 n=c4 v=0
377998 On ch=2 n=a4 v=103
377998 On ch=2 n=a3 v=103
378564 Par ch=2 c=64 v=0
378588 On ch=2 n=a3 v=0
378588 On ch=2 n=a4 v=0
378588 On ch=2 n=f4 v=103
378588 On ch=2 n=f3 v=103
379212 On ch=2 n=f3 v=0
379212 On ch=2 n=f4 v=0
379212 On ch=2 n=a4 v=124
379212 On ch=2 n=f3 v=124
379212 On ch=2 n=f2 v=124
379218 Par ch=2 c=64 v=127
379886 On ch=2 n=f2 v=0
379886 On ch=2 n=f3 v=0
379886 On ch=2 n=a4 v=0
379886 On ch=2 n=d4 v=106
380056 On ch=2 n=d4 v=0
380056 On ch=2 n=f4 v=106
380214 On ch=2 n=f4 v=0
380214 On ch=2 n=d#4 v=103
380380 On ch=2 n=d#4 v=0
380380 On ch=2 n=b3 v=103
380524 On ch=2 n=b3 v=0
380524 On ch=2 n=g#3 v=104
381106 Par ch=2 c=64 v=0
381130 On ch=2 n=g#3 v=0
381130 On ch=2 n=a4 v=105
381722 On ch=2 n=a4 v=0
381722 On ch=2 n=f4 v=104
381722 On ch=2 n=f3 v=104
382324 On ch=2 n=f3 v=0
382324 On ch=2 n=f4 v=0
382324 On ch=2 n=a4 v=103
382324 On ch=2 n=a3 v=103
382956 On ch=2 n=a3 v=0
382956 On ch=2 n=a4 v=0
382956 On ch=2 n=a4 v=120
382956 On ch=2 n=e3 v=120
382956 On ch=2 n=e2 v=120
382962 Par ch=2 c=64 v=127
383632 On ch=2 n=e2 v=0
383632 On ch=2 n=e3 v=0
383632 On ch=2 n=a4 v=0
383632 On ch=2 n=d4 v=105
383802 On ch=2 n=d4 v=0
383802 On ch=2 n=f4 v=105
383960 On ch=2 n=f4 v=0
383960 On ch=2 n=e4 v=106
384130 On ch=2 n=e4 v=0
384130 On ch=2 n=c4 v=106
384262 On ch=2 n=c4 v=0
384262 On ch=2 n=a4 v=107
384262 On ch=2 n=a3 v=107
384882 On ch=2 n=a3 v=0
384882 On ch=2 n=a4 v=0
384882 On ch=2 n=d4 v=104
385038 On ch=2 n=d4 v=0
385038 On ch=2 n=f4 v=104
385196 On ch=2 n=f4 v=0
385196 On ch=2 n=e4 v=105
385350 On ch=2 n=e4 v=0
385350 On ch=2 n=c4 v=105
385494 On ch=2 n=c4 v=0
385494 On ch=2 n=a3 v=107
386040 Par ch=2 c=64 v=0
386066 On ch=2 n=a3 v=0
386066 On ch=2 n=c4 v=103
386066 On ch=2 n=c3 v=103
386692 On ch=2 n=c3 v=0
386692 On ch=2 n=c4 v=0
386692 On ch=2 n=a4 v=123
386692 On ch=2 n=d3 v=123
386692 On ch=2 n=d2 v=123
386698 Par ch=2 c=64 v=127
387366 On ch=2 n=d2 v=0
387366 On ch=2 n=d3 v=0
387366 On ch=2 n=a4 v=0
387366 On ch=2 n=c4 v=103
387536 On ch=2 n=c4 v=0
387536 On ch=2 n=e4 v=103
387696 On ch=2 n=e4 v=0
387696 On ch=2 n=d4 v=104
387866 On ch=2 n=d4 v=0
387866 On ch=2 n=b3 v=104
388008 On ch=2 n=b3 v=0
388008 On ch=2 n=a4 v=103
388008 On ch=2 n=a3 v=103
388606 Par ch=2 c=64 v=0
388668 On ch=2 n=a3 v=0
388668 On ch=2 n=a4 v=0
388668 On ch=2 n=d4 v=103
388668 On ch=2 n=d3 v=103
389296 On ch=2 n=d3 v=0
389296 On ch=2 n=d4 v=0
389296 On ch=2 n=a4 v=103
389296 On ch=2 n=a3 v=103
389912 On ch=2 n=a3 v=0
389912 On ch=2 n=a4 v=0
389912 On ch=2 n=e4 v=107
389912 On ch=2 n=e3 v=107
390522 On ch=2 n=e3 v=0
390522 On ch=2 n=e4 v=0
390522 On ch=2 n=a4 v=123
390522 On ch=2 n=a3 v=123
390522 On ch=2 n=a2 v=123
390528 Par ch=2 c=64 v=127
391202 On ch=2 n=a2 v=0
391202 On ch=2 n=a3 v=0
391202 On ch=2 n=a4 v=0
391202 On ch=2 n=d4 v=104
391372 On ch=2 n=d4 v=0
391372 On ch=2 n=f4 v=104
391532 On ch=2 n=f4 v=0
391532 On ch=2 n=e4 v=105
391700 On ch=2 n=e4 v=0
391700 On ch=2 n=c4 v=105
391878 On ch=2 n=c4 v=0
391878 On ch=2 n=a4 v=104
391878 On ch=2 n=a3 v=104
392542 On ch=2 n=a3 v=0
392542 On ch=2 n=a4 v=0
392542 On ch=2 n=d4 v=103
392708 On ch=2 n=d4 v=0
392708 On ch=2 n=f4 v=103
392856 On ch=2 n=f4 v=0
392856 On ch=2 n=e4 v=103
393018 On ch=2 n=e4 v=0
393018 On ch=2 n=c4 v=103
393172 On ch=2 n=c4 v=0
393172 On ch=2 n=a4 v=104
393172 On ch=2 n=a3 v=104
393732 Par ch=2 c=64 v=0
393798 On ch=2 n=a3 v=0
393798 On ch=2 n=a4 v=0
393798 On ch=2 n=e4 v=101
393798 On ch=2 n=e3 v=101
394402 On ch=2 n=e3 v=0
394402 On ch=2 n=e4 v=0
394402 On ch=2 n=a4 v=119
394402 On ch=2 n=a3 v=119
394402 On ch=2 n=a2 v=119
394408 Par ch=2 c=64 v=127
395080 On ch=2 n=a2 v=0
395080 On ch=2 n=a3 v=0
395080 On ch=2 n=a4 v=0
395080 On ch=2 n=d4 v=106
395250 On ch=2 n=d4 v=0
395250 On ch=2 n=f4 v=106
395380 On ch=2 n=f4 v=0
395380 On ch=2 n=e4 v=105
395538 On ch=2 n=e4 v=0
395538 On ch=2 n=c4 v=105
395702 On ch=2 n=c4 v=0
395702 On ch=2 n=a4 v=105
395702 On ch=2 n=a3 v=105
396282 Par ch=2 c=64 v=0
396316 On ch=2 n=a3 v=0
396316 On ch=2 n=a4 v=0
396316 On ch=2 n=e4 v=103
396316 On ch=2 n=e3 v=103
396948 On ch=2 n=e3 v=0
396948 On ch=2 n=e4 v=0
396948 On ch=2 n=a4 v=108
396948 On ch=2 n=a3 v=108
397550 On ch=2 n=a3 v=0
397550 On ch=2 n=a4 v=0
397550 On ch=2 n=e4 v=101
397550 On ch=2 n=e3 v=101
398188 On ch=2 n=e3 v=0
398188 On ch=2 n=e4 v=0
430184 On ch=2 n=a3 v=107
430184 On ch=2 n=a2 v=107
430190 Par ch=2 c=64 v=127
430872 On ch=2 n=a2 v=0
430872 On ch=2 n=a3 v=0
430872 On ch=2 n=d#4 v=123
431044 On ch=2 n=d#4 v=0
431044 On ch=2 n=f#4 v=123
431140 On ch=2 n=f#4 v=0
431140 On ch=2 n=e4 v=120
431290 On ch=2 n=e4 v=0
431290 On ch=2 n=c#4 v=120
431426 On ch=2 n=c#4 v=0
431426 On ch=2 n=a3 v=116
432138 On ch=2 n=a3 v=0
432138 On ch=2 n=d#4 v=123
432316 On ch=2 n=d#4 v=0
432316 On ch=2 n=f#4 v=123
432412 On ch=2 n=f#4 v=0
432412 On ch=2 n=e4 v=123
432560 On ch=2 n=e4 v=0
432560 On ch=2 n=c#4 v=123
432710 On ch=2 n=c#4 v=0
432710 On ch=2 n=a3 v=118
433322 Par ch=2 c=64 v=0
433348 On ch=2 n=a3 v=0
433348 On ch=2 n=e4 v=119
433348 On ch=2 n=e3 v=119
433974 On ch=2 n=e3 v=0
433974 On ch=2 n=e4 v=0
433974 On ch=2 n=a3 v=127
433974 On ch=2 n=a2 v=127
433980 Par ch=2 c=64 v=127
434608 On ch=2 n=a2 v=0
434608 On ch=2 n=a3 v=0
434608 On ch=2 n=e4 v=119
434766 On ch=2 n=e4 v=0
434766 On ch=2 n=g4 v=119
434904 On ch=2 n=g4 v=0
434904 On ch=2 n=f4 v=118
435056 On ch=2 n=f4 v=0
435056 On ch=2 n=d4 v=118
435222 On ch=2 n=d4 v=0
435222 On ch=2 n=a3 v=126
435772 Par ch=2 c=64 v=0
435864 On ch=2 n=a3 v=0
435864 On ch=2 n=e4 v=115
435864 On ch=2 n=f3 v=115
436476 On ch=2 n=f3 v=0
436476 On ch=2 n=e4 v=0
436476 On ch=2 n=a4 v=123
436476 On ch=2 n=a3 v=123
437080 On ch=2 n=a3 v=0
437080 On ch=2 n=a4 v=0
437080 On ch=2 n=d4 v=119
437080 On ch=2 n=d3 v=119
437758 On ch=2 n=d3 v=0
437758 On ch=2 n=d4 v=0
437758 On ch=2 n=a3 v=127
437758 On ch=2 n=a2 v=127
437764 Par ch=2 c=64 v=127
438412 On ch=2 n=a2 v=0
438412 On ch=2 n=a3 v=0
438412 On ch=2 n=f4 v=118
438576 On ch=2 n=f4 v=0
438576 On ch=2 n=g#4 v=118
438700 On ch=2 n=g#4 v=0
438700 On ch=2 n=f#4 v=110
438860 On ch=2 n=f#4 v=0
438860 On ch=2 n=d#4 v=110
439026 On ch=2 n=d#4 v=0
439026 On ch=2 n=a3 v=108
439684 On ch=2 n=a3 v=0
439684 On ch=2 n=f4 v=108
439848 On ch=2 n=f4 v=0
439848 On ch=2 n=g#4 v=108
439984 On ch=2 n=g#4 v=0
439984 On ch=2 n=f#4 v=111
440136 On ch=2 n=f#4 v=0
440136 On ch=2 n=d#4 v=111
440278 On ch=2 n=d#4 v=0
440278 On ch=2 n=a3 v=109
440840 Par ch=2 c=64 v=0
440898 On ch=2 n=a3 v=0
440898 On ch=2 n=f#4 v=110
440898 On ch=2 n=f#3 v=110
441558 On ch=2 n=f#3 v=0
441558 On ch=2 n=f#4 v=0
441558 On ch=2 n=a3 v=127
441558 On ch=2 n=a2 v=127
441564 Par ch=2 c=64 v=127
442248 On ch=2 n=a2 v=0
442248 On ch=2 n=a3 v=0
442248 On ch=2 n=e4 v=108
442422 On ch=2 n=e4 v=0
442422 On ch=2 n=g4 v=108
442580 On ch=2 n=g4 v=0
442580 On ch=2 n=f4 v=107
442750 On ch=2 n=f4 v=0
442750 On ch=2 n=d4 v=107
442894 On ch=2 n=d4 v=0
442894 On ch=2 n=a3 v=110
443498 Par ch=2 c=64 v=0
443548 On ch=2 n=a3 v=0
443548 On ch=2 n=f4 v=110
443548 On ch=2 n=f3 v=110
444184 On ch=2 n=f3 v=0
444184 On ch=2 n=f4 v=0
444184 On ch=2 n=a4 v=114
444184 On ch=2 n=a3 v=114
444784 On ch=2 n=a3 v=0
444784 On ch=2 n=a4 v=0
444784 On ch=2 n=e4 v=107
444784 On ch=2 n=e3 v=107
445418 On ch=2 n=e3 v=0
445418 On ch=2 n=e4 v=0
445418 On ch=2 n=a3 v=127
445418 On ch=2 n=a2 v=127
445424 Par ch=2 c=64 v=127
446078 On ch=2 n=a2 v=0
446078 On ch=2 n=a3 v=0
446078 On ch=2 n=c4 v=113
446244 On ch=2 n=c4 v=0
446244 On ch=2 n=e4 v=113
446398 On ch=2 n=e4 v=0
446398 On ch=2 n=d4 v=112
446562 On ch=2 n=d4 v=0
446562 On ch=2 n=b3 v=112
446696 On ch=2 n=b3 v=0
446696 On ch=2 n=a3 v=116
447320 On ch=2 n=a3 v=0
447320 On ch=2 n=c4 v=114
447476 On ch=2 n=c4 v=0
447476 On ch=2 n=e4 v=114
447642 On ch=2 n=e4 v=0
447642 On ch=2 n=d4 v=114
447796 On ch=2 n=d4 v=0
447796 On ch=2 n=b3 v=114
447966 On ch=2 n=b3 v=0
447966 On ch=2 n=a3 v=115
448558 Par ch=2 c=64 v=0
448578 On ch=2 n=a3 v=0
448578 On ch=2 n=d4 v=112
448578 On ch=2 n=d3 v=112
449236 On ch=2 n=d3 v=0
449236 On ch=2 n=d4 v=0
449236 On ch=2 n=a3 v=120
449236 On ch=2 n=a2 v=120
449242 Par ch=2 c=64 v=127
449946 On ch=2 n=a2 v=0
449946 On ch=2 n=a3 v=0
449946 On ch=2 n=e4 v=118
450124 On ch=2 n=e4 v=0
450124 On ch=2 n=g4 v=118
450260 On ch=2 n=g4 v=0
450260 On ch=2 n=f4 v=116
450422 On ch=2 n=f4 v=0
450422 On ch=2 n=d4 v=116
450576 On ch=2 n=d4 v=0
450576 On ch=2 n=a3 v=120
451216 Par ch=2 c=64 v=0
451270 On ch=2 n=a3 v=0
451270 On ch=2 n=f4 v=118
451270 On ch=2 n=f3 v=118
451918 On ch=2 n=f3 v=0
451918 On ch=2 n=f4 v=0
451918 On ch=2 n=a4 v=118
451918 On ch=2 n=a3 v=118
452566 On ch=2 n=a3 v=0
452566 On ch=2 n=a4 v=0
452566 On ch=2 n=d4 v=110
452566 On ch=2 n=d3 v=110
453194 On ch=2 n=d3 v=0
453194 On ch=2 n=d4 v=0
453194 On ch=2 n=a3 v=127
453194 On ch=2 n=a2 v=127
453200 Par ch=2 c=64 v=127
453886 On ch=2 n=a2 v=0
453886 On ch=2 n=a3 v=0
453886 On ch=2 n=d4 v=113
454060 On ch=2 n=d4 v=0
454060 On ch=2 n=f4 v=113
454236 On ch=2 n=f4 v=0
454236 On ch=2 n=e4 v=100
454412 On ch=2 n=e4 v=0
454412 On ch=2 n=c4 v=100
454566 On ch=2 n=c4 v=0
454566 On ch=2 n=a3 v=103
455232 On ch=2 n=a3 v=0
455232 On ch=2 n=d4 v=109
455400 On ch=2 n=d4 v=0
455400 On ch=2 n=f4 v=109
455558 On ch=2 n=f4 v=0
455558 On ch=2 n=e4 v=110
455718 On ch=2 n=e4 v=0
455718 On ch=2 n=c4 v=110
455876 On ch=2 n=c4 v=0
455876 On ch=2 n=a3 v=107
456446 Par ch=2 c=64 v=0
456498 On ch=2 n=a3 v=0
456498 On ch=2 n=e4 v=109
456498 On ch=2 n=e3 v=109
457166 On ch=2 n=e3 v=0
457166 On ch=2 n=e4 v=0
457166 On ch=2 n=a3 v=120
457166 On ch=2 n=a2 v=120
457172 Par ch=2 c=64 v=127
457822 On ch=2 n=a2 v=0
457822 On ch=2 n=a3 v=0
457822 On ch=2 n=d4 v=111
457986 On ch=2 n=d4 v=0
457986 On ch=2 n=f4 v=111
458144 On ch=2 n=f4 v=0
458144 On ch=2 n=e4 v=109
458306 On ch=2 n=e4 v=0
458306 On ch=2 n=c4 v=109
458448 On ch=2 n=c4 v=0
458448 On ch=2 n=a3 v=109
459042 Par ch=2 c=64 v=0
459092 On ch=2 n=a3 v=0
459092 On ch=2 n=e4 v=109
459092 On ch=2 n=e3 v=109
459748 On ch=2 n=e3 v=0
459748 On ch=2 n=e4 v=0
459748 On ch=2 n=a4 v=106
459748 On ch=2 n=a3 v=106
460416 On ch=2 n=a3 v=0
460416 On ch=2 n=a4 v=0
460416 On ch=2 n=c4 v=107
460416 On ch=2 n=c3 v=107
461074 On ch=2 n=c3 v=0
461074 On ch=2 n=c4 v=0
461074 On ch=2 n=f3 v=107
461074 On ch=2 n=f2 v=107
461080 Par ch=2 c=64 v=127
461782 On ch=2 n=f2 v=0
461782 On ch=2 n=f3 v=0
461782 On ch=2 n=e4 v=102
461960 On ch=2 n=e4 v=0
461960 On ch=2 n=g4 v=102
462118 On ch=2 n=g4 v=0
462118 On ch=2 n=f4 v=101
462288 On ch=2 n=f4 v=0
462288 On ch=2 n=c4 v=101
462444 On ch=2 n=c4 v=0
462444 On ch=2 n=a3 v=102
463114 On ch=2 n=a3 v=0
463114 On ch=2 n=e4 v=101
463282 On ch=2 n=e4 v=0
463282 On ch=2 n=g4 v=101
463430 On ch=2 n=g4 v=0
463430 On ch=2 n=f4 v=101
463590 On ch=2 n=f4 v=0
463590 On ch=2 n=c4 v=101
463766 On ch=2 n=c4 v=0
463766 On ch=2 n=a3 v=95
464328 Par ch=2 c=64 v=0
464366 On ch=2 n=a3 v=0
464366 On ch=2 n=f4 v=95
464366 On ch=2 n=f3 v=95
465016 On ch=2 n=f3 v=0
465016 On ch=2 n=f4 v=0
465016 On ch=2 n=f#3 v=118
465016 On ch=2 n=f#2 v=118
465022 Par ch=2 c=64 v=127
465688 On ch=2 n=f#2 v=0
465688 On ch=2 n=f#3 v=0
465688 On ch=2 n=e4 v=93
465856 On ch=2 n=e4 v=0
465856 On ch=2 n=g4 v=93
466020 On ch=2 n=g4 v=0
466020 On ch=2 n=f4 v=89
466188 On ch=2 n=f4 v=0
466188 On ch=2 n=d4 v=89
466340 On ch=2 n=d4 v=0
466340 On ch=2 n=a#3 v=88
466952 Par ch=2 c=64 v=0
467020 On ch=2 n=a#3 v=0
467020 On ch=2 n=f4 v=88
467020 On ch=2 n=f3 v=88
467658 On ch=2 n=f3 v=0
467658 On ch=2 n=f4 v=0
467658 On ch=2 n=a#4 v=91
467658 On ch=2 n=a#3 v=91
468300 On ch=2 n=a#3 v=0
468300 On ch=2 n=a#4 v=0
468300 On ch=2 n=d4 v=88
468300 On ch=2 n=d3 v=88
468920 On ch=2 n=d3 v=0
468920 On ch=2 n=d4 v=0
468920 On ch=2 n=f3 v=107
468920 On ch=2 n=f2 v=107
468926 Par ch=2 c=64 v=127
469604 On ch=2 n=f2 v=0
469604 On ch=2 n=f3 v=0
469604 On ch=2 n=d4 v=92
469776 On ch=2 n=d4 v=0
469776 On ch=2 n=f4 v=92
469932 On ch=2 n=f4 v=0
469932 On ch=2 n=d#4 v=91
470102 On ch=2 n=d#4 v=0
470102 On ch=2 n=c4 v=91
470260 On ch=2 n=c4 v=0
470260 On ch=2 n=a3 v=91
470902 On ch=2 n=a3 v=0
470902 On ch=2 n=d4 v=90
471062 On ch=2 n=d4 v=0
471062 On ch=2 n=f4 v=90
471232 On ch=2 n=f4 v=0
471232 On ch=2 n=d#4 v=90
471390 On ch=2 n=d#4 v=0
471390 On ch=2 n=c4 v=90
471556 On ch=2 n=c4 v=0
471556 On ch=2 n=a3 v=90
472120 Par ch=2 c=64 v=0
472160 On ch=2 n=a3 v=0
472160 On ch=2 n=f4 v=86
472160 On ch=2 n=f3 v=86
472796 On ch=2 n=f3 v=0
472796 On ch=2 n=f4 v=0
472796 On ch=2 n=f3 v=112
472796 On ch=2 n=f2 v=112
472802 Par ch=2 c=64 v=127
473496 On ch=2 n=f2 v=0
473496 On ch=2 n=f3 v=0
473496 On ch=2 n=d4 v=84
473672 On ch=2 n=d4 v=0
473672 On ch=2 n=f4 v=84
473824 On ch=2 n=f4 v=0
473824 On ch=2 n=d#4 v=86
473994 On ch=2 n=d#4 v=0
473994 On ch=2 n=b3 v=86
474138 On ch=2 n=b3 v=0
474138 On ch=2 n=a3 v=86
474746 Par ch=2 c=64 v=0
474774 On ch=2 n=a3 v=0
474774 On ch=2 n=f4 v=86
474774 On ch=2 n=f3 v=86
475414 On ch=2 n=f3 v=0
475414 On ch=2 n=f4 v=0
475414 On ch=2 n=a4 v=86
475414 On ch=2 n=a3 v=86
476052 On ch=2 n=a3 v=0
476052 On ch=2 n=a4 v=0
476052 On ch=2 n=d#4 v=84
476052 On ch=2 n=d#3 v=84
476660 On ch=2 n=d#3 v=0
476660 On ch=2 n=d#4 v=0
476660 On ch=2 n=e3 v=102
476660 On ch=2 n=f2 v=102
476666 Par ch=2 c=64 v=127
477368 On ch=2 n=f2 v=0
477368 On ch=2 n=e3 v=0
477368 On ch=2 n=d4 v=86
477546 On ch=2 n=d4 v=0
477546 On ch=2 n=f4 v=86
477708 On ch=2 n=f4 v=0
477708 On ch=2 n=e4 v=81
477886 On ch=2 n=e4 v=0
477886 On ch=2 n=c4 v=81
478036 On ch=2 n=c4 v=0
478036 On ch=2 n=a3 v=78
478700 On ch=2 n=a3 v=0
478700 On ch=2 n=d4 v=76
478866 On ch=2 n=d4 v=0
478866 On ch=2 n=f4 v=76
479016 On ch=2 n=f4 v=0
479016 On ch=2 n=e4 v=79
479178 On ch=2 n=e4 v=0
479178 On ch=2 n=c4 v=79
479322 On ch=2 n=c4 v=0
479322 On ch=2 n=a3 v=78
479892 Par ch=2 c=64 v=0
479928 On ch=2 n=a3 v=0
479928 On ch=2 n=c4 v=75
479928 On ch=2 n=c3 v=75
480542 On ch=2 n=c3 v=0
480542 On ch=2 n=c4 v=0
480542 On ch=2 n=d3 v=88
480542 On ch=2 n=d2 v=88
480548 Par ch=2 c=64 v=127
481200 On ch=2 n=d2 v=0
481200 On ch=2 n=d3 v=0
481200 On ch=2 n=c4 v=71
481364 On ch=2 n=c4 v=0
481364 On ch=2 n=e4 v=71
481534 On ch=2 n=e4 v=0
481534 On ch=2 n=d4 v=70
481698 On ch=2 n=d4 v=0
481698 On ch=2 n=b3 v=70
481850 On ch=2 n=b3 v=0
481850 On ch=2 n=a3 v=71
482460 Par ch=2 c=64 v=0
482512 On ch=2 n=a3 v=0
482512 On ch=2 n=d4 v=67
482512 On ch=2 n=d3 v=67
483134 On ch=2 n=d3 v=0
483134 On ch=2 n=d4 v=0
483134 On ch=2 n=a4 v=67
483134 On ch=2 n=a3 v=67
483760 On ch=2 n=a3 v=0
483760 On ch=2 n=a4 v=0
483760 On ch=2 n=e4 v=62
483760 On ch=2 n=e3 v=62
484358 On ch=2 n=e3 v=0
484358 On ch=2 n=e4 v=0
484358 On ch=2 n=a3 v=73
484358 On ch=2 n=a2 v=73
484362 Par ch=2 c=64 v=127
485032 On ch=2 n=a2 v=0
485032 On ch=2 n=a3 v=0
485032 On ch=2 n=d4 v=66
485202 On ch=2 n=d4 v=0
485202 On ch=2 n=f4 v=66
485380 On ch=2 n=f4 v=0
485380 On ch=2 n=e4 v=65
485550 On ch=2 n=e4 v=0
485550 On ch=2 n=c4 v=65
485692 On ch=2 n=c4 v=0
485692 On ch=2 n=a3 v=67
486324 On ch=2 n=a3 v=0
486324 On ch=2 n=d4 v=66
486482 On ch=2 n=d4 v=0
486482 On ch=2 n=f4 v=66
486640 On ch=2 n=f4 v=0
486640 On ch=2 n=e4 v=64
486796 On ch=2 n=e4 v=0
486796 On ch=2 n=c4 v=64
486940 On ch=2 n=c4 v=0
486940 On ch=2 n=a3 v=64
487536 Par ch=2 c=64 v=0
487576 On ch=2 n=a3 v=0
487576 On ch=2 n=d4 v=64
487736 On ch=2 n=d4 v=0
487736 On ch=2 n=f4 v=64
487908 On ch=2 n=f4 v=0
487908 On ch=2 n=e4 v=66
488068 On ch=2 n=e4 v=0
488068 On ch=2 n=c4 v=66
488198 On ch=2 n=c4 v=0
488198 On ch=2 n=a3 v=81
488874 On ch=2 n=a3 v=0
488874 On ch=2 n=d4 v=60
489044 On ch=2 n=d4 v=0
489044 On ch=2 n=f4 v=60
489278 On ch=2 n=f4 v=0
489278 On ch=2 n=e4 v=56
489462 On ch=2 n=e4 v=0
489462 On ch=2 n=c4 v=56
489640 On ch=2 n=c4 v=0
489640 On ch=2 n=a3 v=51
490474 On ch=2 n=a3 v=0
490474 On ch=2 n=d4 v=55
490682 On ch=2 n=d4 v=0
490682 On ch=2 n=f4 v=55
490862 On ch=2 n=f4 v=0
490862 On ch=2 n=e4 v=48
491068 On ch=2 n=e4 v=0
491068 On ch=2 n=c4 v=48
491274 On ch=2 n=c4 v=0
491274 On ch=2 n=a3 v=39
492274 On ch=2 n=a3 v=0
492274 On ch=2 n=d4 v=46
492522 On ch=2 n=d4 v=0
492522 On ch=2 n=f4 v=46
492770 On ch=2 n=f4 v=0
492770 On ch=2 n=e4 v=41
493020 On ch=2 n=e4 v=0
493020 On ch=2 n=c4 v=41
493318 On ch=2 n=c4 v=0
532046 On ch=2 n=e4 v=46
532046 On ch=2 n=a3 v=46
533638 On ch=2 n=e4 v=0
533638 On ch=2 n=f#4 v=42
534178 On ch=2 n=f#4 v=0
534178 On ch=2 n=e4 v=44
534652 On ch=2 n=e4 v=0
534652 On ch=2 n=f#4 v=47
535188 On ch=2 n=f#4 v=0
535188 On ch=2 n=e4 v=41
536262 On ch=2 n=e4 v=0
536262 On ch=2 n=f#4 v=44
537344 On ch=2 n=f#4 v=0
537344 On ch=2 n=e4 v=44
537868 On ch=2 n=e4 v=0
537868 On ch=2 n=a3 v=0
537868 On ch=2 n=c#5 v=51
538372 On ch=2 n=c#5 v=0
538372 On ch=2 n=b4 v=49
539420 On ch=2 n=b4 v=0
539420 On ch=2 n=a4 v=49
540486 On ch=2 n=a4 v=0
540486 On ch=2 n=f#4 v=48
541260 On ch=2 n=f#4 v=0
541260 On ch=2 n=g#4 v=50
541514 On ch=2 n=g#4 v=0
541514 On ch=2 n=e4 v=50
542570 On ch=2 n=e3 v=48
543616 On ch=2 n=e3 v=0
543616 On ch=2 n=a3 v=47
544140 On ch=2 n=a3 v=0
544140 On ch=2 n=e4 v=0
544140 On ch=2 n=c#5 v=51
544668 On ch=2 n=c#5 v=0
544668 On ch=2 n=b4 v=48
545706 On ch=2 n=b4 v=0
545706 On ch=2 n=a4 v=47
546762 On ch=2 n=a4 v=0
546762 On ch=2 n=f#4 v=49
547550 On ch=2 n=f#4 v=0
547550 On ch=2 n=g#4 v=44
547780 On ch=2 n=g#4 v=0
547780 On ch=2 n=e4 v=48
548832 On ch=2 n=e3 v=46
549876 On ch=2 n=e3 v=0
549876 On ch=2 n=a3 v=50
550380 On ch=2 n=a3 v=0
550380 On ch=2 n=e4 v=0
550632 On ch=2 n=g#4 v=48
550904 On ch=2 n=g#4 v=0
550904 On ch=2 n=a4 v=49
551938 On ch=2 n=a4 v=0
551938 On ch=2 n=c#5 v=49
553034 On ch=2 n=c#5 v=0
553034 On ch=2 n=b4 v=46
553568 On ch=2 n=b4 v=0
553568 On ch=2 n=a4 v=50
554102 On ch=2 n=a4 v=0
554102 On ch=2 n=f#4 v=52
554610 On ch=2 n=f#4 v=0
554610 On ch=2 n=g#4 v=56
555114 On ch=2 n=g#4 v=0
555114 On ch=2 n=b3 v=55
556200 On ch=2 n=b3 v=0
595734 On ch=2 n=b4 v=55
595734 On ch=2 n=e4 v=55
597396 On ch=2 n=b4 v=0
597396 On ch=2 n=c#5 v=52
597936 On ch=2 n=c#5 v=0
597936 On ch=2 n=b4 v=55
598444 On ch=2 n=b4 v=0
598444 On ch=2 n=c#5 v=58
598984 On ch=2 n=c#5 v=0
598984 On ch=2 n=b4 v=53
600106 On ch=2 n=b4 v=0
600106 On ch=2 n=c#5 v=53
601218 On ch=2 n=c#5 v=0
601218 On ch=2 n=b4 v=55
601730 On ch=2 n=b4 v=0
601730 On ch=2 n=e4 v=0
601730 On ch=2 n=g#5 v=58
602254 On ch=2 n=g#5 v=0
602254 On ch=2 n=f#5 v=55
603318 On ch=2 n=f#5 v=0
603318 On ch=2 n=e5 v=55
604390 On ch=2 n=e5 v=0
604390 On ch=2 n=c#5 v=55
605188 On ch=2 n=c#5 v=0
605188 On ch=2 n=d#5 v=56
605450 On ch=2 n=d#5 v=0
605450 On ch=2 n=b4 v=53
606524 On ch=2 n=b3 v=53
607616 On ch=2 n=b3 v=0
607616 On ch=2 n=b4 v=0
607616 On ch=2 n=b4 v=55
607616 On ch=2 n=e4 v=55
608132 On ch=2 n=e4 v=0
608132 On ch=2 n=b4 v=0
608132 On ch=2 n=g#5 v=63
608652 On ch=2 n=g#5 v=0
608652 On ch=2 n=f#5 v=53
609716 On ch=2 n=f#5 v=0
609716 On ch=2 n=e5 v=55
610764 On ch=2 n=e5 v=0
610764 On ch=2 n=c#5 v=58
611564 On ch=2 n=c#5 v=0
611564 On ch=2 n=d#5 v=55
611798 On ch=2 n=d#5 v=0
611798 On ch=2 n=b4 v=58
612868 On ch=2 n=b3 v=50
613980 On ch=2 n=b3 v=0
613980 On ch=2 n=e4 v=55
614496 On ch=2 n=e4 v=0
614496 On ch=2 n=b4 v=0
614754 On ch=2 n=e6 v=58
614754 On ch=2 n=a#5 v=58
615036 On ch=2 n=a#5 v=0
615036 On ch=2 n=e6 v=0
615036 On ch=2 n=d6 v=55
615036 On ch=2 n=b5 v=55
616092 On ch=2 n=b5 v=0
616092 On ch=2 n=d6 v=0
616092 On ch=2 n=c6 v=55
616092 On ch=2 n=a5 v=55
617186 On ch=2 n=a5 v=0
617186 On ch=2 n=c6 v=0
617186 On ch=2 n=b5 v=54
617186 On ch=2 n=g#5 v=54
617186 On ch=2 n=e5 v=54
618044 On ch=2 n=g#5 v=0
618044 On ch=2 n=b5 v=0
618044 On ch=2 n=e6 v=53
618044 On ch=2 n=a#5 v=53
618298 On ch=2 n=a#5 v=0
618298 On ch=2 n=e6 v=0
618298 On ch=2 n=d6 v=54
618298 On ch=2 n=b5 v=54
619418 On ch=2 n=b5 v=0
619418 On ch=2 n=d6 v=0
619418 On ch=2 n=c6 v=51
619418 On ch=2 n=a5 v=51
620526 On ch=2 n=a5 v=0
620526 On ch=2 n=c6 v=0
620526 On ch=2 n=b5 v=53
620526 On ch=2 n=g#5 v=53
621052 On ch=2 n=g#5 v=0
621052 On ch=2 n=b5 v=0
621314 On ch=2 n=d#6 v=52
621314 On ch=2 n=c#6 v=52
621596 On ch=2 n=c#6 v=0
621596 On ch=2 n=d#6 v=0
621596 On ch=2 n=e6 v=53
621596 On ch=2 n=b5 v=53
622706 On ch=2 n=b5 v=0
622706 On ch=2 n=e6 v=0
622706 On ch=2 n=e5 v=0
622706 On ch=2 n=e6 v=52
622706 On ch=2 n=c#6 v=52
622706 On ch=2 n=f#5 v=52
623854 On ch=2 n=f#5 v=0
623854 On ch=2 n=c#6 v=0
623854 On ch=2 n=e6 v=0
623854 On ch=2 n=d6 v=50
623854 On ch=2 n=b5 v=50
624694 On ch=2 n=b5 v=0
624694 On ch=2 n=d6 v=0
624694 On ch=2 n=c#6 v=50
624694 On ch=2 n=f#5 v=50
624952 On ch=2 n=f#5 v=0
624952 On ch=2 n=c#6 v=0
624952 On ch=2 n=d6 v=51
624952 On ch=2 n=b5 v=51
626058 On ch=2 n=b5 v=0
626058 On ch=2 n=d6 v=0
626058 On ch=2 n=c#6 v=53
626058 On ch=2 n=f#5 v=53
627146 On ch=2 n=f#5 v=0
627146 On ch=2 n=c#6 v=0
633600 On ch=2 n=f5 v=59
633600 On ch=2 n=a4 v=59
634646 On ch=2 n=f5 v=0
634646 On ch=2 n=f#5 v=59
635180 On ch=2 n=f#5 v=0
635180 On ch=2 n=f5 v=56
635730 On ch=2 n=f5 v=0
635730 On ch=2 n=f#5 v=56
636546 On ch=2 n=f#5 v=0
636546 On ch=2 n=a5 v=56
636814 On ch=2 n=a5 v=0
636814 On ch=2 n=a5 v=59
637846 On ch=2 n=a5 v=0
637846 On ch=2 n=e5 v=58
638918 On ch=2 n=a4 v=0
638918 On ch=2 n=g#4 v=55
639994 On ch=2 n=g#4 v=0
639994 On ch=2 n=e5 v=0
646260 On ch=2 n=e4 v=66
646780 On ch=2 n=c5 v=63
647272 On ch=2 n=c5 v=0
647272 On ch=2 n=c#5 v=70
647794 On ch=2 n=c#5 v=0
647794 On ch=2 n=c5 v=66
648340 On ch=2 n=c5 v=0
648340 On ch=2 n=c#5 v=69
649200 On ch=2 n=c#5 v=0
649200 On ch=2 n=e5 v=61
649458 On ch=2 n=e5 v=0
649458 On ch=2 n=e5 v=56
650494 On ch=2 n=e5 v=0
650494 On ch=2 n=b4 v=55
651586 On ch=2 n=e4 v=0
651586 On ch=2 n=e4 v=52
652700 On ch=2 n=e4 v=0
652700 On ch=2 n=b4 v=0
663478 On ch=2 n=f#3 v=62
664540 On ch=2 n=f#3 v=0
664540 On ch=2 n=g#3 v=56
665584 On ch=2 n=g#3 v=0
665584 On ch=2 n=a3 v=61
665588 Par ch=2 c=64 v=127
666658 On ch=2 n=a3 v=0
667708 On ch=2 n=e5 v=64
669842 On ch=2 n=e4 v=63
670914 On ch=2 n=e5 v=0
670914 On ch=2 n=f#5 v=66
671984 Par ch=2 c=64 v=0
671988 On ch=2 n=f#5 v=0
671988 On ch=2 n=e4 v=0
671988 On ch=2 n=e3 v=64
671992 Par ch=2 c=64 v=127
673044 On ch=2 n=e3 v=0
673044 On ch=2 n=g#5 v=70
673044 On ch=2 n=d5 v=70
674146 Par ch=2 c=64 v=0
674150 On ch=2 n=d5 v=0
674150 On ch=2 n=g#5 v=0
675274 On ch=2 n=a2 v=61
675278 Par ch=2 c=64 v=127
676388 On ch=2 n=a2 v=0
676388 On ch=2 n=e4 v=55
676388 On ch=2 n=a3 v=55
677510 Par ch=2 c=64 v=0
678066 On ch=2 n=e4 v=0
678066 On ch=2 n=f#4 v=53
678604 On ch=2 n=f#4 v=0
678604 On ch=2 n=a3 v=0
678604 On ch=2 n=e4 v=56
678604 On ch=2 n=a3 v=56
679152 On ch=2 n=e4 v=0
679152 On ch=2 n=f#4 v=55
679714 On ch=2 n=f#4 v=0
679714 On ch=2 n=e4 v=51
680808 On ch=2 n=e4 v=0
680808 On ch=2 n=c#5 v=56
681898 On ch=2 n=c#5 v=0
681898 On ch=2 n=a3 v=0
721350 On ch=2 n=b3 v=78
722990 On ch=2 n=b3 v=0
722990 On ch=2 n=c#4 v=60
723514 On ch=2 n=c#4 v=0
723514 On ch=2 n=b3 v=63
724046 On ch=2 n=b3 v=0
724046 On ch=2 n=c#4 v=60
724584 On ch=2 n=c#4 v=0
724584 On ch=2 n=b3 v=60
725684 On ch=2 n=b3 v=0
725684 On ch=2 n=c#4 v=57
726782 On ch=2 n=c#4 v=0
726782 On ch=2 n=b3 v=60
727282 On ch=2 n=b3 v=0
727282 On ch=2 n=g#4 v=65
727798 On ch=2 n=g#4 v=0
727798 On ch=2 n=f#4 v=67
728824 On ch=2 n=f#4 v=0
728824 On ch=2 n=e4 v=65
729890 On ch=2 n=e4 v=0
729890 On ch=2 n=c#4 v=61
730654 On ch=2 n=c#4 v=0
730654 On ch=2 n=d#4 v=63
730924 On ch=2 n=d#4 v=0
730924 On ch=2 n=b3 v=60
732996 On ch=2 n=e3 v=67
733514 On ch=2 n=e3 v=0
733514 On ch=2 n=b3 v=0
733514 On ch=2 n=g#5 v=65
734080 On ch=2 n=g#5 v=0
734080 On ch=2 n=f#5 v=57
735164 On ch=2 n=f#5 v=0
735164 On ch=2 n=e5 v=61
736218 On ch=2 n=e5 v=0
736218 On ch=2 n=c#5 v=62
737012 On ch=2 n=c#5 v=0
737012 On ch=2 n=d#5 v=60
737256 On ch=2 n=d#5 v=0
737256 On ch=2 n=b4 v=61
739380 On ch=2 n=e4 v=62
739914 On ch=2 n=e4 v=0
739914 On ch=2 n=b4 v=0
739914 On ch=2 n=d#5 v=60
740412 On ch=2 n=d#5 v=0
740412 On ch=2 n=e5 v=62
741440 On ch=2 n=e5 v=0
741440 On ch=2 n=g#5 v=63
742522 On ch=2 n=g#5 v=0
742522 On ch=2 n=f#5 v=58
743040 On ch=2 n=f#5 v=0
743040 On ch=2 n=e5 v=70
743546 On ch=2 n=e5 v=0
743546 On ch=2 n=c#5 v=67
744040 On ch=2 n=c#5 v=0
744040 On ch=2 n=d#5 v=68
744576 On ch=2 n=d#5 v=0
744576 On ch=2 n=f#4 v=56
745626 On ch=2 n=f#4 v=0
784154 On ch=2 n=f#4 v=59
784154 On ch=2 n=b3 v=59
785788 On ch=2 n=f#4 v=0
785788 On ch=2 n=g#4 v=65
786286 On ch=2 n=g#4 v=0
786286 On ch=2 n=f#4 v=65
786780 On ch=2 n=f#4 v=0
786780 On ch=2 n=g#4 v=65
787310 On ch=2 n=g#4 v=0
787310 On ch=2 n=f#4 v=63
788378 On ch=2 n=f#4 v=0
788378 On ch=2 n=g#4 v=63
789442 On ch=2 n=g#4 v=0
789442 On ch=2 n=f#4 v=63
789950 On ch=2 n=f#4 v=0
789950 On ch=2 n=b3 v=0
789950 On ch=2 n=d#5 v=71
790472 On ch=2 n=d#5 v=0
790472 On ch=2 n=c#5 v=60
791522 On ch=2 n=c#5 v=0
791522 On ch=2 n=b4 v=65
792554 On ch=2 n=b4 v=0
792554 On ch=2 n=g#4 v=65
793300 On ch=2 n=g#4 v=0
793300 On ch=2 n=a#4 v=67
793536 On ch=2 n=a#4 v=0
793536 On ch=2 n=f#4 v=68
794544 On ch=2 n=f#3 v=71
795610 On ch=2 n=f#3 v=0
795610 On ch=2 n=f#4 v=0
795610 On ch=2 n=f#4 v=65
795610 On ch=2 n=b3 v=65
796134 On ch=2 n=b3 v=0
796134 On ch=2 n=f#4 v=0
796396 On ch=2 n=d#5 v=62
796712 On ch=2 n=d#5 v=0
796712 On ch=2 n=c#5 v=53
797814 On ch=2 n=c#5 v=0
797814 On ch=2 n=b4 v=64
798874 On ch=2 n=b4 v=0
798874 On ch=2 n=g#4 v=63
799624 On ch=2 n=g#4 v=0
799624 On ch=2 n=a#4 v=65
799872 On ch=2 n=a#4 v=0
799872 On ch=2 n=f#4 v=63
800902 On ch=2 n=f#3 v=67
801944 On ch=2 n=f#3 v=0
801944 On ch=2 n=b3 v=68
802482 On ch=2 n=b3 v=0
802482 On ch=2 n=f#4 v=0
802750 On ch=2 n=b5 v=64
802750 On ch=2 n=f5 v=64
802968 On ch=2 n=f5 v=0
802968 On ch=2 n=b5 v=0
802968 On ch=2 n=a5 v=70
802968 On ch=2 n=f#5 v=70
804014 On ch=2 n=f#5 v=0
804014 On ch=2 n=a5 v=0
804014 On ch=2 n=g5 v=63
804014 On ch=2 n=e5 v=63
805046 On ch=2 n=e5 v=0
805046 On ch=2 n=g5 v=0
805046 On ch=2 n=f#5 v=65
805046 On ch=2 n=d5 v=65
805046 On ch=2 n=b4 v=65
805524 On ch=2 n=d5 v=0
805524 On ch=2 n=f#5 v=0
805524 On ch=2 n=b5 v=71
805524 On ch=2 n=f5 v=71
806032 On ch=2 n=f5 v=0
806032 On ch=2 n=b5 v=0
806032 On ch=2 n=a5 v=67
806032 On ch=2 n=f#5 v=67
807082 On ch=2 n=f#5 v=0
807082 On ch=2 n=a5 v=0
807082 On ch=2 n=g#5 v=62
807082 On ch=2 n=f5 v=62
808140 On ch=2 n=f5 v=0
808140 On ch=2 n=g#5 v=0
808140 On ch=2 n=f#5 v=60
808140 On ch=2 n=d#5 v=60
808640 On ch=2 n=d#5 v=0
808640 On ch=2 n=f#5 v=0
808890 On ch=2 n=a#5 v=64
808890 On ch=2 n=g#5 v=64
809134 On ch=2 n=g#5 v=0
809134 On ch=2 n=a#5 v=0
809134 On ch=2 n=b5 v=64
809134 On ch=2 n=f#5 v=64
810190 On ch=2 n=f#5 v=0
810190 On ch=2 n=b5 v=0
810190 On ch=2 n=b4 v=0
810190 On ch=2 n=b5 v=58
810190 On ch=2 n=g#5 v=58
810190 On ch=2 n=c#5 v=58
811252 On ch=2 n=c#5 v=0
811252 On ch=2 n=g#5 v=0
811252 On ch=2 n=b5 v=0
811252 On ch=2 n=a5 v=57
811252 On ch=2 n=f#5 v=57
811738 On ch=2 n=f#5 v=0
811738 On ch=2 n=a5 v=0
811738 On ch=2 n=g#5 v=67
811738 On ch=2 n=c#5 v=67
812236 On ch=2 n=c#5 v=0
812236 On ch=2 n=g#5 v=0
812236 On ch=2 n=a5 v=64
812236 On ch=2 n=f#5 v=64
813262 On ch=2 n=f#5 v=0
813262 On ch=2 n=a5 v=0
813262 On ch=2 n=g#5 v=62
813262 On ch=2 n=c#5 v=62
814332 On ch=2 n=c#5 v=0
814332 On ch=2 n=g#5 v=0
820470 On ch=2 n=e4 v=65
820944 On ch=2 n=c5 v=70
821472 On ch=2 n=c5 v=0
821472 On ch=2 n=c#5 v=64
821982 On ch=2 n=c#5 v=0
821982 On ch=2 n=c5 v=65
822498 On ch=2 n=c5 v=0
822498 On ch=2 n=c#5 v=64
823304 On ch=2 n=c#5 v=0
823304 On ch=2 n=e5 v=61
823554 On ch=2 n=e5 v=0
823554 On ch=2 n=e5 v=62
824578 On ch=2 n=e5 v=0
824578 On ch=2 n=b4 v=63
825604 On ch=2 n=e4 v=0
825604 On ch=2 n=d#4 v=62
826660 On ch=2 n=d#4 v=0
826660 On ch=2 n=b4 v=0
832832 On ch=2 n=f#4 v=65
832832 On ch=2 n=b3 v=65
833322 On ch=2 n=f#4 v=0
833322 On ch=2 n=f#4 v=67
833820 On ch=2 n=f#4 v=0
833820 On ch=2 n=g#4 v=65
834318 On ch=2 n=g#4 v=0
834318 On ch=2 n=f#4 v=65
834828 On ch=2 n=f#4 v=0
834828 On ch=2 n=g#4 v=63
835580 On ch=2 n=g#4 v=0
835580 On ch=2 n=b4 v=67
835828 On ch=2 n=b4 v=0
835828 On ch=2 n=b4 v=67
836844 On ch=2 n=b4 v=0
836844 On ch=2 n=f#4 v=65
837876 On ch=2 n=b3 v=0
837876 On ch=2 n=b3 v=63
838910 On ch=2 n=b3 v=0
838910 On ch=2 n=f#4 v=0
866950 On ch=2 n=e3 v=68
868990 On ch=2 n=e3 v=0
868990 On ch=2 n=d#3 v=68
870034 On ch=2 n=d#3 v=0
870034 On ch=2 n=d3 v=63
871100 On ch=2 n=d3 v=0
871100 On ch=2 n=c#3 v=61
872746 On ch=2 n=c#3 v=0
872746 On ch=2 n=f#3 v=56
873256 On ch=2 n=f#3 v=0
873256 On ch=2 n=f#3 v=61
873778 On ch=2 n=f#3 v=0
873778 On ch=2 n=f3 v=58
874296 On ch=2 n=f3 v=0
874296 On ch=2 n=f3 v=59
875358 On ch=2 n=f3 v=0
875358 On ch=2 n=d3 v=57
876442 On ch=2 n=d3 v=0
876974 On ch=2 n=d3 v=60
878012 On ch=2 n=d3 v=0
878012 On ch=2 n=c#3 v=63
879118 On ch=2 n=c#3 v=0
879118 On ch=2 n=a3 v=59
879644 On ch=2 n=a3 v=0
879644 On ch=2 n=a3 v=61
880154 On ch=2 n=a3 v=0
880154 On ch=2 n=g#3 v=63
880658 On ch=2 n=g#3 v=0
880658 On ch=2 n=g#3 v=62
882714 On ch=2 n=g#3 v=0
882714 On ch=2 n=c3 v=100
883030 On ch=2 n=c3 v=0
883030 On ch=2 n=c#3 v=100
883210 On ch=2 n=c#3 v=0
883210 On ch=2 n=e3 v=101
883458 On ch=2 n=e3 v=0
883458 On ch=2 n=f3 v=101
883728 On ch=2 n=f3 v=0
883728 On ch=2 n=g3 v=101
883986 On ch=2 n=g3 v=0
883986 On ch=2 n=g#3 v=101
884224 On ch=2 n=g#3 v=0
884224 On ch=2 n=c4 v=101
884472 On ch=2 n=c4 v=0
884472 On ch=2 n=c#4 v=101
884708 On ch=2 n=c#4 v=0
884708 On ch=2 n=e4 v=101
884950 On ch=2 n=e4 v=0
884950 On ch=2 n=f4 v=101
885226 On ch=2 n=f4 v=0
885226 On ch=2 n=g4 v=101
885484 On ch=2 n=g4 v=0
885484 On ch=2 n=g#4 v=101
885718 On ch=2 n=g#4 v=0
885718 On ch=2 n=c5 v=101
885964 On ch=2 n=c5 v=0
885964 On ch=2 n=c#5 v=101
886218 On ch=2 n=c#5 v=0
886218 On ch=2 n=e5 v=104
886468 On ch=2 n=e5 v=0
886468 On ch=2 n=f5 v=104
886704 On ch=2 n=f5 v=0
886704 On ch=2 n=g5 v=107
886946 On ch=2 n=g5 v=0
886946 On ch=2 n=g#5 v=107
887198 On ch=2 n=g#5 v=0
887198 On ch=2 n=c6 v=113
887444 On ch=2 n=c6 v=0
887444 On ch=2 n=c#6 v=113
887704 On ch=2 n=c#6 v=0
887704 On ch=2 n=e6 v=115
887956 On ch=2 n=e6 v=0
887956 On ch=2 n=f6 v=115
888210 On ch=2 n=f6 v=0
888210 On ch=2 n=g6 v=116
888462 On ch=2 n=g6 v=0
888462 On ch=2 n=g#6 v=116
888716 On ch=2 n=g#6 v=0
888716 On ch=2 n=c#7 v=118
889840 On ch=2 n=c#7 v=0
896680 On ch=2 n=b4 v=64
896680 On ch=2 n=b3 v=64
898042 On ch=2 n=b3 v=0
898042 On ch=2 n=b4 v=0
898042 On ch=2 n=a4 v=58
898042 On ch=2 n=a3 v=58
899390 On ch=2 n=a3 v=0
899390 On ch=2 n=a4 v=0
899390 On ch=2 n=d5 v=60
899390 On ch=2 n=d4 v=60
900796 On ch=2 n=d4 v=0
900796 On ch=2 n=d5 v=0
900796 On ch=2 n=c#5 v=61
900796 On ch=2 n=d#4 v=61
902210 On ch=2 n=d#4 v=0
902210 On ch=2 n=c#5 v=0
905052 On ch=2 n=b4 v=58
905052 On ch=2 n=b3 v=58
906458 On ch=2 n=b3 v=0
906458 On ch=2 n=b4 v=0
906458 On ch=2 n=a4 v=54
906458 On ch=2 n=a3 v=54
907882 On ch=2 n=a3 v=0
907882 On ch=2 n=a4 v=0
907882 On ch=2 n=f#5 v=58
907882 On ch=2 n=f#4 v=58
909422 On ch=2 n=f#4 v=0
909422 On ch=2 n=f#5 v=0
909422 On ch=2 n=e5 v=51
909422 On ch=2 n=e4 v=51
910850 On ch=2 n=e4 v=0
910850 On ch=2 n=e5 v=0
913314 On ch=2 n=c3 v=100
913586 On ch=2 n=c3 v=0
913586 On ch=2 n=c#3 v=100
913872 On ch=2 n=c#3 v=0
913872 On ch=2 n=e3 v=100
914150 On ch=2 n=e3 v=0
914150 On ch=2 n=f3 v=100
914410 On ch=2 n=f3 v=0
914410 On ch=2 n=g3 v=98
914678 On ch=2 n=g3 v=0
914678 On ch=2 n=g#3 v=98
914940 On ch=2 n=g#3 v=0
914940 On ch=2 n=c4 v=101
915204 On ch=2 n=c4 v=0
915204 On ch=2 n=c#4 v=101
915432 On ch=2 n=c#4 v=0
915432 On ch=2 n=e4 v=103
915678 On ch=2 n=e4 v=0
915678 On ch=2 n=f4 v=103
915924 On ch=2 n=f4 v=0
915924 On ch=2 n=g4 v=111
916170 On ch=2 n=g4 v=0
916170 On ch=2 n=g#4 v=111
916422 On ch=2 n=g#4 v=0
916422 On ch=2 n=c5 v=111
916670 On ch=2 n=c5 v=0
916670 On ch=2 n=c#5 v=111
916904 On ch=2 n=c#5 v=0
916904 On ch=2 n=e5 v=111
917144 On ch=2 n=e5 v=0
917144 On ch=2 n=f5 v=111
917394 On ch=2 n=f5 v=0
917394 On ch=2 n=g5 v=111
917638 On ch=2 n=g5 v=0
917638 On ch=2 n=g#5 v=111
917862 On ch=2 n=g#5 v=0
917862 On ch=2 n=c6 v=111
918098 On ch=2 n=c6 v=0
918098 On ch=2 n=c#6 v=111
918348 On ch=2 n=c#6 v=0
918348 On ch=2 n=e6 v=111
918590 On ch=2 n=e6 v=0
918590 On ch=2 n=f6 v=111
918816 On ch=2 n=f6 v=0
918816 On ch=2 n=g6 v=111
918974 On ch=2 n=g6 v=0
918974 On ch=2 n=g#6 v=111
919130 On ch=2 n=g#6 v=0
919130 On ch=2 n=c#7 v=111
919312 On ch=2 n=c#7 v=0
919312 On ch=2 n=f7 v=115
920924 On ch=2 n=f7 v=0
930192 On ch=2 n=d3 v=65
930192 On ch=2 n=d2 v=65
931016 On ch=2 n=d2 v=0
931016 On ch=2 n=d3 v=0
931016 On ch=2 n=d3 v=67
931016 On ch=2 n=d2 v=67
931392 On ch=2 n=d2 v=0
931392 On ch=2 n=d3 v=0
931392 On ch=2 n=c#3 v=65
931392 On ch=2 n=c#2 v=65
931728 On ch=2 n=c#2 v=0
931728 On ch=2 n=c#3 v=0
931728 On ch=2 n=c#3 v=67
931728 On ch=2 n=c#2 v=67
932064 On ch=2 n=c#2 v=0
932064 On ch=2 n=c#3 v=0
932064 On ch=2 n=f#2 v=66
932398 On ch=2 n=f#2 v=0
932398 On ch=2 n=f2 v=66
933904 On ch=2 n=f2 v=0
935116 On ch=2 n=d3 v=65
935116 On ch=2 n=d2 v=65
935504 On ch=2 n=d2 v=0
935504 On ch=2 n=d3 v=0
935504 On ch=2 n=d3 v=62
935504 On ch=2 n=d2 v=62
935848 On ch=2 n=d2 v=0
935848 On ch=2 n=d3 v=0
935848 On ch=2 n=c#3 v=65
935848 On ch=2 n=c#2 v=65
936168 On ch=2 n=c#2 v=0
936168 On ch=2 n=c#3 v=0
936168 On ch=2 n=c#3 v=67
936168 On ch=2 n=c#2 v=67
936500 On ch=2 n=c#2 v=0
936500 On ch=2 n=c#3 v=0
936500 On ch=2 n=a2 v=65
936864 On ch=2 n=a2 v=0
936864 On ch=2 n=g#2 v=66
938400 On ch=2 n=g#2 v=0
939564 On ch=2 n=d3 v=65
939564 On ch=2 n=d2 v=65
939922 On ch=2 n=d2 v=0
939922 On ch=2 n=d3 v=0
939922 On ch=2 n=d3 v=66
939922 On ch=2 n=d2 v=66
940266 On ch=2 n=d2 v=0
940266 On ch=2 n=d3 v=0
940266 On ch=2 n=c#3 v=69
940266 On ch=2 n=c#2 v=69
940586 On ch=2 n=c#2 v=0
940586 On ch=2 n=c#3 v=0
940586 On ch=2 n=c#3 v=70
940586 On ch=2 n=c#2 v=70
940894 On ch=2 n=c#2 v=0
940894 On ch=2 n=c#3 v=0
940894 On ch=2 n=f#3 v=72
940894 On ch=2 n=f#2 v=72
941224 On ch=2 n=f#2 v=0
941224 On ch=2 n=f#3 v=0
941224 On ch=2 n=f#3 v=73
941224 On ch=2 n=f#2 v=73
941556 On ch=2 n=f#2 v=0
941556 On ch=2 n=f#3 v=0
941556 On ch=2 n=f3 v=75
941556 On ch=2 n=f2 v=75
941874 On ch=2 n=f2 v=0
941874 On ch=2 n=f3 v=0
941874 On ch=2 n=f3 v=76
941874 On ch=2 n=f2 v=76
942204 On ch=2 n=f2 v=0
942204 On ch=2 n=f3 v=0
942204 On ch=2 n=d3 v=82
942204 On ch=2 n=d2 v=82
942554 On ch=2 n=d2 v=0
942554 On ch=2 n=d3 v=0
942554 On ch=2 n=d3 v=85
942554 On ch=2 n=d2 v=85
942870 On ch=2 n=d2 v=0
942870 On ch=2 n=d3 v=0
942870 On ch=2 n=c#3 v=87
942870 On ch=2 n=c#2 v=87
943184 On ch=2 n=c#2 v=0
943184 On ch=2 n=c#3 v=0
943184 On ch=2 n=c#3 v=83
943184 On ch=2 n=c#2 v=83
943480 On ch=2 n=c#2 v=0
943480 On ch=2 n=c#3 v=0
943480 On ch=2 n=a3 v=82
943480 On ch=2 n=a2 v=82
943776 On ch=2 n=a2 v=0
943776 On ch=2 n=a3 v=0
943776 On ch=2 n=a3 v=82
943776 On ch=2 n=a2 v=82
944070 On ch=2 n=a2 v=0
944070 On ch=2 n=a3 v=0
944070 On ch=2 n=g#3 v=80
944070 On ch=2 n=g#2 v=80
944370 On ch=2 n=g#2 v=0
944370 On ch=2 n=g#3 v=0
944370 On ch=2 n=g#3 v=80
944370 On ch=2 n=g#2 v=80
944664 On ch=2 n=g#2 v=0
944664 On ch=2 n=g#3 v=0
944664 On ch=2 n=d4 v=76
944664 On ch=2 n=d3 v=76
944962 On ch=2 n=d3 v=0
944962 On ch=2 n=d4 v=0
944962 On ch=2 n=d4 v=76
944962 On ch=2 n=d3 v=76
945258 On ch=2 n=d3 v=0
945258 On ch=2 n=d4 v=0
945258 On ch=2 n=c#4 v=75
945258 On ch=2 n=c#3 v=75
945538 On ch=2 n=c#3 v=0
945538 On ch=2 n=c#4 v=0
945538 On ch=2 n=c#4 v=73
945538 On ch=2 n=c#3 v=73
945838 On ch=2 n=c#3 v=0
945838 On ch=2 n=c#4 v=0
945838 On ch=2 n=f#4 v=75
945838 On ch=2 n=f#3 v=75
946136 On ch=2 n=f#3 v=0
946136 On ch=2 n=f#4 v=0
946136 On ch=2 n=f#4 v=75
946136 On ch=2 n=f#3 v=75
946428 On ch=2 n=f#3 v=0
946428 On ch=2 n=f#4 v=0
946428 On ch=2 n=f4 v=76
946428 On ch=2 n=f3 v=76
946712 On ch=2 n=f3 v=0
946712 On ch=2 n=f4 v=0
946712 On ch=2 n=f4 v=76
946712 On ch=2 n=f3 v=76
946990 On ch=2 n=f3 v=0
946990 On ch=2 n=f4 v=0
946990 On ch=2 n=a4 v=77
946990 On ch=2 n=a3 v=77
947294 On ch=2 n=a3 v=0
947294 On ch=2 n=a4 v=0
947294 On ch=2 n=a4 v=76
947294 On ch=2 n=a3 v=76
947592 On ch=2 n=a3 v=0
947592 On ch=2 n=a4 v=0
947592 On ch=2 n=g#4 v=75
947592 On ch=2 n=g#3 v=75
947866 On ch=2 n=g#3 v=0
947866 On ch=2 n=g#4 v=0
947866 On ch=2 n=g#4 v=74
947866 On ch=2 n=g#3 v=74
948152 On ch=2 n=g#3 v=0
948152 On ch=2 n=g#4 v=0
948152 On ch=2 n=d5 v=75
948152 On ch=2 n=d4 v=75
948442 On ch=2 n=d4 v=0
948442 On ch=2 n=d5 v=0
948442 On ch=2 n=d5 v=77
948442 On ch=2 n=d4 v=77
948736 On ch=2 n=d4 v=0
948736 On ch=2 n=d5 v=0
948736 On ch=2 n=c#5 v=82
948736 On ch=2 n=c#4 v=82
949038 On ch=2 n=c#4 v=0
949038 On ch=2 n=c#5 v=0
949038 On ch=2 n=c#5 v=83
949038 On ch=2 n=c#4 v=83
949328 On ch=2 n=c#4 v=0
949328 On ch=2 n=c#5 v=0
949328 On ch=2 n=a4 v=88
949328 On ch=2 n=a3 v=88
949630 On ch=2 n=a3 v=0
949630 On ch=2 n=a4 v=0
949630 On ch=2 n=a4 v=92
949630 On ch=2 n=a3 v=92
949924 On ch=2 n=a3 v=0
949924 On ch=2 n=a4 v=0
949924 On ch=2 n=g#4 v=93
949924 On ch=2 n=g#3 v=93
950222 On ch=2 n=g#3 v=0
950222 On ch=2 n=g#4 v=0
950222 On ch=2 n=g#4 v=95
950222 On ch=2 n=g#3 v=95
950520 On ch=2 n=g#3 v=0
950520 On ch=2 n=g#4 v=0
950520 On ch=2 n=d5 v=97
950520 On ch=2 n=d4 v=97
950814 On ch=2 n=d4 v=0
950814 On ch=2 n=d5 v=0
950814 On ch=2 n=d5 v=100
950814 On ch=2 n=d4 v=100
951114 On ch=2 n=d4 v=0
951114 On ch=2 n=d5 v=0
951114 On ch=2 n=c#5 v=100
951114 On ch=2 n=c#4 v=100
951404 On ch=2 n=c#4 v=0
951404 On ch=2 n=c#5 v=0
951404 On ch=2 n=c#5 v=102
951404 On ch=2 n=c#4 v=102
951700 On ch=2 n=c#4 v=0
951700 On ch=2 n=c#5 v=0
951700 On ch=2 n=f#5 v=106
951700 On ch=2 n=f#4 v=106
951994 On ch=2 n=f#4 v=0
951994 On ch=2 n=f#5 v=0
951994 On ch=2 n=f#5 v=110
951994 On ch=2 n=f#4 v=110
952286 On ch=2 n=f#4 v=0
952286 On ch=2 n=f#5 v=0
952286 On ch=2 n=f5 v=114
952286 On ch=2 n=f4 v=114
952580 On ch=2 n=f4 v=0
952580 On ch=2 n=f5 v=0
952580 On ch=2 n=f5 v=115
952580 On ch=2 n=f4 v=115
952876 On ch=2 n=f4 v=0
952876 On ch=2 n=f5 v=0
953024 On ch=2 n=c#6 v=125
953024 On ch=2 n=c#5 v=125
953154 On ch=2 n=c#5 v=0
953154 On ch=2 n=c#6 v=0
953154 On ch=2 n=c#6 v=125
953154 On ch=2 n=c#5 v=125
954542 On ch=2 n=c#5 v=0
954542 On ch=2 n=c#6 v=0
980882 On ch=2 n=c#5 v=103
980882 On ch=2 n=c#4 v=103
981210 On ch=2 n=c#4 v=0
981210 On ch=2 n=c#5 v=0
981210 On ch=2 n=c5 v=102
981210 On ch=2 n=c4 v=102
981516 On ch=2 n=c4 v=0
981516 On ch=2 n=c5 v=0
981516 On ch=2 n=b4 v=101
981516 On ch=2 n=b3 v=101
981826 On ch=2 n=b3 v=0
981826 On ch=2 n=b4 v=0
981826 On ch=2 n=a4 v=99
981826 On ch=2 n=a3 v=99
982126 On ch=2 n=a3 v=0
982126 On ch=2 n=a4 v=0
982126 On ch=2 n=g#4 v=99
982126 On ch=2 n=g#3 v=99
982438 On ch=2 n=g#3 v=0
982438 On ch=2 n=g#4 v=0
982438 On ch=2 n=f#4 v=96
982438 On ch=2 n=f#3 v=96
982752 On ch=2 n=f#3 v=0
982752 On ch=2 n=f#4 v=0
982752 On ch=2 n=f4 v=96
982752 On ch=2 n=f3 v=96
983050 On ch=2 n=f3 v=0
983050 On ch=2 n=f4 v=0
983050 On ch=2 n=d4 v=94
983050 On ch=2 n=d3 v=94
983346 On ch=2 n=d3 v=0
983346 On ch=2 n=d4 v=0
983346 On ch=2 n=c4 v=96
983346 On ch=2 n=c3 v=96
983646 On ch=2 n=c3 v=0
983646 On ch=2 n=c4 v=0
983646 On ch=2 n=c#4 v=99
983646 On ch=2 n=c#3 v=99
983968 On ch=2 n=c#3 v=0
983968 On ch=2 n=c#4 v=0
983968 On ch=2 n=g#3 v=96
983968 On ch=2 n=g#2 v=96
984284 On ch=2 n=g#2 v=0
984284 On ch=2 n=g#3 v=0
984284 On ch=2 n=a3 v=95
984284 On ch=2 n=a2 v=95
984588 On ch=2 n=a2 v=0
984588 On ch=2 n=a3 v=0
984588 On ch=2 n=f#3 v=94
984588 On ch=2 n=f#2 v=94
984594 Par ch=2 c=64 v=127
986490 Par ch=2 c=64 v=0
986494 On ch=2 n=f#2 v=0
986494 On ch=2 n=f#3 v=0
986494 On ch=2 n=e3 v=91
986494 On ch=2 n=e2 v=91
986814 On ch=2 n=e2 v=0
986814 On ch=2 n=e3 v=0
986814 On ch=2 n=d3 v=93
986814 On ch=2 n=d2 v=93
987138 On ch=2 n=d2 v=0
987138 On ch=2 n=d3 v=0
987138 On ch=2 n=c#3 v=88
987138 On ch=2 n=c#2 v=88
987750 On ch=2 n=c#2 v=0
987750 On ch=2 n=c#3 v=0
987750 On ch=2 n=d#3 v=89
987750 On ch=2 n=d#2 v=89
988066 On ch=2 n=d#2 v=0
988066 On ch=2 n=d#3 v=0
988066 On ch=2 n=f3 v=88
988066 On ch=2 n=f2 v=88
988372 On ch=2 n=f2 v=0
988372 On ch=2 n=f3 v=0
988372 On ch=2 n=f#3 v=85
988372 On ch=2 n=f#2 v=85
988986 On ch=2 n=f#2 v=0
988986 On ch=2 n=f#3 v=0
988986 On ch=2 n=f3 v=86
988986 On ch=2 n=f2 v=86
989296 On ch=2 n=f2 v=0
989296 On ch=2 n=f3 v=0
989296 On ch=2 n=f#3 v=84
989296 On ch=2 n=f#2 v=84
989606 On ch=2 n=f#2 v=0
989606 On ch=2 n=f#3 v=0
989606 On ch=2 n=g#2 v=83
989612 Par ch=2 c=64 v=127
989924 On ch=2 n=g#2 v=0
989924 On ch=2 n=a3 v=86
990082 On ch=2 n=a3 v=0
990082 On ch=2 n=g#3 v=86
990246 On ch=2 n=g#3 v=0
990246 On ch=2 n=a3 v=84
990406 On ch=2 n=a3 v=0
990406 On ch=2 n=g#3 v=84
990572 On ch=2 n=g#3 v=0
990572 On ch=2 n=a3 v=86
990734 On ch=2 n=a3 v=0
990734 On ch=2 n=g#3 v=86
990902 On ch=2 n=g#3 v=0
990902 On ch=2 n=a3 v=84
991066 On ch=2 n=a3 v=0
991066 On ch=2 n=g#3 v=84
991218 On ch=2 n=g#3 v=0
991218 On ch=2 n=a3 v=84
991380 On ch=2 n=a3 v=0
991380 On ch=2 n=g#3 v=84
991550 On ch=2 n=g#3 v=0
991550 On ch=2 n=a3 v=84
991712 On ch=2 n=a3 v=0
991712 On ch=2 n=g#3 v=84
991874 On ch=2 n=g#3 v=0
991874 On ch=2 n=g3 v=83
992038 On ch=2 n=g3 v=0
992038 On ch=2 n=g#3 v=83
992194 Par ch=2 c=64 v=0
992198 On ch=2 n=g#3 v=0
992198 On ch=2 n=a3 v=86
992198 On ch=2 n=a2 v=86
994148 On ch=2 n=a2 v=0
994148 On ch=2 n=a3 v=0
994148 On ch=2 n=g#3 v=86
994148 On ch=2 n=g#2 v=86
994444 On ch=2 n=g#2 v=0
994444 On ch=2 n=g#3 v=0
994444 On ch=2 n=f#3 v=84
994444 On ch=2 n=f#2 v=84
994772 On ch=2 n=f#2 v=0
994772 On ch=2 n=f#3 v=0
994772 On ch=2 n=e3 v=86
994772 On ch=2 n=e2 v=86
995426 On ch=2 n=e2 v=0
995426 On ch=2 n=e3 v=0
995426 On ch=2 n=f#3 v=86
995426 On ch=2 n=f#2 v=86
995748 On ch=2 n=f#2 v=0
995748 On ch=2 n=f#3 v=0
995748 On ch=2 n=g#3 v=86
995748 On ch=2 n=g#2 v=86
996082 On ch=2 n=g#2 v=0
996082 On ch=2 n=g#3 v=0
996082 On ch=2 n=a2 v=83
996088 Par ch=2 c=64 v=127
996414 On ch=2 n=a2 v=0
996414 On ch=2 n=b3 v=84
996582 On ch=2 n=b3 v=0
996582 On ch=2 n=a3 v=84
996740 On ch=2 n=a3 v=0
996740 On ch=2 n=b3 v=83
996904 On ch=2 n=b3 v=0
996904 On ch=2 n=a3 v=83
997052 On ch=2 n=a3 v=0
997052 On ch=2 n=g#3 v=88
997212 On ch=2 n=g#3 v=0
997212 On ch=2 n=a3 v=88
997366 Par ch=2 c=64 v=0
997370 On ch=2 n=a3 v=0
997370 On ch=2 n=c#4 v=94
997376 Par ch=2 c=64 v=127
997528 On ch=2 n=c#4 v=0
997528 On ch=2 n=b3 v=94
997688 On ch=2 n=b3 v=0
997688 On ch=2 n=c#4 v=99
997848 On ch=2 n=c#4 v=0
997848 On ch=2 n=b3 v=99
997996 On ch=2 n=b3 v=0
997996 On ch=2 n=c#4 v=96
998152 On ch=2 n=c#4 v=0
998152 On ch=2 n=b3 v=96
998320 On ch=2 n=b3 v=0
998320 On ch=2 n=a#3 v=98
998478 On ch=2 n=a#3 v=0
998478 On ch=2 n=b3 v=98
998644 On ch=2 n=b3 v=0
998644 On ch=2 n=c#4 v=99
998800 Par ch=2 c=64 v=0
998806 On ch=2 n=c#4 v=0
998806 On ch=2 n=c4 v=99
998812 Par ch=2 c=64 v=127
998946 On ch=2 n=c4 v=0
998946 On ch=2 n=c#4 v=101
999102 On ch=2 n=c#4 v=0
999102 On ch=2 n=c4 v=101
999258 On ch=2 n=c4 v=0
999258 On ch=2 n=c#4 v=101
999412 On ch=2 n=c#4 v=0
999412 On ch=2 n=c4 v=101
999584 On ch=2 n=c4 v=0
999584 On ch=2 n=a#3 v=103
999744 On ch=2 n=a#3 v=0
999744 On ch=2 n=c4 v=103
999954 Par ch=2 c=64 v=0
999958 On ch=2 n=c4 v=0
999958 On ch=2 n=c#4 v=117
999958 On ch=2 n=c#3 v=117
999964 Par ch=2 c=64 v=127
1000598 On ch=2 n=c#3 v=0
1000598 On ch=2 n=c#4 v=0
1000598 On ch=2 n=b4 v=106
1000598 On ch=2 n=g#4 v=106
1000598 On ch=2 n=c#4 v=106
1001206 Par ch=2 c=64 v=0
1001210 On ch=2 n=c#4 v=0
1001210 On ch=2 n=g#4 v=0
1001210 On ch=2 n=b4 v=0
1001210 On ch=2 n=f#3 v=113
1001210 On ch=2 n=f#2 v=113
1001216 Par ch=2 c=64 v=127
1001848 On ch=2 n=f#2 v=0
1001848 On ch=2 n=f#3 v=0
1001848 On ch=2 n=c#5 v=104
1001848 On ch=2 n=f#4 v=104
1001848 On ch=2 n=c#4 v=104
1002452 Par ch=2 c=64 v=0
1002456 On ch=2 n=c#4 v=0
1002456 On ch=2 n=f#4 v=0
1002456 On ch=2 n=c#5 v=0
1002456 On ch=2 n=b3 v=112
1002456 On ch=2 n=b2 v=112
1002462 Par ch=2 c=64 v=127
1003108 On ch=2 n=b2 v=0
1003108 On ch=2 n=b3 v=0
1003108 On ch=2 n=d5 v=108
1003108 On ch=2 n=g#4 v=108
1003108 On ch=2 n=f#4 v=108
1003732 Par ch=2 c=64 v=0
1003736 On ch=2 n=f#4 v=0
1003736 On ch=2 n=g#4 v=0
1003736 On ch=2 n=d5 v=0
1003736 On ch=2 n=c#4 v=101
1003736 On ch=2 n=c#3 v=101
1003742 Par ch=2 c=64 v=127
1004380 On ch=2 n=c#3 v=0
1004380 On ch=2 n=c#4 v=0
1004380 On ch=2 n=b4 v=102
1004380 On ch=2 n=g#4 v=102
1004380 On ch=2 n=c#4 v=102
1005024 Par ch=2 c=64 v=0
1005028 On ch=2 n=c#4 v=0
1005028 On ch=2 n=g#4 v=0
1005028 On ch=2 n=b4 v=0
1005028 On ch=2 n=f#3 v=106
1005028 On ch=2 n=f#2 v=106
1005034 Par ch=2 c=64 v=127
1005632 On ch=2 n=f#2 v=0
1005632 On ch=2 n=f#3 v=0
1005632 On ch=2 n=c#5 v=99
1005632 On ch=2 n=f#4 v=99
1005632 On ch=2 n=c#4 v=99
1006234 Par ch=2 c=64 v=0
1006238 On ch=2 n=c#4 v=0
1006238 On ch=2 n=f#4 v=0
1006238 On ch=2 n=c#5 v=0
1006238 On ch=2 n=b3 v=105
1006238 On ch=2 n=b2 v=105
1006244 Par ch=2 c=64 v=127
1006872 On ch=2 n=b2 v=0
1006872 On ch=2 n=b3 v=0
1006872 On ch=2 n=d5 v=105
1006872 On ch=2 n=g#4 v=105
1006872 On ch=2 n=f#4 v=105
1007488 Par ch=2 c=64 v=0
1007492 On ch=2 n=f#4 v=0
1007492 On ch=2 n=g#4 v=0
1007492 On ch=2 n=d5 v=0
1007492 On ch=2 n=a4 v=104
1007492 On ch=2 n=d4 v=104
1007492 On ch=2 n=a3 v=104
1008126 On ch=2 n=a3 v=0
1008126 On ch=2 n=d4 v=0
1008126 On ch=2 n=a4 v=0
1008126 On ch=2 n=g#4 v=104
1008126 On ch=2 n=g#3 v=104
1008434 On ch=2 n=g#3 v=0
1008434 On ch=2 n=g#4 v=0
1008434 On ch=2 n=f#4 v=105
1008434 On ch=2 n=f#3 v=105
1008720 On ch=2 n=f#3 v=0
1008720 On ch=2 n=f#4 v=0
1008720 On ch=2 n=f#5 v=125
1008720 On ch=2 n=f#4 v=125
1008724 Par ch=2 c=64 v=127
1009416 On ch=2 n=f#4 v=0
1009416 On ch=2 n=f#5 v=0
1009416 On ch=2 n=b3 v=110
1009416 On ch=2 n=b2 v=110
1010040 Par ch=2 c=64 v=0
1010044 On ch=2 n=b2 v=0
1010044 On ch=2 n=b3 v=0
1010044 On ch=2 n=d4 v=123
1010044 On ch=2 n=g#3 v=123
1010708 On ch=2 n=g#3 v=0
1010708 On ch=2 n=d4 v=0
1010708 On ch=2 n=f#4 v=111
1010708 On ch=2 n=f#3 v=111
1011028 On ch=2 n=f#3 v=0
1011028 On ch=2 n=f#4 v=0
1011028 On ch=2 n=g#4 v=115
1011028 On ch=2 n=g#3 v=115
1011348 On ch=2 n=g#3 v=0
1011348 On ch=2 n=g#4 v=0
1011348 On ch=2 n=b4 v=116
1011348 On ch=2 n=d4 v=116
1011348 On ch=2 n=b3 v=116
1011768 On ch=2 n=b3 v=0
1011768 On ch=2 n=d4 v=0
1011768 On ch=2 n=b4 v=0
1011768 On ch=2 n=a4 v=119
1011768 On ch=2 n=a3 v=119
1011898 On ch=2 n=a3 v=0
1011898 On ch=2 n=a4 v=0
1011898 On ch=2 n=a4 v=119
1011898 On ch=2 n=d4 v=119
1011898 On ch=2 n=a3 v=119
1012080 On ch=2 n=a3 v=0
1012080 On ch=2 n=d4 v=0
1012080 On ch=2 n=a4 v=0
1012080 On ch=2 n=g#4 v=119
1012080 On ch=2 n=g#3 v=119
1012298 On ch=2 n=g#3 v=0
1012298 On ch=2 n=g#4 v=0
1012298 On ch=2 n=f#4 v=116
1012298 On ch=2 n=f#3 v=116
1012510 On ch=2 n=f#3 v=0
1012510 On ch=2 n=f#4 v=0
1012510 On ch=2 n=a5 v=121
1012510 On ch=2 n=a4 v=121
1012516 Par ch=2 c=64 v=127
1013186 On ch=2 n=a4 v=0
1013186 On ch=2 n=a5 v=0
1013186 On ch=2 n=d3 v=105
1013186 On ch=2 n=d2 v=105
1014650 On ch=2 n=d2 v=0
1014650 On ch=2 n=d3 v=0
1014650 On ch=2 n=d4 v=97
1014650 On ch=2 n=d3 v=97
1015980 On ch=2 n=d3 v=0
1015980 On ch=2 n=d4 v=0
1015980 On ch=2 n=d4 v=95
1015980 On ch=2 n=d3 v=95
1017332 Par ch=2 c=64 v=0
1017336 On ch=2 n=d3 v=0
1017336 On ch=2 n=d4 v=0
1017336 On ch=2 n=g3 v=107
1017336 On ch=2 n=g2 v=107
1017986 On ch=2 n=g2 v=0
1017986 On ch=2 n=g3 v=0
1017986 On ch=2 n=g3 v=105
1017986 On ch=2 n=g2 v=105
1018634 On ch=2 n=g2 v=0
1018634 On ch=2 n=g3 v=0
1018634 On ch=2 n=c#4 v=105
1018634 On ch=2 n=c#3 v=105
1019260 On ch=2 n=c#3 v=0
1019260 On ch=2 n=c#4 v=0
1019260 On ch=2 n=c#4 v=101
1019260 On ch=2 n=c#3 v=101
1019874 On ch=2 n=c#3 v=0
1019874 On ch=2 n=c#4 v=0
1019874 On ch=2 n=f#3 v=100
1019874 On ch=2 n=f#2 v=100
1020552 On ch=2 n=f#2 v=0
1020552 On ch=2 n=f#3 v=0
1020552 On ch=2 n=c#3 v=126
1021234 On ch=2 n=c#3 v=0
1021234 On ch=2 n=g#2 v=112
1021574 On ch=2 n=g#2 v=0
1021574 On ch=2 n=a2 v=105
1021886 On ch=2 n=a2 v=0
1021886 On ch=2 n=f#2 v=99
1022510 On ch=2 n=f#2 v=0
1022510 On ch=2 n=f3 v=97
1022510 On ch=2 n=f2 v=97
1023220 On ch=2 n=f2 v=0
1023220 On ch=2 n=f3 v=0
1023220 On ch=2 n=f3 v=125
1023220 On ch=2 n=f2 v=125
1023226 Par ch=2 c=64 v=127
1023936 On ch=2 n=f2 v=0
1023936 On ch=2 n=f3 v=0
1025980 Par ch=2 c=64 v=0
1053262 On ch=2 n=f#3 v=116
1053262 On ch=2 n=f#2 v=116
1053998 On ch=2 n=f#2 v=0
1053998 On ch=2 n=f#3 v=0
1053998 On ch=2 n=f3 v=105
1053998 On ch=2 n=f3 v=105
1054144 On ch=2 n=f3 v=0
1054144 On ch=2 n=f3 v=0
1054144 On ch=2 n=f#3 v=105
1054144 On ch=2 n=f#3 v=105
1054290 On ch=2 n=f#3 v=0
1054290 On ch=2 n=f#3 v=0
1054290 On ch=2 n=g#3 v=105
1054290 On ch=2 n=g#3 v=105
1054400 On ch=2 n=g#3 v=0
1054400 On ch=2 n=g#3 v=0
1054400 On ch=2 n=a3 v=96
1054400 On ch=2 n=a3 v=96
1054536 On ch=2 n=a3 v=0
1054536 On ch=2 n=a3 v=0
1054536 On ch=2 n=b3 v=96
1054536 On ch=2 n=b3 v=96
1054606 On ch=2 n=b3 v=0
1054606 On ch=2 n=b3 v=0
1054606 On ch=2 n=c#4 v=97
1054606 On ch=2 n=c#4 v=97
1054728 On ch=2 n=c#4 v=0
1054728 On ch=2 n=c#4 v=0
1054728 On ch=2 n=d#4 v=97
1054728 On ch=2 n=d#4 v=97
1054850 On ch=2 n=d#4 v=0
1054850 On ch=2 n=d#4 v=0
1054850 On ch=2 n=f4 v=97
1054850 On ch=2 n=f4 v=97
1055056 On ch=2 n=f4 v=0
1055056 On ch=2 n=f4 v=0
1055056 On ch=2 n=f#4 v=107
1055056 On ch=2 n=f#4 v=107
1055188 On ch=2 n=f#4 v=0
1055188 On ch=2 n=f#4 v=0
1055188 On ch=2 n=g#4 v=107
1055188 On ch=2 n=g#4 v=107
1055296 On ch=2 n=g#4 v=0
1055296 On ch=2 n=g#4 v=0
1055296 On ch=2 n=a4 v=105
1055884 On ch=2 n=a4 v=0
1055884 On ch=2 n=b4 v=107
1055884 On ch=2 n=f4 v=107
1055888 Par ch=2 c=64 v=127
1056568 On ch=2 n=f4 v=0
1056568 On ch=2 n=b4 v=0
1056568 On ch=2 n=c#4 v=106
1056568 On ch=2 n=c#3 v=106
1057130 Par ch=2 c=64 v=0
1057134 On ch=2 n=c#3 v=0
1057134 On ch=2 n=c#4 v=0
1057134 On ch=2 n=f#3 v=119
1057134 On ch=2 n=f#2 v=119
1057836 On ch=2 n=f#2 v=0
1057836 On ch=2 n=f#3 v=0
1057836 On ch=2 n=f3 v=99
1057978 On ch=2 n=f3 v=0
1057978 On ch=2 n=f#3 v=99
1058114 On ch=2 n=f#3 v=0
1058114 On ch=2 n=g#3 v=97
1058184 On ch=2 n=g#3 v=0
1058184 On ch=2 n=a3 v=97
1058310 On ch=2 n=a3 v=0
1058310 On ch=2 n=b3 v=97
1058418 On ch=2 n=b3 v=0
1058418 On ch=2 n=c#4 v=97
1058534 On ch=2 n=c#4 v=0
1058534 On ch=2 n=d#4 v=97
1058650 On ch=2 n=d#4 v=0
1058650 On ch=2 n=f4 v=97
1058768 On ch=2 n=f4 v=0
1058768 On ch=2 n=f#4 v=104
1058886 On ch=2 n=f#4 v=0
1058886 On ch=2 n=g#4 v=104
1059028 On ch=2 n=g#4 v=0
1059028 On ch=2 n=a4 v=115
1059582 On ch=2 n=a4 v=0
1059582 On ch=2 n=d5 v=116
1059582 On ch=2 n=b4 v=116
1059582 On ch=2 n=f#4 v=116
1059582 On ch=2 n=d4 v=116
1059586 Par ch=2 c=64 v=127
1060258 On ch=2 n=d4 v=0
1060258 On ch=2 n=f#4 v=0
1060258 On ch=2 n=b4 v=0
1060258 On ch=2 n=d5 v=0
1060258 On ch=2 n=b3 v=116
1060258 On ch=2 n=b2 v=116
1060816 Par ch=2 c=64 v=0
1060820 On ch=2 n=b2 v=0
1060820 On ch=2 n=b3 v=0
1060820 On ch=2 n=f#3 v=123
1060820 On ch=2 n=f#2 v=123
1061558 On ch=2 n=f#2 v=0
1061558 On ch=2 n=f#3 v=0
1061558 On ch=2 n=f3 v=112
1061704 On ch=2 n=f3 v=0
1061704 On ch=2 n=f#3 v=112
1061848 On ch=2 n=f#3 v=0
1061848 On ch=2 n=g#3 v=105
1061920 On ch=2 n=g#3 v=0
1061920 On ch=2 n=a3 v=105
1062048 On ch=2 n=a3 v=0
1062048 On ch=2 n=b3 v=105
1062110 On ch=2 n=b3 v=0
1062110 On ch=2 n=c#4 v=105
1062220 On ch=2 n=c#4 v=0
1062220 On ch=2 n=d#4 v=105
1062332 On ch=2 n=d#4 v=0
1062332 On ch=2 n=f4 v=105
1062542 On ch=2 n=f4 v=0
1062542 On ch=2 n=f#4 v=116
1062668 On ch=2 n=f#4 v=0
1062668 On ch=2 n=g#4 v=116
1062798 On ch=2 n=g#4 v=0
1062798 On ch=2 n=a4 v=121
1063386 On ch=2 n=a4 v=0
1063386 On ch=2 n=d5 v=115
1063386 On ch=2 n=b4 v=115
1063386 On ch=2 n=g#4 v=115
1063386 On ch=2 n=d4 v=115
1063390 Par ch=2 c=64 v=127
1064052 On ch=2 n=d4 v=0
1064052 On ch=2 n=g#4 v=0
1064052 On ch=2 n=b4 v=0
1064052 On ch=2 n=d5 v=0
1064052 On ch=2 n=b3 v=115
1064052 On ch=2 n=b2 v=115
1064616 Par ch=2 c=64 v=0
1064620 On ch=2 n=b2 v=0
1064620 On ch=2 n=b3 v=0
1064620 On ch=2 n=f#3 v=123
1064620 On ch=2 n=f#2 v=123
1065300 On ch=2 n=f#2 v=0
1065300 On ch=2 n=f#3 v=0
1065300 On ch=2 n=f3 v=110
1065436 On ch=2 n=f3 v=0
1065436 On ch=2 n=f#3 v=110
1065572 On ch=2 n=f#3 v=0
1065572 On ch=2 n=g#3 v=110
1065668 On ch=2 n=g#3 v=0
1065668 On ch=2 n=a3 v=107
1065796 On ch=2 n=a3 v=0
1065796 On ch=2 n=b3 v=107
1065898 On ch=2 n=b3 v=0
1065898 On ch=2 n=c#4 v=105
1066018 On ch=2 n=c#4 v=0
1066018 On ch=2 n=d#4 v=105
1066138 On ch=2 n=d#4 v=0
1066138 On ch=2 n=f4 v=105
1066256 On ch=2 n=f4 v=0
1066256 On ch=2 n=f#4 v=110
1066374 On ch=2 n=f#4 v=0
1066374 On ch=2 n=g#4 v=110
1066520 On ch=2 n=g#4 v=0
1066520 On ch=2 n=a4 v=115
1067126 On ch=2 n=a4 v=0
1067126 On ch=2 n=f#5 v=121
1067126 On ch=2 n=d5 v=121
1067126 On ch=2 n=b4 v=121
1067126 On ch=2 n=f#4 v=121
1067132 Par ch=2 c=64 v=127
1067806 On ch=2 n=f#4 v=0
1067806 On ch=2 n=b4 v=0
1067806 On ch=2 n=d5 v=0
1067806 On ch=2 n=f#5 v=0
1067806 On ch=2 n=b3 v=121
1067806 On ch=2 n=b2 v=121
1068404 Par ch=2 c=64 v=0
1068408 On ch=2 n=b2 v=0
1068408 On ch=2 n=b3 v=0
1079884 On ch=2 n=c#5 v=110
1079884 On ch=2 n=c#4 v=110
1080190 On ch=2 n=c#4 v=0
1080190 On ch=2 n=c#5 v=0
1080190 On ch=2 n=c5 v=106
1080190 On ch=2 n=c4 v=106
1080504 On ch=2 n=c4 v=0
1080504 On ch=2 n=c5 v=0
1080504 On ch=2 n=b4 v=108
1080504 On ch=2 n=b3 v=108
1080808 On ch=2 n=b3 v=0
1080808 On ch=2 n=b4 v=0
1080808 On ch=2 n=a4 v=107
1080808 On ch=2 n=a3 v=107
1081130 On ch=2 n=a3 v=0
1081130 On ch=2 n=a4 v=0
1081130 On ch=2 n=g#4 v=105
1081130 On ch=2 n=g#3 v=105
1081444 On ch=2 n=g#3 v=0
1081444 On ch=2 n=g#4 v=0
1081444 On ch=2 n=f#4 v=104
1081444 On ch=2 n=f#3 v=104
1081754 On ch=2 n=f#3 v=0
1081754 On ch=2 n=f#4 v=0
1081754 On ch=2 n=f4 v=101
1081754 On ch=2 n=f3 v=101
1082062 On ch=2 n=f3 v=0
1082062 On ch=2 n=f4 v=0
1082062 On ch=2 n=d4 v=100
1082062 On ch=2 n=d3 v=100
1082372 On ch=2 n=d3 v=0
1082372 On ch=2 n=d4 v=0
1082372 On ch=2 n=c4 v=99
1082372 On ch=2 n=c3 v=99
1082672 On ch=2 n=c3 v=0
1082672 On ch=2 n=c4 v=0
1082672 On ch=2 n=c#4 v=104
1082672 On ch=2 n=c#3 v=104
1083010 On ch=2 n=c#3 v=0
1083010 On ch=2 n=c#4 v=0
1083010 On ch=2 n=g#3 v=97
1083010 On ch=2 n=g#2 v=97
1083312 On ch=2 n=g#2 v=0
1083312 On ch=2 n=g#3 v=0
1083312 On ch=2 n=a3 v=97
1083312 On ch=2 n=a2 v=97
1083646 On ch=2 n=a2 v=0
1083646 On ch=2 n=a3 v=0
1083646 On ch=2 n=f#3 v=100
1083646 On ch=2 n=f#2 v=100
1083652 Par ch=2 c=64 v=127
1084906 Par ch=2 c=64 v=0
1085516 On ch=2 n=f#2 v=0
1085516 On ch=2 n=f#3 v=0
1085516 On ch=2 n=e3 v=101
1085516 On ch=2 n=e2 v=101
1085836 On ch=2 n=e2 v=0
1085836 On ch=2 n=e3 v=0
1085836 On ch=2 n=d3 v=99
1085836 On ch=2 n=d2 v=99
1086160 On ch=2 n=d2 v=0
1086160 On ch=2 n=d3 v=0
1086160 On ch=2 n=c#5 v=100
1086160 On ch=2 n=b4 v=100
1086160 On ch=2 n=f4 v=100
1086160 On ch=2 n=c#3 v=100
1086160 On ch=2 n=c#2 v=100
1086818 On ch=2 n=c#2 v=0
1086818 On ch=2 n=c#3 v=0
1086818 On ch=2 n=f4 v=0
1086818 On ch=2 n=b4 v=0
1086818 On ch=2 n=c#5 v=0
1086818 On ch=2 n=c#5 v=97
1086818 On ch=2 n=b4 v=97
1086818 On ch=2 n=d#3 v=97
1086818 On ch=2 n=d#2 v=97
1087116 On ch=2 n=d#2 v=0
1087116 On ch=2 n=d#3 v=0
1087116 On ch=2 n=f3 v=96
1087116 On ch=2 n=f2 v=96
1087416 On ch=2 n=f2 v=0
1087416 On ch=2 n=f3 v=0
1087416 On ch=2 n=b4 v=0
1087416 On ch=2 n=c#5 v=0
1087416 On ch=2 n=f#3 v=99
1087416 On ch=2 n=f#2 v=99
1087416 On ch=2 n=a4 v=99
1088078 On ch=2 n=a4 v=0
1088078 On ch=2 n=f#2 v=0
1088078 On ch=2 n=f#3 v=0
1088078 On ch=2 n=a4 v=99
1088078 On ch=2 n=f3 v=99
1088078 On ch=2 n=f2 v=99
1088404 On ch=2 n=f2 v=0
1088404 On ch=2 n=f3 v=0
1088404 On ch=2 n=a4 v=0
1088404 On ch=2 n=f#3 v=95
1088404 On ch=2 n=f#2 v=95
1088404 On ch=2 n=a4 v=95
1088718 On ch=2 n=a4 v=0
1088718 On ch=2 n=f#2 v=0
1088718 On ch=2 n=f#3 v=0
1088718 On ch=2 n=b4 v=94
1088718 On ch=2 n=f4 v=94
1088718 On ch=2 n=g#2 v=94
1088724 Par ch=2 c=64 v=127
1089026 On ch=2 n=g#2 v=0
1089026 On ch=2 n=a3 v=96
1089182 On ch=2 n=a3 v=0
1089182 On ch=2 n=g#3 v=96
1089352 On ch=2 n=g#3 v=0
1089352 On ch=2 n=f4 v=0
1089352 On ch=2 n=b4 v=0
1089352 On ch=2 n=a3 v=95
1089352 On ch=2 n=b4 v=95
1089352 On ch=2 n=f4 v=95
1089510 On ch=2 n=a3 v=0
1089510 On ch=2 n=g#3 v=95
1089678 On ch=2 n=g#3 v=0
1089678 On ch=2 n=a3 v=91
1089842 On ch=2 n=a3 v=0
1089842 On ch=2 n=g#3 v=91
1090032 On ch=2 n=g#3 v=0
1090032 On ch=2 n=f4 v=0
1090032 On ch=2 n=b4 v=0
1090032 On ch=2 n=a3 v=91
1090032 On ch=2 n=b4 v=91
1090032 On ch=2 n=f4 v=91
1090202 On ch=2 n=a3 v=0
1090202 On ch=2 n=g#3 v=91
1090370 On ch=2 n=g#3 v=0
1090370 On ch=2 n=a3 v=89
1090544 On ch=2 n=a3 v=0
1090544 On ch=2 n=g#3 v=89
1090704 On ch=2 n=g#3 v=0
1090704 On ch=2 n=f4 v=0
1090704 On ch=2 n=b4 v=0
1090704 On ch=2 n=a3 v=88
1090704 On ch=2 n=b4 v=88
1090704 On ch=2 n=f4 v=88
1090872 On ch=2 n=a3 v=0
1090872 On ch=2 n=g#3 v=88
1091030 On ch=2 n=g#3 v=0
1091030 On ch=2 n=g3 v=88
1091196 On ch=2 n=g3 v=0
1091196 On ch=2 n=g#3 v=88
1091344 Par ch=2 c=64 v=0
1091348 On ch=2 n=g#3 v=0
1091348 On ch=2 n=f4 v=0
1091348 On ch=2 n=b4 v=0
1091348 On ch=2 n=a3 v=91
1091348 On ch=2 n=a2 v=91
1093330 On ch=2 n=a2 v=0
1093330 On ch=2 n=a3 v=0
1093330 On ch=2 n=g#3 v=88
1093330 On ch=2 n=g#2 v=88
1093662 On ch=2 n=g#2 v=0
1093662 On ch=2 n=g#3 v=0
1093662 On ch=2 n=f#3 v=86
1093662 On ch=2 n=f#2 v=86
1094000 On ch=2 n=f#2 v=0
1094000 On ch=2 n=f#3 v=0
1094000 On ch=2 n=e3 v=85
1094000 On ch=2 n=e2 v=85
1094656 On ch=2 n=e2 v=0
1094656 On ch=2 n=e3 v=0
1094656 On ch=2 n=f#3 v=86
1094656 On ch=2 n=f#2 v=86
1094998 On ch=2 n=f#2 v=0
1094998 On ch=2 n=f#3 v=0
1094998 On ch=2 n=g#3 v=88
1094998 On ch=2 n=g#2 v=88
1095322 Par ch=2 c=64 v=0
1095326 On ch=2 n=g#2 v=0
1095326 On ch=2 n=g#3 v=0
1095326 On ch=2 n=a2 v=88
1095332 Par ch=2 c=64 v=127
1095644 On ch=2 n=a2 v=0
1095644 On ch=2 n=b3 v=90
1095806 On ch=2 n=b3 v=0
1095806 On ch=2 n=a3 v=90
1095962 On ch=2 n=a3 v=0
1095962 On ch=2 n=b3 v=90
1096122 On ch=2 n=b3 v=0
1096122 On ch=2 n=a3 v=90
1096282 On ch=2 n=a3 v=0
1096282 On ch=2 n=g#3 v=91
1096442 On ch=2 n=g#3 v=0
1096442 On ch=2 n=a3 v=91
1096620 Par ch=2 c=64 v=0
1096624 On ch=2 n=a3 v=0
1096624 On ch=2 n=c#4 v=93
1096630 Par ch=2 c=64 v=127
1096790 On ch=2 n=c#4 v=0
1096790 On ch=2 n=b3 v=93
1096932 On ch=2 n=b3 v=0
1096932 On ch=2 n=c#4 v=97
1097094 On ch=2 n=c#4 v=0
1097094 On ch=2 n=b3 v=97
1097254 On ch=2 n=b3 v=0
1097254 On ch=2 n=c#4 v=99
1097412 On ch=2 n=c#4 v=0
1097412 On ch=2 n=b3 v=99
1097580 On ch=2 n=b3 v=0
1097580 On ch=2 n=a#3 v=104
1097742 On ch=2 n=a#3 v=0
1097742 On ch=2 n=b3 v=104
1097890 Par ch=2 c=64 v=0
1097894 On ch=2 n=b3 v=0
1097894 On ch=2 n=c#4 v=105
1097900 Par ch=2 c=64 v=127
1098054 On ch=2 n=c#4 v=0
1098054 On ch=2 n=c4 v=105
1098194 On ch=2 n=c4 v=0
1098194 On ch=2 n=c#4 v=105
1098348 On ch=2 n=c#4 v=0
1098348 On ch=2 n=c4 v=105
1098498 On ch=2 n=c4 v=0
1098498 On ch=2 n=c#4 v=104
1098650 On ch=2 n=c#4 v=0
1098650 On ch=2 n=c4 v=104
1098806 On ch=2 n=c4 v=0
1098806 On ch=2 n=a#3 v=107
1098960 On ch=2 n=a#3 v=0
1098960 On ch=2 n=c4 v=107
1099118 Par ch=2 c=64 v=0
1099122 On ch=2 n=c4 v=0
1099128 Par ch=2 c=64 v=127
1131046 On ch=2 n=d#3 v=127
1131210 On ch=2 n=d#3 v=0
1131210 On ch=2 n=e3 v=127
1131380 On ch=2 n=e3 v=0
1131380 On ch=2 n=f#3 v=127
1131386 Par ch=2 c=64 v=127
1131544 On ch=2 n=f#3 v=0
1131544 On ch=2 n=e3 v=127
1131706 On ch=2 n=e3 v=0
1131706 On ch=2 n=f#3 v=127
1131872 On ch=2 n=f#3 v=0
1131872 On ch=2 n=e3 v=127
1132022 On ch=2 n=e3 v=0
1132022 On ch=2 n=f#3 v=127
1132182 On ch=2 n=f#3 v=0
1132182 On ch=2 n=e3 v=127
1132348 On ch=2 n=e3 v=0
1132348 On ch=2 n=f#3 v=127
1132508 On ch=2 n=f#3 v=0
1132508 On ch=2 n=e3 v=127
1132668 On ch=2 n=e3 v=0
1132668 On ch=2 n=f#3 v=127
1132830 On ch=2 n=f#3 v=0
1132830 On ch=2 n=e3 v=127
1132978 On ch=2 n=e3 v=0
1132978 On ch=2 n=f#3 v=127
1133136 On ch=2 n=f#3 v=0
1133136 On ch=2 n=e3 v=127
1133296 On ch=2 n=e3 v=0
1133296 On ch=2 n=d#3 v=127
1133448 Par ch=2 c=64 v=0
1133454 On ch=2 n=d#3 v=0
1133454 On ch=2 n=e3 v=127
1133618 On ch=2 n=e3 v=0
1133618 On ch=2 n=f3 v=127
1133778 On ch=2 n=f3 v=0
1133778 On ch=2 n=f#3 v=127
1133940 On ch=2 n=f#3 v=0
1133940 On ch=2 n=g3 v=127
1134102 On ch=2 n=g3 v=0
1134102 On ch=2 n=g#3 v=127
1134254 On ch=2 n=g#3 v=0
1134254 On ch=2 n=a3 v=127
1134414 On ch=2 n=a3 v=0
1134414 On ch=2 n=a#3 v=127
1134576 On ch=2 n=a#3 v=0
1134576 On ch=2 n=b3 v=127
1134736 On ch=2 n=b3 v=0
1134736 On ch=2 n=c4 v=127
1134890 On ch=2 n=c4 v=0
1134890 On ch=2 n=c#4 v=127
1135050 On ch=2 n=c#4 v=0
1135050 On ch=2 n=d4 v=127
1135212 On ch=2 n=d4 v=0
1135212 On ch=2 n=d#4 v=127
1135372 On ch=2 n=d#4 v=0
1135372 On ch=2 n=e4 v=127
1135526 On ch=2 n=e4 v=0
1135526 On ch=2 n=f4 v=127
1135686 On ch=2 n=f4 v=0
1135686 On ch=2 n=f#4 v=127
1135842 On ch=2 n=f#4 v=0
1135842 On ch=2 n=g4 v=127
1136000 On ch=2 n=g4 v=0
1136000 On ch=2 n=g#4 v=127
1136164 On ch=2 n=g#4 v=0
1136164 On ch=2 n=a4 v=127
1136324 On ch=2 n=a4 v=0
1136324 On ch=2 n=a#4 v=127
1136484 On ch=2 n=a#4 v=0
1136484 On ch=2 n=b4 v=127
1136644 On ch=2 n=b4 v=0
1136644 On ch=2 n=c5 v=127
1136798 On ch=2 n=c5 v=0
1136798 On ch=2 n=c#5 v=127
1136956 On ch=2 n=c#5 v=0
1136956 On ch=2 n=d5 v=127
1137116 On ch=2 n=d5 v=0
1137116 On ch=2 n=d#5 v=127
1137274 On ch=2 n=d#5 v=0
1137274 On ch=2 n=e5 v=127
1137438 On ch=2 n=e5 v=0
1137438 On ch=2 n=f5 v=127
1137598 On ch=2 n=f5 v=0
1137598 On ch=2 n=f#5 v=127
1137756 On ch=2 n=f#5 v=0
1137756 On ch=2 n=e5 v=127
1137916 On ch=2 n=e5 v=0
1137916 On ch=2 n=f#5 v=127
1138090 On ch=2 n=f#5 v=0
1138090 On ch=2 n=e5 v=127
1138254 On ch=2 n=e5 v=0
1138254 On ch=2 n=f#5 v=127
1138406 On ch=2 n=f#5 v=0
1138406 On ch=2 n=d#5 v=127
1138568 On ch=2 n=d#5 v=0
1138568 On ch=2 n=e5 v=127
1138748 On ch=2 n=e5 v=0
1138748 On ch=2 n=f#5 v=127
1139398 On ch=2 n=f#5 v=0
1140076 On ch=2 n=b3 v=112
1140076 On ch=2 n=b2 v=112
1142938 On ch=2 n=b2 v=0
1142938 On ch=2 n=b3 v=0
1142938 On ch=2 n=a4 v=99
1142938 On ch=2 n=d5 v=99
1142938 On ch=2 n=d4 v=99
1142938 On ch=2 n=d3 v=99
1143734 On ch=2 n=d5 v=0
1143734 On ch=2 n=a4 v=0
1143734 On ch=2 n=d5 v=99
1143734 On ch=2 n=a4 v=99
1144414 On ch=2 n=a4 v=0
1144414 On ch=2 n=d5 v=0
1144414 On ch=2 n=d3 v=0
1144414 On ch=2 n=d4 v=0
1144414 On ch=2 n=d5 v=103
1144414 On ch=2 n=a4 v=103
1144414 On ch=2 n=f#3 v=103
1144414 On ch=2 n=f#2 v=103
1145048 On ch=2 n=a4 v=0
1145048 On ch=2 n=d5 v=0
1145048 On ch=2 n=d5 v=99
1145048 On ch=2 n=a4 v=99
1145732 On ch=2 n=a4 v=0
1145732 On ch=2 n=d5 v=0
1145732 On ch=2 n=d5 v=96
1145732 On ch=2 n=a4 v=96
1146448 On ch=2 n=a4 v=0
1146448 On ch=2 n=d5 v=0
1146448 On ch=2 n=f#2 v=0
1146448 On ch=2 n=f#3 v=0
1146448 On ch=2 n=b4 v=96
1146448 On ch=2 n=d5 v=96
1146448 On ch=2 n=g#3 v=96
1146448 On ch=2 n=g#2 v=96
1147118 On ch=2 n=g#2 v=0
1147118 On ch=2 n=g#3 v=0
1147118 On ch=2 n=d5 v=0
1147118 On ch=2 n=b4 v=0
1147118 On ch=2 n=c#5 v=97
1147118 On ch=2 n=a3 v=97
1147118 On ch=2 n=a2 v=97
1147856 On ch=2 n=c#5 v=0
1147856 On ch=2 n=c#5 v=91
1147856 On ch=2 n=e4 v=91
1148548 On ch=2 n=e4 v=0
1148548 On ch=2 n=c#5 v=0
1148548 On ch=2 n=c#5 v=93
1148548 On ch=2 n=f#4 v=93
1149246 On ch=2 n=f#4 v=0
1149246 On ch=2 n=c#5 v=0
1149246 On ch=2 n=c#5 v=93
1149246 On ch=2 n=f#4 v=93
1149932 On ch=2 n=f#4 v=0
1149932 On ch=2 n=c#5 v=0
1149932 On ch=2 n=a2 v=0
1149932 On ch=2 n=a3 v=0
1149932 On ch=2 n=b4 v=96
1149932 On ch=2 n=f#4 v=96
1149932 On ch=2 n=b3 v=96
1149932 On ch=2 n=b2 v=96
1150626 On ch=2 n=f#4 v=0
1150626 On ch=2 n=b4 v=0
1150626 On ch=2 n=b4 v=93
1150626 On ch=2 n=f#4 v=93
1151374 On ch=2 n=f#4 v=0
1151374 On ch=2 n=b4 v=0
1151374 On ch=2 n=b2 v=0
1151374 On ch=2 n=b3 v=0
1151374 On ch=2 n=a4 v=93
1151374 On ch=2 n=f#4 v=93
1151374 On ch=2 n=c#4 v=93
1151374 On ch=2 n=c#3 v=93
1152106 On ch=2 n=f#4 v=0
1152106 On ch=2 n=a4 v=0
1152106 On ch=2 n=a4 v=90
1152106 On ch=2 n=f#4 v=90
1152796 On ch=2 n=f#4 v=0
1152796 On ch=2 n=a4 v=0
1152796 On ch=2 n=g#4 v=90
1152796 On ch=2 n=f#4 v=90
1153532 On ch=2 n=f#4 v=0
1153532 On ch=2 n=g#4 v=0
1153532 On ch=2 n=g#4 v=85
1153532 On ch=2 n=f#4 v=85
1154246 On ch=2 n=f#4 v=0
1154246 On ch=2 n=g#4 v=0
1154246 On ch=2 n=c#3 v=0
1154246 On ch=2 n=c#4 v=0
1154246 On ch=2 n=g#4 v=86
1154246 On ch=2 n=f4 v=86
1154246 On ch=2 n=c#3 v=86
1154246 On ch=2 n=c#2 v=86
1154936 On ch=2 n=f4 v=0
1154936 On ch=2 n=g#4 v=0
1154936 On ch=2 n=g#4 v=84
1154936 On ch=2 n=f4 v=84
1155634 On ch=2 n=f4 v=0
1155634 On ch=2 n=g#4 v=0
1155634 On ch=2 n=c#2 v=0
1155634 On ch=2 n=c#3 v=0
1155634 On ch=2 n=a4 v=86
1155634 On ch=2 n=f#4 v=86
1155634 On ch=2 n=c#4 v=86
1155634 On ch=2 n=f#3 v=86
1155634 On ch=2 n=f#2 v=86
1155640 Par ch=2 c=64 v=127
1155692 On ch=2 n=f#2 v=0
1156364 On ch=2 n=c#4 v=0
1156364 On ch=2 n=f#4 v=0
1156364 On ch=2 n=a4 v=0
1156364 On ch=2 n=a4 v=84
1156364 On ch=2 n=c#4 v=84
1157074 On ch=2 n=c#4 v=0
1157074 On ch=2 n=a4 v=0
1157074 On ch=2 n=a4 v=83
1157074 On ch=2 n=f#4 v=83
1157074 On ch=2 n=c#4 v=83
1157792 Par ch=2 c=64 v=0
1157798 On ch=2 n=c#4 v=0
1157798 On ch=2 n=f#4 v=0
1157798 On ch=2 n=a4 v=0
1157798 On ch=2 n=f#3 v=0
1157798 On ch=2 n=a4 v=83
1157798 On ch=2 n=c#4 v=83
1157798 On ch=2 n=e3 v=83
1158146 On ch=2 n=e3 v=0
1158146 On ch=2 n=d3 v=81
1158514 On ch=2 n=d3 v=0
1158514 On ch=2 n=c#4 v=0
1158514 On ch=2 n=a4 v=0
1158514 On ch=2 n=b4 v=79
1158514 On ch=2 n=f4 v=79
1158514 On ch=2 n=c#4 v=79
1158514 On ch=2 n=c#3 v=79
1159226 On ch=2 n=c#3 v=0
1159226 On ch=2 n=c#4 v=0
1159226 On ch=2 n=f4 v=0
1159226 On ch=2 n=b4 v=0
1159226 On ch=2 n=b4 v=82
1159226 On ch=2 n=c#4 v=82
1159226 On ch=2 n=d#3 v=82
1159592 On ch=2 n=d#3 v=0
1159592 On ch=2 n=f3 v=82
1159958 On ch=2 n=f3 v=0
1159958 On ch=2 n=c#4 v=0
1159958 On ch=2 n=b4 v=0
1159958 On ch=2 n=a4 v=82
1159958 On ch=2 n=f#4 v=82
1159958 On ch=2 n=c#4 v=82
1159958 On ch=2 n=f#3 v=82
1160708 On ch=2 n=c#4 v=0
1160708 On ch=2 n=f#4 v=0
1160708 On ch=2 n=a4 v=0
1160708 On ch=2 n=a4 v=82
1160708 On ch=2 n=c#4 v=82
1161412 On ch=2 n=c#4 v=0
1161412 On ch=2 n=a4 v=0
1161412 On ch=2 n=a4 v=83
1161412 On ch=2 n=f#4 v=83
1161412 On ch=2 n=c#4 v=83
1162130 On ch=2 n=c#4 v=0
1162130 On ch=2 n=f#4 v=0
1162130 On ch=2 n=a4 v=0
1162130 On ch=2 n=f#3 v=0
1162130 On ch=2 n=a4 v=82
1162130 On ch=2 n=c#4 v=82
1162130 On ch=2 n=e3 v=82
1162488 On ch=2 n=e3 v=0
1162488 On ch=2 n=d3 v=79
1162830 On ch=2 n=d3 v=0
1162830 On ch=2 n=c#4 v=0
1162830 On ch=2 n=a4 v=0
1162830 On ch=2 n=c#4 v=80
1162830 On ch=2 n=f4 v=80
1162830 On ch=2 n=b4 v=80
1162830 On ch=2 n=c#3 v=80
1163554 On ch=2 n=c#3 v=0
1163554 On ch=2 n=b4 v=0
1163554 On ch=2 n=f4 v=0
1163554 On ch=2 n=c#4 v=0
1163554 On ch=2 n=b4 v=84
1163554 On ch=2 n=c#4 v=84
1163554 On ch=2 n=d#3 v=84
1163922 On ch=2 n=d#3 v=0
1163922 On ch=2 n=f3 v=82
1164280 On ch=2 n=f3 v=0
1164280 On ch=2 n=c#4 v=0
1164280 On ch=2 n=b4 v=0
1164280 On ch=2 n=a4 v=82
1164280 On ch=2 n=f#4 v=82
1164280 On ch=2 n=c#4 v=82
1164280 On ch=2 n=f#3 v=82
1165008 On ch=2 n=f#3 v=0
1165008 On ch=2 n=c#4 v=0
1165008 On ch=2 n=f#4 v=0
1165008 On ch=2 n=a4 v=0
1165008 On ch=2 n=a4 v=79
1165008 On ch=2 n=c#4 v=79
1165008 On ch=2 n=e3 v=79
1165378 On ch=2 n=e3 v=0
1165378 On ch=2 n=d3 v=82
1165742 On ch=2 n=d3 v=0
1165742 On ch=2 n=c#4 v=0
1165742 On ch=2 n=a4 v=0
1165742 On ch=2 n=c#4 v=82
1165742 On ch=2 n=f4 v=82
1165742 On ch=2 n=b4 v=82
1165742 On ch=2 n=c#3 v=82
1166482 On ch=2 n=c#3 v=0
1166482 On ch=2 n=b4 v=0
1166482 On ch=2 n=f4 v=0
1166482 On ch=2 n=c#4 v=0
1166482 On ch=2 n=b4 v=80
1166482 On ch=2 n=c#4 v=80
1166482 On ch=2 n=d#3 v=80
1166846 On ch=2 n=d#3 v=0
1166846 On ch=2 n=f3 v=80
1167216 On ch=2 n=f3 v=0
1167216 On ch=2 n=c#4 v=0
1167216 On ch=2 n=b4 v=0
1167216 On ch=2 n=a4 v=82
1167216 On ch=2 n=f#4 v=82
1167216 On ch=2 n=c#4 v=82
1167216 On ch=2 n=f#3 v=82
1167966 On ch=2 n=f#3 v=0
1167966 On ch=2 n=c#4 v=0
1167966 On ch=2 n=f#4 v=0
1167966 On ch=2 n=a4 v=0
1167966 On ch=2 n=a4 v=82
1167966 On ch=2 n=c#4 v=82
1167966 On ch=2 n=e3 v=82
1168332 On ch=2 n=e3 v=0
1168332 On ch=2 n=d3 v=82
1168680 On ch=2 n=d3 v=0
1168680 On ch=2 n=c#4 v=0
1168680 On ch=2 n=a4 v=0
1168680 On ch=2 n=b4 v=82
1168680 On ch=2 n=f4 v=82
1168680 On ch=2 n=c#4 v=82
1168680 On ch=2 n=c#3 v=82
1169438 On ch=2 n=c#3 v=0
1169438 On ch=2 n=c#4 v=0
1169438 On ch=2 n=f4 v=0
1169438 On ch=2 n=b4 v=0
1169438 On ch=2 n=b4 v=82
1169438 On ch=2 n=c#4 v=82
1169438 On ch=2 n=d#3 v=82
1169832 On ch=2 n=d#3 v=0
1169832 On ch=2 n=f3 v=82
1170216 On ch=2 n=f3 v=0
1170216 On ch=2 n=c#4 v=0
1170216 On ch=2 n=b4 v=0
1170216 On ch=2 n=a4 v=84
1170216 On ch=2 n=f#4 v=84
1170216 On ch=2 n=c#4 v=84
1170216 On ch=2 n=f#3 v=84
1170956 On ch=2 n=f#3 v=0
1170956 On ch=2 n=c#4 v=0
1170956 On ch=2 n=f#4 v=0
1170956 On ch=2 n=a4 v=0
1170956 On ch=2 n=a4 v=82
1170956 On ch=2 n=f#4 v=82
1170956 On ch=2 n=c#4 v=82
1171308 On ch=2 n=c#3 v=79
1171314 Par ch=2 c=64 v=127
1171668 On ch=2 n=c#3 v=0
1171668 On ch=2 n=c#4 v=0
1171668 On ch=2 n=f#4 v=0
1171668 On ch=2 n=a4 v=0
1171668 On ch=2 n=a4 v=82
1171668 On ch=2 n=f#4 v=82
1171668 On ch=2 n=c#4 v=82
1171668 On ch=2 n=f#3 v=82
1172418 On ch=2 n=f#3 v=0
1172418 On ch=2 n=c#4 v=0
1172418 On ch=2 n=f#4 v=0
1172418 On ch=2 n=a4 v=0
1172418 On ch=2 n=a4 v=79
1172418 On ch=2 n=f#4 v=79
1172418 On ch=2 n=c#4 v=79
1172800 On ch=2 n=c#3 v=79
1173178 On ch=2 n=c#3 v=0
1173178 On ch=2 n=c#4 v=0
1173178 On ch=2 n=f#4 v=0
1173178 On ch=2 n=a4 v=0
1173178 On ch=2 n=a4 v=79
1173178 On ch=2 n=f#4 v=79
1173178 On ch=2 n=c#4 v=79
1173178 On ch=2 n=f#3 v=79
1173930 On ch=2 n=f#3 v=0
1173930 On ch=2 n=c#4 v=0
1173930 On ch=2 n=f#4 v=0
1173930 On ch=2 n=a4 v=0
1173930 On ch=2 n=a4 v=79
1173930 On ch=2 n=f#4 v=79
1173930 On ch=2 n=c#4 v=79
1174696 Par ch=2 c=64 v=0
1174702 On ch=2 n=c#4 v=0
1174702 On ch=2 n=f#4 v=0
1174702 On ch=2 n=a4 v=0
1174702 On ch=2 n=a4 v=77
1174702 On ch=2 n=f#4 v=77
1174702 On ch=2 n=c#4 v=77
1175490 On ch=2 n=c#4 v=0
1175490 On ch=2 n=f#4 v=0
1175490 On ch=2 n=a4 v=0
1175490 On ch=2 n=a4 v=77
1175490 On ch=2 n=f#4 v=77
1175490 On ch=2 n=c#4 v=77
1175876 On ch=2 n=c#3 v=77
1175882 Par ch=2 c=64 v=127
1176264 On ch=2 n=c#3 v=0
1176264 On ch=2 n=c#4 v=0
1176264 On ch=2 n=f#4 v=0
1176264 On ch=2 n=a4 v=0
1176264 On ch=2 n=a4 v=74
1176264 On ch=2 n=f#4 v=74
1176264 On ch=2 n=c#4 v=74
1176264 On ch=2 n=f#3 v=74
1176264 On ch=2 n=f#2 v=74
1177072 On ch=2 n=f#2 v=0
1177072 On ch=2 n=f#3 v=0
1177072 On ch=2 n=c#4 v=0
1177072 On ch=2 n=f#4 v=0
1177072 On ch=2 n=a4 v=0
1177072 On ch=2 n=a4 v=70
1177072 On ch=2 n=f#4 v=70
1177072 On ch=2 n=c#4 v=70
1177480 On ch=2 n=c#3 v=69
1177904 On ch=2 n=c#3 v=0
1177904 On ch=2 n=c#4 v=0
1177904 On ch=2 n=f#4 v=0
1177904 On ch=2 n=a4 v=0
1177904 On ch=2 n=a4 v=64
1177904 On ch=2 n=f#4 v=64
1177904 On ch=2 n=c#4 v=64
1177904 On ch=2 n=f#3 v=64
1177904 On ch=2 n=f#2 v=64
1178740 On ch=2 n=f#2 v=0
1178740 On ch=2 n=f#3 v=0
1178740 On ch=2 n=c#4 v=0
1178740 On ch=2 n=f#4 v=0
1178740 On ch=2 n=a4 v=0
1178740 On ch=2 n=a4 v=59
1178740 On ch=2 n=f#4 v=59
1178740 On ch=2 n=c#4 v=59
1179566 On ch=2 n=c#4 v=0
1179566 On ch=2 n=f#4 v=0
1179566 On ch=2 n=a4 v=0
1179566 On ch=2 n=a4 v=55
1179566 On ch=2 n=f#4 v=55
1179566 On ch=2 n=c#4 v=55
1180388 On ch=2 n=c#4 v=0
1180388 On ch=2 n=f#4 v=0
1180388 On ch=2 n=a4 v=0
1180388 On ch=2 n=a4 v=59
1180388 On ch=2 n=f#4 v=59
1180388 On ch=2 n=c#4 v=59
1180816 On ch=2 n=c#3 v=57
1181236 On ch=2 n=c#3 v=0
1181236 On ch=2 n=c#4 v=0
1181236 On ch=2 n=f#4 v=0
1181236 On ch=2 n=a4 v=0
1181236 On ch=2 n=a4 v=55
1181236 On ch=2 n=f#4 v=55
1181236 On ch=2 n=c#4 v=55
1181236 On ch=2 n=f#3 v=55
1181236 On ch=2 n=f#2 v=55
1182136 On ch=2 n=f#2 v=0
1182136 On ch=2 n=f#3 v=0
1182136 On ch=2 n=c#4 v=0
1182136 On ch=2 n=f#4 v=0
1182136 On ch=2 n=a4 v=0
1182136 On ch=2 n=a4 v=54
1182136 On ch=2 n=f#4 v=54
1182136 On ch=2 n=c#4 v=54
1182578 On ch=2 n=c#3 v=54
1183040 On ch=2 n=c#3 v=0
1183040 On ch=2 n=c#4 v=0
1183040 On ch=2 n=f#4 v=0
1183040 On ch=2 n=a4 v=0
1183040 On ch=2 n=f#3 v=85
1183040 On ch=2 n=f#2 v=85
1196254 Par ch=2 c=64 v=0
1196270 On ch=2 n=f#2 v=0
1196270 On ch=2 n=f#3 v=0
1196270 Meta TrkEnd
TrkEnd
MTrk
0 SeqSpec 43 00 01 00
0 Meta TrkName "3Main gauche accompagnement"
0 PrCh ch=3 p=0
0 Par ch=3 c=10 v=82
0 Par ch=3 c=93 v=100
0 Par ch=3 c=91 v=100
0 Par ch=3 c=7 v=120
31304 On ch=3 n=f#3 v=89
31304 On ch=3 n=f#2 v=89
31310 Par ch=3 c=64 v=127
32056 On ch=3 n=f#2 v=0
32056 On ch=3 n=f#3 v=0
32056 On ch=3 n=a4 v=80
32056 On ch=3 n=f#4 v=80
32056 On ch=3 n=c#4 v=80
32342 On ch=3 n=c#4 v=0
32342 On ch=3 n=f#4 v=0
32342 On ch=3 n=a4 v=0
32342 On ch=3 n=a4 v=82
32342 On ch=3 n=f#4 v=82
32342 On ch=3 n=c#4 v=82
32620 On ch=3 n=c#4 v=0
32620 On ch=3 n=f#4 v=0
32620 On ch=3 n=a4 v=0
32620 On ch=3 n=a4 v=81
32620 On ch=3 n=f#4 v=81
32620 On ch=3 n=a3 v=81
33306 Par ch=3 c=64 v=0
33310 On ch=3 n=a3 v=0
33310 On ch=3 n=f#4 v=0
33310 On ch=3 n=a4 v=0
33310 On ch=3 n=g#4 v=90
33310 On ch=3 n=f#4 v=90
33310 On ch=3 n=b3 v=90
33902 On ch=3 n=b3 v=0
33902 On ch=3 n=f#4 v=0
33902 On ch=3 n=g#4 v=0
33902 On ch=3 n=b4 v=94
33902 On ch=3 n=f4 v=94
33902 On ch=3 n=c#4 v=94
33906 Par ch=3 c=64 v=127
34546 On ch=3 n=c#4 v=0
34546 On ch=3 n=f4 v=0
34546 On ch=3 n=b4 v=0
34546 On ch=3 n=c#4 v=95
34546 On ch=3 n=c#3 v=95
35170 Par ch=3 c=64 v=0
35174 On ch=3 n=c#3 v=0
35174 On ch=3 n=c#4 v=0
35174 On ch=3 n=f#3 v=107
35174 On ch=3 n=f#2 v=107
35180 Par ch=3 c=64 v=127
35728 On ch=3 n=f#2 v=0
35728 On ch=3 n=f#3 v=0
35728 On ch=3 n=a4 v=97
35728 On ch=3 n=f#4 v=97
35728 On ch=3 n=c#4 v=97
36032 On ch=3 n=c#4 v=0
36032 On ch=3 n=f#4 v=0
36032 On ch=3 n=a4 v=0
36032 On ch=3 n=a4 v=97
36032 On ch=3 n=f#4 v=97
36032 On ch=3 n=c#4 v=97
36354 On ch=3 n=c#4 v=0
36354 On ch=3 n=f#4 v=0
36354 On ch=3 n=a4 v=0
36354 On ch=3 n=a4 v=97
36354 On ch=3 n=f#4 v=97
36354 On ch=3 n=c#4 v=97
36970 Par ch=3 c=64 v=0
36974 On ch=3 n=c#4 v=0
36974 On ch=3 n=f#4 v=0
36974 On ch=3 n=a4 v=0
36974 On ch=3 n=b4 v=95
36974 On ch=3 n=f#4 v=95
36974 On ch=3 n=d4 v=95
37606 On ch=3 n=d4 v=0
37606 On ch=3 n=f#4 v=0
37606 On ch=3 n=b4 v=0
37606 On ch=3 n=b4 v=107
37606 On ch=3 n=g#4 v=107
37606 On ch=3 n=c#4 v=107
37612 Par ch=3 c=64 v=127
38192 On ch=3 n=c#4 v=0
38192 On ch=3 n=g#4 v=0
38192 On ch=3 n=b4 v=0
38192 On ch=3 n=c#4 v=97
38192 On ch=3 n=c#3 v=97
38820 Par ch=3 c=64 v=0
38824 On ch=3 n=c#3 v=0
38824 On ch=3 n=c#4 v=0
38824 On ch=3 n=f#3 v=110
38824 On ch=3 n=f#2 v=110
38830 Par ch=3 c=64 v=127
39488 On ch=3 n=f#2 v=0
39488 On ch=3 n=f#3 v=0
39488 On ch=3 n=a4 v=95
39488 On ch=3 n=f#4 v=95
39488 On ch=3 n=c#4 v=95
39790 On ch=3 n=c#4 v=0
39790 On ch=3 n=f#4 v=0
39790 On ch=3 n=a4 v=0
39790 On ch=3 n=a4 v=94
39790 On ch=3 n=f#4 v=94
39790 On ch=3 n=c#4 v=94
40068 On ch=3 n=c#4 v=0
40068 On ch=3 n=f#4 v=0
40068 On ch=3 n=a4 v=0
40068 On ch=3 n=a4 v=93
40068 On ch=3 n=f#4 v=93
40068 On ch=3 n=c#4 v=93
40694 Par ch=3 c=64 v=0
40698 On ch=3 n=c#4 v=0
40698 On ch=3 n=f#4 v=0
40698 On ch=3 n=a4 v=0
40698 On ch=3 n=b4 v=93
40698 On ch=3 n=g#4 v=93
40698 On ch=3 n=b3 v=93
41328 On ch=3 n=b3 v=0
41328 On ch=3 n=g#4 v=0
41328 On ch=3 n=b4 v=0
41328 On ch=3 n=b4 v=98
41328 On ch=3 n=g#4 v=98
41328 On ch=3 n=c#4 v=98
41334 Par ch=3 c=64 v=127
41940 On ch=3 n=c#4 v=0
41940 On ch=3 n=g#4 v=0
41940 On ch=3 n=b4 v=0
41940 On ch=3 n=c#4 v=97
41940 On ch=3 n=c#3 v=97
42544 Par ch=3 c=64 v=0
42548 On ch=3 n=c#3 v=0
42548 On ch=3 n=c#4 v=0
42548 On ch=3 n=f#3 v=100
42548 On ch=3 n=f#2 v=100
42554 Par ch=3 c=64 v=127
43136 On ch=3 n=f#2 v=0
43136 On ch=3 n=f#3 v=0
43136 On ch=3 n=c#5 v=95
43136 On ch=3 n=f#4 v=95
43136 On ch=3 n=c#4 v=95
43436 On ch=3 n=c#4 v=0
43436 On ch=3 n=f#4 v=0
43436 On ch=3 n=c#5 v=0
43436 On ch=3 n=c#5 v=97
43436 On ch=3 n=f#4 v=97
43436 On ch=3 n=c#4 v=97
43730 On ch=3 n=c#4 v=0
43730 On ch=3 n=f#4 v=0
43730 On ch=3 n=c#5 v=0
43730 On ch=3 n=c#5 v=94
43730 On ch=3 n=f#4 v=94
43730 On ch=3 n=c#4 v=94
44360 Par ch=3 c=64 v=0
44364 On ch=3 n=c#4 v=0
44364 On ch=3 n=f#4 v=0
44364 On ch=3 n=c#5 v=0
44364 On ch=3 n=d5 v=91
44364 On ch=3 n=f#4 v=91
44364 On ch=3 n=d4 v=91
44954 On ch=3 n=d4 v=0
44954 On ch=3 n=f#4 v=0
44954 On ch=3 n=d5 v=0
44954 On ch=3 n=b4 v=97
44954 On ch=3 n=b3 v=97
44958 Par ch=3 c=64 v=127
45588 On ch=3 n=b3 v=0
45588 On ch=3 n=b4 v=0
45588 On ch=3 n=f#4 v=95
45588 On ch=3 n=f#3 v=95
46226 Par ch=3 c=64 v=0
46230 On ch=3 n=f#3 v=0
46230 On ch=3 n=f#4 v=0
46230 On ch=3 n=f#3 v=97
46230 On ch=3 n=f#2 v=97
46236 Par ch=3 c=64 v=127
46844 On ch=3 n=f#2 v=0
46844 On ch=3 n=f#3 v=0
46844 On ch=3 n=a4 v=95
46844 On ch=3 n=f#4 v=95
46844 On ch=3 n=c#4 v=95
47440 Par ch=3 c=64 v=0
47444 On ch=3 n=c#4 v=0
47444 On ch=3 n=f#4 v=0
47444 On ch=3 n=a4 v=0
47444 On ch=3 n=c4 v=98
47444 On ch=3 n=c3 v=98
48062 On ch=3 n=a4 v=95
48062 On ch=3 n=f#4 v=95
48356 On ch=3 n=f#4 v=0
48356 On ch=3 n=a4 v=0
48356 On ch=3 n=a4 v=93
48356 On ch=3 n=f#4 v=93
48650 On ch=3 n=f#4 v=0
48650 On ch=3 n=a4 v=0
48650 On ch=3 n=a4 v=94
48650 On ch=3 n=f#4 v=94
49280 On ch=3 n=f#4 v=0
49280 On ch=3 n=a4 v=0
49280 On ch=3 n=c3 v=0
49280 On ch=3 n=c4 v=0
49280 On ch=3 n=c#4 v=95
49280 On ch=3 n=c#3 v=95
49592 On ch=3 n=c#3 v=0
49592 On ch=3 n=c#4 v=0
49592 On ch=3 n=d4 v=95
49592 On ch=3 n=d3 v=95
49884 On ch=3 n=d3 v=0
49884 On ch=3 n=d4 v=0
49884 On ch=3 n=c#4 v=93
49884 On ch=3 n=c#3 v=93
49890 Par ch=3 c=64 v=127
50458 On ch=3 n=c#3 v=0
50458 On ch=3 n=c#4 v=0
50458 On ch=3 n=a4 v=95
50458 On ch=3 n=f#4 v=95
50458 On ch=3 n=c#4 v=95
51034 Par ch=3 c=64 v=0
51038 On ch=3 n=c#4 v=0
51038 On ch=3 n=f#4 v=0
51038 On ch=3 n=a4 v=0
51038 On ch=3 n=f#3 v=101
51038 On ch=3 n=f#2 v=101
51042 Par ch=3 c=64 v=127
51718 On ch=3 n=f#2 v=0
51718 On ch=3 n=f#3 v=0
51718 On ch=3 n=d#5 v=92
51718 On ch=3 n=c#5 v=92
51718 On ch=3 n=f#4 v=92
51998 On ch=3 n=f#4 v=0
51998 On ch=3 n=c#5 v=0
51998 On ch=3 n=d#5 v=0
51998 On ch=3 n=d#5 v=92
51998 On ch=3 n=c#5 v=92
51998 On ch=3 n=f#4 v=92
52272 On ch=3 n=f#4 v=0
52272 On ch=3 n=c#5 v=0
52272 On ch=3 n=d#5 v=0
52272 On ch=3 n=d#5 v=91
52272 On ch=3 n=c#5 v=91
52272 On ch=3 n=f#4 v=91
52932 Par ch=3 c=64 v=0
52936 On ch=3 n=f#4 v=0
52936 On ch=3 n=c#5 v=0
52936 On ch=3 n=d#5 v=0
52936 On ch=3 n=g#3 v=98
52936 On ch=3 n=g#2 v=98
53226 On ch=3 n=g#2 v=0
53226 On ch=3 n=g#3 v=0
53226 On ch=3 n=a3 v=94
53226 On ch=3 n=a2 v=94
53504 On ch=3 n=a2 v=0
53504 On ch=3 n=a3 v=0
53504 On ch=3 n=g#3 v=94
53504 On ch=3 n=g#2 v=94
53508 Par ch=3 c=64 v=127
54132 On ch=3 n=g#2 v=0
54132 On ch=3 n=g#3 v=0
54132 On ch=3 n=e5 v=95
54132 On ch=3 n=c#5 v=95
54132 On ch=3 n=g#4 v=95
54132 On ch=3 n=e4 v=95
54414 On ch=3 n=e4 v=0
54414 On ch=3 n=g#4 v=0
54414 On ch=3 n=c#5 v=0
54414 On ch=3 n=e5 v=0
54414 On ch=3 n=e5 v=95
54414 On ch=3 n=c#5 v=95
54414 On ch=3 n=g#4 v=95
54414 On ch=3 n=e4 v=95
54716 On ch=3 n=e4 v=0
54716 On ch=3 n=g#4 v=0
54716 On ch=3 n=c#5 v=0
54716 On ch=3 n=e5 v=0
54716 On ch=3 n=e5 v=97
54716 On ch=3 n=c#5 v=97
54716 On ch=3 n=g#4 v=97
54716 On ch=3 n=e4 v=97
55302 On ch=3 n=e4 v=0
55302 On ch=3 n=g#4 v=0
55302 On ch=3 n=c#5 v=0
55302 On ch=3 n=e5 v=0
55302 On ch=3 n=e5 v=97
55302 On ch=3 n=c#5 v=97
55302 On ch=3 n=g#4 v=97
55302 On ch=3 n=e4 v=97
55886 Par ch=3 c=64 v=0
55890 On ch=3 n=e4 v=0
55890 On ch=3 n=g#4 v=0
55890 On ch=3 n=c#5 v=0
55890 On ch=3 n=e5 v=0
55890 On ch=3 n=g#4 v=103
55890 On ch=3 n=g#3 v=103
56488 On ch=3 n=g#3 v=0
56488 On ch=3 n=g#4 v=0
56488 On ch=3 n=c5 v=106
56488 On ch=3 n=g#4 v=106
56488 On ch=3 n=f#4 v=106
57110 On ch=3 n=f#4 v=0
57110 On ch=3 n=g#4 v=0
57110 On ch=3 n=c5 v=0
57110 On ch=3 n=c#4 v=108
57110 On ch=3 n=c#3 v=108
57116 Par ch=3 c=64 v=127
57692 On ch=3 n=c#3 v=0
57692 On ch=3 n=c#4 v=0
57692 On ch=3 n=b5 v=104
57692 On ch=3 n=f5 v=104
57692 On ch=3 n=c#5 v=104
57692 On ch=3 n=b4 v=104
57988 On ch=3 n=b4 v=0
57988 On ch=3 n=c#5 v=0
57988 On ch=3 n=f5 v=0
57988 On ch=3 n=b5 v=0
57988 On ch=3 n=b5 v=101
57988 On ch=3 n=f5 v=101
57988 On ch=3 n=c#5 v=101
57988 On ch=3 n=b4 v=101
58266 On ch=3 n=b4 v=0
58266 On ch=3 n=c#5 v=0
58266 On ch=3 n=f5 v=0
58266 On ch=3 n=b5 v=0
58266 On ch=3 n=b5 v=103
58266 On ch=3 n=f5 v=103
58266 On ch=3 n=c#5 v=103
58266 On ch=3 n=b4 v=103
58556 On ch=3 n=b4 v=0
58556 On ch=3 n=c#5 v=0
58556 On ch=3 n=f5 v=0
58556 On ch=3 n=b5 v=0
58556 On ch=3 n=b5 v=105
58556 On ch=3 n=f5 v=105
58556 On ch=3 n=c#5 v=105
58556 On ch=3 n=b4 v=105
58856 On ch=3 n=b4 v=0
58856 On ch=3 n=c#5 v=0
58856 On ch=3 n=f5 v=0
58856 On ch=3 n=b5 v=0
58856 On ch=3 n=b5 v=98
58856 On ch=3 n=f5 v=98
58856 On ch=3 n=c#5 v=98
58856 On ch=3 n=b4 v=98
59138 On ch=3 n=b4 v=0
59138 On ch=3 n=c#5 v=0
59138 On ch=3 n=f5 v=0
59138 On ch=3 n=b5 v=0
59138 On ch=3 n=b5 v=100
59138 On ch=3 n=f5 v=100
59138 On ch=3 n=c#5 v=100
59138 On ch=3 n=b4 v=100
59432 On ch=3 n=b4 v=0
59432 On ch=3 n=c#5 v=0
59432 On ch=3 n=f5 v=0
59432 On ch=3 n=b5 v=0
59432 On ch=3 n=b5 v=98
59432 On ch=3 n=f5 v=98
59432 On ch=3 n=c#5 v=98
59432 On ch=3 n=b4 v=98
59730 On ch=3 n=b4 v=0
59730 On ch=3 n=c#5 v=0
59730 On ch=3 n=f5 v=0
59730 On ch=3 n=b5 v=0
59730 On ch=3 n=b5 v=98
59730 On ch=3 n=f5 v=98
59730 On ch=3 n=c#5 v=98
59730 On ch=3 n=b4 v=98
60032 On ch=3 n=b4 v=0
60032 On ch=3 n=c#5 v=0
60032 On ch=3 n=f5 v=0
60032 On ch=3 n=b5 v=0
60032 On ch=3 n=b5 v=98
60032 On ch=3 n=f5 v=98
60032 On ch=3 n=c#5 v=98
60032 On ch=3 n=b4 v=98
60320 On ch=3 n=b4 v=0
60320 On ch=3 n=c#5 v=0
60320 On ch=3 n=f5 v=0
60320 On ch=3 n=b5 v=0
60320 On ch=3 n=b5 v=100
60320 On ch=3 n=f5 v=100
60320 On ch=3 n=c#5 v=100
60320 On ch=3 n=b4 v=100
60606 Par ch=3 c=64 v=0
60610 On ch=3 n=b4 v=0
60610 On ch=3 n=c#5 v=0
60610 On ch=3 n=f5 v=0
60610 On ch=3 n=b5 v=0
65404 On ch=3 n=b4 v=93
65404 On ch=3 n=f4 v=93
65408 Par ch=3 c=64 v=127
66070 On ch=3 n=f4 v=0
66070 On ch=3 n=b4 v=0
66070 On ch=3 n=b4 v=86
66070 On ch=3 n=f4 v=86
66686 On ch=3 n=f4 v=0
66686 On ch=3 n=b4 v=0
66686 On ch=3 n=b4 v=88
66686 On ch=3 n=f4 v=88
67348 On ch=3 n=f4 v=0
67348 On ch=3 n=b4 v=0
67348 On ch=3 n=b4 v=84
67348 On ch=3 n=f4 v=84
67998 Par ch=3 c=64 v=0
68002 On ch=3 n=f4 v=0
68002 On ch=3 n=b4 v=0
71784 Par ch=3 c=64 v=127
72998 Par ch=3 c=64 v=0
73008 Par ch=3 c=64 v=127
74226 Par ch=3 c=64 v=0
74236 Par ch=3 c=64 v=127
75464 Par ch=3 c=64 v=0
75468 On ch=3 n=c#4 v=102
75468 On ch=3 n=c#3 v=102
75474 Par ch=3 c=64 v=127
76076 On ch=3 n=c#3 v=0
76076 On ch=3 n=c#4 v=0
76076 On ch=3 n=b4 v=99
76076 On ch=3 n=g#4 v=99
76076 On ch=3 n=c#4 v=99
76688 Par ch=3 c=64 v=0
76692 On ch=3 n=c#4 v=0
76692 On ch=3 n=g#4 v=0
76692 On ch=3 n=b4 v=0
76692 On ch=3 n=f#3 v=100
76692 On ch=3 n=f#2 v=100
76698 Par ch=3 c=64 v=127
77316 On ch=3 n=f#2 v=0
77316 On ch=3 n=f#3 v=0
77316 On ch=3 n=c#5 v=103
77316 On ch=3 n=f#4 v=103
77316 On ch=3 n=c#4 v=103
77930 Par ch=3 c=64 v=0
77934 On ch=3 n=c#4 v=0
77934 On ch=3 n=f#4 v=0
77934 On ch=3 n=c#5 v=0
77934 On ch=3 n=b3 v=100
77934 On ch=3 n=b2 v=100
77940 Par ch=3 c=64 v=127
78570 On ch=3 n=b2 v=0
78570 On ch=3 n=b3 v=0
78570 On ch=3 n=d5 v=103
78570 On ch=3 n=g#4 v=103
78570 On ch=3 n=f#4 v=103
79162 Par ch=3 c=64 v=0
79166 On ch=3 n=f#4 v=0
79166 On ch=3 n=g#4 v=0
79166 On ch=3 n=d5 v=0
79166 On ch=3 n=c#4 v=106
79166 On ch=3 n=c#3 v=106
79170 Par ch=3 c=64 v=127
79786 On ch=3 n=c#3 v=0
79786 On ch=3 n=c#4 v=0
79786 On ch=3 n=b4 v=102
79786 On ch=3 n=g#4 v=102
79786 On ch=3 n=c#4 v=102
80398 Par ch=3 c=64 v=0
80402 On ch=3 n=c#4 v=0
80402 On ch=3 n=g#4 v=0
80402 On ch=3 n=b4 v=0
80402 On ch=3 n=f#3 v=103
80402 On ch=3 n=f#2 v=103
80408 Par ch=3 c=64 v=127
81028 On ch=3 n=f#2 v=0
81028 On ch=3 n=f#3 v=0
81028 On ch=3 n=c#5 v=98
81028 On ch=3 n=f#4 v=98
81028 On ch=3 n=c#4 v=98
81628 Par ch=3 c=64 v=0
81632 On ch=3 n=c#4 v=0
81632 On ch=3 n=f#4 v=0
81632 On ch=3 n=c#5 v=0
81632 On ch=3 n=b3 v=109
81632 On ch=3 n=b2 v=109
81638 Par ch=3 c=64 v=127
82276 On ch=3 n=b2 v=0
82276 On ch=3 n=b3 v=0
82276 On ch=3 n=d5 v=103
82276 On ch=3 n=g#4 v=103
82276 On ch=3 n=f#4 v=103
82878 Par ch=3 c=64 v=0
82882 On ch=3 n=f#4 v=0
82882 On ch=3 n=g#4 v=0
82882 On ch=3 n=d5 v=0
82882 On ch=3 n=a4 v=101
82882 On ch=3 n=a3 v=101
83510 On ch=3 n=a3 v=0
83510 On ch=3 n=a4 v=0
83510 On ch=3 n=g#4 v=103
83510 On ch=3 n=g#3 v=103
83792 On ch=3 n=g#3 v=0
83792 On ch=3 n=g#4 v=0
83792 On ch=3 n=f#4 v=98
83792 On ch=3 n=f#3 v=98
84118 On ch=3 n=f#3 v=0
84118 On ch=3 n=f#4 v=0
84118 On ch=3 n=f#5 v=120
84118 On ch=3 n=f#4 v=120
84124 Par ch=3 c=64 v=127
84748 On ch=3 n=f#4 v=0
84748 On ch=3 n=f#5 v=0
84748 On ch=3 n=b3 v=101
84748 On ch=3 n=b2 v=101
85366 On ch=3 n=b2 v=0
85366 On ch=3 n=b3 v=0
85366 On ch=3 n=g#4 v=106
85366 On ch=3 n=d4 v=106
85366 On ch=3 n=g#3 v=106
86006 Par ch=3 c=64 v=0
86010 On ch=3 n=g#3 v=0
86010 On ch=3 n=d4 v=0
86010 On ch=3 n=g#4 v=0
86010 On ch=3 n=f#4 v=109
86010 On ch=3 n=f#3 v=109
86330 On ch=3 n=f#3 v=0
86330 On ch=3 n=f#4 v=0
86330 On ch=3 n=g#4 v=102
86330 On ch=3 n=g#3 v=102
86644 On ch=3 n=g#3 v=0
86644 On ch=3 n=g#4 v=0
86644 On ch=3 n=b4 v=103
86644 On ch=3 n=d4 v=103
86644 On ch=3 n=b3 v=103
86922 On ch=3 n=b3 v=0
86922 On ch=3 n=d4 v=0
86922 On ch=3 n=b4 v=0
86922 On ch=3 n=a4 v=97
86922 On ch=3 n=a3 v=97
87214 On ch=3 n=a3 v=0
87214 On ch=3 n=a4 v=0
87214 On ch=3 n=a4 v=98
87214 On ch=3 n=d4 v=98
87214 On ch=3 n=a3 v=98
87404 On ch=3 n=a3 v=0
87404 On ch=3 n=d4 v=0
87404 On ch=3 n=a4 v=0
87404 On ch=3 n=g#4 v=98
87404 On ch=3 n=g#3 v=98
87632 On ch=3 n=g#3 v=0
87632 On ch=3 n=g#4 v=0
87632 On ch=3 n=f#4 v=99
87632 On ch=3 n=f#3 v=99
87868 On ch=3 n=f#3 v=0
87868 On ch=3 n=f#4 v=0
87868 On ch=3 n=a5 v=109
87868 On ch=3 n=a4 v=109
87874 Par ch=3 c=64 v=127
88526 On ch=3 n=a4 v=0
88526 On ch=3 n=a5 v=0
88526 On ch=3 n=d3 v=101
88526 On ch=3 n=d2 v=101
89922 On ch=3 n=d2 v=0
89922 On ch=3 n=d3 v=0
89922 On ch=3 n=d4 v=97
89922 On ch=3 n=d3 v=97
91274 On ch=3 n=d3 v=0
91274 On ch=3 n=d4 v=0
91274 On ch=3 n=d4 v=95
91274 On ch=3 n=d3 v=95
92618 Par ch=3 c=64 v=0
92622 On ch=3 n=d3 v=0
92622 On ch=3 n=d4 v=0
92622 On ch=3 n=g3 v=98
92622 On ch=3 n=g2 v=98
93308 On ch=3 n=g2 v=0
93308 On ch=3 n=g3 v=0
93308 On ch=3 n=g3 v=94
93308 On ch=3 n=g2 v=94
93980 On ch=3 n=g2 v=0
93980 On ch=3 n=g3 v=0
93980 On ch=3 n=c#4 v=92
93980 On ch=3 n=c#3 v=92
94666 On ch=3 n=c#3 v=0
94666 On ch=3 n=c#4 v=0
94666 On ch=3 n=c#4 v=89
94666 On ch=3 n=c#3 v=89
95334 On ch=3 n=c#3 v=0
95334 On ch=3 n=c#4 v=0
95334 On ch=3 n=f#3 v=92
95334 On ch=3 n=f#2 v=92
96016 On ch=3 n=f#2 v=0
96016 On ch=3 n=f#3 v=0
96016 On ch=3 n=c#3 v=101
96664 On ch=3 n=c#3 v=0
96664 On ch=3 n=g#2 v=97
97040 On ch=3 n=g#2 v=0
97040 On ch=3 n=a2 v=94
97382 On ch=3 n=a2 v=0
97382 On ch=3 n=f#2 v=95
98042 On ch=3 n=f#2 v=0
98042 On ch=3 n=f3 v=93
98042 On ch=3 n=f2 v=93
98692 On ch=3 n=f2 v=0
98692 On ch=3 n=f3 v=0
98692 On ch=3 n=f3 v=102
98692 On ch=3 n=f2 v=102
99376 On ch=3 n=f2 v=0
99376 On ch=3 n=f3 v=0
99376 On ch=3 n=a#4 v=93
99376 On ch=3 n=c#4 v=93
99714 On ch=3 n=c#4 v=0
99714 On ch=3 n=a#4 v=0
99714 On ch=3 n=a#4 v=91
99714 On ch=3 n=c#4 v=91
100014 On ch=3 n=c#4 v=0
100014 On ch=3 n=a#4 v=0
100014 On ch=3 n=a#4 v=93
100014 On ch=3 n=c#4 v=93
100716 On ch=3 n=c#4 v=0
100716 On ch=3 n=a#4 v=0
100716 On ch=3 n=a#4 v=95
100716 On ch=3 n=f4 v=95
100716 On ch=3 n=c#4 v=95
101436 On ch=3 n=c#4 v=0
101436 On ch=3 n=f4 v=0
101436 On ch=3 n=a#4 v=0
101436 On ch=3 n=c5 v=95
101436 On ch=3 n=f4 v=95
101436 On ch=3 n=c4 v=95
102056 On ch=3 n=c4 v=0
102056 On ch=3 n=f4 v=0
102056 On ch=3 n=c5 v=0
102056 On ch=3 n=f4 v=94
102056 On ch=3 n=d#4 v=94
102660 On ch=3 n=d#4 v=0
102660 On ch=3 n=f4 v=0
102660 On ch=3 n=f4 v=94
102660 On ch=3 n=f3 v=94
102666 Par ch=3 c=64 v=127
103242 On ch=3 n=f3 v=0
103242 On ch=3 n=f4 v=0
103242 On ch=3 n=f5 v=94
103242 On ch=3 n=a#4 v=94
103242 On ch=3 n=f4 v=94
103556 On ch=3 n=f4 v=0
103556 On ch=3 n=a#4 v=0
103556 On ch=3 n=f5 v=0
103556 On ch=3 n=f5 v=93
103556 On ch=3 n=a#4 v=93
103556 On ch=3 n=f4 v=93
103858 On ch=3 n=f4 v=0
103858 On ch=3 n=a#4 v=0
103858 On ch=3 n=f5 v=0
103858 On ch=3 n=c#5 v=94
103858 On ch=3 n=a#4 v=94
103858 On ch=3 n=f4 v=94
104472 On ch=3 n=f4 v=0
104472 On ch=3 n=a#4 v=0
104472 On ch=3 n=c#5 v=0
104472 On ch=3 n=f5 v=95
104472 On ch=3 n=c#5 v=95
104472 On ch=3 n=a#4 v=95
104472 On ch=3 n=f4 v=95
105110 Par ch=3 c=64 v=0
105114 On ch=3 n=f4 v=0
105114 On ch=3 n=a#4 v=0
105114 On ch=3 n=c#5 v=0
105114 On ch=3 n=f5 v=0
105114 On ch=3 n=f5 v=95
105114 On ch=3 n=d#5 v=95
105114 On ch=3 n=c5 v=95
105114 On ch=3 n=f4 v=95
105700 On ch=3 n=f4 v=0
105700 On ch=3 n=c5 v=0
105700 On ch=3 n=d#5 v=0
105700 On ch=3 n=f5 v=0
105700 On ch=3 n=f5 v=94
105700 On ch=3 n=f4 v=94
106280 On ch=3 n=f4 v=0
106280 On ch=3 n=f5 v=0
106280 On ch=3 n=f4 v=95
106280 On ch=3 n=f3 v=95
106284 Par ch=3 c=64 v=127
106924 On ch=3 n=f3 v=0
106924 On ch=3 n=f4 v=0
106924 On ch=3 n=f5 v=95
106924 On ch=3 n=c#5 v=95
106924 On ch=3 n=a#4 v=95
106924 On ch=3 n=f4 v=95
107242 On ch=3 n=f4 v=0
107242 On ch=3 n=a#4 v=0
107242 On ch=3 n=c#5 v=0
107242 On ch=3 n=f5 v=0
107242 On ch=3 n=c#5 v=95
107242 On ch=3 n=a#4 v=95
107242 On ch=3 n=f4 v=95
107528 On ch=3 n=f4 v=0
107528 On ch=3 n=a#4 v=0
107528 On ch=3 n=c#5 v=0
107528 On ch=3 n=f5 v=100
107528 On ch=3 n=c#5 v=100
107528 On ch=3 n=a#4 v=100
107528 On ch=3 n=f4 v=100
108188 On ch=3 n=f4 v=0
108188 On ch=3 n=a#4 v=0
108188 On ch=3 n=c#5 v=0
108188 On ch=3 n=f5 v=0
108188 On ch=3 n=f5 v=95
108188 On ch=3 n=f4 v=95
108816 Par ch=3 c=64 v=0
108820 On ch=3 n=f4 v=0
108820 On ch=3 n=f5 v=0
108820 On ch=3 n=f5 v=101
108820 On ch=3 n=d#5 v=101
108820 On ch=3 n=a4 v=101
108820 On ch=3 n=f4 v=101
109458 On ch=3 n=f4 v=0
109458 On ch=3 n=a4 v=0
109458 On ch=3 n=d#5 v=0
109458 On ch=3 n=f5 v=0
109458 On ch=3 n=f5 v=95
109458 On ch=3 n=f4 v=95
110134 On ch=3 n=f4 v=0
110134 On ch=3 n=f5 v=0
110134 On ch=3 n=a#3 v=97
110134 On ch=3 n=c3 v=97
110140 Par ch=3 c=64 v=127
110140 Par ch=3 c=64 v=127
110796 On ch=3 n=c3 v=0
110796 On ch=3 n=a#3 v=0
110796 On ch=3 n=c#5 v=95
110796 On ch=3 n=a#4 v=95
111106 On ch=3 n=c#5 v=0
111106 On ch=3 n=c#5 v=93
111398 On ch=3 n=c#5 v=0
111398 On ch=3 n=a#4 v=0
111398 On ch=3 n=c#5 v=95
111398 On ch=3 n=a#4 v=95
112028 On ch=3 n=a#4 v=0
112028 On ch=3 n=c#5 v=0
112028 On ch=3 n=c#5 v=95
112028 On ch=3 n=a#4 v=95
112630 Par ch=3 c=64 v=0
112634 On ch=3 n=a#4 v=0
112634 On ch=3 n=c#5 v=0
112634 On ch=3 n=c#5 v=102
112634 On ch=3 n=a#4 v=102
112634 On ch=3 n=d#4 v=102
113268 On ch=3 n=d#4 v=0
113268 On ch=3 n=a#4 v=0
113268 On ch=3 n=c#5 v=0
113268 On ch=3 n=d#4 v=97
113268 On ch=3 n=d#3 v=97
113900 Par ch=3 c=64 v=0
113904 On ch=3 n=d#3 v=0
113904 On ch=3 n=d#4 v=0
113904 On ch=3 n=g#3 v=99
113904 On ch=3 n=g#2 v=99
113910 Par ch=3 c=64 v=127
114576 On ch=3 n=g#2 v=0
114576 On ch=3 n=g#3 v=0
114576 On ch=3 n=c5 v=97
114576 On ch=3 n=g#4 v=97
114874 On ch=3 n=g#4 v=0
114874 On ch=3 n=c5 v=0
114874 On ch=3 n=c5 v=94
114874 On ch=3 n=g#4 v=94
115174 On ch=3 n=g#4 v=0
115174 On ch=3 n=c5 v=0
115174 On ch=3 n=c5 v=95
115174 On ch=3 n=g#4 v=95
115810 On ch=3 n=g#4 v=0
115810 On ch=3 n=c5 v=0
115810 On ch=3 n=c5 v=97
115810 On ch=3 n=g#4 v=97
116446 Par ch=3 c=64 v=0
116450 On ch=3 n=g#4 v=0
116450 On ch=3 n=c5 v=0
116450 On ch=3 n=c#5 v=97
116450 On ch=3 n=a#4 v=97
116450 On ch=3 n=d#4 v=97
117052 On ch=3 n=d#4 v=0
117052 On ch=3 n=a#4 v=0
117052 On ch=3 n=c#5 v=0
117052 On ch=3 n=d#4 v=96
117052 On ch=3 n=d#3 v=96
117670 Par ch=3 c=64 v=0
117674 On ch=3 n=d#3 v=0
117674 On ch=3 n=d#4 v=0
117674 On ch=3 n=g#3 v=95
117674 On ch=3 n=g#2 v=95
117680 Par ch=3 c=64 v=127
118276 On ch=3 n=g#2 v=0
118276 On ch=3 n=g#3 v=0
118276 On ch=3 n=d#5 v=97
118276 On ch=3 n=g#4 v=97
118276 On ch=3 n=d#4 v=97
118590 On ch=3 n=d#4 v=0
118590 On ch=3 n=g#4 v=0
118590 On ch=3 n=d#5 v=0
118590 On ch=3 n=d#5 v=97
118590 On ch=3 n=g#4 v=97
118590 On ch=3 n=d#4 v=97
118918 On ch=3 n=d#4 v=0
118918 On ch=3 n=g#4 v=0
118918 On ch=3 n=d#5 v=0
118918 On ch=3 n=c5 v=95
118918 On ch=3 n=g#4 v=95
118918 On ch=3 n=d#4 v=95
119540 On ch=3 n=d#4 v=0
119540 On ch=3 n=g#4 v=0
119540 On ch=3 n=c5 v=0
119540 On ch=3 n=d#5 v=96
119540 On ch=3 n=c5 v=96
119540 On ch=3 n=g#4 v=96
119540 On ch=3 n=d#4 v=96
120152 On ch=3 n=d#4 v=0
120152 On ch=3 n=g#4 v=0
120152 On ch=3 n=c5 v=0
120152 On ch=3 n=d#5 v=0
120152 On ch=3 n=d#5 v=93
120152 On ch=3 n=c#5 v=93
120152 On ch=3 n=a#4 v=93
120152 On ch=3 n=d#4 v=93
120158 Par ch=3 c=64 v=127
120754 On ch=3 n=d#4 v=0
120754 On ch=3 n=a#4 v=0
120754 On ch=3 n=c#5 v=0
120754 On ch=3 n=d#5 v=0
120754 On ch=3 n=d#5 v=97
120754 On ch=3 n=d#4 v=97
121358 On ch=3 n=d#4 v=0
121358 On ch=3 n=d#5 v=0
121358 On ch=3 n=g#3 v=97
121358 On ch=3 n=g#2 v=97
121976 On ch=3 n=g#2 v=0
121976 On ch=3 n=g#3 v=0
121976 On ch=3 n=g#5 v=97
121976 On ch=3 n=c5 v=97
121976 On ch=3 n=d#4 v=97
122580 On ch=3 n=d#4 v=0
122580 On ch=3 n=c5 v=0
122580 On ch=3 n=g#5 v=0
122580 On ch=3 n=g#5 v=97
122580 On ch=3 n=c5 v=97
122580 On ch=3 n=d#4 v=97
123276 On ch=3 n=d#4 v=0
123276 On ch=3 n=c5 v=0
123276 On ch=3 n=g#5 v=0
123276 On ch=3 n=g#5 v=95
123276 On ch=3 n=c5 v=95
123276 On ch=3 n=d#4 v=95
123920 Par ch=3 c=64 v=0
123924 On ch=3 n=d#4 v=0
123924 On ch=3 n=c5 v=0
123924 On ch=3 n=g#5 v=0
123924 On ch=3 n=g5 v=97
123924 On ch=3 n=c#5 v=97
123924 On ch=3 n=d#4 v=97
124626 On ch=3 n=d#4 v=0
124626 On ch=3 n=c#5 v=0
124626 On ch=3 n=g5 v=0
124626 On ch=3 n=g5 v=97
124626 On ch=3 n=c#5 v=97
124626 On ch=3 n=d#4 v=97
125306 On ch=3 n=d#4 v=0
125306 On ch=3 n=c#5 v=0
125306 On ch=3 n=g5 v=0
125306 On ch=3 n=g#3 v=95
125306 On ch=3 n=g#2 v=95
125312 Par ch=3 c=64 v=127
125966 On ch=3 n=g#2 v=0
125966 On ch=3 n=g#3 v=0
125966 On ch=3 n=c5 v=95
125966 On ch=3 n=g#4 v=95
125966 On ch=3 n=d#4 v=95
126258 On ch=3 n=d#4 v=0
126258 On ch=3 n=g#4 v=0
126258 On ch=3 n=c5 v=0
126258 On ch=3 n=c5 v=95
126258 On ch=3 n=g#4 v=95
126258 On ch=3 n=d#4 v=95
126566 On ch=3 n=d#4 v=0
126566 On ch=3 n=g#4 v=0
126566 On ch=3 n=c5 v=0
126566 On ch=3 n=c5 v=93
126566 On ch=3 n=g#4 v=93
126566 On ch=3 n=d#4 v=93
127292 Par ch=3 c=64 v=0
127298 On ch=3 n=d#4 v=0
127298 On ch=3 n=g#4 v=0
127298 On ch=3 n=c5 v=0
127298 On ch=3 n=b4 v=97
127298 On ch=3 n=g#4 v=97
127298 On ch=3 n=d#4 v=97
127976 On ch=3 n=d#4 v=0
127976 On ch=3 n=g#4 v=0
127976 On ch=3 n=b4 v=0
127976 On ch=3 n=b4 v=94
127976 On ch=3 n=g#4 v=94
127976 On ch=3 n=c#4 v=94
127982 Par ch=3 c=64 v=127
128598 On ch=3 n=c#4 v=0
128598 On ch=3 n=g#4 v=0
128598 On ch=3 n=b4 v=0
128598 On ch=3 n=c#4 v=97
128598 On ch=3 n=c#3 v=97
129206 Par ch=3 c=64 v=0
129210 On ch=3 n=c#3 v=0
129210 On ch=3 n=c#4 v=0
129210 On ch=3 n=f#3 v=103
129210 On ch=3 n=f#2 v=103
129216 Par ch=3 c=64 v=127
129870 On ch=3 n=f#2 v=0
129870 On ch=3 n=f#3 v=0
129870 On ch=3 n=c#5 v=99
129870 On ch=3 n=a4 v=99
129870 On ch=3 n=f#4 v=99
129870 On ch=3 n=c#4 v=99
130160 On ch=3 n=c#4 v=0
130160 On ch=3 n=f#4 v=0
130160 On ch=3 n=a4 v=0
130160 On ch=3 n=c#5 v=0
130160 On ch=3 n=c#5 v=104
130160 On ch=3 n=a4 v=104
130160 On ch=3 n=f#4 v=104
130160 On ch=3 n=c#4 v=104
130438 Par ch=3 c=64 v=0
130442 On ch=3 n=c#4 v=0
130442 On ch=3 n=f#4 v=0
130442 On ch=3 n=a4 v=0
130442 On ch=3 n=c#5 v=0
130442 On ch=3 n=a4 v=106
130442 On ch=3 n=f#4 v=106
130442 On ch=3 n=a3 v=106
131078 On ch=3 n=a3 v=0
131078 On ch=3 n=f#4 v=0
131078 On ch=3 n=a4 v=0
131078 On ch=3 n=b4 v=106
131078 On ch=3 n=f#4 v=106
131078 On ch=3 n=b3 v=106
131686 On ch=3 n=b3 v=0
131686 On ch=3 n=f#4 v=0
131686 On ch=3 n=b4 v=0
131686 On ch=3 n=b4 v=106
131686 On ch=3 n=f4 v=106
131686 On ch=3 n=c#4 v=106
131692 Par ch=3 c=64 v=127
132398 On ch=3 n=c#4 v=0
132398 On ch=3 n=f4 v=0
132398 On ch=3 n=b4 v=0
132398 On ch=3 n=c#4 v=117
132398 On ch=3 n=c#3 v=117
132980 Par ch=3 c=64 v=0
132984 On ch=3 n=c#3 v=0
132984 On ch=3 n=c#4 v=0
132984 On ch=3 n=f#3 v=106
132984 On ch=3 n=f#2 v=106
132988 Par ch=3 c=64 v=127
133674 On ch=3 n=f#2 v=0
133674 On ch=3 n=f#3 v=0
133674 On ch=3 n=c#5 v=108
133674 On ch=3 n=a4 v=108
133674 On ch=3 n=f#4 v=108
133674 On ch=3 n=c#4 v=108
133980 On ch=3 n=c#4 v=0
133980 On ch=3 n=f#4 v=0
133980 On ch=3 n=a4 v=0
133980 On ch=3 n=c#5 v=0
133980 On ch=3 n=c#5 v=102
133980 On ch=3 n=a4 v=102
133980 On ch=3 n=f#4 v=102
133980 On ch=3 n=c#4 v=102
134290 Par ch=3 c=64 v=0
134294 On ch=3 n=c#4 v=0
134294 On ch=3 n=f#4 v=0
134294 On ch=3 n=a4 v=0
134294 On ch=3 n=c#5 v=0
134294 On ch=3 n=c#5 v=106
134294 On ch=3 n=a4 v=106
134294 On ch=3 n=f#4 v=106
134294 On ch=3 n=c#4 v=106
134930 On ch=3 n=c#4 v=0
134930 On ch=3 n=f#4 v=0
134930 On ch=3 n=a4 v=0
134930 On ch=3 n=c#5 v=0
134930 On ch=3 n=d5 v=108
134930 On ch=3 n=b4 v=108
134930 On ch=3 n=f#4 v=108
134930 On ch=3 n=d4 v=108
135530 On ch=3 n=d4 v=0
135530 On ch=3 n=f#4 v=0
135530 On ch=3 n=b4 v=0
135530 On ch=3 n=d5 v=0
135530 On ch=3 n=b4 v=103
135530 On ch=3 n=f#4 v=103
135530 On ch=3 n=d4 v=103
135530 On ch=3 n=b3 v=103
135536 Par ch=3 c=64 v=127
136162 On ch=3 n=b3 v=0
136162 On ch=3 n=d4 v=0
136162 On ch=3 n=f#4 v=0
136162 On ch=3 n=b4 v=0
136162 On ch=3 n=b3 v=107
136162 On ch=3 n=b2 v=107
136768 Par ch=3 c=64 v=0
136772 On ch=3 n=b2 v=0
136772 On ch=3 n=b3 v=0
136772 On ch=3 n=f#3 v=110
136772 On ch=3 n=f#2 v=110
136778 Par ch=3 c=64 v=127
137432 On ch=3 n=f#2 v=0
137432 On ch=3 n=f#3 v=0
137432 On ch=3 n=c#5 v=106
137432 On ch=3 n=a4 v=106
137432 On ch=3 n=f#4 v=106
137432 On ch=3 n=c#4 v=106
137734 On ch=3 n=c#4 v=0
137734 On ch=3 n=f#4 v=0
137734 On ch=3 n=a4 v=0
137734 On ch=3 n=c#5 v=0
137734 On ch=3 n=c#5 v=98
137734 On ch=3 n=a4 v=98
137734 On ch=3 n=f#4 v=98
137734 On ch=3 n=c#4 v=98
138030 Par ch=3 c=64 v=0
138034 On ch=3 n=c#4 v=0
138034 On ch=3 n=f#4 v=0
138034 On ch=3 n=a4 v=0
138034 On ch=3 n=c#5 v=0
138034 On ch=3 n=c#5 v=101
138034 On ch=3 n=a4 v=101
138034 On ch=3 n=f#4 v=101
138034 On ch=3 n=c#4 v=101
138678 On ch=3 n=c#4 v=0
138678 On ch=3 n=f#4 v=0
138678 On ch=3 n=a4 v=0
138678 On ch=3 n=c#5 v=0
138678 On ch=3 n=b4 v=109
138678 On ch=3 n=g#4 v=109
138678 On ch=3 n=f#4 v=109
138678 On ch=3 n=b3 v=109
139292 On ch=3 n=b3 v=0
139292 On ch=3 n=f#4 v=0
139292 On ch=3 n=g#4 v=0
139292 On ch=3 n=b4 v=0
139292 On ch=3 n=d5 v=104
139292 On ch=3 n=b4 v=104
139292 On ch=3 n=g#4 v=104
139292 On ch=3 n=d4 v=104
139298 Par ch=3 c=64 v=127
139936 On ch=3 n=d4 v=0
139936 On ch=3 n=g#4 v=0
139936 On ch=3 n=b4 v=0
139936 On ch=3 n=d5 v=0
139936 On ch=3 n=b3 v=104
139936 On ch=3 n=b2 v=104
140542 Par ch=3 c=64 v=0
140546 On ch=3 n=b2 v=0
140546 On ch=3 n=b3 v=0
140546 On ch=3 n=f#3 v=112
140546 On ch=3 n=f#2 v=112
140552 Par ch=3 c=64 v=127
141164 On ch=3 n=f#2 v=0
141164 On ch=3 n=f#3 v=0
141164 On ch=3 n=c#5 v=101
141164 On ch=3 n=a4 v=101
141164 On ch=3 n=f#4 v=101
141164 On ch=3 n=c#4 v=101
141482 On ch=3 n=c#4 v=0
141482 On ch=3 n=f#4 v=0
141482 On ch=3 n=a4 v=0
141482 On ch=3 n=c#5 v=0
141482 On ch=3 n=c#5 v=101
141482 On ch=3 n=a4 v=101
141482 On ch=3 n=f#4 v=101
141482 On ch=3 n=c#4 v=101
141780 Par ch=3 c=64 v=0
141784 On ch=3 n=c#4 v=0
141784 On ch=3 n=f#4 v=0
141784 On ch=3 n=a4 v=0
141784 On ch=3 n=c#5 v=0
141784 On ch=3 n=c#5 v=103
141784 On ch=3 n=a4 v=103
141784 On ch=3 n=f#4 v=103
141784 On ch=3 n=c#4 v=103
142424 On ch=3 n=c#4 v=0
142424 On ch=3 n=f#4 v=0
142424 On ch=3 n=a4 v=0
142424 On ch=3 n=c#5 v=0
142424 On ch=3 n=b4 v=107
142424 On ch=3 n=g#4 v=107
142424 On ch=3 n=f#4 v=107
142424 On ch=3 n=b3 v=107
143034 On ch=3 n=b3 v=0
143034 On ch=3 n=f#4 v=0
143034 On ch=3 n=g#4 v=0
143034 On ch=3 n=b4 v=0
143034 On ch=3 n=f#5 v=105
143034 On ch=3 n=d5 v=105
143034 On ch=3 n=b4 v=105
143034 On ch=3 n=f#4 v=105
143040 Par ch=3 c=64 v=127
143690 On ch=3 n=f#4 v=0
143690 On ch=3 n=b4 v=0
143690 On ch=3 n=d5 v=0
143690 On ch=3 n=f#5 v=0
143690 On ch=3 n=b3 v=108
143690 On ch=3 n=b2 v=108
144296 Par ch=3 c=64 v=0
144300 On ch=3 n=b2 v=0
144300 On ch=3 n=b3 v=0
144300 On ch=3 n=f#3 v=112
144300 On ch=3 n=f#2 v=112
144306 Par ch=3 c=64 v=127
144952 On ch=3 n=f#2 v=0
144952 On ch=3 n=f#3 v=0
144952 On ch=3 n=c#5 v=112
144952 On ch=3 n=a4 v=112
144952 On ch=3 n=f#4 v=112
144952 On ch=3 n=c#4 v=112
145568 Par ch=3 c=64 v=0
145572 On ch=3 n=c#4 v=0
145572 On ch=3 n=f#4 v=0
145572 On ch=3 n=a4 v=0
145572 On ch=3 n=c#5 v=0
145572 On ch=3 n=c4 v=109
145572 On ch=3 n=c3 v=109
145578 Par ch=3 c=64 v=127
146228 On ch=3 n=c3 v=0
146228 On ch=3 n=c4 v=0
146228 On ch=3 n=d5 v=107
146228 On ch=3 n=a4 v=107
146228 On ch=3 n=f#4 v=107
146528 On ch=3 n=f#4 v=0
146528 On ch=3 n=a4 v=0
146528 On ch=3 n=d5 v=0
146528 On ch=3 n=d5 v=103
146528 On ch=3 n=a4 v=103
146528 On ch=3 n=f#4 v=103
146834 On ch=3 n=f#4 v=0
146834 On ch=3 n=a4 v=0
146834 On ch=3 n=d5 v=0
146834 On ch=3 n=d5 v=107
146834 On ch=3 n=a4 v=107
146834 On ch=3 n=f#4 v=107
147504 Par ch=3 c=64 v=0
147508 On ch=3 n=f#4 v=0
147508 On ch=3 n=a4 v=0
147508 On ch=3 n=d5 v=0
147508 On ch=3 n=c#4 v=120
147508 On ch=3 n=c#3 v=120
147812 On ch=3 n=c#3 v=0
147812 On ch=3 n=c#4 v=0
147812 On ch=3 n=d4 v=118
147812 On ch=3 n=d3 v=118
148112 On ch=3 n=d3 v=0
148112 On ch=3 n=d4 v=0
148112 On ch=3 n=c#4 v=112
148112 On ch=3 n=c#3 v=112
148118 Par ch=3 c=64 v=127
148718 On ch=3 n=c#3 v=0
148718 On ch=3 n=c#4 v=0
148718 On ch=3 n=c#5 v=107
148718 On ch=3 n=a4 v=107
148718 On ch=3 n=f#4 v=107
148718 On ch=3 n=c#4 v=107
149328 Par ch=3 c=64 v=0
149332 On ch=3 n=c#4 v=0
149332 On ch=3 n=f#4 v=0
149332 On ch=3 n=a4 v=0
149332 On ch=3 n=c#5 v=0
149332 On ch=3 n=f#3 v=118
149332 On ch=3 n=f#2 v=118
149338 Par ch=3 c=64 v=127
150024 On ch=3 n=f#2 v=0
150024 On ch=3 n=f#3 v=0
150024 On ch=3 n=d#5 v=108
150024 On ch=3 n=c#5 v=108
150024 On ch=3 n=f#4 v=108
150352 On ch=3 n=f#4 v=0
150352 On ch=3 n=c#5 v=0
150352 On ch=3 n=d#5 v=0
150352 On ch=3 n=d#5 v=104
150352 On ch=3 n=c#5 v=104
150664 On ch=3 n=c#5 v=0
150664 On ch=3 n=d#5 v=0
150664 On ch=3 n=d#5 v=100
150664 On ch=3 n=c#5 v=100
150664 On ch=3 n=f#4 v=100
151318 Par ch=3 c=64 v=0
151322 On ch=3 n=f#4 v=0
151322 On ch=3 n=c#5 v=0
151322 On ch=3 n=d#5 v=0
151322 On ch=3 n=g#3 v=113
151322 On ch=3 n=g#2 v=113
151650 On ch=3 n=g#2 v=0
151650 On ch=3 n=g#3 v=0
151650 On ch=3 n=a3 v=120
151650 On ch=3 n=a2 v=120
151970 On ch=3 n=a2 v=0
151970 On ch=3 n=a3 v=0
151970 On ch=3 n=g#3 v=121
151970 On ch=3 n=g#2 v=121
151976 Par ch=3 c=64 v=127
152594 On ch=3 n=g#2 v=0
152594 On ch=3 n=e5 v=117
152594 On ch=3 n=c#5 v=117
152594 On ch=3 n=g#4 v=117
152594 On ch=3 n=e4 v=117
152916 On ch=3 n=e4 v=0
152916 On ch=3 n=g#4 v=0
152916 On ch=3 n=c#5 v=0
152916 On ch=3 n=e5 v=0
152916 On ch=3 n=e5 v=113
152916 On ch=3 n=c#5 v=113
152916 On ch=3 n=g#4 v=113
152916 On ch=3 n=e4 v=113
153222 On ch=3 n=e4 v=0
153222 On ch=3 n=g#4 v=0
153222 On ch=3 n=c#5 v=0
153222 On ch=3 n=e5 v=0
153222 On ch=3 n=g#3 v=0
153222 On ch=3 n=e5 v=110
153222 On ch=3 n=c#5 v=110
153222 On ch=3 n=g#4 v=110
153222 On ch=3 n=e4 v=110
153826 On ch=3 n=e4 v=0
153826 On ch=3 n=g#4 v=0
153826 On ch=3 n=c#5 v=0
153826 On ch=3 n=e5 v=0
153826 On ch=3 n=e5 v=112
153826 On ch=3 n=c#5 v=112
153826 On ch=3 n=g#4 v=112
153826 On ch=3 n=e4 v=112
154458 Par ch=3 c=64 v=0
154462 On ch=3 n=e4 v=0
154462 On ch=3 n=g#4 v=0
154462 On ch=3 n=c#5 v=0
154462 On ch=3 n=e5 v=0
154462 On ch=3 n=g#3 v=113
154462 On ch=3 n=g#2 v=113
154468 Par ch=3 c=64 v=127
155108 On ch=3 n=g#2 v=0
155108 On ch=3 n=g#3 v=0
155108 On ch=3 n=c5 v=109
155108 On ch=3 n=g#4 v=109
155108 On ch=3 n=f#4 v=109
155108 On ch=3 n=d#4 v=109
155732 Par ch=3 c=64 v=0
155736 On ch=3 n=d#4 v=0
155736 On ch=3 n=f#4 v=0
155736 On ch=3 n=g#4 v=0
155736 On ch=3 n=c5 v=0
162208 On ch=3 n=c#5 v=97
162208 On ch=3 n=b4 v=97
162208 On ch=3 n=f4 v=97
162850 On ch=3 n=f4 v=0
162850 On ch=3 n=b4 v=0
162850 On ch=3 n=c#5 v=0
162850 On ch=3 n=c#5 v=92
162850 On ch=3 n=b4 v=92
163466 On ch=3 n=b4 v=0
163466 On ch=3 n=c#5 v=0
163466 On ch=3 n=a4 v=92
164108 On ch=3 n=a4 v=0
164108 On ch=3 n=a4 v=92
164454 On ch=3 n=a4 v=0
164454 On ch=3 n=a4 v=88
164736 On ch=3 n=a4 v=0
164736 On ch=3 n=b4 v=91
164736 On ch=3 n=f4 v=91
165422 On ch=3 n=f4 v=0
165422 On ch=3 n=b4 v=0
165422 On ch=3 n=b4 v=93
165422 On ch=3 n=f4 v=93
166106 On ch=3 n=f4 v=0
166106 On ch=3 n=b4 v=0
166106 On ch=3 n=b4 v=93
166106 On ch=3 n=f4 v=93
166756 On ch=3 n=f4 v=0
166756 On ch=3 n=b4 v=0
166756 On ch=3 n=b4 v=94
166756 On ch=3 n=f4 v=94
167402 On ch=3 n=f4 v=0
167402 On ch=3 n=b4 v=0
203070 On ch=3 n=f4 v=103
203070 On ch=3 n=f3 v=103
203076 Par ch=3 c=64 v=127
203684 On ch=3 n=f3 v=0
203684 On ch=3 n=f4 v=0
203684 On ch=3 n=c#5 v=108
203684 On ch=3 n=a#4 v=108
203684 On ch=3 n=f4 v=108
203980 On ch=3 n=f4 v=0
203980 On ch=3 n=a#4 v=0
203980 On ch=3 n=c#5 v=0
203980 On ch=3 n=c#5 v=102
203980 On ch=3 n=a#4 v=102
203980 On ch=3 n=f4 v=102
204274 On ch=3 n=f4 v=0
204274 On ch=3 n=a#4 v=0
204274 On ch=3 n=c#5 v=0
204274 On ch=3 n=f5 v=101
204274 On ch=3 n=c#5 v=101
204274 On ch=3 n=a#4 v=101
204274 On ch=3 n=f4 v=101
204816 On ch=3 n=f4 v=0
204816 On ch=3 n=a#4 v=0
204816 On ch=3 n=c#5 v=0
204816 On ch=3 n=f5 v=0
204816 On ch=3 n=f5 v=100
204816 On ch=3 n=c#5 v=100
204816 On ch=3 n=a#4 v=100
204816 On ch=3 n=f4 v=100
205358 Par ch=3 c=64 v=0
205362 On ch=3 n=f4 v=0
205362 On ch=3 n=a#4 v=0
205362 On ch=3 n=c#5 v=0
205362 On ch=3 n=f5 v=0
205362 On ch=3 n=f5 v=98
205362 On ch=3 n=d#5 v=98
205362 On ch=3 n=c5 v=98
205362 On ch=3 n=f4 v=98
205906 On ch=3 n=f4 v=0
205906 On ch=3 n=c5 v=0
205906 On ch=3 n=d#5 v=0
205906 On ch=3 n=f5 v=0
205906 On ch=3 n=f5 v=103
205906 On ch=3 n=d#5 v=103
205906 On ch=3 n=c5 v=103
205906 On ch=3 n=f4 v=103
206484 On ch=3 n=f4 v=0
206484 On ch=3 n=c5 v=0
206484 On ch=3 n=d#5 v=0
206484 On ch=3 n=f5 v=0
206484 On ch=3 n=f4 v=117
206484 On ch=3 n=f3 v=117
206488 Par ch=3 c=64 v=127
207112 On ch=3 n=f3 v=0
207112 On ch=3 n=f4 v=0
207112 On ch=3 n=f5 v=110
207112 On ch=3 n=c#5 v=110
207112 On ch=3 n=a#4 v=110
207112 On ch=3 n=f4 v=110
207448 On ch=3 n=f4 v=0
207448 On ch=3 n=a#4 v=0
207448 On ch=3 n=c#5 v=0
207448 On ch=3 n=f5 v=0
207448 On ch=3 n=f5 v=113
207448 On ch=3 n=c#5 v=113
207448 On ch=3 n=a#4 v=113
207448 On ch=3 n=f4 v=113
207748 On ch=3 n=f4 v=0
207748 On ch=3 n=a#4 v=0
207748 On ch=3 n=c#5 v=0
207748 On ch=3 n=f5 v=0
207748 On ch=3 n=f5 v=118
207748 On ch=3 n=c#5 v=118
207748 On ch=3 n=a#4 v=118
207748 On ch=3 n=f4 v=118
208350 On ch=3 n=f4 v=0
208350 On ch=3 n=a#4 v=0
208350 On ch=3 n=c#5 v=0
208350 On ch=3 n=f5 v=0
208350 On ch=3 n=f5 v=112
208350 On ch=3 n=f4 v=112
209006 Par ch=3 c=64 v=0
209010 On ch=3 n=f4 v=0
209010 On ch=3 n=f5 v=0
209010 On ch=3 n=f5 v=114
209010 On ch=3 n=d#5 v=114
209010 On ch=3 n=a4 v=114
209010 On ch=3 n=f4 v=114
209590 On ch=3 n=f4 v=0
209590 On ch=3 n=a4 v=0
209590 On ch=3 n=d#5 v=0
209590 On ch=3 n=f5 v=0
209590 On ch=3 n=f5 v=103
209590 On ch=3 n=f4 v=103
210280 On ch=3 n=f4 v=0
210280 On ch=3 n=f5 v=0
210280 On ch=3 n=a#3 v=121
210280 On ch=3 n=a#2 v=121
210286 Par ch=3 c=64 v=127
210872 On ch=3 n=a#2 v=0
210872 On ch=3 n=a#3 v=0
210872 On ch=3 n=c#5 v=102
210872 On ch=3 n=a#4 v=102
211180 On ch=3 n=a#4 v=0
211180 On ch=3 n=c#5 v=0
211180 On ch=3 n=c#5 v=108
211180 On ch=3 n=a#4 v=108
211498 On ch=3 n=a#4 v=0
211498 On ch=3 n=c#5 v=0
211498 On ch=3 n=c#5 v=109
211498 On ch=3 n=a#4 v=109
212126 On ch=3 n=a#4 v=0
212126 On ch=3 n=c#5 v=0
212126 On ch=3 n=c#5 v=102
212126 On ch=3 n=a#4 v=102
212740 Par ch=3 c=64 v=0
212744 On ch=3 n=a#4 v=0
212744 On ch=3 n=c#5 v=0
212744 On ch=3 n=c#5 v=105
212744 On ch=3 n=a#4 v=105
212744 On ch=3 n=d#4 v=105
212750 Par ch=3 c=64 v=127
213302 On ch=3 n=d#4 v=0
213302 On ch=3 n=a#4 v=0
213302 On ch=3 n=c#5 v=0
213302 On ch=3 n=d#4 v=100
213302 On ch=3 n=d#3 v=100
213900 Par ch=3 c=64 v=0
213904 On ch=3 n=d#3 v=0
213904 On ch=3 n=d#4 v=0
213904 On ch=3 n=g#3 v=120
213904 On ch=3 n=g#2 v=120
213910 Par ch=3 c=64 v=127
214590 On ch=3 n=g#2 v=0
214590 On ch=3 n=g#3 v=0
214590 On ch=3 n=c5 v=97
214590 On ch=3 n=g#4 v=97
214890 On ch=3 n=g#4 v=0
214890 On ch=3 n=c5 v=0
214890 On ch=3 n=c5 v=95
214890 On ch=3 n=g#4 v=95
215172 On ch=3 n=g#4 v=0
215172 On ch=3 n=c5 v=0
215172 On ch=3 n=c5 v=97
215172 On ch=3 n=g#4 v=97
215822 On ch=3 n=g#4 v=0
215822 On ch=3 n=c5 v=0
215822 On ch=3 n=c5 v=108
215822 On ch=3 n=g#4 v=108
216454 Par ch=3 c=64 v=0
216458 On ch=3 n=g#4 v=0
216458 On ch=3 n=c5 v=0
216458 On ch=3 n=c#5 v=113
216458 On ch=3 n=a#4 v=113
216458 On ch=3 n=d#4 v=113
216464 Par ch=3 c=64 v=127
217082 On ch=3 n=d#4 v=0
217082 On ch=3 n=a#4 v=0
217082 On ch=3 n=c#5 v=0
217082 On ch=3 n=d#4 v=113
217082 On ch=3 n=d#3 v=113
217666 Par ch=3 c=64 v=0
217670 On ch=3 n=d#3 v=0
217670 On ch=3 n=d#4 v=0
217670 On ch=3 n=g#3 v=112
217670 On ch=3 n=g#2 v=112
217674 Par ch=3 c=64 v=127
218222 On ch=3 n=g#2 v=0
218222 On ch=3 n=g#3 v=0
218222 On ch=3 n=c5 v=107
218222 On ch=3 n=g#4 v=107
218222 On ch=3 n=d#4 v=107
218504 On ch=3 n=d#4 v=0
218504 On ch=3 n=g#4 v=0
218504 On ch=3 n=c5 v=0
218504 On ch=3 n=c5 v=97
218504 On ch=3 n=g#4 v=97
218504 On ch=3 n=d#4 v=97
218792 On ch=3 n=d#4 v=0
218792 On ch=3 n=g#4 v=0
218792 On ch=3 n=c5 v=0
218792 On ch=3 n=d#5 v=104
218792 On ch=3 n=c5 v=104
218792 On ch=3 n=g#4 v=104
218792 On ch=3 n=d#4 v=104
219330 On ch=3 n=d#4 v=0
219330 On ch=3 n=g#4 v=0
219330 On ch=3 n=c5 v=0
219330 On ch=3 n=d#5 v=0
219330 On ch=3 n=d#5 v=108
219330 On ch=3 n=c5 v=108
219330 On ch=3 n=g#4 v=108
219330 On ch=3 n=d#4 v=108
219854 Par ch=3 c=64 v=0
219858 On ch=3 n=d#4 v=0
219858 On ch=3 n=g#4 v=0
219858 On ch=3 n=c5 v=0
219858 On ch=3 n=d#5 v=0
219858 On ch=3 n=d#5 v=108
219858 On ch=3 n=c#5 v=108
219858 On ch=3 n=a#4 v=108
219858 On ch=3 n=d#4 v=108
220380 On ch=3 n=d#4 v=0
220380 On ch=3 n=a#4 v=0
220380 On ch=3 n=c#5 v=0
220380 On ch=3 n=d#5 v=0
220380 On ch=3 n=d#5 v=109
220380 On ch=3 n=d#4 v=109
220968 On ch=3 n=d#4 v=0
220968 On ch=3 n=d#5 v=0
220968 On ch=3 n=g#3 v=121
220968 On ch=3 n=g#2 v=121
220972 Par ch=3 c=64 v=127
221584 On ch=3 n=g#2 v=0
221584 On ch=3 n=g#3 v=0
221584 On ch=3 n=g#5 v=118
221584 On ch=3 n=c5 v=118
221584 On ch=3 n=d#4 v=118
222184 On ch=3 n=d#4 v=0
222184 On ch=3 n=c5 v=0
222184 On ch=3 n=g#5 v=0
222184 On ch=3 n=g#5 v=120
222184 On ch=3 n=c5 v=120
222184 On ch=3 n=d#4 v=120
222782 On ch=3 n=d#4 v=0
222782 On ch=3 n=c5 v=0
222782 On ch=3 n=g#5 v=0
222782 On ch=3 n=g#5 v=110
222782 On ch=3 n=c5 v=110
222782 On ch=3 n=d#4 v=110
223426 Par ch=3 c=64 v=0
223430 On ch=3 n=d#4 v=0
223430 On ch=3 n=c5 v=0
223430 On ch=3 n=g#5 v=0
223430 On ch=3 n=g5 v=120
223430 On ch=3 n=c#5 v=120
223430 On ch=3 n=d#4 v=120
224044 On ch=3 n=d#4 v=0
224044 On ch=3 n=c#5 v=0
224044 On ch=3 n=g5 v=0
224044 On ch=3 n=g5 v=110
224044 On ch=3 n=c#5 v=110
224044 On ch=3 n=d#4 v=110
224704 On ch=3 n=d#4 v=0
224704 On ch=3 n=c#5 v=0
224704 On ch=3 n=g5 v=0
224704 On ch=3 n=g#3 v=121
224704 On ch=3 n=g#2 v=121
224710 Par ch=3 c=64 v=127
225328 On ch=3 n=g#2 v=0
225328 On ch=3 n=g#3 v=0
225328 On ch=3 n=c5 v=104
225328 On ch=3 n=g#4 v=104
225328 On ch=3 n=d#4 v=104
225660 On ch=3 n=d#4 v=0
225660 On ch=3 n=g#4 v=0
225660 On ch=3 n=c5 v=0
225660 On ch=3 n=c5 v=98
225660 On ch=3 n=g#4 v=98
225660 On ch=3 n=d#4 v=98
225944 On ch=3 n=d#4 v=0
225944 On ch=3 n=g#4 v=0
225944 On ch=3 n=c5 v=0
225944 On ch=3 n=c5 v=106
225944 On ch=3 n=g#4 v=106
225944 On ch=3 n=d#4 v=106
226574 Par ch=3 c=64 v=0
226578 On ch=3 n=d#4 v=0
226578 On ch=3 n=g#4 v=0
226578 On ch=3 n=c5 v=0
226578 On ch=3 n=b4 v=103
226578 On ch=3 n=g#4 v=103
226578 On ch=3 n=d#4 v=103
227182 On ch=3 n=d#4 v=0
227182 On ch=3 n=g#4 v=0
227182 On ch=3 n=b4 v=0
227182 On ch=3 n=c#4 v=103
227182 On ch=3 n=c#3 v=103
227188 Par ch=3 c=64 v=127
227788 On ch=3 n=c#3 v=0
227788 On ch=3 n=c#4 v=0
227788 On ch=3 n=b4 v=101
227788 On ch=3 n=g#4 v=101
227788 On ch=3 n=c#4 v=101
228388 Par ch=3 c=64 v=0
228392 On ch=3 n=c#4 v=0
228392 On ch=3 n=g#4 v=0
228392 On ch=3 n=b4 v=0
261210 On ch=3 n=c#5 v=93
261210 On ch=3 n=b4 v=93
261210 On ch=3 n=f4 v=93
261876 On ch=3 n=f4 v=0
261876 On ch=3 n=b4 v=0
261876 On ch=3 n=c#5 v=0
261876 On ch=3 n=c#5 v=90
261876 On ch=3 n=b4 v=90
262526 On ch=3 n=b4 v=0
262526 On ch=3 n=c#5 v=0
262526 On ch=3 n=a4 v=93
263192 On ch=3 n=a4 v=0
263192 On ch=3 n=a4 v=93
263518 On ch=3 n=a4 v=0
263518 On ch=3 n=a4 v=93
263858 On ch=3 n=a4 v=0
263858 On ch=3 n=b4 v=93
263858 On ch=3 n=f4 v=93
264556 On ch=3 n=f4 v=0
264556 On ch=3 n=b4 v=0
264556 On ch=3 n=b4 v=91
264556 On ch=3 n=f4 v=91
265224 On ch=3 n=f4 v=0
265224 On ch=3 n=b4 v=0
265224 On ch=3 n=b4 v=89
265224 On ch=3 n=f4 v=89
265872 On ch=3 n=f4 v=0
265872 On ch=3 n=b4 v=0
265872 On ch=3 n=b4 v=91
265872 On ch=3 n=f4 v=91
266560 On ch=3 n=f4 v=0
266560 On ch=3 n=b4 v=0
398188 On ch=3 n=g#3 v=114
398188 On ch=3 n=g#2 v=114
398194 Par ch=3 c=64 v=127
398866 On ch=3 n=g#2 v=0
398866 On ch=3 n=g#3 v=0
398866 On ch=3 n=c#5 v=102
398866 On ch=3 n=e4 v=102
399218 On ch=3 n=e4 v=0
399218 On ch=3 n=c#5 v=0
399218 On ch=3 n=c#5 v=95
399218 On ch=3 n=e4 v=95
399532 On ch=3 n=e4 v=0
399532 On ch=3 n=c#5 v=0
399532 On ch=3 n=c#5 v=91
399532 On ch=3 n=e4 v=91
400206 On ch=3 n=e4 v=0
400206 On ch=3 n=c#5 v=0
400206 On ch=3 n=c#5 v=94
400206 On ch=3 n=e4 v=94
400930 Par ch=3 c=64 v=0
400936 On ch=3 n=e4 v=0
400936 On ch=3 n=c#5 v=0
400936 On ch=3 n=d#5 v=95
400936 On ch=3 n=g#4 v=95
400936 On ch=3 n=d#4 v=95
401592 On ch=3 n=d#4 v=0
401592 On ch=3 n=g#4 v=0
401592 On ch=3 n=d#5 v=0
401592 On ch=3 n=g#4 v=98
401592 On ch=3 n=f#4 v=98
402268 On ch=3 n=f#4 v=0
402268 On ch=3 n=g#4 v=0
402268 On ch=3 n=g#3 v=104
402268 On ch=3 n=g#2 v=104
402274 Par ch=3 c=64 v=127
402922 On ch=3 n=g#2 v=0
402922 On ch=3 n=g#3 v=0
402922 On ch=3 n=c#5 v=98
402922 On ch=3 n=g#4 v=98
403268 On ch=3 n=g#4 v=0
403268 On ch=3 n=c#5 v=0
403268 On ch=3 n=c#5 v=98
403268 On ch=3 n=g#4 v=98
403630 On ch=3 n=g#4 v=0
403630 On ch=3 n=c#5 v=0
403630 On ch=3 n=e5 v=98
403630 On ch=3 n=c#5 v=98
403630 On ch=3 n=g#4 v=98
404332 On ch=3 n=g#4 v=0
404332 On ch=3 n=c#5 v=0
404332 On ch=3 n=e5 v=0
404332 On ch=3 n=g#5 v=98
404332 On ch=3 n=e5 v=98
404332 On ch=3 n=c#5 v=98
404332 On ch=3 n=g#4 v=98
405030 Par ch=3 c=64 v=0
405034 On ch=3 n=g#4 v=0
405034 On ch=3 n=c#5 v=0
405034 On ch=3 n=e5 v=0
405034 On ch=3 n=g#5 v=0
405034 On ch=3 n=g#5 v=99
405034 On ch=3 n=f#5 v=99
405034 On ch=3 n=d5 v=99
405034 On ch=3 n=g#4 v=99
405678 On ch=3 n=g#4 v=0
405678 On ch=3 n=d5 v=0
405678 On ch=3 n=f#5 v=0
405678 On ch=3 n=g#5 v=0
405678 On ch=3 n=g#5 v=95
405678 On ch=3 n=g#4 v=95
406284 On ch=3 n=g#4 v=0
406284 On ch=3 n=g#5 v=0
406284 On ch=3 n=g#3 v=96
406284 On ch=3 n=g#2 v=96
406290 Par ch=3 c=64 v=127
406936 On ch=3 n=g#2 v=0
406936 On ch=3 n=g#3 v=0
406936 On ch=3 n=e5 v=94
406936 On ch=3 n=c#5 v=94
406936 On ch=3 n=g#4 v=94
407252 On ch=3 n=g#4 v=0
407252 On ch=3 n=c#5 v=0
407252 On ch=3 n=e5 v=0
407252 On ch=3 n=e5 v=95
407252 On ch=3 n=c#5 v=95
407252 On ch=3 n=g#4 v=95
407554 On ch=3 n=g#4 v=0
407554 On ch=3 n=c#5 v=0
407554 On ch=3 n=e5 v=0
407554 On ch=3 n=g#5 v=92
407554 On ch=3 n=e5 v=92
407554 On ch=3 n=c#5 v=92
407554 On ch=3 n=g#4 v=92
408262 On ch=3 n=g#4 v=0
408262 On ch=3 n=c#5 v=0
408262 On ch=3 n=e5 v=0
408262 On ch=3 n=g#5 v=0
408262 On ch=3 n=g#5 v=91
408262 On ch=3 n=g#4 v=91
408904 Par ch=3 c=64 v=0
408908 On ch=3 n=g#4 v=0
408908 On ch=3 n=g#5 v=0
408908 On ch=3 n=g#5 v=94
408908 On ch=3 n=f#5 v=94
408908 On ch=3 n=c5 v=94
408908 On ch=3 n=g#4 v=94
409644 On ch=3 n=g#4 v=0
409644 On ch=3 n=c5 v=0
409644 On ch=3 n=f#5 v=0
409644 On ch=3 n=g#5 v=0
409644 On ch=3 n=g#5 v=94
409644 On ch=3 n=g#4 v=94
410290 On ch=3 n=g#4 v=0
410290 On ch=3 n=g#5 v=0
410290 On ch=3 n=c#4 v=94
410290 On ch=3 n=c#3 v=94
410296 Par ch=3 c=64 v=127
410950 On ch=3 n=c#3 v=0
410950 On ch=3 n=c#4 v=0
410950 On ch=3 n=e5 v=95
410950 On ch=3 n=c#5 v=95
410950 On ch=3 n=g#4 v=95
411266 On ch=3 n=g#4 v=0
411266 On ch=3 n=c#5 v=0
411266 On ch=3 n=e5 v=0
411266 On ch=3 n=e5 v=94
411266 On ch=3 n=c#5 v=94
411266 On ch=3 n=g#4 v=94
411608 On ch=3 n=g#4 v=0
411608 On ch=3 n=c#5 v=0
411608 On ch=3 n=e5 v=0
411608 On ch=3 n=e5 v=91
411608 On ch=3 n=c#5 v=91
411608 On ch=3 n=g#4 v=91
412266 On ch=3 n=g#4 v=0
412266 On ch=3 n=c#5 v=0
412266 On ch=3 n=e5 v=0
412266 On ch=3 n=e5 v=93
412266 On ch=3 n=c#5 v=93
412266 On ch=3 n=g#4 v=93
412918 Par ch=3 c=64 v=0
412922 On ch=3 n=g#4 v=0
412922 On ch=3 n=c#5 v=0
412922 On ch=3 n=e5 v=0
412922 On ch=3 n=f#3 v=95
412928 Par ch=3 c=64 v=127
413586 On ch=3 n=f#3 v=0
413586 On ch=3 n=e5 v=92
413586 On ch=3 n=c#5 v=92
413586 On ch=3 n=f#4 v=92
414228 Par ch=3 c=64 v=0
414232 On ch=3 n=f#4 v=0
414232 On ch=3 n=c#5 v=0
414232 On ch=3 n=e5 v=0
414232 On ch=3 n=b3 v=96
414232 On ch=3 n=b2 v=96
414238 Par ch=3 c=64 v=127
414974 On ch=3 n=b2 v=0
414974 On ch=3 n=b3 v=0
414974 On ch=3 n=d#5 v=93
414974 On ch=3 n=b4 v=93
415296 On ch=3 n=b4 v=0
415296 On ch=3 n=d#5 v=0
415296 On ch=3 n=d#5 v=90
415296 On ch=3 n=b4 v=90
415578 On ch=3 n=b4 v=0
415578 On ch=3 n=d#5 v=0
415578 On ch=3 n=d#5 v=91
415578 On ch=3 n=b4 v=91
416222 On ch=3 n=b4 v=0
416222 On ch=3 n=d#5 v=0
416222 On ch=3 n=d#5 v=91
416222 On ch=3 n=b4 v=91
416902 Par ch=3 c=64 v=0
416906 On ch=3 n=b4 v=0
416906 On ch=3 n=d#5 v=0
416906 On ch=3 n=e5 v=95
416906 On ch=3 n=c#5 v=95
416906 On ch=3 n=f#4 v=95
417574 On ch=3 n=f#4 v=0
417574 On ch=3 n=c#5 v=0
417574 On ch=3 n=e5 v=0
417574 On ch=3 n=e5 v=95
417574 On ch=3 n=a#4 v=95
417574 On ch=3 n=f#4 v=95
418206 On ch=3 n=f#4 v=0
418206 On ch=3 n=a#4 v=0
418206 On ch=3 n=e5 v=0
418206 On ch=3 n=b3 v=91
418206 On ch=3 n=b2 v=91
418212 Par ch=3 c=64 v=127
418842 On ch=3 n=b2 v=0
418842 On ch=3 n=b3 v=0
418842 On ch=3 n=b4 v=97
418842 On ch=3 n=f#4 v=97
419168 On ch=3 n=f#4 v=0
419168 On ch=3 n=b4 v=0
419168 On ch=3 n=b4 v=97
419168 On ch=3 n=f#4 v=97
419488 On ch=3 n=f#4 v=0
419488 On ch=3 n=b4 v=0
419488 On ch=3 n=d#5 v=97
419488 On ch=3 n=b4 v=97
419488 On ch=3 n=f#4 v=97
420160 On ch=3 n=f#4 v=0
420160 On ch=3 n=b4 v=0
420160 On ch=3 n=d#5 v=0
420160 On ch=3 n=f#5 v=100
420160 On ch=3 n=f#4 v=100
420852 Par ch=3 c=64 v=0
420856 On ch=3 n=f#4 v=0
420856 On ch=3 n=f#5 v=98
420856 On ch=3 n=e5 v=98
420856 On ch=3 n=c#5 v=98
420856 On ch=3 n=f#4 v=98
421476 On ch=3 n=f#4 v=0
421476 On ch=3 n=c#5 v=0
421476 On ch=3 n=e5 v=0
421476 On ch=3 n=f#5 v=0
421476 On ch=3 n=f#5 v=0
421476 On ch=3 n=f#5 v=95
421476 On ch=3 n=f#4 v=95
422106 On ch=3 n=f#4 v=0
422106 On ch=3 n=f#5 v=0
422106 On ch=3 n=b3 v=97
422106 On ch=3 n=b2 v=97
422112 Par ch=3 c=64 v=127
422790 On ch=3 n=b2 v=0
422790 On ch=3 n=b3 v=0
422790 On ch=3 n=b5 v=94
422790 On ch=3 n=d#5 v=94
422790 On ch=3 n=f#4 v=94
423430 On ch=3 n=f#4 v=0
423430 On ch=3 n=d#5 v=0
423430 On ch=3 n=b5 v=0
423430 On ch=3 n=b5 v=95
423430 On ch=3 n=d#5 v=95
423430 On ch=3 n=f#4 v=95
424186 On ch=3 n=f#4 v=0
424186 On ch=3 n=d#5 v=0
424186 On ch=3 n=b5 v=0
424186 On ch=3 n=b5 v=97
424186 On ch=3 n=d#5 v=97
424186 On ch=3 n=f#4 v=97
424852 Par ch=3 c=64 v=0
424856 On ch=3 n=f#4 v=0
424856 On ch=3 n=d#5 v=0
424856 On ch=3 n=b5 v=0
424856 On ch=3 n=a#5 v=94
424856 On ch=3 n=e5 v=94
424856 On ch=3 n=f#4 v=94
425504 On ch=3 n=f#4 v=0
425504 On ch=3 n=e5 v=0
425504 On ch=3 n=a#5 v=0
425504 On ch=3 n=a#5 v=95
425504 On ch=3 n=e5 v=95
425504 On ch=3 n=f#4 v=95
426162 On ch=3 n=f#4 v=0
426162 On ch=3 n=e5 v=0
426162 On ch=3 n=a#5 v=0
426162 On ch=3 n=b3 v=95
426162 On ch=3 n=b2 v=95
426168 Par ch=3 c=64 v=127
426830 On ch=3 n=b2 v=0
426830 On ch=3 n=b3 v=0
426830 On ch=3 n=d#5 v=95
426830 On ch=3 n=b4 v=95
426830 On ch=3 n=f#4 v=95
427158 On ch=3 n=f#4 v=0
427158 On ch=3 n=b4 v=0
427158 On ch=3 n=d#5 v=0
427158 On ch=3 n=d#5 v=95
427158 On ch=3 n=b4 v=95
427158 On ch=3 n=f#4 v=95
427498 On ch=3 n=f#4 v=0
427498 On ch=3 n=b4 v=0
427498 On ch=3 n=d#5 v=0
427498 On ch=3 n=d#5 v=94
427498 On ch=3 n=b4 v=94
427498 On ch=3 n=f#4 v=94
428204 Par ch=3 c=64 v=0
428208 On ch=3 n=f#4 v=0
428208 On ch=3 n=b4 v=0
428208 On ch=3 n=d#5 v=0
428208 On ch=3 n=d5 v=94
428208 On ch=3 n=b4 v=94
428208 On ch=3 n=f#4 v=94
428892 On ch=3 n=f#4 v=0
428892 On ch=3 n=b4 v=0
428892 On ch=3 n=d5 v=0
428892 On ch=3 n=e4 v=97
428892 On ch=3 n=e3 v=97
428898 Par ch=3 c=64 v=127
429546 On ch=3 n=e3 v=0
429546 On ch=3 n=e4 v=0
429546 On ch=3 n=d5 v=95
429546 On ch=3 n=b4 v=95
429546 On ch=3 n=e4 v=95
430180 Par ch=3 c=64 v=0
430184 On ch=3 n=e4 v=0
430184 On ch=3 n=b4 v=0
430184 On ch=3 n=d5 v=0
493318 On ch=3 n=a2 v=53
493324 Par ch=3 c=64 v=127
494600 On ch=3 n=a2 v=0
494600 On ch=3 n=e4 v=62
495704 On ch=3 n=e4 v=0
495704 On ch=3 n=a4 v=54
496738 On ch=3 n=a4 v=0
496738 On ch=3 n=e5 v=53
497780 On ch=3 n=e5 v=0
497780 On ch=3 n=a4 v=54
498838 On ch=3 n=a4 v=0
498838 On ch=3 n=e4 v=51
499862 Par ch=3 c=64 v=0
499866 On ch=3 n=e4 v=0
499866 On ch=3 n=a2 v=56
499870 Par ch=3 c=64 v=127
500922 On ch=3 n=a2 v=0
500922 On ch=3 n=e4 v=56
500922 On ch=3 n=a3 v=56
501938 On ch=3 n=a3 v=0
501938 On ch=3 n=e4 v=0
501938 On ch=3 n=a4 v=55
501938 On ch=3 n=e4 v=55
502964 On ch=3 n=e4 v=0
502964 On ch=3 n=a4 v=0
502964 On ch=3 n=e5 v=53
502964 On ch=3 n=a4 v=53
504010 On ch=3 n=a4 v=0
504010 On ch=3 n=e5 v=0
504010 On ch=3 n=a4 v=53
504010 On ch=3 n=e4 v=53
505062 On ch=3 n=e4 v=0
505062 On ch=3 n=a4 v=0
505062 On ch=3 n=e4 v=50
505062 On ch=3 n=a3 v=50
506068 Par ch=3 c=64 v=0
506072 On ch=3 n=a3 v=0
506072 On ch=3 n=e4 v=0
506072 On ch=3 n=a2 v=54
506076 Par ch=3 c=64 v=127
507098 On ch=3 n=a2 v=0
507098 On ch=3 n=d5 v=49
507098 On ch=3 n=b4 v=49
507098 On ch=3 n=e4 v=49
508104 On ch=3 n=e4 v=0
508104 On ch=3 n=b4 v=0
508104 On ch=3 n=d5 v=0
508104 On ch=3 n=e5 v=56
508104 On ch=3 n=d5 v=56
509098 Par ch=3 c=64 v=0
509102 On ch=3 n=d5 v=0
509102 On ch=3 n=e5 v=0
509102 On ch=3 n=a3 v=56
509106 Par ch=3 c=64 v=127
510116 On ch=3 n=a3 v=0
510116 On ch=3 n=c#5 v=55
510116 On ch=3 n=a4 v=55
510116 On ch=3 n=e4 v=55
511144 On ch=3 n=e4 v=0
511144 On ch=3 n=a4 v=0
511144 On ch=3 n=c#5 v=0
511144 On ch=3 n=e5 v=54
511144 On ch=3 n=a4 v=54
512218 Par ch=3 c=64 v=0
512222 On ch=3 n=a4 v=0
512222 On ch=3 n=e5 v=0
512222 On ch=3 n=a2 v=55
512226 Par ch=3 c=64 v=127
513244 On ch=3 n=a2 v=0
513244 On ch=3 n=d5 v=50
513244 On ch=3 n=e4 v=50
514286 On ch=3 n=e4 v=0
514286 On ch=3 n=d5 v=0
514286 On ch=3 n=e5 v=49
514286 On ch=3 n=d5 v=49
514286 On ch=3 n=g#4 v=49
515322 Par ch=3 c=64 v=0
515326 On ch=3 n=g#4 v=0
515326 On ch=3 n=d5 v=0
515326 On ch=3 n=e5 v=0
515326 On ch=3 n=a3 v=50
515330 Par ch=3 c=64 v=127
516374 On ch=3 n=a3 v=0
516374 On ch=3 n=a4 v=48
516374 On ch=3 n=e4 v=48
517486 On ch=3 n=e4 v=0
517486 On ch=3 n=a4 v=0
517486 On ch=3 n=e5 v=48
517486 On ch=3 n=a4 v=48
518552 Par ch=3 c=64 v=0
518556 On ch=3 n=a4 v=0
518556 On ch=3 n=e5 v=0
518556 On ch=3 n=a2 v=55
518560 Par ch=3 c=64 v=127
519584 On ch=3 n=a2 v=0
519584 On ch=3 n=e4 v=49
519584 On ch=3 n=a3 v=49
520650 On ch=3 n=a3 v=0
520650 On ch=3 n=e4 v=0
520650 On ch=3 n=d5 v=51
520650 On ch=3 n=g#4 v=51
520650 On ch=3 n=e4 v=51
521692 Par ch=3 c=64 v=0
521696 On ch=3 n=e4 v=0
521696 On ch=3 n=g#4 v=0
521696 On ch=3 n=d5 v=0
521696 On ch=3 n=a2 v=51
521700 Par ch=3 c=64 v=127
522750 On ch=3 n=a2 v=0
522750 On ch=3 n=e4 v=53
522750 On ch=3 n=a3 v=53
523834 On ch=3 n=a3 v=0
523834 On ch=3 n=e4 v=0
523834 On ch=3 n=a4 v=47
523834 On ch=3 n=e4 v=47
524810 Par ch=3 c=64 v=0
524812 On ch=3 n=e4 v=0
524812 On ch=3 n=a4 v=0
524812 On ch=3 n=a2 v=49
524816 Par ch=3 c=64 v=127
525846 On ch=3 n=a2 v=0
525846 On ch=3 n=e4 v=47
525846 On ch=3 n=a3 v=47
526888 On ch=3 n=a3 v=0
526888 On ch=3 n=e4 v=0
526888 On ch=3 n=g#4 v=43
526888 On ch=3 n=e4 v=43
527924 Par ch=3 c=64 v=0
527928 On ch=3 n=e4 v=0
527928 On ch=3 n=g#4 v=0
527928 On ch=3 n=a2 v=49
527932 Par ch=3 c=64 v=127
528926 On ch=3 n=a2 v=0
528926 On ch=3 n=e4 v=40
528926 On ch=3 n=a3 v=40
529974 On ch=3 n=a3 v=0
529974 On ch=3 n=e4 v=0
529974 On ch=3 n=a4 v=51
529974 On ch=3 n=e4 v=51
530980 Par ch=3 c=64 v=0
530984 On ch=3 n=e4 v=0
530984 On ch=3 n=a4 v=0
530984 On ch=3 n=a2 v=47
530988 Par ch=3 c=64 v=127
532046 On ch=3 n=a2 v=0
534174 Par ch=3 c=64 v=0
556200 On ch=3 n=e3 v=49
556204 Par ch=3 c=64 v=127
557300 On ch=3 n=e3 v=0
557300 On ch=3 n=e4 v=49
557300 On ch=3 n=b3 v=49
558364 On ch=3 n=b3 v=0
558364 On ch=3 n=e4 v=0
558364 On ch=3 n=b4 v=51
558364 On ch=3 n=e4 v=51
559400 On ch=3 n=e4 v=0
559400 On ch=3 n=b4 v=0
559400 On ch=3 n=e5 v=56
559400 On ch=3 n=b4 v=56
560478 On ch=3 n=b4 v=0
560478 On ch=3 n=e5 v=0
560478 On ch=3 n=b4 v=49
560478 On ch=3 n=e4 v=49
561564 On ch=3 n=e4 v=0
561564 On ch=3 n=b4 v=0
561564 On ch=3 n=e4 v=48
561564 On ch=3 n=b3 v=48
562590 Par ch=3 c=64 v=0
562594 On ch=3 n=b3 v=0
562594 On ch=3 n=e4 v=0
562594 On ch=3 n=e3 v=59
562598 Par ch=3 c=64 v=127
563684 On ch=3 n=e3 v=0
563684 On ch=3 n=b4 v=45
563684 On ch=3 n=e4 v=45
564828 On ch=3 n=e4 v=0
564828 On ch=3 n=b4 v=0
564828 On ch=3 n=e5 v=49
564828 On ch=3 n=b4 v=49
565882 On ch=3 n=b4 v=0
565882 On ch=3 n=e5 v=0
565882 On ch=3 n=b5 v=51
565882 On ch=3 n=e5 v=51
566956 On ch=3 n=e5 v=0
566956 On ch=3 n=b5 v=0
566956 On ch=3 n=e5 v=43
566956 On ch=3 n=b4 v=43
568048 On ch=3 n=b4 v=0
568048 On ch=3 n=e5 v=0
568048 On ch=3 n=b4 v=52
568048 On ch=3 n=e4 v=52
569076 Par ch=3 c=64 v=0
569080 On ch=3 n=e4 v=0
569080 On ch=3 n=b4 v=0
569080 On ch=3 n=e3 v=57
569084 Par ch=3 c=64 v=127
570092 On ch=3 n=e3 v=0
570092 On ch=3 n=d#5 v=64
570092 On ch=3 n=a4 v=64
570092 On ch=3 n=e4 v=64
571184 On ch=3 n=e4 v=0
571184 On ch=3 n=a4 v=0
571184 On ch=3 n=d#5 v=0
571184 On ch=3 n=a5 v=59
571184 On ch=3 n=d#5 v=59
571184 On ch=3 n=b4 v=59
572244 Par ch=3 c=64 v=0
572248 On ch=3 n=b4 v=0
572248 On ch=3 n=d#5 v=0
572248 On ch=3 n=a5 v=0
572248 On ch=3 n=e3 v=57
572252 Par ch=3 c=64 v=127
573286 On ch=3 n=e3 v=0
573286 On ch=3 n=e5 v=58
573286 On ch=3 n=g#4 v=58
573286 On ch=3 n=e4 v=58
574380 On ch=3 n=e4 v=0
574380 On ch=3 n=g#4 v=0
574380 On ch=3 n=e5 v=0
574380 On ch=3 n=g#5 v=56
574380 On ch=3 n=b4 v=56
575416 Par ch=3 c=64 v=0
575420 On ch=3 n=b4 v=0
575420 On ch=3 n=g#5 v=0
575420 On ch=3 n=e3 v=55
575424 Par ch=3 c=64 v=127
576482 On ch=3 n=e3 v=0
576482 On ch=3 n=a4 v=56
576482 On ch=3 n=b3 v=56
577602 On ch=3 n=b3 v=0
577602 On ch=3 n=a4 v=0
577602 On ch=3 n=d#5 v=57
577602 On ch=3 n=a4 v=57
578658 Par ch=3 c=64 v=0
578662 On ch=3 n=a4 v=0
578662 On ch=3 n=d#5 v=0
578662 On ch=3 n=e3 v=58
578666 Par ch=3 c=64 v=127
579736 On ch=3 n=e3 v=0
579736 On ch=3 n=g#4 v=58
579736 On ch=3 n=b3 v=58
580826 On ch=3 n=b3 v=0
580826 On ch=3 n=g#4 v=0
580826 On ch=3 n=e5 v=58
580826 On ch=3 n=g#4 v=58
581894 Par ch=3 c=64 v=0
581898 On ch=3 n=g#4 v=0
581898 On ch=3 n=e5 v=0
581898 On ch=3 n=e2 v=60
581902 Par ch=3 c=64 v=127
582914 On ch=3 n=e2 v=0
582914 On ch=3 n=a4 v=57
582914 On ch=3 n=b3 v=57
583960 On ch=3 n=b3 v=0
583960 On ch=3 n=a4 v=0
583960 On ch=3 n=d#5 v=60
583960 On ch=3 n=a4 v=60
585024 Par ch=3 c=64 v=0
585028 On ch=3 n=a4 v=0
585028 On ch=3 n=d#5 v=0
585028 On ch=3 n=e3 v=54
585032 Par ch=3 c=64 v=127
586090 On ch=3 n=e3 v=0
586090 On ch=3 n=g#4 v=57
586090 On ch=3 n=b3 v=57
587202 On ch=3 n=b3 v=0
587202 On ch=3 n=g#4 v=0
587202 On ch=3 n=e5 v=54
587202 On ch=3 n=g#4 v=54
588258 Par ch=3 c=64 v=0
588262 On ch=3 n=g#4 v=0
588262 On ch=3 n=e5 v=0
588262 On ch=3 n=e3 v=57
588266 Par ch=3 c=64 v=127
589312 On ch=3 n=e3 v=0
589312 On ch=3 n=b4 v=55
589312 On ch=3 n=b3 v=55
590414 On ch=3 n=b3 v=0
590414 On ch=3 n=b4 v=0
590414 On ch=3 n=b4 v=55
590414 On ch=3 n=b3 v=55
591458 Par ch=3 c=64 v=0
591462 On ch=3 n=b4 v=0
591462 On ch=3 n=b3 v=57
591462 On ch=3 n=e3 v=57
591466 Par ch=3 c=64 v=127
591488 On ch=3 n=b3 v=0
592506 On ch=3 n=e3 v=0
592506 On ch=3 n=b3 v=0
592506 On ch=3 n=e4 v=54
592506 On ch=3 n=b3 v=54
593580 On ch=3 n=b3 v=0
593580 On ch=3 n=e4 v=0
593580 On ch=3 n=b4 v=54
593580 On ch=3 n=e4 v=54
594644 Par ch=3 c=64 v=0
594648 On ch=3 n=e4 v=0
594648 On ch=3 n=b4 v=0
594648 On ch=3 n=e3 v=55
594652 Par ch=3 c=64 v=127
595734 On ch=3 n=e3 v=0
596842 Par ch=3 c=64 v=0
627146 On ch=3 n=b3 v=52
627150 Par ch=3 c=64 v=127
628250 On ch=3 n=b3 v=0
628250 On ch=3 n=a5 v=51
628250 On ch=3 n=f#5 v=51
628250 On ch=3 n=b4 v=51
629318 Par ch=3 c=64 v=0
629322 On ch=3 n=b4 v=0
629322 On ch=3 n=f#5 v=0
629322 On ch=3 n=a5 v=0
630422 On ch=3 n=e4 v=61
630426 Par ch=3 c=64 v=127
631476 On ch=3 n=e4 v=0
631476 On ch=3 n=g#5 v=58
631476 On ch=3 n=d5 v=58
632544 Par ch=3 c=64 v=0
632548 On ch=3 n=d5 v=0
632548 On ch=3 n=g#5 v=0
639990 Par ch=3 c=64 v=0
639994 On ch=3 n=f#4 v=58
639998 Par ch=3 c=64 v=127
641082 On ch=3 n=f#4 v=0
641082 On ch=3 n=c#6 v=52
641082 On ch=3 n=f#5 v=52
641082 On ch=3 n=c#5 v=52
642124 On ch=3 n=c#5 v=0
642124 On ch=3 n=f#5 v=0
642124 On ch=3 n=c#6 v=0
643172 Par ch=3 c=64 v=0
643176 On ch=3 n=b3 v=57
643180 Par ch=3 c=64 v=127
644214 On ch=3 n=b3 v=0
644214 On ch=3 n=a5 v=58
644214 On ch=3 n=d#5 v=58
644214 On ch=3 n=b4 v=58
645250 On ch=3 n=b4 v=0
645250 On ch=3 n=d#5 v=0
645250 On ch=3 n=a5 v=0
653810 On ch=3 n=b4 v=55
653810 On ch=3 n=b3 v=55
654888 On ch=3 n=b3 v=0
654888 On ch=3 n=b4 v=0
654888 On ch=3 n=b4 v=58
654888 On ch=3 n=e4 v=58
655996 On ch=3 n=e4 v=0
655996 On ch=3 n=b4 v=0
657060 On ch=3 n=b4 v=57
657060 On ch=3 n=b3 v=57
658124 On ch=3 n=b3 v=0
658124 On ch=3 n=b4 v=0
658124 On ch=3 n=b4 v=57
658124 On ch=3 n=e4 v=57
659226 On ch=3 n=e4 v=0
659226 On ch=3 n=b4 v=0
660308 On ch=3 n=b4 v=51
660308 On ch=3 n=b3 v=51
661380 On ch=3 n=b3 v=0
661380 On ch=3 n=b4 v=0
661380 On ch=3 n=b4 v=57
661380 On ch=3 n=e4 v=57
662430 On ch=3 n=e4 v=0
662430 On ch=3 n=b4 v=0
681898 On ch=3 n=e3 v=58
681902 Par ch=3 c=64 v=127
682998 On ch=3 n=e3 v=0
682998 On ch=3 n=e4 v=63
682998 On ch=3 n=b3 v=63
684156 On ch=3 n=b3 v=0
684156 On ch=3 n=e4 v=0
684156 On ch=3 n=b4 v=59
684156 On ch=3 n=e4 v=59
685266 On ch=3 n=e4 v=0
685266 On ch=3 n=b4 v=0
685266 On ch=3 n=e5 v=65
685266 On ch=3 n=b4 v=65
686350 On ch=3 n=b4 v=0
686350 On ch=3 n=e5 v=0
686350 On ch=3 n=b4 v=61
686350 On ch=3 n=e4 v=61
687452 On ch=3 n=e4 v=0
687452 On ch=3 n=b4 v=0
687452 On ch=3 n=e4 v=60
687452 On ch=3 n=b3 v=60
688500 Par ch=3 c=64 v=0
688504 On ch=3 n=b3 v=0
688504 On ch=3 n=e4 v=0
688504 On ch=3 n=e2 v=70
688508 Par ch=3 c=64 v=127
689600 On ch=3 n=e2 v=0
689600 On ch=3 n=e4 v=51
689600 On ch=3 n=b3 v=51
690738 On ch=3 n=b3 v=0
690738 On ch=3 n=e4 v=0
690738 On ch=3 n=b4 v=57
690738 On ch=3 n=e4 v=57
691802 On ch=3 n=e4 v=0
691802 On ch=3 n=b4 v=0
691802 On ch=3 n=e5 v=58
691802 On ch=3 n=b4 v=58
692916 On ch=3 n=b4 v=0
692916 On ch=3 n=e5 v=0
692916 On ch=3 n=b4 v=57
692916 On ch=3 n=e4 v=57
694006 Par ch=3 c=64 v=0
694010 On ch=3 n=e4 v=0
694010 On ch=3 n=b4 v=0
694010 On ch=3 n=e4 v=61
694010 On ch=3 n=b3 v=61
695080 On ch=3 n=b3 v=0
695080 On ch=3 n=e4 v=0
695080 On ch=3 n=e3 v=65
695084 Par ch=3 c=64 v=127
696132 On ch=3 n=e3 v=0
696132 On ch=3 n=a4 v=60
696132 On ch=3 n=b3 v=60
697164 On ch=3 n=b3 v=0
697164 On ch=3 n=a4 v=0
697164 On ch=3 n=d#5 v=65
697164 On ch=3 n=a4 v=65
697684 Par ch=3 c=64 v=0
698194 On ch=3 n=a4 v=0
698194 On ch=3 n=d#5 v=0
698194 On ch=3 n=e3 v=68
698198 Par ch=3 c=64 v=127
699268 On ch=3 n=e3 v=0
699268 On ch=3 n=g#4 v=61
699268 On ch=3 n=b3 v=61
700324 On ch=3 n=b3 v=0
700324 On ch=3 n=g#4 v=0
700324 On ch=3 n=e5 v=65
700324 On ch=3 n=g#4 v=65
700846 Par ch=3 c=64 v=0
701346 On ch=3 n=g#4 v=0
701346 On ch=3 n=e5 v=0
701346 On ch=3 n=e3 v=72
701350 Par ch=3 c=64 v=127
702392 On ch=3 n=e3 v=0
702392 On ch=3 n=a4 v=62
702392 On ch=3 n=b3 v=62
703496 On ch=3 n=b3 v=0
703496 On ch=3 n=a4 v=0
703496 On ch=3 n=d#5 v=62
703496 On ch=3 n=a4 v=62
704004 Par ch=3 c=64 v=0
704514 On ch=3 n=a4 v=0
704514 On ch=3 n=d#5 v=0
704514 On ch=3 n=e3 v=67
704518 Par ch=3 c=64 v=127
705556 On ch=3 n=e3 v=0
705556 On ch=3 n=g#4 v=66
705556 On ch=3 n=b3 v=66
706646 On ch=3 n=b3 v=0
706646 On ch=3 n=g#4 v=0
706646 On ch=3 n=e5 v=69
706646 On ch=3 n=g#4 v=69
707150 Par ch=3 c=64 v=0
707666 On ch=3 n=g#4 v=0
707666 On ch=3 n=e5 v=0
707666 On ch=3 n=e3 v=64
707670 Par ch=3 c=64 v=127
708714 On ch=3 n=e3 v=0
708714 On ch=3 n=a4 v=59
708714 On ch=3 n=b3 v=59
709792 On ch=3 n=b3 v=0
709792 On ch=3 n=a4 v=0
709792 On ch=3 n=d#5 v=59
709792 On ch=3 n=a4 v=59
710322 Par ch=3 c=64 v=0
710864 On ch=3 n=a4 v=0
710864 On ch=3 n=d#5 v=0
710864 On ch=3 n=e3 v=62
710868 Par ch=3 c=64 v=127
711882 On ch=3 n=e3 v=0
711882 On ch=3 n=g#4 v=61
711882 On ch=3 n=b3 v=61
712950 On ch=3 n=b3 v=0
712950 On ch=3 n=g#4 v=0
712950 On ch=3 n=e5 v=59
712950 On ch=3 n=g#4 v=59
713472 Par ch=3 c=64 v=0
713986 On ch=3 n=g#4 v=0
713986 On ch=3 n=e5 v=0
713986 On ch=3 n=e3 v=66
713990 Par ch=3 c=64 v=127
715028 On ch=3 n=e3 v=0
715028 On ch=3 n=d#4 v=70
715028 On ch=3 n=b3 v=70
716170 On ch=3 n=b3 v=0
716170 On ch=3 n=d#4 v=0
716170 On ch=3 n=b4 v=64
716170 On ch=3 n=d#4 v=64
716676 Par ch=3 c=64 v=0
717200 On ch=3 n=d#4 v=0
717200 On ch=3 n=b4 v=0
717200 On ch=3 n=e3 v=64
717204 Par ch=3 c=64 v=127
718220 On ch=3 n=e3 v=0
718220 On ch=3 n=e4 v=64
718220 On ch=3 n=b3 v=64
719294 On ch=3 n=b3 v=0
719294 On ch=3 n=e4 v=0
719294 On ch=3 n=b4 v=67
719294 On ch=3 n=e4 v=67
719806 Par ch=3 c=64 v=0
720320 On ch=3 n=e4 v=0
720320 On ch=3 n=b4 v=0
720320 On ch=3 n=e3 v=74
727282 On ch=3 n=e3 v=0
745626 On ch=3 n=b2 v=73
745632 Par ch=3 c=64 v=127
746738 On ch=3 n=b2 v=0
746738 On ch=3 n=f#4 v=64
746738 On ch=3 n=b3 v=64
747822 On ch=3 n=b3 v=0
747822 On ch=3 n=f#4 v=0
747822 On ch=3 n=b4 v=74
747822 On ch=3 n=f#4 v=74
748808 On ch=3 n=f#4 v=0
748808 On ch=3 n=b4 v=0
748808 On ch=3 n=f#5 v=83
748808 On ch=3 n=b4 v=83
749836 On ch=3 n=b4 v=0
749836 On ch=3 n=f#5 v=0
749836 On ch=3 n=b4 v=73
749836 On ch=3 n=f#4 v=73
750914 On ch=3 n=f#4 v=0
750914 On ch=3 n=b4 v=0
750914 On ch=3 n=f#4 v=77
750914 On ch=3 n=b3 v=77
751914 Par ch=3 c=64 v=0
751918 On ch=3 n=b3 v=0
751918 On ch=3 n=f#4 v=0
751918 On ch=3 n=b2 v=80
751922 Par ch=3 c=64 v=127
752946 On ch=3 n=b2 v=0
752946 On ch=3 n=f#4 v=71
752946 On ch=3 n=b3 v=71
753982 On ch=3 n=b3 v=0
753982 On ch=3 n=f#4 v=0
753982 On ch=3 n=b4 v=66
753982 On ch=3 n=f#4 v=66
755028 On ch=3 n=f#4 v=0
755028 On ch=3 n=b4 v=0
755028 On ch=3 n=f#5 v=71
755028 On ch=3 n=b4 v=71
756066 On ch=3 n=b4 v=0
756066 On ch=3 n=f#5 v=0
756066 On ch=3 n=b4 v=70
756066 On ch=3 n=f#4 v=70
757094 Par ch=3 c=64 v=0
757098 On ch=3 n=f#4 v=0
757098 On ch=3 n=b4 v=0
757098 On ch=3 n=f#4 v=69
757098 On ch=3 n=b3 v=69
758090 On ch=3 n=b3 v=0
758090 On ch=3 n=f#4 v=0
758090 On ch=3 n=b3 v=73
758090 On ch=3 n=b2 v=73
758094 Par ch=3 c=64 v=127
759134 On ch=3 n=b2 v=0
759134 On ch=3 n=b3 v=0
759134 On ch=3 n=e5 v=64
759134 On ch=3 n=f#4 v=64
760178 On ch=3 n=f#4 v=0
760178 On ch=3 n=e5 v=0
760178 On ch=3 n=a#5 v=69
760178 On ch=3 n=e5 v=69
760684 Par ch=3 c=64 v=0
761174 On ch=3 n=e5 v=0
761174 On ch=3 n=a#5 v=0
761174 On ch=3 n=b3 v=70
761174 On ch=3 n=b2 v=70
761178 Par ch=3 c=64 v=127
762270 On ch=3 n=b2 v=0
762270 On ch=3 n=b3 v=0
762270 On ch=3 n=e5 v=64
762270 On ch=3 n=f#4 v=64
763368 On ch=3 n=f#4 v=0
763368 On ch=3 n=e5 v=0
763368 On ch=3 n=a#5 v=66
763368 On ch=3 n=e5 v=66
763862 Par ch=3 c=64 v=0
764368 On ch=3 n=e5 v=0
764368 On ch=3 n=a#5 v=0
764368 On ch=3 n=b3 v=66
764372 Par ch=3 c=64 v=127
765398 On ch=3 n=b3 v=0
765398 On ch=3 n=e5 v=69
765398 On ch=3 n=f#4 v=69
766462 On ch=3 n=f#4 v=0
766462 On ch=3 n=e5 v=0
766462 On ch=3 n=a#5 v=66
766462 On ch=3 n=e5 v=66
766986 Par ch=3 c=64 v=0
767462 On ch=3 n=e5 v=0
767462 On ch=3 n=a#5 v=0
767462 On ch=3 n=b3 v=73
767466 Par ch=3 c=64 v=127
768430 On ch=3 n=b3 v=0
768430 On ch=3 n=d#5 v=70
768430 On ch=3 n=f#4 v=70
769582 On ch=3 n=f#4 v=0
769582 On ch=3 n=d#5 v=0
769582 On ch=3 n=b5 v=63
769582 On ch=3 n=d#5 v=63
770092 Par ch=3 c=64 v=0
770590 On ch=3 n=d#5 v=0
770590 On ch=3 n=b5 v=0
770590 On ch=3 n=b2 v=67
770594 Par ch=3 c=64 v=127
771606 On ch=3 n=b2 v=0
771606 On ch=3 n=e5 v=61
771606 On ch=3 n=c#5 v=61
771606 On ch=3 n=f#4 v=61
772712 On ch=3 n=f#4 v=0
772712 On ch=3 n=c#5 v=0
772712 On ch=3 n=e5 v=0
772712 On ch=3 n=a#5 v=61
772712 On ch=3 n=e5 v=61
773228 Par ch=3 c=64 v=0
773710 On ch=3 n=e5 v=0
773710 On ch=3 n=a#5 v=0
773710 On ch=3 n=b3 v=70
773714 Par ch=3 c=64 v=127
774754 On ch=3 n=b3 v=0
774754 On ch=3 n=d#5 v=66
774754 On ch=3 n=b4 v=66
774754 On ch=3 n=f#4 v=66
775792 On ch=3 n=f#4 v=0
775792 On ch=3 n=b4 v=0
775792 On ch=3 n=d#5 v=0
775792 On ch=3 n=b5 v=66
775792 On ch=3 n=d#5 v=66
776288 Par ch=3 c=64 v=0
776800 On ch=3 n=d#5 v=0
776800 On ch=3 n=b5 v=0
776800 On ch=3 n=b2 v=64
776804 Par ch=3 c=64 v=127
777878 On ch=3 n=b2 v=0
777878 On ch=3 n=a#4 v=55
777878 On ch=3 n=f#4 v=55
778964 On ch=3 n=f#4 v=0
778964 On ch=3 n=a#4 v=0
778964 On ch=3 n=e5 v=59
778964 On ch=3 n=a#4 v=59
779460 Par ch=3 c=64 v=0
779970 On ch=3 n=a#4 v=0
779970 On ch=3 n=e5 v=0
779970 On ch=3 n=b2 v=64
779974 Par ch=3 c=64 v=127
781032 On ch=3 n=b2 v=0
781032 On ch=3 n=f#4 v=60
781032 On ch=3 n=b3 v=60
782086 On ch=3 n=b3 v=0
782086 On ch=3 n=f#4 v=0
782086 On ch=3 n=b4 v=64
782086 On ch=3 n=f#4 v=64
782620 Par ch=3 c=64 v=0
783120 Par ch=3 c=64 v=0
783124 On ch=3 n=f#4 v=0
783124 On ch=3 n=b4 v=0
783124 On ch=3 n=b2 v=61
783128 Par ch=3 c=64 v=127
784154 On ch=3 n=b2 v=0
814332 On ch=3 n=f#3 v=57
814336 Par ch=3 c=64 v=127
815330 On ch=3 n=f#3 v=0
815330 On ch=3 n=e5 v=62
815330 On ch=3 n=c#5 v=62
815330 On ch=3 n=f#4 v=62
816340 Par ch=3 c=64 v=0
816344 On ch=3 n=f#4 v=0
816344 On ch=3 n=c#5 v=0
816344 On ch=3 n=e5 v=0
817412 On ch=3 n=b3 v=66
817412 On ch=3 n=b2 v=66
817416 Par ch=3 c=64 v=127
818426 On ch=3 n=b2 v=0
818426 On ch=3 n=b3 v=0
818426 On ch=3 n=d#5 v=63
818426 On ch=3 n=a4 v=63
819490 On ch=3 n=a4 v=0
819490 On ch=3 n=d#5 v=0
821468 Par ch=3 c=64 v=0
826660 On ch=3 n=c#4 v=63
826664 Par ch=3 c=64 v=127
827710 On ch=3 n=c#4 v=0
827710 On ch=3 n=g#5 v=62
827710 On ch=3 n=c#5 v=62
827710 On ch=3 n=g#4 v=62
828746 Par ch=3 c=64 v=0
828750 On ch=3 n=g#4 v=0
828750 On ch=3 n=c#5 v=0
828750 On ch=3 n=g#5 v=0
829806 On ch=3 n=f#3 v=61
829810 Par ch=3 c=64 v=127
830816 On ch=3 n=f#3 v=0
830816 On ch=3 n=e5 v=64
830816 On ch=3 n=c#5 v=64
830816 On ch=3 n=f#4 v=64
831826 On ch=3 n=f#4 v=0
831826 On ch=3 n=c#5 v=0
831826 On ch=3 n=e5 v=0
831826 On ch=3 n=g#4 v=64
831826 On ch=3 n=e4 v=64
832828 Par ch=3 c=64 v=0
832832 On ch=3 n=e4 v=0
832832 On ch=3 n=g#4 v=0
839944 On ch=3 n=f#4 v=64
839944 On ch=3 n=f#3 v=64
840988 On ch=3 n=f#3 v=0
840988 On ch=3 n=f#4 v=0
840988 On ch=3 n=f#4 v=64
840988 On ch=3 n=b3 v=64
842072 On ch=3 n=b3 v=0
842072 On ch=3 n=f#4 v=0
843070 On ch=3 n=f#4 v=62
843070 On ch=3 n=f#3 v=62
844112 On ch=3 n=f#3 v=0
844112 On ch=3 n=f#4 v=0
844112 On ch=3 n=f#4 v=60
844112 On ch=3 n=b3 v=60
845182 On ch=3 n=b3 v=0
845182 On ch=3 n=f#4 v=0
846228 On ch=3 n=f#4 v=61
846228 On ch=3 n=f#3 v=61
847284 On ch=3 n=f#3 v=0
847284 On ch=3 n=f#4 v=0
847284 On ch=3 n=f#4 v=56
847284 On ch=3 n=b3 v=56
848326 On ch=3 n=b3 v=0
848326 On ch=3 n=f#4 v=0
849332 On ch=3 n=e4 v=64
849332 On ch=3 n=a4 v=64
849332 On ch=3 n=c#5 v=64
849332 On ch=3 n=c#3 v=64
850368 On ch=3 n=c#3 v=0
850368 On ch=3 n=c#5 v=0
850368 On ch=3 n=a4 v=0
850368 On ch=3 n=e4 v=0
850368 On ch=3 n=b4 v=64
850368 On ch=3 n=a4 v=64
850368 On ch=3 n=f#4 v=64
850368 On ch=3 n=d#3 v=64
851396 On ch=3 n=d#3 v=0
851396 On ch=3 n=f#4 v=0
851396 On ch=3 n=a4 v=0
851396 On ch=3 n=b4 v=0
851396 On ch=3 n=e3 v=66
851400 Par ch=3 c=64 v=127
852436 On ch=3 n=e3 v=0
853466 On ch=3 n=b4 v=73
855430 On ch=3 n=b3 v=78
856502 On ch=3 n=b4 v=0
856502 On ch=3 n=c#5 v=69
857064 Par ch=3 c=64 v=0
857584 On ch=3 n=c#5 v=0
857584 On ch=3 n=b2 v=62
857588 Par ch=3 c=64 v=127
858586 On ch=3 n=b2 v=0
858586 On ch=3 n=b3 v=0
858586 On ch=3 n=d#5 v=60
858586 On ch=3 n=a4 v=60
858586 On ch=3 n=f#4 v=60
859604 On ch=3 n=f#4 v=0
859604 On ch=3 n=a4 v=0
859604 On ch=3 n=d#5 v=0
860090 Par ch=3 c=64 v=0
860570 On ch=3 n=e3 v=69
860574 Par ch=3 c=64 v=127
861574 On ch=3 n=e3 v=0
861574 On ch=3 n=e5 v=77
861574 On ch=3 n=g#4 v=77
862716 On ch=3 n=g#4 v=0
862716 On ch=3 n=e5 v=0
862716 On ch=3 n=b3 v=60
863270 Par ch=3 c=64 v=0
863826 On ch=3 n=b2 v=58
863830 Par ch=3 c=64 v=127
864868 On ch=3 n=b2 v=0
864868 On ch=3 n=b3 v=0
864868 On ch=3 n=d#5 v=60
864868 On ch=3 n=a4 v=60
865948 On ch=3 n=a4 v=0
865948 On ch=3 n=d#5 v=0
866452 Par ch=3 c=64 v=0
954542 On ch=3 n=f#3 v=104
954542 On ch=3 n=f#2 v=104
954548 Par ch=3 c=64 v=127
955232 On ch=3 n=f#2 v=0
955232 On ch=3 n=f#3 v=0
955232 On ch=3 n=c#5 v=95
955232 On ch=3 n=a4 v=95
955232 On ch=3 n=f#4 v=95
955232 On ch=3 n=c#4 v=95
955532 On ch=3 n=c#4 v=0
955532 On ch=3 n=f#4 v=0
955532 On ch=3 n=a4 v=0
955532 On ch=3 n=c#5 v=0
955532 On ch=3 n=c#5 v=95
955532 On ch=3 n=a4 v=95
955532 On ch=3 n=f#4 v=95
955532 On ch=3 n=c#4 v=95
955808 Par ch=3 c=64 v=0
955812 On ch=3 n=c#4 v=0
955812 On ch=3 n=f#4 v=0
955812 On ch=3 n=a4 v=0
955812 On ch=3 n=c#5 v=0
955812 On ch=3 n=a4 v=94
955812 On ch=3 n=f#4 v=94
955812 On ch=3 n=a3 v=94
956508 On ch=3 n=a3 v=0
956508 On ch=3 n=f#4 v=0
956508 On ch=3 n=a4 v=0
956508 On ch=3 n=b4 v=108
956508 On ch=3 n=f#4 v=108
956508 On ch=3 n=b3 v=108
957092 On ch=3 n=b3 v=0
957092 On ch=3 n=f#4 v=0
957092 On ch=3 n=b4 v=0
957092 On ch=3 n=b4 v=103
957092 On ch=3 n=f4 v=103
957092 On ch=3 n=c#4 v=103
957096 Par ch=3 c=64 v=127
957778 On ch=3 n=c#4 v=0
957778 On ch=3 n=f4 v=0
957778 On ch=3 n=b4 v=0
957778 On ch=3 n=c#4 v=106
957778 On ch=3 n=c#3 v=106
958336 Par ch=3 c=64 v=0
958340 On ch=3 n=c#3 v=0
958340 On ch=3 n=c#4 v=0
958340 On ch=3 n=f#3 v=106
958340 On ch=3 n=f#2 v=106
958344 Par ch=3 c=64 v=127
958976 On ch=3 n=f#2 v=0
958976 On ch=3 n=f#3 v=0
958976 On ch=3 n=c#5 v=98
958976 On ch=3 n=a4 v=98
958976 On ch=3 n=f#4 v=98
958976 On ch=3 n=c#4 v=98
959304 On ch=3 n=c#4 v=0
959304 On ch=3 n=f#4 v=0
959304 On ch=3 n=a4 v=0
959304 On ch=3 n=c#5 v=0
959304 On ch=3 n=c#5 v=95
959304 On ch=3 n=a4 v=95
959304 On ch=3 n=f#4 v=95
959304 On ch=3 n=c#4 v=95
959572 Par ch=3 c=64 v=0
959576 On ch=3 n=c#4 v=0
959576 On ch=3 n=f#4 v=0
959576 On ch=3 n=a4 v=0
959576 On ch=3 n=c#5 v=0
959576 On ch=3 n=c#5 v=95
959576 On ch=3 n=a4 v=95
959576 On ch=3 n=f#4 v=95
959576 On ch=3 n=c#4 v=95
960218 On ch=3 n=c#4 v=0
960218 On ch=3 n=f#4 v=0
960218 On ch=3 n=a4 v=0
960218 On ch=3 n=c#5 v=0
960218 On ch=3 n=d5 v=98
960218 On ch=3 n=b4 v=98
960218 On ch=3 n=f#4 v=98
960218 On ch=3 n=d4 v=98
960776 On ch=3 n=d4 v=0
960776 On ch=3 n=f#4 v=0
960776 On ch=3 n=b4 v=0
960776 On ch=3 n=d5 v=0
960776 On ch=3 n=b4 v=98
960776 On ch=3 n=f#4 v=98
960776 On ch=3 n=d4 v=98
960776 On ch=3 n=b3 v=98
960780 Par ch=3 c=64 v=127
961444 On ch=3 n=b3 v=0
961444 On ch=3 n=d4 v=0
961444 On ch=3 n=f#4 v=0
961444 On ch=3 n=b4 v=0
961444 On ch=3 n=b3 v=103
961444 On ch=3 n=b2 v=103
961996 Par ch=3 c=64 v=0
962000 On ch=3 n=b2 v=0
962000 On ch=3 n=b3 v=0
962000 On ch=3 n=f#3 v=106
962000 On ch=3 n=f#2 v=106
962004 Par ch=3 c=64 v=127
962710 On ch=3 n=f#2 v=0
962710 On ch=3 n=f#3 v=0
962710 On ch=3 n=c#5 v=98
962710 On ch=3 n=a4 v=98
962710 On ch=3 n=f#4 v=98
962710 On ch=3 n=c#4 v=98
963024 On ch=3 n=c#4 v=0
963024 On ch=3 n=f#4 v=0
963024 On ch=3 n=a4 v=0
963024 On ch=3 n=c#5 v=0
963024 On ch=3 n=c#5 v=96
963024 On ch=3 n=a4 v=96
963024 On ch=3 n=f#4 v=96
963024 On ch=3 n=c#4 v=96
963310 Par ch=3 c=64 v=0
963314 On ch=3 n=c#4 v=0
963314 On ch=3 n=f#4 v=0
963314 On ch=3 n=a4 v=0
963314 On ch=3 n=c#5 v=0
963314 On ch=3 n=c#5 v=95
963314 On ch=3 n=a4 v=95
963314 On ch=3 n=f#4 v=95
963314 On ch=3 n=c#4 v=95
963948 On ch=3 n=c#4 v=0
963948 On ch=3 n=f#4 v=0
963948 On ch=3 n=a4 v=0
963948 On ch=3 n=c#5 v=0
963948 On ch=3 n=b4 v=101
963948 On ch=3 n=g#4 v=101
963948 On ch=3 n=f#4 v=101
963948 On ch=3 n=b3 v=101
964526 On ch=3 n=b3 v=0
964526 On ch=3 n=f#4 v=0
964526 On ch=3 n=g#4 v=0
964526 On ch=3 n=b4 v=0
964526 On ch=3 n=d5 v=105
964526 On ch=3 n=b4 v=105
964526 On ch=3 n=g#4 v=105
964526 On ch=3 n=d4 v=105
964530 Par ch=3 c=64 v=127
965204 On ch=3 n=d4 v=0
965204 On ch=3 n=g#4 v=0
965204 On ch=3 n=b4 v=0
965204 On ch=3 n=d5 v=0
965204 On ch=3 n=b3 v=106
965204 On ch=3 n=b2 v=106
965766 Par ch=3 c=64 v=0
965770 On ch=3 n=b2 v=0
965770 On ch=3 n=b3 v=0
965770 On ch=3 n=f#2 v=106
965770 On ch=3 n=f#3 v=106
965774 Par ch=3 c=64 v=127
966452 On ch=3 n=f#3 v=0
966452 On ch=3 n=f#2 v=0
966452 On ch=3 n=c#5 v=100
966452 On ch=3 n=a4 v=100
966452 On ch=3 n=f#4 v=100
966452 On ch=3 n=c#4 v=100
966742 On ch=3 n=c#4 v=0
966742 On ch=3 n=f#4 v=0
966742 On ch=3 n=a4 v=0
966742 On ch=3 n=c#5 v=0
966742 On ch=3 n=c#5 v=96
966742 On ch=3 n=a4 v=96
966742 On ch=3 n=f#4 v=96
966742 On ch=3 n=c#4 v=96
967010 Par ch=3 c=64 v=0
967014 On ch=3 n=c#4 v=0
967014 On ch=3 n=f#4 v=0
967014 On ch=3 n=a4 v=0
967014 On ch=3 n=c#5 v=0
967014 On ch=3 n=c#5 v=101
967014 On ch=3 n=a4 v=101
967014 On ch=3 n=f#4 v=101
967014 On ch=3 n=c#4 v=101
967664 On ch=3 n=c#4 v=0
967664 On ch=3 n=f#4 v=0
967664 On ch=3 n=a4 v=0
967664 On ch=3 n=c#5 v=0
967664 On ch=3 n=b4 v=107
967664 On ch=3 n=g#4 v=107
967664 On ch=3 n=f#4 v=107
967664 On ch=3 n=b3 v=107
968238 On ch=3 n=b3 v=0
968238 On ch=3 n=f#4 v=0
968238 On ch=3 n=g#4 v=0
968238 On ch=3 n=b4 v=0
968238 On ch=3 n=f#5 v=112
968238 On ch=3 n=d5 v=112
968238 On ch=3 n=b4 v=112
968238 On ch=3 n=f#4 v=112
968242 Par ch=3 c=64 v=127
968920 On ch=3 n=f#4 v=0
968920 On ch=3 n=b4 v=0
968920 On ch=3 n=d5 v=0
968920 On ch=3 n=f#5 v=0
968920 On ch=3 n=b3 v=114
968920 On ch=3 n=b2 v=114
969518 Par ch=3 c=64 v=0
969522 On ch=3 n=b2 v=0
969522 On ch=3 n=b3 v=0
969522 On ch=3 n=f#3 v=112
969522 On ch=3 n=f#2 v=112
969528 Par ch=3 c=64 v=127
970186 On ch=3 n=f#2 v=0
970186 On ch=3 n=f#3 v=0
970186 On ch=3 n=c#5 v=108
970186 On ch=3 n=a4 v=108
970186 On ch=3 n=f#4 v=108
970186 On ch=3 n=c#4 v=108
970754 Par ch=3 c=64 v=0
970758 On ch=3 n=c#4 v=0
970758 On ch=3 n=f#4 v=0
970758 On ch=3 n=a4 v=0
970758 On ch=3 n=c#5 v=0
970758 On ch=3 n=c4 v=103
970758 On ch=3 n=a#2 v=103
970762 Par ch=3 c=64 v=127
971488 On ch=3 n=a#2 v=0
971488 On ch=3 n=c4 v=0
971488 On ch=3 n=d5 v=98
971488 On ch=3 n=a#4 v=98
971488 On ch=3 n=f#4 v=98
971792 On ch=3 n=f#4 v=0
971792 On ch=3 n=a#4 v=0
971792 On ch=3 n=d5 v=0
971792 On ch=3 n=d5 v=89
971792 On ch=3 n=a#4 v=89
971792 On ch=3 n=f#4 v=89
972092 On ch=3 n=f#4 v=0
972092 On ch=3 n=a#4 v=0
972092 On ch=3 n=d5 v=0
972092 On ch=3 n=d5 v=92
972092 On ch=3 n=a#4 v=92
972092 On ch=3 n=f#4 v=92
972724 Par ch=3 c=64 v=0
972728 On ch=3 n=f#4 v=0
972728 On ch=3 n=a#4 v=0
972728 On ch=3 n=d5 v=0
972728 On ch=3 n=c#4 v=107
972728 On ch=3 n=c#3 v=107
973032 On ch=3 n=c#3 v=0
973032 On ch=3 n=c#4 v=0
973032 On ch=3 n=d4 v=106
973032 On ch=3 n=d3 v=106
973312 On ch=3 n=d3 v=0
973312 On ch=3 n=d4 v=0
973312 On ch=3 n=c#4 v=104
973312 On ch=3 n=c#3 v=104
973316 Par ch=3 c=64 v=127
973902 On ch=3 n=c#3 v=0
973902 On ch=3 n=c#4 v=0
973902 On ch=3 n=c#5 v=103
973902 On ch=3 n=a4 v=103
973902 On ch=3 n=f#4 v=103
973902 On ch=3 n=c#4 v=103
974488 Par ch=3 c=64 v=0
974492 On ch=3 n=c#4 v=0
974492 On ch=3 n=f#4 v=0
974492 On ch=3 n=a4 v=0
974492 On ch=3 n=c#5 v=0
974492 On ch=3 n=f#3 v=107
974492 On ch=3 n=f#2 v=107
974496 Par ch=3 c=64 v=127
975234 On ch=3 n=f#2 v=0
975234 On ch=3 n=f#3 v=0
975234 On ch=3 n=d#5 v=106
975234 On ch=3 n=c#5 v=106
975234 On ch=3 n=f#4 v=106
975572 On ch=3 n=f#4 v=0
975572 On ch=3 n=c#5 v=0
975572 On ch=3 n=d#5 v=0
975572 On ch=3 n=d#5 v=98
975572 On ch=3 n=c#5 v=98
975572 On ch=3 n=f#4 v=98
975878 On ch=3 n=f#4 v=0
975878 On ch=3 n=c#5 v=0
975878 On ch=3 n=d#5 v=0
975878 On ch=3 n=d#5 v=94
975878 On ch=3 n=c#5 v=94
975878 On ch=3 n=f#4 v=94
976510 Par ch=3 c=64 v=0
976514 On ch=3 n=f#4 v=0
976514 On ch=3 n=c#5 v=0
976514 On ch=3 n=d#5 v=0
976514 On ch=3 n=g#3 v=95
976514 On ch=3 n=g#2 v=95
976824 On ch=3 n=g#2 v=0
976824 On ch=3 n=g#3 v=0
976824 On ch=3 n=a3 v=99
976824 On ch=3 n=a2 v=99
977130 On ch=3 n=a2 v=0
977130 On ch=3 n=a3 v=0
977130 On ch=3 n=g#3 v=101
977130 On ch=3 n=g#2 v=101
977136 Par ch=3 c=64 v=127
977766 On ch=3 n=g#2 v=0
977766 On ch=3 n=e5 v=98
977766 On ch=3 n=c#5 v=98
977766 On ch=3 n=g#4 v=98
977766 On ch=3 n=e4 v=98
978076 On ch=3 n=e4 v=0
978076 On ch=3 n=g#4 v=0
978076 On ch=3 n=c#5 v=0
978076 On ch=3 n=e5 v=0
978076 On ch=3 n=e5 v=101
978076 On ch=3 n=c#5 v=101
978076 On ch=3 n=g#4 v=101
978076 On ch=3 n=e4 v=101
978402 On ch=3 n=e4 v=0
978402 On ch=3 n=g#4 v=0
978402 On ch=3 n=c#5 v=0
978402 On ch=3 n=e5 v=0
978402 On ch=3 n=g#3 v=0
978402 On ch=3 n=e5 v=104
978402 On ch=3 n=c#5 v=104
978402 On ch=3 n=g#4 v=104
978402 On ch=3 n=e4 v=104
979022 On ch=3 n=e4 v=0
979022 On ch=3 n=g#4 v=0
979022 On ch=3 n=c#5 v=0
979022 On ch=3 n=e5 v=0
979022 On ch=3 n=e5 v=101
979022 On ch=3 n=c#5 v=101
979022 On ch=3 n=g#4 v=101
979022 On ch=3 n=e4 v=101
979624 Par ch=3 c=64 v=0
979628 On ch=3 n=e4 v=0
979628 On ch=3 n=g#4 v=0
979628 On ch=3 n=c#5 v=0
979628 On ch=3 n=e5 v=0
979628 On ch=3 n=g#3 v=96
979628 On ch=3 n=g#2 v=96
979634 Par ch=3 c=64 v=127
980246 On ch=3 n=g#2 v=0
980246 On ch=3 n=g#3 v=0
980246 On ch=3 n=c5 v=94
980246 On ch=3 n=g#4 v=94
980246 On ch=3 n=f#4 v=94
980246 On ch=3 n=d#4 v=94
980878 Par ch=3 c=64 v=0
980882 On ch=3 n=d#4 v=0
980882 On ch=3 n=f#4 v=0
980882 On ch=3 n=g#4 v=0
980882 On ch=3 n=c5 v=0
987138 On ch=3 n=c#5 v=82
987138 On ch=3 n=b4 v=82
987138 On ch=3 n=f4 v=82
987750 On ch=3 n=f4 v=0
987750 On ch=3 n=b4 v=0
987750 On ch=3 n=c#5 v=0
987750 On ch=3 n=c#5 v=83
987750 On ch=3 n=b4 v=83
988372 On ch=3 n=b4 v=0
988372 On ch=3 n=c#5 v=0
988372 On ch=3 n=a4 v=79
988986 On ch=3 n=a4 v=0
988986 On ch=3 n=a4 v=80
989296 On ch=3 n=a4 v=0
989296 On ch=3 n=a4 v=78
989606 On ch=3 n=a4 v=0
989606 On ch=3 n=b4 v=77
989606 On ch=3 n=f4 v=77
990246 On ch=3 n=f4 v=0
990246 On ch=3 n=b4 v=0
990246 On ch=3 n=b4 v=78
990246 On ch=3 n=f4 v=78
990902 On ch=3 n=f4 v=0
990902 On ch=3 n=b4 v=0
990902 On ch=3 n=b4 v=78
990902 On ch=3 n=f4 v=78
991550 On ch=3 n=f4 v=0
991550 On ch=3 n=b4 v=0
991550 On ch=3 n=b4 v=78
991550 On ch=3 n=f4 v=78
992198 On ch=3 n=f4 v=0
992198 On ch=3 n=b4 v=0
1023936 On ch=3 n=a#4 v=94
1023936 On ch=3 n=c#4 v=94
1024246 On ch=3 n=c#4 v=0
1024246 On ch=3 n=a#4 v=0
1024246 On ch=3 n=a#4 v=90
1024246 On ch=3 n=c#4 v=90
1024546 On ch=3 n=c#4 v=0
1024546 On ch=3 n=a#4 v=0
1024546 On ch=3 n=a#4 v=88
1024546 On ch=3 n=c#4 v=88
1025224 On ch=3 n=c#4 v=0
1025224 On ch=3 n=a#4 v=0
1025224 On ch=3 n=f4 v=117
1025224 On ch=3 n=c#4 v=117
1025224 On ch=3 n=a#4 v=117
1025986 On ch=3 n=a#4 v=0
1025986 On ch=3 n=c#4 v=0
1025986 On ch=3 n=f4 v=0
1025986 On ch=3 n=c5 v=120
1025986 On ch=3 n=f4 v=120
1025986 On ch=3 n=c4 v=120
1026594 On ch=3 n=c4 v=0
1026594 On ch=3 n=f4 v=0
1026594 On ch=3 n=c5 v=0
1026594 On ch=3 n=f4 v=113
1026594 On ch=3 n=d#4 v=113
1027212 On ch=3 n=d#4 v=0
1027212 On ch=3 n=f4 v=0
1027212 On ch=3 n=f4 v=113
1027212 On ch=3 n=f3 v=113
1027218 Par ch=3 c=64 v=127
1027782 On ch=3 n=f3 v=0
1027782 On ch=3 n=f4 v=0
1027782 On ch=3 n=c#5 v=109
1027782 On ch=3 n=a#4 v=109
1027782 On ch=3 n=f4 v=109
1028070 On ch=3 n=f4 v=0
1028070 On ch=3 n=a#4 v=0
1028070 On ch=3 n=c#5 v=0
1028070 On ch=3 n=c#5 v=104
1028070 On ch=3 n=a#4 v=104
1028070 On ch=3 n=f4 v=104
1028376 On ch=3 n=f4 v=0
1028376 On ch=3 n=a#4 v=0
1028376 On ch=3 n=c#5 v=0
1028376 On ch=3 n=f5 v=106
1028376 On ch=3 n=c#5 v=106
1028376 On ch=3 n=a#4 v=106
1028376 On ch=3 n=f4 v=106
1028990 On ch=3 n=f4 v=0
1028990 On ch=3 n=a#4 v=0
1028990 On ch=3 n=c#5 v=0
1028990 On ch=3 n=f5 v=0
1028990 On ch=3 n=f5 v=109
1028990 On ch=3 n=c#5 v=109
1028990 On ch=3 n=a#4 v=109
1028990 On ch=3 n=f4 v=109
1029604 Par ch=3 c=64 v=0
1029608 On ch=3 n=f4 v=0
1029608 On ch=3 n=a#4 v=0
1029608 On ch=3 n=c#5 v=0
1029608 On ch=3 n=f5 v=0
1029608 On ch=3 n=f5 v=113
1029608 On ch=3 n=d#5 v=113
1029608 On ch=3 n=c5 v=113
1029608 On ch=3 n=f4 v=113
1030220 On ch=3 n=f4 v=0
1030220 On ch=3 n=c5 v=0
1030220 On ch=3 n=d#5 v=0
1030220 On ch=3 n=f5 v=0
1030220 On ch=3 n=f5 v=109
1030220 On ch=3 n=d#5 v=109
1030220 On ch=3 n=c5 v=109
1030220 On ch=3 n=f4 v=109
1030836 On ch=3 n=f4 v=0
1030836 On ch=3 n=c5 v=0
1030836 On ch=3 n=d#5 v=0
1030836 On ch=3 n=f5 v=0
1030836 On ch=3 n=f4 v=119
1030836 On ch=3 n=f3 v=119
1030842 Par ch=3 c=64 v=127
1031488 On ch=3 n=f3 v=0
1031488 On ch=3 n=f4 v=0
1031488 On ch=3 n=f5 v=110
1031488 On ch=3 n=c#5 v=110
1031488 On ch=3 n=a#4 v=110
1031488 On ch=3 n=f4 v=110
1031830 On ch=3 n=f4 v=0
1031830 On ch=3 n=a#4 v=0
1031830 On ch=3 n=c#5 v=0
1031830 On ch=3 n=f5 v=0
1031830 On ch=3 n=f5 v=109
1031830 On ch=3 n=c#5 v=109
1031830 On ch=3 n=a#4 v=109
1031830 On ch=3 n=f4 v=109
1032104 On ch=3 n=f4 v=0
1032104 On ch=3 n=a#4 v=0
1032104 On ch=3 n=c#5 v=0
1032104 On ch=3 n=f5 v=0
1032104 On ch=3 n=f5 v=117
1032104 On ch=3 n=c#5 v=117
1032104 On ch=3 n=a#4 v=117
1032104 On ch=3 n=f4 v=117
1032806 On ch=3 n=f4 v=0
1032806 On ch=3 n=a#4 v=0
1032806 On ch=3 n=c#5 v=0
1032806 On ch=3 n=f5 v=0
1032806 On ch=3 n=f5 v=110
1032806 On ch=3 n=f4 v=110
1033464 Par ch=3 c=64 v=0
1033468 On ch=3 n=f4 v=0
1033468 On ch=3 n=f5 v=0
1033468 On ch=3 n=f5 v=117
1033468 On ch=3 n=d#5 v=117
1033468 On ch=3 n=a4 v=117
1033468 On ch=3 n=f4 v=117
1034140 On ch=3 n=f4 v=0
1034140 On ch=3 n=a4 v=0
1034140 On ch=3 n=d#5 v=0
1034140 On ch=3 n=f5 v=0
1034140 On ch=3 n=f5 v=106
1034140 On ch=3 n=f4 v=106
1034780 On ch=3 n=f4 v=0
1034780 On ch=3 n=f5 v=0
1034780 On ch=3 n=a#3 v=110
1034780 On ch=3 n=a#2 v=110
1034786 Par ch=3 c=64 v=127
1035424 On ch=3 n=a#2 v=0
1035424 On ch=3 n=a#3 v=0
1035424 On ch=3 n=c#5 v=98
1035424 On ch=3 n=a#4 v=98
1035756 On ch=3 n=a#4 v=0
1035756 On ch=3 n=c#5 v=0
1035756 On ch=3 n=c#5 v=95
1035756 On ch=3 n=a#4 v=95
1036042 On ch=3 n=a#4 v=0
1036042 On ch=3 n=c#5 v=0
1036042 On ch=3 n=c#5 v=91
1036042 On ch=3 n=a#4 v=91
1036642 On ch=3 n=a#4 v=0
1036642 On ch=3 n=c#5 v=0
1036642 On ch=3 n=c#5 v=91
1036642 On ch=3 n=a#4 v=91
1037272 Par ch=3 c=64 v=0
1037276 On ch=3 n=a#4 v=0
1037276 On ch=3 n=c#5 v=0
1037276 On ch=3 n=c#5 v=109
1037276 On ch=3 n=a#4 v=109
1037276 On ch=3 n=d#4 v=109
1037282 Par ch=3 c=64 v=127
1037870 On ch=3 n=d#4 v=0
1037870 On ch=3 n=a#4 v=0
1037870 On ch=3 n=c#5 v=0
1037870 On ch=3 n=d#4 v=100
1037870 On ch=3 n=d#3 v=100
1038526 Par ch=3 c=64 v=0
1038530 On ch=3 n=d#3 v=0
1038530 On ch=3 n=d#4 v=0
1038530 On ch=3 n=g#3 v=121
1038530 On ch=3 n=g#2 v=121
1038536 Par ch=3 c=64 v=127
1039280 On ch=3 n=g#2 v=0
1039280 On ch=3 n=g#3 v=0
1039280 On ch=3 n=c5 v=95
1039280 On ch=3 n=g#4 v=95
1039588 On ch=3 n=g#4 v=0
1039588 On ch=3 n=c5 v=0
1039588 On ch=3 n=c5 v=90
1039588 On ch=3 n=g#4 v=90
1039872 On ch=3 n=g#4 v=0
1039872 On ch=3 n=c5 v=0
1039872 On ch=3 n=c5 v=89
1039872 On ch=3 n=g#4 v=89
1040584 On ch=3 n=g#4 v=0
1040584 On ch=3 n=c5 v=0
1040584 On ch=3 n=c5 v=110
1040584 On ch=3 n=g#4 v=110
1041252 Par ch=3 c=64 v=0
1041256 On ch=3 n=g#4 v=0
1041256 On ch=3 n=c5 v=0
1041256 On ch=3 n=c#5 v=110
1041256 On ch=3 n=a#4 v=110
1041256 On ch=3 n=d#4 v=110
1041262 Par ch=3 c=64 v=127
1041780 On ch=3 n=d#4 v=0
1041780 On ch=3 n=a#4 v=0
1041780 On ch=3 n=c#5 v=0
1041780 On ch=3 n=d#4 v=102
1041780 On ch=3 n=d#3 v=102
1042362 Par ch=3 c=64 v=0
1042366 On ch=3 n=d#3 v=0
1042366 On ch=3 n=d#4 v=0
1042366 On ch=3 n=g#3 v=104
1042366 On ch=3 n=g#2 v=104
1042370 Par ch=3 c=64 v=127
1042932 On ch=3 n=g#2 v=0
1042932 On ch=3 n=g#3 v=0
1042932 On ch=3 n=c5 v=102
1042932 On ch=3 n=g#4 v=102
1042932 On ch=3 n=d#4 v=102
1043226 On ch=3 n=d#4 v=0
1043226 On ch=3 n=g#4 v=0
1043226 On ch=3 n=c5 v=0
1043226 On ch=3 n=c5 v=102
1043226 On ch=3 n=g#4 v=102
1043226 On ch=3 n=d#4 v=102
1043522 On ch=3 n=d#4 v=0
1043522 On ch=3 n=g#4 v=0
1043522 On ch=3 n=c5 v=0
1043522 On ch=3 n=d#5 v=102
1043522 On ch=3 n=c5 v=102
1043522 On ch=3 n=g#4 v=102
1043522 On ch=3 n=d#4 v=102
1044080 On ch=3 n=d#4 v=0
1044080 On ch=3 n=g#4 v=0
1044080 On ch=3 n=c5 v=0
1044080 On ch=3 n=d#5 v=0
1044080 On ch=3 n=d#5 v=102
1044080 On ch=3 n=c5 v=102
1044080 On ch=3 n=g#4 v=102
1044080 On ch=3 n=d#4 v=102
1044604 Par ch=3 c=64 v=0
1044608 On ch=3 n=d#4 v=0
1044608 On ch=3 n=g#4 v=0
1044608 On ch=3 n=c5 v=0
1044608 On ch=3 n=d#5 v=0
1044608 On ch=3 n=d#5 v=105
1044608 On ch=3 n=c#5 v=105
1044608 On ch=3 n=a#4 v=105
1044608 On ch=3 n=d#4 v=105
1045160 On ch=3 n=d#4 v=0
1045160 On ch=3 n=a#4 v=0
1045160 On ch=3 n=c#5 v=0
1045160 On ch=3 n=d#5 v=0
1045160 On ch=3 n=d#5 v=104
1045160 On ch=3 n=d#4 v=104
1045706 On ch=3 n=d#4 v=0
1045706 On ch=3 n=d#5 v=0
1045706 On ch=3 n=g#3 v=102
1045706 On ch=3 n=g#2 v=102
1046364 On ch=3 n=g#2 v=0
1046364 On ch=3 n=g#3 v=0
1046364 On ch=3 n=g#5 v=115
1046364 On ch=3 n=c5 v=115
1046364 On ch=3 n=d#4 v=115
1046664 Par ch=3 c=64 v=127
1046948 On ch=3 n=d#4 v=0
1046948 On ch=3 n=c5 v=0
1046948 On ch=3 n=g#5 v=0
1046948 On ch=3 n=g#5 v=119
1046948 On ch=3 n=c5 v=119
1046948 On ch=3 n=d#4 v=119
1047566 On ch=3 n=d#4 v=0
1047566 On ch=3 n=c5 v=0
1047566 On ch=3 n=g#5 v=0
1047566 On ch=3 n=g#5 v=100
1047566 On ch=3 n=c5 v=100
1047566 On ch=3 n=d#4 v=100
1048174 Par ch=3 c=64 v=0
1048178 On ch=3 n=d#4 v=0
1048178 On ch=3 n=c5 v=0
1048178 On ch=3 n=g#5 v=0
1048178 On ch=3 n=g5 v=120
1048178 On ch=3 n=c#5 v=120
1048178 On ch=3 n=d#4 v=120
1048184 Par ch=3 c=64 v=127
1048764 On ch=3 n=d#4 v=0
1048764 On ch=3 n=c#5 v=0
1048764 On ch=3 n=g5 v=0
1048764 On ch=3 n=g5 v=99
1048764 On ch=3 n=c#5 v=99
1048764 On ch=3 n=d#4 v=99
1049440 Par ch=3 c=64 v=0
1049444 On ch=3 n=d#4 v=0
1049444 On ch=3 n=c#5 v=0
1049444 On ch=3 n=g5 v=0
1049444 On ch=3 n=g#3 v=117
1049444 On ch=3 n=g#2 v=117
1049450 Par ch=3 c=64 v=127
1050096 On ch=3 n=g#2 v=0
1050096 On ch=3 n=g#3 v=0
1050096 On ch=3 n=c5 v=99
1050096 On ch=3 n=g#4 v=99
1050096 On ch=3 n=d#4 v=99
1050414 On ch=3 n=d#4 v=0
1050414 On ch=3 n=g#4 v=0
1050414 On ch=3 n=c5 v=0
1050414 On ch=3 n=c5 v=100
1050414 On ch=3 n=g#4 v=100
1050414 On ch=3 n=d#4 v=100
1050726 On ch=3 n=d#4 v=0
1050726 On ch=3 n=g#4 v=0
1050726 On ch=3 n=c5 v=0
1050726 On ch=3 n=c5 v=99
1050726 On ch=3 n=g#4 v=99
1050726 On ch=3 n=d#4 v=99
1051310 Par ch=3 c=64 v=0
1051314 On ch=3 n=d#4 v=0
1051314 On ch=3 n=g#4 v=0
1051314 On ch=3 n=c5 v=0
1051314 On ch=3 n=b4 v=96
1051314 On ch=3 n=g#4 v=96
1051314 On ch=3 n=d#4 v=96
1051990 On ch=3 n=d#4 v=0
1051990 On ch=3 n=g#4 v=0
1051990 On ch=3 n=b4 v=0
1051990 On ch=3 n=c#4 v=119
1051990 On ch=3 n=c#3 v=119
1051996 Par ch=3 c=64 v=127
1052598 On ch=3 n=c#3 v=0
1052598 On ch=3 n=c#4 v=0
1052598 On ch=3 n=b4 v=102
1052598 On ch=3 n=g#4 v=102
1052598 On ch=3 n=c#4 v=102
1053258 Par ch=3 c=64 v=0
1053262 On ch=3 n=c#4 v=0
1053262 On ch=3 n=g#4 v=0
1053262 On ch=3 n=b4 v=0
1068408 On ch=3 n=f#3 v=117
1068408 On ch=3 n=f#2 v=117
1069074 On ch=3 n=f#2 v=0
1069074 On ch=3 n=f#3 v=0
1069074 On ch=3 n=c#5 v=115
1069074 On ch=3 n=a4 v=115
1069074 On ch=3 n=f#4 v=115
1069074 On ch=3 n=c#4 v=115
1069670 On ch=3 n=c#4 v=0
1069670 On ch=3 n=f#4 v=0
1069670 On ch=3 n=a4 v=0
1069670 On ch=3 n=c#5 v=0
1069670 On ch=3 n=c4 v=121
1069670 On ch=3 n=c3 v=121
1069674 Par ch=3 c=64 v=127
1070400 On ch=3 n=c3 v=0
1070400 On ch=3 n=c4 v=0
1070400 On ch=3 n=d5 v=106
1070400 On ch=3 n=a4 v=106
1070400 On ch=3 n=f#4 v=106
1070696 On ch=3 n=f#4 v=0
1070696 On ch=3 n=a4 v=0
1070696 On ch=3 n=d5 v=0
1070696 On ch=3 n=d5 v=105
1070696 On ch=3 n=a4 v=105
1070696 On ch=3 n=f#4 v=105
1071018 On ch=3 n=f#4 v=0
1071018 On ch=3 n=a4 v=0
1071018 On ch=3 n=d5 v=0
1071018 On ch=3 n=d5 v=105
1071018 On ch=3 n=a4 v=105
1071018 On ch=3 n=f#4 v=105
1071680 Par ch=3 c=64 v=0
1071684 On ch=3 n=f#4 v=0
1071684 On ch=3 n=a4 v=0
1071684 On ch=3 n=d5 v=0
1071684 On ch=3 n=c#4 v=120
1071684 On ch=3 n=c#3 v=120
1071972 On ch=3 n=c#3 v=0
1071972 On ch=3 n=c#4 v=0
1071972 On ch=3 n=d4 v=120
1071972 On ch=3 n=d3 v=120
1072270 On ch=3 n=d3 v=0
1072270 On ch=3 n=d4 v=0
1072270 On ch=3 n=c#4 v=120
1072270 On ch=3 n=c#3 v=120
1072568 On ch=3 n=c#3 v=0
1072568 On ch=3 n=c#4 v=0
1072568 On ch=3 n=d4 v=119
1072568 On ch=3 n=d3 v=119
1072852 On ch=3 n=d3 v=0
1072852 On ch=3 n=d4 v=0
1072852 On ch=3 n=c#4 v=117
1072852 On ch=3 n=c#3 v=117
1073164 On ch=3 n=c#3 v=0
1073164 On ch=3 n=c#4 v=0
1073164 On ch=3 n=a3 v=119
1073164 On ch=3 n=a2 v=119
1073488 On ch=3 n=a2 v=0
1073488 On ch=3 n=a3 v=0
1073488 On ch=3 n=f#3 v=121
1073488 On ch=3 n=f#2 v=121
1073494 Par ch=3 c=64 v=127
1074248 On ch=3 n=f#2 v=0
1074248 On ch=3 n=f#3 v=0
1074248 On ch=3 n=d#5 v=117
1074248 On ch=3 n=c#5 v=117
1074248 On ch=3 n=f#4 v=117
1074540 On ch=3 n=f#4 v=0
1074540 On ch=3 n=c#5 v=0
1074540 On ch=3 n=d#5 v=0
1074540 On ch=3 n=d#5 v=110
1074540 On ch=3 n=c#5 v=110
1074540 On ch=3 n=f#4 v=110
1074830 On ch=3 n=f#4 v=0
1074830 On ch=3 n=c#5 v=0
1074830 On ch=3 n=d#5 v=0
1074830 On ch=3 n=d#5 v=110
1074830 On ch=3 n=c#5 v=110
1074830 On ch=3 n=f#4 v=110
1075564 Par ch=3 c=64 v=0
1075570 On ch=3 n=f#4 v=0
1075570 On ch=3 n=c#5 v=0
1075570 On ch=3 n=d#5 v=0
1075570 On ch=3 n=g#3 v=121
1075570 On ch=3 n=g#2 v=121
1075884 On ch=3 n=g#2 v=0
1075884 On ch=3 n=g#3 v=0
1075884 On ch=3 n=a3 v=121
1075884 On ch=3 n=a2 v=121
1076214 On ch=3 n=a2 v=0
1076214 On ch=3 n=a3 v=0
1076214 On ch=3 n=g#3 v=121
1076214 On ch=3 n=g#2 v=121
1076220 Par ch=3 c=64 v=127
1076808 On ch=3 n=g#2 v=0
1076808 On ch=3 n=e5 v=117
1076808 On ch=3 n=c#5 v=117
1076808 On ch=3 n=g#4 v=117
1076808 On ch=3 n=e4 v=117
1077112 On ch=3 n=e4 v=0
1077112 On ch=3 n=g#4 v=0
1077112 On ch=3 n=c#5 v=0
1077112 On ch=3 n=e5 v=0
1077112 On ch=3 n=e5 v=117
1077112 On ch=3 n=c#5 v=117
1077112 On ch=3 n=g#4 v=117
1077112 On ch=3 n=e4 v=117
1077430 On ch=3 n=e4 v=0
1077430 On ch=3 n=g#4 v=0
1077430 On ch=3 n=c#5 v=0
1077430 On ch=3 n=e5 v=0
1077430 On ch=3 n=g#3 v=0
1077430 On ch=3 n=e5 v=115
1077430 On ch=3 n=c#5 v=115
1077430 On ch=3 n=g#4 v=115
1077430 On ch=3 n=e4 v=115
1078064 On ch=3 n=e4 v=0
1078064 On ch=3 n=g#4 v=0
1078064 On ch=3 n=c#5 v=0
1078064 On ch=3 n=e5 v=0
1078064 On ch=3 n=e5 v=109
1078064 On ch=3 n=c#5 v=109
1078064 On ch=3 n=g#4 v=109
1078064 On ch=3 n=e4 v=109
1078678 Par ch=3 c=64 v=0
1078682 On ch=3 n=e4 v=0
1078682 On ch=3 n=g#4 v=0
1078682 On ch=3 n=c#5 v=0
1078682 On ch=3 n=e5 v=0
1078682 On ch=3 n=g#3 v=106
1078682 On ch=3 n=g#2 v=106
1078688 Par ch=3 c=64 v=127
1079290 On ch=3 n=g#2 v=0
1079290 On ch=3 n=g#3 v=0
1079290 On ch=3 n=c5 v=106
1079290 On ch=3 n=g#4 v=106
1079290 On ch=3 n=f#4 v=106
1079290 On ch=3 n=d#4 v=106
1079880 Par ch=3 c=64 v=0
1079884 On ch=3 n=d#4 v=0
1079884 On ch=3 n=f#4 v=0
1079884 On ch=3 n=g#4 v=0
1079884 On ch=3 n=c5 v=0
1099122 On ch=3 n=c#4 v=101
1099122 On ch=3 n=c#3 v=101
1099128 Par ch=3 c=64 v=127
1099796 On ch=3 n=c#3 v=0
1099796 On ch=3 n=c#4 v=0
1099796 On ch=3 n=b4 v=106
1099796 On ch=3 n=g#4 v=106
1099796 On ch=3 n=c#4 v=106
1100434 Par ch=3 c=64 v=0
1100438 On ch=3 n=c#4 v=0
1100438 On ch=3 n=g#4 v=0
1100438 On ch=3 n=b4 v=0
1100438 On ch=3 n=f#3 v=110
1100438 On ch=3 n=f#2 v=110
1100444 Par ch=3 c=64 v=127
1101056 On ch=3 n=f#2 v=0
1101056 On ch=3 n=f#3 v=0
1101056 On ch=3 n=c#5 v=106
1101056 On ch=3 n=f#4 v=106
1101056 On ch=3 n=c#4 v=106
1101674 Par ch=3 c=64 v=0
1101678 On ch=3 n=c#4 v=0
1101678 On ch=3 n=f#4 v=0
1101678 On ch=3 n=c#5 v=0
1101678 On ch=3 n=b3 v=106
1101678 On ch=3 n=b2 v=106
1101684 Par ch=3 c=64 v=127
1102316 On ch=3 n=b2 v=0
1102316 On ch=3 n=b3 v=0
1102316 On ch=3 n=d5 v=109
1102316 On ch=3 n=g#4 v=109
1102316 On ch=3 n=f#4 v=109
1102966 Par ch=3 c=64 v=0
1102970 On ch=3 n=f#4 v=0
1102970 On ch=3 n=g#4 v=0
1102970 On ch=3 n=d5 v=0
1102970 On ch=3 n=c#4 v=109
1102970 On ch=3 n=c#3 v=109
1102976 Par ch=3 c=64 v=127
1103592 On ch=3 n=c#3 v=0
1103592 On ch=3 n=c#4 v=0
1103592 On ch=3 n=b4 v=106
1103592 On ch=3 n=g#4 v=106
1103592 On ch=3 n=c#4 v=106
1104208 Par ch=3 c=64 v=0
1104212 On ch=3 n=c#4 v=0
1104212 On ch=3 n=g#4 v=0
1104212 On ch=3 n=b4 v=0
1104212 On ch=3 n=f#3 v=104
1104212 On ch=3 n=f#2 v=104
1104218 Par ch=3 c=64 v=127
1104866 On ch=3 n=f#2 v=0
1104866 On ch=3 n=f#3 v=0
1104866 On ch=3 n=c#5 v=98
1104866 On ch=3 n=f#4 v=98
1104866 On ch=3 n=c#4 v=98
1105474 Par ch=3 c=64 v=0
1105478 On ch=3 n=c#4 v=0
1105478 On ch=3 n=f#4 v=0
1105478 On ch=3 n=c#5 v=0
1105478 On ch=3 n=b3 v=95
1105478 On ch=3 n=b2 v=95
1105484 Par ch=3 c=64 v=127
1106168 On ch=3 n=b2 v=0
1106168 On ch=3 n=b3 v=0
1106168 On ch=3 n=d5 v=94
1106168 On ch=3 n=g#4 v=94
1106168 On ch=3 n=f#4 v=94
1106832 Par ch=3 c=64 v=0
1106836 On ch=3 n=f#4 v=0
1106836 On ch=3 n=g#4 v=0
1106836 On ch=3 n=d5 v=0
1106836 On ch=3 n=a4 v=96
1106836 On ch=3 n=d4 v=96
1106836 On ch=3 n=a3 v=96
1107534 On ch=3 n=a3 v=0
1107534 On ch=3 n=d4 v=0
1107534 On ch=3 n=a4 v=0
1107534 On ch=3 n=g#4 v=98
1107534 On ch=3 n=g#3 v=98
1107830 On ch=3 n=g#3 v=0
1107830 On ch=3 n=g#4 v=0
1107830 On ch=3 n=f#4 v=100
1107830 On ch=3 n=f#3 v=100
1108128 On ch=3 n=f#3 v=0
1108128 On ch=3 n=f#4 v=0
1108128 On ch=3 n=f#5 v=110
1108128 On ch=3 n=f#4 v=110
1108132 Par ch=3 c=64 v=127
1108864 On ch=3 n=f#4 v=0
1108864 On ch=3 n=f#5 v=0
1108864 On ch=3 n=b3 v=105
1108864 On ch=3 n=b2 v=105
1109572 Par ch=3 c=64 v=0
1109576 On ch=3 n=b2 v=0
1109576 On ch=3 n=b3 v=0
1109576 On ch=3 n=g#4 v=102
1109576 On ch=3 n=d4 v=102
1109576 On ch=3 n=g#3 v=102
1110272 On ch=3 n=g#3 v=0
1110272 On ch=3 n=d4 v=0
1110272 On ch=3 n=g#4 v=0
1110272 On ch=3 n=f#4 v=101
1110272 On ch=3 n=f#3 v=101
1110582 On ch=3 n=f#3 v=0
1110582 On ch=3 n=f#4 v=0
1110582 On ch=3 n=g#4 v=96
1110582 On ch=3 n=g#3 v=96
1110920 On ch=3 n=g#3 v=0
1110920 On ch=3 n=g#4 v=0
1110920 On ch=3 n=b4 v=98
1110920 On ch=3 n=d4 v=98
1110920 On ch=3 n=b3 v=98
1111136 On ch=3 n=b3 v=0
1111136 On ch=3 n=d4 v=0
1111136 On ch=3 n=b4 v=0
1111136 On ch=3 n=a#4 v=98
1111136 On ch=3 n=a#3 v=98
1111322 On ch=3 n=a#3 v=0
1111322 On ch=3 n=a#4 v=0
1111322 On ch=3 n=a4 v=99
1111322 On ch=3 n=a3 v=99
1111538 On ch=3 n=a3 v=0
1111538 On ch=3 n=a4 v=0
1111538 On ch=3 n=g#4 v=95
1111538 On ch=3 n=g#3 v=95
1111744 On ch=3 n=g#3 v=0
1111744 On ch=3 n=g#4 v=0
1111744 On ch=3 n=g4 v=95
1111744 On ch=3 n=g3 v=95
1111944 On ch=3 n=g3 v=0
1111944 On ch=3 n=g4 v=0
1111944 On ch=3 n=f#4 v=99
1111944 On ch=3 n=f#3 v=99
1112144 On ch=3 n=f#3 v=0
1112144 On ch=3 n=f#4 v=0
1112144 On ch=3 n=a5 v=94
1112144 On ch=3 n=a4 v=94
1112150 Par ch=3 c=64 v=127
1112860 On ch=3 n=a4 v=0
1112860 On ch=3 n=a5 v=0
1112860 On ch=3 n=d3 v=115
1112860 On ch=3 n=d2 v=115
1114286 On ch=3 n=d2 v=0
1114286 On ch=3 n=d3 v=0
1114286 On ch=3 n=d4 v=105
1114286 On ch=3 n=d3 v=105
1115686 On ch=3 n=d3 v=0
1115686 On ch=3 n=d4 v=0
1115686 On ch=3 n=d4 v=109
1115686 On ch=3 n=d3 v=109
1117164 Par ch=3 c=64 v=0
1117170 On ch=3 n=d3 v=0
1117170 On ch=3 n=d4 v=0
1117170 On ch=3 n=g3 v=95
1117170 On ch=3 n=g2 v=95
1117836 On ch=3 n=g2 v=0
1117836 On ch=3 n=g3 v=0
1117836 On ch=3 n=g3 v=92
1117836 On ch=3 n=g2 v=92
1118540 On ch=3 n=g2 v=0
1118540 On ch=3 n=g3 v=0
1118540 On ch=3 n=c#4 v=91
1118540 On ch=3 n=c#3 v=91
1119212 On ch=3 n=c#3 v=0
1119212 On ch=3 n=c#4 v=0
1119212 On ch=3 n=c#4 v=90
1119212 On ch=3 n=c#3 v=90
1119892 On ch=3 n=c#3 v=0
1119892 On ch=3 n=c#4 v=0
1119892 On ch=3 n=f#3 v=91
1119892 On ch=3 n=f#2 v=91
1120620 On ch=3 n=f#2 v=0
1120620 On ch=3 n=f#3 v=0
1120620 On ch=3 n=f#4 v=98
1120620 On ch=3 n=f#3 v=98
1121408 On ch=3 n=f#3 v=0
1121408 On ch=3 n=f#4 v=0
1121692 On ch=3 n=b3 v=105
1121692 On ch=3 n=b2 v=105
1121998 On ch=3 n=b2 v=0
1121998 On ch=3 n=b3 v=0
1121998 On ch=3 n=b3 v=106
1121998 On ch=3 n=b2 v=106
1122670 On ch=3 n=b2 v=0
1122670 On ch=3 n=b3 v=0
1122670 On ch=3 n=e4 v=108
1122670 On ch=3 n=e3 v=108
1123348 On ch=3 n=e3 v=0
1123348 On ch=3 n=e4 v=0
1123348 On ch=3 n=e4 v=104
1123348 On ch=3 n=e3 v=104
1123974 On ch=3 n=e3 v=0
1123974 On ch=3 n=e4 v=0
1123974 On ch=3 n=a3 v=100
1123974 On ch=3 n=a2 v=100
1124620 On ch=3 n=a2 v=0
1124620 On ch=3 n=a3 v=0
1124620 On ch=3 n=g#4 v=121
1124620 On ch=3 n=g#3 v=121
1125284 On ch=3 n=g#3 v=0
1125284 On ch=3 n=g#4 v=0
1125592 On ch=3 n=c#4 v=103
1125592 On ch=3 n=c#3 v=103
1125910 On ch=3 n=c#3 v=0
1125910 On ch=3 n=c#4 v=0
1125910 On ch=3 n=c#5 v=101
1125910 On ch=3 n=c#4 v=101
1126540 On ch=3 n=c#4 v=0
1126540 On ch=3 n=c#5 v=0
1126540 On ch=3 n=f#4 v=101
1126540 On ch=3 n=f#3 v=101
1127160 On ch=3 n=f#3 v=0
1127160 On ch=3 n=f#4 v=0
1127160 On ch=3 n=e5 v=101
1127160 On ch=3 n=e4 v=101
1127804 On ch=3 n=e4 v=0
1127804 On ch=3 n=e5 v=0
1127804 On ch=3 n=a4 v=113
1127804 On ch=3 n=a3 v=113
1128478 On ch=3 n=a3 v=0
1128478 On ch=3 n=a4 v=0
1128478 On ch=3 n=f#5 v=116
1128478 On ch=3 n=f#4 v=116
1129098 On ch=3 n=f#4 v=0
1129098 On ch=3 n=f#5 v=0
1129098 On ch=3 n=b4 v=113
1129098 On ch=3 n=b3 v=113
1129738 On ch=3 n=b3 v=0
1129738 On ch=3 n=b4 v=0
1129738 On ch=3 n=g#5 v=117
1129738 On ch=3 n=g#4 v=117
1130390 On ch=3 n=g#4 v=0
1130390 On ch=3 n=g#5 v=0
1130390 On ch=3 n=c#5 v=117
1130390 On ch=3 n=c#4 v=117
1131046 On ch=3 n=c#4 v=0
1131046 On ch=3 n=c#5 v=0
1131046 Meta TrkEnd
TrkEnd
MTrk
0 SeqSpec 43 00 01 00
0 Meta TrkName "4Main droite accompagnement"
0 PrCh ch=4 p=0
0 Par ch=4 c=10 v=45
0 Par ch=4 c=93 v=100
0 Par ch=4 c=91 v=100
0 Par ch=4 c=7 v=120
60610 On ch=4 n=c#5 v=100
60610 On ch=4 n=a4 v=100
61280 On ch=4 n=a4 v=0
61280 On ch=4 n=c#5 v=0
61280 On ch=4 n=c#5 v=97
61280 On ch=4 n=a4 v=97
61586 On ch=4 n=a4 v=0
61586 On ch=4 n=c#5 v=0
61586 On ch=4 n=c#5 v=94
61586 On ch=4 n=a4 v=94
61858 On ch=4 n=a4 v=0
61858 On ch=4 n=c#5 v=0
61858 On ch=4 n=c#5 v=93
61858 On ch=4 n=a4 v=93
62456 On ch=4 n=a4 v=0
62456 On ch=4 n=c#5 v=0
62456 On ch=4 n=c#5 v=90
62456 On ch=4 n=a4 v=90
62746 On ch=4 n=a4 v=0
62746 On ch=4 n=c#5 v=0
62746 On ch=4 n=c#5 v=88
62746 On ch=4 n=a4 v=88
63040 On ch=4 n=a4 v=0
63040 On ch=4 n=c#5 v=0
63040 On ch=4 n=c#5 v=88
63040 On ch=4 n=b4 v=88
63612 On ch=4 n=b4 v=0
63612 On ch=4 n=c#5 v=0
63612 On ch=4 n=c#5 v=90
63612 On ch=4 n=b4 v=90
63918 On ch=4 n=b4 v=0
63918 On ch=4 n=c#5 v=0
63918 On ch=4 n=c#5 v=90
63918 On ch=4 n=b4 v=90
64214 On ch=4 n=b4 v=0
64214 On ch=4 n=c#5 v=0
64214 On ch=4 n=c#5 v=88
64214 On ch=4 n=a4 v=88
64832 On ch=4 n=a4 v=0
64832 On ch=4 n=c#5 v=0
64832 On ch=4 n=c#5 v=88
64832 On ch=4 n=a4 v=88
65126 On ch=4 n=a4 v=0
65126 On ch=4 n=c#5 v=0
65126 On ch=4 n=c#5 v=86
65126 On ch=4 n=a4 v=86
65404 On ch=4 n=a4 v=0
65404 On ch=4 n=c#5 v=0
65408 Par ch=4 c=64 v=127
67998 Par ch=4 c=64 v=0
68002 On ch=4 n=e5 v=87
68002 On ch=4 n=c#5 v=87
68624 On ch=4 n=c#5 v=0
68624 On ch=4 n=e5 v=0
68624 On ch=4 n=e5 v=90
68624 On ch=4 n=c#5 v=90
68950 On ch=4 n=c#5 v=0
68950 On ch=4 n=e5 v=0
68950 On ch=4 n=e5 v=84
68950 On ch=4 n=c#5 v=84
69252 On ch=4 n=c#5 v=0
69252 On ch=4 n=e5 v=0
69252 On ch=4 n=a5 v=87
69252 On ch=4 n=c#5 v=87
69890 On ch=4 n=c#5 v=0
69890 On ch=4 n=a5 v=0
69890 On ch=4 n=a5 v=86
69890 On ch=4 n=c#5 v=86
70512 On ch=4 n=c#5 v=0
70512 On ch=4 n=a5 v=0
70512 On ch=4 n=g#5 v=88
70512 On ch=4 n=e5 v=88
70512 On ch=4 n=d5 v=88
71152 On ch=4 n=d5 v=0
71152 On ch=4 n=e5 v=0
71152 On ch=4 n=g#5 v=0
71152 On ch=4 n=e5 v=85
71152 On ch=4 n=d5 v=85
71778 On ch=4 n=d5 v=0
71778 On ch=4 n=e5 v=0
71778 On ch=4 n=a5 v=86
71778 On ch=4 n=e5 v=86
71778 On ch=4 n=c#5 v=86
71784 Par ch=4 c=64 v=127
72396 On ch=4 n=c#5 v=0
72396 On ch=4 n=e5 v=0
72396 On ch=4 n=a5 v=0
72396 On ch=4 n=a5 v=87
72396 On ch=4 n=e5 v=87
72396 On ch=4 n=c#5 v=87
72998 Par ch=4 c=64 v=0
73002 On ch=4 n=c#5 v=0
73002 On ch=4 n=e5 v=0
73002 On ch=4 n=a5 v=0
73002 On ch=4 n=g#5 v=90
73002 On ch=4 n=d5 v=90
73002 On ch=4 n=b4 v=90
73008 Par ch=4 c=64 v=127
73612 On ch=4 n=b4 v=0
73612 On ch=4 n=d5 v=0
73612 On ch=4 n=g#5 v=0
73612 On ch=4 n=g#5 v=89
73612 On ch=4 n=d5 v=89
73612 On ch=4 n=b4 v=89
74226 Par ch=4 c=64 v=0
74230 On ch=4 n=b4 v=0
74230 On ch=4 n=d5 v=0
74230 On ch=4 n=g#5 v=0
74230 On ch=4 n=f#5 v=93
74230 On ch=4 n=d#5 v=93
74230 On ch=4 n=a4 v=93
74236 Par ch=4 c=64 v=127
74818 On ch=4 n=a4 v=0
74818 On ch=4 n=d#5 v=0
74818 On ch=4 n=f#5 v=0
74818 On ch=4 n=f#5 v=93
74818 On ch=4 n=d#5 v=93
74818 On ch=4 n=a4 v=93
75464 Par ch=4 c=64 v=0
75468 On ch=4 n=a4 v=0
75468 On ch=4 n=d#5 v=0
75468 On ch=4 n=f#5 v=0
157678 On ch=4 n=b5 v=109
157678 On ch=4 n=f5 v=109
157678 On ch=4 n=c#5 v=109
157996 On ch=4 n=c#5 v=0
157996 On ch=4 n=f5 v=0
157996 On ch=4 n=b5 v=0
157996 On ch=4 n=b5 v=109
157996 On ch=4 n=f5 v=109
157996 On ch=4 n=c#5 v=109
158318 On ch=4 n=c#5 v=0
158318 On ch=4 n=f5 v=0
158318 On ch=4 n=b5 v=0
158318 On ch=4 n=b5 v=103
158318 On ch=4 n=f5 v=103
158318 On ch=4 n=c#5 v=103
158954 On ch=4 n=c#5 v=0
158954 On ch=4 n=f5 v=0
158954 On ch=4 n=b5 v=0
158954 On ch=4 n=b5 v=108
158954 On ch=4 n=f5 v=108
158954 On ch=4 n=c#5 v=108
159594 On ch=4 n=c#5 v=0
159594 On ch=4 n=f5 v=0
159594 On ch=4 n=b5 v=0
159594 On ch=4 n=a5 v=105
159594 On ch=4 n=f#5 v=105
159594 On ch=4 n=c#5 v=105
160250 On ch=4 n=c#5 v=0
160250 On ch=4 n=f#5 v=0
160250 On ch=4 n=a5 v=0
160250 On ch=4 n=c#5 v=100
160250 On ch=4 n=a4 v=100
160570 On ch=4 n=a4 v=0
160570 On ch=4 n=c#5 v=0
160570 On ch=4 n=c#5 v=97
160570 On ch=4 n=a4 v=97
160848 On ch=4 n=a4 v=0
160848 On ch=4 n=c#5 v=0
160848 On ch=4 n=f#5 v=99
160848 On ch=4 n=c#5 v=99
160848 On ch=4 n=a4 v=99
161482 On ch=4 n=a4 v=0
161482 On ch=4 n=c#5 v=0
161482 On ch=4 n=f#5 v=0
161482 On ch=4 n=c#5 v=96
161482 On ch=4 n=a4 v=96
162208 On ch=4 n=a4 v=0
162208 On ch=4 n=c#5 v=0
164742 Par ch=4 c=64 v=127
167398 Par ch=4 c=64 v=0
167402 On ch=4 n=e5 v=94
167402 On ch=4 n=c#5 v=94
168070 On ch=4 n=c#5 v=0
168070 On ch=4 n=e5 v=0
168070 On ch=4 n=e5 v=95
168070 On ch=4 n=c#5 v=95
168412 On ch=4 n=c#5 v=0
168412 On ch=4 n=e5 v=0
168412 On ch=4 n=e5 v=95
168412 On ch=4 n=c#5 v=95
168744 On ch=4 n=c#5 v=0
168744 On ch=4 n=e5 v=0
168744 On ch=4 n=a5 v=94
168744 On ch=4 n=c#5 v=94
169410 On ch=4 n=c#5 v=0
169410 On ch=4 n=a5 v=0
169410 On ch=4 n=a5 v=93
169410 On ch=4 n=c#5 v=93
170050 On ch=4 n=c#5 v=0
170050 On ch=4 n=a5 v=0
170050 On ch=4 n=g#5 v=94
170050 On ch=4 n=e5 v=94
170050 On ch=4 n=d5 v=94
170706 On ch=4 n=d5 v=0
170706 On ch=4 n=e5 v=0
170706 On ch=4 n=g#5 v=0
170706 On ch=4 n=e5 v=94
170706 On ch=4 n=d5 v=94
171362 On ch=4 n=d5 v=0
171362 On ch=4 n=e5 v=0
171362 On ch=4 n=a5 v=94
171362 On ch=4 n=e5 v=94
171362 On ch=4 n=c#5 v=94
171368 Par ch=4 c=64 v=127
171984 On ch=4 n=c#5 v=0
171984 On ch=4 n=e5 v=0
171984 On ch=4 n=a5 v=0
171984 On ch=4 n=a5 v=96
171984 On ch=4 n=e5 v=96
171984 On ch=4 n=c#5 v=96
172658 Par ch=4 c=64 v=0
172662 On ch=4 n=c#5 v=0
172662 On ch=4 n=e5 v=0
172662 On ch=4 n=a5 v=0
172662 On ch=4 n=g#5 v=100
172662 On ch=4 n=d5 v=100
172662 On ch=4 n=b4 v=100
172668 Par ch=4 c=64 v=127
173294 On ch=4 n=b4 v=0
173294 On ch=4 n=d5 v=0
173294 On ch=4 n=g#5 v=0
173294 On ch=4 n=g#5 v=99
173294 On ch=4 n=d5 v=99
173294 On ch=4 n=b4 v=99
173966 Par ch=4 c=64 v=0
173970 On ch=4 n=b4 v=0
173970 On ch=4 n=d5 v=0
173970 On ch=4 n=g#5 v=0
173970 On ch=4 n=f#5 v=105
173970 On ch=4 n=d#5 v=105
173970 On ch=4 n=a4 v=105
173976 Par ch=4 c=64 v=127
174600 On ch=4 n=a4 v=0
174600 On ch=4 n=d#5 v=0
174600 On ch=4 n=f#5 v=0
174600 On ch=4 n=f#5 v=100
174600 On ch=4 n=d#5 v=100
174600 On ch=4 n=a4 v=100
175252 Par ch=4 c=64 v=0
175256 On ch=4 n=a4 v=0
175256 On ch=4 n=d#5 v=0
175256 On ch=4 n=f#5 v=0
256726 On ch=4 n=b5 v=107
256726 On ch=4 n=f5 v=107
256726 On ch=4 n=c#5 v=107
257050 On ch=4 n=c#5 v=0
257050 On ch=4 n=f5 v=0
257050 On ch=4 n=b5 v=0
257050 On ch=4 n=b5 v=107
257050 On ch=4 n=f5 v=107
257050 On ch=4 n=c#5 v=107
257356 On ch=4 n=c#5 v=0
257356 On ch=4 n=f5 v=0
257356 On ch=4 n=b5 v=0
257356 On ch=4 n=b5 v=107
257356 On ch=4 n=f5 v=107
257356 On ch=4 n=c#5 v=107
257982 On ch=4 n=c#5 v=0
257982 On ch=4 n=f5 v=0
257982 On ch=4 n=b5 v=0
257982 On ch=4 n=b5 v=105
257982 On ch=4 n=f5 v=105
257982 On ch=4 n=c#5 v=105
258600 On ch=4 n=c#5 v=0
258600 On ch=4 n=f5 v=0
258600 On ch=4 n=b5 v=0
258600 On ch=4 n=a5 v=107
258600 On ch=4 n=f#5 v=107
258600 On ch=4 n=c#5 v=107
258606 Par ch=4 c=64 v=127
259298 On ch=4 n=c#5 v=0
259298 On ch=4 n=f#5 v=0
259298 On ch=4 n=a5 v=0
259298 On ch=4 n=c#5 v=100
259298 On ch=4 n=a4 v=100
259644 On ch=4 n=a4 v=0
259644 On ch=4 n=c#5 v=0
259644 On ch=4 n=c#5 v=98
259644 On ch=4 n=a4 v=98
259926 On ch=4 n=a4 v=0
259926 On ch=4 n=c#5 v=0
259926 On ch=4 n=f#5 v=96
259926 On ch=4 n=c#5 v=96
259926 On ch=4 n=a4 v=96
260574 Par ch=4 c=64 v=0
260578 On ch=4 n=a4 v=0
260578 On ch=4 n=c#5 v=0
260578 On ch=4 n=f#5 v=0
260578 On ch=4 n=c#5 v=88
260578 On ch=4 n=a4 v=88
261210 On ch=4 n=a4 v=0
261210 On ch=4 n=c#5 v=0
263864 Par ch=4 c=64 v=127
266556 Par ch=4 c=64 v=0
266560 On ch=4 n=e5 v=95
266560 On ch=4 n=c#5 v=95
266566 Par ch=4 c=64 v=127
267226 On ch=4 n=c#5 v=0
267226 On ch=4 n=e5 v=0
267226 On ch=4 n=e5 v=95
267226 On ch=4 n=c#5 v=95
267552 On ch=4 n=c#5 v=0
267552 On ch=4 n=e5 v=0
267552 On ch=4 n=e5 v=91
267552 On ch=4 n=c#5 v=91
267900 On ch=4 n=c#5 v=0
267900 On ch=4 n=e5 v=0
267900 On ch=4 n=a5 v=92
267900 On ch=4 n=c#5 v=92
268594 Par ch=4 c=64 v=0
268598 On ch=4 n=c#5 v=0
268598 On ch=4 n=a5 v=0
268598 On ch=4 n=a5 v=93
268598 On ch=4 n=c#5 v=93
269284 On ch=4 n=c#5 v=0
269284 On ch=4 n=a5 v=0
269284 On ch=4 n=g#5 v=91
269284 On ch=4 n=e5 v=91
269284 On ch=4 n=d5 v=91
269930 On ch=4 n=d5 v=0
269930 On ch=4 n=e5 v=0
269930 On ch=4 n=g#5 v=0
269930 On ch=4 n=e5 v=93
269930 On ch=4 n=d5 v=93
270574 On ch=4 n=d5 v=0
270574 On ch=4 n=e5 v=0
270574 On ch=4 n=a5 v=91
270574 On ch=4 n=e5 v=91
270574 On ch=4 n=c#5 v=91
271250 On ch=4 n=c#5 v=0
271250 On ch=4 n=e5 v=0
271250 On ch=4 n=a5 v=0
271250 On ch=4 n=a5 v=91
271250 On ch=4 n=e5 v=91
271250 On ch=4 n=c#5 v=91
271902 On ch=4 n=c#5 v=0
271902 On ch=4 n=e5 v=0
271902 On ch=4 n=a5 v=0
271902 On ch=4 n=g#5 v=98
271902 On ch=4 n=d5 v=98
271902 On ch=4 n=b4 v=98
272560 On ch=4 n=b4 v=0
272560 On ch=4 n=d5 v=0
272560 On ch=4 n=g#5 v=0
272560 On ch=4 n=g#5 v=100
272560 On ch=4 n=d5 v=100
272560 On ch=4 n=b4 v=100
273230 On ch=4 n=b4 v=0
273230 On ch=4 n=d5 v=0
273230 On ch=4 n=g#5 v=0
273230 On ch=4 n=f#5 v=105
273230 On ch=4 n=d#5 v=105
273230 On ch=4 n=a4 v=105
273904 On ch=4 n=a4 v=0
273904 On ch=4 n=d#5 v=0
273904 On ch=4 n=f#5 v=0
273904 On ch=4 n=f#5 v=105
273904 On ch=4 n=d#5 v=105
273904 On ch=4 n=a4 v=105
274550 On ch=4 n=a4 v=0
274550 On ch=4 n=d#5 v=0
274550 On ch=4 n=f#5 v=0
982752 On ch=4 n=b5 v=90
982752 On ch=4 n=f5 v=90
982752 On ch=4 n=c#5 v=90
983050 On ch=4 n=c#5 v=0
983050 On ch=4 n=f5 v=0
983050 On ch=4 n=b5 v=0
983050 On ch=4 n=b5 v=88
983050 On ch=4 n=f5 v=88
983050 On ch=4 n=c#5 v=88
983346 On ch=4 n=c#5 v=0
983346 On ch=4 n=f5 v=0
983346 On ch=4 n=b5 v=0
983346 On ch=4 n=b5 v=90
983346 On ch=4 n=f5 v=90
983346 On ch=4 n=c#5 v=90
983968 On ch=4 n=c#5 v=0
983968 On ch=4 n=f5 v=0
983968 On ch=4 n=b5 v=0
983968 On ch=4 n=b5 v=90
983968 On ch=4 n=f5 v=90
983968 On ch=4 n=c#5 v=90
984588 On ch=4 n=c#5 v=0
984588 On ch=4 n=f5 v=0
984588 On ch=4 n=b5 v=0
984588 On ch=4 n=a5 v=88
984588 On ch=4 n=f#5 v=88
984588 On ch=4 n=c#5 v=88
984594 Par ch=4 c=64 v=127
985236 On ch=4 n=c#5 v=0
985236 On ch=4 n=f#5 v=0
985236 On ch=4 n=a5 v=0
985236 On ch=4 n=c#5 v=88
985236 On ch=4 n=a4 v=88
985540 On ch=4 n=a4 v=0
985540 On ch=4 n=c#5 v=0
985540 On ch=4 n=c#5 v=87
985540 On ch=4 n=a4 v=87
985854 On ch=4 n=a4 v=0
985854 On ch=4 n=c#5 v=0
985854 On ch=4 n=f#5 v=87
985854 On ch=4 n=c#5 v=87
985854 On ch=4 n=a4 v=87
986490 Par ch=4 c=64 v=0
986494 On ch=4 n=a4 v=0
986494 On ch=4 n=c#5 v=0
986494 On ch=4 n=f#5 v=0
986494 On ch=4 n=c#5 v=85
986494 On ch=4 n=a4 v=85
987138 On ch=4 n=a4 v=0
987138 On ch=4 n=c#5 v=0
989612 Par ch=4 c=64 v=127
992194 Par ch=4 c=64 v=0
992198 On ch=4 n=e5 v=80
992198 On ch=4 n=c#5 v=80
992846 On ch=4 n=c#5 v=0
992846 On ch=4 n=e5 v=0
992846 On ch=4 n=e5 v=80
992846 On ch=4 n=c#5 v=80
993178 On ch=4 n=c#5 v=0
993178 On ch=4 n=e5 v=0
993178 On ch=4 n=e5 v=78
993178 On ch=4 n=c#5 v=78
993484 On ch=4 n=c#5 v=0
993484 On ch=4 n=e5 v=0
993484 On ch=4 n=a5 v=80
993484 On ch=4 n=c#5 v=80
994148 On ch=4 n=c#5 v=0
994148 On ch=4 n=a5 v=0
994148 On ch=4 n=a5 v=80
994148 On ch=4 n=c#5 v=80
994772 On ch=4 n=c#5 v=0
994772 On ch=4 n=a5 v=0
994772 On ch=4 n=g#5 v=80
994772 On ch=4 n=e5 v=80
994772 On ch=4 n=d5 v=80
995426 On ch=4 n=d5 v=0
995426 On ch=4 n=e5 v=0
995426 On ch=4 n=g#5 v=0
995426 On ch=4 n=e5 v=80
995426 On ch=4 n=d5 v=80
996082 On ch=4 n=d5 v=0
996082 On ch=4 n=e5 v=0
996082 On ch=4 n=a5 v=77
996082 On ch=4 n=e5 v=77
996082 On ch=4 n=c#5 v=77
996088 Par ch=4 c=64 v=127
996740 On ch=4 n=c#5 v=0
996740 On ch=4 n=e5 v=0
996740 On ch=4 n=a5 v=0
996740 On ch=4 n=a5 v=77
996740 On ch=4 n=e5 v=77
996740 On ch=4 n=c#5 v=77
997366 Par ch=4 c=64 v=0
997370 On ch=4 n=c#5 v=0
997370 On ch=4 n=e5 v=0
997370 On ch=4 n=a5 v=0
997370 On ch=4 n=g#5 v=88
997370 On ch=4 n=d5 v=88
997370 On ch=4 n=b4 v=88
997376 Par ch=4 c=64 v=127
997996 On ch=4 n=b4 v=0
997996 On ch=4 n=d5 v=0
997996 On ch=4 n=g#5 v=0
997996 On ch=4 n=g#5 v=90
997996 On ch=4 n=d5 v=90
997996 On ch=4 n=b4 v=90
998644 On ch=4 n=b4 v=0
998644 On ch=4 n=d5 v=0
998644 On ch=4 n=g#5 v=0
998644 On ch=4 n=f#5 v=93
998644 On ch=4 n=d#5 v=93
998644 On ch=4 n=a4 v=93
998800 Par ch=4 c=64 v=0
998812 Par ch=4 c=64 v=127
999258 On ch=4 n=a4 v=0
999258 On ch=4 n=d#5 v=0
999258 On ch=4 n=f#5 v=0
999258 On ch=4 n=f#5 v=95
999258 On ch=4 n=d#5 v=95
999258 On ch=4 n=a4 v=95
999954 Par ch=4 c=64 v=0
999958 On ch=4 n=a4 v=0
999958 On ch=4 n=d#5 v=0
999958 On ch=4 n=f#5 v=0
1081754 On ch=4 n=b5 v=95
1081754 On ch=4 n=f5 v=95
1081754 On ch=4 n=c#5 v=95
1082062 On ch=4 n=c#5 v=0
1082062 On ch=4 n=f5 v=0
1082062 On ch=4 n=b5 v=0
1082062 On ch=4 n=b5 v=94
1082062 On ch=4 n=f5 v=94
1082062 On ch=4 n=c#5 v=94
1082372 On ch=4 n=c#5 v=0
1082372 On ch=4 n=f5 v=0
1082372 On ch=4 n=b5 v=0
1082372 On ch=4 n=b5 v=93
1082372 On ch=4 n=f5 v=93
1082372 On ch=4 n=c#5 v=93
1083010 On ch=4 n=c#5 v=0
1083010 On ch=4 n=f5 v=0
1083010 On ch=4 n=b5 v=0
1083010 On ch=4 n=b5 v=91
1083010 On ch=4 n=f5 v=91
1083010 On ch=4 n=c#5 v=91
1083646 On ch=4 n=c#5 v=0
1083646 On ch=4 n=f5 v=0
1083646 On ch=4 n=b5 v=0
1083646 On ch=4 n=a5 v=94
1083646 On ch=4 n=f#5 v=94
1083646 On ch=4 n=c#5 v=94
1083652 Par ch=4 c=64 v=127
1084298 On ch=4 n=c#5 v=0
1084298 On ch=4 n=f#5 v=0
1084298 On ch=4 n=a5 v=0
1084298 On ch=4 n=a4 v=91
1084612 On ch=4 n=a4 v=0
1084612 On ch=4 n=a4 v=90
1084906 Par ch=4 c=64 v=0
1084910 On ch=4 n=a4 v=0
1084910 On ch=4 n=f#5 v=91
1084910 On ch=4 n=c#5 v=91
1084910 On ch=4 n=a4 v=91
1085516 On ch=4 n=a4 v=0
1085516 On ch=4 n=c#5 v=0
1085516 On ch=4 n=f#5 v=0
1085516 On ch=4 n=c#5 v=95
1085516 On ch=4 n=a4 v=95
1086160 On ch=4 n=a4 v=0
1086160 On ch=4 n=c#5 v=0
1088724 Par ch=4 c=64 v=127
1091344 Par ch=4 c=64 v=0
1091348 On ch=4 n=e5 v=85
1091348 On ch=4 n=c#5 v=85
1092020 On ch=4 n=c#5 v=0
1092020 On ch=4 n=e5 v=0
1092020 On ch=4 n=e5 v=84
1092020 On ch=4 n=c#5 v=84
1092340 On ch=4 n=c#5 v=0
1092340 On ch=4 n=e5 v=0
1092340 On ch=4 n=e5 v=82
1092340 On ch=4 n=c#5 v=82
1092674 On ch=4 n=c#5 v=0
1092674 On ch=4 n=e5 v=0
1092674 On ch=4 n=a5 v=82
1092674 On ch=4 n=c#5 v=82
1093330 On ch=4 n=c#5 v=0
1093330 On ch=4 n=a5 v=0
1093330 On ch=4 n=a5 v=82
1093330 On ch=4 n=c#5 v=82
1094000 On ch=4 n=c#5 v=0
1094000 On ch=4 n=a5 v=0
1094000 On ch=4 n=g#5 v=79
1094000 On ch=4 n=e5 v=79
1094000 On ch=4 n=d5 v=79
1094656 On ch=4 n=d5 v=0
1094656 On ch=4 n=e5 v=0
1094656 On ch=4 n=g#5 v=0
1094656 On ch=4 n=e5 v=80
1094656 On ch=4 n=d5 v=80
1095322 Par ch=4 c=64 v=0
1095326 On ch=4 n=d5 v=0
1095326 On ch=4 n=e5 v=0
1095326 On ch=4 n=a5 v=82
1095326 On ch=4 n=e5 v=82
1095326 On ch=4 n=c#5 v=82
1095332 Par ch=4 c=64 v=127
1095962 On ch=4 n=c#5 v=0
1095962 On ch=4 n=e5 v=0
1095962 On ch=4 n=a5 v=0
1095962 On ch=4 n=a5 v=84
1095962 On ch=4 n=e5 v=84
1095962 On ch=4 n=c#5 v=84
1096620 Par ch=4 c=64 v=0
1096624 On ch=4 n=c#5 v=0
1096624 On ch=4 n=e5 v=0
1096624 On ch=4 n=a5 v=0
1096624 On ch=4 n=g#5 v=87
1096624 On ch=4 n=d5 v=87
1096624 On ch=4 n=b4 v=87
1096630 Par ch=4 c=64 v=127
1097254 On ch=4 n=b4 v=0
1097254 On ch=4 n=d5 v=0
1097254 On ch=4 n=g#5 v=0
1097254 On ch=4 n=g#5 v=93
1097254 On ch=4 n=d5 v=93
1097254 On ch=4 n=b4 v=93
1097890 Par ch=4 c=64 v=0
1097894 On ch=4 n=b4 v=0
1097894 On ch=4 n=d5 v=0
1097894 On ch=4 n=g#5 v=0
1097894 On ch=4 n=f#5 v=99
1097894 On ch=4 n=d#5 v=99
1097894 On ch=4 n=a4 v=99
1097900 Par ch=4 c=64 v=127
1098498 On ch=4 n=a4 v=0
1098498 On ch=4 n=d#5 v=0
1098498 On ch=4 n=f#5 v=0
1098498 On ch=4 n=f#5 v=110
1098498 On ch=4 n=d#5 v=110
1098498 On ch=4 n=a4 v=110
1099118 Par ch=4 c=64 v=0
1099122 On ch=4 n=a4 v=0
1099122 On ch=4 n=d#5 v=0
1099122 On ch=4 n=f#5 v=0
1099122 Meta TrkEnd
TrkEnd
