MFile 1 5 480
MTrk
0 Tempo 240000
0 Meta TrkEnd
TrkEnd
MTrk
0 SeqSpec 43 00 01 00
0 Meta TrkName "1Melodie main droite"
6 PrCh ch=1 p=0
6 Par ch=1 c=91 v=70
6 Par ch=1 c=10 v=82
6 Par ch=1 c=7 v=120
52016 On ch=1 n=g5 v=78
53004 On ch=1 n=g5 v=0
53004 On ch=1 n=g5 v=93
53960 On ch=1 n=g5 v=0
53960 On ch=1 n=a5 v=79
54978 On ch=1 n=a5 v=0
54978 On ch=1 n=a5 v=86
56952 On ch=1 n=a5 v=0
56952 On ch=1 n=b5 v=77
57944 On ch=1 n=b5 v=0
57944 On ch=1 n=c6 v=75
58940 On ch=1 n=c6 v=0
58940 On ch=1 n=d#6 v=75
60448 On ch=1 n=d#6 v=0
60448 On ch=1 n=d6 v=75
60922 On ch=1 n=d6 v=0
60922 On ch=1 n=c6 v=75
61920 On ch=1 n=c6 v=0
82436 On ch=1 n=b5 v=93
83430 On ch=1 n=b5 v=0
83430 On ch=1 n=b5 v=80
84424 On ch=1 n=b5 v=0
84424 On ch=1 n=c6 v=79
86372 On ch=1 n=c6 v=0
86372 On ch=1 n=a#5 v=72
87358 On ch=1 n=a#5 v=0
87358 On ch=1 n=g#5 v=73
88334 On ch=1 n=g#5 v=0
88334 On ch=1 n=c#6 v=71
89332 On ch=1 n=c#6 v=0
89332 On ch=1 n=c6 v=72
90332 On ch=1 n=c6 v=0
90332 On ch=1 n=b5 v=71
92306 On ch=1 n=b5 v=0
92306 On ch=1 n=g#5 v=69
93314 On ch=1 n=g#5 v=0
93314 On ch=1 n=g5 v=68
94330 On ch=1 n=g5 v=0
94330 On ch=1 n=c6 v=66
95332 On ch=1 n=c6 v=0
95332 On ch=1 n=a#5 v=66
96320 On ch=1 n=a#5 v=0
96320 On ch=1 n=g#5 v=68
98320 On ch=1 n=g#5 v=0
98320 On ch=1 n=g#5 v=68
99300 On ch=1 n=g#5 v=0
99300 On ch=1 n=g#5 v=70
100302 On ch=1 n=g#5 v=0
100302 On ch=1 n=g#5 v=68
101288 On ch=1 n=g#5 v=0
101288 On ch=1 n=g#5 v=64
102300 On ch=1 n=g#5 v=0
102300 On ch=1 n=g#5 v=68
103312 On ch=1 n=g#5 v=0
103312 On ch=1 n=g5 v=68
104312 On ch=1 n=g5 v=0
105326 On ch=1 n=g5 v=70
106334 On ch=1 n=g5 v=0
106334 On ch=1 n=g5 v=68
107266 On ch=1 n=g5 v=0
146572 On ch=1 n=g5 v=93
147568 On ch=1 n=g5 v=0
147568 On ch=1 n=g5 v=93
148628 On ch=1 n=g5 v=0
148628 On ch=1 n=a5 v=93
149584 On ch=1 n=a5 v=0
149584 On ch=1 n=a5 v=93
151564 On ch=1 n=a5 v=0
151564 On ch=1 n=b5 v=93
152552 On ch=1 n=b5 v=0
152552 On ch=1 n=c6 v=93
153502 On ch=1 n=c6 v=0
153502 On ch=1 n=d#6 v=81
154986 On ch=1 n=d#6 v=0
154986 On ch=1 n=d6 v=72
155484 On ch=1 n=d6 v=0
155484 On ch=1 n=c6 v=68
156480 On ch=1 n=c6 v=0
177036 On ch=1 n=b5 v=93
177984 On ch=1 n=b5 v=0
177984 On ch=1 n=b5 v=93
178928 On ch=1 n=b5 v=0
178928 On ch=1 n=c6 v=81
180890 On ch=1 n=c6 v=0
180890 On ch=1 n=a#5 v=77
181850 On ch=1 n=a#5 v=0
181850 On ch=1 n=g#5 v=75
182826 On ch=1 n=g#5 v=0
182826 On ch=1 n=c#6 v=74
183798 On ch=1 n=c#6 v=0
183798 On ch=1 n=c6 v=72
184788 On ch=1 n=c6 v=0
184788 On ch=1 n=b5 v=72
186746 On ch=1 n=b5 v=0
186746 On ch=1 n=g#5 v=72
187752 On ch=1 n=g#5 v=0
187752 On ch=1 n=g5 v=72
188722 On ch=1 n=g5 v=0
188722 On ch=1 n=c6 v=72
189682 On ch=1 n=c6 v=0
189682 On ch=1 n=a#5 v=69
190636 On ch=1 n=a#5 v=0
190636 On ch=1 n=g#5 v=71
192624 On ch=1 n=g#5 v=0
192624 On ch=1 n=g#5 v=72
193634 On ch=1 n=g#5 v=0
193634 On ch=1 n=g#5 v=74
194630 On ch=1 n=g#5 v=0
194630 On ch=1 n=g#5 v=74
195644 On ch=1 n=g#5 v=0
195644 On ch=1 n=g#5 v=71
196620 On ch=1 n=g#5 v=0
196620 On ch=1 n=g#5 v=71
197568 On ch=1 n=g#5 v=0
197568 On ch=1 n=g5 v=75
198552 On ch=1 n=g5 v=0
199538 On ch=1 n=g5 v=79
200562 On ch=1 n=g5 v=0
200562 On ch=1 n=g5 v=87
201500 On ch=1 n=g5 v=0
203466 On ch=1 n=c#7 v=107
203466 On ch=1 n=g#6 v=107
203466 On ch=1 n=c#6 v=107
203820 On ch=1 n=c#6 v=0
203820 On ch=1 n=g#6 v=0
203820 On ch=1 n=c#7 v=0
203820 On ch=1 n=c#7 v=105
203820 On ch=1 n=a#6 v=105
203820 On ch=1 n=c#6 v=105
204192 On ch=1 n=c#6 v=0
204192 On ch=1 n=a#6 v=0
204192 On ch=1 n=c#7 v=0
204192 On ch=1 n=c#7 v=105
204192 On ch=1 n=g#6 v=105
204192 On ch=1 n=c#6 v=105
205174 On ch=1 n=c#6 v=0
205174 On ch=1 n=g#6 v=0
205174 On ch=1 n=c#7 v=0
214578 On ch=1 n=c#6 v=93
214578 On ch=1 n=g#5 v=93
214578 On ch=1 n=c#5 v=93
215480 On ch=1 n=c#5 v=0
215480 On ch=1 n=g#5 v=0
215480 On ch=1 n=c#6 v=0
215480 On ch=1 n=c#7 v=93
215480 On ch=1 n=g#6 v=93
215480 On ch=1 n=c#6 v=93
215824 On ch=1 n=c#6 v=0
215824 On ch=1 n=g#6 v=0
215824 On ch=1 n=c#7 v=0
215824 On ch=1 n=c#7 v=93
215824 On ch=1 n=a#6 v=93
215824 On ch=1 n=c#6 v=93
216210 On ch=1 n=c#6 v=0
216210 On ch=1 n=a#6 v=0
216210 On ch=1 n=c#7 v=0
216210 On ch=1 n=c#7 v=93
216210 On ch=1 n=g#6 v=93
216210 On ch=1 n=c#6 v=93
217270 On ch=1 n=c#6 v=0
217270 On ch=1 n=g#6 v=0
217270 On ch=1 n=c#7 v=0
291666 On ch=1 n=b4 v=61
294560 On ch=1 n=b4 v=0
300520 On ch=1 n=g5 v=47
301554 On ch=1 n=g5 v=0
301554 On ch=1 n=b5 v=45
302566 On ch=1 n=b5 v=0
302566 On ch=1 n=g5 v=45
303602 On ch=1 n=g5 v=0
303602 On ch=1 n=b5 v=39
306730 On ch=1 n=b5 v=0
415472 On ch=1 n=c#7 v=106
415472 On ch=1 n=g#6 v=106
415472 On ch=1 n=c#6 v=106
415854 On ch=1 n=c#6 v=0
415854 On ch=1 n=g#6 v=0
415854 On ch=1 n=c#7 v=0
415854 On ch=1 n=c#7 v=105
415854 On ch=1 n=a#6 v=105
415854 On ch=1 n=c#6 v=105
416212 On ch=1 n=c#6 v=0
416212 On ch=1 n=a#6 v=0
416212 On ch=1 n=c#7 v=0
416212 On ch=1 n=c#7 v=104
416212 On ch=1 n=g#6 v=104
416212 On ch=1 n=c#6 v=104
417110 On ch=1 n=c#6 v=0
417110 On ch=1 n=g#6 v=0
417110 On ch=1 n=c#7 v=0
425780 On ch=1 n=c#6 v=69
425780 On ch=1 n=g#5 v=69
425780 On ch=1 n=c#5 v=69
426758 On ch=1 n=c#5 v=0
426758 On ch=1 n=g#5 v=0
426758 On ch=1 n=c#6 v=0
426758 On ch=1 n=c#7 v=105
426758 On ch=1 n=g#6 v=105
426758 On ch=1 n=c#6 v=105
427142 On ch=1 n=c#6 v=0
427142 On ch=1 n=g#6 v=0
427142 On ch=1 n=c#7 v=0
427142 On ch=1 n=c#7 v=104
427142 On ch=1 n=a#6 v=104
427142 On ch=1 n=c#6 v=104
427470 On ch=1 n=c#6 v=0
427470 On ch=1 n=a#6 v=0
427470 On ch=1 n=c#7 v=0
427470 On ch=1 n=c#7 v=104
427470 On ch=1 n=g#6 v=104
427470 On ch=1 n=c#6 v=104
428378 On ch=1 n=c#6 v=0
428378 On ch=1 n=g#6 v=0
428378 On ch=1 n=c#7 v=0
497024 On ch=1 n=b4 v=53
499822 On ch=1 n=b4 v=0
505534 On ch=1 n=g5 v=47
506532 On ch=1 n=g5 v=0
506532 On ch=1 n=b5 v=44
507536 On ch=1 n=b5 v=0
507536 On ch=1 n=g5 v=44
508554 On ch=1 n=g5 v=0
508554 On ch=1 n=b5 v=41
511642 On ch=1 n=b5 v=0
699748 On ch=1 n=g#5 v=100
699748 On ch=1 n=e5 v=100
699748 On ch=1 n=a#4 v=100
700332 On ch=1 n=a#4 v=0
700332 On ch=1 n=e5 v=0
700332 On ch=1 n=g#5 v=0
700616 On ch=1 n=g5 v=103
700616 On ch=1 n=e5 v=103
700616 On ch=1 n=a#4 v=103
701146 On ch=1 n=a#4 v=0
701146 On ch=1 n=e5 v=0
701146 On ch=1 n=g5 v=0
721276 On ch=1 n=g#5 v=106
721276 On ch=1 n=e5 v=106
721276 On ch=1 n=a#4 v=106
721850 On ch=1 n=a#4 v=0
721850 On ch=1 n=e5 v=0
721850 On ch=1 n=g#5 v=0
722146 On ch=1 n=g5 v=108
722146 On ch=1 n=e5 v=108
722146 On ch=1 n=a#4 v=108
722726 On ch=1 n=a#4 v=0
722726 On ch=1 n=e5 v=0
722726 On ch=1 n=g5 v=0
845464 On ch=1 n=d#5 v=49
846344 On ch=1 n=c6 v=46
847218 On ch=1 n=c6 v=0
847218 On ch=1 n=d#5 v=0
847218 On ch=1 n=a#5 v=50
850760 On ch=1 n=a#5 v=0
850760 On ch=1 n=c5 v=46
851690 On ch=1 n=c6 v=52
852626 On ch=1 n=c6 v=0
852626 On ch=1 n=c5 v=0
852626 On ch=1 n=a#5 v=62
856128 On ch=1 n=a#5 v=0
856128 On ch=1 n=c5 v=67
857024 On ch=1 n=a#5 v=68
857914 On ch=1 n=a#5 v=0
857914 On ch=1 n=c5 v=0
857914 On ch=1 n=g#5 v=72
859656 On ch=1 n=g#5 v=0
859656 On ch=1 n=g5 v=75
862292 On ch=1 n=g5 v=0
862292 On ch=1 n=f5 v=77
863182 On ch=1 n=f5 v=0
863182 On ch=1 n=a#5 v=78
864054 On ch=1 n=a#5 v=0
864054 On ch=1 n=g#5 v=80
865794 On ch=1 n=g#5 v=0
865794 On ch=1 n=g5 v=80
867562 On ch=1 n=g5 v=0
867562 On ch=1 n=a#5 v=80
868452 On ch=1 n=a#5 v=0
868452 On ch=1 n=g#5 v=81
870238 On ch=1 n=g#5 v=0
870238 On ch=1 n=g5 v=81
872838 On ch=1 n=g5 v=0
872838 On ch=1 n=a#5 v=82
873714 On ch=1 n=a#5 v=0
873714 On ch=1 n=g#5 v=82
875490 On ch=1 n=g#5 v=0
875490 On ch=1 n=g5 v=82
878134 On ch=1 n=g5 v=0
878134 On ch=1 n=a#5 v=80
879050 On ch=1 n=a#5 v=0
879050 On ch=1 n=g#5 v=82
880788 On ch=1 n=g#5 v=0
880788 On ch=1 n=g5 v=80
883386 On ch=1 n=g5 v=0
883386 On ch=1 n=a#5 v=90
884248 On ch=1 n=a#5 v=0
884248 On ch=1 n=g#5 v=90
885976 On ch=1 n=g#5 v=0
885976 On ch=1 n=g5 v=85
887714 On ch=1 n=g5 v=0
888554 On ch=1 n=c6 v=90
889412 On ch=1 n=c6 v=0
889412 On ch=1 n=c6 v=90
890244 On ch=1 n=c6 v=0
890244 On ch=1 n=c6 v=90
891116 On ch=1 n=c6 v=0
891116 On ch=1 n=a#5 v=86
891972 On ch=1 n=a#5 v=0
891972 On ch=1 n=a#5 v=86
892840 On ch=1 n=a#5 v=0
893688 On ch=1 n=a#5 v=86
894540 On ch=1 n=a#5 v=0
894540 On ch=1 n=a#5 v=86
895376 On ch=1 n=a#5 v=0
895376 On ch=1 n=a#5 v=86
896230 On ch=1 n=a#5 v=0
896230 On ch=1 n=g#5 v=86
897112 On ch=1 n=g#5 v=0
897112 On ch=1 n=g#5 v=86
897962 On ch=1 n=g#5 v=0
897962 On ch=1 n=g#5 v=86
898832 On ch=1 n=g#5 v=0
898832 On ch=1 n=g5 v=86
899650 On ch=1 n=g5 v=0
900506 On ch=1 n=g5 v=86
901352 On ch=1 n=g5 v=0
901352 On ch=1 n=g5 v=86
902206 On ch=1 n=g5 v=0
902206 On ch=1 n=a5 v=86
903088 On ch=1 n=a5 v=0
903088 On ch=1 n=a5 v=77
904858 On ch=1 n=a5 v=0
904858 On ch=1 n=b5 v=73
905742 On ch=1 n=b5 v=0
905742 On ch=1 n=c6 v=73
906614 On ch=1 n=c6 v=0
906614 On ch=1 n=d#6 v=80
907914 On ch=1 n=d#6 v=0
907914 On ch=1 n=d6 v=73
908362 On ch=1 n=d6 v=0
908362 On ch=1 n=c6 v=70
909298 On ch=1 n=c6 v=0
929914 On ch=1 n=c6 v=93
931724 On ch=1 n=c6 v=0
931724 On ch=1 n=a#5 v=93
932598 On ch=1 n=a#5 v=0
932598 On ch=1 n=g#5 v=94
933518 On ch=1 n=g#5 v=0
933518 On ch=1 n=c#6 v=99
934384 On ch=1 n=c#6 v=0
934384 On ch=1 n=c6 v=96
935254 On ch=1 n=c6 v=0
935254 On ch=1 n=a#5 v=98
936132 On ch=1 n=a#5 v=0
936132 On ch=1 n=g#5 v=96
937042 On ch=1 n=g#5 v=0
937042 On ch=1 n=c#6 v=97
937916 On ch=1 n=c#6 v=0
937916 On ch=1 n=c6 v=101
938748 On ch=1 n=c6 v=0
938748 On ch=1 n=c6 v=99
938956 On ch=1 n=c6 v=0
938956 On ch=1 n=a#5 v=99
939588 On ch=1 n=a#5 v=0
939588 On ch=1 n=g#5 v=98
940504 On ch=1 n=g#5 v=0
940504 On ch=1 n=f6 v=109
940504 On ch=1 n=g#5 v=109
940504 On ch=1 n=f5 v=109
942228 On ch=1 n=f5 v=0
942228 On ch=1 n=g#5 v=0
942228 On ch=1 n=f6 v=0
947576 On ch=1 n=g5 v=121
947576 On ch=1 n=f5 v=121
947576 On ch=1 n=b4 v=121
947576 On ch=1 n=g4 v=121
951102 On ch=1 n=g4 v=0
951102 On ch=1 n=b4 v=0
951102 On ch=1 n=f5 v=0
951102 On ch=1 n=g5 v=0
951102 On ch=1 n=g5 v=104
951102 On ch=1 n=d#5 v=104
951102 On ch=1 n=c5 v=104
951102 On ch=1 n=g4 v=104
967922 On ch=1 n=g4 v=0
967922 On ch=1 n=c5 v=0
967922 On ch=1 n=d#5 v=0
967922 On ch=1 n=g5 v=0
967922 Meta TrkEnd
TrkEnd
MTrk
0 SeqSpec 43 00 01 00
0 Meta TrkName "2Accompagnement main gauche"
6 PrCh ch=2 p=0
6 Par ch=2 c=10 v=45
6 Par ch=2 c=91 v=70
6 Par ch=2 c=7 v=120
12592 On ch=2 n=c2 v=67
13622 On ch=2 n=c2 v=0
14150 On ch=2 n=g2 v=72
14646 On ch=2 n=g2 v=0
14646 On ch=2 n=d#3 v=79
17760 On ch=2 n=d#3 v=0
17760 On ch=2 n=d3 v=84
18762 On ch=2 n=d3 v=0
18762 On ch=2 n=d3 v=80
19260 On ch=2 n=d3 v=0
19260 On ch=2 n=c3 v=78
19754 On ch=2 n=c3 v=0
19754 On ch=2 n=b2 v=79
20246 On ch=2 n=b2 v=0
20246 On ch=2 n=c3 v=86
20742 On ch=2 n=c3 v=0
20742 On ch=2 n=g2 v=81
24930 On ch=2 n=g2 v=0
24930 On ch=2 n=d#3 v=75
26480 On ch=2 n=d#3 v=0
26480 On ch=2 n=c3 v=72
26990 On ch=2 n=c3 v=0
26990 On ch=2 n=g3 v=75
30146 On ch=2 n=g3 v=0
30146 On ch=2 n=f3 v=78
31168 On ch=2 n=f3 v=0
31168 On ch=2 n=f3 v=73
31662 On ch=2 n=f3 v=0
31662 On ch=2 n=d#3 v=75
32168 On ch=2 n=d#3 v=0
32168 On ch=2 n=d3 v=71
32666 On ch=2 n=d3 v=0
32666 On ch=2 n=d#3 v=68
33138 On ch=2 n=d#3 v=0
33138 On ch=2 n=c3 v=75
37158 On ch=2 n=c3 v=0
37158 On ch=2 n=d#4 v=79
39190 On ch=2 n=d#4 v=0
39190 On ch=2 n=d#3 v=75
42140 On ch=2 n=d#3 v=0
42140 On ch=2 n=d3 v=75
43132 On ch=2 n=d3 v=0
43132 On ch=2 n=d4 v=77
45058 On ch=2 n=d4 v=0
45058 On ch=2 n=d3 v=89
48048 On ch=2 n=d3 v=0
48048 On ch=2 n=c#3 v=78
49030 On ch=2 n=c#3 v=0
49030 On ch=2 n=c3 v=78
50472 On ch=2 n=c3 v=0
50472 On ch=2 n=b2 v=80
50986 On ch=2 n=b2 v=0
50986 On ch=2 n=f3 v=87
53004 On ch=2 n=f3 v=0
53004 On ch=2 n=d#3 v=93
54978 On ch=2 n=d#3 v=0
54978 On ch=2 n=d#3 v=86
55948 On ch=2 n=d#3 v=0
55948 On ch=2 n=d3 v=79
56952 On ch=2 n=d3 v=0
59946 On ch=2 n=g2 v=75
60922 On ch=2 n=g2 v=0
60922 On ch=2 n=c2 v=75
61920 On ch=2 n=c2 v=0
62410 On ch=2 n=g2 v=77
62884 On ch=2 n=g2 v=0
62884 On ch=2 n=d#3 v=84
65816 On ch=2 n=d#3 v=0
65816 On ch=2 n=d3 v=86
66824 On ch=2 n=d3 v=0
66824 On ch=2 n=d3 v=91
67282 On ch=2 n=d3 v=0
67282 On ch=2 n=c3 v=87
67762 On ch=2 n=c3 v=0
67762 On ch=2 n=b2 v=81
68248 On ch=2 n=b2 v=0
68248 On ch=2 n=c3 v=86
68748 On ch=2 n=c3 v=0
68748 On ch=2 n=g2 v=93
70708 On ch=2 n=g2 v=0
70708 On ch=2 n=a#2 v=86
72648 On ch=2 n=a#2 v=0
72648 On ch=2 n=d#2 v=93
73600 On ch=2 n=d#2 v=0
74094 On ch=2 n=a#2 v=93
74550 On ch=2 n=a#2 v=0
74550 On ch=2 n=g3 v=93
77554 On ch=2 n=g3 v=0
77554 On ch=2 n=f3 v=93
78540 On ch=2 n=f3 v=0
78540 On ch=2 n=f3 v=93
79006 On ch=2 n=f3 v=0
79006 On ch=2 n=d#3 v=93
79480 On ch=2 n=d#3 v=0
79480 On ch=2 n=d3 v=93
79956 On ch=2 n=d3 v=0
79956 On ch=2 n=d#3 v=93
80456 On ch=2 n=d#3 v=0
80456 On ch=2 n=d#2 v=93
84424 On ch=2 n=d#2 v=0
84424 On ch=2 n=g#3 v=79
86372 On ch=2 n=g#3 v=0
86372 On ch=2 n=g#2 v=72
89332 On ch=2 n=g#2 v=0
89332 On ch=2 n=g#2 v=72
90332 On ch=2 n=g#2 v=0
90332 On ch=2 n=g#3 v=71
92306 On ch=2 n=g#3 v=0
92306 On ch=2 n=g2 v=69
95332 On ch=2 n=g2 v=0
95332 On ch=2 n=g2 v=66
96320 On ch=2 n=g2 v=0
96320 On ch=2 n=g3 v=68
98320 On ch=2 n=g3 v=0
98320 On ch=2 n=f3 v=68
99300 On ch=2 n=f3 v=0
99300 On ch=2 n=d#3 v=70
100302 On ch=2 n=d#3 v=0
100302 On ch=2 n=f3 v=68
101288 On ch=2 n=f3 v=0
101288 On ch=2 n=c3 v=64
102300 On ch=2 n=c3 v=0
103312 On ch=2 n=g2 v=68
104312 On ch=2 n=g2 v=0
104312 On ch=2 n=d3 v=70
106334 On ch=2 n=d3 v=0
106334 On ch=2 n=c3 v=68
107266 On ch=2 n=c3 v=0
108280 On ch=2 n=c2 v=93
109238 On ch=2 n=c2 v=0
109716 On ch=2 n=g2 v=93
110226 On ch=2 n=g2 v=0
110226 On ch=2 n=d#3 v=100
113234 On ch=2 n=d#3 v=0
113234 On ch=2 n=d3 v=96
114270 On ch=2 n=d3 v=0
114270 On ch=2 n=d3 v=100
114756 On ch=2 n=d3 v=0
114756 On ch=2 n=c3 v=100
115224 On ch=2 n=c3 v=0
115224 On ch=2 n=b2 v=96
115712 On ch=2 n=b2 v=0
115712 On ch=2 n=c3 v=93
116186 On ch=2 n=c3 v=0
116186 On ch=2 n=g2 v=93
120176 On ch=2 n=g2 v=0
120176 On ch=2 n=d#3 v=93
121648 On ch=2 n=d#3 v=0
121648 On ch=2 n=c3 v=98
122120 On ch=2 n=c3 v=0
122120 On ch=2 n=g3 v=103
125166 On ch=2 n=g3 v=0
125166 On ch=2 n=f3 v=98
126166 On ch=2 n=f3 v=0
126166 On ch=2 n=f3 v=108
126672 On ch=2 n=f3 v=0
126672 On ch=2 n=d#3 v=93
127090 On ch=2 n=d#3 v=0
127090 On ch=2 n=d3 v=93
127582 On ch=2 n=d3 v=0
127582 On ch=2 n=d#3 v=95
128058 On ch=2 n=d#3 v=0
128058 On ch=2 n=c3 v=100
132032 On ch=2 n=c3 v=0
132032 On ch=2 n=d#4 v=100
133962 On ch=2 n=d#4 v=0
133962 On ch=2 n=d#3 v=100
136798 On ch=2 n=d#3 v=0
136798 On ch=2 n=d3 v=93
137782 On ch=2 n=d3 v=0
137782 On ch=2 n=d4 v=93
139704 On ch=2 n=d4 v=0
139704 On ch=2 n=d3 v=93
142584 On ch=2 n=d3 v=0
142584 On ch=2 n=c#3 v=93
143572 On ch=2 n=c#3 v=0
143572 On ch=2 n=c3 v=93
145102 On ch=2 n=c3 v=0
145102 On ch=2 n=b2 v=93
145558 On ch=2 n=b2 v=0
145558 On ch=2 n=f3 v=93
147568 On ch=2 n=f3 v=0
147568 On ch=2 n=d#3 v=93
149584 On ch=2 n=d#3 v=0
149584 On ch=2 n=d#3 v=93
150576 On ch=2 n=d#3 v=0
150576 On ch=2 n=d3 v=93
151564 On ch=2 n=d3 v=0
154482 On ch=2 n=g2 v=78
155484 On ch=2 n=g2 v=0
155484 On ch=2 n=c2 v=68
156480 On ch=2 n=c2 v=0
156986 On ch=2 n=g2 v=72
157482 On ch=2 n=g2 v=0
157482 On ch=2 n=d#3 v=71
160498 On ch=2 n=d#3 v=0
160498 On ch=2 n=d3 v=91
161488 On ch=2 n=d3 v=0
161488 On ch=2 n=d3 v=89
161980 On ch=2 n=d3 v=0
161980 On ch=2 n=c3 v=87
162452 On ch=2 n=c3 v=0
162452 On ch=2 n=b2 v=89
162912 On ch=2 n=b2 v=0
162912 On ch=2 n=c3 v=92
163368 On ch=2 n=c3 v=0
163368 On ch=2 n=g2 v=93
165286 On ch=2 n=g2 v=0
165286 On ch=2 n=a#2 v=93
167236 On ch=2 n=a#2 v=0
167236 On ch=2 n=d#2 v=93
168232 On ch=2 n=d#2 v=0
168728 On ch=2 n=a#2 v=100
169216 On ch=2 n=a#2 v=0
169216 On ch=2 n=g3 v=108
172206 On ch=2 n=g3 v=0
172206 On ch=2 n=f3 v=100
173212 On ch=2 n=f3 v=0
173212 On ch=2 n=f3 v=104
173670 On ch=2 n=f3 v=0
173670 On ch=2 n=d#3 v=96
174124 On ch=2 n=d#3 v=0
174124 On ch=2 n=d3 v=93
174572 On ch=2 n=d3 v=0
174572 On ch=2 n=d#3 v=93
175048 On ch=2 n=d#3 v=0
175048 On ch=2 n=d#2 v=93
178928 On ch=2 n=d#2 v=0
178928 On ch=2 n=g#3 v=81
180890 On ch=2 n=g#3 v=0
180890 On ch=2 n=g#2 v=77
183798 On ch=2 n=g#2 v=0
183798 On ch=2 n=g#2 v=72
184788 On ch=2 n=g#2 v=0
184788 On ch=2 n=g#3 v=72
186746 On ch=2 n=g#3 v=0
186746 On ch=2 n=g2 v=72
189682 On ch=2 n=g2 v=0
189682 On ch=2 n=g2 v=69
190636 On ch=2 n=g2 v=0
190636 On ch=2 n=g3 v=71
192624 On ch=2 n=g3 v=0
192624 On ch=2 n=f3 v=72
193634 On ch=2 n=f3 v=0
193634 On ch=2 n=d#3 v=74
194630 On ch=2 n=d#3 v=0
194630 On ch=2 n=f3 v=74
195644 On ch=2 n=f3 v=0
195644 On ch=2 n=c3 v=71
196620 On ch=2 n=c3 v=0
197568 On ch=2 n=g2 v=75
198552 On ch=2 n=g2 v=0
198552 On ch=2 n=d3 v=89
200562 On ch=2 n=d3 v=0
200562 On ch=2 n=c3 v=87
201500 On ch=2 n=c3 v=0
202600 On ch=2 n=c#5 v=120
202600 On ch=2 n=g#4 v=120
202600 On ch=2 n=c#4 v=120
202600 On ch=2 n=f3 v=120
202600 On ch=2 n=f2 v=120
203466 On ch=2 n=f2 v=0
203466 On ch=2 n=f3 v=0
203466 On ch=2 n=c#4 v=0
203466 On ch=2 n=g#4 v=0
203466 On ch=2 n=c#5 v=0
203466 On ch=2 n=f5 v=107
203466 On ch=2 n=c#5 v=107
203466 On ch=2 n=g#4 v=107
203466 On ch=2 n=f4 v=107
203820 On ch=2 n=f4 v=0
203820 On ch=2 n=g#4 v=0
203820 On ch=2 n=c#5 v=0
203820 On ch=2 n=f5 v=0
203820 On ch=2 n=f5 v=105
203820 On ch=2 n=c#5 v=105
203820 On ch=2 n=g#4 v=105
203820 On ch=2 n=f4 v=105
204192 On ch=2 n=f4 v=0
204192 On ch=2 n=g#4 v=0
204192 On ch=2 n=c#5 v=0
204192 On ch=2 n=f5 v=0
204192 On ch=2 n=f5 v=105
204192 On ch=2 n=c#5 v=105
204192 On ch=2 n=g#4 v=105
204192 On ch=2 n=f4 v=105
205174 On ch=2 n=f4 v=0
205174 On ch=2 n=g#4 v=0
205174 On ch=2 n=c#5 v=0
205174 On ch=2 n=f5 v=0
205174 On ch=2 n=g#5 v=106
205174 On ch=2 n=g#4 v=106
207388 On ch=2 n=g#4 v=0
207388 On ch=2 n=g#5 v=0
214578 On ch=2 n=f4 v=93
214578 On ch=2 n=f3 v=93
215480 On ch=2 n=f3 v=0
215480 On ch=2 n=f4 v=0
215480 On ch=2 n=f5 v=93
215480 On ch=2 n=c#5 v=93
215480 On ch=2 n=g#4 v=93
215480 On ch=2 n=f4 v=93
215824 On ch=2 n=f4 v=0
215824 On ch=2 n=g#4 v=0
215824 On ch=2 n=c#5 v=0
215824 On ch=2 n=f5 v=0
215824 On ch=2 n=f5 v=93
215824 On ch=2 n=c#5 v=93
215824 On ch=2 n=g#4 v=93
215824 On ch=2 n=f4 v=93
216210 On ch=2 n=f4 v=0
216210 On ch=2 n=g#4 v=0
216210 On ch=2 n=c#5 v=0
216210 On ch=2 n=f5 v=0
216210 On ch=2 n=f5 v=93
216210 On ch=2 n=c#5 v=93
216210 On ch=2 n=g#4 v=93
216210 On ch=2 n=f4 v=93
217270 On ch=2 n=f4 v=0
217270 On ch=2 n=g#4 v=0
217270 On ch=2 n=c#5 v=0
217270 On ch=2 n=f5 v=0
217270 On ch=2 n=g#5 v=76
217270 On ch=2 n=g#4 v=76
219576 On ch=2 n=g#4 v=0
219576 On ch=2 n=g#5 v=0
244500 On ch=2 n=g2 v=108
245470 On ch=2 n=g2 v=0
245470 On ch=2 n=g3 v=94
246448 On ch=2 n=g3 v=0
246448 On ch=2 n=d4 v=94
247408 On ch=2 n=d4 v=0
247408 On ch=2 n=g4 v=94
248346 On ch=2 n=g4 v=0
248346 On ch=2 n=a4 v=89
249330 On ch=2 n=a4 v=0
249330 On ch=2 n=b4 v=86
250284 On ch=2 n=b4 v=0
250284 On ch=2 n=c5 v=80
252250 On ch=2 n=c5 v=0
252250 On ch=2 n=e5 v=78
254260 On ch=2 n=e5 v=0
254260 On ch=2 n=f#5 v=75
256222 On ch=2 n=f#5 v=0
256222 On ch=2 n=g4 v=73
258174 On ch=2 n=d5 v=70
260136 On ch=2 n=d5 v=0
260136 On ch=2 n=d5 v=64
262088 On ch=2 n=d5 v=0
262088 On ch=2 n=g4 v=0
262088 On ch=2 n=d5 v=62
262088 On ch=2 n=g4 v=62
264082 On ch=2 n=a5 v=64
266090 On ch=2 n=a5 v=0
268064 On ch=2 n=g4 v=0
268064 On ch=2 n=d5 v=0
268064 On ch=2 n=g2 v=60
269062 On ch=2 n=g2 v=0
269062 On ch=2 n=g3 v=60
270060 On ch=2 n=g3 v=0
270060 On ch=2 n=d4 v=60
271080 On ch=2 n=d4 v=0
271080 On ch=2 n=g4 v=61
272092 On ch=2 n=g4 v=0
272092 On ch=2 n=a4 v=59
273088 On ch=2 n=a4 v=0
273088 On ch=2 n=b4 v=60
274066 On ch=2 n=b4 v=0
274066 On ch=2 n=g3 v=60
276088 On ch=2 n=e4 v=61
278046 On ch=2 n=e4 v=0
278046 On ch=2 n=f#4 v=60
279980 On ch=2 n=f#4 v=0
279980 On ch=2 n=g3 v=0
279980 On ch=2 n=g3 v=61
281942 On ch=2 n=d4 v=60
283890 On ch=2 n=d4 v=0
283890 On ch=2 n=d4 v=60
285836 On ch=2 n=d4 v=0
285836 On ch=2 n=d4 v=60
287774 On ch=2 n=a4 v=59
289718 On ch=2 n=a4 v=0
291666 On ch=2 n=d4 v=0
291666 On ch=2 n=g3 v=0
291666 On ch=2 n=d4 v=61
291666 On ch=2 n=g3 v=61
294560 On ch=2 n=g4 v=58
295566 On ch=2 n=g4 v=0
295566 On ch=2 n=b4 v=55
296572 On ch=2 n=b4 v=0
296572 On ch=2 n=g4 v=56
297548 On ch=2 n=g4 v=0
297548 On ch=2 n=g3 v=0
297548 On ch=2 n=d4 v=0
297548 On ch=2 n=b4 v=56
297548 On ch=2 n=d4 v=56
297548 On ch=2 n=g3 v=56
303602 On ch=2 n=g3 v=0
303602 On ch=2 n=d4 v=0
303602 On ch=2 n=b4 v=0
303602 On ch=2 n=b4 v=39
303602 On ch=2 n=d4 v=39
303602 On ch=2 n=g3 v=39
306730 On ch=2 n=g3 v=0
306730 On ch=2 n=d4 v=0
306730 On ch=2 n=b4 v=0
326798 On ch=2 n=c2 v=113
327706 On ch=2 n=c2 v=0
328176 On ch=2 n=g2 v=87
328612 On ch=2 n=g2 v=0
328612 On ch=2 n=d#3 v=91
331306 On ch=2 n=d#3 v=0
331306 On ch=2 n=d3 v=101
332274 On ch=2 n=d3 v=0
332274 On ch=2 n=d3 v=94
332714 On ch=2 n=d3 v=0
332714 On ch=2 n=c3 v=95
333156 On ch=2 n=c3 v=0
333156 On ch=2 n=b2 v=92
333598 On ch=2 n=b2 v=0
333598 On ch=2 n=c3 v=91
334056 On ch=2 n=c3 v=0
334056 On ch=2 n=g2 v=91
337740 On ch=2 n=g2 v=0
337740 On ch=2 n=d#3 v=100
339132 On ch=2 n=d#3 v=0
339132 On ch=2 n=c3 v=100
339610 On ch=2 n=c3 v=0
339610 On ch=2 n=g3 v=109
342410 On ch=2 n=g3 v=0
342410 On ch=2 n=f3 v=104
343356 On ch=2 n=f3 v=0
343356 On ch=2 n=f3 v=109
343780 On ch=2 n=f3 v=0
343780 On ch=2 n=d#3 v=105
344224 On ch=2 n=d#3 v=0
344224 On ch=2 n=d3 v=102
344664 On ch=2 n=d3 v=0
344664 On ch=2 n=d#3 v=109
345124 On ch=2 n=d#3 v=0
345124 On ch=2 n=c3 v=112
348866 On ch=2 n=c3 v=0
348866 On ch=2 n=d#4 v=109
350632 On ch=2 n=d#4 v=0
350632 On ch=2 n=d#3 v=104
353366 On ch=2 n=d#3 v=0
353366 On ch=2 n=d3 v=94
354286 On ch=2 n=d3 v=0
354286 On ch=2 n=d4 v=95
356144 On ch=2 n=d4 v=0
356144 On ch=2 n=d3 v=94
358936 On ch=2 n=d3 v=0
358936 On ch=2 n=c#3 v=94
359884 On ch=2 n=c#3 v=0
359884 On ch=2 n=c3 v=94
361300 On ch=2 n=c3 v=0
361300 On ch=2 n=b2 v=86
361746 On ch=2 n=b2 v=0
361746 On ch=2 n=f3 v=94
363576 On ch=2 n=f3 v=0
363576 On ch=2 n=d#3 v=94
365444 On ch=2 n=d#3 v=0
365444 On ch=2 n=d#3 v=94
366346 On ch=2 n=d#3 v=0
366346 On ch=2 n=d3 v=94
367244 On ch=2 n=d3 v=0
370056 On ch=2 n=g2 v=78
370952 On ch=2 n=g2 v=0
370952 On ch=2 n=c2 v=78
371866 On ch=2 n=c2 v=0
372342 On ch=2 n=g2 v=94
372798 On ch=2 n=g2 v=0
372798 On ch=2 n=d#3 v=94
375556 On ch=2 n=d#3 v=0
375556 On ch=2 n=d3 v=94
376478 On ch=2 n=d3 v=0
376478 On ch=2 n=d3 v=94
376918 On ch=2 n=d3 v=0
376918 On ch=2 n=c3 v=94
377362 On ch=2 n=c3 v=0
377362 On ch=2 n=b3 v=94
377362 On ch=2 n=a2 v=94
377810 On ch=2 n=a2 v=0
377810 On ch=2 n=b3 v=0
377810 On ch=2 n=c3 v=94
378240 On ch=2 n=c3 v=0
378240 On ch=2 n=g2 v=97
380106 On ch=2 n=g2 v=0
380106 On ch=2 n=a#2 v=100
381924 On ch=2 n=a#2 v=0
381924 On ch=2 n=d#2 v=102
382844 On ch=2 n=d#2 v=0
383286 On ch=2 n=a#2 v=100
383702 On ch=2 n=a#2 v=0
383702 On ch=2 n=g3 v=102
386396 On ch=2 n=g3 v=0
386396 On ch=2 n=f3 v=98
387332 On ch=2 n=f3 v=0
387332 On ch=2 n=f3 v=101
387770 On ch=2 n=f3 v=0
387770 On ch=2 n=d#3 v=100
388212 On ch=2 n=d#3 v=0
388212 On ch=2 n=d3 v=98
388658 On ch=2 n=d3 v=0
388658 On ch=2 n=d#3 v=98
389132 On ch=2 n=d#3 v=0
389132 On ch=2 n=d#2 v=101
392744 On ch=2 n=d#2 v=0
392744 On ch=2 n=g#3 v=98
394634 On ch=2 n=g#3 v=0
394634 On ch=2 n=g#2 v=94
397316 On ch=2 n=g#2 v=0
397316 On ch=2 n=g#2 v=96
398230 On ch=2 n=g#2 v=0
398230 On ch=2 n=g#3 v=89
400100 On ch=2 n=g#3 v=0
400100 On ch=2 n=g2 v=85
402736 On ch=2 n=g2 v=0
402736 On ch=2 n=g2 v=81
403594 On ch=2 n=g2 v=0
403594 On ch=2 n=g3 v=82
405430 On ch=2 n=g3 v=0
405430 On ch=2 n=f3 v=79
406360 On ch=2 n=f3 v=0
406360 On ch=2 n=d#3 v=75
407302 On ch=2 n=d#3 v=0
407302 On ch=2 n=f3 v=77
408202 On ch=2 n=f3 v=0
408202 On ch=2 n=c3 v=74
409092 On ch=2 n=c3 v=0
410054 On ch=2 n=g2 v=72
410966 On ch=2 n=g2 v=0
410966 On ch=2 n=d3 v=74
412816 On ch=2 n=d3 v=0
412816 On ch=2 n=c3 v=77
413690 On ch=2 n=c3 v=0
414636 On ch=2 n=c#5 v=108
414636 On ch=2 n=g#4 v=108
414636 On ch=2 n=c#4 v=108
414636 On ch=2 n=f3 v=108
414636 On ch=2 n=f2 v=108
415472 On ch=2 n=f2 v=0
415472 On ch=2 n=f3 v=0
415472 On ch=2 n=c#4 v=0
415472 On ch=2 n=g#4 v=0
415472 On ch=2 n=c#5 v=0
415472 On ch=2 n=f5 v=106
415472 On ch=2 n=c#5 v=106
415472 On ch=2 n=g#4 v=106
415472 On ch=2 n=f4 v=106
415854 On ch=2 n=f4 v=0
415854 On ch=2 n=g#4 v=0
415854 On ch=2 n=c#5 v=0
415854 On ch=2 n=f5 v=0
415854 On ch=2 n=f5 v=105
415854 On ch=2 n=c#5 v=105
415854 On ch=2 n=g#4 v=105
415854 On ch=2 n=f4 v=105
416212 On ch=2 n=f4 v=0
416212 On ch=2 n=g#4 v=0
416212 On ch=2 n=c#5 v=0
416212 On ch=2 n=f5 v=0
416212 On ch=2 n=f5 v=104
416212 On ch=2 n=c#5 v=104
416212 On ch=2 n=g#4 v=104
416212 On ch=2 n=f4 v=104
417110 On ch=2 n=f4 v=0
417110 On ch=2 n=g#4 v=0
417110 On ch=2 n=c#5 v=0
417110 On ch=2 n=f5 v=0
417110 On ch=2 n=g#5 v=104
417110 On ch=2 n=g#4 v=104
419092 On ch=2 n=g#4 v=0
419092 On ch=2 n=g#5 v=0
425780 On ch=2 n=f4 v=69
425780 On ch=2 n=f3 v=69
426758 On ch=2 n=f3 v=0
426758 On ch=2 n=f4 v=0
426758 On ch=2 n=f5 v=105
426758 On ch=2 n=c#5 v=105
426758 On ch=2 n=g#4 v=105
426758 On ch=2 n=f4 v=105
427142 On ch=2 n=f4 v=0
427142 On ch=2 n=g#4 v=0
427142 On ch=2 n=c#5 v=0
427142 On ch=2 n=f5 v=0
427142 On ch=2 n=f5 v=104
427142 On ch=2 n=c#5 v=104
427142 On ch=2 n=g#4 v=104
427142 On ch=2 n=f4 v=104
427470 On ch=2 n=f4 v=0
427470 On ch=2 n=g#4 v=0
427470 On ch=2 n=c#5 v=0
427470 On ch=2 n=f5 v=0
427470 On ch=2 n=f5 v=104
427470 On ch=2 n=c#5 v=104
427470 On ch=2 n=g#4 v=104
427470 On ch=2 n=f4 v=104
428378 On ch=2 n=f4 v=0
428378 On ch=2 n=g#4 v=0
428378 On ch=2 n=c#5 v=0
428378 On ch=2 n=f5 v=0
428378 On ch=2 n=g#5 v=102
428378 On ch=2 n=g#4 v=102
430304 On ch=2 n=g#4 v=0
430304 On ch=2 n=g#5 v=0
453192 On ch=2 n=g2 v=89
454100 On ch=2 n=g2 v=0
454100 On ch=2 n=g3 v=89
454978 On ch=2 n=g3 v=0
454978 On ch=2 n=d4 v=89
455860 On ch=2 n=d4 v=0
455860 On ch=2 n=g4 v=89
456732 On ch=2 n=g4 v=0
456732 On ch=2 n=a4 v=89
457632 On ch=2 n=a4 v=0
457632 On ch=2 n=b4 v=78
458562 On ch=2 n=b4 v=0
458562 On ch=2 n=c5 v=71
460398 On ch=2 n=c5 v=0
460398 On ch=2 n=e5 v=71
462206 On ch=2 n=e5 v=0
462206 On ch=2 n=f#5 v=71
464018 On ch=2 n=f#5 v=0
464018 On ch=2 n=g4 v=71
465800 On ch=2 n=d5 v=68
467594 On ch=2 n=d5 v=0
467594 On ch=2 n=d5 v=71
469414 On ch=2 n=d5 v=0
469414 On ch=2 n=g4 v=0
469414 On ch=2 n=d5 v=67
469414 On ch=2 n=g4 v=67
471242 On ch=2 n=a5 v=69
473032 On ch=2 n=a5 v=0
474854 On ch=2 n=g4 v=0
474854 On ch=2 n=d5 v=0
474854 On ch=2 n=g2 v=64
475782 On ch=2 n=g2 v=0
475782 On ch=2 n=g3 v=60
476696 On ch=2 n=g3 v=0
476696 On ch=2 n=d4 v=62
477628 On ch=2 n=d4 v=0
477628 On ch=2 n=g4 v=59
478540 On ch=2 n=g4 v=0
478540 On ch=2 n=a4 v=58
479446 On ch=2 n=a4 v=0
479446 On ch=2 n=b4 v=60
480364 On ch=2 n=b4 v=0
480364 On ch=2 n=g3 v=58
482174 On ch=2 n=e4 v=62
484038 On ch=2 n=e4 v=0
484038 On ch=2 n=f#4 v=56
485888 On ch=2 n=f#4 v=0
485888 On ch=2 n=g3 v=0
485888 On ch=2 n=g3 v=49
487734 On ch=2 n=d4 v=50
489586 On ch=2 n=d4 v=0
489586 On ch=2 n=d4 v=45
491458 On ch=2 n=d4 v=0
491458 On ch=2 n=d4 v=48
493304 On ch=2 n=a4 v=41
495182 On ch=2 n=a4 v=0
497024 On ch=2 n=d4 v=0
497024 On ch=2 n=g3 v=0
497024 On ch=2 n=d4 v=53
497024 On ch=2 n=g3 v=53
499822 On ch=2 n=g4 v=49
500778 On ch=2 n=g4 v=0
500778 On ch=2 n=b4 v=43
501752 On ch=2 n=b4 v=0
501752 On ch=2 n=g4 v=49
502706 On ch=2 n=g4 v=0
502706 On ch=2 n=g3 v=0
502706 On ch=2 n=d4 v=0
502706 On ch=2 n=b4 v=43
502706 On ch=2 n=d4 v=43
502706 On ch=2 n=g3 v=43
508554 On ch=2 n=g3 v=0
508554 On ch=2 n=d4 v=0
508554 On ch=2 n=b4 v=0
508554 On ch=2 n=b4 v=41
508554 On ch=2 n=d4 v=41
508554 On ch=2 n=g3 v=41
511642 On ch=2 n=g3 v=0
511642 On ch=2 n=d4 v=0
511642 On ch=2 n=b4 v=0
531420 On ch=2 n=c2 v=89
532280 On ch=2 n=c2 v=0
532730 On ch=2 n=g2 v=87
533140 On ch=2 n=g2 v=0
533140 On ch=2 n=d#3 v=87
535758 On ch=2 n=d#3 v=0
535758 On ch=2 n=d3 v=90
536676 On ch=2 n=d3 v=0
536676 On ch=2 n=d3 v=92
537114 On ch=2 n=d3 v=0
537114 On ch=2 n=c3 v=94
537548 On ch=2 n=c3 v=0
537548 On ch=2 n=b2 v=94
537986 On ch=2 n=b2 v=0
537986 On ch=2 n=c3 v=95
538424 On ch=2 n=c3 v=0
538424 On ch=2 n=g2 v=95
541954 On ch=2 n=g2 v=0
541954 On ch=2 n=d#3 v=97
543332 On ch=2 n=d#3 v=0
543332 On ch=2 n=c3 v=97
543772 On ch=2 n=c3 v=0
543772 On ch=2 n=g3 v=101
546542 On ch=2 n=g3 v=0
546542 On ch=2 n=f3 v=99
547474 On ch=2 n=f3 v=0
547474 On ch=2 n=f3 v=100
547882 On ch=2 n=f3 v=0
547882 On ch=2 n=d#3 v=100
548322 On ch=2 n=d#3 v=0
548322 On ch=2 n=d3 v=102
548748 On ch=2 n=d3 v=0
548748 On ch=2 n=d#3 v=102
549224 On ch=2 n=d#3 v=0
549224 On ch=2 n=c3 v=100
552910 On ch=2 n=c3 v=0
552910 On ch=2 n=d#4 v=104
554712 On ch=2 n=d#4 v=0
554712 On ch=2 n=d#3 v=100
557418 On ch=2 n=d#3 v=0
557418 On ch=2 n=d3 v=100
558316 On ch=2 n=d3 v=0
558316 On ch=2 n=d4 v=100
560114 On ch=2 n=d4 v=0
560114 On ch=2 n=d3 v=112
562806 On ch=2 n=d3 v=0
562806 On ch=2 n=c#3 v=100
563702 On ch=2 n=c#3 v=0
563702 On ch=2 n=c3 v=100
565050 On ch=2 n=c3 v=0
565050 On ch=2 n=b2 v=100
565466 On ch=2 n=b2 v=0
565466 On ch=2 n=f3 v=104
567218 On ch=2 n=f3 v=0
567218 On ch=2 n=d#3 v=100
569002 On ch=2 n=d#3 v=0
569002 On ch=2 n=d#3 v=100
569910 On ch=2 n=d#3 v=0
569910 On ch=2 n=d3 v=100
570806 On ch=2 n=d3 v=0
573650 On ch=2 n=g2 v=84
574586 On ch=2 n=g2 v=0
574586 On ch=2 n=c2 v=82
575498 On ch=2 n=c2 v=0
575992 On ch=2 n=g2 v=100
576432 On ch=2 n=g2 v=0
576432 On ch=2 n=d#3 v=100
579146 On ch=2 n=d#3 v=0
579146 On ch=2 n=d3 v=100
580046 On ch=2 n=d3 v=0
580046 On ch=2 n=d3 v=100
580464 On ch=2 n=d3 v=0
580464 On ch=2 n=c3 v=100
580906 On ch=2 n=c3 v=0
580906 On ch=2 n=b3 v=100
580906 On ch=2 n=a2 v=100
581358 On ch=2 n=a2 v=0
581358 On ch=2 n=b3 v=0
581358 On ch=2 n=c3 v=100
581794 On ch=2 n=c3 v=0
581794 On ch=2 n=g2 v=102
583600 On ch=2 n=g2 v=0
583600 On ch=2 n=a#2 v=102
585448 On ch=2 n=a#2 v=0
585448 On ch=2 n=d#2 v=105
586358 On ch=2 n=d#2 v=0
586848 On ch=2 n=a#2 v=103
587296 On ch=2 n=a#2 v=0
587296 On ch=2 n=g3 v=111
590018 On ch=2 n=g3 v=0
590018 On ch=2 n=f3 v=111
590960 On ch=2 n=f3 v=0
590960 On ch=2 n=f3 v=113
591372 On ch=2 n=f3 v=0
591372 On ch=2 n=d#3 v=111
591820 On ch=2 n=d#3 v=0
591820 On ch=2 n=d3 v=111
592256 On ch=2 n=d3 v=0
592256 On ch=2 n=d#3 v=114
592690 On ch=2 n=d#3 v=0
592690 On ch=2 n=d#2 v=119
596346 On ch=2 n=d#2 v=0
596346 On ch=2 n=g#3 v=104
598154 On ch=2 n=g#3 v=0
598154 On ch=2 n=g#2 v=91
600844 On ch=2 n=g#2 v=0
600844 On ch=2 n=g#2 v=101
601744 On ch=2 n=g#2 v=0
601744 On ch=2 n=g#3 v=91
603560 On ch=2 n=g#3 v=0
603560 On ch=2 n=g2 v=95
606236 On ch=2 n=g2 v=0
606236 On ch=2 n=g2 v=93
607098 On ch=2 n=g2 v=0
607098 On ch=2 n=g3 v=88
608914 On ch=2 n=g3 v=0
608914 On ch=2 n=f3 v=79
609818 On ch=2 n=f3 v=0
609818 On ch=2 n=d#3 v=78
610726 On ch=2 n=d#3 v=0
610726 On ch=2 n=f3 v=77
611638 On ch=2 n=f3 v=0
611638 On ch=2 n=c3 v=73
612526 On ch=2 n=c3 v=0
613416 On ch=2 n=g2 v=76
614298 On ch=2 n=g2 v=0
614298 On ch=2 n=d3 v=80
616134 On ch=2 n=d3 v=0
616134 On ch=2 n=c3 v=76
617084 On ch=2 n=c3 v=0
618070 On ch=2 n=g#2 v=76
619130 On ch=2 n=g#2 v=0
651906 On ch=2 n=f#3 v=49
652398 On ch=2 n=f#3 v=0
652398 On ch=2 n=g3 v=47
652854 On ch=2 n=g3 v=0
652854 On ch=2 n=c4 v=52
653334 On ch=2 n=c4 v=0
653334 On ch=2 n=e4 v=49
653772 On ch=2 n=e4 v=0
653772 On ch=2 n=a4 v=52
654226 On ch=2 n=a4 v=0
654226 On ch=2 n=f#4 v=49
654678 On ch=2 n=f#4 v=0
654678 On ch=2 n=g4 v=51
655134 On ch=2 n=g4 v=0
655134 On ch=2 n=f5 v=48
655584 On ch=2 n=f5 v=0
655584 On ch=2 n=a4 v=47
656056 On ch=2 n=a4 v=0
656056 On ch=2 n=b4 v=48
656514 On ch=2 n=b4 v=0
656514 On ch=2 n=c5 v=47
658404 On ch=2 n=c5 v=0
658404 On ch=2 n=f4 v=61
658404 On ch=2 n=a#3 v=61
659340 On ch=2 n=f4 v=0
659340 On ch=2 n=g4 v=61
659798 On ch=2 n=g4 v=0
659798 On ch=2 n=f4 v=58
660276 On ch=2 n=f4 v=0
660276 On ch=2 n=a#3 v=0
660276 On ch=2 n=d#4 v=59
660740 On ch=2 n=c#5 v=49
661214 On ch=2 n=c#5 v=0
661214 On ch=2 n=f4 v=58
661658 On ch=2 n=f4 v=0
661658 On ch=2 n=g4 v=57
662120 On ch=2 n=g4 v=0
662120 On ch=2 n=d#4 v=0
662120 On ch=2 n=g#3 v=51
663068 On ch=2 n=g#3 v=0
699748 On ch=2 n=c3 v=100
699748 On ch=2 n=c2 v=100
700332 On ch=2 n=c2 v=0
700332 On ch=2 n=c3 v=0
700616 On ch=2 n=c3 v=103
700616 On ch=2 n=c2 v=103
701146 On ch=2 n=c2 v=0
701146 On ch=2 n=c3 v=0
721276 On ch=2 n=c3 v=106
721276 On ch=2 n=c2 v=106
721850 On ch=2 n=c2 v=0
721850 On ch=2 n=c3 v=0
722146 On ch=2 n=c3 v=108
722146 On ch=2 n=c2 v=108
722726 On ch=2 n=c2 v=0
722726 On ch=2 n=c3 v=0
803696 On ch=2 n=f#3 v=48
804134 On ch=2 n=f#3 v=0
804134 On ch=2 n=g3 v=61
804582 On ch=2 n=g3 v=0
804582 On ch=2 n=c4 v=63
805032 On ch=2 n=c4 v=0
805032 On ch=2 n=e4 v=61
805478 On ch=2 n=e4 v=0
805478 On ch=2 n=a4 v=63
805936 On ch=2 n=a4 v=0
805936 On ch=2 n=f#4 v=61
806400 On ch=2 n=f#4 v=0
806400 On ch=2 n=g4 v=60
806866 On ch=2 n=g4 v=0
806866 On ch=2 n=f5 v=61
807324 On ch=2 n=f5 v=0
807324 On ch=2 n=a4 v=61
807794 On ch=2 n=a4 v=0
807794 On ch=2 n=b4 v=60
808264 On ch=2 n=b4 v=0
808264 On ch=2 n=c5 v=59
810154 On ch=2 n=c5 v=0
846344 On ch=2 n=d#3 v=46
847218 On ch=2 n=d#3 v=0
847218 On ch=2 n=d#3 v=50
847660 On ch=2 n=d#3 v=0
847660 On ch=2 n=f3 v=48
848104 On ch=2 n=f3 v=0
848104 On ch=2 n=d3 v=46
848536 On ch=2 n=d3 v=0
848536 On ch=2 n=d#3 v=48
848982 On ch=2 n=d#3 v=0
848982 On ch=2 n=e3 v=49
849452 On ch=2 n=e3 v=0
849452 On ch=2 n=f3 v=51
849876 On ch=2 n=f3 v=0
849876 On ch=2 n=d#3 v=53
850300 On ch=2 n=d#3 v=0
850300 On ch=2 n=e3 v=52
850760 On ch=2 n=e3 v=0
852626 On ch=2 n=e3 v=62
853072 On ch=2 n=e3 v=0
853072 On ch=2 n=f3 v=62
853512 On ch=2 n=f3 v=0
853512 On ch=2 n=d#3 v=66
853956 On ch=2 n=d#3 v=0
853956 On ch=2 n=e3 v=72
854378 On ch=2 n=e3 v=0
854378 On ch=2 n=f3 v=61
854830 On ch=2 n=f3 v=0
854830 On ch=2 n=g3 v=56
855250 On ch=2 n=g3 v=0
855250 On ch=2 n=e3 v=61
855694 On ch=2 n=e3 v=0
855694 On ch=2 n=f3 v=63
856128 On ch=2 n=f3 v=0
857914 On ch=2 n=f3 v=72
858346 On ch=2 n=f3 v=0
858346 On ch=2 n=g3 v=70
858782 On ch=2 n=g3 v=0
858782 On ch=2 n=e3 v=67
859214 On ch=2 n=e3 v=0
859214 On ch=2 n=f3 v=70
859656 On ch=2 n=f3 v=0
859656 On ch=2 n=g3 v=75
860086 On ch=2 n=g3 v=0
860086 On ch=2 n=g#3 v=76
860514 On ch=2 n=g#3 v=0
860514 On ch=2 n=f#3 v=77
860950 On ch=2 n=f#3 v=0
860950 On ch=2 n=g3 v=77
861384 On ch=2 n=g3 v=0
861384 On ch=2 n=g2 v=77
863182 On ch=2 n=g2 v=0
863182 On ch=2 n=g3 v=78
863620 On ch=2 n=g3 v=0
863620 On ch=2 n=g#3 v=78
864054 On ch=2 n=g#3 v=0
864054 On ch=2 n=f#3 v=80
864494 On ch=2 n=f#3 v=0
864494 On ch=2 n=g3 v=80
864920 On ch=2 n=g3 v=0
864920 On ch=2 n=d3 v=80
865360 On ch=2 n=d3 v=0
865360 On ch=2 n=g#3 v=80
865794 On ch=2 n=g#3 v=0
865794 On ch=2 n=f#3 v=80
866228 On ch=2 n=f#3 v=0
866228 On ch=2 n=g3 v=80
866668 On ch=2 n=g3 v=0
866668 On ch=2 n=g2 v=80
868014 On ch=2 n=g2 v=0
868014 On ch=2 n=g3 v=81
868014 On ch=2 n=g2 v=81
868452 On ch=2 n=g2 v=0
868452 On ch=2 n=g3 v=0
868452 On ch=2 n=d#4 v=81
868452 On ch=2 n=d#3 v=81
871116 On ch=2 n=d#3 v=0
871116 On ch=2 n=d#4 v=0
871116 On ch=2 n=d4 v=82
871116 On ch=2 n=d3 v=82
871976 On ch=2 n=d3 v=0
871976 On ch=2 n=d4 v=0
871976 On ch=2 n=d3 v=82
871976 On ch=2 n=d4 v=82
872420 On ch=2 n=d4 v=0
872420 On ch=2 n=d3 v=0
872420 On ch=2 n=c4 v=82
872420 On ch=2 n=c3 v=82
872838 On ch=2 n=c3 v=0
872838 On ch=2 n=c4 v=0
872838 On ch=2 n=b3 v=82
872838 On ch=2 n=b2 v=82
873274 On ch=2 n=b2 v=0
873274 On ch=2 n=b3 v=0
873274 On ch=2 n=c4 v=82
873274 On ch=2 n=c3 v=82
873714 On ch=2 n=c3 v=0
873714 On ch=2 n=c4 v=0
873714 On ch=2 n=g3 v=82
873714 On ch=2 n=g2 v=82
877244 On ch=2 n=g2 v=0
877244 On ch=2 n=g3 v=0
877244 On ch=2 n=d#3 v=80
877244 On ch=2 n=d#4 v=80
878602 On ch=2 n=d#4 v=0
878602 On ch=2 n=d#3 v=0
878602 On ch=2 n=c4 v=80
878602 On ch=2 n=c3 v=80
879050 On ch=2 n=c3 v=0
879050 On ch=2 n=c4 v=0
879050 On ch=2 n=g4 v=82
879050 On ch=2 n=g3 v=82
881674 On ch=2 n=g3 v=0
881674 On ch=2 n=g4 v=0
881674 On ch=2 n=f3 v=85
882538 On ch=2 n=f3 v=0
882538 On ch=2 n=f3 v=91
882538 On ch=2 n=f4 v=91
882956 On ch=2 n=f4 v=0
882956 On ch=2 n=f3 v=0
882956 On ch=2 n=d#4 v=88
882956 On ch=2 n=d#3 v=88
883386 On ch=2 n=d#3 v=0
883386 On ch=2 n=d#4 v=0
883386 On ch=2 n=d4 v=90
883386 On ch=2 n=d3 v=90
883828 On ch=2 n=d3 v=0
883828 On ch=2 n=d4 v=0
883828 On ch=2 n=d#4 v=86
883828 On ch=2 n=d#3 v=86
884248 On ch=2 n=d#3 v=0
884248 On ch=2 n=d#4 v=0
884248 On ch=2 n=c4 v=90
884248 On ch=2 n=c3 v=90
887714 On ch=2 n=c3 v=0
887714 On ch=2 n=c4 v=0
887714 On ch=2 n=d#5 v=96
887714 On ch=2 n=d#4 v=96
889412 On ch=2 n=d#4 v=0
889412 On ch=2 n=d#5 v=0
889412 On ch=2 n=d#4 v=90
889412 On ch=2 n=d#3 v=90
891972 On ch=2 n=d#3 v=0
891972 On ch=2 n=d#4 v=0
891972 On ch=2 n=d4 v=86
891972 On ch=2 n=d3 v=86
892840 On ch=2 n=d3 v=0
892840 On ch=2 n=d4 v=0
892840 On ch=2 n=d5 v=86
892840 On ch=2 n=d4 v=86
894540 On ch=2 n=d4 v=0
894540 On ch=2 n=d5 v=0
894540 On ch=2 n=d4 v=86
894540 On ch=2 n=d3 v=86
897112 On ch=2 n=d3 v=0
897112 On ch=2 n=d4 v=0
897112 On ch=2 n=c#4 v=86
897112 On ch=2 n=c#3 v=86
897962 On ch=2 n=c#3 v=0
897962 On ch=2 n=c#4 v=0
897962 On ch=2 n=c4 v=86
897962 On ch=2 n=c3 v=86
899238 On ch=2 n=c3 v=0
899238 On ch=2 n=c4 v=0
899238 On ch=2 n=b3 v=86
899238 On ch=2 n=b2 v=86
899650 On ch=2 n=b2 v=0
899650 On ch=2 n=b3 v=0
899650 On ch=2 n=f4 v=86
899650 On ch=2 n=f3 v=86
901352 On ch=2 n=f3 v=0
901352 On ch=2 n=f4 v=0
901352 On ch=2 n=d#4 v=86
901352 On ch=2 n=d#3 v=86
903088 On ch=2 n=d#3 v=0
903088 On ch=2 n=d#4 v=0
903088 On ch=2 n=d#4 v=77
903088 On ch=2 n=d#3 v=77
903990 On ch=2 n=d#3 v=0
903990 On ch=2 n=d#4 v=0
903990 On ch=2 n=d4 v=77
903990 On ch=2 n=d3 v=77
904858 On ch=2 n=d3 v=0
904858 On ch=2 n=d4 v=0
907500 On ch=2 n=g3 v=76
907500 On ch=2 n=g2 v=76
908362 On ch=2 n=g2 v=0
908362 On ch=2 n=g3 v=0
908362 On ch=2 n=c3 v=70
908362 On ch=2 n=c2 v=70
909298 On ch=2 n=c2 v=0
909298 On ch=2 n=c3 v=0
909768 On ch=2 n=g3 v=68
909768 On ch=2 n=g2 v=68
910194 On ch=2 n=g2 v=0
910194 On ch=2 n=g3 v=0
910194 On ch=2 n=d#4 v=73
910194 On ch=2 n=d#3 v=73
912884 On ch=2 n=d#3 v=0
912884 On ch=2 n=d#4 v=0
912884 On ch=2 n=d4 v=72
912884 On ch=2 n=d3 v=72
913772 On ch=2 n=d3 v=0
913772 On ch=2 n=d4 v=0
913772 On ch=2 n=d4 v=72
913772 On ch=2 n=d3 v=72
914204 On ch=2 n=d3 v=0
914204 On ch=2 n=d4 v=0
914204 On ch=2 n=c4 v=77
914204 On ch=2 n=c3 v=77
914632 On ch=2 n=c3 v=0
914632 On ch=2 n=c4 v=0
914632 On ch=2 n=b3 v=77
914632 On ch=2 n=b2 v=77
915072 On ch=2 n=b2 v=0
915072 On ch=2 n=b3 v=0
915072 On ch=2 n=c4 v=86
915072 On ch=2 n=c3 v=86
915534 On ch=2 n=c3 v=0
915534 On ch=2 n=c4 v=0
915534 On ch=2 n=g3 v=86
915534 On ch=2 n=g2 v=86
917354 On ch=2 n=g2 v=0
917354 On ch=2 n=g3 v=0
917354 On ch=2 n=a#3 v=86
917354 On ch=2 n=a#2 v=86
919128 On ch=2 n=a#2 v=0
919128 On ch=2 n=a#3 v=0
919128 On ch=2 n=d#3 v=87
919128 On ch=2 n=d#2 v=87
920020 On ch=2 n=d#2 v=0
920020 On ch=2 n=d#3 v=0
920468 On ch=2 n=a#3 v=89
920468 On ch=2 n=a#2 v=89
920920 On ch=2 n=a#2 v=0
920920 On ch=2 n=a#3 v=0
920920 On ch=2 n=g4 v=89
920920 On ch=2 n=g3 v=89
923606 On ch=2 n=g3 v=0
923606 On ch=2 n=g4 v=0
923606 On ch=2 n=f4 v=90
923606 On ch=2 n=f3 v=90
924532 On ch=2 n=f3 v=0
924532 On ch=2 n=f4 v=0
924532 On ch=2 n=f4 v=97
924532 On ch=2 n=f3 v=97
924942 On ch=2 n=f3 v=0
924942 On ch=2 n=f4 v=0
924942 On ch=2 n=d#4 v=95
924942 On ch=2 n=d#3 v=95
925386 On ch=2 n=d#3 v=0
925386 On ch=2 n=d#4 v=0
925386 On ch=2 n=d4 v=90
925386 On ch=2 n=d3 v=90
925844 On ch=2 n=d3 v=0
925844 On ch=2 n=d4 v=0
925844 On ch=2 n=d#4 v=90
925844 On ch=2 n=d#3 v=90
926290 On ch=2 n=d#3 v=0
926290 On ch=2 n=d#4 v=0
926290 On ch=2 n=d#3 v=99
926290 On ch=2 n=d#2 v=99
929914 On ch=2 n=d#2 v=0
929914 On ch=2 n=d#3 v=0
929914 On ch=2 n=g#4 v=93
929914 On ch=2 n=g#3 v=93
931724 On ch=2 n=g#3 v=0
931724 On ch=2 n=g#4 v=0
931724 On ch=2 n=g#3 v=93
931724 On ch=2 n=g#2 v=93
934384 On ch=2 n=g#2 v=0
934384 On ch=2 n=g#3 v=0
934384 On ch=2 n=g#3 v=96
934384 On ch=2 n=g#2 v=96
935254 On ch=2 n=g#2 v=0
935254 On ch=2 n=g#3 v=0
935254 On ch=2 n=g#4 v=98
935254 On ch=2 n=g#3 v=98
937042 On ch=2 n=g#3 v=0
937042 On ch=2 n=g#4 v=0
937042 On ch=2 n=g#3 v=97
937042 On ch=2 n=g#2 v=97
938748 On ch=2 n=g#2 v=0
938748 On ch=2 n=g#3 v=0
938748 On ch=2 n=g#4 v=99
938748 On ch=2 n=g#3 v=99
940504 On ch=2 n=g#3 v=0
940504 On ch=2 n=g#4 v=0
940504 On ch=2 n=c#5 v=109
940504 On ch=2 n=g#4 v=109
940504 On ch=2 n=c#4 v=109
942228 On ch=2 n=c#4 v=0
942228 On ch=2 n=g#4 v=0
942228 On ch=2 n=c#5 v=0
946728 On ch=2 n=g3 v=108
946728 On ch=2 n=g2 v=108
947576 On ch=2 n=g2 v=0
947576 On ch=2 n=g3 v=0
947576 On ch=2 n=d4 v=121
947576 On ch=2 n=d3 v=121
951102 On ch=2 n=d3 v=0
951102 On ch=2 n=d4 v=0
951102 On ch=2 n=c4 v=104
951102 On ch=2 n=c3 v=104
967922 On ch=2 n=c3 v=0
967922 On ch=2 n=c4 v=0
967922 Meta TrkEnd
TrkEnd
MTrk
0 SeqSpec 43 00 01 00
0 Meta TrkName "3Accompagnement main droite"
6 PrCh ch=3 p=0
6 Par ch=3 c=91 v=70
6 Par ch=3 c=10 v=82
6 Par ch=3 c=7 v=120
6 On ch=3 n=g5 v=45
6 On ch=3 n=d#5 v=45
6 On ch=3 n=c5 v=45
6 On ch=3 n=g4 v=45
1094 On ch=3 n=g4 v=0
1094 On ch=3 n=c5 v=0
1094 On ch=3 n=d#5 v=0
1094 On ch=3 n=g5 v=0
1094 On ch=3 n=g5 v=45
1094 On ch=3 n=d#5 v=45
1094 On ch=3 n=c5 v=45
1094 On ch=3 n=g4 v=45
2144 On ch=3 n=g4 v=0
2144 On ch=3 n=c5 v=0
2144 On ch=3 n=d#5 v=0
2144 On ch=3 n=g5 v=0
2144 On ch=3 n=g5 v=50
2144 On ch=3 n=d#5 v=50
2144 On ch=3 n=c5 v=50
2144 On ch=3 n=g4 v=50
3164 On ch=3 n=g4 v=0
3164 On ch=3 n=c5 v=0
3164 On ch=3 n=d#5 v=0
3164 On ch=3 n=g5 v=0
3164 On ch=3 n=g5 v=52
3164 On ch=3 n=d#5 v=52
3164 On ch=3 n=c5 v=52
3164 On ch=3 n=g4 v=52
4176 On ch=3 n=g4 v=0
4176 On ch=3 n=c5 v=0
4176 On ch=3 n=d#5 v=0
4176 On ch=3 n=g5 v=0
4176 On ch=3 n=g5 v=60
4176 On ch=3 n=d#5 v=60
4176 On ch=3 n=c5 v=60
4176 On ch=3 n=g4 v=60
5202 On ch=3 n=g4 v=0
5202 On ch=3 n=c5 v=0
5202 On ch=3 n=d#5 v=0
5202 On ch=3 n=g5 v=0
5202 On ch=3 n=g5 v=61
5202 On ch=3 n=d#5 v=61
5202 On ch=3 n=c5 v=61
5202 On ch=3 n=g4 v=61
6240 On ch=3 n=g4 v=0
6240 On ch=3 n=c5 v=0
6240 On ch=3 n=d#5 v=0
6240 On ch=3 n=g5 v=0
6240 On ch=3 n=g5 v=55
6240 On ch=3 n=d#5 v=55
6240 On ch=3 n=c5 v=55
6240 On ch=3 n=g4 v=55
7298 On ch=3 n=g4 v=0
7298 On ch=3 n=c5 v=0
7298 On ch=3 n=d#5 v=0
7298 On ch=3 n=g5 v=0
7298 On ch=3 n=g5 v=50
7298 On ch=3 n=d#5 v=50
7298 On ch=3 n=c5 v=50
7298 On ch=3 n=g4 v=50
8368 On ch=3 n=g4 v=0
8368 On ch=3 n=c5 v=0
8368 On ch=3 n=d#5 v=0
8368 On ch=3 n=g5 v=0
8368 On ch=3 n=g5 v=43
8368 On ch=3 n=d#5 v=43
8368 On ch=3 n=c5 v=43
8368 On ch=3 n=g4 v=43
9426 On ch=3 n=g4 v=0
9426 On ch=3 n=c5 v=0
9426 On ch=3 n=d#5 v=0
9426 On ch=3 n=g5 v=0
9426 On ch=3 n=g5 v=45
9426 On ch=3 n=d#5 v=45
9426 On ch=3 n=c5 v=45
9426 On ch=3 n=g4 v=45
10474 On ch=3 n=g4 v=0
10474 On ch=3 n=c5 v=0
10474 On ch=3 n=d#5 v=0
10474 On ch=3 n=g5 v=0
10474 On ch=3 n=g5 v=43
10474 On ch=3 n=d#5 v=43
10474 On ch=3 n=c5 v=43
10474 On ch=3 n=g4 v=43
11532 On ch=3 n=g4 v=0
11532 On ch=3 n=c5 v=0
11532 On ch=3 n=d#5 v=0
11532 On ch=3 n=g5 v=0
11532 On ch=3 n=g5 v=43
11532 On ch=3 n=d#5 v=43
11532 On ch=3 n=c5 v=43
11532 On ch=3 n=g4 v=43
12592 On ch=3 n=g4 v=0
12592 On ch=3 n=c5 v=0
12592 On ch=3 n=d#5 v=0
12592 On ch=3 n=g5 v=0
12592 On ch=3 n=g5 v=43
12592 On ch=3 n=d#5 v=43
12592 On ch=3 n=c5 v=43
12592 On ch=3 n=g4 v=43
13622 On ch=3 n=g4 v=0
13622 On ch=3 n=c5 v=0
13622 On ch=3 n=d#5 v=0
13622 On ch=3 n=g5 v=0
13622 On ch=3 n=g5 v=49
13622 On ch=3 n=d#5 v=49
13622 On ch=3 n=c5 v=49
13622 On ch=3 n=g4 v=49
14646 On ch=3 n=g4 v=0
14646 On ch=3 n=c5 v=0
14646 On ch=3 n=d#5 v=0
14646 On ch=3 n=g5 v=0
14646 On ch=3 n=g5 v=55
14646 On ch=3 n=c5 v=55
14646 On ch=3 n=g4 v=55
15676 On ch=3 n=g4 v=0
15676 On ch=3 n=c5 v=0
15676 On ch=3 n=g5 v=0
15676 On ch=3 n=g5 v=48
15676 On ch=3 n=c5 v=48
15676 On ch=3 n=g4 v=48
16716 On ch=3 n=g4 v=0
16716 On ch=3 n=c5 v=0
16716 On ch=3 n=g5 v=0
16716 On ch=3 n=g5 v=52
16716 On ch=3 n=f5 v=52
16716 On ch=3 n=b4 v=52
16716 On ch=3 n=g4 v=52
17760 On ch=3 n=g4 v=0
17760 On ch=3 n=b4 v=0
17760 On ch=3 n=f5 v=0
17760 On ch=3 n=g5 v=0
17760 On ch=3 n=g5 v=60
17760 On ch=3 n=f5 v=60
17760 On ch=3 n=b4 v=60
17760 On ch=3 n=g4 v=60
18762 On ch=3 n=g4 v=0
18762 On ch=3 n=b4 v=0
18762 On ch=3 n=f5 v=0
18762 On ch=3 n=g5 v=0
18762 On ch=3 n=g5 v=56
18762 On ch=3 n=d#5 v=56
18762 On ch=3 n=c5 v=56
18762 On ch=3 n=g4 v=56
19754 On ch=3 n=g4 v=0
19754 On ch=3 n=c5 v=0
19754 On ch=3 n=d#5 v=0
19754 On ch=3 n=g5 v=0
19754 On ch=3 n=g5 v=55
19754 On ch=3 n=d#5 v=55
19754 On ch=3 n=c5 v=55
19754 On ch=3 n=g4 v=55
20742 On ch=3 n=g4 v=0
20742 On ch=3 n=c5 v=0
20742 On ch=3 n=d#5 v=0
20742 On ch=3 n=g5 v=0
20742 On ch=3 n=g5 v=57
20742 On ch=3 n=d#5 v=57
20742 On ch=3 n=c5 v=57
20742 On ch=3 n=g4 v=57
21806 On ch=3 n=g4 v=0
21806 On ch=3 n=c5 v=0
21806 On ch=3 n=d#5 v=0
21806 On ch=3 n=g5 v=0
21806 On ch=3 n=g5 v=54
21806 On ch=3 n=d#5 v=54
21806 On ch=3 n=c5 v=54
21806 On ch=3 n=g4 v=54
22850 On ch=3 n=g4 v=0
22850 On ch=3 n=c5 v=0
22850 On ch=3 n=d#5 v=0
22850 On ch=3 n=g5 v=0
22850 On ch=3 n=g5 v=51
22850 On ch=3 n=d#5 v=51
22850 On ch=3 n=c5 v=51
22850 On ch=3 n=g4 v=51
23916 On ch=3 n=g4 v=0
23916 On ch=3 n=c5 v=0
23916 On ch=3 n=d#5 v=0
23916 On ch=3 n=g5 v=0
23916 On ch=3 n=g5 v=47
23916 On ch=3 n=d#5 v=47
23916 On ch=3 n=c5 v=47
23916 On ch=3 n=g4 v=47
24930 On ch=3 n=g4 v=0
24930 On ch=3 n=c5 v=0
24930 On ch=3 n=d#5 v=0
24930 On ch=3 n=g5 v=0
24930 On ch=3 n=g5 v=51
24930 On ch=3 n=c5 v=51
24930 On ch=3 n=g4 v=51
25962 On ch=3 n=g4 v=0
25962 On ch=3 n=c5 v=0
25962 On ch=3 n=g5 v=0
25962 On ch=3 n=g5 v=51
25962 On ch=3 n=c5 v=51
25962 On ch=3 n=g4 v=51
26990 On ch=3 n=g4 v=0
26990 On ch=3 n=c5 v=0
26990 On ch=3 n=g5 v=0
26990 On ch=3 n=g5 v=51
26990 On ch=3 n=d#5 v=51
26990 On ch=3 n=c5 v=51
26990 On ch=3 n=g4 v=51
28048 On ch=3 n=g4 v=0
28048 On ch=3 n=c5 v=0
28048 On ch=3 n=d#5 v=0
28048 On ch=3 n=g5 v=0
28048 On ch=3 n=g5 v=47
28048 On ch=3 n=d#5 v=47
28048 On ch=3 n=c5 v=47
28048 On ch=3 n=g4 v=47
29110 On ch=3 n=g4 v=0
29110 On ch=3 n=c5 v=0
29110 On ch=3 n=d#5 v=0
29110 On ch=3 n=g5 v=0
29110 On ch=3 n=b5 v=49
29110 On ch=3 n=g5 v=49
29110 On ch=3 n=d5 v=49
29110 On ch=3 n=b4 v=49
30146 On ch=3 n=b4 v=0
30146 On ch=3 n=d5 v=0
30146 On ch=3 n=g5 v=0
30146 On ch=3 n=b5 v=0
30146 On ch=3 n=b5 v=54
30146 On ch=3 n=g5 v=54
30146 On ch=3 n=d5 v=54
30146 On ch=3 n=b4 v=54
31168 On ch=3 n=b4 v=0
31168 On ch=3 n=d5 v=0
31168 On ch=3 n=g5 v=0
31168 On ch=3 n=b5 v=0
31168 On ch=3 n=c6 v=49
31168 On ch=3 n=g5 v=49
31168 On ch=3 n=c5 v=49
32168 On ch=3 n=c5 v=0
32168 On ch=3 n=g5 v=0
32168 On ch=3 n=c6 v=0
32168 On ch=3 n=c6 v=47
32168 On ch=3 n=g5 v=47
32168 On ch=3 n=c5 v=47
33138 On ch=3 n=c5 v=0
33138 On ch=3 n=g5 v=0
33138 On ch=3 n=c6 v=0
33138 On ch=3 n=c6 v=51
33138 On ch=3 n=g5 v=51
33138 On ch=3 n=d#5 v=51
33138 On ch=3 n=c5 v=51
34166 On ch=3 n=c5 v=0
34166 On ch=3 n=d#5 v=0
34166 On ch=3 n=g5 v=0
34166 On ch=3 n=c6 v=0
34166 On ch=3 n=c6 v=53
34166 On ch=3 n=g5 v=53
34166 On ch=3 n=d#5 v=53
34166 On ch=3 n=c5 v=53
35156 On ch=3 n=c5 v=0
35156 On ch=3 n=d#5 v=0
35156 On ch=3 n=g5 v=0
35156 On ch=3 n=c6 v=0
35156 On ch=3 n=c6 v=53
35156 On ch=3 n=g5 v=53
35156 On ch=3 n=d#5 v=53
35156 On ch=3 n=c5 v=53
36150 On ch=3 n=c5 v=0
36150 On ch=3 n=d#5 v=0
36150 On ch=3 n=g5 v=0
36150 On ch=3 n=c6 v=0
36150 On ch=3 n=c6 v=45
36150 On ch=3 n=g5 v=45
36150 On ch=3 n=d#5 v=45
36150 On ch=3 n=c5 v=45
37158 On ch=3 n=c5 v=0
37158 On ch=3 n=d#5 v=0
37158 On ch=3 n=g5 v=0
37158 On ch=3 n=c6 v=0
38172 On ch=3 n=c6 v=54
38172 On ch=3 n=g5 v=54
38172 On ch=3 n=c5 v=54
39190 On ch=3 n=c5 v=0
39190 On ch=3 n=g5 v=0
39190 On ch=3 n=c6 v=0
39190 On ch=3 n=c6 v=51
39190 On ch=3 n=g#5 v=51
39190 On ch=3 n=c5 v=51
40188 On ch=3 n=c5 v=0
40188 On ch=3 n=g#5 v=0
40188 On ch=3 n=c6 v=0
40188 On ch=3 n=c6 v=49
40188 On ch=3 n=f5 v=49
40188 On ch=3 n=c5 v=49
41166 On ch=3 n=c5 v=0
41166 On ch=3 n=f5 v=0
41166 On ch=3 n=c6 v=0
41166 On ch=3 n=a#5 v=51
41166 On ch=3 n=f5 v=51
41166 On ch=3 n=a#4 v=51
42140 On ch=3 n=a#4 v=0
42140 On ch=3 n=f5 v=0
42140 On ch=3 n=a#5 v=0
42140 On ch=3 n=a#5 v=51
42140 On ch=3 n=f#5 v=51
42140 On ch=3 n=a#4 v=51
43132 On ch=3 n=a#4 v=0
43132 On ch=3 n=f#5 v=0
43132 On ch=3 n=a#5 v=0
44082 On ch=3 n=a#5 v=55
44082 On ch=3 n=g5 v=55
44082 On ch=3 n=a#4 v=55
45058 On ch=3 n=a#4 v=0
45058 On ch=3 n=g5 v=0
45058 On ch=3 n=a#5 v=0
45058 On ch=3 n=a#5 v=65
45058 On ch=3 n=g5 v=65
45058 On ch=3 n=a#4 v=65
46044 On ch=3 n=a#4 v=0
46044 On ch=3 n=g5 v=0
46044 On ch=3 n=a#5 v=0
46044 On ch=3 n=a#5 v=53
46044 On ch=3 n=d#5 v=53
46044 On ch=3 n=a#4 v=53
47044 On ch=3 n=a#4 v=0
47044 On ch=3 n=d#5 v=0
47044 On ch=3 n=a#5 v=0
47044 On ch=3 n=g#5 v=54
47044 On ch=3 n=d#5 v=54
47044 On ch=3 n=g#4 v=54
48048 On ch=3 n=g#4 v=0
48048 On ch=3 n=d#5 v=0
48048 On ch=3 n=g#5 v=0
48048 On ch=3 n=g#5 v=54
48048 On ch=3 n=e5 v=54
48048 On ch=3 n=g#4 v=54
49030 On ch=3 n=g#4 v=0
49030 On ch=3 n=e5 v=0
49030 On ch=3 n=g#5 v=0
49030 On ch=3 n=g#5 v=54
49030 On ch=3 n=f5 v=54
49030 On ch=3 n=d5 v=54
49030 On ch=3 n=g#4 v=54
49982 On ch=3 n=g#4 v=0
49982 On ch=3 n=d5 v=0
49982 On ch=3 n=f5 v=0
49982 On ch=3 n=g#5 v=0
49982 On ch=3 n=g5 v=56
49982 On ch=3 n=f5 v=56
49982 On ch=3 n=d5 v=56
49982 On ch=3 n=g4 v=56
50986 On ch=3 n=g4 v=0
50986 On ch=3 n=d5 v=0
50986 On ch=3 n=f5 v=0
50986 On ch=3 n=g5 v=0
52016 On ch=3 n=d5 v=54
52016 On ch=3 n=b4 v=54
52016 On ch=3 n=g4 v=54
53004 On ch=3 n=g4 v=0
53004 On ch=3 n=b4 v=0
53004 On ch=3 n=d5 v=0
53004 On ch=3 n=c5 v=69
53004 On ch=3 n=g4 v=69
53960 On ch=3 n=g4 v=0
53960 On ch=3 n=c5 v=0
53960 On ch=3 n=f#5 v=55
53960 On ch=3 n=c5 v=55
53960 On ch=3 n=a4 v=55
54978 On ch=3 n=a4 v=0
54978 On ch=3 n=c5 v=0
54978 On ch=3 n=f#5 v=0
54978 On ch=3 n=f#5 v=62
54978 On ch=3 n=c5 v=62
54978 On ch=3 n=a4 v=62
55948 On ch=3 n=a4 v=0
55948 On ch=3 n=c5 v=0
55948 On ch=3 n=f#5 v=0
55948 On ch=3 n=f#5 v=55
55948 On ch=3 n=c5 v=55
55948 On ch=3 n=a4 v=55
56952 On ch=3 n=a4 v=0
56952 On ch=3 n=c5 v=0
56952 On ch=3 n=f#5 v=0
56952 On ch=3 n=f#5 v=53
56952 On ch=3 n=c5 v=53
57944 On ch=3 n=c5 v=0
57944 On ch=3 n=f#5 v=0
57944 On ch=3 n=f#5 v=51
57944 On ch=3 n=c5 v=51
58940 On ch=3 n=c5 v=0
58940 On ch=3 n=f#5 v=0
58940 On ch=3 n=b5 v=51
58940 On ch=3 n=f5 v=51
59946 On ch=3 n=f5 v=0
59946 On ch=3 n=b5 v=0
59946 On ch=3 n=b5 v=51
59946 On ch=3 n=g5 v=51
59946 On ch=3 n=f5 v=51
60922 On ch=3 n=f5 v=0
60922 On ch=3 n=g5 v=0
60922 On ch=3 n=b5 v=0
60922 On ch=3 n=g5 v=51
60922 On ch=3 n=d#5 v=51
61920 On ch=3 n=d#5 v=0
61920 On ch=3 n=g5 v=0
61920 On ch=3 n=g5 v=53
61920 On ch=3 n=d#5 v=53
61920 On ch=3 n=g4 v=53
62884 On ch=3 n=g4 v=0
62884 On ch=3 n=d#5 v=0
62884 On ch=3 n=g5 v=0
62884 On ch=3 n=g5 v=60
62884 On ch=3 n=c5 v=60
62884 On ch=3 n=g4 v=60
63860 On ch=3 n=g4 v=0
63860 On ch=3 n=c5 v=0
63860 On ch=3 n=g5 v=0
63860 On ch=3 n=g5 v=55
63860 On ch=3 n=c5 v=55
63860 On ch=3 n=g4 v=55
64880 On ch=3 n=g4 v=0
64880 On ch=3 n=c5 v=0
64880 On ch=3 n=g5 v=0
64880 On ch=3 n=g5 v=54
64880 On ch=3 n=f5 v=54
64880 On ch=3 n=b4 v=54
64880 On ch=3 n=g4 v=54
65816 On ch=3 n=g4 v=0
65816 On ch=3 n=b4 v=0
65816 On ch=3 n=f5 v=0
65816 On ch=3 n=g5 v=0
65816 On ch=3 n=g5 v=62
65816 On ch=3 n=f5 v=62
65816 On ch=3 n=b4 v=62
65816 On ch=3 n=g4 v=62
66824 On ch=3 n=g4 v=0
66824 On ch=3 n=b4 v=0
66824 On ch=3 n=f5 v=0
66824 On ch=3 n=g5 v=0
66824 On ch=3 n=g5 v=67
66824 On ch=3 n=d#5 v=67
66824 On ch=3 n=c5 v=67
66824 On ch=3 n=g4 v=67
67762 On ch=3 n=g4 v=0
67762 On ch=3 n=c5 v=0
67762 On ch=3 n=d#5 v=0
67762 On ch=3 n=g5 v=0
67762 On ch=3 n=g5 v=57
67762 On ch=3 n=d#5 v=57
67762 On ch=3 n=c5 v=57
67762 On ch=3 n=g4 v=57
68748 On ch=3 n=g4 v=0
68748 On ch=3 n=c5 v=0
68748 On ch=3 n=d#5 v=0
68748 On ch=3 n=g5 v=0
68748 On ch=3 n=g5 v=69
68748 On ch=3 n=d#5 v=69
68748 On ch=3 n=c5 v=69
68748 On ch=3 n=g4 v=69
69780 On ch=3 n=g4 v=0
69780 On ch=3 n=c5 v=0
69780 On ch=3 n=d#5 v=0
69780 On ch=3 n=g5 v=0
69780 On ch=3 n=g5 v=51
69780 On ch=3 n=d#5 v=51
69780 On ch=3 n=c5 v=51
69780 On ch=3 n=g4 v=51
70708 On ch=3 n=g4 v=0
70708 On ch=3 n=c5 v=0
70708 On ch=3 n=d#5 v=0
70708 On ch=3 n=g5 v=0
70708 On ch=3 n=g5 v=62
70708 On ch=3 n=d#5 v=62
70708 On ch=3 n=a#4 v=62
70708 On ch=3 n=g4 v=62
71684 On ch=3 n=g4 v=0
71684 On ch=3 n=a#4 v=0
71684 On ch=3 n=d#5 v=0
71684 On ch=3 n=g5 v=0
71684 On ch=3 n=g5 v=60
71684 On ch=3 n=d#5 v=60
71684 On ch=3 n=a#4 v=60
71684 On ch=3 n=g4 v=60
72648 On ch=3 n=g4 v=0
72648 On ch=3 n=a#4 v=0
72648 On ch=3 n=d#5 v=0
72648 On ch=3 n=g5 v=0
72648 On ch=3 n=a#5 v=69
72648 On ch=3 n=g5 v=69
72648 On ch=3 n=d#5 v=69
72648 On ch=3 n=a#4 v=69
73600 On ch=3 n=a#4 v=0
73600 On ch=3 n=d#5 v=0
73600 On ch=3 n=g5 v=0
73600 On ch=3 n=a#5 v=0
73600 On ch=3 n=a#5 v=60
73600 On ch=3 n=g5 v=60
73600 On ch=3 n=d#5 v=60
73600 On ch=3 n=a#4 v=60
74550 On ch=3 n=a#4 v=0
74550 On ch=3 n=d#5 v=0
74550 On ch=3 n=g5 v=0
74550 On ch=3 n=a#5 v=0
74550 On ch=3 n=a#5 v=69
74550 On ch=3 n=d#5 v=69
74550 On ch=3 n=a#4 v=69
75606 On ch=3 n=a#4 v=0
75606 On ch=3 n=d#5 v=0
75606 On ch=3 n=a#5 v=0
75606 On ch=3 n=a#5 v=69
75606 On ch=3 n=d#5 v=69
75606 On ch=3 n=a#4 v=69
76536 On ch=3 n=a#4 v=0
76536 On ch=3 n=d#5 v=0
76536 On ch=3 n=a#5 v=0
76536 On ch=3 n=a#5 v=69
76536 On ch=3 n=g#5 v=69
76536 On ch=3 n=d5 v=69
76536 On ch=3 n=a#4 v=69
77554 On ch=3 n=a#4 v=0
77554 On ch=3 n=d5 v=0
77554 On ch=3 n=g#5 v=0
77554 On ch=3 n=a#5 v=0
77554 On ch=3 n=a#5 v=69
77554 On ch=3 n=g#5 v=69
77554 On ch=3 n=d5 v=69
77554 On ch=3 n=a#4 v=69
78540 On ch=3 n=a#4 v=0
78540 On ch=3 n=d5 v=0
78540 On ch=3 n=g#5 v=0
78540 On ch=3 n=a#5 v=0
78540 On ch=3 n=a#5 v=69
78540 On ch=3 n=g5 v=69
78540 On ch=3 n=c#5 v=69
78540 On ch=3 n=a#4 v=69
79480 On ch=3 n=a#4 v=0
79480 On ch=3 n=c#5 v=0
79480 On ch=3 n=g5 v=0
79480 On ch=3 n=a#5 v=0
79480 On ch=3 n=a#5 v=69
79480 On ch=3 n=g5 v=69
79480 On ch=3 n=c#5 v=69
79480 On ch=3 n=a#4 v=69
80456 On ch=3 n=a#4 v=0
80456 On ch=3 n=c#5 v=0
80456 On ch=3 n=g5 v=0
80456 On ch=3 n=a#5 v=0
80456 On ch=3 n=a#5 v=69
80456 On ch=3 n=g5 v=69
80456 On ch=3 n=c#5 v=69
80456 On ch=3 n=a#4 v=69
81450 On ch=3 n=a#4 v=0
81450 On ch=3 n=c#5 v=0
81450 On ch=3 n=g5 v=0
81450 On ch=3 n=a#5 v=0
81450 On ch=3 n=a#5 v=69
81450 On ch=3 n=g5 v=69
81450 On ch=3 n=d#5 v=69
81450 On ch=3 n=c#5 v=69
82436 On ch=3 n=c#5 v=0
82436 On ch=3 n=d#5 v=0
82436 On ch=3 n=g5 v=0
82436 On ch=3 n=a#5 v=0
82436 On ch=3 n=g5 v=69
82436 On ch=3 n=d#5 v=69
82436 On ch=3 n=c#5 v=69
83430 On ch=3 n=c#5 v=0
83430 On ch=3 n=d#5 v=0
83430 On ch=3 n=g5 v=0
83430 On ch=3 n=g5 v=56
83430 On ch=3 n=d#5 v=56
83430 On ch=3 n=c#5 v=56
84424 On ch=3 n=c#5 v=0
84424 On ch=3 n=d#5 v=0
84424 On ch=3 n=g5 v=0
84424 On ch=3 n=f#5 v=55
84424 On ch=3 n=c5 v=55
85390 On ch=3 n=c5 v=0
85390 On ch=3 n=f#5 v=0
85390 On ch=3 n=f#5 v=48
85390 On ch=3 n=c5 v=48
86372 On ch=3 n=c5 v=0
86372 On ch=3 n=f#5 v=0
86372 On ch=3 n=f#5 v=48
86372 On ch=3 n=c5 v=48
87358 On ch=3 n=c5 v=0
87358 On ch=3 n=f#5 v=0
87358 On ch=3 n=f#5 v=49
87358 On ch=3 n=c5 v=49
88334 On ch=3 n=c5 v=0
88334 On ch=3 n=f#5 v=0
88334 On ch=3 n=f5 v=47
88334 On ch=3 n=c#5 v=47
89332 On ch=3 n=c#5 v=0
89332 On ch=3 n=f5 v=0
89332 On ch=3 n=f5 v=48
89332 On ch=3 n=c#5 v=48
90332 On ch=3 n=c#5 v=0
90332 On ch=3 n=f5 v=0
90332 On ch=3 n=f5 v=47
90332 On ch=3 n=d5 v=47
91318 On ch=3 n=d5 v=0
91318 On ch=3 n=f5 v=0
91318 On ch=3 n=f5 v=45
91318 On ch=3 n=d5 v=45
92306 On ch=3 n=d5 v=0
92306 On ch=3 n=f5 v=0
92306 On ch=3 n=f5 v=45
92306 On ch=3 n=b4 v=45
93314 On ch=3 n=b4 v=0
93314 On ch=3 n=f5 v=0
93314 On ch=3 n=f5 v=44
93314 On ch=3 n=b4 v=44
94330 On ch=3 n=b4 v=0
94330 On ch=3 n=f5 v=0
94330 On ch=3 n=d#5 v=42
94330 On ch=3 n=c5 v=42
95332 On ch=3 n=c5 v=0
95332 On ch=3 n=d#5 v=0
95332 On ch=3 n=d#5 v=42
95332 On ch=3 n=c5 v=42
96320 On ch=3 n=c5 v=0
96320 On ch=3 n=d#5 v=0
96320 On ch=3 n=d#5 v=44
96320 On ch=3 n=c5 v=44
97322 On ch=3 n=c5 v=0
97322 On ch=3 n=d#5 v=0
97322 On ch=3 n=d#5 v=44
97322 On ch=3 n=c5 v=44
98320 On ch=3 n=c5 v=0
98320 On ch=3 n=d#5 v=0
98320 On ch=3 n=d5 v=44
98320 On ch=3 n=b4 v=44
99300 On ch=3 n=b4 v=0
99300 On ch=3 n=d5 v=0
99300 On ch=3 n=d#5 v=46
99300 On ch=3 n=c5 v=46
100302 On ch=3 n=c5 v=0
100302 On ch=3 n=d#5 v=0
100302 On ch=3 n=d5 v=44
100302 On ch=3 n=b4 v=44
101288 On ch=3 n=b4 v=0
101288 On ch=3 n=d5 v=0
101288 On ch=3 n=d#5 v=40
101288 On ch=3 n=g#4 v=40
102300 On ch=3 n=g#4 v=0
102300 On ch=3 n=d#5 v=0
102300 On ch=3 n=f5 v=44
102300 On ch=3 n=c5 v=44
103312 On ch=3 n=c5 v=0
103312 On ch=3 n=f5 v=0
103312 On ch=3 n=f5 v=44
103312 On ch=3 n=b4 v=44
104312 On ch=3 n=b4 v=0
104312 On ch=3 n=f5 v=0
105326 On ch=3 n=f5 v=46
105326 On ch=3 n=b4 v=46
105326 On ch=3 n=g4 v=46
106334 On ch=3 n=g4 v=0
106334 On ch=3 n=b4 v=0
106334 On ch=3 n=f5 v=0
106334 On ch=3 n=d#5 v=44
106334 On ch=3 n=c5 v=44
106334 On ch=3 n=g4 v=44
107266 On ch=3 n=g4 v=0
107266 On ch=3 n=c5 v=0
107266 On ch=3 n=d#5 v=0
108280 On ch=3 n=g5 v=69
108280 On ch=3 n=d#5 v=69
108280 On ch=3 n=c5 v=69
108280 On ch=3 n=g4 v=69
109238 On ch=3 n=g4 v=0
109238 On ch=3 n=c5 v=0
109238 On ch=3 n=d#5 v=0
109238 On ch=3 n=g5 v=0
109238 On ch=3 n=g5 v=69
109238 On ch=3 n=d#5 v=69
109238 On ch=3 n=c5 v=69
109238 On ch=3 n=g4 v=69
110226 On ch=3 n=g4 v=0
110226 On ch=3 n=c5 v=0
110226 On ch=3 n=d#5 v=0
110226 On ch=3 n=g5 v=0
110226 On ch=3 n=g5 v=76
110226 On ch=3 n=c5 v=76
110226 On ch=3 n=g4 v=76
111250 On ch=3 n=g4 v=0
111250 On ch=3 n=c5 v=0
111250 On ch=3 n=g5 v=0
111250 On ch=3 n=g5 v=69
111250 On ch=3 n=c5 v=69
111250 On ch=3 n=g4 v=69
112234 On ch=3 n=g4 v=0
112234 On ch=3 n=c5 v=0
112234 On ch=3 n=g5 v=0
112234 On ch=3 n=g5 v=69
112234 On ch=3 n=f5 v=69
112234 On ch=3 n=b4 v=69
112234 On ch=3 n=g4 v=69
113234 On ch=3 n=g4 v=0
113234 On ch=3 n=b4 v=0
113234 On ch=3 n=f5 v=0
113234 On ch=3 n=g5 v=0
113234 On ch=3 n=g5 v=72
113234 On ch=3 n=f5 v=72
113234 On ch=3 n=b4 v=72
113234 On ch=3 n=g4 v=72
114270 On ch=3 n=g4 v=0
114270 On ch=3 n=b4 v=0
114270 On ch=3 n=f5 v=0
114270 On ch=3 n=g5 v=0
114270 On ch=3 n=g5 v=76
114270 On ch=3 n=d#5 v=76
114270 On ch=3 n=c5 v=76
114270 On ch=3 n=g4 v=76
115224 On ch=3 n=g4 v=0
115224 On ch=3 n=c5 v=0
115224 On ch=3 n=d#5 v=0
115224 On ch=3 n=g5 v=0
115224 On ch=3 n=g5 v=72
115224 On ch=3 n=d#5 v=72
115224 On ch=3 n=c5 v=72
115224 On ch=3 n=g4 v=72
116186 On ch=3 n=g4 v=0
116186 On ch=3 n=c5 v=0
116186 On ch=3 n=d#5 v=0
116186 On ch=3 n=g5 v=0
116186 On ch=3 n=g5 v=69
116186 On ch=3 n=d#5 v=69
116186 On ch=3 n=c5 v=69
116186 On ch=3 n=g4 v=69
117174 On ch=3 n=g4 v=0
117174 On ch=3 n=c5 v=0
117174 On ch=3 n=d#5 v=0
117174 On ch=3 n=g5 v=0
117174 On ch=3 n=g5 v=69
117174 On ch=3 n=d#5 v=69
117174 On ch=3 n=c5 v=69
117174 On ch=3 n=g4 v=69
118200 On ch=3 n=g4 v=0
118200 On ch=3 n=c5 v=0
118200 On ch=3 n=d#5 v=0
118200 On ch=3 n=g5 v=0
118200 On ch=3 n=g5 v=69
118200 On ch=3 n=d#5 v=69
118200 On ch=3 n=c5 v=69
118200 On ch=3 n=g4 v=69
119190 On ch=3 n=g4 v=0
119190 On ch=3 n=c5 v=0
119190 On ch=3 n=d#5 v=0
119190 On ch=3 n=g5 v=0
119190 On ch=3 n=g5 v=69
119190 On ch=3 n=d#5 v=69
119190 On ch=3 n=c5 v=69
119190 On ch=3 n=g4 v=69
120176 On ch=3 n=g4 v=0
120176 On ch=3 n=c5 v=0
120176 On ch=3 n=d#5 v=0
120176 On ch=3 n=g5 v=0
120176 On ch=3 n=g5 v=69
120176 On ch=3 n=c5 v=69
120176 On ch=3 n=g4 v=69
121164 On ch=3 n=g4 v=0
121164 On ch=3 n=c5 v=0
121164 On ch=3 n=g5 v=0
121164 On ch=3 n=g5 v=69
121164 On ch=3 n=c5 v=69
121164 On ch=3 n=g4 v=69
122120 On ch=3 n=g4 v=0
122120 On ch=3 n=c5 v=0
122120 On ch=3 n=g5 v=0
122120 On ch=3 n=g5 v=79
122120 On ch=3 n=d#5 v=79
122120 On ch=3 n=c5 v=79
122120 On ch=3 n=g4 v=79
123136 On ch=3 n=g4 v=0
123136 On ch=3 n=c5 v=0
123136 On ch=3 n=d#5 v=0
123136 On ch=3 n=g5 v=0
123136 On ch=3 n=g5 v=69
123136 On ch=3 n=d#5 v=69
123136 On ch=3 n=c5 v=69
123136 On ch=3 n=g4 v=69
124174 On ch=3 n=g4 v=0
124174 On ch=3 n=c5 v=0
124174 On ch=3 n=d#5 v=0
124174 On ch=3 n=g5 v=0
124174 On ch=3 n=b5 v=69
124174 On ch=3 n=g5 v=69
124174 On ch=3 n=d5 v=69
124174 On ch=3 n=b4 v=69
125166 On ch=3 n=b4 v=0
125166 On ch=3 n=d5 v=0
125166 On ch=3 n=g5 v=0
125166 On ch=3 n=b5 v=0
125166 On ch=3 n=b5 v=74
125166 On ch=3 n=g5 v=74
125166 On ch=3 n=d5 v=74
125166 On ch=3 n=b4 v=74
126166 On ch=3 n=b4 v=0
126166 On ch=3 n=d5 v=0
126166 On ch=3 n=g5 v=0
126166 On ch=3 n=b5 v=0
126166 On ch=3 n=c6 v=84
126166 On ch=3 n=g5 v=84
126166 On ch=3 n=c5 v=84
127090 On ch=3 n=c5 v=0
127090 On ch=3 n=g5 v=0
127090 On ch=3 n=c6 v=0
127090 On ch=3 n=c6 v=69
127090 On ch=3 n=g5 v=69
127090 On ch=3 n=c5 v=69
128058 On ch=3 n=c5 v=0
128058 On ch=3 n=g5 v=0
128058 On ch=3 n=c6 v=0
128058 On ch=3 n=c6 v=76
128058 On ch=3 n=g5 v=76
128058 On ch=3 n=d#5 v=76
128058 On ch=3 n=c5 v=76
129078 On ch=3 n=c5 v=0
129078 On ch=3 n=d#5 v=0
129078 On ch=3 n=g5 v=0
129078 On ch=3 n=c6 v=0
129078 On ch=3 n=c6 v=69
129078 On ch=3 n=g5 v=69
129078 On ch=3 n=d#5 v=69
129078 On ch=3 n=c5 v=69
130058 On ch=3 n=c5 v=0
130058 On ch=3 n=d#5 v=0
130058 On ch=3 n=g5 v=0
130058 On ch=3 n=c6 v=0
130058 On ch=3 n=c6 v=69
130058 On ch=3 n=g5 v=69
130058 On ch=3 n=d#5 v=69
130058 On ch=3 n=c5 v=69
131052 On ch=3 n=c5 v=0
131052 On ch=3 n=d#5 v=0
131052 On ch=3 n=g5 v=0
131052 On ch=3 n=c6 v=0
131052 On ch=3 n=c6 v=69
131052 On ch=3 n=g5 v=69
131052 On ch=3 n=d#5 v=69
131052 On ch=3 n=c5 v=69
132032 On ch=3 n=c5 v=0
132032 On ch=3 n=d#5 v=0
132032 On ch=3 n=g5 v=0
132032 On ch=3 n=c6 v=0
133000 On ch=3 n=c6 v=69
133000 On ch=3 n=g5 v=69
133000 On ch=3 n=c5 v=69
133962 On ch=3 n=c5 v=0
133962 On ch=3 n=g5 v=0
133962 On ch=3 n=c6 v=0
133962 On ch=3 n=c6 v=76
133962 On ch=3 n=g#5 v=76
133962 On ch=3 n=c5 v=76
134924 On ch=3 n=c5 v=0
134924 On ch=3 n=g#5 v=0
134924 On ch=3 n=c6 v=0
134924 On ch=3 n=c6 v=69
134924 On ch=3 n=f5 v=69
134924 On ch=3 n=c5 v=69
135866 On ch=3 n=c5 v=0
135866 On ch=3 n=f5 v=0
135866 On ch=3 n=c6 v=0
135866 On ch=3 n=a#5 v=69
135866 On ch=3 n=f5 v=69
135866 On ch=3 n=a#4 v=69
136798 On ch=3 n=a#4 v=0
136798 On ch=3 n=f5 v=0
136798 On ch=3 n=a#5 v=0
136798 On ch=3 n=a#5 v=69
136798 On ch=3 n=f#5 v=69
136798 On ch=3 n=a#4 v=69
137782 On ch=3 n=a#4 v=0
137782 On ch=3 n=f#5 v=0
137782 On ch=3 n=a#5 v=0
138734 On ch=3 n=a#5 v=69
138734 On ch=3 n=g5 v=69
138734 On ch=3 n=a#4 v=69
139704 On ch=3 n=a#4 v=0
139704 On ch=3 n=g5 v=0
139704 On ch=3 n=a#5 v=0
139704 On ch=3 n=a#5 v=69
139704 On ch=3 n=g5 v=69
139704 On ch=3 n=a#4 v=69
140670 On ch=3 n=a#4 v=0
140670 On ch=3 n=g5 v=0
140670 On ch=3 n=a#5 v=0
140670 On ch=3 n=a#5 v=69
140670 On ch=3 n=d#5 v=69
140670 On ch=3 n=a#4 v=69
141638 On ch=3 n=a#4 v=0
141638 On ch=3 n=d#5 v=0
141638 On ch=3 n=a#5 v=0
141638 On ch=3 n=g#5 v=69
141638 On ch=3 n=d#5 v=69
141638 On ch=3 n=g#4 v=69
142584 On ch=3 n=g#4 v=0
142584 On ch=3 n=d#5 v=0
142584 On ch=3 n=g#5 v=0
142584 On ch=3 n=g#5 v=69
142584 On ch=3 n=e5 v=69
142584 On ch=3 n=g#4 v=69
143572 On ch=3 n=g#4 v=0
143572 On ch=3 n=e5 v=0
143572 On ch=3 n=g#5 v=0
143572 On ch=3 n=g#5 v=69
143572 On ch=3 n=f5 v=69
143572 On ch=3 n=d5 v=69
143572 On ch=3 n=g#4 v=69
144602 On ch=3 n=g#4 v=0
144602 On ch=3 n=d5 v=0
144602 On ch=3 n=f5 v=0
144602 On ch=3 n=g#5 v=0
144602 On ch=3 n=g5 v=69
144602 On ch=3 n=f5 v=69
144602 On ch=3 n=d5 v=69
144602 On ch=3 n=g4 v=69
145558 On ch=3 n=g4 v=0
145558 On ch=3 n=d5 v=0
145558 On ch=3 n=f5 v=0
145558 On ch=3 n=g5 v=0
146572 On ch=3 n=d5 v=69
146572 On ch=3 n=b4 v=69
146572 On ch=3 n=g4 v=69
147568 On ch=3 n=g4 v=0
147568 On ch=3 n=b4 v=0
147568 On ch=3 n=d5 v=0
147568 On ch=3 n=c5 v=69
147568 On ch=3 n=g4 v=69
148628 On ch=3 n=g4 v=0
148628 On ch=3 n=c5 v=0
148628 On ch=3 n=f#5 v=69
148628 On ch=3 n=c5 v=69
148628 On ch=3 n=a4 v=69
149584 On ch=3 n=a4 v=0
149584 On ch=3 n=c5 v=0
149584 On ch=3 n=f#5 v=0
149584 On ch=3 n=f#5 v=69
149584 On ch=3 n=c5 v=69
149584 On ch=3 n=a4 v=69
150576 On ch=3 n=a4 v=0
150576 On ch=3 n=c5 v=0
150576 On ch=3 n=f#5 v=0
150576 On ch=3 n=f#5 v=69
150576 On ch=3 n=c5 v=69
150576 On ch=3 n=a4 v=69
151564 On ch=3 n=a4 v=0
151564 On ch=3 n=c5 v=0
151564 On ch=3 n=f#5 v=0
151564 On ch=3 n=f#5 v=69
151564 On ch=3 n=c5 v=69
152552 On ch=3 n=c5 v=0
152552 On ch=3 n=f#5 v=0
152552 On ch=3 n=f#5 v=69
152552 On ch=3 n=c5 v=69
153502 On ch=3 n=c5 v=0
153502 On ch=3 n=f#5 v=0
153502 On ch=3 n=b5 v=57
153502 On ch=3 n=f5 v=57
154482 On ch=3 n=f5 v=0
154482 On ch=3 n=b5 v=0
154482 On ch=3 n=b5 v=54
154482 On ch=3 n=g5 v=54
154482 On ch=3 n=f5 v=54
155484 On ch=3 n=f5 v=0
155484 On ch=3 n=g5 v=0
155484 On ch=3 n=b5 v=0
155484 On ch=3 n=g5 v=44
155484 On ch=3 n=d#5 v=44
156480 On ch=3 n=d#5 v=0
156480 On ch=3 n=g5 v=0
156480 On ch=3 n=g5 v=50
156480 On ch=3 n=d#5 v=50
156480 On ch=3 n=g4 v=50
157482 On ch=3 n=g4 v=0
157482 On ch=3 n=d#5 v=0
157482 On ch=3 n=g5 v=0
157482 On ch=3 n=g5 v=47
157482 On ch=3 n=c5 v=47
157482 On ch=3 n=g4 v=47
158522 On ch=3 n=g4 v=0
158522 On ch=3 n=c5 v=0
158522 On ch=3 n=g5 v=0
158522 On ch=3 n=g5 v=47
158522 On ch=3 n=c5 v=47
158522 On ch=3 n=g4 v=47
159508 On ch=3 n=g4 v=0
159508 On ch=3 n=c5 v=0
159508 On ch=3 n=g5 v=0
159508 On ch=3 n=g5 v=58
159508 On ch=3 n=f5 v=58
159508 On ch=3 n=b4 v=58
159508 On ch=3 n=g4 v=58
160498 On ch=3 n=g4 v=0
160498 On ch=3 n=b4 v=0
160498 On ch=3 n=f5 v=0
160498 On ch=3 n=g5 v=0
160498 On ch=3 n=g5 v=67
160498 On ch=3 n=f5 v=67
160498 On ch=3 n=b4 v=67
160498 On ch=3 n=g4 v=67
161488 On ch=3 n=g4 v=0
161488 On ch=3 n=b4 v=0
161488 On ch=3 n=f5 v=0
161488 On ch=3 n=g5 v=0
161488 On ch=3 n=g5 v=65
161488 On ch=3 n=d#5 v=65
161488 On ch=3 n=c5 v=65
161488 On ch=3 n=g4 v=65
162452 On ch=3 n=g4 v=0
162452 On ch=3 n=c5 v=0
162452 On ch=3 n=d#5 v=0
162452 On ch=3 n=g5 v=0
162452 On ch=3 n=g5 v=65
162452 On ch=3 n=d#5 v=65
162452 On ch=3 n=c5 v=65
162452 On ch=3 n=g4 v=65
163368 On ch=3 n=g4 v=0
163368 On ch=3 n=c5 v=0
163368 On ch=3 n=d#5 v=0
163368 On ch=3 n=g5 v=0
163368 On ch=3 n=g5 v=69
163368 On ch=3 n=d#5 v=69
163368 On ch=3 n=c5 v=69
163368 On ch=3 n=g4 v=69
164334 On ch=3 n=g4 v=0
164334 On ch=3 n=c5 v=0
164334 On ch=3 n=d#5 v=0
164334 On ch=3 n=g5 v=0
164334 On ch=3 n=g5 v=69
164334 On ch=3 n=d#5 v=69
164334 On ch=3 n=c5 v=69
164334 On ch=3 n=g4 v=69
165286 On ch=3 n=g4 v=0
165286 On ch=3 n=c5 v=0
165286 On ch=3 n=d#5 v=0
165286 On ch=3 n=g5 v=0
165286 On ch=3 n=g5 v=69
165286 On ch=3 n=d#5 v=69
165286 On ch=3 n=a#4 v=69
165286 On ch=3 n=g4 v=69
166230 On ch=3 n=g4 v=0
166230 On ch=3 n=a#4 v=0
166230 On ch=3 n=d#5 v=0
166230 On ch=3 n=g5 v=0
166230 On ch=3 n=g5 v=69
166230 On ch=3 n=d#5 v=69
166230 On ch=3 n=a#4 v=69
166230 On ch=3 n=g4 v=69
167236 On ch=3 n=g4 v=0
167236 On ch=3 n=a#4 v=0
167236 On ch=3 n=d#5 v=0
167236 On ch=3 n=g5 v=0
167236 On ch=3 n=a#5 v=69
167236 On ch=3 n=g5 v=69
167236 On ch=3 n=d#5 v=69
167236 On ch=3 n=a#4 v=69
168232 On ch=3 n=a#4 v=0
168232 On ch=3 n=d#5 v=0
168232 On ch=3 n=g5 v=0
168232 On ch=3 n=a#5 v=0
168232 On ch=3 n=a#5 v=70
168232 On ch=3 n=g5 v=70
168232 On ch=3 n=d#5 v=70
168232 On ch=3 n=a#4 v=70
169216 On ch=3 n=a#4 v=0
169216 On ch=3 n=d#5 v=0
169216 On ch=3 n=g5 v=0
169216 On ch=3 n=a#5 v=0
169216 On ch=3 n=a#5 v=84
169216 On ch=3 n=d#5 v=84
169216 On ch=3 n=a#4 v=84
170234 On ch=3 n=a#4 v=0
170234 On ch=3 n=d#5 v=0
170234 On ch=3 n=a#5 v=0
170234 On ch=3 n=a#5 v=72
170234 On ch=3 n=d#5 v=72
170234 On ch=3 n=a#4 v=72
171202 On ch=3 n=a#4 v=0
171202 On ch=3 n=d#5 v=0
171202 On ch=3 n=a#5 v=0
171202 On ch=3 n=a#5 v=70
171202 On ch=3 n=g#5 v=70
171202 On ch=3 n=d5 v=70
171202 On ch=3 n=a#4 v=70
172206 On ch=3 n=a#4 v=0
172206 On ch=3 n=d5 v=0
172206 On ch=3 n=g#5 v=0
172206 On ch=3 n=a#5 v=0
172206 On ch=3 n=a#5 v=76
172206 On ch=3 n=g#5 v=76
172206 On ch=3 n=d5 v=76
172206 On ch=3 n=a#4 v=76
173212 On ch=3 n=a#4 v=0
173212 On ch=3 n=d5 v=0
173212 On ch=3 n=g#5 v=0
173212 On ch=3 n=a#5 v=0
173212 On ch=3 n=a#5 v=80
173212 On ch=3 n=g5 v=80
173212 On ch=3 n=c#5 v=80
173212 On ch=3 n=a#4 v=80
174124 On ch=3 n=a#4 v=0
174124 On ch=3 n=c#5 v=0
174124 On ch=3 n=g5 v=0
174124 On ch=3 n=a#5 v=0
174124 On ch=3 n=a#5 v=69
174124 On ch=3 n=g5 v=69
174124 On ch=3 n=c#5 v=69
174124 On ch=3 n=a#4 v=69
175048 On ch=3 n=a#4 v=0
175048 On ch=3 n=c#5 v=0
175048 On ch=3 n=g5 v=0
175048 On ch=3 n=a#5 v=0
175048 On ch=3 n=a#5 v=69
175048 On ch=3 n=g5 v=69
175048 On ch=3 n=c#5 v=69
175048 On ch=3 n=a#4 v=69
176076 On ch=3 n=a#4 v=0
176076 On ch=3 n=c#5 v=0
176076 On ch=3 n=g5 v=0
176076 On ch=3 n=a#5 v=0
176076 On ch=3 n=a#5 v=69
176076 On ch=3 n=g5 v=69
176076 On ch=3 n=d#5 v=69
176076 On ch=3 n=c#5 v=69
177036 On ch=3 n=c#5 v=0
177036 On ch=3 n=d#5 v=0
177036 On ch=3 n=g5 v=0
177036 On ch=3 n=a#5 v=0
177036 On ch=3 n=g5 v=69
177036 On ch=3 n=d#5 v=69
177036 On ch=3 n=c#5 v=69
177984 On ch=3 n=c#5 v=0
177984 On ch=3 n=d#5 v=0
177984 On ch=3 n=g5 v=0
177984 On ch=3 n=g5 v=69
177984 On ch=3 n=d#5 v=69
177984 On ch=3 n=c#5 v=69
178928 On ch=3 n=c#5 v=0
178928 On ch=3 n=d#5 v=0
178928 On ch=3 n=g5 v=0
178928 On ch=3 n=f#5 v=57
178928 On ch=3 n=c5 v=57
179906 On ch=3 n=c5 v=0
179906 On ch=3 n=f#5 v=0
179906 On ch=3 n=f#5 v=57
179906 On ch=3 n=c5 v=57
180890 On ch=3 n=c5 v=0
180890 On ch=3 n=f#5 v=0
180890 On ch=3 n=f#5 v=53
180890 On ch=3 n=c5 v=53
181850 On ch=3 n=c5 v=0
181850 On ch=3 n=f#5 v=0
181850 On ch=3 n=f#5 v=51
181850 On ch=3 n=c5 v=51
182826 On ch=3 n=c5 v=0
182826 On ch=3 n=f#5 v=0
182826 On ch=3 n=f5 v=50
182826 On ch=3 n=c#5 v=50
183798 On ch=3 n=c#5 v=0
183798 On ch=3 n=f5 v=0
183798 On ch=3 n=f5 v=48
183798 On ch=3 n=c#5 v=48
184788 On ch=3 n=c#5 v=0
184788 On ch=3 n=f5 v=0
184788 On ch=3 n=f5 v=48
184788 On ch=3 n=d5 v=48
185754 On ch=3 n=d5 v=0
185754 On ch=3 n=f5 v=0
185754 On ch=3 n=f5 v=48
185754 On ch=3 n=d5 v=48
186746 On ch=3 n=d5 v=0
186746 On ch=3 n=f5 v=0
186746 On ch=3 n=f5 v=48
186746 On ch=3 n=b4 v=48
187752 On ch=3 n=b4 v=0
187752 On ch=3 n=f5 v=0
187752 On ch=3 n=f5 v=48
187752 On ch=3 n=b4 v=48
188722 On ch=3 n=b4 v=0
188722 On ch=3 n=f5 v=0
188722 On ch=3 n=d#5 v=48
188722 On ch=3 n=c5 v=48
189682 On ch=3 n=c5 v=0
189682 On ch=3 n=d#5 v=0
189682 On ch=3 n=d#5 v=45
189682 On ch=3 n=c5 v=45
190636 On ch=3 n=c5 v=0
190636 On ch=3 n=d#5 v=0
190636 On ch=3 n=d#5 v=47
190636 On ch=3 n=c5 v=47
191654 On ch=3 n=c5 v=0
191654 On ch=3 n=d#5 v=0
191654 On ch=3 n=d#5 v=46
191654 On ch=3 n=c5 v=46
192624 On ch=3 n=c5 v=0
192624 On ch=3 n=d#5 v=0
192624 On ch=3 n=d5 v=48
192624 On ch=3 n=b4 v=48
193634 On ch=3 n=b4 v=0
193634 On ch=3 n=d5 v=0
193634 On ch=3 n=d#5 v=50
193634 On ch=3 n=c5 v=50
194630 On ch=3 n=c5 v=0
194630 On ch=3 n=d#5 v=0
194630 On ch=3 n=d5 v=50
194630 On ch=3 n=b4 v=50
195644 On ch=3 n=b4 v=0
195644 On ch=3 n=d5 v=0
195644 On ch=3 n=d#5 v=47
195644 On ch=3 n=g#4 v=47
196620 On ch=3 n=g#4 v=0
196620 On ch=3 n=d#5 v=0
196620 On ch=3 n=f5 v=47
196620 On ch=3 n=c5 v=47
197568 On ch=3 n=c5 v=0
197568 On ch=3 n=f5 v=0
197568 On ch=3 n=f5 v=51
197568 On ch=3 n=b4 v=51
198552 On ch=3 n=b4 v=0
198552 On ch=3 n=f5 v=0
199538 On ch=3 n=f5 v=67
199538 On ch=3 n=b4 v=67
199538 On ch=3 n=g4 v=67
200562 On ch=3 n=g4 v=0
200562 On ch=3 n=b4 v=0
200562 On ch=3 n=f5 v=0
200562 On ch=3 n=d#5 v=75
200562 On ch=3 n=c5 v=75
200562 On ch=3 n=g4 v=75
201500 On ch=3 n=g4 v=0
201500 On ch=3 n=c5 v=0
201500 On ch=3 n=d#5 v=0
207388 On ch=3 n=c6 v=87
209018 On ch=3 n=c6 v=0
209018 On ch=3 n=b5 v=70
209576 On ch=3 n=b5 v=0
209576 On ch=3 n=f5 v=58
210056 On ch=3 n=f5 v=0
210056 On ch=3 n=d#6 v=66
210056 On ch=3 n=c6 v=66
210548 On ch=3 n=c6 v=0
210548 On ch=3 n=d#6 v=0
210548 On ch=3 n=d#6 v=55
210548 On ch=3 n=c6 v=55
211050 On ch=3 n=c6 v=0
211050 On ch=3 n=d#6 v=0
211050 On ch=3 n=d6 v=59
211050 On ch=3 n=b5 v=59
211562 On ch=3 n=b5 v=0
211562 On ch=3 n=d6 v=0
211562 On ch=3 n=f5 v=56
212054 On ch=3 n=f5 v=0
212054 On ch=3 n=c6 v=60
212552 On ch=3 n=c6 v=0
212552 On ch=3 n=c6 v=61
213034 On ch=3 n=c6 v=0
213034 On ch=3 n=b5 v=68
213532 On ch=3 n=b5 v=0
213532 On ch=3 n=f5 v=68
214578 On ch=3 n=f5 v=0
219576 On ch=3 n=c6 v=61
221266 On ch=3 n=c6 v=0
221266 On ch=3 n=b5 v=64
221742 On ch=3 n=b5 v=0
221742 On ch=3 n=f5 v=63
222232 On ch=3 n=f5 v=0
222232 On ch=3 n=d#6 v=62
222232 On ch=3 n=c6 v=62
222724 On ch=3 n=c6 v=0
222724 On ch=3 n=d#6 v=0
222724 On ch=3 n=d#6 v=61
222724 On ch=3 n=c6 v=61
223236 On ch=3 n=c6 v=0
223236 On ch=3 n=d#6 v=0
223236 On ch=3 n=d6 v=59
223236 On ch=3 n=b5 v=59
223766 On ch=3 n=b5 v=0
223766 On ch=3 n=d6 v=0
223766 On ch=3 n=f5 v=59
224246 On ch=3 n=f5 v=0
224246 On ch=3 n=c6 v=63
224734 On ch=3 n=c6 v=0
224734 On ch=3 n=c6 v=64
225264 On ch=3 n=c6 v=0
225264 On ch=3 n=b5 v=61
225788 On ch=3 n=b5 v=0
225788 On ch=3 n=f5 v=60
226272 On ch=3 n=f5 v=0
226272 On ch=3 n=d6 v=66
226774 On ch=3 n=d6 v=0
226774 On ch=3 n=d6 v=62
227284 On ch=3 n=d6 v=0
227284 On ch=3 n=c#6 v=64
227800 On ch=3 n=c#6 v=0
227800 On ch=3 n=g5 v=63
228300 On ch=3 n=g5 v=0
228300 On ch=3 n=f6 v=70
228300 On ch=3 n=d6 v=70
228802 On ch=3 n=d6 v=0
228802 On ch=3 n=f6 v=0
228802 On ch=3 n=f6 v=68
228802 On ch=3 n=d6 v=68
229304 On ch=3 n=d6 v=0
229304 On ch=3 n=f6 v=0
229304 On ch=3 n=e6 v=72
229304 On ch=3 n=c#6 v=72
229818 On ch=3 n=c#6 v=0
229818 On ch=3 n=e6 v=0
229818 On ch=3 n=g5 v=66
230302 On ch=3 n=g5 v=0
230302 On ch=3 n=d6 v=81
230794 On ch=3 n=d6 v=0
230794 On ch=3 n=d6 v=81
231296 On ch=3 n=d6 v=0
231296 On ch=3 n=c#6 v=81
231802 On ch=3 n=c#6 v=0
231802 On ch=3 n=g5 v=81
232302 On ch=3 n=g5 v=0
232302 On ch=3 n=e6 v=81
232784 On ch=3 n=e6 v=0
232784 On ch=3 n=e6 v=81
233278 On ch=3 n=e6 v=0
233278 On ch=3 n=d#6 v=82
233756 On ch=3 n=d#6 v=0
233756 On ch=3 n=a5 v=82
234258 On ch=3 n=a5 v=0
234258 On ch=3 n=g6 v=82
234258 On ch=3 n=e6 v=82
234758 On ch=3 n=e6 v=0
234758 On ch=3 n=g6 v=0
234758 On ch=3 n=g6 v=82
234758 On ch=3 n=e6 v=82
235234 On ch=3 n=e6 v=0
235234 On ch=3 n=g6 v=0
235234 On ch=3 n=f#6 v=82
235234 On ch=3 n=d#6 v=82
235756 On ch=3 n=d#6 v=0
235756 On ch=3 n=f#6 v=0
235756 On ch=3 n=a5 v=82
236266 On ch=3 n=a5 v=0
236266 On ch=3 n=b6 v=84
236266 On ch=3 n=g6 v=84
236748 On ch=3 n=g6 v=0
236748 On ch=3 n=b6 v=0
236748 On ch=3 n=b6 v=88
236748 On ch=3 n=g6 v=88
237220 On ch=3 n=g6 v=0
237220 On ch=3 n=b6 v=0
237220 On ch=3 n=a6 v=88
237220 On ch=3 n=f#6 v=88
237718 On ch=3 n=f#6 v=0
237718 On ch=3 n=a6 v=0
237718 On ch=3 n=c6 v=87
238228 On ch=3 n=c6 v=0
238228 On ch=3 n=d7 v=96
238228 On ch=3 n=b6 v=96
238702 On ch=3 n=b6 v=0
238702 On ch=3 n=d7 v=0
238702 On ch=3 n=d7 v=92
238702 On ch=3 n=b6 v=92
239192 On ch=3 n=b6 v=0
239192 On ch=3 n=d7 v=0
239192 On ch=3 n=c7 v=93
239192 On ch=3 n=a6 v=93
239668 On ch=3 n=a6 v=0
239668 On ch=3 n=c7 v=0
239668 On ch=3 n=c6 v=89
240168 On ch=3 n=c6 v=0
240168 On ch=3 n=b6 v=92
240168 On ch=3 n=g6 v=92
240638 On ch=3 n=g6 v=0
240638 On ch=3 n=b6 v=0
240638 On ch=3 n=b6 v=91
240638 On ch=3 n=g6 v=91
241128 On ch=3 n=g6 v=0
241128 On ch=3 n=b6 v=0
241128 On ch=3 n=a6 v=92
241128 On ch=3 n=f#6 v=92
241610 On ch=3 n=f#6 v=0
241610 On ch=3 n=a6 v=0
241610 On ch=3 n=c6 v=89
242100 On ch=3 n=c6 v=0
242100 On ch=3 n=d7 v=93
242100 On ch=3 n=b6 v=93
242570 On ch=3 n=b6 v=0
242570 On ch=3 n=d7 v=0
242570 On ch=3 n=d7 v=96
242570 On ch=3 n=b6 v=96
243056 On ch=3 n=b6 v=0
243056 On ch=3 n=d7 v=0
243056 On ch=3 n=c7 v=92
243056 On ch=3 n=a6 v=92
243538 On ch=3 n=a6 v=0
243538 On ch=3 n=c7 v=0
243538 On ch=3 n=c6 v=92
244026 On ch=3 n=c6 v=0
244026 On ch=3 n=c7 v=91
244026 On ch=3 n=a6 v=91
244500 On ch=3 n=a6 v=0
244500 On ch=3 n=c7 v=0
244500 On ch=3 n=c7 v=96
244500 On ch=3 n=a6 v=96
244970 On ch=3 n=a6 v=0
244970 On ch=3 n=c7 v=0
244970 On ch=3 n=b6 v=89
244970 On ch=3 n=g6 v=89
245470 On ch=3 n=g6 v=0
245470 On ch=3 n=b6 v=0
245470 On ch=3 n=b5 v=82
245952 On ch=3 n=b5 v=0
245952 On ch=3 n=c7 v=82
245952 On ch=3 n=a6 v=82
246448 On ch=3 n=a6 v=0
246448 On ch=3 n=c7 v=0
246448 On ch=3 n=c7 v=82
246448 On ch=3 n=a6 v=82
246940 On ch=3 n=a6 v=0
246940 On ch=3 n=c7 v=0
246940 On ch=3 n=b6 v=82
246940 On ch=3 n=g6 v=82
247408 On ch=3 n=g6 v=0
247408 On ch=3 n=b6 v=0
247408 On ch=3 n=b5 v=82
247890 On ch=3 n=b5 v=0
247890 On ch=3 n=b6 v=82
247890 On ch=3 n=g6 v=82
248346 On ch=3 n=g6 v=0
248346 On ch=3 n=b6 v=0
248346 On ch=3 n=b6 v=77
248346 On ch=3 n=g6 v=77
248858 On ch=3 n=g6 v=0
248858 On ch=3 n=b6 v=0
248858 On ch=3 n=a6 v=74
248858 On ch=3 n=f#6 v=74
249330 On ch=3 n=f#6 v=0
249330 On ch=3 n=a6 v=0
249330 On ch=3 n=a5 v=74
249812 On ch=3 n=a5 v=0
249812 On ch=3 n=a6 v=69
249812 On ch=3 n=f#6 v=69
250284 On ch=3 n=f#6 v=0
250284 On ch=3 n=a6 v=0
250284 On ch=3 n=a6 v=68
250284 On ch=3 n=f#6 v=68
250766 On ch=3 n=f#6 v=0
250766 On ch=3 n=a6 v=0
250766 On ch=3 n=g6 v=66
250766 On ch=3 n=e6 v=66
251270 On ch=3 n=e6 v=0
251270 On ch=3 n=g6 v=0
251270 On ch=3 n=g5 v=64
251760 On ch=3 n=g5 v=0
251760 On ch=3 n=g6 v=66
251760 On ch=3 n=e6 v=66
252250 On ch=3 n=e6 v=0
252250 On ch=3 n=g6 v=0
252250 On ch=3 n=g6 v=66
252250 On ch=3 n=e6 v=66
252782 On ch=3 n=e6 v=0
252782 On ch=3 n=g6 v=0
252782 On ch=3 n=f#6 v=67
252782 On ch=3 n=d6 v=67
253272 On ch=3 n=d6 v=0
253272 On ch=3 n=f#6 v=0
253272 On ch=3 n=g5 v=67
253750 On ch=3 n=g5 v=0
253750 On ch=3 n=f#6 v=65
253750 On ch=3 n=d6 v=65
254260 On ch=3 n=d6 v=0
254260 On ch=3 n=f#6 v=0
254260 On ch=3 n=f#6 v=63
254260 On ch=3 n=c6 v=63
254766 On ch=3 n=c6 v=0
254766 On ch=3 n=f#6 v=0
254766 On ch=3 n=e6 v=64
255250 On ch=3 n=e6 v=0
255250 On ch=3 n=a5 v=62
255732 On ch=3 n=a5 v=0
255732 On ch=3 n=e6 v=62
256222 On ch=3 n=e6 v=0
256222 On ch=3 n=e6 v=61
256222 On ch=3 n=b5 v=61
256724 On ch=3 n=b5 v=0
256724 On ch=3 n=e6 v=0
256724 On ch=3 n=d6 v=59
257220 On ch=3 n=d6 v=0
257220 On ch=3 n=g5 v=59
257702 On ch=3 n=g5 v=0
257702 On ch=3 n=e6 v=60
258174 On ch=3 n=e6 v=0
258174 On ch=3 n=e6 v=58
258174 On ch=3 n=b5 v=58
258668 On ch=3 n=b5 v=0
258668 On ch=3 n=e6 v=0
258668 On ch=3 n=d6 v=53
259158 On ch=3 n=d6 v=0
259158 On ch=3 n=g5 v=55
259648 On ch=3 n=g5 v=0
259648 On ch=3 n=e6 v=52
260136 On ch=3 n=e6 v=0
260136 On ch=3 n=e6 v=52
260136 On ch=3 n=b5 v=52
260628 On ch=3 n=b5 v=0
260628 On ch=3 n=e6 v=0
260628 On ch=3 n=d6 v=54
261118 On ch=3 n=d6 v=0
261118 On ch=3 n=g5 v=52
261600 On ch=3 n=g5 v=0
261600 On ch=3 n=e6 v=53
262088 On ch=3 n=e6 v=0
262088 On ch=3 n=e6 v=50
262088 On ch=3 n=c6 v=50
262592 On ch=3 n=c6 v=0
262592 On ch=3 n=e6 v=0
262592 On ch=3 n=d6 v=54
263102 On ch=3 n=d6 v=0
263102 On ch=3 n=f#5 v=50
263594 On ch=3 n=f#5 v=0
263594 On ch=3 n=e6 v=50
264082 On ch=3 n=e6 v=0
264082 On ch=3 n=e6 v=52
264082 On ch=3 n=c6 v=52
264608 On ch=3 n=c6 v=0
264608 On ch=3 n=e6 v=0
264608 On ch=3 n=d6 v=50
265088 On ch=3 n=d6 v=0
265088 On ch=3 n=f#5 v=54
265586 On ch=3 n=f#5 v=0
265586 On ch=3 n=e6 v=54
266090 On ch=3 n=e6 v=0
266090 On ch=3 n=e6 v=49
266090 On ch=3 n=b5 v=49
266574 On ch=3 n=b5 v=0
266574 On ch=3 n=e6 v=0
266574 On ch=3 n=d6 v=53
267078 On ch=3 n=d6 v=0
267078 On ch=3 n=f#5 v=47
267568 On ch=3 n=f#5 v=0
267568 On ch=3 n=e6 v=48
268064 On ch=3 n=e6 v=0
268064 On ch=3 n=e6 v=48
268064 On ch=3 n=b5 v=48
268564 On ch=3 n=b5 v=0
268564 On ch=3 n=e6 v=0
268564 On ch=3 n=d6 v=47
269062 On ch=3 n=d6 v=0
269062 On ch=3 n=g5 v=48
269560 On ch=3 n=g5 v=0
269560 On ch=3 n=c6 v=47
270060 On ch=3 n=c6 v=0
270060 On ch=3 n=c6 v=48
270060 On ch=3 n=g5 v=48
270580 On ch=3 n=g5 v=0
270580 On ch=3 n=c6 v=0
270580 On ch=3 n=b5 v=48
271080 On ch=3 n=b5 v=0
271080 On ch=3 n=d5 v=49
271590 On ch=3 n=d5 v=0
271590 On ch=3 n=a5 v=49
272092 On ch=3 n=a5 v=0
272092 On ch=3 n=a5 v=47
272092 On ch=3 n=d5 v=47
272594 On ch=3 n=d5 v=0
272594 On ch=3 n=a5 v=0
272594 On ch=3 n=g5 v=48
273088 On ch=3 n=g5 v=0
273578 On ch=3 n=g5 v=48
274066 On ch=3 n=g5 v=0
274066 On ch=3 n=g5 v=48
274066 On ch=3 n=c5 v=48
274566 On ch=3 n=c5 v=0
274566 On ch=3 n=g5 v=0
274566 On ch=3 n=f#5 v=48
275086 On ch=3 n=f#5 v=0
275086 On ch=3 n=g4 v=47
275580 On ch=3 n=g4 v=0
275580 On ch=3 n=f#5 v=53
276088 On ch=3 n=f#5 v=0
276088 On ch=3 n=f#5 v=49
276088 On ch=3 n=c5 v=49
276578 On ch=3 n=c5 v=0
276578 On ch=3 n=f#5 v=0
276578 On ch=3 n=e5 v=49
277066 On ch=3 n=e5 v=0
277066 On ch=3 n=g4 v=50
277564 On ch=3 n=g4 v=0
277564 On ch=3 n=e5 v=48
278046 On ch=3 n=e5 v=0
278046 On ch=3 n=e5 v=48
278046 On ch=3 n=c5 v=48
278538 On ch=3 n=c5 v=0
278538 On ch=3 n=e5 v=0
278538 On ch=3 n=d5 v=49
279026 On ch=3 n=d5 v=0
279026 On ch=3 n=a4 v=49
279502 On ch=3 n=a4 v=0
279502 On ch=3 n=e5 v=49
279980 On ch=3 n=e5 v=0
279980 On ch=3 n=e5 v=49
279980 On ch=3 n=b4 v=49
280478 On ch=3 n=b4 v=0
280478 On ch=3 n=e5 v=0
280478 On ch=3 n=d5 v=48
280952 On ch=3 n=d5 v=0
280952 On ch=3 n=g4 v=49
281454 On ch=3 n=g4 v=0
281454 On ch=3 n=e5 v=45
281942 On ch=3 n=e5 v=0
281942 On ch=3 n=e5 v=48
281942 On ch=3 n=b4 v=48
282442 On ch=3 n=b4 v=0
282442 On ch=3 n=e5 v=0
282442 On ch=3 n=d5 v=48
282926 On ch=3 n=d5 v=0
282926 On ch=3 n=g4 v=49
283410 On ch=3 n=g4 v=0
283410 On ch=3 n=e5 v=52
283890 On ch=3 n=e5 v=0
283890 On ch=3 n=e5 v=48
283890 On ch=3 n=b4 v=48
284378 On ch=3 n=b4 v=0
284378 On ch=3 n=e5 v=0
284378 On ch=3 n=d5 v=49
284864 On ch=3 n=d5 v=0
284864 On ch=3 n=g4 v=48
285358 On ch=3 n=g4 v=0
285358 On ch=3 n=e5 v=48
285836 On ch=3 n=e5 v=0
285836 On ch=3 n=e5 v=48
285836 On ch=3 n=c5 v=48
286334 On ch=3 n=c5 v=0
286334 On ch=3 n=e5 v=0
286334 On ch=3 n=d5 v=45
286814 On ch=3 n=d5 v=0
286814 On ch=3 n=f#4 v=48
287298 On ch=3 n=f#4 v=0
287298 On ch=3 n=e5 v=47
287774 On ch=3 n=e5 v=0
287774 On ch=3 n=e5 v=47
287774 On ch=3 n=c5 v=47
288252 On ch=3 n=c5 v=0
288252 On ch=3 n=e5 v=0
288252 On ch=3 n=d5 v=48
288746 On ch=3 n=d5 v=0
288746 On ch=3 n=f#4 v=47
289230 On ch=3 n=f#4 v=0
289230 On ch=3 n=e5 v=47
289718 On ch=3 n=e5 v=0
289718 On ch=3 n=e5 v=48
289718 On ch=3 n=b4 v=48
290212 On ch=3 n=b4 v=0
290212 On ch=3 n=e5 v=0
290212 On ch=3 n=d5 v=47
290686 On ch=3 n=d5 v=0
290686 On ch=3 n=f#4 v=48
291182 On ch=3 n=f#4 v=0
291182 On ch=3 n=e5 v=47
291666 On ch=3 n=e5 v=0
291666 On ch=3 n=e5 v=49
292156 On ch=3 n=e5 v=0
292156 On ch=3 n=d5 v=45
292630 On ch=3 n=d5 v=0
292630 On ch=3 n=e5 v=47
293118 On ch=3 n=e5 v=0
293118 On ch=3 n=d5 v=46
293600 On ch=3 n=d5 v=0
293600 On ch=3 n=e5 v=46
294084 On ch=3 n=e5 v=0
294084 On ch=3 n=d5 v=46
294560 On ch=3 n=d5 v=0
294560 On ch=3 n=e5 v=46
295064 On ch=3 n=e5 v=0
295064 On ch=3 n=d5 v=45
295566 On ch=3 n=d5 v=0
295566 On ch=3 n=e5 v=43
296086 On ch=3 n=e5 v=0
296086 On ch=3 n=d5 v=43
296572 On ch=3 n=d5 v=0
296572 On ch=3 n=e5 v=44
297072 On ch=3 n=e5 v=0
297072 On ch=3 n=d5 v=41
297548 On ch=3 n=d5 v=0
297548 On ch=3 n=e5 v=44
298050 On ch=3 n=e5 v=0
298050 On ch=3 n=d5 v=42
298556 On ch=3 n=d5 v=0
298556 On ch=3 n=e5 v=39
299050 On ch=3 n=e5 v=0
299050 On ch=3 n=d5 v=41
299522 On ch=3 n=d5 v=0
299522 On ch=3 n=e5 v=41
300006 On ch=3 n=e5 v=0
300006 On ch=3 n=d5 v=41
300520 On ch=3 n=d5 v=0
300520 On ch=3 n=e5 v=35
301024 On ch=3 n=e5 v=0
301024 On ch=3 n=d5 v=36
301554 On ch=3 n=d5 v=0
301554 On ch=3 n=e5 v=33
302038 On ch=3 n=e5 v=0
302038 On ch=3 n=d5 v=38
302566 On ch=3 n=d5 v=0
302566 On ch=3 n=e5 v=33
303078 On ch=3 n=e5 v=0
303078 On ch=3 n=d5 v=33
303602 On ch=3 n=d5 v=0
303602 On ch=3 n=e5 v=27
304124 On ch=3 n=e5 v=0
304124 On ch=3 n=d5 v=28
304644 On ch=3 n=d5 v=0
304644 On ch=3 n=e5 v=32
305160 On ch=3 n=e5 v=0
305160 On ch=3 n=d5 v=32
305672 On ch=3 n=d5 v=0
305672 On ch=3 n=e5 v=32
306200 On ch=3 n=e5 v=0
306200 On ch=3 n=d5 v=33
306730 On ch=3 n=d5 v=0
306730 On ch=3 n=e5 v=31
307284 On ch=3 n=e5 v=0
307284 On ch=3 n=d5 v=26
307794 On ch=3 n=d5 v=0
307794 On ch=3 n=e5 v=28
308314 On ch=3 n=e5 v=0
308314 On ch=3 n=d5 v=33
308820 On ch=3 n=d5 v=0
308820 On ch=3 n=a4 v=34
309340 On ch=3 n=a4 v=0
309340 On ch=3 n=d4 v=36
309908 On ch=3 n=d4 v=0
327706 On ch=3 n=g5 v=67
327706 On ch=3 n=d#5 v=67
327706 On ch=3 n=c5 v=67
327706 On ch=3 n=g4 v=67
328612 On ch=3 n=g4 v=0
328612 On ch=3 n=c5 v=0
328612 On ch=3 n=d#5 v=0
328612 On ch=3 n=g5 v=0
328612 On ch=3 n=g5 v=67
328612 On ch=3 n=c5 v=67
328612 On ch=3 n=g4 v=67
329462 On ch=3 n=g4 v=0
329462 On ch=3 n=c5 v=0
329462 On ch=3 n=g5 v=0
329462 On ch=3 n=g5 v=62
329462 On ch=3 n=c5 v=62
329462 On ch=3 n=g4 v=62
330390 On ch=3 n=g4 v=0
330390 On ch=3 n=c5 v=0
330390 On ch=3 n=g5 v=0
330390 On ch=3 n=g5 v=66
330390 On ch=3 n=f5 v=66
330390 On ch=3 n=b4 v=66
330390 On ch=3 n=g4 v=66
331306 On ch=3 n=g4 v=0
331306 On ch=3 n=b4 v=0
331306 On ch=3 n=f5 v=0
331306 On ch=3 n=g5 v=0
331306 On ch=3 n=g5 v=77
331306 On ch=3 n=f5 v=77
331306 On ch=3 n=b4 v=77
331306 On ch=3 n=g4 v=77
332274 On ch=3 n=g4 v=0
332274 On ch=3 n=b4 v=0
332274 On ch=3 n=f5 v=0
332274 On ch=3 n=g5 v=0
332274 On ch=3 n=g5 v=70
332274 On ch=3 n=d#5 v=70
332274 On ch=3 n=c5 v=70
332274 On ch=3 n=g4 v=70
333156 On ch=3 n=g4 v=0
333156 On ch=3 n=c5 v=0
333156 On ch=3 n=d#5 v=0
333156 On ch=3 n=g5 v=0
333156 On ch=3 n=g5 v=68
333156 On ch=3 n=d#5 v=68
333156 On ch=3 n=c5 v=68
333156 On ch=3 n=g4 v=68
334056 On ch=3 n=g4 v=0
334056 On ch=3 n=c5 v=0
334056 On ch=3 n=d#5 v=0
334056 On ch=3 n=g5 v=0
334056 On ch=3 n=g5 v=67
334056 On ch=3 n=d#5 v=67
334056 On ch=3 n=c5 v=67
334056 On ch=3 n=g4 v=67
334974 On ch=3 n=g4 v=0
334974 On ch=3 n=c5 v=0
334974 On ch=3 n=d#5 v=0
334974 On ch=3 n=g5 v=0
334974 On ch=3 n=g5 v=67
334974 On ch=3 n=d#5 v=67
334974 On ch=3 n=c5 v=67
334974 On ch=3 n=g4 v=67
335910 On ch=3 n=g4 v=0
335910 On ch=3 n=c5 v=0
335910 On ch=3 n=d#5 v=0
335910 On ch=3 n=g5 v=0
335910 On ch=3 n=g5 v=71
335910 On ch=3 n=d#5 v=71
335910 On ch=3 n=c5 v=71
335910 On ch=3 n=g4 v=71
336808 On ch=3 n=g4 v=0
336808 On ch=3 n=c5 v=0
336808 On ch=3 n=d#5 v=0
336808 On ch=3 n=g5 v=0
336808 On ch=3 n=g5 v=67
336808 On ch=3 n=d#5 v=67
336808 On ch=3 n=c5 v=67
336808 On ch=3 n=g4 v=67
337740 On ch=3 n=g4 v=0
337740 On ch=3 n=c5 v=0
337740 On ch=3 n=d#5 v=0
337740 On ch=3 n=g5 v=0
337740 On ch=3 n=g5 v=76
337740 On ch=3 n=c5 v=76
337740 On ch=3 n=g4 v=76
338668 On ch=3 n=g4 v=0
338668 On ch=3 n=c5 v=0
338668 On ch=3 n=g5 v=0
338668 On ch=3 n=g5 v=72
338668 On ch=3 n=c5 v=72
338668 On ch=3 n=g4 v=72
339610 On ch=3 n=g4 v=0
339610 On ch=3 n=c5 v=0
339610 On ch=3 n=g5 v=0
339610 On ch=3 n=g5 v=85
339610 On ch=3 n=d#5 v=85
339610 On ch=3 n=c5 v=85
339610 On ch=3 n=g4 v=85
340554 On ch=3 n=g4 v=0
340554 On ch=3 n=c5 v=0
340554 On ch=3 n=d#5 v=0
340554 On ch=3 n=g5 v=0
340554 On ch=3 n=g5 v=72
340554 On ch=3 n=d#5 v=72
340554 On ch=3 n=c5 v=72
340554 On ch=3 n=g4 v=72
341488 On ch=3 n=g4 v=0
341488 On ch=3 n=c5 v=0
341488 On ch=3 n=d#5 v=0
341488 On ch=3 n=g5 v=0
341488 On ch=3 n=b5 v=70
341488 On ch=3 n=g5 v=70
341488 On ch=3 n=d5 v=70
341488 On ch=3 n=b4 v=70
342410 On ch=3 n=b4 v=0
342410 On ch=3 n=d5 v=0
342410 On ch=3 n=g5 v=0
342410 On ch=3 n=b5 v=0
342410 On ch=3 n=b5 v=80
342410 On ch=3 n=g5 v=80
342410 On ch=3 n=d5 v=80
342410 On ch=3 n=b4 v=80
343356 On ch=3 n=b4 v=0
343356 On ch=3 n=d5 v=0
343356 On ch=3 n=g5 v=0
343356 On ch=3 n=b5 v=0
343356 On ch=3 n=c6 v=85
343356 On ch=3 n=g5 v=85
343356 On ch=3 n=c5 v=85
344224 On ch=3 n=c5 v=0
344224 On ch=3 n=g5 v=0
344224 On ch=3 n=c6 v=0
344224 On ch=3 n=c6 v=78
344224 On ch=3 n=g5 v=78
344224 On ch=3 n=c5 v=78
345124 On ch=3 n=c5 v=0
345124 On ch=3 n=g5 v=0
345124 On ch=3 n=c6 v=0
345124 On ch=3 n=c6 v=88
345124 On ch=3 n=g5 v=88
345124 On ch=3 n=d#5 v=88
345124 On ch=3 n=c5 v=88
346086 On ch=3 n=c5 v=0
346086 On ch=3 n=d#5 v=0
346086 On ch=3 n=g5 v=0
346086 On ch=3 n=c6 v=0
346086 On ch=3 n=c6 v=73
346086 On ch=3 n=g5 v=73
346086 On ch=3 n=d#5 v=73
346086 On ch=3 n=c5 v=73
346998 On ch=3 n=c5 v=0
346998 On ch=3 n=d#5 v=0
346998 On ch=3 n=g5 v=0
346998 On ch=3 n=c6 v=0
346998 On ch=3 n=c6 v=71
346998 On ch=3 n=g5 v=71
346998 On ch=3 n=d#5 v=71
346998 On ch=3 n=c5 v=71
347922 On ch=3 n=c5 v=0
347922 On ch=3 n=d#5 v=0
347922 On ch=3 n=g5 v=0
347922 On ch=3 n=c6 v=0
347922 On ch=3 n=c6 v=71
347922 On ch=3 n=g5 v=71
347922 On ch=3 n=d#5 v=71
347922 On ch=3 n=c5 v=71
348866 On ch=3 n=c5 v=0
348866 On ch=3 n=d#5 v=0
348866 On ch=3 n=g5 v=0
348866 On ch=3 n=c6 v=0
349738 On ch=3 n=c6 v=77
349738 On ch=3 n=g5 v=77
349738 On ch=3 n=c5 v=77
350632 On ch=3 n=c5 v=0
350632 On ch=3 n=g5 v=0
350632 On ch=3 n=c6 v=0
350632 On ch=3 n=c6 v=80
350632 On ch=3 n=g#5 v=80
350632 On ch=3 n=c5 v=80
351542 On ch=3 n=c5 v=0
351542 On ch=3 n=g#5 v=0
351542 On ch=3 n=c6 v=0
351542 On ch=3 n=c6 v=70
351542 On ch=3 n=f5 v=70
351542 On ch=3 n=c5 v=70
352472 On ch=3 n=c5 v=0
352472 On ch=3 n=f5 v=0
352472 On ch=3 n=c6 v=0
352472 On ch=3 n=a#5 v=70
352472 On ch=3 n=f5 v=70
352472 On ch=3 n=a#4 v=70
353366 On ch=3 n=a#4 v=0
353366 On ch=3 n=f5 v=0
353366 On ch=3 n=a#5 v=0
353366 On ch=3 n=a#5 v=70
353366 On ch=3 n=f#5 v=70
353366 On ch=3 n=a#4 v=70
354286 On ch=3 n=a#4 v=0
354286 On ch=3 n=f#5 v=0
354286 On ch=3 n=a#5 v=0
355194 On ch=3 n=a#5 v=70
355194 On ch=3 n=g5 v=70
355194 On ch=3 n=a#4 v=70
356144 On ch=3 n=a#4 v=0
356144 On ch=3 n=g5 v=0
356144 On ch=3 n=a#5 v=0
356144 On ch=3 n=a#5 v=70
356144 On ch=3 n=g5 v=70
356144 On ch=3 n=a#4 v=70
357124 On ch=3 n=a#4 v=0
357124 On ch=3 n=g5 v=0
357124 On ch=3 n=a#5 v=0
357124 On ch=3 n=a#5 v=70
357124 On ch=3 n=d#5 v=70
357124 On ch=3 n=a#4 v=70
358024 On ch=3 n=a#4 v=0
358024 On ch=3 n=d#5 v=0
358024 On ch=3 n=a#5 v=0
358024 On ch=3 n=g#5 v=70
358024 On ch=3 n=d#5 v=70
358024 On ch=3 n=g#4 v=70
358936 On ch=3 n=g#4 v=0
358936 On ch=3 n=d#5 v=0
358936 On ch=3 n=g#5 v=0
358936 On ch=3 n=g#5 v=70
358936 On ch=3 n=e5 v=70
358936 On ch=3 n=g#4 v=70
359884 On ch=3 n=g#4 v=0
359884 On ch=3 n=e5 v=0
359884 On ch=3 n=g#5 v=0
359884 On ch=3 n=g#5 v=70
359884 On ch=3 n=f5 v=70
359884 On ch=3 n=d5 v=70
359884 On ch=3 n=g#4 v=70
360826 On ch=3 n=g#4 v=0
360826 On ch=3 n=d5 v=0
360826 On ch=3 n=f5 v=0
360826 On ch=3 n=g#5 v=0
360826 On ch=3 n=g5 v=60
360826 On ch=3 n=f5 v=60
360826 On ch=3 n=d5 v=60
360826 On ch=3 n=g4 v=60
361746 On ch=3 n=g4 v=0
361746 On ch=3 n=d5 v=0
361746 On ch=3 n=f5 v=0
361746 On ch=3 n=g5 v=0
362672 On ch=3 n=g5 v=70
362672 On ch=3 n=d5 v=70
362672 On ch=3 n=b4 v=70
362672 On ch=3 n=g4 v=70
363576 On ch=3 n=g4 v=0
363576 On ch=3 n=b4 v=0
363576 On ch=3 n=d5 v=0
363576 On ch=3 n=g5 v=0
363576 On ch=3 n=g5 v=70
363576 On ch=3 n=c5 v=70
363576 On ch=3 n=g4 v=70
364526 On ch=3 n=g4 v=0
364526 On ch=3 n=c5 v=0
364526 On ch=3 n=g5 v=0
364526 On ch=3 n=a5 v=70
364526 On ch=3 n=f#5 v=70
364526 On ch=3 n=c5 v=70
364526 On ch=3 n=a4 v=70
365444 On ch=3 n=a4 v=0
365444 On ch=3 n=c5 v=0
365444 On ch=3 n=f#5 v=0
365444 On ch=3 n=a5 v=0
365444 On ch=3 n=a5 v=70
365444 On ch=3 n=f#5 v=70
365444 On ch=3 n=c5 v=70
365444 On ch=3 n=a4 v=70
366346 On ch=3 n=a4 v=0
366346 On ch=3 n=c5 v=0
366346 On ch=3 n=f#5 v=0
366346 On ch=3 n=f#5 v=70
366346 On ch=3 n=c5 v=70
366346 On ch=3 n=a4 v=70
367244 On ch=3 n=a4 v=0
367244 On ch=3 n=c5 v=0
367244 On ch=3 n=f#5 v=0
367244 On ch=3 n=a5 v=0
367244 On ch=3 n=b5 v=70
367244 On ch=3 n=f#5 v=70
367244 On ch=3 n=c5 v=70
368134 On ch=3 n=c5 v=0
368134 On ch=3 n=f#5 v=0
368134 On ch=3 n=b5 v=0
368134 On ch=3 n=c6 v=62
368134 On ch=3 n=f#5 v=62
368134 On ch=3 n=c5 v=62
369128 On ch=3 n=c5 v=0
369128 On ch=3 n=f#5 v=0
369128 On ch=3 n=c6 v=0
369128 On ch=3 n=d#6 v=49
369128 On ch=3 n=b5 v=49
369128 On ch=3 n=f5 v=49
370056 On ch=3 n=f5 v=0
370056 On ch=3 n=b5 v=0
370056 On ch=3 n=b5 v=54
370056 On ch=3 n=g5 v=54
370056 On ch=3 n=f5 v=54
370504 On ch=3 n=d#6 v=0
370504 On ch=3 n=d6 v=56
370952 On ch=3 n=d6 v=0
370952 On ch=3 n=f5 v=0
370952 On ch=3 n=g5 v=0
370952 On ch=3 n=b5 v=0
370952 On ch=3 n=c6 v=54
370952 On ch=3 n=g5 v=54
370952 On ch=3 n=d#5 v=54
371866 On ch=3 n=d#5 v=0
371866 On ch=3 n=g5 v=0
371866 On ch=3 n=c6 v=0
371866 On ch=3 n=g5 v=64
371866 On ch=3 n=d#5 v=64
371866 On ch=3 n=g4 v=64
372798 On ch=3 n=g4 v=0
372798 On ch=3 n=d#5 v=0
372798 On ch=3 n=g5 v=0
372798 On ch=3 n=g5 v=70
372798 On ch=3 n=c5 v=70
372798 On ch=3 n=g4 v=70
373756 On ch=3 n=g4 v=0
373756 On ch=3 n=c5 v=0
373756 On ch=3 n=g5 v=0
373756 On ch=3 n=g5 v=70
373756 On ch=3 n=c5 v=70
373756 On ch=3 n=g4 v=70
374692 On ch=3 n=g4 v=0
374692 On ch=3 n=c5 v=0
374692 On ch=3 n=g5 v=0
374692 On ch=3 n=g5 v=70
374692 On ch=3 n=f5 v=70
374692 On ch=3 n=b4 v=70
374692 On ch=3 n=g4 v=70
375556 On ch=3 n=g4 v=0
375556 On ch=3 n=b4 v=0
375556 On ch=3 n=f5 v=0
375556 On ch=3 n=g5 v=0
375556 On ch=3 n=g5 v=70
375556 On ch=3 n=f5 v=70
375556 On ch=3 n=b4 v=70
375556 On ch=3 n=g4 v=70
376478 On ch=3 n=g4 v=0
376478 On ch=3 n=b4 v=0
376478 On ch=3 n=f5 v=0
376478 On ch=3 n=g5 v=0
376478 On ch=3 n=g5 v=70
376478 On ch=3 n=d#5 v=70
376478 On ch=3 n=c5 v=70
376478 On ch=3 n=g4 v=70
377362 On ch=3 n=g4 v=0
377362 On ch=3 n=c5 v=0
377362 On ch=3 n=d#5 v=0
377362 On ch=3 n=g5 v=0
377362 On ch=3 n=g5 v=70
377362 On ch=3 n=d#5 v=70
377362 On ch=3 n=c5 v=70
377362 On ch=3 n=g4 v=70
378240 On ch=3 n=g4 v=0
378240 On ch=3 n=c5 v=0
378240 On ch=3 n=d#5 v=0
378240 On ch=3 n=g5 v=0
378240 On ch=3 n=g5 v=73
378240 On ch=3 n=d#5 v=73
378240 On ch=3 n=c5 v=73
378240 On ch=3 n=g4 v=73
379166 On ch=3 n=g4 v=0
379166 On ch=3 n=c5 v=0
379166 On ch=3 n=d#5 v=0
379166 On ch=3 n=g5 v=0
379166 On ch=3 n=g5 v=70
379166 On ch=3 n=d#5 v=70
379166 On ch=3 n=c5 v=70
379166 On ch=3 n=g4 v=70
380106 On ch=3 n=g4 v=0
380106 On ch=3 n=c5 v=0
380106 On ch=3 n=d#5 v=0
380106 On ch=3 n=g5 v=0
380106 On ch=3 n=g5 v=76
380106 On ch=3 n=d#5 v=76
380106 On ch=3 n=a#4 v=76
380106 On ch=3 n=g4 v=76
380994 On ch=3 n=g4 v=0
380994 On ch=3 n=a#4 v=0
380994 On ch=3 n=d#5 v=0
380994 On ch=3 n=g5 v=0
380994 On ch=3 n=g5 v=70
380994 On ch=3 n=d#5 v=70
380994 On ch=3 n=a#4 v=70
380994 On ch=3 n=g4 v=70
381924 On ch=3 n=g4 v=0
381924 On ch=3 n=a#4 v=0
381924 On ch=3 n=d#5 v=0
381924 On ch=3 n=g5 v=0
381924 On ch=3 n=a#5 v=78
381924 On ch=3 n=g5 v=78
381924 On ch=3 n=d#5 v=78
381924 On ch=3 n=a#4 v=78
382844 On ch=3 n=a#4 v=0
382844 On ch=3 n=d#5 v=0
382844 On ch=3 n=g5 v=0
382844 On ch=3 n=a#5 v=0
382844 On ch=3 n=a#5 v=70
382844 On ch=3 n=g5 v=70
382844 On ch=3 n=d#5 v=70
382844 On ch=3 n=a#4 v=70
383702 On ch=3 n=a#4 v=0
383702 On ch=3 n=d#5 v=0
383702 On ch=3 n=g5 v=0
383702 On ch=3 n=a#5 v=0
383702 On ch=3 n=a#5 v=78
383702 On ch=3 n=d#5 v=78
383702 On ch=3 n=a#4 v=78
384644 On ch=3 n=a#4 v=0
384644 On ch=3 n=d#5 v=0
384644 On ch=3 n=a#5 v=0
384644 On ch=3 n=a#5 v=73
384644 On ch=3 n=d#5 v=73
384644 On ch=3 n=a#4 v=73
385516 On ch=3 n=a#4 v=0
385516 On ch=3 n=d#5 v=0
385516 On ch=3 n=a#5 v=0
385516 On ch=3 n=a#5 v=71
385516 On ch=3 n=g#5 v=71
385516 On ch=3 n=d5 v=71
385516 On ch=3 n=a#4 v=71
386396 On ch=3 n=a#4 v=0
386396 On ch=3 n=d5 v=0
386396 On ch=3 n=g#5 v=0
386396 On ch=3 n=a#5 v=0
386396 On ch=3 n=a#5 v=74
386396 On ch=3 n=g#5 v=74
386396 On ch=3 n=d5 v=74
386396 On ch=3 n=a#4 v=74
387332 On ch=3 n=a#4 v=0
387332 On ch=3 n=d5 v=0
387332 On ch=3 n=g#5 v=0
387332 On ch=3 n=a#5 v=0
387332 On ch=3 n=a#5 v=77
387332 On ch=3 n=g5 v=77
387332 On ch=3 n=c#5 v=77
387332 On ch=3 n=a#4 v=77
388212 On ch=3 n=a#4 v=0
388212 On ch=3 n=c#5 v=0
388212 On ch=3 n=g5 v=0
388212 On ch=3 n=a#5 v=0
388212 On ch=3 n=a#5 v=74
388212 On ch=3 n=g5 v=74
388212 On ch=3 n=c#5 v=74
388212 On ch=3 n=a#4 v=74
389132 On ch=3 n=a#4 v=0
389132 On ch=3 n=c#5 v=0
389132 On ch=3 n=g5 v=0
389132 On ch=3 n=a#5 v=0
389132 On ch=3 n=a#5 v=77
389132 On ch=3 n=g5 v=77
389132 On ch=3 n=c#5 v=77
389132 On ch=3 n=a#4 v=77
390052 On ch=3 n=a#4 v=0
390052 On ch=3 n=c#5 v=0
390052 On ch=3 n=g5 v=0
390052 On ch=3 n=a#5 v=0
390052 On ch=3 n=a#5 v=70
390052 On ch=3 n=g5 v=70
390052 On ch=3 n=d#5 v=70
390052 On ch=3 n=c#5 v=70
390950 On ch=3 n=c#5 v=0
390950 On ch=3 n=d#5 v=0
390950 On ch=3 n=g5 v=0
390950 On ch=3 n=a#5 v=0
390950 On ch=3 n=b5 v=70
390950 On ch=3 n=g5 v=70
390950 On ch=3 n=d#5 v=70
390950 On ch=3 n=c#5 v=70
391852 On ch=3 n=c#5 v=0
391852 On ch=3 n=d#5 v=0
391852 On ch=3 n=g5 v=0
391852 On ch=3 n=b5 v=0
391852 On ch=3 n=b5 v=70
391852 On ch=3 n=g5 v=70
391852 On ch=3 n=d#5 v=70
391852 On ch=3 n=c#5 v=70
392744 On ch=3 n=c#5 v=0
392744 On ch=3 n=d#5 v=0
392744 On ch=3 n=g5 v=0
392744 On ch=3 n=b5 v=0
392744 On ch=3 n=c6 v=74
392744 On ch=3 n=f#5 v=74
392744 On ch=3 n=c5 v=74
393694 On ch=3 n=c5 v=0
393694 On ch=3 n=f#5 v=0
393694 On ch=3 n=f#5 v=70
393694 On ch=3 n=c5 v=70
394634 On ch=3 n=c5 v=0
394634 On ch=3 n=f#5 v=0
394634 On ch=3 n=c6 v=0
394634 On ch=3 n=a#5 v=70
394634 On ch=3 n=f#5 v=70
394634 On ch=3 n=c5 v=70
395520 On ch=3 n=c5 v=0
395520 On ch=3 n=f#5 v=0
395520 On ch=3 n=a#5 v=0
395520 On ch=3 n=g#5 v=72
395520 On ch=3 n=f#5 v=72
395520 On ch=3 n=c5 v=72
396412 On ch=3 n=c5 v=0
396412 On ch=3 n=f#5 v=0
396412 On ch=3 n=g#5 v=0
396412 On ch=3 n=c#6 v=72
396412 On ch=3 n=f5 v=72
396412 On ch=3 n=c#5 v=72
397316 On ch=3 n=c#5 v=0
397316 On ch=3 n=f5 v=0
397316 On ch=3 n=c#6 v=0
397316 On ch=3 n=c6 v=72
397316 On ch=3 n=f5 v=72
397316 On ch=3 n=c#5 v=72
398230 On ch=3 n=c#5 v=0
398230 On ch=3 n=f5 v=0
398230 On ch=3 n=c6 v=0
398230 On ch=3 n=b5 v=65
398230 On ch=3 n=f5 v=65
398230 On ch=3 n=d5 v=65
399168 On ch=3 n=d5 v=0
399168 On ch=3 n=f5 v=0
399168 On ch=3 n=f5 v=57
399168 On ch=3 n=d5 v=57
400100 On ch=3 n=d5 v=0
400100 On ch=3 n=f5 v=0
400100 On ch=3 n=b5 v=0
400100 On ch=3 n=g#5 v=61
400100 On ch=3 n=f5 v=61
400100 On ch=3 n=b4 v=61
400992 On ch=3 n=b4 v=0
400992 On ch=3 n=f5 v=0
400992 On ch=3 n=g#5 v=0
400992 On ch=3 n=g5 v=59
400992 On ch=3 n=f5 v=59
400992 On ch=3 n=b4 v=59
401856 On ch=3 n=b4 v=0
401856 On ch=3 n=f5 v=0
401856 On ch=3 n=g5 v=0
401856 On ch=3 n=c6 v=61
401856 On ch=3 n=d#5 v=61
401856 On ch=3 n=c5 v=61
402736 On ch=3 n=c5 v=0
402736 On ch=3 n=d#5 v=0
402736 On ch=3 n=c6 v=0
402736 On ch=3 n=a#5 v=57
402736 On ch=3 n=d#5 v=57
402736 On ch=3 n=c5 v=57
403594 On ch=3 n=c5 v=0
403594 On ch=3 n=d#5 v=0
403594 On ch=3 n=a#5 v=0
403594 On ch=3 n=g#5 v=58
403594 On ch=3 n=d#5 v=58
403594 On ch=3 n=c5 v=58
404504 On ch=3 n=c5 v=0
404504 On ch=3 n=d#5 v=0
404504 On ch=3 n=d#5 v=55
404504 On ch=3 n=c5 v=55
405430 On ch=3 n=c5 v=0
405430 On ch=3 n=d#5 v=0
405430 On ch=3 n=g#5 v=0
405430 On ch=3 n=g#5 v=55
405430 On ch=3 n=d5 v=55
405430 On ch=3 n=b4 v=55
406360 On ch=3 n=b4 v=0
406360 On ch=3 n=d5 v=0
406360 On ch=3 n=g#5 v=0
406360 On ch=3 n=g#5 v=51
406360 On ch=3 n=d#5 v=51
406360 On ch=3 n=c5 v=51
407302 On ch=3 n=c5 v=0
407302 On ch=3 n=d#5 v=0
407302 On ch=3 n=g#5 v=0
407302 On ch=3 n=g#5 v=53
407302 On ch=3 n=d5 v=53
407302 On ch=3 n=b4 v=53
408202 On ch=3 n=b4 v=0
408202 On ch=3 n=d5 v=0
408202 On ch=3 n=g#5 v=0
408202 On ch=3 n=g#5 v=50
408202 On ch=3 n=d#5 v=50
408202 On ch=3 n=g#4 v=50
409092 On ch=3 n=g#4 v=0
409092 On ch=3 n=d#5 v=0
409092 On ch=3 n=g#5 v=0
409092 On ch=3 n=g#5 v=55
409092 On ch=3 n=f5 v=55
409092 On ch=3 n=c5 v=55
410054 On ch=3 n=c5 v=0
410054 On ch=3 n=f5 v=0
410054 On ch=3 n=g#5 v=0
410054 On ch=3 n=g5 v=48
410054 On ch=3 n=f5 v=48
410054 On ch=3 n=b4 v=48
410966 On ch=3 n=b4 v=0
410966 On ch=3 n=f5 v=0
410966 On ch=3 n=g5 v=0
411884 On ch=3 n=g5 v=53
411884 On ch=3 n=f5 v=53
411884 On ch=3 n=b4 v=53
411884 On ch=3 n=g4 v=53
412816 On ch=3 n=g4 v=0
412816 On ch=3 n=b4 v=0
412816 On ch=3 n=f5 v=0
412816 On ch=3 n=g5 v=0
412816 On ch=3 n=g5 v=53
412816 On ch=3 n=d#5 v=53
412816 On ch=3 n=c5 v=53
412816 On ch=3 n=g4 v=53
413690 On ch=3 n=g4 v=0
413690 On ch=3 n=c5 v=0
413690 On ch=3 n=d#5 v=0
413690 On ch=3 n=g5 v=0
419092 On ch=3 n=c6 v=91
420648 On ch=3 n=c6 v=0
420648 On ch=3 n=b5 v=87
421138 On ch=3 n=b5 v=0
421138 On ch=3 n=f5 v=78
421574 On ch=3 n=f5 v=0
421574 On ch=3 n=d#6 v=84
421574 On ch=3 n=c6 v=84
422052 On ch=3 n=c6 v=0
422052 On ch=3 n=d#6 v=0
422052 On ch=3 n=d#6 v=73
422052 On ch=3 n=c6 v=73
422518 On ch=3 n=c6 v=0
422518 On ch=3 n=d#6 v=0
422518 On ch=3 n=d6 v=71
422518 On ch=3 n=b5 v=71
422996 On ch=3 n=b5 v=0
422996 On ch=3 n=d6 v=0
422996 On ch=3 n=f5 v=72
423442 On ch=3 n=f5 v=0
423442 On ch=3 n=c6 v=74
423902 On ch=3 n=c6 v=0
423902 On ch=3 n=c6 v=71
424384 On ch=3 n=c6 v=0
424384 On ch=3 n=b5 v=66
424842 On ch=3 n=b5 v=0
424842 On ch=3 n=f5 v=71
425780 On ch=3 n=f5 v=0
430304 On ch=3 n=c6 v=70
431886 On ch=3 n=c6 v=0
431886 On ch=3 n=b5 v=72
432352 On ch=3 n=b5 v=0
432352 On ch=3 n=f5 v=74
432820 On ch=3 n=f5 v=0
432820 On ch=3 n=d#6 v=71
432820 On ch=3 n=c6 v=71
433298 On ch=3 n=c6 v=0
433298 On ch=3 n=d#6 v=0
433298 On ch=3 n=d#6 v=73
433298 On ch=3 n=c6 v=73
433742 On ch=3 n=c6 v=0
433742 On ch=3 n=d#6 v=0
433742 On ch=3 n=d6 v=76
433742 On ch=3 n=b5 v=76
434210 On ch=3 n=b5 v=0
434210 On ch=3 n=d6 v=0
434210 On ch=3 n=f5 v=74
434682 On ch=3 n=f5 v=0
434682 On ch=3 n=c6 v=72
435144 On ch=3 n=c6 v=0
435144 On ch=3 n=c6 v=74
435606 On ch=3 n=c6 v=0
435606 On ch=3 n=b5 v=74
436076 On ch=3 n=b5 v=0
436076 On ch=3 n=f5 v=74
436534 On ch=3 n=f5 v=0
436534 On ch=3 n=d6 v=78
436998 On ch=3 n=d6 v=0
436998 On ch=3 n=d6 v=76
437454 On ch=3 n=d6 v=0
437454 On ch=3 n=c#6 v=69
437916 On ch=3 n=c#6 v=0
437916 On ch=3 n=g5 v=69
438366 On ch=3 n=g5 v=0
438366 On ch=3 n=f6 v=68
438366 On ch=3 n=d6 v=68
438826 On ch=3 n=d6 v=0
438826 On ch=3 n=f6 v=0
438826 On ch=3 n=f6 v=66
438826 On ch=3 n=d6 v=66
439282 On ch=3 n=d6 v=0
439282 On ch=3 n=f6 v=0
439282 On ch=3 n=e6 v=70
439282 On ch=3 n=c#6 v=70
439758 On ch=3 n=c#6 v=0
439758 On ch=3 n=e6 v=0
439758 On ch=3 n=g5 v=67
440222 On ch=3 n=g5 v=0
440222 On ch=3 n=d6 v=65
440664 On ch=3 n=d6 v=0
440664 On ch=3 n=d6 v=66
441134 On ch=3 n=d6 v=0
441134 On ch=3 n=c#6 v=71
441568 On ch=3 n=c#6 v=0
441568 On ch=3 n=g5 v=76
442020 On ch=3 n=g5 v=0
442020 On ch=3 n=e6 v=76
442474 On ch=3 n=e6 v=0
442474 On ch=3 n=e6 v=75
442926 On ch=3 n=e6 v=0
442926 On ch=3 n=d#6 v=84
443372 On ch=3 n=d#6 v=0
443372 On ch=3 n=a5 v=89
443814 On ch=3 n=a5 v=0
443814 On ch=3 n=g6 v=89
443814 On ch=3 n=e6 v=89
444242 On ch=3 n=e6 v=0
444242 On ch=3 n=g6 v=0
444242 On ch=3 n=g6 v=89
444242 On ch=3 n=e6 v=89
444702 On ch=3 n=e6 v=0
444702 On ch=3 n=g6 v=0
444702 On ch=3 n=f#6 v=89
444702 On ch=3 n=d#6 v=89
445178 On ch=3 n=d#6 v=0
445178 On ch=3 n=f#6 v=0
445178 On ch=3 n=a5 v=89
445620 On ch=3 n=a5 v=0
445620 On ch=3 n=b6 v=89
445620 On ch=3 n=g6 v=89
446068 On ch=3 n=g6 v=0
446068 On ch=3 n=b6 v=0
446068 On ch=3 n=b6 v=89
446068 On ch=3 n=g6 v=89
446496 On ch=3 n=g6 v=0
446496 On ch=3 n=b6 v=0
446496 On ch=3 n=a6 v=89
446496 On ch=3 n=f#6 v=89
446952 On ch=3 n=f#6 v=0
446952 On ch=3 n=a6 v=0
446952 On ch=3 n=c6 v=89
447416 On ch=3 n=c6 v=0
447416 On ch=3 n=d7 v=89
447416 On ch=3 n=b6 v=89
447858 On ch=3 n=b6 v=0
447858 On ch=3 n=d7 v=0
447858 On ch=3 n=d7 v=92
447858 On ch=3 n=b6 v=92
448306 On ch=3 n=b6 v=0
448306 On ch=3 n=d7 v=0
448306 On ch=3 n=c7 v=92
448306 On ch=3 n=a6 v=92
448762 On ch=3 n=a6 v=0
448762 On ch=3 n=c7 v=0
448762 On ch=3 n=c6 v=90
449202 On ch=3 n=c6 v=0
449202 On ch=3 n=b6 v=92
449202 On ch=3 n=g6 v=92
449650 On ch=3 n=g6 v=0
449650 On ch=3 n=b6 v=0
449650 On ch=3 n=b6 v=90
449650 On ch=3 n=g6 v=90
450088 On ch=3 n=g6 v=0
450088 On ch=3 n=b6 v=0
450088 On ch=3 n=a6 v=89
450088 On ch=3 n=f#6 v=89
450526 On ch=3 n=f#6 v=0
450526 On ch=3 n=a6 v=0
450526 On ch=3 n=c6 v=89
450984 On ch=3 n=c6 v=0
450984 On ch=3 n=d7 v=93
450984 On ch=3 n=b6 v=93
451410 On ch=3 n=b6 v=0
451410 On ch=3 n=d7 v=0
451410 On ch=3 n=d7 v=92
451410 On ch=3 n=b6 v=92
451850 On ch=3 n=b6 v=0
451850 On ch=3 n=d7 v=0
451850 On ch=3 n=c7 v=92
451850 On ch=3 n=a6 v=92
452300 On ch=3 n=a6 v=0
452300 On ch=3 n=c7 v=0
452300 On ch=3 n=c6 v=89
452740 On ch=3 n=c6 v=0
452740 On ch=3 n=c7 v=89
452740 On ch=3 n=a6 v=89
453192 On ch=3 n=a6 v=0
453192 On ch=3 n=c7 v=0
453192 On ch=3 n=c7 v=89
453192 On ch=3 n=a6 v=89
453656 On ch=3 n=a6 v=0
453656 On ch=3 n=c7 v=0
453656 On ch=3 n=b6 v=89
453656 On ch=3 n=g6 v=89
454100 On ch=3 n=g6 v=0
454100 On ch=3 n=b6 v=0
454100 On ch=3 n=b5 v=89
454532 On ch=3 n=b5 v=0
454532 On ch=3 n=c7 v=89
454532 On ch=3 n=a6 v=89
454978 On ch=3 n=a6 v=0
454978 On ch=3 n=c7 v=0
454978 On ch=3 n=c7 v=89
454978 On ch=3 n=a6 v=89
455418 On ch=3 n=a6 v=0
455418 On ch=3 n=c7 v=0
455418 On ch=3 n=b6 v=89
455418 On ch=3 n=g6 v=89
455860 On ch=3 n=g6 v=0
455860 On ch=3 n=b6 v=0
455860 On ch=3 n=b5 v=89
456302 On ch=3 n=b5 v=0
456302 On ch=3 n=b6 v=89
456302 On ch=3 n=g6 v=89
456732 On ch=3 n=g6 v=0
456732 On ch=3 n=b6 v=0
456732 On ch=3 n=b6 v=89
456732 On ch=3 n=g6 v=89
457184 On ch=3 n=g6 v=0
457184 On ch=3 n=b6 v=0
457184 On ch=3 n=a6 v=82
457184 On ch=3 n=f#6 v=82
457632 On ch=3 n=f#6 v=0
457632 On ch=3 n=a6 v=0
457632 On ch=3 n=a5 v=78
458082 On ch=3 n=a5 v=0
458082 On ch=3 n=a6 v=78
458082 On ch=3 n=f#6 v=78
458562 On ch=3 n=f#6 v=0
458562 On ch=3 n=a6 v=0
458562 On ch=3 n=a6 v=71
458562 On ch=3 n=f#6 v=71
459020 On ch=3 n=f#6 v=0
459020 On ch=3 n=a6 v=0
459020 On ch=3 n=g6 v=76
459020 On ch=3 n=e6 v=76
459488 On ch=3 n=e6 v=0
459488 On ch=3 n=g6 v=0
459488 On ch=3 n=g5 v=71
459946 On ch=3 n=g5 v=0
459946 On ch=3 n=g6 v=73
459946 On ch=3 n=e6 v=73
460398 On ch=3 n=e6 v=0
460398 On ch=3 n=g6 v=0
460398 On ch=3 n=g6 v=71
460398 On ch=3 n=e6 v=71
460838 On ch=3 n=e6 v=0
460838 On ch=3 n=g6 v=0
460838 On ch=3 n=f#6 v=74
460838 On ch=3 n=d6 v=74
461292 On ch=3 n=d6 v=0
461292 On ch=3 n=f#6 v=0
461292 On ch=3 n=g5 v=71
461752 On ch=3 n=g5 v=0
461752 On ch=3 n=f#6 v=73
461752 On ch=3 n=d6 v=73
462206 On ch=3 n=d6 v=0
462206 On ch=3 n=f#6 v=0
462206 On ch=3 n=f#6 v=71
462206 On ch=3 n=c6 v=71
462664 On ch=3 n=c6 v=0
462664 On ch=3 n=f#6 v=0
462664 On ch=3 n=e6 v=69
463104 On ch=3 n=e6 v=0
463104 On ch=3 n=a5 v=71
463570 On ch=3 n=a5 v=0
463570 On ch=3 n=e6 v=71
464018 On ch=3 n=e6 v=0
464018 On ch=3 n=e6 v=71
464018 On ch=3 n=b5 v=71
464468 On ch=3 n=b5 v=0
464468 On ch=3 n=e6 v=0
464468 On ch=3 n=d6 v=71
464904 On ch=3 n=d6 v=0
464904 On ch=3 n=g5 v=78
465336 On ch=3 n=g5 v=0
465336 On ch=3 n=e6 v=78
465800 On ch=3 n=e6 v=0
465800 On ch=3 n=e6 v=68
465800 On ch=3 n=b5 v=68
466238 On ch=3 n=b5 v=0
466238 On ch=3 n=e6 v=0
466238 On ch=3 n=d6 v=74
466690 On ch=3 n=d6 v=0
466690 On ch=3 n=g5 v=69
467140 On ch=3 n=g5 v=0
467140 On ch=3 n=e6 v=71
467594 On ch=3 n=e6 v=0
467594 On ch=3 n=e6 v=71
467594 On ch=3 n=b5 v=71
468046 On ch=3 n=b5 v=0
468046 On ch=3 n=e6 v=0
468046 On ch=3 n=d6 v=71
468502 On ch=3 n=d6 v=0
468502 On ch=3 n=g5 v=69
468954 On ch=3 n=g5 v=0
468954 On ch=3 n=e6 v=67
469414 On ch=3 n=e6 v=0
469414 On ch=3 n=e6 v=67
469414 On ch=3 n=c6 v=67
469862 On ch=3 n=c6 v=0
469862 On ch=3 n=e6 v=0
469862 On ch=3 n=d6 v=69
470330 On ch=3 n=d6 v=0
470330 On ch=3 n=f#5 v=63
470782 On ch=3 n=f#5 v=0
470782 On ch=3 n=e6 v=69
471242 On ch=3 n=e6 v=0
471242 On ch=3 n=e6 v=69
471242 On ch=3 n=c6 v=69
471698 On ch=3 n=c6 v=0
471698 On ch=3 n=e6 v=0
471698 On ch=3 n=d6 v=67
472156 On ch=3 n=d6 v=0
472156 On ch=3 n=f#5 v=65
472590 On ch=3 n=f#5 v=0
472590 On ch=3 n=e6 v=68
473032 On ch=3 n=e6 v=0
473032 On ch=3 n=e6 v=65
473032 On ch=3 n=b5 v=65
473484 On ch=3 n=b5 v=0
473484 On ch=3 n=e6 v=0
473484 On ch=3 n=d6 v=64
473944 On ch=3 n=d6 v=0
473944 On ch=3 n=f#5 v=62
474414 On ch=3 n=f#5 v=0
474414 On ch=3 n=e6 v=60
474854 On ch=3 n=e6 v=0
474854 On ch=3 n=e6 v=64
474854 On ch=3 n=b5 v=64
475314 On ch=3 n=b5 v=0
475314 On ch=3 n=e6 v=0
475314 On ch=3 n=d6 v=60
475782 On ch=3 n=d6 v=0
475782 On ch=3 n=g5 v=60
476260 On ch=3 n=g5 v=0
476260 On ch=3 n=c6 v=59
476696 On ch=3 n=c6 v=0
476696 On ch=3 n=c6 v=62
476696 On ch=3 n=g5 v=62
477166 On ch=3 n=g5 v=0
477166 On ch=3 n=c6 v=0
477166 On ch=3 n=b5 v=59
477628 On ch=3 n=b5 v=0
477628 On ch=3 n=d5 v=59
478066 On ch=3 n=d5 v=0
478066 On ch=3 n=a5 v=62
478540 On ch=3 n=a5 v=0
478540 On ch=3 n=a5 v=58
478540 On ch=3 n=d5 v=58
478992 On ch=3 n=d5 v=0
478992 On ch=3 n=a5 v=0
478992 On ch=3 n=g5 v=60
479446 On ch=3 n=g5 v=0
479900 On ch=3 n=g5 v=60
480364 On ch=3 n=g5 v=0
480364 On ch=3 n=g5 v=58
480364 On ch=3 n=c5 v=58
480806 On ch=3 n=c5 v=0
480806 On ch=3 n=g5 v=0
480806 On ch=3 n=f#5 v=64
481262 On ch=3 n=f#5 v=0
481262 On ch=3 n=g4 v=60
481720 On ch=3 n=g4 v=0
481720 On ch=3 n=f#5 v=63
482174 On ch=3 n=f#5 v=0
482174 On ch=3 n=f#5 v=62
482174 On ch=3 n=c5 v=62
482650 On ch=3 n=c5 v=0
482650 On ch=3 n=f#5 v=0
482650 On ch=3 n=e5 v=63
483100 On ch=3 n=e5 v=0
483100 On ch=3 n=g4 v=60
483566 On ch=3 n=g4 v=0
483566 On ch=3 n=e5 v=58
484038 On ch=3 n=e5 v=0
484038 On ch=3 n=e5 v=56
484038 On ch=3 n=c5 v=56
484500 On ch=3 n=c5 v=0
484500 On ch=3 n=e5 v=0
484500 On ch=3 n=d5 v=57
484970 On ch=3 n=d5 v=0
484970 On ch=3 n=a4 v=52
485418 On ch=3 n=a4 v=0
485418 On ch=3 n=e5 v=56
485888 On ch=3 n=e5 v=0
485888 On ch=3 n=e5 v=49
485888 On ch=3 n=b4 v=49
486358 On ch=3 n=b4 v=0
486358 On ch=3 n=e5 v=0
486358 On ch=3 n=d5 v=58
486824 On ch=3 n=d5 v=0
486824 On ch=3 n=g4 v=52
487284 On ch=3 n=g4 v=0
487284 On ch=3 n=e5 v=55
487734 On ch=3 n=e5 v=0
487734 On ch=3 n=e5 v=50
487734 On ch=3 n=b4 v=50
488206 On ch=3 n=b4 v=0
488206 On ch=3 n=e5 v=0
488206 On ch=3 n=d5 v=51
488662 On ch=3 n=d5 v=0
488662 On ch=3 n=g4 v=52
489126 On ch=3 n=g4 v=0
489126 On ch=3 n=e5 v=48
489586 On ch=3 n=e5 v=0
489586 On ch=3 n=e5 v=45
489586 On ch=3 n=b4 v=45
490060 On ch=3 n=b4 v=0
490060 On ch=3 n=e5 v=0
490060 On ch=3 n=d5 v=45
490522 On ch=3 n=d5 v=0
490522 On ch=3 n=g4 v=50
490994 On ch=3 n=g4 v=0
490994 On ch=3 n=e5 v=48
491458 On ch=3 n=e5 v=0
491458 On ch=3 n=e5 v=48
491458 On ch=3 n=c5 v=48
491920 On ch=3 n=c5 v=0
491920 On ch=3 n=e5 v=0
491920 On ch=3 n=d5 v=43
492366 On ch=3 n=d5 v=0
492366 On ch=3 n=f#4 v=42
492842 On ch=3 n=f#4 v=0
492842 On ch=3 n=e5 v=42
493304 On ch=3 n=e5 v=0
493304 On ch=3 n=e5 v=41
493304 On ch=3 n=c5 v=41
493758 On ch=3 n=c5 v=0
493758 On ch=3 n=e5 v=0
493758 On ch=3 n=d5 v=47
494236 On ch=3 n=d5 v=0
494236 On ch=3 n=f#4 v=50
494706 On ch=3 n=f#4 v=0
494706 On ch=3 n=e5 v=49
495182 On ch=3 n=e5 v=0
495182 On ch=3 n=e5 v=45
495182 On ch=3 n=b4 v=45
495656 On ch=3 n=b4 v=0
495656 On ch=3 n=e5 v=0
495656 On ch=3 n=d5 v=47
496106 On ch=3 n=d5 v=0
496106 On ch=3 n=f#4 v=52
496568 On ch=3 n=f#4 v=0
496568 On ch=3 n=e5 v=51
497024 On ch=3 n=e5 v=0
497024 On ch=3 n=e5 v=53
497484 On ch=3 n=e5 v=0
497484 On ch=3 n=d5 v=53
497954 On ch=3 n=d5 v=0
497954 On ch=3 n=e5 v=51
498410 On ch=3 n=e5 v=0
498410 On ch=3 n=d5 v=51
498876 On ch=3 n=d5 v=0
498876 On ch=3 n=e5 v=44
499342 On ch=3 n=e5 v=0
499342 On ch=3 n=d5 v=49
499822 On ch=3 n=d5 v=0
499822 On ch=3 n=e5 v=49
500298 On ch=3 n=e5 v=0
500298 On ch=3 n=d5 v=52
500778 On ch=3 n=d5 v=0
500778 On ch=3 n=e5 v=43
501264 On ch=3 n=e5 v=0
501264 On ch=3 n=d5 v=50
501752 On ch=3 n=d5 v=0
501752 On ch=3 n=e5 v=49
502224 On ch=3 n=e5 v=0
502224 On ch=3 n=d5 v=49
502706 On ch=3 n=d5 v=0
502706 On ch=3 n=e5 v=43
503176 On ch=3 n=e5 v=0
503176 On ch=3 n=d5 v=49
503632 On ch=3 n=d5 v=0
503632 On ch=3 n=e5 v=37
504096 On ch=3 n=e5 v=0
504096 On ch=3 n=d5 v=41
504572 On ch=3 n=d5 v=0
504572 On ch=3 n=e5 v=49
505054 On ch=3 n=e5 v=0
505054 On ch=3 n=d5 v=46
505534 On ch=3 n=d5 v=0
505534 On ch=3 n=e5 v=47
506042 On ch=3 n=e5 v=0
506042 On ch=3 n=d5 v=47
506532 On ch=3 n=d5 v=0
506532 On ch=3 n=e5 v=44
507030 On ch=3 n=e5 v=0
507030 On ch=3 n=d5 v=49
507536 On ch=3 n=d5 v=0
507536 On ch=3 n=e5 v=44
508044 On ch=3 n=e5 v=0
508044 On ch=3 n=d5 v=45
508554 On ch=3 n=d5 v=0
508554 On ch=3 n=e5 v=41
509066 On ch=3 n=e5 v=0
509066 On ch=3 n=d5 v=47
509604 On ch=3 n=d5 v=0
509604 On ch=3 n=e5 v=44
510104 On ch=3 n=e5 v=0
510104 On ch=3 n=d5 v=47
510606 On ch=3 n=d5 v=0
510606 On ch=3 n=e5 v=45
511142 On ch=3 n=e5 v=0
511142 On ch=3 n=d5 v=43
511642 On ch=3 n=d5 v=0
511642 On ch=3 n=e5 v=44
512164 On ch=3 n=e5 v=0
512164 On ch=3 n=d5 v=43
512672 On ch=3 n=d5 v=0
512672 On ch=3 n=e5 v=45
513206 On ch=3 n=e5 v=0
513206 On ch=3 n=d5 v=44
513714 On ch=3 n=d5 v=0
513714 On ch=3 n=a4 v=39
514256 On ch=3 n=a4 v=0
514256 On ch=3 n=d4 v=43
514808 On ch=3 n=d4 v=0
532280 On ch=3 n=g5 v=63
532280 On ch=3 n=d#5 v=63
532280 On ch=3 n=c5 v=63
532280 On ch=3 n=g4 v=63
533140 On ch=3 n=g4 v=0
533140 On ch=3 n=c5 v=0
533140 On ch=3 n=d#5 v=0
533140 On ch=3 n=g5 v=0
533140 On ch=3 n=g5 v=63
533140 On ch=3 n=c5 v=63
533140 On ch=3 n=g4 v=63
534018 On ch=3 n=g4 v=0
534018 On ch=3 n=c5 v=0
534018 On ch=3 n=g5 v=0
534018 On ch=3 n=g5 v=63
534018 On ch=3 n=c5 v=63
534018 On ch=3 n=g4 v=63
534880 On ch=3 n=g4 v=0
534880 On ch=3 n=c5 v=0
534880 On ch=3 n=g5 v=0
534880 On ch=3 n=g5 v=65
534880 On ch=3 n=f5 v=65
534880 On ch=3 n=b4 v=65
534880 On ch=3 n=g4 v=65
535758 On ch=3 n=g4 v=0
535758 On ch=3 n=b4 v=0
535758 On ch=3 n=f5 v=0
535758 On ch=3 n=g5 v=0
535758 On ch=3 n=g5 v=66
535758 On ch=3 n=f5 v=66
535758 On ch=3 n=b4 v=66
535758 On ch=3 n=g4 v=66
536676 On ch=3 n=g4 v=0
536676 On ch=3 n=b4 v=0
536676 On ch=3 n=f5 v=0
536676 On ch=3 n=g5 v=0
536676 On ch=3 n=g5 v=68
536676 On ch=3 n=d#5 v=68
536676 On ch=3 n=c5 v=68
536676 On ch=3 n=g4 v=68
537548 On ch=3 n=g4 v=0
537548 On ch=3 n=c5 v=0
537548 On ch=3 n=d#5 v=0
537548 On ch=3 n=g5 v=0
537548 On ch=3 n=g5 v=70
537548 On ch=3 n=d#5 v=70
537548 On ch=3 n=c5 v=70
537548 On ch=3 n=g4 v=70
538424 On ch=3 n=g4 v=0
538424 On ch=3 n=c5 v=0
538424 On ch=3 n=d#5 v=0
538424 On ch=3 n=g5 v=0
538424 On ch=3 n=g5 v=71
538424 On ch=3 n=d#5 v=71
538424 On ch=3 n=c5 v=71
538424 On ch=3 n=g4 v=71
539340 On ch=3 n=g4 v=0
539340 On ch=3 n=c5 v=0
539340 On ch=3 n=d#5 v=0
539340 On ch=3 n=g5 v=0
539340 On ch=3 n=g5 v=71
539340 On ch=3 n=d#5 v=71
539340 On ch=3 n=c5 v=71
539340 On ch=3 n=g4 v=71
540204 On ch=3 n=g4 v=0
540204 On ch=3 n=c5 v=0
540204 On ch=3 n=d#5 v=0
540204 On ch=3 n=g5 v=0
540204 On ch=3 n=g5 v=71
540204 On ch=3 n=d#5 v=71
540204 On ch=3 n=c5 v=71
540204 On ch=3 n=g4 v=71
541066 On ch=3 n=g4 v=0
541066 On ch=3 n=c5 v=0
541066 On ch=3 n=d#5 v=0
541066 On ch=3 n=g5 v=0
541066 On ch=3 n=g5 v=72
541066 On ch=3 n=d#5 v=72
541066 On ch=3 n=c5 v=72
541066 On ch=3 n=g4 v=72
541954 On ch=3 n=g4 v=0
541954 On ch=3 n=c5 v=0
541954 On ch=3 n=d#5 v=0
541954 On ch=3 n=g5 v=0
541954 On ch=3 n=g5 v=73
541954 On ch=3 n=c5 v=73
541954 On ch=3 n=g4 v=73
542864 On ch=3 n=g4 v=0
542864 On ch=3 n=c5 v=0
542864 On ch=3 n=g5 v=0
542864 On ch=3 n=g5 v=73
542864 On ch=3 n=c5 v=73
542864 On ch=3 n=g4 v=73
543772 On ch=3 n=g4 v=0
543772 On ch=3 n=c5 v=0
543772 On ch=3 n=g5 v=0
543772 On ch=3 n=g5 v=77
543772 On ch=3 n=d#5 v=77
543772 On ch=3 n=c5 v=77
543772 On ch=3 n=g4 v=77
544724 On ch=3 n=g4 v=0
544724 On ch=3 n=c5 v=0
544724 On ch=3 n=d#5 v=0
544724 On ch=3 n=g5 v=0
544724 On ch=3 n=g5 v=75
544724 On ch=3 n=d#5 v=75
544724 On ch=3 n=c5 v=75
544724 On ch=3 n=g4 v=75
545642 On ch=3 n=g4 v=0
545642 On ch=3 n=c5 v=0
545642 On ch=3 n=d#5 v=0
545642 On ch=3 n=g5 v=0
545642 On ch=3 n=b5 v=75
545642 On ch=3 n=g5 v=75
545642 On ch=3 n=d5 v=75
545642 On ch=3 n=b4 v=75
546542 On ch=3 n=b4 v=0
546542 On ch=3 n=d5 v=0
546542 On ch=3 n=g5 v=0
546542 On ch=3 n=b5 v=0
546542 On ch=3 n=b5 v=75
546542 On ch=3 n=g5 v=75
546542 On ch=3 n=d5 v=75
546542 On ch=3 n=b4 v=75
547474 On ch=3 n=b4 v=0
547474 On ch=3 n=d5 v=0
547474 On ch=3 n=g5 v=0
547474 On ch=3 n=b5 v=0
547474 On ch=3 n=c6 v=76
547474 On ch=3 n=g5 v=76
547474 On ch=3 n=c5 v=76
548322 On ch=3 n=c5 v=0
548322 On ch=3 n=g5 v=0
548322 On ch=3 n=c6 v=0
548322 On ch=3 n=c6 v=78
548322 On ch=3 n=g5 v=78
548322 On ch=3 n=c5 v=78
549224 On ch=3 n=c5 v=0
549224 On ch=3 n=g5 v=0
549224 On ch=3 n=c6 v=0
549224 On ch=3 n=c6 v=76
549224 On ch=3 n=g5 v=76
549224 On ch=3 n=d#5 v=76
549224 On ch=3 n=c5 v=76
550194 On ch=3 n=c5 v=0
550194 On ch=3 n=d#5 v=0
550194 On ch=3 n=g5 v=0
550194 On ch=3 n=c6 v=0
550194 On ch=3 n=c6 v=76
550194 On ch=3 n=g5 v=76
550194 On ch=3 n=d#5 v=76
550194 On ch=3 n=c5 v=76
551100 On ch=3 n=c5 v=0
551100 On ch=3 n=d#5 v=0
551100 On ch=3 n=g5 v=0
551100 On ch=3 n=c6 v=0
551100 On ch=3 n=c6 v=76
551100 On ch=3 n=g5 v=76
551100 On ch=3 n=d#5 v=76
551100 On ch=3 n=c5 v=76
551992 On ch=3 n=c5 v=0
551992 On ch=3 n=d#5 v=0
551992 On ch=3 n=g5 v=0
551992 On ch=3 n=c6 v=0
551992 On ch=3 n=c6 v=76
551992 On ch=3 n=g5 v=76
551992 On ch=3 n=d#5 v=76
551992 On ch=3 n=c5 v=76
552910 On ch=3 n=c5 v=0
552910 On ch=3 n=d#5 v=0
552910 On ch=3 n=g5 v=0
552910 On ch=3 n=c6 v=0
553788 On ch=3 n=c6 v=76
553788 On ch=3 n=g5 v=76
553788 On ch=3 n=c5 v=76
554712 On ch=3 n=c5 v=0
554712 On ch=3 n=g5 v=0
554712 On ch=3 n=c6 v=0
554712 On ch=3 n=c6 v=76
554712 On ch=3 n=g#5 v=76
554712 On ch=3 n=c5 v=76
555610 On ch=3 n=c5 v=0
555610 On ch=3 n=g#5 v=0
555610 On ch=3 n=c6 v=0
555610 On ch=3 n=c6 v=76
555610 On ch=3 n=f5 v=76
555610 On ch=3 n=c5 v=76
556530 On ch=3 n=c5 v=0
556530 On ch=3 n=f5 v=0
556530 On ch=3 n=c6 v=0
556530 On ch=3 n=a#5 v=76
556530 On ch=3 n=f5 v=76
556530 On ch=3 n=a#4 v=76
557418 On ch=3 n=a#4 v=0
557418 On ch=3 n=f5 v=0
557418 On ch=3 n=a#5 v=0
557418 On ch=3 n=a#5 v=76
557418 On ch=3 n=f#5 v=76
557418 On ch=3 n=a#4 v=76
558316 On ch=3 n=a#4 v=0
558316 On ch=3 n=f#5 v=0
558316 On ch=3 n=a#5 v=0
559176 On ch=3 n=a#5 v=76
559176 On ch=3 n=g5 v=76
559176 On ch=3 n=a#4 v=76
560114 On ch=3 n=a#4 v=0
560114 On ch=3 n=g5 v=0
560114 On ch=3 n=a#5 v=0
560114 On ch=3 n=a#5 v=88
560114 On ch=3 n=g5 v=88
560114 On ch=3 n=a#4 v=88
561038 On ch=3 n=a#4 v=0
561038 On ch=3 n=g5 v=0
561038 On ch=3 n=a#5 v=0
561038 On ch=3 n=a#5 v=76
561038 On ch=3 n=d#5 v=76
561038 On ch=3 n=a#4 v=76
561908 On ch=3 n=a#4 v=0
561908 On ch=3 n=d#5 v=0
561908 On ch=3 n=a#5 v=0
561908 On ch=3 n=g#5 v=76
561908 On ch=3 n=d#5 v=76
561908 On ch=3 n=g#4 v=76
562806 On ch=3 n=g#4 v=0
562806 On ch=3 n=d#5 v=0
562806 On ch=3 n=g#5 v=0
562806 On ch=3 n=g#5 v=76
562806 On ch=3 n=e5 v=76
562806 On ch=3 n=g#4 v=76
563702 On ch=3 n=g#4 v=0
563702 On ch=3 n=e5 v=0
563702 On ch=3 n=g#5 v=0
563702 On ch=3 n=g#5 v=76
563702 On ch=3 n=f5 v=76
563702 On ch=3 n=d5 v=76
563702 On ch=3 n=g#4 v=76
564600 On ch=3 n=g#4 v=0
564600 On ch=3 n=d5 v=0
564600 On ch=3 n=f5 v=0
564600 On ch=3 n=g#5 v=0
564600 On ch=3 n=g5 v=76
564600 On ch=3 n=f5 v=76
564600 On ch=3 n=d5 v=76
564600 On ch=3 n=g4 v=76
565466 On ch=3 n=g4 v=0
565466 On ch=3 n=d5 v=0
565466 On ch=3 n=f5 v=0
565466 On ch=3 n=g5 v=0
566340 On ch=3 n=g5 v=76
566340 On ch=3 n=d5 v=76
566340 On ch=3 n=b4 v=76
566340 On ch=3 n=g4 v=76
567218 On ch=3 n=g4 v=0
567218 On ch=3 n=b4 v=0
567218 On ch=3 n=d5 v=0
567218 On ch=3 n=g5 v=0
567218 On ch=3 n=g5 v=76
567218 On ch=3 n=c5 v=76
567218 On ch=3 n=g4 v=76
568114 On ch=3 n=g4 v=0
568114 On ch=3 n=c5 v=0
568114 On ch=3 n=g5 v=0
568114 On ch=3 n=a5 v=76
568114 On ch=3 n=f#5 v=76
568114 On ch=3 n=c5 v=76
568114 On ch=3 n=a4 v=76
569002 On ch=3 n=a4 v=0
569002 On ch=3 n=c5 v=0
569002 On ch=3 n=f#5 v=0
569002 On ch=3 n=a5 v=0
569002 On ch=3 n=a5 v=76
569002 On ch=3 n=f#5 v=76
569002 On ch=3 n=c5 v=76
569002 On ch=3 n=a4 v=76
569910 On ch=3 n=a4 v=0
569910 On ch=3 n=c5 v=0
569910 On ch=3 n=f#5 v=0
569910 On ch=3 n=f#5 v=76
569910 On ch=3 n=c5 v=76
569910 On ch=3 n=a4 v=76
570806 On ch=3 n=a4 v=0
570806 On ch=3 n=c5 v=0
570806 On ch=3 n=f#5 v=0
570806 On ch=3 n=a5 v=0
570806 On ch=3 n=b5 v=76
570806 On ch=3 n=f#5 v=76
570806 On ch=3 n=c5 v=76
571712 On ch=3 n=c5 v=0
571712 On ch=3 n=f#5 v=0
571712 On ch=3 n=b5 v=0
571712 On ch=3 n=c6 v=66
571712 On ch=3 n=f#5 v=66
571712 On ch=3 n=c5 v=66
572674 On ch=3 n=c5 v=0
572674 On ch=3 n=f#5 v=0
572674 On ch=3 n=c6 v=0
572674 On ch=3 n=d#6 v=61
572674 On ch=3 n=b5 v=61
572674 On ch=3 n=f5 v=61
573650 On ch=3 n=f5 v=0
573650 On ch=3 n=b5 v=0
573650 On ch=3 n=b5 v=60
573650 On ch=3 n=g5 v=60
573650 On ch=3 n=f5 v=60
574106 On ch=3 n=d#6 v=0
574106 On ch=3 n=d6 v=63
574586 On ch=3 n=d6 v=0
574586 On ch=3 n=f5 v=0
574586 On ch=3 n=g5 v=0
574586 On ch=3 n=b5 v=0
574586 On ch=3 n=c6 v=58
574586 On ch=3 n=g5 v=58
574586 On ch=3 n=d#5 v=58
575498 On ch=3 n=d#5 v=0
575498 On ch=3 n=g5 v=0
575498 On ch=3 n=c6 v=0
575498 On ch=3 n=g5 v=68
575498 On ch=3 n=d#5 v=68
575498 On ch=3 n=g4 v=68
576432 On ch=3 n=g4 v=0
576432 On ch=3 n=d#5 v=0
576432 On ch=3 n=g5 v=0
576432 On ch=3 n=g5 v=76
576432 On ch=3 n=c5 v=76
576432 On ch=3 n=g4 v=76
577356 On ch=3 n=g4 v=0
577356 On ch=3 n=c5 v=0
577356 On ch=3 n=g5 v=0
577356 On ch=3 n=g5 v=76
577356 On ch=3 n=c5 v=76
577356 On ch=3 n=g4 v=76
578242 On ch=3 n=g4 v=0
578242 On ch=3 n=c5 v=0
578242 On ch=3 n=g5 v=0
578242 On ch=3 n=g5 v=76
578242 On ch=3 n=f5 v=76
578242 On ch=3 n=b4 v=76
578242 On ch=3 n=g4 v=76
579146 On ch=3 n=g4 v=0
579146 On ch=3 n=b4 v=0
579146 On ch=3 n=f5 v=0
579146 On ch=3 n=g5 v=0
579146 On ch=3 n=g5 v=76
579146 On ch=3 n=f5 v=76
579146 On ch=3 n=b4 v=76
579146 On ch=3 n=g4 v=76
580046 On ch=3 n=g4 v=0
580046 On ch=3 n=b4 v=0
580046 On ch=3 n=f5 v=0
580046 On ch=3 n=g5 v=0
580046 On ch=3 n=g5 v=76
580046 On ch=3 n=d#5 v=76
580046 On ch=3 n=c5 v=76
580046 On ch=3 n=g4 v=76
580906 On ch=3 n=g4 v=0
580906 On ch=3 n=c5 v=0
580906 On ch=3 n=d#5 v=0
580906 On ch=3 n=g5 v=0
580906 On ch=3 n=g5 v=76
580906 On ch=3 n=d#5 v=76
580906 On ch=3 n=c5 v=76
580906 On ch=3 n=g4 v=76
581794 On ch=3 n=g4 v=0
581794 On ch=3 n=c5 v=0
581794 On ch=3 n=d#5 v=0
581794 On ch=3 n=g5 v=0
581794 On ch=3 n=g5 v=78
581794 On ch=3 n=d#5 v=78
581794 On ch=3 n=c5 v=78
581794 On ch=3 n=g4 v=78
582712 On ch=3 n=g4 v=0
582712 On ch=3 n=c5 v=0
582712 On ch=3 n=d#5 v=0
582712 On ch=3 n=g5 v=0
582712 On ch=3 n=g5 v=76
582712 On ch=3 n=d#5 v=76
582712 On ch=3 n=c5 v=76
582712 On ch=3 n=g4 v=76
583600 On ch=3 n=g4 v=0
583600 On ch=3 n=c5 v=0
583600 On ch=3 n=d#5 v=0
583600 On ch=3 n=g5 v=0
583600 On ch=3 n=g5 v=78
583600 On ch=3 n=d#5 v=78
583600 On ch=3 n=a#4 v=78
583600 On ch=3 n=g4 v=78
584506 On ch=3 n=g4 v=0
584506 On ch=3 n=a#4 v=0
584506 On ch=3 n=d#5 v=0
584506 On ch=3 n=g5 v=0
584506 On ch=3 n=g5 v=76
584506 On ch=3 n=d#5 v=76
584506 On ch=3 n=a#4 v=76
584506 On ch=3 n=g4 v=76
585448 On ch=3 n=g4 v=0
585448 On ch=3 n=a#4 v=0
585448 On ch=3 n=d#5 v=0
585448 On ch=3 n=g5 v=0
585448 On ch=3 n=a#5 v=81
585448 On ch=3 n=g5 v=81
585448 On ch=3 n=d#5 v=81
585448 On ch=3 n=a#4 v=81
586358 On ch=3 n=a#4 v=0
586358 On ch=3 n=d#5 v=0
586358 On ch=3 n=g5 v=0
586358 On ch=3 n=a#5 v=0
586358 On ch=3 n=a#5 v=77
586358 On ch=3 n=g5 v=77
586358 On ch=3 n=d#5 v=77
586358 On ch=3 n=a#4 v=77
587296 On ch=3 n=a#4 v=0
587296 On ch=3 n=d#5 v=0
587296 On ch=3 n=g5 v=0
587296 On ch=3 n=a#5 v=0
587296 On ch=3 n=a#5 v=87
587296 On ch=3 n=d#5 v=87
587296 On ch=3 n=a#4 v=87
588182 On ch=3 n=a#4 v=0
588182 On ch=3 n=d#5 v=0
588182 On ch=3 n=a#5 v=0
588182 On ch=3 n=a#5 v=80
588182 On ch=3 n=d#5 v=80
588182 On ch=3 n=a#4 v=80
589100 On ch=3 n=a#4 v=0
589100 On ch=3 n=d#5 v=0
589100 On ch=3 n=a#5 v=0
589100 On ch=3 n=a#5 v=80
589100 On ch=3 n=g#5 v=80
589100 On ch=3 n=d5 v=80
589100 On ch=3 n=a#4 v=80
590018 On ch=3 n=a#4 v=0
590018 On ch=3 n=d5 v=0
590018 On ch=3 n=g#5 v=0
590018 On ch=3 n=a#5 v=0
590018 On ch=3 n=a#5 v=87
590018 On ch=3 n=g#5 v=87
590018 On ch=3 n=d5 v=87
590018 On ch=3 n=a#4 v=87
590960 On ch=3 n=a#4 v=0
590960 On ch=3 n=d5 v=0
590960 On ch=3 n=g#5 v=0
590960 On ch=3 n=a#5 v=0
590960 On ch=3 n=a#5 v=89
590960 On ch=3 n=g5 v=89
590960 On ch=3 n=c#5 v=89
590960 On ch=3 n=a#4 v=89
591820 On ch=3 n=a#4 v=0
591820 On ch=3 n=c#5 v=0
591820 On ch=3 n=g5 v=0
591820 On ch=3 n=a#5 v=0
591820 On ch=3 n=a#5 v=87
591820 On ch=3 n=g5 v=87
591820 On ch=3 n=c#5 v=87
591820 On ch=3 n=a#4 v=87
592690 On ch=3 n=a#4 v=0
592690 On ch=3 n=c#5 v=0
592690 On ch=3 n=g5 v=0
592690 On ch=3 n=a#5 v=0
592690 On ch=3 n=a#5 v=95
592690 On ch=3 n=g5 v=95
592690 On ch=3 n=c#5 v=95
592690 On ch=3 n=a#4 v=95
593658 On ch=3 n=a#4 v=0
593658 On ch=3 n=c#5 v=0
593658 On ch=3 n=g5 v=0
593658 On ch=3 n=a#5 v=0
593658 On ch=3 n=a#5 v=82
593658 On ch=3 n=g5 v=82
593658 On ch=3 n=d#5 v=82
593658 On ch=3 n=c#5 v=82
594566 On ch=3 n=c#5 v=0
594566 On ch=3 n=d#5 v=0
594566 On ch=3 n=g5 v=0
594566 On ch=3 n=a#5 v=0
594566 On ch=3 n=b5 v=82
594566 On ch=3 n=g5 v=82
594566 On ch=3 n=d#5 v=82
594566 On ch=3 n=c#5 v=82
595456 On ch=3 n=c#5 v=0
595456 On ch=3 n=d#5 v=0
595456 On ch=3 n=g5 v=0
595456 On ch=3 n=b5 v=0
595456 On ch=3 n=b5 v=80
595456 On ch=3 n=g5 v=80
595456 On ch=3 n=d#5 v=80
595456 On ch=3 n=c#5 v=80
596346 On ch=3 n=c#5 v=0
596346 On ch=3 n=d#5 v=0
596346 On ch=3 n=g5 v=0
596346 On ch=3 n=b5 v=0
596346 On ch=3 n=c6 v=80
596346 On ch=3 n=f#5 v=80
596346 On ch=3 n=c5 v=80
597258 On ch=3 n=c5 v=0
597258 On ch=3 n=f#5 v=0
597258 On ch=3 n=f#5 v=71
597258 On ch=3 n=c5 v=71
598154 On ch=3 n=c5 v=0
598154 On ch=3 n=f#5 v=0
598154 On ch=3 n=c6 v=0
598154 On ch=3 n=a#5 v=67
598154 On ch=3 n=f#5 v=67
598154 On ch=3 n=c5 v=67
599066 On ch=3 n=c5 v=0
599066 On ch=3 n=f#5 v=0
599066 On ch=3 n=a#5 v=0
599066 On ch=3 n=g#5 v=67
599066 On ch=3 n=f#5 v=67
599066 On ch=3 n=c5 v=67
599948 On ch=3 n=c5 v=0
599948 On ch=3 n=f#5 v=0
599948 On ch=3 n=g#5 v=0
599948 On ch=3 n=c#6 v=69
599948 On ch=3 n=f5 v=69
599948 On ch=3 n=c#5 v=69
600844 On ch=3 n=c#5 v=0
600844 On ch=3 n=f5 v=0
600844 On ch=3 n=c#6 v=0
600844 On ch=3 n=c6 v=77
600844 On ch=3 n=f5 v=77
600844 On ch=3 n=c#5 v=77
601744 On ch=3 n=c#5 v=0
601744 On ch=3 n=f5 v=0
601744 On ch=3 n=c6 v=0
601744 On ch=3 n=b5 v=67
601744 On ch=3 n=f5 v=67
601744 On ch=3 n=d5 v=67
602658 On ch=3 n=d5 v=0
602658 On ch=3 n=f5 v=0
602658 On ch=3 n=f5 v=65
602658 On ch=3 n=d5 v=65
603560 On ch=3 n=d5 v=0
603560 On ch=3 n=f5 v=0
603560 On ch=3 n=b5 v=0
603560 On ch=3 n=g#5 v=71
603560 On ch=3 n=f5 v=71
603560 On ch=3 n=b4 v=71
604458 On ch=3 n=b4 v=0
604458 On ch=3 n=f5 v=0
604458 On ch=3 n=g#5 v=0
604458 On ch=3 n=g5 v=74
604458 On ch=3 n=f5 v=74
604458 On ch=3 n=b4 v=74
605354 On ch=3 n=b4 v=0
605354 On ch=3 n=f5 v=0
605354 On ch=3 n=g5 v=0
605354 On ch=3 n=c6 v=68
605354 On ch=3 n=d#5 v=68
605354 On ch=3 n=c5 v=68
606236 On ch=3 n=c5 v=0
606236 On ch=3 n=d#5 v=0
606236 On ch=3 n=c6 v=0
606236 On ch=3 n=a#5 v=69
606236 On ch=3 n=d#5 v=69
606236 On ch=3 n=c5 v=69
607098 On ch=3 n=c5 v=0
607098 On ch=3 n=d#5 v=0
607098 On ch=3 n=a#5 v=0
607098 On ch=3 n=g#5 v=64
607098 On ch=3 n=d#5 v=64
607098 On ch=3 n=c5 v=64
608016 On ch=3 n=c5 v=0
608016 On ch=3 n=d#5 v=0
608016 On ch=3 n=d#5 v=57
608016 On ch=3 n=c5 v=57
608914 On ch=3 n=c5 v=0
608914 On ch=3 n=d#5 v=0
608914 On ch=3 n=g#5 v=0
608914 On ch=3 n=g#5 v=55
608914 On ch=3 n=d5 v=55
608914 On ch=3 n=b4 v=55
609818 On ch=3 n=b4 v=0
609818 On ch=3 n=d5 v=0
609818 On ch=3 n=g#5 v=0
609818 On ch=3 n=g#5 v=54
609818 On ch=3 n=d#5 v=54
609818 On ch=3 n=c5 v=54
610726 On ch=3 n=c5 v=0
610726 On ch=3 n=d#5 v=0
610726 On ch=3 n=g#5 v=0
610726 On ch=3 n=g#5 v=53
610726 On ch=3 n=d5 v=53
610726 On ch=3 n=b4 v=53
611638 On ch=3 n=b4 v=0
611638 On ch=3 n=d5 v=0
611638 On ch=3 n=g#5 v=0
611638 On ch=3 n=g#5 v=49
611638 On ch=3 n=d#5 v=49
611638 On ch=3 n=g#4 v=49
612526 On ch=3 n=g#4 v=0
612526 On ch=3 n=d#5 v=0
612526 On ch=3 n=g#5 v=0
612526 On ch=3 n=g#5 v=51
612526 On ch=3 n=f5 v=51
612526 On ch=3 n=c5 v=51
613416 On ch=3 n=c5 v=0
613416 On ch=3 n=f5 v=0
613416 On ch=3 n=g#5 v=0
613416 On ch=3 n=g5 v=52
613416 On ch=3 n=f5 v=52
613416 On ch=3 n=b4 v=52
614298 On ch=3 n=b4 v=0
614298 On ch=3 n=f5 v=0
614298 On ch=3 n=g5 v=0
615216 On ch=3 n=g5 v=51
615216 On ch=3 n=f5 v=51
615216 On ch=3 n=b4 v=51
615216 On ch=3 n=g4 v=51
616134 On ch=3 n=g4 v=0
616134 On ch=3 n=b4 v=0
616134 On ch=3 n=f5 v=0
616134 On ch=3 n=g5 v=0
616134 On ch=3 n=g5 v=52
616134 On ch=3 n=d#5 v=52
616134 On ch=3 n=c5 v=52
616134 On ch=3 n=g4 v=52
617084 On ch=3 n=g4 v=0
617084 On ch=3 n=c5 v=0
617084 On ch=3 n=d#5 v=0
617084 On ch=3 n=g5 v=0
618070 On ch=3 n=d#5 v=52
620040 On ch=3 n=d#5 v=0
620040 On ch=3 n=c6 v=50
620040 On ch=3 n=g#5 v=50
621954 On ch=3 n=g#5 v=0
621954 On ch=3 n=c6 v=0
621954 On ch=3 n=c#6 v=54
621954 On ch=3 n=g5 v=54
622404 On ch=3 n=g5 v=0
622404 On ch=3 n=f5 v=50
622846 On ch=3 n=f5 v=0
622846 On ch=3 n=d#5 v=50
623292 On ch=3 n=d#5 v=0
623292 On ch=3 n=a#5 v=50
623760 On ch=3 n=a#5 v=0
623760 On ch=3 n=c#6 v=0
623760 On ch=3 n=d6 v=50
623760 On ch=3 n=b5 v=50
625634 On ch=3 n=b5 v=0
625634 On ch=3 n=d6 v=0
625634 On ch=3 n=d#6 v=51
625634 On ch=3 n=c6 v=51
627546 On ch=3 n=c6 v=0
627546 On ch=3 n=d#6 v=0
627546 On ch=3 n=e6 v=51
627546 On ch=3 n=b5 v=51
628986 On ch=3 n=b5 v=0
628986 On ch=3 n=e6 v=0
628986 On ch=3 n=e6 v=65
628986 On ch=3 n=b5 v=65
629414 On ch=3 n=b5 v=0
629414 On ch=3 n=e6 v=0
629414 On ch=3 n=e6 v=71
629414 On ch=3 n=b5 v=71
631350 On ch=3 n=b5 v=0
631350 On ch=3 n=e6 v=0
631350 On ch=3 n=d#6 v=65
631350 On ch=3 n=c6 v=65
633206 On ch=3 n=c6 v=0
633206 On ch=3 n=d#6 v=0
633206 On ch=3 n=d6 v=63
633206 On ch=3 n=g#5 v=63
634110 On ch=3 n=g#5 v=0
634110 On ch=3 n=d6 v=0
634110 On ch=3 n=d6 v=62
634110 On ch=3 n=g#5 v=62
634546 On ch=3 n=g#5 v=0
634546 On ch=3 n=d6 v=0
634546 On ch=3 n=d6 v=58
634546 On ch=3 n=g#5 v=58
634990 On ch=3 n=g#5 v=0
634990 On ch=3 n=d6 v=0
634990 On ch=3 n=d6 v=53
634990 On ch=3 n=g#5 v=53
635908 On ch=3 n=g#5 v=0
635908 On ch=3 n=d6 v=0
635908 On ch=3 n=c#6 v=60
635908 On ch=3 n=a5 v=60
636336 On ch=3 n=a5 v=0
636336 On ch=3 n=c#6 v=0
636336 On ch=3 n=c#6 v=57
636336 On ch=3 n=a5 v=57
636774 On ch=3 n=a5 v=0
636774 On ch=3 n=c#6 v=0
636774 On ch=3 n=e6 v=59
636774 On ch=3 n=g#5 v=59
637680 On ch=3 n=g#5 v=0
637680 On ch=3 n=e6 v=0
637680 On ch=3 n=d6 v=54
637680 On ch=3 n=g#5 v=54
638084 On ch=3 n=g#5 v=0
638084 On ch=3 n=d6 v=0
638084 On ch=3 n=d6 v=47
638084 On ch=3 n=g#5 v=47
638516 On ch=3 n=g#5 v=0
638516 On ch=3 n=d6 v=0
638516 On ch=3 n=d6 v=49
638516 On ch=3 n=g#5 v=49
639414 On ch=3 n=g#5 v=0
639414 On ch=3 n=d6 v=0
639414 On ch=3 n=d6 v=51
639414 On ch=3 n=g#5 v=51
640298 On ch=3 n=g#5 v=0
640298 On ch=3 n=d6 v=0
640298 On ch=3 n=d6 v=51
640298 On ch=3 n=g#5 v=51
641188 On ch=3 n=g#5 v=0
641188 On ch=3 n=d6 v=0
641188 On ch=3 n=c#6 v=56
641188 On ch=3 n=a5 v=56
641618 On ch=3 n=a5 v=0
641618 On ch=3 n=c#6 v=0
641618 On ch=3 n=c#6 v=59
641618 On ch=3 n=a5 v=59
642060 On ch=3 n=a5 v=0
642060 On ch=3 n=c#6 v=0
642060 On ch=3 n=c#6 v=57
642060 On ch=3 n=a#5 v=57
642938 On ch=3 n=a#5 v=0
642938 On ch=3 n=c#6 v=0
642938 On ch=3 n=c6 v=57
642938 On ch=3 n=g#5 v=57
643366 On ch=3 n=g#5 v=0
643366 On ch=3 n=c6 v=0
643366 On ch=3 n=c6 v=58
643366 On ch=3 n=g#5 v=58
643790 On ch=3 n=g#5 v=0
643790 On ch=3 n=c6 v=0
643790 On ch=3 n=d#6 v=51
643790 On ch=3 n=g5 v=51
644684 On ch=3 n=g5 v=0
644684 On ch=3 n=d#6 v=0
644684 On ch=3 n=c#6 v=56
644684 On ch=3 n=g5 v=56
645118 On ch=3 n=g5 v=0
645118 On ch=3 n=c#6 v=0
645118 On ch=3 n=c#6 v=55
645118 On ch=3 n=g5 v=55
645546 On ch=3 n=g5 v=0
645546 On ch=3 n=c#6 v=0
645546 On ch=3 n=c#6 v=57
645546 On ch=3 n=g5 v=57
646434 On ch=3 n=g5 v=0
646434 On ch=3 n=c#6 v=0
646434 On ch=3 n=c#6 v=54
646434 On ch=3 n=g5 v=54
647322 On ch=3 n=g5 v=0
647322 On ch=3 n=c#6 v=0
647322 On ch=3 n=c#6 v=51
647322 On ch=3 n=g#5 v=51
647544 On ch=3 n=c#6 v=0
647544 On ch=3 n=c6 v=51
648218 On ch=3 n=c6 v=0
648218 On ch=3 n=g#5 v=0
648218 On ch=3 n=a#5 v=53
648218 On ch=3 n=g5 v=53
649136 On ch=3 n=g5 v=0
649136 On ch=3 n=a#5 v=0
649136 On ch=3 n=c6 v=53
649136 On ch=3 n=g5 v=53
650050 On ch=3 n=g5 v=0
650050 On ch=3 n=c6 v=0
650050 On ch=3 n=g#5 v=51
650050 On ch=3 n=f5 v=51
650968 On ch=3 n=f5 v=0
650968 On ch=3 n=g#5 v=0
650968 On ch=3 n=g5 v=51
650968 On ch=3 n=e5 v=51
652854 On ch=3 n=e5 v=0
652854 On ch=3 n=g5 v=0
652854 On ch=3 n=e6 v=52
652854 On ch=3 n=c6 v=52
652854 On ch=3 n=g5 v=52
652854 On ch=3 n=e5 v=52
654678 On ch=3 n=e5 v=0
654678 On ch=3 n=g5 v=0
654678 On ch=3 n=c6 v=0
654678 On ch=3 n=e6 v=0
654678 On ch=3 n=d6 v=51
654678 On ch=3 n=b5 v=51
654678 On ch=3 n=g5 v=51
654678 On ch=3 n=f5 v=51
656514 On ch=3 n=f5 v=0
656514 On ch=3 n=b5 v=0
656514 On ch=3 n=d6 v=0
656514 On ch=3 n=c6 v=47
656514 On ch=3 n=e5 v=47
658404 On ch=3 n=e5 v=0
658404 On ch=3 n=c6 v=0
658404 On ch=3 n=g5 v=0
658404 On ch=3 n=c#6 v=61
658404 On ch=3 n=g#5 v=61
658404 On ch=3 n=c#5 v=61
660276 On ch=3 n=g#5 v=0
660276 On ch=3 n=c#6 v=0
660276 On ch=3 n=a#5 v=59
660276 On ch=3 n=g5 v=59
662120 On ch=3 n=g5 v=0
662120 On ch=3 n=a#5 v=0
662120 On ch=3 n=c#5 v=0
662120 On ch=3 n=d#5 v=51
662120 On ch=3 n=c5 v=51
663996 On ch=3 n=c5 v=0
663996 On ch=3 n=d#5 v=0
663996 On ch=3 n=g#5 v=51
665828 On ch=3 n=g#5 v=0
665828 On ch=3 n=c#6 v=46
665828 On ch=3 n=g5 v=46
666256 On ch=3 n=g5 v=0
666256 On ch=3 n=f5 v=48
666694 On ch=3 n=f5 v=0
666694 On ch=3 n=d#5 v=48
667136 On ch=3 n=d#5 v=0
667136 On ch=3 n=a#5 v=50
667576 On ch=3 n=a#5 v=0
667576 On ch=3 n=c#6 v=0
667576 On ch=3 n=d6 v=54
667576 On ch=3 n=b5 v=54
667990 On ch=3 n=b5 v=0
667990 On ch=3 n=d6 v=0
667990 On ch=3 n=a#6 v=60
667990 On ch=3 n=g6 v=60
668418 On ch=3 n=g6 v=0
668418 On ch=3 n=a#6 v=0
668418 On ch=3 n=g#6 v=66
668418 On ch=3 n=f6 v=66
668842 On ch=3 n=f6 v=0
668842 On ch=3 n=g#6 v=0
668842 On ch=3 n=f6 v=64
668842 On ch=3 n=b5 v=64
669274 On ch=3 n=b5 v=0
669274 On ch=3 n=f6 v=0
669274 On ch=3 n=d#6 v=62
669274 On ch=3 n=c6 v=62
671142 On ch=3 n=c6 v=0
671142 On ch=3 n=d#6 v=0
671142 On ch=3 n=e6 v=71
671142 On ch=3 n=b5 v=71
672488 On ch=3 n=b5 v=0
672488 On ch=3 n=e6 v=0
672488 On ch=3 n=e6 v=64
672488 On ch=3 n=b5 v=64
672906 On ch=3 n=b5 v=0
672906 On ch=3 n=e6 v=0
672906 On ch=3 n=e6 v=72
672906 On ch=3 n=b5 v=72
674740 On ch=3 n=b5 v=0
674740 On ch=3 n=a5 v=72
676562 On ch=3 n=e6 v=0
676562 On ch=3 n=f6 v=72
677480 On ch=3 n=f6 v=0
677480 On ch=3 n=a5 v=0
677480 On ch=3 n=d#6 v=72
677480 On ch=3 n=a5 v=72
677894 On ch=3 n=a5 v=0
677894 On ch=3 n=d#6 v=0
677894 On ch=3 n=d#6 v=72
677894 On ch=3 n=a5 v=72
678330 On ch=3 n=a5 v=0
678330 On ch=3 n=d#6 v=0
678330 On ch=3 n=d#6 v=72
678330 On ch=3 n=a5 v=72
679200 On ch=3 n=a5 v=0
679200 On ch=3 n=d#6 v=0
679200 On ch=3 n=d6 v=72
679200 On ch=3 n=a#5 v=72
679612 On ch=3 n=a#5 v=0
679612 On ch=3 n=d6 v=0
679612 On ch=3 n=d6 v=72
679612 On ch=3 n=a#5 v=72
680070 On ch=3 n=a#5 v=0
680070 On ch=3 n=d6 v=0
680070 On ch=3 n=f6 v=72
680070 On ch=3 n=a5 v=72
680920 On ch=3 n=a5 v=0
680920 On ch=3 n=f6 v=0
680920 On ch=3 n=d#6 v=72
680920 On ch=3 n=a5 v=72
681342 On ch=3 n=a5 v=0
681342 On ch=3 n=d#6 v=0
681342 On ch=3 n=d#6 v=72
681342 On ch=3 n=a5 v=72
681774 On ch=3 n=a5 v=0
681774 On ch=3 n=d#6 v=0
681774 On ch=3 n=d#6 v=72
681774 On ch=3 n=a5 v=72
682628 On ch=3 n=a5 v=0
682628 On ch=3 n=d#6 v=0
682628 On ch=3 n=d#6 v=72
682628 On ch=3 n=a5 v=72
683484 On ch=3 n=a5 v=0
683484 On ch=3 n=d#6 v=0
683484 On ch=3 n=d#6 v=55
683484 On ch=3 n=a5 v=55
684380 On ch=3 n=a5 v=0
684380 On ch=3 n=d#6 v=0
684380 On ch=3 n=d6 v=51
684380 On ch=3 n=a#5 v=51
684818 On ch=3 n=a#5 v=0
684818 On ch=3 n=d6 v=0
684818 On ch=3 n=d6 v=52
684818 On ch=3 n=a#5 v=52
685266 On ch=3 n=a#5 v=0
685266 On ch=3 n=d6 v=0
685266 On ch=3 n=d6 v=48
685266 On ch=3 n=b5 v=48
686128 On ch=3 n=b5 v=0
686128 On ch=3 n=d6 v=0
686128 On ch=3 n=c#6 v=51
686128 On ch=3 n=a5 v=51
686560 On ch=3 n=a5 v=0
686560 On ch=3 n=c#6 v=0
686560 On ch=3 n=c#6 v=50
686560 On ch=3 n=a5 v=50
686994 On ch=3 n=a5 v=0
686994 On ch=3 n=c#6 v=0
686994 On ch=3 n=e6 v=50
686994 On ch=3 n=g#5 v=50
687876 On ch=3 n=g#5 v=0
687876 On ch=3 n=e6 v=0
687876 On ch=3 n=d6 v=47
687876 On ch=3 n=g#5 v=47
688310 On ch=3 n=g#5 v=0
688310 On ch=3 n=d6 v=0
688310 On ch=3 n=d6 v=50
688310 On ch=3 n=g#5 v=50
688740 On ch=3 n=g#5 v=0
688740 On ch=3 n=d6 v=0
688740 On ch=3 n=d6 v=50
688740 On ch=3 n=g#5 v=50
689630 On ch=3 n=g#5 v=0
689630 On ch=3 n=d6 v=0
689630 On ch=3 n=c#6 v=45
689630 On ch=3 n=g#5 v=45
690062 On ch=3 n=g#5 v=0
690062 On ch=3 n=c#6 v=0
690062 On ch=3 n=c#6 v=50
690062 On ch=3 n=g#5 v=50
690498 On ch=3 n=g#5 v=0
690498 On ch=3 n=c#6 v=0
690498 On ch=3 n=c#6 v=48
690498 On ch=3 n=g5 v=48
690716 On ch=3 n=c#6 v=0
690716 On ch=3 n=c6 v=48
691412 On ch=3 n=c6 v=0
691412 On ch=3 n=g5 v=0
691412 On ch=3 n=a#5 v=47
691412 On ch=3 n=g5 v=47
692306 On ch=3 n=g5 v=0
692306 On ch=3 n=a#5 v=0
692306 On ch=3 n=c6 v=44
692306 On ch=3 n=g5 v=44
693204 On ch=3 n=g5 v=0
693204 On ch=3 n=c6 v=0
693204 On ch=3 n=f5 v=42
693204 On ch=3 n=g#5 v=42
694110 On ch=3 n=g#5 v=0
694110 On ch=3 n=f5 v=0
694110 On ch=3 n=d#5 v=41
695020 On ch=3 n=c6 v=40
695950 On ch=3 n=c6 v=0
695950 On ch=3 n=a#5 v=44
695950 On ch=3 n=g5 v=44
695950 On ch=3 n=c#5 v=44
697764 On ch=3 n=c#5 v=0
697764 On ch=3 n=g5 v=0
697764 On ch=3 n=a#5 v=0
697764 On ch=3 n=d#5 v=0
697764 On ch=3 n=g#5 v=48
697764 On ch=3 n=c5 v=48
698744 On ch=3 n=c5 v=0
698744 On ch=3 n=g#5 v=0
702464 On ch=3 n=g5 v=67
702464 On ch=3 n=e5 v=67
702464 On ch=3 n=a#4 v=67
703422 On ch=3 n=a#4 v=0
703422 On ch=3 n=e5 v=0
703422 On ch=3 n=g5 v=0
703422 On ch=3 n=g5 v=59
703422 On ch=3 n=c#5 v=59
703422 On ch=3 n=g#4 v=59
704350 On ch=3 n=g5 v=0
704350 On ch=3 n=f5 v=63
705260 On ch=3 n=f5 v=0
705260 On ch=3 n=g#4 v=0
705260 On ch=3 n=c#5 v=0
705260 On ch=3 n=f5 v=63
705260 On ch=3 n=c5 v=63
706146 On ch=3 n=f5 v=0
706146 On ch=3 n=d#5 v=63
707948 On ch=3 n=d#5 v=0
707948 On ch=3 n=d#5 v=63
708860 On ch=3 n=d#5 v=0
708860 On ch=3 n=c5 v=0
708860 On ch=3 n=d#5 v=64
708860 On ch=3 n=g#4 v=64
708860 On ch=3 n=f4 v=64
709762 On ch=3 n=d#5 v=0
709762 On ch=3 n=c#5 v=67
710650 On ch=3 n=c#5 v=0
710650 On ch=3 n=f4 v=0
710650 On ch=3 n=g#4 v=0
710650 On ch=3 n=c#5 v=67
710650 On ch=3 n=g#4 v=67
711532 On ch=3 n=c#5 v=0
711532 On ch=3 n=c5 v=63
713326 On ch=3 n=c5 v=0
713326 On ch=3 n=c5 v=70
713326 On ch=3 n=d#4 v=70
714238 On ch=3 n=d#4 v=0
714238 On ch=3 n=c5 v=0
714238 On ch=3 n=g#4 v=0
714238 On ch=3 n=c5 v=72
714238 On ch=3 n=c#4 v=72
714238 On ch=3 n=g4 v=72
715098 On ch=3 n=c#4 v=0
715098 On ch=3 n=c5 v=0
715098 On ch=3 n=a#4 v=79
715972 On ch=3 n=a#4 v=0
715972 On ch=3 n=g4 v=0
715972 On ch=3 n=g#4 v=85
715972 On ch=3 n=e4 v=85
717716 On ch=3 n=e4 v=0
717716 On ch=3 n=g#4 v=0
717716 On ch=3 n=g#4 v=75
717716 On ch=3 n=d#4 v=75
718620 On ch=3 n=g#4 v=0
718620 On ch=3 n=g4 v=69
719486 On ch=3 n=g4 v=0
719486 On ch=3 n=d#4 v=0
719486 On ch=3 n=g4 v=74
719936 On ch=3 n=c5 v=87
720388 On ch=3 n=c5 v=0
720388 On ch=3 n=d5 v=87
720388 On ch=3 n=b4 v=87
720814 On ch=3 n=b4 v=0
720814 On ch=3 n=d5 v=0
720814 On ch=3 n=d#5 v=87
720814 On ch=3 n=c5 v=87
721276 On ch=3 n=c5 v=0
721276 On ch=3 n=d#5 v=0
721276 On ch=3 n=g4 v=0
723988 On ch=3 n=g5 v=87
723988 On ch=3 n=e5 v=87
723988 On ch=3 n=a#4 v=87
724920 On ch=3 n=a#4 v=0
724920 On ch=3 n=e5 v=0
724920 On ch=3 n=g5 v=0
724920 On ch=3 n=g5 v=74
724920 On ch=3 n=c#5 v=74
724920 On ch=3 n=g#4 v=74
725862 On ch=3 n=g5 v=0
725862 On ch=3 n=f5 v=69
726766 On ch=3 n=f5 v=0
726766 On ch=3 n=g#4 v=0
726766 On ch=3 n=c#5 v=0
726766 On ch=3 n=f5 v=69
726766 On ch=3 n=c5 v=69
727670 On ch=3 n=f5 v=0
727670 On ch=3 n=d#5 v=64
729458 On ch=3 n=d#5 v=0
729458 On ch=3 n=d#5 v=67
730342 On ch=3 n=d#5 v=0
730342 On ch=3 n=c5 v=0
730342 On ch=3 n=d#5 v=72
730342 On ch=3 n=g#4 v=72
730342 On ch=3 n=f4 v=72
731264 On ch=3 n=d#5 v=0
731264 On ch=3 n=c#5 v=65
732172 On ch=3 n=c#5 v=0
732172 On ch=3 n=f4 v=0
732172 On ch=3 n=g#4 v=0
732172 On ch=3 n=c#5 v=67
732172 On ch=3 n=g#4 v=67
733530 On ch=3 n=c#5 v=0
733530 On ch=3 n=c5 v=66
733980 On ch=3 n=c5 v=0
733980 On ch=3 n=g#4 v=0
733980 On ch=3 n=d5 v=66
733980 On ch=3 n=g#4 v=66
734416 On ch=3 n=d5 v=0
734416 On ch=3 n=c#5 v=67
734872 On ch=3 n=c#5 v=0
734872 On ch=3 n=d5 v=66
735326 On ch=3 n=d5 v=0
735326 On ch=3 n=g#4 v=0
735326 On ch=3 n=d#5 v=65
735326 On ch=3 n=a4 v=65
735792 On ch=3 n=a4 v=0
735792 On ch=3 n=d#5 v=0
735792 On ch=3 n=e5 v=65
735792 On ch=3 n=a#4 v=65
736260 On ch=3 n=e5 v=0
736260 On ch=3 n=d#5 v=61
736722 On ch=3 n=d#5 v=0
736722 On ch=3 n=e5 v=64
737168 On ch=3 n=e5 v=0
737168 On ch=3 n=a#4 v=0
737168 On ch=3 n=f5 v=67
737168 On ch=3 n=b4 v=67
737622 On ch=3 n=b4 v=0
737622 On ch=3 n=f5 v=0
737622 On ch=3 n=f#5 v=67
737622 On ch=3 n=c5 v=67
738072 On ch=3 n=f#5 v=0
738072 On ch=3 n=f5 v=70
738524 On ch=3 n=f5 v=0
738524 On ch=3 n=f#5 v=73
738984 On ch=3 n=f#5 v=0
738984 On ch=3 n=c5 v=0
738984 On ch=3 n=g5 v=73
738984 On ch=3 n=c#5 v=73
739440 On ch=3 n=c#5 v=0
739440 On ch=3 n=g5 v=0
739440 On ch=3 n=g#5 v=72
739440 On ch=3 n=d5 v=72
739894 On ch=3 n=g#5 v=0
739894 On ch=3 n=g5 v=69
740330 On ch=3 n=g5 v=0
740330 On ch=3 n=g#5 v=71
740770 On ch=3 n=g#5 v=0
740770 On ch=3 n=d5 v=0
740770 On ch=3 n=a5 v=72
740770 On ch=3 n=d#5 v=72
741222 On ch=3 n=d#5 v=0
741222 On ch=3 n=a5 v=0
741222 On ch=3 n=a#5 v=76
741222 On ch=3 n=e5 v=76
741676 On ch=3 n=a#5 v=0
741676 On ch=3 n=a5 v=75
742132 On ch=3 n=a5 v=0
742132 On ch=3 n=a#5 v=82
742576 On ch=3 n=a#5 v=0
742576 On ch=3 n=e5 v=0
742576 On ch=3 n=b5 v=78
742576 On ch=3 n=f5 v=78
743016 On ch=3 n=f5 v=0
743016 On ch=3 n=b5 v=0
743016 On ch=3 n=c6 v=87
743496 On ch=3 n=c6 v=0
743496 On ch=3 n=e5 v=65
743998 On ch=3 n=e5 v=0
743998 On ch=3 n=g5 v=64
744450 On ch=3 n=g5 v=0
744450 On ch=3 n=a#5 v=66
744450 On ch=3 n=f5 v=66
744932 On ch=3 n=f5 v=0
744932 On ch=3 n=a#5 v=0
744932 On ch=3 n=c6 v=56
745394 On ch=3 n=c6 v=0
745394 On ch=3 n=e5 v=63
745856 On ch=3 n=e5 v=0
745856 On ch=3 n=g5 v=61
746324 On ch=3 n=g5 v=0
746324 On ch=3 n=c#6 v=61
746324 On ch=3 n=f5 v=61
746806 On ch=3 n=f5 v=0
746806 On ch=3 n=c#6 v=0
746806 On ch=3 n=c6 v=59
747272 On ch=3 n=c6 v=0
747272 On ch=3 n=e5 v=61
747736 On ch=3 n=e5 v=0
747736 On ch=3 n=g5 v=61
748206 On ch=3 n=g5 v=0
748206 On ch=3 n=a#5 v=60
748206 On ch=3 n=f5 v=60
748692 On ch=3 n=f5 v=0
748692 On ch=3 n=a#5 v=0
748692 On ch=3 n=c6 v=56
749172 On ch=3 n=c6 v=0
749172 On ch=3 n=e5 v=57
749670 On ch=3 n=e5 v=0
749670 On ch=3 n=g5 v=54
750150 On ch=3 n=g5 v=0
750150 On ch=3 n=c#6 v=54
750150 On ch=3 n=f5 v=54
750640 On ch=3 n=f5 v=0
750640 On ch=3 n=c#6 v=0
750640 On ch=3 n=c6 v=53
751132 On ch=3 n=c6 v=0
751132 On ch=3 n=e5 v=52
751608 On ch=3 n=e5 v=0
751608 On ch=3 n=g5 v=47
752068 On ch=3 n=g5 v=0
752068 On ch=3 n=a#5 v=46
752068 On ch=3 n=f5 v=46
752556 On ch=3 n=f5 v=0
752556 On ch=3 n=a#5 v=0
752556 On ch=3 n=c6 v=43
753040 On ch=3 n=c6 v=0
753040 On ch=3 n=e5 v=49
753522 On ch=3 n=e5 v=0
753522 On ch=3 n=g5 v=47
754004 On ch=3 n=g5 v=0
754004 On ch=3 n=c#6 v=43
754004 On ch=3 n=f5 v=43
754472 On ch=3 n=f5 v=0
754472 On ch=3 n=c#6 v=0
754472 On ch=3 n=c6 v=47
754472 On ch=3 n=e5 v=47
756498 On ch=3 n=e5 v=0
756498 On ch=3 n=c6 v=0
756498 On ch=3 n=c6 v=43
758608 On ch=3 n=c6 v=0
758608 On ch=3 n=c6 v=42
760672 On ch=3 n=c6 v=0
760672 On ch=3 n=c6 v=48
766190 On ch=3 n=c6 v=0
766190 On ch=3 n=f6 v=46
766682 On ch=3 n=f6 v=0
766682 On ch=3 n=d#6 v=51
767202 On ch=3 n=d#6 v=0
767202 On ch=3 n=c#6 v=44
767716 On ch=3 n=c#6 v=0
767716 On ch=3 n=a#5 v=50
768254 On ch=3 n=a#5 v=0
768254 On ch=3 n=f5 v=49
768754 On ch=3 n=f5 v=0
768754 On ch=3 n=g5 v=51
769292 On ch=3 n=g5 v=0
769292 On ch=3 n=d#5 v=46
771296 On ch=3 n=d#5 v=0
771296 On ch=3 n=c6 v=55
771296 On ch=3 n=g#5 v=55
773228 On ch=3 n=g#5 v=0
773228 On ch=3 n=c6 v=0
773228 On ch=3 n=c#6 v=57
773228 On ch=3 n=g5 v=57
773720 On ch=3 n=g5 v=0
773720 On ch=3 n=f5 v=55
774190 On ch=3 n=f5 v=0
774190 On ch=3 n=d#5 v=56
774638 On ch=3 n=d#5 v=0
774638 On ch=3 n=a#5 v=56
775094 On ch=3 n=a#5 v=0
775094 On ch=3 n=c#6 v=0
775094 On ch=3 n=d6 v=59
775094 On ch=3 n=b5 v=59
776998 On ch=3 n=b5 v=0
776998 On ch=3 n=d6 v=0
776998 On ch=3 n=d#6 v=64
776998 On ch=3 n=c6 v=64
778898 On ch=3 n=c6 v=0
778898 On ch=3 n=d#6 v=0
778898 On ch=3 n=e6 v=65
778898 On ch=3 n=b5 v=65
780314 On ch=3 n=b5 v=0
780314 On ch=3 n=e6 v=0
780314 On ch=3 n=e6 v=74
780314 On ch=3 n=b5 v=74
780766 On ch=3 n=b5 v=0
780766 On ch=3 n=e6 v=0
780766 On ch=3 n=e6 v=76
780766 On ch=3 n=b5 v=76
782726 On ch=3 n=b5 v=0
782726 On ch=3 n=e6 v=0
782726 On ch=3 n=d#6 v=70
782726 On ch=3 n=c6 v=70
784600 On ch=3 n=c6 v=0
784600 On ch=3 n=d#6 v=0
784600 On ch=3 n=d6 v=53
784600 On ch=3 n=g#5 v=53
785520 On ch=3 n=g#5 v=0
785520 On ch=3 n=d6 v=0
785520 On ch=3 n=d6 v=52
785520 On ch=3 n=g#5 v=52
785992 On ch=3 n=g#5 v=0
785992 On ch=3 n=d6 v=0
785992 On ch=3 n=d6 v=50
785992 On ch=3 n=g#5 v=50
786454 On ch=3 n=g#5 v=0
786454 On ch=3 n=d6 v=0
786454 On ch=3 n=d6 v=53
786454 On ch=3 n=g#5 v=53
787372 On ch=3 n=g#5 v=0
787372 On ch=3 n=d6 v=0
787372 On ch=3 n=c#6 v=53
787372 On ch=3 n=a5 v=53
787812 On ch=3 n=a5 v=0
787812 On ch=3 n=c#6 v=0
787812 On ch=3 n=c#6 v=54
787812 On ch=3 n=a5 v=54
788272 On ch=3 n=a5 v=0
788272 On ch=3 n=c#6 v=0
788272 On ch=3 n=e6 v=51
788272 On ch=3 n=g#5 v=51
789186 On ch=3 n=g#5 v=0
789186 On ch=3 n=e6 v=0
789186 On ch=3 n=d6 v=53
789186 On ch=3 n=g#5 v=53
789630 On ch=3 n=g#5 v=0
789630 On ch=3 n=d6 v=0
789630 On ch=3 n=d6 v=53
789630 On ch=3 n=g#5 v=53
790064 On ch=3 n=g#5 v=0
790064 On ch=3 n=d6 v=0
790064 On ch=3 n=d6 v=53
790064 On ch=3 n=g#5 v=53
790968 On ch=3 n=g#5 v=0
790968 On ch=3 n=d6 v=0
790968 On ch=3 n=d6 v=52
790968 On ch=3 n=g#5 v=52
791900 On ch=3 n=g#5 v=0
791900 On ch=3 n=d6 v=0
791900 On ch=3 n=d6 v=51
791900 On ch=3 n=g#5 v=51
792814 On ch=3 n=g#5 v=0
792814 On ch=3 n=d6 v=0
792814 On ch=3 n=c#6 v=53
792814 On ch=3 n=a5 v=53
793258 On ch=3 n=a5 v=0
793258 On ch=3 n=c#6 v=0
793258 On ch=3 n=c#6 v=52
793258 On ch=3 n=a5 v=52
793700 On ch=3 n=a5 v=0
793700 On ch=3 n=c#6 v=0
793700 On ch=3 n=d6 v=52
793700 On ch=3 n=a#5 v=52
794636 On ch=3 n=a#5 v=0
794636 On ch=3 n=d6 v=0
794636 On ch=3 n=c6 v=52
794636 On ch=3 n=g#5 v=52
795094 On ch=3 n=g#5 v=0
795094 On ch=3 n=c6 v=0
795094 On ch=3 n=c6 v=50
795094 On ch=3 n=g#5 v=50
795540 On ch=3 n=g#5 v=0
795540 On ch=3 n=c6 v=0
795540 On ch=3 n=d#6 v=51
795540 On ch=3 n=g5 v=51
796442 On ch=3 n=g5 v=0
796442 On ch=3 n=d#6 v=0
796442 On ch=3 n=d6 v=54
796442 On ch=3 n=g5 v=54
796882 On ch=3 n=g5 v=0
796882 On ch=3 n=d6 v=0
796882 On ch=3 n=d6 v=50
796882 On ch=3 n=g5 v=50
797314 On ch=3 n=g5 v=0
797314 On ch=3 n=d6 v=0
797314 On ch=3 n=c#6 v=54
797314 On ch=3 n=g5 v=54
798210 On ch=3 n=g5 v=0
798210 On ch=3 n=c#6 v=0
798210 On ch=3 n=c#6 v=50
798210 On ch=3 n=g5 v=50
799108 On ch=3 n=g5 v=0
799108 On ch=3 n=c#6 v=0
799108 On ch=3 n=c#6 v=50
799108 On ch=3 n=g#5 v=50
799332 On ch=3 n=c#6 v=0
799332 On ch=3 n=c6 v=50
800022 On ch=3 n=c6 v=0
800022 On ch=3 n=g#5 v=0
800022 On ch=3 n=a#5 v=52
800022 On ch=3 n=g5 v=52
800948 On ch=3 n=g5 v=0
800948 On ch=3 n=a#5 v=0
800948 On ch=3 n=c6 v=50
800948 On ch=3 n=g5 v=50
801864 On ch=3 n=g5 v=0
801864 On ch=3 n=c6 v=0
801864 On ch=3 n=g#5 v=46
801864 On ch=3 n=f5 v=46
802788 On ch=3 n=f5 v=0
802788 On ch=3 n=g#5 v=0
802788 On ch=3 n=g5 v=49
802788 On ch=3 n=e5 v=49
804582 On ch=3 n=e5 v=0
804582 On ch=3 n=g5 v=0
804582 On ch=3 n=e6 v=63
804582 On ch=3 n=c6 v=63
804582 On ch=3 n=g5 v=63
804582 On ch=3 n=e5 v=63
806400 On ch=3 n=e5 v=0
806400 On ch=3 n=g5 v=0
806400 On ch=3 n=c6 v=0
806400 On ch=3 n=e6 v=0
806400 On ch=3 n=d6 v=60
806400 On ch=3 n=b5 v=60
806400 On ch=3 n=g5 v=60
806400 On ch=3 n=f5 v=60
808264 On ch=3 n=f5 v=0
808264 On ch=3 n=b5 v=0
808264 On ch=3 n=d6 v=0
808264 On ch=3 n=c6 v=59
808264 On ch=3 n=e5 v=59
810154 On ch=3 n=e5 v=0
810154 On ch=3 n=c6 v=0
810154 On ch=3 n=g5 v=0
810154 On ch=3 n=c#6 v=68
810154 On ch=3 n=g#5 v=68
810154 On ch=3 n=c#5 v=68
811972 On ch=3 n=g#5 v=0
811972 On ch=3 n=c#6 v=0
811972 On ch=3 n=a#5 v=65
811972 On ch=3 n=g5 v=65
813798 On ch=3 n=g5 v=0
813798 On ch=3 n=a#5 v=0
813798 On ch=3 n=c#5 v=0
813798 On ch=3 n=d#5 v=60
813798 On ch=3 n=c5 v=60
815610 On ch=3 n=c5 v=0
815610 On ch=3 n=d#5 v=0
815610 On ch=3 n=c6 v=72
815610 On ch=3 n=g#5 v=72
817426 On ch=3 n=g#5 v=0
817426 On ch=3 n=c6 v=0
817426 On ch=3 n=c#6 v=67
817426 On ch=3 n=g5 v=67
817846 On ch=3 n=g5 v=0
817846 On ch=3 n=f5 v=71
818266 On ch=3 n=f5 v=0
818266 On ch=3 n=d#5 v=71
818700 On ch=3 n=d#5 v=0
818700 On ch=3 n=a#5 v=69
819140 On ch=3 n=a#5 v=0
819140 On ch=3 n=c#6 v=0
819140 On ch=3 n=d6 v=80
819140 On ch=3 n=b5 v=80
819564 On ch=3 n=b5 v=0
819564 On ch=3 n=d6 v=0
819564 On ch=3 n=a#6 v=80
819564 On ch=3 n=g6 v=80
819982 On ch=3 n=g6 v=0
819982 On ch=3 n=a#6 v=0
819982 On ch=3 n=g#6 v=80
819982 On ch=3 n=f6 v=80
820418 On ch=3 n=f6 v=0
820418 On ch=3 n=g#6 v=0
820418 On ch=3 n=f6 v=80
820418 On ch=3 n=b5 v=80
820872 On ch=3 n=b5 v=0
820872 On ch=3 n=f6 v=0
820872 On ch=3 n=d#6 v=73
820872 On ch=3 n=c6 v=73
822708 On ch=3 n=c6 v=0
822708 On ch=3 n=d#6 v=0
822708 On ch=3 n=a5 v=80
822708 On ch=3 n=e6 v=80
824078 On ch=3 n=e6 v=0
824078 On ch=3 n=a5 v=0
824078 On ch=3 n=e6 v=80
824078 On ch=3 n=b5 v=80
824496 On ch=3 n=b5 v=0
824496 On ch=3 n=e6 v=0
824496 On ch=3 n=e6 v=80
824496 On ch=3 n=b5 v=80
826306 On ch=3 n=b5 v=0
826306 On ch=3 n=a5 v=80
828128 On ch=3 n=e6 v=0
828128 On ch=3 n=f6 v=82
829060 On ch=3 n=f6 v=0
829060 On ch=3 n=a5 v=0
829060 On ch=3 n=d#6 v=83
829060 On ch=3 n=a5 v=83
829490 On ch=3 n=a5 v=0
829490 On ch=3 n=d#6 v=0
829490 On ch=3 n=d#6 v=80
829490 On ch=3 n=a5 v=80
829910 On ch=3 n=a5 v=0
829910 On ch=3 n=d#6 v=0
829910 On ch=3 n=d#6 v=80
829910 On ch=3 n=a5 v=80
830796 On ch=3 n=a5 v=0
830796 On ch=3 n=d#6 v=0
830796 On ch=3 n=d6 v=80
830796 On ch=3 n=a#5 v=80
831218 On ch=3 n=a#5 v=0
831218 On ch=3 n=d6 v=0
831218 On ch=3 n=d6 v=80
831218 On ch=3 n=a#5 v=80
831642 On ch=3 n=a#5 v=0
831642 On ch=3 n=d6 v=0
831642 On ch=3 n=f6 v=80
831642 On ch=3 n=a5 v=80
832496 On ch=3 n=a5 v=0
832496 On ch=3 n=f6 v=0
832496 On ch=3 n=d#6 v=80
832496 On ch=3 n=a5 v=80
832920 On ch=3 n=a5 v=0
832920 On ch=3 n=d#6 v=0
832920 On ch=3 n=d#6 v=80
832920 On ch=3 n=a5 v=80
833348 On ch=3 n=a5 v=0
833348 On ch=3 n=d#6 v=0
833348 On ch=3 n=d#6 v=80
833348 On ch=3 n=a5 v=80
834220 On ch=3 n=a5 v=0
834220 On ch=3 n=d#6 v=0
834220 On ch=3 n=d#6 v=80
834220 On ch=3 n=a5 v=80
835100 On ch=3 n=a5 v=0
835100 On ch=3 n=d#6 v=0
835100 On ch=3 n=d#6 v=78
835100 On ch=3 n=a5 v=78
835974 On ch=3 n=a5 v=0
835974 On ch=3 n=d#6 v=0
835974 On ch=3 n=d6 v=77
835974 On ch=3 n=a#5 v=77
836392 On ch=3 n=a#5 v=0
836392 On ch=3 n=d6 v=0
836392 On ch=3 n=d6 v=77
836392 On ch=3 n=a#5 v=77
836816 On ch=3 n=a#5 v=0
836816 On ch=3 n=d6 v=0
836816 On ch=3 n=d6 v=76
836816 On ch=3 n=b5 v=76
837678 On ch=3 n=b5 v=0
837678 On ch=3 n=d6 v=0
837678 On ch=3 n=c#6 v=68
837678 On ch=3 n=a5 v=68
838110 On ch=3 n=a5 v=0
838110 On ch=3 n=c#6 v=0
838110 On ch=3 n=c#6 v=61
838110 On ch=3 n=a5 v=61
838534 On ch=3 n=a5 v=0
838534 On ch=3 n=c#6 v=0
838534 On ch=3 n=e6 v=60
838534 On ch=3 n=g#5 v=60
839416 On ch=3 n=g#5 v=0
839416 On ch=3 n=e6 v=0
839416 On ch=3 n=d6 v=55
839416 On ch=3 n=g#5 v=55
839854 On ch=3 n=g#5 v=0
839854 On ch=3 n=d6 v=0
839854 On ch=3 n=d6 v=54
839854 On ch=3 n=g#5 v=54
840296 On ch=3 n=g#5 v=0
840296 On ch=3 n=d6 v=0
840296 On ch=3 n=d6 v=53
840296 On ch=3 n=g#5 v=53
841140 On ch=3 n=g#5 v=0
841140 On ch=3 n=d6 v=0
841140 On ch=3 n=c#6 v=57
841140 On ch=3 n=g#5 v=57
841552 On ch=3 n=g#5 v=0
841552 On ch=3 n=c#6 v=0
841552 On ch=3 n=c#6 v=58
841552 On ch=3 n=g#5 v=58
841972 On ch=3 n=g#5 v=0
841972 On ch=3 n=c#6 v=0
841972 On ch=3 n=c6 v=55
841972 On ch=3 n=g5 v=55
842846 On ch=3 n=g5 v=0
842846 On ch=3 n=c6 v=0
842846 On ch=3 n=a#5 v=54
842846 On ch=3 n=g5 v=54
843736 On ch=3 n=g5 v=0
843736 On ch=3 n=a#5 v=0
843736 On ch=3 n=c6 v=57
843736 On ch=3 n=g5 v=57
844600 On ch=3 n=g5 v=0
844600 On ch=3 n=c6 v=0
844600 On ch=3 n=g#5 v=55
844600 On ch=3 n=f5 v=55
845464 On ch=3 n=f5 v=0
845464 On ch=3 n=g#5 v=0
847218 On ch=3 n=g5 v=50
847218 On ch=3 n=c#5 v=50
848104 On ch=3 n=c#5 v=0
848104 On ch=3 n=g5 v=0
848104 On ch=3 n=g5 v=46
848104 On ch=3 n=c#5 v=46
848982 On ch=3 n=c#5 v=0
848982 On ch=3 n=g5 v=0
848982 On ch=3 n=g5 v=49
848982 On ch=3 n=c5 v=49
849876 On ch=3 n=c5 v=0
849876 On ch=3 n=g5 v=0
849876 On ch=3 n=g5 v=53
849876 On ch=3 n=c5 v=53
850760 On ch=3 n=c5 v=0
850760 On ch=3 n=g5 v=0
852626 On ch=3 n=g5 v=62
852626 On ch=3 n=c5 v=62
853512 On ch=3 n=c5 v=0
853512 On ch=3 n=g5 v=0
853512 On ch=3 n=g5 v=66
853512 On ch=3 n=c5 v=66
854378 On ch=3 n=c5 v=0
854378 On ch=3 n=g5 v=0
854378 On ch=3 n=f5 v=61
854378 On ch=3 n=c5 v=61
855250 On ch=3 n=c5 v=0
855250 On ch=3 n=f5 v=0
855250 On ch=3 n=f5 v=61
855250 On ch=3 n=c5 v=61
856128 On ch=3 n=c5 v=0
856128 On ch=3 n=f5 v=0
857914 On ch=3 n=d5 v=72
857914 On ch=3 n=c5 v=72
858782 On ch=3 n=c5 v=0
858782 On ch=3 n=d5 v=0
858782 On ch=3 n=d5 v=67
858782 On ch=3 n=c5 v=67
859656 On ch=3 n=c5 v=0
859656 On ch=3 n=d5 v=0
859656 On ch=3 n=f5 v=75
859656 On ch=3 n=d5 v=75
859656 On ch=3 n=b4 v=75
860514 On ch=3 n=b4 v=0
860514 On ch=3 n=d5 v=0
860514 On ch=3 n=f5 v=0
860514 On ch=3 n=f5 v=77
860514 On ch=3 n=d5 v=77
860514 On ch=3 n=b4 v=77
861384 On ch=3 n=b4 v=0
861384 On ch=3 n=d5 v=0
861384 On ch=3 n=f5 v=0
862292 On ch=3 n=d5 v=77
862292 On ch=3 n=b4 v=77
863182 On ch=3 n=b4 v=0
863182 On ch=3 n=d5 v=0
863182 On ch=3 n=f5 v=78
863182 On ch=3 n=d5 v=78
863182 On ch=3 n=b4 v=78
864054 On ch=3 n=b4 v=0
864054 On ch=3 n=d5 v=0
864054 On ch=3 n=f5 v=0
864054 On ch=3 n=f5 v=80
864054 On ch=3 n=d5 v=80
864054 On ch=3 n=b4 v=80
864920 On ch=3 n=b4 v=0
864920 On ch=3 n=d5 v=0
864920 On ch=3 n=f5 v=0
864920 On ch=3 n=f5 v=80
864920 On ch=3 n=d5 v=80
864920 On ch=3 n=b4 v=80
865794 On ch=3 n=b4 v=0
865794 On ch=3 n=d5 v=0
865794 On ch=3 n=f5 v=0
866668 On ch=3 n=d#5 v=80
866668 On ch=3 n=c5 v=80
866668 On ch=3 n=g4 v=80
867562 On ch=3 n=g4 v=0
867562 On ch=3 n=c5 v=0
867562 On ch=3 n=d#5 v=0
867562 On ch=3 n=d#5 v=80
867562 On ch=3 n=c5 v=80
867562 On ch=3 n=a#4 v=80
868452 On ch=3 n=a#4 v=0
868452 On ch=3 n=c5 v=0
868452 On ch=3 n=d#5 v=0
868452 On ch=3 n=d#5 v=81
868452 On ch=3 n=c5 v=81
868452 On ch=3 n=g#4 v=81
869356 On ch=3 n=g#4 v=0
869356 On ch=3 n=c5 v=0
869356 On ch=3 n=d#5 v=0
869356 On ch=3 n=d#5 v=81
869356 On ch=3 n=c5 v=81
869356 On ch=3 n=g#4 v=81
870238 On ch=3 n=g#4 v=0
870238 On ch=3 n=c5 v=0
870238 On ch=3 n=d#5 v=0
870238 On ch=3 n=f5 v=81
870238 On ch=3 n=b4 v=81
870238 On ch=3 n=g4 v=81
871116 On ch=3 n=g4 v=0
871116 On ch=3 n=b4 v=0
871116 On ch=3 n=f5 v=0
871116 On ch=3 n=f5 v=82
871116 On ch=3 n=b4 v=82
871116 On ch=3 n=g4 v=82
871976 On ch=3 n=g4 v=0
871976 On ch=3 n=b4 v=0
871976 On ch=3 n=f5 v=0
871976 On ch=3 n=d#5 v=82
871976 On ch=3 n=c5 v=82
871976 On ch=3 n=g4 v=82
872838 On ch=3 n=g4 v=0
872838 On ch=3 n=c5 v=0
872838 On ch=3 n=d#5 v=0
872838 On ch=3 n=d#5 v=82
872838 On ch=3 n=c5 v=82
872838 On ch=3 n=a#4 v=82
873714 On ch=3 n=a#4 v=0
873714 On ch=3 n=c5 v=0
873714 On ch=3 n=d#5 v=0
873714 On ch=3 n=d#5 v=82
873714 On ch=3 n=c5 v=82
873714 On ch=3 n=g#4 v=82
874620 On ch=3 n=g#4 v=0
874620 On ch=3 n=c5 v=0
874620 On ch=3 n=d#5 v=0
874620 On ch=3 n=d#5 v=82
874620 On ch=3 n=c5 v=82
874620 On ch=3 n=g#4 v=82
875490 On ch=3 n=g#4 v=0
875490 On ch=3 n=c5 v=0
875490 On ch=3 n=d#5 v=0
875490 On ch=3 n=d#5 v=82
875490 On ch=3 n=c5 v=82
875490 On ch=3 n=g4 v=82
876360 On ch=3 n=g4 v=0
876360 On ch=3 n=c5 v=0
876360 On ch=3 n=d#5 v=0
876360 On ch=3 n=d#5 v=82
876360 On ch=3 n=c5 v=82
876360 On ch=3 n=g4 v=82
877244 On ch=3 n=g4 v=0
877244 On ch=3 n=c5 v=0
877244 On ch=3 n=d#5 v=0
877244 On ch=3 n=d#5 v=80
877244 On ch=3 n=c5 v=80
877244 On ch=3 n=g4 v=80
878134 On ch=3 n=g4 v=0
878134 On ch=3 n=c5 v=0
878134 On ch=3 n=d#5 v=0
878134 On ch=3 n=d#5 v=80
878134 On ch=3 n=c5 v=80
878134 On ch=3 n=a#4 v=80
879050 On ch=3 n=a#4 v=0
879050 On ch=3 n=c5 v=0
879050 On ch=3 n=d#5 v=0
879050 On ch=3 n=d#5 v=82
879050 On ch=3 n=c5 v=82
879928 On ch=3 n=c5 v=0
879928 On ch=3 n=d#5 v=0
879928 On ch=3 n=d#5 v=80
879928 On ch=3 n=c5 v=80
880788 On ch=3 n=c5 v=0
880788 On ch=3 n=d#5 v=0
880788 On ch=3 n=d5 v=80
880788 On ch=3 n=b4 v=80
880788 On ch=3 n=g4 v=80
881674 On ch=3 n=g4 v=0
881674 On ch=3 n=b4 v=0
881674 On ch=3 n=d5 v=0
881674 On ch=3 n=d5 v=85
881674 On ch=3 n=b4 v=85
881674 On ch=3 n=g4 v=85
882538 On ch=3 n=g4 v=0
882538 On ch=3 n=b4 v=0
882538 On ch=3 n=d5 v=0
882538 On ch=3 n=c5 v=91
882538 On ch=3 n=g4 v=91
883386 On ch=3 n=g4 v=0
883386 On ch=3 n=c5 v=0
883386 On ch=3 n=c5 v=90
883386 On ch=3 n=a#4 v=90
884248 On ch=3 n=a#4 v=0
884248 On ch=3 n=c5 v=0
884248 On ch=3 n=d#5 v=90
884248 On ch=3 n=c5 v=90
884248 On ch=3 n=g#4 v=90
885118 On ch=3 n=g#4 v=0
885118 On ch=3 n=c5 v=0
885118 On ch=3 n=d#5 v=0
885118 On ch=3 n=d#5 v=88
885118 On ch=3 n=c5 v=88
885118 On ch=3 n=g#4 v=88
885976 On ch=3 n=g#4 v=0
885976 On ch=3 n=c5 v=0
885976 On ch=3 n=d#5 v=0
885976 On ch=3 n=d#5 v=85
885976 On ch=3 n=c5 v=85
885976 On ch=3 n=g4 v=85
886822 On ch=3 n=g4 v=0
886822 On ch=3 n=c5 v=0
886822 On ch=3 n=d#5 v=0
886822 On ch=3 n=d#5 v=86
886822 On ch=3 n=c5 v=86
886822 On ch=3 n=g4 v=86
887714 On ch=3 n=g4 v=0
887714 On ch=3 n=c5 v=0
887714 On ch=3 n=d#5 v=0
888554 On ch=3 n=g5 v=90
888554 On ch=3 n=c5 v=90
889412 On ch=3 n=c5 v=0
889412 On ch=3 n=g5 v=0
889412 On ch=3 n=g#5 v=90
889412 On ch=3 n=c5 v=90
890244 On ch=3 n=c5 v=0
890244 On ch=3 n=g#5 v=0
890244 On ch=3 n=f5 v=90
890244 On ch=3 n=c5 v=90
891116 On ch=3 n=c5 v=0
891116 On ch=3 n=f5 v=0
891116 On ch=3 n=f5 v=86
891116 On ch=3 n=a#4 v=86
891972 On ch=3 n=a#4 v=0
891972 On ch=3 n=f5 v=0
891972 On ch=3 n=f#5 v=86
891972 On ch=3 n=a#4 v=86
892840 On ch=3 n=a#4 v=0
892840 On ch=3 n=f#5 v=0
893688 On ch=3 n=g5 v=86
893688 On ch=3 n=a#4 v=86
894540 On ch=3 n=a#4 v=0
894540 On ch=3 n=g5 v=0
894540 On ch=3 n=g5 v=86
894540 On ch=3 n=a#4 v=86
895376 On ch=3 n=a#4 v=0
895376 On ch=3 n=g5 v=0
895376 On ch=3 n=d#5 v=86
895376 On ch=3 n=a#4 v=86
896230 On ch=3 n=a#4 v=0
896230 On ch=3 n=d#5 v=0
896230 On ch=3 n=d#5 v=86
896230 On ch=3 n=g#4 v=86
897112 On ch=3 n=g#4 v=0
897112 On ch=3 n=d#5 v=0
897112 On ch=3 n=e5 v=86
897112 On ch=3 n=g#4 v=86
897962 On ch=3 n=g#4 v=0
897962 On ch=3 n=e5 v=0
897962 On ch=3 n=g#4 v=86
897962 On ch=3 n=d5 v=86
897962 On ch=3 n=f5 v=86
898832 On ch=3 n=f5 v=0
898832 On ch=3 n=d5 v=0
898832 On ch=3 n=g#4 v=0
898832 On ch=3 n=f5 v=86
898832 On ch=3 n=d5 v=86
898832 On ch=3 n=g4 v=86
899650 On ch=3 n=g4 v=0
899650 On ch=3 n=d5 v=0
899650 On ch=3 n=f5 v=0
900506 On ch=3 n=d5 v=86
900506 On ch=3 n=b4 v=86
900506 On ch=3 n=g4 v=86
901352 On ch=3 n=g4 v=0
901352 On ch=3 n=b4 v=0
901352 On ch=3 n=d5 v=0
901352 On ch=3 n=c5 v=86
901352 On ch=3 n=g4 v=86
902206 On ch=3 n=g4 v=0
902206 On ch=3 n=c5 v=0
902206 On ch=3 n=f#5 v=86
902206 On ch=3 n=c5 v=86
902206 On ch=3 n=a4 v=86
903088 On ch=3 n=a4 v=0
903088 On ch=3 n=c5 v=0
903088 On ch=3 n=f#5 v=0
903088 On ch=3 n=f#5 v=77
903088 On ch=3 n=c5 v=77
903088 On ch=3 n=a4 v=77
903990 On ch=3 n=a4 v=0
903990 On ch=3 n=c5 v=0
903990 On ch=3 n=f#5 v=0
903990 On ch=3 n=f#5 v=77
903990 On ch=3 n=c5 v=77
903990 On ch=3 n=a4 v=77
904858 On ch=3 n=a4 v=0
904858 On ch=3 n=c5 v=0
904858 On ch=3 n=f#5 v=0
904858 On ch=3 n=f#5 v=73
904858 On ch=3 n=c5 v=73
905742 On ch=3 n=c5 v=0
905742 On ch=3 n=f#5 v=0
905742 On ch=3 n=f#5 v=73
905742 On ch=3 n=c5 v=73
906614 On ch=3 n=c5 v=0
906614 On ch=3 n=f#5 v=0
906614 On ch=3 n=b5 v=80
906614 On ch=3 n=f5 v=80
907500 On ch=3 n=f5 v=0
907500 On ch=3 n=b5 v=0
907500 On ch=3 n=b5 v=76
907500 On ch=3 n=g5 v=76
907500 On ch=3 n=f5 v=76
908362 On ch=3 n=f5 v=0
908362 On ch=3 n=g5 v=0
908362 On ch=3 n=b5 v=0
908362 On ch=3 n=g5 v=70
908362 On ch=3 n=d#5 v=70
909298 On ch=3 n=d#5 v=0
909298 On ch=3 n=g5 v=0
909298 On ch=3 n=g5 v=77
909298 On ch=3 n=d#5 v=77
909298 On ch=3 n=g4 v=77
910194 On ch=3 n=g4 v=0
910194 On ch=3 n=d#5 v=0
910194 On ch=3 n=g5 v=0
910194 On ch=3 n=g5 v=73
910194 On ch=3 n=c5 v=73
910194 On ch=3 n=g4 v=73
911108 On ch=3 n=g4 v=0
911108 On ch=3 n=c5 v=0
911108 On ch=3 n=g5 v=0
911108 On ch=3 n=g5 v=67
911108 On ch=3 n=c5 v=67
911108 On ch=3 n=g4 v=67
912004 On ch=3 n=g4 v=0
912004 On ch=3 n=c5 v=0
912004 On ch=3 n=g5 v=0
912004 On ch=3 n=g5 v=70
912004 On ch=3 n=f5 v=70
912004 On ch=3 n=b4 v=70
912004 On ch=3 n=g4 v=70
912884 On ch=3 n=g4 v=0
912884 On ch=3 n=b4 v=0
912884 On ch=3 n=f5 v=0
912884 On ch=3 n=g5 v=0
912884 On ch=3 n=g5 v=72
912884 On ch=3 n=f5 v=72
912884 On ch=3 n=b4 v=72
912884 On ch=3 n=g4 v=72
913772 On ch=3 n=g4 v=0
913772 On ch=3 n=b4 v=0
913772 On ch=3 n=f5 v=0
913772 On ch=3 n=g5 v=0
913772 On ch=3 n=g5 v=72
913772 On ch=3 n=d#5 v=72
913772 On ch=3 n=c5 v=72
913772 On ch=3 n=g4 v=72
914632 On ch=3 n=g4 v=0
914632 On ch=3 n=c5 v=0
914632 On ch=3 n=d#5 v=0
914632 On ch=3 n=g5 v=0
914632 On ch=3 n=g5 v=77
914632 On ch=3 n=d#5 v=77
914632 On ch=3 n=c5 v=77
914632 On ch=3 n=g4 v=77
915534 On ch=3 n=g4 v=0
915534 On ch=3 n=c5 v=0
915534 On ch=3 n=d#5 v=0
915534 On ch=3 n=g5 v=0
915534 On ch=3 n=g5 v=86
915534 On ch=3 n=d#5 v=86
915534 On ch=3 n=c5 v=86
915534 On ch=3 n=g4 v=86
916450 On ch=3 n=g4 v=0
916450 On ch=3 n=c5 v=0
916450 On ch=3 n=d#5 v=0
916450 On ch=3 n=g5 v=0
916450 On ch=3 n=g5 v=86
916450 On ch=3 n=d#5 v=86
916450 On ch=3 n=c5 v=86
916450 On ch=3 n=g4 v=86
917354 On ch=3 n=g4 v=0
917354 On ch=3 n=c5 v=0
917354 On ch=3 n=d#5 v=0
917354 On ch=3 n=g5 v=0
917354 On ch=3 n=g5 v=86
917354 On ch=3 n=d#5 v=86
917354 On ch=3 n=a#4 v=86
917354 On ch=3 n=g4 v=86
918272 On ch=3 n=g4 v=0
918272 On ch=3 n=a#4 v=0
918272 On ch=3 n=d#5 v=0
918272 On ch=3 n=g5 v=0
918272 On ch=3 n=g5 v=87
918272 On ch=3 n=d#5 v=87
918272 On ch=3 n=a#4 v=87
918272 On ch=3 n=g4 v=87
919128 On ch=3 n=g4 v=0
919128 On ch=3 n=a#4 v=0
919128 On ch=3 n=d#5 v=0
919128 On ch=3 n=g5 v=0
919128 On ch=3 n=a#5 v=87
919128 On ch=3 n=g5 v=87
919128 On ch=3 n=d#5 v=87
919128 On ch=3 n=a#4 v=87
920020 On ch=3 n=a#4 v=0
920020 On ch=3 n=d#5 v=0
920020 On ch=3 n=g5 v=0
920020 On ch=3 n=a#5 v=0
920020 On ch=3 n=a#5 v=89
920020 On ch=3 n=g5 v=89
920020 On ch=3 n=d#5 v=89
920020 On ch=3 n=a#4 v=89
920920 On ch=3 n=a#4 v=0
920920 On ch=3 n=d#5 v=0
920920 On ch=3 n=g5 v=0
920920 On ch=3 n=a#5 v=0
920920 On ch=3 n=a#5 v=89
920920 On ch=3 n=d#5 v=89
920920 On ch=3 n=a#4 v=89
921814 On ch=3 n=a#4 v=0
921814 On ch=3 n=d#5 v=0
921814 On ch=3 n=a#5 v=0
921814 On ch=3 n=a#5 v=89
921814 On ch=3 n=d#5 v=89
921814 On ch=3 n=a#4 v=89
922694 On ch=3 n=a#4 v=0
922694 On ch=3 n=d#5 v=0
922694 On ch=3 n=a#5 v=0
922694 On ch=3 n=a#5 v=90
922694 On ch=3 n=g#5 v=90
922694 On ch=3 n=d5 v=90
922694 On ch=3 n=a#4 v=90
923606 On ch=3 n=a#4 v=0
923606 On ch=3 n=d5 v=0
923606 On ch=3 n=g#5 v=0
923606 On ch=3 n=a#5 v=0
923606 On ch=3 n=a#5 v=90
923606 On ch=3 n=g#5 v=90
923606 On ch=3 n=d5 v=90
923606 On ch=3 n=a#4 v=90
924532 On ch=3 n=a#4 v=0
924532 On ch=3 n=d5 v=0
924532 On ch=3 n=g#5 v=0
924532 On ch=3 n=a#5 v=0
924532 On ch=3 n=a#5 v=97
924532 On ch=3 n=g5 v=97
924532 On ch=3 n=c#5 v=97
924532 On ch=3 n=a#4 v=97
925386 On ch=3 n=a#4 v=0
925386 On ch=3 n=c#5 v=0
925386 On ch=3 n=g5 v=0
925386 On ch=3 n=a#5 v=0
925386 On ch=3 n=a#5 v=90
925386 On ch=3 n=g5 v=90
925386 On ch=3 n=c#5 v=90
925386 On ch=3 n=a#4 v=90
926290 On ch=3 n=a#4 v=0
926290 On ch=3 n=c#5 v=0
926290 On ch=3 n=g5 v=0
926290 On ch=3 n=a#5 v=0
926290 On ch=3 n=a#5 v=99
926290 On ch=3 n=g5 v=99
926290 On ch=3 n=c#5 v=99
926290 On ch=3 n=a#4 v=99
927270 On ch=3 n=a#4 v=0
927270 On ch=3 n=c#5 v=0
927270 On ch=3 n=g5 v=0
927270 On ch=3 n=a#5 v=0
927270 On ch=3 n=a#5 v=91
927270 On ch=3 n=g5 v=91
927270 On ch=3 n=d#5 v=91
927270 On ch=3 n=c#5 v=91
928122 On ch=3 n=c#5 v=0
928122 On ch=3 n=d#5 v=0
928122 On ch=3 n=g5 v=0
928122 On ch=3 n=a#5 v=0
928122 On ch=3 n=b5 v=92
928122 On ch=3 n=g5 v=92
928122 On ch=3 n=d#5 v=92
928122 On ch=3 n=c#5 v=92
928992 On ch=3 n=c#5 v=0
928992 On ch=3 n=d#5 v=0
928992 On ch=3 n=g5 v=0
928992 On ch=3 n=b5 v=0
928992 On ch=3 n=b5 v=92
928992 On ch=3 n=g5 v=92
928992 On ch=3 n=d#5 v=92
928992 On ch=3 n=c#5 v=92
929914 On ch=3 n=c#5 v=0
929914 On ch=3 n=d#5 v=0
929914 On ch=3 n=g5 v=0
929914 On ch=3 n=b5 v=0
929914 On ch=3 n=f#5 v=93
929914 On ch=3 n=c5 v=93
930828 On ch=3 n=c5 v=0
930828 On ch=3 n=f#5 v=0
930828 On ch=3 n=f#5 v=93
930828 On ch=3 n=c5 v=93
931724 On ch=3 n=c5 v=0
931724 On ch=3 n=f#5 v=0
931724 On ch=3 n=f#5 v=93
931724 On ch=3 n=c5 v=93
932598 On ch=3 n=c5 v=0
932598 On ch=3 n=f#5 v=0
932598 On ch=3 n=f#5 v=94
932598 On ch=3 n=c5 v=94
933518 On ch=3 n=c5 v=0
933518 On ch=3 n=f#5 v=0
933518 On ch=3 n=f5 v=99
933518 On ch=3 n=c#5 v=99
934384 On ch=3 n=c#5 v=0
934384 On ch=3 n=f5 v=0
934384 On ch=3 n=f5 v=96
934384 On ch=3 n=c#5 v=96
935254 On ch=3 n=c#5 v=0
935254 On ch=3 n=f5 v=0
935254 On ch=3 n=f#5 v=98
935254 On ch=3 n=c5 v=98
936132 On ch=3 n=c5 v=0
936132 On ch=3 n=f#5 v=0
936132 On ch=3 n=f#5 v=96
936132 On ch=3 n=c5 v=96
937042 On ch=3 n=c5 v=0
937042 On ch=3 n=f#5 v=0
937042 On ch=3 n=f5 v=97
937042 On ch=3 n=c#5 v=97
937916 On ch=3 n=c#5 v=0
937916 On ch=3 n=f5 v=0
937916 On ch=3 n=f5 v=101
937916 On ch=3 n=c#5 v=101
938748 On ch=3 n=c#5 v=0
938748 On ch=3 n=f5 v=0
938748 On ch=3 n=f#5 v=99
938748 On ch=3 n=c5 v=99
939588 On ch=3 n=c5 v=0
939588 On ch=3 n=f#5 v=0
939588 On ch=3 n=f#5 v=98
939588 On ch=3 n=c5 v=98
940504 On ch=3 n=c5 v=0
940504 On ch=3 n=f#5 v=0
940504 Meta TrkEnd
TrkEnd
MTrk
0 SeqSpec 43 00 01 00
0 Meta TrkName "4Melodie main gauche"
6 PrCh ch=4 p=0
6 Par ch=4 c=10 v=45
6 Par ch=4 c=91 v=70
6 Par ch=4 c=7 v=120
12592 On ch=4 n=c3 v=43
13622 On ch=4 n=c3 v=0
14150 On ch=4 n=g3 v=48
14646 On ch=4 n=g3 v=0
14646 On ch=4 n=d#4 v=55
17760 On ch=4 n=d#4 v=0
17760 On ch=4 n=d4 v=60
18762 On ch=4 n=d4 v=0
18762 On ch=4 n=d4 v=56
19260 On ch=4 n=d4 v=0
19260 On ch=4 n=c4 v=54
19754 On ch=4 n=c4 v=0
19754 On ch=4 n=b3 v=55
20246 On ch=4 n=b3 v=0
20246 On ch=4 n=c4 v=62
20742 On ch=4 n=c4 v=0
20742 On ch=4 n=g3 v=57
24930 On ch=4 n=g3 v=0
24930 On ch=4 n=d#4 v=51
26480 On ch=4 n=d#4 v=0
26480 On ch=4 n=c4 v=48
26990 On ch=4 n=c4 v=0
26990 On ch=4 n=g4 v=51
30146 On ch=4 n=g4 v=0
30146 On ch=4 n=f4 v=54
31168 On ch=4 n=f4 v=0
31168 On ch=4 n=f4 v=49
31662 On ch=4 n=f4 v=0
31662 On ch=4 n=d#4 v=51
32168 On ch=4 n=d#4 v=0
32168 On ch=4 n=d4 v=47
32666 On ch=4 n=d4 v=0
32666 On ch=4 n=d#4 v=44
33138 On ch=4 n=d#4 v=0
33138 On ch=4 n=c4 v=51
37158 On ch=4 n=c4 v=0
37158 On ch=4 n=d#5 v=55
39190 On ch=4 n=d#5 v=0
39190 On ch=4 n=d#4 v=51
42140 On ch=4 n=d#4 v=0
42140 On ch=4 n=d4 v=51
43132 On ch=4 n=d4 v=0
43132 On ch=4 n=d5 v=53
45058 On ch=4 n=d5 v=0
45058 On ch=4 n=d4 v=53
48048 On ch=4 n=d4 v=0
48048 On ch=4 n=c#4 v=54
49030 On ch=4 n=c#4 v=0
49030 On ch=4 n=c4 v=54
50472 On ch=4 n=c4 v=0
50472 On ch=4 n=b3 v=56
50986 On ch=4 n=b3 v=0
50986 On ch=4 n=f4 v=63
53004 On ch=4 n=f4 v=0
53004 On ch=4 n=d#4 v=69
54978 On ch=4 n=d#4 v=0
54978 On ch=4 n=d#4 v=62
55948 On ch=4 n=d#4 v=0
55948 On ch=4 n=d4 v=55
56952 On ch=4 n=d4 v=0
59946 On ch=4 n=g3 v=51
60922 On ch=4 n=g3 v=0
60922 On ch=4 n=c3 v=51
61920 On ch=4 n=c3 v=0
62410 On ch=4 n=g3 v=53
62884 On ch=4 n=g3 v=0
62884 On ch=4 n=d#4 v=60
65816 On ch=4 n=d#4 v=0
65816 On ch=4 n=d4 v=62
66824 On ch=4 n=d4 v=0
66824 On ch=4 n=d4 v=67
67282 On ch=4 n=d4 v=0
67282 On ch=4 n=c4 v=63
67762 On ch=4 n=c4 v=0
67762 On ch=4 n=b3 v=57
68248 On ch=4 n=b3 v=0
68248 On ch=4 n=c4 v=62
68748 On ch=4 n=c4 v=0
68748 On ch=4 n=g3 v=69
70708 On ch=4 n=g3 v=0
70708 On ch=4 n=a#3 v=62
72648 On ch=4 n=a#3 v=0
72648 On ch=4 n=d#3 v=69
73600 On ch=4 n=d#3 v=0
74094 On ch=4 n=a#3 v=69
74550 On ch=4 n=a#3 v=0
74550 On ch=4 n=g4 v=69
77554 On ch=4 n=g4 v=0
77554 On ch=4 n=f4 v=69
78540 On ch=4 n=f4 v=0
78540 On ch=4 n=f4 v=69
79006 On ch=4 n=f4 v=0
79006 On ch=4 n=d#4 v=69
79480 On ch=4 n=d#4 v=0
79480 On ch=4 n=d4 v=69
79956 On ch=4 n=d4 v=0
79956 On ch=4 n=d#4 v=69
80456 On ch=4 n=d#4 v=0
80456 On ch=4 n=d#3 v=69
84424 On ch=4 n=d#3 v=0
84424 On ch=4 n=g#4 v=55
86372 On ch=4 n=g#4 v=0
86372 On ch=4 n=g#3 v=48
89332 On ch=4 n=g#3 v=0
89332 On ch=4 n=g#3 v=48
90332 On ch=4 n=g#3 v=0
90332 On ch=4 n=g#4 v=47
92306 On ch=4 n=g#4 v=0
92306 On ch=4 n=g3 v=45
95332 On ch=4 n=g3 v=0
95332 On ch=4 n=g3 v=42
96320 On ch=4 n=g3 v=0
96320 On ch=4 n=g4 v=44
98320 On ch=4 n=g4 v=0
98320 On ch=4 n=f4 v=44
99300 On ch=4 n=f4 v=0
99300 On ch=4 n=d#4 v=46
100302 On ch=4 n=d#4 v=0
100302 On ch=4 n=f4 v=44
101288 On ch=4 n=f4 v=0
101288 On ch=4 n=c4 v=40
102300 On ch=4 n=c4 v=0
103312 On ch=4 n=g3 v=44
104312 On ch=4 n=g3 v=0
104312 On ch=4 n=d4 v=46
106334 On ch=4 n=d4 v=0
106334 On ch=4 n=c4 v=44
107266 On ch=4 n=c4 v=0
108280 On ch=4 n=c3 v=69
109238 On ch=4 n=c3 v=0
109716 On ch=4 n=g3 v=69
110226 On ch=4 n=g3 v=0
110226 On ch=4 n=d#4 v=76
113234 On ch=4 n=d#4 v=0
113234 On ch=4 n=d4 v=72
114270 On ch=4 n=d4 v=0
114270 On ch=4 n=d4 v=76
114756 On ch=4 n=d4 v=0
114756 On ch=4 n=c4 v=76
115224 On ch=4 n=c4 v=0
115224 On ch=4 n=b3 v=72
115712 On ch=4 n=b3 v=0
115712 On ch=4 n=c4 v=69
116186 On ch=4 n=c4 v=0
116186 On ch=4 n=g3 v=69
120176 On ch=4 n=g3 v=0
120176 On ch=4 n=d#4 v=69
121648 On ch=4 n=d#4 v=0
121648 On ch=4 n=c4 v=74
122120 On ch=4 n=c4 v=0
122120 On ch=4 n=g4 v=79
125166 On ch=4 n=g4 v=0
125166 On ch=4 n=f4 v=74
126166 On ch=4 n=f4 v=0
126166 On ch=4 n=f4 v=84
126672 On ch=4 n=f4 v=0
126672 On ch=4 n=d#4 v=69
127090 On ch=4 n=d#4 v=0
127090 On ch=4 n=d4 v=69
127582 On ch=4 n=d4 v=0
127582 On ch=4 n=d#4 v=71
128058 On ch=4 n=d#4 v=0
128058 On ch=4 n=c4 v=76
132032 On ch=4 n=c4 v=0
132032 On ch=4 n=d#5 v=76
133962 On ch=4 n=d#5 v=0
133962 On ch=4 n=d#4 v=76
136798 On ch=4 n=d#4 v=0
136798 On ch=4 n=d4 v=69
137782 On ch=4 n=d4 v=0
137782 On ch=4 n=d5 v=69
139704 On ch=4 n=d5 v=0
139704 On ch=4 n=d4 v=69
142584 On ch=4 n=d4 v=0
142584 On ch=4 n=c#4 v=69
143572 On ch=4 n=c#4 v=0
143572 On ch=4 n=c4 v=69
145102 On ch=4 n=c4 v=0
145102 On ch=4 n=b3 v=69
145558 On ch=4 n=b3 v=0
145558 On ch=4 n=f4 v=69
147568 On ch=4 n=f4 v=0
147568 On ch=4 n=d#4 v=69
149584 On ch=4 n=d#4 v=0
149584 On ch=4 n=d#4 v=69
150576 On ch=4 n=d#4 v=0
150576 On ch=4 n=d4 v=69
151564 On ch=4 n=d4 v=0
154482 On ch=4 n=g3 v=54
155484 On ch=4 n=g3 v=0
155484 On ch=4 n=c3 v=44
156480 On ch=4 n=c3 v=0
156986 On ch=4 n=g3 v=48
157482 On ch=4 n=g3 v=0
157482 On ch=4 n=d#4 v=47
160498 On ch=4 n=d#4 v=0
160498 On ch=4 n=d4 v=67
161488 On ch=4 n=d4 v=0
161488 On ch=4 n=d4 v=65
161980 On ch=4 n=d4 v=0
161980 On ch=4 n=c4 v=63
162452 On ch=4 n=c4 v=0
162452 On ch=4 n=b3 v=65
162912 On ch=4 n=b3 v=0
162912 On ch=4 n=c4 v=68
163368 On ch=4 n=c4 v=0
163368 On ch=4 n=g3 v=69
165286 On ch=4 n=g3 v=0
165286 On ch=4 n=a#3 v=69
167236 On ch=4 n=a#3 v=0
167236 On ch=4 n=d#3 v=69
168232 On ch=4 n=d#3 v=0
168728 On ch=4 n=a#3 v=76
169216 On ch=4 n=a#3 v=0
169216 On ch=4 n=g4 v=84
172206 On ch=4 n=g4 v=0
172206 On ch=4 n=f4 v=76
173212 On ch=4 n=f4 v=0
173212 On ch=4 n=f4 v=80
173670 On ch=4 n=f4 v=0
173670 On ch=4 n=d#4 v=72
174124 On ch=4 n=d#4 v=0
174124 On ch=4 n=d4 v=69
174572 On ch=4 n=d4 v=0
174572 On ch=4 n=d#4 v=69
175048 On ch=4 n=d#4 v=0
175048 On ch=4 n=d#3 v=69
178928 On ch=4 n=d#3 v=0
178928 On ch=4 n=g#4 v=57
180890 On ch=4 n=g#4 v=0
180890 On ch=4 n=g#3 v=53
183798 On ch=4 n=g#3 v=0
183798 On ch=4 n=g#3 v=48
184788 On ch=4 n=g#3 v=0
184788 On ch=4 n=g#4 v=48
186746 On ch=4 n=g#4 v=0
186746 On ch=4 n=g3 v=48
189682 On ch=4 n=g3 v=0
189682 On ch=4 n=g3 v=45
190636 On ch=4 n=g3 v=0
190636 On ch=4 n=g4 v=47
192624 On ch=4 n=g4 v=0
192624 On ch=4 n=f4 v=48
193634 On ch=4 n=f4 v=0
193634 On ch=4 n=d#4 v=50
194630 On ch=4 n=d#4 v=0
194630 On ch=4 n=f4 v=50
195644 On ch=4 n=f4 v=0
195644 On ch=4 n=c4 v=47
196620 On ch=4 n=c4 v=0
197568 On ch=4 n=g3 v=51
198552 On ch=4 n=g3 v=0
198552 On ch=4 n=d4 v=77
200562 On ch=4 n=d4 v=0
200562 On ch=4 n=c4 v=75
201500 On ch=4 n=c4 v=0
208430 On ch=4 n=g4 v=69
208430 On ch=4 n=g3 v=69
209576 On ch=4 n=g3 v=0
209576 On ch=4 n=g4 v=0
209576 On ch=4 n=g#5 v=58
209576 On ch=4 n=d5 v=58
210548 On ch=4 n=d5 v=0
210548 On ch=4 n=g#5 v=0
210548 On ch=4 n=g4 v=55
211562 On ch=4 n=g4 v=0
211562 On ch=4 n=g#5 v=56
211562 On ch=4 n=d5 v=56
212552 On ch=4 n=d5 v=0
212552 On ch=4 n=g#5 v=0
212552 On ch=4 n=g4 v=61
213532 On ch=4 n=g4 v=0
213532 On ch=4 n=g#5 v=68
213532 On ch=4 n=d5 v=68
214578 On ch=4 n=d5 v=0
214578 On ch=4 n=g#5 v=0
220702 On ch=4 n=g4 v=56
220702 On ch=4 n=g3 v=56
221742 On ch=4 n=g3 v=0
221742 On ch=4 n=g4 v=0
221742 On ch=4 n=g#5 v=63
221742 On ch=4 n=d5 v=63
222724 On ch=4 n=d5 v=0
222724 On ch=4 n=g#5 v=0
222724 On ch=4 n=g4 v=61
223766 On ch=4 n=g4 v=0
223766 On ch=4 n=g#5 v=59
223766 On ch=4 n=d5 v=59
224734 On ch=4 n=d5 v=0
224734 On ch=4 n=g#5 v=0
224734 On ch=4 n=g4 v=64
225788 On ch=4 n=g4 v=0
225788 On ch=4 n=g#5 v=60
225788 On ch=4 n=d5 v=60
226774 On ch=4 n=d5 v=0
226774 On ch=4 n=g#5 v=0
226774 On ch=4 n=g4 v=62
227800 On ch=4 n=g4 v=0
227800 On ch=4 n=a#5 v=63
227800 On ch=4 n=e5 v=63
227800 On ch=4 n=c#5 v=63
228802 On ch=4 n=c#5 v=0
228802 On ch=4 n=e5 v=0
228802 On ch=4 n=a#5 v=0
228802 On ch=4 n=g4 v=68
229818 On ch=4 n=g4 v=0
229818 On ch=4 n=a#5 v=66
229818 On ch=4 n=e5 v=66
229818 On ch=4 n=c#5 v=66
230794 On ch=4 n=c#5 v=0
230794 On ch=4 n=e5 v=0
230794 On ch=4 n=a#5 v=0
230794 On ch=4 n=g4 v=81
231802 On ch=4 n=g4 v=0
231802 On ch=4 n=a#5 v=81
231802 On ch=4 n=e5 v=81
231802 On ch=4 n=c#5 v=81
232784 On ch=4 n=c#5 v=0
232784 On ch=4 n=e5 v=0
232784 On ch=4 n=a#5 v=0
232784 On ch=4 n=g4 v=81
233756 On ch=4 n=g4 v=0
233756 On ch=4 n=c6 v=82
233756 On ch=4 n=f#5 v=82
233756 On ch=4 n=d#5 v=82
234758 On ch=4 n=d#5 v=0
234758 On ch=4 n=f#5 v=0
234758 On ch=4 n=c6 v=0
234758 On ch=4 n=g4 v=82
235756 On ch=4 n=g4 v=0
235756 On ch=4 n=c6 v=82
235756 On ch=4 n=f#5 v=82
235756 On ch=4 n=d#5 v=82
236748 On ch=4 n=d#5 v=0
236748 On ch=4 n=f#5 v=0
236748 On ch=4 n=c6 v=0
236748 On ch=4 n=g4 v=88
237718 On ch=4 n=g4 v=0
237718 On ch=4 n=d#6 v=87
237718 On ch=4 n=f#5 v=87
237718 On ch=4 n=d#5 v=87
238702 On ch=4 n=d#5 v=0
238702 On ch=4 n=f#5 v=0
238702 On ch=4 n=d#6 v=0
238702 On ch=4 n=g4 v=92
239668 On ch=4 n=g4 v=0
239668 On ch=4 n=d#6 v=89
239668 On ch=4 n=f#5 v=89
239668 On ch=4 n=d#5 v=89
240638 On ch=4 n=d#5 v=0
240638 On ch=4 n=f#5 v=0
240638 On ch=4 n=d#6 v=0
240638 On ch=4 n=g4 v=91
241610 On ch=4 n=g4 v=0
241610 On ch=4 n=d#6 v=89
241610 On ch=4 n=f#5 v=89
241610 On ch=4 n=d#5 v=89
242570 On ch=4 n=d#5 v=0
242570 On ch=4 n=f#5 v=0
242570 On ch=4 n=d#6 v=0
242570 On ch=4 n=g4 v=96
243538 On ch=4 n=g4 v=0
243538 On ch=4 n=d#6 v=92
243538 On ch=4 n=f#5 v=92
243538 On ch=4 n=d#5 v=92
244500 On ch=4 n=d#5 v=0
244500 On ch=4 n=f#5 v=0
244500 On ch=4 n=d#6 v=0
309340 On ch=4 n=d3 v=36
309908 On ch=4 n=d3 v=0
309908 On ch=4 n=g4 v=56
309908 On ch=4 n=g3 v=56
310412 On ch=4 n=g3 v=0
310412 On ch=4 n=g4 v=0
310412 On ch=4 n=c5 v=56
310926 On ch=4 n=c5 v=0
310926 On ch=4 n=b4 v=47
311424 On ch=4 n=b4 v=0
311424 On ch=4 n=d4 v=68
311424 On ch=4 n=d3 v=68
311912 On ch=4 n=d3 v=0
311912 On ch=4 n=d4 v=0
311912 On ch=4 n=g4 v=73
311912 On ch=4 n=g3 v=73
312408 On ch=4 n=g3 v=0
312408 On ch=4 n=g4 v=0
312408 On ch=4 n=c5 v=69
312916 On ch=4 n=c5 v=0
312916 On ch=4 n=b4 v=73
313402 On ch=4 n=b4 v=0
313402 On ch=4 n=d4 v=66
313402 On ch=4 n=d3 v=66
313890 On ch=4 n=d3 v=0
313890 On ch=4 n=d4 v=0
313890 On ch=4 n=g4 v=73
313890 On ch=4 n=g3 v=73
314376 On ch=4 n=g3 v=0
314376 On ch=4 n=g4 v=0
314376 On ch=4 n=c5 v=73
314866 On ch=4 n=c5 v=0
314866 On ch=4 n=b4 v=73
315360 On ch=4 n=b4 v=0
315360 On ch=4 n=d4 v=73
315360 On ch=4 n=d3 v=73
315838 On ch=4 n=d3 v=0
315838 On ch=4 n=d4 v=0
315838 On ch=4 n=g4 v=73
315838 On ch=4 n=g3 v=73
316312 On ch=4 n=g3 v=0
316312 On ch=4 n=g4 v=0
316312 On ch=4 n=c5 v=73
316800 On ch=4 n=c5 v=0
316800 On ch=4 n=b4 v=73
317284 On ch=4 n=b4 v=0
317284 On ch=4 n=d4 v=73
317770 On ch=4 n=d4 v=0
317770 On ch=4 n=g4 v=73
318234 On ch=4 n=g4 v=0
318234 On ch=4 n=c5 v=73
318704 On ch=4 n=c5 v=0
318704 On ch=4 n=b4 v=73
319190 On ch=4 n=b4 v=0
319190 On ch=4 n=d4 v=74
319190 On ch=4 n=d3 v=74
319640 On ch=4 n=d3 v=0
319640 On ch=4 n=d4 v=0
319640 On ch=4 n=g4 v=78
319640 On ch=4 n=g3 v=78
320090 On ch=4 n=g3 v=0
320090 On ch=4 n=g4 v=0
320090 On ch=4 n=c5 v=80
320566 On ch=4 n=c5 v=0
320566 On ch=4 n=b4 v=84
321038 On ch=4 n=b4 v=0
321038 On ch=4 n=d4 v=95
321038 On ch=4 n=d3 v=95
321450 On ch=4 n=d3 v=0
321450 On ch=4 n=d4 v=0
321450 On ch=4 n=g4 v=88
321450 On ch=4 n=g3 v=88
321910 On ch=4 n=g3 v=0
321910 On ch=4 n=g4 v=0
321910 On ch=4 n=f#4 v=88
322388 On ch=4 n=f#4 v=0
322388 On ch=4 n=g4 v=88
322834 On ch=4 n=g4 v=0
322834 On ch=4 n=f#4 v=88
322834 On ch=4 n=f#3 v=88
323280 On ch=4 n=f#3 v=0
323280 On ch=4 n=f#4 v=0
323280 On ch=4 n=f4 v=93
323280 On ch=4 n=f3 v=93
323714 On ch=4 n=f3 v=0
323714 On ch=4 n=f4 v=0
323714 On ch=4 n=e4 v=88
323714 On ch=4 n=e3 v=88
324162 On ch=4 n=e3 v=0
324162 On ch=4 n=e4 v=0
324162 On ch=4 n=f4 v=89
324162 On ch=4 n=f3 v=89
324598 On ch=4 n=f3 v=0
324598 On ch=4 n=f4 v=0
324598 On ch=4 n=e4 v=88
324598 On ch=4 n=e3 v=88
325048 On ch=4 n=e3 v=0
325048 On ch=4 n=e4 v=0
325048 On ch=4 n=d#4 v=85
325048 On ch=4 n=d#3 v=85
325506 On ch=4 n=d#3 v=0
325506 On ch=4 n=d#4 v=0
325506 On ch=4 n=d4 v=88
325506 On ch=4 n=d3 v=88
325894 On ch=4 n=d3 v=0
325894 On ch=4 n=d4 v=0
325894 On ch=4 n=d#4 v=79
325894 On ch=4 n=d#3 v=79
326338 On ch=4 n=d#3 v=0
326338 On ch=4 n=d#4 v=0
326338 On ch=4 n=d4 v=80
326338 On ch=4 n=d3 v=80
326798 On ch=4 n=d3 v=0
326798 On ch=4 n=d4 v=0
326798 On ch=4 n=c3 v=101
326798 On ch=4 n=c4 v=101
327706 On ch=4 n=c4 v=0
327706 On ch=4 n=c3 v=0
328176 On ch=4 n=g3 v=63
328612 On ch=4 n=g3 v=0
328612 On ch=4 n=d#4 v=67
331306 On ch=4 n=d#4 v=0
331306 On ch=4 n=d4 v=77
332274 On ch=4 n=d4 v=0
332274 On ch=4 n=d4 v=70
332714 On ch=4 n=d4 v=0
332714 On ch=4 n=c4 v=71
333156 On ch=4 n=c4 v=0
333156 On ch=4 n=b3 v=68
333598 On ch=4 n=b3 v=0
333598 On ch=4 n=c4 v=67
334056 On ch=4 n=c4 v=0
334056 On ch=4 n=g3 v=67
337740 On ch=4 n=g3 v=0
337740 On ch=4 n=d#4 v=76
339132 On ch=4 n=d#4 v=0
339132 On ch=4 n=c4 v=76
339610 On ch=4 n=c4 v=0
339610 On ch=4 n=g4 v=85
342410 On ch=4 n=g4 v=0
342410 On ch=4 n=f4 v=80
343356 On ch=4 n=f4 v=0
343356 On ch=4 n=f4 v=85
343780 On ch=4 n=f4 v=0
343780 On ch=4 n=d#4 v=81
344224 On ch=4 n=d#4 v=0
344224 On ch=4 n=d4 v=78
344664 On ch=4 n=d4 v=0
344664 On ch=4 n=d#4 v=85
345124 On ch=4 n=d#4 v=0
345124 On ch=4 n=c4 v=88
348866 On ch=4 n=c4 v=0
348866 On ch=4 n=d#5 v=85
350632 On ch=4 n=d#5 v=0
350632 On ch=4 n=d#4 v=80
353366 On ch=4 n=d#4 v=0
353366 On ch=4 n=d4 v=70
354286 On ch=4 n=d4 v=0
354286 On ch=4 n=d5 v=71
356144 On ch=4 n=d5 v=0
356144 On ch=4 n=d4 v=70
358936 On ch=4 n=d4 v=0
358936 On ch=4 n=c#4 v=70
359884 On ch=4 n=c#4 v=0
359884 On ch=4 n=c4 v=70
361300 On ch=4 n=c4 v=0
361300 On ch=4 n=b3 v=62
361746 On ch=4 n=b3 v=0
361746 On ch=4 n=f4 v=70
363576 On ch=4 n=f4 v=0
363576 On ch=4 n=d#4 v=70
365444 On ch=4 n=d#4 v=0
365444 On ch=4 n=d#4 v=70
366346 On ch=4 n=d#4 v=0
366346 On ch=4 n=d4 v=70
367244 On ch=4 n=d4 v=0
370056 On ch=4 n=g3 v=54
370952 On ch=4 n=g3 v=0
370952 On ch=4 n=c3 v=54
371866 On ch=4 n=c3 v=0
372342 On ch=4 n=g3 v=70
372798 On ch=4 n=g3 v=0
372798 On ch=4 n=d#4 v=70
375556 On ch=4 n=d#4 v=0
375556 On ch=4 n=d4 v=70
376478 On ch=4 n=d4 v=0
376478 On ch=4 n=d4 v=70
376918 On ch=4 n=d4 v=0
376918 On ch=4 n=c4 v=70
377362 On ch=4 n=c4 v=0
377810 On ch=4 n=c4 v=70
378240 On ch=4 n=c4 v=0
378240 On ch=4 n=g3 v=73
380106 On ch=4 n=g3 v=0
380106 On ch=4 n=a#3 v=76
381924 On ch=4 n=a#3 v=0
381924 On ch=4 n=d#3 v=78
382844 On ch=4 n=d#3 v=0
383286 On ch=4 n=a#3 v=76
383702 On ch=4 n=a#3 v=0
383702 On ch=4 n=g4 v=78
386396 On ch=4 n=g4 v=0
386396 On ch=4 n=f4 v=74
387332 On ch=4 n=f4 v=0
387332 On ch=4 n=f4 v=77
387770 On ch=4 n=f4 v=0
387770 On ch=4 n=d#4 v=76
388212 On ch=4 n=d#4 v=0
388212 On ch=4 n=d4 v=74
388658 On ch=4 n=d4 v=0
388658 On ch=4 n=d#4 v=74
389132 On ch=4 n=d#4 v=0
389132 On ch=4 n=d#3 v=77
392744 On ch=4 n=d#3 v=0
392744 On ch=4 n=g#4 v=74
394634 On ch=4 n=g#4 v=0
394634 On ch=4 n=g#3 v=70
397316 On ch=4 n=g#3 v=0
397316 On ch=4 n=g#3 v=72
398230 On ch=4 n=g#3 v=0
398230 On ch=4 n=g#4 v=65
400100 On ch=4 n=g#4 v=0
400100 On ch=4 n=g3 v=61
402736 On ch=4 n=g3 v=0
402736 On ch=4 n=g3 v=57
403594 On ch=4 n=g3 v=0
403594 On ch=4 n=g4 v=58
405430 On ch=4 n=g4 v=0
405430 On ch=4 n=f4 v=55
406360 On ch=4 n=f4 v=0
406360 On ch=4 n=d#4 v=51
407302 On ch=4 n=d#4 v=0
407302 On ch=4 n=f4 v=53
408202 On ch=4 n=f4 v=0
408202 On ch=4 n=c4 v=50
409092 On ch=4 n=c4 v=0
410054 On ch=4 n=g3 v=48
410966 On ch=4 n=g3 v=0
410966 On ch=4 n=d4 v=50
412816 On ch=4 n=d4 v=0
412816 On ch=4 n=c4 v=53
413690 On ch=4 n=c4 v=0
420130 On ch=4 n=g4 v=85
420130 On ch=4 n=g3 v=85
421138 On ch=4 n=g3 v=0
421138 On ch=4 n=g4 v=0
421138 On ch=4 n=g#5 v=78
421138 On ch=4 n=d5 v=78
422052 On ch=4 n=d5 v=0
422052 On ch=4 n=g#5 v=0
422052 On ch=4 n=g4 v=73
422996 On ch=4 n=g4 v=0
422996 On ch=4 n=g#5 v=72
422996 On ch=4 n=d5 v=72
423902 On ch=4 n=d5 v=0
423902 On ch=4 n=g#5 v=0
423902 On ch=4 n=g4 v=71
424842 On ch=4 n=g4 v=0
424842 On ch=4 n=g#5 v=71
424842 On ch=4 n=d5 v=71
425780 On ch=4 n=d5 v=0
425780 On ch=4 n=g#5 v=0
431356 On ch=4 n=g4 v=73
431356 On ch=4 n=g3 v=73
432352 On ch=4 n=g3 v=0
432352 On ch=4 n=g4 v=0
432352 On ch=4 n=g#5 v=74
432352 On ch=4 n=d5 v=74
433298 On ch=4 n=d5 v=0
433298 On ch=4 n=g#5 v=0
433298 On ch=4 n=g4 v=73
434210 On ch=4 n=g4 v=0
434210 On ch=4 n=g#5 v=74
434210 On ch=4 n=d5 v=74
435144 On ch=4 n=d5 v=0
435144 On ch=4 n=g#5 v=0
435144 On ch=4 n=g4 v=74
436076 On ch=4 n=g4 v=0
436076 On ch=4 n=g#5 v=74
436076 On ch=4 n=d5 v=74
436998 On ch=4 n=d5 v=0
436998 On ch=4 n=g#5 v=0
436998 On ch=4 n=g4 v=76
437916 On ch=4 n=g4 v=0
437916 On ch=4 n=a#5 v=69
437916 On ch=4 n=e5 v=69
437916 On ch=4 n=c#5 v=69
438826 On ch=4 n=c#5 v=0
438826 On ch=4 n=e5 v=0
438826 On ch=4 n=a#5 v=0
438826 On ch=4 n=g4 v=66
439758 On ch=4 n=g4 v=0
439758 On ch=4 n=a#5 v=67
439758 On ch=4 n=e5 v=67
439758 On ch=4 n=c#5 v=67
440664 On ch=4 n=c#5 v=0
440664 On ch=4 n=e5 v=0
440664 On ch=4 n=a#5 v=0
440664 On ch=4 n=g4 v=66
441568 On ch=4 n=g4 v=0
441568 On ch=4 n=a#5 v=76
441568 On ch=4 n=e5 v=76
441568 On ch=4 n=c#5 v=76
442474 On ch=4 n=c#5 v=0
442474 On ch=4 n=e5 v=0
442474 On ch=4 n=a#5 v=0
442474 On ch=4 n=g4 v=75
443372 On ch=4 n=g4 v=0
443372 On ch=4 n=c6 v=89
443372 On ch=4 n=f#5 v=89
443372 On ch=4 n=d#5 v=89
444242 On ch=4 n=d#5 v=0
444242 On ch=4 n=f#5 v=0
444242 On ch=4 n=c6 v=0
444242 On ch=4 n=g4 v=89
445178 On ch=4 n=g4 v=0
445178 On ch=4 n=c6 v=89
445178 On ch=4 n=f#5 v=89
445178 On ch=4 n=d#5 v=89
446068 On ch=4 n=d#5 v=0
446068 On ch=4 n=f#5 v=0
446068 On ch=4 n=c6 v=0
446068 On ch=4 n=g4 v=89
446952 On ch=4 n=g4 v=0
446952 On ch=4 n=d#6 v=89
446952 On ch=4 n=f#5 v=89
446952 On ch=4 n=d#5 v=89
447858 On ch=4 n=d#5 v=0
447858 On ch=4 n=f#5 v=0
447858 On ch=4 n=d#6 v=0
447858 On ch=4 n=g4 v=92
448762 On ch=4 n=g4 v=0
448762 On ch=4 n=d#6 v=90
448762 On ch=4 n=f#5 v=90
448762 On ch=4 n=d#5 v=90
449650 On ch=4 n=d#5 v=0
449650 On ch=4 n=f#5 v=0
449650 On ch=4 n=d#6 v=0
449650 On ch=4 n=g4 v=90
450526 On ch=4 n=g4 v=0
450526 On ch=4 n=d#6 v=89
450526 On ch=4 n=f#5 v=89
450526 On ch=4 n=d#5 v=89
451410 On ch=4 n=d#5 v=0
451410 On ch=4 n=f#5 v=0
451410 On ch=4 n=d#6 v=0
451410 On ch=4 n=g4 v=92
452300 On ch=4 n=g4 v=0
452300 On ch=4 n=d#6 v=89
452300 On ch=4 n=f#5 v=89
452300 On ch=4 n=d#5 v=89
453192 On ch=4 n=d#5 v=0
453192 On ch=4 n=f#5 v=0
453192 On ch=4 n=d#6 v=0
514256 On ch=4 n=d3 v=43
514808 On ch=4 n=d3 v=0
514808 On ch=4 n=g4 v=43
514808 On ch=4 n=g3 v=43
515298 On ch=4 n=g3 v=0
515298 On ch=4 n=g4 v=0
515298 On ch=4 n=c5 v=50
515806 On ch=4 n=c5 v=0
515806 On ch=4 n=b4 v=49
516322 On ch=4 n=b4 v=0
516322 On ch=4 n=d4 v=49
516322 On ch=4 n=d3 v=49
516812 On ch=4 n=d3 v=0
516812 On ch=4 n=d4 v=0
516812 On ch=4 n=g4 v=53
516812 On ch=4 n=g3 v=53
517288 On ch=4 n=g3 v=0
517288 On ch=4 n=g4 v=0
517288 On ch=4 n=c5 v=57
517772 On ch=4 n=c5 v=0
517772 On ch=4 n=b4 v=60
518266 On ch=4 n=b4 v=0
518266 On ch=4 n=d4 v=58
518266 On ch=4 n=d3 v=58
518758 On ch=4 n=d3 v=0
518758 On ch=4 n=d4 v=0
518758 On ch=4 n=g4 v=63
518758 On ch=4 n=g3 v=63
519242 On ch=4 n=g3 v=0
519242 On ch=4 n=g4 v=0
519242 On ch=4 n=c5 v=63
519706 On ch=4 n=c5 v=0
519706 On ch=4 n=b4 v=72
520174 On ch=4 n=b4 v=0
520174 On ch=4 n=d4 v=75
520174 On ch=4 n=d3 v=75
520640 On ch=4 n=d3 v=0
520640 On ch=4 n=d4 v=0
520640 On ch=4 n=g4 v=83
520640 On ch=4 n=g3 v=83
521106 On ch=4 n=g3 v=0
521106 On ch=4 n=g4 v=0
521106 On ch=4 n=c5 v=80
521570 On ch=4 n=c5 v=0
521570 On ch=4 n=b4 v=80
522038 On ch=4 n=b4 v=0
522038 On ch=4 n=d4 v=77
522502 On ch=4 n=d4 v=0
522502 On ch=4 n=g4 v=81
522968 On ch=4 n=g4 v=0
522968 On ch=4 n=c5 v=87
523424 On ch=4 n=c5 v=0
523424 On ch=4 n=b4 v=87
523880 On ch=4 n=b4 v=0
523880 On ch=4 n=d4 v=87
523880 On ch=4 n=d3 v=87
524336 On ch=4 n=d3 v=0
524336 On ch=4 n=d4 v=0
524336 On ch=4 n=g4 v=87
524336 On ch=4 n=g3 v=87
524800 On ch=4 n=g3 v=0
524800 On ch=4 n=g4 v=0
524800 On ch=4 n=c5 v=87
525250 On ch=4 n=c5 v=0
525250 On ch=4 n=b4 v=87
525720 On ch=4 n=b4 v=0
525720 On ch=4 n=d4 v=87
525720 On ch=4 n=d3 v=87
526184 On ch=4 n=d3 v=0
526184 On ch=4 n=d4 v=0
526184 On ch=4 n=g4 v=87
526184 On ch=4 n=g3 v=87
526632 On ch=4 n=g3 v=0
526632 On ch=4 n=g4 v=0
526632 On ch=4 n=f#4 v=87
527090 On ch=4 n=f#4 v=0
527090 On ch=4 n=g4 v=87
527532 On ch=4 n=g4 v=0
527532 On ch=4 n=f#4 v=87
527532 On ch=4 n=f#3 v=87
527964 On ch=4 n=f#3 v=0
527964 On ch=4 n=f#4 v=0
527964 On ch=4 n=f4 v=87
527964 On ch=4 n=f3 v=87
528394 On ch=4 n=f3 v=0
528394 On ch=4 n=f4 v=0
528394 On ch=4 n=e4 v=87
528394 On ch=4 n=e3 v=87
528832 On ch=4 n=e3 v=0
528832 On ch=4 n=e4 v=0
528832 On ch=4 n=f4 v=87
528832 On ch=4 n=f3 v=87
529274 On ch=4 n=f3 v=0
529274 On ch=4 n=f4 v=0
529274 On ch=4 n=e4 v=87
529274 On ch=4 n=e3 v=87
529720 On ch=4 n=e3 v=0
529720 On ch=4 n=e4 v=0
529720 On ch=4 n=d#4 v=87
529720 On ch=4 n=d#3 v=87
530144 On ch=4 n=d#3 v=0
530144 On ch=4 n=d#4 v=0
530144 On ch=4 n=d4 v=87
530144 On ch=4 n=d3 v=87
530556 On ch=4 n=d3 v=0
530556 On ch=4 n=d4 v=0
530556 On ch=4 n=d#4 v=87
530556 On ch=4 n=d#3 v=87
530960 On ch=4 n=d#3 v=0
530960 On ch=4 n=d#4 v=0
530960 On ch=4 n=d4 v=87
530960 On ch=4 n=d3 v=87
531420 On ch=4 n=d3 v=0
531420 On ch=4 n=d4 v=0
531420 On ch=4 n=c3 v=89
531420 On ch=4 n=c4 v=89
532280 On ch=4 n=c4 v=0
532280 On ch=4 n=c3 v=0
532730 On ch=4 n=g3 v=63
533140 On ch=4 n=g3 v=0
533140 On ch=4 n=d#4 v=63
535758 On ch=4 n=d#4 v=0
535758 On ch=4 n=d4 v=66
536676 On ch=4 n=d4 v=0
536676 On ch=4 n=d4 v=68
537114 On ch=4 n=d4 v=0
537114 On ch=4 n=c4 v=70
537548 On ch=4 n=c4 v=0
537548 On ch=4 n=b3 v=70
537986 On ch=4 n=b3 v=0
537986 On ch=4 n=c4 v=71
538424 On ch=4 n=c4 v=0
538424 On ch=4 n=g3 v=71
541954 On ch=4 n=g3 v=0
541954 On ch=4 n=d#4 v=73
543332 On ch=4 n=d#4 v=0
543332 On ch=4 n=c4 v=73
543772 On ch=4 n=c4 v=0
543772 On ch=4 n=g4 v=77
546542 On ch=4 n=g4 v=0
546542 On ch=4 n=f4 v=75
547474 On ch=4 n=f4 v=0
547474 On ch=4 n=f4 v=76
547882 On ch=4 n=f4 v=0
547882 On ch=4 n=d#4 v=76
548322 On ch=4 n=d#4 v=0
548322 On ch=4 n=d4 v=78
548748 On ch=4 n=d4 v=0
548748 On ch=4 n=d#4 v=78
549224 On ch=4 n=d#4 v=0
549224 On ch=4 n=c4 v=76
552910 On ch=4 n=c4 v=0
552910 On ch=4 n=d#5 v=80
554712 On ch=4 n=d#5 v=0
554712 On ch=4 n=d#4 v=76
557418 On ch=4 n=d#4 v=0
557418 On ch=4 n=d4 v=76
558316 On ch=4 n=d4 v=0
558316 On ch=4 n=d5 v=76
560114 On ch=4 n=d5 v=0
560114 On ch=4 n=d4 v=88
562806 On ch=4 n=d4 v=0
562806 On ch=4 n=c#4 v=76
563702 On ch=4 n=c#4 v=0
563702 On ch=4 n=c4 v=76
565050 On ch=4 n=c4 v=0
565050 On ch=4 n=b3 v=76
565466 On ch=4 n=b3 v=0
565466 On ch=4 n=f4 v=80
567218 On ch=4 n=f4 v=0
567218 On ch=4 n=d#4 v=76
569002 On ch=4 n=d#4 v=0
569002 On ch=4 n=d#4 v=76
569910 On ch=4 n=d#4 v=0
569910 On ch=4 n=d4 v=76
570806 On ch=4 n=d4 v=0
573650 On ch=4 n=g3 v=60
574586 On ch=4 n=g3 v=0
574586 On ch=4 n=c3 v=58
575498 On ch=4 n=c3 v=0
575992 On ch=4 n=g3 v=76
576432 On ch=4 n=g3 v=0
576432 On ch=4 n=d#4 v=76
579146 On ch=4 n=d#4 v=0
579146 On ch=4 n=d4 v=76
580046 On ch=4 n=d4 v=0
580046 On ch=4 n=d4 v=76
580464 On ch=4 n=d4 v=0
580464 On ch=4 n=c4 v=76
580906 On ch=4 n=c4 v=0
581358 On ch=4 n=c4 v=76
581794 On ch=4 n=c4 v=0
581794 On ch=4 n=g3 v=78
583600 On ch=4 n=g3 v=0
583600 On ch=4 n=a#3 v=78
585448 On ch=4 n=a#3 v=0
585448 On ch=4 n=d#3 v=81
586358 On ch=4 n=d#3 v=0
586848 On ch=4 n=a#3 v=79
587296 On ch=4 n=a#3 v=0
587296 On ch=4 n=g4 v=87
590018 On ch=4 n=g4 v=0
590018 On ch=4 n=f4 v=87
590960 On ch=4 n=f4 v=0
590960 On ch=4 n=f4 v=89
591372 On ch=4 n=f4 v=0
591372 On ch=4 n=d#4 v=87
591820 On ch=4 n=d#4 v=0
591820 On ch=4 n=d4 v=87
592256 On ch=4 n=d4 v=0
592256 On ch=4 n=d#4 v=90
592690 On ch=4 n=d#4 v=0
592690 On ch=4 n=d#3 v=95
596346 On ch=4 n=d#3 v=0
596346 On ch=4 n=g#4 v=80
598154 On ch=4 n=g#4 v=0
598154 On ch=4 n=g#3 v=67
600844 On ch=4 n=g#3 v=0
600844 On ch=4 n=g#3 v=77
601744 On ch=4 n=g#3 v=0
601744 On ch=4 n=g#4 v=67
603560 On ch=4 n=g#4 v=0
603560 On ch=4 n=g3 v=71
606236 On ch=4 n=g3 v=0
606236 On ch=4 n=g3 v=69
607098 On ch=4 n=g3 v=0
607098 On ch=4 n=g4 v=64
608914 On ch=4 n=g4 v=0
608914 On ch=4 n=f4 v=55
609818 On ch=4 n=f4 v=0
609818 On ch=4 n=d#4 v=54
610726 On ch=4 n=d#4 v=0
610726 On ch=4 n=f4 v=53
611638 On ch=4 n=f4 v=0
611638 On ch=4 n=c4 v=49
612526 On ch=4 n=c4 v=0
613416 On ch=4 n=g3 v=52
614298 On ch=4 n=g3 v=0
614298 On ch=4 n=d4 v=56
616134 On ch=4 n=d4 v=0
616134 On ch=4 n=c4 v=52
617084 On ch=4 n=c4 v=0
618070 On ch=4 n=g#3 v=52
619130 On ch=4 n=g#3 v=0
619130 On ch=4 n=d#4 v=39
620040 On ch=4 n=d#4 v=0
620040 On ch=4 n=c5 v=50
620040 On ch=4 n=g#4 v=50
620986 On ch=4 n=g#4 v=0
620986 On ch=4 n=c5 v=0
620986 On ch=4 n=d#4 v=53
621954 On ch=4 n=d#4 v=0
621954 On ch=4 n=c#5 v=54
621954 On ch=4 n=a#4 v=54
622846 On ch=4 n=a#4 v=0
622846 On ch=4 n=c#5 v=0
622846 On ch=4 n=d#4 v=50
623760 On ch=4 n=d#4 v=0
623760 On ch=4 n=d5 v=50
623760 On ch=4 n=b4 v=50
624710 On ch=4 n=b4 v=0
624710 On ch=4 n=d5 v=0
624710 On ch=4 n=d#4 v=46
625634 On ch=4 n=d#4 v=0
625634 On ch=4 n=d#5 v=51
625634 On ch=4 n=c5 v=51
626620 On ch=4 n=c5 v=0
626620 On ch=4 n=d#5 v=0
626620 On ch=4 n=d#4 v=54
627546 On ch=4 n=d#4 v=0
627546 On ch=4 n=e5 v=51
627546 On ch=4 n=b4 v=51
627546 On ch=4 n=g#4 v=51
628552 On ch=4 n=g#4 v=0
628552 On ch=4 n=b4 v=0
628552 On ch=4 n=e5 v=0
628552 On ch=4 n=d4 v=63
629414 On ch=4 n=d4 v=0
629414 On ch=4 n=e5 v=71
629414 On ch=4 n=b4 v=71
629414 On ch=4 n=g#4 v=71
630414 On ch=4 n=g#4 v=0
630414 On ch=4 n=b4 v=0
630414 On ch=4 n=e5 v=0
630414 On ch=4 n=d4 v=70
631350 On ch=4 n=d4 v=0
631350 On ch=4 n=d#5 v=65
631350 On ch=4 n=g#4 v=65
632252 On ch=4 n=g#4 v=0
632252 On ch=4 n=d#5 v=0
632252 On ch=4 n=d#4 v=67
633206 On ch=4 n=d#4 v=0
633206 On ch=4 n=b4 v=63
633206 On ch=4 n=e4 v=63
634110 On ch=4 n=e4 v=0
634110 On ch=4 n=b4 v=0
634110 On ch=4 n=b4 v=62
634110 On ch=4 n=e4 v=62
634546 On ch=4 n=e4 v=0
634546 On ch=4 n=b4 v=0
634546 On ch=4 n=b4 v=58
634546 On ch=4 n=e4 v=58
634990 On ch=4 n=e4 v=0
634990 On ch=4 n=b4 v=0
634990 On ch=4 n=e5 v=53
634990 On ch=4 n=b4 v=53
634990 On ch=4 n=e4 v=53
635908 On ch=4 n=e4 v=0
635908 On ch=4 n=b4 v=0
635908 On ch=4 n=e5 v=0
635908 On ch=4 n=e5 v=60
635908 On ch=4 n=a4 v=60
636336 On ch=4 n=a4 v=0
636336 On ch=4 n=e5 v=0
636336 On ch=4 n=e5 v=57
636336 On ch=4 n=a4 v=57
636774 On ch=4 n=a4 v=0
636774 On ch=4 n=e5 v=0
636774 On ch=4 n=e5 v=59
636774 On ch=4 n=b4 v=59
636774 On ch=4 n=e4 v=59
637680 On ch=4 n=e4 v=0
637680 On ch=4 n=b4 v=0
637680 On ch=4 n=e5 v=0
637680 On ch=4 n=e5 v=54
637680 On ch=4 n=b4 v=54
637680 On ch=4 n=e4 v=54
638084 On ch=4 n=e4 v=0
638084 On ch=4 n=b4 v=0
638084 On ch=4 n=e5 v=0
638084 On ch=4 n=e5 v=47
638084 On ch=4 n=b4 v=47
638084 On ch=4 n=e4 v=47
638516 On ch=4 n=e4 v=0
638516 On ch=4 n=b4 v=0
638516 On ch=4 n=e5 v=0
638516 On ch=4 n=e5 v=49
638516 On ch=4 n=b4 v=49
638516 On ch=4 n=e4 v=49
639414 On ch=4 n=e4 v=0
639414 On ch=4 n=b4 v=0
639414 On ch=4 n=e5 v=0
639414 On ch=4 n=e5 v=51
639414 On ch=4 n=b4 v=51
639414 On ch=4 n=e4 v=51
640298 On ch=4 n=e4 v=0
640298 On ch=4 n=b4 v=0
640298 On ch=4 n=e5 v=0
640298 On ch=4 n=e5 v=51
640298 On ch=4 n=e4 v=51
640298 On ch=4 n=b4 v=51
641188 On ch=4 n=b4 v=0
641188 On ch=4 n=e4 v=0
641188 On ch=4 n=e5 v=0
641188 On ch=4 n=e5 v=56
641188 On ch=4 n=a4 v=56
641618 On ch=4 n=a4 v=0
641618 On ch=4 n=e5 v=0
641618 On ch=4 n=e5 v=59
641618 On ch=4 n=g#4 v=59
642060 On ch=4 n=g#4 v=0
642060 On ch=4 n=e5 v=0
642060 On ch=4 n=d#5 v=57
642060 On ch=4 n=g4 v=57
642938 On ch=4 n=g4 v=0
642938 On ch=4 n=d#5 v=0
642938 On ch=4 n=d#5 v=57
642938 On ch=4 n=g#4 v=57
643366 On ch=4 n=g#4 v=0
643366 On ch=4 n=d#5 v=0
643366 On ch=4 n=d#5 v=58
643366 On ch=4 n=g#4 v=58
643790 On ch=4 n=g#4 v=0
643790 On ch=4 n=d#5 v=0
643790 On ch=4 n=d#5 v=51
643790 On ch=4 n=a#4 v=51
643790 On ch=4 n=d#4 v=51
644684 On ch=4 n=d#4 v=0
644684 On ch=4 n=a#4 v=0
644684 On ch=4 n=d#5 v=0
644684 On ch=4 n=d#5 v=56
644684 On ch=4 n=a#4 v=56
644684 On ch=4 n=d#4 v=56
645118 On ch=4 n=d#4 v=0
645118 On ch=4 n=a#4 v=0
645118 On ch=4 n=d#5 v=0
645118 On ch=4 n=d#5 v=55
645118 On ch=4 n=a#4 v=55
645118 On ch=4 n=d#4 v=55
645546 On ch=4 n=d#4 v=0
645546 On ch=4 n=a#4 v=0
645546 On ch=4 n=d#5 v=0
645546 On ch=4 n=d#5 v=57
645546 On ch=4 n=a#4 v=57
645546 On ch=4 n=d#4 v=57
646434 On ch=4 n=d#4 v=0
646434 On ch=4 n=a#4 v=0
646434 On ch=4 n=d#5 v=0
646434 On ch=4 n=d#5 v=54
646434 On ch=4 n=a#4 v=54
646434 On ch=4 n=d#4 v=54
647322 On ch=4 n=d#4 v=0
647322 On ch=4 n=a#4 v=0
647322 On ch=4 n=d#5 v=0
647322 On ch=4 n=d#5 v=51
647322 On ch=4 n=g#4 v=51
648218 On ch=4 n=g#4 v=0
648218 On ch=4 n=d#5 v=0
648218 On ch=4 n=c#5 v=53
648218 On ch=4 n=d#4 v=53
649136 On ch=4 n=d#4 v=0
649136 On ch=4 n=c#5 v=0
649136 On ch=4 n=c5 v=53
649136 On ch=4 n=e4 v=53
650050 On ch=4 n=e4 v=0
650050 On ch=4 n=c5 v=0
650050 On ch=4 n=c5 v=51
650050 On ch=4 n=f4 v=51
650968 On ch=4 n=f4 v=0
650968 On ch=4 n=c5 v=0
650968 On ch=4 n=c5 v=51
650968 On ch=4 n=g4 v=51
651906 On ch=4 n=g4 v=0
651906 On ch=4 n=c5 v=0
663068 On ch=4 n=d#4 v=53
663996 On ch=4 n=d#4 v=0
663996 On ch=4 n=c5 v=51
663996 On ch=4 n=g#4 v=51
664914 On ch=4 n=g#4 v=0
664914 On ch=4 n=c5 v=0
664914 On ch=4 n=d#4 v=46
665828 On ch=4 n=d#4 v=0
665828 On ch=4 n=c#5 v=46
665828 On ch=4 n=a#4 v=46
666694 On ch=4 n=a#4 v=0
666694 On ch=4 n=c#5 v=0
666694 On ch=4 n=d#4 v=48
667576 On ch=4 n=d#4 v=0
667576 On ch=4 n=d5 v=54
667576 On ch=4 n=b4 v=54
668418 On ch=4 n=b4 v=0
668418 On ch=4 n=d5 v=0
668418 On ch=4 n=d#4 v=66
669274 On ch=4 n=d#4 v=0
669274 On ch=4 n=d#5 v=62
669274 On ch=4 n=c5 v=62
670246 On ch=4 n=c5 v=0
670246 On ch=4 n=d#5 v=0
670246 On ch=4 n=d#4 v=58
671142 On ch=4 n=d#4 v=0
671142 On ch=4 n=e5 v=71
671142 On ch=4 n=b4 v=71
671142 On ch=4 n=g#4 v=71
672032 On ch=4 n=g#4 v=0
672032 On ch=4 n=b4 v=0
672032 On ch=4 n=e5 v=0
672032 On ch=4 n=d4 v=63
672906 On ch=4 n=d4 v=0
672906 On ch=4 n=e5 v=72
672906 On ch=4 n=b4 v=72
672906 On ch=4 n=g#4 v=72
673832 On ch=4 n=g#4 v=0
673832 On ch=4 n=b4 v=0
673832 On ch=4 n=e5 v=0
673832 On ch=4 n=d4 v=72
674740 On ch=4 n=d4 v=0
674740 On ch=4 n=e5 v=72
674740 On ch=4 n=a4 v=72
675654 On ch=4 n=c#4 v=72
676562 On ch=4 n=c#4 v=0
676562 On ch=4 n=e5 v=0
676562 On ch=4 n=d#5 v=72
676562 On ch=4 n=c4 v=72
677480 On ch=4 n=c4 v=0
677480 On ch=4 n=d#5 v=0
677480 On ch=4 n=a4 v=0
677480 On ch=4 n=f3 v=72
677894 On ch=4 n=f3 v=0
677894 On ch=4 n=f5 v=72
677894 On ch=4 n=c5 v=72
677894 On ch=4 n=f4 v=72
678330 On ch=4 n=f4 v=0
678330 On ch=4 n=c5 v=0
678330 On ch=4 n=f5 v=0
678330 On ch=4 n=f5 v=72
678330 On ch=4 n=c5 v=72
678330 On ch=4 n=f4 v=72
679200 On ch=4 n=f4 v=0
679200 On ch=4 n=c5 v=0
679200 On ch=4 n=f5 v=0
679200 On ch=4 n=f5 v=72
679200 On ch=4 n=a#4 v=72
679612 On ch=4 n=a#4 v=0
679612 On ch=4 n=f5 v=0
679612 On ch=4 n=f5 v=72
679612 On ch=4 n=a#4 v=72
680070 On ch=4 n=a#4 v=0
680070 On ch=4 n=f5 v=0
680070 On ch=4 n=f5 v=72
680070 On ch=4 n=c5 v=72
680070 On ch=4 n=f4 v=72
680920 On ch=4 n=f4 v=0
680920 On ch=4 n=c5 v=0
680920 On ch=4 n=f5 v=0
680920 On ch=4 n=f5 v=72
680920 On ch=4 n=c5 v=72
680920 On ch=4 n=f4 v=72
681342 On ch=4 n=f4 v=0
681342 On ch=4 n=c5 v=0
681342 On ch=4 n=f5 v=0
681342 On ch=4 n=f5 v=72
681342 On ch=4 n=c5 v=72
681342 On ch=4 n=f4 v=72
681774 On ch=4 n=f4 v=0
681774 On ch=4 n=c5 v=0
681774 On ch=4 n=f5 v=0
681774 On ch=4 n=f5 v=72
681774 On ch=4 n=c5 v=72
681774 On ch=4 n=f4 v=72
682628 On ch=4 n=f4 v=0
682628 On ch=4 n=c5 v=0
682628 On ch=4 n=f5 v=0
682628 On ch=4 n=f5 v=72
682628 On ch=4 n=c5 v=72
682628 On ch=4 n=f4 v=72
683484 On ch=4 n=f4 v=0
683484 On ch=4 n=c5 v=0
683484 On ch=4 n=f5 v=0
683484 On ch=4 n=f5 v=55
683484 On ch=4 n=c5 v=55
683484 On ch=4 n=f4 v=55
684380 On ch=4 n=f4 v=0
684380 On ch=4 n=c5 v=0
684380 On ch=4 n=f5 v=0
684380 On ch=4 n=f5 v=51
684380 On ch=4 n=a#4 v=51
684818 On ch=4 n=a#4 v=0
684818 On ch=4 n=f5 v=0
684818 On ch=4 n=f5 v=52
684818 On ch=4 n=a4 v=52
685266 On ch=4 n=a4 v=0
685266 On ch=4 n=f5 v=0
685266 On ch=4 n=e5 v=48
685266 On ch=4 n=g#4 v=48
686128 On ch=4 n=g#4 v=0
686128 On ch=4 n=e5 v=0
686128 On ch=4 n=e5 v=51
686128 On ch=4 n=a4 v=51
686560 On ch=4 n=a4 v=0
686560 On ch=4 n=e5 v=0
686560 On ch=4 n=e5 v=50
686560 On ch=4 n=a4 v=50
686994 On ch=4 n=a4 v=0
686994 On ch=4 n=e5 v=0
686994 On ch=4 n=e5 v=50
686994 On ch=4 n=b4 v=50
686994 On ch=4 n=e4 v=50
687876 On ch=4 n=e4 v=0
687876 On ch=4 n=b4 v=0
687876 On ch=4 n=e5 v=0
687876 On ch=4 n=e5 v=47
687876 On ch=4 n=b4 v=47
687876 On ch=4 n=e4 v=47
688310 On ch=4 n=e4 v=0
688310 On ch=4 n=b4 v=0
688310 On ch=4 n=e5 v=0
688310 On ch=4 n=e5 v=50
688310 On ch=4 n=b4 v=50
688310 On ch=4 n=e4 v=50
688740 On ch=4 n=e4 v=0
688740 On ch=4 n=b4 v=0
688740 On ch=4 n=e5 v=0
688740 On ch=4 n=e5 v=50
688740 On ch=4 n=b4 v=50
688740 On ch=4 n=e4 v=50
689630 On ch=4 n=e4 v=0
689630 On ch=4 n=b4 v=0
689630 On ch=4 n=e5 v=0
689630 On ch=4 n=a#4 v=45
689630 On ch=4 n=e4 v=45
690062 On ch=4 n=e4 v=0
690062 On ch=4 n=a#4 v=0
690062 On ch=4 n=a#4 v=50
690062 On ch=4 n=e4 v=50
690498 On ch=4 n=e4 v=0
690498 On ch=4 n=a#4 v=0
690498 On ch=4 n=a#4 v=48
690498 On ch=4 n=e4 v=48
691412 On ch=4 n=e4 v=0
691412 On ch=4 n=a#4 v=0
691412 On ch=4 n=c#5 v=47
691412 On ch=4 n=e4 v=47
692306 On ch=4 n=e4 v=0
692306 On ch=4 n=c#5 v=0
692306 On ch=4 n=c5 v=44
692306 On ch=4 n=e4 v=44
693204 On ch=4 n=e4 v=0
693204 On ch=4 n=c5 v=0
693204 On ch=4 n=c5 v=42
693204 On ch=4 n=f4 v=42
694110 On ch=4 n=f4 v=0
694110 On ch=4 n=c5 v=0
695020 On ch=4 n=d#3 v=40
695950 On ch=4 n=d#3 v=0
695950 On ch=4 n=d#3 v=44
696400 On ch=4 n=d#3 v=0
696400 On ch=4 n=f3 v=36
696862 On ch=4 n=f3 v=0
696862 On ch=4 n=d3 v=36
697308 On ch=4 n=d3 v=0
697308 On ch=4 n=d#3 v=39
697764 On ch=4 n=d#3 v=0
697764 On ch=4 n=g#3 v=48
698744 On ch=4 n=g#3 v=0
702464 On ch=4 n=c4 v=67
703884 On ch=4 n=c4 v=0
703884 On ch=4 n=c#4 v=62
704350 On ch=4 n=c#4 v=0
704350 On ch=4 n=f4 v=63
704802 On ch=4 n=f4 v=0
704802 On ch=4 n=g#4 v=64
705260 On ch=4 n=g#4 v=0
705260 On ch=4 n=g#4 v=63
705694 On ch=4 n=g#4 v=0
705694 On ch=4 n=g4 v=64
706146 On ch=4 n=g4 v=0
706146 On ch=4 n=d#4 v=63
706606 On ch=4 n=d#4 v=0
706606 On ch=4 n=c4 v=58
707054 On ch=4 n=c4 v=0
707054 On ch=4 n=g3 v=58
707506 On ch=4 n=g3 v=0
707506 On ch=4 n=d#3 v=65
707948 On ch=4 n=d#3 v=0
707948 On ch=4 n=d3 v=63
708402 On ch=4 n=d3 v=0
708402 On ch=4 n=c3 v=63
708860 On ch=4 n=c3 v=0
708860 On ch=4 n=f3 v=64
709316 On ch=4 n=f3 v=0
709316 On ch=4 n=g#3 v=62
709762 On ch=4 n=g#3 v=0
709762 On ch=4 n=c#4 v=67
710208 On ch=4 n=c#4 v=0
710208 On ch=4 n=f4 v=64
710650 On ch=4 n=f4 v=0
710650 On ch=4 n=d#4 v=67
711090 On ch=4 n=d#4 v=0
711090 On ch=4 n=d4 v=67
711532 On ch=4 n=d4 v=0
711532 On ch=4 n=f4 v=63
711990 On ch=4 n=f4 v=0
711990 On ch=4 n=d#4 v=64
712458 On ch=4 n=d#4 v=0
712458 On ch=4 n=c4 v=65
712896 On ch=4 n=c4 v=0
712896 On ch=4 n=g#3 v=70
713326 On ch=4 n=g#3 v=0
713326 On ch=4 n=d#3 v=70
713774 On ch=4 n=d#3 v=0
713774 On ch=4 n=d#2 v=76
714238 On ch=4 n=d#2 v=0
714238 On ch=4 n=d#3 v=72
714666 On ch=4 n=d#3 v=0
714666 On ch=4 n=d#4 v=75
715098 On ch=4 n=d#4 v=0
715098 On ch=4 n=e4 v=79
715544 On ch=4 n=e4 v=0
715544 On ch=4 n=c#4 v=82
715972 On ch=4 n=c#4 v=0
715972 On ch=4 n=c#4 v=85
716398 On ch=4 n=c#4 v=0
716398 On ch=4 n=c4 v=87
716836 On ch=4 n=c4 v=0
716836 On ch=4 n=c#4 v=87
717280 On ch=4 n=c#4 v=0
717280 On ch=4 n=g#3 v=78
717716 On ch=4 n=g#3 v=0
717716 On ch=4 n=c4 v=75
718170 On ch=4 n=c4 v=0
718170 On ch=4 n=b3 v=67
718620 On ch=4 n=b3 v=0
718620 On ch=4 n=c4 v=69
719060 On ch=4 n=c4 v=0
719060 On ch=4 n=g3 v=67
719486 On ch=4 n=g3 v=0
719486 On ch=4 n=f3 v=74
719936 On ch=4 n=f3 v=0
719936 On ch=4 n=d#3 v=87
720388 On ch=4 n=d#3 v=0
720388 On ch=4 n=d3 v=87
720814 On ch=4 n=d3 v=0
720814 On ch=4 n=c3 v=87
721276 On ch=4 n=c3 v=0
723988 On ch=4 n=c4 v=87
725400 On ch=4 n=c4 v=0
725400 On ch=4 n=c#4 v=67
725862 On ch=4 n=c#4 v=0
725862 On ch=4 n=f4 v=69
726322 On ch=4 n=f4 v=0
726322 On ch=4 n=g#4 v=67
726766 On ch=4 n=g#4 v=0
726766 On ch=4 n=g#4 v=69
727208 On ch=4 n=g#4 v=0
727208 On ch=4 n=g4 v=69
727670 On ch=4 n=g4 v=0
727670 On ch=4 n=d#4 v=64
728096 On ch=4 n=d#4 v=0
728096 On ch=4 n=c4 v=67
728546 On ch=4 n=c4 v=0
728546 On ch=4 n=g3 v=66
729004 On ch=4 n=g3 v=0
729004 On ch=4 n=d#3 v=65
729458 On ch=4 n=d#3 v=0
729458 On ch=4 n=d3 v=67
729906 On ch=4 n=d3 v=0
729906 On ch=4 n=c3 v=67
730342 On ch=4 n=c3 v=0
730342 On ch=4 n=f3 v=72
730782 On ch=4 n=f3 v=0
730782 On ch=4 n=g#3 v=69
731264 On ch=4 n=g#3 v=0
731264 On ch=4 n=c#4 v=65
731720 On ch=4 n=c#4 v=0
731720 On ch=4 n=f4 v=66
732172 On ch=4 n=f4 v=0
732172 On ch=4 n=d#4 v=67
732620 On ch=4 n=d#4 v=0
732620 On ch=4 n=d4 v=67
733074 On ch=4 n=d4 v=0
733074 On ch=4 n=d#4 v=67
733530 On ch=4 n=d#4 v=0
733530 On ch=4 n=e4 v=66
733980 On ch=4 n=e4 v=0
733980 On ch=4 n=f4 v=66
734416 On ch=4 n=f4 v=0
734416 On ch=4 n=e4 v=67
734872 On ch=4 n=e4 v=0
734872 On ch=4 n=f4 v=66
735326 On ch=4 n=f4 v=0
735326 On ch=4 n=f#4 v=65
735792 On ch=4 n=f#4 v=0
735792 On ch=4 n=g4 v=65
736260 On ch=4 n=g4 v=0
736260 On ch=4 n=f#4 v=61
736722 On ch=4 n=f#4 v=0
736722 On ch=4 n=g4 v=64
737168 On ch=4 n=g4 v=0
737168 On ch=4 n=g#4 v=67
737622 On ch=4 n=g#4 v=0
737622 On ch=4 n=a4 v=67
738072 On ch=4 n=a4 v=0
738072 On ch=4 n=g#4 v=70
738524 On ch=4 n=g#4 v=0
738524 On ch=4 n=a4 v=73
738984 On ch=4 n=a4 v=0
738984 On ch=4 n=a#4 v=73
739440 On ch=4 n=a#4 v=0
739440 On ch=4 n=b4 v=72
739894 On ch=4 n=b4 v=0
739894 On ch=4 n=a#4 v=69
740330 On ch=4 n=a#4 v=0
740330 On ch=4 n=b4 v=71
740770 On ch=4 n=b4 v=0
740770 On ch=4 n=c5 v=72
741222 On ch=4 n=c5 v=0
741222 On ch=4 n=c#5 v=76
741676 On ch=4 n=c#5 v=0
741676 On ch=4 n=c5 v=75
742132 On ch=4 n=c5 v=0
742132 On ch=4 n=c#5 v=82
742576 On ch=4 n=c#5 v=0
742576 On ch=4 n=g4 v=78
743016 On ch=4 n=g4 v=0
743016 On ch=4 n=c4 v=87
743496 On ch=4 n=c4 v=0
743496 On ch=4 n=g4 v=65
743998 On ch=4 n=g4 v=0
743998 On ch=4 n=c5 v=64
744450 On ch=4 n=c5 v=0
744450 On ch=4 n=c#5 v=66
744932 On ch=4 n=c#5 v=0
744932 On ch=4 n=c5 v=56
745394 On ch=4 n=c5 v=0
745394 On ch=4 n=c4 v=63
745856 On ch=4 n=c4 v=0
745856 On ch=4 n=g4 v=61
746324 On ch=4 n=g4 v=0
746324 On ch=4 n=a#4 v=61
746806 On ch=4 n=a#4 v=0
746806 On ch=4 n=c5 v=59
747272 On ch=4 n=c5 v=0
747272 On ch=4 n=c4 v=61
747736 On ch=4 n=c4 v=0
747736 On ch=4 n=g4 v=61
748206 On ch=4 n=g4 v=0
748206 On ch=4 n=c#5 v=60
748692 On ch=4 n=c#5 v=0
748692 On ch=4 n=c5 v=56
749172 On ch=4 n=c5 v=0
749172 On ch=4 n=c4 v=57
749670 On ch=4 n=c4 v=0
749670 On ch=4 n=g4 v=54
750150 On ch=4 n=g4 v=0
750150 On ch=4 n=a#4 v=54
750640 On ch=4 n=a#4 v=0
750640 On ch=4 n=c5 v=53
751132 On ch=4 n=c5 v=0
751132 On ch=4 n=c4 v=52
751608 On ch=4 n=c4 v=0
751608 On ch=4 n=g4 v=47
752068 On ch=4 n=g4 v=0
752068 On ch=4 n=c#5 v=46
752556 On ch=4 n=c#5 v=0
752556 On ch=4 n=c5 v=43
753040 On ch=4 n=c5 v=0
753040 On ch=4 n=c4 v=49
753522 On ch=4 n=c4 v=0
753522 On ch=4 n=g4 v=47
754004 On ch=4 n=g4 v=0
754004 On ch=4 n=a#4 v=43
754472 On ch=4 n=a#4 v=0
754472 On ch=4 n=g4 v=47
754472 On ch=4 n=c4 v=47
756498 On ch=4 n=c4 v=0
756498 On ch=4 n=g4 v=0
769292 On ch=4 n=g#3 v=46
769292 On ch=4 n=g#2 v=46
770308 On ch=4 n=g#2 v=0
770308 On ch=4 n=g#3 v=0
770308 On ch=4 n=d#4 v=51
771296 On ch=4 n=d#4 v=0
771296 On ch=4 n=c5 v=55
771296 On ch=4 n=g#4 v=55
772292 On ch=4 n=g#4 v=0
772292 On ch=4 n=c5 v=0
772292 On ch=4 n=d#4 v=57
773228 On ch=4 n=d#4 v=0
773228 On ch=4 n=c#5 v=57
773228 On ch=4 n=a#4 v=57
774190 On ch=4 n=a#4 v=0
774190 On ch=4 n=c#5 v=0
774190 On ch=4 n=d#4 v=56
775094 On ch=4 n=d#4 v=0
775094 On ch=4 n=d5 v=59
775094 On ch=4 n=b4 v=59
776066 On ch=4 n=b4 v=0
776066 On ch=4 n=d5 v=0
776066 On ch=4 n=d#4 v=60
776998 On ch=4 n=d#4 v=0
776998 On ch=4 n=d#5 v=64
776998 On ch=4 n=c5 v=64
777946 On ch=4 n=c5 v=0
777946 On ch=4 n=d#5 v=0
777946 On ch=4 n=d#4 v=69
778898 On ch=4 n=d#4 v=0
778898 On ch=4 n=e5 v=65
778898 On ch=4 n=b4 v=65
778898 On ch=4 n=g#4 v=65
779838 On ch=4 n=g#4 v=0
779838 On ch=4 n=b4 v=0
779838 On ch=4 n=e5 v=0
779838 On ch=4 n=d4 v=75
780766 On ch=4 n=d4 v=0
780766 On ch=4 n=e5 v=76
780766 On ch=4 n=b4 v=76
780766 On ch=4 n=g#4 v=76
781762 On ch=4 n=g#4 v=0
781762 On ch=4 n=b4 v=0
781762 On ch=4 n=e5 v=0
781762 On ch=4 n=d4 v=70
782726 On ch=4 n=d4 v=0
782726 On ch=4 n=d#5 v=70
782726 On ch=4 n=g#4 v=70
783674 On ch=4 n=g#4 v=0
783674 On ch=4 n=d#5 v=0
783674 On ch=4 n=d#4 v=62
784600 On ch=4 n=d#4 v=0
784600 On ch=4 n=b4 v=53
784600 On ch=4 n=e4 v=53
785520 On ch=4 n=e4 v=0
785520 On ch=4 n=b4 v=0
785520 On ch=4 n=b4 v=52
785520 On ch=4 n=e4 v=52
785992 On ch=4 n=e4 v=0
785992 On ch=4 n=b4 v=0
785992 On ch=4 n=b4 v=50
785992 On ch=4 n=e4 v=50
786454 On ch=4 n=e4 v=0
786454 On ch=4 n=b4 v=0
786454 On ch=4 n=e5 v=53
786454 On ch=4 n=b4 v=53
786454 On ch=4 n=e4 v=53
787372 On ch=4 n=e4 v=0
787372 On ch=4 n=b4 v=0
787372 On ch=4 n=e5 v=0
787372 On ch=4 n=e5 v=53
787372 On ch=4 n=a4 v=53
787812 On ch=4 n=a4 v=0
787812 On ch=4 n=e5 v=0
787812 On ch=4 n=e5 v=54
787812 On ch=4 n=a4 v=54
788272 On ch=4 n=a4 v=0
788272 On ch=4 n=e5 v=0
788272 On ch=4 n=e5 v=51
788272 On ch=4 n=b4 v=51
788272 On ch=4 n=e4 v=51
789186 On ch=4 n=e4 v=0
789186 On ch=4 n=b4 v=0
789186 On ch=4 n=e5 v=0
789186 On ch=4 n=e5 v=53
789186 On ch=4 n=b4 v=53
789186 On ch=4 n=e4 v=53
789630 On ch=4 n=e4 v=0
789630 On ch=4 n=b4 v=0
789630 On ch=4 n=e5 v=0
789630 On ch=4 n=e5 v=53
789630 On ch=4 n=b4 v=53
789630 On ch=4 n=e4 v=53
790064 On ch=4 n=e4 v=0
790064 On ch=4 n=b4 v=0
790064 On ch=4 n=e5 v=0
790064 On ch=4 n=e5 v=53
790064 On ch=4 n=b4 v=53
790064 On ch=4 n=e4 v=53
790968 On ch=4 n=e4 v=0
790968 On ch=4 n=b4 v=0
790968 On ch=4 n=e5 v=0
790968 On ch=4 n=e5 v=52
790968 On ch=4 n=b4 v=52
790968 On ch=4 n=e4 v=52
791900 On ch=4 n=e4 v=0
791900 On ch=4 n=b4 v=0
791900 On ch=4 n=e5 v=0
791900 On ch=4 n=e5 v=51
791900 On ch=4 n=b4 v=51
791900 On ch=4 n=e4 v=51
792814 On ch=4 n=e4 v=0
792814 On ch=4 n=b4 v=0
792814 On ch=4 n=e5 v=0
792814 On ch=4 n=e5 v=53
792814 On ch=4 n=a4 v=53
793258 On ch=4 n=a4 v=0
793258 On ch=4 n=e5 v=0
793258 On ch=4 n=e5 v=52
793258 On ch=4 n=g#4 v=52
793700 On ch=4 n=g#4 v=0
793700 On ch=4 n=e5 v=0
793700 On ch=4 n=d#5 v=52
793700 On ch=4 n=g4 v=52
794636 On ch=4 n=g4 v=0
794636 On ch=4 n=d#5 v=0
794636 On ch=4 n=d#5 v=52
794636 On ch=4 n=g#4 v=52
795094 On ch=4 n=g#4 v=0
795094 On ch=4 n=d#5 v=0
795094 On ch=4 n=d#5 v=50
795094 On ch=4 n=g#4 v=50
795540 On ch=4 n=g#4 v=0
795540 On ch=4 n=d#5 v=0
795540 On ch=4 n=d#5 v=51
795540 On ch=4 n=a#4 v=51
795540 On ch=4 n=d#4 v=51
796442 On ch=4 n=d#4 v=0
796442 On ch=4 n=a#4 v=0
796442 On ch=4 n=d#5 v=0
796442 On ch=4 n=d#5 v=54
796442 On ch=4 n=a#4 v=54
796442 On ch=4 n=d#4 v=54
796882 On ch=4 n=d#4 v=0
796882 On ch=4 n=a#4 v=0
796882 On ch=4 n=d#5 v=0
796882 On ch=4 n=d#5 v=50
796882 On ch=4 n=a#4 v=50
796882 On ch=4 n=d#4 v=50
797314 On ch=4 n=d#4 v=0
797314 On ch=4 n=a#4 v=0
797314 On ch=4 n=d#5 v=0
797314 On ch=4 n=d#5 v=54
797314 On ch=4 n=a#4 v=54
797314 On ch=4 n=d#4 v=54
798210 On ch=4 n=d#4 v=0
798210 On ch=4 n=a#4 v=0
798210 On ch=4 n=d#5 v=0
798210 On ch=4 n=d#5 v=50
798210 On ch=4 n=a#4 v=50
798210 On ch=4 n=d#4 v=50
799108 On ch=4 n=d#4 v=0
799108 On ch=4 n=a#4 v=0
799108 On ch=4 n=d#5 v=0
799108 On ch=4 n=d#5 v=50
799108 On ch=4 n=g#4 v=50
800022 On ch=4 n=g#4 v=0
800022 On ch=4 n=d#5 v=0
800022 On ch=4 n=c#5 v=52
800022 On ch=4 n=d#4 v=52
800948 On ch=4 n=d#4 v=0
800948 On ch=4 n=c#5 v=0
800948 On ch=4 n=c5 v=50
800948 On ch=4 n=e4 v=50
801864 On ch=4 n=e4 v=0
801864 On ch=4 n=c5 v=0
801864 On ch=4 n=c5 v=46
801864 On ch=4 n=f4 v=46
802788 On ch=4 n=f4 v=0
802788 On ch=4 n=c5 v=0
802788 On ch=4 n=c5 v=49
802788 On ch=4 n=g4 v=49
803696 On ch=4 n=g4 v=0
803696 On ch=4 n=c5 v=0
810154 On ch=4 n=f4 v=68
810154 On ch=4 n=a#3 v=68
811086 On ch=4 n=f4 v=0
811086 On ch=4 n=g4 v=68
811530 On ch=4 n=g4 v=0
811530 On ch=4 n=f4 v=68
811972 On ch=4 n=f4 v=0
811972 On ch=4 n=a#3 v=0
811972 On ch=4 n=d#4 v=65
812428 On ch=4 n=c#5 v=63
812884 On ch=4 n=c#5 v=0
812884 On ch=4 n=f4 v=61
813328 On ch=4 n=f4 v=0
813328 On ch=4 n=g4 v=60
813798 On ch=4 n=g4 v=0
813798 On ch=4 n=d#4 v=0
813798 On ch=4 n=g#3 v=60
814702 On ch=4 n=g#3 v=0
814702 On ch=4 n=d#4 v=65
815610 On ch=4 n=d#4 v=0
815610 On ch=4 n=c5 v=72
815610 On ch=4 n=g#4 v=72
816520 On ch=4 n=g#4 v=0
816520 On ch=4 n=c5 v=0
816520 On ch=4 n=d#4 v=67
817426 On ch=4 n=d#4 v=0
817426 On ch=4 n=c#5 v=67
817426 On ch=4 n=a#4 v=67
818266 On ch=4 n=a#4 v=0
818266 On ch=4 n=c#5 v=0
818266 On ch=4 n=d#4 v=71
819140 On ch=4 n=d#4 v=0
819140 On ch=4 n=d5 v=80
819140 On ch=4 n=b4 v=80
819982 On ch=4 n=b4 v=0
819982 On ch=4 n=d5 v=0
819982 On ch=4 n=d#4 v=80
820872 On ch=4 n=d#4 v=0
820872 On ch=4 n=d#5 v=73
820872 On ch=4 n=c5 v=73
821816 On ch=4 n=c5 v=0
821816 On ch=4 n=d#5 v=0
821816 On ch=4 n=d#4 v=71
822708 On ch=4 n=d#4 v=0
822708 On ch=4 n=e5 v=80
822708 On ch=4 n=b4 v=80
822708 On ch=4 n=g#4 v=80
823634 On ch=4 n=g#4 v=0
823634 On ch=4 n=b4 v=0
823634 On ch=4 n=e5 v=0
823634 On ch=4 n=d4 v=80
824496 On ch=4 n=d4 v=0
824496 On ch=4 n=e5 v=80
824496 On ch=4 n=b4 v=80
824496 On ch=4 n=g#4 v=80
825408 On ch=4 n=g#4 v=0
825408 On ch=4 n=b4 v=0
825408 On ch=4 n=e5 v=0
825408 On ch=4 n=d4 v=80
826306 On ch=4 n=d4 v=0
826306 On ch=4 n=e5 v=80
826306 On ch=4 n=a4 v=80
827188 On ch=4 n=c#4 v=80
828128 On ch=4 n=c#4 v=0
828128 On ch=4 n=e5 v=0
828128 On ch=4 n=d#5 v=82
828128 On ch=4 n=c4 v=82
829060 On ch=4 n=c4 v=0
829060 On ch=4 n=d#5 v=0
829060 On ch=4 n=a4 v=0
829060 On ch=4 n=f3 v=83
829490 On ch=4 n=f3 v=0
829490 On ch=4 n=f5 v=80
829490 On ch=4 n=c5 v=80
829490 On ch=4 n=f4 v=80
829910 On ch=4 n=f4 v=0
829910 On ch=4 n=c5 v=0
829910 On ch=4 n=f5 v=0
829910 On ch=4 n=f5 v=80
829910 On ch=4 n=c5 v=80
829910 On ch=4 n=f4 v=80
830796 On ch=4 n=f4 v=0
830796 On ch=4 n=c5 v=0
830796 On ch=4 n=f5 v=0
830796 On ch=4 n=f5 v=80
830796 On ch=4 n=a#4 v=80
831218 On ch=4 n=a#4 v=0
831218 On ch=4 n=f5 v=0
831218 On ch=4 n=f5 v=80
831218 On ch=4 n=a#4 v=80
831642 On ch=4 n=a#4 v=0
831642 On ch=4 n=f5 v=0
831642 On ch=4 n=f5 v=80
831642 On ch=4 n=c5 v=80
831642 On ch=4 n=f4 v=80
832496 On ch=4 n=f4 v=0
832496 On ch=4 n=c5 v=0
832496 On ch=4 n=f5 v=0
832496 On ch=4 n=f5 v=80
832496 On ch=4 n=c5 v=80
832496 On ch=4 n=f4 v=80
832920 On ch=4 n=f4 v=0
832920 On ch=4 n=c5 v=0
832920 On ch=4 n=f5 v=0
832920 On ch=4 n=f5 v=80
832920 On ch=4 n=c5 v=80
832920 On ch=4 n=f4 v=80
833348 On ch=4 n=f4 v=0
833348 On ch=4 n=c5 v=0
833348 On ch=4 n=f5 v=0
833348 On ch=4 n=c5 v=80
833348 On ch=4 n=f4 v=80
834220 On ch=4 n=f4 v=0
834220 On ch=4 n=c5 v=0
834220 On ch=4 n=c5 v=80
834220 On ch=4 n=f4 v=80
835100 On ch=4 n=f4 v=0
835100 On ch=4 n=c5 v=0
835100 On ch=4 n=f5 v=78
835100 On ch=4 n=c5 v=78
835100 On ch=4 n=f4 v=78
835974 On ch=4 n=f4 v=0
835974 On ch=4 n=c5 v=0
835974 On ch=4 n=f5 v=0
835974 On ch=4 n=f5 v=77
835974 On ch=4 n=a#4 v=77
836392 On ch=4 n=a#4 v=0
836392 On ch=4 n=f5 v=0
836392 On ch=4 n=f5 v=77
836392 On ch=4 n=a4 v=77
836816 On ch=4 n=a4 v=0
836816 On ch=4 n=f5 v=0
836816 On ch=4 n=e5 v=76
836816 On ch=4 n=g#4 v=76
837678 On ch=4 n=g#4 v=0
837678 On ch=4 n=e5 v=0
837678 On ch=4 n=e5 v=68
837678 On ch=4 n=a4 v=68
838110 On ch=4 n=a4 v=0
838110 On ch=4 n=e5 v=0
838110 On ch=4 n=e5 v=61
838110 On ch=4 n=a4 v=61
838534 On ch=4 n=a4 v=0
838534 On ch=4 n=e5 v=0
838534 On ch=4 n=e5 v=60
838534 On ch=4 n=b4 v=60
838534 On ch=4 n=e4 v=60
839416 On ch=4 n=e4 v=0
839416 On ch=4 n=b4 v=0
839416 On ch=4 n=e5 v=0
839416 On ch=4 n=e5 v=55
839416 On ch=4 n=b4 v=55
839416 On ch=4 n=e4 v=55
839854 On ch=4 n=e4 v=0
839854 On ch=4 n=b4 v=0
839854 On ch=4 n=e5 v=0
839854 On ch=4 n=e5 v=54
839854 On ch=4 n=b4 v=54
839854 On ch=4 n=e4 v=54
840296 On ch=4 n=e4 v=0
840296 On ch=4 n=b4 v=0
840296 On ch=4 n=e5 v=0
840296 On ch=4 n=e5 v=53
840296 On ch=4 n=b4 v=53
840296 On ch=4 n=e4 v=53
841140 On ch=4 n=e4 v=0
841140 On ch=4 n=b4 v=0
841140 On ch=4 n=e5 v=0
841140 On ch=4 n=a#4 v=57
841140 On ch=4 n=e4 v=57
841552 On ch=4 n=e4 v=0
841552 On ch=4 n=a#4 v=0
841552 On ch=4 n=a#4 v=58
841552 On ch=4 n=e4 v=58
841972 On ch=4 n=e4 v=0
841972 On ch=4 n=a#4 v=0
841972 On ch=4 n=a#4 v=55
841972 On ch=4 n=e4 v=55
842846 On ch=4 n=e4 v=0
842846 On ch=4 n=a#4 v=0
842846 On ch=4 n=c#5 v=54
842846 On ch=4 n=e4 v=54
843736 On ch=4 n=e4 v=0
843736 On ch=4 n=c#5 v=0
843736 On ch=4 n=c5 v=57
843736 On ch=4 n=e4 v=57
844600 On ch=4 n=e4 v=0
844600 On ch=4 n=c5 v=0
844600 On ch=4 n=c5 v=55
844600 On ch=4 n=f4 v=55
845464 On ch=4 n=f4 v=0
845464 On ch=4 n=c5 v=0
845464 Meta TrkEnd
TrkEnd
