MFile 0 1 480
MTrk
0 TimeSig 4/4 24 8
0 Tempo 75000
0 SysEx f0 41 10 42 12 40 00 7f 00 41 f7
1920 Tempo 480000
1920 PrCh ch=1 p=0
1920 Par ch=1 c=11 v=120
1920 Par ch=1 c=64 v=127
1920 On ch=1 n=d#5 v=120
1920 PrCh ch=2 p=0
1920 Par ch=2 c=11 v=120
1920 Par ch=2 c=64 v=127
1920 On ch=2 n=d#4 v=120
1920 PrCh ch=3 p=0
1920 Par ch=3 c=11 v=120
1920 Par ch=3 c=64 v=127
1920 On ch=3 n=d#2 v=120
1920 On ch=3 n=d#3 v=120
2496 On ch=3 n=d#3 v=0
2496 On ch=3 n=d#2 v=0
2496 On ch=2 n=d#4 v=0
2496 On ch=1 n=d#5 v=0
2496 Par ch=1 c=64 v=0
2496 Par ch=2 c=64 v=0
2496 Par ch=3 c=64 v=0
2784 On ch=1 n=a4 v=60
2784 On ch=2 n=c#4 v=60
2784 On ch=2 n=e4 v=60
2928 On ch=2 n=e4 v=0
2928 On ch=2 n=c#4 v=0
2928 On ch=1 n=a4 v=0
2928 On ch=1 n=a#4 v=65
2928 On ch=2 n=d4 v=65
2928 On ch=2 n=f4 v=65
3072 On ch=2 n=f4 v=0
3072 On ch=2 n=d4 v=0
3072 On ch=1 n=a#4 v=0
3072 On ch=1 n=b4 v=70
3072 On ch=2 n=d#4 v=70
3072 On ch=2 n=f#4 v=70
3220 On ch=2 n=f#4 v=0
3220 On ch=2 n=d#4 v=0
3220 On ch=1 n=b4 v=0
3220 On ch=1 n=c5 v=75
3220 On ch=2 n=e4 v=75
3220 On ch=2 n=g4 v=75
3364 On ch=2 n=g4 v=0
3364 On ch=2 n=e4 v=0
3364 On ch=1 n=c5 v=0
3364 On ch=1 n=c#5 v=80
3364 On ch=2 n=f4 v=80
3364 On ch=2 n=g#4 v=80
3508 On ch=2 n=g#4 v=0
3508 On ch=2 n=f4 v=0
3508 On ch=1 n=c#5 v=0
3508 On ch=1 n=d5 v=85
3508 On ch=2 n=f#4 v=85
3508 On ch=2 n=a4 v=85
3652 On ch=2 n=a4 v=0
3652 On ch=2 n=f#4 v=0
3652 On ch=1 n=d5 v=0
3652 On ch=1 n=d#5 v=90
3652 On ch=2 n=g4 v=90
3652 On ch=2 n=a#4 v=90
3796 On ch=2 n=a#4 v=0
3796 On ch=2 n=g4 v=0
3796 On ch=1 n=d#5 v=0
4228 On ch=1 n=a#4 v=100
4228 On ch=1 n=g4 v=100
4228 On ch=3 n=a#3 v=100
4228 On ch=3 n=d#3 v=100
4372 On ch=3 n=d#3 v=0
4372 On ch=3 n=a#3 v=0
4372 On ch=1 n=g4 v=0
4372 On ch=1 n=a#4 v=0
4804 On ch=1 n=g#5 v=100
4804 On ch=1 n=e5 v=100
4804 On ch=2 n=g#4 v=100
4804 On ch=3 n=b3 v=100
4804 On ch=3 n=d3 v=100
5380 On ch=3 n=d3 v=0
5380 On ch=3 n=b3 v=0
5380 On ch=2 n=g#4 v=0
5380 On ch=1 n=e5 v=0
5380 On ch=1 n=g#5 v=0
5380 On ch=1 n=g5 v=80
5380 On ch=1 n=d#5 v=80
5380 On ch=2 n=g4 v=80
5380 On ch=3 n=a#3 v=80
5380 On ch=3 n=d#3 v=80
5816 On ch=3 n=d#3 v=0
5816 On ch=3 n=a#3 v=0
5816 On ch=2 n=g4 v=0
5816 On ch=1 n=d#5 v=0
5816 On ch=1 n=g5 v=0
5960 On ch=1 n=b4 v=60
5960 On ch=2 n=g#3 v=60
6104 On ch=2 n=g#3 v=0
6104 On ch=1 n=b4 v=0
6104 On ch=1 n=a#4 v=62
6104 On ch=2 n=g3 v=62
6248 On ch=2 n=g3 v=0
6248 On ch=1 n=a#4 v=0
6248 On ch=1 n=e4 v=64
6248 On ch=2 n=d3 v=64
6392 On ch=2 n=d3 v=0
6392 On ch=1 n=e4 v=0
6392 On ch=1 n=d#4 v=66
6392 On ch=2 n=d#3 v=66
6536 On ch=2 n=d#3 v=0
6536 On ch=1 n=d#4 v=0
6536 On ch=1 n=b4 v=68
6536 On ch=2 n=g#3 v=68
6680 On ch=2 n=g#3 v=0
6680 On ch=1 n=b4 v=0
6680 On ch=1 n=a#4 v=70
6680 On ch=2 n=g3 v=70
6824 On ch=2 n=g3 v=0
6824 On ch=1 n=a#4 v=0
6824 On ch=1 n=e4 v=72
6824 On ch=2 n=d3 v=72
6968 On ch=2 n=d3 v=0
6968 On ch=1 n=e4 v=0
6968 On ch=1 n=d#4 v=74
6968 On ch=2 n=d#3 v=74
7112 On ch=2 n=d#3 v=0
7112 On ch=1 n=d#4 v=0
7112 On ch=1 n=b4 v=76
7112 On ch=2 n=g#3 v=76
7256 On ch=2 n=g#3 v=0
7256 On ch=1 n=b4 v=0
7256 On ch=1 n=a#4 v=78
7256 On ch=2 n=g3 v=78
7400 On ch=2 n=g3 v=0
7400 On ch=1 n=a#4 v=0
7400 On ch=1 n=e4 v=80
7400 On ch=2 n=d3 v=80
7544 On ch=2 n=d3 v=0
7544 On ch=1 n=e4 v=0
7544 On ch=1 n=d#4 v=82
7544 On ch=2 n=d#3 v=82
7688 On ch=2 n=d#3 v=0
7688 On ch=1 n=d#4 v=0
7688 On ch=1 n=b4 v=84
7688 On ch=2 n=g#3 v=84
7832 On ch=2 n=g#3 v=0
7832 On ch=1 n=b4 v=0
7832 On ch=1 n=a#4 v=86
7832 On ch=2 n=g3 v=86
7976 On ch=2 n=g3 v=0
7976 On ch=1 n=a#4 v=0
7976 On ch=1 n=e4 v=88
7976 On ch=2 n=d3 v=88
8120 On ch=2 n=d3 v=0
8120 On ch=1 n=e4 v=0
8120 On ch=1 n=d#4 v=90
8120 On ch=2 n=d#3 v=90
8268 On ch=2 n=d#3 v=0
8268 On ch=1 n=d#4 v=0
8268 On ch=1 n=b4 v=92
8268 On ch=2 n=g#3 v=92
8412 On ch=2 n=g#3 v=0
8412 On ch=1 n=b4 v=0
8412 On ch=1 n=a#4 v=94
8412 On ch=2 n=g3 v=94
8556 On ch=2 n=g3 v=0
8556 On ch=1 n=a#4 v=0
8556 On ch=1 n=e4 v=96
8556 On ch=2 n=d3 v=96
8700 On ch=2 n=d3 v=0
8700 On ch=1 n=e4 v=0
8700 On ch=1 n=d#4 v=98
8700 On ch=2 n=d#3 v=98
8844 On ch=2 n=d#3 v=0
8844 On ch=1 n=d#4 v=0
8844 Par ch=1 c=64 v=127
8844 On ch=1 n=e5 v=120
8844 Par ch=2 c=64 v=127
8844 On ch=2 n=b4 v=120
8844 On ch=2 n=g#4 v=120
8844 On ch=2 n=e4 v=120
8844 On ch=2 n=d#4 v=120
8844 Par ch=3 c=64 v=127
8844 On ch=3 n=d#3 v=120
8844 On ch=3 n=a#3 v=120
9420 On ch=3 n=a#3 v=0
9420 On ch=3 n=d#3 v=0
9420 On ch=2 n=d#4 v=0
9420 On ch=2 n=e4 v=0
9420 On ch=2 n=g#4 v=0
9420 On ch=2 n=b4 v=0
9420 On ch=1 n=e5 v=0
9420 Par ch=1 c=64 v=0
9420 Par ch=2 c=64 v=0
9420 Par ch=3 c=64 v=0
9708 On ch=1 n=a#4 v=60
9708 On ch=2 n=d4 v=60
9708 On ch=2 n=f4 v=60
9852 On ch=2 n=f4 v=0
9852 On ch=2 n=d4 v=0
9852 On ch=1 n=a#4 v=0
9852 On ch=1 n=b4 v=65
9852 On ch=2 n=d#4 v=65
9852 On ch=2 n=f#4 v=65
9996 On ch=2 n=f#4 v=0
9996 On ch=2 n=d#4 v=0
9996 On ch=1 n=b4 v=0
9996 On ch=1 n=c5 v=70
9996 On ch=2 n=e4 v=70
9996 On ch=2 n=g4 v=70
10140 On ch=2 n=g4 v=0
10140 On ch=2 n=e4 v=0
10140 On ch=1 n=c5 v=0
10140 On ch=1 n=c#5 v=75
10140 On ch=2 n=f4 v=75
10140 On ch=2 n=g#4 v=75
10284 On ch=2 n=g#4 v=0
10284 On ch=2 n=f4 v=0
10284 On ch=1 n=c#5 v=0
10284 On ch=1 n=d5 v=80
10284 On ch=2 n=f#4 v=80
10284 On ch=2 n=a4 v=80
10428 On ch=2 n=a4 v=0
10428 On ch=2 n=f#4 v=0
10428 On ch=1 n=d5 v=0
10428 On ch=1 n=d#5 v=85
10428 On ch=2 n=g4 v=85
10428 On ch=2 n=a#4 v=85
10572 On ch=2 n=a#4 v=0
10572 On ch=2 n=g4 v=0
10572 On ch=1 n=d#5 v=0
10572 On ch=1 n=e5 v=90
10572 On ch=2 n=g#4 v=90
10572 On ch=2 n=b4 v=90
10720 On ch=2 n=b4 v=0
10720 On ch=2 n=g#4 v=0
10720 On ch=1 n=e5 v=0
11152 On ch=1 n=b4 v=100
11152 On ch=1 n=g#4 v=100
11152 On ch=1 n=e4 v=100
11152 On ch=3 n=d#3 v=100
11152 On ch=3 n=b3 v=100
11296 On ch=3 n=b3 v=0
11296 On ch=3 n=d#3 v=0
11296 On ch=1 n=e4 v=0
11296 On ch=1 n=g#4 v=0
11296 On ch=1 n=b4 v=0
11728 On ch=1 n=c#5 v=100
11728 On ch=1 n=e5 v=100
11728 On ch=1 n=a#5 v=100
11728 On ch=1 n=c#6 v=100
11728 On ch=2 n=g4 v=100
11728 On ch=2 n=a#4 v=100
12304 On ch=2 n=a#4 v=0
12304 On ch=2 n=g4 v=0
12304 On ch=1 n=c#6 v=0
12304 On ch=1 n=a#5 v=0
12304 On ch=1 n=e5 v=0
12304 On ch=1 n=c#5 v=0
12304 On ch=1 n=b5 v=80
12304 On ch=1 n=g#5 v=80
12304 On ch=1 n=e5 v=80
12304 On ch=2 n=b4 v=80
12304 On ch=2 n=g#4 v=80
12736 On ch=2 n=g#4 v=0
12736 On ch=2 n=b4 v=0
12736 On ch=1 n=e5 v=0
12736 On ch=1 n=g#5 v=0
12736 On ch=1 n=b5 v=0
12880 On ch=1 n=c#5 v=50
12880 On ch=2 n=a#3 v=50
13024 On ch=2 n=a#3 v=0
13024 On ch=1 n=c#5 v=0
13024 On ch=1 n=b4 v=52
13024 On ch=2 n=g#3 v=52
13172 On ch=2 n=g#3 v=0
13172 On ch=1 n=b4 v=0
13172 On ch=1 n=f#4 v=55
13172 On ch=2 n=d#3 v=55
13316 On ch=2 n=d#3 v=0
13316 On ch=1 n=f#4 v=0
13316 On ch=1 n=e4 v=57
13316 On ch=2 n=e3 v=57
13460 On ch=2 n=e3 v=0
13460 On ch=1 n=e4 v=0
13460 On ch=1 n=c#5 v=60
13460 On ch=2 n=a#3 v=60
13604 On ch=2 n=a#3 v=0
13604 On ch=1 n=c#5 v=0
13604 On ch=1 n=b4 v=62
13604 On ch=2 n=g#3 v=62
13748 On ch=2 n=g#3 v=0
13748 On ch=1 n=b4 v=0
13748 On ch=1 n=f#4 v=65
13748 On ch=2 n=d#3 v=65
13892 On ch=2 n=d#3 v=0
13892 On ch=1 n=f#4 v=0
13892 On ch=1 n=e4 v=67
13892 On ch=2 n=e3 v=67
14036 On ch=2 n=e3 v=0
14036 On ch=1 n=e4 v=0
14036 On ch=1 n=c#5 v=70
14036 On ch=2 n=a#3 v=70
14180 On ch=2 n=a#3 v=0
14180 On ch=1 n=c#5 v=0
14180 On ch=1 n=b4 v=72
14180 On ch=2 n=g#3 v=72
14324 On ch=2 n=g#3 v=0
14324 On ch=1 n=b4 v=0
14324 On ch=1 n=f#4 v=75
14324 On ch=2 n=d#3 v=75
14468 On ch=2 n=d#3 v=0
14468 On ch=1 n=f#4 v=0
14468 On ch=1 n=e4 v=77
14468 On ch=2 n=e3 v=77
14612 On ch=2 n=e3 v=0
14612 On ch=1 n=e4 v=0
14612 On ch=1 n=c#5 v=80
14612 On ch=2 n=a#3 v=80
14756 On ch=2 n=a#3 v=0
14756 On ch=1 n=c#5 v=0
14756 On ch=1 n=b4 v=82
14756 On ch=2 n=g#3 v=82
14900 On ch=2 n=g#3 v=0
14900 On ch=1 n=b4 v=0
14900 On ch=1 n=f#4 v=85
14900 On ch=2 n=d#3 v=85
15044 On ch=2 n=d#3 v=0
15044 On ch=1 n=f#4 v=0
15044 On ch=1 n=e4 v=87
15044 On ch=2 n=e3 v=87
15188 On ch=2 n=e3 v=0
15188 On ch=1 n=e4 v=0
15188 On ch=1 n=c#5 v=90
15188 On ch=2 n=a#3 v=90
15332 On ch=2 n=a#3 v=0
15332 On ch=1 n=c#5 v=0
15332 On ch=1 n=b4 v=92
15332 On ch=2 n=g#3 v=92
15476 On ch=2 n=g#3 v=0
15476 On ch=1 n=b4 v=0
15476 On ch=1 n=f#4 v=95
15476 On ch=2 n=d#3 v=95
15620 On ch=2 n=d#3 v=0
15620 On ch=1 n=f#4 v=0
15620 On ch=1 n=e4 v=97
15620 On ch=2 n=e3 v=97
15768 On ch=2 n=e3 v=0
15768 On ch=1 n=e4 v=0
15768 Par ch=1 c=64 v=127
15768 On ch=1 n=c5 v=120
15768 On ch=1 n=f5 v=120
15768 Par ch=2 c=64 v=127
15768 On ch=2 n=d#4 v=120
15768 On ch=2 n=f4 v=120
15768 On ch=2 n=a4 v=120
15768 Par ch=3 c=64 v=127
15768 On ch=3 n=d#3 v=120
15768 On ch=3 n=a3 v=120
16344 On ch=3 n=a3 v=0
16344 On ch=3 n=d#3 v=0
16344 On ch=2 n=a4 v=0
16344 On ch=2 n=f4 v=0
16344 On ch=2 n=d#4 v=0
16344 On ch=1 n=f5 v=0
16344 On ch=1 n=c5 v=0
16344 Par ch=1 c=64 v=0
16344 Par ch=2 c=64 v=0
16344 Par ch=3 c=64 v=0
16632 On ch=1 n=d5 v=60
16632 On ch=2 n=f#4 v=60
16632 On ch=2 n=a4 v=60
16776 On ch=2 n=a4 v=0
16776 On ch=2 n=f#4 v=0
16776 On ch=1 n=d5 v=0
16776 On ch=1 n=d#5 v=65
16776 On ch=2 n=g4 v=65
16776 On ch=2 n=a#4 v=65
16920 On ch=2 n=a#4 v=0
16920 On ch=2 n=g4 v=0
16920 On ch=1 n=d#5 v=0
16920 On ch=1 n=e5 v=70
16920 On ch=2 n=g#4 v=70
16920 On ch=2 n=b4 v=70
17064 On ch=2 n=b4 v=0
17064 On ch=2 n=g#4 v=0
17064 On ch=1 n=e5 v=0
17064 On ch=1 n=c5 v=75
17064 On ch=1 n=f5 v=75
17064 On ch=2 n=a4 v=75
17208 On ch=2 n=a4 v=0
17208 On ch=1 n=f5 v=0
17208 On ch=1 n=c5 v=0
17208 On ch=1 n=c#5 v=80
17208 On ch=1 n=g5 v=80
17208 On ch=2 n=a#4 v=80
17352 On ch=2 n=a#4 v=0
17352 On ch=1 n=g5 v=0
17352 On ch=1 n=c#5 v=0
17352 On ch=1 n=d5 v=85
17352 On ch=1 n=g#5 v=85
17352 On ch=2 n=b4 v=85
17496 On ch=2 n=b4 v=0
17496 On ch=1 n=g#5 v=0
17496 On ch=1 n=d5 v=0
17496 On ch=1 n=c5 v=90
17496 On ch=1 n=d#5 v=90
17496 On ch=1 n=a5 v=90
17640 On ch=1 n=a5 v=0
17640 On ch=1 n=d#5 v=0
17640 On ch=1 n=c5 v=0
18072 Par ch=1 c=64 v=127
18072 On ch=1 n=c5 v=100
18072 On ch=1 n=f5 v=100
18072 Par ch=2 c=64 v=127
18072 On ch=2 n=d#4 v=100
18072 On ch=2 n=f4 v=100
18072 On ch=2 n=a4 v=100
18072 Par ch=3 c=64 v=127
18072 On ch=3 n=d#3 v=100
18220 On ch=3 n=d#3 v=0
18220 On ch=2 n=a4 v=0
18220 On ch=2 n=f4 v=0
18220 On ch=2 n=d#4 v=0
18220 On ch=1 n=f5 v=0
18220 On ch=1 n=c5 v=0
18652 Par ch=1 c=64 v=0
18652 On ch=1 n=f5 v=100
18652 On ch=1 n=c6 v=100
18652 Par ch=2 c=64 v=0
18652 On ch=2 n=c5 v=100
18652 On ch=2 n=d#5 v=100
18652 Par ch=3 c=64 v=0
18652 On ch=3 n=d#4 v=100
18652 On ch=3 n=a4 v=100
19228 On ch=3 n=a4 v=0
19228 On ch=3 n=d#4 v=0
19228 On ch=2 n=d#5 v=0
19228 On ch=2 n=c5 v=0
19228 On ch=1 n=c6 v=0
19228 On ch=1 n=f5 v=0
19228 Par ch=1 c=64 v=127
19228 On ch=1 n=d5 v=120
19228 On ch=1 n=f5 v=120
19228 On ch=1 n=a#5 v=120
19228 Par ch=2 c=64 v=127
19228 On ch=2 n=g#4 v=120
19228 On ch=2 n=a#4 v=120
19228 Par ch=3 c=64 v=127
19228 On ch=3 n=d#2 v=120
19228 On ch=3 n=d#3 v=120
19804 On ch=3 n=d#3 v=0
19804 On ch=3 n=d#2 v=0
19804 On ch=2 n=a#4 v=0
19804 On ch=2 n=g#4 v=0
19804 On ch=1 n=a#5 v=0
19804 On ch=1 n=f5 v=0
19804 On ch=1 n=d5 v=0
19804 Par ch=1 c=64 v=0
19804 Par ch=2 c=64 v=0
19804 Par ch=3 c=64 v=0
20092 On ch=1 n=e5 v=60
20092 On ch=2 n=g#4 v=60
20092 On ch=2 n=b4 v=60
20236 On ch=2 n=b4 v=0
20236 On ch=2 n=g#4 v=0
20236 On ch=1 n=e5 v=0
20236 On ch=1 n=c5 v=65
20236 On ch=1 n=f5 v=65
20236 On ch=2 n=a4 v=65
20380 On ch=2 n=a4 v=0
20380 On ch=1 n=f5 v=0
20380 On ch=1 n=c5 v=0
20380 On ch=1 n=c#5 v=70
20380 On ch=1 n=f#5 v=70
20380 On ch=2 n=a#4 v=70
20524 On ch=2 n=a#4 v=0
20524 On ch=1 n=f#5 v=0
20524 On ch=1 n=c#5 v=0
20524 On ch=1 n=d5 v=75
20524 On ch=1 n=g5 v=75
20524 On ch=2 n=b4 v=75
20672 On ch=2 n=b4 v=0
20672 On ch=1 n=g5 v=0
20672 On ch=1 n=d5 v=0
20672 On ch=1 n=d#5 v=80
20672 On ch=1 n=g#5 v=80
20816 On ch=1 n=g#5 v=0
20816 On ch=1 n=d#5 v=0
20816 On ch=1 n=c#5 v=85
20816 On ch=1 n=e5 v=85
20816 On ch=1 n=a5 v=85
20960 On ch=1 n=a5 v=0
20960 On ch=1 n=e5 v=0
20960 On ch=1 n=c#5 v=0
20960 On ch=1 n=d5 v=90
20960 On ch=1 n=f5 v=90
20960 On ch=1 n=a#5 v=90
21104 On ch=1 n=a#5 v=0
21104 On ch=1 n=f5 v=0
21104 On ch=1 n=d5 v=0
21536 Par ch=1 c=64 v=127
21536 On ch=1 n=d5 v=100
21536 On ch=1 n=f5 v=100
21536 Par ch=2 c=64 v=127
21536 On ch=2 n=d#4 v=100
21536 On ch=2 n=f4 v=100
21536 On ch=2 n=a#4 v=100
21536 Par ch=3 c=64 v=127
21536 On ch=3 n=d#3 v=100
21680 On ch=3 n=d#3 v=0
21680 On ch=2 n=a#4 v=0
21680 On ch=2 n=f4 v=0
21680 On ch=2 n=d#4 v=0
21680 On ch=1 n=f5 v=0
21680 On ch=1 n=d5 v=0
22112 Par ch=1 c=64 v=0
22112 On ch=1 n=a#5 v=100
22112 On ch=1 n=f6 v=100
22112 Par ch=2 c=64 v=0
22112 On ch=2 n=d5 v=100
22112 On ch=2 n=f5 v=100
22112 On ch=2 n=g#5 v=100
22112 Par ch=3 c=64 v=0
22112 On ch=3 n=g#4 v=100
22112 On ch=3 n=a#4 v=100
22688 On ch=3 n=a#4 v=0
22688 On ch=3 n=g#4 v=0
22688 On ch=2 n=g#5 v=0
22688 On ch=2 n=f5 v=0
22688 On ch=2 n=d5 v=0
22688 On ch=1 n=f6 v=0
22688 On ch=1 n=a#5 v=0
22688 Par ch=1 c=64 v=127
22688 On ch=1 n=d#6 v=100
22688 On ch=1 n=a#5 v=100
22688 On ch=1 n=g5 v=100
22688 Par ch=1 c=64 v=0
22688 Par ch=1 c=64 v=127
22688 Par ch=1 c=64 v=0
22688 Par ch=1 c=64 v=127
22688 Par ch=2 c=64 v=127
22688 Par ch=2 c=64 v=0
22688 Par ch=2 c=64 v=127
22688 On ch=2 n=c#5 v=100
22688 On ch=2 n=d#5 v=100
22688 Par ch=2 c=64 v=0
22688 Par ch=2 c=64 v=127
22688 Par ch=3 c=64 v=127
22688 Par ch=3 c=64 v=0
22688 Par ch=3 c=64 v=127
22688 Par ch=3 c=64 v=0
22688 Par ch=3 c=64 v=127
22688 On ch=3 n=d#2 v=100
22688 On ch=3 n=d#3 v=100
22976 On ch=3 n=d#3 v=0
22976 On ch=3 n=d#2 v=0
22976 On ch=2 n=d#5 v=0
22976 On ch=2 n=c#5 v=0
22976 On ch=1 n=g5 v=0
22976 On ch=1 n=a#5 v=0
22976 On ch=1 n=d#6 v=0
23268 Par ch=1 c=64 v=0
23268 On ch=1 n=c#6 v=60
23268 On ch=1 n=f6 v=60
23268 Par ch=2 c=64 v=0
23268 On ch=2 n=a#3 v=60
23268 Par ch=3 c=64 v=0
23268 On ch=3 n=a#2 v=60
23412 On ch=1 n=f6 v=0
23412 On ch=1 n=c#6 v=0
23412 On ch=1 n=g#5 v=60
23484 On ch=3 n=a#2 v=0
23484 On ch=2 n=a#3 v=0
23556 On ch=1 n=g#5 v=0
23556 On ch=1 n=g5 v=60
23556 On ch=2 n=d#4 v=60
23556 On ch=3 n=d#3 v=60
23664 On ch=3 n=d#3 v=0
23664 On ch=2 n=d#4 v=0
23700 On ch=1 n=g5 v=0
23700 On ch=1 n=d#6 v=60
23700 On ch=2 n=f4 v=60
23700 On ch=3 n=f3 v=60
23808 On ch=3 n=f3 v=0
23808 On ch=2 n=f4 v=0
23844 On ch=1 n=d#6 v=0
23844 On ch=1 n=c#6 v=60
23844 On ch=1 n=f6 v=60
23844 On ch=2 n=g4 v=60
23844 On ch=3 n=g3 v=60
23952 On ch=3 n=g3 v=0
23952 On ch=2 n=g4 v=0
23988 On ch=1 n=f6 v=0
23988 On ch=1 n=c#6 v=0
23988 On ch=1 n=g#5 v=60
23988 On ch=2 n=g#4 v=60
23988 On ch=3 n=g#3 v=60
24096 On ch=3 n=g#3 v=0
24096 On ch=2 n=g#4 v=0
24132 On ch=1 n=g#5 v=0
24132 On ch=1 n=g5 v=60
24132 On ch=2 n=a#4 v=60
24132 On ch=3 n=a#3 v=60
24240 On ch=3 n=a#3 v=0
24240 On ch=2 n=a#4 v=0
24276 On ch=1 n=g5 v=0
24276 On ch=1 n=d#6 v=60
24276 On ch=2 n=c5 v=60
24276 On ch=3 n=c4 v=60
24384 On ch=3 n=c4 v=0
24384 On ch=2 n=c5 v=0
24420 On ch=1 n=d#6 v=0
24420 On ch=1 n=f6 v=60
24420 On ch=1 n=a#5 v=60
24420 On ch=2 n=c#5 v=60
24420 On ch=3 n=c#4 v=60
24564 On ch=1 n=a#5 v=0
24564 On ch=1 n=f6 v=0
24564 On ch=1 n=g5 v=60
24708 On ch=1 n=g5 v=0
24708 On ch=3 n=c#4 v=0
24708 On ch=2 n=c#5 v=0
24708 On ch=1 n=d#5 v=60
24852 On ch=1 n=d#5 v=0
24852 On ch=1 n=d#6 v=60
24996 On ch=1 n=d#6 v=0
24996 On ch=1 n=c6 v=60
24996 On ch=1 n=f6 v=60
24996 On ch=2 n=d#4 v=60
24996 On ch=3 n=d#3 v=60
25140 On ch=1 n=f6 v=0
25140 On ch=1 n=c6 v=0
25140 On ch=1 n=g5 v=60
25284 On ch=1 n=g5 v=0
25284 On ch=3 n=d#3 v=0
25284 On ch=2 n=d#4 v=0
25284 On ch=1 n=d#5 v=60
25428 On ch=1 n=d#5 v=0
25428 On ch=1 n=d#6 v=60
25572 On ch=1 n=d#6 v=0
25572 Par ch=1 c=64 v=127
25572 On ch=1 n=c#6 v=60
25572 On ch=1 n=f6 v=60
25572 Par ch=2 c=64 v=127
25572 On ch=2 n=g5 v=60
25572 Par ch=3 c=64 v=127
25572 On ch=3 n=g4 v=60
25720 On ch=1 n=f6 v=0
25720 On ch=1 n=c#6 v=0
25720 On ch=1 n=g#5 v=61
25864 On ch=1 n=g#5 v=0
25864 On ch=1 n=g5 v=63
26008 On ch=1 n=g5 v=0
26008 On ch=1 n=d#6 v=64
26152 On ch=1 n=d#6 v=0
26152 On ch=3 n=g4 v=0
26152 On ch=1 n=c#6 v=66
26152 On ch=1 n=f6 v=66
26296 On ch=1 n=f6 v=0
26296 On ch=1 n=c#6 v=0
26296 On ch=2 n=g5 v=0
26296 On ch=1 n=g#5 v=67
26296 On ch=2 n=c#5 v=67
26440 On ch=2 n=c#5 v=0
26440 On ch=1 n=g#5 v=0
26440 On ch=1 n=g5 v=69
26440 On ch=2 n=a#4 v=69
26584 On ch=2 n=a#4 v=0
26584 On ch=1 n=g5 v=0
26584 On ch=1 n=d#6 v=70
26584 On ch=2 n=d#4 v=70
26728 On ch=2 n=d#4 v=0
26728 On ch=1 n=d#6 v=0
26728 On ch=1 n=c#6 v=71
26728 On ch=1 n=f6 v=71
26728 On ch=2 n=g5 v=71
26872 On ch=2 n=g5 v=0
26872 On ch=1 n=f6 v=0
26872 On ch=1 n=c#6 v=0
26872 On ch=1 n=g#5 v=73
26872 On ch=2 n=c#5 v=73
27016 On ch=2 n=c#5 v=0
27016 On ch=1 n=g#5 v=0
27016 On ch=1 n=g5 v=74
27016 On ch=2 n=a#4 v=74
27160 On ch=2 n=a#4 v=0
27160 On ch=1 n=g5 v=0
27160 On ch=1 n=d#6 v=76
27160 On ch=2 n=d#4 v=76
27304 On ch=2 n=d#4 v=0
27304 On ch=1 n=d#6 v=0
27304 On ch=1 n=c#6 v=77
27304 On ch=1 n=f6 v=77
27304 On ch=2 n=g5 v=77
27448 On ch=2 n=g5 v=0
27448 On ch=1 n=f6 v=0
27448 On ch=1 n=c#6 v=0
27448 On ch=1 n=g#5 v=79
27448 On ch=2 n=c#5 v=79
27592 On ch=2 n=c#5 v=0
27592 On ch=1 n=g#5 v=0
27592 On ch=1 n=g5 v=80
27592 On ch=2 n=a#4 v=80
27736 On ch=2 n=a#4 v=0
27736 On ch=1 n=g5 v=0
27736 On ch=1 n=d#6 v=81
27736 On ch=2 n=d#4 v=81
27880 On ch=2 n=d#4 v=0
27880 On ch=1 n=d#6 v=0
27880 On ch=1 n=c#6 v=83
27880 On ch=1 n=f6 v=83
27880 On ch=2 n=g5 v=83
28028 On ch=2 n=g5 v=0
28028 On ch=1 n=f6 v=0
28028 On ch=1 n=c#6 v=0
28028 On ch=1 n=g#5 v=84
28028 On ch=2 n=c#5 v=84
28188 On ch=2 n=c#5 v=0
28188 On ch=1 n=g#5 v=0
28188 On ch=1 n=g5 v=86
28188 On ch=2 n=a#4 v=86
28352 On ch=2 n=a#4 v=0
28352 On ch=1 n=g5 v=0
28352 On ch=1 n=d#6 v=87
28352 On ch=2 n=d#4 v=87
28528 On ch=2 n=d#4 v=0
28528 On ch=1 n=d#6 v=0
28528 On ch=1 n=c#6 v=89
28528 On ch=1 n=f6 v=89
28528 On ch=2 n=c#5 v=89
28712 On ch=2 n=c#5 v=0
28712 On ch=1 n=f6 v=0
28712 On ch=1 n=c#6 v=0
28712 On ch=1 n=g#5 v=90
28712 On ch=2 n=g4 v=90
28904 On ch=2 n=g4 v=0
28904 On ch=1 n=g#5 v=0
28904 On ch=1 n=g5 v=91
28904 On ch=2 n=d#4 v=91
29104 On ch=2 n=d#4 v=0
29104 On ch=1 n=g5 v=0
29104 On ch=1 n=d#6 v=93
29104 On ch=2 n=a#3 v=93
29316 On ch=2 n=a#3 v=0
29316 On ch=1 n=d#6 v=0
29316 On ch=1 n=c#6 v=94
29316 On ch=1 n=f6 v=94
29316 On ch=2 n=g4 v=94
29536 On ch=2 n=g4 v=0
29536 On ch=1 n=f6 v=0
29536 On ch=1 n=c#6 v=0
29536 On ch=1 n=g#5 v=96
29536 On ch=2 n=c#4 v=96
29764 On ch=2 n=c#4 v=0
29764 On ch=1 n=g#5 v=0
29764 On ch=1 n=g5 v=97
29764 On ch=2 n=a#3 v=97
30000 On ch=2 n=a#3 v=0
30000 On ch=1 n=g5 v=0
30000 On ch=1 n=d#6 v=99
30000 On ch=2 n=d#3 v=99
30244 On ch=2 n=d#3 v=0
30244 On ch=1 n=d#6 v=0
30244 Par ch=1 c=64 v=0
30244 Par ch=1 c=64 v=127
30244 On ch=1 n=f6 v=120
30244 Par ch=2 c=64 v=0
30244 Par ch=2 c=64 v=127
30244 On ch=2 n=c#6 v=120
30244 Par ch=3 c=64 v=0
30244 Par ch=3 c=64 v=127
30244 On ch=3 n=g#2 v=120
30244 On ch=3 n=g#3 v=120
30500 On ch=3 n=g#3 v=0
30500 On ch=3 n=g#2 v=0
30584 On ch=3 n=d#4 v=110
30584 On ch=3 n=d#5 v=110
30756 On ch=2 n=c#6 v=0
30756 On ch=1 n=f6 v=0
30756 On ch=1 n=d#6 v=105
30756 On ch=2 n=c6 v=105
30924 On ch=2 n=c6 v=0
30924 On ch=1 n=d#6 v=0
30924 On ch=3 n=d#5 v=0
30924 On ch=3 n=d#4 v=0
30924 Par ch=1 c=64 v=0
30924 On ch=1 n=d#6 v=100
30924 Par ch=2 c=64 v=0
30924 On ch=2 n=c6 v=100
30924 Par ch=3 c=64 v=0
30924 On ch=3 n=g#5 v=100
30924 On ch=3 n=c5 v=100
30924 On ch=3 n=g#4 v=100
31268 On ch=3 n=g#4 v=0
31268 On ch=3 n=c5 v=0
31268 On ch=3 n=g#5 v=0
31268 On ch=3 n=d#3 v=100
31268 On ch=3 n=d#4 v=100
31524 On ch=3 n=d#4 v=0
31524 On ch=3 n=d#3 v=0
31608 On ch=2 n=c6 v=0
31608 On ch=1 n=d#6 v=0
31608 On ch=3 n=g#4 v=100
31608 On ch=3 n=g#3 v=100
31864 On ch=3 n=g#3 v=0
31864 On ch=3 n=g#4 v=0
31948 On ch=1 n=c6 v=100
31948 On ch=2 n=g#5 v=100
31948 On ch=3 n=d#2 v=100
31948 On ch=3 n=d#3 v=100
32120 On ch=2 n=g#5 v=0
32120 On ch=1 n=c6 v=0
32120 On ch=1 n=c#6 v=100
32120 On ch=2 n=a#5 v=100
32288 On ch=2 n=a#5 v=0
32288 On ch=1 n=c#6 v=0
32288 On ch=3 n=d#3 v=0
32288 On ch=3 n=d#2 v=0
32288 Par ch=1 c=64 v=127
32288 On ch=1 n=f6 v=100
32288 Par ch=2 c=64 v=127
32288 On ch=2 n=c#6 v=100
32288 Par ch=3 c=64 v=127
32288 On ch=3 n=g#2 v=100
32288 On ch=3 n=g#3 v=100
32460 On ch=2 n=c#6 v=0
32460 On ch=1 n=f6 v=0
32460 On ch=1 n=d#6 v=100
32460 On ch=2 n=c6 v=100
32544 On ch=3 n=g#3 v=0
32544 On ch=3 n=g#2 v=0
32588 On ch=1 n=d#6 v=0
32588 On ch=1 n=f6 v=100
32632 On ch=1 n=f6 v=0
32632 On ch=1 n=d#6 v=100
32632 On ch=3 n=d#4 v=100
32632 On ch=3 n=d#5 v=100
32800 On ch=1 n=d#6 v=0
32800 On ch=2 n=c6 v=0
32800 On ch=1 n=d6 v=100
32800 Par ch=1 c=64 v=0
32800 Par ch=2 c=64 v=0
32800 On ch=2 n=b5 v=100
32800 Par ch=3 c=64 v=0
32972 On ch=2 n=b5 v=0
32972 On ch=1 n=d6 v=0
32972 On ch=3 n=d#5 v=0
32972 On ch=3 n=d#4 v=0
32972 On ch=1 n=d#6 v=100
32972 On ch=2 n=c6 v=100
32972 On ch=3 n=g#5 v=100
32972 On ch=3 n=c5 v=100
32972 On ch=3 n=g#4 v=100
33312 On ch=3 n=g#4 v=0
33312 On ch=3 n=c5 v=0
33312 On ch=3 n=g#5 v=0
33312 On ch=3 n=d#3 v=100
33312 On ch=3 n=d#4 v=100
33568 On ch=3 n=d#4 v=0
33568 On ch=3 n=d#3 v=0
33652 On ch=2 n=c6 v=0
33652 On ch=1 n=d#6 v=0
33652 On ch=3 n=g#4 v=100
33652 On ch=3 n=g#3 v=100
33908 On ch=3 n=g#3 v=0
33908 On ch=3 n=g#4 v=0
33996 On ch=1 n=c6 v=100
33996 On ch=2 n=g#5 v=100
33996 On ch=3 n=d#2 v=100
33996 On ch=3 n=d#3 v=100
34164 On ch=2 n=g#5 v=0
34164 On ch=1 n=c6 v=0
34164 On ch=1 n=c#6 v=100
34164 On ch=2 n=a#5 v=100
34336 On ch=2 n=a#5 v=0
34336 On ch=1 n=c#6 v=0
34336 On ch=3 n=d#3 v=0
34336 On ch=3 n=d#2 v=0
34336 Par ch=1 c=64 v=127
34336 On ch=1 n=f6 v=100
34336 Par ch=2 c=64 v=127
34336 On ch=2 n=c#6 v=100
34336 Par ch=3 c=64 v=127
34336 On ch=3 n=g#2 v=100
34336 On ch=3 n=g#3 v=100
34504 On ch=2 n=c#6 v=0
34504 On ch=1 n=f6 v=0
34504 On ch=1 n=d#6 v=100
34504 On ch=2 n=c6 v=100
34592 On ch=3 n=g#3 v=0
34592 On ch=3 n=g#2 v=0
34632 On ch=1 n=d#6 v=0
34632 On ch=1 n=f6 v=100
34676 On ch=1 n=f6 v=0
34676 On ch=1 n=d#6 v=100
34676 On ch=3 n=d#4 v=100
34676 On ch=3 n=d#5 v=100
34848 On ch=1 n=d#6 v=0
34848 On ch=2 n=c6 v=0
34848 On ch=1 n=d6 v=100
34848 On ch=2 n=b5 v=100
35016 On ch=2 n=b5 v=0
35016 On ch=1 n=d6 v=0
35016 On ch=3 n=d#5 v=0
35016 On ch=3 n=d#4 v=0
35016 Par ch=1 c=64 v=0
35016 On ch=1 n=f6 v=100
35016 Par ch=2 c=64 v=0
35016 On ch=2 n=c#6 v=100
35016 Par ch=3 c=64 v=0
35016 On ch=3 n=g#5 v=100
35016 On ch=3 n=c5 v=100
35016 On ch=3 n=g#4 v=100
35188 On ch=2 n=c#6 v=0
35188 On ch=1 n=f6 v=0
35188 On ch=1 n=d#6 v=100
35188 On ch=2 n=c6 v=100
35316 On ch=1 n=d#6 v=0
35316 On ch=1 n=f6 v=100
35356 On ch=1 n=f6 v=0
35356 On ch=3 n=g#4 v=0
35356 On ch=3 n=c5 v=0
35356 On ch=3 n=g#5 v=0
35356 On ch=1 n=d#6 v=100
35356 On ch=3 n=d#3 v=100
35356 On ch=3 n=d#4 v=100
35528 On ch=1 n=d#6 v=0
35528 On ch=2 n=c6 v=0
35528 On ch=1 n=d6 v=100
35528 On ch=2 n=b5 v=100
35612 On ch=3 n=d#4 v=0
35612 On ch=3 n=d#3 v=0
35700 On ch=2 n=b5 v=0
35700 On ch=1 n=d6 v=0
35700 On ch=1 n=d#6 v=100
35700 On ch=2 n=c6 v=100
35700 On ch=3 n=g#4 v=100
35700 On ch=3 n=g#3 v=100
35868 On ch=2 n=c6 v=0
35868 On ch=1 n=d#6 v=0
35956 On ch=3 n=g#3 v=0
35956 On ch=3 n=g#4 v=0
36040 Par ch=1 c=64 v=127
36040 Par ch=2 c=64 v=127
36040 On ch=2 n=d#5 v=100
36040 Par ch=3 c=64 v=127
36040 On ch=3 n=d#3 v=100
36084 On ch=2 n=a#5 v=100
36084 On ch=3 n=a#3 v=100
36124 On ch=2 n=f#6 v=100
36124 On ch=3 n=f#4 v=100
36380 On ch=3 n=f#4 v=0
36380 On ch=2 n=f#6 v=0
36380 On ch=3 n=a#3 v=0
36380 On ch=2 n=a#5 v=0
36380 On ch=3 n=d#3 v=0
36380 On ch=2 n=d#5 v=0
36380 Par ch=1 c=64 v=0
36380 Par ch=1 c=64 v=127
36380 Par ch=1 c=64 v=0
36380 Par ch=1 c=64 v=127
36380 Par ch=2 c=64 v=0
36380 Par ch=2 c=64 v=127
36380 On ch=2 n=d#5 v=100
36380 On ch=2 n=a5 v=100
36380 On ch=2 n=f6 v=100
36380 Par ch=2 c=64 v=0
36380 Par ch=2 c=64 v=127
36380 Par ch=3 c=64 v=0
36380 Par ch=3 c=64 v=127
36380 Par ch=3 c=64 v=0
36380 Par ch=3 c=64 v=127
36380 On ch=3 n=f3 v=100
36424 On ch=3 n=c4 v=100
36464 On ch=3 n=d#4 v=100
36508 On ch=3 n=a4 v=100
36720 On ch=3 n=a4 v=0
36720 On ch=3 n=d#4 v=0
36720 On ch=3 n=c4 v=0
36720 On ch=3 n=f3 v=0
36720 On ch=2 n=f6 v=0
36720 On ch=2 n=a5 v=0
36720 On ch=2 n=d#5 v=0
36720 On ch=2 n=f5 v=100
36720 On ch=2 n=a5 v=100
36720 On ch=2 n=c6 v=100
36720 On ch=3 n=c4 v=100
36764 On ch=3 n=f4 v=100
36808 On ch=3 n=a4 v=100
36848 On ch=3 n=d#5 v=100
37064 On ch=3 n=d#5 v=0
37064 On ch=3 n=a4 v=0
37064 On ch=3 n=f4 v=0
37064 On ch=3 n=c4 v=0
37064 On ch=2 n=c6 v=0
37064 On ch=2 n=a5 v=0
37064 On ch=2 n=f5 v=0
37064 Par ch=1 c=64 v=0
37064 Par ch=1 c=64 v=127
37064 Par ch=1 c=64 v=0
37064 Par ch=1 c=64 v=127
37064 Par ch=2 c=64 v=0
37064 Par ch=2 c=64 v=127
37064 On ch=2 n=f5 v=100
37064 On ch=2 n=a#5 v=100
37064 On ch=2 n=c#6 v=100
37064 Par ch=2 c=64 v=0
37064 Par ch=2 c=64 v=127
37064 Par ch=3 c=64 v=0
37064 Par ch=3 c=64 v=127
37064 Par ch=3 c=64 v=0
37064 Par ch=3 c=64 v=127
37064 On ch=3 n=a#3 v=100
37104 On ch=3 n=f4 v=100
37148 On ch=3 n=a#4 v=100
37192 On ch=3 n=c#5 v=100
37232 On ch=2 n=c#6 v=0
37232 On ch=2 n=a#5 v=0
37232 On ch=2 n=f5 v=0
37404 On ch=3 n=c#5 v=0
37404 On ch=3 n=a#4 v=0
37404 On ch=3 n=f4 v=0
37404 On ch=3 n=a#3 v=0
37404 Par ch=1 c=64 v=0
37404 Par ch=2 c=64 v=0
37404 On ch=2 n=f#5 v=100
37404 Par ch=3 c=64 v=0
37404 On ch=3 n=f#3 v=100
37404 On ch=3 n=f#2 v=100
37516 On ch=2 n=f#5 v=0
37516 On ch=2 n=f#4 v=100
37632 On ch=2 n=f#4 v=0
37632 On ch=2 n=f#5 v=100
37744 On ch=2 n=f#5 v=0
37744 On ch=3 n=f#2 v=0
37744 On ch=3 n=f#3 v=0
37744 On ch=2 n=f4 v=100
37744 On ch=2 n=f5 v=100
37744 On ch=3 n=f2 v=100
37744 On ch=3 n=f3 v=100
38084 On ch=3 n=f3 v=0
38084 On ch=3 n=f2 v=0
38084 On ch=2 n=f5 v=0
38084 On ch=2 n=f4 v=0
38084 On ch=2 n=c#5 v=100
38084 On ch=3 n=c#3 v=100
38084 On ch=3 n=c#4 v=100
38340 On ch=2 n=c#5 v=0
38340 On ch=2 n=f#5 v=100
38424 On ch=2 n=f#5 v=0
38424 On ch=3 n=c#4 v=0
38424 On ch=3 n=c#3 v=0
38424 Par ch=1 c=64 v=127
38424 On ch=1 n=f#6 v=100
38424 Par ch=2 c=64 v=127
38424 On ch=2 n=d#6 v=100
38424 Par ch=3 c=64 v=127
38424 On ch=3 n=a#2 v=100
38424 On ch=3 n=a#3 v=100
38680 On ch=3 n=a#3 v=0
38680 On ch=3 n=a#2 v=0
38768 On ch=3 n=f4 v=100
38768 On ch=3 n=f5 v=100
38936 On ch=2 n=d#6 v=0
38936 On ch=1 n=f#6 v=0
38936 On ch=1 n=f6 v=100
38936 On ch=2 n=c#6 v=100
39108 On ch=2 n=c#6 v=0
39108 On ch=1 n=f6 v=0
39108 On ch=3 n=f5 v=0
39108 On ch=3 n=f4 v=0
39108 Par ch=1 c=64 v=0
39108 On ch=1 n=f6 v=100
39108 Par ch=2 c=64 v=0
39108 On ch=2 n=c#6 v=100
39108 Par ch=3 c=64 v=0
39108 On ch=3 n=a#5 v=100
39108 On ch=3 n=c#5 v=100
39108 On ch=3 n=a#4 v=100
39448 On ch=3 n=a#4 v=0
39448 On ch=3 n=c#5 v=0
39448 On ch=3 n=a#5 v=0
39448 On ch=3 n=f3 v=100
39448 On ch=3 n=f4 v=100
39704 On ch=3 n=f4 v=0
39704 On ch=3 n=f3 v=0
39788 On ch=2 n=c#6 v=0
39788 On ch=1 n=f6 v=0
39788 On ch=3 n=a#4 v=100
39788 On ch=3 n=a#3 v=100
40044 On ch=3 n=a#3 v=0
40044 On ch=3 n=a#4 v=0
40132 On ch=1 n=c#6 v=100
40132 On ch=2 n=a#5 v=100
40132 On ch=3 n=f2 v=100
40132 On ch=3 n=f3 v=100
40300 On ch=2 n=a#5 v=0
40300 On ch=1 n=c#6 v=0
40300 On ch=1 n=d#6 v=100
40300 On ch=2 n=c6 v=100
40472 On ch=2 n=c6 v=0
40472 On ch=1 n=d#6 v=0
40472 On ch=3 n=f3 v=0
40472 On ch=3 n=f2 v=0
40472 Par ch=1 c=64 v=127
40472 On ch=1 n=f#6 v=100
40472 Par ch=2 c=64 v=127
40472 On ch=2 n=d#6 v=100
40472 Par ch=3 c=64 v=127
40472 On ch=3 n=a#2 v=100
40472 On ch=3 n=a#3 v=100
40640 On ch=2 n=d#6 v=0
40640 On ch=1 n=f#6 v=0
40640 On ch=1 n=f6 v=100
40640 On ch=2 n=c#6 v=100
40728 On ch=3 n=a#3 v=0
40728 On ch=3 n=a#2 v=0
40768 On ch=1 n=f6 v=0
40768 On ch=1 n=f#6 v=100
40812 On ch=1 n=f#6 v=0
40812 On ch=1 n=f6 v=100
40812 On ch=3 n=f4 v=100
40812 On ch=3 n=f5 v=100
40984 On ch=1 n=f6 v=0
40984 On ch=2 n=c#6 v=0
40984 On ch=1 n=e6 v=100
40984 On ch=2 n=c6 v=100
41152 On ch=2 n=c6 v=0
41152 On ch=1 n=e6 v=0
41152 On ch=3 n=f5 v=0
41152 On ch=3 n=f4 v=0
41152 Par ch=1 c=64 v=0
41152 On ch=1 n=f6 v=100
41152 Par ch=2 c=64 v=0
41152 On ch=2 n=c#6 v=100
41152 Par ch=3 c=64 v=0
41152 On ch=3 n=a#5 v=100
41152 On ch=3 n=c#5 v=100
41152 On ch=3 n=a#4 v=100
41496 On ch=3 n=a#4 v=0
41496 On ch=3 n=c#5 v=0
41496 On ch=3 n=a#5 v=0
41496 On ch=3 n=f3 v=100
41496 On ch=3 n=f4 v=100
41748 On ch=3 n=f4 v=0
41748 On ch=3 n=f3 v=0
41836 On ch=2 n=c#6 v=0
41836 On ch=1 n=f6 v=0
41836 On ch=3 n=a#4 v=100
41836 On ch=3 n=a#3 v=100
42092 On ch=3 n=a#3 v=0
42092 On ch=3 n=a#4 v=0
42176 On ch=1 n=g6 v=100
42176 On ch=1 n=c#6 v=100
42176 On ch=2 n=g5 v=100
42176 On ch=3 n=a#3 v=100
42176 On ch=3 n=a#2 v=100
42348 On ch=2 n=g5 v=0
42348 On ch=1 n=c#6 v=0
42348 On ch=1 n=g6 v=0
42348 On ch=1 n=g#6 v=100
42348 On ch=2 n=g#5 v=100
42516 On ch=2 n=g#5 v=0
42516 On ch=1 n=g#6 v=0
42516 On ch=3 n=a#2 v=0
42516 On ch=3 n=a#3 v=0
42516 Par ch=1 c=64 v=127
42516 On ch=1 n=c7 v=100
42516 Par ch=2 c=64 v=127
42516 On ch=2 n=c6 v=100
42516 Par ch=3 c=64 v=127
42516 On ch=3 n=d#2 v=100
42516 On ch=3 n=d#3 v=100
42688 On ch=3 n=d#3 v=0
42688 On ch=3 n=d#2 v=0
42688 On ch=2 n=c6 v=0
42688 On ch=1 n=c7 v=0
42688 On ch=1 n=g6 v=100
42688 On ch=2 n=d#6 v=100
42856 On ch=2 n=d#6 v=0
42856 On ch=1 n=g6 v=0
42856 On ch=1 n=c7 v=100
42856 On ch=2 n=c6 v=100
42856 On ch=3 n=c#5 v=100
42856 On ch=3 n=d#5 v=100
42856 On ch=3 n=g5 v=100
42944 On ch=2 n=c6 v=0
42944 On ch=1 n=c7 v=0
43112 On ch=1 n=a#6 v=100
43112 On ch=2 n=a#5 v=100
43200 On ch=2 n=a#5 v=0
43200 On ch=1 n=a#6 v=0
43200 On ch=3 n=g5 v=0
43200 On ch=3 n=d#5 v=0
43200 On ch=3 n=c#5 v=0
43200 Par ch=1 c=64 v=0
43200 Par ch=1 c=64 v=127
43200 On ch=1 n=a#6 v=100
43200 Par ch=1 c=64 v=0
43200 Par ch=1 c=64 v=127
43200 Par ch=1 c=64 v=0
43200 Par ch=1 c=64 v=127
43200 Par ch=2 c=64 v=0
43200 Par ch=2 c=64 v=127
43200 Par ch=2 c=64 v=0
43200 Par ch=2 c=64 v=127
43200 On ch=2 n=a#5 v=100
43200 Par ch=2 c=64 v=0
43200 Par ch=2 c=64 v=127
43200 Par ch=3 c=64 v=0
43200 Par ch=3 c=64 v=127
43200 Par ch=3 c=64 v=0
43200 Par ch=3 c=64 v=127
43200 Par ch=3 c=64 v=0
43200 Par ch=3 c=64 v=127
43200 On ch=3 n=d#3 v=100
43200 On ch=3 n=d#4 v=100
43368 On ch=3 n=d#4 v=0
43368 On ch=3 n=d#3 v=0
43368 On ch=2 n=a#5 v=0
43368 On ch=1 n=a#6 v=0
43368 On ch=1 n=f6 v=100
43368 On ch=2 n=c6 v=100
43540 On ch=2 n=c6 v=0
43540 On ch=1 n=f6 v=0
43540 On ch=1 n=a#6 v=100
43540 On ch=2 n=a#5 v=100
43540 On ch=3 n=c5 v=100
43540 On ch=3 n=d#5 v=100
43624 On ch=2 n=a#5 v=0
43624 On ch=1 n=a#6 v=0
43708 On ch=3 n=d#5 v=0
43708 On ch=3 n=c5 v=0
43796 On ch=1 n=g#6 v=100
43796 On ch=2 n=g#5 v=100
43880 On ch=2 n=g#5 v=0
43880 On ch=1 n=g#6 v=0
43880 Par ch=1 c=64 v=0
43880 Par ch=1 c=64 v=127
43880 On ch=1 n=g#6 v=100
43880 Par ch=1 c=64 v=0
43880 Par ch=1 c=64 v=127
43880 Par ch=1 c=64 v=0
43880 Par ch=1 c=64 v=127
43880 Par ch=2 c=64 v=0
43880 Par ch=2 c=64 v=127
43880 Par ch=2 c=64 v=0
43880 Par ch=2 c=64 v=127
43880 On ch=2 n=g#5 v=100
43880 Par ch=2 c=64 v=0
43880 Par ch=2 c=64 v=127
43880 Par ch=3 c=64 v=0
43880 Par ch=3 c=64 v=127
43880 Par ch=3 c=64 v=0
43880 Par ch=3 c=64 v=127
43880 Par ch=3 c=64 v=0
43880 Par ch=3 c=64 v=127
43880 On ch=3 n=d#3 v=100
43880 On ch=3 n=d#4 v=100
44052 On ch=3 n=d#4 v=0
44052 On ch=3 n=d#3 v=0
44052 On ch=2 n=g#5 v=0
44052 On ch=1 n=g#6 v=0
44052 On ch=1 n=d#6 v=100
44052 On ch=2 n=a#5 v=100
44220 On ch=2 n=a#5 v=0
44220 On ch=1 n=d#6 v=0
44220 On ch=1 n=g#6 v=100
44220 On ch=2 n=g#5 v=100
44220 On ch=3 n=d#5 v=100
44220 On ch=3 n=a#4 v=100
44308 On ch=2 n=g#5 v=0
44308 On ch=1 n=g#6 v=0
44476 On ch=1 n=g6 v=100
44476 On ch=2 n=g5 v=100
44564 On ch=2 n=g5 v=0
44564 On ch=1 n=g6 v=0
44564 On ch=3 n=a#4 v=0
44564 On ch=3 n=d#5 v=0
44564 Par ch=1 c=64 v=0
44564 Par ch=1 c=64 v=127
44564 On ch=1 n=g6 v=100
44564 Par ch=2 c=64 v=0
44564 Par ch=2 c=64 v=127
44564 On ch=2 n=g5 v=100
44564 Par ch=3 c=64 v=0
44564 Par ch=3 c=64 v=127
44564 On ch=3 n=a#2 v=100
44564 On ch=3 n=a#3 v=100
44736 On ch=3 n=a#3 v=0
44736 On ch=3 n=a#2 v=0
44736 On ch=2 n=g5 v=0
44736 On ch=1 n=g6 v=0
44736 On ch=1 n=d6 v=100
44736 On ch=2 n=a#5 v=100
44920 On ch=2 n=a#5 v=0
44920 On ch=1 n=d6 v=0
44920 On ch=1 n=g6 v=100
44920 On ch=2 n=g5 v=100
44920 On ch=3 n=d5 v=100
44920 On ch=3 n=g#4 v=100
44920 On ch=3 n=a#4 v=100
45012 On ch=2 n=g5 v=0
45012 On ch=1 n=g6 v=0
45104 On ch=3 n=a#4 v=0
45104 On ch=3 n=g#4 v=0
45104 On ch=3 n=d5 v=0
45200 On ch=1 n=f6 v=100
45200 On ch=2 n=f5 v=100
45300 On ch=2 n=f5 v=0
45300 On ch=1 n=f6 v=0
45300 Par ch=1 c=64 v=0
45300 Par ch=1 c=64 v=127
45300 On ch=1 n=f6 v=100
45300 Par ch=1 c=64 v=0
45300 Par ch=1 c=64 v=127
45300 Par ch=1 c=64 v=0
45300 Par ch=1 c=64 v=127
45300 Par ch=2 c=64 v=0
45300 Par ch=2 c=64 v=127
45300 Par ch=2 c=64 v=0
45300 Par ch=2 c=64 v=127
45300 On ch=2 n=f5 v=100
45300 Par ch=2 c=64 v=0
45300 Par ch=2 c=64 v=127
45300 Par ch=3 c=64 v=0
45300 Par ch=3 c=64 v=127
45300 Par ch=3 c=64 v=0
45300 Par ch=3 c=64 v=127
45300 Par ch=3 c=64 v=0
45300 Par ch=3 c=64 v=127
45300 On ch=3 n=d#3 v=100
45300 On ch=3 n=d#4 v=100
45500 On ch=3 n=d#4 v=0
45500 On ch=3 n=d#3 v=0
45500 On ch=2 n=f5 v=0
45500 On ch=1 n=f6 v=0
45500 On ch=1 n=a#5 v=100
45500 On ch=2 n=g5 v=100
45708 On ch=2 n=g5 v=0
45708 On ch=1 n=a#5 v=0
45708 On ch=1 n=f6 v=100
45708 On ch=2 n=f5 v=100
45708 On ch=3 n=g4 v=100
45708 On ch=3 n=a#4 v=100
45812 On ch=2 n=f5 v=0
45812 On ch=1 n=f6 v=0
45920 On ch=3 n=a#4 v=0
45920 On ch=3 n=g4 v=0
46028 On ch=1 n=d#6 v=100
46028 On ch=2 n=d#5 v=100
46140 On ch=2 n=d#5 v=0
46140 On ch=1 n=d#6 v=0
46140 Par ch=1 c=64 v=0
46140 Par ch=1 c=64 v=127
46140 On ch=1 n=c#6 v=100
46140 Par ch=1 c=64 v=0
46140 Par ch=1 c=64 v=127
46140 Par ch=1 c=64 v=0
46140 Par ch=1 c=64 v=127
46140 Par ch=2 c=64 v=0
46140 Par ch=2 c=64 v=127
46140 Par ch=2 c=64 v=0
46140 Par ch=2 c=64 v=127
46140 On ch=2 n=c#5 v=100
46140 Par ch=2 c=64 v=0
46140 Par ch=2 c=64 v=127
46140 Par ch=3 c=64 v=0
46140 Par ch=3 c=64 v=127
46140 Par ch=3 c=64 v=0
46140 Par ch=3 c=64 v=127
46140 Par ch=3 c=64 v=0
46140 Par ch=3 c=64 v=127
46140 On ch=3 n=f3 v=100
46140 On ch=3 n=f4 v=100
46368 On ch=3 n=f4 v=0
46368 On ch=3 n=f3 v=0
46368 On ch=2 n=c#5 v=0
46368 On ch=1 n=c#6 v=0
46368 On ch=1 n=g#5 v=100
46368 On ch=2 n=f5 v=100
46600 On ch=2 n=f5 v=0
46600 On ch=1 n=g#5 v=0
46600 On ch=1 n=c#6 v=100
46600 On ch=2 n=c#5 v=100
46600 On ch=3 n=g#4 v=100
46720 On ch=2 n=c#5 v=0
46720 On ch=1 n=c#6 v=0
46840 On ch=3 n=g#4 v=0
46964 On ch=1 n=c6 v=100
46964 On ch=2 n=c5 v=100
47088 On ch=2 n=c5 v=0
47088 On ch=1 n=c6 v=0
47088 Par ch=1 c=64 v=0
47088 Par ch=1 c=64 v=127
47088 Par ch=2 c=64 v=0
47088 Par ch=2 c=64 v=127
47088 On ch=2 n=f5 v=100
47088 Par ch=3 c=64 v=0
47088 Par ch=3 c=64 v=127
47088 On ch=3 n=c#3 v=100
47088 On ch=3 n=c#4 v=100
47428 On ch=3 n=c#4 v=0
47428 On ch=3 n=c#3 v=0
47428 On ch=3 n=f4 v=100
47428 On ch=3 n=a#4 v=100
47768 On ch=3 n=a#4 v=0
47768 On ch=3 n=f4 v=0
47768 On ch=2 n=f5 v=0
47768 Par ch=1 c=64 v=0
47768 Par ch=1 c=64 v=127
47768 Par ch=1 c=64 v=0
47768 Par ch=1 c=64 v=127
47768 Par ch=2 c=64 v=0
47768 Par ch=2 c=64 v=127
47768 On ch=2 n=g5 v=100
47768 Par ch=2 c=64 v=0
47768 Par ch=2 c=64 v=127
47768 Par ch=3 c=64 v=0
47768 Par ch=3 c=64 v=127
47768 Par ch=3 c=64 v=0
47768 Par ch=3 c=64 v=127
47768 On ch=3 n=c3 v=100
47768 On ch=3 n=c4 v=100
47840 On ch=2 n=g5 v=0
47840 On ch=2 n=g#5 v=100
47908 On ch=2 n=g#5 v=0
47908 On ch=2 n=g5 v=100
47976 On ch=2 n=g5 v=0
47976 On ch=2 n=g#5 v=100
48044 On ch=2 n=g#5 v=0
48044 On ch=2 n=g5 v=100
48112 On ch=2 n=g5 v=0
48112 On ch=3 n=c4 v=0
48112 On ch=3 n=c3 v=0
48112 On ch=2 n=f5 v=100
48112 On ch=3 n=e4 v=100
48112 On ch=3 n=a#4 v=100
48112 On ch=3 n=c5 v=100
48280 On ch=2 n=f5 v=0
48280 On ch=2 n=g5 v=100
48452 On ch=2 n=g5 v=0
48452 On ch=3 n=c5 v=0
48452 On ch=3 n=a#4 v=0
48452 On ch=3 n=e4 v=0
48452 Par ch=1 c=64 v=0
48452 Par ch=1 c=64 v=127
48452 Par ch=1 c=64 v=0
48452 Par ch=1 c=64 v=127
48452 Par ch=2 c=64 v=0
48452 Par ch=2 c=64 v=127
48452 On ch=2 n=g#5 v=100
48452 Par ch=2 c=64 v=0
48452 Par ch=2 c=64 v=127
48452 Par ch=3 c=64 v=0
48452 Par ch=3 c=64 v=127
48452 Par ch=3 c=64 v=0
48452 Par ch=3 c=64 v=127
48452 On ch=3 n=f2 v=100
48452 On ch=3 n=f3 v=100
48520 On ch=2 n=g#5 v=0
48520 On ch=2 n=a#5 v=100
48588 On ch=2 n=a#5 v=0
48588 On ch=2 n=g#5 v=100
48656 On ch=2 n=g#5 v=0
48656 On ch=2 n=a#5 v=100
48724 On ch=2 n=a#5 v=0
48724 On ch=2 n=g#5 v=100
48792 On ch=2 n=g#5 v=0
48792 On ch=3 n=f3 v=0
48792 On ch=3 n=f2 v=0
48792 On ch=2 n=g5 v=100
48792 On ch=3 n=f4 v=100
48792 On ch=3 n=g#4 v=100
48792 On ch=3 n=c5 v=100
48964 On ch=2 n=g5 v=0
48964 On ch=2 n=g#5 v=100
49132 On ch=2 n=g#5 v=0
49132 On ch=3 n=c5 v=0
49132 On ch=3 n=g#4 v=0
49132 On ch=3 n=f4 v=0
49132 On ch=1 n=a5 v=100
49132 Par ch=1 c=64 v=0
49132 Par ch=1 c=64 v=127
49132 Par ch=1 c=64 v=0
49132 Par ch=1 c=64 v=127
49132 Par ch=2 c=64 v=0
49132 Par ch=2 c=64 v=127
49132 On ch=2 n=c#5 v=100
49132 On ch=2 n=g5 v=100
49132 Par ch=2 c=64 v=0
49132 Par ch=2 c=64 v=127
49132 Par ch=3 c=64 v=0
49132 Par ch=3 c=64 v=127
49132 Par ch=3 c=64 v=0
49132 Par ch=3 c=64 v=127
49132 On ch=3 n=d#3 v=100
49132 On ch=3 n=d#4 v=100
49304 On ch=1 n=a5 v=0
49304 On ch=1 n=a#5 v=100
49476 On ch=1 n=a#5 v=0
49476 On ch=3 n=d#4 v=0
49476 On ch=3 n=d#3 v=0
49476 On ch=2 n=g5 v=0
49476 On ch=2 n=c#5 v=0
49476 On ch=1 n=c6 v=100
49476 On ch=2 n=c#5 v=100
49476 On ch=2 n=g5 v=100
49476 On ch=3 n=d#4 v=100
49476 On ch=3 n=a#4 v=100
49644 On ch=1 n=c6 v=0
49644 On ch=1 n=c#6 v=100
49816 On ch=1 n=c#6 v=0
49816 On ch=3 n=a#4 v=0
49816 On ch=3 n=d#4 v=0
49816 On ch=2 n=g5 v=0
49816 On ch=2 n=c#5 v=0
49816 Par ch=1 c=64 v=0
49816 On ch=1 n=c6 v=100
49816 Par ch=2 c=64 v=0
49816 On ch=2 n=c5 v=100
49816 On ch=2 n=g#5 v=100
49816 Par ch=3 c=64 v=0
49816 On ch=3 n=g#3 v=100
49816 On ch=3 n=d#4 v=100
49816 On ch=3 n=g#4 v=100
49984 On ch=3 n=g#4 v=0
49984 On ch=3 n=d#4 v=0
49984 On ch=3 n=g#3 v=0
49984 On ch=2 n=g#5 v=0
49984 On ch=2 n=c5 v=0
49984 On ch=1 n=c6 v=0
50156 On ch=1 n=f6 v=100
50156 On ch=2 n=g#5 v=100
50156 On ch=3 n=b4 v=100
50156 On ch=3 n=d5 v=100
50156 On ch=3 n=f5 v=100
50412 On ch=3 n=f5 v=0
50412 On ch=3 n=d5 v=0
50412 On ch=3 n=b4 v=0
50412 On ch=2 n=g#5 v=0
50412 On ch=1 n=f6 v=0
50412 On ch=1 n=d#6 v=100
50412 On ch=2 n=g#5 v=100
50412 On ch=3 n=c5 v=100
50412 On ch=3 n=d#5 v=100
50496 On ch=3 n=d#5 v=0
50496 On ch=3 n=c5 v=0
50496 On ch=2 n=g#5 v=0
50496 On ch=1 n=d#6 v=0
50496 On ch=1 n=d#6 v=100
50496 On ch=2 n=g#5 v=100
50496 On ch=3 n=c5 v=100
50496 On ch=3 n=d#5 v=100
50584 On ch=2 n=g#5 v=0
50584 On ch=1 n=d#6 v=0
50668 On ch=3 n=d#5 v=0
50668 On ch=3 n=c5 v=0
50668 Par ch=1 c=64 v=127
50668 Par ch=2 c=64 v=127
50668 On ch=2 n=g#5 v=100
50668 Par ch=3 c=64 v=127
50840 On ch=1 n=g#6 v=100
50840 On ch=3 n=g#3 v=100
50840 On ch=3 n=g#4 v=100
51008 On ch=1 n=g#6 v=0
51008 On ch=2 n=g#5 v=0
51092 On ch=1 n=g6 v=100
51092 On ch=2 n=g5 v=100
51180 On ch=2 n=g5 v=0
51180 On ch=1 n=g6 v=0
51180 On ch=3 n=g#4 v=0
51180 On ch=3 n=g#3 v=0
51180 Par ch=1 c=64 v=0
51180 Par ch=1 c=64 v=127
51180 On ch=1 n=f6 v=100
51180 Par ch=2 c=64 v=0
51180 Par ch=2 c=64 v=127
51180 On ch=2 n=f5 v=100
51180 Par ch=3 c=64 v=0
51180 Par ch=3 c=64 v=127
51180 On ch=3 n=c#3 v=100
51180 On ch=3 n=c#4 v=100
51520 On ch=3 n=c#4 v=0
51520 On ch=3 n=c#3 v=0
51520 On ch=3 n=f4 v=103
51520 On ch=3 n=a#4 v=103
51860 On ch=3 n=a#4 v=0
51860 On ch=3 n=f4 v=0
51860 On ch=2 n=f5 v=0
51860 On ch=1 n=f6 v=0
51860 Par ch=1 c=64 v=0
51860 Par ch=1 c=64 v=127
51860 Par ch=1 c=64 v=0
51860 Par ch=1 c=64 v=127
51860 Par ch=1 c=64 v=0
51860 Par ch=1 c=64 v=127
51860 Par ch=2 c=64 v=0
51860 Par ch=2 c=64 v=127
51860 Par ch=2 c=64 v=0
51860 Par ch=2 c=64 v=127
51860 On ch=2 n=g5 v=106
51860 Par ch=2 c=64 v=0
51860 Par ch=2 c=64 v=127
51860 Par ch=3 c=64 v=0
51860 Par ch=3 c=64 v=127
51860 Par ch=3 c=64 v=0
51860 Par ch=3 c=64 v=127
51860 Par ch=3 c=64 v=0
51860 Par ch=3 c=64 v=127
51860 On ch=3 n=c3 v=106
51860 On ch=3 n=c4 v=106
52032 On ch=2 n=g5 v=0
52032 On ch=1 n=g6 v=107
52088 On ch=1 n=g6 v=0
52088 On ch=1 n=g#6 v=108
52144 On ch=1 n=g#6 v=0
52144 On ch=1 n=g6 v=108
52200 On ch=1 n=g6 v=0
52200 On ch=3 n=c4 v=0
52200 On ch=3 n=c3 v=0
52200 On ch=1 n=f6 v=109
52200 On ch=2 n=f5 v=109
52200 On ch=3 n=a#4 v=109
52200 On ch=3 n=c5 v=109
52200 On ch=3 n=e5 v=109
52372 On ch=2 n=f5 v=0
52372 On ch=1 n=f6 v=0
52372 On ch=1 n=g6 v=110
52372 On ch=2 n=g5 v=110
52544 On ch=2 n=g5 v=0
52544 On ch=1 n=g6 v=0
52544 On ch=3 n=e5 v=0
52544 On ch=3 n=c5 v=0
52544 On ch=3 n=a#4 v=0
52544 Par ch=1 c=64 v=0
52544 Par ch=1 c=64 v=127
52544 Par ch=1 c=64 v=0
52544 Par ch=1 c=64 v=127
52544 Par ch=1 c=64 v=0
52544 Par ch=1 c=64 v=127
52544 Par ch=2 c=64 v=0
52544 Par ch=2 c=64 v=127
52544 Par ch=2 c=64 v=0
52544 Par ch=2 c=64 v=127
52544 On ch=2 n=g#5 v=111
52544 Par ch=2 c=64 v=0
52544 Par ch=2 c=64 v=127
52544 Par ch=3 c=64 v=0
52544 Par ch=3 c=64 v=127
52544 Par ch=3 c=64 v=0
52544 Par ch=3 c=64 v=127
52544 Par ch=3 c=64 v=0
52544 Par ch=3 c=64 v=127
52544 On ch=3 n=f2 v=111
52544 On ch=3 n=f3 v=111
52712 On ch=2 n=g#5 v=0
52712 On ch=1 n=g#6 v=113
52768 On ch=1 n=g#6 v=0
52768 On ch=1 n=a#6 v=113
52828 On ch=1 n=a#6 v=0
52828 On ch=1 n=g#6 v=114
52884 On ch=1 n=g#6 v=0
52884 On ch=3 n=f3 v=0
52884 On ch=3 n=f2 v=0
52884 On ch=1 n=g6 v=114
52884 On ch=2 n=g5 v=114
52884 On ch=3 n=g#4 v=114
52884 On ch=3 n=c5 v=114
52884 On ch=3 n=f5 v=114
53052 On ch=2 n=g5 v=0
53052 On ch=1 n=g6 v=0
53052 On ch=1 n=g#6 v=116
53052 On ch=2 n=g#5 v=116
53224 On ch=2 n=g#5 v=0
53224 On ch=1 n=g#6 v=0
53224 On ch=3 n=f5 v=0
53224 On ch=3 n=c5 v=0
53224 On ch=3 n=g#4 v=0
53224 Par ch=1 c=64 v=0
53224 Par ch=1 c=64 v=127
53224 On ch=1 n=d#6 v=117
53224 On ch=1 n=a6 v=117
53224 Par ch=1 c=64 v=0
53224 Par ch=1 c=64 v=127
53224 Par ch=1 c=64 v=0
53224 Par ch=1 c=64 v=127
53224 Par ch=2 c=64 v=0
53224 Par ch=2 c=64 v=127
53224 Par ch=2 c=64 v=0
53224 Par ch=2 c=64 v=127
53224 On ch=2 n=a5 v=117
53224 Par ch=2 c=64 v=0
53224 Par ch=2 c=64 v=127
53224 Par ch=3 c=64 v=0
53224 Par ch=3 c=64 v=127
53224 Par ch=3 c=64 v=0
53224 Par ch=3 c=64 v=127
53224 Par ch=3 c=64 v=0
53224 Par ch=3 c=64 v=127
53224 On ch=3 n=d#3 v=117
53224 On ch=3 n=d#4 v=117
53396 On ch=2 n=a5 v=0
53396 On ch=1 n=a6 v=0
53396 On ch=1 n=d#6 v=0
53396 On ch=1 n=a#6 v=119
53396 On ch=2 n=a#5 v=119
53564 On ch=2 n=a#5 v=0
53564 On ch=1 n=a#6 v=0
53564 On ch=3 n=d#4 v=0
53564 On ch=3 n=d#3 v=0
53564 On ch=1 n=c7 v=120
53564 On ch=2 n=c6 v=120
53564 On ch=2 n=g6 v=120
53564 On ch=3 n=a#4 v=120
53564 On ch=3 n=c#5 v=120
53564 On ch=3 n=d#5 v=120
53564 On ch=3 n=g5 v=120
53736 On ch=2 n=g6 v=0
53736 On ch=2 n=c6 v=0
53736 On ch=1 n=c7 v=0
53736 On ch=1 n=c#7 v=120
53736 On ch=2 n=c#6 v=120
53908 On ch=2 n=c#6 v=0
53908 On ch=1 n=c#7 v=0
53908 On ch=3 n=g5 v=0
53908 On ch=3 n=d#5 v=0
53908 On ch=3 n=c#5 v=0
53908 On ch=3 n=a#4 v=0
53908 Par ch=1 c=64 v=0
53908 On ch=1 n=c7 v=120
53908 Par ch=2 c=64 v=0
53908 On ch=2 n=c6 v=120
53908 On ch=2 n=g#6 v=120
53908 Par ch=3 c=64 v=0
53908 On ch=3 n=g#4 v=120
53908 On ch=3 n=d#5 v=120
53908 On ch=3 n=g#5 v=120
54076 On ch=3 n=g#5 v=0
54076 On ch=3 n=d#5 v=0
54076 On ch=3 n=g#4 v=0
54076 On ch=2 n=g#6 v=0
54076 On ch=2 n=c6 v=0
54076 On ch=1 n=c7 v=0
54248 On ch=1 n=f7 v=120
54248 On ch=2 n=f6 v=120
54248 On ch=2 n=g#6 v=120
54248 On ch=3 n=b4 v=120
54248 On ch=3 n=d5 v=120
54248 On ch=3 n=g#5 v=120
54248 On ch=3 n=b5 v=120
54332 On ch=2 n=g#6 v=0
54332 On ch=2 n=f6 v=0
54332 On ch=1 n=f7 v=0
54416 On ch=3 n=b5 v=0
54416 On ch=3 n=g#5 v=0
54416 On ch=3 n=d5 v=0
54416 On ch=3 n=b4 v=0
54504 On ch=1 n=d#7 v=113
54504 On ch=2 n=d#6 v=113
54504 On ch=2 n=g#6 v=113
54504 On ch=3 n=c5 v=113
54504 On ch=3 n=d#5 v=113
54504 On ch=3 n=g#5 v=113
54504 On ch=3 n=c6 v=113
54588 On ch=3 n=c6 v=0
54588 On ch=3 n=g#5 v=0
54588 On ch=3 n=d#5 v=0
54588 On ch=3 n=c5 v=0
54588 On ch=2 n=g#6 v=0
54588 On ch=2 n=d#6 v=0
54588 On ch=1 n=d#7 v=0
54588 On ch=1 n=d#7 v=110
54588 On ch=2 n=d#6 v=110
54588 On ch=2 n=g#6 v=110
54588 On ch=3 n=c5 v=110
54588 On ch=3 n=d#5 v=110
54588 On ch=3 n=g#5 v=110
54588 On ch=3 n=c6 v=110
54736 On ch=2 n=g#6 v=0
54736 On ch=2 n=d#6 v=0
54736 On ch=1 n=d#7 v=0
54760 On ch=3 n=c6 v=0
54760 On ch=3 n=g#5 v=0
54760 On ch=3 n=d#5 v=0
54760 On ch=3 n=c5 v=0
54888 On ch=1 n=d#7 v=101
54888 On ch=2 n=d#6 v=101
54928 On ch=2 n=d#6 v=0
54928 On ch=1 n=d#7 v=0
54928 Par ch=1 c=64 v=127
54928 On ch=1 n=c#7 v=100
54928 Par ch=2 c=64 v=127
54928 On ch=2 n=c#6 v=100
54928 On ch=2 n=a6 v=100
54928 Par ch=3 c=64 v=127
54928 On ch=3 n=f4 v=100
54972 On ch=3 n=d#5 v=100
55016 On ch=3 n=a5 v=100
55184 On ch=2 n=a6 v=0
55184 On ch=2 n=c#6 v=0
55184 On ch=1 n=c#7 v=0
55184 On ch=1 n=c7 v=100
55184 On ch=2 n=c6 v=100
55268 On ch=2 n=c6 v=0
55268 On ch=1 n=c7 v=0
55268 On ch=3 n=a5 v=0
55268 On ch=3 n=d#5 v=0
55268 On ch=3 n=f4 v=0
55268 Par ch=1 c=64 v=0
55268 Par ch=1 c=64 v=127
55268 On ch=1 n=a#6 v=100
55268 Par ch=2 c=64 v=0
55268 Par ch=2 c=64 v=127
55268 On ch=2 n=a#5 v=100
55268 Par ch=3 c=64 v=0
55268 Par ch=3 c=64 v=127
55268 On ch=3 n=a#3 v=100
55312 On ch=3 n=f4 v=100
55356 On ch=3 n=c#5 v=99
55440 On ch=3 n=a#3 v=0
55440 On ch=2 n=a#5 v=0
55440 On ch=1 n=a#6 v=0
55464 On ch=3 n=f4 v=0
55488 On ch=3 n=c#5 v=0
55624 Par ch=1 c=64 v=0
55624 Par ch=1 c=64 v=127
55624 On ch=1 n=f#5 v=97
55624 On ch=1 n=a#5 v=97
55624 Par ch=1 c=64 v=0
55624 Par ch=1 c=64 v=127
55624 Par ch=1 c=64 v=0
55624 Par ch=1 c=64 v=127
55624 Par ch=2 c=64 v=0
55624 Par ch=2 c=64 v=127
55624 Par ch=2 c=64 v=0
55624 Par ch=2 c=64 v=127
55624 On ch=2 n=a#4 v=97
55624 Par ch=2 c=64 v=0
55624 Par ch=2 c=64 v=127
55624 Par ch=3 c=64 v=0
55624 Par ch=3 c=64 v=127
55624 Par ch=3 c=64 v=0
55624 Par ch=3 c=64 v=127
55624 Par ch=3 c=64 v=0
55624 Par ch=3 c=64 v=127
55624 On ch=3 n=d#3 v=97
55668 On ch=3 n=a#3 v=97
55716 On ch=3 n=f#4 v=96
55904 On ch=2 n=a#4 v=0
55904 On ch=1 n=a#5 v=0
55904 On ch=1 n=f#5 v=0
55904 On ch=1 n=c6 v=95
55904 On ch=2 n=c5 v=95
56004 On ch=2 n=c5 v=0
56004 On ch=1 n=c6 v=0
56004 On ch=3 n=f#4 v=0
56004 On ch=3 n=a#3 v=0
56004 On ch=3 n=d#3 v=0
56004 Par ch=1 c=64 v=0
56004 Par ch=1 c=64 v=127
56004 On ch=1 n=c#6 v=94
56004 Par ch=1 c=64 v=0
56004 Par ch=1 c=64 v=127
56004 Par ch=1 c=64 v=0
56004 Par ch=1 c=64 v=127
56004 Par ch=2 c=64 v=0
56004 Par ch=2 c=64 v=127
56004 Par ch=2 c=64 v=0
56004 Par ch=2 c=64 v=127
56004 On ch=2 n=c#5 v=94
56004 On ch=2 n=f5 v=94
56004 Par ch=2 c=64 v=0
56004 Par ch=2 c=64 v=127
56004 Par ch=3 c=64 v=0
56004 Par ch=3 c=64 v=127
56004 Par ch=3 c=64 v=0
56004 Par ch=3 c=64 v=127
56004 Par ch=3 c=64 v=0
56004 Par ch=3 c=64 v=127
56004 On ch=3 n=a#2 v=94
56004 On ch=3 n=f3 v=94
56004 On ch=3 n=c#4 v=94
56412 On ch=3 n=c#4 v=0
56412 On ch=3 n=f3 v=0
56412 On ch=3 n=a#2 v=0
56412 On ch=2 n=f5 v=0
56412 On ch=2 n=c#5 v=0
56412 On ch=1 n=c#6 v=0
56412 Par ch=1 c=64 v=0
56412 Par ch=1 c=64 v=127
56412 On ch=1 n=c#6 v=91
56412 Par ch=1 c=64 v=0
56412 Par ch=1 c=64 v=127
56412 Par ch=1 c=64 v=0
56412 Par ch=1 c=64 v=127
56412 Par ch=2 c=64 v=0
56412 Par ch=2 c=64 v=127
56412 Par ch=2 c=64 v=0
56412 Par ch=2 c=64 v=127
56412 On ch=2 n=c#5 v=91
56412 On ch=2 n=d#5 v=91
56412 On ch=2 n=f#5 v=91
56412 Par ch=2 c=64 v=0
56412 Par ch=2 c=64 v=127
56412 Par ch=3 c=64 v=0
56412 Par ch=3 c=64 v=127
56412 Par ch=3 c=64 v=0
56412 Par ch=3 c=64 v=127
56412 Par ch=3 c=64 v=0
56412 Par ch=3 c=64 v=127
56412 On ch=3 n=d#2 v=91
56412 On ch=3 n=d#3 v=91
56732 On ch=2 n=f#5 v=0
56732 On ch=2 n=d#5 v=0
56732 On ch=2 n=c#5 v=0
56732 On ch=1 n=c#6 v=0
56732 On ch=1 n=c6 v=89
56732 On ch=2 n=c5 v=89
56844 On ch=2 n=c5 v=0
56844 On ch=1 n=c6 v=0
56844 On ch=3 n=d#3 v=0
56844 On ch=3 n=d#2 v=0
56844 Par ch=1 c=64 v=0
56844 Par ch=1 c=64 v=127
56844 On ch=1 n=f5 v=89
56844 On ch=1 n=a#5 v=89
56844 Par ch=1 c=64 v=0
56844 Par ch=1 c=64 v=127
56844 Par ch=1 c=64 v=0
56844 Par ch=1 c=64 v=127
56844 Par ch=2 c=64 v=0
56844 Par ch=2 c=64 v=127
56844 Par ch=2 c=64 v=0
56844 Par ch=2 c=64 v=127
56844 On ch=2 n=a#4 v=89
56844 Par ch=2 c=64 v=0
56844 Par ch=2 c=64 v=127
56844 Par ch=3 c=64 v=0
56844 Par ch=3 c=64 v=127
56844 Par ch=3 c=64 v=0
56844 Par ch=3 c=64 v=127
56844 Par ch=3 c=64 v=0
56844 Par ch=3 c=64 v=127
56844 On ch=3 n=a#2 v=89
56844 On ch=3 n=f3 v=89
56844 On ch=3 n=c#4 v=89
57304 On ch=3 n=c#4 v=0
57304 On ch=3 n=f3 v=0
57304 On ch=3 n=a#2 v=0
57304 On ch=2 n=a#4 v=0
57304 On ch=1 n=a#5 v=0
57304 On ch=1 n=f5 v=0
57304 Par ch=1 c=64 v=0
57304 Par ch=1 c=64 v=127
57304 On ch=1 n=d#5 v=86
57304 On ch=1 n=g#5 v=86
57304 Par ch=1 c=64 v=0
57304 Par ch=1 c=64 v=127
57304 Par ch=1 c=64 v=0
57304 Par ch=1 c=64 v=127
57304 Par ch=2 c=64 v=0
57304 Par ch=2 c=64 v=127
57304 Par ch=2 c=64 v=0
57304 Par ch=2 c=64 v=127
57304 On ch=2 n=g#4 v=86
57304 On ch=2 n=a#4 v=86
57304 Par ch=2 c=64 v=0
57304 Par ch=2 c=64 v=127
57304 Par ch=3 c=64 v=0
57304 Par ch=3 c=64 v=127
57304 Par ch=3 c=64 v=0
57304 Par ch=3 c=64 v=127
57304 Par ch=3 c=64 v=0
57304 Par ch=3 c=64 v=127
57304 On ch=3 n=d#3 v=86
57304 On ch=3 n=a#3 v=86
57304 On ch=3 n=d#4 v=86
57668 On ch=2 n=a#4 v=0
57668 On ch=2 n=g#4 v=0
57668 On ch=1 n=g#5 v=0
57668 On ch=1 n=d#5 v=0
57668 On ch=1 n=f#5 v=84
57668 On ch=2 n=f#4 v=84
57792 On ch=2 n=f#4 v=0
57792 On ch=1 n=f#5 v=0
57792 On ch=3 n=d#4 v=0
57792 On ch=3 n=a#3 v=0
57792 On ch=3 n=d#3 v=0
57792 Par ch=1 c=64 v=0
57792 Par ch=1 c=64 v=127
57792 On ch=1 n=c#5 v=83
57792 On ch=1 n=f5 v=83
57792 Par ch=1 c=64 v=0
57792 Par ch=1 c=64 v=127
57792 Par ch=1 c=64 v=0
57792 Par ch=1 c=64 v=127
57792 Par ch=2 c=64 v=0
57792 Par ch=2 c=64 v=127
57792 Par ch=2 c=64 v=0
57792 Par ch=2 c=64 v=127
57792 On ch=2 n=f4 v=83
57792 Par ch=2 c=64 v=0
57792 Par ch=2 c=64 v=127
57792 Par ch=3 c=64 v=0
57792 Par ch=3 c=64 v=127
57792 Par ch=3 c=64 v=0
57792 Par ch=3 c=64 v=127
57792 Par ch=3 c=64 v=0
57792 Par ch=3 c=64 v=127
57792 On ch=3 n=a#2 v=83
57852 On ch=3 n=f3 v=83
57916 On ch=3 n=c#4 v=82
58164 On ch=2 n=f4 v=0
58164 On ch=1 n=f5 v=0
58164 On ch=1 n=c#5 v=0
58292 On ch=3 n=c#4 v=0
58292 On ch=3 n=f3 v=0
58292 On ch=3 n=a#2 v=0
58292 Par ch=1 c=64 v=0
58292 On ch=1 n=a3 v=80
58292 Par ch=2 c=64 v=0
58292 On ch=2 n=a2 v=80
58292 Par ch=3 c=64 v=0
58368 On ch=2 n=a2 v=0
58368 On ch=1 n=a3 v=0
58368 On ch=1 n=a#3 v=81
58368 On ch=2 n=a#2 v=81
58448 On ch=2 n=a#2 v=0
58448 On ch=1 n=a#3 v=0
58448 On ch=1 n=c4 v=81
58448 On ch=2 n=c3 v=81
58524 On ch=2 n=c3 v=0
58524 On ch=1 n=c4 v=0
58524 On ch=1 n=c#4 v=82
58524 On ch=2 n=c#3 v=82
58600 On ch=2 n=c#3 v=0
58600 On ch=1 n=c#4 v=0
58600 On ch=1 n=d#4 v=82
58600 On ch=2 n=d#3 v=82
58680 On ch=2 n=d#3 v=0
58680 On ch=1 n=d#4 v=0
58680 On ch=1 n=f4 v=83
58680 On ch=2 n=f3 v=83
58756 On ch=2 n=f3 v=0
58756 On ch=1 n=f4 v=0
58756 On ch=1 n=g4 v=83
58756 On ch=2 n=g3 v=83
58836 On ch=2 n=g3 v=0
58836 On ch=1 n=g4 v=0
58836 On ch=1 n=a4 v=84
58836 On ch=2 n=a3 v=84
58912 On ch=2 n=a3 v=0
58912 On ch=1 n=a4 v=0
58912 On ch=1 n=a#4 v=84
58912 On ch=2 n=a#3 v=84
58988 On ch=2 n=a#3 v=0
58988 On ch=1 n=a#4 v=0
58988 On ch=1 n=c5 v=85
58988 On ch=2 n=c4 v=85
59068 On ch=2 n=c4 v=0
59068 On ch=1 n=c5 v=0
59068 On ch=1 n=c#5 v=85
59068 On ch=2 n=c#4 v=85
59144 On ch=2 n=c#4 v=0
59144 On ch=1 n=c#5 v=0
59144 On ch=1 n=d#5 v=86
59144 On ch=2 n=d#4 v=86
59220 On ch=2 n=d#4 v=0
59220 On ch=1 n=d#5 v=0
59220 On ch=1 n=f5 v=86
59220 On ch=2 n=f4 v=86
59300 On ch=2 n=f4 v=0
59300 On ch=1 n=f5 v=0
59300 On ch=1 n=g5 v=87
59300 On ch=2 n=g4 v=87
59376 On ch=2 n=g4 v=0
59376 On ch=1 n=g5 v=0
59376 On ch=1 n=a5 v=87
59376 On ch=2 n=a4 v=87
59452 On ch=2 n=a4 v=0
59452 On ch=1 n=a5 v=0
59452 On ch=1 n=a#5 v=88
59452 On ch=2 n=a#4 v=88
59532 On ch=2 n=a#4 v=0
59532 On ch=1 n=a#5 v=0
59532 On ch=1 n=c6 v=89
59532 On ch=2 n=c5 v=89
59608 On ch=2 n=c5 v=0
59608 On ch=1 n=c6 v=0
59608 On ch=1 n=c#6 v=89
59608 On ch=2 n=c#5 v=89
59688 On ch=2 n=c#5 v=0
59688 On ch=1 n=c#6 v=0
59688 On ch=1 n=d#6 v=90
59688 On ch=2 n=d#5 v=90
59764 On ch=2 n=d#5 v=0
59764 On ch=1 n=d#6 v=0
59764 On ch=1 n=f6 v=90
59764 On ch=2 n=f5 v=90
59840 On ch=2 n=f5 v=0
59840 On ch=1 n=f6 v=0
59840 On ch=1 n=g6 v=91
59840 On ch=2 n=g5 v=91
59920 On ch=2 n=g5 v=0
59920 On ch=1 n=g6 v=0
59920 On ch=1 n=a6 v=91
59920 On ch=2 n=a5 v=91
59996 On ch=2 n=a5 v=0
59996 On ch=1 n=a6 v=0
59996 On ch=1 n=a#6 v=92
59996 On ch=2 n=a#5 v=92
60144 On ch=1 n=a#6 v=0
60168 On ch=2 n=a#5 v=0
60296 On ch=1 n=c7 v=94
60336 On ch=1 n=c7 v=0
60336 Par ch=1 c=64 v=127
60336 On ch=1 n=a#6 v=94
60336 Par ch=2 c=64 v=127
60336 On ch=2 n=c#6 v=94
60336 On ch=2 n=g6 v=94
60336 Par ch=3 c=64 v=127
60336 On ch=3 n=d#2 v=94
60336 On ch=3 n=d#3 v=94
60508 On ch=3 n=d#3 v=0
60508 On ch=3 n=d#2 v=0
60508 On ch=2 n=g6 v=0
60508 On ch=2 n=c#6 v=0
60508 On ch=1 n=a#6 v=0
60508 On ch=1 n=a6 v=95
60508 On ch=2 n=c6 v=95
60508 On ch=2 n=f#6 v=95
60680 On ch=2 n=f#6 v=0
60680 On ch=2 n=c6 v=0
60680 On ch=1 n=a6 v=0
60680 On ch=1 n=a#6 v=96
60680 On ch=2 n=c#6 v=96
60680 On ch=2 n=g6 v=96
60680 On ch=3 n=d#3 v=96
60680 On ch=3 n=d#4 v=96
60848 On ch=3 n=d#4 v=0
60848 On ch=3 n=d#3 v=0
61020 On ch=2 n=g6 v=0
61020 On ch=2 n=c#6 v=0
61020 On ch=1 n=a#6 v=0
61020 Par ch=1 c=64 v=0
61020 On ch=1 n=c7 v=99
61020 Par ch=2 c=64 v=0
61020 On ch=2 n=c6 v=99
61020 On ch=2 n=g6 v=99
61020 Par ch=3 c=64 v=0
61020 On ch=3 n=d#4 v=99
61020 On ch=3 n=d#5 v=99
61360 On ch=3 n=d#5 v=0
61360 On ch=3 n=d#4 v=0
61360 On ch=2 n=g6 v=0
61360 On ch=2 n=c6 v=0
61360 On ch=1 n=c7 v=0
61360 On ch=1 n=c6 v=101
61360 On ch=1 n=g#6 v=101
61360 On ch=2 n=g#5 v=101
61360 On ch=3 n=f4 v=101
61360 On ch=3 n=c5 v=101
61360 On ch=3 n=f5 v=101
61700 On ch=3 n=f5 v=0
61700 On ch=3 n=c5 v=0
61700 On ch=3 n=f4 v=0
61700 On ch=2 n=g#5 v=0
61700 On ch=1 n=g#6 v=0
61700 On ch=1 n=c6 v=0
61700 On ch=1 n=d#6 v=104
61700 On ch=2 n=d#5 v=104
61700 On ch=2 n=g#5 v=104
61700 On ch=3 n=c4 v=104
61700 On ch=3 n=g#4 v=104
61700 On ch=3 n=c5 v=104
62044 On ch=3 n=c5 v=0
62044 On ch=3 n=g#4 v=0
62044 On ch=3 n=c4 v=0
62044 On ch=2 n=g#5 v=0
62044 On ch=2 n=d#5 v=0
62044 On ch=1 n=d#6 v=0
62044 On ch=1 n=f6 v=106
62044 On ch=2 n=f5 v=106
62044 On ch=2 n=g#5 v=106
62044 On ch=3 n=c#4 v=106
62044 On ch=3 n=g#4 v=106
62044 On ch=3 n=c#5 v=106
62384 On ch=3 n=c#5 v=0
62384 On ch=3 n=g#4 v=0
62384 On ch=3 n=c#4 v=0
62384 On ch=2 n=g#5 v=0
62384 On ch=2 n=f5 v=0
62384 On ch=1 n=f6 v=0
62384 On ch=1 n=c6 v=108
62384 On ch=1 n=g#6 v=108
62384 On ch=2 n=g#5 v=108
62384 On ch=3 n=f3 v=108
62384 On ch=3 n=f4 v=108
62724 On ch=3 n=f4 v=0
62724 On ch=3 n=f3 v=0
62724 On ch=2 n=g#5 v=0
62724 On ch=1 n=g#6 v=0
62724 On ch=1 n=c6 v=0
62724 Par ch=1 c=64 v=127
62724 On ch=1 n=c#6 v=111
62724 Par ch=2 c=64 v=127
62724 On ch=2 n=c#5 v=111
62724 On ch=2 n=f5 v=111
62724 On ch=2 n=a#5 v=111
62724 Par ch=3 c=64 v=127
62724 On ch=3 n=a#3 v=111
62724 On ch=3 n=f4 v=111
62724 On ch=3 n=a#4 v=111
63084 On ch=3 n=a#4 v=0
63084 On ch=3 n=f4 v=0
63084 On ch=3 n=a#3 v=0
63084 On ch=2 n=a#5 v=0
63084 On ch=2 n=f5 v=0
63084 On ch=2 n=c#5 v=0
63084 On ch=1 n=c#6 v=0
63084 On ch=1 n=c#6 v=113
63084 On ch=1 n=f6 v=113
63084 On ch=2 n=f5 v=113
63084 On ch=2 n=g#5 v=113
63084 On ch=3 n=a#2 v=113
63084 On ch=3 n=a#3 v=113
63484 On ch=3 n=a#3 v=0
63484 On ch=3 n=a#2 v=0
63484 On ch=2 n=g#5 v=0
63484 On ch=2 n=f5 v=0
63484 On ch=1 n=f6 v=0
63484 On ch=1 n=c#6 v=0
63484 Par ch=1 c=64 v=0
63484 Par ch=1 c=64 v=127
63484 On ch=1 n=d#5 v=115
63484 On ch=1 n=g#5 v=115
63484 On ch=1 n=a#5 v=115
63484 Par ch=1 c=64 v=0
63484 Par ch=1 c=64 v=127
63484 Par ch=1 c=64 v=0
63484 Par ch=1 c=64 v=127
63484 Par ch=2 c=64 v=0
63484 Par ch=2 c=64 v=127
63484 Par ch=2 c=64 v=0
63484 Par ch=2 c=64 v=127
63484 On ch=2 n=a#4 v=115
63484 Par ch=2 c=64 v=0
63484 Par ch=2 c=64 v=127
63484 Par ch=3 c=64 v=0
63484 Par ch=3 c=64 v=127
63484 Par ch=3 c=64 v=0
63484 Par ch=3 c=64 v=127
63484 Par ch=3 c=64 v=0
63484 Par ch=3 c=64 v=127
63484 On ch=3 n=d#3 v=115
63484 On ch=3 n=d#4 v=115
63924 On ch=3 n=d#4 v=0
63924 On ch=3 n=d#3 v=0
63924 On ch=2 n=a#4 v=0
63924 On ch=1 n=a#5 v=0
63924 On ch=1 n=g#5 v=0
63924 On ch=1 n=d#5 v=0
63924 On ch=1 n=d#6 v=118
63924 On ch=2 n=c#5 v=118
63924 On ch=2 n=d#5 v=118
63924 On ch=2 n=g5 v=118
63924 On ch=2 n=a#5 v=118
63924 On ch=3 n=d#2 v=118
63924 On ch=3 n=d#3 v=118
64404 On ch=3 n=d#3 v=0
64404 On ch=3 n=d#2 v=0
64404 On ch=2 n=a#5 v=0
64404 On ch=2 n=g5 v=0
64404 On ch=2 n=d#5 v=0
64404 On ch=2 n=c#5 v=0
64404 On ch=1 n=d#6 v=0
64404 Par ch=1 c=64 v=0
64404 Par ch=1 c=64 v=127
64404 On ch=1 n=c#7 v=120
64404 On ch=1 n=f7 v=120
64404 Par ch=2 c=64 v=0
64404 Par ch=2 c=64 v=127
64404 On ch=2 n=f6 v=120
64404 Par ch=3 c=64 v=0
64404 Par ch=3 c=64 v=127
64404 On ch=3 n=g#2 v=120
64404 On ch=3 n=g#3 v=120
64660 On ch=3 n=g#3 v=0
64660 On ch=3 n=g#2 v=0
64744 On ch=3 n=d#4 v=117
64744 On ch=3 n=d#5 v=117
64916 On ch=2 n=f6 v=0
64916 On ch=1 n=f7 v=0
64916 On ch=1 n=c#7 v=0
64916 On ch=1 n=c7 v=115
64916 On ch=1 n=d#7 v=115
64916 On ch=2 n=d#6 v=115
65084 On ch=2 n=d#6 v=0
65084 On ch=1 n=d#7 v=0
65084 On ch=1 n=c7 v=0
65084 On ch=3 n=d#5 v=0
65084 On ch=3 n=d#4 v=0
65084 On ch=1 n=c7 v=113
65084 On ch=1 n=d#7 v=113
65084 On ch=2 n=d#6 v=113
65084 On ch=3 n=g#5 v=113
65084 On ch=3 n=c5 v=113
65084 On ch=3 n=g#4 v=113
65384 On ch=2 n=d#6 v=0
65384 Par ch=1 c=64 v=0
65384 Par ch=2 c=64 v=0
65384 On ch=2 n=d#5 v=110
65384 Par ch=3 c=64 v=0
65428 On ch=2 n=d#5 v=0
65428 On ch=3 n=g#4 v=0
65428 On ch=3 n=c5 v=0
65428 On ch=3 n=g#5 v=0
65428 On ch=1 n=d#7 v=0
65428 On ch=1 n=c7 v=0
65428 On ch=2 n=d#5 v=110
65428 On ch=3 n=d#3 v=110
65428 On ch=3 n=d#4 v=110
65476 On ch=2 n=d#5 v=0
65476 On ch=2 n=f5 v=110
65524 On ch=2 n=f5 v=0
65524 On ch=2 n=d#5 v=109
65572 On ch=2 n=d#5 v=0
65572 On ch=2 n=f5 v=109
65620 On ch=2 n=f5 v=0
65620 On ch=2 n=d#5 v=108
65672 On ch=2 n=d#5 v=0
65672 On ch=2 n=e5 v=108
65684 On ch=3 n=d#4 v=0
65684 On ch=3 n=d#3 v=0
65720 On ch=2 n=e5 v=0
65720 On ch=2 n=d#5 v=107
65768 On ch=2 n=d#5 v=0
65768 On ch=2 n=g#5 v=107
65768 On ch=3 n=g#4 v=107
65768 On ch=3 n=g#3 v=107
65940 On ch=2 n=g#5 v=0
66024 On ch=3 n=g#3 v=0
66024 On ch=3 n=g#4 v=0
66108 On ch=1 n=c7 v=103
66108 On ch=2 n=c6 v=103
66108 On ch=2 n=g#6 v=103
66108 On ch=3 n=d#2 v=103
66108 On ch=3 n=d#3 v=103
66280 On ch=2 n=g#6 v=0
66280 On ch=2 n=c6 v=0
66280 On ch=1 n=c7 v=0
66280 On ch=1 n=c#7 v=102
66280 On ch=2 n=c#6 v=102
66280 On ch=2 n=a#6 v=102
66448 On ch=2 n=a#6 v=0
66448 On ch=2 n=c#6 v=0
66448 On ch=1 n=c#7 v=0
66448 On ch=3 n=d#3 v=0
66448 On ch=3 n=d#2 v=0
66448 On ch=1 n=c#7 v=100
66448 On ch=1 n=f7 v=100
66448 On ch=2 n=f6 v=100
66448 On ch=3 n=g#2 v=100
66448 On ch=3 n=g#3 v=100
66576 On ch=2 n=f6 v=0
66576 On ch=1 n=f7 v=0
66576 On ch=1 n=c#7 v=0
66704 On ch=3 n=g#3 v=0
66704 On ch=3 n=g#2 v=0
66704 On ch=1 n=c7 v=100
66704 On ch=1 n=d#7 v=100
66704 On ch=2 n=d#6 v=100
66792 On ch=2 n=d#6 v=0
66792 On ch=1 n=d#7 v=0
66792 On ch=1 n=c7 v=0
66792 On ch=1 n=c7 v=100
66792 On ch=1 n=d#7 v=100
66792 On ch=2 n=d#6 v=100
66792 On ch=3 n=d#4 v=100
66792 On ch=3 n=d#5 v=100
66960 On ch=2 n=d#6 v=0
66960 On ch=1 n=d#7 v=0
66960 On ch=1 n=c7 v=0
66960 On ch=1 n=d7 v=100
66960 On ch=2 n=d6 v=100
67132 On ch=2 n=d6 v=0
67132 On ch=1 n=d7 v=0
67132 On ch=3 n=d#5 v=0
67132 On ch=3 n=d#4 v=0
67132 On ch=1 n=c7 v=100
67132 On ch=1 n=d#7 v=100
67132 On ch=2 n=d#6 v=100
67132 On ch=3 n=g#5 v=100
67132 On ch=3 n=c5 v=100
67132 On ch=3 n=g#4 v=100
67428 On ch=2 n=d#6 v=0
67428 On ch=2 n=d#5 v=100
67472 On ch=2 n=d#5 v=0
67472 On ch=3 n=g#4 v=0
67472 On ch=3 n=c5 v=0
67472 On ch=3 n=g#5 v=0
67472 On ch=1 n=d#7 v=0
67472 On ch=1 n=c7 v=0
67472 On ch=2 n=d#5 v=100
67472 On ch=3 n=d#3 v=100
67472 On ch=3 n=d#4 v=100
67520 On ch=2 n=d#5 v=0
67520 On ch=2 n=f5 v=100
67568 On ch=2 n=f5 v=0
67568 On ch=2 n=d#5 v=100
67620 On ch=2 n=d#5 v=0
67620 On ch=2 n=f5 v=100
67668 On ch=2 n=f5 v=0
67668 On ch=2 n=d#5 v=100
67716 On ch=2 n=d#5 v=0
67716 On ch=2 n=e5 v=100
67728 On ch=3 n=d#4 v=0
67728 On ch=3 n=d#3 v=0
67764 On ch=2 n=e5 v=0
67764 On ch=2 n=d#5 v=100
67812 On ch=2 n=d#5 v=0
67812 On ch=2 n=g#5 v=100
67812 On ch=3 n=g#4 v=100
67812 On ch=3 n=g#3 v=100
67984 On ch=2 n=g#5 v=0
68068 On ch=3 n=g#3 v=0
68068 On ch=3 n=g#4 v=0
68156 On ch=1 n=c7 v=100
68156 On ch=2 n=c6 v=100
68156 On ch=2 n=g#6 v=100
68156 On ch=3 n=d#2 v=100
68156 On ch=3 n=d#3 v=100
68324 On ch=2 n=g#6 v=0
68324 On ch=2 n=c6 v=0
68324 On ch=1 n=c7 v=0
68324 On ch=1 n=c#7 v=100
68324 On ch=2 n=c#6 v=100
68324 On ch=2 n=a#6 v=100
68496 On ch=2 n=a#6 v=0
68496 On ch=2 n=c#6 v=0
68496 On ch=1 n=c#7 v=0
68496 On ch=3 n=d#3 v=0
68496 On ch=3 n=d#2 v=0
68496 Par ch=1 c=64 v=127
68496 On ch=1 n=c#7 v=100
68496 On ch=1 n=f7 v=100
68496 Par ch=2 c=64 v=127
68496 On ch=2 n=f6 v=100
68496 Par ch=3 c=64 v=127
68496 On ch=3 n=g#2 v=100
68496 On ch=3 n=g#3 v=100
68624 On ch=1 n=f7 v=0
68624 On ch=1 n=c#7 v=0
68664 On ch=2 n=f6 v=0
68664 On ch=1 n=c7 v=100
68664 On ch=1 n=d#7 v=100
68664 On ch=2 n=d#6 v=100
68752 On ch=3 n=g#3 v=0
68752 On ch=3 n=g#2 v=0
68792 On ch=1 n=d#7 v=0
68792 On ch=1 n=c7 v=0
68792 On ch=1 n=f7 v=100
68836 On ch=1 n=f7 v=0
68836 On ch=1 n=c7 v=100
68836 On ch=1 n=d#7 v=100
68836 On ch=3 n=d#4 v=100
68836 On ch=3 n=d#5 v=100
69008 On ch=1 n=d#7 v=0
69008 On ch=1 n=c7 v=0
69008 On ch=2 n=d#6 v=0
69008 On ch=1 n=d7 v=100
69008 On ch=2 n=d6 v=100
69176 On ch=2 n=d6 v=0
69176 On ch=1 n=d7 v=0
69176 On ch=3 n=d#5 v=0
69176 On ch=3 n=d#4 v=0
69176 On ch=1 n=c#7 v=100
69176 On ch=1 n=f7 v=100
69176 On ch=2 n=f6 v=100
69176 On ch=3 n=g#5 v=100
69176 On ch=3 n=c5 v=100
69176 On ch=3 n=g#4 v=100
69348 On ch=2 n=f6 v=0
69348 On ch=1 n=f7 v=0
69348 On ch=1 n=c#7 v=0
69348 On ch=1 n=c7 v=100
69348 On ch=1 n=d#7 v=100
69348 Par ch=1 c=64 v=0
69348 Par ch=2 c=64 v=0
69348 On ch=2 n=d#6 v=100
69348 Par ch=3 c=64 v=0
69476 On ch=1 n=d#7 v=0
69476 On ch=1 n=c7 v=0
69476 On ch=1 n=f7 v=100
69516 On ch=1 n=f7 v=0
69516 On ch=3 n=g#4 v=0
69516 On ch=3 n=c5 v=0
69516 On ch=3 n=g#5 v=0
69516 On ch=1 n=c7 v=100
69516 On ch=1 n=d#7 v=100
69516 On ch=3 n=d#3 v=100
69516 On ch=3 n=d#4 v=100
69688 On ch=1 n=d#7 v=0
69688 On ch=1 n=c7 v=0
69688 On ch=2 n=d#6 v=0
69688 On ch=1 n=d7 v=100
69688 On ch=2 n=d6 v=100
69772 On ch=3 n=d#4 v=0
69772 On ch=3 n=d#3 v=0
69860 On ch=2 n=d6 v=0
69860 On ch=1 n=d7 v=0
69860 On ch=1 n=c7 v=100
69860 On ch=1 n=d#7 v=100
69860 On ch=2 n=d#6 v=100
69860 On ch=3 n=g#4 v=100
69860 On ch=3 n=g#3 v=100
70028 On ch=2 n=d#6 v=0
70028 On ch=1 n=d#7 v=0
70028 On ch=1 n=c7 v=0
70116 On ch=3 n=g#3 v=0
70116 On ch=3 n=g#4 v=0
70200 Par ch=1 c=64 v=127
70200 Par ch=2 c=64 v=127
70200 On ch=2 n=d#6 v=100
70200 Par ch=3 c=64 v=127
70200 On ch=3 n=d#3 v=100
70244 On ch=2 n=a#6 v=100
70244 On ch=3 n=a#3 v=100
70284 On ch=2 n=f#7 v=100
70284 On ch=3 n=f#4 v=100
70540 On ch=3 n=f#4 v=0
70540 On ch=2 n=f#7 v=0
70540 On ch=3 n=a#3 v=0
70540 On ch=2 n=a#6 v=0
70540 On ch=3 n=d#3 v=0
70540 On ch=2 n=d#6 v=0
70540 Par ch=1 c=64 v=0
70540 Par ch=1 c=64 v=127
70540 Par ch=1 c=64 v=0
70540 Par ch=1 c=64 v=127
70540 Par ch=2 c=64 v=0
70540 Par ch=2 c=64 v=127
70540 On ch=2 n=d#6 v=100
70540 On ch=2 n=a6 v=100
70540 On ch=2 n=f7 v=100
70540 Par ch=2 c=64 v=0
70540 Par ch=2 c=64 v=127
70540 Par ch=3 c=64 v=0
70540 Par ch=3 c=64 v=127
70540 Par ch=3 c=64 v=0
70540 Par ch=3 c=64 v=127
70540 On ch=3 n=f3 v=100
70540 On ch=3 n=c4 v=100
70540 On ch=3 n=d#4 v=100
70540 On ch=3 n=a4 v=100
70880 On ch=3 n=a4 v=0
70880 On ch=3 n=d#4 v=0
70880 On ch=3 n=c4 v=0
70880 On ch=3 n=f3 v=0
70880 On ch=2 n=f7 v=0
70880 On ch=2 n=a6 v=0
70880 On ch=2 n=d#6 v=0
70880 Par ch=1 c=64 v=0
70880 Par ch=1 c=64 v=127
70880 Par ch=1 c=64 v=0
70880 Par ch=1 c=64 v=127
70880 Par ch=2 c=64 v=0
70880 Par ch=2 c=64 v=127
70880 On ch=2 n=c6 v=100
70880 On ch=2 n=d#6 v=100
70880 On ch=2 n=f6 v=100
70880 On ch=2 n=c7 v=100
70880 Par ch=2 c=64 v=0
70880 Par ch=2 c=64 v=127
70880 Par ch=3 c=64 v=0
70880 Par ch=3 c=64 v=127
70880 Par ch=3 c=64 v=0
70880 Par ch=3 c=64 v=127
70880 On ch=3 n=f4 v=100
70880 On ch=3 n=c5 v=100
70880 On ch=3 n=d#5 v=100
70880 On ch=3 n=a5 v=100
71224 On ch=3 n=a5 v=0
71224 On ch=3 n=d#5 v=0
71224 On ch=3 n=c5 v=0
71224 On ch=3 n=f4 v=0
71224 On ch=2 n=c7 v=0
71224 On ch=2 n=f6 v=0
71224 On ch=2 n=d#6 v=0
71224 On ch=2 n=c6 v=0
71224 Par ch=1 c=64 v=0
71224 Par ch=1 c=64 v=127
71224 Par ch=1 c=64 v=0
71224 Par ch=1 c=64 v=127
71224 Par ch=2 c=64 v=0
71224 Par ch=2 c=64 v=127
71224 On ch=2 n=a#5 v=100
71224 On ch=2 n=f6 v=100
71224 On ch=2 n=c#7 v=100
71224 Par ch=2 c=64 v=0
71224 Par ch=2 c=64 v=127
71224 Par ch=3 c=64 v=0
71224 Par ch=3 c=64 v=127
71224 Par ch=3 c=64 v=0
71224 Par ch=3 c=64 v=127
71224 On ch=3 n=a#3 v=100
71224 On ch=3 n=f4 v=100
71224 On ch=3 n=c#5 v=100
71392 On ch=2 n=c#7 v=0
71392 On ch=2 n=f6 v=0
71392 On ch=2 n=a#5 v=0
71564 On ch=3 n=c#5 v=0
71564 On ch=3 n=f4 v=0
71564 On ch=3 n=a#3 v=0
71564 Par ch=1 c=64 v=0
71564 Par ch=2 c=64 v=0
71564 On ch=2 n=f#6 v=100
71564 Par ch=3 c=64 v=0
71564 On ch=3 n=f#4 v=100
71564 On ch=3 n=f#3 v=100
71676 On ch=2 n=f#6 v=0
71676 On ch=2 n=f#5 v=100
71792 On ch=2 n=f#5 v=0
71792 On ch=2 n=f#6 v=100
71904 On ch=2 n=f#6 v=0
71904 On ch=3 n=f#3 v=0
71904 On ch=3 n=f#4 v=0
71904 On ch=2 n=f5 v=100
71904 On ch=2 n=f6 v=100
71904 On ch=3 n=f3 v=100
71904 On ch=3 n=f4 v=100
72244 On ch=3 n=f4 v=0
72244 On ch=3 n=f3 v=0
72244 On ch=2 n=f6 v=0
72244 On ch=2 n=f5 v=0
72244 On ch=2 n=c#5 v=100
72244 On ch=2 n=c#6 v=100
72244 On ch=3 n=c#3 v=100
72244 On ch=3 n=c#4 v=100
72584 On ch=3 n=c#4 v=0
72584 On ch=3 n=c#3 v=0
72584 On ch=2 n=c#6 v=0
72584 On ch=2 n=c#5 v=0
72584 Par ch=1 c=64 v=127
72584 On ch=1 n=d#7 v=100
72584 On ch=1 n=f#7 v=100
72584 Par ch=1 c=64 v=0
72584 Par ch=1 c=64 v=127
72584 Par ch=1 c=64 v=0
72584 Par ch=1 c=64 v=127
72584 Par ch=2 c=64 v=127
72584 Par ch=2 c=64 v=0
72584 Par ch=2 c=64 v=127
72584 On ch=2 n=f#6 v=100
72584 Par ch=2 c=64 v=0
72584 Par ch=2 c=64 v=127
72584 Par ch=3 c=64 v=127
72584 Par ch=3 c=64 v=0
72584 Par ch=3 c=64 v=127
72584 Par ch=3 c=64 v=0
72584 Par ch=3 c=64 v=127
72584 On ch=3 n=a#2 v=100
72584 On ch=3 n=a#3 v=100
72840 On ch=3 n=a#3 v=0
72840 On ch=3 n=a#2 v=0
72928 On ch=3 n=f4 v=100
72928 On ch=3 n=f5 v=100
73096 On ch=2 n=f#6 v=0
73096 On ch=1 n=f#7 v=0
73096 On ch=1 n=d#7 v=0
73096 On ch=1 n=c#7 v=100
73096 On ch=1 n=f7 v=100
73096 On ch=2 n=f6 v=100
73268 On ch=2 n=f6 v=0
73268 On ch=1 n=f7 v=0
73268 On ch=1 n=c#7 v=0
73268 On ch=3 n=f5 v=0
73268 On ch=3 n=f4 v=0
73268 On ch=1 n=c#7 v=100
73268 On ch=1 n=f7 v=100
73268 On ch=2 n=f6 v=100
73268 On ch=3 n=a#5 v=100
73268 On ch=3 n=c#5 v=100
73268 On ch=3 n=a#4 v=100
73564 On ch=2 n=f6 v=0
73564 Par ch=1 c=64 v=0
73564 Par ch=2 c=64 v=0
73564 On ch=2 n=f5 v=100
73564 Par ch=3 c=64 v=0
73608 On ch=2 n=f5 v=0
73608 On ch=3 n=a#4 v=0
73608 On ch=3 n=c#5 v=0
73608 On ch=3 n=a#5 v=0
73608 On ch=1 n=f7 v=0
73608 On ch=1 n=c#7 v=0
73608 On ch=2 n=f5 v=100
73608 On ch=3 n=f3 v=100
73608 On ch=3 n=f4 v=100
73656 On ch=2 n=f5 v=0
73656 On ch=2 n=f#5 v=100
73704 On ch=2 n=f#5 v=0
73704 On ch=2 n=f5 v=100
73756 On ch=2 n=f5 v=0
73756 On ch=2 n=f#5 v=100
73804 On ch=2 n=f#5 v=0
73804 On ch=2 n=f5 v=100
73852 On ch=2 n=f5 v=0
73852 On ch=2 n=e5 v=100
73864 On ch=3 n=f4 v=0
73864 On ch=3 n=f3 v=0
73900 On ch=2 n=e5 v=0
73900 On ch=2 n=f5 v=100
73948 On ch=2 n=f5 v=0
73948 On ch=2 n=a#5 v=100
73948 On ch=3 n=a#4 v=100
73948 On ch=3 n=a#3 v=100
74204 On ch=3 n=a#3 v=0
74204 On ch=3 n=a#4 v=0
74292 On ch=2 n=a#5 v=0
74292 On ch=1 n=c#7 v=100
74292 On ch=2 n=c#6 v=100
74292 On ch=3 n=f2 v=100
74292 On ch=3 n=f3 v=100
74460 On ch=2 n=c#6 v=0
74460 On ch=1 n=c#7 v=0
74460 On ch=1 n=c7 v=100
74460 On ch=1 n=d#7 v=100
74460 Par ch=1 c=64 v=127
74460 Par ch=2 c=64 v=127
74460 On ch=2 n=d#6 v=100
74460 Par ch=3 c=64 v=127
74632 On ch=2 n=d#6 v=0
74632 On ch=1 n=d#7 v=0
74632 On ch=1 n=c7 v=0
74632 On ch=3 n=f3 v=0
74632 On ch=3 n=f2 v=0
74632 On ch=1 n=d#7 v=100
74632 On ch=1 n=f#7 v=100
74632 On ch=2 n=f#6 v=100
74632 On ch=3 n=a#2 v=100
74632 On ch=3 n=a#3 v=100
74800 On ch=2 n=f#6 v=0
74800 On ch=1 n=f#7 v=0
74800 On ch=1 n=d#7 v=0
74888 On ch=3 n=a#3 v=0
74888 On ch=3 n=a#2 v=0
74888 On ch=1 n=c#7 v=100
74888 On ch=1 n=f7 v=100
74888 On ch=2 n=f6 v=100
74972 On ch=2 n=f6 v=0
74972 On ch=1 n=f7 v=0
74972 On ch=1 n=c#7 v=0
74972 On ch=1 n=c#7 v=100
74972 On ch=1 n=f7 v=100
74972 On ch=2 n=f6 v=100
74972 On ch=3 n=f4 v=100
74972 On ch=3 n=f5 v=100
75144 On ch=2 n=f6 v=0
75144 On ch=1 n=f7 v=0
75144 On ch=1 n=c#7 v=0
75144 On ch=1 n=c7 v=100
75144 On ch=1 n=e7 v=100
75144 On ch=2 n=e6 v=100
75312 On ch=2 n=e6 v=0
75312 On ch=1 n=e7 v=0
75312 On ch=1 n=c7 v=0
75312 On ch=3 n=f5 v=0
75312 On ch=3 n=f4 v=0
75312 On ch=1 n=c#7 v=100
75312 On ch=1 n=f7 v=100
75312 On ch=2 n=f6 v=100
75312 On ch=3 n=a#5 v=100
75312 On ch=3 n=c#5 v=100
75312 On ch=3 n=a#4 v=100
75612 On ch=2 n=f6 v=0
75612 Par ch=1 c=64 v=0
75612 Par ch=2 c=64 v=0
75612 On ch=2 n=f5 v=100
75612 Par ch=3 c=64 v=0
75656 On ch=2 n=f5 v=0
75656 On ch=3 n=a#4 v=0
75656 On ch=3 n=c#5 v=0
75656 On ch=3 n=a#5 v=0
75656 On ch=1 n=f7 v=0
75656 On ch=1 n=c#7 v=0
75656 On ch=2 n=f5 v=100
75656 On ch=3 n=f3 v=100
75656 On ch=3 n=f4 v=100
75704 On ch=2 n=f5 v=0
75704 On ch=2 n=f#5 v=100
75752 On ch=2 n=f#5 v=0
75752 On ch=2 n=f5 v=100
75800 On ch=2 n=f5 v=0
75800 On ch=2 n=f#5 v=100
75848 On ch=2 n=f#5 v=0
75848 On ch=2 n=f5 v=100
75896 On ch=2 n=f5 v=0
75896 On ch=2 n=e5 v=100
75908 On ch=3 n=f4 v=0
75908 On ch=3 n=f3 v=0
75944 On ch=2 n=e5 v=0
75944 On ch=2 n=f5 v=100
75996 On ch=2 n=f5 v=0
75996 On ch=2 n=a#5 v=100
75996 On ch=3 n=a#4 v=100
75996 On ch=3 n=a#3 v=100
76252 On ch=3 n=a#3 v=0
76252 On ch=3 n=a#4 v=0
76336 On ch=2 n=a#5 v=0
76336 Par ch=1 c=64 v=127
76336 On ch=1 n=c#7 v=100
76336 On ch=1 n=g7 v=100
76336 Par ch=2 c=64 v=127
76336 On ch=2 n=g6 v=100
76336 Par ch=3 c=64 v=127
76336 On ch=3 n=a#3 v=100
76336 On ch=3 n=a#2 v=100
76508 On ch=2 n=g6 v=0
76508 On ch=1 n=g7 v=0
76508 On ch=1 n=c#7 v=0
76508 On ch=1 n=g#7 v=100
76508 On ch=2 n=g#6 v=100
76676 On ch=2 n=g#6 v=0
76676 On ch=1 n=g#7 v=0
76676 On ch=3 n=a#2 v=0
76676 On ch=3 n=a#3 v=0
76676 On ch=1 n=c8 v=100
76676 On ch=2 n=c7 v=100
76676 On ch=3 n=d#2 v=100
76676 On ch=3 n=d#3 v=100
76848 On ch=3 n=d#3 v=0
76848 On ch=3 n=d#2 v=0
76848 On ch=2 n=c7 v=0
76848 On ch=1 n=c8 v=0
76848 On ch=1 n=g7 v=100
76848 On ch=2 n=d#7 v=100
77016 On ch=2 n=d#7 v=0
77016 On ch=1 n=g7 v=0
77016 On ch=1 n=c7 v=100
77016 On ch=1 n=c8 v=100
77016 On ch=2 n=c6 v=100
77016 On ch=3 n=c#5 v=100
77016 On ch=3 n=d#5 v=100
77016 On ch=3 n=g5 v=100
77104 On ch=1 n=c8 v=0
77104 On ch=1 n=c7 v=0
77188 On ch=2 n=c6 v=0
77188 Par ch=1 c=64 v=0
77188 Par ch=2 c=64 v=0
77188 On ch=2 n=a#5 v=100
77188 Par ch=3 c=64 v=0
77272 On ch=1 n=a#6 v=100
77272 On ch=1 n=a#7 v=100
77360 On ch=1 n=a#7 v=0
77360 On ch=1 n=a#6 v=0
77360 On ch=2 n=a#5 v=0
77360 On ch=3 n=g5 v=0
77360 On ch=3 n=d#5 v=0
77360 On ch=3 n=c#5 v=0
77360 Par ch=1 c=64 v=127
77360 On ch=1 n=a#7 v=100
77360 Par ch=2 c=64 v=127
77360 On ch=2 n=a#6 v=100
77360 Par ch=3 c=64 v=127
77360 On ch=3 n=d#4 v=100
77528 On ch=3 n=d#4 v=0
77528 On ch=2 n=a#6 v=0
77528 On ch=1 n=a#7 v=0
77528 On ch=1 n=f7 v=100
77528 On ch=2 n=c7 v=100
77700 On ch=2 n=c7 v=0
77700 On ch=1 n=f7 v=0
77700 On ch=1 n=a#6 v=100
77700 On ch=1 n=a#7 v=100
77700 On ch=2 n=a#5 v=100
77700 On ch=3 n=c5 v=100
77700 On ch=3 n=d#5 v=100
77784 On ch=1 n=a#7 v=0
77784 On ch=1 n=a#6 v=0
77868 On ch=3 n=d#5 v=0
77868 On ch=3 n=c5 v=0
77868 On ch=2 n=a#5 v=0
77868 Par ch=1 c=64 v=0
77868 Par ch=2 c=64 v=0
77868 On ch=2 n=g#5 v=100
77868 Par ch=3 c=64 v=0
77956 On ch=1 n=g#6 v=100
77956 On ch=1 n=g#7 v=100
78040 On ch=1 n=g#7 v=0
78040 On ch=1 n=g#6 v=0
78040 On ch=2 n=g#5 v=0
78040 Par ch=1 c=64 v=127
78040 On ch=1 n=g#7 v=100
78040 Par ch=1 c=64 v=0
78040 Par ch=1 c=64 v=127
78040 Par ch=2 c=64 v=127
78040 On ch=2 n=g#6 v=100
78040 Par ch=2 c=64 v=0
78040 Par ch=2 c=64 v=127
78040 Par ch=3 c=64 v=127
78040 Par ch=3 c=64 v=0
78040 Par ch=3 c=64 v=127
78040 On ch=3 n=d#4 v=100
78212 On ch=3 n=d#4 v=0
78212 On ch=2 n=g#6 v=0
78212 On ch=1 n=g#7 v=0
78212 On ch=1 n=d#7 v=100
78212 On ch=2 n=a#6 v=100
78380 On ch=2 n=a#6 v=0
78380 On ch=1 n=d#7 v=0
78380 On ch=1 n=g#6 v=100
78380 On ch=1 n=g#7 v=100
78380 On ch=2 n=g#5 v=100
78380 On ch=3 n=a#4 v=100
78380 On ch=3 n=d#5 v=100
78468 On ch=1 n=g#7 v=0
78468 On ch=1 n=g#6 v=0
78552 On ch=2 n=g#5 v=0
78552 Par ch=1 c=64 v=0
78552 Par ch=2 c=64 v=0
78552 On ch=2 n=g5 v=100
78552 Par ch=3 c=64 v=0
78636 On ch=1 n=g6 v=100
78636 On ch=1 n=g7 v=100
78724 On ch=1 n=g7 v=0
78724 On ch=1 n=g6 v=0
78724 On ch=2 n=g5 v=0
78724 On ch=3 n=d#5 v=0
78724 On ch=3 n=a#4 v=0
78724 Par ch=1 c=64 v=127
78724 On ch=1 n=g7 v=100
78724 Par ch=2 c=64 v=127
78724 On ch=2 n=g6 v=100
78724 Par ch=3 c=64 v=127
78724 On ch=3 n=a#3 v=100
78896 On ch=3 n=a#3 v=0
78896 On ch=2 n=g6 v=0
78896 On ch=1 n=g7 v=0
78896 On ch=1 n=d7 v=100
78896 On ch=2 n=a#6 v=100
79080 On ch=2 n=a#6 v=0
79080 On ch=1 n=d7 v=0
79080 On ch=1 n=g6 v=100
79080 On ch=1 n=g7 v=100
79080 On ch=2 n=g5 v=100
79080 On ch=3 n=g#4 v=100
79080 On ch=3 n=a#4 v=100
79080 On ch=3 n=d5 v=100
79172 On ch=1 n=g7 v=0
79172 On ch=1 n=g6 v=0
79264 On ch=3 n=d5 v=0
79264 On ch=3 n=a#4 v=0
79264 On ch=3 n=g#4 v=0
79264 On ch=2 n=g5 v=0
79264 Par ch=1 c=64 v=0
79264 Par ch=2 c=64 v=0
79264 On ch=2 n=f5 v=100
79264 Par ch=3 c=64 v=0
79360 On ch=1 n=f6 v=100
79360 On ch=1 n=f7 v=100
79460 On ch=1 n=f7 v=0
79460 On ch=1 n=f6 v=0
79460 On ch=2 n=f5 v=0
79460 Par ch=1 c=64 v=127
79460 On ch=1 n=f7 v=100
79460 Par ch=1 c=64 v=0
79460 Par ch=1 c=64 v=127
79460 Par ch=2 c=64 v=127
79460 On ch=2 n=f6 v=100
79460 Par ch=2 c=64 v=0
79460 Par ch=2 c=64 v=127
79460 Par ch=3 c=64 v=127
79460 Par ch=3 c=64 v=0
79460 Par ch=3 c=64 v=127
79460 On ch=3 n=d#4 v=100
79660 On ch=3 n=d#4 v=0
79660 On ch=2 n=f6 v=0
79660 On ch=1 n=f7 v=0
79660 On ch=1 n=a#6 v=100
79660 On ch=2 n=g6 v=100
79868 On ch=2 n=g6 v=0
79868 On ch=1 n=a#6 v=0
79868 On ch=1 n=f6 v=100
79868 On ch=1 n=f7 v=100
79868 On ch=2 n=f5 v=100
79868 On ch=3 n=g4 v=100
79868 On ch=3 n=a#4 v=100
79972 On ch=1 n=f7 v=0
79972 On ch=1 n=f6 v=0
80080 On ch=3 n=a#4 v=0
80080 On ch=3 n=g4 v=0
80080 On ch=2 n=f5 v=0
80080 Par ch=1 c=64 v=0
80080 Par ch=2 c=64 v=0
80080 On ch=2 n=d#5 v=100
80080 Par ch=3 c=64 v=0
80188 On ch=1 n=d#6 v=100
80188 On ch=1 n=d#7 v=100
80300 On ch=1 n=d#7 v=0
80300 On ch=1 n=d#6 v=0
80300 On ch=2 n=d#5 v=0
80300 Par ch=1 c=64 v=127
80300 On ch=1 n=c#7 v=100
80300 Par ch=1 c=64 v=0
80300 Par ch=1 c=64 v=127
80300 Par ch=2 c=64 v=127
80300 On ch=2 n=c#6 v=100
80300 Par ch=2 c=64 v=0
80300 Par ch=2 c=64 v=127
80300 Par ch=3 c=64 v=127
80300 Par ch=3 c=64 v=0
80300 Par ch=3 c=64 v=127
80300 On ch=3 n=f3 v=100
80300 On ch=3 n=f4 v=100
80528 On ch=3 n=f4 v=0
80528 On ch=3 n=f3 v=0
80528 On ch=2 n=c#6 v=0
80528 On ch=1 n=c#7 v=0
80528 On ch=1 n=g#6 v=100
80528 On ch=2 n=f6 v=100
80760 On ch=2 n=f6 v=0
80760 On ch=1 n=g#6 v=0
80760 On ch=1 n=c#6 v=100
80760 On ch=1 n=c#7 v=100
80760 On ch=2 n=c#5 v=100
80760 On ch=3 n=g#4 v=100
80880 On ch=1 n=c#7 v=0
80880 On ch=1 n=c#6 v=0
81000 On ch=3 n=g#4 v=0
81000 On ch=2 n=c#5 v=0
81000 Par ch=1 c=64 v=0
81000 Par ch=2 c=64 v=0
81000 On ch=2 n=c5 v=100
81000 Par ch=3 c=64 v=0
81124 On ch=1 n=c6 v=100
81124 On ch=1 n=c7 v=100
81248 On ch=1 n=c7 v=0
81248 On ch=1 n=c6 v=0
81248 On ch=2 n=c5 v=0
81248 Par ch=1 c=64 v=127
81248 Par ch=2 c=64 v=127
81248 On ch=2 n=f5 v=100
81248 Par ch=3 c=64 v=127
81248 On ch=3 n=c#3 v=100
81248 On ch=3 n=c#4 v=100
81588 On ch=3 n=c#4 v=0
81588 On ch=3 n=c#3 v=0
81588 On ch=3 n=f4 v=100
81588 On ch=3 n=a#4 v=100
81928 On ch=3 n=a#4 v=0
81928 On ch=3 n=f4 v=0
81928 On ch=2 n=f5 v=0
81928 Par ch=1 c=64 v=0
81928 Par ch=1 c=64 v=127
81928 Par ch=1 c=64 v=0
81928 Par ch=1 c=64 v=127
81928 Par ch=2 c=64 v=0
81928 Par ch=2 c=64 v=127
81928 On ch=2 n=g5 v=100
81928 Par ch=2 c=64 v=0
81928 Par ch=2 c=64 v=127
81928 Par ch=3 c=64 v=0
81928 Par ch=3 c=64 v=127
81928 Par ch=3 c=64 v=0
81928 Par ch=3 c=64 v=127
81928 On ch=3 n=c3 v=100
81928 On ch=3 n=c4 v=100
82000 On ch=2 n=g5 v=0
82000 On ch=2 n=g#5 v=100
82068 On ch=2 n=g#5 v=0
82068 On ch=2 n=g5 v=100
82136 On ch=2 n=g5 v=0
82136 On ch=2 n=g#5 v=100
82204 On ch=2 n=g#5 v=0
82204 On ch=2 n=g5 v=100
82272 On ch=2 n=g5 v=0
82272 On ch=3 n=c4 v=0
82272 On ch=3 n=c3 v=0
82272 On ch=2 n=f5 v=100
82272 On ch=3 n=e4 v=100
82272 On ch=3 n=a#4 v=100
82272 On ch=3 n=c5 v=100
82440 On ch=2 n=f5 v=0
82440 On ch=2 n=g5 v=100
82612 On ch=2 n=g5 v=0
82612 On ch=3 n=c5 v=0
82612 On ch=3 n=a#4 v=0
82612 On ch=3 n=e4 v=0
82612 Par ch=1 c=64 v=0
82612 Par ch=1 c=64 v=127
82612 Par ch=1 c=64 v=0
82612 Par ch=1 c=64 v=127
82612 Par ch=2 c=64 v=0
82612 Par ch=2 c=64 v=127
82612 On ch=2 n=g#5 v=100
82612 Par ch=2 c=64 v=0
82612 Par ch=2 c=64 v=127
82612 Par ch=3 c=64 v=0
82612 Par ch=3 c=64 v=127
82612 Par ch=3 c=64 v=0
82612 Par ch=3 c=64 v=127
82612 On ch=3 n=f2 v=100
82612 On ch=3 n=f3 v=100
82680 On ch=2 n=g#5 v=0
82680 On ch=2 n=a#5 v=100
82748 On ch=2 n=a#5 v=0
82748 On ch=2 n=g#5 v=100
82816 On ch=2 n=g#5 v=0
82816 On ch=2 n=a#5 v=100
82884 On ch=2 n=a#5 v=0
82884 On ch=2 n=g#5 v=100
82952 On ch=2 n=g#5 v=0
82952 On ch=3 n=f3 v=0
82952 On ch=3 n=f2 v=0
82952 On ch=2 n=g5 v=100
82952 On ch=3 n=f4 v=100
82952 On ch=3 n=g#4 v=100
82952 On ch=3 n=c5 v=100
83124 On ch=2 n=g5 v=0
83124 On ch=2 n=g#5 v=100
83292 On ch=2 n=g#5 v=0
83292 On ch=3 n=c5 v=0
83292 On ch=3 n=g#4 v=0
83292 On ch=3 n=f4 v=0
83292 On ch=1 n=a5 v=100
83292 Par ch=1 c=64 v=0
83292 Par ch=1 c=64 v=127
83292 Par ch=1 c=64 v=0
83292 Par ch=1 c=64 v=127
83292 Par ch=2 c=64 v=0
83292 Par ch=2 c=64 v=127
83292 On ch=2 n=c#5 v=100
83292 On ch=2 n=g5 v=100
83292 Par ch=2 c=64 v=0
83292 Par ch=2 c=64 v=127
83292 Par ch=3 c=64 v=0
83292 Par ch=3 c=64 v=127
83292 Par ch=3 c=64 v=0
83292 Par ch=3 c=64 v=127
83292 On ch=3 n=d#3 v=100
83292 On ch=3 n=d#4 v=100
83464 On ch=1 n=a5 v=0
83464 On ch=1 n=a#5 v=100
83636 On ch=1 n=a#5 v=0
83636 On ch=3 n=d#4 v=0
83636 On ch=3 n=d#3 v=0
83636 On ch=2 n=g5 v=0
83636 On ch=2 n=c#5 v=0
83636 On ch=1 n=c6 v=100
83636 On ch=2 n=c#5 v=100
83636 On ch=2 n=g5 v=100
83636 On ch=3 n=d#4 v=100
83636 On ch=3 n=a#4 v=100
83804 On ch=1 n=c6 v=0
83804 On ch=1 n=c#6 v=100
83976 On ch=1 n=c#6 v=0
83976 On ch=3 n=a#4 v=0
83976 On ch=3 n=d#4 v=0
83976 On ch=2 n=g5 v=0
83976 On ch=2 n=c#5 v=0
83976 Par ch=1 c=64 v=0
83976 On ch=1 n=c6 v=100
83976 Par ch=2 c=64 v=0
83976 On ch=2 n=c5 v=100
83976 On ch=2 n=g#5 v=100
83976 Par ch=3 c=64 v=0
83976 On ch=3 n=g#3 v=100
83976 On ch=3 n=d#4 v=100
83976 On ch=3 n=g#4 v=100
84144 On ch=3 n=g#4 v=0
84144 On ch=3 n=d#4 v=0
84144 On ch=3 n=g#3 v=0
84144 On ch=2 n=g#5 v=0
84144 On ch=2 n=c5 v=0
84144 On ch=1 n=c6 v=0
84316 On ch=1 n=f6 v=100
84316 On ch=2 n=g#5 v=100
84316 On ch=3 n=b4 v=100
84316 On ch=3 n=d5 v=100
84316 On ch=3 n=f5 v=100
84572 On ch=3 n=f5 v=0
84572 On ch=3 n=d5 v=0
84572 On ch=3 n=b4 v=0
84572 On ch=2 n=g#5 v=0
84572 On ch=1 n=f6 v=0
84572 On ch=1 n=d#6 v=100
84572 On ch=2 n=g#5 v=100
84572 On ch=3 n=c5 v=100
84572 On ch=3 n=d#5 v=100
84656 On ch=3 n=d#5 v=0
84656 On ch=3 n=c5 v=0
84656 On ch=2 n=g#5 v=0
84656 On ch=1 n=d#6 v=0
84656 On ch=1 n=d#6 v=100
84656 On ch=2 n=g#5 v=100
84656 On ch=3 n=c5 v=100
84656 On ch=3 n=d#5 v=100
84744 On ch=2 n=g#5 v=0
84744 On ch=1 n=d#6 v=0
84828 On ch=3 n=d#5 v=0
84828 On ch=3 n=c5 v=0
84828 Par ch=1 c=64 v=127
84828 Par ch=2 c=64 v=127
84828 On ch=2 n=g#5 v=100
84828 Par ch=3 c=64 v=127
85000 On ch=1 n=g#6 v=100
85000 On ch=3 n=g#3 v=100
85000 On ch=3 n=g#4 v=100
85168 On ch=1 n=g#6 v=0
85168 On ch=2 n=g#5 v=0
85252 On ch=1 n=g6 v=100
85252 On ch=2 n=g5 v=100
85340 On ch=2 n=g5 v=0
85340 On ch=1 n=g6 v=0
85340 On ch=3 n=g#4 v=0
85340 On ch=3 n=g#3 v=0
85340 Par ch=1 c=64 v=0
85340 Par ch=1 c=64 v=127
85340 On ch=1 n=f6 v=100
85340 Par ch=2 c=64 v=0
85340 Par ch=2 c=64 v=127
85340 On ch=2 n=f5 v=100
85340 Par ch=3 c=64 v=0
85340 Par ch=3 c=64 v=127
85340 On ch=3 n=c#3 v=100
85340 On ch=3 n=c#4 v=100
85680 On ch=3 n=c#4 v=0
85680 On ch=3 n=c#3 v=0
85680 On ch=3 n=f4 v=103
85680 On ch=3 n=a#4 v=103
86020 On ch=3 n=a#4 v=0
86020 On ch=3 n=f4 v=0
86020 On ch=2 n=f5 v=0
86020 On ch=1 n=f6 v=0
86020 Par ch=1 c=64 v=0
86020 Par ch=1 c=64 v=127
86020 Par ch=1 c=64 v=0
86020 Par ch=1 c=64 v=127
86020 Par ch=1 c=64 v=0
86020 Par ch=1 c=64 v=127
86020 Par ch=2 c=64 v=0
86020 Par ch=2 c=64 v=127
86020 Par ch=2 c=64 v=0
86020 Par ch=2 c=64 v=127
86020 On ch=2 n=g5 v=106
86020 Par ch=2 c=64 v=0
86020 Par ch=2 c=64 v=127
86020 Par ch=3 c=64 v=0
86020 Par ch=3 c=64 v=127
86020 Par ch=3 c=64 v=0
86020 Par ch=3 c=64 v=127
86020 Par ch=3 c=64 v=0
86020 Par ch=3 c=64 v=127
86020 On ch=3 n=c3 v=106
86020 On ch=3 n=c4 v=106
86192 On ch=2 n=g5 v=0
86192 On ch=1 n=g6 v=107
86248 On ch=1 n=g6 v=0
86248 On ch=1 n=g#6 v=108
86304 On ch=1 n=g#6 v=0
86304 On ch=1 n=g6 v=108
86360 On ch=1 n=g6 v=0
86360 On ch=3 n=c4 v=0
86360 On ch=3 n=c3 v=0
86360 On ch=1 n=f6 v=109
86360 On ch=2 n=f5 v=109
86360 On ch=3 n=a#4 v=109
86360 On ch=3 n=c5 v=109
86360 On ch=3 n=e5 v=109
86532 On ch=2 n=f5 v=0
86532 On ch=1 n=f6 v=0
86532 On ch=1 n=g6 v=110
86532 On ch=2 n=g5 v=110
86704 On ch=2 n=g5 v=0
86704 On ch=1 n=g6 v=0
86704 On ch=3 n=e5 v=0
86704 On ch=3 n=c5 v=0
86704 On ch=3 n=a#4 v=0
86704 Par ch=1 c=64 v=0
86704 Par ch=1 c=64 v=127
86704 Par ch=1 c=64 v=0
86704 Par ch=1 c=64 v=127
86704 Par ch=1 c=64 v=0
86704 Par ch=1 c=64 v=127
86704 Par ch=2 c=64 v=0
86704 Par ch=2 c=64 v=127
86704 Par ch=2 c=64 v=0
86704 Par ch=2 c=64 v=127
86704 On ch=2 n=g#5 v=111
86704 Par ch=2 c=64 v=0
86704 Par ch=2 c=64 v=127
86704 Par ch=3 c=64 v=0
86704 Par ch=3 c=64 v=127
86704 Par ch=3 c=64 v=0
86704 Par ch=3 c=64 v=127
86704 Par ch=3 c=64 v=0
86704 Par ch=3 c=64 v=127
86704 On ch=3 n=f2 v=111
86704 On ch=3 n=f3 v=111
86872 On ch=2 n=g#5 v=0
86872 On ch=1 n=g#6 v=113
86928 On ch=1 n=g#6 v=0
86928 On ch=1 n=a#6 v=113
86988 On ch=1 n=a#6 v=0
86988 On ch=1 n=g#6 v=114
87044 On ch=1 n=g#6 v=0
87044 On ch=3 n=f3 v=0
87044 On ch=3 n=f2 v=0
87044 On ch=1 n=g6 v=114
87044 On ch=2 n=g5 v=114
87044 On ch=3 n=g#4 v=114
87044 On ch=3 n=c5 v=114
87044 On ch=3 n=f5 v=114
87212 On ch=2 n=g5 v=0
87212 On ch=1 n=g6 v=0
87212 On ch=1 n=g#6 v=116
87212 On ch=2 n=g#5 v=116
87384 On ch=2 n=g#5 v=0
87384 On ch=1 n=g#6 v=0
87384 On ch=3 n=f5 v=0
87384 On ch=3 n=c5 v=0
87384 On ch=3 n=g#4 v=0
87384 Par ch=1 c=64 v=0
87384 Par ch=1 c=64 v=127
87384 On ch=1 n=d#6 v=117
87384 On ch=1 n=a6 v=117
87384 Par ch=1 c=64 v=0
87384 Par ch=1 c=64 v=127
87384 Par ch=1 c=64 v=0
87384 Par ch=1 c=64 v=127
87384 Par ch=2 c=64 v=0
87384 Par ch=2 c=64 v=127
87384 Par ch=2 c=64 v=0
87384 Par ch=2 c=64 v=127
87384 On ch=2 n=a5 v=117
87384 Par ch=2 c=64 v=0
87384 Par ch=2 c=64 v=127
87384 Par ch=3 c=64 v=0
87384 Par ch=3 c=64 v=127
87384 Par ch=3 c=64 v=0
87384 Par ch=3 c=64 v=127
87384 Par ch=3 c=64 v=0
87384 Par ch=3 c=64 v=127
87384 On ch=3 n=d#3 v=117
87384 On ch=3 n=d#4 v=117
87556 On ch=2 n=a5 v=0
87556 On ch=1 n=a6 v=0
87556 On ch=1 n=d#6 v=0
87556 On ch=1 n=a#6 v=119
87556 On ch=2 n=a#5 v=119
87724 On ch=2 n=a#5 v=0
87724 On ch=1 n=a#6 v=0
87724 On ch=3 n=d#4 v=0
87724 On ch=3 n=d#3 v=0
87724 On ch=1 n=c7 v=120
87724 On ch=2 n=c6 v=120
87724 On ch=2 n=g6 v=120
87724 On ch=3 n=a#4 v=120
87724 On ch=3 n=c#5 v=120
87724 On ch=3 n=d#5 v=120
87724 On ch=3 n=g5 v=120
87896 On ch=2 n=g6 v=0
87896 On ch=2 n=c6 v=0
87896 On ch=1 n=c7 v=0
87896 On ch=1 n=c#7 v=120
87896 On ch=2 n=c#6 v=120
88068 On ch=2 n=c#6 v=0
88068 On ch=1 n=c#7 v=0
88068 On ch=3 n=g5 v=0
88068 On ch=3 n=d#5 v=0
88068 On ch=3 n=c#5 v=0
88068 On ch=3 n=a#4 v=0
88068 Par ch=1 c=64 v=0
88068 On ch=1 n=c7 v=120
88068 Par ch=2 c=64 v=0
88068 On ch=2 n=c6 v=120
88068 On ch=2 n=g#6 v=120
88068 Par ch=3 c=64 v=0
88068 On ch=3 n=g#4 v=120
88068 On ch=3 n=d#5 v=120
88068 On ch=3 n=g#5 v=120
88236 On ch=3 n=g#5 v=0
88236 On ch=3 n=d#5 v=0
88236 On ch=3 n=g#4 v=0
88236 On ch=2 n=g#6 v=0
88236 On ch=2 n=c6 v=0
88236 On ch=1 n=c7 v=0
88408 On ch=1 n=f7 v=120
88408 On ch=2 n=f6 v=120
88408 On ch=2 n=g#6 v=120
88408 On ch=3 n=b4 v=120
88408 On ch=3 n=d5 v=120
88408 On ch=3 n=g#5 v=120
88408 On ch=3 n=b5 v=120
88492 On ch=2 n=g#6 v=0
88492 On ch=2 n=f6 v=0
88492 On ch=1 n=f7 v=0
88576 On ch=3 n=b5 v=0
88576 On ch=3 n=g#5 v=0
88576 On ch=3 n=d5 v=0
88576 On ch=3 n=b4 v=0
88664 On ch=1 n=d#7 v=113
88664 On ch=2 n=d#6 v=113
88664 On ch=2 n=g#6 v=113
88664 On ch=3 n=c5 v=113
88664 On ch=3 n=d#5 v=113
88664 On ch=3 n=g#5 v=113
88664 On ch=3 n=c6 v=113
88748 On ch=3 n=c6 v=0
88748 On ch=3 n=g#5 v=0
88748 On ch=3 n=d#5 v=0
88748 On ch=3 n=c5 v=0
88748 On ch=2 n=g#6 v=0
88748 On ch=2 n=d#6 v=0
88748 On ch=1 n=d#7 v=0
88748 On ch=1 n=d#7 v=110
88748 On ch=2 n=d#6 v=110
88748 On ch=2 n=g#6 v=110
88748 On ch=3 n=c5 v=110
88748 On ch=3 n=d#5 v=110
88748 On ch=3 n=g#5 v=110
88748 On ch=3 n=c6 v=110
88896 On ch=2 n=g#6 v=0
88896 On ch=2 n=d#6 v=0
88896 On ch=1 n=d#7 v=0
88920 On ch=3 n=c6 v=0
88920 On ch=3 n=g#5 v=0
88920 On ch=3 n=d#5 v=0
88920 On ch=3 n=c5 v=0
89048 On ch=1 n=d#7 v=101
89048 On ch=2 n=d#6 v=101
89088 On ch=2 n=d#6 v=0
89088 On ch=1 n=d#7 v=0
89088 Par ch=1 c=64 v=127
89088 On ch=1 n=c#7 v=100
89088 Par ch=2 c=64 v=127
89088 On ch=2 n=c#6 v=100
89088 On ch=2 n=a6 v=100
89088 Par ch=3 c=64 v=127
89088 On ch=3 n=f4 v=100
89132 On ch=3 n=d#5 v=100
89176 On ch=3 n=a5 v=100
89344 On ch=2 n=a6 v=0
89344 On ch=2 n=c#6 v=0
89344 On ch=1 n=c#7 v=0
89344 On ch=1 n=c7 v=100
89344 On ch=2 n=c6 v=100
89428 On ch=2 n=c6 v=0
89428 On ch=1 n=c7 v=0
89428 On ch=3 n=a5 v=0
89428 On ch=3 n=d#5 v=0
89428 On ch=3 n=f4 v=0
89428 Par ch=1 c=64 v=0
89428 On ch=1 n=a#6 v=100
89428 Par ch=2 c=64 v=0
89428 On ch=2 n=a#5 v=100
89428 Par ch=3 c=64 v=0
89428 On ch=3 n=a#3 v=100
89472 On ch=3 n=f4 v=100
89516 On ch=3 n=c#5 v=99
89600 On ch=3 n=a#3 v=0
89600 On ch=2 n=a#5 v=0
89600 On ch=1 n=a#6 v=0
89624 On ch=3 n=f4 v=0
89648 On ch=3 n=c#5 v=0
89784 On ch=1 n=f#5 v=97
89784 On ch=1 n=a#5 v=97
89784 On ch=2 n=a#4 v=97
89784 On ch=3 n=d#3 v=97
89828 On ch=3 n=a#3 v=97
89876 On ch=3 n=f#4 v=96
90064 On ch=2 n=a#4 v=0
90064 On ch=1 n=a#5 v=0
90064 On ch=1 n=f#5 v=0
90064 On ch=1 n=c6 v=95
90064 On ch=2 n=c5 v=95
90164 On ch=2 n=c5 v=0
90164 On ch=1 n=c6 v=0
90164 On ch=3 n=f#4 v=0
90164 On ch=3 n=a#3 v=0
90164 On ch=3 n=d#3 v=0
90164 On ch=1 n=c#6 v=94
90164 On ch=2 n=c#5 v=94
90164 On ch=2 n=f5 v=94
90164 On ch=3 n=a#2 v=94
90164 On ch=3 n=f3 v=94
90164 On ch=3 n=c#4 v=94
90572 On ch=3 n=c#4 v=0
90572 On ch=3 n=f3 v=0
90572 On ch=3 n=a#2 v=0
90572 On ch=2 n=f5 v=0
90572 On ch=2 n=c#5 v=0
90572 On ch=1 n=c#6 v=0
90572 On ch=1 n=c#6 v=91
90572 On ch=2 n=c#5 v=91
90572 On ch=2 n=d#5 v=91
90572 On ch=2 n=f#5 v=91
90572 On ch=3 n=d#2 v=91
90572 On ch=3 n=d#3 v=91
90892 On ch=2 n=f#5 v=0
90892 On ch=2 n=d#5 v=0
90892 On ch=2 n=c#5 v=0
90892 On ch=1 n=c#6 v=0
90892 On ch=1 n=c6 v=89
90892 On ch=2 n=c5 v=89
91004 On ch=2 n=c5 v=0
91004 On ch=1 n=c6 v=0
91004 On ch=3 n=d#3 v=0
91004 On ch=3 n=d#2 v=0
91004 On ch=1 n=f5 v=89
91004 On ch=1 n=a#5 v=89
91004 On ch=2 n=a#4 v=89
91004 On ch=3 n=a#2 v=89
91004 On ch=3 n=f3 v=89
91004 On ch=3 n=c#4 v=89
91464 On ch=3 n=c#4 v=0
91464 On ch=3 n=f3 v=0
91464 On ch=3 n=a#2 v=0
91464 On ch=2 n=a#4 v=0
91464 On ch=1 n=a#5 v=0
91464 On ch=1 n=f5 v=0
91464 On ch=1 n=d#5 v=86
91464 On ch=1 n=g#5 v=86
91464 On ch=2 n=g#4 v=86
91464 On ch=2 n=a#4 v=86
91464 On ch=3 n=d#3 v=86
91464 On ch=3 n=a#3 v=86
91464 On ch=3 n=d#4 v=86
91828 On ch=2 n=a#4 v=0
91828 On ch=2 n=g#4 v=0
91828 On ch=1 n=g#5 v=0
91828 On ch=1 n=d#5 v=0
91828 On ch=1 n=f#5 v=84
91828 On ch=2 n=f#4 v=84
91952 On ch=2 n=f#4 v=0
91952 On ch=1 n=f#5 v=0
91952 On ch=3 n=d#4 v=0
91952 On ch=3 n=a#3 v=0
91952 On ch=3 n=d#3 v=0
91952 On ch=1 n=c#5 v=83
91952 On ch=1 n=f5 v=83
91952 On ch=2 n=f4 v=83
91952 On ch=3 n=a#2 v=83
92012 On ch=3 n=f3 v=83
92076 On ch=3 n=c#4 v=82
92324 On ch=2 n=f4 v=0
92324 On ch=1 n=f5 v=0
92324 On ch=1 n=c#5 v=0
92452 On ch=3 n=c#4 v=0
92452 On ch=3 n=f3 v=0
92452 On ch=3 n=a#2 v=0
92452 On ch=1 n=a3 v=80
92452 On ch=2 n=a2 v=80
92528 On ch=2 n=a2 v=0
92528 On ch=1 n=a3 v=0
92528 On ch=1 n=a#3 v=80
92528 On ch=2 n=a#2 v=80
92600 On ch=2 n=a#2 v=0
92600 On ch=1 n=a#3 v=0
92600 On ch=1 n=c4 v=81
92600 On ch=2 n=c3 v=81
92672 On ch=2 n=c3 v=0
92672 On ch=1 n=c4 v=0
92672 On ch=1 n=c#4 v=81
92672 On ch=2 n=c#3 v=81
92748 On ch=2 n=c#3 v=0
92748 On ch=1 n=c#4 v=0
92748 On ch=1 n=d#4 v=82
92748 On ch=2 n=d#3 v=82
92820 On ch=2 n=d#3 v=0
92820 On ch=1 n=d#4 v=0
92820 On ch=1 n=f4 v=82
92820 On ch=2 n=f3 v=82
92896 On ch=2 n=f3 v=0
92896 On ch=1 n=f4 v=0
92896 On ch=1 n=g4 v=82
92896 On ch=2 n=g3 v=82
92968 On ch=2 n=g3 v=0
92968 On ch=1 n=g4 v=0
92968 On ch=1 n=a4 v=83
92968 On ch=2 n=a3 v=83
93044 On ch=2 n=a3 v=0
93044 On ch=1 n=a4 v=0
93044 On ch=1 n=a#4 v=83
93044 On ch=2 n=a#3 v=83
93116 On ch=2 n=a#3 v=0
93116 On ch=1 n=a#4 v=0
93116 On ch=1 n=c5 v=84
93116 On ch=2 n=c4 v=84
93192 On ch=2 n=c4 v=0
93192 On ch=1 n=c5 v=0
93192 On ch=1 n=c#5 v=84
93192 On ch=2 n=c#4 v=84
93264 On ch=2 n=c#4 v=0
93264 On ch=1 n=c#5 v=0
93264 On ch=1 n=d#5 v=84
93264 On ch=2 n=d#4 v=84
93340 On ch=2 n=d#4 v=0
93340 On ch=1 n=d#5 v=0
93340 On ch=1 n=f5 v=85
93340 On ch=2 n=f4 v=85
93412 On ch=2 n=f4 v=0
93412 On ch=1 n=f5 v=0
93412 On ch=1 n=g5 v=85
93412 On ch=2 n=g4 v=85
93488 On ch=2 n=g4 v=0
93488 On ch=1 n=g5 v=0
93488 On ch=1 n=a5 v=86
93488 On ch=2 n=a4 v=86
93560 On ch=2 n=a4 v=0
93560 On ch=1 n=a5 v=0
93560 On ch=1 n=a#5 v=86
93560 On ch=2 n=a#4 v=86
93636 On ch=2 n=a#4 v=0
93636 On ch=1 n=a#5 v=0
93636 On ch=1 n=c6 v=86
93636 On ch=2 n=c5 v=86
93708 On ch=2 n=c5 v=0
93708 On ch=1 n=c6 v=0
93708 On ch=1 n=c#6 v=87
93708 On ch=2 n=c#5 v=87
93784 On ch=2 n=c#5 v=0
93784 On ch=1 n=c#6 v=0
93784 On ch=1 n=d#6 v=87
93784 On ch=2 n=d#5 v=87
93856 On ch=2 n=d#5 v=0
93856 On ch=1 n=d#6 v=0
93856 On ch=1 n=f6 v=88
93856 On ch=2 n=f5 v=88
93928 On ch=2 n=f5 v=0
93928 On ch=1 n=f6 v=0
93928 On ch=1 n=g6 v=88
93928 On ch=2 n=g5 v=88
94004 On ch=2 n=g5 v=0
94004 On ch=1 n=g6 v=0
94004 On ch=1 n=a6 v=89
94004 On ch=2 n=a5 v=89
94076 On ch=2 n=a5 v=0
94076 On ch=1 n=a6 v=0
94076 On ch=1 n=a#6 v=89
94076 On ch=2 n=a#5 v=89
94152 On ch=2 n=a#5 v=0
94152 On ch=1 n=a#6 v=0
94152 On ch=1 n=c7 v=89
94152 On ch=2 n=c6 v=89
94224 On ch=2 n=c6 v=0
94224 On ch=1 n=c7 v=0
94224 On ch=1 n=c#7 v=90
94224 On ch=2 n=c#6 v=90
94300 On ch=2 n=c#6 v=0
94300 On ch=1 n=c#7 v=0
94300 On ch=1 n=d#7 v=90
94300 On ch=2 n=d#6 v=90
94372 On ch=2 n=d#6 v=0
94372 On ch=1 n=d#7 v=0
94372 On ch=1 n=f7 v=91
94372 On ch=2 n=f6 v=91
94448 On ch=2 n=f6 v=0
94448 On ch=1 n=f7 v=0
94448 On ch=1 n=g7 v=91
94448 On ch=2 n=g6 v=91
94520 On ch=2 n=g6 v=0
94520 On ch=1 n=g7 v=0
94520 On ch=1 n=a7 v=91
94520 On ch=2 n=a6 v=91
94596 On ch=2 n=a6 v=0
94596 On ch=1 n=a7 v=0
94596 On ch=1 n=a#7 v=92
94596 On ch=2 n=a#6 v=92
94784 On ch=1 n=a#7 v=0
94808 On ch=2 n=a#6 v=0
94968 On ch=1 n=c8 v=94
95024 On ch=1 n=c8 v=0
95024 Par ch=1 c=64 v=127
95024 On ch=1 n=a#7 v=94
95024 Par ch=2 c=64 v=127
95024 On ch=2 n=c#7 v=94
95024 On ch=2 n=g7 v=94
95024 Par ch=3 c=64 v=127
95024 On ch=3 n=d#2 v=94
95024 On ch=3 n=d#3 v=94
95196 On ch=3 n=d#3 v=0
95196 On ch=3 n=d#2 v=0
95196 On ch=2 n=g7 v=0
95196 On ch=2 n=c#7 v=0
95196 On ch=1 n=a#7 v=0
95196 On ch=1 n=a7 v=95
95196 On ch=2 n=c7 v=95
95196 On ch=2 n=f#7 v=95
95364 On ch=2 n=f#7 v=0
95364 On ch=2 n=c7 v=0
95364 On ch=1 n=a7 v=0
95364 On ch=1 n=a#7 v=96
95364 On ch=2 n=c#7 v=96
95364 On ch=2 n=g7 v=96
95364 On ch=3 n=d#4 v=96
95364 On ch=3 n=d#5 v=96
95536 On ch=3 n=d#5 v=0
95536 On ch=3 n=d#4 v=0
95704 On ch=2 n=g7 v=0
95704 On ch=2 n=c#7 v=0
95704 On ch=1 n=a#7 v=0
95704 Par ch=1 c=64 v=0
95704 On ch=1 n=c8 v=99
95704 Par ch=2 c=64 v=0
95704 On ch=2 n=c7 v=99
95704 On ch=2 n=g7 v=99
95704 Par ch=3 c=64 v=0
95704 On ch=3 n=d#5 v=99
95704 On ch=3 n=g5 v=99
95704 On ch=3 n=c6 v=99
95704 On ch=3 n=d#6 v=99
96048 On ch=3 n=d#6 v=0
96048 On ch=3 n=c6 v=0
96048 On ch=3 n=g5 v=0
96048 On ch=3 n=d#5 v=0
96048 On ch=2 n=g7 v=0
96048 On ch=2 n=c7 v=0
96048 On ch=1 n=c8 v=0
96048 On ch=1 n=c7 v=90
96048 On ch=1 n=g#7 v=90
96048 On ch=2 n=g#6 v=90
96048 On ch=3 n=f5 v=90
96048 On ch=3 n=c6 v=90
96048 On ch=3 n=f6 v=90
96388 On ch=3 n=f6 v=0
96388 On ch=3 n=c6 v=0
96388 On ch=3 n=f5 v=0
96388 On ch=2 n=g#6 v=0
96388 On ch=1 n=g#7 v=0
96388 On ch=1 n=c7 v=0
96388 On ch=1 n=d#7 v=97
96388 On ch=2 n=d#6 v=97
96388 On ch=2 n=g#6 v=97
96388 On ch=3 n=c5 v=97
96388 On ch=3 n=g#5 v=97
96388 On ch=3 n=c6 v=97
96728 On ch=3 n=c6 v=0
96728 On ch=3 n=g#5 v=0
96728 On ch=3 n=c5 v=0
96728 On ch=2 n=g#6 v=0
96728 On ch=2 n=d#6 v=0
96728 On ch=1 n=d#7 v=0
96728 On ch=1 n=f7 v=103
96728 On ch=2 n=f6 v=103
96728 On ch=2 n=g#6 v=103
96728 On ch=3 n=c#5 v=103
96728 On ch=3 n=g#5 v=103
96728 On ch=3 n=c#6 v=103
96900 On ch=3 n=c#6 v=0
96900 On ch=3 n=g#5 v=0
96900 On ch=3 n=c#5 v=0
97068 On ch=2 n=g#6 v=0
97068 On ch=2 n=f6 v=0
97068 On ch=1 n=f7 v=0
97068 Par ch=1 c=64 v=127
97068 On ch=1 n=c#5 v=110
97068 On ch=1 n=d#5 v=110
97068 Par ch=2 c=64 v=127
97068 On ch=2 n=g4 v=110
97068 Par ch=3 c=64 v=127
97068 On ch=3 n=d#3 v=110
97068 On ch=3 n=d#4 v=110
97368 On ch=2 n=g4 v=0
97368 On ch=1 n=d#5 v=0
97368 On ch=1 n=c#5 v=0
97368 On ch=1 n=d#5 v=110
97368 On ch=2 n=g4 v=110
97468 On ch=2 n=g4 v=0
97468 On ch=1 n=d#5 v=0
97468 On ch=2 n=g4 v=110
97520 On ch=2 n=c#5 v=109
97568 On ch=2 n=d#5 v=108
97620 On ch=2 n=a#5 v=108
97868 On ch=3 n=d#4 v=0
97868 On ch=3 n=d#3 v=0
97868 On ch=3 n=d#2 v=110
97868 On ch=3 n=d#3 v=110
98068 On ch=3 n=d#3 v=0
98068 On ch=3 n=d#2 v=0
98268 On ch=2 n=a#5 v=0
98268 On ch=2 n=d#5 v=0
98268 On ch=2 n=c#5 v=0
98268 On ch=2 n=g4 v=0
98268 Par ch=1 c=64 v=0
98268 On ch=1 n=c5 v=97
98268 On ch=1 n=g#5 v=97
98268 Par ch=2 c=64 v=0
98268 On ch=2 n=g#4 v=97
98268 Par ch=3 c=64 v=0
98268 On ch=3 n=g#2 v=100
98268 On ch=3 n=g#3 v=100
98468 On ch=3 n=g#3 v=0
98468 On ch=3 n=g#2 v=0
98668 On ch=2 n=g#4 v=0
98668 On ch=1 n=g#5 v=0
98668 On ch=1 n=c5 v=0
99068 Par ch=1 c=64 v=127
99068 Par ch=2 c=64 v=127
99068 On ch=2 n=c6 v=120
99068 On ch=2 n=c7 v=120
99068 Par ch=3 c=64 v=127
99068 On ch=3 n=c2 v=120
99068 On ch=3 n=c3 v=120
99240 On ch=3 n=c3 v=0
99240 On ch=3 n=c2 v=0
99240 On ch=2 n=c7 v=0
99240 On ch=2 n=c6 v=0
99408 On ch=2 n=c5 v=70
99408 On ch=2 n=c6 v=70
99408 On ch=3 n=c3 v=70
99408 On ch=3 n=c4 v=70
99496 On ch=3 n=c4 v=0
99496 On ch=3 n=c3 v=0
99496 On ch=2 n=c6 v=0
99496 On ch=2 n=c5 v=0
99580 Par ch=1 c=64 v=0
99580 Par ch=2 c=64 v=0
99580 Par ch=3 c=64 v=0
99664 On ch=2 n=c5 v=73
99664 On ch=2 n=c6 v=73
99664 On ch=3 n=c3 v=73
99664 On ch=3 n=c4 v=73
99748 On ch=3 n=c4 v=0
99748 On ch=3 n=c3 v=0
99748 On ch=2 n=c6 v=0
99748 On ch=2 n=c5 v=0
99748 Par ch=1 c=64 v=127
99748 Par ch=2 c=64 v=127
99748 On ch=2 n=c#5 v=74
99748 On ch=2 n=c6 v=74
99748 Par ch=3 c=64 v=127
99748 On ch=3 n=e3 v=74
99748 On ch=3 n=c#4 v=74
100092 On ch=3 n=c#4 v=0
100092 On ch=3 n=e3 v=0
100092 On ch=2 n=c6 v=0
100092 On ch=2 n=c#5 v=0
100092 On ch=2 n=c5 v=78
100092 On ch=2 n=c6 v=78
100092 On ch=3 n=e2 v=78
100092 On ch=3 n=e3 v=78
100176 On ch=3 n=e3 v=0
100176 On ch=3 n=e2 v=0
100176 On ch=2 n=c6 v=0
100176 On ch=2 n=c5 v=0
100260 Par ch=1 c=64 v=0
100260 Par ch=2 c=64 v=0
100260 Par ch=3 c=64 v=0
100348 On ch=2 n=c5 v=81
100348 On ch=2 n=c6 v=81
100348 On ch=3 n=e3 v=81
100348 On ch=3 n=c4 v=81
100432 On ch=3 n=c4 v=0
100432 On ch=3 n=e3 v=0
100432 On ch=2 n=c6 v=0
100432 On ch=2 n=c5 v=0
100432 Par ch=1 c=64 v=127
100432 Par ch=2 c=64 v=127
100432 On ch=2 n=d#5 v=82
100432 On ch=2 n=c6 v=82
100432 Par ch=3 c=64 v=127
100432 On ch=3 n=f3 v=82
100432 On ch=3 n=d#4 v=82
100772 On ch=3 n=d#4 v=0
100772 On ch=3 n=f3 v=0
100772 On ch=2 n=c6 v=0
100772 On ch=2 n=d#5 v=0
100772 On ch=2 n=c5 v=87
100772 On ch=2 n=c6 v=87
100772 On ch=3 n=f2 v=87
100772 On ch=3 n=f3 v=87
100856 On ch=3 n=f3 v=0
100856 On ch=3 n=f2 v=0
100856 On ch=2 n=c6 v=0
100856 On ch=2 n=c5 v=0
100944 Par ch=1 c=64 v=0
100944 Par ch=2 c=64 v=0
100944 Par ch=3 c=64 v=0
101028 On ch=2 n=c#5 v=90
101028 On ch=2 n=c6 v=90
101028 On ch=3 n=f3 v=90
101028 On ch=3 n=c#4 v=90
101112 On ch=3 n=c#4 v=0
101112 On ch=3 n=f3 v=0
101112 On ch=2 n=c6 v=0
101112 On ch=2 n=c#5 v=0
101112 Par ch=1 c=64 v=127
101112 Par ch=2 c=64 v=127
101112 On ch=2 n=f5 v=91
101112 On ch=2 n=c6 v=91
101112 Par ch=3 c=64 v=127
101112 On ch=3 n=g3 v=91
101112 On ch=3 n=f4 v=91
101456 On ch=3 n=f4 v=0
101456 On ch=3 n=g3 v=0
101456 On ch=2 n=c6 v=0
101456 On ch=2 n=f5 v=0
101456 On ch=2 n=c5 v=95
101456 On ch=2 n=c6 v=95
101456 On ch=3 n=g2 v=95
101456 On ch=3 n=g3 v=95
101624 On ch=3 n=g3 v=0
101624 On ch=3 n=g2 v=0
101624 On ch=2 n=c6 v=0
101624 On ch=2 n=c5 v=0
101624 Par ch=1 c=64 v=0
101624 Par ch=2 c=64 v=0
101624 Par ch=3 c=64 v=0
101712 On ch=2 n=e5 v=98
101712 On ch=2 n=c6 v=98
101712 On ch=3 n=g3 v=98
101712 On ch=3 n=e4 v=98
101796 On ch=3 n=e4 v=0
101796 On ch=3 n=g3 v=0
101796 On ch=2 n=c6 v=0
101796 On ch=2 n=e5 v=0
101796 Par ch=1 c=64 v=127
101796 Par ch=2 c=64 v=127
101796 On ch=2 n=g5 v=99
101796 On ch=2 n=c6 v=99
101796 Par ch=3 c=64 v=127
101796 On ch=3 n=g#3 v=99
101796 On ch=3 n=g4 v=99
102136 On ch=3 n=g4 v=0
102136 On ch=3 n=g#3 v=0
102136 On ch=2 n=c6 v=0
102136 On ch=2 n=g5 v=0
102136 On ch=2 n=c5 v=103
102136 On ch=2 n=c6 v=103
102136 On ch=3 n=g#2 v=103
102136 On ch=3 n=g#3 v=103
102308 On ch=3 n=g#3 v=0
102308 On ch=3 n=g#2 v=0
102308 On ch=2 n=c6 v=0
102308 On ch=2 n=c5 v=0
102308 Par ch=1 c=64 v=0
102308 Par ch=2 c=64 v=0
102308 Par ch=3 c=64 v=0
102392 On ch=2 n=f5 v=106
102392 On ch=2 n=c6 v=106
102392 On ch=3 n=g#3 v=106
102392 On ch=3 n=f4 v=106
102476 On ch=3 n=f4 v=0
102476 On ch=3 n=g#3 v=0
102476 On ch=2 n=c6 v=0
102476 On ch=2 n=f5 v=0
102476 Par ch=1 c=64 v=127
102476 Par ch=2 c=64 v=127
102476 On ch=2 n=g#5 v=107
102476 On ch=2 n=c6 v=107
102476 Par ch=3 c=64 v=127
102476 On ch=3 n=g#3 v=107
102476 On ch=3 n=g#4 v=107
102820 On ch=3 n=g#4 v=0
102820 On ch=3 n=g#3 v=0
102820 On ch=2 n=c6 v=0
102820 On ch=2 n=g#5 v=0
102820 On ch=2 n=c5 v=112
102820 On ch=2 n=c6 v=112
102820 On ch=3 n=g#2 v=112
102820 On ch=3 n=g#3 v=112
102988 On ch=3 n=g#3 v=0
102988 On ch=3 n=g#2 v=0
102988 On ch=2 n=c6 v=0
102988 On ch=2 n=c5 v=0
102988 Par ch=1 c=64 v=0
102988 Par ch=2 c=64 v=0
102988 Par ch=3 c=64 v=0
103072 On ch=2 n=f#5 v=115
103072 On ch=2 n=c6 v=115
103072 On ch=3 n=g#3 v=115
103072 On ch=3 n=f#4 v=115
103160 On ch=3 n=f#4 v=0
103160 On ch=3 n=g#3 v=0
103160 On ch=2 n=c6 v=0
103160 On ch=2 n=f#5 v=0
103160 Par ch=1 c=64 v=127
103160 On ch=1 n=c6 v=90
103160 On ch=1 n=e6 v=90
103160 Par ch=2 c=64 v=127
103160 On ch=2 n=e5 v=116
103160 On ch=2 n=g5 v=116
103160 Par ch=3 c=64 v=127
103160 On ch=3 n=g3 v=116
103160 On ch=3 n=g4 v=116
103328 On ch=3 n=g4 v=0
103328 On ch=3 n=g3 v=0
103328 On ch=2 n=g5 v=0
103328 On ch=2 n=e5 v=0
103328 On ch=1 n=e6 v=0
103328 On ch=1 n=c6 v=0
103500 On ch=1 n=c7 v=90
103500 On ch=1 n=e7 v=90
103500 On ch=2 n=e6 v=120
103500 On ch=3 n=g4 v=120
103500 On ch=3 n=g5 v=120
103584 On ch=3 n=g5 v=0
103584 On ch=3 n=g4 v=0
103672 On ch=3 n=g4 v=120
103672 On ch=3 n=g5 v=120
103756 On ch=3 n=g5 v=0
103756 On ch=3 n=g4 v=0
103840 Par ch=1 c=64 v=0
103840 Par ch=2 c=64 v=0
103840 Par ch=3 c=64 v=0
103840 On ch=3 n=a4 v=100
103840 On ch=3 n=a5 v=100
104012 On ch=3 n=a5 v=0
104012 On ch=3 n=a4 v=0
104012 On ch=3 n=g4 v=103
104012 On ch=3 n=g5 v=103
104180 On ch=3 n=g5 v=0
104180 On ch=3 n=g4 v=0
104180 On ch=2 n=e6 v=0
104180 On ch=1 n=e7 v=0
104180 On ch=1 n=c7 v=0
104180 On ch=1 n=d7 v=100
104180 On ch=2 n=d6 v=100
104180 On ch=2 n=b6 v=100
104180 On ch=3 n=g4 v=107
104180 On ch=3 n=g5 v=107
104268 On ch=3 n=g5 v=0
104268 On ch=3 n=g4 v=0
104352 On ch=2 n=b6 v=0
104352 On ch=2 n=d6 v=0
104352 On ch=1 n=d7 v=0
104352 On ch=1 n=c7 v=105
104352 On ch=1 n=e7 v=105
104352 On ch=2 n=e6 v=105
104352 On ch=3 n=g4 v=110
104352 On ch=3 n=g5 v=110
104436 On ch=3 n=g5 v=0
104436 On ch=3 n=g4 v=0
104524 On ch=2 n=e6 v=0
104524 On ch=1 n=e7 v=0
104524 On ch=1 n=c7 v=0
104524 Par ch=1 c=64 v=127
104524 On ch=1 n=d7 v=110
104524 On ch=1 n=f7 v=110
104524 Par ch=2 c=64 v=127
104524 On ch=2 n=f6 v=110
104524 Par ch=3 c=64 v=127
104524 On ch=3 n=g4 v=113
104524 On ch=3 n=g5 v=113
104864 On ch=3 n=g5 v=0
104864 On ch=3 n=g4 v=0
104864 On ch=2 n=f6 v=0
104864 On ch=1 n=f7 v=0
104864 On ch=1 n=d7 v=0
104864 On ch=1 n=e7 v=120
104864 On ch=2 n=e6 v=120
104864 On ch=2 n=g6 v=120
104864 On ch=3 n=d5 v=120
104864 On ch=3 n=f5 v=120
104864 On ch=3 n=g5 v=120
104864 On ch=3 n=b5 v=120
105120 On ch=2 n=g6 v=0
105120 On ch=2 n=e6 v=0
105120 On ch=1 n=e7 v=0
105120 On ch=1 n=d7 v=98
105120 On ch=2 n=d6 v=98
105204 On ch=2 n=d6 v=0
105204 On ch=1 n=d7 v=0
105204 On ch=3 n=b5 v=0
105204 On ch=3 n=g5 v=0
105204 On ch=3 n=f5 v=0
105204 On ch=3 n=d5 v=0
105204 Par ch=1 c=64 v=0
105204 On ch=1 n=c7 v=90
105204 On ch=1 n=e7 v=90
105204 Par ch=2 c=64 v=0
105204 On ch=2 n=c6 v=90
105204 On ch=2 n=e6 v=90
105204 Par ch=3 c=64 v=0
105204 On ch=3 n=c5 v=90
105204 On ch=3 n=g5 v=90
105460 On ch=3 n=g5 v=0
105460 On ch=3 n=c5 v=0
105460 On ch=2 n=e6 v=0
105460 On ch=2 n=c6 v=0
105460 On ch=1 n=e7 v=0
105460 On ch=1 n=c7 v=0
105544 On ch=2 n=c5 v=90
105544 On ch=3 n=c4 v=90
105632 On ch=3 n=c4 v=0
105632 On ch=2 n=c5 v=0
105632 On ch=2 n=e5 v=92
105632 On ch=3 n=e4 v=92
105716 On ch=3 n=e4 v=0
105716 On ch=2 n=e5 v=0
105716 On ch=2 n=g5 v=95
105716 On ch=3 n=g4 v=95
105800 On ch=3 n=g4 v=0
105800 On ch=2 n=g5 v=0
105800 On ch=2 n=b5 v=97
105800 On ch=3 n=b4 v=97
105888 On ch=3 n=b4 v=0
105888 On ch=2 n=b5 v=0
105888 On ch=2 n=c6 v=100
105888 On ch=3 n=c5 v=100
105972 On ch=3 n=c5 v=0
105972 On ch=2 n=c6 v=0
105972 On ch=2 n=e6 v=102
105972 On ch=3 n=e5 v=102
106056 On ch=3 n=e5 v=0
106056 On ch=2 n=e6 v=0
106056 On ch=2 n=g6 v=105
106056 On ch=3 n=g5 v=105
106140 On ch=3 n=g5 v=0
106140 On ch=2 n=g6 v=0
106140 On ch=2 n=b6 v=107
106140 On ch=3 n=b5 v=107
106228 On ch=3 n=b5 v=0
106228 On ch=2 n=b6 v=0
106228 On ch=2 n=c7 v=110
106228 On ch=3 n=c6 v=110
106312 On ch=2 n=c7 v=0
106312 On ch=2 n=e7 v=112
106396 On ch=2 n=e7 v=0
106396 On ch=3 n=c6 v=0
106396 On ch=2 n=g7 v=115
106396 On ch=3 n=c5 v=115
106484 On ch=2 n=g7 v=0
106484 On ch=2 n=c8 v=117
106568 On ch=2 n=c8 v=0
106568 On ch=3 n=c5 v=0
106568 On ch=2 n=c#7 v=120
106568 On ch=2 n=c#8 v=120
106568 On ch=3 n=c#5 v=120
106568 On ch=3 n=c#6 v=120
106908 On ch=3 n=c#6 v=0
106908 On ch=3 n=c#5 v=0
106908 On ch=2 n=c#8 v=0
106908 On ch=2 n=c#7 v=0
106908 On ch=2 n=d7 v=120
106908 On ch=2 n=d8 v=120
106908 On ch=3 n=d5 v=120
106908 On ch=3 n=d6 v=120
107248 On ch=3 n=d6 v=0
107248 On ch=3 n=d5 v=0
107248 On ch=2 n=d8 v=0
107248 On ch=2 n=d7 v=0
107248 Par ch=1 c=64 v=127
107248 Par ch=2 c=64 v=127
107248 On ch=2 n=d#7 v=120
107248 On ch=2 n=d#8 v=120
107248 Par ch=3 c=64 v=127
107248 On ch=3 n=d#5 v=120
107248 On ch=3 n=d#6 v=120
107420 On ch=3 n=d#6 v=0
107420 On ch=3 n=d#5 v=0
107420 On ch=2 n=d#8 v=0
107420 On ch=2 n=d#7 v=0
107592 On ch=2 n=d#5 v=70
107592 On ch=2 n=d#6 v=70
107592 On ch=3 n=d#3 v=70
107592 On ch=3 n=d#4 v=70
107760 On ch=3 n=d#4 v=0
107760 On ch=3 n=d#3 v=0
107760 On ch=2 n=d#6 v=0
107760 On ch=2 n=d#5 v=0
107760 Par ch=1 c=64 v=0
107760 Par ch=2 c=64 v=0
107760 Par ch=3 c=64 v=0
107848 On ch=2 n=d#5 v=73
107848 On ch=2 n=d#6 v=73
107848 On ch=3 n=d#3 v=73
107848 On ch=3 n=d#4 v=73
107932 On ch=3 n=d#4 v=0
107932 On ch=3 n=d#3 v=0
107932 On ch=2 n=d#6 v=0
107932 On ch=2 n=d#5 v=0
107932 Par ch=1 c=64 v=127
107932 Par ch=2 c=64 v=127
107932 On ch=2 n=e5 v=74
107932 On ch=2 n=d#6 v=74
107932 Par ch=3 c=64 v=127
107932 On ch=3 n=g3 v=74
107932 On ch=3 n=e4 v=74
108272 On ch=3 n=e4 v=0
108272 On ch=3 n=g3 v=0
108272 On ch=2 n=d#6 v=0
108272 On ch=2 n=e5 v=0
108272 On ch=2 n=d#5 v=78
108272 On ch=2 n=d#6 v=78
108272 On ch=3 n=g2 v=78
108272 On ch=3 n=g3 v=78
108356 On ch=3 n=g3 v=0
108356 On ch=3 n=g2 v=0
108356 On ch=2 n=d#6 v=0
108356 On ch=2 n=d#5 v=0
108444 Par ch=1 c=64 v=0
108444 Par ch=2 c=64 v=0
108444 Par ch=3 c=64 v=0
108528 On ch=2 n=d#5 v=81
108528 On ch=2 n=d#6 v=81
108528 On ch=3 n=g3 v=81
108528 On ch=3 n=d#4 v=81
108612 On ch=3 n=d#4 v=0
108612 On ch=3 n=g3 v=0
108612 On ch=2 n=d#6 v=0
108612 On ch=2 n=d#5 v=0
108612 Par ch=1 c=64 v=127
108612 Par ch=2 c=64 v=127
108612 On ch=2 n=f#5 v=82
108612 On ch=2 n=d#6 v=82
108612 Par ch=3 c=64 v=127
108612 On ch=3 n=g#3 v=82
108612 On ch=3 n=f#4 v=82
108956 On ch=3 n=f#4 v=0
108956 On ch=3 n=g#3 v=0
108956 On ch=2 n=d#6 v=0
108956 On ch=2 n=f#5 v=0
108956 On ch=2 n=d#5 v=87
108956 On ch=2 n=d#6 v=87
108956 On ch=3 n=g#2 v=87
108956 On ch=3 n=g#3 v=87
109040 On ch=3 n=g#3 v=0
109040 On ch=3 n=g#2 v=0
109040 On ch=2 n=d#6 v=0
109040 On ch=2 n=d#5 v=0
109124 Par ch=1 c=64 v=0
109124 Par ch=2 c=64 v=0
109124 Par ch=3 c=64 v=0
109212 On ch=2 n=e5 v=90
109212 On ch=2 n=d#6 v=90
109212 On ch=3 n=g#3 v=90
109212 On ch=3 n=e4 v=90
109296 On ch=3 n=e4 v=0
109296 On ch=3 n=g#3 v=0
109296 On ch=2 n=d#6 v=0
109296 On ch=2 n=e5 v=0
109296 Par ch=1 c=64 v=127
109296 Par ch=2 c=64 v=127
109296 On ch=2 n=g#5 v=91
109296 On ch=2 n=d#6 v=91
109296 Par ch=3 c=64 v=127
109296 On ch=3 n=a#3 v=91
109296 On ch=3 n=g#4 v=91
109636 On ch=3 n=g#4 v=0
109636 On ch=3 n=a#3 v=0
109636 On ch=2 n=d#6 v=0
109636 On ch=2 n=g#5 v=0
109636 On ch=2 n=d#5 v=95
109636 On ch=2 n=d#6 v=95
109636 On ch=3 n=a#2 v=95
109636 On ch=3 n=a#3 v=95
109720 On ch=3 n=a#3 v=0
109720 On ch=3 n=a#2 v=0
109720 On ch=2 n=d#6 v=0
109720 On ch=2 n=d#5 v=0
109808 Par ch=1 c=64 v=0
109808 Par ch=2 c=64 v=0
109808 Par ch=3 c=64 v=0
109892 On ch=2 n=g5 v=98
109892 On ch=2 n=d#6 v=98
109892 On ch=3 n=a#3 v=98
109892 On ch=3 n=g4 v=98
109976 On ch=3 n=g4 v=0
109976 On ch=3 n=a#3 v=0
109976 On ch=2 n=d#6 v=0
109976 On ch=2 n=g5 v=0
109976 Par ch=1 c=64 v=127
109976 Par ch=2 c=64 v=127
109976 On ch=2 n=a#5 v=99
109976 On ch=2 n=d#6 v=99
109976 Par ch=3 c=64 v=127
109976 On ch=3 n=b3 v=99
109976 On ch=3 n=a#4 v=99
110320 On ch=3 n=a#4 v=0
110320 On ch=3 n=b3 v=0
110320 On ch=2 n=d#6 v=0
110320 On ch=2 n=a#5 v=0
110320 On ch=2 n=d#5 v=103
110320 On ch=2 n=d#6 v=103
110320 On ch=3 n=b2 v=103
110320 On ch=3 n=b3 v=103
110404 On ch=3 n=b3 v=0
110404 On ch=3 n=b2 v=0
110404 On ch=2 n=d#6 v=0
110404 On ch=2 n=d#5 v=0
110488 Par ch=1 c=64 v=0
110488 Par ch=2 c=64 v=0
110488 Par ch=3 c=64 v=0
110572 On ch=2 n=g#5 v=106
110572 On ch=2 n=d#6 v=106
110572 On ch=3 n=b3 v=106
110572 On ch=3 n=g#4 v=106
110660 On ch=3 n=g#4 v=0
110660 On ch=3 n=b3 v=0
110660 On ch=2 n=d#6 v=0
110660 On ch=2 n=g#5 v=0
110660 Par ch=1 c=64 v=127
110660 Par ch=2 c=64 v=127
110660 On ch=2 n=b5 v=107
110660 On ch=2 n=d#6 v=107
110660 Par ch=3 c=64 v=127
110660 On ch=3 n=b3 v=107
110660 On ch=3 n=b4 v=107
111000 On ch=3 n=b4 v=0
111000 On ch=3 n=b3 v=0
111000 On ch=2 n=d#6 v=0
111000 On ch=2 n=b5 v=0
111000 On ch=2 n=d#5 v=112
111000 On ch=2 n=d#6 v=112
111000 On ch=3 n=b2 v=112
111000 On ch=3 n=b3 v=112
111084 On ch=3 n=b3 v=0
111084 On ch=3 n=b2 v=0
111084 On ch=2 n=d#6 v=0
111084 On ch=2 n=d#5 v=0
111172 Par ch=1 c=64 v=0
111172 Par ch=2 c=64 v=0
111172 Par ch=3 c=64 v=0
111256 On ch=2 n=a5 v=115
111256 On ch=2 n=d#6 v=115
111256 On ch=3 n=b3 v=115
111256 On ch=3 n=a4 v=115
111340 On ch=3 n=a4 v=0
111340 On ch=3 n=b3 v=0
111340 On ch=2 n=d#6 v=0
111340 On ch=2 n=a5 v=0
111340 Par ch=1 c=64 v=127
111340 On ch=1 n=d#6 v=120
111340 On ch=1 n=g6 v=120
111340 Par ch=2 c=64 v=127
111340 On ch=2 n=g5 v=116
111340 On ch=2 n=a#5 v=116
111340 Par ch=3 c=64 v=127
111340 On ch=3 n=a#3 v=116
111340 On ch=3 n=a#4 v=116
111512 On ch=3 n=a#4 v=0
111512 On ch=3 n=a#3 v=0
111512 On ch=2 n=a#5 v=0
111512 On ch=2 n=g5 v=0
111512 On ch=1 n=g6 v=0
111512 On ch=1 n=d#6 v=0
111680 On ch=1 n=d#7 v=120
111680 On ch=1 n=g7 v=120
111680 On ch=2 n=g6 v=120
111680 On ch=3 n=a#4 v=120
111680 On ch=3 n=a#5 v=120
111768 On ch=3 n=a#5 v=0
111768 On ch=3 n=a#4 v=0
111852 On ch=3 n=a#4 v=120
111852 On ch=3 n=a#5 v=120
111936 On ch=3 n=a#5 v=0
111936 On ch=3 n=a#4 v=0
112024 Par ch=1 c=64 v=0
112024 Par ch=2 c=64 v=0
112024 Par ch=3 c=64 v=0
112024 On ch=3 n=c5 v=120
112024 On ch=3 n=c6 v=120
112192 On ch=3 n=c6 v=0
112192 On ch=3 n=c5 v=0
112192 On ch=3 n=a#4 v=120
112192 On ch=3 n=a#5 v=120
112364 On ch=3 n=a#5 v=0
112364 On ch=3 n=a#4 v=0
112364 On ch=2 n=g6 v=0
112364 On ch=1 n=g7 v=0
112364 On ch=1 n=d#7 v=0
112364 On ch=1 n=d7 v=100
112364 On ch=1 n=f#7 v=100
112364 On ch=2 n=f#6 v=100
112364 On ch=3 n=a#4 v=100
112364 On ch=3 n=a#5 v=100
112448 On ch=3 n=a#5 v=0
112448 On ch=3 n=a#4 v=0
112532 On ch=2 n=f#6 v=0
112532 On ch=1 n=f#7 v=0
112532 On ch=1 n=d7 v=0
112532 On ch=1 n=d#7 v=105
112532 On ch=1 n=g7 v=105
112532 On ch=2 n=g6 v=105
112532 On ch=3 n=a#4 v=105
112532 On ch=3 n=a#5 v=105
112620 On ch=3 n=a#5 v=0
112620 On ch=3 n=a#4 v=0
112704 On ch=2 n=g6 v=0
112704 On ch=1 n=g7 v=0
112704 On ch=1 n=d#7 v=0
112704 Par ch=1 c=64 v=127
112704 On ch=1 n=d7 v=110
112704 On ch=1 n=g#7 v=110
112704 Par ch=2 c=64 v=127
112704 On ch=2 n=g#6 v=110
112704 Par ch=3 c=64 v=127
112704 On ch=3 n=a#4 v=110
112704 On ch=3 n=a#5 v=110
112876 On ch=3 n=a#5 v=0
112876 On ch=3 n=a#4 v=0
113044 On ch=2 n=g#6 v=0
113044 On ch=1 n=g#7 v=0
113044 On ch=1 n=d7 v=0
113044 On ch=1 n=d7 v=120
113044 On ch=1 n=g7 v=120
113044 On ch=2 n=g6 v=120
113044 On ch=3 n=a#4 v=120
113088 On ch=3 n=f5 v=116
113132 On ch=3 n=g#5 v=113
113172 On ch=3 n=d6 v=109
113300 On ch=2 n=g6 v=0
113300 On ch=1 n=g7 v=0
113300 On ch=1 n=d7 v=0
113300 On ch=1 n=f7 v=98
113300 On ch=2 n=f6 v=98
113388 On ch=2 n=f6 v=0
113388 On ch=1 n=f7 v=0
113388 On ch=3 n=d6 v=0
113388 On ch=3 n=g#5 v=0
113388 On ch=3 n=f5 v=0
113388 On ch=3 n=a#4 v=0
113388 Par ch=1 c=64 v=0
113388 On ch=1 n=d#7 v=90
113388 On ch=1 n=g7 v=90
113388 Par ch=2 c=64 v=0
113388 On ch=2 n=g6 v=90
113388 Par ch=3 c=64 v=0
113388 On ch=3 n=d#5 v=90
113388 On ch=3 n=g5 v=90
113388 On ch=3 n=d#6 v=90
113564 On ch=3 n=d#6 v=0
113564 On ch=3 n=g5 v=0
113564 On ch=3 n=d#5 v=0
113564 On ch=2 n=g6 v=0
113564 On ch=1 n=g7 v=0
113564 On ch=1 n=d#7 v=0
113752 On ch=1 n=g6 v=87
113752 On ch=2 n=g#5 v=87
113752 On ch=3 n=d#4 v=87
113752 On ch=3 n=b4 v=87
113752 On ch=3 n=d#5 v=87
114052 On ch=1 n=g6 v=0
114052 On ch=1 n=f6 v=84
114156 On ch=1 n=f6 v=0
114156 On ch=3 n=d#5 v=0
114156 On ch=3 n=b4 v=0
114156 On ch=3 n=d#4 v=0
114156 On ch=2 n=g#5 v=0
114156 On ch=1 n=d#6 v=83
114156 On ch=2 n=g5 v=83
114156 On ch=3 n=d#4 v=83
114156 On ch=3 n=a#4 v=83
114156 On ch=3 n=d#5 v=83
114604 On ch=3 n=d#5 v=0
114604 On ch=3 n=a#4 v=0
114604 On ch=3 n=d#4 v=0
114604 On ch=2 n=g5 v=0
114604 On ch=1 n=d#6 v=0
114604 On ch=1 n=g5 v=80
114604 On ch=2 n=g#4 v=80
114604 On ch=3 n=d#3 v=80
114604 On ch=3 n=b3 v=80
114604 On ch=3 n=d#4 v=80
114972 On ch=1 n=g5 v=0
114972 On ch=1 n=f5 v=78
115096 On ch=1 n=f5 v=0
115096 On ch=3 n=d#4 v=0
115096 On ch=3 n=b3 v=0
115096 On ch=3 n=d#3 v=0
115096 On ch=2 n=g#4 v=0
115096 On ch=1 n=d#5 v=77
115096 On ch=2 n=g4 v=77
115096 On ch=3 n=d#3 v=77
115096 On ch=3 n=a#3 v=77
115096 On ch=3 n=d#4 v=77
115632 On ch=3 n=d#4 v=0
115632 On ch=3 n=a#3 v=0
115632 On ch=3 n=d#3 v=0
115632 On ch=2 n=g4 v=0
115632 On ch=1 n=d#5 v=0
115632 On ch=3 n=d#2 v=73
115632 On ch=3 n=d#3 v=73
116212 On ch=3 n=d#3 v=0
116212 On ch=3 n=d#2 v=0
116212 Par ch=1 c=64 v=127
116212 On ch=1 n=f5 v=120
116212 Par ch=2 c=64 v=127
116212 Par ch=3 c=64 v=127
116212 On ch=3 n=c#2 v=100
116212 On ch=3 n=c#3 v=100
116684 On ch=3 n=c#3 v=0
116684 On ch=3 n=c#2 v=0
116684 On ch=3 n=f4 v=100
116684 On ch=3 n=g4 v=100
116852 On ch=3 n=g4 v=0
116852 On ch=3 n=f4 v=0
116852 On ch=3 n=f4 v=100
116852 On ch=3 n=g4 v=100
117024 On ch=3 n=g4 v=0
117024 On ch=3 n=f4 v=0
117024 On ch=3 n=f4 v=100
117024 On ch=3 n=g4 v=100
117364 On ch=3 n=g4 v=0
117364 On ch=3 n=f4 v=0
117364 On ch=3 n=f4 v=100
117364 On ch=3 n=g4 v=100
117704 On ch=3 n=g4 v=0
117704 On ch=3 n=f4 v=0
117704 On ch=1 n=f5 v=0
117704 On ch=1 n=a#4 v=100
117704 On ch=3 n=f4 v=100
117704 On ch=3 n=g4 v=100
118048 On ch=3 n=g4 v=0
118048 On ch=3 n=f4 v=0
118048 On ch=3 n=f4 v=100
118048 On ch=3 n=g4 v=100
118388 On ch=3 n=g4 v=0
118388 On ch=3 n=f4 v=0
118388 On ch=1 n=a#4 v=0
118388 Par ch=1 c=64 v=0
118388 Par ch=1 c=64 v=127
118388 On ch=1 n=c5 v=100
118388 Par ch=1 c=64 v=0
118388 Par ch=1 c=64 v=127
118388 Par ch=2 c=64 v=0
118388 Par ch=2 c=64 v=127
118388 On ch=2 n=c4 v=70
118388 Par ch=2 c=64 v=0
118388 Par ch=2 c=64 v=127
118388 Par ch=3 c=64 v=0
118388 Par ch=3 c=64 v=127
118388 Par ch=3 c=64 v=0
118388 Par ch=3 c=64 v=127
118388 On ch=3 n=c3 v=100
118388 On ch=3 n=c4 v=100
118728 On ch=3 n=c4 v=0
118728 On ch=3 n=c3 v=0
118728 On ch=3 n=e4 v=100
118728 On ch=3 n=g4 v=100
118900 On ch=3 n=g4 v=0
118900 On ch=3 n=e4 v=0
118900 On ch=3 n=e4 v=100
118900 On ch=3 n=g4 v=100
119068 On ch=3 n=g4 v=0
119068 On ch=3 n=e4 v=0
119068 Par ch=1 c=64 v=0
119068 Par ch=2 c=64 v=0
119068 Par ch=3 c=64 v=0
119068 On ch=3 n=e4 v=100
119068 On ch=3 n=g4 v=100
119408 On ch=3 n=g4 v=0
119408 On ch=3 n=e4 v=0
119408 On ch=1 n=c5 v=0
119408 On ch=1 n=c5 v=100
119408 On ch=3 n=e4 v=100
119408 On ch=3 n=g4 v=100
119664 On ch=1 n=c5 v=0
119664 On ch=1 n=c#5 v=100
119752 On ch=1 n=c#5 v=0
119752 On ch=3 n=g4 v=0
119752 On ch=3 n=e4 v=0
119752 On ch=2 n=c4 v=0
119752 Par ch=1 c=64 v=127
119752 On ch=1 n=c#5 v=100
119752 Par ch=2 c=64 v=127
119752 Par ch=3 c=64 v=127
119752 On ch=3 n=a#2 v=100
119752 On ch=3 n=a#3 v=100
119812 On ch=1 n=c#5 v=0
119812 On ch=1 n=d#5 v=100
119876 On ch=1 n=d#5 v=0
119876 On ch=1 n=c#5 v=100
119936 On ch=1 n=c#5 v=0
119936 On ch=1 n=d#5 v=100
120000 On ch=1 n=d#5 v=0
120000 On ch=1 n=c#5 v=100
120060 On ch=1 n=c#5 v=0
120060 On ch=1 n=d#5 v=100
120092 On ch=3 n=a#3 v=0
120092 On ch=3 n=a#2 v=0
120092 On ch=3 n=f4 v=100
120092 On ch=3 n=g#4 v=100
120124 On ch=1 n=d#5 v=0
120124 On ch=1 n=c#5 v=100
120184 On ch=1 n=c#5 v=0
120184 On ch=1 n=d#5 v=100
120248 On ch=1 n=d#5 v=0
120248 On ch=1 n=c#5 v=100
120308 On ch=1 n=c#5 v=0
120308 On ch=1 n=c5 v=100
120372 On ch=1 n=c5 v=0
120372 On ch=1 n=c#5 v=100
120432 On ch=1 n=c#5 v=0
120432 On ch=3 n=g#4 v=0
120432 On ch=3 n=f4 v=0
120432 Par ch=1 c=64 v=0
120432 Par ch=1 c=64 v=127
120432 On ch=1 n=c5 v=100
120432 Par ch=2 c=64 v=0
120432 Par ch=2 c=64 v=127
120432 On ch=2 n=c4 v=70
120432 Par ch=3 c=64 v=0
120432 Par ch=3 c=64 v=127
120432 On ch=3 n=c3 v=100
120432 On ch=3 n=c4 v=100
120772 On ch=3 n=c4 v=0
120772 On ch=3 n=c3 v=0
120772 On ch=3 n=e4 v=100
120772 On ch=3 n=g4 v=100
120944 On ch=3 n=g4 v=0
120944 On ch=3 n=e4 v=0
120944 On ch=3 n=e4 v=100
120944 On ch=3 n=g4 v=100
121116 On ch=3 n=g4 v=0
121116 On ch=3 n=e4 v=0
121116 Par ch=1 c=64 v=0
121116 Par ch=2 c=64 v=0
121116 Par ch=3 c=64 v=0
121116 On ch=3 n=e4 v=100
121116 On ch=3 n=g4 v=100
121456 On ch=3 n=g4 v=0
121456 On ch=3 n=e4 v=0
121456 On ch=1 n=c5 v=0
121456 On ch=1 n=c5 v=100
121456 On ch=3 n=e4 v=100
121456 On ch=3 n=g4 v=100
121712 On ch=1 n=c5 v=0
121712 On ch=1 n=c#5 v=100
121796 On ch=1 n=c#5 v=0
121796 On ch=3 n=g4 v=0
121796 On ch=3 n=e4 v=0
121796 On ch=2 n=c4 v=0
121796 Par ch=1 c=64 v=127
121796 On ch=1 n=c#5 v=100
121796 Par ch=2 c=64 v=127
121796 Par ch=3 c=64 v=127
121796 On ch=3 n=a#2 v=100
121796 On ch=3 n=a#3 v=100
121856 On ch=1 n=c#5 v=0
121856 On ch=1 n=d#5 v=100
121920 On ch=1 n=d#5 v=0
121920 On ch=1 n=c#5 v=100
121984 On ch=1 n=c#5 v=0
121984 On ch=1 n=d#5 v=100
122044 On ch=1 n=d#5 v=0
122044 On ch=1 n=c#5 v=100
122104 On ch=1 n=c#5 v=0
122104 On ch=1 n=d#5 v=100
122136 On ch=3 n=a#3 v=0
122136 On ch=3 n=a#2 v=0
122136 On ch=3 n=f4 v=100
122136 On ch=3 n=g#4 v=100
122168 On ch=1 n=d#5 v=0
122168 On ch=1 n=c#5 v=100
122232 On ch=1 n=c#5 v=0
122232 On ch=1 n=d#5 v=100
122292 On ch=1 n=d#5 v=0
122292 On ch=1 n=c#5 v=100
122352 On ch=1 n=c#5 v=0
122352 On ch=1 n=c5 v=100
122416 On ch=1 n=c5 v=0
122416 On ch=1 n=c#5 v=100
122476 On ch=1 n=c#5 v=0
122476 On ch=3 n=g#4 v=0
122476 On ch=3 n=f4 v=0
122476 Par ch=1 c=64 v=0
122476 Par ch=1 c=64 v=127
122476 On ch=1 n=c5 v=100
122476 Par ch=1 c=64 v=0
122476 Par ch=1 c=64 v=127
122476 Par ch=2 c=64 v=0
122476 Par ch=2 c=64 v=127
122476 Par ch=2 c=64 v=0
122476 Par ch=2 c=64 v=127
122476 Par ch=3 c=64 v=0
122476 Par ch=3 c=64 v=127
122476 Par ch=3 c=64 v=0
122476 Par ch=3 c=64 v=127
122476 On ch=3 n=c3 v=100
122476 On ch=3 n=c4 v=100
122820 On ch=3 n=c4 v=0
122820 On ch=3 n=c3 v=0
122820 On ch=1 n=c5 v=0
122820 On ch=1 n=d5 v=100
122820 On ch=3 n=g4 v=100
122820 On ch=3 n=a#4 v=100
122820 On ch=3 n=c5 v=100
122988 On ch=3 n=c5 v=0
122988 On ch=3 n=a#4 v=0
122988 On ch=3 n=g4 v=0
122988 On ch=1 n=d5 v=0
122988 On ch=1 n=e5 v=100
122988 On ch=3 n=g4 v=100
122988 On ch=3 n=a#4 v=100
122988 On ch=3 n=c5 v=100
123160 On ch=3 n=c5 v=0
123160 On ch=3 n=a#4 v=0
123160 On ch=3 n=g4 v=0
123160 On ch=1 n=e5 v=0
123160 On ch=1 n=f5 v=100
123160 On ch=3 n=g4 v=100
123160 On ch=3 n=a#4 v=100
123160 On ch=3 n=c5 v=100
123500 On ch=3 n=c5 v=0
123500 On ch=3 n=a#4 v=0
123500 On ch=3 n=g4 v=0
123500 On ch=1 n=f5 v=0
123500 On ch=1 n=g5 v=100
123500 On ch=3 n=g4 v=100
123500 On ch=3 n=a#4 v=100
123500 On ch=3 n=c5 v=100
123840 On ch=3 n=c5 v=0
123840 On ch=3 n=a#4 v=0
123840 On ch=3 n=g4 v=0
123840 On ch=1 n=g5 v=0
123840 Par ch=1 c=64 v=0
123840 Par ch=1 c=64 v=127
123840 On ch=1 n=a#5 v=100
123840 Par ch=1 c=64 v=0
123840 Par ch=1 c=64 v=127
123840 Par ch=2 c=64 v=0
123840 Par ch=2 c=64 v=127
123840 On ch=2 n=f4 v=70
123840 Par ch=2 c=64 v=0
123840 Par ch=2 c=64 v=127
123840 Par ch=3 c=64 v=0
123840 Par ch=3 c=64 v=127
123840 Par ch=3 c=64 v=0
123840 Par ch=3 c=64 v=127
123840 On ch=3 n=f3 v=100
123840 On ch=3 n=f4 v=100
124012 On ch=1 n=a#5 v=0
124012 On ch=1 n=g#5 v=100
124184 On ch=1 n=g#5 v=0
124184 On ch=3 n=f4 v=0
124184 On ch=3 n=f3 v=0
124184 On ch=1 n=g5 v=100
124184 On ch=3 n=g#4 v=100
124184 On ch=3 n=c5 v=100
124352 On ch=1 n=g5 v=0
124352 On ch=1 n=f5 v=100
124524 On ch=1 n=f5 v=0
124524 On ch=3 n=c5 v=0
124524 On ch=3 n=g#4 v=0
124524 On ch=2 n=f4 v=0
124524 Par ch=1 c=64 v=0
124524 Par ch=1 c=64 v=127
124524 On ch=1 n=f5 v=120
124524 Par ch=2 c=64 v=0
124524 Par ch=2 c=64 v=127
124524 Par ch=3 c=64 v=0
124524 Par ch=3 c=64 v=127
124524 On ch=3 n=c#3 v=100
124524 On ch=3 n=c#4 v=100
124644 On ch=1 n=f5 v=0
124644 On ch=1 n=f5 v=119
124756 On ch=1 n=f5 v=0
124756 On ch=1 n=f6 v=118
124944 On ch=3 n=c#4 v=0
124944 On ch=3 n=c#3 v=0
124944 On ch=3 n=g4 v=100
124944 On ch=3 n=a#4 v=100
124944 On ch=3 n=f5 v=100
125116 On ch=3 n=f5 v=0
125116 On ch=3 n=a#4 v=0
125116 On ch=3 n=g4 v=0
125116 On ch=3 n=g4 v=100
125116 On ch=3 n=a#4 v=100
125116 On ch=3 n=f5 v=100
125284 On ch=3 n=f5 v=0
125284 On ch=3 n=a#4 v=0
125284 On ch=3 n=g4 v=0
125284 On ch=3 n=g4 v=100
125284 On ch=3 n=a#4 v=100
125284 On ch=3 n=f5 v=100
125628 On ch=3 n=f5 v=0
125628 On ch=3 n=a#4 v=0
125628 On ch=3 n=g4 v=0
125628 On ch=3 n=g4 v=100
125628 On ch=3 n=a#4 v=100
125628 On ch=3 n=f5 v=100
125968 On ch=3 n=f5 v=0
125968 On ch=3 n=a#4 v=0
125968 On ch=3 n=g4 v=0
125968 On ch=1 n=f6 v=0
125968 On ch=1 n=a#4 v=100
125968 On ch=1 n=a#5 v=100
125968 On ch=3 n=g4 v=100
125968 On ch=3 n=f5 v=100
126308 On ch=3 n=f5 v=0
126308 On ch=3 n=g4 v=0
126308 On ch=3 n=g4 v=100
126308 On ch=3 n=f5 v=100
126648 On ch=3 n=f5 v=0
126648 On ch=3 n=g4 v=0
126648 On ch=1 n=a#5 v=0
126648 On ch=1 n=a#4 v=0
126648 Par ch=1 c=64 v=0
126648 On ch=1 n=c5 v=100
126648 On ch=1 n=c6 v=100
126648 Par ch=1 c=64 v=127
126648 Par ch=2 c=64 v=0
126648 Par ch=2 c=64 v=127
126648 Par ch=3 c=64 v=0
126648 Par ch=3 c=64 v=127
126648 On ch=3 n=c3 v=100
126648 On ch=3 n=c4 v=100
126988 On ch=3 n=c4 v=0
126988 On ch=3 n=c3 v=0
126988 On ch=3 n=g4 v=100
126988 On ch=3 n=e5 v=100
127160 On ch=3 n=e5 v=0
127160 On ch=3 n=g4 v=0
127160 On ch=3 n=g4 v=100
127160 On ch=3 n=e5 v=100
127332 On ch=3 n=e5 v=0
127332 On ch=3 n=g4 v=0
127332 Par ch=1 c=64 v=0
127332 Par ch=2 c=64 v=0
127332 Par ch=3 c=64 v=0
127332 On ch=3 n=g4 v=100
127332 On ch=3 n=e5 v=100
127672 On ch=3 n=e5 v=0
127672 On ch=3 n=g4 v=0
127672 On ch=1 n=c6 v=0
127672 On ch=1 n=c5 v=0
127672 On ch=1 n=c6 v=100
127672 On ch=3 n=g4 v=100
127672 On ch=3 n=e5 v=100
127928 On ch=1 n=c6 v=0
127928 On ch=1 n=c#6 v=100
128012 On ch=1 n=c#6 v=0
128012 On ch=3 n=e5 v=0
128012 On ch=3 n=g4 v=0
128012 Par ch=1 c=64 v=127
128012 On ch=1 n=c#5 v=100
128012 Par ch=2 c=64 v=127
128012 Par ch=3 c=64 v=127
128012 On ch=3 n=a#2 v=100
128012 On ch=3 n=a#3 v=100
128068 On ch=1 n=c#5 v=0
128068 On ch=1 n=c#6 v=100
128128 On ch=1 n=c#6 v=0
128128 On ch=1 n=d#6 v=100
128184 On ch=1 n=d#6 v=0
128184 On ch=1 n=c#6 v=100
128240 On ch=1 n=c#6 v=0
128240 On ch=1 n=d#6 v=100
128296 On ch=1 n=d#6 v=0
128296 On ch=1 n=c#6 v=100
128352 On ch=1 n=c#6 v=0
128352 On ch=3 n=a#3 v=0
128352 On ch=3 n=a#2 v=0
128352 On ch=1 n=d#6 v=100
128352 On ch=3 n=f4 v=100
128352 On ch=3 n=g#4 v=100
128352 On ch=3 n=f5 v=100
128412 On ch=1 n=d#6 v=0
128412 On ch=1 n=c#6 v=100
128468 On ch=1 n=c#6 v=0
128468 On ch=1 n=d#6 v=100
128524 On ch=1 n=d#6 v=0
128524 On ch=1 n=c#6 v=100
128580 On ch=1 n=c#6 v=0
128580 On ch=1 n=c6 v=100
128636 On ch=1 n=c6 v=0
128636 On ch=1 n=c#6 v=100
128696 On ch=1 n=c#6 v=0
128696 On ch=3 n=f5 v=0
128696 On ch=3 n=g#4 v=0
128696 On ch=3 n=f4 v=0
128696 Par ch=1 c=64 v=0
128696 On ch=1 n=c5 v=100
128696 On ch=1 n=c6 v=100
128696 Par ch=1 c=64 v=127
128696 Par ch=2 c=64 v=0
128696 Par ch=2 c=64 v=127
128696 Par ch=3 c=64 v=0
128696 Par ch=3 c=64 v=127
128696 On ch=3 n=c3 v=100
128696 On ch=3 n=c4 v=100
129036 On ch=3 n=c4 v=0
129036 On ch=3 n=c3 v=0
129036 On ch=3 n=g4 v=100
129036 On ch=3 n=e5 v=100
129204 On ch=3 n=e5 v=0
129204 On ch=3 n=g4 v=0
129204 On ch=3 n=g4 v=100
129204 On ch=3 n=e5 v=100
129376 On ch=3 n=e5 v=0
129376 On ch=3 n=g4 v=0
129376 Par ch=1 c=64 v=0
129376 Par ch=2 c=64 v=0
129376 Par ch=3 c=64 v=0
129376 On ch=3 n=g4 v=100
129376 On ch=3 n=e5 v=100
129716 On ch=3 n=e5 v=0
129716 On ch=3 n=g4 v=0
129716 On ch=1 n=c6 v=0
129716 On ch=1 n=c5 v=0
129716 On ch=1 n=c6 v=100
129716 On ch=3 n=g4 v=100
129716 On ch=3 n=e5 v=100
129972 On ch=1 n=c6 v=0
129972 On ch=1 n=c#6 v=100
130060 On ch=1 n=c#6 v=0
130060 On ch=3 n=e5 v=0
130060 On ch=3 n=g4 v=0
130060 Par ch=1 c=64 v=127
130060 On ch=1 n=c#5 v=100
130060 Par ch=2 c=64 v=127
130060 Par ch=3 c=64 v=127
130060 On ch=3 n=a#2 v=100
130060 On ch=3 n=a#3 v=100
130116 On ch=1 n=c#5 v=0
130116 On ch=1 n=c#6 v=100
130172 On ch=1 n=c#6 v=0
130172 On ch=1 n=d#6 v=100
130228 On ch=1 n=d#6 v=0
130228 On ch=1 n=c#6 v=100
130284 On ch=1 n=c#6 v=0
130284 On ch=1 n=d#6 v=100
130344 On ch=1 n=d#6 v=0
130344 On ch=1 n=c#6 v=100
130400 On ch=1 n=c#6 v=0
130400 On ch=3 n=a#3 v=0
130400 On ch=3 n=a#2 v=0
130400 On ch=1 n=d#6 v=100
130400 On ch=3 n=f4 v=100
130400 On ch=3 n=g#4 v=100
130400 On ch=3 n=f5 v=100
130456 On ch=1 n=d#6 v=0
130456 On ch=1 n=c#6 v=100
130512 On ch=1 n=c#6 v=0
130512 On ch=1 n=d#6 v=100
130568 On ch=1 n=d#6 v=0
130568 On ch=1 n=c#6 v=100
130628 On ch=1 n=c#6 v=0
130628 On ch=1 n=c6 v=100
130684 On ch=1 n=c6 v=0
130684 On ch=1 n=c#6 v=100
130740 On ch=1 n=c#6 v=0
130740 On ch=3 n=f5 v=0
130740 On ch=3 n=g#4 v=0
130740 On ch=3 n=f4 v=0
130740 Par ch=1 c=64 v=0
130740 Par ch=1 c=64 v=127
130740 On ch=1 n=d6 v=100
130740 Par ch=1 c=64 v=0
130740 Par ch=1 c=64 v=127
130740 Par ch=2 c=64 v=0
130740 Par ch=2 c=64 v=127
130740 Par ch=2 c=64 v=0
130740 Par ch=2 c=64 v=127
130740 Par ch=3 c=64 v=0
130740 Par ch=3 c=64 v=127
130740 Par ch=3 c=64 v=0
130740 Par ch=3 c=64 v=127
130740 On ch=3 n=a#2 v=100
130740 On ch=3 n=a#3 v=100
130792 On ch=1 n=d6 v=0
130792 On ch=1 n=d#6 v=100
130844 On ch=1 n=d#6 v=0
130844 On ch=1 n=d6 v=100
130896 On ch=1 n=d6 v=0
130896 On ch=1 n=d#6 v=100
130948 On ch=1 n=d#6 v=0
130948 On ch=1 n=d6 v=100
131000 On ch=1 n=d6 v=0
131000 On ch=1 n=d#6 v=100
131056 On ch=1 n=d#6 v=0
131056 On ch=1 n=d6 v=100
131080 On ch=3 n=a#3 v=0
131080 On ch=3 n=a#2 v=0
131080 On ch=3 n=g#4 v=100
131080 On ch=3 n=a#4 v=100
131080 On ch=3 n=d5 v=100
131080 On ch=3 n=g#5 v=100
131108 On ch=1 n=d6 v=0
131108 On ch=1 n=d#6 v=100
131160 On ch=1 n=d#6 v=0
131160 On ch=1 n=d6 v=100
131212 On ch=1 n=d6 v=0
131212 On ch=1 n=d#6 v=100
131264 On ch=1 n=d#6 v=0
131264 On ch=1 n=d6 v=100
131316 On ch=1 n=d6 v=0
131316 On ch=1 n=c#6 v=100
131368 On ch=1 n=c#6 v=0
131368 On ch=1 n=d6 v=100
131420 On ch=1 n=d6 v=0
131420 On ch=3 n=g#5 v=0
131420 On ch=3 n=d5 v=0
131420 On ch=3 n=a#4 v=0
131420 On ch=3 n=g#4 v=0
131420 Par ch=1 c=64 v=0
131420 Par ch=1 c=64 v=127
131420 On ch=1 n=d#6 v=100
131420 Par ch=2 c=64 v=0
131420 Par ch=2 c=64 v=127
131420 Par ch=3 c=64 v=0
131420 Par ch=3 c=64 v=127
131420 On ch=3 n=d#2 v=100
131420 On ch=3 n=d#3 v=100
131476 On ch=1 n=d#6 v=0
131476 On ch=1 n=f6 v=101
131536 On ch=1 n=f6 v=0
131536 On ch=1 n=d#6 v=101
131592 On ch=1 n=d#6 v=0
131592 On ch=1 n=f6 v=102
131652 On ch=1 n=f6 v=0
131652 On ch=1 n=d#6 v=102
131708 On ch=1 n=d#6 v=0
131708 On ch=1 n=f6 v=103
131764 On ch=1 n=f6 v=0
131764 On ch=1 n=d#6 v=103
131824 On ch=1 n=d#6 v=0
131824 On ch=1 n=f6 v=104
131880 On ch=1 n=f6 v=0
131880 On ch=1 n=d#6 v=105
131920 On ch=3 n=d#3 v=0
131920 On ch=3 n=d#2 v=0
131920 On ch=3 n=g4 v=105
131920 On ch=3 n=a#4 v=105
131920 On ch=3 n=c#5 v=105
131920 On ch=3 n=d#5 v=105
131940 On ch=1 n=d#6 v=0
131940 On ch=1 n=f6 v=105
131996 On ch=1 n=f6 v=0
131996 On ch=1 n=d#6 v=106
132056 On ch=1 n=d#6 v=0
132056 On ch=1 n=f6 v=106
132112 On ch=1 n=f6 v=0
132112 On ch=1 n=d#6 v=107
132172 On ch=1 n=d#6 v=0
132172 On ch=1 n=f6 v=107
132228 On ch=1 n=f6 v=0
132228 On ch=1 n=d#6 v=108
132284 On ch=1 n=d#6 v=0
132284 On ch=1 n=f6 v=109
132344 On ch=1 n=f6 v=0
132344 On ch=1 n=d#6 v=109
132400 On ch=1 n=d#6 v=0
132400 On ch=1 n=f6 v=110
132420 On ch=3 n=d#5 v=0
132420 On ch=3 n=c#5 v=0
132420 On ch=3 n=a#4 v=0
132420 On ch=3 n=g4 v=0
132420 On ch=3 n=a#4 v=110
132420 On ch=3 n=c#5 v=110
132420 On ch=3 n=d#5 v=110
132420 On ch=3 n=g5 v=110
132460 On ch=1 n=f6 v=0
132460 On ch=1 n=d#6 v=110
132516 On ch=1 n=d#6 v=0
132516 On ch=1 n=f6 v=111
132576 On ch=1 n=f6 v=0
132576 On ch=1 n=d#6 v=112
132632 On ch=1 n=d#6 v=0
132632 On ch=1 n=f6 v=112
132688 On ch=1 n=f6 v=0
132688 On ch=1 n=d#6 v=113
132748 On ch=1 n=d#6 v=0
132748 On ch=1 n=f6 v=113
132804 On ch=1 n=f6 v=0
132804 On ch=1 n=d#6 v=114
132864 On ch=1 n=d#6 v=0
132864 On ch=1 n=d6 v=114
132920 On ch=1 n=d6 v=0
132920 On ch=3 n=g5 v=0
132920 On ch=3 n=d#5 v=0
132920 On ch=3 n=c#5 v=0
132920 On ch=3 n=a#4 v=0
132920 On ch=1 n=d#6 v=115
132920 On ch=3 n=c#5 v=115
132920 On ch=3 n=d#5 v=115
132920 On ch=3 n=g5 v=115
132920 On ch=3 n=c#6 v=115
132984 On ch=1 n=d#6 v=0
132984 On ch=1 n=f6 v=116
133044 On ch=1 n=f6 v=0
133044 On ch=1 n=g6 v=116
133108 On ch=1 n=g6 v=0
133108 On ch=1 n=g#6 v=117
133172 On ch=1 n=g#6 v=0
133172 On ch=1 n=a#6 v=117
133232 On ch=1 n=a#6 v=0
133232 On ch=1 n=c7 v=118
133296 On ch=1 n=c7 v=0
133296 On ch=1 n=c#7 v=119
133356 On ch=1 n=c#7 v=0
133356 On ch=1 n=d#7 v=119
133420 On ch=1 n=d#7 v=0
133420 On ch=3 n=c#6 v=0
133420 On ch=3 n=g5 v=0
133420 On ch=3 n=d#5 v=0
133420 On ch=3 n=c#5 v=0
133420 Par ch=1 c=64 v=0
133420 Par ch=1 c=64 v=127
133420 On ch=1 n=c#7 v=120
133420 On ch=1 n=f7 v=120
133420 Par ch=2 c=64 v=0
133420 Par ch=2 c=64 v=127
133420 On ch=2 n=f6 v=120
133420 Par ch=3 c=64 v=0
133420 Par ch=3 c=64 v=127
133420 On ch=3 n=g#2 v=120
133420 On ch=3 n=g#3 v=120
133676 On ch=3 n=g#3 v=0
133676 On ch=3 n=g#2 v=0
133760 On ch=3 n=d#4 v=117
133760 On ch=3 n=d#5 v=117
133932 On ch=2 n=f6 v=0
133932 On ch=1 n=f7 v=0
133932 On ch=1 n=c#7 v=0
133932 On ch=1 n=c7 v=115
133932 On ch=1 n=d#7 v=115
133932 On ch=2 n=d#6 v=115
134100 On ch=2 n=d#6 v=0
134100 On ch=1 n=d#7 v=0
134100 On ch=1 n=c7 v=0
134100 On ch=3 n=d#5 v=0
134100 On ch=3 n=d#4 v=0
134100 On ch=1 n=c7 v=113
134100 On ch=1 n=d#7 v=113
134100 On ch=2 n=d#6 v=113
134100 On ch=3 n=g#5 v=113
134100 On ch=3 n=c5 v=113
134100 On ch=3 n=g#4 v=113
134400 On ch=2 n=d#6 v=0
134400 Par ch=1 c=64 v=0
134400 Par ch=2 c=64 v=0
134400 On ch=2 n=d#5 v=110
134400 Par ch=3 c=64 v=0
134444 On ch=2 n=d#5 v=0
134444 On ch=3 n=g#4 v=0
134444 On ch=3 n=c5 v=0
134444 On ch=3 n=g#5 v=0
134444 On ch=1 n=d#7 v=0
134444 On ch=1 n=c7 v=0
134444 On ch=2 n=d#5 v=110
134444 On ch=3 n=d#3 v=110
134444 On ch=3 n=d#4 v=110
134492 On ch=2 n=d#5 v=0
134492 On ch=2 n=f5 v=110
134540 On ch=2 n=f5 v=0
134540 On ch=2 n=d#5 v=109
134588 On ch=2 n=d#5 v=0
134588 On ch=2 n=f5 v=109
134636 On ch=2 n=f5 v=0
134636 On ch=2 n=d#5 v=108
134688 On ch=2 n=d#5 v=0
134688 On ch=2 n=e5 v=108
134700 On ch=3 n=d#4 v=0
134700 On ch=3 n=d#3 v=0
134736 On ch=2 n=e5 v=0
134736 On ch=2 n=d#5 v=107
134784 On ch=2 n=d#5 v=0
134784 On ch=2 n=g#5 v=107
134784 On ch=3 n=g#4 v=107
134784 On ch=3 n=g#3 v=107
134956 On ch=2 n=g#5 v=0
135040 On ch=3 n=g#3 v=0
135040 On ch=3 n=g#4 v=0
135124 On ch=1 n=c7 v=103
135124 On ch=2 n=c6 v=103
135124 On ch=2 n=g#6 v=103
135124 On ch=3 n=d#2 v=103
135124 On ch=3 n=d#3 v=103
135296 On ch=2 n=g#6 v=0
135296 On ch=2 n=c6 v=0
135296 On ch=1 n=c7 v=0
135296 On ch=1 n=c#7 v=102
135296 On ch=2 n=c#6 v=102
135296 On ch=2 n=a#6 v=102
135464 On ch=2 n=a#6 v=0
135464 On ch=2 n=c#6 v=0
135464 On ch=1 n=c#7 v=0
135464 On ch=3 n=d#3 v=0
135464 On ch=3 n=d#2 v=0
135464 On ch=1 n=c#7 v=100
135464 On ch=1 n=f7 v=100
135464 On ch=2 n=f6 v=100
135464 On ch=3 n=g#2 v=100
135464 On ch=3 n=g#3 v=100
135592 On ch=2 n=f6 v=0
135592 On ch=1 n=f7 v=0
135592 On ch=1 n=c#7 v=0
135720 On ch=3 n=g#3 v=0
135720 On ch=3 n=g#2 v=0
135720 On ch=1 n=c7 v=100
135720 On ch=1 n=d#7 v=100
135720 On ch=2 n=d#6 v=100
135808 On ch=2 n=d#6 v=0
135808 On ch=1 n=d#7 v=0
135808 On ch=1 n=c7 v=0
135808 On ch=1 n=c7 v=100
135808 On ch=1 n=d#7 v=100
135808 On ch=2 n=d#6 v=100
135808 On ch=3 n=d#4 v=100
135808 On ch=3 n=d#5 v=100
135976 On ch=2 n=d#6 v=0
135976 On ch=1 n=d#7 v=0
135976 On ch=1 n=c7 v=0
135976 On ch=1 n=d7 v=100
135976 On ch=2 n=d6 v=100
136148 On ch=2 n=d6 v=0
136148 On ch=1 n=d7 v=0
136148 On ch=3 n=d#5 v=0
136148 On ch=3 n=d#4 v=0
136148 On ch=1 n=c7 v=100
136148 On ch=1 n=d#7 v=100
136148 On ch=2 n=d#6 v=100
136148 On ch=3 n=g#5 v=100
136148 On ch=3 n=c5 v=100
136148 On ch=3 n=g#4 v=100
136444 On ch=2 n=d#6 v=0
136444 On ch=2 n=d#5 v=100
136488 On ch=2 n=d#5 v=0
136488 On ch=3 n=g#4 v=0
136488 On ch=3 n=c5 v=0
136488 On ch=3 n=g#5 v=0
136488 On ch=1 n=d#7 v=0
136488 On ch=1 n=c7 v=0
136488 On ch=2 n=d#5 v=100
136488 On ch=3 n=d#3 v=100
136488 On ch=3 n=d#4 v=100
136536 On ch=2 n=d#5 v=0
136536 On ch=2 n=f5 v=100
136584 On ch=2 n=f5 v=0
136584 On ch=2 n=d#5 v=100
136636 On ch=2 n=d#5 v=0
136636 On ch=2 n=f5 v=100
136684 On ch=2 n=f5 v=0
136684 On ch=2 n=d#5 v=100
136732 On ch=2 n=d#5 v=0
136732 On ch=2 n=e5 v=100
136744 On ch=3 n=d#4 v=0
136744 On ch=3 n=d#3 v=0
136780 On ch=2 n=e5 v=0
136780 On ch=2 n=d#5 v=100
136828 On ch=2 n=d#5 v=0
136828 On ch=2 n=g#5 v=100
136828 On ch=3 n=g#4 v=100
136828 On ch=3 n=g#3 v=100
137000 On ch=2 n=g#5 v=0
137084 On ch=3 n=g#3 v=0
137084 On ch=3 n=g#4 v=0
137172 On ch=1 n=c7 v=100
137172 On ch=2 n=c6 v=100
137172 On ch=2 n=g#6 v=100
137172 On ch=3 n=d#2 v=100
137172 On ch=3 n=d#3 v=100
137340 On ch=2 n=g#6 v=0
137340 On ch=2 n=c6 v=0
137340 On ch=1 n=c7 v=0
137340 On ch=1 n=c#7 v=100
137340 On ch=2 n=c#6 v=100
137340 On ch=2 n=a#6 v=100
137512 On ch=2 n=a#6 v=0
137512 On ch=2 n=c#6 v=0
137512 On ch=1 n=c#7 v=0
137512 On ch=3 n=d#3 v=0
137512 On ch=3 n=d#2 v=0
137512 Par ch=1 c=64 v=127
137512 On ch=1 n=c#7 v=100
137512 On ch=1 n=f7 v=100
137512 Par ch=2 c=64 v=127
137512 On ch=2 n=f6 v=100
137512 Par ch=3 c=64 v=127
137512 On ch=3 n=g#2 v=100
137512 On ch=3 n=g#3 v=100
137640 On ch=1 n=f7 v=0
137640 On ch=1 n=c#7 v=0
137680 On ch=2 n=f6 v=0
137680 On ch=1 n=c7 v=100
137680 On ch=1 n=d#7 v=100
137680 On ch=2 n=d#6 v=100
137768 On ch=3 n=g#3 v=0
137768 On ch=3 n=g#2 v=0
137808 On ch=1 n=d#7 v=0
137808 On ch=1 n=c7 v=0
137808 On ch=1 n=f7 v=100
137852 On ch=1 n=f7 v=0
137852 On ch=1 n=c7 v=100
137852 On ch=1 n=d#7 v=100
137852 On ch=3 n=d#4 v=100
137852 On ch=3 n=d#5 v=100
138024 On ch=1 n=d#7 v=0
138024 On ch=1 n=c7 v=0
138024 On ch=2 n=d#6 v=0
138024 On ch=1 n=d7 v=100
138024 On ch=2 n=d6 v=100
138192 On ch=2 n=d6 v=0
138192 On ch=1 n=d7 v=0
138192 On ch=3 n=d#5 v=0
138192 On ch=3 n=d#4 v=0
138192 On ch=1 n=c#7 v=100
138192 On ch=1 n=f7 v=100
138192 On ch=2 n=f6 v=100
138192 On ch=3 n=g#5 v=100
138192 On ch=3 n=c5 v=100
138192 On ch=3 n=g#4 v=100
138364 On ch=2 n=f6 v=0
138364 On ch=1 n=f7 v=0
138364 On ch=1 n=c#7 v=0
138364 On ch=1 n=c7 v=100
138364 On ch=1 n=d#7 v=100
138364 Par ch=1 c=64 v=0
138364 Par ch=2 c=64 v=0
138364 On ch=2 n=d#6 v=100
138364 Par ch=3 c=64 v=0
138492 On ch=1 n=d#7 v=0
138492 On ch=1 n=c7 v=0
138492 On ch=1 n=f7 v=100
138532 On ch=1 n=f7 v=0
138532 On ch=3 n=g#4 v=0
138532 On ch=3 n=c5 v=0
138532 On ch=3 n=g#5 v=0
138532 On ch=1 n=c7 v=100
138532 On ch=1 n=d#7 v=100
138532 On ch=3 n=d#3 v=100
138532 On ch=3 n=d#4 v=100
138704 On ch=1 n=d#7 v=0
138704 On ch=1 n=c7 v=0
138704 On ch=2 n=d#6 v=0
138704 On ch=1 n=d7 v=100
138704 On ch=2 n=d6 v=100
138788 On ch=3 n=d#4 v=0
138788 On ch=3 n=d#3 v=0
138876 On ch=2 n=d6 v=0
138876 On ch=1 n=d7 v=0
138876 On ch=1 n=c7 v=100
138876 On ch=1 n=d#7 v=100
138876 On ch=2 n=d#6 v=100
138876 On ch=3 n=g#4 v=100
138876 On ch=3 n=g#3 v=100
139044 On ch=2 n=d#6 v=0
139044 On ch=1 n=d#7 v=0
139044 On ch=1 n=c7 v=0
139132 On ch=3 n=g#3 v=0
139132 On ch=3 n=g#4 v=0
139216 Par ch=1 c=64 v=127
139216 Par ch=2 c=64 v=127
139216 On ch=2 n=d#6 v=100
139216 Par ch=3 c=64 v=127
139216 On ch=3 n=d#3 v=100
139260 On ch=2 n=a#6 v=100
139260 On ch=3 n=a#3 v=100
139300 On ch=2 n=f#7 v=100
139300 On ch=3 n=f#4 v=100
139556 On ch=3 n=f#4 v=0
139556 On ch=2 n=f#7 v=0
139556 On ch=3 n=a#3 v=0
139556 On ch=2 n=a#6 v=0
139556 On ch=3 n=d#3 v=0
139556 On ch=2 n=d#6 v=0
139556 Par ch=1 c=64 v=0
139556 Par ch=1 c=64 v=127
139556 Par ch=1 c=64 v=0
139556 Par ch=1 c=64 v=127
139556 Par ch=2 c=64 v=0
139556 Par ch=2 c=64 v=127
139556 On ch=2 n=d#6 v=100
139556 On ch=2 n=a6 v=100
139556 On ch=2 n=f7 v=100
139556 Par ch=2 c=64 v=0
139556 Par ch=2 c=64 v=127
139556 Par ch=3 c=64 v=0
139556 Par ch=3 c=64 v=127
139556 Par ch=3 c=64 v=0
139556 Par ch=3 c=64 v=127
139556 On ch=3 n=f3 v=100
139556 On ch=3 n=c4 v=100
139556 On ch=3 n=d#4 v=100
139556 On ch=3 n=a4 v=100
139896 On ch=3 n=a4 v=0
139896 On ch=3 n=d#4 v=0
139896 On ch=3 n=c4 v=0
139896 On ch=3 n=f3 v=0
139896 On ch=2 n=f7 v=0
139896 On ch=2 n=a6 v=0
139896 On ch=2 n=d#6 v=0
139896 Par ch=1 c=64 v=0
139896 Par ch=1 c=64 v=127
139896 Par ch=1 c=64 v=0
139896 Par ch=1 c=64 v=127
139896 Par ch=2 c=64 v=0
139896 Par ch=2 c=64 v=127
139896 On ch=2 n=c6 v=100
139896 On ch=2 n=d#6 v=100
139896 On ch=2 n=f6 v=100
139896 On ch=2 n=c7 v=100
139896 Par ch=2 c=64 v=0
139896 Par ch=2 c=64 v=127
139896 Par ch=3 c=64 v=0
139896 Par ch=3 c=64 v=127
139896 Par ch=3 c=64 v=0
139896 Par ch=3 c=64 v=127
139896 On ch=3 n=f4 v=100
139896 On ch=3 n=c5 v=100
139896 On ch=3 n=d#5 v=100
139896 On ch=3 n=a5 v=100
140240 On ch=3 n=a5 v=0
140240 On ch=3 n=d#5 v=0
140240 On ch=3 n=c5 v=0
140240 On ch=3 n=f4 v=0
140240 On ch=2 n=c7 v=0
140240 On ch=2 n=f6 v=0
140240 On ch=2 n=d#6 v=0
140240 On ch=2 n=c6 v=0
140240 Par ch=1 c=64 v=0
140240 Par ch=1 c=64 v=127
140240 Par ch=1 c=64 v=0
140240 Par ch=1 c=64 v=127
140240 Par ch=2 c=64 v=0
140240 Par ch=2 c=64 v=127
140240 On ch=2 n=a#5 v=100
140240 On ch=2 n=f6 v=100
140240 On ch=2 n=c#7 v=100
140240 Par ch=2 c=64 v=0
140240 Par ch=2 c=64 v=127
140240 Par ch=3 c=64 v=0
140240 Par ch=3 c=64 v=127
140240 Par ch=3 c=64 v=0
140240 Par ch=3 c=64 v=127
140240 On ch=3 n=a#3 v=100
140240 On ch=3 n=f4 v=100
140240 On ch=3 n=c#5 v=100
140408 On ch=2 n=c#7 v=0
140408 On ch=2 n=f6 v=0
140408 On ch=2 n=a#5 v=0
140580 On ch=3 n=c#5 v=0
140580 On ch=3 n=f4 v=0
140580 On ch=3 n=a#3 v=0
140580 Par ch=1 c=64 v=0
140580 Par ch=2 c=64 v=0
140580 On ch=2 n=f#6 v=100
140580 Par ch=3 c=64 v=0
140580 On ch=3 n=f#4 v=100
140580 On ch=3 n=f#3 v=100
140692 On ch=2 n=f#6 v=0
140692 On ch=2 n=f#5 v=100
140808 On ch=2 n=f#5 v=0
140808 On ch=2 n=f#6 v=100
140920 On ch=2 n=f#6 v=0
140920 On ch=3 n=f#3 v=0
140920 On ch=3 n=f#4 v=0
140920 On ch=2 n=f5 v=100
140920 On ch=2 n=f6 v=100
140920 On ch=3 n=f3 v=100
140920 On ch=3 n=f4 v=100
141260 On ch=3 n=f4 v=0
141260 On ch=3 n=f3 v=0
141260 On ch=2 n=f6 v=0
141260 On ch=2 n=f5 v=0
141260 On ch=2 n=c#5 v=100
141260 On ch=2 n=c#6 v=100
141260 On ch=3 n=c#3 v=100
141260 On ch=3 n=c#4 v=100
141600 On ch=3 n=c#4 v=0
141600 On ch=3 n=c#3 v=0
141600 On ch=2 n=c#6 v=0
141600 On ch=2 n=c#5 v=0
141600 Par ch=1 c=64 v=127
141600 On ch=1 n=d#7 v=100
141600 On ch=1 n=f#7 v=100
141600 Par ch=1 c=64 v=0
141600 Par ch=1 c=64 v=127
141600 Par ch=1 c=64 v=0
141600 Par ch=1 c=64 v=127
141600 Par ch=2 c=64 v=127
141600 Par ch=2 c=64 v=0
141600 Par ch=2 c=64 v=127
141600 On ch=2 n=f#6 v=100
141600 Par ch=2 c=64 v=0
141600 Par ch=2 c=64 v=127
141600 Par ch=3 c=64 v=127
141600 Par ch=3 c=64 v=0
141600 Par ch=3 c=64 v=127
141600 Par ch=3 c=64 v=0
141600 Par ch=3 c=64 v=127
141600 On ch=3 n=a#2 v=100
141600 On ch=3 n=a#3 v=100
141856 On ch=3 n=a#3 v=0
141856 On ch=3 n=a#2 v=0
141944 On ch=3 n=f4 v=100
141944 On ch=3 n=f5 v=100
142112 On ch=2 n=f#6 v=0
142112 On ch=1 n=f#7 v=0
142112 On ch=1 n=d#7 v=0
142112 On ch=1 n=c#7 v=100
142112 On ch=1 n=f7 v=100
142112 On ch=2 n=f6 v=100
142284 On ch=2 n=f6 v=0
142284 On ch=1 n=f7 v=0
142284 On ch=1 n=c#7 v=0
142284 On ch=3 n=f5 v=0
142284 On ch=3 n=f4 v=0
142284 On ch=1 n=c#7 v=100
142284 On ch=1 n=f7 v=100
142284 On ch=2 n=f6 v=100
142284 On ch=3 n=a#5 v=100
142284 On ch=3 n=c#5 v=100
142284 On ch=3 n=a#4 v=100
142580 On ch=2 n=f6 v=0
142580 Par ch=1 c=64 v=0
142580 Par ch=2 c=64 v=0
142580 On ch=2 n=f5 v=100
142580 Par ch=3 c=64 v=0
142624 On ch=2 n=f5 v=0
142624 On ch=3 n=a#4 v=0
142624 On ch=3 n=c#5 v=0
142624 On ch=3 n=a#5 v=0
142624 On ch=1 n=f7 v=0
142624 On ch=1 n=c#7 v=0
142624 On ch=2 n=f5 v=100
142624 On ch=3 n=f3 v=100
142624 On ch=3 n=f4 v=100
142672 On ch=2 n=f5 v=0
142672 On ch=2 n=f#5 v=100
142720 On ch=2 n=f#5 v=0
142720 On ch=2 n=f5 v=100
142772 On ch=2 n=f5 v=0
142772 On ch=2 n=f#5 v=100
142820 On ch=2 n=f#5 v=0
142820 On ch=2 n=f5 v=100
142868 On ch=2 n=f5 v=0
142868 On ch=2 n=e5 v=100
142880 On ch=3 n=f4 v=0
142880 On ch=3 n=f3 v=0
142916 On ch=2 n=e5 v=0
142916 On ch=2 n=f5 v=100
142964 On ch=2 n=f5 v=0
142964 On ch=2 n=a#5 v=100
142964 On ch=3 n=a#4 v=100
142964 On ch=3 n=a#3 v=100
143220 On ch=3 n=a#3 v=0
143220 On ch=3 n=a#4 v=0
143308 On ch=2 n=a#5 v=0
143308 On ch=1 n=c#7 v=100
143308 On ch=2 n=c#6 v=100
143308 On ch=3 n=f2 v=100
143308 On ch=3 n=f3 v=100
143476 On ch=2 n=c#6 v=0
143476 On ch=1 n=c#7 v=0
143476 On ch=1 n=c7 v=100
143476 On ch=1 n=d#7 v=100
143476 Par ch=1 c=64 v=127
143476 Par ch=2 c=64 v=127
143476 On ch=2 n=d#6 v=100
143476 Par ch=3 c=64 v=127
143648 On ch=2 n=d#6 v=0
143648 On ch=1 n=d#7 v=0
143648 On ch=1 n=c7 v=0
143648 On ch=3 n=f3 v=0
143648 On ch=3 n=f2 v=0
143648 On ch=1 n=d#7 v=100
143648 On ch=1 n=f#7 v=100
143648 On ch=2 n=f#6 v=100
143648 On ch=3 n=a#2 v=100
143648 On ch=3 n=a#3 v=100
143816 On ch=2 n=f#6 v=0
143816 On ch=1 n=f#7 v=0
143816 On ch=1 n=d#7 v=0
143904 On ch=3 n=a#3 v=0
143904 On ch=3 n=a#2 v=0
143904 On ch=1 n=c#7 v=100
143904 On ch=1 n=f7 v=100
143904 On ch=2 n=f6 v=100
143988 On ch=2 n=f6 v=0
143988 On ch=1 n=f7 v=0
143988 On ch=1 n=c#7 v=0
143988 On ch=1 n=c#7 v=100
143988 On ch=1 n=f7 v=100
143988 On ch=2 n=f6 v=100
143988 On ch=3 n=f4 v=100
143988 On ch=3 n=f5 v=100
144160 On ch=2 n=f6 v=0
144160 On ch=1 n=f7 v=0
144160 On ch=1 n=c#7 v=0
144160 On ch=1 n=c7 v=100
144160 On ch=1 n=e7 v=100
144160 On ch=2 n=e6 v=100
144328 On ch=2 n=e6 v=0
144328 On ch=1 n=e7 v=0
144328 On ch=1 n=c7 v=0
144328 On ch=3 n=f5 v=0
144328 On ch=3 n=f4 v=0
144328 On ch=1 n=c#7 v=100
144328 On ch=1 n=f7 v=100
144328 On ch=2 n=f6 v=100
144328 On ch=3 n=a#5 v=100
144328 On ch=3 n=c#5 v=100
144328 On ch=3 n=a#4 v=100
144628 On ch=2 n=f6 v=0
144628 Par ch=1 c=64 v=0
144628 Par ch=2 c=64 v=0
144628 On ch=2 n=f5 v=100
144628 Par ch=3 c=64 v=0
144672 On ch=2 n=f5 v=0
144672 On ch=3 n=a#4 v=0
144672 On ch=3 n=c#5 v=0
144672 On ch=3 n=a#5 v=0
144672 On ch=1 n=f7 v=0
144672 On ch=1 n=c#7 v=0
144672 On ch=2 n=f5 v=100
144672 On ch=3 n=f3 v=100
144672 On ch=3 n=f4 v=100
144720 On ch=2 n=f5 v=0
144720 On ch=2 n=f#5 v=100
144768 On ch=2 n=f#5 v=0
144768 On ch=2 n=f5 v=100
144816 On ch=2 n=f5 v=0
144816 On ch=2 n=f#5 v=100
144864 On ch=2 n=f#5 v=0
144864 On ch=2 n=f5 v=100
144912 On ch=2 n=f5 v=0
144912 On ch=2 n=e5 v=100
144924 On ch=3 n=f4 v=0
144924 On ch=3 n=f3 v=0
144960 On ch=2 n=e5 v=0
144960 On ch=2 n=f5 v=100
145012 On ch=2 n=f5 v=0
145012 On ch=2 n=a#5 v=100
145012 On ch=3 n=a#4 v=100
145012 On ch=3 n=a#3 v=100
145268 On ch=3 n=a#3 v=0
145268 On ch=3 n=a#4 v=0
145352 On ch=2 n=a#5 v=0
145352 Par ch=1 c=64 v=127
145352 On ch=1 n=c#7 v=100
145352 On ch=1 n=g7 v=100
145352 Par ch=2 c=64 v=127
145352 On ch=2 n=g6 v=100
145352 Par ch=3 c=64 v=127
145352 On ch=3 n=a#3 v=100
145352 On ch=3 n=a#2 v=100
145524 On ch=2 n=g6 v=0
145524 On ch=1 n=g7 v=0
145524 On ch=1 n=c#7 v=0
145524 On ch=1 n=g#7 v=100
145524 On ch=2 n=g#6 v=100
145692 On ch=2 n=g#6 v=0
145692 On ch=1 n=g#7 v=0
145692 On ch=3 n=a#2 v=0
145692 On ch=3 n=a#3 v=0
145692 On ch=1 n=c8 v=100
145692 On ch=2 n=c7 v=100
145692 On ch=3 n=d#2 v=100
145692 On ch=3 n=d#3 v=100
145864 On ch=3 n=d#3 v=0
145864 On ch=3 n=d#2 v=0
145864 On ch=2 n=c7 v=0
145864 On ch=1 n=c8 v=0
145864 On ch=1 n=g7 v=100
145864 On ch=2 n=d#7 v=100
146032 On ch=2 n=d#7 v=0
146032 On ch=1 n=g7 v=0
146032 On ch=1 n=c7 v=100
146032 On ch=1 n=c8 v=100
146032 On ch=2 n=c6 v=100
146032 On ch=3 n=c#5 v=100
146032 On ch=3 n=d#5 v=100
146032 On ch=3 n=g5 v=100
146120 On ch=1 n=c8 v=0
146120 On ch=1 n=c7 v=0
146204 On ch=2 n=c6 v=0
146204 Par ch=1 c=64 v=0
146204 Par ch=2 c=64 v=0
146204 On ch=2 n=a#5 v=100
146204 Par ch=3 c=64 v=0
146288 On ch=1 n=a#6 v=100
146288 On ch=1 n=a#7 v=100
146376 On ch=1 n=a#7 v=0
146376 On ch=1 n=a#6 v=0
146376 On ch=2 n=a#5 v=0
146376 On ch=3 n=g5 v=0
146376 On ch=3 n=d#5 v=0
146376 On ch=3 n=c#5 v=0
146376 Par ch=1 c=64 v=127
146376 On ch=1 n=a#7 v=100
146376 Par ch=2 c=64 v=127
146376 On ch=2 n=a#6 v=100
146376 Par ch=3 c=64 v=127
146376 On ch=3 n=d#4 v=100
146544 On ch=3 n=d#4 v=0
146544 On ch=2 n=a#6 v=0
146544 On ch=1 n=a#7 v=0
146544 On ch=1 n=f7 v=100
146544 On ch=2 n=c7 v=100
146716 On ch=2 n=c7 v=0
146716 On ch=1 n=f7 v=0
146716 On ch=1 n=a#6 v=100
146716 On ch=1 n=a#7 v=100
146716 On ch=2 n=a#5 v=100
146716 On ch=3 n=c5 v=100
146716 On ch=3 n=d#5 v=100
146800 On ch=1 n=a#7 v=0
146800 On ch=1 n=a#6 v=0
146884 On ch=3 n=d#5 v=0
146884 On ch=3 n=c5 v=0
146884 On ch=2 n=a#5 v=0
146884 Par ch=1 c=64 v=0
146884 Par ch=2 c=64 v=0
146884 On ch=2 n=g#5 v=100
146884 Par ch=3 c=64 v=0
146972 On ch=1 n=g#6 v=100
146972 On ch=1 n=g#7 v=100
147056 On ch=1 n=g#7 v=0
147056 On ch=1 n=g#6 v=0
147056 On ch=2 n=g#5 v=0
147056 Par ch=1 c=64 v=127
147056 On ch=1 n=g#7 v=100
147056 Par ch=1 c=64 v=0
147056 Par ch=1 c=64 v=127
147056 Par ch=2 c=64 v=127
147056 On ch=2 n=g#6 v=100
147056 Par ch=2 c=64 v=0
147056 Par ch=2 c=64 v=127
147056 Par ch=3 c=64 v=127
147056 Par ch=3 c=64 v=0
147056 Par ch=3 c=64 v=127
147056 On ch=3 n=d#4 v=100
147228 On ch=3 n=d#4 v=0
147228 On ch=2 n=g#6 v=0
147228 On ch=1 n=g#7 v=0
147228 On ch=1 n=d#7 v=100
147228 On ch=2 n=a#6 v=100
147396 On ch=2 n=a#6 v=0
147396 On ch=1 n=d#7 v=0
147396 On ch=1 n=g#6 v=100
147396 On ch=1 n=g#7 v=100
147396 On ch=2 n=g#5 v=100
147396 On ch=3 n=a#4 v=100
147396 On ch=3 n=d#5 v=100
147484 On ch=1 n=g#7 v=0
147484 On ch=1 n=g#6 v=0
147568 On ch=2 n=g#5 v=0
147568 Par ch=1 c=64 v=0
147568 Par ch=2 c=64 v=0
147568 On ch=2 n=g5 v=100
147568 Par ch=3 c=64 v=0
147652 On ch=1 n=g6 v=100
147652 On ch=1 n=g7 v=100
147740 On ch=1 n=g7 v=0
147740 On ch=1 n=g6 v=0
147740 On ch=2 n=g5 v=0
147740 On ch=3 n=d#5 v=0
147740 On ch=3 n=a#4 v=0
147740 Par ch=1 c=64 v=127
147740 On ch=1 n=g7 v=100
147740 Par ch=2 c=64 v=127
147740 On ch=2 n=g6 v=100
147740 Par ch=3 c=64 v=127
147740 On ch=3 n=a#3 v=100
147912 On ch=3 n=a#3 v=0
147912 On ch=2 n=g6 v=0
147912 On ch=1 n=g7 v=0
147912 On ch=1 n=d7 v=100
147912 On ch=2 n=a#6 v=100
148096 On ch=2 n=a#6 v=0
148096 On ch=1 n=d7 v=0
148096 On ch=1 n=g6 v=100
148096 On ch=1 n=g7 v=100
148096 On ch=2 n=g5 v=100
148096 On ch=3 n=g#4 v=100
148096 On ch=3 n=a#4 v=100
148096 On ch=3 n=d5 v=100
148188 On ch=1 n=g7 v=0
148188 On ch=1 n=g6 v=0
148280 On ch=3 n=d5 v=0
148280 On ch=3 n=a#4 v=0
148280 On ch=3 n=g#4 v=0
148280 On ch=2 n=g5 v=0
148280 Par ch=1 c=64 v=0
148280 Par ch=2 c=64 v=0
148280 On ch=2 n=f5 v=100
148280 Par ch=3 c=64 v=0
148376 On ch=1 n=f6 v=100
148376 On ch=1 n=f7 v=100
148476 On ch=1 n=f7 v=0
148476 On ch=1 n=f6 v=0
148476 On ch=2 n=f5 v=0
148476 Par ch=1 c=64 v=127
148476 On ch=1 n=f7 v=100
148476 Par ch=1 c=64 v=0
148476 Par ch=1 c=64 v=127
148476 Par ch=2 c=64 v=127
148476 On ch=2 n=f6 v=100
148476 Par ch=2 c=64 v=0
148476 Par ch=2 c=64 v=127
148476 Par ch=3 c=64 v=127
148476 Par ch=3 c=64 v=0
148476 Par ch=3 c=64 v=127
148476 On ch=3 n=d#4 v=100
148676 On ch=3 n=d#4 v=0
148676 On ch=2 n=f6 v=0
148676 On ch=1 n=f7 v=0
148676 On ch=1 n=a#6 v=100
148676 On ch=2 n=g6 v=100
148884 On ch=2 n=g6 v=0
148884 On ch=1 n=a#6 v=0
148884 On ch=1 n=f6 v=100
148884 On ch=1 n=f7 v=100
148884 On ch=2 n=f5 v=100
148884 On ch=3 n=g4 v=100
148884 On ch=3 n=a#4 v=100
148988 On ch=1 n=f7 v=0
148988 On ch=1 n=f6 v=0
149096 On ch=3 n=a#4 v=0
149096 On ch=3 n=g4 v=0
149096 On ch=2 n=f5 v=0
149096 Par ch=1 c=64 v=0
149096 Par ch=2 c=64 v=0
149096 On ch=2 n=d#5 v=100
149096 Par ch=3 c=64 v=0
149204 On ch=1 n=d#6 v=100
149204 On ch=1 n=d#7 v=100
149316 On ch=1 n=d#7 v=0
149316 On ch=1 n=d#6 v=0
149316 On ch=2 n=d#5 v=0
149316 Par ch=1 c=64 v=127
149316 On ch=1 n=c#7 v=100
149316 Par ch=1 c=64 v=0
149316 Par ch=1 c=64 v=127
149316 Par ch=2 c=64 v=127
149316 On ch=2 n=c#6 v=100
149316 Par ch=2 c=64 v=0
149316 Par ch=2 c=64 v=127
149316 Par ch=3 c=64 v=127
149316 Par ch=3 c=64 v=0
149316 Par ch=3 c=64 v=127
149316 On ch=3 n=f3 v=100
149316 On ch=3 n=f4 v=100
149544 On ch=3 n=f4 v=0
149544 On ch=3 n=f3 v=0
149544 On ch=2 n=c#6 v=0
149544 On ch=1 n=c#7 v=0
149544 On ch=1 n=g#6 v=100
149544 On ch=2 n=f6 v=100
149776 On ch=2 n=f6 v=0
149776 On ch=1 n=g#6 v=0
149776 On ch=1 n=c#6 v=100
149776 On ch=1 n=c#7 v=100
149776 On ch=2 n=c#5 v=100
149776 On ch=3 n=g#4 v=100
149896 On ch=1 n=c#7 v=0
149896 On ch=1 n=c#6 v=0
150016 On ch=3 n=g#4 v=0
150016 On ch=2 n=c#5 v=0
150016 Par ch=1 c=64 v=0
150016 Par ch=2 c=64 v=0
150016 On ch=2 n=c5 v=100
150016 Par ch=3 c=64 v=0
150140 On ch=1 n=c6 v=100
150140 On ch=1 n=c7 v=100
150264 On ch=1 n=c7 v=0
150264 On ch=1 n=c6 v=0
150264 On ch=2 n=c5 v=0
150264 Par ch=1 c=64 v=127
150264 Par ch=2 c=64 v=127
150264 On ch=2 n=f5 v=100
150264 Par ch=3 c=64 v=127
150264 On ch=3 n=c#3 v=100
150264 On ch=3 n=c#4 v=100
150604 On ch=3 n=c#4 v=0
150604 On ch=3 n=c#3 v=0
150604 On ch=3 n=f4 v=100
150604 On ch=3 n=a#4 v=100
150944 On ch=3 n=a#4 v=0
150944 On ch=3 n=f4 v=0
150944 On ch=2 n=f5 v=0
150944 Par ch=1 c=64 v=0
150944 Par ch=1 c=64 v=127
150944 Par ch=1 c=64 v=0
150944 Par ch=1 c=64 v=127
150944 Par ch=2 c=64 v=0
150944 Par ch=2 c=64 v=127
150944 On ch=2 n=g5 v=100
150944 Par ch=2 c=64 v=0
150944 Par ch=2 c=64 v=127
150944 Par ch=3 c=64 v=0
150944 Par ch=3 c=64 v=127
150944 Par ch=3 c=64 v=0
150944 Par ch=3 c=64 v=127
150944 On ch=3 n=c3 v=100
150944 On ch=3 n=c4 v=100
151016 On ch=2 n=g5 v=0
151016 On ch=2 n=g#5 v=100
151084 On ch=2 n=g#5 v=0
151084 On ch=2 n=g5 v=100
151152 On ch=2 n=g5 v=0
151152 On ch=2 n=g#5 v=100
151220 On ch=2 n=g#5 v=0
151220 On ch=2 n=g5 v=100
151288 On ch=2 n=g5 v=0
151288 On ch=3 n=c4 v=0
151288 On ch=3 n=c3 v=0
151288 On ch=2 n=f5 v=100
151288 On ch=3 n=e4 v=100
151288 On ch=3 n=a#4 v=100
151288 On ch=3 n=c5 v=100
151456 On ch=2 n=f5 v=0
151456 On ch=2 n=g5 v=100
151628 On ch=2 n=g5 v=0
151628 On ch=3 n=c5 v=0
151628 On ch=3 n=a#4 v=0
151628 On ch=3 n=e4 v=0
151628 Par ch=1 c=64 v=0
151628 Par ch=1 c=64 v=127
151628 Par ch=1 c=64 v=0
151628 Par ch=1 c=64 v=127
151628 Par ch=2 c=64 v=0
151628 Par ch=2 c=64 v=127
151628 On ch=2 n=g#5 v=100
151628 Par ch=2 c=64 v=0
151628 Par ch=2 c=64 v=127
151628 Par ch=3 c=64 v=0
151628 Par ch=3 c=64 v=127
151628 Par ch=3 c=64 v=0
151628 Par ch=3 c=64 v=127
151628 On ch=3 n=f2 v=100
151628 On ch=3 n=f3 v=100
151696 On ch=2 n=g#5 v=0
151696 On ch=2 n=a#5 v=100
151764 On ch=2 n=a#5 v=0
151764 On ch=2 n=g#5 v=100
151832 On ch=2 n=g#5 v=0
151832 On ch=2 n=a#5 v=100
151900 On ch=2 n=a#5 v=0
151900 On ch=2 n=g#5 v=100
151968 On ch=2 n=g#5 v=0
151968 On ch=3 n=f3 v=0
151968 On ch=3 n=f2 v=0
151968 On ch=2 n=g5 v=100
151968 On ch=3 n=f4 v=100
151968 On ch=3 n=g#4 v=100
151968 On ch=3 n=c5 v=100
152140 On ch=2 n=g5 v=0
152140 On ch=2 n=g#5 v=100
152308 On ch=2 n=g#5 v=0
152308 On ch=3 n=c5 v=0
152308 On ch=3 n=g#4 v=0
152308 On ch=3 n=f4 v=0
152308 On ch=1 n=a5 v=100
152308 Par ch=1 c=64 v=0
152308 Par ch=1 c=64 v=127
152308 Par ch=1 c=64 v=0
152308 Par ch=1 c=64 v=127
152308 Par ch=2 c=64 v=0
152308 Par ch=2 c=64 v=127
152308 On ch=2 n=c#5 v=100
152308 On ch=2 n=g5 v=100
152308 Par ch=2 c=64 v=0
152308 Par ch=2 c=64 v=127
152308 Par ch=3 c=64 v=0
152308 Par ch=3 c=64 v=127
152308 Par ch=3 c=64 v=0
152308 Par ch=3 c=64 v=127
152308 On ch=3 n=d#3 v=100
152308 On ch=3 n=d#4 v=100
152480 On ch=1 n=a5 v=0
152480 On ch=1 n=a#5 v=100
152652 On ch=1 n=a#5 v=0
152652 On ch=3 n=d#4 v=0
152652 On ch=3 n=d#3 v=0
152652 On ch=2 n=g5 v=0
152652 On ch=2 n=c#5 v=0
152652 On ch=1 n=c6 v=100
152652 On ch=2 n=c#5 v=100
152652 On ch=2 n=g5 v=100
152652 On ch=3 n=d#4 v=100
152652 On ch=3 n=a#4 v=100
152820 On ch=1 n=c6 v=0
152820 On ch=1 n=c#6 v=100
152992 On ch=1 n=c#6 v=0
152992 On ch=3 n=a#4 v=0
152992 On ch=3 n=d#4 v=0
152992 On ch=2 n=g5 v=0
152992 On ch=2 n=c#5 v=0
152992 Par ch=1 c=64 v=0
152992 On ch=1 n=c6 v=100
152992 Par ch=2 c=64 v=0
152992 On ch=2 n=c5 v=100
152992 On ch=2 n=g#5 v=100
152992 Par ch=3 c=64 v=0
152992 On ch=3 n=g#3 v=100
152992 On ch=3 n=d#4 v=100
152992 On ch=3 n=g#4 v=100
153160 On ch=3 n=g#4 v=0
153160 On ch=3 n=d#4 v=0
153160 On ch=3 n=g#3 v=0
153160 On ch=2 n=g#5 v=0
153160 On ch=2 n=c5 v=0
153160 On ch=1 n=c6 v=0
153332 On ch=1 n=f6 v=100
153332 On ch=2 n=g#5 v=100
153332 On ch=3 n=b4 v=100
153332 On ch=3 n=d5 v=100
153332 On ch=3 n=f5 v=100
153588 On ch=3 n=f5 v=0
153588 On ch=3 n=d5 v=0
153588 On ch=3 n=b4 v=0
153588 On ch=2 n=g#5 v=0
153588 On ch=1 n=f6 v=0
153588 On ch=1 n=d#6 v=100
153588 On ch=2 n=g#5 v=100
153588 On ch=3 n=c5 v=100
153588 On ch=3 n=d#5 v=100
153672 On ch=3 n=d#5 v=0
153672 On ch=3 n=c5 v=0
153672 On ch=2 n=g#5 v=0
153672 On ch=1 n=d#6 v=0
153672 On ch=1 n=d#6 v=100
153672 On ch=2 n=g#5 v=100
153672 On ch=3 n=c5 v=100
153672 On ch=3 n=d#5 v=100
153760 On ch=2 n=g#5 v=0
153760 On ch=1 n=d#6 v=0
153844 On ch=3 n=d#5 v=0
153844 On ch=3 n=c5 v=0
153844 Par ch=1 c=64 v=127
153844 Par ch=2 c=64 v=127
153844 On ch=2 n=g#5 v=100
153844 Par ch=3 c=64 v=127
154016 On ch=1 n=g#6 v=100
154016 On ch=3 n=g#3 v=100
154016 On ch=3 n=g#4 v=100
154184 On ch=1 n=g#6 v=0
154184 On ch=2 n=g#5 v=0
154268 On ch=1 n=g6 v=100
154268 On ch=2 n=g5 v=100
154356 On ch=2 n=g5 v=0
154356 On ch=1 n=g6 v=0
154356 On ch=3 n=g#4 v=0
154356 On ch=3 n=g#3 v=0
154356 Par ch=1 c=64 v=0
154356 Par ch=1 c=64 v=127
154356 On ch=1 n=f6 v=100
154356 Par ch=2 c=64 v=0
154356 Par ch=2 c=64 v=127
154356 On ch=2 n=f5 v=100
154356 Par ch=3 c=64 v=0
154356 Par ch=3 c=64 v=127
154356 On ch=3 n=c#3 v=100
154356 On ch=3 n=c#4 v=100
154696 On ch=3 n=c#4 v=0
154696 On ch=3 n=c#3 v=0
154696 On ch=3 n=f4 v=103
154696 On ch=3 n=a#4 v=103
155036 On ch=3 n=a#4 v=0
155036 On ch=3 n=f4 v=0
155036 On ch=2 n=f5 v=0
155036 On ch=1 n=f6 v=0
155036 Par ch=1 c=64 v=0
155036 Par ch=1 c=64 v=127
155036 Par ch=1 c=64 v=0
155036 Par ch=1 c=64 v=127
155036 Par ch=1 c=64 v=0
155036 Par ch=1 c=64 v=127
155036 Par ch=2 c=64 v=0
155036 Par ch=2 c=64 v=127
155036 Par ch=2 c=64 v=0
155036 Par ch=2 c=64 v=127
155036 On ch=2 n=g5 v=106
155036 Par ch=2 c=64 v=0
155036 Par ch=2 c=64 v=127
155036 Par ch=3 c=64 v=0
155036 Par ch=3 c=64 v=127
155036 Par ch=3 c=64 v=0
155036 Par ch=3 c=64 v=127
155036 Par ch=3 c=64 v=0
155036 Par ch=3 c=64 v=127
155036 On ch=3 n=c3 v=106
155036 On ch=3 n=c4 v=106
155208 On ch=2 n=g5 v=0
155208 On ch=1 n=g6 v=107
155264 On ch=1 n=g6 v=0
155264 On ch=1 n=g#6 v=108
155320 On ch=1 n=g#6 v=0
155320 On ch=1 n=g6 v=108
155376 On ch=1 n=g6 v=0
155376 On ch=3 n=c4 v=0
155376 On ch=3 n=c3 v=0
155376 On ch=1 n=f6 v=109
155376 On ch=2 n=f5 v=109
155376 On ch=3 n=a#4 v=109
155376 On ch=3 n=c5 v=109
155376 On ch=3 n=e5 v=109
155548 On ch=2 n=f5 v=0
155548 On ch=1 n=f6 v=0
155548 On ch=1 n=g6 v=110
155548 On ch=2 n=g5 v=110
155720 On ch=2 n=g5 v=0
155720 On ch=1 n=g6 v=0
155720 On ch=3 n=e5 v=0
155720 On ch=3 n=c5 v=0
155720 On ch=3 n=a#4 v=0
155720 Par ch=1 c=64 v=0
155720 Par ch=1 c=64 v=127
155720 Par ch=1 c=64 v=0
155720 Par ch=1 c=64 v=127
155720 Par ch=1 c=64 v=0
155720 Par ch=1 c=64 v=127
155720 Par ch=2 c=64 v=0
155720 Par ch=2 c=64 v=127
155720 Par ch=2 c=64 v=0
155720 Par ch=2 c=64 v=127
155720 On ch=2 n=g#5 v=111
155720 Par ch=2 c=64 v=0
155720 Par ch=2 c=64 v=127
155720 Par ch=3 c=64 v=0
155720 Par ch=3 c=64 v=127
155720 Par ch=3 c=64 v=0
155720 Par ch=3 c=64 v=127
155720 Par ch=3 c=64 v=0
155720 Par ch=3 c=64 v=127
155720 On ch=3 n=f2 v=111
155720 On ch=3 n=f3 v=111
155888 On ch=2 n=g#5 v=0
155888 On ch=1 n=g#6 v=113
155944 On ch=1 n=g#6 v=0
155944 On ch=1 n=a#6 v=113
156004 On ch=1 n=a#6 v=0
156004 On ch=1 n=g#6 v=114
156060 On ch=1 n=g#6 v=0
156060 On ch=3 n=f3 v=0
156060 On ch=3 n=f2 v=0
156060 On ch=1 n=g6 v=114
156060 On ch=2 n=g5 v=114
156060 On ch=3 n=g#4 v=114
156060 On ch=3 n=c5 v=114
156060 On ch=3 n=f5 v=114
156228 On ch=2 n=g5 v=0
156228 On ch=1 n=g6 v=0
156228 On ch=1 n=g#6 v=116
156228 On ch=2 n=g#5 v=116
156400 On ch=2 n=g#5 v=0
156400 On ch=1 n=g#6 v=0
156400 On ch=3 n=f5 v=0
156400 On ch=3 n=c5 v=0
156400 On ch=3 n=g#4 v=0
156400 Par ch=1 c=64 v=0
156400 Par ch=1 c=64 v=127
156400 On ch=1 n=d#6 v=117
156400 On ch=1 n=a6 v=117
156400 Par ch=1 c=64 v=0
156400 Par ch=1 c=64 v=127
156400 Par ch=1 c=64 v=0
156400 Par ch=1 c=64 v=127
156400 Par ch=2 c=64 v=0
156400 Par ch=2 c=64 v=127
156400 Par ch=2 c=64 v=0
156400 Par ch=2 c=64 v=127
156400 On ch=2 n=a5 v=117
156400 Par ch=2 c=64 v=0
156400 Par ch=2 c=64 v=127
156400 Par ch=3 c=64 v=0
156400 Par ch=3 c=64 v=127
156400 Par ch=3 c=64 v=0
156400 Par ch=3 c=64 v=127
156400 Par ch=3 c=64 v=0
156400 Par ch=3 c=64 v=127
156400 On ch=3 n=d#3 v=117
156400 On ch=3 n=d#4 v=117
156572 On ch=2 n=a5 v=0
156572 On ch=1 n=a6 v=0
156572 On ch=1 n=d#6 v=0
156572 On ch=1 n=a#6 v=119
156572 On ch=2 n=a#5 v=119
156740 On ch=2 n=a#5 v=0
156740 On ch=1 n=a#6 v=0
156740 On ch=3 n=d#4 v=0
156740 On ch=3 n=d#3 v=0
156740 On ch=1 n=c7 v=120
156740 On ch=2 n=c6 v=120
156740 On ch=2 n=g6 v=120
156740 On ch=3 n=a#4 v=120
156740 On ch=3 n=c#5 v=120
156740 On ch=3 n=d#5 v=120
156740 On ch=3 n=g5 v=120
156912 On ch=2 n=g6 v=0
156912 On ch=2 n=c6 v=0
156912 On ch=1 n=c7 v=0
156912 On ch=1 n=c#7 v=120
156912 On ch=2 n=c#6 v=120
157084 On ch=2 n=c#6 v=0
157084 On ch=1 n=c#7 v=0
157084 On ch=3 n=g5 v=0
157084 On ch=3 n=d#5 v=0
157084 On ch=3 n=c#5 v=0
157084 On ch=3 n=a#4 v=0
157084 Par ch=1 c=64 v=0
157084 On ch=1 n=c7 v=120
157084 Par ch=2 c=64 v=0
157084 On ch=2 n=c6 v=120
157084 On ch=2 n=g#6 v=120
157084 Par ch=3 c=64 v=0
157084 On ch=3 n=g#4 v=120
157084 On ch=3 n=d#5 v=120
157084 On ch=3 n=g#5 v=120
157252 On ch=3 n=g#5 v=0
157252 On ch=3 n=d#5 v=0
157252 On ch=3 n=g#4 v=0
157252 On ch=2 n=g#6 v=0
157252 On ch=2 n=c6 v=0
157252 On ch=1 n=c7 v=0
157424 On ch=1 n=f7 v=120
157424 On ch=2 n=f6 v=120
157424 On ch=2 n=g#6 v=120
157424 On ch=3 n=b4 v=120
157424 On ch=3 n=d5 v=120
157424 On ch=3 n=g#5 v=120
157424 On ch=3 n=b5 v=120
157508 On ch=2 n=g#6 v=0
157508 On ch=2 n=f6 v=0
157508 On ch=1 n=f7 v=0
157592 On ch=3 n=b5 v=0
157592 On ch=3 n=g#5 v=0
157592 On ch=3 n=d5 v=0
157592 On ch=3 n=b4 v=0
157680 On ch=1 n=d#7 v=113
157680 On ch=2 n=d#6 v=113
157680 On ch=2 n=g#6 v=113
157680 On ch=3 n=c5 v=113
157680 On ch=3 n=d#5 v=113
157680 On ch=3 n=g#5 v=113
157680 On ch=3 n=c6 v=113
157764 On ch=3 n=c6 v=0
157764 On ch=3 n=g#5 v=0
157764 On ch=3 n=d#5 v=0
157764 On ch=3 n=c5 v=0
157764 On ch=2 n=g#6 v=0
157764 On ch=2 n=d#6 v=0
157764 On ch=1 n=d#7 v=0
157764 On ch=1 n=d#7 v=110
157764 On ch=2 n=d#6 v=110
157764 On ch=2 n=g#6 v=110
157764 On ch=3 n=c5 v=110
157764 On ch=3 n=d#5 v=110
157764 On ch=3 n=g#5 v=110
157764 On ch=3 n=c6 v=110
157912 On ch=2 n=g#6 v=0
157912 On ch=2 n=d#6 v=0
157912 On ch=1 n=d#7 v=0
157936 On ch=3 n=c6 v=0
157936 On ch=3 n=g#5 v=0
157936 On ch=3 n=d#5 v=0
157936 On ch=3 n=c5 v=0
158064 On ch=1 n=d#7 v=101
158064 On ch=2 n=d#6 v=101
158104 On ch=2 n=d#6 v=0
158104 On ch=1 n=d#7 v=0
158104 Par ch=1 c=64 v=127
158104 On ch=1 n=c#7 v=100
158104 Par ch=2 c=64 v=127
158104 On ch=2 n=c#6 v=100
158104 On ch=2 n=a6 v=100
158104 Par ch=3 c=64 v=127
158104 On ch=3 n=f4 v=100
158148 On ch=3 n=d#5 v=100
158192 On ch=3 n=a5 v=100
158360 On ch=2 n=a6 v=0
158360 On ch=2 n=c#6 v=0
158360 On ch=1 n=c#7 v=0
158360 On ch=1 n=c7 v=100
158360 On ch=2 n=c6 v=100
158444 On ch=2 n=c6 v=0
158444 On ch=1 n=c7 v=0
158444 On ch=3 n=a5 v=0
158444 On ch=3 n=d#5 v=0
158444 On ch=3 n=f4 v=0
158444 Par ch=1 c=64 v=0
158444 On ch=1 n=a#6 v=100
158444 Par ch=2 c=64 v=0
158444 On ch=2 n=a#5 v=100
158444 Par ch=3 c=64 v=0
158444 On ch=3 n=a#3 v=100
158488 On ch=3 n=f4 v=100
158532 On ch=3 n=c#5 v=99
158616 On ch=3 n=a#3 v=0
158616 On ch=2 n=a#5 v=0
158616 On ch=1 n=a#6 v=0
158640 On ch=3 n=f4 v=0
158664 On ch=3 n=c#5 v=0
158800 On ch=1 n=f#5 v=97
158800 On ch=1 n=a#5 v=97
158800 On ch=2 n=a#4 v=97
158800 On ch=3 n=d#3 v=97
158844 On ch=3 n=a#3 v=97
158892 On ch=3 n=f#4 v=96
159080 On ch=2 n=a#4 v=0
159080 On ch=1 n=a#5 v=0
159080 On ch=1 n=f#5 v=0
159080 On ch=1 n=c6 v=95
159080 On ch=2 n=c5 v=95
159180 On ch=2 n=c5 v=0
159180 On ch=1 n=c6 v=0
159180 On ch=3 n=f#4 v=0
159180 On ch=3 n=a#3 v=0
159180 On ch=3 n=d#3 v=0
159180 On ch=1 n=c#6 v=94
159180 On ch=2 n=c#5 v=94
159180 On ch=2 n=f5 v=94
159180 On ch=3 n=a#2 v=94
159180 On ch=3 n=f3 v=94
159180 On ch=3 n=c#4 v=94
159588 On ch=3 n=c#4 v=0
159588 On ch=3 n=f3 v=0
159588 On ch=3 n=a#2 v=0
159588 On ch=2 n=f5 v=0
159588 On ch=2 n=c#5 v=0
159588 On ch=1 n=c#6 v=0
159588 On ch=1 n=c#6 v=91
159588 On ch=2 n=c#5 v=91
159588 On ch=2 n=d#5 v=91
159588 On ch=2 n=f#5 v=91
159588 On ch=3 n=d#2 v=91
159588 On ch=3 n=d#3 v=91
159908 On ch=2 n=f#5 v=0
159908 On ch=2 n=d#5 v=0
159908 On ch=2 n=c#5 v=0
159908 On ch=1 n=c#6 v=0
159908 On ch=1 n=c6 v=89
159908 On ch=2 n=c5 v=89
160020 On ch=2 n=c5 v=0
160020 On ch=1 n=c6 v=0
160020 On ch=3 n=d#3 v=0
160020 On ch=3 n=d#2 v=0
160020 On ch=1 n=f5 v=89
160020 On ch=1 n=a#5 v=89
160020 On ch=2 n=a#4 v=89
160020 On ch=3 n=a#2 v=89
160020 On ch=3 n=f3 v=89
160020 On ch=3 n=c#4 v=89
160480 On ch=3 n=c#4 v=0
160480 On ch=3 n=f3 v=0
160480 On ch=3 n=a#2 v=0
160480 On ch=2 n=a#4 v=0
160480 On ch=1 n=a#5 v=0
160480 On ch=1 n=f5 v=0
160480 On ch=1 n=d#5 v=86
160480 On ch=1 n=g#5 v=86
160480 On ch=2 n=g#4 v=86
160480 On ch=2 n=a#4 v=86
160480 On ch=3 n=d#3 v=86
160480 On ch=3 n=a#3 v=86
160480 On ch=3 n=d#4 v=86
160844 On ch=2 n=a#4 v=0
160844 On ch=2 n=g#4 v=0
160844 On ch=1 n=g#5 v=0
160844 On ch=1 n=d#5 v=0
160844 On ch=1 n=f#5 v=84
160844 On ch=2 n=f#4 v=84
160968 On ch=2 n=f#4 v=0
160968 On ch=1 n=f#5 v=0
160968 On ch=3 n=d#4 v=0
160968 On ch=3 n=a#3 v=0
160968 On ch=3 n=d#3 v=0
160968 On ch=1 n=c#5 v=83
160968 On ch=1 n=f5 v=83
160968 On ch=2 n=f4 v=83
160968 On ch=3 n=a#2 v=83
161028 On ch=3 n=f3 v=83
161092 On ch=3 n=c#4 v=82
161340 On ch=2 n=f4 v=0
161340 On ch=1 n=f5 v=0
161340 On ch=1 n=c#5 v=0
161468 On ch=3 n=c#4 v=0
161468 On ch=3 n=f3 v=0
161468 On ch=3 n=a#2 v=0
161468 On ch=1 n=a3 v=80
161468 On ch=2 n=a2 v=80
161544 On ch=2 n=a2 v=0
161544 On ch=1 n=a3 v=0
161544 On ch=1 n=a#3 v=80
161544 On ch=2 n=a#2 v=80
161616 On ch=2 n=a#2 v=0
161616 On ch=1 n=a#3 v=0
161616 On ch=1 n=c4 v=81
161616 On ch=2 n=c3 v=81
161688 On ch=2 n=c3 v=0
161688 On ch=1 n=c4 v=0
161688 On ch=1 n=c#4 v=81
161688 On ch=2 n=c#3 v=81
161764 On ch=2 n=c#3 v=0
161764 On ch=1 n=c#4 v=0
161764 On ch=1 n=d#4 v=82
161764 On ch=2 n=d#3 v=82
161836 On ch=2 n=d#3 v=0
161836 On ch=1 n=d#4 v=0
161836 On ch=1 n=f4 v=82
161836 On ch=2 n=f3 v=82
161912 On ch=2 n=f3 v=0
161912 On ch=1 n=f4 v=0
161912 On ch=1 n=g4 v=82
161912 On ch=2 n=g3 v=82
161984 On ch=2 n=g3 v=0
161984 On ch=1 n=g4 v=0
161984 On ch=1 n=a4 v=83
161984 On ch=2 n=a3 v=83
162060 On ch=2 n=a3 v=0
162060 On ch=1 n=a4 v=0
162060 On ch=1 n=a#4 v=83
162060 On ch=2 n=a#3 v=83
162132 On ch=2 n=a#3 v=0
162132 On ch=1 n=a#4 v=0
162132 On ch=1 n=c5 v=84
162132 On ch=2 n=c4 v=84
162208 On ch=2 n=c4 v=0
162208 On ch=1 n=c5 v=0
162208 On ch=1 n=c#5 v=84
162208 On ch=2 n=c#4 v=84
162280 On ch=2 n=c#4 v=0
162280 On ch=1 n=c#5 v=0
162280 On ch=1 n=d#5 v=84
162280 On ch=2 n=d#4 v=84
162356 On ch=2 n=d#4 v=0
162356 On ch=1 n=d#5 v=0
162356 On ch=1 n=f5 v=85
162356 On ch=2 n=f4 v=85
162428 On ch=2 n=f4 v=0
162428 On ch=1 n=f5 v=0
162428 On ch=1 n=g5 v=85
162428 On ch=2 n=g4 v=85
162504 On ch=2 n=g4 v=0
162504 On ch=1 n=g5 v=0
162504 On ch=1 n=a5 v=86
162504 On ch=2 n=a4 v=86
162576 On ch=2 n=a4 v=0
162576 On ch=1 n=a5 v=0
162576 On ch=1 n=a#5 v=86
162576 On ch=2 n=a#4 v=86
162652 On ch=2 n=a#4 v=0
162652 On ch=1 n=a#5 v=0
162652 On ch=1 n=c6 v=86
162652 On ch=2 n=c5 v=86
162724 On ch=2 n=c5 v=0
162724 On ch=1 n=c6 v=0
162724 On ch=1 n=c#6 v=87
162724 On ch=2 n=c#5 v=87
162800 On ch=2 n=c#5 v=0
162800 On ch=1 n=c#6 v=0
162800 On ch=1 n=d#6 v=87
162800 On ch=2 n=d#5 v=87
162872 On ch=2 n=d#5 v=0
162872 On ch=1 n=d#6 v=0
162872 On ch=1 n=f6 v=88
162872 On ch=2 n=f5 v=88
162944 On ch=2 n=f5 v=0
162944 On ch=1 n=f6 v=0
162944 On ch=1 n=g6 v=88
162944 On ch=2 n=g5 v=88
163020 On ch=2 n=g5 v=0
163020 On ch=1 n=g6 v=0
163020 On ch=1 n=a6 v=89
163020 On ch=2 n=a5 v=89
163092 On ch=2 n=a5 v=0
163092 On ch=1 n=a6 v=0
163092 On ch=1 n=a#6 v=89
163092 On ch=2 n=a#5 v=89
163168 On ch=2 n=a#5 v=0
163168 On ch=1 n=a#6 v=0
163168 On ch=1 n=c7 v=89
163168 On ch=2 n=c6 v=89
163240 On ch=2 n=c6 v=0
163240 On ch=1 n=c7 v=0
163240 On ch=1 n=c#7 v=90
163240 On ch=2 n=c#6 v=90
163316 On ch=2 n=c#6 v=0
163316 On ch=1 n=c#7 v=0
163316 On ch=1 n=d#7 v=90
163316 On ch=2 n=d#6 v=90
163388 On ch=2 n=d#6 v=0
163388 On ch=1 n=d#7 v=0
163388 On ch=1 n=f7 v=91
163388 On ch=2 n=f6 v=91
163464 On ch=2 n=f6 v=0
163464 On ch=1 n=f7 v=0
163464 On ch=1 n=g7 v=91
163464 On ch=2 n=g6 v=91
163536 On ch=2 n=g6 v=0
163536 On ch=1 n=g7 v=0
163536 On ch=1 n=a7 v=91
163536 On ch=2 n=a6 v=91
163612 On ch=2 n=a6 v=0
163612 On ch=1 n=a7 v=0
163612 On ch=1 n=a#7 v=92
163612 On ch=2 n=a#6 v=92
163800 On ch=1 n=a#7 v=0
163824 On ch=2 n=a#6 v=0
163984 On ch=1 n=c8 v=94
164040 On ch=1 n=c8 v=0
164040 Par ch=1 c=64 v=127
164040 On ch=1 n=a#7 v=94
164040 Par ch=2 c=64 v=127
164040 On ch=2 n=c#7 v=94
164040 On ch=2 n=g7 v=94
164040 Par ch=3 c=64 v=127
164040 On ch=3 n=d#2 v=94
164040 On ch=3 n=d#3 v=94
164212 On ch=3 n=d#3 v=0
164212 On ch=3 n=d#2 v=0
164212 On ch=2 n=g7 v=0
164212 On ch=2 n=c#7 v=0
164212 On ch=1 n=a#7 v=0
164212 On ch=1 n=a7 v=95
164212 On ch=2 n=c7 v=95
164212 On ch=2 n=f#7 v=95
164380 On ch=2 n=f#7 v=0
164380 On ch=2 n=c7 v=0
164380 On ch=1 n=a7 v=0
164380 On ch=1 n=a#7 v=96
164380 On ch=2 n=c#7 v=96
164380 On ch=2 n=g7 v=96
164380 On ch=3 n=d#4 v=96
164380 On ch=3 n=d#5 v=96
164552 On ch=3 n=d#5 v=0
164552 On ch=3 n=d#4 v=0
164720 On ch=2 n=g7 v=0
164720 On ch=2 n=c#7 v=0
164720 On ch=1 n=a#7 v=0
164720 Par ch=1 c=64 v=0
164720 On ch=1 n=c8 v=99
164720 Par ch=2 c=64 v=0
164720 On ch=2 n=c7 v=99
164720 On ch=2 n=g7 v=99
164720 Par ch=3 c=64 v=0
164720 On ch=3 n=d#5 v=99
164720 On ch=3 n=g5 v=99
164720 On ch=3 n=c6 v=99
164720 On ch=3 n=d#6 v=99
165064 On ch=3 n=d#6 v=0
165064 On ch=3 n=c6 v=0
165064 On ch=3 n=g5 v=0
165064 On ch=3 n=d#5 v=0
165064 On ch=2 n=g7 v=0
165064 On ch=2 n=c7 v=0
165064 On ch=1 n=c8 v=0
165064 On ch=1 n=c7 v=90
165064 On ch=1 n=g#7 v=90
165064 On ch=2 n=g#6 v=90
165064 On ch=3 n=f5 v=90
165064 On ch=3 n=c6 v=90
165064 On ch=3 n=f6 v=90
165404 On ch=3 n=f6 v=0
165404 On ch=3 n=c6 v=0
165404 On ch=3 n=f5 v=0
165404 On ch=2 n=g#6 v=0
165404 On ch=1 n=g#7 v=0
165404 On ch=1 n=c7 v=0
165404 On ch=1 n=d#7 v=97
165404 On ch=2 n=d#6 v=97
165404 On ch=2 n=g#6 v=97
165404 On ch=3 n=c5 v=97
165404 On ch=3 n=g#5 v=97
165404 On ch=3 n=c6 v=97
165744 On ch=3 n=c6 v=0
165744 On ch=3 n=g#5 v=0
165744 On ch=3 n=c5 v=0
165744 On ch=2 n=g#6 v=0
165744 On ch=2 n=d#6 v=0
165744 On ch=1 n=d#7 v=0
165744 On ch=1 n=f7 v=103
165744 On ch=2 n=f6 v=103
165744 On ch=2 n=g#6 v=103
165744 On ch=3 n=c#5 v=103
165744 On ch=3 n=g#5 v=103
165744 On ch=3 n=c#6 v=103
165916 On ch=3 n=c#6 v=0
165916 On ch=3 n=g#5 v=0
165916 On ch=3 n=c#5 v=0
166084 On ch=2 n=g#6 v=0
166084 On ch=2 n=f6 v=0
166084 On ch=1 n=f7 v=0
166084 Par ch=1 c=64 v=127
166084 On ch=1 n=c#5 v=110
166084 On ch=1 n=d#5 v=110
166084 Par ch=2 c=64 v=127
166084 On ch=2 n=g4 v=110
166084 Par ch=3 c=64 v=127
166084 On ch=3 n=d#3 v=110
166084 On ch=3 n=d#4 v=110
166384 On ch=2 n=g4 v=0
166384 On ch=1 n=d#5 v=0
166384 On ch=1 n=c#5 v=0
166384 On ch=1 n=d#5 v=110
166384 On ch=2 n=g4 v=110
166484 On ch=2 n=g4 v=0
166484 On ch=1 n=d#5 v=0
166484 On ch=2 n=g4 v=110
166536 On ch=2 n=c#5 v=109
166584 On ch=2 n=d#5 v=108
166636 On ch=2 n=a#5 v=108
166884 On ch=3 n=d#4 v=0
166884 On ch=3 n=d#3 v=0
166884 On ch=3 n=d#2 v=110
166884 On ch=3 n=d#3 v=110
167084 On ch=3 n=d#3 v=0
167084 On ch=3 n=d#2 v=0
167284 On ch=2 n=a#5 v=0
167284 On ch=2 n=d#5 v=0
167284 On ch=2 n=c#5 v=0
167284 On ch=2 n=g4 v=0
167284 Par ch=1 c=64 v=0
167284 On ch=1 n=c5 v=97
167284 On ch=1 n=g#5 v=97
167284 Par ch=2 c=64 v=0
167284 On ch=2 n=g#4 v=97
167284 Par ch=3 c=64 v=0
167284 On ch=3 n=g#2 v=100
167284 On ch=3 n=g#3 v=100
167484 On ch=3 n=g#3 v=0
167484 On ch=3 n=g#2 v=0
167684 On ch=2 n=g#4 v=0
167684 On ch=1 n=g#5 v=0
167684 On ch=1 n=c5 v=0
168084 Par ch=1 c=64 v=127
168084 On ch=1 n=g#4 v=127
168084 Par ch=1 c=64 v=0
168084 Par ch=1 c=64 v=127
168084 Par ch=2 c=64 v=127
168084 Par ch=2 c=64 v=0
168084 Par ch=2 c=64 v=127
168084 Par ch=3 c=64 v=127
168084 Par ch=3 c=64 v=0
168084 Par ch=3 c=64 v=127
168084 On ch=3 n=e3 v=127
168128 On ch=1 n=e4 v=127
168128 On ch=3 n=b3 v=127
168168 On ch=1 n=e5 v=127
168168 On ch=3 n=e4 v=127
168212 On ch=1 n=g#5 v=127
168752 On ch=1 n=g#5 v=0
168752 On ch=3 n=e4 v=0
168752 On ch=1 n=e5 v=0
168752 On ch=3 n=b3 v=0
168752 On ch=1 n=e4 v=0
168752 On ch=3 n=e3 v=0
168752 On ch=1 n=g#4 v=0
168752 On ch=1 n=g#4 v=127
168752 On ch=3 n=e3 v=127
168792 On ch=1 n=e4 v=127
168792 On ch=3 n=b3 v=127
168836 On ch=1 n=e5 v=127
168836 On ch=3 n=e4 v=127
168876 On ch=1 n=g#5 v=127
169396 On ch=1 n=g#5 v=0
169396 On ch=3 n=e4 v=0
169396 On ch=1 n=e5 v=0
169396 On ch=3 n=b3 v=0
169396 On ch=1 n=e4 v=0
169396 On ch=3 n=e3 v=0
169396 On ch=1 n=g#4 v=0
169396 On ch=1 n=g#4 v=127
169396 On ch=3 n=e3 v=127
169436 On ch=1 n=e4 v=127
169436 On ch=3 n=b3 v=127
169472 On ch=1 n=e5 v=127
169472 On ch=3 n=e4 v=127
169512 On ch=1 n=g#5 v=127
170012 On ch=1 n=g#5 v=0
170012 On ch=3 n=e4 v=0
170012 On ch=1 n=e5 v=0
170012 On ch=3 n=b3 v=0
170012 On ch=1 n=e4 v=0
170012 On ch=3 n=e3 v=0
170012 On ch=1 n=g#4 v=0
170012 On ch=1 n=g#4 v=127
170012 On ch=3 n=e3 v=127
170048 On ch=1 n=e4 v=127
170048 On ch=3 n=b3 v=127
170088 On ch=1 n=e5 v=127
170088 On ch=3 n=e4 v=127
170124 On ch=1 n=g#5 v=127
170600 On ch=1 n=g#5 v=0
170600 On ch=3 n=e4 v=0
170600 On ch=1 n=e5 v=0
170600 On ch=3 n=b3 v=0
170600 On ch=1 n=e4 v=0
170600 On ch=3 n=e3 v=0
170600 On ch=1 n=g#4 v=0
170600 On ch=1 n=g#4 v=127
170600 On ch=3 n=e3 v=127
170636 On ch=1 n=e4 v=127
170636 On ch=3 n=b3 v=127
170672 On ch=1 n=e5 v=127
170672 On ch=3 n=e4 v=127
170708 On ch=1 n=g#5 v=127
171180 On ch=1 n=g#5 v=0
171180 On ch=3 n=e4 v=0
171180 On ch=1 n=e5 v=0
171180 On ch=3 n=b3 v=0
171180 On ch=1 n=e4 v=0
171180 On ch=3 n=e3 v=0
171180 On ch=1 n=g#4 v=0
171180 On ch=1 n=g#4 v=127
171180 On ch=3 n=e3 v=127
171216 On ch=1 n=e4 v=127
171216 On ch=3 n=b3 v=127
171252 On ch=1 n=e5 v=127
171252 On ch=3 n=e4 v=127
171288 On ch=1 n=g#5 v=127
171756 On ch=1 n=g#5 v=0
171756 On ch=3 n=e4 v=0
171756 On ch=1 n=e5 v=0
171756 On ch=3 n=b3 v=0
171756 On ch=1 n=e4 v=0
171756 On ch=3 n=e3 v=0
171756 On ch=1 n=g#4 v=0
171756 Par ch=1 c=64 v=0
171756 On ch=1 n=g#4 v=127
171756 On ch=1 n=e4 v=127
171756 On ch=1 n=e5 v=127
171756 On ch=1 n=g#5 v=127
171756 Par ch=2 c=64 v=0
171756 Par ch=3 c=64 v=0
171756 On ch=3 n=e3 v=127
171756 On ch=3 n=b3 v=127
171756 On ch=3 n=e4 v=127
171900 On ch=3 n=e4 v=0
171900 On ch=3 n=b3 v=0
171900 On ch=3 n=e3 v=0
171900 On ch=1 n=g#5 v=0
171900 On ch=1 n=e5 v=0
171900 On ch=1 n=e4 v=0
171900 On ch=1 n=g#4 v=0
171900 On ch=3 n=d#3 v=60
171900 On ch=3 n=d#4 v=60
171972 On ch=3 n=d#4 v=0
171972 On ch=3 n=d#3 v=0
172044 On ch=3 n=c#3 v=60
172044 On ch=3 n=c#4 v=60
172116 On ch=3 n=c#4 v=0
172116 On ch=3 n=c#3 v=0
172188 On ch=3 n=b2 v=60
172188 On ch=3 n=b3 v=60
172260 On ch=3 n=b3 v=0
172260 On ch=3 n=b2 v=0
172332 On ch=3 n=e3 v=60
172332 On ch=3 n=e4 v=60
172404 On ch=3 n=e4 v=0
172404 On ch=3 n=e3 v=0
172476 On ch=3 n=d#3 v=60
172476 On ch=3 n=d#4 v=60
172548 On ch=3 n=d#4 v=0
172548 On ch=3 n=d#3 v=0
172620 On ch=3 n=c#3 v=60
172620 On ch=3 n=c#4 v=60
172692 On ch=3 n=c#4 v=0
172692 On ch=3 n=c#3 v=0
172764 On ch=3 n=b2 v=60
172764 On ch=3 n=b3 v=60
172836 On ch=3 n=b3 v=0
172836 On ch=3 n=b2 v=0
172908 On ch=3 n=e3 v=60
172908 On ch=3 n=e4 v=60
172980 On ch=3 n=e4 v=0
172980 On ch=3 n=e3 v=0
173052 On ch=3 n=d#3 v=60
173052 On ch=3 n=d#4 v=60
173124 On ch=3 n=d#4 v=0
173124 On ch=3 n=d#3 v=0
173196 On ch=3 n=c#3 v=60
173196 On ch=3 n=c#4 v=60
173268 On ch=3 n=c#4 v=0
173268 On ch=3 n=c#3 v=0
173340 On ch=3 n=b2 v=60
173340 On ch=3 n=b3 v=60
173412 On ch=3 n=b3 v=0
173412 On ch=3 n=b2 v=0
173488 On ch=3 n=e3 v=60
173488 On ch=3 n=e4 v=60
173560 On ch=3 n=e4 v=0
173560 On ch=3 n=e3 v=0
173632 On ch=3 n=d#3 v=60
173632 On ch=3 n=d#4 v=60
173704 On ch=3 n=d#4 v=0
173704 On ch=3 n=d#3 v=0
173776 On ch=3 n=c#3 v=60
173776 On ch=3 n=c#4 v=60
173848 On ch=3 n=c#4 v=0
173848 On ch=3 n=c#3 v=0
173920 On ch=3 n=b2 v=60
173920 On ch=3 n=b3 v=60
173992 On ch=3 n=b3 v=0
173992 On ch=3 n=b2 v=0
174064 On ch=3 n=e3 v=60
174064 On ch=3 n=e4 v=60
174136 On ch=3 n=e4 v=0
174136 On ch=3 n=e3 v=0
174208 On ch=3 n=d#3 v=60
174208 On ch=3 n=d#4 v=60
174280 On ch=3 n=d#4 v=0
174280 On ch=3 n=d#3 v=0
174352 On ch=3 n=c#3 v=60
174352 On ch=3 n=c#4 v=60
174424 On ch=3 n=c#4 v=0
174424 On ch=3 n=c#3 v=0
174496 On ch=3 n=b2 v=60
174496 On ch=3 n=b3 v=60
174568 On ch=3 n=b3 v=0
174568 On ch=3 n=b2 v=0
174640 On ch=3 n=e3 v=60
174640 On ch=3 n=e4 v=60
174712 On ch=3 n=e4 v=0
174712 On ch=3 n=e3 v=0
174784 On ch=3 n=d#3 v=60
174784 On ch=3 n=d#4 v=60
174856 On ch=3 n=d#4 v=0
174856 On ch=3 n=d#3 v=0
174928 On ch=3 n=c#3 v=60
174928 On ch=3 n=c#4 v=60
175000 On ch=3 n=c#4 v=0
175000 On ch=3 n=c#3 v=0
175072 On ch=3 n=b2 v=60
175072 On ch=3 n=b3 v=60
175144 On ch=3 n=b3 v=0
175144 On ch=3 n=b2 v=0
175216 On ch=1 n=g#4 v=60
175216 On ch=1 n=b4 v=60
175216 On ch=3 n=e3 v=60
175216 On ch=3 n=e4 v=60
175288 On ch=3 n=e4 v=0
175288 On ch=3 n=e3 v=0
175360 On ch=3 n=d#3 v=60
175360 On ch=3 n=d#4 v=60
175432 On ch=3 n=d#4 v=0
175432 On ch=3 n=d#3 v=0
175504 On ch=3 n=c#3 v=60
175504 On ch=3 n=c#4 v=60
175576 On ch=3 n=c#4 v=0
175576 On ch=3 n=c#3 v=0
175648 On ch=3 n=b2 v=60
175648 On ch=3 n=b3 v=60
175720 On ch=3 n=b3 v=0
175720 On ch=3 n=b2 v=0
175792 On ch=3 n=e3 v=60
175792 On ch=3 n=e4 v=60
175864 On ch=3 n=e4 v=0
175864 On ch=3 n=e3 v=0
175940 On ch=3 n=d#3 v=60
175940 On ch=3 n=d#4 v=60
176012 On ch=3 n=d#4 v=0
176012 On ch=3 n=d#3 v=0
176084 On ch=3 n=c#3 v=60
176084 On ch=3 n=c#4 v=60
176156 On ch=3 n=c#4 v=0
176156 On ch=3 n=c#3 v=0
176228 On ch=3 n=b2 v=60
176228 On ch=3 n=b3 v=60
176300 On ch=3 n=b3 v=0
176300 On ch=3 n=b2 v=0
176372 On ch=1 n=b4 v=0
176372 On ch=1 n=g#4 v=0
176372 On ch=1 n=a4 v=60
176372 On ch=1 n=b4 v=60
176372 On ch=3 n=e3 v=60
176372 On ch=3 n=e4 v=60
176444 On ch=3 n=e4 v=0
176444 On ch=3 n=e3 v=0
176516 On ch=3 n=d#3 v=60
176516 On ch=3 n=d#4 v=60
176588 On ch=3 n=d#4 v=0
176588 On ch=3 n=d#3 v=0
176660 On ch=3 n=c#3 v=60
176660 On ch=3 n=c#4 v=60
176732 On ch=3 n=c#4 v=0
176732 On ch=3 n=c#3 v=0
176804 On ch=1 n=b4 v=0
176804 On ch=1 n=a4 v=0
176804 On ch=1 n=a4 v=60
176804 On ch=1 n=b4 v=60
176804 On ch=3 n=b2 v=60
176804 On ch=3 n=b3 v=60
176876 On ch=3 n=b3 v=0
176876 On ch=3 n=b2 v=0
176948 On ch=1 n=b4 v=0
176948 On ch=1 n=a4 v=0
176948 On ch=1 n=g#4 v=60
176948 On ch=1 n=b4 v=60
176948 On ch=3 n=e3 v=60
176948 On ch=3 n=e4 v=60
177020 On ch=3 n=e4 v=0
177020 On ch=3 n=e3 v=0
177092 On ch=3 n=d#3 v=60
177092 On ch=3 n=d#4 v=60
177164 On ch=3 n=d#4 v=0
177164 On ch=3 n=d#3 v=0
177236 On ch=3 n=c#3 v=60
177236 On ch=3 n=c#4 v=60
177308 On ch=3 n=c#4 v=0
177308 On ch=3 n=c#3 v=0
177380 On ch=1 n=b4 v=0
177380 On ch=1 n=g#4 v=0
177380 On ch=1 n=g#4 v=60
177380 On ch=1 n=e5 v=60
177380 On ch=3 n=b2 v=60
177380 On ch=3 n=b3 v=60
177452 On ch=3 n=b3 v=0
177452 On ch=3 n=b2 v=0
177524 On ch=1 n=e5 v=0
177524 On ch=1 n=g#4 v=0
177524 On ch=1 n=g#4 v=60
177524 On ch=1 n=b4 v=60
177524 On ch=1 n=g#5 v=60
177524 On ch=3 n=e3 v=60
177524 On ch=3 n=e4 v=60
177596 On ch=3 n=e4 v=0
177596 On ch=3 n=e3 v=0
177668 On ch=3 n=d#3 v=60
177668 On ch=3 n=d#4 v=60
177740 On ch=3 n=d#4 v=0
177740 On ch=3 n=d#3 v=0
177812 On ch=3 n=c#3 v=60
177812 On ch=3 n=c#4 v=60
177884 On ch=3 n=c#4 v=0
177884 On ch=3 n=c#3 v=0
177956 On ch=3 n=b2 v=60
177956 On ch=3 n=b3 v=60
178028 On ch=3 n=b3 v=0
178028 On ch=3 n=b2 v=0
178100 On ch=1 n=g#5 v=0
178100 On ch=1 n=b4 v=0
178100 On ch=1 n=g#4 v=0
178100 On ch=1 n=a4 v=60
178100 On ch=1 n=b4 v=60
178100 On ch=1 n=f#5 v=60
178100 On ch=3 n=e3 v=60
178100 On ch=3 n=e4 v=60
178172 On ch=3 n=e4 v=0
178172 On ch=3 n=e3 v=0
178244 On ch=3 n=d#3 v=60
178244 On ch=3 n=d#4 v=60
178316 On ch=3 n=d#4 v=0
178316 On ch=3 n=d#3 v=0
178388 On ch=3 n=c#3 v=60
178388 On ch=3 n=c#4 v=60
178464 On ch=3 n=c#4 v=0
178464 On ch=3 n=c#3 v=0
178536 On ch=3 n=b2 v=60
178536 On ch=3 n=b3 v=60
178608 On ch=3 n=b3 v=0
178608 On ch=3 n=b2 v=0
178680 On ch=1 n=f#5 v=0
178680 On ch=1 n=b4 v=0
178680 On ch=1 n=a4 v=0
178680 On ch=1 n=g#4 v=60
178680 On ch=1 n=b4 v=60
178680 On ch=3 n=e3 v=60
178680 On ch=3 n=e4 v=60
178752 On ch=3 n=e4 v=0
178752 On ch=3 n=e3 v=0
178824 On ch=3 n=d#3 v=60
178824 On ch=3 n=d#4 v=60
178896 On ch=3 n=d#4 v=0
178896 On ch=3 n=d#3 v=0
178968 On ch=3 n=c#3 v=60
178968 On ch=3 n=c#4 v=60
179040 On ch=3 n=c#4 v=0
179040 On ch=3 n=c#3 v=0
179112 On ch=1 n=b4 v=0
179112 On ch=1 n=g#4 v=0
179112 On ch=1 n=g#4 v=60
179112 On ch=1 n=e5 v=60
179112 On ch=3 n=b2 v=60
179112 On ch=3 n=b3 v=60
179184 On ch=3 n=b3 v=0
179184 On ch=3 n=b2 v=0
179256 On ch=1 n=e5 v=0
179256 On ch=1 n=g#4 v=0
179256 On ch=1 n=g#4 v=60
179256 On ch=1 n=b4 v=60
179256 On ch=1 n=g#5 v=60
179256 On ch=3 n=e3 v=60
179256 On ch=3 n=e4 v=60
179328 On ch=3 n=e4 v=0
179328 On ch=3 n=e3 v=0
179400 On ch=3 n=d#3 v=60
179400 On ch=3 n=d#4 v=60
179472 On ch=3 n=d#4 v=0
179472 On ch=3 n=d#3 v=0
179544 On ch=1 n=g#5 v=0
179544 On ch=1 n=b4 v=0
179544 On ch=1 n=g#4 v=0
179544 On ch=3 n=c#3 v=60
179544 On ch=3 n=c#4 v=60
179616 On ch=3 n=c#4 v=0
179616 On ch=3 n=c#3 v=0
179688 On ch=1 n=a4 v=60
179688 On ch=1 n=d#5 v=60
179688 On ch=3 n=b2 v=60
179688 On ch=3 n=b3 v=60
179760 On ch=3 n=b3 v=0
179760 On ch=3 n=b2 v=0
179832 On ch=1 n=d#5 v=0
179832 On ch=1 n=a4 v=0
179832 On ch=1 n=g#4 v=60
179832 On ch=1 n=e5 v=60
179832 On ch=3 n=e3 v=60
179832 On ch=3 n=e4 v=60
179904 On ch=3 n=e4 v=0
179904 On ch=3 n=e3 v=0
179976 On ch=3 n=d#3 v=60
179976 On ch=3 n=d#4 v=60
180048 On ch=3 n=d#4 v=0
180048 On ch=3 n=d#3 v=0
180120 On ch=1 n=e5 v=0
180120 On ch=1 n=g#4 v=0
180120 On ch=1 n=g#4 v=60
180120 On ch=1 n=e5 v=60
180120 On ch=1 n=g#5 v=60
180120 On ch=3 n=c#3 v=60
180120 On ch=3 n=c#4 v=60
180192 On ch=3 n=c#4 v=0
180192 On ch=3 n=c#3 v=0
180264 On ch=3 n=b2 v=60
180264 On ch=3 n=b3 v=60
180336 On ch=3 n=b3 v=0
180336 On ch=3 n=b2 v=0
180408 On ch=1 n=g#5 v=0
180408 On ch=1 n=e5 v=0
180408 On ch=1 n=g#4 v=0
180408 On ch=1 n=b4 v=60
180408 On ch=1 n=g#5 v=60
180408 On ch=1 n=b5 v=60
180408 On ch=3 n=e3 v=60
180408 On ch=3 n=e4 v=60
180480 On ch=3 n=e4 v=0
180480 On ch=3 n=e3 v=0
180552 On ch=3 n=d#3 v=62
180552 On ch=3 n=d#4 v=62
180624 On ch=3 n=d#4 v=0
180624 On ch=3 n=d#3 v=0
180696 On ch=1 n=b5 v=0
180696 On ch=1 n=g#5 v=0
180696 On ch=1 n=b4 v=0
180696 On ch=1 n=c#5 v=65
180696 On ch=1 n=g#5 v=65
180696 On ch=1 n=c#6 v=65
180696 On ch=3 n=c#3 v=65
180696 On ch=3 n=c#4 v=65
180768 On ch=3 n=c#4 v=0
180768 On ch=3 n=c#3 v=0
180768 On ch=1 n=c#6 v=0
180768 On ch=1 n=g#5 v=0
180768 On ch=1 n=c#5 v=0
180840 On ch=1 n=d#5 v=67
180840 On ch=1 n=g#5 v=67
180840 On ch=1 n=d#6 v=67
180840 On ch=3 n=b2 v=67
180840 On ch=3 n=b3 v=67
180912 On ch=3 n=b3 v=0
180912 On ch=3 n=b2 v=0
180912 On ch=1 n=d#6 v=0
180912 On ch=1 n=g#5 v=0
180912 On ch=1 n=d#5 v=0
180988 On ch=1 n=e5 v=70
180988 On ch=1 n=g#5 v=70
180988 On ch=1 n=e6 v=70
180988 On ch=3 n=e3 v=70
180988 On ch=3 n=e4 v=70
181060 On ch=3 n=e4 v=0
181060 On ch=3 n=e3 v=0
181132 On ch=1 n=e6 v=0
181132 On ch=1 n=g#5 v=0
181132 On ch=1 n=e5 v=0
181132 On ch=3 n=d#3 v=72
181132 On ch=3 n=d#4 v=72
181204 On ch=3 n=d#4 v=0
181204 On ch=3 n=d#3 v=0
181276 On ch=1 n=b4 v=75
181276 On ch=1 n=g#5 v=75
181276 On ch=1 n=b5 v=75
181276 On ch=3 n=c#3 v=75
181276 On ch=3 n=c#4 v=75
181348 On ch=3 n=c#4 v=0
181348 On ch=3 n=c#3 v=0
181420 On ch=1 n=b5 v=0
181420 On ch=1 n=g#5 v=0
181420 On ch=1 n=b4 v=0
181420 On ch=3 n=b2 v=77
181420 On ch=3 n=b3 v=77
181492 On ch=3 n=b3 v=0
181492 On ch=3 n=b2 v=0
181564 On ch=1 n=g#5 v=80
181564 On ch=1 n=b5 v=80
181564 On ch=1 n=g#6 v=80
181564 On ch=3 n=e3 v=80
181564 On ch=3 n=e4 v=80
181636 On ch=3 n=e4 v=0
181636 On ch=3 n=e3 v=0
181708 On ch=3 n=d#3 v=82
181708 On ch=3 n=d#4 v=82
181780 On ch=3 n=d#4 v=0
181780 On ch=3 n=d#3 v=0
181852 On ch=3 n=c#3 v=85
181852 On ch=3 n=c#4 v=85
181924 On ch=3 n=c#4 v=0
181924 On ch=3 n=c#3 v=0
181996 On ch=3 n=b2 v=87
181996 On ch=3 n=b3 v=87
182068 On ch=3 n=b3 v=0
182068 On ch=3 n=b2 v=0
182140 On ch=1 n=g#6 v=0
182140 On ch=1 n=b5 v=0
182140 On ch=1 n=g#5 v=0
182140 On ch=1 n=b4 v=60
182140 On ch=1 n=f#5 v=60
182140 On ch=1 n=a5 v=60
182140 On ch=1 n=b5 v=60
182140 On ch=3 n=e3 v=60
182140 On ch=3 n=e4 v=60
182212 On ch=3 n=e4 v=0
182212 On ch=3 n=e3 v=0
182284 On ch=3 n=d#3 v=60
182284 On ch=3 n=d#4 v=60
182356 On ch=3 n=d#4 v=0
182356 On ch=3 n=d#3 v=0
182428 On ch=3 n=c#3 v=60
182428 On ch=3 n=c#4 v=60
182500 On ch=3 n=c#4 v=0
182500 On ch=3 n=c#3 v=0
182572 On ch=3 n=b2 v=60
182572 On ch=3 n=b3 v=60
182644 On ch=3 n=b3 v=0
182644 On ch=3 n=b2 v=0
182716 On ch=3 n=e3 v=60
182716 On ch=3 n=e4 v=60
182788 On ch=3 n=e4 v=0
182788 On ch=3 n=e3 v=0
182860 On ch=3 n=d#3 v=60
182860 On ch=3 n=d#4 v=60
182932 On ch=3 n=d#4 v=0
182932 On ch=3 n=d#3 v=0
183004 On ch=1 n=b5 v=0
183004 On ch=1 n=a5 v=0
183004 On ch=1 n=f#5 v=0
183004 On ch=1 n=b4 v=0
183004 On ch=1 n=b4 v=60
183004 On ch=1 n=a5 v=60
183004 On ch=1 n=b5 v=60
183004 On ch=3 n=c#3 v=60
183004 On ch=3 n=c#4 v=60
183076 On ch=3 n=c#4 v=0
183076 On ch=3 n=c#3 v=0
183076 On ch=1 n=b5 v=0
183076 On ch=1 n=a5 v=0
183076 On ch=1 n=b4 v=0
183148 On ch=1 n=b4 v=60
183148 On ch=1 n=a5 v=60
183148 On ch=1 n=b5 v=60
183148 On ch=3 n=b2 v=60
183148 On ch=3 n=b3 v=60
183220 On ch=3 n=b3 v=0
183220 On ch=3 n=b2 v=0
183220 On ch=1 n=b5 v=0
183220 On ch=1 n=a5 v=0
183220 On ch=1 n=b4 v=0
183292 On ch=1 n=b4 v=60
183292 On ch=1 n=a5 v=60
183292 On ch=1 n=b5 v=60
183292 On ch=3 n=e3 v=60
183292 On ch=3 n=e4 v=60
183364 On ch=3 n=e4 v=0
183364 On ch=3 n=e3 v=0
183440 On ch=1 n=b5 v=0
183440 On ch=1 n=a5 v=0
183440 On ch=1 n=b4 v=0
183440 On ch=3 n=d#3 v=60
183440 On ch=3 n=d#4 v=60
183512 On ch=3 n=d#4 v=0
183512 On ch=3 n=d#3 v=0
183584 On ch=1 n=b4 v=60
183584 On ch=1 n=a5 v=60
183584 On ch=1 n=b5 v=60
183584 On ch=3 n=c#3 v=60
183584 On ch=3 n=c#4 v=60
183656 On ch=3 n=c#4 v=0
183656 On ch=3 n=c#3 v=0
183728 On ch=1 n=b5 v=0
183728 On ch=1 n=a5 v=0
183728 On ch=1 n=b4 v=0
183728 On ch=3 n=b2 v=60
183728 On ch=3 n=b3 v=60
183800 On ch=3 n=b3 v=0
183800 On ch=3 n=b2 v=0
183872 On ch=1 n=b4 v=60
183872 On ch=1 n=g#5 v=60
183872 On ch=1 n=b5 v=60
183872 On ch=3 n=e3 v=60
183872 On ch=3 n=e4 v=60
183944 On ch=3 n=e4 v=0
183944 On ch=3 n=e3 v=0
184016 On ch=3 n=d#3 v=67
184016 On ch=3 n=d#4 v=67
184088 On ch=3 n=d#4 v=0
184088 On ch=3 n=d#3 v=0
184160 On ch=3 n=c#3 v=75
184160 On ch=3 n=c#4 v=75
184232 On ch=3 n=c#4 v=0
184232 On ch=3 n=c#3 v=0
184304 On ch=1 n=b5 v=0
184304 On ch=1 n=g#5 v=0
184304 On ch=1 n=b4 v=0
184304 On ch=1 n=e5 v=82
184304 On ch=1 n=g#5 v=82
184304 On ch=1 n=e6 v=82
184304 On ch=3 n=b2 v=82
184304 On ch=3 n=b3 v=82
184376 On ch=3 n=b3 v=0
184376 On ch=3 n=b2 v=0
184448 On ch=1 n=e6 v=0
184448 On ch=1 n=g#5 v=0
184448 On ch=1 n=e5 v=0
184448 On ch=1 n=e5 v=90
184448 On ch=1 n=g#5 v=90
184448 On ch=1 n=e6 v=90
184448 On ch=3 n=e3 v=90
184448 On ch=3 n=e4 v=90
184520 On ch=3 n=e4 v=0
184520 On ch=3 n=e3 v=0
184592 On ch=3 n=d#3 v=90
184592 On ch=3 n=d#4 v=90
184664 On ch=3 n=d#4 v=0
184664 On ch=3 n=d#3 v=0
184736 On ch=3 n=c#3 v=90
184736 On ch=3 n=c#4 v=90
184808 On ch=3 n=c#4 v=0
184808 On ch=3 n=c#3 v=0
184880 On ch=3 n=b2 v=90
184880 On ch=3 n=b3 v=90
184952 On ch=3 n=b3 v=0
184952 On ch=3 n=b2 v=0
185024 On ch=1 n=e6 v=0
185024 On ch=1 n=g#5 v=0
185024 On ch=1 n=e5 v=0
185024 On ch=1 n=b4 v=90
185024 On ch=1 n=e5 v=90
185024 On ch=1 n=g#5 v=90
185024 On ch=3 n=e3 v=90
185024 On ch=3 n=e4 v=90
185096 On ch=3 n=e4 v=0
185096 On ch=3 n=e3 v=0
185168 On ch=3 n=d#3 v=90
185168 On ch=3 n=d#4 v=90
185240 On ch=3 n=d#4 v=0
185240 On ch=3 n=d#3 v=0
185312 On ch=3 n=c#3 v=90
185312 On ch=3 n=c#4 v=90
185384 On ch=3 n=c#4 v=0
185384 On ch=3 n=c#3 v=0
185456 On ch=3 n=b2 v=90
185456 On ch=3 n=b3 v=90
185528 On ch=3 n=b3 v=0
185528 On ch=3 n=b2 v=0
185600 On ch=1 n=g#5 v=0
185600 On ch=1 n=e5 v=0
185600 On ch=1 n=b4 v=0
185600 On ch=1 n=f#5 v=90
185600 On ch=2 n=a4 v=60
185600 On ch=2 n=b4 v=60
185600 On ch=3 n=e3 v=90
185600 On ch=3 n=e4 v=90
185672 On ch=3 n=e4 v=0
185672 On ch=3 n=e3 v=0
185744 On ch=2 n=b4 v=0
185744 On ch=2 n=a4 v=0
185744 On ch=3 n=d#3 v=90
185744 On ch=3 n=d#4 v=90
185816 On ch=3 n=d#4 v=0
185816 On ch=3 n=d#3 v=0
185888 On ch=2 n=a4 v=60
185888 On ch=2 n=b4 v=60
185888 On ch=3 n=c#3 v=90
185888 On ch=3 n=c#4 v=90
185964 On ch=3 n=c#4 v=0
185964 On ch=3 n=c#3 v=0
185964 On ch=2 n=b4 v=0
185964 On ch=2 n=a4 v=0
186036 On ch=2 n=a4 v=60
186036 On ch=2 n=b4 v=60
186036 On ch=3 n=b2 v=90
186036 On ch=3 n=b3 v=90
186108 On ch=3 n=b3 v=0
186108 On ch=3 n=b2 v=0
186108 On ch=2 n=b4 v=0
186108 On ch=2 n=a4 v=0
186180 On ch=2 n=a4 v=60
186180 On ch=2 n=b4 v=60
186180 On ch=3 n=e3 v=90
186180 On ch=3 n=e4 v=90
186252 On ch=3 n=e4 v=0
186252 On ch=3 n=e3 v=0
186324 On ch=2 n=b4 v=0
186324 On ch=2 n=a4 v=0
186324 On ch=3 n=d#3 v=90
186324 On ch=3 n=d#4 v=90
186396 On ch=3 n=d#4 v=0
186396 On ch=3 n=d#3 v=0
186468 On ch=1 n=f#5 v=0
186468 On ch=1 n=f#5 v=90
186468 On ch=2 n=a4 v=60
186468 On ch=2 n=b4 v=60
186468 On ch=3 n=c#3 v=90
186468 On ch=3 n=c#4 v=90
186540 On ch=3 n=c#4 v=0
186540 On ch=3 n=c#3 v=0
186612 On ch=3 n=b2 v=90
186612 On ch=3 n=b3 v=90
186684 On ch=3 n=b3 v=0
186684 On ch=3 n=b2 v=0
186756 On ch=2 n=b4 v=0
186756 On ch=2 n=a4 v=0
186756 On ch=1 n=f#5 v=0
186756 On ch=1 n=g#5 v=90
186756 On ch=2 n=a4 v=60
186756 On ch=2 n=b4 v=60
186756 On ch=3 n=e3 v=90
186756 On ch=3 n=e4 v=90
186828 On ch=3 n=e4 v=0
186828 On ch=3 n=e3 v=0
186828 On ch=1 n=g#5 v=0
186900 On ch=2 n=b4 v=0
186900 On ch=2 n=a4 v=0
186900 On ch=1 n=f#5 v=83
186900 On ch=2 n=a4 v=67
186900 On ch=2 n=b4 v=67
186900 On ch=3 n=d#3 v=83
186900 On ch=3 n=d#4 v=83
186972 On ch=3 n=d#4 v=0
186972 On ch=3 n=d#3 v=0
186972 On ch=1 n=f#5 v=0
187044 On ch=2 n=b4 v=0
187044 On ch=2 n=a4 v=0
187044 On ch=1 n=e5 v=75
187044 On ch=2 n=a4 v=75
187044 On ch=2 n=b4 v=75
187044 On ch=3 n=c#3 v=75
187044 On ch=3 n=c#4 v=75
187116 On ch=3 n=c#4 v=0
187116 On ch=3 n=c#3 v=0
187116 On ch=1 n=e5 v=0
187188 On ch=2 n=b4 v=0
187188 On ch=2 n=a4 v=0
187188 On ch=1 n=f#5 v=68
187188 On ch=2 n=a4 v=82
187188 On ch=2 n=b4 v=82
187188 On ch=3 n=b2 v=68
187188 On ch=3 n=b3 v=68
187260 On ch=3 n=b3 v=0
187260 On ch=3 n=b2 v=0
187260 On ch=1 n=f#5 v=0
187332 On ch=2 n=b4 v=0
187332 On ch=2 n=a4 v=0
187332 On ch=1 n=e5 v=60
187332 On ch=1 n=g#5 v=60
187332 On ch=2 n=g#4 v=90
187332 On ch=3 n=e3 v=60
187332 On ch=3 n=e4 v=60
187404 On ch=3 n=e4 v=0
187404 On ch=3 n=e3 v=0
187476 On ch=3 n=d#3 v=60
187476 On ch=3 n=d#4 v=60
187548 On ch=3 n=d#4 v=0
187548 On ch=3 n=d#3 v=0
187620 On ch=3 n=c#3 v=60
187620 On ch=3 n=c#4 v=60
187692 On ch=3 n=c#4 v=0
187692 On ch=3 n=c#3 v=0
187764 On ch=2 n=g#4 v=0
187764 On ch=2 n=c#5 v=90
187764 On ch=3 n=b2 v=60
187764 On ch=3 n=b3 v=60
187836 On ch=3 n=b3 v=0
187836 On ch=3 n=b2 v=0
187908 On ch=2 n=c#5 v=0
187908 On ch=2 n=b4 v=90
187908 On ch=3 n=e3 v=60
187908 On ch=3 n=e4 v=60
187980 On ch=3 n=e4 v=0
187980 On ch=3 n=e3 v=0
188052 On ch=3 n=d#3 v=64
188052 On ch=3 n=d#4 v=64
188124 On ch=3 n=d#4 v=0
188124 On ch=3 n=d#3 v=0
188196 On ch=3 n=c#3 v=67
188196 On ch=3 n=c#4 v=67
188268 On ch=3 n=c#4 v=0
188268 On ch=3 n=c#3 v=0
188340 On ch=1 n=g#5 v=0
188340 On ch=1 n=e5 v=0
188340 On ch=1 n=g#5 v=90
188340 On ch=1 n=b5 v=90
188340 On ch=3 n=b2 v=71
188340 On ch=3 n=b3 v=71
188412 On ch=3 n=b3 v=0
188412 On ch=3 n=b2 v=0
188488 On ch=1 n=b5 v=0
188488 On ch=1 n=g#5 v=0
188488 On ch=1 n=g#5 v=84
188488 On ch=1 n=b5 v=84
188488 On ch=3 n=e3 v=75
188488 On ch=3 n=e4 v=75
188560 On ch=3 n=e4 v=0
188560 On ch=3 n=e3 v=0
188632 On ch=3 n=d#3 v=79
188632 On ch=3 n=d#4 v=79
188704 On ch=3 n=d#4 v=0
188704 On ch=3 n=d#3 v=0
188776 On ch=3 n=c#3 v=82
188776 On ch=3 n=c#4 v=82
188848 On ch=3 n=c#4 v=0
188848 On ch=3 n=c#3 v=0
188920 On ch=3 n=b2 v=86
188920 On ch=3 n=b3 v=86
188992 On ch=3 n=b3 v=0
188992 On ch=3 n=b2 v=0
189064 On ch=1 n=b5 v=0
189064 On ch=1 n=g#5 v=0
189064 On ch=2 n=b4 v=0
189064 On ch=1 n=g#4 v=30
189064 On ch=1 n=b4 v=30
189064 On ch=3 n=e3 v=60
189064 On ch=3 n=e4 v=60
189136 On ch=3 n=e4 v=0
189136 On ch=3 n=e3 v=0
189208 On ch=3 n=d#3 v=61
189208 On ch=3 n=d#4 v=61
189280 On ch=3 n=d#4 v=0
189280 On ch=3 n=d#3 v=0
189352 On ch=3 n=c#3 v=62
189352 On ch=3 n=c#4 v=62
189424 On ch=3 n=c#4 v=0
189424 On ch=3 n=c#3 v=0
189496 On ch=3 n=b2 v=63
189496 On ch=3 n=b3 v=63
189568 On ch=3 n=b3 v=0
189568 On ch=3 n=b2 v=0
189640 On ch=3 n=e3 v=64
189640 On ch=3 n=e4 v=64
189712 On ch=3 n=e4 v=0
189712 On ch=3 n=e3 v=0
189784 On ch=3 n=d#3 v=65
189784 On ch=3 n=d#4 v=65
189856 On ch=3 n=d#4 v=0
189856 On ch=3 n=d#3 v=0
189928 On ch=1 n=b4 v=0
189928 On ch=1 n=g#4 v=0
189928 On ch=1 n=g4 v=40
189928 On ch=1 n=b4 v=40
189928 On ch=3 n=c#3 v=66
189928 On ch=3 n=c#4 v=66
190000 On ch=3 n=c#4 v=0
190000 On ch=3 n=c#3 v=0
190000 On ch=1 n=b4 v=0
190000 On ch=1 n=g4 v=0
190072 On ch=1 n=g#4 v=42
190072 On ch=1 n=b4 v=42
190072 On ch=3 n=b2 v=67
190072 On ch=3 n=b3 v=67
190144 On ch=3 n=b3 v=0
190144 On ch=3 n=b2 v=0
190144 On ch=1 n=b4 v=0
190144 On ch=1 n=g#4 v=0
190216 On ch=1 n=a4 v=43
190216 On ch=1 n=b4 v=43
190216 On ch=3 n=e3 v=68
190216 On ch=3 n=e4 v=68
190288 On ch=3 n=e4 v=0
190288 On ch=3 n=e3 v=0
190360 On ch=3 n=d#3 v=69
190360 On ch=3 n=d#4 v=69
190432 On ch=3 n=d#4 v=0
190432 On ch=3 n=d#3 v=0
190504 On ch=1 n=b4 v=0
190504 On ch=1 n=a4 v=0
190504 On ch=1 n=a4 v=47
190504 On ch=1 n=c#5 v=47
190504 On ch=3 n=c#3 v=70
190504 On ch=3 n=c#4 v=70
190576 On ch=3 n=c#4 v=0
190576 On ch=3 n=c#3 v=0
190576 On ch=1 n=c#5 v=0
190576 On ch=1 n=a4 v=0
190648 On ch=1 n=a4 v=48
190648 On ch=1 n=d#5 v=48
190648 On ch=3 n=b2 v=71
190648 On ch=3 n=b3 v=71
190720 On ch=3 n=b3 v=0
190720 On ch=3 n=b2 v=0
190720 On ch=1 n=d#5 v=0
190720 On ch=1 n=a4 v=0
190792 On ch=1 n=g#4 v=50
190792 On ch=1 n=e5 v=50
190792 On ch=3 n=e3 v=72
190792 On ch=3 n=e4 v=72
190864 On ch=3 n=e4 v=0
190864 On ch=3 n=e3 v=0
190940 On ch=3 n=d#3 v=74
190940 On ch=3 n=d#4 v=74
191012 On ch=3 n=d#4 v=0
191012 On ch=3 n=d#3 v=0
191084 On ch=3 n=c#3 v=75
191084 On ch=3 n=c#4 v=75
191156 On ch=3 n=c#4 v=0
191156 On ch=3 n=c#3 v=0
191228 On ch=1 n=e5 v=0
191228 On ch=1 n=g#4 v=0
191228 On ch=1 n=g#4 v=55
191228 On ch=1 n=b4 v=55
191228 On ch=3 n=b2 v=76
191228 On ch=3 n=b3 v=76
191300 On ch=3 n=b3 v=0
191300 On ch=3 n=b2 v=0
191372 On ch=1 n=b4 v=0
191372 On ch=1 n=g#4 v=0
191372 On ch=1 n=g#4 v=57
191372 On ch=1 n=b4 v=57
191372 On ch=1 n=g#5 v=57
191372 On ch=3 n=e3 v=77
191372 On ch=3 n=e4 v=77
191444 On ch=3 n=e4 v=0
191444 On ch=3 n=e3 v=0
191516 On ch=3 n=d#3 v=78
191516 On ch=3 n=d#4 v=78
191588 On ch=3 n=d#4 v=0
191588 On ch=3 n=d#3 v=0
191660 On ch=3 n=c#3 v=79
191660 On ch=3 n=c#4 v=79
191732 On ch=3 n=c#4 v=0
191732 On ch=3 n=c#3 v=0
191804 On ch=3 n=b2 v=80
191804 On ch=3 n=b3 v=80
191876 On ch=3 n=b3 v=0
191876 On ch=3 n=b2 v=0
191948 On ch=1 n=g#5 v=0
191948 On ch=1 n=b4 v=0
191948 On ch=1 n=g#4 v=0
191948 On ch=1 n=a4 v=63
191948 On ch=1 n=b4 v=63
191948 On ch=1 n=f#5 v=63
191948 On ch=3 n=e3 v=81
191948 On ch=3 n=e4 v=81
192020 On ch=3 n=e4 v=0
192020 On ch=3 n=e3 v=0
192092 On ch=3 n=d#3 v=82
192092 On ch=3 n=d#4 v=82
192164 On ch=3 n=d#4 v=0
192164 On ch=3 n=d#3 v=0
192236 On ch=3 n=c#3 v=83
192236 On ch=3 n=c#4 v=83
192308 On ch=3 n=c#4 v=0
192308 On ch=3 n=c#3 v=0
192380 On ch=3 n=b2 v=84
192380 On ch=3 n=b3 v=84
192452 On ch=3 n=b3 v=0
192452 On ch=3 n=b2 v=0
192524 On ch=1 n=f#5 v=0
192524 On ch=1 n=b4 v=0
192524 On ch=1 n=a4 v=0
192524 On ch=1 n=g#4 v=70
192524 On ch=1 n=b4 v=70
192524 On ch=3 n=e3 v=85
192524 On ch=3 n=e4 v=85
192596 On ch=3 n=e4 v=0
192596 On ch=3 n=e3 v=0
192668 On ch=3 n=d#3 v=86
192668 On ch=3 n=d#4 v=86
192740 On ch=3 n=d#4 v=0
192740 On ch=3 n=d#3 v=0
192812 On ch=3 n=c#3 v=87
192812 On ch=3 n=c#4 v=87
192884 On ch=3 n=c#4 v=0
192884 On ch=3 n=c#3 v=0
192956 On ch=1 n=b4 v=0
192956 On ch=1 n=g#4 v=0
192956 On ch=1 n=g#4 v=75
192956 On ch=1 n=e5 v=75
192956 On ch=3 n=b2 v=88
192956 On ch=3 n=b3 v=88
193028 On ch=3 n=b3 v=0
193028 On ch=3 n=b2 v=0
193100 On ch=1 n=e5 v=0
193100 On ch=1 n=g#4 v=0
193100 On ch=1 n=g#4 v=77
193100 On ch=1 n=b4 v=77
193100 On ch=1 n=g#5 v=77
193100 On ch=3 n=e3 v=89
193100 On ch=3 n=e4 v=89
193172 On ch=3 n=e4 v=0
193172 On ch=3 n=e3 v=0
193244 On ch=3 n=d#3 v=90
193244 On ch=3 n=d#4 v=90
193316 On ch=3 n=d#4 v=0
193316 On ch=3 n=d#3 v=0
193388 On ch=1 n=g#5 v=0
193388 On ch=1 n=b4 v=0
193388 On ch=1 n=g#4 v=0
193388 On ch=3 n=c#3 v=91
193388 On ch=3 n=c#4 v=91
193464 On ch=3 n=c#4 v=0
193464 On ch=3 n=c#3 v=0
193536 On ch=1 n=a4 v=82
193536 On ch=1 n=d#5 v=82
193536 On ch=3 n=b2 v=92
193536 On ch=3 n=b3 v=92
193608 On ch=3 n=b3 v=0
193608 On ch=3 n=b2 v=0
193680 On ch=1 n=d#5 v=0
193680 On ch=1 n=a4 v=0
193680 On ch=1 n=g#4 v=83
193680 On ch=1 n=e5 v=83
193680 On ch=3 n=e3 v=93
193680 On ch=3 n=e4 v=93
193752 On ch=3 n=e4 v=0
193752 On ch=3 n=e3 v=0
193824 On ch=3 n=d#3 v=94
193824 On ch=3 n=d#4 v=94
193896 On ch=3 n=d#4 v=0
193896 On ch=3 n=d#3 v=0
193968 On ch=1 n=e5 v=0
193968 On ch=1 n=g#4 v=0
193968 On ch=1 n=g#4 v=87
193968 On ch=1 n=e5 v=87
193968 On ch=1 n=g#5 v=87
193968 On ch=3 n=c#3 v=95
193968 On ch=3 n=c#4 v=95
194040 On ch=3 n=c#4 v=0
194040 On ch=3 n=c#3 v=0
194112 On ch=3 n=b2 v=96
194112 On ch=3 n=b3 v=96
194184 On ch=3 n=b3 v=0
194184 On ch=3 n=b2 v=0
194256 On ch=1 n=g#5 v=0
194256 On ch=1 n=e5 v=0
194256 On ch=1 n=g#4 v=0
194256 On ch=1 n=b4 v=110
194256 On ch=1 n=g#5 v=110
194256 On ch=1 n=b5 v=110
194256 On ch=3 n=e3 v=110
194256 On ch=3 n=e4 v=110
194328 On ch=3 n=e4 v=0
194328 On ch=3 n=e3 v=0
194400 On ch=3 n=d#3 v=108
194400 On ch=3 n=d#4 v=108
194472 On ch=3 n=d#4 v=0
194472 On ch=3 n=d#3 v=0
194544 On ch=3 n=c#3 v=107
194544 On ch=3 n=c#4 v=107
194616 On ch=3 n=c#4 v=0
194616 On ch=3 n=c#3 v=0
194688 On ch=3 n=b2 v=105
194688 On ch=3 n=b3 v=105
194760 On ch=3 n=b3 v=0
194760 On ch=3 n=b2 v=0
194832 On ch=1 n=b5 v=0
194832 On ch=1 n=g#5 v=0
194832 On ch=1 n=b4 v=0
194832 On ch=1 n=c#5 v=103
194832 On ch=1 n=g#5 v=103
194832 On ch=1 n=c#6 v=103
194832 On ch=3 n=e3 v=103
194832 On ch=3 n=e4 v=103
194904 On ch=3 n=e4 v=0
194904 On ch=3 n=e3 v=0
194904 On ch=1 n=c#6 v=0
194904 On ch=1 n=g#5 v=0
194904 On ch=1 n=c#5 v=0
194976 On ch=1 n=d#5 v=102
194976 On ch=1 n=g#5 v=102
194976 On ch=1 n=d#6 v=102
194976 On ch=3 n=d#3 v=102
194976 On ch=3 n=d#4 v=102
195048 On ch=3 n=d#4 v=0
195048 On ch=3 n=d#3 v=0
195048 On ch=1 n=d#6 v=0
195048 On ch=1 n=g#5 v=0
195048 On ch=1 n=d#5 v=0
195120 On ch=1 n=e5 v=100
195120 On ch=1 n=g#5 v=100
195120 On ch=1 n=e6 v=100
195120 On ch=3 n=c#3 v=100
195120 On ch=3 n=c#4 v=100
195192 On ch=3 n=c#4 v=0
195192 On ch=3 n=c#3 v=0
195192 On ch=1 n=e6 v=0
195192 On ch=1 n=g#5 v=0
195192 On ch=1 n=e5 v=0
195264 On ch=1 n=f#5 v=98
195264 On ch=1 n=b5 v=98
195264 On ch=1 n=f#6 v=98
195264 On ch=3 n=b2 v=98
195264 On ch=3 n=b3 v=98
195336 On ch=3 n=b3 v=0
195336 On ch=3 n=b2 v=0
195336 On ch=1 n=f#6 v=0
195336 On ch=1 n=b5 v=0
195336 On ch=1 n=f#5 v=0
195408 On ch=1 n=g#5 v=97
195408 On ch=1 n=g#6 v=97
195408 On ch=2 n=b5 v=103
195408 On ch=3 n=e3 v=97
195408 On ch=3 n=e4 v=97
195480 On ch=3 n=e4 v=0
195480 On ch=3 n=e3 v=0
195552 On ch=3 n=d#3 v=95
195552 On ch=3 n=d#4 v=95
195624 On ch=3 n=d#4 v=0
195624 On ch=3 n=d#3 v=0
195696 On ch=3 n=e3 v=93
195696 On ch=3 n=e4 v=93
195768 On ch=3 n=e4 v=0
195768 On ch=3 n=e3 v=0
195840 On ch=2 n=b5 v=0
195840 On ch=2 n=a#5 v=108
195840 On ch=3 n=d3 v=92
195840 On ch=3 n=d4 v=92
195912 On ch=3 n=d4 v=0
195912 On ch=3 n=d3 v=0
195988 On ch=1 n=g#6 v=0
195988 On ch=1 n=g#5 v=0
195988 On ch=1 n=g5 v=90
195988 On ch=1 n=d#6 v=90
195988 On ch=1 n=g6 v=90
195988 On ch=3 n=d#3 v=90
195988 On ch=3 n=d#4 v=90
196060 On ch=3 n=d#4 v=0
196060 On ch=3 n=d#3 v=0
196132 On ch=3 n=d3 v=91
196132 On ch=3 n=d4 v=91
196204 On ch=3 n=d4 v=0
196204 On ch=3 n=d3 v=0
196276 On ch=3 n=c3 v=92
196276 On ch=3 n=c4 v=92
196348 On ch=3 n=c4 v=0
196348 On ch=3 n=c3 v=0
196420 On ch=3 n=a#2 v=92
196420 On ch=3 n=a#3 v=92
196492 On ch=3 n=a#3 v=0
196492 On ch=3 n=a#2 v=0
196564 On ch=3 n=d#3 v=93
196564 On ch=3 n=d#4 v=93
196636 On ch=3 n=d#4 v=0
196636 On ch=3 n=d#3 v=0
196708 On ch=3 n=d3 v=94
196708 On ch=3 n=d4 v=94
196780 On ch=3 n=d4 v=0
196780 On ch=3 n=d3 v=0
196852 On ch=1 n=g6 v=0
196852 On ch=1 n=d#6 v=0
196852 On ch=1 n=g5 v=0
196852 On ch=2 n=a#5 v=0
196852 On ch=1 n=a#4 v=95
196852 On ch=1 n=g5 v=95
196852 On ch=1 n=a#5 v=95
196852 On ch=2 n=g5 v=110
196852 On ch=2 n=a#5 v=110
196852 On ch=3 n=c3 v=95
196852 On ch=3 n=c4 v=95
196924 On ch=3 n=c4 v=0
196924 On ch=3 n=c3 v=0
196996 On ch=3 n=a#2 v=96
196996 On ch=3 n=a#3 v=96
197068 On ch=3 n=a#3 v=0
197068 On ch=3 n=a#2 v=0
197140 On ch=1 n=a#5 v=0
197140 On ch=1 n=g5 v=0
197140 On ch=1 n=a#4 v=0
197140 On ch=1 n=d#5 v=97
197140 On ch=1 n=g5 v=97
197140 On ch=1 n=a#5 v=97
197140 On ch=1 n=d#6 v=97
197140 On ch=3 n=d#3 v=97
197140 On ch=3 n=d#4 v=97
197212 On ch=3 n=d#4 v=0
197212 On ch=3 n=d#3 v=0
197284 On ch=3 n=d3 v=97
197284 On ch=3 n=d4 v=97
197356 On ch=3 n=d4 v=0
197356 On ch=3 n=d3 v=0
197428 On ch=1 n=d#6 v=0
197428 On ch=1 n=a#5 v=0
197428 On ch=1 n=g5 v=0
197428 On ch=1 n=d#5 v=0
197428 On ch=1 n=g5 v=98
197428 On ch=1 n=a#5 v=98
197428 On ch=1 n=d#6 v=98
197428 On ch=1 n=g6 v=98
197428 On ch=3 n=c3 v=98
197428 On ch=3 n=c4 v=98
197500 On ch=3 n=c4 v=0
197500 On ch=3 n=c3 v=0
197572 On ch=3 n=a#2 v=99
197572 On ch=3 n=a#3 v=99
197644 On ch=3 n=a#3 v=0
197644 On ch=3 n=a#2 v=0
197716 On ch=1 n=g6 v=0
197716 On ch=1 n=d#6 v=0
197716 On ch=1 n=a#5 v=0
197716 On ch=1 n=g5 v=0
197716 On ch=2 n=a#5 v=0
197716 On ch=2 n=g5 v=0
197716 On ch=1 n=a#5 v=100
197716 On ch=1 n=g6 v=100
197716 On ch=1 n=a#6 v=100
197716 On ch=3 n=d#3 v=100
197716 On ch=3 n=d#4 v=100
197788 On ch=3 n=d#4 v=0
197788 On ch=3 n=d#3 v=0
197860 On ch=3 n=d3 v=101
197860 On ch=3 n=d4 v=101
197932 On ch=3 n=d4 v=0
197932 On ch=3 n=d3 v=0
198004 On ch=3 n=c3 v=102
198004 On ch=3 n=c4 v=102
198076 On ch=3 n=c4 v=0
198076 On ch=3 n=c3 v=0
198148 On ch=1 n=a#6 v=0
198148 On ch=1 n=g6 v=0
198148 On ch=1 n=a#5 v=0
198148 On ch=1 n=d#6 v=102
198148 On ch=1 n=g6 v=102
198148 On ch=1 n=d#7 v=102
198148 On ch=3 n=a#2 v=102
198148 On ch=3 n=a#3 v=102
198220 On ch=3 n=a#3 v=0
198220 On ch=3 n=a#2 v=0
198220 On ch=1 n=d#7 v=0
198220 On ch=1 n=g6 v=0
198220 On ch=1 n=d#6 v=0
198292 On ch=1 n=d#6 v=103
198292 On ch=1 n=g6 v=103
198292 On ch=1 n=d#7 v=103
198292 On ch=3 n=d#3 v=103
198292 On ch=3 n=d#4 v=103
198364 On ch=3 n=d#4 v=0
198364 On ch=3 n=d#3 v=0
198440 On ch=3 n=d3 v=104
198440 On ch=3 n=d4 v=104
198512 On ch=3 n=d4 v=0
198512 On ch=3 n=d3 v=0
198512 On ch=1 n=d#7 v=0
198512 On ch=1 n=g6 v=0
198512 On ch=1 n=d#6 v=0
198584 On ch=3 n=c3 v=105
198584 On ch=3 n=c4 v=105
198656 On ch=3 n=c4 v=0
198656 On ch=3 n=c3 v=0
198728 On ch=1 n=g5 v=106
198728 On ch=1 n=d#6 v=106
198728 On ch=1 n=g6 v=106
198728 On ch=3 n=a#2 v=106
198728 On ch=3 n=a#3 v=106
198800 On ch=3 n=a#3 v=0
198800 On ch=3 n=a#2 v=0
198800 On ch=1 n=g6 v=0
198800 On ch=1 n=d#6 v=0
198800 On ch=1 n=g5 v=0
198872 On ch=1 n=g5 v=107
198872 On ch=1 n=d#6 v=107
198872 On ch=1 n=g6 v=107
198872 On ch=3 n=d#3 v=107
198872 On ch=3 n=d#4 v=107
198944 On ch=3 n=d#4 v=0
198944 On ch=3 n=d#3 v=0
199016 On ch=1 n=g6 v=0
199016 On ch=1 n=d#6 v=0
199016 On ch=1 n=g5 v=0
199016 On ch=3 n=d3 v=107
199016 On ch=3 n=d4 v=107
199088 On ch=3 n=d4 v=0
199088 On ch=3 n=d3 v=0
199160 On ch=1 n=c6 v=108
199160 On ch=1 n=g6 v=108
199160 On ch=1 n=c7 v=108
199160 On ch=3 n=c3 v=108
199160 On ch=3 n=c4 v=108
199232 On ch=3 n=c4 v=0
199232 On ch=3 n=c3 v=0
199304 On ch=1 n=c7 v=0
199304 On ch=1 n=g6 v=0
199304 On ch=1 n=c6 v=0
199304 On ch=3 n=a#2 v=109
199304 On ch=3 n=a#3 v=109
199376 On ch=3 n=a#3 v=0
199376 On ch=3 n=a#2 v=0
199448 On ch=1 n=a#5 v=110
199448 On ch=1 n=g6 v=110
199448 On ch=1 n=a#6 v=110
199448 On ch=3 n=d#3 v=110
199448 On ch=3 n=d#4 v=110
199520 On ch=3 n=d#4 v=0
199520 On ch=3 n=d#3 v=0
199592 On ch=3 n=d3 v=111
199592 On ch=3 n=d4 v=111
199664 On ch=3 n=d4 v=0
199664 On ch=3 n=d3 v=0
199736 On ch=3 n=c3 v=112
199736 On ch=3 n=c4 v=112
199808 On ch=3 n=c4 v=0
199808 On ch=3 n=c3 v=0
199880 On ch=3 n=a#2 v=112
199880 On ch=3 n=a#3 v=112
199952 On ch=3 n=a#3 v=0
199952 On ch=3 n=a#2 v=0
200024 On ch=1 n=a#6 v=0
200024 On ch=1 n=g6 v=0
200024 On ch=1 n=a#5 v=0
200024 On ch=3 n=d#3 v=113
200024 On ch=3 n=d#4 v=113
200096 On ch=3 n=d#4 v=0
200096 On ch=3 n=d#3 v=0
200168 On ch=3 n=d3 v=114
200168 On ch=3 n=d4 v=114
200240 On ch=3 n=d4 v=0
200240 On ch=3 n=d3 v=0
200312 On ch=1 n=a#4 v=115
200312 On ch=1 n=a#5 v=115
200312 On ch=3 n=c3 v=115
200312 On ch=3 n=c4 v=115
200384 On ch=3 n=c4 v=0
200384 On ch=3 n=c3 v=0
200384 On ch=1 n=a#5 v=0
200384 On ch=1 n=a#4 v=0
200456 On ch=1 n=a#4 v=116
200456 On ch=1 n=a#5 v=116
200456 On ch=3 n=a#2 v=116
200456 On ch=3 n=a#3 v=116
200528 On ch=3 n=a#3 v=0
200528 On ch=3 n=a#2 v=0
200528 On ch=1 n=a#5 v=0
200528 On ch=1 n=a#4 v=0
200600 On ch=1 n=a#4 v=117
200600 On ch=1 n=g#5 v=117
200600 On ch=1 n=a#5 v=117
200600 On ch=3 n=d#3 v=117
200600 On ch=3 n=d#4 v=117
200672 On ch=3 n=d#4 v=0
200672 On ch=3 n=d#3 v=0
200744 On ch=1 n=a#5 v=0
200744 On ch=1 n=g#5 v=0
200744 On ch=1 n=a#4 v=0
200744 On ch=3 n=d3 v=117
200744 On ch=3 n=d4 v=117
200816 On ch=3 n=d4 v=0
200816 On ch=3 n=d3 v=0
200888 On ch=1 n=f5 v=118
200888 On ch=1 n=g#5 v=118
200888 On ch=1 n=a#5 v=118
200888 On ch=1 n=f6 v=118
200888 On ch=3 n=c3 v=118
200888 On ch=3 n=c4 v=118
200964 On ch=3 n=c4 v=0
200964 On ch=3 n=c3 v=0
201036 On ch=1 n=f6 v=0
201036 On ch=1 n=a#5 v=0
201036 On ch=1 n=g#5 v=0
201036 On ch=1 n=f5 v=0
201036 On ch=3 n=a#2 v=119
201036 On ch=3 n=a#3 v=119
201108 On ch=3 n=a#3 v=0
201108 On ch=3 n=a#2 v=0
201180 On ch=1 n=d#5 v=120
201180 On ch=1 n=g5 v=120
201180 On ch=1 n=d#6 v=120
201180 On ch=3 n=d#3 v=120
201180 On ch=3 n=d#4 v=120
201352 On ch=3 n=d#4 v=0
201352 On ch=3 n=d#3 v=0
201352 On ch=1 n=d#6 v=0
201352 On ch=1 n=g5 v=0
201352 On ch=1 n=d#5 v=0
201520 Par ch=1 c=64 v=127
201520 On ch=1 n=d#4 v=120
201520 Par ch=2 c=64 v=127
201520 Par ch=3 c=64 v=127
201520 On ch=3 n=b2 v=120
201564 On ch=1 n=a4 v=120
201584 On ch=3 n=f#3 v=120
201608 On ch=1 n=b4 v=120
201648 On ch=1 n=d#5 v=120
201648 On ch=3 n=b3 v=120
201860 On ch=3 n=b3 v=0
201860 On ch=1 n=d#5 v=0
201860 On ch=1 n=b4 v=0
201860 On ch=3 n=f#3 v=0
201860 On ch=1 n=a4 v=0
201860 On ch=3 n=b2 v=0
201860 On ch=1 n=d#4 v=0
201860 On ch=1 n=d#4 v=120
201860 On ch=3 n=b2 v=120
201904 On ch=1 n=a4 v=120
201924 On ch=3 n=f#3 v=120
201948 On ch=1 n=b4 v=120
201988 On ch=1 n=d#5 v=120
201988 On ch=3 n=b3 v=120
202204 On ch=3 n=b3 v=0
202204 On ch=1 n=d#5 v=0
202204 On ch=1 n=b4 v=0
202204 On ch=3 n=f#3 v=0
202204 On ch=1 n=a4 v=0
202204 On ch=3 n=b2 v=0
202204 On ch=1 n=d#4 v=0
202204 On ch=1 n=d#4 v=120
202204 On ch=3 n=b2 v=120
202244 On ch=1 n=a4 v=120
202268 On ch=3 n=f#3 v=120
202288 On ch=1 n=b4 v=120
202332 On ch=1 n=d#5 v=120
202332 On ch=3 n=b3 v=120
202544 On ch=3 n=b3 v=0
202544 On ch=1 n=d#5 v=0
202544 On ch=1 n=b4 v=0
202544 On ch=3 n=f#3 v=0
202544 On ch=1 n=a4 v=0
202544 On ch=3 n=b2 v=0
202544 On ch=1 n=d#4 v=0
202544 On ch=1 n=d#4 v=120
202544 On ch=3 n=b2 v=120
202588 On ch=1 n=a4 v=120
202608 On ch=3 n=f#3 v=120
202628 On ch=1 n=b4 v=120
202672 On ch=1 n=d#5 v=120
202672 On ch=3 n=b3 v=120
202884 On ch=3 n=b3 v=0
202884 On ch=1 n=d#5 v=0
202884 On ch=1 n=b4 v=0
202884 On ch=3 n=f#3 v=0
202884 On ch=1 n=a4 v=0
202884 On ch=3 n=b2 v=0
202884 On ch=1 n=d#4 v=0
202884 On ch=1 n=d#4 v=120
202884 On ch=3 n=b2 v=120
202928 On ch=1 n=a4 v=120
202948 On ch=3 n=f#3 v=120
202968 On ch=1 n=b4 v=120
203012 On ch=1 n=d#5 v=120
203012 On ch=3 n=b3 v=120
203224 On ch=3 n=b3 v=0
203224 On ch=1 n=d#5 v=0
203224 On ch=1 n=b4 v=0
203224 On ch=3 n=f#3 v=0
203224 On ch=1 n=a4 v=0
203224 On ch=3 n=b2 v=0
203224 On ch=1 n=d#4 v=0
203224 Par ch=1 c=64 v=0
203224 Par ch=1 c=64 v=127
203224 On ch=1 n=e4 v=127
203224 On ch=1 n=g#4 v=127
203224 On ch=1 n=e5 v=127
203224 Par ch=1 c=64 v=0
203224 Par ch=1 c=64 v=127
203224 Par ch=2 c=64 v=0
203224 Par ch=2 c=64 v=127
203224 Par ch=2 c=64 v=0
203224 Par ch=2 c=64 v=127
203224 Par ch=3 c=64 v=0
203224 Par ch=3 c=64 v=127
203224 Par ch=3 c=64 v=0
203224 Par ch=3 c=64 v=127
203224 On ch=3 n=e2 v=127
203224 On ch=3 n=e3 v=127
203392 On ch=3 n=e3 v=0
203392 On ch=3 n=e2 v=0
203392 On ch=1 n=e5 v=0
203392 On ch=1 n=g#4 v=0
203392 On ch=1 n=e4 v=0
203892 On ch=1 n=g#4 v=127
203892 On ch=3 n=e3 v=127
203932 On ch=1 n=e4 v=127
203932 On ch=3 n=b3 v=127
203976 On ch=1 n=e5 v=127
203976 On ch=3 n=e4 v=127
204016 On ch=1 n=g#5 v=127
204536 On ch=1 n=g#5 v=0
204536 On ch=3 n=e4 v=0
204536 On ch=1 n=e5 v=0
204536 On ch=3 n=b3 v=0
204536 On ch=1 n=e4 v=0
204536 On ch=3 n=e3 v=0
204536 On ch=1 n=g#4 v=0
204536 On ch=1 n=g#4 v=127
204536 On ch=3 n=e3 v=127
204576 On ch=1 n=e4 v=127
204576 On ch=3 n=b3 v=127
204612 On ch=1 n=e5 v=127
204612 On ch=3 n=e4 v=127
204652 On ch=1 n=g#5 v=127
205152 On ch=1 n=g#5 v=0
205152 On ch=3 n=e4 v=0
205152 On ch=1 n=e5 v=0
205152 On ch=3 n=b3 v=0
205152 On ch=1 n=e4 v=0
205152 On ch=3 n=e3 v=0
205152 On ch=1 n=g#4 v=0
205152 On ch=1 n=g#4 v=127
205152 On ch=3 n=e3 v=127
205188 On ch=1 n=e4 v=127
205188 On ch=3 n=b3 v=127
205228 On ch=1 n=e5 v=127
205228 On ch=3 n=e4 v=127
205264 On ch=1 n=g#5 v=127
205740 On ch=1 n=g#5 v=0
205740 On ch=3 n=e4 v=0
205740 On ch=1 n=e5 v=0
205740 On ch=3 n=b3 v=0
205740 On ch=1 n=e4 v=0
205740 On ch=3 n=e3 v=0
205740 On ch=1 n=g#4 v=0
205740 On ch=1 n=g#4 v=127
205740 On ch=3 n=e3 v=127
205776 On ch=1 n=e4 v=127
205776 On ch=3 n=b3 v=127
205812 On ch=1 n=e5 v=127
205812 On ch=3 n=e4 v=127
205848 On ch=1 n=g#5 v=127
206320 On ch=1 n=g#5 v=0
206320 On ch=3 n=e4 v=0
206320 On ch=1 n=e5 v=0
206320 On ch=3 n=b3 v=0
206320 On ch=1 n=e4 v=0
206320 On ch=3 n=e3 v=0
206320 On ch=1 n=g#4 v=0
206320 On ch=1 n=g#4 v=127
206320 On ch=3 n=e3 v=127
206356 On ch=1 n=e4 v=127
206356 On ch=3 n=b3 v=127
206392 On ch=1 n=e5 v=127
206392 On ch=3 n=e4 v=127
206428 On ch=1 n=g#5 v=127
206896 On ch=1 n=g#5 v=0
206896 On ch=3 n=e4 v=0
206896 On ch=1 n=e5 v=0
206896 On ch=3 n=b3 v=0
206896 On ch=1 n=e4 v=0
206896 On ch=3 n=e3 v=0
206896 On ch=1 n=g#4 v=0
206896 Par ch=1 c=64 v=0
206896 On ch=1 n=g#4 v=127
206896 On ch=1 n=e4 v=127
206896 On ch=1 n=e5 v=127
206896 On ch=1 n=g#5 v=127
206896 Par ch=2 c=64 v=0
206896 Par ch=3 c=64 v=0
206896 On ch=3 n=e3 v=127
206896 On ch=3 n=b3 v=127
206896 On ch=3 n=e4 v=127
207040 On ch=3 n=e4 v=0
207040 On ch=3 n=b3 v=0
207040 On ch=3 n=e3 v=0
207040 On ch=1 n=g#5 v=0
207040 On ch=1 n=e5 v=0
207040 On ch=1 n=e4 v=0
207040 On ch=1 n=g#4 v=0
207040 On ch=3 n=d#3 v=60
207040 On ch=3 n=d#4 v=60
207112 On ch=3 n=d#4 v=0
207112 On ch=3 n=d#3 v=0
207184 On ch=3 n=c#3 v=60
207184 On ch=3 n=c#4 v=60
207256 On ch=3 n=c#4 v=0
207256 On ch=3 n=c#3 v=0
207328 On ch=3 n=b2 v=60
207328 On ch=3 n=b3 v=60
207400 On ch=3 n=b3 v=0
207400 On ch=3 n=b2 v=0
207472 On ch=3 n=e3 v=60
207472 On ch=3 n=e4 v=60
207544 On ch=3 n=e4 v=0
207544 On ch=3 n=e3 v=0
207616 On ch=3 n=d#3 v=60
207616 On ch=3 n=d#4 v=60
207688 On ch=3 n=d#4 v=0
207688 On ch=3 n=d#3 v=0
207760 On ch=3 n=c#3 v=60
207760 On ch=3 n=c#4 v=60
207832 On ch=3 n=c#4 v=0
207832 On ch=3 n=c#3 v=0
207904 On ch=3 n=b2 v=60
207904 On ch=3 n=b3 v=60
207976 On ch=3 n=b3 v=0
207976 On ch=3 n=b2 v=0
208048 On ch=3 n=e3 v=60
208048 On ch=3 n=e4 v=60
208120 On ch=3 n=e4 v=0
208120 On ch=3 n=e3 v=0
208192 On ch=3 n=d#3 v=60
208192 On ch=3 n=d#4 v=60
208264 On ch=3 n=d#4 v=0
208264 On ch=3 n=d#3 v=0
208336 On ch=3 n=c#3 v=60
208336 On ch=3 n=c#4 v=60
208408 On ch=3 n=c#4 v=0
208408 On ch=3 n=c#3 v=0
208480 On ch=3 n=b2 v=60
208480 On ch=3 n=b3 v=60
208552 On ch=3 n=b3 v=0
208552 On ch=3 n=b2 v=0
208628 On ch=3 n=e3 v=60
208628 On ch=3 n=e4 v=60
208700 On ch=3 n=e4 v=0
208700 On ch=3 n=e3 v=0
208772 On ch=3 n=d#3 v=60
208772 On ch=3 n=d#4 v=60
208844 On ch=3 n=d#4 v=0
208844 On ch=3 n=d#3 v=0
208916 On ch=3 n=c#3 v=60
208916 On ch=3 n=c#4 v=60
208988 On ch=3 n=c#4 v=0
208988 On ch=3 n=c#3 v=0
209060 On ch=3 n=b2 v=60
209060 On ch=3 n=b3 v=60
209132 On ch=3 n=b3 v=0
209132 On ch=3 n=b2 v=0
209204 On ch=3 n=e3 v=60
209204 On ch=3 n=e4 v=60
209276 On ch=3 n=e4 v=0
209276 On ch=3 n=e3 v=0
209348 On ch=3 n=d#3 v=60
209348 On ch=3 n=d#4 v=60
209420 On ch=3 n=d#4 v=0
209420 On ch=3 n=d#3 v=0
209492 On ch=3 n=c#3 v=60
209492 On ch=3 n=c#4 v=60
209564 On ch=3 n=c#4 v=0
209564 On ch=3 n=c#3 v=0
209636 On ch=3 n=b2 v=60
209636 On ch=3 n=b3 v=60
209708 On ch=3 n=b3 v=0
209708 On ch=3 n=b2 v=0
209780 On ch=3 n=e3 v=60
209780 On ch=3 n=e4 v=60
209852 On ch=3 n=e4 v=0
209852 On ch=3 n=e3 v=0
209924 On ch=3 n=d#3 v=60
209924 On ch=3 n=d#4 v=60
209996 On ch=3 n=d#4 v=0
209996 On ch=3 n=d#3 v=0
210068 On ch=3 n=c#3 v=60
210068 On ch=3 n=c#4 v=60
210140 On ch=3 n=c#4 v=0
210140 On ch=3 n=c#3 v=0
210212 On ch=3 n=b2 v=60
210212 On ch=3 n=b3 v=60
210284 On ch=3 n=b3 v=0
210284 On ch=3 n=b2 v=0
210356 On ch=1 n=g#4 v=60
210356 On ch=1 n=b4 v=60
210356 On ch=3 n=e3 v=60
210356 On ch=3 n=e4 v=60
210428 On ch=3 n=e4 v=0
210428 On ch=3 n=e3 v=0
210500 On ch=3 n=d#3 v=60
210500 On ch=3 n=d#4 v=60
210572 On ch=3 n=d#4 v=0
210572 On ch=3 n=d#3 v=0
210644 On ch=3 n=c#3 v=60
210644 On ch=3 n=c#4 v=60
210716 On ch=3 n=c#4 v=0
210716 On ch=3 n=c#3 v=0
210788 On ch=3 n=b2 v=60
210788 On ch=3 n=b3 v=60
210860 On ch=3 n=b3 v=0
210860 On ch=3 n=b2 v=0
210932 On ch=3 n=e3 v=60
210932 On ch=3 n=e4 v=60
211004 On ch=3 n=e4 v=0
211004 On ch=3 n=e3 v=0
211080 On ch=3 n=d#3 v=60
211080 On ch=3 n=d#4 v=60
211152 On ch=3 n=d#4 v=0
211152 On ch=3 n=d#3 v=0
211224 On ch=3 n=c#3 v=60
211224 On ch=3 n=c#4 v=60
211296 On ch=3 n=c#4 v=0
211296 On ch=3 n=c#3 v=0
211368 On ch=3 n=b2 v=60
211368 On ch=3 n=b3 v=60
211440 On ch=3 n=b3 v=0
211440 On ch=3 n=b2 v=0
211512 On ch=1 n=b4 v=0
211512 On ch=1 n=g#4 v=0
211512 On ch=1 n=a4 v=60
211512 On ch=1 n=b4 v=60
211512 On ch=3 n=e3 v=60
211512 On ch=3 n=e4 v=60
211584 On ch=3 n=e4 v=0
211584 On ch=3 n=e3 v=0
211656 On ch=3 n=d#3 v=60
211656 On ch=3 n=d#4 v=60
211728 On ch=3 n=d#4 v=0
211728 On ch=3 n=d#3 v=0
211800 On ch=3 n=c#3 v=60
211800 On ch=3 n=c#4 v=60
211872 On ch=3 n=c#4 v=0
211872 On ch=3 n=c#3 v=0
211944 On ch=1 n=b4 v=0
211944 On ch=1 n=a4 v=0
211944 On ch=1 n=a4 v=60
211944 On ch=1 n=b4 v=60
211944 On ch=3 n=b2 v=60
211944 On ch=3 n=b3 v=60
212016 On ch=3 n=b3 v=0
212016 On ch=3 n=b2 v=0
212088 On ch=1 n=b4 v=0
212088 On ch=1 n=a4 v=0
212088 On ch=1 n=g#4 v=60
212088 On ch=1 n=b4 v=60
212088 On ch=3 n=e3 v=60
212088 On ch=3 n=e4 v=60
212160 On ch=3 n=e4 v=0
212160 On ch=3 n=e3 v=0
212232 On ch=3 n=d#3 v=60
212232 On ch=3 n=d#4 v=60
212304 On ch=3 n=d#4 v=0
212304 On ch=3 n=d#3 v=0
212376 On ch=3 n=c#3 v=60
212376 On ch=3 n=c#4 v=60
212448 On ch=3 n=c#4 v=0
212448 On ch=3 n=c#3 v=0
212520 On ch=1 n=b4 v=0
212520 On ch=1 n=g#4 v=0
212520 On ch=1 n=g#4 v=60
212520 On ch=1 n=e5 v=60
212520 On ch=3 n=b2 v=60
212520 On ch=3 n=b3 v=60
212592 On ch=3 n=b3 v=0
212592 On ch=3 n=b2 v=0
212664 On ch=1 n=e5 v=0
212664 On ch=1 n=g#4 v=0
212664 On ch=1 n=g#4 v=60
212664 On ch=1 n=b4 v=60
212664 On ch=1 n=g#5 v=60
212664 On ch=3 n=e3 v=60
212664 On ch=3 n=e4 v=60
212736 On ch=3 n=e4 v=0
212736 On ch=3 n=e3 v=0
212808 On ch=3 n=d#3 v=60
212808 On ch=3 n=d#4 v=60
212880 On ch=3 n=d#4 v=0
212880 On ch=3 n=d#3 v=0
212952 On ch=3 n=c#3 v=60
212952 On ch=3 n=c#4 v=60
213024 On ch=3 n=c#4 v=0
213024 On ch=3 n=c#3 v=0
213096 On ch=3 n=b2 v=60
213096 On ch=3 n=b3 v=60
213168 On ch=3 n=b3 v=0
213168 On ch=3 n=b2 v=0
213240 On ch=1 n=g#5 v=0
213240 On ch=1 n=b4 v=0
213240 On ch=1 n=g#4 v=0
213240 On ch=1 n=a4 v=60
213240 On ch=1 n=b4 v=60
213240 On ch=1 n=f#5 v=60
213240 On ch=3 n=e3 v=60
213240 On ch=3 n=e4 v=60
213312 On ch=3 n=e4 v=0
213312 On ch=3 n=e3 v=0
213384 On ch=3 n=d#3 v=60
213384 On ch=3 n=d#4 v=60
213456 On ch=3 n=d#4 v=0
213456 On ch=3 n=d#3 v=0
213528 On ch=3 n=c#3 v=60
213528 On ch=3 n=c#4 v=60
213604 On ch=3 n=c#4 v=0
213604 On ch=3 n=c#3 v=0
213676 On ch=3 n=b2 v=60
213676 On ch=3 n=b3 v=60
213748 On ch=3 n=b3 v=0
213748 On ch=3 n=b2 v=0
213820 On ch=1 n=f#5 v=0
213820 On ch=1 n=b4 v=0
213820 On ch=1 n=a4 v=0
213820 On ch=1 n=g#4 v=60
213820 On ch=1 n=b4 v=60
213820 On ch=3 n=e3 v=60
213820 On ch=3 n=e4 v=60
213892 On ch=3 n=e4 v=0
213892 On ch=3 n=e3 v=0
213964 On ch=3 n=d#3 v=60
213964 On ch=3 n=d#4 v=60
214036 On ch=3 n=d#4 v=0
214036 On ch=3 n=d#3 v=0
214108 On ch=3 n=c#3 v=60
214108 On ch=3 n=c#4 v=60
214180 On ch=3 n=c#4 v=0
214180 On ch=3 n=c#3 v=0
214252 On ch=1 n=b4 v=0
214252 On ch=1 n=g#4 v=0
214252 On ch=1 n=g#4 v=60
214252 On ch=1 n=e5 v=60
214252 On ch=3 n=b2 v=60
214252 On ch=3 n=b3 v=60
214324 On ch=3 n=b3 v=0
214324 On ch=3 n=b2 v=0
214396 On ch=1 n=e5 v=0
214396 On ch=1 n=g#4 v=0
214396 On ch=1 n=g#4 v=60
214396 On ch=1 n=b4 v=60
214396 On ch=1 n=g#5 v=60
214396 On ch=3 n=e3 v=60
214396 On ch=3 n=e4 v=60
214468 On ch=3 n=e4 v=0
214468 On ch=3 n=e3 v=0
214540 On ch=3 n=d#3 v=60
214540 On ch=3 n=d#4 v=60
214612 On ch=3 n=d#4 v=0
214612 On ch=3 n=d#3 v=0
214684 On ch=1 n=g#5 v=0
214684 On ch=1 n=b4 v=0
214684 On ch=1 n=g#4 v=0
214684 On ch=3 n=c#3 v=60
214684 On ch=3 n=c#4 v=60
214756 On ch=3 n=c#4 v=0
214756 On ch=3 n=c#3 v=0
214828 On ch=1 n=a4 v=60
214828 On ch=1 n=d#5 v=60
214828 On ch=3 n=b2 v=60
214828 On ch=3 n=b3 v=60
214900 On ch=3 n=b3 v=0
214900 On ch=3 n=b2 v=0
214972 On ch=1 n=d#5 v=0
214972 On ch=1 n=a4 v=0
214972 On ch=1 n=g#4 v=60
214972 On ch=1 n=e5 v=60
214972 On ch=3 n=e3 v=60
214972 On ch=3 n=e4 v=60
215044 On ch=3 n=e4 v=0
215044 On ch=3 n=e3 v=0
215116 On ch=3 n=d#3 v=60
215116 On ch=3 n=d#4 v=60
215188 On ch=3 n=d#4 v=0
215188 On ch=3 n=d#3 v=0
215260 On ch=1 n=e5 v=0
215260 On ch=1 n=g#4 v=0
215260 On ch=1 n=g#4 v=60
215260 On ch=1 n=e5 v=60
215260 On ch=1 n=g#5 v=60
215260 On ch=3 n=c#3 v=60
215260 On ch=3 n=c#4 v=60
215332 On ch=3 n=c#4 v=0
215332 On ch=3 n=c#3 v=0
215404 On ch=3 n=b2 v=60
215404 On ch=3 n=b3 v=60
215476 On ch=3 n=b3 v=0
215476 On ch=3 n=b2 v=0
215548 On ch=1 n=g#5 v=0
215548 On ch=1 n=e5 v=0
215548 On ch=1 n=g#4 v=0
215548 On ch=1 n=b4 v=60
215548 On ch=1 n=g#5 v=60
215548 On ch=1 n=b5 v=60
215548 On ch=3 n=e3 v=60
215548 On ch=3 n=e4 v=60
215620 On ch=3 n=e4 v=0
215620 On ch=3 n=e3 v=0
215692 On ch=3 n=d#3 v=62
215692 On ch=3 n=d#4 v=62
215764 On ch=3 n=d#4 v=0
215764 On ch=3 n=d#3 v=0
215836 On ch=1 n=b5 v=0
215836 On ch=1 n=g#5 v=0
215836 On ch=1 n=b4 v=0
215836 On ch=1 n=c#5 v=65
215836 On ch=1 n=g#5 v=65
215836 On ch=1 n=c#6 v=65
215836 On ch=3 n=c#3 v=65
215836 On ch=3 n=c#4 v=65
215908 On ch=3 n=c#4 v=0
215908 On ch=3 n=c#3 v=0
215908 On ch=1 n=c#6 v=0
215908 On ch=1 n=g#5 v=0
215908 On ch=1 n=c#5 v=0
215980 On ch=1 n=d#5 v=67
215980 On ch=1 n=g#5 v=67
215980 On ch=1 n=d#6 v=67
215980 On ch=3 n=b2 v=67
215980 On ch=3 n=b3 v=67
216052 On ch=3 n=b3 v=0
216052 On ch=3 n=b2 v=0
216052 On ch=1 n=d#6 v=0
216052 On ch=1 n=g#5 v=0
216052 On ch=1 n=d#5 v=0
216128 On ch=1 n=e5 v=70
216128 On ch=1 n=g#5 v=70
216128 On ch=1 n=e6 v=70
216128 On ch=3 n=e3 v=70
216128 On ch=3 n=e4 v=70
216200 On ch=3 n=e4 v=0
216200 On ch=3 n=e3 v=0
216272 On ch=1 n=e6 v=0
216272 On ch=1 n=g#5 v=0
216272 On ch=1 n=e5 v=0
216272 On ch=3 n=d#3 v=72
216272 On ch=3 n=d#4 v=72
216344 On ch=3 n=d#4 v=0
216344 On ch=3 n=d#3 v=0
216416 On ch=1 n=b4 v=75
216416 On ch=1 n=g#5 v=75
216416 On ch=1 n=b5 v=75
216416 On ch=3 n=c#3 v=75
216416 On ch=3 n=c#4 v=75
216488 On ch=3 n=c#4 v=0
216488 On ch=3 n=c#3 v=0
216560 On ch=1 n=b5 v=0
216560 On ch=1 n=g#5 v=0
216560 On ch=1 n=b4 v=0
216560 On ch=3 n=b2 v=77
216560 On ch=3 n=b3 v=77
216632 On ch=3 n=b3 v=0
216632 On ch=3 n=b2 v=0
216704 On ch=1 n=g#5 v=80
216704 On ch=1 n=b5 v=80
216704 On ch=1 n=g#6 v=80
216704 On ch=3 n=e3 v=80
216704 On ch=3 n=e4 v=80
216776 On ch=3 n=e4 v=0
216776 On ch=3 n=e3 v=0
216848 On ch=3 n=d#3 v=82
216848 On ch=3 n=d#4 v=82
216920 On ch=3 n=d#4 v=0
216920 On ch=3 n=d#3 v=0
216992 On ch=3 n=c#3 v=85
216992 On ch=3 n=c#4 v=85
217064 On ch=3 n=c#4 v=0
217064 On ch=3 n=c#3 v=0
217136 On ch=3 n=b2 v=87
217136 On ch=3 n=b3 v=87
217208 On ch=3 n=b3 v=0
217208 On ch=3 n=b2 v=0
217280 On ch=1 n=g#6 v=0
217280 On ch=1 n=b5 v=0
217280 On ch=1 n=g#5 v=0
217280 On ch=1 n=b4 v=60
217280 On ch=1 n=f#5 v=60
217280 On ch=1 n=a5 v=60
217280 On ch=1 n=b5 v=60
217280 On ch=3 n=e3 v=60
217280 On ch=3 n=e4 v=60
217352 On ch=3 n=e4 v=0
217352 On ch=3 n=e3 v=0
217424 On ch=3 n=d#3 v=60
217424 On ch=3 n=d#4 v=60
217496 On ch=3 n=d#4 v=0
217496 On ch=3 n=d#3 v=0
217568 On ch=3 n=c#3 v=60
217568 On ch=3 n=c#4 v=60
217640 On ch=3 n=c#4 v=0
217640 On ch=3 n=c#3 v=0
217712 On ch=3 n=b2 v=60
217712 On ch=3 n=b3 v=60
217784 On ch=3 n=b3 v=0
217784 On ch=3 n=b2 v=0
217856 On ch=3 n=e3 v=60
217856 On ch=3 n=e4 v=60
217928 On ch=3 n=e4 v=0
217928 On ch=3 n=e3 v=0
218000 On ch=3 n=d#3 v=60
218000 On ch=3 n=d#4 v=60
218072 On ch=3 n=d#4 v=0
218072 On ch=3 n=d#3 v=0
218144 On ch=1 n=b5 v=0
218144 On ch=1 n=a5 v=0
218144 On ch=1 n=f#5 v=0
218144 On ch=1 n=b4 v=0
218144 On ch=1 n=b4 v=60
218144 On ch=1 n=a5 v=60
218144 On ch=1 n=b5 v=60
218144 On ch=3 n=c#3 v=60
218144 On ch=3 n=c#4 v=60
218216 On ch=3 n=c#4 v=0
218216 On ch=3 n=c#3 v=0
218216 On ch=1 n=b5 v=0
218216 On ch=1 n=a5 v=0
218216 On ch=1 n=b4 v=0
218288 On ch=1 n=b4 v=60
218288 On ch=1 n=a5 v=60
218288 On ch=1 n=b5 v=60
218288 On ch=3 n=b2 v=60
218288 On ch=3 n=b3 v=60
218360 On ch=3 n=b3 v=0
218360 On ch=3 n=b2 v=0
218360 On ch=1 n=b5 v=0
218360 On ch=1 n=a5 v=0
218360 On ch=1 n=b4 v=0
218432 On ch=1 n=b4 v=60
218432 On ch=1 n=a5 v=60
218432 On ch=1 n=b5 v=60
218432 On ch=3 n=e3 v=60
218432 On ch=3 n=e4 v=60
218504 On ch=3 n=e4 v=0
218504 On ch=3 n=e3 v=0
218580 On ch=1 n=b5 v=0
218580 On ch=1 n=a5 v=0
218580 On ch=1 n=b4 v=0
218580 On ch=3 n=d#3 v=60
218580 On ch=3 n=d#4 v=60
218652 On ch=3 n=d#4 v=0
218652 On ch=3 n=d#3 v=0
218724 On ch=1 n=b4 v=60
218724 On ch=1 n=a5 v=60
218724 On ch=1 n=b5 v=60
218724 On ch=3 n=c#3 v=60
218724 On ch=3 n=c#4 v=60
218796 On ch=3 n=c#4 v=0
218796 On ch=3 n=c#3 v=0
218868 On ch=1 n=b5 v=0
218868 On ch=1 n=a5 v=0
218868 On ch=1 n=b4 v=0
218868 On ch=3 n=b2 v=60
218868 On ch=3 n=b3 v=60
218940 On ch=3 n=b3 v=0
218940 On ch=3 n=b2 v=0
219012 On ch=1 n=b4 v=60
219012 On ch=1 n=g#5 v=60
219012 On ch=1 n=b5 v=60
219012 On ch=3 n=e3 v=60
219012 On ch=3 n=e4 v=60
219084 On ch=3 n=e4 v=0
219084 On ch=3 n=e3 v=0
219156 On ch=3 n=d#3 v=67
219156 On ch=3 n=d#4 v=67
219228 On ch=3 n=d#4 v=0
219228 On ch=3 n=d#3 v=0
219300 On ch=3 n=c#3 v=75
219300 On ch=3 n=c#4 v=75
219372 On ch=3 n=c#4 v=0
219372 On ch=3 n=c#3 v=0
219444 On ch=1 n=b5 v=0
219444 On ch=1 n=g#5 v=0
219444 On ch=1 n=b4 v=0
219444 On ch=1 n=e5 v=82
219444 On ch=1 n=g#5 v=82
219444 On ch=1 n=e6 v=82
219444 On ch=3 n=b2 v=82
219444 On ch=3 n=b3 v=82
219516 On ch=3 n=b3 v=0
219516 On ch=3 n=b2 v=0
219588 On ch=1 n=e6 v=0
219588 On ch=1 n=g#5 v=0
219588 On ch=1 n=e5 v=0
219588 On ch=1 n=e5 v=90
219588 On ch=1 n=g#5 v=90
219588 On ch=1 n=e6 v=90
219588 On ch=3 n=e3 v=90
219588 On ch=3 n=e4 v=90
219660 On ch=3 n=e4 v=0
219660 On ch=3 n=e3 v=0
219732 On ch=3 n=d#3 v=90
219732 On ch=3 n=d#4 v=90
219804 On ch=3 n=d#4 v=0
219804 On ch=3 n=d#3 v=0
219876 On ch=3 n=c#3 v=90
219876 On ch=3 n=c#4 v=90
219948 On ch=3 n=c#4 v=0
219948 On ch=3 n=c#3 v=0
220020 On ch=3 n=b2 v=90
220020 On ch=3 n=b3 v=90
220092 On ch=3 n=b3 v=0
220092 On ch=3 n=b2 v=0
220164 On ch=1 n=e6 v=0
220164 On ch=1 n=g#5 v=0
220164 On ch=1 n=e5 v=0
220164 On ch=1 n=b4 v=90
220164 On ch=1 n=e5 v=90
220164 On ch=1 n=g#5 v=90
220164 On ch=3 n=e3 v=90
220164 On ch=3 n=e4 v=90
220236 On ch=3 n=e4 v=0
220236 On ch=3 n=e3 v=0
220308 On ch=3 n=d#3 v=90
220308 On ch=3 n=d#4 v=90
220380 On ch=3 n=d#4 v=0
220380 On ch=3 n=d#3 v=0
220452 On ch=3 n=c#3 v=90
220452 On ch=3 n=c#4 v=90
220524 On ch=3 n=c#4 v=0
220524 On ch=3 n=c#3 v=0
220596 On ch=3 n=b2 v=90
220596 On ch=3 n=b3 v=90
220668 On ch=3 n=b3 v=0
220668 On ch=3 n=b2 v=0
220740 On ch=1 n=g#5 v=0
220740 On ch=1 n=e5 v=0
220740 On ch=1 n=b4 v=0
220740 On ch=1 n=f#5 v=90
220740 On ch=2 n=a4 v=60
220740 On ch=2 n=b4 v=60
220740 On ch=3 n=e3 v=90
220740 On ch=3 n=e4 v=90
220812 On ch=3 n=e4 v=0
220812 On ch=3 n=e3 v=0
220884 On ch=2 n=b4 v=0
220884 On ch=2 n=a4 v=0
220884 On ch=3 n=d#3 v=90
220884 On ch=3 n=d#4 v=90
220956 On ch=3 n=d#4 v=0
220956 On ch=3 n=d#3 v=0
221028 On ch=2 n=a4 v=60
221028 On ch=2 n=b4 v=60
221028 On ch=3 n=c#3 v=90
221028 On ch=3 n=c#4 v=90
221104 On ch=3 n=c#4 v=0
221104 On ch=3 n=c#3 v=0
221104 On ch=2 n=b4 v=0
221104 On ch=2 n=a4 v=0
221176 On ch=2 n=a4 v=60
221176 On ch=2 n=b4 v=60
221176 On ch=3 n=b2 v=90
221176 On ch=3 n=b3 v=90
221248 On ch=3 n=b3 v=0
221248 On ch=3 n=b2 v=0
221248 On ch=2 n=b4 v=0
221248 On ch=2 n=a4 v=0
221320 On ch=2 n=a4 v=60
221320 On ch=2 n=b4 v=60
221320 On ch=3 n=e3 v=90
221320 On ch=3 n=e4 v=90
221392 On ch=3 n=e4 v=0
221392 On ch=3 n=e3 v=0
221464 On ch=2 n=b4 v=0
221464 On ch=2 n=a4 v=0
221464 On ch=3 n=d#3 v=90
221464 On ch=3 n=d#4 v=90
221536 On ch=3 n=d#4 v=0
221536 On ch=3 n=d#3 v=0
221608 On ch=1 n=f#5 v=0
221608 On ch=1 n=f#5 v=90
221608 On ch=2 n=a4 v=60
221608 On ch=2 n=b4 v=60
221608 On ch=3 n=c#3 v=90
221608 On ch=3 n=c#4 v=90
221680 On ch=3 n=c#4 v=0
221680 On ch=3 n=c#3 v=0
221752 On ch=3 n=b2 v=90
221752 On ch=3 n=b3 v=90
221824 On ch=3 n=b3 v=0
221824 On ch=3 n=b2 v=0
221896 On ch=2 n=b4 v=0
221896 On ch=2 n=a4 v=0
221896 On ch=1 n=f#5 v=0
221896 On ch=1 n=g#5 v=90
221896 On ch=2 n=a4 v=60
221896 On ch=2 n=b4 v=60
221896 On ch=3 n=e3 v=90
221896 On ch=3 n=e4 v=90
221968 On ch=3 n=e4 v=0
221968 On ch=3 n=e3 v=0
221968 On ch=1 n=g#5 v=0
222040 On ch=2 n=b4 v=0
222040 On ch=2 n=a4 v=0
222040 On ch=1 n=f#5 v=83
222040 On ch=2 n=a4 v=67
222040 On ch=2 n=b4 v=67
222040 On ch=3 n=d#3 v=83
222040 On ch=3 n=d#4 v=83
222112 On ch=3 n=d#4 v=0
222112 On ch=3 n=d#3 v=0
222112 On ch=1 n=f#5 v=0
222184 On ch=2 n=b4 v=0
222184 On ch=2 n=a4 v=0
222184 On ch=1 n=e5 v=75
222184 On ch=2 n=a4 v=75
222184 On ch=2 n=b4 v=75
222184 On ch=3 n=c#3 v=75
222184 On ch=3 n=c#4 v=75
222256 On ch=3 n=c#4 v=0
222256 On ch=3 n=c#3 v=0
222256 On ch=1 n=e5 v=0
222328 On ch=2 n=b4 v=0
222328 On ch=2 n=a4 v=0
222328 On ch=1 n=f#5 v=68
222328 On ch=2 n=a4 v=82
222328 On ch=2 n=b4 v=82
222328 On ch=3 n=b2 v=68
222328 On ch=3 n=b3 v=68
222400 On ch=3 n=b3 v=0
222400 On ch=3 n=b2 v=0
222400 On ch=1 n=f#5 v=0
222472 On ch=2 n=b4 v=0
222472 On ch=2 n=a4 v=0
222472 On ch=1 n=e5 v=60
222472 On ch=1 n=g#5 v=60
222472 On ch=2 n=g#4 v=90
222472 On ch=3 n=e3 v=60
222472 On ch=3 n=e4 v=60
222544 On ch=3 n=e4 v=0
222544 On ch=3 n=e3 v=0
222616 On ch=3 n=d#3 v=60
222616 On ch=3 n=d#4 v=60
222688 On ch=3 n=d#4 v=0
222688 On ch=3 n=d#3 v=0
222760 On ch=3 n=c#3 v=60
222760 On ch=3 n=c#4 v=60
222832 On ch=3 n=c#4 v=0
222832 On ch=3 n=c#3 v=0
222904 On ch=2 n=g#4 v=0
222904 On ch=2 n=c#5 v=90
222904 On ch=3 n=b2 v=60
222904 On ch=3 n=b3 v=60
222976 On ch=3 n=b3 v=0
222976 On ch=3 n=b2 v=0
223048 On ch=2 n=c#5 v=0
223048 On ch=2 n=b4 v=90
223048 On ch=3 n=e3 v=60
223048 On ch=3 n=e4 v=60
223120 On ch=3 n=e4 v=0
223120 On ch=3 n=e3 v=0
223192 On ch=3 n=d#3 v=64
223192 On ch=3 n=d#4 v=64
223264 On ch=3 n=d#4 v=0
223264 On ch=3 n=d#3 v=0
223336 On ch=3 n=c#3 v=67
223336 On ch=3 n=c#4 v=67
223408 On ch=3 n=c#4 v=0
223408 On ch=3 n=c#3 v=0
223480 On ch=1 n=g#5 v=0
223480 On ch=1 n=e5 v=0
223480 On ch=1 n=g#5 v=90
223480 On ch=1 n=b5 v=90
223480 On ch=3 n=b2 v=71
223480 On ch=3 n=b3 v=71
223552 On ch=3 n=b3 v=0
223552 On ch=3 n=b2 v=0
223628 On ch=1 n=b5 v=0
223628 On ch=1 n=g#5 v=0
223628 On ch=1 n=g#5 v=84
223628 On ch=1 n=b5 v=84
223628 On ch=3 n=e3 v=75
223628 On ch=3 n=e4 v=75
223700 On ch=3 n=e4 v=0
223700 On ch=3 n=e3 v=0
223772 On ch=3 n=d#3 v=79
223772 On ch=3 n=d#4 v=79
223844 On ch=3 n=d#4 v=0
223844 On ch=3 n=d#3 v=0
223916 On ch=3 n=c#3 v=82
223916 On ch=3 n=c#4 v=82
223988 On ch=3 n=c#4 v=0
223988 On ch=3 n=c#3 v=0
224060 On ch=3 n=b2 v=86
224060 On ch=3 n=b3 v=86
224132 On ch=3 n=b3 v=0
224132 On ch=3 n=b2 v=0
224204 On ch=1 n=b5 v=0
224204 On ch=1 n=g#5 v=0
224204 On ch=2 n=b4 v=0
224204 On ch=1 n=g#4 v=30
224204 On ch=1 n=b4 v=30
224204 On ch=3 n=e3 v=60
224204 On ch=3 n=e4 v=60
224276 On ch=3 n=e4 v=0
224276 On ch=3 n=e3 v=0
224348 On ch=3 n=d#3 v=61
224348 On ch=3 n=d#4 v=61
224420 On ch=3 n=d#4 v=0
224420 On ch=3 n=d#3 v=0
224492 On ch=3 n=c#3 v=62
224492 On ch=3 n=c#4 v=62
224564 On ch=3 n=c#4 v=0
224564 On ch=3 n=c#3 v=0
224636 On ch=3 n=b2 v=63
224636 On ch=3 n=b3 v=63
224708 On ch=3 n=b3 v=0
224708 On ch=3 n=b2 v=0
224780 On ch=3 n=e3 v=64
224780 On ch=3 n=e4 v=64
224852 On ch=3 n=e4 v=0
224852 On ch=3 n=e3 v=0
224924 On ch=3 n=d#3 v=65
224924 On ch=3 n=d#4 v=65
224996 On ch=3 n=d#4 v=0
224996 On ch=3 n=d#3 v=0
225068 On ch=1 n=b4 v=0
225068 On ch=1 n=g#4 v=0
225068 On ch=1 n=g4 v=40
225068 On ch=1 n=b4 v=40
225068 On ch=3 n=c#3 v=66
225068 On ch=3 n=c#4 v=66
225140 On ch=3 n=c#4 v=0
225140 On ch=3 n=c#3 v=0
225140 On ch=1 n=b4 v=0
225140 On ch=1 n=g4 v=0
225212 On ch=1 n=g#4 v=42
225212 On ch=1 n=b4 v=42
225212 On ch=3 n=b2 v=67
225212 On ch=3 n=b3 v=67
225284 On ch=3 n=b3 v=0
225284 On ch=3 n=b2 v=0
225284 On ch=1 n=b4 v=0
225284 On ch=1 n=g#4 v=0
225356 On ch=1 n=a4 v=43
225356 On ch=1 n=b4 v=43
225356 On ch=3 n=e3 v=68
225356 On ch=3 n=e4 v=68
225428 On ch=3 n=e4 v=0
225428 On ch=3 n=e3 v=0
225500 On ch=3 n=d#3 v=69
225500 On ch=3 n=d#4 v=69
225572 On ch=3 n=d#4 v=0
225572 On ch=3 n=d#3 v=0
225644 On ch=1 n=b4 v=0
225644 On ch=1 n=a4 v=0
225644 On ch=1 n=a4 v=47
225644 On ch=1 n=c#5 v=47
225644 On ch=3 n=c#3 v=70
225644 On ch=3 n=c#4 v=70
225716 On ch=3 n=c#4 v=0
225716 On ch=3 n=c#3 v=0
225716 On ch=1 n=c#5 v=0
225716 On ch=1 n=a4 v=0
225788 On ch=1 n=a4 v=48
225788 On ch=1 n=d#5 v=48
225788 On ch=3 n=b2 v=71
225788 On ch=3 n=b3 v=71
225860 On ch=3 n=b3 v=0
225860 On ch=3 n=b2 v=0
225860 On ch=1 n=d#5 v=0
225860 On ch=1 n=a4 v=0
225932 On ch=1 n=g#4 v=50
225932 On ch=1 n=e5 v=50
225932 On ch=3 n=e3 v=72
225932 On ch=3 n=e4 v=72
226004 On ch=3 n=e4 v=0
226004 On ch=3 n=e3 v=0
226080 On ch=3 n=d#3 v=74
226080 On ch=3 n=d#4 v=74
226152 On ch=3 n=d#4 v=0
226152 On ch=3 n=d#3 v=0
226224 On ch=3 n=c#3 v=75
226224 On ch=3 n=c#4 v=75
226296 On ch=3 n=c#4 v=0
226296 On ch=3 n=c#3 v=0
226368 On ch=1 n=e5 v=0
226368 On ch=1 n=g#4 v=0
226368 On ch=1 n=g#4 v=55
226368 On ch=1 n=b4 v=55
226368 On ch=3 n=b2 v=76
226368 On ch=3 n=b3 v=76
226440 On ch=3 n=b3 v=0
226440 On ch=3 n=b2 v=0
226512 On ch=1 n=b4 v=0
226512 On ch=1 n=g#4 v=0
226512 On ch=1 n=g#4 v=57
226512 On ch=1 n=b4 v=57
226512 On ch=1 n=g#5 v=57
226512 On ch=3 n=e3 v=77
226512 On ch=3 n=e4 v=77
226584 On ch=3 n=e4 v=0
226584 On ch=3 n=e3 v=0
226656 On ch=3 n=d#3 v=78
226656 On ch=3 n=d#4 v=78
226728 On ch=3 n=d#4 v=0
226728 On ch=3 n=d#3 v=0
226800 On ch=3 n=c#3 v=79
226800 On ch=3 n=c#4 v=79
226872 On ch=3 n=c#4 v=0
226872 On ch=3 n=c#3 v=0
226944 On ch=3 n=b2 v=80
226944 On ch=3 n=b3 v=80
227016 On ch=3 n=b3 v=0
227016 On ch=3 n=b2 v=0
227088 On ch=1 n=g#5 v=0
227088 On ch=1 n=b4 v=0
227088 On ch=1 n=g#4 v=0
227088 On ch=1 n=a4 v=63
227088 On ch=1 n=b4 v=63
227088 On ch=1 n=f#5 v=63
227088 On ch=3 n=e3 v=81
227088 On ch=3 n=e4 v=81
227160 On ch=3 n=e4 v=0
227160 On ch=3 n=e3 v=0
227232 On ch=3 n=d#3 v=82
227232 On ch=3 n=d#4 v=82
227304 On ch=3 n=d#4 v=0
227304 On ch=3 n=d#3 v=0
227376 On ch=3 n=c#3 v=83
227376 On ch=3 n=c#4 v=83
227448 On ch=3 n=c#4 v=0
227448 On ch=3 n=c#3 v=0
227520 On ch=3 n=b2 v=84
227520 On ch=3 n=b3 v=84
227592 On ch=3 n=b3 v=0
227592 On ch=3 n=b2 v=0
227664 On ch=1 n=f#5 v=0
227664 On ch=1 n=b4 v=0
227664 On ch=1 n=a4 v=0
227664 On ch=1 n=g#4 v=70
227664 On ch=1 n=b4 v=70
227664 On ch=3 n=e3 v=85
227664 On ch=3 n=e4 v=85
227736 On ch=3 n=e4 v=0
227736 On ch=3 n=e3 v=0
227808 On ch=3 n=d#3 v=86
227808 On ch=3 n=d#4 v=86
227880 On ch=3 n=d#4 v=0
227880 On ch=3 n=d#3 v=0
227952 On ch=3 n=c#3 v=87
227952 On ch=3 n=c#4 v=87
228024 On ch=3 n=c#4 v=0
228024 On ch=3 n=c#3 v=0
228096 On ch=1 n=b4 v=0
228096 On ch=1 n=g#4 v=0
228096 On ch=1 n=g#4 v=75
228096 On ch=1 n=e5 v=75
228096 On ch=3 n=b2 v=88
228096 On ch=3 n=b3 v=88
228168 On ch=3 n=b3 v=0
228168 On ch=3 n=b2 v=0
228240 On ch=1 n=e5 v=0
228240 On ch=1 n=g#4 v=0
228240 On ch=1 n=g#4 v=77
228240 On ch=1 n=b4 v=77
228240 On ch=1 n=g#5 v=77
228240 On ch=3 n=e3 v=89
228240 On ch=3 n=e4 v=89
228312 On ch=3 n=e4 v=0
228312 On ch=3 n=e3 v=0
228384 On ch=3 n=d#3 v=90
228384 On ch=3 n=d#4 v=90
228456 On ch=3 n=d#4 v=0
228456 On ch=3 n=d#3 v=0
228528 On ch=1 n=g#5 v=0
228528 On ch=1 n=b4 v=0
228528 On ch=1 n=g#4 v=0
228528 On ch=3 n=c#3 v=91
228528 On ch=3 n=c#4 v=91
228604 On ch=3 n=c#4 v=0
228604 On ch=3 n=c#3 v=0
228676 On ch=1 n=a4 v=82
228676 On ch=1 n=d#5 v=82
228676 On ch=3 n=b2 v=92
228676 On ch=3 n=b3 v=92
228748 On ch=3 n=b3 v=0
228748 On ch=3 n=b2 v=0
228820 On ch=1 n=d#5 v=0
228820 On ch=1 n=a4 v=0
228820 On ch=1 n=g#4 v=83
228820 On ch=1 n=e5 v=83
228820 On ch=3 n=e3 v=93
228820 On ch=3 n=e4 v=93
228892 On ch=3 n=e4 v=0
228892 On ch=3 n=e3 v=0
228964 On ch=3 n=d#3 v=94
228964 On ch=3 n=d#4 v=94
229036 On ch=3 n=d#4 v=0
229036 On ch=3 n=d#3 v=0
229108 On ch=1 n=e5 v=0
229108 On ch=1 n=g#4 v=0
229108 On ch=1 n=g#4 v=87
229108 On ch=1 n=e5 v=87
229108 On ch=1 n=g#5 v=87
229108 On ch=3 n=c#3 v=95
229108 On ch=3 n=c#4 v=95
229180 On ch=3 n=c#4 v=0
229180 On ch=3 n=c#3 v=0
229252 On ch=3 n=b2 v=96
229252 On ch=3 n=b3 v=96
229324 On ch=3 n=b3 v=0
229324 On ch=3 n=b2 v=0
229396 On ch=1 n=g#5 v=0
229396 On ch=1 n=e5 v=0
229396 On ch=1 n=g#4 v=0
229396 On ch=1 n=b4 v=110
229396 On ch=1 n=g#5 v=110
229396 On ch=1 n=b5 v=110
229396 On ch=3 n=e3 v=110
229396 On ch=3 n=e4 v=110
229468 On ch=3 n=e4 v=0
229468 On ch=3 n=e3 v=0
229540 On ch=3 n=d#3 v=108
229540 On ch=3 n=d#4 v=108
229612 On ch=3 n=d#4 v=0
229612 On ch=3 n=d#3 v=0
229684 On ch=3 n=c#3 v=107
229684 On ch=3 n=c#4 v=107
229756 On ch=3 n=c#4 v=0
229756 On ch=3 n=c#3 v=0
229828 On ch=3 n=b2 v=105
229828 On ch=3 n=b3 v=105
229900 On ch=3 n=b3 v=0
229900 On ch=3 n=b2 v=0
229972 On ch=1 n=b5 v=0
229972 On ch=1 n=g#5 v=0
229972 On ch=1 n=b4 v=0
229972 On ch=1 n=c#5 v=103
229972 On ch=1 n=g#5 v=103
229972 On ch=1 n=c#6 v=103
229972 On ch=3 n=e3 v=103
229972 On ch=3 n=e4 v=103
230044 On ch=3 n=e4 v=0
230044 On ch=3 n=e3 v=0
230044 On ch=1 n=c#6 v=0
230044 On ch=1 n=g#5 v=0
230044 On ch=1 n=c#5 v=0
230116 On ch=1 n=d#5 v=102
230116 On ch=1 n=g#5 v=102
230116 On ch=1 n=d#6 v=102
230116 On ch=3 n=d#3 v=102
230116 On ch=3 n=d#4 v=102
230188 On ch=3 n=d#4 v=0
230188 On ch=3 n=d#3 v=0
230188 On ch=1 n=d#6 v=0
230188 On ch=1 n=g#5 v=0
230188 On ch=1 n=d#5 v=0
230260 On ch=1 n=e5 v=100
230260 On ch=1 n=g#5 v=100
230260 On ch=1 n=e6 v=100
230260 On ch=3 n=c#3 v=100
230260 On ch=3 n=c#4 v=100
230332 On ch=3 n=c#4 v=0
230332 On ch=3 n=c#3 v=0
230332 On ch=1 n=e6 v=0
230332 On ch=1 n=g#5 v=0
230332 On ch=1 n=e5 v=0
230404 On ch=1 n=f#5 v=98
230404 On ch=1 n=b5 v=98
230404 On ch=1 n=f#6 v=98
230404 On ch=3 n=b2 v=98
230404 On ch=3 n=b3 v=98
230476 On ch=3 n=b3 v=0
230476 On ch=3 n=b2 v=0
230476 On ch=1 n=f#6 v=0
230476 On ch=1 n=b5 v=0
230476 On ch=1 n=f#5 v=0
230548 On ch=1 n=g#5 v=97
230548 On ch=1 n=g#6 v=97
230548 On ch=2 n=b5 v=103
230548 On ch=3 n=e3 v=97
230548 On ch=3 n=e4 v=97
230620 On ch=3 n=e4 v=0
230620 On ch=3 n=e3 v=0
230692 On ch=3 n=d#3 v=95
230692 On ch=3 n=d#4 v=95
230764 On ch=3 n=d#4 v=0
230764 On ch=3 n=d#3 v=0
230836 On ch=3 n=e3 v=93
230836 On ch=3 n=e4 v=93
230908 On ch=3 n=e4 v=0
230908 On ch=3 n=e3 v=0
230980 On ch=2 n=b5 v=0
230980 On ch=2 n=a#5 v=108
230980 On ch=3 n=d3 v=92
230980 On ch=3 n=d4 v=92
231052 On ch=3 n=d4 v=0
231052 On ch=3 n=d3 v=0
231128 On ch=1 n=g#6 v=0
231128 On ch=1 n=g#5 v=0
231128 On ch=1 n=g5 v=90
231128 On ch=1 n=d#6 v=90
231128 On ch=1 n=g6 v=90
231128 On ch=3 n=d#3 v=90
231128 On ch=3 n=d#4 v=90
231200 On ch=3 n=d#4 v=0
231200 On ch=3 n=d#3 v=0
231272 On ch=3 n=d3 v=91
231272 On ch=3 n=d4 v=91
231344 On ch=3 n=d4 v=0
231344 On ch=3 n=d3 v=0
231416 On ch=3 n=c3 v=92
231416 On ch=3 n=c4 v=92
231488 On ch=3 n=c4 v=0
231488 On ch=3 n=c3 v=0
231560 On ch=3 n=a#2 v=92
231560 On ch=3 n=a#3 v=92
231632 On ch=3 n=a#3 v=0
231632 On ch=3 n=a#2 v=0
231704 On ch=3 n=d#3 v=93
231704 On ch=3 n=d#4 v=93
231776 On ch=3 n=d#4 v=0
231776 On ch=3 n=d#3 v=0
231848 On ch=3 n=d3 v=94
231848 On ch=3 n=d4 v=94
231920 On ch=3 n=d4 v=0
231920 On ch=3 n=d3 v=0
231992 On ch=1 n=g6 v=0
231992 On ch=1 n=d#6 v=0
231992 On ch=1 n=g5 v=0
231992 On ch=2 n=a#5 v=0
231992 On ch=1 n=a#4 v=95
231992 On ch=1 n=g5 v=95
231992 On ch=1 n=a#5 v=95
231992 On ch=2 n=g5 v=110
231992 On ch=2 n=a#5 v=110
231992 On ch=3 n=c3 v=95
231992 On ch=3 n=c4 v=95
232064 On ch=3 n=c4 v=0
232064 On ch=3 n=c3 v=0
232136 On ch=3 n=a#2 v=96
232136 On ch=3 n=a#3 v=96
232208 On ch=3 n=a#3 v=0
232208 On ch=3 n=a#2 v=0
232280 On ch=1 n=a#5 v=0
232280 On ch=1 n=g5 v=0
232280 On ch=1 n=a#4 v=0
232280 On ch=1 n=d#5 v=97
232280 On ch=1 n=g5 v=97
232280 On ch=1 n=a#5 v=97
232280 On ch=1 n=d#6 v=97
232280 On ch=3 n=d#3 v=97
232280 On ch=3 n=d#4 v=97
232352 On ch=3 n=d#4 v=0
232352 On ch=3 n=d#3 v=0
232424 On ch=3 n=d3 v=97
232424 On ch=3 n=d4 v=97
232496 On ch=3 n=d4 v=0
232496 On ch=3 n=d3 v=0
232568 On ch=1 n=d#6 v=0
232568 On ch=1 n=a#5 v=0
232568 On ch=1 n=g5 v=0
232568 On ch=1 n=d#5 v=0
232568 On ch=1 n=g5 v=98
232568 On ch=1 n=a#5 v=98
232568 On ch=1 n=d#6 v=98
232568 On ch=1 n=g6 v=98
232568 On ch=3 n=c3 v=98
232568 On ch=3 n=c4 v=98
232640 On ch=3 n=c4 v=0
232640 On ch=3 n=c3 v=0
232712 On ch=3 n=a#2 v=99
232712 On ch=3 n=a#3 v=99
232784 On ch=3 n=a#3 v=0
232784 On ch=3 n=a#2 v=0
232856 On ch=1 n=g6 v=0
232856 On ch=1 n=d#6 v=0
232856 On ch=1 n=a#5 v=0
232856 On ch=1 n=g5 v=0
232856 On ch=2 n=a#5 v=0
232856 On ch=2 n=g5 v=0
232856 On ch=1 n=a#5 v=100
232856 On ch=1 n=g6 v=100
232856 On ch=1 n=a#6 v=100
232856 On ch=3 n=d#3 v=100
232856 On ch=3 n=d#4 v=100
232928 On ch=3 n=d#4 v=0
232928 On ch=3 n=d#3 v=0
233000 On ch=3 n=d3 v=101
233000 On ch=3 n=d4 v=101
233072 On ch=3 n=d4 v=0
233072 On ch=3 n=d3 v=0
233144 On ch=3 n=c3 v=102
233144 On ch=3 n=c4 v=102
233216 On ch=3 n=c4 v=0
233216 On ch=3 n=c3 v=0
233288 On ch=1 n=a#6 v=0
233288 On ch=1 n=g6 v=0
233288 On ch=1 n=a#5 v=0
233288 On ch=1 n=d#6 v=102
233288 On ch=1 n=g6 v=102
233288 On ch=1 n=d#7 v=102
233288 On ch=3 n=a#2 v=102
233288 On ch=3 n=a#3 v=102
233360 On ch=3 n=a#3 v=0
233360 On ch=3 n=a#2 v=0
233360 On ch=1 n=d#7 v=0
233360 On ch=1 n=g6 v=0
233360 On ch=1 n=d#6 v=0
233432 On ch=1 n=d#6 v=103
233432 On ch=1 n=g6 v=103
233432 On ch=1 n=d#7 v=103
233432 On ch=3 n=d#3 v=103
233432 On ch=3 n=d#4 v=103
233504 On ch=3 n=d#4 v=0
233504 On ch=3 n=d#3 v=0
233580 On ch=3 n=d3 v=104
233580 On ch=3 n=d4 v=104
233652 On ch=3 n=d4 v=0
233652 On ch=3 n=d3 v=0
233652 On ch=1 n=d#7 v=0
233652 On ch=1 n=g6 v=0
233652 On ch=1 n=d#6 v=0
233724 On ch=3 n=c3 v=105
233724 On ch=3 n=c4 v=105
233796 On ch=3 n=c4 v=0
233796 On ch=3 n=c3 v=0
233868 On ch=1 n=g5 v=106
233868 On ch=1 n=d#6 v=106
233868 On ch=1 n=g6 v=106
233868 On ch=3 n=a#2 v=106
233868 On ch=3 n=a#3 v=106
233940 On ch=3 n=a#3 v=0
233940 On ch=3 n=a#2 v=0
233940 On ch=1 n=g6 v=0
233940 On ch=1 n=d#6 v=0
233940 On ch=1 n=g5 v=0
234012 On ch=1 n=g5 v=107
234012 On ch=1 n=d#6 v=107
234012 On ch=1 n=g6 v=107
234012 On ch=3 n=d#3 v=107
234012 On ch=3 n=d#4 v=107
234084 On ch=3 n=d#4 v=0
234084 On ch=3 n=d#3 v=0
234156 On ch=1 n=g6 v=0
234156 On ch=1 n=d#6 v=0
234156 On ch=1 n=g5 v=0
234156 On ch=3 n=d3 v=107
234156 On ch=3 n=d4 v=107
234228 On ch=3 n=d4 v=0
234228 On ch=3 n=d3 v=0
234300 On ch=1 n=c6 v=108
234300 On ch=1 n=g6 v=108
234300 On ch=1 n=c7 v=108
234300 On ch=3 n=c3 v=108
234300 On ch=3 n=c4 v=108
234372 On ch=3 n=c4 v=0
234372 On ch=3 n=c3 v=0
234444 On ch=1 n=c7 v=0
234444 On ch=1 n=g6 v=0
234444 On ch=1 n=c6 v=0
234444 On ch=3 n=a#2 v=109
234444 On ch=3 n=a#3 v=109
234516 On ch=3 n=a#3 v=0
234516 On ch=3 n=a#2 v=0
234588 On ch=1 n=a#5 v=110
234588 On ch=1 n=g6 v=110
234588 On ch=1 n=a#6 v=110
234588 On ch=3 n=d#3 v=110
234588 On ch=3 n=d#4 v=110
234660 On ch=3 n=d#4 v=0
234660 On ch=3 n=d#3 v=0
234732 On ch=3 n=d3 v=111
234732 On ch=3 n=d4 v=111
234804 On ch=3 n=d4 v=0
234804 On ch=3 n=d3 v=0
234876 On ch=3 n=c3 v=112
234876 On ch=3 n=c4 v=112
234948 On ch=3 n=c4 v=0
234948 On ch=3 n=c3 v=0
235020 On ch=3 n=a#2 v=112
235020 On ch=3 n=a#3 v=112
235092 On ch=3 n=a#3 v=0
235092 On ch=3 n=a#2 v=0
235164 On ch=1 n=a#6 v=0
235164 On ch=1 n=g6 v=0
235164 On ch=1 n=a#5 v=0
235164 On ch=3 n=d#3 v=113
235164 On ch=3 n=d#4 v=113
235236 On ch=3 n=d#4 v=0
235236 On ch=3 n=d#3 v=0
235308 On ch=3 n=d3 v=114
235308 On ch=3 n=d4 v=114
235380 On ch=3 n=d4 v=0
235380 On ch=3 n=d3 v=0
235452 On ch=1 n=a#4 v=115
235452 On ch=1 n=a#5 v=115
235452 On ch=3 n=c3 v=115
235452 On ch=3 n=c4 v=115
235524 On ch=3 n=c4 v=0
235524 On ch=3 n=c3 v=0
235524 On ch=1 n=a#5 v=0
235524 On ch=1 n=a#4 v=0
235596 On ch=1 n=a#4 v=116
235596 On ch=1 n=a#5 v=116
235596 On ch=3 n=a#2 v=116
235596 On ch=3 n=a#3 v=116
235668 On ch=3 n=a#3 v=0
235668 On ch=3 n=a#2 v=0
235668 On ch=1 n=a#5 v=0
235668 On ch=1 n=a#4 v=0
235740 On ch=1 n=a#4 v=117
235740 On ch=1 n=g#5 v=117
235740 On ch=1 n=a#5 v=117
235740 On ch=3 n=d#3 v=117
235740 On ch=3 n=d#4 v=117
235812 On ch=3 n=d#4 v=0
235812 On ch=3 n=d#3 v=0
235884 On ch=1 n=a#5 v=0
235884 On ch=1 n=g#5 v=0
235884 On ch=1 n=a#4 v=0
235884 On ch=3 n=d3 v=117
235884 On ch=3 n=d4 v=117
235956 On ch=3 n=d4 v=0
235956 On ch=3 n=d3 v=0
236028 On ch=1 n=f5 v=118
236028 On ch=1 n=g#5 v=118
236028 On ch=1 n=a#5 v=118
236028 On ch=1 n=f6 v=118
236028 On ch=3 n=c3 v=118
236028 On ch=3 n=c4 v=118
236104 On ch=3 n=c4 v=0
236104 On ch=3 n=c3 v=0
236176 On ch=1 n=f6 v=0
236176 On ch=1 n=a#5 v=0
236176 On ch=1 n=g#5 v=0
236176 On ch=1 n=f5 v=0
236176 On ch=3 n=a#2 v=119
236176 On ch=3 n=a#3 v=119
236248 On ch=3 n=a#3 v=0
236248 On ch=3 n=a#2 v=0
236320 Par ch=1 c=64 v=127
236320 On ch=1 n=d#5 v=100
236320 On ch=1 n=g5 v=100
236320 On ch=1 n=d#6 v=100
236320 Par ch=2 c=64 v=127
236320 Par ch=3 c=64 v=127
236320 On ch=3 n=d#3 v=100
236320 On ch=3 n=d#4 v=100
236468 On ch=3 n=d#4 v=0
236468 On ch=3 n=d#3 v=0
236468 On ch=1 n=d#6 v=0
236468 On ch=1 n=g5 v=0
236468 On ch=1 n=d#5 v=0
236620 On ch=1 n=d#5 v=104
236620 On ch=1 n=d#6 v=104
236620 On ch=3 n=d#3 v=104
236620 On ch=3 n=d#4 v=104
236700 On ch=3 n=d#4 v=0
236700 On ch=3 n=d#3 v=0
236700 On ch=1 n=d#6 v=0
236700 On ch=1 n=d#5 v=0
236784 On ch=1 n=d#5 v=107
236784 On ch=1 n=d#6 v=107
236784 On ch=3 n=d#3 v=107
236784 On ch=3 n=d#4 v=107
236864 On ch=3 n=d#4 v=0
236864 On ch=3 n=d#3 v=0
236864 On ch=1 n=d#6 v=0
236864 On ch=1 n=d#5 v=0
236948 Par ch=1 c=64 v=0
236948 Par ch=1 c=64 v=127
236948 On ch=1 n=d#5 v=109
236948 On ch=1 n=d#6 v=109
236948 Par ch=1 c=64 v=0
236948 Par ch=1 c=64 v=127
236948 Par ch=2 c=64 v=0
236948 Par ch=2 c=64 v=127
236948 Par ch=2 c=64 v=0
236948 Par ch=2 c=64 v=127
236948 Par ch=3 c=64 v=0
236948 Par ch=3 c=64 v=127
236948 Par ch=3 c=64 v=0
236948 Par ch=3 c=64 v=127
236948 On ch=3 n=e3 v=109
236948 On ch=3 n=e4 v=109
237120 On ch=3 n=e4 v=0
237120 On ch=3 n=e3 v=0
237120 On ch=1 n=d#6 v=0
237120 On ch=1 n=d#5 v=0
237292 On ch=1 n=d#5 v=113
237292 On ch=1 n=d#6 v=113
237292 On ch=3 n=e3 v=113
237292 On ch=3 n=e4 v=113
237376 On ch=3 n=e4 v=0
237376 On ch=3 n=e3 v=0
237376 On ch=1 n=d#6 v=0
237376 On ch=1 n=d#5 v=0
237460 On ch=1 n=d#5 v=116
237460 On ch=1 n=d#6 v=116
237460 On ch=3 n=e3 v=116
237460 On ch=3 n=e4 v=116
237544 On ch=3 n=e4 v=0
237544 On ch=3 n=e3 v=0
237544 On ch=1 n=d#6 v=0
237544 On ch=1 n=d#5 v=0
237632 Par ch=1 c=64 v=0
237632 Par ch=1 c=64 v=127
237632 On ch=1 n=d#5 v=118
237632 On ch=1 n=d#6 v=118
237632 Par ch=1 c=64 v=0
237632 Par ch=1 c=64 v=127
237632 Par ch=2 c=64 v=0
237632 Par ch=2 c=64 v=127
237632 Par ch=2 c=64 v=0
237632 Par ch=2 c=64 v=127
237632 Par ch=3 c=64 v=0
237632 Par ch=3 c=64 v=127
237632 Par ch=3 c=64 v=0
237632 Par ch=3 c=64 v=127
237632 On ch=3 n=f3 v=118
237632 On ch=3 n=f4 v=118
237800 On ch=3 n=f4 v=0
237800 On ch=3 n=f3 v=0
237800 On ch=1 n=d#6 v=0
237800 On ch=1 n=d#5 v=0
237972 On ch=1 n=d#5 v=122
237972 On ch=1 n=d#6 v=122
237972 On ch=3 n=f3 v=122
237972 On ch=3 n=f4 v=122
238056 On ch=3 n=f4 v=0
238056 On ch=3 n=f3 v=0
238056 On ch=1 n=d#6 v=0
238056 On ch=1 n=d#5 v=0
238144 On ch=1 n=d#5 v=125
238144 On ch=1 n=d#6 v=125
238144 On ch=3 n=f3 v=125
238144 On ch=3 n=f4 v=125
238228 On ch=3 n=f4 v=0
238228 On ch=3 n=f3 v=0
238228 On ch=1 n=d#6 v=0
238228 On ch=1 n=d#5 v=0
238312 Par ch=1 c=64 v=0
238312 Par ch=1 c=64 v=127
238312 On ch=1 n=d#6 v=100
238312 Par ch=2 c=64 v=0
238312 Par ch=2 c=64 v=127
238312 On ch=2 n=d#5 v=100
238312 Par ch=3 c=64 v=0
238312 Par ch=3 c=64 v=127
238312 On ch=3 n=f#3 v=100
238312 On ch=3 n=f#4 v=100
238652 On ch=3 n=f#4 v=0
238652 On ch=3 n=f#3 v=0
238652 On ch=2 n=d#5 v=0
238652 On ch=2 n=d#5 v=100
238652 On ch=3 n=f#4 v=100
238652 On ch=3 n=c#5 v=100
238740 On ch=3 n=c#5 v=0
238740 On ch=3 n=f#4 v=0
238740 On ch=2 n=d#5 v=0
238824 On ch=2 n=d#5 v=100
238824 On ch=3 n=f#4 v=100
238824 On ch=3 n=c#5 v=100
238908 On ch=3 n=c#5 v=0
238908 On ch=3 n=f#4 v=0
238908 On ch=2 n=d#5 v=0
238996 On ch=1 n=d#6 v=0
238996 On ch=1 n=a#5 v=100
238996 On ch=2 n=d#5 v=100
238996 On ch=3 n=f#4 v=100
238996 On ch=3 n=c#5 v=100
239336 On ch=3 n=c#5 v=0
239336 On ch=3 n=f#4 v=0
239336 On ch=2 n=d#5 v=0
239336 On ch=2 n=d#5 v=100
239336 On ch=3 n=f#4 v=100
239336 On ch=3 n=c#5 v=100
239420 On ch=3 n=c#5 v=0
239420 On ch=3 n=f#4 v=0
239420 On ch=2 n=d#5 v=0
239508 On ch=2 n=d#5 v=100
239508 On ch=3 n=f#4 v=100
239508 On ch=3 n=c#5 v=100
239592 On ch=3 n=c#5 v=0
239592 On ch=3 n=f#4 v=0
239592 On ch=2 n=d#5 v=0
239676 On ch=1 n=a#5 v=0
239676 Par ch=1 c=64 v=0
239676 Par ch=1 c=64 v=127
239676 On ch=1 n=c6 v=100
239676 Par ch=1 c=64 v=0
239676 Par ch=1 c=64 v=127
239676 Par ch=1 c=64 v=0
239676 Par ch=1 c=64 v=127
239676 Par ch=2 c=64 v=0
239676 Par ch=2 c=64 v=127
239676 Par ch=2 c=64 v=0
239676 Par ch=2 c=64 v=127
239676 On ch=2 n=c5 v=100
239676 On ch=2 n=f#5 v=100
239676 Par ch=2 c=64 v=0
239676 Par ch=2 c=64 v=127
239676 Par ch=3 c=64 v=0
239676 Par ch=3 c=64 v=127
239676 Par ch=3 c=64 v=0
239676 Par ch=3 c=64 v=127
239676 Par ch=3 c=64 v=0
239676 Par ch=3 c=64 v=127
239676 On ch=3 n=g#3 v=100
239676 On ch=3 n=d#4 v=100
239676 On ch=3 n=g#4 v=100
240016 On ch=3 n=g#4 v=0
240016 On ch=3 n=d#4 v=0
240016 On ch=3 n=g#3 v=0
240016 On ch=2 n=f#5 v=0
240016 On ch=2 n=c5 v=0
240016 On ch=1 n=c6 v=0
240016 On ch=1 n=f6 v=100
240016 On ch=2 n=f#5 v=100
240016 On ch=3 n=d#4 v=100
240016 On ch=3 n=g#4 v=100
240016 On ch=3 n=c5 v=100
240104 On ch=3 n=c5 v=0
240104 On ch=3 n=g#4 v=0
240104 On ch=3 n=d#4 v=0
240104 On ch=2 n=f#5 v=0
240188 On ch=1 n=f6 v=0
240188 On ch=1 n=d#6 v=100
240188 On ch=2 n=f#5 v=100
240188 On ch=3 n=d#4 v=100
240188 On ch=3 n=g#4 v=100
240188 On ch=3 n=c5 v=100
240272 On ch=3 n=c5 v=0
240272 On ch=3 n=g#4 v=0
240272 On ch=3 n=d#4 v=0
240272 On ch=2 n=f#5 v=0
240360 On ch=1 n=d#6 v=0
240360 Par ch=1 c=64 v=0
240360 Par ch=1 c=64 v=127
240360 On ch=1 n=d#6 v=100
240360 Par ch=1 c=64 v=0
240360 Par ch=1 c=64 v=127
240360 Par ch=1 c=64 v=0
240360 Par ch=1 c=64 v=127
240360 Par ch=2 c=64 v=0
240360 Par ch=2 c=64 v=127
240360 Par ch=2 c=64 v=0
240360 Par ch=2 c=64 v=127
240360 On ch=2 n=f5 v=100
240360 Par ch=2 c=64 v=0
240360 Par ch=2 c=64 v=127
240360 Par ch=3 c=64 v=0
240360 Par ch=3 c=64 v=127
240360 Par ch=3 c=64 v=0
240360 Par ch=3 c=64 v=127
240360 Par ch=3 c=64 v=0
240360 Par ch=3 c=64 v=127
240360 On ch=3 n=c#4 v=100
240360 On ch=3 n=g#4 v=100
240360 On ch=3 n=c5 v=100
240528 On ch=1 n=d#6 v=0
240528 On ch=1 n=c#6 v=100
240700 On ch=1 n=c#6 v=0
240700 On ch=3 n=c5 v=0
240700 On ch=3 n=g#4 v=0
240700 On ch=3 n=c#4 v=0
240700 On ch=2 n=f5 v=0
240700 Par ch=1 c=64 v=0
240700 On ch=1 n=c#6 v=100
240700 Par ch=2 c=64 v=0
240700 On ch=2 n=f5 v=100
240700 Par ch=3 c=64 v=0
240700 On ch=3 n=c#4 v=100
240700 On ch=3 n=g#4 v=100
240700 On ch=3 n=c#5 v=100
240784 On ch=3 n=c#5 v=0
240784 On ch=3 n=g#4 v=0
240784 On ch=3 n=c#4 v=0
240784 On ch=2 n=f5 v=0
240784 On ch=1 n=c#6 v=0
240868 On ch=1 n=c6 v=100
240868 On ch=2 n=f5 v=100
240868 On ch=3 n=c#4 v=100
240868 On ch=3 n=g#4 v=100
240868 On ch=3 n=c#5 v=100
240956 On ch=3 n=c#5 v=0
240956 On ch=3 n=g#4 v=0
240956 On ch=3 n=c#4 v=0
240956 On ch=2 n=f5 v=0
240956 On ch=1 n=c6 v=0
241040 Par ch=1 c=64 v=127
241040 On ch=1 n=a#5 v=100
241040 Par ch=2 c=64 v=127
241040 On ch=2 n=f5 v=100
241040 Par ch=3 c=64 v=127
241040 On ch=3 n=c#4 v=100
241040 On ch=3 n=g4 v=100
241040 On ch=3 n=c#5 v=100
241380 On ch=3 n=c#5 v=0
241380 On ch=3 n=g4 v=0
241380 On ch=3 n=c#4 v=0
241380 On ch=2 n=f5 v=0
241380 On ch=2 n=f5 v=100
241380 On ch=3 n=c#4 v=100
241380 On ch=3 n=g4 v=100
241380 On ch=3 n=c#5 v=100
241468 On ch=3 n=c#5 v=0
241468 On ch=3 n=g4 v=0
241468 On ch=3 n=c#4 v=0
241468 On ch=2 n=f5 v=0
241552 On ch=2 n=f5 v=100
241552 On ch=3 n=c#4 v=100
241552 On ch=3 n=g4 v=100
241552 On ch=3 n=c#5 v=100
241636 On ch=3 n=c#5 v=0
241636 On ch=3 n=g4 v=0
241636 On ch=3 n=c#4 v=0
241636 On ch=2 n=f5 v=0
241724 On ch=1 n=a#5 v=0
241724 Par ch=1 c=64 v=0
241724 Par ch=1 c=64 v=127
241724 On ch=1 n=c6 v=100
241724 Par ch=1 c=64 v=0
241724 Par ch=1 c=64 v=127
241724 Par ch=1 c=64 v=0
241724 Par ch=1 c=64 v=127
241724 Par ch=2 c=64 v=0
241724 Par ch=2 c=64 v=127
241724 Par ch=2 c=64 v=0
241724 Par ch=2 c=64 v=127
241724 On ch=2 n=c5 v=100
241724 On ch=2 n=e5 v=100
241724 Par ch=2 c=64 v=0
241724 Par ch=2 c=64 v=127
241724 Par ch=3 c=64 v=0
241724 Par ch=3 c=64 v=127
241724 Par ch=3 c=64 v=0
241724 Par ch=3 c=64 v=127
241724 Par ch=3 c=64 v=0
241724 Par ch=3 c=64 v=127
241724 On ch=3 n=c4 v=100
241724 On ch=3 n=g4 v=100
241724 On ch=3 n=a#4 v=100
242064 On ch=3 n=a#4 v=0
242064 On ch=3 n=g4 v=0
242064 On ch=3 n=c4 v=0
242064 On ch=2 n=e5 v=0
242064 On ch=2 n=c5 v=0
242064 On ch=2 n=c5 v=100
242064 On ch=2 n=e5 v=100
242064 On ch=3 n=c4 v=100
242064 On ch=3 n=g4 v=100
242064 On ch=3 n=a#4 v=100
242148 On ch=3 n=a#4 v=0
242148 On ch=3 n=g4 v=0
242148 On ch=3 n=c4 v=0
242148 On ch=2 n=e5 v=0
242148 On ch=2 n=c5 v=0
242232 On ch=2 n=c5 v=100
242232 On ch=2 n=e5 v=100
242232 On ch=3 n=c4 v=100
242232 On ch=3 n=g4 v=100
242232 On ch=3 n=a#4 v=100
242320 On ch=3 n=a#4 v=0
242320 On ch=3 n=g4 v=0
242320 On ch=3 n=c4 v=0
242320 On ch=2 n=e5 v=0
242320 On ch=2 n=c5 v=0
242404 On ch=1 n=c6 v=0
242404 Par ch=1 c=64 v=0
242404 Par ch=1 c=64 v=127
242404 On ch=1 n=a#5 v=100
242404 Par ch=2 c=64 v=0
242404 Par ch=2 c=64 v=127
242404 On ch=2 n=c5 v=100
242404 On ch=2 n=f5 v=100
242404 Par ch=3 c=64 v=0
242404 Par ch=3 c=64 v=127
242404 On ch=3 n=f4 v=100
242404 On ch=3 n=g#4 v=100
242576 On ch=1 n=a#5 v=0
242576 On ch=1 n=g#5 v=100
242744 On ch=1 n=g#5 v=0
242744 On ch=3 n=g#4 v=0
242744 On ch=3 n=f4 v=0
242744 On ch=2 n=f5 v=0
242744 On ch=2 n=c5 v=0
242744 Par ch=1 c=64 v=0
242744 On ch=1 n=g#5 v=100
242744 Par ch=2 c=64 v=0
242744 On ch=2 n=c5 v=100
242744 Par ch=3 c=64 v=0
242744 On ch=3 n=f4 v=100
242744 On ch=3 n=g#4 v=100
242832 On ch=3 n=g#4 v=0
242832 On ch=3 n=f4 v=0
242832 On ch=2 n=c5 v=0
242832 On ch=1 n=g#5 v=0
242916 On ch=1 n=g5 v=100
242916 On ch=2 n=c5 v=100
242916 On ch=3 n=d#4 v=100
242916 On ch=3 n=g#4 v=100
243000 On ch=3 n=g#4 v=0
243000 On ch=3 n=d#4 v=0
243000 On ch=2 n=c5 v=0
243000 On ch=1 n=g5 v=0
243084 Par ch=1 c=64 v=127
243084 On ch=1 n=f5 v=100
243084 Par ch=2 c=64 v=127
243084 On ch=2 n=c5 v=100
243084 Par ch=3 c=64 v=127
243084 On ch=3 n=d4 v=100
243084 On ch=3 n=g#4 v=100
243428 On ch=3 n=g#4 v=0
243428 On ch=3 n=d4 v=0
243428 On ch=2 n=c5 v=0
243428 On ch=2 n=c5 v=100
243428 On ch=2 n=d5 v=100
243428 On ch=3 n=d4 v=100
243428 On ch=3 n=g#4 v=100
243512 On ch=3 n=g#4 v=0
243512 On ch=3 n=d4 v=0
243512 On ch=2 n=d5 v=0
243512 On ch=2 n=c5 v=0
243596 On ch=2 n=c5 v=100
243596 On ch=2 n=d5 v=100
243596 On ch=3 n=d4 v=100
243596 On ch=3 n=g#4 v=100
243684 On ch=3 n=g#4 v=0
243684 On ch=3 n=d4 v=0
243684 On ch=2 n=d5 v=0
243684 On ch=2 n=c5 v=0
243768 On ch=1 n=f5 v=0
243768 Par ch=1 c=64 v=0
243768 Par ch=1 c=64 v=127
243768 On ch=1 n=g5 v=100
243768 Par ch=1 c=64 v=0
243768 Par ch=1 c=64 v=127
243768 Par ch=1 c=64 v=0
243768 Par ch=1 c=64 v=127
243768 Par ch=2 c=64 v=0
243768 Par ch=2 c=64 v=127
243768 Par ch=2 c=64 v=0
243768 Par ch=2 c=64 v=127
243768 On ch=2 n=b4 v=100
243768 On ch=2 n=d5 v=100
243768 Par ch=2 c=64 v=0
243768 Par ch=2 c=64 v=127
243768 Par ch=3 c=64 v=0
243768 Par ch=3 c=64 v=127
243768 Par ch=3 c=64 v=0
243768 Par ch=3 c=64 v=127
243768 Par ch=3 c=64 v=0
243768 Par ch=3 c=64 v=127
243768 On ch=3 n=g3 v=100
243768 On ch=3 n=d4 v=100
243768 On ch=3 n=g4 v=100
244108 On ch=3 n=g4 v=0
244108 On ch=3 n=d4 v=0
244108 On ch=3 n=g3 v=0
244108 On ch=2 n=d5 v=0
244108 On ch=2 n=b4 v=0
244108 On ch=2 n=b4 v=100
244108 On ch=2 n=d5 v=100
244108 On ch=3 n=g3 v=100
244108 On ch=3 n=d4 v=100
244108 On ch=3 n=g4 v=100
244192 On ch=3 n=g4 v=0
244192 On ch=3 n=d4 v=0
244192 On ch=3 n=g3 v=0
244192 On ch=2 n=d5 v=0
244192 On ch=2 n=b4 v=0
244280 On ch=2 n=b4 v=100
244280 On ch=2 n=d5 v=100
244280 On ch=3 n=g3 v=100
244280 On ch=3 n=d4 v=100
244280 On ch=3 n=g4 v=100
244364 On ch=3 n=g4 v=0
244364 On ch=3 n=d4 v=0
244364 On ch=3 n=g3 v=0
244364 On ch=2 n=d5 v=0
244364 On ch=2 n=b4 v=0
244448 On ch=1 n=g5 v=0
244448 Par ch=1 c=64 v=0
244448 Par ch=1 c=64 v=127
244448 On ch=1 n=d#5 v=100
244448 Par ch=1 c=64 v=0
244448 Par ch=1 c=64 v=127
244448 Par ch=1 c=64 v=0
244448 Par ch=1 c=64 v=127
244448 Par ch=2 c=64 v=0
244448 Par ch=2 c=64 v=127
244448 Par ch=2 c=64 v=0
244448 Par ch=2 c=64 v=127
244448 On ch=2 n=c5 v=100
244448 Par ch=2 c=64 v=0
244448 Par ch=2 c=64 v=127
244448 Par ch=3 c=64 v=0
244448 Par ch=3 c=64 v=127
244448 Par ch=3 c=64 v=0
244448 Par ch=3 c=64 v=127
244448 Par ch=3 c=64 v=0
244448 Par ch=3 c=64 v=127
244448 On ch=3 n=c4 v=100
244448 On ch=3 n=g4 v=100
244492 On ch=1 n=d#5 v=0
244492 On ch=1 n=f5 v=100
244536 On ch=1 n=f5 v=0
244536 On ch=1 n=d#5 v=100
244792 On ch=1 n=d#5 v=0
244792 On ch=3 n=g4 v=0
244792 On ch=3 n=c4 v=0
244792 On ch=2 n=c5 v=0
244792 Par ch=1 c=64 v=0
244792 On ch=1 n=d5 v=100
244792 Par ch=2 c=64 v=0
244792 On ch=2 n=b4 v=100
244792 Par ch=3 c=64 v=0
244792 On ch=3 n=c4 v=100
244792 On ch=3 n=g4 v=100
244876 On ch=3 n=g4 v=0
244876 On ch=3 n=c4 v=0
244960 On ch=2 n=b4 v=0
244960 On ch=1 n=d5 v=0
244960 On ch=1 n=d#5 v=100
244960 On ch=2 n=c5 v=100
244960 On ch=3 n=c4 v=100
244960 On ch=3 n=g4 v=100
245044 On ch=3 n=g4 v=0
245044 On ch=3 n=c4 v=0
245132 On ch=2 n=c5 v=0
245132 On ch=1 n=d#5 v=0
245132 Par ch=1 c=64 v=127
245132 On ch=1 n=f5 v=100
245132 Par ch=2 c=64 v=127
245132 On ch=2 n=d5 v=100
245132 Par ch=3 c=64 v=127
245132 On ch=3 n=a#3 v=100
245132 On ch=3 n=g#4 v=100
245172 On ch=1 n=f5 v=0
245172 On ch=1 n=g5 v=100
245216 On ch=1 n=g5 v=0
245216 On ch=1 n=f5 v=100
245472 On ch=1 n=f5 v=0
245472 On ch=3 n=g#4 v=0
245472 On ch=3 n=a#3 v=0
245472 On ch=2 n=d5 v=0
245472 Par ch=1 c=64 v=0
245472 On ch=1 n=d#5 v=100
245472 Par ch=2 c=64 v=0
245472 On ch=2 n=c5 v=100
245472 Par ch=3 c=64 v=0
245472 On ch=3 n=a#3 v=100
245472 On ch=3 n=g#4 v=100
245556 On ch=3 n=g#4 v=0
245556 On ch=3 n=a#3 v=0
245644 On ch=2 n=c5 v=0
245644 On ch=1 n=d#5 v=0
245644 On ch=1 n=f5 v=100
245644 On ch=2 n=d5 v=100
245644 On ch=3 n=a#3 v=100
245644 On ch=3 n=g#4 v=100
245728 On ch=3 n=g#4 v=0
245728 On ch=3 n=a#3 v=0
245812 On ch=2 n=d5 v=0
245812 On ch=1 n=f5 v=0
245812 Par ch=1 c=64 v=127
245812 On ch=1 n=g5 v=100
245812 Par ch=2 c=64 v=127
245812 On ch=2 n=g4 v=100
245812 On ch=2 n=d#5 v=100
245812 Par ch=3 c=64 v=127
245812 On ch=3 n=d#3 v=100
245812 On ch=3 n=a#3 v=100
245812 On ch=3 n=d#4 v=100
246152 On ch=3 n=d#4 v=0
246152 On ch=3 n=a#3 v=0
246152 On ch=3 n=d#3 v=0
246152 On ch=2 n=d#5 v=0
246152 On ch=2 n=g4 v=0
246152 On ch=2 n=g4 v=100
246152 On ch=2 n=d#5 v=100
246152 On ch=3 n=d#3 v=100
246152 On ch=3 n=a#3 v=100
246152 On ch=3 n=d#4 v=100
246240 On ch=3 n=d#4 v=0
246240 On ch=3 n=a#3 v=0
246240 On ch=3 n=d#3 v=0
246240 On ch=2 n=d#5 v=0
246240 On ch=2 n=g4 v=0
246324 On ch=2 n=g4 v=100
246324 On ch=2 n=d#5 v=100
246324 On ch=3 n=d#3 v=100
246324 On ch=3 n=a#3 v=100
246324 On ch=3 n=d#4 v=100
246408 On ch=3 n=d#4 v=0
246408 On ch=3 n=a#3 v=0
246408 On ch=3 n=d#3 v=0
246408 On ch=2 n=d#5 v=0
246408 On ch=2 n=g4 v=0
246496 On ch=1 n=g5 v=0
246496 Par ch=1 c=64 v=0
246496 Par ch=1 c=64 v=127
246496 On ch=1 n=g6 v=100
246496 Par ch=2 c=64 v=0
246496 Par ch=2 c=64 v=127
246496 On ch=2 n=f5 v=100
246496 On ch=2 n=g5 v=100
246496 On ch=2 n=d6 v=100
246496 Par ch=3 c=64 v=0
246496 Par ch=3 c=64 v=127
246496 On ch=3 n=b2 v=100
246496 On ch=3 n=b3 v=100
246836 On ch=3 n=b3 v=0
246836 On ch=3 n=b2 v=0
246836 On ch=2 n=d6 v=0
246836 On ch=2 n=g5 v=0
246836 On ch=2 n=f5 v=0
246836 On ch=2 n=f5 v=100
246836 On ch=2 n=g5 v=100
246836 On ch=3 n=b3 v=100
246836 On ch=3 n=g4 v=100
246836 On ch=3 n=b4 v=100
246920 On ch=3 n=b4 v=0
246920 On ch=3 n=g4 v=0
246920 On ch=3 n=b3 v=0
246920 On ch=2 n=g5 v=0
246920 On ch=2 n=f5 v=0
247008 On ch=2 n=f5 v=100
247008 On ch=2 n=g5 v=100
247008 On ch=3 n=b3 v=100
247008 On ch=3 n=g4 v=100
247008 On ch=3 n=b4 v=100
247092 On ch=3 n=b4 v=0
247092 On ch=3 n=g4 v=0
247092 On ch=3 n=b3 v=0
247092 On ch=2 n=g5 v=0
247092 On ch=2 n=f5 v=0
247176 On ch=1 n=g6 v=0
247176 On ch=1 n=d6 v=100
247176 On ch=2 n=f5 v=100
247176 On ch=2 n=g5 v=100
247176 On ch=3 n=b3 v=100
247176 On ch=3 n=g4 v=100
247176 On ch=3 n=b4 v=100
247516 On ch=3 n=b4 v=0
247516 On ch=3 n=g4 v=0
247516 On ch=3 n=b3 v=0
247516 On ch=2 n=g5 v=0
247516 On ch=2 n=f5 v=0
247516 On ch=2 n=f5 v=100
247516 On ch=2 n=g5 v=100
247516 On ch=3 n=b3 v=100
247516 On ch=3 n=g4 v=100
247516 On ch=3 n=b4 v=100
247604 On ch=3 n=b4 v=0
247604 On ch=3 n=g4 v=0
247604 On ch=3 n=b3 v=0
247604 On ch=2 n=g5 v=0
247604 On ch=2 n=f5 v=0
247688 On ch=2 n=f5 v=100
247688 On ch=2 n=g5 v=100
247688 On ch=3 n=b3 v=100
247688 On ch=3 n=g4 v=100
247688 On ch=3 n=b4 v=100
247772 On ch=3 n=b4 v=0
247772 On ch=3 n=g4 v=0
247772 On ch=3 n=b3 v=0
247772 On ch=2 n=g5 v=0
247772 On ch=2 n=f5 v=0
247860 On ch=1 n=d6 v=0
247860 Par ch=1 c=64 v=0
247860 Par ch=1 c=64 v=127
247860 On ch=1 n=e6 v=100
247860 Par ch=1 c=64 v=0
247860 Par ch=1 c=64 v=127
247860 Par ch=1 c=64 v=0
247860 Par ch=1 c=64 v=127
247860 Par ch=2 c=64 v=0
247860 Par ch=2 c=64 v=127
247860 Par ch=2 c=64 v=0
247860 Par ch=2 c=64 v=127
247860 On ch=2 n=e5 v=100
247860 On ch=2 n=a#5 v=100
247860 On ch=2 n=c6 v=100
247860 Par ch=2 c=64 v=0
247860 Par ch=2 c=64 v=127
247860 Par ch=3 c=64 v=0
247860 Par ch=3 c=64 v=127
247860 Par ch=3 c=64 v=0
247860 Par ch=3 c=64 v=127
247860 Par ch=3 c=64 v=0
247860 Par ch=3 c=64 v=127
247860 On ch=3 n=c4 v=100
247860 On ch=3 n=g4 v=100
247860 On ch=3 n=c5 v=100
248200 On ch=3 n=c5 v=0
248200 On ch=3 n=g4 v=0
248200 On ch=3 n=c4 v=0
248200 On ch=2 n=c6 v=0
248200 On ch=2 n=a#5 v=0
248200 On ch=2 n=e5 v=0
248200 On ch=2 n=e5 v=100
248200 On ch=2 n=a#5 v=100
248200 On ch=2 n=c6 v=100
248200 On ch=3 n=c4 v=100
248200 On ch=3 n=g4 v=100
248200 On ch=3 n=c5 v=100
248284 On ch=3 n=c5 v=0
248284 On ch=3 n=g4 v=0
248284 On ch=3 n=c4 v=0
248284 On ch=2 n=c6 v=0
248284 On ch=2 n=a#5 v=0
248284 On ch=2 n=e5 v=0
248368 On ch=2 n=e5 v=100
248368 On ch=2 n=a#5 v=100
248368 On ch=2 n=c6 v=100
248368 On ch=3 n=c4 v=100
248368 On ch=3 n=g4 v=100
248368 On ch=3 n=c5 v=100
248456 On ch=3 n=c5 v=0
248456 On ch=3 n=g4 v=0
248456 On ch=3 n=c4 v=0
248456 On ch=2 n=c6 v=0
248456 On ch=2 n=a#5 v=0
248456 On ch=2 n=e5 v=0
248540 On ch=1 n=e6 v=0
248540 Par ch=1 c=64 v=0
248540 Par ch=1 c=64 v=127
248540 On ch=1 n=g6 v=100
248540 Par ch=1 c=64 v=0
248540 Par ch=1 c=64 v=127
248540 Par ch=1 c=64 v=0
248540 Par ch=1 c=64 v=127
248540 Par ch=2 c=64 v=0
248540 Par ch=2 c=64 v=127
248540 Par ch=2 c=64 v=0
248540 Par ch=2 c=64 v=127
248540 On ch=2 n=g#5 v=100
248540 On ch=2 n=c6 v=100
248540 Par ch=2 c=64 v=0
248540 Par ch=2 c=64 v=127
248540 Par ch=3 c=64 v=0
248540 Par ch=3 c=64 v=127
248540 Par ch=3 c=64 v=0
248540 Par ch=3 c=64 v=127
248540 Par ch=3 c=64 v=0
248540 Par ch=3 c=64 v=127
248540 On ch=3 n=f4 v=100
248540 On ch=3 n=c5 v=100
248540 On ch=3 n=e5 v=100
248712 On ch=1 n=g6 v=0
248712 On ch=1 n=f6 v=100
248880 On ch=1 n=f6 v=0
248880 On ch=3 n=e5 v=0
248880 On ch=3 n=c5 v=0
248880 On ch=3 n=f4 v=0
248880 On ch=2 n=c6 v=0
248880 On ch=2 n=g#5 v=0
248880 Par ch=1 c=64 v=0
248880 On ch=1 n=f6 v=100
248880 Par ch=2 c=64 v=0
248880 On ch=2 n=g#5 v=100
248880 On ch=2 n=c6 v=100
248880 Par ch=3 c=64 v=0
248880 On ch=3 n=f4 v=100
248880 On ch=3 n=c5 v=100
248880 On ch=3 n=f5 v=100
248968 On ch=3 n=f5 v=0
248968 On ch=3 n=c5 v=0
248968 On ch=3 n=f4 v=0
248968 On ch=2 n=c6 v=0
248968 On ch=2 n=g#5 v=0
248968 On ch=1 n=f6 v=0
249052 On ch=1 n=d#6 v=100
249052 On ch=2 n=g#5 v=100
249052 On ch=2 n=c6 v=100
249052 On ch=3 n=f4 v=100
249052 On ch=3 n=c5 v=100
249052 On ch=3 n=f5 v=100
249136 On ch=3 n=f5 v=0
249136 On ch=3 n=c5 v=0
249136 On ch=3 n=f4 v=0
249136 On ch=2 n=c6 v=0
249136 On ch=2 n=g#5 v=0
249136 On ch=1 n=d#6 v=0
249224 Par ch=1 c=64 v=127
249224 On ch=1 n=d6 v=100
249224 Par ch=2 c=64 v=127
249224 On ch=2 n=f5 v=100
249224 On ch=2 n=g#5 v=100
249224 On ch=2 n=c6 v=100
249224 Par ch=3 c=64 v=127
249224 On ch=3 n=f4 v=100
249224 On ch=3 n=c5 v=100
249224 On ch=3 n=d5 v=100
249564 On ch=3 n=d5 v=0
249564 On ch=3 n=c5 v=0
249564 On ch=3 n=f4 v=0
249564 On ch=2 n=c6 v=0
249564 On ch=2 n=g#5 v=0
249564 On ch=2 n=f5 v=0
249564 On ch=2 n=f5 v=100
249564 On ch=2 n=g#5 v=100
249564 On ch=2 n=c6 v=100
249564 On ch=3 n=f4 v=100
249564 On ch=3 n=c5 v=100
249564 On ch=3 n=d5 v=100
249648 On ch=3 n=d5 v=0
249648 On ch=3 n=c5 v=0
249648 On ch=3 n=f4 v=0
249648 On ch=2 n=c6 v=0
249648 On ch=2 n=g#5 v=0
249648 On ch=2 n=f5 v=0
249732 On ch=2 n=f5 v=100
249732 On ch=2 n=g#5 v=100
249732 On ch=2 n=c6 v=100
249732 On ch=3 n=f4 v=100
249732 On ch=3 n=c5 v=100
249732 On ch=3 n=d5 v=100
249820 On ch=3 n=d5 v=0
249820 On ch=3 n=c5 v=0
249820 On ch=3 n=f4 v=0
249820 On ch=2 n=c6 v=0
249820 On ch=2 n=g#5 v=0
249820 On ch=2 n=f5 v=0
249904 On ch=1 n=d6 v=0
249904 Par ch=1 c=64 v=0
249904 Par ch=1 c=64 v=127
249904 On ch=1 n=e6 v=100
249904 Par ch=1 c=64 v=0
249904 Par ch=1 c=64 v=127
249904 Par ch=1 c=64 v=0
249904 Par ch=1 c=64 v=127
249904 Par ch=2 c=64 v=0
249904 Par ch=2 c=64 v=127
249904 Par ch=2 c=64 v=0
249904 Par ch=2 c=64 v=127
249904 On ch=2 n=a#5 v=100
249904 On ch=2 n=c6 v=100
249904 Par ch=2 c=64 v=0
249904 Par ch=2 c=64 v=127
249904 Par ch=3 c=64 v=0
249904 Par ch=3 c=64 v=127
249904 Par ch=3 c=64 v=0
249904 Par ch=3 c=64 v=127
249904 Par ch=3 c=64 v=0
249904 Par ch=3 c=64 v=127
249904 On ch=3 n=g4 v=100
249904 On ch=3 n=c5 v=100
249904 On ch=3 n=e5 v=100
250244 On ch=3 n=e5 v=0
250244 On ch=3 n=c5 v=0
250244 On ch=3 n=g4 v=0
250244 On ch=2 n=c6 v=0
250244 On ch=2 n=a#5 v=0
250244 On ch=2 n=a#5 v=100
250244 On ch=2 n=c6 v=100
250244 On ch=3 n=g4 v=100
250244 On ch=3 n=c5 v=100
250244 On ch=3 n=e5 v=100
250332 On ch=3 n=e5 v=0
250332 On ch=3 n=c5 v=0
250332 On ch=3 n=g4 v=0
250332 On ch=2 n=c6 v=0
250332 On ch=2 n=a#5 v=0
250416 On ch=2 n=a#5 v=100
250416 On ch=2 n=c6 v=100
250416 On ch=3 n=g4 v=100
250416 On ch=3 n=c5 v=100
250416 On ch=3 n=e5 v=100
250500 On ch=3 n=e5 v=0
250500 On ch=3 n=c5 v=0
250500 On ch=3 n=g4 v=0
250500 On ch=2 n=c6 v=0
250500 On ch=2 n=a#5 v=0
250584 On ch=1 n=e6 v=0
250584 Par ch=1 c=64 v=0
250584 Par ch=1 c=64 v=127
250584 On ch=1 n=g6 v=100
250584 Par ch=2 c=64 v=0
250584 Par ch=2 c=64 v=127
250584 On ch=2 n=g#5 v=100
250584 On ch=2 n=c6 v=100
250584 Par ch=3 c=64 v=0
250584 Par ch=3 c=64 v=127
250584 On ch=3 n=g#4 v=100
250584 On ch=3 n=c5 v=100
250584 On ch=3 n=e5 v=100
250756 On ch=1 n=g6 v=0
250756 On ch=1 n=f6 v=100
250928 On ch=1 n=f6 v=0
250928 On ch=3 n=e5 v=0
250928 On ch=3 n=c5 v=0
250928 On ch=3 n=g#4 v=0
250928 On ch=2 n=c6 v=0
250928 On ch=2 n=g#5 v=0
250928 Par ch=1 c=64 v=0
250928 On ch=1 n=f6 v=100
250928 Par ch=2 c=64 v=0
250928 On ch=2 n=g#5 v=100
250928 On ch=2 n=c6 v=100
250928 Par ch=3 c=64 v=0
250928 On ch=3 n=g#4 v=100
250928 On ch=3 n=d5 v=100
250928 On ch=3 n=f5 v=100
251016 On ch=3 n=f5 v=0
251016 On ch=3 n=d5 v=0
251016 On ch=3 n=g#4 v=0
251016 On ch=2 n=c6 v=0
251016 On ch=2 n=g#5 v=0
251016 On ch=1 n=f6 v=0
251104 On ch=1 n=d#6 v=100
251104 On ch=2 n=g#5 v=100
251104 On ch=2 n=c6 v=100
251104 On ch=3 n=g#4 v=100
251104 On ch=3 n=d5 v=100
251104 On ch=3 n=f5 v=100
251196 On ch=3 n=f5 v=0
251196 On ch=3 n=d5 v=0
251196 On ch=3 n=g#4 v=0
251196 On ch=2 n=c6 v=0
251196 On ch=2 n=g#5 v=0
251196 On ch=1 n=d#6 v=0
251284 Par ch=1 c=64 v=127
251284 On ch=1 n=d#6 v=100
251284 Par ch=2 c=64 v=127
251284 On ch=2 n=g#5 v=100
251284 Par ch=3 c=64 v=127
251284 On ch=3 n=f4 v=100
251284 On ch=3 n=c5 v=100
251284 On ch=3 n=f5 v=100
251464 On ch=1 n=d#6 v=0
251464 On ch=1 n=d6 v=100
251648 On ch=1 n=d6 v=0
251648 On ch=3 n=f5 v=0
251648 On ch=3 n=c5 v=0
251648 On ch=3 n=f4 v=0
251648 On ch=2 n=g#5 v=0
251648 Par ch=1 c=64 v=0
251648 On ch=1 n=d6 v=100
251648 Par ch=2 c=64 v=0
251648 On ch=2 n=f5 v=100
251648 On ch=2 n=g#5 v=100
251648 Par ch=3 c=64 v=0
251648 On ch=3 n=f4 v=100
251648 On ch=3 n=c5 v=100
251740 On ch=3 n=c5 v=0
251740 On ch=3 n=f4 v=0
251740 On ch=2 n=g#5 v=0
251740 On ch=2 n=f5 v=0
251740 On ch=1 n=d6 v=0
251832 On ch=1 n=c6 v=100
251832 On ch=2 n=f5 v=100
251832 On ch=2 n=g#5 v=100
251832 On ch=3 n=f4 v=100
251832 On ch=3 n=c5 v=100
251924 On ch=3 n=c5 v=0
251924 On ch=3 n=f4 v=0
251924 On ch=2 n=g#5 v=0
251924 On ch=2 n=f5 v=0
251924 On ch=1 n=c6 v=0
252020 Par ch=1 c=64 v=127
252020 On ch=1 n=c6 v=100
252020 Par ch=2 c=64 v=127
252020 On ch=2 n=f5 v=100
252020 Par ch=3 c=64 v=127
252020 On ch=3 n=d4 v=100
252020 On ch=3 n=g#4 v=100
252020 On ch=3 n=c5 v=100
252208 On ch=1 n=c6 v=0
252208 On ch=1 n=a#5 v=100
252400 On ch=1 n=a#5 v=0
252400 On ch=3 n=c5 v=0
252400 On ch=3 n=g#4 v=0
252400 On ch=3 n=d4 v=0
252400 On ch=2 n=f5 v=0
252400 Par ch=1 c=64 v=0
252400 On ch=1 n=a#5 v=100
252400 Par ch=2 c=64 v=0
252400 On ch=2 n=d5 v=100
252400 On ch=2 n=f5 v=100
252400 Par ch=3 c=64 v=0
252400 On ch=3 n=d4 v=100
252400 On ch=3 n=g4 v=100
252400 On ch=3 n=c5 v=100
252496 On ch=3 n=c5 v=0
252496 On ch=3 n=g4 v=0
252496 On ch=3 n=d4 v=0
252496 On ch=2 n=f5 v=0
252496 On ch=2 n=d5 v=0
252496 On ch=1 n=a#5 v=0
252596 On ch=1 n=g#5 v=100
252596 On ch=2 n=d5 v=100
252596 On ch=2 n=f5 v=100
252596 On ch=3 n=d4 v=100
252596 On ch=3 n=f4 v=100
252596 On ch=3 n=c5 v=100
252692 On ch=3 n=c5 v=0
252692 On ch=3 n=f4 v=0
252692 On ch=3 n=d4 v=0
252692 On ch=2 n=f5 v=0
252692 On ch=2 n=d5 v=0
252692 On ch=1 n=g#5 v=0
252792 Par ch=1 c=64 v=127
252792 On ch=1 n=g5 v=100
252792 Par ch=2 c=64 v=127
252792 On ch=2 n=b4 v=100
252792 On ch=2 n=d5 v=100
252792 Par ch=3 c=64 v=127
252792 On ch=3 n=g3 v=100
252792 On ch=3 n=d4 v=100
252792 On ch=3 n=g4 v=100
253000 On ch=3 n=g4 v=0
253000 On ch=3 n=d4 v=0
253000 On ch=3 n=g3 v=0
253000 On ch=2 n=d5 v=0
253000 On ch=2 n=b4 v=0
253000 On ch=1 n=g5 v=0
253224 On ch=1 n=g5 v=100
253224 On ch=2 n=c5 v=100
253224 On ch=2 n=d#5 v=100
253224 On ch=3 n=g3 v=100
253224 On ch=3 n=c4 v=100
253224 On ch=3 n=g4 v=100
253464 On ch=3 n=g4 v=0
253464 On ch=3 n=c4 v=0
253464 On ch=3 n=g3 v=0
253464 On ch=2 n=d#5 v=0
253464 On ch=2 n=c5 v=0
253464 On ch=1 n=g5 v=0
253464 On ch=1 n=g5 v=100
253464 On ch=2 n=a4 v=100
253464 On ch=2 n=c5 v=100
253464 On ch=3 n=g3 v=100
253464 On ch=3 n=d#4 v=100
253464 On ch=3 n=g4 v=100
253724 On ch=3 n=g4 v=0
253724 On ch=3 n=d#4 v=0
253724 On ch=3 n=g3 v=0
253724 On ch=2 n=c5 v=0
253724 On ch=2 n=a4 v=0
253724 On ch=1 n=g5 v=0
253724 Par ch=1 c=64 v=0
253724 Par ch=1 c=64 v=127
253724 On ch=1 n=g5 v=100
253724 Par ch=1 c=64 v=0
253724 Par ch=1 c=64 v=127
253724 Par ch=1 c=64 v=0
253724 Par ch=1 c=64 v=127
253724 Par ch=2 c=64 v=0
253724 Par ch=2 c=64 v=127
253724 Par ch=2 c=64 v=0
253724 Par ch=2 c=64 v=127
253724 On ch=2 n=b4 v=100
253724 On ch=2 n=d5 v=100
253724 Par ch=2 c=64 v=0
253724 Par ch=2 c=64 v=127
253724 Par ch=3 c=64 v=0
253724 Par ch=3 c=64 v=127
253724 Par ch=3 c=64 v=0
253724 Par ch=3 c=64 v=127
253724 Par ch=3 c=64 v=0
253724 Par ch=3 c=64 v=127
253724 On ch=3 n=g3 v=100
253724 On ch=3 n=d4 v=100
253724 On ch=3 n=g4 v=100
254000 On ch=3 n=g4 v=0
254000 On ch=3 n=d4 v=0
254000 On ch=3 n=g3 v=0
254000 On ch=2 n=d5 v=0
254000 On ch=2 n=b4 v=0
254000 On ch=1 n=g5 v=0
254296 On ch=1 n=g5 v=100
254296 On ch=2 n=c5 v=100
254296 On ch=2 n=d#5 v=100
254296 On ch=3 n=g3 v=100
254296 On ch=3 n=c4 v=100
254296 On ch=3 n=g4 v=100
254608 On ch=3 n=g4 v=0
254608 On ch=3 n=c4 v=0
254608 On ch=3 n=g3 v=0
254608 On ch=2 n=d#5 v=0
254608 On ch=2 n=c5 v=0
254608 On ch=1 n=g5 v=0
254608 On ch=1 n=g5 v=100
254608 On ch=2 n=a4 v=100
254608 On ch=2 n=c5 v=100
254608 On ch=3 n=g3 v=100
254608 On ch=3 n=d#4 v=100
254608 On ch=3 n=g4 v=100
254940 On ch=3 n=g4 v=0
254940 On ch=3 n=d#4 v=0
254940 On ch=3 n=g3 v=0
254940 On ch=2 n=c5 v=0
254940 On ch=2 n=a4 v=0
254940 On ch=1 n=g5 v=0
254940 Par ch=1 c=64 v=0
254940 On ch=1 n=g5 v=100
254940 Par ch=2 c=64 v=0
254940 On ch=2 n=b4 v=100
254940 On ch=2 n=d5 v=100
254940 Par ch=3 c=64 v=0
254940 On ch=3 n=g3 v=100
254940 On ch=3 n=d4 v=100
254940 On ch=3 n=g4 v=100
255468 On ch=3 n=g4 v=0
255468 On ch=3 n=d4 v=0
255468 On ch=3 n=g3 v=0
255468 On ch=2 n=d5 v=0
255468 On ch=2 n=b4 v=0
255468 On ch=1 n=g5 v=0
255652 Par ch=1 c=64 v=127
255652 On ch=1 n=d6 v=100
255652 Par ch=2 c=64 v=127
255652 On ch=2 n=d5 v=100
255652 Par ch=3 c=64 v=127
256588 On ch=1 n=d6 v=0
256588 On ch=1 n=c6 v=60
256820 On ch=1 n=c6 v=0
256820 On ch=2 n=d5 v=0
256820 On ch=1 n=b5 v=60
256820 On ch=2 n=d5 v=60
257028 On ch=1 n=b5 v=0
257028 On ch=1 n=a5 v=60
257236 On ch=1 n=a5 v=0
257236 On ch=2 n=d5 v=0
257236 On ch=1 n=g#5 v=60
257236 On ch=2 n=f#4 v=60
257236 On ch=2 n=c5 v=60
257444 On ch=1 n=g#5 v=0
257444 On ch=1 n=a5 v=60
257652 On ch=1 n=a5 v=0
257652 On ch=2 n=c5 v=0
257652 On ch=2 n=f#4 v=0
257652 On ch=1 n=b5 v=60
257652 On ch=2 n=d4 v=60
257652 On ch=2 n=d5 v=60
257860 On ch=1 n=b5 v=0
257860 On ch=1 n=c6 v=60
258068 On ch=1 n=c6 v=0
258068 On ch=2 n=d5 v=0
258068 On ch=2 n=d4 v=0
258068 Par ch=1 c=64 v=0
258068 On ch=1 n=c#6 v=60
258068 Par ch=2 c=64 v=0
258068 On ch=2 n=g4 v=60
258068 On ch=2 n=b4 v=60
258068 Par ch=3 c=64 v=0
258276 On ch=1 n=c#6 v=0
258276 On ch=1 n=d6 v=60
258484 On ch=1 n=d6 v=0
258484 On ch=2 n=b4 v=0
258484 On ch=2 n=g4 v=0
258484 On ch=1 n=g6 v=60
258484 On ch=2 n=d4 v=60
258484 On ch=2 n=d5 v=60
258692 On ch=1 n=g6 v=0
258692 On ch=1 n=e6 v=60
258904 On ch=1 n=e6 v=0
258904 On ch=2 n=d5 v=0
258904 On ch=2 n=d4 v=0
258904 Par ch=1 c=64 v=127
258904 On ch=1 n=c#6 v=60
258904 Par ch=2 c=64 v=127
258904 On ch=2 n=d3 v=60
258904 Par ch=3 c=64 v=127
259112 On ch=1 n=c#6 v=0
259112 On ch=1 n=d6 v=60
259320 On ch=1 n=d6 v=0
259320 On ch=2 n=d3 v=0
259320 On ch=1 n=f#6 v=60
259320 On ch=2 n=d4 v=60
259320 On ch=2 n=d5 v=60
259528 On ch=1 n=f#6 v=0
259528 On ch=1 n=e6 v=60
259736 On ch=1 n=e6 v=0
259736 On ch=2 n=d5 v=0
259736 On ch=2 n=d4 v=0
259736 On ch=1 n=d6 v=60
259736 On ch=2 n=a4 v=60
259736 On ch=2 n=c5 v=60
259944 On ch=1 n=d6 v=0
259944 On ch=1 n=c6 v=60
260152 On ch=1 n=c6 v=0
260152 On ch=2 n=c5 v=0
260152 On ch=2 n=a4 v=0
260152 On ch=1 n=e5 v=60
260152 On ch=2 n=d4 v=60
260152 On ch=2 n=d5 v=60
260360 On ch=1 n=e5 v=0
260360 On ch=1 n=f#5 v=60
260464 On ch=1 n=f#5 v=0
260464 Par ch=1 c=64 v=0
260464 On ch=1 n=g5 v=60
260464 Par ch=2 c=64 v=0
260464 Par ch=3 c=64 v=0
260516 On ch=1 n=g5 v=0
260516 On ch=1 n=a5 v=60
260568 On ch=1 n=a5 v=0
260568 On ch=2 n=d5 v=0
260568 On ch=2 n=d4 v=0
260568 On ch=1 n=g5 v=60
260568 On ch=2 n=g4 v=60
260568 On ch=2 n=b4 v=60
260776 On ch=1 n=g5 v=0
260776 On ch=1 n=f#5 v=60
260984 On ch=1 n=f#5 v=0
260984 On ch=2 n=b4 v=0
260984 On ch=2 n=g4 v=0
260984 On ch=1 n=g5 v=60
260984 On ch=2 n=d4 v=60
260984 On ch=2 n=d5 v=60
261192 On ch=1 n=g5 v=0
261192 On ch=1 n=g#5 v=60
261404 On ch=1 n=g#5 v=0
261404 On ch=2 n=d5 v=0
261404 On ch=2 n=d4 v=0
261404 On ch=1 n=a5 v=60
261404 On ch=2 n=f#4 v=60
261404 On ch=2 n=a4 v=60
261612 On ch=1 n=a5 v=0
261612 On ch=1 n=f#6 v=60
261820 On ch=1 n=f#6 v=0
261820 On ch=2 n=a4 v=0
261820 On ch=2 n=f#4 v=0
261820 On ch=1 n=e6 v=60
261820 On ch=2 n=d4 v=60
261820 On ch=2 n=d5 v=60
262028 On ch=1 n=e6 v=0
262028 On ch=1 n=d6 v=60
262236 On ch=1 n=d6 v=0
262236 On ch=2 n=d5 v=0
262236 On ch=2 n=d4 v=0
262236 Par ch=1 c=64 v=127
262236 On ch=1 n=c#6 v=60
262236 Par ch=2 c=64 v=127
262236 On ch=2 n=g4 v=60
262236 On ch=2 n=a#4 v=60
262236 Par ch=3 c=64 v=127
262444 On ch=1 n=c#6 v=0
262444 On ch=1 n=f#6 v=60
262652 On ch=1 n=f#6 v=0
262652 On ch=2 n=a#4 v=0
262652 On ch=2 n=g4 v=0
262652 On ch=1 n=g6 v=60
262652 On ch=2 n=d4 v=60
262652 On ch=2 n=d5 v=60
262860 On ch=1 n=g6 v=0
262860 On ch=1 n=a6 v=70
263068 On ch=1 n=a6 v=0
263068 On ch=1 n=c7 v=80
263276 On ch=1 n=c7 v=0
263276 On ch=1 n=a#6 v=90
263484 On ch=1 n=a#6 v=0
263484 On ch=2 n=d5 v=0
263484 On ch=2 n=d4 v=0
263484 On ch=1 n=g6 v=75
263484 On ch=2 n=d4 v=60
263484 On ch=2 n=d5 v=60
263692 On ch=1 n=g6 v=0
263692 On ch=1 n=c#6 v=60
263904 On ch=1 n=c#6 v=0
263904 On ch=2 n=d5 v=0
263904 On ch=2 n=d4 v=0
263904 Par ch=1 c=64 v=0
263904 On ch=1 n=d6 v=60
263904 Par ch=2 c=64 v=0
263904 On ch=2 n=f#4 v=60
263904 On ch=2 n=a4 v=60
263904 Par ch=3 c=64 v=0
264216 On ch=1 n=d6 v=0
264216 On ch=1 n=e6 v=64
264320 On ch=1 n=e6 v=0
264320 On ch=2 n=a4 v=0
264320 On ch=2 n=f#4 v=0
264320 On ch=1 n=d6 v=65
264320 On ch=2 n=d4 v=65
264320 On ch=2 n=d5 v=65
264632 On ch=1 n=d6 v=0
264632 On ch=1 n=d#6 v=69
264736 On ch=1 n=d#6 v=0
264736 On ch=2 n=d5 v=0
264736 On ch=2 n=d4 v=0
264736 On ch=1 n=d6 v=70
264736 On ch=2 n=g4 v=70
264736 On ch=2 n=a#4 v=70
265048 On ch=1 n=d6 v=0
265048 On ch=1 n=e6 v=74
265152 On ch=1 n=e6 v=0
265152 On ch=2 n=a#4 v=0
265152 On ch=2 n=g4 v=0
265152 On ch=1 n=d6 v=75
265152 On ch=2 n=d4 v=75
265152 On ch=2 n=d5 v=75
265464 On ch=1 n=d6 v=0
265464 On ch=1 n=d#6 v=79
265568 On ch=1 n=d#6 v=0
265568 On ch=2 n=d5 v=0
265568 On ch=2 n=d4 v=0
265568 On ch=1 n=d6 v=80
265568 On ch=2 n=g#4 v=80
265568 On ch=2 n=b4 v=80
265880 On ch=1 n=d6 v=0
265880 On ch=1 n=e6 v=84
265984 On ch=1 n=e6 v=0
265984 On ch=2 n=b4 v=0
265984 On ch=2 n=g#4 v=0
265984 On ch=1 n=d6 v=85
265984 On ch=2 n=d4 v=85
265984 On ch=2 n=d5 v=85
266296 On ch=1 n=d6 v=0
266296 On ch=1 n=d#6 v=89
266404 On ch=1 n=d#6 v=0
266404 On ch=2 n=d5 v=0
266404 On ch=2 n=d4 v=0
266404 Par ch=1 c=64 v=127
266404 On ch=1 n=d6 v=60
266404 Par ch=2 c=64 v=127
266404 On ch=2 n=a4 v=60
266404 On ch=2 n=c5 v=60
266404 Par ch=3 c=64 v=127
266612 On ch=1 n=d6 v=0
266612 On ch=1 n=c6 v=60
266820 On ch=1 n=c6 v=0
266820 On ch=2 n=c5 v=0
266820 On ch=2 n=a4 v=0
266820 On ch=1 n=a#5 v=60
266820 On ch=2 n=d4 v=60
266820 On ch=2 n=d5 v=60
267028 On ch=1 n=a#5 v=0
267028 On ch=1 n=a5 v=60
267236 On ch=1 n=a5 v=0
267236 On ch=1 n=g#5 v=60
267444 On ch=1 n=g#5 v=0
267444 On ch=1 n=a5 v=60
267652 On ch=1 n=a5 v=0
267652 On ch=2 n=d5 v=0
267652 On ch=2 n=d4 v=0
267652 On ch=1 n=a#5 v=60
267652 On ch=2 n=d4 v=60
267652 On ch=2 n=d5 v=60
267860 On ch=1 n=a#5 v=0
267860 On ch=1 n=c6 v=60
268068 On ch=1 n=c6 v=0
268068 On ch=2 n=d5 v=0
268068 On ch=2 n=d4 v=0
268068 Par ch=1 c=64 v=0
268068 On ch=1 n=c#6 v=60
268068 Par ch=2 c=64 v=0
268068 On ch=2 n=g4 v=60
268068 On ch=2 n=a#4 v=60
268068 Par ch=3 c=64 v=0
268276 On ch=1 n=c#6 v=0
268276 On ch=1 n=d6 v=60
268484 On ch=1 n=d6 v=0
268484 On ch=2 n=a#4 v=0
268484 On ch=2 n=g4 v=0
268484 On ch=1 n=g6 v=60
268484 On ch=2 n=d4 v=60
268484 On ch=2 n=d5 v=60
268536 On ch=1 n=g6 v=0
268692 On ch=1 n=f#6 v=60
268796 On ch=1 n=f#6 v=0
268904 On ch=2 n=d5 v=0
268904 On ch=2 n=d4 v=0
268904 Par ch=1 c=64 v=127
268904 On ch=1 n=f6 v=60
268904 Par ch=2 c=64 v=127
268904 On ch=2 n=d3 v=60
268904 Par ch=3 c=64 v=127
269008 On ch=1 n=f6 v=0
269112 On ch=2 n=d3 v=0
269112 On ch=1 n=e6 v=60
269216 On ch=1 n=e6 v=0
269320 On ch=1 n=d#6 v=60
269320 On ch=2 n=d4 v=60
269320 On ch=2 n=d5 v=60
269424 On ch=1 n=d#6 v=0
269528 On ch=1 n=d6 v=60
269632 On ch=1 n=d6 v=0
269736 On ch=2 n=d5 v=0
269736 On ch=2 n=d4 v=0
269736 On ch=1 n=c#6 v=60
269736 On ch=2 n=f#4 v=60
269736 On ch=2 n=c5 v=60
269944 On ch=1 n=c#6 v=0
269944 On ch=1 n=c6 v=60
270152 On ch=1 n=c6 v=0
270152 On ch=2 n=c5 v=0
270152 On ch=2 n=f#4 v=0
270152 On ch=1 n=a5 v=60
270152 On ch=2 n=d4 v=60
270152 On ch=2 n=d5 v=60
270360 On ch=1 n=a5 v=0
270360 On ch=1 n=a#5 v=60
270464 On ch=1 n=a#5 v=0
270464 Par ch=1 c=64 v=0
270464 On ch=1 n=g5 v=60
270464 Par ch=2 c=64 v=0
270464 Par ch=3 c=64 v=0
270516 On ch=1 n=g5 v=0
270516 On ch=1 n=a5 v=60
270568 On ch=1 n=a5 v=0
270568 On ch=2 n=d5 v=0
270568 On ch=2 n=d4 v=0
270568 On ch=1 n=g5 v=60
270568 On ch=2 n=g4 v=60
270568 On ch=2 n=a#4 v=60
270776 On ch=1 n=g5 v=0
270776 On ch=1 n=f#5 v=60
270984 On ch=1 n=f#5 v=0
270984 On ch=2 n=a#4 v=0
270984 On ch=2 n=g4 v=0
270984 On ch=1 n=g5 v=60
270984 On ch=2 n=d4 v=60
270984 On ch=2 n=d5 v=60
271192 On ch=1 n=g5 v=0
271192 On ch=1 n=a5 v=60
271404 On ch=1 n=a5 v=0
271404 On ch=2 n=d5 v=0
271404 On ch=2 n=d4 v=0
271404 Par ch=1 c=64 v=127
271404 On ch=1 n=a#5 v=60
271404 Par ch=2 c=64 v=127
271404 On ch=2 n=g4 v=60
271404 On ch=2 n=a#4 v=60
271404 Par ch=3 c=64 v=127
271612 On ch=1 n=a#5 v=0
271612 On ch=1 n=a#6 v=90
271820 On ch=1 n=a#6 v=0
271820 On ch=2 n=a#4 v=0
271820 On ch=2 n=g4 v=0
271820 On ch=1 n=a6 v=80
271820 On ch=2 n=d#4 v=60
271820 On ch=2 n=d#5 v=60
272028 On ch=1 n=a6 v=0
272028 On ch=1 n=g6 v=70
272236 On ch=1 n=g6 v=0
272236 On ch=1 n=a6 v=60
272444 On ch=1 n=a6 v=0
272444 On ch=1 n=g6 v=60
272652 On ch=1 n=g6 v=0
272652 On ch=2 n=d#5 v=0
272652 On ch=2 n=d#4 v=0
272652 On ch=1 n=f6 v=60
272652 On ch=2 n=d#4 v=60
272652 On ch=2 n=d#5 v=60
272860 On ch=1 n=f6 v=0
272860 On ch=1 n=d#6 v=60
273068 On ch=1 n=d#6 v=0
273068 On ch=2 n=d#5 v=0
273068 On ch=2 n=d#4 v=0
273068 On ch=1 n=f6 v=60
273068 On ch=2 n=g4 v=60
273068 On ch=2 n=a#4 v=60
273276 On ch=1 n=f6 v=0
273276 On ch=1 n=d#6 v=60
273484 On ch=1 n=d#6 v=0
273484 On ch=2 n=a#4 v=0
273484 On ch=2 n=g4 v=0
273484 Par ch=1 c=64 v=0
273484 On ch=1 n=a#5 v=60
273484 Par ch=2 c=64 v=0
273484 On ch=2 n=d#4 v=60
273484 On ch=2 n=d#5 v=60
273484 Par ch=3 c=64 v=0
273692 On ch=1 n=a#5 v=0
273692 On ch=1 n=c6 v=60
273904 On ch=1 n=c6 v=0
273904 On ch=2 n=d#5 v=0
273904 On ch=2 n=d#4 v=0
273904 Par ch=1 c=64 v=127
273904 On ch=1 n=d6 v=60
273904 Par ch=2 c=64 v=127
273904 On ch=2 n=f#4 v=60
273904 On ch=2 n=a4 v=60
273904 On ch=2 n=d5 v=60
273904 Par ch=3 c=64 v=127
273968 On ch=1 n=d6 v=0
273968 On ch=1 n=d#6 v=60
274032 On ch=1 n=d#6 v=0
274032 On ch=1 n=d6 v=61
274096 On ch=1 n=d6 v=0
274096 On ch=1 n=d#6 v=61
274160 On ch=1 n=d#6 v=0
274160 On ch=1 n=d6 v=62
274224 On ch=1 n=d6 v=0
274224 On ch=1 n=d#6 v=62
274288 On ch=1 n=d#6 v=0
274288 On ch=1 n=d6 v=62
274320 On ch=2 n=d5 v=0
274320 On ch=2 n=a4 v=0
274320 On ch=2 n=f#4 v=0
274320 On ch=2 n=d4 v=62
274352 On ch=1 n=d6 v=0
274352 On ch=1 n=d#6 v=63
274416 On ch=1 n=d#6 v=0
274416 On ch=1 n=d6 v=63
274480 On ch=1 n=d6 v=0
274480 On ch=1 n=d#6 v=63
274544 On ch=1 n=d#6 v=0
274544 On ch=1 n=d6 v=64
274608 On ch=1 n=d6 v=0
274608 On ch=1 n=c#6 v=64
274672 On ch=1 n=c#6 v=0
274672 On ch=1 n=d6 v=65
274736 On ch=1 n=d6 v=0
274736 On ch=2 n=d4 v=0
274736 Par ch=1 c=64 v=0
274736 Par ch=1 c=64 v=127
274736 On ch=1 n=d#6 v=65
274736 Par ch=1 c=64 v=0
274736 Par ch=1 c=64 v=127
274736 Par ch=2 c=64 v=0
274736 Par ch=2 c=64 v=127
274736 Par ch=2 c=64 v=0
274736 Par ch=2 c=64 v=127
274736 On ch=2 n=g4 v=65
274736 On ch=2 n=a#4 v=65
274736 On ch=2 n=d#5 v=65
274736 Par ch=3 c=64 v=0
274736 Par ch=3 c=64 v=127
274736 Par ch=3 c=64 v=0
274736 Par ch=3 c=64 v=127
274800 On ch=1 n=d#6 v=0
274800 On ch=1 n=f6 v=65
274864 On ch=1 n=f6 v=0
274864 On ch=1 n=d#6 v=66
274928 On ch=1 n=d#6 v=0
274928 On ch=1 n=f6 v=66
274992 On ch=1 n=f6 v=0
274992 On ch=1 n=d#6 v=67
275056 On ch=1 n=d#6 v=0
275056 On ch=1 n=f6 v=67
275120 On ch=1 n=f6 v=0
275120 On ch=1 n=d#6 v=67
275152 On ch=2 n=d#5 v=0
275152 On ch=2 n=a#4 v=0
275152 On ch=2 n=g4 v=0
275152 On ch=2 n=c#4 v=67
275184 On ch=1 n=d#6 v=0
275184 On ch=1 n=f6 v=68
275248 On ch=1 n=f6 v=0
275248 On ch=1 n=d#6 v=68
275312 On ch=1 n=d#6 v=0
275312 On ch=1 n=f6 v=68
275376 On ch=1 n=f6 v=0
275376 On ch=1 n=d#6 v=69
275440 On ch=1 n=d#6 v=0
275440 On ch=1 n=d6 v=69
275504 On ch=1 n=d6 v=0
275504 On ch=1 n=d#6 v=70
275568 On ch=1 n=d#6 v=0
275568 On ch=2 n=c#4 v=0
275568 Par ch=1 c=64 v=0
275568 Par ch=1 c=64 v=127
275568 On ch=1 n=e6 v=70
275568 Par ch=1 c=64 v=0
275568 Par ch=1 c=64 v=127
275568 Par ch=2 c=64 v=0
275568 Par ch=2 c=64 v=127
275568 Par ch=2 c=64 v=0
275568 Par ch=2 c=64 v=127
275568 On ch=2 n=g4 v=70
275568 On ch=2 n=a#4 v=70
275568 On ch=2 n=e5 v=70
275568 Par ch=3 c=64 v=0
275568 Par ch=3 c=64 v=127
275568 Par ch=3 c=64 v=0
275568 Par ch=3 c=64 v=127
275632 On ch=1 n=e6 v=0
275632 On ch=1 n=f6 v=70
275696 On ch=1 n=f6 v=0
275696 On ch=1 n=e6 v=71
275760 On ch=1 n=e6 v=0
275760 On ch=1 n=f6 v=71
275824 On ch=1 n=f6 v=0
275824 On ch=1 n=e6 v=72
275888 On ch=1 n=e6 v=0
275888 On ch=1 n=f6 v=72
275952 On ch=1 n=f6 v=0
275952 On ch=1 n=e6 v=72
275984 On ch=2 n=e5 v=0
275984 On ch=2 n=a#4 v=0
275984 On ch=2 n=g4 v=0
275984 On ch=2 n=c4 v=72
276016 On ch=1 n=e6 v=0
276016 On ch=1 n=f6 v=73
276080 On ch=1 n=f6 v=0
276080 On ch=1 n=e6 v=73
276144 On ch=1 n=e6 v=0
276144 On ch=1 n=f6 v=73
276208 On ch=1 n=f6 v=0
276208 On ch=1 n=e6 v=74
276272 On ch=1 n=e6 v=0
276272 On ch=1 n=d#6 v=74
276336 On ch=1 n=d#6 v=0
276336 On ch=1 n=e6 v=75
276404 On ch=1 n=e6 v=0
276404 On ch=2 n=c4 v=0
276404 Par ch=1 c=64 v=0
276404 Par ch=1 c=64 v=127
276404 On ch=1 n=f6 v=75
276404 Par ch=2 c=64 v=0
276404 Par ch=2 c=64 v=127
276404 On ch=2 n=f3 v=75
276404 Par ch=3 c=64 v=0
276404 Par ch=3 c=64 v=127
276612 On ch=1 n=f6 v=0
276612 On ch=1 n=d#6 v=75
276820 On ch=1 n=d#6 v=0
276820 On ch=2 n=f3 v=0
276820 On ch=1 n=c#6 v=75
276820 On ch=2 n=f4 v=75
276820 On ch=2 n=f5 v=75
277028 On ch=1 n=c#6 v=0
277028 On ch=1 n=c6 v=75
277236 On ch=1 n=c6 v=0
277236 On ch=1 n=b5 v=75
277444 On ch=1 n=b5 v=0
277444 On ch=1 n=c6 v=75
277652 On ch=1 n=c6 v=0
277652 On ch=2 n=f5 v=0
277652 On ch=2 n=f4 v=0
277652 On ch=1 n=c#6 v=75
277652 On ch=2 n=f4 v=75
277652 On ch=2 n=f5 v=75
277860 On ch=1 n=c#6 v=0
277860 On ch=1 n=d#6 v=81
278068 On ch=1 n=d#6 v=0
278068 On ch=2 n=f5 v=0
278068 On ch=2 n=f4 v=0
278068 Par ch=1 c=64 v=0
278068 On ch=1 n=e6 v=87
278068 Par ch=2 c=64 v=0
278068 On ch=2 n=a#4 v=75
278068 On ch=2 n=c#5 v=75
278068 Par ch=3 c=64 v=0
278276 On ch=1 n=e6 v=0
278276 On ch=1 n=f6 v=94
278484 On ch=1 n=f6 v=0
278484 On ch=2 n=c#5 v=0
278484 On ch=2 n=a#4 v=0
278484 On ch=1 n=a#6 v=100
278484 On ch=2 n=f4 v=87
278484 On ch=2 n=f5 v=87
278692 On ch=1 n=a#6 v=0
278692 On ch=1 n=a6 v=98
278904 On ch=1 n=a6 v=0
278904 On ch=2 n=f5 v=0
278904 On ch=2 n=f4 v=0
278904 Par ch=1 c=64 v=127
278904 On ch=1 n=g#6 v=97
278904 Par ch=2 c=64 v=127
278904 On ch=2 n=f2 v=100
278904 Par ch=3 c=64 v=127
279112 On ch=2 n=f2 v=0
279112 On ch=1 n=g#6 v=0
279112 On ch=1 n=g6 v=95
279320 On ch=1 n=g6 v=0
279320 On ch=1 n=f#6 v=93
279320 On ch=2 n=f4 v=97
279320 On ch=2 n=f5 v=97
279528 On ch=1 n=f#6 v=0
279528 On ch=1 n=f6 v=92
279736 On ch=1 n=f6 v=0
279736 On ch=2 n=f5 v=0
279736 On ch=2 n=f4 v=0
279736 On ch=1 n=e6 v=90
279736 On ch=2 n=a4 v=93
279736 On ch=2 n=d#5 v=93
279944 On ch=1 n=e6 v=0
279944 On ch=1 n=d#6 v=90
280152 On ch=1 n=d#6 v=0
280152 On ch=2 n=d#5 v=0
280152 On ch=2 n=a4 v=0
280152 On ch=1 n=c#6 v=90
280152 On ch=2 n=f4 v=90
280152 On ch=2 n=f5 v=90
280360 On ch=1 n=c#6 v=0
280360 On ch=1 n=c6 v=90
280464 On ch=1 n=c6 v=0
280464 Par ch=1 c=64 v=0
280464 On ch=1 n=a#5 v=90
280464 Par ch=2 c=64 v=0
280464 Par ch=3 c=64 v=0
280516 On ch=1 n=a#5 v=0
280516 On ch=1 n=c6 v=90
280568 On ch=1 n=c6 v=0
280568 On ch=2 n=f5 v=0
280568 On ch=2 n=f4 v=0
280568 On ch=1 n=a#5 v=90
280568 On ch=2 n=a#4 v=90
280568 On ch=2 n=c#5 v=90
280776 On ch=1 n=a#5 v=0
280776 On ch=1 n=a5 v=90
280984 On ch=1 n=a5 v=0
280984 On ch=2 n=c#5 v=0
280984 On ch=2 n=a#4 v=0
280984 On ch=1 n=a#5 v=90
280984 On ch=2 n=f4 v=90
280984 On ch=2 n=f5 v=90
281192 On ch=1 n=a#5 v=0
281192 On ch=1 n=c6 v=90
281404 On ch=1 n=c6 v=0
281404 On ch=2 n=f5 v=0
281404 On ch=2 n=f4 v=0
281404 Par ch=1 c=64 v=127
281404 On ch=1 n=c#6 v=90
281404 Par ch=2 c=64 v=127
281404 On ch=2 n=a#4 v=90
281404 On ch=2 n=c#5 v=90
281404 Par ch=3 c=64 v=127
281612 On ch=1 n=c#6 v=0
281612 On ch=1 n=c#7 v=86
281820 On ch=1 n=c#7 v=0
281820 On ch=2 n=c#5 v=0
281820 On ch=2 n=a#4 v=0
281820 On ch=1 n=c7 v=83
281820 On ch=2 n=f#4 v=83
281820 On ch=2 n=f#5 v=83
282028 On ch=1 n=c7 v=0
282028 On ch=1 n=a#6 v=79
282236 On ch=1 n=a#6 v=0
282236 On ch=1 n=c7 v=75
282444 On ch=1 n=c7 v=0
282444 On ch=1 n=a#6 v=71
282652 On ch=1 n=a#6 v=0
282652 On ch=2 n=f#5 v=0
282652 On ch=2 n=f#4 v=0
282652 On ch=1 n=g#6 v=68
282652 On ch=2 n=f#4 v=68
282652 On ch=2 n=f#5 v=68
282860 On ch=1 n=g#6 v=0
282860 On ch=1 n=f#6 v=64
283068 On ch=1 n=f#6 v=0
283068 On ch=2 n=f#5 v=0
283068 On ch=2 n=f#4 v=0
283068 Par ch=1 c=64 v=0
283068 On ch=1 n=g#6 v=60
283068 Par ch=2 c=64 v=0
283068 On ch=2 n=a#4 v=60
283068 On ch=2 n=c#5 v=60
283068 Par ch=3 c=64 v=0
283276 On ch=1 n=g#6 v=0
283276 On ch=1 n=f#6 v=60
283484 On ch=1 n=f#6 v=0
283484 On ch=2 n=c#5 v=0
283484 On ch=2 n=a#4 v=0
283484 On ch=1 n=c#6 v=60
283484 On ch=2 n=f#4 v=60
283484 On ch=2 n=f#5 v=60
283692 On ch=1 n=c#6 v=0
283692 On ch=1 n=d#6 v=60
283904 On ch=1 n=d#6 v=0
283904 On ch=2 n=f#5 v=0
283904 On ch=2 n=f#4 v=0
283904 On ch=1 n=f6 v=60
283904 On ch=2 n=a4 v=60
283904 On ch=2 n=c5 v=60
284040 On ch=1 n=f6 v=0
284040 On ch=1 n=f#6 v=62
284180 On ch=1 n=f#6 v=0
284180 On ch=1 n=f6 v=63
284320 On ch=1 n=f6 v=0
284320 On ch=2 n=c5 v=0
284320 On ch=2 n=a4 v=0
284320 On ch=1 n=e6 v=65
284320 On ch=2 n=f4 v=65
284320 On ch=2 n=f5 v=65
284456 On ch=1 n=e6 v=0
284456 On ch=1 n=f6 v=67
284596 On ch=1 n=f6 v=0
284596 On ch=1 n=f#6 v=68
284736 On ch=1 n=f#6 v=0
284736 On ch=2 n=f5 v=0
284736 On ch=2 n=f4 v=0
284736 On ch=1 n=f6 v=70
284736 On ch=2 n=a#4 v=70
284736 On ch=2 n=c#5 v=70
284876 On ch=1 n=f6 v=0
284876 On ch=1 n=f#6 v=72
285012 On ch=1 n=f#6 v=0
285012 On ch=1 n=f6 v=73
285152 On ch=1 n=f6 v=0
285152 On ch=2 n=c#5 v=0
285152 On ch=2 n=a#4 v=0
285152 On ch=1 n=e6 v=75
285152 On ch=2 n=f4 v=75
285152 On ch=2 n=f5 v=75
285292 On ch=1 n=e6 v=0
285292 On ch=1 n=f6 v=77
285428 On ch=1 n=f6 v=0
285428 On ch=1 n=f#6 v=78
285568 On ch=1 n=f#6 v=0
285568 On ch=2 n=f5 v=0
285568 On ch=2 n=f4 v=0
285568 On ch=1 n=f6 v=80
285568 On ch=2 n=b4 v=80
285568 On ch=2 n=d5 v=80
285708 On ch=1 n=f6 v=0
285708 On ch=1 n=f#6 v=82
285848 On ch=1 n=f#6 v=0
285848 On ch=1 n=f6 v=83
285984 On ch=1 n=f6 v=0
285984 On ch=2 n=d5 v=0
285984 On ch=2 n=b4 v=0
285984 On ch=1 n=e6 v=85
285984 On ch=2 n=f4 v=85
285984 On ch=2 n=f5 v=85
286124 On ch=1 n=e6 v=0
286124 On ch=1 n=f6 v=87
286264 On ch=1 n=f6 v=0
286264 On ch=1 n=f#6 v=88
286404 On ch=1 n=f#6 v=0
286404 On ch=2 n=f5 v=0
286404 On ch=2 n=f4 v=0
286404 Par ch=1 c=64 v=127
286404 On ch=1 n=f6 v=90
286404 Par ch=2 c=64 v=127
286404 On ch=2 n=a4 v=90
286404 On ch=2 n=c5 v=90
286404 Par ch=3 c=64 v=127
286612 On ch=1 n=f6 v=0
286612 On ch=1 n=d#6 v=90
286820 On ch=1 n=d#6 v=0
286820 On ch=2 n=c5 v=0
286820 On ch=2 n=a4 v=0
286820 On ch=1 n=c#6 v=90
286820 On ch=2 n=f4 v=90
286820 On ch=2 n=f5 v=90
287028 On ch=1 n=c#6 v=0
287028 On ch=1 n=c6 v=90
287236 On ch=1 n=c6 v=0
287236 On ch=1 n=b5 v=90
287444 On ch=1 n=b5 v=0
287444 On ch=1 n=c6 v=90
287652 On ch=1 n=c6 v=0
287652 On ch=2 n=f5 v=0
287652 On ch=2 n=f4 v=0
287652 On ch=1 n=c#6 v=90
287652 On ch=2 n=f4 v=90
287652 On ch=2 n=f5 v=90
287860 On ch=1 n=c#6 v=0
287860 On ch=1 n=d#6 v=95
288068 On ch=1 n=d#6 v=0
288068 On ch=2 n=f5 v=0
288068 On ch=2 n=f4 v=0
288068 Par ch=1 c=64 v=0
288068 On ch=1 n=e6 v=100
288068 Par ch=2 c=64 v=0
288068 On ch=2 n=a#4 v=90
288068 On ch=2 n=c#5 v=90
288068 Par ch=3 c=64 v=0
288276 On ch=1 n=e6 v=0
288276 On ch=1 n=f6 v=105
288484 On ch=1 n=f6 v=0
288484 On ch=2 n=c#5 v=0
288484 On ch=2 n=a#4 v=0
288484 On ch=1 n=a#6 v=110
288484 On ch=2 n=f4 v=100
288484 On ch=2 n=f5 v=100
288588 On ch=1 n=a#6 v=0
288692 On ch=1 n=a6 v=107
288796 On ch=1 n=a6 v=0
288904 On ch=2 n=f5 v=0
288904 On ch=2 n=f4 v=0
288904 Par ch=1 c=64 v=127
288904 On ch=1 n=g#6 v=103
288904 Par ch=2 c=64 v=127
288904 On ch=2 n=f2 v=110
288904 Par ch=3 c=64 v=127
289008 On ch=1 n=g#6 v=0
289112 On ch=2 n=f2 v=0
289112 On ch=1 n=g6 v=100
289216 On ch=1 n=g6 v=0
289320 On ch=1 n=f#6 v=97
289320 On ch=2 n=f4 v=103
289320 On ch=2 n=f5 v=103
289424 On ch=1 n=f#6 v=0
289528 On ch=1 n=f6 v=93
289632 On ch=1 n=f6 v=0
289736 On ch=2 n=f5 v=0
289736 On ch=2 n=f4 v=0
289736 On ch=1 n=e6 v=90
289736 On ch=2 n=a4 v=97
289736 On ch=2 n=d#5 v=97
289840 On ch=1 n=e6 v=0
289944 On ch=1 n=d#6 v=90
290048 On ch=1 n=d#6 v=0
290152 On ch=2 n=d#5 v=0
290152 On ch=2 n=a4 v=0
290152 On ch=1 n=c6 v=90
290152 On ch=2 n=f4 v=90
290152 On ch=2 n=f5 v=90
290256 On ch=1 n=c6 v=0
290360 On ch=1 n=c#6 v=90
290464 On ch=1 n=c#6 v=0
290464 Par ch=1 c=64 v=0
290464 On ch=1 n=a#5 v=90
290464 Par ch=2 c=64 v=0
290464 Par ch=3 c=64 v=0
290516 On ch=1 n=a#5 v=0
290516 On ch=1 n=c6 v=90
290568 On ch=1 n=c6 v=0
290568 On ch=2 n=f5 v=0
290568 On ch=2 n=f4 v=0
290568 On ch=1 n=a#5 v=90
290568 On ch=2 n=a#4 v=90
290568 On ch=2 n=c#5 v=90
290776 On ch=1 n=a#5 v=0
290776 On ch=1 n=a5 v=90
290984 On ch=1 n=a5 v=0
290984 On ch=2 n=c#5 v=0
290984 On ch=2 n=a#4 v=0
290984 On ch=1 n=a#5 v=90
290984 On ch=2 n=f4 v=90
290984 On ch=2 n=f5 v=90
291192 On ch=1 n=a#5 v=0
291192 On ch=1 n=c#6 v=90
291404 On ch=1 n=c#6 v=0
291404 On ch=2 n=f5 v=0
291404 On ch=2 n=f4 v=0
291404 Par ch=1 c=64 v=127
291404 On ch=1 n=c6 v=75
291404 Par ch=2 c=64 v=127
291404 On ch=2 n=f3 v=75
291404 Par ch=3 c=64 v=127
291612 On ch=2 n=f3 v=0
291612 On ch=1 n=c6 v=0
291612 On ch=1 n=a#5 v=75
291820 On ch=1 n=a#5 v=0
291820 On ch=1 n=g#5 v=75
291820 On ch=2 n=c4 v=75
291820 On ch=2 n=c5 v=75
292028 On ch=1 n=g#5 v=0
292028 On ch=1 n=g5 v=75
292236 On ch=1 n=g5 v=0
292236 On ch=1 n=f#5 v=75
292444 On ch=1 n=f#5 v=0
292444 On ch=1 n=g5 v=75
292652 On ch=1 n=g5 v=0
292652 On ch=2 n=c5 v=0
292652 On ch=2 n=c4 v=0
292652 On ch=1 n=g#5 v=75
292652 On ch=2 n=c4 v=75
292652 On ch=2 n=c5 v=75
292860 On ch=1 n=g#5 v=0
292860 On ch=1 n=a#5 v=75
293068 On ch=1 n=a#5 v=0
293068 On ch=2 n=c5 v=0
293068 On ch=2 n=c4 v=0
293068 Par ch=1 c=64 v=0
293068 On ch=1 n=b5 v=75
293068 Par ch=2 c=64 v=0
293068 On ch=2 n=f4 v=75
293068 On ch=2 n=g#4 v=75
293068 Par ch=3 c=64 v=0
293276 On ch=1 n=b5 v=0
293276 On ch=1 n=c6 v=75
293484 On ch=1 n=c6 v=0
293484 On ch=2 n=g#4 v=0
293484 On ch=2 n=f4 v=0
293484 On ch=1 n=f6 v=75
293484 On ch=2 n=c4 v=75
293484 On ch=2 n=c5 v=75
293692 On ch=1 n=f6 v=0
293692 On ch=1 n=c#6 v=75
293904 On ch=1 n=c#6 v=0
293904 On ch=2 n=c5 v=0
293904 On ch=2 n=c4 v=0
293904 Par ch=1 c=64 v=127
293904 On ch=1 n=c6 v=75
293904 Par ch=2 c=64 v=127
293904 On ch=2 n=d#3 v=110
293904 Par ch=3 c=64 v=127
294112 On ch=2 n=d#3 v=0
294112 On ch=1 n=c6 v=0
294112 On ch=1 n=a#5 v=75
294320 On ch=1 n=a#5 v=0
294320 On ch=1 n=g#5 v=75
294320 On ch=2 n=c4 v=75
294320 On ch=2 n=c5 v=75
294528 On ch=1 n=g#5 v=0
294528 On ch=1 n=g5 v=75
294736 On ch=1 n=g5 v=0
294736 On ch=1 n=f#5 v=75
294944 On ch=1 n=f#5 v=0
294944 On ch=1 n=g5 v=75
295152 On ch=1 n=g5 v=0
295152 On ch=2 n=c5 v=0
295152 On ch=2 n=c4 v=0
295152 On ch=1 n=c6 v=75
295152 On ch=2 n=c4 v=75
295152 On ch=2 n=c5 v=75
295360 On ch=1 n=c6 v=0
295360 On ch=1 n=b5 v=75
295568 On ch=1 n=b5 v=0
295568 On ch=2 n=c5 v=0
295568 On ch=2 n=c4 v=0
295568 Par ch=1 c=64 v=0
295568 On ch=1 n=a#5 v=75
295568 Par ch=2 c=64 v=0
295568 On ch=2 n=c#3 v=110
295568 Par ch=3 c=64 v=0
295776 On ch=2 n=c#3 v=0
295776 On ch=1 n=a#5 v=0
295776 On ch=1 n=g#5 v=75
295984 On ch=1 n=g#5 v=0
295984 On ch=1 n=g5 v=75
295984 On ch=2 n=c4 v=75
295984 On ch=2 n=c5 v=75
296192 On ch=1 n=g5 v=0
296192 On ch=1 n=f5 v=75
296404 On ch=1 n=f5 v=0
296404 On ch=2 n=c5 v=0
296404 On ch=2 n=c4 v=0
296404 Par ch=1 c=64 v=127
296404 On ch=1 n=e5 v=75
296404 Par ch=2 c=64 v=127
296404 On ch=2 n=c3 v=110
296404 Par ch=3 c=64 v=127
296612 On ch=2 n=c3 v=0
296612 On ch=1 n=e5 v=0
296612 On ch=1 n=c6 v=75
296820 On ch=1 n=c6 v=0
296820 On ch=1 n=a#5 v=75
296820 On ch=2 n=c4 v=75
296820 On ch=2 n=c5 v=75
297028 On ch=1 n=a#5 v=0
297028 On ch=1 n=g#5 v=75
297236 On ch=1 n=g#5 v=0
297236 On ch=1 n=f#5 v=75
297444 On ch=1 n=f#5 v=0
297444 On ch=1 n=g5 v=75
297652 On ch=1 n=g5 v=0
297652 On ch=2 n=c5 v=0
297652 On ch=2 n=c4 v=0
297652 On ch=1 n=g#5 v=75
297652 On ch=2 n=c4 v=75
297652 On ch=2 n=c5 v=75
297860 On ch=1 n=g#5 v=0
297860 On ch=1 n=a#5 v=75
298068 On ch=1 n=a#5 v=0
298068 On ch=2 n=c5 v=0
298068 On ch=2 n=c4 v=0
298068 Par ch=1 c=64 v=0
298068 On ch=1 n=b5 v=75
298068 Par ch=2 c=64 v=0
298068 On ch=2 n=f4 v=75
298068 On ch=2 n=g#4 v=75
298068 Par ch=3 c=64 v=0
298276 On ch=1 n=b5 v=0
298276 On ch=1 n=c6 v=75
298484 On ch=1 n=c6 v=0
298484 On ch=2 n=g#4 v=0
298484 On ch=2 n=f4 v=0
298484 On ch=1 n=f6 v=75
298484 On ch=2 n=c4 v=75
298484 On ch=2 n=c5 v=75
298692 On ch=1 n=f6 v=0
298692 On ch=1 n=c#6 v=75
298904 On ch=1 n=c#6 v=0
298904 On ch=2 n=c5 v=0
298904 On ch=2 n=c4 v=0
298904 Par ch=1 c=64 v=127
298904 On ch=1 n=c6 v=75
298904 Par ch=2 c=64 v=127
298904 On ch=2 n=d#3 v=110
298904 Par ch=3 c=64 v=127
299112 On ch=2 n=d#3 v=0
299112 On ch=1 n=c6 v=0
299112 On ch=1 n=a#5 v=75
299320 On ch=1 n=a#5 v=0
299320 On ch=1 n=g#5 v=75
299320 On ch=2 n=c4 v=75
299320 On ch=2 n=c5 v=75
299528 On ch=1 n=g#5 v=0
299528 On ch=1 n=g5 v=75
299736 On ch=1 n=g5 v=0
299736 On ch=1 n=f#5 v=75
299944 On ch=1 n=f#5 v=0
299944 On ch=1 n=g5 v=75
300152 On ch=1 n=g5 v=0
300152 On ch=2 n=c5 v=0
300152 On ch=2 n=c4 v=0
300152 On ch=1 n=c6 v=75
300152 On ch=2 n=c4 v=75
300152 On ch=2 n=c5 v=75
300360 On ch=1 n=c6 v=0
300360 On ch=1 n=b5 v=75
300568 On ch=1 n=b5 v=0
300568 On ch=2 n=c5 v=0
300568 On ch=2 n=c4 v=0
300568 Par ch=1 c=64 v=0
300568 On ch=1 n=a#5 v=75
300568 Par ch=2 c=64 v=0
300568 On ch=2 n=c#3 v=110
300568 Par ch=3 c=64 v=0
300776 On ch=2 n=c#3 v=0
300776 On ch=1 n=a#5 v=0
300776 On ch=1 n=g#5 v=75
300984 On ch=1 n=g#5 v=0
300984 On ch=1 n=g5 v=75
300984 On ch=2 n=c4 v=75
300984 On ch=2 n=c5 v=75
301192 On ch=1 n=g5 v=0
301192 On ch=1 n=f5 v=75
301404 On ch=1 n=f5 v=0
301404 On ch=2 n=c5 v=0
301404 On ch=2 n=c4 v=0
301404 Par ch=1 c=64 v=127
301404 On ch=1 n=e5 v=75
301404 Par ch=2 c=64 v=127
301404 On ch=2 n=c3 v=110
301404 Par ch=3 c=64 v=127
301612 On ch=2 n=c3 v=0
301612 On ch=1 n=e5 v=0
301612 On ch=1 n=c6 v=75
301820 On ch=1 n=c6 v=0
301820 On ch=1 n=a#5 v=75
301820 On ch=2 n=c4 v=75
301820 On ch=2 n=c5 v=75
302028 On ch=1 n=a#5 v=0
302028 On ch=1 n=g#5 v=75
302236 On ch=1 n=g#5 v=0
302236 On ch=1 n=f#5 v=74
302444 On ch=1 n=f#5 v=0
302444 On ch=1 n=g5 v=74
302652 On ch=1 n=g5 v=0
302652 On ch=2 n=c5 v=0
302652 On ch=2 n=c4 v=0
302652 On ch=1 n=g#5 v=74
302652 On ch=2 n=c4 v=74
302652 On ch=2 n=c5 v=74
302860 On ch=1 n=g#5 v=0
302860 On ch=1 n=a#5 v=73
303068 On ch=1 n=a#5 v=0
303068 On ch=2 n=c5 v=0
303068 On ch=2 n=c4 v=0
303068 Par ch=1 c=64 v=0
303068 On ch=1 n=b5 v=73
303068 Par ch=2 c=64 v=0
303068 On ch=2 n=f4 v=73
303068 On ch=2 n=g#4 v=73
303068 Par ch=3 c=64 v=0
303276 On ch=1 n=b5 v=0
303276 On ch=1 n=c6 v=73
303484 On ch=1 n=c6 v=0
303484 On ch=2 n=g#4 v=0
303484 On ch=2 n=f4 v=0
303484 On ch=1 n=d#6 v=72
303484 On ch=2 n=c4 v=72
303484 On ch=2 n=c5 v=72
303692 On ch=1 n=d#6 v=0
303692 On ch=1 n=c#6 v=72
303904 On ch=1 n=c#6 v=0
303904 On ch=2 n=c5 v=0
303904 On ch=2 n=c4 v=0
303904 Par ch=1 c=64 v=127
303904 On ch=1 n=c6 v=72
303904 Par ch=2 c=64 v=127
303904 On ch=2 n=e4 v=72
303904 On ch=2 n=g4 v=72
303904 Par ch=3 c=64 v=127
304112 On ch=1 n=c6 v=0
304112 On ch=1 n=a#5 v=71
304320 On ch=1 n=a#5 v=0
304320 On ch=2 n=g4 v=0
304320 On ch=2 n=e4 v=0
304320 On ch=1 n=g#5 v=71
304320 On ch=2 n=c4 v=71
304320 On ch=2 n=c5 v=71
304528 On ch=1 n=g#5 v=0
304528 On ch=1 n=g5 v=71
304736 On ch=1 n=g5 v=0
304736 On ch=1 n=f#5 v=70
304944 On ch=1 n=f#5 v=0
304944 On ch=1 n=g5 v=70
305152 On ch=1 n=g5 v=0
305152 On ch=2 n=c5 v=0
305152 On ch=2 n=c4 v=0
305152 On ch=1 n=g#5 v=70
305152 On ch=2 n=c4 v=70
305152 On ch=2 n=c5 v=70
305360 On ch=1 n=g#5 v=0
305360 On ch=1 n=a#5 v=69
305568 On ch=1 n=a#5 v=0
305568 On ch=2 n=c5 v=0
305568 On ch=2 n=c4 v=0
305568 Par ch=1 c=64 v=0
305568 On ch=1 n=b5 v=69
305568 Par ch=2 c=64 v=0
305568 On ch=2 n=c#4 v=69
305568 On ch=2 n=f4 v=69
305568 Par ch=3 c=64 v=0
305776 On ch=1 n=b5 v=0
305776 On ch=1 n=c6 v=69
305984 On ch=1 n=c6 v=0
305984 On ch=2 n=f4 v=0
305984 On ch=2 n=c#4 v=0
305984 On ch=1 n=c#6 v=68
305984 On ch=2 n=c4 v=68
305984 On ch=2 n=c5 v=68
306192 On ch=1 n=c#6 v=0
306192 On ch=1 n=b5 v=68
306404 On ch=1 n=b5 v=0
306404 On ch=2 n=c5 v=0
306404 On ch=2 n=c4 v=0
306404 Par ch=1 c=64 v=127
306404 On ch=1 n=c6 v=68
306404 Par ch=1 c=64 v=0
306404 Par ch=1 c=64 v=127
306404 Par ch=2 c=64 v=127
306404 Par ch=2 c=64 v=0
306404 Par ch=2 c=64 v=127
306404 On ch=2 n=e4 v=68
306404 Par ch=3 c=64 v=127
306404 Par ch=3 c=64 v=0
306404 Par ch=3 c=64 v=127
306612 On ch=1 n=c6 v=0
306612 On ch=1 n=a#5 v=68
306820 On ch=1 n=a#5 v=0
306820 On ch=2 n=e4 v=0
306820 On ch=1 n=g#5 v=67
306820 On ch=2 n=c4 v=67
306820 On ch=2 n=c5 v=67
307028 On ch=1 n=g#5 v=0
307028 On ch=1 n=g5 v=67
307236 On ch=1 n=g5 v=0
307236 On ch=1 n=f#5 v=67
307444 On ch=1 n=f#5 v=0
307444 On ch=1 n=g5 v=66
307652 On ch=1 n=g5 v=0
307652 On ch=2 n=c5 v=0
307652 On ch=2 n=c4 v=0
307652 On ch=1 n=g#5 v=66
307652 On ch=2 n=c4 v=66
307652 On ch=2 n=c5 v=66
307860 On ch=1 n=g#5 v=0
307860 On ch=1 n=a#5 v=66
308068 On ch=1 n=a#5 v=0
308068 On ch=2 n=c5 v=0
308068 On ch=2 n=c4 v=0
308068 Par ch=1 c=64 v=0
308068 On ch=1 n=b5 v=65
308068 Par ch=2 c=64 v=0
308068 On ch=2 n=f4 v=65
308068 On ch=2 n=g#4 v=65
308068 Par ch=3 c=64 v=0
308276 On ch=1 n=b5 v=0
308276 On ch=1 n=c6 v=65
308484 On ch=1 n=c6 v=0
308484 On ch=2 n=g#4 v=0
308484 On ch=2 n=f4 v=0
308484 On ch=1 n=d#6 v=65
308484 On ch=2 n=c4 v=65
308484 On ch=2 n=c5 v=65
308692 On ch=1 n=d#6 v=0
308692 On ch=1 n=c#6 v=64
308904 On ch=1 n=c#6 v=0
308904 On ch=2 n=c5 v=0
308904 On ch=2 n=c4 v=0
308904 Par ch=1 c=64 v=127
308904 On ch=1 n=c6 v=64
308904 Par ch=2 c=64 v=127
308904 On ch=2 n=e4 v=64
308904 On ch=2 n=g4 v=64
308904 Par ch=3 c=64 v=127
309112 On ch=1 n=c6 v=0
309112 On ch=1 n=a#5 v=64
309320 On ch=1 n=a#5 v=0
309320 On ch=2 n=g4 v=0
309320 On ch=2 n=e4 v=0
309320 On ch=1 n=g#5 v=63
309320 On ch=2 n=c4 v=63
309320 On ch=2 n=c5 v=63
309528 On ch=1 n=g#5 v=0
309528 On ch=1 n=g5 v=63
309736 On ch=1 n=g5 v=0
309736 On ch=1 n=f#5 v=63
309944 On ch=1 n=f#5 v=0
309944 On ch=1 n=g5 v=62
310152 On ch=1 n=g5 v=0
310152 On ch=2 n=c5 v=0
310152 On ch=2 n=c4 v=0
310152 On ch=1 n=g#5 v=62
310152 On ch=2 n=c4 v=62
310152 On ch=2 n=c5 v=62
310360 On ch=1 n=g#5 v=0
310360 On ch=1 n=a#5 v=62
310568 On ch=1 n=a#5 v=0
310568 On ch=2 n=c5 v=0
310568 On ch=2 n=c4 v=0
310568 Par ch=1 c=64 v=0
310568 Par ch=1 c=64 v=127
310568 On ch=1 n=b5 v=61
310568 Par ch=1 c=64 v=0
310568 Par ch=1 c=64 v=127
310568 Par ch=2 c=64 v=0
310568 Par ch=2 c=64 v=127
310568 Par ch=2 c=64 v=0
310568 Par ch=2 c=64 v=127
310568 On ch=2 n=c#4 v=61
310568 On ch=2 n=f4 v=61
310568 Par ch=3 c=64 v=0
310568 Par ch=3 c=64 v=127
310568 Par ch=3 c=64 v=0
310568 Par ch=3 c=64 v=127
310776 On ch=1 n=b5 v=0
310776 On ch=1 n=c6 v=61
310984 On ch=1 n=c6 v=0
310984 On ch=2 n=f4 v=0
310984 On ch=2 n=c#4 v=0
310984 On ch=1 n=c#6 v=61
310984 On ch=2 n=c4 v=61
310984 On ch=2 n=c5 v=61
311192 On ch=1 n=c#6 v=0
311192 On ch=1 n=b5 v=60
311400 On ch=1 n=b5 v=0
311400 Par ch=1 c=64 v=0
311400 On ch=1 n=c6 v=60
311400 Par ch=2 c=64 v=0
311400 Par ch=3 c=64 v=0
311400 On ch=3 n=e4 v=60
311604 On ch=1 n=c6 v=0
311604 On ch=1 n=a#5 v=60
311808 On ch=1 n=a#5 v=0
311808 On ch=3 n=e4 v=0
311808 On ch=2 n=c5 v=0
311808 On ch=2 n=c4 v=0
311808 On ch=1 n=g#5 v=60
312012 On ch=1 n=g#5 v=0
312012 On ch=1 n=g5 v=60
312216 On ch=1 n=g5 v=0
312216 On ch=1 n=f#5 v=60
312216 On ch=2 n=f#4 v=60
312416 On ch=2 n=f#4 v=0
312416 On ch=1 n=f#5 v=0
312416 On ch=1 n=g5 v=61
312416 On ch=2 n=g4 v=61
312616 On ch=2 n=g4 v=0
312616 On ch=1 n=g5 v=0
312616 On ch=1 n=g#5 v=63
312616 On ch=2 n=g#4 v=63
312816 On ch=2 n=g#4 v=0
312816 On ch=1 n=g#5 v=0
312816 On ch=1 n=a#5 v=64
312816 On ch=2 n=a#4 v=64
313016 On ch=2 n=a#4 v=0
313016 On ch=1 n=a#5 v=0
313016 On ch=1 n=g#5 v=66
313016 On ch=2 n=g#4 v=66
313212 On ch=2 n=g#4 v=0
313212 On ch=1 n=g#5 v=0
313212 On ch=1 n=g5 v=67
313212 On ch=2 n=g4 v=67
313408 On ch=2 n=g4 v=0
313408 On ch=1 n=g5 v=0
313408 On ch=1 n=f5 v=69
313408 On ch=2 n=f4 v=69
313604 On ch=2 n=f4 v=0
313604 On ch=1 n=f5 v=0
313604 On ch=1 n=e5 v=70
313604 On ch=2 n=e4 v=70
313796 On ch=2 n=e4 v=0
313796 On ch=1 n=e5 v=0
313796 On ch=1 n=d#5 v=72
313796 On ch=2 n=d#4 v=72
313992 On ch=2 n=d#4 v=0
313992 On ch=1 n=d#5 v=0
313992 On ch=1 n=e5 v=73
313992 On ch=2 n=e4 v=73
314184 On ch=2 n=e4 v=0
314184 On ch=1 n=e5 v=0
314184 On ch=1 n=f5 v=75
314184 On ch=2 n=f4 v=75
314372 On ch=2 n=f4 v=0
314372 On ch=1 n=f5 v=0
314372 On ch=1 n=g5 v=76
314372 On ch=2 n=g4 v=76
314564 On ch=2 n=g4 v=0
314564 On ch=1 n=g5 v=0
314564 On ch=1 n=c#5 v=78
314564 On ch=2 n=c#4 v=78
314564 On ch=3 n=c#4 v=78
314564 On ch=3 n=c#5 v=78
314752 On ch=2 n=c#4 v=0
314752 On ch=1 n=c#5 v=0
314752 On ch=1 n=g5 v=79
314752 On ch=2 n=g4 v=79
314940 On ch=2 n=g4 v=0
314940 On ch=1 n=g5 v=0
314940 On ch=3 n=c#5 v=0
314940 On ch=3 n=c#4 v=0
314940 On ch=1 n=c5 v=81
314940 On ch=2 n=c4 v=81
314940 On ch=3 n=c4 v=81
314940 On ch=3 n=c5 v=81
315128 On ch=2 n=c4 v=0
315128 On ch=1 n=c5 v=0
315128 On ch=1 n=g5 v=82
315128 On ch=2 n=g4 v=82
315312 On ch=2 n=g4 v=0
315312 On ch=1 n=g5 v=0
315312 On ch=3 n=c5 v=0
315312 On ch=3 n=c4 v=0
315312 On ch=1 n=a#4 v=84
315312 On ch=2 n=a#3 v=84
315496 On ch=2 n=a#3 v=0
315496 On ch=1 n=a#4 v=0
315496 On ch=1 n=c5 v=85
315496 On ch=2 n=c4 v=85
315680 On ch=2 n=c4 v=0
315680 On ch=1 n=c5 v=0
315680 On ch=1 n=c#5 v=87
315680 On ch=2 n=c#4 v=87
315864 On ch=2 n=c#4 v=0
315864 On ch=1 n=c#5 v=0
315864 On ch=1 n=d#5 v=88
315864 On ch=2 n=d#4 v=88
316044 On ch=2 n=d#4 v=0
316044 On ch=1 n=d#5 v=0
316044 On ch=1 n=c#5 v=90
316044 On ch=2 n=c#4 v=90
316224 On ch=2 n=c#4 v=0
316224 On ch=1 n=c#5 v=0
316224 On ch=1 n=c5 v=91
316224 On ch=2 n=c4 v=91
316404 On ch=2 n=c4 v=0
316404 On ch=1 n=c5 v=0
316404 On ch=1 n=a#4 v=92
316404 On ch=2 n=a#3 v=92
316584 On ch=2 n=a#3 v=0
316584 On ch=1 n=a#4 v=0
316584 On ch=1 n=g#4 v=94
316584 On ch=2 n=g#3 v=94
316760 On ch=2 n=g#3 v=0
316760 On ch=1 n=g#4 v=0
316760 On ch=1 n=g4 v=95
316760 On ch=2 n=g3 v=95
316760 On ch=3 n=g3 v=95
316760 On ch=3 n=g4 v=95
316936 On ch=2 n=g3 v=0
316936 On ch=1 n=g4 v=0
316936 On ch=1 n=c5 v=97
316936 On ch=2 n=c4 v=97
317112 On ch=2 n=c4 v=0
317112 On ch=1 n=c5 v=0
317112 On ch=1 n=a#4 v=98
317112 On ch=2 n=a#3 v=98
317288 On ch=2 n=a#3 v=0
317288 On ch=1 n=a#4 v=0
317288 On ch=3 n=g4 v=0
317288 On ch=3 n=g3 v=0
317288 On ch=1 n=f#4 v=100
317288 On ch=2 n=f#3 v=100
317288 On ch=3 n=f#3 v=100
317288 On ch=3 n=f#4 v=100
317460 On ch=3 n=f#4 v=0
317460 On ch=3 n=f#3 v=0
317460 On ch=2 n=f#3 v=0
317460 On ch=1 n=f#4 v=0
317460 On ch=1 n=f4 v=101
317460 On ch=2 n=f3 v=101
317460 On ch=3 n=f3 v=101
317460 On ch=3 n=f4 v=101
317632 On ch=2 n=f3 v=0
317632 On ch=1 n=f4 v=0
317632 On ch=1 n=c5 v=103
317632 On ch=2 n=c4 v=103
317804 On ch=2 n=c4 v=0
317804 On ch=1 n=c5 v=0
317804 On ch=1 n=a#4 v=104
317804 On ch=2 n=a#3 v=104
317972 On ch=2 n=a#3 v=0
317972 On ch=1 n=a#4 v=0
317972 On ch=3 n=f4 v=0
317972 On ch=3 n=f3 v=0
317972 On ch=1 n=e4 v=106
317972 On ch=2 n=e3 v=106
317972 On ch=3 n=e3 v=106
317972 On ch=3 n=e4 v=106
318144 On ch=3 n=e4 v=0
318144 On ch=3 n=e3 v=0
318144 On ch=2 n=e3 v=0
318144 On ch=1 n=e4 v=0
318144 On ch=1 n=d#4 v=107
318144 On ch=2 n=d#3 v=107
318144 On ch=3 n=d#3 v=107
318144 On ch=3 n=d#4 v=107
318312 On ch=2 n=d#3 v=0
318312 On ch=1 n=d#4 v=0
318312 On ch=1 n=g#4 v=109
318312 On ch=2 n=g#3 v=109
318484 On ch=2 n=g#3 v=0
318484 On ch=1 n=g#4 v=0
318484 On ch=1 n=g4 v=110
318484 On ch=2 n=g3 v=110
318656 On ch=2 n=g3 v=0
318656 On ch=1 n=g4 v=0
318656 On ch=3 n=d#4 v=0
318656 On ch=3 n=d#3 v=0
318656 On ch=1 n=d#4 v=112
318656 On ch=2 n=d#3 v=112
318656 On ch=3 n=d#3 v=112
318656 On ch=3 n=d#4 v=112
318824 On ch=3 n=d#4 v=0
318824 On ch=3 n=d#3 v=0
318824 On ch=2 n=d#3 v=0
318824 On ch=1 n=d#4 v=0
318824 On ch=1 n=c#4 v=113
318824 On ch=2 n=c#3 v=113
318824 On ch=3 n=c#3 v=113
318824 On ch=3 n=c#4 v=113
319008 On ch=2 n=c#3 v=0
319008 On ch=1 n=c#4 v=0
319008 On ch=1 n=g4 v=115
319008 On ch=2 n=g3 v=115
319216 On ch=2 n=g3 v=0
319216 On ch=1 n=g4 v=0
319216 On ch=1 n=f4 v=116
319216 On ch=2 n=f3 v=116
319452 On ch=2 n=f3 v=0
319452 On ch=1 n=f4 v=0
319452 On ch=3 n=c#4 v=0
319452 On ch=3 n=c#3 v=0
319452 On ch=1 n=c#4 v=118
319452 On ch=2 n=c#3 v=118
319452 On ch=3 n=c#3 v=118
319452 On ch=3 n=c#4 v=118
319712 On ch=3 n=c#4 v=0
319712 On ch=3 n=c#3 v=0
319712 On ch=2 n=c#3 v=0
319712 On ch=1 n=c#4 v=0
319712 On ch=1 n=c4 v=119
319712 On ch=2 n=c3 v=119
319712 On ch=3 n=c3 v=119
319712 On ch=3 n=c4 v=119
319996 On ch=2 n=c3 v=0
319996 On ch=1 n=c4 v=0
319996 On ch=1 n=d#4 v=121
319996 On ch=2 n=d#3 v=121
320308 On ch=2 n=d#3 v=0
320308 On ch=1 n=d#4 v=0
320308 On ch=3 n=c4 v=0
320308 On ch=3 n=c3 v=0
320308 On ch=1 n=a#3 v=122
320308 On ch=2 n=a#2 v=122
320308 On ch=3 n=a#2 v=122
320308 On ch=3 n=a#3 v=122
320644 On ch=2 n=a#2 v=0
320644 On ch=1 n=a#3 v=0
320644 On ch=1 n=d#4 v=124
320644 On ch=2 n=d#3 v=124
321004 On ch=2 n=d#3 v=0
321004 On ch=1 n=d#4 v=0
321004 On ch=3 n=a#3 v=0
321004 On ch=3 n=a#2 v=0
321004 Par ch=1 c=64 v=127
321004 On ch=1 n=c#7 v=125
321004 On ch=1 n=f7 v=125
321004 Par ch=2 c=64 v=127
321004 On ch=2 n=f6 v=125
321004 Par ch=3 c=64 v=127
321004 On ch=3 n=g#2 v=125
321004 On ch=3 n=g#3 v=125
321260 On ch=3 n=g#3 v=0
321260 On ch=3 n=g#2 v=0
321344 On ch=3 n=d#4 v=121
321344 On ch=3 n=d#5 v=121
321516 On ch=2 n=f6 v=0
321516 On ch=1 n=f7 v=0
321516 On ch=1 n=c#7 v=0
321516 On ch=1 n=c7 v=119
321516 On ch=1 n=d#7 v=119
321516 On ch=2 n=d#6 v=119
321684 On ch=2 n=d#6 v=0
321684 On ch=1 n=d#7 v=0
321684 On ch=1 n=c7 v=0
321684 On ch=3 n=d#5 v=0
321684 On ch=3 n=d#4 v=0
321684 On ch=1 n=c7 v=117
321684 On ch=1 n=d#7 v=117
321684 On ch=2 n=d#6 v=117
321684 On ch=3 n=g#5 v=117
321684 On ch=3 n=c5 v=117
321684 On ch=3 n=g#4 v=117
321984 On ch=2 n=d#6 v=0
321984 Par ch=1 c=64 v=0
321984 Par ch=2 c=64 v=0
321984 On ch=2 n=d#5 v=113
321984 Par ch=3 c=64 v=0
322028 On ch=2 n=d#5 v=0
322028 On ch=3 n=g#4 v=0
322028 On ch=3 n=c5 v=0
322028 On ch=3 n=g#5 v=0
322028 On ch=1 n=d#7 v=0
322028 On ch=1 n=c7 v=0
322028 On ch=2 n=d#5 v=113
322028 On ch=3 n=d#3 v=113
322028 On ch=3 n=d#4 v=113
322076 On ch=2 n=d#5 v=0
322076 On ch=2 n=f5 v=112
322124 On ch=2 n=f5 v=0
322124 On ch=2 n=d#5 v=111
322172 On ch=2 n=d#5 v=0
322172 On ch=2 n=f5 v=111
322220 On ch=2 n=f5 v=0
322220 On ch=2 n=d#5 v=110
322272 On ch=2 n=d#5 v=0
322272 On ch=2 n=e5 v=110
322284 On ch=3 n=d#4 v=0
322284 On ch=3 n=d#3 v=0
322320 On ch=2 n=e5 v=0
322320 On ch=2 n=d#5 v=109
322368 On ch=2 n=d#5 v=0
322368 On ch=2 n=g#5 v=108
322368 On ch=3 n=g#4 v=108
322368 On ch=3 n=g#3 v=108
322540 On ch=2 n=g#5 v=0
322624 On ch=3 n=g#3 v=0
322624 On ch=3 n=g#4 v=0
322708 On ch=1 n=c7 v=104
322708 On ch=2 n=c6 v=104
322708 On ch=2 n=g#6 v=104
322708 On ch=3 n=d#2 v=104
322708 On ch=3 n=d#3 v=104
322880 On ch=2 n=g#6 v=0
322880 On ch=2 n=c6 v=0
322880 On ch=1 n=c7 v=0
322880 On ch=1 n=c#7 v=102
322880 On ch=2 n=c#6 v=102
322880 On ch=2 n=a#6 v=102
323048 On ch=2 n=a#6 v=0
323048 On ch=2 n=c#6 v=0
323048 On ch=1 n=c#7 v=0
323048 On ch=3 n=d#3 v=0
323048 On ch=3 n=d#2 v=0
323048 On ch=1 n=c#7 v=100
323048 On ch=1 n=f7 v=100
323048 On ch=2 n=f6 v=100
323048 On ch=3 n=g#2 v=100
323048 On ch=3 n=g#3 v=100
323176 On ch=2 n=f6 v=0
323176 On ch=1 n=f7 v=0
323176 On ch=1 n=c#7 v=0
323304 On ch=3 n=g#3 v=0
323304 On ch=3 n=g#2 v=0
323304 On ch=1 n=c7 v=100
323304 On ch=1 n=d#7 v=100
323304 On ch=2 n=d#6 v=100
323392 On ch=2 n=d#6 v=0
323392 On ch=1 n=d#7 v=0
323392 On ch=1 n=c7 v=0
323392 On ch=1 n=c7 v=100
323392 On ch=1 n=d#7 v=100
323392 On ch=2 n=d#6 v=100
323392 On ch=3 n=d#4 v=100
323392 On ch=3 n=d#5 v=100
323560 On ch=2 n=d#6 v=0
323560 On ch=1 n=d#7 v=0
323560 On ch=1 n=c7 v=0
323560 On ch=1 n=d7 v=100
323560 On ch=2 n=d6 v=100
323732 On ch=2 n=d6 v=0
323732 On ch=1 n=d7 v=0
323732 On ch=3 n=d#5 v=0
323732 On ch=3 n=d#4 v=0
323732 On ch=1 n=c7 v=100
323732 On ch=1 n=d#7 v=100
323732 On ch=2 n=d#6 v=100
323732 On ch=3 n=g#5 v=100
323732 On ch=3 n=c5 v=100
323732 On ch=3 n=g#4 v=100
324028 On ch=2 n=d#6 v=0
324028 On ch=2 n=d#5 v=100
324072 On ch=2 n=d#5 v=0
324072 On ch=3 n=g#4 v=0
324072 On ch=3 n=c5 v=0
324072 On ch=3 n=g#5 v=0
324072 On ch=1 n=d#7 v=0
324072 On ch=1 n=c7 v=0
324072 On ch=2 n=d#5 v=100
324072 On ch=3 n=d#3 v=100
324072 On ch=3 n=d#4 v=100
324120 On ch=2 n=d#5 v=0
324120 On ch=2 n=f5 v=100
324168 On ch=2 n=f5 v=0
324168 On ch=2 n=d#5 v=100
324220 On ch=2 n=d#5 v=0
324220 On ch=2 n=f5 v=100
324268 On ch=2 n=f5 v=0
324268 On ch=2 n=d#5 v=100
324316 On ch=2 n=d#5 v=0
324316 On ch=2 n=e5 v=100
324328 On ch=3 n=d#4 v=0
324328 On ch=3 n=d#3 v=0
324364 On ch=2 n=e5 v=0
324364 On ch=2 n=d#5 v=100
324412 On ch=2 n=d#5 v=0
324412 On ch=2 n=g#5 v=100
324412 On ch=3 n=g#4 v=100
324412 On ch=3 n=g#3 v=100
324584 On ch=2 n=g#5 v=0
324668 On ch=3 n=g#3 v=0
324668 On ch=3 n=g#4 v=0
324756 On ch=1 n=c7 v=100
324756 On ch=2 n=c6 v=100
324756 On ch=2 n=g#6 v=100
324756 On ch=3 n=d#2 v=100
324756 On ch=3 n=d#3 v=100
324924 On ch=2 n=g#6 v=0
324924 On ch=2 n=c6 v=0
324924 On ch=1 n=c7 v=0
324924 On ch=1 n=c#7 v=100
324924 On ch=2 n=c#6 v=100
324924 On ch=2 n=a#6 v=100
325096 On ch=2 n=a#6 v=0
325096 On ch=2 n=c#6 v=0
325096 On ch=1 n=c#7 v=0
325096 On ch=3 n=d#3 v=0
325096 On ch=3 n=d#2 v=0
325096 Par ch=1 c=64 v=127
325096 On ch=1 n=c#7 v=100
325096 On ch=1 n=f7 v=100
325096 Par ch=2 c=64 v=127
325096 On ch=2 n=f6 v=100
325096 Par ch=3 c=64 v=127
325096 On ch=3 n=g#2 v=100
325096 On ch=3 n=g#3 v=100
325224 On ch=1 n=f7 v=0
325224 On ch=1 n=c#7 v=0
325264 On ch=2 n=f6 v=0
325264 On ch=1 n=c7 v=100
325264 On ch=1 n=d#7 v=100
325264 On ch=2 n=d#6 v=100
325352 On ch=3 n=g#3 v=0
325352 On ch=3 n=g#2 v=0
325392 On ch=1 n=d#7 v=0
325392 On ch=1 n=c7 v=0
325392 On ch=1 n=f7 v=100
325436 On ch=1 n=f7 v=0
325436 On ch=1 n=c7 v=100
325436 On ch=1 n=d#7 v=100
325436 On ch=3 n=d#4 v=100
325436 On ch=3 n=d#5 v=100
325608 On ch=1 n=d#7 v=0
325608 On ch=1 n=c7 v=0
325608 On ch=2 n=d#6 v=0
325608 On ch=1 n=d7 v=100
325608 On ch=2 n=d6 v=100
325776 On ch=2 n=d6 v=0
325776 On ch=1 n=d7 v=0
325776 On ch=3 n=d#5 v=0
325776 On ch=3 n=d#4 v=0
325776 On ch=1 n=c#7 v=100
325776 On ch=1 n=f7 v=100
325776 On ch=2 n=f6 v=100
325776 On ch=3 n=g#5 v=100
325776 On ch=3 n=c5 v=100
325776 On ch=3 n=g#4 v=100
325948 On ch=2 n=f6 v=0
325948 On ch=1 n=f7 v=0
325948 On ch=1 n=c#7 v=0
325948 On ch=1 n=c7 v=100
325948 On ch=1 n=d#7 v=100
325948 Par ch=1 c=64 v=0
325948 Par ch=2 c=64 v=0
325948 On ch=2 n=d#6 v=100
325948 Par ch=3 c=64 v=0
326076 On ch=1 n=d#7 v=0
326076 On ch=1 n=c7 v=0
326076 On ch=1 n=f7 v=100
326116 On ch=1 n=f7 v=0
326116 On ch=3 n=g#4 v=0
326116 On ch=3 n=c5 v=0
326116 On ch=3 n=g#5 v=0
326116 On ch=1 n=c7 v=100
326116 On ch=1 n=d#7 v=100
326116 On ch=3 n=d#3 v=100
326116 On ch=3 n=d#4 v=100
326288 On ch=1 n=d#7 v=0
326288 On ch=1 n=c7 v=0
326288 On ch=2 n=d#6 v=0
326288 On ch=1 n=d7 v=100
326288 On ch=2 n=d6 v=100
326372 On ch=3 n=d#4 v=0
326372 On ch=3 n=d#3 v=0
326460 On ch=2 n=d6 v=0
326460 On ch=1 n=d7 v=0
326460 On ch=1 n=c7 v=100
326460 On ch=1 n=d#7 v=100
326460 On ch=2 n=d#6 v=100
326460 On ch=3 n=g#4 v=100
326460 On ch=3 n=g#3 v=100
326628 On ch=2 n=d#6 v=0
326628 On ch=1 n=d#7 v=0
326628 On ch=1 n=c7 v=0
326716 On ch=3 n=g#3 v=0
326716 On ch=3 n=g#4 v=0
326800 Par ch=1 c=64 v=127
326800 Par ch=2 c=64 v=127
326800 On ch=2 n=d#6 v=100
326800 Par ch=3 c=64 v=127
326800 On ch=3 n=d#3 v=100
326844 On ch=2 n=a#6 v=100
326844 On ch=3 n=a#3 v=100
326884 On ch=2 n=f#7 v=100
326884 On ch=3 n=f#4 v=100
327140 On ch=3 n=f#4 v=0
327140 On ch=2 n=f#7 v=0
327140 On ch=3 n=a#3 v=0
327140 On ch=2 n=a#6 v=0
327140 On ch=3 n=d#3 v=0
327140 On ch=2 n=d#6 v=0
327140 Par ch=1 c=64 v=0
327140 Par ch=1 c=64 v=127
327140 Par ch=1 c=64 v=0
327140 Par ch=1 c=64 v=127
327140 Par ch=2 c=64 v=0
327140 Par ch=2 c=64 v=127
327140 On ch=2 n=d#6 v=100
327140 On ch=2 n=a6 v=100
327140 On ch=2 n=f7 v=100
327140 Par ch=2 c=64 v=0
327140 Par ch=2 c=64 v=127
327140 Par ch=3 c=64 v=0
327140 Par ch=3 c=64 v=127
327140 Par ch=3 c=64 v=0
327140 Par ch=3 c=64 v=127
327140 On ch=3 n=f3 v=100
327140 On ch=3 n=c4 v=100
327140 On ch=3 n=d#4 v=100
327140 On ch=3 n=a4 v=100
327480 On ch=3 n=a4 v=0
327480 On ch=3 n=d#4 v=0
327480 On ch=3 n=c4 v=0
327480 On ch=3 n=f3 v=0
327480 On ch=2 n=f7 v=0
327480 On ch=2 n=a6 v=0
327480 On ch=2 n=d#6 v=0
327480 Par ch=1 c=64 v=0
327480 Par ch=1 c=64 v=127
327480 Par ch=1 c=64 v=0
327480 Par ch=1 c=64 v=127
327480 Par ch=2 c=64 v=0
327480 Par ch=2 c=64 v=127
327480 On ch=2 n=c6 v=100
327480 On ch=2 n=d#6 v=100
327480 On ch=2 n=f6 v=100
327480 On ch=2 n=c7 v=100
327480 Par ch=2 c=64 v=0
327480 Par ch=2 c=64 v=127
327480 Par ch=3 c=64 v=0
327480 Par ch=3 c=64 v=127
327480 Par ch=3 c=64 v=0
327480 Par ch=3 c=64 v=127
327480 On ch=3 n=f4 v=100
327480 On ch=3 n=c5 v=100
327480 On ch=3 n=d#5 v=100
327480 On ch=3 n=a5 v=100
327824 On ch=3 n=a5 v=0
327824 On ch=3 n=d#5 v=0
327824 On ch=3 n=c5 v=0
327824 On ch=3 n=f4 v=0
327824 On ch=2 n=c7 v=0
327824 On ch=2 n=f6 v=0
327824 On ch=2 n=d#6 v=0
327824 On ch=2 n=c6 v=0
327824 Par ch=1 c=64 v=0
327824 Par ch=1 c=64 v=127
327824 Par ch=1 c=64 v=0
327824 Par ch=1 c=64 v=127
327824 Par ch=2 c=64 v=0
327824 Par ch=2 c=64 v=127
327824 On ch=2 n=a#5 v=100
327824 On ch=2 n=f6 v=100
327824 On ch=2 n=c#7 v=100
327824 Par ch=2 c=64 v=0
327824 Par ch=2 c=64 v=127
327824 Par ch=3 c=64 v=0
327824 Par ch=3 c=64 v=127
327824 Par ch=3 c=64 v=0
327824 Par ch=3 c=64 v=127
327824 On ch=3 n=a#3 v=100
327824 On ch=3 n=f4 v=100
327824 On ch=3 n=c#5 v=100
327992 On ch=2 n=c#7 v=0
327992 On ch=2 n=f6 v=0
327992 On ch=2 n=a#5 v=0
328164 On ch=3 n=c#5 v=0
328164 On ch=3 n=f4 v=0
328164 On ch=3 n=a#3 v=0
328164 Par ch=1 c=64 v=0
328164 Par ch=2 c=64 v=0
328164 On ch=2 n=f#6 v=100
328164 Par ch=3 c=64 v=0
328164 On ch=3 n=f#4 v=100
328164 On ch=3 n=f#3 v=100
328276 On ch=2 n=f#6 v=0
328276 On ch=2 n=f#5 v=100
328392 On ch=2 n=f#5 v=0
328392 On ch=2 n=f#6 v=100
328504 On ch=2 n=f#6 v=0
328504 On ch=3 n=f#3 v=0
328504 On ch=3 n=f#4 v=0
328504 On ch=2 n=f5 v=100
328504 On ch=2 n=f6 v=100
328504 On ch=3 n=f3 v=100
328504 On ch=3 n=f4 v=100
328844 On ch=3 n=f4 v=0
328844 On ch=3 n=f3 v=0
328844 On ch=2 n=f6 v=0
328844 On ch=2 n=f5 v=0
328844 On ch=2 n=c#5 v=100
328844 On ch=2 n=c#6 v=100
328844 On ch=3 n=c#3 v=100
328844 On ch=3 n=c#4 v=100
329184 On ch=3 n=c#4 v=0
329184 On ch=3 n=c#3 v=0
329184 On ch=2 n=c#6 v=0
329184 On ch=2 n=c#5 v=0
329184 Par ch=1 c=64 v=127
329184 On ch=1 n=d#7 v=100
329184 On ch=1 n=f#7 v=100
329184 Par ch=1 c=64 v=0
329184 Par ch=1 c=64 v=127
329184 Par ch=1 c=64 v=0
329184 Par ch=1 c=64 v=127
329184 Par ch=2 c=64 v=127
329184 Par ch=2 c=64 v=0
329184 Par ch=2 c=64 v=127
329184 On ch=2 n=f#6 v=100
329184 Par ch=2 c=64 v=0
329184 Par ch=2 c=64 v=127
329184 Par ch=3 c=64 v=127
329184 Par ch=3 c=64 v=0
329184 Par ch=3 c=64 v=127
329184 Par ch=3 c=64 v=0
329184 Par ch=3 c=64 v=127
329184 On ch=3 n=a#2 v=100
329184 On ch=3 n=a#3 v=100
329440 On ch=3 n=a#3 v=0
329440 On ch=3 n=a#2 v=0
329528 On ch=3 n=f4 v=100
329528 On ch=3 n=f5 v=100
329696 On ch=2 n=f#6 v=0
329696 On ch=1 n=f#7 v=0
329696 On ch=1 n=d#7 v=0
329696 On ch=1 n=c#7 v=100
329696 On ch=1 n=f7 v=100
329696 On ch=2 n=f6 v=100
329868 On ch=2 n=f6 v=0
329868 On ch=1 n=f7 v=0
329868 On ch=1 n=c#7 v=0
329868 On ch=3 n=f5 v=0
329868 On ch=3 n=f4 v=0
329868 On ch=1 n=c#7 v=100
329868 On ch=1 n=f7 v=100
329868 On ch=2 n=f6 v=100
329868 On ch=3 n=a#5 v=100
329868 On ch=3 n=c#5 v=100
329868 On ch=3 n=a#4 v=100
330164 On ch=2 n=f6 v=0
330164 Par ch=1 c=64 v=0
330164 Par ch=2 c=64 v=0
330164 On ch=2 n=f5 v=100
330164 Par ch=3 c=64 v=0
330208 On ch=2 n=f5 v=0
330208 On ch=3 n=a#4 v=0
330208 On ch=3 n=c#5 v=0
330208 On ch=3 n=a#5 v=0
330208 On ch=1 n=f7 v=0
330208 On ch=1 n=c#7 v=0
330208 On ch=2 n=f5 v=100
330208 On ch=3 n=f3 v=100
330208 On ch=3 n=f4 v=100
330256 On ch=2 n=f5 v=0
330256 On ch=2 n=f#5 v=100
330304 On ch=2 n=f#5 v=0
330304 On ch=2 n=f5 v=100
330356 On ch=2 n=f5 v=0
330356 On ch=2 n=f#5 v=100
330404 On ch=2 n=f#5 v=0
330404 On ch=2 n=f5 v=100
330452 On ch=2 n=f5 v=0
330452 On ch=2 n=e5 v=100
330464 On ch=3 n=f4 v=0
330464 On ch=3 n=f3 v=0
330500 On ch=2 n=e5 v=0
330500 On ch=2 n=f5 v=100
330548 On ch=2 n=f5 v=0
330548 On ch=2 n=a#5 v=100
330548 On ch=3 n=a#4 v=100
330548 On ch=3 n=a#3 v=100
330804 On ch=3 n=a#3 v=0
330804 On ch=3 n=a#4 v=0
330892 On ch=2 n=a#5 v=0
330892 On ch=1 n=c#7 v=100
330892 On ch=2 n=c#6 v=100
330892 On ch=3 n=f2 v=100
330892 On ch=3 n=f3 v=100
331060 On ch=2 n=c#6 v=0
331060 On ch=1 n=c#7 v=0
331060 On ch=1 n=c7 v=100
331060 On ch=1 n=d#7 v=100
331060 Par ch=1 c=64 v=127
331060 Par ch=2 c=64 v=127
331060 On ch=2 n=d#6 v=100
331060 Par ch=3 c=64 v=127
331232 On ch=2 n=d#6 v=0
331232 On ch=1 n=d#7 v=0
331232 On ch=1 n=c7 v=0
331232 On ch=3 n=f3 v=0
331232 On ch=3 n=f2 v=0
331232 On ch=1 n=d#7 v=100
331232 On ch=1 n=f#7 v=100
331232 On ch=2 n=f#6 v=100
331232 On ch=3 n=a#2 v=100
331232 On ch=3 n=a#3 v=100
331400 On ch=2 n=f#6 v=0
331400 On ch=1 n=f#7 v=0
331400 On ch=1 n=d#7 v=0
331488 On ch=3 n=a#3 v=0
331488 On ch=3 n=a#2 v=0
331488 On ch=1 n=c#7 v=100
331488 On ch=1 n=f7 v=100
331488 On ch=2 n=f6 v=100
331572 On ch=2 n=f6 v=0
331572 On ch=1 n=f7 v=0
331572 On ch=1 n=c#7 v=0
331572 On ch=1 n=c#7 v=100
331572 On ch=1 n=f7 v=100
331572 On ch=2 n=f6 v=100
331572 On ch=3 n=f4 v=100
331572 On ch=3 n=f5 v=100
331744 On ch=2 n=f6 v=0
331744 On ch=1 n=f7 v=0
331744 On ch=1 n=c#7 v=0
331744 On ch=1 n=c7 v=100
331744 On ch=1 n=e7 v=100
331744 On ch=2 n=e6 v=100
331912 On ch=2 n=e6 v=0
331912 On ch=1 n=e7 v=0
331912 On ch=1 n=c7 v=0
331912 On ch=3 n=f5 v=0
331912 On ch=3 n=f4 v=0
331912 On ch=1 n=c#7 v=100
331912 On ch=1 n=f7 v=100
331912 On ch=2 n=f6 v=100
331912 On ch=3 n=a#5 v=100
331912 On ch=3 n=c#5 v=100
331912 On ch=3 n=a#4 v=100
332212 On ch=2 n=f6 v=0
332212 Par ch=1 c=64 v=0
332212 Par ch=2 c=64 v=0
332212 On ch=2 n=f5 v=100
332212 Par ch=3 c=64 v=0
332256 On ch=2 n=f5 v=0
332256 On ch=3 n=a#4 v=0
332256 On ch=3 n=c#5 v=0
332256 On ch=3 n=a#5 v=0
332256 On ch=1 n=f7 v=0
332256 On ch=1 n=c#7 v=0
332256 On ch=2 n=f5 v=100
332256 On ch=3 n=f3 v=100
332256 On ch=3 n=f4 v=100
332304 On ch=2 n=f5 v=0
332304 On ch=2 n=f#5 v=100
332352 On ch=2 n=f#5 v=0
332352 On ch=2 n=f5 v=100
332400 On ch=2 n=f5 v=0
332400 On ch=2 n=f#5 v=100
332448 On ch=2 n=f#5 v=0
332448 On ch=2 n=f5 v=100
332496 On ch=2 n=f5 v=0
332496 On ch=2 n=e5 v=100
332508 On ch=3 n=f4 v=0
332508 On ch=3 n=f3 v=0
332544 On ch=2 n=e5 v=0
332544 On ch=2 n=f5 v=100
332596 On ch=2 n=f5 v=0
332596 On ch=2 n=a#5 v=100
332596 On ch=3 n=a#4 v=100
332596 On ch=3 n=a#3 v=100
332852 On ch=3 n=a#3 v=0
332852 On ch=3 n=a#4 v=0
332936 On ch=2 n=a#5 v=0
332936 Par ch=1 c=64 v=127
332936 On ch=1 n=c#7 v=100
332936 On ch=1 n=g7 v=100
332936 Par ch=2 c=64 v=127
332936 On ch=2 n=g6 v=100
332936 Par ch=3 c=64 v=127
332936 On ch=3 n=a#3 v=100
332936 On ch=3 n=a#2 v=100
333108 On ch=2 n=g6 v=0
333108 On ch=1 n=g7 v=0
333108 On ch=1 n=c#7 v=0
333108 On ch=1 n=g#7 v=100
333108 On ch=2 n=g#6 v=100
333276 On ch=2 n=g#6 v=0
333276 On ch=1 n=g#7 v=0
333276 On ch=3 n=a#2 v=0
333276 On ch=3 n=a#3 v=0
333276 On ch=1 n=c8 v=100
333276 On ch=2 n=c7 v=100
333276 On ch=3 n=d#2 v=100
333276 On ch=3 n=d#3 v=100
333448 On ch=3 n=d#3 v=0
333448 On ch=3 n=d#2 v=0
333448 On ch=2 n=c7 v=0
333448 On ch=1 n=c8 v=0
333448 On ch=1 n=g7 v=100
333448 On ch=2 n=d#7 v=100
333616 On ch=2 n=d#7 v=0
333616 On ch=1 n=g7 v=0
333616 On ch=1 n=c7 v=100
333616 On ch=1 n=c8 v=100
333616 On ch=2 n=c6 v=100
333616 On ch=3 n=c#5 v=100
333616 On ch=3 n=d#5 v=100
333616 On ch=3 n=g5 v=100
333704 On ch=1 n=c8 v=0
333704 On ch=1 n=c7 v=0
333788 On ch=2 n=c6 v=0
333788 Par ch=1 c=64 v=0
333788 Par ch=2 c=64 v=0
333788 On ch=2 n=a#5 v=100
333788 Par ch=3 c=64 v=0
333872 On ch=1 n=a#6 v=100
333872 On ch=1 n=a#7 v=100
333960 On ch=1 n=a#7 v=0
333960 On ch=1 n=a#6 v=0
333960 On ch=2 n=a#5 v=0
333960 On ch=3 n=g5 v=0
333960 On ch=3 n=d#5 v=0
333960 On ch=3 n=c#5 v=0
333960 Par ch=1 c=64 v=127
333960 On ch=1 n=a#7 v=100
333960 Par ch=2 c=64 v=127
333960 On ch=2 n=a#6 v=100
333960 Par ch=3 c=64 v=127
333960 On ch=3 n=d#4 v=100
334128 On ch=3 n=d#4 v=0
334128 On ch=2 n=a#6 v=0
334128 On ch=1 n=a#7 v=0
334128 On ch=1 n=f7 v=100
334128 On ch=2 n=c7 v=100
334300 On ch=2 n=c7 v=0
334300 On ch=1 n=f7 v=0
334300 On ch=1 n=a#6 v=100
334300 On ch=1 n=a#7 v=100
334300 On ch=2 n=a#5 v=100
334300 On ch=3 n=c5 v=100
334300 On ch=3 n=d#5 v=100
334384 On ch=1 n=a#7 v=0
334384 On ch=1 n=a#6 v=0
334468 On ch=3 n=d#5 v=0
334468 On ch=3 n=c5 v=0
334468 On ch=2 n=a#5 v=0
334468 Par ch=1 c=64 v=0
334468 Par ch=2 c=64 v=0
334468 On ch=2 n=g#5 v=100
334468 Par ch=3 c=64 v=0
334556 On ch=1 n=g#6 v=100
334556 On ch=1 n=g#7 v=100
334640 On ch=1 n=g#7 v=0
334640 On ch=1 n=g#6 v=0
334640 On ch=2 n=g#5 v=0
334640 Par ch=1 c=64 v=127
334640 On ch=1 n=g#7 v=100
334640 Par ch=1 c=64 v=0
334640 Par ch=1 c=64 v=127
334640 Par ch=2 c=64 v=127
334640 On ch=2 n=g#6 v=100
334640 Par ch=2 c=64 v=0
334640 Par ch=2 c=64 v=127
334640 Par ch=3 c=64 v=127
334640 Par ch=3 c=64 v=0
334640 Par ch=3 c=64 v=127
334640 On ch=3 n=d#4 v=100
334812 On ch=3 n=d#4 v=0
334812 On ch=2 n=g#6 v=0
334812 On ch=1 n=g#7 v=0
334812 On ch=1 n=d#7 v=100
334812 On ch=2 n=a#6 v=100
334980 On ch=2 n=a#6 v=0
334980 On ch=1 n=d#7 v=0
334980 On ch=1 n=g#6 v=100
334980 On ch=1 n=g#7 v=100
334980 On ch=2 n=g#5 v=100
334980 On ch=3 n=a#4 v=100
334980 On ch=3 n=d#5 v=100
335068 On ch=1 n=g#7 v=0
335068 On ch=1 n=g#6 v=0
335152 On ch=2 n=g#5 v=0
335152 Par ch=1 c=64 v=0
335152 Par ch=2 c=64 v=0
335152 On ch=2 n=g5 v=100
335152 Par ch=3 c=64 v=0
335236 On ch=1 n=g6 v=100
335236 On ch=1 n=g7 v=100
335324 On ch=1 n=g7 v=0
335324 On ch=1 n=g6 v=0
335324 On ch=2 n=g5 v=0
335324 On ch=3 n=d#5 v=0
335324 On ch=3 n=a#4 v=0
335324 Par ch=1 c=64 v=127
335324 On ch=1 n=g7 v=100
335324 Par ch=2 c=64 v=127
335324 On ch=2 n=g6 v=100
335324 Par ch=3 c=64 v=127
335324 On ch=3 n=a#3 v=100
335496 On ch=3 n=a#3 v=0
335496 On ch=2 n=g6 v=0
335496 On ch=1 n=g7 v=0
335496 On ch=1 n=d7 v=100
335496 On ch=2 n=a#6 v=100
335680 On ch=2 n=a#6 v=0
335680 On ch=1 n=d7 v=0
335680 On ch=1 n=g6 v=100
335680 On ch=1 n=g7 v=100
335680 On ch=2 n=g5 v=100
335680 On ch=3 n=g#4 v=100
335680 On ch=3 n=a#4 v=100
335680 On ch=3 n=d5 v=100
335772 On ch=1 n=g7 v=0
335772 On ch=1 n=g6 v=0
335864 On ch=3 n=d5 v=0
335864 On ch=3 n=a#4 v=0
335864 On ch=3 n=g#4 v=0
335864 On ch=2 n=g5 v=0
335864 Par ch=1 c=64 v=0
335864 Par ch=2 c=64 v=0
335864 On ch=2 n=f5 v=100
335864 Par ch=3 c=64 v=0
335960 On ch=1 n=f6 v=100
335960 On ch=1 n=f7 v=100
336060 On ch=1 n=f7 v=0
336060 On ch=1 n=f6 v=0
336060 On ch=2 n=f5 v=0
336060 Par ch=1 c=64 v=127
336060 On ch=1 n=f7 v=100
336060 Par ch=1 c=64 v=0
336060 Par ch=1 c=64 v=127
336060 Par ch=2 c=64 v=127
336060 On ch=2 n=f6 v=100
336060 Par ch=2 c=64 v=0
336060 Par ch=2 c=64 v=127
336060 Par ch=3 c=64 v=127
336060 Par ch=3 c=64 v=0
336060 Par ch=3 c=64 v=127
336060 On ch=3 n=d#4 v=100
336260 On ch=3 n=d#4 v=0
336260 On ch=2 n=f6 v=0
336260 On ch=1 n=f7 v=0
336260 On ch=1 n=a#6 v=100
336260 On ch=2 n=g6 v=100
336468 On ch=2 n=g6 v=0
336468 On ch=1 n=a#6 v=0
336468 On ch=1 n=f6 v=100
336468 On ch=1 n=f7 v=100
336468 On ch=2 n=f5 v=100
336468 On ch=3 n=g4 v=100
336468 On ch=3 n=a#4 v=100
336572 On ch=1 n=f7 v=0
336572 On ch=1 n=f6 v=0
336680 On ch=3 n=a#4 v=0
336680 On ch=3 n=g4 v=0
336680 On ch=2 n=f5 v=0
336680 Par ch=1 c=64 v=0
336680 Par ch=2 c=64 v=0
336680 On ch=2 n=d#5 v=100
336680 Par ch=3 c=64 v=0
336788 On ch=1 n=d#6 v=100
336788 On ch=1 n=d#7 v=100
336900 On ch=1 n=d#7 v=0
336900 On ch=1 n=d#6 v=0
336900 On ch=2 n=d#5 v=0
336900 Par ch=1 c=64 v=127
336900 On ch=1 n=c#7 v=100
336900 Par ch=1 c=64 v=0
336900 Par ch=1 c=64 v=127
336900 Par ch=2 c=64 v=127
336900 On ch=2 n=c#6 v=100
336900 Par ch=2 c=64 v=0
336900 Par ch=2 c=64 v=127
336900 Par ch=3 c=64 v=127
336900 Par ch=3 c=64 v=0
336900 Par ch=3 c=64 v=127
336900 On ch=3 n=f3 v=100
336900 On ch=3 n=f4 v=100
337128 On ch=3 n=f4 v=0
337128 On ch=3 n=f3 v=0
337128 On ch=2 n=c#6 v=0
337128 On ch=1 n=c#7 v=0
337128 On ch=1 n=g#6 v=100
337128 On ch=2 n=f6 v=100
337360 On ch=2 n=f6 v=0
337360 On ch=1 n=g#6 v=0
337360 On ch=1 n=c#6 v=100
337360 On ch=1 n=c#7 v=100
337360 On ch=2 n=c#5 v=100
337360 On ch=3 n=g#4 v=100
337480 On ch=1 n=c#7 v=0
337480 On ch=1 n=c#6 v=0
337600 On ch=3 n=g#4 v=0
337600 On ch=2 n=c#5 v=0
337600 Par ch=1 c=64 v=0
337600 Par ch=2 c=64 v=0
337600 On ch=2 n=c5 v=100
337600 Par ch=3 c=64 v=0
337724 On ch=1 n=c6 v=100
337724 On ch=1 n=c7 v=100
337848 On ch=1 n=c7 v=0
337848 On ch=1 n=c6 v=0
337848 On ch=2 n=c5 v=0
337848 Par ch=1 c=64 v=127
337848 Par ch=2 c=64 v=127
337848 On ch=2 n=f5 v=100
337848 Par ch=3 c=64 v=127
337848 On ch=3 n=c#3 v=100
337848 On ch=3 n=c#4 v=100
338188 On ch=3 n=c#4 v=0
338188 On ch=3 n=c#3 v=0
338188 On ch=3 n=f4 v=100
338188 On ch=3 n=a#4 v=100
338528 On ch=3 n=a#4 v=0
338528 On ch=3 n=f4 v=0
338528 On ch=2 n=f5 v=0
338528 Par ch=1 c=64 v=0
338528 Par ch=1 c=64 v=127
338528 Par ch=1 c=64 v=0
338528 Par ch=1 c=64 v=127
338528 Par ch=2 c=64 v=0
338528 Par ch=2 c=64 v=127
338528 On ch=2 n=g5 v=100
338528 Par ch=2 c=64 v=0
338528 Par ch=2 c=64 v=127
338528 Par ch=3 c=64 v=0
338528 Par ch=3 c=64 v=127
338528 Par ch=3 c=64 v=0
338528 Par ch=3 c=64 v=127
338528 On ch=3 n=c3 v=100
338528 On ch=3 n=c4 v=100
338600 On ch=2 n=g5 v=0
338600 On ch=2 n=g#5 v=100
338668 On ch=2 n=g#5 v=0
338668 On ch=2 n=g5 v=100
338736 On ch=2 n=g5 v=0
338736 On ch=2 n=g#5 v=100
338804 On ch=2 n=g#5 v=0
338804 On ch=2 n=g5 v=100
338872 On ch=2 n=g5 v=0
338872 On ch=3 n=c4 v=0
338872 On ch=3 n=c3 v=0
338872 On ch=2 n=f5 v=100
338872 On ch=3 n=e4 v=100
338872 On ch=3 n=a#4 v=100
338872 On ch=3 n=c5 v=100
339040 On ch=2 n=f5 v=0
339040 On ch=2 n=g5 v=100
339212 On ch=2 n=g5 v=0
339212 On ch=3 n=c5 v=0
339212 On ch=3 n=a#4 v=0
339212 On ch=3 n=e4 v=0
339212 Par ch=1 c=64 v=0
339212 Par ch=1 c=64 v=127
339212 Par ch=1 c=64 v=0
339212 Par ch=1 c=64 v=127
339212 Par ch=2 c=64 v=0
339212 Par ch=2 c=64 v=127
339212 On ch=2 n=g#5 v=100
339212 Par ch=2 c=64 v=0
339212 Par ch=2 c=64 v=127
339212 Par ch=3 c=64 v=0
339212 Par ch=3 c=64 v=127
339212 Par ch=3 c=64 v=0
339212 Par ch=3 c=64 v=127
339212 On ch=3 n=f2 v=100
339212 On ch=3 n=f3 v=100
339280 On ch=2 n=g#5 v=0
339280 On ch=2 n=a#5 v=100
339348 On ch=2 n=a#5 v=0
339348 On ch=2 n=g#5 v=100
339416 On ch=2 n=g#5 v=0
339416 On ch=2 n=a#5 v=100
339484 On ch=2 n=a#5 v=0
339484 On ch=2 n=g#5 v=100
339552 On ch=2 n=g#5 v=0
339552 On ch=3 n=f3 v=0
339552 On ch=3 n=f2 v=0
339552 On ch=2 n=g5 v=100
339552 On ch=3 n=f4 v=100
339552 On ch=3 n=g#4 v=100
339552 On ch=3 n=c5 v=100
339724 On ch=2 n=g5 v=0
339724 On ch=2 n=g#5 v=100
339892 On ch=2 n=g#5 v=0
339892 On ch=3 n=c5 v=0
339892 On ch=3 n=g#4 v=0
339892 On ch=3 n=f4 v=0
339892 On ch=1 n=a5 v=100
339892 Par ch=1 c=64 v=0
339892 Par ch=1 c=64 v=127
339892 Par ch=1 c=64 v=0
339892 Par ch=1 c=64 v=127
339892 Par ch=2 c=64 v=0
339892 Par ch=2 c=64 v=127
339892 On ch=2 n=c#5 v=100
339892 On ch=2 n=g5 v=100
339892 Par ch=2 c=64 v=0
339892 Par ch=2 c=64 v=127
339892 Par ch=3 c=64 v=0
339892 Par ch=3 c=64 v=127
339892 Par ch=3 c=64 v=0
339892 Par ch=3 c=64 v=127
339892 On ch=3 n=d#3 v=100
339892 On ch=3 n=d#4 v=100
340064 On ch=1 n=a5 v=0
340064 On ch=1 n=a#5 v=100
340236 On ch=1 n=a#5 v=0
340236 On ch=3 n=d#4 v=0
340236 On ch=3 n=d#3 v=0
340236 On ch=2 n=g5 v=0
340236 On ch=2 n=c#5 v=0
340236 On ch=1 n=c6 v=100
340236 On ch=2 n=c#5 v=100
340236 On ch=2 n=g5 v=100
340236 On ch=3 n=d#4 v=100
340236 On ch=3 n=a#4 v=100
340404 On ch=1 n=c6 v=0
340404 On ch=1 n=c#6 v=100
340576 On ch=1 n=c#6 v=0
340576 On ch=3 n=a#4 v=0
340576 On ch=3 n=d#4 v=0
340576 On ch=2 n=g5 v=0
340576 On ch=2 n=c#5 v=0
340576 Par ch=1 c=64 v=0
340576 On ch=1 n=c6 v=100
340576 Par ch=2 c=64 v=0
340576 On ch=2 n=c5 v=100
340576 On ch=2 n=g#5 v=100
340576 Par ch=3 c=64 v=0
340576 On ch=3 n=g#3 v=100
340576 On ch=3 n=d#4 v=100
340576 On ch=3 n=g#4 v=100
340744 On ch=3 n=g#4 v=0
340744 On ch=3 n=d#4 v=0
340744 On ch=3 n=g#3 v=0
340744 On ch=2 n=g#5 v=0
340744 On ch=2 n=c5 v=0
340744 On ch=1 n=c6 v=0
340916 On ch=1 n=f6 v=100
340916 On ch=2 n=g#5 v=100
340916 On ch=3 n=b4 v=100
340916 On ch=3 n=d5 v=100
340916 On ch=3 n=f5 v=100
341172 On ch=3 n=f5 v=0
341172 On ch=3 n=d5 v=0
341172 On ch=3 n=b4 v=0
341172 On ch=2 n=g#5 v=0
341172 On ch=1 n=f6 v=0
341172 On ch=1 n=d#6 v=100
341172 On ch=2 n=g#5 v=100
341172 On ch=3 n=c5 v=100
341172 On ch=3 n=d#5 v=100
341256 On ch=3 n=d#5 v=0
341256 On ch=3 n=c5 v=0
341256 On ch=2 n=g#5 v=0
341256 On ch=1 n=d#6 v=0
341256 On ch=1 n=d#6 v=100
341256 On ch=2 n=g#5 v=100
341256 On ch=3 n=c5 v=100
341256 On ch=3 n=d#5 v=100
341344 On ch=2 n=g#5 v=0
341344 On ch=1 n=d#6 v=0
341428 On ch=3 n=d#5 v=0
341428 On ch=3 n=c5 v=0
341428 Par ch=1 c=64 v=127
341428 Par ch=2 c=64 v=127
341428 On ch=2 n=g#5 v=100
341428 Par ch=3 c=64 v=127
341600 On ch=1 n=g#6 v=100
341600 On ch=3 n=g#3 v=100
341600 On ch=3 n=g#4 v=100
341768 On ch=1 n=g#6 v=0
341768 On ch=2 n=g#5 v=0
341852 On ch=1 n=g6 v=100
341852 On ch=2 n=g5 v=100
341940 On ch=2 n=g5 v=0
341940 On ch=1 n=g6 v=0
341940 On ch=3 n=g#4 v=0
341940 On ch=3 n=g#3 v=0
341940 Par ch=1 c=64 v=0
341940 Par ch=1 c=64 v=127
341940 On ch=1 n=f6 v=100
341940 Par ch=2 c=64 v=0
341940 Par ch=2 c=64 v=127
341940 On ch=2 n=f5 v=100
341940 Par ch=3 c=64 v=0
341940 Par ch=3 c=64 v=127
341940 On ch=3 n=c#3 v=100
341940 On ch=3 n=c#4 v=100
342280 On ch=3 n=c#4 v=0
342280 On ch=3 n=c#3 v=0
342280 On ch=3 n=f4 v=103
342280 On ch=3 n=a#4 v=103
342620 On ch=3 n=a#4 v=0
342620 On ch=3 n=f4 v=0
342620 On ch=2 n=f5 v=0
342620 On ch=1 n=f6 v=0
342620 Par ch=1 c=64 v=0
342620 Par ch=1 c=64 v=127
342620 Par ch=1 c=64 v=0
342620 Par ch=1 c=64 v=127
342620 Par ch=1 c=64 v=0
342620 Par ch=1 c=64 v=127
342620 Par ch=2 c=64 v=0
342620 Par ch=2 c=64 v=127
342620 Par ch=2 c=64 v=0
342620 Par ch=2 c=64 v=127
342620 On ch=2 n=g5 v=106
342620 Par ch=2 c=64 v=0
342620 Par ch=2 c=64 v=127
342620 Par ch=3 c=64 v=0
342620 Par ch=3 c=64 v=127
342620 Par ch=3 c=64 v=0
342620 Par ch=3 c=64 v=127
342620 Par ch=3 c=64 v=0
342620 Par ch=3 c=64 v=127
342620 On ch=3 n=c3 v=106
342620 On ch=3 n=c4 v=106
342792 On ch=2 n=g5 v=0
342792 On ch=1 n=g6 v=107
342848 On ch=1 n=g6 v=0
342848 On ch=1 n=g#6 v=108
342904 On ch=1 n=g#6 v=0
342904 On ch=1 n=g6 v=108
342960 On ch=1 n=g6 v=0
342960 On ch=3 n=c4 v=0
342960 On ch=3 n=c3 v=0
342960 On ch=1 n=f6 v=109
342960 On ch=2 n=f5 v=109
342960 On ch=3 n=a#4 v=109
342960 On ch=3 n=c5 v=109
342960 On ch=3 n=e5 v=109
343132 On ch=2 n=f5 v=0
343132 On ch=1 n=f6 v=0
343132 On ch=1 n=g6 v=110
343132 On ch=2 n=g5 v=110
343304 On ch=2 n=g5 v=0
343304 On ch=1 n=g6 v=0
343304 On ch=3 n=e5 v=0
343304 On ch=3 n=c5 v=0
343304 On ch=3 n=a#4 v=0
343304 Par ch=1 c=64 v=0
343304 Par ch=1 c=64 v=127
343304 Par ch=1 c=64 v=0
343304 Par ch=1 c=64 v=127
343304 Par ch=1 c=64 v=0
343304 Par ch=1 c=64 v=127
343304 Par ch=2 c=64 v=0
343304 Par ch=2 c=64 v=127
343304 Par ch=2 c=64 v=0
343304 Par ch=2 c=64 v=127
343304 On ch=2 n=g#5 v=111
343304 Par ch=2 c=64 v=0
343304 Par ch=2 c=64 v=127
343304 Par ch=3 c=64 v=0
343304 Par ch=3 c=64 v=127
343304 Par ch=3 c=64 v=0
343304 Par ch=3 c=64 v=127
343304 Par ch=3 c=64 v=0
343304 Par ch=3 c=64 v=127
343304 On ch=3 n=f2 v=111
343304 On ch=3 n=f3 v=111
343472 On ch=2 n=g#5 v=0
343472 On ch=1 n=g#6 v=113
343528 On ch=1 n=g#6 v=0
343528 On ch=1 n=a#6 v=113
343588 On ch=1 n=a#6 v=0
343588 On ch=1 n=g#6 v=114
343644 On ch=1 n=g#6 v=0
343644 On ch=3 n=f3 v=0
343644 On ch=3 n=f2 v=0
343644 On ch=1 n=g6 v=114
343644 On ch=2 n=g5 v=114
343644 On ch=3 n=g#4 v=114
343644 On ch=3 n=c5 v=114
343644 On ch=3 n=f5 v=114
343812 On ch=2 n=g5 v=0
343812 On ch=1 n=g6 v=0
343812 On ch=1 n=g#6 v=116
343812 On ch=2 n=g#5 v=116
343984 On ch=2 n=g#5 v=0
343984 On ch=1 n=g#6 v=0
343984 On ch=3 n=f5 v=0
343984 On ch=3 n=c5 v=0
343984 On ch=3 n=g#4 v=0
343984 Par ch=1 c=64 v=0
343984 Par ch=1 c=64 v=127
343984 On ch=1 n=d#6 v=117
343984 On ch=1 n=a6 v=117
343984 Par ch=1 c=64 v=0
343984 Par ch=1 c=64 v=127
343984 Par ch=1 c=64 v=0
343984 Par ch=1 c=64 v=127
343984 Par ch=2 c=64 v=0
343984 Par ch=2 c=64 v=127
343984 Par ch=2 c=64 v=0
343984 Par ch=2 c=64 v=127
343984 On ch=2 n=a5 v=117
343984 Par ch=2 c=64 v=0
343984 Par ch=2 c=64 v=127
343984 Par ch=3 c=64 v=0
343984 Par ch=3 c=64 v=127
343984 Par ch=3 c=64 v=0
343984 Par ch=3 c=64 v=127
343984 Par ch=3 c=64 v=0
343984 Par ch=3 c=64 v=127
343984 On ch=3 n=d#3 v=117
343984 On ch=3 n=d#4 v=117
344156 On ch=2 n=a5 v=0
344156 On ch=1 n=a6 v=0
344156 On ch=1 n=d#6 v=0
344156 On ch=1 n=a#6 v=119
344156 On ch=2 n=a#5 v=119
344324 On ch=2 n=a#5 v=0
344324 On ch=1 n=a#6 v=0
344324 On ch=3 n=d#4 v=0
344324 On ch=3 n=d#3 v=0
344324 On ch=1 n=c7 v=120
344324 On ch=2 n=c6 v=120
344324 On ch=2 n=g6 v=120
344324 On ch=3 n=a#4 v=120
344324 On ch=3 n=c#5 v=120
344324 On ch=3 n=d#5 v=120
344324 On ch=3 n=g5 v=120
344496 On ch=2 n=g6 v=0
344496 On ch=2 n=c6 v=0
344496 On ch=1 n=c7 v=0
344496 On ch=1 n=c#7 v=120
344496 On ch=2 n=c#6 v=120
344668 On ch=2 n=c#6 v=0
344668 On ch=1 n=c#7 v=0
344668 On ch=3 n=g5 v=0
344668 On ch=3 n=d#5 v=0
344668 On ch=3 n=c#5 v=0
344668 On ch=3 n=a#4 v=0
344668 Par ch=1 c=64 v=0
344668 On ch=1 n=c7 v=120
344668 Par ch=2 c=64 v=0
344668 On ch=2 n=c6 v=120
344668 On ch=2 n=g#6 v=120
344668 Par ch=3 c=64 v=0
344668 On ch=3 n=g#4 v=120
344668 On ch=3 n=d#5 v=120
344668 On ch=3 n=g#5 v=120
344836 On ch=3 n=g#5 v=0
344836 On ch=3 n=d#5 v=0
344836 On ch=3 n=g#4 v=0
344836 On ch=2 n=g#6 v=0
344836 On ch=2 n=c6 v=0
344836 On ch=1 n=c7 v=0
345008 On ch=1 n=f7 v=120
345008 On ch=2 n=f6 v=120
345008 On ch=2 n=g#6 v=120
345008 On ch=3 n=b4 v=120
345008 On ch=3 n=d5 v=120
345008 On ch=3 n=g#5 v=120
345008 On ch=3 n=b5 v=120
345092 On ch=2 n=g#6 v=0
345092 On ch=2 n=f6 v=0
345092 On ch=1 n=f7 v=0
345176 On ch=3 n=b5 v=0
345176 On ch=3 n=g#5 v=0
345176 On ch=3 n=d5 v=0
345176 On ch=3 n=b4 v=0
345264 On ch=1 n=d#7 v=113
345264 On ch=2 n=d#6 v=113
345264 On ch=2 n=g#6 v=113
345264 On ch=3 n=c5 v=113
345264 On ch=3 n=d#5 v=113
345264 On ch=3 n=g#5 v=113
345264 On ch=3 n=c6 v=113
345348 On ch=3 n=c6 v=0
345348 On ch=3 n=g#5 v=0
345348 On ch=3 n=d#5 v=0
345348 On ch=3 n=c5 v=0
345348 On ch=2 n=g#6 v=0
345348 On ch=2 n=d#6 v=0
345348 On ch=1 n=d#7 v=0
345348 On ch=1 n=d#7 v=110
345348 On ch=2 n=d#6 v=110
345348 On ch=2 n=g#6 v=110
345348 On ch=3 n=c5 v=110
345348 On ch=3 n=d#5 v=110
345348 On ch=3 n=g#5 v=110
345348 On ch=3 n=c6 v=110
345496 On ch=2 n=g#6 v=0
345496 On ch=2 n=d#6 v=0
345496 On ch=1 n=d#7 v=0
345520 On ch=3 n=c6 v=0
345520 On ch=3 n=g#5 v=0
345520 On ch=3 n=d#5 v=0
345520 On ch=3 n=c5 v=0
345648 On ch=1 n=d#7 v=101
345648 On ch=2 n=d#6 v=101
345688 On ch=2 n=d#6 v=0
345688 On ch=1 n=d#7 v=0
345688 Par ch=1 c=64 v=127
345688 On ch=1 n=c#7 v=100
345688 Par ch=2 c=64 v=127
345688 On ch=2 n=c#6 v=100
345688 On ch=2 n=a6 v=100
345688 Par ch=3 c=64 v=127
345688 On ch=3 n=f4 v=100
345732 On ch=3 n=d#5 v=100
345776 On ch=3 n=a5 v=100
345944 On ch=2 n=a6 v=0
345944 On ch=2 n=c#6 v=0
345944 On ch=1 n=c#7 v=0
345944 On ch=1 n=c7 v=100
345944 On ch=2 n=c6 v=100
346028 On ch=2 n=c6 v=0
346028 On ch=1 n=c7 v=0
346028 On ch=3 n=a5 v=0
346028 On ch=3 n=d#5 v=0
346028 On ch=3 n=f4 v=0
346028 Par ch=1 c=64 v=0
346028 On ch=1 n=a#6 v=100
346028 Par ch=2 c=64 v=0
346028 On ch=2 n=a#5 v=100
346028 Par ch=3 c=64 v=0
346028 On ch=3 n=a#3 v=100
346072 On ch=3 n=f4 v=100
346116 On ch=3 n=c#5 v=99
346200 On ch=3 n=a#3 v=0
346200 On ch=2 n=a#5 v=0
346200 On ch=1 n=a#6 v=0
346224 On ch=3 n=f4 v=0
346248 On ch=3 n=c#5 v=0
346384 On ch=1 n=f#5 v=97
346384 On ch=1 n=a#5 v=97
346384 On ch=2 n=a#4 v=97
346384 On ch=3 n=d#3 v=97
346428 On ch=3 n=a#3 v=97
346476 On ch=3 n=f#4 v=96
346664 On ch=2 n=a#4 v=0
346664 On ch=1 n=a#5 v=0
346664 On ch=1 n=f#5 v=0
346664 On ch=1 n=c6 v=95
346664 On ch=2 n=c5 v=95
346764 On ch=2 n=c5 v=0
346764 On ch=1 n=c6 v=0
346764 On ch=3 n=f#4 v=0
346764 On ch=3 n=a#3 v=0
346764 On ch=3 n=d#3 v=0
346764 On ch=1 n=c#6 v=94
346764 On ch=2 n=c#5 v=94
346764 On ch=2 n=f5 v=94
346764 On ch=3 n=a#2 v=94
346764 On ch=3 n=f3 v=94
346764 On ch=3 n=c#4 v=94
347172 On ch=3 n=c#4 v=0
347172 On ch=3 n=f3 v=0
347172 On ch=3 n=a#2 v=0
347172 On ch=2 n=f5 v=0
347172 On ch=2 n=c#5 v=0
347172 On ch=1 n=c#6 v=0
347172 On ch=1 n=c#6 v=91
347172 On ch=2 n=c#5 v=91
347172 On ch=2 n=d#5 v=91
347172 On ch=2 n=f#5 v=91
347172 On ch=3 n=d#2 v=91
347172 On ch=3 n=d#3 v=91
347492 On ch=2 n=f#5 v=0
347492 On ch=2 n=d#5 v=0
347492 On ch=2 n=c#5 v=0
347492 On ch=1 n=c#6 v=0
347492 On ch=1 n=c6 v=89
347492 On ch=2 n=c5 v=89
347604 On ch=2 n=c5 v=0
347604 On ch=1 n=c6 v=0
347604 On ch=3 n=d#3 v=0
347604 On ch=3 n=d#2 v=0
347604 On ch=1 n=f5 v=89
347604 On ch=1 n=a#5 v=89
347604 On ch=2 n=a#4 v=89
347604 On ch=3 n=a#2 v=89
347604 On ch=3 n=f3 v=89
347604 On ch=3 n=c#4 v=89
348064 On ch=3 n=c#4 v=0
348064 On ch=3 n=f3 v=0
348064 On ch=3 n=a#2 v=0
348064 On ch=2 n=a#4 v=0
348064 On ch=1 n=a#5 v=0
348064 On ch=1 n=f5 v=0
348064 On ch=1 n=d#5 v=86
348064 On ch=1 n=g#5 v=86
348064 On ch=2 n=g#4 v=86
348064 On ch=2 n=a#4 v=86
348064 On ch=3 n=d#3 v=86
348064 On ch=3 n=a#3 v=86
348064 On ch=3 n=d#4 v=86
348428 On ch=2 n=a#4 v=0
348428 On ch=2 n=g#4 v=0
348428 On ch=1 n=g#5 v=0
348428 On ch=1 n=d#5 v=0
348428 On ch=1 n=f#5 v=84
348428 On ch=2 n=f#4 v=84
348552 On ch=2 n=f#4 v=0
348552 On ch=1 n=f#5 v=0
348552 On ch=3 n=d#4 v=0
348552 On ch=3 n=a#3 v=0
348552 On ch=3 n=d#3 v=0
348552 On ch=1 n=c#5 v=83
348552 On ch=1 n=f5 v=83
348552 On ch=2 n=f4 v=83
348552 On ch=3 n=a#2 v=83
348612 On ch=3 n=f3 v=83
348676 On ch=3 n=c#4 v=82
348924 On ch=2 n=f4 v=0
348924 On ch=1 n=f5 v=0
348924 On ch=1 n=c#5 v=0
349052 On ch=3 n=c#4 v=0
349052 On ch=3 n=f3 v=0
349052 On ch=3 n=a#2 v=0
349052 On ch=1 n=a3 v=80
349052 On ch=2 n=a2 v=80
349128 On ch=2 n=a2 v=0
349128 On ch=1 n=a3 v=0
349128 On ch=1 n=a#3 v=80
349128 On ch=2 n=a#2 v=80
349200 On ch=2 n=a#2 v=0
349200 On ch=1 n=a#3 v=0
349200 On ch=1 n=c4 v=81
349200 On ch=2 n=c3 v=81
349272 On ch=2 n=c3 v=0
349272 On ch=1 n=c4 v=0
349272 On ch=1 n=c#4 v=81
349272 On ch=2 n=c#3 v=81
349348 On ch=2 n=c#3 v=0
349348 On ch=1 n=c#4 v=0
349348 On ch=1 n=d#4 v=82
349348 On ch=2 n=d#3 v=82
349420 On ch=2 n=d#3 v=0
349420 On ch=1 n=d#4 v=0
349420 On ch=1 n=f4 v=82
349420 On ch=2 n=f3 v=82
349496 On ch=2 n=f3 v=0
349496 On ch=1 n=f4 v=0
349496 On ch=1 n=g4 v=82
349496 On ch=2 n=g3 v=82
349568 On ch=2 n=g3 v=0
349568 On ch=1 n=g4 v=0
349568 On ch=1 n=a4 v=83
349568 On ch=2 n=a3 v=83
349644 On ch=2 n=a3 v=0
349644 On ch=1 n=a4 v=0
349644 On ch=1 n=a#4 v=83
349644 On ch=2 n=a#3 v=83
349716 On ch=2 n=a#3 v=0
349716 On ch=1 n=a#4 v=0
349716 On ch=1 n=c5 v=84
349716 On ch=2 n=c4 v=84
349792 On ch=2 n=c4 v=0
349792 On ch=1 n=c5 v=0
349792 On ch=1 n=c#5 v=84
349792 On ch=2 n=c#4 v=84
349864 On ch=2 n=c#4 v=0
349864 On ch=1 n=c#5 v=0
349864 On ch=1 n=d#5 v=84
349864 On ch=2 n=d#4 v=84
349940 On ch=2 n=d#4 v=0
349940 On ch=1 n=d#5 v=0
349940 On ch=1 n=f5 v=85
349940 On ch=2 n=f4 v=85
350012 On ch=2 n=f4 v=0
350012 On ch=1 n=f5 v=0
350012 On ch=1 n=g5 v=85
350012 On ch=2 n=g4 v=85
350088 On ch=2 n=g4 v=0
350088 On ch=1 n=g5 v=0
350088 On ch=1 n=a5 v=86
350088 On ch=2 n=a4 v=86
350160 On ch=2 n=a4 v=0
350160 On ch=1 n=a5 v=0
350160 On ch=1 n=a#5 v=86
350160 On ch=2 n=a#4 v=86
350236 On ch=2 n=a#4 v=0
350236 On ch=1 n=a#5 v=0
350236 On ch=1 n=c6 v=86
350236 On ch=2 n=c5 v=86
350308 On ch=2 n=c5 v=0
350308 On ch=1 n=c6 v=0
350308 On ch=1 n=c#6 v=87
350308 On ch=2 n=c#5 v=87
350384 On ch=2 n=c#5 v=0
350384 On ch=1 n=c#6 v=0
350384 On ch=1 n=d#6 v=87
350384 On ch=2 n=d#5 v=87
350456 On ch=2 n=d#5 v=0
350456 On ch=1 n=d#6 v=0
350456 On ch=1 n=f6 v=88
350456 On ch=2 n=f5 v=88
350528 On ch=2 n=f5 v=0
350528 On ch=1 n=f6 v=0
350528 On ch=1 n=g6 v=88
350528 On ch=2 n=g5 v=88
350604 On ch=2 n=g5 v=0
350604 On ch=1 n=g6 v=0
350604 On ch=1 n=a6 v=89
350604 On ch=2 n=a5 v=89
350676 On ch=2 n=a5 v=0
350676 On ch=1 n=a6 v=0
350676 On ch=1 n=a#6 v=89
350676 On ch=2 n=a#5 v=89
350752 On ch=2 n=a#5 v=0
350752 On ch=1 n=a#6 v=0
350752 On ch=1 n=c7 v=89
350752 On ch=2 n=c6 v=89
350824 On ch=2 n=c6 v=0
350824 On ch=1 n=c7 v=0
350824 On ch=1 n=c#7 v=90
350824 On ch=2 n=c#6 v=90
350900 On ch=2 n=c#6 v=0
350900 On ch=1 n=c#7 v=0
350900 On ch=1 n=d#7 v=90
350900 On ch=2 n=d#6 v=90
350972 On ch=2 n=d#6 v=0
350972 On ch=1 n=d#7 v=0
350972 On ch=1 n=f7 v=91
350972 On ch=2 n=f6 v=91
351048 On ch=2 n=f6 v=0
351048 On ch=1 n=f7 v=0
351048 On ch=1 n=g7 v=91
351048 On ch=2 n=g6 v=91
351120 On ch=2 n=g6 v=0
351120 On ch=1 n=g7 v=0
351120 On ch=1 n=a7 v=91
351120 On ch=2 n=a6 v=91
351196 On ch=2 n=a6 v=0
351196 On ch=1 n=a7 v=0
351196 On ch=1 n=a#7 v=92
351196 On ch=2 n=a#6 v=92
351384 On ch=1 n=a#7 v=0
351408 On ch=2 n=a#6 v=0
351568 On ch=1 n=c8 v=94
351624 On ch=1 n=c8 v=0
351624 Par ch=1 c=64 v=127
351624 On ch=1 n=a#7 v=94
351624 Par ch=2 c=64 v=127
351624 On ch=2 n=c#7 v=94
351624 On ch=2 n=g7 v=94
351624 Par ch=3 c=64 v=127
351624 On ch=3 n=d#2 v=94
351624 On ch=3 n=d#3 v=94
351796 On ch=3 n=d#3 v=0
351796 On ch=3 n=d#2 v=0
351796 On ch=2 n=g7 v=0
351796 On ch=2 n=c#7 v=0
351796 On ch=1 n=a#7 v=0
351796 On ch=1 n=a7 v=95
351796 On ch=2 n=c7 v=95
351796 On ch=2 n=f#7 v=95
351964 On ch=2 n=f#7 v=0
351964 On ch=2 n=c7 v=0
351964 On ch=1 n=a7 v=0
351964 On ch=1 n=a#7 v=96
351964 On ch=2 n=c#7 v=96
351964 On ch=2 n=g7 v=96
351964 On ch=3 n=d#4 v=96
351964 On ch=3 n=d#5 v=96
352136 On ch=3 n=d#5 v=0
352136 On ch=3 n=d#4 v=0
352304 On ch=2 n=g7 v=0
352304 On ch=2 n=c#7 v=0
352304 On ch=1 n=a#7 v=0
352304 Par ch=1 c=64 v=0
352304 On ch=1 n=c8 v=99
352304 Par ch=2 c=64 v=0
352304 On ch=2 n=c7 v=99
352304 On ch=2 n=g7 v=99
352304 Par ch=3 c=64 v=0
352304 On ch=3 n=d#5 v=99
352304 On ch=3 n=g5 v=99
352304 On ch=3 n=c6 v=99
352304 On ch=3 n=d#6 v=99
352648 On ch=3 n=d#6 v=0
352648 On ch=3 n=c6 v=0
352648 On ch=3 n=g5 v=0
352648 On ch=3 n=d#5 v=0
352648 On ch=2 n=g7 v=0
352648 On ch=2 n=c7 v=0
352648 On ch=1 n=c8 v=0
352648 On ch=1 n=c7 v=90
352648 On ch=1 n=g#7 v=90
352648 On ch=2 n=g#6 v=90
352648 On ch=3 n=f5 v=90
352648 On ch=3 n=c6 v=90
352648 On ch=3 n=f6 v=90
352988 On ch=3 n=f6 v=0
352988 On ch=3 n=c6 v=0
352988 On ch=3 n=f5 v=0
352988 On ch=2 n=g#6 v=0
352988 On ch=1 n=g#7 v=0
352988 On ch=1 n=c7 v=0
352988 On ch=1 n=d#7 v=97
352988 On ch=2 n=d#6 v=97
352988 On ch=2 n=g#6 v=97
352988 On ch=3 n=c5 v=97
352988 On ch=3 n=g#5 v=97
352988 On ch=3 n=c6 v=97
353328 On ch=3 n=c6 v=0
353328 On ch=3 n=g#5 v=0
353328 On ch=3 n=c5 v=0
353328 On ch=2 n=g#6 v=0
353328 On ch=2 n=d#6 v=0
353328 On ch=1 n=d#7 v=0
353328 On ch=1 n=f7 v=103
353328 On ch=2 n=f6 v=103
353328 On ch=2 n=g#6 v=103
353328 On ch=3 n=c#5 v=103
353328 On ch=3 n=g#5 v=103
353328 On ch=3 n=c#6 v=103
353500 On ch=3 n=c#6 v=0
353500 On ch=3 n=g#5 v=0
353500 On ch=3 n=c#5 v=0
353668 On ch=2 n=g#6 v=0
353668 On ch=2 n=f6 v=0
353668 On ch=1 n=f7 v=0
353668 On ch=1 n=d#7 v=110
353668 On ch=2 n=d#6 v=110
353668 On ch=2 n=g#6 v=110
353668 On ch=3 n=c5 v=110
353668 On ch=3 n=g#5 v=110
353668 On ch=3 n=c6 v=110
354016 On ch=3 n=c6 v=0
354016 On ch=3 n=g#5 v=0
354016 On ch=3 n=c5 v=0
354016 On ch=2 n=g#6 v=0
354016 On ch=2 n=d#6 v=0
354016 On ch=1 n=d#7 v=0
354016 On ch=1 n=c7 v=110
354016 On ch=2 n=c6 v=110
354016 On ch=2 n=d#6 v=110
354016 On ch=3 n=g#4 v=110
354016 On ch=3 n=d#5 v=110
354016 On ch=3 n=g#5 v=110
354372 On ch=3 n=g#5 v=0
354372 On ch=3 n=d#5 v=0
354372 On ch=3 n=g#4 v=0
354372 On ch=2 n=d#6 v=0
354372 On ch=2 n=c6 v=0
354372 On ch=1 n=c7 v=0
354372 On ch=1 n=c6 v=110
354372 On ch=1 n=g#6 v=110
354372 On ch=2 n=g#5 v=110
354372 On ch=3 n=f4 v=110
354372 On ch=3 n=c5 v=110
354372 On ch=3 n=f5 v=110
354744 On ch=3 n=f5 v=0
354744 On ch=3 n=c5 v=0
354744 On ch=3 n=f4 v=0
354744 On ch=2 n=g#5 v=0
354744 On ch=1 n=g#6 v=0
354744 On ch=1 n=c6 v=0
354744 On ch=1 n=f6 v=110
354744 On ch=2 n=f5 v=110
354744 On ch=2 n=g#5 v=110
354744 On ch=3 n=c#4 v=110
354744 On ch=3 n=g#4 v=110
354744 On ch=3 n=c#5 v=110
355128 On ch=3 n=c#5 v=0
355128 On ch=3 n=g#4 v=0
355128 On ch=3 n=c#4 v=0
355128 On ch=2 n=g#5 v=0
355128 On ch=2 n=f5 v=0
355128 On ch=1 n=f6 v=0
355128 On ch=1 n=d#6 v=110
355128 On ch=2 n=d#5 v=110
355128 On ch=2 n=g5 v=110
355128 On ch=3 n=d#4 v=110
355128 On ch=3 n=a#4 v=110
355128 On ch=3 n=c#5 v=110
355520 On ch=3 n=c#5 v=0
355520 On ch=3 n=a#4 v=0
355520 On ch=3 n=d#4 v=0
355520 On ch=2 n=g5 v=0
355520 On ch=2 n=d#5 v=0
355520 On ch=1 n=d#6 v=0
355520 Par ch=1 c=64 v=127
355520 On ch=1 n=c6 v=80
355520 Par ch=2 c=64 v=127
355520 On ch=2 n=c5 v=80
355520 On ch=2 n=g#5 v=80
355520 Par ch=3 c=64 v=127
355520 On ch=3 n=g#2 v=80
355520 On ch=3 n=g#3 v=80
355776 On ch=3 n=g#3 v=0
355776 On ch=3 n=g#2 v=0
355776 On ch=2 n=g#5 v=0
355776 On ch=2 n=c5 v=0
355776 On ch=1 n=c6 v=0
355860 On ch=2 n=d#5 v=80
355860 On ch=3 n=d#4 v=80
355860 On ch=3 n=g#4 v=80
355860 On ch=3 n=c5 v=80
355928 On ch=2 n=d#5 v=0
355928 On ch=2 n=f5 v=80
355996 On ch=2 n=f5 v=0
355996 On ch=2 n=d#5 v=80
356064 On ch=2 n=d#5 v=0
356064 On ch=2 n=f5 v=80
356132 On ch=2 n=f5 v=0
356132 On ch=2 n=d#5 v=80
356200 On ch=2 n=d#5 v=0
356200 On ch=3 n=c5 v=0
356200 On ch=3 n=g#4 v=0
356200 On ch=3 n=d#4 v=0
356200 Par ch=1 c=64 v=0
356200 Par ch=1 c=64 v=127
356200 Par ch=1 c=64 v=0
356200 Par ch=2 c=64 v=0
356200 Par ch=2 c=64 v=127
356200 On ch=2 n=d5 v=80
356200 Par ch=2 c=64 v=0
356200 Par ch=3 c=64 v=0
356200 Par ch=3 c=64 v=127
356200 Par ch=3 c=64 v=0
356200 On ch=3 n=f4 v=80
356200 On ch=3 n=g#4 v=80
356200 On ch=3 n=b4 v=80
356544 On ch=3 n=b4 v=0
356544 On ch=3 n=g#4 v=0
356544 On ch=3 n=f4 v=0
356544 On ch=2 n=d5 v=0
356544 Par ch=1 c=64 v=127
356544 On ch=2 n=f5 v=90
356544 Par ch=2 c=64 v=127
356544 Par ch=3 c=64 v=127
356544 On ch=3 n=f3 v=80
356544 On ch=3 n=f4 v=80
356656 On ch=2 n=f5 v=0
356656 On ch=2 n=g#5 v=93
356712 On ch=3 n=f4 v=0
356712 On ch=3 n=f3 v=0
356772 On ch=2 n=g#5 v=0
356772 On ch=2 n=b5 v=97
356884 On ch=2 n=b5 v=0
356884 On ch=2 n=d6 v=100
356884 On ch=3 n=f2 v=80
356884 On ch=3 n=f3 v=80
356996 On ch=2 n=d6 v=0
356996 On ch=2 n=f6 v=103
357056 On ch=3 n=f3 v=0
357056 On ch=3 n=f2 v=0
357112 On ch=2 n=f6 v=0
357112 On ch=2 n=g#6 v=107
357224 On ch=2 n=g#6 v=0
357224 Par ch=1 c=64 v=0
357224 Par ch=2 c=64 v=0
357224 On ch=2 n=b6 v=110
357224 Par ch=3 c=64 v=0
357224 On ch=3 n=e2 v=80
357224 On ch=3 n=e3 v=80
357340 On ch=2 n=b6 v=0
357340 On ch=2 n=d7 v=113
357396 On ch=3 n=e3 v=0
357396 On ch=3 n=e2 v=0
357452 On ch=2 n=d7 v=0
357452 On ch=2 n=d8 v=117
357564 On ch=2 n=d8 v=0
357564 Par ch=1 c=64 v=127
357564 Par ch=2 c=64 v=127
357564 On ch=2 n=d#8 v=120
357564 On ch=2 n=d#7 v=120
357564 Par ch=3 c=64 v=127
357564 On ch=3 n=d#2 v=80
357564 On ch=3 n=d#3 v=80
357736 On ch=3 n=d#3 v=0
357736 On ch=3 n=d#2 v=0
357736 On ch=2 n=d#7 v=0
357736 On ch=2 n=d#8 v=0
357908 On ch=1 n=g5 v=80
357908 On ch=2 n=a#5 v=80
357908 On ch=2 n=d#6 v=80
357908 On ch=2 n=a#6 v=80
357908 On ch=3 n=a#4 v=80
357908 On ch=3 n=c#5 v=80
357908 On ch=3 n=d#5 v=80
357992 On ch=3 n=d#5 v=0
357992 On ch=3 n=c#5 v=0
357992 On ch=3 n=a#4 v=0
357992 On ch=2 n=a#6 v=0
357992 On ch=2 n=d#6 v=0
357992 On ch=2 n=a#5 v=0
357992 On ch=1 n=g5 v=0
358076 On ch=1 n=g5 v=80
358076 On ch=2 n=a#5 v=80
358076 On ch=2 n=d#6 v=80
358076 On ch=2 n=a#6 v=80
358076 On ch=3 n=a#4 v=80
358076 On ch=3 n=c#5 v=80
358076 On ch=3 n=d#5 v=80
358164 On ch=3 n=d#5 v=0
358164 On ch=3 n=c#5 v=0
358164 On ch=3 n=a#4 v=0
358164 On ch=2 n=a#6 v=0
358164 On ch=2 n=d#6 v=0
358164 On ch=2 n=a#5 v=0
358164 On ch=1 n=g5 v=0
358248 On ch=1 n=g5 v=80
358248 On ch=2 n=a#5 v=80
358248 On ch=2 n=d#6 v=80
358248 On ch=2 n=a#6 v=80
358248 On ch=3 n=a#4 v=80
358248 On ch=3 n=c#5 v=80
358248 On ch=3 n=d#5 v=80
358416 On ch=3 n=d#5 v=0
358416 On ch=3 n=c#5 v=0
358416 On ch=3 n=a#4 v=0
358416 On ch=2 n=a#6 v=0
358416 On ch=2 n=d#6 v=0
358416 On ch=2 n=a#5 v=0
358416 On ch=1 n=g5 v=0
358588 On ch=1 n=f#5 v=80
358588 On ch=2 n=a5 v=80
358588 On ch=2 n=d#6 v=80
358588 On ch=2 n=a6 v=80
358588 On ch=3 n=a#4 v=80
358588 On ch=3 n=c#5 v=80
358588 On ch=3 n=d#5 v=80
358760 On ch=3 n=d#5 v=0
358760 On ch=3 n=c#5 v=0
358760 On ch=3 n=a#4 v=0
358760 On ch=2 n=a6 v=0
358760 On ch=2 n=d#6 v=0
358760 On ch=2 n=a5 v=0
358760 On ch=1 n=f#5 v=0
358760 On ch=1 n=g5 v=80
358760 On ch=2 n=a#5 v=80
358760 On ch=2 n=d#6 v=80
358760 On ch=2 n=a#6 v=80
358760 On ch=3 n=a#4 v=80
358760 On ch=3 n=c#5 v=80
358760 On ch=3 n=d#5 v=80
358928 On ch=3 n=d#5 v=0
358928 On ch=3 n=c#5 v=0
358928 On ch=3 n=a#4 v=0
358928 On ch=2 n=a#6 v=0
358928 On ch=2 n=d#6 v=0
358928 On ch=2 n=a#5 v=0
358928 On ch=1 n=g5 v=0
358928 On ch=1 n=g#5 v=80
358928 On ch=2 n=c6 v=80
358928 On ch=2 n=d#6 v=80
358928 On ch=2 n=c7 v=80
358928 On ch=3 n=a#4 v=80
358928 On ch=3 n=c#5 v=80
358928 On ch=3 n=d#5 v=80
359272 On ch=3 n=d#5 v=0
359272 On ch=3 n=c#5 v=0
359272 On ch=3 n=a#4 v=0
359272 On ch=2 n=c7 v=0
359272 On ch=2 n=d#6 v=0
359272 On ch=2 n=c6 v=0
359272 On ch=1 n=g#5 v=0
359272 On ch=1 n=a#5 v=80
359272 On ch=2 n=g5 v=80
359272 On ch=2 n=c#6 v=80
359272 On ch=2 n=d#6 v=80
359272 On ch=2 n=g6 v=80
359272 On ch=3 n=a#4 v=80
359272 On ch=3 n=c#5 v=80
359272 On ch=3 n=d#5 v=80
359612 On ch=3 n=d#5 v=0
359612 On ch=3 n=c#5 v=0
359612 On ch=3 n=a#4 v=0
359612 On ch=2 n=g6 v=0
359612 On ch=2 n=d#6 v=0
359612 On ch=2 n=c#6 v=0
359612 On ch=2 n=g5 v=0
359612 On ch=1 n=a#5 v=0
359612 Par ch=1 c=64 v=0
359612 Par ch=1 c=64 v=127
359612 Par ch=2 c=64 v=0
359612 Par ch=2 c=64 v=127
359612 On ch=2 n=g#5 v=80
359612 On ch=2 n=c6 v=80
359612 On ch=2 n=g#6 v=80
359612 Par ch=3 c=64 v=0
359612 Par ch=3 c=64 v=127
359612 On ch=3 n=g#3 v=80
359612 On ch=3 n=g#4 v=80
359868 On ch=3 n=g#4 v=0
359868 On ch=3 n=g#3 v=0
359868 On ch=2 n=g#6 v=0
359868 On ch=2 n=c6 v=0
359868 On ch=2 n=g#5 v=0
359952 On ch=2 n=d#5 v=80
359952 On ch=3 n=d#4 v=80
359952 On ch=3 n=g#4 v=80
359952 On ch=3 n=c5 v=80
360020 On ch=2 n=d#5 v=0
360020 On ch=2 n=f5 v=80
360088 On ch=2 n=f5 v=0
360088 On ch=2 n=d#5 v=80
360156 On ch=2 n=d#5 v=0
360156 On ch=2 n=f5 v=80
360224 On ch=2 n=f5 v=0
360224 On ch=2 n=d#5 v=80
360292 On ch=2 n=d#5 v=0
360292 On ch=3 n=c5 v=0
360292 On ch=3 n=g#4 v=0
360292 On ch=3 n=d#4 v=0
360292 Par ch=1 c=64 v=0
360292 Par ch=1 c=64 v=127
360292 Par ch=1 c=64 v=0
360292 Par ch=2 c=64 v=0
360292 Par ch=2 c=64 v=127
360292 On ch=2 n=d5 v=80
360292 Par ch=2 c=64 v=0
360292 Par ch=3 c=64 v=0
360292 Par ch=3 c=64 v=127
360292 Par ch=3 c=64 v=0
360292 On ch=3 n=f4 v=80
360292 On ch=3 n=g#4 v=80
360292 On ch=3 n=b4 v=80
360632 On ch=3 n=b4 v=0
360632 On ch=3 n=g#4 v=0
360632 On ch=3 n=f4 v=0
360632 On ch=2 n=d5 v=0
360632 Par ch=1 c=64 v=127
360632 On ch=2 n=f5 v=90
360632 Par ch=2 c=64 v=127
360632 Par ch=3 c=64 v=127
360632 On ch=3 n=f3 v=80
360632 On ch=3 n=f4 v=80
360748 On ch=2 n=f5 v=0
360748 On ch=2 n=g#5 v=93
360804 On ch=3 n=f4 v=0
360804 On ch=3 n=f3 v=0
360860 On ch=2 n=g#5 v=0
360860 On ch=2 n=b5 v=97
360976 On ch=2 n=b5 v=0
360976 On ch=2 n=d6 v=100
360976 On ch=3 n=f2 v=80
360976 On ch=3 n=f3 v=80
361088 On ch=2 n=d6 v=0
361088 On ch=2 n=f6 v=103
361144 On ch=3 n=f3 v=0
361144 On ch=3 n=f2 v=0
361200 On ch=2 n=f6 v=0
361200 On ch=2 n=g#6 v=107
361316 On ch=2 n=g#6 v=0
361316 Par ch=1 c=64 v=0
361316 Par ch=2 c=64 v=0
361316 On ch=2 n=b6 v=110
361316 Par ch=3 c=64 v=0
361316 On ch=3 n=e2 v=80
361316 On ch=3 n=e3 v=80
361428 On ch=2 n=b6 v=0
361428 On ch=2 n=d7 v=113
361484 On ch=3 n=e3 v=0
361484 On ch=3 n=e2 v=0
361544 On ch=2 n=d7 v=0
361544 On ch=2 n=d8 v=117
361656 On ch=2 n=d8 v=0
361656 Par ch=1 c=64 v=127
361656 Par ch=2 c=64 v=127
361656 On ch=2 n=d#8 v=120
361656 On ch=2 n=d#7 v=120
361656 Par ch=3 c=64 v=127
361656 On ch=3 n=d#2 v=80
361656 On ch=3 n=d#3 v=80
361828 On ch=3 n=d#3 v=0
361828 On ch=3 n=d#2 v=0
361828 On ch=2 n=d#7 v=0
361828 On ch=2 n=d#8 v=0
361996 On ch=1 n=g5 v=80
361996 On ch=2 n=a#5 v=120
361996 On ch=2 n=d#6 v=120
361996 On ch=2 n=a#6 v=120
361996 On ch=3 n=a#4 v=80
361996 On ch=3 n=c#5 v=80
361996 On ch=3 n=d#5 v=80
362084 On ch=3 n=d#5 v=0
362084 On ch=3 n=c#5 v=0
362084 On ch=3 n=a#4 v=0
362084 On ch=2 n=a#6 v=0
362084 On ch=2 n=d#6 v=0
362084 On ch=2 n=a#5 v=0
362084 On ch=1 n=g5 v=0
362168 On ch=1 n=g5 v=80
362168 On ch=2 n=a#5 v=120
362168 On ch=2 n=d#6 v=120
362168 On ch=2 n=a#6 v=120
362168 On ch=3 n=a#4 v=80
362168 On ch=3 n=c#5 v=80
362168 On ch=3 n=d#5 v=80
362252 On ch=3 n=d#5 v=0
362252 On ch=3 n=c#5 v=0
362252 On ch=3 n=a#4 v=0
362252 On ch=2 n=a#6 v=0
362252 On ch=2 n=d#6 v=0
362252 On ch=2 n=a#5 v=0
362252 On ch=1 n=g5 v=0
362340 On ch=1 n=g5 v=80
362340 On ch=2 n=a#5 v=120
362340 On ch=2 n=d#6 v=120
362340 On ch=2 n=a#6 v=120
362340 On ch=3 n=a#4 v=80
362340 On ch=3 n=c#5 v=80
362340 On ch=3 n=d#5 v=80
362508 On ch=3 n=d#5 v=0
362508 On ch=3 n=c#5 v=0
362508 On ch=3 n=a#4 v=0
362508 On ch=2 n=a#6 v=0
362508 On ch=2 n=d#6 v=0
362508 On ch=2 n=a#5 v=0
362508 On ch=1 n=g5 v=0
362508 On ch=1 n=g#5 v=80
362508 On ch=2 n=c6 v=120
362508 On ch=2 n=d#6 v=120
362508 On ch=2 n=c7 v=120
362508 On ch=3 n=a#4 v=80
362508 On ch=3 n=c#5 v=80
362508 On ch=3 n=d#5 v=80
362680 On ch=3 n=d#5 v=0
362680 On ch=3 n=c#5 v=0
362680 On ch=3 n=a#4 v=0
362680 On ch=2 n=c7 v=0
362680 On ch=2 n=d#6 v=0
362680 On ch=2 n=c6 v=0
362680 On ch=1 n=g#5 v=0
362680 On ch=1 n=f#5 v=80
362680 On ch=2 n=a5 v=120
362680 On ch=2 n=d#6 v=120
362680 On ch=2 n=a6 v=120
362680 On ch=3 n=a#4 v=80
362680 On ch=3 n=c#5 v=80
362680 On ch=3 n=d#5 v=80
362764 On ch=3 n=d#5 v=0
362764 On ch=3 n=c#5 v=0
362764 On ch=3 n=a#4 v=0
362764 On ch=1 n=f#5 v=0
362848 On ch=2 n=a6 v=0
362848 On ch=2 n=d#6 v=0
362848 On ch=2 n=a5 v=0
362848 On ch=1 n=g5 v=80
362848 On ch=2 n=a#5 v=120
362848 On ch=2 n=d#6 v=120
362848 On ch=2 n=a#6 v=120
362848 On ch=3 n=a#4 v=80
362848 On ch=3 n=c#5 v=80
362848 On ch=3 n=d#5 v=80
362936 On ch=3 n=d#5 v=0
362936 On ch=3 n=c#5 v=0
362936 On ch=3 n=a#4 v=0
362936 On ch=1 n=g5 v=0
363020 On ch=2 n=a#6 v=0
363020 On ch=2 n=d#6 v=0
363020 On ch=2 n=a#5 v=0
363020 On ch=1 n=g#5 v=80
363020 On ch=2 n=c6 v=120
363020 On ch=2 n=d#6 v=120
363020 On ch=2 n=c7 v=120
363020 On ch=3 n=a#4 v=80
363020 On ch=3 n=c#5 v=80
363020 On ch=3 n=d#5 v=80
363360 On ch=3 n=d#5 v=0
363360 On ch=3 n=c#5 v=0
363360 On ch=3 n=a#4 v=0
363360 On ch=2 n=c7 v=0
363360 On ch=2 n=d#6 v=0
363360 On ch=2 n=c6 v=0
363360 On ch=1 n=g#5 v=0
363360 On ch=1 n=a#5 v=80
363360 On ch=2 n=g5 v=120
363360 On ch=2 n=c#6 v=120
363360 On ch=2 n=d#6 v=120
363360 On ch=2 n=g6 v=120
363360 On ch=3 n=a#4 v=80
363360 On ch=3 n=c#5 v=80
363360 On ch=3 n=d#5 v=80
363700 On ch=3 n=d#5 v=0
363700 On ch=3 n=c#5 v=0
363700 On ch=3 n=a#4 v=0
363700 On ch=2 n=g6 v=0
363700 On ch=2 n=d#6 v=0
363700 On ch=2 n=c#6 v=0
363700 On ch=2 n=g5 v=0
363700 On ch=1 n=a#5 v=0
363700 Par ch=1 c=64 v=0
363700 Par ch=1 c=64 v=127
363700 Par ch=2 c=64 v=0
363700 Par ch=2 c=64 v=127
363700 On ch=2 n=g#5 v=120
363700 On ch=2 n=c6 v=120
363700 On ch=2 n=f6 v=120
363700 On ch=2 n=g#6 v=120
363700 Par ch=3 c=64 v=0
363700 Par ch=3 c=64 v=127
363700 On ch=3 n=g#2 v=80
363700 On ch=3 n=g#3 v=80
363872 On ch=3 n=g#3 v=0
363872 On ch=3 n=g#2 v=0
364044 On ch=3 n=d#3 v=90
364044 On ch=3 n=d#4 v=90
364212 On ch=3 n=d#4 v=0
364212 On ch=3 n=d#3 v=0
364212 On ch=2 n=g#6 v=0
364212 On ch=2 n=f6 v=0
364212 On ch=2 n=c6 v=0
364212 On ch=2 n=g#5 v=0
364212 On ch=2 n=d#6 v=90
364384 On ch=2 n=d#6 v=0
364384 On ch=2 n=d#5 v=80
364384 On ch=2 n=c6 v=80
364384 On ch=2 n=d#6 v=80
364384 On ch=3 n=g#3 v=100
364384 On ch=3 n=g#4 v=100
364556 On ch=3 n=g#4 v=0
364556 On ch=3 n=g#3 v=0
364724 On ch=3 n=d#4 v=100
364724 On ch=3 n=d#5 v=100
364896 On ch=3 n=d#5 v=0
364896 On ch=3 n=d#4 v=0
365064 On ch=2 n=d#6 v=0
365064 On ch=2 n=c6 v=0
365064 On ch=2 n=d#5 v=0
365064 On ch=3 n=g#4 v=100
365064 On ch=3 n=g#5 v=100
365236 On ch=3 n=g#5 v=0
365236 On ch=3 n=g#4 v=0
365408 On ch=1 n=c7 v=80
365408 Par ch=1 c=64 v=0
365408 Par ch=2 c=64 v=0
365408 On ch=2 n=c6 v=80
365408 On ch=2 n=g#6 v=80
365408 Par ch=3 c=64 v=0
365408 On ch=3 n=d#5 v=100
365408 On ch=3 n=d#6 v=100
365576 On ch=3 n=d#6 v=0
365576 On ch=3 n=d#5 v=0
365576 On ch=2 n=g#6 v=0
365576 On ch=2 n=c6 v=0
365576 On ch=1 n=c7 v=0
365576 On ch=1 n=c#7 v=80
365576 On ch=2 n=c#6 v=80
365576 On ch=2 n=a#6 v=80
365748 On ch=2 n=a#6 v=0
365748 On ch=2 n=c#6 v=0
365748 On ch=1 n=c#7 v=0
365748 Par ch=1 c=64 v=127
365748 On ch=1 n=c#7 v=120
365748 On ch=1 n=f7 v=120
365748 Par ch=1 c=64 v=0
365748 Par ch=1 c=64 v=127
365748 Par ch=2 c=64 v=127
365748 On ch=2 n=f6 v=120
365748 Par ch=2 c=64 v=0
365748 Par ch=2 c=64 v=127
365748 Par ch=3 c=64 v=127
365748 Par ch=3 c=64 v=0
365748 Par ch=3 c=64 v=127
365748 On ch=3 n=g#2 v=100
365748 On ch=3 n=g#3 v=100
365916 On ch=3 n=g#3 v=0
365916 On ch=3 n=g#2 v=0
366088 On ch=3 n=d#3 v=100
366088 On ch=3 n=d#4 v=100
366260 On ch=3 n=d#4 v=0
366260 On ch=3 n=d#3 v=0
366260 On ch=2 n=f6 v=0
366260 On ch=1 n=f7 v=0
366260 On ch=1 n=c#7 v=0
366260 On ch=1 n=c7 v=90
366260 On ch=1 n=d#7 v=90
366260 On ch=2 n=d#6 v=90
366428 On ch=2 n=d#6 v=0
366428 On ch=1 n=d#7 v=0
366428 On ch=1 n=c7 v=0
366428 On ch=1 n=c7 v=80
366428 On ch=1 n=d#7 v=80
366428 On ch=2 n=d#6 v=80
366428 On ch=3 n=g#3 v=100
366428 On ch=3 n=g#4 v=100
366600 On ch=3 n=g#4 v=0
366600 On ch=3 n=g#3 v=0
366772 On ch=3 n=d#4 v=100
366772 On ch=3 n=d#5 v=100
366940 On ch=3 n=d#5 v=0
366940 On ch=3 n=d#4 v=0
367112 On ch=2 n=d#6 v=0
367112 On ch=1 n=d#7 v=0
367112 On ch=1 n=c7 v=0
367112 On ch=3 n=g#4 v=100
367112 On ch=3 n=g#5 v=100
367280 On ch=3 n=g#5 v=0
367280 On ch=3 n=g#4 v=0
367452 Par ch=1 c=64 v=0
367452 On ch=1 n=c7 v=80
367452 Par ch=2 c=64 v=0
367452 On ch=2 n=c6 v=80
367452 On ch=2 n=g#6 v=80
367452 Par ch=3 c=64 v=0
367452 On ch=3 n=d#5 v=100
367452 On ch=3 n=d#6 v=100
367624 On ch=3 n=d#6 v=0
367624 On ch=3 n=d#5 v=0
367624 On ch=2 n=g#6 v=0
367624 On ch=2 n=c6 v=0
367624 On ch=1 n=c7 v=0
367624 On ch=1 n=c#7 v=80
367624 On ch=2 n=c#6 v=80
367624 On ch=2 n=a#6 v=80
367792 On ch=2 n=a#6 v=0
367792 On ch=2 n=c#6 v=0
367792 On ch=1 n=c#7 v=0
367792 Par ch=1 c=64 v=127
367792 On ch=1 n=c#7 v=120
367792 On ch=1 n=f7 v=120
367792 Par ch=1 c=64 v=0
367792 Par ch=1 c=64 v=127
367792 Par ch=2 c=64 v=127
367792 On ch=2 n=f6 v=120
367792 Par ch=2 c=64 v=0
367792 Par ch=2 c=64 v=127
367792 Par ch=3 c=64 v=127
367792 Par ch=3 c=64 v=0
367792 Par ch=3 c=64 v=127
367792 On ch=3 n=g#2 v=100
367792 On ch=3 n=g#3 v=100
367964 On ch=3 n=g#3 v=0
367964 On ch=3 n=g#2 v=0
368132 On ch=3 n=d#3 v=100
368132 On ch=3 n=d#4 v=100
368304 On ch=3 n=d#4 v=0
368304 On ch=3 n=d#3 v=0
368304 On ch=2 n=f6 v=0
368304 On ch=1 n=f7 v=0
368304 On ch=1 n=c#7 v=0
368304 On ch=1 n=c7 v=90
368304 On ch=1 n=d#7 v=90
368304 On ch=2 n=d#6 v=90
368476 On ch=2 n=d#6 v=0
368476 On ch=1 n=d#7 v=0
368476 On ch=1 n=c7 v=0
368476 On ch=1 n=c#7 v=120
368476 On ch=1 n=f7 v=120
368476 On ch=2 n=f6 v=120
368476 On ch=3 n=g#3 v=100
368476 On ch=3 n=g#4 v=100
368644 On ch=3 n=g#4 v=0
368644 On ch=3 n=g#3 v=0
368816 On ch=3 n=d#4 v=100
368816 On ch=3 n=d#5 v=100
368984 On ch=3 n=d#5 v=0
368984 On ch=3 n=d#4 v=0
368984 On ch=2 n=f6 v=0
368984 On ch=1 n=f7 v=0
368984 On ch=1 n=c#7 v=0
368984 On ch=1 n=c7 v=90
368984 On ch=1 n=d#7 v=90
368984 On ch=2 n=d#6 v=90
369156 On ch=2 n=d#6 v=0
369156 On ch=1 n=d#7 v=0
369156 On ch=1 n=c7 v=0
369156 On ch=1 n=c#7 v=120
369156 On ch=1 n=f7 v=120
369156 On ch=2 n=f6 v=120
369156 On ch=3 n=g#4 v=100
369156 On ch=3 n=g#5 v=100
369328 On ch=3 n=g#5 v=0
369328 On ch=3 n=g#4 v=0
369496 On ch=3 n=d#4 v=100
369496 On ch=3 n=d#5 v=100
369668 On ch=3 n=d#5 v=0
369668 On ch=3 n=d#4 v=0
369668 On ch=2 n=f6 v=0
369668 On ch=1 n=f7 v=0
369668 On ch=1 n=c#7 v=0
369668 On ch=1 n=c7 v=90
369668 On ch=1 n=d#7 v=90
369668 On ch=2 n=d#6 v=90
369840 On ch=2 n=d#6 v=0
369840 On ch=1 n=d#7 v=0
369840 On ch=1 n=c7 v=0
369840 On ch=1 n=c#7 v=120
369840 On ch=1 n=f7 v=120
369840 On ch=2 n=f6 v=120
369840 On ch=3 n=g#3 v=100
369840 On ch=3 n=g#4 v=100
370008 On ch=3 n=g#4 v=0
370008 On ch=3 n=g#3 v=0
370180 On ch=3 n=d#3 v=100
370180 On ch=3 n=d#4 v=100
370348 On ch=3 n=d#4 v=0
370348 On ch=3 n=d#3 v=0
370348 On ch=2 n=f6 v=0
370348 On ch=1 n=f7 v=0
370348 On ch=1 n=c#7 v=0
370348 On ch=1 n=c7 v=90
370348 On ch=1 n=d#7 v=90
370348 On ch=2 n=d#6 v=90
370520 On ch=2 n=d#6 v=0
370520 On ch=1 n=d#7 v=0
370520 On ch=1 n=c7 v=0
370520 Par ch=1 c=64 v=0
370520 On ch=1 n=c7 v=80
370520 On ch=1 n=d#7 v=80
370520 Par ch=2 c=64 v=0
370520 On ch=2 n=d#6 v=80
370520 Par ch=3 c=64 v=0
370520 On ch=3 n=g#2 v=100
370520 On ch=3 n=g#3 v=100
370604 On ch=3 n=g#3 v=0
370604 On ch=3 n=g#2 v=0
370692 On ch=3 n=g2 v=100
370692 On ch=3 n=g3 v=100
370776 On ch=3 n=g3 v=0
370776 On ch=3 n=g2 v=0
370860 On ch=3 n=f2 v=100
370860 On ch=3 n=f3 v=100
370948 On ch=3 n=f3 v=0
370948 On ch=3 n=f2 v=0
371032 On ch=3 n=d#2 v=100
371032 On ch=3 n=d#3 v=100
371116 On ch=3 n=d#3 v=0
371116 On ch=3 n=d#2 v=0
371200 On ch=2 n=d#6 v=0
371200 On ch=1 n=d#7 v=0
371200 On ch=1 n=c7 v=0
371200 On ch=1 n=c7 v=80
371200 On ch=1 n=f7 v=80
371200 On ch=2 n=f6 v=80
371200 On ch=3 n=g#2 v=100
371200 On ch=3 n=g#3 v=100
371244 On ch=2 n=f6 v=0
371244 On ch=1 n=f7 v=0
371244 On ch=1 n=c7 v=0
371288 On ch=3 n=g#3 v=0
371288 On ch=3 n=g#2 v=0
371372 On ch=1 n=c7 v=90
371372 On ch=1 n=g7 v=90
371372 On ch=2 n=g6 v=90
371372 On ch=3 n=g2 v=105
371372 On ch=3 n=g3 v=105
371456 On ch=3 n=g3 v=0
371456 On ch=3 n=g2 v=0
371456 On ch=2 n=g6 v=0
371456 On ch=1 n=g7 v=0
371456 On ch=1 n=c7 v=0
371544 On ch=1 n=c7 v=100
371544 On ch=1 n=g#7 v=100
371544 On ch=2 n=g#6 v=100
371544 On ch=3 n=f2 v=110
371544 On ch=3 n=f3 v=110
371628 On ch=3 n=f3 v=0
371628 On ch=3 n=f2 v=0
371628 On ch=2 n=g#6 v=0
371628 On ch=1 n=g#7 v=0
371628 On ch=1 n=c7 v=0
371712 On ch=1 n=d#7 v=110
371712 On ch=2 n=a#6 v=110
371712 On ch=2 n=a#7 v=110
371712 On ch=3 n=d#2 v=115
371712 On ch=3 n=d#3 v=115
371800 On ch=3 n=d#3 v=0
371800 On ch=3 n=d#2 v=0
371800 On ch=2 n=a#7 v=0
371800 On ch=2 n=a#6 v=0
371884 On ch=2 n=c7 v=120
371884 On ch=2 n=g#7 v=120
371884 On ch=2 n=c8 v=120
371884 On ch=3 n=g#2 v=120
371884 On ch=3 n=g#3 v=120
372140 On ch=1 n=d#7 v=0
372224 On ch=3 n=g#3 v=0
372224 On ch=3 n=g#2 v=0
372224 On ch=2 n=c8 v=0
372224 On ch=2 n=g#7 v=0
372224 On ch=2 n=c7 v=0
372908 Par ch=1 c=64 v=127
372908 Par ch=2 c=64 v=127
372908 On ch=2 n=e4 v=120
372908 On ch=2 n=g4 v=120
372908 On ch=2 n=c5 v=120
372908 On ch=2 n=e5 v=120
372908 Par ch=3 c=64 v=127
372908 On ch=3 n=c3 v=120
372908 On ch=3 n=g3 v=120
372908 On ch=3 n=c4 v=120
372992 On ch=3 n=c4 v=0
372992 On ch=3 n=g3 v=0
372992 On ch=3 n=c3 v=0
372992 On ch=2 n=e5 v=0
372992 On ch=2 n=c5 v=0
372992 On ch=2 n=g4 v=0
372992 On ch=2 n=e4 v=0
373080 On ch=2 n=e4 v=120
373080 On ch=2 n=g4 v=120
373080 On ch=2 n=c5 v=120
373080 On ch=2 n=e5 v=120
373080 On ch=3 n=c3 v=120
373080 On ch=3 n=g3 v=120
373080 On ch=3 n=c4 v=120
373164 On ch=3 n=c4 v=0
373164 On ch=3 n=g3 v=0
373164 On ch=3 n=c3 v=0
373164 On ch=2 n=e5 v=0
373164 On ch=2 n=c5 v=0
373164 On ch=2 n=g4 v=0
373164 On ch=2 n=e4 v=0
373252 On ch=2 n=e4 v=120
373252 On ch=2 n=g4 v=120
373252 On ch=2 n=c5 v=120
373252 On ch=2 n=e5 v=120
373252 On ch=3 n=c3 v=120
373252 On ch=3 n=g3 v=120
373252 On ch=3 n=c4 v=120
373428 On ch=3 n=c4 v=0
373428 On ch=3 n=g3 v=0
373428 On ch=3 n=c3 v=0
373428 On ch=2 n=e5 v=0
373428 On ch=2 n=c5 v=0
373428 On ch=2 n=g4 v=0
373428 On ch=2 n=e4 v=0
373604 On ch=2 n=e4 v=120
373604 On ch=2 n=g4 v=120
373604 On ch=2 n=c5 v=120
373604 On ch=2 n=e5 v=120
373604 On ch=3 n=c3 v=120
373604 On ch=3 n=g3 v=120
373604 On ch=3 n=c4 v=120
373780 On ch=3 n=c4 v=0
373780 On ch=3 n=g3 v=0
373780 On ch=3 n=c3 v=0
373780 On ch=2 n=e5 v=0
373780 On ch=2 n=c5 v=0
373780 On ch=2 n=g4 v=0
373780 On ch=2 n=e4 v=0
373960 On ch=2 n=e4 v=120
373960 On ch=3 n=c3 v=120
374004 On ch=2 n=g4 v=120
374028 On ch=3 n=g3 v=120
374048 On ch=2 n=c5 v=120
374096 On ch=2 n=e5 v=120
374096 On ch=3 n=c4 v=120
374324 On ch=3 n=c4 v=0
374324 On ch=2 n=e5 v=0
374324 On ch=2 n=c5 v=0
374324 On ch=3 n=g3 v=0
374324 On ch=2 n=g4 v=0
374324 On ch=3 n=c3 v=0
374324 On ch=2 n=e4 v=0
374692 On ch=2 n=e4 v=120
374692 On ch=3 n=c3 v=120
374740 On ch=2 n=g4 v=120
374760 On ch=3 n=g3 v=120
374784 On ch=2 n=c5 v=120
374832 On ch=2 n=e5 v=120
374832 On ch=3 n=c4 v=120
375068 On ch=3 n=c4 v=0
375068 On ch=2 n=e5 v=0
375068 On ch=2 n=c5 v=0
375068 On ch=3 n=g3 v=0
375068 On ch=2 n=g4 v=0
375068 On ch=3 n=c3 v=0
375068 On ch=2 n=e4 v=0
375448 Par ch=1 c=64 v=0
375448 Par ch=1 c=64 v=127
375448 Par ch=1 c=64 v=0
375448 Par ch=1 c=64 v=127
375448 Par ch=2 c=64 v=0
375448 Par ch=2 c=64 v=127
375448 On ch=2 n=d#4 v=120
375448 Par ch=2 c=64 v=0
375448 Par ch=2 c=64 v=127
375448 Par ch=3 c=64 v=0
375448 Par ch=3 c=64 v=127
375448 Par ch=3 c=64 v=0
375448 Par ch=3 c=64 v=127
375448 On ch=3 n=d#3 v=120
375496 On ch=2 n=g4 v=120
375544 On ch=2 n=c#5 v=120
375544 On ch=3 n=a#3 v=120
375592 On ch=2 n=d#5 v=120
375836 On ch=2 n=d#5 v=0
375836 On ch=3 n=a#3 v=0
375836 On ch=2 n=c#5 v=0
375836 On ch=2 n=g4 v=0
375836 On ch=3 n=d#3 v=0
375836 On ch=2 n=d#4 v=0
376232 Par ch=1 c=64 v=0
376232 Par ch=1 c=64 v=127
376232 Par ch=1 c=64 v=0
376232 Par ch=1 c=64 v=127
376232 Par ch=2 c=64 v=0
376232 Par ch=2 c=64 v=127
376232 On ch=2 n=g#4 v=120
376232 On ch=2 n=c5 v=120
376232 On ch=2 n=g#5 v=120
376232 Par ch=2 c=64 v=0
376232 Par ch=2 c=64 v=127
376232 Par ch=3 c=64 v=0
376232 Par ch=3 c=64 v=127
376232 Par ch=3 c=64 v=0
376232 Par ch=3 c=64 v=127
376232 On ch=3 n=g#2 v=120
376232 On ch=3 n=g#3 v=120
376632 On ch=3 n=g#3 v=0
376632 On ch=3 n=g#2 v=0
376632 On ch=2 n=g#5 v=0
376632 On ch=2 n=c5 v=0
376632 On ch=2 n=g#4 v=0
377872 Par ch=1 c=64 v=0
377872 Par ch=2 c=64 v=0
377872 Par ch=3 c=64 v=0
379120 Par ch=1 c=120 v=0
379120 Par ch=2 c=120 v=0
379120 Par ch=3 c=120 v=0
379120 Meta TrkEnd
TrkEnd
