MFile 1 2 480
MTrk
0 TimeSig 4/4 24 8
0 Tempo 500000
570240 Tempo 625000
579840 Tempo 582524
583680 Tempo 555556
602880 Tempo 500000
602880 Meta TrkEnd
TrkEnd
MTrk
0 SeqSpec 43 00 01 00
0 Meta TrkName "Frederic Chopin:"
0 PrCh ch=1 p=0
76 On ch=1 n=g#5 v=73
76 On ch=1 n=g#3 v=57
80 On ch=1 n=g#2 v=57
84 On ch=1 n=g#4 v=67
94 On ch=1 n=b4 v=70
126 Par ch=1 c=64 v=127
216 On ch=1 n=d#5 v=74
256 On ch=1 n=g#5 v=0
648 On ch=1 n=g#2 v=0
830 On ch=1 n=d#5 v=0
842 On ch=1 n=g#3 v=0
850 On ch=1 n=g#4 v=0
860 On ch=1 n=b4 v=0
1392 On ch=1 n=b2 v=66
1408 On ch=1 n=f#4 v=63
1408 On ch=1 n=b3 v=54
1412 On ch=1 n=d#5 v=70
1414 On ch=1 n=b4 v=73
1558 Par ch=1 c=64 v=0
1798 Par ch=1 c=64 v=127
3282 On ch=1 n=b2 v=0
3408 Par ch=1 c=64 v=0
3424 On ch=1 n=b2 v=67
3648 Par ch=1 c=64 v=127
4124 On ch=1 n=b3 v=0
4128 On ch=1 n=d#5 v=0
4130 On ch=1 n=b4 v=0
4148 On ch=1 n=f#4 v=0
4160 On ch=1 n=f#3 v=57
4528 On ch=1 n=b3 v=45
4792 On ch=1 n=f#4 v=50
4930 On ch=1 n=b3 v=0
5100 On ch=1 n=b4 v=36
5346 On ch=1 n=c#5 v=46
5366 On ch=1 n=b4 v=0
5380 On ch=1 n=f#4 v=0
5404 On ch=1 n=b2 v=0
5594 On ch=1 n=e5 v=57
5640 On ch=1 n=f#3 v=0
5706 On ch=1 n=c#5 v=0
5794 On ch=1 n=d#5 v=56
5812 On ch=1 n=e5 v=0
6004 On ch=1 n=f#5 v=59
6068 On ch=1 n=d#5 v=0
6230 On ch=1 n=b5 v=60
6360 On ch=1 n=f#5 v=0
6418 On ch=1 n=c#6 v=68
6454 On ch=1 n=b5 v=0
6636 On ch=1 n=e6 v=60
6654 On ch=1 n=c#6 v=0
6832 On ch=1 n=d#6 v=56
6882 On ch=1 n=e6 v=0
7030 On ch=1 n=f#6 v=57
7110 On ch=1 n=d#6 v=0
7242 On ch=1 n=b6 v=55
7440 On ch=1 n=c#7 v=45
7456 On ch=1 n=f#6 v=0
7476 On ch=1 n=b6 v=0
7666 On ch=1 n=e7 v=56
7732 On ch=1 n=c#7 v=0
7864 On ch=1 n=d#7 v=50
7890 On ch=1 n=e7 v=0
8076 On ch=1 n=f#7 v=49
8184 On ch=1 n=d#7 v=0
8304 On ch=1 n=b7 v=43
8476 On ch=1 n=f#7 v=0
8506 On ch=1 n=c#8 v=51
8546 On ch=1 n=b7 v=0
8788 On ch=1 n=e8 v=35
8846 On ch=1 n=c#8 v=0
9022 On ch=1 n=d#8 v=54
9034 On ch=1 n=e8 v=0
9460 On ch=1 n=d#8 v=0
11880 On ch=1 n=f#2 v=62
11896 On ch=1 n=f#3 v=49
11898 On ch=1 n=f#5 v=73
11910 On ch=1 n=a#4 v=68
11910 On ch=1 n=f#4 v=64
11930 Par ch=1 c=64 v=0
12048 On ch=1 n=c#5 v=79
12066 On ch=1 n=f#5 v=0
12094 Par ch=1 c=64 v=127
12180 On ch=1 n=a#4 v=0
12740 On ch=1 n=c#5 v=0
12740 On ch=1 n=f#2 v=0
12756 On ch=1 n=f#3 v=0
12770 On ch=1 n=f#4 v=0
13132 On ch=1 n=c#5 v=76
13146 On ch=1 n=a4 v=79
13146 On ch=1 n=e4 v=73
13146 On ch=1 n=a3 v=63
13158 On ch=1 n=a2 v=68
13284 Par ch=1 c=64 v=0
13468 Par ch=1 c=64 v=127
15100 On ch=1 n=a2 v=0
15552 On ch=1 n=a2 v=68
15560 Par ch=1 c=64 v=0
15936 On ch=1 n=e3 v=64
16096 On ch=1 n=a3 v=0
16112 On ch=1 n=a4 v=0
16126 On ch=1 n=c#5 v=0
16156 Par ch=1 c=64 v=127
16162 On ch=1 n=e4 v=0
16224 On ch=1 n=a3 v=45
16538 On ch=1 n=e3 v=0
16556 On ch=1 n=a3 v=0
16556 On ch=1 n=e4 v=46
16824 On ch=1 n=a4 v=50
16888 On ch=1 n=e4 v=0
17082 On ch=1 n=b4 v=67
17092 On ch=1 n=a2 v=0
17142 On ch=1 n=a4 v=0
17324 On ch=1 n=d5 v=64
17384 On ch=1 n=b4 v=0
17532 On ch=1 n=c#5 v=69
17550 On ch=1 n=d5 v=0
17748 On ch=1 n=c#5 v=0
17760 On ch=1 n=e5 v=62
17928 On ch=1 n=a5 v=67
18114 On ch=1 n=e5 v=0
18142 On ch=1 n=b5 v=62
18288 On ch=1 n=a5 v=0
18338 On ch=1 n=b5 v=0
18344 On ch=1 n=d6 v=60
18518 On ch=1 n=c#6 v=56
18556 On ch=1 n=d6 v=0
18736 On ch=1 n=e6 v=55
18872 On ch=1 n=c#6 v=0
18940 On ch=1 n=a6 v=55
19074 On ch=1 n=e6 v=0
19156 On ch=1 n=b6 v=60
19258 On ch=1 n=a6 v=0
19380 On ch=1 n=d7 v=53
19426 On ch=1 n=b6 v=0
19592 On ch=1 n=c#7 v=61
19594 On ch=1 n=d7 v=0
19834 On ch=1 n=e7 v=41
19946 On ch=1 n=c#7 v=0
20062 On ch=1 n=a7 v=57
20188 On ch=1 n=e7 v=0
20312 On ch=1 n=b7 v=43
20416 On ch=1 n=a7 v=0
20576 On ch=1 n=d8 v=46
20664 On ch=1 n=b7 v=0
20850 On ch=1 n=c#8 v=47
20898 On ch=1 n=d8 v=0
21348 On ch=1 n=c#8 v=0
22704 On ch=1 n=e4 v=59
22710 On ch=1 n=c#4 v=45
22712 On ch=1 n=e5 v=57
22720 On ch=1 n=c#3 v=53
22864 On ch=1 n=b4 v=73
22876 On ch=1 n=e5 v=0
22964 Par ch=1 c=64 v=0
23148 Par ch=1 c=64 v=127
23526 On ch=1 n=a4 v=63
23588 On ch=1 n=b4 v=0
23906 On ch=1 n=e4 v=0
23912 On ch=1 n=c#4 v=0
23922 On ch=1 n=c#3 v=0
24192 On ch=1 n=c#4 v=56
24192 On ch=1 n=e3 v=48
24196 On ch=1 n=a4 v=0
24196 On ch=1 n=g#4 v=63
24258 Par ch=1 c=64 v=0
24408 Par ch=1 c=64 v=127
24996 On ch=1 n=g4 v=65
25014 On ch=1 n=g#4 v=0
25354 On ch=1 n=e3 v=0
25354 On ch=1 n=c#4 v=0
25584 On ch=1 n=b4 v=61
25586 On ch=1 n=g4 v=0
25598 On ch=1 n=g#4 v=42
25718 On ch=1 n=a#4 v=58
25742 On ch=1 n=g4 v=64
25758 On ch=1 n=b4 v=0
25772 On ch=1 n=g#4 v=0
26272 On ch=1 n=d3 v=61
26366 Par ch=1 c=64 v=0
26384 On ch=1 n=d#3 v=62
26442 On ch=1 n=d3 v=0
26480 On ch=1 n=f#3 v=63
26500 On ch=1 n=d#3 v=0
26608 On ch=1 n=e3 v=56
26614 Par ch=1 c=64 v=127
26620 On ch=1 n=f#3 v=0
27218 On ch=1 n=e3 v=0
27266 Par ch=1 c=64 v=0
27312 On ch=1 n=d#3 v=70
27404 On ch=1 n=d#3 v=0
27472 Par ch=1 c=64 v=127
27488 On ch=1 n=d#3 v=68
28114 On ch=1 n=d#3 v=0
28128 On ch=1 n=a#2 v=52
28160 Par ch=1 c=64 v=0
28288 On ch=1 n=d#3 v=60
28352 On ch=1 n=a#2 v=0
28384 Par ch=1 c=64 v=127
28824 On ch=1 n=g4 v=0
28954 On ch=1 n=a#4 v=0
29280 On ch=1 n=d#3 v=0
29868 On ch=1 n=g5 v=52
29884 On ch=1 n=g4 v=35
30016 Par ch=1 c=64 v=0
30968 Par ch=1 c=64 v=127
31454 On ch=1 n=f#5 v=50
31468 On ch=1 n=f#4 v=31
31554 On ch=1 n=g4 v=0
31560 On ch=1 n=g5 v=0
31844 On ch=1 n=f#4 v=0
31982 On ch=1 n=f#5 v=0
32420 On ch=1 n=f#5 v=45
32420 On ch=1 n=d#3 v=40
32434 On ch=1 n=d#5 v=44
32436 On ch=1 n=d#6 v=49
32446 On ch=1 n=d#4 v=31
32472 Par ch=1 c=64 v=0
32582 On ch=1 n=a#5 v=47
32590 Par ch=1 c=64 v=127
32628 On ch=1 n=d#6 v=0
32670 On ch=1 n=f#5 v=0
32764 On ch=1 n=d#5 v=0
32902 On ch=1 n=d#3 v=0
32998 On ch=1 n=d#4 v=0
33096 On ch=1 n=a#5 v=0
33298 On ch=1 n=f#3 v=33
33406 On ch=1 n=c#4 v=33
33494 On ch=1 n=f#4 v=33
33536 On ch=1 n=a#4 v=41
33612 On ch=1 n=c#5 v=45
33718 On ch=1 n=f#5 v=39
33826 Par ch=1 c=64 v=0
33862 On ch=1 n=a#5 v=54
34090 Par ch=1 c=64 v=127
34964 On ch=1 n=c#4 v=0
35010 On ch=1 n=f#4 v=0
35346 On ch=1 n=f#3 v=0
36048 On ch=1 n=f#2 v=54
36324 Par ch=1 c=64 v=0
36456 Par ch=1 c=64 v=127
36480 On ch=1 n=f#3 v=52
36864 On ch=1 n=c#4 v=51
36878 On ch=1 n=a#5 v=0
36946 On ch=1 n=f#5 v=0
36972 On ch=1 n=a#4 v=0
37036 On ch=1 n=c#5 v=0
37220 On ch=1 n=f#4 v=50
37302 On ch=1 n=c#4 v=0
37336 On ch=1 n=f#2 v=0
37498 On ch=1 n=g#4 v=49
37606 On ch=1 n=f#4 v=0
37744 On ch=1 n=g#4 v=0
37764 On ch=1 n=b4 v=48
37850 On ch=1 n=f#3 v=0
37968 On ch=1 n=a#4 v=47
37986 On ch=1 n=b4 v=0
38154 On ch=1 n=c#5 v=47
38180 On ch=1 n=a#4 v=0
38370 On ch=1 n=f#5 v=46
38508 On ch=1 n=c#5 v=0
38514 On ch=1 n=g#5 v=46
38532 On ch=1 n=f#5 v=0
38694 On ch=1 n=b5 v=45
38712 On ch=1 n=g#5 v=0
38896 On ch=1 n=a#5 v=45
38936 On ch=1 n=b5 v=0
39046 On ch=1 n=c#6 v=45
39244 On ch=1 n=f#6 v=44
39250 On ch=1 n=a#5 v=0
39384 On ch=1 n=c#6 v=0
39422 On ch=1 n=g#6 v=44
39482 On ch=1 n=f#6 v=0
39608 On ch=1 n=b6 v=43
39650 On ch=1 n=g#6 v=0
39786 On ch=1 n=a#6 v=43
39804 On ch=1 n=b6 v=0
39988 On ch=1 n=c#7 v=42
40056 On ch=1 n=a#6 v=0
40162 On ch=1 n=f#7 v=41
40342 On ch=1 n=c#7 v=0
40360 On ch=1 n=g#7 v=41
40448 On ch=1 n=f#7 v=0
40572 On ch=1 n=b7 v=40
40620 On ch=1 n=g#7 v=0
40780 On ch=1 n=a#7 v=40
40786 On ch=1 n=b7 v=0
41180 On ch=1 n=a#7 v=0
42568 On ch=1 n=c#3 v=49
42586 On ch=1 n=c#4 v=37
42600 On ch=1 n=c#6 v=52
42600 On ch=1 n=c#5 v=34
42616 On ch=1 n=f5 v=45
42624 Par ch=1 c=64 v=0
42746 Par ch=1 c=64 v=127
42766 On ch=1 n=g#5 v=58
42784 On ch=1 n=c#6 v=0
42900 On ch=1 n=f5 v=0
43050 On ch=1 n=c#5 v=0
43080 On ch=1 n=c#3 v=0
43114 On ch=1 n=c#4 v=0
43280 On ch=1 n=g#5 v=0
43542 On ch=1 n=e3 v=40
43600 On ch=1 n=b3 v=45
43672 On ch=1 n=e4 v=41
43728 On ch=1 n=g#4 v=49
43810 On ch=1 n=b4 v=48
43896 On ch=1 n=e5 v=34
43934 Par ch=1 c=64 v=0
43946 On ch=1 n=g#5 v=49
44180 Par ch=1 c=64 v=127
44988 On ch=1 n=b3 v=0
45004 On ch=1 n=e3 v=0
45078 On ch=1 n=e4 v=0
45186 On ch=1 n=e2 v=73
45650 On ch=1 n=e3 v=64
45748 On ch=1 n=e5 v=0
46048 On ch=1 n=b3 v=65
46110 On ch=1 n=g#5 v=0
46144 On ch=1 n=b4 v=0
46248 On ch=1 n=g#4 v=0
46298 On ch=1 n=e2 v=0
46356 On ch=1 n=e4 v=50
46476 On ch=1 n=b3 v=0
46614 On ch=1 n=f#4 v=38
46660 On ch=1 n=e3 v=0
46666 On ch=1 n=e4 v=0
46868 On ch=1 n=a4 v=51
46900 On ch=1 n=f#4 v=0
47066 On ch=1 n=g#4 v=56
47074 On ch=1 n=a4 v=0
47288 On ch=1 n=g#4 v=0
47290 On ch=1 n=b4 v=45
47518 On ch=1 n=e5 v=32
47644 On ch=1 n=b4 v=0
47698 On ch=1 n=f#5 v=35
47772 On ch=1 n=e5 v=0
47880 On ch=1 n=a5 v=48
47932 On ch=1 n=f#5 v=0
48072 On ch=1 n=g#5 v=56
48178 On ch=1 n=a5 v=0
48244 On ch=1 n=b5 v=62
48422 On ch=1 n=e6 v=61
48426 On ch=1 n=g#5 v=0
48588 On ch=1 n=f#6 v=47
48622 On ch=1 n=b5 v=0
48662 On ch=1 n=e6 v=0
48774 On ch=1 n=a6 v=45
48860 On ch=1 n=f#6 v=0
48920 On ch=1 n=g#6 v=53
48942 On ch=1 n=a6 v=0
49060 On ch=1 n=g#6 v=0
49132 On ch=1 n=b6 v=59
49320 On ch=1 n=e7 v=56
49500 On ch=1 n=f#7 v=35
49550 On ch=1 n=b6 v=0
49618 On ch=1 n=e7 v=0
49730 On ch=1 n=a7 v=37
49814 On ch=1 n=f#7 v=0
49922 On ch=1 n=g#7 v=46
49956 On ch=1 n=a7 v=0
50370 On ch=1 n=g#7 v=0
52576 On ch=1 n=g#4 v=35
52588 On ch=1 n=b4 v=55
52592 On ch=1 n=g#3 v=50
52618 On ch=1 n=b5 v=67
52724 On ch=1 n=f#5 v=85
52772 On ch=1 n=b5 v=0
52786 Par ch=1 c=64 v=0
52970 Par ch=1 c=64 v=127
53436 On ch=1 n=f#5 v=0
53480 On ch=1 n=e5 v=66
53540 On ch=1 n=b4 v=0
53772 On ch=1 n=g#4 v=0
53870 On ch=1 n=g#3 v=0
54042 Par ch=1 c=64 v=0
54128 On ch=1 n=d#5 v=67
54128 On ch=1 n=g#4 v=48
54144 On ch=1 n=b3 v=66
54144 On ch=1 n=b4 v=46
54176 Par ch=1 c=64 v=127
54198 On ch=1 n=e5 v=0
54720 On ch=1 n=b4 v=0
54720 On ch=1 n=g#4 v=0
54720 On ch=1 n=d#5 v=0
54860 On ch=1 n=g#4 v=61
54866 On ch=1 n=d5 v=66
54874 On ch=1 n=f4 v=52
55630 On ch=1 n=g#4 v=0
55666 On ch=1 n=f#5 v=72
55680 On ch=1 n=d#5 v=46
55696 On ch=1 n=d5 v=0
55696 On ch=1 n=g#4 v=62
55704 On ch=1 n=f4 v=0
55842 On ch=1 n=d#5 v=0
55852 On ch=1 n=f#5 v=0
55856 On ch=1 n=g#4 v=0
55888 On ch=1 n=f5 v=52
55896 On ch=1 n=d5 v=52
55908 On ch=1 n=g#4 v=45
56400 On ch=1 n=g#4 v=0
56400 On ch=1 n=d5 v=0
56400 On ch=1 n=f5 v=0
56400 On ch=1 n=b3 v=0
56400 On ch=1 n=a3 v=57
56400 On ch=1 n=a2 v=34
56472 On ch=1 n=a#2 v=40
56480 On ch=1 n=a#3 v=51
56502 Par ch=1 c=64 v=127
56560 On ch=1 n=a2 v=0
56560 On ch=1 n=a3 v=0
56568 On ch=1 n=c#4 v=56
56568 On ch=1 n=c#3 v=28
56632 On ch=1 n=a#3 v=0
56632 On ch=1 n=b3 v=68
56640 On ch=1 n=b2 v=47
56654 On ch=1 n=a#2 v=0
56668 Par ch=1 c=64 v=0
56718 On ch=1 n=c#3 v=0
56718 On ch=1 n=c#4 v=0
56798 Par ch=1 c=64 v=127
57088 On ch=1 n=f#4 v=67
57096 On ch=1 n=d#5 v=67
57096 On ch=1 n=a4 v=51
57314 On ch=1 n=f#4 v=0
57324 On ch=1 n=a4 v=0
57324 On ch=1 n=d#5 v=0
57480 On ch=1 n=g#4 v=56
57498 On ch=1 n=d5 v=58
57510 On ch=1 n=f4 v=36
57666 Par ch=1 c=64 v=0
57782 Par ch=1 c=64 v=127
58160 On ch=1 n=g#4 v=0
58184 On ch=1 n=f#5 v=72
58184 On ch=1 n=g#4 v=57
58204 On ch=1 n=d#5 v=48
58208 On ch=1 n=d5 v=0
58220 On ch=1 n=f4 v=0
58342 On ch=1 n=g#4 v=0
58342 On ch=1 n=f#5 v=0
58352 On ch=1 n=d5 v=52
58360 On ch=1 n=f5 v=52
58360 On ch=1 n=g#4 v=45
58362 On ch=1 n=d#5 v=0
58732 On ch=1 n=b3 v=0
58740 On ch=1 n=b2 v=0
58800 On ch=1 n=g#4 v=0
58800 On ch=1 n=f5 v=0
58800 On ch=1 n=d5 v=0
58816 On ch=1 n=a2 v=40
58820 On ch=1 n=a3 v=68
58896 On ch=1 n=a#2 v=48
58904 On ch=1 n=a#3 v=60
58980 On ch=1 n=a2 v=0
58984 On ch=1 n=a3 v=0
58992 On ch=1 n=c#4 v=67
59000 On ch=1 n=c#3 v=34
59048 On ch=1 n=a#2 v=0
59056 On ch=1 n=a#3 v=0
59092 Par ch=1 c=64 v=0
59112 On ch=1 n=b3 v=71
59112 On ch=1 n=b2 v=49
59142 On ch=1 n=c#4 v=0
59150 On ch=1 n=c#3 v=0
59222 Par ch=1 c=64 v=127
59568 On ch=1 n=a4 v=67
59574 On ch=1 n=f#5 v=63
59584 On ch=1 n=d#5 v=63
59850 On ch=1 n=a4 v=0
59856 On ch=1 n=f#5 v=0
59866 On ch=1 n=d#5 v=0
59938 On ch=1 n=g#4 v=73
59952 On ch=1 n=g#5 v=73
59952 On ch=1 n=e5 v=68
60548 On ch=1 n=g#4 v=0
60552 On ch=1 n=f#4 v=35
60558 On ch=1 n=a5 v=73
60562 On ch=1 n=e5 v=0
60562 On ch=1 n=g#5 v=0
60572 On ch=1 n=d#5 v=66
60690 On ch=1 n=d#5 v=0
60716 On ch=1 n=d#5 v=73
60724 On ch=1 n=f#5 v=73
60738 On ch=1 n=a4 v=66
60752 On ch=1 n=f#4 v=0
60758 On ch=1 n=a5 v=0
60758 Par ch=1 c=64 v=0
60900 Par ch=1 c=64 v=127
61134 On ch=1 n=c#4 v=79
61212 On ch=1 n=b2 v=0
61212 On ch=1 n=b3 v=0
61340 On ch=1 n=c4 v=62
61342 On ch=1 n=c#4 v=0
61480 Par ch=1 c=64 v=0
61498 On ch=1 n=a4 v=0
61526 On ch=1 n=b3 v=72
61552 On ch=1 n=c4 v=0
61630 Par ch=1 c=64 v=127
61722 On ch=1 n=d#5 v=0
61896 On ch=1 n=g#5 v=67
61896 On ch=1 n=g#4 v=69
61912 On ch=1 n=e5 v=60
61932 On ch=1 n=f#5 v=0
62162 On ch=1 n=g#4 v=0
62258 On ch=1 n=d#5 v=73
62264 On ch=1 n=f#4 v=61
62266 On ch=1 n=a5 v=76
62292 On ch=1 n=e5 v=0
62298 On ch=1 n=g#5 v=0
62306 On ch=1 n=b3 v=0
62818 On ch=1 n=d#5 v=0
62842 On ch=1 n=c#6 v=70
62842 On ch=1 n=d#5 v=70
62848 On ch=1 n=f#4 v=0
62850 On ch=1 n=a5 v=0
62862 On ch=1 n=a4 v=42
63006 On ch=1 n=b5 v=69
63006 On ch=1 n=g#4 v=60
63020 On ch=1 n=e5 v=68
63022 On ch=1 n=d#5 v=0
63022 On ch=1 n=c#6 v=0
63042 On ch=1 n=a4 v=0
63082 Par ch=1 c=64 v=0
63176 Par ch=1 c=64 v=127
63456 On ch=1 n=c#4 v=45
63646 On ch=1 n=g#4 v=0
63646 On ch=1 n=b5 v=0
63648 On ch=1 n=d#5 v=73
63660 On ch=1 n=e5 v=0
63664 On ch=1 n=f#5 v=75
63664 On ch=1 n=c4 v=65
63676 On ch=1 n=c#4 v=0
63868 On ch=1 n=f#5 v=0
63878 On ch=1 n=d#5 v=0
63880 On ch=1 n=c4 v=0
63904 On ch=1 n=b3 v=67
63920 On ch=1 n=g#5 v=68
63920 On ch=1 n=e5 v=70
64158 Par ch=1 c=64 v=0
64308 Par ch=1 c=64 v=127
64730 On ch=1 n=e5 v=0
64730 On ch=1 n=g#5 v=0
64742 On ch=1 n=c#6 v=58
64758 On ch=1 n=e5 v=53
64766 On ch=1 n=a#4 v=58
64766 On ch=1 n=g4 v=49
64958 On ch=1 n=f#5 v=54
64964 On ch=1 n=d#5 v=53
64974 On ch=1 n=b4 v=32
64982 On ch=1 n=f#4 v=28
65014 On ch=1 n=c#6 v=0
65018 Par ch=1 c=64 v=0
65030 On ch=1 n=e5 v=0
65038 On ch=1 n=g4 v=0
65038 On ch=1 n=a#4 v=0
65154 Par ch=1 c=64 v=127
65530 On ch=1 n=d#5 v=0
65534 On ch=1 n=f#5 v=0
65534 On ch=1 n=g#5 v=52
65536 On ch=1 n=d5 v=57
65540 On ch=1 n=b4 v=0
65544 On ch=1 n=f4 v=63
65548 On ch=1 n=f#4 v=0
65822 On ch=1 n=g#5 v=0
65824 On ch=1 n=d5 v=0
65840 On ch=1 n=b5 v=64
65850 Par ch=1 c=64 v=0
65856 On ch=1 n=c#5 v=64
65880 On ch=1 n=f4 v=0
65882 On ch=1 n=f#4 v=32
66002 Par ch=1 c=64 v=127
66126 On ch=1 n=b5 v=0
66142 On ch=1 n=a5 v=54
66366 On ch=1 n=g#5 v=58
66392 On ch=1 n=a5 v=0
66590 On ch=1 n=d#5 v=53
66590 On ch=1 n=f#5 v=58
66592 On ch=1 n=a4 v=37
66620 On ch=1 n=g#5 v=0
66638 Par ch=1 c=64 v=0
66652 On ch=1 n=c#5 v=0
66678 On ch=1 n=f#4 v=0
66740 Par ch=1 c=64 v=127
66976 On ch=1 n=b3 v=0
67160 On ch=1 n=f#5 v=0
67178 On ch=1 n=g#5 v=52
67320 On ch=1 n=d#5 v=0
67322 On ch=1 n=a4 v=0
67334 On ch=1 n=g#4 v=52
67344 On ch=1 n=e5 v=56
67346 Par ch=1 c=64 v=0
67354 On ch=1 n=b3 v=39
67394 On ch=1 n=g#5 v=0
67482 Par ch=1 c=64 v=127
68028 On ch=1 n=b4 v=49
68314 On ch=1 n=e5 v=0
68322 On ch=1 n=d#4 v=66
68394 On ch=1 n=g#4 v=0
68572 On ch=1 n=b4 v=0
68634 On ch=1 n=d#4 v=0
68648 On ch=1 n=e4 v=72
68652 On ch=1 n=g#5 v=58
68664 On ch=1 n=e5 v=56
68686 Par ch=1 c=64 v=0
68802 Par ch=1 c=64 v=127
69146 On ch=1 n=c#5 v=56
69152 On ch=1 n=e5 v=0
69192 On ch=1 n=e4 v=0
69376 On ch=1 n=a5 v=56
69382 On ch=1 n=e5 v=52
69402 On ch=1 n=f#4 v=51
69408 On ch=1 n=c#5 v=0
69416 On ch=1 n=g#5 v=0
69810 Par ch=1 c=64 v=0
69872 On ch=1 n=g#4 v=44
69948 On ch=1 n=f#4 v=0
70006 Par ch=1 c=64 v=127
70074 On ch=1 n=g#4 v=0
70206 On ch=1 n=b4 v=58
70440 On ch=1 n=a4 v=59
70462 On ch=1 n=b4 v=0
70602 On ch=1 n=g#4 v=66
70634 On ch=1 n=a4 v=0
70706 On ch=1 n=a5 v=0
70712 On ch=1 n=e5 v=0
70754 Par ch=1 c=64 v=0
70786 On ch=1 n=a5 v=54
70798 On ch=1 n=f#4 v=51
70800 On ch=1 n=d#5 v=48
70838 On ch=1 n=g#4 v=0
70876 Par ch=1 c=64 v=127
70964 On ch=1 n=b3 v=0
71186 On ch=1 n=a5 v=0
71238 On ch=1 n=f#4 v=0
71240 On ch=1 n=d#5 v=0
71264 On ch=1 n=g#5 v=34
71280 On ch=1 n=g#4 v=51
71416 Par ch=1 c=64 v=0
71424 On ch=1 n=g#5 v=0
71436 On ch=1 n=e4 v=57
71440 On ch=1 n=g#4 v=0
71440 On ch=1 n=b4 v=41
71448 On ch=1 n=e5 v=48
71458 On ch=1 n=g#5 v=54
71566 Par ch=1 c=64 v=127
72090 On ch=1 n=b4 v=0
72098 On ch=1 n=e5 v=0
72134 On ch=1 n=b3 v=45
72158 On ch=1 n=d#5 v=56
72234 On ch=1 n=g#5 v=0
72506 On ch=1 n=a#5 v=73
72550 On ch=1 n=e4 v=0
72594 On ch=1 n=b3 v=0
72618 On ch=1 n=d#5 v=0
72742 On ch=1 n=a#5 v=0
72832 On ch=1 n=d#5 v=66
72856 On ch=1 n=g#5 v=68
72858 On ch=1 n=b5 v=75
72870 On ch=1 n=g#3 v=53
72872 On ch=1 n=g#2 v=61
72900 Par ch=1 c=64 v=0
72978 Par ch=1 c=64 v=127
73354 On ch=1 n=e6 v=73
73372 On ch=1 n=b5 v=0
73382 On ch=1 n=d#5 v=0
73406 On ch=1 n=g#5 v=0
73420 On ch=1 n=g#3 v=0
73422 On ch=1 n=g#2 v=0
73488 On ch=1 n=c#4 v=64
73490 Par ch=1 c=64 v=0
73504 On ch=1 n=e5 v=70
73516 On ch=1 n=a#5 v=85
73516 On ch=1 n=g#5 v=81
73520 On ch=1 n=c#3 v=62
73544 On ch=1 n=e6 v=0
73610 Par ch=1 c=64 v=127
73866 On ch=1 n=a#5 v=0
73900 On ch=1 n=g#5 v=0
73948 On ch=1 n=c#4 v=0
73980 On ch=1 n=c#3 v=0
74034 On ch=1 n=b5 v=75
74048 On ch=1 n=e5 v=0
74192 Par ch=1 c=64 v=0
74224 On ch=1 n=a#3 v=48
74224 On ch=1 n=a#2 v=9
74242 On ch=1 n=d#6 v=73
74248 On ch=1 n=g#5 v=44
74248 On ch=1 n=e5 v=50
74304 On ch=1 n=b5 v=0
74334 Par ch=1 c=64 v=127
74504 On ch=1 n=c#6 v=75
74530 On ch=1 n=d#6 v=0
74684 On ch=1 n=a#2 v=0
74684 On ch=1 n=a#3 v=0
74712 On ch=1 n=b5 v=74
74728 On ch=1 n=g#5 v=0
74762 On ch=1 n=c#6 v=0
74776 On ch=1 n=e5 v=0
74960 Par ch=1 c=64 v=0
74978 On ch=1 n=c#5 v=79
74978 On ch=1 n=d#3 v=60
74980 On ch=1 n=a#5 v=66
74992 On ch=1 n=b5 v=0
75000 On ch=1 n=d#4 v=33
75010 On ch=1 n=g5 v=34
75114 Par ch=1 c=64 v=127
75506 On ch=1 n=d#3 v=0
75520 On ch=1 n=a#5 v=0
75534 On ch=1 n=d#4 v=0
75656 On ch=1 n=b5 v=73
75736 On ch=1 n=c#5 v=0
75768 On ch=1 n=g5 v=0
75792 Par ch=1 c=64 v=0
75832 On ch=1 n=b5 v=0
75834 On ch=1 n=g#5 v=73
75840 On ch=1 n=e5 v=71
75852 On ch=1 n=c#5 v=72
75864 On ch=1 n=g#3 v=51
75864 On ch=1 n=g#2 v=48
75946 Par ch=1 c=64 v=127
76294 On ch=1 n=e5 v=0
76440 On ch=1 n=c#5 v=0
76650 On ch=1 n=d#5 v=47
76662 On ch=1 n=b4 v=39
76800 Par ch=1 c=64 v=0
76894 Par ch=1 c=64 v=127
77012 On ch=1 n=a#3 v=50
77032 On ch=1 n=g#3 v=0
77056 On ch=1 n=g#2 v=0
77256 Par ch=1 c=64 v=0
77302 On ch=1 n=b3 v=51
77376 On ch=1 n=a#3 v=0
77470 Par ch=1 c=64 v=127
77604 On ch=1 n=b4 v=0
77636 On ch=1 n=g#5 v=0
77772 On ch=1 n=e4 v=49
77778 On ch=1 n=b3 v=0
77806 On ch=1 n=d#5 v=0
77860 Par ch=1 c=64 v=0
77952 On ch=1 n=a#3 v=48
78024 On ch=1 n=e4 v=0
78074 Par ch=1 c=64 v=127
78464 On ch=1 n=b3 v=41
78522 On ch=1 n=a#3 v=0
78640 On ch=1 n=d#4 v=49
78652 On ch=1 n=b3 v=0
78676 Par ch=1 c=64 v=0
78704 Par ch=1 c=64 v=127
78912 On ch=1 n=c#4 v=45
78950 On ch=1 n=d#4 v=0
79120 On ch=1 n=b3 v=51
79182 On ch=1 n=c#4 v=0
79240 Par ch=1 c=64 v=0
79408 On ch=1 n=g4 v=37
79410 On ch=1 n=b3 v=0
79416 On ch=1 n=d#5 v=41
79416 On ch=1 n=c#5 v=38
79418 On ch=1 n=a#3 v=55
79976 On ch=1 n=b3 v=42
80040 On ch=1 n=a#3 v=0
80040 On ch=1 n=c#5 v=0
80040 On ch=1 n=d#5 v=0
80040 On ch=1 n=g4 v=0
80232 On ch=1 n=d#5 v=41
80232 On ch=1 n=c5 v=46
80232 On ch=1 n=g#3 v=51
80232 Par ch=1 c=64 v=0
80240 On ch=1 n=f#4 v=40
80260 On ch=1 n=b3 v=0
80400 Par ch=1 c=64 v=127
81048 On ch=1 n=c#3 v=34
81062 On ch=1 n=g#3 v=0
81062 On ch=1 n=c5 v=0
81062 On ch=1 n=d#5 v=0
81064 On ch=1 n=c#5 v=50
81064 On ch=1 n=e4 v=32
81070 On ch=1 n=f#4 v=0
81500 Par ch=1 c=64 v=0
82146 Par ch=1 c=64 v=127
82154 On ch=1 n=a4 v=42
82712 On ch=1 n=a4 v=0
82938 On ch=1 n=c#3 v=0
82954 On ch=1 n=e4 v=0
82954 On ch=1 n=c#5 v=0
83104 On ch=1 n=g4 v=41
83106 Par ch=1 c=64 v=0
83114 On ch=1 n=d#3 v=34
83216 Par ch=1 c=64 v=127
83294 On ch=1 n=g4 v=0
83322 On ch=1 n=d#3 v=0
83712 On ch=1 n=d#5 v=38
83714 On ch=1 n=d#4 v=73
83786 On ch=1 n=d#5 v=0
83788 On ch=1 n=d#4 v=0
83808 On ch=1 n=d#5 v=73
83816 On ch=1 n=d#4 v=68
83840 Par ch=1 c=64 v=0
83904 On ch=1 n=d#5 v=0
83912 On ch=1 n=d#4 v=0
83914 On ch=1 n=d#5 v=81
83920 On ch=1 n=d#4 v=82
83974 On ch=1 n=d#5 v=0
83978 On ch=1 n=d#4 v=0
84270 On ch=1 n=d#5 v=73
84272 On ch=1 n=d#4 v=72
84332 On ch=1 n=d#5 v=0
84344 On ch=1 n=d#4 v=0
84648 Par ch=1 c=64 v=127
84684 On ch=1 n=d#4 v=70
84686 On ch=1 n=d#5 v=73
84774 On ch=1 n=d#5 v=0
84784 On ch=1 n=d#4 v=0
85144 On ch=1 n=d#4 v=73
85156 On ch=1 n=d#5 v=80
85218 On ch=1 n=d#4 v=0
85230 On ch=1 n=d#5 v=0
85256 On ch=1 n=d#5 v=72
85256 On ch=1 n=d#4 v=72
85344 On ch=1 n=d#4 v=0
85344 On ch=1 n=d#5 v=0
85358 On ch=1 n=d#5 v=81
85360 On ch=1 n=d#4 v=66
85434 On ch=1 n=d#5 v=0
85436 On ch=1 n=d#4 v=0
85520 Par ch=1 c=64 v=0
85654 Par ch=1 c=64 v=127
85698 On ch=1 n=d#5 v=70
85698 On ch=1 n=d#4 v=68
85772 On ch=1 n=d#4 v=0
85772 On ch=1 n=d#5 v=0
85800 On ch=1 n=d#4 v=62
85804 On ch=1 n=d#5 v=66
85896 On ch=1 n=d#4 v=0
85900 On ch=1 n=d#5 v=0
85936 On ch=1 n=d#4 v=73
85938 On ch=1 n=d#5 v=69
85994 On ch=1 n=d#4 v=0
85996 On ch=1 n=d#5 v=0
86034 Par ch=1 c=64 v=0
86264 On ch=1 n=d#4 v=67
86268 On ch=1 n=d#5 v=69
86322 On ch=1 n=d#4 v=0
86326 On ch=1 n=d#5 v=0
86546 Par ch=1 c=64 v=127
86608 On ch=1 n=d#4 v=65
86616 On ch=1 n=d#5 v=57
86800 On ch=1 n=d#4 v=0
86808 On ch=1 n=d#5 v=0
86834 Par ch=1 c=64 v=0
86936 On ch=1 n=d#5 v=48
86936 On ch=1 n=d#4 v=39
86982 Par ch=1 c=64 v=127
87128 On ch=1 n=d#4 v=0
87128 On ch=1 n=d#5 v=0
87262 On ch=1 n=d#5 v=45
87270 On ch=1 n=d#4 v=35
87448 On ch=1 n=d#5 v=0
87456 On ch=1 n=d#4 v=0
87584 On ch=1 n=f4 v=45
87592 On ch=1 n=d#5 v=50
87598 On ch=1 n=c#5 v=50
87776 On ch=1 n=f4 v=0
87778 On ch=1 n=d#5 v=0
87784 On ch=1 n=c#5 v=0
87892 On ch=1 n=g4 v=39
87910 On ch=1 n=a#5 v=73
87916 On ch=1 n=d#5 v=22
87918 On ch=1 n=c#5 v=50
88084 On ch=1 n=g4 v=0
88100 On ch=1 n=d#5 v=0
88104 On ch=1 n=c#5 v=0
88150 Par ch=1 c=64 v=0
88204 On ch=1 n=d#5 v=53
88206 On ch=1 n=c#5 v=50
88210 On ch=1 n=d#4 v=45
88280 Par ch=1 c=64 v=127
88392 On ch=1 n=c#5 v=0
88402 On ch=1 n=d#4 v=0
88402 On ch=1 n=d#5 v=0
88442 On ch=1 n=a#5 v=0
88536 On ch=1 n=g#4 v=45
88542 On ch=1 n=c#5 v=50
88544 On ch=1 n=d#5 v=27
88558 On ch=1 n=c6 v=76
88728 On ch=1 n=c#5 v=0
88728 On ch=1 n=g#4 v=0
88736 On ch=1 n=d#5 v=0
88770 Par ch=1 c=64 v=0
88872 On ch=1 n=f4 v=49
88888 On ch=1 n=d#5 v=50
88888 On ch=1 n=c#5 v=50
88912 Par ch=1 c=64 v=127
88990 On ch=1 n=c6 v=0
89050 On ch=1 n=f4 v=0
89074 On ch=1 n=c#5 v=0
89074 On ch=1 n=d#5 v=0
89172 On ch=1 n=a#5 v=76
89176 On ch=1 n=d#5 v=50
89182 On ch=1 n=c#5 v=50
89184 On ch=1 n=g4 v=44
89284 Par ch=1 c=64 v=0
89362 On ch=1 n=d#5 v=0
89368 On ch=1 n=c#5 v=0
89376 On ch=1 n=g4 v=0
89448 On ch=1 n=f4 v=49
89460 On ch=1 n=d#5 v=54
89470 On ch=1 n=c#5 v=50
89508 Par ch=1 c=64 v=127
89536 On ch=1 n=d#5 v=0
89566 On ch=1 n=d#5 v=81
89638 On ch=1 n=d#5 v=0
89640 On ch=1 n=f4 v=0
89642 Par ch=1 c=64 v=0
89656 On ch=1 n=c#5 v=0
89672 On ch=1 n=g4 v=47
89678 On ch=1 n=d#5 v=76
89694 On ch=1 n=c#5 v=50
89742 Par ch=1 c=64 v=127
89864 On ch=1 n=g4 v=0
89870 On ch=1 n=d#5 v=0
89870 On ch=1 n=a#5 v=0
89880 On ch=1 n=c#5 v=0
89976 On ch=1 n=d#5 v=50
89990 On ch=1 n=d#4 v=49
90002 On ch=1 n=c6 v=76
90162 On ch=1 n=d#5 v=0
90200 On ch=1 n=d#4 v=0
90220 Par ch=1 c=64 v=0
90288 On ch=1 n=c6 v=0
90296 On ch=1 n=c5 v=35
90308 On ch=1 n=g#4 v=45
90312 On ch=1 n=g#5 v=79
90364 Par ch=1 c=64 v=127
90488 On ch=1 n=c5 v=0
90500 On ch=1 n=g#4 v=0
90632 On ch=1 n=a#4 v=30
90632 On ch=1 n=g#4 v=39
90632 On ch=1 n=c#4 v=47
90642 On ch=1 n=f6 v=73
90656 On ch=1 n=g#5 v=0
90824 On ch=1 n=c#4 v=0
90824 On ch=1 n=g#4 v=0
90824 On ch=1 n=a#4 v=0
90908 Par ch=1 c=64 v=0
91020 On ch=1 n=g4 v=42
91030 On ch=1 n=d#4 v=19
91032 On ch=1 n=a#5 v=70
91038 On ch=1 n=c#5 v=36
91086 Par ch=1 c=64 v=127
91094 On ch=1 n=f6 v=0
91212 On ch=1 n=g4 v=0
91222 On ch=1 n=d#4 v=0
91230 On ch=1 n=c#5 v=0
91320 On ch=1 n=a#5 v=0
91372 On ch=1 n=d#3 v=81
91646 On ch=1 n=c6 v=79
91852 On ch=1 n=d#6 v=69
91902 On ch=1 n=c6 v=0
92040 On ch=1 n=c#6 v=73
92072 On ch=1 n=d#6 v=0
92078 On ch=1 n=d#3 v=0
92112 Par ch=1 c=64 v=0
92136 On ch=1 n=d#5 v=37
92136 On ch=1 n=d#4 v=46
92260 Par ch=1 c=64 v=127
92294 On ch=1 n=c6 v=79
92360 On ch=1 n=c#6 v=0
92444 On ch=1 n=d#4 v=0
92444 On ch=1 n=d#5 v=0
92520 On ch=1 n=d#5 v=53
92520 On ch=1 n=c#5 v=50
92520 On ch=1 n=g4 v=49
92536 On ch=1 n=a#5 v=69
92582 On ch=1 n=c6 v=0
92828 On ch=1 n=g4 v=0
92828 On ch=1 n=c#5 v=0
92828 On ch=1 n=d#5 v=0
92856 On ch=1 n=d#4 v=47
92862 On ch=1 n=d#5 v=50
92938 On ch=1 n=a#5 v=0
92968 On ch=1 n=c6 v=64
93048 On ch=1 n=d#5 v=0
93048 On ch=1 n=d#4 v=0
93096 Par ch=1 c=64 v=0
93144 On ch=1 n=g#5 v=59
93144 On ch=1 n=g#3 v=62
93228 Par ch=1 c=64 v=127
93240 On ch=1 n=c6 v=0
93502 On ch=1 n=d#4 v=40
93512 On ch=1 n=c5 v=50
93520 On ch=1 n=d#5 v=30
93698 On ch=1 n=c5 v=0
93712 On ch=1 n=d#5 v=0
93800 On ch=1 n=c5 v=50
93802 On ch=1 n=d#5 v=46
93808 On ch=1 n=f4 v=40
93812 On ch=1 n=d#4 v=0
93986 On ch=1 n=c5 v=0
93994 On ch=1 n=d#5 v=0
94078 On ch=1 n=c5 v=50
94078 On ch=1 n=g4 v=49
94082 On ch=1 n=d#5 v=38
94098 On ch=1 n=f4 v=0
94100 Par ch=1 c=64 v=0
94264 On ch=1 n=c5 v=0
94274 On ch=1 n=d#5 v=0
94296 On ch=1 n=g#3 v=0
94368 Par ch=1 c=64 v=127
94388 On ch=1 n=g4 v=0
94398 On ch=1 n=c5 v=50
94398 On ch=1 n=g#4 v=50
94400 On ch=1 n=d#5 v=39
94584 On ch=1 n=g#4 v=0
94584 On ch=1 n=c5 v=0
94592 On ch=1 n=d#5 v=0
94688 On ch=1 n=g#5 v=0
94824 On ch=1 n=f#4 v=46
94826 On ch=1 n=a#4 v=48
94840 On ch=1 n=f#3 v=70
95146 On ch=1 n=f#4 v=0
95148 On ch=1 n=a#4 v=0
95162 On ch=1 n=f#3 v=0
95176 On ch=1 n=a4 v=56
95176 On ch=1 n=f4 v=36
95176 On ch=1 n=f3 v=57
95234 Par ch=1 c=64 v=0
95348 Par ch=1 c=64 v=127
95368 On ch=1 n=c6 v=73
95446 On ch=1 n=f4 v=0
95484 On ch=1 n=a4 v=0
95832 On ch=1 n=g4 v=47
95850 On ch=1 n=d#5 v=47
95858 On ch=1 n=f5 v=39
95926 On ch=1 n=f3 v=0
96006 Par ch=1 c=64 v=0
96028 On ch=1 n=g4 v=0
96036 On ch=1 n=d#5 v=0
96050 On ch=1 n=f5 v=0
96112 Par ch=1 c=64 v=127
96124 On ch=1 n=d#5 v=44
96142 On ch=1 n=f5 v=44
96142 On ch=1 n=a4 v=44
96300 On ch=1 n=d#5 v=0
96334 On ch=1 n=a4 v=0
96336 On ch=1 n=f5 v=0
96424 On ch=1 n=f4 v=51
96442 On ch=1 n=f5 v=34
96616 On ch=1 n=f4 v=0
96634 On ch=1 n=f5 v=0
96696 Par ch=1 c=64 v=0
96712 On ch=1 n=f5 v=44
96714 On ch=1 n=c#6 v=66
96714 On ch=1 n=a#4 v=47
96734 On ch=1 n=c#5 v=36
96790 Par ch=1 c=64 v=127
96806 On ch=1 n=c6 v=0
96904 On ch=1 n=f5 v=0
96926 On ch=1 n=c#5 v=0
96926 On ch=1 n=a#4 v=0
97008 On ch=1 n=g4 v=45
97016 On ch=1 n=f5 v=45
97260 On ch=1 n=g4 v=0
97268 On ch=1 n=f5 v=0
97288 On ch=1 n=f5 v=34
97306 On ch=1 n=d#5 v=48
97316 On ch=1 n=c6 v=68
97320 On ch=1 n=a4 v=47
97344 On ch=1 n=c#6 v=0
97480 On ch=1 n=f5 v=0
97498 On ch=1 n=d#5 v=0
97512 On ch=1 n=a4 v=0
97616 On ch=1 n=f5 v=59
97622 On ch=1 n=d#5 v=45
97622 On ch=1 n=g4 v=34
97692 On ch=1 n=f5 v=0
97708 On ch=1 n=f5 v=73
97768 On ch=1 n=d#5 v=0
97798 On ch=1 n=f5 v=0
97804 On ch=1 n=g4 v=0
97816 On ch=1 n=a4 v=30
97830 On ch=1 n=f5 v=72
97832 On ch=1 n=d#5 v=41
98008 On ch=1 n=a4 v=0
98022 On ch=1 n=f5 v=0
98024 On ch=1 n=d#5 v=0
98030 Par ch=1 c=64 v=0
98166 On ch=1 n=c#6 v=68
98168 On ch=1 n=f5 v=48
98168 On ch=1 n=d#5 v=17
98168 On ch=1 n=f4 v=51
98172 On ch=1 n=c6 v=0
98184 Par ch=1 c=64 v=127
98360 On ch=1 n=f4 v=0
98360 On ch=1 n=d#5 v=0
98360 On ch=1 n=f5 v=0
98472 On ch=1 n=a#4 v=45
98484 On ch=1 n=a#5 v=70
98484 On ch=1 n=c#5 v=37
98496 On ch=1 n=c#6 v=0
98784 On ch=1 n=a#4 v=0
98808 On ch=1 n=d#4 v=34
98818 On ch=1 n=c5 v=22
98830 On ch=1 n=f#6 v=73
98830 On ch=1 n=a#4 v=30
98856 On ch=1 n=c#5 v=0
98856 On ch=1 n=a#5 v=0
99058 Par ch=1 c=64 v=0
99066 On ch=1 n=d#4 v=0
99076 On ch=1 n=c5 v=0
99088 On ch=1 n=a#4 v=0
99240 On ch=1 n=a4 v=37
99250 Par ch=1 c=64 v=127
99256 On ch=1 n=d#5 v=34
99256 On ch=1 n=f4 v=43
99282 On ch=1 n=c6 v=67
99372 On ch=1 n=f#6 v=0
99482 On ch=1 n=a4 v=0
99498 On ch=1 n=f4 v=0
99498 On ch=1 n=d#5 v=0
99708 On ch=1 n=f3 v=62
99944 On ch=1 n=c#6 v=67
100036 On ch=1 n=c6 v=0
100156 On ch=1 n=f6 v=63
100216 On ch=1 n=c#6 v=0
100258 On ch=1 n=f3 v=0
100312 On ch=1 n=d#6 v=60
100368 On ch=1 n=f6 v=0
100376 On ch=1 n=f5 v=57
100392 On ch=1 n=f4 v=62
100456 On ch=1 n=c#6 v=73
100568 On ch=1 n=f5 v=0
100582 On ch=1 n=d#6 v=0
100584 On ch=1 n=f4 v=0
100664 On ch=1 n=f5 v=64
100664 On ch=1 n=d#5 v=62
100672 On ch=1 n=a4 v=60
100686 On ch=1 n=c6 v=73
100744 On ch=1 n=c#6 v=0
100908 Par ch=1 c=64 v=0
100930 On ch=1 n=d#5 v=0
100930 On ch=1 n=f5 v=0
100938 On ch=1 n=a4 v=0
101008 Par ch=1 c=64 v=127
101038 On ch=1 n=f5 v=62
101038 On ch=1 n=f4 v=62
101208 On ch=1 n=c6 v=0
101216 On ch=1 n=c#6 v=57
101224 On ch=1 n=f4 v=0
101224 On ch=1 n=f5 v=0
101444 On ch=1 n=a#5 v=69
101446 On ch=1 n=a#3 v=63
101474 On ch=1 n=c#6 v=0
101864 On ch=1 n=a#4 v=67
101870 On ch=1 n=c#5 v=62
101870 On ch=1 n=f4 v=59
102002 On ch=1 n=a#4 v=0
102024 On ch=1 n=f4 v=0
102056 On ch=1 n=c#5 v=0
102184 On ch=1 n=a#4 v=51
102188 On ch=1 n=c#5 v=63
102194 On ch=1 n=a#6 v=81
102196 On ch=1 n=a#3 v=0
102204 On ch=1 n=f5 v=61
102216 On ch=1 n=a#5 v=0
102316 On ch=1 n=a#4 v=0
102320 On ch=1 n=c#5 v=0
102336 On ch=1 n=f5 v=0
102520 On ch=1 n=a#5 v=59
102520 On ch=1 n=c#5 v=62
102528 On ch=1 n=f5 v=57
102652 On ch=1 n=c#5 v=0
102652 On ch=1 n=a#5 v=0
102660 On ch=1 n=f5 v=0
102872 On ch=1 n=c#6 v=63
102872 On ch=1 n=f5 v=66
102886 On ch=1 n=a#5 v=72
103128 On ch=1 n=a#6 v=0
103424 On ch=1 n=f5 v=0
103434 On ch=1 n=g#6 v=68
103436 On ch=1 n=a#5 v=0
103444 On ch=1 n=c#6 v=0
103514 Par ch=1 c=64 v=0
103532 On ch=1 n=g#6 v=0
103592 On ch=1 n=d#6 v=72
103592 On ch=1 n=c6 v=73
103612 On ch=1 n=g#6 v=67
103638 On ch=1 n=d#3 v=76
103686 Par ch=1 c=64 v=127
104058 On ch=1 n=a#5 v=63
104062 On ch=1 n=c6 v=0
104062 On ch=1 n=d#6 v=0
104064 On ch=1 n=d#5 v=59
104070 On ch=1 n=c#6 v=62
104072 On ch=1 n=g6 v=67
104082 On ch=1 n=g#6 v=0
104084 On ch=1 n=d#4 v=59
104322 On ch=1 n=d#5 v=0
104342 On ch=1 n=d#4 v=0
104390 On ch=1 n=g6 v=0
104398 On ch=1 n=a#5 v=0
104408 On ch=1 n=c#6 v=64
104408 On ch=1 n=c6 v=67
104410 On ch=1 n=c#6 v=0
104424 On ch=1 n=g6 v=63
104424 On ch=1 n=g5 v=62
104424 On ch=1 n=c#5 v=32
104426 On ch=1 n=c7 v=79
104720 On ch=1 n=g6 v=0
104734 On ch=1 n=c#5 v=0
104744 On ch=1 n=c6 v=0
104744 On ch=1 n=c#6 v=0
104760 On ch=1 n=g5 v=0
104760 On ch=1 n=a#6 v=67
104760 On ch=1 n=g6 v=51
104760 On ch=1 n=c#6 v=57
104760 On ch=1 n=a#5 v=57
104760 On ch=1 n=c#5 v=62
104762 On ch=1 n=c7 v=0
104852 On ch=1 n=d#3 v=0
105104 Par ch=1 c=64 v=0
105128 On ch=1 n=f4 v=68
105136 On ch=1 n=f3 v=63
105136 On ch=1 n=g#6 v=70
105140 On ch=1 n=c#5 v=0
105140 On ch=1 n=a#5 v=0
105140 On ch=1 n=c#6 v=0
105140 On ch=1 n=g6 v=0
105140 On ch=1 n=a#6 v=0
105208 Par ch=1 c=64 v=127
105488 On ch=1 n=g#6 v=0
105496 On ch=1 n=c#5 v=62
105496 On ch=1 n=g#4 v=57
105498 On ch=1 n=g#5 v=62
105506 On ch=1 n=c#6 v=62
105508 On ch=1 n=f5 v=46
105680 On ch=1 n=f6 v=59
105766 On ch=1 n=c#5 v=0
105768 On ch=1 n=g#4 v=0
105770 On ch=1 n=g#5 v=0
105778 On ch=1 n=c#6 v=0
105780 On ch=1 n=f5 v=0
105798 On ch=1 n=f6 v=0
105866 On ch=1 n=f4 v=0
105874 On ch=1 n=f3 v=0
105896 On ch=1 n=f6 v=68
105896 On ch=1 n=c6 v=62
105898 On ch=1 n=c3 v=73
105912 On ch=1 n=g#5 v=62
105912 On ch=1 n=c4 v=73
106230 On ch=1 n=c6 v=0
106230 On ch=1 n=f6 v=0
106240 On ch=1 n=d#6 v=66
106246 On ch=1 n=g#5 v=0
106248 On ch=1 n=c6 v=66
106248 On ch=1 n=d#5 v=52
106248 On ch=1 n=c5 v=62
106248 On ch=1 n=g4 v=41
106260 On ch=1 n=g5 v=62
106512 On ch=1 n=c5 v=0
106512 On ch=1 n=c6 v=0
106516 On ch=1 n=d#5 v=0
106532 On ch=1 n=d#6 v=0
106536 On ch=1 n=g4 v=0
106536 On ch=1 n=c6 v=62
106536 On ch=1 n=c5 v=25
106542 On ch=1 n=g#6 v=66
106548 On ch=1 n=g5 v=0
106548 On ch=1 n=d#6 v=67
106548 On ch=1 n=d#5 v=53
106552 On ch=1 n=g#5 v=68
106790 On ch=1 n=c5 v=0
106812 On ch=1 n=d#5 v=0
106824 On ch=1 n=c6 v=0
106826 On ch=1 n=g5 v=62
106834 On ch=1 n=d#5 v=62
106840 On ch=1 n=d#6 v=0
106840 On ch=1 n=c5 v=51
106850 On ch=1 n=g6 v=69
106860 On ch=1 n=g#6 v=0
106864 On ch=1 n=d#6 v=63
106864 On ch=1 n=c6 v=63
106870 On ch=1 n=g#5 v=0
107116 On ch=1 n=c3 v=0
107130 On ch=1 n=c4 v=0
107188 On ch=1 n=g5 v=0
107196 On ch=1 n=d#5 v=0
107196 Par ch=1 c=64 v=0
107202 On ch=1 n=c5 v=0
107212 On ch=1 n=g6 v=0
107222 On ch=1 n=f6 v=67
107226 On ch=1 n=c6 v=0
107226 On ch=1 n=d#6 v=0
107226 On ch=1 n=c#3 v=71
107236 On ch=1 n=c#4 v=71
107316 Par ch=1 c=64 v=127
107582 On ch=1 n=c#5 v=62
107584 On ch=1 n=g#4 v=39
107588 On ch=1 n=f6 v=0
107594 On ch=1 n=f5 v=51
107604 On ch=1 n=g#5 v=58
107766 On ch=1 n=c#6 v=62
107820 On ch=1 n=c#5 v=0
107822 On ch=1 n=g#4 v=0
107826 On ch=1 n=g#5 v=0
107832 On ch=1 n=f5 v=0
107856 On ch=1 n=c#6 v=0
107876 On ch=1 n=c#3 v=0
107886 On ch=1 n=c#4 v=0
107898 Par ch=1 c=64 v=0
107918 On ch=1 n=g#3 v=52
107928 On ch=1 n=c#6 v=73
107928 On ch=1 n=g#2 v=74
107938 On ch=1 n=g#5 v=72
107938 On ch=1 n=f5 v=57
107972 Par ch=1 c=64 v=127
108264 On ch=1 n=d#5 v=51
108264 On ch=1 n=c5 v=31
108264 On ch=1 n=d#4 v=62
108268 On ch=1 n=g#5 v=0
108270 On ch=1 n=g#4 v=62
108280 On ch=1 n=g#5 v=61
108286 On ch=1 n=c6 v=66
108330 On ch=1 n=c#6 v=0
108340 On ch=1 n=f5 v=0
108568 On ch=1 n=g#3 v=0
108578 On ch=1 n=g#2 v=0
108634 On ch=1 n=f3 v=68
108776 On ch=1 n=d#4 v=0
108776 On ch=1 n=c5 v=0
108776 On ch=1 n=d#5 v=0
108782 On ch=1 n=g#4 v=0
108798 On ch=1 n=c6 v=0
108824 On ch=1 n=g#5 v=0
108968 On ch=1 n=f4 v=60
108976 On ch=1 n=d5 v=29
109096 On ch=1 n=g#5 v=66
109098 On ch=1 n=c6 v=62
109160 On ch=1 n=f4 v=0
109168 On ch=1 n=d5 v=0
109176 On ch=1 n=c6 v=0
109182 Par ch=1 c=64 v=0
109224 On ch=1 n=f3 v=0
109234 On ch=1 n=g#5 v=0
109238 On ch=1 n=c6 v=67
109250 On ch=1 n=g3 v=77
109286 Par ch=1 c=64 v=127
109528 On ch=1 n=g5 v=58
109528 On ch=1 n=f5 v=48
109536 On ch=1 n=b5 v=67
109544 On ch=1 n=d5 v=38
109544 On ch=1 n=g4 v=36
109616 On ch=1 n=c6 v=0
109816 On ch=1 n=f5 v=0
109816 On ch=1 n=g5 v=0
109832 On ch=1 n=g4 v=0
109832 On ch=1 n=d5 v=0
109844 On ch=1 n=c6 v=62
109848 On ch=1 n=f5 v=56
109848 On ch=1 n=a4 v=32
109848 On ch=1 n=g4 v=45
109862 On ch=1 n=g5 v=46
109932 On ch=1 n=b5 v=0
110116 On ch=1 n=g4 v=0
110116 On ch=1 n=a4 v=0
110130 On ch=1 n=g5 v=0
110136 On ch=1 n=f5 v=0
110140 On ch=1 n=g4 v=21
110144 On ch=1 n=d6 v=62
110152 On ch=1 n=g5 v=57
110152 On ch=1 n=f5 v=46
110172 On ch=1 n=b4 v=57
110188 On ch=1 n=c6 v=0
110380 On ch=1 n=g3 v=0
110400 Par ch=1 c=64 v=0
110444 On ch=1 n=c4 v=61
110506 Par ch=1 c=64 v=127
110584 On ch=1 n=g4 v=0
110588 On ch=1 n=d6 v=0
110596 On ch=1 n=f5 v=0
110596 On ch=1 n=g5 v=0
110616 On ch=1 n=b4 v=0
110730 On ch=1 n=g#4 v=56
110750 On ch=1 n=f5 v=39
110872 On ch=1 n=b5 v=62
110888 On ch=1 n=g#5 v=53
110898 On ch=1 n=f6 v=67
110966 On ch=1 n=b5 v=0
110982 On ch=1 n=g#5 v=0
110992 On ch=1 n=f6 v=0
110998 On ch=1 n=g#4 v=0
111018 On ch=1 n=f5 v=0
111032 On ch=1 n=f6 v=67
111034 On ch=1 n=c4 v=0
111040 On ch=1 n=b5 v=60
111040 On ch=1 n=g#5 v=63
111048 On ch=1 n=c3 v=74
111308 On ch=1 n=g#5 v=0
111308 On ch=1 n=b5 v=0
111384 On ch=1 n=d#6 v=67
111384 On ch=1 n=g5 v=32
111384 On ch=1 n=d#5 v=62
111394 On ch=1 n=c6 v=56
111394 On ch=1 n=g4 v=60
111412 On ch=1 n=f6 v=0
111652 On ch=1 n=d#5 v=0
111652 On ch=1 n=g5 v=0
111652 On ch=1 n=d#6 v=0
111662 On ch=1 n=g4 v=0
111662 On ch=1 n=c6 v=0
111786 On ch=1 n=c3 v=0
111832 On ch=1 n=c6 v=62
111832 On ch=1 n=a5 v=66
111832 On ch=1 n=f#5 v=55
111840 On ch=1 n=d#6 v=67
111852 On ch=1 n=c#3 v=76
112226 On ch=1 n=c#6 v=67
112232 On ch=1 n=a#5 v=62
112232 On ch=1 n=c#5 v=62
112232 On ch=1 n=a#4 v=59
112234 On ch=1 n=f5 v=63
112238 On ch=1 n=f#5 v=0
112238 On ch=1 n=a5 v=0
112238 On ch=1 n=c6 v=0
112246 On ch=1 n=d#6 v=0
112520 On ch=1 n=a#4 v=0
112520 On ch=1 n=c#5 v=0
112536 On ch=1 n=g6 v=63
112552 On ch=1 n=a#4 v=56
112556 On ch=1 n=g5 v=51
112558 On ch=1 n=c#6 v=0
112564 On ch=1 n=a#5 v=0
112566 On ch=1 n=f5 v=0
112568 On ch=1 n=c#5 v=34
112840 On ch=1 n=a#4 v=0
112850 On ch=1 n=g6 v=0
112852 On ch=1 n=g#5 v=63
112856 On ch=1 n=c#5 v=0
112862 On ch=1 n=f6 v=67
112870 On ch=1 n=g5 v=0
112872 On ch=1 n=c#5 v=62
112888 On ch=1 n=a#4 v=61
113070 On ch=1 n=c#3 v=0
113144 Par ch=1 c=64 v=0
113176 On ch=1 n=d#3 v=64
113186 On ch=1 n=g#5 v=0
113196 On ch=1 n=f6 v=0
113196 On ch=1 n=d#6 v=66
113206 On ch=1 n=c#5 v=0
113222 On ch=1 n=a#4 v=0
113258 Par ch=1 c=64 v=127
113520 On ch=1 n=c5 v=50
113528 On ch=1 n=g5 v=56
113528 On ch=1 n=d#5 v=59
113532 On ch=1 n=c6 v=67
113534 On ch=1 n=g4 v=62
113538 On ch=1 n=d#6 v=0
113766 On ch=1 n=d#3 v=0
113870 Par ch=1 c=64 v=0
113890 On ch=1 n=c5 v=0
113898 On ch=1 n=d#5 v=0
113898 On ch=1 n=g5 v=0
113898 On ch=1 n=f3 v=73
113902 On ch=1 n=c6 v=0
113904 On ch=1 n=g4 v=0
113916 On ch=1 n=g#5 v=59
113968 Par ch=1 c=64 v=127
114248 On ch=1 n=g#4 v=32
114248 On ch=1 n=f4 v=41
114254 On ch=1 n=c5 v=39
114488 On ch=1 n=f3 v=0
114606 On ch=1 n=c#5 v=52
114612 On ch=1 n=e3 v=68
114626 On ch=1 n=f4 v=0
114626 On ch=1 n=g#4 v=0
114650 On ch=1 n=c5 v=0
114952 On ch=1 n=e4 v=47
114968 On ch=1 n=b4 v=47
114968 On ch=1 n=g#4 v=48
114982 On ch=1 n=d5 v=53
114986 On ch=1 n=c#5 v=0
115044 On ch=1 n=g#5 v=0
115104 On ch=1 n=g#5 v=72
115202 On ch=1 n=e3 v=0
115290 On ch=1 n=g#5 v=0
115320 On ch=1 n=d5 v=0
115320 On ch=1 n=g#4 v=0
115320 On ch=1 n=b4 v=0
115320 On ch=1 n=e4 v=0
115344 On ch=1 n=a#5 v=66
115346 On ch=1 n=a#4 v=73
115350 On ch=1 n=g#5 v=62
115350 On ch=1 n=d#5 v=62
115360 On ch=1 n=d#3 v=64
115514 On ch=1 n=c6 v=68
115526 On ch=1 n=c5 v=67
115554 On ch=1 n=a#5 v=0
115556 On ch=1 n=a#4 v=0
115560 On ch=1 n=d#5 v=0
115560 On ch=1 n=g#5 v=0
115664 On ch=1 n=d#4 v=28
115670 On ch=1 n=a#4 v=62
115810 On ch=1 n=c6 v=0
115822 On ch=1 n=c5 v=0
115856 On ch=1 n=a#4 v=0
115856 On ch=1 n=d#4 v=0
115872 On ch=1 n=g5 v=62
115872 On ch=1 n=c#5 v=56
115878 On ch=1 n=c#6 v=68
115950 On ch=1 n=d#3 v=0
115964 On ch=1 n=g5 v=0
115976 On ch=1 n=c#5 v=0
115982 On ch=1 n=c#6 v=0
116028 Par ch=1 c=64 v=0
116050 On ch=1 n=a#2 v=62
116058 On ch=1 n=a#3 v=78
116064 On ch=1 n=c#6 v=73
116066 On ch=1 n=c#5 v=72
116136 Par ch=1 c=64 v=127
116432 On ch=1 n=f5 v=34
116440 On ch=1 n=g5 v=31
116536 On ch=1 n=a2 v=76
116568 On ch=1 n=a3 v=72
116640 On ch=1 n=a#3 v=0
116640 On ch=1 n=a#2 v=0
116672 On ch=1 n=f5 v=0
116680 On ch=1 n=g5 v=0
116760 On ch=1 n=a#2 v=77
116776 On ch=1 n=f5 v=62
116776 On ch=1 n=a#3 v=86
116792 On ch=1 n=g5 v=65
116806 On ch=1 n=a2 v=0
116838 On ch=1 n=a3 v=0
116952 On ch=1 n=c#4 v=79
116952 On ch=1 n=c#3 v=47
117016 On ch=1 n=f5 v=0
117030 On ch=1 n=a#2 v=0
117032 On ch=1 n=g5 v=0
117046 On ch=1 n=a#3 v=0
117144 On ch=1 n=g#5 v=70
117144 On ch=1 n=f5 v=67
117208 On ch=1 n=c5 v=63
117208 On ch=1 n=c4 v=72
117222 On ch=1 n=c#3 v=0
117222 On ch=1 n=c#4 v=0
117384 On ch=1 n=f5 v=0
117384 On ch=1 n=g#5 v=0
117446 On ch=1 n=c4 v=0
117446 On ch=1 n=c5 v=0
117456 On ch=1 n=a#4 v=85
117464 On ch=1 n=g#5 v=70
117464 On ch=1 n=f5 v=70
117472 On ch=1 n=a#3 v=80
117704 On ch=1 n=f5 v=0
117704 On ch=1 n=g#5 v=0
117720 On ch=1 n=c#5 v=0
117720 On ch=1 n=c#6 v=0
117832 On ch=1 n=g5 v=70
117832 On ch=1 n=f5 v=70
117968 On ch=1 n=a#4 v=0
117984 On ch=1 n=a#3 v=0
118056 On ch=1 n=a#4 v=73
118072 On ch=1 n=f5 v=0
118072 On ch=1 n=g5 v=0
118072 On ch=1 n=a#5 v=73
118208 On ch=1 n=f6 v=84
118208 On ch=1 n=f5 v=74
118216 On ch=1 n=c#4 v=69
118216 On ch=1 n=c#3 v=76
118232 On ch=1 n=a#4 v=0
118248 On ch=1 n=a#5 v=0
118504 On ch=1 n=a#5 v=70
118504 On ch=1 n=g5 v=68
118672 On ch=1 n=c4 v=49
118704 On ch=1 n=c3 v=49
118744 On ch=1 n=g5 v=0
118744 On ch=1 n=a#5 v=0
118758 On ch=1 n=c#3 v=0
118758 On ch=1 n=c#4 v=0
118896 On ch=1 n=a#5 v=66
118896 On ch=1 n=c#4 v=59
118896 On ch=1 n=c#3 v=59
118912 On ch=1 n=g5 v=85
118942 On ch=1 n=c4 v=0
118974 On ch=1 n=c3 v=0
119072 On ch=1 n=g4 v=57
119072 On ch=1 n=g3 v=57
119136 On ch=1 n=a#5 v=0
119152 On ch=1 n=g5 v=0
119200 On ch=1 n=c6 v=72
119200 On ch=1 n=g5 v=72
119208 On ch=1 n=c#3 v=0
119214 On ch=1 n=c#4 v=0
119288 On ch=1 n=d#4 v=62
119296 On ch=1 n=d#5 v=62
119334 On ch=1 n=g3 v=0
119334 On ch=1 n=g4 v=0
119440 On ch=1 n=g5 v=0
119440 On ch=1 n=c6 v=0
119536 On ch=1 n=c6 v=68
119536 On ch=1 n=g5 v=72
119536 On ch=1 n=c#5 v=72
119552 On ch=1 n=c#4 v=68
119554 Par ch=1 c=64 v=0
119598 On ch=1 n=d#4 v=0
119606 On ch=1 n=d#5 v=0
119668 Par ch=1 c=64 v=127
119760 On ch=1 n=f5 v=0
119760 On ch=1 n=f6 v=0
119776 On ch=1 n=g5 v=0
119776 On ch=1 n=c6 v=0
119856 On ch=1 n=a#5 v=80
119856 On ch=1 n=g5 v=66
120000 On ch=1 n=c#4 v=0
120000 On ch=1 n=c#5 v=0
120074 On ch=1 n=e5 v=76
120084 On ch=1 n=e6 v=73
120096 On ch=1 n=g5 v=0
120096 On ch=1 n=a#5 v=0
120168 On ch=1 n=e5 v=0
120176 On ch=1 n=e6 v=0
120240 On ch=1 n=c#2 v=80
120248 On ch=1 n=e6 v=82
120256 On ch=1 n=e5 v=73
120256 On ch=1 n=c#3 v=72
120560 On ch=1 n=a#5 v=62
120560 On ch=1 n=g5 v=44
120816 On ch=1 n=c3 v=47
120816 On ch=1 n=c2 v=52
120870 On ch=1 n=c#2 v=0
120886 On ch=1 n=c#3 v=0
120890 On ch=1 n=g5 v=0
120890 On ch=1 n=a#5 v=0
120898 On ch=1 n=c3 v=0
120910 On ch=1 n=c2 v=0
120928 On ch=1 n=a#5 v=75
120944 On ch=1 n=g5 v=70
120944 On ch=1 n=c3 v=83
120944 On ch=1 n=c2 v=79
121262 On ch=1 n=e6 v=0
121270 On ch=1 n=e5 v=0
121408 On ch=1 n=a#5 v=0
121424 On ch=1 n=g5 v=0
121586 On ch=1 n=g#6 v=73
121600 On ch=1 n=a#5 v=66
121600 On ch=1 n=g#5 v=68
121606 On ch=1 n=c#5 v=62
121612 On ch=1 n=a#4 v=59
121654 On ch=1 n=a#5 v=0
121662 On ch=1 n=g#6 v=0
121664 On ch=1 n=g#5 v=0
121670 On ch=1 n=c#5 v=0
121676 On ch=1 n=a#4 v=0
121702 On ch=1 n=c#5 v=62
121706 On ch=1 n=g#6 v=68
121712 On ch=1 n=a#4 v=62
121720 On ch=1 n=a#5 v=68
121720 On ch=1 n=g#5 v=66
121758 On ch=1 n=c2 v=0
121798 On ch=1 n=c3 v=0
122012 On ch=1 n=c#5 v=0
122022 On ch=1 n=a#4 v=0
122048 On ch=1 n=g6 v=68
122048 On ch=1 n=a#4 v=52
122056 On ch=1 n=g#6 v=0
122064 On ch=1 n=g5 v=67
122070 On ch=1 n=g#5 v=0
122070 On ch=1 n=a#5 v=0
122070 On ch=1 n=c#5 v=62
122080 On ch=1 n=a#5 v=67
122350 Par ch=1 c=64 v=0
122408 On ch=1 n=a#4 v=0
122408 On ch=1 n=g6 v=0
122420 On ch=1 n=f6 v=79
122424 On ch=1 n=g5 v=0
122428 On ch=1 n=f5 v=77
122428 On ch=1 n=c#2 v=72
122430 On ch=1 n=c#5 v=0
122436 On ch=1 n=c#3 v=82
122440 On ch=1 n=a#5 v=0
122476 Par ch=1 c=64 v=127
122750 On ch=1 n=c#3 v=0
122752 On ch=1 n=a#5 v=69
122752 On ch=1 n=g5 v=37
122766 On ch=1 n=c#2 v=0
122964 On ch=1 n=c2 v=69
122974 On ch=1 n=c3 v=82
123036 On ch=1 n=c3 v=0
123046 On ch=1 n=c2 v=0
123120 On ch=1 n=e6 v=79
123132 On ch=1 n=g5 v=0
123132 On ch=1 n=a#5 v=0
123134 On ch=1 n=e5 v=82
123144 On ch=1 n=c3 v=80
123144 On ch=1 n=c2 v=73
123190 On ch=1 n=f6 v=0
123198 On ch=1 n=f5 v=0
123350 On ch=1 n=c2 v=0
123394 On ch=1 n=c3 v=0
123422 On ch=1 n=e6 v=0
123436 On ch=1 n=e5 v=0
123712 On ch=1 n=a#4 v=59
123728 On ch=1 n=c#5 v=60
123730 On ch=1 n=g#6 v=73
123736 On ch=1 n=a#5 v=72
123792 On ch=1 n=a#4 v=0
123794 On ch=1 n=a#5 v=0
123796 On ch=1 n=c#5 v=0
123808 On ch=1 n=g#6 v=0
123816 Par ch=1 c=64 v=0
123840 On ch=1 n=a#5 v=72
123848 On ch=1 n=g#6 v=70
123856 On ch=1 n=c#5 v=68
123856 On ch=1 n=a#4 v=61
123914 Par ch=1 c=64 v=127
124130 On ch=1 n=a#5 v=0
124152 On ch=1 n=c#5 v=0
124178 On ch=1 n=a#4 v=0
124178 On ch=1 n=g#6 v=0
124182 On ch=1 n=g6 v=66
124192 On ch=1 n=g5 v=64
124198 On ch=1 n=a#5 v=62
124208 On ch=1 n=a#4 v=52
124214 On ch=1 n=c#5 v=62
124512 On ch=1 n=c#3 v=62
124562 On ch=1 n=g6 v=0
124572 On ch=1 n=g5 v=0
124576 On ch=1 n=c#4 v=29
124578 On ch=1 n=a#5 v=0
124588 On ch=1 n=a#4 v=0
124588 On ch=1 n=f6 v=67
124594 On ch=1 n=c#5 v=0
124594 On ch=1 n=f5 v=59
124930 On ch=1 n=f6 v=0
124930 On ch=1 n=a#4 v=41
124940 On ch=1 n=g5 v=59
124942 On ch=1 n=a#5 v=57
124952 On ch=1 n=g4 v=36
125012 On ch=1 n=f5 v=0
125054 On ch=1 n=c#4 v=0
125232 On ch=1 n=e6 v=68
125240 On ch=1 n=e5 v=57
125272 On ch=1 n=a#5 v=0
125276 On ch=1 n=g5 v=0
125312 On ch=1 n=g4 v=0
125334 On ch=1 n=a#4 v=0
125536 On ch=1 n=g4 v=56
125558 On ch=1 n=a#5 v=57
125558 On ch=1 n=a#4 v=51
125572 On ch=1 n=g5 v=59
125596 On ch=1 n=e6 v=0
125648 On ch=1 n=e5 v=0
125658 On ch=1 n=c#3 v=0
125896 On ch=1 n=g4 v=0
125908 On ch=1 n=d#6 v=62
125914 On ch=1 n=d#5 v=63
125918 On ch=1 n=a#4 v=0
125936 On ch=1 n=c#4 v=41
125940 On ch=1 n=a#5 v=0
125954 On ch=1 n=g5 v=0
126256 On ch=1 n=a#4 v=24
126256 On ch=1 n=g4 v=56
126258 On ch=1 n=a#5 v=44
126266 On ch=1 n=g5 v=58
126298 On ch=1 n=d#6 v=0
126392 On ch=1 n=d#5 v=0
126526 On ch=1 n=c#4 v=0
126576 On ch=1 n=d6 v=66
126586 On ch=1 n=d4 v=56
126588 On ch=1 n=d5 v=62
126596 On ch=1 n=g5 v=0
126604 On ch=1 n=a#5 v=0
126616 On ch=1 n=g4 v=0
126616 On ch=1 n=a#4 v=0
126618 Par ch=1 c=64 v=0
126752 Par ch=1 c=64 v=127
126880 On ch=1 n=a#4 v=48
126902 On ch=1 n=g4 v=56
126912 On ch=1 n=g5 v=46
126922 On ch=1 n=a#5 v=54
126948 On ch=1 n=d6 v=0
126972 On ch=1 n=d5 v=0
127176 On ch=1 n=d4 v=0
127264 On ch=1 n=a#4 v=0
127272 On ch=1 n=c#5 v=50
127272 On ch=1 n=d#4 v=53
127280 On ch=1 n=c#6 v=64
127298 On ch=1 n=g5 v=0
127484 On ch=1 n=g4 v=0
127608 On ch=1 n=g5 v=66
127694 On ch=1 n=a#5 v=0
127824 On ch=1 n=f5 v=75
127876 On ch=1 n=c#6 v=0
127908 On ch=1 n=f5 v=0
127968 On ch=1 n=c#6 v=73
128016 On ch=1 n=f5 v=66
128376 On ch=1 n=d#5 v=64
128406 On ch=1 n=f5 v=0
128588 On ch=1 n=g5 v=0
128608 On ch=1 n=c#6 v=0
128664 On ch=1 n=c6 v=73
128748 On ch=1 n=c6 v=0
128808 On ch=1 n=c6 v=73
128886 On ch=1 n=d#5 v=0
128972 Par ch=1 c=64 v=0
129078 Par ch=1 c=64 v=127
129192 On ch=1 n=c#5 v=0
129208 On ch=1 n=d#5 v=23
129208 On ch=1 n=f4 v=56
129216 On ch=1 n=c#5 v=50
129240 On ch=1 n=d#4 v=0
129402 On ch=1 n=c#5 v=0
129406 On ch=1 n=f4 v=0
129406 On ch=1 n=d#5 v=0
129550 On ch=1 n=c#5 v=50
129574 On ch=1 n=d#5 v=50
129576 On ch=1 n=g4 v=38
129582 On ch=1 n=a#5 v=76
129600 On ch=1 n=c6 v=0
129618 Par ch=1 c=64 v=0
129736 On ch=1 n=c#5 v=0
129772 On ch=1 n=d#5 v=0
129774 On ch=1 n=g4 v=0
129784 Par ch=1 c=64 v=127
129936 On ch=1 n=d#5 v=36
129936 On ch=1 n=d#4 v=45
129958 On ch=1 n=c#5 v=50
130134 On ch=1 n=d#4 v=0
130134 On ch=1 n=d#5 v=0
130144 On ch=1 n=c#5 v=0
130246 On ch=1 n=c#5 v=50
130250 On ch=1 n=a#5 v=0
130250 On ch=1 n=c6 v=76
130258 On ch=1 n=d#5 v=43
130270 On ch=1 n=g#4 v=50
130432 On ch=1 n=c#5 v=0
130456 On ch=1 n=d#5 v=0
130468 On ch=1 n=g#4 v=0
130592 On ch=1 n=c#5 v=50
130592 On ch=1 n=f4 v=56
130594 On ch=1 n=d#5 v=23
130778 On ch=1 n=c#5 v=0
130790 On ch=1 n=f4 v=0
130792 On ch=1 n=d#5 v=0
130936 Par ch=1 c=64 v=0
130944 On ch=1 n=d#5 v=44
130950 On ch=1 n=a#5 v=76
130962 On ch=1 n=g4 v=37
130966 On ch=1 n=c#5 v=50
130990 On ch=1 n=c6 v=0
131058 Par ch=1 c=64 v=127
131126 On ch=1 n=g4 v=0
131142 On ch=1 n=d#5 v=0
131152 On ch=1 n=c#5 v=0
131398 On ch=1 n=c#5 v=50
131404 On ch=1 n=d#5 v=62
131416 On ch=1 n=f4 v=44
131504 On ch=1 n=d#5 v=0
131526 On ch=1 n=d#5 v=76
131584 On ch=1 n=c#5 v=0
131610 On ch=1 n=d#5 v=0
131614 On ch=1 n=f4 v=0
131656 On ch=1 n=d#5 v=68
131674 On ch=1 n=g4 v=49
131686 On ch=1 n=c#5 v=50
131854 On ch=1 n=d#5 v=0
131872 On ch=1 n=c#5 v=0
131872 On ch=1 n=g4 v=0
131974 On ch=1 n=d#5 v=50
131976 On ch=1 n=c6 v=76
131986 On ch=1 n=d#4 v=48
132080 On ch=1 n=a#5 v=0
132144 Par ch=1 c=64 v=0
132172 On ch=1 n=d#5 v=0
132184 On ch=1 n=d#4 v=0
132338 On ch=1 n=g#5 v=68
132358 On ch=1 n=c5 v=50
132362 On ch=1 n=g#4 v=21
132382 On ch=1 n=c6 v=0
132384 Par ch=1 c=64 v=127
132590 On ch=1 n=c5 v=0
132594 On ch=1 n=g#4 v=0
132720 On ch=1 n=a#4 v=42
132720 On ch=1 n=g#4 v=42
132720 On ch=1 n=c#4 v=53
132736 On ch=1 n=f6 v=70
132910 On ch=1 n=g#5 v=0
132918 On ch=1 n=g#4 v=0
132918 On ch=1 n=a#4 v=0
132942 On ch=1 n=c#4 v=0
133160 On ch=1 n=f6 v=0
133230 Par ch=1 c=64 v=0
133248 On ch=1 n=a#5 v=76
133348 Par ch=1 c=64 v=127
133632 On ch=1 n=d#3 v=73
133772 On ch=1 n=c6 v=76
133810 On ch=1 n=a#5 v=0
133928 On ch=1 n=d#6 v=67
134002 On ch=1 n=c6 v=0
134076 On ch=1 n=c#6 v=75
134120 On ch=1 n=d#6 v=0
134184 On ch=1 n=d#5 v=30
134184 On ch=1 n=d#4 v=51
134326 On ch=1 n=c6 v=76
134382 On ch=1 n=d#4 v=0
134382 On ch=1 n=d#5 v=0
134404 On ch=1 n=c#6 v=0
134496 On ch=1 n=a#5 v=76
134496 On ch=1 n=g4 v=25
134506 On ch=1 n=d#5 v=39
134520 On ch=1 n=c#5 v=47
134534 On ch=1 n=c6 v=0
134694 On ch=1 n=g4 v=0
134698 On ch=1 n=d#3 v=0
134704 On ch=1 n=d#5 v=0
134718 On ch=1 n=c#5 v=0
134832 On ch=1 n=d#5 v=40
134856 On ch=1 n=d#4 v=53
134980 On ch=1 n=c6 v=76
135016 On ch=1 n=a#5 v=0
135030 On ch=1 n=d#5 v=0
135054 On ch=1 n=d#4 v=0
135126 Par ch=1 c=64 v=0
135180 On ch=1 n=g#5 v=70
135212 On ch=1 n=d#3 v=90
135240 On ch=1 n=c6 v=0
135260 Par ch=1 c=64 v=127
135568 On ch=1 n=d#4 v=30
135576 On ch=1 n=d#5 v=49
135584 On ch=1 n=c5 v=50
135770 On ch=1 n=c5 v=0
135774 On ch=1 n=d#5 v=0
135778 On ch=1 n=d#4 v=0
135844 On ch=1 n=f4 v=49
135850 On ch=1 n=d#5 v=45
135862 On ch=1 n=c5 v=50
136032 On ch=1 n=d#5 v=0
136048 On ch=1 n=c5 v=0
136048 On ch=1 n=f4 v=0
136126 On ch=1 n=c5 v=50
136130 On ch=1 n=d#5 v=46
136136 On ch=1 n=g4 v=48
136246 On ch=1 n=d#3 v=0
136312 On ch=1 n=c5 v=0
136328 On ch=1 n=d#5 v=0
136334 On ch=1 n=g4 v=0
136420 On ch=1 n=g#4 v=32
136432 On ch=1 n=d#5 v=73
136442 On ch=1 n=c5 v=45
136488 On ch=1 n=g#5 v=0
136618 On ch=1 n=g#4 v=0
136640 On ch=1 n=c5 v=0
136760 On ch=1 n=a#4 v=44
136774 On ch=1 n=c5 v=50
136798 On ch=1 n=f#5 v=45
136958 On ch=1 n=a#4 v=0
136972 On ch=1 n=c5 v=0
136996 On ch=1 n=f#5 v=0
137160 On ch=1 n=c6 v=76
137160 On ch=1 n=d#3 v=71
137222 On ch=1 n=d#5 v=0
137270 Par ch=1 c=64 v=0
137350 Par ch=1 c=64 v=127
137528 On ch=1 n=f5 v=39
137536 On ch=1 n=d#5 v=44
137536 On ch=1 n=g4 v=49
137726 On ch=1 n=f5 v=0
137734 On ch=1 n=g4 v=0
137734 On ch=1 n=d#5 v=0
137864 On ch=1 n=d#5 v=47
137864 On ch=1 n=a4 v=45
137874 On ch=1 n=f5 v=45
138062 On ch=1 n=a4 v=0
138062 On ch=1 n=d#5 v=0
138072 On ch=1 n=f5 v=0
138144 On ch=1 n=f5 v=34
138144 On ch=1 n=f4 v=45
138152 On ch=1 n=d#5 v=25
138342 On ch=1 n=f4 v=0
138342 On ch=1 n=f5 v=0
138350 On ch=1 n=d#5 v=0
138448 Par ch=1 c=64 v=0
138454 On ch=1 n=d#5 v=50
138454 On ch=1 n=a#4 v=45
138456 On ch=1 n=c#6 v=75
138466 On ch=1 n=f5 v=47
138480 On ch=1 n=d#3 v=0
138480 On ch=1 n=c6 v=0
138604 Par ch=1 c=64 v=127
138650 On ch=1 n=f5 v=0
138652 On ch=1 n=a#4 v=0
138652 On ch=1 n=d#5 v=0
138766 On ch=1 n=g4 v=45
138768 On ch=1 n=d#5 v=35
138788 On ch=1 n=f5 v=43
138880 On ch=1 n=c#6 v=0
138932 On ch=1 n=d#5 v=0
138964 On ch=1 n=g4 v=0
138986 On ch=1 n=f5 v=0
139054 On ch=1 n=f5 v=50
139056 On ch=1 n=c6 v=76
139056 On ch=1 n=d#5 v=45
139072 On ch=1 n=a4 v=44
139214 On ch=1 n=d#5 v=0
139240 On ch=1 n=f5 v=0
139270 On ch=1 n=a4 v=0
139368 On ch=1 n=f5 v=62
139368 On ch=1 n=d#5 v=45
139386 On ch=1 n=g4 v=37
139446 On ch=1 n=f5 v=0
139466 Par ch=1 c=64 v=0
139482 On ch=1 n=f5 v=69
139500 On ch=1 n=d#5 v=0
139584 On ch=1 n=g4 v=0
139592 On ch=1 n=f5 v=0
139608 On ch=1 n=f5 v=62
139608 On ch=1 n=d#5 v=40
139614 Par ch=1 c=64 v=127
139622 On ch=1 n=a4 v=46
139666 On ch=1 n=c6 v=0
139806 On ch=1 n=d#5 v=0
139806 On ch=1 n=f5 v=0
139820 On ch=1 n=a4 v=0
139918 On ch=1 n=f5 v=50
139932 On ch=1 n=f4 v=49
139944 On ch=1 n=c#6 v=75
140116 On ch=1 n=f5 v=0
140130 On ch=1 n=f4 v=0
140264 On ch=1 n=f5 v=36
140264 On ch=1 n=a#4 v=31
140268 On ch=1 n=a#5 v=73
140272 On ch=1 n=c#5 v=50
140292 On ch=1 n=c#6 v=0
140458 On ch=1 n=c#5 v=0
140462 On ch=1 n=a#4 v=0
140462 On ch=1 n=f5 v=0
140632 On ch=1 n=f#6 v=69
140632 On ch=1 n=c5 v=38
140632 On ch=1 n=d#4 v=37
140640 On ch=1 n=a#4 v=42
140662 On ch=1 n=a#5 v=0
140830 On ch=1 n=d#4 v=0
140830 On ch=1 n=c5 v=0
140838 On ch=1 n=a#4 v=0
141000 On ch=1 n=d#3 v=73
141000 On ch=1 n=c6 v=78
141056 On ch=1 n=f#6 v=0
141490 On ch=1 n=f5 v=41
141496 On ch=1 n=f4 v=41
141506 Par ch=1 c=64 v=0
141674 On ch=1 n=c#6 v=70
141690 Par ch=1 c=64 v=127
141706 On ch=1 n=f4 v=0
141720 On ch=1 n=c6 v=0
141742 On ch=1 n=f5 v=0
141818 On ch=1 n=f6 v=73
141864 On ch=1 n=c#6 v=0
141986 On ch=1 n=d#6 v=76
142048 On ch=1 n=f6 v=0
142056 On ch=1 n=f5 v=41
142056 On ch=1 n=f4 v=41
142080 On ch=1 n=d#3 v=0
142248 On ch=1 n=f4 v=0
142248 On ch=1 n=f5 v=0
142248 On ch=1 n=c#6 v=82
142308 On ch=1 n=d#6 v=0
142386 On ch=1 n=c6 v=79
142392 On ch=1 n=f5 v=41
142392 On ch=1 n=d#5 v=41
142392 On ch=1 n=a4 v=41
142442 On ch=1 n=c#6 v=0
142584 On ch=1 n=a4 v=0
142584 On ch=1 n=d#5 v=0
142584 On ch=1 n=f5 v=0
142600 On ch=1 n=f5 v=41
142616 On ch=1 n=f4 v=41
142792 On ch=1 n=f5 v=0
142806 On ch=1 n=f6 v=68
142808 On ch=1 n=f4 v=0
142864 On ch=1 n=c6 v=0
142920 Par ch=1 c=64 v=0
142982 On ch=1 n=d#3 v=73
142992 On ch=1 n=d6 v=56
142992 On ch=1 n=b5 v=72
143048 On ch=1 n=f6 v=0
143060 Par ch=1 c=64 v=127
143304 On ch=1 n=g#5 v=38
143320 On ch=1 n=g#4 v=52
143424 On ch=1 n=b5 v=0
143500 On ch=1 n=d#6 v=67
143560 On ch=1 n=d6 v=0
143616 On ch=1 n=g#5 v=0
143632 On ch=1 n=g#4 v=0
143640 On ch=1 n=d#6 v=0
143688 On ch=1 n=d#6 v=66
143696 On ch=1 n=g6 v=54
143864 On ch=1 n=d6 v=57
143892 On ch=1 n=d#6 v=0
143894 On ch=1 n=f6 v=59
143900 On ch=1 n=g6 v=0
143912 On ch=1 n=g#4 v=52
143944 On ch=1 n=g#5 v=38
144056 On ch=1 n=d#6 v=66
144066 On ch=1 n=c6 v=62
144088 On ch=1 n=d6 v=0
144118 On ch=1 n=f6 v=0
144156 On ch=1 n=d#6 v=67
144170 On ch=1 n=g#4 v=0
144202 On ch=1 n=g#5 v=0
144216 On ch=1 n=b4 v=62
144232 On ch=1 n=g#5 v=69
144232 On ch=1 n=f5 v=72
144256 On ch=1 n=d6 v=62
144316 On ch=1 n=c6 v=0
144364 On ch=1 n=d#6 v=0
144364 On ch=1 n=d#6 v=0
144516 On ch=1 n=d#3 v=0
144560 On ch=1 n=g#4 v=52
144562 On ch=1 n=g#5 v=0
144568 On ch=1 n=g#5 v=52
144576 On ch=1 n=g6 v=61
144576 On ch=1 n=d#6 v=57
144586 On ch=1 n=b4 v=0
144602 On ch=1 n=f5 v=0
144626 On ch=1 n=d6 v=0
144856 On ch=1 n=f6 v=62
144864 On ch=1 n=d#4 v=55
144864 On ch=1 n=d6 v=66
144872 On ch=1 n=g#4 v=0
144880 On ch=1 n=g#5 v=0
144882 On ch=1 n=d#6 v=0
144882 On ch=1 n=g6 v=0
145032 On ch=1 n=d#6 v=73
145032 On ch=1 n=c6 v=67
145086 On ch=1 n=f6 v=0
145094 On ch=1 n=d6 v=0
145176 On ch=1 n=d6 v=57
145176 On ch=1 n=g#5 v=38
145182 On ch=1 n=f5 v=68
145184 On ch=1 n=g#4 v=52
145212 On ch=1 n=c6 v=0
145232 On ch=1 n=d#6 v=0
145300 On ch=1 n=g6 v=58
145302 On ch=1 n=d#6 v=68
145362 On ch=1 n=d6 v=0
145368 On ch=1 n=f5 v=0
145420 On ch=1 n=d#6 v=67
145448 On ch=1 n=d6 v=68
145454 On ch=1 n=f6 v=66
145470 On ch=1 n=g6 v=0
145488 On ch=1 n=g#5 v=0
145496 On ch=1 n=g#4 v=0
145592 On ch=1 n=d#6 v=72
145592 On ch=1 n=c6 v=67
145608 On ch=1 n=d6 v=0
145614 On ch=1 n=f6 v=0
145624 On ch=1 n=d#6 v=0
145710 Par ch=1 c=64 v=0
145736 On ch=1 n=g#4 v=52
145742 On ch=1 n=d6 v=61
145744 On ch=1 n=f5 v=48
145762 On ch=1 n=c6 v=0
145826 On ch=1 n=d#6 v=0
145826 On ch=1 n=d#6 v=0
145880 On ch=1 n=d#6 v=72
145880 On ch=1 n=c6 v=63
145928 On ch=1 n=d6 v=0
145930 On ch=1 n=f5 v=0
145994 Par ch=1 c=64 v=127
146032 On ch=1 n=e6 v=67
146032 On ch=1 n=c#6 v=67
146032 On ch=1 n=b5 v=38
146040 On ch=1 n=d5 v=52
146048 On ch=1 n=g#4 v=0
146070 On ch=1 n=c6 v=0
146070 On ch=1 n=d#6 v=0
146152 On ch=1 n=d#4 v=0
146160 On ch=1 n=d5 v=0
146160 On ch=1 n=b5 v=0
146160 On ch=1 n=f6 v=72
146160 On ch=1 n=d6 v=46
146218 On ch=1 n=c#6 v=0
146218 On ch=1 n=e6 v=0
146288 On ch=1 n=d#6 v=67
146296 On ch=1 n=f#6 v=59
146346 On ch=1 n=d6 v=0
146346 On ch=1 n=f6 v=0
146456 On ch=1 n=g6 v=79
146456 On ch=1 n=e6 v=44
146530 On ch=1 n=d#6 v=0
146538 On ch=1 n=f#6 v=0
146608 On ch=1 n=g#6 v=68
146608 On ch=1 n=f6 v=70
146640 On ch=1 n=e6 v=0
146640 On ch=1 n=g6 v=0
146768 On ch=1 n=g6 v=70
146772 On ch=1 n=d#6 v=66
146780 On ch=1 n=f6 v=0
146780 On ch=1 n=g#6 v=0
146896 On ch=1 n=b4 v=75
146912 On ch=1 n=f6 v=66
146912 On ch=1 n=d6 v=66
146912 On ch=1 n=g#5 v=62
146928 On ch=1 n=g6 v=0
146932 On ch=1 n=d#6 v=0
147064 On ch=1 n=f#6 v=72
147070 On ch=1 n=a#6 v=77
147098 On ch=1 n=d6 v=0
147098 On ch=1 n=f6 v=0
147206 On ch=1 n=b4 v=0
147216 On ch=1 n=b5 v=70
147216 On ch=1 n=d5 v=45
147222 On ch=1 n=g#5 v=0
147224 On ch=1 n=g#6 v=63
147226 On ch=1 n=f6 v=76
147230 On ch=1 n=f#6 v=0
147236 On ch=1 n=a#6 v=0
147350 On ch=1 n=g6 v=63
147352 On ch=1 n=d#6 v=76
147410 On ch=1 n=g#6 v=0
147412 On ch=1 n=f6 v=0
147496 On ch=1 n=d6 v=67
147502 On ch=1 n=f6 v=67
147504 On ch=1 n=g#5 v=72
147504 On ch=1 n=b4 v=59
147512 On ch=1 n=g6 v=0
147514 On ch=1 n=d#6 v=0
147526 On ch=1 n=d5 v=0
147526 On ch=1 n=b5 v=0
147648 On ch=1 n=f#6 v=72
147648 On ch=1 n=d#6 v=68
147656 On ch=1 n=d6 v=0
147662 On ch=1 n=f6 v=0
147776 On ch=1 n=f5 v=38
147784 On ch=1 n=d6 v=38
147792 On ch=1 n=g6 v=73
147792 On ch=1 n=e6 v=69
147808 On ch=1 n=d#6 v=0
147808 On ch=1 n=f#6 v=0
147814 On ch=1 n=b4 v=0
147814 On ch=1 n=g#5 v=0
147896 On ch=1 n=d6 v=0
147904 On ch=1 n=f5 v=0
147936 On ch=1 n=f6 v=62
147940 On ch=1 n=g#6 v=67
147952 On ch=1 n=e6 v=0
147952 On ch=1 n=g6 v=0
148086 On ch=1 n=a6 v=76
148088 On ch=1 n=f#6 v=66
148096 On ch=1 n=f6 v=0
148126 On ch=1 n=g#6 v=0
148206 On ch=1 n=a6 v=77
148232 On ch=1 n=a#6 v=66
148232 On ch=1 n=g6 v=67
148246 On ch=1 n=f#6 v=0
148246 On ch=1 n=a6 v=0
148306 On ch=1 n=a6 v=0
148392 On ch=1 n=g#6 v=77
148406 On ch=1 n=b6 v=76
148412 On ch=1 n=a#6 v=0
148418 On ch=1 n=g6 v=0
148528 On ch=1 n=g6 v=62
148530 On ch=1 n=a#6 v=62
148570 On ch=1 n=g#6 v=0
148574 On ch=1 n=b6 v=0
148688 On ch=1 n=f6 v=45
148698 On ch=1 n=g#6 v=76
148704 On ch=1 n=b5 v=56
148704 On ch=1 n=d5 v=62
148714 On ch=1 n=g6 v=0
148716 On ch=1 n=a#6 v=0
148848 On ch=1 n=b6 v=73
148862 On ch=1 n=d#7 v=77
148868 On ch=1 n=f6 v=0
148878 On ch=1 n=g#6 v=0
148992 On ch=1 n=d7 v=60
149008 On ch=1 n=d6 v=73
149008 On ch=1 n=f5 v=72
149010 On ch=1 n=b6 v=0
149014 On ch=1 n=d5 v=0
149014 On ch=1 n=b5 v=0
149014 On ch=1 n=a#6 v=70
149024 On ch=1 n=d#7 v=0
149136 On ch=1 n=g#6 v=70
149148 On ch=1 n=d7 v=0
149150 On ch=1 n=b6 v=66
149170 On ch=1 n=a#6 v=0
149280 On ch=1 n=a#6 v=66
149280 On ch=1 n=g6 v=56
149290 On ch=1 n=g#6 v=0
149304 On ch=1 n=b6 v=0
149318 On ch=1 n=f5 v=0
149318 On ch=1 n=d6 v=0
149440 On ch=1 n=a#6 v=0
149448 On ch=1 n=g#6 v=70
149450 On ch=1 n=f6 v=84
149474 On ch=1 n=g6 v=0
149584 On ch=1 n=a#6 v=72
149584 On ch=1 n=f#6 v=70
149608 On ch=1 n=g#6 v=0
149610 On ch=1 n=f6 v=0
149712 On ch=1 n=f6 v=66
149720 On ch=1 n=g#6 v=63
149754 On ch=1 n=f#6 v=0
149754 On ch=1 n=a#6 v=0
149872 On ch=1 n=d#6 v=62
149880 On ch=1 n=g#6 v=0
149880 On ch=1 n=g6 v=75
149890 On ch=1 n=f6 v=0
149984 On ch=1 n=d6 v=67
149992 On ch=1 n=f6 v=62
150012 On ch=1 n=d#6 v=0
150020 On ch=1 n=g6 v=0
150160 On ch=1 n=b6 v=64
150160 On ch=1 n=g#6 v=57
150194 On ch=1 n=d6 v=0
150202 On ch=1 n=f6 v=0
150336 On ch=1 n=g7 v=82
150336 On ch=1 n=d#7 v=68
150336 On ch=1 n=g4 v=58
150340 On ch=1 n=g#6 v=0
150340 On ch=1 n=b6 v=0
150488 On ch=1 n=f7 v=64
150488 On ch=1 n=d7 v=68
150514 On ch=1 n=g#4 v=62
150532 On ch=1 n=d#7 v=0
150532 On ch=1 n=g7 v=0
150536 On ch=1 n=g4 v=0
150668 On ch=1 n=d7 v=0
150668 On ch=1 n=f7 v=0
150672 On ch=1 n=b4 v=58
150680 On ch=1 n=c7 v=69
150692 On ch=1 n=d#7 v=67
150694 On ch=1 n=g#4 v=0
150824 On ch=1 n=d5 v=74
150838 On ch=1 n=c7 v=0
150840 On ch=1 n=d7 v=81
150840 On ch=1 n=a#6 v=81
150852 On ch=1 n=b4 v=0
150872 On ch=1 n=d#7 v=0
151000 On ch=1 n=f5 v=57
151004 On ch=1 n=d5 v=0
151012 On ch=1 n=b6 v=59
151012 On ch=1 n=g#6 v=73
151020 On ch=1 n=a#6 v=0
151020 On ch=1 n=d7 v=0
151160 On ch=1 n=d6 v=66
151176 On ch=1 n=a#6 v=70
151176 On ch=1 n=g6 v=72
151182 On ch=1 n=f5 v=0
151194 On ch=1 n=g#6 v=0
151194 On ch=1 n=b6 v=0
151288 On ch=1 n=d5 v=51
151306 On ch=1 n=g#6 v=68
151314 On ch=1 n=b6 v=67
151330 On ch=1 n=d6 v=0
151346 On ch=1 n=g6 v=0
151346 On ch=1 n=a#6 v=0
151468 On ch=1 n=d5 v=0
151476 On ch=1 n=f6 v=73
151480 On ch=1 n=c#7 v=73
151480 On ch=1 n=a#6 v=70
151486 On ch=1 n=g#6 v=0
151494 On ch=1 n=b6 v=0
151714 On ch=1 n=b6 v=64
151714 On ch=1 n=g#6 v=73
151722 On ch=1 n=a#6 v=0
151722 On ch=1 n=c#7 v=0
151730 On ch=1 n=f6 v=0
151776 On ch=1 n=b6 v=0
151786 On ch=1 n=g#6 v=0
151838 On ch=1 n=b6 v=75
151844 On ch=1 n=g#6 v=79
151960 On ch=1 n=g6 v=57
151974 On ch=1 n=a#6 v=81
152002 On ch=1 n=b6 v=0
152008 On ch=1 n=g#6 v=0
152082 On ch=1 n=g#6 v=73
152088 On ch=1 n=f6 v=41
152102 On ch=1 n=g6 v=0
152116 On ch=1 n=a#6 v=0
152218 Par ch=1 c=64 v=0
152262 On ch=1 n=d#4 v=67
152262 On ch=1 n=d#3 v=66
152280 On ch=1 n=g6 v=73
152296 On ch=1 n=a#6 v=73
152304 On ch=1 n=g#6 v=0
152310 On ch=1 n=f6 v=0
152334 Par ch=1 c=64 v=127
152688 On ch=1 n=d#5 v=68
152688 On ch=1 n=g4 v=68
152696 On ch=1 n=g5 v=71
152696 On ch=1 n=a#4 v=68
152704 On ch=1 n=g6 v=0
152704 On ch=1 n=d#7 v=79
152704 On ch=1 n=d#6 v=79
152720 On ch=1 n=a#6 v=0
152828 On ch=1 n=d#3 v=0
152834 On ch=1 n=d#4 v=0
152978 On ch=1 n=g4 v=0
152978 On ch=1 n=d#5 v=0
152986 On ch=1 n=a#4 v=0
152986 On ch=1 n=g5 v=0
152994 On ch=1 n=d#6 v=0
152994 On ch=1 n=d#7 v=0
153064 On ch=1 n=c#3 v=79
153080 On ch=1 n=c#4 v=79
153080 On ch=1 n=e7 v=79
153080 On ch=1 n=e6 v=79
153464 On ch=1 n=e6 v=0
153464 On ch=1 n=e7 v=0
153480 On ch=1 n=a6 v=68
153480 On ch=1 n=a5 v=79
153480 On ch=1 n=g5 v=68
153480 On ch=1 n=e5 v=79
153480 On ch=1 n=a4 v=67
153616 On ch=1 n=c#3 v=0
153660 On ch=1 n=c#4 v=0
153770 On ch=1 n=a4 v=0
153770 On ch=1 n=e5 v=0
153770 On ch=1 n=g5 v=0
153840 On ch=1 n=c4 v=79
153840 On ch=1 n=c3 v=90
153848 Par ch=1 c=64 v=127
154080 On ch=1 n=a5 v=0
154080 On ch=1 n=a6 v=0
154160 On ch=1 n=d#6 v=79
154160 On ch=1 n=a4 v=68
154168 On ch=1 n=d#7 v=79
154168 On ch=1 n=g5 v=71
154168 On ch=1 n=d#5 v=68
154364 On ch=1 n=c3 v=0
154378 Par ch=1 c=64 v=0
154390 On ch=1 n=c4 v=0
154450 On ch=1 n=a4 v=0
154458 On ch=1 n=d#5 v=0
154458 On ch=1 n=g5 v=0
154470 On ch=1 n=c#3 v=79
154472 On ch=1 n=c#4 v=79
154486 Par ch=1 c=64 v=127
154810 On ch=1 n=d#6 v=0
154818 On ch=1 n=d#7 v=0
154832 On ch=1 n=a4 v=76
154834 On ch=1 n=g5 v=79
154834 On ch=1 n=e5 v=79
154842 On ch=1 n=e7 v=86
154848 On ch=1 n=e6 v=79
154906 On ch=1 n=a4 v=0
154910 On ch=1 n=g5 v=0
154914 On ch=1 n=e5 v=0
154968 On ch=1 n=e5 v=84
154968 On ch=1 n=a4 v=84
154976 On ch=1 n=g5 v=79
155032 On ch=1 n=c#3 v=0
155034 On ch=1 n=c#4 v=0
155044 On ch=1 n=e5 v=0
155052 On ch=1 n=g5 v=0
155056 On ch=1 n=a4 v=0
155112 On ch=1 n=e5 v=82
155120 On ch=1 n=g5 v=79
155126 On ch=1 n=a4 v=79
155270 On ch=1 n=e5 v=0
155278 On ch=1 n=g5 v=0
155280 On ch=1 n=a4 v=0
155456 On ch=1 n=g5 v=86
155464 On ch=1 n=a5 v=82
155464 On ch=1 n=e5 v=88
155464 On ch=1 n=a4 v=68
155472 On ch=1 n=e7 v=0
155474 On ch=1 n=a6 v=86
155478 On ch=1 n=e6 v=0
155746 On ch=1 n=g5 v=0
155754 On ch=1 n=a4 v=0
155754 On ch=1 n=e5 v=0
155804 On ch=1 n=c4 v=92
156074 On ch=1 n=a5 v=0
156084 On ch=1 n=a6 v=0
156088 On ch=1 n=d#7 v=91
156094 On ch=1 n=d#6 v=87
156104 On ch=1 n=d#5 v=82
156112 On ch=1 n=g5 v=86
156118 On ch=1 n=a4 v=79
156262 On ch=1 n=d#5 v=0
156270 On ch=1 n=g5 v=0
156272 On ch=1 n=a4 v=0
156302 Par ch=1 c=64 v=0
156314 On ch=1 n=c4 v=0
156384 On ch=1 n=c4 v=83
156406 Par ch=1 c=64 v=127
156678 On ch=1 n=d#7 v=0
156684 On ch=1 n=d#6 v=0
156698 On ch=1 n=d6 v=82
156704 On ch=1 n=d7 v=82
156704 On ch=1 n=a4 v=79
156712 On ch=1 n=f#5 v=73
156798 On ch=1 n=a4 v=0
156806 On ch=1 n=f#5 v=0
156848 On ch=1 n=f#5 v=88
156858 On ch=1 n=g#4 v=71
156912 On ch=1 n=f#5 v=0
156922 On ch=1 n=g#4 v=0
156958 On ch=1 n=c4 v=0
156960 On ch=1 n=f#5 v=38
156974 On ch=1 n=g#4 v=79
157102 On ch=1 n=f#5 v=0
157116 On ch=1 n=g#4 v=0
157252 On ch=1 n=f#5 v=76
157264 On ch=1 n=g#6 v=79
157264 On ch=1 n=g#5 v=79
157274 On ch=1 n=g#4 v=76
157368 On ch=1 n=d6 v=0
157374 On ch=1 n=d7 v=0
157458 On ch=1 n=g#4 v=0
157464 On ch=1 n=f#5 v=0
157616 On ch=1 n=b3 v=79
157674 Par ch=1 c=64 v=0
157706 Par ch=1 c=64 v=127
157920 On ch=1 n=c#7 v=86
157936 On ch=1 n=c#6 v=88
157936 On ch=1 n=f5 v=76
157936 On ch=1 n=g#4 v=46
158034 On ch=1 n=g#5 v=0
158034 On ch=1 n=g#6 v=0
158204 On ch=1 n=b3 v=0
158226 On ch=1 n=g#4 v=0
158226 On ch=1 n=f5 v=0
158264 On ch=1 n=a#3 v=79
158400 On ch=1 n=c#6 v=0
158400 On ch=1 n=c#7 v=0
158528 On ch=1 n=c6 v=77
158534 On ch=1 n=c7 v=77
158548 On ch=1 n=e5 v=86
158552 On ch=1 n=g#4 v=73
158624 On ch=1 n=e5 v=0
158628 On ch=1 n=g#4 v=0
158698 On ch=1 n=e5 v=79
158718 On ch=1 n=g4 v=51
158742 On ch=1 n=a#3 v=0
158774 On ch=1 n=e5 v=0
158794 On ch=1 n=g4 v=0
158838 On ch=1 n=e5 v=73
158846 On ch=1 n=f#4 v=73
159110 On ch=1 n=e5 v=0
159118 On ch=1 n=f#4 v=0
159192 On ch=1 n=f#6 v=79
159192 On ch=1 n=f#5 v=68
159192 On ch=1 n=e5 v=73
159192 On ch=1 n=f#4 v=64
159264 On ch=1 n=c7 v=0
159280 On ch=1 n=f#4 v=0
159280 On ch=1 n=e5 v=0
159300 On ch=1 n=c6 v=0
159304 On ch=1 n=d#5 v=81
159320 On ch=1 n=f#4 v=79
159454 On ch=1 n=d#5 v=0
159470 On ch=1 n=f#4 v=0
159544 On ch=1 n=a3 v=79
159772 On ch=1 n=f#6 v=0
159792 On ch=1 n=f#5 v=0
159924 On ch=1 n=b6 v=82
159930 On ch=1 n=b5 v=79
159936 On ch=1 n=d#5 v=54
159936 On ch=1 n=b4 v=68
159936 On ch=1 n=f#4 v=38
159960 On ch=1 n=a3 v=0
160226 On ch=1 n=f#4 v=0
160226 On ch=1 n=b4 v=0
160226 On ch=1 n=d#5 v=0
160316 On ch=1 n=b6 v=0
160320 On ch=1 n=b5 v=0
160328 On ch=1 n=g#3 v=77
160332 On ch=1 n=b6 v=80
160338 On ch=1 n=b5 v=82
160410 Par ch=1 c=64 v=127
160656 On ch=1 n=e5 v=56
160656 On ch=1 n=b4 v=65
160656 On ch=1 n=e4 v=38
160744 On ch=1 n=a#5 v=73
160756 On ch=1 n=a#6 v=72
160804 On ch=1 n=b6 v=0
160810 On ch=1 n=b5 v=0
160856 On ch=1 n=a5 v=72
160864 On ch=1 n=a6 v=69
160914 On ch=1 n=a#5 v=0
160926 On ch=1 n=a#6 v=0
160928 On ch=1 n=g#3 v=0
160984 On ch=1 n=g#6 v=77
160984 On ch=1 n=g#5 v=73
161026 On ch=1 n=a5 v=0
161034 On ch=1 n=a6 v=0
161096 On ch=1 n=g6 v=73
161096 On ch=1 n=g5 v=77
161154 On ch=1 n=g#5 v=0
161154 On ch=1 n=g#6 v=0
161166 On ch=1 n=e4 v=0
161166 On ch=1 n=b4 v=0
161166 On ch=1 n=e5 v=0
161192 On ch=1 n=f#6 v=72
161192 On ch=1 n=f#5 v=79
161192 On ch=1 n=e4 v=47
161200 On ch=1 n=b4 v=52
161266 On ch=1 n=g5 v=0
161266 On ch=1 n=g6 v=0
161320 On ch=1 n=f6 v=72
161328 On ch=1 n=f5 v=73
161362 On ch=1 n=f#5 v=0
161362 On ch=1 n=f#6 v=0
161432 On ch=1 n=e5 v=62
161440 On ch=1 n=e6 v=62
161482 On ch=1 n=e4 v=0
161490 On ch=1 n=f6 v=0
161490 On ch=1 n=b4 v=0
161498 On ch=1 n=f5 v=0
161602 On ch=1 n=e5 v=0
161610 On ch=1 n=e6 v=0
161640 On ch=1 n=d#6 v=75
161640 On ch=1 n=d#5 v=72
161640 On ch=1 n=g#3 v=64
161690 Par ch=1 c=64 v=127
161978 On ch=1 n=g#3 v=0
162030 On ch=1 n=d6 v=67
162030 On ch=1 n=d5 v=66
162036 On ch=1 n=d#5 v=0
162036 On ch=1 n=b4 v=59
162040 On ch=1 n=d#6 v=0
162046 On ch=1 n=f4 v=56
162284 Par ch=1 c=64 v=0
162326 On ch=1 n=b4 v=0
162336 On ch=1 n=f4 v=0
162396 On ch=1 n=g3 v=63
162422 Par ch=1 c=64 v=127
162720 On ch=1 n=d#4 v=33
162736 On ch=1 n=a#4 v=57
162740 On ch=1 n=d5 v=0
162740 On ch=1 n=d6 v=0
162742 On ch=1 n=c#6 v=62
162746 On ch=1 n=c#5 v=67
162800 On ch=1 n=g3 v=0
163010 On ch=1 n=d#4 v=0
163026 On ch=1 n=a#4 v=0
163030 Par ch=1 c=64 v=0
163102 On ch=1 n=g#3 v=62
163106 On ch=1 n=c5 v=70
163116 On ch=1 n=c6 v=64
163122 On ch=1 n=c#6 v=0
163126 On ch=1 n=c#5 v=0
163148 Par ch=1 c=64 v=127
163348 On ch=1 n=g#3 v=0
163456 On ch=1 n=g#5 v=56
163506 On ch=1 n=c5 v=0
163516 On ch=1 n=c6 v=0
163568 On ch=1 n=c5 v=43
163568 On ch=1 n=d#4 v=28
163588 On ch=1 n=g#6 v=76
163858 On ch=1 n=d#4 v=0
163858 On ch=1 n=c5 v=0
163966 On ch=1 n=g#5 v=0
164048 On ch=1 n=g#4 v=62
164048 On ch=1 n=f3 v=52
164064 On ch=1 n=g#5 v=62
164122 Par ch=1 c=64 v=0
164140 On ch=1 n=g#6 v=0
164230 Par ch=1 c=64 v=127
164544 On ch=1 n=d5 v=59
164544 On ch=1 n=e3 v=45
164558 On ch=1 n=f3 v=0
164772 Par ch=1 c=64 v=0
164798 On ch=1 n=g#4 v=0
164814 On ch=1 n=g#5 v=0
164864 On ch=1 n=a#5 v=56
164864 On ch=1 n=a#4 v=60
164876 On ch=1 n=e3 v=0
164878 Par ch=1 c=64 v=127
165016 On ch=1 n=a#4 v=0
165016 On ch=1 n=a#5 v=0
165040 On ch=1 n=d#3 v=40
165054 On ch=1 n=d5 v=0
165056 On ch=1 n=a#5 v=60
165056 On ch=1 n=a#4 v=2
165070 Par ch=1 c=64 v=0
165178 Par ch=1 c=64 v=127
165424 On ch=1 n=d#4 v=52
165440 On ch=1 n=g5 v=52
165440 On ch=1 n=d#5 v=53
165646 On ch=1 n=d#4 v=0
165662 On ch=1 n=d#5 v=0
165662 On ch=1 n=g5 v=0
165760 On ch=1 n=g5 v=57
165760 On ch=1 n=d#5 v=49
165776 On ch=1 n=d#4 v=51
166080 On ch=1 n=d4 v=49
166096 On ch=1 n=g#5 v=46
166096 On ch=1 n=e5 v=51
166160 On ch=1 n=d#5 v=0
166160 On ch=1 n=g5 v=0
166176 On ch=1 n=d#4 v=0
166442 Par ch=1 c=64 v=0
166446 On ch=1 n=d#4 v=47
166462 On ch=1 n=g5 v=47
166464 On ch=1 n=d#5 v=47
166480 On ch=1 n=d4 v=0
166496 On ch=1 n=e5 v=0
166496 On ch=1 n=g#5 v=0
166562 Par ch=1 c=64 v=127
166832 On ch=1 n=d5 v=47
166832 On ch=1 n=g#5 v=40
166848 On ch=1 n=e4 v=31
166862 On ch=1 n=g5 v=0
166864 On ch=1 n=d#5 v=0
166944 On ch=1 n=d#4 v=0
166966 On ch=1 n=a#4 v=0
166966 On ch=1 n=a#5 v=0
167012 On ch=1 n=g#5 v=0
167022 On ch=1 n=d#3 v=0
167040 On ch=1 n=e4 v=0
167040 On ch=1 n=d5 v=0
167312 On ch=1 n=a#5 v=48
167328 On ch=1 n=a#4 v=48
167374 On ch=1 n=a#5 v=0
167382 On ch=1 n=a#4 v=0
167424 On ch=1 n=a#5 v=51
167424 On ch=1 n=a#4 v=51
167424 On ch=1 n=d#3 v=46
167508 Par ch=1 c=64 v=0
167614 Par ch=1 c=64 v=127
167808 On ch=1 n=d#4 v=38
167824 On ch=1 n=g5 v=38
167824 On ch=1 n=d#5 v=39
168030 On ch=1 n=d#4 v=0
168046 On ch=1 n=d#5 v=0
168046 On ch=1 n=g5 v=0
168144 On ch=1 n=g5 v=44
168144 On ch=1 n=d#5 v=37
168160 On ch=1 n=d#4 v=38
168464 On ch=1 n=d4 v=38
168480 On ch=1 n=g#5 v=36
168480 On ch=1 n=e5 v=39
168544 On ch=1 n=d#5 v=0
168544 On ch=1 n=g5 v=0
168560 On ch=1 n=d#4 v=0
168740 Par ch=1 c=64 v=0
168896 On ch=1 n=g5 v=39
168896 On ch=1 n=d#4 v=40
168898 Par ch=1 c=64 v=127
168912 On ch=1 n=d#5 v=39
168934 On ch=1 n=d4 v=0
168950 On ch=1 n=e5 v=0
168950 On ch=1 n=g#5 v=0
169012 Par ch=1 c=64 v=0
169074 On ch=1 n=d#3 v=0
169216 Par ch=1 c=64 v=127
169284 On ch=1 n=a#4 v=0
169284 On ch=1 n=a#5 v=0
169440 On ch=1 n=g#5 v=39
169446 On ch=1 n=d#4 v=0
169446 On ch=1 n=g5 v=0
169456 On ch=1 n=d5 v=34
169456 On ch=1 n=e4 v=34
169462 On ch=1 n=d#5 v=0
169686 On ch=1 n=g#5 v=0
169702 On ch=1 n=e4 v=0
169702 On ch=1 n=d5 v=0
170310 On ch=1 n=a#5 v=46
170322 On ch=1 n=a#4 v=50
170390 On ch=1 n=a#5 v=0
170402 On ch=1 n=a#4 v=0
170422 Par ch=1 c=64 v=0
170432 On ch=1 n=f#5 v=38
170432 On ch=1 n=d#5 v=39
170440 On ch=1 n=a#4 v=48
170440 On ch=1 n=d#4 v=38
170442 On ch=1 n=a#5 v=46
170616 Par ch=1 c=64 v=127
170948 On ch=1 n=d#5 v=0
170948 On ch=1 n=f#5 v=0
170958 On ch=1 n=a#5 v=0
171184 On ch=1 n=d#5 v=22
171188 On ch=1 n=a#5 v=44
171192 On ch=1 n=f#5 v=39
171268 Par ch=1 c=64 v=0
171382 Par ch=1 c=64 v=127
171700 On ch=1 n=d#5 v=0
171704 On ch=1 n=a#5 v=0
171708 On ch=1 n=f#5 v=0
171910 On ch=1 n=d#4 v=0
171910 On ch=1 n=a#4 v=0
171914 On ch=1 n=c6 v=49
171924 On ch=1 n=f#5 v=44
171924 On ch=1 n=g#3 v=35
171926 Par ch=1 c=64 v=0
171928 On ch=1 n=g#4 v=33
171928 On ch=1 n=c5 v=45
172066 Par ch=1 c=64 v=127
172560 Par ch=1 c=64 v=0
172718 On ch=1 n=c5 v=0
172760 On ch=1 n=c5 v=47
172760 Par ch=1 c=64 v=0
172768 On ch=1 n=c#3 v=47
172832 On ch=1 n=g#4 v=0
172838 On ch=1 n=f#5 v=0
172840 On ch=1 n=c5 v=0
172850 On ch=1 n=c6 v=0
172862 On ch=1 n=g#3 v=0
172864 On ch=1 n=c5 v=44
172896 Par ch=1 c=64 v=127
172944 On ch=1 n=f#5 v=42
173104 On ch=1 n=a4 v=19
173122 On ch=1 n=d#6 v=47
173202 On ch=1 n=c5 v=0
173794 On ch=1 n=f#5 v=0
173806 On ch=1 n=c#6 v=41
173808 On ch=1 n=a4 v=0
173808 On ch=1 n=f5 v=32
173816 On ch=1 n=c#4 v=27
173822 On ch=1 n=a#4 v=36
173824 Par ch=1 c=64 v=0
173832 On ch=1 n=d#6 v=0
173960 Par ch=1 c=64 v=127
174038 On ch=1 n=c#3 v=0
174574 On ch=1 n=c#6 v=0
174576 On ch=1 n=f5 v=0
174590 On ch=1 n=a#4 v=0
174590 On ch=1 n=c#4 v=0
174600 On ch=1 n=g5 v=44
174610 On ch=1 n=c#5 v=36
174610 On ch=1 n=d#4 v=32
174624 On ch=1 n=a#4 v=36
174650 Par ch=1 c=64 v=0
174786 Par ch=1 c=64 v=127
175394 Par ch=1 c=64 v=0
175422 On ch=1 n=g#3 v=41
175426 On ch=1 n=g#5 v=47
175428 On ch=1 n=c5 v=39
175544 On ch=1 n=g5 v=0
175554 On ch=1 n=d#4 v=0
175556 On ch=1 n=c#5 v=0
175566 Par ch=1 c=64 v=127
175568 On ch=1 n=a#4 v=0
175800 On ch=1 n=d#4 v=44
175928 On ch=1 n=f4 v=47
176016 On ch=1 n=g#5 v=0
176018 On ch=1 n=c5 v=0
176048 On ch=1 n=g4 v=48
176070 On ch=1 n=f4 v=0
176100 On ch=1 n=g#3 v=0
176160 On ch=1 n=g#4 v=40
176192 On ch=1 n=d#4 v=0
176230 On ch=1 n=g4 v=0
176280 On ch=1 n=a#4 v=49
176372 On ch=1 n=g#4 v=0
176408 On ch=1 n=c5 v=41
176484 On ch=1 n=a#4 v=0
176600 On ch=1 n=f5 v=48
176600 On ch=1 n=c#5 v=61
176618 On ch=1 n=c5 v=0
176640 Par ch=1 c=64 v=127
176760 On ch=1 n=c#6 v=45
176810 On ch=1 n=f5 v=0
176872 On ch=1 n=g#5 v=39
176940 On ch=1 n=c#6 v=0
177000 On ch=1 n=a#5 v=42
177086 On ch=1 n=g#5 v=0
177098 On ch=1 n=c#5 v=0
177120 On ch=1 n=a#5 v=0
177120 On ch=1 n=d#5 v=44
177122 On ch=1 n=c5 v=43
177128 On ch=1 n=c6 v=47
177128 On ch=1 n=g#3 v=36
177150 Par ch=1 c=64 v=127
177468 On ch=1 n=d#4 v=45
177490 On ch=1 n=d#5 v=0
177492 On ch=1 n=c5 v=0
177498 On ch=1 n=c6 v=0
177556 On ch=1 n=g#3 v=0
177608 On ch=1 n=f4 v=47
177690 On ch=1 n=d#4 v=0
177720 On ch=1 n=g4 v=49
177768 Par ch=1 c=64 v=0
177776 On ch=1 n=f4 v=0
177840 On ch=1 n=g#4 v=51
177860 Par ch=1 c=64 v=127
177912 On ch=1 n=g4 v=0
177960 On ch=1 n=a#4 v=56
178062 On ch=1 n=g#4 v=0
178080 On ch=1 n=c5 v=54
178158 On ch=1 n=a#4 v=0
178200 On ch=1 n=c#5 v=54
178200 On ch=1 n=d#5 v=58
178328 On ch=1 n=a#5 v=47
178340 On ch=1 n=c5 v=0
178348 Par ch=1 c=64 v=0
178396 On ch=1 n=d#5 v=0
178448 On ch=1 n=f5 v=30
178516 Par ch=1 c=64 v=127
178540 On ch=1 n=a#5 v=0
178568 On ch=1 n=g5 v=45
178626 On ch=1 n=f5 v=0
178680 On ch=1 n=g5 v=0
178680 On ch=1 n=c#5 v=0
178680 On ch=1 n=g#5 v=47
178680 On ch=1 n=c5 v=49
178696 On ch=1 n=g#3 v=47
178732 Par ch=1 c=64 v=127
178928 On ch=1 n=d#5 v=56
179006 On ch=1 n=d#5 v=0
179050 On ch=1 n=c5 v=0
179050 On ch=1 n=g#5 v=0
179064 On ch=1 n=d#5 v=56
179066 On ch=1 n=g#3 v=0
179072 On ch=1 n=c5 v=41
179136 On ch=1 n=d#5 v=0
179160 On ch=1 n=a#4 v=53
179168 On ch=1 n=d#5 v=57
179254 On ch=1 n=c5 v=0
179280 On ch=1 n=g#4 v=47
179306 On ch=1 n=d#5 v=0
179342 On ch=1 n=a#4 v=0
179396 On ch=1 n=g#4 v=0
179400 On ch=1 n=d#5 v=60
179400 On ch=1 n=g4 v=49
179520 On ch=1 n=f4 v=52
179566 On ch=1 n=d#5 v=0
179570 On ch=1 n=g4 v=0
179632 On ch=1 n=d#5 v=44
179640 On ch=1 n=c#5 v=57
179640 On ch=1 n=d#4 v=32
179752 On ch=1 n=a#5 v=47
179762 On ch=1 n=f4 v=0
179796 On ch=1 n=d#5 v=0
179864 Par ch=1 c=64 v=0
179880 On ch=1 n=f5 v=43
179932 On ch=1 n=a#5 v=0
180000 On ch=1 n=g5 v=44
180022 Par ch=1 c=64 v=127
180046 On ch=1 n=f5 v=0
180058 On ch=1 n=c#5 v=0
180118 On ch=1 n=d#4 v=0
180120 On ch=1 n=g5 v=0
180128 On ch=1 n=g#5 v=53
180128 On ch=1 n=c5 v=44
180128 On ch=1 n=g#3 v=49
180154 Par ch=1 c=64 v=127
180360 On ch=1 n=d#5 v=51
180432 On ch=1 n=d#5 v=0
180474 On ch=1 n=g#3 v=0
180474 On ch=1 n=c5 v=0
180474 On ch=1 n=g#5 v=0
180480 On ch=1 n=c5 v=49
180488 On ch=1 n=d#5 v=56
180576 On ch=1 n=d#5 v=0
180600 On ch=1 n=d#5 v=61
180600 On ch=1 n=a#4 v=54
180670 On ch=1 n=c5 v=0
180720 On ch=1 n=g#4 v=47
180778 On ch=1 n=d#5 v=0
180790 On ch=1 n=a#4 v=0
180834 On ch=1 n=g#4 v=0
180848 On ch=1 n=d#5 v=56
180848 On ch=1 n=g4 v=46
180968 On ch=1 n=f4 v=52
181018 On ch=1 n=g4 v=0
181040 On ch=1 n=d#5 v=0
181080 On ch=1 n=f4 v=0
181080 On ch=1 n=d#5 v=51
181080 On ch=1 n=c#5 v=47
181088 On ch=1 n=d#4 v=47
181122 Par ch=1 c=64 v=127
181200 On ch=1 n=a#5 v=53
181306 On ch=1 n=d#5 v=0
181328 On ch=1 n=f5 v=54
181362 On ch=1 n=a#5 v=0
181440 On ch=1 n=g5 v=40
181518 On ch=1 n=f5 v=0
181560 On ch=1 n=g5 v=0
181560 On ch=1 n=d#4 v=0
181560 On ch=1 n=c#5 v=0
181560 On ch=1 n=a#5 v=55
181560 On ch=1 n=d#5 v=49
181568 On ch=1 n=g#3 v=42
181568 On ch=1 n=c5 v=49
181736 On ch=1 n=c6 v=55
181800 On ch=1 n=d#4 v=45
181810 On ch=1 n=d#5 v=0
181810 On ch=1 n=a#5 v=0
181818 On ch=1 n=c5 v=0
181856 Par ch=1 c=64 v=0
181868 Par ch=1 c=64 v=127
181872 On ch=1 n=g5 v=58
181928 On ch=1 n=f4 v=42
181942 Par ch=1 c=64 v=127
181970 On ch=1 n=c6 v=0
182030 On ch=1 n=d#4 v=0
182042 Par ch=1 c=64 v=0
182048 On ch=1 n=a#5 v=54
182048 On ch=1 n=d#4 v=30
182118 On ch=1 n=f4 v=0
182168 On ch=1 n=f4 v=44
182230 Par ch=1 c=64 v=127
182270 On ch=1 n=d#4 v=0
182280 On ch=1 n=d#4 v=45
182290 On ch=1 n=g5 v=0
182358 On ch=1 n=f4 v=0
182400 On ch=1 n=f4 v=30
182480 Par ch=1 c=64 v=0
182492 Par ch=1 c=64 v=127
182510 On ch=1 n=d#4 v=0
182512 On ch=1 n=g#5 v=51
182520 On ch=1 n=c5 v=40
182532 On ch=1 n=a#5 v=0
182536 On ch=1 n=d#4 v=45
182566 Par ch=1 c=64 v=127
182590 On ch=1 n=f4 v=0
182640 On ch=1 n=f4 v=30
182686 Par ch=1 c=64 v=0
182766 On ch=1 n=d#4 v=0
182784 On ch=1 n=d#4 v=30
182816 Par ch=1 c=64 v=0
182828 Par ch=1 c=64 v=127
182840 On ch=1 n=g#5 v=0
182848 On ch=1 n=c5 v=0
182862 On ch=1 n=f4 v=0
182878 On ch=1 n=g#3 v=0
182896 On ch=1 n=a#3 v=39
182902 Par ch=1 c=64 v=127
182992 On ch=1 n=g#3 v=55
183006 On ch=1 n=d#4 v=0
183120 On ch=1 n=a#3 v=0
183124 On ch=1 n=c#4 v=28
183130 On ch=1 n=c#5 v=43
183158 Par ch=1 c=64 v=127
183216 On ch=1 n=g#3 v=0
183240 On ch=1 n=c5 v=45
183248 On ch=1 n=c4 v=37
183324 On ch=1 n=c#4 v=0
183332 On ch=1 n=c#5 v=0
183360 On ch=1 n=g#3 v=43
183434 On ch=1 n=c5 v=0
183436 On ch=1 n=c4 v=0
183480 On ch=1 n=g3 v=57
183546 On ch=1 n=g#3 v=0
183600 On ch=1 n=c#5 v=50
183600 On ch=1 n=c#4 v=51
183666 On ch=1 n=g3 v=0
183728 On ch=1 n=c5 v=53
183728 On ch=1 n=c4 v=44
183790 On ch=1 n=c#5 v=0
183826 On ch=1 n=c#4 v=0
183848 On ch=1 n=g3 v=51
183968 On ch=1 n=f3 v=59
183998 On ch=1 n=c4 v=0
183998 On ch=1 n=c5 v=0
184044 Par ch=1 c=64 v=0
184066 On ch=1 n=g3 v=0
184080 On ch=1 n=c#5 v=49
184080 On ch=1 n=c#4 v=52
184186 On ch=1 n=f3 v=0
184200 On ch=1 n=c5 v=45
184208 On ch=1 n=c4 v=56
184282 On ch=1 n=c#5 v=0
184284 On ch=1 n=c#4 v=0
184320 On ch=1 n=f3 v=55
184328 On ch=1 n=d5 v=44
184428 On ch=1 n=c5 v=0
184436 On ch=1 n=c4 v=0
184438 On ch=1 n=f3 v=0
184440 On ch=1 n=d5 v=0
184466 On ch=1 n=g4 v=54
184520 Par ch=1 c=64 v=0
184574 On ch=1 n=e5 v=53
184584 On ch=1 n=g4 v=0
184600 Par ch=1 c=64 v=127
184618 On ch=1 n=c3 v=59
184644 Par ch=1 c=64 v=0
184742 Par ch=1 c=64 v=127
184784 On ch=1 n=c6 v=49
184850 On ch=1 n=e5 v=0
184896 Par ch=1 c=64 v=0
185040 On ch=1 n=g3 v=48
185062 Par ch=1 c=64 v=127
185168 On ch=1 n=a3 v=51
185288 On ch=1 n=b3 v=53
185292 On ch=1 n=g3 v=0
185292 Par ch=1 c=64 v=0
185336 On ch=1 n=c3 v=0
185390 Par ch=1 c=64 v=127
185400 On ch=1 n=a3 v=0
185400 On ch=1 n=c6 v=0
185400 On ch=1 n=c4 v=51
185454 On ch=1 n=b3 v=0
185528 On ch=1 n=d4 v=57
185568 On ch=1 n=c4 v=0
185648 On ch=1 n=e4 v=51
185712 On ch=1 n=d4 v=0
185760 On ch=1 n=g#4 v=59
185760 On ch=1 n=f4 v=30
185824 Par ch=1 c=64 v=127
185832 On ch=1 n=e4 v=0
185880 On ch=1 n=g#5 v=52
185964 On ch=1 n=f4 v=0
185992 On ch=1 n=c5 v=51
186050 On ch=1 n=g#5 v=0
186134 On ch=1 n=d5 v=46
186156 On ch=1 n=c5 v=0
186160 On ch=1 n=g#4 v=0
186240 On ch=1 n=d5 v=0
186240 On ch=1 n=g4 v=44
186240 On ch=1 n=c3 v=59
186248 On ch=1 n=g5 v=48
186248 On ch=1 n=e5 v=44
186466 Par ch=1 c=64 v=0
186480 On ch=1 n=g3 v=52
186564 Par ch=1 c=64 v=0
186614 On ch=1 n=a3 v=50
186694 On ch=1 n=g3 v=0
186728 On ch=1 n=b3 v=53
186738 Par ch=1 c=64 v=127
186830 On ch=1 n=a3 v=0
186840 On ch=1 n=c4 v=52
186904 On ch=1 n=b3 v=0
186958 On ch=1 n=c3 v=0
186968 On ch=1 n=d4 v=43
186996 On ch=1 n=c4 v=0
187056 Par ch=1 c=64 v=127
187080 On ch=1 n=e4 v=47
187094 On ch=1 n=g4 v=0
187096 On ch=1 n=g5 v=0
187156 On ch=1 n=d4 v=0
187200 On ch=1 n=e5 v=0
187202 Par ch=1 c=64 v=0
187206 Par ch=1 c=64 v=0
187216 On ch=1 n=g#4 v=65
187216 On ch=1 n=f4 v=54
187268 On ch=1 n=e4 v=0
187320 On ch=1 n=f5 v=47
187346 Par ch=1 c=64 v=127
187372 Par ch=1 c=64 v=127
187440 On ch=1 n=c5 v=45
187478 On ch=1 n=f5 v=0
187560 On ch=1 n=d5 v=45
187562 On ch=1 n=f4 v=0
187562 On ch=1 n=g#4 v=0
187612 On ch=1 n=c5 v=0
187680 On ch=1 n=d5 v=0
187684 On ch=1 n=c3 v=55
187692 On ch=1 n=e5 v=47
187704 On ch=1 n=c5 v=23
187738 Par ch=1 c=64 v=0
187784 Par ch=1 c=64 v=127
187794 On ch=1 n=c5 v=0
187884 Par ch=1 c=64 v=127
187928 On ch=1 n=c5 v=50
188002 On ch=1 n=c5 v=0
188018 On ch=1 n=e5 v=0
188048 On ch=1 n=g4 v=28
188048 On ch=1 n=c5 v=54
188112 On ch=1 n=c5 v=0
188144 On ch=1 n=c5 v=58
188168 On ch=1 n=f4 v=47
188186 Par ch=1 c=64 v=0
188230 On ch=1 n=g4 v=0
188280 On ch=1 n=e4 v=43
188312 Par ch=1 c=64 v=127
188384 On ch=1 n=c5 v=0
188386 On ch=1 n=f4 v=0
188402 On ch=1 n=c3 v=0
188408 On ch=1 n=c5 v=53
188408 On ch=1 n=c4 v=52
188458 On ch=1 n=e4 v=0
188520 On ch=1 n=g3 v=45
188584 On ch=1 n=c4 v=0
188640 On ch=1 n=c5 v=0
188656 On ch=1 n=g#4 v=58
188656 On ch=1 n=f3 v=43
188696 On ch=1 n=g3 v=0
188736 Par ch=1 c=64 v=0
188770 On ch=1 n=e5 v=48
188792 Par ch=1 c=64 v=127
188886 Par ch=1 c=64 v=127
188888 On ch=1 n=c5 v=47
188906 On ch=1 n=e5 v=0
189008 On ch=1 n=d5 v=51
189008 On ch=1 n=b4 v=56
189062 On ch=1 n=c5 v=0
189110 On ch=1 n=f3 v=0
189110 On ch=1 n=g#4 v=0
189128 On ch=1 n=e5 v=47
189128 On ch=1 n=c5 v=33
189128 On ch=1 n=c3 v=61
189184 On ch=1 n=b4 v=0
189184 On ch=1 n=d5 v=0
189316 Par ch=1 c=64 v=0
189334 On ch=1 n=c5 v=0
189368 On ch=1 n=c5 v=47
189388 Par ch=1 c=64 v=0
189428 Par ch=1 c=64 v=127
189432 On ch=1 n=c5 v=0
189488 On ch=1 n=c5 v=56
189488 On ch=1 n=g4 v=45
189510 On ch=1 n=e5 v=0
189550 On ch=1 n=c5 v=0
189570 Par ch=1 c=64 v=127
189600 On ch=1 n=f4 v=51
189608 On ch=1 n=c5 v=60
189634 On ch=1 n=g4 v=0
189728 On ch=1 n=e4 v=49
189760 On ch=1 n=f4 v=0
189840 On ch=1 n=c5 v=0
189840 On ch=1 n=c3 v=0
189856 On ch=1 n=c4 v=25
189864 On ch=1 n=c5 v=53
189888 On ch=1 n=e4 v=0
189956 On ch=1 n=g3 v=38
190004 On ch=1 n=c4 v=0
190080 On ch=1 n=g#4 v=53
190088 On ch=1 n=f3 v=46
190126 On ch=1 n=c5 v=0
190200 On ch=1 n=e5 v=51
190218 On ch=1 n=g3 v=0
190240 Par ch=1 c=64 v=0
190328 On ch=1 n=c5 v=49
190392 On ch=1 n=e5 v=0
190400 Par ch=1 c=64 v=127
190404 Par ch=1 c=64 v=0
190440 On ch=1 n=d5 v=47
190448 On ch=1 n=b4 v=39
190458 On ch=1 n=f3 v=0
190508 On ch=1 n=c5 v=0
190560 On ch=1 n=g#4 v=0
190560 On ch=1 n=e5 v=47
190560 On ch=1 n=g4 v=49
190568 On ch=1 n=c5 v=49
190568 On ch=1 n=c3 v=59
190620 On ch=1 n=d5 v=0
190624 Par ch=1 c=64 v=127
190628 On ch=1 n=b4 v=0
190772 Par ch=1 c=64 v=0
190800 On ch=1 n=c3 v=0
190800 On ch=1 n=c5 v=0
190800 On ch=1 n=g4 v=0
190800 On ch=1 n=e5 v=0
190840 On ch=1 n=a#4 v=47
190844 On ch=1 n=e5 v=47
190852 On ch=1 n=g4 v=47
190856 On ch=1 n=c#5 v=47
190896 Par ch=1 c=64 v=127
191036 On ch=1 n=f5 v=47
191038 On ch=1 n=g#4 v=47
191042 On ch=1 n=a#4 v=0
191046 On ch=1 n=e5 v=0
191052 On ch=1 n=c#5 v=0
191054 On ch=1 n=g4 v=0
191200 Par ch=1 c=64 v=0
191220 On ch=1 n=g4 v=47
191224 On ch=1 n=c#5 v=47
191226 On ch=1 n=e5 v=47
191232 On ch=1 n=a#4 v=47
191236 On ch=1 n=g#4 v=0
191238 On ch=1 n=f5 v=0
191288 Par ch=1 c=64 v=127
191368 On ch=1 n=g#5 v=47
191376 On ch=1 n=c4 v=47
191418 On ch=1 n=g4 v=0
191422 On ch=1 n=c#5 v=0
191424 On ch=1 n=e5 v=0
191430 On ch=1 n=a#4 v=0
191520 On ch=1 n=e5 v=47
191520 On ch=1 n=a#4 v=47
191528 On ch=1 n=c#5 v=47
191536 On ch=1 n=g5 v=47
191566 On ch=1 n=g#5 v=0
191580 On ch=1 n=c4 v=0
191672 On ch=1 n=g#5 v=47
191680 On ch=1 n=c5 v=47
191718 On ch=1 n=a#4 v=0
191718 On ch=1 n=e5 v=0
191726 On ch=1 n=c#5 v=0
191734 On ch=1 n=g5 v=0
191808 On ch=1 n=e5 v=47
191808 On ch=1 n=a#4 v=47
191816 On ch=1 n=g5 v=47
191816 On ch=1 n=c#5 v=47
191870 On ch=1 n=g#5 v=0
191878 On ch=1 n=c5 v=0
191944 On ch=1 n=c6 v=47
191944 On ch=1 n=c4 v=47
192006 On ch=1 n=a#4 v=0
192006 On ch=1 n=e5 v=0
192014 On ch=1 n=c#5 v=0
192014 On ch=1 n=g5 v=0
192072 On ch=1 n=a#5 v=47
192072 On ch=1 n=g5 v=47
192072 On ch=1 n=e5 v=47
192080 On ch=1 n=c#5 v=47
192142 On ch=1 n=c4 v=0
192158 On ch=1 n=c6 v=0
192208 On ch=1 n=d#5 v=47
192216 On ch=1 n=c6 v=47
192286 On ch=1 n=e5 v=0
192286 On ch=1 n=g5 v=0
192286 On ch=1 n=a#5 v=0
192294 On ch=1 n=c#5 v=0
192352 On ch=1 n=a#5 v=47
192356 On ch=1 n=g5 v=47
192356 On ch=1 n=e5 v=47
192366 On ch=1 n=c#5 v=47
192406 On ch=1 n=d#5 v=0
192412 On ch=1 n=c6 v=0
192480 On ch=1 n=c5 v=47
192488 On ch=1 n=f6 v=47
192550 On ch=1 n=a#5 v=0
192554 On ch=1 n=e5 v=0
192554 On ch=1 n=g5 v=0
192564 On ch=1 n=c#5 v=0
192600 On ch=1 n=e6 v=47
192608 On ch=1 n=c#6 v=47
192608 On ch=1 n=a#5 v=47
192608 On ch=1 n=g5 v=47
192666 Par ch=1 c=64 v=0
192678 On ch=1 n=c5 v=0
192686 On ch=1 n=f6 v=0
192712 On ch=1 n=g#5 v=47
192720 On ch=1 n=f6 v=47
192790 Par ch=1 c=64 v=127
192798 On ch=1 n=e6 v=0
192806 On ch=1 n=g5 v=0
192806 On ch=1 n=a#5 v=0
192806 On ch=1 n=c#6 v=0
192840 On ch=1 n=e6 v=47
192840 On ch=1 n=c#6 v=47
192840 On ch=1 n=a#5 v=47
192854 On ch=1 n=g5 v=47
192910 On ch=1 n=g#5 v=0
192918 On ch=1 n=f6 v=0
192960 On ch=1 n=c5 v=47
192968 On ch=1 n=g#6 v=47
193038 On ch=1 n=a#5 v=0
193038 On ch=1 n=c#6 v=0
193038 On ch=1 n=e6 v=0
193052 On ch=1 n=g5 v=0
193080 On ch=1 n=a#5 v=47
193088 On ch=1 n=g6 v=47
193088 On ch=1 n=e6 v=47
193088 On ch=1 n=c#6 v=47
193158 On ch=1 n=c5 v=0
193166 On ch=1 n=g#6 v=0
193200 On ch=1 n=g#6 v=47
193208 On ch=1 n=c6 v=47
193256 On ch=1 n=a#5 v=0
193286 On ch=1 n=c#6 v=0
193286 On ch=1 n=e6 v=0
193286 On ch=1 n=g6 v=0
193320 On ch=1 n=e6 v=47
193320 On ch=1 n=c#6 v=47
193328 On ch=1 n=g6 v=47
193328 On ch=1 n=a#5 v=47
193376 On ch=1 n=g#6 v=0
193384 On ch=1 n=c6 v=0
193440 On ch=1 n=c5 v=47
193448 On ch=1 n=c7 v=47
193518 On ch=1 n=c#6 v=0
193518 On ch=1 n=e6 v=0
193526 On ch=1 n=a#5 v=0
193526 On ch=1 n=g6 v=0
193560 On ch=1 n=e6 v=47
193568 On ch=1 n=a#6 v=47
193568 On ch=1 n=g6 v=47
193576 On ch=1 n=c#6 v=47
193638 On ch=1 n=c5 v=0
193646 On ch=1 n=c7 v=0
193700 On ch=1 n=d#6 v=47
193708 On ch=1 n=c7 v=47
193718 On ch=1 n=e6 v=47
193736 On ch=1 n=e6 v=0
193744 On ch=1 n=g6 v=0
193746 On ch=1 n=a#6 v=0
193752 On ch=1 n=c#6 v=0
193764 On ch=1 n=e6 v=0
193856 On ch=1 n=c#6 v=47
193864 On ch=1 n=g6 v=47
193866 On ch=1 n=a#6 v=47
193872 On ch=1 n=e6 v=47
193892 On ch=1 n=d#6 v=0
193896 On ch=1 n=c7 v=0
194014 On ch=1 n=d#6 v=47
194018 On ch=1 n=c7 v=47
194032 On ch=1 n=c#6 v=0
194040 On ch=1 n=g6 v=0
194042 On ch=1 n=a#6 v=0
194048 On ch=1 n=e6 v=0
194154 On ch=1 n=a#6 v=47
194158 On ch=1 n=g6 v=47
194170 On ch=1 n=e6 v=47
194170 On ch=1 n=c#6 v=47
194190 On ch=1 n=d#6 v=0
194194 On ch=1 n=c7 v=0
194322 On ch=1 n=c7 v=47
194332 On ch=1 n=c6 v=47
194334 On ch=1 n=g6 v=0
194344 On ch=1 n=a#6 v=0
194346 On ch=1 n=c#6 v=0
194346 On ch=1 n=e6 v=0
194470 On ch=1 n=a#6 v=47
194476 On ch=1 n=g6 v=47
194476 On ch=1 n=c#6 v=47
194488 On ch=1 n=e6 v=47
194498 On ch=1 n=c7 v=0
194508 On ch=1 n=c6 v=0
194634 On ch=1 n=c7 v=47
194640 On ch=1 n=d#6 v=47
194652 On ch=1 n=c#6 v=0
194652 On ch=1 n=g6 v=0
194660 On ch=1 n=a#6 v=0
194664 On ch=1 n=e6 v=0
194770 On ch=1 n=a#6 v=47
194776 On ch=1 n=g6 v=47
194776 On ch=1 n=c#6 v=47
194796 On ch=1 n=e6 v=47
194800 On ch=1 n=c7 v=0
194816 On ch=1 n=d#6 v=0
194880 On ch=1 n=c7 v=47
194888 On ch=1 n=c6 v=47
194952 On ch=1 n=c#6 v=0
194952 On ch=1 n=g6 v=0
194964 On ch=1 n=a#6 v=0
194972 On ch=1 n=e6 v=0
195000 On ch=1 n=c#6 v=47
195008 On ch=1 n=a#6 v=47
195008 On ch=1 n=g6 v=47
195008 On ch=1 n=e6 v=47
195064 On ch=1 n=c6 v=0
195066 On ch=1 n=c7 v=0
195120 On ch=1 n=d#6 v=47
195128 On ch=1 n=c7 v=47
195176 On ch=1 n=c#6 v=0
195184 On ch=1 n=e6 v=0
195184 On ch=1 n=g6 v=0
195214 On ch=1 n=a#6 v=0
195240 On ch=1 n=a#6 v=47
195240 On ch=1 n=g6 v=47
195248 On ch=1 n=e6 v=47
195248 On ch=1 n=c#6 v=47
195318 On ch=1 n=d#6 v=0
195326 On ch=1 n=c7 v=0
195352 On ch=1 n=c7 v=47
195368 On ch=1 n=c6 v=47
195438 On ch=1 n=g6 v=0
195438 On ch=1 n=a#6 v=0
195446 On ch=1 n=c#6 v=0
195446 On ch=1 n=e6 v=0
195464 On ch=1 n=a#6 v=47
195464 On ch=1 n=g6 v=47
195464 On ch=1 n=e6 v=47
195464 On ch=1 n=c#6 v=47
195544 On ch=1 n=c6 v=0
195550 On ch=1 n=c7 v=0
195568 Par ch=1 c=64 v=0
195600 On ch=1 n=g#6 v=47
195600 On ch=1 n=c6 v=47
195638 Par ch=1 c=64 v=127
195640 On ch=1 n=c#6 v=0
195662 On ch=1 n=e6 v=0
195662 On ch=1 n=g6 v=0
195666 On ch=1 n=a#6 v=0
195720 On ch=1 n=g6 v=47
195720 On ch=1 n=a#5 v=47
195728 On ch=1 n=c#6 v=47
195804 On ch=1 n=g#6 v=0
195806 On ch=1 n=c6 v=0
195840 On ch=1 n=f6 v=48
195840 On ch=1 n=g#5 v=48
195918 On ch=1 n=a#5 v=0
195918 On ch=1 n=g6 v=0
195926 On ch=1 n=c#6 v=0
195960 On ch=1 n=a#5 v=49
195960 On ch=1 n=g5 v=49
195968 On ch=1 n=e6 v=49
196030 On ch=1 n=f6 v=0
196036 On ch=1 n=g#5 v=0
196080 On ch=1 n=c#6 v=49
196088 On ch=1 n=f5 v=49
196158 On ch=1 n=g5 v=0
196158 On ch=1 n=a#5 v=0
196166 On ch=1 n=e6 v=0
196200 On ch=1 n=g5 v=50
196200 On ch=1 n=e5 v=50
196208 On ch=1 n=c6 v=50
196256 On ch=1 n=c#6 v=0
196264 On ch=1 n=f5 v=0
196320 On ch=1 n=a#5 v=51
196320 On ch=1 n=c#5 v=51
196376 On ch=1 n=e5 v=0
196376 On ch=1 n=g5 v=0
196384 On ch=1 n=c6 v=0
196440 On ch=1 n=g#5 v=51
196440 On ch=1 n=e5 v=51
196448 On ch=1 n=c5 v=51
196518 On ch=1 n=c#5 v=0
196518 On ch=1 n=a#5 v=0
196560 On ch=1 n=a#4 v=52
196568 On ch=1 n=g5 v=52
196638 On ch=1 n=e5 v=0
196638 On ch=1 n=g#5 v=0
196646 On ch=1 n=c5 v=0
196672 On ch=1 n=g#4 v=52
196680 On ch=1 n=f5 v=52
196688 On ch=1 n=c#5 v=52
196758 On ch=1 n=a#4 v=0
196766 On ch=1 n=g5 v=0
196800 On ch=1 n=e5 v=52
196800 On ch=1 n=g4 v=52
196870 On ch=1 n=g#4 v=0
196878 On ch=1 n=f5 v=0
196894 On ch=1 n=c#5 v=0
196992 On ch=1 n=g4 v=0
197040 On ch=1 n=g#5 v=58
197040 On ch=1 n=b4 v=56
197040 On ch=1 n=b2 v=56
197048 On ch=1 n=g#4 v=62
197160 On ch=1 n=e5 v=0
197242 Par ch=1 c=64 v=0
197288 On ch=1 n=e5 v=51
197288 On ch=1 n=b3 v=37
197358 Par ch=1 c=64 v=127
197360 On ch=1 n=e5 v=0
197402 On ch=1 n=b3 v=0
197408 On ch=1 n=e5 v=57
197408 On ch=1 n=c#4 v=51
197494 On ch=1 n=e5 v=0
197494 On ch=1 n=b4 v=0
197494 On ch=1 n=g#5 v=0
197502 On ch=1 n=g#4 v=0
197504 On ch=1 n=e5 v=51
197520 On ch=1 n=c#4 v=0
197528 On ch=1 n=d#4 v=52
197640 On ch=1 n=b2 v=0
197640 On ch=1 n=e4 v=21
197704 On ch=1 n=d#4 v=0
197744 On ch=1 n=e5 v=0
197768 On ch=1 n=e5 v=54
197774 On ch=1 n=f#4 v=51
197822 On ch=1 n=e4 v=0
197888 On ch=1 n=g#4 v=51
197956 On ch=1 n=f#4 v=0
198000 On ch=1 n=a4 v=22
198008 On ch=1 n=c#5 v=63
198030 On ch=1 n=e5 v=0
198054 On ch=1 n=g#4 v=0
198120 On ch=1 n=a5 v=53
198176 Par ch=1 c=64 v=0
198240 On ch=1 n=e5 v=49
198254 On ch=1 n=a5 v=0
198304 Par ch=1 c=64 v=127
198360 On ch=1 n=f#5 v=51
198398 On ch=1 n=c#5 v=0
198416 On ch=1 n=e5 v=0
198472 On ch=1 n=a4 v=0
198496 On ch=1 n=g#4 v=58
198504 On ch=1 n=g#5 v=53
198504 On ch=1 n=e5 v=53
198512 On ch=1 n=b2 v=51
198520 Par ch=1 c=64 v=0
198536 On ch=1 n=f#5 v=0
198596 Par ch=1 c=64 v=127
198604 On ch=1 n=e5 v=0
198728 On ch=1 n=e5 v=53
198728 On ch=1 n=b3 v=57
198800 On ch=1 n=g#4 v=0
198812 On ch=1 n=e5 v=0
198840 On ch=1 n=e5 v=53
198840 On ch=1 n=c#4 v=47
198882 On ch=1 n=b3 v=0
198940 On ch=1 n=e5 v=0
198940 On ch=1 n=g#5 v=0
198946 Par ch=1 c=64 v=0
198960 On ch=1 n=e5 v=57
198968 On ch=1 n=d#4 v=57
199056 Par ch=1 c=64 v=127
199064 On ch=1 n=c#4 v=0
199080 On ch=1 n=b2 v=0
199080 On ch=1 n=e4 v=42
199166 On ch=1 n=d#4 v=0
199200 On ch=1 n=e5 v=0
199208 On ch=1 n=f#4 v=44
199216 On ch=1 n=e5 v=58
199248 On ch=1 n=e4 v=0
199328 On ch=1 n=g#4 v=54
199368 On ch=1 n=f#4 v=0
199440 On ch=1 n=e5 v=0
199448 On ch=1 n=b4 v=59
199452 On ch=1 n=a4 v=56
199510 Par ch=1 c=64 v=0
199526 On ch=1 n=g#4 v=0
199560 On ch=1 n=f#5 v=49
199626 Par ch=1 c=64 v=127
199668 On ch=1 n=b4 v=0
199688 On ch=1 n=c#5 v=64
199724 On ch=1 n=f#5 v=0
199782 Par ch=1 c=64 v=0
199808 On ch=1 n=d#5 v=43
199862 On ch=1 n=c#5 v=0
199920 On ch=1 n=b4 v=56
199928 On ch=1 n=e5 v=54
199928 On ch=1 n=e3 v=47
199932 On ch=1 n=a4 v=0
199938 Par ch=1 c=64 v=127
199978 Par ch=1 c=64 v=0
200024 On ch=1 n=d#5 v=0
200060 Par ch=1 c=64 v=127
200072 On ch=1 n=b4 v=0
200156 On ch=1 n=e5 v=0
200168 On ch=1 n=b4 v=45
200236 On ch=1 n=b4 v=0
200280 On ch=1 n=g#4 v=39
200288 On ch=1 n=b4 v=51
200354 On ch=1 n=b4 v=0
200400 On ch=1 n=b4 v=58
200400 On ch=1 n=f#4 v=57
200440 On ch=1 n=g#4 v=0
200520 Par ch=1 c=64 v=0
200528 On ch=1 n=e4 v=52
200574 On ch=1 n=f#4 v=0
200592 Par ch=1 c=64 v=127
200640 On ch=1 n=b4 v=0
200640 On ch=1 n=d#4 v=43
200646 On ch=1 n=e3 v=0
200656 On ch=1 n=b4 v=53
200712 On ch=1 n=e4 v=0
200760 On ch=1 n=c#4 v=45
200782 On ch=1 n=d#4 v=0
200880 On ch=1 n=b4 v=0
200888 On ch=1 n=b3 v=41
200896 On ch=1 n=a4 v=46
200896 On ch=1 n=b4 v=49
200946 Par ch=1 c=64 v=127
200952 Par ch=1 c=64 v=0
200958 On ch=1 n=c#4 v=0
201008 On ch=1 n=f#5 v=54
201068 Par ch=1 c=64 v=127
201108 On ch=1 n=b4 v=0
201120 On ch=1 n=b3 v=0
201120 On ch=1 n=c#5 v=51
201120 On ch=1 n=b3 v=41
201156 On ch=1 n=f#5 v=0
201212 On ch=1 n=b3 v=0
201248 On ch=1 n=d#5 v=49
201282 On ch=1 n=c#5 v=0
201360 On ch=1 n=e5 v=51
201368 On ch=1 n=e3 v=49
201394 Par ch=1 c=64 v=0
201454 On ch=1 n=d#5 v=0
201492 Par ch=1 c=64 v=0
201550 Par ch=1 c=64 v=127
201574 Par ch=1 c=64 v=127
201608 On ch=1 n=b4 v=49
201674 On ch=1 n=b4 v=0
201720 On ch=1 n=e5 v=0
201728 On ch=1 n=b4 v=58
201728 On ch=1 n=g#4 v=53
201818 On ch=1 n=b4 v=0
201840 On ch=1 n=b4 v=58
201848 On ch=1 n=f#4 v=57
201886 On ch=1 n=g#4 v=0
201906 On ch=1 n=a4 v=0
201930 Par ch=1 c=64 v=0
201968 On ch=1 n=e4 v=47
202030 On ch=1 n=f#4 v=0
202080 On ch=1 n=d#4 v=45
202086 On ch=1 n=e3 v=0
202088 On ch=1 n=c5 v=53
202090 Par ch=1 c=64 v=127
202102 On ch=1 n=b4 v=0
202176 On ch=1 n=e4 v=0
202200 On ch=1 n=d4 v=46
202290 On ch=1 n=d#4 v=0
202320 On ch=1 n=c5 v=0
202320 On ch=1 n=c#4 v=52
202324 On ch=1 n=f3 v=49
202328 On ch=1 n=c#5 v=52
202328 On ch=1 n=b4 v=45
202350 Par ch=1 c=64 v=0
202398 On ch=1 n=d4 v=0
202448 On ch=1 n=b5 v=45
202496 Par ch=1 c=64 v=127
202538 On ch=1 n=c#5 v=0
202560 On ch=1 n=f#5 v=47
202584 On ch=1 n=b5 v=0
202688 On ch=1 n=g#5 v=49
202782 On ch=1 n=f#5 v=0
202792 On ch=1 n=c#5 v=49
202798 On ch=1 n=c#4 v=0
202800 On ch=1 n=b4 v=0
202800 On ch=1 n=f3 v=0
202800 On ch=1 n=f#3 v=45
202802 On ch=1 n=a5 v=51
202808 On ch=1 n=a4 v=50
202834 Par ch=1 c=64 v=0
202886 On ch=1 n=g#5 v=0
202936 Par ch=1 c=64 v=127
202944 Par ch=1 c=64 v=127
203032 On ch=1 n=c#5 v=0
203040 On ch=1 n=c#5 v=62
203040 On ch=1 n=c#4 v=47
203112 On ch=1 n=c#5 v=0
203148 On ch=1 n=a5 v=0
203154 On ch=1 n=a4 v=0
203168 On ch=1 n=c#5 v=66
203168 On ch=1 n=d#4 v=56
203200 On ch=1 n=c#4 v=0
203238 On ch=1 n=c#5 v=0
203280 On ch=1 n=c#5 v=66
203288 On ch=1 n=f4 v=56
203312 On ch=1 n=d#4 v=0
203328 Par ch=1 c=64 v=0
203352 Par ch=1 c=64 v=127
203372 On ch=1 n=c#5 v=0
203408 On ch=1 n=f#4 v=60
203464 On ch=1 n=f4 v=0
203504 On ch=1 n=c#5 v=63
203518 On ch=1 n=f#3 v=0
203520 On ch=1 n=g#4 v=47
203594 On ch=1 n=f#4 v=0
203648 On ch=1 n=a4 v=55
203666 On ch=1 n=g#4 v=0
203704 Par ch=1 c=64 v=0
203744 On ch=1 n=c#5 v=0
203760 On ch=1 n=b4 v=47
203768 On ch=1 n=c#5 v=51
203768 On ch=1 n=c#4 v=44
203846 On ch=1 n=a4 v=0
203878 On ch=1 n=g#5 v=57
203896 Par ch=1 c=64 v=127
204008 On ch=1 n=d#5 v=48
204030 On ch=1 n=c#5 v=0
204032 On ch=1 n=g#5 v=0
204092 On ch=1 n=c#4 v=0
204128 On ch=1 n=f5 v=54
204192 On ch=1 n=d#5 v=0
204248 On ch=1 n=f#5 v=59
204248 On ch=1 n=f#3 v=56
204282 Par ch=1 c=64 v=0
204308 On ch=1 n=f5 v=0
204362 Par ch=1 c=64 v=127
204480 On ch=1 n=c#5 v=57
204552 On ch=1 n=c#5 v=0
204608 On ch=1 n=c#5 v=57
204608 On ch=1 n=a4 v=54
204626 On ch=1 n=f#5 v=0
204686 On ch=1 n=c#5 v=0
204704 Par ch=1 c=64 v=0
204720 On ch=1 n=b4 v=0
204720 On ch=1 n=c#5 v=57
204728 On ch=1 n=g#4 v=53
204740 On ch=1 n=a4 v=0
204840 On ch=1 n=f#4 v=59
204898 Par ch=1 c=64 v=127
204912 On ch=1 n=g#4 v=0
204966 On ch=1 n=f#3 v=0
204968 On ch=1 n=d5 v=57
204968 On ch=1 n=f4 v=38
204982 On ch=1 n=c#5 v=0
205088 On ch=1 n=f#4 v=0
205088 On ch=1 n=e4 v=54
205146 On ch=1 n=f4 v=0
205200 On ch=1 n=d5 v=0
205200 On ch=1 n=d#5 v=63
205208 On ch=1 n=a#4 v=67
205208 On ch=1 n=d#4 v=47
205216 On ch=1 n=g3 v=42
205234 Par ch=1 c=64 v=0
205286 On ch=1 n=e4 v=0
205328 On ch=1 n=c#6 v=63
205364 Par ch=1 c=64 v=127
205430 On ch=1 n=d#5 v=0
205448 On ch=1 n=c#6 v=0
205456 On ch=1 n=g#5 v=59
205568 On ch=1 n=a#5 v=54
205570 On ch=1 n=a#4 v=0
205654 On ch=1 n=g#5 v=0
205680 On ch=1 n=d#5 v=57
205688 On ch=1 n=b5 v=59
205688 On ch=1 n=b4 v=60
205696 On ch=1 n=a#5 v=0
205696 On ch=1 n=g#3 v=59
205736 On ch=1 n=g3 v=0
205736 On ch=1 n=d#4 v=0
205754 Par ch=1 c=64 v=0
205774 Par ch=1 c=64 v=0
205904 Par ch=1 c=64 v=127
205920 On ch=1 n=d#5 v=0
205928 On ch=1 n=d#4 v=51
205936 On ch=1 n=d#5 v=57
206008 On ch=1 n=d#5 v=0
206034 On ch=1 n=b4 v=0
206040 On ch=1 n=d#5 v=57
206048 On ch=1 n=f4 v=56
206116 On ch=1 n=b5 v=0
206120 On ch=1 n=d#5 v=0
206124 On ch=1 n=d#4 v=0
206168 On ch=1 n=d#5 v=71
206168 On ch=1 n=g4 v=64
206240 On ch=1 n=f4 v=0
206280 On ch=1 n=g#4 v=65
206338 On ch=1 n=g4 v=0
206346 Par ch=1 c=64 v=0
206390 On ch=1 n=d#5 v=0
206400 On ch=1 n=d#5 v=68
206408 On ch=1 n=a#4 v=61
206414 On ch=1 n=g#3 v=0
206444 On ch=1 n=g#4 v=0
206488 Par ch=1 c=64 v=127
206528 On ch=1 n=b4 v=40
206552 On ch=1 n=a#4 v=0
206640 On ch=1 n=d#5 v=0
206648 On ch=1 n=d#5 v=61
206648 On ch=1 n=c#5 v=56
206656 On ch=1 n=d#4 v=41
206660 On ch=1 n=a#4 v=45
206676 Par ch=1 c=64 v=0
206720 Par ch=1 c=64 v=0
206726 On ch=1 n=b4 v=0
206768 On ch=1 n=a#5 v=57
206796 Par ch=1 c=64 v=127
206876 Par ch=1 c=64 v=127
206888 On ch=1 n=f5 v=62
206898 On ch=1 n=d#5 v=0
206912 On ch=1 n=a#4 v=0
206920 On ch=1 n=a#5 v=0
207008 On ch=1 n=g5 v=59
207080 On ch=1 n=f5 v=0
207112 On ch=1 n=g#5 v=62
207120 On ch=1 n=g#3 v=62
207128 On ch=1 n=d#5 v=57
207136 On ch=1 n=d#4 v=0
207162 On ch=1 n=g5 v=0
207178 Par ch=1 c=64 v=0
207226 Par ch=1 c=64 v=0
207258 On ch=1 n=c#5 v=0
207328 Par ch=1 c=64 v=127
207350 On ch=1 n=d#5 v=0
207360 On ch=1 n=g#5 v=0
207360 On ch=1 n=d#4 v=51
207368 On ch=1 n=d#5 v=57
207368 On ch=1 n=b4 v=47
207440 On ch=1 n=d#5 v=0
207488 On ch=1 n=d#5 v=57
207498 On ch=1 n=f4 v=59
207526 On ch=1 n=d#4 v=0
207560 On ch=1 n=d#5 v=0
207600 On ch=1 n=d#5 v=57
207608 On ch=1 n=g4 v=45
207610 On ch=1 n=b4 v=0
207636 On ch=1 n=f4 v=0
207720 On ch=1 n=g#4 v=58
207776 On ch=1 n=d#5 v=0
207784 On ch=1 n=d#5 v=57
207796 On ch=1 n=g4 v=0
207832 Par ch=1 c=64 v=0
207838 On ch=1 n=g#3 v=0
207840 On ch=1 n=a#4 v=66
207916 On ch=1 n=d#5 v=0
207924 On ch=1 n=g#4 v=0
207928 On ch=1 n=d#5 v=66
207968 On ch=1 n=b4 v=56
207988 On ch=1 n=a#4 v=0
207996 Par ch=1 c=64 v=127
208082 On ch=1 n=d#5 v=0
208084 On ch=1 n=b4 v=0
208120 On ch=1 n=d#5 v=61
208128 On ch=1 n=c#5 v=57
208128 On ch=1 n=a#4 v=61
208200 Par ch=1 c=64 v=0
208216 On ch=1 n=a#5 v=60
208240 On ch=1 n=a#4 v=0
208296 On ch=1 n=d#5 v=0
208304 Par ch=1 c=64 v=127
208352 On ch=1 n=f5 v=62
208392 On ch=1 n=a#5 v=0
208440 Par ch=1 c=64 v=0
208464 On ch=1 n=g5 v=56
208464 On ch=1 n=a#4 v=59
208470 On ch=1 n=f5 v=0
208606 Par ch=1 c=64 v=127
208612 On ch=1 n=g5 v=0
208626 On ch=1 n=a#4 v=0
208680 On ch=1 n=c#5 v=0
208688 On ch=1 n=d4 v=56
208688 On ch=1 n=d3 v=63
208688 On ch=1 n=g#5 v=59
208688 On ch=1 n=b4 v=59
208690 Par ch=1 c=64 v=0
208760 Par ch=1 c=64 v=127
208928 On ch=1 n=b4 v=0
209038 On ch=1 n=g#5 v=0
209040 On ch=1 n=b4 v=55
209048 On ch=1 n=e5 v=51
209048 On ch=1 n=g#4 v=54
209246 On ch=1 n=g#4 v=0
209246 Par ch=1 c=64 v=0
209248 On ch=1 n=f#5 v=53
209248 On ch=1 n=a4 v=46
209250 On ch=1 n=e5 v=0
209284 On ch=1 n=b4 v=25
209292 On ch=1 n=b4 v=0
209294 On ch=1 n=b4 v=0
209400 On ch=1 n=e5 v=47
209400 On ch=1 n=g#4 v=46
209406 On ch=1 n=d3 v=0
209406 On ch=1 n=d4 v=0
209408 On ch=1 n=b4 v=54
209412 Par ch=1 c=64 v=127
209448 On ch=1 n=a4 v=0
209448 On ch=1 n=f#5 v=0
209520 On ch=1 n=d4 v=60
209528 On ch=1 n=b5 v=55
209598 On ch=1 n=g#4 v=0
209598 On ch=1 n=e5 v=0
209606 On ch=1 n=b4 v=0
209640 On ch=1 n=g#5 v=58
209648 On ch=1 n=e5 v=58
209648 On ch=1 n=b4 v=26
209718 On ch=1 n=d4 v=0
209726 On ch=1 n=b5 v=0
209770 On ch=1 n=c#5 v=61
209772 On ch=1 n=a5 v=52
209816 On ch=1 n=g#5 v=0
209824 On ch=1 n=b4 v=0
209824 On ch=1 n=e5 v=0
209888 On ch=1 n=g#5 v=56
209888 On ch=1 n=e5 v=56
209888 On ch=1 n=b4 v=51
209946 On ch=1 n=c#5 v=0
209948 On ch=1 n=a5 v=0
210008 On ch=1 n=e6 v=51
210008 On ch=1 n=d4 v=54
210086 On ch=1 n=b4 v=0
210086 On ch=1 n=e5 v=0
210086 On ch=1 n=g#5 v=0
210120 On ch=1 n=b5 v=55
210120 On ch=1 n=g#5 v=63
210128 On ch=1 n=d5 v=51
210206 On ch=1 n=d4 v=0
210206 On ch=1 n=e6 v=0
210228 On ch=1 n=e5 v=44
210232 Par ch=1 c=64 v=127
210240 On ch=1 n=c#6 v=54
210296 On ch=1 n=g#5 v=0
210298 On ch=1 n=b5 v=0
210304 On ch=1 n=d5 v=0
210368 On ch=1 n=b5 v=59
210368 On ch=1 n=g#5 v=60
210368 On ch=1 n=d5 v=20
210404 On ch=1 n=e5 v=0
210416 On ch=1 n=c#6 v=0
210488 On ch=1 n=g#6 v=70
210488 On ch=1 n=d4 v=32
210566 On ch=1 n=d5 v=0
210566 On ch=1 n=g#5 v=0
210566 On ch=1 n=b5 v=0
210600 On ch=1 n=g#5 v=62
210608 On ch=1 n=e6 v=45
210608 On ch=1 n=b5 v=52
210686 On ch=1 n=d4 v=0
210686 On ch=1 n=g#6 v=0
210728 On ch=1 n=f#6 v=66
210728 On ch=1 n=a5 v=61
210796 On ch=1 n=g#5 v=0
210806 On ch=1 n=b5 v=0
210806 On ch=1 n=e6 v=0
210840 On ch=1 n=e6 v=56
210848 On ch=1 n=b5 v=61
210848 On ch=1 n=g#5 v=56
210904 On ch=1 n=a5 v=0
210904 On ch=1 n=f#6 v=0
210960 On ch=1 n=b6 v=62
210966 On ch=1 n=d5 v=62
211038 On ch=1 n=e6 v=0
211046 On ch=1 n=g#5 v=0
211046 On ch=1 n=b5 v=0
211080 On ch=1 n=g#6 v=68
211088 On ch=1 n=e6 v=64
211088 On ch=1 n=b5 v=58
211158 On ch=1 n=b6 v=0
211164 On ch=1 n=d5 v=0
211200 On ch=1 n=a6 v=64
211200 On ch=1 n=c#6 v=58
211256 On ch=1 n=g#6 v=0
211264 On ch=1 n=b5 v=0
211264 On ch=1 n=e6 v=0
211328 On ch=1 n=e6 v=63
211328 On ch=1 n=b5 v=57
211336 On ch=1 n=g#6 v=70
211376 On ch=1 n=c#6 v=0
211376 On ch=1 n=a6 v=0
211448 On ch=1 n=e7 v=59
211448 On ch=1 n=d5 v=61
211526 On ch=1 n=b5 v=0
211526 On ch=1 n=e6 v=0
211534 On ch=1 n=g#6 v=0
211568 On ch=1 n=b6 v=62
211568 On ch=1 n=d6 v=60
211582 On ch=1 n=g#6 v=70
211646 On ch=1 n=d5 v=0
211646 On ch=1 n=e7 v=0
211680 On ch=1 n=c#7 v=65
211688 On ch=1 n=e6 v=56
211744 On ch=1 n=d6 v=0
211744 On ch=1 n=b6 v=0
211758 On ch=1 n=g#6 v=0
211800 On ch=1 n=g#6 v=68
211808 On ch=1 n=b6 v=68
211808 On ch=1 n=d6 v=60
211856 On ch=1 n=c#7 v=0
211864 On ch=1 n=e6 v=0
211920 On ch=1 n=g#7 v=63
211928 On ch=1 n=d5 v=66
211976 On ch=1 n=g#6 v=0
211984 On ch=1 n=d6 v=0
211984 On ch=1 n=b6 v=0
212048 On ch=1 n=e7 v=66
212048 On ch=1 n=g#6 v=84
212056 On ch=1 n=b6 v=45
212118 On ch=1 n=g#7 v=0
212126 On ch=1 n=d5 v=0
212160 On ch=1 n=a6 v=44
212168 On ch=1 n=f#7 v=55
212224 On ch=1 n=g#6 v=0
212224 On ch=1 n=e7 v=0
212232 On ch=1 n=b6 v=0
212280 On ch=1 n=g#6 v=68
212288 On ch=1 n=e7 v=57
212288 On ch=1 n=b6 v=59
212336 On ch=1 n=a6 v=0
212344 On ch=1 n=f#7 v=0
212400 On ch=1 n=g#7 v=73
212416 On ch=1 n=d6 v=53
212478 On ch=1 n=g#6 v=0
212486 On ch=1 n=b6 v=0
212486 On ch=1 n=e7 v=0
212528 On ch=1 n=e7 v=62
212528 On ch=1 n=b6 v=61
212528 On ch=1 n=g#6 v=63
212598 On ch=1 n=g#7 v=0
212614 On ch=1 n=d6 v=0
212640 On ch=1 n=a6 v=63
212648 On ch=1 n=f7 v=61
212706 On ch=1 n=g#6 v=0
212706 On ch=1 n=b6 v=0
212706 On ch=1 n=e7 v=0
212760 On ch=1 n=e7 v=67
212760 On ch=1 n=b6 v=69
212768 On ch=1 n=g#6 v=67
212838 On ch=1 n=a6 v=0
212846 On ch=1 n=f7 v=0
212888 On ch=1 n=g#7 v=76
212888 On ch=1 n=d6 v=56
212936 On ch=1 n=b6 v=0
212936 On ch=1 n=e7 v=0
212944 On ch=1 n=g#6 v=0
213008 On ch=1 n=e7 v=67
213008 On ch=1 n=b6 v=57
213008 On ch=1 n=g#6 v=56
213086 On ch=1 n=d6 v=0
213086 On ch=1 n=g#7 v=0
213128 On ch=1 n=f#7 v=62
213128 On ch=1 n=a6 v=57
213206 On ch=1 n=g#6 v=0
213206 On ch=1 n=b6 v=0
213206 On ch=1 n=e7 v=0
213248 On ch=1 n=e7 v=67
213248 On ch=1 n=b6 v=62
213248 On ch=1 n=g#6 v=70
213326 On ch=1 n=a6 v=0
213326 On ch=1 n=f#7 v=0
213428 On ch=1 n=g#7 v=57
213446 On ch=1 n=g#6 v=0
213446 On ch=1 n=b6 v=0
213446 On ch=1 n=e7 v=0
213600 On ch=1 n=f7 v=63
213626 On ch=1 n=g#7 v=0
213720 On ch=1 n=f6 v=52
213728 On ch=1 n=d7 v=57
213798 On ch=1 n=f7 v=0
213840 On ch=1 n=b6 v=39
213848 On ch=1 n=d6 v=56
213918 On ch=1 n=f6 v=0
213926 On ch=1 n=d7 v=0
213960 On ch=1 n=g#6 v=57
213960 On ch=1 n=b5 v=39
214016 On ch=1 n=b6 v=0
214024 On ch=1 n=d6 v=0
214080 On ch=1 n=g#5 v=58
214088 On ch=1 n=f6 v=58
214172 On ch=1 n=b5 v=0
214172 On ch=1 n=g#6 v=0
214200 On ch=1 n=d6 v=54
214208 On ch=1 n=f5 v=58
214292 On ch=1 n=g#5 v=0
214300 On ch=1 n=f6 v=0
214368 On ch=1 n=b5 v=56
214368 On ch=1 n=d5 v=62
214414 On ch=1 n=d6 v=0
214422 On ch=1 n=f5 v=0
214568 On ch=1 n=g#5 v=59
214568 On ch=1 n=b4 v=47
214630 On ch=1 n=d5 v=0
214630 On ch=1 n=b5 v=0
214800 On ch=1 n=d5 v=56
214808 On ch=1 n=g#4 v=47
214830 On ch=1 n=b4 v=0
214830 On ch=1 n=g#5 v=0
215040 On ch=1 n=d#5 v=63
215048 On ch=1 n=f4 v=50
215064 On ch=1 n=d5 v=0
215072 On ch=1 n=g#4 v=0
215360 On ch=1 n=a#2 v=67
215360 On ch=1 n=f5 v=63
215390 On ch=1 n=d#5 v=0
215398 On ch=1 n=f4 v=0
215504 Par ch=1 c=64 v=0
215600 Par ch=1 c=64 v=127
215730 On ch=1 n=g#4 v=56
215786 On ch=1 n=f5 v=0
215958 On ch=1 n=g#4 v=0
215968 On ch=1 n=a#4 v=56
216056 On ch=1 n=a#5 v=64
216136 On ch=1 n=c6 v=63
216248 On ch=1 n=d6 v=62
216254 On ch=1 n=a#5 v=0
216260 On ch=1 n=d5 v=61
216270 On ch=1 n=a#4 v=0
216334 On ch=1 n=c6 v=0
216376 On ch=1 n=d#6 v=61
216446 On ch=1 n=d6 v=0
216460 On ch=1 n=a#4 v=57
216504 On ch=1 n=f6 v=60
216540 On ch=1 n=d5 v=0
216574 On ch=1 n=d#6 v=0
216604 On ch=1 n=g#4 v=62
216608 Par ch=1 c=64 v=0
216632 On ch=1 n=g6 v=59
216652 On ch=1 n=a#4 v=0
216702 On ch=1 n=f6 v=0
216746 Par ch=1 c=64 v=127
216776 On ch=1 n=g#6 v=57
216776 On ch=1 n=f4 v=62
216810 On ch=1 n=g#4 v=0
216832 On ch=1 n=g6 v=0
216872 On ch=1 n=a#6 v=56
216974 On ch=1 n=g#6 v=0
216988 On ch=1 n=f4 v=0
216990 On ch=1 n=g#4 v=57
217016 On ch=1 n=c7 v=55
217070 On ch=1 n=a#6 v=0
217144 On ch=1 n=d7 v=53
217144 On ch=1 n=a#4 v=56
217192 On ch=1 n=g#4 v=0
217194 On ch=1 n=c7 v=0
217280 On ch=1 n=d#7 v=52
217308 On ch=1 n=d5 v=75
217316 On ch=1 n=a#4 v=0
217342 On ch=1 n=d7 v=0
217384 On ch=1 n=f7 v=51
217436 On ch=1 n=a#2 v=0
217456 On ch=1 n=a#4 v=45
217478 On ch=1 n=d#7 v=0
217496 On ch=1 n=g7 v=51
217518 On ch=1 n=d5 v=0
217582 On ch=1 n=f7 v=0
217602 On ch=1 n=g#4 v=56
217624 On ch=1 n=g#7 v=50
217646 On ch=1 n=a#4 v=0
217694 On ch=1 n=g7 v=0
217768 On ch=1 n=c8 v=56
217772 On ch=1 n=d4 v=49
217808 On ch=1 n=g#4 v=0
217822 On ch=1 n=g#7 v=0
217826 Par ch=1 c=64 v=0
217880 On ch=1 n=a#7 v=47
217888 Par ch=1 c=64 v=127
217966 On ch=1 n=c8 v=0
217998 On ch=1 n=g#4 v=48
218048 On ch=1 n=d4 v=0
218078 On ch=1 n=a#7 v=0
218162 On ch=1 n=a#4 v=51
218216 On ch=1 n=g#4 v=0
218318 On ch=1 n=d5 v=68
218336 On ch=1 n=a#4 v=0
218502 On ch=1 n=a#4 v=55
218588 On ch=1 n=d5 v=0
218660 On ch=1 n=g#4 v=59
218704 On ch=1 n=a#4 v=0
218844 On ch=1 n=g#4 v=0
218868 On ch=1 n=a#3 v=66
218868 On ch=1 n=f5 v=67
218886 Par ch=1 c=64 v=0
218984 Par ch=1 c=64 v=127
219050 On ch=1 n=g#4 v=56
219200 On ch=1 n=a#4 v=50
219252 On ch=1 n=g#4 v=0
219358 On ch=1 n=d5 v=56
219372 On ch=1 n=a#4 v=0
219530 On ch=1 n=a#4 v=32
219630 On ch=1 n=d5 v=0
219704 On ch=1 n=g#4 v=52
219748 On ch=1 n=a#4 v=0
219900 On ch=1 n=g5 v=59
219906 On ch=1 n=d#5 v=57
219914 On ch=1 n=g#4 v=0
219952 On ch=1 n=f5 v=0
219964 Par ch=1 c=64 v=0
220046 Par ch=1 c=64 v=127
220088 On ch=1 n=a#4 v=45
220116 On ch=1 n=d#5 v=0
220246 On ch=1 n=g#4 v=57
220260 On ch=1 n=a#4 v=0
220438 On ch=1 n=d5 v=57
220444 On ch=1 n=f5 v=60
220448 On ch=1 n=g#4 v=0
220480 On ch=1 n=g5 v=0
220508 Par ch=1 c=64 v=0
220606 Par ch=1 c=64 v=127
220614 On ch=1 n=a#4 v=39
220664 On ch=1 n=d5 v=0
220772 On ch=1 n=g#4 v=29
220798 On ch=1 n=a#4 v=0
220960 On ch=1 n=d5 v=52
220976 On ch=1 n=g#4 v=0
221040 On ch=1 n=a#3 v=0
221102 On ch=1 n=a#4 v=45
221180 On ch=1 n=d5 v=0
221238 On ch=1 n=g5 v=62
221278 On ch=1 n=f5 v=0
221326 On ch=1 n=g#4 v=55
221362 On ch=1 n=a#4 v=0
221528 On ch=1 n=d#5 v=67
221532 On ch=1 n=g5 v=0
221538 On ch=1 n=c5 v=53
221546 On ch=1 n=g#4 v=0
221590 Par ch=1 c=64 v=0
221686 Par ch=1 c=64 v=127
221704 On ch=1 n=g#4 v=29
221798 On ch=1 n=c5 v=0
221872 On ch=1 n=d#5 v=0
221948 On ch=1 n=g4 v=35
221964 On ch=1 n=g#4 v=0
222024 On ch=1 n=c6 v=69
222156 On ch=1 n=f5 v=62
222156 On ch=1 n=d5 v=56
222208 On ch=1 n=g4 v=0
222210 Par ch=1 c=64 v=0
222228 On ch=1 n=c6 v=0
222312 Par ch=1 c=64 v=127
222326 On ch=1 n=a#4 v=45
222454 On ch=1 n=d5 v=0
222496 On ch=1 n=g#4 v=54
222536 On ch=1 n=a#4 v=0
222560 On ch=1 n=f5 v=0
222584 On ch=1 n=g5 v=67
222700 On ch=1 n=a#5 v=62
222702 On ch=1 n=d5 v=64
222714 Par ch=1 c=64 v=0
222738 On ch=1 n=g#4 v=0
222802 Par ch=1 c=64 v=127
222816 On ch=1 n=g5 v=0
222878 On ch=1 n=g#5 v=72
222882 On ch=1 n=a#4 v=40
222952 On ch=1 n=a#5 v=0
222978 On ch=1 n=d5 v=0
223052 On ch=1 n=g#4 v=52
223064 On ch=1 n=g5 v=59
223066 On ch=1 n=g#5 v=0
223088 On ch=1 n=a#4 v=0
223234 Par ch=1 c=64 v=0
223240 On ch=1 n=d5 v=50
223248 On ch=1 n=f5 v=56
223294 On ch=1 n=g#4 v=0
223300 On ch=1 n=g5 v=0
223316 Par ch=1 c=64 v=127
223416 On ch=1 n=a#4 v=60
223516 On ch=1 n=d5 v=0
223542 On ch=1 n=g5 v=67
223594 On ch=1 n=f5 v=0
223644 On ch=1 n=g#4 v=56
223696 On ch=1 n=a#4 v=0
223880 On ch=1 n=c#5 v=56
223902 On ch=1 n=d#5 v=58
223902 Par ch=1 c=64 v=0
223936 On ch=1 n=g5 v=0
223958 On ch=1 n=g#4 v=0
224040 Par ch=1 c=64 v=127
224142 On ch=1 n=c#5 v=0
224152 On ch=1 n=a#4 v=55
224242 On ch=1 n=d#5 v=0
224328 On ch=1 n=a#5 v=63
224414 On ch=1 n=a#4 v=0
224438 On ch=1 n=g#4 v=55
224488 On ch=1 n=c6 v=62
224526 On ch=1 n=a#5 v=0
224632 On ch=1 n=c#6 v=60
224686 On ch=1 n=c6 v=0
224686 On ch=1 n=c#5 v=55
224700 On ch=1 n=g#4 v=0
224776 Par ch=1 c=64 v=0
224792 On ch=1 n=d#6 v=59
224830 On ch=1 n=c#6 v=0
224872 On ch=1 n=g#4 v=55
224936 On ch=1 n=f6 v=56
224948 On ch=1 n=c#5 v=0
224990 On ch=1 n=d#6 v=0
225062 On ch=1 n=g4 v=55
225064 On ch=1 n=g6 v=56
225134 On ch=1 n=f6 v=0
225134 On ch=1 n=g#4 v=0
225240 On ch=1 n=g#6 v=54
225260 On ch=1 n=c#5 v=55
225262 On ch=1 n=g6 v=0
225324 On ch=1 n=g4 v=0
225368 On ch=1 n=a#6 v=53
225438 On ch=1 n=g#6 v=0
225470 On ch=1 n=f4 v=55
225510 On ch=1 n=c7 v=51
225522 On ch=1 n=c#5 v=0
225566 On ch=1 n=a#6 v=0
225614 On ch=1 n=d#4 v=55
225640 On ch=1 n=c#7 v=50
225708 On ch=1 n=c7 v=0
225732 On ch=1 n=f4 v=0
225736 On ch=1 n=f7 v=49
225756 Par ch=1 c=64 v=127
225838 On ch=1 n=c#7 v=0
225844 On ch=1 n=g#3 v=55
225864 On ch=1 n=d#7 v=47
225868 Par ch=1 c=64 v=0
225876 On ch=1 n=d#4 v=0
225912 Par ch=1 c=64 v=0
225934 On ch=1 n=f7 v=0
225942 Par ch=1 c=64 v=127
226056 On ch=1 n=f#4 v=66
226062 On ch=1 n=d#7 v=0
226206 On ch=1 n=g#4 v=42
226232 On ch=1 n=f#4 v=0
226356 On ch=1 n=c5 v=64
226380 On ch=1 n=g#4 v=0
226520 On ch=1 n=g#4 v=38
226586 On ch=1 n=c5 v=0
226604 Par ch=1 c=64 v=127
226680 On ch=1 n=f#4 v=46
226696 On ch=1 n=g#4 v=0
226856 On ch=1 n=f5 v=62
226858 On ch=1 n=c#5 v=72
226872 On ch=1 n=f#4 v=0
226882 Par ch=1 c=64 v=0
226950 Par ch=1 c=64 v=127
227024 On ch=1 n=g#4 v=55
227060 On ch=1 n=c#5 v=0
227108 Par ch=1 c=64 v=0
227186 On ch=1 n=f#4 v=53
227208 Par ch=1 c=64 v=127
227214 On ch=1 n=g#4 v=0
227364 On ch=1 n=d#5 v=70
227368 On ch=1 n=c5 v=59
227380 On ch=1 n=f#4 v=0
227412 Par ch=1 c=64 v=0
227424 On ch=1 n=f5 v=0
227524 Par ch=1 c=64 v=127
227544 On ch=1 n=g#4 v=34
227644 On ch=1 n=c5 v=0
227704 On ch=1 n=f#4 v=42
227740 On ch=1 n=g#4 v=0
227868 On ch=1 n=c5 v=54
227880 On ch=1 n=f#4 v=0
227928 Par ch=1 c=64 v=0
228010 On ch=1 n=g#4 v=62
228014 Par ch=1 c=64 v=127
228074 On ch=1 n=c5 v=0
228120 On ch=1 n=d#5 v=0
228130 On ch=1 n=f5 v=67
228202 On ch=1 n=f#4 v=45
228224 On ch=1 n=g#4 v=0
228372 On ch=1 n=f#4 v=0
228388 On ch=1 n=c#5 v=69
228388 On ch=1 n=a#4 v=70
228408 On ch=1 n=f5 v=0
228418 Par ch=1 c=64 v=0
228482 On ch=1 n=g#3 v=0
228502 Par ch=1 c=64 v=127
228560 On ch=1 n=f#4 v=52
228588 On ch=1 n=a#4 v=0
228620 Par ch=1 c=64 v=0
228664 On ch=1 n=d#4 v=34
228712 On ch=1 n=a#5 v=67
228714 On ch=1 n=f#4 v=0
228724 Par ch=1 c=64 v=127
228894 On ch=1 n=d#4 v=0
228964 Par ch=1 c=64 v=127
228968 On ch=1 n=d#5 v=57
228968 On ch=1 n=g#3 v=34
228980 Par ch=1 c=64 v=0
229080 Par ch=1 c=64 v=127
229096 On ch=1 n=d#4 v=45
229198 On ch=1 n=g#3 v=0
229240 On ch=1 n=f5 v=63
229284 On ch=1 n=a#5 v=0
229338 Par ch=1 c=64 v=0
229358 On ch=1 n=d#4 v=0
229384 On ch=1 n=f#4 v=45
229398 On ch=1 n=d#5 v=0
229456 Par ch=1 c=64 v=127
229552 On ch=1 n=g#5 v=63
229560 On ch=1 n=f5 v=0
229560 On ch=1 n=c#5 v=0
229560 On ch=1 n=c#5 v=69
229560 On ch=1 n=a#4 v=57
229646 On ch=1 n=f#4 v=0
229720 On ch=1 n=f#5 v=58
229720 On ch=1 n=d#4 v=51
229788 On ch=1 n=g#5 v=0
229796 On ch=1 n=a#4 v=0
229876 Par ch=1 c=64 v=0
229896 On ch=1 n=f4 v=52
229904 On ch=1 n=f5 v=67
229948 On ch=1 n=f#5 v=0
229956 On ch=1 n=d#4 v=0
229998 Par ch=1 c=64 v=127
230032 On ch=1 n=f#4 v=47
230048 On ch=1 n=d#5 v=67
230048 On ch=1 n=c5 v=63
230056 Par ch=1 c=64 v=0
230060 On ch=1 n=c#5 v=0
230130 On ch=1 n=f4 v=0
230138 On ch=1 n=f5 v=0
230170 Par ch=1 c=64 v=127
230248 On ch=1 n=g#3 v=61
230294 On ch=1 n=f#4 v=0
230440 On ch=1 n=g#4 v=48
230468 On ch=1 n=d#5 v=0
230508 On ch=1 n=c5 v=0
230520 On ch=1 n=g#3 v=0
230528 On ch=1 n=f5 v=59
230700 On ch=1 n=f4 v=66
230710 On ch=1 n=g#4 v=0
230710 On ch=1 n=d5 v=67
230718 On ch=1 n=b4 v=57
230728 Par ch=1 c=64 v=0
230828 On ch=1 n=f5 v=0
230856 Par ch=1 c=64 v=127
230916 On ch=1 n=g#3 v=55
230936 On ch=1 n=f4 v=0
230956 Par ch=1 c=64 v=0
231012 On ch=1 n=b4 v=0
231054 Par ch=1 c=64 v=127
231114 On ch=1 n=f4 v=62
231142 On ch=1 n=g#3 v=0
231316 On ch=1 n=b4 v=62
231322 On ch=1 n=f4 v=0
231498 On ch=1 n=f4 v=59
231568 On ch=1 n=b4 v=0
231604 Par ch=1 c=64 v=0
231672 On ch=1 n=g#3 v=55
231702 Par ch=1 c=64 v=127
231732 On ch=1 n=f4 v=0
231920 On ch=1 n=d5 v=0
231936 On ch=1 n=d6 v=66
231952 On ch=1 n=a#4 v=73
231952 On ch=1 n=a#3 v=24
231952 Par ch=1 c=64 v=0
232000 On ch=1 n=g#3 v=0
232072 Par ch=1 c=64 v=127
232164 On ch=1 n=f4 v=62
232254 On ch=1 n=a#3 v=0
232254 On ch=1 n=a#4 v=0
232310 On ch=1 n=d6 v=0
232406 On ch=1 n=d4 v=29
232416 On ch=1 n=f4 v=0
232488 On ch=1 n=d6 v=68
232564 On ch=1 n=d6 v=0
232588 Par ch=1 c=64 v=0
232608 On ch=1 n=g#4 v=54
232608 On ch=1 n=b3 v=43
232612 On ch=1 n=d6 v=72
232642 On ch=1 n=d4 v=0
232708 Par ch=1 c=64 v=0
232736 Par ch=1 c=64 v=127
232808 Par ch=1 c=64 v=127
232922 On ch=1 n=d6 v=0
232928 On ch=1 n=b5 v=53
232960 On ch=1 n=f4 v=47
233044 On ch=1 n=g#5 v=62
233092 On ch=1 n=b5 v=0
233122 On ch=1 n=g#4 v=0
233132 On ch=1 n=f5 v=62
233182 On ch=1 n=g#5 v=0
233212 Par ch=1 c=64 v=0
233220 On ch=1 n=d5 v=61
233228 On ch=1 n=f4 v=0
233248 On ch=1 n=d4 v=47
233268 On ch=1 n=f5 v=0
233282 On ch=1 n=d#5 v=72
233320 On ch=1 n=d5 v=0
233324 Par ch=1 c=64 v=127
233352 On ch=1 n=f5 v=73
233372 On ch=1 n=d#5 v=0
233422 On ch=1 n=d#5 v=61
233424 On ch=1 n=g#4 v=64
233448 Par ch=1 c=64 v=0
233484 On ch=1 n=f5 v=0
233502 On ch=1 n=d4 v=0
233584 Par ch=1 c=64 v=127
233618 Par ch=1 c=64 v=0
233712 On ch=1 n=f4 v=47
233840 On ch=1 n=d5 v=73
233862 On ch=1 n=b3 v=0
233872 On ch=1 n=d#5 v=0
233914 On ch=1 n=g#4 v=0
233942 On ch=1 n=d4 v=47
233960 On ch=1 n=f4 v=0
234140 On ch=1 n=d4 v=0
234152 On ch=1 n=a#4 v=73
234152 On ch=1 n=a#3 v=45
234164 Par ch=1 c=64 v=0
234208 Par ch=1 c=64 v=127
234278 Par ch=1 c=64 v=127
234344 On ch=1 n=f4 v=47
234544 On ch=1 n=d4 v=47
234580 On ch=1 n=f4 v=0
234594 Par ch=1 c=64 v=0
234630 On ch=1 n=a#3 v=0
234642 On ch=1 n=a#4 v=0
234738 Par ch=1 c=64 v=127
234784 On ch=1 n=g#4 v=67
234796 On ch=1 n=b3 v=45
234808 On ch=1 n=d4 v=0
234838 Par ch=1 c=64 v=0
234968 Par ch=1 c=64 v=127
235024 On ch=1 n=f4 v=47
235154 On ch=1 n=b3 v=0
235166 Par ch=1 c=64 v=0
235212 On ch=1 n=d4 v=47
235240 On ch=1 n=f4 v=0
235274 On ch=1 n=g#4 v=0
235296 Par ch=1 c=64 v=127
235418 Par ch=1 c=64 v=0
235464 On ch=1 n=g#4 v=69
235500 On ch=1 n=d4 v=0
235524 Par ch=1 c=64 v=127
235674 On ch=1 n=f4 v=47
235698 Par ch=1 c=64 v=0
235810 On ch=1 n=c#5 v=66
235824 Par ch=1 c=64 v=127
235854 On ch=1 n=d5 v=0
235952 On ch=1 n=a#4 v=72
235954 On ch=1 n=g#4 v=0
235958 On ch=1 n=f4 v=0
235960 On ch=1 n=c#4 v=47
236232 On ch=1 n=f#4 v=69
236240 Par ch=1 c=64 v=0
236290 On ch=1 n=c#4 v=0
236368 Par ch=1 c=64 v=127
236430 On ch=1 n=a#4 v=0
236464 On ch=1 n=a#3 v=72
236504 Par ch=1 c=64 v=0
236592 On ch=1 n=f#5 v=52
236624 On ch=1 n=c#5 v=0
236664 Par ch=1 c=64 v=127
236760 On ch=1 n=a#3 v=0
236824 On ch=1 n=d#5 v=75
236990 On ch=1 n=f#5 v=0
237046 On ch=1 n=f#4 v=0
237120 On ch=1 n=f#5 v=52
237124 On ch=1 n=g#3 v=35
237128 On ch=1 n=d#4 v=52
237188 Par ch=1 c=64 v=0
237188 Par ch=1 c=64 v=0
237200 On ch=1 n=b5 v=54
237284 Par ch=1 c=64 v=127
237300 Par ch=1 c=64 v=127
237456 On ch=1 n=g#3 v=0
237460 On ch=1 n=d#4 v=0
237480 On ch=1 n=d#5 v=0
237522 On ch=1 n=g#4 v=62
237612 Par ch=1 c=64 v=0
237720 On ch=1 n=b5 v=0
237720 On ch=1 n=f#5 v=0
237736 On ch=1 n=a#4 v=62
237784 On ch=1 n=g#4 v=0
237848 Par ch=1 c=64 v=127
237980 On ch=1 n=c#5 v=62
237990 On ch=1 n=a#4 v=0
238182 On ch=1 n=b4 v=62
238252 On ch=1 n=c#5 v=0
238352 Par ch=1 c=64 v=0
238372 On ch=1 n=a#4 v=62
238408 On ch=1 n=b4 v=0
238512 Par ch=1 c=64 v=127
238606 On ch=1 n=f5 v=66
238612 On ch=1 n=b5 v=66
238634 On ch=1 n=a#4 v=0
238660 On ch=1 n=g#4 v=62
238688 Par ch=1 c=64 v=0
238772 Par ch=1 c=64 v=127
238896 On ch=1 n=c#4 v=38
238990 Par ch=1 c=64 v=0
239044 On ch=1 n=g#4 v=0
239080 On ch=1 n=c#5 v=50
239096 Par ch=1 c=64 v=127
239114 On ch=1 n=c#4 v=0
239204 On ch=1 n=b5 v=0
239232 On ch=1 n=a#5 v=62
239278 On ch=1 n=f5 v=0
239342 On ch=1 n=c#5 v=0
239366 On ch=1 n=a#5 v=0
239368 On ch=1 n=g#5 v=68
239376 On ch=1 n=a#4 v=56
239380 On ch=1 n=e5 v=67
239452 Par ch=1 c=64 v=0
239578 Par ch=1 c=64 v=127
239792 Par ch=1 c=64 v=0
239854 On ch=1 n=a#4 v=0
239880 Par ch=1 c=64 v=127
239952 On ch=1 n=b4 v=62
240058 On ch=1 n=e5 v=0
240072 On ch=1 n=d#5 v=62
240084 On ch=1 n=g5 v=69
240086 On ch=1 n=b4 v=0
240088 Par ch=1 c=64 v=0
240116 On ch=1 n=g#5 v=0
240190 Par ch=1 c=64 v=127
240296 On ch=1 n=c#5 v=62
240340 On ch=1 n=d#5 v=0
240492 On ch=1 n=b4 v=62
240558 On ch=1 n=c#5 v=0
240600 On ch=1 n=d#6 v=67
240680 On ch=1 n=g5 v=0
240702 On ch=1 n=d#6 v=0
240762 On ch=1 n=d#6 v=67
240766 On ch=1 n=g5 v=55
240772 On ch=1 n=a#4 v=62
240808 Par ch=1 c=64 v=0
240826 On ch=1 n=b4 v=0
240908 Par ch=1 c=64 v=127
241004 On ch=1 n=c#6 v=67
241016 On ch=1 n=d#6 v=0
241028 On ch=1 n=d#4 v=73
241034 On ch=1 n=a#4 v=0
241080 On ch=1 n=g5 v=0
241184 On ch=1 n=d#5 v=75
241192 On ch=1 n=b5 v=68
241192 On ch=1 n=f#5 v=63
241222 On ch=1 n=c#6 v=0
241290 On ch=1 n=d#4 v=0
241424 On ch=1 n=d#5 v=0
241432 On ch=1 n=f#5 v=0
241448 On ch=1 n=a#5 v=68
241448 On ch=1 n=f#5 v=57
241448 On ch=1 n=d#5 v=72
241454 On ch=1 n=b5 v=0
241522 Par ch=1 c=64 v=0
241608 Par ch=1 c=64 v=127
241680 On ch=1 n=e5 v=73
241680 On ch=1 n=c#5 v=39
241710 On ch=1 n=d#5 v=0
241710 On ch=1 n=f#5 v=0
241928 On ch=1 n=d#5 v=67
241928 On ch=1 n=b4 v=49
241942 On ch=1 n=c#5 v=0
241942 On ch=1 n=e5 v=0
241958 On ch=1 n=a#5 v=0
242024 On ch=1 n=b5 v=66
242032 On ch=1 n=d#6 v=67
242146 On ch=1 n=b5 v=0
242154 On ch=1 n=d#6 v=0
242160 On ch=1 n=d#6 v=72
242160 On ch=1 n=c#5 v=76
242168 On ch=1 n=g5 v=63
242168 On ch=1 n=a#4 v=64
242190 On ch=1 n=b4 v=0
242190 On ch=1 n=d#5 v=0
242316 Par ch=1 c=64 v=0
242400 On ch=1 n=c#6 v=66
242400 Par ch=1 c=64 v=127
242408 On ch=1 n=d#4 v=68
242422 On ch=1 n=d#6 v=0
242430 On ch=1 n=a#4 v=0
242448 On ch=1 n=c#5 v=0
242624 On ch=1 n=g5 v=0
242624 On ch=1 n=d#5 v=75
242640 On ch=1 n=b5 v=64
242640 On ch=1 n=g#5 v=67
242648 On ch=1 n=b4 v=72
242648 On ch=1 n=g#4 v=62
242662 On ch=1 n=c#6 v=0
242832 On ch=1 n=d#4 v=0
242864 On ch=1 n=d#5 v=0
242880 On ch=1 n=d#5 v=75
242880 On ch=1 n=d#4 v=73
242888 On ch=1 n=a#5 v=66
242888 On ch=1 n=g5 v=63
242888 On ch=1 n=a#4 v=73
242896 On ch=1 n=g#5 v=0
242896 On ch=1 n=b5 v=0
242910 On ch=1 n=g#4 v=0
242910 On ch=1 n=b4 v=0
243120 On ch=1 n=c#4 v=77
243128 On ch=1 n=c#5 v=70
243142 On ch=1 n=d#4 v=0
243142 On ch=1 n=d#5 v=0
243368 On ch=1 n=a#4 v=0
243368 On ch=1 n=g5 v=0
243368 On ch=1 n=a#5 v=0
243382 On ch=1 n=c#4 v=0
243390 On ch=1 n=c#5 v=0
243408 On ch=1 n=b3 v=57
243422 On ch=1 n=b4 v=64
243480 On ch=1 n=d#6 v=67
243488 On ch=1 n=g#5 v=66
243488 On ch=1 n=d#5 v=66
243600 On ch=1 n=d#6 v=0
243600 On ch=1 n=e5 v=73
243600 On ch=1 n=a#3 v=77
243608 On ch=1 n=g5 v=63
243608 On ch=1 n=a#4 v=80
243616 On ch=1 n=d#6 v=70
243620 On ch=1 n=d#5 v=0
243620 On ch=1 n=g#5 v=0
243626 Par ch=1 c=64 v=0
243670 On ch=1 n=b3 v=0
243684 On ch=1 n=b4 v=0
243686 Par ch=1 c=64 v=127
243824 On ch=1 n=c#6 v=64
243840 On ch=1 n=d#6 v=0
243840 On ch=1 n=a#4 v=0
243840 On ch=1 n=g5 v=0
243840 On ch=1 n=a#3 v=0
243840 On ch=1 n=e5 v=0
244086 On ch=1 n=c#6 v=0
244088 On ch=1 n=b5 v=66
244088 On ch=1 n=g#5 v=68
244088 On ch=1 n=e5 v=67
244088 On ch=1 n=g#3 v=78
244104 On ch=1 n=g#4 v=72
244310 On ch=1 n=g#3 v=0
244310 On ch=1 n=e5 v=0
244310 On ch=1 n=g#5 v=0
244310 On ch=1 n=b5 v=0
244320 On ch=1 n=a#5 v=69
244326 On ch=1 n=g#4 v=0
244328 On ch=1 n=c#6 v=70
244328 On ch=1 n=e5 v=52
244328 On ch=1 n=g4 v=76
244328 On ch=1 n=g3 v=76
244386 Par ch=1 c=64 v=0
244446 Par ch=1 c=64 v=127
244560 On ch=1 n=b5 v=71
244560 On ch=1 n=g#4 v=77
244568 On ch=1 n=d#5 v=77
244568 On ch=1 n=g#3 v=68
244582 On ch=1 n=a#5 v=0
244590 On ch=1 n=g3 v=0
244590 On ch=1 n=g4 v=0
244590 On ch=1 n=e5 v=0
244590 On ch=1 n=c#6 v=0
244822 On ch=1 n=g#4 v=0
244822 On ch=1 n=b5 v=0
244830 On ch=1 n=g#3 v=0
244830 On ch=1 n=d#5 v=0
244848 On ch=1 n=g5 v=61
244848 On ch=1 n=a#4 v=80
244848 On ch=1 n=d#4 v=77
244856 On ch=1 n=a#5 v=72
244856 On ch=1 n=d#3 v=77
245052 Par ch=1 c=64 v=0
245110 On ch=1 n=d#4 v=0
245110 On ch=1 n=a#4 v=0
245110 On ch=1 n=g5 v=0
245118 On ch=1 n=d#3 v=0
245118 On ch=1 n=a#5 v=0
245120 Par ch=1 c=64 v=0
245126 Par ch=1 c=64 v=127
245152 On ch=1 n=b4 v=75
245160 On ch=1 n=g#5 v=64
245160 On ch=1 n=d4 v=68
245160 On ch=1 n=d3 v=68
245168 On ch=1 n=b5 v=73
245190 Par ch=1 c=64 v=127
245244 Par ch=1 c=64 v=0
245334 Par ch=1 c=64 v=127
245414 On ch=1 n=b4 v=0
245422 On ch=1 n=d3 v=0
245422 On ch=1 n=d4 v=0
245422 On ch=1 n=g#5 v=0
245430 On ch=1 n=b5 v=0
245464 On ch=1 n=a#5 v=78
245464 On ch=1 n=g5 v=79
245464 On ch=1 n=a#4 v=77
245464 On ch=1 n=d#4 v=81
245464 On ch=1 n=d#3 v=63
245726 On ch=1 n=d#3 v=0
245726 On ch=1 n=d#4 v=0
245726 On ch=1 n=a#4 v=0
245726 On ch=1 n=g5 v=0
245726 On ch=1 n=a#5 v=0
245824 On ch=1 n=b5 v=77
245824 On ch=1 n=g#5 v=81
245824 On ch=1 n=d4 v=64
245824 On ch=1 n=d3 v=71
245826 Par ch=1 c=64 v=0
245832 On ch=1 n=b4 v=76
246152 On ch=1 n=d3 v=0
246152 On ch=1 n=d4 v=0
246152 On ch=1 n=g#5 v=0
246152 On ch=1 n=b5 v=0
246160 On ch=1 n=b4 v=0
246248 On ch=1 n=a#5 v=81
246256 On ch=1 n=d#3 v=68
246284 Par ch=1 c=64 v=127
246416 On ch=1 n=d4 v=58
246536 On ch=1 n=d#5 v=55
246536 On ch=1 n=c#5 v=55
246614 On ch=1 n=d4 v=0
246672 On ch=1 n=d#4 v=58
246832 On ch=1 n=f#4 v=58
246832 Par ch=1 c=64 v=63
246846 On ch=1 n=d#3 v=0
246868 On ch=1 n=d#4 v=0
246868 On ch=1 n=c#5 v=0
246868 On ch=1 n=d#5 v=0
246908 Par ch=1 c=64 v=127
247024 On ch=1 n=e4 v=58
247036 On ch=1 n=f#4 v=0
247120 On ch=1 n=d#5 v=55
247120 On ch=1 n=c#5 v=55
247184 On ch=1 n=d#4 v=58
247248 On ch=1 n=e4 v=0
247408 On ch=1 n=d#4 v=0
247448 On ch=1 n=b5 v=62
247448 On ch=1 n=g#3 v=68
247452 On ch=1 n=c#5 v=0
247452 On ch=1 n=d#5 v=0
247472 Par ch=1 c=64 v=0
247488 On ch=1 n=a#5 v=0
247568 Par ch=1 c=64 v=127
247632 On ch=1 n=g#4 v=58
247736 On ch=1 n=d#5 v=55
247736 On ch=1 n=b4 v=58
247754 Par ch=1 c=64 v=0
247808 On ch=1 n=d#4 v=58
247870 Par ch=1 c=64 v=127
247894 On ch=1 n=g#4 v=0
247958 On ch=1 n=b5 v=0
248038 On ch=1 n=d#4 v=0
248038 On ch=1 n=g#3 v=0
248040 On ch=1 n=a#5 v=62
248048 On ch=1 n=c#3 v=46
248068 On ch=1 n=b4 v=0
248068 On ch=1 n=d#5 v=0
248092 Par ch=1 c=64 v=0
248184 Par ch=1 c=64 v=127
248240 On ch=1 n=g#4 v=58
248328 On ch=1 n=e5 v=55
248336 On ch=1 n=a#4 v=55
248464 On ch=1 n=c#4 v=58
248502 On ch=1 n=g#4 v=0
248606 Par ch=1 c=64 v=127
248638 On ch=1 n=c#3 v=0
248640 On ch=1 n=d#3 v=46
248660 On ch=1 n=e5 v=0
248668 On ch=1 n=a#4 v=0
248726 On ch=1 n=c#4 v=0
248730 Par ch=1 c=64 v=0
248786 Par ch=1 c=64 v=127
248824 On ch=1 n=g4 v=58
248828 Par ch=1 c=64 v=0
248936 On ch=1 n=b5 v=65
248936 On ch=1 n=c#5 v=50
248944 On ch=1 n=d#5 v=50
248954 On ch=1 n=a#5 v=0
249040 On ch=1 n=d#4 v=58
249048 Par ch=1 c=64 v=0
249086 On ch=1 n=g4 v=0
249176 Par ch=1 c=64 v=127
249230 On ch=1 n=d#3 v=0
249240 On ch=1 n=g#3 v=49
249242 On ch=1 n=b5 v=0
249248 On ch=1 n=g#5 v=65
249266 On ch=1 n=c#5 v=0
249268 On ch=1 n=d#4 v=0
249274 On ch=1 n=d#5 v=0
249328 Par ch=1 c=64 v=0
249408 On ch=1 n=g#4 v=58
249410 Par ch=1 c=64 v=127
249536 On ch=1 n=d#5 v=50
249536 On ch=1 n=b4 v=50
249632 Par ch=1 c=64 v=0
249670 On ch=1 n=g#4 v=0
249680 On ch=1 n=c#4 v=58
249708 Par ch=1 c=64 v=127
249712 On ch=1 n=e6 v=64
249806 Par ch=1 c=64 v=127
249830 On ch=1 n=g#3 v=0
249840 On ch=1 n=a#5 v=65
249840 On ch=1 n=c#3 v=49
249868 On ch=1 n=b4 v=0
249868 On ch=1 n=d#5 v=0
249896 On ch=1 n=e6 v=0
249906 On ch=1 n=g#5 v=0
249942 On ch=1 n=c#4 v=0
250000 On ch=1 n=c#5 v=58
250028 Par ch=1 c=64 v=0
250046 Par ch=1 c=64 v=0
250136 On ch=1 n=g#5 v=67
250136 On ch=1 n=e5 v=50
250144 Par ch=1 c=64 v=127
250244 Par ch=1 c=64 v=0
250248 On ch=1 n=g#4 v=58
250320 On ch=1 n=a#5 v=0
250332 On ch=1 n=c#5 v=0
250336 Par ch=1 c=64 v=127
250360 On ch=1 n=b5 v=77
250440 On ch=1 n=d#6 v=77
250448 On ch=1 n=b4 v=65
250468 On ch=1 n=e5 v=0
250468 On ch=1 n=g#5 v=0
250502 On ch=1 n=b5 v=0
250510 On ch=1 n=g#4 v=0
250592 On ch=1 n=c#6 v=70
250600 On ch=1 n=a#4 v=50
250670 Par ch=1 c=64 v=0
250702 On ch=1 n=d#6 v=0
250710 On ch=1 n=b4 v=0
250728 On ch=1 n=g#5 v=65
250728 On ch=1 n=e5 v=58
250758 Par ch=1 c=64 v=127
250776 On ch=1 n=b5 v=78
250776 On ch=1 n=d#5 v=65
250862 On ch=1 n=a#4 v=0
250866 On ch=1 n=c#6 v=0
251038 On ch=1 n=d#5 v=0
251038 On ch=1 n=c#3 v=0
251040 On ch=1 n=c#5 v=58
251042 On ch=1 n=b5 v=0
251048 On ch=1 n=a#5 v=77
251060 On ch=1 n=e5 v=0
251060 On ch=1 n=g#5 v=0
251102 Par ch=1 c=64 v=0
251210 On ch=1 n=c#5 v=0
251212 Par ch=1 c=64 v=0
251218 Par ch=1 c=64 v=127
251232 On ch=1 n=d#4 v=58
251278 Par ch=1 c=64 v=127
251336 On ch=1 n=g5 v=62
251336 On ch=1 n=c#5 v=65
251454 On ch=1 n=a#5 v=0
251462 On ch=1 n=d#4 v=0
251476 Par ch=1 c=64 v=0
251496 On ch=1 n=d#3 v=58
251504 On ch=1 n=b5 v=83
251568 Par ch=1 c=64 v=127
251570 Par ch=1 c=64 v=0
251640 On ch=1 n=g#3 v=56
251642 On ch=1 n=b5 v=0
251648 On ch=1 n=g#5 v=83
251652 Par ch=1 c=64 v=127
251668 On ch=1 n=c#5 v=0
251668 On ch=1 n=g5 v=0
251758 On ch=1 n=d#3 v=0
251816 On ch=1 n=d4 v=58
251862 Par ch=1 c=64 v=0
251944 On ch=1 n=d#5 v=50
251944 On ch=1 n=b4 v=50
251988 Par ch=1 c=64 v=127
252064 On ch=1 n=d#4 v=58
252078 On ch=1 n=d4 v=0
252248 On ch=1 n=e4 v=58
252276 On ch=1 n=b4 v=0
252276 On ch=1 n=d#5 v=0
252326 On ch=1 n=d#4 v=0
252448 On ch=1 n=d#4 v=58
252498 On ch=1 n=g#3 v=0
252510 On ch=1 n=e4 v=0
252552 On ch=1 n=d#5 v=50
252552 On ch=1 n=b4 v=50
252672 On ch=1 n=g#3 v=46
252710 On ch=1 n=d#4 v=0
252784 Par ch=1 c=64 v=0
252792 On ch=1 n=d#5 v=0
252840 On ch=1 n=f4 v=58
252848 On ch=1 n=d#5 v=50
252884 On ch=1 n=b4 v=0
252900 Par ch=1 c=64 v=127
252934 On ch=1 n=g#3 v=0
253056 On ch=1 n=d#4 v=58
253078 Par ch=1 c=64 v=0
253102 On ch=1 n=f4 v=0
253106 On ch=1 n=g#5 v=0
253136 On ch=1 n=a#4 v=50
253170 Par ch=1 c=64 v=127
253200 On ch=1 n=f#3 v=46
253286 On ch=1 n=d#4 v=0
253324 Par ch=1 c=64 v=0
253354 On ch=1 n=a#4 v=0
253376 On ch=1 n=a4 v=62
253406 Par ch=1 c=64 v=127
253412 On ch=1 n=d#5 v=0
253440 On ch=1 n=f3 v=51
253448 On ch=1 n=c6 v=77
253462 On ch=1 n=f#3 v=0
253608 On ch=1 n=e4 v=58
253744 On ch=1 n=f5 v=50
253744 On ch=1 n=d#5 v=50
253812 Par ch=1 c=64 v=0
253838 On ch=1 n=e4 v=0
253872 On ch=1 n=f4 v=58
253904 Par ch=1 c=64 v=127
254020 On ch=1 n=a4 v=0
254030 On ch=1 n=f3 v=0
254048 On ch=1 n=a3 v=51
254076 On ch=1 n=d#5 v=0
254076 On ch=1 n=f5 v=0
254104 On ch=1 n=f4 v=0
254256 On ch=1 n=f#4 v=58
254344 On ch=1 n=f5 v=50
254344 On ch=1 n=d#5 v=50
254448 On ch=1 n=f#4 v=0
254468 Par ch=1 c=64 v=0
254496 On ch=1 n=f4 v=58
254572 Par ch=1 c=64 v=127
254638 On ch=1 n=a3 v=0
254662 Par ch=1 c=64 v=0
254676 On ch=1 n=d#5 v=0
254676 On ch=1 n=f5 v=0
254688 On ch=1 n=c#6 v=73
254704 On ch=1 n=a#3 v=49
254768 On ch=1 n=c6 v=0
254800 On ch=1 n=f4 v=0
254808 Par ch=1 c=64 v=127
254976 On ch=1 n=f#4 v=58
255056 On ch=1 n=f5 v=50
255056 On ch=1 n=c#5 v=50
255152 On ch=1 n=f4 v=58
255164 Par ch=1 c=64 v=0
255230 On ch=1 n=f#4 v=0
255266 Par ch=1 c=64 v=0
255294 On ch=1 n=a#3 v=0
255294 Par ch=1 c=64 v=127
255332 On ch=1 n=c#6 v=0
255360 On ch=1 n=c#5 v=0
255360 On ch=1 n=f5 v=0
255360 On ch=1 n=d#3 v=49
255368 On ch=1 n=c6 v=73
255408 On ch=1 n=f4 v=0
255408 Par ch=1 c=64 v=127
255552 On ch=1 n=a#4 v=58
255656 On ch=1 n=f#5 v=50
255656 On ch=1 n=c5 v=50
255744 On ch=1 n=d#4 v=58
255814 On ch=1 n=a#4 v=0
255830 Par ch=1 c=64 v=0
255950 On ch=1 n=d#3 v=0
255968 On ch=1 n=f3 v=49
255968 Par ch=1 c=64 v=127
255972 Par ch=1 c=64 v=0
255988 On ch=1 n=c5 v=0
255988 On ch=1 n=f#5 v=0
256006 On ch=1 n=d#4 v=0
256046 Par ch=1 c=64 v=127
256120 On ch=1 n=a4 v=58
256264 On ch=1 n=f5 v=50
256264 On ch=1 n=d#5 v=50
256336 On ch=1 n=f4 v=58
256354 Par ch=1 c=64 v=0
256382 On ch=1 n=a4 v=0
256434 Par ch=1 c=64 v=127
256456 On ch=1 n=c#6 v=73
256478 On ch=1 n=c6 v=0
256558 On ch=1 n=f3 v=0
256560 On ch=1 n=a#5 v=80
256568 On ch=1 n=a#3 v=49
256596 On ch=1 n=d#5 v=0
256596 On ch=1 n=f5 v=0
256632 On ch=1 n=f4 v=0
256642 On ch=1 n=c#6 v=0
256670 Par ch=1 c=64 v=0
256704 On ch=1 n=a#4 v=58
256778 Par ch=1 c=64 v=127
256840 On ch=1 n=f5 v=50
256840 On ch=1 n=c#5 v=50
256920 On ch=1 n=a#5 v=0
256944 On ch=1 n=d#4 v=58
256966 On ch=1 n=a#4 v=0
257016 On ch=1 n=f#6 v=77
257016 On ch=1 n=a#5 v=51
257016 On ch=1 n=f#5 v=51
257158 On ch=1 n=a#3 v=0
257160 On ch=1 n=c6 v=76
257168 On ch=1 n=d#3 v=51
257172 On ch=1 n=c#5 v=0
257172 On ch=1 n=f5 v=0
257174 On ch=1 n=d#4 v=0
257202 On ch=1 n=f#5 v=0
257202 On ch=1 n=a#5 v=0
257202 On ch=1 n=f#6 v=0
257328 On ch=1 n=d#5 v=69
257424 Par ch=1 c=64 v=0
257464 On ch=1 n=a#5 v=61
257464 On ch=1 n=f#5 v=55
257518 Par ch=1 c=64 v=127
257568 On ch=1 n=a#4 v=58
257590 On ch=1 n=d#5 v=0
257616 On ch=1 n=c#6 v=77
257628 On ch=1 n=c6 v=0
257666 Par ch=1 c=64 v=0
257760 On ch=1 n=f6 v=85
257760 On ch=1 n=c#5 v=70
257794 On ch=1 n=c#6 v=0
257796 On ch=1 n=f#5 v=0
257796 On ch=1 n=a#5 v=0
257796 Par ch=1 c=64 v=127
257830 On ch=1 n=a#4 v=0
257960 On ch=1 n=c5 v=51
257968 On ch=1 n=d#6 v=80
257982 On ch=1 n=c#5 v=0
257982 On ch=1 n=f6 v=0
258060 Par ch=1 c=64 v=0
258064 On ch=1 n=a#5 v=70
258064 On ch=1 n=f#5 v=33
258128 On ch=1 n=c#6 v=69
258128 On ch=1 n=f5 v=65
258152 Par ch=1 c=64 v=127
258182 On ch=1 n=c5 v=0
258190 On ch=1 n=d#6 v=0
258206 Par ch=1 c=64 v=0
258336 Par ch=1 c=64 v=127
258350 On ch=1 n=f5 v=0
258350 On ch=1 n=c#6 v=0
258368 On ch=1 n=c6 v=85
258368 On ch=1 n=d#5 v=70
258396 On ch=1 n=f#5 v=0
258396 On ch=1 n=a#5 v=0
258504 On ch=1 n=d#3 v=0
258528 On ch=1 n=d#4 v=58
258540 Par ch=1 c=64 v=0
258590 On ch=1 n=d#5 v=0
258604 Par ch=1 c=64 v=127
258664 On ch=1 n=a#5 v=64
258664 On ch=1 n=f#5 v=50
258672 On ch=1 n=a#4 v=58
258722 On ch=1 n=c6 v=0
258758 On ch=1 n=d#4 v=0
258764 Par ch=1 c=64 v=0
258856 Par ch=1 c=64 v=127
258872 On ch=1 n=c#6 v=83
258934 On ch=1 n=a#4 v=0
258968 On ch=1 n=c#5 v=50
258968 On ch=1 n=f6 v=85
258996 On ch=1 n=f#5 v=0
258996 On ch=1 n=a#5 v=0
259036 On ch=1 n=c#6 v=0
259152 On ch=1 n=d#6 v=73
259152 On ch=1 n=c5 v=62
259190 On ch=1 n=f6 v=0
259230 On ch=1 n=c#5 v=0
259264 On ch=1 n=a#5 v=61
259264 On ch=1 n=f#5 v=59
259328 On ch=1 n=c#6 v=74
259328 On ch=1 n=f5 v=62
259348 Par ch=1 c=64 v=0
259382 On ch=1 n=d#6 v=0
259414 On ch=1 n=c5 v=0
259468 Par ch=1 c=64 v=127
259558 On ch=1 n=c#6 v=0
259560 On ch=1 n=c6 v=74
259568 On ch=1 n=d#5 v=54
259590 On ch=1 n=f5 v=0
259596 On ch=1 n=f#5 v=0
259596 On ch=1 n=a#5 v=0
259744 On ch=1 n=d#4 v=58
259830 On ch=1 n=d#5 v=0
259856 On ch=1 n=f#5 v=67
259864 On ch=1 n=a#5 v=66
259898 Par ch=1 c=64 v=0
259936 On ch=1 n=a#4 v=58
259974 On ch=1 n=d#4 v=0
260000 Par ch=1 c=64 v=127
260040 On ch=1 n=c6 v=0
260072 On ch=1 n=c6 v=85
260168 On ch=1 n=a#4 v=0
260168 On ch=1 n=c#6 v=82
260168 On ch=1 n=e5 v=66
260196 On ch=1 n=a#5 v=0
260198 On ch=1 n=f#5 v=0
260214 On ch=1 n=c6 v=0
260400 On ch=1 n=e4 v=69
260430 On ch=1 n=e5 v=0
260444 Par ch=1 c=64 v=0
260520 On ch=1 n=g5 v=83
260524 Par ch=1 c=64 v=127
260528 On ch=1 n=a#5 v=83
260604 Par ch=1 c=64 v=0
260662 On ch=1 n=e4 v=0
260696 Par ch=1 c=64 v=127
260738 On ch=1 n=c#6 v=0
260768 On ch=1 n=a#4 v=69
260852 On ch=1 n=g5 v=0
260860 On ch=1 n=a#5 v=0
260880 On ch=1 n=c#6 v=85
261034 On ch=1 n=a#4 v=0
261112 Par ch=1 c=64 v=0
261128 On ch=1 n=d6 v=66
261136 On ch=1 n=f4 v=53
261164 On ch=1 n=c#6 v=0
261220 Par ch=1 c=64 v=0
261350 Par ch=1 c=64 v=127
261448 On ch=1 n=f5 v=45
261454 On ch=1 n=a#4 v=43
261556 On ch=1 n=f5 v=0
261572 On ch=1 n=a#4 v=0
261660 On ch=1 n=f4 v=0
261722 Par ch=1 c=64 v=0
261728 On ch=1 n=a#4 v=45
261732 On ch=1 n=f5 v=47
261792 Par ch=1 c=64 v=127
261844 On ch=1 n=f5 v=0
261858 On ch=1 n=a#4 v=0
261974 On ch=1 n=a#4 v=44
261982 On ch=1 n=f5 v=47
262096 On ch=1 n=f5 v=0
262138 On ch=1 n=a#4 v=0
262246 On ch=1 n=a#4 v=2
262252 On ch=1 n=d6 v=0
262266 On ch=1 n=f5 v=45
262272 On ch=1 n=d#6 v=56
262378 On ch=1 n=f5 v=0
262412 On ch=1 n=a#4 v=0
262554 On ch=1 n=g#4 v=23
262564 On ch=1 n=d5 v=34
262598 On ch=1 n=a#5 v=48
262612 On ch=1 n=d#6 v=0
262728 On ch=1 n=d5 v=0
262852 On ch=1 n=f4 v=50
262890 On ch=1 n=a#5 v=0
262892 On ch=1 n=g#4 v=0
262952 On ch=1 n=b5 v=56
262982 Par ch=1 c=64 v=0
263082 Par ch=1 c=64 v=127
263128 On ch=1 n=d6 v=48
263170 On ch=1 n=b5 v=0
263180 On ch=1 n=a4 v=40
263194 On ch=1 n=d#5 v=28
263220 On ch=1 n=d6 v=0
263234 On ch=1 n=b5 v=57
263312 On ch=1 n=d6 v=52
263352 On ch=1 n=d#5 v=0
263352 On ch=1 n=a4 v=0
263360 On ch=1 n=b5 v=0
263424 On ch=1 n=c6 v=56
263432 On ch=1 n=d#5 v=52
263444 On ch=1 n=a4 v=52
263456 On ch=1 n=d6 v=0
263548 On ch=1 n=a4 v=0
263552 On ch=1 n=d#5 v=0
263644 On ch=1 n=d#5 v=47
263652 On ch=1 n=a4 v=50
263662 On ch=1 n=f4 v=0
263834 On ch=1 n=a4 v=0
263864 On ch=1 n=e4 v=53
263978 On ch=1 n=e4 v=0
263984 On ch=1 n=d#5 v=0
264138 On ch=1 n=d#4 v=57
264302 On ch=1 n=f5 v=47
264340 On ch=1 n=c6 v=0
264358 On ch=1 n=d#4 v=0
264480 Par ch=1 c=64 v=0
264490 On ch=1 n=f6 v=56
264490 On ch=1 n=d4 v=52
264534 On ch=1 n=f5 v=0
264586 Par ch=1 c=64 v=127
264756 On ch=1 n=a#4 v=45
264768 On ch=1 n=f5 v=33
264854 On ch=1 n=f5 v=0
264858 On ch=1 n=a#4 v=0
264958 On ch=1 n=f5 v=45
264970 On ch=1 n=a#4 v=43
265050 On ch=1 n=a#4 v=0
265056 On ch=1 n=f5 v=0
265160 On ch=1 n=f5 v=44
265160 On ch=1 n=a#4 v=39
265262 On ch=1 n=a#4 v=0
265262 On ch=1 n=f5 v=0
265352 On ch=1 n=d#6 v=53
265360 On ch=1 n=f6 v=0
265376 On ch=1 n=f5 v=45
265390 On ch=1 n=a#4 v=41
265488 On ch=1 n=a#4 v=0
265488 On ch=1 n=f5 v=0
265532 On ch=1 n=d4 v=0
265650 On ch=1 n=f5 v=35
265664 On ch=1 n=a#4 v=47
265880 On ch=1 n=f5 v=0
265890 On ch=1 n=d6 v=56
265944 On ch=1 n=d#6 v=0
266032 On ch=1 n=d6 v=0
266070 On ch=1 n=d#4 v=50
266104 On ch=1 n=a#4 v=0
266148 On ch=1 n=d6 v=56
266194 Par ch=1 c=64 v=0
266292 Par ch=1 c=64 v=127
266392 On ch=1 n=d#6 v=48
266434 On ch=1 n=d6 v=0
266522 On ch=1 n=f#5 v=47
266532 On ch=1 n=b5 v=52
266536 On ch=1 n=a4 v=48
266588 On ch=1 n=d#6 v=0
266622 On ch=1 n=d6 v=53
266634 On ch=1 n=a4 v=0
266646 On ch=1 n=f#5 v=0
266672 On ch=1 n=b5 v=0
266722 On ch=1 n=f#5 v=52
266734 On ch=1 n=c6 v=57
266748 On ch=1 n=a4 v=45
266760 On ch=1 n=d6 v=0
266824 On ch=1 n=a4 v=0
266848 On ch=1 n=f#5 v=0
266950 On ch=1 n=f#5 v=52
266964 On ch=1 n=a4 v=52
266998 On ch=1 n=d#4 v=0
267076 On ch=1 n=a4 v=0
267076 On ch=1 n=f#5 v=0
267188 On ch=1 n=f#5 v=52
267212 On ch=1 n=a4 v=48
267452 On ch=1 n=f#5 v=0
267476 On ch=1 n=a4 v=0
267490 Par ch=1 c=64 v=0
267504 On ch=1 n=f#6 v=56
267504 On ch=1 n=d#3 v=52
267528 Par ch=1 c=64 v=127
267678 On ch=1 n=c6 v=0
267974 Par ch=1 c=64 v=0
267994 On ch=1 n=f6 v=59
267994 On ch=1 n=d3 v=52
268052 Par ch=1 c=64 v=127
268074 On ch=1 n=d#3 v=0
268074 On ch=1 n=f#6 v=0
268320 On ch=1 n=d4 v=25
268328 On ch=1 n=d5 v=27
268328 On ch=1 n=a#4 v=38
268536 On ch=1 n=e6 v=52
268560 On ch=1 n=d3 v=0
268560 On ch=1 n=f6 v=0
268718 Par ch=1 c=64 v=0
268736 On ch=1 n=g3 v=53
268746 On ch=1 n=d4 v=0
268748 On ch=1 n=d#6 v=56
268756 On ch=1 n=a#4 v=0
268756 On ch=1 n=d5 v=0
268784 On ch=1 n=e6 v=0
268814 Par ch=1 c=64 v=127
268920 On ch=1 n=d6 v=56
268986 On ch=1 n=d#6 v=0
269088 On ch=1 n=a#4 v=45
269088 On ch=1 n=e4 v=41
269092 On ch=1 n=d6 v=0
269096 On ch=1 n=c6 v=52
269096 On ch=1 n=d5 v=44
269224 On ch=1 n=a#5 v=59
269284 On ch=1 n=g3 v=0
269286 On ch=1 n=c6 v=0
269384 On ch=1 n=a5 v=52
269392 On ch=1 n=c3 v=55
269408 On ch=1 n=a#5 v=0
269438 Par ch=1 c=64 v=127
269440 On ch=1 n=e4 v=0
269440 On ch=1 n=a#4 v=0
269456 On ch=1 n=d5 v=0
269560 On ch=1 n=a#5 v=61
269612 On ch=1 n=a5 v=0
269668 Par ch=1 c=64 v=0
269712 On ch=1 n=c6 v=54
269712 On ch=1 n=a#4 v=48
269712 On ch=1 n=e4 v=47
269720 On ch=1 n=c5 v=45
269736 Par ch=1 c=64 v=0
269760 Par ch=1 c=64 v=127
269768 On ch=1 n=a#5 v=0
269832 Par ch=1 c=64 v=127
269852 On ch=1 n=d6 v=52
269920 On ch=1 n=c6 v=0
270064 On ch=1 n=c3 v=0
270104 On ch=1 n=f3 v=51
270122 On ch=1 n=f5 v=56
270134 On ch=1 n=d6 v=0
270140 On ch=1 n=e4 v=0
270140 On ch=1 n=a#4 v=0
270148 On ch=1 n=c5 v=0
270148 Par ch=1 c=64 v=0
270274 Par ch=1 c=64 v=127
270464 On ch=1 n=a#4 v=42
270496 On ch=1 n=c4 v=35
270728 On ch=1 n=a#4 v=0
270756 On ch=1 n=a#4 v=48
270760 On ch=1 n=c4 v=0
270776 On ch=1 n=c4 v=43
270806 On ch=1 n=f5 v=0
271020 On ch=1 n=a#4 v=0
271040 On ch=1 n=c4 v=0
271052 On ch=1 n=a#4 v=48
271056 On ch=1 n=c5 v=56
271064 On ch=1 n=c4 v=47
271128 On ch=1 n=f3 v=0
271192 On ch=1 n=d5 v=56
271240 On ch=1 n=c5 v=0
271316 On ch=1 n=a#4 v=0
271354 On ch=1 n=d#5 v=61
271366 Par ch=1 c=64 v=0
271374 On ch=1 n=c4 v=0
271374 On ch=1 n=f3 v=62
271422 On ch=1 n=d5 v=0
271486 Par ch=1 c=64 v=127
271504 On ch=1 n=d#5 v=0
271508 On ch=1 n=e5 v=62
271672 On ch=1 n=f5 v=52
271672 On ch=1 n=a4 v=40
271672 On ch=1 n=c4 v=48
271688 On ch=1 n=f3 v=0
271696 On ch=1 n=e5 v=0
271822 On ch=1 n=d#5 v=59
271858 On ch=1 n=f5 v=0
272016 On ch=1 n=f#3 v=45
272024 On ch=1 n=d5 v=61
272038 On ch=1 n=d#5 v=0
272052 Par ch=1 c=64 v=0
272058 Par ch=1 c=64 v=0
272072 On ch=1 n=c4 v=0
272072 On ch=1 n=a4 v=0
272120 Par ch=1 c=64 v=127
272416 Par ch=1 c=64 v=127
272430 On ch=1 n=a4 v=32
272438 On ch=1 n=d4 v=32
272480 On ch=1 n=f#3 v=0
272778 On ch=1 n=g3 v=62
272792 Par ch=1 c=64 v=0
272818 On ch=1 n=d4 v=0
272818 On ch=1 n=a4 v=0
272908 Par ch=1 c=64 v=127
273118 Par ch=1 c=64 v=0
273146 On ch=1 n=a#4 v=48
273170 On ch=1 n=g4 v=28
273170 On ch=1 n=d4 v=46
273206 On ch=1 n=g3 v=0
273216 Par ch=1 c=64 v=127
273524 Par ch=1 c=64 v=0
273540 On ch=1 n=d3 v=53
273612 Par ch=1 c=64 v=127
273802 On ch=1 n=a#4 v=0
273826 On ch=1 n=d4 v=0
273826 On ch=1 n=g4 v=0
273940 On ch=1 n=f#4 v=36
273950 On ch=1 n=a4 v=48
273958 On ch=1 n=d4 v=39
273958 Par ch=1 c=64 v=0
273968 On ch=1 n=d3 v=0
274044 Par ch=1 c=64 v=127
274196 Par ch=1 c=64 v=0
274278 Par ch=1 c=64 v=127
274350 On ch=1 n=f#4 v=0
274360 On ch=1 n=a4 v=0
274368 On ch=1 n=d4 v=0
274380 On ch=1 n=b4 v=45
274392 On ch=1 n=d4 v=48
274392 Par ch=1 c=64 v=0
274400 On ch=1 n=g4 v=38
274508 Par ch=1 c=64 v=127
274740 Par ch=1 c=64 v=0
274824 On ch=1 n=g3 v=42
274828 On ch=1 n=d4 v=0
274838 Par ch=1 c=64 v=127
274858 On ch=1 n=g4 v=0
274922 On ch=1 n=d5 v=0
275028 On ch=1 n=b4 v=0
275252 On ch=1 n=g3 v=0
275266 On ch=1 n=c3 v=45
275302 Par ch=1 c=64 v=0
275336 On ch=1 n=d#5 v=57
275404 Par ch=1 c=64 v=127
275694 On ch=1 n=c3 v=0
275822 Par ch=1 c=64 v=0
275866 On ch=1 n=c4 v=45
275880 On ch=1 n=g4 v=32
275890 On ch=1 n=c5 v=26
275918 Par ch=1 c=64 v=127
276294 On ch=1 n=c4 v=0
276308 On ch=1 n=g4 v=0
276318 On ch=1 n=c5 v=0
276442 Par ch=1 c=64 v=0
276510 Par ch=1 c=64 v=0
276544 On ch=1 n=f2 v=62
276544 Par ch=1 c=64 v=127
276604 Par ch=1 c=64 v=127
276642 On ch=1 n=d#5 v=0
276852 On ch=1 n=f5 v=48
276946 Par ch=1 c=64 v=0
276950 Par ch=1 c=64 v=0
277034 Par ch=1 c=64 v=127
277042 On ch=1 n=a5 v=50
277052 Par ch=1 c=64 v=127
277128 On ch=1 n=f5 v=0
277208 On ch=1 n=c6 v=51
277254 On ch=1 n=a5 v=0
277448 On ch=1 n=d#5 v=42
277448 On ch=1 n=a4 v=50
277448 On ch=1 n=f4 v=43
277454 On ch=1 n=d#6 v=53
277466 Par ch=1 c=64 v=0
277524 On ch=1 n=c6 v=0
277548 Par ch=1 c=64 v=127
277676 On ch=1 n=f6 v=55
277680 On ch=1 n=d#6 v=0
277710 On ch=1 n=f4 v=0
277710 On ch=1 n=a4 v=0
277710 On ch=1 n=d#5 v=0
277896 On ch=1 n=a6 v=56
277950 On ch=1 n=f6 v=0
278134 Par ch=1 c=64 v=0
278160 On ch=1 n=g6 v=59
278212 On ch=1 n=a6 v=0
278272 Par ch=1 c=64 v=127
278412 On ch=1 n=f2 v=0
278604 On ch=1 n=a#2 v=70
278636 On ch=1 n=g6 v=0
278638 On ch=1 n=f6 v=63
278664 Par ch=1 c=64 v=0
278776 Par ch=1 c=64 v=127
279472 On ch=1 n=f4 v=57
279476 On ch=1 n=d5 v=43
279734 On ch=1 n=f4 v=0
279738 On ch=1 n=d5 v=0
279992 On ch=1 n=d6 v=54
280012 On ch=1 n=f5 v=38
280016 On ch=1 n=d5 v=24
280100 Par ch=1 c=64 v=0
280174 Par ch=1 c=64 v=127
280254 On ch=1 n=d6 v=0
280274 On ch=1 n=f5 v=0
280278 On ch=1 n=d5 v=0
280292 On ch=1 n=a#2 v=0
280360 On ch=1 n=d5 v=30
280366 On ch=1 n=f5 v=41
280372 On ch=1 n=f6 v=0
280372 On ch=1 n=c6 v=38
280394 On ch=1 n=g6 v=59
280622 On ch=1 n=d5 v=0
280628 On ch=1 n=f5 v=0
280634 On ch=1 n=c6 v=0
280712 On ch=1 n=f5 v=39
280720 On ch=1 n=d5 v=37
280728 On ch=1 n=d6 v=56
280728 On ch=1 n=a#5 v=47
280760 On ch=1 n=g6 v=0
280974 On ch=1 n=f5 v=0
280982 On ch=1 n=d5 v=0
280990 On ch=1 n=a#5 v=0
281080 On ch=1 n=g5 v=32
281080 On ch=1 n=d5 v=19
281092 On ch=1 n=g6 v=57
281092 On ch=1 n=a#4 v=24
281114 Par ch=1 c=64 v=0
281138 On ch=1 n=d6 v=0
281182 Par ch=1 c=64 v=127
281342 On ch=1 n=d5 v=0
281342 On ch=1 n=g5 v=0
281364 On ch=1 n=a#4 v=0
281432 On ch=1 n=d#5 v=24
281432 On ch=1 n=c5 v=24
281448 On ch=1 n=a5 v=42
281570 Par ch=1 c=64 v=0
281626 Par ch=1 c=64 v=127
281644 Par ch=1 c=64 v=0
281756 Par ch=1 c=64 v=127
281778 On ch=1 n=f6 v=57
281802 On ch=1 n=g6 v=0
281820 On ch=1 n=c5 v=0
281820 On ch=1 n=d#5 v=0
281836 On ch=1 n=a5 v=0
281896 On ch=1 n=f6 v=0
281960 On ch=1 n=d#5 v=38
281966 On ch=1 n=a4 v=47
281972 On ch=1 n=f5 v=32
282004 On ch=1 n=f6 v=52
282174 On ch=1 n=d#6 v=57
282270 On ch=1 n=f6 v=0
282320 On ch=1 n=d6 v=52
282348 On ch=1 n=d#5 v=0
282354 On ch=1 n=a4 v=0
282360 On ch=1 n=f5 v=0
282370 On ch=1 n=d#6 v=0
282398 On ch=1 n=d6 v=0
282472 On ch=1 n=d#5 v=44
282486 On ch=1 n=f#5 v=34
282488 On ch=1 n=a#4 v=39
282492 On ch=1 n=c6 v=56
282648 On ch=1 n=d6 v=52
282650 Par ch=1 c=64 v=0
282656 On ch=1 n=c6 v=0
282720 On ch=1 n=d6 v=0
282724 On ch=1 n=c6 v=50
282734 Par ch=1 c=64 v=127
282766 On ch=1 n=d#5 v=0
282778 On ch=1 n=c6 v=0
282780 On ch=1 n=f#5 v=0
282782 On ch=1 n=a#4 v=0
282790 On ch=1 n=d6 v=56
282832 On ch=1 n=d6 v=0
282838 On ch=1 n=c6 v=52
282856 On ch=1 n=a4 v=39
282858 On ch=1 n=f5 v=43
282866 On ch=1 n=d#5 v=31
282880 On ch=1 n=d6 v=52
282890 On ch=1 n=c6 v=0
282938 On ch=1 n=c6 v=57
282966 On ch=1 n=d6 v=0
283022 On ch=1 n=c6 v=0
283030 On ch=1 n=b5 v=56
283132 On ch=1 n=d#5 v=0
283150 On ch=1 n=a4 v=0
283152 On ch=1 n=f5 v=0
283166 On ch=1 n=b5 v=0
283176 On ch=1 n=c6 v=56
283192 On ch=1 n=d#5 v=51
283192 On ch=1 n=a4 v=51
283192 On ch=1 n=f#4 v=39
283212 Par ch=1 c=64 v=0
283312 Par ch=1 c=64 v=127
283336 Par ch=1 c=64 v=0
283350 On ch=1 n=c6 v=0
283368 On ch=1 n=d#6 v=57
283398 Par ch=1 c=64 v=127
283546 On ch=1 n=f#4 v=0
283546 On ch=1 n=a4 v=0
283546 On ch=1 n=d#5 v=0
283560 On ch=1 n=d4 v=43
283568 On ch=1 n=a5 v=54
283568 On ch=1 n=c5 v=52
283576 On ch=1 n=f#4 v=42
283728 On ch=1 n=d#6 v=0
283760 On ch=1 n=d6 v=44
283796 Par ch=1 c=64 v=0
283866 Par ch=1 c=64 v=127
283920 On ch=1 n=f#4 v=0
283920 On ch=1 n=c5 v=0
283920 On ch=1 n=a5 v=0
283920 On ch=1 n=d4 v=0
283972 On ch=1 n=g3 v=45
283992 On ch=1 n=c6 v=56
284000 On ch=1 n=d6 v=0
284012 Par ch=1 c=64 v=0
284086 Par ch=1 c=64 v=127
284152 On ch=1 n=a#5 v=56
284156 On ch=1 n=c6 v=0
284280 On ch=1 n=c#6 v=61
284288 Par ch=1 c=64 v=0
284336 On ch=1 n=a#5 v=0
284384 On ch=1 n=g4 v=47
284384 On ch=1 n=d4 v=42
284386 On ch=1 n=d#6 v=56
284400 On ch=1 n=a#4 v=47
284402 Par ch=1 c=64 v=127
284434 On ch=1 n=c#6 v=0
284508 On ch=1 n=d6 v=57
284518 On ch=1 n=d#6 v=0
284614 On ch=1 n=f#6 v=52
284648 On ch=1 n=d6 v=0
284734 On ch=1 n=a6 v=62
284750 On ch=1 n=f#6 v=0
284854 On ch=1 n=g6 v=68
284866 On ch=1 n=a6 v=0
284960 Par ch=1 c=64 v=0
284976 On ch=1 n=a6 v=66
284980 On ch=1 n=g6 v=0
285012 On ch=1 n=d4 v=0
285012 On ch=1 n=g4 v=0
285028 On ch=1 n=a#4 v=0
285088 Par ch=1 c=64 v=127
285108 On ch=1 n=a6 v=0
285124 On ch=1 n=d4 v=31
285132 On ch=1 n=c7 v=93
285152 On ch=1 n=d5 v=50
285252 On ch=1 n=a#6 v=87
285264 On ch=1 n=c7 v=0
285384 On ch=1 n=c#7 v=83
285404 On ch=1 n=a#6 v=0
285504 On ch=1 n=g3 v=0
285520 On ch=1 n=c#7 v=0
285596 On ch=1 n=a#4 v=44
285608 On ch=1 n=g5 v=51
285624 On ch=1 n=d7 v=85
285634 On ch=1 n=d4 v=0
285662 On ch=1 n=d5 v=0
285808 On ch=1 n=d8 v=75
285948 On ch=1 n=a7 v=72
286002 On ch=1 n=d8 v=0
286044 On ch=1 n=d7 v=0
286060 On ch=1 n=c8 v=75
286080 On ch=1 n=a7 v=0
286112 On ch=1 n=a#7 v=70
286184 On ch=1 n=g7 v=76
286184 Par ch=1 c=64 v=0
286192 On ch=1 n=c8 v=0
286244 On ch=1 n=a#7 v=0
286260 On ch=1 n=d7 v=76
286304 Par ch=1 c=64 v=127
286316 On ch=1 n=g7 v=0
286352 On ch=1 n=c7 v=67
286390 On ch=1 n=a#4 v=0
286392 On ch=1 n=d7 v=0
286402 On ch=1 n=g5 v=0
286432 On ch=1 n=a#6 v=81
286484 On ch=1 n=c7 v=0
286528 On ch=1 n=g6 v=43
286564 On ch=1 n=a#6 v=0
286640 On ch=1 n=d6 v=62
286660 On ch=1 n=g6 v=0
286768 On ch=1 n=a#5 v=62
286772 On ch=1 n=d6 v=0
286900 On ch=1 n=a#5 v=0
286940 Par ch=1 c=64 v=0
286984 On ch=1 n=c5 v=50
287112 On ch=1 n=a#5 v=62
287128 On ch=1 n=d3 v=47
287160 On ch=1 n=c5 v=0
287244 Par ch=1 c=64 v=0
287314 Par ch=1 c=64 v=127
287560 Par ch=1 c=64 v=0
287672 On ch=1 n=c5 v=33
287688 On ch=1 n=d4 v=40
287688 On ch=1 n=f#4 v=21
287696 Par ch=1 c=64 v=127
288100 On ch=1 n=c5 v=0
288116 On ch=1 n=f#4 v=0
288116 On ch=1 n=d4 v=0
288276 Par ch=1 c=64 v=0
288350 On ch=1 n=d4 v=34
288352 On ch=1 n=c5 v=34
288352 On ch=1 n=f#4 v=34
288390 Par ch=1 c=64 v=127
288554 On ch=1 n=f#4 v=0
288588 On ch=1 n=c5 v=0
288588 On ch=1 n=d4 v=0
288728 On ch=1 n=c5 v=28
288734 On ch=1 n=d4 v=32
288740 On ch=1 n=f#4 v=29
288760 On ch=1 n=a5 v=57
288766 On ch=1 n=a#5 v=0
288776 On ch=1 n=d3 v=0
288950 Par ch=1 c=64 v=0
288964 On ch=1 n=c5 v=0
288970 On ch=1 n=d4 v=0
288976 On ch=1 n=f#4 v=0
289080 Par ch=1 c=64 v=127
289092 On ch=1 n=c5 v=33
289092 On ch=1 n=d#4 v=29
289098 On ch=1 n=f#4 v=30
289328 On ch=1 n=d#4 v=0
289328 On ch=1 n=c5 v=0
289334 On ch=1 n=f#4 v=0
289350 On ch=1 n=a5 v=0
289354 On ch=1 n=g5 v=56
289530 Par ch=1 c=64 v=0
289552 Par ch=1 c=64 v=0
289560 On ch=1 n=e3 v=69
289572 On ch=1 n=g6 v=72
289572 On ch=1 n=e4 v=65
289636 Par ch=1 c=64 v=127
289648 Par ch=1 c=64 v=127
289880 On ch=1 n=e4 v=0
289928 On ch=1 n=c#5 v=62
289928 On ch=1 n=a#4 v=62
289928 On ch=1 n=g4 v=64
289928 On ch=1 n=e4 v=43
290178 On ch=1 n=g5 v=0
290260 On ch=1 n=e4 v=0
290260 On ch=1 n=g4 v=0
290260 On ch=1 n=a#4 v=0
290260 On ch=1 n=c#5 v=0
290296 On ch=1 n=g5 v=53
290296 On ch=1 n=c#5 v=56
290296 On ch=1 n=a#4 v=58
290352 Par ch=1 c=64 v=0
290480 Par ch=1 c=64 v=127
290528 On ch=1 n=e6 v=48
290552 Par ch=1 c=64 v=0
290616 On ch=1 n=g6 v=0
290624 On ch=1 n=e3 v=0
290636 Par ch=1 c=64 v=127
290640 On ch=1 n=c#6 v=52
290726 On ch=1 n=e6 v=0
290768 On ch=1 n=c6 v=45
290772 On ch=1 n=g5 v=0
290838 On ch=1 n=c#6 v=0
290880 On ch=1 n=a#5 v=57
290966 On ch=1 n=c6 v=0
291008 On ch=1 n=a5 v=53
291062 On ch=1 n=a#5 v=0
291128 On ch=1 n=g5 v=48
291196 On ch=1 n=c#5 v=0
291206 On ch=1 n=a5 v=0
291248 On ch=1 n=f#5 v=56
291300 Par ch=1 c=64 v=0
291326 On ch=1 n=g5 v=0
291368 On ch=1 n=e5 v=47
291396 Par ch=1 c=64 v=127
291446 On ch=1 n=f#5 v=0
291496 On ch=1 n=d#5 v=53
291500 On ch=1 n=a#4 v=0
291566 On ch=1 n=e5 v=0
291600 On ch=1 n=c#5 v=61
291694 On ch=1 n=d#5 v=0
291720 On ch=1 n=a#4 v=51
291798 On ch=1 n=c#5 v=0
291840 On ch=1 n=g4 v=52
291936 On ch=1 n=a#4 v=0
291968 On ch=1 n=a#4 v=56
292080 On ch=1 n=c#5 v=52
292200 On ch=1 n=f#5 v=48
292230 On ch=1 n=a#4 v=0
292278 On ch=1 n=c#5 v=0
292290 On ch=1 n=g4 v=0
292320 On ch=1 n=e5 v=53
292398 On ch=1 n=f#5 v=0
292440 On ch=1 n=a5 v=52
292440 Par ch=1 c=64 v=0
292518 On ch=1 n=e5 v=0
292524 Par ch=1 c=64 v=127
292568 On ch=1 n=g5 v=62
292638 On ch=1 n=a5 v=0
292688 On ch=1 n=a6 v=67
292766 On ch=1 n=g5 v=0
292792 On ch=1 n=g3 v=69
292800 On ch=1 n=a#6 v=97
292808 On ch=1 n=g4 v=65
292886 On ch=1 n=a6 v=0
293140 On ch=1 n=g4 v=0
293160 On ch=1 n=e5 v=41
293160 On ch=1 n=c#5 v=51
293160 On ch=1 n=a#4 v=50
293168 On ch=1 n=g4 v=61
293204 Par ch=1 c=64 v=0
293312 Par ch=1 c=64 v=0
293330 Par ch=1 c=64 v=127
293388 Par ch=1 c=64 v=127
293492 On ch=1 n=a#4 v=0
293492 On ch=1 n=c#5 v=0
293492 On ch=1 n=e5 v=0
293500 On ch=1 n=g4 v=0
293520 On ch=1 n=e5 v=52
293520 On ch=1 n=a#5 v=61
293528 On ch=1 n=c#5 v=62
293810 On ch=1 n=a#6 v=0
293836 On ch=1 n=g3 v=0
293840 Par ch=1 c=64 v=0
293880 On ch=1 n=c#5 v=0
293880 On ch=1 n=a#5 v=0
293880 On ch=1 n=e5 v=0
293880 On ch=1 n=g6 v=66
294000 On ch=1 n=e6 v=53
294078 On ch=1 n=g6 v=0
294120 On ch=1 n=d#6 v=52
294198 On ch=1 n=e6 v=0
294248 On ch=1 n=c#6 v=43
294318 On ch=1 n=d#6 v=0
294320 Par ch=1 c=64 v=0
294360 On ch=1 n=c6 v=50
294420 Par ch=1 c=64 v=127
294446 On ch=1 n=c#6 v=0
294488 On ch=1 n=a#5 v=50
294558 On ch=1 n=c6 v=0
294608 On ch=1 n=a5 v=48
294686 On ch=1 n=a#5 v=0
294720 On ch=1 n=g5 v=47
294806 On ch=1 n=a5 v=0
294848 On ch=1 n=f#5 v=51
294918 On ch=1 n=g5 v=0
294968 On ch=1 n=e5 v=37
295034 Par ch=1 c=64 v=0
295046 On ch=1 n=f#5 v=0
295088 On ch=1 n=c#5 v=52
295120 Par ch=1 c=64 v=127
295166 On ch=1 n=e5 v=0
295200 On ch=1 n=a#4 v=61
295286 On ch=1 n=c#5 v=0
295328 On ch=1 n=c#5 v=45
295348 Par ch=1 c=64 v=0
295398 On ch=1 n=a#4 v=0
295432 Par ch=1 c=64 v=127
295448 On ch=1 n=g3 v=53
295448 On ch=1 n=g4 v=56
295448 On ch=1 n=e5 v=56
295526 On ch=1 n=c#5 v=0
295568 On ch=1 n=a#5 v=51
295646 On ch=1 n=e5 v=0
295688 On ch=1 n=c#6 v=56
295688 On ch=1 n=f#4 v=57
295688 On ch=1 n=f#3 v=61
295766 On ch=1 n=a#5 v=0
295780 On ch=1 n=g4 v=0
295780 On ch=1 n=g3 v=0
295808 On ch=1 n=e6 v=42
295886 On ch=1 n=c#6 v=0
295920 On ch=1 n=g6 v=73
295928 On ch=1 n=e4 v=57
295928 On ch=1 n=e3 v=58
296006 On ch=1 n=e6 v=0
296020 On ch=1 n=f#3 v=0
296020 On ch=1 n=f#4 v=0
296160 On ch=1 n=e3 v=0
296160 On ch=1 n=e4 v=0
296160 On ch=1 n=g6 v=0
296166 On ch=1 n=g7 v=78
296228 On ch=1 n=g7 v=0
296278 Par ch=1 c=64 v=0
296286 On ch=1 n=g7 v=93
296288 On ch=1 n=d4 v=57
296298 On ch=1 n=d3 v=56
296370 Par ch=1 c=64 v=127
296400 On ch=1 n=f#7 v=79
296496 On ch=1 n=g7 v=0
296520 On ch=1 n=f#5 v=52
296528 On ch=1 n=f#6 v=63
296536 On ch=1 n=b4 v=47
296536 On ch=1 n=f#4 v=56
296620 On ch=1 n=d4 v=0
296648 On ch=1 n=f6 v=56
296678 On ch=1 n=f#7 v=0
296726 On ch=1 n=f#6 v=0
296760 On ch=1 n=f#5 v=0
296760 On ch=1 n=b5 v=40
296768 On ch=1 n=f7 v=83
296776 On ch=1 n=b4 v=0
296784 On ch=1 n=f#5 v=62
296792 On ch=1 n=b4 v=45
296798 On ch=1 n=f#4 v=0
296888 On ch=1 n=e7 v=79
296916 On ch=1 n=f6 v=0
296970 On ch=1 n=f7 v=0
297008 On ch=1 n=e6 v=59
297052 Par ch=1 c=64 v=0
297114 Par ch=1 c=64 v=127
297128 On ch=1 n=d#6 v=62
297156 On ch=1 n=e7 v=0
297206 On ch=1 n=e6 v=0
297240 On ch=1 n=d#7 v=82
297326 On ch=1 n=d3 v=0
297360 On ch=1 n=d7 v=74
297396 On ch=1 n=d#6 v=0
297438 On ch=1 n=d#7 v=0
297468 On ch=1 n=f#5 v=0
297470 On ch=1 n=b4 v=0
297488 On ch=1 n=d6 v=45
297498 Par ch=1 c=64 v=0
297530 On ch=1 n=b5 v=0
297558 Par ch=1 c=64 v=127
297600 On ch=1 n=c#6 v=47
297628 On ch=1 n=d7 v=0
297686 On ch=1 n=d6 v=0
297720 On ch=1 n=c#7 v=86
297728 On ch=1 n=e4 v=54
297728 On ch=1 n=e3 v=56
297840 On ch=1 n=c7 v=70
297868 On ch=1 n=c#6 v=0
297918 On ch=1 n=c#7 v=0
297960 On ch=1 n=c6 v=32
297960 On ch=1 n=b4 v=52
297968 On ch=1 n=g5 v=34
297990 On ch=1 n=e4 v=0
298088 On ch=1 n=b5 v=53
298108 On ch=1 n=c7 v=0
298138 Par ch=1 c=64 v=0
298170 On ch=1 n=c6 v=0
298198 Par ch=1 c=64 v=127
298200 On ch=1 n=b6 v=89
298280 Par ch=1 c=64 v=0
298310 Par ch=1 c=64 v=127
298328 On ch=1 n=a#6 v=70
298356 On ch=1 n=b5 v=0
298398 On ch=1 n=b6 v=0
298440 On ch=1 n=a#5 v=47
298568 On ch=1 n=a5 v=57
298596 On ch=1 n=a#6 v=0
298638 On ch=1 n=a#5 v=0
298680 On ch=1 n=g5 v=0
298680 On ch=1 n=b4 v=0
298680 On ch=1 n=e3 v=0
298684 On ch=1 n=a6 v=64
298766 On ch=1 n=a5 v=0
298784 On ch=1 n=g#6 v=66
298858 Par ch=1 c=64 v=0
298860 On ch=1 n=a6 v=0
298872 On ch=1 n=g#5 v=45
298956 Par ch=1 c=64 v=127
298976 On ch=1 n=g5 v=61
299048 On ch=1 n=g#5 v=0
299052 On ch=1 n=g#6 v=0
299096 On ch=1 n=g6 v=59
299232 On ch=1 n=f#2 v=61
299240 On ch=1 n=f#3 v=56
299240 On ch=1 n=f#5 v=71
299244 On ch=1 n=g5 v=0
299272 On ch=1 n=g6 v=0
299356 Par ch=1 c=64 v=0
299440 Par ch=1 c=64 v=127
299504 Par ch=1 c=64 v=63
299580 Par ch=1 c=64 v=127
299718 On ch=1 n=c#4 v=51
299742 On ch=1 n=b4 v=47
299980 On ch=1 n=c#4 v=0
300004 On ch=1 n=b4 v=0
300022 On ch=1 n=f#2 v=0
300054 On ch=1 n=c#4 v=51
300060 On ch=1 n=b4 v=24
300144 Par ch=1 c=64 v=0
300234 On ch=1 n=d6 v=57
300240 Par ch=1 c=64 v=127
300276 On ch=1 n=f#5 v=0
300316 On ch=1 n=c#4 v=0
300322 On ch=1 n=b4 v=0
300374 On ch=1 n=c#4 v=51
300384 On ch=1 n=b4 v=52
300456 On ch=1 n=c#6 v=61
300466 On ch=1 n=d6 v=0
300636 On ch=1 n=c#4 v=0
300646 On ch=1 n=b4 v=0
300666 On ch=1 n=c#6 v=0
300678 On ch=1 n=c#4 v=50
300684 On ch=1 n=a#4 v=48
300692 On ch=1 n=e5 v=53
300722 Par ch=1 c=64 v=0
300764 Par ch=1 c=64 v=0
300806 Par ch=1 c=64 v=127
300856 Par ch=1 c=64 v=127
300882 On ch=1 n=f#3 v=0
300892 On ch=1 n=f#5 v=52
300924 On ch=1 n=e5 v=0
300940 On ch=1 n=c#4 v=0
300946 On ch=1 n=a#4 v=0
300986 On ch=1 n=a#4 v=47
300996 On ch=1 n=c#4 v=50
301068 On ch=1 n=f#5 v=0
301164 On ch=1 n=c#5 v=61
301238 On ch=1 n=c#5 v=0
301248 On ch=1 n=a#4 v=0
301258 On ch=1 n=c#4 v=0
301294 On ch=1 n=c#5 v=56
301336 Par ch=1 c=64 v=0
301344 On ch=1 n=f3 v=51
301356 On ch=1 n=f2 v=53
301402 Par ch=1 c=64 v=0
301412 Par ch=1 c=64 v=127
301458 Par ch=1 c=64 v=127
301696 On ch=1 n=d4 v=50
301712 On ch=1 n=b4 v=50
301714 On ch=1 n=d5 v=56
301772 On ch=1 n=c#5 v=0
301958 On ch=1 n=d4 v=0
301974 On ch=1 n=b4 v=0
302000 Par ch=1 c=64 v=0
302028 On ch=1 n=b4 v=52
302038 On ch=1 n=d4 v=56
302040 On ch=1 n=f2 v=0
302082 Par ch=1 c=64 v=127
302290 On ch=1 n=b4 v=0
302300 On ch=1 n=d4 v=0
302320 On ch=1 n=g4 v=54
302326 On ch=1 n=d4 v=57
302330 On ch=1 n=b4 v=53
302522 On ch=1 n=d5 v=0
302582 On ch=1 n=g4 v=0
302588 On ch=1 n=d4 v=0
302592 On ch=1 n=b4 v=0
302658 On ch=1 n=g5 v=59
302658 On ch=1 n=b4 v=51
302672 On ch=1 n=g4 v=57
302674 On ch=1 n=d4 v=61
302718 Par ch=1 c=64 v=0
302816 Par ch=1 c=64 v=127
302920 On ch=1 n=b4 v=0
302934 On ch=1 n=g4 v=0
302936 On ch=1 n=d4 v=0
302976 On ch=1 n=b4 v=52
302976 On ch=1 n=g4 v=60
302976 On ch=1 n=d4 v=62
302994 On ch=1 n=g6 v=73
303010 On ch=1 n=g5 v=0
303070 Par ch=1 c=64 v=0
303168 Par ch=1 c=64 v=127
303184 On ch=1 n=f3 v=0
303238 On ch=1 n=d4 v=0
303238 On ch=1 n=g4 v=0
303238 On ch=1 n=b4 v=0
303360 On ch=1 n=a7 v=82
303368 On ch=1 n=e3 v=72
303376 On ch=1 n=e2 v=61
303398 On ch=1 n=g6 v=0
303462 Par ch=1 c=64 v=0
303488 On ch=1 n=g#7 v=75
303540 Par ch=1 c=64 v=127
303600 On ch=1 n=c5 v=62
303600 On ch=1 n=g4 v=52
303600 On ch=1 n=c4 v=65
303608 On ch=1 n=g7 v=80
303664 On ch=1 n=a7 v=0
303728 On ch=1 n=g6 v=62
303792 On ch=1 n=g7 v=0
303792 On ch=1 n=g#7 v=0
303848 On ch=1 n=g7 v=79
303884 Par ch=1 c=64 v=0
303950 Par ch=1 c=64 v=127
303960 On ch=1 n=f#7 v=75
304010 On ch=1 n=g6 v=0
304034 On ch=1 n=g4 v=0
304034 On ch=1 n=c5 v=0
304042 On ch=1 n=c4 v=0
304072 On ch=1 n=g7 v=0
304080 On ch=1 n=g5 v=65
304088 On ch=1 n=f#6 v=43
304088 On ch=1 n=c5 v=55
304088 On ch=1 n=g4 v=62
304200 On ch=1 n=f6 v=50
304264 On ch=1 n=f#7 v=0
304312 On ch=1 n=f#6 v=0
304320 On ch=1 n=f7 v=73
304320 On ch=1 n=c6 v=48
304322 On ch=1 n=g5 v=0
304328 On ch=1 n=g5 v=39
304330 On ch=1 n=g4 v=0
304330 On ch=1 n=c5 v=0
304336 On ch=1 n=c5 v=69
304448 On ch=1 n=e7 v=73
304484 On ch=1 n=f6 v=0
304534 Par ch=1 c=64 v=0
304544 On ch=1 n=f7 v=0
304560 On ch=1 n=e6 v=40
304660 Par ch=1 c=64 v=127
304672 On ch=1 n=c6 v=0
304680 On ch=1 n=g5 v=0
304688 On ch=1 n=c5 v=0
304688 On ch=1 n=d#6 v=50
304752 On ch=1 n=e7 v=0
304784 On ch=1 n=e6 v=0
304800 On ch=1 n=f3 v=65
304808 On ch=1 n=e3 v=0
304808 On ch=1 n=f2 v=61
304808 On ch=1 n=d#7 v=87
304816 On ch=1 n=e2 v=0
304920 On ch=1 n=d#6 v=0
304920 On ch=1 n=d7 v=79
304948 Par ch=1 c=64 v=0
304984 Par ch=1 c=64 v=127
305032 On ch=1 n=d#7 v=0
305040 On ch=1 n=b4 v=44
305040 On ch=1 n=g#5 v=47
305040 On ch=1 n=d6 v=48
305164 Par ch=1 c=64 v=0
305168 On ch=1 n=c#6 v=69
305224 On ch=1 n=d7 v=0
305256 Par ch=1 c=64 v=127
305264 On ch=1 n=d6 v=0
305288 On ch=1 n=c#7 v=83
305408 On ch=1 n=c7 v=55
305472 On ch=1 n=c#6 v=0
305486 On ch=1 n=c#7 v=0
305520 On ch=1 n=c6 v=57
305640 On ch=1 n=b5 v=56
305672 On ch=1 n=c7 v=0
305718 On ch=1 n=c6 v=0
305720 On ch=1 n=b6 v=78
305820 Par ch=1 c=64 v=0
305824 On ch=1 n=a#6 v=79
305838 On ch=1 n=b5 v=0
305888 On ch=1 n=a#5 v=59
305918 On ch=1 n=b6 v=0
305920 On ch=1 n=g#5 v=0
305920 On ch=1 n=b4 v=0
305924 Par ch=1 c=64 v=127
306000 On ch=1 n=a5 v=57
306022 On ch=1 n=a#6 v=0
306086 On ch=1 n=a#5 v=0
306104 On ch=1 n=a6 v=72
306198 On ch=1 n=a5 v=0
306200 On ch=1 n=g#6 v=63
306264 On ch=1 n=g#5 v=56
306302 On ch=1 n=a6 v=0
306352 On ch=1 n=g5 v=57
306360 On ch=1 n=f3 v=0
306360 On ch=1 n=f#3 v=42
306360 On ch=1 n=f#2 v=53
306368 On ch=1 n=f2 v=0
306390 Par ch=1 c=64 v=0
306398 On ch=1 n=g#6 v=0
306440 On ch=1 n=g6 v=63
306460 Par ch=1 c=64 v=127
306462 On ch=1 n=g#5 v=0
306552 On ch=1 n=f#6 v=54
306566 On ch=1 n=g5 v=0
306624 On ch=1 n=f#5 v=48
306638 On ch=1 n=g6 v=0
306666 Par ch=1 c=64 v=0
306728 On ch=1 n=f#4 v=48
306728 On ch=1 n=d4 v=56
306728 On ch=1 n=f5 v=48
306730 On ch=1 n=d5 v=51
306736 On ch=1 n=b4 v=53
306750 On ch=1 n=f#6 v=0
306786 Par ch=1 c=64 v=0
306800 On ch=1 n=f#5 v=0
306840 On ch=1 n=f#5 v=48
306852 Par ch=1 c=64 v=127
306894 On ch=1 n=f5 v=0
306960 On ch=1 n=g5 v=48
306992 On ch=1 n=f#5 v=0
307080 On ch=1 n=g#5 v=48
307084 Par ch=1 c=64 v=0
307124 On ch=1 n=g5 v=0
307158 Par ch=1 c=64 v=127
307204 Par ch=1 c=64 v=0
307216 On ch=1 n=a5 v=48
307244 Par ch=1 c=64 v=127
307248 On ch=1 n=g#5 v=0
307320 On ch=1 n=a#5 v=48
307340 On ch=1 n=f#2 v=0
307340 On ch=1 n=f#3 v=0
307368 On ch=1 n=a5 v=0
307440 On ch=1 n=b5 v=48
307486 On ch=1 n=a#5 v=0
307568 On ch=1 n=c#6 v=48
307656 On ch=1 n=b5 v=0
307688 On ch=1 n=e6 v=48
307756 On ch=1 n=c#6 v=0
307782 Par ch=1 c=64 v=0
307800 On ch=1 n=d#6 v=48
307832 On ch=1 n=e6 v=0
307890 Par ch=1 c=64 v=127
307920 On ch=1 n=d6 v=48
308002 On ch=1 n=d#6 v=0
308040 On ch=1 n=a#5 v=48
308046 On ch=1 n=d6 v=0
308168 On ch=1 n=c#6 v=48
308206 On ch=1 n=a#5 v=0
308288 On ch=1 n=b5 v=48
308304 On ch=1 n=c#6 v=0
308400 On ch=1 n=c6 v=48
308468 On ch=1 n=b5 v=0
308520 On ch=1 n=c#6 v=48
308536 Par ch=1 c=64 v=0
308576 On ch=1 n=c6 v=0
308630 Par ch=1 c=64 v=127
308648 On ch=1 n=e6 v=48
308700 On ch=1 n=c#6 v=0
308768 On ch=1 n=d6 v=48
308774 On ch=1 n=e6 v=0
308880 On ch=1 n=d#6 v=48
309008 On ch=1 n=e6 v=48
309012 On ch=1 n=d6 v=0
309016 On ch=1 n=d#6 v=0
309120 On ch=1 n=b4 v=0
309120 On ch=1 n=d5 v=0
309120 On ch=1 n=d4 v=0
309120 On ch=1 n=f#4 v=0
309120 On ch=1 n=g6 v=57
309188 On ch=1 n=e6 v=0
309240 On ch=1 n=f6 v=48
309246 On ch=1 n=g6 v=0
309360 On ch=1 n=f#6 v=48
309416 On ch=1 n=f6 v=0
309488 On ch=1 n=a#6 v=68
309532 On ch=1 n=f#6 v=0
309608 On ch=1 n=b6 v=68
309638 On ch=1 n=a#6 v=0
309652 Par ch=1 c=64 v=0
309716 Par ch=1 c=64 v=127
309728 On ch=1 n=a6 v=56
309732 On ch=1 n=b6 v=0
309840 On ch=1 n=g6 v=56
309916 On ch=1 n=a6 v=0
309968 On ch=1 n=f#6 v=46
310020 On ch=1 n=g6 v=0
310080 On ch=1 n=f#6 v=0
310080 On ch=1 n=f6 v=46
310184 On ch=1 n=g6 v=54
310224 On ch=1 n=f6 v=0
310322 On ch=1 n=f#6 v=45
310374 On ch=1 n=g6 v=0
310450 On ch=1 n=d6 v=45
310460 On ch=1 n=f#6 v=0
310560 On ch=1 n=a#5 v=44
310576 On ch=1 n=d6 v=0
310680 On ch=1 n=b5 v=43
310720 On ch=1 n=a#5 v=0
310808 On ch=1 n=d6 v=43
310864 On ch=1 n=b5 v=0
310920 On ch=1 n=c#6 v=43
310956 Par ch=1 c=64 v=0
311010 On ch=1 n=d6 v=0
311036 Par ch=1 c=64 v=127
311048 On ch=1 n=e6 v=42
311084 On ch=1 n=c#6 v=0
311154 On ch=1 n=d6 v=42
311222 On ch=1 n=e6 v=0
311294 On ch=1 n=c#6 v=41
311364 On ch=1 n=d6 v=0
311432 On ch=1 n=b5 v=40
311440 On ch=1 n=c#6 v=0
311556 On ch=1 n=a#5 v=40
311584 On ch=1 n=b5 v=0
311692 On ch=1 n=c#6 v=39
311710 On ch=1 n=a#5 v=0
311820 On ch=1 n=b5 v=39
311836 On ch=1 n=c#6 v=0
311852 Par ch=1 c=64 v=0
311956 On ch=1 n=b5 v=0
311968 On ch=1 n=g5 v=39
311982 Par ch=1 c=64 v=127
312096 On ch=1 n=f5 v=37
312152 On ch=1 n=g5 v=0
312234 On ch=1 n=f#5 v=39
312270 On ch=1 n=f5 v=0
312384 On ch=1 n=f#5 v=0
312388 On ch=1 n=b5 v=28
312528 On ch=1 n=a#5 v=39
312548 On ch=1 n=b5 v=0
312648 On ch=1 n=f#5 v=39
312744 On ch=1 n=a#5 v=0
312776 On ch=1 n=f5 v=38
312792 On ch=1 n=f#5 v=0
312800 Par ch=1 c=64 v=0
312914 On ch=1 n=a5 v=37
312956 On ch=1 n=f5 v=0
313048 On ch=1 n=g#5 v=43
313098 On ch=1 n=a5 v=0
313178 On ch=1 n=e5 v=33
313190 On ch=1 n=g#5 v=0
313308 On ch=1 n=d#5 v=45
313368 On ch=1 n=e5 v=0
313434 On ch=1 n=g5 v=35
313468 On ch=1 n=d#5 v=0
313558 On ch=1 n=f#5 v=38
313610 On ch=1 n=g5 v=0
313614 Par ch=1 c=64 v=0
313696 On ch=1 n=d5 v=36
313710 On ch=1 n=f#5 v=0
313712 Par ch=1 c=64 v=127
313714 Par ch=1 c=64 v=127
313824 On ch=1 n=c#5 v=38
313900 On ch=1 n=d5 v=0
313936 Par ch=1 c=64 v=0
313960 On ch=1 n=f5 v=34
313988 On ch=1 n=c#5 v=0
314100 On ch=1 n=e5 v=36
314150 On ch=1 n=f5 v=0
314242 On ch=1 n=c5 v=33
314252 On ch=1 n=e5 v=0
314400 On ch=1 n=b4 v=34
314450 On ch=1 n=c5 v=0
314546 On ch=1 n=d#5 v=27
314578 On ch=1 n=b4 v=0
314712 On ch=1 n=d5 v=34
314728 On ch=1 n=d#5 v=0
314882 On ch=1 n=a#4 v=31
314906 On ch=1 n=d5 v=0
315060 On ch=1 n=c#5 v=22
315094 On ch=1 n=a#4 v=0
315112 Par ch=1 c=64 v=0
315218 Par ch=1 c=64 v=127
315272 On ch=1 n=b4 v=33
315290 On ch=1 n=c#5 v=0
315510 On ch=1 n=g4 v=31
315526 On ch=1 n=b4 v=0
315628 Par ch=1 c=64 v=127
315816 On ch=1 n=f#4 v=33
315852 Par ch=1 c=64 v=0
315888 On ch=1 n=g4 v=0
316718 Par ch=1 c=64 v=127
316826 Par ch=1 c=64 v=0
316924 Par ch=1 c=64 v=127
317976 On ch=1 n=d5 v=43
317992 On ch=1 n=b4 v=23
317992 On ch=1 n=f4 v=17
317998 On ch=1 n=g4 v=32
318000 On ch=1 n=f#3 v=32
318534 Par ch=1 c=64 v=0
318606 Par ch=1 c=64 v=0
318684 Par ch=1 c=64 v=127
318702 Par ch=1 c=64 v=127
319470 Par ch=1 c=64 v=0
319566 Par ch=1 c=64 v=127
319710 On ch=1 n=d5 v=0
319726 On ch=1 n=f4 v=0
319726 On ch=1 n=b4 v=0
319726 On ch=1 n=f#4 v=0
319732 On ch=1 n=g4 v=0
319734 On ch=1 n=f#3 v=0
319752 On ch=1 n=f#4 v=38
319934 Par ch=1 c=64 v=0
320002 Par ch=1 c=64 v=127
320240 Par ch=1 c=64 v=0
320310 Par ch=1 c=64 v=127
321140 Par ch=1 c=64 v=0
321266 Par ch=1 c=64 v=127
321920 On ch=1 n=e5 v=33
321926 On ch=1 n=f#5 v=33
321928 On ch=1 n=a#4 v=27
321928 On ch=1 n=f#3 v=28
321934 On ch=1 n=c#4 v=22
322156 Par ch=1 c=64 v=0
322296 Par ch=1 c=64 v=127
322358 Par ch=1 c=64 v=0
322478 Par ch=1 c=64 v=127
323044 Par ch=1 c=64 v=0
323408 Par ch=1 c=64 v=127
323470 On ch=1 n=e5 v=0
323476 On ch=1 n=f#5 v=0
323478 On ch=1 n=f#3 v=0
323478 On ch=1 n=a#4 v=0
323484 On ch=1 n=c#4 v=0
323524 On ch=1 n=f#4 v=0
323784 Par ch=1 c=64 v=0
323854 Par ch=1 c=64 v=127
323900 Par ch=1 c=64 v=127
323920 On ch=1 n=f#3 v=33
323926 On ch=1 n=f#4 v=31
323938 On ch=1 n=f#5 v=35
323938 On ch=1 n=b3 v=34
323938 On ch=1 n=b2 v=34
323952 On ch=1 n=d#5 v=28
323952 On ch=1 n=b4 v=33
324268 Par ch=1 c=64 v=0
325088 On ch=1 n=b2 v=0
325104 On ch=1 n=b2 v=37
325128 On ch=1 n=f#3 v=0
325152 On ch=1 n=f#3 v=37
325154 On ch=1 n=f#5 v=0
325160 On ch=1 n=b4 v=0
325160 On ch=1 n=b3 v=0
325162 On ch=1 n=d#5 v=0
325174 On ch=1 n=f#4 v=0
325190 On ch=1 n=a#4 v=41
325190 On ch=1 n=f#4 v=37
325192 On ch=1 n=c#4 v=41
325200 On ch=1 n=f#5 v=39
325208 On ch=1 n=e5 v=41
325342 Par ch=1 c=64 v=0
325466 Par ch=1 c=64 v=127
326402 On ch=1 n=b2 v=0
326416 On ch=1 n=b2 v=42
326432 On ch=1 n=f#3 v=0
326468 On ch=1 n=c#4 v=0
326474 On ch=1 n=f#4 v=0
326480 On ch=1 n=f#3 v=41
326486 On ch=1 n=a#4 v=0
326506 On ch=1 n=e5 v=0
326518 On ch=1 n=f#5 v=0
326554 On ch=1 n=f#5 v=42
326566 On ch=1 n=d#5 v=44
326566 On ch=1 n=b4 v=44
326578 On ch=1 n=f#4 v=40
326580 On ch=1 n=d#4 v=43
326642 Par ch=1 c=64 v=0
326746 Par ch=1 c=64 v=127
327752 On ch=1 n=b2 v=0
327760 On ch=1 n=b2 v=45
327816 On ch=1 n=f#3 v=0
327840 On ch=1 n=f#3 v=45
327864 On ch=1 n=f#5 v=0
327876 On ch=1 n=b4 v=0
327876 On ch=1 n=d#5 v=0
327888 On ch=1 n=f#4 v=0
327890 On ch=1 n=d#4 v=0
327914 On ch=1 n=f#5 v=45
327926 On ch=1 n=a#4 v=49
327936 On ch=1 n=e5 v=47
327942 On ch=1 n=f#4 v=49
327942 On ch=1 n=c#4 v=49
328002 Par ch=1 c=64 v=0
328140 Par ch=1 c=64 v=127
329096 On ch=1 n=b2 v=0
329104 On ch=1 n=b2 v=47
329176 On ch=1 n=f#3 v=0
329184 On ch=1 n=f#3 v=46
329224 On ch=1 n=f#5 v=0
329236 On ch=1 n=a#4 v=0
329246 On ch=1 n=e5 v=0
329252 On ch=1 n=c#4 v=0
329252 On ch=1 n=f#4 v=0
329258 Par ch=1 c=64 v=0
329270 On ch=1 n=f#5 v=49
329290 On ch=1 n=d#4 v=47
329292 On ch=1 n=b4 v=50
329292 On ch=1 n=f#4 v=46
329294 On ch=1 n=d#5 v=48
329398 Par ch=1 c=64 v=127
330242 On ch=1 n=b2 v=0
330322 On ch=1 n=f#3 v=0
330408 On ch=1 n=f#5 v=0
330430 On ch=1 n=f#4 v=0
330430 On ch=1 n=b4 v=0
330432 On ch=1 n=d#5 v=0
330598 On ch=1 n=d#4 v=0
330630 On ch=1 n=b5 v=53
330638 On ch=1 n=d#5 v=51
330638 On ch=1 n=b4 v=47
330652 On ch=1 n=f#3 v=46
330652 On ch=1 n=b2 v=48
330652 Par ch=1 c=64 v=0
330672 On ch=1 n=b3 v=49
330772 Par ch=1 c=64 v=127
332180 On ch=1 n=b5 v=0
332188 On ch=1 n=b4 v=0
332188 On ch=1 n=d#5 v=0
332202 On ch=1 n=b2 v=0
332202 On ch=1 n=f#3 v=0
332222 On ch=1 n=b3 v=0
332282 On ch=1 n=d#6 v=51
332300 On ch=1 n=f#5 v=54
332300 On ch=1 n=d#5 v=53
332310 On ch=1 n=b5 v=54
332318 On ch=1 n=f#3 v=49
332318 On ch=1 n=f#2 v=51
332388 Par ch=1 c=64 v=0
332528 Par ch=1 c=64 v=127
334912 On ch=1 n=d#6 v=0
334930 On ch=1 n=d#5 v=0
334930 On ch=1 n=f#5 v=0
334940 On ch=1 n=b5 v=0
334948 On ch=1 n=f#2 v=0
334948 On ch=1 n=f#3 v=0
335038 On ch=1 n=d#5 v=47
335040 On ch=1 n=d#6 v=53
335042 On ch=1 n=f#5 v=53
335052 On ch=1 n=f#3 v=48
335060 On ch=1 n=b5 v=52
335062 On ch=1 n=f#4 v=47
335102 Par ch=1 c=64 v=0
335228 Par ch=1 c=64 v=127
336308 On ch=1 n=d#5 v=0
336310 On ch=1 n=d#6 v=0
336312 On ch=1 n=f#5 v=0
336322 On ch=1 n=f#3 v=0
336330 On ch=1 n=b5 v=0
336332 On ch=1 n=f#4 v=0
336368 On ch=1 n=c#6 v=51
336368 On ch=1 n=g#4 v=53
336368 On ch=1 n=f#3 v=53
336382 On ch=1 n=f5 v=54
336382 On ch=1 n=c#5 v=51
336394 On ch=1 n=b5 v=54
336396 On ch=1 n=c#4 v=51
336532 Par ch=1 c=64 v=0
336656 Par ch=1 c=64 v=127
337328 On ch=1 n=f#3 v=0
337356 On ch=1 n=c#4 v=0
337392 On ch=1 n=f#3 v=42
337488 On ch=1 n=c#4 v=41
337498 On ch=1 n=g#4 v=0
337498 On ch=1 n=c#6 v=0
337512 On ch=1 n=c#5 v=0
337512 On ch=1 n=f5 v=0
337524 On ch=1 n=b5 v=0
337530 Par ch=1 c=64 v=0
337552 On ch=1 n=e5 v=53
337556 On ch=1 n=d#6 v=54
337560 On ch=1 n=f#5 v=49
337610 Par ch=1 c=64 v=127
337716 On ch=1 n=b4 v=47
337746 Par ch=1 c=64 v=127
337830 Par ch=1 c=64 v=0
337860 On ch=1 n=a#4 v=47
337888 On ch=1 n=b4 v=0
337980 On ch=1 n=a#4 v=0
337992 On ch=1 n=b4 v=47
338086 On ch=1 n=a#4 v=48
338110 On ch=1 n=b4 v=0
338184 On ch=1 n=a#4 v=0
338192 On ch=1 n=b4 v=48
338270 On ch=1 n=a#4 v=49
338270 Par ch=1 c=64 v=127
338296 On ch=1 n=b4 v=0
338352 On ch=1 n=a#4 v=0
338358 On ch=1 n=b4 v=49
338428 On ch=1 n=a#4 v=49
338444 On ch=1 n=b4 v=0
338502 On ch=1 n=b4 v=50
338508 On ch=1 n=a#4 v=0
338578 On ch=1 n=a#4 v=50
338584 On ch=1 n=b4 v=0
338656 On ch=1 n=b4 v=51
338658 On ch=1 n=a#4 v=0
338728 On ch=1 n=f#3 v=0
338732 On ch=1 n=a#4 v=51
338734 On ch=1 n=b4 v=0
338744 On ch=1 n=e5 v=0
338752 On ch=1 n=f#5 v=0
338798 On ch=1 n=a#4 v=0
338804 On ch=1 n=f#4 v=32
338806 On ch=1 n=b4 v=51
338820 On ch=1 n=e5 v=44
338824 On ch=1 n=c#4 v=0
338836 On ch=1 n=f#5 v=44
338844 On ch=1 n=c#5 v=40
338874 On ch=1 n=a#4 v=51
338884 On ch=1 n=b4 v=0
338892 On ch=1 n=d#6 v=0
338940 On ch=1 n=a#4 v=0
338950 On ch=1 n=b4 v=51
339008 On ch=1 n=a#4 v=51
339030 On ch=1 n=b4 v=0
339078 On ch=1 n=a#4 v=0
339094 On ch=1 n=b4 v=51
339146 On ch=1 n=a#4 v=51
339168 On ch=1 n=b4 v=0
339214 On ch=1 n=a#4 v=0
339232 On ch=1 n=b4 v=51
339306 On ch=1 n=a#4 v=50
339312 On ch=1 n=b4 v=0
339364 On ch=1 n=a#4 v=0
339380 On ch=1 n=b4 v=50
339440 On ch=1 n=a#4 v=50
339450 On ch=1 n=b4 v=0
339516 On ch=1 n=a#4 v=0
339530 On ch=1 n=b4 v=50
339564 On ch=1 n=a#4 v=50
339592 On ch=1 n=b4 v=0
339624 On ch=1 n=b4 v=49
339656 On ch=1 n=a#4 v=0
339746 Par ch=1 c=64 v=0
339748 On ch=1 n=a#4 v=50
339802 On ch=1 n=g#4 v=54
339818 On ch=1 n=b4 v=0
339840 On ch=1 n=a#4 v=0
339982 On ch=1 n=a#4 v=47
339994 On ch=1 n=f#4 v=0
340010 On ch=1 n=e5 v=0
340022 On ch=1 n=g#4 v=0
340026 On ch=1 n=f#5 v=0
340034 On ch=1 n=c#5 v=0
340262 On ch=1 n=b4 v=45
340272 On ch=1 n=d#5 v=34
340272 On ch=1 n=f#4 v=44
340302 On ch=1 n=a#4 v=0
340392 On ch=1 n=b2 v=66
340416 On ch=1 n=b5 v=44
340590 Par ch=1 c=64 v=127
340700 On ch=1 n=f#3 v=43
341072 On ch=1 n=b3 v=48
341086 On ch=1 n=f#3 v=0
341406 On ch=1 n=c#4 v=41
341464 On ch=1 n=b3 v=0
341596 On ch=1 n=b4 v=0
341606 On ch=1 n=f#4 v=0
341606 On ch=1 n=d#5 v=0
341622 Par ch=1 c=64 v=0
341714 On ch=1 n=b5 v=0
341724 Par ch=1 c=64 v=127
341736 On ch=1 n=d#4 v=52
341752 On ch=1 n=b2 v=0
341782 On ch=1 n=c#4 v=0
342024 On ch=1 n=g#4 v=31
342068 On ch=1 n=d#4 v=0
342312 On ch=1 n=f#4 v=49
342356 On ch=1 n=g#4 v=0
342582 On ch=1 n=f#4 v=0
342624 On ch=1 n=f#4 v=39
342624 On ch=1 n=d#4 v=46
342648 On ch=1 n=b4 v=39
342940 On ch=1 n=f#5 v=53
342956 On ch=1 n=f#4 v=0
342968 On ch=1 n=d#5 v=40
342980 On ch=1 n=b4 v=0
342984 On ch=1 n=c#4 v=58
342988 On ch=1 n=d#4 v=0
343256 On ch=1 n=d#5 v=0
343284 On ch=1 n=d#4 v=45
343292 On ch=1 n=b4 v=42
343312 On ch=1 n=f#4 v=42
343316 On ch=1 n=c#4 v=0
343522 On ch=1 n=f#4 v=0
343588 On ch=1 n=g#5 v=58
343610 On ch=1 n=f#5 v=0
343614 On ch=1 n=d#5 v=43
343626 On ch=1 n=c#4 v=56
343660 On ch=1 n=b4 v=0
343660 On ch=1 n=d#4 v=0
343920 On ch=1 n=b3 v=62
343930 On ch=1 n=b4 v=44
343940 On ch=1 n=f#4 v=44
343952 On ch=1 n=d#5 v=0
343958 On ch=1 n=c#4 v=0
344210 Par ch=1 c=64 v=0
344258 On ch=1 n=g#5 v=0
344304 On ch=1 n=g#5 v=34
344328 On ch=1 n=e5 v=45
344338 On ch=1 n=f#2 v=56
344352 On ch=1 n=b4 v=0
344368 Par ch=1 c=64 v=127
344370 On ch=1 n=b3 v=0
344376 On ch=1 n=f#4 v=0
344782 On ch=1 n=e5 v=0
344792 On ch=1 n=f#4 v=44
344792 On ch=1 n=f#3 v=58
344812 On ch=1 n=b4 v=44
345142 On ch=1 n=c#4 v=55
345144 On ch=1 n=f#3 v=0
345156 On ch=1 n=b4 v=0
345160 On ch=1 n=f#5 v=54
345172 On ch=1 n=e5 v=41
345174 On ch=1 n=g#5 v=0
345260 On ch=1 n=f#4 v=0
345472 On ch=1 n=d#4 v=39
345488 On ch=1 n=f#4 v=40
345502 On ch=1 n=a#4 v=39
345518 On ch=1 n=e5 v=0
345526 On ch=1 n=c#4 v=0
345698 On ch=1 n=f#2 v=0
345782 On ch=1 n=e4 v=53
345804 On ch=1 n=d#4 v=0
345810 On ch=1 n=e5 v=38
345854 On ch=1 n=f#4 v=0
345868 On ch=1 n=a#4 v=0
346056 On ch=1 n=a#4 v=37
346066 On ch=1 n=g#4 v=46
346114 On ch=1 n=e4 v=0
346142 On ch=1 n=e5 v=0
346344 On ch=1 n=d#5 v=35
346352 On ch=1 n=f#4 v=47
346388 On ch=1 n=a#4 v=0
346398 On ch=1 n=g#4 v=0
346622 On ch=1 n=f#4 v=0
346642 On ch=1 n=f#4 v=39
346658 On ch=1 n=d#4 v=34
346664 On ch=1 n=b4 v=34
346676 On ch=1 n=d#5 v=0
346870 On ch=1 n=f#5 v=0
346896 On ch=1 n=b4 v=0
346896 On ch=1 n=f#4 v=0
346896 Par ch=1 c=64 v=0
346912 On ch=1 n=f#5 v=49
346918 On ch=1 n=c#4 v=50
346928 On ch=1 n=d#5 v=34
346990 On ch=1 n=d#4 v=0
347000 Par ch=1 c=64 v=127
347170 On ch=1 n=f#4 v=36
347184 On ch=1 n=b4 v=37
347186 On ch=1 n=d#4 v=35
347250 On ch=1 n=c#4 v=0
347260 On ch=1 n=d#5 v=0
347446 On ch=1 n=g#5 v=58
347448 On ch=1 n=d#5 v=39
347460 On ch=1 n=c#4 v=62
347482 On ch=1 n=f#5 v=0
347516 On ch=1 n=f#4 v=0
347528 On ch=1 n=d#4 v=0
347530 On ch=1 n=b4 v=0
347720 On ch=1 n=b4 v=43
347732 On ch=1 n=f#4 v=43
347744 On ch=1 n=b3 v=58
347780 On ch=1 n=d#5 v=0
347792 On ch=1 n=c#4 v=0
347912 Par ch=1 c=64 v=0
347956 On ch=1 n=g#5 v=0
348008 On ch=1 n=g#5 v=68
348020 On ch=1 n=e5 v=45
348030 On ch=1 n=f#2 v=61
348052 Par ch=1 c=64 v=127
348092 On ch=1 n=b4 v=0
348104 On ch=1 n=f#4 v=0
348192 On ch=1 n=b3 v=0
348320 On ch=1 n=b4 v=44
348320 On ch=1 n=f#4 v=44
348320 On ch=1 n=f#3 v=73
348352 On ch=1 n=e5 v=0
348612 On ch=1 n=f#5 v=63
348628 On ch=1 n=e5 v=42
348630 On ch=1 n=c#4 v=63
348638 On ch=1 n=b4 v=0
348638 On ch=1 n=g#5 v=0
348668 On ch=1 n=f#3 v=0
348696 On ch=1 n=f#4 v=0
348878 On ch=1 n=d#4 v=50
348894 On ch=1 n=c#4 v=0
348904 On ch=1 n=f#4 v=40
348910 On ch=1 n=a#4 v=40
348930 On ch=1 n=e5 v=0
349136 On ch=1 n=f#4 v=0
349148 On ch=1 n=e4 v=50
349166 On ch=1 n=a#4 v=0
349192 On ch=1 n=e5 v=39
349210 On ch=1 n=d#4 v=0
349390 On ch=1 n=f#2 v=0
349424 On ch=1 n=a#4 v=37
349424 On ch=1 n=g#4 v=46
349480 On ch=1 n=e4 v=0
349524 On ch=1 n=e5 v=0
349614 Par ch=1 c=64 v=0
349668 On ch=1 n=a#4 v=0
349680 On ch=1 n=d#5 v=35
349680 On ch=1 n=f#4 v=36
349692 On ch=1 n=g#4 v=0
349728 Par ch=1 c=64 v=127
349890 On ch=1 n=f#4 v=0
349920 On ch=1 n=d#4 v=48
349924 On ch=1 n=b4 v=34
349930 On ch=1 n=f#4 v=34
349952 On ch=1 n=b4 v=34
350012 On ch=1 n=d#5 v=0
350162 On ch=1 n=f#5 v=0
350184 On ch=1 n=b4 v=0
350184 On ch=1 n=f#4 v=0
350184 On ch=1 n=b4 v=0
350208 On ch=1 n=f#5 v=55
350222 On ch=1 n=d#5 v=33
350222 On ch=1 n=c#4 v=48
350240 On ch=1 n=d#4 v=0
350456 On ch=1 n=b4 v=34
350468 On ch=1 n=f#4 v=34
350482 On ch=1 n=d#4 v=43
350554 On ch=1 n=c#4 v=0
350554 On ch=1 n=d#5 v=0
350732 On ch=1 n=g#5 v=53
350736 On ch=1 n=d#5 v=34
350746 On ch=1 n=c#4 v=48
350758 On ch=1 n=f#5 v=0
350786 On ch=1 n=f#4 v=0
350786 On ch=1 n=b4 v=0
350802 On ch=1 n=d#4 v=0
351018 On ch=1 n=f#4 v=34
351024 On ch=1 n=b4 v=34
351040 On ch=1 n=b3 v=26
351068 On ch=1 n=d#5 v=0
351078 On ch=1 n=c#4 v=0
351350 On ch=1 n=f#4 v=0
351356 On ch=1 n=b4 v=0
351388 On ch=1 n=d#3 v=47
351396 On ch=1 n=a#5 v=61
351396 Par ch=1 c=64 v=0
351402 On ch=1 n=g#5 v=0
351410 On ch=1 n=f#5 v=36
351492 On ch=1 n=b3 v=0
351544 Par ch=1 c=64 v=127
351744 On ch=1 n=a#4 v=37
351760 On ch=1 n=d#5 v=37
351780 On ch=1 n=a#3 v=50
351786 On ch=1 n=f#5 v=0
352026 On ch=1 n=d#4 v=54
352046 On ch=1 n=f#5 v=38
352058 On ch=1 n=a#4 v=0
352070 On ch=1 n=d#5 v=0
352112 On ch=1 n=a#3 v=0
352268 On ch=1 n=f4 v=44
352274 On ch=1 n=d#4 v=0
352284 On ch=1 n=d#5 v=39
352290 On ch=1 n=a#4 v=39
352314 On ch=1 n=f#5 v=0
352484 On ch=1 n=a#5 v=0
352512 On ch=1 n=a#5 v=47
352536 On ch=1 n=f#4 v=54
352552 On ch=1 n=f#5 v=39
352570 On ch=1 n=f4 v=0
352582 On ch=1 n=d#5 v=0
352588 On ch=1 n=a#4 v=0
352604 Par ch=1 c=64 v=0
352724 Par ch=1 c=64 v=127
352748 On ch=1 n=d#3 v=0
352792 On ch=1 n=d#5 v=39
352814 On ch=1 n=b4 v=46
352826 On ch=1 n=f#5 v=0
352830 On ch=1 n=f#4 v=0
353054 On ch=1 n=a#4 v=54
353106 On ch=1 n=f#5 v=40
353118 On ch=1 n=b4 v=0
353152 On ch=1 n=d#5 v=0
353304 On ch=1 n=a#4 v=0
353328 On ch=1 n=a#4 v=41
353338 On ch=1 n=f#4 v=52
353348 On ch=1 n=d#5 v=41
353368 On ch=1 n=f#5 v=0
353582 On ch=1 n=a#5 v=0
353596 Par ch=1 c=64 v=0
353612 On ch=1 n=a#4 v=0
353616 On ch=1 n=a#5 v=67
353618 On ch=1 n=f#5 v=35
353618 On ch=1 n=f4 v=49
353632 On ch=1 n=d#5 v=0
353664 Par ch=1 c=64 v=127
353670 On ch=1 n=f#4 v=0
353846 On ch=1 n=f#4 v=45
353858 On ch=1 n=a#4 v=36
353860 On ch=1 n=d#5 v=36
353884 On ch=1 n=f#5 v=0
353892 On ch=1 n=f4 v=0
354174 On ch=1 n=c6 v=58
354178 On ch=1 n=f#4 v=0
354178 On ch=1 n=f4 v=52
354190 On ch=1 n=f#5 v=37
354206 On ch=1 n=a#5 v=0
354270 On ch=1 n=a#4 v=0
354272 On ch=1 n=d#5 v=0
354456 On ch=1 n=a#4 v=38
354474 On ch=1 n=d#4 v=47
354480 On ch=1 n=d#5 v=38
354498 On ch=1 n=f#5 v=0
354500 On ch=1 n=f4 v=0
354832 Par ch=1 c=64 v=0
354840 On ch=1 n=a#4 v=0
354856 On ch=1 n=a#5 v=45
354858 On ch=1 n=d6 v=73
354864 On ch=1 n=d#5 v=0
354872 On ch=1 n=f2 v=57
354884 On ch=1 n=c6 v=0
354924 On ch=1 n=d#4 v=0
354952 Par ch=1 c=64 v=127
355232 On ch=1 n=f3 v=65
355240 On ch=1 n=f5 v=44
355252 On ch=1 n=d5 v=44
355294 On ch=1 n=a#5 v=0
355468 On ch=1 n=d6 v=0
355504 On ch=1 n=d6 v=65
355504 On ch=1 n=a#5 v=42
355520 On ch=1 n=a#3 v=56
355534 On ch=1 n=f3 v=0
355566 On ch=1 n=f5 v=0
355572 On ch=1 n=d5 v=0
355760 On ch=1 n=a#3 v=0
355776 On ch=1 n=f5 v=40
355782 On ch=1 n=f4 v=58
355792 On ch=1 n=d5 v=40
355832 On ch=1 n=a#5 v=0
356026 On ch=1 n=a#5 v=39
356034 On ch=1 n=f4 v=0
356036 On ch=1 n=a#4 v=41
356092 On ch=1 n=f5 v=0
356096 On ch=1 n=d5 v=0
356232 On ch=1 n=f2 v=0
356294 On ch=1 n=f5 v=37
356322 On ch=1 n=d5 v=37
356324 On ch=1 n=g4 v=30
356332 On ch=1 n=a#4 v=0
356366 On ch=1 n=a#5 v=0
356544 On ch=1 n=a#5 v=36
356576 On ch=1 n=f4 v=50
356596 On ch=1 n=g4 v=0
356600 On ch=1 n=f5 v=0
356612 On ch=1 n=d5 v=0
356828 On ch=1 n=f4 v=0
356850 On ch=1 n=f5 v=34
356862 On ch=1 n=d4 v=48
356880 On ch=1 n=d5 v=34
356914 On ch=1 n=a#5 v=0
357114 On ch=1 n=d6 v=0
357142 On ch=1 n=a#5 v=33
357144 On ch=1 n=d6 v=49
357154 On ch=1 n=a#3 v=34
357198 On ch=1 n=d4 v=0
357212 On ch=1 n=d5 v=0
357212 On ch=1 n=f5 v=0
357422 On ch=1 n=a#3 v=0
357486 On ch=1 n=g5 v=30
357488 On ch=1 n=g3 v=28
357494 On ch=1 n=d5 v=30
357542 On ch=1 n=a#5 v=0
357786 Par ch=1 c=64 v=0
357794 On ch=1 n=d6 v=0
357820 On ch=1 n=a5 v=33
357834 On ch=1 n=g3 v=0
357840 On ch=1 n=d6 v=51
357846 On ch=1 n=f3 v=41
357864 On ch=1 n=g5 v=0
357872 On ch=1 n=d5 v=0
357910 Par ch=1 c=64 v=127
358200 On ch=1 n=f5 v=35
358200 On ch=1 n=d#5 v=35
358200 On ch=1 n=f2 v=46
358236 On ch=1 n=f3 v=0
358240 On ch=1 n=a5 v=0
358558 Par ch=1 c=64 v=0
358610 On ch=1 n=d6 v=0
358644 On ch=1 n=a#2 v=45
358650 On ch=1 n=f2 v=0
358652 On ch=1 n=a5 v=39
358654 On ch=1 n=d6 v=56
358678 Par ch=1 c=64 v=127
358712 On ch=1 n=d#5 v=0
358712 On ch=1 n=f5 v=0
359140 On ch=1 n=f5 v=43
359150 On ch=1 n=d5 v=43
359164 On ch=1 n=f3 v=46
359228 On ch=1 n=a5 v=0
359504 On ch=1 n=d6 v=0
359558 On ch=1 n=a#5 v=45
359558 On ch=1 n=a#3 v=60
359566 On ch=1 n=d6 v=59
359616 On ch=1 n=f5 v=0
359620 On ch=1 n=f3 v=0
359630 On ch=1 n=d5 v=0
359926 On ch=1 n=f5 v=45
359926 On ch=1 n=d5 v=45
359926 On ch=1 n=f4 v=58
359934 On ch=1 n=a#3 v=0
360004 On ch=1 n=a#2 v=0
360152 On ch=1 n=a#5 v=0
360270 On ch=1 n=f4 v=0
360270 On ch=1 n=a#4 v=54
360282 On ch=1 n=a#5 v=44
360376 On ch=1 n=f5 v=0
360388 On ch=1 n=d5 v=0
360560 On ch=1 n=f5 v=42
360560 On ch=1 n=d5 v=42
360560 On ch=1 n=g4 v=60
360594 On ch=1 n=a#5 v=0
360600 On ch=1 n=a#4 v=0
360814 On ch=1 n=a#5 v=41
360830 On ch=1 n=f4 v=58
360836 On ch=1 n=g4 v=0
360872 On ch=1 n=f5 v=0
360890 On ch=1 n=d5 v=0
361076 On ch=1 n=f5 v=40
361088 On ch=1 n=d4 v=45
361100 On ch=1 n=d5 v=40
361134 On ch=1 n=a#5 v=0
361162 On ch=1 n=f4 v=0
361356 On ch=1 n=d6 v=0
361374 On ch=1 n=a#3 v=34
361390 On ch=1 n=d4 v=0
361390 On ch=1 n=a#5 v=39
361392 On ch=1 n=d6 v=60
361450 On ch=1 n=f5 v=0
361454 On ch=1 n=d5 v=0
361662 On ch=1 n=g5 v=39
361678 On ch=1 n=d5 v=39
361684 On ch=1 n=g3 v=42
361694 On ch=1 n=a#3 v=0
361736 On ch=1 n=a#5 v=0
361942 On ch=1 n=d6 v=0
361968 Par ch=1 c=64 v=0
361992 On ch=1 n=d6 v=60
361992 On ch=1 n=a5 v=38
362006 On ch=1 n=f3 v=52
362016 On ch=1 n=g3 v=0
362040 On ch=1 n=g5 v=0
362056 On ch=1 n=d5 v=0
362092 Par ch=1 c=64 v=127
362334 On ch=1 n=f2 v=45
362346 On ch=1 n=f5 v=37
362360 On ch=1 n=d#5 v=37
362402 On ch=1 n=a5 v=0
362456 On ch=1 n=f3 v=0
362762 On ch=1 n=d6 v=0
362762 Par ch=1 c=64 v=0
362770 On ch=1 n=a#2 v=41
362784 On ch=1 n=a5 v=35
362790 On ch=1 n=d6 v=52
362792 On ch=1 n=f2 v=0
362838 On ch=1 n=f5 v=0
362852 On ch=1 n=d#5 v=0
362904 Par ch=1 c=64 v=127
363160 On ch=1 n=d5 v=34
363180 On ch=1 n=f3 v=42
363190 On ch=1 n=f5 v=34
363416 On ch=1 n=a5 v=0
363422 On ch=1 n=d6 v=0
363536 On ch=1 n=a#5 v=33
363552 On ch=1 n=d6 v=48
363564 On ch=1 n=a#3 v=39
363582 On ch=1 n=f3 v=0
363594 On ch=1 n=d5 v=0
363598 On ch=1 n=f5 v=0
363870 On ch=1 n=f5 v=31
363874 On ch=1 n=f4 v=46
363884 On ch=1 n=d5 v=31
363902 On ch=1 n=a#3 v=0
363930 On ch=1 n=a#5 v=0
363956 On ch=1 n=d6 v=0
364150 On ch=1 n=a#2 v=0
364160 On ch=1 n=d6 v=44
364160 On ch=1 n=a#5 v=30
364174 On ch=1 n=f#4 v=34
364196 On ch=1 n=f4 v=0
364210 On ch=1 n=f5 v=0
364222 On ch=1 n=d5 v=0
364432 On ch=1 n=f5 v=30
364432 On ch=1 n=d5 v=30
364440 On ch=1 n=f4 v=41
364506 On ch=1 n=f#4 v=0
364564 On ch=1 n=a#5 v=0
364564 On ch=1 n=d6 v=0
364584 Par ch=1 c=64 v=0
364720 On ch=1 n=f#5 v=33
364732 On ch=1 n=a#5 v=40
364734 On ch=1 n=d#4 v=42
364758 Par ch=1 c=64 v=127
364774 On ch=1 n=f4 v=0
364780 On ch=1 n=d5 v=0
364794 On ch=1 n=f5 v=0
365048 On ch=1 n=d4 v=33
365056 On ch=1 n=f5 v=32
365056 On ch=1 n=a#4 v=34
365072 On ch=1 n=d#4 v=0
365124 On ch=1 n=f#5 v=0
365136 On ch=1 n=a#5 v=0
365400 On ch=1 n=d4 v=0
365400 On ch=1 n=d4 v=33
365404 On ch=1 n=d4 v=0
365408 On ch=1 n=e5 v=39
365408 On ch=1 n=g4 v=29
365416 On ch=1 n=c#4 v=36
365432 On ch=1 n=a#4 v=0
365432 On ch=1 n=f5 v=0
365760 On ch=1 n=d#5 v=37
365760 On ch=1 n=c4 v=34
365776 On ch=1 n=a4 v=31
365812 On ch=1 n=g4 v=0
365812 On ch=1 n=e5 v=0
365816 On ch=1 n=c#4 v=0
366054 On ch=1 n=a#3 v=39
366056 On ch=1 n=a#4 v=33
366068 On ch=1 n=d5 v=41
366164 On ch=1 n=d#5 v=0
366180 On ch=1 n=a4 v=0
366258 On ch=1 n=c4 v=0
366416 On ch=1 n=g5 v=43
366416 On ch=1 n=d#5 v=34
366416 On ch=1 n=d#3 v=40
366460 On ch=1 n=a#4 v=0
366472 On ch=1 n=d5 v=0
366500 On ch=1 n=a#3 v=0
366720 On ch=1 n=d5 v=42
366728 On ch=1 n=a#2 v=53
366728 On ch=1 n=f5 v=34
366748 On ch=1 n=d#3 v=0
366748 On ch=1 n=d#5 v=0
366748 On ch=1 n=g5 v=0
366864 Par ch=1 c=64 v=127
367032 On ch=1 n=d5 v=0
367050 On ch=1 n=f5 v=0
367088 On ch=1 n=f4 v=39
367096 On ch=1 n=a#4 v=39
367360 On ch=1 n=f5 v=44
367364 On ch=1 n=d5 v=37
367406 On ch=1 n=f4 v=0
367408 On ch=1 n=a#4 v=0
367654 On ch=1 n=c#5 v=35
367664 On ch=1 n=f5 v=0
367668 On ch=1 n=f4 v=35
367688 On ch=1 n=d5 v=0
367940 On ch=1 n=d5 v=34
367952 On ch=1 n=f5 v=38
367986 On ch=1 n=c#5 v=0
367988 On ch=1 n=f4 v=0
368190 On ch=1 n=d5 v=0
368206 On ch=1 n=f5 v=0
368216 On ch=1 n=a#4 v=31
368216 On ch=1 n=f4 v=31
368524 On ch=1 n=f#5 v=40
368524 On ch=1 n=d5 v=33
368536 On ch=1 n=a#4 v=0
368576 On ch=1 n=f4 v=0
368834 On ch=1 n=f#4 v=34
368850 On ch=1 n=c#5 v=34
368926 On ch=1 n=d5 v=0
368926 On ch=1 n=f#5 v=0
369200 On ch=1 n=d5 v=36
369212 On ch=1 n=f#5 v=45
369238 On ch=1 n=f#4 v=0
369238 On ch=1 n=a#2 v=0
369240 On ch=1 n=b2 v=47
369240 Par ch=1 c=64 v=0
369254 On ch=1 n=c#5 v=0
369344 Par ch=1 c=64 v=127
369588 On ch=1 n=b4 v=38
369594 On ch=1 n=f#4 v=38
369640 On ch=1 n=d5 v=0
369652 On ch=1 n=f#5 v=0
369976 On ch=1 n=f#5 v=34
369976 On ch=1 n=d#5 v=39
370050 On ch=1 n=b4 v=0
370056 On ch=1 n=f#4 v=0
370352 On ch=1 n=d5 v=41
370378 On ch=1 n=f#4 v=42
370380 On ch=1 n=d#5 v=0
370380 On ch=1 n=f#5 v=0
370770 On ch=1 n=f#5 v=49
370774 On ch=1 n=d#5 v=42
370814 On ch=1 n=d5 v=0
370840 On ch=1 n=f#4 v=0
370842 Par ch=1 c=64 v=0
371032 Par ch=1 c=64 v=127
371090 On ch=1 n=f#3 v=50
371108 On ch=1 n=b4 v=39
371116 On ch=1 n=f#4 v=39
371146 On ch=1 n=d#5 v=0
371162 On ch=1 n=f#5 v=0
371192 On ch=1 n=b2 v=0
371428 On ch=1 n=d#5 v=37
371430 On ch=1 n=f#5 v=40
371440 On ch=1 n=b4 v=0
371440 On ch=1 n=b3 v=49
371454 On ch=1 n=f#3 v=0
371474 On ch=1 n=f#4 v=0
371712 On ch=1 n=f#4 v=34
371724 On ch=1 n=c#4 v=47
371732 On ch=1 n=d#5 v=0
371732 On ch=1 n=b4 v=34
371742 On ch=1 n=f#5 v=0
371788 On ch=1 n=b3 v=0
372002 On ch=1 n=d#5 v=34
372002 On ch=1 n=d#4 v=41
372008 On ch=1 n=f#4 v=0
372012 On ch=1 n=f#5 v=38
372028 On ch=1 n=b4 v=0
372042 On ch=1 n=c#4 v=0
372272 On ch=1 n=b4 v=30
372272 On ch=1 n=g#4 v=43
372334 On ch=1 n=d#4 v=0
372344 On ch=1 n=f#5 v=0
372356 On ch=1 n=d#5 v=0
372510 Par ch=1 c=64 v=0
372528 On ch=1 n=f#5 v=45
372538 On ch=1 n=f#4 v=46
372544 On ch=1 n=d#5 v=37
372574 On ch=1 n=g#4 v=0
372574 On ch=1 n=b4 v=0
372632 Par ch=1 c=64 v=127
372768 On ch=1 n=f#4 v=0
372768 On ch=1 n=f#4 v=48
372792 On ch=1 n=d#4 v=48
372816 On ch=1 n=b4 v=37
372842 On ch=1 n=f#5 v=0
372858 On ch=1 n=d#5 v=0
373084 On ch=1 n=f#4 v=0
373098 On ch=1 n=b4 v=0
373104 On ch=1 n=d#5 v=37
373112 On ch=1 n=f#5 v=43
373126 On ch=1 n=c#4 v=43
373168 On ch=1 n=d#4 v=0
373436 On ch=1 n=d#5 v=0
373440 On ch=1 n=b4 v=37
373444 On ch=1 n=f#5 v=0
373464 On ch=1 n=b5 v=53
373466 On ch=1 n=d#4 v=36
373472 On ch=1 n=c#4 v=0
373772 On ch=1 n=b4 v=0
373808 On ch=1 n=c#4 v=49
373812 On ch=1 n=d#5 v=37
373818 On ch=1 n=a#5 v=59
373832 On ch=1 n=b5 v=0
373846 On ch=1 n=d#4 v=0
374144 On ch=1 n=d#5 v=0
374286 On ch=1 n=c#4 v=0
374314 On ch=1 n=b3 v=54
374336 On ch=1 n=f#4 v=37
374338 On ch=1 n=b4 v=37
374626 On ch=1 n=g#5 v=49
374648 On ch=1 n=a#5 v=0
374730 On ch=1 n=f#4 v=0
374732 On ch=1 n=b4 v=0
374852 Par ch=1 c=64 v=0
374864 On ch=1 n=g#5 v=0
374896 On ch=1 n=e5 v=37
374902 On ch=1 n=b3 v=0
374902 On ch=1 n=g#5 v=51
374918 On ch=1 n=f#2 v=45
374990 Par ch=1 c=64 v=127
375228 On ch=1 n=e5 v=0
375280 On ch=1 n=b4 v=37
375280 On ch=1 n=f#4 v=37
375288 On ch=1 n=f#3 v=58
375600 On ch=1 n=c#4 v=52
375612 On ch=1 n=f#4 v=0
375612 On ch=1 n=b4 v=0
375616 On ch=1 n=f#5 v=45
375616 On ch=1 n=e5 v=37
375632 On ch=1 n=g#5 v=0
375720 On ch=1 n=f#3 v=0
375884 On ch=1 n=c#4 v=0
375912 On ch=1 n=d#4 v=49
375920 On ch=1 n=a#4 v=37
375920 On ch=1 n=f#4 v=37
375948 On ch=1 n=e5 v=0
376160 On ch=1 n=f#4 v=0
376160 On ch=1 n=a#4 v=0
376186 Par ch=1 c=64 v=0
376208 On ch=1 n=e5 v=37
376208 On ch=1 n=e4 v=49
376258 On ch=1 n=d#4 v=0
376320 On ch=1 n=f#2 v=0
376444 Par ch=1 c=64 v=127
376470 On ch=1 n=e5 v=0
376480 On ch=1 n=a#4 v=37
376480 On ch=1 n=g#4 v=46
376580 On ch=1 n=e4 v=0
376768 On ch=1 n=a#4 v=0
376800 On ch=1 n=d#5 v=37
376820 On ch=1 n=f#4 v=51
376834 On ch=1 n=g#4 v=0
377050 On ch=1 n=f#4 v=0
377062 On ch=1 n=d#4 v=50
377072 On ch=1 n=f#4 v=37
377074 On ch=1 n=b4 v=37
377132 On ch=1 n=d#5 v=0
377352 On ch=1 n=f#4 v=0
377354 On ch=1 n=b4 v=0
377380 On ch=1 n=d#5 v=37
377382 On ch=1 n=c#4 v=51
377436 On ch=1 n=d#4 v=0
377712 On ch=1 n=d#5 v=0
377720 On ch=1 n=b5 v=57
377728 On ch=1 n=b4 v=37
377730 On ch=1 n=d#4 v=48
377758 On ch=1 n=c#4 v=0
377766 On ch=1 n=f#5 v=0
378032 On ch=1 n=d#5 v=37
378036 On ch=1 n=c#4 v=52
378044 On ch=1 n=a#5 v=69
378060 On ch=1 n=b4 v=0
378070 On ch=1 n=b5 v=0
378124 On ch=1 n=d#4 v=0
378320 On ch=1 n=f#4 v=37
378324 On ch=1 n=b4 v=37
378364 On ch=1 n=d#5 v=0
378366 On ch=1 n=b3 v=47
378412 On ch=1 n=c#4 v=0
378564 On ch=1 n=g#5 v=51
378594 On ch=1 n=a#5 v=0
378652 On ch=1 n=f#4 v=0
378656 On ch=1 n=b4 v=0
378666 On ch=1 n=g#5 v=0
378728 Par ch=1 c=64 v=0
378736 On ch=1 n=e5 v=37
378740 On ch=1 n=g#5 v=61
378772 On ch=1 n=f#2 v=42
378816 On ch=1 n=b3 v=0
378838 Par ch=1 c=64 v=127
379068 On ch=1 n=e5 v=0
379072 On ch=1 n=b4 v=37
379072 On ch=1 n=f#4 v=37
379084 On ch=1 n=f#3 v=43
379378 On ch=1 n=c#4 v=50
379390 On ch=1 n=g#5 v=0
379392 On ch=1 n=f#5 v=48
379392 On ch=1 n=e5 v=37
379404 On ch=1 n=f#4 v=0
379404 On ch=1 n=b4 v=0
379438 On ch=1 n=f#3 v=0
379646 On ch=1 n=d#4 v=51
379648 On ch=1 n=f#4 v=37
379654 On ch=1 n=a#4 v=37
379692 On ch=1 n=c#4 v=0
379724 On ch=1 n=e5 v=0
379884 On ch=1 n=f#4 v=0
379890 On ch=1 n=a#4 v=0
379904 On ch=1 n=e4 v=56
379910 On ch=1 n=d#4 v=0
379920 On ch=1 n=e5 v=37
380132 On ch=1 n=f#2 v=0
380184 On ch=1 n=a#4 v=37
380184 On ch=1 n=g#4 v=55
380240 On ch=1 n=e4 v=0
380252 On ch=1 n=e5 v=0
380428 On ch=1 n=a#4 v=0
380432 On ch=1 n=d#5 v=37
380436 On ch=1 n=f#4 v=52
380506 On ch=1 n=g#4 v=0
380666 On ch=1 n=f#4 v=0
380692 On ch=1 n=b4 v=37
380692 On ch=1 n=d#4 v=52
380712 On ch=1 n=f#4 v=37
380764 On ch=1 n=d#5 v=0
380922 On ch=1 n=f#5 v=0
380948 On ch=1 n=f#5 v=61
380966 On ch=1 n=c#4 v=53
380968 On ch=1 n=d#5 v=37
380972 On ch=1 n=b4 v=0
380992 On ch=1 n=f#4 v=0
380994 On ch=1 n=d#4 v=0
381194 On ch=1 n=d#5 v=0
381208 On ch=1 n=d#4 v=30
381216 On ch=1 n=f#4 v=37
381224 On ch=1 n=b4 v=37
381298 On ch=1 n=c#4 v=0
381420 Par ch=1 c=64 v=0
381458 On ch=1 n=f#5 v=0
381482 On ch=1 n=f#5 v=61
381494 On ch=1 n=c#4 v=53
381496 On ch=1 n=d#5 v=37
381536 On ch=1 n=f#4 v=0
381536 Par ch=1 c=64 v=127
381544 On ch=1 n=b4 v=0
381544 On ch=1 n=d#4 v=0
381776 On ch=1 n=b4 v=37
381784 On ch=1 n=f#4 v=37
381812 On ch=1 n=b3 v=47
381826 On ch=1 n=c#4 v=0
381828 On ch=1 n=d#5 v=0
381992 On ch=1 n=f#5 v=0
381998 On ch=1 n=g#5 v=64
382108 On ch=1 n=b4 v=0
382116 On ch=1 n=f#4 v=0
382262 On ch=1 n=b3 v=0
382266 Par ch=1 c=64 v=0
382272 On ch=1 n=d#5 v=37
382284 On ch=1 n=a5 v=61
382288 On ch=1 n=g#5 v=0
382308 On ch=1 n=b2 v=50
382378 Par ch=1 c=64 v=127
382648 On ch=1 n=d#5 v=0
382662 On ch=1 n=b4 v=37
382672 On ch=1 n=f#3 v=51
382680 On ch=1 n=f#4 v=37
382736 On ch=1 n=a5 v=0
382952 On ch=1 n=b3 v=54
382954 On ch=1 n=a5 v=61
382960 On ch=1 n=d#5 v=37
383004 On ch=1 n=f#3 v=0
383032 On ch=1 n=b4 v=0
383050 On ch=1 n=f#4 v=0
383216 On ch=1 n=f#4 v=37
383216 On ch=1 n=c#4 v=52
383224 On ch=1 n=b4 v=37
383284 On ch=1 n=b3 v=0
383292 On ch=1 n=d#5 v=0
383294 On ch=1 n=a5 v=0
383462 On ch=1 n=c#4 v=0
383466 On ch=1 n=d#4 v=52
383480 On ch=1 n=a5 v=59
383558 On ch=1 n=f#4 v=0
383566 On ch=1 n=b4 v=0
383638 On ch=1 n=b2 v=0
383728 On ch=1 n=a4 v=37
383736 On ch=1 n=c#5 v=53
383798 On ch=1 n=d#4 v=0
383836 On ch=1 n=a5 v=0
384000 On ch=1 n=d#5 v=37
384002 On ch=1 n=a5 v=61
384008 On ch=1 n=b4 v=59
384060 On ch=1 n=a4 v=0
384068 On ch=1 n=c#5 v=0
384238 On ch=1 n=b4 v=0
384248 On ch=1 n=g#4 v=47
384256 On ch=1 n=b4 v=34
384290 On ch=1 n=d#5 v=0
384292 On ch=1 n=a5 v=0
384544 On ch=1 n=a5 v=66
384558 On ch=1 n=d#5 v=37
384560 Par ch=1 c=64 v=0
384578 On ch=1 n=f#4 v=50
384600 On ch=1 n=g#4 v=0
384608 On ch=1 n=b4 v=0
384642 Par ch=1 c=64 v=127
384880 On ch=1 n=a4 v=37
384882 On ch=1 n=g#4 v=42
384888 On ch=1 n=b4 v=37
384898 On ch=1 n=f#4 v=0
384954 On ch=1 n=a5 v=0
384968 On ch=1 n=d#5 v=0
385184 On ch=1 n=e5 v=37
385184 On ch=1 n=f#4 v=49
385198 On ch=1 n=a5 v=62
385234 On ch=1 n=a4 v=0
385236 On ch=1 n=g#4 v=0
385242 On ch=1 n=b4 v=0
385516 On ch=1 n=f#4 v=0
385520 On ch=1 n=e4 v=46
385520 On ch=1 n=b4 v=37
385528 On ch=1 n=g#4 v=18
385640 On ch=1 n=a5 v=0
385716 On ch=1 n=g#5 v=50
385724 On ch=1 n=e5 v=0
385840 On ch=1 n=b4 v=0
385848 On ch=1 n=g#4 v=0
385924 On ch=1 n=b5 v=61
385930 On ch=1 n=d4 v=47
385940 On ch=1 n=g#5 v=0
385940 Par ch=1 c=64 v=0
385944 On ch=1 n=f#5 v=37
385954 On ch=1 n=e4 v=0
386030 Par ch=1 c=64 v=127
386290 On ch=1 n=b4 v=37
386290 On ch=1 n=f#4 v=46
386304 On ch=1 n=d3 v=37
386412 On ch=1 n=d4 v=0
386428 On ch=1 n=f#5 v=0
386554 On ch=1 n=b5 v=0
386576 Par ch=1 c=64 v=0
386600 On ch=1 n=f#5 v=37
386604 On ch=1 n=c#3 v=43
386608 On ch=1 n=b5 v=61
386614 On ch=1 n=d3 v=0
386628 On ch=1 n=f#4 v=0
386628 On ch=1 n=b4 v=0
386672 Par ch=1 c=64 v=127
386864 On ch=1 n=c#5 v=37
386864 On ch=1 n=b4 v=37
386864 On ch=1 n=c#4 v=52
386944 On ch=1 n=f#5 v=0
387056 On ch=1 n=c#3 v=0
387088 On ch=1 n=b5 v=0
387116 On ch=1 n=g#4 v=31
387126 On ch=1 n=b5 v=57
387136 On ch=1 n=f5 v=37
387188 On ch=1 n=b4 v=0
387188 On ch=1 n=c#5 v=0
387196 On ch=1 n=c#4 v=0
387404 On ch=1 n=b4 v=48
387406 On ch=1 n=d#5 v=42
387424 On ch=1 n=f5 v=0
387448 On ch=1 n=g#4 v=0
387656 On ch=1 n=b5 v=0
387680 On ch=1 n=f5 v=37
387680 On ch=1 n=c#5 v=52
387694 On ch=1 n=b5 v=55
387730 On ch=1 n=b4 v=0
387738 On ch=1 n=d#5 v=0
387950 On ch=1 n=c#5 v=0
388008 On ch=1 n=c#5 v=36
388008 On ch=1 n=b4 v=36
388008 On ch=1 n=g#4 v=41
388012 On ch=1 n=f5 v=0
388338 On ch=1 n=g#4 v=0
388340 On ch=1 n=b4 v=0
388340 On ch=1 n=c#5 v=0
388344 On ch=1 n=b5 v=0
388344 On ch=1 n=b5 v=54
388344 On ch=1 n=g4 v=53
388360 On ch=1 n=e5 v=35
388364 On ch=1 n=b5 v=0
388368 On ch=1 n=b5 v=51
388692 On ch=1 n=e5 v=0
388696 On ch=1 n=c#5 v=34
388704 On ch=1 n=b4 v=34
388704 On ch=1 n=g#4 v=39
388794 On ch=1 n=g4 v=0
388938 On ch=1 n=b5 v=0
389000 On ch=1 n=c#5 v=0
389008 On ch=1 n=b4 v=0
389036 On ch=1 n=g#4 v=0
389056 On ch=1 n=e5 v=34
389056 On ch=1 n=g4 v=54
389062 On ch=1 n=a#5 v=52
389368 On ch=1 n=c#5 v=34
389376 On ch=1 n=a#4 v=34
389384 On ch=1 n=f#4 v=50
389388 On ch=1 n=g4 v=0
389388 On ch=1 n=e5 v=0
389652 On ch=1 n=a#5 v=0
389700 On ch=1 n=c#5 v=0
389704 On ch=1 n=f5 v=34
389708 On ch=1 n=a#4 v=0
389714 On ch=1 n=a#5 v=56
389722 On ch=1 n=f4 v=44
389760 On ch=1 n=f#4 v=0
389984 On ch=1 n=c#5 v=34
389984 On ch=1 n=a#4 v=34
390000 On ch=1 n=f#4 v=41
390012 On ch=1 n=f4 v=0
390036 On ch=1 n=f5 v=0
390224 On ch=1 n=a#5 v=0
390230 On ch=1 n=f4 v=42
390238 On ch=1 n=a#5 v=61
390246 Par ch=1 c=64 v=0
390260 On ch=1 n=f#5 v=34
390280 On ch=1 n=f#4 v=0
390316 On ch=1 n=a#4 v=0
390316 On ch=1 n=c#5 v=0
390488 Par ch=1 c=64 v=127
390504 On ch=1 n=c#5 v=33
390510 On ch=1 n=a#4 v=33
390514 On ch=1 n=e4 v=46
390576 On ch=1 n=f4 v=0
390592 On ch=1 n=f#5 v=0
390748 On ch=1 n=a#5 v=0
390760 On ch=1 n=g5 v=33
390782 On ch=1 n=a#5 v=52
390800 On ch=1 n=d#4 v=41
390816 On ch=1 n=e4 v=0
390836 On ch=1 n=c#5 v=0
390842 On ch=1 n=a#4 v=0
391048 On ch=1 n=c#5 v=32
391054 On ch=1 n=a#4 v=32
391068 On ch=1 n=e4 v=43
391092 On ch=1 n=g5 v=0
391132 On ch=1 n=d#4 v=0
391274 Par ch=1 c=64 v=0
391292 On ch=1 n=a#5 v=0
391320 On ch=1 n=g5 v=32
391326 On ch=1 n=d#4 v=40
391334 On ch=1 n=a#5 v=51
391346 On ch=1 n=e4 v=0
391380 On ch=1 n=c#5 v=0
391386 On ch=1 n=a#4 v=0
391396 Par ch=1 c=64 v=127
391652 On ch=1 n=g5 v=0
391656 On ch=1 n=a#4 v=32
391664 On ch=1 n=d5 v=32
391666 On ch=1 n=d4 v=42
391678 On ch=1 n=d#4 v=0
391942 On ch=1 n=a#5 v=0
391960 On ch=1 n=a#5 v=47
391970 On ch=1 n=c#4 v=42
391978 On ch=1 n=g5 v=31
391988 On ch=1 n=a#4 v=0
391996 On ch=1 n=d5 v=0
392010 On ch=1 n=d4 v=0
392254 On ch=1 n=d4 v=41
392264 On ch=1 n=d#5 v=30
392268 On ch=1 n=g5 v=0
392268 On ch=1 n=a#4 v=30
392288 On ch=1 n=c#4 v=0
392550 On ch=1 n=a#5 v=0
392574 On ch=1 n=c#4 v=27
392594 On ch=1 n=a#5 v=51
392598 On ch=1 n=d4 v=0
392604 On ch=1 n=g5 v=30
392626 On ch=1 n=d#5 v=0
392630 On ch=1 n=a#4 v=0
392900 On ch=1 n=g5 v=0
392906 On ch=1 n=e5 v=30
392912 On ch=1 n=c4 v=39
392918 On ch=1 n=a#4 v=29
392950 On ch=1 n=c#4 v=0
393208 On ch=1 n=e5 v=0
393220 On ch=1 n=a#4 v=0
393280 Par ch=1 c=64 v=0
393308 On ch=1 n=b3 v=34
393324 On ch=1 n=g4 v=34
393338 On ch=1 n=b5 v=47
393338 On ch=1 n=g5 v=29
393344 On ch=1 n=a#5 v=0
393344 On ch=1 n=b4 v=29
393356 On ch=1 n=e5 v=29
393382 On ch=1 n=c4 v=0
393412 Par ch=1 c=64 v=127
393820 On ch=1 n=b3 v=0
393850 On ch=1 n=g5 v=0
393850 On ch=1 n=b5 v=0
393868 On ch=1 n=e5 v=0
393872 On ch=1 n=b4 v=0
393876 On ch=1 n=g4 v=0
394274 Par ch=1 c=64 v=0
394350 On ch=1 n=g5 v=35
394358 On ch=1 n=c6 v=40
394358 On ch=1 n=e5 v=34
394358 On ch=1 n=c5 v=29
394366 On ch=1 n=a#3 v=32
394382 On ch=1 n=g4 v=21
394402 Par ch=1 c=64 v=127
394548 On ch=1 n=e5 v=0
394556 On ch=1 n=g5 v=0
394564 On ch=1 n=c6 v=0
394568 On ch=1 n=c5 v=0
394592 On ch=1 n=g4 v=0
394608 On ch=1 n=a#3 v=0
397012 Par ch=1 c=64 v=0
397110 On ch=1 n=c5 v=42
397640 On ch=1 n=c#5 v=47
397674 On ch=1 n=c5 v=0
398280 Par ch=1 c=64 v=127
398548 Par ch=1 c=64 v=0
398680 On ch=1 n=e5 v=42
398702 On ch=1 n=c#5 v=0
398782 Par ch=1 c=64 v=127
400058 On ch=1 n=d#5 v=38
400064 On ch=1 n=e5 v=0
400604 Par ch=1 c=64 v=0
400626 On ch=1 n=a#5 v=48
400634 On ch=1 n=g3 v=43
400664 On ch=1 n=d#5 v=0
400738 Par ch=1 c=64 v=127
401328 On ch=1 n=d#5 v=22
401334 On ch=1 n=c#5 v=22
401350 On ch=1 n=a#4 v=22
401360 On ch=1 n=d#4 v=22
402038 On ch=1 n=d#5 v=0
402044 On ch=1 n=c#5 v=0
402060 On ch=1 n=a#4 v=0
402070 On ch=1 n=d#4 v=0
402086 On ch=1 n=a#4 v=22
402096 On ch=1 n=d#5 v=22
402100 On ch=1 n=c#5 v=22
402108 On ch=1 n=d#4 v=22
402238 On ch=1 n=a#5 v=0
402240 On ch=1 n=g3 v=0
402408 On ch=1 n=a#4 v=0
402418 On ch=1 n=d#5 v=0
402422 On ch=1 n=c#5 v=0
402430 On ch=1 n=d#4 v=0
402456 On ch=1 n=d#4 v=22
402478 On ch=1 n=g#5 v=52
402480 On ch=1 n=d#5 v=22
402492 On ch=1 n=c#5 v=22
402504 On ch=1 n=a#4 v=22
402778 On ch=1 n=d#4 v=0
402802 On ch=1 n=d#5 v=0
402814 On ch=1 n=c#5 v=0
402826 On ch=1 n=a#4 v=0
402902 On ch=1 n=d#5 v=22
402908 On ch=1 n=a#4 v=22
402910 On ch=1 n=c#5 v=22
402920 On ch=1 n=d#4 v=22
403134 On ch=1 n=a#5 v=51
403166 On ch=1 n=g#5 v=0
403196 On ch=1 n=d#5 v=0
403202 On ch=1 n=a#4 v=0
403204 On ch=1 n=c#5 v=0
403242 On ch=1 n=d#4 v=0
403388 Par ch=1 c=64 v=0
403416 On ch=1 n=g#3 v=45
403432 On ch=1 n=b5 v=52
403466 On ch=1 n=a#5 v=0
403484 Par ch=1 c=64 v=127
403722 On ch=1 n=a#5 v=47
403750 On ch=1 n=b5 v=0
403952 On ch=1 n=d#4 v=22
403966 On ch=1 n=g#5 v=43
403966 On ch=1 n=g#4 v=22
403968 On ch=1 n=d#5 v=22
403974 On ch=1 n=a#5 v=0
403982 On ch=1 n=b4 v=22
404170 On ch=1 n=e6 v=46
404212 On ch=1 n=g#5 v=0
404346 On ch=1 n=d#6 v=52
404394 On ch=1 n=e6 v=0
404602 On ch=1 n=d#4 v=0
404616 On ch=1 n=g#4 v=0
404618 On ch=1 n=d#5 v=0
404632 On ch=1 n=b4 v=0
404658 On ch=1 n=d#5 v=22
404664 On ch=1 n=d#4 v=22
404674 On ch=1 n=g#4 v=22
404680 On ch=1 n=b4 v=22
404940 On ch=1 n=d#5 v=0
404946 On ch=1 n=d#4 v=0
404956 On ch=1 n=g#4 v=0
404962 On ch=1 n=b4 v=0
404976 On ch=1 n=g#3 v=0
404976 On ch=1 n=g#4 v=22
404976 On ch=1 n=d#4 v=22
404978 On ch=1 n=d#5 v=22
404990 On ch=1 n=b4 v=22
405258 On ch=1 n=d#4 v=0
405258 On ch=1 n=g#4 v=0
405260 On ch=1 n=d#5 v=0
405272 On ch=1 n=b4 v=0
405292 On ch=1 n=d#4 v=22
405296 On ch=1 n=d#5 v=22
405310 On ch=1 n=b4 v=22
405312 On ch=1 n=g#4 v=22
405574 On ch=1 n=d#4 v=0
405578 On ch=1 n=d#5 v=0
405592 On ch=1 n=b4 v=0
405594 On ch=1 n=g#4 v=0
405702 Par ch=1 c=64 v=0
405740 On ch=1 n=a#5 v=53
405750 On ch=1 n=g3 v=48
405808 On ch=1 n=d#6 v=0
405816 Par ch=1 c=64 v=127
406192 On ch=1 n=d#5 v=22
406200 On ch=1 n=d#4 v=22
406208 On ch=1 n=a#4 v=22
406220 On ch=1 n=c#5 v=22
406474 On ch=1 n=d#5 v=0
406482 On ch=1 n=d#4 v=0
406490 On ch=1 n=a#4 v=0
406502 On ch=1 n=c#5 v=0
406560 On ch=1 n=d#5 v=22
406560 On ch=1 n=c#5 v=22
406568 On ch=1 n=d#4 v=22
406576 On ch=1 n=a#4 v=22
406822 On ch=1 n=c#5 v=0
406822 On ch=1 n=d#5 v=0
406830 On ch=1 n=d#4 v=0
406838 On ch=1 n=a#4 v=0
406880 On ch=1 n=d#5 v=22
406880 On ch=1 n=c#5 v=22
406880 On ch=1 n=a#4 v=22
406912 On ch=1 n=d#4 v=22
407162 On ch=1 n=a#4 v=0
407162 On ch=1 n=c#5 v=0
407162 On ch=1 n=d#5 v=0
407194 On ch=1 n=d#4 v=0
407248 On ch=1 n=d#5 v=22
407248 On ch=1 n=a#4 v=22
407254 On ch=1 n=c#5 v=22
407256 On ch=1 n=g#5 v=58
407264 On ch=1 n=d#4 v=22
407288 On ch=1 n=a#5 v=0
407292 On ch=1 n=g3 v=0
407570 On ch=1 n=a#4 v=0
407570 On ch=1 n=d#5 v=0
407576 On ch=1 n=c#5 v=0
407586 On ch=1 n=d#4 v=0
407664 On ch=1 n=d#5 v=22
407664 On ch=1 n=c#5 v=22
407664 On ch=1 n=a#4 v=22
407680 On ch=1 n=d#4 v=22
407878 On ch=1 n=a#5 v=51
407938 On ch=1 n=g#5 v=0
407946 On ch=1 n=a#4 v=0
407946 On ch=1 n=c#5 v=0
407946 On ch=1 n=d#5 v=0
407962 On ch=1 n=d#4 v=0
408076 On ch=1 n=a#5 v=0
408222 Par ch=1 c=64 v=0
408246 On ch=1 n=g#3 v=38
408260 On ch=1 n=b5 v=52
408336 Par ch=1 c=64 v=127
408538 On ch=1 n=g#5 v=53
408574 On ch=1 n=b5 v=0
408768 On ch=1 n=d#5 v=22
408768 On ch=1 n=b4 v=22
408768 On ch=1 n=d#4 v=22
408784 On ch=1 n=g#4 v=22
408792 On ch=1 n=f#6 v=45
408922 On ch=1 n=e6 v=51
408940 On ch=1 n=f#6 v=0
408954 On ch=1 n=g#5 v=0
409060 On ch=1 n=d#6 v=37
409080 On ch=1 n=e6 v=0
409138 On ch=1 n=d#6 v=0
409196 On ch=1 n=d#6 v=57
409478 On ch=1 n=d#4 v=0
409478 On ch=1 n=b4 v=0
409478 On ch=1 n=d#5 v=0
409494 On ch=1 n=g#4 v=0
409516 On ch=1 n=d#5 v=22
409528 On ch=1 n=g#4 v=22
409530 On ch=1 n=d#4 v=22
409536 On ch=1 n=b4 v=22
409798 On ch=1 n=d#5 v=0
409810 On ch=1 n=g#4 v=0
409812 On ch=1 n=d#4 v=0
409818 On ch=1 n=b4 v=0
409836 On ch=1 n=g#3 v=0
409852 On ch=1 n=d#5 v=22
409864 On ch=1 n=b4 v=22
409864 On ch=1 n=d#4 v=22
409880 On ch=1 n=g#4 v=22
410134 On ch=1 n=d#5 v=0
410146 On ch=1 n=d#4 v=0
410146 On ch=1 n=b4 v=0
410162 On ch=1 n=g#4 v=0
410220 On ch=1 n=d#5 v=22
410228 On ch=1 n=d#6 v=0
410228 On ch=1 n=d#4 v=22
410238 On ch=1 n=b4 v=22
410244 On ch=1 n=g#4 v=22
410502 On ch=1 n=d#5 v=0
410510 On ch=1 n=d#4 v=0
410520 On ch=1 n=b4 v=0
410526 On ch=1 n=g#4 v=0
410640 On ch=1 n=b2 v=52
410648 On ch=1 n=b3 v=48
410656 On ch=1 n=d#6 v=54
411240 On ch=1 n=f#4 v=29
411240 On ch=1 n=d#4 v=29
411248 On ch=1 n=b4 v=29
411256 On ch=1 n=d#5 v=29
411562 On ch=1 n=d#4 v=0
411562 On ch=1 n=f#4 v=0
411570 On ch=1 n=b4 v=0
411578 On ch=1 n=d#5 v=0
411590 On ch=1 n=d#5 v=30
411606 On ch=1 n=f#4 v=30
411612 On ch=1 n=b4 v=30
411622 On ch=1 n=d#4 v=30
411852 On ch=1 n=d#5 v=0
411868 On ch=1 n=f#4 v=0
411874 On ch=1 n=b4 v=0
411884 On ch=1 n=d#4 v=0
411906 On ch=1 n=d#5 v=31
411912 On ch=1 n=d#4 v=31
411922 On ch=1 n=c#6 v=56
411922 On ch=1 n=f#4 v=31
411930 On ch=1 n=b4 v=31
411960 On ch=1 n=d#6 v=0
412088 On ch=1 n=b5 v=57
412132 On ch=1 n=c#6 v=0
412188 On ch=1 n=d#5 v=0
412194 On ch=1 n=d#4 v=0
412204 On ch=1 n=f#4 v=0
412212 On ch=1 n=b4 v=0
412240 On ch=1 n=b4 v=31
412256 On ch=1 n=a#5 v=59
412256 On ch=1 n=d#5 v=31
412256 On ch=1 n=f#4 v=31
412256 On ch=1 n=d#4 v=31
412288 On ch=1 n=b5 v=0
412422 On ch=1 n=c#6 v=58
412480 On ch=1 n=a#5 v=0
412522 On ch=1 n=b4 v=0
412538 On ch=1 n=d#4 v=0
412538 On ch=1 n=f#4 v=0
412538 On ch=1 n=d#5 v=0
412590 On ch=1 n=d#5 v=32
412596 On ch=1 n=b5 v=56
412608 On ch=1 n=b4 v=32
412608 On ch=1 n=d#4 v=32
412610 On ch=1 n=g4 v=32
412622 On ch=1 n=c#6 v=0
412672 On ch=1 n=b2 v=0
412680 On ch=1 n=b3 v=0
412788 On ch=1 n=a#5 v=62
412802 On ch=1 n=b5 v=0
412912 On ch=1 n=d#5 v=0
412930 On ch=1 n=d#4 v=0
412930 On ch=1 n=b4 v=0
412932 On ch=1 n=g4 v=0
412998 On ch=1 n=a#5 v=0
412998 Par ch=1 c=64 v=0
413060 On ch=1 n=a#5 v=65
413068 On ch=1 n=e4 v=47
413072 On ch=1 n=e3 v=47
413096 Par ch=1 c=64 v=127
413568 On ch=1 n=b4 v=33
413572 On ch=1 n=g#4 v=33
413578 On ch=1 n=e5 v=33
413736 On ch=1 n=a#5 v=0
413740 On ch=1 n=g#5 v=58
413868 On ch=1 n=g#5 v=0
413944 On ch=1 n=b4 v=0
413948 On ch=1 n=g#4 v=0
413954 On ch=1 n=e5 v=0
414044 On ch=1 n=g#6 v=63
414056 On ch=1 n=g#4 v=34
414064 On ch=1 n=e5 v=34
414064 On ch=1 n=b4 v=34
414358 On ch=1 n=g#4 v=0
414386 On ch=1 n=b4 v=0
414386 On ch=1 n=e5 v=0
414424 On ch=1 n=g#4 v=34
414432 On ch=1 n=e5 v=34
414440 On ch=1 n=b4 v=34
414604 On ch=1 n=e3 v=0
414622 On ch=1 n=e4 v=0
414686 On ch=1 n=g#4 v=0
414694 On ch=1 n=e5 v=0
414702 On ch=1 n=b4 v=0
414724 On ch=1 n=g#4 v=34
414730 On ch=1 n=e5 v=34
414730 On ch=1 n=b4 v=34
414986 On ch=1 n=g#4 v=0
414992 On ch=1 n=b4 v=0
414992 On ch=1 n=e5 v=0
415028 On ch=1 n=e5 v=35
415030 On ch=1 n=c5 v=35
415040 On ch=1 n=g#4 v=35
415130 On ch=1 n=g#6 v=0
415168 On ch=1 n=f#6 v=61
415298 On ch=1 n=f#6 v=0
415384 On ch=1 n=e4 v=57
415390 Par ch=1 c=64 v=0
415448 On ch=1 n=f#6 v=61
415462 On ch=1 n=e5 v=0
415464 On ch=1 n=c5 v=0
415474 On ch=1 n=g#4 v=0
415522 Par ch=1 c=64 v=127
415636 On ch=1 n=e6 v=62
415690 On ch=1 n=f#6 v=0
415814 On ch=1 n=e6 v=0
415814 On ch=1 n=c6 v=56
415824 On ch=1 n=e5 v=44
415824 On ch=1 n=c#5 v=44
415824 On ch=1 n=g#4 v=44
415968 On ch=1 n=c#6 v=54
415990 On ch=1 n=c6 v=0
416120 On ch=1 n=e6 v=57
416134 On ch=1 n=c#6 v=0
416266 On ch=1 n=d#6 v=62
416310 On ch=1 n=e6 v=0
416374 On ch=1 n=g#4 v=0
416374 On ch=1 n=c#5 v=0
416394 On ch=1 n=e5 v=0
416418 On ch=1 n=d#6 v=0
416432 On ch=1 n=c#5 v=42
416434 On ch=1 n=a#5 v=53
416442 On ch=1 n=g#4 v=42
416454 On ch=1 n=e5 v=42
416514 On ch=1 n=e4 v=0
416582 On ch=1 n=b5 v=55
416598 On ch=1 n=a#5 v=0
416716 Par ch=1 c=64 v=0
416770 On ch=1 n=d#6 v=51
416782 On ch=1 n=e4 v=51
416796 On ch=1 n=b5 v=0
416812 On ch=1 n=c#5 v=0
416814 Par ch=1 c=64 v=127
416820 On ch=1 n=g#4 v=0
416832 On ch=1 n=e5 v=0
416964 On ch=1 n=c#6 v=34
417020 On ch=1 n=d#6 v=0
417154 On ch=1 n=c#6 v=0
417158 On ch=1 n=g5 v=48
417168 On ch=1 n=g#4 v=38
417174 On ch=1 n=c#5 v=38
417218 On ch=1 n=e4 v=0
417382 On ch=1 n=g#5 v=45
417388 On ch=1 n=g5 v=0
417544 On ch=1 n=g#4 v=0
417550 On ch=1 n=c#5 v=0
417600 On ch=1 n=a#5 v=50
417608 On ch=1 n=d#3 v=45
417616 On ch=1 n=d#4 v=47
417644 On ch=1 n=g#5 v=0
417646 Par ch=1 c=64 v=127
418040 On ch=1 n=g5 v=34
418054 On ch=1 n=d#5 v=34
418064 On ch=1 n=a#4 v=34
418070 On ch=1 n=g4 v=34
418362 On ch=1 n=g5 v=0
418376 On ch=1 n=d#5 v=0
418386 On ch=1 n=a#4 v=0
418392 On ch=1 n=g4 v=0
418412 On ch=1 n=d#5 v=36
418418 On ch=1 n=g4 v=36
418420 On ch=1 n=a#4 v=36
418430 On ch=1 n=g5 v=36
418688 On ch=1 n=d#3 v=0
418694 On ch=1 n=d#5 v=0
418700 On ch=1 n=g4 v=0
418702 On ch=1 n=a#4 v=0
418704 On ch=1 n=d#4 v=0
418712 On ch=1 n=g5 v=0
418734 On ch=1 n=a#5 v=0
418744 On ch=1 n=f#5 v=38
418744 On ch=1 n=d#5 v=38
418760 On ch=1 n=a#4 v=38
418760 On ch=1 n=f#4 v=38
419066 On ch=1 n=d#5 v=0
419066 On ch=1 n=f#5 v=0
419082 On ch=1 n=f#4 v=0
419082 On ch=1 n=a#4 v=0
419088 Par ch=1 c=64 v=0
419128 On ch=1 n=c#3 v=61
419138 On ch=1 n=b5 v=66
419144 On ch=1 n=c#4 v=66
419188 Par ch=1 c=64 v=127
419612 On ch=1 n=e5 v=44
419612 On ch=1 n=a#4 v=44
419624 On ch=1 n=f#4 v=44
419688 On ch=1 n=c#3 v=0
419696 On ch=1 n=c#4 v=0
419870 On ch=1 n=c#6 v=61
419910 On ch=1 n=b5 v=0
419934 On ch=1 n=a#4 v=0
419934 On ch=1 n=e5 v=0
419946 On ch=1 n=f#4 v=0
420032 Par ch=1 c=64 v=0
420040 On ch=1 n=b3 v=59
420040 On ch=1 n=b2 v=55
420048 On ch=1 n=d#6 v=68
420112 Par ch=1 c=64 v=127
420140 On ch=1 n=c#6 v=0
420564 On ch=1 n=d#6 v=0
420578 On ch=1 n=g#6 v=69
420584 On ch=1 n=d#5 v=47
420596 On ch=1 n=b4 v=47
420596 On ch=1 n=f#4 v=47
420608 On ch=1 n=b2 v=0
420616 On ch=1 n=b3 v=0
420906 On ch=1 n=d#5 v=0
420918 On ch=1 n=f#4 v=0
420918 On ch=1 n=b4 v=0
420960 On ch=1 n=a#2 v=23
420968 On ch=1 n=f#6 v=69
420976 On ch=1 n=a#3 v=68
421010 Par ch=1 c=64 v=0
421022 On ch=1 n=g#6 v=0
421108 Par ch=1 c=64 v=127
421474 On ch=1 n=f#4 v=49
421484 On ch=1 n=c#5 v=49
421746 On ch=1 n=c#5 v=0
421756 On ch=1 n=f#4 v=0
421786 On ch=1 n=c#5 v=50
421806 On ch=1 n=f#4 v=50
421986 On ch=1 n=a#2 v=0
422012 On ch=1 n=a#3 v=0
422068 On ch=1 n=c#5 v=0
422088 On ch=1 n=f#4 v=0
422142 On ch=1 n=c#5 v=51
422156 On ch=1 n=f#4 v=51
422164 On ch=1 n=c#6 v=59
422424 On ch=1 n=c#5 v=0
422438 On ch=1 n=f#4 v=0
422538 On ch=1 n=f#6 v=0
422578 Par ch=1 c=64 v=0
422598 On ch=1 n=c#6 v=0
422606 On ch=1 n=a5 v=60
422614 On ch=1 n=g#3 v=71
422686 Par ch=1 c=64 v=127
422834 On ch=1 n=a#5 v=67
422890 On ch=1 n=a5 v=0
423042 On ch=1 n=f#6 v=59
423048 On ch=1 n=e5 v=46
423048 On ch=1 n=b4 v=46
423048 On ch=1 n=g#4 v=46
423068 On ch=1 n=a#5 v=0
423162 On ch=1 n=g#3 v=0
423254 On ch=1 n=f6 v=64
423272 On ch=1 n=f#6 v=0
423370 On ch=1 n=g#4 v=0
423370 On ch=1 n=b4 v=0
423370 On ch=1 n=e5 v=0
423468 On ch=1 n=g3 v=63
423484 On ch=1 n=e6 v=62
423498 On ch=1 n=f6 v=0
423664 On ch=1 n=d#6 v=56
423702 On ch=1 n=e6 v=0
423818 On ch=1 n=d#6 v=0
423850 On ch=1 n=a5 v=62
423858 On ch=1 n=d#4 v=40
423864 On ch=1 n=d#5 v=40
423872 On ch=1 n=a#4 v=40
424042 On ch=1 n=a#5 v=39
424130 On ch=1 n=a5 v=0
424180 On ch=1 n=d#4 v=0
424186 On ch=1 n=d#5 v=0
424194 On ch=1 n=a#4 v=0
424196 On ch=1 n=d#6 v=63
424214 On ch=1 n=a#5 v=0
424248 On ch=1 n=d#5 v=38
424250 On ch=1 n=d#4 v=38
424268 On ch=1 n=a#4 v=38
424490 On ch=1 n=d#5 v=0
424492 On ch=1 n=d#4 v=0
424502 On ch=1 n=g3 v=0
424510 On ch=1 n=a#4 v=0
424536 On ch=1 n=d#5 v=36
424536 On ch=1 n=a#4 v=36
424536 On ch=1 n=d#4 v=36
424800 Par ch=1 c=64 v=0
424818 On ch=1 n=d#4 v=0
424818 On ch=1 n=a#4 v=0
424818 On ch=1 n=d#5 v=0
424844 On ch=1 n=a5 v=72
424854 On ch=1 n=f#3 v=62
424888 On ch=1 n=d#6 v=0
424896 Par ch=1 c=64 v=127
425208 On ch=1 n=d6 v=73
425208 On ch=1 n=f#4 v=46
425216 On ch=1 n=d5 v=51
425216 On ch=1 n=a4 v=49
425268 On ch=1 n=a5 v=0
425426 On ch=1 n=f#3 v=0
425540 On ch=1 n=f#4 v=0
425548 On ch=1 n=a4 v=0
425548 On ch=1 n=d5 v=0
425628 Par ch=1 c=64 v=0
425642 On ch=1 n=c#6 v=73
425656 On ch=1 n=d6 v=0
425656 On ch=1 n=f3 v=68
425694 Par ch=1 c=64 v=127
426010 On ch=1 n=c#5 v=44
426024 On ch=1 n=g#4 v=44
426024 On ch=1 n=c#4 v=44
426222 On ch=1 n=c#4 v=0
426272 On ch=1 n=c#5 v=0
426286 On ch=1 n=g#4 v=0
426286 On ch=1 n=c#5 v=44
426302 On ch=1 n=c#4 v=44
426314 On ch=1 n=g#4 v=44
426484 On ch=1 n=c#5 v=0
426490 On ch=1 n=g#4 v=0
426500 On ch=1 n=c#4 v=0
426582 On ch=1 n=c#4 v=44
426586 On ch=1 n=c#5 v=44
426596 On ch=1 n=g#5 v=62
426602 On ch=1 n=g#4 v=44
426674 On ch=1 n=c#6 v=0
426684 On ch=1 n=f3 v=0
426864 On ch=1 n=c#4 v=0
426868 On ch=1 n=c#5 v=0
426884 On ch=1 n=g#4 v=0
426952 Par ch=1 c=64 v=0
426992 On ch=1 n=e3 v=62
426996 On ch=1 n=g5 v=72
427022 On ch=1 n=g#5 v=0
427052 Par ch=1 c=64 v=127
427282 On ch=1 n=g#5 v=59
427352 On ch=1 n=g5 v=0
427512 On ch=1 n=d#6 v=57
427512 On ch=1 n=c#5 v=44
427536 On ch=1 n=g#4 v=44
427542 On ch=1 n=e4 v=44
427600 On ch=1 n=g#5 v=0
427646 On ch=1 n=c#6 v=60
427688 On ch=1 n=d#6 v=0
427826 On ch=1 n=b5 v=61
427854 On ch=1 n=c#6 v=0
427976 On ch=1 n=a#5 v=68
428002 On ch=1 n=b5 v=0
428042 On ch=1 n=c#5 v=0
428066 On ch=1 n=g#4 v=0
428104 On ch=1 n=c#5 v=44
428112 On ch=1 n=e4 v=0
428126 On ch=1 n=c#6 v=63
428132 On ch=1 n=g#4 v=44
428136 On ch=1 n=e4 v=44
428144 On ch=1 n=a#5 v=0
428262 On ch=1 n=b5 v=60
428304 On ch=1 n=c#6 v=0
428414 On ch=1 n=a#5 v=54
428450 On ch=1 n=b5 v=0
428548 On ch=1 n=g#5 v=63
428582 On ch=1 n=a#5 v=0
428634 On ch=1 n=c#5 v=0
428662 On ch=1 n=g#4 v=0
428666 On ch=1 n=e4 v=0
428712 On ch=1 n=c#5 v=44
428712 On ch=1 n=g#4 v=44
428714 On ch=1 n=b5 v=62
428728 On ch=1 n=e4 v=44
428736 On ch=1 n=g#5 v=0
428860 On ch=1 n=a#5 v=61
428882 On ch=1 n=b5 v=0
429016 On ch=1 n=e3 v=0
429026 Par ch=1 c=64 v=0
429038 On ch=1 n=e4 v=0
429044 On ch=1 n=g#4 v=0
429044 On ch=1 n=c#5 v=0
429064 On ch=1 n=g#5 v=51
429084 On ch=1 n=e4 v=50
429094 On ch=1 n=a#5 v=0
429144 Par ch=1 c=64 v=127
429384 On ch=1 n=c#5 v=42
429384 On ch=1 n=a#4 v=42
429396 On ch=1 n=f#4 v=42
429626 On ch=1 n=a#4 v=0
429626 On ch=1 n=c#5 v=0
429638 On ch=1 n=f#4 v=0
429680 On ch=1 n=c#5 v=40
429686 On ch=1 n=f#4 v=40
429692 On ch=1 n=a#4 v=40
429922 On ch=1 n=c#5 v=0
429928 On ch=1 n=f#4 v=0
429934 On ch=1 n=a#4 v=0
429960 On ch=1 n=c#5 v=39
429960 On ch=1 n=a#4 v=39
429960 On ch=1 n=f#4 v=39
430202 On ch=1 n=f#4 v=0
430202 On ch=1 n=a#4 v=0
430202 On ch=1 n=c#5 v=0
430242 On ch=1 n=f#4 v=37
430248 On ch=1 n=c#5 v=37
430256 On ch=1 n=a#4 v=37
430396 On ch=1 n=e4 v=0
430464 On ch=1 n=g#5 v=0
430484 On ch=1 n=f#4 v=0
430490 On ch=1 n=c#5 v=0
430498 On ch=1 n=a#4 v=0
430566 On ch=1 n=c#5 v=35
430566 On ch=1 n=a#4 v=35
430580 On ch=1 n=f#4 v=35
430754 On ch=1 n=f#5 v=56
430816 On ch=1 n=f#5 v=0
430818 Par ch=1 c=64 v=0
430828 On ch=1 n=a#4 v=0
430828 On ch=1 n=c#5 v=0
430842 On ch=1 n=f#4 v=0
430864 On ch=1 n=f#5 v=68
430880 On ch=1 n=d#5 v=39
430880 On ch=1 n=d#4 v=34
430888 On ch=1 n=f#4 v=28
430898 On ch=1 n=b4 v=41
430928 Par ch=1 c=64 v=127
431092 On ch=1 n=g#5 v=63
431120 On ch=1 n=f#5 v=0
431154 On ch=1 n=g#5 v=0
431208 On ch=1 n=g#5 v=68
431320 On ch=1 n=g#5 v=0
431408 On ch=1 n=a#5 v=60
431468 On ch=1 n=a#5 v=0
431528 On ch=1 n=a#5 v=70
431656 On ch=1 n=a#5 v=0
431744 On ch=1 n=b5 v=55
431810 On ch=1 n=b5 v=0
431848 On ch=1 n=b5 v=58
431964 On ch=1 n=b5 v=0
432018 On ch=1 n=b4 v=0
432060 On ch=1 n=c#6 v=62
432124 On ch=1 n=c#6 v=0
432176 On ch=1 n=c#6 v=65
432192 On ch=1 n=d#5 v=0
432202 On ch=1 n=f#4 v=0
432262 On ch=1 n=d#4 v=0
432320 On ch=1 n=c#6 v=0
432396 On ch=1 n=d6 v=62
432482 On ch=1 n=d6 v=0
432526 On ch=1 n=d6 v=69
432756 On ch=1 n=d6 v=0
432772 On ch=1 n=d#6 v=70
432836 On ch=1 n=d#6 v=0
432890 On ch=1 n=d#6 v=72
432898 On ch=1 n=c#3 v=71
432906 On ch=1 n=c#4 v=58
433252 Par ch=1 c=64 v=0
433320 On ch=1 n=g#5 v=68
433348 On ch=1 n=b5 v=62
433350 On ch=1 n=f5 v=66
433350 On ch=1 n=b4 v=63
433366 On ch=1 n=d#6 v=0
433380 Par ch=1 c=64 v=127
433724 On ch=1 n=b5 v=0
433726 On ch=1 n=b4 v=0
433726 On ch=1 n=f5 v=0
433844 On ch=1 n=d#6 v=79
433850 On ch=1 n=b4 v=63
433858 On ch=1 n=b5 v=68
433868 On ch=1 n=f5 v=62
433880 On ch=1 n=g#5 v=0
434132 On ch=1 n=b4 v=0
434140 On ch=1 n=b5 v=0
434150 On ch=1 n=f5 v=0
434208 On ch=1 n=b5 v=54
434222 On ch=1 n=f5 v=51
434222 On ch=1 n=b4 v=51
434470 On ch=1 n=b5 v=0
434484 On ch=1 n=b4 v=0
434484 On ch=1 n=f5 v=0
434498 On ch=1 n=b5 v=62
434498 On ch=1 n=b4 v=57
434500 On ch=1 n=f5 v=64
434720 On ch=1 n=b4 v=0
434720 On ch=1 n=b5 v=0
434722 On ch=1 n=f5 v=0
434740 On ch=1 n=c#6 v=68
434756 On ch=1 n=b5 v=65
434770 On ch=1 n=f5 v=65
434770 On ch=1 n=b4 v=64
434794 On ch=1 n=d#6 v=0
434884 On ch=1 n=c#3 v=0
434894 On ch=1 n=c#4 v=0
434934 On ch=1 n=c#6 v=0
434998 On ch=1 n=b5 v=0
435012 On ch=1 n=b4 v=0
435012 On ch=1 n=f5 v=0
435028 On ch=1 n=b5 v=68
435032 On ch=1 n=c#5 v=30
435040 On ch=1 n=f5 v=66
435040 On ch=1 n=c6 v=83
435048 On ch=1 n=b4 v=64
435190 On ch=1 n=c#6 v=85
435218 On ch=1 n=c6 v=0
435266 On ch=1 n=c#6 v=0
435370 On ch=1 n=c#6 v=76
435484 On ch=1 n=d#7 v=85
435670 On ch=1 n=c#7 v=71
435712 On ch=1 n=d#7 v=0
435734 On ch=1 n=c#6 v=0
435870 On ch=1 n=b6 v=71
435948 On ch=1 n=c#7 v=0
436024 On ch=1 n=g#6 v=55
436122 On ch=1 n=b5 v=0
436126 On ch=1 n=c#5 v=0
436128 On ch=1 n=b6 v=0
436134 On ch=1 n=f5 v=0
436142 On ch=1 n=b4 v=0
436176 On ch=1 n=d#6 v=66
436256 On ch=1 n=g#6 v=0
436374 On ch=1 n=c#6 v=47
436432 On ch=1 n=d#6 v=0
436578 On ch=1 n=b5 v=45
436620 On ch=1 n=c#6 v=0
436768 On ch=1 n=g#5 v=50
436812 On ch=1 n=b5 v=0
436976 On ch=1 n=c#5 v=49
437002 On ch=1 n=g#5 v=0
437188 On ch=1 n=d#5 v=46
437220 On ch=1 n=c#5 v=0
437370 On ch=1 n=f#3 v=62
437460 On ch=1 n=c#4 v=52
437522 On ch=1 n=e5 v=51
437528 On ch=1 n=b4 v=48
437572 On ch=1 n=d#5 v=0
437608 Par ch=1 c=64 v=0
437708 Par ch=1 c=64 v=127
438096 On ch=1 n=f#4 v=52
438114 On ch=1 n=b4 v=0
438602 On ch=1 n=b4 v=57
438638 On ch=1 n=f#4 v=0
439842 On ch=1 n=b4 v=0
439852 On ch=1 n=a#4 v=44
439920 On ch=1 n=f#3 v=0
440024 On ch=1 n=c#4 v=0
440092 On ch=1 n=f#3 v=22
440196 On ch=1 n=a#4 v=0
440272 On ch=1 n=c#4 v=38
440382 On ch=1 n=a#4 v=56
440426 On ch=1 n=d#5 v=68
440432 On ch=1 n=e5 v=0
440492 Par ch=1 c=64 v=0
440594 Par ch=1 c=64 v=127
440770 On ch=1 n=e5 v=51
440792 On ch=1 n=d#5 v=0
441046 On ch=1 n=d#6 v=69
441156 On ch=1 n=e5 v=0
441274 On ch=1 n=c#6 v=55
441306 On ch=1 n=d#6 v=0
441496 On ch=1 n=d#6 v=65
441528 On ch=1 n=c#6 v=0
441676 On ch=1 n=c#6 v=73
441696 On ch=1 n=c#4 v=0
441698 On ch=1 n=d#6 v=0
441728 On ch=1 n=f#3 v=0
441820 On ch=1 n=a#4 v=0
441878 On ch=1 n=d#6 v=64
441908 On ch=1 n=c#6 v=0
442058 On ch=1 n=c#6 v=70
442088 On ch=1 n=d#6 v=0
442260 On ch=1 n=d#6 v=58
442292 On ch=1 n=c#6 v=0
442434 On ch=1 n=c#6 v=69
442468 On ch=1 n=d#6 v=0
442650 On ch=1 n=d#6 v=52
442676 On ch=1 n=c#6 v=0
442826 On ch=1 n=c#6 v=64
442848 On ch=1 n=d#6 v=0
442970 Par ch=1 c=64 v=0
443034 On ch=1 n=c#6 v=0
443042 On ch=1 n=d#6 v=45
443042 On ch=1 n=f#5 v=53
443054 Par ch=1 c=64 v=127
443086 Par ch=1 c=64 v=127
443210 On ch=1 n=c#6 v=53
443226 On ch=1 n=e5 v=49
443260 On ch=1 n=f#5 v=0
443278 On ch=1 n=d#6 v=0
443372 On ch=1 n=d#6 v=54
443382 On ch=1 n=f#5 v=50
443384 On ch=1 n=c#6 v=0
443388 On ch=1 n=e5 v=0
443524 On ch=1 n=f#5 v=0
443532 On ch=1 n=c#6 v=53
443540 On ch=1 n=e5 v=54
443550 On ch=1 n=d#6 v=0
443676 On ch=1 n=c#6 v=0
443678 On ch=1 n=d#6 v=49
443684 On ch=1 n=f#5 v=55
443690 On ch=1 n=e5 v=0
443802 On ch=1 n=f#5 v=0
443810 On ch=1 n=c#6 v=55
443814 On ch=1 n=e5 v=55
443830 On ch=1 n=d#6 v=0
443938 On ch=1 n=c#6 v=0
443938 On ch=1 n=d#6 v=56
443944 On ch=1 n=f#5 v=52
443960 On ch=1 n=e5 v=0
444038 On ch=1 n=f#5 v=0
444062 On ch=1 n=c#6 v=56
444066 On ch=1 n=e5 v=58
444090 On ch=1 n=d#6 v=0
444188 On ch=1 n=c#6 v=0
444198 On ch=1 n=d#6 v=56
444208 On ch=1 n=f#5 v=54
444214 On ch=1 n=e5 v=0
444292 On ch=1 n=f#5 v=0
444302 On ch=1 n=c#6 v=56
444302 On ch=1 n=e5 v=58
444318 On ch=1 n=d#6 v=0
444386 On ch=1 n=e5 v=0
444394 On ch=1 n=c#6 v=0
444412 On ch=1 n=d#6 v=62
444416 On ch=1 n=f#5 v=56
444476 On ch=1 n=c#6 v=56
444482 On ch=1 n=f#5 v=0
444486 On ch=1 n=e5 v=62
444516 On ch=1 n=d#6 v=0
444550 On ch=1 n=e5 v=0
444564 On ch=1 n=c#6 v=0
444596 On ch=1 n=d#6 v=59
444596 On ch=1 n=f#5 v=50
444654 On ch=1 n=c#6 v=57
444664 On ch=1 n=e5 v=60
444672 On ch=1 n=f#5 v=0
444698 On ch=1 n=d#6 v=0
444746 On ch=1 n=e5 v=0
444748 On ch=1 n=c#6 v=0
444780 On ch=1 n=d#6 v=65
444790 On ch=1 n=f#5 v=47
444872 On ch=1 n=c#6 v=47
444880 On ch=1 n=e5 v=66
444890 On ch=1 n=f#5 v=0
444900 On ch=1 n=d#6 v=0
444940 On ch=1 n=e5 v=0
444956 On ch=1 n=f#5 v=62
444960 On ch=1 n=c#6 v=0
444960 On ch=1 n=d#6 v=65
445026 On ch=1 n=e5 v=65
445030 On ch=1 n=c#6 v=58
445044 On ch=1 n=f#5 v=0
445052 On ch=1 n=d#6 v=0
445094 On ch=1 n=d#6 v=60
445098 On ch=1 n=e5 v=0
445106 On ch=1 n=f#5 v=61
445108 On ch=1 n=c#6 v=0
445150 On ch=1 n=f#5 v=0
445164 On ch=1 n=c#6 v=56
445164 On ch=1 n=e5 v=61
445188 On ch=1 n=d#6 v=0
445224 On ch=1 n=e5 v=0
445228 On ch=1 n=d#6 v=61
445234 On ch=1 n=f#5 v=65
445238 On ch=1 n=c#6 v=0
445286 On ch=1 n=f#5 v=0
445288 On ch=1 n=c#6 v=59
445298 On ch=1 n=e5 v=57
445322 On ch=1 n=d#6 v=0
445352 On ch=1 n=e5 v=0
445356 On ch=1 n=d#6 v=61
445368 On ch=1 n=f#5 v=63
445376 On ch=1 n=c#6 v=0
445414 On ch=1 n=f#5 v=0
445418 On ch=1 n=c#6 v=60
445424 On ch=1 n=e5 v=61
445444 On ch=1 n=d#6 v=0
445476 On ch=1 n=e5 v=0
445490 On ch=1 n=d#6 v=62
445494 On ch=1 n=f#5 v=61
445502 On ch=1 n=c#6 v=0
445546 On ch=1 n=c#6 v=57
445550 On ch=1 n=e5 v=61
445562 On ch=1 n=f#5 v=0
445576 On ch=1 n=d#6 v=0
445604 On ch=1 n=e5 v=0
445628 On ch=1 n=d#6 v=66
445630 On ch=1 n=c#6 v=0
445630 On ch=1 n=f#5 v=62
445664 On ch=1 n=c#6 v=53
445672 On ch=1 n=e5 v=62
445684 On ch=1 n=f#5 v=0
445730 On ch=1 n=e5 v=0
445750 On ch=1 n=c#6 v=0
445754 On ch=1 n=f#5 v=52
445800 On ch=1 n=c#6 v=53
445804 On ch=1 n=f#5 v=0
445812 On ch=1 n=e5 v=56
445826 On ch=1 n=d#6 v=0
445864 On ch=1 n=e5 v=0
445872 On ch=1 n=d#6 v=63
445880 On ch=1 n=f#5 v=60
445888 On ch=1 n=c#6 v=0
445924 On ch=1 n=c#6 v=49
445934 On ch=1 n=e5 v=63
445938 On ch=1 n=f#5 v=0
445956 On ch=1 n=d#6 v=0
445992 On ch=1 n=e5 v=0
446002 On ch=1 n=d#6 v=60
446008 On ch=1 n=c#6 v=0
446014 On ch=1 n=f#5 v=56
446060 On ch=1 n=e5 v=69
446064 On ch=1 n=c#6 v=54
446094 On ch=1 n=f#5 v=0
446104 On ch=1 n=e5 v=0
446118 On ch=1 n=c#6 v=0
446130 On ch=1 n=f#5 v=56
446158 On ch=1 n=c#6 v=66
446162 On ch=1 n=e5 v=74
446216 On ch=1 n=f#5 v=0
446230 On ch=1 n=d#6 v=0
446272 On ch=1 n=b5 v=25
446280 On ch=1 n=d#6 v=71
446286 On ch=1 n=e5 v=0
446290 On ch=1 n=c#6 v=0
446290 On ch=1 n=f#5 v=66
446492 On ch=1 n=f#5 v=0
446502 On ch=1 n=c#6 v=58
446510 On ch=1 n=e5 v=71
446514 On ch=1 n=a#5 v=61
446530 On ch=1 n=b5 v=0
446538 On ch=1 n=d#6 v=0
446634 On ch=1 n=d#6 v=42
446650 On ch=1 n=b5 v=47
446654 On ch=1 n=f#5 v=59
446662 On ch=1 n=e5 v=0
446668 On ch=1 n=c#6 v=0
446674 On ch=1 n=a#5 v=0
446796 On ch=1 n=a#5 v=58
446800 On ch=1 n=e5 v=60
446810 On ch=1 n=c#6 v=60
446820 On ch=1 n=f#5 v=0
446822 On ch=1 n=b5 v=0
446830 On ch=1 n=d#6 v=0
446946 On ch=1 n=d#6 v=56
446954 On ch=1 n=f#5 v=64
446958 On ch=1 n=b5 v=60
446970 On ch=1 n=c#6 v=0
446970 On ch=1 n=a#5 v=0
446976 On ch=1 n=e5 v=0
447092 On ch=1 n=c#6 v=60
447092 On ch=1 n=a#5 v=61
447094 On ch=1 n=e5 v=62
447104 On ch=1 n=f#5 v=0
447114 On ch=1 n=b5 v=0
447120 On ch=1 n=d#6 v=0
447218 On ch=1 n=d#6 v=62
447226 On ch=1 n=f#5 v=66
447226 On ch=1 n=b5 v=62
447232 On ch=1 n=c#6 v=0
447240 On ch=1 n=e5 v=0
447240 On ch=1 n=a#5 v=0
447342 On ch=1 n=e5 v=59
447346 On ch=1 n=a#5 v=57
447352 On ch=1 n=c#6 v=62
447364 On ch=1 n=f#5 v=0
447368 On ch=1 n=b5 v=0
447374 On ch=1 n=d#6 v=0
447456 On ch=1 n=f#5 v=62
447460 On ch=1 n=e5 v=0
447460 On ch=1 n=d#6 v=59
447472 On ch=1 n=c#6 v=0
447472 On ch=1 n=b5 v=56
447474 On ch=1 n=a#5 v=0
447548 On ch=1 n=e5 v=56
447554 On ch=1 n=a#5 v=56
447560 On ch=1 n=c#6 v=48
447566 On ch=1 n=f#5 v=0
447572 On ch=1 n=d#6 v=0
447578 On ch=1 n=b5 v=0
447624 On ch=1 n=e5 v=0
447628 On ch=1 n=c#6 v=0
447634 On ch=1 n=a#5 v=0
447636 On ch=1 n=d#6 v=62
447640 On ch=1 n=f#5 v=60
447646 On ch=1 n=b5 v=56
447694 On ch=1 n=e5 v=57
447698 On ch=1 n=c#6 v=48
447698 On ch=1 n=a#5 v=55
447706 On ch=1 n=f#5 v=0
447718 On ch=1 n=d#6 v=0
447720 On ch=1 n=b5 v=0
447760 On ch=1 n=e5 v=0
447764 On ch=1 n=a#5 v=0
447764 On ch=1 n=c#6 v=0
447772 On ch=1 n=d#6 v=58
447778 On ch=1 n=f#5 v=56
447786 On ch=1 n=b5 v=56
447830 On ch=1 n=e5 v=58
447838 On ch=1 n=a#5 v=55
447840 On ch=1 n=f#5 v=0
447844 On ch=1 n=c#6 v=45
447854 On ch=1 n=b5 v=0
447856 On ch=1 n=d#6 v=0
447896 On ch=1 n=e5 v=0
447900 On ch=1 n=c#6 v=0
447900 On ch=1 n=a#5 v=0
447910 On ch=1 n=d#6 v=57
447918 On ch=1 n=f#5 v=47
447922 On ch=1 n=b5 v=57
447982 On ch=1 n=c#6 v=52
447988 On ch=1 n=e5 v=56
447990 On ch=1 n=a#5 v=55
447996 On ch=1 n=f#5 v=0
448008 On ch=1 n=b5 v=0
448008 On ch=1 n=d#6 v=0
448044 On ch=1 n=e5 v=0
448046 On ch=1 n=a#5 v=0
448050 On ch=1 n=f#5 v=62
448060 On ch=1 n=c#6 v=0
448060 On ch=1 n=d#6 v=61
448066 On ch=1 n=b5 v=59
448114 On ch=1 n=e5 v=57
448120 On ch=1 n=c#6 v=35
448120 On ch=1 n=a#5 v=51
448126 On ch=1 n=f#5 v=0
448140 On ch=1 n=b5 v=0
448148 On ch=1 n=d#6 v=0
448170 On ch=1 n=a#5 v=0
448170 On ch=1 n=e5 v=0
448174 On ch=1 n=c#6 v=0
448180 On ch=1 n=d#6 v=50
448184 On ch=1 n=f#5 v=52
448194 On ch=1 n=b5 v=57
448238 On ch=1 n=c#6 v=59
448240 On ch=1 n=e5 v=65
448246 On ch=1 n=f#5 v=0
448246 On ch=1 n=a#5 v=61
448258 On ch=1 n=b5 v=0
448260 On ch=1 n=d#6 v=0
448302 On ch=1 n=a#5 v=0
448306 On ch=1 n=e5 v=0
448306 On ch=1 n=f#5 v=60
448312 On ch=1 n=d#6 v=59
448320 On ch=1 n=c#6 v=0
448330 On ch=1 n=b5 v=50
448374 On ch=1 n=e5 v=60
448378 On ch=1 n=f#5 v=0
448378 On ch=1 n=c#6 v=37
448380 On ch=1 n=a#5 v=60
448394 On ch=1 n=b5 v=0
448396 On ch=1 n=d#6 v=0
448430 On ch=1 n=e5 v=0
448440 On ch=1 n=f#5 v=60
448444 On ch=1 n=a#5 v=0
448446 On ch=1 n=d#6 v=60
448452 On ch=1 n=c#6 v=0
448456 On ch=1 n=b5 v=58
448498 On ch=1 n=f#5 v=0
448498 On ch=1 n=e5 v=65
448510 On ch=1 n=a#5 v=56
448518 On ch=1 n=c#6 v=31
448520 On ch=1 n=b5 v=0
448526 On ch=1 n=d#6 v=0
448556 On ch=1 n=e5 v=0
448564 On ch=1 n=a#5 v=0
448568 On ch=1 n=c#6 v=0
448570 On ch=1 n=d#6 v=57
448570 On ch=1 n=f#5 v=57
448586 On ch=1 n=b5 v=56
448626 On ch=1 n=e5 v=64
448628 On ch=1 n=a#5 v=55
448636 On ch=1 n=f#5 v=0
448640 On ch=1 n=c#6 v=34
448646 On ch=1 n=b5 v=0
448654 On ch=1 n=d#6 v=0
448682 On ch=1 n=a#5 v=0
448688 On ch=1 n=e5 v=0
448692 On ch=1 n=c#6 v=0
448694 On ch=1 n=f#5 v=58
448702 On ch=1 n=d#6 v=60
448716 On ch=1 n=b5 v=52
448750 On ch=1 n=e5 v=60
448760 On ch=1 n=a#5 v=58
448764 On ch=1 n=c#6 v=33
448770 On ch=1 n=b5 v=0
448778 On ch=1 n=f#5 v=0
448782 On ch=1 n=d#6 v=0
448798 On ch=1 n=a#5 v=0
448804 On ch=1 n=e5 v=0
448808 On ch=1 n=c#6 v=0
448826 On ch=1 n=d#6 v=53
448828 On ch=1 n=f#5 v=41
448852 On ch=1 n=b5 v=49
448872 On ch=1 n=e5 v=45
448884 On ch=1 n=c#6 v=27
448906 On ch=1 n=f#5 v=0
448910 On ch=1 n=b5 v=0
448920 On ch=1 n=d#6 v=0
448952 On ch=1 n=a#5 v=39
449026 On ch=1 n=c#6 v=0
449032 On ch=1 n=d#6 v=66
449032 On ch=1 n=f#5 v=59
449038 On ch=1 n=e5 v=0
449040 On ch=1 n=b5 v=62
449046 On ch=1 n=a#5 v=0
449192 On ch=1 n=a#5 v=78
449200 On ch=1 n=c#6 v=38
449200 On ch=1 n=e5 v=71
449202 On ch=1 n=c#5 v=73
449216 On ch=1 n=b5 v=0
449218 On ch=1 n=f#5 v=0
449224 On ch=1 n=d#6 v=0
449312 On ch=1 n=a#5 v=0
449332 On ch=1 n=d#6 v=73
449344 On ch=1 n=c#6 v=0
449344 On ch=1 n=b5 v=67
449344 On ch=1 n=f#5 v=78
449348 On ch=1 n=e5 v=0
449358 On ch=1 n=c#5 v=0
449428 On ch=1 n=f#5 v=0
449442 On ch=1 n=b5 v=0
449446 On ch=1 n=d#6 v=0
449452 On ch=1 n=a#5 v=62
449456 On ch=1 n=c#5 v=63
449458 On ch=1 n=c#6 v=67
449458 On ch=1 n=e5 v=68
449540 On ch=1 n=f#5 v=67
449544 On ch=1 n=b5 v=52
449546 On ch=1 n=e5 v=0
449546 On ch=1 n=c#6 v=0
449546 On ch=1 n=d#6 v=65
449554 On ch=1 n=a#5 v=0
449560 On ch=1 n=c#5 v=0
449632 On ch=1 n=f#5 v=0
449636 On ch=1 n=b5 v=0
449638 On ch=1 n=a#5 v=61
449644 On ch=1 n=c#6 v=65
449650 On ch=1 n=e5 v=63
449650 On ch=1 n=c#5 v=53
449660 On ch=1 n=d#6 v=0
449714 On ch=1 n=e5 v=0
449716 On ch=1 n=c#5 v=0
449720 On ch=1 n=b5 v=30
449724 On ch=1 n=d#6 v=69
449724 On ch=1 n=f#5 v=70
449730 On ch=1 n=c#6 v=0
449730 On ch=1 n=a#5 v=0
449772 On ch=1 n=b5 v=0
449794 On ch=1 n=c#5 v=62
449798 On ch=1 n=a#5 v=65
449798 On ch=1 n=e5 v=66
449800 On ch=1 n=c#6 v=52
449808 On ch=1 n=f#5 v=0
449816 On ch=1 n=d#6 v=0
449870 On ch=1 n=e5 v=0
449874 On ch=1 n=c#5 v=0
449880 On ch=1 n=c#6 v=0
449884 On ch=1 n=a#5 v=0
449884 On ch=1 n=b5 v=25
449888 On ch=1 n=d#6 v=68
449888 On ch=1 n=f#5 v=68
449950 On ch=1 n=b5 v=0
449962 On ch=1 n=a#5 v=66
449962 On ch=1 n=c#5 v=64
449970 On ch=1 n=f#5 v=0
449970 On ch=1 n=c#6 v=63
449978 On ch=1 n=e5 v=65
449990 On ch=1 n=d#6 v=0
450028 On ch=1 n=e5 v=0
450038 On ch=1 n=c#5 v=0
450042 On ch=1 n=a#5 v=0
450044 On ch=1 n=c#6 v=0
450052 On ch=1 n=d#6 v=68
450056 On ch=1 n=b5 v=30
450058 On ch=1 n=f#5 v=68
450064 On ch=1 n=f#5 v=70
450112 On ch=1 n=c#5 v=62
450116 On ch=1 n=f#5 v=0
450122 On ch=1 n=b5 v=0
450122 On ch=1 n=a#5 v=52
450122 On ch=1 n=e5 v=64
450130 On ch=1 n=c#6 v=47
450148 On ch=1 n=f#5 v=0
450154 On ch=1 n=d#6 v=0
450166 On ch=1 n=e5 v=0
450178 On ch=1 n=c#6 v=0
450178 On ch=1 n=a#5 v=0
450178 On ch=1 n=c#5 v=0
450190 On ch=1 n=d#6 v=68
450192 On ch=1 n=b5 v=30
450194 On ch=1 n=f#5 v=68
450248 On ch=1 n=c#5 v=54
450250 On ch=1 n=a#5 v=51
450250 On ch=1 n=e5 v=64
450252 On ch=1 n=f#5 v=0
450252 On ch=1 n=c#6 v=39
450256 On ch=1 n=d#6 v=0
450258 On ch=1 n=b5 v=0
450306 On ch=1 n=e5 v=0
450312 On ch=1 n=c#6 v=0
450314 On ch=1 n=a#5 v=0
450316 On ch=1 n=c#5 v=0
450320 On ch=1 n=d#6 v=70
450338 On ch=1 n=f#5 v=75
450350 On ch=1 n=b5 v=52
450392 On ch=1 n=c#5 v=47
450398 On ch=1 n=a#5 v=50
450398 On ch=1 n=e5 v=71
450404 On ch=1 n=d#6 v=0
450406 On ch=1 n=c#6 v=48
450414 On ch=1 n=b5 v=0
450422 On ch=1 n=f#5 v=0
450452 On ch=1 n=e5 v=0
450458 On ch=1 n=c#5 v=0
450462 On ch=1 n=a#5 v=0
450464 On ch=1 n=f#5 v=68
450468 On ch=1 n=c#6 v=0
450472 On ch=1 n=d#6 v=30
450474 On ch=1 n=b5 v=65
450520 On ch=1 n=c#5 v=64
450522 On ch=1 n=e5 v=67
450532 On ch=1 n=c#6 v=55
450532 On ch=1 n=a#5 v=55
450534 On ch=1 n=f#5 v=0
450538 On ch=1 n=d#6 v=0
450544 On ch=1 n=b5 v=0
450574 On ch=1 n=e5 v=0
450574 On ch=1 n=c#5 v=0
450576 On ch=1 n=d#6 v=68
450578 On ch=1 n=a#5 v=0
450584 On ch=1 n=f#5 v=68
450586 On ch=1 n=c#6 v=0
450588 On ch=1 n=b5 v=70
450600 On ch=1 n=b5 v=30
450636 On ch=1 n=c#5 v=64
450642 On ch=1 n=f#5 v=0
450642 On ch=1 n=d#6 v=0
450642 On ch=1 n=e5 v=70
450650 On ch=1 n=c#6 v=59
450650 On ch=1 n=a#5 v=57
450666 On ch=1 n=b5 v=0
450666 On ch=1 n=b5 v=0
450688 On ch=1 n=f#5 v=70
450694 On ch=1 n=c#5 v=0
450696 On ch=1 n=d#6 v=70
450696 On ch=1 n=b5 v=68
450698 On ch=1 n=e5 v=0
450704 On ch=1 n=a#5 v=0
450712 On ch=1 n=c#6 v=0
450756 On ch=1 n=f#5 v=0
450756 On ch=1 n=c#5 v=72
450764 On ch=1 n=b5 v=0
450764 On ch=1 n=d#6 v=0
450766 On ch=1 n=c#6 v=53
450766 On ch=1 n=a#5 v=67
450772 On ch=1 n=e5 v=66
450804 On ch=1 n=d#6 v=67
450814 On ch=1 n=e5 v=0
450814 On ch=1 n=f#5 v=76
450816 On ch=1 n=c#5 v=0
450826 On ch=1 n=a#5 v=0
450826 On ch=1 n=b5 v=57
450834 On ch=1 n=c#6 v=0
450848 Par ch=1 c=64 v=0
450874 On ch=1 n=c#5 v=78
450880 On ch=1 n=b5 v=0
450886 On ch=1 n=f#5 v=0
450886 On ch=1 n=c#6 v=67
450886 On ch=1 n=a#5 v=73
450888 On ch=1 n=e5 v=73
450896 On ch=1 n=d#6 v=0
450912 Par ch=1 c=64 v=127
450928 On ch=1 n=d#6 v=76
450930 On ch=1 n=f#5 v=76
450938 On ch=1 n=c#5 v=0
450942 On ch=1 n=e5 v=0
450942 On ch=1 n=a#5 v=0
450950 On ch=1 n=c#6 v=0
450950 On ch=1 n=b5 v=70
450996 On ch=1 n=b5 v=0
450996 On ch=1 n=f#5 v=0
451000 On ch=1 n=c#5 v=76
451008 On ch=1 n=a#5 v=71
451008 On ch=1 n=e5 v=76
451010 On ch=1 n=c#6 v=64
451018 On ch=1 n=d#6 v=0
451044 On ch=1 n=d#6 v=66
451050 On ch=1 n=f#5 v=72
451052 On ch=1 n=b5 v=36
451056 On ch=1 n=e5 v=0
451056 On ch=1 n=c#5 v=0
451062 On ch=1 n=a#5 v=0
451064 On ch=1 n=c#6 v=0
451106 On ch=1 n=f#5 v=0
451118 On ch=1 n=b5 v=0
451120 On ch=1 n=c#6 v=56
451120 On ch=1 n=e5 v=80
451120 On ch=1 n=c#5 v=77
451126 On ch=1 n=a#5 v=64
451142 On ch=1 n=d#6 v=0
451164 On ch=1 n=c#6 v=0
451166 On ch=1 n=e5 v=0
451168 On ch=1 n=d#6 v=67
451170 On ch=1 n=f#5 v=68
451176 On ch=1 n=a#5 v=0
451176 On ch=1 n=c#5 v=0
451176 On ch=1 n=b5 v=30
451228 On ch=1 n=f#5 v=0
451236 On ch=1 n=d#6 v=0
451242 On ch=1 n=b5 v=0
451248 On ch=1 n=a#5 v=67
451248 On ch=1 n=c#5 v=76
451252 On ch=1 n=e5 v=78
451254 On ch=1 n=c#6 v=48
451280 On ch=1 n=d#6 v=68
451290 On ch=1 n=e5 v=0
451296 On ch=1 n=b5 v=72
451296 On ch=1 n=f#5 v=72
451298 On ch=1 n=c#6 v=0
451298 On ch=1 n=a#5 v=0
451304 On ch=1 n=c#5 v=0
451348 On ch=1 n=d#6 v=0
451352 On ch=1 n=f#5 v=0
451352 On ch=1 n=b5 v=0
451360 On ch=1 n=c#6 v=68
451360 On ch=1 n=a#5 v=43
451360 On ch=1 n=e5 v=72
451360 On ch=1 n=c#5 v=28
451406 On ch=1 n=c#5 v=0
451406 On ch=1 n=e5 v=0
451416 On ch=1 n=a#5 v=0
451418 On ch=1 n=c#6 v=0
451456 On ch=1 n=c6 v=62
451456 On ch=1 n=a5 v=75
451456 On ch=1 n=d#5 v=27
451546 On ch=1 n=d#5 v=0
451546 On ch=1 n=a5 v=0
451546 On ch=1 n=c6 v=0
451548 On ch=1 n=e5 v=85
451552 On ch=1 n=c#6 v=90
451552 On ch=1 n=a#5 v=71
451658 On ch=1 n=a#5 v=0
451674 On ch=1 n=e5 v=0
451676 On ch=1 n=f#5 v=90
451678 On ch=1 n=c#6 v=0
451680 On ch=1 n=a#5 v=87
451786 On ch=1 n=a#5 v=0
451802 On ch=1 n=f#5 v=0
451820 On ch=1 n=e5 v=73
451828 On ch=1 n=c#6 v=86
451828 On ch=1 n=a#5 v=83
451934 On ch=1 n=a#5 v=0
451944 On ch=1 n=e6 v=89
451944 On ch=1 n=a#5 v=87
451944 On ch=1 n=c#5 v=86
451946 On ch=1 n=e5 v=0
451954 On ch=1 n=c#6 v=0
452050 On ch=1 n=a#5 v=0
452052 On ch=1 n=c#5 v=0
452064 On ch=1 n=e6 v=0
452064 On ch=1 n=g6 v=89
452064 On ch=1 n=a#5 v=89
452064 On ch=1 n=f#4 v=89
452072 On ch=1 n=c#5 v=90
452290 On ch=1 n=f#4 v=0
452316 On ch=1 n=g6 v=0
452324 On ch=1 n=a#5 v=0
452340 On ch=1 n=c#5 v=0
452874 Par ch=1 c=64 v=0
453104 Par ch=1 c=64 v=127
453312 On ch=1 n=e5 v=93
453312 On ch=1 n=a#4 v=78
453312 On ch=1 n=f#4 v=84
453318 On ch=1 n=f#3 v=85
453430 On ch=1 n=f#4 v=0
453430 On ch=1 n=a#4 v=0
453430 On ch=1 n=e5 v=0
453560 On ch=1 n=e5 v=93
453568 On ch=1 n=b4 v=93
453574 On ch=1 n=f#4 v=93
453592 On ch=1 n=b2 v=83
453614 On ch=1 n=f#3 v=0
453622 Par ch=1 c=64 v=0
453728 Par ch=1 c=64 v=127
454204 On ch=1 n=f#3 v=75
454286 On ch=1 n=b2 v=0
454628 On ch=1 n=e5 v=0
454656 On ch=1 n=d#5 v=79
454664 On ch=1 n=b3 v=63
454678 Par ch=1 c=64 v=0
454690 On ch=1 n=f#3 v=0
454766 Par ch=1 c=64 v=127
455130 On ch=1 n=c#4 v=50
455232 On ch=1 n=f#4 v=0
455330 On ch=1 n=b3 v=0
455526 On ch=1 n=d#4 v=55
455536 On ch=1 n=c#4 v=0
455930 On ch=1 n=d#4 v=0
455932 On ch=1 n=g#4 v=54
456262 Par ch=1 c=64 v=0
456290 On ch=1 n=f#4 v=58
456324 On ch=1 n=g#4 v=0
456390 Par ch=1 c=64 v=127
456686 On ch=1 n=d#4 v=56
456760 On ch=1 n=f#4 v=0
457036 On ch=1 n=d#4 v=0
457044 On ch=1 n=c#4 v=47
457412 On ch=1 n=c#4 v=0
457434 On ch=1 n=d#4 v=35
457796 On ch=1 n=c#4 v=54
457854 On ch=1 n=d#4 v=0
458240 On ch=1 n=b3 v=54
458248 On ch=1 n=c#4 v=0
458598 On ch=1 n=b4 v=0
458606 On ch=1 n=d#5 v=0
458644 On ch=1 n=b2 v=62
458652 On ch=1 n=e5 v=58
458658 On ch=1 n=f#4 v=52
458666 On ch=1 n=b4 v=58
458678 Par ch=1 c=64 v=0
458692 On ch=1 n=b3 v=0
458816 Par ch=1 c=64 v=127
459096 On ch=1 n=b2 v=0
459128 On ch=1 n=f#3 v=62
459514 On ch=1 n=c#4 v=58
459570 On ch=1 n=f#3 v=0
459898 On ch=1 n=d#4 v=61
459936 On ch=1 n=f#4 v=0
459966 On ch=1 n=c#4 v=0
460338 On ch=1 n=a#4 v=49
460352 Par ch=1 c=64 v=0
460364 On ch=1 n=b4 v=0
460364 On ch=1 n=e4 v=61
460392 On ch=1 n=d#4 v=0
460448 Par ch=1 c=64 v=127
460820 On ch=1 n=g#4 v=58
460940 On ch=1 n=e4 v=0
460948 On ch=1 n=a#4 v=0
460994 On ch=1 n=e5 v=0
461118 On ch=1 n=a#4 v=43
461286 On ch=1 n=a#4 v=0
461296 On ch=1 n=g#4 v=0
461318 On ch=1 n=d#5 v=49
461332 On ch=1 n=b4 v=46
461332 On ch=1 n=f#4 v=36
461362 Par ch=1 c=64 v=0
461466 Par ch=1 c=64 v=127
461786 On ch=1 n=d#4 v=43
462162 On ch=1 n=c#4 v=51
462222 On ch=1 n=d#4 v=0
462526 On ch=1 n=c#4 v=0
462540 On ch=1 n=d#4 v=55
462892 On ch=1 n=c#4 v=56
463050 On ch=1 n=d#4 v=0
463208 On ch=1 n=d#5 v=0
463266 On ch=1 n=b3 v=59
463292 On ch=1 n=b4 v=0
463298 On ch=1 n=c#4 v=0
463448 On ch=1 n=f#4 v=0
463748 On ch=1 n=b3 v=0
463796 Par ch=1 c=64 v=0
463810 On ch=1 n=e5 v=55
463810 On ch=1 n=f#4 v=46
463836 On ch=1 n=b4 v=53
463848 On ch=1 n=b2 v=42
463902 Par ch=1 c=64 v=127
464298 On ch=1 n=f#3 v=56
464336 On ch=1 n=b2 v=0
464702 On ch=1 n=c#4 v=49
464820 On ch=1 n=f#3 v=0
465050 On ch=1 n=d#4 v=55
465072 On ch=1 n=c#4 v=0
465400 On ch=1 n=e4 v=52
465412 On ch=1 n=d#4 v=0
465428 On ch=1 n=f#4 v=0
465764 On ch=1 n=g#4 v=42
465776 On ch=1 n=e4 v=0
465940 On ch=1 n=b4 v=0
466214 On ch=1 n=f#4 v=46
466234 On ch=1 n=g#4 v=0
466234 On ch=1 n=a#4 v=46
466236 Par ch=1 c=64 v=0
466356 Par ch=1 c=64 v=127
466610 On ch=1 n=d#4 v=52
466972 On ch=1 n=c#4 v=45
467006 On ch=1 n=d#4 v=0
467322 On ch=1 n=d#4 v=49
467366 On ch=1 n=c#4 v=0
467682 On ch=1 n=e5 v=0
467714 On ch=1 n=c#4 v=45
467778 On ch=1 n=d#4 v=0
468270 On ch=1 n=b3 v=31
468276 On ch=1 n=c#4 v=0
468288 On ch=1 n=d#5 v=50
468516 On ch=1 n=a#4 v=0
468564 On ch=1 n=f#4 v=0
468648 On ch=1 n=a#4 v=35
468878 On ch=1 n=d#5 v=0
468954 On ch=1 n=f#4 v=39
468962 On ch=1 n=d#5 v=46
468970 On ch=1 n=b4 v=43
468972 On ch=1 n=d#4 v=48
468996 Par ch=1 c=64 v=0
469024 On ch=1 n=a#4 v=0
469030 On ch=1 n=b3 v=0
469136 Par ch=1 c=64 v=127
469466 On ch=1 n=b3 v=51
469510 On ch=1 n=d#4 v=0
469782 On ch=1 n=g#3 v=44
469792 On ch=1 n=b3 v=0
470132 On ch=1 n=b3 v=43
470138 On ch=1 n=g#3 v=0
470466 On ch=1 n=g#3 v=47
470624 On ch=1 n=b3 v=0
470796 On ch=1 n=f#3 v=45
470820 Par ch=1 c=64 v=0
470842 On ch=1 n=g#3 v=0
470964 Par ch=1 c=64 v=127
471150 On ch=1 n=b3 v=39
471180 On ch=1 n=f#3 v=0
471492 On ch=1 n=g#3 v=38
471600 On ch=1 n=b3 v=0
471824 On ch=1 n=f#3 v=36
471848 On ch=1 n=g#3 v=0
472198 On ch=1 n=g#3 v=35
472236 On ch=1 n=f#3 v=0
472496 On ch=1 n=b4 v=0
472612 On ch=1 n=d#5 v=0
472616 On ch=1 n=f#3 v=33
472680 On ch=1 n=g#3 v=0
472752 On ch=1 n=f#4 v=0
473080 On ch=1 n=d#3 v=30
473176 On ch=1 n=f#3 v=0
473692 On ch=1 n=d#5 v=45
473702 On ch=1 n=b2 v=28
473702 On ch=1 n=b5 v=47
473712 On ch=1 n=b4 v=43
473712 Par ch=1 c=64 v=0
473726 On ch=1 n=b3 v=28
473730 On ch=1 n=d#3 v=0
473824 Par ch=1 c=64 v=127
473926 On ch=1 n=f#5 v=47
473976 On ch=1 n=b5 v=0
474142 On ch=1 n=d#5 v=0
474384 On ch=1 n=b2 v=0
474442 On ch=1 n=b3 v=0
474790 On ch=1 n=b4 v=0
474804 On ch=1 n=f#5 v=0
475434 On ch=1 n=f#5 v=36
475446 On ch=1 n=a4 v=36
475452 On ch=1 n=d5 v=46
475452 On ch=1 n=d3 v=30
475464 On ch=1 n=d4 v=31
475556 Par ch=1 c=64 v=0
475748 Par ch=1 c=64 v=127
476726 On ch=1 n=d3 v=0
476838 On ch=1 n=d4 v=0
477324 On ch=1 n=d2 v=68
478064 On ch=1 n=d3 v=45
478566 On ch=1 n=a3 v=54
478938 On ch=1 n=a4 v=0
478952 On ch=1 n=d4 v=45
478958 On ch=1 n=d5 v=0
479056 On ch=1 n=f#5 v=0
479304 On ch=1 n=a4 v=44
479616 On ch=1 n=d5 v=52
479648 On ch=1 n=a3 v=0
479676 On ch=1 n=d4 v=0
479888 On ch=1 n=e5 v=61
479966 On ch=1 n=d5 v=0
480164 On ch=1 n=g5 v=73
480226 On ch=1 n=e5 v=0
480432 On ch=1 n=f#5 v=66
480468 On ch=1 n=g5 v=0
480542 On ch=1 n=a4 v=0
480720 On ch=1 n=a5 v=56
480736 On ch=1 n=f#5 v=0
480966 On ch=1 n=d6 v=63
481024 On ch=1 n=a5 v=0
481234 On ch=1 n=e6 v=52
481298 On ch=1 n=d6 v=0
481508 On ch=1 n=e6 v=0
481558 On ch=1 n=g6 v=40
481800 On ch=1 n=f#6 v=49
481858 On ch=1 n=g6 v=0
482082 On ch=1 n=a6 v=39
482132 On ch=1 n=f#6 v=0
482398 On ch=1 n=d7 v=28
482438 On ch=1 n=a6 v=0
482664 On ch=1 n=e7 v=49
482672 On ch=1 n=d7 v=0
483004 On ch=1 n=g7 v=35
483094 On ch=1 n=e7 v=0
483318 On ch=1 n=f#7 v=35
483400 On ch=1 n=g7 v=0
483618 On ch=1 n=f#7 v=0
484094 On ch=1 n=d3 v=0
484154 On ch=1 n=d2 v=0
486890 Par ch=1 c=64 v=0
486952 On ch=1 n=c#5 v=78
486960 On ch=1 n=a5 v=81
486970 On ch=1 n=a3 v=75
486970 On ch=1 n=a2 v=68
487032 Par ch=1 c=64 v=127
487136 On ch=1 n=e5 v=76
487190 On ch=1 n=a5 v=0
487194 On ch=1 n=c#5 v=0
487542 On ch=1 n=e5 v=0
487556 On ch=1 n=a2 v=0
487556 On ch=1 n=a3 v=0
488408 On ch=1 n=e5 v=81
488408 On ch=1 n=c5 v=83
488424 On ch=1 n=g4 v=82
488424 On ch=1 n=c4 v=79
488432 On ch=1 n=c3 v=78
488454 Par ch=1 c=64 v=0
488618 Par ch=1 c=64 v=127
489028 On ch=1 n=c5 v=0
489040 On ch=1 n=e5 v=0
489042 On ch=1 n=g4 v=0
489104 On ch=1 n=c4 v=0
489134 On ch=1 n=c3 v=0
490440 On ch=1 n=c2 v=110
491280 On ch=1 n=c3 v=75
492070 On ch=1 n=g3 v=70
492506 On ch=1 n=c4 v=68
492532 On ch=1 n=g3 v=0
492870 On ch=1 n=g4 v=56
492960 On ch=1 n=c4 v=0
493176 On ch=1 n=c5 v=56
493352 On ch=1 n=g4 v=0
493466 On ch=1 n=d5 v=54
493490 On ch=1 n=c5 v=0
493766 On ch=1 n=f5 v=52
493806 On ch=1 n=d5 v=0
494052 On ch=1 n=e5 v=51
494074 On ch=1 n=f5 v=0
494356 On ch=1 n=g5 v=51
494396 On ch=1 n=e5 v=0
494606 On ch=1 n=c6 v=49
494826 On ch=1 n=g5 v=0
494850 On ch=1 n=d6 v=48
494958 On ch=1 n=c6 v=0
495120 On ch=1 n=f6 v=46
495138 On ch=1 n=d6 v=0
495422 On ch=1 n=e6 v=45
495440 On ch=1 n=f6 v=0
495714 On ch=1 n=g6 v=44
495728 On ch=1 n=e6 v=0
496026 On ch=1 n=c7 v=43
496034 On ch=1 n=g6 v=0
496350 On ch=1 n=c7 v=0
496372 On ch=1 n=d7 v=40
496758 On ch=1 n=f7 v=39
496788 On ch=1 n=d7 v=0
497240 On ch=1 n=e7 v=37
497286 On ch=1 n=f7 v=0
498414 On ch=1 n=e7 v=0
499560 On ch=1 n=c2 v=0
499568 On ch=1 n=c3 v=0
500908 On ch=1 n=g5 v=54
501038 Par ch=1 c=64 v=0
501194 Par ch=1 c=64 v=127
501448 On ch=1 n=a#4 v=20
501462 On ch=1 n=c5 v=20
501780 On ch=1 n=a#4 v=0
501794 On ch=1 n=c5 v=0
501840 On ch=1 n=a#4 v=24
501862 On ch=1 n=c5 v=19
502122 On ch=1 n=a#4 v=0
502144 On ch=1 n=c5 v=0
502180 On ch=1 n=a#4 v=32
502184 On ch=1 n=c5 v=25
502462 On ch=1 n=a#4 v=0
502466 On ch=1 n=c5 v=0
502552 On ch=1 n=c5 v=22
502552 On ch=1 n=a#4 v=29
502556 On ch=1 n=f5 v=57
502600 On ch=1 n=g5 v=0
502794 On ch=1 n=a#4 v=0
502794 On ch=1 n=c5 v=0
502924 On ch=1 n=g5 v=56
502928 On ch=1 n=c5 v=20
502928 On ch=1 n=a#4 v=39
502932 On ch=1 n=f5 v=0
503210 On ch=1 n=a#4 v=0
503210 On ch=1 n=c5 v=0
503382 Par ch=1 c=64 v=0
503402 On ch=1 n=g#5 v=53
503416 On ch=1 n=f3 v=51
503442 On ch=1 n=g5 v=0
503460 Par ch=1 c=64 v=127
503670 On ch=1 n=g5 v=46
503718 On ch=1 n=g#5 v=0
503918 On ch=1 n=f5 v=44
503928 On ch=1 n=g#4 v=20
503928 On ch=1 n=f4 v=17
503928 On ch=1 n=c4 v=26
503934 On ch=1 n=c5 v=30
503958 On ch=1 n=g5 v=0
504094 On ch=1 n=c#6 v=44
504210 On ch=1 n=c4 v=0
504210 On ch=1 n=f4 v=0
504210 On ch=1 n=g#4 v=0
504216 On ch=1 n=c5 v=0
504264 On ch=1 n=c#6 v=0
504264 On ch=1 n=f5 v=0
504264 On ch=1 n=g#4 v=20
504264 On ch=1 n=f4 v=27
504278 On ch=1 n=c4 v=33
504284 On ch=1 n=c5 v=21
504294 On ch=1 n=c6 v=34
504546 On ch=1 n=f4 v=0
504546 On ch=1 n=g#4 v=0
504560 On ch=1 n=c4 v=0
504566 On ch=1 n=c5 v=0
504584 On ch=1 n=g#4 v=25
504608 On ch=1 n=f4 v=28
504614 On ch=1 n=c5 v=25
504630 On ch=1 n=c4 v=25
504866 On ch=1 n=g#4 v=0
504890 On ch=1 n=f4 v=0
504896 On ch=1 n=c5 v=0
504912 On ch=1 n=c4 v=0
504920 On ch=1 n=g#4 v=25
504926 On ch=1 n=c5 v=25
504942 On ch=1 n=f4 v=28
504944 On ch=1 n=f3 v=0
504944 On ch=1 n=c4 v=24
505202 On ch=1 n=g#4 v=0
505208 On ch=1 n=c5 v=0
505224 On ch=1 n=f4 v=0
505226 On ch=1 n=c4 v=0
505240 On ch=1 n=g#4 v=20
505240 On ch=1 n=f4 v=20
505248 On ch=1 n=c5 v=31
505270 On ch=1 n=c4 v=20
505572 On ch=1 n=f4 v=0
505572 On ch=1 n=g#4 v=0
505580 On ch=1 n=c5 v=0
505602 On ch=1 n=c4 v=0
505688 Par ch=1 c=64 v=0
505700 On ch=1 n=e3 v=47
505714 On ch=1 n=g5 v=58
505748 Par ch=1 c=64 v=127
505774 On ch=1 n=c6 v=0
506288 On ch=1 n=g4 v=27
506288 On ch=1 n=c4 v=27
506296 On ch=1 n=c5 v=23
506296 On ch=1 n=a#4 v=28
507098 On ch=1 n=c4 v=0
507098 On ch=1 n=g4 v=0
507106 On ch=1 n=a#4 v=0
507106 On ch=1 n=c5 v=0
507222 On ch=1 n=c5 v=26
507226 On ch=1 n=c4 v=28
507240 On ch=1 n=e3 v=0
507504 On ch=1 n=c5 v=0
507508 On ch=1 n=c4 v=0
507574 On ch=1 n=c5 v=27
507586 On ch=1 n=f5 v=59
507602 On ch=1 n=c4 v=27
507650 On ch=1 n=g5 v=0
507856 On ch=1 n=c5 v=0
507882 On ch=1 n=c5 v=28
507884 On ch=1 n=c4 v=0
507894 On ch=1 n=g5 v=60
507906 On ch=1 n=f5 v=0
507908 On ch=1 n=c4 v=27
508164 On ch=1 n=c5 v=0
508190 On ch=1 n=c4 v=0
508236 Par ch=1 c=64 v=0
508280 On ch=1 n=g#5 v=56
508300 On ch=1 n=f3 v=58
508316 On ch=1 n=g5 v=0
508352 Par ch=1 c=64 v=127
508516 On ch=1 n=g#5 v=0
508528 On ch=1 n=f5 v=44
508750 On ch=1 n=d#6 v=45
508766 On ch=1 n=c5 v=29
508766 On ch=1 n=c4 v=27
508772 On ch=1 n=f4 v=31
508782 On ch=1 n=g#4 v=22
508856 On ch=1 n=c#6 v=53
508880 On ch=1 n=d#6 v=0
508894 On ch=1 n=f5 v=0
508984 On ch=1 n=c6 v=60
509018 On ch=1 n=c#6 v=0
509078 On ch=1 n=c6 v=0
509132 On ch=1 n=c6 v=60
509416 On ch=1 n=c4 v=0
509416 On ch=1 n=c5 v=0
509422 On ch=1 n=f4 v=0
509432 On ch=1 n=g#4 v=0
509464 On ch=1 n=c5 v=25
509470 On ch=1 n=c4 v=26
509480 On ch=1 n=g#4 v=25
509766 On ch=1 n=c5 v=0
509772 On ch=1 n=c4 v=0
509782 On ch=1 n=g#4 v=0
509818 On ch=1 n=c5 v=28
509830 On ch=1 n=f3 v=0
509830 On ch=1 n=g#4 v=28
509832 On ch=1 n=c4 v=30
510140 On ch=1 n=c5 v=0
510152 On ch=1 n=g#4 v=0
510154 On ch=1 n=c4 v=0
510258 On ch=1 n=c5 v=31
510266 On ch=1 n=f4 v=34
510272 On ch=1 n=g#4 v=32
510522 On ch=1 n=c6 v=0
510590 On ch=1 n=c5 v=0
510598 On ch=1 n=f4 v=0
510604 On ch=1 n=g#4 v=0
510800 Par ch=1 c=64 v=0
510818 On ch=1 n=g#3 v=60
510828 On ch=1 n=c6 v=62
510892 Par ch=1 c=64 v=127
511320 On ch=1 n=d#4 v=20
511326 On ch=1 n=c5 v=30
511336 On ch=1 n=g#4 v=19
511582 On ch=1 n=d#4 v=0
511588 On ch=1 n=c5 v=0
511598 On ch=1 n=g#4 v=0
511612 On ch=1 n=c5 v=33
511626 On ch=1 n=g#4 v=34
511626 On ch=1 n=d#4 v=33
511894 On ch=1 n=c5 v=0
511908 On ch=1 n=d#4 v=0
511908 On ch=1 n=g#4 v=0
511928 On ch=1 n=g#4 v=38
511932 On ch=1 n=c5 v=33
511942 On ch=1 n=a#5 v=57
511942 On ch=1 n=d#4 v=35
511990 On ch=1 n=c6 v=0
512108 On ch=1 n=g#5 v=51
512128 On ch=1 n=a#5 v=0
512210 On ch=1 n=g#4 v=0
512214 On ch=1 n=c5 v=0
512224 On ch=1 n=d#4 v=0
512250 On ch=1 n=g#5 v=0
512264 On ch=1 n=g5 v=54
512264 On ch=1 n=c5 v=20
512280 On ch=1 n=g#4 v=25
512280 On ch=1 n=d#4 v=34
512386 On ch=1 n=g#3 v=0
512400 On ch=1 n=a#5 v=60
512456 On ch=1 n=g5 v=0
512526 On ch=1 n=c5 v=0
512542 On ch=1 n=d#4 v=0
512542 On ch=1 n=g#4 v=0
512570 On ch=1 n=g#4 v=33
512578 On ch=1 n=g#5 v=66
512586 On ch=1 n=c5 v=41
512586 On ch=1 n=e4 v=38
512626 On ch=1 n=a#5 v=0
512740 On ch=1 n=g5 v=59
512774 On ch=1 n=g#5 v=0
512864 On ch=1 n=g5 v=0
512892 On ch=1 n=g#4 v=0
512908 On ch=1 n=e4 v=0
512908 On ch=1 n=c5 v=0
512950 Par ch=1 c=64 v=0
512996 On ch=1 n=c#3 v=54
513006 On ch=1 n=g5 v=62
513046 Par ch=1 c=64 v=127
513528 On ch=1 n=c#5 v=25
513528 On ch=1 n=g#4 v=24
513528 On ch=1 n=f4 v=35
513626 On ch=1 n=f5 v=54
513638 On ch=1 n=g5 v=0
513706 On ch=1 n=f5 v=0
513772 On ch=1 n=f5 v=57
513850 On ch=1 n=f4 v=0
513850 On ch=1 n=g#4 v=0
513850 On ch=1 n=c#5 v=0
513992 On ch=1 n=f6 v=60
514008 On ch=1 n=c#5 v=25
514008 On ch=1 n=g#4 v=24
514008 On ch=1 n=f4 v=35
514092 On ch=1 n=f5 v=0
514330 On ch=1 n=f4 v=0
514330 On ch=1 n=g#4 v=0
514330 On ch=1 n=c#5 v=0
514424 On ch=1 n=c#5 v=30
514424 On ch=1 n=f4 v=31
514428 On ch=1 n=f5 v=25
514430 On ch=1 n=g#4 v=33
514686 On ch=1 n=f4 v=0
514686 On ch=1 n=c#5 v=0
514690 On ch=1 n=f5 v=0
514692 On ch=1 n=g#4 v=0
514718 On ch=1 n=f5 v=28
514734 On ch=1 n=c#5 v=29
514734 On ch=1 n=g#4 v=27
514734 On ch=1 n=f4 v=27
514980 On ch=1 n=f5 v=0
514996 On ch=1 n=f4 v=0
514996 On ch=1 n=g#4 v=0
514996 On ch=1 n=c#5 v=0
515046 On ch=1 n=f4 v=35
515048 On ch=1 n=c#5 v=30
515056 On ch=1 n=f5 v=28
515056 On ch=1 n=g#4 v=29
515308 On ch=1 n=f4 v=0
515310 On ch=1 n=c#5 v=0
515318 On ch=1 n=g#4 v=0
515318 On ch=1 n=f5 v=0
515422 On ch=1 n=f4 v=33
515428 On ch=1 n=c#5 v=30
515436 On ch=1 n=f5 v=27
515442 On ch=1 n=g#4 v=28
515542 On ch=1 n=f6 v=0
515754 On ch=1 n=f4 v=0
515760 On ch=1 n=c#5 v=0
515768 On ch=1 n=f5 v=0
515774 On ch=1 n=g#4 v=0
515832 On ch=1 n=g#4 v=45
516168 On ch=1 n=f#4 v=48
516218 On ch=1 n=g#4 v=0
516456 On ch=1 n=c#3 v=0
516512 On ch=1 n=g#4 v=48
516544 On ch=1 n=f#4 v=0
516852 On ch=1 n=f#4 v=34
516892 On ch=1 n=g#4 v=0
517170 Par ch=1 c=64 v=0
517208 On ch=1 n=f4 v=39
517254 On ch=1 n=f#4 v=0
517530 On ch=1 n=g#4 v=40
517588 On ch=1 n=f4 v=0
517864 On ch=1 n=f4 v=39
517890 On ch=1 n=g#4 v=0
517908 Par ch=1 c=64 v=127
518164 On ch=1 n=d#4 v=41
518268 On ch=1 n=f4 v=0
518496 On ch=1 n=f4 v=36
518540 On ch=1 n=d#4 v=0
518816 On ch=1 n=d#4 v=45
519112 On ch=1 n=f4 v=0
519136 On ch=1 n=c#4 v=50
519162 On ch=1 n=d#4 v=0
519466 On ch=1 n=f4 v=43
519478 On ch=1 n=f5 v=43
519498 On ch=1 n=c#4 v=0
519570 Par ch=1 c=64 v=0
519706 Par ch=1 c=64 v=127
519784 On ch=1 n=c#5 v=47
519798 On ch=1 n=f5 v=0
519812 On ch=1 n=c#4 v=39
519890 On ch=1 n=f4 v=0
520080 On ch=1 n=c5 v=51
520094 On ch=1 n=c4 v=40
520100 On ch=1 n=c#4 v=0
520112 On ch=1 n=c#5 v=0
520358 On ch=1 n=f4 v=45
520370 On ch=1 n=c4 v=0
520384 On ch=1 n=f5 v=56
520406 On ch=1 n=c5 v=0
520686 On ch=1 n=c4 v=52
520690 On ch=1 n=c5 v=54
520726 On ch=1 n=f5 v=0
520736 On ch=1 n=f4 v=0
520918 Par ch=1 c=64 v=0
520966 On ch=1 n=a#4 v=51
520992 On ch=1 n=c5 v=0
520992 On ch=1 n=a#3 v=53
521018 Par ch=1 c=64 v=127
521052 On ch=1 n=c4 v=0
521246 On ch=1 n=a#3 v=0
521262 On ch=1 n=f5 v=54
521266 On ch=1 n=f4 v=50
521290 On ch=1 n=a#4 v=0
521552 On ch=1 n=a#3 v=48
521566 On ch=1 n=a#4 v=58
521596 On ch=1 n=f5 v=0
521694 On ch=1 n=f4 v=0
521838 On ch=1 n=g#4 v=54
521842 On ch=1 n=g#3 v=55
521856 On ch=1 n=a#4 v=0
521896 On ch=1 n=a#3 v=0
522052 Par ch=1 c=64 v=0
522110 On ch=1 n=f4 v=51
522114 On ch=1 n=f5 v=59
522128 On ch=1 n=g#3 v=0
522140 On ch=1 n=g#4 v=0
522188 Par ch=1 c=64 v=127
522400 On ch=1 n=f#3 v=48
522404 On ch=1 n=f#4 v=60
522460 On ch=1 n=f5 v=0
522472 On ch=1 n=f4 v=0
522692 On ch=1 n=g#4 v=58
522706 On ch=1 n=g#3 v=51
522730 On ch=1 n=f#3 v=0
522742 On ch=1 n=f#4 v=0
523030 On ch=1 n=g#4 v=0
523044 On ch=1 n=g#3 v=0
523050 Par ch=1 c=64 v=0
523062 On ch=1 n=c#4 v=33
523072 On ch=1 n=b4 v=33
523072 On ch=1 n=c#3 v=38
523092 On ch=1 n=f4 v=18
523172 Par ch=1 c=64 v=127
523196 On ch=1 n=g#4 v=38
523282 On ch=1 n=f4 v=0
523332 On ch=1 n=g#4 v=0
523340 On ch=1 n=g4 v=32
523412 On ch=1 n=c#3 v=0
523420 On ch=1 n=g#4 v=46
523440 On ch=1 n=g4 v=0
523518 On ch=1 n=g4 v=40
523522 On ch=1 n=b4 v=0
523538 On ch=1 n=c#4 v=0
523550 On ch=1 n=g#4 v=0
523560 On ch=1 n=f3 v=32
523606 On ch=1 n=f4 v=44
523612 Par ch=1 c=64 v=0
523636 On ch=1 n=g4 v=0
523702 Par ch=1 c=64 v=127
523714 On ch=1 n=c3 v=34
523732 On ch=1 n=c5 v=44
523732 On ch=1 n=c4 v=41
523802 On ch=1 n=g#4 v=39
523806 On ch=1 n=f3 v=0
523838 On ch=1 n=f4 v=0
523892 On ch=1 n=g4 v=26
523914 On ch=1 n=g#4 v=0
523984 On ch=1 n=g#4 v=48
523994 On ch=1 n=c3 v=0
524012 On ch=1 n=g4 v=0
524032 On ch=1 n=c4 v=0
524080 On ch=1 n=g4 v=37
524106 On ch=1 n=g#4 v=0
524140 Par ch=1 c=64 v=0
524144 On ch=1 n=f3 v=42
524182 On ch=1 n=c5 v=0
524182 On ch=1 n=f4 v=44
524198 On ch=1 n=g4 v=0
524250 Par ch=1 c=64 v=127
524274 On ch=1 n=c#4 v=52
524276 On ch=1 n=b4 v=45
524288 On ch=1 n=c#3 v=51
524354 On ch=1 n=f3 v=0
524356 On ch=1 n=g#4 v=43
524366 On ch=1 n=f4 v=0
524456 On ch=1 n=g4 v=26
524472 On ch=1 n=g#4 v=0
524558 On ch=1 n=g#4 v=53
524576 On ch=1 n=g4 v=0
524598 On ch=1 n=c#4 v=0
524606 On ch=1 n=c#3 v=0
524648 On ch=1 n=g4 v=39
524680 On ch=1 n=g#4 v=0
524686 Par ch=1 c=64 v=0
524688 On ch=1 n=f3 v=39
524718 On ch=1 n=f4 v=48
524726 On ch=1 n=b4 v=0
524746 On ch=1 n=g4 v=0
524790 On ch=1 n=c3 v=45
524804 On ch=1 n=c4 v=47
524806 Par ch=1 c=64 v=127
524828 On ch=1 n=c5 v=47
524880 On ch=1 n=f3 v=0
524898 On ch=1 n=g#4 v=50
524912 On ch=1 n=f4 v=0
524984 On ch=1 n=g4 v=40
525014 On ch=1 n=g#4 v=0
525060 On ch=1 n=c3 v=0
525074 On ch=1 n=g#4 v=53
525094 On ch=1 n=g4 v=0
525118 On ch=1 n=c4 v=0
525152 On ch=1 n=g4 v=48
525180 On ch=1 n=g#4 v=0
525192 On ch=1 n=f3 v=40
525200 Par ch=1 c=64 v=0
525232 On ch=1 n=f4 v=45
525244 On ch=1 n=g4 v=0
525278 On ch=1 n=c5 v=0
525308 Par ch=1 c=64 v=127
525334 On ch=1 n=c#5 v=49
525334 On ch=1 n=b3 v=54
525334 On ch=1 n=c3 v=43
525402 On ch=1 n=f3 v=0
525410 On ch=1 n=f4 v=0
525420 On ch=1 n=g#4 v=51
525488 On ch=1 n=f#4 v=48
525516 On ch=1 n=g#4 v=0
525526 On ch=1 n=c3 v=0
525606 On ch=1 n=g#4 v=51
525620 On ch=1 n=f#4 v=0
525658 Par ch=1 c=64 v=0
525680 On ch=1 n=f#4 v=43
525698 On ch=1 n=g#4 v=0
525704 On ch=1 n=b3 v=0
525720 On ch=1 n=f3 v=45
525740 On ch=1 n=f4 v=31
525770 On ch=1 n=f#4 v=0
525784 On ch=1 n=c#5 v=0
525786 Par ch=1 c=64 v=127
525834 On ch=1 n=c#5 v=58
525862 On ch=1 n=b3 v=61
525868 On ch=1 n=c3 v=45
525892 On ch=1 n=f4 v=0
525920 On ch=1 n=g#4 v=53
525922 On ch=1 n=f3 v=0
525988 On ch=1 n=f#4 v=50
526014 On ch=1 n=g#4 v=0
526102 On ch=1 n=g#4 v=50
526114 On ch=1 n=f#4 v=0
526136 On ch=1 n=c3 v=0
526168 On ch=1 n=f#4 v=47
526200 On ch=1 n=g#4 v=0
526216 On ch=1 n=b3 v=0
526216 On ch=1 n=f3 v=52
526224 Par ch=1 c=64 v=0
526268 On ch=1 n=f#4 v=0
526272 On ch=1 n=f4 v=39
526284 On ch=1 n=c#5 v=0
526316 Par ch=1 c=64 v=127
526382 On ch=1 n=f4 v=0
526392 On ch=1 n=b3 v=59
526392 On ch=1 n=c3 v=44
526404 On ch=1 n=c#5 v=37
526450 On ch=1 n=f3 v=0
526482 On ch=1 n=g#4 v=43
526536 On ch=1 n=f#4 v=57
526570 On ch=1 n=g#4 v=0
526602 On ch=1 n=f4 v=67
526636 On ch=1 n=f#4 v=0
526680 On ch=1 n=g#4 v=52
526726 On ch=1 n=f4 v=0
526736 On ch=1 n=c#5 v=0
526776 On ch=1 n=c#5 v=73
526844 On ch=1 n=g#4 v=0
526888 On ch=1 n=f5 v=75
526904 On ch=1 n=g#4 v=76
526940 On ch=1 n=c#5 v=0
526978 On ch=1 n=g#4 v=0
526994 On ch=1 n=g#5 v=70
527032 On ch=1 n=g#4 v=76
527052 On ch=1 n=f5 v=0
527098 On ch=1 n=g#4 v=0
527126 On ch=1 n=g#5 v=0
527128 On ch=1 n=g#5 v=59
527128 On ch=1 n=g#4 v=76
527138 On ch=1 n=c#6 v=64
527210 On ch=1 n=f6 v=62
527278 On ch=1 n=g#4 v=0
527278 On ch=1 n=g#5 v=0
527288 On ch=1 n=g#5 v=76
527298 On ch=1 n=g#6 v=56
527302 On ch=1 n=c#6 v=0
527304 On ch=1 n=g#4 v=76
527374 On ch=1 n=f6 v=0
527396 On ch=1 n=f7 v=58
527438 On ch=1 n=g#5 v=0
527454 On ch=1 n=g#4 v=0
527462 On ch=1 n=g#6 v=0
527496 On ch=1 n=g#5 v=76
527502 On ch=1 n=d#7 v=48
527512 On ch=1 n=g#4 v=76
527558 On ch=1 n=f7 v=0
527572 On ch=1 n=c#7 v=51
527636 On ch=1 n=g#6 v=52
527666 On ch=1 n=d#7 v=0
527706 On ch=1 n=f6 v=45
527736 On ch=1 n=c#7 v=0
527798 On ch=1 n=d#6 v=51
527800 On ch=1 n=g#6 v=0
527806 On ch=1 n=g#5 v=0
527822 On ch=1 n=g#4 v=0
527870 On ch=1 n=f6 v=0
527878 On ch=1 n=c#6 v=44
527920 On ch=1 n=g#5 v=56
527922 On ch=1 n=b3 v=0
527924 On ch=1 n=c3 v=0
527962 On ch=1 n=d#6 v=0
528010 On ch=1 n=f5 v=47
528042 On ch=1 n=c#6 v=0
528084 On ch=1 n=g#5 v=0
528088 On ch=1 n=d#5 v=56
528088 On ch=1 n=f#4 v=48
528088 On ch=1 n=f#3 v=56
528174 On ch=1 n=f5 v=0
528200 On ch=1 n=c#5 v=54
528252 On ch=1 n=d#5 v=0
528360 On ch=1 n=g#4 v=45
528364 On ch=1 n=c#5 v=0
528420 On ch=1 n=f#3 v=0
528420 On ch=1 n=f#4 v=0
528464 On ch=1 n=c#5 v=56
528464 On ch=1 n=f4 v=32
528464 On ch=1 n=f3 v=37
528496 Par ch=1 c=64 v=0
528554 On ch=1 n=g#4 v=0
528666 On ch=1 n=f3 v=0
528666 On ch=1 n=f4 v=0
528666 On ch=1 n=c#5 v=0
528666 On ch=1 n=d5 v=45
528666 On ch=1 n=e4 v=47
528704 On ch=1 n=e3 v=39
528724 Par ch=1 c=64 v=127
528734 On ch=1 n=b4 v=43
528826 On ch=1 n=a#4 v=34
528838 On ch=1 n=b4 v=0
528916 On ch=1 n=b4 v=31
528936 On ch=1 n=a#4 v=0
528970 On ch=1 n=a#4 v=45
528998 On ch=1 n=b4 v=0
529016 On ch=1 n=b3 v=39
529022 On ch=1 n=e3 v=0
529024 On ch=1 n=e4 v=0
529086 On ch=1 n=g#4 v=41
529092 On ch=1 n=a#4 v=0
529094 Par ch=1 c=64 v=0
529116 On ch=1 n=d5 v=0
529174 On ch=1 n=d#5 v=48
529202 On ch=1 n=b3 v=0
529206 Par ch=1 c=64 v=127
529218 On ch=1 n=d#3 v=48
529228 On ch=1 n=d#4 v=30
529252 On ch=1 n=g#4 v=0
529254 On ch=1 n=b4 v=44
529356 On ch=1 n=b4 v=0
529356 On ch=1 n=a#4 v=32
529422 On ch=1 n=b4 v=44
529432 On ch=1 n=a#4 v=0
529498 On ch=1 n=a#4 v=48
529524 On ch=1 n=b4 v=0
529538 On ch=1 n=d#3 v=0
529544 On ch=1 n=b3 v=39
529568 On ch=1 n=d#4 v=0
529574 On ch=1 n=g#4 v=45
529596 On ch=1 n=a#4 v=0
529612 Par ch=1 c=64 v=0
529624 On ch=1 n=d#5 v=0
529676 On ch=1 n=g#4 v=0
529678 On ch=1 n=b3 v=0
529684 On ch=1 n=d5 v=48
529692 On ch=1 n=e3 v=48
529706 On ch=1 n=e4 v=56
529734 Par ch=1 c=64 v=127
529746 On ch=1 n=b4 v=36
529846 On ch=1 n=a#4 v=33
529860 On ch=1 n=b4 v=0
529936 On ch=1 n=a#4 v=0
529944 On ch=1 n=b4 v=45
529988 On ch=1 n=e3 v=0
529998 On ch=1 n=a#4 v=52
530008 On ch=1 n=e4 v=0
530032 On ch=1 n=b3 v=47
530038 On ch=1 n=b4 v=0
530054 Par ch=1 c=64 v=0
530084 On ch=1 n=g#4 v=60
530098 On ch=1 n=a#4 v=0
530134 On ch=1 n=d5 v=0
530154 Par ch=1 c=64 v=127
530164 On ch=1 n=d#5 v=56
530200 On ch=1 n=d#4 v=56
530202 On ch=1 n=b3 v=0
530206 On ch=1 n=d#3 v=61
530220 On ch=1 n=g#4 v=0
530244 On ch=1 n=b4 v=50
530352 On ch=1 n=a#4 v=59
530388 On ch=1 n=b4 v=0
530430 On ch=1 n=b4 v=56
530444 On ch=1 n=a#4 v=0
530474 On ch=1 n=d#3 v=0
530482 On ch=1 n=d#4 v=0
530492 On ch=1 n=a#4 v=56
530526 On ch=1 n=b4 v=0
530544 On ch=1 n=b3 v=47
530564 On ch=1 n=g#4 v=56
530578 Par ch=1 c=64 v=0
530596 On ch=1 n=a#4 v=0
530614 On ch=1 n=d#5 v=0
530646 On ch=1 n=d4 v=57
530646 On ch=1 n=d3 v=56
530664 On ch=1 n=g#4 v=0
530664 On ch=1 n=e5 v=52
530686 Par ch=1 c=64 v=127
530718 On ch=1 n=b4 v=53
530740 On ch=1 n=b3 v=0
530822 On ch=1 n=a4 v=52
530834 On ch=1 n=b4 v=0
530942 On ch=1 n=b4 v=52
530950 On ch=1 n=a4 v=0
531008 On ch=1 n=a4 v=52
531020 Par ch=1 c=64 v=0
531032 On ch=1 n=d3 v=0
531048 On ch=1 n=b3 v=51
531058 On ch=1 n=b4 v=0
531072 On ch=1 n=g#4 v=32
531080 On ch=1 n=d4 v=0
531114 On ch=1 n=e5 v=0
531124 On ch=1 n=a4 v=0
531138 Par ch=1 c=64 v=127
531156 On ch=1 n=e5 v=62
531168 On ch=1 n=d4 v=61
531174 On ch=1 n=d3 v=61
531200 On ch=1 n=b3 v=0
531206 On ch=1 n=g#4 v=0
531244 On ch=1 n=b4 v=52
531336 On ch=1 n=a4 v=53
531360 On ch=1 n=b4 v=0
531456 On ch=1 n=a4 v=0
531460 On ch=1 n=b4 v=56
531494 On ch=1 n=d3 v=0
531544 On ch=1 n=a4 v=33
531556 On ch=1 n=d4 v=0
531576 On ch=1 n=b4 v=0
531576 Par ch=1 c=64 v=0
531606 On ch=1 n=e5 v=0
531608 On ch=1 n=b3 v=57
531648 On ch=1 n=g#4 v=36
531656 On ch=1 n=d3 v=63
531670 On ch=1 n=e5 v=60
531670 On ch=1 n=d4 v=64
531678 On ch=1 n=a4 v=0
531690 Par ch=1 c=64 v=127
531752 On ch=1 n=b4 v=61
531758 On ch=1 n=g#4 v=0
531810 On ch=1 n=b3 v=0
531828 On ch=1 n=a4 v=60
531850 On ch=1 n=d3 v=0
531854 On ch=1 n=b4 v=0
531896 On ch=1 n=d4 v=0
531896 On ch=1 n=g#4 v=64
531944 On ch=1 n=a4 v=0
532002 On ch=1 n=e5 v=0
532048 On ch=1 n=b4 v=62
532060 On ch=1 n=g#4 v=0
532154 On ch=1 n=e5 v=44
532220 On ch=1 n=b4 v=0
532264 On ch=1 n=b4 v=76
532272 On ch=1 n=g#5 v=49
532318 On ch=1 n=e5 v=0
532338 On ch=1 n=b4 v=0
532360 On ch=1 n=b5 v=71
532360 On ch=1 n=b4 v=76
532434 On ch=1 n=b4 v=0
532436 On ch=1 n=g#5 v=0
532476 On ch=1 n=b5 v=0
532488 On ch=1 n=b4 v=76
532496 On ch=1 n=b5 v=76
532498 On ch=1 n=e6 v=59
532608 On ch=1 n=g#6 v=62
532638 On ch=1 n=b4 v=0
532646 On ch=1 n=b5 v=0
532662 On ch=1 n=e6 v=0
532680 On ch=1 n=b5 v=71
532686 On ch=1 n=b6 v=63
532688 On ch=1 n=b4 v=76
532772 On ch=1 n=g#6 v=0
532794 On ch=1 n=b7 v=76
532830 On ch=1 n=b5 v=0
532838 On ch=1 n=b4 v=0
532854 On ch=1 n=g#7 v=57
532864 On ch=1 n=b5 v=59
532864 On ch=1 n=b4 v=15
532872 On ch=1 n=b6 v=0
532940 On ch=1 n=f#7 v=40
532958 On ch=1 n=b7 v=0
533018 On ch=1 n=g#7 v=0
533020 On ch=1 n=e7 v=30
533104 On ch=1 n=f#7 v=0
533122 On ch=1 n=b6 v=48
533174 On ch=1 n=b4 v=0
533174 On ch=1 n=b5 v=0
533184 On ch=1 n=e7 v=0
533210 On ch=1 n=g#6 v=52
533286 On ch=1 n=b6 v=0
533288 On ch=1 n=f#6 v=23
533320 On ch=1 n=e6 v=48
533374 On ch=1 n=g#6 v=0
533376 On ch=1 n=b5 v=56
533452 On ch=1 n=f#6 v=0
533484 On ch=1 n=e6 v=0
533496 On ch=1 n=d4 v=28
533504 On ch=1 n=d3 v=66
533504 On ch=1 n=g#5 v=49
533540 On ch=1 n=b5 v=0
533608 On ch=1 n=e5 v=48
533668 On ch=1 n=g#5 v=0
533720 On ch=1 n=b4 v=47
533772 On ch=1 n=e5 v=0
533864 On ch=1 n=c5 v=52
533872 On ch=1 n=e4 v=45
533880 On ch=1 n=e3 v=62
533884 On ch=1 n=b4 v=0
533946 On ch=1 n=d4 v=0
533954 On ch=1 n=d3 v=0
534024 On ch=1 n=e3 v=0
534024 On ch=1 n=e4 v=0
534024 On ch=1 n=c5 v=0
534024 On ch=1 n=g#5 v=56
534024 On ch=1 n=f3 v=29
534032 On ch=1 n=f4 v=43
534046 Par ch=1 c=64 v=0
534150 On ch=1 n=d5 v=43
534168 Par ch=1 c=64 v=127
534238 On ch=1 n=c5 v=43
534264 On ch=1 n=d5 v=0
534326 On ch=1 n=d5 v=43
534338 On ch=1 n=c5 v=0
534392 On ch=1 n=c5 v=44
534430 On ch=1 n=d5 v=0
534440 On ch=1 n=g3 v=39
534474 On ch=1 n=f3 v=0
534474 On ch=1 n=g#5 v=0
534482 On ch=1 n=f4 v=0
534486 On ch=1 n=b4 v=44
534494 On ch=1 n=c5 v=0
534512 Par ch=1 c=64 v=0
534592 On ch=1 n=e4 v=47
534596 On ch=1 n=g5 v=42
534600 On ch=1 n=e3 v=47
534602 On ch=1 n=b4 v=0
534612 Par ch=1 c=64 v=127
534672 On ch=1 n=g3 v=0
534672 On ch=1 n=e5 v=39
534772 On ch=1 n=d5 v=39
534788 On ch=1 n=e5 v=0
534854 On ch=1 n=e5 v=39
534878 On ch=1 n=d5 v=0
534930 On ch=1 n=d5 v=39
534968 On ch=1 n=g3 v=43
534970 On ch=1 n=e5 v=0
535024 On ch=1 n=c5 v=39
535024 Par ch=1 c=64 v=0
535042 On ch=1 n=e4 v=0
535046 On ch=1 n=d5 v=0
535046 On ch=1 n=g5 v=0
535050 On ch=1 n=e3 v=0
535084 On ch=1 n=g3 v=0
535084 On ch=1 n=g4 v=43
535092 On ch=1 n=a#5 v=52
535092 On ch=1 n=g3 v=46
535140 On ch=1 n=c5 v=0
535142 Par ch=1 c=64 v=127
535168 On ch=1 n=e5 v=40
535248 On ch=1 n=d5 v=40
535272 On ch=1 n=e5 v=0
535328 On ch=1 n=e5 v=41
535342 On ch=1 n=d5 v=0
535408 On ch=1 n=d5 v=41
535434 On ch=1 n=e5 v=0
535456 On ch=1 n=a3 v=42
535504 On ch=1 n=c#5 v=42
535524 On ch=1 n=d5 v=0
535534 On ch=1 n=g4 v=0
535540 Par ch=1 c=64 v=0
535542 On ch=1 n=g3 v=0
535542 On ch=1 n=a#5 v=0
535568 On ch=1 n=a5 v=52
535568 On ch=1 n=f#4 v=55
535568 On ch=1 n=f#3 v=51
535588 On ch=1 n=a3 v=0
535620 On ch=1 n=c#5 v=0
535644 Par ch=1 c=64 v=127
535674 On ch=1 n=f#5 v=43
535756 On ch=1 n=e5 v=43
535784 On ch=1 n=f#5 v=0
535852 On ch=1 n=f#5 v=43
535868 On ch=1 n=e5 v=0
535914 On ch=1 n=e5 v=44
535944 On ch=1 n=a3 v=30
535946 On ch=1 n=f#5 v=0
536004 On ch=1 n=e5 v=0
536008 On ch=1 n=d5 v=44
536018 On ch=1 n=f#3 v=0
536018 On ch=1 n=f#4 v=0
536018 On ch=1 n=a5 v=0
536090 Par ch=1 c=64 v=0
536108 On ch=1 n=a3 v=0
536126 On ch=1 n=c6 v=56
536128 On ch=1 n=a4 v=37
536132 On ch=1 n=d5 v=0
536140 On ch=1 n=a3 v=51
536180 Par ch=1 c=64 v=127
536202 On ch=1 n=f#5 v=44
536264 On ch=1 n=e5 v=44
536296 On ch=1 n=f#5 v=0
536354 On ch=1 n=f#5 v=45
536368 On ch=1 n=e5 v=0
536422 On ch=1 n=e5 v=45
536436 On ch=1 n=f#5 v=0
536472 On ch=1 n=b3 v=46
536512 On ch=1 n=d#5 v=45
536532 On ch=1 n=e5 v=0
536552 Par ch=1 c=64 v=0
536576 On ch=1 n=c6 v=0
536578 On ch=1 n=a4 v=0
536590 On ch=1 n=a3 v=0
536604 On ch=1 n=b3 v=0
536608 On ch=1 n=g#4 v=38
536610 On ch=1 n=g#3 v=49
536616 On ch=1 n=b5 v=53
536628 On ch=1 n=d#5 v=0
536658 Par ch=1 c=64 v=127
536688 On ch=1 n=g#5 v=46
536778 On ch=1 n=f#5 v=47
536806 On ch=1 n=g#5 v=0
536866 On ch=1 n=g#5 v=47
536872 On ch=1 n=f#5 v=0
536936 On ch=1 n=f#5 v=47
536974 On ch=1 n=g#5 v=0
536976 On ch=1 n=e4 v=33
537004 On ch=1 n=e5 v=47
537026 On ch=1 n=f#5 v=0
537058 On ch=1 n=g#4 v=0
537060 On ch=1 n=g#3 v=0
537066 On ch=1 n=b5 v=0
537096 On ch=1 n=d5 v=39
537096 On ch=1 n=d4 v=36
537104 On ch=1 n=b5 v=47
537106 Par ch=1 c=64 v=0
537108 On ch=1 n=e4 v=0
537116 On ch=1 n=e5 v=0
537190 Par ch=1 c=64 v=127
537200 On ch=1 n=g#5 v=48
537280 On ch=1 n=f#5 v=48
537290 On ch=1 n=g#5 v=0
537352 On ch=1 n=g#5 v=48
537386 On ch=1 n=f#5 v=0
537432 On ch=1 n=f#5 v=48
537444 On ch=1 n=g#5 v=0
537472 On ch=1 n=g#4 v=43
537472 On ch=1 n=f4 v=36
537512 On ch=1 n=f5 v=48
537524 On ch=1 n=f#5 v=0
537546 On ch=1 n=d4 v=0
537546 On ch=1 n=d5 v=0
537554 On ch=1 n=b5 v=0
537562 Par ch=1 c=64 v=0
537628 On ch=1 n=f5 v=0
537632 On ch=1 n=c#6 v=66
537644 On ch=1 n=c#4 v=39
537654 On ch=1 n=f4 v=0
537654 On ch=1 n=g#4 v=0
537656 On ch=1 n=c#5 v=43
537660 Par ch=1 c=64 v=127
537714 On ch=1 n=g#5 v=50
537798 On ch=1 n=f#5 v=50
537822 On ch=1 n=g#5 v=0
537866 On ch=1 n=g#5 v=51
537888 On ch=1 n=f#5 v=0
537942 On ch=1 n=f#5 v=51
537976 On ch=1 n=g#5 v=0
537984 On ch=1 n=g#4 v=56
537984 On ch=1 n=f4 v=52
537994 On ch=1 n=c#4 v=0
538006 On ch=1 n=c#5 v=0
538034 On ch=1 n=f5 v=51
538040 On ch=1 n=f#5 v=0
538082 On ch=1 n=c#6 v=0
538094 Par ch=1 c=64 v=0
538138 On ch=1 n=d6 v=64
538150 On ch=1 n=f5 v=0
538156 On ch=1 n=b3 v=39
538170 On ch=1 n=b4 v=46
538172 On ch=1 n=f4 v=0
538172 On ch=1 n=g#4 v=0
538204 Par ch=1 c=64 v=127
538216 On ch=1 n=g#5 v=51
538298 On ch=1 n=f#5 v=52
538322 On ch=1 n=g#5 v=0
538378 On ch=1 n=g#5 v=52
538408 On ch=1 n=f#5 v=0
538458 On ch=1 n=f#5 v=52
538490 On ch=1 n=g#5 v=0
538504 On ch=1 n=g#4 v=59
538504 On ch=1 n=f4 v=52
538552 On ch=1 n=f5 v=52
538564 On ch=1 n=f#5 v=0
538588 On ch=1 n=d6 v=0
538606 On ch=1 n=b3 v=0
538620 On ch=1 n=b4 v=0
538644 Par ch=1 c=64 v=0
538658 On ch=1 n=f5 v=0
538668 On ch=1 n=d6 v=64
538672 On ch=1 n=f5 v=70
538674 On ch=1 n=f4 v=0
538680 On ch=1 n=f4 v=47
538682 On ch=1 n=g#4 v=0
538742 Par ch=1 c=64 v=127
538752 On ch=1 n=b5 v=52
538840 On ch=1 n=a#5 v=53
538876 On ch=1 n=b5 v=0
538926 On ch=1 n=b5 v=53
538960 On ch=1 n=a#5 v=0
539016 On ch=1 n=a#5 v=54
539028 On ch=1 n=b5 v=0
539064 On ch=1 n=b4 v=51
539064 On ch=1 n=g#4 v=46
539072 On ch=1 n=g#5 v=55
539096 Par ch=1 c=64 v=0
539118 On ch=1 n=d6 v=0
539120 On ch=1 n=a#5 v=0
539122 On ch=1 n=f5 v=0
539130 On ch=1 n=f4 v=0
539174 On ch=1 n=d#6 v=73
539184 On ch=1 n=d#4 v=63
539198 On ch=1 n=d#5 v=64
539198 Par ch=1 c=64 v=127
539204 On ch=1 n=g#4 v=0
539204 On ch=1 n=b4 v=0
539236 On ch=1 n=g#5 v=0
539236 On ch=1 n=b5 v=56
539318 On ch=1 n=a#5 v=56
539348 On ch=1 n=b5 v=0
539410 On ch=1 n=b5 v=56
539426 On ch=1 n=a#5 v=0
539492 On ch=1 n=a#5 v=56
539534 On ch=1 n=b5 v=0
539544 On ch=1 n=b4 v=51
539544 On ch=1 n=g#4 v=51
539560 On ch=1 n=d#4 v=0
539562 On ch=1 n=g#5 v=56
539574 On ch=1 n=d#5 v=0
539590 On ch=1 n=a#5 v=0
539614 Par ch=1 c=64 v=0
539624 On ch=1 n=d#6 v=0
539652 On ch=1 n=g#5 v=0
539656 On ch=1 n=f6 v=72
539670 On ch=1 n=d5 v=62
539674 On ch=1 n=d4 v=56
539676 On ch=1 n=g#4 v=0
539676 On ch=1 n=b4 v=0
539720 Par ch=1 c=64 v=127
539734 On ch=1 n=b5 v=56
539822 On ch=1 n=a#5 v=57
539838 On ch=1 n=b5 v=0
539924 On ch=1 n=b5 v=57
539938 On ch=1 n=a#5 v=0
540000 On ch=1 n=b5 v=0
540000 On ch=1 n=a#5 v=57
540040 On ch=1 n=b4 v=56
540040 On ch=1 n=g#4 v=48
540046 On ch=1 n=d5 v=0
540050 On ch=1 n=d4 v=0
540064 On ch=1 n=g#5 v=57
540088 On ch=1 n=a#5 v=0
540106 On ch=1 n=f6 v=0
540128 On ch=1 n=g#4 v=0
540128 On ch=1 n=b4 v=0
540152 On ch=1 n=g#5 v=0
540288 On ch=1 n=d3 v=56
540292 On ch=1 n=d4 v=56
540362 Par ch=1 c=64 v=127
540404 On ch=1 n=d#3 v=56
540406 On ch=1 n=d#4 v=56
540436 On ch=1 n=d3 v=0
540440 On ch=1 n=d4 v=0
540512 On ch=1 n=f#4 v=56
540512 On ch=1 n=f#3 v=56
540580 On ch=1 n=d#3 v=0
540592 On ch=1 n=d#4 v=0
540612 On ch=1 n=g3 v=56
540616 On ch=1 n=g4 v=56
540662 On ch=1 n=f#3 v=0
540662 On ch=1 n=f#4 v=0
540694 Par ch=1 c=64 v=0
540748 On ch=1 n=f#3 v=57
540752 On ch=1 n=f#4 v=57
540760 On ch=1 n=g3 v=0
540764 On ch=1 n=g4 v=0
540812 Par ch=1 c=64 v=127
540866 On ch=1 n=g4 v=57
540868 On ch=1 n=g3 v=57
540908 On ch=1 n=f#3 v=0
540926 On ch=1 n=f#4 v=0
540980 On ch=1 n=a3 v=58
540984 On ch=1 n=a4 v=58
541040 On ch=1 n=g4 v=0
541042 On ch=1 n=g3 v=0
541088 On ch=1 n=a#4 v=59
541088 On ch=1 n=a#3 v=59
541118 Par ch=1 c=64 v=0
541146 On ch=1 n=a3 v=0
541150 On ch=1 n=a4 v=0
541200 On ch=1 n=a3 v=60
541204 On ch=1 n=a4 v=60
541220 On ch=1 n=a#3 v=0
541220 On ch=1 n=a#4 v=0
541224 Par ch=1 c=64 v=127
541292 On ch=1 n=a#3 v=60
541296 On ch=1 n=a#4 v=60
541322 On ch=1 n=a3 v=0
541326 On ch=1 n=a4 v=0
541404 On ch=1 n=c5 v=60
541408 On ch=1 n=c4 v=60
541450 On ch=1 n=a#3 v=0
541456 On ch=1 n=a#4 v=0
541466 Par ch=1 c=64 v=0
541504 On ch=1 n=c#4 v=61
541508 On ch=1 n=c#5 v=61
541574 On ch=1 n=c4 v=0
541582 Par ch=1 c=64 v=127
541592 On ch=1 n=c5 v=0
541644 On ch=1 n=a4 v=61
541644 On ch=1 n=a3 v=61
541668 On ch=1 n=c#4 v=0
541672 On ch=1 n=c#5 v=0
541728 On ch=1 n=a#3 v=61
541734 On ch=1 n=a#4 v=61
541818 On ch=1 n=a3 v=0
541818 On ch=1 n=a4 v=0
541836 On ch=1 n=c4 v=61
541838 On ch=1 n=c5 v=61
541866 On ch=1 n=a#3 v=0
541872 On ch=1 n=a#4 v=0
541940 On ch=1 n=c#5 v=62
541940 On ch=1 n=c#4 v=62
541962 Par ch=1 c=64 v=0
541994 On ch=1 n=c4 v=0
541996 On ch=1 n=c5 v=0
542052 On ch=1 n=c5 v=62
542056 On ch=1 n=c4 v=62
542072 On ch=1 n=c#4 v=0
542072 On ch=1 n=c#5 v=0
542100 Par ch=1 c=64 v=127
542156 On ch=1 n=c#4 v=63
542158 On ch=1 n=c#5 v=63
542200 On ch=1 n=c4 v=0
542212 On ch=1 n=c5 v=0
542252 On ch=1 n=d#5 v=63
542252 On ch=1 n=d#4 v=63
542288 On ch=1 n=c#4 v=0
542290 On ch=1 n=c#5 v=0
542346 Par ch=1 c=64 v=0
542360 On ch=1 n=e5 v=64
542360 On ch=1 n=e4 v=64
542400 On ch=1 n=d#4 v=0
542400 On ch=1 n=d#5 v=0
542466 Par ch=1 c=64 v=127
542480 On ch=1 n=d#5 v=64
542480 On ch=1 n=d#4 v=64
542492 On ch=1 n=e4 v=0
542492 On ch=1 n=e5 v=0
542590 On ch=1 n=e5 v=65
542592 On ch=1 n=e4 v=65
542626 On ch=1 n=d#4 v=0
542626 On ch=1 n=d#5 v=0
542704 On ch=1 n=f#5 v=65
542704 On ch=1 n=f#4 v=65
542744 On ch=1 n=e5 v=0
542746 On ch=1 n=e4 v=0
542824 On ch=1 n=g5 v=67
542824 On ch=1 n=g4 v=67
542832 Par ch=1 c=64 v=0
542846 On ch=1 n=f#4 v=0
542846 On ch=1 n=f#5 v=0
542944 On ch=1 n=c4 v=67
542946 On ch=1 n=c5 v=67
542954 Par ch=1 c=64 v=127
542968 On ch=1 n=g4 v=0
542968 On ch=1 n=g5 v=0
543040 On ch=1 n=c#5 v=68
543048 On ch=1 n=c#4 v=68
543106 On ch=1 n=c4 v=0
543108 On ch=1 n=c5 v=0
543144 On ch=1 n=d#4 v=68
543146 On ch=1 n=d#5 v=68
543180 On ch=1 n=c#5 v=0
543188 On ch=1 n=c#4 v=0
543218 Par ch=1 c=64 v=0
543252 On ch=1 n=e5 v=68
543252 On ch=1 n=e4 v=68
543292 On ch=1 n=d#4 v=0
543294 On ch=1 n=d#5 v=0
543338 Par ch=1 c=64 v=127
543370 On ch=1 n=d#5 v=68
543370 On ch=1 n=d#4 v=68
543390 On ch=1 n=e4 v=0
543390 On ch=1 n=e5 v=0
543488 On ch=1 n=e5 v=68
543488 On ch=1 n=e4 v=68
543520 On ch=1 n=d#4 v=0
543520 On ch=1 n=d#5 v=0
543580 On ch=1 n=f#4 v=68
543586 On ch=1 n=f#5 v=68
543656 On ch=1 n=e4 v=0
543660 On ch=1 n=e5 v=0
543688 On ch=1 n=g5 v=69
543688 On ch=1 n=g4 v=69
543702 Par ch=1 c=64 v=0
543734 On ch=1 n=f#4 v=0
543740 On ch=1 n=f#5 v=0
543808 On ch=1 n=f#4 v=69
543810 On ch=1 n=f#5 v=69
543830 On ch=1 n=g4 v=0
543830 On ch=1 n=g5 v=0
543830 Par ch=1 c=64 v=127
543928 On ch=1 n=g5 v=70
543928 On ch=1 n=g4 v=70
543972 On ch=1 n=f#5 v=0
543972 On ch=1 n=f#4 v=0
544036 On ch=1 n=a4 v=70
544040 On ch=1 n=a5 v=70
544072 On ch=1 n=g4 v=0
544072 On ch=1 n=g5 v=0
544136 On ch=1 n=a#5 v=70
544144 On ch=1 n=a#4 v=70
544178 On ch=1 n=a4 v=0
544182 On ch=1 n=a5 v=0
544200 Par ch=1 c=64 v=0
544232 On ch=1 n=a4 v=71
544238 On ch=1 n=a5 v=71
544268 On ch=1 n=a#5 v=0
544276 On ch=1 n=a#4 v=0
544298 Par ch=1 c=64 v=127
544352 On ch=1 n=a#4 v=72
544354 On ch=1 n=a#5 v=72
544374 On ch=1 n=a4 v=0
544380 On ch=1 n=a5 v=0
544464 On ch=1 n=c5 v=73
544470 On ch=1 n=c6 v=73
544510 On ch=1 n=a#5 v=0
544512 On ch=1 n=a#4 v=0
544564 On ch=1 n=c#6 v=73
544568 On ch=1 n=c#5 v=73
544620 On ch=1 n=c6 v=0
544626 On ch=1 n=c5 v=0
544680 On ch=1 n=c5 v=73
544686 On ch=1 n=c6 v=73
544706 On ch=1 n=c#6 v=0
544710 On ch=1 n=c#5 v=0
544804 On ch=1 n=c#6 v=74
544808 On ch=1 n=c#5 v=74
544838 On ch=1 n=c5 v=0
544844 On ch=1 n=c6 v=0
544916 On ch=1 n=d#6 v=74
544916 On ch=1 n=d#5 v=74
544972 On ch=1 n=c#6 v=0
544976 On ch=1 n=c#5 v=0
545024 On ch=1 n=e6 v=74
545032 On ch=1 n=e5 v=74
545078 On ch=1 n=d#5 v=0
545078 On ch=1 n=d#6 v=0
545156 On ch=1 n=d#5 v=75
545158 On ch=1 n=d#6 v=75
545188 On ch=1 n=e6 v=0
545196 On ch=1 n=e5 v=0
545288 On ch=1 n=e5 v=76
545294 On ch=1 n=e6 v=76
545324 On ch=1 n=d#5 v=0
545326 On ch=1 n=d#6 v=0
545408 On ch=1 n=f#6 v=77
545408 On ch=1 n=f#5 v=77
545468 On ch=1 n=e5 v=0
545474 On ch=1 n=e6 v=0
545520 On ch=1 n=g6 v=78
545528 On ch=1 n=g5 v=78
545544 On ch=1 n=f#5 v=0
545544 On ch=1 n=f#6 v=0
545660 On ch=1 n=g6 v=0
545668 On ch=1 n=g5 v=0
545678 Par ch=1 c=64 v=127
545688 On ch=1 n=a#6 v=82
545696 On ch=1 n=a#5 v=75
545696 On ch=1 n=d#3 v=93
545698 On ch=1 n=d#4 v=93
545894 On ch=1 n=d#3 v=0
545896 On ch=1 n=d#4 v=0
545964 On ch=1 n=f4 v=68
545972 On ch=1 n=d#6 v=68
545972 On ch=1 n=c#6 v=68
545980 On ch=1 n=f5 v=62
546074 On ch=1 n=c#6 v=0
546074 On ch=1 n=d#6 v=0
546154 On ch=1 n=d#4 v=73
546158 On ch=1 n=c#6 v=78
546162 On ch=1 n=f4 v=0
546164 On ch=1 n=d#6 v=79
546164 On ch=1 n=d#5 v=64
546178 On ch=1 n=f5 v=0
546260 On ch=1 n=c#6 v=0
546266 On ch=1 n=d#6 v=0
546344 On ch=1 n=c#6 v=76
546348 On ch=1 n=f3 v=65
546352 On ch=1 n=d#4 v=0
546352 On ch=1 n=f4 v=50
546354 On ch=1 n=d#6 v=74
546362 On ch=1 n=d#5 v=0
546446 On ch=1 n=c#6 v=0
546448 Par ch=1 c=64 v=0
546456 On ch=1 n=d#6 v=0
546512 Par ch=1 c=64 v=127
546518 On ch=1 n=g4 v=79
546524 On ch=1 n=c#6 v=70
546526 On ch=1 n=d#6 v=67
546526 On ch=1 n=g3 v=69
546546 On ch=1 n=f3 v=0
546550 On ch=1 n=f4 v=0
546626 On ch=1 n=c#6 v=0
546628 On ch=1 n=d#6 v=0
546648 On ch=1 n=a#5 v=0
546686 On ch=1 n=d#4 v=52
546694 On ch=1 n=d#3 v=79
546696 On ch=1 n=d#6 v=70
546696 On ch=1 n=c#6 v=68
546716 On ch=1 n=g4 v=0
546720 On ch=1 n=a#6 v=0
546724 On ch=1 n=g3 v=0
546798 On ch=1 n=c#6 v=0
546798 On ch=1 n=d#6 v=0
546854 Par ch=1 c=64 v=0
546878 On ch=1 n=g#4 v=70
546880 On ch=1 n=g#6 v=70
546880 On ch=1 n=d#6 v=78
546884 On ch=1 n=d#4 v=0
546888 On ch=1 n=c7 v=79
546888 On ch=1 n=g#3 v=83
546892 On ch=1 n=d#3 v=0
546892 On ch=1 n=c6 v=75
546938 Par ch=1 c=64 v=127
546982 On ch=1 n=d#6 v=0
546982 On ch=1 n=g#6 v=0
546994 On ch=1 n=c6 v=0
547064 On ch=1 n=c3 v=69
547064 On ch=1 n=c6 v=75
547072 On ch=1 n=c4 v=66
547072 On ch=1 n=g#6 v=70
547072 On ch=1 n=d#6 v=78
547076 On ch=1 n=g#4 v=0
547086 On ch=1 n=g#3 v=0
547166 On ch=1 n=c6 v=0
547174 On ch=1 n=d#6 v=0
547174 On ch=1 n=g#6 v=0
547226 On ch=1 n=d#6 v=83
547226 On ch=1 n=c6 v=75
547234 On ch=1 n=g#6 v=79
547234 On ch=1 n=c#4 v=76
547240 On ch=1 n=c#3 v=73
547252 On ch=1 n=c7 v=0
547262 On ch=1 n=c3 v=0
547270 On ch=1 n=c4 v=0
547328 On ch=1 n=c6 v=0
547328 On ch=1 n=d#6 v=0
547336 On ch=1 n=g#6 v=0
547380 Par ch=1 c=64 v=0
547396 On ch=1 n=a#6 v=79
547396 On ch=1 n=d#4 v=67
547402 On ch=1 n=g#6 v=81
547402 On ch=1 n=a#5 v=85
547402 On ch=1 n=d#3 v=75
547410 On ch=1 n=d#6 v=68
547432 On ch=1 n=c#4 v=0
547438 On ch=1 n=c#3 v=0
547462 Par ch=1 c=64 v=127
547504 On ch=1 n=a#5 v=0
547504 On ch=1 n=g#6 v=0
547512 On ch=1 n=d#6 v=0
547568 On ch=1 n=a#5 v=85
547578 On ch=1 n=g#6 v=79
547578 On ch=1 n=d#6 v=79
547578 On ch=1 n=d3 v=70
547586 On ch=1 n=d4 v=70
547594 On ch=1 n=d#4 v=0
547600 On ch=1 n=d#3 v=0
547670 On ch=1 n=a#5 v=0
547680 On ch=1 n=d#6 v=0
547680 On ch=1 n=g#6 v=0
547728 On ch=1 n=g#6 v=68
547728 On ch=1 n=a#5 v=62
547734 On ch=1 n=d#6 v=67
547740 On ch=1 n=d#4 v=85
547740 On ch=1 n=d#3 v=75
547776 On ch=1 n=d3 v=0
547784 On ch=1 n=d4 v=0
547830 On ch=1 n=a#5 v=0
547830 On ch=1 n=g#6 v=0
547836 On ch=1 n=d#6 v=0
547876 Par ch=1 c=64 v=0
547894 On ch=1 n=a#5 v=79
547900 On ch=1 n=g6 v=75
547900 On ch=1 n=c#6 v=75
547910 On ch=1 n=e3 v=67
547912 On ch=1 n=e4 v=79
547938 On ch=1 n=d#3 v=0
547938 On ch=1 n=d#4 v=0
547940 Par ch=1 c=64 v=127
547996 On ch=1 n=a#5 v=0
548002 On ch=1 n=c#6 v=0
548002 On ch=1 n=g6 v=0
548040 On ch=1 n=g6 v=75
548040 On ch=1 n=c#6 v=68
548052 On ch=1 n=a#5 v=79
548062 On ch=1 n=d#4 v=74
548070 On ch=1 n=d#3 v=70
548086 On ch=1 n=a#6 v=0
548108 On ch=1 n=e3 v=0
548110 On ch=1 n=e4 v=0
548142 On ch=1 n=c#6 v=0
548142 On ch=1 n=g6 v=0
548154 On ch=1 n=a#5 v=0
548218 On ch=1 n=g6 v=66
548228 On ch=1 n=c7 v=75
548228 On ch=1 n=c6 v=79
548232 On ch=1 n=e3 v=73
548234 On ch=1 n=e4 v=75
548260 On ch=1 n=d#4 v=0
548268 On ch=1 n=d#3 v=0
548320 On ch=1 n=g6 v=0
548330 On ch=1 n=c6 v=0
548360 Par ch=1 c=64 v=0
548384 On ch=1 n=c6 v=78
548386 On ch=1 n=f6 v=78
548388 On ch=1 n=g#6 v=73
548396 On ch=1 n=f4 v=64
548396 On ch=1 n=f3 v=73
548430 On ch=1 n=e3 v=0
548432 On ch=1 n=e4 v=0
548432 Par ch=1 c=64 v=127
548458 On ch=1 n=c7 v=0
548470 On ch=1 n=c6 v=0
548488 On ch=1 n=f6 v=0
548558 On ch=1 n=c6 v=73
548562 On ch=1 n=f6 v=78
548566 On ch=1 n=d#4 v=79
548572 On ch=1 n=d#3 v=79
548594 On ch=1 n=f3 v=0
548594 On ch=1 n=f4 v=0
548660 On ch=1 n=c6 v=0
548664 On ch=1 n=f6 v=0
548738 On ch=1 n=g#6 v=0
548744 On ch=1 n=g#6 v=85
548752 On ch=1 n=f7 v=85
548752 On ch=1 n=f6 v=75
548758 On ch=1 n=d4 v=78
548758 On ch=1 n=d3 v=73
548764 On ch=1 n=d#4 v=0
548770 On ch=1 n=d#3 v=0
548846 On ch=1 n=g#6 v=0
548854 On ch=1 n=f6 v=0
548912 Par ch=1 c=64 v=0
548968 On ch=1 n=g#6 v=79
548968 On ch=1 n=f6 v=79
548970 On ch=1 n=a#6 v=85
548970 On ch=1 n=a#5 v=85
548980 On ch=1 n=c#4 v=96
548980 On ch=1 n=c#3 v=90
548988 On ch=1 n=d3 v=0
548988 On ch=1 n=d4 v=0
549002 On ch=1 n=f7 v=0
549004 Par ch=1 c=64 v=127
549070 On ch=1 n=f6 v=0
549070 On ch=1 n=g#6 v=0
549072 On ch=1 n=a#5 v=0
549168 On ch=1 n=d#4 v=65
549172 On ch=1 n=c#5 v=45
549176 On ch=1 n=g#6 v=79
549176 On ch=1 n=f6 v=73
549178 On ch=1 n=c#3 v=0
549178 On ch=1 n=c#4 v=0
549180 On ch=1 n=a#5 v=89
549240 On ch=1 n=a#6 v=0
549278 On ch=1 n=f6 v=0
549278 On ch=1 n=g#6 v=0
549282 On ch=1 n=a#5 v=0
549342 On ch=1 n=c7 v=76
549350 On ch=1 n=g#6 v=79
549354 On ch=1 n=f6 v=79
549354 On ch=1 n=c5 v=64
549354 On ch=1 n=c4 v=73
549366 On ch=1 n=d#4 v=0
549370 On ch=1 n=c#5 v=0
549452 On ch=1 n=g#6 v=0
549456 On ch=1 n=f6 v=0
549520 On ch=1 n=a#4 v=43
549520 On ch=1 n=a#3 v=46
549526 On ch=1 n=d#7 v=75
549536 On ch=1 n=f6 v=73
549542 On ch=1 n=c7 v=0
549542 On ch=1 n=g#6 v=68
549552 On ch=1 n=c4 v=0
549552 On ch=1 n=c5 v=0
549638 On ch=1 n=f6 v=0
549644 On ch=1 n=g#6 v=0
549706 On ch=1 n=d#7 v=0
549712 On ch=1 n=c#7 v=85
549718 On ch=1 n=a#3 v=0
549718 On ch=1 n=a#4 v=0
549720 On ch=1 n=f6 v=76
549724 On ch=1 n=g#6 v=79
549728 On ch=1 n=c#6 v=79
549736 On ch=1 n=a#3 v=96
549736 On ch=1 n=a#2 v=90
549822 On ch=1 n=f6 v=0
549826 On ch=1 n=g#6 v=0
549830 On ch=1 n=c#6 v=0
549892 On ch=1 n=c#7 v=0
549896 On ch=1 n=c7 v=83
549896 On ch=1 n=c3 v=73
549902 On ch=1 n=g#6 v=62
549906 On ch=1 n=d#6 v=68
549912 On ch=1 n=c4 v=62
549934 On ch=1 n=a#2 v=0
549934 On ch=1 n=a#3 v=0
550004 On ch=1 n=g#6 v=0
550008 On ch=1 n=d#6 v=0
550074 Par ch=1 c=64 v=0
550076 On ch=1 n=c7 v=0
550092 On ch=1 n=a#6 v=79
550094 On ch=1 n=c3 v=0
550098 On ch=1 n=c#3 v=81
550102 On ch=1 n=c#4 v=82
550104 On ch=1 n=f6 v=68
550108 On ch=1 n=g#6 v=78
550110 On ch=1 n=c4 v=0
550112 On ch=1 n=a#5 v=86
550134 Par ch=1 c=64 v=127
550206 On ch=1 n=f6 v=0
550210 On ch=1 n=g#6 v=0
550214 On ch=1 n=a#5 v=0
550296 On ch=1 n=c#3 v=0
550300 On ch=1 n=c#4 v=0
550302 On ch=1 n=g#6 v=76
550302 On ch=1 n=a#5 v=90
550302 On ch=1 n=f4 v=83
550304 On ch=1 n=c#6 v=68
550316 On ch=1 n=f3 v=78
550404 On ch=1 n=a#5 v=0
550404 On ch=1 n=g#6 v=0
550406 On ch=1 n=c#6 v=0
550500 On ch=1 n=f4 v=0
550502 Par ch=1 c=64 v=0
550514 On ch=1 n=f3 v=0
550522 On ch=1 n=a#6 v=0
550540 On ch=1 n=c7 v=85
550544 On ch=1 n=c#6 v=80
550548 On ch=1 n=g6 v=79
550548 On ch=1 n=d#3 v=85
550552 On ch=1 n=d#4 v=96
550564 Par ch=1 c=64 v=127
550646 On ch=1 n=c#6 v=0
550650 On ch=1 n=g6 v=0
550746 On ch=1 n=d#3 v=0
550750 On ch=1 n=d#4 v=0
550750 Par ch=1 c=64 v=0
550770 On ch=1 n=c7 v=0
550778 On ch=1 n=g#2 v=78
550784 On ch=1 n=g#6 v=79
550784 On ch=1 n=c6 v=90
550784 On ch=1 n=g#5 v=87
550784 On ch=1 n=g#3 v=87
550814 Par ch=1 c=64 v=127
550886 On ch=1 n=g#5 v=0
550886 On ch=1 n=c6 v=0
550886 On ch=1 n=g#6 v=0
550974 Par ch=1 c=64 v=0
550994 On ch=1 n=d#6 v=85
550994 On ch=1 n=f#5 v=85
550994 On ch=1 n=a2 v=75
551002 On ch=1 n=c6 v=79
551002 On ch=1 n=a3 v=85
551008 On ch=1 n=g#2 v=0
551014 On ch=1 n=g#3 v=0
551016 Par ch=1 c=64 v=127
551096 On ch=1 n=f#5 v=0
551100 On ch=1 n=d#6 v=0
551104 On ch=1 n=c6 v=0
551166 On ch=1 n=a#2 v=73
551170 On ch=1 n=d6 v=79
551176 On ch=1 n=f5 v=73
551176 On ch=1 n=a#3 v=90
551192 On ch=1 n=a2 v=0
551200 On ch=1 n=a3 v=0
551272 On ch=1 n=d6 v=0
551278 On ch=1 n=f5 v=0
551298 Par ch=1 c=64 v=0
551328 On ch=1 n=f6 v=79
551334 On ch=1 n=d6 v=78
551338 On ch=1 n=g#5 v=85
551338 On ch=1 n=b3 v=83
551344 On ch=1 n=b2 v=68
551362 Par ch=1 c=64 v=127
551364 On ch=1 n=a#2 v=0
551374 On ch=1 n=a#3 v=0
551436 On ch=1 n=d6 v=0
551440 On ch=1 n=g#5 v=0
551468 On ch=1 n=f6 v=0
551504 On ch=1 n=e6 v=70
551504 On ch=1 n=g5 v=79
551510 On ch=1 n=c3 v=68
551512 On ch=1 n=c4 v=89
551536 On ch=1 n=b3 v=0
551542 On ch=1 n=b2 v=0
551606 On ch=1 n=g5 v=0
551606 On ch=1 n=e6 v=0
551670 On ch=1 n=g6 v=79
551674 On ch=1 n=e6 v=73
551678 On ch=1 n=c#3 v=78
551682 On ch=1 n=c#4 v=87
551688 On ch=1 n=a#5 v=79
551708 On ch=1 n=c3 v=0
551710 On ch=1 n=c4 v=0
551776 On ch=1 n=e6 v=0
551790 On ch=1 n=a#5 v=0
551802 On ch=1 n=g6 v=0
551826 Par ch=1 c=64 v=0
551840 On ch=1 n=f#6 v=75
551848 On ch=1 n=a5 v=78
551850 On ch=1 n=d3 v=71
551858 On ch=1 n=d4 v=85
551876 On ch=1 n=c#3 v=0
551880 On ch=1 n=c#4 v=0
551890 Par ch=1 c=64 v=127
551950 On ch=1 n=f#6 v=0
551958 On ch=1 n=a5 v=0
552040 On ch=1 n=a6 v=81
552044 On ch=1 n=f6 v=78
552050 On ch=1 n=c6 v=70
552050 On ch=1 n=a5 v=74
552056 On ch=1 n=d#3 v=73
552058 On ch=1 n=d#4 v=81
552080 On ch=1 n=d3 v=0
552088 On ch=1 n=d4 v=0
552154 On ch=1 n=f6 v=0
552160 On ch=1 n=a5 v=0
552160 On ch=1 n=c6 v=0
552190 On ch=1 n=a6 v=0
552252 On ch=1 n=e6 v=70
552252 On ch=1 n=c6 v=68
552256 On ch=1 n=a5 v=71
552258 On ch=1 n=a6 v=75
552264 On ch=1 n=e4 v=71
552266 On ch=1 n=e3 v=79
552286 On ch=1 n=d#3 v=0
552288 On ch=1 n=d#4 v=0
552362 On ch=1 n=c6 v=0
552362 On ch=1 n=e6 v=0
552366 On ch=1 n=a5 v=0
552368 On ch=1 n=a6 v=0
552476 Par ch=1 c=64 v=0
552514 On ch=1 n=e4 v=0
552516 On ch=1 n=e3 v=0
552520 On ch=1 n=f4 v=86
552526 On ch=1 n=f3 v=82
552530 On ch=1 n=c7 v=83
552530 On ch=1 n=d#6 v=87
552538 On ch=1 n=a6 v=85
552538 On ch=1 n=c6 v=87
552554 Par ch=1 c=64 v=127
552632 On ch=1 n=d#6 v=0
552640 On ch=1 n=c6 v=0
552658 On ch=1 n=a6 v=0
552718 On ch=1 n=f4 v=0
552724 On ch=1 n=f3 v=0
552728 On ch=1 n=d#6 v=91
552730 On ch=1 n=c6 v=87
552730 On ch=1 n=f#4 v=73
552738 On ch=1 n=a6 v=76
552738 On ch=1 n=f#5 v=81
552830 On ch=1 n=d#6 v=0
552832 On ch=1 n=c6 v=0
552840 On ch=1 n=a6 v=0
552884 On ch=1 n=f#4 v=0
552892 On ch=1 n=f#5 v=0
552896 On ch=1 n=f4 v=76
552900 On ch=1 n=f5 v=79
552904 On ch=1 n=a6 v=78
552904 On ch=1 n=c6 v=81
552906 On ch=1 n=d#6 v=85
553006 On ch=1 n=c6 v=0
553006 On ch=1 n=a6 v=0
553008 On ch=1 n=d#6 v=0
553072 On ch=1 n=g4 v=67
553074 On ch=1 n=g3 v=74
553088 On ch=1 n=f6 v=90
553088 On ch=1 n=d#6 v=82
553094 On ch=1 n=f4 v=0
553098 On ch=1 n=f5 v=0
553190 On ch=1 n=d#6 v=0
553190 On ch=1 n=f6 v=0
553250 On ch=1 n=a3 v=73
553258 On ch=1 n=a4 v=65
553262 On ch=1 n=f6 v=86
553262 On ch=1 n=d#6 v=81
553270 On ch=1 n=g4 v=0
553272 On ch=1 n=g3 v=0
553364 On ch=1 n=d#6 v=0
553364 On ch=1 n=f6 v=0
553426 On ch=1 n=f4 v=50
553426 On ch=1 n=f3 v=53
553428 On ch=1 n=f6 v=86
553428 On ch=1 n=d#6 v=79
553448 On ch=1 n=a3 v=0
553456 On ch=1 n=a4 v=0
553464 On ch=1 n=c7 v=0
553530 On ch=1 n=d#6 v=0
553530 On ch=1 n=f6 v=0
553588 Par ch=1 c=64 v=0
553608 On ch=1 n=a#6 v=73
553608 On ch=1 n=f6 v=83
553610 On ch=1 n=c#7 v=87
553614 On ch=1 n=c#6 v=83
553614 On ch=1 n=a#3 v=79
553622 On ch=1 n=a#4 v=66
553644 Par ch=1 c=64 v=127
553656 On ch=1 n=f3 v=0
553656 On ch=1 n=f4 v=0
553710 On ch=1 n=f6 v=0
553710 On ch=1 n=a#6 v=0
553716 On ch=1 n=c#6 v=0
553830 On ch=1 n=c#6 v=79
553832 On ch=1 n=f6 v=68
553834 On ch=1 n=a#6 v=74
553840 On ch=1 n=c#4 v=93
553844 On ch=1 n=a#3 v=0
553852 On ch=1 n=a#4 v=0
553852 On ch=1 n=c#3 v=93
553932 On ch=1 n=c#6 v=0
553934 On ch=1 n=f6 v=0
553936 On ch=1 n=a#6 v=0
554002 On ch=1 n=a#6 v=80
554008 On ch=1 n=f#6 v=85
554008 On ch=1 n=c#6 v=68
554012 On ch=1 n=d#4 v=78
554016 On ch=1 n=d#3 v=78
554038 On ch=1 n=c#4 v=0
554050 On ch=1 n=c#3 v=0
554104 On ch=1 n=a#6 v=0
554110 On ch=1 n=c#6 v=0
554110 On ch=1 n=f#6 v=0
554132 On ch=1 n=c#7 v=0
554148 Par ch=1 c=64 v=0
554176 On ch=1 n=a#6 v=74
554176 On ch=1 n=f#6 v=85
554180 On ch=1 n=c7 v=78
554180 On ch=1 n=c6 v=85
554188 On ch=1 n=e4 v=67
554188 On ch=1 n=e3 v=67
554210 On ch=1 n=d#4 v=0
554214 On ch=1 n=d#3 v=0
554220 Par ch=1 c=64 v=127
554278 On ch=1 n=f#6 v=0
554278 On ch=1 n=a#6 v=0
554282 On ch=1 n=c6 v=0
554352 On ch=1 n=d#3 v=73
554354 On ch=1 n=d#4 v=73
554358 On ch=1 n=c6 v=79
554360 On ch=1 n=f#6 v=71
554364 On ch=1 n=a#6 v=79
554386 On ch=1 n=e3 v=0
554386 On ch=1 n=e4 v=0
554460 On ch=1 n=c6 v=0
554462 On ch=1 n=f#6 v=0
554466 On ch=1 n=a#6 v=0
554514 On ch=1 n=f#6 v=73
554520 On ch=1 n=a#6 v=73
554520 On ch=1 n=c6 v=78
554528 On ch=1 n=e3 v=78
554532 On ch=1 n=e4 v=85
554550 On ch=1 n=d#3 v=0
554552 On ch=1 n=d#4 v=0
554616 On ch=1 n=f#6 v=0
554622 On ch=1 n=c6 v=0
554622 On ch=1 n=a#6 v=0
554662 Par ch=1 c=64 v=0
554688 On ch=1 n=d#6 v=85
554688 On ch=1 n=c6 v=81
554694 On ch=1 n=f3 v=73
554700 On ch=1 n=f4 v=87
554700 On ch=1 n=a6 v=75
554726 On ch=1 n=e3 v=0
554726 Par ch=1 c=64 v=127
554730 On ch=1 n=e4 v=0
554790 On ch=1 n=c6 v=0
554790 On ch=1 n=d#6 v=0
554802 On ch=1 n=a6 v=0
554864 On ch=1 n=d#6 v=83
554868 On ch=1 n=a6 v=73
554868 On ch=1 n=c6 v=75
554868 On ch=1 n=e4 v=79
554868 On ch=1 n=e3 v=73
554892 On ch=1 n=f3 v=0
554898 On ch=1 n=f4 v=0
554900 On ch=1 n=c7 v=0
554966 On ch=1 n=d#6 v=0
554970 On ch=1 n=c6 v=0
554970 On ch=1 n=a6 v=0
555040 On ch=1 n=a6 v=74
555040 On ch=1 n=d#6 v=68
555048 On ch=1 n=c#7 v=93
555048 On ch=1 n=c6 v=73
555052 On ch=1 n=f4 v=73
555052 On ch=1 n=f3 v=73
555066 On ch=1 n=e3 v=0
555066 On ch=1 n=e4 v=0
555142 On ch=1 n=d#6 v=0
555142 On ch=1 n=a6 v=0
555150 On ch=1 n=c6 v=0
555204 Par ch=1 c=64 v=0
555234 On ch=1 n=a#6 v=83
555236 On ch=1 n=f#3 v=76
555238 On ch=1 n=c#7 v=0
555238 On ch=1 n=c#6 v=82
555244 On ch=1 n=a#5 v=85
555244 On ch=1 n=f#4 v=79
555250 On ch=1 n=f3 v=0
555250 On ch=1 n=f4 v=0
555262 Par ch=1 c=64 v=127
555340 On ch=1 n=c#6 v=0
555346 On ch=1 n=a#5 v=0
555424 On ch=1 n=a#5 v=85
555428 On ch=1 n=c#6 v=81
555434 On ch=1 n=f#3 v=0
555442 On ch=1 n=f#4 v=0
555446 On ch=1 n=f4 v=78
555446 On ch=1 n=f3 v=79
555526 On ch=1 n=a#5 v=0
555530 On ch=1 n=c#6 v=0
555604 On ch=1 n=a#6 v=0
555644 On ch=1 n=f#7 v=93
555650 On ch=1 n=a#6 v=90
555654 On ch=1 n=f#6 v=91
555660 On ch=1 n=e3 v=71
555666 On ch=1 n=e4 v=83
555676 On ch=1 n=f3 v=0
555676 On ch=1 n=f4 v=0
555752 On ch=1 n=a#6 v=0
555756 On ch=1 n=f#6 v=0
555846 Par ch=1 c=64 v=0
555858 On ch=1 n=e3 v=0
555864 On ch=1 n=e4 v=0
555878 On ch=1 n=f#6 v=83
555882 On ch=1 n=c7 v=80
555882 On ch=1 n=a#6 v=89
555882 On ch=1 n=c6 v=83
555892 On ch=1 n=d#4 v=93
555892 On ch=1 n=d#3 v=85
555894 On ch=1 n=f#7 v=0
555904 Par ch=1 c=64 v=127
555980 On ch=1 n=f#6 v=0
555984 On ch=1 n=c6 v=0
555984 On ch=1 n=a#6 v=0
556088 On ch=1 n=f#6 v=87
556088 On ch=1 n=d#4 v=93
556090 On ch=1 n=d#4 v=0
556094 On ch=1 n=a#6 v=87
556094 On ch=1 n=c6 v=85
556100 On ch=1 n=d#5 v=59
556122 On ch=1 n=d#3 v=0
556190 On ch=1 n=f#6 v=0
556192 On ch=1 n=c7 v=0
556196 On ch=1 n=c6 v=0
556196 On ch=1 n=a#6 v=0
556242 On ch=1 n=d#4 v=0
556250 On ch=1 n=c#5 v=81
556254 On ch=1 n=d#5 v=0
556258 On ch=1 n=c#4 v=81
556264 On ch=1 n=a#6 v=93
556264 On ch=1 n=f#6 v=68
556270 On ch=1 n=c#7 v=93
556272 On ch=1 n=c#6 v=93
556366 On ch=1 n=f#6 v=0
556366 On ch=1 n=a#6 v=0
556374 On ch=1 n=c#6 v=0
556490 On ch=1 n=f7 v=90
556494 On ch=1 n=c4 v=79
556498 On ch=1 n=c5 v=81
556500 On ch=1 n=c#7 v=0
556500 On ch=1 n=c#5 v=0
556504 On ch=1 n=a#6 v=68
556506 On ch=1 n=f#6 v=89
556508 On ch=1 n=c#4 v=0
556606 On ch=1 n=a#6 v=0
556608 On ch=1 n=f#6 v=0
556704 On ch=1 n=a#6 v=73
556704 On ch=1 n=d#6 v=90
556712 On ch=1 n=f#6 v=68
556718 On ch=1 n=d#7 v=85
556720 On ch=1 n=f7 v=0
556722 On ch=1 n=c3 v=74
556724 On ch=1 n=c4 v=0
556728 On ch=1 n=c5 v=0
556730 On ch=1 n=c4 v=83
556806 On ch=1 n=d#6 v=0
556806 On ch=1 n=a#6 v=0
556814 On ch=1 n=f#6 v=0
556920 On ch=1 n=c3 v=0
556920 On ch=1 n=c#4 v=73
556924 On ch=1 n=c#7 v=90
556924 On ch=1 n=a#6 v=93
556928 On ch=1 n=c4 v=0
556928 On ch=1 n=f6 v=68
556936 On ch=1 n=c#3 v=79
556948 On ch=1 n=d#7 v=0
557026 On ch=1 n=a#6 v=0
557030 On ch=1 n=f6 v=0
557108 Par ch=1 c=64 v=0
557128 On ch=1 n=f#6 v=73
557128 On ch=1 n=c6 v=83
557132 On ch=1 n=c7 v=83
557136 On ch=1 n=d#4 v=93
557140 On ch=1 n=a#6 v=86
557144 On ch=1 n=d#3 v=85
557150 On ch=1 n=c#4 v=0
557154 On ch=1 n=c#7 v=0
557166 On ch=1 n=c#3 v=0
557178 Par ch=1 c=64 v=127
557230 On ch=1 n=c6 v=0
557230 On ch=1 n=f#6 v=0
557242 On ch=1 n=a#6 v=0
557360 On ch=1 n=e3 v=82
557364 On ch=1 n=e4 v=81
557366 On ch=1 n=d#4 v=0
557368 On ch=1 n=f#6 v=68
557368 On ch=1 n=c6 v=68
557372 On ch=1 n=a#6 v=90
557374 On ch=1 n=d#3 v=0
557470 On ch=1 n=c6 v=0
557470 On ch=1 n=f#6 v=0
557474 On ch=1 n=a#6 v=0
557562 On ch=1 n=c7 v=0
557584 Par ch=1 c=64 v=0
557606 On ch=1 n=c#7 v=90
557608 On ch=1 n=d#6 v=68
557612 On ch=1 n=a6 v=83
557612 On ch=1 n=c6 v=99
557612 On ch=1 n=f3 v=79
557614 On ch=1 n=f4 v=83
557628 Par ch=1 c=64 v=127
557630 On ch=1 n=e3 v=0
557634 On ch=1 n=e4 v=0
557710 On ch=1 n=d#6 v=0
557714 On ch=1 n=c6 v=0
557714 On ch=1 n=a6 v=0
557786 On ch=1 n=c#7 v=0
557872 Par ch=1 c=64 v=0
557896 On ch=1 n=f#4 v=80
557902 On ch=1 n=f3 v=0
557904 On ch=1 n=f4 v=0
557904 On ch=1 n=a#6 v=85
557904 On ch=1 n=c#6 v=83
557904 On ch=1 n=a#5 v=89
557904 On ch=1 n=f#3 v=79
557904 Par ch=1 c=64 v=0
557934 Par ch=1 c=64 v=127
557948 Par ch=1 c=64 v=127
558048 On ch=1 n=a#5 v=0
558048 On ch=1 n=c#6 v=0
558048 On ch=1 n=a#6 v=0
558084 On ch=1 n=f5 v=66
558094 On ch=1 n=f#4 v=0
558128 On ch=1 n=e5 v=69
558128 On ch=1 n=a#4 v=83
558128 On ch=1 n=f#4 v=68
558128 On ch=1 n=e4 v=79
558134 On ch=1 n=f#3 v=0
558180 On ch=1 n=f#5 v=44
558184 On ch=1 n=f5 v=0
558272 On ch=1 n=e4 v=0
558272 On ch=1 n=f#4 v=0
558272 On ch=1 n=a#4 v=0
558272 On ch=1 n=e5 v=0
558288 On ch=1 n=g#5 v=35
558296 On ch=1 n=f#5 v=0
558330 On ch=1 n=g#5 v=0
558332 On ch=1 n=f#5 v=82
558336 On ch=1 n=a#4 v=57
558344 On ch=1 n=e5 v=65
558344 On ch=1 n=f#4 v=57
558344 On ch=1 n=e4 v=90
558384 On ch=1 n=f#5 v=0
558384 On ch=1 n=g#5 v=85
558420 On ch=1 n=g#5 v=0
558426 On ch=1 n=f#5 v=85
558464 On ch=1 n=f#5 v=0
558474 On ch=1 n=g#5 v=82
558480 On ch=1 n=a#4 v=0
558488 On ch=1 n=e4 v=0
558488 On ch=1 n=f#4 v=0
558488 On ch=1 n=e5 v=0
558510 On ch=1 n=f#5 v=83
558526 On ch=1 n=g#5 v=0
558528 On ch=1 n=e5 v=79
558536 On ch=1 n=a#4 v=72
558536 On ch=1 n=f#4 v=66
558536 On ch=1 n=e4 v=57
558568 On ch=1 n=g#5 v=35
558586 On ch=1 n=f#5 v=0
558610 On ch=1 n=g#5 v=0
558616 On ch=1 n=f#5 v=82
558648 On ch=1 n=g#5 v=85
558668 On ch=1 n=f#5 v=0
558672 On ch=1 n=e5 v=0
558680 On ch=1 n=e4 v=0
558680 On ch=1 n=f#4 v=0
558680 On ch=1 n=a#4 v=0
558684 On ch=1 n=g#5 v=0
558688 On ch=1 n=f#5 v=85
558720 On ch=1 n=g#5 v=82
558726 On ch=1 n=f#5 v=0
558728 On ch=1 n=e5 v=65
558728 On ch=1 n=a#4 v=81
558728 On ch=1 n=f#4 v=57
558728 On ch=1 n=e4 v=79
558760 On ch=1 n=f#5 v=83
558772 On ch=1 n=g#5 v=0
558824 On ch=1 n=g#5 v=35
558836 On ch=1 n=f#5 v=0
558866 On ch=1 n=g#5 v=0
558868 On ch=1 n=f#5 v=82
558872 On ch=1 n=e4 v=0
558872 On ch=1 n=f#4 v=0
558872 On ch=1 n=a#4 v=0
558872 On ch=1 n=e5 v=0
558912 On ch=1 n=e5 v=65
558920 On ch=1 n=f#5 v=0
558920 On ch=1 n=g#5 v=85
558920 On ch=1 n=a#4 v=81
558920 On ch=1 n=f#4 v=57
558920 On ch=1 n=e4 v=81
558956 On ch=1 n=g#5 v=0
558962 On ch=1 n=f#5 v=85
559000 On ch=1 n=f#5 v=0
559010 On ch=1 n=g#5 v=82
559046 On ch=1 n=f#5 v=83
559056 On ch=1 n=e5 v=0
559062 On ch=1 n=g#5 v=0
559064 On ch=1 n=e4 v=0
559064 On ch=1 n=f#4 v=0
559064 On ch=1 n=a#4 v=0
559080 On ch=1 n=e5 v=73
559080 On ch=1 n=e4 v=73
559088 On ch=1 n=a#4 v=81
559088 On ch=1 n=f#4 v=73
559096 On ch=1 n=f5 v=81
559122 On ch=1 n=f#5 v=0
559144 On ch=1 n=f#5 v=87
559152 Par ch=1 c=64 v=0
559166 On ch=1 n=f5 v=0
559168 On ch=1 n=g#5 v=37
559200 On ch=1 n=a#5 v=83
559214 Par ch=1 c=64 v=127
559224 On ch=1 n=e4 v=0
559224 On ch=1 n=e5 v=0
559228 On ch=1 n=f#5 v=0
559232 On ch=1 n=f#4 v=0
559232 On ch=1 n=a#4 v=0
559244 On ch=1 n=b5 v=85
559252 On ch=1 n=g#5 v=0
559284 On ch=1 n=a#5 v=0
559304 On ch=1 n=c#6 v=83
559322 On ch=1 n=b5 v=0
559354 On ch=1 n=d#6 v=85
559388 On ch=1 n=c#6 v=0
559408 On ch=1 n=e6 v=89
559424 On ch=1 n=e5 v=68
559432 On ch=1 n=a#4 v=64
559432 On ch=1 n=e4 v=71
559438 On ch=1 n=d#6 v=0
559438 On ch=1 n=f#4 v=68
559476 On ch=1 n=f#6 v=87
559492 On ch=1 n=e6 v=0
559536 On ch=1 n=g#6 v=73
559560 On ch=1 n=f#6 v=0
559568 On ch=1 n=e5 v=0
559576 On ch=1 n=e4 v=0
559576 On ch=1 n=a#4 v=0
559582 On ch=1 n=f#4 v=0
559582 On ch=1 n=a#6 v=39
559620 On ch=1 n=g#6 v=0
559630 On ch=1 n=b6 v=83
559666 On ch=1 n=a#6 v=0
559676 On ch=1 n=c#7 v=86
559714 On ch=1 n=b6 v=0
559736 On ch=1 n=d#7 v=85
559760 On ch=1 n=c#7 v=0
559760 On ch=1 n=e5 v=53
559760 On ch=1 n=a#4 v=45
559768 On ch=1 n=f#4 v=50
559768 On ch=1 n=e4 v=57
559800 On ch=1 n=e7 v=79
559820 On ch=1 n=d#7 v=0
559840 On ch=1 n=f#7 v=56
559872 On ch=1 n=g#7 v=83
559884 On ch=1 n=e7 v=0
559904 On ch=1 n=a#4 v=0
559904 On ch=1 n=e5 v=0
559912 On ch=1 n=e4 v=0
559912 On ch=1 n=f#4 v=0
559924 On ch=1 n=f#7 v=0
559924 On ch=1 n=a#7 v=94
559956 On ch=1 n=g#7 v=0
559968 On ch=1 n=b7 v=94
560008 On ch=1 n=a#7 v=0
560008 On ch=1 n=c#8 v=108
560032 Par ch=1 c=64 v=0
560052 On ch=1 n=b7 v=0
560082 On ch=1 n=b7 v=108
560088 Par ch=1 c=64 v=0
560090 On ch=1 n=d#8 v=108
560092 On ch=1 n=c#8 v=0
560092 On ch=1 n=d#7 v=96
560112 Par ch=1 c=64 v=127
560116 On ch=1 n=f#2 v=79
560118 On ch=1 n=f#3 v=83
560132 Par ch=1 c=64 v=127
560200 On ch=1 n=b7 v=0
560204 On ch=1 n=d#8 v=0
560214 On ch=1 n=d#7 v=0
560392 On ch=1 n=c#8 v=102
560392 On ch=1 n=a#7 v=59
560392 On ch=1 n=c#7 v=74
560392 On ch=1 n=b4 v=65
560392 On ch=1 n=f#4 v=68
560392 On ch=1 n=d#4 v=68
560426 On ch=1 n=f#2 v=0
560446 On ch=1 n=f#3 v=0
560494 On ch=1 n=d#4 v=0
560494 On ch=1 n=f#4 v=0
560494 On ch=1 n=b4 v=0
560526 On ch=1 n=b6 v=81
560532 On ch=1 n=b7 v=89
560532 On ch=1 n=g#7 v=83
560546 On ch=1 n=c#7 v=0
560546 On ch=1 n=a#7 v=0
560546 On ch=1 n=c#8 v=0
560620 On ch=1 n=f#4 v=67
560626 On ch=1 n=d#5 v=68
560626 On ch=1 n=b4 v=68
560628 On ch=1 n=b6 v=0
560628 On ch=1 n=a#6 v=85
560632 On ch=1 n=a#7 v=100
560632 On ch=1 n=f#7 v=68
560634 On ch=1 n=g#7 v=0
560634 On ch=1 n=b7 v=0
560722 On ch=1 n=f#4 v=0
560728 On ch=1 n=b4 v=0
560728 On ch=1 n=d#5 v=0
560730 On ch=1 n=a#6 v=0
560734 On ch=1 n=f#7 v=0
560734 On ch=1 n=a#7 v=0
560734 On ch=1 n=g#6 v=89
560742 On ch=1 n=g#7 v=98
560744 On ch=1 n=e7 v=68
560836 On ch=1 n=g#6 v=0
560844 On ch=1 n=g#7 v=0
560846 On ch=1 n=e7 v=0
560852 On ch=1 n=f#4 v=78
560856 On ch=1 n=f#5 v=83
560856 On ch=1 n=b4 v=78
560858 On ch=1 n=f#7 v=86
560858 On ch=1 n=d#7 v=83
560860 On ch=1 n=f#6 v=93
560954 On ch=1 n=f#4 v=0
560958 On ch=1 n=b4 v=0
560958 On ch=1 n=f#5 v=0
561088 On ch=1 n=d#7 v=0
561088 On ch=1 n=f#7 v=0
561090 On ch=1 n=f#6 v=0
561160 On ch=1 n=f#6 v=83
561160 On ch=1 n=d#6 v=85
561160 On ch=1 n=d#5 v=59
561160 On ch=1 n=b4 v=38
561162 On ch=1 n=f#4 v=62
561262 On ch=1 n=b4 v=0
561262 On ch=1 n=d#5 v=0
561262 On ch=1 n=d#6 v=0
561262 On ch=1 n=f#6 v=0
561264 On ch=1 n=f#4 v=0
561396 On ch=1 n=f6 v=83
561396 On ch=1 n=d6 v=87
561404 On ch=1 n=b4 v=38
561404 On ch=1 n=d#4 v=59
561406 On ch=1 n=f#4 v=62
561498 On ch=1 n=d6 v=0
561498 On ch=1 n=f6 v=0
561506 On ch=1 n=d#4 v=0
561506 On ch=1 n=b4 v=0
561508 On ch=1 n=f#4 v=0
561638 On ch=1 n=e6 v=83
561638 On ch=1 n=c#6 v=93
561640 On ch=1 n=f#3 v=72
561646 On ch=1 n=f#2 v=78
561750 On ch=1 n=f#6 v=80
561752 On ch=1 n=c#6 v=0
561752 On ch=1 n=e6 v=0
561798 On ch=1 n=f#6 v=0
561820 On ch=1 n=e6 v=79
561848 On ch=1 n=f#6 v=82
561862 On ch=1 n=e6 v=0
561884 On ch=1 n=f#6 v=0
561892 On ch=1 n=c#6 v=52
561894 On ch=1 n=e6 v=75
561904 On ch=1 n=a#4 v=78
561904 On ch=1 n=f#4 v=68
561910 On ch=1 n=c#4 v=63
561928 On ch=1 n=c#6 v=0
561934 On ch=1 n=f#6 v=90
561946 On ch=1 n=e6 v=0
561960 On ch=1 n=e6 v=82
561966 On ch=1 n=f#6 v=0
561968 On ch=1 n=f#3 v=0
561972 On ch=1 n=c#6 v=75
561974 On ch=1 n=f#2 v=0
562006 On ch=1 n=f#4 v=0
562006 On ch=1 n=a#4 v=0
562008 On ch=1 n=c#6 v=0
562008 On ch=1 n=e6 v=0
562012 On ch=1 n=c#4 v=0
562016 On ch=1 n=f#6 v=68
562036 On ch=1 n=e6 v=73
562052 On ch=1 n=f#6 v=0
562076 On ch=1 n=f#6 v=76
562086 On ch=1 n=e6 v=0
562160 On ch=1 n=f#6 v=0
562160 On ch=1 n=c#5 v=80
562168 On ch=1 n=e5 v=35
562168 On ch=1 n=f#4 v=35
562174 On ch=1 n=d#6 v=93
562174 On ch=1 n=c6 v=85
562262 On ch=1 n=c#5 v=0
562270 On ch=1 n=f#4 v=0
562270 On ch=1 n=e5 v=0
562328 On ch=1 n=c#6 v=85
562332 On ch=1 n=e6 v=78
562350 On ch=1 n=c6 v=0
562350 On ch=1 n=d#6 v=0
562430 Par ch=1 c=64 v=0
562496 On ch=1 n=d6 v=85
562496 On ch=1 n=b5 v=83
562496 On ch=1 n=g4 v=62
562504 On ch=1 n=c#6 v=0
562504 On ch=1 n=g3 v=79
562518 On ch=1 n=e6 v=0
562520 Par ch=1 c=64 v=127
562650 On ch=1 n=b5 v=0
562650 On ch=1 n=d6 v=0
562800 On ch=1 n=g7 v=81
562804 On ch=1 n=b7 v=98
562810 On ch=1 n=b6 v=81
562824 On ch=1 n=g4 v=0
562832 On ch=1 n=g3 v=0
562944 On ch=1 n=f#7 v=89
562946 On ch=1 n=a7 v=95
562954 On ch=1 n=g7 v=0
562954 On ch=1 n=g4 v=60
562956 On ch=1 n=a6 v=79
562958 On ch=1 n=b7 v=0
562962 On ch=1 n=b4 v=70
562962 On ch=1 n=d4 v=73
562964 On ch=1 n=b6 v=0
563056 On ch=1 n=g4 v=0
563064 On ch=1 n=d4 v=0
563064 On ch=1 n=b4 v=0
563066 On ch=1 n=g6 v=83
563074 On ch=1 n=e7 v=85
563076 On ch=1 n=f#7 v=0
563078 On ch=1 n=a7 v=0
563078 On ch=1 n=g7 v=75
563088 On ch=1 n=a6 v=0
563192 On ch=1 n=f#7 v=50
563192 On ch=1 n=d#7 v=82
563198 On ch=1 n=g6 v=0
563200 On ch=1 n=f#6 v=85
563200 On ch=1 n=d5 v=69
563200 On ch=1 n=b4 v=69
563200 On ch=1 n=g4 v=68
563206 On ch=1 n=e7 v=0
563210 On ch=1 n=g7 v=0
563302 On ch=1 n=g4 v=0
563302 On ch=1 n=b4 v=0
563302 On ch=1 n=d5 v=0
563308 On ch=1 n=e6 v=82
563312 On ch=1 n=e7 v=67
563312 On ch=1 n=c7 v=49
563324 On ch=1 n=d#7 v=0
563324 On ch=1 n=f#7 v=0
563332 On ch=1 n=f#6 v=0
563432 On ch=1 n=b6 v=79
563440 On ch=1 n=e6 v=0
563440 On ch=1 n=d6 v=85
563440 On ch=1 n=g5 v=79
563440 On ch=1 n=b4 v=76
563440 On ch=1 n=g4 v=75
563442 On ch=1 n=d7 v=81
563444 On ch=1 n=c7 v=0
563444 On ch=1 n=e7 v=0
563542 On ch=1 n=g4 v=0
563542 On ch=1 n=b4 v=0
563542 On ch=1 n=g5 v=0
563662 On ch=1 n=b6 v=0
563670 On ch=1 n=d6 v=0
563672 On ch=1 n=d7 v=0
563708 On ch=1 n=d6 v=81
563712 On ch=1 n=b5 v=80
563712 On ch=1 n=b4 v=48
563712 On ch=1 n=g4 v=73
563718 On ch=1 n=d5 v=49
563810 On ch=1 n=d6 v=0
563814 On ch=1 n=g4 v=0
563814 On ch=1 n=b4 v=0
563814 On ch=1 n=b5 v=0
563820 On ch=1 n=d5 v=0
563944 On ch=1 n=a#5 v=78
563946 On ch=1 n=d5 v=73
563950 On ch=1 n=c#6 v=76
563958 On ch=1 n=d4 v=48
564046 On ch=1 n=a#5 v=0
564048 On ch=1 n=d5 v=0
564052 On ch=1 n=c#6 v=0
564060 On ch=1 n=d4 v=0
564188 Par ch=1 c=64 v=0
564214 On ch=1 n=c6 v=85
564220 On ch=1 n=a5 v=79
564224 On ch=1 n=d2 v=68
564230 On ch=1 n=d3 v=70
564260 Par ch=1 c=64 v=127
564380 On ch=1 n=c6 v=0
564382 On ch=1 n=d6 v=46
564438 On ch=1 n=c6 v=73
564448 On ch=1 n=d6 v=0
564458 On ch=1 n=a5 v=0
564478 On ch=1 n=c6 v=0
564478 On ch=1 n=d6 v=76
564522 On ch=1 n=c6 v=85
564522 On ch=1 n=c5 v=49
564522 On ch=1 n=f#4 v=34
564522 On ch=1 n=d4 v=53
564532 On ch=1 n=d6 v=0
564536 On ch=1 n=a5 v=38
564552 On ch=1 n=d2 v=0
564556 On ch=1 n=d6 v=75
564558 On ch=1 n=d3 v=0
564566 On ch=1 n=a5 v=0
564566 On ch=1 n=c6 v=0
564590 On ch=1 n=d6 v=0
564598 On ch=1 n=c6 v=79
564604 On ch=1 n=a5 v=62
564624 On ch=1 n=d4 v=0
564624 On ch=1 n=f#4 v=0
564624 On ch=1 n=c5 v=0
564634 On ch=1 n=a5 v=0
564638 On ch=1 n=d6 v=80
564640 On ch=1 n=c6 v=0
564678 On ch=1 n=c6 v=79
564682 On ch=1 n=d6 v=0
564682 On ch=1 n=a5 v=57
564712 On ch=1 n=a5 v=0
564716 On ch=1 n=c6 v=0
564720 On ch=1 n=d6 v=71
564746 On ch=1 n=c6 v=76
564752 On ch=1 n=a5 v=47
564780 On ch=1 n=d6 v=0
564798 On ch=1 n=c6 v=0
564880 On ch=1 n=f#4 v=56
564888 On ch=1 n=f#5 v=66
564890 On ch=1 n=b5 v=85
564890 On ch=1 n=c5 v=70
564894 On ch=1 n=g#5 v=85
564910 On ch=1 n=a5 v=0
564982 On ch=1 n=f#4 v=0
564990 On ch=1 n=f#5 v=0
564992 On ch=1 n=c5 v=0
565032 On ch=1 n=c6 v=80
565032 On ch=1 n=a5 v=85
565044 On ch=1 n=b5 v=0
565048 On ch=1 n=g#5 v=0
565186 On ch=1 n=a5 v=0
565186 On ch=1 n=c6 v=0
565200 On ch=1 n=b5 v=79
565200 On ch=1 n=a5 v=76
565200 On ch=1 n=f#5 v=76
565200 On ch=1 n=b4 v=78
565206 On ch=1 n=d#4 v=85
565206 On ch=1 n=d#3 v=83
565256 Par ch=1 c=64 v=127
565458 On ch=1 n=b5 v=0
565460 On ch=1 n=f#5 v=0
565460 On ch=1 n=a5 v=0
565460 On ch=1 n=g#5 v=79
565466 On ch=1 n=e5 v=79
565470 On ch=1 n=e3 v=82
565476 On ch=1 n=d#3 v=0
565476 On ch=1 n=d#4 v=0
565476 On ch=1 n=e4 v=81
565538 On ch=1 n=b4 v=0
565562 On ch=1 n=g#5 v=0
565568 On ch=1 n=e5 v=0
565682 Par ch=1 c=64 v=0
565704 On ch=1 n=e6 v=81
565704 On ch=1 n=b5 v=68
565704 On ch=1 n=e5 v=78
565710 On ch=1 n=d6 v=69
565720 On ch=1 n=e3 v=0
565724 On ch=1 n=g#4 v=87
565724 On ch=1 n=g#3 v=76
565726 On ch=1 n=e4 v=0
565760 Par ch=1 c=64 v=127
565936 On ch=1 n=c#6 v=79
565940 On ch=1 n=a5 v=72
565948 On ch=1 n=a4 v=81
565948 On ch=1 n=a3 v=78
565954 On ch=1 n=g#3 v=0
565954 On ch=1 n=g#4 v=0
565970 On ch=1 n=b5 v=0
565970 On ch=1 n=e6 v=0
565976 On ch=1 n=d6 v=0
566038 On ch=1 n=c#6 v=0
566042 On ch=1 n=a5 v=0
566058 On ch=1 n=e5 v=0
566164 Par ch=1 c=64 v=0
566176 On ch=1 n=g6 v=70
566178 On ch=1 n=a3 v=0
566178 On ch=1 n=a4 v=0
566178 On ch=1 n=a6 v=79
566184 On ch=1 n=a5 v=69
566186 On ch=1 n=e6 v=75
566192 On ch=1 n=c#5 v=87
566192 On ch=1 n=c#4 v=78
566210 Par ch=1 c=64 v=127
566400 On ch=1 n=f#6 v=85
566400 On ch=1 n=d4 v=76
566408 On ch=1 n=c6 v=81
566408 On ch=1 n=d5 v=81
566422 On ch=1 n=c#4 v=0
566422 On ch=1 n=c#5 v=0
566442 On ch=1 n=g6 v=0
566444 On ch=1 n=a6 v=0
566452 On ch=1 n=e6 v=0
566502 On ch=1 n=f#6 v=0
566510 On ch=1 n=c6 v=0
566538 On ch=1 n=a5 v=0
566582 Par ch=1 c=64 v=0
566598 On ch=1 n=d4 v=0
566606 On ch=1 n=d5 v=0
566624 On ch=1 n=b6 v=81
566628 On ch=1 n=a6 v=74
566628 On ch=1 n=f#6 v=76
566628 On ch=1 n=b5 v=76
566638 On ch=1 n=d#5 v=90
566638 On ch=1 n=d#4 v=79
566652 Par ch=1 c=64 v=127
566872 On ch=1 n=g#6 v=79
566872 On ch=1 n=e4 v=76
566878 On ch=1 n=d6 v=79
566878 On ch=1 n=e5 v=79
566888 On ch=1 n=d#4 v=0
566888 On ch=1 n=d#5 v=0
566890 On ch=1 n=b6 v=0
566894 On ch=1 n=f#6 v=0
566894 On ch=1 n=a6 v=0
566974 On ch=1 n=g#6 v=0
566980 On ch=1 n=d6 v=0
566982 On ch=1 n=b5 v=0
567070 On ch=1 n=e4 v=0
567076 On ch=1 n=e5 v=0
567090 Par ch=1 c=64 v=0
567106 On ch=1 n=c#6 v=82
567112 On ch=1 n=f4 v=73
567116 On ch=1 n=c#7 v=89
567116 On ch=1 n=b6 v=73
567116 On ch=1 n=g#6 v=79
567116 On ch=1 n=f5 v=73
567120 On ch=1 n=c#5 v=69
567120 On ch=1 n=g#4 v=68
567154 Par ch=1 c=64 v=127
567360 On ch=1 n=a#6 v=75
567360 On ch=1 n=e6 v=68
567368 On ch=1 n=f#5 v=79
567368 On ch=1 n=f#4 v=79
567370 On ch=1 n=c#5 v=0
567378 On ch=1 n=c#5 v=68
567382 On ch=1 n=f4 v=0
567386 On ch=1 n=f5 v=0
567390 On ch=1 n=g#4 v=0
567404 On ch=1 n=g#6 v=0
567404 On ch=1 n=b6 v=0
567404 On ch=1 n=c#7 v=0
567462 On ch=1 n=e6 v=0
567462 On ch=1 n=a#6 v=0
567506 On ch=1 n=c#6 v=0
567566 On ch=1 n=f#4 v=0
567566 On ch=1 n=f#5 v=0
567576 On ch=1 n=c#5 v=0
567604 Par ch=1 c=64 v=0
567626 On ch=1 n=g4 v=78
567632 On ch=1 n=c#7 v=83
567632 On ch=1 n=a#6 v=80
567632 On ch=1 n=g5 v=78
567632 On ch=1 n=d#5 v=72
567632 On ch=1 n=a#4 v=68
567640 On ch=1 n=d#6 v=93
567640 On ch=1 n=c#6 v=96
567678 Par ch=1 c=64 v=127
567906 On ch=1 n=d#6 v=0
567912 On ch=1 n=g#5 v=79
567916 On ch=1 n=g4 v=0
567916 On ch=1 n=g#4 v=82
567920 On ch=1 n=d#6 v=68
567922 On ch=1 n=a#4 v=0
567922 On ch=1 n=d#5 v=0
567922 On ch=1 n=g5 v=0
567922 On ch=1 n=c7 v=83
567922 On ch=1 n=g#6 v=82
567928 On ch=1 n=c6 v=85
567928 On ch=1 n=d#5 v=81
567942 On ch=1 n=a#6 v=0
567942 On ch=1 n=c#7 v=0
567950 On ch=1 n=c#6 v=0
568142 On ch=1 n=g#5 v=0
568146 On ch=1 n=g#4 v=0
568158 On ch=1 n=d#5 v=0
568186 On ch=1 n=d#6 v=0
568188 On ch=1 n=g#6 v=0
568188 On ch=1 n=c7 v=0
568194 On ch=1 n=c6 v=0
568194 Par ch=1 c=64 v=0
568208 On ch=1 n=f6 v=87
568212 On ch=1 n=c7 v=85
568214 On ch=1 n=c#3 v=85
568222 On ch=1 n=c6 v=85
568222 On ch=1 n=c#4 v=85
568258 Par ch=1 c=64 v=127
568496 On ch=1 n=f6 v=0
568496 On ch=1 n=a#6 v=87
568500 On ch=1 n=c7 v=0
568504 On ch=1 n=a#5 v=91
568504 On ch=1 n=a#4 v=70
568508 On ch=1 n=c#5 v=68
568508 On ch=1 n=g#4 v=71
568510 On ch=1 n=c6 v=0
568510 On ch=1 n=f6 v=85
568518 On ch=1 n=f5 v=71
568542 On ch=1 n=c#3 v=0
568550 On ch=1 n=c#4 v=0
568658 On ch=1 n=a#4 v=0
568662 On ch=1 n=g#4 v=0
568662 On ch=1 n=c#5 v=0
568672 On ch=1 n=f5 v=0
568686 On ch=1 n=f6 v=0
568690 On ch=1 n=c7 v=83
568694 On ch=1 n=a#6 v=0
568700 On ch=1 n=c6 v=83
568700 On ch=1 n=f5 v=73
568700 On ch=1 n=c#5 v=73
568700 On ch=1 n=g#4 v=74
568702 On ch=1 n=a#5 v=0
568710 On ch=1 n=f6 v=85
568710 On ch=1 n=a#4 v=66
568854 On ch=1 n=g#4 v=0
568854 On ch=1 n=c#5 v=0
568854 On ch=1 n=f5 v=0
568864 On ch=1 n=a#4 v=0
568886 On ch=1 n=f6 v=0
568888 On ch=1 n=c7 v=0
568898 On ch=1 n=c6 v=0
568900 On ch=1 n=c#7 v=93
568900 On ch=1 n=f6 v=83
568900 On ch=1 n=c#6 v=85
568904 On ch=1 n=a#4 v=71
568910 On ch=1 n=c#5 v=79
568910 On ch=1 n=g#4 v=79
568912 On ch=1 n=f5 v=79
569058 On ch=1 n=a#4 v=0
569064 On ch=1 n=g#4 v=0
569064 On ch=1 n=c#5 v=0
569066 On ch=1 n=f5 v=0
569110 On ch=1 n=c#7 v=0
569130 On ch=1 n=c#6 v=0
569130 On ch=1 n=f6 v=0
569130 On ch=1 n=c#7 v=89
569132 On ch=1 n=g7 v=93
569134 On ch=1 n=g6 v=75
569136 On ch=1 n=a#4 v=67
569140 On ch=1 n=c#5 v=79
569140 On ch=1 n=g#4 v=80
569146 On ch=1 n=g5 v=81
569290 On ch=1 n=a#4 v=0
569294 On ch=1 n=g#4 v=0
569294 On ch=1 n=c#5 v=0
569300 On ch=1 n=g5 v=0
569360 On ch=1 n=c#7 v=0
569376 On ch=1 n=a#4 v=68
569382 On ch=1 n=g#4 v=81
569384 On ch=1 n=c#7 v=89
569388 On ch=1 n=f6 v=73
569390 On ch=1 n=g#5 v=79
569390 On ch=1 n=c#5 v=80
569392 On ch=1 n=f7 v=81
569402 On ch=1 n=g7 v=0
569404 On ch=1 n=g6 v=0
569530 On ch=1 n=a#4 v=0
569536 On ch=1 n=g#4 v=0
569544 On ch=1 n=c#5 v=0
569544 On ch=1 n=g#5 v=0
569672 On ch=1 n=d#7 v=91
569672 On ch=1 n=c7 v=85
569672 On ch=1 n=d#6 v=86
569674 On ch=1 n=c#7 v=0
569678 On ch=1 n=f6 v=0
569678 On ch=1 n=d#3 v=89
569678 On ch=1 n=d#2 v=89
569682 On ch=1 n=f7 v=0
569826 On ch=1 n=d#6 v=0
569826 On ch=1 n=c7 v=0
569826 On ch=1 n=d#7 v=0
569946 On ch=1 n=d#2 v=0
569954 On ch=1 n=d#6 v=77
569960 On ch=1 n=c6 v=72
569966 On ch=1 n=d#3 v=0
569968 On ch=1 n=d#5 v=82
570002 On ch=1 n=c6 v=0
570014 On ch=1 n=d#5 v=0
570028 On ch=1 n=d#6 v=0
570096 On ch=1 n=d#6 v=77
570118 On ch=1 n=c6 v=75
570118 On ch=1 n=d#5 v=83
570164 On ch=1 n=d#5 v=0
570168 On ch=1 n=c6 v=0
570170 On ch=1 n=d#6 v=0
570176 On ch=1 n=d#4 v=77
570176 On ch=1 n=d#3 v=77
570222 Par ch=1 c=64 v=0
570228 On ch=1 n=d#4 v=0
570232 On ch=1 n=d#3 v=0
570246 On ch=1 n=d#5 v=82
570248 On ch=1 n=d#6 v=98
570248 On ch=1 n=g#5 v=65
570254 On ch=1 n=c6 v=71
570260 On ch=1 n=g#4 v=88
570260 On ch=1 n=g#3 v=83
570272 Par ch=1 c=64 v=127
570308 On ch=1 n=g#5 v=0
570310 On ch=1 n=d#5 v=0
570316 On ch=1 n=c6 v=0
570376 On ch=1 n=g#5 v=65
570378 On ch=1 n=d#5 v=77
570390 On ch=1 n=c6 v=62
570422 On ch=1 n=d#5 v=0
570432 On ch=1 n=c6 v=0
570436 On ch=1 n=g#5 v=0
570512 On ch=1 n=d#5 v=65
570520 On ch=1 n=c6 v=71
570520 On ch=1 n=g#5 v=77
570548 On ch=1 n=g#3 v=0
570548 On ch=1 n=g#4 v=0
570564 On ch=1 n=g#5 v=0
570570 On ch=1 n=c6 v=0
570572 On ch=1 n=d#5 v=0
570576 On ch=1 n=a#4 v=80
570584 On ch=1 n=a#3 v=71
570632 On ch=1 n=d#5 v=65
570636 On ch=1 n=a#4 v=0
570638 On ch=1 n=c6 v=72
570640 On ch=1 n=g#5 v=64
570642 On ch=1 n=a#3 v=0
570646 On ch=1 n=c4 v=72
570654 On ch=1 n=c5 v=79
570686 On ch=1 n=g#5 v=0
570692 On ch=1 n=d#5 v=0
570704 On ch=1 n=c6 v=0
570762 On ch=1 n=c6 v=72
570768 On ch=1 n=g#5 v=54
570810 On ch=1 n=g#5 v=0
570818 On ch=1 n=c6 v=0
570900 On ch=1 n=g#5 v=67
570904 On ch=1 n=c6 v=73
570934 On ch=1 n=c4 v=0
570942 On ch=1 n=c5 v=0
570944 On ch=1 n=g#5 v=0
570944 On ch=1 n=f5 v=82
570952 On ch=1 n=f4 v=75
570960 On ch=1 n=c6 v=0
570996 On ch=1 n=f5 v=0
570998 On ch=1 n=f4 v=0
571030 On ch=1 n=c6 v=72
571030 On ch=1 n=g#5 v=69
571034 On ch=1 n=d#5 v=94
571036 On ch=1 n=d#4 v=83
571080 On ch=1 n=g#5 v=0
571094 On ch=1 n=c6 v=0
571156 On ch=1 n=c6 v=71
571158 On ch=1 n=g#5 v=58
571198 On ch=1 n=g#5 v=0
571210 On ch=1 n=c6 v=0
571264 On ch=1 n=d#5 v=0
571272 On ch=1 n=g#5 v=74
571278 On ch=1 n=c6 v=82
571280 On ch=1 n=d#5 v=65
571324 On ch=1 n=d#4 v=0
571332 On ch=1 n=c6 v=0
571332 On ch=1 n=g#5 v=0
571336 On ch=1 n=c5 v=71
571340 On ch=1 n=d#5 v=0
571344 On ch=1 n=c4 v=71
571348 On ch=1 n=d#6 v=0
571374 On ch=1 n=c5 v=0
571386 On ch=1 n=c4 v=0
571396 On ch=1 n=g#5 v=63
571402 On ch=1 n=d#5 v=82
571406 On ch=1 n=c6 v=73
571406 On ch=1 n=a#4 v=88
571406 On ch=1 n=a#3 v=83
571454 On ch=1 n=d#5 v=0
571454 On ch=1 n=g#5 v=0
571464 On ch=1 n=c6 v=0
571522 On ch=1 n=c6 v=56
571522 On ch=1 n=g#5 v=71
571522 On ch=1 n=d#5 v=58
571560 On ch=1 n=g#5 v=0
571562 On ch=1 n=d#5 v=0
571570 On ch=1 n=c6 v=0
571634 On ch=1 n=d#5 v=77
571644 On ch=1 n=c6 v=70
571644 On ch=1 n=g#5 v=47
571684 On ch=1 n=g#5 v=0
571684 On ch=1 n=d#5 v=0
571692 On ch=1 n=c6 v=0
571694 On ch=1 n=a#3 v=0
571694 On ch=1 n=a#4 v=0
571704 On ch=1 n=c5 v=71
571704 On ch=1 n=c4 v=71
571748 On ch=1 n=c5 v=0
571754 On ch=1 n=c4 v=0
571768 On ch=1 n=d#6 v=92
571768 On ch=1 n=c6 v=70
571768 On ch=1 n=g#5 v=77
571770 On ch=1 n=a#3 v=86
571776 On ch=1 n=d#5 v=82
571776 On ch=1 n=a#4 v=90
571800 On ch=1 n=g#5 v=0
571818 On ch=1 n=c6 v=0
571830 On ch=1 n=d#5 v=0
571896 On ch=1 n=d#5 v=75
571904 On ch=1 n=g#5 v=77
571912 On ch=1 n=c6 v=72
571916 On ch=1 n=d#5 v=82
571948 On ch=1 n=d#5 v=0
571954 On ch=1 n=c6 v=0
571956 On ch=1 n=g#5 v=0
571962 On ch=1 n=d#5 v=0
572032 On ch=1 n=c6 v=72
572032 On ch=1 n=g#5 v=71
572034 On ch=1 n=d#6 v=0
572038 On ch=1 n=f6 v=90
572044 On ch=1 n=d#5 v=82
572058 On ch=1 n=a#3 v=0
572064 On ch=1 n=a#4 v=0
572074 On ch=1 n=c6 v=0
572078 On ch=1 n=g#5 v=0
572090 On ch=1 n=d#5 v=0
572096 On ch=1 n=g#4 v=83
572096 On ch=1 n=g#3 v=77
572120 On ch=1 n=f6 v=0
572134 On ch=1 n=g#4 v=0
572136 On ch=1 n=g#3 v=0
572178 Par ch=1 c=64 v=0
572200 On ch=1 n=c#6 v=77
572206 On ch=1 n=f6 v=95
572206 On ch=1 n=d#3 v=89
572206 On ch=1 n=d#2 v=89
572208 On ch=1 n=f5 v=77
572216 On ch=1 n=g5 v=82
572234 Par ch=1 c=64 v=127
572254 On ch=1 n=g5 v=0
572256 On ch=1 n=f5 v=0
572262 On ch=1 n=c#6 v=0
572320 On ch=1 n=c#6 v=80
572328 On ch=1 n=f5 v=66
572330 On ch=1 n=g5 v=63
572366 On ch=1 n=g5 v=0
572370 On ch=1 n=f5 v=0
572374 On ch=1 n=c#6 v=0
572450 On ch=1 n=g5 v=78
572454 On ch=1 n=c#6 v=78
572456 On ch=1 n=f5 v=67
572494 On ch=1 n=d#2 v=0
572494 On ch=1 n=d#3 v=0
572498 On ch=1 n=f6 v=0
572508 On ch=1 n=f5 v=0
572508 On ch=1 n=g5 v=0
572516 On ch=1 n=c#6 v=0
572536 On ch=1 n=d#4 v=82
572536 On ch=1 n=d#3 v=78
572572 On ch=1 n=d#3 v=0
572580 On ch=1 n=d#4 v=0
572592 On ch=1 n=d#6 v=102
572596 On ch=1 n=a#3 v=83
572602 On ch=1 n=g5 v=77
572602 On ch=1 n=a#4 v=93
572606 On ch=1 n=c#6 v=71
572612 On ch=1 n=d#5 v=97
572650 On ch=1 n=g5 v=0
572658 On ch=1 n=c#6 v=0
572664 On ch=1 n=d#5 v=0
572712 On ch=1 n=d#5 v=80
572722 On ch=1 n=g5 v=71
572760 On ch=1 n=g5 v=0
572764 On ch=1 n=d#5 v=0
572840 On ch=1 n=g5 v=78
572840 On ch=1 n=d#5 v=72
572884 On ch=1 n=a#3 v=0
572888 On ch=1 n=c5 v=71
572888 On ch=1 n=c4 v=77
572890 On ch=1 n=g5 v=0
572890 On ch=1 n=a#4 v=0
572900 On ch=1 n=d#5 v=0
572934 On ch=1 n=c5 v=0
572938 On ch=1 n=c4 v=0
572940 Par ch=1 c=64 v=0
572964 On ch=1 n=c#4 v=86
572968 On ch=1 n=c#5 v=94
572970 On ch=1 n=g5 v=77
572982 Par ch=1 c=64 v=127
573018 On ch=1 n=g5 v=0
573086 On ch=1 n=g5 v=77
573134 On ch=1 n=g5 v=0
573214 On ch=1 n=g5 v=77
573252 On ch=1 n=c#4 v=0
573256 On ch=1 n=c#5 v=0
573264 On ch=1 n=g5 v=0
573264 On ch=1 n=f5 v=77
573264 On ch=1 n=f4 v=70
573314 On ch=1 n=f4 v=0
573316 On ch=1 n=f5 v=0
573330 On ch=1 n=d#5 v=96
573336 On ch=1 n=c6 v=69
573336 On ch=1 n=d#4 v=83
573342 On ch=1 n=g5 v=77
573390 On ch=1 n=g5 v=0
573418 On ch=1 n=c6 v=0
573448 On ch=1 n=c6 v=58
573452 On ch=1 n=g#5 v=67
573506 On ch=1 n=c6 v=0
573512 On ch=1 n=g#5 v=0
573520 On ch=1 n=d#6 v=0
573560 On ch=1 n=d#5 v=0
573568 On ch=1 n=d#5 v=65
573574 On ch=1 n=c6 v=47
573576 On ch=1 n=g#5 v=65
573624 On ch=1 n=d#4 v=0
573624 On ch=1 n=c4 v=71
573628 On ch=1 n=d#5 v=0
573632 On ch=1 n=c5 v=78
573636 On ch=1 n=g#5 v=0
573636 On ch=1 n=c6 v=0
573666 On ch=1 n=c4 v=0
573668 Par ch=1 c=64 v=0
573670 On ch=1 n=c5 v=0
573698 On ch=1 n=g#5 v=78
573698 On ch=1 n=d#5 v=90
573698 On ch=1 n=a#4 v=90
573708 On ch=1 n=d#6 v=102
573708 On ch=1 n=c6 v=75
573708 On ch=1 n=a#3 v=86
573726 Par ch=1 c=64 v=127
573744 On ch=1 n=d#5 v=0
573754 On ch=1 n=g#5 v=0
573776 On ch=1 n=c6 v=0
573820 On ch=1 n=d#5 v=75
573826 On ch=1 n=g#5 v=63
573832 On ch=1 n=c6 v=33
573866 On ch=1 n=g#5 v=0
573866 On ch=1 n=d#5 v=0
573884 On ch=1 n=c6 v=0
573906 On ch=1 n=d#6 v=0
573934 On ch=1 n=d#5 v=77
573944 On ch=1 n=g#5 v=65
573946 On ch=1 n=c6 v=66
573986 On ch=1 n=d#5 v=0
573986 On ch=1 n=a#4 v=0
573992 On ch=1 n=c4 v=70
573996 On ch=1 n=a#3 v=0
573998 On ch=1 n=c6 v=0
574000 On ch=1 n=c5 v=73
574004 On ch=1 n=g#5 v=0
574046 On ch=1 n=c5 v=0
574052 On ch=1 n=c4 v=0
574058 On ch=1 n=d#6 v=102
574058 On ch=1 n=a#3 v=86
574068 On ch=1 n=a#4 v=93
574074 On ch=1 n=c6 v=65
574076 On ch=1 n=g#5 v=82
574076 On ch=1 n=d#5 v=88
574102 On ch=1 n=d#5 v=0
574110 On ch=1 n=g#5 v=0
574140 On ch=1 n=c6 v=0
574184 On ch=1 n=c6 v=65
574184 On ch=1 n=g#5 v=65
574184 On ch=1 n=d#5 v=82
574238 On ch=1 n=d#5 v=0
574244 On ch=1 n=g#5 v=0
574244 On ch=1 n=c6 v=0
574244 On ch=1 n=d#6 v=0
574306 On ch=1 n=f6 v=95
574320 On ch=1 n=c6 v=72
574320 On ch=1 n=g#5 v=77
574324 On ch=1 n=d#5 v=82
574346 On ch=1 n=a#3 v=0
574356 On ch=1 n=a#4 v=0
574362 On ch=1 n=c6 v=0
574368 On ch=1 n=g#4 v=90
574368 On ch=1 n=g#3 v=75
574370 On ch=1 n=d#5 v=0
574370 On ch=1 n=g#5 v=0
574376 On ch=1 n=f6 v=0
574402 Par ch=1 c=64 v=0
574408 On ch=1 n=g#4 v=0
574418 On ch=1 n=g#3 v=0
574430 On ch=1 n=f6 v=95
574432 On ch=1 n=c#6 v=77
574438 On ch=1 n=d#3 v=89
574440 On ch=1 n=f5 v=83
574446 On ch=1 n=g5 v=87
574446 On ch=1 n=d#2 v=89
574472 Par ch=1 c=64 v=127
574484 On ch=1 n=g5 v=0
574484 On ch=1 n=f5 v=0
574506 On ch=1 n=c#6 v=0
574552 On ch=1 n=c#6 v=93
574552 On ch=1 n=f5 v=71
574554 On ch=1 n=g5 v=73
574588 On ch=1 n=f5 v=0
574594 On ch=1 n=g5 v=0
574594 On ch=1 n=c#6 v=0
574664 On ch=1 n=c#6 v=77
574672 On ch=1 n=f5 v=67
574676 On ch=1 n=g5 v=72
574720 On ch=1 n=c#6 v=0
574720 On ch=1 n=f6 v=0
574722 On ch=1 n=g5 v=0
574724 On ch=1 n=f5 v=0
574726 On ch=1 n=d#3 v=0
574728 On ch=1 n=d#4 v=78
574728 On ch=1 n=d#3 v=77
574734 On ch=1 n=d#2 v=0
574772 On ch=1 n=d#3 v=0
574780 On ch=1 n=d#4 v=0
574794 On ch=1 n=g5 v=71
574800 On ch=1 n=d#6 v=100
574800 On ch=1 n=c#6 v=72
574800 On ch=1 n=d#5 v=82
574800 On ch=1 n=a#3 v=86
574804 On ch=1 n=a#4 v=93
574842 On ch=1 n=c#6 v=0
574846 On ch=1 n=d#5 v=0
574854 On ch=1 n=g5 v=0
574914 On ch=1 n=g5 v=71
574918 On ch=1 n=d#5 v=82
574958 On ch=1 n=d#5 v=0
574962 On ch=1 n=g5 v=0
575038 On ch=1 n=d#5 v=82
575040 On ch=1 n=g5 v=69
575080 On ch=1 n=c5 v=71
575080 On ch=1 n=c4 v=72
575082 On ch=1 n=d#5 v=0
575084 On ch=1 n=g5 v=0
575088 On ch=1 n=a#3 v=0
575092 On ch=1 n=a#4 v=0
575126 On ch=1 n=c4 v=0
575126 On ch=1 n=c5 v=0
575142 On ch=1 n=c#4 v=82
575146 On ch=1 n=c#5 v=90
575154 On ch=1 n=g5 v=82
575210 On ch=1 n=g5 v=0
575268 On ch=1 n=g5 v=78
575322 On ch=1 n=g5 v=0
575390 On ch=1 n=g5 v=80
575430 On ch=1 n=c#4 v=0
575432 On ch=1 n=f5 v=72
575432 On ch=1 n=f4 v=65
575434 On ch=1 n=c#5 v=0
575442 On ch=1 n=g5 v=0
575480 On ch=1 n=f4 v=0
575486 On ch=1 n=f5 v=0
575496 On ch=1 n=d#5 v=94
575512 On ch=1 n=c6 v=77
575512 On ch=1 n=d#4 v=86
575514 On ch=1 n=g5 v=82
575566 On ch=1 n=g5 v=0
575586 On ch=1 n=c6 v=0
575624 On ch=1 n=c6 v=82
575624 On ch=1 n=g#5 v=71
575678 On ch=1 n=g#5 v=0
575684 On ch=1 n=c6 v=0
575726 On ch=1 n=d#5 v=0
575736 On ch=1 n=g#5 v=71
575744 On ch=1 n=c6 v=72
575744 On ch=1 n=d#5 v=65
575768 On ch=1 n=d#6 v=0
575786 On ch=1 n=c6 v=0
575792 On ch=1 n=c4 v=78
575794 On ch=1 n=g#5 v=0
575800 On ch=1 n=d#4 v=0
575800 On ch=1 n=c5 v=75
575804 On ch=1 n=d#5 v=0
575810 Par ch=1 c=64 v=0
575836 On ch=1 n=c5 v=0
575842 On ch=1 n=c4 v=0
575848 On ch=1 n=a#4 v=96
575860 On ch=1 n=d#5 v=88
575860 On ch=1 n=a#3 v=83
575864 On ch=1 n=d#6 v=88
575864 On ch=1 n=g#5 v=65
575868 On ch=1 n=c6 v=78
575886 Par ch=1 c=64 v=127
575908 On ch=1 n=d#5 v=0
575924 On ch=1 n=g#5 v=0
575936 On ch=1 n=c6 v=0
575962 On ch=1 n=d#5 v=71
575968 On ch=1 n=g#5 v=65
575972 On ch=1 n=c6 v=64
576014 On ch=1 n=d#5 v=0
576024 On ch=1 n=c6 v=0
576028 On ch=1 n=g#5 v=0
576072 On ch=1 n=c6 v=77
576072 On ch=1 n=g#5 v=65
576072 On ch=1 n=d#5 v=87
576116 On ch=1 n=d#5 v=0
576132 On ch=1 n=g#5 v=0
576136 On ch=1 n=a#4 v=0
576146 On ch=1 n=c6 v=0
576148 On ch=1 n=a#3 v=0
576152 On ch=1 n=c5 v=71
576152 On ch=1 n=c4 v=70
576196 On ch=1 n=d#6 v=0
576202 On ch=1 n=c5 v=0
576208 On ch=1 n=c4 v=0
576208 On ch=1 n=d#6 v=95
576208 On ch=1 n=g#5 v=72
576210 On ch=1 n=d#5 v=96
576214 On ch=1 n=a#3 v=86
576216 On ch=1 n=c6 v=77
576216 On ch=1 n=a#4 v=90
576250 On ch=1 n=g#5 v=0
576262 On ch=1 n=d#5 v=0
576268 On ch=1 n=c6 v=0
576312 On ch=1 n=c6 v=77
576312 On ch=1 n=g#5 v=80
576312 On ch=1 n=d#5 v=65
576364 On ch=1 n=g#5 v=0
576372 On ch=1 n=d#5 v=0
576388 On ch=1 n=c6 v=0
576432 On ch=1 n=f5 v=65
576438 On ch=1 n=d#6 v=0
576440 On ch=1 n=f6 v=95
576440 On ch=1 n=c6 v=82
576440 On ch=1 n=g#5 v=82
576486 On ch=1 n=c6 v=0
576488 On ch=1 n=g#5 v=0
576492 On ch=1 n=f5 v=0
576502 On ch=1 n=a#3 v=0
576504 On ch=1 n=a#4 v=0
576512 On ch=1 n=g#4 v=82
576514 On ch=1 n=f6 v=0
576520 On ch=1 n=g#3 v=78
576556 Par ch=1 c=64 v=0
576566 On ch=1 n=g#3 v=0
576566 On ch=1 n=g#4 v=0
576584 On ch=1 n=f#6 v=96
576600 On ch=1 n=f#5 v=96
576606 On ch=1 n=c6 v=82
576606 On ch=1 n=g#3 v=86
576606 On ch=1 n=g#2 v=86
576608 On ch=1 n=g#5 v=65
576622 Par ch=1 c=64 v=127
576662 On ch=1 n=c6 v=0
576662 On ch=1 n=f#5 v=0
576668 On ch=1 n=g#5 v=0
576720 On ch=1 n=g#5 v=65
576724 On ch=1 n=f#5 v=72
576734 On ch=1 n=c6 v=69
576770 On ch=1 n=f#5 v=0
576780 On ch=1 n=g#5 v=0
576784 On ch=1 n=c6 v=0
576840 On ch=1 n=g#5 v=65
576848 On ch=1 n=f#5 v=80
576854 On ch=1 n=c6 v=78
576894 On ch=1 n=g#2 v=0
576894 On ch=1 n=g#3 v=0
576900 On ch=1 n=f#5 v=0
576900 On ch=1 n=g#5 v=0
576904 On ch=1 n=d#3 v=65
576908 On ch=1 n=c6 v=0
576912 On ch=1 n=d#4 v=77
576916 On ch=1 n=f#6 v=0
576958 On ch=1 n=d#3 v=0
576966 On ch=1 n=d#4 v=0
576976 On ch=1 n=f#6 v=96
576976 On ch=1 n=g#5 v=65
576978 On ch=1 n=c6 v=83
576978 On ch=1 n=f#5 v=88
576980 On ch=1 n=g#3 v=93
576986 On ch=1 n=g#4 v=96
577034 On ch=1 n=c6 v=0
577036 On ch=1 n=g#5 v=0
577058 On ch=1 n=f#5 v=0
577084 On ch=1 n=f#5 v=64
577088 On ch=1 n=g#5 v=65
577090 On ch=1 n=c6 v=77
577138 On ch=1 n=c6 v=0
577148 On ch=1 n=g#5 v=0
577164 On ch=1 n=f#5 v=0
577224 On ch=1 n=g#5 v=65
577228 On ch=1 n=c6 v=82
577228 On ch=1 n=f#5 v=67
577268 On ch=1 n=g#3 v=0
577274 On ch=1 n=g#4 v=0
577280 On ch=1 n=c6 v=0
577280 On ch=1 n=d5 v=82
577280 On ch=1 n=d4 v=77
577284 On ch=1 n=g#5 v=0
577298 On ch=1 n=f#5 v=0
577328 On ch=1 n=d4 v=0
577330 On ch=1 n=d5 v=0
577350 On ch=1 n=d#5 v=88
577350 On ch=1 n=d#4 v=90
577360 On ch=1 n=g#5 v=65
577362 On ch=1 n=c6 v=83
577362 On ch=1 n=f#5 v=80
577416 On ch=1 n=c6 v=0
577420 On ch=1 n=g#5 v=0
577446 On ch=1 n=f#5 v=0
577474 On ch=1 n=c6 v=72
577474 On ch=1 n=f#5 v=69
577528 On ch=1 n=c6 v=0
577552 On ch=1 n=f#5 v=0
577592 On ch=1 n=c6 v=65
577596 On ch=1 n=f#5 v=67
577638 On ch=1 n=d#4 v=0
577638 On ch=1 n=d#5 v=0
577640 On ch=1 n=a#5 v=77
577640 On ch=1 n=a#4 v=77
577652 On ch=1 n=c6 v=0
577676 On ch=1 n=f#5 v=0
577688 On ch=1 n=a#5 v=0
577692 On ch=1 n=a#4 v=0
577718 On ch=1 n=g#5 v=112
577720 On ch=1 n=c6 v=71
577720 On ch=1 n=g#4 v=88
577724 On ch=1 n=f#5 v=65
577766 On ch=1 n=c6 v=0
577790 On ch=1 n=f#5 v=0
577832 On ch=1 n=f#5 v=75
577842 On ch=1 n=c6 v=67
577890 On ch=1 n=c6 v=0
577900 On ch=1 n=f#5 v=0
577960 On ch=1 n=f#5 v=65
577968 On ch=1 n=c6 v=69
578006 On ch=1 n=g#5 v=0
578008 On ch=1 n=g#4 v=0
578016 On ch=1 n=c6 v=0
578016 On ch=1 n=f5 v=80
578020 On ch=1 n=f#5 v=0
578024 On ch=1 n=f4 v=77
578026 On ch=1 n=f#6 v=0
578048 Par ch=1 c=64 v=0
578070 On ch=1 n=f5 v=0
578074 On ch=1 n=d#4 v=87
578076 On ch=1 n=f4 v=0
578080 On ch=1 n=f#6 v=96
578080 On ch=1 n=g#5 v=65
578080 On ch=1 n=d#5 v=96
578090 On ch=1 n=c6 v=71
578090 On ch=1 n=f#5 v=90
578116 Par ch=1 c=64 v=127
578128 On ch=1 n=f#5 v=0
578134 On ch=1 n=c6 v=0
578140 On ch=1 n=g#5 v=0
578184 On ch=1 n=g#5 v=65
578198 On ch=1 n=f#5 v=73
578206 On ch=1 n=c6 v=66
578244 On ch=1 n=c6 v=0
578244 On ch=1 n=g#5 v=0
578248 On ch=1 n=f#5 v=0
578320 On ch=1 n=g#5 v=65
578322 On ch=1 n=f#5 v=82
578332 On ch=1 n=c6 v=67
578362 On ch=1 n=d#4 v=0
578368 On ch=1 n=d#5 v=0
578368 On ch=1 n=f5 v=75
578372 On ch=1 n=c6 v=0
578376 On ch=1 n=f#5 v=0
578376 On ch=1 n=f4 v=75
578380 On ch=1 n=g#5 v=0
578412 On ch=1 n=f#6 v=0
578422 On ch=1 n=f5 v=0
578424 On ch=1 n=f4 v=0
578444 On ch=1 n=d#4 v=86
578448 On ch=1 n=f#6 v=96
578448 On ch=1 n=c#6 v=72
578448 On ch=1 n=d#5 v=108
578456 On ch=1 n=g#5 v=65
578456 On ch=1 n=f#5 v=93
578490 On ch=1 n=c#6 v=0
578516 On ch=1 n=g#5 v=0
578518 On ch=1 n=f#5 v=0
578560 On ch=1 n=c6 v=65
578560 On ch=1 n=g#5 v=65
578560 On ch=1 n=f#5 v=65
578620 On ch=1 n=f#5 v=0
578620 On ch=1 n=g#5 v=0
578620 On ch=1 n=c6 v=0
578680 On ch=1 n=f6 v=93
578680 On ch=1 n=g#5 v=82
578680 On ch=1 n=f5 v=82
578688 On ch=1 n=c#6 v=72
578698 On ch=1 n=f#6 v=0
578726 On ch=1 n=g#5 v=0
578728 On ch=1 n=f5 v=0
578730 On ch=1 n=c#6 v=0
578732 On ch=1 n=d#4 v=0
578736 On ch=1 n=d#5 v=0
578760 On ch=1 n=c#5 v=86
578760 On ch=1 n=c#4 v=75
578782 On ch=1 n=f6 v=0
578784 On ch=1 n=f5 v=77
578814 Par ch=1 c=64 v=0
578816 On ch=1 n=c#4 v=0
578822 On ch=1 n=c#5 v=0
578840 On ch=1 n=b3 v=60
578844 On ch=1 n=b4 v=66
578854 On ch=1 n=g#6 v=93
578858 On ch=1 n=f5 v=0
578860 On ch=1 n=d#6 v=87
578860 On ch=1 n=g#5 v=90
578882 Par ch=1 c=64 v=127
578910 On ch=1 n=g#5 v=0
578920 On ch=1 n=d#6 v=0
578972 On ch=1 n=g#5 v=80
578982 On ch=1 n=d#6 v=65
579018 On ch=1 n=d#6 v=0
579026 On ch=1 n=g#5 v=0
579100 On ch=1 n=d#6 v=83
579100 On ch=1 n=g#5 v=83
579106 On ch=1 n=b3 v=0
579128 On ch=1 n=b3 v=66
579128 On ch=1 n=b2 v=57
579132 On ch=1 n=b4 v=0
579144 On ch=1 n=d#6 v=0
579150 On ch=1 n=g#5 v=0
579184 Par ch=1 c=64 v=0
579186 On ch=1 n=g#6 v=0
579196 On ch=1 n=b2 v=0
579196 On ch=1 n=b3 v=0
579208 On ch=1 n=a#2 v=84
579220 On ch=1 n=g#6 v=96
579222 On ch=1 n=a#3 v=84
579228 On ch=1 n=g#5 v=94
579232 On ch=1 n=d6 v=77
579246 Par ch=1 c=64 v=127
579264 On ch=1 n=d6 v=0
579280 On ch=1 n=g#5 v=0
579340 On ch=1 n=g#5 v=65
579354 On ch=1 n=d6 v=71
579388 On ch=1 n=d6 v=0
579388 On ch=1 n=g#5 v=0
579468 On ch=1 n=g#5 v=83
579472 On ch=1 n=d6 v=78
579496 On ch=1 n=a#2 v=0
579510 On ch=1 n=a#3 v=0
579518 On ch=1 n=g#5 v=0
579520 On ch=1 n=f4 v=77
579520 On ch=1 n=f3 v=78
579522 On ch=1 n=d6 v=0
579588 On ch=1 n=f3 v=0
579588 On ch=1 n=f4 v=0
579590 On ch=1 n=a#3 v=93
579596 On ch=1 n=a#4 v=96
579602 On ch=1 n=g#5 v=90
579608 On ch=1 n=d6 v=78
579644 On ch=1 n=g#5 v=0
579646 On ch=1 n=d6 v=0
579704 On ch=1 n=d6 v=80
579714 On ch=1 n=g#5 v=82
579750 On ch=1 n=g#5 v=0
579754 On ch=1 n=d6 v=0
579840 On ch=1 n=g#5 v=64
579844 On ch=1 n=d6 v=71
579878 On ch=1 n=a#3 v=0
579884 On ch=1 n=a#4 v=0
579888 On ch=1 n=c5 v=77
579892 On ch=1 n=d6 v=0
579896 On ch=1 n=c6 v=81
579904 On ch=1 n=g#5 v=0
579942 Par ch=1 c=64 v=0
579944 On ch=1 n=c5 v=0
579948 On ch=1 n=c6 v=0
579962 On ch=1 n=a#5 v=108
579964 On ch=1 n=a#4 v=93
579968 On ch=1 n=g#5 v=83
579976 On ch=1 n=d6 v=77
579982 Par ch=1 c=64 v=127
580032 On ch=1 n=d6 v=0
580044 On ch=1 n=g#5 v=0
580072 On ch=1 n=g#5 v=52
580094 On ch=1 n=d6 v=69
580142 On ch=1 n=g#5 v=0
580146 On ch=1 n=d6 v=0
580192 On ch=1 n=g#5 v=82
580216 On ch=1 n=d6 v=71
580250 On ch=1 n=a#5 v=0
580252 On ch=1 n=a#4 v=0
580264 On ch=1 n=d6 v=0
580264 On ch=1 n=g#5 v=0
580264 On ch=1 n=g5 v=86
580264 On ch=1 n=g4 v=71
580268 On ch=1 n=g#6 v=0
580318 Par ch=1 c=64 v=0
580320 On ch=1 n=g5 v=0
580326 On ch=1 n=g4 v=0
580336 On ch=1 n=g#6 v=96
580344 On ch=1 n=f5 v=94
580344 On ch=1 n=f4 v=82
580346 On ch=1 n=d6 v=77
580352 On ch=1 n=a#5 v=77
580356 On ch=1 n=g#5 v=82
580386 Par ch=1 c=64 v=127
580402 On ch=1 n=d6 v=0
580418 On ch=1 n=g#5 v=0
580430 On ch=1 n=a#5 v=0
580432 On ch=1 n=d6 v=44
580448 On ch=1 n=a#5 v=71
580456 On ch=1 n=g#5 v=82
580494 On ch=1 n=d6 v=0
580502 On ch=1 n=g#5 v=0
580518 On ch=1 n=a#5 v=0
580560 On ch=1 n=d6 v=71
580560 On ch=1 n=g#5 v=65
580568 On ch=1 n=a#5 v=65
580598 On ch=1 n=d6 v=0
580620 On ch=1 n=g#5 v=0
580628 On ch=1 n=a#5 v=0
580632 On ch=1 n=f4 v=0
580632 On ch=1 n=f5 v=0
580640 On ch=1 n=g5 v=94
580640 On ch=1 n=g4 v=62
580668 On ch=1 n=g#6 v=0
580694 On ch=1 n=g4 v=0
580702 On ch=1 n=g5 v=0
580704 On ch=1 n=a#5 v=65
580712 On ch=1 n=g#6 v=96
580712 On ch=1 n=d#6 v=83
580720 On ch=1 n=g#5 v=87
580724 On ch=1 n=f4 v=79
580726 On ch=1 n=f5 v=92
580764 On ch=1 n=a#5 v=0
580772 On ch=1 n=g#5 v=0
580778 On ch=1 n=d#6 v=0
580832 On ch=1 n=d#6 v=63
580840 On ch=1 n=a#5 v=65
580846 On ch=1 n=g#5 v=77
580894 On ch=1 n=d#6 v=0
580900 On ch=1 n=a#5 v=0
580910 On ch=1 n=g#5 v=0
580962 On ch=1 n=g#6 v=0
580976 On ch=1 n=a#5 v=72
580984 On ch=1 n=g5 v=71
580992 On ch=1 n=g6 v=97
580992 On ch=1 n=d#6 v=72
581012 On ch=1 n=f4 v=0
581014 On ch=1 n=f5 v=0
581030 On ch=1 n=a#5 v=0
581034 On ch=1 n=d#6 v=0
581034 On ch=1 n=g5 v=0
581048 On ch=1 n=d#5 v=82
581048 On ch=1 n=d#4 v=75
581094 Par ch=1 c=64 v=0
581104 On ch=1 n=d#4 v=0
581104 On ch=1 n=d#5 v=0
581108 On ch=1 n=g6 v=0
581120 On ch=1 n=c#4 v=72
581128 On ch=1 n=c#5 v=75
581136 On ch=1 n=f6 v=95
581140 On ch=1 n=a#5 v=83
581148 On ch=1 n=g5 v=82
581164 Par ch=1 c=64 v=127
581188 On ch=1 n=g5 v=0
581190 On ch=1 n=a#5 v=0
581266 On ch=1 n=g5 v=72
581272 On ch=1 n=a#5 v=59
581318 On ch=1 n=g5 v=0
581334 On ch=1 n=a#5 v=0
581386 On ch=1 n=f6 v=0
581392 On ch=1 n=g6 v=97
581392 On ch=1 n=g5 v=65
581400 On ch=1 n=a#5 v=67
581408 On ch=1 n=c#4 v=0
581416 On ch=1 n=c#5 v=0
581448 On ch=1 n=d#4 v=62
581452 On ch=1 n=g5 v=0
581456 On ch=1 n=d#5 v=73
581462 On ch=1 n=a#5 v=0
581500 On ch=1 n=d#5 v=0
581504 On ch=1 n=d#4 v=0
581506 On ch=1 n=g6 v=0
581524 On ch=1 n=f6 v=100
581528 On ch=1 n=a#5 v=90
581528 On ch=1 n=g5 v=83
581534 On ch=1 n=c#5 v=84
581540 On ch=1 n=c#4 v=72
581562 On ch=1 n=g5 v=0
581566 On ch=1 n=a#5 v=0
581664 On ch=1 n=a#5 v=65
581666 On ch=1 n=g5 v=72
581716 On ch=1 n=g5 v=0
581724 On ch=1 n=a#5 v=0
581774 On ch=1 n=f6 v=0
581784 On ch=1 n=a#5 v=65
581784 On ch=1 n=g5 v=82
581788 On ch=1 n=d#6 v=101
581822 On ch=1 n=c#5 v=0
581824 On ch=1 n=g5 v=0
581828 On ch=1 n=c#4 v=0
581840 On ch=1 n=c#4 v=75
581840 On ch=1 n=c#3 v=67
581844 On ch=1 n=a#5 v=0
581876 Par ch=1 c=64 v=0
581890 On ch=1 n=d#6 v=0
581904 On ch=1 n=c#3 v=0
581904 On ch=1 n=c#4 v=0
581922 On ch=1 n=g#6 v=96
581926 On ch=1 n=c4 v=73
581930 On ch=1 n=c3 v=68
581934 On ch=1 n=d#6 v=90
581940 On ch=1 n=g#5 v=88
581950 Par ch=1 c=64 v=127
581996 On ch=1 n=d#6 v=0
582002 On ch=1 n=g#5 v=0
582048 On ch=1 n=d#6 v=69
582062 On ch=1 n=g#5 v=78
582100 On ch=1 n=d#6 v=0
582124 On ch=1 n=g#5 v=0
582172 On ch=1 n=g#6 v=0
582186 On ch=1 n=d#6 v=96
582192 On ch=1 n=d#5 v=65
582196 On ch=1 n=g#5 v=77
582214 On ch=1 n=c4 v=0
582218 On ch=1 n=c3 v=0
582248 On ch=1 n=g#5 v=0
582254 On ch=1 n=d#5 v=0
582264 On ch=1 n=c5 v=72
582264 On ch=1 n=c4 v=62
582308 On ch=1 n=d#6 v=0
582316 On ch=1 n=c5 v=0
582322 On ch=1 n=c4 v=0
582326 Par ch=1 c=64 v=0
582330 On ch=1 n=c#6 v=96
582330 On ch=1 n=c4 v=73
582340 On ch=1 n=g#5 v=82
582340 On ch=1 n=f5 v=83
582340 On ch=1 n=c5 v=72
582356 Par ch=1 c=64 v=127
582388 On ch=1 n=g#5 v=0
582402 On ch=1 n=f5 v=0
582462 On ch=1 n=f5 v=79
582464 On ch=1 n=g#5 v=65
582524 On ch=1 n=g#5 v=0
582532 On ch=1 n=f5 v=0
582580 On ch=1 n=c#6 v=0
582596 On ch=1 n=d#6 v=96
582602 On ch=1 n=g#5 v=83
582608 On ch=1 n=f5 v=82
582618 On ch=1 n=c4 v=0
582628 On ch=1 n=c5 v=0
582644 On ch=1 n=g#5 v=0
582648 On ch=1 n=c3 v=68
582656 On ch=1 n=c4 v=73
582670 On ch=1 n=f5 v=0
582680 On ch=1 n=d#6 v=0
582696 On ch=1 n=c3 v=0
582720 On ch=1 n=c4 v=0
582728 On ch=1 n=g#5 v=65
582732 On ch=1 n=c#6 v=96
582732 On ch=1 n=a#2 v=72
582736 On ch=1 n=a#3 v=84
582738 On ch=1 n=e5 v=93
582788 On ch=1 n=g#5 v=0
582790 On ch=1 n=e5 v=0
582864 On ch=1 n=g#5 v=65
582864 On ch=1 n=e5 v=78
582924 On ch=1 n=g#5 v=0
582928 On ch=1 n=e5 v=0
582982 On ch=1 n=c#6 v=0
583020 On ch=1 n=a#2 v=0
583024 On ch=1 n=a#3 v=0
583024 On ch=1 n=c6 v=96
583024 On ch=1 n=g5 v=65
583032 On ch=1 n=e5 v=78
583082 On ch=1 n=e5 v=0
583084 On ch=1 n=g5 v=0
583088 On ch=1 n=a#4 v=86
583088 On ch=1 n=a#3 v=73
583102 On ch=1 n=c6 v=0
583132 On ch=1 n=a#4 v=0
583138 On ch=1 n=a#3 v=0
583164 Par ch=1 c=64 v=0
583168 On ch=1 n=g#4 v=77
583168 On ch=1 n=g#3 v=77
583174 On ch=1 n=f6 v=97
583174 On ch=1 n=c6 v=75
583184 On ch=1 n=f5 v=78
583226 Par ch=1 c=64 v=127
583234 On ch=1 n=f5 v=0
583278 On ch=1 n=c6 v=0
583304 On ch=1 n=f5 v=65
583310 On ch=1 n=c6 v=83
583362 On ch=1 n=c6 v=0
583364 On ch=1 n=f5 v=0
583440 On ch=1 n=f6 v=0
583456 On ch=1 n=g#3 v=0
583456 On ch=1 n=g#4 v=0
583456 On ch=1 n=c6 v=103
583456 On ch=1 n=f5 v=78
583460 On ch=1 n=c5 v=83
583492 On ch=1 n=c5 v=0
583504 On ch=1 n=f5 v=0
583544 On ch=1 n=g#3 v=67
583544 On ch=1 n=g#2 v=68
583558 On ch=1 n=c6 v=0
583578 Par ch=1 c=64 v=0
583588 On ch=1 n=g#3 v=0
583598 On ch=1 n=g#2 v=0
583622 On ch=1 n=f5 v=78
583626 On ch=1 n=c6 v=103
583626 On ch=1 n=c#3 v=70
583628 On ch=1 n=c5 v=83
583628 On ch=1 n=c#4 v=70
583642 Par ch=1 c=64 v=127
583670 On ch=1 n=c5 v=0
583700 On ch=1 n=f5 v=0
583760 On ch=1 n=f5 v=65
583762 On ch=1 n=c5 v=82
583812 On ch=1 n=c5 v=0
583820 On ch=1 n=f5 v=0
583892 On ch=1 n=c6 v=0
583892 On ch=1 n=a#5 v=88
583896 On ch=1 n=f5 v=77
583896 On ch=1 n=a#4 v=65
583914 On ch=1 n=c#3 v=0
583916 On ch=1 n=c#4 v=0
583936 On ch=1 n=f4 v=63
583936 On ch=1 n=f3 v=63
583950 On ch=1 n=f5 v=0
583956 On ch=1 n=a#4 v=0
583980 On ch=1 n=f3 v=0
583994 On ch=1 n=a#5 v=0
583996 On ch=1 n=f4 v=0
583996 Par ch=1 c=64 v=0
584030 On ch=1 n=c#6 v=117
584030 On ch=1 n=a3 v=67
584032 On ch=1 n=a2 v=62
584036 On ch=1 n=f5 v=78
584042 On ch=1 n=c#5 v=87
584050 Par ch=1 c=64 v=127
584090 On ch=1 n=f5 v=0
584104 On ch=1 n=c#5 v=0
584160 On ch=1 n=c#5 v=90
584224 On ch=1 n=c#5 v=0
584296 On ch=1 n=c#6 v=0
584296 On ch=1 n=c5 v=77
584300 On ch=1 n=c6 v=97
584306 On ch=1 n=f5 v=77
584318 On ch=1 n=a3 v=0
584320 On ch=1 n=a2 v=0
584346 On ch=1 n=c5 v=0
584358 On ch=1 n=f5 v=0
584360 On ch=1 n=f3 v=62
584368 On ch=1 n=f4 v=68
584402 On ch=1 n=c6 v=0
584418 Par ch=1 c=64 v=0
584424 On ch=1 n=f3 v=0
584432 On ch=1 n=f4 v=0
584456 On ch=1 n=f5 v=75
584462 On ch=1 n=d#6 v=97
584462 On ch=1 n=a#2 v=77
584470 On ch=1 n=d#5 v=82
584470 On ch=1 n=a#3 v=88
584480 Par ch=1 c=64 v=127
584516 On ch=1 n=f5 v=0
584532 On ch=1 n=d#5 v=0
584576 On ch=1 n=c#6 v=87
584584 On ch=1 n=f5 v=65
584584 On ch=1 n=d#5 v=65
584614 On ch=1 n=d#6 v=0
584644 On ch=1 n=f5 v=0
584650 On ch=1 n=d#5 v=0
584728 On ch=1 n=g#5 v=74
584730 On ch=1 n=c#6 v=0
584736 On ch=1 n=f5 v=65
584736 On ch=1 n=c#5 v=83
584750 On ch=1 n=a#2 v=0
584758 On ch=1 n=a#3 v=0
584790 On ch=1 n=c#5 v=0
584796 On ch=1 n=f5 v=0
584824 On ch=1 n=f3 v=57
584830 On ch=1 n=g#5 v=0
584832 On ch=1 n=f4 v=67
584870 On ch=1 n=f3 v=0
584878 On ch=1 n=f4 v=0
584894 Par ch=1 c=64 v=0
584920 On ch=1 n=c6 v=95
584922 On ch=1 n=g#5 v=82
584928 On ch=1 n=d#5 v=82
584934 On ch=1 n=d#2 v=68
584936 On ch=1 n=c5 v=80
584936 On ch=1 n=d#3 v=77
584952 Par ch=1 c=64 v=127
584974 On ch=1 n=d#5 v=0
584978 On ch=1 n=c5 v=0
585004 On ch=1 n=g#5 v=0
585080 On ch=1 n=g#5 v=77
585080 On ch=1 n=c5 v=79
585092 On ch=1 n=d#5 v=82
585132 On ch=1 n=c5 v=0
585138 On ch=1 n=d#5 v=0
585154 On ch=1 n=g#5 v=0
585222 On ch=1 n=d#2 v=0
585224 On ch=1 n=d#3 v=0
585230 On ch=1 n=c5 v=82
585232 On ch=1 n=d#5 v=72
585234 On ch=1 n=g#5 v=87
585274 On ch=1 n=d#5 v=0
585278 On ch=1 n=c5 v=0
585296 On ch=1 n=d#4 v=73
585300 On ch=1 n=g#5 v=0
585304 On ch=1 n=d#3 v=57
585358 On ch=1 n=d#4 v=0
585366 On ch=1 n=d#3 v=0
585392 On ch=1 n=f4 v=69
585392 On ch=1 n=f3 v=57
585400 On ch=1 n=g#5 v=82
585400 On ch=1 n=d5 v=87
585458 On ch=1 n=d5 v=0
585474 On ch=1 n=g#5 v=0
585550 On ch=1 n=g#5 v=78
585556 On ch=1 n=d5 v=78
585602 On ch=1 n=d5 v=0
585608 On ch=1 n=g#5 v=0
585670 On ch=1 n=f4 v=0
585680 On ch=1 n=f3 v=0
585686 On ch=1 n=c6 v=0
585696 On ch=1 n=g#5 v=82
585700 On ch=1 n=d5 v=82
585752 On ch=1 n=d5 v=0
585762 On ch=1 n=g#5 v=0
585776 On ch=1 n=d#4 v=68
585776 On ch=1 n=d#3 v=57
585804 Par ch=1 c=64 v=0
585838 On ch=1 n=d#3 v=0
585838 On ch=1 n=d#4 v=0
585840 On ch=1 n=c6 v=100
585848 On ch=1 n=d#5 v=77
585848 On ch=1 n=g4 v=67
585848 On ch=1 n=g3 v=57
585852 On ch=1 n=c#5 v=93
585878 Par ch=1 c=64 v=127
585902 On ch=1 n=c#5 v=0
585912 On ch=1 n=d#5 v=0
586004 On ch=1 n=c#5 v=78
586018 On ch=1 n=d#5 v=73
586068 On ch=1 n=d#5 v=0
586070 On ch=1 n=c#5 v=0
586172 On ch=1 n=c6 v=0
586184 On ch=1 n=a#5 v=95
586184 On ch=1 n=d#5 v=77
586186 On ch=1 n=c#5 v=93
586202 On ch=1 n=g3 v=0
586202 On ch=1 n=g4 v=0
586256 On ch=1 n=c#5 v=0
586258 On ch=1 n=d#5 v=0
586312 On ch=1 n=d#3 v=57
586320 On ch=1 n=d#4 v=62
586358 Par ch=1 c=64 v=0
586374 On ch=1 n=d#3 v=0
586382 On ch=1 n=d#4 v=0
586382 On ch=1 n=a#5 v=0
586386 On ch=1 n=g#5 v=80
586392 On ch=1 n=c5 v=78
586396 On ch=1 n=d#5 v=77
586396 On ch=1 n=g#3 v=68
586396 On ch=1 n=g#2 v=72
586430 Par ch=1 c=64 v=127
586488 On ch=1 n=g#5 v=0
586494 On ch=1 n=c5 v=0
586498 On ch=1 n=d#5 v=0
586684 On ch=1 n=g#2 v=0
586684 On ch=1 n=g#3 v=0
586684 On ch=1 n=d#6 v=68
586686 On ch=1 n=d#5 v=66
586686 On ch=1 n=d#3 v=62
586690 On ch=1 n=d#4 v=62
586730 On ch=1 n=d#3 v=0
586730 On ch=1 n=d#5 v=0
586732 On ch=1 n=d#4 v=0
586748 On ch=1 n=d#6 v=0
586810 Par ch=1 c=64 v=0
586836 On ch=1 n=g#3 v=73
586838 On ch=1 n=g#6 v=72
586846 On ch=1 n=g#5 v=62
586846 On ch=1 n=g#4 v=70
586872 Par ch=1 c=64 v=127
586888 On ch=1 n=g#5 v=0
586972 On ch=1 n=g#5 v=62
587014 On ch=1 n=g#5 v=0
587082 On ch=1 n=a#3 v=66
587088 On ch=1 n=a#4 v=62
587094 On ch=1 n=a#5 v=62
587096 On ch=1 n=a#6 v=62
587102 On ch=1 n=g#3 v=0
587104 On ch=1 n=g#6 v=0
587112 On ch=1 n=g#4 v=0
587134 On ch=1 n=a#3 v=0
587138 On ch=1 n=a#5 v=0
587140 On ch=1 n=a#6 v=0
587140 On ch=1 n=a#4 v=0
587216 Par ch=1 c=64 v=0
587236 On ch=1 n=c4 v=67
587240 On ch=1 n=c6 v=73
587246 On ch=1 n=c7 v=68
587246 On ch=1 n=c5 v=72
587268 Par ch=1 c=64 v=127
587288 On ch=1 n=c6 v=0
587358 On ch=1 n=c6 v=62
587404 On ch=1 n=c6 v=0
587480 On ch=1 n=f4 v=62
587486 On ch=1 n=f5 v=62
587496 On ch=1 n=f6 v=72
587500 On ch=1 n=f7 v=73
587502 On ch=1 n=c4 v=0
587512 On ch=1 n=c5 v=0
587512 On ch=1 n=c7 v=0
587524 On ch=1 n=f4 v=0
587534 On ch=1 n=f5 v=0
587536 On ch=1 n=f6 v=0
587566 On ch=1 n=f7 v=0
587602 Par ch=1 c=64 v=0
587614 On ch=1 n=d#5 v=75
587616 On ch=1 n=d#4 v=73
587622 On ch=1 n=d#6 v=66
587632 On ch=1 n=d#7 v=66
587642 Par ch=1 c=64 v=127
587672 On ch=1 n=d#6 v=0
587730 On ch=1 n=d#6 v=66
587770 On ch=1 n=d#6 v=0
587834 Par ch=1 c=64 v=0
587850 On ch=1 n=g4 v=62
587858 On ch=1 n=g5 v=70
587864 On ch=1 n=g6 v=72
587870 On ch=1 n=g7 v=63
587880 On ch=1 n=d#5 v=0
587882 On ch=1 n=d#4 v=0
587898 On ch=1 n=d#7 v=0
587906 Par ch=1 c=64 v=127
587914 On ch=1 n=g6 v=0
587914 On ch=1 n=g4 v=0
587922 On ch=1 n=g5 v=0
587926 On ch=1 n=g7 v=0
587996 On ch=1 n=g#4 v=77
588002 On ch=1 n=g#5 v=82
588008 On ch=1 n=g#7 v=79
588018 On ch=1 n=g#6 v=67
588058 On ch=1 n=g#6 v=0
588118 On ch=1 n=g#6 v=67
588158 On ch=1 n=g#6 v=0
588248 On ch=1 n=a#7 v=83
588248 On ch=1 n=a#5 v=75
588248 On ch=1 n=a#4 v=57
588256 On ch=1 n=a#6 v=70
588262 On ch=1 n=g#4 v=0
588268 On ch=1 n=g#5 v=0
588274 On ch=1 n=g#7 v=0
588292 On ch=1 n=a#7 v=0
588296 On ch=1 n=a#6 v=0
588302 On ch=1 n=a#4 v=0
588302 On ch=1 n=a#5 v=0
588368 On ch=1 n=c8 v=73
588372 On ch=1 n=c7 v=72
588380 On ch=1 n=c6 v=73
588380 On ch=1 n=c5 v=63
588418 On ch=1 n=c7 v=0
588470 On ch=1 n=c7 v=72
588512 On ch=1 n=c7 v=0
588576 Par ch=1 c=64 v=0
588600 On ch=1 n=f5 v=67
588608 Par ch=1 c=64 v=127
588616 On ch=1 n=f8 v=73
588616 On ch=1 n=f6 v=73
588618 On ch=1 n=f7 v=75
588634 On ch=1 n=c8 v=0
588646 On ch=1 n=c5 v=0
588646 On ch=1 n=c6 v=0
588652 On ch=1 n=f6 v=0
588652 On ch=1 n=f5 v=0
588668 On ch=1 n=f8 v=0
588670 On ch=1 n=f7 v=0
588732 On ch=1 n=d#5 v=73
588736 On ch=1 n=d#8 v=89
588736 On ch=1 n=d#7 v=75
588736 On ch=1 n=d#6 v=84
588778 On ch=1 n=d#7 v=0
588840 On ch=1 n=d#7 v=75
588868 On ch=1 n=d#7 v=0
588950 On ch=1 n=c5 v=70
588964 On ch=1 n=c8 v=93
588964 On ch=1 n=c6 v=72
588968 On ch=1 n=c7 v=66
588998 On ch=1 n=d#5 v=0
589002 On ch=1 n=d#6 v=0
589002 On ch=1 n=d#8 v=0
589006 On ch=1 n=c5 v=0
589008 On ch=1 n=c7 v=0
589010 On ch=1 n=c6 v=0
589024 On ch=1 n=c8 v=0
589088 On ch=1 n=a#7 v=87
589088 On ch=1 n=a#5 v=79
589094 On ch=1 n=a#6 v=81
589098 On ch=1 n=a#4 v=75
589124 On ch=1 n=a#6 v=0
589178 On ch=1 n=a#6 v=62
589228 On ch=1 n=a#6 v=0
589302 On ch=1 n=c6 v=76
589304 Par ch=1 c=64 v=0
589312 On ch=1 n=c8 v=79
589312 On ch=1 n=c7 v=68
589314 On ch=1 n=c5 v=67
589344 Par ch=1 c=64 v=127
589352 On ch=1 n=c7 v=0
589352 On ch=1 n=c6 v=0
589354 On ch=1 n=a#5 v=0
589354 On ch=1 n=a#7 v=0
589364 On ch=1 n=c5 v=0
589364 On ch=1 n=a#4 v=0
589368 On ch=1 n=c8 v=0
589432 On ch=1 n=a#5 v=73
589432 On ch=1 n=a#4 v=73
589436 On ch=1 n=a#7 v=87
589442 On ch=1 n=a#6 v=73
589484 On ch=1 n=a#6 v=0
589552 On ch=1 n=a#6 v=73
589590 On ch=1 n=a#6 v=0
589666 On ch=1 n=g#4 v=70
589672 On ch=1 n=g#6 v=70
589672 On ch=1 n=g#5 v=70
589682 On ch=1 n=g#7 v=83
589698 On ch=1 n=a#4 v=0
589698 On ch=1 n=a#5 v=0
589702 On ch=1 n=a#7 v=0
589710 On ch=1 n=g#6 v=0
589714 On ch=1 n=g#4 v=0
589716 On ch=1 n=g#5 v=0
589732 On ch=1 n=g#7 v=0
589802 On ch=1 n=f6 v=73
589802 On ch=1 n=f5 v=73
589802 On ch=1 n=f4 v=68
589808 On ch=1 n=f7 v=72
589846 On ch=1 n=f6 v=0
589918 On ch=1 n=f6 v=51
589954 On ch=1 n=f6 v=0
590028 On ch=1 n=d#4 v=73
590032 On ch=1 n=d#5 v=68
590042 On ch=1 n=d#7 v=75
590048 On ch=1 n=d#6 v=84
590068 On ch=1 n=f4 v=0
590068 On ch=1 n=f5 v=0
590074 On ch=1 n=d#5 v=0
590074 On ch=1 n=f7 v=0
590078 On ch=1 n=d#6 v=0
590078 On ch=1 n=d#4 v=0
590088 On ch=1 n=d#7 v=0
590152 On ch=1 n=c4 v=62
590160 On ch=1 n=c7 v=39
590162 On ch=1 n=c5 v=73
590166 On ch=1 n=c6 v=77
590218 On ch=1 n=c6 v=0
590278 On ch=1 n=c6 v=48
590314 On ch=1 n=c6 v=0
590384 On ch=1 n=g#3 v=57
590392 On ch=1 n=g#6 v=75
590392 On ch=1 n=g#5 v=75
590392 On ch=1 n=g#4 v=76
590410 On ch=1 n=c5 v=0
590418 On ch=1 n=c4 v=0
590426 On ch=1 n=c7 v=0
590432 On ch=1 n=g#5 v=0
590436 On ch=1 n=g#3 v=0
590444 On ch=1 n=g#4 v=0
590444 On ch=1 n=g#6 v=0
590516 On ch=1 n=f4 v=68
590520 On ch=1 n=f6 v=70
590520 On ch=1 n=f5 v=72
590520 On ch=1 n=f3 v=57
590546 On ch=1 n=f5 v=0
590606 On ch=1 n=f5 v=72
590658 On ch=1 n=f5 v=0
590728 On ch=1 n=c2 v=57
590734 On ch=1 n=c3 v=63
590736 On ch=1 n=c5 v=63
590736 On ch=1 n=c4 v=70
590782 On ch=1 n=c2 v=0
590782 On ch=1 n=f4 v=0
590784 On ch=1 n=c3 v=0
590786 On ch=1 n=c5 v=0
590786 On ch=1 n=f3 v=0
590786 On ch=1 n=f6 v=0
590790 On ch=1 n=c4 v=0
590864 Par ch=1 c=64 v=0
590872 On ch=1 n=d#5 v=89
590880 On ch=1 n=d#4 v=89
590880 On ch=1 n=d#3 v=89
590880 On ch=1 n=d#2 v=89
590942 Par ch=1 c=64 v=127
591192 On ch=1 n=g5 v=85
591200 On ch=1 n=d#5 v=0
591208 On ch=1 n=d#2 v=0
591208 On ch=1 n=d#3 v=0
591208 On ch=1 n=d#4 v=0
591288 On ch=1 n=g5 v=0
591294 Par ch=1 c=64 v=0
591336 On ch=1 n=a#5 v=89
591336 On ch=1 n=a#4 v=68
591338 On ch=1 n=c#5 v=79
591344 On ch=1 n=g5 v=61
591344 On ch=1 n=d#4 v=78
591374 Par ch=1 c=64 v=127
591398 On ch=1 n=g5 v=0
591442 On ch=1 n=g5 v=70
591522 On ch=1 n=g5 v=0
591534 On ch=1 n=a#4 v=0
591536 On ch=1 n=c#5 v=0
591542 On ch=1 n=d#4 v=0
591552 On ch=1 n=a#4 v=68
591552 On ch=1 n=d#4 v=67
591556 On ch=1 n=c#5 v=73
591562 On ch=1 n=c6 v=76
591562 On ch=1 n=g5 v=81
591566 On ch=1 n=a#5 v=0
591606 On ch=1 n=d#4 v=0
591612 On ch=1 n=a#4 v=0
591618 On ch=1 n=c6 v=0
591622 On ch=1 n=g5 v=0
591622 On ch=1 n=c#5 v=0
591662 On ch=1 n=c#6 v=85
591668 On ch=1 n=g5 v=66
591674 On ch=1 n=c#5 v=79
591680 On ch=1 n=a#4 v=68
591682 On ch=1 n=d#4 v=71
591722 On ch=1 n=g5 v=0
591782 On ch=1 n=g5 v=73
591842 On ch=1 n=g5 v=0
591872 On ch=1 n=c#5 v=0
591878 On ch=1 n=a#4 v=0
591880 On ch=1 n=d#4 v=0
591892 On ch=1 n=c#6 v=0
591894 On ch=1 n=g5 v=81
591898 On ch=1 n=f6 v=83
591902 On ch=1 n=c#5 v=72
591902 On ch=1 n=d#4 v=68
591950 On ch=1 n=d#4 v=0
591952 On ch=1 n=g5 v=0
591960 On ch=1 n=f6 v=0
591964 On ch=1 n=c#5 v=0
592004 On ch=1 n=d#6 v=87
592014 On ch=1 n=g#5 v=83
592024 On ch=1 n=c5 v=77
592030 On ch=1 n=d#4 v=62
592060 On ch=1 n=g#5 v=0
592128 On ch=1 n=d#5 v=74
592186 On ch=1 n=d#5 v=0
592222 On ch=1 n=c5 v=0
592226 On ch=1 n=c6 v=62
592228 On ch=1 n=d#4 v=0
592232 On ch=1 n=d#5 v=63
592234 On ch=1 n=d#6 v=0
592244 On ch=1 n=c5 v=70
592252 On ch=1 n=d#4 v=63
592292 On ch=1 n=d#5 v=0
592296 On ch=1 n=c6 v=0
592304 On ch=1 n=d#4 v=0
592312 On ch=1 n=c5 v=0
592366 On ch=1 n=d#4 v=64
592370 On ch=1 n=c5 v=73
592376 On ch=1 n=a#5 v=76
592376 On ch=1 n=d#5 v=73
592410 On ch=1 n=d#5 v=0
592486 On ch=1 n=d#5 v=64
592536 On ch=1 n=d#5 v=0
592564 On ch=1 n=d#4 v=0
592568 On ch=1 n=c5 v=0
592606 On ch=1 n=a#5 v=0
592606 On ch=1 n=c6 v=73
592606 On ch=1 n=d#5 v=63
592616 On ch=1 n=c5 v=63
592616 On ch=1 n=d#4 v=59
592658 On ch=1 n=d#5 v=0
592670 On ch=1 n=d#4 v=0
592676 On ch=1 n=c5 v=0
592676 On ch=1 n=c6 v=0
592730 On ch=1 n=a#5 v=71
592732 On ch=1 n=d#5 v=59
592746 On ch=1 n=c5 v=62
592746 On ch=1 n=d#4 v=59
592786 On ch=1 n=d#5 v=0
592854 On ch=1 n=d#5 v=59
592912 On ch=1 n=d#5 v=0
592944 On ch=1 n=d#4 v=0
592944 On ch=1 n=c5 v=0
592960 On ch=1 n=a#5 v=0
592962 On ch=1 n=d#4 v=59
592968 On ch=1 n=g#5 v=66
592976 On ch=1 n=c5 v=55
592978 On ch=1 n=d#5 v=60
593002 On ch=1 n=d#4 v=0
593006 On ch=1 n=g#5 v=0
593008 On ch=1 n=c5 v=0
593010 On ch=1 n=d#5 v=0
593134 Par ch=1 c=64 v=0
593144 On ch=1 n=d#2 v=89
593158 On ch=1 n=d#5 v=89
593162 On ch=1 n=d#3 v=89
593168 On ch=1 n=d#4 v=89
593214 Par ch=1 c=64 v=127
593410 On ch=1 n=d#2 v=0
593424 On ch=1 n=d#5 v=0
593428 On ch=1 n=d#3 v=0
593434 On ch=1 n=d#4 v=0
593436 On ch=1 n=g5 v=89
593504 On ch=1 n=g5 v=0
593556 On ch=1 n=a#5 v=89
593560 On ch=1 n=g5 v=75
593560 On ch=1 n=c#5 v=89
593560 On ch=1 n=a#4 v=68
593560 On ch=1 n=d#4 v=73
593630 On ch=1 n=g5 v=0
593672 On ch=1 n=g5 v=75
593738 On ch=1 n=g5 v=0
593758 On ch=1 n=d#4 v=0
593758 On ch=1 n=a#4 v=0
593758 On ch=1 n=c#5 v=0
593780 On ch=1 n=c6 v=93
593786 On ch=1 n=a#5 v=0
593788 On ch=1 n=d#4 v=72
593792 On ch=1 n=g5 v=81
593792 On ch=1 n=c#5 v=87
593792 On ch=1 n=a#4 v=68
593842 On ch=1 n=d#4 v=0
593842 On ch=1 n=c6 v=0
593848 On ch=1 n=g5 v=0
593852 On ch=1 n=a#4 v=0
593852 On ch=1 n=c#5 v=0
593904 On ch=1 n=g5 v=64
593906 On ch=1 n=c#6 v=89
593920 On ch=1 n=c#5 v=83
593920 On ch=1 n=a#4 v=68
593926 On ch=1 n=d#4 v=73
593958 On ch=1 n=g5 v=0
594024 On ch=1 n=g5 v=83
594088 On ch=1 n=g5 v=0
594118 On ch=1 n=a#4 v=0
594118 On ch=1 n=c#5 v=0
594124 On ch=1 n=d#4 v=0
594136 On ch=1 n=c#6 v=0
594140 On ch=1 n=f6 v=91
594144 On ch=1 n=g5 v=72
594144 On ch=1 n=c#5 v=69
594152 On ch=1 n=d#4 v=65
594194 On ch=1 n=g5 v=0
594200 On ch=1 n=d#4 v=0
594210 On ch=1 n=c#5 v=0
594214 On ch=1 n=f6 v=0
594258 On ch=1 n=d#6 v=86
594270 On ch=1 n=g#5 v=70
594274 On ch=1 n=c5 v=73
594282 On ch=1 n=d#4 v=64
594310 On ch=1 n=g#5 v=0
594382 On ch=1 n=d#5 v=66
594440 On ch=1 n=d#5 v=0
594472 On ch=1 n=c5 v=0
594480 On ch=1 n=d#4 v=0
594488 On ch=1 n=d#6 v=0
594496 On ch=1 n=c5 v=65
594504 On ch=1 n=c6 v=77
594510 On ch=1 n=d#5 v=66
594512 On ch=1 n=d#4 v=67
594554 On ch=1 n=d#5 v=0
594556 On ch=1 n=c5 v=0
594566 On ch=1 n=d#4 v=0
594574 On ch=1 n=c6 v=0
594598 Par ch=1 c=64 v=0
594626 On ch=1 n=a#5 v=80
594630 On ch=1 n=d#4 v=60
594632 On ch=1 n=d#5 v=65
594634 On ch=1 n=c5 v=71
594636 Par ch=1 c=64 v=127
594664 On ch=1 n=d#5 v=0
594748 On ch=1 n=d#5 v=64
594802 On ch=1 n=d#5 v=0
594828 On ch=1 n=d#4 v=0
594832 On ch=1 n=c5 v=0
594856 On ch=1 n=a#5 v=0
594856 On ch=1 n=c6 v=73
594868 On ch=1 n=d#4 v=59
594872 On ch=1 n=c5 v=63
594876 On ch=1 n=d#5 v=60
594916 On ch=1 n=d#5 v=0
594926 On ch=1 n=c6 v=0
594928 On ch=1 n=d#4 v=0
594934 On ch=1 n=c5 v=0
594980 On ch=1 n=a#5 v=63
594984 On ch=1 n=c5 v=64
594988 On ch=1 n=d#5 v=67
594998 On ch=1 n=d#4 v=57
595036 On ch=1 n=d#5 v=0
595120 On ch=1 n=d#5 v=47
595180 On ch=1 n=d#5 v=0
595182 On ch=1 n=c5 v=0
595196 On ch=1 n=d#4 v=0
595210 On ch=1 n=a#5 v=0
595210 On ch=1 n=d#4 v=63
595216 On ch=1 n=c5 v=28
595220 On ch=1 n=d#5 v=62
595224 On ch=1 n=g#5 v=72
595258 On ch=1 n=c5 v=0
595260 On ch=1 n=d#4 v=0
595262 On ch=1 n=d#5 v=0
595266 On ch=1 n=g#5 v=0
595384 On ch=1 n=d#2 v=89
595400 On ch=1 n=d#5 v=89
595410 Par ch=1 c=64 v=0
595414 On ch=1 n=d#3 v=89
595422 On ch=1 n=d#4 v=89
595482 Par ch=1 c=64 v=127
595650 On ch=1 n=d#2 v=0
595666 On ch=1 n=d#5 v=0
595680 On ch=1 n=d#3 v=0
595688 On ch=1 n=d#4 v=0
595696 On ch=1 n=g5 v=71
595764 On ch=1 n=g5 v=0
595826 On ch=1 n=g5 v=72
595826 On ch=1 n=c#5 v=83
595830 On ch=1 n=a#5 v=85
595836 On ch=1 n=d#4 v=73
595898 On ch=1 n=g5 v=0
595950 On ch=1 n=g5 v=68
596024 On ch=1 n=c#5 v=0
596032 On ch=1 n=g5 v=0
596034 On ch=1 n=d#4 v=0
596060 On ch=1 n=a#5 v=0
596070 On ch=1 n=c6 v=64
596070 On ch=1 n=c#5 v=79
596076 On ch=1 n=g5 v=69
596076 On ch=1 n=d#4 v=68
596120 On ch=1 n=d#4 v=0
596126 On ch=1 n=c6 v=0
596128 On ch=1 n=g5 v=0
596132 On ch=1 n=c#5 v=0
596188 On ch=1 n=c#6 v=81
596188 On ch=1 n=g5 v=71
596196 On ch=1 n=c#5 v=81
596200 On ch=1 n=d#4 v=64
596242 On ch=1 n=g5 v=0
596296 On ch=1 n=g5 v=82
596364 On ch=1 n=g5 v=0
596394 On ch=1 n=c#5 v=0
596398 On ch=1 n=d#4 v=0
596418 On ch=1 n=c#6 v=0
596418 On ch=1 n=f6 v=75
596418 On ch=1 n=g5 v=71
596418 On ch=1 n=c#5 v=72
596424 On ch=1 n=d#4 v=57
596468 On ch=1 n=d#4 v=0
596470 On ch=1 n=g5 v=0
596478 On ch=1 n=f6 v=0
596482 On ch=1 n=c#5 v=0
596538 On ch=1 n=d#6 v=81
596542 On ch=1 n=c#5 v=74
596546 On ch=1 n=g5 v=74
596550 On ch=1 n=d#4 v=60
596592 On ch=1 n=g5 v=0
596658 On ch=1 n=g5 v=79
596716 On ch=1 n=g5 v=0
596740 On ch=1 n=c#5 v=0
596748 On ch=1 n=d#4 v=0
596768 On ch=1 n=d#6 v=0
596774 On ch=1 n=c#5 v=70
596774 On ch=1 n=d#4 v=64
596780 On ch=1 n=g5 v=74
596784 On ch=1 n=c6 v=72
596826 On ch=1 n=g5 v=0
596832 On ch=1 n=d#4 v=0
596840 On ch=1 n=c#5 v=0
596844 On ch=1 n=c6 v=0
596896 On ch=1 n=a#5 v=86
596898 On ch=1 n=g5 v=73
596904 On ch=1 n=c#5 v=71
596910 On ch=1 n=d#4 v=63
596946 On ch=1 n=g5 v=0
597008 On ch=1 n=g5 v=70
597070 On ch=1 n=g5 v=0
597102 On ch=1 n=c#5 v=0
597108 On ch=1 n=d#4 v=0
597126 On ch=1 n=a#5 v=0
597126 On ch=1 n=c6 v=76
597134 On ch=1 n=g5 v=69
597140 On ch=1 n=c#5 v=69
597140 On ch=1 n=d#4 v=67
597178 On ch=1 n=g5 v=0
597194 On ch=1 n=d#4 v=0
597202 On ch=1 n=c#5 v=0
597202 On ch=1 n=c6 v=0
597246 On ch=1 n=a#5 v=81
597256 On ch=1 n=g5 v=78
597260 On ch=1 n=c#5 v=66
597272 On ch=1 n=d#4 v=64
597300 On ch=1 n=g5 v=0
597398 On ch=1 n=g5 v=59
597442 On ch=1 n=g5 v=0
597458 On ch=1 n=c#5 v=0
597470 On ch=1 n=d#4 v=0
597476 On ch=1 n=a#5 v=0
597512 On ch=1 n=g#5 v=77
597514 On ch=1 n=g#3 v=65
597522 On ch=1 n=d#4 v=59
597528 On ch=1 n=c5 v=77
597576 On ch=1 n=d#4 v=0
597582 On ch=1 n=g#5 v=0
597586 On ch=1 n=c5 v=0
597594 On ch=1 n=g#3 v=0
597642 On ch=1 n=c5 v=52
597646 On ch=1 n=c6 v=77
597646 On ch=1 n=g#3 v=64
597652 On ch=1 n=d#4 v=53
597690 On ch=1 n=c5 v=0
597768 On ch=1 n=c5 v=68
597814 On ch=1 n=c5 v=0
597844 On ch=1 n=g#3 v=0
597850 On ch=1 n=d#4 v=0
597876 On ch=1 n=c6 v=0
597880 On ch=1 n=g#3 v=57
597884 On ch=1 n=g#5 v=79
597884 On ch=1 n=c5 v=67
597894 On ch=1 n=d#4 v=55
597936 On ch=1 n=c5 v=0
597936 On ch=1 n=g#5 v=0
597938 On ch=1 n=d#4 v=0
597956 On ch=1 n=g#3 v=0
598012 On ch=1 n=d#4 v=59
598014 On ch=1 n=f5 v=60
598014 On ch=1 n=c5 v=64
598020 On ch=1 n=g#3 v=49
598062 On ch=1 n=c5 v=0
598120 On ch=1 n=c5 v=55
598182 On ch=1 n=c5 v=0
598210 On ch=1 n=d#4 v=0
598218 On ch=1 n=g#3 v=0
598244 On ch=1 n=f5 v=0
598246 On ch=1 n=g5 v=70
598246 On ch=1 n=c5 v=48
598252 On ch=1 n=d#4 v=65
598256 On ch=1 n=g#3 v=46
598306 On ch=1 n=g5 v=0
598308 On ch=1 n=c5 v=0
598314 On ch=1 n=d#4 v=0
598318 On ch=1 n=g#3 v=0
598358 On ch=1 n=c5 v=64
598368 On ch=1 n=f5 v=69
598368 On ch=1 n=d#4 v=57
598372 On ch=1 n=g#3 v=47
598414 On ch=1 n=c5 v=0
598480 On ch=1 n=c5 v=58
598530 On ch=1 n=c5 v=0
598566 On ch=1 n=d#4 v=0
598570 On ch=1 n=g#3 v=0
598598 On ch=1 n=f5 v=0
598604 On ch=1 n=c5 v=44
598610 On ch=1 n=d#5 v=75
598616 On ch=1 n=d#4 v=52
598616 On ch=1 n=g#3 v=55
598658 On ch=1 n=d#5 v=0
598660 On ch=1 n=c5 v=0
598676 On ch=1 n=d#4 v=0
598682 On ch=1 n=g#3 v=0
598730 On ch=1 n=c5 v=52
598738 On ch=1 n=g#5 v=77
598742 On ch=1 n=d#4 v=53
598748 On ch=1 n=g#3 v=51
598782 On ch=1 n=c5 v=0
598846 On ch=1 n=c5 v=58
598916 On ch=1 n=c5 v=0
598940 On ch=1 n=d#4 v=0
598946 On ch=1 n=g#3 v=0
598968 On ch=1 n=g#5 v=0
598970 On ch=1 n=c5 v=58
598978 On ch=1 n=f5 v=58
598978 On ch=1 n=d#4 v=58
598984 On ch=1 n=g#3 v=53
599024 On ch=1 n=f5 v=0
599030 On ch=1 n=c5 v=0
599042 On ch=1 n=g#3 v=0
599042 On ch=1 n=d#4 v=0
599090 On ch=1 n=d#5 v=77
599090 On ch=1 n=c5 v=63
599094 On ch=1 n=d#4 v=53
599100 On ch=1 n=g#3 v=53
599146 On ch=1 n=c5 v=0
599200 On ch=1 n=c5 v=60
599260 On ch=1 n=c5 v=0
599292 On ch=1 n=d#4 v=0
599298 On ch=1 n=g#3 v=0
599318 On ch=1 n=f5 v=55
599320 On ch=1 n=d#5 v=0
599322 On ch=1 n=c5 v=57
599332 On ch=1 n=d#4 v=55
599332 On ch=1 n=g#3 v=55
599376 On ch=1 n=c5 v=0
599390 On ch=1 n=f5 v=0
599392 On ch=1 n=d#4 v=0
599402 On ch=1 n=g#3 v=0
599436 On ch=1 n=d#5 v=72
599442 On ch=1 n=c5 v=53
599450 On ch=1 n=d#4 v=55
599454 On ch=1 n=g#3 v=52
599488 On ch=1 n=c5 v=0
599566 On ch=1 n=c5 v=48
599612 On ch=1 n=c5 v=0
599648 On ch=1 n=d#4 v=0
599652 On ch=1 n=g#3 v=0
599666 On ch=1 n=d#5 v=0
599674 On ch=1 n=c5 v=54
599684 On ch=1 n=d#4 v=54
599692 On ch=1 n=g#3 v=48
599730 On ch=1 n=c5 v=0
599738 On ch=1 n=g#3 v=0
599750 On ch=1 n=d#4 v=0
599790 On ch=1 n=c5 v=50
599792 On ch=1 n=g#4 v=58
599800 On ch=1 n=d#4 v=50
599800 On ch=1 n=g#3 v=50
599866 On ch=1 n=c5 v=0
599910 On ch=1 n=c5 v=57
599966 On ch=1 n=c5 v=0
599998 On ch=1 n=g#3 v=0
599998 On ch=1 n=d#4 v=0
600022 On ch=1 n=g#4 v=0
600030 On ch=1 n=d#3 v=46
600038 On ch=1 n=c5 v=51
600038 On ch=1 n=g4 v=61
600038 On ch=1 n=d#4 v=48
600088 On ch=1 n=g4 v=0
600090 On ch=1 n=c5 v=0
600114 On ch=1 n=d#3 v=0
600122 On ch=1 n=d#4 v=0
600126 Par ch=1 c=64 v=0
600170 On ch=1 n=c5 v=56
600170 On ch=1 n=g#4 v=67
600176 On ch=1 n=g#3 v=49
600178 On ch=1 n=d#4 v=50
600202 Par ch=1 c=64 v=127
600238 On ch=1 n=c5 v=0
600290 On ch=1 n=c5 v=53
600350 On ch=1 n=c5 v=0
600376 On ch=1 n=d#4 v=0
600388 On ch=1 n=g#3 v=0
600400 On ch=1 n=g#4 v=0
600418 On ch=1 n=d#3 v=39
600428 On ch=1 n=c5 v=48
600428 On ch=1 n=g4 v=58
600428 On ch=1 n=d#4 v=49
600468 On ch=1 n=g4 v=0
600478 On ch=1 n=c5 v=0
600508 On ch=1 n=d#4 v=0
600514 On ch=1 n=d#3 v=0
600554 On ch=1 n=g#4 v=64
600556 On ch=1 n=g#3 v=46
600558 On ch=1 n=c5 v=55
600566 On ch=1 n=d#4 v=52
600622 On ch=1 n=c5 v=0
600682 On ch=1 n=c5 v=49
600748 On ch=1 n=c5 v=0
600784 On ch=1 n=g#4 v=0
600796 Par ch=1 c=64 v=0
600800 On ch=1 n=g#3 v=0
600810 On ch=1 n=d#4 v=0
600816 On ch=1 n=c5 v=51
600816 On ch=1 n=d#3 v=39
600822 On ch=1 n=g4 v=58
600826 On ch=1 n=d#4 v=46
600868 Par ch=1 c=64 v=127
600878 On ch=1 n=g4 v=0
600890 On ch=1 n=c5 v=0
600900 On ch=1 n=d#3 v=0
600924 On ch=1 n=d#4 v=0
600946 On ch=1 n=g#3 v=41
600948 On ch=1 n=g#4 v=60
600954 On ch=1 n=c5 v=49
600954 On ch=1 n=d#4 v=46
601014 On ch=1 n=c5 v=0
601076 On ch=1 n=c5 v=50
601138 On ch=1 n=c5 v=0
601178 On ch=1 n=g#4 v=0
601190 On ch=1 n=g#3 v=0
601192 On ch=1 n=d#3 v=40
601198 On ch=1 n=d#4 v=0
601204 On ch=1 n=c5 v=46
601204 On ch=1 n=d#4 v=36
601212 On ch=1 n=g4 v=55
601260 On ch=1 n=g4 v=0
601272 On ch=1 n=c5 v=0
601300 On ch=1 n=d#4 v=0
601318 Par ch=1 c=64 v=0
601332 On ch=1 n=g#3 v=48
601336 On ch=1 n=d#3 v=0
601336 On ch=1 n=g#4 v=62
601336 On ch=1 n=d#4 v=53
601338 On ch=1 n=c5 v=49
601380 Par ch=1 c=64 v=127
601410 On ch=1 n=c5 v=0
601468 On ch=1 n=c5 v=44
601530 On ch=1 n=c5 v=0
601566 On ch=1 n=g#4 v=0
601576 On ch=1 n=g#3 v=0
601580 On ch=1 n=d#4 v=0
601598 On ch=1 n=d#3 v=32
601600 On ch=1 n=c5 v=47
601606 On ch=1 n=d#4 v=33
601610 On ch=1 n=g4 v=53
601654 On ch=1 n=g4 v=0
601670 On ch=1 n=c5 v=0
601698 On ch=1 n=d#4 v=0
601722 On ch=1 n=d#3 v=0
601736 On ch=1 n=g#4 v=54
601740 On ch=1 n=c5 v=43
601740 On ch=1 n=g#3 v=39
601748 On ch=1 n=d#4 v=47
601808 On ch=1 n=c5 v=0
601862 On ch=1 n=c5 v=43
601932 On ch=1 n=c5 v=0
601966 On ch=1 n=g#4 v=0
601996 On ch=1 n=d#3 v=43
602002 On ch=1 n=g4 v=51
602006 On ch=1 n=c5 v=47
602028 On ch=1 n=g#3 v=0
602036 On ch=1 n=d#4 v=0
602050 On ch=1 n=g4 v=0
602064 On ch=1 n=c5 v=0
602090 On ch=1 n=d#3 v=0
602200 On ch=1 n=g#3 v=57
602206 On ch=1 n=c5 v=67
602208 On ch=1 n=f#4 v=59
602224 Par ch=1 c=64 v=0
602296 Par ch=1 c=64 v=127
602346 On ch=1 n=g#3 v=0
602346 On ch=1 n=a#3 v=42
602450 On ch=1 n=a#3 v=0
602462 On ch=1 n=g#3 v=54
602544 On ch=1 n=a#3 v=59
602552 On ch=1 n=g#3 v=0
602628 On ch=1 n=a#3 v=0
602642 On ch=1 n=g#3 v=55
602718 On ch=1 n=a#3 v=68
602726 On ch=1 n=g#3 v=0
602808 On ch=1 n=g#3 v=31
602816 On ch=1 n=a#3 v=0
602868 On ch=1 n=g#3 v=0
602872 On ch=1 n=a#3 v=68
602930 On ch=1 n=a#3 v=0
602936 On ch=1 n=g#3 v=34
602986 On ch=1 n=a#3 v=68
602992 On ch=1 n=g#3 v=0
603044 On ch=1 n=a#3 v=0
603052 On ch=1 n=g#3 v=48
603106 On ch=1 n=a#3 v=63
603116 On ch=1 n=g#3 v=0
603160 On ch=1 n=a#3 v=0
603176 On ch=1 n=g#3 v=57
603230 On ch=1 n=a#3 v=67
603244 On ch=1 n=g#3 v=0
603308 On ch=1 n=g#3 v=53
603312 On ch=1 n=a#3 v=0
603370 On ch=1 n=a#3 v=68
603382 On ch=1 n=g#3 v=0
603432 On ch=1 n=a#3 v=0
603436 Par ch=1 c=64 v=0
603442 On ch=1 n=g#3 v=52
603452 On ch=1 n=c#5 v=54
603452 On ch=1 n=e4 v=58
603466 On ch=1 n=c5 v=0
603468 On ch=1 n=f#4 v=0
603496 Par ch=1 c=64 v=127
603504 On ch=1 n=a#3 v=63
603514 On ch=1 n=g#3 v=0
603556 On ch=1 n=a#3 v=0
603564 On ch=1 n=g#3 v=43
603616 On ch=1 n=a#3 v=57
603624 On ch=1 n=g#3 v=0
603672 On ch=1 n=a#3 v=0
603678 On ch=1 n=g#3 v=52
603732 On ch=1 n=a#3 v=41
603738 On ch=1 n=g#3 v=0
603784 On ch=1 n=a#3 v=0
603794 On ch=1 n=g#3 v=48
603846 On ch=1 n=a#3 v=48
603856 On ch=1 n=g#3 v=0
603916 On ch=1 n=g#3 v=50
603926 On ch=1 n=a#3 v=0
603960 On ch=1 n=a#4 v=58
603970 On ch=1 n=a#3 v=50
603998 On ch=1 n=g#3 v=0
604050 On ch=1 n=g#3 v=43
604058 On ch=1 n=a#3 v=0
604104 On ch=1 n=a#3 v=56
604112 On ch=1 n=g#3 v=0
604160 On ch=1 n=g#3 v=53
604170 On ch=1 n=a#3 v=0
604224 On ch=1 n=g#3 v=0
604228 On ch=1 n=a#3 v=42
604274 On ch=1 n=g#3 v=42
604294 On ch=1 n=a#3 v=0
604352 On ch=1 n=a#3 v=26
604360 On ch=1 n=g#3 v=0
604394 On ch=1 n=e4 v=0
604398 On ch=1 n=a#3 v=0
604430 Par ch=1 c=64 v=0
604476 On ch=1 n=d#4 v=63
604488 On ch=1 n=g3 v=41
604508 Par ch=1 c=64 v=127
604590 On ch=1 n=g3 v=0
604596 On ch=1 n=g#3 v=43
604642 On ch=1 n=g#3 v=0
604662 On ch=1 n=g3 v=43
604728 On ch=1 n=g3 v=0
604734 On ch=1 n=g#3 v=43
604782 On ch=1 n=g#3 v=0
604794 On ch=1 n=g3 v=44
604854 On ch=1 n=g3 v=0
604856 On ch=1 n=g#3 v=44
604890 On ch=1 n=a#4 v=0
604904 On ch=1 n=g#3 v=0
604908 On ch=1 n=g3 v=45
604916 On ch=1 n=c#5 v=0
604940 On ch=1 n=d#4 v=0
604966 On ch=1 n=g3 v=0
604976 On ch=1 n=f#3 v=46
605030 On ch=1 n=f#3 v=0
605036 On ch=1 n=g3 v=45
605042 Par ch=1 c=64 v=0
605080 On ch=1 n=c5 v=51
605080 On ch=1 n=d#4 v=49
605096 On ch=1 n=g#4 v=26
605096 On ch=1 n=g#3 v=45
605106 On ch=1 n=g3 v=0
605114 Par ch=1 c=64 v=127
605260 On ch=1 n=g#3 v=0
605284 On ch=1 n=a#3 v=62
605352 On ch=1 n=a#3 v=0
605358 On ch=1 n=g#3 v=27
605422 On ch=1 n=a#3 v=59
605428 On ch=1 n=g#3 v=0
605470 On ch=1 n=a#3 v=0
605484 On ch=1 n=g#3 v=31
605542 On ch=1 n=a#3 v=54
605562 On ch=1 n=g#3 v=0
605618 On ch=1 n=a#3 v=0
605622 On ch=1 n=g#3 v=45
605674 On ch=1 n=f#4 v=48
605676 On ch=1 n=a#3 v=46
605692 On ch=1 n=g#3 v=0
605736 On ch=1 n=a#3 v=0
605736 On ch=1 n=g#4 v=0
605738 On ch=1 n=d#4 v=0
605746 On ch=1 n=g#3 v=40
605800 On ch=1 n=a#3 v=45
605816 On ch=1 n=g#3 v=0
605866 On ch=1 n=a#3 v=0
605868 On ch=1 n=g#3 v=42
605928 On ch=1 n=a#3 v=41
605932 On ch=1 n=g#3 v=0
605982 On ch=1 n=a#3 v=0
605992 On ch=1 n=g#3 v=34
606052 On ch=1 n=a#3 v=28
606056 On ch=1 n=g#3 v=0
606106 On ch=1 n=a#3 v=0
606114 On ch=1 n=g#3 v=41
606168 On ch=1 n=a#3 v=45
606174 On ch=1 n=g#3 v=0
606234 On ch=1 n=a#3 v=0
606238 On ch=1 n=g#3 v=34
606290 On ch=1 n=a#3 v=46
606294 On ch=1 n=g#3 v=0
606352 On ch=1 n=a#3 v=0
606356 On ch=1 n=g#3 v=34
606412 On ch=1 n=a#3 v=46
606416 On ch=1 n=g#3 v=0
606466 On ch=1 n=a#3 v=0
606476 On ch=1 n=g#3 v=35
606524 On ch=1 n=a#3 v=38
606540 On ch=1 n=g#3 v=0
606590 On ch=1 n=a#3 v=0
606592 On ch=1 n=g#3 v=39
606644 On ch=1 n=a#3 v=40
606658 On ch=1 n=g#3 v=0
606664 Par ch=1 c=64 v=0
606680 On ch=1 n=c5 v=0
606680 On ch=1 n=c#5 v=61
606684 On ch=1 n=e4 v=60
606702 On ch=1 n=f#4 v=0
606708 On ch=1 n=a#3 v=0
606708 On ch=1 n=g#3 v=50
606728 Par ch=1 c=64 v=127
606760 On ch=1 n=a#3 v=59
606776 On ch=1 n=g#3 v=0
606828 On ch=1 n=a#3 v=0
606832 On ch=1 n=g#3 v=45
606884 On ch=1 n=a#3 v=58
606892 On ch=1 n=g#3 v=0
606954 On ch=1 n=a#3 v=0
606956 On ch=1 n=g#3 v=34
607014 On ch=1 n=a#3 v=41
607022 On ch=1 n=g#3 v=0
607084 On ch=1 n=g#3 v=51
607092 On ch=1 n=a#3 v=0
607146 On ch=1 n=a#3 v=45
607154 On ch=1 n=g#3 v=0
607178 Par ch=1 c=64 v=0
607192 On ch=1 n=a#4 v=54
607208 On ch=1 n=g#3 v=45
607220 On ch=1 n=a#3 v=0
607248 Par ch=1 c=64 v=127
607264 On ch=1 n=a#3 v=55
607274 On ch=1 n=g#3 v=0
607332 On ch=1 n=g#3 v=35
607336 On ch=1 n=a#3 v=0
607396 On ch=1 n=a#3 v=35
607406 On ch=1 n=g#3 v=0
607448 On ch=1 n=a#3 v=0
607448 On ch=1 n=g#3 v=41
607524 On ch=1 n=g#3 v=0
607526 On ch=1 n=a#3 v=19
607582 On ch=1 n=g#3 v=41
607598 On ch=1 n=a#3 v=0
607634 On ch=1 n=a#3 v=41
607650 On ch=1 n=g#3 v=0
607654 On ch=1 n=e4 v=0
607686 On ch=1 n=g#3 v=34
607690 On ch=1 n=a#3 v=0
607738 Par ch=1 c=64 v=0
607742 On ch=1 n=g#3 v=0
607756 On ch=1 n=d#4 v=43
607774 On ch=1 n=g3 v=37
607804 Par ch=1 c=64 v=127
607920 On ch=1 n=g#3 v=37
607934 On ch=1 n=g3 v=0
608020 On ch=1 n=g3 v=36
608026 On ch=1 n=d#4 v=0
608030 On ch=1 n=g#3 v=0
608040 On ch=1 n=c#5 v=0
608042 On ch=1 n=a#4 v=0
608100 On ch=1 n=g#3 v=35
608108 On ch=1 n=g3 v=0
608158 On ch=1 n=g3 v=35
608166 On ch=1 n=g#3 v=0
608232 On ch=1 n=f#3 v=34
608258 On ch=1 n=g3 v=0
608416 On ch=1 n=g3 v=34
608452 On ch=1 n=f#3 v=0
608508 Par ch=1 c=64 v=0
608590 Par ch=1 c=64 v=127
608652 On ch=1 n=g3 v=0
608824 On ch=1 n=c5 v=35
608824 On ch=1 n=g#4 v=35
608824 On ch=1 n=d#4 v=38
608824 On ch=1 n=g#3 v=62
608934 On ch=1 n=d#4 v=0
608934 On ch=1 n=g#4 v=0
608934 On ch=1 n=c5 v=0
608936 On ch=1 n=g#3 v=0
610070 Par ch=1 c=64 v=0
610338 Par ch=1 c=64 v=127
610464 On ch=1 n=d#4 v=46
610464 On ch=1 n=g#2 v=59
610472 On ch=1 n=c5 v=47
612476 On ch=1 n=c5 v=0
612814 On ch=1 n=g#6 v=76
612814 On ch=1 n=c6 v=76
612814 On ch=1 n=g#5 v=76
612824 On ch=1 n=g#7 v=76
612824 On ch=1 n=d#5 v=76
612824 On ch=1 n=c5 v=47
617376 On ch=1 n=g#6 v=0
617388 On ch=1 n=d#5 v=0
617394 On ch=1 n=c5 v=0
617394 On ch=1 n=c6 v=0
617398 On ch=1 n=g#5 v=0
617406 On ch=1 n=g#7 v=0
617414 On ch=1 n=g#2 v=0
617414 On ch=1 n=d#4 v=0
617414 Meta TrkEnd
TrkEnd
