MFile 1 5 480
MTrk
0 Tempo 240000
0 Meta TrkEnd
TrkEnd
MTrk
0 SeqSpec 43 00 01 00
0 Meta TrkName "Melodie main droite"
0 Par ch=1 c=10 v=80
0 Par ch=1 c=91 v=32
0 Par ch=1 c=7 v=110
0 Par ch=1 c=93 v=0
6 Pb ch=1 v=12192
6 PrCh ch=1 p=1
3118 On ch=1 n=f4 v=85
3748 On ch=1 n=f4 v=0
3748 On ch=1 n=f5 v=86
3748 On ch=1 n=d5 v=86
3748 On ch=1 n=f4 v=86
5040 On ch=1 n=f4 v=0
5040 On ch=1 n=d5 v=0
5040 On ch=1 n=f5 v=0
5040 On ch=1 n=d#5 v=82
5040 On ch=1 n=g5 v=82
5040 On ch=1 n=g4 v=82
5690 On ch=1 n=g4 v=0
5690 On ch=1 n=a4 v=74
6334 On ch=1 n=a4 v=0
6334 On ch=1 n=a#4 v=74
7276 On ch=1 n=a#4 v=0
7276 On ch=1 n=g5 v=0
7276 On ch=1 n=d#5 v=0
7276 On ch=1 n=f5 v=74
7276 On ch=1 n=d5 v=74
7276 On ch=1 n=f4 v=74
7566 On ch=1 n=f4 v=0
7566 On ch=1 n=d5 v=0
7566 On ch=1 n=f5 v=0
7566 On ch=1 n=f5 v=75
7566 On ch=1 n=d5 v=75
8850 On ch=1 n=d5 v=0
8850 On ch=1 n=f5 v=0
8850 On ch=1 n=g5 v=82
8850 On ch=1 n=d#5 v=82
8850 On ch=1 n=g4 v=82
9494 On ch=1 n=g4 v=0
9494 On ch=1 n=a4 v=69
10112 On ch=1 n=a4 v=0
10112 On ch=1 n=a#4 v=72
11026 On ch=1 n=a#4 v=0
11026 On ch=1 n=d#5 v=0
11026 On ch=1 n=g5 v=0
11026 On ch=1 n=f5 v=79
11026 On ch=1 n=d5 v=79
11026 On ch=1 n=f4 v=79
11328 On ch=1 n=f4 v=0
11328 On ch=1 n=d5 v=0
11328 On ch=1 n=f5 v=0
11328 On ch=1 n=f5 v=77
11328 On ch=1 n=d5 v=77
11328 On ch=1 n=f4 v=77
12556 On ch=1 n=f4 v=0
12556 On ch=1 n=d5 v=0
12556 On ch=1 n=f5 v=0
12556 On ch=1 n=g5 v=77
12556 On ch=1 n=d#5 v=77
12556 On ch=1 n=g4 v=77
13240 On ch=1 n=g4 v=0
13240 On ch=1 n=a4 v=74
13870 On ch=1 n=a4 v=0
13870 On ch=1 n=b4 v=72
14456 On ch=1 n=b4 v=0
14456 On ch=1 n=d#5 v=0
14456 On ch=1 n=g5 v=0
14456 On ch=1 n=d5 v=82
14456 On ch=1 n=f5 v=82
14456 On ch=1 n=g4 v=82
15090 On ch=1 n=g4 v=0
15090 On ch=1 n=f5 v=0
15090 On ch=1 n=d5 v=0
15090 On ch=1 n=d5 v=80
15090 On ch=1 n=f5 v=80
15090 On ch=1 n=g4 v=80
15090 On ch=1 n=g4 v=80
17554 On ch=1 n=g4 v=0
17554 On ch=1 n=f5 v=0
17554 On ch=1 n=d5 v=0
17554 On ch=1 n=d#5 v=74
17554 On ch=1 n=c5 v=74
18772 On ch=1 n=c5 v=0
18772 On ch=1 n=d#5 v=0
18772 On ch=1 n=g4 v=0
18772 On ch=1 n=d#5 v=80
18772 On ch=1 n=g5 v=80
18772 On ch=1 n=g4 v=80
19984 On ch=1 n=g4 v=0
19984 On ch=1 n=g5 v=0
19984 On ch=1 n=d#5 v=0
19984 On ch=1 n=f5 v=96
19984 On ch=1 n=g#5 v=96
19984 On ch=1 n=g#4 v=96
20658 On ch=1 n=g#4 v=0
20658 On ch=1 n=b4 v=72
21298 On ch=1 n=b4 v=0
21298 On ch=1 n=c5 v=72
22190 On ch=1 n=c5 v=0
22190 On ch=1 n=g#5 v=0
22190 On ch=1 n=f5 v=0
22190 On ch=1 n=g5 v=80
22190 On ch=1 n=d#5 v=80
22190 On ch=1 n=g4 v=80
22430 On ch=1 n=g4 v=0
22430 On ch=1 n=d#5 v=0
22430 On ch=1 n=g5 v=0
22430 On ch=1 n=d#5 v=85
22430 On ch=1 n=g5 v=85
22430 On ch=1 n=g4 v=85
23674 On ch=1 n=g4 v=0
23674 On ch=1 n=g5 v=0
23674 On ch=1 n=d#5 v=0
23674 On ch=1 n=f5 v=82
23674 On ch=1 n=g#5 v=82
23674 On ch=1 n=g#4 v=82
24300 On ch=1 n=g#4 v=0
24300 On ch=1 n=b4 v=78
24890 On ch=1 n=b4 v=0
24890 On ch=1 n=c5 v=80
25506 On ch=1 n=c5 v=0
25506 On ch=1 n=g#5 v=0
25506 On ch=1 n=f5 v=0
25506 On ch=1 n=g5 v=88
25506 On ch=1 n=d#5 v=88
25506 On ch=1 n=g4 v=88
26078 On ch=1 n=g4 v=0
26078 On ch=1 n=d#5 v=0
26078 On ch=1 n=g5 v=0
26078 On ch=1 n=g5 v=91
26078 On ch=1 n=a4 v=91
26078 On ch=1 n=d#5 v=91
27920 On ch=1 n=g5 v=0
27920 On ch=1 n=f5 v=88
28552 On ch=1 n=f5 v=0
28552 On ch=1 n=d#5 v=0
28552 On ch=1 n=a4 v=0
28552 On ch=1 n=g5 v=84
28552 On ch=1 n=d5 v=84
28552 On ch=1 n=a#4 v=84
29482 On ch=1 n=g5 v=0
29482 On ch=1 n=f5 v=77
29772 On ch=1 n=f5 v=0
29772 On ch=1 n=a#4 v=0
29772 On ch=1 n=d5 v=0
29772 On ch=1 n=c5 v=82
29772 On ch=1 n=a4 v=82
31004 On ch=1 n=a4 v=0
31004 On ch=1 n=c5 v=0
31604 On ch=1 n=f5 v=74
32206 On ch=1 n=f5 v=0
32206 On ch=1 n=f5 v=72
32802 On ch=1 n=f5 v=0
32802 On ch=1 n=f5 v=72
33400 On ch=1 n=f5 v=0
33400 On ch=1 n=d6 v=72
33410 Par ch=1 c=64 v=127
35212 On ch=1 n=d6 v=0
35212 On ch=1 n=d6 v=74
35812 Par ch=1 c=64 v=0
35824 On ch=1 n=d6 v=0
35824 On ch=1 n=d#6 v=71
35974 On ch=1 n=d#6 v=0
35974 On ch=1 n=d6 v=71
36124 On ch=1 n=d6 v=0
36124 On ch=1 n=c6 v=71
36414 On ch=1 n=c6 v=0
36414 On ch=1 n=a5 v=72
37036 On ch=1 n=a5 v=0
37036 On ch=1 n=a#5 v=72
37238 On ch=1 n=a#5 v=0
37238 On ch=1 n=c6 v=72
37440 On ch=1 n=c6 v=0
37440 On ch=1 n=a#5 v=72
37638 On ch=1 n=a#5 v=0
37638 On ch=1 n=a5 v=74
37842 On ch=1 n=a5 v=0
37842 On ch=1 n=a#5 v=74
38046 On ch=1 n=a#5 v=0
38046 On ch=1 n=c6 v=74
38246 On ch=1 n=c6 v=0
38246 On ch=1 n=d6 v=71
38448 On ch=1 n=d6 v=0
38448 On ch=1 n=d#6 v=71
38650 On ch=1 n=d#6 v=0
38650 On ch=1 n=f6 v=71
38866 On ch=1 n=f6 v=0
38866 On ch=1 n=g6 v=65
39020 On ch=1 n=g6 v=0
39020 On ch=1 n=a6 v=65
39174 On ch=1 n=a6 v=0
39174 On ch=1 n=a#6 v=65
39326 On ch=1 n=a#6 v=0
39326 On ch=1 n=g6 v=65
39514 On ch=1 n=g6 v=0
39514 On ch=1 n=f6 v=64
40462 On ch=1 n=f6 v=0
40462 On ch=1 n=d#6 v=69
40748 On ch=1 n=d#6 v=0
40748 On ch=1 n=d6 v=67
40826 On ch=1 n=d6 v=0
40826 On ch=1 n=d#6 v=67
40902 On ch=1 n=d#6 v=0
40902 On ch=1 n=d6 v=67
41134 On ch=1 n=d6 v=0
41134 On ch=1 n=d#6 v=67
41422 On ch=1 n=d#6 v=0
41422 On ch=1 n=d6 v=71
41622 On ch=1 n=d6 v=0
41622 On ch=1 n=c6 v=71
41822 On ch=1 n=c6 v=0
41822 On ch=1 n=d6 v=71
42042 On ch=1 n=d6 v=0
42042 On ch=1 n=d#6 v=69
42246 On ch=1 n=d#6 v=0
42246 On ch=1 n=f6 v=69
42448 On ch=1 n=f6 v=0
42448 On ch=1 n=g6 v=69
42674 On ch=1 n=g6 v=0
42674 On ch=1 n=a6 v=66
42882 On ch=1 n=a6 v=0
42882 On ch=1 n=g6 v=66
43092 On ch=1 n=g6 v=0
43092 On ch=1 n=a6 v=66
43244 Par ch=1 c=64 v=127
43314 On ch=1 n=a6 v=0
43314 On ch=1 n=c7 v=66
43938 On ch=1 n=c7 v=0
43938 On ch=1 n=a#6 v=66
44410 On ch=1 n=a#6 v=0
44410 On ch=1 n=a6 v=66
44470 On ch=1 n=a6 v=0
44470 On ch=1 n=a6 v=66
44480 Par ch=1 c=64 v=127
45418 On ch=1 n=a6 v=0
45418 On ch=1 n=g6 v=66
45720 Par ch=1 c=64 v=0
45726 On ch=1 n=g6 v=0
45726 On ch=1 n=a6 v=66
45884 On ch=1 n=a6 v=0
45884 On ch=1 n=g6 v=66
45894 Par ch=1 c=64 v=127
46030 Par ch=1 c=64 v=0
46040 On ch=1 n=g6 v=0
46040 On ch=1 n=f6 v=66
46950 Par ch=1 c=64 v=0
46996 On ch=1 n=f6 v=0
47654 On ch=1 n=f6 v=66
47654 On ch=1 n=d6 v=66
48304 Par ch=1 c=64 v=127
48778 On ch=1 n=d6 v=0
48778 On ch=1 n=f6 v=0
48778 On ch=1 n=d#6 v=69
48778 On ch=1 n=c6 v=69
48902 On ch=1 n=c6 v=0
48902 On ch=1 n=d#6 v=0
48902 On ch=1 n=f5 v=67
49370 On ch=1 n=f5 v=0
49370 On ch=1 n=d#6 v=67
49370 On ch=1 n=c6 v=67
49568 On ch=1 n=c6 v=0
49568 On ch=1 n=d#6 v=0
49568 On ch=1 n=f6 v=66
50046 On ch=1 n=f6 v=0
50046 On ch=1 n=c7 v=66
50046 On ch=1 n=d#7 v=66
50186 On ch=1 n=d#7 v=0
50186 On ch=1 n=c7 v=0
50186 On ch=1 n=f7 v=69
50668 On ch=1 n=f7 v=0
50668 On ch=1 n=d#8 v=69
50668 On ch=1 n=c8 v=69
50808 Par ch=1 c=64 v=0
50814 On ch=1 n=c8 v=0
50814 On ch=1 n=d#8 v=0
50814 On ch=1 n=d8 v=69
50814 On ch=1 n=a#7 v=69
51126 On ch=1 n=a#7 v=0
51126 On ch=1 n=d8 v=0
51492 On ch=1 n=d6 v=66
51492 On ch=1 n=a#5 v=66
52158 Par ch=1 c=64 v=127
52646 On ch=1 n=a#5 v=0
52646 On ch=1 n=d6 v=0
52646 On ch=1 n=c6 v=64
52646 On ch=1 n=a5 v=64
52770 On ch=1 n=a5 v=0
52770 On ch=1 n=c6 v=0
52770 On ch=1 n=d5 v=69
53250 On ch=1 n=d5 v=0
53250 On ch=1 n=c6 v=69
53250 On ch=1 n=a5 v=69
53396 On ch=1 n=a5 v=0
53396 On ch=1 n=c6 v=0
53396 On ch=1 n=d6 v=69
53864 On ch=1 n=d6 v=0
53864 On ch=1 n=c7 v=69
53864 On ch=1 n=a6 v=69
54006 On ch=1 n=a6 v=0
54006 On ch=1 n=c7 v=0
54006 On ch=1 n=d7 v=69
54470 On ch=1 n=d7 v=0
54470 On ch=1 n=c8 v=69
54470 On ch=1 n=a7 v=69
54614 Par ch=1 c=64 v=0
54626 On ch=1 n=a7 v=0
54626 On ch=1 n=c8 v=0
54626 On ch=1 n=a#7 v=71
54626 On ch=1 n=g7 v=71
54636 Par ch=1 c=64 v=127
54934 On ch=1 n=g7 v=0
54934 On ch=1 n=a#7 v=0
55286 On ch=1 n=a#5 v=65
55286 On ch=1 n=g5 v=65
55916 Par ch=1 c=64 v=0
55940 On ch=1 n=a#5 v=0
55940 On ch=1 n=b5 v=69
56268 On ch=1 n=b5 v=0
56268 On ch=1 n=c6 v=69
56582 On ch=1 n=c6 v=0
56582 On ch=1 n=b5 v=69
56798 On ch=1 n=b5 v=0
56798 On ch=1 n=a5 v=69
57014 On ch=1 n=a5 v=0
57014 On ch=1 n=b5 v=69
57208 On ch=1 n=b5 v=0
57208 On ch=1 n=c6 v=71
57420 On ch=1 n=c6 v=0
57420 On ch=1 n=d6 v=71
57630 On ch=1 n=d6 v=0
57630 On ch=1 n=c6 v=71
57852 On ch=1 n=c6 v=0
57852 On ch=1 n=b5 v=66
58064 On ch=1 n=b5 v=0
58064 On ch=1 n=c6 v=66
58276 On ch=1 n=c6 v=0
58276 On ch=1 n=d6 v=66
58536 On ch=1 n=d6 v=0
58536 On ch=1 n=g5 v=0
58536 On ch=1 n=f6 v=66
58536 On ch=1 n=g5 v=66
59166 On ch=1 n=f6 v=0
59166 On ch=1 n=d#6 v=66
59494 On ch=1 n=g5 v=0
59494 On ch=1 n=d#5 v=66
59660 On ch=1 n=d#6 v=0
59660 On ch=1 n=c6 v=66
59792 On ch=1 n=c6 v=0
59792 On ch=1 n=d#5 v=0
59792 On ch=1 n=a#5 v=65
59792 On ch=1 n=d5 v=65
61080 On ch=1 n=d5 v=0
61080 On ch=1 n=a#5 v=0
61080 On ch=1 n=c6 v=64
61080 On ch=1 n=c5 v=64
61242 On ch=1 n=c6 v=0
61242 On ch=1 n=a#5 v=64
61402 On ch=1 n=a#5 v=0
61402 On ch=1 n=a5 v=64
61752 On ch=1 n=a5 v=0
61752 On ch=1 n=c5 v=0
62380 On ch=1 n=c#6 v=65
62380 On ch=1 n=a5 v=65
62380 On ch=1 n=f5 v=65
62380 On ch=1 n=d#5 v=65
63712 On ch=1 n=d#5 v=0
63712 On ch=1 n=f5 v=0
63712 On ch=1 n=a5 v=0
63712 On ch=1 n=c#6 v=0
63712 On ch=1 n=d6 v=63
63712 On ch=1 n=a#5 v=63
63712 On ch=1 n=f5 v=63
63712 On ch=1 n=d5 v=63
63724 Par ch=1 c=64 v=127
64390 On ch=1 n=f5 v=0
65680 On ch=1 n=d5 v=0
65680 On ch=1 n=a#5 v=0
65680 On ch=1 n=d6 v=0
65680 On ch=1 n=d6 v=66
66310 Par ch=1 c=64 v=0
66316 On ch=1 n=d6 v=0
66316 On ch=1 n=d#6 v=69
66478 On ch=1 n=d#6 v=0
66478 On ch=1 n=d6 v=69
66638 On ch=1 n=d6 v=0
66638 On ch=1 n=c6 v=69
66938 On ch=1 n=c6 v=0
66938 On ch=1 n=a5 v=70
67568 On ch=1 n=a5 v=0
67568 On ch=1 n=a#5 v=66
67776 On ch=1 n=a#5 v=0
67776 On ch=1 n=c6 v=66
67986 On ch=1 n=c6 v=0
67986 On ch=1 n=a#5 v=66
68190 On ch=1 n=a#5 v=0
68190 On ch=1 n=a5 v=70
68398 On ch=1 n=a5 v=0
68398 On ch=1 n=a#5 v=70
68608 On ch=1 n=a#5 v=0
68608 On ch=1 n=c6 v=70
68828 On ch=1 n=c6 v=0
68828 On ch=1 n=d6 v=66
69038 On ch=1 n=d6 v=0
69038 On ch=1 n=d#6 v=66
69248 On ch=1 n=d#6 v=0
69248 On ch=1 n=f6 v=66
69488 On ch=1 n=f6 v=0
69488 On ch=1 n=g6 v=69
69650 On ch=1 n=g6 v=0
69650 On ch=1 n=a6 v=69
69812 On ch=1 n=a6 v=0
69812 On ch=1 n=a#6 v=69
69976 On ch=1 n=a#6 v=0
69976 On ch=1 n=g6 v=69
70132 On ch=1 n=g6 v=0
70132 On ch=1 n=f6 v=63
71078 On ch=1 n=f6 v=0
71078 On ch=1 n=d#6 v=69
71362 On ch=1 n=d#6 v=0
71362 On ch=1 n=d6 v=71
71372 Par ch=1 c=64 v=127
71568 On ch=1 n=d6 v=0
71568 On ch=1 n=c#6 v=71
71772 On ch=1 n=c#6 v=0
71772 On ch=1 n=d6 v=71
72012 On ch=1 n=d6 v=0
72012 On ch=1 n=c7 v=65
72220 On ch=1 n=c7 v=0
72220 On ch=1 n=a#6 v=65
72430 On ch=1 n=a#6 v=0
72430 On ch=1 n=c8 v=65
72626 On ch=1 n=c8 v=0
72626 On ch=1 n=a#7 v=69
72942 On ch=1 n=a#7 v=0
72942 On ch=1 n=g#7 v=69
73100 On ch=1 n=g#7 v=0
73100 On ch=1 n=f7 v=69
73254 On ch=1 n=f7 v=0
73254 On ch=1 n=d7 v=69
73378 On ch=1 n=d7 v=0
73378 On ch=1 n=a#6 v=69
73502 On ch=1 n=a#6 v=0
73502 On ch=1 n=g#6 v=69
73626 On ch=1 n=g#6 v=0
73626 On ch=1 n=f6 v=69
73750 On ch=1 n=f6 v=0
73750 On ch=1 n=d6 v=69
73864 Par ch=1 c=64 v=0
73904 On ch=1 n=d6 v=0
73904 On ch=1 n=b5 v=67
74886 On ch=1 n=b5 v=0
74886 On ch=1 n=a#5 v=63
75226 On ch=1 n=a#5 v=0
75226 On ch=1 n=a#5 v=66
75392 On ch=1 n=a#5 v=0
75392 On ch=1 n=g#5 v=66
75558 On ch=1 n=g#5 v=0
75558 On ch=1 n=a#5 v=66
75722 On ch=1 n=a#5 v=0
75722 On ch=1 n=g#5 v=66
75830 On ch=1 n=g#5 v=0
75830 On ch=1 n=a#5 v=67
75990 On ch=1 n=a#5 v=0
75990 On ch=1 n=g#5 v=67
76148 On ch=1 n=g#5 v=0
76148 On ch=1 n=a#5 v=67
76306 On ch=1 n=a#5 v=0
76306 On ch=1 n=g#5 v=67
76476 On ch=1 n=g#5 v=0
76476 On ch=1 n=a#5 v=67
76632 On ch=1 n=a#5 v=0
76632 On ch=1 n=g#5 v=67
76788 On ch=1 n=g#5 v=0
76788 On ch=1 n=a#5 v=67
76944 On ch=1 n=a#5 v=0
76944 On ch=1 n=g#5 v=67
77108 On ch=1 n=g#5 v=0
77108 On ch=1 n=a#5 v=71
77268 On ch=1 n=a#5 v=0
77268 On ch=1 n=g#5 v=71
77428 On ch=1 n=g#5 v=0
77428 On ch=1 n=g5 v=71
77588 On ch=1 n=g5 v=0
77588 On ch=1 n=g#5 v=71
77754 On ch=1 n=g#5 v=0
77754 On ch=1 n=g5 v=65
79068 On ch=1 n=g5 v=0
79068 On ch=1 n=f5 v=71
79722 On ch=1 n=f5 v=0
79722 On ch=1 n=g6 v=70
80044 On ch=1 n=g6 v=0
80044 On ch=1 n=f6 v=70
80964 On ch=1 n=f6 v=0
80964 On ch=1 n=g7 v=75
81274 On ch=1 n=g7 v=0
81430 On ch=1 n=f7 v=75
81610 On ch=1 n=f7 v=0
81610 On ch=1 n=d#7 v=78
81690 On ch=1 n=d#7 v=0
81690 On ch=1 n=f7 v=78
81770 On ch=1 n=f7 v=0
81770 On ch=1 n=d#7 v=78
81928 On ch=1 n=d#7 v=0
82088 On ch=1 n=d7 v=78
82244 On ch=1 n=d7 v=0
82244 On ch=1 n=c7 v=78
82324 On ch=1 n=c7 v=0
82324 On ch=1 n=d7 v=78
82404 On ch=1 n=d7 v=0
82404 On ch=1 n=c7 v=78
82564 On ch=1 n=c7 v=0
82724 On ch=1 n=a#6 v=78
82906 On ch=1 n=a#6 v=0
82906 On ch=1 n=a#6 v=80
83576 On ch=1 n=a#6 v=0
83576 On ch=1 n=a6 v=84
84872 On ch=1 n=a6 v=0
84872 On ch=1 n=g#6 v=83
86138 On ch=1 n=g#6 v=0
86138 On ch=1 n=g6 v=94
86750 On ch=1 n=g6 v=0
86750 On ch=1 n=a#6 v=86
86760 Par ch=1 c=64 v=127
86906 On ch=1 n=a#6 v=0
86906 On ch=1 n=c7 v=86
87060 On ch=1 n=c7 v=0
87060 On ch=1 n=c#7 v=86
87406 On ch=1 n=c#7 v=0
87406 On ch=1 n=c#7 v=80
87564 On ch=1 n=c#7 v=0
87564 On ch=1 n=e7 v=80
87724 On ch=1 n=e7 v=0
87724 On ch=1 n=e8 v=80
88030 Par ch=1 c=64 v=0
88038 On ch=1 n=e8 v=0
88038 On ch=1 n=d7 v=84
88050 Par ch=1 c=64 v=127
88118 On ch=1 n=d7 v=0
88118 On ch=1 n=f7 v=84
88200 On ch=1 n=f7 v=0
88200 On ch=1 n=f8 v=84
88360 On ch=1 n=f8 v=0
88360 On ch=1 n=d8 v=84
88690 On ch=1 n=d8 v=0
88690 On ch=1 n=a#7 v=82
89012 On ch=1 n=a#7 v=0
89012 On ch=1 n=f7 v=82
89320 On ch=1 n=f7 v=0
89320 On ch=1 n=d7 v=86
89640 On ch=1 n=d7 v=0
89640 On ch=1 n=a#6 v=86
89956 On ch=1 n=a#6 v=0
89956 On ch=1 n=f6 v=84
90272 On ch=1 n=f6 v=0
90272 On ch=1 n=d6 v=84
90578 Par ch=1 c=64 v=0
90608 On ch=1 n=d6 v=0
90608 On ch=1 n=d#6 v=86
90688 On ch=1 n=d#6 v=0
90688 On ch=1 n=g6 v=86
90930 On ch=1 n=g6 v=0
90930 On ch=1 n=f6 v=86
91236 On ch=1 n=f6 v=0
91236 On ch=1 n=d#6 v=82
91716 On ch=1 n=d#6 v=0
91716 On ch=1 n=a5 v=82
91854 On ch=1 n=a5 v=0
91854 On ch=1 n=d#5 v=90
91854 On ch=1 n=c6 v=90
93146 On ch=1 n=c6 v=0
93146 On ch=1 n=d#5 v=0
93146 On ch=1 n=a#5 v=77
93146 On ch=1 n=d5 v=77
93796 On ch=1 n=d5 v=0
93796 On ch=1 n=a#5 v=0
93796 On ch=1 n=f4 v=80
94420 On ch=1 n=f4 v=0
94420 On ch=1 n=f5 v=88
94420 On ch=1 n=d5 v=88
94420 On ch=1 n=f4 v=88
95696 On ch=1 n=f4 v=0
95696 On ch=1 n=d5 v=0
95696 On ch=1 n=f5 v=0
95696 On ch=1 n=d#5 v=86
95696 On ch=1 n=g5 v=86
95696 On ch=1 n=g4 v=86
96368 On ch=1 n=g4 v=0
96368 On ch=1 n=a4 v=82
97008 On ch=1 n=a4 v=0
97008 On ch=1 n=a#4 v=79
97914 On ch=1 n=a#4 v=0
97914 On ch=1 n=g5 v=0
97914 On ch=1 n=d#5 v=0
97914 On ch=1 n=f5 v=84
97914 On ch=1 n=d5 v=84
97914 On ch=1 n=f4 v=84
98252 On ch=1 n=f4 v=0
98252 On ch=1 n=d5 v=0
98252 On ch=1 n=f5 v=0
98252 On ch=1 n=f5 v=96
98252 On ch=1 n=d5 v=96
99536 On ch=1 n=d5 v=0
99536 On ch=1 n=f5 v=0
99536 On ch=1 n=g5 v=96
99536 On ch=1 n=d#5 v=96
99536 On ch=1 n=g4 v=96
100184 On ch=1 n=g4 v=0
100184 On ch=1 n=a4 v=88
100808 On ch=1 n=a4 v=0
100808 On ch=1 n=a#4 v=86
101720 On ch=1 n=a#4 v=0
101720 On ch=1 n=d#5 v=0
101720 On ch=1 n=g5 v=0
101720 On ch=1 n=f5 v=96
101720 On ch=1 n=d5 v=96
101720 On ch=1 n=f4 v=96
102072 On ch=1 n=f4 v=0
102072 On ch=1 n=d5 v=0
102072 On ch=1 n=f5 v=0
102072 On ch=1 n=f5 v=96
102072 On ch=1 n=d5 v=96
102072 On ch=1 n=f4 v=96
103352 On ch=1 n=f4 v=0
103352 On ch=1 n=d5 v=0
103352 On ch=1 n=f5 v=0
103352 On ch=1 n=g5 v=96
103352 On ch=1 n=d#5 v=96
103352 On ch=1 n=g4 v=96
104040 On ch=1 n=g4 v=0
104040 On ch=1 n=a4 v=93
104662 On ch=1 n=a4 v=0
104662 On ch=1 n=b4 v=85
105274 On ch=1 n=b4 v=0
105274 On ch=1 n=d#5 v=0
105274 On ch=1 n=g5 v=0
105274 On ch=1 n=d5 v=96
105274 On ch=1 n=f5 v=96
105274 On ch=1 n=g4 v=96
105938 On ch=1 n=g4 v=0
105938 On ch=1 n=f5 v=0
105938 On ch=1 n=d5 v=0
105938 On ch=1 n=d5 v=96
105938 On ch=1 n=f5 v=96
105938 On ch=1 n=g4 v=96
105938 On ch=1 n=g4 v=96
108488 On ch=1 n=g4 v=0
108488 On ch=1 n=f5 v=0
108488 On ch=1 n=d5 v=0
108488 On ch=1 n=d#5 v=96
108488 On ch=1 n=c5 v=96
109756 On ch=1 n=c5 v=0
109756 On ch=1 n=d#5 v=0
109756 On ch=1 n=g4 v=0
109756 On ch=1 n=d#5 v=96
109756 On ch=1 n=g5 v=96
109756 On ch=1 n=g4 v=96
111052 On ch=1 n=g4 v=0
111052 On ch=1 n=g5 v=0
111052 On ch=1 n=d#5 v=0
111052 On ch=1 n=f5 v=96
111052 On ch=1 n=g#5 v=96
111052 On ch=1 n=g#4 v=96
111674 On ch=1 n=g#4 v=0
111674 On ch=1 n=b4 v=84
112318 On ch=1 n=b4 v=0
112318 On ch=1 n=c5 v=85
113216 On ch=1 n=c5 v=0
113216 On ch=1 n=g#5 v=0
113216 On ch=1 n=f5 v=0
113216 On ch=1 n=g5 v=96
113216 On ch=1 n=d#5 v=96
113216 On ch=1 n=g4 v=96
113516 On ch=1 n=g4 v=0
113516 On ch=1 n=d#5 v=0
113516 On ch=1 n=g5 v=0
113516 On ch=1 n=d#5 v=96
113516 On ch=1 n=g5 v=96
113516 On ch=1 n=g4 v=96
114802 On ch=1 n=g4 v=0
114802 On ch=1 n=g5 v=0
114802 On ch=1 n=d#5 v=0
114802 On ch=1 n=f5 v=91
114802 On ch=1 n=g#5 v=91
114802 On ch=1 n=g#4 v=91
115422 On ch=1 n=g#4 v=0
115422 On ch=1 n=b4 v=88
116052 On ch=1 n=b4 v=0
116052 On ch=1 n=c5 v=93
116648 On ch=1 n=c5 v=0
116648 On ch=1 n=g#5 v=0
116648 On ch=1 n=f5 v=0
116648 On ch=1 n=g5 v=96
116648 On ch=1 n=d#5 v=96
116648 On ch=1 n=g4 v=96
117282 On ch=1 n=g4 v=0
117282 On ch=1 n=d#5 v=0
117282 On ch=1 n=g5 v=0
117282 On ch=1 n=g5 v=96
117282 On ch=1 n=a4 v=96
117282 On ch=1 n=d#5 v=96
119148 On ch=1 n=g5 v=0
119148 On ch=1 n=f5 v=93
119774 On ch=1 n=f5 v=0
119774 On ch=1 n=d#5 v=0
119774 On ch=1 n=a4 v=0
119774 On ch=1 n=g5 v=96
119774 On ch=1 n=d5 v=96
119774 On ch=1 n=a#4 v=96
120726 On ch=1 n=g5 v=0
120726 On ch=1 n=f5 v=93
120996 On ch=1 n=f5 v=0
120996 On ch=1 n=a#4 v=0
120996 On ch=1 n=d5 v=0
120996 On ch=1 n=c5 v=96
120996 On ch=1 n=a4 v=96
122210 On ch=1 n=a4 v=0
122210 On ch=1 n=c5 v=0
122834 On ch=1 n=f5 v=80
123452 On ch=1 n=f5 v=0
123452 On ch=1 n=f5 v=75
124060 On ch=1 n=f5 v=0
124060 On ch=1 n=f5 v=83
124696 On ch=1 n=f5 v=0
124696 On ch=1 n=d6 v=86
126540 On ch=1 n=d6 v=0
126540 On ch=1 n=d6 v=84
127156 On ch=1 n=d6 v=0
127156 On ch=1 n=d#6 v=83
127308 On ch=1 n=d#6 v=0
127308 On ch=1 n=d6 v=83
127462 On ch=1 n=d6 v=0
127462 On ch=1 n=c6 v=83
127754 On ch=1 n=c6 v=0
127754 On ch=1 n=a5 v=85
128366 On ch=1 n=a5 v=0
128366 On ch=1 n=a#5 v=82
128568 On ch=1 n=a#5 v=0
128568 On ch=1 n=c6 v=82
128770 On ch=1 n=c6 v=0
128770 On ch=1 n=a#5 v=82
128982 On ch=1 n=a#5 v=0
128982 On ch=1 n=a5 v=84
129186 On ch=1 n=a5 v=0
129186 On ch=1 n=a#5 v=84
129392 On ch=1 n=a#5 v=0
129392 On ch=1 n=c6 v=84
129566 On ch=1 n=c6 v=0
129566 On ch=1 n=d6 v=79
129766 On ch=1 n=d6 v=0
129766 On ch=1 n=d#6 v=79
129966 On ch=1 n=d#6 v=0
129966 On ch=1 n=f6 v=79
130190 On ch=1 n=f6 v=0
130190 On ch=1 n=g6 v=79
130342 On ch=1 n=g6 v=0
130342 On ch=1 n=a6 v=79
130492 On ch=1 n=a6 v=0
130492 On ch=1 n=a#6 v=79
130644 On ch=1 n=a#6 v=0
130644 On ch=1 n=g6 v=79
130812 On ch=1 n=g6 v=0
130812 On ch=1 n=f6 v=75
131756 On ch=1 n=f6 v=0
131756 On ch=1 n=d#6 v=79
132054 On ch=1 n=d#6 v=0
132054 On ch=1 n=d6 v=77
132132 On ch=1 n=d6 v=0
132132 On ch=1 n=d#6 v=77
132210 On ch=1 n=d#6 v=0
132210 On ch=1 n=d6 v=77
132442 On ch=1 n=d6 v=0
132442 On ch=1 n=d#6 v=77
132784 On ch=1 n=d#6 v=0
132784 On ch=1 n=d6 v=77
132994 On ch=1 n=d6 v=0
132994 On ch=1 n=c6 v=77
133204 On ch=1 n=c6 v=0
133204 On ch=1 n=d6 v=77
133406 On ch=1 n=d6 v=0
133406 On ch=1 n=d#6 v=78
133618 On ch=1 n=d#6 v=0
133618 On ch=1 n=f6 v=78
133830 On ch=1 n=f6 v=0
133830 On ch=1 n=g6 v=78
134036 On ch=1 n=g6 v=0
134036 On ch=1 n=a6 v=77
134246 On ch=1 n=a6 v=0
134246 On ch=1 n=g6 v=77
134454 On ch=1 n=g6 v=0
134454 On ch=1 n=a6 v=77
134658 On ch=1 n=a6 v=0
134658 On ch=1 n=c7 v=71
135292 On ch=1 n=c7 v=0
135292 On ch=1 n=a#6 v=74
135764 On ch=1 n=a#6 v=0
135764 On ch=1 n=a6 v=74
135834 On ch=1 n=a6 v=0
135834 On ch=1 n=a6 v=74
136806 On ch=1 n=a6 v=0
136806 On ch=1 n=g6 v=74
137106 On ch=1 n=g6 v=0
137106 On ch=1 n=a6 v=74
137266 On ch=1 n=a6 v=0
137266 On ch=1 n=g6 v=74
137424 On ch=1 n=g6 v=0
137424 On ch=1 n=f6 v=74
138396 On ch=1 n=f6 v=0
139004 On ch=1 n=f6 v=74
139004 On ch=1 n=d6 v=74
140058 On ch=1 n=d6 v=0
140058 On ch=1 n=f6 v=0
140058 On ch=1 n=d#6 v=78
140058 On ch=1 n=c6 v=78
140256 On ch=1 n=c6 v=0
140256 On ch=1 n=d#6 v=0
140256 On ch=1 n=f5 v=82
140726 On ch=1 n=f5 v=0
140726 On ch=1 n=d#6 v=82
140726 On ch=1 n=c6 v=82
140892 On ch=1 n=c6 v=0
140892 On ch=1 n=d#6 v=0
140892 On ch=1 n=f6 v=74
141376 On ch=1 n=f6 v=0
141376 On ch=1 n=c7 v=74
141376 On ch=1 n=d#7 v=74
141518 On ch=1 n=d#7 v=0
141518 On ch=1 n=c7 v=0
141518 On ch=1 n=f7 v=75
141992 On ch=1 n=f7 v=0
141992 On ch=1 n=d#8 v=75
141992 On ch=1 n=c8 v=75
142168 On ch=1 n=c8 v=0
142168 On ch=1 n=d#8 v=0
142168 On ch=1 n=d8 v=79
142168 On ch=1 n=a#7 v=79
142488 On ch=1 n=a#7 v=0
142488 On ch=1 n=d8 v=0
142832 On ch=1 n=d6 v=82
142832 On ch=1 n=a#5 v=82
143966 On ch=1 n=a#5 v=0
143966 On ch=1 n=d6 v=0
143966 On ch=1 n=c6 v=75
143966 On ch=1 n=a5 v=75
144112 On ch=1 n=a5 v=0
144112 On ch=1 n=c6 v=0
144112 On ch=1 n=d5 v=80
144592 On ch=1 n=d5 v=0
144592 On ch=1 n=c6 v=80
144592 On ch=1 n=a5 v=80
144746 On ch=1 n=a5 v=0
144746 On ch=1 n=c6 v=0
144746 On ch=1 n=d6 v=79
145222 On ch=1 n=d6 v=0
145222 On ch=1 n=c7 v=79
145222 On ch=1 n=a6 v=79
145358 On ch=1 n=a6 v=0
145358 On ch=1 n=c7 v=0
145358 On ch=1 n=d7 v=75
145826 On ch=1 n=d7 v=0
145826 On ch=1 n=c8 v=75
145826 On ch=1 n=a7 v=75
145992 On ch=1 n=a7 v=0
145992 On ch=1 n=c8 v=0
145992 On ch=1 n=a#7 v=96
145992 On ch=1 n=g7 v=96
146304 On ch=1 n=g7 v=0
146304 On ch=1 n=a#7 v=0
146612 On ch=1 n=a#5 v=91
146612 On ch=1 n=g5 v=91
147256 On ch=1 n=a#5 v=0
147256 On ch=1 n=b5 v=80
147572 On ch=1 n=b5 v=0
147572 On ch=1 n=c6 v=80
147850 On ch=1 n=c6 v=0
147850 On ch=1 n=b5 v=83
148056 On ch=1 n=b5 v=0
148056 On ch=1 n=a5 v=83
148262 On ch=1 n=a5 v=0
148262 On ch=1 n=b5 v=83
148464 On ch=1 n=b5 v=0
148464 On ch=1 n=c6 v=79
148666 On ch=1 n=c6 v=0
148666 On ch=1 n=d6 v=79
148866 On ch=1 n=d6 v=0
148866 On ch=1 n=c6 v=79
149080 On ch=1 n=c6 v=0
149080 On ch=1 n=b5 v=75
149286 On ch=1 n=b5 v=0
149286 On ch=1 n=c6 v=75
149490 On ch=1 n=c6 v=0
149490 On ch=1 n=d6 v=75
149714 On ch=1 n=d6 v=0
149714 On ch=1 n=g5 v=0
149714 On ch=1 n=f6 v=77
149714 On ch=1 n=g5 v=77
150326 On ch=1 n=f6 v=0
150326 On ch=1 n=d#6 v=78
150638 On ch=1 n=g5 v=0
150638 On ch=1 n=d#5 v=78
150794 On ch=1 n=d#6 v=0
150794 On ch=1 n=c6 v=78
150940 On ch=1 n=c6 v=0
150940 On ch=1 n=d#5 v=0
150940 On ch=1 n=a#5 v=72
150940 On ch=1 n=d5 v=72
152184 On ch=1 n=d5 v=0
152184 On ch=1 n=a#5 v=0
152184 On ch=1 n=c6 v=74
152184 On ch=1 n=c5 v=74
152340 On ch=1 n=c6 v=0
152340 On ch=1 n=a#5 v=74
152496 On ch=1 n=a#5 v=0
152496 On ch=1 n=a5 v=74
152820 On ch=1 n=a5 v=0
152820 On ch=1 n=c5 v=0
153474 On ch=1 n=c#6 v=77
153474 On ch=1 n=a5 v=77
153474 On ch=1 n=f5 v=77
153474 On ch=1 n=d#5 v=77
154782 On ch=1 n=d#5 v=0
154782 On ch=1 n=f5 v=0
154782 On ch=1 n=a5 v=0
154782 On ch=1 n=c#6 v=0
154782 On ch=1 n=d6 v=71
154782 On ch=1 n=a#5 v=71
154782 On ch=1 n=f5 v=71
154782 On ch=1 n=d5 v=71
155436 On ch=1 n=f5 v=0
156744 On ch=1 n=d5 v=0
156744 On ch=1 n=a#5 v=0
156744 On ch=1 n=d6 v=0
156744 On ch=1 n=d6 v=72
157378 On ch=1 n=d6 v=0
157378 On ch=1 n=d#6 v=67
157538 On ch=1 n=d#6 v=0
157538 On ch=1 n=d6 v=67
157698 On ch=1 n=d6 v=0
157698 On ch=1 n=c6 v=67
158000 On ch=1 n=c6 v=0
158000 On ch=1 n=a5 v=72
158660 On ch=1 n=a5 v=0
158660 On ch=1 n=a#5 v=70
158874 On ch=1 n=a#5 v=0
158874 On ch=1 n=c6 v=70
159088 On ch=1 n=c6 v=0
159088 On ch=1 n=a#5 v=70
159318 On ch=1 n=a#5 v=0
159318 On ch=1 n=a5 v=69
159538 On ch=1 n=a5 v=0
159538 On ch=1 n=a#5 v=69
159758 On ch=1 n=a#5 v=0
159758 On ch=1 n=c6 v=69
159972 On ch=1 n=c6 v=0
159972 On ch=1 n=d6 v=71
160192 On ch=1 n=d6 v=0
160192 On ch=1 n=d#6 v=71
160410 On ch=1 n=d#6 v=0
160410 On ch=1 n=f6 v=71
160632 On ch=1 n=f6 v=0
160632 On ch=1 n=g6 v=70
160796 On ch=1 n=g6 v=0
160796 On ch=1 n=a6 v=70
160960 On ch=1 n=a6 v=0
160960 On ch=1 n=a#6 v=70
161126 On ch=1 n=a#6 v=0
161126 On ch=1 n=g6 v=70
161276 On ch=1 n=g6 v=0
161276 On ch=1 n=f6 v=72
162230 On ch=1 n=f6 v=0
162230 On ch=1 n=d#6 v=72
162536 On ch=1 n=d#6 v=0
162536 On ch=1 n=d6 v=74
162746 On ch=1 n=d6 v=0
162746 On ch=1 n=c#6 v=74
162956 On ch=1 n=c#6 v=0
162956 On ch=1 n=d6 v=74
163172 On ch=1 n=d6 v=0
163172 On ch=1 n=c7 v=72
163382 On ch=1 n=c7 v=0
163382 On ch=1 n=a#6 v=72
163592 On ch=1 n=a#6 v=0
163592 On ch=1 n=c8 v=72
163816 On ch=1 n=c8 v=0
163816 On ch=1 n=a#7 v=72
164136 On ch=1 n=a#7 v=0
164136 On ch=1 n=g#7 v=72
164296 On ch=1 n=g#7 v=0
164296 On ch=1 n=f7 v=72
164454 On ch=1 n=f7 v=0
164454 On ch=1 n=d7 v=66
164582 On ch=1 n=d7 v=0
164582 On ch=1 n=a#6 v=66
164710 On ch=1 n=a#6 v=0
164710 On ch=1 n=g#6 v=66
164838 On ch=1 n=g#6 v=0
164838 On ch=1 n=f6 v=66
164968 On ch=1 n=f6 v=0
164968 On ch=1 n=d6 v=66
165112 On ch=1 n=d6 v=0
165112 On ch=1 n=b5 v=63
166046 On ch=1 n=b5 v=0
166046 On ch=1 n=a#5 v=72
166398 On ch=1 n=a#5 v=0
166398 On ch=1 n=a#5 v=65
166560 On ch=1 n=a#5 v=0
166560 On ch=1 n=g#5 v=65
166720 On ch=1 n=g#5 v=0
166720 On ch=1 n=a#5 v=65
166880 On ch=1 n=a#5 v=0
166880 On ch=1 n=g#5 v=65
167010 On ch=1 n=g#5 v=0
167010 On ch=1 n=a#5 v=66
167170 On ch=1 n=a#5 v=0
167170 On ch=1 n=g#5 v=66
167330 On ch=1 n=g#5 v=0
167330 On ch=1 n=a#5 v=66
167492 On ch=1 n=a#5 v=0
167492 On ch=1 n=g#5 v=66
167610 On ch=1 n=g#5 v=0
167610 On ch=1 n=a#5 v=70
167762 On ch=1 n=a#5 v=0
167762 On ch=1 n=g#5 v=70
167914 On ch=1 n=g#5 v=0
167914 On ch=1 n=a#5 v=70
168064 On ch=1 n=a#5 v=0
168064 On ch=1 n=g#5 v=70
168304 On ch=1 n=g#5 v=0
168304 On ch=1 n=a#5 v=65
168466 On ch=1 n=a#5 v=0
168466 On ch=1 n=g#5 v=65
168628 On ch=1 n=g#5 v=0
168628 On ch=1 n=g5 v=65
168790 On ch=1 n=g5 v=0
168790 On ch=1 n=g#5 v=65
168940 On ch=1 n=g#5 v=0
168940 On ch=1 n=g5 v=71
170230 On ch=1 n=g5 v=0
170230 On ch=1 n=f5 v=79
170880 On ch=1 n=f5 v=0
170880 On ch=1 n=g6 v=75
171196 On ch=1 n=g6 v=0
171196 On ch=1 n=f6 v=75
172144 On ch=1 n=f6 v=0
172144 On ch=1 n=g7 v=80
172460 On ch=1 n=g7 v=0
172618 On ch=1 n=f7 v=80
172802 On ch=1 n=f7 v=0
172802 On ch=1 n=d#7 v=80
172882 On ch=1 n=d#7 v=0
172882 On ch=1 n=f7 v=80
172962 On ch=1 n=f7 v=0
172962 On ch=1 n=d#7 v=80
173122 On ch=1 n=d#7 v=0
173284 On ch=1 n=d7 v=80
173424 On ch=1 n=d7 v=0
173424 On ch=1 n=c7 v=80
173504 On ch=1 n=c7 v=0
173504 On ch=1 n=d7 v=80
173584 On ch=1 n=d7 v=0
173584 On ch=1 n=c7 v=80
173744 On ch=1 n=c7 v=0
173904 On ch=1 n=a#6 v=80
174102 On ch=1 n=a#6 v=0
174102 On ch=1 n=a#6 v=78
174844 On ch=1 n=a#6 v=0
174844 On ch=1 n=a6 v=72
176128 On ch=1 n=a6 v=0
176128 On ch=1 n=g#6 v=74
177434 On ch=1 n=g#6 v=0
177434 On ch=1 n=g6 v=80
178108 On ch=1 n=g6 v=0
178108 On ch=1 n=a#6 v=79
178276 On ch=1 n=a#6 v=0
178276 On ch=1 n=c7 v=79
178444 On ch=1 n=c7 v=0
178444 On ch=1 n=c#7 v=79
178748 On ch=1 n=c#7 v=0
178748 On ch=1 n=c#7 v=83
178912 On ch=1 n=c#7 v=0
178912 On ch=1 n=e7 v=83
179076 On ch=1 n=e7 v=0
179076 On ch=1 n=e8 v=83
179436 On ch=1 n=e8 v=0
179436 On ch=1 n=d7 v=88
179520 On ch=1 n=d7 v=0
179520 On ch=1 n=f7 v=88
179602 On ch=1 n=f7 v=0
179602 On ch=1 n=f8 v=88
179768 On ch=1 n=f8 v=0
179768 On ch=1 n=d8 v=88
180088 On ch=1 n=d8 v=0
180088 On ch=1 n=a#7 v=79
180424 On ch=1 n=a#7 v=0
180424 On ch=1 n=f7 v=79
180732 On ch=1 n=f7 v=0
180732 On ch=1 n=d7 v=88
181056 On ch=1 n=d7 v=0
181056 On ch=1 n=a#6 v=88
181368 On ch=1 n=a#6 v=0
181368 On ch=1 n=f6 v=82
181688 On ch=1 n=f6 v=0
181688 On ch=1 n=d6 v=82
182022 On ch=1 n=d6 v=0
182022 On ch=1 n=d#6 v=86
182102 On ch=1 n=d#6 v=0
182102 On ch=1 n=g6 v=86
182344 On ch=1 n=g6 v=0
182344 On ch=1 n=f6 v=86
182666 On ch=1 n=f6 v=0
182666 On ch=1 n=d#6 v=85
183154 On ch=1 n=d#6 v=0
183154 On ch=1 n=a5 v=85
183320 On ch=1 n=a5 v=0
183320 On ch=1 n=c6 v=82
183320 On ch=1 n=d#5 v=82
184582 On ch=1 n=d#5 v=0
184582 On ch=1 n=c6 v=0
184582 On ch=1 n=a#5 v=86
184582 On ch=1 n=d5 v=86
185224 On ch=1 n=d5 v=0
185224 On ch=1 n=a#5 v=0
186542 On ch=1 n=d6 v=91
186542 On ch=1 n=a5 v=91
186708 On ch=1 n=d6 v=0
186708 On ch=1 n=c6 v=91
186872 On ch=1 n=c6 v=0
186872 On ch=1 n=d6 v=91
187036 On ch=1 n=d6 v=0
187036 On ch=1 n=c6 v=91
187170 On ch=1 n=c6 v=0
187170 On ch=1 n=a5 v=0
187170 On ch=1 n=a#5 v=96
187170 On ch=1 n=g5 v=96
188140 On ch=1 n=g5 v=0
188140 On ch=1 n=a#5 v=0
188140 On ch=1 n=c6 v=88
188140 On ch=1 n=a5 v=88
188438 On ch=1 n=a5 v=0
188438 On ch=1 n=c6 v=0
188438 On ch=1 n=d6 v=96
188438 On ch=1 n=a#5 v=96
188914 On ch=1 n=a#5 v=0
188914 On ch=1 n=d6 v=0
188914 On ch=1 n=d#6 v=96
188914 On ch=1 n=c6 v=96
189094 On ch=1 n=c6 v=0
189094 On ch=1 n=d#6 v=0
189094 On ch=1 n=f6 v=96
189094 On ch=1 n=d6 v=96
189572 On ch=1 n=d6 v=0
189572 On ch=1 n=f6 v=0
189572 On ch=1 n=g6 v=96
189572 On ch=1 n=d#6 v=96
189734 On ch=1 n=d#6 v=0
189734 On ch=1 n=g6 v=0
189734 On ch=1 n=f6 v=96
189734 On ch=1 n=d6 v=96
191034 On ch=1 n=d6 v=0
191034 On ch=1 n=f6 v=0
191034 On ch=1 n=a6 v=96
191034 On ch=1 n=f6 v=96
191034 On ch=1 n=c6 v=96
191196 On ch=1 n=f6 v=0
191196 On ch=1 n=d#6 v=96
191360 On ch=1 n=d#6 v=0
191360 On ch=1 n=f6 v=96
191522 On ch=1 n=f6 v=0
191522 On ch=1 n=d#6 v=96
191666 On ch=1 n=d#6 v=0
191666 On ch=1 n=f6 v=96
191830 On ch=1 n=f6 v=0
191830 On ch=1 n=d#6 v=96
191994 On ch=1 n=d#6 v=0
191994 On ch=1 n=d6 v=96
192160 On ch=1 n=d6 v=0
192160 On ch=1 n=d#6 v=96
192312 On ch=1 n=d#6 v=0
192312 On ch=1 n=c6 v=0
192312 On ch=1 n=a6 v=0
192312 On ch=1 n=a#6 v=96
192312 On ch=1 n=d6 v=96
192312 On ch=1 n=a#5 v=96
193004 On ch=1 n=a#5 v=0
193004 On ch=1 n=d6 v=0
193004 On ch=1 n=a#6 v=0
194266 On ch=1 n=d6 v=96
194266 On ch=1 n=a5 v=96
194424 On ch=1 n=d6 v=0
194424 On ch=1 n=c6 v=96
194582 On ch=1 n=c6 v=0
194582 On ch=1 n=d6 v=96
194740 On ch=1 n=d6 v=0
194740 On ch=1 n=c6 v=96
194888 On ch=1 n=c6 v=0
194888 On ch=1 n=a5 v=0
194888 On ch=1 n=a#5 v=96
194888 On ch=1 n=g5 v=96
195842 On ch=1 n=g5 v=0
195842 On ch=1 n=a#5 v=0
195842 On ch=1 n=c6 v=96
195842 On ch=1 n=a5 v=96
196148 On ch=1 n=a5 v=0
196148 On ch=1 n=c6 v=0
196148 On ch=1 n=d6 v=96
196148 On ch=1 n=a#5 v=96
196620 On ch=1 n=a#5 v=0
196620 On ch=1 n=d6 v=0
196620 On ch=1 n=d#6 v=96
196620 On ch=1 n=c6 v=96
196782 On ch=1 n=c6 v=0
196782 On ch=1 n=d#6 v=0
196782 On ch=1 n=f6 v=96
196782 On ch=1 n=d6 v=96
197254 On ch=1 n=d6 v=0
197254 On ch=1 n=f6 v=0
197254 On ch=1 n=g6 v=96
197254 On ch=1 n=d#6 v=96
197430 On ch=1 n=d#6 v=0
197430 On ch=1 n=g6 v=0
197430 On ch=1 n=f6 v=96
197430 On ch=1 n=d6 v=96
198698 On ch=1 n=d6 v=0
198698 On ch=1 n=f6 v=0
198698 On ch=1 n=a6 v=96
198698 On ch=1 n=f6 v=96
198698 On ch=1 n=c6 v=96
198856 On ch=1 n=f6 v=0
198856 On ch=1 n=d#6 v=96
199016 On ch=1 n=d#6 v=0
199016 On ch=1 n=f6 v=96
199174 On ch=1 n=f6 v=0
199174 On ch=1 n=d#6 v=96
199316 On ch=1 n=d#6 v=0
199316 On ch=1 n=f6 v=96
199472 On ch=1 n=f6 v=0
199472 On ch=1 n=d#6 v=96
199626 On ch=1 n=d#6 v=0
199626 On ch=1 n=d6 v=96
199782 On ch=1 n=d6 v=0
199782 On ch=1 n=d#6 v=96
199958 On ch=1 n=d#6 v=0
199958 On ch=1 n=c6 v=0
199958 On ch=1 n=a6 v=0
199958 On ch=1 n=a#6 v=96
199958 On ch=1 n=d6 v=96
199958 On ch=1 n=a#5 v=96
200274 On ch=1 n=a#5 v=0
200274 On ch=1 n=d6 v=0
200274 On ch=1 n=a#6 v=0
201928 On ch=1 n=d#6 v=96
201928 On ch=1 n=b5 v=96
202090 On ch=1 n=d#6 v=0
202090 On ch=1 n=d6 v=96
202250 On ch=1 n=d6 v=0
202250 On ch=1 n=d#6 v=96
202412 On ch=1 n=d#6 v=0
202412 On ch=1 n=d6 v=96
202566 On ch=1 n=d6 v=0
202566 On ch=1 n=b5 v=0
202566 On ch=1 n=c6 v=96
202566 On ch=1 n=a5 v=96
203526 On ch=1 n=a5 v=0
203526 On ch=1 n=c6 v=0
203526 On ch=1 n=d6 v=96
203526 On ch=1 n=b5 v=96
203824 On ch=1 n=b5 v=0
203824 On ch=1 n=d6 v=0
203824 On ch=1 n=d#6 v=96
203824 On ch=1 n=c6 v=96
204296 On ch=1 n=c6 v=0
204296 On ch=1 n=d#6 v=0
204296 On ch=1 n=f6 v=96
204296 On ch=1 n=d6 v=96
204426 On ch=1 n=d6 v=0
204426 On ch=1 n=f6 v=0
204426 On ch=1 n=g6 v=96
204426 On ch=1 n=d#6 v=96
204884 On ch=1 n=d#6 v=0
204884 On ch=1 n=g6 v=0
204884 On ch=1 n=g#6 v=96
204884 On ch=1 n=f6 v=96
205050 On ch=1 n=f6 v=0
205050 On ch=1 n=g#6 v=0
205050 On ch=1 n=g6 v=96
205050 On ch=1 n=d#6 v=96
206352 On ch=1 n=d#6 v=0
206352 On ch=1 n=g6 v=0
206352 On ch=1 n=b6 v=96
206352 On ch=1 n=g6 v=96
206352 On ch=1 n=d6 v=96
206516 On ch=1 n=g6 v=0
206516 On ch=1 n=f6 v=96
206678 On ch=1 n=f6 v=0
206678 On ch=1 n=g6 v=96
206840 On ch=1 n=g6 v=0
206840 On ch=1 n=f6 v=96
206970 On ch=1 n=f6 v=0
206970 On ch=1 n=g6 v=96
207122 On ch=1 n=g6 v=0
207122 On ch=1 n=f6 v=96
207274 On ch=1 n=f6 v=0
207274 On ch=1 n=d#6 v=96
207424 On ch=1 n=d#6 v=0
207424 On ch=1 n=f6 v=96
207610 On ch=1 n=f6 v=0
207610 On ch=1 n=d6 v=0
207610 On ch=1 n=b6 v=0
207610 On ch=1 n=c7 v=96
207610 On ch=1 n=d#6 v=96
207610 On ch=1 n=c6 v=96
208266 On ch=1 n=c6 v=0
208266 On ch=1 n=d#6 v=0
208266 On ch=1 n=c7 v=0
209556 On ch=1 n=d#6 v=96
209556 On ch=1 n=b5 v=96
209718 On ch=1 n=d#6 v=0
209718 On ch=1 n=d6 v=96
209878 On ch=1 n=d6 v=0
209878 On ch=1 n=d#6 v=96
210040 On ch=1 n=d#6 v=0
210040 On ch=1 n=d6 v=96
210168 On ch=1 n=d6 v=0
210168 On ch=1 n=b5 v=0
210168 On ch=1 n=c6 v=93
210168 On ch=1 n=a5 v=93
211102 On ch=1 n=a5 v=0
211102 On ch=1 n=c6 v=0
211102 On ch=1 n=d6 v=88
211102 On ch=1 n=b5 v=88
211392 On ch=1 n=b5 v=0
211392 On ch=1 n=d6 v=0
211392 On ch=1 n=d#6 v=94
211392 On ch=1 n=c6 v=94
212038 On ch=1 n=c6 v=0
212038 On ch=1 n=d#6 v=0
212038 On ch=1 n=a#6 v=91
212038 On ch=1 n=d#6 v=91
212038 On ch=1 n=c6 v=91
212716 On ch=1 n=a#6 v=0
212716 On ch=1 n=a6 v=96
213360 On ch=1 n=a6 v=0
213360 On ch=1 n=c6 v=0
213360 On ch=1 n=d#6 v=0
214680 On ch=1 n=c5 v=80
214846 On ch=1 n=c5 v=0
214846 On ch=1 n=c#5 v=80
215010 On ch=1 n=c#5 v=0
215010 On ch=1 n=d#5 v=80
215176 On ch=1 n=d#5 v=0
215176 On ch=1 n=f5 v=80
215274 On ch=1 n=f5 v=0
215274 On ch=1 n=f#5 v=78
215894 On ch=1 n=f#5 v=0
215894 On ch=1 n=a#5 v=96
215894 On ch=1 n=e5 v=96
215894 On ch=1 n=c5 v=96
216532 On ch=1 n=e5 v=0
216532 On ch=1 n=a#5 v=0
216532 On ch=1 n=a5 v=96
216532 On ch=1 n=f5 v=96
217198 On ch=1 n=f5 v=0
217198 On ch=1 n=a5 v=0
217198 On ch=1 n=c5 v=0
218490 On ch=1 n=c5 v=88
218652 On ch=1 n=c5 v=0
218652 On ch=1 n=c#5 v=88
218814 On ch=1 n=c#5 v=0
218814 On ch=1 n=d#5 v=88
218974 On ch=1 n=d#5 v=0
218974 On ch=1 n=f5 v=88
219078 On ch=1 n=f5 v=0
219078 On ch=1 n=f#5 v=96
219698 On ch=1 n=f#5 v=0
219698 On ch=1 n=a#5 v=96
219698 On ch=1 n=e5 v=96
219698 On ch=1 n=c5 v=96
220334 On ch=1 n=e5 v=0
220334 On ch=1 n=a#5 v=0
220334 On ch=1 n=a5 v=96
220334 On ch=1 n=f5 v=96
220976 On ch=1 n=f5 v=0
220976 On ch=1 n=a5 v=0
220976 On ch=1 n=c5 v=0
230016 On ch=1 n=d6 v=84
230636 On ch=1 n=d6 v=0
230636 On ch=1 n=d#6 v=91
230790 On ch=1 n=d#6 v=0
230790 On ch=1 n=d6 v=91
230946 On ch=1 n=d6 v=0
230946 On ch=1 n=c6 v=91
231242 On ch=1 n=c6 v=0
231242 On ch=1 n=a5 v=78
231876 On ch=1 n=a5 v=0
231876 On ch=1 n=a#5 v=79
232082 On ch=1 n=a#5 v=0
232082 On ch=1 n=c6 v=79
232290 On ch=1 n=c6 v=0
232290 On ch=1 n=a#5 v=79
232498 On ch=1 n=a#5 v=0
232498 On ch=1 n=a5 v=84
232708 On ch=1 n=a5 v=0
232708 On ch=1 n=a#5 v=84
232916 On ch=1 n=a#5 v=0
232916 On ch=1 n=c6 v=84
233118 On ch=1 n=c6 v=0
233118 On ch=1 n=d6 v=89
233326 On ch=1 n=d6 v=0
233326 On ch=1 n=d#6 v=89
233532 On ch=1 n=d#6 v=0
233532 On ch=1 n=f6 v=89
233726 On ch=1 n=f6 v=0
233726 On ch=1 n=g6 v=86
233880 On ch=1 n=g6 v=0
233880 On ch=1 n=a6 v=86
234034 On ch=1 n=a6 v=0
234034 On ch=1 n=a#6 v=86
234186 On ch=1 n=a#6 v=0
234186 On ch=1 n=g6 v=86
234372 On ch=1 n=g6 v=0
234372 On ch=1 n=f6 v=78
235362 On ch=1 n=f6 v=0
235362 On ch=1 n=d#6 v=82
235674 On ch=1 n=d#6 v=0
235674 On ch=1 n=d6 v=86
235756 On ch=1 n=d6 v=0
235756 On ch=1 n=d#6 v=86
235838 On ch=1 n=d#6 v=0
235838 On ch=1 n=d6 v=86
236000 On ch=1 n=d6 v=0
236000 On ch=1 n=d#6 v=86
236332 On ch=1 n=d#6 v=0
236332 On ch=1 n=d6 v=96
236548 On ch=1 n=d6 v=0
236548 On ch=1 n=c6 v=96
236766 On ch=1 n=c6 v=0
236766 On ch=1 n=d6 v=96
236962 On ch=1 n=d6 v=0
236962 On ch=1 n=d#6 v=86
237178 On ch=1 n=d#6 v=0
237178 On ch=1 n=f6 v=86
237392 On ch=1 n=f6 v=0
237392 On ch=1 n=g6 v=86
237600 On ch=1 n=g6 v=0
237600 On ch=1 n=a6 v=82
237812 On ch=1 n=a6 v=0
237812 On ch=1 n=g6 v=82
238022 On ch=1 n=g6 v=0
238022 On ch=1 n=a6 v=82
238242 On ch=1 n=a6 v=0
238242 On ch=1 n=c7 v=83
238910 On ch=1 n=c7 v=0
238910 On ch=1 n=a#6 v=88
239402 On ch=1 n=a#6 v=0
239402 On ch=1 n=a#6 v=88
239616 On ch=1 n=a#6 v=0
239616 On ch=1 n=a6 v=75
240634 On ch=1 n=a6 v=0
240634 On ch=1 n=g6 v=82
240864 On ch=1 n=g6 v=0
240864 On ch=1 n=a6 v=84
241020 On ch=1 n=a6 v=0
241020 On ch=1 n=g6 v=84
241176 On ch=1 n=g6 v=0
241176 On ch=1 n=f6 v=84
242232 On ch=1 n=f6 v=0
242868 On ch=1 n=f6 v=82
242868 On ch=1 n=d6 v=82
243986 On ch=1 n=d6 v=0
243986 On ch=1 n=f6 v=0
243986 On ch=1 n=d#6 v=84
243986 On ch=1 n=c6 v=84
244162 On ch=1 n=c6 v=0
244162 On ch=1 n=d#6 v=0
244162 On ch=1 n=f5 v=72
244648 On ch=1 n=f5 v=0
244648 On ch=1 n=d#6 v=72
244648 On ch=1 n=c6 v=72
244812 On ch=1 n=c6 v=0
244812 On ch=1 n=d#6 v=0
244812 On ch=1 n=f6 v=90
245302 On ch=1 n=f6 v=0
245302 On ch=1 n=d#7 v=90
245302 On ch=1 n=c7 v=90
245442 On ch=1 n=c7 v=0
245442 On ch=1 n=d#7 v=0
245442 On ch=1 n=f7 v=80
245922 On ch=1 n=f7 v=0
245922 On ch=1 n=d#8 v=80
245922 On ch=1 n=c8 v=80
246108 On ch=1 n=c8 v=0
246108 On ch=1 n=d#8 v=0
246108 On ch=1 n=d8 v=72
246108 On ch=1 n=a#7 v=72
246432 On ch=1 n=a#7 v=0
246432 On ch=1 n=d8 v=0
246742 On ch=1 n=d6 v=80
246742 On ch=1 n=a#5 v=80
247918 On ch=1 n=a#5 v=0
247918 On ch=1 n=d6 v=0
247918 On ch=1 n=c6 v=78
247918 On ch=1 n=a5 v=78
248080 On ch=1 n=a5 v=0
248080 On ch=1 n=c6 v=0
248080 On ch=1 n=d5 v=80
248582 On ch=1 n=d5 v=0
248582 On ch=1 n=c6 v=80
248582 On ch=1 n=a5 v=80
248736 On ch=1 n=a5 v=0
248736 On ch=1 n=c6 v=0
248736 On ch=1 n=d6 v=75
249228 On ch=1 n=d6 v=0
249228 On ch=1 n=c7 v=75
249228 On ch=1 n=a6 v=75
249382 On ch=1 n=a6 v=0
249382 On ch=1 n=c7 v=0
249382 On ch=1 n=d7 v=79
249870 On ch=1 n=d7 v=0
249870 On ch=1 n=c8 v=79
249870 On ch=1 n=a7 v=79
250056 On ch=1 n=a7 v=0
250056 On ch=1 n=c8 v=0
250056 On ch=1 n=a#7 v=66
250056 On ch=1 n=g7 v=66
250386 On ch=1 n=g7 v=0
250386 On ch=1 n=a#7 v=0
250702 On ch=1 n=a#5 v=77
250702 On ch=1 n=g5 v=77
251356 On ch=1 n=g5 v=0
251356 On ch=1 n=a#5 v=0
251356 On ch=1 n=b5 v=82
251356 On ch=1 n=g5 v=82
251682 On ch=1 n=b5 v=0
251682 On ch=1 n=c6 v=82
252034 On ch=1 n=c6 v=0
252034 On ch=1 n=b5 v=80
252256 On ch=1 n=b5 v=0
252256 On ch=1 n=a5 v=80
252478 On ch=1 n=a5 v=0
252478 On ch=1 n=b5 v=80
252664 On ch=1 n=b5 v=0
252664 On ch=1 n=c6 v=69
252882 On ch=1 n=c6 v=0
252882 On ch=1 n=d6 v=69
253100 On ch=1 n=d6 v=0
253100 On ch=1 n=c6 v=69
253320 On ch=1 n=c6 v=0
253320 On ch=1 n=b5 v=79
253534 On ch=1 n=b5 v=0
253534 On ch=1 n=c6 v=79
253750 On ch=1 n=c6 v=0
253750 On ch=1 n=d6 v=79
253990 On ch=1 n=d6 v=0
253990 On ch=1 n=g5 v=0
253990 On ch=1 n=f6 v=79
253990 On ch=1 n=g5 v=79
254678 On ch=1 n=f6 v=0
254678 On ch=1 n=d#6 v=84
255018 On ch=1 n=g5 v=0
255018 On ch=1 n=d#5 v=84
255188 On ch=1 n=d#6 v=0
255188 On ch=1 n=c6 v=84
255316 On ch=1 n=c6 v=0
255316 On ch=1 n=d#5 v=0
255316 On ch=1 n=a#5 v=75
255316 On ch=1 n=d5 v=75
256608 On ch=1 n=d5 v=0
256608 On ch=1 n=a#5 v=0
256608 On ch=1 n=c6 v=82
256608 On ch=1 n=d5 v=82
256770 On ch=1 n=c6 v=0
256770 On ch=1 n=a#5 v=82
256932 On ch=1 n=a#5 v=0
256932 On ch=1 n=a5 v=82
257250 On ch=1 n=a5 v=0
257250 On ch=1 n=d5 v=0
257884 On ch=1 n=c#6 v=96
257884 On ch=1 n=a5 v=96
257884 On ch=1 n=f5 v=96
257884 On ch=1 n=d#5 v=96
259310 On ch=1 n=d#5 v=0
259310 On ch=1 n=f5 v=0
259310 On ch=1 n=a5 v=0
259310 On ch=1 n=c#6 v=0
259310 On ch=1 n=d6 v=91
259310 On ch=1 n=a#5 v=91
259310 On ch=1 n=f5 v=91
259310 On ch=1 n=d5 v=91
259978 On ch=1 n=f5 v=0
261286 On ch=1 n=d5 v=0
261286 On ch=1 n=a#5 v=0
261286 On ch=1 n=d6 v=0
261286 On ch=1 n=d6 v=80
261952 On ch=1 n=d6 v=0
261952 On ch=1 n=d#6 v=85
262116 On ch=1 n=d#6 v=0
262116 On ch=1 n=d6 v=85
262280 On ch=1 n=d6 v=0
262280 On ch=1 n=c6 v=85
262576 On ch=1 n=c6 v=0
262576 On ch=1 n=a5 v=77
263210 On ch=1 n=a5 v=0
263210 On ch=1 n=a#5 v=77
263420 On ch=1 n=a#5 v=0
263420 On ch=1 n=c6 v=77
263630 On ch=1 n=c6 v=0
263630 On ch=1 n=a#5 v=77
263890 On ch=1 n=a#5 v=0
263890 On ch=1 n=a5 v=70
264110 On ch=1 n=a5 v=0
264110 On ch=1 n=a#5 v=70
264328 On ch=1 n=a#5 v=0
264328 On ch=1 n=c6 v=70
264524 On ch=1 n=c6 v=0
264524 On ch=1 n=d6 v=77
264744 On ch=1 n=d6 v=0
264744 On ch=1 n=d#6 v=77
264962 On ch=1 n=d#6 v=0
264962 On ch=1 n=f6 v=77
265152 On ch=1 n=f6 v=0
265152 On ch=1 n=g6 v=77
265310 On ch=1 n=g6 v=0
265310 On ch=1 n=a6 v=77
265468 On ch=1 n=a6 v=0
265468 On ch=1 n=a#6 v=77
265626 On ch=1 n=a#6 v=0
265626 On ch=1 n=g6 v=77
265856 On ch=1 n=g6 v=0
265856 On ch=1 n=f6 v=79
266870 On ch=1 n=f6 v=0
266870 On ch=1 n=d#6 v=74
267150 On ch=1 n=d#6 v=0
267150 On ch=1 n=d6 v=83
267366 On ch=1 n=d6 v=0
267366 On ch=1 n=c#6 v=83
267582 On ch=1 n=c#6 v=0
267582 On ch=1 n=d6 v=83
267808 On ch=1 n=d6 v=0
267808 On ch=1 n=c7 v=85
268022 On ch=1 n=c7 v=0
268022 On ch=1 n=a#6 v=85
268236 On ch=1 n=a#6 v=0
268236 On ch=1 n=c8 v=85
268444 On ch=1 n=c8 v=0
268444 On ch=1 n=a#7 v=79
268768 On ch=1 n=a#7 v=0
268768 On ch=1 n=g#7 v=79
268930 On ch=1 n=g#7 v=0
268930 On ch=1 n=f7 v=79
269090 On ch=1 n=f7 v=0
269090 On ch=1 n=d7 v=80
269218 On ch=1 n=d7 v=0
269218 On ch=1 n=a#6 v=80
269346 On ch=1 n=a#6 v=0
269346 On ch=1 n=g#6 v=80
269474 On ch=1 n=g#6 v=0
269474 On ch=1 n=f6 v=80
269604 On ch=1 n=f6 v=0
269604 On ch=1 n=d6 v=80
269758 On ch=1 n=d6 v=0
269758 On ch=1 n=b5 v=78
270750 On ch=1 n=b5 v=0
270750 On ch=1 n=a#5 v=80
271056 On ch=1 n=a#5 v=0
271056 On ch=1 n=a#5 v=75
271218 On ch=1 n=a#5 v=0
271218 On ch=1 n=g#5 v=75
271380 On ch=1 n=g#5 v=0
271380 On ch=1 n=a#5 v=75
271544 On ch=1 n=a#5 v=0
271544 On ch=1 n=g#5 v=75
271726 On ch=1 n=g#5 v=0
271726 On ch=1 n=a#5 v=82
271890 On ch=1 n=a#5 v=0
271890 On ch=1 n=g#5 v=82
272054 On ch=1 n=g#5 v=0
272054 On ch=1 n=a#5 v=82
272216 On ch=1 n=a#5 v=0
272216 On ch=1 n=g#5 v=82
272384 On ch=1 n=g#5 v=0
272384 On ch=1 n=a#5 v=78
272550 On ch=1 n=a#5 v=0
272550 On ch=1 n=g#5 v=78
272716 On ch=1 n=g#5 v=0
272716 On ch=1 n=a#5 v=78
272882 On ch=1 n=a#5 v=0
272882 On ch=1 n=g#5 v=78
273038 On ch=1 n=g#5 v=0
273038 On ch=1 n=a#5 v=72
273202 On ch=1 n=a#5 v=0
273202 On ch=1 n=g#5 v=72
273366 On ch=1 n=g#5 v=0
273366 On ch=1 n=g5 v=72
273530 On ch=1 n=g5 v=0
273530 On ch=1 n=g#5 v=72
273680 On ch=1 n=g#5 v=0
273680 On ch=1 n=g5 v=80
275034 On ch=1 n=g5 v=0
275034 On ch=1 n=f5 v=83
275660 On ch=1 n=f5 v=0
275660 On ch=1 n=g6 v=93
275978 On ch=1 n=g6 v=0
275978 On ch=1 n=f6 v=93
276970 On ch=1 n=f6 v=0
276970 On ch=1 n=a7 v=96
277298 On ch=1 n=a7 v=0
277462 On ch=1 n=f7 v=96
277584 On ch=1 n=f7 v=0
277584 On ch=1 n=d#7 v=96
277664 On ch=1 n=d#7 v=0
277664 On ch=1 n=f7 v=96
277746 On ch=1 n=f7 v=0
277746 On ch=1 n=d#7 v=96
277906 On ch=1 n=d#7 v=0
278066 On ch=1 n=d7 v=96
278244 On ch=1 n=d7 v=0
278244 On ch=1 n=c7 v=96
278324 On ch=1 n=c7 v=0
278324 On ch=1 n=d7 v=96
278404 On ch=1 n=d7 v=0
278404 On ch=1 n=c7 v=96
278562 On ch=1 n=c7 v=0
278722 On ch=1 n=a#6 v=96
278866 On ch=1 n=a#6 v=0
278866 On ch=1 n=a#6 v=96
279534 On ch=1 n=a#6 v=0
279534 On ch=1 n=a6 v=96
280840 On ch=1 n=a6 v=0
280840 On ch=1 n=g#6 v=93
282120 On ch=1 n=g#6 v=0
282120 On ch=1 n=g6 v=94
282762 On ch=1 n=g6 v=0
282762 On ch=1 n=a#6 v=93
282922 On ch=1 n=a#6 v=0
282922 On ch=1 n=c7 v=93
283080 On ch=1 n=c7 v=0
283080 On ch=1 n=c#7 v=93
283398 On ch=1 n=c#7 v=0
283398 On ch=1 n=c#7 v=88
283558 On ch=1 n=c#7 v=0
283558 On ch=1 n=e7 v=88
283718 On ch=1 n=e7 v=0
283718 On ch=1 n=e8 v=88
284090 On ch=1 n=e8 v=0
284090 On ch=1 n=d7 v=86
284174 On ch=1 n=d7 v=0
284174 On ch=1 n=f7 v=86
284256 On ch=1 n=f7 v=0
284256 On ch=1 n=f8 v=86
284422 On ch=1 n=f8 v=0
284422 On ch=1 n=d8 v=86
284736 On ch=1 n=d8 v=0
284736 On ch=1 n=a#7 v=88
285072 On ch=1 n=a#7 v=0
285072 On ch=1 n=f7 v=88
285376 On ch=1 n=f7 v=0
285376 On ch=1 n=d7 v=84
285698 On ch=1 n=d7 v=0
285698 On ch=1 n=a#6 v=84
286024 On ch=1 n=a#6 v=0
286024 On ch=1 n=f6 v=77
286346 On ch=1 n=f6 v=0
286346 On ch=1 n=d6 v=77
286692 On ch=1 n=d6 v=0
286692 On ch=1 n=d#6 v=80
286774 On ch=1 n=d#6 v=0
286774 On ch=1 n=g6 v=80
287022 On ch=1 n=g6 v=0
287022 On ch=1 n=f6 v=80
287386 On ch=1 n=f6 v=0
287386 On ch=1 n=d#6 v=80
287898 On ch=1 n=d#6 v=0
287898 On ch=1 n=a5 v=80
288228 On ch=1 n=a5 v=0
288228 On ch=1 n=c6 v=85
288228 On ch=1 n=d#5 v=85
289676 On ch=1 n=d#5 v=0
289676 On ch=1 n=c6 v=0
289676 On ch=1 n=a#5 v=86
289676 On ch=1 n=d5 v=86
290308 On ch=1 n=d5 v=0
290308 On ch=1 n=a#5 v=0
290874 On ch=1 n=g4 v=96
291392 On ch=1 n=g4 v=0
291392 On ch=1 n=a#4 v=96
291522 On ch=1 n=a#4 v=0
291522 On ch=1 n=d#5 v=96
292044 On ch=1 n=d#5 v=0
292044 On ch=1 n=c#5 v=96
292188 On ch=1 n=c#5 v=0
292188 On ch=1 n=d5 v=96
292864 On ch=1 n=a#4 v=96
293542 On ch=1 n=a#4 v=0
293542 On ch=1 n=d5 v=0
293542 On ch=1 n=g5 v=115
293542 On ch=1 n=d5 v=115
293542 On ch=1 n=a#4 v=115
294210 On ch=1 n=a#4 v=0
294210 On ch=1 n=a#4 v=96
294956 On ch=1 n=a#4 v=0
294956 On ch=1 n=d5 v=0
294956 On ch=1 n=g5 v=0
294956 On ch=1 n=g4 v=97
295488 On ch=1 n=g4 v=0
295488 On ch=1 n=a#4 v=97
295598 On ch=1 n=a#4 v=0
295598 On ch=1 n=d#5 v=96
296120 On ch=1 n=d#5 v=0
296120 On ch=1 n=c#5 v=96
296244 On ch=1 n=c#5 v=0
296244 On ch=1 n=d5 v=96
296920 On ch=1 n=a#4 v=96
297612 On ch=1 n=a#4 v=0
297612 On ch=1 n=d5 v=0
297612 On ch=1 n=a#5 v=124
297612 On ch=1 n=g5 v=124
297612 On ch=1 n=d5 v=124
297612 On ch=1 n=a#4 v=124
298286 On ch=1 n=a#4 v=0
298286 On ch=1 n=a#4 v=96
298978 On ch=1 n=a#4 v=0
298978 On ch=1 n=d5 v=0
298978 On ch=1 n=g5 v=0
298978 On ch=1 n=a#5 v=0
298978 On ch=1 n=g4 v=96
299490 On ch=1 n=g4 v=0
299490 On ch=1 n=a#4 v=96
299606 On ch=1 n=a#4 v=0
299606 On ch=1 n=d#5 v=96
300102 On ch=1 n=d#5 v=0
300102 On ch=1 n=c#5 v=96
300284 On ch=1 n=c#5 v=0
300284 On ch=1 n=d5 v=101
300774 On ch=1 n=d5 v=0
300774 On ch=1 n=a#5 v=101
300946 On ch=1 n=a#5 v=0
300946 On ch=1 n=d#6 v=96
301450 On ch=1 n=d#6 v=0
301450 On ch=1 n=c#6 v=96
301576 On ch=1 n=c#6 v=0
301576 On ch=1 n=d6 v=96
302060 On ch=1 n=d6 v=0
302060 On ch=1 n=a#6 v=96
302236 On ch=1 n=a#6 v=0
302236 On ch=1 n=d#7 v=96
302720 On ch=1 n=d#7 v=0
302720 On ch=1 n=c#7 v=96
302890 On ch=1 n=c#7 v=0
302890 On ch=1 n=d7 v=96
303110 On ch=1 n=d7 v=0
303110 On ch=1 n=c#7 v=96
303328 On ch=1 n=c#7 v=0
303328 On ch=1 n=d7 v=96
303546 On ch=1 n=d7 v=0
303546 On ch=1 n=f7 v=96
303764 On ch=1 n=f7 v=0
303764 On ch=1 n=d#7 v=96
303984 On ch=1 n=d#7 v=0
303984 On ch=1 n=d7 v=96
304210 On ch=1 n=d7 v=0
304210 On ch=1 n=a6 v=96
305522 On ch=1 n=a6 v=0
306846 On ch=1 n=a#6 v=82
307012 On ch=1 n=a#6 v=0
307012 On ch=1 n=a6 v=82
307178 On ch=1 n=a6 v=0
307178 On ch=1 n=g6 v=82
307500 On ch=1 n=g6 v=0
307500 On ch=1 n=a#7 v=80
308140 On ch=1 n=a#7 v=0
308140 On ch=1 n=a7 v=82
308302 On ch=1 n=a7 v=0
308302 On ch=1 n=a6 v=82
308822 On ch=1 n=a6 v=0
308822 On ch=1 n=d6 v=89
309500 On ch=1 n=d6 v=0
309500 On ch=1 n=g6 v=89
310810 On ch=1 n=g6 v=0
310810 On ch=1 n=g6 v=83
310974 On ch=1 n=g6 v=0
310974 On ch=1 n=f6 v=83
311138 On ch=1 n=f6 v=0
311138 On ch=1 n=d#6 v=83
311414 On ch=1 n=d#6 v=0
311414 On ch=1 n=g7 v=88
312090 On ch=1 n=g7 v=0
312090 On ch=1 n=f7 v=86
312250 On ch=1 n=f7 v=0
312250 On ch=1 n=f6 v=86
312732 On ch=1 n=f6 v=0
312732 On ch=1 n=a#5 v=86
313398 On ch=1 n=a#5 v=0
313398 On ch=1 n=d#6 v=86
314402 On ch=1 n=d#6 v=0
314402 On ch=1 n=d#6 v=83
314682 On ch=1 n=d#6 v=0
314682 On ch=1 n=d#6 v=91
315328 On ch=1 n=f#5 v=88
315644 On ch=1 n=d#6 v=0
315644 On ch=1 n=d6 v=88
316004 On ch=1 n=d6 v=0
316004 On ch=1 n=f#5 v=0
316004 On ch=1 n=c#6 v=82
316004 On ch=1 n=f#5 v=82
316336 On ch=1 n=c#6 v=0
316336 On ch=1 n=c6 v=82
316656 On ch=1 n=c6 v=0
316656 On ch=1 n=f#5 v=0
316656 On ch=1 n=a#5 v=80
316656 On ch=1 n=f#5 v=80
316988 On ch=1 n=a#5 v=0
316988 On ch=1 n=a5 v=80
317350 On ch=1 n=a5 v=0
317350 On ch=1 n=f#5 v=0
317350 On ch=1 n=c6 v=77
317350 On ch=1 n=g5 v=77
317688 On ch=1 n=c6 v=0
317688 On ch=1 n=a#5 v=77
318002 On ch=1 n=a#5 v=0
318002 On ch=1 n=g5 v=0
318002 On ch=1 n=a5 v=80
318002 On ch=1 n=c#5 v=80
318340 On ch=1 n=a5 v=0
318340 On ch=1 n=g5 v=80
318692 On ch=1 n=g5 v=0
318692 On ch=1 n=c#5 v=0
318692 On ch=1 n=f#5 v=85
318692 On ch=1 n=d#5 v=85
319398 On ch=1 n=f#5 v=0
319398 On ch=1 n=f#5 v=82
319748 On ch=1 n=d#5 v=0
319748 On ch=1 n=d5 v=82
320032 On ch=1 n=d5 v=0
320032 On ch=1 n=f#5 v=0
320032 On ch=1 n=f#5 v=85
320032 On ch=1 n=c#5 v=85
320368 On ch=1 n=c#5 v=0
320368 On ch=1 n=c5 v=85
320684 On ch=1 n=c5 v=0
320684 On ch=1 n=f#5 v=0
320684 On ch=1 n=f#5 v=83
320684 On ch=1 n=a#4 v=83
321006 On ch=1 n=a#4 v=0
321006 On ch=1 n=a4 v=83
321312 On ch=1 n=a4 v=0
321312 On ch=1 n=f#5 v=0
321312 On ch=1 n=g5 v=83
321312 On ch=1 n=d5 v=83
321312 On ch=1 n=a#4 v=83
321312 On ch=1 n=g4 v=83
321972 On ch=1 n=g4 v=0
321972 On ch=1 n=a#4 v=0
321972 On ch=1 n=d5 v=0
321972 On ch=1 n=g5 v=0
321972 On ch=1 n=a5 v=90
321972 On ch=1 n=f#5 v=90
321972 On ch=1 n=d5 v=90
321972 On ch=1 n=a4 v=90
322622 On ch=1 n=a4 v=0
322622 On ch=1 n=d5 v=0
322622 On ch=1 n=f#5 v=0
322622 On ch=1 n=a5 v=0
322622 On ch=1 n=a#5 v=90
322622 On ch=1 n=g5 v=90
322622 On ch=1 n=d5 v=90
322622 On ch=1 n=a#4 v=90
323114 On ch=1 n=a#4 v=0
323114 On ch=1 n=d5 v=0
323114 On ch=1 n=g5 v=0
323114 On ch=1 n=a#5 v=0
323114 On ch=1 n=a#4 v=90
323264 On ch=1 n=a#4 v=0
323264 On ch=1 n=d#5 v=98
323748 On ch=1 n=d#5 v=0
323748 On ch=1 n=c#5 v=98
323882 On ch=1 n=c#5 v=0
323882 On ch=1 n=d5 v=101
324538 On ch=1 n=a#4 v=99
325226 On ch=1 n=a#4 v=0
325226 On ch=1 n=d5 v=0
325226 On ch=1 n=g5 v=124
325226 On ch=1 n=d5 v=124
325226 On ch=1 n=a#4 v=124
325894 On ch=1 n=a#4 v=0
325894 On ch=1 n=a#4 v=96
326576 On ch=1 n=a#4 v=0
326576 On ch=1 n=d5 v=0
326576 On ch=1 n=g5 v=0
326576 On ch=1 n=g4 v=96
327082 On ch=1 n=g4 v=0
327082 On ch=1 n=a#4 v=96
327224 On ch=1 n=a#4 v=0
327224 On ch=1 n=d#5 v=96
327724 On ch=1 n=d#5 v=0
327724 On ch=1 n=c#5 v=96
327886 On ch=1 n=c#5 v=0
327886 On ch=1 n=d5 v=96
328544 On ch=1 n=a#4 v=96
329186 On ch=1 n=a#4 v=0
329186 On ch=1 n=d5 v=0
329186 On ch=1 n=a#5 v=122
329186 On ch=1 n=g5 v=122
329186 On ch=1 n=d5 v=122
329186 On ch=1 n=a#4 v=122
329902 On ch=1 n=a#4 v=0
329902 On ch=1 n=a#4 v=96
330544 On ch=1 n=a#4 v=0
330544 On ch=1 n=d5 v=0
330544 On ch=1 n=g5 v=0
330544 On ch=1 n=a#5 v=0
330544 On ch=1 n=b5 v=96
330544 On ch=1 n=g#5 v=96
330544 On ch=1 n=d5 v=96
330544 On ch=1 n=b4 v=96
330544 On ch=1 n=b5 v=96
331178 On ch=1 n=b4 v=0
331178 On ch=1 n=d5 v=0
331178 On ch=1 n=g#5 v=0
331178 On ch=1 n=b5 v=0
331178 On ch=1 n=f8 v=96
331178 On ch=1 n=d8 v=96
331832 On ch=1 n=d8 v=0
331832 On ch=1 n=f8 v=0
331832 On ch=1 n=f8 v=90
331832 On ch=1 n=d8 v=90
332048 On ch=1 n=d8 v=0
332048 On ch=1 n=f8 v=0
332048 On ch=1 n=f8 v=90
332048 On ch=1 n=d8 v=90
332262 On ch=1 n=d8 v=0
332262 On ch=1 n=f8 v=0
332262 On ch=1 n=b7 v=90
332262 On ch=1 n=f7 v=90
332450 On ch=1 n=f7 v=0
332450 On ch=1 n=b7 v=0
332450 On ch=1 n=d8 v=86
332450 On ch=1 n=b7 v=86
332662 On ch=1 n=b7 v=0
332662 On ch=1 n=d8 v=0
332662 On ch=1 n=d8 v=86
332662 On ch=1 n=b7 v=86
332874 On ch=1 n=b7 v=0
332874 On ch=1 n=d8 v=0
332874 On ch=1 n=f7 v=86
332874 On ch=1 n=d7 v=86
333050 On ch=1 n=d7 v=0
333050 On ch=1 n=f7 v=0
333050 On ch=1 n=b7 v=90
333050 On ch=1 n=f7 v=90
333254 On ch=1 n=f7 v=0
333254 On ch=1 n=b7 v=0
333254 On ch=1 n=b7 v=90
333254 On ch=1 n=f7 v=90
333456 On ch=1 n=f7 v=0
333456 On ch=1 n=b7 v=0
333456 On ch=1 n=d7 v=90
333456 On ch=1 n=b6 v=90
333678 On ch=1 n=b6 v=0
333678 On ch=1 n=d7 v=0
333678 On ch=1 n=f7 v=82
333678 On ch=1 n=d7 v=82
333882 On ch=1 n=d7 v=0
333882 On ch=1 n=f7 v=0
333882 On ch=1 n=f7 v=82
333882 On ch=1 n=d7 v=82
334088 On ch=1 n=d7 v=0
334088 On ch=1 n=f7 v=0
334088 On ch=1 n=b6 v=82
334088 On ch=1 n=f6 v=82
334296 On ch=1 n=f6 v=0
334296 On ch=1 n=b6 v=0
334296 On ch=1 n=d7 v=78
334296 On ch=1 n=b6 v=78
334504 On ch=1 n=b6 v=0
334504 On ch=1 n=d7 v=0
334504 On ch=1 n=d7 v=78
334504 On ch=1 n=b6 v=78
334712 On ch=1 n=b6 v=0
334712 On ch=1 n=d7 v=0
334712 On ch=1 n=f6 v=78
334712 On ch=1 n=d6 v=78
334916 On ch=1 n=d6 v=0
334916 On ch=1 n=f6 v=0
334916 On ch=1 n=b6 v=78
334916 On ch=1 n=f6 v=78
335122 On ch=1 n=f6 v=0
335122 On ch=1 n=b6 v=0
335122 On ch=1 n=b6 v=78
335122 On ch=1 n=f6 v=78
335328 On ch=1 n=f6 v=0
335328 On ch=1 n=b6 v=0
335328 On ch=1 n=d6 v=78
335328 On ch=1 n=b5 v=78
335552 On ch=1 n=d6 v=0
335552 On ch=1 n=b5 v=0
335552 On ch=1 n=f6 v=75
335552 On ch=1 n=d6 v=75
335762 On ch=1 n=d6 v=0
335762 On ch=1 n=f6 v=0
335762 On ch=1 n=f6 v=75
335762 On ch=1 n=d6 v=75
335970 On ch=1 n=d6 v=0
335970 On ch=1 n=f6 v=0
335970 On ch=1 n=b5 v=75
335970 On ch=1 n=f5 v=75
336190 On ch=1 n=f5 v=0
336190 On ch=1 n=b5 v=0
336190 On ch=1 n=g6 v=77
336190 On ch=1 n=d#6 v=77
336190 On ch=1 n=b5 v=77
336190 On ch=1 n=f5 v=77
336508 On ch=1 n=d#6 v=0
336508 On ch=1 n=g6 v=0
336668 On ch=1 n=f6 v=77
336668 On ch=1 n=d6 v=77
336830 On ch=1 n=d6 v=0
336830 On ch=1 n=f6 v=0
336830 On ch=1 n=f5 v=0
336830 On ch=1 n=b5 v=0
336830 On ch=1 n=d#6 v=89
336830 On ch=1 n=c6 v=89
336830 On ch=1 n=d#5 v=89
338178 On ch=1 n=d#5 v=0
338178 On ch=1 n=c6 v=0
338178 On ch=1 n=d#6 v=0
338178 On ch=1 n=d#6 v=79
338404 On ch=1 n=d#6 v=0
338404 On ch=1 n=f#5 v=79
338628 On ch=1 n=f#5 v=0
338628 On ch=1 n=d#6 v=79
338814 On ch=1 n=d#6 v=0
338814 On ch=1 n=d6 v=82
339036 On ch=1 n=d6 v=0
339036 On ch=1 n=f#5 v=82
339258 On ch=1 n=f#5 v=0
339258 On ch=1 n=d6 v=82
339438 On ch=1 n=d6 v=0
339438 On ch=1 n=a6 v=82
339648 On ch=1 n=a6 v=0
339648 On ch=1 n=d6 v=82
339858 On ch=1 n=d6 v=0
339858 On ch=1 n=a6 v=82
340064 On ch=1 n=a6 v=0
340064 On ch=1 n=d7 v=82
340272 On ch=1 n=d7 v=0
340272 On ch=1 n=d6 v=82
340480 On ch=1 n=d6 v=0
340480 On ch=1 n=c7 v=82
340696 On ch=1 n=c7 v=0
340696 On ch=1 n=a#6 v=80
340906 On ch=1 n=a#6 v=0
340906 On ch=1 n=a6 v=80
341116 On ch=1 n=a6 v=0
341116 On ch=1 n=g6 v=80
341362 On ch=1 n=g6 v=0
341362 On ch=1 n=f#6 v=80
341578 On ch=1 n=f#6 v=0
341578 On ch=1 n=a6 v=80
341796 On ch=1 n=a6 v=0
341796 On ch=1 n=g6 v=80
341976 On ch=1 n=g6 v=0
341976 On ch=1 n=d#7 v=75
342190 On ch=1 n=d#7 v=0
342190 On ch=1 n=f#6 v=75
342404 On ch=1 n=f#6 v=0
342404 On ch=1 n=d#7 v=75
342628 On ch=1 n=d#7 v=0
342628 On ch=1 n=d7 v=82
342840 On ch=1 n=d7 v=0
342840 On ch=1 n=f#6 v=82
343050 On ch=1 n=f#6 v=0
343050 On ch=1 n=d7 v=82
343274 On ch=1 n=d7 v=0
343274 On ch=1 n=a7 v=82
343490 On ch=1 n=a7 v=0
343490 On ch=1 n=d7 v=82
343708 On ch=1 n=d7 v=0
343708 On ch=1 n=a7 v=82
343922 On ch=1 n=a7 v=0
343922 On ch=1 n=d8 v=82
344138 On ch=1 n=d8 v=0
344138 On ch=1 n=d7 v=82
344354 On ch=1 n=d7 v=0
344354 On ch=1 n=c8 v=82
344536 On ch=1 n=c8 v=0
344536 On ch=1 n=a#7 v=83
344746 On ch=1 n=a#7 v=0
344746 On ch=1 n=a7 v=83
344956 On ch=1 n=a7 v=0
344956 On ch=1 n=g7 v=83
345170 On ch=1 n=g7 v=0
345170 On ch=1 n=f#7 v=82
345378 On ch=1 n=f#7 v=0
345378 On ch=1 n=a7 v=82
345586 On ch=1 n=a7 v=0
345586 On ch=1 n=g7 v=82
345810 On ch=1 n=g7 v=0
345810 On ch=1 n=a#7 v=82
346022 On ch=1 n=a#7 v=0
346022 On ch=1 n=g#7 v=82
346234 On ch=1 n=g#7 v=0
346234 On ch=1 n=d#7 v=82
346442 On ch=1 n=d#7 v=0
346442 On ch=1 n=c7 v=82
346654 On ch=1 n=c7 v=0
346654 On ch=1 n=a#6 v=82
346866 On ch=1 n=a#6 v=0
346866 On ch=1 n=a#6 v=82
347080 On ch=1 n=a#6 v=0
347080 On ch=1 n=d#6 v=77
347292 On ch=1 n=d#6 v=0
347292 On ch=1 n=c6 v=77
347504 On ch=1 n=c6 v=0
347504 On ch=1 n=a#5 v=77
347712 On ch=1 n=a#5 v=0
347712 On ch=1 n=g#5 v=75
347924 On ch=1 n=g#5 v=0
347924 On ch=1 n=d#5 v=75
348136 On ch=1 n=d#5 v=0
348136 On ch=1 n=c5 v=75
348402 On ch=1 n=c5 v=0
348402 On ch=1 n=a#4 v=65
348622 On ch=1 n=a#4 v=0
348622 On ch=1 n=g#4 v=65
348844 On ch=1 n=g#4 v=0
348844 On ch=1 n=d#4 v=65
349032 On ch=1 n=d#4 v=0
349032 On ch=1 n=g#4 v=67
349252 On ch=1 n=g#4 v=0
349252 On ch=1 n=d#5 v=67
349472 On ch=1 n=d#5 v=0
349472 On ch=1 n=g#4 v=67
349692 On ch=1 n=g#4 v=0
349692 On ch=1 n=a#4 v=70
349908 On ch=1 n=a#4 v=0
349908 On ch=1 n=d#5 v=70
350122 On ch=1 n=d#5 v=0
350122 On ch=1 n=d5 v=70
350298 On ch=1 n=d5 v=0
350298 On ch=1 n=c5 v=70
350510 On ch=1 n=c5 v=0
350510 On ch=1 n=a#4 v=70
350720 On ch=1 n=a#4 v=0
350720 On ch=1 n=f#5 v=70
350922 On ch=1 n=f#5 v=0
350922 On ch=1 n=a5 v=78
350922 On ch=1 n=c5 v=78
352270 On ch=1 n=c5 v=0
352270 On ch=1 n=a5 v=0
352270 On ch=1 n=g5 v=86
352270 On ch=1 n=a#4 v=86
352914 On ch=1 n=a#4 v=0
352914 On ch=1 n=g5 v=0
353648 On ch=1 n=g4 v=101
354166 On ch=1 n=g4 v=0
354166 On ch=1 n=a#4 v=101
354294 On ch=1 n=a#4 v=0
354294 On ch=1 n=d#5 v=98
354812 On ch=1 n=d#5 v=0
354812 On ch=1 n=c#5 v=98
354978 On ch=1 n=c#5 v=0
354978 On ch=1 n=d5 v=101
355658 On ch=1 n=a#4 v=102
356340 On ch=1 n=a#4 v=0
356340 On ch=1 n=d5 v=0
356340 On ch=1 n=g5 v=127
356340 On ch=1 n=d5 v=127
356340 On ch=1 n=a#4 v=127
357020 On ch=1 n=a#4 v=0
357020 On ch=1 n=a#4 v=96
357760 On ch=1 n=a#4 v=0
357760 On ch=1 n=d5 v=0
357760 On ch=1 n=g5 v=0
357760 On ch=1 n=g4 v=96
358294 On ch=1 n=g4 v=0
358294 On ch=1 n=a#4 v=96
358414 On ch=1 n=a#4 v=0
358414 On ch=1 n=d#5 v=96
358938 On ch=1 n=d#5 v=0
358938 On ch=1 n=c#5 v=96
359088 On ch=1 n=c#5 v=0
359088 On ch=1 n=d5 v=96
359772 On ch=1 n=a#4 v=96
360432 On ch=1 n=a#4 v=0
360432 On ch=1 n=d5 v=0
360432 On ch=1 n=a#5 v=122
360432 On ch=1 n=g5 v=122
360432 On ch=1 n=d5 v=122
360432 On ch=1 n=a#4 v=122
361134 On ch=1 n=a#4 v=0
361134 On ch=1 n=a#4 v=97
361816 On ch=1 n=a#4 v=0
361816 On ch=1 n=d5 v=0
361816 On ch=1 n=g5 v=0
361816 On ch=1 n=a#5 v=0
361816 On ch=1 n=g4 v=99
362336 On ch=1 n=g4 v=0
362336 On ch=1 n=a#4 v=99
362468 On ch=1 n=a#4 v=0
362468 On ch=1 n=d#5 v=98
362968 On ch=1 n=d#5 v=0
362968 On ch=1 n=c#5 v=98
363080 On ch=1 n=c#5 v=0
363080 On ch=1 n=d5 v=98
363554 On ch=1 n=d5 v=0
363554 On ch=1 n=a#5 v=98
363710 On ch=1 n=a#5 v=0
363710 On ch=1 n=d#6 v=104
364176 On ch=1 n=d#6 v=0
364176 On ch=1 n=c#6 v=104
364364 On ch=1 n=c#6 v=0
364364 On ch=1 n=d6 v=99
364846 On ch=1 n=d6 v=0
364846 On ch=1 n=a#6 v=99
365014 On ch=1 n=a#6 v=0
365014 On ch=1 n=d#7 v=101
365504 On ch=1 n=d#7 v=0
365504 On ch=1 n=c#7 v=101
365678 On ch=1 n=c#7 v=0
365678 On ch=1 n=d7 v=97
365898 On ch=1 n=d7 v=0
365898 On ch=1 n=c#7 v=97
366116 On ch=1 n=c#7 v=0
366116 On ch=1 n=d7 v=97
366298 On ch=1 n=d7 v=0
366298 On ch=1 n=f7 v=96
366512 On ch=1 n=f7 v=0
366512 On ch=1 n=d#7 v=96
366726 On ch=1 n=d#7 v=0
366726 On ch=1 n=d7 v=96
366942 On ch=1 n=d7 v=0
366942 On ch=1 n=a6 v=96
368364 On ch=1 n=a6 v=0
369660 On ch=1 n=a#6 v=96
369822 On ch=1 n=a#6 v=0
369822 On ch=1 n=a6 v=96
369984 On ch=1 n=a6 v=0
369984 On ch=1 n=g6 v=96
370246 On ch=1 n=g6 v=0
370246 On ch=1 n=a#7 v=96
370938 On ch=1 n=a#7 v=0
370938 On ch=1 n=a7 v=96
371098 On ch=1 n=a7 v=0
371098 On ch=1 n=a6 v=96
371588 On ch=1 n=a6 v=0
371588 On ch=1 n=d6 v=96
372264 On ch=1 n=d6 v=0
372264 On ch=1 n=g6 v=96
373560 On ch=1 n=g6 v=0
373560 On ch=1 n=g6 v=90
373722 On ch=1 n=g6 v=0
373722 On ch=1 n=f6 v=90
373884 On ch=1 n=f6 v=0
373884 On ch=1 n=d#6 v=90
374196 On ch=1 n=d#6 v=0
374196 On ch=1 n=g7 v=96
374890 On ch=1 n=g7 v=0
374890 On ch=1 n=f7 v=96
375056 On ch=1 n=f7 v=0
375056 On ch=1 n=f6 v=96
375548 On ch=1 n=f6 v=0
375548 On ch=1 n=a#5 v=96
376210 On ch=1 n=a#5 v=0
376210 On ch=1 n=d#6 v=96
377188 On ch=1 n=d#6 v=0
377188 On ch=1 n=d#6 v=96
377548 On ch=1 n=d#6 v=0
377548 On ch=1 n=d#6 v=96
378156 On ch=1 n=f#5 v=96
378480 On ch=1 n=d#6 v=0
378480 On ch=1 n=d6 v=96
378812 On ch=1 n=d6 v=0
378812 On ch=1 n=f#5 v=0
378812 On ch=1 n=c#6 v=96
378812 On ch=1 n=f#5 v=96
379128 On ch=1 n=c#6 v=0
379128 On ch=1 n=c6 v=96
379458 On ch=1 n=c6 v=0
379458 On ch=1 n=f#5 v=0
379458 On ch=1 n=a#5 v=96
379458 On ch=1 n=f#5 v=96
379784 On ch=1 n=a#5 v=0
379784 On ch=1 n=a5 v=96
380134 On ch=1 n=a5 v=0
380134 On ch=1 n=f#5 v=0
380134 On ch=1 n=c6 v=86
380134 On ch=1 n=g5 v=86
380466 On ch=1 n=c6 v=0
380466 On ch=1 n=a#5 v=86
380806 On ch=1 n=a#5 v=0
380806 On ch=1 n=g5 v=0
380806 On ch=1 n=a5 v=80
380806 On ch=1 n=c#5 v=80
381144 On ch=1 n=a5 v=0
381144 On ch=1 n=g5 v=80
381480 On ch=1 n=g5 v=0
381480 On ch=1 n=c#5 v=0
381480 On ch=1 n=f#5 v=85
381480 On ch=1 n=d#5 v=85
382156 On ch=1 n=f#5 v=0
382156 On ch=1 n=f#5 v=82
382494 On ch=1 n=d#5 v=0
382494 On ch=1 n=d5 v=82
382782 On ch=1 n=d5 v=0
382782 On ch=1 n=f#5 v=0
382782 On ch=1 n=f#5 v=74
382782 On ch=1 n=c#5 v=74
383108 On ch=1 n=c#5 v=0
383108 On ch=1 n=c5 v=74
383440 On ch=1 n=c5 v=0
383440 On ch=1 n=f#5 v=0
383440 On ch=1 n=f#5 v=86
383440 On ch=1 n=a#4 v=86
383762 On ch=1 n=a#4 v=0
383762 On ch=1 n=a4 v=86
384072 On ch=1 n=a4 v=0
384072 On ch=1 n=f#5 v=0
384072 On ch=1 n=g5 v=94
384072 On ch=1 n=d5 v=94
384072 On ch=1 n=a#4 v=94
384072 On ch=1 n=g4 v=94
384766 On ch=1 n=g4 v=0
384766 On ch=1 n=a#4 v=0
384766 On ch=1 n=d5 v=0
384766 On ch=1 n=g5 v=0
384766 On ch=1 n=a5 v=96
384766 On ch=1 n=f#5 v=96
384766 On ch=1 n=d5 v=96
384766 On ch=1 n=a4 v=96
385436 On ch=1 n=a4 v=0
385436 On ch=1 n=d5 v=0
385436 On ch=1 n=f#5 v=0
385436 On ch=1 n=a5 v=0
385436 On ch=1 n=a#5 v=96
385436 On ch=1 n=g5 v=96
385436 On ch=1 n=d5 v=96
385436 On ch=1 n=a#4 v=96
385948 On ch=1 n=a#4 v=0
385948 On ch=1 n=d5 v=0
385948 On ch=1 n=g5 v=0
385948 On ch=1 n=a#5 v=0
385948 On ch=1 n=a#4 v=96
386096 On ch=1 n=a#4 v=0
386096 On ch=1 n=d#5 v=88
386596 On ch=1 n=d#5 v=0
386596 On ch=1 n=c#5 v=88
386734 On ch=1 n=c#5 v=0
386734 On ch=1 n=d5 v=96
387376 On ch=1 n=a#4 v=96
388100 On ch=1 n=a#4 v=0
388100 On ch=1 n=d5 v=0
388100 On ch=1 n=g5 v=101
388100 On ch=1 n=d5 v=101
388100 On ch=1 n=a#4 v=101
388768 On ch=1 n=a#4 v=0
388768 On ch=1 n=a#4 v=96
389446 On ch=1 n=a#4 v=0
389446 On ch=1 n=d5 v=0
389446 On ch=1 n=g5 v=0
389446 On ch=1 n=g4 v=96
389952 On ch=1 n=g4 v=0
389952 On ch=1 n=a#4 v=96
390056 On ch=1 n=a#4 v=0
390056 On ch=1 n=d#5 v=96
390540 On ch=1 n=d#5 v=0
390540 On ch=1 n=c#5 v=96
390726 On ch=1 n=c#5 v=0
390726 On ch=1 n=d5 v=96
391370 On ch=1 n=a#4 v=96
392050 On ch=1 n=a#4 v=0
392050 On ch=1 n=d5 v=0
392050 On ch=1 n=a#5 v=104
392050 On ch=1 n=g5 v=104
392050 On ch=1 n=d5 v=104
392050 On ch=1 n=a#4 v=104
392730 On ch=1 n=a#4 v=0
392730 On ch=1 n=a#4 v=96
393384 On ch=1 n=a#4 v=0
393384 On ch=1 n=d5 v=0
393384 On ch=1 n=g5 v=0
393384 On ch=1 n=a#5 v=0
393384 On ch=1 n=b5 v=96
393384 On ch=1 n=g#5 v=96
393384 On ch=1 n=d5 v=96
393384 On ch=1 n=b4 v=96
393384 On ch=1 n=b5 v=96
394014 On ch=1 n=b4 v=0
394014 On ch=1 n=d5 v=0
394014 On ch=1 n=g#5 v=0
394014 On ch=1 n=b5 v=0
394014 On ch=1 n=f8 v=96
394014 On ch=1 n=d8 v=96
394642 On ch=1 n=d8 v=0
394642 On ch=1 n=f8 v=0
394642 On ch=1 n=f8 v=96
394642 On ch=1 n=d8 v=96
394852 On ch=1 n=d8 v=0
394852 On ch=1 n=f8 v=0
394852 On ch=1 n=f8 v=96
394852 On ch=1 n=d8 v=96
395062 On ch=1 n=d8 v=0
395062 On ch=1 n=f8 v=0
395062 On ch=1 n=b7 v=96
395062 On ch=1 n=f7 v=96
395274 On ch=1 n=f7 v=0
395274 On ch=1 n=b7 v=0
395274 On ch=1 n=d8 v=83
395274 On ch=1 n=b7 v=83
395484 On ch=1 n=b7 v=0
395484 On ch=1 n=d8 v=0
395484 On ch=1 n=d8 v=83
395484 On ch=1 n=b7 v=83
395694 On ch=1 n=b7 v=0
395694 On ch=1 n=d8 v=0
395694 On ch=1 n=f7 v=83
395694 On ch=1 n=d7 v=83
395866 On ch=1 n=d7 v=0
395866 On ch=1 n=f7 v=0
395866 On ch=1 n=b7 v=82
395866 On ch=1 n=f7 v=82
396070 On ch=1 n=f7 v=0
396070 On ch=1 n=b7 v=0
396070 On ch=1 n=b7 v=82
396070 On ch=1 n=f7 v=82
396274 On ch=1 n=f7 v=0
396274 On ch=1 n=b7 v=0
396274 On ch=1 n=d7 v=82
396274 On ch=1 n=b6 v=82
396478 On ch=1 n=b6 v=0
396478 On ch=1 n=d7 v=0
396478 On ch=1 n=f7 v=84
396478 On ch=1 n=d7 v=84
396678 On ch=1 n=d7 v=0
396678 On ch=1 n=f7 v=0
396678 On ch=1 n=f7 v=84
396678 On ch=1 n=d7 v=84
396880 On ch=1 n=d7 v=0
396880 On ch=1 n=f7 v=0
396880 On ch=1 n=b6 v=84
396880 On ch=1 n=f6 v=84
397112 On ch=1 n=f6 v=0
397112 On ch=1 n=b6 v=0
397112 On ch=1 n=d7 v=80
397112 On ch=1 n=b6 v=80
397320 On ch=1 n=b6 v=0
397320 On ch=1 n=d7 v=0
397320 On ch=1 n=d7 v=80
397320 On ch=1 n=b6 v=80
397528 On ch=1 n=b6 v=0
397528 On ch=1 n=d7 v=0
397528 On ch=1 n=f6 v=80
397528 On ch=1 n=d6 v=80
397714 On ch=1 n=d6 v=0
397714 On ch=1 n=f6 v=0
397714 On ch=1 n=b6 v=82
397714 On ch=1 n=f6 v=82
397920 On ch=1 n=f6 v=0
397920 On ch=1 n=b6 v=0
397920 On ch=1 n=b6 v=82
397920 On ch=1 n=f6 v=82
398126 On ch=1 n=f6 v=0
398126 On ch=1 n=b6 v=0
398126 On ch=1 n=d6 v=82
398126 On ch=1 n=b5 v=82
398332 On ch=1 n=d6 v=0
398332 On ch=1 n=b5 v=0
398332 On ch=1 n=f6 v=77
398332 On ch=1 n=d6 v=77
398536 On ch=1 n=d6 v=0
398536 On ch=1 n=f6 v=0
398536 On ch=1 n=f6 v=77
398536 On ch=1 n=d6 v=77
398738 On ch=1 n=d6 v=0
398738 On ch=1 n=f6 v=0
398738 On ch=1 n=b5 v=77
398738 On ch=1 n=f5 v=77
398930 On ch=1 n=f5 v=0
398930 On ch=1 n=b5 v=0
398930 On ch=1 n=g6 v=78
398930 On ch=1 n=d#6 v=78
398930 On ch=1 n=b5 v=78
398930 On ch=1 n=f5 v=78
399234 On ch=1 n=d#6 v=0
399234 On ch=1 n=g6 v=0
399386 On ch=1 n=f6 v=78
399386 On ch=1 n=d6 v=78
399552 On ch=1 n=d6 v=0
399552 On ch=1 n=f6 v=0
399552 On ch=1 n=f5 v=0
399552 On ch=1 n=b5 v=0
399552 On ch=1 n=d#6 v=82
399552 On ch=1 n=c6 v=82
399552 On ch=1 n=d#5 v=82
400886 On ch=1 n=d#5 v=0
400886 On ch=1 n=c6 v=0
400886 On ch=1 n=d#6 v=0
400886 On ch=1 n=d#6 v=86
401108 On ch=1 n=d#6 v=0
401108 On ch=1 n=f#5 v=86
401332 On ch=1 n=f#5 v=0
401332 On ch=1 n=d#6 v=86
401524 On ch=1 n=d#6 v=0
401524 On ch=1 n=d6 v=82
401740 On ch=1 n=d6 v=0
401740 On ch=1 n=f#5 v=82
401956 On ch=1 n=f#5 v=0
401956 On ch=1 n=d6 v=82
402150 On ch=1 n=d6 v=0
402150 On ch=1 n=a6 v=82
402360 On ch=1 n=a6 v=0
402360 On ch=1 n=d6 v=82
402572 On ch=1 n=d6 v=0
402572 On ch=1 n=a6 v=82
402770 On ch=1 n=a6 v=0
402770 On ch=1 n=d7 v=79
402978 On ch=1 n=d7 v=0
402978 On ch=1 n=d6 v=79
403186 On ch=1 n=d6 v=0
403186 On ch=1 n=c7 v=79
403380 On ch=1 n=c7 v=0
403380 On ch=1 n=a#6 v=83
403586 On ch=1 n=a#6 v=0
403586 On ch=1 n=a6 v=83
403790 On ch=1 n=a6 v=0
403790 On ch=1 n=g6 v=83
404026 On ch=1 n=g6 v=0
404026 On ch=1 n=f#6 v=83
404236 On ch=1 n=f#6 v=0
404236 On ch=1 n=a6 v=83
404444 On ch=1 n=a6 v=0
404444 On ch=1 n=g6 v=83
404652 On ch=1 n=g6 v=0
404652 On ch=1 n=d#7 v=82
404864 On ch=1 n=d#7 v=0
404864 On ch=1 n=f#6 v=82
405076 On ch=1 n=f#6 v=0
405076 On ch=1 n=d#7 v=82
405286 On ch=1 n=d#7 v=0
405286 On ch=1 n=d7 v=82
405496 On ch=1 n=d7 v=0
405496 On ch=1 n=f#6 v=82
405706 On ch=1 n=f#6 v=0
405706 On ch=1 n=d7 v=82
405910 On ch=1 n=d7 v=0
405910 On ch=1 n=a7 v=79
406120 On ch=1 n=a7 v=0
406120 On ch=1 n=d7 v=79
406330 On ch=1 n=d7 v=0
406330 On ch=1 n=a7 v=79
406526 On ch=1 n=a7 v=0
406526 On ch=1 n=d8 v=83
406732 On ch=1 n=d8 v=0
406732 On ch=1 n=d7 v=83
406940 On ch=1 n=d7 v=0
406940 On ch=1 n=c8 v=83
407156 On ch=1 n=c8 v=0
407156 On ch=1 n=a#7 v=80
407364 On ch=1 n=a#7 v=0
407364 On ch=1 n=a7 v=80
407572 On ch=1 n=a7 v=0
407572 On ch=1 n=g7 v=80
407766 On ch=1 n=g7 v=0
407766 On ch=1 n=f#7 v=79
407972 On ch=1 n=f#7 v=0
407972 On ch=1 n=a7 v=79
408180 On ch=1 n=a7 v=0
408180 On ch=1 n=g7 v=79
408410 On ch=1 n=g7 v=0
408410 On ch=1 n=a#7 v=71
408620 On ch=1 n=a#7 v=0
408620 On ch=1 n=g#7 v=71
408828 On ch=1 n=g#7 v=0
408828 On ch=1 n=d#7 v=71
409028 On ch=1 n=d#7 v=0
409028 On ch=1 n=c7 v=74
409238 On ch=1 n=c7 v=0
409238 On ch=1 n=a#6 v=74
409448 On ch=1 n=a#6 v=0
409448 On ch=1 n=a#6 v=74
409660 On ch=1 n=a#6 v=0
409660 On ch=1 n=d#6 v=72
409868 On ch=1 n=d#6 v=0
409868 On ch=1 n=c6 v=72
410076 On ch=1 n=c6 v=0
410076 On ch=1 n=a#5 v=72
410288 On ch=1 n=a#5 v=0
410288 On ch=1 n=g#5 v=69
410498 On ch=1 n=g#5 v=0
410498 On ch=1 n=d#5 v=69
410708 On ch=1 n=d#5 v=0
410708 On ch=1 n=c5 v=69
410912 On ch=1 n=c5 v=0
410912 On ch=1 n=a#4 v=66
411120 On ch=1 n=a#4 v=0
411120 On ch=1 n=g#4 v=66
411330 On ch=1 n=g#4 v=0
411330 On ch=1 n=d#4 v=66
411526 On ch=1 n=d#4 v=0
411526 On ch=1 n=g#4 v=71
411732 On ch=1 n=g#4 v=0
411732 On ch=1 n=d#5 v=71
411938 On ch=1 n=d#5 v=0
411938 On ch=1 n=g#4 v=71
412192 On ch=1 n=g#4 v=0
412192 On ch=1 n=a#4 v=69
412406 On ch=1 n=a#4 v=0
412406 On ch=1 n=d#5 v=69
412620 On ch=1 n=d#5 v=0
412620 On ch=1 n=d5 v=69
412794 On ch=1 n=d5 v=0
412794 On ch=1 n=c5 v=82
413006 On ch=1 n=c5 v=0
413006 On ch=1 n=a#4 v=82
413216 On ch=1 n=a#4 v=0
413216 On ch=1 n=f#5 v=82
413402 On ch=1 n=f#5 v=0
413402 On ch=1 n=a5 v=83
413402 On ch=1 n=c5 v=83
414742 On ch=1 n=c5 v=0
414742 On ch=1 n=a5 v=0
414742 On ch=1 n=g5 v=96
414742 On ch=1 n=a#4 v=96
415392 On ch=1 n=a#4 v=0
415392 On ch=1 n=g5 v=0
416078 On ch=1 n=d4 v=96
416580 On ch=1 n=d4 v=0
416580 On ch=1 n=f#4 v=96
416752 On ch=1 n=f#4 v=0
416752 On ch=1 n=a#4 v=96
417262 On ch=1 n=a#4 v=0
417262 On ch=1 n=g#4 v=96
417446 On ch=1 n=g#4 v=0
417446 On ch=1 n=a4 v=96
418110 On ch=1 n=f#4 v=96
418820 On ch=1 n=f#4 v=0
418820 On ch=1 n=a4 v=0
418820 On ch=1 n=d5 v=96
418820 On ch=1 n=a4 v=96
418820 On ch=1 n=f#4 v=96
419498 On ch=1 n=f#4 v=0
419498 On ch=1 n=f#4 v=94
420184 On ch=1 n=f#4 v=0
420184 On ch=1 n=a4 v=0
420184 On ch=1 n=d5 v=0
420184 On ch=1 n=d4 v=96
420696 On ch=1 n=d4 v=0
420696 On ch=1 n=f#4 v=96
420846 On ch=1 n=f#4 v=0
420846 On ch=1 n=a#4 v=96
421352 On ch=1 n=a#4 v=0
421352 On ch=1 n=g#4 v=96
421492 On ch=1 n=g#4 v=0
421492 On ch=1 n=a4 v=96
422158 On ch=1 n=f#4 v=96
422858 On ch=1 n=f#4 v=0
422858 On ch=1 n=a4 v=0
422858 On ch=1 n=d5 v=98
422858 On ch=1 n=a4 v=98
422858 On ch=1 n=f#4 v=98
423510 On ch=1 n=f#4 v=0
423510 On ch=1 n=f#4 v=96
424194 On ch=1 n=f#4 v=0
424194 On ch=1 n=a4 v=0
424194 On ch=1 n=d5 v=0
424194 On ch=1 n=d#5 v=96
424194 On ch=1 n=a4 v=96
424194 On ch=1 n=f#4 v=96
424194 On ch=1 n=d#4 v=96
424858 On ch=1 n=d#4 v=0
424858 On ch=1 n=f#4 v=0
424858 On ch=1 n=a4 v=0
424858 On ch=1 n=d#5 v=0
424858 On ch=1 n=d#8 v=96
425514 On ch=1 n=d#8 v=0
425514 On ch=1 n=d#8 v=96
425680 On ch=1 n=d#8 v=0
425680 On ch=1 n=d8 v=96
425844 On ch=1 n=d8 v=0
425844 On ch=1 n=c8 v=96
426010 On ch=1 n=c8 v=0
426010 On ch=1 n=d#8 v=96
426154 On ch=1 n=d#8 v=0
426154 On ch=1 n=c8 v=96
426316 On ch=1 n=c8 v=0
426316 On ch=1 n=a#7 v=96
426478 On ch=1 n=a#7 v=0
426478 On ch=1 n=a7 v=96
426640 On ch=1 n=a7 v=0
426640 On ch=1 n=c8 v=96
426828 On ch=1 n=c8 v=0
426828 On ch=1 n=a7 v=96
426992 On ch=1 n=a7 v=0
426992 On ch=1 n=g7 v=96
427156 On ch=1 n=g7 v=0
427156 On ch=1 n=f#7 v=96
427322 On ch=1 n=f#7 v=0
427322 On ch=1 n=a7 v=96
427480 On ch=1 n=a7 v=0
427480 On ch=1 n=f#7 v=88
427646 On ch=1 n=f#7 v=0
427646 On ch=1 n=d#7 v=88
427812 On ch=1 n=d#7 v=0
427812 On ch=1 n=d7 v=88
427978 On ch=1 n=d7 v=0
427978 On ch=1 n=f#7 v=88
428142 On ch=1 n=f#7 v=0
428142 On ch=1 n=d#7 v=88
428306 On ch=1 n=d#7 v=0
428306 On ch=1 n=d7 v=88
428470 On ch=1 n=d7 v=0
428470 On ch=1 n=c7 v=88
428636 On ch=1 n=c7 v=0
428636 On ch=1 n=d#7 v=88
428798 On ch=1 n=d#7 v=0
428798 On ch=1 n=c7 v=85
428964 On ch=1 n=c7 v=0
428964 On ch=1 n=a#6 v=85
429128 On ch=1 n=a#6 v=0
429128 On ch=1 n=a6 v=85
429292 On ch=1 n=a6 v=0
429292 On ch=1 n=c7 v=85
429478 On ch=1 n=c7 v=0
429478 On ch=1 n=a6 v=86
429646 On ch=1 n=a6 v=0
429646 On ch=1 n=g6 v=86
429812 On ch=1 n=g6 v=0
429812 On ch=1 n=f#6 v=86
429980 On ch=1 n=f#6 v=0
429980 On ch=1 n=a6 v=86
430120 On ch=1 n=a6 v=0
430120 On ch=1 n=f#6 v=83
430286 On ch=1 n=f#6 v=0
430286 On ch=1 n=d#6 v=83
430452 On ch=1 n=d#6 v=0
430452 On ch=1 n=d6 v=83
430616 On ch=1 n=d6 v=0
430616 On ch=1 n=f#6 v=83
430772 On ch=1 n=f#6 v=0
430772 On ch=1 n=d#6 v=77
430934 On ch=1 n=d#6 v=0
430934 On ch=1 n=d6 v=77
431096 On ch=1 n=d6 v=0
431096 On ch=1 n=c6 v=77
431258 On ch=1 n=c6 v=0
431258 On ch=1 n=d#6 v=77
431392 On ch=1 n=d#6 v=0
431392 On ch=1 n=c6 v=83
431552 On ch=1 n=c6 v=0
431552 On ch=1 n=a#5 v=83
431710 On ch=1 n=a#5 v=0
431710 On ch=1 n=a5 v=83
431870 On ch=1 n=a5 v=0
431870 On ch=1 n=d6 v=83
432018 On ch=1 n=d6 v=0
440620 On ch=1 n=d8 v=86
442080 On ch=1 n=d8 v=0
442080 On ch=1 n=c8 v=86
443362 On ch=1 n=c8 v=0
443362 On ch=1 n=a#7 v=88
443524 On ch=1 n=a#7 v=0
443524 On ch=1 n=d8 v=88
443684 On ch=1 n=d8 v=0
443684 On ch=1 n=a#7 v=88
443850 On ch=1 n=a#7 v=0
443850 On ch=1 n=d8 v=84
444012 On ch=1 n=d8 v=0
444012 On ch=1 n=c8 v=84
444176 On ch=1 n=c8 v=0
444176 On ch=1 n=a#7 v=84
444338 On ch=1 n=a#7 v=0
444338 On ch=1 n=d8 v=84
444526 On ch=1 n=d8 v=0
444526 On ch=1 n=a#7 v=74
444692 On ch=1 n=a#7 v=0
444692 On ch=1 n=g#7 v=74
444858 On ch=1 n=g#7 v=0
444858 On ch=1 n=g7 v=74
445024 On ch=1 n=g7 v=0
445024 On ch=1 n=a#7 v=74
445176 On ch=1 n=a#7 v=0
445176 On ch=1 n=g7 v=74
445342 On ch=1 n=g7 v=0
445342 On ch=1 n=f7 v=74
445508 On ch=1 n=f7 v=0
445508 On ch=1 n=e7 v=74
445674 On ch=1 n=e7 v=0
445674 On ch=1 n=g7 v=74
445824 On ch=1 n=g7 v=0
445824 On ch=1 n=e7 v=74
445986 On ch=1 n=e7 v=0
445986 On ch=1 n=c#7 v=74
446148 On ch=1 n=c#7 v=0
446148 On ch=1 n=c7 v=74
446312 On ch=1 n=c7 v=0
446312 On ch=1 n=e7 v=74
446468 On ch=1 n=e7 v=0
446468 On ch=1 n=c#7 v=75
446630 On ch=1 n=c#7 v=0
446630 On ch=1 n=c7 v=75
446792 On ch=1 n=c7 v=0
446792 On ch=1 n=a#6 v=75
446952 On ch=1 n=a#6 v=0
446952 On ch=1 n=c#7 v=75
447168 On ch=1 n=c#7 v=0
447168 On ch=1 n=a#6 v=71
447336 On ch=1 n=a#6 v=0
447336 On ch=1 n=g#6 v=71
447504 On ch=1 n=g#6 v=0
447504 On ch=1 n=g6 v=71
447672 On ch=1 n=g6 v=0
447672 On ch=1 n=c7 v=71
447842 On ch=1 n=c7 v=0
455854 On ch=1 n=a5 v=80
455854 On ch=1 n=e5 v=80
455854 On ch=1 n=c5 v=80
456190 On ch=1 n=c5 v=0
456190 On ch=1 n=e5 v=0
456190 On ch=1 n=a5 v=0
456356 On ch=1 n=a5 v=80
456530 On ch=1 n=a5 v=0
456530 On ch=1 n=c#6 v=86
457036 On ch=1 n=c#6 v=0
457036 On ch=1 n=g#5 v=86
457182 On ch=1 n=g#5 v=0
457182 On ch=1 n=a5 v=90
457514 On ch=1 n=a5 v=0
457680 On ch=1 n=e6 v=90
457806 On ch=1 n=e6 v=0
457806 On ch=1 n=d7 v=96
458126 On ch=1 n=d7 v=0
458284 On ch=1 n=c#7 v=96
458450 On ch=1 n=c#7 v=0
458450 On ch=1 n=c#7 v=96
458608 On ch=1 n=c#7 v=0
458608 On ch=1 n=b6 v=96
458768 On ch=1 n=b6 v=0
458768 On ch=1 n=c#7 v=96
458926 On ch=1 n=c#7 v=0
458926 On ch=1 n=b6 v=96
459092 On ch=1 n=b6 v=0
459092 On ch=1 n=c#7 v=96
459254 On ch=1 n=c#7 v=0
459254 On ch=1 n=b6 v=96
459414 On ch=1 n=b6 v=0
459414 On ch=1 n=a6 v=96
459574 On ch=1 n=a6 v=0
459574 On ch=1 n=b6 v=96
459704 On ch=1 n=b6 v=0
459704 On ch=1 n=a6 v=96
460018 On ch=1 n=a6 v=0
460174 On ch=1 n=c#7 v=96
460382 On ch=1 n=c#7 v=0
460382 On ch=1 n=f#7 v=96
460866 On ch=1 n=f#7 v=0
460866 On ch=1 n=d#7 v=96
461010 On ch=1 n=d#7 v=0
461010 On ch=1 n=e7 v=96
461336 On ch=1 n=e7 v=0
461500 On ch=1 n=a7 v=96
461698 On ch=1 n=a7 v=0
461698 On ch=1 n=d8 v=96
462028 On ch=1 n=d8 v=0
462192 On ch=1 n=c#8 v=96
462314 On ch=1 n=c#8 v=0
462314 On ch=1 n=c#8 v=96
462478 On ch=1 n=c#8 v=0
462478 On ch=1 n=b7 v=96
462640 On ch=1 n=b7 v=0
462640 On ch=1 n=c#8 v=96
462804 On ch=1 n=c#8 v=0
462804 On ch=1 n=b7 v=96
462948 On ch=1 n=b7 v=0
462948 On ch=1 n=c#8 v=96
463104 On ch=1 n=c#8 v=0
463104 On ch=1 n=b7 v=96
463260 On ch=1 n=b7 v=0
463260 On ch=1 n=a#7 v=96
463416 On ch=1 n=a#7 v=0
463416 On ch=1 n=b7 v=96
463556 On ch=1 n=b7 v=0
463556 On ch=1 n=b7 v=88
463764 On ch=1 n=b7 v=0
463764 On ch=1 n=e8 v=88
463970 On ch=1 n=e8 v=0
463970 On ch=1 n=c#8 v=88
464232 On ch=1 n=c#8 v=0
464232 On ch=1 n=a7 v=86
464446 On ch=1 n=a7 v=0
464446 On ch=1 n=e7 v=86
464660 On ch=1 n=e7 v=0
464660 On ch=1 n=c#7 v=86
464870 On ch=1 n=c#7 v=0
464870 On ch=1 n=a6 v=82
465090 On ch=1 n=a6 v=0
465090 On ch=1 n=e6 v=82
465308 On ch=1 n=e6 v=0
465308 On ch=1 n=c#6 v=82
465514 On ch=1 n=c#6 v=0
465514 On ch=1 n=a5 v=85
465728 On ch=1 n=a5 v=0
465728 On ch=1 n=e5 v=85
465942 On ch=1 n=e5 v=0
465942 On ch=1 n=c5 v=85
466190 On ch=1 n=c5 v=0
471540 On ch=1 n=c5 v=82
475530 On ch=1 n=c5 v=0
475530 On ch=1 n=c5 v=96
478188 On ch=1 n=c5 v=0
478188 On ch=1 n=c#5 v=96
479532 On ch=1 n=c#5 v=0
479532 On ch=1 n=d5 v=96
483528 On ch=1 n=d5 v=0
483528 On ch=1 n=d5 v=96
486162 On ch=1 n=d5 v=0
486162 On ch=1 n=d#5 v=96
487498 On ch=1 n=d#5 v=0
487498 On ch=1 n=e5 v=99
488774 On ch=1 n=e5 v=0
488774 On ch=1 n=f5 v=99
490102 On ch=1 n=f5 v=0
490102 On ch=1 n=f#5 v=101
491408 On ch=1 n=f#5 v=0
491408 On ch=1 n=g5 v=99
492664 On ch=1 n=g5 v=0
492664 On ch=1 n=d#5 v=96
493984 On ch=1 n=d#5 v=0
493984 On ch=1 n=d5 v=96
495274 On ch=1 n=d5 v=0
495274 On ch=1 n=g4 v=96
495758 On ch=1 n=g4 v=0
495758 On ch=1 n=a#4 v=96
495872 On ch=1 n=a#4 v=0
495872 On ch=1 n=d#5 v=96
496332 On ch=1 n=d#5 v=0
496332 On ch=1 n=c#5 v=96
496538 On ch=1 n=c#5 v=0
496538 On ch=1 n=d5 v=96
497194 On ch=1 n=a#4 v=96
497878 On ch=1 n=a#4 v=0
497878 On ch=1 n=d5 v=0
497878 On ch=1 n=g5 v=98
497878 On ch=1 n=d5 v=98
497878 On ch=1 n=a#4 v=98
498518 On ch=1 n=a#4 v=0
498518 On ch=1 n=a#4 v=96
499206 On ch=1 n=a#4 v=0
499206 On ch=1 n=d5 v=0
499206 On ch=1 n=g5 v=0
499206 On ch=1 n=g4 v=96
499704 On ch=1 n=g4 v=0
499704 On ch=1 n=a#4 v=96
499860 On ch=1 n=a#4 v=0
499860 On ch=1 n=d#5 v=96
500364 On ch=1 n=d#5 v=0
500364 On ch=1 n=c#5 v=96
500494 On ch=1 n=c#5 v=0
500494 On ch=1 n=d5 v=96
501168 On ch=1 n=d5 v=0
501168 On ch=1 n=a#4 v=96
501830 On ch=1 n=a#4 v=0
501830 On ch=1 n=a#5 v=99
501830 On ch=1 n=g5 v=99
501830 On ch=1 n=d5 v=99
501830 On ch=1 n=a#4 v=99
502498 On ch=1 n=a#4 v=0
502498 On ch=1 n=a#4 v=96
503134 On ch=1 n=a#4 v=0
503134 On ch=1 n=d5 v=0
503134 On ch=1 n=g5 v=0
503134 On ch=1 n=a#5 v=0
503134 On ch=1 n=g4 v=96
503624 On ch=1 n=g4 v=0
503624 On ch=1 n=a#4 v=96
503760 On ch=1 n=a#4 v=0
503760 On ch=1 n=d#5 v=96
504234 On ch=1 n=d#5 v=0
504234 On ch=1 n=c#5 v=96
504436 On ch=1 n=c#5 v=0
504436 On ch=1 n=d5 v=96
504924 On ch=1 n=d5 v=0
504924 On ch=1 n=a#5 v=96
505088 On ch=1 n=a#5 v=0
505088 On ch=1 n=d#6 v=96
505586 On ch=1 n=d#6 v=0
505586 On ch=1 n=c#6 v=96
505676 On ch=1 n=c#6 v=0
505676 On ch=1 n=d6 v=96
506142 On ch=1 n=d6 v=0
506142 On ch=1 n=a#6 v=96
506336 On ch=1 n=a#6 v=0
506336 On ch=1 n=d#7 v=96
506804 On ch=1 n=d#7 v=0
506804 On ch=1 n=c#7 v=96
506980 On ch=1 n=c#7 v=0
506980 On ch=1 n=d7 v=96
507052 On ch=1 n=d7 v=0
507052 On ch=1 n=d#7 v=96
507122 On ch=1 n=d#7 v=0
507122 On ch=1 n=d7 v=96
507198 On ch=1 n=d7 v=0
507198 On ch=1 n=c#7 v=96
507416 On ch=1 n=c#7 v=0
507416 On ch=1 n=d7 v=96
507620 On ch=1 n=d7 v=0
507620 On ch=1 n=f7 v=96
507834 On ch=1 n=f7 v=0
507834 On ch=1 n=d#7 v=96
508048 On ch=1 n=d#7 v=0
508048 On ch=1 n=d7 v=96
508274 On ch=1 n=d7 v=0
508274 On ch=1 n=a6 v=96
509604 On ch=1 n=a6 v=0
510886 On ch=1 n=a#6 v=97
511046 On ch=1 n=a#6 v=0
511046 On ch=1 n=a6 v=97
511206 On ch=1 n=a6 v=0
511206 On ch=1 n=g6 v=97
511474 On ch=1 n=g6 v=0
511474 On ch=1 n=a#7 v=96
512148 On ch=1 n=a#7 v=0
512148 On ch=1 n=a7 v=101
512306 On ch=1 n=a7 v=0
512306 On ch=1 n=a6 v=101
512822 On ch=1 n=a6 v=0
512822 On ch=1 n=d6 v=96
513470 On ch=1 n=d6 v=0
513470 On ch=1 n=g6 v=96
514754 On ch=1 n=g6 v=0
514754 On ch=1 n=g6 v=96
514914 On ch=1 n=g6 v=0
514914 On ch=1 n=f6 v=96
515076 On ch=1 n=f6 v=0
515076 On ch=1 n=d#6 v=96
515352 On ch=1 n=d#6 v=0
515352 On ch=1 n=g7 v=96
516020 On ch=1 n=g7 v=0
516020 On ch=1 n=f7 v=99
516178 On ch=1 n=f7 v=0
516178 On ch=1 n=f6 v=99
516670 On ch=1 n=f6 v=0
516670 On ch=1 n=a#5 v=96
517338 On ch=1 n=a#5 v=0
517338 On ch=1 n=d#6 v=96
518278 On ch=1 n=d#6 v=0
518278 On ch=1 n=d#6 v=96
518592 On ch=1 n=d#6 v=0
518592 On ch=1 n=d#6 v=96
519238 On ch=1 n=f#5 v=96
519558 On ch=1 n=d#6 v=0
519558 On ch=1 n=d6 v=96
519910 On ch=1 n=d6 v=0
519910 On ch=1 n=f#5 v=0
519910 On ch=1 n=c#6 v=96
519910 On ch=1 n=f#5 v=96
520240 On ch=1 n=c#6 v=0
520240 On ch=1 n=c6 v=96
520526 On ch=1 n=c6 v=0
520526 On ch=1 n=f#5 v=0
520526 On ch=1 n=a#5 v=96
520526 On ch=1 n=f#5 v=96
520848 On ch=1 n=a#5 v=0
520848 On ch=1 n=a5 v=96
521156 On ch=1 n=a5 v=0
521156 On ch=1 n=f#5 v=0
521156 On ch=1 n=c6 v=96
521156 On ch=1 n=g5 v=96
521468 On ch=1 n=c6 v=0
521468 On ch=1 n=a#5 v=96
521822 On ch=1 n=a#5 v=0
521822 On ch=1 n=g5 v=0
521822 On ch=1 n=a5 v=96
521822 On ch=1 n=c#5 v=96
522146 On ch=1 n=a5 v=0
522146 On ch=1 n=g5 v=96
522448 On ch=1 n=g5 v=0
522448 On ch=1 n=c#5 v=0
522448 On ch=1 n=f#5 v=96
522448 On ch=1 n=d#5 v=96
523076 On ch=1 n=f#5 v=0
523076 On ch=1 n=f#5 v=96
523390 On ch=1 n=d#5 v=0
523390 On ch=1 n=d5 v=96
523744 On ch=1 n=d5 v=0
523744 On ch=1 n=f#5 v=0
523744 On ch=1 n=f#5 v=96
523744 On ch=1 n=c5 v=96
524068 On ch=1 n=c5 v=0
524068 On ch=1 n=c5 v=96
524380 On ch=1 n=c5 v=0
524380 On ch=1 n=f#5 v=0
524380 On ch=1 n=f#5 v=96
524380 On ch=1 n=c5 v=96
524706 On ch=1 n=a4 v=96
524728 On ch=1 n=c5 v=0
525004 On ch=1 n=a4 v=0
525004 On ch=1 n=f#5 v=0
525004 On ch=1 n=g5 v=96
525004 On ch=1 n=d5 v=96
525004 On ch=1 n=g4 v=96
525656 On ch=1 n=g4 v=0
525656 On ch=1 n=d5 v=0
525656 On ch=1 n=g5 v=0
525656 On ch=1 n=a5 v=96
525656 On ch=1 n=f#5 v=96
525656 On ch=1 n=d5 v=96
525656 On ch=1 n=a4 v=96
526296 On ch=1 n=a4 v=0
526296 On ch=1 n=d5 v=0
526296 On ch=1 n=f#5 v=0
526296 On ch=1 n=a5 v=0
526296 On ch=1 n=a#5 v=96
526296 On ch=1 n=g5 v=96
526296 On ch=1 n=d5 v=96
526296 On ch=1 n=a#4 v=96
526780 On ch=1 n=a#4 v=0
526780 On ch=1 n=d5 v=0
526780 On ch=1 n=g5 v=0
526780 On ch=1 n=a#5 v=0
526780 On ch=1 n=a#4 v=96
526922 On ch=1 n=a#4 v=0
526922 On ch=1 n=d#5 v=96
527398 On ch=1 n=d#5 v=0
527398 On ch=1 n=c#5 v=96
527582 On ch=1 n=c#5 v=0
527582 On ch=1 n=d5 v=96
528240 On ch=1 n=a#4 v=96
528856 On ch=1 n=a#4 v=0
528856 On ch=1 n=d5 v=0
528856 On ch=1 n=g5 v=96
528856 On ch=1 n=d5 v=96
528856 On ch=1 n=a#4 v=96
529512 On ch=1 n=a#4 v=0
529512 On ch=1 n=a#4 v=96
530156 On ch=1 n=a#4 v=0
530156 On ch=1 n=d5 v=0
530156 On ch=1 n=g5 v=0
530156 On ch=1 n=g4 v=96
530644 On ch=1 n=g4 v=0
530644 On ch=1 n=a#4 v=96
530808 On ch=1 n=a#4 v=0
530808 On ch=1 n=d#5 v=96
531294 On ch=1 n=d#5 v=0
531294 On ch=1 n=c#5 v=96
531452 On ch=1 n=c#5 v=0
531452 On ch=1 n=d5 v=96
532056 On ch=1 n=a#4 v=96
532724 On ch=1 n=a#4 v=0
532724 On ch=1 n=d5 v=0
532724 On ch=1 n=a#5 v=102
532724 On ch=1 n=g5 v=102
532724 On ch=1 n=d5 v=102
532724 On ch=1 n=a#4 v=102
533364 On ch=1 n=a#4 v=0
533364 On ch=1 n=a#4 v=96
534030 On ch=1 n=a#4 v=0
534030 On ch=1 n=d5 v=0
534030 On ch=1 n=g5 v=0
534030 On ch=1 n=a#5 v=0
534030 On ch=1 n=g5 v=97
534030 On ch=1 n=e5 v=97
534030 On ch=1 n=a#4 v=97
534030 On ch=1 n=g4 v=97
534666 On ch=1 n=g4 v=0
534666 On ch=1 n=a#4 v=0
534666 On ch=1 n=e5 v=0
534666 On ch=1 n=g5 v=0
534666 On ch=1 n=d8 v=96
534666 On ch=1 n=a#7 v=96
535362 On ch=1 n=a#7 v=0
535362 On ch=1 n=d8 v=0
535362 On ch=1 n=d8 v=96
535362 On ch=1 n=a#7 v=96
535584 On ch=1 n=a#7 v=0
535584 On ch=1 n=d8 v=0
535584 On ch=1 n=d8 v=96
535584 On ch=1 n=a#7 v=96
535806 On ch=1 n=a#7 v=0
535806 On ch=1 n=d8 v=0
535806 On ch=1 n=g7 v=96
535806 On ch=1 n=d7 v=96
535976 On ch=1 n=d7 v=0
535976 On ch=1 n=g7 v=0
535976 On ch=1 n=a#7 v=96
535976 On ch=1 n=g7 v=96
536194 On ch=1 n=g7 v=0
536194 On ch=1 n=g7 v=96
536414 On ch=1 n=g7 v=0
536414 On ch=1 n=a#7 v=0
536414 On ch=1 n=d7 v=96
536414 On ch=1 n=a#6 v=96
536548 On ch=1 n=a#6 v=0
536548 On ch=1 n=d7 v=0
536548 On ch=1 n=g7 v=96
536548 On ch=1 n=d7 v=96
536746 On ch=1 n=d7 v=0
536746 On ch=1 n=g7 v=0
536746 On ch=1 n=a7 v=96
536746 On ch=1 n=d#7 v=96
536944 On ch=1 n=d#7 v=0
536944 On ch=1 n=a7 v=0
536944 On ch=1 n=c7 v=96
536944 On ch=1 n=a6 v=96
537196 On ch=1 n=a6 v=0
537196 On ch=1 n=c7 v=0
537196 On ch=1 n=d#7 v=96
537196 On ch=1 n=c7 v=96
537400 On ch=1 n=c7 v=0
537400 On ch=1 n=d#7 v=0
537400 On ch=1 n=d#7 v=96
537400 On ch=1 n=c7 v=96
537602 On ch=1 n=c7 v=0
537602 On ch=1 n=d#7 v=0
537602 On ch=1 n=a6 v=96
537602 On ch=1 n=d#6 v=96
537832 On ch=1 n=d#6 v=0
537832 On ch=1 n=a6 v=0
537832 On ch=1 n=c7 v=96
537832 On ch=1 n=a6 v=96
538046 On ch=1 n=a6 v=0
538046 On ch=1 n=c7 v=0
538046 On ch=1 n=d7 v=96
538046 On ch=1 n=a#6 v=96
538260 On ch=1 n=a#6 v=0
538260 On ch=1 n=d7 v=0
538260 On ch=1 n=f6 v=96
538260 On ch=1 n=d6 v=96
538454 On ch=1 n=d6 v=0
538454 On ch=1 n=f6 v=0
538454 On ch=1 n=a#6 v=96
538454 On ch=1 n=f6 v=96
538664 On ch=1 n=f6 v=0
538664 On ch=1 n=a#6 v=0
538664 On ch=1 n=a#6 v=96
538664 On ch=1 n=f6 v=96
538874 On ch=1 n=f6 v=0
538874 On ch=1 n=a#6 v=0
538874 On ch=1 n=d6 v=96
538874 On ch=1 n=b5 v=96
539086 On ch=1 n=d6 v=0
539086 On ch=1 n=b5 v=0
539086 On ch=1 n=f6 v=96
539086 On ch=1 n=d6 v=96
539296 On ch=1 n=d6 v=0
539296 On ch=1 n=f6 v=0
539296 On ch=1 n=f6 v=96
539296 On ch=1 n=d6 v=96
539504 On ch=1 n=d6 v=0
539504 On ch=1 n=f6 v=0
539504 On ch=1 n=b5 v=96
539504 On ch=1 n=f5 v=96
539692 On ch=1 n=f5 v=0
539692 On ch=1 n=b5 v=0
539692 On ch=1 n=g6 v=96
539692 On ch=1 n=d#6 v=96
539692 On ch=1 n=b5 v=96
539692 On ch=1 n=f5 v=96
540002 On ch=1 n=d#6 v=0
540002 On ch=1 n=g6 v=0
540156 On ch=1 n=c7 v=96
540156 On ch=1 n=f6 v=96
540156 On ch=1 n=d6 v=96
540334 On ch=1 n=d6 v=0
540334 On ch=1 n=f6 v=0
540334 On ch=1 n=c7 v=0
540334 On ch=1 n=f5 v=0
540334 On ch=1 n=b5 v=0
540334 On ch=1 n=d#6 v=96
540334 On ch=1 n=c6 v=96
540334 On ch=1 n=d#5 v=96
541664 On ch=1 n=d#5 v=0
541664 On ch=1 n=c6 v=0
541664 On ch=1 n=d#6 v=0
541664 On ch=1 n=d#6 v=96
541886 On ch=1 n=d#6 v=0
541886 On ch=1 n=f#5 v=96
542108 On ch=1 n=f#5 v=0
542108 On ch=1 n=d#6 v=96
542304 On ch=1 n=d#6 v=0
542304 On ch=1 n=d6 v=96
542522 On ch=1 n=d6 v=0
542522 On ch=1 n=f#5 v=96
542740 On ch=1 n=f#5 v=0
542740 On ch=1 n=d6 v=96
542902 On ch=1 n=d6 v=0
542902 On ch=1 n=a6 v=96
543108 On ch=1 n=a6 v=0
543108 On ch=1 n=d6 v=96
543314 On ch=1 n=d6 v=0
543314 On ch=1 n=a6 v=96
543508 On ch=1 n=a6 v=0
543508 On ch=1 n=d7 v=96
543708 On ch=1 n=d7 v=0
543708 On ch=1 n=d6 v=96
543910 On ch=1 n=d6 v=0
543910 On ch=1 n=c7 v=96
544130 On ch=1 n=c7 v=0
544130 On ch=1 n=a#6 v=96
544334 On ch=1 n=a#6 v=0
544334 On ch=1 n=a6 v=96
544540 On ch=1 n=a6 v=0
544540 On ch=1 n=g6 v=96
544774 On ch=1 n=g6 v=0
544774 On ch=1 n=f#6 v=96
544986 On ch=1 n=f#6 v=0
544986 On ch=1 n=a6 v=96
545196 On ch=1 n=a6 v=0
545196 On ch=1 n=g6 v=96
545372 On ch=1 n=g6 v=0
545372 On ch=1 n=d#7 v=96
545580 On ch=1 n=d#7 v=0
545580 On ch=1 n=f#6 v=96
545786 On ch=1 n=f#6 v=0
545786 On ch=1 n=d#7 v=96
545998 On ch=1 n=d#7 v=0
545998 On ch=1 n=d7 v=96
546202 On ch=1 n=d7 v=0
546202 On ch=1 n=f#6 v=96
546406 On ch=1 n=f#6 v=0
546406 On ch=1 n=d7 v=96
546582 On ch=1 n=d7 v=0
546582 On ch=1 n=a7 v=96
546784 On ch=1 n=a7 v=0
546784 On ch=1 n=d7 v=96
546986 On ch=1 n=d7 v=0
546986 On ch=1 n=a7 v=96
547188 On ch=1 n=a7 v=0
547188 On ch=1 n=d8 v=96
547386 On ch=1 n=d8 v=0
547386 On ch=1 n=d7 v=96
547584 On ch=1 n=d7 v=0
547584 On ch=1 n=c8 v=96
547778 On ch=1 n=c8 v=0
547778 On ch=1 n=a#7 v=96
547978 On ch=1 n=a#7 v=0
547978 On ch=1 n=a7 v=96
548176 On ch=1 n=a7 v=0
548176 On ch=1 n=g7 v=96
548420 On ch=1 n=g7 v=0
548420 On ch=1 n=f#7 v=96
548626 On ch=1 n=f#7 v=0
548626 On ch=1 n=a7 v=96
548830 On ch=1 n=a7 v=0
548830 On ch=1 n=g7 v=96
549040 On ch=1 n=g7 v=0
549040 On ch=1 n=a#7 v=96
549250 On ch=1 n=a#7 v=0
549250 On ch=1 n=g#7 v=96
549460 On ch=1 n=g#7 v=0
549460 On ch=1 n=d#7 v=96
549658 On ch=1 n=d#7 v=0
549658 On ch=1 n=c7 v=96
549864 On ch=1 n=c7 v=0
549864 On ch=1 n=a#6 v=96
550070 On ch=1 n=a#6 v=0
550070 On ch=1 n=g#6 v=96
550266 On ch=1 n=g#6 v=0
550266 On ch=1 n=d#6 v=96
550470 On ch=1 n=d#6 v=0
550470 On ch=1 n=c6 v=96
550674 On ch=1 n=c6 v=0
550674 On ch=1 n=a#5 v=96
550894 On ch=1 n=a#5 v=0
550894 On ch=1 n=g#5 v=96
551100 On ch=1 n=g#5 v=0
551100 On ch=1 n=d#5 v=96
551306 On ch=1 n=d#5 v=0
551306 On ch=1 n=c5 v=96
551500 On ch=1 n=c5 v=0
551500 On ch=1 n=a#4 v=96
551706 On ch=1 n=a#4 v=0
551706 On ch=1 n=g#4 v=96
551912 On ch=1 n=g#4 v=0
551912 On ch=1 n=d#4 v=96
552110 On ch=1 n=d#4 v=0
552110 On ch=1 n=g#4 v=96
552312 On ch=1 n=g#4 v=0
552312 On ch=1 n=d#5 v=96
552516 On ch=1 n=d#5 v=0
552516 On ch=1 n=g4 v=96
552720 On ch=1 n=g4 v=0
552720 On ch=1 n=f#4 v=96
552924 On ch=1 n=f#4 v=0
552924 On ch=1 n=d#5 v=96
553126 On ch=1 n=d#5 v=0
553126 On ch=1 n=d5 v=96
553338 On ch=1 n=d5 v=0
553338 On ch=1 n=c5 v=96
553542 On ch=1 n=c5 v=0
553542 On ch=1 n=a4 v=96
553748 On ch=1 n=a4 v=0
553748 On ch=1 n=f#5 v=96
553950 On ch=1 n=f#5 v=0
553950 On ch=1 n=a5 v=96
553950 On ch=1 n=c5 v=96
555298 On ch=1 n=c5 v=0
555298 On ch=1 n=a5 v=0
555298 On ch=1 n=g5 v=96
555298 On ch=1 n=a#4 v=96
555958 On ch=1 n=a#4 v=0
555958 On ch=1 n=g5 v=0
555958 On ch=1 n=f4 v=96
556610 On ch=1 n=f4 v=0
556610 On ch=1 n=f5 v=96
556610 On ch=1 n=d5 v=96
556610 On ch=1 n=f4 v=96
558018 On ch=1 n=f4 v=0
558018 On ch=1 n=d5 v=0
558018 On ch=1 n=f5 v=0
558018 On ch=1 n=d#5 v=93
558018 On ch=1 n=g5 v=93
558018 On ch=1 n=g4 v=93
558694 On ch=1 n=g4 v=0
558694 On ch=1 n=a4 v=82
559318 On ch=1 n=a4 v=0
559318 On ch=1 n=a#4 v=80
560274 On ch=1 n=a#4 v=0
560274 On ch=1 n=g5 v=0
560274 On ch=1 n=d#5 v=0
560274 On ch=1 n=f5 v=88
560274 On ch=1 n=d5 v=88
560274 On ch=1 n=f4 v=88
560610 On ch=1 n=f4 v=0
560610 On ch=1 n=d5 v=0
560610 On ch=1 n=f5 v=0
560610 On ch=1 n=f5 v=90
560610 On ch=1 n=d5 v=90
561924 On ch=1 n=d5 v=0
561924 On ch=1 n=f5 v=0
561924 On ch=1 n=g5 v=96
561924 On ch=1 n=d#5 v=96
561924 On ch=1 n=g4 v=96
562606 On ch=1 n=g4 v=0
562606 On ch=1 n=a4 v=96
563258 On ch=1 n=a4 v=0
563258 On ch=1 n=a#4 v=96
564152 On ch=1 n=a#4 v=0
564152 On ch=1 n=d#5 v=0
564152 On ch=1 n=g5 v=0
564152 On ch=1 n=f5 v=96
564152 On ch=1 n=d5 v=96
564152 On ch=1 n=f4 v=96
564540 On ch=1 n=f4 v=0
564540 On ch=1 n=d5 v=0
564540 On ch=1 n=f5 v=0
564540 On ch=1 n=f5 v=101
564540 On ch=1 n=d5 v=101
564540 On ch=1 n=f4 v=101
565884 On ch=1 n=f4 v=0
565884 On ch=1 n=d5 v=0
565884 On ch=1 n=f5 v=0
565884 On ch=1 n=g5 v=107
565884 On ch=1 n=d#5 v=107
565884 On ch=1 n=g4 v=107
566576 On ch=1 n=g4 v=0
566576 On ch=1 n=a4 v=96
567232 On ch=1 n=a4 v=0
567232 On ch=1 n=b4 v=96
567858 On ch=1 n=b4 v=0
567858 On ch=1 n=d#5 v=0
567858 On ch=1 n=g5 v=0
567858 On ch=1 n=d5 v=96
567858 On ch=1 n=f5 v=96
567858 On ch=1 n=g4 v=96
568512 On ch=1 n=g4 v=0
568512 On ch=1 n=f5 v=0
568512 On ch=1 n=d5 v=0
568512 On ch=1 n=d5 v=96
568512 On ch=1 n=f5 v=96
568512 On ch=1 n=g4 v=96
568512 On ch=1 n=g4 v=96
571016 On ch=1 n=g4 v=0
571016 On ch=1 n=f5 v=0
571016 On ch=1 n=d5 v=0
571016 On ch=1 n=d#5 v=96
571016 On ch=1 n=c5 v=96
572304 On ch=1 n=c5 v=0
572304 On ch=1 n=d#5 v=0
572304 On ch=1 n=g4 v=0
572304 On ch=1 n=d#5 v=104
572304 On ch=1 n=g5 v=104
572304 On ch=1 n=g4 v=104
573644 On ch=1 n=g4 v=0
573644 On ch=1 n=g5 v=0
573644 On ch=1 n=d#5 v=0
573644 On ch=1 n=f5 v=115
573644 On ch=1 n=g#5 v=115
573644 On ch=1 n=g#4 v=115
574296 On ch=1 n=g#4 v=0
574296 On ch=1 n=b4 v=96
574926 On ch=1 n=b4 v=0
574926 On ch=1 n=c5 v=96
575884 On ch=1 n=c5 v=0
575884 On ch=1 n=g#5 v=0
575884 On ch=1 n=f5 v=0
575884 On ch=1 n=g5 v=96
575884 On ch=1 n=d#5 v=96
575884 On ch=1 n=g4 v=96
576226 On ch=1 n=g4 v=0
576226 On ch=1 n=d#5 v=0
576226 On ch=1 n=g5 v=0
576226 On ch=1 n=d#5 v=101
576226 On ch=1 n=g5 v=101
576226 On ch=1 n=g4 v=101
577518 On ch=1 n=g4 v=0
577518 On ch=1 n=g5 v=0
577518 On ch=1 n=d#5 v=0
577518 On ch=1 n=f5 v=122
577518 On ch=1 n=g#5 v=122
577518 On ch=1 n=g#4 v=122
578174 On ch=1 n=g#4 v=0
578174 On ch=1 n=b4 v=96
578840 On ch=1 n=b4 v=0
578840 On ch=1 n=c5 v=96
579460 On ch=1 n=c5 v=0
579460 On ch=1 n=g#5 v=0
579460 On ch=1 n=f5 v=0
579460 On ch=1 n=g5 v=99
579460 On ch=1 n=d#5 v=99
579460 On ch=1 n=g4 v=99
580090 On ch=1 n=g4 v=0
580090 On ch=1 n=d#5 v=0
580090 On ch=1 n=g5 v=0
580090 On ch=1 n=g5 v=102
580090 On ch=1 n=a4 v=102
580090 On ch=1 n=d#5 v=102
582000 On ch=1 n=g5 v=0
582000 On ch=1 n=f5 v=96
582664 On ch=1 n=f5 v=0
582664 On ch=1 n=d#5 v=0
582664 On ch=1 n=a4 v=0
582664 On ch=1 n=g5 v=104
582664 On ch=1 n=d5 v=104
582664 On ch=1 n=a#4 v=104
583616 On ch=1 n=g5 v=0
583616 On ch=1 n=f5 v=96
583868 On ch=1 n=f5 v=0
583868 On ch=1 n=a#4 v=0
583868 On ch=1 n=d5 v=0
583868 On ch=1 n=c5 v=99
583868 On ch=1 n=a4 v=99
585176 On ch=1 n=a4 v=0
585176 On ch=1 n=c5 v=0
585808 On ch=1 n=f5 v=96
586436 On ch=1 n=f5 v=0
586436 On ch=1 n=f5 v=90
587058 On ch=1 n=f5 v=0
587058 On ch=1 n=f5 v=80
587690 On ch=1 n=f5 v=0
587690 On ch=1 n=d6 v=83
589590 On ch=1 n=d6 v=0
589590 On ch=1 n=d6 v=90
590218 On ch=1 n=d6 v=0
590218 On ch=1 n=d#6 v=88
590376 On ch=1 n=d#6 v=0
590376 On ch=1 n=d6 v=88
590534 On ch=1 n=d6 v=0
590534 On ch=1 n=c6 v=88
590844 On ch=1 n=c6 v=0
590844 On ch=1 n=a5 v=82
591484 On ch=1 n=a5 v=0
591484 On ch=1 n=a#5 v=79
591696 On ch=1 n=a#5 v=0
591696 On ch=1 n=c6 v=79
591906 On ch=1 n=c6 v=0
591906 On ch=1 n=a#5 v=79
592096 On ch=1 n=a#5 v=0
592096 On ch=1 n=a5 v=75
592304 On ch=1 n=a5 v=0
592304 On ch=1 n=a#5 v=75
592514 On ch=1 n=a#5 v=0
592514 On ch=1 n=c6 v=75
592720 On ch=1 n=c6 v=0
592720 On ch=1 n=d6 v=80
592926 On ch=1 n=d6 v=0
592926 On ch=1 n=d#6 v=80
593132 On ch=1 n=d#6 v=0
593132 On ch=1 n=f6 v=80
593368 On ch=1 n=f6 v=0
593368 On ch=1 n=g6 v=79
593528 On ch=1 n=g6 v=0
593528 On ch=1 n=a6 v=79
593686 On ch=1 n=a6 v=0
593686 On ch=1 n=a#6 v=79
593846 On ch=1 n=a#6 v=0
593846 On ch=1 n=g6 v=79
594026 On ch=1 n=g6 v=0
594026 On ch=1 n=f6 v=82
594968 On ch=1 n=f6 v=0
594968 On ch=1 n=d#6 v=88
595252 On ch=1 n=d#6 v=0
595252 On ch=1 n=d6 v=96
595328 On ch=1 n=d6 v=0
595328 On ch=1 n=d#6 v=96
595406 On ch=1 n=d#6 v=0
595406 On ch=1 n=d6 v=96
595636 On ch=1 n=d6 v=0
595636 On ch=1 n=d#6 v=96
595932 On ch=1 n=d#6 v=0
595932 On ch=1 n=d6 v=96
596132 On ch=1 n=d6 v=0
596132 On ch=1 n=c6 v=96
596334 On ch=1 n=c6 v=0
596334 On ch=1 n=d6 v=96
596554 On ch=1 n=d6 v=0
596554 On ch=1 n=d#6 v=96
596760 On ch=1 n=d#6 v=0
596760 On ch=1 n=f6 v=96
596964 On ch=1 n=f6 v=0
596964 On ch=1 n=g6 v=96
597164 On ch=1 n=g6 v=0
597164 On ch=1 n=a6 v=96
597368 On ch=1 n=a6 v=0
597368 On ch=1 n=g6 v=96
597574 On ch=1 n=g6 v=0
597574 On ch=1 n=a6 v=96
597808 On ch=1 n=a6 v=0
597808 On ch=1 n=c7 v=96
598460 On ch=1 n=c7 v=0
598460 On ch=1 n=a#6 v=91
598944 On ch=1 n=a#6 v=0
598944 On ch=1 n=a6 v=91
599030 On ch=1 n=a6 v=0
599030 On ch=1 n=a6 v=96
600008 On ch=1 n=a6 v=0
600008 On ch=1 n=g6 v=96
600302 On ch=1 n=g6 v=0
600302 On ch=1 n=a6 v=96
600462 On ch=1 n=a6 v=0
600462 On ch=1 n=g6 v=96
600620 On ch=1 n=g6 v=0
600620 On ch=1 n=f6 v=96
601642 On ch=1 n=f6 v=0
602234 On ch=1 n=f6 v=96
602234 On ch=1 n=d6 v=96
603300 On ch=1 n=d6 v=0
603300 On ch=1 n=f6 v=0
603300 On ch=1 n=d#6 v=96
603300 On ch=1 n=c6 v=96
603466 On ch=1 n=c6 v=0
603466 On ch=1 n=d#6 v=0
603466 On ch=1 n=f5 v=96
603928 On ch=1 n=f5 v=0
603928 On ch=1 n=d#6 v=96
603928 On ch=1 n=c6 v=96
604086 On ch=1 n=c6 v=0
604086 On ch=1 n=d#6 v=0
604086 On ch=1 n=f6 v=96
604550 On ch=1 n=f6 v=0
604550 On ch=1 n=c7 v=96
604550 On ch=1 n=d#7 v=96
604692 On ch=1 n=d#7 v=0
604692 On ch=1 n=c7 v=0
604692 On ch=1 n=f7 v=96
605152 On ch=1 n=f7 v=0
605152 On ch=1 n=d#8 v=96
605152 On ch=1 n=c8 v=96
605274 On ch=1 n=c8 v=0
605274 On ch=1 n=d#8 v=0
605274 On ch=1 n=d8 v=96
605274 On ch=1 n=a#7 v=96
605570 On ch=1 n=a#7 v=0
605570 On ch=1 n=d8 v=0
606000 On ch=1 n=d6 v=96
606000 On ch=1 n=a#5 v=96
607194 On ch=1 n=a#5 v=0
607194 On ch=1 n=d6 v=0
607194 On ch=1 n=c6 v=96
607194 On ch=1 n=a5 v=96
607342 On ch=1 n=a5 v=0
607342 On ch=1 n=c6 v=0
607342 On ch=1 n=d5 v=96
607846 On ch=1 n=d5 v=0
607846 On ch=1 n=c6 v=96
607846 On ch=1 n=a5 v=96
607944 On ch=1 n=a5 v=0
607944 On ch=1 n=c6 v=0
607944 On ch=1 n=d6 v=96
608422 On ch=1 n=d6 v=0
608422 On ch=1 n=c7 v=96
608422 On ch=1 n=a6 v=96
608538 On ch=1 n=a6 v=0
608538 On ch=1 n=c7 v=0
608538 On ch=1 n=d7 v=96
608986 On ch=1 n=d7 v=0
608986 On ch=1 n=c8 v=96
608986 On ch=1 n=a7 v=96
609112 On ch=1 n=a7 v=0
609112 On ch=1 n=c8 v=0
609112 On ch=1 n=a#7 v=96
609112 On ch=1 n=g7 v=96
609404 On ch=1 n=g7 v=0
609404 On ch=1 n=a#7 v=0
609800 On ch=1 n=a#5 v=96
609800 On ch=1 n=g5 v=96
610446 On ch=1 n=a#5 v=0
610446 On ch=1 n=b5 v=96
610780 On ch=1 n=b5 v=0
610780 On ch=1 n=c6 v=96
611094 On ch=1 n=c6 v=0
611094 On ch=1 n=b5 v=96
611310 On ch=1 n=b5 v=0
611310 On ch=1 n=a5 v=96
611526 On ch=1 n=a5 v=0
611526 On ch=1 n=b5 v=96
611720 On ch=1 n=b5 v=0
611720 On ch=1 n=c6 v=96
611932 On ch=1 n=c6 v=0
611932 On ch=1 n=d6 v=96
612144 On ch=1 n=d6 v=0
612144 On ch=1 n=c6 v=96
612344 On ch=1 n=c6 v=0
612344 On ch=1 n=b5 v=90
612552 On ch=1 n=b5 v=0
612552 On ch=1 n=c6 v=90
612760 On ch=1 n=c6 v=0
612760 On ch=1 n=d6 v=90
612966 On ch=1 n=d6 v=0
612966 On ch=1 n=g5 v=0
612966 On ch=1 n=f6 v=91
612966 On ch=1 n=g5 v=91
613614 On ch=1 n=f6 v=0
613614 On ch=1 n=d#6 v=90
613932 On ch=1 n=g5 v=0
613932 On ch=1 n=d#5 v=90
614090 On ch=1 n=d#6 v=0
614090 On ch=1 n=c6 v=90
614258 On ch=1 n=c6 v=0
614258 On ch=1 n=d#5 v=0
614258 On ch=1 n=a#5 v=91
614258 On ch=1 n=d5 v=91
615534 On ch=1 n=d5 v=0
615534 On ch=1 n=a#5 v=0
615534 On ch=1 n=c6 v=93
615534 On ch=1 n=c5 v=93
615694 On ch=1 n=c6 v=0
615694 On ch=1 n=a#5 v=93
615854 On ch=1 n=a#5 v=0
615854 On ch=1 n=a5 v=93
616204 On ch=1 n=a5 v=0
616204 On ch=1 n=c5 v=0
616860 On ch=1 n=c#6 v=96
616860 On ch=1 n=a5 v=96
616860 On ch=1 n=f5 v=96
616860 On ch=1 n=d#5 v=96
618258 On ch=1 n=d#5 v=0
618258 On ch=1 n=f5 v=0
618258 On ch=1 n=a5 v=0
618258 On ch=1 n=c#6 v=0
618258 On ch=1 n=d6 v=96
618258 On ch=1 n=a#5 v=96
618258 On ch=1 n=f5 v=96
618258 On ch=1 n=d5 v=96
618918 On ch=1 n=f5 v=0
620196 On ch=1 n=d5 v=0
620196 On ch=1 n=a#5 v=0
620196 On ch=1 n=d6 v=0
620196 On ch=1 n=d6 v=93
620844 On ch=1 n=d6 v=0
620844 On ch=1 n=d#6 v=96
621002 On ch=1 n=d#6 v=0
621002 On ch=1 n=d6 v=96
621162 On ch=1 n=d6 v=0
621162 On ch=1 n=c6 v=96
621458 On ch=1 n=c6 v=0
621458 On ch=1 n=a5 v=96
622128 On ch=1 n=a5 v=0
622128 On ch=1 n=a#5 v=96
622342 On ch=1 n=a#5 v=0
622342 On ch=1 n=c6 v=96
622556 On ch=1 n=c6 v=0
622556 On ch=1 n=a#5 v=96
622722 On ch=1 n=a#5 v=0
622722 On ch=1 n=a5 v=96
622932 On ch=1 n=a5 v=0
622932 On ch=1 n=a#5 v=96
623144 On ch=1 n=a#5 v=0
623144 On ch=1 n=c6 v=96
623336 On ch=1 n=c6 v=0
623336 On ch=1 n=d6 v=96
623538 On ch=1 n=d6 v=0
623538 On ch=1 n=d#6 v=96
623738 On ch=1 n=d#6 v=0
623738 On ch=1 n=f6 v=96
623968 On ch=1 n=f6 v=0
623968 On ch=1 n=g6 v=96
624124 On ch=1 n=g6 v=0
624124 On ch=1 n=a6 v=96
624280 On ch=1 n=a6 v=0
624280 On ch=1 n=a#6 v=96
624436 On ch=1 n=a#6 v=0
624436 On ch=1 n=g6 v=96
624610 On ch=1 n=g6 v=0
624610 On ch=1 n=f6 v=96
625520 On ch=1 n=f6 v=0
625520 On ch=1 n=d#6 v=96
625830 On ch=1 n=d#6 v=0
625830 On ch=1 n=d6 v=96
626034 On ch=1 n=d6 v=0
626034 On ch=1 n=c#6 v=96
626236 On ch=1 n=c#6 v=0
626236 On ch=1 n=d6 v=96
626476 On ch=1 n=d6 v=0
626476 On ch=1 n=c7 v=96
626688 On ch=1 n=c7 v=0
626688 On ch=1 n=a#6 v=96
626898 On ch=1 n=a#6 v=0
626898 On ch=1 n=c8 v=96
627106 On ch=1 n=c8 v=0
627106 On ch=1 n=a#7 v=88
627426 On ch=1 n=a#7 v=0
627426 On ch=1 n=g#7 v=88
627584 On ch=1 n=g#7 v=0
627584 On ch=1 n=f7 v=88
627688 On ch=1 n=f7 v=0
627688 On ch=1 n=d7 v=96
627810 On ch=1 n=d7 v=0
627810 On ch=1 n=a#6 v=96
627930 On ch=1 n=a#6 v=0
627930 On ch=1 n=g#6 v=96
628052 On ch=1 n=g#6 v=0
628052 On ch=1 n=f6 v=96
628172 On ch=1 n=f6 v=0
628172 On ch=1 n=d6 v=96
628334 On ch=1 n=d6 v=0
628334 On ch=1 n=b5 v=96
629342 On ch=1 n=b5 v=0
629342 On ch=1 n=a#5 v=96
629614 On ch=1 n=a#5 v=0
629614 On ch=1 n=a#5 v=96
629774 On ch=1 n=a#5 v=0
629774 On ch=1 n=g#5 v=96
629934 On ch=1 n=g#5 v=0
629934 On ch=1 n=a#5 v=96
630094 On ch=1 n=a#5 v=0
630094 On ch=1 n=g#5 v=96
630284 On ch=1 n=g#5 v=0
630284 On ch=1 n=a#5 v=96
630444 On ch=1 n=a#5 v=0
630444 On ch=1 n=g#5 v=96
630602 On ch=1 n=g#5 v=0
630602 On ch=1 n=a#5 v=96
630762 On ch=1 n=a#5 v=0
630762 On ch=1 n=g#5 v=96
630880 On ch=1 n=g#5 v=0
630880 On ch=1 n=a#5 v=96
631038 On ch=1 n=a#5 v=0
631038 On ch=1 n=g#5 v=96
631196 On ch=1 n=g#5 v=0
631196 On ch=1 n=a#5 v=96
631356 On ch=1 n=a#5 v=0
631356 On ch=1 n=g#5 v=96
631544 On ch=1 n=g#5 v=0
631544 On ch=1 n=a#5 v=96
631702 On ch=1 n=a#5 v=0
631702 On ch=1 n=g#5 v=96
631860 On ch=1 n=g#5 v=0
631860 On ch=1 n=g5 v=96
632016 On ch=1 n=g5 v=0
632016 On ch=1 n=g#5 v=96
632184 On ch=1 n=g#5 v=0
632184 On ch=1 n=g5 v=96
633392 On ch=1 n=g5 v=0
633392 On ch=1 n=f5 v=96
634052 On ch=1 n=f5 v=0
634052 On ch=1 n=g6 v=96
634382 On ch=1 n=g6 v=0
634382 On ch=1 n=f6 v=96
635328 On ch=1 n=f6 v=0
635328 On ch=1 n=g7 v=96
635648 On ch=1 n=g7 v=0
635806 On ch=1 n=f7 v=96
635926 On ch=1 n=f7 v=0
635926 On ch=1 n=d#7 v=96
636002 On ch=1 n=d#7 v=0
636002 On ch=1 n=f7 v=96
636080 On ch=1 n=f7 v=0
636080 On ch=1 n=d#7 v=96
636232 On ch=1 n=d#7 v=0
636386 On ch=1 n=d7 v=96
636536 On ch=1 n=d7 v=0
636536 On ch=1 n=c7 v=96
636612 On ch=1 n=c7 v=0
636612 On ch=1 n=d7 v=96
636688 On ch=1 n=d7 v=0
636688 On ch=1 n=c7 v=96
636838 On ch=1 n=c7 v=0
636990 On ch=1 n=a#6 v=96
637174 On ch=1 n=a#6 v=0
637174 On ch=1 n=a#6 v=96
637784 On ch=1 n=a#6 v=0
637784 On ch=1 n=a6 v=96
639090 On ch=1 n=a6 v=0
639090 On ch=1 n=g#6 v=96
640350 On ch=1 n=g#6 v=0
640350 On ch=1 n=g6 v=96
640998 On ch=1 n=g6 v=0
640998 On ch=1 n=a#6 v=96
641154 On ch=1 n=a#6 v=0
641154 On ch=1 n=c7 v=96
641312 On ch=1 n=c7 v=0
641312 On ch=1 n=c#7 v=96
641638 On ch=1 n=c#7 v=0
641638 On ch=1 n=c#7 v=89
641800 On ch=1 n=c#7 v=0
641800 On ch=1 n=e7 v=89
641960 On ch=1 n=e7 v=0
641960 On ch=1 n=e8 v=89
642302 On ch=1 n=e8 v=0
642302 On ch=1 n=d7 v=96
642384 On ch=1 n=d7 v=0
642384 On ch=1 n=f7 v=96
642466 On ch=1 n=f7 v=0
642466 On ch=1 n=f8 v=96
642628 On ch=1 n=f8 v=0
642628 On ch=1 n=d8 v=96
642922 On ch=1 n=d8 v=0
642922 On ch=1 n=a#7 v=96
643244 On ch=1 n=a#7 v=0
643244 On ch=1 n=f7 v=96
643558 On ch=1 n=f7 v=0
643558 On ch=1 n=d7 v=93
643872 On ch=1 n=d7 v=0
643872 On ch=1 n=a#6 v=93
644162 On ch=1 n=a#6 v=0
644162 On ch=1 n=f6 v=91
644472 On ch=1 n=f6 v=0
644472 On ch=1 n=d6 v=91
644802 On ch=1 n=d6 v=0
644802 On ch=1 n=d#6 v=96
644880 On ch=1 n=d#6 v=0
644880 On ch=1 n=g6 v=96
645114 On ch=1 n=g6 v=0
645114 On ch=1 n=f6 v=96
645400 On ch=1 n=f6 v=0
645400 On ch=1 n=d#6 v=96
645864 On ch=1 n=d#6 v=0
645864 On ch=1 n=a5 v=96
646086 On ch=1 n=a5 v=0
646086 On ch=1 n=c6 v=96
646086 On ch=1 n=d#5 v=96
647426 On ch=1 n=d#5 v=0
647426 On ch=1 n=c6 v=0
647426 On ch=1 n=a#5 v=96
647426 On ch=1 n=d5 v=96
648096 On ch=1 n=d5 v=0
648096 On ch=1 n=a#5 v=0
649420 On ch=1 n=d6 v=96
649420 On ch=1 n=a5 v=96
649586 On ch=1 n=d6 v=0
649586 On ch=1 n=c6 v=96
649752 On ch=1 n=c6 v=0
649752 On ch=1 n=d6 v=96
649918 On ch=1 n=d6 v=0
649918 On ch=1 n=c6 v=96
650024 On ch=1 n=c6 v=0
650024 On ch=1 n=a5 v=0
650024 On ch=1 n=a#5 v=96
650024 On ch=1 n=g5 v=96
651042 On ch=1 n=g5 v=0
651042 On ch=1 n=a#5 v=0
651042 On ch=1 n=c6 v=96
651042 On ch=1 n=a5 v=96
651390 On ch=1 n=a5 v=0
651390 On ch=1 n=c6 v=0
651390 On ch=1 n=d6 v=96
651390 On ch=1 n=a#5 v=96
651902 On ch=1 n=a#5 v=0
651902 On ch=1 n=d6 v=0
651902 On ch=1 n=d#6 v=96
651902 On ch=1 n=c6 v=96
652084 On ch=1 n=c6 v=0
652084 On ch=1 n=d#6 v=0
652084 On ch=1 n=f6 v=96
652084 On ch=1 n=d6 v=96
652596 On ch=1 n=d6 v=0
652596 On ch=1 n=f6 v=0
652596 On ch=1 n=g6 v=96
652596 On ch=1 n=d#6 v=96
652728 On ch=1 n=d#6 v=0
652728 On ch=1 n=g6 v=0
652728 On ch=1 n=f6 v=96
652728 On ch=1 n=d6 v=96
654026 On ch=1 n=d6 v=0
654026 On ch=1 n=f6 v=0
654026 On ch=1 n=a6 v=101
654026 On ch=1 n=f6 v=101
654026 On ch=1 n=c6 v=101
654188 On ch=1 n=f6 v=0
654188 On ch=1 n=d#6 v=101
654350 On ch=1 n=d#6 v=0
654350 On ch=1 n=f6 v=101
654514 On ch=1 n=f6 v=0
654514 On ch=1 n=d#6 v=101
654652 On ch=1 n=d#6 v=0
654652 On ch=1 n=f6 v=96
654814 On ch=1 n=f6 v=0
654814 On ch=1 n=d#6 v=96
654976 On ch=1 n=d#6 v=0
654976 On ch=1 n=d6 v=96
655138 On ch=1 n=d6 v=0
655138 On ch=1 n=d#6 v=96
655316 On ch=1 n=d#6 v=0
655316 On ch=1 n=c6 v=0
655316 On ch=1 n=a6 v=0
655316 On ch=1 n=a#6 v=107
655316 On ch=1 n=d6 v=107
655316 On ch=1 n=a#5 v=107
656004 On ch=1 n=a#5 v=0
656004 On ch=1 n=d6 v=0
656004 On ch=1 n=a#6 v=0
657366 On ch=1 n=d6 v=96
657366 On ch=1 n=a5 v=96
657536 On ch=1 n=d6 v=0
657536 On ch=1 n=c6 v=96
657708 On ch=1 n=c6 v=0
657708 On ch=1 n=d6 v=96
657878 On ch=1 n=d6 v=0
657878 On ch=1 n=c6 v=96
658014 On ch=1 n=c6 v=0
658014 On ch=1 n=a5 v=0
658014 On ch=1 n=a#5 v=96
658014 On ch=1 n=g5 v=96
658994 On ch=1 n=g5 v=0
658994 On ch=1 n=a#5 v=0
658994 On ch=1 n=c6 v=96
658994 On ch=1 n=a5 v=96
659276 On ch=1 n=a5 v=0
659276 On ch=1 n=c6 v=0
659276 On ch=1 n=d6 v=96
659276 On ch=1 n=a#5 v=96
659750 On ch=1 n=a#5 v=0
659750 On ch=1 n=d6 v=0
659750 On ch=1 n=d#6 v=96
659750 On ch=1 n=c6 v=96
659908 On ch=1 n=c6 v=0
659908 On ch=1 n=d#6 v=0
659908 On ch=1 n=f6 v=96
659908 On ch=1 n=d6 v=96
660374 On ch=1 n=d6 v=0
660374 On ch=1 n=f6 v=0
660374 On ch=1 n=g6 v=96
660374 On ch=1 n=d#6 v=96
660590 On ch=1 n=d#6 v=0
660590 On ch=1 n=g6 v=0
660590 On ch=1 n=f6 v=96
660590 On ch=1 n=d6 v=96
661868 On ch=1 n=d6 v=0
661868 On ch=1 n=f6 v=0
661868 On ch=1 n=a6 v=96
661868 On ch=1 n=f6 v=96
661868 On ch=1 n=c6 v=96
662028 On ch=1 n=f6 v=0
662028 On ch=1 n=d#6 v=96
662188 On ch=1 n=d#6 v=0
662188 On ch=1 n=f6 v=96
662348 On ch=1 n=f6 v=0
662348 On ch=1 n=d#6 v=96
662482 On ch=1 n=d#6 v=0
662482 On ch=1 n=f6 v=96
662638 On ch=1 n=f6 v=0
662638 On ch=1 n=d#6 v=96
662796 On ch=1 n=d#6 v=0
662796 On ch=1 n=d6 v=96
662952 On ch=1 n=d6 v=0
662952 On ch=1 n=d#6 v=96
663144 On ch=1 n=d#6 v=0
663144 On ch=1 n=c6 v=0
663144 On ch=1 n=a6 v=0
663144 On ch=1 n=a#6 v=97
663144 On ch=1 n=d6 v=97
663144 On ch=1 n=a#5 v=97
663464 On ch=1 n=a#5 v=0
663464 On ch=1 n=d6 v=0
663464 On ch=1 n=a#6 v=0
665104 On ch=1 n=d#6 v=96
665104 On ch=1 n=b5 v=96
665270 On ch=1 n=d#6 v=0
665270 On ch=1 n=d6 v=96
665434 On ch=1 n=d6 v=0
665434 On ch=1 n=d#6 v=96
665598 On ch=1 n=d#6 v=0
665598 On ch=1 n=d6 v=96
665756 On ch=1 n=d6 v=0
665756 On ch=1 n=b5 v=0
665756 On ch=1 n=c6 v=96
665756 On ch=1 n=a5 v=96
666778 On ch=1 n=a5 v=0
666778 On ch=1 n=c6 v=0
666778 On ch=1 n=d6 v=96
666778 On ch=1 n=b5 v=96
667060 On ch=1 n=d6 v=0
667060 On ch=1 n=b5 v=0
667060 On ch=1 n=d#6 v=96
667060 On ch=1 n=c6 v=96
667550 On ch=1 n=c6 v=0
667550 On ch=1 n=d#6 v=0
667550 On ch=1 n=f6 v=96
667550 On ch=1 n=d6 v=96
667714 On ch=1 n=d6 v=0
667714 On ch=1 n=f6 v=0
667714 On ch=1 n=g6 v=101
667714 On ch=1 n=d#6 v=101
668192 On ch=1 n=d#6 v=0
668192 On ch=1 n=g6 v=0
668192 On ch=1 n=g#6 v=101
668192 On ch=1 n=f6 v=101
668334 On ch=1 n=f6 v=0
668334 On ch=1 n=g#6 v=0
668334 On ch=1 n=g6 v=97
668334 On ch=1 n=d#6 v=97
669652 On ch=1 n=d#6 v=0
669652 On ch=1 n=g6 v=0
669652 On ch=1 n=b6 v=116
669652 On ch=1 n=g6 v=116
669652 On ch=1 n=d6 v=116
669818 On ch=1 n=g6 v=0
669818 On ch=1 n=f6 v=116
669982 On ch=1 n=f6 v=0
669982 On ch=1 n=g6 v=116
670146 On ch=1 n=g6 v=0
670146 On ch=1 n=f6 v=116
670252 On ch=1 n=f6 v=0
670252 On ch=1 n=g6 v=98
670408 On ch=1 n=g6 v=0
670408 On ch=1 n=f6 v=98
670564 On ch=1 n=f6 v=0
670564 On ch=1 n=d#6 v=98
670718 On ch=1 n=d#6 v=0
670718 On ch=1 n=f6 v=98
670910 On ch=1 n=f6 v=0
670910 On ch=1 n=d6 v=0
670910 On ch=1 n=b6 v=0
670910 On ch=1 n=c7 v=111
670910 On ch=1 n=d#6 v=111
670910 On ch=1 n=c6 v=111
671618 On ch=1 n=c6 v=0
671618 On ch=1 n=d#6 v=0
671618 On ch=1 n=c7 v=0
672910 On ch=1 n=d#6 v=96
672910 On ch=1 n=b5 v=96
673072 On ch=1 n=d#6 v=0
673072 On ch=1 n=d6 v=96
673234 On ch=1 n=d6 v=0
673234 On ch=1 n=d#6 v=96
673394 On ch=1 n=d#6 v=0
673394 On ch=1 n=d6 v=96
673532 On ch=1 n=d6 v=0
673532 On ch=1 n=b5 v=0
673532 On ch=1 n=c6 v=96
673532 On ch=1 n=a5 v=96
674560 On ch=1 n=a5 v=0
674560 On ch=1 n=c6 v=0
674560 On ch=1 n=d6 v=96
674560 On ch=1 n=b5 v=96
674838 On ch=1 n=d6 v=0
674838 On ch=1 n=b5 v=0
674838 On ch=1 n=d#6 v=96
674838 On ch=1 n=c6 v=96
675482 On ch=1 n=c6 v=0
675482 On ch=1 n=d#6 v=0
675482 On ch=1 n=a#6 v=96
675482 On ch=1 n=d#6 v=96
675482 On ch=1 n=c6 v=96
676138 On ch=1 n=a#6 v=0
676138 On ch=1 n=a6 v=102
676830 On ch=1 n=a6 v=0
676830 On ch=1 n=c6 v=0
676830 On ch=1 n=d#6 v=0
678130 On ch=1 n=c5 v=96
678292 On ch=1 n=c5 v=0
678292 On ch=1 n=c#5 v=96
678456 On ch=1 n=c#5 v=0
678456 On ch=1 n=d#5 v=96
678618 On ch=1 n=d#5 v=0
678618 On ch=1 n=f5 v=96
678748 On ch=1 n=f5 v=0
678748 On ch=1 n=f#5 v=96
679406 On ch=1 n=f#5 v=0
679406 On ch=1 n=a#5 v=96
679406 On ch=1 n=e5 v=96
679406 On ch=1 n=c5 v=96
680058 On ch=1 n=e5 v=0
680058 On ch=1 n=a#5 v=0
680058 On ch=1 n=a5 v=102
680058 On ch=1 n=f5 v=102
680720 On ch=1 n=f5 v=0
680720 On ch=1 n=a5 v=0
680720 On ch=1 n=c5 v=0
682016 On ch=1 n=c5 v=99
682178 On ch=1 n=c5 v=0
682178 On ch=1 n=c#5 v=99
682340 On ch=1 n=c#5 v=0
682340 On ch=1 n=d#5 v=99
682502 On ch=1 n=d#5 v=0
682502 On ch=1 n=f5 v=99
682630 On ch=1 n=f5 v=0
682630 On ch=1 n=f#5 v=111
683314 On ch=1 n=f#5 v=0
683314 On ch=1 n=a#5 v=105
683314 On ch=1 n=e5 v=105
683314 On ch=1 n=c5 v=105
684002 On ch=1 n=e5 v=0
684002 On ch=1 n=a#5 v=0
684002 On ch=1 n=a5 v=102
684002 On ch=1 n=f5 v=102
684638 On ch=1 n=f5 v=0
684638 On ch=1 n=a5 v=0
684638 On ch=1 n=c5 v=0
694394 On ch=1 n=d6 v=96
695052 On ch=1 n=d6 v=0
695052 On ch=1 n=d#6 v=96
695216 On ch=1 n=d#6 v=0
695216 On ch=1 n=d6 v=96
695380 On ch=1 n=d6 v=0
695380 On ch=1 n=c6 v=96
695706 On ch=1 n=c6 v=0
695706 On ch=1 n=a5 v=96
696446 On ch=1 n=a5 v=0
696446 On ch=1 n=a#5 v=96
696680 On ch=1 n=a#5 v=0
696680 On ch=1 n=c6 v=96
696912 On ch=1 n=c6 v=0
696912 On ch=1 n=a#5 v=96
697118 On ch=1 n=a#5 v=0
697118 On ch=1 n=a5 v=96
697354 On ch=1 n=a5 v=0
697354 On ch=1 n=a#5 v=96
697590 On ch=1 n=a#5 v=0
697590 On ch=1 n=c6 v=96
697812 On ch=1 n=c6 v=0
697812 On ch=1 n=d6 v=96
698040 On ch=1 n=d6 v=0
698040 On ch=1 n=d#6 v=96
698268 On ch=1 n=d#6 v=0
698268 On ch=1 n=f6 v=96
698496 On ch=1 n=f6 v=0
698496 On ch=1 n=g6 v=90
698668 On ch=1 n=g6 v=0
698668 On ch=1 n=a6 v=90
698842 On ch=1 n=a6 v=0
698842 On ch=1 n=a#6 v=90
699014 On ch=1 n=a#6 v=0
699014 On ch=1 n=g6 v=90
699208 On ch=1 n=g6 v=0
699208 On ch=1 n=f6 v=91
700290 On ch=1 n=f6 v=0
700290 On ch=1 n=d#6 v=93
700604 On ch=1 n=d#6 v=0
700604 On ch=1 n=d6 v=96
700692 On ch=1 n=d6 v=0
700692 On ch=1 n=d#6 v=96
700780 On ch=1 n=d#6 v=0
700780 On ch=1 n=d6 v=96
700954 On ch=1 n=d6 v=0
700954 On ch=1 n=d#6 v=96
701356 On ch=1 n=d#6 v=0
701356 On ch=1 n=d6 v=96
701594 On ch=1 n=d6 v=0
701594 On ch=1 n=c6 v=96
701832 On ch=1 n=c6 v=0
701832 On ch=1 n=d6 v=96
702038 On ch=1 n=d6 v=0
702038 On ch=1 n=d#6 v=91
702278 On ch=1 n=d#6 v=0
702278 On ch=1 n=f6 v=91
702516 On ch=1 n=f6 v=0
702516 On ch=1 n=g6 v=91
702738 On ch=1 n=g6 v=0
702738 On ch=1 n=a6 v=88
702970 On ch=1 n=a6 v=0
702970 On ch=1 n=g6 v=88
703200 On ch=1 n=g6 v=0
703200 On ch=1 n=a6 v=88
703484 On ch=1 n=a6 v=0
703484 On ch=1 n=c7 v=77
704160 On ch=1 n=c7 v=0
704160 On ch=1 n=a#6 v=96
704694 On ch=1 n=a#6 v=0
704694 On ch=1 n=a#6 v=96
704862 On ch=1 n=a#6 v=0
704862 On ch=1 n=a6 v=90
705946 On ch=1 n=a6 v=0
705946 On ch=1 n=g6 v=96
706240 On ch=1 n=g6 v=0
706240 On ch=1 n=a6 v=83
706412 On ch=1 n=a6 v=0
706412 On ch=1 n=g6 v=83
706586 On ch=1 n=g6 v=0
706586 On ch=1 n=f6 v=83
707682 On ch=1 n=f6 v=0
708358 On ch=1 n=f6 v=90
708358 On ch=1 n=d6 v=90
709536 On ch=1 n=d6 v=0
709536 On ch=1 n=f6 v=0
709536 On ch=1 n=d#6 v=96
709536 On ch=1 n=c6 v=96
709692 On ch=1 n=c6 v=0
709692 On ch=1 n=d#6 v=0
709692 On ch=1 n=f5 v=90
710192 On ch=1 n=f5 v=0
710192 On ch=1 n=d#6 v=90
710192 On ch=1 n=c6 v=90
710336 On ch=1 n=c6 v=0
710336 On ch=1 n=d#6 v=0
710336 On ch=1 n=f6 v=88
710826 On ch=1 n=f6 v=0
710826 On ch=1 n=d#7 v=88
710826 On ch=1 n=c7 v=88
711066 On ch=1 n=c7 v=0
711066 On ch=1 n=d#7 v=0
711066 On ch=1 n=f7 v=91
711582 On ch=1 n=f7 v=0
711582 On ch=1 n=d#8 v=91
711582 On ch=1 n=c8 v=91
711792 On ch=1 n=c8 v=0
711792 On ch=1 n=d#8 v=0
711792 On ch=1 n=d8 v=88
711792 On ch=1 n=a#7 v=88
712154 On ch=1 n=a#7 v=0
712154 On ch=1 n=d8 v=0
712454 On ch=1 n=d6 v=96
712454 On ch=1 n=a#5 v=96
713694 On ch=1 n=a#5 v=0
713694 On ch=1 n=d6 v=0
713694 On ch=1 n=c6 v=88
713694 On ch=1 n=a5 v=88
713848 On ch=1 n=a5 v=0
713848 On ch=1 n=c6 v=0
713848 On ch=1 n=d5 v=91
714372 On ch=1 n=d5 v=0
714372 On ch=1 n=c6 v=91
714372 On ch=1 n=a5 v=91
714548 On ch=1 n=a5 v=0
714548 On ch=1 n=c6 v=0
714548 On ch=1 n=d6 v=88
715064 On ch=1 n=d6 v=0
715064 On ch=1 n=c7 v=88
715064 On ch=1 n=a6 v=88
715198 On ch=1 n=a6 v=0
715198 On ch=1 n=c7 v=0
715198 On ch=1 n=d7 v=91
715704 On ch=1 n=d7 v=0
715704 On ch=1 n=c8 v=91
715704 On ch=1 n=a7 v=91
715878 On ch=1 n=a7 v=0
715878 On ch=1 n=c8 v=0
715878 On ch=1 n=a#7 v=96
715878 On ch=1 n=g7 v=96
716212 On ch=1 n=g7 v=0
716212 On ch=1 n=a#7 v=0
716604 On ch=1 n=a#5 v=96
716604 On ch=1 n=g5 v=96
717352 On ch=1 n=g5 v=0
717352 On ch=1 n=a#5 v=0
717352 On ch=1 n=b5 v=91
717352 On ch=1 n=g5 v=91
717720 On ch=1 n=b5 v=0
717720 On ch=1 n=c6 v=91
718050 On ch=1 n=c6 v=0
718050 On ch=1 n=b5 v=96
718290 On ch=1 n=b5 v=0
718290 On ch=1 n=a5 v=96
718530 On ch=1 n=a5 v=0
718530 On ch=1 n=b5 v=96
718672 On ch=1 n=b5 v=0
718672 On ch=1 n=c6 v=96
718892 On ch=1 n=c6 v=0
718892 On ch=1 n=d6 v=96
719114 On ch=1 n=d6 v=0
719114 On ch=1 n=c6 v=96
719364 On ch=1 n=c6 v=0
719364 On ch=1 n=b5 v=96
719584 On ch=1 n=b5 v=0
719584 On ch=1 n=c6 v=96
719804 On ch=1 n=c6 v=0
719804 On ch=1 n=d6 v=96
720086 On ch=1 n=d6 v=0
720086 On ch=1 n=g5 v=0
720086 On ch=1 n=f6 v=86
720086 On ch=1 n=g5 v=86
720748 On ch=1 n=f6 v=0
720748 On ch=1 n=d#6 v=96
721094 On ch=1 n=g5 v=0
721094 On ch=1 n=d#5 v=96
721268 On ch=1 n=d#6 v=0
721268 On ch=1 n=c6 v=96
721414 On ch=1 n=c6 v=0
721414 On ch=1 n=d#5 v=0
721414 On ch=1 n=a#5 v=94
721414 On ch=1 n=d5 v=94
722782 On ch=1 n=d5 v=0
722782 On ch=1 n=a#5 v=0
722782 On ch=1 n=c6 v=86
722782 On ch=1 n=d5 v=86
722954 On ch=1 n=c6 v=0
722954 On ch=1 n=a#5 v=86
723124 On ch=1 n=a#5 v=0
723124 On ch=1 n=a5 v=86
723546 On ch=1 n=a5 v=0
723546 On ch=1 n=d5 v=0
724216 On ch=1 n=c#6 v=96
724216 On ch=1 n=a5 v=96
724216 On ch=1 n=f5 v=96
724216 On ch=1 n=d#5 v=96
725646 On ch=1 n=d#5 v=0
725646 On ch=1 n=f5 v=0
725646 On ch=1 n=a5 v=0
725646 On ch=1 n=c#6 v=0
725646 On ch=1 n=d6 v=91
725646 On ch=1 n=a#5 v=91
725646 On ch=1 n=f5 v=91
725646 On ch=1 n=d5 v=91
726382 On ch=1 n=f5 v=0
727716 On ch=1 n=d5 v=0
727716 On ch=1 n=a#5 v=0
727716 On ch=1 n=d6 v=0
727716 On ch=1 n=d6 v=96
728406 On ch=1 n=d6 v=0
728406 On ch=1 n=d#6 v=96
728574 On ch=1 n=d#6 v=0
728574 On ch=1 n=d6 v=96
728744 On ch=1 n=d6 v=0
728744 On ch=1 n=c6 v=96
729038 On ch=1 n=c6 v=0
729038 On ch=1 n=a5 v=96
729746 On ch=1 n=a5 v=0
729746 On ch=1 n=a#5 v=96
729970 On ch=1 n=a#5 v=0
729970 On ch=1 n=c6 v=96
730194 On ch=1 n=c6 v=0
730194 On ch=1 n=a#5 v=96
730398 On ch=1 n=a#5 v=0
730398 On ch=1 n=a5 v=93
730626 On ch=1 n=a5 v=0
730626 On ch=1 n=a#5 v=93
730852 On ch=1 n=a#5 v=0
730852 On ch=1 n=c6 v=93
731072 On ch=1 n=c6 v=0
731072 On ch=1 n=d6 v=91
731294 On ch=1 n=d6 v=0
731294 On ch=1 n=d#6 v=91
731514 On ch=1 n=d#6 v=0
731514 On ch=1 n=f6 v=91
731730 On ch=1 n=f6 v=0
731730 On ch=1 n=g6 v=88
731898 On ch=1 n=g6 v=0
731898 On ch=1 n=a6 v=88
732064 On ch=1 n=a6 v=0
732064 On ch=1 n=a#6 v=88
732230 On ch=1 n=a#6 v=0
732230 On ch=1 n=g6 v=88
732428 On ch=1 n=g6 v=0
732428 On ch=1 n=f6 v=88
733480 On ch=1 n=f6 v=0
733480 On ch=1 n=d#6 v=83
733818 On ch=1 n=d#6 v=0
733818 On ch=1 n=d6 v=82
734050 On ch=1 n=d6 v=0
734050 On ch=1 n=c#6 v=82
734282 On ch=1 n=c#6 v=0
734282 On ch=1 n=d6 v=82
734540 On ch=1 n=d6 v=0
734540 On ch=1 n=c7 v=96
734776 On ch=1 n=c7 v=0
734776 On ch=1 n=a#6 v=96
735010 On ch=1 n=a#6 v=0
735010 On ch=1 n=c8 v=96
735210 On ch=1 n=c8 v=0
735210 On ch=1 n=a#7 v=86
735558 On ch=1 n=a#7 v=0
735558 On ch=1 n=g#7 v=86
735732 On ch=1 n=g#7 v=0
735732 On ch=1 n=f7 v=86
735890 On ch=1 n=f7 v=0
735890 On ch=1 n=d7 v=91
736026 On ch=1 n=d7 v=0
736026 On ch=1 n=a#6 v=91
736160 On ch=1 n=a#6 v=0
736160 On ch=1 n=g#6 v=91
736296 On ch=1 n=g#6 v=0
736296 On ch=1 n=f6 v=91
736430 On ch=1 n=f6 v=0
736430 On ch=1 n=d6 v=91
736574 On ch=1 n=d6 v=0
736574 On ch=1 n=b5 v=85
737706 On ch=1 n=b5 v=0
737706 On ch=1 n=a#5 v=88
738034 On ch=1 n=a#5 v=0
738034 On ch=1 n=a#5 v=86
738216 On ch=1 n=a#5 v=0
738216 On ch=1 n=g#5 v=86
738398 On ch=1 n=g#5 v=0
738398 On ch=1 n=a#5 v=86
738580 On ch=1 n=a#5 v=0
738580 On ch=1 n=g#5 v=86
738764 On ch=1 n=g#5 v=0
738764 On ch=1 n=a#5 v=82
738942 On ch=1 n=a#5 v=0
738942 On ch=1 n=g#5 v=82
739120 On ch=1 n=g#5 v=0
739120 On ch=1 n=a#5 v=82
739298 On ch=1 n=a#5 v=0
739298 On ch=1 n=g#5 v=82
739400 On ch=1 n=g#5 v=0
739400 On ch=1 n=a#5 v=91
739572 On ch=1 n=a#5 v=0
739572 On ch=1 n=g#5 v=91
739742 On ch=1 n=g#5 v=0
739742 On ch=1 n=a#5 v=91
739914 On ch=1 n=a#5 v=0
739914 On ch=1 n=g#5 v=91
740110 On ch=1 n=g#5 v=0
740110 On ch=1 n=a#5 v=90
740278 On ch=1 n=a#5 v=0
740278 On ch=1 n=g#5 v=90
740448 On ch=1 n=g#5 v=0
740448 On ch=1 n=g5 v=90
740616 On ch=1 n=g5 v=0
740616 On ch=1 n=g#5 v=90
740732 On ch=1 n=g#5 v=0
740732 On ch=1 n=g5 v=94
742142 On ch=1 n=g5 v=0
742142 On ch=1 n=f5 v=96
742818 On ch=1 n=f5 v=0
742818 On ch=1 n=g6 v=96
743154 On ch=1 n=g6 v=0
743154 On ch=1 n=f6 v=96
744208 On ch=1 n=f6 v=0
744208 On ch=1 n=a7 v=91
744556 On ch=1 n=a7 v=0
744730 On ch=1 n=f7 v=91
744898 On ch=1 n=f7 v=0
744898 On ch=1 n=d#7 v=96
744986 On ch=1 n=d#7 v=0
744986 On ch=1 n=f7 v=96
745072 On ch=1 n=f7 v=0
745072 On ch=1 n=d#7 v=96
745246 On ch=1 n=d#7 v=0
745420 On ch=1 n=d7 v=96
745600 On ch=1 n=d7 v=0
745600 On ch=1 n=c7 v=96
745688 On ch=1 n=c7 v=0
745688 On ch=1 n=d7 v=96
745774 On ch=1 n=d7 v=0
745774 On ch=1 n=c7 v=96
745948 On ch=1 n=c7 v=0
746122 On ch=1 n=a#6 v=96
746288 On ch=1 n=a#6 v=0
746288 On ch=1 n=a#6 v=88
746970 On ch=1 n=a#6 v=0
746970 On ch=1 n=a6 v=91
748294 On ch=1 n=a6 v=0
748294 On ch=1 n=g#6 v=79
749668 On ch=1 n=g#6 v=0
749668 On ch=1 n=g6 v=88
750364 On ch=1 n=g6 v=0
750364 On ch=1 n=a#6 v=96
750540 On ch=1 n=a#6 v=0
750540 On ch=1 n=c7 v=96
750714 On ch=1 n=c7 v=0
750714 On ch=1 n=c#7 v=96
751036 On ch=1 n=c#7 v=0
751036 On ch=1 n=c#7 v=90
751208 On ch=1 n=c#7 v=0
751208 On ch=1 n=e7 v=90
751378 On ch=1 n=e7 v=0
751378 On ch=1 n=e8 v=90
751710 On ch=1 n=e8 v=0
751710 On ch=1 n=d7 v=80
751794 On ch=1 n=d7 v=0
751794 On ch=1 n=f7 v=80
751878 On ch=1 n=f7 v=0
751878 On ch=1 n=f8 v=80
752048 On ch=1 n=f8 v=0
752048 On ch=1 n=d8 v=80
752402 On ch=1 n=d8 v=0
752402 On ch=1 n=a#7 v=85
752744 On ch=1 n=a#7 v=0
752744 On ch=1 n=f7 v=85
753056 On ch=1 n=f7 v=0
753056 On ch=1 n=d7 v=85
753394 On ch=1 n=d7 v=0
753394 On ch=1 n=a#6 v=85
753744 On ch=1 n=a#6 v=0
753744 On ch=1 n=f6 v=88
754080 On ch=1 n=f6 v=0
754080 On ch=1 n=d6 v=88
754416 On ch=1 n=d6 v=0
754416 On ch=1 n=d#6 v=84
754502 On ch=1 n=d#6 v=0
754502 On ch=1 n=g6 v=84
754756 On ch=1 n=g6 v=0
754756 On ch=1 n=f6 v=84
755100 On ch=1 n=f6 v=0
755100 On ch=1 n=d#6 v=86
755610 On ch=1 n=d#6 v=0
755610 On ch=1 n=a5 v=86
755938 On ch=1 n=a5 v=0
755938 On ch=1 n=c6 v=96
755938 On ch=1 n=d#5 v=96
757394 On ch=1 n=d#5 v=0
757394 On ch=1 n=c6 v=0
757394 On ch=1 n=a#5 v=91
757394 On ch=1 n=d5 v=91
758092 On ch=1 n=d5 v=0
758092 On ch=1 n=a#5 v=0
758092 On ch=1 n=b5 v=0
758092 On ch=1 n=b5 v=0
758092 Meta TrkEnd
TrkEnd
MTrk
0 SeqSpec 43 00 01 00
0 Meta TrkName "Accompagnement main gauche"
0 Par ch=2 c=10 v=47
0 Par ch=2 c=91 v=32
0 Par ch=2 c=7 v=110
0 Par ch=2 c=93 v=0
6 Pb ch=2 v=12192
6 PrCh ch=2 p=1
3748 On ch=2 n=a#3 v=73
3748 On ch=2 n=a#2 v=73
5040 On ch=2 n=a#2 v=0
5040 On ch=2 n=a#3 v=0
5040 On ch=2 n=a#3 v=69
7566 On ch=2 n=a#3 v=0
7566 On ch=2 n=a#3 v=62
7566 On ch=2 n=a#2 v=62
8850 On ch=2 n=a#2 v=0
8850 On ch=2 n=a#3 v=0
8850 On ch=2 n=a#3 v=69
11328 On ch=2 n=a#3 v=0
11328 On ch=2 n=g3 v=64
11328 On ch=2 n=g2 v=64
12556 On ch=2 n=g2 v=0
12556 On ch=2 n=g3 v=0
12556 On ch=2 n=b3 v=64
15708 On ch=2 n=b3 v=0
15708 On ch=2 n=g3 v=65
16326 On ch=2 n=g3 v=0
16326 On ch=2 n=a3 v=59
16940 On ch=2 n=a3 v=0
16940 On ch=2 n=b3 v=61
17554 On ch=2 n=b3 v=0
17554 On ch=2 n=c4 v=61
18772 On ch=2 n=c4 v=0
18772 On ch=2 n=c4 v=67
18772 On ch=2 n=c3 v=67
19984 On ch=2 n=c3 v=0
19984 On ch=2 n=c4 v=0
19984 On ch=2 n=c4 v=83
22430 On ch=2 n=c4 v=0
22430 On ch=2 n=c4 v=72
22430 On ch=2 n=c3 v=72
23674 On ch=2 n=c3 v=0
23674 On ch=2 n=c4 v=0
23674 On ch=2 n=c4 v=69
26078 On ch=2 n=c4 v=0
26078 On ch=2 n=f3 v=78
28552 On ch=2 n=f3 v=0
28552 On ch=2 n=a#3 v=71
29772 On ch=2 n=a#3 v=0
29772 On ch=2 n=f4 v=69
29772 On ch=2 n=f3 v=69
31004 On ch=2 n=f3 v=0
31004 On ch=2 n=f4 v=0
33400 On ch=2 n=a#4 v=59
33400 On ch=2 n=a#3 v=59
33410 Par ch=2 c=64 v=127
33992 On ch=2 n=a#3 v=0
33992 On ch=2 n=f5 v=59
34624 On ch=2 n=f5 v=0
34624 On ch=2 n=f5 v=56
35212 On ch=2 n=f5 v=0
35212 On ch=2 n=f5 v=61
35812 Par ch=2 c=64 v=0
35824 On ch=2 n=f5 v=0
35824 On ch=2 n=a#4 v=0
35824 On ch=2 n=d#5 v=58
35824 On ch=2 n=f4 v=58
36414 On ch=2 n=f5 v=59
37036 On ch=2 n=f5 v=0
37036 On ch=2 n=f4 v=0
37036 On ch=2 n=d#5 v=0
37036 On ch=2 n=d5 v=59
37036 On ch=2 n=f4 v=59
37638 On ch=2 n=f5 v=61
38246 On ch=2 n=f5 v=0
38246 On ch=2 n=f5 v=58
38866 On ch=2 n=f5 v=0
38866 On ch=2 n=f5 v=52
39514 On ch=2 n=f5 v=0
39514 On ch=2 n=f4 v=0
39514 On ch=2 n=d5 v=0
39514 On ch=2 n=d#5 v=51
39514 On ch=2 n=a4 v=51
39514 On ch=2 n=f4 v=51
40142 On ch=2 n=f4 v=0
40142 On ch=2 n=f5 v=56
40748 On ch=2 n=f5 v=0
40748 On ch=2 n=a4 v=0
40748 On ch=2 n=d#5 v=0
40748 On ch=2 n=d5 v=54
40748 On ch=2 n=a#4 v=54
41346 On ch=2 n=d5 v=0
41346 On ch=2 n=f5 v=58
41966 On ch=2 n=f5 v=0
41966 On ch=2 n=f5 v=56
42596 On ch=2 n=f5 v=0
42596 On ch=2 n=f5 v=53
43234 On ch=2 n=f5 v=0
43234 On ch=2 n=a#4 v=0
43234 On ch=2 n=a#4 v=53
43234 On ch=2 n=d4 v=53
43244 Par ch=2 c=64 v=127
43858 On ch=2 n=f5 v=53
44470 On ch=2 n=f5 v=0
44470 On ch=2 n=d4 v=0
44470 On ch=2 n=a#4 v=0
44470 On ch=2 n=d#4 v=53
44480 Par ch=2 c=64 v=127
45106 On ch=2 n=g5 v=53
45106 On ch=2 n=a#4 v=53
45720 Par ch=2 c=64 v=0
45726 On ch=2 n=a#4 v=0
45726 On ch=2 n=g5 v=0
45726 On ch=2 n=d#4 v=0
45726 On ch=2 n=a#3 v=53
45894 Par ch=2 c=64 v=127
46030 Par ch=2 c=64 v=0
46342 On ch=2 n=a#3 v=0
46342 On ch=2 n=d5 v=53
46342 On ch=2 n=a#4 v=53
46342 On ch=2 n=f4 v=53
46950 Par ch=2 c=64 v=0
46996 On ch=2 n=f4 v=0
46996 On ch=2 n=a#4 v=0
46996 On ch=2 n=d5 v=0
46996 On ch=2 n=f5 v=53
46996 On ch=2 n=d5 v=53
46996 On ch=2 n=a#4 v=53
47654 On ch=2 n=a#4 v=0
47654 On ch=2 n=d5 v=0
47654 On ch=2 n=f5 v=0
48292 On ch=2 n=a3 v=56
48304 Par ch=2 c=64 v=127
48902 On ch=2 n=a3 v=0
48902 On ch=2 n=d#5 v=54
48902 On ch=2 n=c5 v=54
48902 On ch=2 n=f4 v=54
50186 On ch=2 n=f4 v=0
50186 On ch=2 n=c5 v=0
50186 On ch=2 n=d#5 v=0
50186 On ch=2 n=d#5 v=56
50186 On ch=2 n=c5 v=56
50186 On ch=2 n=f4 v=56
50808 Par ch=2 c=64 v=0
50814 On ch=2 n=f4 v=0
50814 On ch=2 n=c5 v=0
50814 On ch=2 n=d#5 v=0
50814 On ch=2 n=a#3 v=56
51492 On ch=2 n=a#3 v=0
51492 On ch=2 n=d5 v=53
51492 On ch=2 n=a#4 v=53
51492 On ch=2 n=f4 v=53
52146 On ch=2 n=f4 v=0
52146 On ch=2 n=a#4 v=0
52146 On ch=2 n=d5 v=0
52146 On ch=2 n=f#3 v=51
52158 Par ch=2 c=64 v=127
52770 On ch=2 n=f#3 v=0
52770 On ch=2 n=d5 v=56
52770 On ch=2 n=f#4 v=56
54006 On ch=2 n=f#4 v=0
54006 On ch=2 n=d5 v=0
54006 On ch=2 n=d5 v=56
54006 On ch=2 n=f#4 v=56
54614 Par ch=2 c=64 v=0
54626 On ch=2 n=f#4 v=0
54626 On ch=2 n=d5 v=0
54626 On ch=2 n=g3 v=58
54636 Par ch=2 c=64 v=127
55286 On ch=2 n=g3 v=0
55286 On ch=2 n=d5 v=52
55286 On ch=2 n=g4 v=52
55916 Par ch=2 c=64 v=0
55940 On ch=2 n=d#4 v=56
57208 On ch=2 n=d#4 v=0
57208 On ch=2 n=g4 v=0
57208 On ch=2 n=d5 v=0
57208 On ch=2 n=d#5 v=58
57208 On ch=2 n=g4 v=58
57208 On ch=2 n=d#4 v=58
57852 On ch=2 n=d#4 v=0
57852 On ch=2 n=g4 v=0
57852 On ch=2 n=d#5 v=0
57852 On ch=2 n=d5 v=53
57852 On ch=2 n=g4 v=53
57852 On ch=2 n=b3 v=53
58536 On ch=2 n=b3 v=0
58536 On ch=2 n=g4 v=0
58536 On ch=2 n=d5 v=0
58536 On ch=2 n=d#5 v=53
58536 On ch=2 n=g4 v=53
58536 On ch=2 n=c4 v=53
59166 On ch=2 n=c4 v=0
59166 On ch=2 n=g4 v=0
59166 On ch=2 n=d#5 v=0
59166 On ch=2 n=d#4 v=53
59792 On ch=2 n=d#4 v=0
59792 On ch=2 n=f4 v=52
60440 On ch=2 n=f4 v=0
60440 On ch=2 n=f3 v=56
61080 On ch=2 n=f3 v=0
61080 On ch=2 n=f2 v=51
61752 On ch=2 n=f2 v=0
61752 On ch=2 n=f2 v=56
62380 On ch=2 n=f2 v=0
62380 On ch=2 n=f2 v=52
63034 On ch=2 n=f2 v=0
63034 On ch=2 n=f2 v=57
63712 On ch=2 n=f2 v=0
63712 On ch=2 n=a#3 v=50
63712 On ch=2 n=c3 v=50
63724 Par ch=2 c=64 v=127
64390 On ch=2 n=c3 v=0
64390 On ch=2 n=a#3 v=0
64390 On ch=2 n=f5 v=52
65030 On ch=2 n=f5 v=0
65030 On ch=2 n=d4 v=56
65680 On ch=2 n=f5 v=53
66310 Par ch=2 c=64 v=0
66316 On ch=2 n=f5 v=0
66316 On ch=2 n=d4 v=0
66938 On ch=2 n=d#5 v=57
66938 On ch=2 n=d4 v=57
67568 On ch=2 n=d4 v=0
67568 On ch=2 n=d#5 v=0
67568 On ch=2 n=d5 v=53
67568 On ch=2 n=f4 v=53
68190 On ch=2 n=f5 v=57
68828 On ch=2 n=f5 v=0
68828 On ch=2 n=f5 v=53
69488 On ch=2 n=f5 v=0
69488 On ch=2 n=f5 v=56
70132 On ch=2 n=f5 v=0
70132 On ch=2 n=f4 v=0
70132 On ch=2 n=d5 v=0
70132 On ch=2 n=d#5 v=50
70132 On ch=2 n=a4 v=50
70132 On ch=2 n=f4 v=50
70760 On ch=2 n=f4 v=0
70760 On ch=2 n=f5 v=56
71362 On ch=2 n=f5 v=0
71362 On ch=2 n=a4 v=0
71362 On ch=2 n=d#5 v=0
71362 On ch=2 n=a#3 v=58
71372 Par ch=2 c=64 v=127
72012 On ch=2 n=a#3 v=0
72012 On ch=2 n=g#5 v=52
72626 On ch=2 n=g#5 v=0
72626 On ch=2 n=a#4 v=56
73254 On ch=2 n=g#5 v=56
73864 Par ch=2 c=64 v=0
73904 On ch=2 n=g#5 v=0
73904 On ch=2 n=a#4 v=0
74560 On ch=2 n=d5 v=50
75226 On ch=2 n=d5 v=0
75226 On ch=2 n=d#4 v=53
75830 On ch=2 n=b4 v=54
76476 On ch=2 n=b4 v=0
76476 On ch=2 n=d5 v=54
77108 On ch=2 n=d5 v=0
77108 On ch=2 n=f5 v=58
77754 On ch=2 n=f5 v=0
77754 On ch=2 n=d#4 v=0
77754 On ch=2 n=d#4 v=52
78434 On ch=2 n=d#5 v=50
79068 On ch=2 n=d#5 v=0
79068 On ch=2 n=d#4 v=0
79068 On ch=2 n=a2 v=58
79396 On ch=2 n=d#3 v=58
79722 On ch=2 n=d#3 v=0
79722 On ch=2 n=c4 v=57
80044 On ch=2 n=c4 v=0
80044 On ch=2 n=g3 v=57
80336 On ch=2 n=g3 v=0
80336 On ch=2 n=a2 v=0
80336 On ch=2 n=c3 v=59
80654 On ch=2 n=g3 v=59
80964 On ch=2 n=g3 v=0
80964 On ch=2 n=d#4 v=62
81274 On ch=2 n=d#4 v=0
81274 On ch=2 n=a3 v=62
81610 On ch=2 n=a3 v=0
81610 On ch=2 n=c3 v=0
81610 On ch=2 n=d3 v=65
81928 On ch=2 n=f3 v=65
82244 On ch=2 n=f3 v=0
82244 On ch=2 n=f4 v=65
82564 On ch=2 n=f4 v=0
82564 On ch=2 n=a3 v=65
82906 On ch=2 n=a3 v=0
82906 On ch=2 n=d3 v=0
82906 On ch=2 n=c5 v=67
83230 On ch=2 n=f#5 v=67
83576 On ch=2 n=f#5 v=0
83576 On ch=2 n=d#6 v=71
83910 On ch=2 n=d#6 v=0
83910 On ch=2 n=a5 v=71
84252 On ch=2 n=a5 v=0
84252 On ch=2 n=c5 v=0
84252 On ch=2 n=d5 v=67
84590 On ch=2 n=g#5 v=67
84872 On ch=2 n=g#5 v=0
84872 On ch=2 n=f6 v=70
85196 On ch=2 n=f6 v=0
85196 On ch=2 n=b5 v=70
85510 On ch=2 n=b5 v=0
85510 On ch=2 n=d5 v=0
85510 On ch=2 n=d#5 v=71
85824 On ch=2 n=g5 v=71
86138 On ch=2 n=g5 v=0
86138 On ch=2 n=d#6 v=81
86454 On ch=2 n=d#6 v=0
86454 On ch=2 n=c6 v=81
86750 On ch=2 n=c6 v=0
86750 On ch=2 n=d#5 v=0
86750 On ch=2 n=g6 v=73
86750 On ch=2 n=c#6 v=73
86750 On ch=2 n=a#5 v=73
86750 On ch=2 n=e5 v=73
86760 Par ch=2 c=64 v=127
88030 Par ch=2 c=64 v=0
88038 On ch=2 n=e5 v=0
88038 On ch=2 n=a#5 v=0
88038 On ch=2 n=c#6 v=0
88038 On ch=2 n=g6 v=0
88038 On ch=2 n=a#6 v=71
88038 On ch=2 n=f6 v=71
88038 On ch=2 n=d6 v=71
88038 On ch=2 n=a#5 v=71
88038 On ch=2 n=f5 v=71
88050 Par ch=2 c=64 v=127
88690 On ch=2 n=f5 v=0
88690 On ch=2 n=a#5 v=0
88690 On ch=2 n=d6 v=0
88690 On ch=2 n=f6 v=0
88690 On ch=2 n=a#6 v=0
89320 On ch=2 n=f3 v=73
90578 Par ch=2 c=64 v=0
90608 On ch=2 n=f3 v=0
90608 On ch=2 n=d#5 v=73
90608 On ch=2 n=a4 v=73
90608 On ch=2 n=f4 v=73
91854 On ch=2 n=f4 v=0
91854 On ch=2 n=a4 v=0
91854 On ch=2 n=d#5 v=0
92512 On ch=2 n=f3 v=62
93146 On ch=2 n=f3 v=0
93146 On ch=2 n=a#3 v=64
93796 On ch=2 n=a#3 v=0
94420 On ch=2 n=a#3 v=75
94420 On ch=2 n=a#2 v=75
95696 On ch=2 n=a#2 v=0
95696 On ch=2 n=a#3 v=0
95696 On ch=2 n=a#3 v=73
98252 On ch=2 n=a#3 v=0
98252 On ch=2 n=a#3 v=83
98252 On ch=2 n=a#2 v=83
99536 On ch=2 n=a#2 v=0
99536 On ch=2 n=a#3 v=0
99536 On ch=2 n=a#3 v=83
102072 On ch=2 n=a#3 v=0
102072 On ch=2 n=g3 v=83
102072 On ch=2 n=g2 v=83
103352 On ch=2 n=g2 v=0
103352 On ch=2 n=g3 v=0
103352 On ch=2 n=b3 v=83
106590 On ch=2 n=b3 v=0
106590 On ch=2 n=g3 v=83
107224 On ch=2 n=g3 v=0
107224 On ch=2 n=a3 v=83
107852 On ch=2 n=a3 v=0
107852 On ch=2 n=b3 v=83
108488 On ch=2 n=b3 v=0
108488 On ch=2 n=c4 v=83
109756 On ch=2 n=c4 v=0
109756 On ch=2 n=c4 v=83
109756 On ch=2 n=c3 v=83
111052 On ch=2 n=c3 v=0
111052 On ch=2 n=c4 v=0
111052 On ch=2 n=c4 v=83
113516 On ch=2 n=c4 v=0
113516 On ch=2 n=c4 v=83
113516 On ch=2 n=c3 v=83
114802 On ch=2 n=c3 v=0
114802 On ch=2 n=c4 v=0
114802 On ch=2 n=c4 v=78
117282 On ch=2 n=c4 v=0
117282 On ch=2 n=f3 v=83
119774 On ch=2 n=f3 v=0
119774 On ch=2 n=a#3 v=83
120996 On ch=2 n=a#3 v=0
120996 On ch=2 n=f4 v=83
120996 On ch=2 n=f3 v=83
122210 On ch=2 n=f3 v=0
122210 On ch=2 n=f4 v=0
124696 On ch=2 n=a#4 v=73
124696 On ch=2 n=a#3 v=73
125306 On ch=2 n=a#3 v=0
125306 On ch=2 n=f5 v=72
125934 On ch=2 n=f5 v=0
125934 On ch=2 n=f5 v=67
126540 On ch=2 n=f5 v=0
126540 On ch=2 n=f5 v=71
127156 On ch=2 n=f5 v=0
127156 On ch=2 n=a#4 v=0
127156 On ch=2 n=d#5 v=70
127156 On ch=2 n=f4 v=70
127754 On ch=2 n=f5 v=72
128366 On ch=2 n=f5 v=0
128366 On ch=2 n=f4 v=0
128366 On ch=2 n=d#5 v=0
128366 On ch=2 n=d5 v=69
128366 On ch=2 n=f4 v=69
128982 On ch=2 n=f5 v=71
129566 On ch=2 n=f5 v=0
129566 On ch=2 n=f5 v=66
130190 On ch=2 n=f5 v=0
130190 On ch=2 n=f5 v=66
130812 On ch=2 n=f5 v=0
130812 On ch=2 n=f4 v=0
130812 On ch=2 n=d5 v=0
130812 On ch=2 n=d#5 v=62
130812 On ch=2 n=a4 v=62
130812 On ch=2 n=f4 v=62
131442 On ch=2 n=f4 v=0
131442 On ch=2 n=f5 v=66
132054 On ch=2 n=f5 v=0
132054 On ch=2 n=a4 v=0
132054 On ch=2 n=d#5 v=0
132054 On ch=2 n=d5 v=64
132054 On ch=2 n=a#4 v=64
132704 On ch=2 n=d5 v=0
132704 On ch=2 n=f5 v=64
133326 On ch=2 n=f5 v=0
133326 On ch=2 n=f5 v=65
133958 On ch=2 n=f5 v=0
133958 On ch=2 n=f5 v=64
134580 On ch=2 n=f5 v=0
134580 On ch=2 n=a#4 v=0
134580 On ch=2 n=a#4 v=58
134580 On ch=2 n=d4 v=58
135214 On ch=2 n=f5 v=61
135834 On ch=2 n=f5 v=0
135834 On ch=2 n=d4 v=0
135834 On ch=2 n=a#4 v=0
135834 On ch=2 n=d#4 v=61
136488 On ch=2 n=g5 v=61
136488 On ch=2 n=a#4 v=61
137106 On ch=2 n=a#4 v=0
137106 On ch=2 n=g5 v=0
137106 On ch=2 n=d#4 v=0
137106 On ch=2 n=a#3 v=61
137750 On ch=2 n=a#3 v=0
137750 On ch=2 n=d5 v=56
137750 On ch=2 n=a#4 v=56
137750 On ch=2 n=f4 v=56
138396 On ch=2 n=f4 v=0
138396 On ch=2 n=a#4 v=0
138396 On ch=2 n=d5 v=0
138396 On ch=2 n=f5 v=61
138396 On ch=2 n=d5 v=61
138396 On ch=2 n=a#4 v=61
139004 On ch=2 n=a#4 v=0
139004 On ch=2 n=d5 v=0
139004 On ch=2 n=f5 v=0
139604 On ch=2 n=a3 v=65
140256 On ch=2 n=a3 v=0
140256 On ch=2 n=d#5 v=69
140256 On ch=2 n=c5 v=69
140256 On ch=2 n=f4 v=69
141518 On ch=2 n=f4 v=0
141518 On ch=2 n=c5 v=0
141518 On ch=2 n=d#5 v=0
141518 On ch=2 n=d#5 v=62
141518 On ch=2 n=c5 v=62
141518 On ch=2 n=f4 v=62
142168 On ch=2 n=f4 v=0
142168 On ch=2 n=c5 v=0
142168 On ch=2 n=d#5 v=0
142168 On ch=2 n=a#3 v=66
142832 On ch=2 n=a#3 v=0
142832 On ch=2 n=d5 v=69
142832 On ch=2 n=a#4 v=69
142832 On ch=2 n=f4 v=69
143476 On ch=2 n=f4 v=0
143476 On ch=2 n=a#4 v=0
143476 On ch=2 n=d5 v=0
143476 On ch=2 n=f#3 v=62
144112 On ch=2 n=f#3 v=0
144112 On ch=2 n=d5 v=67
144112 On ch=2 n=f#4 v=67
145358 On ch=2 n=f#4 v=0
145358 On ch=2 n=d5 v=0
145358 On ch=2 n=d5 v=62
145358 On ch=2 n=f#4 v=62
145992 On ch=2 n=f#4 v=0
145992 On ch=2 n=d5 v=0
145992 On ch=2 n=g3 v=83
146612 On ch=2 n=g3 v=0
146612 On ch=2 n=d5 v=78
146612 On ch=2 n=g4 v=78
147256 On ch=2 n=d#4 v=67
148464 On ch=2 n=d#4 v=0
148464 On ch=2 n=g4 v=0
148464 On ch=2 n=d5 v=0
148464 On ch=2 n=d#5 v=66
148464 On ch=2 n=g4 v=66
148464 On ch=2 n=d#4 v=66
149080 On ch=2 n=d#4 v=0
149080 On ch=2 n=g4 v=0
149080 On ch=2 n=d#5 v=0
149080 On ch=2 n=d5 v=62
149080 On ch=2 n=g4 v=62
149080 On ch=2 n=b3 v=62
149714 On ch=2 n=b3 v=0
149714 On ch=2 n=g4 v=0
149714 On ch=2 n=d5 v=0
149714 On ch=2 n=d#5 v=64
149714 On ch=2 n=g4 v=64
149714 On ch=2 n=c4 v=64
150326 On ch=2 n=c4 v=0
150326 On ch=2 n=g4 v=0
150326 On ch=2 n=d#5 v=0
150326 On ch=2 n=d#4 v=65
150940 On ch=2 n=d#4 v=0
150940 On ch=2 n=f4 v=59
151576 On ch=2 n=f4 v=0
151576 On ch=2 n=f3 v=61
152184 On ch=2 n=f3 v=0
152184 On ch=2 n=f2 v=61
152820 On ch=2 n=f2 v=0
152820 On ch=2 n=f2 v=61
153474 On ch=2 n=f2 v=0
153474 On ch=2 n=f2 v=64
154124 On ch=2 n=f2 v=0
154124 On ch=2 n=f2 v=61
154782 On ch=2 n=f2 v=0
154782 On ch=2 n=a#3 v=58
154782 On ch=2 n=c3 v=58
155436 On ch=2 n=c3 v=0
155436 On ch=2 n=a#3 v=0
155436 On ch=2 n=f5 v=59
156100 On ch=2 n=f5 v=0
156100 On ch=2 n=d4 v=54
156744 On ch=2 n=f5 v=59
157378 On ch=2 n=f5 v=0
157378 On ch=2 n=d4 v=0
158000 On ch=2 n=d#5 v=59
158000 On ch=2 n=d4 v=59
158660 On ch=2 n=d4 v=0
158660 On ch=2 n=d#5 v=0
158660 On ch=2 n=d5 v=57
158660 On ch=2 n=f4 v=57
159318 On ch=2 n=f5 v=56
159972 On ch=2 n=f5 v=0
159972 On ch=2 n=f5 v=58
160632 On ch=2 n=f5 v=0
160632 On ch=2 n=f5 v=57
161276 On ch=2 n=f5 v=0
161276 On ch=2 n=f4 v=0
161276 On ch=2 n=d5 v=0
161276 On ch=2 n=d#5 v=59
161276 On ch=2 n=a4 v=59
161276 On ch=2 n=f4 v=59
161910 On ch=2 n=f4 v=0
161910 On ch=2 n=f5 v=59
162536 On ch=2 n=f5 v=0
162536 On ch=2 n=a4 v=0
162536 On ch=2 n=d#5 v=0
162536 On ch=2 n=a#3 v=61
163172 On ch=2 n=a#3 v=0
163172 On ch=2 n=g#5 v=59
163816 On ch=2 n=g#5 v=0
163816 On ch=2 n=a#4 v=59
164454 On ch=2 n=g#5 v=53
165112 On ch=2 n=g#5 v=0
165112 On ch=2 n=a#4 v=0
165728 On ch=2 n=d5 v=59
166398 On ch=2 n=d5 v=0
166398 On ch=2 n=d#4 v=52
167010 On ch=2 n=b4 v=53
167610 On ch=2 n=b4 v=0
167610 On ch=2 n=d5 v=57
168304 On ch=2 n=d5 v=0
168304 On ch=2 n=f5 v=52
168940 On ch=2 n=f5 v=0
168940 On ch=2 n=d#4 v=0
168940 On ch=2 n=d#4 v=58
169620 On ch=2 n=d#5 v=56
170230 On ch=2 n=d#5 v=0
170230 On ch=2 n=d#4 v=0
170230 On ch=2 n=a2 v=66
170552 On ch=2 n=d#3 v=66
170880 On ch=2 n=d#3 v=0
170880 On ch=2 n=c4 v=62
171196 On ch=2 n=c4 v=0
171196 On ch=2 n=g3 v=62
171520 On ch=2 n=g3 v=0
171520 On ch=2 n=a2 v=0
171520 On ch=2 n=c3 v=65
171842 On ch=2 n=g3 v=65
172144 On ch=2 n=g3 v=0
172144 On ch=2 n=d#4 v=67
172460 On ch=2 n=d#4 v=0
172460 On ch=2 n=a3 v=67
172802 On ch=2 n=a3 v=0
172802 On ch=2 n=c3 v=0
172802 On ch=2 n=d3 v=67
173122 On ch=2 n=f3 v=67
173424 On ch=2 n=f3 v=0
173424 On ch=2 n=f4 v=67
173744 On ch=2 n=f4 v=0
173744 On ch=2 n=a3 v=67
174102 On ch=2 n=a3 v=0
174102 On ch=2 n=d3 v=0
174102 On ch=2 n=c5 v=65
174428 On ch=2 n=f#5 v=65
174844 On ch=2 n=f#5 v=0
174844 On ch=2 n=d#6 v=59
175200 On ch=2 n=d#6 v=0
175200 On ch=2 n=a5 v=59
175506 On ch=2 n=a5 v=0
175506 On ch=2 n=c5 v=0
175506 On ch=2 n=d5 v=57
175858 On ch=2 n=g#5 v=57
176128 On ch=2 n=g#5 v=0
176128 On ch=2 n=f6 v=61
176450 On ch=2 n=f6 v=0
176450 On ch=2 n=b5 v=61
176768 On ch=2 n=b5 v=0
176768 On ch=2 n=d5 v=0
176768 On ch=2 n=d#5 v=61
177084 On ch=2 n=g5 v=61
177434 On ch=2 n=g5 v=0
177434 On ch=2 n=d#6 v=67
177760 On ch=2 n=d#6 v=0
177760 On ch=2 n=c6 v=67
178108 On ch=2 n=c6 v=0
178108 On ch=2 n=d#5 v=0
178108 On ch=2 n=g6 v=66
178108 On ch=2 n=c#6 v=66
178108 On ch=2 n=a#5 v=66
178108 On ch=2 n=e5 v=66
179436 On ch=2 n=e5 v=0
179436 On ch=2 n=a#5 v=0
179436 On ch=2 n=c#6 v=0
179436 On ch=2 n=g6 v=0
179436 On ch=2 n=a#6 v=75
179436 On ch=2 n=f6 v=75
179436 On ch=2 n=d6 v=75
179436 On ch=2 n=a#5 v=75
179436 On ch=2 n=f5 v=75
180088 On ch=2 n=f5 v=0
180088 On ch=2 n=a#5 v=0
180088 On ch=2 n=d6 v=0
180088 On ch=2 n=f6 v=0
180088 On ch=2 n=a#6 v=0
180732 On ch=2 n=f3 v=75
182022 On ch=2 n=f3 v=0
182022 On ch=2 n=d#5 v=73
182022 On ch=2 n=a4 v=73
182022 On ch=2 n=f4 v=73
183320 On ch=2 n=f4 v=0
183320 On ch=2 n=a4 v=0
183320 On ch=2 n=d#5 v=0
183914 On ch=2 n=f3 v=76
184582 On ch=2 n=f3 v=0
184582 On ch=2 n=a#3 v=73
185224 On ch=2 n=a#3 v=0
186542 On ch=2 n=f5 v=78
187170 On ch=2 n=f5 v=0
187170 On ch=2 n=d#5 v=83
187170 On ch=2 n=c5 v=83
187170 On ch=2 n=f4 v=83
187820 On ch=2 n=c5 v=0
187820 On ch=2 n=d#5 v=0
187820 On ch=2 n=f5 v=75
188438 On ch=2 n=f5 v=0
188438 On ch=2 n=d5 v=83
188438 On ch=2 n=a#4 v=83
189094 On ch=2 n=a#4 v=0
189094 On ch=2 n=d5 v=0
189094 On ch=2 n=f5 v=83
189734 On ch=2 n=f5 v=0
189734 On ch=2 n=f4 v=0
189734 On ch=2 n=d#5 v=83
189734 On ch=2 n=a4 v=83
189734 On ch=2 n=f4 v=83
190352 On ch=2 n=f4 v=0
190352 On ch=2 n=f5 v=83
191034 On ch=2 n=f5 v=0
191034 On ch=2 n=f4 v=83
191034 On ch=2 n=f4 v=83
191666 On ch=2 n=f4 v=0
191666 On ch=2 n=f5 v=83
192312 On ch=2 n=f5 v=0
192312 On ch=2 n=f4 v=0
192312 On ch=2 n=a4 v=0
192312 On ch=2 n=d#5 v=0
192312 On ch=2 n=d5 v=83
192312 On ch=2 n=a#4 v=83
193004 On ch=2 n=a#4 v=0
193004 On ch=2 n=d5 v=0
194266 On ch=2 n=f5 v=83
194888 On ch=2 n=f5 v=0
194888 On ch=2 n=d#5 v=83
194888 On ch=2 n=c5 v=83
194888 On ch=2 n=f4 v=83
195526 On ch=2 n=c5 v=0
195526 On ch=2 n=d#5 v=0
195526 On ch=2 n=f5 v=83
196148 On ch=2 n=f5 v=0
196148 On ch=2 n=d5 v=83
196148 On ch=2 n=a#4 v=83
196782 On ch=2 n=a#4 v=0
196782 On ch=2 n=d5 v=0
196782 On ch=2 n=f5 v=83
197430 On ch=2 n=f5 v=0
197430 On ch=2 n=f4 v=0
197430 On ch=2 n=d#5 v=83
197430 On ch=2 n=a4 v=83
197430 On ch=2 n=f4 v=83
198074 On ch=2 n=f4 v=0
198074 On ch=2 n=f5 v=83
198698 On ch=2 n=f5 v=0
198698 On ch=2 n=d4 v=83
199316 On ch=2 n=f5 v=83
199958 On ch=2 n=f5 v=0
199958 On ch=2 n=d4 v=0
199958 On ch=2 n=a4 v=0
199958 On ch=2 n=d#5 v=0
199958 On ch=2 n=d5 v=83
199958 On ch=2 n=a#4 v=83
200274 On ch=2 n=a#4 v=0
200274 On ch=2 n=d5 v=0
201928 On ch=2 n=g5 v=83
202566 On ch=2 n=g5 v=0
202566 On ch=2 n=f5 v=83
202566 On ch=2 n=d5 v=83
202566 On ch=2 n=g4 v=83
203206 On ch=2 n=d5 v=0
203206 On ch=2 n=f5 v=0
203206 On ch=2 n=g5 v=83
203824 On ch=2 n=g5 v=0
203824 On ch=2 n=d#5 v=83
203824 On ch=2 n=c5 v=83
204426 On ch=2 n=c5 v=0
204426 On ch=2 n=d#5 v=0
204426 On ch=2 n=g5 v=83
205050 On ch=2 n=g5 v=0
205050 On ch=2 n=g4 v=0
205050 On ch=2 n=f5 v=83
205050 On ch=2 n=c5 v=83
205050 On ch=2 n=g4 v=83
205758 On ch=2 n=g4 v=0
205758 On ch=2 n=g5 v=83
206352 On ch=2 n=g5 v=0
206352 On ch=2 n=g4 v=83
206970 On ch=2 n=g5 v=83
207610 On ch=2 n=g5 v=0
207610 On ch=2 n=g4 v=0
207610 On ch=2 n=c5 v=0
207610 On ch=2 n=f5 v=0
207610 On ch=2 n=d#5 v=83
207610 On ch=2 n=c5 v=83
209556 On ch=2 n=g5 v=83
210168 On ch=2 n=g5 v=0
210168 On ch=2 n=f5 v=80
210168 On ch=2 n=d5 v=80
210168 On ch=2 n=g4 v=80
210792 On ch=2 n=g4 v=0
210792 On ch=2 n=d5 v=0
210792 On ch=2 n=f5 v=0
210792 On ch=2 n=g5 v=75
211392 On ch=2 n=g5 v=0
211392 On ch=2 n=d#5 v=81
211392 On ch=2 n=c5 v=81
212038 On ch=2 n=c5 v=0
212038 On ch=2 n=d#5 v=0
212038 On ch=2 n=g5 v=78
212038 On ch=2 n=f#4 v=78
212716 On ch=2 n=f#4 v=0
212716 On ch=2 n=g5 v=0
212716 On ch=2 n=f5 v=83
212716 On ch=2 n=f4 v=83
213360 On ch=2 n=f4 v=0
213360 On ch=2 n=f5 v=0
228746 On ch=2 n=f5 v=83
229398 On ch=2 n=f5 v=0
229398 On ch=2 n=f5 v=76
230016 On ch=2 n=f5 v=0
230016 On ch=2 n=f5 v=71
230636 On ch=2 n=f5 v=0
230636 On ch=2 n=d#5 v=78
230636 On ch=2 n=d4 v=78
231242 On ch=2 n=f5 v=65
231876 On ch=2 n=f5 v=0
231876 On ch=2 n=d4 v=0
231876 On ch=2 n=d#5 v=0
231876 On ch=2 n=d5 v=66
231876 On ch=2 n=f4 v=66
232498 On ch=2 n=f5 v=71
233118 On ch=2 n=f5 v=0
233118 On ch=2 n=f5 v=76
233726 On ch=2 n=f5 v=0
233726 On ch=2 n=f5 v=73
234372 On ch=2 n=f5 v=0
234372 On ch=2 n=f4 v=0
234372 On ch=2 n=d5 v=0
234372 On ch=2 n=d#5 v=65
234372 On ch=2 n=a4 v=65
234372 On ch=2 n=f4 v=65
235034 On ch=2 n=f4 v=0
235034 On ch=2 n=f5 v=69
235674 On ch=2 n=f5 v=0
235674 On ch=2 n=a4 v=0
235674 On ch=2 n=d#5 v=0
235674 On ch=2 n=d5 v=73
235674 On ch=2 n=a#4 v=73
236332 On ch=2 n=d5 v=0
236332 On ch=2 n=f5 v=83
236962 On ch=2 n=f5 v=0
236962 On ch=2 n=f5 v=73
237600 On ch=2 n=f5 v=0
237600 On ch=2 n=f5 v=69
238242 On ch=2 n=f5 v=0
238242 On ch=2 n=d4 v=70
238910 On ch=2 n=f5 v=75
239616 On ch=2 n=f5 v=0
239616 On ch=2 n=d4 v=0
239616 On ch=2 n=a#4 v=0
239616 On ch=2 n=d#4 v=62
240288 On ch=2 n=g5 v=69
240288 On ch=2 n=a#4 v=69
240864 On ch=2 n=a#4 v=0
240864 On ch=2 n=g5 v=0
240864 On ch=2 n=d#4 v=0
240864 On ch=2 n=a#3 v=71
241578 On ch=2 n=a#3 v=0
241578 On ch=2 n=d5 v=64
241578 On ch=2 n=a#4 v=64
241578 On ch=2 n=f4 v=64
242232 On ch=2 n=f4 v=0
242232 On ch=2 n=a#4 v=0
242232 On ch=2 n=d5 v=0
242232 On ch=2 n=f5 v=71
242232 On ch=2 n=d5 v=71
242232 On ch=2 n=a#4 v=71
242868 On ch=2 n=a#4 v=0
242868 On ch=2 n=d5 v=0
242868 On ch=2 n=f5 v=0
243508 On ch=2 n=a3 v=71
244162 On ch=2 n=a3 v=0
244162 On ch=2 n=d#5 v=59
244162 On ch=2 n=c5 v=59
244162 On ch=2 n=f4 v=59
245442 On ch=2 n=f4 v=0
245442 On ch=2 n=d#5 v=0
245442 On ch=2 n=c5 v=0
245442 On ch=2 n=d#5 v=67
245442 On ch=2 n=c5 v=67
245442 On ch=2 n=f4 v=67
246108 On ch=2 n=f4 v=0
246108 On ch=2 n=c5 v=0
246108 On ch=2 n=d#5 v=0
246108 On ch=2 n=a#3 v=59
246742 On ch=2 n=a#3 v=0
246742 On ch=2 n=d5 v=67
246742 On ch=2 n=a#4 v=67
246742 On ch=2 n=f4 v=67
247424 On ch=2 n=f4 v=0
247424 On ch=2 n=a#4 v=0
247424 On ch=2 n=d5 v=0
247424 On ch=2 n=f#3 v=65
248080 On ch=2 n=f#3 v=0
248080 On ch=2 n=d5 v=67
248080 On ch=2 n=f#4 v=67
249382 On ch=2 n=f#4 v=0
249382 On ch=2 n=d5 v=0
249382 On ch=2 n=d5 v=66
249382 On ch=2 n=f#4 v=66
250056 On ch=2 n=f#4 v=0
250056 On ch=2 n=d5 v=0
250056 On ch=2 n=g3 v=53
250702 On ch=2 n=g3 v=0
250702 On ch=2 n=d5 v=64
250702 On ch=2 n=g4 v=64
251356 On ch=2 n=g4 v=0
251356 On ch=2 n=d5 v=0
251356 On ch=2 n=d5 v=69
251356 On ch=2 n=g4 v=69
251356 On ch=2 n=d#4 v=69
252664 On ch=2 n=g4 v=0
252664 On ch=2 n=d5 v=0
252664 On ch=2 n=d#5 v=56
252664 On ch=2 n=g4 v=56
253320 On ch=2 n=g4 v=0
253320 On ch=2 n=d#4 v=0
253320 On ch=2 n=d#5 v=0
253320 On ch=2 n=d5 v=66
253320 On ch=2 n=g4 v=66
253320 On ch=2 n=b3 v=66
253990 On ch=2 n=b3 v=0
253990 On ch=2 n=g4 v=0
253990 On ch=2 n=d5 v=0
253990 On ch=2 n=d#5 v=66
253990 On ch=2 n=g4 v=66
253990 On ch=2 n=c4 v=66
254678 On ch=2 n=c4 v=0
254678 On ch=2 n=g4 v=0
254678 On ch=2 n=d#5 v=0
254678 On ch=2 n=d#4 v=71
255316 On ch=2 n=d#4 v=0
255316 On ch=2 n=f4 v=62
255982 On ch=2 n=f4 v=0
255982 On ch=2 n=f3 v=73
256608 On ch=2 n=f3 v=0
256608 On ch=2 n=f2 v=69
257250 On ch=2 n=f2 v=0
257250 On ch=2 n=f2 v=72
257884 On ch=2 n=f2 v=0
257884 On ch=2 n=f2 v=83
258666 On ch=2 n=f2 v=0
258666 On ch=2 n=f2 v=50
259310 On ch=2 n=f2 v=0
259310 On ch=2 n=a#3 v=78
259310 On ch=2 n=a#2 v=78
259978 On ch=2 n=a#2 v=0
259978 On ch=2 n=a#3 v=0
259978 On ch=2 n=f5 v=71
260642 On ch=2 n=f5 v=0
260642 On ch=2 n=f4 v=75
261286 On ch=2 n=f5 v=67
261952 On ch=2 n=f5 v=0
261952 On ch=2 n=f4 v=0
261952 On ch=2 n=d#5 v=72
261952 On ch=2 n=f4 v=72
262576 On ch=2 n=f5 v=64
263210 On ch=2 n=f5 v=0
263210 On ch=2 n=f4 v=0
263210 On ch=2 n=d#5 v=0
263210 On ch=2 n=d5 v=64
263210 On ch=2 n=f4 v=64
263890 On ch=2 n=f5 v=57
264524 On ch=2 n=f5 v=0
264524 On ch=2 n=f5 v=64
265152 On ch=2 n=f5 v=0
265152 On ch=2 n=f5 v=64
265856 On ch=2 n=f5 v=0
265856 On ch=2 n=f4 v=0
265856 On ch=2 n=d5 v=0
265856 On ch=2 n=d#5 v=66
265856 On ch=2 n=a4 v=66
265856 On ch=2 n=f4 v=66
266526 On ch=2 n=f4 v=0
266526 On ch=2 n=f5 v=61
267150 On ch=2 n=f5 v=0
267150 On ch=2 n=a4 v=0
267150 On ch=2 n=d#5 v=0
267150 On ch=2 n=a#3 v=70
267808 On ch=2 n=a#3 v=0
267808 On ch=2 n=g#5 v=72
268444 On ch=2 n=g#5 v=0
268444 On ch=2 n=a#4 v=66
269090 On ch=2 n=g#5 v=67
269758 On ch=2 n=g#5 v=0
269758 On ch=2 n=a#4 v=0
270418 On ch=2 n=d5 v=67
271056 On ch=2 n=d5 v=0
271056 On ch=2 n=d#4 v=62
271726 On ch=2 n=c5 v=69
272384 On ch=2 n=c5 v=0
272384 On ch=2 n=d5 v=65
273038 On ch=2 n=d5 v=0
273038 On ch=2 n=f5 v=59
273680 On ch=2 n=f5 v=0
273680 On ch=2 n=d#4 v=0
273680 On ch=2 n=d#4 v=67
274390 On ch=2 n=d#5 v=64
275034 On ch=2 n=d#4 v=0
275034 On ch=2 n=d#5 v=0
275034 On ch=2 n=f4 v=70
275374 On ch=2 n=c5 v=70
275660 On ch=2 n=c5 v=0
275660 On ch=2 n=a5 v=80
275978 On ch=2 n=a5 v=0
275978 On ch=2 n=d#5 v=80
276298 On ch=2 n=f4 v=0
276298 On ch=2 n=d#5 v=0
276298 On ch=2 n=a4 v=83
276614 On ch=2 n=d#5 v=83
276970 On ch=2 n=d#5 v=0
276970 On ch=2 n=c6 v=83
277298 On ch=2 n=c6 v=0
277298 On ch=2 n=f5 v=83
277584 On ch=2 n=f5 v=0
277584 On ch=2 n=a4 v=0
277584 On ch=2 n=a#4 v=83
277906 On ch=2 n=d5 v=83
278244 On ch=2 n=d5 v=0
278244 On ch=2 n=d6 v=83
278562 On ch=2 n=d6 v=0
278562 On ch=2 n=f5 v=83
278866 On ch=2 n=f5 v=0
278866 On ch=2 n=a#4 v=0
278866 On ch=2 n=c5 v=83
279186 On ch=2 n=f#5 v=83
279534 On ch=2 n=f#5 v=0
279534 On ch=2 n=d#6 v=83
279856 On ch=2 n=d#6 v=0
279856 On ch=2 n=a5 v=83
280200 On ch=2 n=a5 v=0
280200 On ch=2 n=c5 v=0
280200 On ch=2 n=d5 v=70
280534 On ch=2 n=g#5 v=70
280840 On ch=2 n=g#5 v=0
280840 On ch=2 n=f6 v=80
281166 On ch=2 n=f6 v=0
281166 On ch=2 n=b5 v=80
281488 On ch=2 n=b5 v=0
281488 On ch=2 n=d5 v=0
281488 On ch=2 n=d#5 v=78
281810 On ch=2 n=g5 v=78
282120 On ch=2 n=g5 v=0
282120 On ch=2 n=d#6 v=81
282440 On ch=2 n=d#6 v=0
282440 On ch=2 n=c6 v=81
282762 On ch=2 n=c6 v=0
282762 On ch=2 n=d#5 v=0
282762 On ch=2 n=g6 v=80
282762 On ch=2 n=c#6 v=80
282762 On ch=2 n=a#5 v=80
282762 On ch=2 n=e5 v=80
284090 On ch=2 n=e5 v=0
284090 On ch=2 n=a#5 v=0
284090 On ch=2 n=c#6 v=0
284090 On ch=2 n=g6 v=0
284090 On ch=2 n=a#6 v=73
284090 On ch=2 n=f6 v=73
284090 On ch=2 n=d6 v=73
284090 On ch=2 n=a#5 v=73
284090 On ch=2 n=f5 v=73
284736 On ch=2 n=f5 v=0
284736 On ch=2 n=a#5 v=0
284736 On ch=2 n=d6 v=0
284736 On ch=2 n=f6 v=0
284736 On ch=2 n=a#6 v=0
285376 On ch=2 n=f3 v=71
286692 On ch=2 n=f3 v=0
286692 On ch=2 n=d#5 v=67
286692 On ch=2 n=a4 v=67
286692 On ch=2 n=f4 v=67
288056 On ch=2 n=f4 v=0
288056 On ch=2 n=a4 v=0
288056 On ch=2 n=d#5 v=0
288746 On ch=2 n=f3 v=72
289498 On ch=2 n=f3 v=0
289498 On ch=2 n=a#3 v=73
290134 On ch=2 n=a#3 v=0
290874 On ch=2 n=g3 v=83
291392 On ch=2 n=g3 v=0
291392 On ch=2 n=a#3 v=83
291522 On ch=2 n=a#3 v=0
291522 On ch=2 n=d#4 v=83
292044 On ch=2 n=d#4 v=0
292044 On ch=2 n=c#4 v=83
292188 On ch=2 n=c#4 v=0
292188 On ch=2 n=d4 v=83
292864 On ch=2 n=g3 v=83
293542 On ch=2 n=g3 v=0
293542 On ch=2 n=d4 v=0
293542 On ch=2 n=d4 v=102
293542 On ch=2 n=g4 v=102
293542 On ch=2 n=g3 v=102
294210 On ch=2 n=g3 v=0
294210 On ch=2 n=g3 v=83
294956 On ch=2 n=g3 v=0
294956 On ch=2 n=g4 v=0
294956 On ch=2 n=d4 v=0
294956 On ch=2 n=g3 v=84
295488 On ch=2 n=g3 v=0
295488 On ch=2 n=a#3 v=84
295598 On ch=2 n=a#3 v=0
295598 On ch=2 n=d#4 v=83
296120 On ch=2 n=d#4 v=0
296120 On ch=2 n=c#4 v=83
296244 On ch=2 n=c#4 v=0
296244 On ch=2 n=d4 v=83
296920 On ch=2 n=g3 v=83
297612 On ch=2 n=g3 v=0
297612 On ch=2 n=d4 v=0
297612 On ch=2 n=d4 v=111
297612 On ch=2 n=g4 v=111
297612 On ch=2 n=g3 v=111
298286 On ch=2 n=g3 v=0
298286 On ch=2 n=g3 v=83
298978 On ch=2 n=g3 v=0
298978 On ch=2 n=g4 v=0
298978 On ch=2 n=d4 v=0
298978 On ch=2 n=g3 v=83
299606 On ch=2 n=g3 v=0
299606 On ch=2 n=a#4 v=83
299606 On ch=2 n=g4 v=83
300284 On ch=2 n=g4 v=0
300284 On ch=2 n=a#4 v=0
300284 On ch=2 n=a#4 v=88
300284 On ch=2 n=g4 v=88
300946 On ch=2 n=g4 v=0
300946 On ch=2 n=a#4 v=0
300946 On ch=2 n=d5 v=83
300946 On ch=2 n=a#4 v=83
300946 On ch=2 n=g4 v=83
301576 On ch=2 n=g4 v=0
301576 On ch=2 n=a#4 v=0
301576 On ch=2 n=d5 v=0
301576 On ch=2 n=d5 v=83
301576 On ch=2 n=a#4 v=83
301576 On ch=2 n=g4 v=83
302236 On ch=2 n=g4 v=0
302236 On ch=2 n=a#4 v=0
302236 On ch=2 n=d5 v=0
302236 On ch=2 n=d5 v=83
302236 On ch=2 n=a#4 v=83
302236 On ch=2 n=g4 v=83
302890 On ch=2 n=g4 v=0
302890 On ch=2 n=a#4 v=0
302890 On ch=2 n=d5 v=0
302890 On ch=2 n=f#4 v=83
303546 On ch=2 n=f#4 v=0
303546 On ch=2 n=a5 v=83
303546 On ch=2 n=d5 v=83
303546 On ch=2 n=c5 v=83
304210 On ch=2 n=d5 v=0
304210 On ch=2 n=a5 v=0
304210 On ch=2 n=c5 v=0
304210 On ch=2 n=a5 v=83
304210 On ch=2 n=d5 v=83
304210 On ch=2 n=c5 v=83
304896 On ch=2 n=d5 v=0
304896 On ch=2 n=a5 v=0
304896 On ch=2 n=c5 v=0
304896 On ch=2 n=a5 v=69
304896 On ch=2 n=d5 v=69
304896 On ch=2 n=c5 v=69
305522 On ch=2 n=d5 v=0
305522 On ch=2 n=a5 v=0
305522 On ch=2 n=c5 v=0
305522 On ch=2 n=a5 v=78
305522 On ch=2 n=d5 v=78
305522 On ch=2 n=c5 v=78
306186 On ch=2 n=d5 v=0
306186 On ch=2 n=a5 v=0
306186 On ch=2 n=c5 v=0
306186 On ch=2 n=a5 v=73
306186 On ch=2 n=d5 v=73
306186 On ch=2 n=c5 v=73
306846 On ch=2 n=d5 v=0
306846 On ch=2 n=a5 v=0
306846 On ch=2 n=c5 v=0
306846 On ch=2 n=g4 v=69
307500 On ch=2 n=a#5 v=67
307500 On ch=2 n=d5 v=67
307500 On ch=2 n=a#4 v=67
308140 On ch=2 n=a#4 v=0
308140 On ch=2 n=d5 v=0
308140 On ch=2 n=a#5 v=0
308140 On ch=2 n=g4 v=0
308140 On ch=2 n=a4 v=69
308822 On ch=2 n=f#5 v=76
308822 On ch=2 n=d5 v=76
308822 On ch=2 n=c5 v=76
309500 On ch=2 n=d5 v=0
309500 On ch=2 n=f#5 v=0
309500 On ch=2 n=a4 v=0
309500 On ch=2 n=c5 v=0
309500 On ch=2 n=a#4 v=76
310164 On ch=2 n=g5 v=71
310164 On ch=2 n=d5 v=71
310810 On ch=2 n=d5 v=0
310810 On ch=2 n=g5 v=0
310810 On ch=2 n=a#4 v=0
310810 On ch=2 n=a#4 v=70
311414 On ch=2 n=g5 v=75
311414 On ch=2 n=d#5 v=75
312090 On ch=2 n=g5 v=0
312090 On ch=2 n=a#4 v=0
312090 On ch=2 n=d#5 v=0
312090 On ch=2 n=a#4 v=73
312732 On ch=2 n=a5 v=73
312732 On ch=2 n=d5 v=73
313398 On ch=2 n=d5 v=0
313398 On ch=2 n=a5 v=0
313398 On ch=2 n=a#4 v=0
313398 On ch=2 n=d#4 v=73
314068 On ch=2 n=d#4 v=0
314068 On ch=2 n=g5 v=70
314068 On ch=2 n=c5 v=70
314682 On ch=2 n=g5 v=0
314682 On ch=2 n=c5 v=0
314682 On ch=2 n=c5 v=78
314682 On ch=2 n=d4 v=78
315328 On ch=2 n=c5 v=0
315328 On ch=2 n=d#5 v=75
316004 On ch=2 n=d#5 v=0
316004 On ch=2 n=d5 v=69
316656 On ch=2 n=d5 v=0
316656 On ch=2 n=d#5 v=67
317350 On ch=2 n=d#5 v=0
317350 On ch=2 n=d5 v=64
317350 On ch=2 n=a#4 v=64
318002 On ch=2 n=a#4 v=0
318002 On ch=2 n=d5 v=0
318002 On ch=2 n=d4 v=0
318002 On ch=2 n=a#4 v=67
318002 On ch=2 n=d4 v=67
318692 On ch=2 n=d4 v=0
318692 On ch=2 n=a#4 v=0
318692 On ch=2 n=a4 v=72
318692 On ch=2 n=d4 v=72
320684 On ch=2 n=a4 v=0
321312 On ch=2 n=d4 v=0
321312 On ch=2 n=d4 v=70
321632 On ch=2 n=d4 v=0
321632 On ch=2 n=d#4 v=70
321972 On ch=2 n=d#4 v=0
321972 On ch=2 n=d4 v=77
322294 On ch=2 n=d4 v=0
322294 On ch=2 n=d3 v=77
322622 On ch=2 n=d3 v=0
322622 On ch=2 n=g3 v=77
323114 On ch=2 n=g3 v=0
323114 On ch=2 n=a#3 v=77
323264 On ch=2 n=a#3 v=0
323264 On ch=2 n=d#4 v=85
323748 On ch=2 n=d#4 v=0
323748 On ch=2 n=c#4 v=85
323882 On ch=2 n=c#4 v=0
323882 On ch=2 n=d4 v=88
324538 On ch=2 n=g3 v=86
325226 On ch=2 n=g3 v=0
325226 On ch=2 n=d4 v=0
325226 On ch=2 n=d4 v=111
325226 On ch=2 n=g4 v=111
325226 On ch=2 n=g3 v=111
325894 On ch=2 n=g3 v=0
325894 On ch=2 n=g3 v=83
326576 On ch=2 n=g3 v=0
326576 On ch=2 n=g4 v=0
326576 On ch=2 n=d4 v=0
326576 On ch=2 n=g3 v=83
327082 On ch=2 n=g3 v=0
327082 On ch=2 n=a#3 v=83
327224 On ch=2 n=a#3 v=0
327224 On ch=2 n=d#4 v=83
327724 On ch=2 n=d#4 v=0
327724 On ch=2 n=c#4 v=83
327886 On ch=2 n=c#4 v=0
327886 On ch=2 n=d4 v=83
328544 On ch=2 n=g3 v=83
329186 On ch=2 n=g3 v=0
329186 On ch=2 n=d4 v=0
329186 On ch=2 n=d4 v=109
329186 On ch=2 n=g4 v=109
329186 On ch=2 n=g3 v=109
329902 On ch=2 n=g3 v=0
329902 On ch=2 n=g3 v=83
330544 On ch=2 n=g3 v=0
330544 On ch=2 n=g4 v=0
330544 On ch=2 n=d4 v=0
330544 On ch=2 n=f4 v=83
330544 On ch=2 n=f3 v=83
331178 On ch=2 n=f3 v=0
331178 On ch=2 n=f4 v=0
331178 On ch=2 n=b5 v=83
331178 On ch=2 n=f5 v=83
331178 On ch=2 n=d5 v=83
331178 On ch=2 n=g#4 v=83
331832 On ch=2 n=g#4 v=0
331832 On ch=2 n=d5 v=0
331832 On ch=2 n=f5 v=0
331832 On ch=2 n=b5 v=0
331832 On ch=2 n=b5 v=77
331832 On ch=2 n=f5 v=77
331832 On ch=2 n=d5 v=77
331832 On ch=2 n=g#4 v=77
332450 On ch=2 n=g#4 v=0
332450 On ch=2 n=d5 v=0
332450 On ch=2 n=f5 v=0
332450 On ch=2 n=b5 v=0
332450 On ch=2 n=b5 v=73
332450 On ch=2 n=f5 v=73
332450 On ch=2 n=d5 v=73
332450 On ch=2 n=g#4 v=73
333050 On ch=2 n=g#4 v=0
333050 On ch=2 n=d5 v=0
333050 On ch=2 n=f5 v=0
333050 On ch=2 n=b5 v=0
333050 On ch=2 n=b5 v=77
333050 On ch=2 n=f5 v=77
333050 On ch=2 n=d5 v=77
333050 On ch=2 n=g#4 v=77
333678 On ch=2 n=g#4 v=0
333678 On ch=2 n=d5 v=0
333678 On ch=2 n=f5 v=0
333678 On ch=2 n=b5 v=0
333678 On ch=2 n=b5 v=69
333678 On ch=2 n=f5 v=69
333678 On ch=2 n=d5 v=69
333678 On ch=2 n=g#4 v=69
334296 On ch=2 n=g#4 v=0
334296 On ch=2 n=d5 v=0
334296 On ch=2 n=f5 v=0
334296 On ch=2 n=b5 v=0
334296 On ch=2 n=g3 v=65
334916 On ch=2 n=g3 v=0
334916 On ch=2 n=f5 v=65
334916 On ch=2 n=d5 v=65
334916 On ch=2 n=g4 v=65
335552 On ch=2 n=g4 v=0
335552 On ch=2 n=d5 v=0
335552 On ch=2 n=f5 v=0
335552 On ch=2 n=f5 v=62
335552 On ch=2 n=d5 v=62
335552 On ch=2 n=g4 v=62
336190 On ch=2 n=g4 v=0
336190 On ch=2 n=d5 v=0
336190 On ch=2 n=f5 v=0
336190 On ch=2 n=d5 v=64
336190 On ch=2 n=g4 v=64
336830 On ch=2 n=g4 v=0
336830 On ch=2 n=d5 v=0
336830 On ch=2 n=c4 v=76
337486 On ch=2 n=c4 v=0
337486 On ch=2 n=c5 v=73
337486 On ch=2 n=g4 v=73
338178 On ch=2 n=g4 v=0
338178 On ch=2 n=c5 v=0
338178 On ch=2 n=d4 v=66
338814 On ch=2 n=d4 v=0
338814 On ch=2 n=c5 v=69
338814 On ch=2 n=a4 v=69
340064 On ch=2 n=a4 v=0
340064 On ch=2 n=c5 v=0
340064 On ch=2 n=f#5 v=69
340064 On ch=2 n=a4 v=69
340696 On ch=2 n=a4 v=0
340696 On ch=2 n=f#5 v=0
340696 On ch=2 n=g4 v=67
341362 On ch=2 n=g4 v=0
341362 On ch=2 n=g5 v=67
341362 On ch=2 n=d5 v=67
341362 On ch=2 n=a#4 v=67
341976 On ch=2 n=a#4 v=0
341976 On ch=2 n=d5 v=0
341976 On ch=2 n=g5 v=0
341976 On ch=2 n=a4 v=62
342628 On ch=2 n=a4 v=0
342628 On ch=2 n=c6 v=69
342628 On ch=2 n=f#5 v=69
342628 On ch=2 n=d5 v=69
343922 On ch=2 n=d5 v=0
343922 On ch=2 n=f#5 v=0
343922 On ch=2 n=c6 v=0
343922 On ch=2 n=c6 v=69
343922 On ch=2 n=f#5 v=69
343922 On ch=2 n=d5 v=69
344536 On ch=2 n=d5 v=0
344536 On ch=2 n=f#5 v=0
344536 On ch=2 n=c6 v=0
344536 On ch=2 n=a#4 v=70
345170 On ch=2 n=a#4 v=0
345170 On ch=2 n=d6 v=69
345170 On ch=2 n=g5 v=69
345170 On ch=2 n=d5 v=69
345810 On ch=2 n=d5 v=0
345810 On ch=2 n=g5 v=0
345810 On ch=2 n=d6 v=0
345810 On ch=2 n=c5 v=69
346442 On ch=2 n=c5 v=0
346442 On ch=2 n=d#6 v=69
346442 On ch=2 n=g#5 v=69
346442 On ch=2 n=d#5 v=69
347080 On ch=2 n=g#5 v=0
347080 On ch=2 n=d#6 v=0
347080 On ch=2 n=d#5 v=0
348402 On ch=2 n=c3 v=52
349692 On ch=2 n=c3 v=0
349692 On ch=2 n=d3 v=57
351576 On ch=2 n=d3 v=0
351576 On ch=2 n=d3 v=59
352270 On ch=2 n=d3 v=0
352270 On ch=2 n=g2 v=73
352914 On ch=2 n=g2 v=0
353648 On ch=2 n=g3 v=88
354166 On ch=2 n=g3 v=0
354166 On ch=2 n=a#3 v=88
354294 On ch=2 n=a#3 v=0
354294 On ch=2 n=d#4 v=85
354812 On ch=2 n=d#4 v=0
354812 On ch=2 n=c#4 v=85
354978 On ch=2 n=c#4 v=0
354978 On ch=2 n=d4 v=88
355658 On ch=2 n=g3 v=89
356340 On ch=2 n=g3 v=0
356340 On ch=2 n=d4 v=0
356340 On ch=2 n=d4 v=114
356340 On ch=2 n=g4 v=114
356340 On ch=2 n=g3 v=114
357020 On ch=2 n=g3 v=0
357020 On ch=2 n=g3 v=83
357760 On ch=2 n=g3 v=0
357760 On ch=2 n=g4 v=0
357760 On ch=2 n=d4 v=0
357760 On ch=2 n=g3 v=83
358294 On ch=2 n=g3 v=0
358294 On ch=2 n=a#3 v=83
358414 On ch=2 n=a#3 v=0
358414 On ch=2 n=d#4 v=83
358938 On ch=2 n=d#4 v=0
358938 On ch=2 n=c#4 v=83
359088 On ch=2 n=c#4 v=0
359088 On ch=2 n=d4 v=83
359772 On ch=2 n=g3 v=83
360432 On ch=2 n=g3 v=0
360432 On ch=2 n=d4 v=0
360432 On ch=2 n=d4 v=109
360432 On ch=2 n=g4 v=109
360432 On ch=2 n=g3 v=109
361134 On ch=2 n=g3 v=0
361134 On ch=2 n=g3 v=84
361816 On ch=2 n=g3 v=0
361816 On ch=2 n=g4 v=0
361816 On ch=2 n=d4 v=0
361816 On ch=2 n=g3 v=86
362468 On ch=2 n=g3 v=0
362468 On ch=2 n=a#4 v=85
362468 On ch=2 n=g4 v=85
363080 On ch=2 n=g4 v=0
363080 On ch=2 n=a#4 v=0
363080 On ch=2 n=a#4 v=85
363080 On ch=2 n=g4 v=85
363710 On ch=2 n=g4 v=0
363710 On ch=2 n=a#4 v=0
363710 On ch=2 n=d5 v=91
363710 On ch=2 n=a#4 v=91
363710 On ch=2 n=g4 v=91
364364 On ch=2 n=g4 v=0
364364 On ch=2 n=a#4 v=0
364364 On ch=2 n=d5 v=0
364364 On ch=2 n=d5 v=86
364364 On ch=2 n=a#4 v=86
364364 On ch=2 n=g4 v=86
365014 On ch=2 n=g4 v=0
365014 On ch=2 n=a#4 v=0
365014 On ch=2 n=d5 v=0
365014 On ch=2 n=d5 v=88
365014 On ch=2 n=a#4 v=88
365014 On ch=2 n=g4 v=88
365678 On ch=2 n=g4 v=0
365678 On ch=2 n=a#4 v=0
365678 On ch=2 n=d5 v=0
365678 On ch=2 n=f#4 v=84
366298 On ch=2 n=f#4 v=0
366298 On ch=2 n=a5 v=83
366298 On ch=2 n=d5 v=83
366298 On ch=2 n=c5 v=83
366942 On ch=2 n=d5 v=0
366942 On ch=2 n=a5 v=0
366942 On ch=2 n=c5 v=0
366942 On ch=2 n=a5 v=83
366942 On ch=2 n=d5 v=83
366942 On ch=2 n=c5 v=83
367636 On ch=2 n=d5 v=0
367636 On ch=2 n=a5 v=0
367636 On ch=2 n=c5 v=0
367636 On ch=2 n=a5 v=78
367636 On ch=2 n=d5 v=78
367636 On ch=2 n=c5 v=78
368364 On ch=2 n=d5 v=0
368364 On ch=2 n=a5 v=0
368364 On ch=2 n=c5 v=0
368364 On ch=2 n=a5 v=76
368364 On ch=2 n=d5 v=76
368364 On ch=2 n=c5 v=76
369008 On ch=2 n=d5 v=0
369008 On ch=2 n=a5 v=0
369008 On ch=2 n=c5 v=0
369008 On ch=2 n=a5 v=83
369008 On ch=2 n=d5 v=83
369008 On ch=2 n=c5 v=83
369660 On ch=2 n=d5 v=0
369660 On ch=2 n=a5 v=0
369660 On ch=2 n=c5 v=0
369660 On ch=2 n=g4 v=83
370246 On ch=2 n=a#5 v=83
370246 On ch=2 n=d5 v=83
370246 On ch=2 n=a#4 v=83
370938 On ch=2 n=a#4 v=0
370938 On ch=2 n=d5 v=0
370938 On ch=2 n=a#5 v=0
370938 On ch=2 n=g4 v=0
370938 On ch=2 n=a4 v=83
371588 On ch=2 n=f#5 v=83
371588 On ch=2 n=d5 v=83
371588 On ch=2 n=c5 v=83
372264 On ch=2 n=d5 v=0
372264 On ch=2 n=f#5 v=0
372264 On ch=2 n=a4 v=0
372264 On ch=2 n=c5 v=0
372264 On ch=2 n=a#4 v=83
372906 On ch=2 n=g5 v=69
372906 On ch=2 n=d5 v=69
373560 On ch=2 n=d5 v=0
373560 On ch=2 n=g5 v=0
373560 On ch=2 n=a#4 v=0
373560 On ch=2 n=a#4 v=77
374196 On ch=2 n=g5 v=83
374196 On ch=2 n=d#5 v=83
374890 On ch=2 n=g5 v=0
374890 On ch=2 n=a#4 v=0
374890 On ch=2 n=d#5 v=0
374890 On ch=2 n=a#4 v=83
375548 On ch=2 n=a5 v=83
375548 On ch=2 n=d5 v=83
376210 On ch=2 n=d5 v=0
376210 On ch=2 n=a5 v=0
376210 On ch=2 n=a#4 v=0
376210 On ch=2 n=d#4 v=83
376860 On ch=2 n=d#4 v=0
376860 On ch=2 n=g5 v=83
376860 On ch=2 n=c5 v=83
377548 On ch=2 n=g5 v=0
377548 On ch=2 n=c5 v=0
377548 On ch=2 n=c5 v=83
377548 On ch=2 n=d4 v=83
378156 On ch=2 n=c5 v=0
378156 On ch=2 n=d#5 v=83
378812 On ch=2 n=d#5 v=0
378812 On ch=2 n=d5 v=83
379458 On ch=2 n=d5 v=0
379458 On ch=2 n=d#5 v=83
380134 On ch=2 n=d#5 v=0
380134 On ch=2 n=d5 v=73
380134 On ch=2 n=a#4 v=73
380806 On ch=2 n=a#4 v=0
380806 On ch=2 n=d5 v=0
380806 On ch=2 n=d4 v=0
380806 On ch=2 n=a#4 v=67
380806 On ch=2 n=d4 v=67
381480 On ch=2 n=d4 v=0
381480 On ch=2 n=a#4 v=0
381480 On ch=2 n=a4 v=72
381480 On ch=2 n=d4 v=72
383440 On ch=2 n=a4 v=0
384072 On ch=2 n=d4 v=0
384072 On ch=2 n=d4 v=81
384394 On ch=2 n=d4 v=0
384394 On ch=2 n=d#4 v=81
384766 On ch=2 n=d#4 v=0
384766 On ch=2 n=d4 v=83
385098 On ch=2 n=d4 v=0
385098 On ch=2 n=d3 v=83
385436 On ch=2 n=d3 v=0
385436 On ch=2 n=g3 v=83
385948 On ch=2 n=g3 v=0
385948 On ch=2 n=a#3 v=83
386096 On ch=2 n=a#3 v=0
386096 On ch=2 n=d#4 v=75
386596 On ch=2 n=d#4 v=0
386596 On ch=2 n=c#4 v=75
386734 On ch=2 n=c#4 v=0
386734 On ch=2 n=d4 v=83
387376 On ch=2 n=g3 v=83
388100 On ch=2 n=g3 v=0
388100 On ch=2 n=d4 v=0
388100 On ch=2 n=d4 v=88
388100 On ch=2 n=g4 v=88
388100 On ch=2 n=g3 v=88
388768 On ch=2 n=g3 v=0
388768 On ch=2 n=g3 v=83
389446 On ch=2 n=g3 v=0
389446 On ch=2 n=g4 v=0
389446 On ch=2 n=d4 v=0
389446 On ch=2 n=g3 v=83
389952 On ch=2 n=g3 v=0
389952 On ch=2 n=a#3 v=83
390056 On ch=2 n=a#3 v=0
390056 On ch=2 n=d#4 v=83
390540 On ch=2 n=d#4 v=0
390540 On ch=2 n=c#4 v=83
390726 On ch=2 n=c#4 v=0
390726 On ch=2 n=d4 v=83
391370 On ch=2 n=g3 v=83
392050 On ch=2 n=g3 v=0
392050 On ch=2 n=d4 v=0
392050 On ch=2 n=d4 v=91
392050 On ch=2 n=g4 v=91
392050 On ch=2 n=g3 v=91
392730 On ch=2 n=g3 v=0
392730 On ch=2 n=g3 v=83
393384 On ch=2 n=g3 v=0
393384 On ch=2 n=g4 v=0
393384 On ch=2 n=d4 v=0
393384 On ch=2 n=f4 v=83
393384 On ch=2 n=f3 v=83
394014 On ch=2 n=f3 v=0
394014 On ch=2 n=f4 v=0
394014 On ch=2 n=b5 v=83
394014 On ch=2 n=f5 v=83
394014 On ch=2 n=d5 v=83
394014 On ch=2 n=g#4 v=83
394642 On ch=2 n=g#4 v=0
394642 On ch=2 n=d5 v=0
394642 On ch=2 n=f5 v=0
394642 On ch=2 n=b5 v=0
394642 On ch=2 n=b5 v=83
394642 On ch=2 n=f5 v=83
394642 On ch=2 n=d5 v=83
394642 On ch=2 n=g#4 v=83
395274 On ch=2 n=g#4 v=0
395274 On ch=2 n=d5 v=0
395274 On ch=2 n=f5 v=0
395274 On ch=2 n=b5 v=0
395274 On ch=2 n=b5 v=70
395274 On ch=2 n=f5 v=70
395274 On ch=2 n=d5 v=70
395274 On ch=2 n=g#4 v=70
395866 On ch=2 n=g#4 v=0
395866 On ch=2 n=d5 v=0
395866 On ch=2 n=f5 v=0
395866 On ch=2 n=b5 v=0
395866 On ch=2 n=b5 v=69
395866 On ch=2 n=f5 v=69
395866 On ch=2 n=d5 v=69
395866 On ch=2 n=g#4 v=69
396478 On ch=2 n=g#4 v=0
396478 On ch=2 n=d5 v=0
396478 On ch=2 n=f5 v=0
396478 On ch=2 n=b5 v=0
396478 On ch=2 n=b5 v=71
396478 On ch=2 n=f5 v=71
396478 On ch=2 n=d5 v=71
396478 On ch=2 n=g#4 v=71
397112 On ch=2 n=g#4 v=0
397112 On ch=2 n=d5 v=0
397112 On ch=2 n=f5 v=0
397112 On ch=2 n=b5 v=0
397112 On ch=2 n=g3 v=67
397714 On ch=2 n=g3 v=0
397714 On ch=2 n=f5 v=69
397714 On ch=2 n=d5 v=69
397714 On ch=2 n=g4 v=69
398332 On ch=2 n=g4 v=0
398332 On ch=2 n=d5 v=0
398332 On ch=2 n=f5 v=0
398332 On ch=2 n=f5 v=64
398332 On ch=2 n=d5 v=64
398332 On ch=2 n=g4 v=64
398930 On ch=2 n=g4 v=0
398930 On ch=2 n=d5 v=0
398930 On ch=2 n=f5 v=0
398930 On ch=2 n=d5 v=65
398930 On ch=2 n=g4 v=65
399552 On ch=2 n=g4 v=0
399552 On ch=2 n=d5 v=0
399552 On ch=2 n=c4 v=69
400230 On ch=2 n=c4 v=0
400230 On ch=2 n=c5 v=67
400230 On ch=2 n=g4 v=67
400886 On ch=2 n=g4 v=0
400886 On ch=2 n=c5 v=0
400886 On ch=2 n=d4 v=73
401524 On ch=2 n=d4 v=0
401524 On ch=2 n=c5 v=69
401524 On ch=2 n=a4 v=69
402770 On ch=2 n=a4 v=0
402770 On ch=2 n=c5 v=0
402770 On ch=2 n=f#5 v=66
402770 On ch=2 n=a4 v=66
403380 On ch=2 n=a4 v=0
403380 On ch=2 n=f#5 v=0
403380 On ch=2 n=g4 v=70
404026 On ch=2 n=g4 v=0
404026 On ch=2 n=g5 v=70
404026 On ch=2 n=d5 v=70
404026 On ch=2 n=a#4 v=70
404652 On ch=2 n=a#4 v=0
404652 On ch=2 n=d5 v=0
404652 On ch=2 n=g5 v=0
404652 On ch=2 n=a4 v=69
405286 On ch=2 n=a4 v=0
405286 On ch=2 n=c6 v=69
405286 On ch=2 n=f#5 v=69
405286 On ch=2 n=d5 v=69
406526 On ch=2 n=d5 v=0
406526 On ch=2 n=f#5 v=0
406526 On ch=2 n=c6 v=0
406526 On ch=2 n=c6 v=70
406526 On ch=2 n=f#5 v=70
406526 On ch=2 n=d5 v=70
407156 On ch=2 n=d5 v=0
407156 On ch=2 n=f#5 v=0
407156 On ch=2 n=c6 v=0
407156 On ch=2 n=a#4 v=67
407766 On ch=2 n=a#4 v=0
407766 On ch=2 n=d6 v=66
407766 On ch=2 n=g5 v=66
407766 On ch=2 n=d5 v=66
408410 On ch=2 n=d5 v=0
408410 On ch=2 n=g5 v=0
408410 On ch=2 n=d6 v=0
408410 On ch=2 n=c5 v=58
409028 On ch=2 n=c5 v=0
409028 On ch=2 n=d#6 v=61
409028 On ch=2 n=g#5 v=61
409028 On ch=2 n=d#5 v=61
409660 On ch=2 n=g#5 v=0
409660 On ch=2 n=d#6 v=0
409660 On ch=2 n=d#5 v=0
410912 On ch=2 n=c3 v=53
412192 On ch=2 n=c3 v=0
412192 On ch=2 n=d3 v=56
414076 On ch=2 n=d3 v=0
414076 On ch=2 n=d3 v=64
414742 On ch=2 n=d3 v=0
414742 On ch=2 n=g2 v=83
415392 On ch=2 n=g2 v=0
416078 On ch=2 n=d3 v=83
416580 On ch=2 n=d3 v=0
416580 On ch=2 n=f3 v=83
416752 On ch=2 n=f3 v=0
416752 On ch=2 n=a#3 v=83
417262 On ch=2 n=a#3 v=0
417262 On ch=2 n=g#3 v=83
417446 On ch=2 n=g#3 v=0
417446 On ch=2 n=a3 v=83
418110 On ch=2 n=d3 v=83
418820 On ch=2 n=d3 v=0
418820 On ch=2 n=a3 v=0
418820 On ch=2 n=d4 v=83
418820 On ch=2 n=a3 v=83
418820 On ch=2 n=d3 v=83
419498 On ch=2 n=d3 v=0
419498 On ch=2 n=d3 v=81
420184 On ch=2 n=d3 v=0
420184 On ch=2 n=a3 v=0
420184 On ch=2 n=d4 v=0
420184 On ch=2 n=d3 v=83
420696 On ch=2 n=d3 v=0
420696 On ch=2 n=f#3 v=83
420846 On ch=2 n=f#3 v=0
420846 On ch=2 n=a#3 v=83
421352 On ch=2 n=a#3 v=0
421352 On ch=2 n=g#3 v=83
421492 On ch=2 n=g#3 v=0
421492 On ch=2 n=a3 v=83
422158 On ch=2 n=d3 v=83
422858 On ch=2 n=d3 v=0
422858 On ch=2 n=a3 v=0
422858 On ch=2 n=d4 v=85
422858 On ch=2 n=a3 v=85
422858 On ch=2 n=d3 v=85
423510 On ch=2 n=d3 v=0
423510 On ch=2 n=d3 v=83
424194 On ch=2 n=d3 v=0
424194 On ch=2 n=a3 v=0
424194 On ch=2 n=d4 v=0
424194 On ch=2 n=c4 v=83
424194 On ch=2 n=c3 v=83
424858 On ch=2 n=c3 v=0
424858 On ch=2 n=c4 v=0
424858 On ch=2 n=a5 v=83
424858 On ch=2 n=f#5 v=83
424858 On ch=2 n=d#5 v=83
424858 On ch=2 n=c5 v=83
425514 On ch=2 n=f#5 v=0
425514 On ch=2 n=a5 v=0
425514 On ch=2 n=d#5 v=0
425514 On ch=2 n=c5 v=0
425514 On ch=2 n=a5 v=83
425514 On ch=2 n=f#5 v=83
425514 On ch=2 n=d#5 v=83
425514 On ch=2 n=c5 v=83
426154 On ch=2 n=f#5 v=0
426154 On ch=2 n=a5 v=0
426154 On ch=2 n=c5 v=0
426154 On ch=2 n=d#5 v=0
426154 On ch=2 n=a5 v=83
426154 On ch=2 n=f#5 v=83
426154 On ch=2 n=d#5 v=83
426154 On ch=2 n=c5 v=83
426828 On ch=2 n=f#5 v=0
426828 On ch=2 n=a5 v=0
426828 On ch=2 n=c5 v=0
426828 On ch=2 n=d#5 v=0
426828 On ch=2 n=a5 v=83
426828 On ch=2 n=f#5 v=83
426828 On ch=2 n=d#5 v=83
426828 On ch=2 n=c5 v=83
427480 On ch=2 n=f#5 v=0
427480 On ch=2 n=a5 v=0
427480 On ch=2 n=c5 v=0
427480 On ch=2 n=d#5 v=0
427480 On ch=2 n=a5 v=75
427480 On ch=2 n=f#5 v=75
427480 On ch=2 n=d#5 v=75
427480 On ch=2 n=c5 v=75
428142 On ch=2 n=f#5 v=0
428142 On ch=2 n=a5 v=0
428142 On ch=2 n=c5 v=0
428142 On ch=2 n=d#5 v=0
428142 On ch=2 n=d4 v=75
428798 On ch=2 n=d4 v=0
428798 On ch=2 n=f#5 v=72
428798 On ch=2 n=c5 v=72
428798 On ch=2 n=a4 v=72
429478 On ch=2 n=a4 v=0
429478 On ch=2 n=f#5 v=0
429478 On ch=2 n=c5 v=0
429478 On ch=2 n=f#5 v=73
429478 On ch=2 n=c5 v=73
429478 On ch=2 n=a4 v=73
430120 On ch=2 n=a4 v=0
430120 On ch=2 n=f#5 v=0
430120 On ch=2 n=c5 v=0
430120 On ch=2 n=f#5 v=70
430120 On ch=2 n=c5 v=70
430120 On ch=2 n=a4 v=70
430772 On ch=2 n=a4 v=0
430772 On ch=2 n=f#5 v=0
430772 On ch=2 n=c5 v=0
430772 On ch=2 n=f#5 v=64
430772 On ch=2 n=c5 v=64
430772 On ch=2 n=a4 v=64
431392 On ch=2 n=a4 v=0
431392 On ch=2 n=f#5 v=0
431392 On ch=2 n=c5 v=0
431392 On ch=2 n=f#5 v=70
431392 On ch=2 n=c5 v=70
431392 On ch=2 n=a4 v=70
432018 On ch=2 n=a4 v=0
432018 On ch=2 n=f#5 v=0
432018 On ch=2 n=c5 v=0
439968 On ch=2 n=c4 v=81
439968 On ch=2 n=c3 v=81
441262 On ch=2 n=c3 v=0
441262 On ch=2 n=c4 v=0
441262 On ch=2 n=f5 v=81
441262 On ch=2 n=c#5 v=81
441262 On ch=2 n=a#4 v=81
441262 On ch=2 n=g4 v=81
441918 On ch=2 n=g4 v=0
441918 On ch=2 n=a#4 v=0
441918 On ch=2 n=c#5 v=0
441918 On ch=2 n=f5 v=0
441918 On ch=2 n=f5 v=73
441918 On ch=2 n=c#5 v=73
441918 On ch=2 n=a#4 v=73
441918 On ch=2 n=g4 v=73
442550 On ch=2 n=g4 v=0
442550 On ch=2 n=a#4 v=0
442550 On ch=2 n=c#5 v=0
442550 On ch=2 n=f5 v=0
442550 On ch=2 n=f5 v=77
442550 On ch=2 n=c#5 v=77
442550 On ch=2 n=a#4 v=77
442550 On ch=2 n=g4 v=77
443202 On ch=2 n=g4 v=0
443202 On ch=2 n=a#4 v=0
443202 On ch=2 n=c#5 v=0
443202 On ch=2 n=f5 v=0
443202 On ch=2 n=f5 v=75
443202 On ch=2 n=c#5 v=75
443202 On ch=2 n=a#4 v=75
443202 On ch=2 n=g4 v=75
443850 On ch=2 n=g4 v=0
443850 On ch=2 n=a#4 v=0
443850 On ch=2 n=c#5 v=0
443850 On ch=2 n=f5 v=0
443850 On ch=2 n=c4 v=71
444526 On ch=2 n=c4 v=0
444526 On ch=2 n=e5 v=61
444526 On ch=2 n=a#4 v=61
444526 On ch=2 n=g4 v=61
445176 On ch=2 n=g4 v=0
445176 On ch=2 n=a#4 v=0
445176 On ch=2 n=e5 v=0
445176 On ch=2 n=e5 v=61
445176 On ch=2 n=a#4 v=61
445176 On ch=2 n=g4 v=61
445824 On ch=2 n=g4 v=0
445824 On ch=2 n=a#4 v=0
445824 On ch=2 n=e5 v=0
445824 On ch=2 n=e5 v=61
445824 On ch=2 n=a#4 v=61
445824 On ch=2 n=g4 v=61
446468 On ch=2 n=g4 v=0
446468 On ch=2 n=a#4 v=0
446468 On ch=2 n=e5 v=0
446468 On ch=2 n=e5 v=62
446468 On ch=2 n=a#4 v=62
446468 On ch=2 n=g4 v=62
447168 On ch=2 n=g4 v=0
447168 On ch=2 n=a#4 v=0
447168 On ch=2 n=e5 v=0
447168 On ch=2 n=e5 v=58
447168 On ch=2 n=a#4 v=58
447168 On ch=2 n=g4 v=58
447842 On ch=2 n=g4 v=0
447842 On ch=2 n=a#4 v=0
447842 On ch=2 n=e5 v=0
455854 On ch=2 n=e3 v=67
456530 On ch=2 n=e3 v=0
456530 On ch=2 n=e5 v=73
457182 On ch=2 n=e5 v=0
457182 On ch=2 n=e4 v=77
457806 On ch=2 n=e5 v=83
458450 On ch=2 n=e5 v=0
458450 On ch=2 n=e4 v=0
458450 On ch=2 n=g#4 v=83
458450 On ch=2 n=d5 v=83
458450 On ch=2 n=e4 v=83
459092 On ch=2 n=e4 v=0
459092 On ch=2 n=e5 v=83
459704 On ch=2 n=e5 v=0
459704 On ch=2 n=d5 v=0
459704 On ch=2 n=g#4 v=0
460382 On ch=2 n=c#5 v=83
460382 On ch=2 n=a4 v=83
461010 On ch=2 n=a4 v=0
461010 On ch=2 n=c#5 v=0
461010 On ch=2 n=e5 v=83
461698 On ch=2 n=e5 v=0
461698 On ch=2 n=e4 v=83
462314 On ch=2 n=d5 v=83
462314 On ch=2 n=g#4 v=83
462314 On ch=2 n=e4 v=83
462948 On ch=2 n=e4 v=0
462948 On ch=2 n=e4 v=0
462948 On ch=2 n=e5 v=83
463556 On ch=2 n=e5 v=0
463556 On ch=2 n=g#4 v=0
463556 On ch=2 n=d5 v=0
463556 On ch=2 n=a3 v=75
463556 On ch=2 n=e4 v=75
463556 On ch=2 n=c#5 v=75
464870 On ch=2 n=c#5 v=0
464870 On ch=2 n=e4 v=0
464870 On ch=2 n=a3 v=0
468826 On ch=2 n=a3 v=73
469526 On ch=2 n=a3 v=0
469526 On ch=2 n=a3 v=72
470200 On ch=2 n=a3 v=0
470200 On ch=2 n=a3 v=67
470866 On ch=2 n=a3 v=0
470866 On ch=2 n=a3 v=70
471540 On ch=2 n=a3 v=0
495274 On ch=2 n=g3 v=83
495758 On ch=2 n=g3 v=0
495758 On ch=2 n=a#3 v=83
495872 On ch=2 n=a#3 v=0
495872 On ch=2 n=d#4 v=83
496332 On ch=2 n=d#4 v=0
496332 On ch=2 n=c#4 v=83
496538 On ch=2 n=c#4 v=0
496538 On ch=2 n=d4 v=83
497194 On ch=2 n=g3 v=83
497878 On ch=2 n=g3 v=0
497878 On ch=2 n=d4 v=0
497878 On ch=2 n=g4 v=85
497878 On ch=2 n=d4 v=85
497878 On ch=2 n=g3 v=85
498518 On ch=2 n=g3 v=0
498518 On ch=2 n=g3 v=83
499206 On ch=2 n=g3 v=0
499206 On ch=2 n=d4 v=0
499206 On ch=2 n=g4 v=0
499206 On ch=2 n=g3 v=83
499704 On ch=2 n=g3 v=0
499704 On ch=2 n=a#3 v=83
499860 On ch=2 n=a#3 v=0
499860 On ch=2 n=d#4 v=83
500364 On ch=2 n=d#4 v=0
500364 On ch=2 n=c#4 v=83
500494 On ch=2 n=c#4 v=0
500494 On ch=2 n=d4 v=83
501168 On ch=2 n=g3 v=83
501830 On ch=2 n=g3 v=0
501830 On ch=2 n=d4 v=0
501830 On ch=2 n=d4 v=86
501830 On ch=2 n=g4 v=86
501830 On ch=2 n=g3 v=86
502498 On ch=2 n=g3 v=0
502498 On ch=2 n=g3 v=83
503134 On ch=2 n=g3 v=0
503134 On ch=2 n=g4 v=0
503134 On ch=2 n=d4 v=0
503134 On ch=2 n=g3 v=83
503760 On ch=2 n=g3 v=0
503760 On ch=2 n=a#4 v=83
503760 On ch=2 n=g4 v=83
504436 On ch=2 n=g4 v=0
504436 On ch=2 n=a#4 v=0
504436 On ch=2 n=a#4 v=83
504436 On ch=2 n=g4 v=83
505088 On ch=2 n=g4 v=0
505088 On ch=2 n=a#4 v=0
505088 On ch=2 n=d5 v=83
505088 On ch=2 n=a#4 v=83
505088 On ch=2 n=g4 v=83
505676 On ch=2 n=g4 v=0
505676 On ch=2 n=a#4 v=0
505676 On ch=2 n=d5 v=0
505676 On ch=2 n=d5 v=83
505676 On ch=2 n=a#4 v=83
505676 On ch=2 n=g4 v=83
506336 On ch=2 n=g4 v=0
506336 On ch=2 n=a#4 v=0
506336 On ch=2 n=d5 v=0
506336 On ch=2 n=d5 v=83
506336 On ch=2 n=a#4 v=83
506336 On ch=2 n=g4 v=83
506980 On ch=2 n=g4 v=0
506980 On ch=2 n=a#4 v=0
506980 On ch=2 n=d5 v=0
506980 On ch=2 n=f#4 v=83
507620 On ch=2 n=f#4 v=0
507620 On ch=2 n=a5 v=83
507620 On ch=2 n=d5 v=83
507620 On ch=2 n=c5 v=83
508274 On ch=2 n=d5 v=0
508274 On ch=2 n=a5 v=0
508274 On ch=2 n=c5 v=0
508274 On ch=2 n=a5 v=83
508274 On ch=2 n=d5 v=83
508274 On ch=2 n=c5 v=83
508942 On ch=2 n=d5 v=0
508942 On ch=2 n=a5 v=0
508942 On ch=2 n=c5 v=0
508942 On ch=2 n=a5 v=83
508942 On ch=2 n=d5 v=83
508942 On ch=2 n=c5 v=83
509604 On ch=2 n=d5 v=0
509604 On ch=2 n=a5 v=0
509604 On ch=2 n=c5 v=0
509604 On ch=2 n=a5 v=83
509604 On ch=2 n=d5 v=83
509604 On ch=2 n=c5 v=83
510262 On ch=2 n=d5 v=0
510262 On ch=2 n=a5 v=0
510262 On ch=2 n=c5 v=0
510262 On ch=2 n=a5 v=83
510262 On ch=2 n=d5 v=83
510262 On ch=2 n=c5 v=83
510886 On ch=2 n=d5 v=0
510886 On ch=2 n=a5 v=0
510886 On ch=2 n=c5 v=0
510886 On ch=2 n=g4 v=84
511474 On ch=2 n=a#5 v=83
511474 On ch=2 n=d5 v=83
511474 On ch=2 n=a#4 v=83
512148 On ch=2 n=a#4 v=0
512148 On ch=2 n=d5 v=0
512148 On ch=2 n=a#5 v=0
512148 On ch=2 n=g4 v=0
512148 On ch=2 n=a4 v=88
513470 On ch=2 n=a4 v=0
514114 On ch=2 n=f5 v=83
514114 On ch=2 n=d5 v=83
514114 On ch=2 n=c5 v=83
514754 On ch=2 n=d5 v=0
514754 On ch=2 n=f5 v=0
514754 On ch=2 n=c5 v=0
514754 On ch=2 n=a#4 v=83
515352 On ch=2 n=g5 v=83
515352 On ch=2 n=d#5 v=83
516020 On ch=2 n=g5 v=0
516020 On ch=2 n=a#4 v=0
516020 On ch=2 n=d#5 v=0
516020 On ch=2 n=a#4 v=86
516670 On ch=2 n=a5 v=83
516670 On ch=2 n=d5 v=83
517338 On ch=2 n=d5 v=0
517338 On ch=2 n=a5 v=0
517338 On ch=2 n=a#4 v=0
517338 On ch=2 n=d#4 v=83
517956 On ch=2 n=d#4 v=0
517956 On ch=2 n=g5 v=83
517956 On ch=2 n=c5 v=83
518592 On ch=2 n=g5 v=0
518592 On ch=2 n=d4 v=83
519238 On ch=2 n=c5 v=0
519238 On ch=2 n=d#5 v=83
519910 On ch=2 n=d#5 v=0
519910 On ch=2 n=d5 v=83
520526 On ch=2 n=d5 v=0
520526 On ch=2 n=d#5 v=83
521156 On ch=2 n=d#5 v=0
521156 On ch=2 n=d4 v=0
521156 On ch=2 n=d5 v=83
521156 On ch=2 n=a#4 v=83
521156 On ch=2 n=d4 v=83
521822 On ch=2 n=d4 v=0
521822 On ch=2 n=a#4 v=0
521822 On ch=2 n=d5 v=0
521822 On ch=2 n=a#4 v=83
521822 On ch=2 n=d4 v=83
522448 On ch=2 n=d4 v=0
522448 On ch=2 n=a#4 v=0
522448 On ch=2 n=a4 v=83
522448 On ch=2 n=d4 v=83
524380 On ch=2 n=a4 v=0
525004 On ch=2 n=d4 v=0
525004 On ch=2 n=d4 v=83
525320 On ch=2 n=d4 v=0
525320 On ch=2 n=d#4 v=83
525656 On ch=2 n=d#4 v=0
525656 On ch=2 n=d4 v=83
525976 On ch=2 n=d4 v=0
525976 On ch=2 n=d3 v=83
526296 On ch=2 n=d3 v=0
526296 On ch=2 n=g3 v=83
526780 On ch=2 n=g3 v=0
526780 On ch=2 n=a#3 v=83
526922 On ch=2 n=a#3 v=0
526922 On ch=2 n=d#4 v=83
527398 On ch=2 n=d#4 v=0
527398 On ch=2 n=c4 v=83
527582 On ch=2 n=c4 v=0
527582 On ch=2 n=d4 v=83
528856 On ch=2 n=d4 v=0
529512 On ch=2 n=g3 v=83
530156 On ch=2 n=g3 v=0
530156 On ch=2 n=g3 v=83
530644 On ch=2 n=g3 v=0
530644 On ch=2 n=a#3 v=83
530808 On ch=2 n=a#3 v=0
530808 On ch=2 n=d#4 v=83
531294 On ch=2 n=d#4 v=0
531294 On ch=2 n=c#4 v=83
531452 On ch=2 n=c#4 v=0
531452 On ch=2 n=d4 v=83
532056 On ch=2 n=g3 v=83
532724 On ch=2 n=g3 v=0
532724 On ch=2 n=d4 v=0
532724 On ch=2 n=d4 v=89
532724 On ch=2 n=g4 v=89
532724 On ch=2 n=g3 v=89
533364 On ch=2 n=g3 v=0
533364 On ch=2 n=g3 v=83
534030 On ch=2 n=g3 v=0
534030 On ch=2 n=g4 v=0
534030 On ch=2 n=d4 v=0
534030 On ch=2 n=f4 v=84
534030 On ch=2 n=f3 v=84
534666 On ch=2 n=f3 v=0
534666 On ch=2 n=f4 v=0
534666 On ch=2 n=c6 v=83
534666 On ch=2 n=f5 v=83
534666 On ch=2 n=d5 v=83
534666 On ch=2 n=g#4 v=83
535362 On ch=2 n=g#4 v=0
535362 On ch=2 n=d5 v=0
535362 On ch=2 n=f5 v=0
535362 On ch=2 n=c6 v=0
535362 On ch=2 n=a#5 v=83
535362 On ch=2 n=f5 v=83
535362 On ch=2 n=d5 v=83
535362 On ch=2 n=g#4 v=83
535976 On ch=2 n=g#4 v=0
535976 On ch=2 n=d5 v=0
535976 On ch=2 n=f5 v=0
535976 On ch=2 n=a#5 v=0
535976 On ch=2 n=a#5 v=83
535976 On ch=2 n=f5 v=83
535976 On ch=2 n=d5 v=83
535976 On ch=2 n=g#4 v=83
536548 On ch=2 n=g#4 v=0
536548 On ch=2 n=d5 v=0
536548 On ch=2 n=f5 v=0
536548 On ch=2 n=a#5 v=0
536548 On ch=2 n=a#5 v=83
536548 On ch=2 n=f5 v=83
536548 On ch=2 n=d5 v=83
536548 On ch=2 n=g#4 v=83
537196 On ch=2 n=g#4 v=0
537196 On ch=2 n=d5 v=0
537196 On ch=2 n=f5 v=0
537196 On ch=2 n=a#5 v=0
537196 On ch=2 n=a#5 v=83
537196 On ch=2 n=f5 v=83
537196 On ch=2 n=d5 v=83
537196 On ch=2 n=g#4 v=83
537832 On ch=2 n=g#4 v=0
537832 On ch=2 n=d5 v=0
537832 On ch=2 n=f5 v=0
537832 On ch=2 n=a#5 v=0
537832 On ch=2 n=g3 v=83
538454 On ch=2 n=g3 v=0
538454 On ch=2 n=f5 v=83
538454 On ch=2 n=d5 v=83
538454 On ch=2 n=g4 v=83
539086 On ch=2 n=g4 v=0
539086 On ch=2 n=d5 v=0
539086 On ch=2 n=f5 v=0
539086 On ch=2 n=f5 v=83
539086 On ch=2 n=d5 v=83
539086 On ch=2 n=g4 v=83
539692 On ch=2 n=g4 v=0
539692 On ch=2 n=d5 v=0
539692 On ch=2 n=f5 v=0
539692 On ch=2 n=d5 v=83
539692 On ch=2 n=g4 v=83
540334 On ch=2 n=g4 v=0
540334 On ch=2 n=d5 v=0
540334 On ch=2 n=c4 v=83
541000 On ch=2 n=c4 v=0
541000 On ch=2 n=c5 v=83
541000 On ch=2 n=g4 v=83
541664 On ch=2 n=g4 v=0
541664 On ch=2 n=c5 v=0
541664 On ch=2 n=d4 v=83
542304 On ch=2 n=d4 v=0
542304 On ch=2 n=c5 v=83
542304 On ch=2 n=a4 v=83
543508 On ch=2 n=a4 v=0
543508 On ch=2 n=c5 v=0
543508 On ch=2 n=f#5 v=83
543508 On ch=2 n=a4 v=83
544130 On ch=2 n=a4 v=0
544130 On ch=2 n=f#5 v=0
544130 On ch=2 n=g4 v=83
544774 On ch=2 n=g4 v=0
544774 On ch=2 n=g5 v=83
544774 On ch=2 n=d5 v=83
544774 On ch=2 n=a#4 v=83
545372 On ch=2 n=a#4 v=0
545372 On ch=2 n=d5 v=0
545372 On ch=2 n=g5 v=0
545372 On ch=2 n=a4 v=83
545998 On ch=2 n=a4 v=0
545998 On ch=2 n=c6 v=83
545998 On ch=2 n=f#5 v=83
545998 On ch=2 n=d5 v=83
547188 On ch=2 n=d5 v=0
547188 On ch=2 n=f#5 v=0
547188 On ch=2 n=c6 v=0
547188 On ch=2 n=c6 v=83
547188 On ch=2 n=f#5 v=83
547188 On ch=2 n=d5 v=83
547778 On ch=2 n=d5 v=0
547778 On ch=2 n=f#5 v=0
547778 On ch=2 n=c6 v=0
547778 On ch=2 n=a#4 v=83
548420 On ch=2 n=a#4 v=0
548420 On ch=2 n=d6 v=83
548420 On ch=2 n=g5 v=83
548420 On ch=2 n=d5 v=83
549040 On ch=2 n=d5 v=0
549040 On ch=2 n=g5 v=0
549040 On ch=2 n=d6 v=0
549040 On ch=2 n=c5 v=83
549658 On ch=2 n=c5 v=0
549658 On ch=2 n=d#6 v=83
549658 On ch=2 n=g#5 v=83
549658 On ch=2 n=d#5 v=83
550266 On ch=2 n=g#5 v=0
550266 On ch=2 n=d#6 v=0
550266 On ch=2 n=d#5 v=0
551500 On ch=2 n=c3 v=83
552720 On ch=2 n=c3 v=0
552720 On ch=2 n=d3 v=83
554646 On ch=2 n=d3 v=0
554646 On ch=2 n=d3 v=83
555298 On ch=2 n=d3 v=0
555298 On ch=2 n=g2 v=83
555958 On ch=2 n=g2 v=0
556610 On ch=2 n=a#3 v=83
556610 On ch=2 n=a#2 v=83
558018 On ch=2 n=a#2 v=0
558018 On ch=2 n=a#3 v=0
558018 On ch=2 n=a#3 v=80
560610 On ch=2 n=a#3 v=0
560610 On ch=2 n=a#3 v=77
560610 On ch=2 n=a#2 v=77
561924 On ch=2 n=a#2 v=0
561924 On ch=2 n=a#3 v=0
561924 On ch=2 n=a#3 v=83
564540 On ch=2 n=a#3 v=0
564540 On ch=2 n=g3 v=88
564540 On ch=2 n=g2 v=88
565884 On ch=2 n=g2 v=0
565884 On ch=2 n=g3 v=0
565884 On ch=2 n=b3 v=94
569122 On ch=2 n=b3 v=0
569122 On ch=2 n=g3 v=83
569746 On ch=2 n=g3 v=0
569746 On ch=2 n=a3 v=83
570386 On ch=2 n=a3 v=0
570386 On ch=2 n=b3 v=83
571016 On ch=2 n=b3 v=0
571016 On ch=2 n=c4 v=83
572304 On ch=2 n=c4 v=0
572304 On ch=2 n=c4 v=91
572304 On ch=2 n=c3 v=91
573644 On ch=2 n=c3 v=0
573644 On ch=2 n=c4 v=0
573644 On ch=2 n=c4 v=102
576226 On ch=2 n=c4 v=0
576226 On ch=2 n=c4 v=88
576226 On ch=2 n=c3 v=88
577518 On ch=2 n=c3 v=0
577518 On ch=2 n=c4 v=0
577518 On ch=2 n=c4 v=109
580090 On ch=2 n=c4 v=0
580090 On ch=2 n=f3 v=89
582664 On ch=2 n=f3 v=0
582664 On ch=2 n=a#3 v=91
583868 On ch=2 n=a#3 v=0
583868 On ch=2 n=f4 v=86
583868 On ch=2 n=f3 v=86
585176 On ch=2 n=f3 v=0
585176 On ch=2 n=f4 v=0
587690 On ch=2 n=a#4 v=70
587690 On ch=2 n=a#3 v=70
588316 On ch=2 n=a#3 v=0
588316 On ch=2 n=f5 v=67
588952 On ch=2 n=f5 v=0
588952 On ch=2 n=f5 v=70
589590 On ch=2 n=f5 v=0
589590 On ch=2 n=f5 v=77
590218 On ch=2 n=f5 v=0
590218 On ch=2 n=a#4 v=0
590218 On ch=2 n=d#5 v=75
590218 On ch=2 n=f4 v=75
590844 On ch=2 n=f5 v=69
591484 On ch=2 n=f5 v=0
591484 On ch=2 n=f4 v=0
591484 On ch=2 n=d#5 v=0
591484 On ch=2 n=d5 v=66
591484 On ch=2 n=f4 v=66
592096 On ch=2 n=f5 v=62
592720 On ch=2 n=f5 v=0
592720 On ch=2 n=f5 v=67
593368 On ch=2 n=f5 v=0
593368 On ch=2 n=f5 v=66
594026 On ch=2 n=f5 v=0
594026 On ch=2 n=f4 v=0
594026 On ch=2 n=d5 v=0
594026 On ch=2 n=d#5 v=69
594026 On ch=2 n=a4 v=69
594026 On ch=2 n=f4 v=69
594648 On ch=2 n=f4 v=0
594648 On ch=2 n=f5 v=75
595252 On ch=2 n=f5 v=0
595252 On ch=2 n=a4 v=0
595252 On ch=2 n=d#5 v=0
595252 On ch=2 n=d5 v=83
595252 On ch=2 n=a#4 v=83
595856 On ch=2 n=d5 v=0
595856 On ch=2 n=f5 v=83
596478 On ch=2 n=f5 v=0
596478 On ch=2 n=f5 v=83
597086 On ch=2 n=f5 v=0
597086 On ch=2 n=f5 v=83
597730 On ch=2 n=f5 v=0
597730 On ch=2 n=a#4 v=0
597730 On ch=2 n=a#4 v=83
597730 On ch=2 n=d4 v=83
598378 On ch=2 n=f5 v=78
599030 On ch=2 n=f5 v=0
599030 On ch=2 n=d4 v=0
599030 On ch=2 n=a#4 v=0
599030 On ch=2 n=d#4 v=83
599682 On ch=2 n=g5 v=83
599682 On ch=2 n=a#4 v=83
600302 On ch=2 n=a#4 v=0
600302 On ch=2 n=g5 v=0
600302 On ch=2 n=d#4 v=0
600302 On ch=2 n=a#3 v=83
600956 On ch=2 n=a#3 v=0
600956 On ch=2 n=d5 v=83
600956 On ch=2 n=a#4 v=83
600956 On ch=2 n=f4 v=83
601642 On ch=2 n=f4 v=0
601642 On ch=2 n=a#4 v=0
601642 On ch=2 n=d5 v=0
601642 On ch=2 n=f5 v=81
601642 On ch=2 n=d5 v=81
601642 On ch=2 n=a#4 v=81
602234 On ch=2 n=a#4 v=0
602234 On ch=2 n=d5 v=0
602234 On ch=2 n=f5 v=0
602848 On ch=2 n=a3 v=83
603466 On ch=2 n=a3 v=0
603466 On ch=2 n=d#5 v=83
603466 On ch=2 n=c5 v=83
603466 On ch=2 n=f4 v=83
604692 On ch=2 n=f4 v=0
604692 On ch=2 n=d#5 v=0
604692 On ch=2 n=c5 v=0
604692 On ch=2 n=d#5 v=83
604692 On ch=2 n=c5 v=83
604692 On ch=2 n=f4 v=83
605274 On ch=2 n=f4 v=0
605274 On ch=2 n=c5 v=0
605274 On ch=2 n=d#5 v=0
605274 On ch=2 n=a#3 v=83
606000 On ch=2 n=a#3 v=0
606000 On ch=2 n=d5 v=83
606000 On ch=2 n=a#4 v=83
606000 On ch=2 n=f4 v=83
606670 On ch=2 n=f4 v=0
606670 On ch=2 n=a#4 v=0
606670 On ch=2 n=d5 v=0
606670 On ch=2 n=f#3 v=83
607342 On ch=2 n=f#3 v=0
607342 On ch=2 n=d5 v=83
607342 On ch=2 n=f#4 v=83
608538 On ch=2 n=f#4 v=0
608538 On ch=2 n=d5 v=0
608538 On ch=2 n=d5 v=83
608538 On ch=2 n=f#4 v=83
609112 On ch=2 n=f#4 v=0
609112 On ch=2 n=d5 v=0
609112 On ch=2 n=g3 v=83
609800 On ch=2 n=g3 v=0
609800 On ch=2 n=d5 v=83
609800 On ch=2 n=g4 v=83
610446 On ch=2 n=d#4 v=83
611720 On ch=2 n=d#4 v=0
611720 On ch=2 n=g4 v=0
611720 On ch=2 n=d5 v=0
611720 On ch=2 n=d#5 v=83
611720 On ch=2 n=g4 v=83
611720 On ch=2 n=d#4 v=83
612344 On ch=2 n=d#4 v=0
612344 On ch=2 n=g4 v=0
612344 On ch=2 n=d#5 v=0
612344 On ch=2 n=d5 v=77
612344 On ch=2 n=g4 v=77
612344 On ch=2 n=b3 v=77
612966 On ch=2 n=b3 v=0
612966 On ch=2 n=g4 v=0
612966 On ch=2 n=d5 v=0
612966 On ch=2 n=d#5 v=78
612966 On ch=2 n=g4 v=78
612966 On ch=2 n=c4 v=78
613614 On ch=2 n=c4 v=0
613614 On ch=2 n=g4 v=0
613614 On ch=2 n=d#5 v=0
613614 On ch=2 n=d#4 v=77
614258 On ch=2 n=d#4 v=0
614258 On ch=2 n=f4 v=78
614880 On ch=2 n=f4 v=0
614880 On ch=2 n=f3 v=83
615534 On ch=2 n=f3 v=0
615534 On ch=2 n=f2 v=80
616204 On ch=2 n=f2 v=0
616204 On ch=2 n=f2 v=83
616860 On ch=2 n=f2 v=0
616860 On ch=2 n=f2 v=83
617486 On ch=2 n=f2 v=0
617486 On ch=2 n=f2 v=72
618258 On ch=2 n=f2 v=0
618258 On ch=2 n=a#3 v=83
618258 On ch=2 n=c3 v=83
618918 On ch=2 n=c3 v=0
618918 On ch=2 n=a#3 v=0
618918 On ch=2 n=f5 v=83
619576 On ch=2 n=f5 v=0
619576 On ch=2 n=d4 v=83
620196 On ch=2 n=f5 v=80
620844 On ch=2 n=f5 v=0
620844 On ch=2 n=d4 v=0
621458 On ch=2 n=d#5 v=83
621458 On ch=2 n=d4 v=83
622128 On ch=2 n=d4 v=0
622128 On ch=2 n=d#5 v=0
622128 On ch=2 n=d5 v=83
622128 On ch=2 n=f4 v=83
622722 On ch=2 n=f5 v=83
623336 On ch=2 n=f5 v=0
623336 On ch=2 n=f5 v=83
623968 On ch=2 n=f5 v=0
623968 On ch=2 n=f5 v=83
624610 On ch=2 n=f5 v=0
624610 On ch=2 n=f4 v=0
624610 On ch=2 n=d5 v=0
624610 On ch=2 n=d#5 v=83
624610 On ch=2 n=a4 v=83
624610 On ch=2 n=f4 v=83
625210 On ch=2 n=f4 v=0
625210 On ch=2 n=f5 v=83
625830 On ch=2 n=f5 v=0
625830 On ch=2 n=a4 v=0
625830 On ch=2 n=d#5 v=0
625830 On ch=2 n=a#3 v=83
626476 On ch=2 n=a#3 v=0
626476 On ch=2 n=g#5 v=83
627106 On ch=2 n=g#5 v=0
627106 On ch=2 n=a#4 v=75
627688 On ch=2 n=g#5 v=83
628334 On ch=2 n=g#5 v=0
628334 On ch=2 n=a#4 v=0
629010 On ch=2 n=d5 v=83
629614 On ch=2 n=d5 v=0
629614 On ch=2 n=d#4 v=83
630284 On ch=2 n=b4 v=83
630880 On ch=2 n=b4 v=0
630880 On ch=2 n=d5 v=83
631544 On ch=2 n=d5 v=0
631544 On ch=2 n=f5 v=83
632184 On ch=2 n=f5 v=0
632184 On ch=2 n=d#4 v=0
632184 On ch=2 n=d#4 v=83
632736 On ch=2 n=d#5 v=83
633392 On ch=2 n=d#4 v=0
633392 On ch=2 n=d#5 v=0
633392 On ch=2 n=a2 v=83
633694 On ch=2 n=d#3 v=83
634052 On ch=2 n=d#3 v=0
634052 On ch=2 n=c4 v=83
634382 On ch=2 n=c4 v=0
634382 On ch=2 n=g3 v=83
634700 On ch=2 n=g3 v=0
634700 On ch=2 n=a2 v=0
634700 On ch=2 n=c3 v=83
635028 On ch=2 n=g3 v=83
635328 On ch=2 n=g3 v=0
635328 On ch=2 n=d#4 v=83
635648 On ch=2 n=d#4 v=0
635648 On ch=2 n=a3 v=83
635926 On ch=2 n=a3 v=0
635926 On ch=2 n=c3 v=0
635926 On ch=2 n=d3 v=83
636232 On ch=2 n=f3 v=83
636536 On ch=2 n=f3 v=0
636536 On ch=2 n=f4 v=83
636838 On ch=2 n=f4 v=0
636838 On ch=2 n=a3 v=83
637174 On ch=2 n=a3 v=0
637174 On ch=2 n=d3 v=0
637174 On ch=2 n=c5 v=83
637486 On ch=2 n=f#5 v=83
637784 On ch=2 n=f#5 v=0
637784 On ch=2 n=d#6 v=83
638096 On ch=2 n=d#6 v=0
638096 On ch=2 n=a5 v=83
638434 On ch=2 n=a5 v=0
638434 On ch=2 n=c5 v=0
638434 On ch=2 n=d5 v=83
638750 On ch=2 n=g#5 v=83
639090 On ch=2 n=g#5 v=0
639090 On ch=2 n=f6 v=83
639416 On ch=2 n=f6 v=0
639416 On ch=2 n=b5 v=83
639744 On ch=2 n=b5 v=0
639744 On ch=2 n=d5 v=0
639744 On ch=2 n=d#5 v=83
640072 On ch=2 n=g5 v=83
640350 On ch=2 n=g5 v=0
640350 On ch=2 n=d#6 v=83
640666 On ch=2 n=d#6 v=0
640666 On ch=2 n=c6 v=83
640998 On ch=2 n=c6 v=0
640998 On ch=2 n=d#5 v=0
640998 On ch=2 n=g6 v=83
640998 On ch=2 n=c#6 v=83
640998 On ch=2 n=a#5 v=83
640998 On ch=2 n=e5 v=83
642302 On ch=2 n=e5 v=0
642302 On ch=2 n=a#5 v=0
642302 On ch=2 n=c#6 v=0
642302 On ch=2 n=g6 v=0
642302 On ch=2 n=a#6 v=83
642302 On ch=2 n=f6 v=83
642302 On ch=2 n=d6 v=83
642302 On ch=2 n=a#5 v=83
642302 On ch=2 n=f5 v=83
642922 On ch=2 n=f5 v=0
642922 On ch=2 n=a#5 v=0
642922 On ch=2 n=d6 v=0
642922 On ch=2 n=f6 v=0
642922 On ch=2 n=a#6 v=0
643558 On ch=2 n=f3 v=80
644802 On ch=2 n=f3 v=0
644802 On ch=2 n=d#5 v=83
644802 On ch=2 n=a4 v=83
644802 On ch=2 n=f4 v=83
646086 On ch=2 n=f4 v=0
646086 On ch=2 n=a4 v=0
646086 On ch=2 n=d#5 v=0
646760 On ch=2 n=f3 v=73
647426 On ch=2 n=f3 v=0
647426 On ch=2 n=a#3 v=83
648096 On ch=2 n=a#3 v=0
649420 On ch=2 n=f5 v=83
650024 On ch=2 n=f5 v=0
650024 On ch=2 n=d#5 v=83
650024 On ch=2 n=c5 v=83
650024 On ch=2 n=f4 v=83
650718 On ch=2 n=d#5 v=0
650718 On ch=2 n=c5 v=0
650718 On ch=2 n=f5 v=83
651390 On ch=2 n=f5 v=0
651390 On ch=2 n=d5 v=83
651390 On ch=2 n=a#4 v=83
652084 On ch=2 n=a#4 v=0
652084 On ch=2 n=d5 v=0
652084 On ch=2 n=f5 v=83
652728 On ch=2 n=f5 v=0
652728 On ch=2 n=f4 v=0
652728 On ch=2 n=d#5 v=83
652728 On ch=2 n=a4 v=83
652728 On ch=2 n=f4 v=83
653358 On ch=2 n=f4 v=0
653358 On ch=2 n=f5 v=83
654026 On ch=2 n=f5 v=0
654026 On ch=2 n=f4 v=88
654026 On ch=2 n=f4 v=88
654652 On ch=2 n=f4 v=0
654652 On ch=2 n=f5 v=83
655316 On ch=2 n=f5 v=0
655316 On ch=2 n=f4 v=0
655316 On ch=2 n=a4 v=0
655316 On ch=2 n=d#5 v=0
655316 On ch=2 n=d5 v=94
655316 On ch=2 n=a#4 v=94
656004 On ch=2 n=a#4 v=0
656004 On ch=2 n=d5 v=0
657366 On ch=2 n=f5 v=83
658014 On ch=2 n=f5 v=0
658014 On ch=2 n=d#5 v=83
658014 On ch=2 n=c5 v=83
658014 On ch=2 n=f4 v=83
658668 On ch=2 n=d#5 v=0
658668 On ch=2 n=c5 v=0
658668 On ch=2 n=f5 v=83
659276 On ch=2 n=f5 v=0
659276 On ch=2 n=d5 v=83
659276 On ch=2 n=a#4 v=83
659908 On ch=2 n=a#4 v=0
659908 On ch=2 n=d5 v=0
659908 On ch=2 n=f5 v=83
660590 On ch=2 n=f5 v=0
660590 On ch=2 n=f4 v=0
660590 On ch=2 n=d#5 v=83
660590 On ch=2 n=a4 v=83
660590 On ch=2 n=f4 v=83
661228 On ch=2 n=f4 v=0
661228 On ch=2 n=f5 v=83
661868 On ch=2 n=f5 v=0
661868 On ch=2 n=d4 v=83
662482 On ch=2 n=f5 v=83
663144 On ch=2 n=f5 v=0
663144 On ch=2 n=d4 v=0
663144 On ch=2 n=a4 v=0
663144 On ch=2 n=d#5 v=0
663144 On ch=2 n=d5 v=84
663144 On ch=2 n=a#4 v=84
663464 On ch=2 n=a#4 v=0
663464 On ch=2 n=d5 v=0
665104 On ch=2 n=g5 v=83
665756 On ch=2 n=g5 v=0
665756 On ch=2 n=f5 v=83
665756 On ch=2 n=d5 v=83
665756 On ch=2 n=g4 v=83
666442 On ch=2 n=d5 v=0
666442 On ch=2 n=f5 v=0
666442 On ch=2 n=g5 v=83
667060 On ch=2 n=g5 v=0
667060 On ch=2 n=d#5 v=83
667060 On ch=2 n=c5 v=83
667714 On ch=2 n=d#5 v=0
667714 On ch=2 n=c5 v=0
667714 On ch=2 n=g5 v=88
668334 On ch=2 n=g5 v=0
668334 On ch=2 n=g4 v=0
668334 On ch=2 n=f5 v=84
668334 On ch=2 n=c5 v=84
668334 On ch=2 n=g4 v=84
669008 On ch=2 n=g4 v=0
669008 On ch=2 n=g5 v=83
669652 On ch=2 n=g5 v=0
669652 On ch=2 n=g4 v=103
670252 On ch=2 n=g5 v=85
670910 On ch=2 n=g5 v=0
670910 On ch=2 n=g4 v=0
670910 On ch=2 n=f5 v=0
670910 On ch=2 n=c5 v=0
670910 On ch=2 n=d#5 v=98
670910 On ch=2 n=c5 v=98
672910 On ch=2 n=g5 v=83
673532 On ch=2 n=g5 v=0
673532 On ch=2 n=f5 v=83
673532 On ch=2 n=d5 v=83
673532 On ch=2 n=g4 v=83
674230 On ch=2 n=g4 v=0
674230 On ch=2 n=d5 v=0
674230 On ch=2 n=f5 v=0
674230 On ch=2 n=g5 v=83
674838 On ch=2 n=g5 v=0
674838 On ch=2 n=d#5 v=83
674838 On ch=2 n=c5 v=83
675482 On ch=2 n=c5 v=0
675482 On ch=2 n=d#5 v=0
675482 On ch=2 n=g5 v=83
675482 On ch=2 n=f#4 v=83
676138 On ch=2 n=f#4 v=0
676138 On ch=2 n=g5 v=0
676138 On ch=2 n=f5 v=89
676138 On ch=2 n=f4 v=89
676830 On ch=2 n=f4 v=0
676830 On ch=2 n=f5 v=0
693058 On ch=2 n=f5 v=83
693742 On ch=2 n=f5 v=0
693742 On ch=2 n=f5 v=83
694394 On ch=2 n=f5 v=0
694394 On ch=2 n=f5 v=83
695052 On ch=2 n=f5 v=0
695052 On ch=2 n=d#5 v=83
695052 On ch=2 n=d4 v=83
695706 On ch=2 n=f5 v=83
696446 On ch=2 n=f5 v=0
696446 On ch=2 n=d4 v=0
696446 On ch=2 n=d#5 v=0
696446 On ch=2 n=d5 v=83
696446 On ch=2 n=f4 v=83
697118 On ch=2 n=f5 v=83
697812 On ch=2 n=f5 v=0
697812 On ch=2 n=f5 v=83
698496 On ch=2 n=f5 v=0
698496 On ch=2 n=f5 v=77
699208 On ch=2 n=f5 v=0
699208 On ch=2 n=f4 v=0
699208 On ch=2 n=d5 v=0
699208 On ch=2 n=d#5 v=78
699208 On ch=2 n=a4 v=78
699208 On ch=2 n=f4 v=78
699930 On ch=2 n=f4 v=0
699930 On ch=2 n=f5 v=80
700604 On ch=2 n=f5 v=0
700604 On ch=2 n=a4 v=0
700604 On ch=2 n=d#5 v=0
700604 On ch=2 n=d5 v=83
700604 On ch=2 n=a#4 v=83
701356 On ch=2 n=d5 v=0
701356 On ch=2 n=f5 v=83
702038 On ch=2 n=f5 v=0
702038 On ch=2 n=f5 v=78
702738 On ch=2 n=f5 v=0
702738 On ch=2 n=f5 v=75
703484 On ch=2 n=f5 v=0
703484 On ch=2 n=d4 v=64
704160 On ch=2 n=f5 v=83
704862 On ch=2 n=f5 v=0
704862 On ch=2 n=d4 v=0
704862 On ch=2 n=a#4 v=0
704862 On ch=2 n=d#4 v=77
705588 On ch=2 n=g5 v=83
705588 On ch=2 n=a#4 v=83
706240 On ch=2 n=a#4 v=0
706240 On ch=2 n=g5 v=0
706240 On ch=2 n=d#4 v=0
706240 On ch=2 n=a#3 v=70
706982 On ch=2 n=a#3 v=0
706982 On ch=2 n=d5 v=72
706982 On ch=2 n=a#4 v=72
706982 On ch=2 n=f4 v=72
707682 On ch=2 n=f4 v=0
707682 On ch=2 n=a#4 v=0
707682 On ch=2 n=d5 v=0
707682 On ch=2 n=f5 v=73
707682 On ch=2 n=d5 v=73
707682 On ch=2 n=a#4 v=73
708358 On ch=2 n=a#4 v=0
708358 On ch=2 n=d5 v=0
708358 On ch=2 n=f5 v=0
709030 On ch=2 n=a3 v=83
709692 On ch=2 n=a3 v=0
709692 On ch=2 n=d#5 v=77
709692 On ch=2 n=c5 v=77
709692 On ch=2 n=f4 v=77
711066 On ch=2 n=f4 v=0
711066 On ch=2 n=d#5 v=0
711066 On ch=2 n=c5 v=0
711066 On ch=2 n=d#5 v=78
711066 On ch=2 n=c5 v=78
711066 On ch=2 n=f4 v=78
711792 On ch=2 n=f4 v=0
711792 On ch=2 n=d#5 v=0
711792 On ch=2 n=c5 v=0
711792 On ch=2 n=a#3 v=75
712454 On ch=2 n=a#3 v=0
712454 On ch=2 n=d5 v=83
712454 On ch=2 n=a#4 v=83
712454 On ch=2 n=f4 v=83
713174 On ch=2 n=f4 v=0
713174 On ch=2 n=a#4 v=0
713174 On ch=2 n=d5 v=0
713174 On ch=2 n=f#3 v=75
713848 On ch=2 n=f#3 v=0
713848 On ch=2 n=d5 v=78
713848 On ch=2 n=f#4 v=78
715198 On ch=2 n=f#4 v=0
715198 On ch=2 n=d5 v=0
715198 On ch=2 n=d5 v=78
715198 On ch=2 n=f#4 v=78
715878 On ch=2 n=f#4 v=0
715878 On ch=2 n=d5 v=0
715878 On ch=2 n=g3 v=83
716604 On ch=2 n=g3 v=0
716604 On ch=2 n=d5 v=83
716604 On ch=2 n=g4 v=83
717352 On ch=2 n=g4 v=0
717352 On ch=2 n=d5 v=0
717352 On ch=2 n=d5 v=78
717352 On ch=2 n=g4 v=78
717352 On ch=2 n=d#4 v=78
718672 On ch=2 n=g4 v=0
718672 On ch=2 n=d5 v=0
718672 On ch=2 n=d#5 v=83
718672 On ch=2 n=g4 v=83
719364 On ch=2 n=g4 v=0
719364 On ch=2 n=d#4 v=0
719364 On ch=2 n=d#5 v=0
719364 On ch=2 n=d5 v=83
719364 On ch=2 n=g4 v=83
719364 On ch=2 n=b3 v=83
720086 On ch=2 n=b3 v=0
720086 On ch=2 n=g4 v=0
720086 On ch=2 n=d5 v=0
720086 On ch=2 n=d#5 v=73
720086 On ch=2 n=g4 v=73
720086 On ch=2 n=c4 v=73
720748 On ch=2 n=c4 v=0
720748 On ch=2 n=g4 v=0
720748 On ch=2 n=d#5 v=0
720748 On ch=2 n=d#4 v=83
721414 On ch=2 n=d#4 v=0
721414 On ch=2 n=f4 v=81
722110 On ch=2 n=f4 v=0
722110 On ch=2 n=f3 v=83
722782 On ch=2 n=f3 v=0
722782 On ch=2 n=f2 v=73
723546 On ch=2 n=f2 v=0
723546 On ch=2 n=f2 v=83
724216 On ch=2 n=f2 v=0
724216 On ch=2 n=f2 v=83
724894 On ch=2 n=f2 v=0
724894 On ch=2 n=f2 v=83
725646 On ch=2 n=f2 v=0
725646 On ch=2 n=a#3 v=78
725646 On ch=2 n=a#2 v=78
726382 On ch=2 n=a#2 v=0
726382 On ch=2 n=a#3 v=0
726382 On ch=2 n=f5 v=78
727060 On ch=2 n=f5 v=0
727060 On ch=2 n=f4 v=83
727716 On ch=2 n=f5 v=83
728406 On ch=2 n=f5 v=0
728406 On ch=2 n=f4 v=0
728406 On ch=2 n=d#5 v=83
728406 On ch=2 n=f4 v=83
729038 On ch=2 n=f5 v=83
729746 On ch=2 n=f5 v=0
729746 On ch=2 n=f4 v=0
729746 On ch=2 n=d#5 v=0
729746 On ch=2 n=d5 v=83
729746 On ch=2 n=f4 v=83
730398 On ch=2 n=f5 v=80
731072 On ch=2 n=f5 v=0
731072 On ch=2 n=f5 v=78
731730 On ch=2 n=f5 v=0
731730 On ch=2 n=f5 v=75
732428 On ch=2 n=f5 v=0
732428 On ch=2 n=f4 v=0
732428 On ch=2 n=d5 v=0
732428 On ch=2 n=d#5 v=75
732428 On ch=2 n=a4 v=75
732428 On ch=2 n=f4 v=75
733130 On ch=2 n=f4 v=0
733130 On ch=2 n=f5 v=70
733818 On ch=2 n=f5 v=0
733818 On ch=2 n=a4 v=0
733818 On ch=2 n=d#5 v=0
733818 On ch=2 n=a#3 v=69
734540 On ch=2 n=a#3 v=0
734540 On ch=2 n=g#5 v=83
735210 On ch=2 n=g#5 v=0
735210 On ch=2 n=a#4 v=73
735890 On ch=2 n=g#5 v=78
736574 On ch=2 n=g#5 v=0
736574 On ch=2 n=a#4 v=0
737344 On ch=2 n=d5 v=75
738034 On ch=2 n=d5 v=0
738034 On ch=2 n=d#4 v=73
738764 On ch=2 n=c5 v=69
739400 On ch=2 n=c5 v=0
739400 On ch=2 n=d5 v=78
740110 On ch=2 n=d5 v=0
740110 On ch=2 n=f5 v=77
740732 On ch=2 n=f5 v=0
740732 On ch=2 n=d#4 v=0
740732 On ch=2 n=d#4 v=81
741474 On ch=2 n=d#5 v=76
742142 On ch=2 n=d#4 v=0
742142 On ch=2 n=d#5 v=0
742142 On ch=2 n=f4 v=83
742496 On ch=2 n=c5 v=83
742818 On ch=2 n=c5 v=0
742818 On ch=2 n=a5 v=83
743154 On ch=2 n=a5 v=0
743154 On ch=2 n=d#5 v=83
743508 On ch=2 n=f4 v=0
743508 On ch=2 n=d#5 v=0
743508 On ch=2 n=a4 v=75
743850 On ch=2 n=d#5 v=75
744208 On ch=2 n=d#5 v=0
744208 On ch=2 n=c6 v=78
744556 On ch=2 n=c6 v=0
744556 On ch=2 n=f5 v=78
744898 On ch=2 n=f5 v=0
744898 On ch=2 n=a4 v=0
744898 On ch=2 n=a#4 v=83
745246 On ch=2 n=d5 v=83
745600 On ch=2 n=d5 v=0
745600 On ch=2 n=d6 v=83
745948 On ch=2 n=d6 v=0
745948 On ch=2 n=f5 v=83
746288 On ch=2 n=f5 v=0
746288 On ch=2 n=a#4 v=0
746288 On ch=2 n=c5 v=75
746636 On ch=2 n=f#5 v=75
746970 On ch=2 n=f#5 v=0
746970 On ch=2 n=d#6 v=78
747314 On ch=2 n=d#6 v=0
747314 On ch=2 n=a5 v=78
747618 On ch=2 n=a5 v=0
747618 On ch=2 n=c5 v=0
747618 On ch=2 n=d5 v=73
747952 On ch=2 n=g#5 v=73
748294 On ch=2 n=g#5 v=0
748294 On ch=2 n=f6 v=66
748626 On ch=2 n=f6 v=0
748626 On ch=2 n=b5 v=66
748966 On ch=2 n=b5 v=0
748966 On ch=2 n=d5 v=0
748966 On ch=2 n=d#5 v=78
749304 On ch=2 n=g5 v=78
749668 On ch=2 n=g5 v=0
749668 On ch=2 n=d#6 v=75
750012 On ch=2 n=d#6 v=0
750012 On ch=2 n=c6 v=75
750364 On ch=2 n=c6 v=0
750364 On ch=2 n=d#5 v=0
750364 On ch=2 n=g6 v=83
750364 On ch=2 n=c#6 v=83
750364 On ch=2 n=a#5 v=83
750364 On ch=2 n=e5 v=83
751710 On ch=2 n=e5 v=0
751710 On ch=2 n=a#5 v=0
751710 On ch=2 n=c#6 v=0
751710 On ch=2 n=g6 v=0
751710 On ch=2 n=a#6 v=67
751710 On ch=2 n=f6 v=67
751710 On ch=2 n=d6 v=67
751710 On ch=2 n=a#5 v=67
751710 On ch=2 n=f5 v=67
752402 On ch=2 n=f5 v=0
752402 On ch=2 n=a#5 v=0
752402 On ch=2 n=d6 v=0
752402 On ch=2 n=f6 v=0
752402 On ch=2 n=a#6 v=0
753056 On ch=2 n=f3 v=72
754416 On ch=2 n=f3 v=0
754416 On ch=2 n=d#5 v=71
754416 On ch=2 n=a4 v=71
754416 On ch=2 n=f4 v=71
755768 On ch=2 n=f4 v=0
755768 On ch=2 n=a4 v=0
755768 On ch=2 n=d#5 v=0
756482 On ch=2 n=f3 v=73
757214 On ch=2 n=f3 v=0
757214 On ch=2 n=a#3 v=78
757912 On ch=2 n=a#3 v=0
757912 On ch=2 n=d#5 v=0
757912 On ch=2 n=d#5 v=0
757912 On ch=2 n=c5 v=0
757912 On ch=2 n=c5 v=0
757912 Meta TrkEnd
TrkEnd
MTrk
0 SeqSpec 43 00 01 00
0 Meta TrkName "Melodie main gauche"
0 Par ch=3 c=10 v=80
0 Par ch=3 c=91 v=32
0 Par ch=3 c=7 v=110
0 Par ch=3 c=93 v=0
6 Pb ch=3 v=12192
6 PrCh ch=3 p=1
185224 On ch=3 n=g#4 v=96
185224 On ch=3 n=f#3 v=96
185388 On ch=3 n=g#4 v=0
185388 On ch=3 n=f#4 v=96
185552 On ch=3 n=f#4 v=0
185552 On ch=3 n=g#4 v=96
185716 On ch=3 n=g#4 v=0
185716 On ch=3 n=f#4 v=96
185854 On ch=3 n=f#4 v=0
185854 On ch=3 n=f#3 v=0
185854 On ch=3 n=f4 v=96
185854 On ch=3 n=f3 v=96
186542 On ch=3 n=f3 v=0
186542 On ch=3 n=f4 v=0
193004 On ch=3 n=g#4 v=101
193004 On ch=3 n=f#3 v=101
193172 On ch=3 n=g#4 v=0
193172 On ch=3 n=f#4 v=101
193340 On ch=3 n=f#4 v=0
193340 On ch=3 n=g#4 v=101
193506 On ch=3 n=g#4 v=0
193506 On ch=3 n=f#4 v=101
193612 On ch=3 n=f#4 v=0
193612 On ch=3 n=f#3 v=0
193612 On ch=3 n=f4 v=96
193612 On ch=3 n=f3 v=96
194266 On ch=3 n=f3 v=0
194266 On ch=3 n=f4 v=0
200640 On ch=3 n=a#4 v=111
200640 On ch=3 n=g#3 v=111
200806 On ch=3 n=a#4 v=0
200806 On ch=3 n=g#4 v=111
200972 On ch=3 n=g#4 v=0
200972 On ch=3 n=a#4 v=111
201138 On ch=3 n=a#4 v=0
201138 On ch=3 n=g#4 v=111
201276 On ch=3 n=g#4 v=0
201276 On ch=3 n=g#3 v=0
201276 On ch=3 n=g4 v=107
201276 On ch=3 n=g3 v=107
201928 On ch=3 n=g3 v=0
201928 On ch=3 n=g4 v=0
208266 On ch=3 n=a#4 v=102
208266 On ch=3 n=g#3 v=102
208428 On ch=3 n=a#4 v=0
208428 On ch=3 n=g#4 v=102
208590 On ch=3 n=g#4 v=0
208590 On ch=3 n=a#4 v=102
208752 On ch=3 n=a#4 v=0
208752 On ch=3 n=g#4 v=102
208892 On ch=3 n=g#4 v=0
208892 On ch=3 n=g#3 v=0
208892 On ch=3 n=g4 v=97
208892 On ch=3 n=g3 v=97
209556 On ch=3 n=g3 v=0
209556 On ch=3 n=g4 v=0
213360 On ch=3 n=c4 v=72
213360 On ch=3 n=c3 v=72
213526 On ch=3 n=c3 v=0
213526 On ch=3 n=c4 v=0
213526 On ch=3 n=c#4 v=72
213526 On ch=3 n=c#3 v=72
213692 On ch=3 n=c#3 v=0
213692 On ch=3 n=c#4 v=0
213692 On ch=3 n=d#4 v=72
213692 On ch=3 n=d#3 v=72
213856 On ch=3 n=d#3 v=0
213856 On ch=3 n=d#4 v=0
213856 On ch=3 n=f4 v=72
213856 On ch=3 n=f3 v=72
213996 On ch=3 n=f3 v=0
213996 On ch=3 n=f4 v=0
213996 On ch=3 n=f#4 v=77
213996 On ch=3 n=f#3 v=77
214680 On ch=3 n=f#3 v=0
214680 On ch=3 n=f#4 v=0
214680 On ch=3 n=c4 v=80
214846 On ch=3 n=c4 v=0
214846 On ch=3 n=c#4 v=80
215010 On ch=3 n=c#4 v=0
215010 On ch=3 n=d#4 v=80
215176 On ch=3 n=d#4 v=0
215176 On ch=3 n=f4 v=80
215274 On ch=3 n=f4 v=0
215274 On ch=3 n=f#4 v=78
216532 On ch=3 n=f#4 v=0
216532 On ch=3 n=f4 v=96
217198 On ch=3 n=f4 v=0
217198 On ch=3 n=c4 v=82
217198 On ch=3 n=c3 v=82
217362 On ch=3 n=c3 v=0
217362 On ch=3 n=c4 v=0
217362 On ch=3 n=c#4 v=82
217362 On ch=3 n=c#3 v=82
217524 On ch=3 n=c#3 v=0
217524 On ch=3 n=c#4 v=0
217524 On ch=3 n=d#4 v=82
217524 On ch=3 n=d#3 v=82
217688 On ch=3 n=d#3 v=0
217688 On ch=3 n=d#4 v=0
217688 On ch=3 n=f4 v=82
217688 On ch=3 n=f3 v=82
217776 On ch=3 n=f3 v=0
217776 On ch=3 n=f4 v=0
217776 On ch=3 n=f#4 v=96
217776 On ch=3 n=f#3 v=96
217776 On ch=3 n=f#3 v=96
218490 On ch=3 n=f#3 v=0
218490 On ch=3 n=f#3 v=0
218490 On ch=3 n=f#4 v=0
218490 On ch=3 n=c4 v=88
218652 On ch=3 n=c4 v=0
218652 On ch=3 n=c#4 v=88
218814 On ch=3 n=c#4 v=0
218814 On ch=3 n=d#4 v=88
218974 On ch=3 n=d#4 v=0
218974 On ch=3 n=f4 v=88
219078 On ch=3 n=f4 v=0
219078 On ch=3 n=f#4 v=96
220334 On ch=3 n=f#4 v=0
220334 On ch=3 n=f4 v=96
220976 On ch=3 n=f4 v=0
220976 On ch=3 n=c4 v=96
220976 On ch=3 n=c3 v=96
221136 On ch=3 n=c3 v=0
221136 On ch=3 n=c4 v=0
221136 On ch=3 n=c#4 v=96
221136 On ch=3 n=c#3 v=96
221296 On ch=3 n=c#3 v=0
221296 On ch=3 n=c#4 v=0
221296 On ch=3 n=d#4 v=96
221296 On ch=3 n=d#3 v=96
221456 On ch=3 n=d#3 v=0
221456 On ch=3 n=d#4 v=0
221456 On ch=3 n=f4 v=96
221456 On ch=3 n=f3 v=96
221570 On ch=3 n=f3 v=0
221570 On ch=3 n=f4 v=0
221570 On ch=3 n=f#4 v=96
221570 On ch=3 n=f#3 v=96
223554 On ch=3 n=f#3 v=0
223554 On ch=3 n=f#4 v=0
223554 On ch=3 n=f4 v=101
223554 On ch=3 n=f3 v=101
224226 On ch=3 n=f3 v=0
224226 On ch=3 n=f4 v=0
224226 On ch=3 n=e4 v=99
224226 On ch=3 n=e3 v=99
224818 On ch=3 n=e3 v=0
224818 On ch=3 n=e4 v=0
224818 On ch=3 n=d#4 v=96
224818 On ch=3 n=d#3 v=96
225472 On ch=3 n=d#3 v=0
225472 On ch=3 n=d#4 v=0
225472 On ch=3 n=c4 v=96
225472 On ch=3 n=c3 v=96
226144 On ch=3 n=c3 v=0
226144 On ch=3 n=c4 v=0
226144 On ch=3 n=f#3 v=96
226144 On ch=3 n=f#2 v=96
226808 On ch=3 n=f#2 v=0
226808 On ch=3 n=f#3 v=0
226808 On ch=3 n=f3 v=96
226808 On ch=3 n=d#2 v=96
227446 On ch=3 n=d#2 v=0
227446 On ch=3 n=f3 v=0
227446 On ch=3 n=a3 v=96
227446 On ch=3 n=a2 v=96
228090 On ch=3 n=a2 v=0
228090 On ch=3 n=a3 v=0
228090 On ch=3 n=a#3 v=96
228090 On ch=3 n=a#2 v=96
228746 On ch=3 n=a#2 v=0
228746 On ch=3 n=a#3 v=0
432018 On ch=3 n=g3 v=83
432486 On ch=3 n=d4 v=83
432662 On ch=3 n=d4 v=0
432662 On ch=3 n=g3 v=0
432662 On ch=3 n=g#4 v=84
433138 On ch=3 n=g#4 v=0
433138 On ch=3 n=f#4 v=84
433314 On ch=3 n=f#4 v=0
433314 On ch=3 n=g4 v=90
434630 On ch=3 n=g4 v=0
434630 On ch=3 n=d5 v=89
435306 On ch=3 n=d5 v=0
435972 On ch=3 n=g3 v=96
436476 On ch=3 n=d4 v=96
436640 On ch=3 n=d4 v=0
436640 On ch=3 n=g3 v=0
436640 On ch=3 n=g#4 v=83
437140 On ch=3 n=g#4 v=0
437140 On ch=3 n=f#4 v=83
437294 On ch=3 n=f#4 v=0
437294 On ch=3 n=g4 v=88
438630 On ch=3 n=g4 v=0
438630 On ch=3 n=d5 v=83
439294 On ch=3 n=d5 v=0
447842 On ch=3 n=f3 v=72
448358 On ch=3 n=c4 v=72
448514 On ch=3 n=c4 v=0
448514 On ch=3 n=f3 v=0
448514 On ch=3 n=f#4 v=77
449020 On ch=3 n=f#4 v=0
449020 On ch=3 n=e4 v=77
449182 On ch=3 n=e4 v=0
449182 On ch=3 n=f4 v=86
450538 On ch=3 n=f4 v=0
450538 On ch=3 n=c5 v=88
451228 On ch=3 n=c5 v=0
451876 On ch=3 n=f3 v=89
452378 On ch=3 n=c4 v=89
452522 On ch=3 n=c4 v=0
452522 On ch=3 n=f3 v=0
452522 On ch=3 n=f#4 v=85
453008 On ch=3 n=f#4 v=0
453008 On ch=3 n=e4 v=85
453182 On ch=3 n=e4 v=0
453182 On ch=3 n=f4 v=84
454516 On ch=3 n=f4 v=0
454516 On ch=3 n=c5 v=83
455182 On ch=3 n=c5 v=0
466190 On ch=3 n=a4 v=80
466410 On ch=3 n=a4 v=0
466410 On ch=3 n=e4 v=80
466630 On ch=3 n=e4 v=0
466630 On ch=3 n=c#4 v=80
466816 On ch=3 n=c#4 v=0
466816 On ch=3 n=a3 v=83
467034 On ch=3 n=a3 v=0
467034 On ch=3 n=e3 v=83
467250 On ch=3 n=e3 v=0
467250 On ch=3 n=c#3 v=83
467460 On ch=3 n=c#3 v=0
467460 On ch=3 n=a2 v=93
468826 On ch=3 n=a2 v=0
471540 On ch=3 n=a3 v=82
473528 On ch=3 n=a3 v=0
473528 On ch=3 n=a#3 v=86
473854 On ch=3 n=a#3 v=0
473854 On ch=3 n=a3 v=86
474198 On ch=3 n=a3 v=0
474198 On ch=3 n=g3 v=85
474836 On ch=3 n=g3 v=0
474836 On ch=3 n=f3 v=88
475530 On ch=3 n=f3 v=0
475530 On ch=3 n=e3 v=96
478188 On ch=3 n=e3 v=0
478188 On ch=3 n=d#3 v=96
479532 On ch=3 n=d#3 v=0
479532 On ch=3 n=d3 v=96
480864 On ch=3 n=d3 v=0
480864 On ch=3 n=a#3 v=96
481506 On ch=3 n=a#3 v=0
481506 On ch=3 n=c4 v=96
481830 On ch=3 n=c4 v=0
481830 On ch=3 n=a#3 v=96
482132 On ch=3 n=a#3 v=0
482132 On ch=3 n=a3 v=96
482834 On ch=3 n=a3 v=0
482834 On ch=3 n=g3 v=96
483528 On ch=3 n=g3 v=0
483528 On ch=3 n=f#3 v=96
486162 On ch=3 n=f#3 v=0
486162 On ch=3 n=f3 v=96
487498 On ch=3 n=f3 v=0
487498 On ch=3 n=e3 v=99
488774 On ch=3 n=e3 v=0
488774 On ch=3 n=d#4 v=99
488774 On ch=3 n=d#3 v=99
490102 On ch=3 n=d#3 v=0
490102 On ch=3 n=d#4 v=0
490102 On ch=3 n=d4 v=101
490102 On ch=3 n=d3 v=101
491408 On ch=3 n=d3 v=0
491408 On ch=3 n=d4 v=0
491408 On ch=3 n=d#4 v=99
491408 On ch=3 n=d#3 v=99
492664 On ch=3 n=d#3 v=0
492664 On ch=3 n=d#4 v=0
492664 On ch=3 n=c4 v=96
492664 On ch=3 n=c3 v=96
493984 On ch=3 n=c3 v=0
493984 On ch=3 n=c4 v=0
493984 On ch=3 n=d4 v=96
493984 On ch=3 n=d3 v=96
495274 On ch=3 n=d3 v=0
495274 On ch=3 n=d4 v=0
648096 On ch=3 n=g#4 v=96
648096 On ch=3 n=f#3 v=96
648264 On ch=3 n=g#4 v=0
648264 On ch=3 n=f#4 v=96
648430 On ch=3 n=f#4 v=0
648430 On ch=3 n=g#4 v=96
648598 On ch=3 n=g#4 v=0
648598 On ch=3 n=f#4 v=96
648762 On ch=3 n=f#4 v=0
648762 On ch=3 n=f#3 v=0
648762 On ch=3 n=f4 v=96
648762 On ch=3 n=f3 v=96
649420 On ch=3 n=f3 v=0
649420 On ch=3 n=f4 v=0
656004 On ch=3 n=g#4 v=104
656004 On ch=3 n=f#3 v=104
656174 On ch=3 n=g#4 v=0
656174 On ch=3 n=f#4 v=104
656342 On ch=3 n=f#4 v=0
656342 On ch=3 n=g#4 v=104
656512 On ch=3 n=g#4 v=0
656512 On ch=3 n=f#4 v=104
656652 On ch=3 n=f#4 v=0
656652 On ch=3 n=f#3 v=0
656652 On ch=3 n=f4 v=101
656652 On ch=3 n=f3 v=101
657366 On ch=3 n=f3 v=0
657366 On ch=3 n=f4 v=0
663786 On ch=3 n=a#4 v=103
663786 On ch=3 n=g#3 v=103
663950 On ch=3 n=a#4 v=0
663950 On ch=3 n=g#4 v=103
664112 On ch=3 n=g#4 v=0
664112 On ch=3 n=a#4 v=103
664276 On ch=3 n=a#4 v=0
664276 On ch=3 n=g#4 v=103
664392 On ch=3 n=g#4 v=0
664392 On ch=3 n=g#3 v=0
664392 On ch=3 n=g4 v=112
664392 On ch=3 n=g3 v=112
665104 On ch=3 n=g3 v=0
665104 On ch=3 n=g4 v=0
671618 On ch=3 n=a#4 v=102
671618 On ch=3 n=g#3 v=102
671790 On ch=3 n=a#4 v=0
671790 On ch=3 n=g#4 v=102
671960 On ch=3 n=g#4 v=0
671960 On ch=3 n=a#4 v=102
672130 On ch=3 n=a#4 v=0
672130 On ch=3 n=g#4 v=102
672248 On ch=3 n=g#4 v=0
672248 On ch=3 n=g#3 v=0
672248 On ch=3 n=g4 v=96
672248 On ch=3 n=g3 v=96
672910 On ch=3 n=g3 v=0
672910 On ch=3 n=g4 v=0
676830 On ch=3 n=c4 v=96
676830 On ch=3 n=c3 v=96
677000 On ch=3 n=c3 v=0
677000 On ch=3 n=c4 v=0
677000 On ch=3 n=c#4 v=96
677000 On ch=3 n=c#3 v=96
677168 On ch=3 n=c#3 v=0
677168 On ch=3 n=c#4 v=0
677168 On ch=3 n=d#4 v=96
677168 On ch=3 n=d#3 v=96
677336 On ch=3 n=d#3 v=0
677336 On ch=3 n=d#4 v=0
677336 On ch=3 n=f4 v=96
677336 On ch=3 n=f3 v=96
677434 On ch=3 n=f3 v=0
677434 On ch=3 n=f4 v=0
677434 On ch=3 n=f#4 v=96
677434 On ch=3 n=f#3 v=96
678130 On ch=3 n=f#3 v=0
678130 On ch=3 n=f#4 v=0
678130 On ch=3 n=c4 v=96
678292 On ch=3 n=c4 v=0
678292 On ch=3 n=c#4 v=96
678456 On ch=3 n=c#4 v=0
678456 On ch=3 n=d#4 v=96
678618 On ch=3 n=d#4 v=0
678618 On ch=3 n=f4 v=96
678748 On ch=3 n=f4 v=0
678748 On ch=3 n=f#4 v=96
680058 On ch=3 n=f#4 v=0
680058 On ch=3 n=f4 v=102
680720 On ch=3 n=f4 v=0
680720 On ch=3 n=c4 v=96
680720 On ch=3 n=c3 v=96
680884 On ch=3 n=c3 v=0
680884 On ch=3 n=c4 v=0
680884 On ch=3 n=c#4 v=96
680884 On ch=3 n=c#3 v=96
681048 On ch=3 n=c#3 v=0
681048 On ch=3 n=c#4 v=0
681048 On ch=3 n=d#4 v=96
681048 On ch=3 n=d#3 v=96
681214 On ch=3 n=d#3 v=0
681214 On ch=3 n=d#4 v=0
681214 On ch=3 n=f4 v=96
681214 On ch=3 n=f3 v=96
681338 On ch=3 n=f3 v=0
681338 On ch=3 n=f4 v=0
681338 On ch=3 n=f#4 v=122
681338 On ch=3 n=f#3 v=122
681338 On ch=3 n=f#3 v=122
682016 On ch=3 n=f#3 v=0
682016 On ch=3 n=f#3 v=0
682016 On ch=3 n=f#4 v=0
682016 On ch=3 n=c4 v=99
682178 On ch=3 n=c4 v=0
682178 On ch=3 n=c#4 v=99
682340 On ch=3 n=c#4 v=0
682340 On ch=3 n=d#4 v=99
682502 On ch=3 n=d#4 v=0
682502 On ch=3 n=f4 v=99
682630 On ch=3 n=f4 v=0
682630 On ch=3 n=f#4 v=111
684002 On ch=3 n=f#4 v=0
684002 On ch=3 n=f4 v=102
684638 On ch=3 n=f4 v=0
684638 On ch=3 n=c4 v=105
684638 On ch=3 n=c3 v=105
684804 On ch=3 n=c3 v=0
684804 On ch=3 n=c4 v=0
684804 On ch=3 n=c#4 v=105
684804 On ch=3 n=c#3 v=105
684970 On ch=3 n=c#3 v=0
684970 On ch=3 n=c#4 v=0
684970 On ch=3 n=d#4 v=105
684970 On ch=3 n=d#3 v=105
685136 On ch=3 n=d#3 v=0
685136 On ch=3 n=d#4 v=0
685136 On ch=3 n=f4 v=105
685136 On ch=3 n=f3 v=105
685298 On ch=3 n=f3 v=0
685298 On ch=3 n=f4 v=0
685298 On ch=3 n=f#4 v=105
685298 On ch=3 n=f#3 v=105
687404 On ch=3 n=f#3 v=0
687404 On ch=3 n=f#4 v=0
687404 On ch=3 n=f4 v=99
687404 On ch=3 n=f3 v=99
688120 On ch=3 n=f3 v=0
688120 On ch=3 n=f4 v=0
688120 On ch=3 n=e4 v=96
688120 On ch=3 n=e3 v=96
688830 On ch=3 n=e3 v=0
688830 On ch=3 n=e4 v=0
688830 On ch=3 n=d#4 v=97
688830 On ch=3 n=d#3 v=97
689550 On ch=3 n=d#3 v=0
689550 On ch=3 n=d#4 v=0
689550 On ch=3 n=c4 v=96
689550 On ch=3 n=c3 v=96
690240 On ch=3 n=c3 v=0
690240 On ch=3 n=c4 v=0
690240 On ch=3 n=f#3 v=96
690240 On ch=3 n=f#2 v=96
690928 On ch=3 n=f#2 v=0
690928 On ch=3 n=f#3 v=0
690928 On ch=3 n=f3 v=96
690928 On ch=3 n=d#2 v=96
691638 On ch=3 n=d#2 v=0
691638 On ch=3 n=f3 v=0
691638 On ch=3 n=a3 v=96
691638 On ch=3 n=a2 v=96
692354 On ch=3 n=a2 v=0
692354 On ch=3 n=a3 v=0
692354 On ch=3 n=a#3 v=96
692354 On ch=3 n=a#2 v=96
693058 On ch=3 n=a#2 v=0
693058 On ch=3 n=a#3 v=0
693058 Meta TrkEnd
TrkEnd
MTrk
0 SeqSpec 43 00 01 00
0 Meta TrkName "Accompagnement main droite"
0 Par ch=4 c=10 v=47
0 Par ch=4 c=91 v=32
0 Par ch=4 c=7 v=110
0 Par ch=4 c=93 v=0
6 Pb ch=4 v=12192
6 PrCh ch=4 p=1
432018 On ch=4 n=c6 v=70
432662 On ch=4 n=f5 v=71
432662 On ch=4 n=d5 v=71
433314 On ch=4 n=d5 v=0
433314 On ch=4 n=f5 v=0
433314 On ch=4 n=c6 v=0
433314 On ch=4 n=b5 v=77
433314 On ch=4 n=f5 v=77
433314 On ch=4 n=d5 v=77
433986 On ch=4 n=d5 v=0
433986 On ch=4 n=f5 v=0
433986 On ch=4 n=f5 v=72
433986 On ch=4 n=d5 v=72
434630 On ch=4 n=d5 v=0
434630 On ch=4 n=f5 v=0
434630 On ch=4 n=f5 v=76
435306 On ch=4 n=f5 v=0
435306 On ch=4 n=f5 v=83
435306 On ch=4 n=d5 v=83
435972 On ch=4 n=d5 v=0
435972 On ch=4 n=f5 v=0
435972 On ch=4 n=b5 v=0
435972 On ch=4 n=b5 v=83
435972 On ch=4 n=f5 v=83
435972 On ch=4 n=d5 v=83
436640 On ch=4 n=d5 v=0
436640 On ch=4 n=f5 v=0
436640 On ch=4 n=f5 v=70
436640 On ch=4 n=d5 v=70
437294 On ch=4 n=d5 v=0
437294 On ch=4 n=f5 v=0
437294 On ch=4 n=f5 v=75
437294 On ch=4 n=d5 v=75
437974 On ch=4 n=d5 v=0
437974 On ch=4 n=f5 v=0
437974 On ch=4 n=f5 v=75
437974 On ch=4 n=d5 v=75
438630 On ch=4 n=d5 v=0
438630 On ch=4 n=f5 v=0
438630 On ch=4 n=f5 v=70
439294 On ch=4 n=f5 v=0
439294 On ch=4 n=f5 v=69
439294 On ch=4 n=d5 v=69
439968 On ch=4 n=d5 v=0
439968 On ch=4 n=f5 v=0
439968 On ch=4 n=b5 v=0
439968 On ch=4 n=a#5 v=81
439968 On ch=4 n=f5 v=81
439968 On ch=4 n=a#4 v=81
440620 On ch=4 n=a#4 v=0
440620 On ch=4 n=f5 v=0
440620 On ch=4 n=a#5 v=0
447842 On ch=4 n=a#5 v=59
448514 On ch=4 n=d#5 v=64
448514 On ch=4 n=c5 v=64
449182 On ch=4 n=c5 v=0
449182 On ch=4 n=d#5 v=0
449182 On ch=4 n=a#5 v=0
449182 On ch=4 n=a5 v=73
449182 On ch=4 n=d#5 v=73
449182 On ch=4 n=c5 v=73
449858 On ch=4 n=c5 v=0
449858 On ch=4 n=d#5 v=0
449858 On ch=4 n=d#5 v=70
449858 On ch=4 n=c5 v=70
450538 On ch=4 n=c5 v=0
450538 On ch=4 n=d#5 v=0
450538 On ch=4 n=d#5 v=75
451228 On ch=4 n=d#5 v=0
451228 On ch=4 n=d#5 v=70
451228 On ch=4 n=c5 v=70
451876 On ch=4 n=c5 v=0
451876 On ch=4 n=d#5 v=0
451876 On ch=4 n=a5 v=0
451876 On ch=4 n=a5 v=76
451876 On ch=4 n=d#5 v=76
451876 On ch=4 n=c5 v=76
452522 On ch=4 n=c5 v=0
452522 On ch=4 n=d#5 v=0
452522 On ch=4 n=d#5 v=72
452522 On ch=4 n=c5 v=72
453182 On ch=4 n=c5 v=0
453182 On ch=4 n=d#5 v=0
453182 On ch=4 n=d#5 v=71
453182 On ch=4 n=c5 v=71
453870 On ch=4 n=c5 v=0
453870 On ch=4 n=d#5 v=0
453870 On ch=4 n=d#5 v=69
453870 On ch=4 n=c5 v=69
454516 On ch=4 n=c5 v=0
454516 On ch=4 n=d#5 v=0
454516 On ch=4 n=d#5 v=70
455182 On ch=4 n=d#5 v=0
455182 On ch=4 n=d#5 v=73
455182 On ch=4 n=c5 v=73
455854 On ch=4 n=c5 v=0
455854 On ch=4 n=d#5 v=0
455854 On ch=4 n=a5 v=0
471540 On ch=4 n=a4 v=69
471540 On ch=4 n=f4 v=69
471540 On ch=4 n=c4 v=69
472224 On ch=4 n=c4 v=0
472224 On ch=4 n=f4 v=0
472224 On ch=4 n=a4 v=0
472224 On ch=4 n=a4 v=71
472224 On ch=4 n=f4 v=71
472224 On ch=4 n=c4 v=71
472854 On ch=4 n=c4 v=0
472854 On ch=4 n=f4 v=0
472854 On ch=4 n=a4 v=0
472854 On ch=4 n=a4 v=64
472854 On ch=4 n=f4 v=64
472854 On ch=4 n=c4 v=64
473528 On ch=4 n=c4 v=0
473528 On ch=4 n=f4 v=0
473528 On ch=4 n=a4 v=0
473528 On ch=4 n=a4 v=73
473528 On ch=4 n=f4 v=73
473528 On ch=4 n=c4 v=73
474198 On ch=4 n=c4 v=0
474198 On ch=4 n=f4 v=0
474198 On ch=4 n=a4 v=0
474198 On ch=4 n=a4 v=72
474198 On ch=4 n=f4 v=72
474198 On ch=4 n=c4 v=72
474836 On ch=4 n=c4 v=0
474836 On ch=4 n=f4 v=0
474836 On ch=4 n=a4 v=0
474836 On ch=4 n=a4 v=75
474836 On ch=4 n=f4 v=75
474836 On ch=4 n=c4 v=75
475530 On ch=4 n=c4 v=0
475530 On ch=4 n=f4 v=0
475530 On ch=4 n=a4 v=0
475530 On ch=4 n=a#4 v=83
475530 On ch=4 n=g4 v=83
475530 On ch=4 n=c4 v=83
476198 On ch=4 n=c4 v=0
476198 On ch=4 n=g4 v=0
476198 On ch=4 n=a#4 v=0
476198 On ch=4 n=a#4 v=72
476198 On ch=4 n=g4 v=72
476198 On ch=4 n=c4 v=72
476870 On ch=4 n=c4 v=0
476870 On ch=4 n=g4 v=0
476870 On ch=4 n=a#4 v=0
476870 On ch=4 n=a#4 v=72
476870 On ch=4 n=g4 v=72
476870 On ch=4 n=c4 v=72
477542 On ch=4 n=c4 v=0
477542 On ch=4 n=g4 v=0
477542 On ch=4 n=a#4 v=0
477542 On ch=4 n=a#4 v=83
477542 On ch=4 n=g4 v=83
477542 On ch=4 n=c4 v=83
478188 On ch=4 n=c4 v=0
478188 On ch=4 n=g4 v=0
478188 On ch=4 n=a#4 v=0
478188 On ch=4 n=a#4 v=83
478188 On ch=4 n=g4 v=83
478188 On ch=4 n=c#4 v=83
478828 On ch=4 n=c#4 v=0
478828 On ch=4 n=g4 v=0
478828 On ch=4 n=a#4 v=0
478828 On ch=4 n=a#4 v=83
478828 On ch=4 n=g4 v=83
478828 On ch=4 n=c#4 v=83
479532 On ch=4 n=c#4 v=0
479532 On ch=4 n=g4 v=0
479532 On ch=4 n=a#4 v=0
479532 On ch=4 n=a#4 v=83
479532 On ch=4 n=g4 v=83
479532 On ch=4 n=d4 v=83
480208 On ch=4 n=d4 v=0
480208 On ch=4 n=g4 v=0
480208 On ch=4 n=g4 v=83
480208 On ch=4 n=d4 v=83
480864 On ch=4 n=d4 v=0
480864 On ch=4 n=g4 v=0
480864 On ch=4 n=a#4 v=0
480864 On ch=4 n=a#4 v=83
480864 On ch=4 n=g4 v=83
480864 On ch=4 n=d4 v=83
481506 On ch=4 n=d4 v=0
481506 On ch=4 n=g4 v=0
481506 On ch=4 n=a#4 v=0
481506 On ch=4 n=a#4 v=83
481506 On ch=4 n=g4 v=83
481506 On ch=4 n=d4 v=83
482132 On ch=4 n=d4 v=0
482132 On ch=4 n=g4 v=0
482132 On ch=4 n=a#4 v=0
482132 On ch=4 n=a#4 v=83
482132 On ch=4 n=g4 v=83
482132 On ch=4 n=d4 v=83
482834 On ch=4 n=d4 v=0
482834 On ch=4 n=g4 v=0
482834 On ch=4 n=a#4 v=0
482834 On ch=4 n=a#4 v=83
482834 On ch=4 n=g4 v=83
482834 On ch=4 n=d4 v=83
483528 On ch=4 n=d4 v=0
483528 On ch=4 n=g4 v=0
483528 On ch=4 n=a#4 v=0
483528 On ch=4 n=c5 v=83
483528 On ch=4 n=a4 v=83
483528 On ch=4 n=d4 v=83
484178 On ch=4 n=d4 v=0
484178 On ch=4 n=a4 v=0
484178 On ch=4 n=c5 v=0
484178 On ch=4 n=c5 v=83
484178 On ch=4 n=a4 v=83
484178 On ch=4 n=d4 v=83
484844 On ch=4 n=d4 v=0
484844 On ch=4 n=a4 v=0
484844 On ch=4 n=c5 v=0
484844 On ch=4 n=c5 v=83
484844 On ch=4 n=a4 v=83
484844 On ch=4 n=d4 v=83
485518 On ch=4 n=d4 v=0
485518 On ch=4 n=a4 v=0
485518 On ch=4 n=c5 v=0
485518 On ch=4 n=c5 v=83
485518 On ch=4 n=a4 v=83
485518 On ch=4 n=d4 v=83
486162 On ch=4 n=d4 v=0
486162 On ch=4 n=a4 v=0
486162 On ch=4 n=c5 v=0
486162 On ch=4 n=c5 v=83
486162 On ch=4 n=a4 v=83
486162 On ch=4 n=d#4 v=83
486806 On ch=4 n=d#4 v=0
486806 On ch=4 n=a4 v=0
486806 On ch=4 n=c5 v=0
486806 On ch=4 n=c5 v=83
486806 On ch=4 n=a4 v=83
486806 On ch=4 n=d#4 v=83
487498 On ch=4 n=d#4 v=0
487498 On ch=4 n=a4 v=0
487498 On ch=4 n=c5 v=0
487498 On ch=4 n=a4 v=86
487498 On ch=4 n=c5 v=86
487498 On ch=4 n=e4 v=86
488138 On ch=4 n=e4 v=0
488138 On ch=4 n=c5 v=0
488138 On ch=4 n=a4 v=0
488138 On ch=4 n=c5 v=83
488138 On ch=4 n=a4 v=83
488138 On ch=4 n=e4 v=83
488774 On ch=4 n=e4 v=0
488774 On ch=4 n=a4 v=0
488774 On ch=4 n=c5 v=0
488774 On ch=4 n=c5 v=86
488774 On ch=4 n=a4 v=86
488774 On ch=4 n=f4 v=86
489432 On ch=4 n=f4 v=0
489432 On ch=4 n=a4 v=0
489432 On ch=4 n=a4 v=83
489432 On ch=4 n=f4 v=83
490102 On ch=4 n=f4 v=0
490102 On ch=4 n=a4 v=0
490102 On ch=4 n=c5 v=0
490102 On ch=4 n=c5 v=88
490102 On ch=4 n=a4 v=88
490102 On ch=4 n=f#4 v=88
490746 On ch=4 n=f#4 v=0
490746 On ch=4 n=a4 v=0
490746 On ch=4 n=c5 v=0
490746 On ch=4 n=c5 v=83
490746 On ch=4 n=a4 v=83
490746 On ch=4 n=f#4 v=83
491408 On ch=4 n=f#4 v=0
491408 On ch=4 n=a4 v=0
491408 On ch=4 n=c5 v=0
491408 On ch=4 n=a#4 v=86
491408 On ch=4 n=g4 v=86
492040 On ch=4 n=g4 v=0
492040 On ch=4 n=a#4 v=0
492040 On ch=4 n=a#4 v=83
492040 On ch=4 n=g4 v=83
492664 On ch=4 n=g4 v=0
492664 On ch=4 n=a#4 v=0
492664 On ch=4 n=a4 v=83
492664 On ch=4 n=g4 v=83
493322 On ch=4 n=g4 v=0
493322 On ch=4 n=a4 v=0
493322 On ch=4 n=a4 v=83
493322 On ch=4 n=g4 v=83
493984 On ch=4 n=g4 v=0
493984 On ch=4 n=a4 v=0
493984 On ch=4 n=a4 v=83
493984 On ch=4 n=f#4 v=83
494644 On ch=4 n=f#4 v=0
494644 On ch=4 n=a4 v=0
494644 On ch=4 n=a4 v=83
494644 On ch=4 n=f#4 v=83
495274 On ch=4 n=f#4 v=0
495274 On ch=4 n=a4 v=0
495274 Meta TrkEnd
TrkEnd
