MFile 1 6 480
MTrk
0 Tempo 240000
0 TimeSig 3/4 24 8
0 KeySig -4 minor
0 Meta InstrName "Piano"
0 Meta TrkEnd
TrkEnd
MTrk
0 SeqSpec 43 00 01 00
0 Meta TrkName "1 Melodie main droite"
0 PrCh ch=1 p=0
0 Par ch=1 c=10 v=80
0 Par ch=1 c=7 v=110
0 On ch=1 n=g#4 v=59
0 On ch=1 n=f4 v=59
2200 On ch=1 n=f4 v=0
2200 On ch=1 n=g#4 v=0
2200 On ch=1 n=g4 v=58
2200 On ch=1 n=e4 v=58
4372 On ch=1 n=e4 v=0
4372 On ch=1 n=g4 v=0
4372 On ch=1 n=g#4 v=56
4372 On ch=1 n=f4 v=56
6528 On ch=1 n=f4 v=0
6528 On ch=1 n=g#4 v=0
6528 On ch=1 n=a#4 v=55
6528 On ch=1 n=g4 v=55
6528 On ch=1 n=c#4 v=55
8802 On ch=1 n=c#4 v=0
8802 On ch=1 n=g4 v=0
8802 On ch=1 n=a#4 v=0
8802 On ch=1 n=c5 v=52
8802 On ch=1 n=g#4 v=52
8802 On ch=1 n=c4 v=52
12212 On ch=1 n=c4 v=0
12212 On ch=1 n=g#4 v=0
12212 On ch=1 n=c5 v=0
12212 On ch=1 n=a#4 v=55
12212 On ch=1 n=e4 v=55
13344 On ch=1 n=e4 v=0
13344 On ch=1 n=a#4 v=0
13344 On ch=1 n=g#4 v=56
13344 On ch=1 n=f4 v=56
15066 On ch=1 n=g#4 v=0
15066 On ch=1 n=g4 v=57
15590 On ch=1 n=g4 v=0
15590 On ch=1 n=f4 v=59
16718 On ch=1 n=f4 v=0
16718 On ch=1 n=g4 v=57
17874 On ch=1 n=g4 v=0
17874 On ch=1 n=f4 v=0
17874 On ch=1 n=g#4 v=55
17874 On ch=1 n=f4 v=55
19092 On ch=1 n=f4 v=0
19092 On ch=1 n=g#4 v=0
19092 On ch=1 n=g#4 v=48
19092 On ch=1 n=f4 v=48
20344 On ch=1 n=f4 v=0
20344 On ch=1 n=g#4 v=0
20344 On ch=1 n=g4 v=48
20344 On ch=1 n=e4 v=48
22686 On ch=1 n=e4 v=0
22686 On ch=1 n=g4 v=0
25032 On ch=1 n=c6 v=60
27196 On ch=1 n=c6 v=0
27196 On ch=1 n=c6 v=71
29282 On ch=1 n=c6 v=0
30356 On ch=1 n=c6 v=70
31424 On ch=1 n=c6 v=0
31424 On ch=1 n=g#6 v=72
31780 On ch=1 n=g#6 v=0
31780 On ch=1 n=f6 v=72
32044 On ch=1 n=f6 v=0
32044 On ch=1 n=c#6 v=77
32386 On ch=1 n=c#6 v=0
32386 On ch=1 n=c6 v=73
33468 On ch=1 n=c6 v=0
33468 On ch=1 n=f6 v=71
35620 On ch=1 n=f6 v=0
35620 On ch=1 n=d#6 v=73
37758 On ch=1 n=d#6 v=0
37758 On ch=1 n=c#6 v=73
39890 On ch=1 n=c#6 v=0
39890 On ch=1 n=c6 v=62
43096 On ch=1 n=c6 v=0
43096 On ch=1 n=a#5 v=65
44148 On ch=1 n=a#5 v=0
44148 On ch=1 n=g#5 v=69
46252 On ch=1 n=g#5 v=0
46252 On ch=1 n=g5 v=73
46754 On ch=1 n=g5 v=0
46754 On ch=1 n=g#5 v=77
47260 On ch=1 n=g#5 v=0
47260 On ch=1 n=g5 v=78
47748 On ch=1 n=g5 v=0
47748 On ch=1 n=g#5 v=81
48234 On ch=1 n=g#5 v=0
48234 On ch=1 n=a#5 v=84
49282 On ch=1 n=a#5 v=0
49282 On ch=1 n=g#5 v=73
49806 On ch=1 n=g#5 v=0
49806 On ch=1 n=g5 v=72
50350 On ch=1 n=g5 v=0
50350 On ch=1 n=f5 v=68
52506 On ch=1 n=f5 v=0
52506 On ch=1 n=g5 v=71
52524 Par ch=1 c=64 v=127
56734 Par ch=1 c=64 v=0
56744 On ch=1 n=g5 v=0
56744 On ch=1 n=a5 v=72
58812 On ch=1 n=a5 v=0
58812 On ch=1 n=c6 v=73
60942 On ch=1 n=c6 v=0
60942 On ch=1 n=a#5 v=68
64108 On ch=1 n=a#5 v=0
64108 On ch=1 n=g#5 v=70
65140 On ch=1 n=g#5 v=0
65156 Par ch=1 c=64 v=127
65356 On ch=1 n=g#5 v=69
66114 On ch=1 n=g#5 v=0
66114 On ch=1 n=g#5 v=81
66594 On ch=1 n=g#5 v=0
66594 On ch=1 n=g#5 v=75
67090 On ch=1 n=g#5 v=0
67090 On ch=1 n=g5 v=79
69188 Par ch=1 c=64 v=0
69198 On ch=1 n=g5 v=0
69198 On ch=1 n=g#5 v=84
70704 On ch=1 n=g#5 v=0
70704 On ch=1 n=a5 v=87
71188 On ch=1 n=a5 v=0
71188 On ch=1 n=c6 v=91
71628 On ch=1 n=c6 v=0
71628 On ch=1 n=a#5 v=91
72106 On ch=1 n=a#5 v=0
72106 On ch=1 n=f6 v=91
72600 On ch=1 n=f6 v=0
72600 On ch=1 n=c#6 v=82
73124 On ch=1 n=c#6 v=0
73124 On ch=1 n=a#5 v=74
76164 On ch=1 n=a#5 v=0
76164 On ch=1 n=g#5 v=81
77174 On ch=1 n=g#5 v=0
77174 On ch=1 n=g#5 v=78
77190 Par ch=1 c=64 v=127
77296 On ch=1 n=g#5 v=0
77296 On ch=1 n=f#5 v=78
77420 On ch=1 n=f#5 v=0
77420 On ch=1 n=g#5 v=78
77542 On ch=1 n=g#5 v=0
77542 On ch=1 n=f#5 v=78
77664 On ch=1 n=f#5 v=0
77664 On ch=1 n=g#5 v=82
77786 On ch=1 n=g#5 v=0
77786 On ch=1 n=f#5 v=82
77908 On ch=1 n=f#5 v=0
77908 On ch=1 n=g#5 v=82
78030 On ch=1 n=g#5 v=0
78030 On ch=1 n=f#5 v=82
78134 On ch=1 n=f#5 v=0
78134 On ch=1 n=g#5 v=91
78252 On ch=1 n=g#5 v=0
78252 On ch=1 n=f#5 v=91
78370 On ch=1 n=f#5 v=0
78370 On ch=1 n=g#5 v=91
78488 On ch=1 n=g#5 v=0
78488 On ch=1 n=f#5 v=91
78578 On ch=1 n=f#5 v=0
78578 On ch=1 n=g#5 v=91
78800 On ch=1 n=g#5 v=0
78800 On ch=1 n=f#5 v=91
79092 On ch=1 n=f#5 v=0
79092 On ch=1 n=f5 v=93
79348 On ch=1 n=f5 v=0
79348 On ch=1 n=f#5 v=93
79552 On ch=1 n=f#5 v=0
79552 On ch=1 n=g#5 v=102
79784 On ch=1 n=g#5 v=0
79784 On ch=1 n=a#5 v=102
80014 On ch=1 n=a#5 v=0
80014 On ch=1 n=b5 v=116
80246 On ch=1 n=b5 v=0
80246 On ch=1 n=c#6 v=116
80502 On ch=1 n=c#6 v=0
80502 On ch=1 n=d#6 v=111
80744 On ch=1 n=d#6 v=0
80744 On ch=1 n=f6 v=111
81030 On ch=1 n=f6 v=0
81030 On ch=1 n=f#6 v=120
82602 On ch=1 n=f#6 v=0
82602 On ch=1 n=f6 v=91
83088 Par ch=1 c=64 v=0
83114 On ch=1 n=f6 v=0
83114 On ch=1 n=f6 v=91
83130 Par ch=1 c=64 v=127
85182 On ch=1 n=f6 v=0
85588 On ch=1 n=d#6 v=91
87782 On ch=1 n=d#6 v=0
87782 On ch=1 n=f6 v=73
88288 On ch=1 n=f6 v=0
88288 On ch=1 n=d#6 v=75
88774 On ch=1 n=d#6 v=0
88774 On ch=1 n=f6 v=81
89242 Par ch=1 c=64 v=0
89294 On ch=1 n=f6 v=0
89294 On ch=1 n=g6 v=77
89312 Par ch=1 c=64 v=127
92380 Par ch=1 c=64 v=0
93426 On ch=1 n=g6 v=0
93426 On ch=1 n=a#5 v=71
93922 On ch=1 n=a#5 v=0
93922 On ch=1 n=c6 v=79
94406 On ch=1 n=c6 v=0
94406 On ch=1 n=a#5 v=81
94914 On ch=1 n=a#5 v=0
94914 On ch=1 n=c6 v=78
95418 On ch=1 n=c6 v=0
95418 On ch=1 n=c#6 v=75
95434 Par ch=1 c=64 v=127
98546 Par ch=1 c=64 v=0
99588 On ch=1 n=c#6 v=0
99588 On ch=1 n=c6 v=75
101058 On ch=1 n=c6 v=0
101058 On ch=1 n=g5 v=84
101522 On ch=1 n=g5 v=0
101538 Par ch=1 c=64 v=127
101716 On ch=1 n=a#5 v=87
103562 On ch=1 n=a#5 v=0
103562 On ch=1 n=g#5 v=74
104546 Par ch=1 c=64 v=0
104556 On ch=1 n=g#5 v=0
105560 On ch=1 n=f6 v=77
106026 On ch=1 n=f6 v=0
106026 On ch=1 n=g6 v=87
106510 On ch=1 n=g6 v=0
106510 On ch=1 n=f6 v=91
107002 On ch=1 n=f6 v=0
107002 On ch=1 n=g6 v=88
107470 On ch=1 n=g6 v=0
107470 On ch=1 n=g#6 v=82
107486 Par ch=1 c=64 v=127
110490 Par ch=1 c=64 v=0
110502 On ch=1 n=g#6 v=0
110502 On ch=1 n=c6 v=77
110982 On ch=1 n=c6 v=0
111438 On ch=1 n=f6 v=91
112398 On ch=1 n=f6 v=0
112398 On ch=1 n=c#6 v=84
113340 On ch=1 n=c#6 v=0
113340 On ch=1 n=c6 v=91
113356 Par ch=1 c=64 v=127
114784 On ch=1 n=c6 v=0
114784 On ch=1 n=b5 v=88
115226 On ch=1 n=b5 v=0
115226 On ch=1 n=g#7 v=91
116234 Par ch=1 c=64 v=0
117170 On ch=1 n=g#7 v=0
117170 On ch=1 n=f7 v=87
117648 On ch=1 n=f7 v=0
117648 On ch=1 n=g7 v=91
118118 On ch=1 n=g7 v=0
118118 On ch=1 n=f7 v=91
118586 On ch=1 n=f7 v=0
118586 On ch=1 n=g7 v=95
119074 On ch=1 n=g7 v=0
119074 On ch=1 n=g#7 v=96
119090 Par ch=1 c=64 v=127
119542 On ch=1 n=g#7 v=0
119542 On ch=1 n=d7 v=97
120020 On ch=1 n=d7 v=0
120020 On ch=1 n=f7 v=97
120490 On ch=1 n=f7 v=0
120490 On ch=1 n=b6 v=90
120972 On ch=1 n=b6 v=0
120972 On ch=1 n=d7 v=88
121452 On ch=1 n=d7 v=0
121452 On ch=1 n=g#6 v=84
121916 Par ch=1 c=64 v=0
121932 On ch=1 n=g#6 v=0
121932 On ch=1 n=b6 v=80
122420 On ch=1 n=b6 v=0
122420 On ch=1 n=f6 v=80
122914 On ch=1 n=f6 v=0
122914 On ch=1 n=g#6 v=72
123422 On ch=1 n=g#6 v=0
123422 On ch=1 n=d6 v=71
123928 On ch=1 n=d6 v=0
123928 On ch=1 n=f6 v=68
124438 On ch=1 n=f6 v=0
124438 On ch=1 n=b5 v=66
124974 On ch=1 n=b5 v=0
124974 On ch=1 n=c6 v=65
124992 Par ch=1 c=64 v=127
127032 On ch=1 n=c6 v=0
127994 Par ch=1 c=64 v=0
129046 Par ch=1 c=64 v=127
130052 On ch=1 n=e4 v=60
131066 Par ch=1 c=64 v=0
131094 On ch=1 n=e4 v=0
131112 Par ch=1 c=64 v=127
134144 Par ch=1 c=64 v=0
135182 Par ch=1 c=64 v=127
137154 Par ch=1 c=64 v=0
137186 On ch=1 n=c#5 v=83
137202 Par ch=1 c=64 v=127
137646 On ch=1 n=e5 v=83
138124 On ch=1 n=e5 v=0
138124 On ch=1 n=g5 v=83
138612 On ch=1 n=g5 v=0
138612 On ch=1 n=f5 v=83
139108 On ch=1 n=f5 v=0
139108 On ch=1 n=c#5 v=0
139108 On ch=1 n=e5 v=83
139108 On ch=1 n=c#5 v=83
140052 Par ch=1 c=64 v=0
140090 On ch=1 n=c#5 v=0
140090 On ch=1 n=c5 v=84
141082 On ch=1 n=c5 v=0
141082 On ch=1 n=e5 v=0
141082 On ch=1 n=f5 v=88
141082 On ch=1 n=c5 v=88
142068 On ch=1 n=c5 v=0
142068 On ch=1 n=g#4 v=83
143066 On ch=1 n=g#4 v=0
143066 On ch=1 n=f5 v=0
143066 On ch=1 n=c#5 v=59
143082 Par ch=1 c=64 v=127
143556 On ch=1 n=e5 v=60
144032 On ch=1 n=e5 v=0
144032 On ch=1 n=g5 v=60
144528 On ch=1 n=g5 v=0
144528 On ch=1 n=f5 v=64
145026 On ch=1 n=f5 v=0
145026 On ch=1 n=c#5 v=0
145026 On ch=1 n=e5 v=61
145026 On ch=1 n=c#5 v=61
146008 Par ch=1 c=64 v=0
146030 On ch=1 n=c#5 v=0
146030 On ch=1 n=c5 v=60
147056 On ch=1 n=e5 v=0
147056 On ch=1 n=f5 v=63
148048 On ch=1 n=c5 v=0
148048 On ch=1 n=g#4 v=64
149038 On ch=1 n=g#4 v=0
149038 On ch=1 n=f5 v=0
149038 On ch=1 n=f5 v=65
150478 On ch=1 n=f5 v=0
150478 On ch=1 n=e5 v=83
150710 On ch=1 n=e5 v=0
150710 On ch=1 n=f5 v=83
150936 On ch=1 n=f5 v=0
150936 On ch=1 n=g5 v=83
152438 On ch=1 n=g5 v=0
152438 On ch=1 n=g#5 v=83
152700 On ch=1 n=g#5 v=0
152700 On ch=1 n=g5 v=83
152888 On ch=1 n=g5 v=0
152888 On ch=1 n=f5 v=88
154928 On ch=1 n=f5 v=0
154928 On ch=1 n=e5 v=68
154944 Par ch=1 c=64 v=127
155414 On ch=1 n=e5 v=0
155656 On ch=1 n=c5 v=68
155908 On ch=1 n=c5 v=0
155908 On ch=1 n=c6 v=68
156406 On ch=1 n=c6 v=0
156654 On ch=1 n=c5 v=65
156902 On ch=1 n=c5 v=0
156902 On ch=1 n=g5 v=72
157890 Par ch=1 c=64 v=0
158374 On ch=1 n=g5 v=0
158374 On ch=1 n=g#5 v=83
158612 On ch=1 n=g#5 v=0
158612 On ch=1 n=g5 v=83
158852 On ch=1 n=g5 v=0
158852 On ch=1 n=f5 v=83
159958 On ch=1 n=f5 v=0
161054 On ch=1 n=g#4 v=70
161054 On ch=1 n=f4 v=70
163178 On ch=1 n=f4 v=0
163178 On ch=1 n=g#4 v=0
163178 On ch=1 n=g4 v=57
163178 On ch=1 n=e4 v=57
165298 On ch=1 n=e4 v=0
165298 On ch=1 n=g4 v=0
165298 On ch=1 n=g#4 v=61
165298 On ch=1 n=f4 v=61
167336 On ch=1 n=f4 v=0
167336 On ch=1 n=g#4 v=0
167336 On ch=1 n=a#4 v=60
167336 On ch=1 n=g4 v=60
167336 On ch=1 n=c#4 v=60
169428 On ch=1 n=c#4 v=0
169428 On ch=1 n=g4 v=0
169428 On ch=1 n=a#4 v=0
169428 On ch=1 n=c5 v=55
169428 On ch=1 n=g#4 v=55
169428 On ch=1 n=c4 v=55
172518 On ch=1 n=c4 v=0
172518 On ch=1 n=g#4 v=0
172518 On ch=1 n=c5 v=0
172518 On ch=1 n=a#4 v=56
172518 On ch=1 n=e4 v=56
173556 On ch=1 n=e4 v=0
173556 On ch=1 n=a#4 v=0
173556 On ch=1 n=g#4 v=58
173556 On ch=1 n=f4 v=58
175118 On ch=1 n=g#4 v=0
175118 On ch=1 n=g4 v=58
175602 On ch=1 n=g4 v=0
175602 On ch=1 n=f4 v=59
176668 On ch=1 n=f4 v=0
176668 On ch=1 n=g4 v=54
177748 On ch=1 n=g4 v=0
177748 On ch=1 n=f4 v=0
177748 On ch=1 n=g#4 v=56
177748 On ch=1 n=f4 v=56
178844 On ch=1 n=f4 v=0
178844 On ch=1 n=g#4 v=0
178844 On ch=1 n=g#4 v=53
178844 On ch=1 n=f4 v=53
179940 On ch=1 n=f4 v=0
179940 On ch=1 n=g#4 v=0
179940 On ch=1 n=g4 v=57
179940 On ch=1 n=e4 v=57
182054 On ch=1 n=e4 v=0
182054 On ch=1 n=g4 v=0
184114 On ch=1 n=c6 v=62
186146 On ch=1 n=c6 v=0
186146 On ch=1 n=c6 v=74
188114 On ch=1 n=c6 v=0
188114 On ch=1 n=d#6 v=83
188232 On ch=1 n=d#6 v=0
188232 On ch=1 n=c#6 v=83
188350 On ch=1 n=c#6 v=0
188350 On ch=1 n=d#6 v=83
188468 On ch=1 n=d#6 v=0
188468 On ch=1 n=c#6 v=83
188606 On ch=1 n=c#6 v=0
188606 On ch=1 n=d#6 v=81
188728 On ch=1 n=d#6 v=0
188728 On ch=1 n=c#6 v=81
188850 On ch=1 n=c#6 v=0
188850 On ch=1 n=d#6 v=81
188972 On ch=1 n=d#6 v=0
188972 On ch=1 n=c#6 v=81
189096 On ch=1 n=c#6 v=0
189096 On ch=1 n=c6 v=79
190070 On ch=1 n=c6 v=0
190070 On ch=1 n=g#6 v=75
190394 On ch=1 n=g#6 v=0
190394 On ch=1 n=f6 v=75
190738 On ch=1 n=f6 v=0
190738 On ch=1 n=c#6 v=73
191076 On ch=1 n=c#6 v=0
191076 On ch=1 n=c6 v=71
192062 On ch=1 n=c6 v=0
192062 On ch=1 n=f6 v=78
194102 On ch=1 n=f6 v=0
194102 On ch=1 n=d#6 v=68
196144 On ch=1 n=d#6 v=0
196144 On ch=1 n=c#6 v=68
198204 On ch=1 n=c#6 v=0
198204 On ch=1 n=c6 v=69
201334 On ch=1 n=c6 v=0
201334 On ch=1 n=a#5 v=61
202386 On ch=1 n=a#5 v=0
202386 On ch=1 n=g#5 v=60
204380 On ch=1 n=g#5 v=0
204380 On ch=1 n=g5 v=76
204842 On ch=1 n=g5 v=0
204842 On ch=1 n=g#5 v=86
205332 On ch=1 n=g#5 v=0
205332 On ch=1 n=g5 v=90
205782 On ch=1 n=g5 v=0
205782 On ch=1 n=g#5 v=90
206280 On ch=1 n=g#5 v=0
206280 On ch=1 n=a#5 v=90
207298 On ch=1 n=a#5 v=0
207298 On ch=1 n=g#5 v=79
207798 On ch=1 n=g#5 v=0
207798 On ch=1 n=g5 v=69
208294 On ch=1 n=g5 v=0
208294 On ch=1 n=f5 v=64
210316 On ch=1 n=f5 v=0
210316 On ch=1 n=g5 v=73
210332 Par ch=1 c=64 v=127
214206 Par ch=1 c=64 v=0
214236 On ch=1 n=g5 v=0
214236 On ch=1 n=a5 v=86
216180 On ch=1 n=a5 v=0
216180 On ch=1 n=c6 v=86
218234 On ch=1 n=c6 v=0
218234 On ch=1 n=a#5 v=66
221184 On ch=1 n=a#5 v=0
221184 On ch=1 n=g#5 v=75
222164 On ch=1 n=g#5 v=0
222180 Par ch=1 c=64 v=127
222362 On ch=1 n=g#5 v=83
223120 On ch=1 n=g#5 v=0
223120 On ch=1 n=g#5 v=81
223590 On ch=1 n=g#5 v=0
223590 On ch=1 n=g#5 v=83
224066 On ch=1 n=g#5 v=0
224066 On ch=1 n=g5 v=86
226048 Par ch=1 c=64 v=0
226058 On ch=1 n=g5 v=0
226058 On ch=1 n=g#5 v=86
227570 On ch=1 n=g#5 v=0
227570 On ch=1 n=a5 v=86
228026 On ch=1 n=a5 v=0
228026 On ch=1 n=c6 v=86
228486 On ch=1 n=c6 v=0
228486 On ch=1 n=a#5 v=86
228960 On ch=1 n=a#5 v=0
228960 On ch=1 n=f6 v=86
229462 On ch=1 n=f6 v=0
229462 On ch=1 n=c#6 v=86
229952 On ch=1 n=c#6 v=0
229952 On ch=1 n=a#5 v=71
232986 On ch=1 n=a#5 v=0
232986 On ch=1 n=g#5 v=71
233988 On ch=1 n=g#5 v=0
233988 On ch=1 n=g#5 v=77
234004 Par ch=1 c=64 v=127
234114 On ch=1 n=g#5 v=0
234114 On ch=1 n=f#5 v=77
234240 On ch=1 n=f#5 v=0
234240 On ch=1 n=g#5 v=77
234366 On ch=1 n=g#5 v=0
234366 On ch=1 n=f#5 v=77
234462 On ch=1 n=f#5 v=0
234462 On ch=1 n=g#5 v=79
234582 On ch=1 n=g#5 v=0
234582 On ch=1 n=f#5 v=79
234700 On ch=1 n=f#5 v=0
234700 On ch=1 n=g#5 v=79
234820 On ch=1 n=g#5 v=0
234820 On ch=1 n=f#5 v=79
234960 On ch=1 n=f#5 v=0
234960 On ch=1 n=g#5 v=78
235084 On ch=1 n=g#5 v=0
235084 On ch=1 n=f#5 v=78
235208 On ch=1 n=f#5 v=0
235208 On ch=1 n=g#5 v=78
235332 On ch=1 n=g#5 v=0
235332 On ch=1 n=f#5 v=78
235440 On ch=1 n=f#5 v=0
235440 On ch=1 n=g#5 v=90
235680 On ch=1 n=g#5 v=0
235680 On ch=1 n=f#5 v=90
235920 On ch=1 n=f#5 v=0
235920 On ch=1 n=f5 v=92
236160 On ch=1 n=f5 v=0
236160 On ch=1 n=f#5 v=92
236408 On ch=1 n=f#5 v=0
236408 On ch=1 n=g#5 v=93
236652 On ch=1 n=g#5 v=0
236652 On ch=1 n=a#5 v=93
236890 On ch=1 n=a#5 v=0
236890 On ch=1 n=b5 v=96
237130 On ch=1 n=b5 v=0
237130 On ch=1 n=c#6 v=96
237376 On ch=1 n=c#6 v=0
237376 On ch=1 n=d#6 v=96
237618 On ch=1 n=d#6 v=0
237618 On ch=1 n=f6 v=96
237894 On ch=1 n=f6 v=0
237894 On ch=1 n=f#6 v=97
239460 On ch=1 n=f#6 v=0
239460 On ch=1 n=f6 v=98
239964 Par ch=1 c=64 v=0
239974 On ch=1 n=f6 v=0
239974 On ch=1 n=f6 v=98
239990 Par ch=1 c=64 v=127
242008 On ch=1 n=f6 v=0
242422 On ch=1 n=d#6 v=92
244542 On ch=1 n=d#6 v=0
244542 On ch=1 n=f6 v=88
245016 On ch=1 n=f6 v=0
245016 On ch=1 n=d#6 v=81
245530 On ch=1 n=d#6 v=0
245530 On ch=1 n=f6 v=79
246024 Par ch=1 c=64 v=0
246040 On ch=1 n=f6 v=0
246040 On ch=1 n=g6 v=79
246056 Par ch=1 c=64 v=127
248986 Par ch=1 c=64 v=0
250024 On ch=1 n=g6 v=0
250024 On ch=1 n=a#5 v=92
250498 On ch=1 n=a#5 v=0
250498 On ch=1 n=c6 v=92
250988 On ch=1 n=c6 v=0
250988 On ch=1 n=a#5 v=92
251454 On ch=1 n=a#5 v=0
251454 On ch=1 n=c6 v=92
251956 On ch=1 n=c6 v=0
251956 On ch=1 n=c#6 v=92
251972 Par ch=1 c=64 v=127
255006 Par ch=1 c=64 v=0
256008 On ch=1 n=c#6 v=0
256008 On ch=1 n=c6 v=89
257546 On ch=1 n=c6 v=0
257546 On ch=1 n=g5 v=88
258032 On ch=1 n=g5 v=0
258048 Par ch=1 c=64 v=127
258234 On ch=1 n=a#5 v=82
260068 On ch=1 n=a#5 v=0
260068 On ch=1 n=g#5 v=85
261054 Par ch=1 c=64 v=0
261064 On ch=1 n=g#5 v=0
262060 On ch=1 n=f6 v=88
262504 On ch=1 n=f6 v=0
262504 On ch=1 n=g6 v=88
262964 On ch=1 n=g6 v=0
262964 On ch=1 n=f6 v=88
263468 On ch=1 n=f6 v=0
263468 On ch=1 n=g6 v=88
263928 On ch=1 n=g6 v=0
263928 On ch=1 n=g#6 v=88
263944 Par ch=1 c=64 v=127
266908 Par ch=1 c=64 v=0
266916 On ch=1 n=g#6 v=0
266916 On ch=1 n=c6 v=72
267402 On ch=1 n=c6 v=0
267884 On ch=1 n=f6 v=82
268832 On ch=1 n=f6 v=0
268832 On ch=1 n=c#6 v=80
269804 On ch=1 n=c#6 v=0
269804 On ch=1 n=c6 v=87
269820 Par ch=1 c=64 v=127
271228 On ch=1 n=c6 v=0
271228 On ch=1 n=b5 v=88
271732 On ch=1 n=b5 v=0
271732 On ch=1 n=g#7 v=88
272716 Par ch=1 c=64 v=0
273694 On ch=1 n=g#7 v=0
273694 On ch=1 n=f7 v=88
274144 On ch=1 n=f7 v=0
274144 On ch=1 n=g7 v=88
274606 On ch=1 n=g7 v=0
274606 On ch=1 n=f7 v=88
275116 On ch=1 n=f7 v=0
275116 On ch=1 n=g7 v=92
275572 On ch=1 n=g7 v=0
275572 On ch=1 n=g#7 v=95
275588 Par ch=1 c=64 v=127
276030 On ch=1 n=g#7 v=0
276030 On ch=1 n=d7 v=93
276506 On ch=1 n=d7 v=0
276506 On ch=1 n=f7 v=93
276980 On ch=1 n=f7 v=0
276980 On ch=1 n=b6 v=93
277452 On ch=1 n=b6 v=0
277452 On ch=1 n=d7 v=93
277914 On ch=1 n=d7 v=0
277914 On ch=1 n=g#6 v=93
278362 Par ch=1 c=64 v=0
278384 On ch=1 n=g#6 v=0
278384 On ch=1 n=b6 v=92
278870 On ch=1 n=b6 v=0
278870 On ch=1 n=f6 v=91
279354 On ch=1 n=f6 v=0
279354 On ch=1 n=g#6 v=84
279830 On ch=1 n=g#6 v=0
279830 On ch=1 n=d6 v=77
280300 On ch=1 n=d6 v=0
280300 On ch=1 n=f6 v=73
280804 On ch=1 n=f6 v=0
280804 On ch=1 n=b5 v=71
281308 On ch=1 n=b5 v=0
281308 On ch=1 n=c6 v=69
281324 Par ch=1 c=64 v=127
283302 On ch=1 n=c6 v=0
284260 Par ch=1 c=64 v=0
285314 Par ch=1 c=64 v=127
286312 On ch=1 n=e4 v=61
287298 Par ch=1 c=64 v=0
287314 On ch=1 n=e4 v=0
287330 Par ch=1 c=64 v=127
290310 Par ch=1 c=64 v=0
291340 Par ch=1 c=64 v=127
293260 Par ch=1 c=64 v=0
293300 On ch=1 n=c#5 v=81
293316 Par ch=1 c=64 v=127
293752 On ch=1 n=e5 v=81
294240 On ch=1 n=e5 v=0
294240 On ch=1 n=g5 v=81
294706 On ch=1 n=g5 v=0
294706 On ch=1 n=f5 v=81
295208 On ch=1 n=f5 v=0
295208 On ch=1 n=c#5 v=0
295208 On ch=1 n=e5 v=81
295208 On ch=1 n=c#5 v=81
296164 Par ch=1 c=64 v=0
296172 On ch=1 n=c#5 v=0
296172 On ch=1 n=c5 v=81
297134 On ch=1 n=c5 v=0
297134 On ch=1 n=e5 v=0
297134 On ch=1 n=f5 v=81
297134 On ch=1 n=c5 v=81
298136 On ch=1 n=c5 v=0
298136 On ch=1 n=g#4 v=64
299080 On ch=1 n=g#4 v=0
299080 On ch=1 n=f5 v=0
299080 On ch=1 n=c#5 v=61
299096 Par ch=1 c=64 v=127
299574 On ch=1 n=e5 v=56
300038 On ch=1 n=e5 v=0
300038 On ch=1 n=g5 v=64
300510 On ch=1 n=g5 v=0
300510 On ch=1 n=f5 v=66
300996 On ch=1 n=f5 v=0
300996 On ch=1 n=c#5 v=0
300996 On ch=1 n=e5 v=67
300996 On ch=1 n=c#5 v=67
301974 Par ch=1 c=64 v=0
301994 On ch=1 n=c#5 v=0
301994 On ch=1 n=c5 v=61
302992 On ch=1 n=e5 v=0
302992 On ch=1 n=f5 v=59
303966 On ch=1 n=c5 v=0
303966 On ch=1 n=g#4 v=56
304934 On ch=1 n=g#4 v=0
304934 On ch=1 n=f5 v=0
304934 On ch=1 n=f5 v=81
306388 On ch=1 n=f5 v=0
306388 On ch=1 n=e5 v=81
306632 On ch=1 n=e5 v=0
306632 On ch=1 n=f5 v=81
306886 On ch=1 n=f5 v=0
306886 On ch=1 n=g5 v=81
308322 On ch=1 n=g5 v=0
308322 On ch=1 n=g#5 v=85
308568 On ch=1 n=g#5 v=0
308568 On ch=1 n=g5 v=85
308790 On ch=1 n=g5 v=0
308790 On ch=1 n=f5 v=87
310814 On ch=1 n=f5 v=0
310814 On ch=1 n=e5 v=85
310830 Par ch=1 c=64 v=127
311298 On ch=1 n=e5 v=0
311540 On ch=1 n=c5 v=76
311800 On ch=1 n=c5 v=0
311800 On ch=1 n=c6 v=71
312310 On ch=1 n=c6 v=0
312564 On ch=1 n=c5 v=70
312832 On ch=1 n=c5 v=0
312832 On ch=1 n=g5 v=65
313822 Par ch=1 c=64 v=0
314310 On ch=1 n=g5 v=0
314310 On ch=1 n=g#5 v=71
314548 On ch=1 n=g#5 v=0
314548 On ch=1 n=g5 v=71
314810 On ch=1 n=g5 v=0
314810 On ch=1 n=f5 v=61
315750 On ch=1 n=f5 v=0
316724 Par ch=1 c=64 v=127
316910 On ch=1 n=d#6 v=95
320166 Par ch=1 c=64 v=0
320608 On ch=1 n=d#6 v=0
320826 On ch=1 n=e6 v=95
321026 On ch=1 n=e6 v=0
321026 On ch=1 n=f6 v=95
321460 On ch=1 n=f6 v=0
321678 On ch=1 n=d#6 v=95
321882 On ch=1 n=d#6 v=0
321882 On ch=1 n=d#6 v=95
321896 Par ch=1 c=64 v=127
323910 On ch=1 n=d#6 v=0
324132 On ch=1 n=d#6 v=95
324320 On ch=1 n=d#6 v=0
324320 On ch=1 n=f6 v=95
324748 On ch=1 n=f6 v=0
324962 On ch=1 n=g6 v=95
325154 Par ch=1 c=64 v=0
325162 On ch=1 n=g6 v=0
325162 On ch=1 n=g#6 v=95
325580 On ch=1 n=g#6 v=0
325788 On ch=1 n=a#6 v=95
325990 On ch=1 n=a#6 v=0
325990 On ch=1 n=b6 v=95
326396 On ch=1 n=b6 v=0
326598 On ch=1 n=c7 v=95
326786 On ch=1 n=c7 v=0
326786 On ch=1 n=c7 v=95
326798 Par ch=1 c=64 v=127
329866 Par ch=1 c=64 v=0
330286 On ch=1 n=c7 v=0
330484 On ch=1 n=c7 v=95
330642 On ch=1 n=c7 v=0
330642 On ch=1 n=c#7 v=95
331050 On ch=1 n=c#7 v=0
331252 On ch=1 n=c7 v=95
331420 On ch=1 n=c7 v=0
331420 On ch=1 n=c7 v=95
331432 Par ch=1 c=64 v=127
333296 On ch=1 n=c7 v=0
333492 On ch=1 n=b6 v=95
333664 On ch=1 n=b6 v=0
333664 On ch=1 n=a#6 v=91
334028 On ch=1 n=a#6 v=0
334210 On ch=1 n=g6 v=89
334378 Par ch=1 c=64 v=0
334386 On ch=1 n=g6 v=0
334386 On ch=1 n=a#6 v=87
334756 On ch=1 n=a#6 v=0
334940 On ch=1 n=g#6 v=89
335122 On ch=1 n=g#6 v=0
335122 On ch=1 n=g6 v=91
335494 On ch=1 n=g6 v=0
335680 On ch=1 n=g#6 v=92
335858 On ch=1 n=g#6 v=0
335858 On ch=1 n=g#6 v=95
335870 Par ch=1 c=64 v=127
338846 Par ch=1 c=64 v=0
339244 On ch=1 n=g#6 v=0
339434 On ch=1 n=a6 v=90
339612 On ch=1 n=a6 v=0
339612 On ch=1 n=a#6 v=91
339988 On ch=1 n=a#6 v=0
340176 On ch=1 n=g#6 v=95
340362 On ch=1 n=g#6 v=0
340362 On ch=1 n=g#6 v=96
340374 Par ch=1 c=64 v=127
342208 On ch=1 n=g#6 v=0
342388 On ch=1 n=a6 v=94
342568 On ch=1 n=a6 v=0
342568 On ch=1 n=a#6 v=94
342926 On ch=1 n=a#6 v=0
343106 On ch=1 n=c7 v=95
343274 Par ch=1 c=64 v=0
343296 On ch=1 n=c7 v=0
343296 On ch=1 n=c#7 v=98
343644 On ch=1 n=c#7 v=0
343820 On ch=1 n=d#7 v=100
343986 On ch=1 n=d#7 v=0
343986 On ch=1 n=e7 v=102
344342 On ch=1 n=e7 v=0
344520 On ch=1 n=f7 v=103
344734 On ch=1 n=f7 v=0
344734 On ch=1 n=f7 v=106
344746 Par ch=1 c=64 v=127
347650 Par ch=1 c=64 v=0
348054 On ch=1 n=f7 v=0
348246 On ch=1 n=f7 v=103
348410 On ch=1 n=f7 v=0
348410 On ch=1 n=f#7 v=103
348772 On ch=1 n=f#7 v=0
348952 On ch=1 n=f7 v=100
349144 On ch=1 n=f7 v=0
349144 On ch=1 n=f7 v=103
349156 Par ch=1 c=64 v=127
350930 On ch=1 n=f7 v=0
351126 On ch=1 n=e7 v=103
351296 On ch=1 n=e7 v=0
351296 On ch=1 n=d#7 v=102
351652 On ch=1 n=d#7 v=0
351832 On ch=1 n=c7 v=102
352000 Par ch=1 c=64 v=0
352046 On ch=1 n=c7 v=0
352046 On ch=1 n=d#7 v=101
352434 On ch=1 n=d#7 v=0
352628 On ch=1 n=d7 v=99
352784 On ch=1 n=d7 v=0
352784 On ch=1 n=c7 v=98
353154 On ch=1 n=c7 v=0
353338 On ch=1 n=d7 v=98
353510 On ch=1 n=d7 v=0
353510 On ch=1 n=d7 v=98
353522 Par ch=1 c=64 v=127
353866 On ch=1 n=d7 v=0
353866 On ch=1 n=c7 v=98
354244 On ch=1 n=c7 v=0
354244 On ch=1 n=b6 v=98
354616 On ch=1 n=b6 v=0
354616 On ch=1 n=d6 v=98
354980 On ch=1 n=d6 v=0
355346 On ch=1 n=a#6 v=95
355720 On ch=1 n=a#6 v=0
355720 On ch=1 n=b6 v=95
356092 On ch=1 n=b6 v=0
356092 On ch=1 n=d7 v=95
356450 Par ch=1 c=64 v=0
356470 On ch=1 n=d7 v=0
356470 On ch=1 n=b6 v=95
356482 Par ch=1 c=64 v=127
356834 On ch=1 n=b6 v=0
356834 On ch=1 n=a#6 v=95
357196 On ch=1 n=a#6 v=0
357196 On ch=1 n=a6 v=95
357570 On ch=1 n=a6 v=0
357570 On ch=1 n=a#6 v=95
357930 Par ch=1 c=64 v=0
357938 On ch=1 n=a#6 v=0
357938 On ch=1 n=a#6 v=95
357950 Par ch=1 c=64 v=127
358306 On ch=1 n=a#6 v=0
358306 On ch=1 n=a6 v=95
358676 On ch=1 n=a6 v=0
358676 On ch=1 n=g#6 v=95
359032 On ch=1 n=g#6 v=0
359032 On ch=1 n=c#6 v=95
359402 On ch=1 n=c#6 v=0
359776 On ch=1 n=g6 v=95
360146 On ch=1 n=g6 v=0
360146 On ch=1 n=g#6 v=95
360524 On ch=1 n=g#6 v=0
360524 On ch=1 n=a#6 v=95
360888 Par ch=1 c=64 v=0
360902 On ch=1 n=a#6 v=0
360902 On ch=1 n=g#6 v=95
360914 Par ch=1 c=64 v=127
361270 On ch=1 n=g#6 v=0
361270 On ch=1 n=f#6 v=95
361638 On ch=1 n=f#6 v=0
361638 On ch=1 n=f6 v=95
362014 On ch=1 n=f6 v=0
362014 On ch=1 n=f#6 v=95
362376 Par ch=1 c=64 v=0
362392 On ch=1 n=f#6 v=0
362392 On ch=1 n=a#6 v=97
362404 Par ch=1 c=64 v=127
362756 On ch=1 n=a#6 v=0
362756 On ch=1 n=a6 v=98
363124 On ch=1 n=a6 v=0
363124 On ch=1 n=g#6 v=99
363496 On ch=1 n=g#6 v=0
363496 On ch=1 n=a#5 v=99
363868 On ch=1 n=a#5 v=0
364244 On ch=1 n=g6 v=100
364630 On ch=1 n=g6 v=0
364630 On ch=1 n=g#6 v=100
365000 On ch=1 n=g#6 v=0
365000 On ch=1 n=a#6 v=100
365356 Par ch=1 c=64 v=0
365372 On ch=1 n=a#6 v=0
365372 On ch=1 n=g#6 v=100
365384 Par ch=1 c=64 v=127
365720 On ch=1 n=g#6 v=0
365720 On ch=1 n=f#6 v=100
366104 On ch=1 n=f#6 v=0
366104 On ch=1 n=f6 v=100
366510 On ch=1 n=f6 v=0
366510 On ch=1 n=d#6 v=100
366902 Par ch=1 c=64 v=0
366928 On ch=1 n=d#6 v=0
366928 On ch=1 n=d6 v=100
366942 Par ch=1 c=64 v=127
367328 On ch=1 n=d6 v=0
367328 On ch=1 n=d#6 v=100
367730 On ch=1 n=d#6 v=0
367730 On ch=1 n=d6 v=100
368130 On ch=1 n=d6 v=0
368130 On ch=1 n=d#6 v=100
368498 On ch=1 n=d#6 v=0
368498 On ch=1 n=d6 v=100
368682 On ch=1 n=d6 v=0
368682 On ch=1 n=d#6 v=100
368846 On ch=1 n=d#6 v=0
368846 On ch=1 n=f6 v=100
370934 On ch=1 n=f6 v=0
370934 On ch=1 n=c6 v=100
371734 Par ch=1 c=64 v=0
371742 On ch=1 n=c6 v=0
371754 Par ch=1 c=64 v=127
372148 On ch=1 n=a#5 v=98
372570 On ch=1 n=a#5 v=0
372570 On ch=1 n=c7 v=100
372570 On ch=1 n=g#6 v=100
372990 On ch=1 n=c7 v=0
372990 On ch=1 n=a#6 v=94
373380 On ch=1 n=a#6 v=0
373380 On ch=1 n=g#6 v=0
373794 On ch=1 n=a#5 v=98
374208 On ch=1 n=a#5 v=0
374208 On ch=1 n=c7 v=100
374208 On ch=1 n=g#6 v=100
374634 On ch=1 n=c7 v=0
374634 On ch=1 n=a#6 v=100
375066 On ch=1 n=a#6 v=0
375066 On ch=1 n=g#6 v=0
375066 On ch=1 n=a#6 v=94
375066 On ch=1 n=c6 v=94
375468 On ch=1 n=c6 v=0
375468 On ch=1 n=a#6 v=0
375468 On ch=1 n=a#6 v=100
375468 On ch=1 n=c#6 v=100
375878 On ch=1 n=c#6 v=0
375878 On ch=1 n=a#6 v=0
375878 On ch=1 n=a#6 v=94
375878 On ch=1 n=d6 v=94
376276 On ch=1 n=d6 v=0
376276 On ch=1 n=a#6 v=0
376276 On ch=1 n=a#6 v=97
376276 On ch=1 n=f6 v=97
376660 Par ch=1 c=64 v=0
376682 On ch=1 n=f6 v=0
376682 On ch=1 n=a#6 v=0
376682 On ch=1 n=f#6 v=94
376682 On ch=1 n=d#6 v=94
376696 Par ch=1 c=64 v=127
377060 On ch=1 n=d#6 v=0
377060 On ch=1 n=f#6 v=0
377060 On ch=1 n=g6 v=100
377454 On ch=1 n=f7 v=98
377454 On ch=1 n=a#6 v=98
377876 On ch=1 n=a#6 v=0
377876 On ch=1 n=f7 v=0
377876 On ch=1 n=g6 v=0
377876 On ch=1 n=d#7 v=92
378272 Par ch=1 c=64 v=0
378280 On ch=1 n=d#7 v=0
378280 On ch=1 n=f#6 v=89
378652 On ch=1 n=f#6 v=0
378652 On ch=1 n=g6 v=100
379070 On ch=1 n=g6 v=0
379070 On ch=1 n=c7 v=97
379070 On ch=1 n=g#6 v=97
379504 On ch=1 n=g#6 v=0
379504 On ch=1 n=c7 v=0
379504 On ch=1 n=a#6 v=100
379504 On ch=1 n=g6 v=100
379904 On ch=1 n=g6 v=0
379904 On ch=1 n=a#6 v=0
379904 On ch=1 n=a6 v=99
379904 On ch=1 n=f#6 v=99
380288 On ch=1 n=f#6 v=0
380288 On ch=1 n=a6 v=0
380288 On ch=1 n=g#6 v=100
380288 On ch=1 n=f6 v=100
380676 On ch=1 n=f6 v=0
380676 On ch=1 n=g#6 v=0
380676 On ch=1 n=g6 v=100
380676 On ch=1 n=e6 v=100
381080 On ch=1 n=e6 v=0
381080 On ch=1 n=g6 v=0
381080 On ch=1 n=f#6 v=100
381080 On ch=1 n=d#6 v=100
381490 On ch=1 n=d#6 v=0
381490 On ch=1 n=f#6 v=0
381504 Par ch=1 c=64 v=127
381884 On ch=1 n=d6 v=100
382284 On ch=1 n=d6 v=0
382284 On ch=1 n=c7 v=100
382284 On ch=1 n=g#6 v=100
382694 On ch=1 n=c7 v=0
382694 On ch=1 n=a#6 v=100
383072 Par ch=1 c=64 v=0
383080 On ch=1 n=a#6 v=0
383080 On ch=1 n=g#6 v=0
383092 Par ch=1 c=64 v=127
383494 On ch=1 n=c6 v=100
383910 On ch=1 n=c6 v=0
383910 On ch=1 n=c7 v=100
383910 On ch=1 n=g#6 v=100
384304 On ch=1 n=c7 v=0
384304 On ch=1 n=a#6 v=101
384684 Par ch=1 c=64 v=0
384726 On ch=1 n=a#6 v=0
384726 On ch=1 n=g#6 v=0
384740 Par ch=1 c=64 v=127
385128 On ch=1 n=a#5 v=108
385534 On ch=1 n=a#5 v=0
385534 On ch=1 n=c7 v=109
385534 On ch=1 n=g#6 v=109
385940 On ch=1 n=c7 v=0
385940 On ch=1 n=a#6 v=111
386332 Par ch=1 c=64 v=0
386342 On ch=1 n=a#6 v=0
386342 On ch=1 n=g#6 v=0
386342 On ch=1 n=g6 v=111
386342 On ch=1 n=d#6 v=111
386356 Par ch=1 c=64 v=127
387202 On ch=1 n=d#6 v=0
387202 On ch=1 n=g6 v=0
387202 On ch=1 n=d#4 v=111
387506 On ch=1 n=d#4 v=0
387506 On ch=1 n=d#4 v=111
387618 On ch=1 n=d#4 v=0
387618 On ch=1 n=d#4 v=111
387906 On ch=1 n=d#4 v=0
387906 On ch=1 n=d#4 v=116
388762 On ch=1 n=d#4 v=0
388762 On ch=1 n=a#3 v=115
389504 Par ch=1 c=64 v=0
389586 On ch=1 n=a#3 v=0
389586 On ch=1 n=d#3 v=127
391210 On ch=1 n=d#3 v=0
391210 On ch=1 n=d3 v=117
391222 Par ch=1 c=64 v=127
392042 On ch=1 n=d3 v=0
392042 On ch=1 n=d4 v=105
392828 On ch=1 n=d4 v=0
392828 On ch=1 n=d5 v=105
396030 Par ch=1 c=64 v=0
396086 On ch=1 n=d5 v=0
396086 On ch=1 n=d#5 v=105
396100 Par ch=1 c=64 v=127
396874 On ch=1 n=d#5 v=0
396874 On ch=1 n=d#6 v=105
397678 On ch=1 n=d#6 v=0
397678 On ch=1 n=d#7 v=109
400942 Par ch=1 c=64 v=0
400960 On ch=1 n=d#7 v=0
400960 On ch=1 n=d#8 v=105
400974 Par ch=1 c=64 v=127
401796 On ch=1 n=d#8 v=0
401796 On ch=1 n=d#6 v=105
402616 On ch=1 n=d#6 v=0
402616 On ch=1 n=d#6 v=105
405892 Par ch=1 c=64 v=0
405906 On ch=1 n=d#6 v=0
405906 On ch=1 n=e6 v=97
405920 Par ch=1 c=64 v=127
406722 On ch=1 n=e6 v=0
406722 On ch=1 n=c5 v=95
407550 On ch=1 n=c5 v=0
407550 On ch=1 n=c3 v=95
410892 Par ch=1 c=64 v=0
410920 Par ch=1 c=64 v=127
411734 On ch=1 n=c3 v=0
411734 On ch=1 n=c5 v=90
412578 On ch=1 n=c5 v=0
412578 On ch=1 n=c6 v=89
416038 Par ch=1 c=64 v=0
416066 Par ch=1 c=64 v=127
416956 On ch=1 n=c6 v=0
416956 On ch=1 n=c7 v=82
417866 On ch=1 n=c7 v=0
417866 On ch=1 n=c8 v=84
421496 Par ch=1 c=64 v=0
422444 On ch=1 n=c8 v=0
422444 On ch=1 n=c7 v=78
423390 On ch=1 n=c7 v=0
423390 On ch=1 n=c6 v=82
431044 On ch=1 n=c5 v=71
434170 On ch=1 n=c5 v=0
434170 On ch=1 n=c6 v=0
434170 On ch=1 n=c6 v=90
436016 On ch=1 n=c6 v=0
436016 On ch=1 n=d#6 v=87
436128 On ch=1 n=d#6 v=0
436128 On ch=1 n=c#6 v=87
436242 On ch=1 n=c#6 v=0
436242 On ch=1 n=d#6 v=87
436354 On ch=1 n=d#6 v=0
436354 On ch=1 n=c#6 v=87
436470 On ch=1 n=c#6 v=0
436470 On ch=1 n=d#6 v=84
436584 On ch=1 n=d#6 v=0
436584 On ch=1 n=c#6 v=84
436698 On ch=1 n=c#6 v=0
436698 On ch=1 n=d#6 v=84
436812 On ch=1 n=d#6 v=0
436812 On ch=1 n=c#6 v=84
436930 On ch=1 n=c#6 v=0
436930 On ch=1 n=c6 v=86
437836 On ch=1 n=c6 v=0
437836 On ch=1 n=g#6 v=87
438128 On ch=1 n=g#6 v=0
438128 On ch=1 n=f6 v=87
438420 On ch=1 n=f6 v=0
438420 On ch=1 n=c#6 v=82
438734 On ch=1 n=c#6 v=0
438734 On ch=1 n=c6 v=80
439678 On ch=1 n=c6 v=0
439678 On ch=1 n=f6 v=84
441584 On ch=1 n=f6 v=0
441584 On ch=1 n=d#6 v=76
443454 On ch=1 n=d#6 v=0
443454 On ch=1 n=c#6 v=76
445346 On ch=1 n=c#6 v=0
445346 On ch=1 n=c6 v=74
448144 On ch=1 n=c6 v=0
448144 On ch=1 n=a#5 v=76
449062 On ch=1 n=a#5 v=0
449062 On ch=1 n=g#5 v=81
450876 On ch=1 n=g#5 v=0
450876 On ch=1 n=g5 v=90
451302 On ch=1 n=g5 v=0
451302 On ch=1 n=g#5 v=90
451720 On ch=1 n=g#5 v=0
451720 On ch=1 n=g5 v=90
452150 On ch=1 n=g5 v=0
452150 On ch=1 n=g#5 v=90
452592 On ch=1 n=g#5 v=0
452592 On ch=1 n=a#5 v=90
453526 On ch=1 n=a#5 v=0
453526 On ch=1 n=g#5 v=90
453964 On ch=1 n=g#5 v=0
453964 On ch=1 n=g5 v=90
454408 On ch=1 n=g5 v=0
454408 On ch=1 n=f5 v=90
456190 On ch=1 n=f5 v=0
456190 On ch=1 n=g5 v=90
456206 Par ch=1 c=64 v=127
459752 Par ch=1 c=64 v=0
459780 On ch=1 n=g5 v=0
459780 On ch=1 n=a5 v=90
461582 On ch=1 n=a5 v=0
461582 On ch=1 n=c6 v=90
463400 On ch=1 n=c6 v=0
463400 On ch=1 n=a#5 v=80
466096 On ch=1 n=a#5 v=0
466096 On ch=1 n=g#5 v=88
467012 On ch=1 n=g#5 v=0
467028 Par ch=1 c=64 v=127
467200 On ch=1 n=g#5 v=91
467850 On ch=1 n=g#5 v=0
467850 On ch=1 n=g#5 v=91
468270 On ch=1 n=g#5 v=0
468270 On ch=1 n=g#5 v=91
468706 On ch=1 n=g#5 v=0
468706 On ch=1 n=g5 v=91
470544 Par ch=1 c=64 v=0
470552 On ch=1 n=g5 v=0
470552 On ch=1 n=g#5 v=89
471872 On ch=1 n=g#5 v=0
471872 On ch=1 n=a5 v=92
472276 On ch=1 n=a5 v=0
472276 On ch=1 n=c6 v=91
472686 On ch=1 n=c6 v=0
472686 On ch=1 n=a#5 v=91
473096 On ch=1 n=a#5 v=0
473096 On ch=1 n=f6 v=91
473538 On ch=1 n=f6 v=0
473538 On ch=1 n=c#6 v=91
473992 On ch=1 n=c#6 v=0
473992 On ch=1 n=a#5 v=91
476718 On ch=1 n=a#5 v=0
476718 On ch=1 n=g#5 v=91
477620 On ch=1 n=g#5 v=0
477620 On ch=1 n=g#5 v=91
477634 Par ch=1 c=64 v=127
477730 On ch=1 n=g#5 v=0
477730 On ch=1 n=f#5 v=91
477840 On ch=1 n=f#5 v=0
477840 On ch=1 n=g#5 v=91
477948 On ch=1 n=g#5 v=0
477948 On ch=1 n=f#5 v=91
478050 On ch=1 n=f#5 v=0
478050 On ch=1 n=g#5 v=91
478158 On ch=1 n=g#5 v=0
478158 On ch=1 n=f#5 v=91
478266 On ch=1 n=f#5 v=0
478266 On ch=1 n=g#5 v=91
478372 On ch=1 n=g#5 v=0
478372 On ch=1 n=f#5 v=91
478504 On ch=1 n=f#5 v=0
478504 On ch=1 n=g#5 v=93
478618 On ch=1 n=g#5 v=0
478618 On ch=1 n=f#5 v=93
478732 On ch=1 n=f#5 v=0
478732 On ch=1 n=g#5 v=93
478846 On ch=1 n=g#5 v=0
478846 On ch=1 n=f#5 v=93
478950 On ch=1 n=f#5 v=0
478950 On ch=1 n=g#5 v=95
479174 On ch=1 n=g#5 v=0
479174 On ch=1 n=f#5 v=95
479392 On ch=1 n=f#5 v=0
479392 On ch=1 n=f5 v=99
479614 On ch=1 n=f5 v=0
479614 On ch=1 n=f#5 v=99
479822 On ch=1 n=f#5 v=0
479822 On ch=1 n=g#5 v=103
480038 On ch=1 n=g#5 v=0
480038 On ch=1 n=a#5 v=103
480240 On ch=1 n=a#5 v=0
480240 On ch=1 n=b5 v=108
480448 On ch=1 n=b5 v=0
480448 On ch=1 n=c#6 v=108
480672 On ch=1 n=c#6 v=0
480672 On ch=1 n=d#6 v=113
480888 On ch=1 n=d#6 v=0
480888 On ch=1 n=f6 v=113
481136 On ch=1 n=f6 v=0
481136 On ch=1 n=f#6 v=119
482538 On ch=1 n=f#6 v=0
482538 On ch=1 n=f6 v=120
483000 Par ch=1 c=64 v=0
483008 On ch=1 n=f6 v=0
483008 On ch=1 n=f6 v=115
483024 Par ch=1 c=64 v=127
484780 On ch=1 n=f6 v=0
485102 On ch=1 n=d#6 v=96
487054 On ch=1 n=d#6 v=0
487054 On ch=1 n=f6 v=96
487474 On ch=1 n=f6 v=0
487474 On ch=1 n=d#6 v=96
487890 On ch=1 n=d#6 v=0
487890 On ch=1 n=f6 v=96
488292 Par ch=1 c=64 v=0
488326 On ch=1 n=f6 v=0
488326 On ch=1 n=g6 v=98
488340 Par ch=1 c=64 v=127
490980 Par ch=1 c=64 v=0
491884 On ch=1 n=g6 v=0
491884 On ch=1 n=a#5 v=83
492302 On ch=1 n=a#5 v=0
492302 On ch=1 n=c6 v=87
492720 On ch=1 n=c6 v=0
492720 On ch=1 n=a#5 v=89
493164 On ch=1 n=a#5 v=0
493164 On ch=1 n=c6 v=82
493614 On ch=1 n=c6 v=0
493614 On ch=1 n=c#6 v=80
493630 Par ch=1 c=64 v=127
496314 Par ch=1 c=64 v=0
497254 On ch=1 n=c#6 v=0
497254 On ch=1 n=c6 v=88
498488 On ch=1 n=c6 v=0
498488 On ch=1 n=g5 v=88
498892 On ch=1 n=g5 v=0
498906 Par ch=1 c=64 v=127
499060 On ch=1 n=a#5 v=88
500644 On ch=1 n=a#5 v=0
500644 On ch=1 n=g#5 v=72
501518 Par ch=1 c=64 v=0
501526 On ch=1 n=g#5 v=0
502414 On ch=1 n=f6 v=77
502824 On ch=1 n=f6 v=0
502824 On ch=1 n=g6 v=88
503270 On ch=1 n=g6 v=0
503270 On ch=1 n=f6 v=88
503664 On ch=1 n=f6 v=0
503664 On ch=1 n=g6 v=88
504084 On ch=1 n=g6 v=0
504084 On ch=1 n=g#6 v=88
504098 Par ch=1 c=64 v=127
506772 Par ch=1 c=64 v=0
506780 On ch=1 n=g#6 v=0
506780 On ch=1 n=c6 v=71
507210 On ch=1 n=c6 v=0
507614 On ch=1 n=f6 v=88
508470 On ch=1 n=f6 v=0
508470 On ch=1 n=c#6 v=88
509324 On ch=1 n=c#6 v=0
509324 On ch=1 n=c6 v=88
509340 Par ch=1 c=64 v=127
510628 On ch=1 n=c6 v=0
510628 On ch=1 n=b5 v=88
511068 On ch=1 n=b5 v=0
511068 On ch=1 n=g#7 v=103
511980 Par ch=1 c=64 v=0
512856 On ch=1 n=g#7 v=0
512856 On ch=1 n=f7 v=105
513270 On ch=1 n=f7 v=0
513270 On ch=1 n=g7 v=107
513678 On ch=1 n=g7 v=0
513678 On ch=1 n=f7 v=115
514104 On ch=1 n=f7 v=0
514104 On ch=1 n=g7 v=118
514524 On ch=1 n=g7 v=0
514524 On ch=1 n=g#7 v=122
514538 Par ch=1 c=64 v=127
514946 On ch=1 n=g#7 v=0
514946 On ch=1 n=d7 v=107
515352 On ch=1 n=d7 v=0
515352 On ch=1 n=f7 v=103
515762 On ch=1 n=f7 v=0
515762 On ch=1 n=b6 v=98
516182 On ch=1 n=b6 v=0
516182 On ch=1 n=d7 v=98
516610 On ch=1 n=d7 v=0
516610 On ch=1 n=g#6 v=98
517022 Par ch=1 c=64 v=0
517030 On ch=1 n=g#6 v=0
517030 On ch=1 n=b6 v=98
517450 On ch=1 n=b6 v=0
517450 On ch=1 n=f6 v=98
517888 On ch=1 n=f6 v=0
517888 On ch=1 n=g#6 v=98
518302 On ch=1 n=g#6 v=0
518302 On ch=1 n=d6 v=98
518730 On ch=1 n=d6 v=0
518730 On ch=1 n=f6 v=97
519158 On ch=1 n=f6 v=0
519158 On ch=1 n=b5 v=95
519628 On ch=1 n=b5 v=0
519628 On ch=1 n=c6 v=91
519644 Par ch=1 c=64 v=127
521422 On ch=1 n=c6 v=0
522260 Par ch=1 c=64 v=0
523172 Par ch=1 c=64 v=127
524072 On ch=1 n=e4 v=82
524986 Par ch=1 c=64 v=0
525000 On ch=1 n=e4 v=0
525016 Par ch=1 c=64 v=127
527752 Par ch=1 c=64 v=0
528676 Par ch=1 c=64 v=127
530456 Par ch=1 c=64 v=0
530464 On ch=1 n=c#5 v=95
530478 Par ch=1 c=64 v=127
530880 On ch=1 n=e5 v=95
531322 On ch=1 n=e5 v=0
531322 On ch=1 n=g5 v=95
531758 On ch=1 n=g5 v=0
531758 On ch=1 n=f5 v=95
532220 On ch=1 n=f5 v=0
532220 On ch=1 n=c#5 v=0
532220 On ch=1 n=e5 v=95
532220 On ch=1 n=c#5 v=95
533090 Par ch=1 c=64 v=0
533098 On ch=1 n=c#5 v=0
533098 On ch=1 n=c5 v=95
533964 On ch=1 n=c5 v=0
533964 On ch=1 n=e5 v=0
533964 On ch=1 n=f5 v=95
533964 On ch=1 n=c5 v=95
534846 On ch=1 n=c5 v=0
534846 On ch=1 n=g#4 v=84
535756 On ch=1 n=g#4 v=0
535756 On ch=1 n=f5 v=0
535756 On ch=1 n=c#5 v=70
535772 Par ch=1 c=64 v=127
536196 On ch=1 n=e5 v=68
536632 On ch=1 n=e5 v=0
536632 On ch=1 n=g5 v=71
537084 On ch=1 n=g5 v=0
537084 On ch=1 n=f5 v=72
537538 On ch=1 n=f5 v=0
537538 On ch=1 n=c#5 v=0
537538 On ch=1 n=e5 v=74
537538 On ch=1 n=c#5 v=74
538432 Par ch=1 c=64 v=0
538462 On ch=1 n=c#5 v=0
538462 On ch=1 n=c5 v=71
539384 On ch=1 n=e5 v=0
539384 On ch=1 n=f5 v=74
540288 On ch=1 n=c5 v=0
540288 On ch=1 n=g#4 v=74
541200 On ch=1 n=g#4 v=0
541200 On ch=1 n=f5 v=0
541200 On ch=1 n=f5 v=76
542524 On ch=1 n=f5 v=0
542524 On ch=1 n=e5 v=88
542744 On ch=1 n=e5 v=0
542744 On ch=1 n=f5 v=88
542970 On ch=1 n=f5 v=0
542970 On ch=1 n=g5 v=87
544366 On ch=1 n=g5 v=0
544366 On ch=1 n=g#5 v=81
544594 On ch=1 n=g#5 v=0
544594 On ch=1 n=g5 v=81
544826 On ch=1 n=g5 v=0
544826 On ch=1 n=f5 v=81
546662 On ch=1 n=f5 v=0
546662 On ch=1 n=e5 v=86
546676 Par ch=1 c=64 v=127
547104 On ch=1 n=e5 v=0
547326 On ch=1 n=c5 v=84
547580 On ch=1 n=c5 v=0
547580 On ch=1 n=c6 v=77
548082 On ch=1 n=c6 v=0
548332 On ch=1 n=c5 v=71
548570 On ch=1 n=c5 v=0
548570 On ch=1 n=g5 v=75
549548 Par ch=1 c=64 v=0
550078 On ch=1 n=g5 v=0
550078 On ch=1 n=g#5 v=74
550334 On ch=1 n=g#5 v=0
550334 On ch=1 n=g5 v=74
550644 On ch=1 n=g5 v=0
550644 On ch=1 n=f5 v=65
551742 On ch=1 n=f5 v=0
551742 On ch=1 n=d#5 v=65
552892 On ch=1 n=d#5 v=0
552892 On ch=1 n=d#6 v=55
552912 Par ch=1 c=64 v=127
554964 On ch=1 n=d#6 v=0
554964 On ch=1 n=d#5 v=74
555968 On ch=1 n=d#5 v=0
555968 On ch=1 n=c#6 v=71
556910 Par ch=1 c=64 v=0
556918 On ch=1 n=c#6 v=0
557114 On ch=1 n=c6 v=69
557890 On ch=1 n=c6 v=0
557890 On ch=1 n=a#5 v=70
558866 On ch=1 n=a#5 v=0
558882 Par ch=1 c=64 v=127
558988 On ch=1 n=g#5 v=69
559370 On ch=1 n=g#5 v=0
559370 On ch=1 n=g5 v=67
559846 On ch=1 n=g5 v=0
559846 On ch=1 n=g#5 v=67
560320 On ch=1 n=g#5 v=0
560320 On ch=1 n=a#5 v=72
560790 On ch=1 n=a#5 v=0
560790 On ch=1 n=g#5 v=66
561732 On ch=1 n=g#5 v=0
561732 On ch=1 n=d#5 v=71
562680 On ch=1 n=d#5 v=0
562680 On ch=1 n=g#5 v=71
563614 On ch=1 n=g#5 v=0
563614 On ch=1 n=c6 v=70
564552 Par ch=1 c=64 v=0
564588 On ch=1 n=c6 v=0
564604 Par ch=1 c=64 v=127
564836 On ch=1 n=f6 v=67
566582 On ch=1 n=f6 v=0
566582 On ch=1 n=d#6 v=67
568528 On ch=1 n=d#6 v=0
568528 On ch=1 n=d6 v=64
570464 Par ch=1 c=64 v=0
570474 On ch=1 n=d6 v=0
570490 Par ch=1 c=64 v=127
570594 On ch=1 n=d#6 v=64
571220 On ch=1 n=d#6 v=0
571220 On ch=1 n=c6 v=66
571458 On ch=1 n=c6 v=0
571458 On ch=1 n=d#6 v=69
572138 On ch=1 n=d#6 v=0
572138 On ch=1 n=f6 v=74
572398 On ch=1 n=f6 v=0
572398 On ch=1 n=d#6 v=71
573312 Par ch=1 c=64 v=0
573320 On ch=1 n=g5 v=72
574258 On ch=1 n=g5 v=0
574258 On ch=1 n=d#6 v=0
574258 On ch=1 n=d#6 v=72
574258 On ch=1 n=g#5 v=72
575232 On ch=1 n=g#5 v=0
575232 On ch=1 n=d#6 v=0
575232 On ch=1 n=c6 v=72
575232 On ch=1 n=a#5 v=72
576200 On ch=1 n=a#5 v=0
576200 On ch=1 n=c6 v=0
576216 Par ch=1 c=64 v=127
576440 On ch=1 n=c6 v=75
576440 On ch=1 n=d#6 v=75
576638 On ch=1 n=c6 v=0
576638 On ch=1 n=d#5 v=78
577064 On ch=1 n=d#5 v=0
577064 On ch=1 n=f5 v=84
577498 On ch=1 n=f5 v=0
577498 On ch=1 n=g5 v=81
577952 On ch=1 n=g5 v=0
577952 On ch=1 n=g#5 v=87
578380 On ch=1 n=g#5 v=0
578380 On ch=1 n=a#5 v=87
578810 On ch=1 n=a#5 v=0
578810 On ch=1 n=b5 v=86
579252 On ch=1 n=b5 v=0
579252 On ch=1 n=c6 v=76
579680 Par ch=1 c=64 v=0
579718 On ch=1 n=c6 v=0
579718 On ch=1 n=d#6 v=0
579718 On ch=1 n=c#6 v=78
579718 On ch=1 n=a#5 v=78
580164 On ch=1 n=a#5 v=0
580164 On ch=1 n=f#5 v=76
580632 On ch=1 n=f#5 v=0
580632 On ch=1 n=c#6 v=0
580632 On ch=1 n=a#5 v=74
580632 On ch=1 n=g5 v=74
581096 On ch=1 n=a#5 v=0
581096 On ch=1 n=a#5 v=75
581554 On ch=1 n=a#5 v=0
581554 On ch=1 n=g5 v=0
581860 On ch=1 n=e5 v=79
582160 On ch=1 n=e5 v=0
582160 On ch=1 n=f5 v=78
582452 On ch=1 n=f5 v=0
582452 On ch=1 n=g5 v=79
582748 On ch=1 n=g5 v=0
582748 On ch=1 n=g#5 v=79
583060 On ch=1 n=g#5 v=0
583060 On ch=1 n=a#5 v=75
583396 On ch=1 n=a#5 v=0
583396 On ch=1 n=b5 v=72
587148 On ch=1 n=b5 v=0
587148 On ch=1 n=c6 v=71
587876 On ch=1 n=c6 v=0
587876 On ch=1 n=c#6 v=67
588098 On ch=1 n=c#6 v=0
588098 On ch=1 n=c#6 v=70
588806 On ch=1 n=c#6 v=0
588806 On ch=1 n=c6 v=71
589036 On ch=1 n=c6 v=0
589036 On ch=1 n=c6 v=67
589736 On ch=1 n=c6 v=0
589736 On ch=1 n=a#5 v=72
589970 On ch=1 n=a#5 v=0
589970 On ch=1 n=a#5 v=69
590682 On ch=1 n=a#5 v=0
590682 On ch=1 n=g#5 v=69
590938 On ch=1 n=g#5 v=0
590938 On ch=1 n=g#5 v=67
591682 On ch=1 n=g#5 v=0
591682 On ch=1 n=g5 v=69
591926 On ch=1 n=g5 v=0
591926 On ch=1 n=g5 v=66
592660 On ch=1 n=g5 v=0
592660 On ch=1 n=f5 v=66
592942 On ch=1 n=f5 v=0
592942 On ch=1 n=f5 v=61
593700 On ch=1 n=f5 v=0
593700 On ch=1 n=e5 v=64
593948 On ch=1 n=e5 v=0
593948 On ch=1 n=d#5 v=61
594730 On ch=1 n=d#5 v=0
594730 On ch=1 n=g5 v=63
594998 On ch=1 n=g5 v=0
594998 On ch=1 n=a#5 v=57
597024 On ch=1 n=a#5 v=0
597280 On ch=1 n=g#5 v=63
598008 On ch=1 n=g#5 v=0
598008 On ch=1 n=d#5 v=69
598992 On ch=1 n=d#5 v=0
598992 On ch=1 n=d#6 v=79
599008 Par ch=1 c=64 v=127
601012 On ch=1 n=d#6 v=0
601012 On ch=1 n=d#5 v=66
601992 On ch=1 n=d#5 v=0
601992 On ch=1 n=c#6 v=70
602938 Par ch=1 c=64 v=0
602950 On ch=1 n=c#6 v=0
603150 On ch=1 n=c6 v=72
603918 On ch=1 n=c6 v=0
603918 On ch=1 n=a#5 v=72
604854 On ch=1 n=a#5 v=0
604870 Par ch=1 c=64 v=127
604972 On ch=1 n=g#5 v=74
605316 On ch=1 n=g#5 v=0
605316 On ch=1 n=g5 v=75
605760 On ch=1 n=g5 v=0
605760 On ch=1 n=g#5 v=75
606214 On ch=1 n=g#5 v=0
606214 On ch=1 n=a#5 v=75
606684 On ch=1 n=a#5 v=0
606684 On ch=1 n=g#5 v=75
607608 On ch=1 n=g#5 v=0
607608 On ch=1 n=d#5 v=74
608546 On ch=1 n=d#5 v=0
608546 On ch=1 n=g#5 v=78
609446 On ch=1 n=g#5 v=0
609446 On ch=1 n=c6 v=74
610356 Par ch=1 c=64 v=0
610364 On ch=1 n=c6 v=0
610380 Par ch=1 c=64 v=127
610590 On ch=1 n=f6 v=83
612272 On ch=1 n=f6 v=0
612272 On ch=1 n=d#6 v=76
614142 On ch=1 n=d#6 v=0
614142 On ch=1 n=d6 v=74
615982 Par ch=1 c=64 v=0
615990 On ch=1 n=d6 v=0
616006 Par ch=1 c=64 v=127
616104 On ch=1 n=d#6 v=81
616678 On ch=1 n=d#6 v=0
616678 On ch=1 n=c6 v=81
616894 On ch=1 n=c6 v=0
616894 On ch=1 n=d#6 v=84
617590 On ch=1 n=d#6 v=0
617590 On ch=1 n=f6 v=87
617810 On ch=1 n=f6 v=0
617810 On ch=1 n=d#6 v=87
618748 Par ch=1 c=64 v=0
618758 On ch=1 n=g5 v=81
619690 On ch=1 n=g5 v=0
619690 On ch=1 n=d#6 v=0
619690 On ch=1 n=d#6 v=79
619690 On ch=1 n=g#5 v=79
620608 On ch=1 n=g#5 v=0
620608 On ch=1 n=d#6 v=0
620608 On ch=1 n=c6 v=78
620608 On ch=1 n=a#5 v=78
621522 On ch=1 n=a#5 v=0
621522 On ch=1 n=c6 v=0
621538 Par ch=1 c=64 v=127
621750 On ch=1 n=c6 v=87
621750 On ch=1 n=d#6 v=87
621974 On ch=1 n=c6 v=0
621974 On ch=1 n=d#5 v=84
622440 On ch=1 n=d#5 v=0
622440 On ch=1 n=f5 v=86
622910 On ch=1 n=f5 v=0
622910 On ch=1 n=g5 v=87
623370 On ch=1 n=g5 v=0
623370 On ch=1 n=g#5 v=87
623838 On ch=1 n=g#5 v=0
623838 On ch=1 n=a#5 v=87
624284 On ch=1 n=a#5 v=0
624284 On ch=1 n=b5 v=83
624740 On ch=1 n=b5 v=0
624740 On ch=1 n=c6 v=82
625180 Par ch=1 c=64 v=0
625188 On ch=1 n=c6 v=0
625188 On ch=1 n=d#6 v=0
625188 On ch=1 n=c#6 v=81
625188 On ch=1 n=a#5 v=81
625660 On ch=1 n=a#5 v=0
625660 On ch=1 n=f#5 v=79
626156 On ch=1 n=f#5 v=0
626156 On ch=1 n=c#6 v=0
626156 On ch=1 n=a#5 v=72
626156 On ch=1 n=g5 v=72
626628 On ch=1 n=a#5 v=0
626628 On ch=1 n=a#5 v=74
627094 On ch=1 n=a#5 v=0
627094 On ch=1 n=g5 v=0
627406 On ch=1 n=e5 v=71
627710 On ch=1 n=e5 v=0
627710 On ch=1 n=f5 v=71
628022 On ch=1 n=f5 v=0
628022 On ch=1 n=g5 v=70
628334 On ch=1 n=g5 v=0
628334 On ch=1 n=g#5 v=70
628674 On ch=1 n=g#5 v=0
628674 On ch=1 n=a#5 v=70
629020 On ch=1 n=a#5 v=0
629020 On ch=1 n=b5 v=64
632972 On ch=1 n=b5 v=0
632972 On ch=1 n=c6 v=66
633712 On ch=1 n=c6 v=0
633712 On ch=1 n=c#6 v=67
633948 On ch=1 n=c#6 v=0
633948 On ch=1 n=c#6 v=61
634658 On ch=1 n=c#6 v=0
634658 On ch=1 n=c6 v=57
634910 On ch=1 n=c6 v=0
634910 On ch=1 n=c6 v=54
635638 On ch=1 n=c6 v=0
635638 On ch=1 n=a#5 v=55
635864 On ch=1 n=a#5 v=0
635864 On ch=1 n=a#5 v=62
636578 On ch=1 n=a#5 v=0
636578 On ch=1 n=g#5 v=55
636828 On ch=1 n=g#5 v=0
636828 On ch=1 n=g#5 v=70
637586 On ch=1 n=g#5 v=0
637586 On ch=1 n=g5 v=61
637840 On ch=1 n=g5 v=0
637840 On ch=1 n=g5 v=64
638604 On ch=1 n=g5 v=0
638604 On ch=1 n=f5 v=66
638838 On ch=1 n=f5 v=67
639590 On ch=1 n=f5 v=0
639590 On ch=1 n=e5 v=70
639856 On ch=1 n=e5 v=0
639856 On ch=1 n=d#5 v=64
640618 On ch=1 n=d#5 v=0
640618 On ch=1 n=g5 v=66
640860 On ch=1 n=g5 v=0
640860 On ch=1 n=a#5 v=69
642866 On ch=1 n=a#5 v=0
643106 On ch=1 n=g#5 v=69
643348 On ch=1 n=g#5 v=0
643348 On ch=1 n=c6 v=65
643820 On ch=1 n=c6 v=0
643820 On ch=1 n=c#6 v=70
644282 On ch=1 n=c#6 v=0
644282 On ch=1 n=d6 v=76
644754 On ch=1 n=d6 v=0
644754 On ch=1 n=d#6 v=84
646126 On ch=1 n=d#6 v=0
646126 On ch=1 n=d6 v=95
646554 On ch=1 n=d6 v=0
646554 On ch=1 n=d#6 v=95
646840 On ch=1 n=d#6 v=0
646840 On ch=1 n=b5 v=95
647092 On ch=1 n=b5 v=0
647092 On ch=1 n=a5 v=96
647392 On ch=1 n=a5 v=0
647392 On ch=1 n=a#5 v=98
647682 On ch=1 n=a#5 v=0
647682 On ch=1 n=d6 v=98
647970 On ch=1 n=d6 v=0
647970 On ch=1 n=d#6 v=99
648316 On ch=1 n=d#6 v=0
648316 On ch=1 n=f6 v=104
649718 On ch=1 n=f6 v=0
649718 On ch=1 n=c6 v=106
650174 On ch=1 n=c6 v=0
650174 On ch=1 n=d#6 v=110
650190 Par ch=1 c=64 v=127
652018 On ch=1 n=d#6 v=0
652018 On ch=1 n=f6 v=108
652242 On ch=1 n=f6 v=0
652242 On ch=1 n=d#6 v=108
652474 On ch=1 n=d#6 v=0
652474 On ch=1 n=c#6 v=109
652924 On ch=1 n=c#6 v=0
652924 On ch=1 n=d#6 v=111
653150 On ch=1 n=d#6 v=0
653150 On ch=1 n=c#6 v=111
653376 On ch=1 n=c#6 v=0
653376 On ch=1 n=c6 v=112
653602 On ch=1 n=c6 v=0
653602 On ch=1 n=c#6 v=112
653814 Par ch=1 c=64 v=0
653874 On ch=1 n=c#6 v=0
653874 On ch=1 n=c#6 v=117
654122 On ch=1 n=c#6 v=0
654122 On ch=1 n=c#7 v=117
655274 On ch=1 n=c#7 v=0
655274 On ch=1 n=c#7 v=120
655728 On ch=1 n=c#7 v=0
655728 On ch=1 n=c#7 v=122
655744 Par ch=1 c=64 v=127
656172 On ch=1 n=c#7 v=0
656172 On ch=1 n=a#6 v=123
656612 On ch=1 n=a#6 v=0
656612 On ch=1 n=f#6 v=122
657058 On ch=1 n=f#6 v=0
657058 On ch=1 n=g6 v=121
657530 On ch=1 n=g6 v=0
657530 On ch=1 n=c#7 v=123
657974 On ch=1 n=c#7 v=0
657974 On ch=1 n=a#6 v=122
658408 On ch=1 n=a#6 v=0
658408 On ch=1 n=g#6 v=120
658860 On ch=1 n=g#6 v=0
658860 On ch=1 n=f6 v=116
659344 On ch=1 n=f6 v=0
659344 On ch=1 n=d6 v=113
659664 On ch=1 n=d6 v=0
659664 On ch=1 n=d#6 v=113
659938 On ch=1 n=d#6 v=0
659938 On ch=1 n=f6 v=112
660234 On ch=1 n=f6 v=0
660234 On ch=1 n=g5 v=112
660532 On ch=1 n=g5 v=0
660532 On ch=1 n=a#5 v=112
660856 On ch=1 n=a#5 v=0
660856 On ch=1 n=d#6 v=112
661152 Par ch=1 c=64 v=0
661172 On ch=1 n=d#6 v=0
661188 Par ch=1 c=64 v=127
664908 Par ch=1 c=64 v=0
666846 On ch=1 n=c6 v=98
666862 Par ch=1 c=64 v=127
667360 On ch=1 n=c6 v=0
667360 On ch=1 n=e5 v=94
667872 On ch=1 n=e5 v=0
667872 On ch=1 n=d#5 v=96
668368 On ch=1 n=a#5 v=96
668846 Par ch=1 c=64 v=0
668888 On ch=1 n=a#5 v=0
668888 On ch=1 n=d#5 v=0
668888 On ch=1 n=g#5 v=93
668888 On ch=1 n=d#5 v=93
668906 Par ch=1 c=64 v=127
669376 On ch=1 n=d#5 v=0
669376 On ch=1 n=g#5 v=0
669376 On ch=1 n=d5 v=102
669828 On ch=1 n=d5 v=0
669828 On ch=1 n=d#5 v=112
670276 On ch=1 n=g#5 v=105
670742 On ch=1 n=g#5 v=0
670742 On ch=1 n=d#5 v=0
670742 On ch=1 n=f6 v=108
670742 On ch=1 n=g#5 v=108
672184 Par ch=1 c=64 v=0
672208 On ch=1 n=g#5 v=0
672208 On ch=1 n=f6 v=0
672208 On ch=1 n=d#6 v=98
672208 On ch=1 n=c6 v=98
672682 On ch=1 n=c6 v=0
672682 On ch=1 n=d#6 v=0
672682 On ch=1 n=d#6 v=95
672698 Par ch=1 c=64 v=127
672802 On ch=1 n=g6 v=95
673164 On ch=1 n=g6 v=0
673164 On ch=1 n=d#6 v=0
673164 On ch=1 n=f6 v=95
673164 On ch=1 n=c#6 v=95
673640 On ch=1 n=c#6 v=0
673640 On ch=1 n=f6 v=0
673640 On ch=1 n=d#6 v=95
673640 On ch=1 n=c6 v=95
674124 On ch=1 n=c6 v=0
674124 On ch=1 n=d#6 v=0
674124 On ch=1 n=c#6 v=96
674124 On ch=1 n=a#5 v=96
674588 Par ch=1 c=64 v=0
674598 On ch=1 n=a#5 v=0
674598 On ch=1 n=c#6 v=0
674598 On ch=1 n=c6 v=94
674598 On ch=1 n=g#5 v=94
675062 On ch=1 n=g#5 v=0
675062 On ch=1 n=c6 v=0
675062 On ch=1 n=c#6 v=96
675062 On ch=1 n=a#5 v=96
675520 On ch=1 n=a#5 v=0
675520 On ch=1 n=c#6 v=0
675520 On ch=1 n=d6 v=96
675520 On ch=1 n=b5 v=96
675976 On ch=1 n=b5 v=0
675976 On ch=1 n=d6 v=0
675976 On ch=1 n=d#6 v=96
675976 On ch=1 n=c6 v=96
676426 On ch=1 n=c6 v=0
676426 On ch=1 n=d#6 v=0
676426 On ch=1 n=f6 v=96
676426 On ch=1 n=c#6 v=96
676890 On ch=1 n=c#6 v=0
676890 On ch=1 n=f6 v=0
676890 On ch=1 n=d#6 v=97
676890 On ch=1 n=c6 v=97
677358 On ch=1 n=c6 v=0
677358 On ch=1 n=d#6 v=0
677358 On ch=1 n=b6 v=96
677358 On ch=1 n=d6 v=96
677826 On ch=1 n=d6 v=0
677826 On ch=1 n=b6 v=0
677826 On ch=1 n=c7 v=97
677826 On ch=1 n=d#6 v=97
678304 On ch=1 n=d#6 v=0
678304 On ch=1 n=c7 v=0
678304 On ch=1 n=c7 v=98
678304 On ch=1 n=c#6 v=98
678768 On ch=1 n=c#6 v=0
678768 On ch=1 n=c7 v=0
678768 On ch=1 n=e6 v=100
679228 On ch=1 n=e6 v=0
679228 On ch=1 n=d#6 v=99
679694 On ch=1 n=a#6 v=95
680180 On ch=1 n=a#6 v=0
680180 On ch=1 n=d#6 v=0
680180 On ch=1 n=g#6 v=92
680640 On ch=1 n=g#6 v=0
680640 On ch=1 n=d6 v=95
681112 On ch=1 n=d6 v=0
681112 On ch=1 n=d#6 v=90
682044 On ch=1 n=d#6 v=0
682044 On ch=1 n=g#7 v=91
682504 On ch=1 n=g#7 v=0
682504 On ch=1 n=f7 v=95
682504 On ch=1 n=c7 v=95
682958 On ch=1 n=c7 v=0
682958 On ch=1 n=c#7 v=98
683402 On ch=1 n=c#7 v=0
683402 On ch=1 n=b6 v=96
683836 On ch=1 n=b6 v=0
683836 On ch=1 n=f7 v=0
683836 On ch=1 n=g7 v=100
683944 On ch=1 n=d#7 v=100
684282 On ch=1 n=d#7 v=0
684282 On ch=1 n=g7 v=0
684506 On ch=1 n=f7 v=107
684506 On ch=1 n=c#7 v=107
684740 On ch=1 n=c#7 v=0
684740 On ch=1 n=f7 v=0
684740 On ch=1 n=d#7 v=98
684740 On ch=1 n=c7 v=98
685186 On ch=1 n=c7 v=0
685186 On ch=1 n=d#7 v=0
685186 On ch=1 n=c#7 v=101
685186 On ch=1 n=a#6 v=101
685646 On ch=1 n=a#6 v=0
685646 On ch=1 n=c#7 v=0
685646 On ch=1 n=c7 v=97
685646 On ch=1 n=g#6 v=97
686096 On ch=1 n=g#6 v=0
686096 On ch=1 n=c7 v=0
686096 On ch=1 n=c#7 v=96
686096 On ch=1 n=a#6 v=96
686538 On ch=1 n=a#6 v=0
686538 On ch=1 n=c#7 v=0
686538 On ch=1 n=c7 v=94
686538 On ch=1 n=g#6 v=94
686970 On ch=1 n=g#6 v=0
686970 On ch=1 n=c7 v=0
686970 On ch=1 n=c#7 v=94
686970 On ch=1 n=a#6 v=94
687400 On ch=1 n=a#6 v=0
687400 On ch=1 n=c#7 v=0
687400 On ch=1 n=d7 v=93
687400 On ch=1 n=b6 v=93
687838 On ch=1 n=b6 v=0
687838 On ch=1 n=d7 v=0
687838 On ch=1 n=d#7 v=90
687838 On ch=1 n=c7 v=90
688264 On ch=1 n=c7 v=0
688264 On ch=1 n=d#7 v=0
688264 On ch=1 n=f7 v=90
688264 On ch=1 n=d7 v=90
688700 On ch=1 n=d7 v=0
688700 On ch=1 n=f7 v=0
688700 On ch=1 n=g7 v=87
688700 On ch=1 n=d#7 v=87
689140 On ch=1 n=d#7 v=0
689140 On ch=1 n=g7 v=0
689140 On ch=1 n=g7 v=86
689140 On ch=1 n=d#7 v=86
689612 On ch=1 n=d#7 v=0
689612 On ch=1 n=g7 v=0
689612 On ch=1 n=f7 v=82
689612 On ch=1 n=d7 v=82
690070 On ch=1 n=d7 v=0
690070 On ch=1 n=f7 v=0
690070 On ch=1 n=d#7 v=82
690070 On ch=1 n=c7 v=82
690556 On ch=1 n=c7 v=0
690556 On ch=1 n=d#7 v=0
690556 On ch=1 n=d7 v=79
690556 On ch=1 n=a#6 v=79
691016 On ch=1 n=a#6 v=0
691016 On ch=1 n=d7 v=0
691016 On ch=1 n=c7 v=79
691016 On ch=1 n=g#6 v=79
691470 On ch=1 n=g#6 v=0
691470 On ch=1 n=c7 v=0
691470 On ch=1 n=a#6 v=84
691470 On ch=1 n=g6 v=84
691924 On ch=1 n=g6 v=0
691924 On ch=1 n=a#6 v=0
691924 On ch=1 n=g#6 v=84
691924 On ch=1 n=f6 v=84
692368 On ch=1 n=f6 v=0
692368 On ch=1 n=g#6 v=0
692368 On ch=1 n=g6 v=89
692368 On ch=1 n=d#6 v=89
692818 On ch=1 n=d#6 v=0
692818 On ch=1 n=g6 v=0
692818 On ch=1 n=f6 v=86
692818 On ch=1 n=d6 v=86
693282 On ch=1 n=d6 v=0
693282 On ch=1 n=f6 v=0
693282 On ch=1 n=d#6 v=82
693282 On ch=1 n=c6 v=82
693760 On ch=1 n=c6 v=0
693760 On ch=1 n=d#6 v=0
693760 On ch=1 n=d6 v=84
693760 On ch=1 n=a#5 v=84
694238 On ch=1 n=a#5 v=0
694238 On ch=1 n=d6 v=0
694238 On ch=1 n=c6 v=79
694238 On ch=1 n=g#5 v=79
694732 On ch=1 n=g#5 v=0
694732 On ch=1 n=c6 v=0
694732 On ch=1 n=a#5 v=75
694732 On ch=1 n=g5 v=75
695230 On ch=1 n=a#5 v=0
695230 On ch=1 n=c6 v=78
695726 On ch=1 n=g5 v=0
695726 On ch=1 n=g#5 v=80
696236 On ch=1 n=c6 v=0
696236 On ch=1 n=e6 v=79
696744 On ch=1 n=e6 v=0
696744 On ch=1 n=g#5 v=0
696744 On ch=1 n=f6 v=75
696744 On ch=1 n=g5 v=75
697268 On ch=1 n=f6 v=0
697268 On ch=1 n=e6 v=79
697818 On ch=1 n=e6 v=0
697818 On ch=1 n=c#6 v=73
698370 On ch=1 n=c#6 v=0
698370 On ch=1 n=a#5 v=75
698918 On ch=1 n=a#5 v=0
698918 On ch=1 n=g5 v=0
698918 On ch=1 n=g5 v=68
699506 On ch=1 n=g5 v=0
699506 On ch=1 n=e5 v=71
700124 On ch=1 n=e5 v=0
700432 On ch=1 n=f5 v=70
700792 On ch=1 n=f5 v=0
700792 On ch=1 n=e5 v=68
701542 On ch=1 n=e5 v=0
701542 On ch=1 n=d#6 v=68
701566 Par ch=1 c=64 v=127
703802 On ch=1 n=d#6 v=0
703802 On ch=1 n=d#5 v=66
704822 On ch=1 n=d#5 v=0
704822 On ch=1 n=c#6 v=66
705816 Par ch=1 c=64 v=0
705826 On ch=1 n=c#6 v=0
706028 On ch=1 n=c6 v=69
706804 On ch=1 n=c6 v=0
706804 On ch=1 n=a#5 v=68
707858 On ch=1 n=a#5 v=0
707876 Par ch=1 c=64 v=127
707988 On ch=1 n=g#5 v=66
708366 On ch=1 n=g#5 v=0
708366 On ch=1 n=g5 v=69
708820 On ch=1 n=g5 v=0
708820 On ch=1 n=g#5 v=70
709314 On ch=1 n=g#5 v=0
709314 On ch=1 n=a#5 v=74
709776 On ch=1 n=a#5 v=0
709776 On ch=1 n=g#5 v=82
710756 On ch=1 n=g#5 v=0
710756 On ch=1 n=d#5 v=79
711686 On ch=1 n=d#5 v=0
711686 On ch=1 n=g#5 v=86
712586 On ch=1 n=g#5 v=0
712586 On ch=1 n=c6 v=82
713494 Par ch=1 c=64 v=0
713502 On ch=1 n=c6 v=0
713518 Par ch=1 c=64 v=127
713724 On ch=1 n=f6 v=86
715378 On ch=1 n=f6 v=0
715378 On ch=1 n=d#6 v=86
717282 On ch=1 n=d#6 v=0
717282 On ch=1 n=d6 v=78
719112 Par ch=1 c=64 v=0
719120 On ch=1 n=d6 v=0
719136 Par ch=1 c=64 v=127
719234 On ch=1 n=d#6 v=83
719822 On ch=1 n=d#6 v=0
719822 On ch=1 n=c6 v=80
720038 On ch=1 n=c6 v=0
720038 On ch=1 n=d#6 v=78
720752 On ch=1 n=d#6 v=0
720752 On ch=1 n=f6 v=80
720958 On ch=1 n=f6 v=0
720958 On ch=1 n=d#6 v=85
721860 Par ch=1 c=64 v=0
721884 On ch=1 n=g5 v=80
722786 On ch=1 n=g5 v=0
722786 On ch=1 n=d#6 v=0
722786 On ch=1 n=d#6 v=82
722786 On ch=1 n=g#5 v=82
723696 On ch=1 n=g#5 v=0
723696 On ch=1 n=d#6 v=0
723696 On ch=1 n=c6 v=80
723696 On ch=1 n=a#5 v=80
724624 On ch=1 n=a#5 v=0
724624 On ch=1 n=c6 v=0
724640 Par ch=1 c=64 v=127
724856 On ch=1 n=c6 v=80
724856 On ch=1 n=d#6 v=80
725078 On ch=1 n=c6 v=0
725078 On ch=1 n=d#5 v=83
725526 On ch=1 n=d#5 v=0
725526 On ch=1 n=f5 v=82
725976 On ch=1 n=f5 v=0
725976 On ch=1 n=g5 v=82
726440 On ch=1 n=g5 v=0
726440 On ch=1 n=g#5 v=80
726906 On ch=1 n=g#5 v=0
726906 On ch=1 n=a#5 v=79
727374 On ch=1 n=a#5 v=0
727374 On ch=1 n=b5 v=81
727860 On ch=1 n=b5 v=0
727860 On ch=1 n=c6 v=80
728326 Par ch=1 c=64 v=0
728340 On ch=1 n=c6 v=0
728340 On ch=1 n=d#6 v=0
728340 On ch=1 n=c#6 v=77
728340 On ch=1 n=a#5 v=77
728812 On ch=1 n=a#5 v=0
728812 On ch=1 n=f#5 v=76
729302 On ch=1 n=f#5 v=0
729302 On ch=1 n=c#6 v=0
729302 On ch=1 n=a#5 v=74
729302 On ch=1 n=g5 v=74
729810 On ch=1 n=a#5 v=0
729810 On ch=1 n=a#5 v=74
730296 On ch=1 n=a#5 v=0
730296 On ch=1 n=g5 v=0
730620 On ch=1 n=e5 v=77
730972 On ch=1 n=e5 v=0
730972 On ch=1 n=f5 v=78
731306 On ch=1 n=f5 v=0
731306 On ch=1 n=g5 v=77
731640 On ch=1 n=g5 v=0
731640 On ch=1 n=g#5 v=77
731986 On ch=1 n=g#5 v=0
731986 On ch=1 n=a#5 v=78
732316 On ch=1 n=a#5 v=0
732316 On ch=1 n=b5 v=78
736442 On ch=1 n=b5 v=0
736442 On ch=1 n=c6 v=74
737204 On ch=1 n=c6 v=0
737204 On ch=1 n=c#6 v=77
737430 On ch=1 n=c#6 v=0
737430 On ch=1 n=c#6 v=86
738156 On ch=1 n=c#6 v=0
738156 On ch=1 n=c6 v=83
738420 On ch=1 n=c6 v=0
738420 On ch=1 n=c6 v=73
739154 On ch=1 n=c6 v=0
739154 On ch=1 n=a#5 v=73
739430 On ch=1 n=a#5 v=0
739430 On ch=1 n=a#5 v=70
740174 On ch=1 n=a#5 v=0
740174 On ch=1 n=g#5 v=72
740438 On ch=1 n=g#5 v=0
740438 On ch=1 n=g#5 v=68
741214 On ch=1 n=g#5 v=0
741214 On ch=1 n=g5 v=68
741486 On ch=1 n=g5 v=0
741486 On ch=1 n=g5 v=66
742266 On ch=1 n=g5 v=0
742266 On ch=1 n=f5 v=73
742582 On ch=1 n=f5 v=0
742582 On ch=1 n=f5 v=70
743314 On ch=1 n=f5 v=0
743314 On ch=1 n=e5 v=73
743614 On ch=1 n=e5 v=0
743614 On ch=1 n=d#5 v=74
744418 On ch=1 n=d#5 v=0
744418 On ch=1 n=g5 v=70
744762 On ch=1 n=g5 v=0
744762 On ch=1 n=a#5 v=72
747078 On ch=1 n=a#5 v=0
747384 On ch=1 n=g#5 v=59
748246 On ch=1 n=g#5 v=0
749342 On ch=1 n=g#4 v=56
749342 On ch=1 n=f4 v=56
751564 On ch=1 n=f4 v=0
751564 On ch=1 n=g#4 v=0
751564 On ch=1 n=g4 v=60
751564 On ch=1 n=e4 v=60
753718 On ch=1 n=e4 v=0
753718 On ch=1 n=g4 v=0
753718 On ch=1 n=g#4 v=62
753718 On ch=1 n=f4 v=62
755812 On ch=1 n=f4 v=0
755812 On ch=1 n=g#4 v=0
755812 On ch=1 n=a#4 v=62
755812 On ch=1 n=g4 v=62
755812 On ch=1 n=c#4 v=62
757858 On ch=1 n=c#4 v=0
757858 On ch=1 n=g4 v=0
757858 On ch=1 n=a#4 v=0
757858 On ch=1 n=c5 v=62
757858 On ch=1 n=g#4 v=62
757858 On ch=1 n=c4 v=62
761006 On ch=1 n=c4 v=0
761006 On ch=1 n=g#4 v=0
761006 On ch=1 n=c5 v=0
761006 On ch=1 n=a#4 v=62
761006 On ch=1 n=e4 v=62
762106 On ch=1 n=e4 v=0
762106 On ch=1 n=a#4 v=0
762106 On ch=1 n=g#4 v=57
762106 On ch=1 n=f4 v=57
763706 On ch=1 n=g#4 v=0
763706 On ch=1 n=g4 v=62
764238 On ch=1 n=g4 v=0
764238 On ch=1 n=f4 v=62
765318 On ch=1 n=f4 v=0
765318 On ch=1 n=g4 v=61
766432 On ch=1 n=g4 v=0
766432 On ch=1 n=f4 v=0
766432 On ch=1 n=g#4 v=61
766432 On ch=1 n=f4 v=61
767544 On ch=1 n=f4 v=0
767544 On ch=1 n=g#4 v=0
767544 On ch=1 n=g#4 v=55
767544 On ch=1 n=f4 v=55
768688 On ch=1 n=f4 v=0
768688 On ch=1 n=g#4 v=0
768688 On ch=1 n=g4 v=56
768688 On ch=1 n=e4 v=56
770968 On ch=1 n=e4 v=0
770968 On ch=1 n=g4 v=0
773146 On ch=1 n=c6 v=71
775262 On ch=1 n=c6 v=0
775262 On ch=1 n=c6 v=62
777290 On ch=1 n=c6 v=0
777290 On ch=1 n=d#6 v=76
777412 On ch=1 n=d#6 v=0
777412 On ch=1 n=c#6 v=76
777536 On ch=1 n=c#6 v=0
777536 On ch=1 n=d#6 v=76
777660 On ch=1 n=d#6 v=0
777660 On ch=1 n=c#6 v=76
777788 On ch=1 n=c#6 v=0
777788 On ch=1 n=d#6 v=73
777912 On ch=1 n=d#6 v=0
777912 On ch=1 n=c#6 v=73
778036 On ch=1 n=c#6 v=0
778036 On ch=1 n=d#6 v=73
778160 On ch=1 n=d#6 v=0
778160 On ch=1 n=c#6 v=73
778286 On ch=1 n=c#6 v=0
778286 On ch=1 n=c6 v=73
779308 On ch=1 n=c6 v=0
779308 On ch=1 n=g#6 v=73
779644 On ch=1 n=g#6 v=0
779644 On ch=1 n=f6 v=73
779976 On ch=1 n=f6 v=0
779976 On ch=1 n=c#6 v=75
780304 On ch=1 n=c#6 v=0
780304 On ch=1 n=c6 v=71
781308 On ch=1 n=c6 v=0
781308 On ch=1 n=f6 v=69
783296 On ch=1 n=f6 v=0
783296 On ch=1 n=d#6 v=71
785334 On ch=1 n=d#6 v=0
785334 On ch=1 n=c#6 v=57
787368 On ch=1 n=c#6 v=0
787368 On ch=1 n=c6 v=64
790434 On ch=1 n=c6 v=0
790434 On ch=1 n=a#5 v=64
791472 On ch=1 n=a#5 v=0
791472 On ch=1 n=g#5 v=57
793500 On ch=1 n=g#5 v=0
793500 On ch=1 n=g5 v=84
793938 On ch=1 n=g5 v=0
793938 On ch=1 n=g#5 v=82
794394 On ch=1 n=g#5 v=0
794394 On ch=1 n=g5 v=91
794876 On ch=1 n=g5 v=0
794876 On ch=1 n=g#5 v=80
795364 On ch=1 n=g#5 v=0
795364 On ch=1 n=a#5 v=82
796372 On ch=1 n=a#5 v=0
796372 On ch=1 n=g#5 v=73
796854 On ch=1 n=g#5 v=0
796854 On ch=1 n=g5 v=64
797390 On ch=1 n=g5 v=0
797390 On ch=1 n=f5 v=62
799412 On ch=1 n=f5 v=0
799412 On ch=1 n=g5 v=77
799428 Par ch=1 c=64 v=127
803272 Par ch=1 c=64 v=0
803306 On ch=1 n=g5 v=0
803306 On ch=1 n=a5 v=78
805238 On ch=1 n=a5 v=0
805238 On ch=1 n=c6 v=93
807214 On ch=1 n=c6 v=0
807214 On ch=1 n=a#5 v=77
810156 On ch=1 n=a#5 v=0
810156 On ch=1 n=g#5 v=75
811136 On ch=1 n=g#5 v=0
811152 Par ch=1 c=64 v=127
811336 On ch=1 n=g#5 v=75
812034 On ch=1 n=g#5 v=0
812034 On ch=1 n=g#5 v=88
812492 On ch=1 n=g#5 v=0
812492 On ch=1 n=g#5 v=82
812964 On ch=1 n=g#5 v=0
812964 On ch=1 n=g5 v=89
814878 Par ch=1 c=64 v=0
814898 On ch=1 n=g5 v=0
814898 On ch=1 n=g#5 v=93
816304 On ch=1 n=g#5 v=0
816304 On ch=1 n=a5 v=93
816796 On ch=1 n=a5 v=0
816796 On ch=1 n=c6 v=93
817248 On ch=1 n=c6 v=0
817248 On ch=1 n=a#5 v=93
817704 On ch=1 n=a#5 v=0
817704 On ch=1 n=f6 v=93
818168 On ch=1 n=f6 v=0
818168 On ch=1 n=c#6 v=93
818674 On ch=1 n=c#6 v=0
818674 On ch=1 n=a#5 v=75
821580 On ch=1 n=a#5 v=0
821580 On ch=1 n=g#5 v=77
822526 On ch=1 n=g#5 v=0
822526 On ch=1 n=g#5 v=77
822542 Par ch=1 c=64 v=127
822646 On ch=1 n=g#5 v=0
822646 On ch=1 n=f#5 v=77
822766 On ch=1 n=f#5 v=0
822766 On ch=1 n=g#5 v=77
822886 On ch=1 n=g#5 v=0
822886 On ch=1 n=f#5 v=77
822974 On ch=1 n=f#5 v=0
822974 On ch=1 n=g#5 v=88
823086 On ch=1 n=g#5 v=0
823086 On ch=1 n=f#5 v=88
823198 On ch=1 n=f#5 v=0
823198 On ch=1 n=g#5 v=88
823310 On ch=1 n=g#5 v=0
823310 On ch=1 n=f#5 v=88
823416 On ch=1 n=f#5 v=0
823416 On ch=1 n=g#5 v=93
823526 On ch=1 n=g#5 v=0
823526 On ch=1 n=f#5 v=93
823638 On ch=1 n=f#5 v=0
823638 On ch=1 n=g#5 v=93
823748 On ch=1 n=g#5 v=0
823748 On ch=1 n=f#5 v=93
823864 On ch=1 n=f#5 v=0
823864 On ch=1 n=g#5 v=93
824088 On ch=1 n=g#5 v=0
824088 On ch=1 n=f#5 v=93
824298 On ch=1 n=f#5 v=0
824298 On ch=1 n=f5 v=93
824516 On ch=1 n=f5 v=0
824516 On ch=1 n=f#5 v=93
824732 On ch=1 n=f#5 v=0
824732 On ch=1 n=g#5 v=97
824950 On ch=1 n=g#5 v=0
824950 On ch=1 n=a#5 v=97
825194 On ch=1 n=a#5 v=0
825194 On ch=1 n=b5 v=104
825426 On ch=1 n=b5 v=0
825426 On ch=1 n=c#6 v=104
825640 On ch=1 n=c#6 v=0
825640 On ch=1 n=d#6 v=107
825864 On ch=1 n=d#6 v=0
825864 On ch=1 n=f6 v=107
826136 On ch=1 n=f6 v=0
826136 On ch=1 n=f#6 v=118
827568 On ch=1 n=f#6 v=0
827568 On ch=1 n=f6 v=115
828030 Par ch=1 c=64 v=0
828040 On ch=1 n=f6 v=0
828040 On ch=1 n=f6 v=111
828056 Par ch=1 c=64 v=127
829970 On ch=1 n=f6 v=0
830370 On ch=1 n=d#6 v=93
832436 On ch=1 n=d#6 v=0
832436 On ch=1 n=f6 v=82
832894 On ch=1 n=f6 v=0
832894 On ch=1 n=d#6 v=86
833358 On ch=1 n=d#6 v=0
833358 On ch=1 n=f6 v=93
833794 Par ch=1 c=64 v=0
833802 On ch=1 n=f6 v=0
833802 On ch=1 n=g6 v=93
833818 Par ch=1 c=64 v=127
836746 Par ch=1 c=64 v=0
837740 On ch=1 n=g6 v=0
837740 On ch=1 n=a#5 v=70
838194 On ch=1 n=a#5 v=0
838194 On ch=1 n=c6 v=83
838662 On ch=1 n=c6 v=0
838662 On ch=1 n=a#5 v=87
839140 On ch=1 n=a#5 v=0
839140 On ch=1 n=c6 v=87
839610 On ch=1 n=c6 v=0
839610 On ch=1 n=c#6 v=87
839626 Par ch=1 c=64 v=127
842558 Par ch=1 c=64 v=0
843528 On ch=1 n=c#6 v=0
843528 On ch=1 n=c6 v=66
844950 On ch=1 n=c6 v=0
844950 On ch=1 n=g5 v=85
845400 On ch=1 n=g5 v=0
845416 Par ch=1 c=64 v=127
845588 On ch=1 n=a#5 v=87
847314 On ch=1 n=a#5 v=0
847314 On ch=1 n=g#5 v=72
848272 Par ch=1 c=64 v=0
848280 On ch=1 n=g#5 v=0
849236 On ch=1 n=f6 v=72
849698 On ch=1 n=f6 v=0
849698 On ch=1 n=g6 v=78
850128 On ch=1 n=g6 v=0
850128 On ch=1 n=f6 v=87
850560 On ch=1 n=f6 v=0
850560 On ch=1 n=g6 v=87
851028 On ch=1 n=g6 v=0
851028 On ch=1 n=g#6 v=87
851044 Par ch=1 c=64 v=127
853976 Par ch=1 c=64 v=0
853984 On ch=1 n=g#6 v=0
853984 On ch=1 n=c6 v=69
854440 On ch=1 n=c6 v=0
854906 On ch=1 n=f6 v=81
855870 On ch=1 n=f6 v=0
855870 On ch=1 n=c#6 v=83
856868 On ch=1 n=c#6 v=0
856868 On ch=1 n=c6 v=72
856884 Par ch=1 c=64 v=127
858304 On ch=1 n=c6 v=0
858304 On ch=1 n=b5 v=78
858790 On ch=1 n=b5 v=0
858790 On ch=1 n=g#7 v=93
859674 Par ch=1 c=64 v=0
860656 On ch=1 n=g#7 v=0
860656 On ch=1 n=f7 v=110
861084 On ch=1 n=f7 v=0
861084 On ch=1 n=g7 v=108
861536 On ch=1 n=g7 v=0
861536 On ch=1 n=f7 v=110
861958 On ch=1 n=f7 v=0
861958 On ch=1 n=g7 v=107
862398 On ch=1 n=g7 v=0
862398 On ch=1 n=g#7 v=105
862412 Par ch=1 c=64 v=127
862828 On ch=1 n=g#7 v=0
862828 On ch=1 n=d7 v=95
863282 On ch=1 n=d7 v=0
863282 On ch=1 n=f7 v=95
863716 On ch=1 n=f7 v=0
863716 On ch=1 n=b6 v=95
864168 On ch=1 n=b6 v=0
864168 On ch=1 n=d7 v=95
864632 On ch=1 n=d7 v=0
864632 On ch=1 n=g#6 v=90
865082 Par ch=1 c=64 v=0
865094 On ch=1 n=g#6 v=0
865094 On ch=1 n=b6 v=89
865562 On ch=1 n=b6 v=0
865562 On ch=1 n=f6 v=82
866028 On ch=1 n=f6 v=0
866028 On ch=1 n=g#6 v=80
866492 On ch=1 n=g#6 v=0
866492 On ch=1 n=d6 v=77
866958 On ch=1 n=d6 v=0
866958 On ch=1 n=f6 v=76
867442 On ch=1 n=f6 v=0
867442 On ch=1 n=b5 v=74
867930 On ch=1 n=b5 v=0
867930 On ch=1 n=c6 v=75
867946 Par ch=1 c=64 v=127
869848 On ch=1 n=c6 v=0
870772 Par ch=1 c=64 v=0
871754 Par ch=1 c=64 v=127
872728 On ch=1 n=e4 v=61
873682 Par ch=1 c=64 v=0
873698 On ch=1 n=e4 v=0
873714 Par ch=1 c=64 v=127
876528 Par ch=1 c=64 v=0
877504 Par ch=1 c=64 v=127
879368 Par ch=1 c=64 v=0
879386 On ch=1 n=c#5 v=82
879402 Par ch=1 c=64 v=127
879842 On ch=1 n=e5 v=82
880308 On ch=1 n=e5 v=0
880308 On ch=1 n=g5 v=82
880758 On ch=1 n=g5 v=0
880758 On ch=1 n=f5 v=82
881232 On ch=1 n=c#5 v=0
881232 On ch=1 n=f5 v=0
881232 On ch=1 n=e5 v=85
881232 On ch=1 n=c#5 v=85
882144 Par ch=1 c=64 v=0
882152 On ch=1 n=c#5 v=0
882152 On ch=1 n=c5 v=83
883108 On ch=1 n=c5 v=0
883108 On ch=1 n=e5 v=0
883108 On ch=1 n=f5 v=82
883108 On ch=1 n=c5 v=82
884050 On ch=1 n=c5 v=0
884050 On ch=1 n=g#4 v=74
885018 On ch=1 n=g#4 v=0
885018 On ch=1 n=f5 v=0
885018 On ch=1 n=c#5 v=65
885034 Par ch=1 c=64 v=127
885480 On ch=1 n=e5 v=62
885948 On ch=1 n=e5 v=0
885948 On ch=1 n=g5 v=65
886436 On ch=1 n=g5 v=0
886436 On ch=1 n=f5 v=62
886910 On ch=1 n=c#5 v=0
886910 On ch=1 n=f5 v=0
886910 On ch=1 n=e5 v=65
886910 On ch=1 n=c#5 v=65
887862 Par ch=1 c=64 v=0
887870 On ch=1 n=c#5 v=0
887870 On ch=1 n=c5 v=65
888830 On ch=1 n=e5 v=0
888830 On ch=1 n=f5 v=65
889766 On ch=1 n=c5 v=0
889766 On ch=1 n=g#4 v=62
890734 On ch=1 n=g#4 v=0
890734 On ch=1 n=f5 v=0
890734 On ch=1 n=f5 v=78
892102 On ch=1 n=f5 v=0
892102 On ch=1 n=e5 v=82
892332 On ch=1 n=e5 v=0
892332 On ch=1 n=f5 v=82
892566 On ch=1 n=f5 v=0
892566 On ch=1 n=g5 v=82
893978 On ch=1 n=g5 v=0
893978 On ch=1 n=g#5 v=82
894220 On ch=1 n=g#5 v=0
894220 On ch=1 n=g5 v=82
894410 On ch=1 n=g5 v=0
894410 On ch=1 n=f5 v=82
896398 On ch=1 n=f5 v=0
896398 On ch=1 n=e5 v=68
896414 Par ch=1 c=64 v=127
896868 On ch=1 n=e5 v=0
897104 On ch=1 n=c5 v=68
897342 On ch=1 n=c5 v=0
897342 On ch=1 n=c6 v=63
897830 On ch=1 n=c6 v=0
898072 On ch=1 n=c5 v=65
898336 On ch=1 n=c5 v=0
898336 On ch=1 n=g5 v=60
899326 Par ch=1 c=64 v=0
899840 On ch=1 n=g5 v=0
899840 On ch=1 n=g#5 v=62
900090 On ch=1 n=g#5 v=0
900090 On ch=1 n=g5 v=62
900368 On ch=1 n=g5 v=0
900368 On ch=1 n=f5 v=54
901298 On ch=1 n=f5 v=0
902246 Par ch=1 c=64 v=127
902430 On ch=1 n=d#6 v=93
905284 Par ch=1 c=64 v=0
905720 On ch=1 n=d#6 v=0
905922 On ch=1 n=e6 v=93
906082 On ch=1 n=e6 v=0
906082 On ch=1 n=f6 v=93
906414 On ch=1 n=f6 v=0
906582 On ch=1 n=d#6 v=93
906782 On ch=1 n=d#6 v=0
906782 On ch=1 n=d#6 v=93
906794 Par ch=1 c=64 v=127
908540 On ch=1 n=d#6 v=0
908730 On ch=1 n=d#6 v=93
908862 On ch=1 n=d#6 v=0
908862 On ch=1 n=f6 v=93
909232 On ch=1 n=f6 v=0
909416 On ch=1 n=g6 v=93
909586 Par ch=1 c=64 v=0
909622 On ch=1 n=g6 v=0
909622 On ch=1 n=g#6 v=93
909992 On ch=1 n=g#6 v=0
910176 On ch=1 n=a#6 v=93
910320 On ch=1 n=a#6 v=0
910320 On ch=1 n=b6 v=93
910664 On ch=1 n=b6 v=0
910836 On ch=1 n=c7 v=93
911022 On ch=1 n=c7 v=0
911022 On ch=1 n=c7 v=93
911034 Par ch=1 c=64 v=127
913908 Par ch=1 c=64 v=0
914308 On ch=1 n=c7 v=0
914502 On ch=1 n=c7 v=99
914658 On ch=1 n=c7 v=0
914658 On ch=1 n=c#7 v=102
915014 On ch=1 n=c#7 v=0
915192 On ch=1 n=c7 v=102
915364 On ch=1 n=c7 v=0
915364 On ch=1 n=c7 v=107
915376 Par ch=1 c=64 v=127
917176 On ch=1 n=c7 v=0
917356 On ch=1 n=b6 v=99
917538 On ch=1 n=b6 v=0
917538 On ch=1 n=a#6 v=99
917884 On ch=1 n=a#6 v=0
918058 On ch=1 n=g6 v=99
918222 Par ch=1 c=64 v=0
918276 On ch=1 n=g6 v=0
918276 On ch=1 n=a#6 v=108
918608 On ch=1 n=a#6 v=0
918776 On ch=1 n=g#6 v=101
918968 On ch=1 n=g#6 v=0
918968 On ch=1 n=g6 v=102
919326 On ch=1 n=g6 v=0
919506 On ch=1 n=g#6 v=103
919670 On ch=1 n=g#6 v=0
919670 On ch=1 n=g#6 v=98
919682 Par ch=1 c=64 v=127
922476 Par ch=1 c=64 v=0
922834 On ch=1 n=g#6 v=0
923006 On ch=1 n=a6 v=93
923178 On ch=1 n=a6 v=0
923178 On ch=1 n=a#6 v=93
923542 On ch=1 n=a#6 v=0
923722 On ch=1 n=g#6 v=95
923894 On ch=1 n=g#6 v=0
923894 On ch=1 n=g#6 v=96
923906 Par ch=1 c=64 v=127
925630 On ch=1 n=g#6 v=0
925798 On ch=1 n=a6 v=94
925964 On ch=1 n=a6 v=0
925964 On ch=1 n=a#6 v=94
926296 On ch=1 n=a#6 v=0
926462 On ch=1 n=c7 v=97
926618 Par ch=1 c=64 v=0
926624 On ch=1 n=c7 v=0
926624 On ch=1 n=c#7 v=100
926952 On ch=1 n=c#7 v=0
927116 On ch=1 n=d#7 v=101
927292 On ch=1 n=d#7 v=0
927292 On ch=1 n=e7 v=106
927632 On ch=1 n=e7 v=0
927802 On ch=1 n=f7 v=104
927976 On ch=1 n=f7 v=0
927976 On ch=1 n=f7 v=113
927988 Par ch=1 c=64 v=127
930810 Par ch=1 c=64 v=0
931190 On ch=1 n=f7 v=0
931368 On ch=1 n=f7 v=105
931542 On ch=1 n=f7 v=0
931542 On ch=1 n=f#7 v=112
931926 On ch=1 n=f#7 v=0
932116 On ch=1 n=f7 v=111
932250 On ch=1 n=f7 v=0
932250 On ch=1 n=f7 v=115
932262 Par ch=1 c=64 v=127
934028 On ch=1 n=f7 v=0
934208 On ch=1 n=e7 v=104
934374 On ch=1 n=e7 v=0
934374 On ch=1 n=d#7 v=104
934724 On ch=1 n=d#7 v=0
934900 On ch=1 n=c7 v=107
935064 Par ch=1 c=64 v=0
935108 On ch=1 n=c7 v=0
935108 On ch=1 n=d#7 v=118
935464 On ch=1 n=d#7 v=0
935644 On ch=1 n=d7 v=111
935806 On ch=1 n=d7 v=0
935806 On ch=1 n=c7 v=106
936140 On ch=1 n=c7 v=0
936308 On ch=1 n=d7 v=106
936514 On ch=1 n=d7 v=0
936514 On ch=1 n=d7 v=109
936526 Par ch=1 c=64 v=127
936844 On ch=1 n=d7 v=0
936844 On ch=1 n=c7 v=106
937186 On ch=1 n=c7 v=0
937186 On ch=1 n=b6 v=106
937538 On ch=1 n=b6 v=0
937538 On ch=1 n=d6 v=108
937920 On ch=1 n=d6 v=0
938266 On ch=1 n=a#6 v=106
938616 On ch=1 n=a#6 v=0
938616 On ch=1 n=b6 v=106
938976 On ch=1 n=b6 v=0
938976 On ch=1 n=d7 v=108
939320 Par ch=1 c=64 v=0
939326 On ch=1 n=d7 v=0
939326 On ch=1 n=b6 v=106
939338 Par ch=1 c=64 v=127
939668 On ch=1 n=b6 v=0
939668 On ch=1 n=a#6 v=106
940012 On ch=1 n=a#6 v=0
940012 On ch=1 n=a6 v=106
940364 On ch=1 n=a6 v=0
940364 On ch=1 n=a#6 v=106
940706 Par ch=1 c=64 v=0
940724 On ch=1 n=a#6 v=0
940724 On ch=1 n=a#6 v=106
940736 Par ch=1 c=64 v=127
941084 On ch=1 n=a#6 v=0
941084 On ch=1 n=a6 v=106
941438 On ch=1 n=a6 v=0
941438 On ch=1 n=g#6 v=106
941774 On ch=1 n=g#6 v=0
941774 On ch=1 n=c#6 v=106
942128 On ch=1 n=c#6 v=0
942464 On ch=1 n=g6 v=106
942808 On ch=1 n=g6 v=0
942808 On ch=1 n=g#6 v=106
943162 On ch=1 n=g#6 v=0
943162 On ch=1 n=a#6 v=106
943506 Par ch=1 c=64 v=0
943526 On ch=1 n=a#6 v=0
943526 On ch=1 n=g#6 v=106
943538 Par ch=1 c=64 v=127
943878 On ch=1 n=g#6 v=0
943878 On ch=1 n=f#6 v=106
944234 On ch=1 n=f#6 v=0
944234 On ch=1 n=f6 v=106
944606 On ch=1 n=f6 v=0
944606 On ch=1 n=f#6 v=106
944910 Par ch=1 c=64 v=0
944916 On ch=1 n=f#6 v=0
944916 On ch=1 n=a#6 v=106
944926 Par ch=1 c=64 v=127
945260 On ch=1 n=a#6 v=0
945260 On ch=1 n=a6 v=106
945604 On ch=1 n=a6 v=0
945604 On ch=1 n=g#6 v=106
945962 On ch=1 n=g#6 v=0
945962 On ch=1 n=a#5 v=106
946340 On ch=1 n=a#5 v=0
946664 On ch=1 n=g6 v=106
947014 On ch=1 n=g6 v=0
947014 On ch=1 n=g#6 v=106
947400 On ch=1 n=g#6 v=0
947400 On ch=1 n=a#6 v=106
947750 Par ch=1 c=64 v=0
947756 On ch=1 n=a#6 v=0
947756 On ch=1 n=g#6 v=106
947768 Par ch=1 c=64 v=127
948090 On ch=1 n=g#6 v=0
948090 On ch=1 n=f#6 v=106
948428 On ch=1 n=f#6 v=0
948428 On ch=1 n=f6 v=106
948760 On ch=1 n=f6 v=0
948760 On ch=1 n=d#6 v=106
949082 Par ch=1 c=64 v=0
949118 On ch=1 n=d#6 v=0
949118 On ch=1 n=d6 v=106
949130 Par ch=1 c=64 v=127
949472 On ch=1 n=d6 v=0
949472 On ch=1 n=d#6 v=106
949838 On ch=1 n=d#6 v=0
949838 On ch=1 n=d6 v=106
950188 On ch=1 n=d6 v=0
950188 On ch=1 n=d#6 v=106
950554 On ch=1 n=d#6 v=0
950554 On ch=1 n=d6 v=106
950736 On ch=1 n=d6 v=0
950736 On ch=1 n=d#6 v=106
950878 On ch=1 n=d#6 v=0
950878 On ch=1 n=f6 v=106
952730 On ch=1 n=f6 v=0
952730 On ch=1 n=c6 v=106
953440 Par ch=1 c=64 v=0
953466 On ch=1 n=c6 v=0
953478 Par ch=1 c=64 v=127
953840 On ch=1 n=a#5 v=106
954210 On ch=1 n=a#5 v=0
954210 On ch=1 n=c7 v=106
954210 On ch=1 n=g#6 v=106
954606 On ch=1 n=c7 v=0
954606 On ch=1 n=a#6 v=106
954964 On ch=1 n=a#6 v=0
954964 On ch=1 n=g#6 v=0
955346 On ch=1 n=a#5 v=106
955710 On ch=1 n=a#5 v=0
955710 On ch=1 n=c7 v=106
955710 On ch=1 n=g#6 v=106
956068 On ch=1 n=c7 v=0
956068 On ch=1 n=a#6 v=106
956436 On ch=1 n=a#6 v=0
956436 On ch=1 n=g#6 v=0
956436 On ch=1 n=a#6 v=106
956436 On ch=1 n=c6 v=106
956780 On ch=1 n=c6 v=0
956780 On ch=1 n=a#6 v=0
956780 On ch=1 n=a#6 v=106
956780 On ch=1 n=c#6 v=106
957128 On ch=1 n=c#6 v=0
957128 On ch=1 n=a#6 v=0
957128 On ch=1 n=a#6 v=106
957128 On ch=1 n=d6 v=106
957474 On ch=1 n=d6 v=0
957474 On ch=1 n=a#6 v=0
957474 On ch=1 n=a#6 v=106
957474 On ch=1 n=f6 v=106
957810 Par ch=1 c=64 v=0
957848 On ch=1 n=f6 v=0
957848 On ch=1 n=a#6 v=0
957848 On ch=1 n=f#6 v=106
957848 On ch=1 n=d#6 v=106
957860 Par ch=1 c=64 v=127
958230 On ch=1 n=d#6 v=0
958230 On ch=1 n=f#6 v=0
958230 On ch=1 n=g6 v=106
958610 On ch=1 n=f7 v=102
958610 On ch=1 n=a#6 v=102
958988 On ch=1 n=a#6 v=0
958988 On ch=1 n=f7 v=0
958988 On ch=1 n=g6 v=0
958988 On ch=1 n=d#7 v=102
959344 Par ch=1 c=64 v=0
959352 On ch=1 n=d#7 v=0
959352 On ch=1 n=f#6 v=102
959720 On ch=1 n=f#6 v=0
959720 On ch=1 n=g6 v=102
960074 On ch=1 n=g6 v=0
960074 On ch=1 n=c7 v=102
960074 On ch=1 n=g#6 v=102
960424 On ch=1 n=g#6 v=0
960424 On ch=1 n=c7 v=0
960424 On ch=1 n=a#6 v=102
960424 On ch=1 n=g6 v=102
960806 On ch=1 n=g6 v=0
960806 On ch=1 n=a#6 v=0
960806 On ch=1 n=a6 v=102
960806 On ch=1 n=f#6 v=102
961164 On ch=1 n=f#6 v=0
961164 On ch=1 n=a6 v=0
961164 On ch=1 n=g#6 v=102
961164 On ch=1 n=f6 v=102
961524 On ch=1 n=f6 v=0
961524 On ch=1 n=g#6 v=0
961524 On ch=1 n=g6 v=102
961524 On ch=1 n=e6 v=102
961878 On ch=1 n=e6 v=0
961878 On ch=1 n=g6 v=0
961878 On ch=1 n=f#6 v=102
961878 On ch=1 n=d#6 v=102
962236 On ch=1 n=d#6 v=0
962236 On ch=1 n=f#6 v=0
962248 Par ch=1 c=64 v=127
962604 On ch=1 n=d6 v=100
962980 On ch=1 n=d6 v=0
962980 On ch=1 n=c7 v=99
962980 On ch=1 n=g#6 v=99
963342 On ch=1 n=c7 v=0
963342 On ch=1 n=a#6 v=105
963690 Par ch=1 c=64 v=0
963720 On ch=1 n=a#6 v=0
963720 On ch=1 n=g#6 v=0
963732 Par ch=1 c=64 v=127
964100 On ch=1 n=c6 v=98
964486 On ch=1 n=c6 v=0
964486 On ch=1 n=c7 v=100
964486 On ch=1 n=g#6 v=100
964836 On ch=1 n=c7 v=0
964836 On ch=1 n=a#6 v=101
965178 Par ch=1 c=64 v=0
965210 On ch=1 n=a#6 v=0
965210 On ch=1 n=g#6 v=0
965222 Par ch=1 c=64 v=127
965586 On ch=1 n=a#5 v=95
965958 On ch=1 n=a#5 v=0
965958 On ch=1 n=c7 v=98
965958 On ch=1 n=g#6 v=98
966324 On ch=1 n=c7 v=0
966324 On ch=1 n=a#6 v=101
966676 Par ch=1 c=64 v=0
966724 On ch=1 n=a#6 v=0
966724 On ch=1 n=g#6 v=0
966724 On ch=1 n=g6 v=101
966724 On ch=1 n=d#6 v=101
966738 Par ch=1 c=64 v=127
967524 On ch=1 n=d#6 v=0
967524 On ch=1 n=g6 v=0
967524 On ch=1 n=d#4 v=111
967776 On ch=1 n=d#4 v=0
967776 On ch=1 n=d#4 v=111
967922 On ch=1 n=d#4 v=0
967922 On ch=1 n=d#4 v=107
968138 On ch=1 n=d#4 v=0
968138 On ch=1 n=d#4 v=108
968888 On ch=1 n=d#4 v=0
968888 On ch=1 n=a#3 v=114
969678 Par ch=1 c=64 v=0
969686 On ch=1 n=a#3 v=0
969686 On ch=1 n=d#3 v=122
971258 On ch=1 n=d#3 v=0
971258 On ch=1 n=d3 v=126
971270 Par ch=1 c=64 v=127
972036 On ch=1 n=d3 v=0
972036 On ch=1 n=d4 v=108
972798 On ch=1 n=d4 v=0
972798 On ch=1 n=d5 v=122
975802 Par ch=1 c=64 v=0
975838 On ch=1 n=d5 v=0
975838 On ch=1 n=d#5 v=108
975850 Par ch=1 c=64 v=127
976650 On ch=1 n=d#5 v=0
976650 On ch=1 n=d#6 v=102
977422 On ch=1 n=d#6 v=0
977422 On ch=1 n=d#7 v=116
980466 Par ch=1 c=64 v=0
980476 On ch=1 n=d#7 v=0
980476 On ch=1 n=d#8 v=98
980488 Par ch=1 c=64 v=127
981234 On ch=1 n=d#8 v=0
981234 On ch=1 n=d#6 v=98
981990 On ch=1 n=d#6 v=0
981990 On ch=1 n=d#6 v=96
984986 Par ch=1 c=64 v=0
985026 On ch=1 n=d#6 v=0
985026 On ch=1 n=e6 v=93
985038 Par ch=1 c=64 v=127
985768 On ch=1 n=e6 v=0
985768 On ch=1 n=c5 v=93
986604 On ch=1 n=c5 v=0
986604 On ch=1 n=c3 v=91
989732 Par ch=1 c=64 v=0
989756 Par ch=1 c=64 v=127
990498 On ch=1 n=c3 v=0
990498 On ch=1 n=c5 v=88
991262 On ch=1 n=c5 v=0
991262 On ch=1 n=c6 v=88
994452 Par ch=1 c=64 v=0
994498 Par ch=1 c=64 v=127
995274 On ch=1 n=c6 v=0
995274 On ch=1 n=c7 v=77
996104 On ch=1 n=c7 v=0
996104 On ch=1 n=c8 v=78
999566 Par ch=1 c=64 v=0
1000654 On ch=1 n=c8 v=0
1000654 On ch=1 n=c7 v=56
1001722 On ch=1 n=c7 v=0
1001722 On ch=1 n=c6 v=51
1010204 On ch=1 n=c5 v=53
1013458 On ch=1 n=c5 v=0
1013458 On ch=1 n=c6 v=0
1013458 On ch=1 n=c6 v=76
1015350 On ch=1 n=c6 v=0
1015350 On ch=1 n=d#6 v=75
1015460 On ch=1 n=d#6 v=0
1015460 On ch=1 n=c#6 v=75
1015572 On ch=1 n=c#6 v=0
1015572 On ch=1 n=d#6 v=75
1015682 On ch=1 n=d#6 v=0
1015682 On ch=1 n=c#6 v=75
1015816 On ch=1 n=c#6 v=0
1015816 On ch=1 n=d#6 v=73
1015934 On ch=1 n=d#6 v=0
1015934 On ch=1 n=c#6 v=73
1016050 On ch=1 n=c#6 v=0
1016050 On ch=1 n=d#6 v=73
1016166 On ch=1 n=d#6 v=0
1016166 On ch=1 n=c#6 v=73
1016268 On ch=1 n=c#6 v=0
1016268 On ch=1 n=c6 v=74
1017186 On ch=1 n=c6 v=0
1017186 On ch=1 n=g#6 v=77
1017484 On ch=1 n=g#6 v=0
1017484 On ch=1 n=f6 v=77
1017782 On ch=1 n=f6 v=0
1017782 On ch=1 n=c#6 v=71
1018114 On ch=1 n=c#6 v=0
1018114 On ch=1 n=c6 v=68
1019118 On ch=1 n=c6 v=0
1019118 On ch=1 n=f6 v=68
1021060 On ch=1 n=f6 v=0
1021060 On ch=1 n=d#6 v=69
1022930 On ch=1 n=d#6 v=0
1022930 On ch=1 n=c#6 v=68
1024864 On ch=1 n=c#6 v=0
1024864 On ch=1 n=c6 v=64
1027788 On ch=1 n=c6 v=0
1027788 On ch=1 n=a#5 v=68
1028738 On ch=1 n=a#5 v=0
1028738 On ch=1 n=g#5 v=67
1030638 On ch=1 n=g#5 v=0
1030638 On ch=1 n=g5 v=86
1031058 On ch=1 n=g5 v=0
1031058 On ch=1 n=g#5 v=86
1031508 On ch=1 n=g#5 v=0
1031508 On ch=1 n=g5 v=86
1031918 On ch=1 n=g5 v=0
1031918 On ch=1 n=g#5 v=86
1032376 On ch=1 n=g#5 v=0
1032376 On ch=1 n=a#5 v=86
1033298 On ch=1 n=a#5 v=0
1033298 On ch=1 n=g#5 v=82
1033744 On ch=1 n=g#5 v=0
1033744 On ch=1 n=g5 v=77
1034204 On ch=1 n=g5 v=0
1034204 On ch=1 n=f5 v=69
1036038 On ch=1 n=f5 v=0
1036038 On ch=1 n=g5 v=82
1036054 Par ch=1 c=64 v=127
1039618 Par ch=1 c=64 v=0
1039640 On ch=1 n=g5 v=0
1039640 On ch=1 n=a5 v=80
1041394 On ch=1 n=a5 v=0
1041394 On ch=1 n=c6 v=85
1043246 On ch=1 n=c6 v=0
1043246 On ch=1 n=a#5 v=77
1045970 On ch=1 n=a#5 v=0
1045970 On ch=1 n=g#5 v=76
1046852 On ch=1 n=g#5 v=0
1046866 Par ch=1 c=64 v=127
1047028 On ch=1 n=g#5 v=77
1047704 On ch=1 n=g#5 v=0
1047704 On ch=1 n=g#5 v=76
1048136 On ch=1 n=g#5 v=0
1048136 On ch=1 n=g#5 v=75
1048574 On ch=1 n=g#5 v=0
1048574 On ch=1 n=g5 v=74
1050338 Par ch=1 c=64 v=0
1050356 On ch=1 n=g5 v=0
1050356 On ch=1 n=g#5 v=85
1051660 On ch=1 n=g#5 v=0
1051660 On ch=1 n=a5 v=86
1052078 On ch=1 n=a5 v=0
1052078 On ch=1 n=c6 v=89
1052482 On ch=1 n=c6 v=0
1052482 On ch=1 n=a#5 v=93
1052888 On ch=1 n=a#5 v=0
1052888 On ch=1 n=f6 v=95
1053316 On ch=1 n=f6 v=0
1053316 On ch=1 n=c#6 v=96
1053762 On ch=1 n=c#6 v=0
1053762 On ch=1 n=a#5 v=99
1056464 On ch=1 n=a#5 v=0
1056464 On ch=1 n=g#5 v=84
1057336 On ch=1 n=g#5 v=0
1057336 On ch=1 n=g#5 v=85
1057350 Par ch=1 c=64 v=127
1057446 On ch=1 n=g#5 v=0
1057446 On ch=1 n=f#5 v=85
1057556 On ch=1 n=f#5 v=0
1057556 On ch=1 n=g#5 v=85
1057664 On ch=1 n=g#5 v=0
1057664 On ch=1 n=f#5 v=85
1057772 On ch=1 n=f#5 v=0
1057772 On ch=1 n=g#5 v=90
1057882 On ch=1 n=g#5 v=0
1057882 On ch=1 n=f#5 v=90
1057990 On ch=1 n=f#5 v=0
1057990 On ch=1 n=g#5 v=90
1058100 On ch=1 n=g#5 v=0
1058100 On ch=1 n=f#5 v=90
1058212 On ch=1 n=f#5 v=0
1058212 On ch=1 n=g#5 v=91
1058322 On ch=1 n=g#5 v=0
1058322 On ch=1 n=f#5 v=91
1058432 On ch=1 n=f#5 v=0
1058432 On ch=1 n=g#5 v=91
1058542 On ch=1 n=g#5 v=0
1058542 On ch=1 n=f#5 v=91
1058622 On ch=1 n=f#5 v=0
1058622 On ch=1 n=g#5 v=94
1058826 On ch=1 n=g#5 v=0
1058826 On ch=1 n=f#5 v=94
1059042 On ch=1 n=f#5 v=0
1059042 On ch=1 n=f5 v=98
1059252 On ch=1 n=f5 v=0
1059252 On ch=1 n=f#5 v=98
1059456 On ch=1 n=f#5 v=0
1059456 On ch=1 n=g#5 v=106
1059662 On ch=1 n=g#5 v=0
1059662 On ch=1 n=a#5 v=106
1059876 On ch=1 n=a#5 v=0
1059876 On ch=1 n=b5 v=108
1060086 On ch=1 n=b5 v=0
1060086 On ch=1 n=c#6 v=108
1060278 On ch=1 n=c#6 v=0
1060278 On ch=1 n=d#6 v=109
1060478 On ch=1 n=d#6 v=0
1060478 On ch=1 n=f6 v=109
1060734 On ch=1 n=f6 v=0
1060734 On ch=1 n=f#6 v=120
1062110 On ch=1 n=f#6 v=0
1062110 On ch=1 n=f6 v=120
1062554 Par ch=1 c=64 v=0
1062594 On ch=1 n=f6 v=0
1062594 On ch=1 n=f6 v=123
1062610 Par ch=1 c=64 v=127
1064414 On ch=1 n=f6 v=0
1064782 On ch=1 n=d#6 v=104
1066688 On ch=1 n=d#6 v=0
1066688 On ch=1 n=f6 v=102
1067104 On ch=1 n=f6 v=0
1067104 On ch=1 n=d#6 v=105
1067512 On ch=1 n=d#6 v=0
1067512 On ch=1 n=f6 v=107
1067906 Par ch=1 c=64 v=0
1067962 On ch=1 n=f6 v=0
1067962 On ch=1 n=g6 v=113
1067978 Par ch=1 c=64 v=127
1070688 Par ch=1 c=64 v=0
1071576 On ch=1 n=g6 v=0
1071576 On ch=1 n=a#5 v=103
1071994 On ch=1 n=a#5 v=0
1071994 On ch=1 n=c6 v=103
1072406 On ch=1 n=c6 v=0
1072406 On ch=1 n=a#5 v=103
1072820 On ch=1 n=a#5 v=0
1072820 On ch=1 n=c6 v=106
1073294 On ch=1 n=c6 v=0
1073294 On ch=1 n=c#6 v=112
1073310 Par ch=1 c=64 v=127
1075890 Par ch=1 c=64 v=0
1076792 On ch=1 n=c#6 v=0
1076792 On ch=1 n=c6 v=101
1078080 On ch=1 n=c6 v=0
1078080 On ch=1 n=g5 v=101
1078484 On ch=1 n=g5 v=0
1078498 Par ch=1 c=64 v=127
1078652 On ch=1 n=a#5 v=101
1080240 On ch=1 n=a#5 v=0
1080240 On ch=1 n=g#5 v=101
1081118 Par ch=1 c=64 v=0
1081126 On ch=1 n=g#5 v=0
1081972 On ch=1 n=f6 v=98
1082392 On ch=1 n=f6 v=0
1082392 On ch=1 n=g6 v=101
1082786 On ch=1 n=g6 v=0
1082786 On ch=1 n=f6 v=101
1083222 On ch=1 n=f6 v=0
1083222 On ch=1 n=g6 v=101
1083618 On ch=1 n=g6 v=0
1083618 On ch=1 n=g#6 v=101
1083630 Par ch=1 c=64 v=127
1086178 Par ch=1 c=64 v=0
1086192 On ch=1 n=g#6 v=0
1086192 On ch=1 n=c6 v=91
1086628 On ch=1 n=c6 v=0
1087056 On ch=1 n=f6 v=101
1087880 On ch=1 n=f6 v=0
1087880 On ch=1 n=c#6 v=101
1088730 On ch=1 n=c#6 v=0
1088730 On ch=1 n=c6 v=101
1088744 Par ch=1 c=64 v=127
1089956 On ch=1 n=c6 v=0
1089956 On ch=1 n=b5 v=112
1090422 On ch=1 n=b5 v=0
1090422 On ch=1 n=g#7 v=127
1091258 Par ch=1 c=64 v=0
1092158 On ch=1 n=g#7 v=0
1092158 On ch=1 n=f7 v=122
1092552 On ch=1 n=f7 v=0
1092552 On ch=1 n=g7 v=124
1092984 On ch=1 n=g7 v=0
1092984 On ch=1 n=f7 v=127
1093384 On ch=1 n=f7 v=0
1093384 On ch=1 n=g7 v=127
1093810 On ch=1 n=g7 v=0
1093810 On ch=1 n=g#7 v=127
1093824 Par ch=1 c=64 v=127
1094208 On ch=1 n=g#7 v=0
1094208 On ch=1 n=d7 v=126
1094612 On ch=1 n=d7 v=0
1094612 On ch=1 n=f7 v=122
1095022 On ch=1 n=f7 v=0
1095022 On ch=1 n=b6 v=120
1095438 On ch=1 n=b6 v=0
1095438 On ch=1 n=d7 v=115
1095852 On ch=1 n=d7 v=0
1095852 On ch=1 n=g#6 v=112
1096252 Par ch=1 c=64 v=0
1096272 On ch=1 n=g#6 v=0
1096272 On ch=1 n=b6 v=112
1096692 On ch=1 n=b6 v=0
1096692 On ch=1 n=f6 v=111
1097114 On ch=1 n=f6 v=0
1097114 On ch=1 n=g#6 v=111
1097524 On ch=1 n=g#6 v=0
1097524 On ch=1 n=d6 v=107
1097956 On ch=1 n=d6 v=0
1097956 On ch=1 n=f6 v=103
1098410 On ch=1 n=f6 v=0
1098410 On ch=1 n=b5 v=98
1098858 On ch=1 n=b5 v=0
1098858 On ch=1 n=c6 v=108
1098874 Par ch=1 c=64 v=127
1100556 On ch=1 n=c6 v=0
1101408 Par ch=1 c=64 v=0
1102282 Par ch=1 c=64 v=127
1103192 On ch=1 n=e4 v=92
1104138 Par ch=1 c=64 v=0
1104146 On ch=1 n=e4 v=0
1104162 Par ch=1 c=64 v=127
1106876 Par ch=1 c=64 v=0
1107800 Par ch=1 c=64 v=127
1109594 Par ch=1 c=64 v=0
1109602 On ch=1 n=c#5 v=102
1109616 Par ch=1 c=64 v=127
1110016 On ch=1 n=e5 v=102
1110454 On ch=1 n=e5 v=0
1110454 On ch=1 n=g5 v=102
1110900 On ch=1 n=g5 v=0
1110900 On ch=1 n=f5 v=102
1111366 On ch=1 n=c#5 v=0
1111366 On ch=1 n=f5 v=0
1111366 On ch=1 n=e5 v=102
1111366 On ch=1 n=c#5 v=102
1112326 Par ch=1 c=64 v=0
1112348 On ch=1 n=c#5 v=0
1112348 On ch=1 n=c5 v=96
1113292 On ch=1 n=c5 v=0
1113292 On ch=1 n=e5 v=0
1113292 On ch=1 n=f5 v=89
1113292 On ch=1 n=c5 v=89
1114230 On ch=1 n=c5 v=0
1114230 On ch=1 n=g#4 v=81
1115144 On ch=1 n=g#4 v=0
1115144 On ch=1 n=f5 v=0
1115144 On ch=1 n=c#5 v=67
1115158 Par ch=1 c=64 v=127
1115618 On ch=1 n=e5 v=75
1116084 On ch=1 n=e5 v=0
1116084 On ch=1 n=g5 v=76
1116576 On ch=1 n=g5 v=0
1116576 On ch=1 n=f5 v=80
1117040 On ch=1 n=c#5 v=0
1117040 On ch=1 n=f5 v=0
1117040 On ch=1 n=e5 v=80
1117040 On ch=1 n=c#5 v=80
1117982 Par ch=1 c=64 v=0
1118020 On ch=1 n=c#5 v=0
1118020 On ch=1 n=c5 v=78
1119006 On ch=1 n=e5 v=0
1119006 On ch=1 n=f5 v=76
1120028 On ch=1 n=c5 v=0
1120028 On ch=1 n=g#4 v=76
1121052 On ch=1 n=g#4 v=0
1121052 On ch=1 n=f5 v=0
1121052 On ch=1 n=f5 v=76
1122606 On ch=1 n=f5 v=0
1122606 On ch=1 n=e5 v=80
1122864 On ch=1 n=e5 v=0
1122864 On ch=1 n=f5 v=80
1123162 On ch=1 n=f5 v=0
1123162 On ch=1 n=g5 v=76
1124802 On ch=1 n=g5 v=0
1124802 On ch=1 n=g#5 v=82
1125082 On ch=1 n=g#5 v=0
1125082 On ch=1 n=g5 v=82
1125354 On ch=1 n=g5 v=0
1125354 On ch=1 n=f5 v=85
1127564 On ch=1 n=f5 v=0
1127564 On ch=1 n=e5 v=83
1127580 Par ch=1 c=64 v=127
1128092 On ch=1 n=e5 v=0
1128356 On ch=1 n=c5 v=82
1128666 On ch=1 n=c5 v=0
1128666 On ch=1 n=c6 v=69
1129208 On ch=1 n=c6 v=0
1129480 On ch=1 n=c5 v=76
1129836 On ch=1 n=c5 v=0
1129836 On ch=1 n=g5 v=67
1131038 Par ch=1 c=64 v=0
1131708 On ch=1 n=g5 v=0
1131708 On ch=1 n=g#5 v=65
1132036 On ch=1 n=g#5 v=0
1132036 On ch=1 n=g5 v=65
1132446 On ch=1 n=g5 v=0
1132446 On ch=1 n=f5 v=61
1134030 On ch=1 n=f5 v=0
1134030 On ch=1 n=f5 v=0
1134030 Meta TrkEnd
TrkEnd
MTrk
0 SeqSpec 43 00 01 00
0 Meta TrkName "2 Melodie main gauche"
0 PrCh ch=2 p=0
0 Par ch=2 c=10 v=48
0 Par ch=2 c=7 v=110
28248 On ch=2 n=f5 v=56
28248 On ch=2 n=c5 v=56
28248 On ch=2 n=g#4 v=56
29282 On ch=2 n=g#4 v=0
29282 On ch=2 n=c5 v=0
29282 On ch=2 n=f5 v=0
29282 On ch=2 n=f5 v=56
29282 On ch=2 n=c#5 v=56
29282 On ch=2 n=g#4 v=56
30356 On ch=2 n=g#4 v=0
30356 On ch=2 n=c#5 v=0
30356 On ch=2 n=f5 v=0
30356 On ch=2 n=f5 v=55
30356 On ch=2 n=c5 v=55
30356 On ch=2 n=g#4 v=55
31424 On ch=2 n=g#4 v=0
31424 On ch=2 n=c5 v=0
31424 On ch=2 n=f5 v=0
31424 On ch=2 n=f5 v=57
31424 On ch=2 n=c#5 v=57
31424 On ch=2 n=g#4 v=57
32386 On ch=2 n=g#4 v=0
32386 On ch=2 n=c#5 v=0
32386 On ch=2 n=f5 v=0
32386 On ch=2 n=f5 v=58
32386 On ch=2 n=c5 v=58
32386 On ch=2 n=g#4 v=58
33468 On ch=2 n=g#4 v=0
33468 On ch=2 n=c5 v=0
33468 On ch=2 n=f5 v=0
34564 On ch=2 n=f5 v=54
34564 On ch=2 n=c5 v=54
35620 On ch=2 n=c5 v=0
35620 On ch=2 n=f5 v=0
36690 On ch=2 n=d#5 v=54
36690 On ch=2 n=a#4 v=54
37758 On ch=2 n=a#4 v=0
37758 On ch=2 n=d#5 v=0
38800 On ch=2 n=c#5 v=51
38800 On ch=2 n=g#4 v=51
39890 On ch=2 n=g#4 v=0
39890 On ch=2 n=c#5 v=0
40972 On ch=2 n=c5 v=55
40972 On ch=2 n=g4 v=55
42050 On ch=2 n=g4 v=0
42050 On ch=2 n=c5 v=0
43096 On ch=2 n=a#4 v=50
43096 On ch=2 n=f4 v=50
44148 On ch=2 n=f4 v=0
44148 On ch=2 n=a#4 v=0
45226 On ch=2 n=c5 v=53
45226 On ch=2 n=f4 v=53
46252 On ch=2 n=f4 v=0
46252 On ch=2 n=c5 v=0
47260 On ch=2 n=c#5 v=63
47260 On ch=2 n=g4 v=63
47260 On ch=2 n=f4 v=63
48234 On ch=2 n=f4 v=0
48234 On ch=2 n=g4 v=0
48234 On ch=2 n=c#5 v=0
49282 On ch=2 n=c#5 v=58
49282 On ch=2 n=a#4 v=58
49282 On ch=2 n=e4 v=58
50350 On ch=2 n=e4 v=0
50350 On ch=2 n=a#4 v=0
50350 On ch=2 n=c#5 v=0
51418 On ch=2 n=c5 v=53
51418 On ch=2 n=g#4 v=53
52506 On ch=2 n=g#4 v=0
52506 On ch=2 n=c5 v=0
52524 Par ch=2 c=64 v=127
53566 On ch=2 n=c#5 v=55
53566 On ch=2 n=g4 v=55
53566 On ch=2 n=f4 v=55
54656 On ch=2 n=f4 v=0
54656 On ch=2 n=g4 v=0
54656 On ch=2 n=c#5 v=0
54656 On ch=2 n=c#5 v=54
54656 On ch=2 n=g4 v=54
54656 On ch=2 n=f4 v=54
55700 On ch=2 n=f4 v=0
55700 On ch=2 n=g4 v=0
55700 On ch=2 n=c#5 v=0
55700 On ch=2 n=c#5 v=54
55700 On ch=2 n=g4 v=54
55700 On ch=2 n=f4 v=54
56734 Par ch=2 c=64 v=0
56744 On ch=2 n=f4 v=0
56744 On ch=2 n=g4 v=0
56744 On ch=2 n=c#5 v=0
57770 On ch=2 n=c5 v=56
57770 On ch=2 n=f4 v=56
58812 On ch=2 n=f4 v=0
58812 On ch=2 n=c5 v=0
59860 On ch=2 n=a#4 v=55
59860 On ch=2 n=f4 v=55
60942 On ch=2 n=f4 v=0
60942 On ch=2 n=a#4 v=0
60942 On ch=2 n=a#4 v=53
60942 On ch=2 n=f4 v=53
62000 On ch=2 n=f4 v=0
62000 On ch=2 n=a#4 v=0
62000 On ch=2 n=a#4 v=55
62000 On ch=2 n=f4 v=55
63064 On ch=2 n=f4 v=0
63064 On ch=2 n=a#4 v=0
64108 On ch=2 n=c5 v=55
64108 On ch=2 n=f4 v=55
65140 On ch=2 n=f4 v=0
65140 On ch=2 n=c5 v=0
65156 Par ch=2 c=64 v=127
66114 On ch=2 n=c#5 v=66
66114 On ch=2 n=g4 v=66
66114 On ch=2 n=f4 v=66
67090 On ch=2 n=f4 v=0
67090 On ch=2 n=g4 v=0
67090 On ch=2 n=c#5 v=0
67090 On ch=2 n=c#5 v=64
67090 On ch=2 n=g4 v=64
67090 On ch=2 n=f4 v=64
68156 On ch=2 n=f4 v=0
68156 On ch=2 n=g4 v=0
68156 On ch=2 n=c#5 v=0
68156 On ch=2 n=c#5 v=57
68156 On ch=2 n=g4 v=57
68156 On ch=2 n=f4 v=57
69188 Par ch=2 c=64 v=0
69198 On ch=2 n=f4 v=0
69198 On ch=2 n=g4 v=0
69198 On ch=2 n=c#5 v=0
70214 On ch=2 n=c5 v=67
70214 On ch=2 n=f4 v=67
71188 On ch=2 n=f4 v=0
71188 On ch=2 n=c5 v=0
72106 On ch=2 n=a#4 v=76
72106 On ch=2 n=f4 v=76
73124 On ch=2 n=f4 v=0
73124 On ch=2 n=a#4 v=0
73124 On ch=2 n=a#4 v=59
73124 On ch=2 n=f4 v=59
74170 On ch=2 n=f4 v=0
74170 On ch=2 n=a#4 v=0
74170 On ch=2 n=a#4 v=57
74170 On ch=2 n=f4 v=57
75174 On ch=2 n=f4 v=0
75174 On ch=2 n=a#4 v=0
76164 On ch=2 n=c5 v=66
76164 On ch=2 n=f4 v=66
77174 On ch=2 n=f4 v=0
77174 On ch=2 n=c5 v=0
77190 Par ch=2 c=64 v=127
78134 On ch=2 n=c#5 v=76
78134 On ch=2 n=f#4 v=76
79092 On ch=2 n=f#4 v=0
79092 On ch=2 n=c#5 v=0
79092 On ch=2 n=c#5 v=78
79092 On ch=2 n=f#4 v=78
80014 On ch=2 n=f#4 v=0
80014 On ch=2 n=c#5 v=0
80014 On ch=2 n=c#5 v=101
80014 On ch=2 n=f#4 v=101
81030 On ch=2 n=f#4 v=0
81030 On ch=2 n=c#5 v=0
82098 On ch=2 n=c#5 v=76
82098 On ch=2 n=f#4 v=76
83088 Par ch=2 c=64 v=0
83114 On ch=2 n=f#4 v=0
83114 On ch=2 n=c#5 v=0
83130 Par ch=2 c=64 v=127
84164 On ch=2 n=c#5 v=76
84164 On ch=2 n=g4 v=76
85182 On ch=2 n=g4 v=0
85182 On ch=2 n=c#5 v=0
85182 On ch=2 n=c#5 v=76
85182 On ch=2 n=g4 v=76
86250 On ch=2 n=g4 v=0
86250 On ch=2 n=c#5 v=0
86250 On ch=2 n=c#5 v=76
86250 On ch=2 n=g4 v=76
87280 On ch=2 n=g4 v=0
87280 On ch=2 n=c#5 v=0
87280 On ch=2 n=c#5 v=69
87280 On ch=2 n=g4 v=69
89242 Par ch=2 c=64 v=0
89294 On ch=2 n=g4 v=0
89294 On ch=2 n=c#5 v=0
89312 Par ch=2 c=64 v=127
157890 Par ch=2 c=64 v=0
187128 On ch=2 n=f5 v=64
187128 On ch=2 n=c5 v=64
187128 On ch=2 n=g#4 v=64
188114 On ch=2 n=g#4 v=0
188114 On ch=2 n=c5 v=0
188114 On ch=2 n=f5 v=0
188114 On ch=2 n=f5 v=68
188114 On ch=2 n=c#5 v=68
188114 On ch=2 n=g#4 v=68
189096 On ch=2 n=g#4 v=0
189096 On ch=2 n=c#5 v=0
189096 On ch=2 n=f5 v=0
189096 On ch=2 n=f5 v=64
189096 On ch=2 n=c5 v=64
189096 On ch=2 n=g#4 v=64
190070 On ch=2 n=g#4 v=0
190070 On ch=2 n=c5 v=0
190070 On ch=2 n=f5 v=0
190070 On ch=2 n=f5 v=60
190070 On ch=2 n=c#5 v=60
190070 On ch=2 n=g#4 v=60
191076 On ch=2 n=g#4 v=0
191076 On ch=2 n=c#5 v=0
191076 On ch=2 n=f5 v=0
191076 On ch=2 n=f5 v=56
191076 On ch=2 n=c5 v=56
191076 On ch=2 n=g#4 v=56
192062 On ch=2 n=g#4 v=0
192062 On ch=2 n=c5 v=0
192062 On ch=2 n=f5 v=0
193072 On ch=2 n=f5 v=58
193072 On ch=2 n=c5 v=58
194102 On ch=2 n=c5 v=0
194102 On ch=2 n=f5 v=0
195110 On ch=2 n=d#5 v=55
195110 On ch=2 n=a#4 v=55
196144 On ch=2 n=a#4 v=0
196144 On ch=2 n=d#5 v=0
197174 On ch=2 n=c#5 v=53
197174 On ch=2 n=g#4 v=53
198204 On ch=2 n=g#4 v=0
198204 On ch=2 n=c#5 v=0
199232 On ch=2 n=c5 v=53
199232 On ch=2 n=g4 v=53
200274 On ch=2 n=g4 v=0
200274 On ch=2 n=c5 v=0
201334 On ch=2 n=a#4 v=46
201334 On ch=2 n=f4 v=46
202386 On ch=2 n=f4 v=0
202386 On ch=2 n=a#4 v=0
203396 On ch=2 n=c5 v=60
203396 On ch=2 n=f4 v=60
204380 On ch=2 n=f4 v=0
204380 On ch=2 n=c5 v=0
205332 On ch=2 n=c#5 v=75
205332 On ch=2 n=g4 v=75
205332 On ch=2 n=f4 v=75
206280 On ch=2 n=f4 v=0
206280 On ch=2 n=g4 v=0
206280 On ch=2 n=c#5 v=0
207298 On ch=2 n=c#5 v=64
207298 On ch=2 n=a#4 v=64
207298 On ch=2 n=e4 v=64
208294 On ch=2 n=e4 v=0
208294 On ch=2 n=a#4 v=0
208294 On ch=2 n=c#5 v=0
209298 On ch=2 n=c5 v=57
209298 On ch=2 n=g#4 v=57
210316 On ch=2 n=g#4 v=0
210316 On ch=2 n=c5 v=0
210332 Par ch=2 c=64 v=127
211306 On ch=2 n=c#5 v=57
211306 On ch=2 n=g4 v=57
211306 On ch=2 n=f4 v=57
212286 On ch=2 n=f4 v=0
212286 On ch=2 n=g4 v=0
212286 On ch=2 n=c#5 v=0
212286 On ch=2 n=c#5 v=57
212286 On ch=2 n=g4 v=57
212286 On ch=2 n=f4 v=57
213260 On ch=2 n=f4 v=0
213260 On ch=2 n=g4 v=0
213260 On ch=2 n=c#5 v=0
213260 On ch=2 n=c#5 v=53
213260 On ch=2 n=g4 v=53
213260 On ch=2 n=f4 v=53
214206 Par ch=2 c=64 v=0
214236 On ch=2 n=f4 v=0
214236 On ch=2 n=g4 v=0
214236 On ch=2 n=c#5 v=0
215184 On ch=2 n=c5 v=66
215184 On ch=2 n=f4 v=66
216180 On ch=2 n=f4 v=0
216180 On ch=2 n=c5 v=0
217192 On ch=2 n=a#4 v=62
217192 On ch=2 n=f4 v=62
218234 On ch=2 n=f4 v=0
218234 On ch=2 n=a#4 v=0
218234 On ch=2 n=a#4 v=51
218234 On ch=2 n=f4 v=51
219220 On ch=2 n=f4 v=0
219220 On ch=2 n=a#4 v=0
219220 On ch=2 n=a#4 v=58
219220 On ch=2 n=f4 v=58
220210 On ch=2 n=f4 v=0
220210 On ch=2 n=a#4 v=0
221184 On ch=2 n=c5 v=60
221184 On ch=2 n=f4 v=60
222164 On ch=2 n=f4 v=0
222164 On ch=2 n=c5 v=0
222180 Par ch=2 c=64 v=127
223120 On ch=2 n=c#5 v=66
223120 On ch=2 n=g4 v=66
223120 On ch=2 n=f4 v=66
224066 On ch=2 n=f4 v=0
224066 On ch=2 n=g4 v=0
224066 On ch=2 n=c#5 v=0
224066 On ch=2 n=c#5 v=71
224066 On ch=2 n=g4 v=71
224066 On ch=2 n=f4 v=71
225052 On ch=2 n=f4 v=0
225052 On ch=2 n=g4 v=0
225052 On ch=2 n=c#5 v=0
225052 On ch=2 n=c#5 v=71
225052 On ch=2 n=g4 v=71
225052 On ch=2 n=f4 v=71
226048 Par ch=2 c=64 v=0
226058 On ch=2 n=f4 v=0
226058 On ch=2 n=g4 v=0
226058 On ch=2 n=c#5 v=0
227096 On ch=2 n=c5 v=71
227096 On ch=2 n=f4 v=71
228026 On ch=2 n=f4 v=0
228026 On ch=2 n=c5 v=0
228960 On ch=2 n=a#4 v=71
228960 On ch=2 n=f4 v=71
229952 On ch=2 n=f4 v=0
229952 On ch=2 n=a#4 v=0
229952 On ch=2 n=a#4 v=56
229952 On ch=2 n=f4 v=56
230980 On ch=2 n=f4 v=0
230980 On ch=2 n=a#4 v=0
230980 On ch=2 n=a#4 v=53
230980 On ch=2 n=f4 v=53
232012 On ch=2 n=f4 v=0
232012 On ch=2 n=a#4 v=0
232986 On ch=2 n=c5 v=56
232986 On ch=2 n=f4 v=56
233988 On ch=2 n=f4 v=0
233988 On ch=2 n=c5 v=0
234004 Par ch=2 c=64 v=127
234960 On ch=2 n=c#5 v=63
234960 On ch=2 n=f#4 v=63
235920 On ch=2 n=f#4 v=0
235920 On ch=2 n=c#5 v=0
235920 On ch=2 n=c#5 v=77
235920 On ch=2 n=f#4 v=77
236890 On ch=2 n=f#4 v=0
236890 On ch=2 n=c#5 v=0
236890 On ch=2 n=c#5 v=81
236890 On ch=2 n=f#4 v=81
237894 On ch=2 n=f#4 v=0
237894 On ch=2 n=c#5 v=0
238926 On ch=2 n=c#5 v=83
238926 On ch=2 n=f#4 v=83
239964 Par ch=2 c=64 v=0
239974 On ch=2 n=f#4 v=0
239974 On ch=2 n=c#5 v=0
239990 Par ch=2 c=64 v=127
240992 On ch=2 n=c#5 v=80
240992 On ch=2 n=g4 v=80
242008 On ch=2 n=g4 v=0
242008 On ch=2 n=c#5 v=0
242008 On ch=2 n=c#5 v=77
242008 On ch=2 n=g4 v=77
243040 On ch=2 n=g4 v=0
243040 On ch=2 n=c#5 v=0
243040 On ch=2 n=c#5 v=72
243040 On ch=2 n=g4 v=72
244050 On ch=2 n=g4 v=0
244050 On ch=2 n=c#5 v=0
244050 On ch=2 n=c#5 v=72
244050 On ch=2 n=g4 v=72
246024 Par ch=2 c=64 v=0
246040 On ch=2 n=g4 v=0
246040 On ch=2 n=c#5 v=0
316708 On ch=2 n=d#4 v=80
316708 On ch=2 n=d#3 v=80
316724 Par ch=2 c=64 v=127
317632 On ch=2 n=d#3 v=0
317632 On ch=2 n=d#4 v=0
317632 On ch=2 n=d#5 v=80
317632 On ch=2 n=d#4 v=80
318060 On ch=2 n=d#4 v=0
318060 On ch=2 n=d#5 v=0
318060 On ch=2 n=d#5 v=80
318060 On ch=2 n=d#4 v=80
318454 On ch=2 n=d#4 v=0
318454 On ch=2 n=d#5 v=0
318454 On ch=2 n=d#5 v=80
318454 On ch=2 n=d#4 v=80
319312 On ch=2 n=d#4 v=0
319312 On ch=2 n=d#5 v=0
319312 On ch=2 n=d#5 v=80
319312 On ch=2 n=d#4 v=80
320166 Par ch=2 c=64 v=0
320174 On ch=2 n=d#4 v=0
320174 On ch=2 n=d#5 v=0
320174 On ch=2 n=f5 v=80
320174 On ch=2 n=g#4 v=80
321026 On ch=2 n=g#4 v=0
321026 On ch=2 n=f5 v=0
321882 On ch=2 n=d#4 v=80
321882 On ch=2 n=d#3 v=80
321896 Par ch=2 c=64 v=127
322718 On ch=2 n=d#3 v=0
322718 On ch=2 n=d#4 v=0
322718 On ch=2 n=d#5 v=80
322718 On ch=2 n=d#4 v=80
323092 On ch=2 n=d#4 v=0
323092 On ch=2 n=d#5 v=0
323092 On ch=2 n=d#5 v=80
323092 On ch=2 n=d#4 v=80
323468 On ch=2 n=d#4 v=0
323468 On ch=2 n=d#5 v=0
323468 On ch=2 n=d#5 v=80
323468 On ch=2 n=d#4 v=80
324320 On ch=2 n=d#4 v=0
324320 On ch=2 n=d#5 v=0
324320 On ch=2 n=d#5 v=80
324320 On ch=2 n=d#4 v=80
325154 Par ch=2 c=64 v=0
325162 On ch=2 n=d#4 v=0
325162 On ch=2 n=d#5 v=0
325162 On ch=2 n=g#5 v=80
325162 On ch=2 n=d#5 v=80
325162 On ch=2 n=g#4 v=80
325990 On ch=2 n=g#4 v=0
325990 On ch=2 n=d#5 v=0
325990 On ch=2 n=g#5 v=0
326786 On ch=2 n=c4 v=80
326798 Par ch=2 c=64 v=127
327564 On ch=2 n=c4 v=0
327564 On ch=2 n=g5 v=80
327564 On ch=2 n=c5 v=80
327912 On ch=2 n=c5 v=0
327912 On ch=2 n=g5 v=0
327912 On ch=2 n=g5 v=80
327912 On ch=2 n=c5 v=80
328284 On ch=2 n=c5 v=0
328284 On ch=2 n=g5 v=0
328284 On ch=2 n=g5 v=80
328284 On ch=2 n=c5 v=80
329080 On ch=2 n=c5 v=0
329080 On ch=2 n=g5 v=0
329080 On ch=2 n=g5 v=80
329080 On ch=2 n=c5 v=80
329866 Par ch=2 c=64 v=0
329888 On ch=2 n=c5 v=0
329888 On ch=2 n=g5 v=0
329888 On ch=2 n=f5 v=80
329888 On ch=2 n=f4 v=80
330642 On ch=2 n=f4 v=0
330642 On ch=2 n=f5 v=0
331420 On ch=2 n=c4 v=80
331432 Par ch=2 c=64 v=127
332168 On ch=2 n=c4 v=0
332168 On ch=2 n=g5 v=80
332168 On ch=2 n=c5 v=80
332536 On ch=2 n=c5 v=0
332536 On ch=2 n=g5 v=0
332536 On ch=2 n=g5 v=80
332536 On ch=2 n=c5 v=80
332904 On ch=2 n=c5 v=0
332904 On ch=2 n=g5 v=0
332904 On ch=2 n=g5 v=80
332904 On ch=2 n=c5 v=80
333664 On ch=2 n=c5 v=0
333664 On ch=2 n=g5 v=0
333664 On ch=2 n=g5 v=76
333664 On ch=2 n=c5 v=76
334378 Par ch=2 c=64 v=0
334386 On ch=2 n=c5 v=0
334386 On ch=2 n=g5 v=0
334386 On ch=2 n=f5 v=72
334386 On ch=2 n=f4 v=72
335122 On ch=2 n=f4 v=0
335122 On ch=2 n=f5 v=0
335858 On ch=2 n=g#3 v=80
335870 Par ch=2 c=64 v=127
336654 On ch=2 n=g#3 v=0
336654 On ch=2 n=d#5 v=85
336654 On ch=2 n=g#4 v=85
337016 On ch=2 n=g#4 v=0
337016 On ch=2 n=d#5 v=0
337016 On ch=2 n=d#5 v=85
337016 On ch=2 n=g#4 v=85
337370 On ch=2 n=g#4 v=0
337370 On ch=2 n=d#5 v=0
337370 On ch=2 n=d#5 v=85
337370 On ch=2 n=g#4 v=85
338132 On ch=2 n=g#4 v=0
338132 On ch=2 n=d#5 v=0
338132 On ch=2 n=d#5 v=81
338132 On ch=2 n=g#4 v=81
338846 Par ch=2 c=64 v=0
338862 On ch=2 n=g#4 v=0
338862 On ch=2 n=d#5 v=0
338862 On ch=2 n=c#5 v=78
338862 On ch=2 n=c#4 v=78
339612 On ch=2 n=c#4 v=0
339612 On ch=2 n=c#5 v=0
340362 On ch=2 n=g#3 v=81
340374 Par ch=2 c=64 v=127
341122 On ch=2 n=g#3 v=0
341122 On ch=2 n=g#5 v=82
341122 On ch=2 n=f5 v=82
341122 On ch=2 n=g#4 v=82
341484 On ch=2 n=g#4 v=0
341484 On ch=2 n=f5 v=0
341484 On ch=2 n=g#5 v=0
341484 On ch=2 n=g#5 v=79
341484 On ch=2 n=f5 v=79
341484 On ch=2 n=g#4 v=79
341852 On ch=2 n=g#4 v=0
341852 On ch=2 n=f5 v=0
341852 On ch=2 n=g#5 v=0
341852 On ch=2 n=g#5 v=79
341852 On ch=2 n=f5 v=79
341852 On ch=2 n=g#4 v=79
342568 On ch=2 n=g#4 v=0
342568 On ch=2 n=f5 v=0
342568 On ch=2 n=g#5 v=0
342568 On ch=2 n=g#5 v=79
342568 On ch=2 n=f5 v=79
342568 On ch=2 n=g#4 v=79
343274 Par ch=2 c=64 v=0
343296 On ch=2 n=g#4 v=0
343296 On ch=2 n=f5 v=0
343296 On ch=2 n=g#5 v=0
343296 On ch=2 n=f5 v=83
343296 On ch=2 n=c#5 v=83
343986 On ch=2 n=c#5 v=0
343986 On ch=2 n=f5 v=0
344734 On ch=2 n=f3 v=91
344746 Par ch=2 c=64 v=127
345492 On ch=2 n=f3 v=0
345492 On ch=2 n=c6 v=88
345492 On ch=2 n=f5 v=88
345814 On ch=2 n=f5 v=0
345814 On ch=2 n=c6 v=0
345814 On ch=2 n=c6 v=88
345814 On ch=2 n=f5 v=88
346166 On ch=2 n=f5 v=0
346166 On ch=2 n=c6 v=0
346166 On ch=2 n=c6 v=88
346166 On ch=2 n=f5 v=88
346928 On ch=2 n=f5 v=0
346928 On ch=2 n=c6 v=0
346928 On ch=2 n=c6 v=88
346928 On ch=2 n=f5 v=88
347650 Par ch=2 c=64 v=0
347670 On ch=2 n=f5 v=0
347670 On ch=2 n=c6 v=0
347670 On ch=2 n=a#5 v=88
347670 On ch=2 n=f5 v=88
347670 On ch=2 n=a#4 v=88
348410 On ch=2 n=a#4 v=0
348410 On ch=2 n=f5 v=0
348410 On ch=2 n=a#5 v=0
349144 On ch=2 n=f4 v=88
349156 Par ch=2 c=64 v=127
349874 On ch=2 n=f4 v=0
349874 On ch=2 n=c6 v=88
349874 On ch=2 n=f5 v=88
350212 On ch=2 n=f5 v=0
350212 On ch=2 n=c6 v=0
350212 On ch=2 n=c6 v=88
350212 On ch=2 n=f5 v=88
350534 On ch=2 n=f5 v=0
350534 On ch=2 n=c6 v=0
350534 On ch=2 n=c6 v=88
350534 On ch=2 n=f5 v=88
351296 On ch=2 n=f5 v=0
351296 On ch=2 n=c6 v=0
351296 On ch=2 n=c6 v=87
351296 On ch=2 n=f5 v=87
352000 Par ch=2 c=64 v=0
352046 On ch=2 n=f5 v=0
352046 On ch=2 n=c6 v=0
352046 On ch=2 n=a#5 v=86
352046 On ch=2 n=f5 v=86
352046 On ch=2 n=a#4 v=86
352784 On ch=2 n=a#4 v=0
352784 On ch=2 n=f5 v=0
352784 On ch=2 n=a#5 v=0
386342 On ch=2 n=g5 v=96
386342 On ch=2 n=d#5 v=96
386356 Par ch=2 c=64 v=127
387202 On ch=2 n=a#5 v=96
387202 On ch=2 n=a#4 v=96
387906 On ch=2 n=a#4 v=0
387906 On ch=2 n=a#5 v=0
387906 On ch=2 n=d#5 v=0
387906 On ch=2 n=g5 v=0
387906 On ch=2 n=g5 v=101
387906 On ch=2 n=d#5 v=101
388762 On ch=2 n=d#5 v=0
388762 On ch=2 n=g5 v=0
388762 On ch=2 n=a#5 v=100
388762 On ch=2 n=a#4 v=100
389504 Par ch=2 c=64 v=0
389586 On ch=2 n=a#4 v=0
389586 On ch=2 n=a#5 v=0
389586 On ch=2 n=g5 v=112
389586 On ch=2 n=d#5 v=112
390462 On ch=2 n=d#5 v=0
390462 On ch=2 n=g5 v=0
390462 On ch=2 n=a#5 v=92
390462 On ch=2 n=c#5 v=92
391210 On ch=2 n=c#5 v=0
391210 On ch=2 n=a#5 v=0
391210 On ch=2 n=a#5 v=102
391210 On ch=2 n=g5 v=102
391210 On ch=2 n=d5 v=102
391222 Par ch=2 c=64 v=127
392042 On ch=2 n=d5 v=0
392042 On ch=2 n=g5 v=0
392042 On ch=2 n=a#5 v=0
393666 On ch=2 n=a#4 v=90
393666 On ch=2 n=g4 v=90
393666 On ch=2 n=d4 v=90
394500 On ch=2 n=d4 v=0
394500 On ch=2 n=g4 v=0
394500 On ch=2 n=a#4 v=0
394500 On ch=2 n=a#4 v=86
394500 On ch=2 n=g4 v=86
394500 On ch=2 n=d4 v=86
395296 On ch=2 n=d4 v=0
395296 On ch=2 n=g4 v=0
395296 On ch=2 n=a#4 v=0
395296 On ch=2 n=a#4 v=89
395296 On ch=2 n=g4 v=89
395296 On ch=2 n=d4 v=89
396030 Par ch=2 c=64 v=0
396086 On ch=2 n=d4 v=0
396086 On ch=2 n=g4 v=0
396086 On ch=2 n=a#4 v=0
396086 On ch=2 n=a#4 v=90
396086 On ch=2 n=g4 v=90
396086 On ch=2 n=d4 v=90
396100 Par ch=2 c=64 v=127
396874 On ch=2 n=d4 v=0
396874 On ch=2 n=g4 v=0
396874 On ch=2 n=a#4 v=0
396874 On ch=2 n=a#4 v=90
396874 On ch=2 n=g4 v=90
396874 On ch=2 n=d4 v=90
397678 On ch=2 n=d4 v=0
397678 On ch=2 n=g4 v=0
397678 On ch=2 n=a#4 v=0
398522 On ch=2 n=a#4 v=90
398522 On ch=2 n=g4 v=90
398522 On ch=2 n=d4 v=90
399326 On ch=2 n=d4 v=0
399326 On ch=2 n=g4 v=0
399326 On ch=2 n=a#4 v=0
399326 On ch=2 n=a#4 v=90
399326 On ch=2 n=g4 v=90
399326 On ch=2 n=d4 v=90
400144 On ch=2 n=d4 v=0
400144 On ch=2 n=g4 v=0
400144 On ch=2 n=a#4 v=0
400144 On ch=2 n=a#4 v=90
400144 On ch=2 n=g4 v=90
400144 On ch=2 n=d4 v=90
400942 Par ch=2 c=64 v=0
400960 On ch=2 n=d4 v=0
400960 On ch=2 n=g4 v=0
400960 On ch=2 n=a#4 v=0
400960 On ch=2 n=a#4 v=90
400960 On ch=2 n=g4 v=90
400960 On ch=2 n=c#4 v=90
400974 Par ch=2 c=64 v=127
401796 On ch=2 n=c#4 v=0
401796 On ch=2 n=g4 v=0
401796 On ch=2 n=a#4 v=0
401796 On ch=2 n=a#4 v=90
401796 On ch=2 n=g4 v=90
401796 On ch=2 n=c#4 v=90
402616 On ch=2 n=c#4 v=0
402616 On ch=2 n=g4 v=0
402616 On ch=2 n=a#4 v=0
403458 On ch=2 n=a#4 v=86
403458 On ch=2 n=g4 v=86
403458 On ch=2 n=c#4 v=86
404282 On ch=2 n=c#4 v=0
404282 On ch=2 n=g4 v=0
404282 On ch=2 n=a#4 v=0
404282 On ch=2 n=a#4 v=83
404282 On ch=2 n=g4 v=83
404282 On ch=2 n=c#4 v=83
405094 On ch=2 n=c#4 v=0
405094 On ch=2 n=g4 v=0
405094 On ch=2 n=a#4 v=0
405094 On ch=2 n=a#4 v=83
405094 On ch=2 n=g4 v=83
405094 On ch=2 n=c#4 v=83
405892 Par ch=2 c=64 v=0
405906 On ch=2 n=c#4 v=0
405906 On ch=2 n=g4 v=0
405906 On ch=2 n=a#4 v=0
405906 On ch=2 n=a#4 v=82
405906 On ch=2 n=g4 v=82
405906 On ch=2 n=c4 v=82
405920 Par ch=2 c=64 v=127
406722 On ch=2 n=c4 v=0
406722 On ch=2 n=g4 v=0
406722 On ch=2 n=a#4 v=0
406722 On ch=2 n=a#4 v=80
406722 On ch=2 n=g4 v=80
406722 On ch=2 n=c4 v=80
407550 On ch=2 n=c4 v=0
407550 On ch=2 n=g4 v=0
407550 On ch=2 n=a#4 v=0
408394 On ch=2 n=a#4 v=76
408394 On ch=2 n=g4 v=76
408394 On ch=2 n=c4 v=76
409234 On ch=2 n=c4 v=0
409234 On ch=2 n=g4 v=0
409234 On ch=2 n=a#4 v=0
409234 On ch=2 n=a#4 v=76
409234 On ch=2 n=g4 v=76
409234 On ch=2 n=c4 v=76
410070 On ch=2 n=c4 v=0
410070 On ch=2 n=g4 v=0
410070 On ch=2 n=a#4 v=0
410070 On ch=2 n=a#4 v=75
410070 On ch=2 n=g4 v=75
410070 On ch=2 n=c4 v=75
410892 Par ch=2 c=64 v=0
410906 On ch=2 n=c4 v=0
410906 On ch=2 n=g4 v=0
410906 On ch=2 n=a#4 v=0
410906 On ch=2 n=g#4 v=75
410906 On ch=2 n=g4 v=75
410906 On ch=2 n=c4 v=75
410920 Par ch=2 c=64 v=127
411734 On ch=2 n=c4 v=0
411734 On ch=2 n=g4 v=0
411734 On ch=2 n=g#4 v=0
411734 On ch=2 n=g#4 v=75
411734 On ch=2 n=g4 v=75
411734 On ch=2 n=c4 v=75
412578 On ch=2 n=c4 v=0
412578 On ch=2 n=g4 v=0
412578 On ch=2 n=g#4 v=0
413444 On ch=2 n=g#4 v=74
413444 On ch=2 n=g4 v=74
413444 On ch=2 n=c4 v=74
414310 On ch=2 n=c4 v=0
414310 On ch=2 n=g4 v=0
414310 On ch=2 n=g#4 v=0
414310 On ch=2 n=g#4 v=70
414310 On ch=2 n=g4 v=70
414310 On ch=2 n=c4 v=70
415184 On ch=2 n=c4 v=0
415184 On ch=2 n=g4 v=0
415184 On ch=2 n=g#4 v=0
415184 On ch=2 n=g#4 v=71
415184 On ch=2 n=g4 v=71
415184 On ch=2 n=c4 v=71
416038 Par ch=2 c=64 v=0
416052 On ch=2 n=c4 v=0
416052 On ch=2 n=g4 v=0
416052 On ch=2 n=g#4 v=0
416052 On ch=2 n=g#4 v=69
416052 On ch=2 n=f4 v=69
416052 On ch=2 n=c4 v=69
416066 Par ch=2 c=64 v=127
416956 On ch=2 n=c4 v=0
416956 On ch=2 n=f4 v=0
416956 On ch=2 n=g#4 v=0
416956 On ch=2 n=g#4 v=67
416956 On ch=2 n=f4 v=67
416956 On ch=2 n=c4 v=67
417866 On ch=2 n=c4 v=0
417866 On ch=2 n=f4 v=0
417866 On ch=2 n=g#4 v=0
418766 On ch=2 n=g#4 v=67
418766 On ch=2 n=f4 v=67
418766 On ch=2 n=c4 v=67
419668 On ch=2 n=c4 v=0
419668 On ch=2 n=f4 v=0
419668 On ch=2 n=g#4 v=0
419668 On ch=2 n=g#4 v=69
419668 On ch=2 n=f4 v=69
419668 On ch=2 n=c4 v=69
420578 On ch=2 n=c4 v=0
420578 On ch=2 n=f4 v=0
420578 On ch=2 n=g#4 v=0
420578 On ch=2 n=g#4 v=66
420578 On ch=2 n=f4 v=66
420578 On ch=2 n=c4 v=66
421496 Par ch=2 c=64 v=0
421528 On ch=2 n=c4 v=0
421528 On ch=2 n=f4 v=0
421528 On ch=2 n=g#4 v=0
421528 On ch=2 n=g4 v=64
421528 On ch=2 n=f4 v=64
421528 On ch=2 n=c4 v=64
422444 On ch=2 n=c4 v=0
422444 On ch=2 n=f4 v=0
422444 On ch=2 n=g4 v=0
422444 On ch=2 n=g4 v=63
422444 On ch=2 n=f4 v=63
422444 On ch=2 n=c4 v=63
423390 On ch=2 n=c4 v=0
423390 On ch=2 n=f4 v=0
423390 On ch=2 n=g4 v=0
424366 On ch=2 n=g4 v=63
424366 On ch=2 n=f4 v=63
424366 On ch=2 n=c4 v=63
425390 On ch=2 n=c4 v=0
425390 On ch=2 n=f4 v=0
425390 On ch=2 n=g4 v=0
425390 On ch=2 n=g4 v=58
425390 On ch=2 n=f4 v=58
425390 On ch=2 n=c4 v=58
426484 On ch=2 n=c4 v=0
426484 On ch=2 n=f4 v=0
426484 On ch=2 n=g4 v=0
426484 On ch=2 n=g4 v=56
426484 On ch=2 n=f4 v=56
426484 On ch=2 n=c4 v=56
427686 On ch=2 n=c4 v=0
427686 On ch=2 n=f4 v=0
427686 On ch=2 n=g4 v=0
427686 On ch=2 n=g4 v=50
427686 On ch=2 n=c4 v=50
427686 On ch=2 n=e4 v=50
431044 On ch=2 n=e4 v=0
431044 On ch=2 n=c4 v=0
431044 On ch=2 n=g4 v=0
431044 On ch=2 n=a#4 v=56
431044 On ch=2 n=g4 v=56
432144 On ch=2 n=g4 v=0
432144 On ch=2 n=a#4 v=0
432144 On ch=2 n=g#4 v=59
432144 On ch=2 n=f4 v=59
433162 On ch=2 n=f4 v=0
433162 On ch=2 n=g#4 v=0
433162 On ch=2 n=g4 v=64
433162 On ch=2 n=e4 v=64
434170 On ch=2 n=e4 v=0
434170 On ch=2 n=g4 v=0
435086 On ch=2 n=f5 v=72
435086 On ch=2 n=c5 v=72
435086 On ch=2 n=g#4 v=72
436016 On ch=2 n=g#4 v=0
436016 On ch=2 n=c5 v=0
436016 On ch=2 n=f5 v=0
436016 On ch=2 n=f5 v=72
436016 On ch=2 n=c#5 v=72
436016 On ch=2 n=g#4 v=72
436930 On ch=2 n=g#4 v=0
436930 On ch=2 n=c#5 v=0
436930 On ch=2 n=f5 v=0
436930 On ch=2 n=f5 v=71
436930 On ch=2 n=c5 v=71
436930 On ch=2 n=g#4 v=71
437836 On ch=2 n=g#4 v=0
437836 On ch=2 n=c5 v=0
437836 On ch=2 n=f5 v=0
437836 On ch=2 n=f5 v=72
437836 On ch=2 n=c#5 v=72
437836 On ch=2 n=g#4 v=72
438734 On ch=2 n=g#4 v=0
438734 On ch=2 n=c#5 v=0
438734 On ch=2 n=f5 v=0
438734 On ch=2 n=f5 v=65
438734 On ch=2 n=c5 v=65
438734 On ch=2 n=g#4 v=65
439678 On ch=2 n=g#4 v=0
439678 On ch=2 n=c5 v=0
439678 On ch=2 n=f5 v=0
440620 On ch=2 n=f5 v=70
440620 On ch=2 n=c5 v=70
441584 On ch=2 n=c5 v=0
441584 On ch=2 n=f5 v=0
442500 On ch=2 n=d#5 v=63
442500 On ch=2 n=a#4 v=63
443454 On ch=2 n=a#4 v=0
443454 On ch=2 n=d#5 v=0
444388 On ch=2 n=c#5 v=61
444388 On ch=2 n=g#4 v=61
445346 On ch=2 n=g#4 v=0
445346 On ch=2 n=c#5 v=0
446284 On ch=2 n=c5 v=56
446284 On ch=2 n=g4 v=56
447228 On ch=2 n=g4 v=0
447228 On ch=2 n=c5 v=0
448144 On ch=2 n=a#4 v=61
448144 On ch=2 n=f4 v=61
449062 On ch=2 n=f4 v=0
449062 On ch=2 n=a#4 v=0
449966 On ch=2 n=c5 v=63
449966 On ch=2 n=f4 v=63
450876 On ch=2 n=f4 v=0
450876 On ch=2 n=c5 v=0
451720 On ch=2 n=c#5 v=75
451720 On ch=2 n=g4 v=75
451720 On ch=2 n=f4 v=75
452592 On ch=2 n=f4 v=0
452592 On ch=2 n=g4 v=0
452592 On ch=2 n=c#5 v=0
453526 On ch=2 n=c#5 v=75
453526 On ch=2 n=a#4 v=75
453526 On ch=2 n=e4 v=75
454408 On ch=2 n=e4 v=0
454408 On ch=2 n=a#4 v=0
454408 On ch=2 n=c#5 v=0
455294 On ch=2 n=c5 v=70
455294 On ch=2 n=g#4 v=70
456190 On ch=2 n=g#4 v=0
456190 On ch=2 n=c5 v=0
456206 Par ch=2 c=64 v=127
457086 On ch=2 n=c#5 v=73
457086 On ch=2 n=g4 v=73
457086 On ch=2 n=f4 v=73
458004 On ch=2 n=f4 v=0
458004 On ch=2 n=g4 v=0
458004 On ch=2 n=c#5 v=0
458004 On ch=2 n=c#5 v=68
458004 On ch=2 n=g4 v=68
458004 On ch=2 n=f4 v=68
458866 On ch=2 n=f4 v=0
458866 On ch=2 n=g4 v=0
458866 On ch=2 n=c#5 v=0
458866 On ch=2 n=c#5 v=70
458866 On ch=2 n=g4 v=70
458866 On ch=2 n=f4 v=70
459752 Par ch=2 c=64 v=0
459780 On ch=2 n=f4 v=0
459780 On ch=2 n=g4 v=0
459780 On ch=2 n=c#5 v=0
460672 On ch=2 n=c5 v=75
460672 On ch=2 n=f4 v=75
461582 On ch=2 n=f4 v=0
461582 On ch=2 n=c5 v=0
462498 On ch=2 n=a#4 v=75
462498 On ch=2 n=f4 v=75
463400 On ch=2 n=f4 v=0
463400 On ch=2 n=a#4 v=0
463400 On ch=2 n=a#4 v=65
463400 On ch=2 n=f4 v=65
464306 On ch=2 n=f4 v=0
464306 On ch=2 n=a#4 v=0
464306 On ch=2 n=a#4 v=63
464306 On ch=2 n=f4 v=63
465208 On ch=2 n=f4 v=0
465208 On ch=2 n=a#4 v=0
466096 On ch=2 n=c5 v=73
466096 On ch=2 n=f4 v=73
467012 On ch=2 n=f4 v=0
467012 On ch=2 n=c5 v=0
467028 Par ch=2 c=64 v=127
467850 On ch=2 n=c#5 v=76
467850 On ch=2 n=g4 v=76
467850 On ch=2 n=f4 v=76
468706 On ch=2 n=f4 v=0
468706 On ch=2 n=g4 v=0
468706 On ch=2 n=c#5 v=0
468706 On ch=2 n=c#5 v=76
468706 On ch=2 n=g4 v=76
468706 On ch=2 n=f4 v=76
469652 On ch=2 n=f4 v=0
469652 On ch=2 n=g4 v=0
469652 On ch=2 n=c#5 v=0
469652 On ch=2 n=c#5 v=74
469652 On ch=2 n=g4 v=74
469652 On ch=2 n=f4 v=74
470544 Par ch=2 c=64 v=0
470552 On ch=2 n=f4 v=0
470552 On ch=2 n=g4 v=0
470552 On ch=2 n=c#5 v=0
471438 On ch=2 n=c5 v=75
471438 On ch=2 n=f4 v=75
472276 On ch=2 n=f4 v=0
472276 On ch=2 n=c5 v=0
473096 On ch=2 n=a#4 v=76
473096 On ch=2 n=f4 v=76
473992 On ch=2 n=f4 v=0
473992 On ch=2 n=a#4 v=0
473992 On ch=2 n=a#4 v=76
473992 On ch=2 n=f4 v=76
474906 On ch=2 n=f4 v=0
474906 On ch=2 n=a#4 v=0
474906 On ch=2 n=a#4 v=76
474906 On ch=2 n=f4 v=76
475814 On ch=2 n=f4 v=0
475814 On ch=2 n=a#4 v=0
476718 On ch=2 n=c5 v=76
476718 On ch=2 n=f4 v=76
477620 On ch=2 n=f4 v=0
477620 On ch=2 n=c5 v=0
477634 Par ch=2 c=64 v=127
478504 On ch=2 n=c#5 v=78
478504 On ch=2 n=f#4 v=78
479392 On ch=2 n=f#4 v=0
479392 On ch=2 n=c#5 v=0
479392 On ch=2 n=c#5 v=84
479392 On ch=2 n=f#4 v=84
480240 On ch=2 n=f#4 v=0
480240 On ch=2 n=c#5 v=0
480240 On ch=2 n=c#5 v=93
480240 On ch=2 n=f#4 v=93
481136 On ch=2 n=f#4 v=0
481136 On ch=2 n=c#5 v=0
482060 On ch=2 n=c#5 v=100
482060 On ch=2 n=f#4 v=100
483000 Par ch=2 c=64 v=0
483008 On ch=2 n=f#4 v=0
483008 On ch=2 n=c#5 v=0
483024 Par ch=2 c=64 v=127
483900 On ch=2 n=c#5 v=92
483900 On ch=2 n=g4 v=92
484780 On ch=2 n=g4 v=0
484780 On ch=2 n=c#5 v=0
484780 On ch=2 n=c#5 v=81
484780 On ch=2 n=g4 v=81
485710 On ch=2 n=g4 v=0
485710 On ch=2 n=c#5 v=0
485710 On ch=2 n=c#5 v=83
485710 On ch=2 n=g4 v=83
486622 On ch=2 n=g4 v=0
486622 On ch=2 n=c#5 v=0
486622 On ch=2 n=c#5 v=81
486622 On ch=2 n=g4 v=81
488292 Par ch=2 c=64 v=0
488326 On ch=2 n=g4 v=0
488326 On ch=2 n=c#5 v=0
552912 Par ch=2 c=64 v=127
553956 On ch=2 n=d#4 v=49
554964 On ch=2 n=d#4 v=0
555968 On ch=2 n=d#4 v=56
556910 Par ch=2 c=64 v=0
556918 On ch=2 n=d#4 v=0
556918 On ch=2 n=f4 v=54
557890 On ch=2 n=f4 v=0
557890 On ch=2 n=g4 v=55
558866 On ch=2 n=g4 v=0
558882 Par ch=2 c=64 v=127
559846 On ch=2 n=d#4 v=52
560790 On ch=2 n=d#4 v=0
560790 On ch=2 n=g#4 v=51
561732 On ch=2 n=g#4 v=0
562680 On ch=2 n=g#3 v=56
563614 On ch=2 n=g#3 v=0
563614 On ch=2 n=d#4 v=55
564552 Par ch=2 c=64 v=0
564588 On ch=2 n=d#4 v=0
564588 On ch=2 n=g#3 v=52
564604 Par ch=2 c=64 v=127
565582 On ch=2 n=g#3 v=0
565582 On ch=2 n=f4 v=49
566582 On ch=2 n=f4 v=0
566582 On ch=2 n=b4 v=52
567552 On ch=2 n=b4 v=0
567552 On ch=2 n=f4 v=51
568528 On ch=2 n=f4 v=0
568528 On ch=2 n=g#3 v=49
569498 On ch=2 n=g#3 v=0
569498 On ch=2 n=b4 v=47
570464 Par ch=2 c=64 v=0
570474 On ch=2 n=b4 v=0
570490 Par ch=2 c=64 v=127
573312 Par ch=2 c=64 v=0
576216 Par ch=2 c=64 v=127
577064 On ch=2 n=d#4 v=69
577952 On ch=2 n=d#4 v=0
577952 On ch=2 n=c5 v=72
578810 On ch=2 n=c5 v=0
578810 On ch=2 n=d#4 v=71
579680 Par ch=2 c=64 v=0
579718 On ch=2 n=d#4 v=0
580632 On ch=2 n=c#5 v=59
580632 On ch=2 n=g4 v=59
581554 On ch=2 n=g4 v=0
581554 On ch=2 n=c#5 v=0
582452 On ch=2 n=c5 v=64
582452 On ch=2 n=g#4 v=64
583396 On ch=2 n=g#4 v=0
583396 On ch=2 n=c5 v=0
584346 On ch=2 n=c#5 v=59
584346 On ch=2 n=g#4 v=59
585278 On ch=2 n=g#4 v=0
585278 On ch=2 n=c#5 v=0
586210 On ch=2 n=d5 v=55
586210 On ch=2 n=g#4 v=55
587148 On ch=2 n=g#4 v=0
587148 On ch=2 n=d5 v=0
587148 On ch=2 n=d#5 v=56
587634 On ch=2 n=d#5 v=0
587634 On ch=2 n=f5 v=52
588098 On ch=2 n=f5 v=0
588098 On ch=2 n=d#5 v=55
589036 On ch=2 n=d#5 v=0
589036 On ch=2 n=c#5 v=52
589970 On ch=2 n=c#5 v=0
589970 On ch=2 n=c5 v=54
590938 On ch=2 n=c5 v=0
590938 On ch=2 n=a#4 v=52
591926 On ch=2 n=a#4 v=0
591926 On ch=2 n=g#4 v=51
592942 On ch=2 n=g#4 v=0
592942 On ch=2 n=c#5 v=46
592942 On ch=2 n=a#4 v=46
592942 On ch=2 n=g#4 v=46
593948 On ch=2 n=g#4 v=0
593948 On ch=2 n=g4 v=46
594998 On ch=2 n=g4 v=0
594998 On ch=2 n=a#4 v=0
594998 On ch=2 n=c#5 v=0
594998 On ch=2 n=c#5 v=42
594998 On ch=2 n=a#4 v=42
594998 On ch=2 n=g4 v=42
597024 On ch=2 n=g4 v=0
597024 On ch=2 n=a#4 v=0
597024 On ch=2 n=c#5 v=0
597024 On ch=2 n=c5 v=48
597024 On ch=2 n=g#4 v=48
598008 On ch=2 n=g#4 v=0
598008 On ch=2 n=c5 v=0
599008 Par ch=2 c=64 v=127
600002 On ch=2 n=d#4 v=55
601012 On ch=2 n=d#4 v=0
601992 On ch=2 n=d#4 v=55
602938 Par ch=2 c=64 v=0
602950 On ch=2 n=d#4 v=0
602950 On ch=2 n=f4 v=57
603918 On ch=2 n=f4 v=0
603918 On ch=2 n=g4 v=57
604854 On ch=2 n=g4 v=0
604870 Par ch=2 c=64 v=127
605760 On ch=2 n=d#4 v=60
606684 On ch=2 n=d#4 v=0
606684 On ch=2 n=g#4 v=60
607608 On ch=2 n=g#4 v=0
608546 On ch=2 n=g#3 v=63
609446 On ch=2 n=g#3 v=0
609446 On ch=2 n=d#4 v=59
610356 Par ch=2 c=64 v=0
610364 On ch=2 n=d#4 v=0
610364 On ch=2 n=g#3 v=68
610380 Par ch=2 c=64 v=127
611306 On ch=2 n=g#3 v=0
611306 On ch=2 n=f4 v=64
612272 On ch=2 n=f4 v=0
612272 On ch=2 n=b4 v=61
613214 On ch=2 n=b4 v=0
613214 On ch=2 n=f4 v=60
614142 On ch=2 n=f4 v=0
614142 On ch=2 n=g#3 v=59
615066 On ch=2 n=g#3 v=0
615066 On ch=2 n=b4 v=59
615982 Par ch=2 c=64 v=0
615990 On ch=2 n=b4 v=0
616006 Par ch=2 c=64 v=127
618748 Par ch=2 c=64 v=0
621538 Par ch=2 c=64 v=127
622440 On ch=2 n=d#4 v=71
623370 On ch=2 n=d#4 v=0
623370 On ch=2 n=c5 v=72
624284 On ch=2 n=c5 v=0
624284 On ch=2 n=d#4 v=68
625180 Par ch=2 c=64 v=0
625188 On ch=2 n=d#4 v=0
626156 On ch=2 n=c#5 v=57
626156 On ch=2 n=g4 v=57
627094 On ch=2 n=g4 v=0
627094 On ch=2 n=c#5 v=0
628022 On ch=2 n=c5 v=55
628022 On ch=2 n=g#4 v=55
629020 On ch=2 n=g#4 v=0
629020 On ch=2 n=c5 v=0
630020 On ch=2 n=c#5 v=54
630020 On ch=2 n=g#4 v=54
630996 On ch=2 n=g#4 v=0
630996 On ch=2 n=c#5 v=0
631996 On ch=2 n=d5 v=48
631996 On ch=2 n=g#4 v=48
632972 On ch=2 n=g#4 v=0
632972 On ch=2 n=d5 v=0
632972 On ch=2 n=d#5 v=51
633466 On ch=2 n=d#5 v=0
633466 On ch=2 n=f5 v=52
633948 On ch=2 n=f5 v=0
633948 On ch=2 n=d#5 v=46
634910 On ch=2 n=d#5 v=0
634910 On ch=2 n=c#5 v=39
635864 On ch=2 n=c#5 v=0
635864 On ch=2 n=c5 v=47
636828 On ch=2 n=c5 v=0
636828 On ch=2 n=a#4 v=55
637840 On ch=2 n=a#4 v=0
637840 On ch=2 n=g#4 v=49
638838 On ch=2 n=c#5 v=52
638838 On ch=2 n=a#4 v=52
638838 On ch=2 n=d#4 v=52
638838 On ch=2 n=g#4 v=52
639856 On ch=2 n=g#4 v=0
639856 On ch=2 n=g4 v=49
640860 On ch=2 n=g4 v=0
640860 On ch=2 n=d#4 v=0
640860 On ch=2 n=a#4 v=0
640860 On ch=2 n=c#5 v=0
640860 On ch=2 n=c#5 v=54
640860 On ch=2 n=a#4 v=54
640860 On ch=2 n=g4 v=54
640860 On ch=2 n=d#4 v=54
641918 On ch=2 n=d#4 v=0
641918 On ch=2 n=d#4 v=55
642866 On ch=2 n=d#4 v=0
642866 On ch=2 n=g4 v=0
642866 On ch=2 n=a#4 v=0
642866 On ch=2 n=c#5 v=0
642866 On ch=2 n=c5 v=54
642866 On ch=2 n=c5 v=54
642866 On ch=2 n=g#4 v=54
643820 On ch=2 n=c5 v=0
643820 On ch=2 n=c5 v=0
643820 On ch=2 n=g#4 v=0
645676 On ch=2 n=d#5 v=78
645676 On ch=2 n=a#4 v=78
646554 On ch=2 n=a#4 v=0
646554 On ch=2 n=d#5 v=0
647392 On ch=2 n=d#5 v=83
647392 On ch=2 n=a#4 v=83
648316 On ch=2 n=a#4 v=0
648316 On ch=2 n=d#5 v=0
649244 On ch=2 n=d#5 v=90
649244 On ch=2 n=a4 v=90
650174 On ch=2 n=a4 v=0
650174 On ch=2 n=d#5 v=0
650190 Par ch=2 c=64 v=127
651096 On ch=2 n=f4 v=94
652018 On ch=2 n=f4 v=0
652018 On ch=2 n=c#5 v=93
652018 On ch=2 n=a#4 v=93
652924 On ch=2 n=a#4 v=0
652924 On ch=2 n=c#5 v=0
652924 On ch=2 n=f4 v=96
653814 Par ch=2 c=64 v=0
653874 On ch=2 n=f4 v=0
653874 On ch=2 n=e4 v=102
654818 On ch=2 n=c#5 v=102
654818 On ch=2 n=g#4 v=102
655728 On ch=2 n=c#5 v=0
655728 On ch=2 n=e4 v=0
655728 On ch=2 n=g#4 v=0
655728 On ch=2 n=d#4 v=107
655728 On ch=2 n=d#3 v=107
655744 Par ch=2 c=64 v=127
656612 On ch=2 n=d#3 v=0
656612 On ch=2 n=d#4 v=0
656612 On ch=2 n=c#5 v=107
656612 On ch=2 n=a#4 v=107
656612 On ch=2 n=d#4 v=107
657530 On ch=2 n=d#4 v=0
657530 On ch=2 n=a#4 v=0
657530 On ch=2 n=c#5 v=0
657530 On ch=2 n=d#5 v=108
657530 On ch=2 n=g4 v=108
658408 On ch=2 n=g4 v=0
658408 On ch=2 n=d#4 v=105
659344 On ch=2 n=d#4 v=0
659344 On ch=2 n=d#5 v=0
659344 On ch=2 n=c#5 v=98
659344 On ch=2 n=g4 v=98
660234 On ch=2 n=g4 v=0
660234 On ch=2 n=c#5 v=0
660234 On ch=2 n=d#5 v=97
660234 On ch=2 n=c#5 v=97
660234 On ch=2 n=d#4 v=97
661152 Par ch=2 c=64 v=0
661172 On ch=2 n=d#4 v=0
661172 On ch=2 n=c#5 v=0
661172 On ch=2 n=d#5 v=0
661172 On ch=2 n=g#3 v=97
661188 Par ch=2 c=64 v=127
662088 On ch=2 n=g#3 v=0
662088 On ch=2 n=e4 v=97
663024 On ch=2 n=e4 v=0
663024 On ch=2 n=c#5 v=87
663024 On ch=2 n=g4 v=87
663960 On ch=2 n=g4 v=0
663960 On ch=2 n=c#5 v=0
663960 On ch=2 n=e4 v=84
664908 Par ch=2 c=64 v=0
664930 On ch=2 n=e4 v=0
664930 On ch=2 n=c#5 v=84
664930 On ch=2 n=g4 v=84
665880 On ch=2 n=g4 v=0
665880 On ch=2 n=c#5 v=0
665880 On ch=2 n=e4 v=82
666846 On ch=2 n=e4 v=0
666846 On ch=2 n=g#3 v=83
666862 Par ch=2 c=64 v=127
667872 On ch=2 n=g#3 v=0
667872 On ch=2 n=c#5 v=81
667872 On ch=2 n=g4 v=81
667872 On ch=2 n=d#4 v=81
668846 Par ch=2 c=64 v=0
668888 On ch=2 n=d#4 v=0
668888 On ch=2 n=g4 v=0
668888 On ch=2 n=c#5 v=0
668888 On ch=2 n=g#3 v=78
668906 Par ch=2 c=64 v=127
669828 On ch=2 n=g#3 v=0
669828 On ch=2 n=d#4 v=97
670742 On ch=2 n=d#4 v=0
670742 On ch=2 n=c5 v=93
670742 On ch=2 n=g#4 v=93
671720 On ch=2 n=c5 v=0
671720 On ch=2 n=g#4 v=0
671720 On ch=2 n=d#4 v=86
672184 Par ch=2 c=64 v=0
672682 On ch=2 n=d#4 v=0
672682 On ch=2 n=d#3 v=80
672698 Par ch=2 c=64 v=127
673640 On ch=2 n=d#3 v=0
673640 On ch=2 n=d#5 v=80
673640 On ch=2 n=d#4 v=80
674588 Par ch=2 c=64 v=0
674598 On ch=2 n=d#4 v=0
674598 On ch=2 n=d#5 v=0
674598 On ch=2 n=g#4 v=79
675520 On ch=2 n=g#4 v=0
675520 On ch=2 n=d#5 v=81
676426 On ch=2 n=d#5 v=0
677358 On ch=2 n=d#5 v=81
678304 On ch=2 n=d#5 v=0
678304 On ch=2 n=g#4 v=83
679228 On ch=2 n=g#4 v=0
679228 On ch=2 n=c#6 v=84
679228 On ch=2 n=g5 v=84
679228 On ch=2 n=d#5 v=84
680180 On ch=2 n=d#5 v=0
680180 On ch=2 n=g5 v=0
680180 On ch=2 n=c#6 v=0
680180 On ch=2 n=g#4 v=77
681112 On ch=2 n=g#4 v=0
681112 On ch=2 n=d#5 v=75
682044 On ch=2 n=d#5 v=0
682044 On ch=2 n=c6 v=76
682958 On ch=2 n=c6 v=0
682958 On ch=2 n=d#5 v=83
683836 On ch=2 n=d#5 v=0
683836 On ch=2 n=d#4 v=85
684740 On ch=2 n=d#4 v=0
684740 On ch=2 n=c#6 v=83
684740 On ch=2 n=g5 v=83
684740 On ch=2 n=d#5 v=83
685646 On ch=2 n=d#5 v=0
685646 On ch=2 n=g5 v=0
685646 On ch=2 n=c#6 v=0
685646 On ch=2 n=c6 v=82
685646 On ch=2 n=g#5 v=82
686538 On ch=2 n=g#5 v=0
686538 On ch=2 n=c6 v=0
687400 On ch=2 n=f#6 v=78
687400 On ch=2 n=a5 v=78
689140 On ch=2 n=a5 v=0
689140 On ch=2 n=f#6 v=0
689140 On ch=2 n=g6 v=71
689140 On ch=2 n=a#5 v=71
691016 On ch=2 n=a#5 v=0
691016 On ch=2 n=g6 v=0
694732 On ch=2 n=d#5 v=60
694732 On ch=2 n=a#4 v=60
695230 On ch=2 n=d#5 v=0
695230 On ch=2 n=e5 v=63
695726 On ch=2 n=e5 v=0
695726 On ch=2 n=f5 v=65
696236 On ch=2 n=a#4 v=0
696236 On ch=2 n=a#4 v=64
696744 On ch=2 n=f5 v=0
696744 On ch=2 n=d#4 v=60
698918 On ch=2 n=c#5 v=53
701542 On ch=2 n=c#5 v=0
701542 On ch=2 n=d#4 v=0
701542 On ch=2 n=a#4 v=0
701566 Par ch=2 c=64 v=127
702712 On ch=2 n=d#4 v=59
703802 On ch=2 n=d#4 v=0
704822 On ch=2 n=d#4 v=51
705816 Par ch=2 c=64 v=0
705826 On ch=2 n=d#4 v=0
705826 On ch=2 n=f4 v=54
706804 On ch=2 n=f4 v=0
706804 On ch=2 n=g4 v=53
707858 On ch=2 n=g4 v=0
707876 Par ch=2 c=64 v=127
708820 On ch=2 n=d#4 v=55
709776 On ch=2 n=d#4 v=0
709776 On ch=2 n=g#4 v=67
710756 On ch=2 n=g#4 v=0
711686 On ch=2 n=g#3 v=71
712586 On ch=2 n=g#3 v=0
712586 On ch=2 n=d#4 v=67
713494 Par ch=2 c=64 v=0
713502 On ch=2 n=d#4 v=0
713502 On ch=2 n=g#3 v=71
713518 Par ch=2 c=64 v=127
714400 On ch=2 n=g#3 v=0
714400 On ch=2 n=f4 v=74
715378 On ch=2 n=f4 v=0
715378 On ch=2 n=b4 v=71
716312 On ch=2 n=b4 v=0
716312 On ch=2 n=f4 v=71
717282 On ch=2 n=f4 v=0
717282 On ch=2 n=g#3 v=63
718206 On ch=2 n=g#3 v=0
718206 On ch=2 n=b4 v=62
719112 Par ch=2 c=64 v=0
719120 On ch=2 n=b4 v=0
719136 Par ch=2 c=64 v=127
721860 Par ch=2 c=64 v=0
724640 Par ch=2 c=64 v=127
725526 On ch=2 n=d#4 v=67
726440 On ch=2 n=d#4 v=0
726440 On ch=2 n=c5 v=65
727374 On ch=2 n=c5 v=0
727374 On ch=2 n=d#4 v=66
728326 Par ch=2 c=64 v=0
728340 On ch=2 n=d#4 v=0
729302 On ch=2 n=c#5 v=59
729302 On ch=2 n=g4 v=59
730296 On ch=2 n=g4 v=0
730296 On ch=2 n=c#5 v=0
731306 On ch=2 n=c5 v=62
731306 On ch=2 n=g#4 v=62
732316 On ch=2 n=c5 v=0
732316 On ch=2 n=g#4 v=0
733354 On ch=2 n=c#5 v=59
733354 On ch=2 n=g#4 v=59
734402 On ch=2 n=c#5 v=0
734402 On ch=2 n=g#4 v=0
735424 On ch=2 n=d5 v=62
735424 On ch=2 n=g#4 v=62
736442 On ch=2 n=d5 v=0
736442 On ch=2 n=g#4 v=0
736442 On ch=2 n=d#5 v=59
736950 On ch=2 n=d#5 v=0
736950 On ch=2 n=f5 v=62
737430 On ch=2 n=f5 v=0
737430 On ch=2 n=d#5 v=71
738420 On ch=2 n=d#5 v=0
738420 On ch=2 n=c#5 v=58
739430 On ch=2 n=c#5 v=0
739430 On ch=2 n=c5 v=55
740438 On ch=2 n=c5 v=0
740438 On ch=2 n=a#4 v=53
741486 On ch=2 n=a#4 v=0
741486 On ch=2 n=g#4 v=51
742582 On ch=2 n=g#4 v=0
742582 On ch=2 n=c#5 v=55
742582 On ch=2 n=a#4 v=55
742582 On ch=2 n=g#4 v=55
743614 On ch=2 n=g#4 v=0
743614 On ch=2 n=g4 v=59
744762 On ch=2 n=g4 v=0
744762 On ch=2 n=a#4 v=0
744762 On ch=2 n=c#5 v=0
744762 On ch=2 n=c#5 v=57
744762 On ch=2 n=a#4 v=57
744762 On ch=2 n=g4 v=57
747078 On ch=2 n=g4 v=0
747078 On ch=2 n=a#4 v=0
747078 On ch=2 n=c#5 v=0
747078 On ch=2 n=c5 v=44
747078 On ch=2 n=g#4 v=44
748246 On ch=2 n=c5 v=0
748246 On ch=2 n=g#4 v=0
776304 On ch=2 n=f5 v=56
776304 On ch=2 n=c5 v=56
776304 On ch=2 n=g#4 v=56
777290 On ch=2 n=c5 v=0
777290 On ch=2 n=f5 v=0
777290 On ch=2 n=g#4 v=0
777290 On ch=2 n=f5 v=61
777290 On ch=2 n=c#5 v=61
777290 On ch=2 n=g#4 v=61
778286 On ch=2 n=c#5 v=0
778286 On ch=2 n=f5 v=0
778286 On ch=2 n=g#4 v=0
778286 On ch=2 n=f5 v=58
778286 On ch=2 n=c5 v=58
778286 On ch=2 n=g#4 v=58
779308 On ch=2 n=c5 v=0
779308 On ch=2 n=f5 v=0
779308 On ch=2 n=g#4 v=0
779308 On ch=2 n=f5 v=58
779308 On ch=2 n=c#5 v=58
779308 On ch=2 n=g#4 v=58
780304 On ch=2 n=c#5 v=0
780304 On ch=2 n=f5 v=0
780304 On ch=2 n=g#4 v=0
780304 On ch=2 n=f5 v=56
780304 On ch=2 n=c5 v=56
780304 On ch=2 n=g#4 v=56
781308 On ch=2 n=c5 v=0
781308 On ch=2 n=f5 v=0
781308 On ch=2 n=g#4 v=0
782280 On ch=2 n=f5 v=61
782280 On ch=2 n=c5 v=61
783296 On ch=2 n=c5 v=0
783296 On ch=2 n=f5 v=0
784342 On ch=2 n=d#5 v=54
784342 On ch=2 n=a#4 v=54
785334 On ch=2 n=a#4 v=0
785334 On ch=2 n=d#5 v=0
786336 On ch=2 n=c#5 v=52
786336 On ch=2 n=g#4 v=52
787368 On ch=2 n=c#5 v=0
787368 On ch=2 n=g#4 v=0
788402 On ch=2 n=c5 v=49
788402 On ch=2 n=g4 v=49
789436 On ch=2 n=g4 v=0
789436 On ch=2 n=c5 v=0
790434 On ch=2 n=a#4 v=49
790434 On ch=2 n=f4 v=49
791472 On ch=2 n=f4 v=0
791472 On ch=2 n=a#4 v=0
792508 On ch=2 n=c5 v=49
792508 On ch=2 n=f4 v=49
793500 On ch=2 n=f4 v=0
793500 On ch=2 n=c5 v=0
794394 On ch=2 n=c#5 v=76
794394 On ch=2 n=g4 v=76
794394 On ch=2 n=f4 v=76
795364 On ch=2 n=f4 v=0
795364 On ch=2 n=g4 v=0
795364 On ch=2 n=c#5 v=0
796372 On ch=2 n=c#5 v=58
796372 On ch=2 n=a#4 v=58
796372 On ch=2 n=e4 v=58
797390 On ch=2 n=e4 v=0
797390 On ch=2 n=a#4 v=0
797390 On ch=2 n=c#5 v=0
798416 On ch=2 n=c5 v=58
798416 On ch=2 n=g#4 v=58
799412 On ch=2 n=c5 v=0
799412 On ch=2 n=g#4 v=0
799428 Par ch=2 c=64 v=127
800444 On ch=2 n=c#5 v=56
800444 On ch=2 n=g4 v=56
800444 On ch=2 n=f4 v=56
801396 On ch=2 n=f4 v=0
801396 On ch=2 n=g4 v=0
801396 On ch=2 n=c#5 v=0
801396 On ch=2 n=c#5 v=58
801396 On ch=2 n=g4 v=58
801396 On ch=2 n=f4 v=58
802358 On ch=2 n=f4 v=0
802358 On ch=2 n=g4 v=0
802358 On ch=2 n=c#5 v=0
802358 On ch=2 n=c#5 v=61
802358 On ch=2 n=g4 v=61
802358 On ch=2 n=f4 v=61
803272 Par ch=2 c=64 v=0
803306 On ch=2 n=f4 v=0
803306 On ch=2 n=g4 v=0
803306 On ch=2 n=c#5 v=0
804252 On ch=2 n=c5 v=65
804252 On ch=2 n=f4 v=65
805238 On ch=2 n=f4 v=0
805238 On ch=2 n=c5 v=0
806222 On ch=2 n=a#4 v=67
806222 On ch=2 n=f4 v=67
807214 On ch=2 n=f4 v=0
807214 On ch=2 n=a#4 v=0
807214 On ch=2 n=a#4 v=62
807214 On ch=2 n=f4 v=62
808192 On ch=2 n=f4 v=0
808192 On ch=2 n=a#4 v=0
808192 On ch=2 n=a#4 v=61
808192 On ch=2 n=f4 v=61
809188 On ch=2 n=f4 v=0
809188 On ch=2 n=a#4 v=0
810156 On ch=2 n=c5 v=60
810156 On ch=2 n=f4 v=60
811136 On ch=2 n=f4 v=0
811136 On ch=2 n=c5 v=0
811152 Par ch=2 c=64 v=127
812034 On ch=2 n=c#5 v=73
812034 On ch=2 n=g4 v=73
812034 On ch=2 n=f4 v=73
812964 On ch=2 n=f4 v=0
812964 On ch=2 n=g4 v=0
812964 On ch=2 n=c#5 v=0
812964 On ch=2 n=c#5 v=74
812964 On ch=2 n=g4 v=74
812964 On ch=2 n=f4 v=74
813940 On ch=2 n=f4 v=0
813940 On ch=2 n=g4 v=0
813940 On ch=2 n=c#5 v=0
813940 On ch=2 n=c#5 v=73
813940 On ch=2 n=g4 v=73
813940 On ch=2 n=f4 v=73
814878 Par ch=2 c=64 v=0
814898 On ch=2 n=f4 v=0
814898 On ch=2 n=g4 v=0
814898 On ch=2 n=c#5 v=0
815818 On ch=2 n=c5 v=78
815818 On ch=2 n=f4 v=78
816796 On ch=2 n=f4 v=0
816796 On ch=2 n=c5 v=0
817704 On ch=2 n=a#4 v=78
817704 On ch=2 n=f4 v=78
818674 On ch=2 n=f4 v=0
818674 On ch=2 n=a#4 v=0
818674 On ch=2 n=a#4 v=60
818674 On ch=2 n=f4 v=60
819662 On ch=2 n=f4 v=0
819662 On ch=2 n=a#4 v=0
819662 On ch=2 n=a#4 v=61
819662 On ch=2 n=f4 v=61
820638 On ch=2 n=f4 v=0
820638 On ch=2 n=a#4 v=0
821580 On ch=2 n=c5 v=62
821580 On ch=2 n=f4 v=62
822526 On ch=2 n=f4 v=0
822526 On ch=2 n=c5 v=0
822542 Par ch=2 c=64 v=127
823416 On ch=2 n=c#5 v=78
823416 On ch=2 n=f#4 v=78
824298 On ch=2 n=f#4 v=0
824298 On ch=2 n=c#5 v=0
824298 On ch=2 n=c#5 v=78
824298 On ch=2 n=f#4 v=78
825194 On ch=2 n=f#4 v=0
825194 On ch=2 n=c#5 v=0
825194 On ch=2 n=c#5 v=89
825194 On ch=2 n=f#4 v=89
826136 On ch=2 n=f#4 v=0
826136 On ch=2 n=c#5 v=0
827094 On ch=2 n=c#5 v=97
827094 On ch=2 n=f#4 v=97
828030 Par ch=2 c=64 v=0
828040 On ch=2 n=f#4 v=0
828040 On ch=2 n=c#5 v=0
828056 Par ch=2 c=64 v=127
829002 On ch=2 n=c#5 v=78
829002 On ch=2 n=g4 v=78
829970 On ch=2 n=g4 v=0
829970 On ch=2 n=c#5 v=0
829970 On ch=2 n=c#5 v=78
829970 On ch=2 n=g4 v=78
830970 On ch=2 n=g4 v=0
830970 On ch=2 n=c#5 v=0
830970 On ch=2 n=c#5 v=73
830970 On ch=2 n=g4 v=73
831944 On ch=2 n=g4 v=0
831944 On ch=2 n=c#5 v=0
831944 On ch=2 n=c#5 v=63
831944 On ch=2 n=g4 v=63
833794 Par ch=2 c=64 v=0
833802 On ch=2 n=g4 v=0
833802 On ch=2 n=c#5 v=0
902230 On ch=2 n=d#4 v=78
902230 On ch=2 n=d#3 v=78
902246 Par ch=2 c=64 v=127
903060 On ch=2 n=d#3 v=0
903060 On ch=2 n=d#4 v=0
903060 On ch=2 n=d#5 v=78
903060 On ch=2 n=d#4 v=78
903390 On ch=2 n=d#4 v=0
903390 On ch=2 n=d#5 v=0
903390 On ch=2 n=d#5 v=78
903390 On ch=2 n=d#4 v=78
903714 On ch=2 n=d#4 v=0
903714 On ch=2 n=d#5 v=0
903714 On ch=2 n=d#5 v=78
903714 On ch=2 n=d#4 v=78
904526 On ch=2 n=d#4 v=0
904526 On ch=2 n=d#5 v=0
904526 On ch=2 n=d#5 v=78
904526 On ch=2 n=d#4 v=78
905284 Par ch=2 c=64 v=0
905316 On ch=2 n=d#4 v=0
905316 On ch=2 n=d#5 v=0
905316 On ch=2 n=f5 v=78
905316 On ch=2 n=g#4 v=78
906082 On ch=2 n=f5 v=0
906082 On ch=2 n=g#4 v=0
906782 On ch=2 n=d#4 v=78
906782 On ch=2 n=d#3 v=78
906794 Par ch=2 c=64 v=127
907536 On ch=2 n=d#3 v=0
907536 On ch=2 n=d#4 v=0
907536 On ch=2 n=d#5 v=78
907536 On ch=2 n=d#4 v=78
907858 On ch=2 n=d#4 v=0
907858 On ch=2 n=d#5 v=0
907858 On ch=2 n=d#5 v=78
907858 On ch=2 n=d#4 v=78
908158 On ch=2 n=d#4 v=0
908158 On ch=2 n=d#5 v=0
908158 On ch=2 n=d#5 v=78
908158 On ch=2 n=d#4 v=78
908862 On ch=2 n=d#4 v=0
908862 On ch=2 n=d#5 v=0
908862 On ch=2 n=d#5 v=78
908862 On ch=2 n=d#4 v=78
909586 Par ch=2 c=64 v=0
909622 On ch=2 n=d#4 v=0
909622 On ch=2 n=d#5 v=0
909622 On ch=2 n=g#5 v=78
909622 On ch=2 n=d#5 v=78
909622 On ch=2 n=g#4 v=78
910320 On ch=2 n=d#5 v=0
910320 On ch=2 n=g#5 v=0
910320 On ch=2 n=g#4 v=0
911022 On ch=2 n=c4 v=78
911034 Par ch=2 c=64 v=127
911760 On ch=2 n=c4 v=0
911760 On ch=2 n=g5 v=78
911760 On ch=2 n=c5 v=78
912098 On ch=2 n=c5 v=0
912098 On ch=2 n=g5 v=0
912098 On ch=2 n=g5 v=78
912098 On ch=2 n=c5 v=78
912438 On ch=2 n=c5 v=0
912438 On ch=2 n=g5 v=0
912438 On ch=2 n=g5 v=78
912438 On ch=2 n=c5 v=78
913156 On ch=2 n=c5 v=0
913156 On ch=2 n=g5 v=0
913156 On ch=2 n=g5 v=78
913156 On ch=2 n=c5 v=78
913908 Par ch=2 c=64 v=0
913920 On ch=2 n=c5 v=0
913920 On ch=2 n=g5 v=0
913920 On ch=2 n=f5 v=83
913920 On ch=2 n=f4 v=83
914658 On ch=2 n=f4 v=0
914658 On ch=2 n=f5 v=0
915364 On ch=2 n=c4 v=92
915376 Par ch=2 c=64 v=127
916142 On ch=2 n=c4 v=0
916142 On ch=2 n=g5 v=82
916142 On ch=2 n=c5 v=82
916478 On ch=2 n=c5 v=0
916478 On ch=2 n=g5 v=0
916478 On ch=2 n=g5 v=82
916478 On ch=2 n=c5 v=82
916812 On ch=2 n=c5 v=0
916812 On ch=2 n=g5 v=0
916812 On ch=2 n=g5 v=84
916812 On ch=2 n=c5 v=84
917538 On ch=2 n=c5 v=0
917538 On ch=2 n=g5 v=0
917538 On ch=2 n=g5 v=84
917538 On ch=2 n=c5 v=84
918222 Par ch=2 c=64 v=0
918276 On ch=2 n=c5 v=0
918276 On ch=2 n=g5 v=0
918276 On ch=2 n=f5 v=93
918276 On ch=2 n=f4 v=93
918968 On ch=2 n=f4 v=0
918968 On ch=2 n=f5 v=0
919670 On ch=2 n=g#3 v=83
919682 Par ch=2 c=64 v=127
920364 On ch=2 n=g#3 v=0
920364 On ch=2 n=d#5 v=80
920364 On ch=2 n=g#4 v=80
920712 On ch=2 n=d#5 v=0
920712 On ch=2 n=g#4 v=0
920712 On ch=2 n=d#5 v=80
920712 On ch=2 n=g#4 v=80
921054 On ch=2 n=d#5 v=0
921054 On ch=2 n=g#4 v=0
921054 On ch=2 n=d#5 v=79
921054 On ch=2 n=g#4 v=79
921796 On ch=2 n=d#5 v=0
921796 On ch=2 n=g#4 v=0
921796 On ch=2 n=d#5 v=78
921796 On ch=2 n=g#4 v=78
922476 Par ch=2 c=64 v=0
922490 On ch=2 n=d#5 v=0
922490 On ch=2 n=g#4 v=0
922490 On ch=2 n=c#5 v=78
922490 On ch=2 n=c#4 v=78
923178 On ch=2 n=c#4 v=0
923178 On ch=2 n=c#5 v=0
923894 On ch=2 n=g#3 v=81
923906 Par ch=2 c=64 v=127
924608 On ch=2 n=g#3 v=0
924608 On ch=2 n=g#5 v=79
924608 On ch=2 n=f5 v=79
924608 On ch=2 n=g#4 v=79
924956 On ch=2 n=f5 v=0
924956 On ch=2 n=g#5 v=0
924956 On ch=2 n=g#4 v=0
924956 On ch=2 n=g#5 v=79
924956 On ch=2 n=f5 v=79
924956 On ch=2 n=g#4 v=79
925296 On ch=2 n=f5 v=0
925296 On ch=2 n=g#5 v=0
925296 On ch=2 n=g#4 v=0
925296 On ch=2 n=g#5 v=79
925296 On ch=2 n=f5 v=79
925296 On ch=2 n=g#4 v=79
925964 On ch=2 n=f5 v=0
925964 On ch=2 n=g#5 v=0
925964 On ch=2 n=g#4 v=0
925964 On ch=2 n=g#5 v=79
925964 On ch=2 n=f5 v=79
925964 On ch=2 n=g#4 v=79
926618 Par ch=2 c=64 v=0
926624 On ch=2 n=f5 v=0
926624 On ch=2 n=g#5 v=0
926624 On ch=2 n=g#4 v=0
926624 On ch=2 n=f5 v=85
926624 On ch=2 n=c#5 v=85
927292 On ch=2 n=c#5 v=0
927292 On ch=2 n=f5 v=0
927976 On ch=2 n=f3 v=98
927988 Par ch=2 c=64 v=127
928754 On ch=2 n=f3 v=0
928754 On ch=2 n=c6 v=86
928754 On ch=2 n=f5 v=86
929100 On ch=2 n=f5 v=0
929100 On ch=2 n=c6 v=0
929100 On ch=2 n=c6 v=86
929100 On ch=2 n=f5 v=86
929440 On ch=2 n=f5 v=0
929440 On ch=2 n=c6 v=0
929440 On ch=2 n=c6 v=86
929440 On ch=2 n=f5 v=86
930136 On ch=2 n=f5 v=0
930136 On ch=2 n=c6 v=0
930136 On ch=2 n=c6 v=86
930136 On ch=2 n=f5 v=86
930810 Par ch=2 c=64 v=0
930836 On ch=2 n=f5 v=0
930836 On ch=2 n=c6 v=0
930836 On ch=2 n=a#5 v=86
930836 On ch=2 n=f5 v=86
930836 On ch=2 n=a#4 v=86
931542 On ch=2 n=a#4 v=0
931542 On ch=2 n=f5 v=0
931542 On ch=2 n=a#5 v=0
932250 On ch=2 n=f4 v=100
932262 Par ch=2 c=64 v=127
932992 On ch=2 n=f4 v=0
932992 On ch=2 n=c6 v=92
932992 On ch=2 n=f5 v=92
933328 On ch=2 n=f5 v=0
933328 On ch=2 n=c6 v=0
933328 On ch=2 n=c6 v=89
933328 On ch=2 n=f5 v=89
933668 On ch=2 n=f5 v=0
933668 On ch=2 n=c6 v=0
933668 On ch=2 n=c6 v=89
933668 On ch=2 n=f5 v=89
934374 On ch=2 n=f5 v=0
934374 On ch=2 n=c6 v=0
934374 On ch=2 n=c6 v=89
934374 On ch=2 n=f5 v=89
935064 Par ch=2 c=64 v=0
935108 On ch=2 n=f5 v=0
935108 On ch=2 n=c6 v=0
935108 On ch=2 n=a#5 v=103
935108 On ch=2 n=f5 v=103
935108 On ch=2 n=a#4 v=103
935806 On ch=2 n=a#4 v=0
935806 On ch=2 n=f5 v=0
935806 On ch=2 n=a#5 v=0
966724 On ch=2 n=g5 v=86
966724 On ch=2 n=d#5 v=86
966738 Par ch=2 c=64 v=127
967524 On ch=2 n=a#5 v=96
967524 On ch=2 n=a#4 v=96
968138 On ch=2 n=a#4 v=0
968138 On ch=2 n=a#5 v=0
968138 On ch=2 n=d#5 v=0
968138 On ch=2 n=g5 v=0
968138 On ch=2 n=g5 v=93
968138 On ch=2 n=d#5 v=93
968888 On ch=2 n=d#5 v=0
968888 On ch=2 n=g5 v=0
968888 On ch=2 n=a#5 v=99
968888 On ch=2 n=a#4 v=99
969678 Par ch=2 c=64 v=0
969686 On ch=2 n=a#4 v=0
969686 On ch=2 n=a#5 v=0
969686 On ch=2 n=g5 v=107
969686 On ch=2 n=d#5 v=107
970478 On ch=2 n=d#5 v=0
970478 On ch=2 n=g5 v=0
970478 On ch=2 n=a#5 v=90
970478 On ch=2 n=c#5 v=90
971258 On ch=2 n=c#5 v=0
971258 On ch=2 n=a#5 v=0
971258 On ch=2 n=a#5 v=111
971258 On ch=2 n=g5 v=111
971258 On ch=2 n=d5 v=111
971270 Par ch=2 c=64 v=127
972036 On ch=2 n=d5 v=0
972036 On ch=2 n=g5 v=0
972036 On ch=2 n=a#5 v=0
973562 On ch=2 n=a#4 v=89
973562 On ch=2 n=g4 v=89
973562 On ch=2 n=d4 v=89
974350 On ch=2 n=d4 v=0
974350 On ch=2 n=g4 v=0
974350 On ch=2 n=a#4 v=0
974350 On ch=2 n=a#4 v=87
974350 On ch=2 n=g4 v=87
974350 On ch=2 n=d4 v=87
975086 On ch=2 n=d4 v=0
975086 On ch=2 n=g4 v=0
975086 On ch=2 n=a#4 v=0
975086 On ch=2 n=a#4 v=87
975086 On ch=2 n=g4 v=87
975086 On ch=2 n=d4 v=87
975802 Par ch=2 c=64 v=0
975838 On ch=2 n=d4 v=0
975838 On ch=2 n=g4 v=0
975838 On ch=2 n=a#4 v=0
975838 On ch=2 n=a#4 v=93
975838 On ch=2 n=g4 v=93
975838 On ch=2 n=d4 v=93
975850 Par ch=2 c=64 v=127
976650 On ch=2 n=d4 v=0
976650 On ch=2 n=g4 v=0
976650 On ch=2 n=a#4 v=0
976650 On ch=2 n=a#4 v=87
976650 On ch=2 n=g4 v=87
976650 On ch=2 n=d4 v=87
977422 On ch=2 n=d4 v=0
977422 On ch=2 n=g4 v=0
977422 On ch=2 n=a#4 v=0
978182 On ch=2 n=a#4 v=87
978182 On ch=2 n=g4 v=87
978182 On ch=2 n=d4 v=87
978938 On ch=2 n=d4 v=0
978938 On ch=2 n=g4 v=0
978938 On ch=2 n=a#4 v=0
978938 On ch=2 n=a#4 v=87
978938 On ch=2 n=g4 v=87
978938 On ch=2 n=d4 v=87
979696 On ch=2 n=d4 v=0
979696 On ch=2 n=g4 v=0
979696 On ch=2 n=a#4 v=0
979696 On ch=2 n=a#4 v=83
979696 On ch=2 n=g4 v=83
979696 On ch=2 n=d4 v=83
980466 Par ch=2 c=64 v=0
980476 On ch=2 n=d4 v=0
980476 On ch=2 n=g4 v=0
980476 On ch=2 n=a#4 v=0
980476 On ch=2 n=a#4 v=83
980476 On ch=2 n=g4 v=83
980476 On ch=2 n=c#4 v=83
980488 Par ch=2 c=64 v=127
981234 On ch=2 n=c#4 v=0
981234 On ch=2 n=g4 v=0
981234 On ch=2 n=a#4 v=0
981234 On ch=2 n=a#4 v=83
981234 On ch=2 n=g4 v=83
981234 On ch=2 n=c#4 v=83
981990 On ch=2 n=c#4 v=0
981990 On ch=2 n=g4 v=0
981990 On ch=2 n=a#4 v=0
982758 On ch=2 n=a#4 v=81
982758 On ch=2 n=g4 v=81
982758 On ch=2 n=c#4 v=81
983514 On ch=2 n=c#4 v=0
983514 On ch=2 n=g4 v=0
983514 On ch=2 n=a#4 v=0
983514 On ch=2 n=a#4 v=79
983514 On ch=2 n=g4 v=79
983514 On ch=2 n=c#4 v=79
984256 On ch=2 n=c#4 v=0
984256 On ch=2 n=g4 v=0
984256 On ch=2 n=a#4 v=0
984256 On ch=2 n=a#4 v=79
984256 On ch=2 n=g4 v=79
984256 On ch=2 n=c#4 v=79
984986 Par ch=2 c=64 v=0
985026 On ch=2 n=c#4 v=0
985026 On ch=2 n=g4 v=0
985026 On ch=2 n=a#4 v=0
985026 On ch=2 n=a#4 v=78
985026 On ch=2 n=g4 v=78
985026 On ch=2 n=c4 v=78
985038 Par ch=2 c=64 v=127
985768 On ch=2 n=c4 v=0
985768 On ch=2 n=g4 v=0
985768 On ch=2 n=a#4 v=0
985768 On ch=2 n=a#4 v=78
985768 On ch=2 n=g4 v=78
985768 On ch=2 n=c4 v=78
986604 On ch=2 n=c4 v=0
986604 On ch=2 n=g4 v=0
986604 On ch=2 n=a#4 v=0
987396 On ch=2 n=a#4 v=76
987396 On ch=2 n=g4 v=76
987396 On ch=2 n=c4 v=76
988196 On ch=2 n=c4 v=0
988196 On ch=2 n=g4 v=0
988196 On ch=2 n=a#4 v=0
988196 On ch=2 n=a#4 v=69
988196 On ch=2 n=g4 v=69
988196 On ch=2 n=c4 v=69
988974 On ch=2 n=c4 v=0
988974 On ch=2 n=g4 v=0
988974 On ch=2 n=a#4 v=0
988974 On ch=2 n=a#4 v=75
988974 On ch=2 n=g4 v=75
988974 On ch=2 n=c4 v=75
989732 Par ch=2 c=64 v=0
989744 On ch=2 n=c4 v=0
989744 On ch=2 n=g4 v=0
989744 On ch=2 n=a#4 v=0
989744 On ch=2 n=g#4 v=75
989744 On ch=2 n=g4 v=75
989744 On ch=2 n=c4 v=75
989756 Par ch=2 c=64 v=127
990498 On ch=2 n=c4 v=0
990498 On ch=2 n=g4 v=0
990498 On ch=2 n=g#4 v=0
990498 On ch=2 n=g#4 v=73
990498 On ch=2 n=g4 v=73
990498 On ch=2 n=c4 v=73
991262 On ch=2 n=c4 v=0
991262 On ch=2 n=g4 v=0
991262 On ch=2 n=g#4 v=0
992054 On ch=2 n=g#4 v=71
992054 On ch=2 n=g4 v=71
992054 On ch=2 n=c4 v=71
992864 On ch=2 n=c4 v=0
992864 On ch=2 n=g4 v=0
992864 On ch=2 n=g#4 v=0
992864 On ch=2 n=g#4 v=62
992864 On ch=2 n=g4 v=62
992864 On ch=2 n=c4 v=62
993670 On ch=2 n=c4 v=0
993670 On ch=2 n=g4 v=0
993670 On ch=2 n=g#4 v=0
993670 On ch=2 n=g#4 v=62
993670 On ch=2 n=g4 v=62
993670 On ch=2 n=c4 v=62
994452 Par ch=2 c=64 v=0
994484 On ch=2 n=c4 v=0
994484 On ch=2 n=g4 v=0
994484 On ch=2 n=g#4 v=0
994484 On ch=2 n=g#4 v=57
994484 On ch=2 n=f4 v=57
994484 On ch=2 n=c4 v=57
994498 Par ch=2 c=64 v=127
995274 On ch=2 n=c4 v=0
995274 On ch=2 n=f4 v=0
995274 On ch=2 n=g#4 v=0
995274 On ch=2 n=g#4 v=62
995274 On ch=2 n=f4 v=62
995274 On ch=2 n=c4 v=62
996104 On ch=2 n=c4 v=0
996104 On ch=2 n=f4 v=0
996104 On ch=2 n=g#4 v=0
996938 On ch=2 n=g#4 v=58
996938 On ch=2 n=f4 v=58
996938 On ch=2 n=c4 v=58
997804 On ch=2 n=c4 v=0
997804 On ch=2 n=f4 v=0
997804 On ch=2 n=g#4 v=0
997804 On ch=2 n=g#4 v=51
997804 On ch=2 n=f4 v=51
997804 On ch=2 n=c4 v=51
998664 On ch=2 n=c4 v=0
998664 On ch=2 n=f4 v=0
998664 On ch=2 n=g#4 v=0
998664 On ch=2 n=g#4 v=50
998664 On ch=2 n=f4 v=50
998664 On ch=2 n=c4 v=50
999566 Par ch=2 c=64 v=0
999622 On ch=2 n=c4 v=0
999622 On ch=2 n=f4 v=0
999622 On ch=2 n=g#4 v=0
999622 On ch=2 n=g4 v=47
999622 On ch=2 n=f4 v=47
999622 On ch=2 n=c4 v=47
1000654 On ch=2 n=c4 v=0
1000654 On ch=2 n=f4 v=0
1000654 On ch=2 n=g4 v=0
1000654 On ch=2 n=g4 v=41
1000654 On ch=2 n=f4 v=41
1000654 On ch=2 n=c4 v=41
1001722 On ch=2 n=c4 v=0
1001722 On ch=2 n=f4 v=0
1001722 On ch=2 n=g4 v=0
1002794 On ch=2 n=g4 v=37
1002794 On ch=2 n=f4 v=37
1002794 On ch=2 n=c4 v=37
1003980 On ch=2 n=c4 v=0
1003980 On ch=2 n=f4 v=0
1003980 On ch=2 n=g4 v=0
1003980 On ch=2 n=g4 v=32
1003980 On ch=2 n=f4 v=32
1003980 On ch=2 n=c4 v=32
1005210 On ch=2 n=c4 v=0
1005210 On ch=2 n=f4 v=0
1005210 On ch=2 n=g4 v=0
1005210 On ch=2 n=g4 v=27
1005210 On ch=2 n=f4 v=27
1005210 On ch=2 n=c4 v=27
1006534 On ch=2 n=c4 v=0
1006534 On ch=2 n=f4 v=0
1006534 On ch=2 n=g4 v=0
1006534 On ch=2 n=g4 v=36
1006534 On ch=2 n=c4 v=36
1006534 On ch=2 n=e4 v=36
1010204 On ch=2 n=e4 v=0
1010204 On ch=2 n=c4 v=0
1010204 On ch=2 n=g4 v=0
1010204 On ch=2 n=a#4 v=38
1010204 On ch=2 n=g4 v=38
1011316 On ch=2 n=g4 v=0
1011316 On ch=2 n=a#4 v=0
1011316 On ch=2 n=g#4 v=51
1011316 On ch=2 n=f4 v=51
1012396 On ch=2 n=f4 v=0
1012396 On ch=2 n=g#4 v=0
1012396 On ch=2 n=g4 v=60
1012396 On ch=2 n=e4 v=60
1013458 On ch=2 n=e4 v=0
1013458 On ch=2 n=g4 v=0
1014430 On ch=2 n=f5 v=60
1014430 On ch=2 n=c5 v=60
1014430 On ch=2 n=g#4 v=60
1015350 On ch=2 n=c5 v=0
1015350 On ch=2 n=f5 v=0
1015350 On ch=2 n=g#4 v=0
1015350 On ch=2 n=f5 v=60
1015350 On ch=2 n=c#5 v=60
1015350 On ch=2 n=g#4 v=60
1016268 On ch=2 n=c#5 v=0
1016268 On ch=2 n=f5 v=0
1016268 On ch=2 n=g#4 v=0
1016268 On ch=2 n=f5 v=59
1016268 On ch=2 n=c5 v=59
1016268 On ch=2 n=g#4 v=59
1017186 On ch=2 n=c5 v=0
1017186 On ch=2 n=f5 v=0
1017186 On ch=2 n=g#4 v=0
1017186 On ch=2 n=f5 v=62
1017186 On ch=2 n=c#5 v=62
1017186 On ch=2 n=g#4 v=62
1018114 On ch=2 n=c#5 v=0
1018114 On ch=2 n=f5 v=0
1018114 On ch=2 n=g#4 v=0
1018114 On ch=2 n=f5 v=53
1018114 On ch=2 n=c5 v=53
1018114 On ch=2 n=g#4 v=53
1019118 On ch=2 n=c5 v=0
1019118 On ch=2 n=f5 v=0
1019118 On ch=2 n=g#4 v=0
1020060 On ch=2 n=f5 v=49
1020060 On ch=2 n=c5 v=49
1021060 On ch=2 n=c5 v=0
1021060 On ch=2 n=f5 v=0
1021990 On ch=2 n=d#5 v=54
1021990 On ch=2 n=a#4 v=54
1022930 On ch=2 n=a#4 v=0
1022930 On ch=2 n=d#5 v=0
1023876 On ch=2 n=c#5 v=56
1023876 On ch=2 n=g#4 v=56
1024864 On ch=2 n=c#5 v=0
1024864 On ch=2 n=g#4 v=0
1025848 On ch=2 n=c5 v=44
1025848 On ch=2 n=g4 v=44
1026832 On ch=2 n=g4 v=0
1026832 On ch=2 n=c5 v=0
1027788 On ch=2 n=a#4 v=53
1027788 On ch=2 n=f4 v=53
1028738 On ch=2 n=f4 v=0
1028738 On ch=2 n=a#4 v=0
1029696 On ch=2 n=c5 v=54
1029696 On ch=2 n=f4 v=54
1030638 On ch=2 n=f4 v=0
1030638 On ch=2 n=c5 v=0
1031508 On ch=2 n=c#5 v=71
1031508 On ch=2 n=g4 v=71
1031508 On ch=2 n=f4 v=71
1032376 On ch=2 n=f4 v=0
1032376 On ch=2 n=g4 v=0
1032376 On ch=2 n=c#5 v=0
1033298 On ch=2 n=c#5 v=67
1033298 On ch=2 n=a#4 v=67
1033298 On ch=2 n=e4 v=67
1034204 On ch=2 n=e4 v=0
1034204 On ch=2 n=a#4 v=0
1034204 On ch=2 n=c#5 v=0
1035116 On ch=2 n=c5 v=63
1035116 On ch=2 n=g#4 v=63
1036038 On ch=2 n=c5 v=0
1036038 On ch=2 n=g#4 v=0
1036054 Par ch=2 c=64 v=127
1036948 On ch=2 n=c#5 v=69
1036948 On ch=2 n=g4 v=69
1036948 On ch=2 n=f4 v=69
1037856 On ch=2 n=f4 v=0
1037856 On ch=2 n=g4 v=0
1037856 On ch=2 n=c#5 v=0
1037856 On ch=2 n=c#5 v=63
1037856 On ch=2 n=g4 v=63
1037856 On ch=2 n=f4 v=63
1038740 On ch=2 n=f4 v=0
1038740 On ch=2 n=g4 v=0
1038740 On ch=2 n=c#5 v=0
1038740 On ch=2 n=c#5 v=61
1038740 On ch=2 n=g4 v=61
1038740 On ch=2 n=f4 v=61
1039618 Par ch=2 c=64 v=0
1039640 On ch=2 n=f4 v=0
1039640 On ch=2 n=g4 v=0
1039640 On ch=2 n=c#5 v=0
1040514 On ch=2 n=c5 v=71
1040514 On ch=2 n=f4 v=71
1041394 On ch=2 n=f4 v=0
1041394 On ch=2 n=c5 v=0
1042298 On ch=2 n=a#4 v=69
1042298 On ch=2 n=f4 v=69
1043246 On ch=2 n=f4 v=0
1043246 On ch=2 n=a#4 v=0
1043246 On ch=2 n=a#4 v=62
1043246 On ch=2 n=f4 v=62
1044152 On ch=2 n=f4 v=0
1044152 On ch=2 n=a#4 v=0
1044152 On ch=2 n=a#4 v=61
1044152 On ch=2 n=f4 v=61
1045078 On ch=2 n=f4 v=0
1045078 On ch=2 n=a#4 v=0
1045970 On ch=2 n=c5 v=61
1045970 On ch=2 n=f4 v=61
1046852 On ch=2 n=f4 v=0
1046852 On ch=2 n=c5 v=0
1046866 Par ch=2 c=64 v=127
1047704 On ch=2 n=c#5 v=61
1047704 On ch=2 n=g4 v=61
1047704 On ch=2 n=f4 v=61
1048574 On ch=2 n=f4 v=0
1048574 On ch=2 n=g4 v=0
1048574 On ch=2 n=c#5 v=0
1048574 On ch=2 n=c#5 v=59
1048574 On ch=2 n=g4 v=59
1048574 On ch=2 n=f4 v=59
1049476 On ch=2 n=f4 v=0
1049476 On ch=2 n=g4 v=0
1049476 On ch=2 n=c#5 v=0
1049476 On ch=2 n=c#5 v=63
1049476 On ch=2 n=g4 v=63
1049476 On ch=2 n=f4 v=63
1050338 Par ch=2 c=64 v=0
1050356 On ch=2 n=f4 v=0
1050356 On ch=2 n=g4 v=0
1050356 On ch=2 n=c#5 v=0
1051236 On ch=2 n=c5 v=70
1051236 On ch=2 n=f4 v=70
1052078 On ch=2 n=f4 v=0
1052078 On ch=2 n=c5 v=0
1052888 On ch=2 n=a#4 v=80
1052888 On ch=2 n=f4 v=80
1053762 On ch=2 n=f4 v=0
1053762 On ch=2 n=a#4 v=0
1053762 On ch=2 n=a#4 v=84
1053762 On ch=2 n=f4 v=84
1054690 On ch=2 n=f4 v=0
1054690 On ch=2 n=a#4 v=0
1054690 On ch=2 n=a#4 v=73
1054690 On ch=2 n=f4 v=73
1055594 On ch=2 n=f4 v=0
1055594 On ch=2 n=a#4 v=0
1056464 On ch=2 n=c5 v=69
1056464 On ch=2 n=f4 v=69
1057336 On ch=2 n=f4 v=0
1057336 On ch=2 n=c5 v=0
1057350 Par ch=2 c=64 v=127
1058212 On ch=2 n=c#5 v=76
1058212 On ch=2 n=f#4 v=76
1059042 On ch=2 n=f#4 v=0
1059042 On ch=2 n=c#5 v=0
1059042 On ch=2 n=c#5 v=83
1059042 On ch=2 n=f#4 v=83
1059876 On ch=2 n=f#4 v=0
1059876 On ch=2 n=c#5 v=0
1059876 On ch=2 n=c#5 v=93
1059876 On ch=2 n=f#4 v=93
1060734 On ch=2 n=f#4 v=0
1060734 On ch=2 n=c#5 v=0
1061652 On ch=2 n=c#5 v=104
1061652 On ch=2 n=f#4 v=104
1062554 Par ch=2 c=64 v=0
1062594 On ch=2 n=f#4 v=0
1062594 On ch=2 n=c#5 v=0
1062610 Par ch=2 c=64 v=127
1063518 On ch=2 n=c#5 v=100
1063518 On ch=2 n=g4 v=100
1064414 On ch=2 n=g4 v=0
1064414 On ch=2 n=c#5 v=0
1064414 On ch=2 n=c#5 v=89
1064414 On ch=2 n=g4 v=89
1065328 On ch=2 n=g4 v=0
1065328 On ch=2 n=c#5 v=0
1065328 On ch=2 n=c#5 v=89
1065328 On ch=2 n=g4 v=89
1066234 On ch=2 n=g4 v=0
1066234 On ch=2 n=c#5 v=0
1066234 On ch=2 n=c#5 v=89
1066234 On ch=2 n=g4 v=89
1067906 Par ch=2 c=64 v=0
1067962 On ch=2 n=g4 v=0
1067962 On ch=2 n=c#5 v=0
1131038 On ch=2 n=g#4 v=0
1131038 Meta TrkEnd
TrkEnd
MTrk
0 SeqSpec 43 00 01 00
0 Meta TrkName "3 Accompagnement main gauche"
0 PrCh ch=3 p=0
0 Par ch=3 c=10 v=48
0 Par ch=3 c=7 v=110
0 On ch=3 n=c4 v=59
0 On ch=3 n=f3 v=59
2200 On ch=3 n=f3 v=0
2200 On ch=3 n=c4 v=0
2200 On ch=3 n=c4 v=58
2200 On ch=3 n=c3 v=58
4372 On ch=3 n=c3 v=0
4372 On ch=3 n=c4 v=0
4372 On ch=3 n=c4 v=56
4372 On ch=3 n=f3 v=56
6528 On ch=3 n=f3 v=0
6528 On ch=3 n=c4 v=0
6528 On ch=3 n=d#4 v=55
6528 On ch=3 n=d#3 v=55
8802 On ch=3 n=d#3 v=0
8802 On ch=3 n=d#4 v=0
8802 On ch=3 n=d#4 v=52
8802 On ch=3 n=g#3 v=52
12212 On ch=3 n=g#3 v=0
12212 On ch=3 n=d#4 v=0
12212 On ch=3 n=c4 v=55
12212 On ch=3 n=g3 v=55
13344 On ch=3 n=g3 v=0
13344 On ch=3 n=c4 v=0
13344 On ch=3 n=c4 v=56
13344 On ch=3 n=f3 v=56
15066 On ch=3 n=c4 v=0
15066 On ch=3 n=a#3 v=57
15590 On ch=3 n=a#3 v=0
15590 On ch=3 n=g#3 v=59
16718 On ch=3 n=g#3 v=0
16718 On ch=3 n=a#3 v=57
17874 On ch=3 n=a#3 v=0
17874 On ch=3 n=c4 v=55
20344 On ch=3 n=f3 v=0
20344 On ch=3 n=c3 v=48
22686 On ch=3 n=c3 v=0
22686 On ch=3 n=c4 v=0
27196 On ch=3 n=f4 v=71
33468 On ch=3 n=f4 v=0
33468 On ch=3 n=g4 v=71
35620 On ch=3 n=g4 v=0
35620 On ch=3 n=g4 v=73
37758 On ch=3 n=g4 v=0
37758 On ch=3 n=f4 v=73
39890 On ch=3 n=f4 v=0
39890 On ch=3 n=e4 v=62
42050 On ch=3 n=e4 v=0
42050 On ch=3 n=c#4 v=68
44148 On ch=3 n=c#4 v=0
44148 On ch=3 n=c4 v=69
46252 On ch=3 n=c4 v=0
46252 On ch=3 n=a#3 v=73
48234 On ch=3 n=a#3 v=0
48234 On ch=3 n=c4 v=84
50350 On ch=3 n=c4 v=0
50350 On ch=3 n=f4 v=68
52506 On ch=3 n=f4 v=0
52506 On ch=3 n=a#3 v=71
52524 Par ch=3 c=64 v=127
56734 Par ch=3 c=64 v=0
56744 On ch=3 n=a#3 v=0
56744 On ch=3 n=c4 v=72
58812 On ch=3 n=c4 v=0
58812 On ch=3 n=c#4 v=73
63064 On ch=3 n=c#4 v=0
63064 On ch=3 n=c4 v=66
65140 On ch=3 n=c4 v=0
65140 On ch=3 n=a#3 v=69
65156 Par ch=3 c=64 v=127
69188 Par ch=3 c=64 v=0
69198 On ch=3 n=a#3 v=0
69198 On ch=3 n=c4 v=84
71188 On ch=3 n=c4 v=0
71188 On ch=3 n=c#4 v=91
75174 On ch=3 n=c#4 v=0
75174 On ch=3 n=c4 v=74
77174 On ch=3 n=c4 v=0
77174 On ch=3 n=a#3 v=78
77190 Par ch=3 c=64 v=127
81030 On ch=3 n=a#3 v=0
81030 On ch=3 n=a#3 v=120
83088 Par ch=3 c=64 v=0
83114 On ch=3 n=a#3 v=0
83114 On ch=3 n=a#3 v=91
83130 Par ch=3 c=64 v=127
89242 Par ch=3 c=64 v=0
89294 On ch=3 n=a#3 v=0
89294 On ch=3 n=c4 v=77
89294 On ch=3 n=c3 v=77
89312 Par ch=3 c=64 v=127
91374 On ch=3 n=c3 v=0
91374 On ch=3 n=c4 v=0
91374 On ch=3 n=e5 v=70
91374 On ch=3 n=a#4 v=70
91374 On ch=3 n=g4 v=70
91886 On ch=3 n=g4 v=0
91886 On ch=3 n=g#4 v=73
92380 Par ch=3 c=64 v=0
92396 On ch=3 n=g#4 v=0
92396 On ch=3 n=g4 v=66
92924 On ch=3 n=g4 v=0
92924 On ch=3 n=g#4 v=69
93426 On ch=3 n=g#4 v=0
93426 On ch=3 n=a#4 v=0
93426 On ch=3 n=e5 v=0
93426 On ch=3 n=g5 v=71
93426 On ch=3 n=a#4 v=71
94406 On ch=3 n=a#4 v=0
94406 On ch=3 n=g5 v=0
95418 On ch=3 n=c4 v=75
95418 On ch=3 n=c3 v=75
95434 Par ch=3 c=64 v=127
97544 On ch=3 n=c3 v=0
97544 On ch=3 n=c4 v=0
97544 On ch=3 n=e5 v=65
97544 On ch=3 n=a#4 v=65
97544 On ch=3 n=g4 v=65
98054 On ch=3 n=g4 v=0
98054 On ch=3 n=g#4 v=69
98546 Par ch=3 c=64 v=0
98568 On ch=3 n=g#4 v=0
98568 On ch=3 n=g4 v=63
99070 On ch=3 n=g4 v=0
99070 On ch=3 n=g#4 v=70
99588 On ch=3 n=g#4 v=0
99588 On ch=3 n=a#4 v=0
99588 On ch=3 n=e5 v=0
99588 On ch=3 n=g5 v=75
99588 On ch=3 n=a#4 v=75
100572 On ch=3 n=a#4 v=0
100572 On ch=3 n=g5 v=0
101522 On ch=3 n=c4 v=87
101522 On ch=3 n=c3 v=87
101538 Par ch=3 c=64 v=127
103562 On ch=3 n=c3 v=0
103562 On ch=3 n=c4 v=0
103562 On ch=3 n=f5 v=74
103562 On ch=3 n=c5 v=74
103562 On ch=3 n=g#4 v=74
104064 On ch=3 n=g#4 v=0
104064 On ch=3 n=a#4 v=69
104546 Par ch=3 c=64 v=0
104556 On ch=3 n=a#4 v=0
104556 On ch=3 n=g#4 v=69
105058 On ch=3 n=g#4 v=0
105058 On ch=3 n=a#4 v=69
105560 On ch=3 n=a#4 v=0
105560 On ch=3 n=c5 v=0
105560 On ch=3 n=f5 v=0
105560 On ch=3 n=g#5 v=77
105560 On ch=3 n=c5 v=77
106510 On ch=3 n=c5 v=0
106510 On ch=3 n=g#5 v=0
107470 On ch=3 n=c4 v=82
107470 On ch=3 n=c3 v=82
107486 Par ch=3 c=64 v=127
109516 On ch=3 n=c3 v=0
109516 On ch=3 n=c4 v=0
109516 On ch=3 n=f5 v=71
109516 On ch=3 n=c5 v=71
109516 On ch=3 n=g#4 v=71
110012 On ch=3 n=g#4 v=0
110012 On ch=3 n=a#4 v=74
110490 Par ch=3 c=64 v=0
110502 On ch=3 n=a#4 v=0
110502 On ch=3 n=g#4 v=77
110982 On ch=3 n=g#4 v=0
110982 On ch=3 n=a#4 v=81
111438 On ch=3 n=a#4 v=0
111438 On ch=3 n=c5 v=0
111438 On ch=3 n=f5 v=0
111438 On ch=3 n=g#5 v=91
111438 On ch=3 n=c5 v=91
112398 On ch=3 n=c5 v=0
112398 On ch=3 n=g#5 v=0
113340 On ch=3 n=c4 v=91
113340 On ch=3 n=c3 v=91
113356 Par ch=3 c=64 v=127
115226 On ch=3 n=c3 v=0
115226 On ch=3 n=c4 v=0
115226 On ch=3 n=f5 v=91
115226 On ch=3 n=d5 v=91
115226 On ch=3 n=g#4 v=91
115756 On ch=3 n=g#4 v=0
115756 On ch=3 n=a#4 v=91
116234 Par ch=3 c=64 v=0
116244 On ch=3 n=a#4 v=0
116244 On ch=3 n=g#4 v=81
116710 On ch=3 n=g#4 v=0
116710 On ch=3 n=a#4 v=82
117170 On ch=3 n=a#4 v=0
117170 On ch=3 n=d5 v=0
117170 On ch=3 n=f5 v=0
117170 On ch=3 n=g#5 v=87
117170 On ch=3 n=b4 v=87
118118 On ch=3 n=b4 v=0
118118 On ch=3 n=g#5 v=0
119074 On ch=3 n=c4 v=96
119074 On ch=3 n=c3 v=96
119090 Par ch=3 c=64 v=127
120972 On ch=3 n=c3 v=0
120972 On ch=3 n=c4 v=0
120972 On ch=3 n=f5 v=88
120972 On ch=3 n=d5 v=88
120972 On ch=3 n=g#4 v=88
121452 On ch=3 n=g#4 v=0
121452 On ch=3 n=a#4 v=84
121916 Par ch=3 c=64 v=0
121932 On ch=3 n=a#4 v=0
121932 On ch=3 n=g#4 v=80
122420 On ch=3 n=g#4 v=0
122420 On ch=3 n=a#4 v=80
122914 On ch=3 n=a#4 v=0
122914 On ch=3 n=d5 v=0
122914 On ch=3 n=f5 v=0
122914 On ch=3 n=g#5 v=72
122914 On ch=3 n=b4 v=72
123928 On ch=3 n=b4 v=0
123928 On ch=3 n=g#5 v=0
124974 On ch=3 n=c4 v=65
124974 On ch=3 n=c3 v=65
124992 Par ch=3 c=64 v=127
127032 On ch=3 n=c3 v=0
127032 On ch=3 n=c4 v=0
127032 On ch=3 n=e5 v=58
127032 On ch=3 n=c5 v=58
127032 On ch=3 n=g4 v=58
127522 On ch=3 n=g4 v=0
127522 On ch=3 n=g#4 v=58
127994 Par ch=3 c=64 v=0
128028 On ch=3 n=g#4 v=0
128028 On ch=3 n=g4 v=63
128496 On ch=3 n=g4 v=0
128496 On ch=3 n=g#4 v=57
129028 On ch=3 n=g#4 v=0
129028 On ch=3 n=c5 v=0
129028 On ch=3 n=e5 v=0
129028 On ch=3 n=e5 v=59
129028 On ch=3 n=c5 v=59
129028 On ch=3 n=g4 v=59
129046 Par ch=3 c=64 v=127
130052 On ch=3 n=g4 v=0
130052 On ch=3 n=c5 v=0
130052 On ch=3 n=e5 v=0
131066 Par ch=3 c=64 v=0
131094 On ch=3 n=c4 v=57
131094 On ch=3 n=c3 v=57
131112 Par ch=3 c=64 v=127
133190 On ch=3 n=c3 v=0
133190 On ch=3 n=c4 v=0
133190 On ch=3 n=e5 v=58
133190 On ch=3 n=c5 v=58
133190 On ch=3 n=g4 v=58
133676 On ch=3 n=g4 v=0
133676 On ch=3 n=g#4 v=60
134144 Par ch=3 c=64 v=0
134166 On ch=3 n=g#4 v=0
134166 On ch=3 n=g4 v=53
134668 On ch=3 n=g4 v=0
134668 On ch=3 n=g#4 v=56
135166 On ch=3 n=g#4 v=0
135166 On ch=3 n=c5 v=0
135166 On ch=3 n=e5 v=0
135166 On ch=3 n=e5 v=57
135166 On ch=3 n=c5 v=57
135166 On ch=3 n=g4 v=57
135182 Par ch=3 c=64 v=127
136192 On ch=3 n=g4 v=0
136192 On ch=3 n=c5 v=0
136192 On ch=3 n=e5 v=0
136192 On ch=3 n=c4 v=54
137154 Par ch=3 c=64 v=0
137186 On ch=3 n=c4 v=0
137186 On ch=3 n=a#3 v=83
137202 Par ch=3 c=64 v=127
137312 On ch=3 n=g4 v=83
140052 Par ch=3 c=64 v=0
140090 On ch=3 n=a#3 v=0
140090 On ch=3 n=a#3 v=84
141082 On ch=3 n=a#3 v=0
141082 On ch=3 n=g4 v=0
141082 On ch=3 n=f4 v=88
141082 On ch=3 n=g#3 v=88
142068 On ch=3 n=g#3 v=0
142068 On ch=3 n=f3 v=83
143066 On ch=3 n=f3 v=0
143066 On ch=3 n=f4 v=0
143066 On ch=3 n=a#3 v=59
143082 Par ch=3 c=64 v=127
143188 On ch=3 n=g4 v=59
146008 Par ch=3 c=64 v=0
146030 On ch=3 n=a#3 v=0
146030 On ch=3 n=a#3 v=60
147056 On ch=3 n=a#3 v=0
147056 On ch=3 n=g4 v=0
147056 On ch=3 n=f4 v=63
147056 On ch=3 n=g#3 v=63
148048 On ch=3 n=g#3 v=0
148048 On ch=3 n=f3 v=64
149038 On ch=3 n=f3 v=0
149038 On ch=3 n=f4 v=0
149038 On ch=3 n=g#4 v=65
149038 On ch=3 n=c#4 v=65
150936 On ch=3 n=g#4 v=0
150936 On ch=3 n=a#4 v=83
152888 On ch=3 n=a#4 v=0
152888 On ch=3 n=b4 v=88
154928 On ch=3 n=b4 v=0
154928 On ch=3 n=c#4 v=0
154928 On ch=3 n=a#4 v=68
154928 On ch=3 n=c4 v=68
154944 Par ch=3 c=64 v=127
155908 On ch=3 n=a#4 v=0
155908 On ch=3 n=e5 v=68
155908 On ch=3 n=a#4 v=68
157890 Par ch=3 c=64 v=0
157898 On ch=3 n=a#4 v=0
157898 On ch=3 n=e5 v=0
157898 On ch=3 n=e5 v=67
157898 On ch=3 n=a#4 v=67
158852 On ch=3 n=a#4 v=0
158852 On ch=3 n=e5 v=0
158852 On ch=3 n=c4 v=0
158852 On ch=3 n=f5 v=83
158852 On ch=3 n=g#4 v=83
158852 On ch=3 n=f4 v=83
159958 On ch=3 n=f4 v=0
159958 On ch=3 n=g#4 v=0
159958 On ch=3 n=f5 v=0
161054 On ch=3 n=c4 v=70
161054 On ch=3 n=f3 v=70
163178 On ch=3 n=f3 v=0
163178 On ch=3 n=c4 v=0
163178 On ch=3 n=c4 v=57
163178 On ch=3 n=c3 v=57
165298 On ch=3 n=c3 v=0
165298 On ch=3 n=c4 v=0
165298 On ch=3 n=c4 v=61
165298 On ch=3 n=f3 v=61
167336 On ch=3 n=f3 v=0
167336 On ch=3 n=c4 v=0
167336 On ch=3 n=d#4 v=60
167336 On ch=3 n=d#3 v=60
169428 On ch=3 n=d#3 v=0
169428 On ch=3 n=d#4 v=0
169428 On ch=3 n=d#4 v=55
169428 On ch=3 n=g#3 v=55
172518 On ch=3 n=g#3 v=0
172518 On ch=3 n=d#4 v=0
172518 On ch=3 n=c4 v=56
172518 On ch=3 n=g3 v=56
173556 On ch=3 n=g3 v=0
173556 On ch=3 n=c4 v=0
173556 On ch=3 n=c4 v=58
173556 On ch=3 n=f3 v=58
175118 On ch=3 n=c4 v=0
175118 On ch=3 n=a#3 v=58
175602 On ch=3 n=a#3 v=0
175602 On ch=3 n=g#3 v=59
176668 On ch=3 n=g#3 v=0
176668 On ch=3 n=a#3 v=54
177748 On ch=3 n=a#3 v=0
177748 On ch=3 n=c4 v=56
179940 On ch=3 n=f3 v=0
179940 On ch=3 n=c3 v=57
182054 On ch=3 n=c3 v=0
182054 On ch=3 n=c4 v=0
186146 On ch=3 n=f4 v=74
192062 On ch=3 n=f4 v=0
192062 On ch=3 n=g4 v=78
194102 On ch=3 n=g4 v=0
194102 On ch=3 n=g4 v=68
196144 On ch=3 n=g4 v=0
196144 On ch=3 n=f4 v=68
198204 On ch=3 n=f4 v=0
198204 On ch=3 n=e4 v=69
200274 On ch=3 n=e4 v=0
200274 On ch=3 n=c#4 v=68
202386 On ch=3 n=c#4 v=0
202386 On ch=3 n=c4 v=60
204380 On ch=3 n=c4 v=0
204380 On ch=3 n=a#3 v=76
206280 On ch=3 n=a#3 v=0
206280 On ch=3 n=c4 v=90
208294 On ch=3 n=c4 v=0
208294 On ch=3 n=f4 v=64
210316 On ch=3 n=f4 v=0
210316 On ch=3 n=a#3 v=73
210332 Par ch=3 c=64 v=127
214206 Par ch=3 c=64 v=0
214236 On ch=3 n=a#3 v=0
214236 On ch=3 n=c4 v=86
216180 On ch=3 n=c4 v=0
216180 On ch=3 n=c#4 v=86
220210 On ch=3 n=c#4 v=0
220210 On ch=3 n=c4 v=74
222164 On ch=3 n=c4 v=0
222164 On ch=3 n=a#3 v=83
222180 Par ch=3 c=64 v=127
226048 Par ch=3 c=64 v=0
226058 On ch=3 n=a#3 v=0
226058 On ch=3 n=c4 v=86
228026 On ch=3 n=c4 v=0
228026 On ch=3 n=c#4 v=86
232012 On ch=3 n=c#4 v=0
232012 On ch=3 n=c4 v=69
233988 On ch=3 n=c4 v=0
233988 On ch=3 n=a#3 v=77
234004 Par ch=3 c=64 v=127
237894 On ch=3 n=a#3 v=0
237894 On ch=3 n=a#3 v=97
239964 Par ch=3 c=64 v=0
239974 On ch=3 n=a#3 v=0
239974 On ch=3 n=a#3 v=98
239990 Par ch=3 c=64 v=127
246024 Par ch=3 c=64 v=0
246040 On ch=3 n=a#3 v=0
246040 On ch=3 n=c4 v=79
246040 On ch=3 n=c3 v=79
246056 Par ch=3 c=64 v=127
248038 On ch=3 n=c3 v=0
248038 On ch=3 n=c4 v=0
248038 On ch=3 n=e5 v=92
248038 On ch=3 n=a#4 v=92
248038 On ch=3 n=g4 v=92
248522 On ch=3 n=g4 v=0
248522 On ch=3 n=g#4 v=92
248986 Par ch=3 c=64 v=0
249020 On ch=3 n=g#4 v=0
249020 On ch=3 n=g4 v=92
249518 On ch=3 n=g4 v=0
249518 On ch=3 n=g#4 v=92
250024 On ch=3 n=g#4 v=0
250024 On ch=3 n=a#4 v=0
250024 On ch=3 n=e5 v=0
250024 On ch=3 n=g5 v=92
250024 On ch=3 n=a#4 v=92
250988 On ch=3 n=a#4 v=0
250988 On ch=3 n=g5 v=0
251956 On ch=3 n=c4 v=92
251956 On ch=3 n=c3 v=92
251972 Par ch=3 c=64 v=127
254040 On ch=3 n=c3 v=0
254040 On ch=3 n=c4 v=0
254040 On ch=3 n=e5 v=89
254040 On ch=3 n=a#4 v=89
254040 On ch=3 n=g4 v=89
254532 On ch=3 n=g4 v=0
254532 On ch=3 n=g#4 v=89
255006 Par ch=3 c=64 v=0
255020 On ch=3 n=g#4 v=0
255020 On ch=3 n=g4 v=89
255508 On ch=3 n=g4 v=0
255508 On ch=3 n=g#4 v=89
256008 On ch=3 n=g#4 v=0
256008 On ch=3 n=a#4 v=0
256008 On ch=3 n=e5 v=0
256008 On ch=3 n=g5 v=89
256008 On ch=3 n=a#4 v=89
257018 On ch=3 n=a#4 v=0
257018 On ch=3 n=g5 v=0
258032 On ch=3 n=c4 v=82
258032 On ch=3 n=c3 v=82
258048 Par ch=3 c=64 v=127
260068 On ch=3 n=c3 v=0
260068 On ch=3 n=c4 v=0
260068 On ch=3 n=f5 v=85
260068 On ch=3 n=c5 v=85
260068 On ch=3 n=g#4 v=85
260582 On ch=3 n=g#4 v=0
260582 On ch=3 n=a#4 v=82
261054 Par ch=3 c=64 v=0
261064 On ch=3 n=a#4 v=0
261064 On ch=3 n=g#4 v=83
261520 On ch=3 n=g#4 v=0
261520 On ch=3 n=a#4 v=84
262060 On ch=3 n=a#4 v=0
262060 On ch=3 n=c5 v=0
262060 On ch=3 n=f5 v=0
262060 On ch=3 n=g#5 v=88
262060 On ch=3 n=c5 v=88
262964 On ch=3 n=c5 v=0
262964 On ch=3 n=g#5 v=0
263928 On ch=3 n=c4 v=88
263928 On ch=3 n=c3 v=88
263944 Par ch=3 c=64 v=127
265962 On ch=3 n=c3 v=0
265962 On ch=3 n=c4 v=0
265962 On ch=3 n=f5 v=74
265962 On ch=3 n=c5 v=74
265962 On ch=3 n=g#4 v=74
266444 On ch=3 n=g#4 v=0
266444 On ch=3 n=a#4 v=71
266908 Par ch=3 c=64 v=0
266916 On ch=3 n=a#4 v=0
266916 On ch=3 n=g#4 v=72
267402 On ch=3 n=g#4 v=0
267402 On ch=3 n=a#4 v=75
267884 On ch=3 n=a#4 v=0
267884 On ch=3 n=c5 v=0
267884 On ch=3 n=f5 v=0
267884 On ch=3 n=g#5 v=82
267884 On ch=3 n=c5 v=82
268832 On ch=3 n=c5 v=0
268832 On ch=3 n=g#5 v=0
269804 On ch=3 n=c4 v=87
269804 On ch=3 n=c3 v=87
269820 Par ch=3 c=64 v=127
271732 On ch=3 n=c3 v=0
271732 On ch=3 n=c4 v=0
271732 On ch=3 n=f5 v=88
271732 On ch=3 n=d5 v=88
271732 On ch=3 n=g#4 v=88
272258 On ch=3 n=g#4 v=0
272258 On ch=3 n=a#4 v=88
272716 Par ch=3 c=64 v=0
272724 On ch=3 n=a#4 v=0
272724 On ch=3 n=g#4 v=88
273202 On ch=3 n=g#4 v=0
273202 On ch=3 n=a#4 v=88
273694 On ch=3 n=a#4 v=0
273694 On ch=3 n=d5 v=0
273694 On ch=3 n=f5 v=0
273694 On ch=3 n=g#5 v=88
273694 On ch=3 n=b4 v=88
274606 On ch=3 n=b4 v=0
274606 On ch=3 n=g#5 v=0
275572 On ch=3 n=c4 v=95
275572 On ch=3 n=c3 v=95
275588 Par ch=3 c=64 v=127
277452 On ch=3 n=c3 v=0
277452 On ch=3 n=c4 v=0
277452 On ch=3 n=f5 v=93
277452 On ch=3 n=d5 v=93
277452 On ch=3 n=g#4 v=93
277914 On ch=3 n=g#4 v=0
277914 On ch=3 n=a#4 v=93
278362 Par ch=3 c=64 v=0
278384 On ch=3 n=a#4 v=0
278384 On ch=3 n=g#4 v=92
278870 On ch=3 n=g#4 v=0
278870 On ch=3 n=a#4 v=91
279354 On ch=3 n=a#4 v=0
279354 On ch=3 n=d5 v=0
279354 On ch=3 n=f5 v=0
279354 On ch=3 n=g#5 v=84
279354 On ch=3 n=b4 v=84
280300 On ch=3 n=b4 v=0
280300 On ch=3 n=g#5 v=0
281308 On ch=3 n=c4 v=69
281308 On ch=3 n=c3 v=69
281324 Par ch=3 c=64 v=127
283302 On ch=3 n=c3 v=0
283302 On ch=3 n=c4 v=0
283302 On ch=3 n=e5 v=64
283302 On ch=3 n=c5 v=64
283302 On ch=3 n=g4 v=64
283790 On ch=3 n=g4 v=0
283790 On ch=3 n=g#4 v=64
284260 Par ch=3 c=64 v=0
284284 On ch=3 n=g#4 v=0
284284 On ch=3 n=g4 v=66
284796 On ch=3 n=g4 v=0
284796 On ch=3 n=g#4 v=66
285298 On ch=3 n=g#4 v=0
285298 On ch=3 n=c5 v=0
285298 On ch=3 n=e5 v=0
285298 On ch=3 n=e5 v=63
285298 On ch=3 n=c5 v=63
285298 On ch=3 n=g4 v=63
285314 Par ch=3 c=64 v=127
286312 On ch=3 n=g4 v=0
286312 On ch=3 n=c5 v=0
286312 On ch=3 n=e5 v=0
287298 Par ch=3 c=64 v=0
287314 On ch=3 n=c4 v=57
287314 On ch=3 n=c3 v=57
287330 Par ch=3 c=64 v=127
289348 On ch=3 n=c3 v=0
289348 On ch=3 n=c4 v=0
289348 On ch=3 n=e5 v=56
289348 On ch=3 n=c5 v=56
289348 On ch=3 n=g4 v=56
289838 On ch=3 n=g4 v=0
289838 On ch=3 n=g#4 v=59
290310 Par ch=3 c=64 v=0
290330 On ch=3 n=g#4 v=0
290330 On ch=3 n=g4 v=59
290822 On ch=3 n=g4 v=0
290822 On ch=3 n=g#4 v=56
291324 On ch=3 n=g#4 v=0
291324 On ch=3 n=c5 v=0
291324 On ch=3 n=e5 v=0
291324 On ch=3 n=e5 v=54
291324 On ch=3 n=c5 v=54
291324 On ch=3 n=g4 v=54
291340 Par ch=3 c=64 v=127
292332 On ch=3 n=g4 v=0
292332 On ch=3 n=c5 v=0
292332 On ch=3 n=e5 v=0
292332 On ch=3 n=c4 v=58
293260 Par ch=3 c=64 v=0
293300 On ch=3 n=c4 v=0
293300 On ch=3 n=a#3 v=81
293316 Par ch=3 c=64 v=127
293424 On ch=3 n=g4 v=81
296164 Par ch=3 c=64 v=0
296172 On ch=3 n=a#3 v=0
296172 On ch=3 n=a#3 v=81
297134 On ch=3 n=a#3 v=0
297134 On ch=3 n=g4 v=0
297134 On ch=3 n=f4 v=81
297134 On ch=3 n=g#3 v=81
298136 On ch=3 n=g#3 v=0
298136 On ch=3 n=f3 v=64
299080 On ch=3 n=f3 v=0
299080 On ch=3 n=f4 v=0
299080 On ch=3 n=a#3 v=61
299096 Par ch=3 c=64 v=127
299200 On ch=3 n=g4 v=61
301974 Par ch=3 c=64 v=0
301994 On ch=3 n=a#3 v=0
301994 On ch=3 n=a#3 v=61
302992 On ch=3 n=a#3 v=0
302992 On ch=3 n=g4 v=0
302992 On ch=3 n=f4 v=59
302992 On ch=3 n=g#3 v=59
303966 On ch=3 n=g#3 v=0
303966 On ch=3 n=f3 v=56
304934 On ch=3 n=f3 v=0
304934 On ch=3 n=f4 v=0
304934 On ch=3 n=g#4 v=81
304934 On ch=3 n=c#4 v=81
306886 On ch=3 n=g#4 v=0
306886 On ch=3 n=a#4 v=81
308790 On ch=3 n=a#4 v=0
308790 On ch=3 n=b4 v=87
310814 On ch=3 n=b4 v=0
310814 On ch=3 n=c#4 v=0
310814 On ch=3 n=a#4 v=85
310814 On ch=3 n=c4 v=85
310830 Par ch=3 c=64 v=127
311800 On ch=3 n=a#4 v=0
311800 On ch=3 n=e5 v=71
311800 On ch=3 n=a#4 v=71
313822 Par ch=3 c=64 v=0
313836 On ch=3 n=a#4 v=0
313836 On ch=3 n=e5 v=0
313836 On ch=3 n=e5 v=70
313836 On ch=3 n=a#4 v=70
314810 On ch=3 n=a#4 v=0
314810 On ch=3 n=e5 v=0
314810 On ch=3 n=c4 v=0
314810 On ch=3 n=f5 v=61
314810 On ch=3 n=g#4 v=61
314810 On ch=3 n=f4 v=61
315750 On ch=3 n=f4 v=0
315750 On ch=3 n=g#4 v=0
315750 On ch=3 n=f5 v=0
352000 Par ch=3 c=64 v=0
353510 On ch=3 n=c#4 v=98
353510 On ch=3 n=c#3 v=98
353522 Par ch=3 c=64 v=127
354244 On ch=3 n=c#3 v=0
354244 On ch=3 n=c#4 v=0
354244 On ch=3 n=f5 v=98
354244 On ch=3 n=g#4 v=98
354980 On ch=3 n=g#4 v=0
354980 On ch=3 n=f5 v=0
354980 On ch=3 n=b4 v=97
354980 On ch=3 n=c#4 v=97
355720 On ch=3 n=c#4 v=0
355720 On ch=3 n=b4 v=0
355720 On ch=3 n=f5 v=95
355720 On ch=3 n=g#4 v=95
356450 Par ch=3 c=64 v=0
356470 On ch=3 n=g#4 v=0
356470 On ch=3 n=f5 v=0
356470 On ch=3 n=a#4 v=95
356470 On ch=3 n=c#4 v=95
356482 Par ch=3 c=64 v=127
357196 On ch=3 n=c#4 v=0
357196 On ch=3 n=f#5 v=95
357196 On ch=3 n=f#4 v=95
357930 Par ch=3 c=64 v=0
357938 On ch=3 n=f#4 v=0
357938 On ch=3 n=f#5 v=0
357938 On ch=3 n=a#4 v=0
357938 On ch=3 n=b4 v=95
357938 On ch=3 n=c#4 v=95
357950 Par ch=3 c=64 v=127
358676 On ch=3 n=c#4 v=0
358676 On ch=3 n=b4 v=0
358676 On ch=3 n=f5 v=95
358676 On ch=3 n=g#4 v=95
359402 On ch=3 n=g#4 v=0
359402 On ch=3 n=f5 v=0
359402 On ch=3 n=b4 v=95
359402 On ch=3 n=c#4 v=95
360146 On ch=3 n=c#4 v=0
360146 On ch=3 n=b4 v=0
360146 On ch=3 n=f5 v=95
360146 On ch=3 n=g#4 v=95
360888 Par ch=3 c=64 v=0
360902 On ch=3 n=g#4 v=0
360902 On ch=3 n=f5 v=0
360902 On ch=3 n=a#4 v=95
360902 On ch=3 n=c#4 v=95
360914 Par ch=3 c=64 v=127
361638 On ch=3 n=c#4 v=0
361638 On ch=3 n=f#5 v=95
361638 On ch=3 n=f#4 v=95
362376 Par ch=3 c=64 v=0
362392 On ch=3 n=f#4 v=0
362392 On ch=3 n=f#5 v=0
362392 On ch=3 n=a#4 v=0
362392 On ch=3 n=g#4 v=97
362392 On ch=3 n=d4 v=97
362404 Par ch=3 c=64 v=127
363124 On ch=3 n=d4 v=0
363124 On ch=3 n=g#4 v=0
363124 On ch=3 n=f5 v=99
363124 On ch=3 n=a#4 v=99
363868 On ch=3 n=a#4 v=0
363868 On ch=3 n=f5 v=0
363868 On ch=3 n=g#4 v=100
363868 On ch=3 n=d4 v=100
364630 On ch=3 n=d4 v=0
364630 On ch=3 n=g#4 v=0
364630 On ch=3 n=f5 v=100
364630 On ch=3 n=a#4 v=100
365356 Par ch=3 c=64 v=0
365372 On ch=3 n=a#4 v=0
365372 On ch=3 n=f5 v=0
365372 On ch=3 n=f#4 v=100
365372 On ch=3 n=d#4 v=100
365384 Par ch=3 c=64 v=127
366104 On ch=3 n=d#4 v=0
366104 On ch=3 n=f#4 v=0
366104 On ch=3 n=d#5 v=100
366104 On ch=3 n=a#4 v=100
366902 Par ch=3 c=64 v=0
366928 On ch=3 n=a#4 v=0
366928 On ch=3 n=d#5 v=0
366928 On ch=3 n=f4 v=100
366928 On ch=3 n=a#3 v=100
366942 Par ch=3 c=64 v=127
367730 On ch=3 n=a#3 v=0
367730 On ch=3 n=f4 v=0
367730 On ch=3 n=d5 v=100
367730 On ch=3 n=a#4 v=100
368498 On ch=3 n=a#4 v=0
368498 On ch=3 n=d5 v=0
368498 On ch=3 n=f4 v=100
368498 On ch=3 n=a#3 v=100
369278 On ch=3 n=a#3 v=0
369278 On ch=3 n=f4 v=0
369278 On ch=3 n=d5 v=100
369278 On ch=3 n=a#4 v=100
370110 On ch=3 n=a#4 v=0
370110 On ch=3 n=d5 v=0
370110 On ch=3 n=f4 v=100
370110 On ch=3 n=a#3 v=100
370934 On ch=3 n=a#3 v=0
370934 On ch=3 n=f4 v=0
370934 On ch=3 n=d5 v=100
370934 On ch=3 n=a#4 v=100
371734 Par ch=3 c=64 v=0
371742 On ch=3 n=a#4 v=0
371742 On ch=3 n=d5 v=0
371742 On ch=3 n=f4 v=98
371742 On ch=3 n=a#3 v=98
371754 Par ch=3 c=64 v=127
372570 On ch=3 n=a#3 v=0
372570 On ch=3 n=f4 v=0
372570 On ch=3 n=d5 v=100
372570 On ch=3 n=g#4 v=100
373380 On ch=3 n=g#4 v=0
373380 On ch=3 n=d5 v=0
373380 On ch=3 n=f4 v=100
373380 On ch=3 n=a#3 v=100
374208 On ch=3 n=a#3 v=0
374208 On ch=3 n=f4 v=0
374208 On ch=3 n=d5 v=100
374208 On ch=3 n=g#4 v=100
375066 On ch=3 n=g#4 v=0
375066 On ch=3 n=d5 v=0
375066 On ch=3 n=f4 v=94
375066 On ch=3 n=a#3 v=94
375878 On ch=3 n=a#3 v=0
375878 On ch=3 n=f4 v=0
375878 On ch=3 n=d5 v=94
375878 On ch=3 n=g#4 v=94
376660 Par ch=3 c=64 v=0
376682 On ch=3 n=g#4 v=0
376682 On ch=3 n=d5 v=0
376682 On ch=3 n=a#4 v=94
376682 On ch=3 n=d#4 v=94
376696 Par ch=3 c=64 v=127
377454 On ch=3 n=d#4 v=0
377454 On ch=3 n=a#4 v=0
377454 On ch=3 n=g5 v=98
377454 On ch=3 n=d#5 v=98
378272 Par ch=3 c=64 v=0
378280 On ch=3 n=d#5 v=0
378280 On ch=3 n=g5 v=0
378280 On ch=3 n=d#5 v=89
378280 On ch=3 n=a#4 v=89
378280 On ch=3 n=g4 v=89
379070 On ch=3 n=g4 v=0
379070 On ch=3 n=a#4 v=0
379070 On ch=3 n=d#5 v=0
379070 On ch=3 n=g5 v=97
379070 On ch=3 n=d#5 v=97
379904 On ch=3 n=d#5 v=0
379904 On ch=3 n=g5 v=0
379904 On ch=3 n=g5 v=99
379904 On ch=3 n=d#5 v=99
380676 On ch=3 n=a#5 v=100
380676 On ch=3 n=a#4 v=100
381490 On ch=3 n=a#4 v=0
381490 On ch=3 n=a#5 v=0
381490 On ch=3 n=d#5 v=0
381490 On ch=3 n=g5 v=0
381490 On ch=3 n=g#5 v=100
381490 On ch=3 n=f5 v=100
381504 Par ch=3 c=64 v=127
382284 On ch=3 n=a#5 v=100
382284 On ch=3 n=a#4 v=100
383072 Par ch=3 c=64 v=0
383080 On ch=3 n=a#4 v=0
383080 On ch=3 n=a#5 v=0
383080 On ch=3 n=f5 v=0
383080 On ch=3 n=g#5 v=0
383080 On ch=3 n=g#5 v=100
383080 On ch=3 n=d#5 v=100
383092 Par ch=3 c=64 v=127
383910 On ch=3 n=a#5 v=100
383910 On ch=3 n=a#4 v=100
384684 Par ch=3 c=64 v=0
384726 On ch=3 n=a#4 v=0
384726 On ch=3 n=a#5 v=0
384726 On ch=3 n=d#5 v=0
384726 On ch=3 n=g#5 v=0
384726 On ch=3 n=g#5 v=106
384726 On ch=3 n=d5 v=106
384740 Par ch=3 c=64 v=127
385534 On ch=3 n=a#5 v=109
385534 On ch=3 n=a#4 v=109
386332 Par ch=3 c=64 v=0
386342 On ch=3 n=a#4 v=0
386342 On ch=3 n=a#5 v=0
386342 On ch=3 n=d5 v=0
386342 On ch=3 n=g#5 v=0
434170 On ch=3 n=f4 v=90
439678 On ch=3 n=f4 v=0
439678 On ch=3 n=g4 v=84
441584 On ch=3 n=g4 v=0
441584 On ch=3 n=g4 v=76
443454 On ch=3 n=g4 v=0
443454 On ch=3 n=f4 v=76
445346 On ch=3 n=f4 v=0
445346 On ch=3 n=e4 v=74
447228 On ch=3 n=e4 v=0
447228 On ch=3 n=c#4 v=70
449062 On ch=3 n=c#4 v=0
449062 On ch=3 n=c4 v=81
450876 On ch=3 n=c4 v=0
450876 On ch=3 n=a#3 v=90
452592 On ch=3 n=a#3 v=0
452592 On ch=3 n=c4 v=90
454408 On ch=3 n=c4 v=0
454408 On ch=3 n=f4 v=90
456190 On ch=3 n=f4 v=0
456190 On ch=3 n=a#3 v=90
456206 Par ch=3 c=64 v=127
459752 Par ch=3 c=64 v=0
459780 On ch=3 n=a#3 v=0
459780 On ch=3 n=c4 v=90
461582 On ch=3 n=c4 v=0
461582 On ch=3 n=c#4 v=90
465208 On ch=3 n=c#4 v=0
465208 On ch=3 n=c4 v=80
467012 On ch=3 n=c4 v=0
467012 On ch=3 n=a#3 v=91
467028 Par ch=3 c=64 v=127
470544 Par ch=3 c=64 v=0
470552 On ch=3 n=a#3 v=0
470552 On ch=3 n=c4 v=89
472276 On ch=3 n=c4 v=0
472276 On ch=3 n=c#4 v=91
475814 On ch=3 n=c#4 v=0
475814 On ch=3 n=c4 v=91
477620 On ch=3 n=c4 v=0
477620 On ch=3 n=a#3 v=91
477634 Par ch=3 c=64 v=127
481136 On ch=3 n=a#3 v=0
481136 On ch=3 n=a#3 v=119
483000 Par ch=3 c=64 v=0
483008 On ch=3 n=a#3 v=0
483008 On ch=3 n=a#3 v=115
483024 Par ch=3 c=64 v=127
488292 Par ch=3 c=64 v=0
488326 On ch=3 n=a#3 v=0
488326 On ch=3 n=c4 v=98
488326 On ch=3 n=c3 v=98
488340 Par ch=3 c=64 v=127
490130 On ch=3 n=c3 v=0
490130 On ch=3 n=c4 v=0
490130 On ch=3 n=e5 v=90
490130 On ch=3 n=a#4 v=90
490130 On ch=3 n=g4 v=90
490562 On ch=3 n=g4 v=0
490562 On ch=3 n=g#4 v=87
490980 Par ch=3 c=64 v=0
491020 On ch=3 n=g#4 v=0
491020 On ch=3 n=g4 v=85
491448 On ch=3 n=g4 v=0
491448 On ch=3 n=g#4 v=77
491884 On ch=3 n=g#4 v=0
491884 On ch=3 n=a#4 v=0
491884 On ch=3 n=e5 v=0
491884 On ch=3 n=g5 v=83
491884 On ch=3 n=a#4 v=83
492720 On ch=3 n=a#4 v=0
492720 On ch=3 n=g5 v=0
493614 On ch=3 n=c4 v=80
493614 On ch=3 n=c3 v=80
493630 Par ch=3 c=64 v=127
495494 On ch=3 n=c3 v=0
495494 On ch=3 n=c4 v=0
495494 On ch=3 n=e5 v=65
495494 On ch=3 n=a#4 v=65
495494 On ch=3 n=g4 v=65
495910 On ch=3 n=g4 v=0
495910 On ch=3 n=g#4 v=71
496314 Par ch=3 c=64 v=0
496336 On ch=3 n=g#4 v=0
496336 On ch=3 n=g4 v=72
496770 On ch=3 n=g4 v=0
496770 On ch=3 n=g#4 v=74
497254 On ch=3 n=g#4 v=0
497254 On ch=3 n=a#4 v=0
497254 On ch=3 n=e5 v=0
497254 On ch=3 n=g5 v=88
497254 On ch=3 n=a#4 v=88
498090 On ch=3 n=a#4 v=0
498090 On ch=3 n=g5 v=0
498892 On ch=3 n=c4 v=88
498892 On ch=3 n=c3 v=88
498906 Par ch=3 c=64 v=127
500644 On ch=3 n=c3 v=0
500644 On ch=3 n=c4 v=0
500644 On ch=3 n=f5 v=72
500644 On ch=3 n=c5 v=72
500644 On ch=3 n=g#4 v=72
501096 On ch=3 n=g#4 v=0
501096 On ch=3 n=a#4 v=71
501518 Par ch=3 c=64 v=0
501526 On ch=3 n=a#4 v=0
501526 On ch=3 n=g#4 v=71
501956 On ch=3 n=g#4 v=0
501956 On ch=3 n=a#4 v=72
502414 On ch=3 n=a#4 v=0
502414 On ch=3 n=c5 v=0
502414 On ch=3 n=f5 v=0
502414 On ch=3 n=g#5 v=77
502414 On ch=3 n=c5 v=77
503270 On ch=3 n=c5 v=0
503270 On ch=3 n=g#5 v=0
504084 On ch=3 n=c4 v=88
504084 On ch=3 n=c3 v=88
504098 Par ch=3 c=64 v=127
505914 On ch=3 n=c3 v=0
505914 On ch=3 n=c4 v=0
505914 On ch=3 n=f5 v=72
505914 On ch=3 n=c5 v=72
505914 On ch=3 n=g#4 v=72
506352 On ch=3 n=g#4 v=0
506352 On ch=3 n=a#4 v=74
506772 Par ch=3 c=64 v=0
506780 On ch=3 n=a#4 v=0
506780 On ch=3 n=g#4 v=71
507210 On ch=3 n=g#4 v=0
507210 On ch=3 n=a#4 v=74
507614 On ch=3 n=a#4 v=0
507614 On ch=3 n=c5 v=0
507614 On ch=3 n=f5 v=0
507614 On ch=3 n=g#5 v=88
507614 On ch=3 n=c5 v=88
508470 On ch=3 n=c5 v=0
508470 On ch=3 n=g#5 v=0
509324 On ch=3 n=c4 v=88
509324 On ch=3 n=c3 v=88
509340 Par ch=3 c=64 v=127
511068 On ch=3 n=c3 v=0
511068 On ch=3 n=c4 v=0
511068 On ch=3 n=f5 v=103
511068 On ch=3 n=d5 v=103
511068 On ch=3 n=g#4 v=103
511574 On ch=3 n=g#4 v=0
511574 On ch=3 n=a#4 v=98
511980 Par ch=3 c=64 v=0
511988 On ch=3 n=a#4 v=0
511988 On ch=3 n=g#4 v=98
512440 On ch=3 n=g#4 v=0
512440 On ch=3 n=a#4 v=98
512856 On ch=3 n=a#4 v=0
512856 On ch=3 n=d5 v=0
512856 On ch=3 n=f5 v=0
512856 On ch=3 n=g#5 v=105
512856 On ch=3 n=b4 v=105
513678 On ch=3 n=b4 v=0
513678 On ch=3 n=g#5 v=0
514524 On ch=3 n=c4 v=122
514524 On ch=3 n=c3 v=122
514538 Par ch=3 c=64 v=127
516182 On ch=3 n=c3 v=0
516182 On ch=3 n=c4 v=0
516182 On ch=3 n=f5 v=98
516182 On ch=3 n=d5 v=98
516182 On ch=3 n=g#4 v=98
516610 On ch=3 n=g#4 v=0
516610 On ch=3 n=a#4 v=98
517022 Par ch=3 c=64 v=0
517030 On ch=3 n=a#4 v=0
517030 On ch=3 n=g#4 v=98
517450 On ch=3 n=g#4 v=0
517450 On ch=3 n=a#4 v=98
517888 On ch=3 n=a#4 v=0
517888 On ch=3 n=d5 v=0
517888 On ch=3 n=f5 v=0
517888 On ch=3 n=g#5 v=98
517888 On ch=3 n=b4 v=98
518730 On ch=3 n=b4 v=0
518730 On ch=3 n=g#5 v=0
519628 On ch=3 n=c4 v=91
519628 On ch=3 n=c3 v=91
519644 Par ch=3 c=64 v=127
521422 On ch=3 n=c3 v=0
521422 On ch=3 n=c4 v=0
521422 On ch=3 n=e5 v=86
521422 On ch=3 n=c5 v=86
521422 On ch=3 n=g4 v=86
521848 On ch=3 n=g4 v=0
521848 On ch=3 n=g#4 v=83
522260 Par ch=3 c=64 v=0
522268 On ch=3 n=g#4 v=0
522268 On ch=3 n=g4 v=83
522704 On ch=3 n=g4 v=0
522704 On ch=3 n=g#4 v=87
523156 On ch=3 n=g#4 v=0
523156 On ch=3 n=c5 v=0
523156 On ch=3 n=e5 v=0
523156 On ch=3 n=e5 v=80
523156 On ch=3 n=c5 v=80
523156 On ch=3 n=g4 v=80
523172 Par ch=3 c=64 v=127
524072 On ch=3 n=g4 v=0
524072 On ch=3 n=c5 v=0
524072 On ch=3 n=e5 v=0
524986 Par ch=3 c=64 v=0
525000 On ch=3 n=c4 v=81
525000 On ch=3 n=c3 v=81
525016 Par ch=3 c=64 v=127
526886 On ch=3 n=c3 v=0
526886 On ch=3 n=c4 v=0
526886 On ch=3 n=e5 v=74
526886 On ch=3 n=c5 v=74
526886 On ch=3 n=g4 v=74
527326 On ch=3 n=g4 v=0
527326 On ch=3 n=g#4 v=79
527752 Par ch=3 c=64 v=0
527766 On ch=3 n=g#4 v=0
527766 On ch=3 n=g4 v=78
528206 On ch=3 n=g4 v=0
528206 On ch=3 n=g#4 v=79
528660 On ch=3 n=g#4 v=0
528660 On ch=3 n=c5 v=0
528660 On ch=3 n=e5 v=0
528660 On ch=3 n=e5 v=74
528660 On ch=3 n=c5 v=74
528660 On ch=3 n=g4 v=74
528676 Par ch=3 c=64 v=127
529566 On ch=3 n=g4 v=0
529566 On ch=3 n=c5 v=0
529566 On ch=3 n=e5 v=0
529566 On ch=3 n=c4 v=74
530456 Par ch=3 c=64 v=0
530464 On ch=3 n=c4 v=0
530464 On ch=3 n=g4 v=95
530464 On ch=3 n=a#3 v=95
530478 Par ch=3 c=64 v=127
533090 Par ch=3 c=64 v=0
533098 On ch=3 n=a#3 v=0
533098 On ch=3 n=a#3 v=95
533964 On ch=3 n=a#3 v=0
533964 On ch=3 n=g4 v=0
533964 On ch=3 n=f4 v=95
533964 On ch=3 n=g#3 v=95
534846 On ch=3 n=g#3 v=0
534846 On ch=3 n=f3 v=84
535756 On ch=3 n=f3 v=0
535756 On ch=3 n=f4 v=0
535756 On ch=3 n=g4 v=70
535756 On ch=3 n=a#3 v=70
535772 Par ch=3 c=64 v=127
538432 Par ch=3 c=64 v=0
538462 On ch=3 n=a#3 v=0
538462 On ch=3 n=a#3 v=71
539384 On ch=3 n=a#3 v=0
539384 On ch=3 n=g4 v=0
539384 On ch=3 n=f4 v=74
539384 On ch=3 n=g#3 v=74
540288 On ch=3 n=g#3 v=0
540288 On ch=3 n=f3 v=74
541200 On ch=3 n=f3 v=0
541200 On ch=3 n=f4 v=0
541200 On ch=3 n=g#4 v=76
541200 On ch=3 n=c#4 v=76
542970 On ch=3 n=g#4 v=0
542970 On ch=3 n=a#4 v=87
544826 On ch=3 n=a#4 v=0
544826 On ch=3 n=b4 v=81
546662 On ch=3 n=b4 v=0
546662 On ch=3 n=c#4 v=0
546662 On ch=3 n=a#4 v=86
546662 On ch=3 n=c4 v=86
546676 Par ch=3 c=64 v=127
547580 On ch=3 n=a#4 v=0
547580 On ch=3 n=e5 v=77
547580 On ch=3 n=a#4 v=77
549548 Par ch=3 c=64 v=0
549566 On ch=3 n=a#4 v=0
549566 On ch=3 n=e5 v=0
549566 On ch=3 n=e5 v=74
549566 On ch=3 n=a#4 v=74
550644 On ch=3 n=a#4 v=0
550644 On ch=3 n=e5 v=0
550644 On ch=3 n=c4 v=0
550644 On ch=3 n=f5 v=65
550644 On ch=3 n=g#4 v=65
550644 On ch=3 n=f4 v=65
551742 On ch=3 n=f4 v=0
551742 On ch=3 n=g#4 v=0
551742 On ch=3 n=f5 v=0
552892 On ch=3 n=g#3 v=55
552912 Par ch=3 c=64 v=127
554964 On ch=3 n=g#3 v=0
554964 On ch=3 n=c5 v=61
556910 Par ch=3 c=64 v=0
556918 On ch=3 n=c5 v=0
556918 On ch=3 n=c#5 v=69
558866 On ch=3 n=c#5 v=0
558866 On ch=3 n=g#3 v=69
558882 Par ch=3 c=64 v=127
560790 On ch=3 n=g#3 v=0
560790 On ch=3 n=c5 v=66
561732 On ch=3 n=d#4 v=71
562680 On ch=3 n=c5 v=0
563614 On ch=3 n=d#4 v=0
564552 Par ch=3 c=64 v=0
564604 Par ch=3 c=64 v=127
570464 Par ch=3 c=64 v=0
570474 On ch=3 n=g3 v=64
570490 Par ch=3 c=64 v=127
571458 On ch=3 n=g3 v=0
571458 On ch=3 n=d#4 v=69
572398 On ch=3 n=d#4 v=0
572398 On ch=3 n=a#4 v=71
573312 Par ch=3 c=64 v=0
573320 On ch=3 n=a#4 v=0
573320 On ch=3 n=d#5 v=72
573320 On ch=3 n=d#4 v=72
574258 On ch=3 n=d#4 v=0
574258 On ch=3 n=f4 v=72
575232 On ch=3 n=f4 v=0
575232 On ch=3 n=g4 v=72
576200 On ch=3 n=g4 v=0
576200 On ch=3 n=d#5 v=0
576200 On ch=3 n=g#3 v=75
576216 Par ch=3 c=64 v=127
579680 Par ch=3 c=64 v=0
579718 On ch=3 n=g#3 v=0
579718 On ch=3 n=e4 v=78
581554 On ch=3 n=e4 v=0
581554 On ch=3 n=f4 v=79
583396 On ch=3 n=f4 v=0
583396 On ch=3 n=f4 v=72
585278 On ch=3 n=f4 v=0
585278 On ch=3 n=e4 v=72
587148 On ch=3 n=e4 v=0
587148 On ch=3 n=d#4 v=71
587148 On ch=3 n=g#4 v=71
591926 On ch=3 n=g#4 v=0
592942 On ch=3 n=d#4 v=0
592942 On ch=3 n=d#4 v=61
594998 On ch=3 n=d#4 v=0
594998 On ch=3 n=d#4 v=57
596014 On ch=3 n=d#4 v=0
596014 On ch=3 n=d#4 v=72
597024 On ch=3 n=d#4 v=0
598992 On ch=3 n=g#3 v=79
599008 Par ch=3 c=64 v=127
601012 On ch=3 n=g#3 v=0
601012 On ch=3 n=c5 v=66
602938 Par ch=3 c=64 v=0
602950 On ch=3 n=c5 v=0
602950 On ch=3 n=c#5 v=72
604854 On ch=3 n=c#5 v=0
604854 On ch=3 n=g#3 v=74
604870 Par ch=3 c=64 v=127
606684 On ch=3 n=g#3 v=0
606684 On ch=3 n=c5 v=75
607608 On ch=3 n=d#4 v=74
608546 On ch=3 n=c5 v=0
609446 On ch=3 n=d#4 v=0
610356 Par ch=3 c=64 v=0
610380 Par ch=3 c=64 v=127
615982 Par ch=3 c=64 v=0
615990 On ch=3 n=g3 v=81
616006 Par ch=3 c=64 v=127
616894 On ch=3 n=g3 v=0
616894 On ch=3 n=d#4 v=84
617810 On ch=3 n=d#4 v=0
617810 On ch=3 n=a#4 v=87
618748 Par ch=3 c=64 v=0
618758 On ch=3 n=a#4 v=0
618758 On ch=3 n=d#5 v=81
618758 On ch=3 n=d#4 v=81
619690 On ch=3 n=d#4 v=0
619690 On ch=3 n=f4 v=79
620608 On ch=3 n=f4 v=0
620608 On ch=3 n=g4 v=78
621522 On ch=3 n=g4 v=0
621522 On ch=3 n=d#5 v=0
621522 On ch=3 n=g#3 v=87
621538 Par ch=3 c=64 v=127
625180 Par ch=3 c=64 v=0
625188 On ch=3 n=g#3 v=0
625188 On ch=3 n=e4 v=81
627094 On ch=3 n=e4 v=0
627094 On ch=3 n=f4 v=71
629020 On ch=3 n=f4 v=0
629020 On ch=3 n=f4 v=64
630996 On ch=3 n=f4 v=0
630996 On ch=3 n=e4 v=66
632972 On ch=3 n=e4 v=0
632972 On ch=3 n=d#4 v=66
632972 On ch=3 n=g#4 v=66
637840 On ch=3 n=g#4 v=0
641918 On ch=3 n=d#4 v=0
644754 On ch=3 n=f#4 v=84
646554 On ch=3 n=f#4 v=0
646554 On ch=3 n=f#4 v=95
648316 On ch=3 n=f#4 v=0
648316 On ch=3 n=f4 v=104
650174 On ch=3 n=f4 v=0
650174 On ch=3 n=a#3 v=110
650190 Par ch=3 c=64 v=127
652924 On ch=3 n=a#3 v=0
653814 Par ch=3 c=64 v=0
674598 On ch=3 n=c5 v=94
676426 On ch=3 n=c5 v=0
676426 On ch=3 n=d#4 v=96
678304 On ch=3 n=d#4 v=0
682044 On ch=3 n=g#5 v=91
683836 On ch=3 n=g#5 v=0
701542 On ch=3 n=g#3 v=68
701566 Par ch=3 c=64 v=127
703802 On ch=3 n=g#3 v=0
703802 On ch=3 n=c5 v=66
705816 Par ch=3 c=64 v=0
705826 On ch=3 n=c5 v=0
705826 On ch=3 n=c#5 v=69
707858 On ch=3 n=c#5 v=0
707858 On ch=3 n=g#3 v=66
707876 Par ch=3 c=64 v=127
709776 On ch=3 n=g#3 v=0
709776 On ch=3 n=c5 v=82
710756 On ch=3 n=d#4 v=79
711686 On ch=3 n=c5 v=0
712586 On ch=3 n=d#4 v=0
713494 Par ch=3 c=64 v=0
713518 Par ch=3 c=64 v=127
719112 Par ch=3 c=64 v=0
719120 On ch=3 n=g3 v=83
719136 Par ch=3 c=64 v=127
720038 On ch=3 n=g3 v=0
720038 On ch=3 n=d#4 v=78
720958 On ch=3 n=d#4 v=0
720958 On ch=3 n=a#4 v=85
721860 Par ch=3 c=64 v=0
721884 On ch=3 n=a#4 v=0
721884 On ch=3 n=d#5 v=80
721884 On ch=3 n=d#4 v=80
722786 On ch=3 n=d#4 v=0
722786 On ch=3 n=f4 v=82
723696 On ch=3 n=f4 v=0
723696 On ch=3 n=g4 v=80
724624 On ch=3 n=g4 v=0
724624 On ch=3 n=d#5 v=0
724624 On ch=3 n=g#3 v=80
724640 Par ch=3 c=64 v=127
728326 Par ch=3 c=64 v=0
728340 On ch=3 n=g#3 v=0
728340 On ch=3 n=e4 v=77
730296 On ch=3 n=e4 v=0
730296 On ch=3 n=f4 v=77
732316 On ch=3 n=f4 v=0
732316 On ch=3 n=f4 v=78
734402 On ch=3 n=f4 v=0
734402 On ch=3 n=e4 v=75
736442 On ch=3 n=e4 v=0
736442 On ch=3 n=d#4 v=74
736442 On ch=3 n=g#4 v=74
741486 On ch=3 n=g#4 v=0
742582 On ch=3 n=d#4 v=0
742582 On ch=3 n=d#4 v=70
744762 On ch=3 n=d#4 v=0
744762 On ch=3 n=d#4 v=72
745874 On ch=3 n=d#4 v=0
745874 On ch=3 n=d#4 v=74
747078 On ch=3 n=d#4 v=0
749342 On ch=3 n=c4 v=56
749342 On ch=3 n=f3 v=56
751564 On ch=3 n=f3 v=0
751564 On ch=3 n=c4 v=0
751564 On ch=3 n=c4 v=60
751564 On ch=3 n=c3 v=60
753718 On ch=3 n=c3 v=0
753718 On ch=3 n=c4 v=0
753718 On ch=3 n=c4 v=62
753718 On ch=3 n=f3 v=62
755812 On ch=3 n=f3 v=0
755812 On ch=3 n=c4 v=0
755812 On ch=3 n=d#4 v=62
755812 On ch=3 n=d#3 v=62
757858 On ch=3 n=d#3 v=0
757858 On ch=3 n=d#4 v=0
757858 On ch=3 n=d#4 v=62
757858 On ch=3 n=g#3 v=62
761006 On ch=3 n=g#3 v=0
761006 On ch=3 n=d#4 v=0
761006 On ch=3 n=c4 v=62
761006 On ch=3 n=g3 v=62
762106 On ch=3 n=g3 v=0
762106 On ch=3 n=c4 v=0
762106 On ch=3 n=c4 v=57
762106 On ch=3 n=f3 v=57
763706 On ch=3 n=c4 v=0
763706 On ch=3 n=a#3 v=62
764238 On ch=3 n=a#3 v=0
764238 On ch=3 n=g#3 v=62
765318 On ch=3 n=g#3 v=0
765318 On ch=3 n=a#3 v=61
766432 On ch=3 n=a#3 v=0
766432 On ch=3 n=c4 v=61
768688 On ch=3 n=f3 v=0
768688 On ch=3 n=c3 v=56
770968 On ch=3 n=c3 v=0
770968 On ch=3 n=c4 v=0
775262 On ch=3 n=f4 v=62
781308 On ch=3 n=f4 v=0
781308 On ch=3 n=g4 v=69
783296 On ch=3 n=g4 v=0
783296 On ch=3 n=g4 v=71
785334 On ch=3 n=g4 v=0
785334 On ch=3 n=f4 v=57
787368 On ch=3 n=f4 v=0
787368 On ch=3 n=e4 v=64
789436 On ch=3 n=e4 v=0
789436 On ch=3 n=c#4 v=64
791472 On ch=3 n=c#4 v=0
791472 On ch=3 n=c4 v=57
793500 On ch=3 n=c4 v=0
793500 On ch=3 n=a#3 v=84
795364 On ch=3 n=a#3 v=0
795364 On ch=3 n=c4 v=82
797390 On ch=3 n=c4 v=0
797390 On ch=3 n=f4 v=62
799412 On ch=3 n=f4 v=0
799412 On ch=3 n=a#3 v=77
799428 Par ch=3 c=64 v=127
803272 Par ch=3 c=64 v=0
803306 On ch=3 n=a#3 v=0
803306 On ch=3 n=c4 v=78
805238 On ch=3 n=c4 v=0
805238 On ch=3 n=c#4 v=93
809188 On ch=3 n=c#4 v=0
809188 On ch=3 n=c4 v=73
811136 On ch=3 n=c4 v=0
811136 On ch=3 n=a#3 v=75
811152 Par ch=3 c=64 v=127
814878 Par ch=3 c=64 v=0
814898 On ch=3 n=a#3 v=0
814898 On ch=3 n=c4 v=93
816796 On ch=3 n=c4 v=0
816796 On ch=3 n=c#4 v=93
820638 On ch=3 n=c#4 v=0
820638 On ch=3 n=c4 v=81
822526 On ch=3 n=c4 v=0
822526 On ch=3 n=a#3 v=77
822542 Par ch=3 c=64 v=127
826136 On ch=3 n=a#3 v=0
826136 On ch=3 n=a#3 v=118
828030 Par ch=3 c=64 v=0
828040 On ch=3 n=a#3 v=0
828040 On ch=3 n=a#3 v=111
828056 Par ch=3 c=64 v=127
833794 Par ch=3 c=64 v=0
833802 On ch=3 n=a#3 v=0
833802 On ch=3 n=c4 v=93
833802 On ch=3 n=c3 v=93
833818 Par ch=3 c=64 v=127
835800 On ch=3 n=c3 v=0
835800 On ch=3 n=c4 v=0
835800 On ch=3 n=e5 v=76
835800 On ch=3 n=a#4 v=76
835800 On ch=3 n=g4 v=76
836282 On ch=3 n=g4 v=0
836282 On ch=3 n=g#4 v=68
836746 Par ch=3 c=64 v=0
836774 On ch=3 n=g#4 v=0
836774 On ch=3 n=g4 v=69
837244 On ch=3 n=g4 v=0
837244 On ch=3 n=g#4 v=69
837740 On ch=3 n=g#4 v=0
837740 On ch=3 n=a#4 v=0
837740 On ch=3 n=e5 v=0
837740 On ch=3 n=g5 v=70
837740 On ch=3 n=a#4 v=70
838662 On ch=3 n=a#4 v=0
838662 On ch=3 n=g5 v=0
839610 On ch=3 n=c4 v=87
839610 On ch=3 n=c3 v=87
839626 Par ch=3 c=64 v=127
841598 On ch=3 n=c3 v=0
841598 On ch=3 n=c4 v=0
841598 On ch=3 n=e5 v=69
841598 On ch=3 n=a#4 v=69
841598 On ch=3 n=g4 v=69
842100 On ch=3 n=g4 v=0
842100 On ch=3 n=g#4 v=65
842558 Par ch=3 c=64 v=0
842566 On ch=3 n=g#4 v=0
842566 On ch=3 n=g4 v=69
843030 On ch=3 n=g4 v=0
843030 On ch=3 n=g#4 v=72
843528 On ch=3 n=g#4 v=0
843528 On ch=3 n=a#4 v=0
843528 On ch=3 n=e5 v=0
843528 On ch=3 n=g5 v=66
843528 On ch=3 n=a#4 v=66
844496 On ch=3 n=a#4 v=0
844496 On ch=3 n=g5 v=0
845400 On ch=3 n=c4 v=87
845400 On ch=3 n=c3 v=87
845416 Par ch=3 c=64 v=127
847314 On ch=3 n=c3 v=0
847314 On ch=3 n=c4 v=0
847314 On ch=3 n=f5 v=72
847314 On ch=3 n=c5 v=72
847314 On ch=3 n=g#4 v=72
847808 On ch=3 n=g#4 v=0
847808 On ch=3 n=a#4 v=72
848272 Par ch=3 c=64 v=0
848280 On ch=3 n=a#4 v=0
848280 On ch=3 n=g#4 v=73
848762 On ch=3 n=g#4 v=0
848762 On ch=3 n=a#4 v=75
849236 On ch=3 n=a#4 v=0
849236 On ch=3 n=c5 v=0
849236 On ch=3 n=f5 v=0
849236 On ch=3 n=g#5 v=72
849236 On ch=3 n=c5 v=72
850128 On ch=3 n=c5 v=0
850128 On ch=3 n=g#5 v=0
851028 On ch=3 n=c4 v=87
851028 On ch=3 n=c3 v=87
851044 Par ch=3 c=64 v=127
853018 On ch=3 n=c3 v=0
853018 On ch=3 n=c4 v=0
853018 On ch=3 n=f5 v=73
853018 On ch=3 n=c5 v=73
853018 On ch=3 n=g#4 v=73
853514 On ch=3 n=g#4 v=0
853514 On ch=3 n=a#4 v=67
853976 Par ch=3 c=64 v=0
853984 On ch=3 n=a#4 v=0
853984 On ch=3 n=g#4 v=69
854440 On ch=3 n=g#4 v=0
854440 On ch=3 n=a#4 v=72
854906 On ch=3 n=a#4 v=0
854906 On ch=3 n=c5 v=0
854906 On ch=3 n=f5 v=0
854906 On ch=3 n=g#5 v=81
854906 On ch=3 n=c5 v=81
855870 On ch=3 n=c5 v=0
855870 On ch=3 n=g#5 v=0
856868 On ch=3 n=c4 v=72
856868 On ch=3 n=c3 v=72
856884 Par ch=3 c=64 v=127
858790 On ch=3 n=c3 v=0
858790 On ch=3 n=c4 v=0
858790 On ch=3 n=f5 v=93
858790 On ch=3 n=d5 v=93
858790 On ch=3 n=g#4 v=93
859238 On ch=3 n=g#4 v=0
859238 On ch=3 n=a#4 v=95
859674 Par ch=3 c=64 v=0
859692 On ch=3 n=a#4 v=0
859692 On ch=3 n=g#4 v=95
860184 On ch=3 n=g#4 v=0
860184 On ch=3 n=a#4 v=95
860656 On ch=3 n=a#4 v=0
860656 On ch=3 n=d5 v=0
860656 On ch=3 n=f5 v=0
860656 On ch=3 n=g#5 v=110
860656 On ch=3 n=b4 v=110
861536 On ch=3 n=b4 v=0
861536 On ch=3 n=g#5 v=0
862398 On ch=3 n=c4 v=105
862398 On ch=3 n=c3 v=105
862412 Par ch=3 c=64 v=127
864168 On ch=3 n=c3 v=0
864168 On ch=3 n=c4 v=0
864168 On ch=3 n=f5 v=95
864168 On ch=3 n=d5 v=95
864168 On ch=3 n=g#4 v=95
864632 On ch=3 n=g#4 v=0
864632 On ch=3 n=a#4 v=90
865082 Par ch=3 c=64 v=0
865094 On ch=3 n=a#4 v=0
865094 On ch=3 n=g#4 v=89
865562 On ch=3 n=g#4 v=0
865562 On ch=3 n=a#4 v=82
866028 On ch=3 n=a#4 v=0
866028 On ch=3 n=d5 v=0
866028 On ch=3 n=f5 v=0
866028 On ch=3 n=g#5 v=80
866028 On ch=3 n=b4 v=80
866958 On ch=3 n=b4 v=0
866958 On ch=3 n=g#5 v=0
867930 On ch=3 n=c4 v=75
867930 On ch=3 n=c3 v=75
867946 Par ch=3 c=64 v=127
869848 On ch=3 n=c3 v=0
869848 On ch=3 n=c4 v=0
869848 On ch=3 n=e5 v=68
869848 On ch=3 n=c5 v=68
869848 On ch=3 n=g4 v=68
870318 On ch=3 n=g4 v=0
870318 On ch=3 n=g#4 v=68
870772 Par ch=3 c=64 v=0
870780 On ch=3 n=g#4 v=0
870780 On ch=3 n=g4 v=68
871278 On ch=3 n=g4 v=0
871278 On ch=3 n=g#4 v=63
871738 On ch=3 n=g#4 v=0
871738 On ch=3 n=c5 v=0
871738 On ch=3 n=e5 v=0
871738 On ch=3 n=e5 v=65
871738 On ch=3 n=c5 v=65
871738 On ch=3 n=g4 v=65
871754 Par ch=3 c=64 v=127
872728 On ch=3 n=g4 v=0
872728 On ch=3 n=c5 v=0
872728 On ch=3 n=e5 v=0
873682 Par ch=3 c=64 v=0
873698 On ch=3 n=c4 v=63
873698 On ch=3 n=c3 v=63
873714 Par ch=3 c=64 v=127
875614 On ch=3 n=c3 v=0
875614 On ch=3 n=c4 v=0
875614 On ch=3 n=e5 v=63
875614 On ch=3 n=c5 v=63
875614 On ch=3 n=g4 v=63
876078 On ch=3 n=g4 v=0
876078 On ch=3 n=g#4 v=62
876528 Par ch=3 c=64 v=0
876538 On ch=3 n=g#4 v=0
876538 On ch=3 n=g4 v=63
877028 On ch=3 n=g4 v=0
877028 On ch=3 n=g#4 v=62
877488 On ch=3 n=g#4 v=0
877488 On ch=3 n=c5 v=0
877488 On ch=3 n=e5 v=0
877488 On ch=3 n=e5 v=62
877488 On ch=3 n=c5 v=62
877488 On ch=3 n=g4 v=62
877504 Par ch=3 c=64 v=127
878462 On ch=3 n=g4 v=0
878462 On ch=3 n=c5 v=0
878462 On ch=3 n=e5 v=0
878462 On ch=3 n=c4 v=63
879368 Par ch=3 c=64 v=0
879386 On ch=3 n=c4 v=0
879386 On ch=3 n=g4 v=82
879386 On ch=3 n=a#3 v=82
879402 Par ch=3 c=64 v=127
882144 Par ch=3 c=64 v=0
882152 On ch=3 n=a#3 v=0
882152 On ch=3 n=a#3 v=83
883108 On ch=3 n=a#3 v=0
883108 On ch=3 n=g4 v=0
883108 On ch=3 n=f4 v=82
883108 On ch=3 n=g#3 v=82
884050 On ch=3 n=g#3 v=0
884050 On ch=3 n=f3 v=74
885018 On ch=3 n=f3 v=0
885018 On ch=3 n=f4 v=0
885018 On ch=3 n=g4 v=65
885018 On ch=3 n=a#3 v=65
885034 Par ch=3 c=64 v=127
887862 Par ch=3 c=64 v=0
887870 On ch=3 n=a#3 v=0
887870 On ch=3 n=a#3 v=65
888830 On ch=3 n=a#3 v=0
888830 On ch=3 n=g4 v=0
888830 On ch=3 n=f4 v=65
888830 On ch=3 n=g#3 v=65
889766 On ch=3 n=g#3 v=0
889766 On ch=3 n=f3 v=62
890734 On ch=3 n=f3 v=0
890734 On ch=3 n=f4 v=0
890734 On ch=3 n=g#4 v=78
890734 On ch=3 n=c#4 v=78
892566 On ch=3 n=g#4 v=0
892566 On ch=3 n=a#4 v=82
894410 On ch=3 n=a#4 v=0
894410 On ch=3 n=b4 v=82
896398 On ch=3 n=b4 v=0
896398 On ch=3 n=c#4 v=0
896398 On ch=3 n=a#4 v=68
896398 On ch=3 n=c4 v=68
896414 Par ch=3 c=64 v=127
897342 On ch=3 n=a#4 v=0
897342 On ch=3 n=e5 v=63
897342 On ch=3 n=a#4 v=63
899326 Par ch=3 c=64 v=0
899340 On ch=3 n=a#4 v=0
899340 On ch=3 n=e5 v=0
899340 On ch=3 n=e5 v=65
899340 On ch=3 n=a#4 v=65
900368 On ch=3 n=a#4 v=0
900368 On ch=3 n=e5 v=0
900368 On ch=3 n=c4 v=0
900368 On ch=3 n=f5 v=54
900368 On ch=3 n=g#4 v=54
900368 On ch=3 n=f4 v=54
901298 On ch=3 n=f4 v=0
901298 On ch=3 n=g#4 v=0
901298 On ch=3 n=f5 v=0
936514 On ch=3 n=c#4 v=109
936514 On ch=3 n=c#3 v=109
936526 Par ch=3 c=64 v=127
937186 On ch=3 n=c#3 v=0
937186 On ch=3 n=c#4 v=0
937186 On ch=3 n=f5 v=106
937186 On ch=3 n=g#4 v=106
937920 On ch=3 n=g#4 v=0
937920 On ch=3 n=f5 v=0
937920 On ch=3 n=b4 v=111
937920 On ch=3 n=c#4 v=111
938616 On ch=3 n=c#4 v=0
938616 On ch=3 n=b4 v=0
938616 On ch=3 n=f5 v=106
938616 On ch=3 n=g#4 v=106
939320 Par ch=3 c=64 v=0
939326 On ch=3 n=g#4 v=0
939326 On ch=3 n=f5 v=0
939326 On ch=3 n=a#4 v=106
939326 On ch=3 n=c#4 v=106
939338 Par ch=3 c=64 v=127
940012 On ch=3 n=c#4 v=0
940012 On ch=3 n=f#5 v=106
940012 On ch=3 n=f#4 v=106
940706 Par ch=3 c=64 v=0
940724 On ch=3 n=f#4 v=0
940724 On ch=3 n=f#5 v=0
940724 On ch=3 n=a#4 v=0
940724 On ch=3 n=b4 v=106
940724 On ch=3 n=c#4 v=106
940736 Par ch=3 c=64 v=127
941438 On ch=3 n=c#4 v=0
941438 On ch=3 n=b4 v=0
941438 On ch=3 n=f5 v=106
941438 On ch=3 n=g#4 v=106
942128 On ch=3 n=g#4 v=0
942128 On ch=3 n=f5 v=0
942128 On ch=3 n=b4 v=106
942128 On ch=3 n=c#4 v=106
942808 On ch=3 n=c#4 v=0
942808 On ch=3 n=b4 v=0
942808 On ch=3 n=f5 v=106
942808 On ch=3 n=g#4 v=106
943506 Par ch=3 c=64 v=0
943526 On ch=3 n=g#4 v=0
943526 On ch=3 n=f5 v=0
943526 On ch=3 n=a#4 v=106
943526 On ch=3 n=c#4 v=106
943538 Par ch=3 c=64 v=127
944234 On ch=3 n=c#4 v=0
944234 On ch=3 n=f#5 v=106
944234 On ch=3 n=f#4 v=106
944910 Par ch=3 c=64 v=0
944916 On ch=3 n=f#4 v=0
944916 On ch=3 n=f#5 v=0
944916 On ch=3 n=a#4 v=0
944916 On ch=3 n=g#4 v=106
944916 On ch=3 n=d4 v=106
944926 Par ch=3 c=64 v=127
945604 On ch=3 n=d4 v=0
945604 On ch=3 n=g#4 v=0
945604 On ch=3 n=f5 v=106
945604 On ch=3 n=a#4 v=106
946340 On ch=3 n=a#4 v=0
946340 On ch=3 n=f5 v=0
946340 On ch=3 n=g#4 v=106
946340 On ch=3 n=d4 v=106
947014 On ch=3 n=d4 v=0
947014 On ch=3 n=g#4 v=0
947014 On ch=3 n=f5 v=106
947014 On ch=3 n=a#4 v=106
947750 Par ch=3 c=64 v=0
947756 On ch=3 n=a#4 v=0
947756 On ch=3 n=f5 v=0
947756 On ch=3 n=f#4 v=106
947756 On ch=3 n=d#4 v=106
947768 Par ch=3 c=64 v=127
948428 On ch=3 n=d#4 v=0
948428 On ch=3 n=f#4 v=0
948428 On ch=3 n=d#5 v=106
948428 On ch=3 n=a#4 v=106
949082 Par ch=3 c=64 v=0
949118 On ch=3 n=a#4 v=0
949118 On ch=3 n=d#5 v=0
949118 On ch=3 n=f4 v=106
949118 On ch=3 n=a#3 v=106
949130 Par ch=3 c=64 v=127
949838 On ch=3 n=a#3 v=0
949838 On ch=3 n=f4 v=0
949838 On ch=3 n=d5 v=106
949838 On ch=3 n=a#4 v=106
950554 On ch=3 n=a#4 v=0
950554 On ch=3 n=d5 v=0
950554 On ch=3 n=f4 v=106
950554 On ch=3 n=a#3 v=106
951224 On ch=3 n=a#3 v=0
951224 On ch=3 n=f4 v=0
951224 On ch=3 n=d5 v=106
951224 On ch=3 n=a#4 v=106
951986 On ch=3 n=a#4 v=0
951986 On ch=3 n=d5 v=0
951986 On ch=3 n=f4 v=106
951986 On ch=3 n=a#3 v=106
952730 On ch=3 n=a#3 v=0
952730 On ch=3 n=f4 v=0
952730 On ch=3 n=d5 v=106
952730 On ch=3 n=a#4 v=106
953440 Par ch=3 c=64 v=0
953466 On ch=3 n=a#4 v=0
953466 On ch=3 n=d5 v=0
953466 On ch=3 n=f4 v=106
953466 On ch=3 n=a#3 v=106
953478 Par ch=3 c=64 v=127
954210 On ch=3 n=a#3 v=0
954210 On ch=3 n=f4 v=0
954210 On ch=3 n=d5 v=106
954210 On ch=3 n=g#4 v=106
954964 On ch=3 n=g#4 v=0
954964 On ch=3 n=d5 v=0
954964 On ch=3 n=f4 v=106
954964 On ch=3 n=a#3 v=106
955710 On ch=3 n=a#3 v=0
955710 On ch=3 n=f4 v=0
955710 On ch=3 n=d5 v=106
955710 On ch=3 n=g#4 v=106
956436 On ch=3 n=g#4 v=0
956436 On ch=3 n=d5 v=0
956436 On ch=3 n=f4 v=106
956436 On ch=3 n=a#3 v=106
957128 On ch=3 n=a#3 v=0
957128 On ch=3 n=f4 v=0
957128 On ch=3 n=d5 v=106
957128 On ch=3 n=g#4 v=106
957810 Par ch=3 c=64 v=0
957848 On ch=3 n=g#4 v=0
957848 On ch=3 n=d5 v=0
957848 On ch=3 n=a#4 v=106
957848 On ch=3 n=d#4 v=106
957860 Par ch=3 c=64 v=127
958610 On ch=3 n=d#4 v=0
958610 On ch=3 n=a#4 v=0
958610 On ch=3 n=g5 v=102
958610 On ch=3 n=d#5 v=102
959344 Par ch=3 c=64 v=0
959352 On ch=3 n=d#5 v=0
959352 On ch=3 n=g5 v=0
959352 On ch=3 n=d#5 v=102
959352 On ch=3 n=a#4 v=102
959352 On ch=3 n=g4 v=102
960074 On ch=3 n=g4 v=0
960074 On ch=3 n=a#4 v=0
960074 On ch=3 n=d#5 v=0
960074 On ch=3 n=g5 v=102
960074 On ch=3 n=d#5 v=102
960806 On ch=3 n=d#5 v=0
960806 On ch=3 n=g5 v=0
960806 On ch=3 n=g5 v=102
960806 On ch=3 n=d#5 v=102
961524 On ch=3 n=a#5 v=102
961524 On ch=3 n=a#4 v=102
962236 On ch=3 n=a#4 v=0
962236 On ch=3 n=a#5 v=0
962236 On ch=3 n=d#5 v=0
962236 On ch=3 n=g5 v=0
962236 On ch=3 n=g#5 v=102
962236 On ch=3 n=f5 v=102
962248 Par ch=3 c=64 v=127
962980 On ch=3 n=a#5 v=99
962980 On ch=3 n=a#4 v=99
963690 Par ch=3 c=64 v=0
963720 On ch=3 n=a#4 v=0
963720 On ch=3 n=a#5 v=0
963720 On ch=3 n=f5 v=0
963720 On ch=3 n=g#5 v=0
963720 On ch=3 n=g#5 v=105
963720 On ch=3 n=d#5 v=105
963732 Par ch=3 c=64 v=127
964486 On ch=3 n=a#5 v=100
964486 On ch=3 n=a#4 v=100
965178 Par ch=3 c=64 v=0
965210 On ch=3 n=a#4 v=0
965210 On ch=3 n=a#5 v=0
965210 On ch=3 n=d#5 v=0
965210 On ch=3 n=g#5 v=0
965210 On ch=3 n=g#5 v=99
965210 On ch=3 n=d5 v=99
965222 Par ch=3 c=64 v=127
965958 On ch=3 n=a#5 v=98
965958 On ch=3 n=a#4 v=98
966676 Par ch=3 c=64 v=0
966724 On ch=3 n=a#4 v=0
966724 On ch=3 n=a#5 v=0
966724 On ch=3 n=d5 v=0
966724 On ch=3 n=g#5 v=0
966738 Par ch=3 c=64 v=127
969678 Par ch=3 c=64 v=0
971270 Par ch=3 c=64 v=127
975802 Par ch=3 c=64 v=0
975850 Par ch=3 c=64 v=127
980466 Par ch=3 c=64 v=0
980488 Par ch=3 c=64 v=127
984986 Par ch=3 c=64 v=0
985038 Par ch=3 c=64 v=127
989732 Par ch=3 c=64 v=0
989756 Par ch=3 c=64 v=127
994452 Par ch=3 c=64 v=0
994498 Par ch=3 c=64 v=127
999566 Par ch=3 c=64 v=0
1013458 On ch=3 n=f4 v=76
1019118 On ch=3 n=f4 v=0
1019118 On ch=3 n=g4 v=68
1021060 On ch=3 n=g4 v=0
1021060 On ch=3 n=g4 v=69
1022930 On ch=3 n=g4 v=0
1022930 On ch=3 n=f4 v=68
1024864 On ch=3 n=f4 v=0
1024864 On ch=3 n=e4 v=64
1026832 On ch=3 n=e4 v=0
1026832 On ch=3 n=c#4 v=62
1028738 On ch=3 n=c#4 v=0
1028738 On ch=3 n=c4 v=67
1030638 On ch=3 n=c4 v=0
1030638 On ch=3 n=a#3 v=86
1032376 On ch=3 n=a#3 v=0
1032376 On ch=3 n=c4 v=86
1034204 On ch=3 n=c4 v=0
1034204 On ch=3 n=f4 v=69
1036038 On ch=3 n=f4 v=0
1036038 On ch=3 n=a#3 v=82
1036054 Par ch=3 c=64 v=127
1039618 Par ch=3 c=64 v=0
1039640 On ch=3 n=a#3 v=0
1039640 On ch=3 n=c4 v=80
1041394 On ch=3 n=c4 v=0
1041394 On ch=3 n=c#4 v=85
1045078 On ch=3 n=c#4 v=0
1045078 On ch=3 n=c4 v=69
1046852 On ch=3 n=c4 v=0
1046852 On ch=3 n=a#3 v=77
1046866 Par ch=3 c=64 v=127
1050338 Par ch=3 c=64 v=0
1050356 On ch=3 n=a#3 v=0
1050356 On ch=3 n=c4 v=85
1052078 On ch=3 n=c4 v=0
1052078 On ch=3 n=c#4 v=89
1055594 On ch=3 n=c#4 v=0
1055594 On ch=3 n=c4 v=83
1057336 On ch=3 n=c4 v=0
1057336 On ch=3 n=a#3 v=85
1057350 Par ch=3 c=64 v=127
1060734 On ch=3 n=a#3 v=0
1060734 On ch=3 n=a#3 v=120
1062554 Par ch=3 c=64 v=0
1062594 On ch=3 n=a#3 v=0
1062594 On ch=3 n=a#3 v=123
1062610 Par ch=3 c=64 v=127
1067906 Par ch=3 c=64 v=0
1067962 On ch=3 n=a#3 v=0
1067962 On ch=3 n=c4 v=113
1067962 On ch=3 n=c3 v=113
1067978 Par ch=3 c=64 v=127
1069830 On ch=3 n=c3 v=0
1069830 On ch=3 n=c4 v=0
1069830 On ch=3 n=e5 v=103
1069830 On ch=3 n=a#4 v=103
1069830 On ch=3 n=g4 v=103
1070266 On ch=3 n=g4 v=0
1070266 On ch=3 n=g#4 v=103
1070688 Par ch=3 c=64 v=0
1070702 On ch=3 n=g#4 v=0
1070702 On ch=3 n=g4 v=103
1071132 On ch=3 n=g4 v=0
1071132 On ch=3 n=g#4 v=103
1071576 On ch=3 n=g#4 v=0
1071576 On ch=3 n=a#4 v=0
1071576 On ch=3 n=e5 v=0
1071576 On ch=3 n=g5 v=103
1071576 On ch=3 n=a#4 v=103
1072406 On ch=3 n=a#4 v=0
1072406 On ch=3 n=g5 v=0
1073294 On ch=3 n=c4 v=112
1073294 On ch=3 n=c3 v=112
1073310 Par ch=3 c=64 v=127
1075050 On ch=3 n=c3 v=0
1075050 On ch=3 n=c4 v=0
1075050 On ch=3 n=e5 v=101
1075050 On ch=3 n=a#4 v=101
1075050 On ch=3 n=g4 v=101
1075486 On ch=3 n=g4 v=0
1075486 On ch=3 n=g#4 v=101
1075890 Par ch=3 c=64 v=0
1075898 On ch=3 n=g#4 v=0
1075898 On ch=3 n=g4 v=101
1076348 On ch=3 n=g4 v=0
1076348 On ch=3 n=g#4 v=101
1076792 On ch=3 n=g#4 v=0
1076792 On ch=3 n=a#4 v=0
1076792 On ch=3 n=e5 v=0
1076792 On ch=3 n=g5 v=101
1076792 On ch=3 n=a#4 v=101
1077656 On ch=3 n=a#4 v=0
1077656 On ch=3 n=g5 v=0
1078484 On ch=3 n=c4 v=101
1078484 On ch=3 n=c3 v=101
1078498 Par ch=3 c=64 v=127
1080240 On ch=3 n=c3 v=0
1080240 On ch=3 n=c4 v=0
1080240 On ch=3 n=f5 v=101
1080240 On ch=3 n=c5 v=101
1080240 On ch=3 n=g#4 v=101
1080694 On ch=3 n=g#4 v=0
1080694 On ch=3 n=a#4 v=99
1081118 Par ch=3 c=64 v=0
1081126 On ch=3 n=a#4 v=0
1081126 On ch=3 n=g#4 v=92
1081546 On ch=3 n=g#4 v=0
1081546 On ch=3 n=a#4 v=96
1081972 On ch=3 n=a#4 v=0
1081972 On ch=3 n=c5 v=0
1081972 On ch=3 n=f5 v=0
1081972 On ch=3 n=g#5 v=98
1081972 On ch=3 n=c5 v=98
1082786 On ch=3 n=c5 v=0
1082786 On ch=3 n=g#5 v=0
1083618 On ch=3 n=c4 v=101
1083618 On ch=3 n=c3 v=101
1083630 Par ch=3 c=64 v=127
1085356 On ch=3 n=c3 v=0
1085356 On ch=3 n=c4 v=0
1085356 On ch=3 n=f5 v=92
1085356 On ch=3 n=c5 v=92
1085356 On ch=3 n=g#4 v=92
1085774 On ch=3 n=g#4 v=0
1085774 On ch=3 n=a#4 v=89
1086178 Par ch=3 c=64 v=0
1086192 On ch=3 n=a#4 v=0
1086192 On ch=3 n=g#4 v=91
1086628 On ch=3 n=g#4 v=0
1086628 On ch=3 n=a#4 v=98
1087056 On ch=3 n=a#4 v=0
1087056 On ch=3 n=c5 v=0
1087056 On ch=3 n=f5 v=0
1087056 On ch=3 n=g#5 v=101
1087056 On ch=3 n=c5 v=101
1087880 On ch=3 n=c5 v=0
1087880 On ch=3 n=g#5 v=0
1088730 On ch=3 n=c4 v=101
1088730 On ch=3 n=c3 v=101
1088744 Par ch=3 c=64 v=127
1090422 On ch=3 n=c3 v=0
1090422 On ch=3 n=c4 v=0
1090422 On ch=3 n=f5 v=127
1090422 On ch=3 n=d5 v=127
1090422 On ch=3 n=g#4 v=127
1090868 On ch=3 n=g#4 v=0
1090868 On ch=3 n=a#4 v=118
1091258 Par ch=3 c=64 v=0
1091266 On ch=3 n=a#4 v=0
1091266 On ch=3 n=g#4 v=113
1091696 On ch=3 n=g#4 v=0
1091696 On ch=3 n=a#4 v=115
1092158 On ch=3 n=a#4 v=0
1092158 On ch=3 n=d5 v=0
1092158 On ch=3 n=f5 v=0
1092158 On ch=3 n=g#5 v=122
1092158 On ch=3 n=b4 v=122
1092984 On ch=3 n=b4 v=0
1092984 On ch=3 n=g#5 v=0
1093810 On ch=3 n=c4 v=127
1093810 On ch=3 n=c3 v=127
1093824 Par ch=3 c=64 v=127
1095438 On ch=3 n=c3 v=0
1095438 On ch=3 n=c4 v=0
1095438 On ch=3 n=f5 v=115
1095438 On ch=3 n=d5 v=115
1095438 On ch=3 n=g#4 v=115
1095852 On ch=3 n=g#4 v=0
1095852 On ch=3 n=a#4 v=112
1096252 Par ch=3 c=64 v=0
1096272 On ch=3 n=a#4 v=0
1096272 On ch=3 n=g#4 v=112
1096692 On ch=3 n=g#4 v=0
1096692 On ch=3 n=a#4 v=111
1097114 On ch=3 n=a#4 v=0
1097114 On ch=3 n=d5 v=0
1097114 On ch=3 n=f5 v=0
1097114 On ch=3 n=g#5 v=111
1097114 On ch=3 n=b4 v=111
1097956 On ch=3 n=b4 v=0
1097956 On ch=3 n=g#5 v=0
1098858 On ch=3 n=c4 v=108
1098858 On ch=3 n=c3 v=108
1098874 Par ch=3 c=64 v=127
1100556 On ch=3 n=c3 v=0
1100556 On ch=3 n=c4 v=0
1100556 On ch=3 n=e5 v=98
1100556 On ch=3 n=c5 v=98
1100556 On ch=3 n=g4 v=98
1100998 On ch=3 n=g4 v=0
1100998 On ch=3 n=g#4 v=95
1101408 Par ch=3 c=64 v=0
1101416 On ch=3 n=g#4 v=0
1101416 On ch=3 n=g4 v=95
1101830 On ch=3 n=g4 v=0
1101830 On ch=3 n=g#4 v=98
1102268 On ch=3 n=g#4 v=0
1102268 On ch=3 n=c5 v=0
1102268 On ch=3 n=e5 v=0
1102268 On ch=3 n=e5 v=92
1102268 On ch=3 n=c5 v=92
1102268 On ch=3 n=g4 v=92
1102282 Par ch=3 c=64 v=127
1103192 On ch=3 n=g4 v=0
1103192 On ch=3 n=c5 v=0
1103192 On ch=3 n=e5 v=0
1104138 Par ch=3 c=64 v=0
1104146 On ch=3 n=c4 v=94
1104146 On ch=3 n=c3 v=94
1104162 Par ch=3 c=64 v=127
1106014 On ch=3 n=c3 v=0
1106014 On ch=3 n=c4 v=0
1106014 On ch=3 n=e5 v=90
1106014 On ch=3 n=c5 v=90
1106014 On ch=3 n=g4 v=90
1106452 On ch=3 n=g4 v=0
1106452 On ch=3 n=g#4 v=91
1106876 Par ch=3 c=64 v=0
1106888 On ch=3 n=g#4 v=0
1106888 On ch=3 n=g4 v=90
1107328 On ch=3 n=g4 v=0
1107328 On ch=3 n=g#4 v=86
1107784 On ch=3 n=g#4 v=0
1107784 On ch=3 n=c5 v=0
1107784 On ch=3 n=e5 v=0
1107784 On ch=3 n=e5 v=89
1107784 On ch=3 n=c5 v=89
1107784 On ch=3 n=g4 v=89
1107800 Par ch=3 c=64 v=127
1108690 On ch=3 n=g4 v=0
1108690 On ch=3 n=c5 v=0
1108690 On ch=3 n=e5 v=0
1108690 On ch=3 n=c4 v=82
1109594 Par ch=3 c=64 v=0
1109602 On ch=3 n=c4 v=0
1109602 On ch=3 n=a#3 v=102
1109616 Par ch=3 c=64 v=127
1109712 On ch=3 n=g4 v=102
1112326 Par ch=3 c=64 v=0
1112348 On ch=3 n=a#3 v=0
1112348 On ch=3 n=a#3 v=96
1113292 On ch=3 n=a#3 v=0
1113292 On ch=3 n=g4 v=0
1113292 On ch=3 n=f4 v=89
1113292 On ch=3 n=g#3 v=89
1114230 On ch=3 n=g#3 v=0
1114230 On ch=3 n=f3 v=81
1115144 On ch=3 n=f3 v=0
1115144 On ch=3 n=f4 v=0
1115144 On ch=3 n=a#3 v=67
1115158 Par ch=3 c=64 v=127
1115252 On ch=3 n=g4 v=67
1117982 Par ch=3 c=64 v=0
1118020 On ch=3 n=a#3 v=0
1118020 On ch=3 n=a#3 v=78
1119006 On ch=3 n=a#3 v=0
1119006 On ch=3 n=g4 v=0
1119006 On ch=3 n=f4 v=76
1119006 On ch=3 n=g#3 v=76
1120028 On ch=3 n=g#3 v=0
1120028 On ch=3 n=f3 v=76
1121052 On ch=3 n=f3 v=0
1121052 On ch=3 n=f4 v=0
1121052 On ch=3 n=g#4 v=76
1121052 On ch=3 n=c#4 v=76
1123162 On ch=3 n=g#4 v=0
1123162 On ch=3 n=a#4 v=76
1125354 On ch=3 n=a#4 v=0
1125354 On ch=3 n=b4 v=85
1127564 On ch=3 n=b4 v=0
1127564 On ch=3 n=c#4 v=0
1127564 On ch=3 n=a#4 v=83
1127564 On ch=3 n=c4 v=83
1127580 Par ch=3 c=64 v=127
1128666 On ch=3 n=a#4 v=0
1128666 On ch=3 n=e5 v=69
1128666 On ch=3 n=a#4 v=69
1131038 Par ch=3 c=64 v=0
1131050 On ch=3 n=a#4 v=0
1131050 On ch=3 n=e5 v=0
1131050 On ch=3 n=e5 v=73
1131050 On ch=3 n=a#4 v=73
1132446 On ch=3 n=a#4 v=0
1132446 On ch=3 n=e5 v=0
1132446 On ch=3 n=c4 v=0
1132446 On ch=3 n=f5 v=61
1132446 On ch=3 n=g#4 v=61
1132446 On ch=3 n=f4 v=61
1134030 On ch=3 n=f4 v=0
1134030 On ch=3 n=g#4 v=0
1134030 On ch=3 n=f5 v=0
1134030 Meta TrkEnd
TrkEnd
MTrk
0 SeqSpec 43 00 01 00
0 Meta TrkName "4 Accompagnement main droite"
0 PrCh ch=4 p=0
0 Par ch=4 c=10 v=80
0 Par ch=4 c=7 v=110
316724 Par ch=4 c=64 v=127
316950 On ch=4 n=d#5 v=90
317632 On ch=4 n=d#5 v=0
317632 On ch=4 n=c#6 v=90
317632 On ch=4 n=g5 v=90
318060 On ch=4 n=g5 v=0
318060 On ch=4 n=c#6 v=0
318060 On ch=4 n=c#6 v=90
318060 On ch=4 n=g5 v=90
318454 On ch=4 n=g5 v=0
318454 On ch=4 n=c#6 v=0
318454 On ch=4 n=c#6 v=90
318454 On ch=4 n=g5 v=90
319312 On ch=4 n=g5 v=0
319312 On ch=4 n=c#6 v=0
319312 On ch=4 n=c#6 v=90
319312 On ch=4 n=g5 v=90
320166 Par ch=4 c=64 v=0
320174 On ch=4 n=g5 v=0
320174 On ch=4 n=c#6 v=0
320174 On ch=4 n=g#5 v=90
320174 On ch=4 n=c6 v=90
321026 On ch=4 n=c6 v=0
321026 On ch=4 n=g#5 v=0
321896 Par ch=4 c=64 v=127
322718 On ch=4 n=c#6 v=90
322718 On ch=4 n=g5 v=90
323092 On ch=4 n=g5 v=0
323092 On ch=4 n=c#6 v=0
323092 On ch=4 n=c#6 v=90
323092 On ch=4 n=g5 v=90
323468 On ch=4 n=g5 v=0
323468 On ch=4 n=c#6 v=0
323468 On ch=4 n=c#6 v=90
323468 On ch=4 n=g5 v=90
324320 On ch=4 n=g5 v=0
324320 On ch=4 n=c#6 v=0
324320 On ch=4 n=c#6 v=90
324320 On ch=4 n=g5 v=90
325154 Par ch=4 c=64 v=0
325162 On ch=4 n=g5 v=0
325162 On ch=4 n=c#6 v=0
325162 On ch=4 n=c6 v=90
325990 On ch=4 n=c6 v=0
326798 Par ch=4 c=64 v=127
327564 On ch=4 n=e6 v=90
327564 On ch=4 n=a#5 v=90
327912 On ch=4 n=a#5 v=0
327912 On ch=4 n=e6 v=0
327912 On ch=4 n=e6 v=90
327912 On ch=4 n=a#5 v=90
328284 On ch=4 n=a#5 v=0
328284 On ch=4 n=e6 v=0
328284 On ch=4 n=e6 v=90
328284 On ch=4 n=a#5 v=90
329080 On ch=4 n=a#5 v=0
329080 On ch=4 n=e6 v=0
329080 On ch=4 n=e6 v=90
329080 On ch=4 n=a#5 v=90
329866 Par ch=4 c=64 v=0
329888 On ch=4 n=a#5 v=0
329888 On ch=4 n=e6 v=0
329888 On ch=4 n=f6 v=90
329888 On ch=4 n=g#5 v=90
330642 On ch=4 n=g#5 v=0
330642 On ch=4 n=f6 v=0
331432 Par ch=4 c=64 v=127
332168 On ch=4 n=e6 v=90
332168 On ch=4 n=a#5 v=90
332536 On ch=4 n=a#5 v=0
332536 On ch=4 n=e6 v=0
332536 On ch=4 n=e6 v=90
332536 On ch=4 n=a#5 v=90
332904 On ch=4 n=a#5 v=0
332904 On ch=4 n=e6 v=0
332904 On ch=4 n=e6 v=90
332904 On ch=4 n=a#5 v=90
333664 On ch=4 n=a#5 v=0
333664 On ch=4 n=e6 v=0
333664 On ch=4 n=e6 v=86
333664 On ch=4 n=a#5 v=86
334378 Par ch=4 c=64 v=0
334386 On ch=4 n=a#5 v=0
334386 On ch=4 n=e6 v=0
334386 On ch=4 n=f6 v=82
334386 On ch=4 n=g#5 v=82
335122 On ch=4 n=g#5 v=0
335122 On ch=4 n=f6 v=0
335870 Par ch=4 c=64 v=127
336654 On ch=4 n=c6 v=95
336654 On ch=4 n=f#5 v=95
337016 On ch=4 n=f#5 v=0
337016 On ch=4 n=c6 v=0
337016 On ch=4 n=c6 v=95
337016 On ch=4 n=f#5 v=95
337370 On ch=4 n=f#5 v=0
337370 On ch=4 n=c6 v=0
337370 On ch=4 n=c6 v=95
337370 On ch=4 n=f#5 v=95
338132 On ch=4 n=f#5 v=0
338132 On ch=4 n=c6 v=0
338132 On ch=4 n=c6 v=91
338132 On ch=4 n=f#5 v=91
338846 Par ch=4 c=64 v=0
338862 On ch=4 n=f#5 v=0
338862 On ch=4 n=c6 v=0
338862 On ch=4 n=c#6 v=88
338862 On ch=4 n=f5 v=88
339612 On ch=4 n=f5 v=0
339612 On ch=4 n=c#6 v=0
340374 Par ch=4 c=64 v=127
341122 On ch=4 n=c6 v=92
341484 On ch=4 n=c6 v=0
341484 On ch=4 n=c6 v=89
341852 On ch=4 n=c6 v=0
341852 On ch=4 n=c6 v=89
342568 On ch=4 n=c6 v=0
342568 On ch=4 n=c6 v=89
343274 Par ch=4 c=64 v=0
343296 On ch=4 n=c6 v=0
343296 On ch=4 n=c#6 v=93
343986 On ch=4 n=c#6 v=0
344746 Par ch=4 c=64 v=127
345492 On ch=4 n=a6 v=98
345492 On ch=4 n=d#6 v=98
345814 On ch=4 n=d#6 v=0
345814 On ch=4 n=a6 v=0
345814 On ch=4 n=a6 v=98
345814 On ch=4 n=d#6 v=98
346166 On ch=4 n=d#6 v=0
346166 On ch=4 n=a6 v=0
346166 On ch=4 n=a6 v=98
346166 On ch=4 n=d#6 v=98
346928 On ch=4 n=d#6 v=0
346928 On ch=4 n=a6 v=0
346928 On ch=4 n=a6 v=98
346928 On ch=4 n=d#6 v=98
347650 Par ch=4 c=64 v=0
347670 On ch=4 n=d#6 v=0
347670 On ch=4 n=a6 v=0
347670 On ch=4 n=a#6 v=98
347670 On ch=4 n=d6 v=98
348410 On ch=4 n=d6 v=0
348410 On ch=4 n=a#6 v=0
349156 Par ch=4 c=64 v=127
349874 On ch=4 n=a6 v=98
349874 On ch=4 n=d#6 v=98
350212 On ch=4 n=d#6 v=0
350212 On ch=4 n=a6 v=0
350212 On ch=4 n=a6 v=98
350212 On ch=4 n=d#6 v=98
350534 On ch=4 n=d#6 v=0
350534 On ch=4 n=a6 v=0
350534 On ch=4 n=a6 v=98
350534 On ch=4 n=d#6 v=98
351296 On ch=4 n=d#6 v=0
351296 On ch=4 n=a6 v=0
351296 On ch=4 n=a6 v=97
351296 On ch=4 n=d#6 v=97
352000 Par ch=4 c=64 v=0
352046 On ch=4 n=d#6 v=0
352046 On ch=4 n=a6 v=0
352046 On ch=4 n=a#6 v=96
352046 On ch=4 n=d6 v=96
352784 On ch=4 n=d6 v=0
352784 On ch=4 n=a#6 v=0
902246 Par ch=4 c=64 v=127
902470 On ch=4 n=d#5 v=88
903060 On ch=4 n=d#5 v=0
903060 On ch=4 n=c#6 v=88
903060 On ch=4 n=g5 v=88
903390 On ch=4 n=g5 v=0
903390 On ch=4 n=c#6 v=0
903390 On ch=4 n=c#6 v=88
903390 On ch=4 n=g5 v=88
903714 On ch=4 n=g5 v=0
903714 On ch=4 n=c#6 v=0
903714 On ch=4 n=c#6 v=88
903714 On ch=4 n=g5 v=88
904526 On ch=4 n=g5 v=0
904526 On ch=4 n=c#6 v=0
904526 On ch=4 n=c#6 v=88
904526 On ch=4 n=g5 v=88
905284 Par ch=4 c=64 v=0
905316 On ch=4 n=g5 v=0
905316 On ch=4 n=c#6 v=0
905316 On ch=4 n=g#5 v=88
905316 On ch=4 n=c6 v=88
906082 On ch=4 n=c6 v=0
906082 On ch=4 n=g#5 v=0
906794 Par ch=4 c=64 v=127
907536 On ch=4 n=c#6 v=88
907536 On ch=4 n=g5 v=88
907858 On ch=4 n=g5 v=0
907858 On ch=4 n=c#6 v=0
907858 On ch=4 n=c#6 v=88
907858 On ch=4 n=g5 v=88
908158 On ch=4 n=g5 v=0
908158 On ch=4 n=c#6 v=0
908158 On ch=4 n=c#6 v=88
908158 On ch=4 n=g5 v=88
908862 On ch=4 n=g5 v=0
908862 On ch=4 n=c#6 v=0
908862 On ch=4 n=c#6 v=88
908862 On ch=4 n=g5 v=88
909586 Par ch=4 c=64 v=0
909622 On ch=4 n=g5 v=0
909622 On ch=4 n=c#6 v=0
909622 On ch=4 n=c6 v=88
910320 On ch=4 n=c6 v=0
911034 Par ch=4 c=64 v=127
911760 On ch=4 n=e6 v=88
911760 On ch=4 n=a#5 v=88
912098 On ch=4 n=a#5 v=0
912098 On ch=4 n=e6 v=0
912098 On ch=4 n=e6 v=88
912098 On ch=4 n=a#5 v=88
912438 On ch=4 n=a#5 v=0
912438 On ch=4 n=e6 v=0
912438 On ch=4 n=e6 v=88
912438 On ch=4 n=a#5 v=88
913156 On ch=4 n=a#5 v=0
913156 On ch=4 n=e6 v=0
913156 On ch=4 n=e6 v=88
913156 On ch=4 n=a#5 v=88
913908 Par ch=4 c=64 v=0
913920 On ch=4 n=a#5 v=0
913920 On ch=4 n=e6 v=0
913920 On ch=4 n=f6 v=93
913920 On ch=4 n=g#5 v=93
914658 On ch=4 n=g#5 v=0
914658 On ch=4 n=f6 v=0
915376 Par ch=4 c=64 v=127
916142 On ch=4 n=e6 v=92
916142 On ch=4 n=a#5 v=92
916478 On ch=4 n=a#5 v=0
916478 On ch=4 n=e6 v=0
916478 On ch=4 n=e6 v=92
916478 On ch=4 n=a#5 v=92
916812 On ch=4 n=a#5 v=0
916812 On ch=4 n=e6 v=0
916812 On ch=4 n=e6 v=94
916812 On ch=4 n=a#5 v=94
917538 On ch=4 n=a#5 v=0
917538 On ch=4 n=e6 v=0
917538 On ch=4 n=e6 v=94
917538 On ch=4 n=a#5 v=94
918222 Par ch=4 c=64 v=0
918276 On ch=4 n=a#5 v=0
918276 On ch=4 n=e6 v=0
918276 On ch=4 n=f6 v=103
918276 On ch=4 n=g#5 v=103
918968 On ch=4 n=g#5 v=0
918968 On ch=4 n=f6 v=0
919682 Par ch=4 c=64 v=127
920364 On ch=4 n=c6 v=90
920364 On ch=4 n=f#5 v=90
920712 On ch=4 n=f#5 v=0
920712 On ch=4 n=c6 v=0
920712 On ch=4 n=c6 v=90
920712 On ch=4 n=f#5 v=90
921054 On ch=4 n=f#5 v=0
921054 On ch=4 n=c6 v=0
921054 On ch=4 n=c6 v=89
921054 On ch=4 n=f#5 v=89
921796 On ch=4 n=f#5 v=0
921796 On ch=4 n=c6 v=0
921796 On ch=4 n=c6 v=88
921796 On ch=4 n=f#5 v=88
922476 Par ch=4 c=64 v=0
922490 On ch=4 n=f#5 v=0
922490 On ch=4 n=c6 v=0
922490 On ch=4 n=c#6 v=88
922490 On ch=4 n=f5 v=88
923178 On ch=4 n=f5 v=0
923178 On ch=4 n=c#6 v=0
923906 Par ch=4 c=64 v=127
924608 On ch=4 n=c6 v=89
924956 On ch=4 n=c6 v=0
924956 On ch=4 n=c6 v=89
925296 On ch=4 n=c6 v=0
925296 On ch=4 n=c6 v=89
925964 On ch=4 n=c6 v=0
925964 On ch=4 n=c6 v=89
926618 Par ch=4 c=64 v=0
926624 On ch=4 n=c6 v=0
926624 On ch=4 n=c#6 v=95
927292 On ch=4 n=c#6 v=0
927988 Par ch=4 c=64 v=127
928754 On ch=4 n=a6 v=96
928754 On ch=4 n=d#6 v=96
929100 On ch=4 n=d#6 v=0
929100 On ch=4 n=a6 v=0
929100 On ch=4 n=a6 v=96
929100 On ch=4 n=d#6 v=96
929440 On ch=4 n=d#6 v=0
929440 On ch=4 n=a6 v=0
929440 On ch=4 n=a6 v=96
929440 On ch=4 n=d#6 v=96
930136 On ch=4 n=d#6 v=0
930136 On ch=4 n=a6 v=0
930136 On ch=4 n=a6 v=96
930136 On ch=4 n=d#6 v=96
930810 Par ch=4 c=64 v=0
930836 On ch=4 n=d#6 v=0
930836 On ch=4 n=a6 v=0
930836 On ch=4 n=a#6 v=96
930836 On ch=4 n=d6 v=96
931542 On ch=4 n=d6 v=0
931542 On ch=4 n=a#6 v=0
932262 Par ch=4 c=64 v=127
932992 On ch=4 n=a6 v=102
932992 On ch=4 n=d#6 v=102
933328 On ch=4 n=d#6 v=0
933328 On ch=4 n=a6 v=0
933328 On ch=4 n=a6 v=99
933328 On ch=4 n=d#6 v=99
933668 On ch=4 n=d#6 v=0
933668 On ch=4 n=a6 v=0
933668 On ch=4 n=a6 v=99
933668 On ch=4 n=d#6 v=99
934374 On ch=4 n=d#6 v=0
934374 On ch=4 n=a6 v=0
934374 On ch=4 n=a6 v=99
934374 On ch=4 n=d#6 v=99
935064 Par ch=4 c=64 v=0
935108 On ch=4 n=d#6 v=0
935108 On ch=4 n=a6 v=0
935108 On ch=4 n=a#6 v=113
935108 On ch=4 n=d6 v=113
935806 On ch=4 n=d6 v=0
935806 On ch=4 n=a#6 v=0
935806 Meta TrkEnd
TrkEnd
MTrk
0 SeqSpec 43 00 01 00
0 Meta TrkName "5 Ornements"
0 PrCh ch=5 p=0
0 Par ch=5 c=10 v=80
0 Par ch=5 c=7 v=110
29282 On ch=5 n=d#6 v=51
29410 On ch=5 n=d#6 v=0
29410 On ch=5 n=c#6 v=51
29540 On ch=5 n=c#6 v=0
29540 On ch=5 n=d#6 v=51
29668 On ch=5 n=d#6 v=0
29668 On ch=5 n=c#6 v=51
29836 On ch=5 n=c#6 v=0
29836 On ch=5 n=d#6 v=46
29974 On ch=5 n=d#6 v=0
29974 On ch=5 n=c#6 v=46
30114 On ch=5 n=c#6 v=0
30114 On ch=5 n=d#6 v=46
30252 On ch=5 n=d#6 v=0
30252 On ch=5 n=c#6 v=46
30356 On ch=5 n=c#6 v=0
65140 On ch=5 n=g#5 v=49
65356 On ch=5 n=g#5 v=0
85182 On ch=5 n=e6 v=71
85384 On ch=5 n=e6 v=0
85384 On ch=5 n=f6 v=71
85588 On ch=5 n=f6 v=0
101522 On ch=5 n=g5 v=67
101716 On ch=5 n=g5 v=0
110982 On ch=5 n=c#6 v=61
111102 On ch=5 n=c#6 v=0
111102 On ch=5 n=c6 v=61
111222 On ch=5 n=c6 v=0
111222 On ch=5 n=a#5 v=61
111342 On ch=5 n=a#5 v=0
111342 On ch=5 n=c6 v=61
111438 On ch=5 n=c6 v=0
137186 On ch=5 n=e5 v=63
137312 On ch=5 n=e5 v=0
137312 On ch=5 n=f5 v=63
137438 On ch=5 n=f5 v=0
137438 On ch=5 n=e5 v=63
137564 On ch=5 n=e5 v=0
137564 On ch=5 n=d#5 v=63
137646 On ch=5 n=d#5 v=0
143066 On ch=5 n=e5 v=39
143188 On ch=5 n=e5 v=0
143188 On ch=5 n=f5 v=39
143312 On ch=5 n=f5 v=0
143312 On ch=5 n=e5 v=39
143434 On ch=5 n=e5 v=0
143434 On ch=5 n=d#5 v=39
143556 On ch=5 n=d#5 v=0
222164 On ch=5 n=g#5 v=63
222362 On ch=5 n=g#5 v=0
242008 On ch=5 n=e6 v=72
242214 On ch=5 n=e6 v=0
242214 On ch=5 n=f6 v=72
242422 On ch=5 n=f6 v=0
258032 On ch=5 n=g5 v=62
258234 On ch=5 n=g5 v=0
267402 On ch=5 n=c#6 v=55
267522 On ch=5 n=c#6 v=0
267522 On ch=5 n=c6 v=55
267644 On ch=5 n=c6 v=0
267644 On ch=5 n=a#5 v=55
267764 On ch=5 n=a#5 v=0
267764 On ch=5 n=c6 v=55
267884 On ch=5 n=c6 v=0
293300 On ch=5 n=e5 v=61
293424 On ch=5 n=e5 v=0
293424 On ch=5 n=f5 v=61
293548 On ch=5 n=f5 v=0
293548 On ch=5 n=e5 v=61
293672 On ch=5 n=e5 v=0
293672 On ch=5 n=d#5 v=61
293752 On ch=5 n=d#5 v=0
299080 On ch=5 n=e5 v=41
299200 On ch=5 n=e5 v=0
299200 On ch=5 n=f5 v=41
299318 On ch=5 n=f5 v=0
299318 On ch=5 n=e5 v=41
299436 On ch=5 n=e5 v=0
299436 On ch=5 n=d#5 v=41
299574 On ch=5 n=d#5 v=0
316708 On ch=5 n=d#5 v=75
316910 On ch=5 n=d#5 v=0
354980 On ch=5 n=c#7 v=77
355070 On ch=5 n=c#7 v=0
355070 On ch=5 n=b6 v=77
355162 On ch=5 n=b6 v=0
355162 On ch=5 n=c#7 v=77
355252 On ch=5 n=c#7 v=0
355252 On ch=5 n=b6 v=77
355346 On ch=5 n=b6 v=0
359402 On ch=5 n=a#6 v=75
359494 On ch=5 n=a#6 v=0
359494 On ch=5 n=g#6 v=75
359586 On ch=5 n=g#6 v=0
359586 On ch=5 n=a#6 v=75
359678 On ch=5 n=a#6 v=0
359678 On ch=5 n=g#6 v=75
359776 On ch=5 n=g#6 v=0
363868 On ch=5 n=a#6 v=80
363960 On ch=5 n=a#6 v=0
363960 On ch=5 n=g#6 v=80
364054 On ch=5 n=g#6 v=0
364054 On ch=5 n=a#6 v=80
364146 On ch=5 n=a#6 v=0
364146 On ch=5 n=g#6 v=80
364244 On ch=5 n=g#6 v=0
371742 On ch=5 n=d6 v=78
371838 On ch=5 n=d6 v=0
371838 On ch=5 n=c6 v=78
371936 On ch=5 n=c6 v=0
371936 On ch=5 n=d6 v=78
372032 On ch=5 n=d6 v=0
372032 On ch=5 n=c6 v=78
372148 On ch=5 n=c6 v=0
373380 On ch=5 n=d6 v=80
373478 On ch=5 n=d6 v=0
373478 On ch=5 n=c6 v=80
373574 On ch=5 n=c6 v=0
373574 On ch=5 n=d6 v=80
373672 On ch=5 n=d6 v=0
373672 On ch=5 n=c6 v=80
373794 On ch=5 n=c6 v=0
381490 On ch=5 n=f6 v=80
381592 On ch=5 n=f6 v=0
381592 On ch=5 n=d#6 v=80
381694 On ch=5 n=d#6 v=0
381694 On ch=5 n=f6 v=80
381798 On ch=5 n=f6 v=0
381798 On ch=5 n=d#6 v=80
381884 On ch=5 n=d#6 v=0
383080 On ch=5 n=d#6 v=80
383176 On ch=5 n=d#6 v=0
383176 On ch=5 n=d6 v=80
383272 On ch=5 n=d6 v=0
383272 On ch=5 n=d#6 v=80
383368 On ch=5 n=d#6 v=0
383368 On ch=5 n=d6 v=80
383494 On ch=5 n=d6 v=0
384726 On ch=5 n=d6 v=86
384832 On ch=5 n=d6 v=0
384832 On ch=5 n=c6 v=86
384938 On ch=5 n=c6 v=0
384938 On ch=5 n=d6 v=86
385042 On ch=5 n=d6 v=0
385042 On ch=5 n=c6 v=86
385128 On ch=5 n=c6 v=0
467012 On ch=5 n=g#5 v=71
467200 On ch=5 n=g#5 v=0
484780 On ch=5 n=e6 v=76
484942 On ch=5 n=e6 v=0
484942 On ch=5 n=f6 v=76
485102 On ch=5 n=f6 v=0
498892 On ch=5 n=g5 v=68
499060 On ch=5 n=g5 v=0
507210 On ch=5 n=c#6 v=54
507318 On ch=5 n=c#6 v=0
507318 On ch=5 n=c6 v=54
507426 On ch=5 n=c6 v=0
507426 On ch=5 n=a#5 v=54
507532 On ch=5 n=a#5 v=0
507532 On ch=5 n=c6 v=54
507614 On ch=5 n=c6 v=0
530464 On ch=5 n=e5 v=75
530572 On ch=5 n=e5 v=0
530572 On ch=5 n=f5 v=75
530682 On ch=5 n=f5 v=0
530682 On ch=5 n=e5 v=75
530790 On ch=5 n=e5 v=0
530790 On ch=5 n=d#5 v=75
530880 On ch=5 n=d#5 v=0
535756 On ch=5 n=e5 v=50
535870 On ch=5 n=e5 v=0
535870 On ch=5 n=f5 v=50
535984 On ch=5 n=f5 v=0
535984 On ch=5 n=e5 v=50
536098 On ch=5 n=e5 v=0
536098 On ch=5 n=d#5 v=50
536196 On ch=5 n=d#5 v=0
556918 On ch=5 n=c#6 v=49
557114 On ch=5 n=c#6 v=0
558866 On ch=5 n=a#5 v=49
558988 On ch=5 n=a#5 v=0
564588 On ch=5 n=d6 v=47
564712 On ch=5 n=d6 v=0
564712 On ch=5 n=d#6 v=47
564836 On ch=5 n=d#6 v=0
570474 On ch=5 n=f6 v=44
570594 On ch=5 n=f6 v=0
576200 On ch=5 n=g#5 v=55
576200 On ch=5 n=c6 v=55
576320 On ch=5 n=c6 v=0
576320 On ch=5 n=g#5 v=0
576320 On ch=5 n=a#5 v=55
576320 On ch=5 n=c#6 v=55
576440 On ch=5 n=c#6 v=0
576440 On ch=5 n=a#5 v=0
581554 On ch=5 n=a#5 v=59
581670 On ch=5 n=a#5 v=0
581670 On ch=5 n=g#5 v=59
581860 On ch=5 n=g#5 v=0
597024 On ch=5 n=c6 v=43
597152 On ch=5 n=c6 v=0
597152 On ch=5 n=a#5 v=43
597280 On ch=5 n=a#5 v=0
602950 On ch=5 n=c#6 v=52
603150 On ch=5 n=c#6 v=0
604854 On ch=5 n=a#5 v=54
604972 On ch=5 n=a#5 v=0
610364 On ch=5 n=d6 v=63
610476 On ch=5 n=d6 v=0
610476 On ch=5 n=d#6 v=63
610590 On ch=5 n=d#6 v=0
615990 On ch=5 n=f6 v=61
616104 On ch=5 n=f6 v=0
621522 On ch=5 n=g#5 v=67
621522 On ch=5 n=c6 v=67
621636 On ch=5 n=c6 v=0
621636 On ch=5 n=g#5 v=0
621636 On ch=5 n=a#5 v=67
621636 On ch=5 n=c#6 v=67
621750 On ch=5 n=c#6 v=0
621750 On ch=5 n=a#5 v=0
627094 On ch=5 n=a#5 v=51
627212 On ch=5 n=a#5 v=0
627212 On ch=5 n=g#5 v=51
627406 On ch=5 n=g#5 v=0
642866 On ch=5 n=c6 v=49
642986 On ch=5 n=c6 v=0
642986 On ch=5 n=a#5 v=49
643106 On ch=5 n=a#5 v=0
661172 On ch=5 n=d#6 v=92
661290 On ch=5 n=d#6 v=0
661290 On ch=5 n=c#6 v=92
661408 On ch=5 n=c#6 v=0
661408 On ch=5 n=d#6 v=92
661526 On ch=5 n=d#6 v=0
661526 On ch=5 n=c#6 v=92
661628 On ch=5 n=c#6 v=0
661628 On ch=5 n=d#6 v=92
661742 On ch=5 n=d#6 v=0
661742 On ch=5 n=c#6 v=92
661856 On ch=5 n=c#6 v=0
661856 On ch=5 n=d#6 v=92
661970 On ch=5 n=d#6 v=0
661970 On ch=5 n=c#6 v=92
662088 On ch=5 n=c#6 v=0
662088 On ch=5 n=d#6 v=92
662204 On ch=5 n=d#6 v=0
662204 On ch=5 n=c#6 v=92
662318 On ch=5 n=c#6 v=0
662318 On ch=5 n=d#6 v=92
662434 On ch=5 n=d#6 v=0
662434 On ch=5 n=c#6 v=92
662532 On ch=5 n=c#6 v=0
662532 On ch=5 n=d#6 v=85
662644 On ch=5 n=d#6 v=0
662644 On ch=5 n=c#6 v=85
662754 On ch=5 n=c#6 v=0
662754 On ch=5 n=d#6 v=85
662866 On ch=5 n=d#6 v=0
662866 On ch=5 n=c#6 v=85
663024 On ch=5 n=c#6 v=0
663024 On ch=5 n=d#6 v=82
663146 On ch=5 n=d#6 v=0
663146 On ch=5 n=c#6 v=82
663268 On ch=5 n=c#6 v=0
663268 On ch=5 n=d#6 v=82
663390 On ch=5 n=d#6 v=0
663390 On ch=5 n=c#6 v=82
663484 On ch=5 n=c#6 v=0
663484 On ch=5 n=d#6 v=83
663600 On ch=5 n=d#6 v=0
663600 On ch=5 n=c#6 v=83
663716 On ch=5 n=c#6 v=0
663716 On ch=5 n=d#6 v=83
663832 On ch=5 n=d#6 v=0
663832 On ch=5 n=c#6 v=83
663960 On ch=5 n=c#6 v=0
663960 On ch=5 n=d#6 v=79
664080 On ch=5 n=d#6 v=0
664080 On ch=5 n=c#6 v=79
664198 On ch=5 n=c#6 v=0
664198 On ch=5 n=d#6 v=79
664318 On ch=5 n=d#6 v=0
664318 On ch=5 n=c#6 v=79
664444 On ch=5 n=c#6 v=0
664444 On ch=5 n=d#6 v=81
664564 On ch=5 n=d#6 v=0
664564 On ch=5 n=c#6 v=81
664684 On ch=5 n=c#6 v=0
664684 On ch=5 n=d#6 v=81
664804 On ch=5 n=d#6 v=0
664804 On ch=5 n=c#6 v=81
664930 On ch=5 n=c#6 v=0
664930 On ch=5 n=d#6 v=79
665050 On ch=5 n=d#6 v=0
665050 On ch=5 n=c#6 v=79
665172 On ch=5 n=c#6 v=0
665172 On ch=5 n=d#6 v=79
665294 On ch=5 n=d#6 v=0
665294 On ch=5 n=c#6 v=79
665406 On ch=5 n=c#6 v=0
665406 On ch=5 n=d#6 v=80
665526 On ch=5 n=d#6 v=0
665526 On ch=5 n=c#6 v=80
665646 On ch=5 n=c#6 v=0
665646 On ch=5 n=d#6 v=80
665766 On ch=5 n=d#6 v=0
665766 On ch=5 n=c#6 v=80
665880 On ch=5 n=c#6 v=0
665880 On ch=5 n=d#6 v=77
666000 On ch=5 n=d#6 v=0
666000 On ch=5 n=c#6 v=77
666118 On ch=5 n=c#6 v=0
666118 On ch=5 n=d#6 v=77
666236 On ch=5 n=d#6 v=0
666236 On ch=5 n=c#6 v=77
666348 On ch=5 n=c#6 v=0
666348 On ch=5 n=c6 v=79
666466 On ch=5 n=c6 v=0
666466 On ch=5 n=c#6 v=79
666582 On ch=5 n=c#6 v=0
666582 On ch=5 n=d#6 v=79
666700 On ch=5 n=d#6 v=0
666700 On ch=5 n=c#6 v=79
666846 On ch=5 n=c#6 v=0
672682 On ch=5 n=g5 v=75
672802 On ch=5 n=g5 v=0
683836 On ch=5 n=g6 v=80
683944 On ch=5 n=g6 v=0
700124 On ch=5 n=f5 v=50
700278 On ch=5 n=f5 v=0
700278 On ch=5 n=g5 v=50
700432 On ch=5 n=g5 v=0
705826 On ch=5 n=c#6 v=49
706028 On ch=5 n=c#6 v=0
707858 On ch=5 n=a#5 v=46
707988 On ch=5 n=a#5 v=0
713502 On ch=5 n=d6 v=66
713612 On ch=5 n=d6 v=0
713612 On ch=5 n=d#6 v=66
713724 On ch=5 n=d#6 v=0
719120 On ch=5 n=f6 v=63
719234 On ch=5 n=f6 v=0
724624 On ch=5 n=g#5 v=60
724624 On ch=5 n=c6 v=60
724740 On ch=5 n=c6 v=0
724740 On ch=5 n=g#5 v=0
724740 On ch=5 n=a#5 v=60
724740 On ch=5 n=c#6 v=60
724856 On ch=5 n=c#6 v=0
724856 On ch=5 n=a#5 v=0
730296 On ch=5 n=a#5 v=57
730416 On ch=5 n=a#5 v=0
730416 On ch=5 n=g#5 v=57
730620 On ch=5 n=g#5 v=0
747078 On ch=5 n=c6 v=39
747230 On ch=5 n=c6 v=0
747230 On ch=5 n=a#5 v=39
747384 On ch=5 n=a#5 v=0
811136 On ch=5 n=g#5 v=55
811336 On ch=5 n=g#5 v=0
829970 On ch=5 n=e6 v=73
830170 On ch=5 n=e6 v=0
830170 On ch=5 n=f6 v=73
830370 On ch=5 n=f6 v=0
845400 On ch=5 n=g5 v=67
845588 On ch=5 n=g5 v=0
854440 On ch=5 n=c#6 v=52
854554 On ch=5 n=c#6 v=0
854554 On ch=5 n=c6 v=52
854668 On ch=5 n=c6 v=0
854668 On ch=5 n=a#5 v=52
854782 On ch=5 n=a#5 v=0
854782 On ch=5 n=c6 v=52
854906 On ch=5 n=c6 v=0
879386 On ch=5 n=e5 v=62
879502 On ch=5 n=e5 v=0
879502 On ch=5 n=f5 v=62
879618 On ch=5 n=f5 v=0
879618 On ch=5 n=e5 v=62
879734 On ch=5 n=e5 v=0
879734 On ch=5 n=d#5 v=62
879842 On ch=5 n=d#5 v=0
885018 On ch=5 n=e5 v=45
885138 On ch=5 n=e5 v=0
885138 On ch=5 n=f5 v=45
885258 On ch=5 n=f5 v=0
885258 On ch=5 n=e5 v=45
885378 On ch=5 n=e5 v=0
885378 On ch=5 n=d#5 v=45
885480 On ch=5 n=d#5 v=0
902230 On ch=5 n=d#5 v=73
902430 On ch=5 n=d#5 v=0
937920 On ch=5 n=c#7 v=91
938014 On ch=5 n=c#7 v=0
938014 On ch=5 n=b6 v=91
938110 On ch=5 n=b6 v=0
938110 On ch=5 n=c#7 v=91
938204 On ch=5 n=c#7 v=0
938204 On ch=5 n=b6 v=91
938266 On ch=5 n=b6 v=0
942128 On ch=5 n=a#6 v=86
942218 On ch=5 n=a#6 v=0
942218 On ch=5 n=g#6 v=86
942306 On ch=5 n=g#6 v=0
942306 On ch=5 n=a#6 v=86
942394 On ch=5 n=a#6 v=0
942394 On ch=5 n=g#6 v=86
942464 On ch=5 n=g#6 v=0
946340 On ch=5 n=a#6 v=86
946434 On ch=5 n=a#6 v=0
946434 On ch=5 n=g#6 v=86
946528 On ch=5 n=g#6 v=0
946528 On ch=5 n=a#6 v=86
946622 On ch=5 n=a#6 v=0
946622 On ch=5 n=g#6 v=86
946664 On ch=5 n=g#6 v=0
953466 On ch=5 n=d6 v=86
953558 On ch=5 n=d6 v=0
953558 On ch=5 n=c6 v=86
953652 On ch=5 n=c6 v=0
953652 On ch=5 n=d6 v=86
953746 On ch=5 n=d6 v=0
953746 On ch=5 n=c6 v=86
953840 On ch=5 n=c6 v=0
954964 On ch=5 n=d6 v=86
955054 On ch=5 n=d6 v=0
955054 On ch=5 n=c6 v=86
955144 On ch=5 n=c6 v=0
955144 On ch=5 n=d6 v=86
955234 On ch=5 n=d6 v=0
955234 On ch=5 n=c6 v=86
955346 On ch=5 n=c6 v=0
962236 On ch=5 n=f6 v=82
962326 On ch=5 n=f6 v=0
962326 On ch=5 n=d#6 v=82
962416 On ch=5 n=d#6 v=0
962416 On ch=5 n=f6 v=82
962506 On ch=5 n=f6 v=0
962506 On ch=5 n=d#6 v=82
962604 On ch=5 n=d#6 v=0
963720 On ch=5 n=d#6 v=85
963814 On ch=5 n=d#6 v=0
963814 On ch=5 n=d6 v=85
963908 On ch=5 n=d6 v=0
963908 On ch=5 n=d#6 v=85
964002 On ch=5 n=d#6 v=0
964002 On ch=5 n=d6 v=85
964100 On ch=5 n=d6 v=0
965210 On ch=5 n=d6 v=79
965302 On ch=5 n=d6 v=0
965302 On ch=5 n=c6 v=79
965396 On ch=5 n=c6 v=0
965396 On ch=5 n=d6 v=79
965488 On ch=5 n=d6 v=0
965488 On ch=5 n=c6 v=79
965586 On ch=5 n=c6 v=0
1046852 On ch=5 n=g#5 v=57
1047028 On ch=5 n=g#5 v=0
1064414 On ch=5 n=e6 v=84
1064598 On ch=5 n=e6 v=0
1064598 On ch=5 n=f6 v=84
1064782 On ch=5 n=f6 v=0
1078484 On ch=5 n=g5 v=81
1078652 On ch=5 n=g5 v=0
1086628 On ch=5 n=c#6 v=78
1086738 On ch=5 n=c#6 v=0
1086738 On ch=5 n=c6 v=78
1086846 On ch=5 n=c6 v=0
1086846 On ch=5 n=a#5 v=78
1086956 On ch=5 n=a#5 v=0
1086956 On ch=5 n=c6 v=78
1087056 On ch=5 n=c6 v=0
1109602 On ch=5 n=e5 v=82
1109712 On ch=5 n=e5 v=0
1109712 On ch=5 n=f5 v=82
1109822 On ch=5 n=f5 v=0
1109822 On ch=5 n=e5 v=82
1109932 On ch=5 n=e5 v=0
1109932 On ch=5 n=d#5 v=82
1110016 On ch=5 n=d#5 v=0
1115144 On ch=5 n=e5 v=47
1115252 On ch=5 n=e5 v=0
1115252 On ch=5 n=f5 v=47
1115362 On ch=5 n=f5 v=0
1115362 On ch=5 n=e5 v=47
1115470 On ch=5 n=e5 v=0
1115470 On ch=5 n=d#5 v=47
1115618 On ch=5 n=d#5 v=0
1115618 Meta TrkEnd
TrkEnd
