MFile 1 4 480
MTrk
0 Meta SeqName "\xffffff95\xffffffbd\xffffff8b\xffffffcf\xffffff97\xffffffa5\xffffff83N\xffffff83\xffffff89\xffffff83\xffffff94\xffffff83B\xffffff81[\xffffff83A\xffffff8fW\xffffff91\xffffffe61\xffffff8fW\xffffff91\xffffffe61\xffffff94\xffffffd4\xffffff82\xffffffcc\xffffff83v\xffffff83\xffffff8c\xffffff83\xffffff8a\xffffff83\xffffff85\xffffff81[\xffffff83h"
0 Meta Copyright "(C) 2000 Mappy"
0 Meta Text "Made with OTAMA (C) 1997-2000 MISO"
0 KeySig 0 major
0 TimeSig 4/4 24 8
0 Tempo 500000
960 Tempo 750000
1087 Meta TrkEnd
TrkEnd
MTrk
0 SysEx f0 7e 7f 09 01 f7
480 Par ch=1 c=121 v=0
500 Meta Text "# Pitch Bend Sensitivity (0-2-24) #"
500 Par ch=1 c=101 v=0
505 Par ch=1 c=100 v=0
510 Par ch=1 c=6 v=2
515 Pb ch=1 v=8192
520 Par ch=1 c=0 v=0
525 Par ch=1 c=32 v=0
530 PrCh ch=1 p=0
535 Par ch=1 c=7 v=100
540 Par ch=1 c=11 v=127
545 Par ch=1 c=10 v=64
550 Par ch=1 c=91 v=80
555 Par ch=1 c=93 v=0
560 Par ch=1 c=1 v=0
2160 On ch=1 n=g5 v=100
2268 On ch=1 n=g5 v=0
2280 On ch=1 n=c6 v=100
2388 On ch=1 n=c6 v=0
2400 On ch=1 n=e6 v=100
2508 On ch=1 n=e6 v=0
2520 On ch=1 n=g5 v=100
2628 On ch=1 n=g5 v=0
2640 On ch=1 n=c6 v=100
2748 On ch=1 n=c6 v=0
2760 On ch=1 n=e6 v=100
2868 On ch=1 n=e6 v=0
3120 On ch=1 n=g5 v=100
3228 On ch=1 n=g5 v=0
3240 On ch=1 n=c6 v=100
3348 On ch=1 n=c6 v=0
3360 On ch=1 n=e6 v=100
3468 On ch=1 n=e6 v=0
3480 On ch=1 n=g5 v=100
3588 On ch=1 n=g5 v=0
3600 On ch=1 n=c6 v=100
3708 On ch=1 n=c6 v=0
3720 On ch=1 n=e6 v=100
3828 On ch=1 n=e6 v=0
4080 On ch=1 n=a5 v=100
4188 On ch=1 n=a5 v=0
4200 On ch=1 n=d6 v=100
4308 On ch=1 n=d6 v=0
4320 On ch=1 n=f6 v=100
4428 On ch=1 n=f6 v=0
4440 On ch=1 n=a5 v=100
4548 On ch=1 n=a5 v=0
4560 On ch=1 n=d6 v=100
4668 On ch=1 n=d6 v=0
4680 On ch=1 n=f6 v=100
4788 On ch=1 n=f6 v=0
5040 On ch=1 n=a5 v=100
5148 On ch=1 n=a5 v=0
5160 On ch=1 n=d6 v=100
5268 On ch=1 n=d6 v=0
5280 On ch=1 n=f6 v=100
5388 On ch=1 n=f6 v=0
5400 On ch=1 n=a5 v=100
5508 On ch=1 n=a5 v=0
5520 On ch=1 n=d6 v=100
5628 On ch=1 n=d6 v=0
5640 On ch=1 n=f6 v=100
5748 On ch=1 n=f6 v=0
6000 On ch=1 n=g5 v=100
6108 On ch=1 n=g5 v=0
6120 On ch=1 n=d6 v=100
6228 On ch=1 n=d6 v=0
6240 On ch=1 n=f6 v=100
6348 On ch=1 n=f6 v=0
6360 On ch=1 n=g5 v=100
6468 On ch=1 n=g5 v=0
6480 On ch=1 n=d6 v=100
6588 On ch=1 n=d6 v=0
6600 On ch=1 n=f6 v=100
6708 On ch=1 n=f6 v=0
6960 On ch=1 n=g5 v=100
7068 On ch=1 n=g5 v=0
7080 On ch=1 n=d6 v=100
7188 On ch=1 n=d6 v=0
7200 On ch=1 n=f6 v=100
7308 On ch=1 n=f6 v=0
7320 On ch=1 n=g5 v=100
7428 On ch=1 n=g5 v=0
7440 On ch=1 n=d6 v=100
7548 On ch=1 n=d6 v=0
7560 On ch=1 n=f6 v=100
7668 On ch=1 n=f6 v=0
7920 On ch=1 n=g5 v=100
8028 On ch=1 n=g5 v=0
8040 On ch=1 n=c6 v=100
8148 On ch=1 n=c6 v=0
8160 On ch=1 n=e6 v=100
8268 On ch=1 n=e6 v=0
8280 On ch=1 n=g5 v=100
8388 On ch=1 n=g5 v=0
8400 On ch=1 n=c6 v=100
8508 On ch=1 n=c6 v=0
8520 On ch=1 n=e6 v=100
8628 On ch=1 n=e6 v=0
8880 On ch=1 n=g5 v=100
8988 On ch=1 n=g5 v=0
9000 On ch=1 n=c6 v=100
9108 On ch=1 n=c6 v=0
9120 On ch=1 n=e6 v=100
9228 On ch=1 n=e6 v=0
9240 On ch=1 n=g5 v=100
9348 On ch=1 n=g5 v=0
9360 On ch=1 n=c6 v=100
9468 On ch=1 n=c6 v=0
9480 On ch=1 n=e6 v=100
9588 On ch=1 n=e6 v=0
9840 On ch=1 n=a5 v=100
9948 On ch=1 n=a5 v=0
9960 On ch=1 n=e6 v=100
10068 On ch=1 n=e6 v=0
10080 On ch=1 n=a6 v=100
10188 On ch=1 n=a6 v=0
10200 On ch=1 n=a5 v=100
10308 On ch=1 n=a5 v=0
10320 On ch=1 n=e6 v=100
10428 On ch=1 n=e6 v=0
10440 On ch=1 n=a6 v=100
10548 On ch=1 n=a6 v=0
10800 On ch=1 n=a5 v=100
10908 On ch=1 n=a5 v=0
10920 On ch=1 n=e6 v=100
11028 On ch=1 n=e6 v=0
11040 On ch=1 n=a6 v=100
11148 On ch=1 n=a6 v=0
11160 On ch=1 n=a5 v=100
11268 On ch=1 n=a5 v=0
11280 On ch=1 n=e6 v=100
11388 On ch=1 n=e6 v=0
11400 On ch=1 n=a6 v=100
11508 On ch=1 n=a6 v=0
11760 On ch=1 n=f#5 v=100
11868 On ch=1 n=f#5 v=0
11880 On ch=1 n=a5 v=100
11988 On ch=1 n=a5 v=0
12000 On ch=1 n=d6 v=100
12108 On ch=1 n=d6 v=0
12120 On ch=1 n=f#5 v=100
12228 On ch=1 n=f#5 v=0
12240 On ch=1 n=a5 v=100
12348 On ch=1 n=a5 v=0
12360 On ch=1 n=d6 v=100
12468 On ch=1 n=d6 v=0
12720 On ch=1 n=f#5 v=100
12828 On ch=1 n=f#5 v=0
12840 On ch=1 n=a5 v=100
12948 On ch=1 n=a5 v=0
12960 On ch=1 n=d6 v=100
13068 On ch=1 n=d6 v=0
13080 On ch=1 n=f#5 v=100
13188 On ch=1 n=f#5 v=0
13200 On ch=1 n=a5 v=100
13308 On ch=1 n=a5 v=0
13320 On ch=1 n=d6 v=100
13428 On ch=1 n=d6 v=0
13680 On ch=1 n=g5 v=100
13788 On ch=1 n=g5 v=0
13800 On ch=1 n=d6 v=100
13908 On ch=1 n=d6 v=0
13920 On ch=1 n=g6 v=100
14028 On ch=1 n=g6 v=0
14040 On ch=1 n=g5 v=100
14148 On ch=1 n=g5 v=0
14160 On ch=1 n=d6 v=100
14268 On ch=1 n=d6 v=0
14280 On ch=1 n=g6 v=100
14388 On ch=1 n=g6 v=0
14640 On ch=1 n=g5 v=100
14748 On ch=1 n=g5 v=0
14760 On ch=1 n=d6 v=100
14868 On ch=1 n=d6 v=0
14880 On ch=1 n=g6 v=100
14988 On ch=1 n=g6 v=0
15000 On ch=1 n=g5 v=100
15108 On ch=1 n=g5 v=0
15120 On ch=1 n=d6 v=100
15228 On ch=1 n=d6 v=0
15240 On ch=1 n=g6 v=100
15348 On ch=1 n=g6 v=0
15600 On ch=1 n=e5 v=100
15708 On ch=1 n=e5 v=0
15720 On ch=1 n=g5 v=100
15828 On ch=1 n=g5 v=0
15840 On ch=1 n=c6 v=100
15948 On ch=1 n=c6 v=0
15960 On ch=1 n=e5 v=100
16068 On ch=1 n=e5 v=0
16080 On ch=1 n=g5 v=100
16188 On ch=1 n=g5 v=0
16200 On ch=1 n=c6 v=100
16308 On ch=1 n=c6 v=0
16560 On ch=1 n=e5 v=100
16668 On ch=1 n=e5 v=0
16680 On ch=1 n=g5 v=100
16788 On ch=1 n=g5 v=0
16800 On ch=1 n=c6 v=100
16908 On ch=1 n=c6 v=0
16920 On ch=1 n=e5 v=100
17028 On ch=1 n=e5 v=0
17040 On ch=1 n=g5 v=100
17148 On ch=1 n=g5 v=0
17160 On ch=1 n=c6 v=100
17268 On ch=1 n=c6 v=0
17520 On ch=1 n=e5 v=100
17628 On ch=1 n=e5 v=0
17640 On ch=1 n=g5 v=100
17748 On ch=1 n=g5 v=0
17760 On ch=1 n=c6 v=100
17868 On ch=1 n=c6 v=0
17880 On ch=1 n=e5 v=100
17988 On ch=1 n=e5 v=0
18000 On ch=1 n=g5 v=100
18108 On ch=1 n=g5 v=0
18120 On ch=1 n=c6 v=100
18228 On ch=1 n=c6 v=0
18480 On ch=1 n=e5 v=100
18588 On ch=1 n=e5 v=0
18600 On ch=1 n=g5 v=100
18708 On ch=1 n=g5 v=0
18720 On ch=1 n=c6 v=100
18828 On ch=1 n=c6 v=0
18840 On ch=1 n=e5 v=100
18948 On ch=1 n=e5 v=0
18960 On ch=1 n=g5 v=100
19068 On ch=1 n=g5 v=0
19080 On ch=1 n=c6 v=100
19188 On ch=1 n=c6 v=0
19440 On ch=1 n=d5 v=100
19548 On ch=1 n=d5 v=0
19560 On ch=1 n=f#5 v=100
19668 On ch=1 n=f#5 v=0
19680 On ch=1 n=c6 v=100
19788 On ch=1 n=c6 v=0
19800 On ch=1 n=d5 v=100
19908 On ch=1 n=d5 v=0
19920 On ch=1 n=f#5 v=100
20028 On ch=1 n=f#5 v=0
20040 On ch=1 n=c6 v=100
20148 On ch=1 n=c6 v=0
20400 On ch=1 n=d5 v=100
20508 On ch=1 n=d5 v=0
20520 On ch=1 n=f#5 v=100
20628 On ch=1 n=f#5 v=0
20640 On ch=1 n=c6 v=100
20748 On ch=1 n=c6 v=0
20760 On ch=1 n=d5 v=100
20868 On ch=1 n=d5 v=0
20880 On ch=1 n=f#5 v=100
20988 On ch=1 n=f#5 v=0
21000 On ch=1 n=c6 v=100
21108 On ch=1 n=c6 v=0
21360 On ch=1 n=d5 v=100
21468 On ch=1 n=d5 v=0
21480 On ch=1 n=g5 v=100
21588 On ch=1 n=g5 v=0
21600 On ch=1 n=b5 v=100
21708 On ch=1 n=b5 v=0
21720 On ch=1 n=d5 v=100
21828 On ch=1 n=d5 v=0
21840 On ch=1 n=g5 v=100
21948 On ch=1 n=g5 v=0
21960 On ch=1 n=b5 v=100
22068 On ch=1 n=b5 v=0
22320 On ch=1 n=d5 v=100
22428 On ch=1 n=d5 v=0
22440 On ch=1 n=g5 v=100
22548 On ch=1 n=g5 v=0
22560 On ch=1 n=b5 v=100
22668 On ch=1 n=b5 v=0
22680 On ch=1 n=d5 v=100
22788 On ch=1 n=d5 v=0
22800 On ch=1 n=g5 v=100
22908 On ch=1 n=g5 v=0
22920 On ch=1 n=b5 v=100
23028 On ch=1 n=b5 v=0
23280 On ch=1 n=e5 v=100
23388 On ch=1 n=e5 v=0
23400 On ch=1 n=g5 v=100
23508 On ch=1 n=g5 v=0
23520 On ch=1 n=c#6 v=100
23628 On ch=1 n=c#6 v=0
23640 On ch=1 n=e5 v=100
23748 On ch=1 n=e5 v=0
23760 On ch=1 n=g5 v=100
23868 On ch=1 n=g5 v=0
23880 On ch=1 n=c#6 v=100
23988 On ch=1 n=c#6 v=0
24240 On ch=1 n=e5 v=100
24348 On ch=1 n=e5 v=0
24360 On ch=1 n=g5 v=100
24468 On ch=1 n=g5 v=0
24480 On ch=1 n=c#6 v=100
24588 On ch=1 n=c#6 v=0
24600 On ch=1 n=e5 v=100
24708 On ch=1 n=e5 v=0
24720 On ch=1 n=g5 v=100
24828 On ch=1 n=g5 v=0
24840 On ch=1 n=c#6 v=100
24948 On ch=1 n=c#6 v=0
25200 On ch=1 n=d5 v=100
25308 On ch=1 n=d5 v=0
25320 On ch=1 n=a5 v=100
25428 On ch=1 n=a5 v=0
25440 On ch=1 n=d6 v=100
25548 On ch=1 n=d6 v=0
25560 On ch=1 n=d5 v=100
25668 On ch=1 n=d5 v=0
25680 On ch=1 n=a5 v=100
25788 On ch=1 n=a5 v=0
25800 On ch=1 n=d6 v=100
25908 On ch=1 n=d6 v=0
26160 On ch=1 n=d5 v=100
26268 On ch=1 n=d5 v=0
26280 On ch=1 n=a5 v=100
26388 On ch=1 n=a5 v=0
26400 On ch=1 n=d6 v=100
26508 On ch=1 n=d6 v=0
26520 On ch=1 n=d5 v=100
26628 On ch=1 n=d5 v=0
26640 On ch=1 n=a5 v=100
26748 On ch=1 n=a5 v=0
26760 On ch=1 n=d6 v=100
26868 On ch=1 n=d6 v=0
27120 On ch=1 n=d5 v=100
27228 On ch=1 n=d5 v=0
27240 On ch=1 n=f5 v=100
27348 On ch=1 n=f5 v=0
27360 On ch=1 n=b5 v=100
27468 On ch=1 n=b5 v=0
27480 On ch=1 n=d5 v=100
27588 On ch=1 n=d5 v=0
27600 On ch=1 n=f5 v=100
27708 On ch=1 n=f5 v=0
27720 On ch=1 n=b5 v=100
27828 On ch=1 n=b5 v=0
28080 On ch=1 n=d5 v=100
28188 On ch=1 n=d5 v=0
28200 On ch=1 n=f5 v=100
28308 On ch=1 n=f5 v=0
28320 On ch=1 n=b5 v=100
28428 On ch=1 n=b5 v=0
28440 On ch=1 n=d5 v=100
28548 On ch=1 n=d5 v=0
28560 On ch=1 n=f5 v=100
28668 On ch=1 n=f5 v=0
28680 On ch=1 n=b5 v=100
28788 On ch=1 n=b5 v=0
29040 On ch=1 n=c5 v=100
29148 On ch=1 n=c5 v=0
29160 On ch=1 n=g5 v=100
29268 On ch=1 n=g5 v=0
29280 On ch=1 n=c6 v=100
29388 On ch=1 n=c6 v=0
29400 On ch=1 n=c5 v=100
29508 On ch=1 n=c5 v=0
29520 On ch=1 n=g5 v=100
29628 On ch=1 n=g5 v=0
29640 On ch=1 n=c6 v=100
29748 On ch=1 n=c6 v=0
30000 On ch=1 n=c5 v=100
30108 On ch=1 n=c5 v=0
30120 On ch=1 n=g5 v=100
30228 On ch=1 n=g5 v=0
30240 On ch=1 n=c6 v=100
30348 On ch=1 n=c6 v=0
30360 On ch=1 n=c5 v=100
30468 On ch=1 n=c5 v=0
30480 On ch=1 n=g5 v=100
30588 On ch=1 n=g5 v=0
30600 On ch=1 n=c6 v=100
30708 On ch=1 n=c6 v=0
30960 On ch=1 n=a4 v=100
31068 On ch=1 n=a4 v=0
31080 On ch=1 n=c5 v=100
31188 On ch=1 n=c5 v=0
31200 On ch=1 n=f5 v=100
31308 On ch=1 n=f5 v=0
31320 On ch=1 n=a4 v=100
31428 On ch=1 n=a4 v=0
31440 On ch=1 n=c5 v=100
31548 On ch=1 n=c5 v=0
31560 On ch=1 n=f5 v=100
31668 On ch=1 n=f5 v=0
31920 On ch=1 n=a4 v=100
32028 On ch=1 n=a4 v=0
32040 On ch=1 n=c5 v=100
32148 On ch=1 n=c5 v=0
32160 On ch=1 n=f5 v=100
32268 On ch=1 n=f5 v=0
32280 On ch=1 n=a4 v=100
32388 On ch=1 n=a4 v=0
32400 On ch=1 n=c5 v=100
32508 On ch=1 n=c5 v=0
32520 On ch=1 n=f5 v=100
32628 On ch=1 n=f5 v=0
32880 On ch=1 n=a4 v=100
32988 On ch=1 n=a4 v=0
33000 On ch=1 n=c5 v=100
33108 On ch=1 n=c5 v=0
33120 On ch=1 n=f5 v=100
33228 On ch=1 n=f5 v=0
33240 On ch=1 n=a4 v=100
33348 On ch=1 n=a4 v=0
33360 On ch=1 n=c5 v=100
33468 On ch=1 n=c5 v=0
33480 On ch=1 n=f5 v=100
33588 On ch=1 n=f5 v=0
33840 On ch=1 n=a4 v=100
33948 On ch=1 n=a4 v=0
33960 On ch=1 n=c5 v=100
34068 On ch=1 n=c5 v=0
34080 On ch=1 n=f5 v=100
34188 On ch=1 n=f5 v=0
34200 On ch=1 n=a4 v=100
34308 On ch=1 n=a4 v=0
34320 On ch=1 n=c5 v=100
34428 On ch=1 n=c5 v=0
34440 On ch=1 n=f5 v=100
34548 On ch=1 n=f5 v=0
34800 On ch=1 n=g4 v=100
34908 On ch=1 n=g4 v=0
34920 On ch=1 n=b4 v=100
35028 On ch=1 n=b4 v=0
35040 On ch=1 n=f5 v=100
35148 On ch=1 n=f5 v=0
35160 On ch=1 n=g4 v=100
35268 On ch=1 n=g4 v=0
35280 On ch=1 n=b4 v=100
35388 On ch=1 n=b4 v=0
35400 On ch=1 n=f5 v=100
35508 On ch=1 n=f5 v=0
35760 On ch=1 n=g4 v=100
35868 On ch=1 n=g4 v=0
35880 On ch=1 n=b4 v=100
35988 On ch=1 n=b4 v=0
36000 On ch=1 n=f5 v=100
36108 On ch=1 n=f5 v=0
36120 On ch=1 n=g4 v=100
36228 On ch=1 n=g4 v=0
36240 On ch=1 n=b4 v=100
36348 On ch=1 n=b4 v=0
36360 On ch=1 n=f5 v=100
36468 On ch=1 n=f5 v=0
36720 On ch=1 n=g4 v=100
36828 On ch=1 n=g4 v=0
36840 On ch=1 n=c5 v=100
36948 On ch=1 n=c5 v=0
36960 On ch=1 n=e5 v=100
37068 On ch=1 n=e5 v=0
37080 On ch=1 n=g4 v=100
37188 On ch=1 n=g4 v=0
37200 On ch=1 n=c5 v=100
37308 On ch=1 n=c5 v=0
37320 On ch=1 n=e5 v=100
37428 On ch=1 n=e5 v=0
37680 On ch=1 n=g4 v=100
37788 On ch=1 n=g4 v=0
37800 On ch=1 n=c5 v=100
37908 On ch=1 n=c5 v=0
37920 On ch=1 n=e5 v=100
38028 On ch=1 n=e5 v=0
38040 On ch=1 n=g4 v=100
38148 On ch=1 n=g4 v=0
38160 On ch=1 n=c5 v=100
38268 On ch=1 n=c5 v=0
38280 On ch=1 n=e5 v=100
38388 On ch=1 n=e5 v=0
38640 On ch=1 n=a#4 v=100
38748 On ch=1 n=a#4 v=0
38760 On ch=1 n=c5 v=100
38868 On ch=1 n=c5 v=0
38880 On ch=1 n=e5 v=100
38988 On ch=1 n=e5 v=0
39000 On ch=1 n=a#4 v=100
39108 On ch=1 n=a#4 v=0
39120 On ch=1 n=c5 v=100
39228 On ch=1 n=c5 v=0
39240 On ch=1 n=e5 v=100
39348 On ch=1 n=e5 v=0
39600 On ch=1 n=a#4 v=100
39708 On ch=1 n=a#4 v=0
39720 On ch=1 n=c5 v=100
39828 On ch=1 n=c5 v=0
39840 On ch=1 n=e5 v=100
39948 On ch=1 n=e5 v=0
39960 On ch=1 n=a#4 v=100
40068 On ch=1 n=a#4 v=0
40080 On ch=1 n=c5 v=100
40188 On ch=1 n=c5 v=0
40200 On ch=1 n=e5 v=100
40308 On ch=1 n=e5 v=0
40560 On ch=1 n=a4 v=100
40668 On ch=1 n=a4 v=0
40680 On ch=1 n=c5 v=100
40788 On ch=1 n=c5 v=0
40800 On ch=1 n=e5 v=100
40908 On ch=1 n=e5 v=0
40920 On ch=1 n=a4 v=100
41028 On ch=1 n=a4 v=0
41040 On ch=1 n=c5 v=100
41148 On ch=1 n=c5 v=0
41160 On ch=1 n=e5 v=100
41268 On ch=1 n=e5 v=0
41520 On ch=1 n=a4 v=100
41628 On ch=1 n=a4 v=0
41640 On ch=1 n=c5 v=100
41748 On ch=1 n=c5 v=0
41760 On ch=1 n=e5 v=100
41868 On ch=1 n=e5 v=0
41880 On ch=1 n=a4 v=100
41988 On ch=1 n=a4 v=0
42000 On ch=1 n=c5 v=100
42108 On ch=1 n=c5 v=0
42120 On ch=1 n=e5 v=100
42228 On ch=1 n=e5 v=0
42480 On ch=1 n=a4 v=100
42588 On ch=1 n=a4 v=0
42600 On ch=1 n=c5 v=100
42708 On ch=1 n=c5 v=0
42720 On ch=1 n=d#5 v=100
42828 On ch=1 n=d#5 v=0
42840 On ch=1 n=a4 v=100
42948 On ch=1 n=a4 v=0
42960 On ch=1 n=c5 v=100
43068 On ch=1 n=c5 v=0
43080 On ch=1 n=d#5 v=100
43188 On ch=1 n=d#5 v=0
43440 On ch=1 n=a4 v=100
43548 On ch=1 n=a4 v=0
43560 On ch=1 n=c5 v=100
43668 On ch=1 n=c5 v=0
43680 On ch=1 n=d#5 v=100
43788 On ch=1 n=d#5 v=0
43800 On ch=1 n=a4 v=100
43908 On ch=1 n=a4 v=0
43920 On ch=1 n=c5 v=100
44028 On ch=1 n=c5 v=0
44040 On ch=1 n=d#5 v=100
44148 On ch=1 n=d#5 v=0
44400 On ch=1 n=b4 v=100
44508 On ch=1 n=b4 v=0
44520 On ch=1 n=c5 v=100
44628 On ch=1 n=c5 v=0
44640 On ch=1 n=d5 v=100
44748 On ch=1 n=d5 v=0
44760 On ch=1 n=b4 v=100
44868 On ch=1 n=b4 v=0
44880 On ch=1 n=c5 v=100
44988 On ch=1 n=c5 v=0
45000 On ch=1 n=d5 v=100
45108 On ch=1 n=d5 v=0
45360 On ch=1 n=b4 v=100
45468 On ch=1 n=b4 v=0
45480 On ch=1 n=c5 v=100
45588 On ch=1 n=c5 v=0
45600 On ch=1 n=d5 v=100
45708 On ch=1 n=d5 v=0
45720 On ch=1 n=b4 v=100
45828 On ch=1 n=b4 v=0
45840 On ch=1 n=c5 v=100
45948 On ch=1 n=c5 v=0
45960 On ch=1 n=d5 v=100
46068 On ch=1 n=d5 v=0
46320 On ch=1 n=g4 v=100
46428 On ch=1 n=g4 v=0
46440 On ch=1 n=b4 v=100
46548 On ch=1 n=b4 v=0
46560 On ch=1 n=d5 v=100
46668 On ch=1 n=d5 v=0
46680 On ch=1 n=g4 v=100
46788 On ch=1 n=g4 v=0
46800 On ch=1 n=b4 v=100
46908 On ch=1 n=b4 v=0
46920 On ch=1 n=d5 v=100
47028 On ch=1 n=d5 v=0
47280 On ch=1 n=g4 v=100
47388 On ch=1 n=g4 v=0
47400 On ch=1 n=b4 v=100
47508 On ch=1 n=b4 v=0
47520 On ch=1 n=d5 v=100
47628 On ch=1 n=d5 v=0
47640 On ch=1 n=g4 v=100
47748 On ch=1 n=g4 v=0
47760 On ch=1 n=b4 v=100
47868 On ch=1 n=b4 v=0
47880 On ch=1 n=d5 v=100
47988 On ch=1 n=d5 v=0
48240 On ch=1 n=g4 v=100
48348 On ch=1 n=g4 v=0
48360 On ch=1 n=c5 v=100
48468 On ch=1 n=c5 v=0
48480 On ch=1 n=e5 v=100
48588 On ch=1 n=e5 v=0
48600 On ch=1 n=g4 v=100
48708 On ch=1 n=g4 v=0
48720 On ch=1 n=c5 v=100
48828 On ch=1 n=c5 v=0
48840 On ch=1 n=e5 v=100
48948 On ch=1 n=e5 v=0
49200 On ch=1 n=g4 v=100
49308 On ch=1 n=g4 v=0
49320 On ch=1 n=c5 v=100
49428 On ch=1 n=c5 v=0
49440 On ch=1 n=e5 v=100
49548 On ch=1 n=e5 v=0
49560 On ch=1 n=g4 v=100
49668 On ch=1 n=g4 v=0
49680 On ch=1 n=c5 v=100
49788 On ch=1 n=c5 v=0
49800 On ch=1 n=e5 v=100
49908 On ch=1 n=e5 v=0
50160 On ch=1 n=g4 v=100
50268 On ch=1 n=g4 v=0
50280 On ch=1 n=c5 v=100
50388 On ch=1 n=c5 v=0
50400 On ch=1 n=f5 v=100
50508 On ch=1 n=f5 v=0
50520 On ch=1 n=g4 v=100
50628 On ch=1 n=g4 v=0
50640 On ch=1 n=c5 v=100
50748 On ch=1 n=c5 v=0
50760 On ch=1 n=f5 v=100
50868 On ch=1 n=f5 v=0
51120 On ch=1 n=g4 v=100
51228 On ch=1 n=g4 v=0
51240 On ch=1 n=c5 v=100
51348 On ch=1 n=c5 v=0
51360 On ch=1 n=f5 v=100
51468 On ch=1 n=f5 v=0
51480 On ch=1 n=g4 v=100
51588 On ch=1 n=g4 v=0
51600 On ch=1 n=c5 v=100
51708 On ch=1 n=c5 v=0
51720 On ch=1 n=f5 v=100
51828 On ch=1 n=f5 v=0
52080 On ch=1 n=g4 v=100
52188 On ch=1 n=g4 v=0
52200 On ch=1 n=b4 v=100
52308 On ch=1 n=b4 v=0
52320 On ch=1 n=f5 v=100
52428 On ch=1 n=f5 v=0
52440 On ch=1 n=g4 v=100
52548 On ch=1 n=g4 v=0
52560 On ch=1 n=b4 v=100
52668 On ch=1 n=b4 v=0
52680 On ch=1 n=f5 v=100
52788 On ch=1 n=f5 v=0
53040 On ch=1 n=g4 v=100
53148 On ch=1 n=g4 v=0
53160 On ch=1 n=b4 v=100
53268 On ch=1 n=b4 v=0
53280 On ch=1 n=f5 v=100
53388 On ch=1 n=f5 v=0
53400 On ch=1 n=g4 v=100
53508 On ch=1 n=g4 v=0
53520 On ch=1 n=b4 v=100
53628 On ch=1 n=b4 v=0
53640 On ch=1 n=f5 v=100
53748 On ch=1 n=f5 v=0
54000 On ch=1 n=a4 v=100
54108 On ch=1 n=a4 v=0
54120 On ch=1 n=c5 v=100
54228 On ch=1 n=c5 v=0
54240 On ch=1 n=f#5 v=100
54348 On ch=1 n=f#5 v=0
54360 On ch=1 n=a4 v=100
54468 On ch=1 n=a4 v=0
54480 On ch=1 n=c5 v=100
54588 On ch=1 n=c5 v=0
54600 On ch=1 n=f#5 v=100
54708 On ch=1 n=f#5 v=0
54960 On ch=1 n=a4 v=100
55068 On ch=1 n=a4 v=0
55080 On ch=1 n=c5 v=100
55188 On ch=1 n=c5 v=0
55200 On ch=1 n=f#5 v=100
55308 On ch=1 n=f#5 v=0
55320 On ch=1 n=a4 v=100
55428 On ch=1 n=a4 v=0
55440 On ch=1 n=c5 v=100
55548 On ch=1 n=c5 v=0
55560 On ch=1 n=f#5 v=100
55668 On ch=1 n=f#5 v=0
55920 On ch=1 n=g4 v=100
56028 On ch=1 n=g4 v=0
56040 On ch=1 n=c5 v=100
56148 On ch=1 n=c5 v=0
56160 On ch=1 n=g5 v=100
56268 On ch=1 n=g5 v=0
56280 On ch=1 n=g4 v=100
56388 On ch=1 n=g4 v=0
56400 On ch=1 n=c5 v=100
56508 On ch=1 n=c5 v=0
56520 On ch=1 n=g5 v=100
56628 On ch=1 n=g5 v=0
56880 On ch=1 n=g4 v=100
56988 On ch=1 n=g4 v=0
57000 On ch=1 n=c5 v=100
57108 On ch=1 n=c5 v=0
57120 On ch=1 n=g5 v=100
57228 On ch=1 n=g5 v=0
57240 On ch=1 n=g4 v=100
57348 On ch=1 n=g4 v=0
57360 On ch=1 n=c5 v=100
57468 On ch=1 n=c5 v=0
57480 On ch=1 n=g5 v=100
57588 On ch=1 n=g5 v=0
57840 On ch=1 n=g4 v=100
57948 On ch=1 n=g4 v=0
57960 On ch=1 n=c5 v=100
58068 On ch=1 n=c5 v=0
58080 On ch=1 n=f5 v=100
58188 On ch=1 n=f5 v=0
58200 On ch=1 n=g4 v=100
58308 On ch=1 n=g4 v=0
58320 On ch=1 n=c5 v=100
58428 On ch=1 n=c5 v=0
58440 On ch=1 n=f5 v=100
58548 On ch=1 n=f5 v=0
58800 On ch=1 n=g4 v=100
58908 On ch=1 n=g4 v=0
58920 On ch=1 n=c5 v=100
59028 On ch=1 n=c5 v=0
59040 On ch=1 n=f5 v=100
59148 On ch=1 n=f5 v=0
59160 On ch=1 n=g4 v=100
59268 On ch=1 n=g4 v=0
59280 On ch=1 n=c5 v=100
59388 On ch=1 n=c5 v=0
59400 On ch=1 n=f5 v=100
59508 On ch=1 n=f5 v=0
59760 On ch=1 n=g4 v=100
59868 On ch=1 n=g4 v=0
59880 On ch=1 n=b4 v=100
59988 On ch=1 n=b4 v=0
60000 On ch=1 n=f5 v=100
60108 On ch=1 n=f5 v=0
60120 On ch=1 n=g4 v=100
60228 On ch=1 n=g4 v=0
60240 On ch=1 n=b4 v=100
60348 On ch=1 n=b4 v=0
60360 On ch=1 n=f5 v=100
60468 On ch=1 n=f5 v=0
60720 On ch=1 n=g4 v=100
60828 On ch=1 n=g4 v=0
60840 On ch=1 n=b4 v=100
60948 On ch=1 n=b4 v=0
60960 On ch=1 n=f5 v=100
61068 On ch=1 n=f5 v=0
61080 On ch=1 n=g4 v=100
61188 On ch=1 n=g4 v=0
61200 On ch=1 n=b4 v=100
61308 On ch=1 n=b4 v=0
61320 On ch=1 n=f5 v=100
61428 On ch=1 n=f5 v=0
61680 On ch=1 n=g4 v=100
61788 On ch=1 n=g4 v=0
61800 On ch=1 n=a#4 v=100
61908 On ch=1 n=a#4 v=0
61920 On ch=1 n=e5 v=100
62028 On ch=1 n=e5 v=0
62040 On ch=1 n=g4 v=100
62148 On ch=1 n=g4 v=0
62160 On ch=1 n=a#4 v=100
62268 On ch=1 n=a#4 v=0
62280 On ch=1 n=e5 v=100
62388 On ch=1 n=e5 v=0
62640 On ch=1 n=g4 v=100
62748 On ch=1 n=g4 v=0
62760 On ch=1 n=a#4 v=100
62868 On ch=1 n=a#4 v=0
62880 On ch=1 n=e5 v=100
62988 On ch=1 n=e5 v=0
63000 On ch=1 n=g4 v=100
63108 On ch=1 n=g4 v=0
63120 On ch=1 n=a#4 v=100
63228 On ch=1 n=a#4 v=0
63240 On ch=1 n=e5 v=100
63348 On ch=1 n=e5 v=0
63600 On ch=1 n=f4 v=100
63708 On ch=1 n=f4 v=0
63720 On ch=1 n=a4 v=100
63828 On ch=1 n=a4 v=0
63840 On ch=1 n=c5 v=100
63948 On ch=1 n=c5 v=0
63960 On ch=1 n=f5 v=100
64068 On ch=1 n=f5 v=0
64080 On ch=1 n=c5 v=100
64188 On ch=1 n=c5 v=0
64200 On ch=1 n=a4 v=100
64308 On ch=1 n=a4 v=0
64320 On ch=1 n=c5 v=100
64428 On ch=1 n=c5 v=0
64440 On ch=1 n=a4 v=100
64548 On ch=1 n=a4 v=0
64560 On ch=1 n=f4 v=100
64668 On ch=1 n=f4 v=0
64680 On ch=1 n=a4 v=100
64788 On ch=1 n=a4 v=0
64800 On ch=1 n=f4 v=100
64908 On ch=1 n=f4 v=0
64920 On ch=1 n=d4 v=100
65028 On ch=1 n=d4 v=0
65040 On ch=1 n=f4 v=100
65148 On ch=1 n=f4 v=0
65160 On ch=1 n=d4 v=100
65268 On ch=1 n=d4 v=0
65520 On ch=1 n=g5 v=100
65628 On ch=1 n=g5 v=0
65640 On ch=1 n=b5 v=100
65748 On ch=1 n=b5 v=0
65760 On ch=1 n=d6 v=100
65868 On ch=1 n=d6 v=0
65880 On ch=1 n=f6 v=100
65988 On ch=1 n=f6 v=0
66000 On ch=1 n=d6 v=100
66108 On ch=1 n=d6 v=0
66120 On ch=1 n=b5 v=100
66228 On ch=1 n=b5 v=0
66240 On ch=1 n=d6 v=100
66348 On ch=1 n=d6 v=0
66360 On ch=1 n=b5 v=100
66468 On ch=1 n=b5 v=0
66480 On ch=1 n=g5 v=100
66588 On ch=1 n=g5 v=0
66600 On ch=1 n=b5 v=100
66708 On ch=1 n=b5 v=0
66720 On ch=1 n=d5 v=100
66828 On ch=1 n=d5 v=0
66840 On ch=1 n=f5 v=100
66948 On ch=1 n=f5 v=0
66960 On ch=1 n=e5 v=100
67068 On ch=1 n=e5 v=0
67080 On ch=1 n=d5 v=100
67188 On ch=1 n=d5 v=0
67200 On ch=1 n=e5 v=100
67200 On ch=1 n=g5 v=100
67200 On ch=1 n=c6 v=100
69100 On ch=1 n=e5 v=0
69100 On ch=1 n=g5 v=0
69100 On ch=1 n=c6 v=0
69227 Meta TrkEnd
TrkEnd
MTrk
570 Par ch=2 c=121 v=0
590 Meta Text "# Pitch Bend Sensitivity (0-2-24) #"
590 Par ch=2 c=101 v=0
595 Par ch=2 c=100 v=0
600 Par ch=2 c=6 v=2
605 Pb ch=2 v=8192
610 Par ch=2 c=0 v=0
615 Par ch=2 c=32 v=0
620 PrCh ch=2 p=0
625 Par ch=2 c=7 v=100
630 Par ch=2 c=11 v=127
635 Par ch=2 c=10 v=64
640 Par ch=2 c=91 v=80
645 Par ch=2 c=93 v=0
650 Par ch=2 c=1 v=0
1920 On ch=2 n=c5 v=100
2040 On ch=2 n=e5 v=100
2396 On ch=2 n=e5 v=0
2400 On ch=2 n=e5 v=100
2784 On ch=2 n=c5 v=0
2832 On ch=2 n=e5 v=0
2880 On ch=2 n=c5 v=100
3000 On ch=2 n=e5 v=100
3356 On ch=2 n=e5 v=0
3360 On ch=2 n=e5 v=100
3744 On ch=2 n=c5 v=0
3792 On ch=2 n=e5 v=0
3840 On ch=2 n=c5 v=100
3960 On ch=2 n=d5 v=100
4316 On ch=2 n=d5 v=0
4320 On ch=2 n=d5 v=100
4704 On ch=2 n=c5 v=0
4752 On ch=2 n=d5 v=0
4800 On ch=2 n=c5 v=100
4920 On ch=2 n=d5 v=100
5276 On ch=2 n=d5 v=0
5280 On ch=2 n=d5 v=100
5664 On ch=2 n=c5 v=0
5712 On ch=2 n=d5 v=0
5760 On ch=2 n=b4 v=100
5880 On ch=2 n=d5 v=100
6236 On ch=2 n=d5 v=0
6240 On ch=2 n=d5 v=100
6624 On ch=2 n=b4 v=0
6672 On ch=2 n=d5 v=0
6720 On ch=2 n=b4 v=100
6840 On ch=2 n=d5 v=100
7196 On ch=2 n=d5 v=0
7200 On ch=2 n=d5 v=100
7584 On ch=2 n=b4 v=0
7632 On ch=2 n=d5 v=0
7680 On ch=2 n=c5 v=100
7800 On ch=2 n=e5 v=100
8156 On ch=2 n=e5 v=0
8160 On ch=2 n=e5 v=100
8544 On ch=2 n=c5 v=0
8592 On ch=2 n=e5 v=0
8640 On ch=2 n=c5 v=100
8760 On ch=2 n=e5 v=100
9116 On ch=2 n=e5 v=0
9120 On ch=2 n=e5 v=100
9504 On ch=2 n=c5 v=0
9552 On ch=2 n=e5 v=0
9600 On ch=2 n=c5 v=100
9720 On ch=2 n=e5 v=100
10076 On ch=2 n=e5 v=0
10080 On ch=2 n=e5 v=100
10464 On ch=2 n=c5 v=0
10512 On ch=2 n=e5 v=0
10560 On ch=2 n=c5 v=100
10680 On ch=2 n=e5 v=100
11036 On ch=2 n=e5 v=0
11040 On ch=2 n=e5 v=100
11424 On ch=2 n=c5 v=0
11472 On ch=2 n=e5 v=0
11520 On ch=2 n=c5 v=100
11640 On ch=2 n=d5 v=100
11996 On ch=2 n=d5 v=0
12000 On ch=2 n=d5 v=100
12384 On ch=2 n=c5 v=0
12432 On ch=2 n=d5 v=0
12480 On ch=2 n=c5 v=100
12600 On ch=2 n=d5 v=100
12956 On ch=2 n=d5 v=0
12960 On ch=2 n=d5 v=100
13344 On ch=2 n=c5 v=0
13392 On ch=2 n=d5 v=0
13440 On ch=2 n=b4 v=100
13560 On ch=2 n=d5 v=100
13916 On ch=2 n=d5 v=0
13920 On ch=2 n=d5 v=100
14304 On ch=2 n=b4 v=0
14352 On ch=2 n=d5 v=0
14400 On ch=2 n=b4 v=100
14520 On ch=2 n=d5 v=100
14876 On ch=2 n=d5 v=0
14880 On ch=2 n=d5 v=100
15264 On ch=2 n=b4 v=0
15312 On ch=2 n=d5 v=0
15360 On ch=2 n=b4 v=100
15480 On ch=2 n=c5 v=100
15836 On ch=2 n=c5 v=0
15840 On ch=2 n=c5 v=100
16224 On ch=2 n=b4 v=0
16272 On ch=2 n=c5 v=0
16320 On ch=2 n=b4 v=100
16440 On ch=2 n=c5 v=100
16796 On ch=2 n=c5 v=0
16800 On ch=2 n=c5 v=100
17184 On ch=2 n=b4 v=0
17232 On ch=2 n=c5 v=0
17280 On ch=2 n=a4 v=100
17400 On ch=2 n=c5 v=100
17756 On ch=2 n=c5 v=0
17760 On ch=2 n=c5 v=100
18144 On ch=2 n=a4 v=0
18192 On ch=2 n=c5 v=0
18240 On ch=2 n=a4 v=100
18360 On ch=2 n=c5 v=100
18716 On ch=2 n=c5 v=0
18720 On ch=2 n=c5 v=100
19104 On ch=2 n=a4 v=0
19152 On ch=2 n=c5 v=0
19200 On ch=2 n=d4 v=100
19320 On ch=2 n=a4 v=100
19676 On ch=2 n=a4 v=0
19680 On ch=2 n=a4 v=100
20064 On ch=2 n=d4 v=0
20112 On ch=2 n=a4 v=0
20160 On ch=2 n=d4 v=100
20280 On ch=2 n=a4 v=100
20636 On ch=2 n=a4 v=0
20640 On ch=2 n=a4 v=100
21024 On ch=2 n=d4 v=0
21072 On ch=2 n=a4 v=0
21120 On ch=2 n=g4 v=100
21240 On ch=2 n=b4 v=100
21596 On ch=2 n=b4 v=0
21600 On ch=2 n=b4 v=100
21984 On ch=2 n=g4 v=0
22032 On ch=2 n=b4 v=0
22080 On ch=2 n=g4 v=100
22200 On ch=2 n=b4 v=100
22556 On ch=2 n=b4 v=0
22560 On ch=2 n=b4 v=100
22944 On ch=2 n=g4 v=0
22992 On ch=2 n=b4 v=0
23040 On ch=2 n=g4 v=100
23160 On ch=2 n=a#4 v=100
23516 On ch=2 n=a#4 v=0
23520 On ch=2 n=a#4 v=100
23904 On ch=2 n=g4 v=0
23952 On ch=2 n=a#4 v=0
24000 On ch=2 n=g4 v=100
24120 On ch=2 n=a#4 v=100
24476 On ch=2 n=a#4 v=0
24480 On ch=2 n=a#4 v=100
24864 On ch=2 n=g4 v=0
24912 On ch=2 n=a#4 v=0
24960 On ch=2 n=f4 v=100
25080 On ch=2 n=a4 v=100
25436 On ch=2 n=a4 v=0
25440 On ch=2 n=a4 v=100
25824 On ch=2 n=f4 v=0
25872 On ch=2 n=a4 v=0
25920 On ch=2 n=f4 v=100
26040 On ch=2 n=a4 v=100
26396 On ch=2 n=a4 v=0
26400 On ch=2 n=a4 v=100
26784 On ch=2 n=f4 v=0
26832 On ch=2 n=a4 v=0
26880 On ch=2 n=f4 v=100
27000 On ch=2 n=g#4 v=100
27356 On ch=2 n=g#4 v=0
27360 On ch=2 n=g#4 v=100
27744 On ch=2 n=f4 v=0
27792 On ch=2 n=g#4 v=0
27840 On ch=2 n=f4 v=100
27960 On ch=2 n=g#4 v=100
28316 On ch=2 n=g#4 v=0
28320 On ch=2 n=g#4 v=100
28704 On ch=2 n=f4 v=0
28752 On ch=2 n=g#4 v=0
28800 On ch=2 n=e4 v=100
28920 On ch=2 n=g4 v=100
29276 On ch=2 n=g4 v=0
29280 On ch=2 n=g4 v=100
29664 On ch=2 n=e4 v=0
29712 On ch=2 n=g4 v=0
29760 On ch=2 n=e4 v=100
29880 On ch=2 n=g4 v=100
30236 On ch=2 n=g4 v=0
30240 On ch=2 n=g4 v=100
30624 On ch=2 n=e4 v=0
30672 On ch=2 n=g4 v=0
30720 On ch=2 n=e4 v=100
30840 On ch=2 n=f4 v=100
31196 On ch=2 n=f4 v=0
31200 On ch=2 n=f4 v=100
31584 On ch=2 n=e4 v=0
31632 On ch=2 n=f4 v=0
31680 On ch=2 n=e4 v=100
31800 On ch=2 n=f4 v=100
32156 On ch=2 n=f4 v=0
32160 On ch=2 n=f4 v=100
32544 On ch=2 n=e4 v=0
32592 On ch=2 n=f4 v=0
32640 On ch=2 n=d4 v=100
32760 On ch=2 n=f4 v=100
33116 On ch=2 n=f4 v=0
33120 On ch=2 n=f4 v=100
33504 On ch=2 n=d4 v=0
33552 On ch=2 n=f4 v=0
33600 On ch=2 n=d4 v=100
33720 On ch=2 n=f4 v=100
34076 On ch=2 n=f4 v=0
34080 On ch=2 n=f4 v=100
34464 On ch=2 n=d4 v=0
34512 On ch=2 n=f4 v=0
34560 On ch=2 n=g3 v=100
34680 On ch=2 n=d4 v=100
35036 On ch=2 n=d4 v=0
35040 On ch=2 n=d4 v=100
35424 On ch=2 n=g3 v=0
35472 On ch=2 n=d4 v=0
35520 On ch=2 n=g3 v=100
35640 On ch=2 n=d4 v=100
35996 On ch=2 n=d4 v=0
36000 On ch=2 n=d4 v=100
36384 On ch=2 n=g3 v=0
36432 On ch=2 n=d4 v=0
36480 On ch=2 n=c4 v=100
36600 On ch=2 n=e4 v=100
36956 On ch=2 n=e4 v=0
36960 On ch=2 n=e4 v=100
37344 On ch=2 n=c4 v=0
37392 On ch=2 n=e4 v=0
37440 On ch=2 n=c4 v=100
37560 On ch=2 n=e4 v=100
37916 On ch=2 n=e4 v=0
37920 On ch=2 n=e4 v=100
38304 On ch=2 n=c4 v=0
38352 On ch=2 n=e4 v=0
38400 On ch=2 n=c4 v=100
38520 On ch=2 n=g4 v=100
38876 On ch=2 n=g4 v=0
38880 On ch=2 n=g4 v=100
39264 On ch=2 n=c4 v=0
39312 On ch=2 n=g4 v=0
39360 On ch=2 n=c4 v=100
39480 On ch=2 n=g4 v=100
39836 On ch=2 n=g4 v=0
39840 On ch=2 n=g4 v=100
40224 On ch=2 n=c4 v=0
40272 On ch=2 n=g4 v=0
40320 On ch=2 n=f3 v=100
40440 On ch=2 n=f4 v=100
40796 On ch=2 n=f4 v=0
40800 On ch=2 n=f4 v=100
41184 On ch=2 n=f3 v=0
41232 On ch=2 n=f4 v=0
41280 On ch=2 n=f3 v=100
41400 On ch=2 n=f4 v=100
41756 On ch=2 n=f4 v=0
41760 On ch=2 n=f4 v=100
42144 On ch=2 n=f3 v=0
42192 On ch=2 n=f4 v=0
42240 On ch=2 n=f#3 v=100
42360 On ch=2 n=c4 v=100
42716 On ch=2 n=c4 v=0
42720 On ch=2 n=c4 v=100
43104 On ch=2 n=f#3 v=0
43152 On ch=2 n=c4 v=0
43200 On ch=2 n=f#3 v=100
43320 On ch=2 n=c4 v=100
43676 On ch=2 n=c4 v=0
43680 On ch=2 n=c4 v=100
44064 On ch=2 n=f#3 v=0
44112 On ch=2 n=c4 v=0
44160 On ch=2 n=g#3 v=100
44280 On ch=2 n=f4 v=100
44636 On ch=2 n=f4 v=0
44640 On ch=2 n=f4 v=100
45024 On ch=2 n=g#3 v=0
45072 On ch=2 n=f4 v=0
45120 On ch=2 n=g#3 v=100
45240 On ch=2 n=f4 v=100
45596 On ch=2 n=f4 v=0
45600 On ch=2 n=f4 v=100
45984 On ch=2 n=g#3 v=0
46032 On ch=2 n=f4 v=0
46080 On ch=2 n=g3 v=100
46200 On ch=2 n=f4 v=100
46556 On ch=2 n=f4 v=0
46560 On ch=2 n=f4 v=100
46944 On ch=2 n=g3 v=0
46992 On ch=2 n=f4 v=0
47040 On ch=2 n=g3 v=100
47160 On ch=2 n=f4 v=100
47516 On ch=2 n=f4 v=0
47520 On ch=2 n=f4 v=100
47904 On ch=2 n=g3 v=0
47952 On ch=2 n=f4 v=0
48000 On ch=2 n=g3 v=100
48120 On ch=2 n=e4 v=100
48476 On ch=2 n=e4 v=0
48480 On ch=2 n=e4 v=100
48864 On ch=2 n=g3 v=0
48912 On ch=2 n=e4 v=0
48960 On ch=2 n=g3 v=100
49080 On ch=2 n=e4 v=100
49436 On ch=2 n=e4 v=0
49440 On ch=2 n=e4 v=100
49824 On ch=2 n=g3 v=0
49872 On ch=2 n=e4 v=0
49920 On ch=2 n=g3 v=100
50040 On ch=2 n=d4 v=100
50396 On ch=2 n=d4 v=0
50400 On ch=2 n=d4 v=100
50784 On ch=2 n=g3 v=0
50832 On ch=2 n=d4 v=0
50880 On ch=2 n=g3 v=100
51000 On ch=2 n=d4 v=100
51356 On ch=2 n=d4 v=0
51360 On ch=2 n=d4 v=100
51744 On ch=2 n=g3 v=0
51792 On ch=2 n=d4 v=0
51840 On ch=2 n=g3 v=100
51960 On ch=2 n=d4 v=100
52316 On ch=2 n=d4 v=0
52320 On ch=2 n=d4 v=100
52704 On ch=2 n=g3 v=0
52752 On ch=2 n=d4 v=0
52800 On ch=2 n=g3 v=100
52920 On ch=2 n=d4 v=100
53276 On ch=2 n=d4 v=0
53280 On ch=2 n=d4 v=100
53664 On ch=2 n=g3 v=0
53712 On ch=2 n=d4 v=0
53760 On ch=2 n=g3 v=100
53880 On ch=2 n=d#4 v=100
54236 On ch=2 n=d#4 v=0
54240 On ch=2 n=d#4 v=100
54624 On ch=2 n=g3 v=0
54672 On ch=2 n=d#4 v=0
54720 On ch=2 n=g3 v=100
54840 On ch=2 n=d#4 v=100
55196 On ch=2 n=d#4 v=0
55200 On ch=2 n=d#4 v=100
55584 On ch=2 n=g3 v=0
55632 On ch=2 n=d#4 v=0
55680 On ch=2 n=g3 v=100
55800 On ch=2 n=e4 v=100
56156 On ch=2 n=e4 v=0
56160 On ch=2 n=e4 v=100
56544 On ch=2 n=g3 v=0
56592 On ch=2 n=e4 v=0
56640 On ch=2 n=g3 v=100
56760 On ch=2 n=e4 v=100
57116 On ch=2 n=e4 v=0
57120 On ch=2 n=e4 v=100
57504 On ch=2 n=g3 v=0
57552 On ch=2 n=e4 v=0
57600 On ch=2 n=g3 v=100
57720 On ch=2 n=d4 v=100
58076 On ch=2 n=d4 v=0
58080 On ch=2 n=d4 v=100
58464 On ch=2 n=g3 v=0
58512 On ch=2 n=d4 v=0
58560 On ch=2 n=g3 v=100
58680 On ch=2 n=d4 v=100
59036 On ch=2 n=d4 v=0
59040 On ch=2 n=d4 v=100
59424 On ch=2 n=g3 v=0
59472 On ch=2 n=d4 v=0
59520 On ch=2 n=g3 v=100
59640 On ch=2 n=d4 v=100
59996 On ch=2 n=d4 v=0
60000 On ch=2 n=d4 v=100
60384 On ch=2 n=g3 v=0
60432 On ch=2 n=d4 v=0
60480 On ch=2 n=g3 v=100
60600 On ch=2 n=d4 v=100
60956 On ch=2 n=d4 v=0
60960 On ch=2 n=d4 v=100
61344 On ch=2 n=g3 v=0
61392 On ch=2 n=d4 v=0
61440 On ch=2 n=c3 v=100
61560 On ch=2 n=c4 v=100
61916 On ch=2 n=c4 v=0
61920 On ch=2 n=c4 v=100
62304 On ch=2 n=c3 v=0
62352 On ch=2 n=c4 v=0
62400 On ch=2 n=c3 v=100
62520 On ch=2 n=c4 v=100
62876 On ch=2 n=c4 v=0
62880 On ch=2 n=c4 v=100
63264 On ch=2 n=c3 v=0
63312 On ch=2 n=c4 v=0
63360 On ch=2 n=c3 v=100
63480 On ch=2 n=c4 v=100
63836 On ch=2 n=c4 v=0
63840 On ch=2 n=c4 v=100
64315 On ch=2 n=c4 v=0
64320 On ch=2 n=c4 v=100
65088 On ch=2 n=c3 v=0
65184 On ch=2 n=c4 v=0
65280 On ch=2 n=c3 v=100
65400 On ch=2 n=b3 v=100
65756 On ch=2 n=b3 v=0
65760 On ch=2 n=b3 v=100
66235 On ch=2 n=b3 v=0
66240 On ch=2 n=b3 v=100
67008 On ch=2 n=c3 v=0
67104 On ch=2 n=b3 v=0
67200 On ch=2 n=c4 v=100
67200 On ch=2 n=c3 v=100
69100 On ch=2 n=c4 v=0
69100 On ch=2 n=c3 v=0
69227 Meta TrkEnd
TrkEnd
MTrk
660 Par ch=3 c=121 v=0
680 Meta Text "# Pitch Bend Sensitivity (0-2-24) #"
680 Par ch=3 c=101 v=0
685 Par ch=3 c=100 v=0
690 Par ch=3 c=6 v=2
695 Pb ch=3 v=8192
700 Par ch=3 c=0 v=0
705 Par ch=3 c=32 v=0
710 PrCh ch=3 p=0
715 Par ch=3 c=7 v=100
720 Par ch=3 c=11 v=127
725 Par ch=3 c=10 v=64
730 Par ch=3 c=91 v=90
735 Par ch=3 c=93 v=0
740 Par ch=3 c=1 v=0
867 Meta TrkEnd
TrkEnd
