MFile 1 9 480
MTrk
0 TimeSig 4/4 24 8
0 KeySig -6 major
0 Tempo 476190
17760 Tempo 535714
18240 Tempo 555556
18720 Tempo 576923
19200 Tempo 476190
21600 Tempo 535714
22080 Tempo 555556
22560 Tempo 576923
23040 Tempo 476190
38400 KeySig 0 major
51840 KeySig -6 major
61440 KeySig 0 major
82560 KeySig -6 major
96000 Tempo 535714
96480 Tempo 576923
96960 Tempo 476190
99840 Tempo 535714
100320 Tempo 576923
100800 Tempo 476190
107520 Tempo 535714
108000 Tempo 576923
108480 Tempo 600000
108960 Tempo 625000
109440 Tempo 652174
109440 Meta TrkEnd
TrkEnd
MTrk
0 SeqSpec 43 00 01 00
0 Meta TrkName "Right Treble"
0 Meta 0x21 00
80 On ch=1 n=b4 v=40
160 On ch=1 n=b4 v=0
160 On ch=1 n=a#5 v=40
240 On ch=1 n=a#5 v=0
240 On ch=1 n=b5 v=40
320 On ch=1 n=b5 v=0
320 On ch=1 n=a#5 v=40
400 On ch=1 n=a#5 v=0
400 On ch=1 n=b4 v=40
480 On ch=1 n=b4 v=0
560 On ch=1 n=b4 v=40
640 On ch=1 n=b4 v=0
640 On ch=1 n=a#5 v=40
720 On ch=1 n=a#5 v=0
720 On ch=1 n=b5 v=40
800 On ch=1 n=b5 v=0
800 On ch=1 n=a#5 v=40
880 On ch=1 n=a#5 v=0
880 On ch=1 n=b4 v=40
960 On ch=1 n=b4 v=0
1040 On ch=1 n=b4 v=40
1120 On ch=1 n=b4 v=0
1120 On ch=1 n=a#5 v=40
1200 On ch=1 n=a#5 v=0
1200 On ch=1 n=b5 v=40
1280 On ch=1 n=b5 v=0
1280 On ch=1 n=a#5 v=40
1360 On ch=1 n=a#5 v=0
1360 On ch=1 n=b4 v=40
1440 On ch=1 n=b4 v=0
1520 On ch=1 n=b4 v=40
1600 On ch=1 n=b4 v=0
1600 On ch=1 n=a#5 v=40
1680 On ch=1 n=a#5 v=0
1680 On ch=1 n=b5 v=40
1760 On ch=1 n=b5 v=0
1760 On ch=1 n=a#5 v=40
1840 On ch=1 n=a#5 v=0
1840 On ch=1 n=b4 v=40
1920 On ch=1 n=b4 v=0
2000 On ch=1 n=b4 v=40
2080 On ch=1 n=b4 v=0
2080 On ch=1 n=a#5 v=40
2160 On ch=1 n=a#5 v=0
2160 On ch=1 n=b5 v=40
2240 On ch=1 n=b5 v=0
2240 On ch=1 n=a#5 v=40
2320 On ch=1 n=a#5 v=0
2320 On ch=1 n=b4 v=40
2400 On ch=1 n=b4 v=0
2480 On ch=1 n=b4 v=40
2560 On ch=1 n=b4 v=0
2560 On ch=1 n=a#5 v=40
2640 On ch=1 n=a#5 v=0
2640 On ch=1 n=b5 v=40
2720 On ch=1 n=b5 v=0
2720 On ch=1 n=a#5 v=40
2800 On ch=1 n=a#5 v=0
2800 On ch=1 n=b4 v=40
2880 On ch=1 n=b4 v=0
2960 On ch=1 n=b4 v=40
3040 On ch=1 n=b4 v=0
3040 On ch=1 n=a#5 v=40
3120 On ch=1 n=a#5 v=0
3120 On ch=1 n=b5 v=40
3200 On ch=1 n=b5 v=0
3200 On ch=1 n=a#5 v=40
3280 On ch=1 n=a#5 v=0
3280 On ch=1 n=b4 v=40
3360 On ch=1 n=b4 v=0
3440 On ch=1 n=b4 v=40
3520 On ch=1 n=b4 v=0
3520 On ch=1 n=a#5 v=40
3600 On ch=1 n=a#5 v=0
3600 On ch=1 n=b5 v=40
3680 On ch=1 n=b5 v=0
3680 On ch=1 n=a#5 v=40
3760 On ch=1 n=a#5 v=0
3760 On ch=1 n=b4 v=40
3840 On ch=1 n=b4 v=0
3920 On ch=1 n=b4 v=40
4000 On ch=1 n=b4 v=0
4000 On ch=1 n=a#5 v=40
4080 On ch=1 n=a#5 v=0
4080 On ch=1 n=b5 v=40
4160 On ch=1 n=b5 v=0
4160 On ch=1 n=a#5 v=40
4240 On ch=1 n=a#5 v=0
4240 On ch=1 n=b4 v=40
4320 On ch=1 n=b4 v=0
4400 On ch=1 n=b4 v=40
4480 On ch=1 n=b4 v=0
4480 On ch=1 n=a#5 v=40
4560 On ch=1 n=a#5 v=0
4560 On ch=1 n=b5 v=40
4640 On ch=1 n=b5 v=0
4640 On ch=1 n=a#5 v=40
4720 On ch=1 n=a#5 v=0
4720 On ch=1 n=b4 v=40
4800 On ch=1 n=b4 v=0
4880 On ch=1 n=b4 v=40
4960 On ch=1 n=b4 v=0
4960 On ch=1 n=a#5 v=40
5040 On ch=1 n=a#5 v=0
5040 On ch=1 n=b5 v=40
5120 On ch=1 n=b5 v=0
5120 On ch=1 n=a#5 v=40
5200 On ch=1 n=a#5 v=0
5200 On ch=1 n=b4 v=40
5280 On ch=1 n=b4 v=0
5360 On ch=1 n=b4 v=40
5440 On ch=1 n=b4 v=0
5440 On ch=1 n=a#5 v=40
5520 On ch=1 n=a#5 v=0
5520 On ch=1 n=b5 v=40
5600 On ch=1 n=b5 v=0
5600 On ch=1 n=a#5 v=40
5680 On ch=1 n=a#5 v=0
5680 On ch=1 n=b4 v=40
5760 On ch=1 n=b4 v=0
5840 On ch=1 n=b4 v=40
5920 On ch=1 n=b4 v=0
5920 On ch=1 n=a#5 v=40
6000 On ch=1 n=a#5 v=0
6000 On ch=1 n=b5 v=40
6080 On ch=1 n=b5 v=0
6080 On ch=1 n=a#5 v=40
6160 On ch=1 n=a#5 v=0
6160 On ch=1 n=b4 v=40
6240 On ch=1 n=b4 v=0
6320 On ch=1 n=b4 v=40
6400 On ch=1 n=b4 v=0
6400 On ch=1 n=a#5 v=40
6480 On ch=1 n=a#5 v=0
6480 On ch=1 n=b5 v=40
6560 On ch=1 n=b5 v=0
6560 On ch=1 n=a#5 v=40
6640 On ch=1 n=a#5 v=0
6640 On ch=1 n=b4 v=40
6720 On ch=1 n=b4 v=0
6800 On ch=1 n=b4 v=40
6880 On ch=1 n=b4 v=0
6880 On ch=1 n=a#5 v=40
6960 On ch=1 n=a#5 v=0
6960 On ch=1 n=b5 v=40
7040 On ch=1 n=b5 v=0
7040 On ch=1 n=a#5 v=40
7120 On ch=1 n=a#5 v=0
7120 On ch=1 n=b4 v=40
7200 On ch=1 n=b4 v=0
7280 On ch=1 n=b4 v=40
7360 On ch=1 n=b4 v=0
7360 On ch=1 n=a#5 v=40
7440 On ch=1 n=a#5 v=0
7440 On ch=1 n=b5 v=40
7520 On ch=1 n=b5 v=0
7520 On ch=1 n=a#5 v=40
7600 On ch=1 n=a#5 v=0
7600 On ch=1 n=b4 v=40
7680 On ch=1 n=b4 v=0
7760 On ch=1 n=b4 v=40
7840 On ch=1 n=b4 v=0
7840 On ch=1 n=a#5 v=40
7920 On ch=1 n=a#5 v=0
7920 On ch=1 n=b5 v=40
8000 On ch=1 n=b5 v=0
8000 On ch=1 n=a#5 v=40
8080 On ch=1 n=a#5 v=0
8080 On ch=1 n=b4 v=40
8160 On ch=1 n=b4 v=0
8240 On ch=1 n=b4 v=40
8320 On ch=1 n=b4 v=0
8320 On ch=1 n=a#5 v=40
8400 On ch=1 n=a#5 v=0
8400 On ch=1 n=b5 v=40
8480 On ch=1 n=b5 v=0
8480 On ch=1 n=a#5 v=40
8560 On ch=1 n=a#5 v=0
8560 On ch=1 n=b4 v=40
8640 On ch=1 n=b4 v=0
8720 On ch=1 n=b4 v=40
8800 On ch=1 n=b4 v=0
8800 On ch=1 n=a#5 v=40
8880 On ch=1 n=a#5 v=0
8880 On ch=1 n=b5 v=40
8960 On ch=1 n=b5 v=0
8960 On ch=1 n=a#5 v=40
9040 On ch=1 n=a#5 v=0
9040 On ch=1 n=b4 v=40
9120 On ch=1 n=b4 v=0
9200 On ch=1 n=b4 v=40
9280 On ch=1 n=b4 v=0
9280 On ch=1 n=a#5 v=40
9360 On ch=1 n=a#5 v=0
9360 On ch=1 n=b5 v=40
9440 On ch=1 n=b5 v=0
9440 On ch=1 n=a#5 v=40
9520 On ch=1 n=a#5 v=0
9520 On ch=1 n=b4 v=40
9600 On ch=1 n=b4 v=0
9680 On ch=1 n=b4 v=40
9760 On ch=1 n=b4 v=0
9760 On ch=1 n=a#5 v=40
9840 On ch=1 n=a#5 v=0
9840 On ch=1 n=b5 v=40
9920 On ch=1 n=b5 v=0
9920 On ch=1 n=a#5 v=40
10000 On ch=1 n=a#5 v=0
10000 On ch=1 n=b4 v=40
10080 On ch=1 n=b4 v=0
10160 On ch=1 n=b4 v=40
10240 On ch=1 n=b4 v=0
10240 On ch=1 n=a#5 v=40
10320 On ch=1 n=a#5 v=0
10320 On ch=1 n=b5 v=40
10400 On ch=1 n=b5 v=0
10400 On ch=1 n=a#5 v=40
10480 On ch=1 n=a#5 v=0
10480 On ch=1 n=b4 v=40
10560 On ch=1 n=b4 v=0
10640 On ch=1 n=b4 v=40
10720 On ch=1 n=b4 v=0
10720 On ch=1 n=a#5 v=40
10800 On ch=1 n=a#5 v=0
10800 On ch=1 n=b5 v=40
10880 On ch=1 n=b5 v=0
10880 On ch=1 n=a#5 v=40
10960 On ch=1 n=a#5 v=0
10960 On ch=1 n=b4 v=40
11040 On ch=1 n=b4 v=0
11120 On ch=1 n=b4 v=40
11200 On ch=1 n=b4 v=0
11200 On ch=1 n=a#5 v=40
11280 On ch=1 n=a#5 v=0
11280 On ch=1 n=b5 v=40
11360 On ch=1 n=b5 v=0
11360 On ch=1 n=a#5 v=40
11440 On ch=1 n=a#5 v=0
11440 On ch=1 n=b4 v=40
11520 On ch=1 n=b4 v=0
11600 On ch=1 n=b4 v=40
11680 On ch=1 n=b4 v=0
11680 On ch=1 n=a#5 v=40
11760 On ch=1 n=a#5 v=0
11760 On ch=1 n=b5 v=40
11840 On ch=1 n=b5 v=0
11840 On ch=1 n=a#5 v=40
11920 On ch=1 n=a#5 v=0
11920 On ch=1 n=b4 v=40
12000 On ch=1 n=b4 v=0
12080 On ch=1 n=b4 v=40
12160 On ch=1 n=b4 v=0
12160 On ch=1 n=a#5 v=40
12240 On ch=1 n=a#5 v=0
12240 On ch=1 n=b5 v=40
12320 On ch=1 n=b5 v=0
12320 On ch=1 n=a#5 v=40
12400 On ch=1 n=a#5 v=0
12400 On ch=1 n=b4 v=40
12480 On ch=1 n=b4 v=0
12560 On ch=1 n=b4 v=40
12640 On ch=1 n=b4 v=0
12640 On ch=1 n=a#5 v=40
12720 On ch=1 n=a#5 v=0
12720 On ch=1 n=b5 v=40
12800 On ch=1 n=b5 v=0
12800 On ch=1 n=a#5 v=40
12880 On ch=1 n=a#5 v=0
12880 On ch=1 n=b4 v=40
12960 On ch=1 n=b4 v=0
13040 On ch=1 n=b4 v=40
13120 On ch=1 n=b4 v=0
13120 On ch=1 n=a#5 v=40
13200 On ch=1 n=a#5 v=0
13200 On ch=1 n=b5 v=40
13280 On ch=1 n=b5 v=0
13280 On ch=1 n=a#5 v=40
13360 On ch=1 n=a#5 v=0
13360 On ch=1 n=b4 v=40
13440 On ch=1 n=b4 v=0
13520 On ch=1 n=b4 v=40
13600 On ch=1 n=b4 v=0
13600 On ch=1 n=a#5 v=40
13680 On ch=1 n=a#5 v=0
13680 On ch=1 n=b5 v=40
13760 On ch=1 n=b5 v=0
13760 On ch=1 n=a#5 v=40
13840 On ch=1 n=a#5 v=0
13840 On ch=1 n=b4 v=40
13920 On ch=1 n=b4 v=0
14000 On ch=1 n=b4 v=40
14080 On ch=1 n=b4 v=0
14080 On ch=1 n=a#5 v=40
14160 On ch=1 n=a#5 v=0
14160 On ch=1 n=b5 v=40
14240 On ch=1 n=b5 v=0
14240 On ch=1 n=a#5 v=40
14320 On ch=1 n=a#5 v=0
14320 On ch=1 n=b4 v=40
14400 On ch=1 n=b4 v=0
14480 On ch=1 n=b4 v=40
14560 On ch=1 n=b4 v=0
14560 On ch=1 n=a#5 v=40
14640 On ch=1 n=a#5 v=0
14640 On ch=1 n=b5 v=40
14720 On ch=1 n=b5 v=0
14720 On ch=1 n=a#5 v=40
14800 On ch=1 n=a#5 v=0
14800 On ch=1 n=b4 v=40
14880 On ch=1 n=b4 v=0
15000 On ch=1 n=b5 v=40
15120 On ch=1 n=b5 v=0
15120 On ch=1 n=a#6 v=40
15240 On ch=1 n=a#6 v=0
15240 On ch=1 n=b6 v=40
15360 On ch=1 n=b6 v=0
15360 On ch=1 n=c#7 v=40
15360 On ch=1 n=a#7 v=40
15360 On ch=1 n=f#7 v=40
15360 On ch=1 n=d#7 v=40
15480 On ch=1 n=d#7 v=0
15480 On ch=1 n=f#7 v=0
15480 On ch=1 n=a#7 v=0
15480 On ch=1 n=c#7 v=0
15600 On ch=1 n=a#6 v=40
15600 On ch=1 n=c7 v=40
15600 On ch=1 n=d#7 v=40
15600 On ch=1 n=f#7 v=40
15720 On ch=1 n=f#7 v=0
15720 On ch=1 n=d#7 v=0
15720 On ch=1 n=c7 v=0
15720 On ch=1 n=a#6 v=0
15840 On ch=1 n=f#6 v=40
15840 On ch=1 n=a#6 v=40
15840 On ch=1 n=c#7 v=40
15840 On ch=1 n=d#7 v=40
15960 On ch=1 n=d#7 v=0
15960 On ch=1 n=c#7 v=0
15960 On ch=1 n=a#6 v=0
15960 On ch=1 n=f#6 v=0
16080 On ch=1 n=d#6 v=40
16080 On ch=1 n=f#6 v=40
16080 On ch=1 n=a#6 v=40
16080 On ch=1 n=c7 v=40
16200 On ch=1 n=c7 v=0
16200 On ch=1 n=a#6 v=0
16200 On ch=1 n=f#6 v=0
16200 On ch=1 n=d#6 v=0
16320 On ch=1 n=c#6 v=40
16320 On ch=1 n=a#6 v=40
16320 On ch=1 n=f#6 v=40
16320 On ch=1 n=d#6 v=40
16440 On ch=1 n=d#6 v=0
16440 On ch=1 n=f#6 v=0
16440 On ch=1 n=a#6 v=0
16440 On ch=1 n=c#6 v=0
16560 On ch=1 n=a#5 v=40
16560 On ch=1 n=c6 v=40
16560 On ch=1 n=d#6 v=40
16560 On ch=1 n=f#6 v=40
16680 On ch=1 n=f#6 v=0
16680 On ch=1 n=d#6 v=0
16680 On ch=1 n=c6 v=0
16680 On ch=1 n=a#5 v=0
16800 On ch=1 n=f#5 v=40
16800 On ch=1 n=a#5 v=40
16800 On ch=1 n=c#6 v=40
16800 On ch=1 n=d#6 v=40
16920 On ch=1 n=d#6 v=0
16920 On ch=1 n=c#6 v=0
16920 On ch=1 n=a#5 v=0
16920 On ch=1 n=f#5 v=0
17040 On ch=1 n=d#5 v=40
17040 On ch=1 n=f#5 v=40
17040 On ch=1 n=a#5 v=40
17040 On ch=1 n=c6 v=40
17160 On ch=1 n=c6 v=0
17160 On ch=1 n=a#5 v=0
17160 On ch=1 n=f#5 v=0
17160 On ch=1 n=d#5 v=0
17280 On ch=1 n=c#5 v=40
17280 On ch=1 n=a#5 v=40
17280 On ch=1 n=f#5 v=40
17280 On ch=1 n=d#5 v=40
17400 On ch=1 n=d#5 v=0
17400 On ch=1 n=f#5 v=0
17400 On ch=1 n=a#5 v=0
17400 On ch=1 n=c#5 v=0
17520 On ch=1 n=a#4 v=40
17520 On ch=1 n=c5 v=40
17520 On ch=1 n=d#5 v=40
17520 On ch=1 n=f#5 v=40
17640 On ch=1 n=f#5 v=0
17640 On ch=1 n=d#5 v=0
17640 On ch=1 n=c5 v=0
17640 On ch=1 n=a#4 v=0
19200 On ch=1 n=c#7 v=40
19200 On ch=1 n=a#7 v=40
19200 On ch=1 n=f#7 v=40
19200 On ch=1 n=d#7 v=40
19320 On ch=1 n=d#7 v=0
19320 On ch=1 n=f#7 v=0
19320 On ch=1 n=a#7 v=0
19320 On ch=1 n=c#7 v=0
19440 On ch=1 n=a#6 v=40
19440 On ch=1 n=c7 v=40
19440 On ch=1 n=d#7 v=40
19440 On ch=1 n=f#7 v=40
19560 On ch=1 n=f#7 v=0
19560 On ch=1 n=d#7 v=0
19560 On ch=1 n=c7 v=0
19560 On ch=1 n=a#6 v=0
19680 On ch=1 n=f#6 v=40
19680 On ch=1 n=a#6 v=40
19680 On ch=1 n=c#7 v=40
19680 On ch=1 n=d#7 v=40
19800 On ch=1 n=d#7 v=0
19800 On ch=1 n=c#7 v=0
19800 On ch=1 n=a#6 v=0
19800 On ch=1 n=f#6 v=0
19920 On ch=1 n=d#6 v=40
19920 On ch=1 n=f#6 v=40
19920 On ch=1 n=a#6 v=40
19920 On ch=1 n=c7 v=40
20040 On ch=1 n=c7 v=0
20040 On ch=1 n=a#6 v=0
20040 On ch=1 n=f#6 v=0
20040 On ch=1 n=d#6 v=0
20160 On ch=1 n=c#6 v=40
20160 On ch=1 n=a#6 v=40
20160 On ch=1 n=f#6 v=40
20160 On ch=1 n=d#6 v=40
20280 On ch=1 n=d#6 v=0
20280 On ch=1 n=f#6 v=0
20280 On ch=1 n=a#6 v=0
20280 On ch=1 n=c#6 v=0
20400 On ch=1 n=a#5 v=40
20400 On ch=1 n=c6 v=40
20400 On ch=1 n=d#6 v=40
20400 On ch=1 n=f#6 v=40
20520 On ch=1 n=f#6 v=0
20520 On ch=1 n=d#6 v=0
20520 On ch=1 n=c6 v=0
20520 On ch=1 n=a#5 v=0
20640 On ch=1 n=f#5 v=40
20640 On ch=1 n=a#5 v=40
20640 On ch=1 n=c#6 v=40
20640 On ch=1 n=d#6 v=40
20760 On ch=1 n=d#6 v=0
20760 On ch=1 n=c#6 v=0
20760 On ch=1 n=a#5 v=0
20760 On ch=1 n=f#5 v=0
20880 On ch=1 n=d#5 v=40
20880 On ch=1 n=f#5 v=40
20880 On ch=1 n=a#5 v=40
20880 On ch=1 n=c6 v=40
21000 On ch=1 n=c6 v=0
21000 On ch=1 n=a#5 v=0
21000 On ch=1 n=f#5 v=0
21000 On ch=1 n=d#5 v=0
21120 On ch=1 n=c#5 v=40
21120 On ch=1 n=a#5 v=40
21120 On ch=1 n=f#5 v=40
21120 On ch=1 n=d#5 v=40
21240 On ch=1 n=d#5 v=0
21240 On ch=1 n=f#5 v=0
21240 On ch=1 n=a#5 v=0
21240 On ch=1 n=c#5 v=0
21360 On ch=1 n=a#4 v=40
21360 On ch=1 n=c5 v=40
21360 On ch=1 n=d#5 v=40
21360 On ch=1 n=f#5 v=40
21480 On ch=1 n=f#5 v=0
21480 On ch=1 n=d#5 v=0
21480 On ch=1 n=c5 v=0
21480 On ch=1 n=a#4 v=0
24080 On ch=1 n=b4 v=60
24160 On ch=1 n=b4 v=0
24160 On ch=1 n=a#5 v=60
24240 On ch=1 n=a#5 v=0
24240 On ch=1 n=b5 v=60
24320 On ch=1 n=b5 v=0
24320 On ch=1 n=a#5 v=60
24400 On ch=1 n=a#5 v=0
24400 On ch=1 n=b4 v=60
24480 On ch=1 n=b4 v=0
24560 On ch=1 n=b4 v=60
24640 On ch=1 n=b4 v=0
24640 On ch=1 n=a#5 v=60
24720 On ch=1 n=a#5 v=0
24720 On ch=1 n=b5 v=60
24800 On ch=1 n=b5 v=0
24800 On ch=1 n=a#5 v=60
24880 On ch=1 n=a#5 v=0
24880 On ch=1 n=b4 v=60
24960 On ch=1 n=b4 v=0
25040 On ch=1 n=b4 v=60
25120 On ch=1 n=b4 v=0
25120 On ch=1 n=a#5 v=60
25200 On ch=1 n=a#5 v=0
25200 On ch=1 n=b5 v=60
25280 On ch=1 n=b5 v=0
25280 On ch=1 n=a#5 v=60
25360 On ch=1 n=a#5 v=0
25360 On ch=1 n=b4 v=60
25440 On ch=1 n=b4 v=0
25520 On ch=1 n=b4 v=60
25600 On ch=1 n=b4 v=0
25600 On ch=1 n=a#5 v=60
25680 On ch=1 n=a#5 v=0
25680 On ch=1 n=b5 v=60
25760 On ch=1 n=b5 v=0
25760 On ch=1 n=a#5 v=60
25840 On ch=1 n=a#5 v=0
25840 On ch=1 n=b4 v=60
25920 On ch=1 n=b4 v=0
26000 On ch=1 n=b4 v=60
26080 On ch=1 n=b4 v=0
26080 On ch=1 n=a#5 v=60
26160 On ch=1 n=a#5 v=0
26160 On ch=1 n=b5 v=60
26240 On ch=1 n=b5 v=0
26240 On ch=1 n=a#5 v=60
26320 On ch=1 n=a#5 v=0
26320 On ch=1 n=b4 v=60
26400 On ch=1 n=b4 v=0
26480 On ch=1 n=b4 v=60
26560 On ch=1 n=b4 v=0
26560 On ch=1 n=a#5 v=60
26640 On ch=1 n=a#5 v=0
26640 On ch=1 n=b5 v=60
26720 On ch=1 n=b5 v=0
26720 On ch=1 n=a#5 v=60
26800 On ch=1 n=a#5 v=0
26800 On ch=1 n=b4 v=60
26880 On ch=1 n=b4 v=0
26960 On ch=1 n=b4 v=40
27040 On ch=1 n=b4 v=0
27040 On ch=1 n=a5 v=40
27120 On ch=1 n=a5 v=0
27120 On ch=1 n=b5 v=40
27200 On ch=1 n=b5 v=0
27200 On ch=1 n=a5 v=40
27280 On ch=1 n=a5 v=0
27280 On ch=1 n=b4 v=40
27360 On ch=1 n=b4 v=0
27440 On ch=1 n=b4 v=40
27520 On ch=1 n=b4 v=0
27520 On ch=1 n=a5 v=40
27600 On ch=1 n=a5 v=0
27600 On ch=1 n=b5 v=40
27680 On ch=1 n=b5 v=0
27680 On ch=1 n=a5 v=40
27760 On ch=1 n=a5 v=0
27760 On ch=1 n=b4 v=40
27840 On ch=1 n=b4 v=0
27920 On ch=1 n=b4 v=40
28000 On ch=1 n=b4 v=0
28000 On ch=1 n=a5 v=40
28080 On ch=1 n=a5 v=0
28080 On ch=1 n=b5 v=40
28160 On ch=1 n=b5 v=0
28160 On ch=1 n=a5 v=40
28240 On ch=1 n=a5 v=0
28240 On ch=1 n=b4 v=40
28320 On ch=1 n=b4 v=0
28400 On ch=1 n=b4 v=40
28480 On ch=1 n=b4 v=0
28480 On ch=1 n=a5 v=40
28560 On ch=1 n=a5 v=0
28560 On ch=1 n=b5 v=40
28640 On ch=1 n=b5 v=0
28640 On ch=1 n=a5 v=40
28720 On ch=1 n=a5 v=0
28720 On ch=1 n=b4 v=40
28800 On ch=1 n=b4 v=0
28880 On ch=1 n=b4 v=40
28960 On ch=1 n=b4 v=0
28960 On ch=1 n=a5 v=40
29040 On ch=1 n=a5 v=0
29040 On ch=1 n=b5 v=40
29120 On ch=1 n=b5 v=0
29120 On ch=1 n=a5 v=40
29200 On ch=1 n=a5 v=0
29200 On ch=1 n=b4 v=40
29280 On ch=1 n=b4 v=0
29360 On ch=1 n=b4 v=40
29440 On ch=1 n=b4 v=0
29440 On ch=1 n=a5 v=40
29520 On ch=1 n=a5 v=0
29520 On ch=1 n=b5 v=40
29600 On ch=1 n=b5 v=0
29600 On ch=1 n=a5 v=40
29680 On ch=1 n=a5 v=0
29680 On ch=1 n=b4 v=40
29760 On ch=1 n=b4 v=0
29840 On ch=1 n=b4 v=40
29920 On ch=1 n=b4 v=0
29920 On ch=1 n=a5 v=40
30000 On ch=1 n=a5 v=0
30000 On ch=1 n=b5 v=40
30080 On ch=1 n=b5 v=0
30080 On ch=1 n=a5 v=40
30160 On ch=1 n=a5 v=0
30160 On ch=1 n=b4 v=40
30240 On ch=1 n=b4 v=0
30320 On ch=1 n=b4 v=40
30400 On ch=1 n=b4 v=0
30400 On ch=1 n=a5 v=40
30480 On ch=1 n=a5 v=0
30480 On ch=1 n=b5 v=40
30560 On ch=1 n=b5 v=0
30560 On ch=1 n=a5 v=40
30640 On ch=1 n=a5 v=0
30640 On ch=1 n=b4 v=40
30720 On ch=1 n=b4 v=0
30800 On ch=1 n=b4 v=40
30880 On ch=1 n=b4 v=0
30880 On ch=1 n=a5 v=40
30960 On ch=1 n=a5 v=0
30960 On ch=1 n=b5 v=40
31040 On ch=1 n=b5 v=0
31040 On ch=1 n=a5 v=40
31120 On ch=1 n=a5 v=0
31120 On ch=1 n=b4 v=40
31200 On ch=1 n=b4 v=0
31280 On ch=1 n=b4 v=40
31360 On ch=1 n=b4 v=0
31360 On ch=1 n=a5 v=40
31440 On ch=1 n=a5 v=0
31440 On ch=1 n=b5 v=40
31520 On ch=1 n=b5 v=0
31520 On ch=1 n=a5 v=40
31600 On ch=1 n=a5 v=0
31600 On ch=1 n=b4 v=40
31680 On ch=1 n=b4 v=0
31760 On ch=1 n=b4 v=40
31840 On ch=1 n=b4 v=0
31840 On ch=1 n=a5 v=40
31920 On ch=1 n=a5 v=0
31920 On ch=1 n=b5 v=40
32000 On ch=1 n=b5 v=0
32000 On ch=1 n=a5 v=40
32080 On ch=1 n=a5 v=0
32080 On ch=1 n=b4 v=40
32160 On ch=1 n=b4 v=0
32240 On ch=1 n=b4 v=40
32320 On ch=1 n=b4 v=0
32320 On ch=1 n=a5 v=40
32400 On ch=1 n=a5 v=0
32400 On ch=1 n=b5 v=40
32480 On ch=1 n=b5 v=0
32480 On ch=1 n=a5 v=40
32560 On ch=1 n=a5 v=0
32560 On ch=1 n=b4 v=40
32640 On ch=1 n=b4 v=0
32720 On ch=1 n=b4 v=40
32800 On ch=1 n=b4 v=0
32800 On ch=1 n=a#5 v=40
32880 On ch=1 n=a#5 v=0
32880 On ch=1 n=b5 v=40
32960 On ch=1 n=b5 v=0
32960 On ch=1 n=a#5 v=40
33040 On ch=1 n=a#5 v=0
33040 On ch=1 n=b4 v=40
33120 On ch=1 n=b4 v=0
33200 On ch=1 n=b4 v=40
33280 On ch=1 n=b4 v=0
33280 On ch=1 n=a#5 v=40
33360 On ch=1 n=a#5 v=0
33360 On ch=1 n=b5 v=40
33440 On ch=1 n=b5 v=0
33440 On ch=1 n=a#5 v=40
33520 On ch=1 n=a#5 v=0
33520 On ch=1 n=b4 v=40
33600 On ch=1 n=b4 v=0
33680 On ch=1 n=b4 v=40
33760 On ch=1 n=b4 v=0
33760 On ch=1 n=a#5 v=40
33840 On ch=1 n=a#5 v=0
33840 On ch=1 n=b5 v=40
33920 On ch=1 n=b5 v=0
33920 On ch=1 n=a#5 v=40
34000 On ch=1 n=a#5 v=0
34000 On ch=1 n=b4 v=40
34080 On ch=1 n=b4 v=0
34160 On ch=1 n=b4 v=40
34240 On ch=1 n=b4 v=0
34240 On ch=1 n=a#5 v=40
34320 On ch=1 n=a#5 v=0
34320 On ch=1 n=b5 v=40
34400 On ch=1 n=b5 v=0
34400 On ch=1 n=a#5 v=40
34480 On ch=1 n=a#5 v=0
34480 On ch=1 n=b4 v=40
34560 On ch=1 n=b4 v=0
34640 On ch=1 n=b4 v=40
34720 On ch=1 n=b4 v=0
34720 On ch=1 n=a5 v=40
34800 On ch=1 n=a5 v=0
34800 On ch=1 n=b5 v=40
34880 On ch=1 n=b5 v=0
34880 On ch=1 n=a5 v=40
34960 On ch=1 n=a5 v=0
34960 On ch=1 n=b4 v=40
35040 On ch=1 n=b4 v=0
35120 On ch=1 n=b4 v=40
35200 On ch=1 n=b4 v=0
35200 On ch=1 n=a5 v=40
35280 On ch=1 n=a5 v=0
35280 On ch=1 n=b5 v=40
35360 On ch=1 n=b5 v=0
35360 On ch=1 n=a5 v=40
35440 On ch=1 n=a5 v=0
35440 On ch=1 n=b4 v=40
35520 On ch=1 n=b4 v=0
35600 On ch=1 n=b4 v=40
35680 On ch=1 n=b4 v=0
35680 On ch=1 n=a5 v=40
35760 On ch=1 n=a5 v=0
35760 On ch=1 n=b5 v=40
35840 On ch=1 n=b5 v=0
35840 On ch=1 n=a5 v=40
35920 On ch=1 n=a5 v=0
35920 On ch=1 n=b4 v=40
36000 On ch=1 n=b4 v=0
36080 On ch=1 n=b4 v=40
36160 On ch=1 n=b4 v=0
36160 On ch=1 n=a5 v=40
36240 On ch=1 n=a5 v=0
36240 On ch=1 n=b5 v=40
36320 On ch=1 n=b5 v=0
36320 On ch=1 n=a5 v=40
36400 On ch=1 n=a5 v=0
36400 On ch=1 n=b4 v=40
36480 On ch=1 n=b4 v=0
36560 On ch=1 n=b4 v=40
36640 On ch=1 n=b4 v=0
36640 On ch=1 n=a5 v=40
36720 On ch=1 n=a5 v=0
36720 On ch=1 n=b5 v=40
36800 On ch=1 n=b5 v=0
36800 On ch=1 n=a5 v=40
36880 On ch=1 n=a5 v=0
36880 On ch=1 n=b4 v=40
36960 On ch=1 n=b4 v=0
37040 On ch=1 n=b4 v=45
37120 On ch=1 n=b4 v=0
37120 On ch=1 n=a5 v=45
37200 On ch=1 n=a5 v=0
37200 On ch=1 n=b5 v=45
37280 On ch=1 n=b5 v=0
37280 On ch=1 n=a5 v=45
37360 On ch=1 n=a5 v=0
37360 On ch=1 n=b4 v=45
37440 On ch=1 n=b4 v=0
37520 On ch=1 n=b4 v=50
37600 On ch=1 n=b4 v=0
37600 On ch=1 n=a5 v=50
37680 On ch=1 n=a5 v=0
37680 On ch=1 n=b5 v=50
37760 On ch=1 n=b5 v=0
37760 On ch=1 n=a5 v=50
37840 On ch=1 n=a5 v=0
37840 On ch=1 n=b4 v=50
37920 On ch=1 n=b4 v=0
38000 On ch=1 n=b4 v=55
38080 On ch=1 n=b4 v=0
38080 On ch=1 n=a5 v=55
38160 On ch=1 n=a5 v=0
38160 On ch=1 n=b5 v=55
38240 On ch=1 n=b5 v=0
38240 On ch=1 n=a5 v=55
38320 On ch=1 n=a5 v=0
38320 On ch=1 n=b4 v=55
38400 On ch=1 n=b4 v=0
38480 On ch=1 n=b4 v=60
38560 On ch=1 n=b4 v=0
38560 On ch=1 n=a5 v=60
38640 On ch=1 n=a5 v=0
38640 On ch=1 n=b5 v=60
38720 On ch=1 n=b5 v=0
38720 On ch=1 n=a5 v=60
38800 On ch=1 n=a5 v=0
38800 On ch=1 n=b4 v=60
38880 On ch=1 n=b4 v=0
38960 On ch=1 n=b4 v=60
39040 On ch=1 n=b4 v=0
39040 On ch=1 n=a5 v=60
39120 On ch=1 n=a5 v=0
39120 On ch=1 n=b5 v=60
39200 On ch=1 n=b5 v=0
39200 On ch=1 n=a5 v=60
39280 On ch=1 n=a5 v=0
39280 On ch=1 n=b4 v=60
39360 On ch=1 n=b4 v=0
39440 On ch=1 n=b4 v=60
39520 On ch=1 n=b4 v=0
39520 On ch=1 n=a5 v=60
39600 On ch=1 n=a5 v=0
39600 On ch=1 n=b5 v=60
39680 On ch=1 n=b5 v=0
39680 On ch=1 n=a5 v=60
39760 On ch=1 n=a5 v=0
39760 On ch=1 n=b4 v=60
39840 On ch=1 n=b4 v=0
39920 On ch=1 n=b4 v=60
40000 On ch=1 n=b4 v=0
40000 On ch=1 n=a5 v=60
40080 On ch=1 n=a5 v=0
40080 On ch=1 n=b5 v=60
40160 On ch=1 n=b5 v=0
40160 On ch=1 n=a5 v=60
40240 On ch=1 n=a5 v=0
40240 On ch=1 n=b4 v=60
40320 On ch=1 n=b4 v=0
40800 On ch=1 n=c#5 v=40
40880 On ch=1 n=c#5 v=0
40880 On ch=1 n=d#5 v=40
40960 On ch=1 n=d#5 v=0
40960 On ch=1 n=c#5 v=40
41040 On ch=1 n=c#5 v=0
41040 On ch=1 n=d#5 v=40
41120 On ch=1 n=d#5 v=0
41120 On ch=1 n=c#5 v=40
41200 On ch=1 n=c#5 v=0
41200 On ch=1 n=d#5 v=40
41280 On ch=1 n=d#5 v=0
41280 On ch=1 n=a5 v=40
41280 On ch=1 n=f5 v=40
41360 On ch=1 n=a5 v=0
41360 On ch=1 n=b5 v=40
41440 On ch=1 n=b5 v=0
41440 On ch=1 n=a5 v=40
41520 On ch=1 n=a5 v=0
41520 On ch=1 n=b5 v=40
41600 On ch=1 n=b5 v=0
41600 On ch=1 n=a5 v=40
41680 On ch=1 n=a5 v=0
41680 On ch=1 n=b5 v=40
41760 On ch=1 n=b5 v=0
41760 On ch=1 n=f5 v=0
41760 On ch=1 n=c#5 v=40
41840 On ch=1 n=c#5 v=0
41840 On ch=1 n=d#5 v=40
41920 On ch=1 n=d#5 v=0
41920 On ch=1 n=c#5 v=40
42000 On ch=1 n=c#5 v=0
42000 On ch=1 n=d#5 v=40
42080 On ch=1 n=d#5 v=0
42080 On ch=1 n=c#5 v=40
42160 On ch=1 n=c#5 v=0
42160 On ch=1 n=d#5 v=40
42240 On ch=1 n=d#5 v=0
46560 On ch=1 n=d5 v=40
46640 On ch=1 n=d5 v=0
46640 On ch=1 n=e5 v=40
46720 On ch=1 n=e5 v=0
46720 On ch=1 n=d5 v=40
46800 On ch=1 n=d5 v=0
46800 On ch=1 n=e5 v=40
46880 On ch=1 n=e5 v=0
46880 On ch=1 n=d5 v=40
46960 On ch=1 n=d5 v=0
46960 On ch=1 n=e5 v=40
47040 On ch=1 n=e5 v=0
47040 On ch=1 n=a#5 v=40
47040 On ch=1 n=f#5 v=40
47120 On ch=1 n=a#5 v=0
47120 On ch=1 n=c6 v=40
47200 On ch=1 n=c6 v=0
47200 On ch=1 n=a#5 v=40
47280 On ch=1 n=a#5 v=0
47280 On ch=1 n=c6 v=40
47360 On ch=1 n=c6 v=0
47360 On ch=1 n=a#5 v=40
47440 On ch=1 n=a#5 v=0
47440 On ch=1 n=c6 v=40
47520 On ch=1 n=c6 v=0
47520 On ch=1 n=f#5 v=0
47520 On ch=1 n=d5 v=40
47600 On ch=1 n=d5 v=0
47600 On ch=1 n=e5 v=40
47680 On ch=1 n=e5 v=0
47680 On ch=1 n=d5 v=40
47760 On ch=1 n=d5 v=0
47760 On ch=1 n=e5 v=40
47840 On ch=1 n=e5 v=0
47840 On ch=1 n=d5 v=40
47920 On ch=1 n=d5 v=0
47920 On ch=1 n=e5 v=40
48000 On ch=1 n=e5 v=0
50400 On ch=1 n=d5 v=60
50480 On ch=1 n=d5 v=0
50480 On ch=1 n=e5 v=60
50560 On ch=1 n=e5 v=0
50560 On ch=1 n=d5 v=60
50640 On ch=1 n=d5 v=0
50640 On ch=1 n=e5 v=60
50720 On ch=1 n=e5 v=0
50720 On ch=1 n=d5 v=60
50800 On ch=1 n=d5 v=0
50800 On ch=1 n=e5 v=60
50880 On ch=1 n=e5 v=0
50880 On ch=1 n=f#5 v=70
50880 On ch=1 n=a#5 v=70
50960 On ch=1 n=a#5 v=0
50960 On ch=1 n=c6 v=70
51040 On ch=1 n=c6 v=0
51040 On ch=1 n=a#5 v=70
51120 On ch=1 n=a#5 v=0
51120 On ch=1 n=c6 v=70
51200 On ch=1 n=c6 v=0
51200 On ch=1 n=a#5 v=70
51280 On ch=1 n=a#5 v=0
51280 On ch=1 n=c6 v=70
51360 On ch=1 n=c6 v=0
51360 On ch=1 n=f#5 v=0
51360 On ch=1 n=d6 v=80
51480 On ch=1 n=d6 v=0
51480 On ch=1 n=e6 v=80
51600 On ch=1 n=e6 v=0
51600 On ch=1 n=d7 v=80
51720 On ch=1 n=d7 v=0
51720 On ch=1 n=e7 v=80
51840 On ch=1 n=e7 v=0
51840 On ch=1 n=f#7 v=100
51840 On ch=1 n=c#7 v=100
51840 On ch=1 n=a#6 v=100
51840 On ch=1 n=f#6 v=100
51960 On ch=1 n=f#6 v=0
51960 On ch=1 n=a#6 v=0
51960 On ch=1 n=c#7 v=0
51960 On ch=1 n=f#7 v=0
51960 On ch=1 n=f#6 v=100
51960 On ch=1 n=c#6 v=100
51960 On ch=1 n=a#5 v=100
51960 On ch=1 n=f#5 v=100
52080 On ch=1 n=f#5 v=0
52080 On ch=1 n=a#5 v=0
52080 On ch=1 n=c#6 v=0
52080 On ch=1 n=f#6 v=0
52320 On ch=1 n=f#4 v=60
52320 On ch=1 n=a#4 v=60
52320 On ch=1 n=c#5 v=60
52320 On ch=1 n=f#5 v=60
54240 On ch=1 n=f#5 v=0
54240 On ch=1 n=c#5 v=0
54240 On ch=1 n=a#4 v=0
54240 On ch=1 n=f#4 v=0
54240 On ch=1 n=b4 v=50
54240 On ch=1 n=e5 v=50
54720 On ch=1 n=e5 v=0
54720 On ch=1 n=b4 v=0
54720 On ch=1 n=c#5 v=45
55200 On ch=1 n=c#5 v=0
55200 On ch=1 n=b4 v=40
55200 On ch=1 n=e5 v=40
55680 On ch=1 n=e5 v=0
55680 On ch=1 n=b4 v=0
55680 On ch=1 n=f#7 v=100
55680 On ch=1 n=c#7 v=100
55680 On ch=1 n=a#6 v=100
55680 On ch=1 n=f#6 v=100
55800 On ch=1 n=f#6 v=0
55800 On ch=1 n=a#6 v=0
55800 On ch=1 n=c#7 v=0
55800 On ch=1 n=f#7 v=0
55800 On ch=1 n=f#6 v=100
55800 On ch=1 n=c#6 v=100
55800 On ch=1 n=a#5 v=100
55800 On ch=1 n=f#5 v=100
55920 On ch=1 n=f#5 v=0
55920 On ch=1 n=a#5 v=0
55920 On ch=1 n=c#6 v=0
55920 On ch=1 n=f#6 v=0
56160 On ch=1 n=f#4 v=60
56160 On ch=1 n=a#4 v=60
56160 On ch=1 n=c#5 v=60
56160 On ch=1 n=f#5 v=60
56640 On ch=1 n=f#5 v=0
56640 On ch=1 n=c#5 v=0
56640 On ch=1 n=a#4 v=0
56640 On ch=1 n=f#4 v=0
56640 On ch=1 n=a7 v=100
56640 On ch=1 n=e7 v=100
56640 On ch=1 n=c#7 v=100
56640 On ch=1 n=a6 v=100
56760 On ch=1 n=a6 v=0
56760 On ch=1 n=c#7 v=0
56760 On ch=1 n=e7 v=0
56760 On ch=1 n=a7 v=0
56760 On ch=1 n=a6 v=100
56760 On ch=1 n=e6 v=100
56760 On ch=1 n=c#6 v=100
56760 On ch=1 n=a5 v=100
56880 On ch=1 n=a5 v=0
56880 On ch=1 n=c#6 v=0
56880 On ch=1 n=e6 v=0
56880 On ch=1 n=a6 v=0
57120 On ch=1 n=a4 v=60
57120 On ch=1 n=c#5 v=60
57120 On ch=1 n=e5 v=60
57120 On ch=1 n=a5 v=60
57600 On ch=1 n=a5 v=0
57600 On ch=1 n=e5 v=0
57600 On ch=1 n=c#5 v=0
57600 On ch=1 n=a4 v=0
57600 On ch=1 n=f#7 v=100
57600 On ch=1 n=c#7 v=100
57600 On ch=1 n=a#6 v=100
57600 On ch=1 n=f#6 v=100
57720 On ch=1 n=f#6 v=0
57720 On ch=1 n=a#6 v=0
57720 On ch=1 n=c#7 v=0
57720 On ch=1 n=f#7 v=0
57720 On ch=1 n=f#6 v=100
57720 On ch=1 n=c#6 v=100
57720 On ch=1 n=a#5 v=100
57720 On ch=1 n=f#5 v=100
57840 On ch=1 n=f#5 v=0
57840 On ch=1 n=a#5 v=0
57840 On ch=1 n=c#6 v=0
57840 On ch=1 n=f#6 v=0
58080 On ch=1 n=f#4 v=60
58080 On ch=1 n=a#4 v=60
58080 On ch=1 n=c#5 v=60
58080 On ch=1 n=f#5 v=60
60000 On ch=1 n=f#5 v=0
60000 On ch=1 n=c#5 v=0
60000 On ch=1 n=a#4 v=0
60000 On ch=1 n=f#4 v=0
60000 On ch=1 n=b4 v=50
60000 On ch=1 n=e5 v=50
60480 On ch=1 n=e5 v=0
60480 On ch=1 n=b4 v=0
60480 On ch=1 n=c#5 v=45
60960 On ch=1 n=c#5 v=0
60960 On ch=1 n=b4 v=40
60960 On ch=1 n=e5 v=40
61440 On ch=1 n=e5 v=0
61440 On ch=1 n=b4 v=0
61440 On ch=1 n=g7 v=100
61440 On ch=1 n=d7 v=100
61440 On ch=1 n=b6 v=100
61440 On ch=1 n=g6 v=100
61560 On ch=1 n=g6 v=0
61560 On ch=1 n=b6 v=0
61560 On ch=1 n=d7 v=0
61560 On ch=1 n=g7 v=0
61560 On ch=1 n=g6 v=100
61560 On ch=1 n=d6 v=100
61560 On ch=1 n=b5 v=100
61560 On ch=1 n=g5 v=100
61680 On ch=1 n=g5 v=0
61680 On ch=1 n=b5 v=0
61680 On ch=1 n=d6 v=0
61680 On ch=1 n=g6 v=0
61920 On ch=1 n=g4 v=60
61920 On ch=1 n=b4 v=60
61920 On ch=1 n=d5 v=60
61920 On ch=1 n=g5 v=60
62400 On ch=1 n=g5 v=0
62400 On ch=1 n=d5 v=0
62400 On ch=1 n=b4 v=0
62400 On ch=1 n=g4 v=0
62400 On ch=1 n=b7 v=100
62400 On ch=1 n=f#7 v=100
62400 On ch=1 n=d#7 v=100
62400 On ch=1 n=b6 v=100
62520 On ch=1 n=b6 v=0
62520 On ch=1 n=d#7 v=0
62520 On ch=1 n=f#7 v=0
62520 On ch=1 n=b7 v=0
62520 On ch=1 n=b6 v=100
62520 On ch=1 n=f#6 v=100
62520 On ch=1 n=d#7 v=100
62520 On ch=1 n=b5 v=100
62640 On ch=1 n=b5 v=0
62640 On ch=1 n=d#7 v=0
62640 On ch=1 n=f#6 v=0
62640 On ch=1 n=b6 v=0
62880 On ch=1 n=b5 v=60
62880 On ch=1 n=f#5 v=60
62880 On ch=1 n=d#5 v=60
62880 On ch=1 n=b4 v=60
63360 On ch=1 n=b4 v=0
63360 On ch=1 n=d#5 v=0
63360 On ch=1 n=f#5 v=0
63360 On ch=1 n=b5 v=0
63360 On ch=1 n=g#7 v=100
63360 On ch=1 n=d#7 v=100
63360 On ch=1 n=c7 v=100
63360 On ch=1 n=g#6 v=100
63480 On ch=1 n=g#6 v=0
63480 On ch=1 n=c7 v=0
63480 On ch=1 n=d#7 v=0
63480 On ch=1 n=g#7 v=0
63480 On ch=1 n=g#6 v=100
63480 On ch=1 n=d#6 v=100
63480 On ch=1 n=c6 v=100
63480 On ch=1 n=g#5 v=100
63600 On ch=1 n=g#5 v=0
63600 On ch=1 n=c6 v=0
63600 On ch=1 n=d#6 v=0
63600 On ch=1 n=g#6 v=0
63920 On ch=1 n=a5 v=110
64000 On ch=1 n=a5 v=0
64000 On ch=1 n=g#6 v=110
64080 On ch=1 n=g#6 v=0
64080 On ch=1 n=a6 v=110
64160 On ch=1 n=a6 v=0
64160 On ch=1 n=g#6 v=110
64240 On ch=1 n=g#6 v=0
64240 On ch=1 n=a5 v=110
64320 On ch=1 n=a5 v=0
64400 On ch=1 n=a5 v=110
64480 On ch=1 n=a5 v=0
64480 On ch=1 n=g#6 v=110
64560 On ch=1 n=g#6 v=0
64560 On ch=1 n=a6 v=110
64640 On ch=1 n=a6 v=0
64640 On ch=1 n=g#6 v=110
64720 On ch=1 n=g#6 v=0
64720 On ch=1 n=a5 v=110
64800 On ch=1 n=a5 v=0
64880 On ch=1 n=a5 v=110
64960 On ch=1 n=a5 v=0
64960 On ch=1 n=g#6 v=110
65040 On ch=1 n=g#6 v=0
65040 On ch=1 n=a6 v=110
65120 On ch=1 n=a6 v=0
65120 On ch=1 n=g#6 v=110
65200 On ch=1 n=g#6 v=0
65200 On ch=1 n=a5 v=110
65280 On ch=1 n=a5 v=0
65360 On ch=1 n=a5 v=100
65440 On ch=1 n=a5 v=0
65440 On ch=1 n=g#6 v=100
65520 On ch=1 n=g#6 v=0
65520 On ch=1 n=a6 v=100
65600 On ch=1 n=a6 v=0
65600 On ch=1 n=g#6 v=100
65680 On ch=1 n=g#6 v=0
65680 On ch=1 n=a5 v=100
65760 On ch=1 n=a5 v=0
65840 On ch=1 n=a5 v=90
65920 On ch=1 n=a5 v=0
65920 On ch=1 n=g#6 v=90
66000 On ch=1 n=g#6 v=0
66000 On ch=1 n=a6 v=90
66080 On ch=1 n=a6 v=0
66080 On ch=1 n=g#6 v=90
66160 On ch=1 n=g#6 v=0
66160 On ch=1 n=a5 v=90
66240 On ch=1 n=a5 v=0
66320 On ch=1 n=a5 v=80
66400 On ch=1 n=a5 v=0
66400 On ch=1 n=g#6 v=80
66480 On ch=1 n=g#6 v=0
66480 On ch=1 n=a6 v=80
66560 On ch=1 n=a6 v=0
66560 On ch=1 n=g#6 v=80
66640 On ch=1 n=g#6 v=0
66640 On ch=1 n=a5 v=80
66720 On ch=1 n=a5 v=0
66800 On ch=1 n=a5 v=70
66880 On ch=1 n=a5 v=0
66880 On ch=1 n=g#6 v=70
66960 On ch=1 n=g#6 v=0
66960 On ch=1 n=a6 v=70
67040 On ch=1 n=a6 v=0
67040 On ch=1 n=g#6 v=70
67120 On ch=1 n=g#6 v=0
67120 On ch=1 n=a5 v=70
67200 On ch=1 n=a5 v=0
67280 On ch=1 n=a5 v=60
67360 On ch=1 n=a5 v=0
67360 On ch=1 n=g#6 v=60
67440 On ch=1 n=g#6 v=0
67440 On ch=1 n=a6 v=60
67520 On ch=1 n=a6 v=0
67520 On ch=1 n=g#6 v=60
67600 On ch=1 n=g#6 v=0
67600 On ch=1 n=a5 v=60
67680 On ch=1 n=a5 v=0
67760 On ch=1 n=a5 v=60
67840 On ch=1 n=a5 v=0
67840 On ch=1 n=g#6 v=60
67920 On ch=1 n=g#6 v=0
67920 On ch=1 n=a6 v=60
68000 On ch=1 n=a6 v=0
68000 On ch=1 n=g#6 v=60
68080 On ch=1 n=g#6 v=0
68080 On ch=1 n=a5 v=60
68160 On ch=1 n=a5 v=0
68240 On ch=1 n=a5 v=60
68320 On ch=1 n=a5 v=0
68320 On ch=1 n=g#6 v=60
68400 On ch=1 n=g#6 v=0
68400 On ch=1 n=a6 v=60
68480 On ch=1 n=a6 v=0
68480 On ch=1 n=g#6 v=60
68560 On ch=1 n=g#6 v=0
68560 On ch=1 n=a5 v=60
68640 On ch=1 n=a5 v=0
68720 On ch=1 n=a5 v=60
68800 On ch=1 n=a5 v=0
68800 On ch=1 n=g#6 v=60
68880 On ch=1 n=g#6 v=0
68880 On ch=1 n=a6 v=60
68960 On ch=1 n=a6 v=0
68960 On ch=1 n=g#6 v=60
69040 On ch=1 n=g#6 v=0
69040 On ch=1 n=a5 v=60
69120 On ch=1 n=a5 v=0
69200 On ch=1 n=a5 v=60
69280 On ch=1 n=a5 v=0
69280 On ch=1 n=g#6 v=60
69360 On ch=1 n=g#6 v=0
69360 On ch=1 n=a6 v=60
69440 On ch=1 n=a6 v=0
69440 On ch=1 n=g#6 v=60
69520 On ch=1 n=g#6 v=0
69520 On ch=1 n=a5 v=60
69600 On ch=1 n=a5 v=0
69680 On ch=1 n=a5 v=60
69760 On ch=1 n=a5 v=0
69760 On ch=1 n=g#6 v=60
69840 On ch=1 n=g#6 v=0
69840 On ch=1 n=a6 v=60
69920 On ch=1 n=a6 v=0
69920 On ch=1 n=g#6 v=60
70000 On ch=1 n=g#6 v=0
70000 On ch=1 n=a5 v=60
70080 On ch=1 n=a5 v=0
70160 On ch=1 n=a5 v=60
70240 On ch=1 n=a5 v=0
70240 On ch=1 n=g#6 v=60
70320 On ch=1 n=g#6 v=0
70320 On ch=1 n=a6 v=60
70400 On ch=1 n=a6 v=0
70400 On ch=1 n=g#6 v=60
70480 On ch=1 n=g#6 v=0
70480 On ch=1 n=a5 v=60
70560 On ch=1 n=a5 v=0
70640 On ch=1 n=a5 v=60
70720 On ch=1 n=a5 v=0
70720 On ch=1 n=g#6 v=60
70800 On ch=1 n=g#6 v=0
70800 On ch=1 n=a6 v=60
70880 On ch=1 n=a6 v=0
70880 On ch=1 n=g#6 v=60
70960 On ch=1 n=g#6 v=0
70960 On ch=1 n=a5 v=60
71040 On ch=1 n=a5 v=0
71120 On ch=1 n=a5 v=60
71200 On ch=1 n=a5 v=0
71200 On ch=1 n=g#6 v=60
71280 On ch=1 n=g#6 v=0
71280 On ch=1 n=a6 v=60
71360 On ch=1 n=a6 v=0
71360 On ch=1 n=g#6 v=60
71440 On ch=1 n=g#6 v=0
71440 On ch=1 n=a5 v=60
71520 On ch=1 n=a5 v=0
71600 On ch=1 n=g#5 v=60
71680 On ch=1 n=g#5 v=0
71680 On ch=1 n=g6 v=60
71760 On ch=1 n=g6 v=0
71760 On ch=1 n=g#6 v=60
71840 On ch=1 n=g#6 v=0
71840 On ch=1 n=g6 v=60
71920 On ch=1 n=g6 v=0
71920 On ch=1 n=g#5 v=60
72000 On ch=1 n=g#5 v=0
72080 On ch=1 n=g5 v=60
72160 On ch=1 n=g5 v=0
72160 On ch=1 n=f#6 v=60
72240 On ch=1 n=f#6 v=0
72240 On ch=1 n=g6 v=60
72320 On ch=1 n=g6 v=0
72320 On ch=1 n=f#6 v=60
72400 On ch=1 n=f#6 v=0
72400 On ch=1 n=g5 v=60
72480 On ch=1 n=g5 v=0
72560 On ch=1 n=a#5 v=60
72640 On ch=1 n=a#5 v=0
72640 On ch=1 n=a6 v=60
72720 On ch=1 n=a6 v=0
72720 On ch=1 n=a#6 v=60
72800 On ch=1 n=a#6 v=0
72800 On ch=1 n=a6 v=60
72880 On ch=1 n=a6 v=0
72880 On ch=1 n=a#5 v=60
72960 On ch=1 n=a#5 v=0
73040 On ch=1 n=a5 v=60
73120 On ch=1 n=a5 v=0
73120 On ch=1 n=g#6 v=60
73200 On ch=1 n=g#6 v=0
73200 On ch=1 n=a6 v=60
73280 On ch=1 n=a6 v=0
73280 On ch=1 n=g#6 v=60
73360 On ch=1 n=g#6 v=0
73360 On ch=1 n=a5 v=60
73440 On ch=1 n=a5 v=0
73520 On ch=1 n=g#5 v=60
73600 On ch=1 n=g#5 v=0
73600 On ch=1 n=g6 v=60
73680 On ch=1 n=g6 v=0
73680 On ch=1 n=g#6 v=60
73760 On ch=1 n=g#6 v=0
73760 On ch=1 n=g6 v=60
73840 On ch=1 n=g6 v=0
73840 On ch=1 n=g#5 v=60
73920 On ch=1 n=g#5 v=0
74000 On ch=1 n=g5 v=60
74080 On ch=1 n=g5 v=0
74080 On ch=1 n=f#6 v=60
74160 On ch=1 n=f#6 v=0
74160 On ch=1 n=g6 v=60
74240 On ch=1 n=g6 v=0
74240 On ch=1 n=f#6 v=60
74320 On ch=1 n=f#6 v=0
74320 On ch=1 n=g5 v=60
74400 On ch=1 n=g5 v=0
74480 On ch=1 n=f#5 v=60
74560 On ch=1 n=f#5 v=0
74560 On ch=1 n=f6 v=60
74640 On ch=1 n=f6 v=0
74640 On ch=1 n=f#6 v=60
74720 On ch=1 n=f#6 v=0
74720 On ch=1 n=f6 v=60
74800 On ch=1 n=f6 v=0
74800 On ch=1 n=f#5 v=60
74880 On ch=1 n=f#5 v=0
74960 On ch=1 n=f5 v=60
75040 On ch=1 n=f5 v=0
75040 On ch=1 n=e6 v=60
75120 On ch=1 n=e6 v=0
75120 On ch=1 n=f6 v=60
75200 On ch=1 n=f6 v=0
75200 On ch=1 n=e6 v=60
75280 On ch=1 n=e6 v=0
75280 On ch=1 n=f5 v=60
75360 On ch=1 n=f5 v=0
75440 On ch=1 n=f5 v=60
75520 On ch=1 n=f5 v=0
75520 On ch=1 n=e6 v=60
75600 On ch=1 n=e6 v=0
75600 On ch=1 n=f6 v=60
75680 On ch=1 n=f6 v=0
75680 On ch=1 n=e6 v=60
75760 On ch=1 n=e6 v=0
75760 On ch=1 n=f5 v=60
75840 On ch=1 n=f5 v=0
75920 On ch=1 n=f5 v=60
76000 On ch=1 n=f5 v=0
76000 On ch=1 n=e6 v=60
76080 On ch=1 n=e6 v=0
76080 On ch=1 n=f6 v=60
76160 On ch=1 n=f6 v=0
76160 On ch=1 n=e6 v=60
76240 On ch=1 n=e6 v=0
76240 On ch=1 n=f5 v=60
76320 On ch=1 n=f5 v=0
76400 On ch=1 n=f5 v=60
76480 On ch=1 n=f5 v=0
76480 On ch=1 n=e6 v=60
76560 On ch=1 n=e6 v=0
76560 On ch=1 n=f6 v=60
76640 On ch=1 n=f6 v=0
76640 On ch=1 n=e6 v=60
76720 On ch=1 n=e6 v=0
76720 On ch=1 n=f5 v=60
76800 On ch=1 n=f5 v=0
76880 On ch=1 n=f5 v=60
76960 On ch=1 n=f5 v=0
76960 On ch=1 n=e6 v=60
77040 On ch=1 n=e6 v=0
77040 On ch=1 n=f6 v=60
77120 On ch=1 n=f6 v=0
77120 On ch=1 n=e6 v=60
77200 On ch=1 n=e6 v=0
77200 On ch=1 n=f5 v=60
77280 On ch=1 n=f5 v=0
77360 On ch=1 n=f5 v=60
77440 On ch=1 n=f5 v=0
77440 On ch=1 n=e6 v=60
77520 On ch=1 n=e6 v=0
77520 On ch=1 n=f6 v=60
77600 On ch=1 n=f6 v=0
77600 On ch=1 n=e6 v=60
77680 On ch=1 n=e6 v=0
77680 On ch=1 n=f5 v=60
77760 On ch=1 n=f5 v=0
77840 On ch=1 n=f5 v=60
77920 On ch=1 n=f5 v=0
77920 On ch=1 n=e6 v=60
78000 On ch=1 n=e6 v=0
78000 On ch=1 n=f6 v=60
78080 On ch=1 n=f6 v=0
78080 On ch=1 n=e6 v=60
78160 On ch=1 n=e6 v=0
78160 On ch=1 n=f5 v=60
78240 On ch=1 n=f5 v=0
78320 On ch=1 n=f5 v=60
78400 On ch=1 n=f5 v=0
78400 On ch=1 n=e6 v=60
78480 On ch=1 n=e6 v=0
78480 On ch=1 n=f6 v=60
78560 On ch=1 n=f6 v=0
78560 On ch=1 n=e6 v=60
78640 On ch=1 n=e6 v=0
78640 On ch=1 n=f5 v=60
78720 On ch=1 n=f5 v=0
78800 On ch=1 n=f5 v=60
78880 On ch=1 n=f5 v=0
78880 On ch=1 n=e6 v=60
78960 On ch=1 n=e6 v=0
78960 On ch=1 n=f6 v=60
79040 On ch=1 n=f6 v=0
79040 On ch=1 n=e6 v=60
79120 On ch=1 n=e6 v=0
79120 On ch=1 n=f5 v=60
79200 On ch=1 n=f5 v=0
79280 On ch=1 n=e5 v=60
79360 On ch=1 n=e5 v=0
79360 On ch=1 n=d#6 v=60
79440 On ch=1 n=d#6 v=0
79440 On ch=1 n=e6 v=60
79520 On ch=1 n=e6 v=0
79520 On ch=1 n=d#6 v=60
79600 On ch=1 n=d#6 v=0
79600 On ch=1 n=e5 v=60
79680 On ch=1 n=e5 v=0
79760 On ch=1 n=d#5 v=60
79840 On ch=1 n=d#5 v=0
79840 On ch=1 n=d6 v=60
79920 On ch=1 n=d6 v=0
79920 On ch=1 n=d#6 v=60
80000 On ch=1 n=d#6 v=0
80000 On ch=1 n=d6 v=60
80080 On ch=1 n=d6 v=0
80080 On ch=1 n=d#5 v=60
80160 On ch=1 n=d#5 v=0
80240 On ch=1 n=f#5 v=60
80320 On ch=1 n=f#5 v=0
80320 On ch=1 n=f6 v=60
80400 On ch=1 n=f6 v=0
80400 On ch=1 n=f#6 v=60
80480 On ch=1 n=f#6 v=0
80480 On ch=1 n=f6 v=60
80560 On ch=1 n=f6 v=0
80560 On ch=1 n=f#5 v=60
80640 On ch=1 n=f#5 v=0
80720 On ch=1 n=f5 v=60
80800 On ch=1 n=f5 v=0
80800 On ch=1 n=e6 v=60
80880 On ch=1 n=e6 v=0
80880 On ch=1 n=f6 v=60
80960 On ch=1 n=f6 v=0
80960 On ch=1 n=e6 v=60
81040 On ch=1 n=e6 v=0
81040 On ch=1 n=f5 v=60
81120 On ch=1 n=f5 v=0
81200 On ch=1 n=e5 v=60
81280 On ch=1 n=e5 v=0
81280 On ch=1 n=d#6 v=60
81360 On ch=1 n=d#6 v=0
81360 On ch=1 n=e6 v=60
81440 On ch=1 n=e6 v=0
81440 On ch=1 n=d#6 v=60
81520 On ch=1 n=d#6 v=0
81520 On ch=1 n=e5 v=60
81600 On ch=1 n=e5 v=0
81680 On ch=1 n=d5 v=60
81760 On ch=1 n=d5 v=0
81760 On ch=1 n=c6 v=60
81840 On ch=1 n=c6 v=0
81840 On ch=1 n=d6 v=60
81920 On ch=1 n=d6 v=0
81920 On ch=1 n=c6 v=60
82000 On ch=1 n=c6 v=0
82000 On ch=1 n=d5 v=60
82080 On ch=1 n=d5 v=0
82160 On ch=1 n=c#5 v=60
82240 On ch=1 n=c#5 v=0
82240 On ch=1 n=b5 v=60
82320 On ch=1 n=b5 v=0
82320 On ch=1 n=c#6 v=60
82400 On ch=1 n=c#6 v=0
82400 On ch=1 n=b5 v=60
82480 On ch=1 n=b5 v=0
82480 On ch=1 n=c#5 v=60
82560 On ch=1 n=c#5 v=0
82640 On ch=1 n=b4 v=50
82720 On ch=1 n=b4 v=0
82720 On ch=1 n=a#5 v=50
82800 On ch=1 n=a#5 v=0
82800 On ch=1 n=b5 v=50
82880 On ch=1 n=b5 v=0
82880 On ch=1 n=a#5 v=50
82960 On ch=1 n=a#5 v=0
82960 On ch=1 n=b4 v=50
83040 On ch=1 n=b4 v=0
83120 On ch=1 n=b4 v=50
83200 On ch=1 n=b4 v=0
83200 On ch=1 n=a#5 v=50
83280 On ch=1 n=a#5 v=0
83280 On ch=1 n=b5 v=50
83360 On ch=1 n=b5 v=0
83360 On ch=1 n=a#5 v=50
83440 On ch=1 n=a#5 v=0
83440 On ch=1 n=b4 v=50
83520 On ch=1 n=b4 v=0
83600 On ch=1 n=b4 v=50
83680 On ch=1 n=b4 v=0
83680 On ch=1 n=a#5 v=50
83760 On ch=1 n=a#5 v=0
83760 On ch=1 n=b5 v=50
83840 On ch=1 n=b5 v=0
83840 On ch=1 n=a#5 v=50
83920 On ch=1 n=a#5 v=0
83920 On ch=1 n=b4 v=50
84000 On ch=1 n=b4 v=0
84080 On ch=1 n=b4 v=50
84160 On ch=1 n=b4 v=0
84160 On ch=1 n=a#5 v=50
84240 On ch=1 n=a#5 v=0
84240 On ch=1 n=b5 v=50
84320 On ch=1 n=b5 v=0
84320 On ch=1 n=a#5 v=50
84400 On ch=1 n=a#5 v=0
84400 On ch=1 n=b4 v=50
84480 On ch=1 n=b4 v=0
84560 On ch=1 n=b4 v=50
84640 On ch=1 n=b4 v=0
84640 On ch=1 n=a#5 v=50
84720 On ch=1 n=a#5 v=0
84720 On ch=1 n=b5 v=50
84800 On ch=1 n=b5 v=0
84800 On ch=1 n=a#5 v=50
84880 On ch=1 n=a#5 v=0
84880 On ch=1 n=b4 v=50
84960 On ch=1 n=b4 v=0
85040 On ch=1 n=b4 v=50
85120 On ch=1 n=b4 v=0
85120 On ch=1 n=a#5 v=50
85200 On ch=1 n=a#5 v=0
85200 On ch=1 n=b5 v=50
85280 On ch=1 n=b5 v=0
85280 On ch=1 n=a#5 v=50
85360 On ch=1 n=a#5 v=0
85360 On ch=1 n=b4 v=50
85440 On ch=1 n=b4 v=0
85520 On ch=1 n=b4 v=50
85600 On ch=1 n=b4 v=0
85600 On ch=1 n=a#5 v=50
85680 On ch=1 n=a#5 v=0
85680 On ch=1 n=b5 v=50
85760 On ch=1 n=b5 v=0
85760 On ch=1 n=a#5 v=50
85840 On ch=1 n=a#5 v=0
85840 On ch=1 n=b4 v=50
85920 On ch=1 n=b4 v=0
86000 On ch=1 n=b4 v=50
86080 On ch=1 n=b4 v=0
86080 On ch=1 n=a#5 v=50
86160 On ch=1 n=a#5 v=0
86160 On ch=1 n=b5 v=50
86240 On ch=1 n=b5 v=0
86240 On ch=1 n=a#5 v=50
86320 On ch=1 n=a#5 v=0
86320 On ch=1 n=b4 v=50
86400 On ch=1 n=b4 v=0
86480 On ch=1 n=b4 v=50
86560 On ch=1 n=b4 v=0
86560 On ch=1 n=a#5 v=50
86640 On ch=1 n=a#5 v=0
86640 On ch=1 n=b5 v=50
86720 On ch=1 n=b5 v=0
86720 On ch=1 n=a#5 v=50
86800 On ch=1 n=a#5 v=0
86800 On ch=1 n=b4 v=50
86880 On ch=1 n=b4 v=0
86960 On ch=1 n=b4 v=50
87040 On ch=1 n=b4 v=0
87040 On ch=1 n=a#5 v=50
87120 On ch=1 n=a#5 v=0
87120 On ch=1 n=b5 v=50
87200 On ch=1 n=b5 v=0
87200 On ch=1 n=a#5 v=50
87280 On ch=1 n=a#5 v=0
87280 On ch=1 n=b4 v=50
87360 On ch=1 n=b4 v=0
87440 On ch=1 n=b4 v=50
87520 On ch=1 n=b4 v=0
87520 On ch=1 n=a#5 v=50
87600 On ch=1 n=a#5 v=0
87600 On ch=1 n=b5 v=50
87680 On ch=1 n=b5 v=0
87680 On ch=1 n=a#5 v=50
87760 On ch=1 n=a#5 v=0
87760 On ch=1 n=b4 v=50
87840 On ch=1 n=b4 v=0
87920 On ch=1 n=b4 v=50
88000 On ch=1 n=b4 v=0
88000 On ch=1 n=a#5 v=50
88080 On ch=1 n=a#5 v=0
88080 On ch=1 n=b5 v=50
88160 On ch=1 n=b5 v=0
88160 On ch=1 n=a#5 v=50
88240 On ch=1 n=a#5 v=0
88240 On ch=1 n=b4 v=50
88320 On ch=1 n=b4 v=0
88400 On ch=1 n=b4 v=50
88480 On ch=1 n=b4 v=0
88480 On ch=1 n=a#5 v=50
88560 On ch=1 n=a#5 v=0
88560 On ch=1 n=b5 v=50
88640 On ch=1 n=b5 v=0
88640 On ch=1 n=a#5 v=50
88720 On ch=1 n=a#5 v=0
88720 On ch=1 n=b4 v=50
88800 On ch=1 n=b4 v=0
88880 On ch=1 n=b4 v=50
88960 On ch=1 n=b4 v=0
88960 On ch=1 n=a#5 v=50
89040 On ch=1 n=a#5 v=0
89040 On ch=1 n=b5 v=50
89120 On ch=1 n=b5 v=0
89120 On ch=1 n=a#5 v=50
89200 On ch=1 n=a#5 v=0
89200 On ch=1 n=b4 v=50
89280 On ch=1 n=b4 v=0
89360 On ch=1 n=b4 v=50
89440 On ch=1 n=b4 v=0
89440 On ch=1 n=a#5 v=50
89520 On ch=1 n=a#5 v=0
89520 On ch=1 n=b5 v=50
89600 On ch=1 n=b5 v=0
89600 On ch=1 n=a#5 v=50
89680 On ch=1 n=a#5 v=0
89680 On ch=1 n=b4 v=50
89760 On ch=1 n=b4 v=0
89840 On ch=1 n=b4 v=50
89920 On ch=1 n=b4 v=0
89920 On ch=1 n=a#5 v=50
90000 On ch=1 n=a#5 v=0
90000 On ch=1 n=b5 v=50
90080 On ch=1 n=b5 v=0
90080 On ch=1 n=a#5 v=50
90160 On ch=1 n=a#5 v=0
90160 On ch=1 n=b4 v=50
90240 On ch=1 n=b4 v=0
90320 On ch=1 n=b4 v=50
90400 On ch=1 n=b4 v=0
90400 On ch=1 n=a#5 v=50
90480 On ch=1 n=a#5 v=0
90480 On ch=1 n=b5 v=50
90560 On ch=1 n=b5 v=0
90560 On ch=1 n=a#5 v=50
90640 On ch=1 n=a#5 v=0
90640 On ch=1 n=b4 v=50
90720 On ch=1 n=b4 v=0
90800 On ch=1 n=b4 v=50
90880 On ch=1 n=b4 v=0
90880 On ch=1 n=a#5 v=50
90960 On ch=1 n=a#5 v=0
90960 On ch=1 n=b5 v=50
91040 On ch=1 n=b5 v=0
91040 On ch=1 n=a#5 v=50
91120 On ch=1 n=a#5 v=0
91120 On ch=1 n=b4 v=50
91200 On ch=1 n=b4 v=0
91280 On ch=1 n=b4 v=50
91360 On ch=1 n=b4 v=0
91360 On ch=1 n=a#5 v=50
91440 On ch=1 n=a#5 v=0
91440 On ch=1 n=b5 v=50
91520 On ch=1 n=b5 v=0
91520 On ch=1 n=a#5 v=50
91600 On ch=1 n=a#5 v=0
91600 On ch=1 n=b4 v=50
91680 On ch=1 n=b4 v=0
91760 On ch=1 n=b4 v=50
91840 On ch=1 n=b4 v=0
91840 On ch=1 n=a#5 v=50
91920 On ch=1 n=a#5 v=0
91920 On ch=1 n=b5 v=50
92000 On ch=1 n=b5 v=0
92000 On ch=1 n=a#5 v=50
92080 On ch=1 n=a#5 v=0
92080 On ch=1 n=b4 v=50
92160 On ch=1 n=b4 v=0
92240 On ch=1 n=b4 v=50
92320 On ch=1 n=b4 v=0
92320 On ch=1 n=a#5 v=50
92400 On ch=1 n=a#5 v=0
92400 On ch=1 n=b5 v=50
92480 On ch=1 n=b5 v=0
92480 On ch=1 n=a#5 v=50
92560 On ch=1 n=a#5 v=0
92560 On ch=1 n=b4 v=50
92640 On ch=1 n=b4 v=0
92720 On ch=1 n=b4 v=50
92800 On ch=1 n=b4 v=0
92800 On ch=1 n=a#5 v=50
92880 On ch=1 n=a#5 v=0
92880 On ch=1 n=b5 v=50
92960 On ch=1 n=b5 v=0
92960 On ch=1 n=a#5 v=50
93040 On ch=1 n=a#5 v=0
93040 On ch=1 n=b4 v=50
93120 On ch=1 n=b4 v=0
93200 On ch=1 n=b4 v=50
93280 On ch=1 n=b4 v=0
93280 On ch=1 n=a#5 v=50
93360 On ch=1 n=a#5 v=0
93360 On ch=1 n=b5 v=50
93440 On ch=1 n=b5 v=0
93440 On ch=1 n=a#5 v=50
93520 On ch=1 n=a#5 v=0
93520 On ch=1 n=b4 v=50
93600 On ch=1 n=b4 v=0
93680 On ch=1 n=b4 v=50
93760 On ch=1 n=b4 v=0
93760 On ch=1 n=a#5 v=50
93840 On ch=1 n=a#5 v=0
93840 On ch=1 n=b5 v=50
93920 On ch=1 n=b5 v=0
93920 On ch=1 n=a#6 v=50
94000 On ch=1 n=a#6 v=0
94000 On ch=1 n=b6 v=50
94080 On ch=1 n=b6 v=0
94080 On ch=1 n=c#7 v=40
94080 On ch=1 n=a#7 v=40
94080 On ch=1 n=f#7 v=40
94080 On ch=1 n=d#7 v=40
94200 On ch=1 n=d#7 v=0
94200 On ch=1 n=f#7 v=0
94200 On ch=1 n=a#7 v=0
94200 On ch=1 n=c#7 v=0
94320 On ch=1 n=a#6 v=40
94320 On ch=1 n=f#7 v=40
94320 On ch=1 n=d#7 v=40
94320 On ch=1 n=c7 v=40
94440 On ch=1 n=c7 v=0
94440 On ch=1 n=d#7 v=0
94440 On ch=1 n=f#7 v=0
94440 On ch=1 n=a#6 v=0
94560 On ch=1 n=f#6 v=40
94560 On ch=1 n=a#6 v=40
94560 On ch=1 n=c#7 v=40
94560 On ch=1 n=d#7 v=40
94680 On ch=1 n=d#7 v=0
94680 On ch=1 n=c#7 v=0
94680 On ch=1 n=a#6 v=0
94680 On ch=1 n=f#6 v=0
94800 On ch=1 n=d#6 v=40
94800 On ch=1 n=f#6 v=40
94800 On ch=1 n=a#6 v=40
94800 On ch=1 n=c7 v=40
94920 On ch=1 n=c7 v=0
94920 On ch=1 n=a#6 v=0
94920 On ch=1 n=f#6 v=0
94920 On ch=1 n=d#6 v=0
95040 On ch=1 n=c#6 v=40
95040 On ch=1 n=a#6 v=40
95040 On ch=1 n=f#6 v=40
95040 On ch=1 n=d#6 v=40
95160 On ch=1 n=d#6 v=0
95160 On ch=1 n=f#6 v=0
95160 On ch=1 n=a#6 v=0
95160 On ch=1 n=c#6 v=0
95280 On ch=1 n=a#5 v=40
95280 On ch=1 n=f#6 v=40
95280 On ch=1 n=d#6 v=40
95280 On ch=1 n=c6 v=40
95400 On ch=1 n=c6 v=0
95400 On ch=1 n=d#6 v=0
95400 On ch=1 n=f#6 v=0
95400 On ch=1 n=a#5 v=0
95520 On ch=1 n=f#5 v=40
95520 On ch=1 n=a#5 v=40
95520 On ch=1 n=c#6 v=40
95520 On ch=1 n=d#6 v=40
95640 On ch=1 n=d#6 v=0
95640 On ch=1 n=c#6 v=0
95640 On ch=1 n=a#5 v=0
95640 On ch=1 n=f#5 v=0
95760 On ch=1 n=d#5 v=40
95760 On ch=1 n=f#5 v=40
95760 On ch=1 n=a#5 v=40
95760 On ch=1 n=c6 v=40
95880 On ch=1 n=c6 v=0
95880 On ch=1 n=a#5 v=0
95880 On ch=1 n=f#5 v=0
95880 On ch=1 n=d#5 v=0
96000 On ch=1 n=c#5 v=35
96000 On ch=1 n=a#5 v=35
96000 On ch=1 n=f#5 v=35
96000 On ch=1 n=d#5 v=35
96120 On ch=1 n=d#5 v=0
96120 On ch=1 n=f#5 v=0
96120 On ch=1 n=a#5 v=0
96120 On ch=1 n=c#5 v=0
96240 On ch=1 n=a#4 v=35
96240 On ch=1 n=f#5 v=35
96240 On ch=1 n=d#5 v=35
96240 On ch=1 n=c5 v=35
96360 On ch=1 n=c5 v=0
96360 On ch=1 n=d#5 v=0
96360 On ch=1 n=f#5 v=0
96360 On ch=1 n=a#4 v=0
97040 On ch=1 n=b4 v=30
97120 On ch=1 n=b4 v=0
97120 On ch=1 n=a#5 v=30
97200 On ch=1 n=a#5 v=0
97200 On ch=1 n=b5 v=30
97280 On ch=1 n=b5 v=0
97280 On ch=1 n=a#5 v=30
97360 On ch=1 n=a#5 v=0
97360 On ch=1 n=b4 v=30
97440 On ch=1 n=b4 v=0
97520 On ch=1 n=b4 v=30
97600 On ch=1 n=b4 v=0
97600 On ch=1 n=a#5 v=30
97680 On ch=1 n=a#5 v=0
97680 On ch=1 n=b5 v=30
97760 On ch=1 n=b5 v=0
97760 On ch=1 n=a#5 v=30
97840 On ch=1 n=a#5 v=0
97840 On ch=1 n=b4 v=30
97920 On ch=1 n=b4 v=0
97920 On ch=1 n=c#7 v=40
97920 On ch=1 n=a#7 v=40
97920 On ch=1 n=f#7 v=40
97920 On ch=1 n=d#7 v=40
98040 On ch=1 n=d#7 v=0
98040 On ch=1 n=f#7 v=0
98040 On ch=1 n=a#7 v=0
98040 On ch=1 n=c#7 v=0
98160 On ch=1 n=a#6 v=40
98160 On ch=1 n=f#7 v=40
98160 On ch=1 n=d#7 v=40
98160 On ch=1 n=c7 v=40
98280 On ch=1 n=c7 v=0
98280 On ch=1 n=d#7 v=0
98280 On ch=1 n=f#7 v=0
98280 On ch=1 n=a#6 v=0
98400 On ch=1 n=f#6 v=40
98400 On ch=1 n=a#6 v=40
98400 On ch=1 n=c#7 v=40
98400 On ch=1 n=d#7 v=40
98520 On ch=1 n=d#7 v=0
98520 On ch=1 n=c#7 v=0
98520 On ch=1 n=a#6 v=0
98520 On ch=1 n=f#6 v=0
98640 On ch=1 n=d#6 v=40
98640 On ch=1 n=f#6 v=40
98640 On ch=1 n=a#6 v=40
98640 On ch=1 n=c7 v=40
98760 On ch=1 n=c7 v=0
98760 On ch=1 n=a#6 v=0
98760 On ch=1 n=f#6 v=0
98760 On ch=1 n=d#6 v=0
98880 On ch=1 n=c#6 v=40
98880 On ch=1 n=a#6 v=40
98880 On ch=1 n=f#6 v=40
98880 On ch=1 n=d#6 v=40
99000 On ch=1 n=d#6 v=0
99000 On ch=1 n=f#6 v=0
99000 On ch=1 n=a#6 v=0
99000 On ch=1 n=c#6 v=0
99120 On ch=1 n=a#5 v=40
99120 On ch=1 n=f#6 v=40
99120 On ch=1 n=d#6 v=40
99120 On ch=1 n=c6 v=40
99240 On ch=1 n=c6 v=0
99240 On ch=1 n=d#6 v=0
99240 On ch=1 n=f#6 v=0
99240 On ch=1 n=a#5 v=0
99360 On ch=1 n=f#5 v=40
99360 On ch=1 n=a#5 v=40
99360 On ch=1 n=c#6 v=40
99360 On ch=1 n=d#6 v=40
99480 On ch=1 n=d#6 v=0
99480 On ch=1 n=c#6 v=0
99480 On ch=1 n=a#5 v=0
99480 On ch=1 n=f#5 v=0
99600 On ch=1 n=d#5 v=40
99600 On ch=1 n=f#5 v=40
99600 On ch=1 n=a#5 v=40
99600 On ch=1 n=c6 v=40
99720 On ch=1 n=c6 v=0
99720 On ch=1 n=a#5 v=0
99720 On ch=1 n=f#5 v=0
99720 On ch=1 n=d#5 v=0
99840 On ch=1 n=c#5 v=35
99840 On ch=1 n=a#5 v=35
99840 On ch=1 n=f#5 v=35
99840 On ch=1 n=d#5 v=35
99960 On ch=1 n=d#5 v=0
99960 On ch=1 n=f#5 v=0
99960 On ch=1 n=a#5 v=0
99960 On ch=1 n=c#5 v=0
100080 On ch=1 n=a#4 v=35
100080 On ch=1 n=f#5 v=35
100080 On ch=1 n=d#5 v=35
100080 On ch=1 n=c5 v=35
100200 On ch=1 n=c5 v=0
100200 On ch=1 n=d#5 v=0
100200 On ch=1 n=f#5 v=0
100200 On ch=1 n=a#4 v=0
100880 On ch=1 n=b4 v=30
100960 On ch=1 n=b4 v=0
100960 On ch=1 n=a#5 v=30
101040 On ch=1 n=a#5 v=0
101040 On ch=1 n=b5 v=30
101120 On ch=1 n=b5 v=0
101120 On ch=1 n=a#5 v=30
101200 On ch=1 n=a#5 v=0
101200 On ch=1 n=b4 v=30
101280 On ch=1 n=b4 v=0
101360 On ch=1 n=b4 v=30
101440 On ch=1 n=b4 v=0
101440 On ch=1 n=a#5 v=30
101520 On ch=1 n=a#5 v=0
101520 On ch=1 n=b5 v=30
101600 On ch=1 n=b5 v=0
101600 On ch=1 n=a#5 v=30
101680 On ch=1 n=a#5 v=0
101680 On ch=1 n=b4 v=30
101760 On ch=1 n=b4 v=0
102080 On ch=1 n=f#5 v=55
102080 On ch=1 n=d#5 v=55
102080 On ch=1 n=b4 v=55
102240 On ch=1 n=b4 v=0
102240 On ch=1 n=d#5 v=0
102240 On ch=1 n=f#5 v=0
102240 On ch=1 n=g5 v=70
102240 On ch=1 n=e5 v=70
102240 On ch=1 n=c5 v=70
102400 On ch=1 n=a#5 v=60
102480 On ch=1 n=a#5 v=0
102480 On ch=1 n=b5 v=60
102560 On ch=1 n=b5 v=0
102560 On ch=1 n=a#5 v=60
102640 On ch=1 n=a#5 v=0
102640 On ch=1 n=b4 v=60
102720 On ch=1 n=b4 v=0
102880 On ch=1 n=a#5 v=60
102960 On ch=1 n=a#5 v=0
102960 On ch=1 n=b5 v=60
103040 On ch=1 n=b5 v=0
103040 On ch=1 n=a#5 v=60
103120 On ch=1 n=a#5 v=0
103120 On ch=1 n=b4 v=60
103200 On ch=1 n=b4 v=0
103360 On ch=1 n=a#5 v=60
103440 On ch=1 n=a#5 v=0
103440 On ch=1 n=b5 v=60
103520 On ch=1 n=b5 v=0
103520 On ch=1 n=a#5 v=60
103600 On ch=1 n=a#5 v=0
103600 On ch=1 n=b4 v=60
103680 On ch=1 n=b4 v=0
103680 On ch=1 n=c5 v=0
103680 On ch=1 n=e5 v=0
103680 On ch=1 n=g5 v=0
104000 On ch=1 n=f#5 v=60
104000 On ch=1 n=d#5 v=60
104000 On ch=1 n=b4 v=60
104160 On ch=1 n=b4 v=0
104160 On ch=1 n=d#5 v=0
104160 On ch=1 n=f#5 v=0
104160 On ch=1 n=g5 v=70
104160 On ch=1 n=e5 v=70
104160 On ch=1 n=c5 v=70
104320 On ch=1 n=a#5 v=60
104400 On ch=1 n=a#5 v=0
104400 On ch=1 n=b5 v=60
104480 On ch=1 n=b5 v=0
104480 On ch=1 n=a#5 v=60
104560 On ch=1 n=a#5 v=0
104560 On ch=1 n=b4 v=60
104640 On ch=1 n=b4 v=0
104800 On ch=1 n=a#5 v=60
104880 On ch=1 n=a#5 v=0
104880 On ch=1 n=b5 v=60
104960 On ch=1 n=b5 v=0
104960 On ch=1 n=a#5 v=60
105040 On ch=1 n=a#5 v=0
105040 On ch=1 n=b4 v=60
105120 On ch=1 n=b4 v=0
105280 On ch=1 n=a#5 v=60
105360 On ch=1 n=a#5 v=0
105360 On ch=1 n=b5 v=60
105440 On ch=1 n=b5 v=0
105440 On ch=1 n=a#5 v=60
105520 On ch=1 n=a#5 v=0
105520 On ch=1 n=b4 v=60
105600 On ch=1 n=b4 v=0
105600 On ch=1 n=c5 v=0
105600 On ch=1 n=e5 v=0
105600 On ch=1 n=g5 v=0
105600 On ch=1 n=g5 v=50
105600 On ch=1 n=e5 v=50
105600 On ch=1 n=c5 v=50
105760 On ch=1 n=a#5 v=40
105840 On ch=1 n=a#5 v=0
105840 On ch=1 n=b5 v=40
105920 On ch=1 n=b5 v=0
105920 On ch=1 n=a#5 v=40
106000 On ch=1 n=a#5 v=0
106000 On ch=1 n=b4 v=40
106080 On ch=1 n=b4 v=0
106080 On ch=1 n=c5 v=0
106080 On ch=1 n=e5 v=0
106080 On ch=1 n=g5 v=0
106080 On ch=1 n=g#5 v=50
106080 On ch=1 n=f5 v=50
106080 On ch=1 n=c#5 v=50
106240 On ch=1 n=a#5 v=40
106320 On ch=1 n=a#5 v=0
106320 On ch=1 n=b5 v=40
106400 On ch=1 n=b5 v=0
106400 On ch=1 n=a#5 v=40
106480 On ch=1 n=a#5 v=0
106480 On ch=1 n=b4 v=40
106560 On ch=1 n=b4 v=0
106720 On ch=1 n=a#5 v=40
106800 On ch=1 n=a#5 v=0
106800 On ch=1 n=b5 v=40
106880 On ch=1 n=b5 v=0
106880 On ch=1 n=a#5 v=40
106960 On ch=1 n=a#5 v=0
106960 On ch=1 n=b4 v=40
107040 On ch=1 n=b4 v=0
107200 On ch=1 n=a#5 v=40
107280 On ch=1 n=a#5 v=0
107280 On ch=1 n=b5 v=40
107360 On ch=1 n=b5 v=0
107360 On ch=1 n=a#5 v=40
107440 On ch=1 n=a#5 v=0
107440 On ch=1 n=b4 v=40
107520 On ch=1 n=b4 v=0
107680 On ch=1 n=a#5 v=40
107760 On ch=1 n=a#5 v=0
107760 On ch=1 n=b5 v=40
107840 On ch=1 n=b5 v=0
107840 On ch=1 n=a#5 v=40
107920 On ch=1 n=a#5 v=0
107920 On ch=1 n=b4 v=40
108000 On ch=1 n=b4 v=0
108160 On ch=1 n=a#5 v=40
108240 On ch=1 n=a#5 v=0
108240 On ch=1 n=b5 v=40
108320 On ch=1 n=b5 v=0
108320 On ch=1 n=a#5 v=40
108400 On ch=1 n=a#5 v=0
108400 On ch=1 n=b4 v=40
108480 On ch=1 n=b4 v=0
108480 On ch=1 n=c#5 v=0
108480 On ch=1 n=f5 v=0
108480 On ch=1 n=g#5 v=0
108480 On ch=1 n=a5 v=40
108480 On ch=1 n=f#5 v=40
108480 On ch=1 n=d5 v=40
108640 On ch=1 n=a#5 v=30
108720 On ch=1 n=a#5 v=0
108720 On ch=1 n=b5 v=30
108800 On ch=1 n=b5 v=0
108800 On ch=1 n=a#5 v=30
108880 On ch=1 n=a#5 v=0
108880 On ch=1 n=b4 v=30
108960 On ch=1 n=b4 v=0
109120 On ch=1 n=a#5 v=30
109200 On ch=1 n=a#5 v=0
109200 On ch=1 n=b5 v=30
109280 On ch=1 n=b5 v=0
109280 On ch=1 n=a#5 v=30
109360 On ch=1 n=a#5 v=0
109360 On ch=1 n=b4 v=30
109440 On ch=1 n=b4 v=0
109440 On ch=1 n=d5 v=0
109440 On ch=1 n=f#5 v=0
109440 On ch=1 n=a5 v=0
109760 On ch=1 n=a#5 v=30
109780 On ch=1 n=a#6 v=30
111360 On ch=1 n=a#6 v=0
111360 On ch=1 n=a#5 v=0
111360 Meta TrkEnd
TrkEnd
MTrk
0 SeqSpec 43 00 01 00
0 Meta TrkName "Right Bass"
0 Meta 0x21 00
17760 On ch=1 n=f#4 v=35
17760 On ch=1 n=a#4 v=35
17760 On ch=1 n=c#5 v=35
17760 On ch=1 n=d#5 v=35
17880 On ch=1 n=d#5 v=0
17880 On ch=1 n=c#5 v=0
17880 On ch=1 n=a#4 v=0
17880 On ch=1 n=f#4 v=0
18000 On ch=1 n=d#4 v=35
18000 On ch=1 n=f#4 v=35
18000 On ch=1 n=a#4 v=35
18000 On ch=1 n=c5 v=35
18120 On ch=1 n=c5 v=0
18120 On ch=1 n=a#4 v=0
18120 On ch=1 n=f#4 v=0
18120 On ch=1 n=d#4 v=0
18240 On ch=1 n=c#4 v=30
18240 On ch=1 n=a#4 v=30
18240 On ch=1 n=f#4 v=30
18240 On ch=1 n=d#4 v=30
19200 On ch=1 n=d#4 v=0
19200 On ch=1 n=f#4 v=0
19200 On ch=1 n=a#4 v=0
19200 On ch=1 n=c#4 v=0
21600 On ch=1 n=f#4 v=35
21600 On ch=1 n=a#4 v=35
21600 On ch=1 n=c#5 v=35
21600 On ch=1 n=d#5 v=35
21720 On ch=1 n=d#5 v=0
21720 On ch=1 n=c#5 v=0
21720 On ch=1 n=a#4 v=0
21720 On ch=1 n=f#4 v=0
21840 On ch=1 n=d#4 v=35
21840 On ch=1 n=f#4 v=35
21840 On ch=1 n=a#4 v=35
21840 On ch=1 n=c5 v=35
21960 On ch=1 n=c5 v=0
21960 On ch=1 n=a#4 v=0
21960 On ch=1 n=f#4 v=0
21960 On ch=1 n=d#4 v=0
22080 On ch=1 n=c#4 v=30
22080 On ch=1 n=a#4 v=30
22080 On ch=1 n=f#4 v=30
22080 On ch=1 n=d#4 v=30
23040 On ch=1 n=d#4 v=0
23040 On ch=1 n=f#4 v=0
23040 On ch=1 n=a#4 v=0
23040 On ch=1 n=c#4 v=0
23120 On ch=1 n=b3 v=60
23200 On ch=1 n=b3 v=0
23200 On ch=1 n=a#4 v=60
23280 On ch=1 n=a#4 v=0
23280 On ch=1 n=b4 v=60
23360 On ch=1 n=b4 v=0
23360 On ch=1 n=a#4 v=60
23440 On ch=1 n=a#4 v=0
23440 On ch=1 n=b3 v=60
23520 On ch=1 n=b3 v=0
23600 On ch=1 n=b3 v=60
23680 On ch=1 n=b3 v=0
23680 On ch=1 n=a#4 v=60
23760 On ch=1 n=a#4 v=0
23760 On ch=1 n=b4 v=60
23840 On ch=1 n=b4 v=0
23840 On ch=1 n=a#4 v=60
23920 On ch=1 n=a#4 v=0
23920 On ch=1 n=b3 v=60
24000 On ch=1 n=b3 v=0
40320 On ch=1 n=a4 v=40
40320 On ch=1 n=f4 v=40
40400 On ch=1 n=a4 v=0
40400 On ch=1 n=b4 v=40
40480 On ch=1 n=b4 v=0
40480 On ch=1 n=a4 v=40
40560 On ch=1 n=a4 v=0
40560 On ch=1 n=b4 v=40
40640 On ch=1 n=b4 v=0
40640 On ch=1 n=a4 v=40
40720 On ch=1 n=a4 v=0
40720 On ch=1 n=b4 v=40
40800 On ch=1 n=b4 v=0
42240 On ch=1 n=f4 v=0
42240 On ch=1 n=a4 v=40
42240 On ch=1 n=f4 v=40
42320 On ch=1 n=a4 v=0
42320 On ch=1 n=b4 v=40
42400 On ch=1 n=b4 v=0
42400 On ch=1 n=a4 v=40
42480 On ch=1 n=a4 v=0
42480 On ch=1 n=b4 v=40
42560 On ch=1 n=b4 v=0
42560 On ch=1 n=a4 v=40
42640 On ch=1 n=a4 v=0
42640 On ch=1 n=b4 v=40
42720 On ch=1 n=b4 v=0
42720 On ch=1 n=a4 v=40
42800 On ch=1 n=a4 v=0
42800 On ch=1 n=b4 v=40
42880 On ch=1 n=b4 v=0
42880 On ch=1 n=a4 v=40
42960 On ch=1 n=a4 v=0
42960 On ch=1 n=b4 v=40
43040 On ch=1 n=b4 v=0
43040 On ch=1 n=a4 v=40
43120 On ch=1 n=a4 v=0
43120 On ch=1 n=b4 v=40
43200 On ch=1 n=b4 v=0
43200 On ch=1 n=a4 v=40
43280 On ch=1 n=a4 v=0
43280 On ch=1 n=b4 v=40
43360 On ch=1 n=b4 v=0
43360 On ch=1 n=a4 v=40
43440 On ch=1 n=a4 v=0
43440 On ch=1 n=b4 v=40
43520 On ch=1 n=b4 v=0
43520 On ch=1 n=a4 v=40
43600 On ch=1 n=a4 v=0
43600 On ch=1 n=b4 v=40
43680 On ch=1 n=b4 v=0
43680 On ch=1 n=a4 v=40
43760 On ch=1 n=a4 v=0
43760 On ch=1 n=b4 v=40
43840 On ch=1 n=b4 v=0
43840 On ch=1 n=a4 v=40
43920 On ch=1 n=a4 v=0
43920 On ch=1 n=b4 v=40
44000 On ch=1 n=b4 v=0
44000 On ch=1 n=a4 v=40
44080 On ch=1 n=a4 v=0
44080 On ch=1 n=b4 v=40
44160 On ch=1 n=b4 v=0
44160 On ch=1 n=f4 v=0
44160 On ch=1 n=a4 v=50
44160 On ch=1 n=f4 v=50
44240 On ch=1 n=a4 v=0
44240 On ch=1 n=b4 v=50
44320 On ch=1 n=b4 v=0
44320 On ch=1 n=a4 v=50
44400 On ch=1 n=a4 v=0
44400 On ch=1 n=b4 v=50
44480 On ch=1 n=b4 v=0
44480 On ch=1 n=a4 v=50
44560 On ch=1 n=a4 v=0
44560 On ch=1 n=b4 v=50
44640 On ch=1 n=b4 v=0
44640 On ch=1 n=a4 v=50
44720 On ch=1 n=a4 v=0
44720 On ch=1 n=b4 v=50
44800 On ch=1 n=b4 v=0
44800 On ch=1 n=a4 v=50
44880 On ch=1 n=a4 v=0
44880 On ch=1 n=b4 v=50
44960 On ch=1 n=b4 v=0
44960 On ch=1 n=a4 v=50
45040 On ch=1 n=a4 v=0
45040 On ch=1 n=b4 v=50
45120 On ch=1 n=b4 v=0
45120 On ch=1 n=f4 v=0
45120 On ch=1 n=b4 v=60
45120 On ch=1 n=g4 v=60
45200 On ch=1 n=b4 v=0
45200 On ch=1 n=c#5 v=60
45280 On ch=1 n=c#5 v=0
45280 On ch=1 n=b4 v=60
45360 On ch=1 n=b4 v=0
45360 On ch=1 n=c#5 v=60
45440 On ch=1 n=c#5 v=0
45440 On ch=1 n=b4 v=60
45520 On ch=1 n=b4 v=0
45520 On ch=1 n=c#5 v=60
45600 On ch=1 n=c#5 v=0
45600 On ch=1 n=b4 v=60
45680 On ch=1 n=b4 v=0
45680 On ch=1 n=c#5 v=60
45760 On ch=1 n=c#5 v=0
45760 On ch=1 n=b4 v=60
45840 On ch=1 n=b4 v=0
45840 On ch=1 n=c#5 v=60
45920 On ch=1 n=c#5 v=0
45920 On ch=1 n=b4 v=60
46000 On ch=1 n=b4 v=0
46000 On ch=1 n=c#5 v=60
46080 On ch=1 n=c#5 v=0
46080 On ch=1 n=g4 v=0
46080 On ch=1 n=a#4 v=40
46080 On ch=1 n=f#4 v=40
46160 On ch=1 n=a#4 v=0
46160 On ch=1 n=c5 v=40
46240 On ch=1 n=c5 v=0
46240 On ch=1 n=a#4 v=40
46320 On ch=1 n=a#4 v=0
46320 On ch=1 n=c5 v=40
46400 On ch=1 n=c5 v=0
46400 On ch=1 n=a#4 v=40
46480 On ch=1 n=a#4 v=0
46480 On ch=1 n=c5 v=40
46560 On ch=1 n=c5 v=0
48000 On ch=1 n=f#4 v=0
48000 On ch=1 n=a#4 v=40
48000 On ch=1 n=f#4 v=40
48080 On ch=1 n=a#4 v=0
48080 On ch=1 n=c5 v=40
48160 On ch=1 n=c5 v=0
48160 On ch=1 n=a#4 v=40
48240 On ch=1 n=a#4 v=0
48240 On ch=1 n=c5 v=40
48320 On ch=1 n=c5 v=0
48320 On ch=1 n=a#4 v=40
48400 On ch=1 n=a#4 v=0
48400 On ch=1 n=c5 v=40
48480 On ch=1 n=c5 v=0
48480 On ch=1 n=a#4 v=40
48560 On ch=1 n=a#4 v=0
48560 On ch=1 n=c5 v=40
48640 On ch=1 n=c5 v=0
48640 On ch=1 n=a#4 v=40
48720 On ch=1 n=a#4 v=0
48720 On ch=1 n=c5 v=40
48800 On ch=1 n=c5 v=0
48800 On ch=1 n=a#4 v=40
48880 On ch=1 n=a#4 v=0
48880 On ch=1 n=c5 v=40
48960 On ch=1 n=c5 v=0
48960 On ch=1 n=a#4 v=40
49040 On ch=1 n=a#4 v=0
49040 On ch=1 n=c5 v=40
49120 On ch=1 n=c5 v=0
49120 On ch=1 n=a#4 v=40
49200 On ch=1 n=a#4 v=0
49200 On ch=1 n=c5 v=40
49280 On ch=1 n=c5 v=0
49280 On ch=1 n=a#4 v=40
49360 On ch=1 n=a#4 v=0
49360 On ch=1 n=c5 v=40
49440 On ch=1 n=c5 v=0
49440 On ch=1 n=a#4 v=40
49520 On ch=1 n=a#4 v=0
49520 On ch=1 n=c5 v=40
49600 On ch=1 n=c5 v=0
49600 On ch=1 n=a#4 v=40
49680 On ch=1 n=a#4 v=0
49680 On ch=1 n=c5 v=40
49760 On ch=1 n=c5 v=0
49760 On ch=1 n=a#4 v=40
49840 On ch=1 n=a#4 v=0
49840 On ch=1 n=c5 v=40
49920 On ch=1 n=c5 v=0
49920 On ch=1 n=f#4 v=0
49920 On ch=1 n=f#4 v=50
49920 On ch=1 n=a#4 v=50
50000 On ch=1 n=a#4 v=0
50000 On ch=1 n=c5 v=50
50080 On ch=1 n=c5 v=0
50080 On ch=1 n=a#4 v=50
50160 On ch=1 n=a#4 v=0
50160 On ch=1 n=c5 v=50
50240 On ch=1 n=c5 v=0
50240 On ch=1 n=a#4 v=50
50320 On ch=1 n=a#4 v=0
50320 On ch=1 n=c5 v=50
50400 On ch=1 n=c5 v=0
50400 On ch=1 n=f#4 v=0
96480 On ch=1 n=f#4 v=30
96480 On ch=1 n=a#4 v=30
96480 On ch=1 n=c#5 v=30
96480 On ch=1 n=d#5 v=30
96600 On ch=1 n=d#5 v=0
96600 On ch=1 n=c#5 v=0
96600 On ch=1 n=a#4 v=0
96600 On ch=1 n=f#4 v=0
96720 On ch=1 n=d#4 v=30
96720 On ch=1 n=f#4 v=30
96720 On ch=1 n=a#4 v=30
96720 On ch=1 n=c5 v=30
96840 On ch=1 n=c5 v=0
96840 On ch=1 n=a#4 v=0
96840 On ch=1 n=f#4 v=0
96840 On ch=1 n=d#4 v=0
100320 On ch=1 n=f#4 v=30
100320 On ch=1 n=a#4 v=30
100320 On ch=1 n=c#5 v=30
100320 On ch=1 n=d#5 v=30
100440 On ch=1 n=d#5 v=0
100440 On ch=1 n=c#5 v=0
100440 On ch=1 n=a#4 v=0
100440 On ch=1 n=f#4 v=0
100560 On ch=1 n=d#4 v=30
100560 On ch=1 n=f#4 v=30
100560 On ch=1 n=a#4 v=30
100560 On ch=1 n=c5 v=30
100680 On ch=1 n=c5 v=0
100680 On ch=1 n=a#4 v=0
100680 On ch=1 n=f#4 v=0
100680 On ch=1 n=d#4 v=0
100680 Meta TrkEnd
TrkEnd
MTrk
0 SeqSpec 43 00 01 00
0 Meta TrkName "Left Treble"
0 Meta 0x21 00
0 On ch=1 n=a#4 v=50
60 On ch=1 n=a#4 v=0
480 On ch=1 n=a#4 v=50
540 On ch=1 n=a#4 v=0
960 On ch=1 n=a#4 v=50
1020 On ch=1 n=a#4 v=0
1440 On ch=1 n=a#4 v=50
1500 On ch=1 n=a#4 v=0
1920 On ch=1 n=a#4 v=50
1980 On ch=1 n=a#4 v=0
2400 On ch=1 n=a#4 v=50
2460 On ch=1 n=a#4 v=0
2880 On ch=1 n=a#4 v=50
2940 On ch=1 n=a#4 v=0
3360 On ch=1 n=a#4 v=50
3420 On ch=1 n=a#4 v=0
3840 On ch=1 n=a#4 v=50
3900 On ch=1 n=a#4 v=0
4260 On ch=1 n=d#5 v=50
4320 On ch=1 n=d#5 v=0
4320 On ch=1 n=c#5 v=50
4800 On ch=1 n=a#4 v=50
4860 On ch=1 n=a#4 v=0
5220 On ch=1 n=c#5 v=0
5220 On ch=1 n=d#5 v=50
5280 On ch=1 n=d#5 v=0
5280 On ch=1 n=c#5 v=50
5700 On ch=1 n=c#5 v=0
5700 On ch=1 n=d#5 v=50
5760 On ch=1 n=d#5 v=0
5760 On ch=1 n=f#5 v=50
6180 On ch=1 n=f#5 v=0
6180 On ch=1 n=d#5 v=50
6240 On ch=1 n=d#5 v=0
6240 On ch=1 n=c#5 v=50
7200 On ch=1 n=c#5 v=0
7200 On ch=1 n=a#4 v=50
8040 On ch=1 n=f#5 v=50
8100 On ch=1 n=f#5 v=0
8100 On ch=1 n=d#5 v=50
8160 On ch=1 n=d#5 v=0
8160 On ch=1 n=c#5 v=50
8400 On ch=1 n=a#4 v=0
8640 On ch=1 n=c#5 v=0
8640 On ch=1 n=a#4 v=50
9000 On ch=1 n=f5 v=50
9060 On ch=1 n=f5 v=0
9060 On ch=1 n=d5 v=50
9120 On ch=1 n=d5 v=0
9120 On ch=1 n=c#5 v=50
9360 On ch=1 n=a#4 v=0
9600 On ch=1 n=c#5 v=0
9600 On ch=1 n=a#4 v=50
9960 On ch=1 n=f#5 v=50
10020 On ch=1 n=f#5 v=0
10020 On ch=1 n=d#5 v=50
10080 On ch=1 n=d#5 v=0
10080 On ch=1 n=c#5 v=50
10320 On ch=1 n=a#4 v=0
10560 On ch=1 n=c#5 v=0
10560 On ch=1 n=a#4 v=50
10920 On ch=1 n=f5 v=50
10980 On ch=1 n=f5 v=0
10980 On ch=1 n=d5 v=50
11040 On ch=1 n=d5 v=0
11040 On ch=1 n=c#5 v=50
11280 On ch=1 n=a#4 v=0
11520 On ch=1 n=c#5 v=0
11520 On ch=1 n=a#4 v=50
11580 On ch=1 n=a#4 v=0
12000 On ch=1 n=a#4 v=50
12060 On ch=1 n=a#4 v=0
12480 On ch=1 n=a#4 v=50
12540 On ch=1 n=a#4 v=0
12960 On ch=1 n=a#4 v=50
13020 On ch=1 n=a#4 v=0
13440 On ch=1 n=a#4 v=50
13500 On ch=1 n=a#4 v=0
13920 On ch=1 n=a#4 v=50
13980 On ch=1 n=a#4 v=0
14400 On ch=1 n=a#4 v=50
14460 On ch=1 n=a#4 v=0
14880 On ch=1 n=a#5 v=50
14940 On ch=1 n=a#5 v=0
26880 On ch=1 n=a4 v=50
27300 On ch=1 n=d#5 v=50
27360 On ch=1 n=d#5 v=0
27360 On ch=1 n=c#5 v=50
27600 On ch=1 n=a4 v=0
27840 On ch=1 n=a4 v=50
27900 On ch=1 n=a4 v=0
28260 On ch=1 n=c#5 v=0
28260 On ch=1 n=d#5 v=50
28320 On ch=1 n=d#5 v=0
28320 On ch=1 n=c#5 v=50
28740 On ch=1 n=c#5 v=0
28740 On ch=1 n=d#5 v=50
28800 On ch=1 n=d#5 v=0
28800 On ch=1 n=f#5 v=50
28800 On ch=1 n=a4 v=50
28860 On ch=1 n=a4 v=0
29220 On ch=1 n=f#5 v=0
29220 On ch=1 n=d#5 v=50
29280 On ch=1 n=d#5 v=0
29280 On ch=1 n=c#5 v=50
29760 On ch=1 n=a4 v=50
29820 On ch=1 n=a4 v=0
30240 On ch=1 n=c#5 v=0
30240 On ch=1 n=d#5 v=50
30720 On ch=1 n=d#5 v=0
30720 On ch=1 n=c#5 v=50
30720 On ch=1 n=a4 v=50
30720 On ch=1 n=f#5 v=50
30960 On ch=1 n=a4 v=0
31140 On ch=1 n=c#5 v=0
31140 On ch=1 n=d5 v=50
31200 On ch=1 n=d5 v=0
31200 On ch=1 n=f#5 v=0
31200 On ch=1 n=d#5 v=60
31200 On ch=1 n=g#5 v=60
31680 On ch=1 n=g#5 v=0
31680 On ch=1 n=d#5 v=0
31680 On ch=1 n=a4 v=50
31680 On ch=1 n=f#5 v=50
31680 On ch=1 n=c#5 v=50
31920 On ch=1 n=a4 v=0
32100 On ch=1 n=c#5 v=0
32100 On ch=1 n=d5 v=50
32160 On ch=1 n=d5 v=0
32160 On ch=1 n=f#5 v=0
32160 On ch=1 n=g#5 v=60
32160 On ch=1 n=d#5 v=60
32640 On ch=1 n=d#5 v=0
32640 On ch=1 n=g#5 v=0
32640 On ch=1 n=a#4 v=50
32700 On ch=1 n=a#4 v=0
33120 On ch=1 n=a#4 v=50
33180 On ch=1 n=a#4 v=0
33600 On ch=1 n=a#4 v=50
33660 On ch=1 n=a#4 v=0
34080 On ch=1 n=a#4 v=50
34140 On ch=1 n=a#4 v=0
34560 On ch=1 n=a4 v=50
34980 On ch=1 n=f5 v=50
35040 On ch=1 n=f5 v=0
35040 On ch=1 n=a4 v=0
35040 On ch=1 n=d#5 v=50
35520 On ch=1 n=a4 v=50
35940 On ch=1 n=d#5 v=0
35940 On ch=1 n=f5 v=50
36000 On ch=1 n=f5 v=0
36000 On ch=1 n=a4 v=0
36000 On ch=1 n=d#5 v=50
36420 On ch=1 n=d#5 v=0
36420 On ch=1 n=f5 v=50
36480 On ch=1 n=f5 v=0
36480 On ch=1 n=a4 v=50
36480 On ch=1 n=g#5 v=50
36540 On ch=1 n=a4 v=0
36900 On ch=1 n=g#5 v=0
36900 On ch=1 n=f5 v=50
36960 On ch=1 n=f5 v=0
36960 On ch=1 n=d#5 v=55
37440 On ch=1 n=a4 v=60
37500 On ch=1 n=a4 v=0
37920 On ch=1 n=d#5 v=0
37920 On ch=1 n=f5 v=65
38400 On ch=1 n=f5 v=0
38400 On ch=1 n=f4 v=70
38400 On ch=1 n=a4 v=70
38400 On ch=1 n=d5 v=70
38880 On ch=1 n=d5 v=0
38880 On ch=1 n=a4 v=0
38880 On ch=1 n=f4 v=0
38880 On ch=1 n=b4 v=80
38880 On ch=1 n=d5 v=80
38880 On ch=1 n=g5 v=80
39360 On ch=1 n=g5 v=0
39360 On ch=1 n=d5 v=0
39360 On ch=1 n=b4 v=0
39360 On ch=1 n=f4 v=80
39360 On ch=1 n=a4 v=80
39360 On ch=1 n=d5 v=80
39840 On ch=1 n=d5 v=0
39840 On ch=1 n=a4 v=0
39840 On ch=1 n=f4 v=0
39840 On ch=1 n=c#5 v=70
39840 On ch=1 n=f5 v=70
40320 On ch=1 n=f5 v=0
40320 On ch=1 n=c#5 v=0
63840 On ch=1 n=g#5 v=120
63900 On ch=1 n=g#5 v=0
64320 On ch=1 n=g#5 v=120
64380 On ch=1 n=g#5 v=0
64800 On ch=1 n=g#5 v=120
64860 On ch=1 n=g#5 v=0
65280 On ch=1 n=g#5 v=110
65340 On ch=1 n=g#5 v=0
65760 On ch=1 n=g#5 v=100
65820 On ch=1 n=g#5 v=0
66240 On ch=1 n=g#5 v=90
66300 On ch=1 n=g#5 v=0
66720 On ch=1 n=g#5 v=80
66780 On ch=1 n=g#5 v=0
67200 On ch=1 n=g#5 v=70
67620 On ch=1 n=c#6 v=70
67680 On ch=1 n=c#6 v=0
67680 On ch=1 n=b5 v=70
67920 On ch=1 n=g#5 v=0
68160 On ch=1 n=g#5 v=70
68400 On ch=1 n=g#5 v=0
68580 On ch=1 n=b5 v=0
68580 On ch=1 n=c#6 v=70
68640 On ch=1 n=c#6 v=0
68640 On ch=1 n=b5 v=70
69060 On ch=1 n=b5 v=0
69060 On ch=1 n=c#6 v=70
69120 On ch=1 n=c#6 v=0
69120 On ch=1 n=e6 v=70
69120 On ch=1 n=g#5 v=70
69180 On ch=1 n=g#5 v=0
69540 On ch=1 n=e6 v=0
69540 On ch=1 n=c#6 v=70
69600 On ch=1 n=c#6 v=0
69600 On ch=1 n=b5 v=70
70080 On ch=1 n=g#5 v=70
70140 On ch=1 n=g#5 v=0
70560 On ch=1 n=b5 v=0
70560 On ch=1 n=c#6 v=70
71040 On ch=1 n=c#6 v=0
71040 On ch=1 n=g#5 v=70
71100 On ch=1 n=g#5 v=0
71520 On ch=1 n=g5 v=70
71580 On ch=1 n=g5 v=0
72000 On ch=1 n=f#5 v=70
72060 On ch=1 n=f#5 v=0
72480 On ch=1 n=a5 v=70
72540 On ch=1 n=a5 v=0
72960 On ch=1 n=g#5 v=70
73020 On ch=1 n=g#5 v=0
73440 On ch=1 n=g5 v=70
73500 On ch=1 n=g5 v=0
73920 On ch=1 n=f#5 v=70
73980 On ch=1 n=f#5 v=0
74400 On ch=1 n=f5 v=70
74460 On ch=1 n=f5 v=0
74880 On ch=1 n=e5 v=70
75300 On ch=1 n=a5 v=70
75360 On ch=1 n=a5 v=0
75360 On ch=1 n=g5 v=70
75600 On ch=1 n=e5 v=0
75840 On ch=1 n=e5 v=70
76080 On ch=1 n=e5 v=0
76260 On ch=1 n=g5 v=0
76260 On ch=1 n=a5 v=70
76320 On ch=1 n=a5 v=0
76320 On ch=1 n=g5 v=70
76740 On ch=1 n=g5 v=0
76740 On ch=1 n=a5 v=70
76800 On ch=1 n=a5 v=0
76800 On ch=1 n=c6 v=70
76800 On ch=1 n=e5 v=70
77040 On ch=1 n=e5 v=0
77220 On ch=1 n=c6 v=0
77220 On ch=1 n=a5 v=70
77280 On ch=1 n=a5 v=0
77280 On ch=1 n=g5 v=70
77760 On ch=1 n=e5 v=70
78000 On ch=1 n=e5 v=0
78240 On ch=1 n=g5 v=0
78240 On ch=1 n=a5 v=70
78720 On ch=1 n=a5 v=0
78720 On ch=1 n=e5 v=70
78780 On ch=1 n=e5 v=0
79200 On ch=1 n=d#5 v=70
79260 On ch=1 n=d#5 v=0
79680 On ch=1 n=d5 v=70
79740 On ch=1 n=d5 v=0
80160 On ch=1 n=f5 v=70
80220 On ch=1 n=f5 v=0
80640 On ch=1 n=e5 v=70
80700 On ch=1 n=e5 v=0
81120 On ch=1 n=d#5 v=70
81180 On ch=1 n=d#5 v=0
81600 On ch=1 n=c5 v=70
81660 On ch=1 n=c5 v=0
82080 On ch=1 n=b4 v=70
82140 On ch=1 n=b4 v=0
82560 On ch=1 n=a#4 v=60
82980 On ch=1 n=d#5 v=60
83040 On ch=1 n=d#5 v=0
83040 On ch=1 n=c#5 v=60
83280 On ch=1 n=a#4 v=0
83940 On ch=1 n=c#5 v=0
83940 On ch=1 n=d#5 v=60
84000 On ch=1 n=d#5 v=0
84000 On ch=1 n=c#5 v=60
84420 On ch=1 n=c#5 v=0
84420 On ch=1 n=d#5 v=60
84480 On ch=1 n=d#5 v=0
84480 On ch=1 n=f#5 v=60
84540 On ch=1 n=f#5 v=0
84960 On ch=1 n=d#5 v=60
85020 On ch=1 n=d#5 v=0
85440 On ch=1 n=c#5 v=60
85500 On ch=1 n=c#5 v=0
101760 On ch=1 n=a#4 v=40
101920 On ch=1 n=b4 v=50
102080 On ch=1 n=b4 v=0
102240 On ch=1 n=a#4 v=60
102320 On ch=1 n=a#4 v=0
102320 On ch=1 n=b4 v=60
102400 On ch=1 n=b4 v=0
102720 On ch=1 n=a#4 v=60
102800 On ch=1 n=a#4 v=0
102800 On ch=1 n=b4 v=60
102880 On ch=1 n=b4 v=0
103200 On ch=1 n=a#4 v=60
103280 On ch=1 n=a#4 v=0
103280 On ch=1 n=b4 v=60
103360 On ch=1 n=b4 v=0
103680 On ch=1 n=a#4 v=0
103680 On ch=1 n=a#4 v=70
103840 On ch=1 n=b4 v=60
104000 On ch=1 n=b4 v=0
104160 On ch=1 n=a#4 v=60
104240 On ch=1 n=a#4 v=0
104240 On ch=1 n=b4 v=60
104320 On ch=1 n=b4 v=0
104640 On ch=1 n=a#4 v=60
104720 On ch=1 n=a#4 v=0
104720 On ch=1 n=b4 v=60
104800 On ch=1 n=b4 v=0
105120 On ch=1 n=a#4 v=60
105200 On ch=1 n=a#4 v=0
105200 On ch=1 n=b4 v=60
105280 On ch=1 n=b4 v=0
105600 On ch=1 n=a#4 v=0
105600 On ch=1 n=a#4 v=50
105680 On ch=1 n=b4 v=40
105760 On ch=1 n=b4 v=0
106080 On ch=1 n=a#4 v=40
106160 On ch=1 n=a#4 v=0
106160 On ch=1 n=b4 v=40
106240 On ch=1 n=b4 v=0
106560 On ch=1 n=a#4 v=40
106640 On ch=1 n=a#4 v=0
106640 On ch=1 n=b4 v=40
106720 On ch=1 n=b4 v=0
107040 On ch=1 n=a#4 v=40
107120 On ch=1 n=a#4 v=0
107120 On ch=1 n=b4 v=40
107200 On ch=1 n=b4 v=0
107520 On ch=1 n=a#4 v=0
107520 On ch=1 n=a#4 v=50
107600 On ch=1 n=b4 v=40
107680 On ch=1 n=b4 v=0
108000 On ch=1 n=a#4 v=40
108080 On ch=1 n=a#4 v=0
108080 On ch=1 n=b4 v=40
108160 On ch=1 n=b4 v=0
108480 On ch=1 n=a#4 v=30
108560 On ch=1 n=a#4 v=0
108560 On ch=1 n=b4 v=30
108640 On ch=1 n=b4 v=0
108960 On ch=1 n=a#4 v=30
109040 On ch=1 n=a#4 v=0
109040 On ch=1 n=b4 v=30
109120 On ch=1 n=b4 v=0
109440 On ch=1 n=a#4 v=0
109440 On ch=1 n=a#4 v=40
109600 On ch=1 n=b4 v=30
109680 On ch=1 n=b4 v=0
113280 On ch=1 n=a#4 v=0
113280 Meta TrkEnd
TrkEnd
MTrk
0 SeqSpec 43 00 01 00
0 Meta TrkName "Left Bass"
0 Meta 0x21 00
15360 On ch=1 n=d#2 v=40
15360 On ch=1 n=a#2 v=40
18240 On ch=1 n=a#2 v=0
18240 On ch=1 n=d#2 v=0
18240 On ch=1 n=g#2 v=30
18240 On ch=1 n=d#3 v=30
18360 On ch=1 n=d#3 v=0
18360 On ch=1 n=g#2 v=0
18720 On ch=1 n=f#2 v=30
18720 On ch=1 n=c#3 v=30
18840 On ch=1 n=c#3 v=0
18840 On ch=1 n=f#2 v=0
19200 On ch=1 n=d#2 v=40
19200 On ch=1 n=a#2 v=40
22080 On ch=1 n=a#2 v=0
22080 On ch=1 n=d#2 v=0
22080 On ch=1 n=f#2 v=30
22080 On ch=1 n=c#3 v=30
22200 On ch=1 n=c#3 v=0
22200 On ch=1 n=f#2 v=0
22560 On ch=1 n=g#2 v=30
22560 On ch=1 n=d#3 v=30
22680 On ch=1 n=d#3 v=0
22680 On ch=1 n=g#2 v=0
23040 On ch=1 n=a#2 v=70
23520 On ch=1 n=a#2 v=0
23520 On ch=1 n=a#3 v=125
24000 On ch=1 n=a#3 v=0
24000 On ch=1 n=a#4 v=70
24060 On ch=1 n=a#4 v=0
24480 On ch=1 n=a#4 v=70
24540 On ch=1 n=a#4 v=0
24960 On ch=1 n=a#4 v=70
25020 On ch=1 n=a#4 v=0
25440 On ch=1 n=a#4 v=65
25500 On ch=1 n=a#4 v=0
25920 On ch=1 n=a#4 v=60
25980 On ch=1 n=a#4 v=0
26400 On ch=1 n=a#4 v=60
26460 On ch=1 n=a#4 v=0
40320 On ch=1 n=g3 v=40
40320 On ch=1 n=c#4 v=40
42720 On ch=1 n=c#4 v=0
42720 On ch=1 n=g3 v=0
42720 On ch=1 n=f3 v=40
42720 On ch=1 n=c4 v=40
43200 On ch=1 n=c4 v=0
43200 On ch=1 n=f3 v=0
43200 On ch=1 n=d3 v=40
43200 On ch=1 n=a3 v=40
43680 On ch=1 n=a3 v=0
43680 On ch=1 n=d3 v=0
43680 On ch=1 n=f3 v=40
43680 On ch=1 n=c4 v=40
44160 On ch=1 n=c4 v=0
44160 On ch=1 n=f3 v=0
44160 On ch=1 n=c#4 v=50
44160 On ch=1 n=g3 v=50
45120 On ch=1 n=g3 v=0
45120 On ch=1 n=c#4 v=0
45120 On ch=1 n=e4 v=60
45120 On ch=1 n=a3 v=60
46080 On ch=1 n=a3 v=0
46080 On ch=1 n=e4 v=0
46080 On ch=1 n=d4 v=40
46080 On ch=1 n=g#3 v=40
48480 On ch=1 n=g#3 v=0
48480 On ch=1 n=d4 v=0
48480 On ch=1 n=f#3 v=40
48480 On ch=1 n=c#4 v=40
48960 On ch=1 n=c#4 v=0
48960 On ch=1 n=f#3 v=0
48960 On ch=1 n=d#3 v=40
48960 On ch=1 n=a#3 v=40
49440 On ch=1 n=a#3 v=0
49440 On ch=1 n=d#3 v=0
49440 On ch=1 n=f#3 v=40
49440 On ch=1 n=c#4 v=40
49920 On ch=1 n=c#4 v=0
49920 On ch=1 n=f#3 v=0
49920 On ch=1 n=d4 v=50
49920 On ch=1 n=g#3 v=50
51840 On ch=1 n=g#3 v=0
51840 On ch=1 n=d4 v=0
51840 On ch=1 n=f#2 v=100
51960 On ch=1 n=c#3 v=100
52080 On ch=1 n=c#3 v=0
52080 On ch=1 n=c#4 v=125
52080 On ch=1 n=f#4 v=125
52080 On ch=1 n=a#4 v=125
52080 On ch=1 n=c#5 v=125
52320 On ch=1 n=c#5 v=0
52320 On ch=1 n=a#4 v=0
52320 On ch=1 n=f#4 v=0
52320 On ch=1 n=c#4 v=0
52320 On ch=1 n=f#2 v=40
52400 On ch=1 n=f#2 v=0
52400 On ch=1 n=c#3 v=40
52480 On ch=1 n=c#3 v=0
52480 On ch=1 n=f#2 v=40
52560 On ch=1 n=f#2 v=0
52560 On ch=1 n=c#3 v=40
52640 On ch=1 n=c#3 v=0
52640 On ch=1 n=f#2 v=40
52720 On ch=1 n=f#2 v=0
52720 On ch=1 n=c#3 v=40
52800 On ch=1 n=c#3 v=0
52800 On ch=1 n=f#2 v=40
52880 On ch=1 n=f#2 v=0
52880 On ch=1 n=c#3 v=40
52960 On ch=1 n=c#3 v=0
52960 On ch=1 n=f#2 v=40
53040 On ch=1 n=f#2 v=0
53040 On ch=1 n=c#3 v=40
53120 On ch=1 n=c#3 v=0
53120 On ch=1 n=f#2 v=40
53200 On ch=1 n=f#2 v=0
53200 On ch=1 n=c#3 v=40
53280 On ch=1 n=c#3 v=0
53280 On ch=1 n=f#2 v=40
53360 On ch=1 n=f#2 v=0
53360 On ch=1 n=c#3 v=40
53440 On ch=1 n=c#3 v=0
53440 On ch=1 n=f#2 v=40
53520 On ch=1 n=f#2 v=0
53520 On ch=1 n=c#3 v=40
53600 On ch=1 n=c#3 v=0
53600 On ch=1 n=f#2 v=40
53680 On ch=1 n=f#2 v=0
53680 On ch=1 n=c#3 v=40
53760 On ch=1 n=c#3 v=0
53760 On ch=1 n=f#2 v=0
53760 On ch=1 n=f#2 v=40
53840 On ch=1 n=f#2 v=0
53840 On ch=1 n=c#3 v=40
53920 On ch=1 n=c#3 v=0
53920 On ch=1 n=f#2 v=40
54000 On ch=1 n=f#2 v=0
54000 On ch=1 n=c#3 v=40
54080 On ch=1 n=c#3 v=0
54080 On ch=1 n=f#2 v=40
54160 On ch=1 n=f#2 v=0
54160 On ch=1 n=c#3 v=40
54240 On ch=1 n=c#3 v=0
54240 On ch=1 n=e4 v=50
54240 On ch=1 n=g4 v=50
54240 On ch=1 n=a2 v=40
54320 On ch=1 n=a2 v=0
54320 On ch=1 n=e3 v=40
54400 On ch=1 n=e3 v=0
54400 On ch=1 n=a2 v=40
54480 On ch=1 n=a2 v=0
54480 On ch=1 n=e3 v=40
54560 On ch=1 n=e3 v=0
54560 On ch=1 n=a2 v=40
54640 On ch=1 n=a2 v=0
54640 On ch=1 n=e3 v=40
54720 On ch=1 n=e3 v=0
54720 On ch=1 n=g4 v=0
54720 On ch=1 n=e4 v=0
54720 On ch=1 n=c#4 v=45
54720 On ch=1 n=f4 v=45
54720 On ch=1 n=g#4 v=45
54720 On ch=1 n=c#3 v=35
54800 On ch=1 n=c#3 v=0
54800 On ch=1 n=g#3 v=35
54880 On ch=1 n=g#3 v=0
54880 On ch=1 n=c#3 v=35
54960 On ch=1 n=c#3 v=0
54960 On ch=1 n=g#3 v=35
55040 On ch=1 n=g#3 v=0
55040 On ch=1 n=c#3 v=35
55120 On ch=1 n=c#3 v=0
55120 On ch=1 n=g#3 v=35
55200 On ch=1 n=g#3 v=0
55200 On ch=1 n=g#4 v=0
55200 On ch=1 n=f4 v=0
55200 On ch=1 n=c#4 v=0
55200 On ch=1 n=e4 v=40
55200 On ch=1 n=g4 v=40
55200 On ch=1 n=a2 v=30
55280 On ch=1 n=a2 v=0
55280 On ch=1 n=e3 v=30
55360 On ch=1 n=e3 v=0
55360 On ch=1 n=a2 v=30
55440 On ch=1 n=a2 v=0
55440 On ch=1 n=e3 v=30
55520 On ch=1 n=e3 v=0
55520 On ch=1 n=a2 v=30
55600 On ch=1 n=a2 v=0
55600 On ch=1 n=e3 v=30
55680 On ch=1 n=e3 v=0
55680 On ch=1 n=g4 v=0
55680 On ch=1 n=e4 v=0
55680 On ch=1 n=f#2 v=100
55800 On ch=1 n=c#3 v=100
55920 On ch=1 n=c#3 v=0
55920 On ch=1 n=c#5 v=125
55920 On ch=1 n=a#4 v=125
55920 On ch=1 n=f#4 v=125
55920 On ch=1 n=c#4 v=125
56160 On ch=1 n=c#4 v=0
56160 On ch=1 n=f#4 v=0
56160 On ch=1 n=a#4 v=0
56160 On ch=1 n=c#5 v=0
56640 On ch=1 n=f#2 v=0
56640 On ch=1 n=a2 v=100
56760 On ch=1 n=e3 v=100
56880 On ch=1 n=e3 v=0
56880 On ch=1 n=e5 v=125
56880 On ch=1 n=c#5 v=125
56880 On ch=1 n=a4 v=125
56880 On ch=1 n=e4 v=125
57120 On ch=1 n=e4 v=0
57120 On ch=1 n=a4 v=0
57120 On ch=1 n=c#5 v=0
57120 On ch=1 n=e5 v=0
57600 On ch=1 n=a2 v=0
57600 On ch=1 n=f#2 v=100
57720 On ch=1 n=c#3 v=100
57840 On ch=1 n=c#3 v=0
57840 On ch=1 n=c#4 v=125
57840 On ch=1 n=f#4 v=125
57840 On ch=1 n=a#4 v=125
57840 On ch=1 n=c#5 v=125
58080 On ch=1 n=c#5 v=0
58080 On ch=1 n=a#4 v=0
58080 On ch=1 n=f#4 v=0
58080 On ch=1 n=c#4 v=0
58080 On ch=1 n=f#2 v=40
58160 On ch=1 n=f#2 v=0
58160 On ch=1 n=c#3 v=40
58240 On ch=1 n=c#3 v=0
58240 On ch=1 n=f#2 v=40
58320 On ch=1 n=f#2 v=0
58320 On ch=1 n=c#3 v=40
58400 On ch=1 n=c#3 v=0
58400 On ch=1 n=f#2 v=40
58480 On ch=1 n=f#2 v=0
58480 On ch=1 n=c#3 v=40
58560 On ch=1 n=c#3 v=0
58560 On ch=1 n=f#2 v=40
58640 On ch=1 n=f#2 v=0
58640 On ch=1 n=c#3 v=40
58720 On ch=1 n=c#3 v=0
58720 On ch=1 n=f#2 v=40
58800 On ch=1 n=f#2 v=0
58800 On ch=1 n=c#3 v=40
58880 On ch=1 n=c#3 v=0
58880 On ch=1 n=f#2 v=40
58960 On ch=1 n=f#2 v=0
58960 On ch=1 n=c#3 v=40
59040 On ch=1 n=c#3 v=0
59040 On ch=1 n=f#2 v=40
59120 On ch=1 n=f#2 v=0
59120 On ch=1 n=c#3 v=40
59200 On ch=1 n=c#3 v=0
59200 On ch=1 n=f#2 v=40
59280 On ch=1 n=f#2 v=0
59280 On ch=1 n=c#3 v=40
59360 On ch=1 n=c#3 v=0
59360 On ch=1 n=f#2 v=40
59440 On ch=1 n=f#2 v=0
59440 On ch=1 n=c#3 v=40
59520 On ch=1 n=c#3 v=0
59520 On ch=1 n=f#2 v=0
59520 On ch=1 n=f#2 v=40
59600 On ch=1 n=f#2 v=0
59600 On ch=1 n=c#3 v=40
59680 On ch=1 n=c#3 v=0
59680 On ch=1 n=f#2 v=40
59760 On ch=1 n=f#2 v=0
59760 On ch=1 n=c#3 v=40
59840 On ch=1 n=c#3 v=0
59840 On ch=1 n=f#2 v=40
59920 On ch=1 n=f#2 v=0
59920 On ch=1 n=c#3 v=40
60000 On ch=1 n=c#3 v=0
60000 On ch=1 n=e4 v=50
60000 On ch=1 n=g4 v=50
60000 On ch=1 n=a2 v=40
60080 On ch=1 n=a2 v=0
60080 On ch=1 n=e3 v=40
60160 On ch=1 n=e3 v=0
60160 On ch=1 n=a2 v=40
60240 On ch=1 n=a2 v=0
60240 On ch=1 n=e3 v=40
60320 On ch=1 n=e3 v=0
60320 On ch=1 n=a2 v=40
60400 On ch=1 n=a2 v=0
60400 On ch=1 n=e3 v=40
60480 On ch=1 n=e3 v=0
60480 On ch=1 n=g4 v=0
60480 On ch=1 n=e4 v=0
60480 On ch=1 n=c#4 v=45
60480 On ch=1 n=f4 v=45
60480 On ch=1 n=g#4 v=45
60480 On ch=1 n=c#3 v=35
60560 On ch=1 n=c#3 v=0
60560 On ch=1 n=g#3 v=35
60640 On ch=1 n=g#3 v=0
60640 On ch=1 n=c#3 v=35
60720 On ch=1 n=c#3 v=0
60720 On ch=1 n=g#3 v=35
60800 On ch=1 n=g#3 v=0
60800 On ch=1 n=c#3 v=35
60880 On ch=1 n=c#3 v=0
60880 On ch=1 n=g#3 v=35
60960 On ch=1 n=g#3 v=0
60960 On ch=1 n=g#4 v=0
60960 On ch=1 n=f4 v=0
60960 On ch=1 n=c#4 v=0
60960 On ch=1 n=e4 v=40
60960 On ch=1 n=g4 v=40
60960 On ch=1 n=a2 v=30
61040 On ch=1 n=a2 v=0
61040 On ch=1 n=e3 v=30
61120 On ch=1 n=e3 v=0
61120 On ch=1 n=a2 v=30
61200 On ch=1 n=a2 v=0
61200 On ch=1 n=e3 v=30
61280 On ch=1 n=e3 v=0
61280 On ch=1 n=a2 v=30
61360 On ch=1 n=a2 v=0
61360 On ch=1 n=e3 v=30
61440 On ch=1 n=e3 v=0
61440 On ch=1 n=g4 v=0
61440 On ch=1 n=e4 v=0
61440 On ch=1 n=g2 v=100
61560 On ch=1 n=d3 v=100
61680 On ch=1 n=d3 v=0
61680 On ch=1 n=d4 v=125
61680 On ch=1 n=g4 v=125
61680 On ch=1 n=b4 v=125
61680 On ch=1 n=d5 v=125
61920 On ch=1 n=d5 v=0
61920 On ch=1 n=b4 v=0
61920 On ch=1 n=g4 v=0
61920 On ch=1 n=d4 v=0
62400 On ch=1 n=g2 v=0
62400 On ch=1 n=b2 v=100
62520 On ch=1 n=f#3 v=100
62640 On ch=1 n=f#3 v=0
62640 On ch=1 n=f#5 v=125
62640 On ch=1 n=d#5 v=125
62640 On ch=1 n=b4 v=125
62640 On ch=1 n=f#4 v=125
62880 On ch=1 n=f#4 v=0
62880 On ch=1 n=b4 v=0
62880 On ch=1 n=d#5 v=0
62880 On ch=1 n=f#5 v=0
63360 On ch=1 n=b2 v=0
63360 On ch=1 n=g#2 v=100
63480 On ch=1 n=d#3 v=100
63600 On ch=1 n=d#3 v=0
63600 On ch=1 n=d#4 v=125
63600 On ch=1 n=g#4 v=125
63600 On ch=1 n=c5 v=125
63600 On ch=1 n=d#5 v=125
63840 On ch=1 n=d#5 v=0
63840 On ch=1 n=c5 v=0
63840 On ch=1 n=g#4 v=0
63840 On ch=1 n=d#4 v=0
64320 On ch=1 n=g#2 v=0
85920 On ch=1 n=a#4 v=60
86820 On ch=1 n=d#4 v=60
86880 On ch=1 n=d#4 v=0
86880 On ch=1 n=c#4 v=60
87360 On ch=1 n=a#4 v=0
87360 On ch=1 n=a#4 v=60
87780 On ch=1 n=c#4 v=0
87780 On ch=1 n=d#4 v=60
87840 On ch=1 n=d#4 v=0
87840 On ch=1 n=c#4 v=60
88260 On ch=1 n=c#4 v=0
88260 On ch=1 n=d#4 v=60
88320 On ch=1 n=d#4 v=0
88320 On ch=1 n=a#4 v=0
88320 On ch=1 n=f#4 v=60
88320 On ch=1 n=a#4 v=60
88800 On ch=1 n=f#4 v=0
88800 On ch=1 n=d#4 v=60
89280 On ch=1 n=d#4 v=0
89280 On ch=1 n=a#4 v=0
89280 On ch=1 n=c#4 v=60
89280 On ch=1 n=a#4 v=60
89760 On ch=1 n=c#4 v=0
89760 On ch=1 n=a#3 v=60
90240 On ch=1 n=a#4 v=0
90720 On ch=1 n=a#3 v=0
90720 On ch=1 n=c#5 v=60
90720 On ch=1 n=c#4 v=60
90720 On ch=1 n=f#4 v=60
91200 On ch=1 n=f#4 v=0
91200 On ch=1 n=c#4 v=0
91200 On ch=1 n=c#5 v=0
91200 On ch=1 n=a#3 v=60
91680 On ch=1 n=a#3 v=0
91680 On ch=1 n=d#5 v=60
91680 On ch=1 n=d#4 v=60
91680 On ch=1 n=g#4 v=60
92160 On ch=1 n=g#4 v=0
92160 On ch=1 n=d#4 v=0
92160 On ch=1 n=d#5 v=0
92160 On ch=1 n=a#3 v=60
92640 On ch=1 n=a#3 v=0
92640 On ch=1 n=c#5 v=60
92640 On ch=1 n=c#4 v=60
92640 On ch=1 n=f#4 v=60
93120 On ch=1 n=f#4 v=0
93120 On ch=1 n=c#4 v=0
93120 On ch=1 n=c#5 v=0
93120 On ch=1 n=a#3 v=60
93600 On ch=1 n=a#3 v=0
93600 On ch=1 n=d#4 v=60
93600 On ch=1 n=d#5 v=60
93600 On ch=1 n=g#4 v=60
94080 On ch=1 n=g#4 v=0
94080 On ch=1 n=d#5 v=0
94080 On ch=1 n=d#4 v=0
94080 On ch=1 n=d#2 v=40
94080 On ch=1 n=a#2 v=40
96960 On ch=1 n=a#2 v=0
96960 On ch=1 n=d#2 v=0
96960 On ch=1 n=a#4 v=30
97020 On ch=1 n=a#4 v=0
97440 On ch=1 n=a#4 v=30
97500 On ch=1 n=a#4 v=0
97920 On ch=1 n=d#2 v=40
97920 On ch=1 n=a#2 v=40
100800 On ch=1 n=a#2 v=0
100800 On ch=1 n=d#2 v=0
100800 On ch=1 n=a#4 v=30
100860 On ch=1 n=a#4 v=0
101280 On ch=1 n=a#4 v=30
101340 On ch=1 n=a#4 v=0
101340 Meta TrkEnd
TrkEnd
MTrk
0 SeqSpec 43 00 01 00
0 Meta TrkName "Pedal"
0 Meta 0x21 00
0 Par ch=1 c=64 v=127
240 Par ch=1 c=64 v=0
480 Par ch=1 c=64 v=127
720 Par ch=1 c=64 v=0
960 Par ch=1 c=64 v=127
1200 Par ch=1 c=64 v=0
1440 Par ch=1 c=64 v=127
1680 Par ch=1 c=64 v=0
1920 Par ch=1 c=64 v=127
2160 Par ch=1 c=64 v=0
2400 Par ch=1 c=64 v=127
2640 Par ch=1 c=64 v=0
2880 Par ch=1 c=64 v=127
3120 Par ch=1 c=64 v=0
3360 Par ch=1 c=64 v=127
3600 Par ch=1 c=64 v=0
3840 Par ch=1 c=64 v=127
4080 Par ch=1 c=64 v=0
4320 Par ch=1 c=64 v=127
4560 Par ch=1 c=64 v=0
4800 Par ch=1 c=64 v=127
5040 Par ch=1 c=64 v=0
5280 Par ch=1 c=64 v=127
5520 Par ch=1 c=64 v=0
5760 Par ch=1 c=64 v=127
6000 Par ch=1 c=64 v=0
6240 Par ch=1 c=64 v=127
6480 Par ch=1 c=64 v=0
6720 Par ch=1 c=64 v=127
6960 Par ch=1 c=64 v=0
7200 Par ch=1 c=64 v=127
7440 Par ch=1 c=64 v=0
7680 Par ch=1 c=64 v=127
7920 Par ch=1 c=64 v=0
8160 Par ch=1 c=64 v=127
8400 Par ch=1 c=64 v=0
8640 Par ch=1 c=64 v=127
8880 Par ch=1 c=64 v=0
9120 Par ch=1 c=64 v=127
9360 Par ch=1 c=64 v=0
9600 Par ch=1 c=64 v=127
9840 Par ch=1 c=64 v=0
10080 Par ch=1 c=64 v=127
10320 Par ch=1 c=64 v=0
10560 Par ch=1 c=64 v=127
10800 Par ch=1 c=64 v=0
11040 Par ch=1 c=64 v=127
11280 Par ch=1 c=64 v=0
11520 Par ch=1 c=64 v=127
11760 Par ch=1 c=64 v=0
12000 Par ch=1 c=64 v=127
12240 Par ch=1 c=64 v=0
12480 Par ch=1 c=64 v=127
12720 Par ch=1 c=64 v=0
12960 Par ch=1 c=64 v=127
13200 Par ch=1 c=64 v=0
13440 Par ch=1 c=64 v=127
13680 Par ch=1 c=64 v=0
13920 Par ch=1 c=64 v=127
14160 Par ch=1 c=64 v=0
14400 Par ch=1 c=64 v=127
14640 Par ch=1 c=64 v=0
14880 Par ch=1 c=64 v=127
15120 Par ch=1 c=64 v=0
15360 Par ch=1 c=64 v=127
18240 Par ch=1 c=64 v=0
19200 Par ch=1 c=64 v=127
22080 Par ch=1 c=64 v=0
23040 Par ch=1 c=64 v=127
23280 Par ch=1 c=64 v=0
23520 Par ch=1 c=64 v=127
23760 Par ch=1 c=64 v=0
24000 Par ch=1 c=64 v=127
24240 Par ch=1 c=64 v=0
24480 Par ch=1 c=64 v=127
24720 Par ch=1 c=64 v=0
24960 Par ch=1 c=64 v=127
25200 Par ch=1 c=64 v=0
25440 Par ch=1 c=64 v=127
25680 Par ch=1 c=64 v=0
25920 Par ch=1 c=64 v=127
26160 Par ch=1 c=64 v=0
26400 Par ch=1 c=64 v=127
26640 Par ch=1 c=64 v=0
26880 Par ch=1 c=64 v=127
27120 Par ch=1 c=64 v=0
27360 Par ch=1 c=64 v=127
27600 Par ch=1 c=64 v=0
27840 Par ch=1 c=64 v=127
28080 Par ch=1 c=64 v=0
28320 Par ch=1 c=64 v=127
28560 Par ch=1 c=64 v=0
28800 Par ch=1 c=64 v=127
29040 Par ch=1 c=64 v=0
29280 Par ch=1 c=64 v=127
29520 Par ch=1 c=64 v=0
29760 Par ch=1 c=64 v=127
30000 Par ch=1 c=64 v=0
30240 Par ch=1 c=64 v=127
30480 Par ch=1 c=64 v=0
30720 Par ch=1 c=64 v=127
30960 Par ch=1 c=64 v=0
31200 Par ch=1 c=64 v=127
31440 Par ch=1 c=64 v=0
31680 Par ch=1 c=64 v=127
31920 Par ch=1 c=64 v=0
32160 Par ch=1 c=64 v=127
32400 Par ch=1 c=64 v=0
32640 Par ch=1 c=64 v=127
32880 Par ch=1 c=64 v=0
33120 Par ch=1 c=64 v=127
33360 Par ch=1 c=64 v=0
33600 Par ch=1 c=64 v=127
33840 Par ch=1 c=64 v=0
34080 Par ch=1 c=64 v=127
34320 Par ch=1 c=64 v=0
34560 Par ch=1 c=64 v=127
34800 Par ch=1 c=64 v=0
35040 Par ch=1 c=64 v=127
35280 Par ch=1 c=64 v=0
35520 Par ch=1 c=64 v=127
35760 Par ch=1 c=64 v=0
36000 Par ch=1 c=64 v=127
36240 Par ch=1 c=64 v=0
36480 Par ch=1 c=64 v=127
36720 Par ch=1 c=64 v=0
36960 Par ch=1 c=64 v=127
37200 Par ch=1 c=64 v=0
37440 Par ch=1 c=64 v=127
37680 Par ch=1 c=64 v=0
37920 Par ch=1 c=64 v=127
38160 Par ch=1 c=64 v=0
38400 Par ch=1 c=64 v=127
38760 Par ch=1 c=64 v=0
38880 Par ch=1 c=64 v=127
39240 Par ch=1 c=64 v=0
39360 Par ch=1 c=64 v=127
39720 Par ch=1 c=64 v=0
39840 Par ch=1 c=64 v=127
40200 Par ch=1 c=64 v=0
40320 Par ch=1 c=64 v=127
40680 Par ch=1 c=64 v=0
40800 Par ch=1 c=64 v=127
41160 Par ch=1 c=64 v=0
41280 Par ch=1 c=64 v=127
41640 Par ch=1 c=64 v=0
41760 Par ch=1 c=64 v=127
42120 Par ch=1 c=64 v=0
42240 Par ch=1 c=64 v=127
42600 Par ch=1 c=64 v=0
42720 Par ch=1 c=64 v=127
43080 Par ch=1 c=64 v=0
43200 Par ch=1 c=64 v=127
43560 Par ch=1 c=64 v=0
43680 Par ch=1 c=64 v=127
44040 Par ch=1 c=64 v=0
44160 Par ch=1 c=64 v=127
44520 Par ch=1 c=64 v=0
44640 Par ch=1 c=64 v=127
45000 Par ch=1 c=64 v=0
45120 Par ch=1 c=64 v=127
45480 Par ch=1 c=64 v=0
45600 Par ch=1 c=64 v=127
45960 Par ch=1 c=64 v=0
46080 Par ch=1 c=64 v=127
46440 Par ch=1 c=64 v=0
46560 Par ch=1 c=64 v=127
46920 Par ch=1 c=64 v=0
47040 Par ch=1 c=64 v=127
47400 Par ch=1 c=64 v=0
47520 Par ch=1 c=64 v=127
47880 Par ch=1 c=64 v=0
48000 Par ch=1 c=64 v=127
48360 Par ch=1 c=64 v=0
48480 Par ch=1 c=64 v=127
48840 Par ch=1 c=64 v=0
48960 Par ch=1 c=64 v=127
49320 Par ch=1 c=64 v=0
49440 Par ch=1 c=64 v=127
49800 Par ch=1 c=64 v=0
49920 Par ch=1 c=64 v=127
50280 Par ch=1 c=64 v=0
50400 Par ch=1 c=64 v=127
50760 Par ch=1 c=64 v=0
50880 Par ch=1 c=64 v=127
51240 Par ch=1 c=64 v=0
51360 Par ch=1 c=64 v=127
51720 Par ch=1 c=64 v=0
51840 Par ch=1 c=64 v=127
52200 Par ch=1 c=64 v=0
52320 Par ch=1 c=64 v=127
54120 Par ch=1 c=64 v=0
54240 Par ch=1 c=64 v=127
54600 Par ch=1 c=64 v=0
54720 Par ch=1 c=64 v=127
55080 Par ch=1 c=64 v=0
55200 Par ch=1 c=64 v=127
55560 Par ch=1 c=64 v=0
55680 Par ch=1 c=64 v=127
56520 Par ch=1 c=64 v=0
56640 Par ch=1 c=64 v=127
57480 Par ch=1 c=64 v=0
57600 Par ch=1 c=64 v=127
57960 Par ch=1 c=64 v=0
58080 Par ch=1 c=64 v=127
59880 Par ch=1 c=64 v=0
60000 Par ch=1 c=64 v=127
60360 Par ch=1 c=64 v=0
60480 Par ch=1 c=64 v=127
60840 Par ch=1 c=64 v=0
60960 Par ch=1 c=64 v=127
61320 Par ch=1 c=64 v=0
61440 Par ch=1 c=64 v=127
62280 Par ch=1 c=64 v=0
62400 Par ch=1 c=64 v=127
63240 Par ch=1 c=64 v=0
63360 Par ch=1 c=64 v=127
63720 Par ch=1 c=64 v=0
63840 Par ch=1 c=64 v=127
64080 Par ch=1 c=64 v=0
64320 Par ch=1 c=64 v=127
64560 Par ch=1 c=64 v=0
64800 Par ch=1 c=64 v=127
65040 Par ch=1 c=64 v=0
65280 Par ch=1 c=64 v=127
65520 Par ch=1 c=64 v=0
65760 Par ch=1 c=64 v=127
66000 Par ch=1 c=64 v=0
66240 Par ch=1 c=64 v=127
66480 Par ch=1 c=64 v=0
66720 Par ch=1 c=64 v=127
66960 Par ch=1 c=64 v=0
67200 Par ch=1 c=64 v=127
67440 Par ch=1 c=64 v=0
67680 Par ch=1 c=64 v=127
67920 Par ch=1 c=64 v=0
68160 Par ch=1 c=64 v=127
68400 Par ch=1 c=64 v=0
68640 Par ch=1 c=64 v=127
68880 Par ch=1 c=64 v=0
69120 Par ch=1 c=64 v=127
69360 Par ch=1 c=64 v=0
69600 Par ch=1 c=64 v=127
69840 Par ch=1 c=64 v=0
70080 Par ch=1 c=64 v=127
70320 Par ch=1 c=64 v=0
70560 Par ch=1 c=64 v=127
70800 Par ch=1 c=64 v=0
71040 Par ch=1 c=64 v=127
71280 Par ch=1 c=64 v=0
71520 Par ch=1 c=64 v=127
71760 Par ch=1 c=64 v=0
72000 Par ch=1 c=64 v=127
72240 Par ch=1 c=64 v=0
72480 Par ch=1 c=64 v=127
72720 Par ch=1 c=64 v=0
72960 Par ch=1 c=64 v=127
73200 Par ch=1 c=64 v=0
73440 Par ch=1 c=64 v=127
73680 Par ch=1 c=64 v=0
73920 Par ch=1 c=64 v=127
74160 Par ch=1 c=64 v=0
74400 Par ch=1 c=64 v=127
74640 Par ch=1 c=64 v=0
74880 Par ch=1 c=64 v=127
75120 Par ch=1 c=64 v=0
75360 Par ch=1 c=64 v=127
75600 Par ch=1 c=64 v=0
75840 Par ch=1 c=64 v=127
76080 Par ch=1 c=64 v=0
76320 Par ch=1 c=64 v=127
76560 Par ch=1 c=64 v=0
76800 Par ch=1 c=64 v=127
77040 Par ch=1 c=64 v=0
77280 Par ch=1 c=64 v=127
77520 Par ch=1 c=64 v=0
77760 Par ch=1 c=64 v=127
78000 Par ch=1 c=64 v=0
78240 Par ch=1 c=64 v=127
78480 Par ch=1 c=64 v=0
78720 Par ch=1 c=64 v=127
78960 Par ch=1 c=64 v=0
79200 Par ch=1 c=64 v=127
79440 Par ch=1 c=64 v=0
79680 Par ch=1 c=64 v=127
79920 Par ch=1 c=64 v=0
80160 Par ch=1 c=64 v=127
80400 Par ch=1 c=64 v=0
80640 Par ch=1 c=64 v=127
80880 Par ch=1 c=64 v=0
81120 Par ch=1 c=64 v=127
81360 Par ch=1 c=64 v=0
81600 Par ch=1 c=64 v=127
81840 Par ch=1 c=64 v=0
82080 Par ch=1 c=64 v=127
82320 Par ch=1 c=64 v=0
82560 Par ch=1 c=64 v=127
82800 Par ch=1 c=64 v=0
83040 Par ch=1 c=64 v=127
83280 Par ch=1 c=64 v=0
83520 Par ch=1 c=64 v=127
83760 Par ch=1 c=64 v=0
84000 Par ch=1 c=64 v=127
84240 Par ch=1 c=64 v=0
84480 Par ch=1 c=64 v=127
84720 Par ch=1 c=64 v=0
84960 Par ch=1 c=64 v=127
85200 Par ch=1 c=64 v=0
85440 Par ch=1 c=64 v=127
85680 Par ch=1 c=64 v=0
85920 Par ch=1 c=64 v=127
86160 Par ch=1 c=64 v=0
86400 Par ch=1 c=64 v=127
86640 Par ch=1 c=64 v=0
86880 Par ch=1 c=64 v=127
87120 Par ch=1 c=64 v=0
87360 Par ch=1 c=64 v=127
87600 Par ch=1 c=64 v=0
87840 Par ch=1 c=64 v=127
88080 Par ch=1 c=64 v=0
88320 Par ch=1 c=64 v=127
88680 Par ch=1 c=64 v=0
88800 Par ch=1 c=64 v=127
89160 Par ch=1 c=64 v=0
89280 Par ch=1 c=64 v=127
89640 Par ch=1 c=64 v=0
89760 Par ch=1 c=64 v=127
90120 Par ch=1 c=64 v=0
90240 Par ch=1 c=64 v=127
90600 Par ch=1 c=64 v=0
90720 Par ch=1 c=64 v=127
91080 Par ch=1 c=64 v=0
91200 Par ch=1 c=64 v=127
91560 Par ch=1 c=64 v=0
91680 Par ch=1 c=64 v=127
92040 Par ch=1 c=64 v=0
92160 Par ch=1 c=64 v=127
92520 Par ch=1 c=64 v=0
92640 Par ch=1 c=64 v=127
93000 Par ch=1 c=64 v=0
93120 Par ch=1 c=64 v=127
93480 Par ch=1 c=64 v=0
93600 Par ch=1 c=64 v=127
93960 Par ch=1 c=64 v=0
94080 Par ch=1 c=64 v=127
96840 Par ch=1 c=64 v=0
96960 Par ch=1 c=64 v=127
97200 Par ch=1 c=64 v=0
97440 Par ch=1 c=64 v=127
97680 Par ch=1 c=64 v=0
97920 Par ch=1 c=64 v=127
100680 Par ch=1 c=64 v=0
100800 Par ch=1 c=64 v=127
101040 Par ch=1 c=64 v=0
101280 Par ch=1 c=64 v=127
101520 Par ch=1 c=64 v=0
101760 Par ch=1 c=64 v=127
102000 Par ch=1 c=64 v=0
102240 Par ch=1 c=64 v=127
102480 Par ch=1 c=64 v=0
102720 Par ch=1 c=64 v=127
102960 Par ch=1 c=64 v=0
103200 Par ch=1 c=64 v=127
103440 Par ch=1 c=64 v=0
103680 Par ch=1 c=64 v=127
103920 Par ch=1 c=64 v=0
104160 Par ch=1 c=64 v=127
104400 Par ch=1 c=64 v=0
104640 Par ch=1 c=64 v=127
104880 Par ch=1 c=64 v=0
105120 Par ch=1 c=64 v=127
105360 Par ch=1 c=64 v=0
105600 Par ch=1 c=64 v=127
105840 Par ch=1 c=64 v=0
106080 Par ch=1 c=64 v=127
106320 Par ch=1 c=64 v=0
106560 Par ch=1 c=64 v=127
106800 Par ch=1 c=64 v=0
107040 Par ch=1 c=64 v=127
107280 Par ch=1 c=64 v=0
107520 Par ch=1 c=64 v=127
107760 Par ch=1 c=64 v=0
108000 Par ch=1 c=64 v=127
108240 Par ch=1 c=64 v=0
108480 Par ch=1 c=64 v=127
108720 Par ch=1 c=64 v=0
108960 Par ch=1 c=64 v=127
109200 Par ch=1 c=64 v=0
109440 Par ch=1 c=64 v=127
113280 Par ch=1 c=64 v=0
113280 Meta TrkEnd
TrkEnd
MTrk
0 SeqSpec 43 00 01 00
0 Meta TrkName "Debussy, Claude"
0 Meta 0x21 00
0 Meta TrkEnd
TrkEnd
MTrk
0 SeqSpec 43 00 01 00
0 Meta TrkName "Prelude Book 1 No. 03 le Vent dans la plaine"
0 Meta 0x21 00
0 Meta TrkEnd
TrkEnd
MTrk
0 SeqSpec 43 00 01 00
0 Meta TrkName "Jeruen E. Dery jawjaw@hotmail.com"
0 Meta 0x21 00
0 Meta TrkEnd
TrkEnd
