MFile 1 7 480
MTrk
0 TimeSig 4/2 48 8
0 KeySig 1 major
0 Tempo 272727
13440 Tempo 315789
14400 Tempo 375000
15360 Tempo 272727
28800 Tempo 315789
29760 Tempo 375000
30720 TimeSig 2/4 24 8
30720 Tempo 545455
55680 Tempo 625000
58080 Tempo 681818
59520 Tempo 545455
64320 TimeSig 3/4 24 8
65760 TimeSig 2/4 24 8
96480 TimeSig 3/4 24 8
97920 TimeSig 4/2 48 8
97920 Tempo 272727
124800 TimeSig 2/4 24 8
124800 Tempo 545455
124800 Meta TrkEnd
TrkEnd
MTrk
0 SeqSpec 43 00 01 00
0 Meta TrkName "Right Treble"
0 Meta 0x21 00
31080 On ch=1 n=b4 v=60
31080 On ch=1 n=a4 v=60
31200 On ch=1 n=a4 v=0
31200 On ch=1 n=b4 v=0
31200 On ch=1 n=d5 v=60
31200 On ch=1 n=e5 v=60
31320 On ch=1 n=e5 v=0
31320 On ch=1 n=d5 v=0
31320 On ch=1 n=b4 v=60
31320 On ch=1 n=a4 v=60
31440 On ch=1 n=a4 v=0
31440 On ch=1 n=b4 v=0
31560 On ch=1 n=b4 v=60
31560 On ch=1 n=a4 v=60
31680 On ch=1 n=a4 v=0
31680 On ch=1 n=b4 v=0
31680 On ch=1 n=d5 v=60
31680 On ch=1 n=e5 v=60
31800 On ch=1 n=e5 v=0
31800 On ch=1 n=d5 v=0
31800 On ch=1 n=b4 v=60
31800 On ch=1 n=a4 v=60
31920 On ch=1 n=a4 v=0
31920 On ch=1 n=b4 v=0
32040 On ch=1 n=b4 v=60
32040 On ch=1 n=a4 v=60
32160 On ch=1 n=a4 v=0
32160 On ch=1 n=b4 v=0
32160 On ch=1 n=e5 v=60
32160 On ch=1 n=d5 v=60
32400 On ch=1 n=d5 v=0
32400 On ch=1 n=e5 v=0
32400 On ch=1 n=b4 v=60
32400 On ch=1 n=g5 v=60
32400 On ch=1 n=e5 v=60
32400 On ch=1 n=d5 v=60
32760 On ch=1 n=d5 v=0
32760 On ch=1 n=e5 v=0
32760 On ch=1 n=g5 v=0
32760 On ch=1 n=b4 v=0
32760 On ch=1 n=e5 v=50
32880 On ch=1 n=e5 v=0
32880 On ch=1 n=d5 v=50
33000 On ch=1 n=d5 v=0
33000 On ch=1 n=e5 v=50
33120 On ch=1 n=e5 v=0
33120 On ch=1 n=g5 v=50
33240 On ch=1 n=g5 v=0
33240 On ch=1 n=e5 v=50
33360 On ch=1 n=e5 v=0
33360 On ch=1 n=d5 v=50
33480 On ch=1 n=d5 v=0
33480 On ch=1 n=b4 v=50
33600 On ch=1 n=b4 v=0
34800 On ch=1 n=g4 v=50
34800 On ch=1 n=a4 v=50
34920 On ch=1 n=f#5 v=50
34920 On ch=1 n=d5 v=50
35040 On ch=1 n=d5 v=0
35040 On ch=1 n=f#5 v=0
35040 On ch=1 n=c5 v=50
35040 On ch=1 n=e5 v=50
35100 On ch=1 n=e5 v=0
35100 On ch=1 n=c5 v=0
35280 On ch=1 n=a4 v=0
35280 On ch=1 n=g4 v=0
35280 On ch=1 n=g4 v=50
35280 On ch=1 n=a4 v=50
35280 On ch=1 n=g5 v=50
35280 On ch=1 n=e5 v=50
35640 On ch=1 n=e5 v=0
35640 On ch=1 n=g5 v=0
35640 On ch=1 n=d5 v=50
35640 On ch=1 n=f#5 v=50
35760 On ch=1 n=f#5 v=0
35760 On ch=1 n=d5 v=0
35760 On ch=1 n=c5 v=50
35760 On ch=1 n=e5 v=50
35880 On ch=1 n=e5 v=0
35880 On ch=1 n=c5 v=0
35880 On ch=1 n=b4 v=50
35880 On ch=1 n=d5 v=50
36000 On ch=1 n=d5 v=0
36000 On ch=1 n=b4 v=0
36000 On ch=1 n=a4 v=0
36000 On ch=1 n=g4 v=0
36000 On ch=1 n=c5 v=50
36000 On ch=1 n=e5 v=50
36060 On ch=1 n=e5 v=0
36060 On ch=1 n=c5 v=0
36240 On ch=1 n=g4 v=40
36240 On ch=1 n=a4 v=40
36240 On ch=1 n=d5 v=40
36240 On ch=1 n=f#5 v=40
36300 On ch=1 n=f#5 v=0
36300 On ch=1 n=d5 v=0
36300 On ch=1 n=a4 v=0
36300 On ch=1 n=g4 v=0
36480 On ch=1 n=g4 v=40
36480 On ch=1 n=a4 v=40
36480 On ch=1 n=c5 v=40
36480 On ch=1 n=e5 v=40
36540 On ch=1 n=e5 v=0
36540 On ch=1 n=c5 v=0
36540 On ch=1 n=a4 v=0
36540 On ch=1 n=g4 v=0
36720 On ch=1 n=g4 v=40
36720 On ch=1 n=a4 v=40
36720 On ch=1 n=d5 v=40
36720 On ch=1 n=f#5 v=40
36780 On ch=1 n=f#5 v=0
36780 On ch=1 n=d5 v=0
36780 On ch=1 n=a4 v=0
36780 On ch=1 n=g4 v=0
36960 On ch=1 n=g4 v=40
36960 On ch=1 n=a4 v=40
36960 On ch=1 n=c5 v=40
36960 On ch=1 n=e5 v=40
37020 On ch=1 n=e5 v=0
37020 On ch=1 n=c5 v=0
37020 On ch=1 n=a4 v=0
37020 On ch=1 n=g4 v=0
37200 On ch=1 n=g4 v=40
37200 On ch=1 n=a4 v=40
37200 On ch=1 n=d5 v=40
37200 On ch=1 n=f#5 v=40
37260 On ch=1 n=f#5 v=0
37260 On ch=1 n=d5 v=0
37260 On ch=1 n=a4 v=0
37260 On ch=1 n=g4 v=0
37440 On ch=1 n=g4 v=60
37440 On ch=1 n=a4 v=60
37440 On ch=1 n=c5 v=60
37440 On ch=1 n=e5 v=60
37500 On ch=1 n=e5 v=0
37500 On ch=1 n=c5 v=0
37500 On ch=1 n=a4 v=0
37500 On ch=1 n=g4 v=0
37680 On ch=1 n=d5 v=80
37740 On ch=1 n=d5 v=0
37800 On ch=1 n=e5 v=90
37860 On ch=1 n=e5 v=0
37920 On ch=1 n=f#5 v=100
38520 On ch=1 n=f#5 v=0
38520 On ch=1 n=f#5 v=100
38580 On ch=1 n=f#5 v=0
38640 On ch=1 n=f#5 v=100
38700 On ch=1 n=f#5 v=0
38760 On ch=1 n=g5 v=100
38820 On ch=1 n=g5 v=0
38880 On ch=1 n=f#5 v=100
38940 On ch=1 n=f#5 v=0
39000 On ch=1 n=f#5 v=100
39060 On ch=1 n=f#5 v=0
39120 On ch=1 n=f#5 v=100
39180 On ch=1 n=f#5 v=0
39240 On ch=1 n=a#5 v=100
39300 On ch=1 n=a#5 v=0
39360 On ch=1 n=f#5 v=100
39420 On ch=1 n=f#5 v=0
39600 On ch=1 n=g#4 v=100
39600 On ch=1 n=c#5 v=100
39600 On ch=1 n=f5 v=100
39600 On ch=1 n=g#5 v=100
39660 On ch=1 n=g#5 v=0
39660 On ch=1 n=f5 v=0
39660 On ch=1 n=c#5 v=0
39660 On ch=1 n=g#4 v=0
39840 On ch=1 n=a#4 v=110
39840 On ch=1 n=c#5 v=110
39840 On ch=1 n=f#5 v=110
39840 On ch=1 n=a#5 v=110
39900 On ch=1 n=a#5 v=0
39900 On ch=1 n=f#5 v=0
39900 On ch=1 n=c#5 v=0
39900 On ch=1 n=a#4 v=0
40080 On ch=1 n=c5 v=120
40080 On ch=1 n=d5 v=120
40080 On ch=1 n=f#5 v=120
40080 On ch=1 n=a5 v=120
40080 On ch=1 n=d6 v=120
40140 On ch=1 n=d6 v=0
40140 On ch=1 n=a5 v=0
40140 On ch=1 n=f#5 v=0
40140 On ch=1 n=d5 v=0
40140 On ch=1 n=c5 v=0
40680 On ch=1 n=b4 v=60
40680 On ch=1 n=a4 v=60
40740 On ch=1 n=a4 v=0
40740 On ch=1 n=b4 v=0
40800 On ch=1 n=d5 v=60
40800 On ch=1 n=e5 v=60
40860 On ch=1 n=e5 v=0
40860 On ch=1 n=d5 v=0
40920 On ch=1 n=b4 v=60
40920 On ch=1 n=a4 v=60
40980 On ch=1 n=a4 v=0
40980 On ch=1 n=b4 v=0
41160 On ch=1 n=a4 v=60
41160 On ch=1 n=b4 v=60
41220 On ch=1 n=b4 v=0
41220 On ch=1 n=a4 v=0
41280 On ch=1 n=d5 v=60
41280 On ch=1 n=e5 v=60
41340 On ch=1 n=e5 v=0
41340 On ch=1 n=d5 v=0
41400 On ch=1 n=b4 v=60
41400 On ch=1 n=a4 v=60
41460 On ch=1 n=a4 v=0
41460 On ch=1 n=b4 v=0
41640 On ch=1 n=a4 v=60
41640 On ch=1 n=b4 v=60
41700 On ch=1 n=b4 v=0
41700 On ch=1 n=a4 v=0
41760 On ch=1 n=d5 v=60
41760 On ch=1 n=e5 v=60
41820 On ch=1 n=e5 v=0
41820 On ch=1 n=d5 v=0
42000 On ch=1 n=b4 v=60
42000 On ch=1 n=d5 v=60
42000 On ch=1 n=e5 v=60
42000 On ch=1 n=g5 v=60
42360 On ch=1 n=g5 v=0
42360 On ch=1 n=e5 v=0
42360 On ch=1 n=d5 v=0
42360 On ch=1 n=b4 v=0
42360 On ch=1 n=e5 v=50
42420 On ch=1 n=e5 v=0
42480 On ch=1 n=d5 v=50
42540 On ch=1 n=d5 v=0
42600 On ch=1 n=e5 v=50
42660 On ch=1 n=e5 v=0
42720 On ch=1 n=g5 v=50
42780 On ch=1 n=g5 v=0
42840 On ch=1 n=e5 v=50
42900 On ch=1 n=e5 v=0
42960 On ch=1 n=d5 v=50
43020 On ch=1 n=d5 v=0
43080 On ch=1 n=b4 v=50
43140 On ch=1 n=b4 v=0
44400 On ch=1 n=a4 v=50
44400 On ch=1 n=g4 v=50
44520 On ch=1 n=d5 v=50
44520 On ch=1 n=f#5 v=50
44640 On ch=1 n=f#5 v=0
44640 On ch=1 n=d5 v=0
44640 On ch=1 n=c5 v=50
44640 On ch=1 n=e5 v=50
44700 On ch=1 n=e5 v=0
44700 On ch=1 n=c5 v=0
44880 On ch=1 n=g4 v=0
44880 On ch=1 n=a4 v=0
44880 On ch=1 n=g5 v=50
44880 On ch=1 n=e5 v=50
44880 On ch=1 n=a4 v=50
44880 On ch=1 n=g4 v=50
45240 On ch=1 n=e5 v=0
45240 On ch=1 n=g5 v=0
45240 On ch=1 n=d5 v=50
45240 On ch=1 n=f#5 v=50
45360 On ch=1 n=f#5 v=0
45360 On ch=1 n=d5 v=0
45360 On ch=1 n=c5 v=50
45360 On ch=1 n=e5 v=50
45480 On ch=1 n=e5 v=0
45480 On ch=1 n=c5 v=0
45480 On ch=1 n=b4 v=50
45480 On ch=1 n=d5 v=50
45600 On ch=1 n=d5 v=0
45600 On ch=1 n=b4 v=0
45600 On ch=1 n=g4 v=0
45600 On ch=1 n=a4 v=0
45600 On ch=1 n=c5 v=50
45600 On ch=1 n=e5 v=50
45660 On ch=1 n=e5 v=0
45660 On ch=1 n=c5 v=0
45840 On ch=1 n=g4 v=40
45840 On ch=1 n=a4 v=40
45840 On ch=1 n=d5 v=40
45840 On ch=1 n=f#5 v=40
45900 On ch=1 n=f#5 v=0
45900 On ch=1 n=d5 v=0
45900 On ch=1 n=a4 v=0
45900 On ch=1 n=g4 v=0
46080 On ch=1 n=g4 v=40
46080 On ch=1 n=a4 v=40
46080 On ch=1 n=c5 v=40
46080 On ch=1 n=e5 v=40
46140 On ch=1 n=e5 v=0
46140 On ch=1 n=c5 v=0
46140 On ch=1 n=a4 v=0
46140 On ch=1 n=g4 v=0
46320 On ch=1 n=g4 v=40
46320 On ch=1 n=a4 v=40
46320 On ch=1 n=d5 v=40
46320 On ch=1 n=f#5 v=40
46380 On ch=1 n=f#5 v=0
46380 On ch=1 n=d5 v=0
46380 On ch=1 n=a4 v=0
46380 On ch=1 n=g4 v=0
46560 On ch=1 n=g4 v=40
46560 On ch=1 n=a4 v=40
46560 On ch=1 n=c5 v=40
46560 On ch=1 n=e5 v=40
46620 On ch=1 n=e5 v=0
46620 On ch=1 n=c5 v=0
46620 On ch=1 n=a4 v=0
46620 On ch=1 n=g4 v=0
46800 On ch=1 n=g4 v=40
46800 On ch=1 n=a4 v=40
46800 On ch=1 n=d5 v=40
46800 On ch=1 n=f#5 v=40
46860 On ch=1 n=f#5 v=0
46860 On ch=1 n=d5 v=0
46860 On ch=1 n=a4 v=0
46860 On ch=1 n=g4 v=0
47040 On ch=1 n=g4 v=60
47040 On ch=1 n=a4 v=60
47040 On ch=1 n=c5 v=60
47040 On ch=1 n=e5 v=60
47100 On ch=1 n=e5 v=0
47100 On ch=1 n=c5 v=0
47100 On ch=1 n=a4 v=0
47100 On ch=1 n=g4 v=0
47280 On ch=1 n=f#5 v=80
47340 On ch=1 n=f#5 v=0
47400 On ch=1 n=g#5 v=90
47460 On ch=1 n=g#5 v=0
47520 On ch=1 n=a#5 v=100
48120 On ch=1 n=a#5 v=0
48120 On ch=1 n=g5 v=105
48240 On ch=1 n=g5 v=0
48240 On ch=1 n=d#5 v=110
48360 On ch=1 n=d#5 v=0
48360 On ch=1 n=f5 v=110
48480 On ch=1 n=f5 v=0
48480 On ch=1 n=g5 v=115
48600 On ch=1 n=g5 v=0
48600 On ch=1 n=a#5 v=115
48720 On ch=1 n=a#5 v=0
48720 On ch=1 n=c6 v=120
48840 On ch=1 n=c6 v=0
48840 On ch=1 n=d#6 v=120
48960 On ch=1 n=d#6 v=0
48960 On ch=1 n=d5 v=80
48960 On ch=1 n=g#5 v=80
48960 On ch=1 n=d6 v=80
49020 On ch=1 n=d6 v=0
49020 On ch=1 n=g#5 v=0
49020 On ch=1 n=d5 v=0
49080 On ch=1 n=d5 v=80
49080 On ch=1 n=g#5 v=80
49080 On ch=1 n=d6 v=80
49140 On ch=1 n=d6 v=0
49140 On ch=1 n=g#5 v=0
49140 On ch=1 n=d5 v=0
49200 On ch=1 n=d5 v=80
49200 On ch=1 n=d6 v=80
49200 On ch=1 n=g#5 v=80
49320 On ch=1 n=d6 v=0
49320 On ch=1 n=d5 v=0
49320 On ch=1 n=d#5 v=80
49320 On ch=1 n=d#6 v=80
49440 On ch=1 n=d#6 v=0
49440 On ch=1 n=d#5 v=0
49440 On ch=1 n=g#5 v=0
49440 On ch=1 n=c5 v=80
49440 On ch=1 n=g#5 v=80
49440 On ch=1 n=c6 v=80
49500 On ch=1 n=c6 v=0
49500 On ch=1 n=g#5 v=0
49500 On ch=1 n=c5 v=0
49560 On ch=1 n=c5 v=80
49560 On ch=1 n=g#5 v=80
49560 On ch=1 n=c6 v=80
49620 On ch=1 n=c6 v=0
49620 On ch=1 n=g#5 v=0
49620 On ch=1 n=c5 v=0
49680 On ch=1 n=c5 v=80
49680 On ch=1 n=c6 v=80
49680 On ch=1 n=g#5 v=80
49800 On ch=1 n=c6 v=0
49800 On ch=1 n=c5 v=0
49800 On ch=1 n=d5 v=80
49800 On ch=1 n=d6 v=80
49920 On ch=1 n=d6 v=0
49920 On ch=1 n=d5 v=0
49920 On ch=1 n=g#5 v=0
49920 On ch=1 n=a#4 v=80
49920 On ch=1 n=a#5 v=80
49920 On ch=1 n=g#5 v=80
49980 On ch=1 n=g#5 v=0
49980 On ch=1 n=a#5 v=0
49980 On ch=1 n=a#4 v=0
50040 On ch=1 n=a#4 v=80
50040 On ch=1 n=a#5 v=80
50040 On ch=1 n=g#5 v=80
50100 On ch=1 n=g#5 v=0
50100 On ch=1 n=a#5 v=0
50100 On ch=1 n=a#4 v=0
50160 On ch=1 n=a#4 v=80
50160 On ch=1 n=a#5 v=80
50160 On ch=1 n=g#5 v=80
50280 On ch=1 n=a#5 v=0
50280 On ch=1 n=a#4 v=0
50280 On ch=1 n=d6 v=80
50280 On ch=1 n=d5 v=80
50400 On ch=1 n=d5 v=0
50400 On ch=1 n=d6 v=0
50400 On ch=1 n=g#5 v=0
50400 On ch=1 n=c5 v=100
50400 On ch=1 n=c6 v=100
50400 On ch=1 n=g#5 v=100
50640 On ch=1 n=c6 v=0
50640 On ch=1 n=c5 v=0
50640 On ch=1 n=g6 v=120
50640 On ch=1 n=g5 v=120
50700 On ch=1 n=g5 v=0
50700 On ch=1 n=g6 v=0
50880 On ch=1 n=g#5 v=0
50880 On ch=1 n=d5 v=80
50880 On ch=1 n=g#5 v=80
50880 On ch=1 n=d6 v=80
50940 On ch=1 n=d6 v=0
50940 On ch=1 n=g#5 v=0
50940 On ch=1 n=d5 v=0
51000 On ch=1 n=d5 v=80
51000 On ch=1 n=g#5 v=80
51000 On ch=1 n=d6 v=80
51060 On ch=1 n=d6 v=0
51060 On ch=1 n=g#5 v=0
51060 On ch=1 n=d5 v=0
51120 On ch=1 n=d5 v=80
51120 On ch=1 n=d6 v=80
51120 On ch=1 n=g#5 v=80
51240 On ch=1 n=d6 v=0
51240 On ch=1 n=d5 v=0
51240 On ch=1 n=d#5 v=80
51240 On ch=1 n=d#6 v=80
51360 On ch=1 n=d#6 v=0
51360 On ch=1 n=d#5 v=0
51360 On ch=1 n=g#5 v=0
51360 On ch=1 n=c5 v=80
51360 On ch=1 n=g#5 v=80
51360 On ch=1 n=c6 v=80
51420 On ch=1 n=c6 v=0
51420 On ch=1 n=g#5 v=0
51420 On ch=1 n=c5 v=0
51480 On ch=1 n=c5 v=80
51480 On ch=1 n=g#5 v=80
51480 On ch=1 n=c6 v=80
51540 On ch=1 n=c6 v=0
51540 On ch=1 n=g#5 v=0
51540 On ch=1 n=c5 v=0
51600 On ch=1 n=c5 v=80
51600 On ch=1 n=c6 v=80
51600 On ch=1 n=g#5 v=80
51720 On ch=1 n=c6 v=0
51720 On ch=1 n=c5 v=0
51720 On ch=1 n=d5 v=80
51720 On ch=1 n=d6 v=80
51840 On ch=1 n=d6 v=0
51840 On ch=1 n=d5 v=0
51840 On ch=1 n=g#5 v=0
51840 On ch=1 n=a#4 v=80
51840 On ch=1 n=a#5 v=80
51840 On ch=1 n=g#5 v=80
51900 On ch=1 n=g#5 v=0
51900 On ch=1 n=a#5 v=0
51900 On ch=1 n=a#4 v=0
51960 On ch=1 n=a#4 v=80
51960 On ch=1 n=a#5 v=80
51960 On ch=1 n=g#5 v=80
52020 On ch=1 n=g#5 v=0
52020 On ch=1 n=a#5 v=0
52020 On ch=1 n=a#4 v=0
52080 On ch=1 n=a#4 v=80
52080 On ch=1 n=a#5 v=80
52080 On ch=1 n=g#5 v=80
52200 On ch=1 n=a#5 v=0
52200 On ch=1 n=a#4 v=0
52200 On ch=1 n=d6 v=80
52200 On ch=1 n=d5 v=80
52320 On ch=1 n=d5 v=0
52320 On ch=1 n=d6 v=0
52320 On ch=1 n=g#5 v=0
52320 On ch=1 n=c5 v=100
52320 On ch=1 n=c6 v=100
52320 On ch=1 n=g#5 v=100
52560 On ch=1 n=c6 v=0
52560 On ch=1 n=c5 v=0
52560 On ch=1 n=c7 v=120
52560 On ch=1 n=c6 v=120
52800 On ch=1 n=c6 v=0
52800 On ch=1 n=c7 v=0
52800 On ch=1 n=g#5 v=0
53040 On ch=1 n=d5 v=100
53160 On ch=1 n=d5 v=0
53160 On ch=1 n=e5 v=100
53280 On ch=1 n=e5 v=0
53280 On ch=1 n=g5 v=100
53400 On ch=1 n=g5 v=0
53400 On ch=1 n=e5 v=100
53460 On ch=1 n=e5 v=0
53520 On ch=1 n=d5 v=100
53580 On ch=1 n=d5 v=0
53640 On ch=1 n=b4 v=100
53700 On ch=1 n=b4 v=0
64860 On ch=1 n=c#5 v=100
64920 On ch=1 n=c#5 v=0
64920 On ch=1 n=c#6 v=100
64980 On ch=1 n=c#6 v=0
64980 On ch=1 n=c#6 v=100
65040 On ch=1 n=c#6 v=0
65040 On ch=1 n=c#7 v=100
65100 On ch=1 n=c#7 v=0
66120 On ch=1 n=d5 v=60
66180 On ch=1 n=d5 v=0
66360 On ch=1 n=d5 v=60
66420 On ch=1 n=d5 v=0
66600 On ch=1 n=d5 v=60
66660 On ch=1 n=d5 v=0
66840 On ch=1 n=d5 v=60
66900 On ch=1 n=d5 v=0
67080 On ch=1 n=d#5 v=80
67140 On ch=1 n=d#5 v=0
67200 On ch=1 n=f#5 v=80
67260 On ch=1 n=f#5 v=0
67320 On ch=1 n=d#5 v=80
67380 On ch=1 n=d#5 v=0
67440 On ch=1 n=c#5 v=100
67440 On ch=1 n=c#6 v=100
67440 On ch=1 n=g#5 v=100
67560 On ch=1 n=c#6 v=0
67560 On ch=1 n=c#5 v=0
67560 On ch=1 n=d#5 v=100
67560 On ch=1 n=d#6 v=100
67680 On ch=1 n=d#6 v=0
67680 On ch=1 n=d#5 v=0
67680 On ch=1 n=g#5 v=0
67680 On ch=1 n=c#5 v=100
67680 On ch=1 n=f#5 v=100
67680 On ch=1 n=c#6 v=100
67740 On ch=1 n=c#6 v=0
67740 On ch=1 n=f#5 v=0
67740 On ch=1 n=c#5 v=0
68040 On ch=1 n=d5 v=60
68100 On ch=1 n=d5 v=0
68280 On ch=1 n=d5 v=60
68340 On ch=1 n=d5 v=0
68520 On ch=1 n=d5 v=60
68580 On ch=1 n=d5 v=0
68760 On ch=1 n=d5 v=60
68820 On ch=1 n=d5 v=0
69000 On ch=1 n=d#5 v=60
69060 On ch=1 n=d#5 v=0
69120 On ch=1 n=f#5 v=60
69180 On ch=1 n=f#5 v=0
69240 On ch=1 n=d#5 v=60
69300 On ch=1 n=d#5 v=0
69360 On ch=1 n=c#5 v=100
69360 On ch=1 n=c#6 v=100
69360 On ch=1 n=g#5 v=100
69480 On ch=1 n=c#6 v=0
69480 On ch=1 n=c#5 v=0
69480 On ch=1 n=d#5 v=100
69480 On ch=1 n=d#6 v=100
69600 On ch=1 n=d#6 v=0
69600 On ch=1 n=d#5 v=0
69600 On ch=1 n=g#5 v=0
69600 On ch=1 n=c#5 v=100
69600 On ch=1 n=f#5 v=100
69600 On ch=1 n=c#6 v=100
69660 On ch=1 n=c#6 v=0
69660 On ch=1 n=f#5 v=0
69660 On ch=1 n=c#5 v=0
69840 On ch=1 n=d5 v=60
69960 On ch=1 n=d5 v=0
69960 On ch=1 n=e5 v=60
70080 On ch=1 n=e5 v=0
70080 On ch=1 n=g5 v=60
70140 On ch=1 n=g5 v=0
70200 On ch=1 n=e5 v=60
70260 On ch=1 n=e5 v=0
70320 On ch=1 n=d5 v=60
70380 On ch=1 n=d5 v=0
70440 On ch=1 n=b4 v=60
70500 On ch=1 n=b4 v=0
71760 On ch=1 n=c5 v=40
71760 On ch=1 n=d#5 v=40
71760 On ch=1 n=g#5 v=40
71820 On ch=1 n=g#5 v=0
71820 On ch=1 n=d#5 v=0
71820 On ch=1 n=c5 v=0
71880 On ch=1 n=g#4 v=40
71940 On ch=1 n=g#4 v=0
72000 On ch=1 n=g#4 v=40
72000 On ch=1 n=c5 v=40
72000 On ch=1 n=d#5 v=40
72000 On ch=1 n=g#5 v=40
72060 On ch=1 n=g#5 v=0
72060 On ch=1 n=d#5 v=0
72060 On ch=1 n=c5 v=0
72060 On ch=1 n=g#4 v=0
72240 On ch=1 n=a#4 v=40
72240 On ch=1 n=d5 v=40
72240 On ch=1 n=f5 v=40
72240 On ch=1 n=a#5 v=40
72300 On ch=1 n=a#5 v=0
72300 On ch=1 n=f5 v=0
72300 On ch=1 n=d5 v=0
72300 On ch=1 n=a#4 v=0
72480 On ch=1 n=d#5 v=40
72480 On ch=1 n=g5 v=40
72480 On ch=1 n=a#5 v=40
72480 On ch=1 n=d#6 v=40
72540 On ch=1 n=d#6 v=0
72540 On ch=1 n=a#5 v=0
72540 On ch=1 n=g5 v=0
72540 On ch=1 n=d#5 v=0
72720 On ch=1 n=c5 v=40
72720 On ch=1 n=d#5 v=40
72720 On ch=1 n=g5 v=40
72720 On ch=1 n=c6 v=40
72780 On ch=1 n=c6 v=0
72780 On ch=1 n=g5 v=0
72780 On ch=1 n=d#5 v=0
72780 On ch=1 n=c5 v=0
72960 On ch=1 n=g#4 v=40
72960 On ch=1 n=c5 v=40
72960 On ch=1 n=d#5 v=40
72960 On ch=1 n=g#5 v=40
73020 On ch=1 n=g#5 v=0
73020 On ch=1 n=d#5 v=0
73020 On ch=1 n=c5 v=0
73020 On ch=1 n=g#4 v=0
73200 On ch=1 n=a#4 v=40
73200 On ch=1 n=d5 v=40
73200 On ch=1 n=f5 v=40
73200 On ch=1 n=a#5 v=40
73260 On ch=1 n=a#5 v=0
73260 On ch=1 n=f5 v=0
73260 On ch=1 n=d5 v=0
73260 On ch=1 n=a#4 v=0
73680 On ch=1 n=d5 v=40
73800 On ch=1 n=d5 v=0
73800 On ch=1 n=e5 v=40
73920 On ch=1 n=e5 v=0
73920 On ch=1 n=g5 v=40
74040 On ch=1 n=g5 v=0
74040 On ch=1 n=e5 v=40
74100 On ch=1 n=e5 v=0
74160 On ch=1 n=d5 v=40
74220 On ch=1 n=d5 v=0
74280 On ch=1 n=b4 v=40
74340 On ch=1 n=b4 v=0
75600 On ch=1 n=c#5 v=40
75600 On ch=1 n=e5 v=40
75600 On ch=1 n=a5 v=40
75660 On ch=1 n=a5 v=0
75660 On ch=1 n=e5 v=0
75660 On ch=1 n=c#5 v=0
75720 On ch=1 n=a4 v=40
75780 On ch=1 n=a4 v=0
75840 On ch=1 n=a4 v=40
75840 On ch=1 n=c#5 v=40
75840 On ch=1 n=e5 v=40
75840 On ch=1 n=a5 v=40
75900 On ch=1 n=a5 v=0
75900 On ch=1 n=e5 v=0
75900 On ch=1 n=c#5 v=0
75900 On ch=1 n=a4 v=0
76080 On ch=1 n=b4 v=40
76080 On ch=1 n=d#5 v=40
76080 On ch=1 n=f#5 v=40
76080 On ch=1 n=b5 v=40
76140 On ch=1 n=b5 v=0
76140 On ch=1 n=f#5 v=0
76140 On ch=1 n=d#5 v=0
76140 On ch=1 n=b4 v=0
76320 On ch=1 n=e5 v=40
76320 On ch=1 n=g#5 v=40
76320 On ch=1 n=b5 v=40
76320 On ch=1 n=e6 v=40
76380 On ch=1 n=e6 v=0
76380 On ch=1 n=b5 v=0
76380 On ch=1 n=g#5 v=0
76380 On ch=1 n=e5 v=0
76560 On ch=1 n=c#5 v=40
76560 On ch=1 n=e5 v=40
76560 On ch=1 n=g#5 v=40
76560 On ch=1 n=c#6 v=40
76620 On ch=1 n=c#6 v=0
76620 On ch=1 n=g#5 v=0
76620 On ch=1 n=e5 v=0
76620 On ch=1 n=c#5 v=0
76800 On ch=1 n=a4 v=40
76800 On ch=1 n=c#5 v=40
76800 On ch=1 n=e5 v=40
76800 On ch=1 n=a5 v=40
76860 On ch=1 n=a5 v=0
76860 On ch=1 n=e5 v=0
76860 On ch=1 n=c#5 v=0
76860 On ch=1 n=a4 v=0
77040 On ch=1 n=b4 v=40
77040 On ch=1 n=d#5 v=40
77040 On ch=1 n=f#5 v=40
77040 On ch=1 n=b5 v=40
77100 On ch=1 n=b5 v=0
77100 On ch=1 n=f#5 v=0
77100 On ch=1 n=d#5 v=0
77100 On ch=1 n=b4 v=0
77280 On ch=1 n=g4 v=30
77280 On ch=1 n=b4 v=30
77280 On ch=1 n=d5 v=30
77280 On ch=1 n=g5 v=30
77340 On ch=1 n=g5 v=0
77340 On ch=1 n=d5 v=0
77340 On ch=1 n=b4 v=0
77340 On ch=1 n=g4 v=0
77520 On ch=1 n=g#4 v=30
77520 On ch=1 n=b4 v=30
77520 On ch=1 n=e5 v=30
77580 On ch=1 n=e5 v=0
77580 On ch=1 n=b4 v=0
77580 On ch=1 n=g#4 v=0
77760 On ch=1 n=c5 v=30
77820 On ch=1 n=c5 v=0
78000 On ch=1 n=d5 v=30
78060 On ch=1 n=d5 v=0
83520 On ch=1 n=d5 v=60
83760 On ch=1 n=d5 v=0
83760 On ch=1 n=d#5 v=60
83760 On ch=1 n=c#5 v=60
84000 On ch=1 n=c#5 v=0
84000 On ch=1 n=d#5 v=0
84000 On ch=1 n=c5 v=60
84000 On ch=1 n=e5 v=60
84240 On ch=1 n=e5 v=0
84240 On ch=1 n=c5 v=0
84240 On ch=1 n=e5 v=60
84240 On ch=1 n=f5 v=60
84480 On ch=1 n=f5 v=0
84480 On ch=1 n=e5 v=0
84480 On ch=1 n=d#5 v=60
84480 On ch=1 n=f#5 v=60
84720 On ch=1 n=f#5 v=0
84720 On ch=1 n=d#5 v=0
84720 On ch=1 n=d5 v=60
84720 On ch=1 n=g5 v=60
84960 On ch=1 n=g5 v=0
84960 On ch=1 n=d5 v=0
84960 On ch=1 n=b4 v=50
84960 On ch=1 n=c#5 v=50
84960 On ch=1 n=g5 v=50
84960 On ch=1 n=b5 v=50
85440 On ch=1 n=b5 v=0
85440 On ch=1 n=g5 v=0
85440 On ch=1 n=c#5 v=0
85440 On ch=1 n=b4 v=0
85440 On ch=1 n=a4 v=50
85440 On ch=1 n=c5 v=50
85440 On ch=1 n=d5 v=50
85440 On ch=1 n=f#5 v=50
85440 On ch=1 n=a5 v=50
85920 On ch=1 n=a5 v=0
85920 On ch=1 n=f#5 v=0
85920 On ch=1 n=d5 v=0
85920 On ch=1 n=c5 v=0
85920 On ch=1 n=a4 v=0
85920 On ch=1 n=a4 v=50
85920 On ch=1 n=b4 v=50
85920 On ch=1 n=d5 v=50
86160 On ch=1 n=a4 v=0
87360 On ch=1 n=d5 v=0
87360 On ch=1 n=b4 v=0
87360 On ch=1 n=a5 v=50
87420 On ch=1 n=a5 v=0
87600 On ch=1 n=d5 v=50
87660 On ch=1 n=d5 v=0
87840 On ch=1 n=e5 v=50
88080 On ch=1 n=f#4 v=50
88080 On ch=1 n=c5 v=50
88320 On ch=1 n=e5 v=0
88320 On ch=1 n=b5 v=50
88380 On ch=1 n=b5 v=0
88560 On ch=1 n=d5 v=50
88620 On ch=1 n=d5 v=0
88800 On ch=1 n=c5 v=0
88800 On ch=1 n=f#4 v=0
88800 On ch=1 n=e5 v=50
89040 On ch=1 n=f#4 v=50
89040 On ch=1 n=c5 v=50
89040 On ch=1 n=d5 v=50
89280 On ch=1 n=e5 v=0
89280 On ch=1 n=c6 v=50
89340 On ch=1 n=c6 v=0
89520 On ch=1 n=d5 v=50
89580 On ch=1 n=d5 v=0
89760 On ch=1 n=d5 v=0
89760 On ch=1 n=c5 v=0
89760 On ch=1 n=f#4 v=0
89760 On ch=1 n=e5 v=100
90000 On ch=1 n=g4 v=100
90000 On ch=1 n=b4 v=100
90000 On ch=1 n=d5 v=100
90240 On ch=1 n=e5 v=0
90240 On ch=1 n=e5 v=100
90240 On ch=1 n=e6 v=100
90720 On ch=1 n=d5 v=0
90720 On ch=1 n=b4 v=0
90720 On ch=1 n=g4 v=0
91200 On ch=1 n=e6 v=0
91200 On ch=1 n=e5 v=0
91200 On ch=1 n=d5 v=80
91440 On ch=1 n=d5 v=0
91440 On ch=1 n=d#5 v=80
91440 On ch=1 n=c#5 v=80
91680 On ch=1 n=c#5 v=0
91680 On ch=1 n=d#5 v=0
91680 On ch=1 n=c5 v=80
91680 On ch=1 n=e5 v=80
91920 On ch=1 n=e5 v=0
91920 On ch=1 n=c5 v=0
91920 On ch=1 n=e5 v=90
91920 On ch=1 n=f5 v=90
92160 On ch=1 n=f5 v=0
92160 On ch=1 n=e5 v=0
92160 On ch=1 n=d#5 v=90
92160 On ch=1 n=f#5 v=90
92400 On ch=1 n=f#5 v=0
92400 On ch=1 n=d#5 v=0
92400 On ch=1 n=d5 v=90
92400 On ch=1 n=g5 v=90
92640 On ch=1 n=g5 v=0
92640 On ch=1 n=d5 v=0
92640 On ch=1 n=f5 v=90
92640 On ch=1 n=g#5 v=90
92640 On ch=1 n=b5 v=90
93120 On ch=1 n=b5 v=0
93120 On ch=1 n=g#5 v=0
93120 On ch=1 n=f5 v=0
93120 On ch=1 n=f#5 v=90
93120 On ch=1 n=d5 v=90
93600 On ch=1 n=d5 v=0
93600 On ch=1 n=f#5 v=0
93600 On ch=1 n=a5 v=100
93600 On ch=1 n=f5 v=100
93840 On ch=1 n=d5 v=100
93960 On ch=1 n=d5 v=0
93960 On ch=1 n=e5 v=100
94080 On ch=1 n=e5 v=0
94080 On ch=1 n=g5 v=100
94200 On ch=1 n=g5 v=0
94200 On ch=1 n=e5 v=100
94320 On ch=1 n=e5 v=0
94320 On ch=1 n=d5 v=100
94440 On ch=1 n=d5 v=0
94440 On ch=1 n=b4 v=100
94560 On ch=1 n=b4 v=0
94560 On ch=1 n=f5 v=0
94560 On ch=1 n=a5 v=0
97020 On ch=1 n=d5 v=110
97080 On ch=1 n=d5 v=0
97080 On ch=1 n=d6 v=110
97140 On ch=1 n=d6 v=0
97140 On ch=1 n=d6 v=110
97200 On ch=1 n=d6 v=0
97200 On ch=1 n=d7 v=110
97260 On ch=1 n=d7 v=0
125160 On ch=1 n=a4 v=100
125160 On ch=1 n=b4 v=100
125280 On ch=1 n=b4 v=0
125280 On ch=1 n=a4 v=0
125280 On ch=1 n=d5 v=100
125280 On ch=1 n=e5 v=100
125400 On ch=1 n=e5 v=0
125400 On ch=1 n=d5 v=0
125400 On ch=1 n=a4 v=100
125400 On ch=1 n=b4 v=100
125520 On ch=1 n=b4 v=0
125520 On ch=1 n=a4 v=0
125640 On ch=1 n=a4 v=100
125640 On ch=1 n=b4 v=100
125760 On ch=1 n=b4 v=0
125760 On ch=1 n=a4 v=0
125760 On ch=1 n=d5 v=100
125760 On ch=1 n=e5 v=100
125880 On ch=1 n=e5 v=0
125880 On ch=1 n=d5 v=0
125880 On ch=1 n=a4 v=100
125880 On ch=1 n=b4 v=100
126000 On ch=1 n=b4 v=0
126000 On ch=1 n=a4 v=0
126120 On ch=1 n=a4 v=100
126120 On ch=1 n=b4 v=100
126240 On ch=1 n=b4 v=0
126240 On ch=1 n=a4 v=0
126240 On ch=1 n=d5 v=100
126240 On ch=1 n=e5 v=100
126420 On ch=1 n=c#5 v=100
126480 On ch=1 n=c#5 v=0
126480 On ch=1 n=e5 v=0
126480 On ch=1 n=d5 v=0
126480 On ch=1 n=b4 v=100
126480 On ch=1 n=d5 v=100
126480 On ch=1 n=e5 v=100
126480 On ch=1 n=g5 v=100
126840 On ch=1 n=g5 v=0
126840 On ch=1 n=e5 v=0
126840 On ch=1 n=d5 v=0
126840 On ch=1 n=b4 v=0
126840 On ch=1 n=e5 v=100
126900 On ch=1 n=e5 v=0
126960 On ch=1 n=d5 v=100
127020 On ch=1 n=d5 v=0
127080 On ch=1 n=e5 v=100
127140 On ch=1 n=e5 v=0
127200 On ch=1 n=g5 v=105
127260 On ch=1 n=g5 v=0
127320 On ch=1 n=e5 v=105
127380 On ch=1 n=e5 v=0
127440 On ch=1 n=d5 v=105
127500 On ch=1 n=d5 v=0
127560 On ch=1 n=b4 v=105
127620 On ch=1 n=b4 v=0
127620 Meta TrkEnd
TrkEnd
MTrk
0 SeqSpec 43 00 01 00
0 Meta TrkName "Right Bass"
0 Meta 0x21 00
780 On ch=1 n=b4 v=60
840 On ch=1 n=b4 v=0
840 On ch=1 n=a4 v=60
900 On ch=1 n=a4 v=0
900 On ch=1 n=g4 v=60
960 On ch=1 n=g4 v=0
960 On ch=1 n=d4 v=60
1200 On ch=1 n=d4 v=0
1440 On ch=1 n=e4 v=60
1680 On ch=1 n=e4 v=0
1740 On ch=1 n=d5 v=60
1800 On ch=1 n=d5 v=0
1800 On ch=1 n=c5 v=60
1860 On ch=1 n=c5 v=0
1860 On ch=1 n=a#4 v=60
1920 On ch=1 n=a#4 v=0
1920 On ch=1 n=f#4 v=60
2160 On ch=1 n=f#4 v=0
4620 On ch=1 n=b4 v=70
4680 On ch=1 n=b4 v=0
4680 On ch=1 n=a4 v=70
4740 On ch=1 n=a4 v=0
4740 On ch=1 n=g4 v=70
4800 On ch=1 n=g4 v=0
4800 On ch=1 n=d4 v=70
5040 On ch=1 n=d4 v=0
5280 On ch=1 n=e4 v=70
5520 On ch=1 n=e4 v=0
5580 On ch=1 n=d5 v=70
5640 On ch=1 n=d5 v=0
5640 On ch=1 n=c5 v=70
5700 On ch=1 n=c5 v=0
5700 On ch=1 n=a#4 v=70
5760 On ch=1 n=a#4 v=0
5760 On ch=1 n=f#4 v=70
6000 On ch=1 n=f#4 v=0
6240 On ch=1 n=f#4 v=70
6480 On ch=1 n=f#4 v=0
6720 On ch=1 n=f#4 v=70
6960 On ch=1 n=f#4 v=0
8460 On ch=1 n=b4 v=60
8520 On ch=1 n=b4 v=0
8520 On ch=1 n=a4 v=60
8580 On ch=1 n=a4 v=0
8580 On ch=1 n=g4 v=60
8640 On ch=1 n=g4 v=0
8640 On ch=1 n=d4 v=60
8880 On ch=1 n=d4 v=0
9120 On ch=1 n=e4 v=60
9360 On ch=1 n=e4 v=0
9420 On ch=1 n=d5 v=60
9480 On ch=1 n=d5 v=0
9480 On ch=1 n=c5 v=60
9540 On ch=1 n=c5 v=0
9540 On ch=1 n=a#4 v=60
9600 On ch=1 n=a#4 v=0
9600 On ch=1 n=f#4 v=60
9840 On ch=1 n=f#4 v=0
10080 On ch=1 n=f#4 v=60
10320 On ch=1 n=f#4 v=0
10560 On ch=1 n=f#4 v=50
10800 On ch=1 n=f#4 v=0
11040 On ch=1 n=e4 v=50
11280 On ch=1 n=e4 v=0
11340 On ch=1 n=b4 v=40
11400 On ch=1 n=b4 v=0
11400 On ch=1 n=a4 v=40
11460 On ch=1 n=a4 v=0
11460 On ch=1 n=g4 v=40
11520 On ch=1 n=g4 v=0
11520 On ch=1 n=d4 v=40
11760 On ch=1 n=d4 v=0
12000 On ch=1 n=d4 v=40
12240 On ch=1 n=d4 v=0
12480 On ch=1 n=d4 v=40
12720 On ch=1 n=d4 v=0
16140 On ch=1 n=b4 v=60
16200 On ch=1 n=b4 v=0
16200 On ch=1 n=a4 v=60
16260 On ch=1 n=a4 v=0
16260 On ch=1 n=g4 v=60
16320 On ch=1 n=g4 v=0
16320 On ch=1 n=d4 v=60
16560 On ch=1 n=d4 v=0
16800 On ch=1 n=e4 v=60
17040 On ch=1 n=e4 v=0
17100 On ch=1 n=d5 v=60
17160 On ch=1 n=d5 v=0
17160 On ch=1 n=c5 v=60
17220 On ch=1 n=c5 v=0
17220 On ch=1 n=a#4 v=60
17280 On ch=1 n=a#4 v=0
17280 On ch=1 n=f#4 v=60
17520 On ch=1 n=f#4 v=0
19980 On ch=1 n=b4 v=70
20040 On ch=1 n=b4 v=0
20040 On ch=1 n=a4 v=70
20100 On ch=1 n=a4 v=0
20100 On ch=1 n=g4 v=70
20160 On ch=1 n=g4 v=0
20160 On ch=1 n=d4 v=70
20400 On ch=1 n=d4 v=0
20640 On ch=1 n=e4 v=70
20880 On ch=1 n=e4 v=0
20940 On ch=1 n=d5 v=70
21000 On ch=1 n=d5 v=0
21000 On ch=1 n=c5 v=70
21060 On ch=1 n=c5 v=0
21060 On ch=1 n=a#4 v=70
21120 On ch=1 n=a#4 v=0
21120 On ch=1 n=f#4 v=70
21360 On ch=1 n=f#4 v=0
21600 On ch=1 n=f#4 v=70
21840 On ch=1 n=f#4 v=0
22080 On ch=1 n=f#4 v=70
22320 On ch=1 n=f#4 v=0
23820 On ch=1 n=b4 v=60
23880 On ch=1 n=b4 v=0
23880 On ch=1 n=a4 v=60
23940 On ch=1 n=a4 v=0
23940 On ch=1 n=g4 v=60
24000 On ch=1 n=g4 v=0
24000 On ch=1 n=d4 v=60
24240 On ch=1 n=d4 v=0
24480 On ch=1 n=e4 v=60
24720 On ch=1 n=e4 v=0
24780 On ch=1 n=d5 v=60
24840 On ch=1 n=d5 v=0
24840 On ch=1 n=c5 v=60
24900 On ch=1 n=c5 v=0
24900 On ch=1 n=a#4 v=60
24960 On ch=1 n=a#4 v=0
24960 On ch=1 n=f#4 v=50
25200 On ch=1 n=f#4 v=0
25440 On ch=1 n=f#4 v=50
25680 On ch=1 n=f#4 v=0
25920 On ch=1 n=f#4 v=50
26160 On ch=1 n=f#4 v=0
26400 On ch=1 n=e4 v=50
26640 On ch=1 n=e4 v=0
26700 On ch=1 n=b4 v=40
26760 On ch=1 n=b4 v=0
26760 On ch=1 n=a4 v=40
26820 On ch=1 n=a4 v=0
26820 On ch=1 n=g4 v=40
26880 On ch=1 n=g4 v=0
26880 On ch=1 n=d4 v=40
27120 On ch=1 n=d4 v=0
27360 On ch=1 n=d4 v=40
27600 On ch=1 n=d4 v=0
27840 On ch=1 n=d4 v=40
28080 On ch=1 n=d4 v=0
33600 On ch=1 n=g4 v=50
33720 On ch=1 n=g4 v=0
33720 On ch=1 n=e4 v=50
33840 On ch=1 n=e4 v=0
33840 On ch=1 n=d4 v=50
33960 On ch=1 n=d4 v=0
33960 On ch=1 n=e4 v=50
34080 On ch=1 n=e4 v=0
34080 On ch=1 n=g4 v=50
34320 On ch=1 n=g4 v=0
34320 On ch=1 n=c4 v=50
34320 On ch=1 n=e4 v=50
34560 On ch=1 n=e4 v=0
34560 On ch=1 n=c4 v=0
43200 On ch=1 n=g4 v=50
43320 On ch=1 n=g4 v=0
43320 On ch=1 n=e4 v=50
43440 On ch=1 n=e4 v=0
43440 On ch=1 n=d4 v=50
43560 On ch=1 n=d4 v=0
43560 On ch=1 n=e4 v=50
43680 On ch=1 n=e4 v=0
43680 On ch=1 n=g4 v=50
43740 On ch=1 n=g4 v=0
43920 On ch=1 n=c4 v=50
43920 On ch=1 n=e4 v=50
44280 On ch=1 n=e4 v=0
44280 On ch=1 n=c4 v=0
53760 On ch=1 n=g4 v=100
53820 On ch=1 n=g4 v=0
53880 On ch=1 n=e4 v=100
53940 On ch=1 n=e4 v=0
54000 On ch=1 n=d4 v=100
54060 On ch=1 n=d4 v=0
54120 On ch=1 n=e4 v=100
54180 On ch=1 n=e4 v=0
54240 On ch=1 n=g4 v=100
54300 On ch=1 n=g4 v=0
54480 On ch=1 n=c4 v=127
54480 On ch=1 n=e4 v=127
54540 On ch=1 n=e4 v=0
54540 On ch=1 n=c4 v=0
58080 On ch=1 n=d#5 v=60
58080 On ch=1 n=b4 v=60
58080 On ch=1 n=g4 v=60
58140 On ch=1 n=g4 v=0
58140 On ch=1 n=b4 v=0
58140 On ch=1 n=d#5 v=0
58320 On ch=1 n=d5 v=60
58320 On ch=1 n=a#4 v=60
58320 On ch=1 n=f#4 v=60
58800 On ch=1 n=f#4 v=0
58800 On ch=1 n=a#4 v=0
58800 On ch=1 n=d5 v=0
58800 On ch=1 n=c#5 v=60
58800 On ch=1 n=a4 v=60
58800 On ch=1 n=f4 v=60
58860 On ch=1 n=f4 v=0
58860 On ch=1 n=a4 v=0
58860 On ch=1 n=c#5 v=0
59040 On ch=1 n=c5 v=60
59040 On ch=1 n=g#4 v=60
59040 On ch=1 n=e4 v=60
59100 On ch=1 n=e4 v=0
59100 On ch=1 n=g#4 v=0
59100 On ch=1 n=c5 v=0
59280 On ch=1 n=d#5 v=60
59280 On ch=1 n=b4 v=60
59280 On ch=1 n=g4 v=60
59340 On ch=1 n=g4 v=0
59340 On ch=1 n=b4 v=0
59340 On ch=1 n=d#5 v=0
59520 On ch=1 n=a#4 v=60
59520 On ch=1 n=f#4 v=60
59520 On ch=1 n=d4 v=60
60840 On ch=1 n=g4 v=60
60900 On ch=1 n=g4 v=0
60900 On ch=1 n=f#4 v=60
60960 On ch=1 n=f#4 v=0
60960 On ch=1 n=d4 v=0
60960 On ch=1 n=f#4 v=0
60960 On ch=1 n=a#4 v=0
60960 On ch=1 n=f4 v=60
60960 On ch=1 n=a4 v=60
60960 On ch=1 n=c#5 v=60
61440 On ch=1 n=c#5 v=0
61440 On ch=1 n=a4 v=0
61440 On ch=1 n=f4 v=0
61440 On ch=1 n=d4 v=60
61440 On ch=1 n=f#4 v=60
61440 On ch=1 n=a#4 v=60
62760 On ch=1 n=g4 v=60
62820 On ch=1 n=g4 v=0
62820 On ch=1 n=f#4 v=60
62880 On ch=1 n=f#4 v=0
62880 On ch=1 n=a#4 v=0
62880 On ch=1 n=f#4 v=0
62880 On ch=1 n=d4 v=0
62880 On ch=1 n=c#5 v=60
62880 On ch=1 n=a4 v=60
62880 On ch=1 n=f4 v=60
63360 On ch=1 n=f4 v=0
63360 On ch=1 n=a4 v=0
63360 On ch=1 n=c#5 v=0
63360 On ch=1 n=c5 v=60
63360 On ch=1 n=g#4 v=60
63360 On ch=1 n=e4 v=60
63720 On ch=1 n=a4 v=60
63780 On ch=1 n=a4 v=0
63780 On ch=1 n=g4 v=60
63840 On ch=1 n=g4 v=0
63840 On ch=1 n=e4 v=0
63840 On ch=1 n=g#4 v=0
63840 On ch=1 n=c5 v=0
63840 On ch=1 n=d#5 v=60
63840 On ch=1 n=b4 v=60
63840 On ch=1 n=g4 v=60
64800 On ch=1 n=g4 v=0
64800 On ch=1 n=b4 v=0
64800 On ch=1 n=d#5 v=0
94560 On ch=1 n=g4 v=100
94680 On ch=1 n=g4 v=0
94680 On ch=1 n=e4 v=100
94800 On ch=1 n=e4 v=0
94800 On ch=1 n=d4 v=100
94920 On ch=1 n=d4 v=0
94920 On ch=1 n=e4 v=100
95040 On ch=1 n=e4 v=0
95040 On ch=1 n=g4 v=100
95100 On ch=1 n=g4 v=0
95280 On ch=1 n=e4 v=100
95280 On ch=1 n=a4 v=100
95280 On ch=1 n=g4 v=100
95340 On ch=1 n=g4 v=0
95340 On ch=1 n=a4 v=0
95340 On ch=1 n=e4 v=0
95400 On ch=1 n=a4 v=100
95460 On ch=1 n=a4 v=0
95460 On ch=1 n=g#4 v=100
95520 On ch=1 n=g#4 v=0
95520 On ch=1 n=b4 v=100
95520 On ch=1 n=g4 v=100
95520 On ch=1 n=c#4 v=100
95880 On ch=1 n=a#4 v=100
95940 On ch=1 n=a#4 v=0
95940 On ch=1 n=a4 v=100
96000 On ch=1 n=a4 v=0
96000 On ch=1 n=c#4 v=0
96000 On ch=1 n=g4 v=0
96000 On ch=1 n=b4 v=0
96000 On ch=1 n=e5 v=100
96000 On ch=1 n=c5 v=100
96000 On ch=1 n=g#4 v=100
96960 On ch=1 n=g#4 v=0
96960 On ch=1 n=c5 v=0
96960 On ch=1 n=e5 v=0
98700 On ch=1 n=b4 v=60
98760 On ch=1 n=b4 v=0
98760 On ch=1 n=a4 v=60
98820 On ch=1 n=a4 v=0
98820 On ch=1 n=g4 v=60
98880 On ch=1 n=g4 v=0
98880 On ch=1 n=d4 v=60
99120 On ch=1 n=d4 v=0
99360 On ch=1 n=e4 v=60
99600 On ch=1 n=e4 v=0
99660 On ch=1 n=d5 v=60
99720 On ch=1 n=d5 v=0
99720 On ch=1 n=c5 v=60
99780 On ch=1 n=c5 v=0
99780 On ch=1 n=a#4 v=60
99840 On ch=1 n=a#4 v=0
99840 On ch=1 n=f#4 v=60
100080 On ch=1 n=f#4 v=0
102540 On ch=1 n=b4 v=60
102600 On ch=1 n=b4 v=0
102600 On ch=1 n=a4 v=60
102660 On ch=1 n=a4 v=0
102660 On ch=1 n=g4 v=60
102720 On ch=1 n=g4 v=0
102720 On ch=1 n=d4 v=60
102960 On ch=1 n=d4 v=0
103200 On ch=1 n=e4 v=60
103440 On ch=1 n=e4 v=0
103500 On ch=1 n=d5 v=60
103560 On ch=1 n=d5 v=0
103560 On ch=1 n=c5 v=60
103620 On ch=1 n=c5 v=0
103620 On ch=1 n=a#4 v=60
103680 On ch=1 n=a#4 v=0
103680 On ch=1 n=f#4 v=60
103920 On ch=1 n=f#4 v=0
104160 On ch=1 n=f#4 v=60
104400 On ch=1 n=f#4 v=0
104640 On ch=1 n=f#4 v=60
104880 On ch=1 n=f#4 v=0
106380 On ch=1 n=b4 v=60
106440 On ch=1 n=b4 v=0
106440 On ch=1 n=a4 v=60
106500 On ch=1 n=a4 v=0
106500 On ch=1 n=g4 v=60
106560 On ch=1 n=g4 v=0
106560 On ch=1 n=d4 v=60
106800 On ch=1 n=d4 v=0
107040 On ch=1 n=e4 v=60
107280 On ch=1 n=e4 v=0
107340 On ch=1 n=d5 v=60
107400 On ch=1 n=d5 v=0
107400 On ch=1 n=c5 v=60
107460 On ch=1 n=c5 v=0
107460 On ch=1 n=a#4 v=60
107520 On ch=1 n=a#4 v=0
107520 On ch=1 n=f#4 v=60
107760 On ch=1 n=f#4 v=0
108000 On ch=1 n=f#4 v=60
108240 On ch=1 n=f#4 v=0
108480 On ch=1 n=f#4 v=60
108720 On ch=1 n=f#4 v=0
108960 On ch=1 n=e4 v=60
109200 On ch=1 n=e4 v=0
109260 On ch=1 n=b4 v=60
109320 On ch=1 n=b4 v=0
109320 On ch=1 n=a4 v=60
109380 On ch=1 n=a4 v=0
109380 On ch=1 n=g4 v=60
109440 On ch=1 n=g4 v=0
109440 On ch=1 n=d4 v=60
109680 On ch=1 n=d4 v=0
109920 On ch=1 n=d4 v=60
110160 On ch=1 n=d4 v=0
110400 On ch=1 n=d4 v=60
110640 On ch=1 n=d4 v=0
110880 On ch=1 n=b3 v=60
111120 On ch=1 n=b3 v=0
111360 On ch=1 n=a3 v=60
111600 On ch=1 n=a3 v=0
112320 On ch=1 n=d3 v=40
112480 On ch=1 n=d3 v=0
112640 On ch=1 n=d3 v=40
112800 On ch=1 n=d3 v=0
112960 On ch=1 n=d3 v=40
113120 On ch=1 n=d3 v=0
114240 On ch=1 n=d3 v=40
114400 On ch=1 n=d3 v=0
114560 On ch=1 n=d3 v=40
114720 On ch=1 n=d3 v=0
114880 On ch=1 n=d3 v=40
115040 On ch=1 n=d3 v=0
116160 On ch=1 n=d3 v=40
116400 On ch=1 n=d3 v=0
116640 On ch=1 n=d3 v=40
116880 On ch=1 n=d3 v=0
117600 On ch=1 n=d3 v=40
117840 On ch=1 n=d3 v=0
118560 On ch=1 n=d3 v=40
118800 On ch=1 n=d3 v=0
120000 On ch=1 n=d3 v=40
120160 On ch=1 n=d3 v=0
120320 On ch=1 n=d3 v=40
120480 On ch=1 n=d3 v=0
120640 On ch=1 n=d3 v=40
120800 On ch=1 n=d3 v=0
121920 On ch=1 n=d3 v=40
122080 On ch=1 n=d3 v=0
122240 On ch=1 n=d3 v=40
122400 On ch=1 n=d3 v=0
122560 On ch=1 n=d3 v=40
122720 On ch=1 n=d3 v=0
123840 On ch=1 n=d3 v=40
124080 On ch=1 n=d3 v=0
124320 On ch=1 n=d3 v=40
124560 On ch=1 n=d3 v=0
127680 On ch=1 n=g4 v=110
127740 On ch=1 n=g4 v=0
127800 On ch=1 n=e4 v=110
127860 On ch=1 n=e4 v=0
127920 On ch=1 n=d4 v=110
127980 On ch=1 n=d4 v=0
128040 On ch=1 n=e4 v=110
128100 On ch=1 n=e4 v=0
128160 On ch=1 n=g4 v=120
128220 On ch=1 n=g4 v=0
128400 On ch=1 n=c4 v=125
128400 On ch=1 n=e4 v=125
128460 On ch=1 n=e4 v=0
128460 On ch=1 n=c4 v=0
128640 On ch=1 n=g4 v=125
128640 On ch=1 n=d4 v=125
128640 On ch=1 n=b3 v=125
128700 On ch=1 n=b3 v=0
128700 On ch=1 n=d4 v=0
128700 On ch=1 n=g4 v=0
128700 Meta TrkEnd
TrkEnd
MTrk
0 SeqSpec 43 00 01 00
0 Meta TrkName "Left Bass"
0 Meta 0x21 00
0 On ch=1 n=g2 v=60
0 On ch=1 n=g3 v=60
240 On ch=1 n=g3 v=0
240 On ch=1 n=g2 v=0
2880 On ch=1 n=d3 v=60
2880 On ch=1 n=d4 v=60
3120 On ch=1 n=d4 v=0
3120 On ch=1 n=d3 v=0
3840 On ch=1 n=g2 v=70
3840 On ch=1 n=g3 v=70
4080 On ch=1 n=g3 v=0
4080 On ch=1 n=g2 v=0
6720 On ch=1 n=d3 v=70
6720 On ch=1 n=d4 v=70
6960 On ch=1 n=d4 v=0
6960 On ch=1 n=d3 v=0
7680 On ch=1 n=g2 v=60
7680 On ch=1 n=g3 v=60
7920 On ch=1 n=g3 v=0
7920 On ch=1 n=g2 v=0
10560 On ch=1 n=d3 v=50
10800 On ch=1 n=d3 v=0
12960 On ch=1 n=b2 v=40
12960 On ch=1 n=b3 v=40
13200 On ch=1 n=b3 v=0
13200 On ch=1 n=b2 v=0
13440 On ch=1 n=a2 v=50
13440 On ch=1 n=a3 v=50
13680 On ch=1 n=a3 v=0
13680 On ch=1 n=a2 v=0
14400 On ch=1 n=d2 v=50
14400 On ch=1 n=d3 v=50
14640 On ch=1 n=d3 v=0
14640 On ch=1 n=d2 v=0
15360 On ch=1 n=g2 v=60
15360 On ch=1 n=g3 v=60
15600 On ch=1 n=g3 v=0
15600 On ch=1 n=g2 v=0
18240 On ch=1 n=d3 v=60
18240 On ch=1 n=d4 v=60
18480 On ch=1 n=d4 v=0
18480 On ch=1 n=d3 v=0
19200 On ch=1 n=g2 v=70
19200 On ch=1 n=g3 v=70
19440 On ch=1 n=g3 v=0
19440 On ch=1 n=g2 v=0
22080 On ch=1 n=d3 v=70
22080 On ch=1 n=d4 v=70
22320 On ch=1 n=d4 v=0
22320 On ch=1 n=d3 v=0
23040 On ch=1 n=g2 v=60
23040 On ch=1 n=g3 v=60
23280 On ch=1 n=g3 v=0
23280 On ch=1 n=g2 v=0
25920 On ch=1 n=d3 v=50
26160 On ch=1 n=d3 v=0
28320 On ch=1 n=b2 v=40
28320 On ch=1 n=b3 v=40
28560 On ch=1 n=b3 v=0
28560 On ch=1 n=b2 v=0
28800 On ch=1 n=a2 v=40
28800 On ch=1 n=a3 v=40
29040 On ch=1 n=a3 v=0
29040 On ch=1 n=a2 v=0
29760 On ch=1 n=d2 v=40
29760 On ch=1 n=d3 v=40
30000 On ch=1 n=d3 v=0
30000 On ch=1 n=d2 v=0
30720 On ch=1 n=g2 v=60
30720 On ch=1 n=g3 v=60
30780 On ch=1 n=g3 v=0
30780 On ch=1 n=g2 v=0
30960 On ch=1 n=e4 v=60
30960 On ch=1 n=d4 v=60
31080 On ch=1 n=d4 v=0
31080 On ch=1 n=e4 v=0
31440 On ch=1 n=e4 v=60
31440 On ch=1 n=d4 v=60
31560 On ch=1 n=d4 v=0
31560 On ch=1 n=e4 v=0
31920 On ch=1 n=e4 v=60
31920 On ch=1 n=d4 v=60
32040 On ch=1 n=d4 v=0
32040 On ch=1 n=e4 v=0
32400 On ch=1 n=d2 v=60
32400 On ch=1 n=d3 v=60
32640 On ch=1 n=d3 v=0
32640 On ch=1 n=d2 v=0
32640 On ch=1 n=g2 v=50
32640 On ch=1 n=g3 v=50
32880 On ch=1 n=g3 v=0
32880 On ch=1 n=g2 v=0
34320 On ch=1 n=c3 v=50
34320 On ch=1 n=g3 v=50
34560 On ch=1 n=g3 v=0
34560 On ch=1 n=c3 v=0
34560 On ch=1 n=a2 v=50
34560 On ch=1 n=a3 v=50
34800 On ch=1 n=a3 v=0
34800 On ch=1 n=a2 v=0
35280 On ch=1 n=c3 v=50
35280 On ch=1 n=c4 v=50
35520 On ch=1 n=c4 v=0
35520 On ch=1 n=c3 v=0
35520 On ch=1 n=a2 v=50
35520 On ch=1 n=a3 v=50
35760 On ch=1 n=a3 v=0
35760 On ch=1 n=a2 v=0
36240 On ch=1 n=c3 v=40
36240 On ch=1 n=c4 v=40
36300 On ch=1 n=c4 v=0
36300 On ch=1 n=c3 v=0
36480 On ch=1 n=a2 v=40
36480 On ch=1 n=a3 v=40
36540 On ch=1 n=a3 v=0
36540 On ch=1 n=a2 v=0
36720 On ch=1 n=c3 v=40
36720 On ch=1 n=c4 v=40
36780 On ch=1 n=c4 v=0
36780 On ch=1 n=c3 v=0
36960 On ch=1 n=a2 v=40
36960 On ch=1 n=a3 v=40
37020 On ch=1 n=a3 v=0
37020 On ch=1 n=a2 v=0
37200 On ch=1 n=c3 v=40
37200 On ch=1 n=c4 v=40
37260 On ch=1 n=c4 v=0
37260 On ch=1 n=c3 v=0
37440 On ch=1 n=a2 v=60
37440 On ch=1 n=a3 v=60
37500 On ch=1 n=a3 v=0
37500 On ch=1 n=a2 v=0
38160 On ch=1 n=f5 v=100
38160 On ch=1 n=c#5 v=100
38220 On ch=1 n=c#5 v=0
38220 On ch=1 n=f5 v=0
38400 On ch=1 n=e5 v=100
38400 On ch=1 n=c5 v=100
38460 On ch=1 n=c5 v=0
38460 On ch=1 n=e5 v=0
39120 On ch=1 n=d5 v=100
39120 On ch=1 n=b4 v=100
39180 On ch=1 n=b4 v=0
39180 On ch=1 n=d5 v=0
39360 On ch=1 n=f#4 v=100
39360 On ch=1 n=c#5 v=100
39420 On ch=1 n=c#5 v=0
39420 On ch=1 n=f#4 v=0
39600 On ch=1 n=c#4 v=100
39660 On ch=1 n=c#4 v=0
39840 On ch=1 n=f#2 v=110
39840 On ch=1 n=f#3 v=110
39900 On ch=1 n=f#3 v=0
39900 On ch=1 n=f#2 v=0
40080 On ch=1 n=d2 v=120
40080 On ch=1 n=d3 v=120
40140 On ch=1 n=d3 v=0
40140 On ch=1 n=d2 v=0
40320 On ch=1 n=g2 v=60
40320 On ch=1 n=g3 v=60
40380 On ch=1 n=g3 v=0
40380 On ch=1 n=g2 v=0
40560 On ch=1 n=e4 v=60
40560 On ch=1 n=d4 v=60
40620 On ch=1 n=d4 v=0
40620 On ch=1 n=e4 v=0
41040 On ch=1 n=d4 v=60
41040 On ch=1 n=e4 v=60
41100 On ch=1 n=e4 v=0
41100 On ch=1 n=d4 v=0
41520 On ch=1 n=d4 v=60
41520 On ch=1 n=e4 v=60
41580 On ch=1 n=e4 v=0
41580 On ch=1 n=d4 v=0
42000 On ch=1 n=d2 v=60
42000 On ch=1 n=d3 v=60
42240 On ch=1 n=d3 v=0
42240 On ch=1 n=d2 v=0
42240 On ch=1 n=g2 v=50
42240 On ch=1 n=g3 v=50
42480 On ch=1 n=g3 v=0
42480 On ch=1 n=g2 v=0
43920 On ch=1 n=c3 v=50
43920 On ch=1 n=g3 v=50
44160 On ch=1 n=g3 v=0
44160 On ch=1 n=c3 v=0
44160 On ch=1 n=a2 v=50
44160 On ch=1 n=a3 v=50
44220 On ch=1 n=a3 v=0
44220 On ch=1 n=a2 v=0
44880 On ch=1 n=c3 v=50
44880 On ch=1 n=c4 v=50
45120 On ch=1 n=c4 v=0
45120 On ch=1 n=c3 v=0
45120 On ch=1 n=a2 v=50
45120 On ch=1 n=a3 v=50
45180 On ch=1 n=a3 v=0
45180 On ch=1 n=a2 v=0
45840 On ch=1 n=c3 v=40
45840 On ch=1 n=c4 v=40
45900 On ch=1 n=c4 v=0
45900 On ch=1 n=c3 v=0
46080 On ch=1 n=a2 v=40
46080 On ch=1 n=a3 v=40
46140 On ch=1 n=a3 v=0
46140 On ch=1 n=a2 v=0
46320 On ch=1 n=c3 v=40
46320 On ch=1 n=c4 v=40
46380 On ch=1 n=c4 v=0
46380 On ch=1 n=c3 v=0
46560 On ch=1 n=a2 v=40
46560 On ch=1 n=a3 v=40
46620 On ch=1 n=a3 v=0
46620 On ch=1 n=a2 v=0
46800 On ch=1 n=c3 v=40
46800 On ch=1 n=c4 v=40
46860 On ch=1 n=c4 v=0
46860 On ch=1 n=c3 v=0
47040 On ch=1 n=a2 v=60
47040 On ch=1 n=a3 v=60
47100 On ch=1 n=a3 v=0
47100 On ch=1 n=a2 v=0
47760 On ch=1 n=f5 v=100
47760 On ch=1 n=d5 v=100
47820 On ch=1 n=d5 v=0
47820 On ch=1 n=f5 v=0
48000 On ch=1 n=d#5 v=105
48000 On ch=1 n=c5 v=105
48060 On ch=1 n=c5 v=0
48060 On ch=1 n=d#5 v=0
48240 On ch=1 n=d5 v=110
48240 On ch=1 n=a#4 v=110
48300 On ch=1 n=a#4 v=0
48300 On ch=1 n=d5 v=0
48480 On ch=1 n=c5 v=115
48480 On ch=1 n=g#4 v=115
48540 On ch=1 n=g#4 v=0
48540 On ch=1 n=c5 v=0
48720 On ch=1 n=a#4 v=120
48720 On ch=1 n=g4 v=120
48780 On ch=1 n=g4 v=0
48780 On ch=1 n=a#4 v=0
48960 On ch=1 n=f3 v=80
48960 On ch=1 n=f4 v=80
49200 On ch=1 n=g#4 v=80
49260 On ch=1 n=g#4 v=0
49440 On ch=1 n=f4 v=0
49440 On ch=1 n=f3 v=0
49440 On ch=1 n=d#3 v=80
49440 On ch=1 n=d#4 v=80
49680 On ch=1 n=g#4 v=80
49740 On ch=1 n=g#4 v=0
49920 On ch=1 n=d#4 v=0
49920 On ch=1 n=d#3 v=0
49920 On ch=1 n=d3 v=80
49920 On ch=1 n=d4 v=80
50160 On ch=1 n=g#4 v=80
50220 On ch=1 n=g#4 v=0
50400 On ch=1 n=d4 v=0
50400 On ch=1 n=d3 v=0
50400 On ch=1 n=d#3 v=100
50400 On ch=1 n=d#4 v=100
50640 On ch=1 n=g#4 v=120
50700 On ch=1 n=g#4 v=0
50880 On ch=1 n=d#4 v=0
50880 On ch=1 n=d#3 v=0
50880 On ch=1 n=f3 v=80
50880 On ch=1 n=f4 v=80
51120 On ch=1 n=g#4 v=80
51180 On ch=1 n=g#4 v=0
51360 On ch=1 n=f4 v=0
51360 On ch=1 n=f3 v=0
51360 On ch=1 n=d#3 v=80
51360 On ch=1 n=d#4 v=80
51600 On ch=1 n=g#4 v=80
51660 On ch=1 n=g#4 v=0
51840 On ch=1 n=d#4 v=0
51840 On ch=1 n=d#3 v=0
51840 On ch=1 n=d3 v=80
51840 On ch=1 n=d4 v=80
52080 On ch=1 n=g#4 v=80
52140 On ch=1 n=g#4 v=0
52320 On ch=1 n=d4 v=0
52320 On ch=1 n=d3 v=0
52320 On ch=1 n=d#3 v=100
52320 On ch=1 n=d#4 v=100
52560 On ch=1 n=g#4 v=120
52620 On ch=1 n=g#4 v=0
52800 On ch=1 n=d#4 v=0
52800 On ch=1 n=d#3 v=0
54480 On ch=1 n=c3 v=127
54480 On ch=1 n=g3 v=127
54540 On ch=1 n=g3 v=0
54540 On ch=1 n=c3 v=0
54720 On ch=1 n=g3 v=60
54840 On ch=1 n=g3 v=0
54840 On ch=1 n=e3 v=60
54960 On ch=1 n=e3 v=0
54960 On ch=1 n=d3 v=50
55080 On ch=1 n=d3 v=0
55080 On ch=1 n=e3 v=50
55200 On ch=1 n=e3 v=0
55200 On ch=1 n=g3 v=40
55260 On ch=1 n=g3 v=0
55440 On ch=1 n=e2 v=40
55500 On ch=1 n=e2 v=0
55680 On ch=1 n=g2 v=40
55740 On ch=1 n=g2 v=0
55920 On ch=1 n=e2 v=40
55980 On ch=1 n=e2 v=0
56160 On ch=1 n=g2 v=40
56220 On ch=1 n=g2 v=0
56400 On ch=1 n=e2 v=40
56460 On ch=1 n=e2 v=0
56640 On ch=1 n=g2 v=40
56700 On ch=1 n=g2 v=0
56880 On ch=1 n=e2 v=40
56940 On ch=1 n=e2 v=0
57120 On ch=1 n=g2 v=40
57180 On ch=1 n=g2 v=0
57360 On ch=1 n=e2 v=40
57420 On ch=1 n=e2 v=0
57600 On ch=1 n=g2 v=40
57660 On ch=1 n=g2 v=0
57840 On ch=1 n=e2 v=40
57900 On ch=1 n=e2 v=0
58080 On ch=1 n=g2 v=40
58140 On ch=1 n=g2 v=0
58320 On ch=1 n=e2 v=40
58380 On ch=1 n=e2 v=0
58560 On ch=1 n=g2 v=40
58620 On ch=1 n=g2 v=0
58800 On ch=1 n=f2 v=40
58860 On ch=1 n=f2 v=0
59040 On ch=1 n=f#2 v=40
59100 On ch=1 n=f#2 v=0
59280 On ch=1 n=g2 v=40
59340 On ch=1 n=g2 v=0
59520 On ch=1 n=g#2 v=60
59580 On ch=1 n=g#2 v=0
59760 On ch=1 n=g#2 v=60
59880 On ch=1 n=g#2 v=0
59880 On ch=1 n=g#3 v=60
60000 On ch=1 n=g#3 v=0
60000 On ch=1 n=g#4 v=60
60120 On ch=1 n=g#4 v=0
60120 On ch=1 n=g#4 v=60
60240 On ch=1 n=g#4 v=0
60240 On ch=1 n=g#4 v=60
60360 On ch=1 n=g#4 v=0
60360 On ch=1 n=g#5 v=60
60480 On ch=1 n=g#5 v=0
60480 On ch=1 n=g#4 v=60
60720 On ch=1 n=g#4 v=0
60960 On ch=1 n=b2 v=60
60960 On ch=1 n=b3 v=60
61440 On ch=1 n=b3 v=0
61440 On ch=1 n=b2 v=0
61440 On ch=1 n=g#2 v=60
61440 On ch=1 n=g#3 v=60
61680 On ch=1 n=g#2 v=60
61800 On ch=1 n=g#2 v=0
61800 On ch=1 n=g#3 v=60
61920 On ch=1 n=g#3 v=0
61920 On ch=1 n=g#4 v=60
62040 On ch=1 n=g#4 v=0
62040 On ch=1 n=g#4 v=60
62160 On ch=1 n=g#4 v=0
62160 On ch=1 n=g#4 v=60
62280 On ch=1 n=g#4 v=0
62280 On ch=1 n=g#5 v=60
62400 On ch=1 n=g#5 v=0
62400 On ch=1 n=g#4 v=60
62460 On ch=1 n=g#4 v=0
62880 On ch=1 n=g#3 v=0
62880 On ch=1 n=g#2 v=0
62880 On ch=1 n=b2 v=60
62880 On ch=1 n=b3 v=60
63360 On ch=1 n=b3 v=0
63360 On ch=1 n=b2 v=0
63360 On ch=1 n=a#2 v=60
63360 On ch=1 n=a#3 v=60
63840 On ch=1 n=a#3 v=0
63840 On ch=1 n=a#2 v=0
63840 On ch=1 n=c#3 v=60
63840 On ch=1 n=c#4 v=60
64800 On ch=1 n=g#4 v=100
64800 On ch=1 n=c5 v=100
65040 On ch=1 n=g#4 v=0
65040 On ch=1 n=a4 v=100
65280 On ch=1 n=a4 v=0
65280 On ch=1 n=c5 v=0
65280 On ch=1 n=c#4 v=0
65280 On ch=1 n=c#3 v=0
66000 On ch=1 n=c#5 v=60
66000 On ch=1 n=a#4 v=60
66000 On ch=1 n=f#4 v=60
66060 On ch=1 n=c#5 v=0
66240 On ch=1 n=f#5 v=60
66300 On ch=1 n=f#5 v=0
66480 On ch=1 n=f#4 v=0
66480 On ch=1 n=a#4 v=0
66480 On ch=1 n=c#5 v=60
66480 On ch=1 n=b4 v=60
66480 On ch=1 n=g4 v=60
66540 On ch=1 n=c#5 v=0
66720 On ch=1 n=f#5 v=60
66780 On ch=1 n=f#5 v=0
66960 On ch=1 n=g4 v=0
66960 On ch=1 n=b4 v=0
66960 On ch=1 n=c5 v=80
66960 On ch=1 n=c5 v=80
66960 On ch=1 n=g#4 v=80
67080 On ch=1 n=c5 v=0
67200 On ch=1 n=g#4 v=0
67200 On ch=1 n=c5 v=0
67200 On ch=1 n=c#4 v=80
67440 On ch=1 n=c#4 v=0
67440 On ch=1 n=c#3 v=100
67680 On ch=1 n=c#3 v=0
67680 On ch=1 n=f#3 v=100
67680 On ch=1 n=c#4 v=100
67680 On ch=1 n=a#4 v=100
67740 On ch=1 n=a#4 v=0
67740 On ch=1 n=c#4 v=0
67740 On ch=1 n=f#3 v=0
67920 On ch=1 n=c#5 v=60
67920 On ch=1 n=f#4 v=60
67920 On ch=1 n=a#4 v=60
67980 On ch=1 n=c#5 v=0
68160 On ch=1 n=f#5 v=60
68220 On ch=1 n=f#5 v=0
68400 On ch=1 n=a#4 v=0
68400 On ch=1 n=f#4 v=0
68400 On ch=1 n=c#5 v=60
68400 On ch=1 n=b4 v=60
68400 On ch=1 n=g4 v=60
68460 On ch=1 n=c#5 v=0
68640 On ch=1 n=f#5 v=60
68700 On ch=1 n=f#5 v=0
68880 On ch=1 n=g4 v=0
68880 On ch=1 n=b4 v=0
68880 On ch=1 n=c5 v=60
68880 On ch=1 n=g#4 v=60
68880 On ch=1 n=c#5 v=60
68940 On ch=1 n=c#5 v=0
69120 On ch=1 n=g#4 v=0
69120 On ch=1 n=c5 v=0
69120 On ch=1 n=c#4 v=60
69360 On ch=1 n=c#4 v=0
69360 On ch=1 n=c#3 v=100
69600 On ch=1 n=c#3 v=0
69600 On ch=1 n=f#3 v=100
69600 On ch=1 n=c#4 v=100
69600 On ch=1 n=a#4 v=100
69660 On ch=1 n=a#4 v=0
69660 On ch=1 n=c#4 v=0
69660 On ch=1 n=f#3 v=0
70560 On ch=1 n=g4 v=60
70680 On ch=1 n=g4 v=0
70680 On ch=1 n=e4 v=60
70800 On ch=1 n=e4 v=0
70800 On ch=1 n=d4 v=60
70920 On ch=1 n=d4 v=0
70920 On ch=1 n=e4 v=60
71040 On ch=1 n=e4 v=0
71040 On ch=1 n=g4 v=60
71100 On ch=1 n=g4 v=0
71280 On ch=1 n=c3 v=60
71280 On ch=1 n=g3 v=60
71280 On ch=1 n=c4 v=60
71280 On ch=1 n=e4 v=60
71520 On ch=1 n=e4 v=0
71520 On ch=1 n=c4 v=0
71520 On ch=1 n=g3 v=0
71520 On ch=1 n=c3 v=0
71760 On ch=1 n=g#2 v=40
71760 On ch=1 n=d#3 v=40
71820 On ch=1 n=d#3 v=0
71820 On ch=1 n=g#2 v=0
71880 On ch=1 n=g#3 v=40
71940 On ch=1 n=g#3 v=0
72000 On ch=1 n=g#2 v=40
72000 On ch=1 n=d#3 v=40
72000 On ch=1 n=g#3 v=40
72060 On ch=1 n=g#3 v=0
72060 On ch=1 n=d#3 v=0
72060 On ch=1 n=g#2 v=0
72240 On ch=1 n=a#2 v=40
72240 On ch=1 n=f3 v=40
72240 On ch=1 n=a#3 v=40
72300 On ch=1 n=a#3 v=0
72300 On ch=1 n=f3 v=0
72300 On ch=1 n=a#2 v=0
72480 On ch=1 n=d#3 v=40
72480 On ch=1 n=a#3 v=40
72480 On ch=1 n=d#4 v=40
72540 On ch=1 n=d#4 v=0
72540 On ch=1 n=a#3 v=0
72540 On ch=1 n=d#3 v=0
72720 On ch=1 n=c3 v=40
72720 On ch=1 n=g3 v=40
72720 On ch=1 n=c4 v=40
72780 On ch=1 n=c4 v=0
72780 On ch=1 n=g3 v=0
72780 On ch=1 n=c3 v=0
72960 On ch=1 n=g#2 v=40
72960 On ch=1 n=d#3 v=40
72960 On ch=1 n=g#3 v=40
73020 On ch=1 n=g#3 v=0
73020 On ch=1 n=d#3 v=0
73020 On ch=1 n=g#2 v=0
73200 On ch=1 n=a#2 v=40
73200 On ch=1 n=f3 v=40
73200 On ch=1 n=a#3 v=40
73260 On ch=1 n=a#3 v=0
73260 On ch=1 n=f3 v=0
73260 On ch=1 n=a#2 v=0
74400 On ch=1 n=g4 v=40
74460 On ch=1 n=g4 v=0
74520 On ch=1 n=e4 v=40
74580 On ch=1 n=e4 v=0
74640 On ch=1 n=d4 v=40
74700 On ch=1 n=d4 v=0
74760 On ch=1 n=e4 v=40
74820 On ch=1 n=e4 v=0
74880 On ch=1 n=g4 v=40
74940 On ch=1 n=g4 v=0
75120 On ch=1 n=c3 v=40
75120 On ch=1 n=g3 v=40
75120 On ch=1 n=c4 v=40
75120 On ch=1 n=e4 v=40
75360 On ch=1 n=e4 v=0
75360 On ch=1 n=c4 v=0
75360 On ch=1 n=g3 v=0
75360 On ch=1 n=c3 v=0
75600 On ch=1 n=a2 v=40
75600 On ch=1 n=e3 v=40
75660 On ch=1 n=e3 v=0
75660 On ch=1 n=a2 v=0
75720 On ch=1 n=a3 v=40
75780 On ch=1 n=a3 v=0
75840 On ch=1 n=a2 v=40
75840 On ch=1 n=e3 v=40
75840 On ch=1 n=a3 v=40
75900 On ch=1 n=a3 v=0
75900 On ch=1 n=e3 v=0
75900 On ch=1 n=a2 v=0
76080 On ch=1 n=b2 v=40
76080 On ch=1 n=f#3 v=40
76080 On ch=1 n=b3 v=40
76140 On ch=1 n=b3 v=0
76140 On ch=1 n=f#3 v=0
76140 On ch=1 n=b2 v=0
76320 On ch=1 n=e3 v=40
76320 On ch=1 n=b3 v=40
76320 On ch=1 n=e4 v=40
76380 On ch=1 n=e4 v=0
76380 On ch=1 n=b3 v=0
76380 On ch=1 n=e3 v=0
76560 On ch=1 n=c#3 v=40
76560 On ch=1 n=g#3 v=40
76560 On ch=1 n=c#4 v=40
76620 On ch=1 n=c#4 v=0
76620 On ch=1 n=g#3 v=0
76620 On ch=1 n=c#3 v=0
76800 On ch=1 n=a2 v=40
76800 On ch=1 n=e3 v=40
76800 On ch=1 n=a3 v=40
76860 On ch=1 n=a3 v=0
76860 On ch=1 n=e3 v=0
76860 On ch=1 n=a2 v=0
77040 On ch=1 n=b2 v=40
77040 On ch=1 n=f#3 v=40
77040 On ch=1 n=b3 v=40
77100 On ch=1 n=b3 v=0
77100 On ch=1 n=f#3 v=0
77100 On ch=1 n=b2 v=0
77280 On ch=1 n=g2 v=30
77280 On ch=1 n=d3 v=30
77280 On ch=1 n=g3 v=30
77340 On ch=1 n=g3 v=0
77340 On ch=1 n=d3 v=0
77340 On ch=1 n=g2 v=0
77520 On ch=1 n=e2 v=30
77520 On ch=1 n=b2 v=30
77520 On ch=1 n=e3 v=30
77520 On ch=1 n=e4 v=30
77580 On ch=1 n=e4 v=0
77580 On ch=1 n=e3 v=0
77580 On ch=1 n=b2 v=0
77580 On ch=1 n=e2 v=0
77760 On ch=1 n=c2 v=30
77760 On ch=1 n=g2 v=30
77760 On ch=1 n=c3 v=30
77760 On ch=1 n=c4 v=30
77760 On ch=1 n=e4 v=30
77760 On ch=1 n=g4 v=30
77820 On ch=1 n=g4 v=0
77820 On ch=1 n=e4 v=0
77820 On ch=1 n=c4 v=0
77820 On ch=1 n=c3 v=0
77820 On ch=1 n=g2 v=0
77820 On ch=1 n=c2 v=0
78000 On ch=1 n=d2 v=30
78000 On ch=1 n=a2 v=30
78000 On ch=1 n=d3 v=30
78000 On ch=1 n=a4 v=30
78000 On ch=1 n=f#4 v=30
78000 On ch=1 n=d4 v=30
78060 On ch=1 n=d4 v=0
78060 On ch=1 n=f#4 v=0
78060 On ch=1 n=a4 v=0
78060 On ch=1 n=d3 v=0
78060 On ch=1 n=a2 v=0
78060 On ch=1 n=d2 v=0
78480 On ch=1 n=d4 v=100
78520 On ch=1 n=d4 v=0
78560 On ch=1 n=d4 v=100
78600 On ch=1 n=d4 v=0
78640 On ch=1 n=d4 v=100
78680 On ch=1 n=d4 v=0
78720 On ch=1 n=d4 v=100
78720 On ch=1 n=c#4 v=100
78780 On ch=1 n=c#4 v=0
78780 On ch=1 n=d4 v=0
78960 On ch=1 n=d4 v=100
79000 On ch=1 n=d4 v=0
79040 On ch=1 n=d4 v=100
79080 On ch=1 n=d4 v=0
79120 On ch=1 n=d4 v=100
79160 On ch=1 n=d4 v=0
79200 On ch=1 n=d4 v=100
79200 On ch=1 n=c#4 v=100
79440 On ch=1 n=c#4 v=0
79440 On ch=1 n=d4 v=0
79440 On ch=1 n=d4 v=100
79480 On ch=1 n=d4 v=0
79520 On ch=1 n=d4 v=100
79560 On ch=1 n=d4 v=0
79600 On ch=1 n=d4 v=100
79640 On ch=1 n=d4 v=0
79680 On ch=1 n=d4 v=100
79680 On ch=1 n=c#4 v=100
79800 On ch=1 n=c#4 v=0
79800 On ch=1 n=d4 v=0
79800 On ch=1 n=d4 v=100
79800 On ch=1 n=c#4 v=100
79860 On ch=1 n=c#4 v=0
79860 On ch=1 n=d4 v=0
79920 On ch=1 n=d4 v=100
79920 On ch=1 n=c#4 v=100
80040 On ch=1 n=c#4 v=0
80040 On ch=1 n=d4 v=0
80040 On ch=1 n=d4 v=100
80040 On ch=1 n=c#4 v=100
80100 On ch=1 n=c#4 v=0
80100 On ch=1 n=d4 v=0
80160 On ch=1 n=d4 v=100
80160 On ch=1 n=c#4 v=100
80400 On ch=1 n=c#4 v=0
80400 On ch=1 n=d4 v=0
80400 On ch=1 n=d4 v=100
80440 On ch=1 n=d4 v=0
80480 On ch=1 n=d4 v=100
80520 On ch=1 n=d4 v=0
80560 On ch=1 n=d4 v=100
80600 On ch=1 n=d4 v=0
80640 On ch=1 n=d4 v=100
80640 On ch=1 n=c#4 v=100
80880 On ch=1 n=c#4 v=0
80880 On ch=1 n=d4 v=0
80880 On ch=1 n=d4 v=100
80920 On ch=1 n=d4 v=0
80960 On ch=1 n=d4 v=100
81000 On ch=1 n=d4 v=0
81040 On ch=1 n=d4 v=100
81080 On ch=1 n=d4 v=0
81120 On ch=1 n=d4 v=100
81120 On ch=1 n=c#4 v=100
81360 On ch=1 n=c#4 v=0
81360 On ch=1 n=d4 v=0
81360 On ch=1 n=d4 v=100
81400 On ch=1 n=d4 v=0
81440 On ch=1 n=d4 v=100
81480 On ch=1 n=d4 v=0
81520 On ch=1 n=d4 v=100
81560 On ch=1 n=d4 v=0
81600 On ch=1 n=d4 v=100
81600 On ch=1 n=c#4 v=100
81720 On ch=1 n=c#4 v=0
81720 On ch=1 n=d4 v=0
81720 On ch=1 n=d4 v=100
81720 On ch=1 n=c#4 v=100
81780 On ch=1 n=c#4 v=0
81780 On ch=1 n=d4 v=0
81840 On ch=1 n=d4 v=100
81840 On ch=1 n=c#4 v=100
81960 On ch=1 n=c#4 v=0
81960 On ch=1 n=d4 v=0
81960 On ch=1 n=d4 v=100
81960 On ch=1 n=c#4 v=100
82020 On ch=1 n=c#4 v=0
82020 On ch=1 n=d4 v=0
82080 On ch=1 n=d4 v=90
82080 On ch=1 n=c#4 v=90
82320 On ch=1 n=c#4 v=0
82320 On ch=1 n=d4 v=0
82320 On ch=1 n=d4 v=90
82380 On ch=1 n=d4 v=0
82440 On ch=1 n=d4 v=90
82500 On ch=1 n=d4 v=0
82560 On ch=1 n=d4 v=80
82560 On ch=1 n=c#4 v=80
82800 On ch=1 n=c#4 v=0
82800 On ch=1 n=d4 v=0
82800 On ch=1 n=d4 v=80
82860 On ch=1 n=d4 v=0
82920 On ch=1 n=d4 v=80
82980 On ch=1 n=d4 v=0
83040 On ch=1 n=d4 v=70
83040 On ch=1 n=c#4 v=70
83280 On ch=1 n=c#4 v=0
83280 On ch=1 n=d4 v=0
83280 On ch=1 n=d4 v=70
83520 On ch=1 n=d4 v=0
83520 On ch=1 n=d4 v=60
83760 On ch=1 n=d4 v=0
83760 On ch=1 n=d#4 v=60
83760 On ch=1 n=c#4 v=60
84000 On ch=1 n=c#4 v=0
84000 On ch=1 n=d#4 v=0
84000 On ch=1 n=c4 v=60
84000 On ch=1 n=e4 v=60
84240 On ch=1 n=e4 v=0
84240 On ch=1 n=c4 v=0
84240 On ch=1 n=e4 v=60
84240 On ch=1 n=f4 v=60
84480 On ch=1 n=f4 v=0
84480 On ch=1 n=e4 v=0
84480 On ch=1 n=d#4 v=60
84480 On ch=1 n=f#4 v=60
84720 On ch=1 n=f#4 v=0
84720 On ch=1 n=d#4 v=0
84720 On ch=1 n=d4 v=60
84720 On ch=1 n=g4 v=60
84960 On ch=1 n=g4 v=0
84960 On ch=1 n=d4 v=0
84960 On ch=1 n=a2 v=50
84960 On ch=1 n=a3 v=50
85440 On ch=1 n=a3 v=0
85440 On ch=1 n=a2 v=0
85440 On ch=1 n=d3 v=50
85440 On ch=1 n=d4 v=50
85920 On ch=1 n=d4 v=0
85920 On ch=1 n=d3 v=0
85920 On ch=1 n=g2 v=50
85920 On ch=1 n=g3 v=50
85920 On ch=1 n=d4 v=50
86160 On ch=1 n=g4 v=50
86640 On ch=1 n=g4 v=0
86640 On ch=1 n=f#4 v=50
86880 On ch=1 n=f#4 v=0
86880 On ch=1 n=d4 v=0
86880 On ch=1 n=g3 v=0
86880 On ch=1 n=g2 v=0
86880 On ch=1 n=d4 v=50
86880 On ch=1 n=e4 v=50
86880 On ch=1 n=d2 v=50
86880 On ch=1 n=d3 v=50
87360 On ch=1 n=e4 v=0
87360 On ch=1 n=d4 v=0
87360 On ch=1 n=a4 v=50
87420 On ch=1 n=a4 v=0
87600 On ch=1 n=d4 v=50
87660 On ch=1 n=d4 v=0
87840 On ch=1 n=d3 v=0
87840 On ch=1 n=d2 v=0
87840 On ch=1 n=e4 v=50
87840 On ch=1 n=a2 v=50
87840 On ch=1 n=a3 v=50
88320 On ch=1 n=e4 v=0
88320 On ch=1 n=b4 v=50
88380 On ch=1 n=b4 v=0
88560 On ch=1 n=d4 v=50
88620 On ch=1 n=d4 v=0
88800 On ch=1 n=a3 v=0
88800 On ch=1 n=a2 v=0
88800 On ch=1 n=e4 v=50
88800 On ch=1 n=d2 v=50
88800 On ch=1 n=d3 v=50
89280 On ch=1 n=e4 v=0
89280 On ch=1 n=c5 v=50
89340 On ch=1 n=c5 v=0
89520 On ch=1 n=d4 v=50
89580 On ch=1 n=d4 v=0
89760 On ch=1 n=d3 v=0
89760 On ch=1 n=d2 v=0
89760 On ch=1 n=e4 v=100
89760 On ch=1 n=g2 v=100
89760 On ch=1 n=g3 v=100
90000 On ch=1 n=d4 v=100
90120 On ch=1 n=d4 v=0
90120 On ch=1 n=e4 v=100
90240 On ch=1 n=e4 v=0
90240 On ch=1 n=e4 v=0
90240 On ch=1 n=g4 v=100
90360 On ch=1 n=g4 v=0
90360 On ch=1 n=e4 v=100
90480 On ch=1 n=e4 v=0
90480 On ch=1 n=d4 v=100
90600 On ch=1 n=d4 v=0
90600 On ch=1 n=b3 v=100
90720 On ch=1 n=b3 v=0
90720 On ch=1 n=g3 v=0
90720 On ch=1 n=g2 v=0
90720 On ch=1 n=g3 v=100
90840 On ch=1 n=g3 v=0
90840 On ch=1 n=e3 v=100
90960 On ch=1 n=e3 v=0
90960 On ch=1 n=d3 v=100
91080 On ch=1 n=d3 v=0
91080 On ch=1 n=b2 v=100
91200 On ch=1 n=d4 v=80
91200 On ch=1 n=b3 v=80
91440 On ch=1 n=b3 v=0
91440 On ch=1 n=d4 v=0
91440 On ch=1 n=b2 v=0
91440 On ch=1 n=d#4 v=80
91440 On ch=1 n=a#3 v=80
91440 On ch=1 n=a#2 v=80
91680 On ch=1 n=a#2 v=0
91680 On ch=1 n=a#3 v=0
91680 On ch=1 n=d#4 v=0
91680 On ch=1 n=a2 v=80
91680 On ch=1 n=a3 v=80
91680 On ch=1 n=e4 v=80
91920 On ch=1 n=e4 v=0
91920 On ch=1 n=a3 v=0
91920 On ch=1 n=a2 v=0
91920 On ch=1 n=e3 v=90
91920 On ch=1 n=e4 v=90
91920 On ch=1 n=f4 v=90
92160 On ch=1 n=f4 v=0
92160 On ch=1 n=e4 v=0
92160 On ch=1 n=e3 v=0
92160 On ch=1 n=d#3 v=90
92160 On ch=1 n=d#4 v=90
92160 On ch=1 n=f#4 v=90
92400 On ch=1 n=f#4 v=0
92400 On ch=1 n=d#4 v=0
92400 On ch=1 n=d#3 v=0
92400 On ch=1 n=d3 v=90
92400 On ch=1 n=d4 v=90
92400 On ch=1 n=g4 v=90
92640 On ch=1 n=g4 v=0
92640 On ch=1 n=d4 v=0
92640 On ch=1 n=d3 v=0
92640 On ch=1 n=c#3 v=90
92640 On ch=1 n=c#4 v=90
92640 On ch=1 n=c#5 v=90
92640 On ch=1 n=b4 v=90
93120 On ch=1 n=b4 v=0
93120 On ch=1 n=c#5 v=0
93120 On ch=1 n=c#4 v=0
93120 On ch=1 n=c#3 v=0
93120 On ch=1 n=c5 v=90
93120 On ch=1 n=f#4 v=90
93120 On ch=1 n=d4 v=90
93120 On ch=1 n=d3 v=90
93600 On ch=1 n=d3 v=0
93600 On ch=1 n=d4 v=0
93600 On ch=1 n=f#4 v=0
93600 On ch=1 n=c5 v=0
93600 On ch=1 n=b4 v=100
93600 On ch=1 n=a4 v=100
93600 On ch=1 n=g2 v=100
93600 On ch=1 n=g3 v=100
94560 On ch=1 n=a4 v=0
94560 On ch=1 n=b4 v=0
95040 On ch=1 n=g3 v=0
95040 On ch=1 n=g2 v=0
95280 On ch=1 n=c3 v=100
95280 On ch=1 n=g3 v=100
95280 On ch=1 n=c4 v=100
95340 On ch=1 n=c4 v=0
95340 On ch=1 n=g3 v=0
95340 On ch=1 n=c3 v=0
95520 On ch=1 n=a2 v=100
95520 On ch=1 n=a3 v=100
96000 On ch=1 n=a3 v=0
96000 On ch=1 n=a2 v=0
96000 On ch=1 n=d3 v=100
96000 On ch=1 n=d4 v=100
96960 On ch=1 n=a4 v=100
96960 On ch=1 n=c#5 v=100
97200 On ch=1 n=a4 v=0
97200 On ch=1 n=a#4 v=110
97260 On ch=1 n=a#4 v=0
97440 On ch=1 n=c#5 v=0
97440 On ch=1 n=d4 v=0
97440 On ch=1 n=d3 v=0
97920 On ch=1 n=g2 v=60
97920 On ch=1 n=g3 v=60
98160 On ch=1 n=g3 v=0
98160 On ch=1 n=g2 v=0
100800 On ch=1 n=d3 v=60
100800 On ch=1 n=d4 v=60
101040 On ch=1 n=d4 v=0
101040 On ch=1 n=d3 v=0
101760 On ch=1 n=g2 v=60
101760 On ch=1 n=g3 v=60
102000 On ch=1 n=g3 v=0
102000 On ch=1 n=g2 v=0
104640 On ch=1 n=d3 v=60
104640 On ch=1 n=d4 v=60
104880 On ch=1 n=d4 v=0
104880 On ch=1 n=d3 v=0
105600 On ch=1 n=g2 v=60
105600 On ch=1 n=g3 v=60
105840 On ch=1 n=g3 v=0
105840 On ch=1 n=g2 v=0
108480 On ch=1 n=d3 v=60
108720 On ch=1 n=d3 v=0
113280 On ch=1 n=c#3 v=40
113280 On ch=1 n=d3 v=40
113520 On ch=1 n=d3 v=0
113520 On ch=1 n=c#3 v=0
115200 On ch=1 n=c#3 v=40
115200 On ch=1 n=d3 v=40
115440 On ch=1 n=d3 v=0
115440 On ch=1 n=c#3 v=0
117120 On ch=1 n=c#3 v=40
117120 On ch=1 n=d3 v=40
117360 On ch=1 n=d3 v=0
117360 On ch=1 n=c#3 v=0
118080 On ch=1 n=c#3 v=40
118080 On ch=1 n=d3 v=40
118320 On ch=1 n=d3 v=0
118320 On ch=1 n=c#3 v=0
119040 On ch=1 n=c#3 v=40
119040 On ch=1 n=d3 v=40
119280 On ch=1 n=d3 v=0
119280 On ch=1 n=c#3 v=0
120960 On ch=1 n=c#3 v=40
120960 On ch=1 n=d3 v=40
121200 On ch=1 n=d3 v=0
121200 On ch=1 n=c#3 v=0
122880 On ch=1 n=c#3 v=40
122880 On ch=1 n=d3 v=40
123120 On ch=1 n=d3 v=0
123120 On ch=1 n=c#3 v=0
124800 On ch=1 n=c#3 v=40
124800 On ch=1 n=d3 v=40
124860 On ch=1 n=d3 v=0
124860 On ch=1 n=c#3 v=0
125040 On ch=1 n=d4 v=100
125040 On ch=1 n=e4 v=100
125160 On ch=1 n=e4 v=0
125160 On ch=1 n=d4 v=0
125520 On ch=1 n=d4 v=100
125520 On ch=1 n=e4 v=100
125640 On ch=1 n=e4 v=0
125640 On ch=1 n=d4 v=0
126000 On ch=1 n=d4 v=100
126000 On ch=1 n=e4 v=100
126120 On ch=1 n=e4 v=0
126120 On ch=1 n=d4 v=0
128400 On ch=1 n=c3 v=125
128400 On ch=1 n=g3 v=125
128460 On ch=1 n=g3 v=0
128460 On ch=1 n=c3 v=0
128640 On ch=1 n=g2 v=125
128640 On ch=1 n=d3 v=125
128640 On ch=1 n=g3 v=125
128700 On ch=1 n=g3 v=0
128700 On ch=1 n=d3 v=0
128700 On ch=1 n=g2 v=0
128700 Meta TrkEnd
TrkEnd
MTrk
0 SeqSpec 43 00 01 00
0 Meta TrkName "Debussy, Claude"
0 Meta 0x21 00
0 Meta TrkEnd
TrkEnd
MTrk
0 SeqSpec 43 00 01 00
0 Meta TrkName "Prelude Book 1 No. 12 Minstrels"
0 Meta 0x21 00
0 Meta TrkEnd
TrkEnd
MTrk
0 SeqSpec 43 00 01 00
0 Meta TrkName "Jeruen E. Dery jawjaw@hotmail.com"
0 Meta 0x21 00
0 Meta TrkEnd
TrkEnd
