MFile 1 8 480
MTrk
0 TimeSig 3/4 24 8
0 KeySig -5 major
0 Tempo 285714
23040 Tempo 312500
24480 Tempo 375000
25920 Tempo 285714
54720 Tempo 300000
56160 Tempo 312500
57600 Tempo 285714
64800 KeySig 0 major
67680 Tempo 312500
69120 Tempo 340909
70560 KeySig -5 major
70560 Tempo 285714
108000 Tempo 1000000
108480 Tempo 652174
112320 Tempo 750000
113760 TimeSig 2/4 24 8
113760 KeySig 2 major
113760 Tempo 833333
118560 TimeSig 3/4 24 8
118560 KeySig -5 major
118560 Tempo 285714
120000 TimeSig 4/4 24 8
121920 TimeSig 2/4 24 8
121920 KeySig 2 major
121920 Tempo 833333
124800 TimeSig 3/4 24 8
124800 KeySig -5 major
124800 Tempo 285714
124800 Meta TrkEnd
TrkEnd
MTrk
0 SeqSpec 43 00 01 00
0 Meta TrkName "Right Treble"
0 Meta 0x21 00
44640 On ch=1 n=e5 v=60
47520 On ch=1 n=e5 v=0
47520 On ch=1 n=f5 v=60
48480 On ch=1 n=f5 v=0
48480 On ch=1 n=e5 v=60
51840 On ch=1 n=e5 v=0
52320 On ch=1 n=f5 v=60
52560 On ch=1 n=f5 v=0
52800 On ch=1 n=f5 v=60
53040 On ch=1 n=f5 v=0
53280 On ch=1 n=f5 v=60
56160 On ch=1 n=f5 v=0
56160 On ch=1 n=e5 v=60
57540 On ch=1 n=e5 v=40
57600 On ch=1 n=e5 v=0
57600 On ch=1 n=e5 v=0
57600 On ch=1 n=c5 v=40
58080 On ch=1 n=a4 v=20
58080 On ch=1 n=d#5 v=20
58560 On ch=1 n=d#5 v=0
58560 On ch=1 n=a4 v=0
60480 On ch=1 n=c5 v=0
65280 On ch=1 n=c7 v=100
65280 On ch=1 n=f6 v=100
65280 On ch=1 n=c6 v=100
65520 On ch=1 n=c6 v=0
65520 On ch=1 n=f6 v=0
65520 On ch=1 n=c7 v=0
67200 On ch=1 n=c7 v=127
67200 On ch=1 n=f6 v=127
67200 On ch=1 n=c6 v=127
69120 On ch=1 n=c6 v=0
69120 On ch=1 n=f6 v=0
69120 On ch=1 n=c7 v=0
76800 On ch=1 n=f#5 v=60
77280 On ch=1 n=f#5 v=0
77280 On ch=1 n=f5 v=60
77760 On ch=1 n=f5 v=0
77760 On ch=1 n=a#5 v=60
78720 On ch=1 n=a#5 v=0
78720 On ch=1 n=a5 v=60
79200 On ch=1 n=a5 v=0
79680 On ch=1 n=a5 v=60
80160 On ch=1 n=a5 v=0
80160 On ch=1 n=f#5 v=60
80640 On ch=1 n=f#5 v=0
80640 On ch=1 n=f5 v=60
81540 On ch=1 n=f#5 v=60
81600 On ch=1 n=f#5 v=0
81600 On ch=1 n=f5 v=0
81600 On ch=1 n=f5 v=60
84420 On ch=1 n=f#5 v=60
84480 On ch=1 n=f#5 v=0
84480 On ch=1 n=f5 v=0
84480 On ch=1 n=f5 v=60
86400 On ch=1 n=f5 v=0
89760 On ch=1 n=c6 v=60
90000 On ch=1 n=c6 v=0
90240 On ch=1 n=a5 v=60
90480 On ch=1 n=a5 v=0
90720 On ch=1 n=c6 v=60
91680 On ch=1 n=c6 v=0
91680 On ch=1 n=a#5 v=60
92160 On ch=1 n=a#5 v=0
92880 On ch=1 n=c6 v=70
93600 On ch=1 n=c6 v=0
93600 On ch=1 n=a5 v=70
94320 On ch=1 n=a5 v=0
94320 On ch=1 n=a#5 v=70
95040 On ch=1 n=a#5 v=0
95040 On ch=1 n=d#6 v=80
95520 On ch=1 n=d#6 v=0
95520 On ch=1 n=c6 v=80
96000 On ch=1 n=c6 v=0
96000 On ch=1 n=a#5 v=80
98400 On ch=1 n=a#5 v=0
98400 On ch=1 n=g#5 v=70
98880 On ch=1 n=g#5 v=0
98880 On ch=1 n=f#5 v=70
102240 On ch=1 n=f#5 v=0
102240 On ch=1 n=a#5 v=60
103680 On ch=1 n=a#5 v=0
108000 On ch=1 n=f6 v=80
108600 On ch=1 n=f6 v=0
108600 On ch=1 n=c#6 v=80
108720 On ch=1 n=c#6 v=0
108720 On ch=1 n=d#6 v=80
108840 On ch=1 n=d#6 v=0
108840 On ch=1 n=c6 v=80
108960 On ch=1 n=c6 v=0
108960 On ch=1 n=c#6 v=80
109056 On ch=1 n=c#6 v=0
109056 On ch=1 n=a#5 v=80
109152 On ch=1 n=a#5 v=0
109152 On ch=1 n=c6 v=80
109248 On ch=1 n=c6 v=0
109248 On ch=1 n=g#5 v=80
109344 On ch=1 n=g#5 v=0
109344 On ch=1 n=a#5 v=80
109440 On ch=1 n=a#5 v=0
109440 On ch=1 n=f#5 v=70
110040 On ch=1 n=f#5 v=0
110040 On ch=1 n=a5 v=70
110160 On ch=1 n=a5 v=0
110160 On ch=1 n=a#5 v=70
110280 On ch=1 n=a#5 v=0
110280 On ch=1 n=c6 v=70
110340 On ch=1 n=d#6 v=70
110400 On ch=1 n=d#6 v=0
110400 On ch=1 n=c6 v=0
110400 On ch=1 n=c#6 v=70
110520 On ch=1 n=c#6 v=0
110520 On ch=1 n=c6 v=70
110640 On ch=1 n=c6 v=0
110640 On ch=1 n=a#5 v=70
110760 On ch=1 n=a#5 v=0
110760 On ch=1 n=a5 v=70
110880 On ch=1 n=a5 v=0
110880 On ch=1 n=f#5 v=60
111780 On ch=1 n=c6 v=60
111840 On ch=1 n=c6 v=0
111840 On ch=1 n=f#5 v=0
111840 On ch=1 n=a#5 v=60
112080 On ch=1 n=a#5 v=0
112080 On ch=1 n=a5 v=60
112320 On ch=1 n=a5 v=0
112320 On ch=1 n=f#5 v=50
113220 On ch=1 n=c6 v=50
113280 On ch=1 n=c6 v=0
113280 On ch=1 n=f#5 v=0
113280 On ch=1 n=a#5 v=50
113520 On ch=1 n=a#5 v=0
113520 On ch=1 n=a5 v=50
113760 On ch=1 n=a5 v=0
113760 On ch=1 n=a5 v=40
113820 On ch=1 n=a5 v=0
113820 On ch=1 n=f#5 v=40
114240 On ch=1 n=f#5 v=0
126720 On ch=1 n=c#5 v=80
127200 On ch=1 n=c#5 v=0
127200 On ch=1 n=f#5 v=80
127680 On ch=1 n=f#5 v=0
128160 On ch=1 n=a4 v=80
128160 On ch=1 n=c5 v=80
128160 On ch=1 n=e5 v=80
128640 On ch=1 n=e5 v=0
128640 On ch=1 n=d#5 v=80
129120 On ch=1 n=d#5 v=0
129120 On ch=1 n=c5 v=0
129120 On ch=1 n=a4 v=0
129600 On ch=1 n=c#5 v=80
130080 On ch=1 n=c#5 v=0
130080 On ch=1 n=f#5 v=80
130560 On ch=1 n=f#5 v=0
136320 On ch=1 n=e5 v=60
139200 On ch=1 n=e5 v=0
139200 On ch=1 n=g#5 v=60
140640 On ch=1 n=g#5 v=0
140640 On ch=1 n=f5 v=60
146400 On ch=1 n=f5 v=0
147840 On ch=1 n=a#5 v=60
150720 On ch=1 n=a#5 v=0
150720 On ch=1 n=c#6 v=60
152160 On ch=1 n=c#6 v=0
152160 On ch=1 n=f6 v=60
156480 On ch=1 n=f6 v=0
156480 On ch=1 n=d#6 v=60
157200 On ch=1 n=d#6 v=0
157200 On ch=1 n=c#6 v=60
157920 On ch=1 n=c#6 v=0
158160 On ch=1 n=a#4 v=40
158160 On ch=1 n=c#5 v=40
158160 On ch=1 n=f5 v=40
158400 On ch=1 n=f5 v=0
158400 On ch=1 n=c#5 v=0
158400 On ch=1 n=a#4 v=0
158400 On ch=1 n=c6 v=60
158640 On ch=1 n=c6 v=0
158640 On ch=1 n=a#4 v=40
158640 On ch=1 n=c#5 v=40
158640 On ch=1 n=f5 v=40
158880 On ch=1 n=f5 v=0
158880 On ch=1 n=c#5 v=0
158880 On ch=1 n=a#4 v=0
158880 On ch=1 n=a5 v=60
159120 On ch=1 n=a5 v=0
159120 On ch=1 n=a#4 v=40
159120 On ch=1 n=c#5 v=40
159120 On ch=1 n=f5 v=40
159360 On ch=1 n=f5 v=0
159360 On ch=1 n=c#5 v=0
159360 On ch=1 n=a#4 v=0
159360 On ch=1 n=c6 v=60
159600 On ch=1 n=a#4 v=40
159600 On ch=1 n=c#5 v=40
159600 On ch=1 n=f5 v=40
159840 On ch=1 n=f5 v=0
159840 On ch=1 n=c#5 v=0
159840 On ch=1 n=a#4 v=0
160080 On ch=1 n=a#4 v=40
160080 On ch=1 n=c#5 v=40
160080 On ch=1 n=f5 v=40
160320 On ch=1 n=f5 v=0
160320 On ch=1 n=c#5 v=0
160320 On ch=1 n=a#4 v=0
160560 On ch=1 n=a#4 v=40
160560 On ch=1 n=c#5 v=40
160560 On ch=1 n=f5 v=40
160800 On ch=1 n=f5 v=0
160800 On ch=1 n=c#5 v=0
160800 On ch=1 n=a#4 v=0
161040 On ch=1 n=a#4 v=40
161040 On ch=1 n=c#5 v=40
161040 On ch=1 n=f5 v=40
161280 On ch=1 n=f5 v=0
161280 On ch=1 n=c#5 v=0
161280 On ch=1 n=a#4 v=0
161520 On ch=1 n=a#4 v=40
161520 On ch=1 n=c#5 v=40
161520 On ch=1 n=f5 v=40
161760 On ch=1 n=f5 v=0
161760 On ch=1 n=c#5 v=0
161760 On ch=1 n=a#4 v=0
162000 On ch=1 n=a#4 v=40
162000 On ch=1 n=c#5 v=40
162000 On ch=1 n=f5 v=40
162240 On ch=1 n=f5 v=0
162240 On ch=1 n=c#5 v=0
162240 On ch=1 n=a#4 v=0
162240 On ch=1 n=c6 v=0
162240 On ch=1 n=a#5 v=60
162480 On ch=1 n=a#4 v=40
162480 On ch=1 n=c#5 v=40
162480 On ch=1 n=f5 v=40
162720 On ch=1 n=f5 v=0
162720 On ch=1 n=c#5 v=0
162720 On ch=1 n=a#4 v=0
162960 On ch=1 n=a#4 v=40
162960 On ch=1 n=c#5 v=40
162960 On ch=1 n=f5 v=40
163200 On ch=1 n=f5 v=0
163200 On ch=1 n=c#5 v=0
163200 On ch=1 n=a#4 v=0
163440 On ch=1 n=a#4 v=40
163440 On ch=1 n=c#5 v=40
163440 On ch=1 n=f5 v=40
163680 On ch=1 n=f5 v=0
163680 On ch=1 n=c#5 v=0
163680 On ch=1 n=a#4 v=0
163680 On ch=1 n=a#5 v=0
163920 On ch=1 n=a#4 v=30
163920 On ch=1 n=c#5 v=30
163920 On ch=1 n=e5 v=30
164160 On ch=1 n=e5 v=0
164160 On ch=1 n=c#5 v=0
164160 On ch=1 n=a#4 v=0
164160 On ch=1 n=c6 v=50
164400 On ch=1 n=c6 v=0
164400 On ch=1 n=a#4 v=30
164400 On ch=1 n=c#5 v=30
164400 On ch=1 n=e5 v=30
164640 On ch=1 n=e5 v=0
164640 On ch=1 n=c#5 v=0
164640 On ch=1 n=a#4 v=0
164640 On ch=1 n=a5 v=50
164880 On ch=1 n=a5 v=0
164880 On ch=1 n=a#4 v=30
164880 On ch=1 n=c#5 v=30
164880 On ch=1 n=e5 v=30
165120 On ch=1 n=e5 v=0
165120 On ch=1 n=c#5 v=0
165120 On ch=1 n=a#4 v=0
165120 On ch=1 n=c6 v=50
165360 On ch=1 n=a#4 v=30
165360 On ch=1 n=c#5 v=30
165360 On ch=1 n=e5 v=30
165600 On ch=1 n=e5 v=0
165600 On ch=1 n=c#5 v=0
165600 On ch=1 n=a#4 v=0
165840 On ch=1 n=a#4 v=30
165840 On ch=1 n=c#5 v=30
165840 On ch=1 n=e5 v=30
166080 On ch=1 n=e5 v=0
166080 On ch=1 n=c#5 v=0
166080 On ch=1 n=a#4 v=0
166320 On ch=1 n=a#4 v=30
166320 On ch=1 n=c#5 v=30
166320 On ch=1 n=e5 v=30
166560 On ch=1 n=e5 v=0
166560 On ch=1 n=c#5 v=0
166560 On ch=1 n=a#4 v=0
166800 On ch=1 n=a#4 v=30
166800 On ch=1 n=c#5 v=30
166800 On ch=1 n=e5 v=30
167040 On ch=1 n=e5 v=0
167040 On ch=1 n=c#5 v=0
167040 On ch=1 n=a#4 v=0
167280 On ch=1 n=a#4 v=30
167280 On ch=1 n=c#5 v=30
167280 On ch=1 n=e5 v=30
167520 On ch=1 n=e5 v=0
167520 On ch=1 n=c#5 v=0
167520 On ch=1 n=a#4 v=0
167760 On ch=1 n=a#4 v=30
167760 On ch=1 n=c#5 v=30
167760 On ch=1 n=e5 v=30
168000 On ch=1 n=e5 v=0
168000 On ch=1 n=c#5 v=0
168000 On ch=1 n=a#4 v=0
168000 On ch=1 n=c6 v=0
168000 On ch=1 n=a#5 v=50
168240 On ch=1 n=a#4 v=30
168240 On ch=1 n=c#5 v=30
168240 On ch=1 n=e5 v=30
168480 On ch=1 n=e5 v=0
168480 On ch=1 n=c#5 v=0
168480 On ch=1 n=a#4 v=0
168720 On ch=1 n=a#4 v=30
168720 On ch=1 n=c#5 v=30
168720 On ch=1 n=e5 v=30
168960 On ch=1 n=e5 v=0
168960 On ch=1 n=c#5 v=0
168960 On ch=1 n=a#4 v=0
169200 On ch=1 n=a#4 v=30
169200 On ch=1 n=c#5 v=30
169200 On ch=1 n=e5 v=30
169440 On ch=1 n=e5 v=0
169440 On ch=1 n=c#5 v=0
169440 On ch=1 n=a#4 v=0
169680 On ch=1 n=a#4 v=30
169680 On ch=1 n=c5 v=30
169680 On ch=1 n=d#5 v=30
169920 On ch=1 n=d#5 v=0
169920 On ch=1 n=c5 v=0
169920 On ch=1 n=a#4 v=0
170160 On ch=1 n=a#5 v=0
170160 On ch=1 n=g#5 v=30
170160 On ch=1 n=a#4 v=30
170160 On ch=1 n=c5 v=30
170160 On ch=1 n=d#5 v=30
170400 On ch=1 n=d#5 v=0
170400 On ch=1 n=c5 v=0
170400 On ch=1 n=a#4 v=0
170640 On ch=1 n=a#4 v=30
170640 On ch=1 n=c5 v=30
170640 On ch=1 n=d#5 v=30
170880 On ch=1 n=d#5 v=0
170880 On ch=1 n=c5 v=0
170880 On ch=1 n=a#4 v=0
170880 On ch=1 n=g#5 v=0
170880 On ch=1 n=f#5 v=50
171120 On ch=1 n=a#4 v=30
171120 On ch=1 n=c5 v=30
171120 On ch=1 n=d#5 v=30
171360 On ch=1 n=d#5 v=0
171360 On ch=1 n=c5 v=0
171360 On ch=1 n=a#4 v=0
171600 On ch=1 n=a#4 v=30
171600 On ch=1 n=c5 v=30
171600 On ch=1 n=d#5 v=30
171840 On ch=1 n=d#5 v=0
171840 On ch=1 n=c5 v=0
171840 On ch=1 n=a#4 v=0
172080 On ch=1 n=a#4 v=30
172080 On ch=1 n=c5 v=30
172080 On ch=1 n=d#5 v=30
172320 On ch=1 n=d#5 v=0
172320 On ch=1 n=c5 v=0
172320 On ch=1 n=a#4 v=0
172560 On ch=1 n=a#4 v=30
172560 On ch=1 n=c5 v=30
172560 On ch=1 n=d#5 v=30
172800 On ch=1 n=d#5 v=0
172800 On ch=1 n=c5 v=0
172800 On ch=1 n=a#4 v=0
173040 On ch=1 n=a#4 v=30
173040 On ch=1 n=c5 v=30
173040 On ch=1 n=d#5 v=30
173280 On ch=1 n=d#5 v=0
173280 On ch=1 n=c5 v=0
173280 On ch=1 n=a#4 v=0
173520 On ch=1 n=a#4 v=30
173520 On ch=1 n=c5 v=30
173520 On ch=1 n=d#5 v=30
173760 On ch=1 n=d#5 v=0
173760 On ch=1 n=c5 v=0
173760 On ch=1 n=a#4 v=0
173760 On ch=1 n=f#5 v=0
173760 On ch=1 n=a#5 v=50
174000 On ch=1 n=a#4 v=30
174000 On ch=1 n=c5 v=30
174000 On ch=1 n=d#5 v=30
174240 On ch=1 n=d#5 v=0
174240 On ch=1 n=c5 v=0
174240 On ch=1 n=a#4 v=0
174480 On ch=1 n=a#4 v=30
174480 On ch=1 n=c5 v=30
174480 On ch=1 n=d#5 v=30
174720 On ch=1 n=d#5 v=0
174720 On ch=1 n=c5 v=0
174720 On ch=1 n=a#4 v=0
174960 On ch=1 n=a#4 v=30
174960 On ch=1 n=c5 v=30
174960 On ch=1 n=d#5 v=30
175200 On ch=1 n=d#5 v=0
175200 On ch=1 n=c5 v=0
175200 On ch=1 n=a#4 v=0
175200 On ch=1 n=a#5 v=0
175200 Meta TrkEnd
TrkEnd
MTrk
0 SeqSpec 43 00 01 00
0 Meta TrkName "Right Bass"
0 Meta 0x21 00
26320 On ch=1 n=a4 v=20
26360 On ch=1 n=c5 v=20
26400 On ch=1 n=d#5 v=20
26880 On ch=1 n=d#5 v=0
26880 On ch=1 n=c5 v=0
26880 On ch=1 n=a4 v=0
27840 On ch=1 n=g#4 v=40
27840 On ch=1 n=c#5 v=20
27840 On ch=1 n=a#4 v=20
27840 On ch=1 n=e4 v=20
27960 On ch=1 n=g#4 v=0
28080 On ch=1 n=f#4 v=40
28200 On ch=1 n=f#4 v=0
28320 On ch=1 n=e4 v=0
28320 On ch=1 n=a#4 v=0
28320 On ch=1 n=c#5 v=0
28320 On ch=1 n=g#4 v=40
28440 On ch=1 n=g#4 v=0
28560 On ch=1 n=f#4 v=40
28680 On ch=1 n=f#4 v=0
29280 On ch=1 n=f4 v=40
29400 On ch=1 n=f4 v=0
29520 On ch=1 n=c5 v=40
29640 On ch=1 n=c5 v=0
30000 On ch=1 n=c5 v=40
30000 On ch=1 n=a5 v=20
30000 On ch=1 n=f5 v=20
30120 On ch=1 n=c5 v=0
30240 On ch=1 n=f5 v=0
30240 On ch=1 n=a5 v=0
30240 On ch=1 n=c5 v=40
30360 On ch=1 n=c5 v=0
30480 On ch=1 n=c5 v=40
30600 On ch=1 n=c5 v=0
30720 On ch=1 n=g5 v=20
30720 On ch=1 n=e5 v=20
30720 On ch=1 n=c5 v=40
30840 On ch=1 n=c5 v=0
30960 On ch=1 n=c#5 v=40
31080 On ch=1 n=c#5 v=0
31200 On ch=1 n=e5 v=0
31200 On ch=1 n=g5 v=0
31200 On ch=1 n=d#5 v=40
31320 On ch=1 n=d#5 v=0
31440 On ch=1 n=c#5 v=40
31560 On ch=1 n=c#5 v=0
31680 On ch=1 n=c5 v=40
31800 On ch=1 n=c5 v=0
31920 On ch=1 n=c5 v=40
32040 On ch=1 n=c5 v=0
32160 On ch=1 n=g5 v=20
32160 On ch=1 n=e5 v=20
32160 On ch=1 n=c5 v=40
32280 On ch=1 n=c5 v=0
32400 On ch=1 n=a#4 v=40
32520 On ch=1 n=a#4 v=0
32640 On ch=1 n=e5 v=0
32640 On ch=1 n=g5 v=0
32640 On ch=1 n=g#4 v=40
32760 On ch=1 n=g#4 v=0
32880 On ch=1 n=f#4 v=40
33000 On ch=1 n=f#4 v=0
33600 On ch=1 n=f4 v=60
33840 On ch=1 n=f4 v=0
33840 On ch=1 n=c5 v=60
33960 On ch=1 n=c5 v=0
60960 On ch=1 n=f4 v=40
61200 On ch=1 n=f4 v=0
61200 On ch=1 n=c5 v=40
61320 On ch=1 n=c5 v=0
61680 On ch=1 n=a5 v=20
61680 On ch=1 n=f5 v=20
61680 On ch=1 n=c5 v=40
61800 On ch=1 n=c5 v=0
61920 On ch=1 n=f5 v=0
61920 On ch=1 n=a5 v=0
61920 On ch=1 n=c5 v=40
62040 On ch=1 n=c5 v=0
62160 On ch=1 n=c5 v=40
62280 On ch=1 n=c5 v=0
62400 On ch=1 n=c5 v=40
62400 On ch=1 n=g5 v=20
62400 On ch=1 n=e5 v=20
62520 On ch=1 n=c5 v=0
62640 On ch=1 n=e5 v=0
62640 On ch=1 n=g5 v=0
62640 On ch=1 n=c#5 v=40
62760 On ch=1 n=c#5 v=0
62880 On ch=1 n=d#5 v=40
63000 On ch=1 n=d#5 v=0
63120 On ch=1 n=c#5 v=40
63240 On ch=1 n=c#5 v=0
63360 On ch=1 n=c5 v=40
63480 On ch=1 n=c5 v=0
63600 On ch=1 n=c5 v=40
63720 On ch=1 n=c5 v=0
63840 On ch=1 n=g5 v=20
63840 On ch=1 n=e5 v=20
63840 On ch=1 n=c5 v=40
63960 On ch=1 n=c5 v=0
64080 On ch=1 n=e5 v=0
64080 On ch=1 n=g5 v=0
64080 On ch=1 n=a#4 v=40
64200 On ch=1 n=a#4 v=0
64320 On ch=1 n=g#4 v=40
64440 On ch=1 n=g#4 v=0
64560 On ch=1 n=f#4 v=40
64680 On ch=1 n=f#4 v=0
65760 On ch=1 n=f#4 v=100
65760 On ch=1 n=a#4 v=100
66480 On ch=1 n=a#4 v=0
66480 On ch=1 n=c5 v=100
66720 On ch=1 n=c5 v=0
66720 On ch=1 n=f#4 v=0
66720 On ch=1 n=c5 v=100
66720 On ch=1 n=e5 v=100
66960 On ch=1 n=e5 v=0
67200 On ch=1 n=c5 v=0
104160 On ch=1 n=c#5 v=80
104160 On ch=1 n=a#4 v=80
104160 On ch=1 n=f4 v=80
104400 On ch=1 n=f4 v=0
104400 On ch=1 n=a#4 v=0
104400 On ch=1 n=c#5 v=0
104400 On ch=1 n=f#4 v=80
104640 On ch=1 n=f#4 v=0
104640 On ch=1 n=g#4 v=80
104880 On ch=1 n=g#4 v=0
105600 On ch=1 n=d#5 v=80
105600 On ch=1 n=c5 v=80
105600 On ch=1 n=g#4 v=80
105840 On ch=1 n=g#4 v=0
105840 On ch=1 n=c5 v=0
105840 On ch=1 n=d#5 v=0
105840 On ch=1 n=f#4 v=80
106080 On ch=1 n=f#4 v=0
106080 On ch=1 n=g#4 v=80
106320 On ch=1 n=g#4 v=0
106320 On ch=1 n=f#4 v=80
106560 On ch=1 n=f#4 v=0
107040 On ch=1 n=c#5 v=80
107040 On ch=1 n=a#4 v=80
107040 On ch=1 n=f4 v=80
107280 On ch=1 n=f4 v=0
107280 On ch=1 n=a#4 v=0
107280 On ch=1 n=c#5 v=0
107280 On ch=1 n=f#4 v=80
107520 On ch=1 n=f#4 v=0
107520 On ch=1 n=g#4 v=80
107760 On ch=1 n=g#4 v=0
118960 On ch=1 n=a4 v=80
119000 On ch=1 n=c5 v=80
119040 On ch=1 n=d#5 v=80
119520 On ch=1 n=d#5 v=0
119520 On ch=1 n=c5 v=0
119520 On ch=1 n=a4 v=0
120400 On ch=1 n=d#4 v=80
120440 On ch=1 n=a#4 v=80
120480 On ch=1 n=c#5 v=80
120480 On ch=1 n=g#4 v=100
120720 On ch=1 n=g#4 v=0
120720 On ch=1 n=f#4 v=100
120960 On ch=1 n=f#4 v=0
120960 On ch=1 n=c#5 v=0
120960 On ch=1 n=a#4 v=0
120960 On ch=1 n=d#4 v=0
120960 On ch=1 n=g#4 v=100
121200 On ch=1 n=g#4 v=0
121200 On ch=1 n=f#4 v=100
121440 On ch=1 n=f#4 v=0
125200 On ch=1 n=a4 v=80
125240 On ch=1 n=c5 v=80
125280 On ch=1 n=d#5 v=80
125760 On ch=1 n=d#5 v=0
125760 On ch=1 n=c5 v=0
125760 On ch=1 n=a4 v=0
176400 On ch=1 n=a4 v=40
176440 On ch=1 n=c5 v=40
176480 On ch=1 n=d#5 v=40
176640 On ch=1 n=d#5 v=0
176640 On ch=1 n=c5 v=0
176640 On ch=1 n=a4 v=0
177840 On ch=1 n=a#4 v=40
177880 On ch=1 n=c#5 v=40
177920 On ch=1 n=e5 v=40
178080 On ch=1 n=e5 v=0
178080 On ch=1 n=c#5 v=0
178080 On ch=1 n=a#4 v=0
179280 On ch=1 n=a4 v=40
179320 On ch=1 n=c5 v=40
179360 On ch=1 n=d#5 v=40
179520 On ch=1 n=d#5 v=0
179520 On ch=1 n=c5 v=0
179520 On ch=1 n=a4 v=0
180720 On ch=1 n=a#4 v=40
180760 On ch=1 n=c#5 v=40
180800 On ch=1 n=e5 v=40
180960 On ch=1 n=e5 v=0
180960 On ch=1 n=c#5 v=0
180960 On ch=1 n=a#4 v=0
180960 Meta TrkEnd
TrkEnd
MTrk
0 SeqSpec 43 00 01 00
0 Meta TrkName "Left Bass"
0 Meta 0x21 00
0 On ch=1 n=f4 v=40
120 On ch=1 n=f4 v=0
480 On ch=1 n=f#4 v=40
600 On ch=1 n=f#4 v=0
960 On ch=1 n=f4 v=40
1080 On ch=1 n=f4 v=0
1440 On ch=1 n=f#4 v=40
1560 On ch=1 n=f#4 v=0
1920 On ch=1 n=f4 v=40
2040 On ch=1 n=f4 v=0
2340 On ch=1 n=f4 v=40
2400 On ch=1 n=f4 v=0
2400 On ch=1 n=f#4 v=40
2520 On ch=1 n=f#4 v=0
5760 On ch=1 n=f4 v=40
5880 On ch=1 n=f4 v=0
6000 On ch=1 n=f4 v=40
6120 On ch=1 n=f4 v=0
6240 On ch=1 n=d#4 v=40
6360 On ch=1 n=d#4 v=0
6480 On ch=1 n=d#4 v=40
6600 On ch=1 n=d#4 v=0
6720 On ch=1 n=c#4 v=40
6840 On ch=1 n=c#4 v=0
6960 On ch=1 n=c#4 v=40
7080 On ch=1 n=c#4 v=0
7200 On ch=1 n=b3 v=40
7320 On ch=1 n=b3 v=0
7440 On ch=1 n=b3 v=40
7560 On ch=1 n=b3 v=0
7680 On ch=1 n=a#3 v=40
7800 On ch=1 n=a#3 v=0
7920 On ch=1 n=a#3 v=40
8040 On ch=1 n=a#3 v=0
8160 On ch=1 n=f#3 v=40
8280 On ch=1 n=f#3 v=0
8400 On ch=1 n=f#3 v=40
8520 On ch=1 n=f#3 v=0
8640 On ch=1 n=f3 v=40
8760 On ch=1 n=f3 v=0
8880 On ch=1 n=f3 v=40
9000 On ch=1 n=f3 v=0
9120 On ch=1 n=f#3 v=40
9240 On ch=1 n=f#3 v=0
9360 On ch=1 n=f#3 v=40
9480 On ch=1 n=f#3 v=0
9600 On ch=1 n=a#3 v=40
9720 On ch=1 n=a#3 v=0
9840 On ch=1 n=a#3 v=40
9960 On ch=1 n=a#3 v=0
10080 On ch=1 n=b3 v=40
10200 On ch=1 n=b3 v=0
10320 On ch=1 n=b3 v=40
10440 On ch=1 n=b3 v=0
10560 On ch=1 n=c#4 v=40
10680 On ch=1 n=c#4 v=0
10800 On ch=1 n=c#4 v=40
10920 On ch=1 n=c#4 v=0
11040 On ch=1 n=d#4 v=40
11160 On ch=1 n=d#4 v=0
11280 On ch=1 n=d#4 v=40
11400 On ch=1 n=d#4 v=0
11520 On ch=1 n=f3 v=80
11640 On ch=1 n=f3 v=0
11760 On ch=1 n=f4 v=80
11880 On ch=1 n=f4 v=0
12000 On ch=1 n=c4 v=80
12120 On ch=1 n=c4 v=0
12240 On ch=1 n=c4 v=80
12360 On ch=1 n=c4 v=0
12480 On ch=1 n=f3 v=80
12600 On ch=1 n=f3 v=0
12720 On ch=1 n=f3 v=80
12840 On ch=1 n=f3 v=0
12960 On ch=1 n=c4 v=70
13080 On ch=1 n=c4 v=0
13200 On ch=1 n=f4 v=70
13320 On ch=1 n=f4 v=0
13440 On ch=1 n=f3 v=60
13560 On ch=1 n=f3 v=0
13680 On ch=1 n=c4 v=60
13800 On ch=1 n=c4 v=0
13920 On ch=1 n=c4 v=50
14040 On ch=1 n=c4 v=0
14160 On ch=1 n=f3 v=50
14280 On ch=1 n=f3 v=0
14400 On ch=1 n=f4 v=40
14520 On ch=1 n=f4 v=0
14880 On ch=1 n=f#4 v=40
15000 On ch=1 n=f#4 v=0
15360 On ch=1 n=f4 v=40
15480 On ch=1 n=f4 v=0
15840 On ch=1 n=f#4 v=40
15960 On ch=1 n=f#4 v=0
16320 On ch=1 n=f4 v=40
16440 On ch=1 n=f4 v=0
16740 On ch=1 n=f4 v=40
16800 On ch=1 n=f4 v=0
16800 On ch=1 n=f#4 v=40
16920 On ch=1 n=f#4 v=0
17280 On ch=1 n=f4 v=40
17400 On ch=1 n=f4 v=0
17520 On ch=1 n=f4 v=40
17640 On ch=1 n=f4 v=0
17760 On ch=1 n=d#4 v=40
17880 On ch=1 n=d#4 v=0
18000 On ch=1 n=d#4 v=40
18120 On ch=1 n=d#4 v=0
18240 On ch=1 n=c#4 v=40
18360 On ch=1 n=c#4 v=0
18480 On ch=1 n=c#4 v=40
18600 On ch=1 n=c#4 v=0
18720 On ch=1 n=b3 v=40
18840 On ch=1 n=b3 v=0
18960 On ch=1 n=b3 v=40
19080 On ch=1 n=b3 v=0
19200 On ch=1 n=a#3 v=40
19320 On ch=1 n=a#3 v=0
19440 On ch=1 n=a#3 v=40
19560 On ch=1 n=a#3 v=0
19680 On ch=1 n=f#3 v=40
19800 On ch=1 n=f#3 v=0
19920 On ch=1 n=f#3 v=40
20040 On ch=1 n=f#3 v=0
20160 On ch=1 n=f3 v=80
20280 On ch=1 n=f3 v=0
20400 On ch=1 n=f4 v=80
20520 On ch=1 n=f4 v=0
20640 On ch=1 n=c4 v=80
20760 On ch=1 n=c4 v=0
20880 On ch=1 n=c4 v=80
21000 On ch=1 n=c4 v=0
21120 On ch=1 n=f3 v=80
21240 On ch=1 n=f3 v=0
21360 On ch=1 n=f3 v=80
21480 On ch=1 n=f3 v=0
21600 On ch=1 n=c4 v=70
21720 On ch=1 n=c4 v=0
21840 On ch=1 n=f4 v=70
21960 On ch=1 n=f4 v=0
22080 On ch=1 n=f3 v=70
22200 On ch=1 n=f3 v=0
22320 On ch=1 n=c4 v=70
22440 On ch=1 n=c4 v=0
22560 On ch=1 n=c4 v=70
22680 On ch=1 n=c4 v=0
22800 On ch=1 n=f3 v=70
22920 On ch=1 n=f3 v=0
23040 On ch=1 n=f3 v=60
23160 On ch=1 n=f3 v=0
23520 On ch=1 n=c4 v=60
23520 On ch=1 n=f3 v=60
23640 On ch=1 n=f3 v=0
23640 On ch=1 n=c4 v=0
24000 On ch=1 n=f3 v=60
24120 On ch=1 n=f3 v=0
24480 On ch=1 n=c4 v=50
24480 On ch=1 n=f3 v=50
24600 On ch=1 n=f3 v=0
24600 On ch=1 n=c4 v=0
24960 On ch=1 n=f3 v=50
25080 On ch=1 n=f3 v=0
25440 On ch=1 n=c4 v=50
25440 On ch=1 n=f3 v=50
25560 On ch=1 n=f3 v=0
25560 On ch=1 n=c4 v=0
25920 On ch=1 n=f3 v=40
26160 On ch=1 n=f3 v=0
26160 On ch=1 n=c4 v=40
26400 On ch=1 n=c4 v=0
26400 On ch=1 n=f4 v=40
26520 On ch=1 n=f4 v=0
26640 On ch=1 n=f#4 v=40
26760 On ch=1 n=f#4 v=0
26880 On ch=1 n=g#4 v=40
27360 On ch=1 n=g#4 v=0
27360 On ch=1 n=a#3 v=40
27600 On ch=1 n=a#3 v=0
27600 On ch=1 n=f4 v=40
27840 On ch=1 n=f4 v=0
28800 On ch=1 n=f3 v=40
29040 On ch=1 n=f3 v=0
29040 On ch=1 n=c4 v=40
29280 On ch=1 n=c4 v=0
29760 On ch=1 n=c5 v=40
29880 On ch=1 n=c5 v=0
30240 On ch=1 n=a#3 v=40
30480 On ch=1 n=a#3 v=0
30480 On ch=1 n=f4 v=40
30720 On ch=1 n=f4 v=0
30720 On ch=1 n=c#5 v=40
30960 On ch=1 n=c#5 v=0
31680 On ch=1 n=a#3 v=40
31920 On ch=1 n=a#3 v=0
31920 On ch=1 n=f4 v=40
32160 On ch=1 n=f4 v=0
32160 On ch=1 n=c#5 v=40
32400 On ch=1 n=c#5 v=0
33120 On ch=1 n=f3 v=60
33360 On ch=1 n=f3 v=0
33360 On ch=1 n=c4 v=60
33480 On ch=1 n=c4 v=0
34080 On ch=1 n=f4 v=60
34080 On ch=1 n=c5 v=60
34200 On ch=1 n=c5 v=0
34200 On ch=1 n=f4 v=0
34320 On ch=1 n=f4 v=60
34320 On ch=1 n=c5 v=60
34440 On ch=1 n=c5 v=0
34440 On ch=1 n=f4 v=0
34560 On ch=1 n=c5 v=40
34560 On ch=1 n=f4 v=40
34680 On ch=1 n=f4 v=0
34680 On ch=1 n=c5 v=0
34800 On ch=1 n=c#5 v=40
34800 On ch=1 n=f#4 v=40
34920 On ch=1 n=f#4 v=0
34920 On ch=1 n=c#5 v=0
35040 On ch=1 n=c5 v=40
35040 On ch=1 n=f4 v=40
35160 On ch=1 n=f4 v=0
35160 On ch=1 n=c5 v=0
35280 On ch=1 n=a#4 v=40
35280 On ch=1 n=d#4 v=40
35400 On ch=1 n=d#4 v=0
35400 On ch=1 n=a#4 v=0
35520 On ch=1 n=c5 v=40
35520 On ch=1 n=f4 v=40
35640 On ch=1 n=f4 v=0
35640 On ch=1 n=c5 v=0
35760 On ch=1 n=c#5 v=40
35760 On ch=1 n=f#4 v=40
35880 On ch=1 n=f#4 v=0
35880 On ch=1 n=c#5 v=0
36000 On ch=1 n=f4 v=40
36000 On ch=1 n=c5 v=40
36120 On ch=1 n=c5 v=0
36120 On ch=1 n=f4 v=0
36240 On ch=1 n=f4 v=40
36240 On ch=1 n=c5 v=40
36360 On ch=1 n=c5 v=0
36360 On ch=1 n=f4 v=0
36480 On ch=1 n=f4 v=40
36480 On ch=1 n=c5 v=40
36600 On ch=1 n=c5 v=0
36600 On ch=1 n=f4 v=0
36720 On ch=1 n=f4 v=40
36720 On ch=1 n=c5 v=40
36840 On ch=1 n=c5 v=0
36840 On ch=1 n=f4 v=0
36960 On ch=1 n=f4 v=40
36960 On ch=1 n=c5 v=40
37080 On ch=1 n=c5 v=0
37080 On ch=1 n=f4 v=0
37200 On ch=1 n=f4 v=40
37200 On ch=1 n=c5 v=40
37320 On ch=1 n=c5 v=0
37320 On ch=1 n=f4 v=0
37440 On ch=1 n=f4 v=40
37440 On ch=1 n=c5 v=40
37680 On ch=1 n=c5 v=0
37680 On ch=1 n=f4 v=0
37680 On ch=1 n=f#4 v=40
37680 On ch=1 n=c#5 v=40
37920 On ch=1 n=c#5 v=0
37920 On ch=1 n=f#4 v=0
37920 On ch=1 n=f4 v=40
37920 On ch=1 n=c5 v=40
38160 On ch=1 n=c5 v=0
38160 On ch=1 n=f4 v=0
38160 On ch=1 n=d#4 v=40
38160 On ch=1 n=a#4 v=40
38400 On ch=1 n=a#4 v=0
38400 On ch=1 n=d#4 v=0
38400 On ch=1 n=f4 v=40
38400 On ch=1 n=c5 v=40
38640 On ch=1 n=c5 v=0
38640 On ch=1 n=f4 v=0
38640 On ch=1 n=f#4 v=40
38640 On ch=1 n=c#5 v=40
38880 On ch=1 n=c#5 v=0
38880 On ch=1 n=f#4 v=0
38880 On ch=1 n=f4 v=40
38880 On ch=1 n=c5 v=40
39120 On ch=1 n=c5 v=0
39120 On ch=1 n=f4 v=0
39120 On ch=1 n=f4 v=40
39120 On ch=1 n=c5 v=40
39360 On ch=1 n=c5 v=0
39360 On ch=1 n=f4 v=0
39360 On ch=1 n=f4 v=40
39360 On ch=1 n=c5 v=40
39600 On ch=1 n=c5 v=0
39600 On ch=1 n=f4 v=0
39600 On ch=1 n=f4 v=40
39600 On ch=1 n=c5 v=40
39840 On ch=1 n=c5 v=0
39840 On ch=1 n=f4 v=0
39840 On ch=1 n=f4 v=40
39840 On ch=1 n=c5 v=40
40080 On ch=1 n=c5 v=0
40080 On ch=1 n=f4 v=0
40080 On ch=1 n=f#4 v=40
40080 On ch=1 n=c#5 v=40
40320 On ch=1 n=c#5 v=0
40320 On ch=1 n=f#4 v=0
40320 On ch=1 n=f4 v=40
40320 On ch=1 n=c5 v=40
40560 On ch=1 n=c5 v=0
40560 On ch=1 n=f4 v=0
40560 On ch=1 n=f4 v=40
40560 On ch=1 n=c5 v=40
40800 On ch=1 n=c5 v=0
40800 On ch=1 n=f4 v=0
40800 On ch=1 n=f4 v=40
40800 On ch=1 n=c5 v=40
41040 On ch=1 n=c5 v=0
41040 On ch=1 n=f4 v=0
41040 On ch=1 n=f4 v=40
41040 On ch=1 n=c5 v=40
41280 On ch=1 n=c5 v=0
41280 On ch=1 n=f4 v=0
41280 On ch=1 n=f4 v=40
41280 On ch=1 n=c5 v=40
41520 On ch=1 n=c5 v=0
41520 On ch=1 n=f4 v=0
41520 On ch=1 n=f#4 v=40
41520 On ch=1 n=c#5 v=40
41760 On ch=1 n=c#5 v=0
41760 On ch=1 n=f#4 v=0
41760 On ch=1 n=f4 v=30
41760 On ch=1 n=c5 v=30
42000 On ch=1 n=c5 v=0
42000 On ch=1 n=f4 v=0
42000 On ch=1 n=f#4 v=30
42000 On ch=1 n=c#5 v=30
42240 On ch=1 n=c#5 v=0
42240 On ch=1 n=f#4 v=0
42240 On ch=1 n=f4 v=30
42240 On ch=1 n=c5 v=30
42480 On ch=1 n=c5 v=0
42480 On ch=1 n=f4 v=0
42480 On ch=1 n=f#4 v=30
42480 On ch=1 n=c#5 v=30
42720 On ch=1 n=c#5 v=0
42720 On ch=1 n=f#4 v=0
42720 On ch=1 n=f4 v=30
42720 On ch=1 n=c5 v=30
42960 On ch=1 n=c5 v=0
42960 On ch=1 n=f4 v=0
42960 On ch=1 n=f#4 v=30
42960 On ch=1 n=c#5 v=30
43200 On ch=1 n=c#5 v=0
43200 On ch=1 n=f#4 v=0
43200 On ch=1 n=f4 v=30
43200 On ch=1 n=c5 v=30
43440 On ch=1 n=c5 v=0
43440 On ch=1 n=f4 v=0
43440 On ch=1 n=f#4 v=30
43440 On ch=1 n=c#5 v=30
43680 On ch=1 n=c#5 v=0
43680 On ch=1 n=f#4 v=0
43680 On ch=1 n=f4 v=30
43680 On ch=1 n=c5 v=30
43920 On ch=1 n=c5 v=0
43920 On ch=1 n=f4 v=0
43920 On ch=1 n=f#4 v=30
43920 On ch=1 n=c#5 v=30
44160 On ch=1 n=c#5 v=0
44160 On ch=1 n=f#4 v=0
44160 On ch=1 n=f4 v=30
44160 On ch=1 n=c5 v=30
44400 On ch=1 n=c5 v=0
44400 On ch=1 n=f4 v=0
44400 On ch=1 n=f#4 v=30
44400 On ch=1 n=c#5 v=30
44640 On ch=1 n=c#5 v=0
44640 On ch=1 n=f#4 v=0
44640 On ch=1 n=f4 v=30
44640 On ch=1 n=c5 v=30
44880 On ch=1 n=c5 v=0
44880 On ch=1 n=f4 v=0
44880 On ch=1 n=f#4 v=30
44880 On ch=1 n=c#5 v=30
45120 On ch=1 n=c#5 v=0
45120 On ch=1 n=f#4 v=0
45120 On ch=1 n=f4 v=30
45120 On ch=1 n=c5 v=30
45360 On ch=1 n=c5 v=0
45360 On ch=1 n=f4 v=0
45360 On ch=1 n=f#4 v=30
45360 On ch=1 n=c#5 v=30
45600 On ch=1 n=c#5 v=0
45600 On ch=1 n=f#4 v=0
45600 On ch=1 n=f4 v=30
45600 On ch=1 n=c5 v=30
45840 On ch=1 n=c5 v=0
45840 On ch=1 n=f4 v=0
45840 On ch=1 n=f#4 v=30
45840 On ch=1 n=c#5 v=30
46080 On ch=1 n=c#5 v=0
46080 On ch=1 n=f#4 v=0
46080 On ch=1 n=f4 v=30
46080 On ch=1 n=c5 v=30
46320 On ch=1 n=c5 v=0
46320 On ch=1 n=f4 v=0
46320 On ch=1 n=f#4 v=30
46320 On ch=1 n=c#5 v=30
46560 On ch=1 n=c#5 v=0
46560 On ch=1 n=f#4 v=0
46560 On ch=1 n=f4 v=30
46560 On ch=1 n=c5 v=30
46800 On ch=1 n=c5 v=0
46800 On ch=1 n=f4 v=0
46800 On ch=1 n=f#4 v=30
46800 On ch=1 n=c#5 v=30
47040 On ch=1 n=c#5 v=0
47040 On ch=1 n=f#4 v=0
47040 On ch=1 n=f4 v=30
47040 On ch=1 n=c5 v=30
47280 On ch=1 n=c5 v=0
47280 On ch=1 n=f4 v=0
47280 On ch=1 n=f#4 v=30
47280 On ch=1 n=c#5 v=30
47520 On ch=1 n=c#5 v=0
47520 On ch=1 n=f#4 v=0
47520 On ch=1 n=f4 v=30
47520 On ch=1 n=c5 v=30
47760 On ch=1 n=c5 v=0
47760 On ch=1 n=f4 v=0
47760 On ch=1 n=f#4 v=30
47760 On ch=1 n=c#5 v=30
48000 On ch=1 n=c#5 v=0
48000 On ch=1 n=f#4 v=0
48000 On ch=1 n=f4 v=30
48000 On ch=1 n=c5 v=30
48240 On ch=1 n=c5 v=0
48240 On ch=1 n=f4 v=0
48240 On ch=1 n=f#4 v=30
48240 On ch=1 n=c#5 v=30
48480 On ch=1 n=c#5 v=0
48480 On ch=1 n=f#4 v=0
48480 On ch=1 n=f4 v=30
48480 On ch=1 n=c5 v=30
48720 On ch=1 n=c5 v=0
48720 On ch=1 n=f4 v=0
48720 On ch=1 n=f#4 v=30
48720 On ch=1 n=c#5 v=30
48960 On ch=1 n=c#5 v=0
48960 On ch=1 n=f#4 v=0
48960 On ch=1 n=f4 v=30
48960 On ch=1 n=c5 v=30
49200 On ch=1 n=c5 v=0
49200 On ch=1 n=f4 v=0
49200 On ch=1 n=f#4 v=30
49200 On ch=1 n=c#5 v=30
49440 On ch=1 n=c#5 v=0
49440 On ch=1 n=f#4 v=0
49440 On ch=1 n=f4 v=30
49440 On ch=1 n=c5 v=30
49680 On ch=1 n=c5 v=0
49680 On ch=1 n=f4 v=0
49680 On ch=1 n=f#4 v=30
49680 On ch=1 n=c#5 v=30
49920 On ch=1 n=c#5 v=0
49920 On ch=1 n=f#4 v=0
49920 On ch=1 n=f4 v=30
49920 On ch=1 n=c5 v=30
50160 On ch=1 n=c5 v=0
50160 On ch=1 n=f4 v=0
50160 On ch=1 n=f#4 v=30
50160 On ch=1 n=c#5 v=30
50400 On ch=1 n=c#5 v=0
50400 On ch=1 n=f#4 v=0
50400 On ch=1 n=f4 v=30
50400 On ch=1 n=c5 v=30
50640 On ch=1 n=c5 v=0
50640 On ch=1 n=f4 v=0
50640 On ch=1 n=f#4 v=30
50640 On ch=1 n=c#5 v=30
50880 On ch=1 n=c#5 v=0
50880 On ch=1 n=f#4 v=0
50880 On ch=1 n=f4 v=30
50880 On ch=1 n=c5 v=30
51120 On ch=1 n=c5 v=0
51120 On ch=1 n=f4 v=0
51120 On ch=1 n=f#4 v=30
51120 On ch=1 n=c#5 v=30
51360 On ch=1 n=c#5 v=0
51360 On ch=1 n=f#4 v=0
51360 On ch=1 n=f4 v=30
51360 On ch=1 n=c5 v=30
51600 On ch=1 n=c5 v=0
51600 On ch=1 n=f4 v=0
51600 On ch=1 n=f#4 v=30
51600 On ch=1 n=c#5 v=30
51840 On ch=1 n=c#5 v=0
51840 On ch=1 n=f#4 v=0
51840 On ch=1 n=f4 v=30
51840 On ch=1 n=c5 v=30
52080 On ch=1 n=c5 v=0
52080 On ch=1 n=f4 v=0
52080 On ch=1 n=f#4 v=30
52080 On ch=1 n=c#5 v=30
52320 On ch=1 n=c#5 v=0
52320 On ch=1 n=f#4 v=0
52320 On ch=1 n=f4 v=30
52320 On ch=1 n=c5 v=30
52560 On ch=1 n=c5 v=0
52560 On ch=1 n=f4 v=0
52560 On ch=1 n=f#4 v=30
52560 On ch=1 n=c#5 v=30
52800 On ch=1 n=c#5 v=0
52800 On ch=1 n=f#4 v=0
52800 On ch=1 n=f4 v=30
52800 On ch=1 n=c5 v=30
53040 On ch=1 n=c5 v=0
53040 On ch=1 n=f4 v=0
53040 On ch=1 n=f#4 v=30
53040 On ch=1 n=c#5 v=30
53280 On ch=1 n=c#5 v=0
53280 On ch=1 n=f#4 v=0
53280 On ch=1 n=f4 v=30
53280 On ch=1 n=c5 v=30
53520 On ch=1 n=c5 v=0
53520 On ch=1 n=f4 v=0
53520 On ch=1 n=f#4 v=30
53520 On ch=1 n=c#5 v=30
53760 On ch=1 n=c#5 v=0
53760 On ch=1 n=f#4 v=0
53760 On ch=1 n=f4 v=30
53760 On ch=1 n=c5 v=30
54000 On ch=1 n=c5 v=0
54000 On ch=1 n=f4 v=0
54000 On ch=1 n=f#4 v=30
54000 On ch=1 n=c#5 v=30
54240 On ch=1 n=c#5 v=0
54240 On ch=1 n=f#4 v=0
54240 On ch=1 n=f4 v=30
54240 On ch=1 n=c5 v=30
54480 On ch=1 n=c5 v=0
54480 On ch=1 n=f4 v=0
54480 On ch=1 n=f#4 v=30
54480 On ch=1 n=c#5 v=30
54720 On ch=1 n=c#5 v=0
54720 On ch=1 n=f#4 v=0
54720 On ch=1 n=f4 v=30
54720 On ch=1 n=c5 v=30
54960 On ch=1 n=c5 v=0
54960 On ch=1 n=f4 v=0
54960 On ch=1 n=f#4 v=30
54960 On ch=1 n=c#5 v=30
55200 On ch=1 n=c#5 v=0
55200 On ch=1 n=f#4 v=0
55200 On ch=1 n=f4 v=30
55200 On ch=1 n=c5 v=30
55440 On ch=1 n=c5 v=0
55440 On ch=1 n=f4 v=0
55440 On ch=1 n=f#4 v=30
55440 On ch=1 n=c#5 v=30
55680 On ch=1 n=c#5 v=0
55680 On ch=1 n=f#4 v=0
55680 On ch=1 n=f4 v=30
55680 On ch=1 n=c5 v=30
55920 On ch=1 n=c5 v=0
55920 On ch=1 n=f4 v=0
55920 On ch=1 n=f#4 v=30
55920 On ch=1 n=c#5 v=30
56160 On ch=1 n=c#5 v=0
56160 On ch=1 n=f#4 v=0
56160 On ch=1 n=f4 v=30
56160 On ch=1 n=c5 v=30
56400 On ch=1 n=c5 v=0
56400 On ch=1 n=f4 v=0
56400 On ch=1 n=f#4 v=30
56400 On ch=1 n=c#5 v=30
56640 On ch=1 n=c#5 v=0
56640 On ch=1 n=f#4 v=0
56640 On ch=1 n=f4 v=30
56640 On ch=1 n=c5 v=30
56880 On ch=1 n=c5 v=0
56880 On ch=1 n=f4 v=0
56880 On ch=1 n=f#4 v=30
56880 On ch=1 n=c#5 v=30
57120 On ch=1 n=c#5 v=0
57120 On ch=1 n=f#4 v=0
57120 On ch=1 n=f4 v=30
57120 On ch=1 n=c5 v=30
57360 On ch=1 n=c5 v=0
57360 On ch=1 n=f4 v=0
57360 On ch=1 n=f#4 v=30
57360 On ch=1 n=c#5 v=30
57600 On ch=1 n=c#5 v=0
57600 On ch=1 n=f#4 v=0
57600 On ch=1 n=f3 v=40
57720 On ch=1 n=f3 v=0
57840 On ch=1 n=c4 v=40
57960 On ch=1 n=c4 v=0
58080 On ch=1 n=f4 v=40
58320 On ch=1 n=f4 v=0
58320 On ch=1 n=f#4 v=40
58560 On ch=1 n=f#4 v=0
58560 On ch=1 n=g#4 v=40
59040 On ch=1 n=g#4 v=0
59040 On ch=1 n=a#3 v=40
59280 On ch=1 n=a#3 v=0
59280 On ch=1 n=f4 v=40
59520 On ch=1 n=f4 v=0
59520 On ch=1 n=g#4 v=40
59520 On ch=1 n=c#5 v=20
59520 On ch=1 n=a#4 v=20
59520 On ch=1 n=e4 v=20
59640 On ch=1 n=g#4 v=0
59760 On ch=1 n=f#4 v=40
59880 On ch=1 n=f#4 v=0
60000 On ch=1 n=e4 v=0
60000 On ch=1 n=a#4 v=0
60000 On ch=1 n=c#5 v=0
60000 On ch=1 n=g#4 v=40
60120 On ch=1 n=g#4 v=0
60240 On ch=1 n=f#4 v=40
60360 On ch=1 n=f#4 v=0
60480 On ch=1 n=f3 v=40
60720 On ch=1 n=f3 v=0
60720 On ch=1 n=c4 v=40
60840 On ch=1 n=c4 v=0
61440 On ch=1 n=c5 v=40
61560 On ch=1 n=c5 v=0
61920 On ch=1 n=a#3 v=40
62160 On ch=1 n=a#3 v=0
62160 On ch=1 n=f4 v=40
62400 On ch=1 n=f4 v=0
62400 On ch=1 n=c#5 v=40
62640 On ch=1 n=c#5 v=0
63360 On ch=1 n=a#3 v=40
63600 On ch=1 n=a#3 v=0
63600 On ch=1 n=f4 v=40
63840 On ch=1 n=f4 v=0
63840 On ch=1 n=c#5 v=40
64080 On ch=1 n=c#5 v=0
64800 On ch=1 n=e3 v=100
65280 On ch=1 n=e3 v=0
65280 On ch=1 n=f5 v=100
65280 On ch=1 n=d5 v=100
65280 On ch=1 n=g#4 v=100
65520 On ch=1 n=g#4 v=0
65520 On ch=1 n=d5 v=0
65520 On ch=1 n=f5 v=0
65580 On ch=1 n=d4 v=100
65640 On ch=1 n=d4 v=0
65640 On ch=1 n=e4 v=100
65700 On ch=1 n=e4 v=0
65700 On ch=1 n=f4 v=100
65760 On ch=1 n=f4 v=0
66600 On ch=1 n=g4 v=100
66660 On ch=1 n=g4 v=0
66660 On ch=1 n=g#4 v=100
66720 On ch=1 n=g#4 v=0
66720 On ch=1 n=a4 v=100
66960 On ch=1 n=a4 v=0
67200 On ch=1 n=f5 v=127
67200 On ch=1 n=d5 v=127
67200 On ch=1 n=g#4 v=127
68160 On ch=1 n=e3 v=60
68400 On ch=1 n=e3 v=0
68580 On ch=1 n=e3 v=60
68640 On ch=1 n=e3 v=0
68640 On ch=1 n=f4 v=60
69120 On ch=1 n=g#4 v=0
69120 On ch=1 n=d5 v=0
69120 On ch=1 n=f5 v=0
69360 On ch=1 n=f4 v=0
69360 On ch=1 n=f4 v=60
69480 On ch=1 n=f4 v=0
69600 On ch=1 n=f4 v=60
69720 On ch=1 n=f4 v=0
69840 On ch=1 n=f4 v=50
69960 On ch=1 n=f4 v=0
70080 On ch=1 n=f4 v=50
70200 On ch=1 n=f4 v=0
70320 On ch=1 n=f4 v=50
70440 On ch=1 n=f4 v=0
70560 On ch=1 n=f4 v=40
70680 On ch=1 n=f4 v=0
70800 On ch=1 n=f4 v=40
70920 On ch=1 n=f4 v=0
71040 On ch=1 n=d#4 v=40
71160 On ch=1 n=d#4 v=0
71280 On ch=1 n=d#4 v=40
71400 On ch=1 n=d#4 v=0
71520 On ch=1 n=c#4 v=40
71640 On ch=1 n=c#4 v=0
71760 On ch=1 n=c#4 v=40
71880 On ch=1 n=c#4 v=0
72000 On ch=1 n=b3 v=40
72120 On ch=1 n=b3 v=0
72240 On ch=1 n=b3 v=40
72360 On ch=1 n=b3 v=0
72480 On ch=1 n=a#3 v=40
72600 On ch=1 n=a#3 v=0
72720 On ch=1 n=a#3 v=40
72840 On ch=1 n=a#3 v=0
72960 On ch=1 n=f#3 v=40
73080 On ch=1 n=f#3 v=0
73200 On ch=1 n=f#3 v=40
73320 On ch=1 n=f#3 v=0
73440 On ch=1 n=f3 v=40
73560 On ch=1 n=f3 v=0
73680 On ch=1 n=f3 v=40
73800 On ch=1 n=f3 v=0
73920 On ch=1 n=f#3 v=40
74040 On ch=1 n=f#3 v=0
74160 On ch=1 n=f#3 v=40
74280 On ch=1 n=f#3 v=0
74400 On ch=1 n=a#3 v=40
74520 On ch=1 n=a#3 v=0
74640 On ch=1 n=a#3 v=40
74760 On ch=1 n=a#3 v=0
74880 On ch=1 n=b3 v=40
75000 On ch=1 n=b3 v=0
75120 On ch=1 n=b3 v=40
75240 On ch=1 n=b3 v=0
75360 On ch=1 n=c#4 v=40
75480 On ch=1 n=c#4 v=0
75600 On ch=1 n=c#4 v=40
75720 On ch=1 n=c#4 v=0
75840 On ch=1 n=d#4 v=40
75960 On ch=1 n=d#4 v=0
76080 On ch=1 n=d#4 v=40
76200 On ch=1 n=d#4 v=0
76320 On ch=1 n=f4 v=40
76440 On ch=1 n=f4 v=0
76560 On ch=1 n=c5 v=40
76560 On ch=1 n=f4 v=40
76680 On ch=1 n=f4 v=0
76680 On ch=1 n=c5 v=0
76800 On ch=1 n=f4 v=40
76920 On ch=1 n=f4 v=0
77040 On ch=1 n=c5 v=40
77040 On ch=1 n=f4 v=40
77160 On ch=1 n=f4 v=0
77160 On ch=1 n=c5 v=0
77280 On ch=1 n=f4 v=40
77400 On ch=1 n=f4 v=0
77520 On ch=1 n=c5 v=40
77520 On ch=1 n=f4 v=40
77640 On ch=1 n=f4 v=0
77640 On ch=1 n=c5 v=0
77760 On ch=1 n=f#4 v=40
78000 On ch=1 n=f#4 v=0
78000 On ch=1 n=c#5 v=40
78000 On ch=1 n=f#4 v=40
78240 On ch=1 n=f#4 v=0
78240 On ch=1 n=c#5 v=0
78240 On ch=1 n=f#4 v=40
78480 On ch=1 n=f#4 v=0
78480 On ch=1 n=c#5 v=40
78480 On ch=1 n=f#4 v=40
78720 On ch=1 n=f#4 v=0
78720 On ch=1 n=c#5 v=0
78720 On ch=1 n=g4 v=40
78960 On ch=1 n=g4 v=0
78960 On ch=1 n=c#5 v=40
78960 On ch=1 n=f#4 v=40
79200 On ch=1 n=f#4 v=0
79200 On ch=1 n=c#5 v=0
79200 On ch=1 n=f4 v=40
79440 On ch=1 n=f4 v=0
79440 On ch=1 n=c5 v=40
79440 On ch=1 n=f4 v=40
79680 On ch=1 n=f4 v=0
79680 On ch=1 n=c5 v=0
79680 On ch=1 n=f4 v=40
79920 On ch=1 n=f4 v=0
79920 On ch=1 n=c5 v=40
79920 On ch=1 n=f4 v=40
80160 On ch=1 n=f4 v=0
80160 On ch=1 n=c5 v=0
80160 On ch=1 n=f4 v=40
80400 On ch=1 n=f4 v=0
80400 On ch=1 n=c5 v=40
80400 On ch=1 n=f4 v=40
80640 On ch=1 n=f4 v=0
80640 On ch=1 n=c5 v=0
80640 On ch=1 n=f#4 v=40
80880 On ch=1 n=f#4 v=0
80880 On ch=1 n=c#5 v=40
80880 On ch=1 n=f#4 v=40
81120 On ch=1 n=f#4 v=0
81120 On ch=1 n=c#5 v=0
81120 On ch=1 n=f#4 v=40
81360 On ch=1 n=f#4 v=0
81360 On ch=1 n=c#5 v=40
81360 On ch=1 n=f#4 v=40
81600 On ch=1 n=f#4 v=0
81600 On ch=1 n=c#5 v=0
81600 On ch=1 n=g4 v=40
81840 On ch=1 n=g4 v=0
81840 On ch=1 n=d5 v=40
81840 On ch=1 n=g4 v=40
82080 On ch=1 n=g4 v=0
82080 On ch=1 n=d5 v=0
82080 On ch=1 n=g#4 v=40
82320 On ch=1 n=g#4 v=0
82320 On ch=1 n=d#5 v=40
82320 On ch=1 n=g#4 v=40
82560 On ch=1 n=g#4 v=0
82560 On ch=1 n=d#5 v=0
82560 On ch=1 n=e4 v=40
82800 On ch=1 n=e4 v=0
82800 On ch=1 n=b4 v=40
82800 On ch=1 n=e4 v=40
83040 On ch=1 n=e4 v=0
83040 On ch=1 n=b4 v=0
83040 On ch=1 n=f4 v=40
83280 On ch=1 n=f4 v=0
83280 On ch=1 n=c5 v=40
83280 On ch=1 n=f4 v=40
83520 On ch=1 n=f4 v=0
83520 On ch=1 n=c5 v=0
83520 On ch=1 n=f#4 v=40
83760 On ch=1 n=f#4 v=0
83760 On ch=1 n=c#5 v=40
83760 On ch=1 n=f#4 v=40
84000 On ch=1 n=f#4 v=0
84000 On ch=1 n=c#5 v=0
84000 On ch=1 n=f#4 v=40
84240 On ch=1 n=f#4 v=0
84240 On ch=1 n=c#5 v=40
84240 On ch=1 n=f#4 v=40
84480 On ch=1 n=f#4 v=0
84480 On ch=1 n=c#5 v=0
84480 On ch=1 n=g4 v=40
84720 On ch=1 n=g4 v=0
84720 On ch=1 n=d5 v=40
84720 On ch=1 n=g4 v=40
84960 On ch=1 n=g4 v=0
84960 On ch=1 n=d5 v=0
84960 On ch=1 n=g#4 v=40
85200 On ch=1 n=g#4 v=0
85200 On ch=1 n=d#5 v=40
85200 On ch=1 n=g#4 v=40
85440 On ch=1 n=g#4 v=0
85440 On ch=1 n=d#5 v=0
85440 On ch=1 n=e4 v=40
85680 On ch=1 n=e4 v=0
85680 On ch=1 n=b4 v=40
85680 On ch=1 n=e4 v=40
85920 On ch=1 n=e4 v=0
85920 On ch=1 n=b4 v=0
85920 On ch=1 n=f4 v=40
86160 On ch=1 n=f4 v=0
86160 On ch=1 n=c5 v=40
86160 On ch=1 n=f4 v=40
86400 On ch=1 n=f4 v=0
86400 On ch=1 n=c5 v=0
86400 On ch=1 n=f#4 v=50
86640 On ch=1 n=f#4 v=0
86640 On ch=1 n=c#5 v=50
86640 On ch=1 n=a#4 v=50
86640 On ch=1 n=g#4 v=50
86880 On ch=1 n=g#4 v=0
86880 On ch=1 n=a#4 v=0
86880 On ch=1 n=c#5 v=0
86880 On ch=1 n=f#4 v=60
87120 On ch=1 n=f#4 v=0
87120 On ch=1 n=c#5 v=60
87120 On ch=1 n=a#4 v=60
87120 On ch=1 n=g#4 v=60
87360 On ch=1 n=g#4 v=0
87360 On ch=1 n=a#4 v=0
87360 On ch=1 n=c#5 v=0
87360 On ch=1 n=g4 v=70
87600 On ch=1 n=g4 v=0
87600 On ch=1 n=d5 v=70
87600 On ch=1 n=b4 v=70
87600 On ch=1 n=a4 v=70
87840 On ch=1 n=a4 v=0
87840 On ch=1 n=b4 v=0
87840 On ch=1 n=d5 v=0
87840 On ch=1 n=g#4 v=80
88080 On ch=1 n=g#4 v=0
88080 On ch=1 n=d#5 v=80
88080 On ch=1 n=c5 v=80
88080 On ch=1 n=a#4 v=80
88320 On ch=1 n=a#4 v=0
88320 On ch=1 n=c5 v=0
88320 On ch=1 n=d#5 v=0
88320 On ch=1 n=g#4 v=80
88560 On ch=1 n=g#4 v=0
88560 On ch=1 n=d#5 v=80
88560 On ch=1 n=c5 v=80
88560 On ch=1 n=a#4 v=80
88800 On ch=1 n=a#4 v=0
88800 On ch=1 n=c5 v=0
88800 On ch=1 n=d#5 v=0
88800 On ch=1 n=a4 v=80
89040 On ch=1 n=a4 v=0
89040 On ch=1 n=e5 v=80
89040 On ch=1 n=c#5 v=80
89040 On ch=1 n=b4 v=80
89280 On ch=1 n=b4 v=0
89280 On ch=1 n=c#5 v=0
89280 On ch=1 n=e5 v=0
89280 On ch=1 n=f5 v=40
89280 On ch=1 n=a#4 v=40
89520 On ch=1 n=a#4 v=0
89520 On ch=1 n=f5 v=0
89520 On ch=1 n=g5 v=40
89520 On ch=1 n=c#5 v=40
89760 On ch=1 n=c#5 v=0
89760 On ch=1 n=g5 v=0
89760 On ch=1 n=d#4 v=40
89760 On ch=1 n=a#4 v=40
90000 On ch=1 n=a#4 v=0
90000 On ch=1 n=d#4 v=0
90000 On ch=1 n=g5 v=40
90000 On ch=1 n=c#5 v=40
90240 On ch=1 n=c#5 v=0
90240 On ch=1 n=g5 v=0
90240 On ch=1 n=a#4 v=40
90240 On ch=1 n=f5 v=40
90480 On ch=1 n=f5 v=0
90480 On ch=1 n=a#4 v=0
90480 On ch=1 n=g5 v=40
90480 On ch=1 n=c#5 v=40
90720 On ch=1 n=c#5 v=0
90720 On ch=1 n=g5 v=0
90720 On ch=1 n=d#4 v=40
90720 On ch=1 n=a#4 v=40
90960 On ch=1 n=a#4 v=0
90960 On ch=1 n=d#4 v=0
90960 On ch=1 n=g5 v=40
90960 On ch=1 n=c#5 v=40
91200 On ch=1 n=c#5 v=0
91200 On ch=1 n=g5 v=0
91200 On ch=1 n=f5 v=40
91200 On ch=1 n=a#4 v=40
91440 On ch=1 n=a#4 v=0
91440 On ch=1 n=f5 v=0
91440 On ch=1 n=g5 v=40
91440 On ch=1 n=c#5 v=40
91680 On ch=1 n=c#5 v=0
91680 On ch=1 n=g5 v=0
91680 On ch=1 n=d#4 v=40
91680 On ch=1 n=a#4 v=40
91920 On ch=1 n=a#4 v=0
91920 On ch=1 n=d#4 v=0
91920 On ch=1 n=g5 v=40
91920 On ch=1 n=c#5 v=40
92160 On ch=1 n=c#5 v=0
92160 On ch=1 n=g5 v=0
92160 On ch=1 n=e5 v=40
92160 On ch=1 n=a#4 v=40
92400 On ch=1 n=a#4 v=0
92400 On ch=1 n=e5 v=0
92400 On ch=1 n=g5 v=40
92400 On ch=1 n=c#5 v=40
92640 On ch=1 n=c#5 v=0
92640 On ch=1 n=g5 v=0
92640 On ch=1 n=d#4 v=40
92640 On ch=1 n=a#4 v=40
92880 On ch=1 n=a#4 v=0
92880 On ch=1 n=d#4 v=0
92880 On ch=1 n=g5 v=40
92880 On ch=1 n=c#5 v=40
93120 On ch=1 n=c#5 v=0
93120 On ch=1 n=g5 v=0
93120 On ch=1 n=e5 v=40
93120 On ch=1 n=a#4 v=40
93360 On ch=1 n=a#4 v=0
93360 On ch=1 n=e5 v=0
93360 On ch=1 n=g5 v=40
93360 On ch=1 n=c#5 v=40
93600 On ch=1 n=c#5 v=0
93600 On ch=1 n=g5 v=0
93600 On ch=1 n=d#4 v=40
93600 On ch=1 n=a#4 v=40
93840 On ch=1 n=a#4 v=0
93840 On ch=1 n=d#4 v=0
93840 On ch=1 n=g5 v=40
93840 On ch=1 n=c#5 v=40
94080 On ch=1 n=c#5 v=0
94080 On ch=1 n=g5 v=0
94080 On ch=1 n=e5 v=40
94080 On ch=1 n=a#4 v=40
94320 On ch=1 n=a#4 v=0
94320 On ch=1 n=e5 v=0
94320 On ch=1 n=c#5 v=40
94320 On ch=1 n=g5 v=40
94560 On ch=1 n=g5 v=0
94560 On ch=1 n=c#5 v=0
94560 On ch=1 n=d#4 v=40
94560 On ch=1 n=a#4 v=40
94800 On ch=1 n=a#4 v=0
94800 On ch=1 n=d#4 v=0
94800 On ch=1 n=c#5 v=40
94800 On ch=1 n=g5 v=40
95040 On ch=1 n=g5 v=0
95040 On ch=1 n=c#5 v=0
95040 On ch=1 n=d#5 v=40
95040 On ch=1 n=a#4 v=40
95280 On ch=1 n=a#4 v=0
95280 On ch=1 n=d#5 v=0
95280 On ch=1 n=f#5 v=40
95280 On ch=1 n=c#5 v=40
95520 On ch=1 n=c#5 v=0
95520 On ch=1 n=f#5 v=0
95520 On ch=1 n=d#4 v=40
95520 On ch=1 n=a#4 v=40
95760 On ch=1 n=a#4 v=0
95760 On ch=1 n=d#4 v=0
95760 On ch=1 n=f#5 v=40
95760 On ch=1 n=c#5 v=40
96000 On ch=1 n=c#5 v=0
96000 On ch=1 n=f#5 v=0
96000 On ch=1 n=d#5 v=40
96000 On ch=1 n=a#4 v=40
96240 On ch=1 n=a#4 v=0
96240 On ch=1 n=d#5 v=0
96240 On ch=1 n=f#5 v=40
96240 On ch=1 n=c#5 v=40
96480 On ch=1 n=c#5 v=0
96480 On ch=1 n=f#5 v=0
96480 On ch=1 n=d#4 v=40
96480 On ch=1 n=a#4 v=40
96720 On ch=1 n=a#4 v=0
96720 On ch=1 n=d#4 v=0
96720 On ch=1 n=f#5 v=40
96720 On ch=1 n=c#5 v=40
96960 On ch=1 n=c#5 v=0
96960 On ch=1 n=f#5 v=0
96960 On ch=1 n=d#5 v=40
96960 On ch=1 n=a#4 v=40
97200 On ch=1 n=a#4 v=0
97200 On ch=1 n=d#5 v=0
97200 On ch=1 n=f#5 v=40
97200 On ch=1 n=c#5 v=40
97440 On ch=1 n=c#5 v=0
97440 On ch=1 n=f#5 v=0
97440 On ch=1 n=d#4 v=40
97440 On ch=1 n=a#4 v=40
97680 On ch=1 n=a#4 v=0
97680 On ch=1 n=d#4 v=0
97680 On ch=1 n=f#5 v=40
97680 On ch=1 n=c#5 v=40
97920 On ch=1 n=c#5 v=0
97920 On ch=1 n=f#5 v=0
97920 On ch=1 n=d#5 v=40
97920 On ch=1 n=a#4 v=40
98160 On ch=1 n=a#4 v=0
98160 On ch=1 n=d#5 v=0
98160 On ch=1 n=c5 v=40
98400 On ch=1 n=c5 v=0
98400 On ch=1 n=d#4 v=40
98400 On ch=1 n=g#4 v=40
98640 On ch=1 n=g#4 v=0
98640 On ch=1 n=d#4 v=0
98640 On ch=1 n=c5 v=40
98880 On ch=1 n=c5 v=0
98880 On ch=1 n=g#3 v=40
98880 On ch=1 n=d#4 v=40
99120 On ch=1 n=d#4 v=0
99120 On ch=1 n=g#3 v=0
99120 On ch=1 n=c5 v=40
99360 On ch=1 n=c5 v=0
99360 On ch=1 n=d#5 v=40
99360 On ch=1 n=a#4 v=40
99600 On ch=1 n=a#4 v=0
99600 On ch=1 n=d#5 v=0
99600 On ch=1 n=c5 v=40
99840 On ch=1 n=c5 v=0
99840 On ch=1 n=d#4 v=40
99840 On ch=1 n=g#4 v=40
100080 On ch=1 n=g#4 v=0
100080 On ch=1 n=d#4 v=0
100080 On ch=1 n=c5 v=40
100320 On ch=1 n=c5 v=0
100320 On ch=1 n=g#3 v=40
100320 On ch=1 n=d#4 v=40
100560 On ch=1 n=d#4 v=0
100560 On ch=1 n=g#3 v=0
100560 On ch=1 n=c5 v=40
100800 On ch=1 n=c5 v=0
100800 On ch=1 n=d#5 v=40
100800 On ch=1 n=a#4 v=40
101040 On ch=1 n=a#4 v=0
101040 On ch=1 n=d#5 v=0
101040 On ch=1 n=c5 v=40
101280 On ch=1 n=c5 v=0
101280 On ch=1 n=d#4 v=40
101280 On ch=1 n=g#4 v=40
101520 On ch=1 n=g#4 v=0
101520 On ch=1 n=d#4 v=0
101520 On ch=1 n=c5 v=40
101760 On ch=1 n=c5 v=0
101760 On ch=1 n=g#3 v=40
101760 On ch=1 n=d#4 v=40
102000 On ch=1 n=d#4 v=0
102000 On ch=1 n=g#3 v=0
102000 On ch=1 n=c5 v=40
102240 On ch=1 n=c5 v=0
102240 On ch=1 n=d#5 v=40
102240 On ch=1 n=a#4 v=40
102480 On ch=1 n=a#4 v=0
102480 On ch=1 n=d#5 v=0
102480 On ch=1 n=f#5 v=40
102480 On ch=1 n=c5 v=40
102720 On ch=1 n=c5 v=0
102720 On ch=1 n=f#5 v=0
102720 On ch=1 n=d#4 v=40
102720 On ch=1 n=g#4 v=40
102960 On ch=1 n=g#4 v=0
102960 On ch=1 n=d#4 v=0
102960 On ch=1 n=f#5 v=40
102960 On ch=1 n=c5 v=40
103200 On ch=1 n=c5 v=0
103200 On ch=1 n=f#5 v=0
103200 On ch=1 n=g#3 v=40
103200 On ch=1 n=d#4 v=40
103440 On ch=1 n=d#4 v=0
103440 On ch=1 n=g#3 v=0
103440 On ch=1 n=f#5 v=40
103440 On ch=1 n=c5 v=40
103680 On ch=1 n=c5 v=0
103680 On ch=1 n=f#5 v=0
103680 On ch=1 n=c#3 v=80
103920 On ch=1 n=c#3 v=0
103920 On ch=1 n=g#3 v=80
104160 On ch=1 n=g#3 v=0
104880 On ch=1 n=f5 v=80
105120 On ch=1 n=f5 v=0
105120 On ch=1 n=g#3 v=80
105360 On ch=1 n=g#3 v=0
105360 On ch=1 n=f#4 v=80
105600 On ch=1 n=f#4 v=0
105600 On ch=1 n=a4 v=80
105840 On ch=1 n=a4 v=0
106320 On ch=1 n=f5 v=80
106560 On ch=1 n=f5 v=0
106560 On ch=1 n=c#3 v=80
106800 On ch=1 n=c#3 v=0
106800 On ch=1 n=g#3 v=80
107040 On ch=1 n=g#3 v=0
107760 On ch=1 n=f5 v=80
108000 On ch=1 n=f5 v=0
113760 On ch=1 n=d3 v=40
113760 On ch=1 n=a3 v=40
113880 On ch=1 n=a3 v=0
113880 On ch=1 n=d3 v=0
114000 On ch=1 n=f#4 v=40
114000 On ch=1 n=d4 v=40
114000 On ch=1 n=a3 v=40
114120 On ch=1 n=a3 v=0
114120 On ch=1 n=d4 v=0
114120 On ch=1 n=f#4 v=0
114240 On ch=1 n=a3 v=40
114360 On ch=1 n=a3 v=0
114480 On ch=1 n=f#4 v=40
114480 On ch=1 n=d4 v=40
114480 On ch=1 n=a3 v=40
114600 On ch=1 n=a3 v=0
114600 On ch=1 n=d4 v=0
114600 On ch=1 n=f#4 v=0
114720 On ch=1 n=d3 v=40
114720 On ch=1 n=a3 v=40
114840 On ch=1 n=a3 v=0
114840 On ch=1 n=d3 v=0
114960 On ch=1 n=f#4 v=40
114960 On ch=1 n=d4 v=40
114960 On ch=1 n=a3 v=40
115080 On ch=1 n=a3 v=0
115080 On ch=1 n=d4 v=0
115080 On ch=1 n=f#4 v=0
115200 On ch=1 n=a3 v=40
115320 On ch=1 n=a3 v=0
115440 On ch=1 n=f#4 v=40
115440 On ch=1 n=d4 v=40
115440 On ch=1 n=a3 v=40
115560 On ch=1 n=a3 v=0
115560 On ch=1 n=d4 v=0
115560 On ch=1 n=f#4 v=0
115680 On ch=1 n=d3 v=40
115680 On ch=1 n=a3 v=40
115800 On ch=1 n=a3 v=0
115800 On ch=1 n=d3 v=0
115920 On ch=1 n=f#4 v=40
115920 On ch=1 n=d4 v=40
116040 On ch=1 n=d4 v=0
116040 On ch=1 n=f#4 v=0
116040 On ch=1 n=a3 v=40
116160 On ch=1 n=a3 v=0
116160 On ch=1 n=f#4 v=40
116160 On ch=1 n=d4 v=40
116160 On ch=1 n=a3 v=40
116280 On ch=1 n=d4 v=0
116280 On ch=1 n=f#4 v=0
116280 On ch=1 n=a3 v=40
116400 On ch=1 n=a3 v=0
116400 On ch=1 n=a3 v=0
116400 On ch=1 n=g4 v=40
116400 On ch=1 n=e4 v=40
116520 On ch=1 n=e4 v=0
116520 On ch=1 n=g4 v=0
116520 On ch=1 n=a3 v=40
116640 On ch=1 n=a3 v=0
116640 On ch=1 n=d3 v=50
116640 On ch=1 n=a3 v=50
116760 On ch=1 n=a3 v=0
116760 On ch=1 n=d3 v=0
116880 On ch=1 n=a4 v=50
116880 On ch=1 n=f#4 v=50
117000 On ch=1 n=f#4 v=0
117000 On ch=1 n=a4 v=0
117000 On ch=1 n=a3 v=50
117120 On ch=1 n=a3 v=0
117120 On ch=1 n=a4 v=50
117120 On ch=1 n=f#4 v=50
117120 On ch=1 n=a3 v=50
117240 On ch=1 n=f#4 v=0
117240 On ch=1 n=a4 v=0
117240 On ch=1 n=a3 v=50
117360 On ch=1 n=a3 v=0
117360 On ch=1 n=a3 v=0
117360 On ch=1 n=b4 v=50
117360 On ch=1 n=g4 v=50
117480 On ch=1 n=g4 v=0
117480 On ch=1 n=b4 v=0
117480 On ch=1 n=a3 v=50
117600 On ch=1 n=a3 v=0
117600 On ch=1 n=d3 v=40
117600 On ch=1 n=a3 v=40
117720 On ch=1 n=a3 v=0
117720 On ch=1 n=d3 v=0
117840 On ch=1 n=a4 v=40
117840 On ch=1 n=f#4 v=40
117960 On ch=1 n=f#4 v=0
117960 On ch=1 n=a4 v=0
117960 On ch=1 n=a3 v=40
118080 On ch=1 n=a3 v=0
118080 On ch=1 n=a4 v=40
118080 On ch=1 n=f#4 v=40
118080 On ch=1 n=a3 v=40
118200 On ch=1 n=f#4 v=0
118200 On ch=1 n=a4 v=0
118200 On ch=1 n=a3 v=40
118320 On ch=1 n=a3 v=0
118320 On ch=1 n=a3 v=0
118320 On ch=1 n=g4 v=40
118320 On ch=1 n=e4 v=40
118440 On ch=1 n=e4 v=0
118440 On ch=1 n=g4 v=0
118440 On ch=1 n=a3 v=40
118560 On ch=1 n=a3 v=0
118560 On ch=1 n=f3 v=100
118680 On ch=1 n=f3 v=0
118800 On ch=1 n=c4 v=100
118920 On ch=1 n=c4 v=0
119040 On ch=1 n=f4 v=100
119280 On ch=1 n=f4 v=0
119280 On ch=1 n=f#4 v=100
119520 On ch=1 n=f#4 v=0
119520 On ch=1 n=g#4 v=100
120000 On ch=1 n=g#4 v=0
120000 On ch=1 n=a#3 v=100
120240 On ch=1 n=a#3 v=0
120240 On ch=1 n=f4 v=100
120480 On ch=1 n=f4 v=0
121920 On ch=1 n=d3 v=40
121920 On ch=1 n=a3 v=40
122160 On ch=1 n=a3 v=0
122160 On ch=1 n=d3 v=0
122160 On ch=1 n=f#4 v=40
122160 On ch=1 n=d4 v=40
122160 On ch=1 n=a3 v=40
122400 On ch=1 n=a3 v=0
122400 On ch=1 n=d4 v=0
122400 On ch=1 n=f#4 v=0
122400 On ch=1 n=a3 v=40
122640 On ch=1 n=a3 v=0
122640 On ch=1 n=f#4 v=40
122640 On ch=1 n=d4 v=40
122640 On ch=1 n=a3 v=40
122880 On ch=1 n=a3 v=0
122880 On ch=1 n=d4 v=0
122880 On ch=1 n=f#4 v=0
122880 On ch=1 n=d3 v=40
122880 On ch=1 n=a3 v=40
123120 On ch=1 n=a3 v=0
123120 On ch=1 n=d3 v=0
123120 On ch=1 n=f#4 v=40
123120 On ch=1 n=d4 v=40
123120 On ch=1 n=a3 v=40
123360 On ch=1 n=a3 v=0
123360 On ch=1 n=d4 v=0
123360 On ch=1 n=f#4 v=0
123360 On ch=1 n=a3 v=40
123600 On ch=1 n=a3 v=0
123600 On ch=1 n=f#4 v=40
123600 On ch=1 n=d4 v=40
123600 On ch=1 n=a3 v=40
123840 On ch=1 n=a3 v=0
123840 On ch=1 n=d4 v=0
123840 On ch=1 n=f#4 v=0
123840 On ch=1 n=d3 v=40
123840 On ch=1 n=a3 v=4
124080 On ch=1 n=a3 v=0
124080 On ch=1 n=d3 v=0
124080 On ch=1 n=f#4 v=40
124080 On ch=1 n=d4 v=40
124200 On ch=1 n=d4 v=0
124200 On ch=1 n=f#4 v=0
124200 On ch=1 n=a3 v=40
124320 On ch=1 n=a3 v=0
124320 On ch=1 n=f#4 v=40
124320 On ch=1 n=d4 v=40
124320 On ch=1 n=a3 v=40
124440 On ch=1 n=d4 v=0
124440 On ch=1 n=f#4 v=0
124440 On ch=1 n=a3 v=40
124560 On ch=1 n=a3 v=0
124560 On ch=1 n=a3 v=0
124560 On ch=1 n=g4 v=40
124560 On ch=1 n=e4 v=40
124680 On ch=1 n=e4 v=0
124680 On ch=1 n=g4 v=0
124680 On ch=1 n=a3 v=40
124800 On ch=1 n=a3 v=0
124800 On ch=1 n=f3 v=100
124920 On ch=1 n=f3 v=0
125040 On ch=1 n=c4 v=100
125160 On ch=1 n=c4 v=0
125280 On ch=1 n=f4 v=100
125520 On ch=1 n=f4 v=0
125520 On ch=1 n=f#4 v=100
125760 On ch=1 n=f#4 v=0
125760 On ch=1 n=g#4 v=100
126240 On ch=1 n=g#4 v=0
126240 On ch=1 n=f3 v=100
126480 On ch=1 n=f3 v=0
126480 On ch=1 n=a#3 v=100
126720 On ch=1 n=a#3 v=0
126720 On ch=1 n=c#5 v=100
126720 On ch=1 n=a#4 v=100
126720 On ch=1 n=g#4 v=100
126720 On ch=1 n=e4 v=100
126960 On ch=1 n=g#4 v=0
126960 On ch=1 n=a#4 v=0
126960 On ch=1 n=c#5 v=0
126960 On ch=1 n=f#4 v=100
127200 On ch=1 n=f#4 v=0
127200 On ch=1 n=c#5 v=100
127200 On ch=1 n=a#4 v=100
127200 On ch=1 n=g#4 v=100
127440 On ch=1 n=g#4 v=0
127440 On ch=1 n=a#4 v=0
127440 On ch=1 n=c#5 v=0
127440 On ch=1 n=f#4 v=100
127680 On ch=1 n=f#4 v=0
127680 On ch=1 n=e4 v=0
127680 On ch=1 n=f3 v=100
127800 On ch=1 n=f3 v=0
127920 On ch=1 n=c4 v=100
128040 On ch=1 n=c4 v=0
128160 On ch=1 n=f4 v=100
128400 On ch=1 n=f4 v=0
128400 On ch=1 n=f#4 v=100
128640 On ch=1 n=f#4 v=0
128640 On ch=1 n=g#4 v=100
129120 On ch=1 n=g#4 v=0
129120 On ch=1 n=f3 v=100
129360 On ch=1 n=f3 v=0
129360 On ch=1 n=a#3 v=100
129600 On ch=1 n=a#3 v=0
129600 On ch=1 n=c#5 v=100
129600 On ch=1 n=a#4 v=100
129600 On ch=1 n=g#4 v=100
129600 On ch=1 n=e4 v=100
129840 On ch=1 n=g#4 v=0
129840 On ch=1 n=a#4 v=0
129840 On ch=1 n=c#5 v=0
129840 On ch=1 n=f#4 v=100
130080 On ch=1 n=f#4 v=0
130080 On ch=1 n=c#5 v=100
130080 On ch=1 n=a#4 v=100
130080 On ch=1 n=g#4 v=100
130320 On ch=1 n=g#4 v=0
130320 On ch=1 n=a#4 v=0
130320 On ch=1 n=c#5 v=0
130320 On ch=1 n=f#4 v=100
130560 On ch=1 n=f#4 v=0
130560 On ch=1 n=e4 v=0
130560 On ch=1 n=a#3 v=80
130800 On ch=1 n=a#3 v=0
130800 On ch=1 n=e4 v=80
131040 On ch=1 n=e4 v=0
131040 On ch=1 n=c#5 v=80
131040 On ch=1 n=a#4 v=80
131040 On ch=1 n=g#4 v=80
131280 On ch=1 n=g#4 v=0
131280 On ch=1 n=a#4 v=0
131280 On ch=1 n=c#5 v=0
131280 On ch=1 n=f#4 v=80
131520 On ch=1 n=f#4 v=0
131520 On ch=1 n=c#5 v=80
131520 On ch=1 n=a#4 v=80
131520 On ch=1 n=g#4 v=80
131760 On ch=1 n=g#4 v=0
131760 On ch=1 n=a#4 v=0
131760 On ch=1 n=c#5 v=0
131760 On ch=1 n=f#4 v=80
132000 On ch=1 n=f#4 v=0
132000 On ch=1 n=a#3 v=70
132240 On ch=1 n=a#3 v=0
132240 On ch=1 n=e4 v=70
132480 On ch=1 n=e4 v=0
132480 On ch=1 n=c#5 v=70
132480 On ch=1 n=a#4 v=70
132480 On ch=1 n=g#4 v=70
132720 On ch=1 n=g#4 v=0
132720 On ch=1 n=a#4 v=0
132720 On ch=1 n=c#5 v=0
132720 On ch=1 n=f#4 v=70
132960 On ch=1 n=f#4 v=0
132960 On ch=1 n=c#5 v=70
132960 On ch=1 n=a#4 v=70
132960 On ch=1 n=g#4 v=70
133200 On ch=1 n=g#4 v=0
133200 On ch=1 n=a#4 v=0
133200 On ch=1 n=c#5 v=0
133200 On ch=1 n=f#4 v=70
133440 On ch=1 n=f#4 v=0
133440 On ch=1 n=a#3 v=60
133680 On ch=1 n=a#3 v=0
133680 On ch=1 n=e4 v=60
133920 On ch=1 n=e4 v=0
133920 On ch=1 n=c#5 v=60
133920 On ch=1 n=a#4 v=60
133920 On ch=1 n=g#4 v=60
134160 On ch=1 n=g#4 v=0
134160 On ch=1 n=a#4 v=0
134160 On ch=1 n=c#5 v=0
134160 On ch=1 n=f#4 v=60
134400 On ch=1 n=f#4 v=0
134400 On ch=1 n=c#5 v=60
134400 On ch=1 n=a#4 v=60
134400 On ch=1 n=g#4 v=60
134640 On ch=1 n=g#4 v=0
134640 On ch=1 n=a#4 v=0
134640 On ch=1 n=c#5 v=0
134640 On ch=1 n=f#4 v=60
134880 On ch=1 n=f#4 v=0
134880 On ch=1 n=a#3 v=50
135120 On ch=1 n=a#3 v=0
135120 On ch=1 n=e4 v=50
135360 On ch=1 n=e4 v=0
135360 On ch=1 n=c#5 v=50
135360 On ch=1 n=a#4 v=50
135360 On ch=1 n=g#4 v=50
135600 On ch=1 n=g#4 v=0
135600 On ch=1 n=a#4 v=0
135600 On ch=1 n=c#5 v=0
135600 On ch=1 n=f#4 v=50
135840 On ch=1 n=f#4 v=0
135840 On ch=1 n=c#5 v=50
135840 On ch=1 n=a#4 v=50
135840 On ch=1 n=g#4 v=50
136080 On ch=1 n=g#4 v=0
136080 On ch=1 n=a#4 v=0
136080 On ch=1 n=c#5 v=0
136080 On ch=1 n=f#4 v=50
136320 On ch=1 n=f#4 v=0
136320 On ch=1 n=a#3 v=40
136560 On ch=1 n=a#3 v=0
136560 On ch=1 n=e4 v=40
136800 On ch=1 n=e4 v=0
136800 On ch=1 n=c#5 v=40
136800 On ch=1 n=a#4 v=40
136800 On ch=1 n=g#4 v=40
137040 On ch=1 n=g#4 v=0
137040 On ch=1 n=a#4 v=0
137040 On ch=1 n=c#5 v=0
137040 On ch=1 n=f#4 v=40
137280 On ch=1 n=f#4 v=0
137280 On ch=1 n=c#5 v=40
137280 On ch=1 n=a#4 v=40
137280 On ch=1 n=g#4 v=40
137520 On ch=1 n=g#4 v=0
137520 On ch=1 n=a#4 v=0
137520 On ch=1 n=c#5 v=0
137520 On ch=1 n=f#4 v=40
137760 On ch=1 n=f#4 v=0
137760 On ch=1 n=a#3 v=40
138000 On ch=1 n=a#3 v=0
138000 On ch=1 n=e4 v=40
138240 On ch=1 n=e4 v=0
138240 On ch=1 n=c#5 v=40
138240 On ch=1 n=a#4 v=40
138240 On ch=1 n=g#4 v=40
138480 On ch=1 n=g#4 v=0
138480 On ch=1 n=a#4 v=0
138480 On ch=1 n=c#5 v=0
138480 On ch=1 n=f#4 v=40
138720 On ch=1 n=f#4 v=0
138720 On ch=1 n=c#5 v=40
138720 On ch=1 n=a#4 v=40
138720 On ch=1 n=g#4 v=40
138960 On ch=1 n=g#4 v=0
138960 On ch=1 n=a#4 v=0
138960 On ch=1 n=c#5 v=0
138960 On ch=1 n=f#4 v=40
139200 On ch=1 n=f#4 v=0
139200 On ch=1 n=a#3 v=40
139440 On ch=1 n=a#3 v=0
139440 On ch=1 n=e4 v=40
139680 On ch=1 n=e4 v=0
139680 On ch=1 n=c#5 v=40
139680 On ch=1 n=a#4 v=40
139680 On ch=1 n=g#4 v=40
139920 On ch=1 n=g#4 v=0
139920 On ch=1 n=a#4 v=0
139920 On ch=1 n=c#5 v=0
139920 On ch=1 n=f#4 v=40
140160 On ch=1 n=f#4 v=0
140160 On ch=1 n=c#5 v=40
140160 On ch=1 n=a#4 v=40
140160 On ch=1 n=g#4 v=40
140400 On ch=1 n=g#4 v=0
140400 On ch=1 n=a#4 v=0
140400 On ch=1 n=c#5 v=0
140400 On ch=1 n=f#4 v=40
140640 On ch=1 n=f#4 v=0
140640 On ch=1 n=a#3 v=40
140880 On ch=1 n=a#3 v=0
140880 On ch=1 n=f4 v=40
141120 On ch=1 n=f4 v=0
141120 On ch=1 n=c#5 v=40
141120 On ch=1 n=a#4 v=40
141120 On ch=1 n=g#4 v=40
141360 On ch=1 n=g#4 v=0
141360 On ch=1 n=a#4 v=0
141360 On ch=1 n=c#5 v=0
141360 On ch=1 n=f#4 v=40
141600 On ch=1 n=f#4 v=0
141600 On ch=1 n=c#5 v=40
141600 On ch=1 n=a#4 v=40
141600 On ch=1 n=g#4 v=40
141840 On ch=1 n=g#4 v=0
141840 On ch=1 n=a#4 v=0
141840 On ch=1 n=c#5 v=0
141840 On ch=1 n=f#4 v=40
142080 On ch=1 n=f#4 v=0
142080 On ch=1 n=a#3 v=40
142320 On ch=1 n=a#3 v=0
142320 On ch=1 n=f4 v=40
142560 On ch=1 n=f4 v=0
142560 On ch=1 n=c#5 v=40
142560 On ch=1 n=a#4 v=40
142560 On ch=1 n=g#4 v=40
142800 On ch=1 n=g#4 v=0
142800 On ch=1 n=a#4 v=0
142800 On ch=1 n=c#5 v=0
142800 On ch=1 n=f#4 v=40
143040 On ch=1 n=f#4 v=0
143040 On ch=1 n=c#5 v=40
143040 On ch=1 n=a#4 v=40
143040 On ch=1 n=g#4 v=40
143280 On ch=1 n=g#4 v=0
143280 On ch=1 n=a#4 v=0
143280 On ch=1 n=c#5 v=0
143280 On ch=1 n=f#4 v=40
143520 On ch=1 n=f#4 v=0
143520 On ch=1 n=a#3 v=40
143760 On ch=1 n=a#3 v=0
143760 On ch=1 n=f4 v=40
144000 On ch=1 n=f4 v=0
144000 On ch=1 n=c#5 v=40
144000 On ch=1 n=a#4 v=40
144000 On ch=1 n=g#4 v=40
144240 On ch=1 n=g#4 v=0
144240 On ch=1 n=a#4 v=0
144240 On ch=1 n=c#5 v=0
144240 On ch=1 n=f#4 v=40
144480 On ch=1 n=f#4 v=0
144480 On ch=1 n=c#5 v=40
144480 On ch=1 n=a#4 v=40
144480 On ch=1 n=g#4 v=40
144720 On ch=1 n=g#4 v=0
144720 On ch=1 n=a#4 v=0
144720 On ch=1 n=c#5 v=0
144720 On ch=1 n=f#4 v=40
144960 On ch=1 n=f#4 v=0
144960 On ch=1 n=a#3 v=40
145200 On ch=1 n=a#3 v=0
145200 On ch=1 n=f4 v=40
145440 On ch=1 n=f4 v=0
145440 On ch=1 n=c#5 v=40
145440 On ch=1 n=a#4 v=40
145440 On ch=1 n=g#4 v=40
145680 On ch=1 n=g#4 v=0
145680 On ch=1 n=a#4 v=0
145680 On ch=1 n=c#5 v=0
145680 On ch=1 n=f#4 v=40
145920 On ch=1 n=f#4 v=0
145920 On ch=1 n=c#5 v=40
145920 On ch=1 n=a#4 v=40
145920 On ch=1 n=g#4 v=40
146160 On ch=1 n=g#4 v=0
146160 On ch=1 n=a#4 v=0
146160 On ch=1 n=c#5 v=0
146160 On ch=1 n=f#4 v=40
146400 On ch=1 n=f#4 v=0
146400 On ch=1 n=a#3 v=40
146640 On ch=1 n=a#3 v=0
146640 On ch=1 n=e4 v=40
146880 On ch=1 n=e4 v=0
146880 On ch=1 n=c#5 v=40
146880 On ch=1 n=a#4 v=40
146880 On ch=1 n=g#4 v=40
147120 On ch=1 n=g#4 v=0
147120 On ch=1 n=a#4 v=0
147120 On ch=1 n=c#5 v=0
147120 On ch=1 n=f#4 v=40
147360 On ch=1 n=f#4 v=0
147360 On ch=1 n=c#5 v=40
147360 On ch=1 n=a#4 v=40
147360 On ch=1 n=g#4 v=40
147600 On ch=1 n=g#4 v=0
147600 On ch=1 n=a#4 v=0
147600 On ch=1 n=c#5 v=0
147600 On ch=1 n=f#4 v=40
147840 On ch=1 n=f#4 v=0
147840 On ch=1 n=a#3 v=40
148080 On ch=1 n=a#3 v=0
148080 On ch=1 n=e4 v=40
148320 On ch=1 n=e4 v=0
148320 On ch=1 n=c#5 v=40
148320 On ch=1 n=a#4 v=40
148320 On ch=1 n=g#4 v=40
148560 On ch=1 n=g#4 v=0
148560 On ch=1 n=a#4 v=0
148560 On ch=1 n=c#5 v=0
148560 On ch=1 n=f#4 v=40
148800 On ch=1 n=f#4 v=0
148800 On ch=1 n=c#5 v=40
148800 On ch=1 n=a#4 v=40
148800 On ch=1 n=g#4 v=40
149040 On ch=1 n=g#4 v=0
149040 On ch=1 n=a#4 v=0
149040 On ch=1 n=c#5 v=0
149040 On ch=1 n=f#4 v=40
149280 On ch=1 n=f#4 v=0
149280 On ch=1 n=a#3 v=40
149520 On ch=1 n=a#3 v=0
149520 On ch=1 n=e4 v=40
149760 On ch=1 n=e4 v=0
149760 On ch=1 n=c#5 v=40
149760 On ch=1 n=a#4 v=40
149760 On ch=1 n=g#4 v=40
150000 On ch=1 n=g#4 v=0
150000 On ch=1 n=a#4 v=0
150000 On ch=1 n=c#5 v=0
150000 On ch=1 n=f#4 v=40
150240 On ch=1 n=f#4 v=0
150240 On ch=1 n=c#5 v=40
150240 On ch=1 n=a#4 v=40
150240 On ch=1 n=g#4 v=40
150480 On ch=1 n=g#4 v=0
150480 On ch=1 n=a#4 v=0
150480 On ch=1 n=c#5 v=0
150480 On ch=1 n=f#4 v=40
150720 On ch=1 n=f#4 v=0
150720 On ch=1 n=a#3 v=40
150960 On ch=1 n=a#3 v=0
150960 On ch=1 n=e4 v=40
151200 On ch=1 n=e4 v=0
151200 On ch=1 n=c#5 v=40
151200 On ch=1 n=a#4 v=40
151200 On ch=1 n=g#4 v=40
151440 On ch=1 n=g#4 v=0
151440 On ch=1 n=a#4 v=0
151440 On ch=1 n=c#5 v=0
151440 On ch=1 n=f#4 v=40
151680 On ch=1 n=f#4 v=0
151680 On ch=1 n=c#5 v=40
151680 On ch=1 n=a#4 v=40
151680 On ch=1 n=g#4 v=40
151920 On ch=1 n=g#4 v=0
151920 On ch=1 n=a#4 v=0
151920 On ch=1 n=c#5 v=0
151920 On ch=1 n=f#4 v=40
152160 On ch=1 n=f#4 v=0
152160 On ch=1 n=a#3 v=40
152400 On ch=1 n=a#3 v=0
152400 On ch=1 n=f4 v=40
152640 On ch=1 n=f4 v=0
152640 On ch=1 n=c#5 v=40
152640 On ch=1 n=a#4 v=40
152640 On ch=1 n=g#4 v=40
152880 On ch=1 n=g#4 v=0
152880 On ch=1 n=a#4 v=0
152880 On ch=1 n=c#5 v=0
152880 On ch=1 n=f#4 v=40
153120 On ch=1 n=f#4 v=0
153120 On ch=1 n=c#5 v=40
153120 On ch=1 n=a#4 v=40
153120 On ch=1 n=g#4 v=40
153360 On ch=1 n=g#4 v=0
153360 On ch=1 n=a#4 v=0
153360 On ch=1 n=c#5 v=0
153360 On ch=1 n=f#4 v=40
153600 On ch=1 n=f#4 v=0
153600 On ch=1 n=a#3 v=40
153840 On ch=1 n=a#3 v=0
153840 On ch=1 n=f4 v=40
154080 On ch=1 n=f4 v=0
154080 On ch=1 n=c#5 v=40
154080 On ch=1 n=a#4 v=40
154080 On ch=1 n=g#4 v=40
154320 On ch=1 n=g#4 v=0
154320 On ch=1 n=a#4 v=0
154320 On ch=1 n=c#5 v=0
154320 On ch=1 n=f#4 v=40
154560 On ch=1 n=f#4 v=0
154560 On ch=1 n=c#5 v=40
154560 On ch=1 n=a#4 v=40
154560 On ch=1 n=g#4 v=40
154800 On ch=1 n=g#4 v=0
154800 On ch=1 n=a#4 v=0
154800 On ch=1 n=c#5 v=0
154800 On ch=1 n=f#4 v=40
155040 On ch=1 n=f#4 v=0
155040 On ch=1 n=a#3 v=40
155280 On ch=1 n=a#3 v=0
155280 On ch=1 n=f4 v=40
155520 On ch=1 n=f4 v=0
155520 On ch=1 n=c#5 v=40
155520 On ch=1 n=a#4 v=40
155520 On ch=1 n=g#4 v=40
155760 On ch=1 n=g#4 v=0
155760 On ch=1 n=a#4 v=0
155760 On ch=1 n=c#5 v=0
155760 On ch=1 n=f#4 v=40
156000 On ch=1 n=f#4 v=0
156000 On ch=1 n=c#5 v=40
156000 On ch=1 n=a#4 v=40
156000 On ch=1 n=g#4 v=40
156240 On ch=1 n=g#4 v=0
156240 On ch=1 n=a#4 v=0
156240 On ch=1 n=c#5 v=0
156240 On ch=1 n=f#4 v=40
156480 On ch=1 n=f#4 v=0
156480 On ch=1 n=a#3 v=40
156720 On ch=1 n=a#3 v=0
156720 On ch=1 n=f4 v=40
156960 On ch=1 n=f4 v=0
156960 On ch=1 n=f#4 v=40
157200 On ch=1 n=f#4 v=0
157200 On ch=1 n=g#4 v=40
157440 On ch=1 n=g#4 v=0
157440 On ch=1 n=a#4 v=40
157680 On ch=1 n=a#4 v=0
157680 On ch=1 n=c5 v=40
157920 On ch=1 n=c5 v=0
157920 On ch=1 n=g4 v=40
157920 On ch=1 n=f4 v=40
158400 On ch=1 n=g4 v=0
158400 On ch=1 n=a#3 v=40
158880 On ch=1 n=a#3 v=0
158880 On ch=1 n=f4 v=0
158880 On ch=1 n=d#3 v=40
159360 On ch=1 n=d#3 v=0
159360 On ch=1 n=g4 v=40
159360 On ch=1 n=f4 v=40
159840 On ch=1 n=g4 v=0
159840 On ch=1 n=a#3 v=40
160320 On ch=1 n=a#3 v=0
160320 On ch=1 n=f4 v=0
160320 On ch=1 n=d#3 v=40
160800 On ch=1 n=d#3 v=0
160800 On ch=1 n=g4 v=40
160800 On ch=1 n=f4 v=40
161280 On ch=1 n=g4 v=0
161280 On ch=1 n=a#3 v=40
161760 On ch=1 n=a#3 v=0
161760 On ch=1 n=f4 v=0
161760 On ch=1 n=d#3 v=40
162240 On ch=1 n=d#3 v=0
162240 On ch=1 n=g4 v=40
162240 On ch=1 n=f4 v=40
162720 On ch=1 n=g4 v=0
162720 On ch=1 n=a#3 v=40
163200 On ch=1 n=a#3 v=0
163200 On ch=1 n=f4 v=0
163200 On ch=1 n=d#3 v=40
163680 On ch=1 n=d#3 v=0
163680 On ch=1 n=g4 v=30
163680 On ch=1 n=e4 v=30
164160 On ch=1 n=g4 v=0
164160 On ch=1 n=a#3 v=30
164640 On ch=1 n=a#3 v=0
164640 On ch=1 n=e4 v=0
164640 On ch=1 n=d#3 v=30
165120 On ch=1 n=d#3 v=0
165120 On ch=1 n=g4 v=30
165120 On ch=1 n=e4 v=30
165600 On ch=1 n=g4 v=0
165600 On ch=1 n=a#3 v=30
166080 On ch=1 n=a#3 v=0
166080 On ch=1 n=e4 v=0
166080 On ch=1 n=d#3 v=30
166560 On ch=1 n=d#3 v=0
166560 On ch=1 n=g4 v=30
166560 On ch=1 n=e4 v=30
167040 On ch=1 n=g4 v=0
167040 On ch=1 n=a#3 v=30
167520 On ch=1 n=a#3 v=0
167520 On ch=1 n=e4 v=0
167520 On ch=1 n=d#3 v=30
168000 On ch=1 n=d#3 v=0
168000 On ch=1 n=g4 v=30
168000 On ch=1 n=e4 v=30
168480 On ch=1 n=g4 v=0
168480 On ch=1 n=a#3 v=30
168960 On ch=1 n=a#3 v=0
168960 On ch=1 n=e4 v=0
168960 On ch=1 n=d#3 v=30
169440 On ch=1 n=d#3 v=0
169440 On ch=1 n=d#4 v=30
169440 On ch=1 n=f#4 v=30
169920 On ch=1 n=d#4 v=0
169920 On ch=1 n=a#3 v=30
170400 On ch=1 n=a#3 v=0
170400 On ch=1 n=f#4 v=0
170400 On ch=1 n=d#3 v=30
170880 On ch=1 n=d#3 v=0
170880 On ch=1 n=d#4 v=30
170880 On ch=1 n=f#4 v=30
171360 On ch=1 n=d#4 v=0
171360 On ch=1 n=a#3 v=30
171840 On ch=1 n=a#3 v=0
171840 On ch=1 n=f#4 v=0
171840 On ch=1 n=d#3 v=30
172320 On ch=1 n=d#3 v=0
172320 On ch=1 n=d#4 v=30
172320 On ch=1 n=f#4 v=30
172800 On ch=1 n=d#4 v=0
172800 On ch=1 n=a#3 v=30
173280 On ch=1 n=a#3 v=0
173280 On ch=1 n=f#4 v=0
173280 On ch=1 n=d#3 v=30
173760 On ch=1 n=d#3 v=0
173760 On ch=1 n=d#4 v=30
173760 On ch=1 n=f#4 v=30
174240 On ch=1 n=d#4 v=0
174240 On ch=1 n=a#3 v=30
174720 On ch=1 n=a#3 v=0
174720 On ch=1 n=f#4 v=0
174720 On ch=1 n=d#3 v=30
175200 On ch=1 n=d#3 v=0
175200 On ch=1 n=f3 v=40
175320 On ch=1 n=f3 v=0
175440 On ch=1 n=c4 v=40
175560 On ch=1 n=c4 v=0
175680 On ch=1 n=f4 v=40
175800 On ch=1 n=f4 v=0
175920 On ch=1 n=f#4 v=40
176040 On ch=1 n=f#4 v=0
176160 On ch=1 n=g#4 v=40
176280 On ch=1 n=g#4 v=0
176640 On ch=1 n=a#3 v=40
176760 On ch=1 n=a#3 v=0
176880 On ch=1 n=f4 v=40
177000 On ch=1 n=f4 v=0
177120 On ch=1 n=f#4 v=40
177240 On ch=1 n=f#4 v=0
177360 On ch=1 n=g#4 v=40
177480 On ch=1 n=g#4 v=0
177600 On ch=1 n=a4 v=40
177720 On ch=1 n=a4 v=0
178080 On ch=1 n=f3 v=40
178200 On ch=1 n=f3 v=0
178320 On ch=1 n=c4 v=40
178440 On ch=1 n=c4 v=0
178560 On ch=1 n=f4 v=40
178680 On ch=1 n=f4 v=0
178800 On ch=1 n=f#4 v=40
178920 On ch=1 n=f#4 v=0
179040 On ch=1 n=g#4 v=40
179160 On ch=1 n=g#4 v=0
179520 On ch=1 n=a#3 v=40
179640 On ch=1 n=a#3 v=0
179760 On ch=1 n=f4 v=40
179880 On ch=1 n=f4 v=0
180000 On ch=1 n=f#4 v=40
180120 On ch=1 n=f#4 v=0
180240 On ch=1 n=g#4 v=40
180360 On ch=1 n=g#4 v=0
180480 On ch=1 n=a4 v=40
180600 On ch=1 n=a4 v=0
180960 On ch=1 n=f4 v=40
181080 On ch=1 n=f4 v=0
181200 On ch=1 n=f4 v=40
181320 On ch=1 n=f4 v=0
181440 On ch=1 n=d#4 v=40
181560 On ch=1 n=d#4 v=0
181680 On ch=1 n=d#4 v=40
181800 On ch=1 n=d#4 v=0
181920 On ch=1 n=c#4 v=40
182040 On ch=1 n=c#4 v=0
182160 On ch=1 n=c#4 v=40
182280 On ch=1 n=c#4 v=0
182400 On ch=1 n=b3 v=40
182520 On ch=1 n=b3 v=0
182640 On ch=1 n=b3 v=40
182760 On ch=1 n=b3 v=0
182880 On ch=1 n=a#3 v=40
183000 On ch=1 n=a#3 v=0
183120 On ch=1 n=a#3 v=40
183240 On ch=1 n=a#3 v=0
183360 On ch=1 n=f#3 v=40
183480 On ch=1 n=f#3 v=0
183600 On ch=1 n=f#3 v=40
183720 On ch=1 n=f#3 v=0
183840 On ch=1 n=f3 v=40
183960 On ch=1 n=f3 v=0
184080 On ch=1 n=c#4 v=40
184080 On ch=1 n=a#3 v=40
184080 On ch=1 n=f#3 v=40
184200 On ch=1 n=f#3 v=0
184200 On ch=1 n=a#3 v=0
184200 On ch=1 n=c#4 v=0
184320 On ch=1 n=f3 v=40
184440 On ch=1 n=f3 v=0
184560 On ch=1 n=a#3 v=40
184560 On ch=1 n=d#3 v=40
184560 On ch=1 n=f#3 v=40
184680 On ch=1 n=f#3 v=0
184680 On ch=1 n=d#3 v=0
184680 On ch=1 n=a#3 v=0
184800 On ch=1 n=f3 v=40
184920 On ch=1 n=f3 v=0
185040 On ch=1 n=c#4 v=40
185040 On ch=1 n=a#3 v=40
185040 On ch=1 n=f#3 v=40
185160 On ch=1 n=f#3 v=0
185160 On ch=1 n=a#3 v=0
185160 On ch=1 n=c#4 v=0
185280 On ch=1 n=f3 v=40
185400 On ch=1 n=f3 v=0
185520 On ch=1 n=c#4 v=40
185520 On ch=1 n=a#3 v=40
185520 On ch=1 n=g3 v=40
185640 On ch=1 n=g3 v=0
185640 On ch=1 n=a#3 v=0
185640 On ch=1 n=c#4 v=0
185760 On ch=1 n=f3 v=40
185880 On ch=1 n=f3 v=0
186000 On ch=1 n=d#3 v=40
186000 On ch=1 n=g3 v=40
186000 On ch=1 n=a#3 v=40
186120 On ch=1 n=a#3 v=0
186120 On ch=1 n=g3 v=0
186120 On ch=1 n=d#3 v=0
186240 On ch=1 n=f3 v=40
186360 On ch=1 n=f3 v=0
186480 On ch=1 n=c#4 v=40
186480 On ch=1 n=a#3 v=40
186480 On ch=1 n=g3 v=40
186600 On ch=1 n=g3 v=0
186600 On ch=1 n=a#3 v=0
186600 On ch=1 n=c#4 v=0
186720 On ch=1 n=f3 v=40
187200 On ch=1 n=c#4 v=127
187200 On ch=1 n=a#3 v=127
187200 On ch=1 n=f#3 v=127
187680 On ch=1 n=f#3 v=0
187680 On ch=1 n=a#3 v=0
187680 On ch=1 n=c#4 v=0
188160 On ch=1 n=c#4 v=127
188160 On ch=1 n=a#3 v=127
188160 On ch=1 n=f#3 v=127
188640 On ch=1 n=f#3 v=0
188640 On ch=1 n=a#3 v=0
188640 On ch=1 n=c#4 v=0
191040 On ch=1 n=f3 v=0
191280 On ch=1 n=d#4 v=40
191280 On ch=1 n=c4 v=40
191280 On ch=1 n=g#3 v=40
191400 On ch=1 n=g#3 v=0
191400 On ch=1 n=c4 v=0
191400 On ch=1 n=d#4 v=0
191520 On ch=1 n=f3 v=40
191640 On ch=1 n=f3 v=0
191760 On ch=1 n=d#3 v=40
191880 On ch=1 n=d#3 v=0
192000 On ch=1 n=c#3 v=30
192120 On ch=1 n=c#3 v=0
192240 On ch=1 n=c3 v=30
192360 On ch=1 n=c3 v=0
192480 On ch=1 n=a#2 v=30
192480 On ch=1 n=f3 v=30
192480 On ch=1 n=f4 v=30
192480 On ch=1 n=c#4 v=30
192480 On ch=1 n=a#3 v=30
192600 On ch=1 n=a#3 v=0
192600 On ch=1 n=c#4 v=0
192600 On ch=1 n=f4 v=0
192600 On ch=1 n=f3 v=0
192600 On ch=1 n=a#2 v=0
192600 Meta TrkEnd
TrkEnd
MTrk
0 SeqSpec 43 00 01 00
0 Meta TrkName "Pedal"
0 Meta 0x21 00
34560 Par ch=1 c=64 v=127
35880 Par ch=1 c=64 v=0
36000 Par ch=1 c=64 v=127
37320 Par ch=1 c=64 v=0
37440 Par ch=1 c=64 v=127
38760 Par ch=1 c=64 v=0
38880 Par ch=1 c=64 v=127
40200 Par ch=1 c=64 v=0
40320 Par ch=1 c=64 v=127
41640 Par ch=1 c=64 v=0
41760 Par ch=1 c=64 v=127
43080 Par ch=1 c=64 v=0
43200 Par ch=1 c=64 v=127
44520 Par ch=1 c=64 v=0
44640 Par ch=1 c=64 v=127
45960 Par ch=1 c=64 v=0
46080 Par ch=1 c=64 v=127
47400 Par ch=1 c=64 v=0
47520 Par ch=1 c=64 v=127
48840 Par ch=1 c=64 v=0
48960 Par ch=1 c=64 v=127
50280 Par ch=1 c=64 v=0
50400 Par ch=1 c=64 v=127
51720 Par ch=1 c=64 v=0
51840 Par ch=1 c=64 v=127
53160 Par ch=1 c=64 v=0
53280 Par ch=1 c=64 v=127
54600 Par ch=1 c=64 v=0
54720 Par ch=1 c=64 v=127
56040 Par ch=1 c=64 v=0
56160 Par ch=1 c=64 v=127
57480 Par ch=1 c=64 v=0
77760 Par ch=1 c=64 v=127
79080 Par ch=1 c=64 v=0
79200 Par ch=1 c=64 v=127
80520 Par ch=1 c=64 v=0
80640 Par ch=1 c=64 v=127
81960 Par ch=1 c=64 v=0
82080 Par ch=1 c=64 v=127
83400 Par ch=1 c=64 v=0
83520 Par ch=1 c=64 v=127
84840 Par ch=1 c=64 v=0
84960 Par ch=1 c=64 v=127
86280 Par ch=1 c=64 v=0
86400 Par ch=1 c=64 v=127
87720 Par ch=1 c=64 v=0
87840 Par ch=1 c=64 v=127
89160 Par ch=1 c=64 v=0
89280 Par ch=1 c=64 v=127
90600 Par ch=1 c=64 v=0
90720 Par ch=1 c=64 v=127
92040 Par ch=1 c=64 v=0
92160 Par ch=1 c=64 v=127
93480 Par ch=1 c=64 v=0
93600 Par ch=1 c=64 v=127
94920 Par ch=1 c=64 v=0
95040 Par ch=1 c=64 v=127
96360 Par ch=1 c=64 v=0
96480 Par ch=1 c=64 v=127
97800 Par ch=1 c=64 v=0
97920 Par ch=1 c=64 v=127
99240 Par ch=1 c=64 v=0
99360 Par ch=1 c=64 v=127
100680 Par ch=1 c=64 v=0
100800 Par ch=1 c=64 v=127
102120 Par ch=1 c=64 v=0
102240 Par ch=1 c=64 v=127
103560 Par ch=1 c=64 v=0
130560 Par ch=1 c=64 v=127
131880 Par ch=1 c=64 v=0
132000 Par ch=1 c=64 v=127
133320 Par ch=1 c=64 v=0
133440 Par ch=1 c=64 v=127
134760 Par ch=1 c=64 v=0
134880 Par ch=1 c=64 v=127
136200 Par ch=1 c=64 v=0
136320 Par ch=1 c=64 v=127
137640 Par ch=1 c=64 v=0
137760 Par ch=1 c=64 v=127
139080 Par ch=1 c=64 v=0
139200 Par ch=1 c=64 v=127
140520 Par ch=1 c=64 v=0
140640 Par ch=1 c=64 v=127
141960 Par ch=1 c=64 v=0
142080 Par ch=1 c=64 v=127
143400 Par ch=1 c=64 v=0
143520 Par ch=1 c=64 v=127
144840 Par ch=1 c=64 v=0
144960 Par ch=1 c=64 v=127
146280 Par ch=1 c=64 v=0
146400 Par ch=1 c=64 v=127
147720 Par ch=1 c=64 v=0
147840 Par ch=1 c=64 v=127
149160 Par ch=1 c=64 v=0
149280 Par ch=1 c=64 v=127
150600 Par ch=1 c=64 v=0
150720 Par ch=1 c=64 v=127
152040 Par ch=1 c=64 v=0
152160 Par ch=1 c=64 v=127
153480 Par ch=1 c=64 v=0
153600 Par ch=1 c=64 v=127
154920 Par ch=1 c=64 v=0
155040 Par ch=1 c=64 v=127
156360 Par ch=1 c=64 v=0
156480 Par ch=1 c=64 v=127
157800 Par ch=1 c=64 v=0
157920 Par ch=1 c=64 v=127
159240 Par ch=1 c=64 v=0
159360 Par ch=1 c=64 v=127
160680 Par ch=1 c=64 v=0
160800 Par ch=1 c=64 v=127
162120 Par ch=1 c=64 v=0
162240 Par ch=1 c=64 v=127
163560 Par ch=1 c=64 v=0
163680 Par ch=1 c=64 v=127
165000 Par ch=1 c=64 v=0
165120 Par ch=1 c=64 v=127
166440 Par ch=1 c=64 v=0
166560 Par ch=1 c=64 v=127
167880 Par ch=1 c=64 v=0
168000 Par ch=1 c=64 v=127
169320 Par ch=1 c=64 v=0
169440 Par ch=1 c=64 v=127
170760 Par ch=1 c=64 v=0
170880 Par ch=1 c=64 v=127
172200 Par ch=1 c=64 v=0
172320 Par ch=1 c=64 v=127
173640 Par ch=1 c=64 v=0
173760 Par ch=1 c=64 v=127
175080 Par ch=1 c=64 v=0
175080 Meta TrkEnd
TrkEnd
MTrk
0 SeqSpec 43 00 01 00
0 Meta TrkName "Debussy, Claude"
0 Meta 0x21 00
0 Meta TrkEnd
TrkEnd
MTrk
0 SeqSpec 43 00 01 00
0 Meta TrkName "Prelude Book 1 No. 09 la serenade interrompue"
0 Meta 0x21 00
0 Meta TrkEnd
TrkEnd
MTrk
0 SeqSpec 43 00 01 00
0 Meta TrkName "Jeruen E. Dery jawjaw@hotmail.com"
0 Meta 0x21 00
0 Meta TrkEnd
TrkEnd
