MFile 1 8 480
MTrk
0 TimeSig 4/4 24 8
0 KeySig -1 major
0 Tempo 1363636
23040 TimeSig 2/4 24 8
23040 Tempo 1428571
24000 TimeSig 4/4 24 8
25920 Tempo 1500000
26400 Tempo 1578947
27840 Tempo 1363636
33600 Tempo 1428571
34560 Tempo 1500000
35520 Tempo 1363636
39360 Tempo 1200000
45120 Tempo 1250000
46080 Tempo 1304348
47040 Tempo 1363636
58560 Tempo 1428571
62400 Tempo 1500000
62400 Meta TrkEnd
TrkEnd
MTrk
0 SeqSpec 43 00 01 00
0 Meta TrkName "Right Treble"
0 Meta 0x21 00
2400 On ch=1 n=a#5 v=60
3360 On ch=1 n=a#5 v=0
3360 On ch=1 n=c6 v=60
3600 On ch=1 n=c6 v=0
3600 On ch=1 n=d6 v=60
3840 On ch=1 n=d6 v=0
4320 On ch=1 n=e6 v=60
4800 On ch=1 n=e6 v=0
4800 On ch=1 n=d6 v=60
4960 On ch=1 n=d6 v=0
4960 On ch=1 n=c6 v=60
5120 On ch=1 n=c6 v=0
5120 On ch=1 n=a#5 v=60
5280 On ch=1 n=a#5 v=0
5280 On ch=1 n=g5 v=60
6240 On ch=1 n=g5 v=0
6240 On ch=1 n=c6 v=60
6720 On ch=1 n=c6 v=0
6720 On ch=1 n=a5 v=60
7680 On ch=1 n=a5 v=0
8160 On ch=1 n=a5 v=70
8640 On ch=1 n=a5 v=0
9120 On ch=1 n=b5 v=70
9600 On ch=1 n=b5 v=0
10080 On ch=1 n=c6 v=80
10560 On ch=1 n=c6 v=0
11040 On ch=1 n=d6 v=80
11160 On ch=1 n=d6 v=0
11280 On ch=1 n=e6 v=80
12000 On ch=1 n=e6 v=0
12000 On ch=1 n=c6 v=70
12160 On ch=1 n=c6 v=0
12160 On ch=1 n=a5 v=70
12320 On ch=1 n=a5 v=0
12320 On ch=1 n=g5 v=70
12480 On ch=1 n=g5 v=0
12480 On ch=1 n=e5 v=70
12720 On ch=1 n=e5 v=0
12960 On ch=1 n=c5 v=70
13200 On ch=1 n=c5 v=0
13440 On ch=1 n=d5 v=40
13440 On ch=1 n=a#4 v=60
13520 On ch=1 n=d5 v=0
13520 On ch=1 n=e5 v=40
14400 On ch=1 n=e5 v=0
14400 On ch=1 n=a#4 v=0
14400 On ch=1 n=e5 v=40
14400 On ch=1 n=b4 v=60
14480 On ch=1 n=e5 v=0
14480 On ch=1 n=f5 v=40
15360 On ch=1 n=f5 v=0
15360 On ch=1 n=b4 v=0
15360 On ch=1 n=d5 v=40
15360 On ch=1 n=a#4 v=60
15440 On ch=1 n=d5 v=0
15440 On ch=1 n=e5 v=40
16320 On ch=1 n=e5 v=0
16320 On ch=1 n=a#4 v=0
16320 On ch=1 n=e5 v=40
16320 On ch=1 n=b4 v=60
16400 On ch=1 n=e5 v=0
16400 On ch=1 n=f5 v=40
17280 On ch=1 n=f5 v=0
17280 On ch=1 n=b4 v=0
17280 On ch=1 n=a#4 v=60
17280 On ch=1 n=d5 v=60
17360 On ch=1 n=e5 v=40
18240 On ch=1 n=e5 v=0
18240 On ch=1 n=d5 v=0
18240 On ch=1 n=a#4 v=0
18240 On ch=1 n=b4 v=60
18240 On ch=1 n=c#5 v=60
18240 On ch=1 n=e5 v=40
18320 On ch=1 n=e5 v=0
18320 On ch=1 n=f5 v=40
19200 On ch=1 n=f5 v=0
19200 On ch=1 n=c#5 v=0
19200 On ch=1 n=b4 v=0
19200 On ch=1 n=c5 v=60
19200 On ch=1 n=d5 v=40
19280 On ch=1 n=d5 v=0
19280 On ch=1 n=e5 v=40
19680 On ch=1 n=c5 v=0
19680 On ch=1 n=b4 v=40
20160 On ch=1 n=b4 v=0
20160 On ch=1 n=e5 v=0
20160 On ch=1 n=f#4 v=60
20160 On ch=1 n=a#4 v=60
20160 On ch=1 n=e5 v=40
20240 On ch=1 n=e5 v=0
20240 On ch=1 n=f5 v=40
22800 On ch=1 n=f5 v=0
22800 On ch=1 n=a#4 v=0
22800 On ch=1 n=f#4 v=0
22800 On ch=1 n=f#4 v=40
22800 On ch=1 n=a#4 v=40
22800 On ch=1 n=f5 v=40
24000 On ch=1 n=f5 v=0
24000 On ch=1 n=a#4 v=0
24000 On ch=1 n=f#4 v=0
24000 On ch=1 n=e4 v=40
24000 On ch=1 n=a#4 v=40
24000 On ch=1 n=f#5 v=40
24480 On ch=1 n=e5 v=50
24480 On ch=1 n=e6 v=50
24960 On ch=1 n=e6 v=0
24960 On ch=1 n=e5 v=0
25440 On ch=1 n=g#6 v=50
25440 On ch=1 n=g#5 v=50
25920 On ch=1 n=g#5 v=0
25920 On ch=1 n=g#6 v=0
26400 On ch=1 n=f#5 v=0
26400 On ch=1 n=a#4 v=0
26400 On ch=1 n=e4 v=0
27840 On ch=1 n=d5 v=40
27920 On ch=1 n=e5 v=40
28800 On ch=1 n=e5 v=0
28800 On ch=1 n=d5 v=0
28800 On ch=1 n=e5 v=40
28800 On ch=1 n=d5 v=40
28880 On ch=1 n=e5 v=0
28880 On ch=1 n=f5 v=40
29760 On ch=1 n=f5 v=0
29760 On ch=1 n=d5 v=0
30240 On ch=1 n=c6 v=60
31200 On ch=1 n=c6 v=0
31200 On ch=1 n=g#5 v=60
31680 On ch=1 n=g#5 v=0
32160 On ch=1 n=e6 v=60
32800 On ch=1 n=e6 v=0
32800 On ch=1 n=d6 v=60
32960 On ch=1 n=d6 v=0
32960 On ch=1 n=c6 v=60
33120 On ch=1 n=c6 v=0
33120 On ch=1 n=g#5 v=60
33600 On ch=1 n=g#5 v=0
34080 On ch=1 n=e6 v=50
34560 On ch=1 n=e6 v=0
34560 On ch=1 n=d6 v=50
34720 On ch=1 n=d6 v=0
34720 On ch=1 n=c6 v=50
34880 On ch=1 n=c6 v=0
34880 On ch=1 n=a#5 v=50
35040 On ch=1 n=a#5 v=0
35040 On ch=1 n=g5 v=50
35160 On ch=1 n=g5 v=0
35280 On ch=1 n=a5 v=50
35400 On ch=1 n=a5 v=0
36000 On ch=1 n=a5 v=60
36480 On ch=1 n=a5 v=0
36960 On ch=1 n=b5 v=60
37440 On ch=1 n=b5 v=0
37920 On ch=1 n=b5 v=60
38400 On ch=1 n=b5 v=0
38880 On ch=1 n=d#6 v=60
39120 On ch=1 n=d#6 v=0
39120 On ch=1 n=b5 v=60
39600 On ch=1 n=b5 v=0
39600 On ch=1 n=c#6 v=60
39840 On ch=1 n=c#6 v=0
39840 On ch=1 n=a#5 v=60
40080 On ch=1 n=a#5 v=0
40080 On ch=1 n=g#5 v=60
40320 On ch=1 n=g#5 v=0
40800 On ch=1 n=d#6 v=60
41040 On ch=1 n=d#6 v=0
41040 On ch=1 n=b5 v=60
41520 On ch=1 n=b5 v=0
41520 On ch=1 n=c#6 v=70
41760 On ch=1 n=c#6 v=0
41760 On ch=1 n=d#6 v=70
42000 On ch=1 n=d#6 v=0
42000 On ch=1 n=f6 v=70
42720 On ch=1 n=f6 v=0
42720 On ch=1 n=g#6 v=70
42960 On ch=1 n=g#6 v=0
42960 On ch=1 n=f6 v=70
43440 On ch=1 n=f6 v=0
43680 On ch=1 n=f6 v=70
43920 On ch=1 n=f6 v=0
43920 On ch=1 n=c#6 v=70
44400 On ch=1 n=c#6 v=0
44640 On ch=1 n=c#6 v=70
44880 On ch=1 n=c#6 v=0
44880 On ch=1 n=a#5 v=70
45600 On ch=1 n=a#5 v=0
45600 On ch=1 n=g#5 v=70
46560 On ch=1 n=g#5 v=0
46560 On ch=1 n=f5 v=70
47040 On ch=1 n=f5 v=0
47040 On ch=1 n=d5 v=40
47120 On ch=1 n=e5 v=40
48000 On ch=1 n=e5 v=0
48000 On ch=1 n=d5 v=0
48000 On ch=1 n=e5 v=40
48080 On ch=1 n=e5 v=0
48080 On ch=1 n=f5 v=40
48960 On ch=1 n=f5 v=0
48960 On ch=1 n=d5 v=40
49040 On ch=1 n=e5 v=40
49920 On ch=1 n=e5 v=0
49920 On ch=1 n=d5 v=0
49920 On ch=1 n=e5 v=40
50000 On ch=1 n=e5 v=0
50000 On ch=1 n=f5 v=40
50880 On ch=1 n=f5 v=0
50880 On ch=1 n=d5 v=40
50960 On ch=1 n=d5 v=0
50960 On ch=1 n=e5 v=40
51840 On ch=1 n=e5 v=0
52320 On ch=1 n=d#6 v=60
52560 On ch=1 n=d#6 v=0
52560 On ch=1 n=b5 v=60
53040 On ch=1 n=b5 v=0
53040 On ch=1 n=c#6 v=60
53280 On ch=1 n=c#6 v=0
53280 On ch=1 n=a#5 v=60
53520 On ch=1 n=a#5 v=0
53520 On ch=1 n=g#5 v=60
54240 On ch=1 n=g#5 v=0
54240 On ch=1 n=d#6 v=60
54480 On ch=1 n=d#6 v=0
54480 On ch=1 n=b5 v=60
54960 On ch=1 n=b5 v=0
54960 On ch=1 n=c#6 v=70
55200 On ch=1 n=c#6 v=0
55200 On ch=1 n=d#6 v=70
55440 On ch=1 n=d#6 v=0
55440 On ch=1 n=f6 v=70
56160 On ch=1 n=f6 v=0
56160 On ch=1 n=b6 v=70
56400 On ch=1 n=b6 v=0
56400 On ch=1 n=g#6 v=70
56880 On ch=1 n=g#6 v=0
57120 On ch=1 n=g#6 v=80
57360 On ch=1 n=g#6 v=0
57360 On ch=1 n=f6 v=80
57840 On ch=1 n=f6 v=0
58080 On ch=1 n=c#7 v=60
58080 On ch=1 n=g#6 v=60
58080 On ch=1 n=f6 v=60
58560 On ch=1 n=f6 v=0
58560 On ch=1 n=g#6 v=0
58560 On ch=1 n=c#7 v=0
58560 On ch=1 n=d7 v=40
58640 On ch=1 n=d7 v=0
58640 On ch=1 n=e6 v=40
58640 On ch=1 n=e7 v=40
59520 On ch=1 n=e7 v=0
59520 On ch=1 n=e6 v=0
59520 On ch=1 n=e7 v=40
59600 On ch=1 n=e7 v=0
59600 On ch=1 n=f6 v=40
59600 On ch=1 n=f7 v=40
60480 On ch=1 n=f7 v=0
60480 On ch=1 n=f6 v=0
60480 On ch=1 n=d7 v=40
60560 On ch=1 n=d7 v=0
60560 On ch=1 n=e6 v=40
60560 On ch=1 n=e7 v=40
61440 On ch=1 n=e7 v=0
61440 On ch=1 n=e6 v=0
61440 On ch=1 n=e7 v=40
61520 On ch=1 n=e7 v=0
61520 On ch=1 n=f6 v=40
61520 On ch=1 n=f7 v=40
63840 On ch=1 n=f7 v=0
63840 On ch=1 n=f6 v=0
66240 On ch=1 n=d7 v=20
66240 On ch=1 n=f7 v=20
66240 On ch=1 n=f6 v=20
68160 On ch=1 n=f6 v=0
68160 On ch=1 n=f7 v=0
68160 On ch=1 n=d7 v=0
68160 Meta TrkEnd
TrkEnd
MTrk
0 SeqSpec 43 00 01 00
0 Meta TrkName "Left Treble"
0 Meta 0x21 00
0 On ch=1 n=d5 v=40
80 On ch=1 n=e5 v=40
960 On ch=1 n=e5 v=0
960 On ch=1 n=d5 v=0
960 On ch=1 n=e5 v=40
960 On ch=1 n=d5 v=40
1040 On ch=1 n=e5 v=0
1040 On ch=1 n=f5 v=40
1920 On ch=1 n=f5 v=0
1920 On ch=1 n=d5 v=0
1920 On ch=1 n=d5 v=40
2000 On ch=1 n=e5 v=40
2880 On ch=1 n=e5 v=0
2880 On ch=1 n=d5 v=0
2880 On ch=1 n=e5 v=40
2880 On ch=1 n=d5 v=40
2960 On ch=1 n=e5 v=0
2960 On ch=1 n=f5 v=40
3840 On ch=1 n=f5 v=0
3840 On ch=1 n=d5 v=0
3840 On ch=1 n=d5 v=40
3920 On ch=1 n=e5 v=40
4800 On ch=1 n=e5 v=0
4800 On ch=1 n=d5 v=0
4800 On ch=1 n=e5 v=40
4800 On ch=1 n=d5 v=40
4880 On ch=1 n=e5 v=0
4880 On ch=1 n=f5 v=40
5760 On ch=1 n=f5 v=0
5760 On ch=1 n=d5 v=0
5760 On ch=1 n=d5 v=40
5840 On ch=1 n=e5 v=40
6720 On ch=1 n=e5 v=0
6720 On ch=1 n=d5 v=0
6720 On ch=1 n=e5 v=40
6720 On ch=1 n=d5 v=40
6800 On ch=1 n=e5 v=0
6800 On ch=1 n=f5 v=40
7680 On ch=1 n=f5 v=0
7680 On ch=1 n=d5 v=0
29760 On ch=1 n=d5 v=40
29840 On ch=1 n=e5 v=40
30240 On ch=1 n=g4 v=60
30720 On ch=1 n=g4 v=0
30720 On ch=1 n=e5 v=0
30720 On ch=1 n=d5 v=0
30720 On ch=1 n=e5 v=40
30720 On ch=1 n=d5 v=40
30720 On ch=1 n=g#4 v=60
30800 On ch=1 n=e5 v=0
30800 On ch=1 n=f5 v=40
31200 On ch=1 n=g#4 v=0
31200 On ch=1 n=a#4 v=60
31680 On ch=1 n=a#4 v=0
31680 On ch=1 n=f5 v=0
31680 On ch=1 n=d5 v=0
31680 On ch=1 n=d5 v=40
31760 On ch=1 n=e5 v=40
32160 On ch=1 n=g4 v=60
32640 On ch=1 n=g4 v=0
32640 On ch=1 n=e5 v=0
32640 On ch=1 n=d5 v=0
32640 On ch=1 n=e5 v=40
32640 On ch=1 n=d5 v=40
32640 On ch=1 n=g#4 v=60
32720 On ch=1 n=e5 v=0
32720 On ch=1 n=f5 v=40
33120 On ch=1 n=g#4 v=0
33120 On ch=1 n=a#4 v=60
33600 On ch=1 n=a#4 v=0
33600 On ch=1 n=f5 v=0
33600 On ch=1 n=d5 v=0
33600 On ch=1 n=d5 v=30
33680 On ch=1 n=e5 v=30
34560 On ch=1 n=e5 v=0
34560 On ch=1 n=d5 v=0
34560 On ch=1 n=e5 v=30
34560 On ch=1 n=d5 v=30
34640 On ch=1 n=e5 v=0
34640 On ch=1 n=f5 v=30
35520 On ch=1 n=f5 v=0
35520 On ch=1 n=d5 v=0
53520 On ch=1 n=b4 v=40
53520 On ch=1 n=d#5 v=40
53520 On ch=1 n=g#5 v=40
53760 On ch=1 n=g#5 v=0
53760 On ch=1 n=d#5 v=0
53760 On ch=1 n=b4 v=0
53760 On ch=1 n=a#4 v=40
53760 On ch=1 n=c#5 v=40
53760 On ch=1 n=f#5 v=60
54000 On ch=1 n=f#5 v=0
54000 On ch=1 n=c#5 v=0
54000 On ch=1 n=a#4 v=0
54000 On ch=1 n=c#5 v=40
54000 On ch=1 n=f5 v=40
54000 On ch=1 n=a#5 v=60
54240 On ch=1 n=a#5 v=0
54240 On ch=1 n=f5 v=0
54240 On ch=1 n=c#5 v=0
54240 On ch=1 n=g#4 v=40
54240 On ch=1 n=b4 v=40
54240 On ch=1 n=f5 v=40
54720 On ch=1 n=f5 v=0
54720 On ch=1 n=b4 v=0
54720 On ch=1 n=g#4 v=0
54720 On ch=1 n=a#4 v=50
54720 On ch=1 n=c#5 v=50
54720 On ch=1 n=f#5 v=50
55200 On ch=1 n=f#5 v=0
55200 On ch=1 n=c#5 v=0
55200 On ch=1 n=a#4 v=0
55200 On ch=1 n=b4 v=50
55200 On ch=1 n=d#5 v=50
55200 On ch=1 n=g#5 v=50
55680 On ch=1 n=g#5 v=0
55680 On ch=1 n=d#5 v=0
55680 On ch=1 n=b4 v=0
55680 On ch=1 n=c#5 v=50
55680 On ch=1 n=f5 v=50
55680 On ch=1 n=a#5 v=50
56160 On ch=1 n=a#5 v=0
56160 On ch=1 n=f5 v=0
56160 On ch=1 n=c#5 v=0
56160 On ch=1 n=d#5 v=50
56160 On ch=1 n=f#5 v=50
56160 On ch=1 n=b5 v=50
56640 On ch=1 n=b5 v=0
56640 On ch=1 n=f#5 v=0
56640 On ch=1 n=d#5 v=0
56640 On ch=1 n=c#6 v=60
56640 On ch=1 n=g#5 v=60
56640 On ch=1 n=f5 v=60
57120 On ch=1 n=f5 v=0
57120 On ch=1 n=g#5 v=0
57120 On ch=1 n=c#6 v=0
57120 On ch=1 n=d#6 v=60
57120 On ch=1 n=b5 v=60
57120 On ch=1 n=g#5 v=60
57600 On ch=1 n=g#5 v=0
57600 On ch=1 n=b5 v=0
57600 On ch=1 n=d#6 v=0
57600 On ch=1 n=g#6 v=60
57600 On ch=1 n=f6 v=60
57600 On ch=1 n=c#6 v=60
58080 On ch=1 n=c#6 v=0
58080 On ch=1 n=f6 v=0
58080 On ch=1 n=g#6 v=0
58080 On ch=1 n=f6 v=80
58320 On ch=1 n=f6 v=0
58320 On ch=1 n=c#6 v=80
58560 On ch=1 n=c#6 v=0
58560 On ch=1 n=d6 v=40
59040 On ch=1 n=c#6 v=60
59280 On ch=1 n=c#6 v=0
59280 On ch=1 n=a#5 v=50
59520 On ch=1 n=a#5 v=0
59520 On ch=1 n=d6 v=0
59520 On ch=1 n=e6 v=40
59520 On ch=1 n=d6 v=40
59600 On ch=1 n=e6 v=0
60000 On ch=1 n=a#5 v=60
60240 On ch=1 n=a#5 v=0
60240 On ch=1 n=g5 v=50
60480 On ch=1 n=g5 v=0
60480 On ch=1 n=d6 v=0
60480 On ch=1 n=d6 v=40
60960 On ch=1 n=c#6 v=60
61200 On ch=1 n=c#6 v=0
61200 On ch=1 n=a#5 v=50
61440 On ch=1 n=a#5 v=0
61440 On ch=1 n=d6 v=0
61440 On ch=1 n=e6 v=40
61440 On ch=1 n=d6 v=40
61520 On ch=1 n=e6 v=0
61920 On ch=1 n=a#5 v=60
62160 On ch=1 n=g5 v=50
63360 On ch=1 n=d5 v=40
63600 On ch=1 n=d5 v=0
63840 On ch=1 n=g5 v=0
63840 On ch=1 n=a#5 v=0
63840 On ch=1 n=d6 v=0
63840 Meta TrkEnd
TrkEnd
MTrk
0 SeqSpec 43 00 01 00
0 Meta TrkName "Left Bass"
0 Meta 0x21 00
7680 On ch=1 n=d5 v=50
7680 On ch=1 n=b4 v=50
7680 On ch=1 n=g3 v=50
7680 On ch=1 n=d4 v=50
7760 On ch=1 n=d5 v=0
7760 On ch=1 n=e5 v=50
8640 On ch=1 n=e5 v=0
8640 On ch=1 n=d4 v=0
8640 On ch=1 n=g3 v=0
8640 On ch=1 n=b4 v=0
8640 On ch=1 n=e5 v=50
8640 On ch=1 n=a4 v=50
8640 On ch=1 n=f3 v=50
8640 On ch=1 n=c4 v=50
8720 On ch=1 n=e5 v=0
8720 On ch=1 n=f5 v=50
9600 On ch=1 n=f5 v=0
9600 On ch=1 n=c4 v=0
9600 On ch=1 n=f3 v=0
9600 On ch=1 n=a4 v=0
9600 On ch=1 n=g4 v=60
9600 On ch=1 n=e3 v=60
9600 On ch=1 n=b3 v=60
9600 On ch=1 n=d5 v=60
9680 On ch=1 n=d5 v=0
9680 On ch=1 n=e5 v=60
10560 On ch=1 n=e5 v=0
10560 On ch=1 n=b3 v=0
10560 On ch=1 n=e3 v=0
10560 On ch=1 n=g4 v=0
10560 On ch=1 n=d3 v=60
10560 On ch=1 n=a3 v=60
10560 On ch=1 n=f4 v=60
10560 On ch=1 n=a4 v=60
10560 On ch=1 n=e5 v=60
10640 On ch=1 n=e5 v=0
10640 On ch=1 n=f5 v=60
11760 On ch=1 n=f5 v=0
11760 On ch=1 n=a4 v=0
11760 On ch=1 n=f4 v=0
11760 On ch=1 n=a3 v=0
11760 On ch=1 n=d3 v=0
13440 On ch=1 n=f#3 v=60
13440 On ch=1 n=c4 v=60
13920 On ch=1 n=f#3 v=0
13920 On ch=1 n=g3 v=60
14400 On ch=1 n=g3 v=0
14400 On ch=1 n=c4 v=0
14400 On ch=1 n=g#3 v=60
14400 On ch=1 n=c#4 v=60
14880 On ch=1 n=g#3 v=0
14880 On ch=1 n=c#3 v=60
15360 On ch=1 n=c#3 v=0
15360 On ch=1 n=c#4 v=0
15360 On ch=1 n=f#3 v=60
15360 On ch=1 n=c4 v=60
15840 On ch=1 n=f#3 v=0
15840 On ch=1 n=g3 v=60
16320 On ch=1 n=g3 v=0
16320 On ch=1 n=c4 v=0
16320 On ch=1 n=g#3 v=60
16320 On ch=1 n=c#4 v=60
16800 On ch=1 n=g#3 v=0
16800 On ch=1 n=c#4 v=60
17280 On ch=1 n=c#4 v=0
17280 On ch=1 n=c#4 v=0
17760 On ch=1 n=a4 v=60
18240 On ch=1 n=a4 v=0
18240 On ch=1 n=g#4 v=60
18720 On ch=1 n=g#4 v=0
18720 On ch=1 n=c#4 v=60
19200 On ch=1 n=c#4 v=0
19200 On ch=1 n=f4 v=60
19680 On ch=1 n=g#3 v=60
19920 On ch=1 n=g#3 v=0
19920 On ch=1 n=g3 v=60
20160 On ch=1 n=g3 v=0
20160 On ch=1 n=f4 v=0
20160 On ch=1 n=c#4 v=60
21360 On ch=1 n=c#4 v=0
21360 On ch=1 n=d#4 v=40
21840 On ch=1 n=d#4 v=0
21840 On ch=1 n=c4 v=40
22080 On ch=1 n=c4 v=0
22080 On ch=1 n=a#3 v=40
22240 On ch=1 n=a#3 v=0
22240 On ch=1 n=g#3 v=40
22400 On ch=1 n=g#3 v=0
22400 On ch=1 n=c4 v=40
22560 On ch=1 n=c4 v=0
22560 On ch=1 n=c#4 v=40
22800 On ch=1 n=c#4 v=0
22800 On ch=1 n=d#4 v=40
23280 On ch=1 n=d#4 v=0
23280 On ch=1 n=c4 v=30
23520 On ch=1 n=c4 v=0
23520 On ch=1 n=a#3 v=30
23680 On ch=1 n=a#3 v=0
23680 On ch=1 n=g#3 v=30
23840 On ch=1 n=g#3 v=0
23840 On ch=1 n=c4 v=30
24000 On ch=1 n=f#3 v=40
24080 On ch=1 n=f#3 v=0
24080 On ch=1 n=c3 v=40
24960 On ch=1 n=c3 v=0
24960 On ch=1 n=f#3 v=40
25040 On ch=1 n=f#3 v=0
25040 On ch=1 n=c3 v=40
26400 On ch=1 n=c4 v=0
26880 On ch=1 n=c3 v=0
26880 On ch=1 n=b2 v=40
27360 On ch=1 n=b2 v=0
27360 On ch=1 n=a#2 v=40
27840 On ch=1 n=a#2 v=0
28320 On ch=1 n=g4 v=60
28800 On ch=1 n=g4 v=0
28800 On ch=1 n=g#4 v=60
29280 On ch=1 n=g#4 v=0
29280 On ch=1 n=a#4 v=60
29760 On ch=1 n=a#4 v=0
35520 On ch=1 n=d5 v=40
35520 On ch=1 n=b4 v=40
35520 On ch=1 n=g3 v=40
35520 On ch=1 n=d4 v=40
35600 On ch=1 n=d5 v=0
35600 On ch=1 n=e5 v=40
36480 On ch=1 n=e5 v=0
36480 On ch=1 n=d4 v=0
36480 On ch=1 n=g3 v=0
36480 On ch=1 n=b4 v=0
36480 On ch=1 n=e5 v=40
36480 On ch=1 n=a4 v=40
36480 On ch=1 n=f3 v=40
36480 On ch=1 n=c4 v=40
36560 On ch=1 n=e5 v=0
36560 On ch=1 n=f5 v=40
37440 On ch=1 n=f5 v=0
37440 On ch=1 n=c4 v=0
37440 On ch=1 n=f3 v=0
37440 On ch=1 n=a4 v=0
37440 On ch=1 n=e3 v=40
37440 On ch=1 n=b3 v=40
37440 On ch=1 n=g4 v=40
37440 On ch=1 n=d5 v=40
37520 On ch=1 n=d5 v=0
37520 On ch=1 n=e5 v=40
38400 On ch=1 n=e5 v=0
38400 On ch=1 n=g4 v=0
38400 On ch=1 n=b3 v=0
38400 On ch=1 n=e3 v=0
38400 On ch=1 n=f4 v=40
38400 On ch=1 n=b4 v=40
38400 On ch=1 n=c#3 v=40
38400 On ch=1 n=g#3 v=40
38400 On ch=1 n=e5 v=40
38480 On ch=1 n=e5 v=0
38480 On ch=1 n=f5 v=40
39360 On ch=1 n=f5 v=0
39360 On ch=1 n=b4 v=0
39360 On ch=1 n=f4 v=0
39360 On ch=1 n=e5 v=40
39360 On ch=1 n=b4 v=40
39360 On ch=1 n=g#4 v=40
39440 On ch=1 n=e5 v=0
39440 On ch=1 n=f5 v=40
40320 On ch=1 n=f5 v=0
40320 On ch=1 n=g#4 v=0
40320 On ch=1 n=b4 v=0
40320 On ch=1 n=g#3 v=0
40320 On ch=1 n=c#3 v=0
40320 On ch=1 n=e5 v=40
40320 On ch=1 n=b4 v=40
40320 On ch=1 n=f4 v=40
40320 On ch=1 n=c#3 v=40
40320 On ch=1 n=g#3 v=40
40400 On ch=1 n=e5 v=0
40400 On ch=1 n=f5 v=40
41280 On ch=1 n=f5 v=0
41280 On ch=1 n=f4 v=0
41280 On ch=1 n=b4 v=0
41280 On ch=1 n=e5 v=50
41280 On ch=1 n=b4 v=50
41280 On ch=1 n=g#4 v=50
41360 On ch=1 n=e5 v=0
41360 On ch=1 n=f5 v=50
42240 On ch=1 n=f5 v=0
42240 On ch=1 n=g#4 v=0
42240 On ch=1 n=b4 v=0
42240 On ch=1 n=g#3 v=0
42240 On ch=1 n=c#3 v=0
42240 On ch=1 n=c5 v=50
42240 On ch=1 n=f#4 v=50
42240 On ch=1 n=d3 v=50
42240 On ch=1 n=e5 v=50
42320 On ch=1 n=e5 v=0
42320 On ch=1 n=f5 v=50
43200 On ch=1 n=f5 v=0
43200 On ch=1 n=d3 v=0
43200 On ch=1 n=f#4 v=0
43200 On ch=1 n=c5 v=0
43200 On ch=1 n=c#5 v=50
43200 On ch=1 n=g4 v=50
43200 On ch=1 n=d#3 v=50
43200 On ch=1 n=e5 v=50
43280 On ch=1 n=e5 v=0
43280 On ch=1 n=f5 v=50
44160 On ch=1 n=f5 v=0
44160 On ch=1 n=d#3 v=0
44160 On ch=1 n=g4 v=0
44160 On ch=1 n=c#5 v=0
44160 On ch=1 n=d5 v=50
44160 On ch=1 n=g#4 v=50
44160 On ch=1 n=e3 v=50
44160 On ch=1 n=e5 v=50
44240 On ch=1 n=e5 v=0
44240 On ch=1 n=f5 v=50
45600 On ch=1 n=f5 v=0
45600 On ch=1 n=e3 v=0
45600 On ch=1 n=g#4 v=0
45600 On ch=1 n=d5 v=0
47040 On ch=1 n=d5 v=40
47040 On ch=1 n=a#4 v=40
47040 On ch=1 n=g4 v=40
48000 On ch=1 n=g4 v=0
48000 On ch=1 n=a#4 v=0
48000 On ch=1 n=d5 v=0
48000 On ch=1 n=c#5 v=40
48000 On ch=1 n=a4 v=40
48000 On ch=1 n=f#4 v=40
48960 On ch=1 n=f#4 v=0
48960 On ch=1 n=a4 v=0
48960 On ch=1 n=c#5 v=0
48960 On ch=1 n=f4 v=40
48960 On ch=1 n=g#4 v=40
48960 On ch=1 n=c5 v=40
49440 On ch=1 n=c5 v=0
49440 On ch=1 n=b4 v=40
49920 On ch=1 n=b4 v=0
49920 On ch=1 n=g#4 v=0
49920 On ch=1 n=f4 v=0
49920 On ch=1 n=d3 v=40
49920 On ch=1 n=a3 v=40
49920 On ch=1 n=f4 v=40
49920 On ch=1 n=a4 v=40
50400 On ch=1 n=a4 v=0
50400 On ch=1 n=c5 v=40
50880 On ch=1 n=f4 v=0
50880 On ch=1 n=a3 v=0
50880 On ch=1 n=d3 v=0
50880 On ch=1 n=a4 v=40
50880 On ch=1 n=f4 v=40
51360 On ch=1 n=c5 v=0
51360 On ch=1 n=b4 v=40
51840 On ch=1 n=f4 v=0
51840 On ch=1 n=e5 v=40
51920 On ch=1 n=e5 v=0
51920 On ch=1 n=f5 v=40
53520 On ch=1 n=f5 v=0
53520 On ch=1 n=b4 v=0
53520 On ch=1 n=a4 v=0
63840 On ch=1 n=g4 v=40
64080 On ch=1 n=g4 v=0
64320 On ch=1 n=d4 v=30
64560 On ch=1 n=d4 v=0
64800 On ch=1 n=g3 v=30
65040 On ch=1 n=g3 v=0
65280 On ch=1 n=d3 v=30
65520 On ch=1 n=d3 v=0
65760 On ch=1 n=g2 v=30
66000 On ch=1 n=g2 v=0
66240 On ch=1 n=d2 v=20
66240 On ch=1 n=a2 v=20
68160 On ch=1 n=a2 v=0
68160 On ch=1 n=d2 v=0
68160 Meta TrkEnd
TrkEnd
MTrk
0 SeqSpec 43 00 01 00
0 Meta TrkName "Pedal"
0 Meta 0x21 00
0 Par ch=1 c=64 v=127
840 Par ch=1 c=64 v=0
960 Par ch=1 c=64 v=127
1800 Par ch=1 c=64 v=0
1920 Par ch=1 c=64 v=127
2760 Par ch=1 c=64 v=0
2880 Par ch=1 c=64 v=127
3720 Par ch=1 c=64 v=0
3840 Par ch=1 c=64 v=127
4680 Par ch=1 c=64 v=0
4800 Par ch=1 c=64 v=127
5640 Par ch=1 c=64 v=0
5760 Par ch=1 c=64 v=127
6600 Par ch=1 c=64 v=0
6720 Par ch=1 c=64 v=127
7560 Par ch=1 c=64 v=0
7680 Par ch=1 c=64 v=127
8520 Par ch=1 c=64 v=0
8640 Par ch=1 c=64 v=127
9480 Par ch=1 c=64 v=0
9600 Par ch=1 c=64 v=127
10440 Par ch=1 c=64 v=0
10560 Par ch=1 c=64 v=127
11760 Par ch=1 c=64 v=0
13440 Par ch=1 c=64 v=127
13800 Par ch=1 c=64 v=0
13920 Par ch=1 c=64 v=127
14280 Par ch=1 c=64 v=0
14400 Par ch=1 c=64 v=127
14760 Par ch=1 c=64 v=0
14880 Par ch=1 c=64 v=127
15240 Par ch=1 c=64 v=0
15360 Par ch=1 c=64 v=127
15720 Par ch=1 c=64 v=0
15840 Par ch=1 c=64 v=127
16200 Par ch=1 c=64 v=0
16320 Par ch=1 c=64 v=127
16680 Par ch=1 c=64 v=0
16800 Par ch=1 c=64 v=127
17160 Par ch=1 c=64 v=0
17280 Par ch=1 c=64 v=127
17640 Par ch=1 c=64 v=0
17760 Par ch=1 c=64 v=127
18120 Par ch=1 c=64 v=0
18240 Par ch=1 c=64 v=127
18600 Par ch=1 c=64 v=0
18720 Par ch=1 c=64 v=127
19080 Par ch=1 c=64 v=0
19200 Par ch=1 c=64 v=127
19560 Par ch=1 c=64 v=0
19680 Par ch=1 c=64 v=127
20040 Par ch=1 c=64 v=0
20160 Par ch=1 c=64 v=127
20520 Par ch=1 c=64 v=0
20640 Par ch=1 c=64 v=127
21000 Par ch=1 c=64 v=0
24000 Par ch=1 c=64 v=127
24840 Par ch=1 c=64 v=0
24960 Par ch=1 c=64 v=127
25800 Par ch=1 c=64 v=0
27840 Par ch=1 c=64 v=127
28200 Par ch=1 c=64 v=0
28320 Par ch=1 c=64 v=127
28680 Par ch=1 c=64 v=0
28800 Par ch=1 c=64 v=127
29160 Par ch=1 c=64 v=0
29280 Par ch=1 c=64 v=127
29640 Par ch=1 c=64 v=0
29760 Par ch=1 c=64 v=127
30120 Par ch=1 c=64 v=0
30240 Par ch=1 c=64 v=127
30600 Par ch=1 c=64 v=0
30720 Par ch=1 c=64 v=127
31080 Par ch=1 c=64 v=0
31200 Par ch=1 c=64 v=127
31560 Par ch=1 c=64 v=0
31680 Par ch=1 c=64 v=127
32040 Par ch=1 c=64 v=0
32160 Par ch=1 c=64 v=127
32520 Par ch=1 c=64 v=0
32640 Par ch=1 c=64 v=127
33000 Par ch=1 c=64 v=0
33120 Par ch=1 c=64 v=127
33480 Par ch=1 c=64 v=0
33600 Par ch=1 c=64 v=127
33960 Par ch=1 c=64 v=0
34080 Par ch=1 c=64 v=127
34440 Par ch=1 c=64 v=0
34560 Par ch=1 c=64 v=127
34920 Par ch=1 c=64 v=0
35040 Par ch=1 c=64 v=127
35400 Par ch=1 c=64 v=0
35520 Par ch=1 c=64 v=127
35880 Par ch=1 c=64 v=0
36000 Par ch=1 c=64 v=127
36360 Par ch=1 c=64 v=0
36480 Par ch=1 c=64 v=127
36840 Par ch=1 c=64 v=0
36960 Par ch=1 c=64 v=127
37320 Par ch=1 c=64 v=0
37440 Par ch=1 c=64 v=127
37800 Par ch=1 c=64 v=0
37920 Par ch=1 c=64 v=127
38280 Par ch=1 c=64 v=0
38400 Par ch=1 c=64 v=127
38760 Par ch=1 c=64 v=0
38880 Par ch=1 c=64 v=127
39240 Par ch=1 c=64 v=0
39360 Par ch=1 c=64 v=127
39720 Par ch=1 c=64 v=0
39840 Par ch=1 c=64 v=127
40200 Par ch=1 c=64 v=0
40320 Par ch=1 c=64 v=127
40680 Par ch=1 c=64 v=0
40800 Par ch=1 c=64 v=127
41160 Par ch=1 c=64 v=0
41280 Par ch=1 c=64 v=127
41640 Par ch=1 c=64 v=0
41760 Par ch=1 c=64 v=127
42120 Par ch=1 c=64 v=0
42240 Par ch=1 c=64 v=127
42600 Par ch=1 c=64 v=0
42720 Par ch=1 c=64 v=127
43080 Par ch=1 c=64 v=0
43200 Par ch=1 c=64 v=127
43560 Par ch=1 c=64 v=0
43680 Par ch=1 c=64 v=127
44040 Par ch=1 c=64 v=0
44160 Par ch=1 c=64 v=127
44520 Par ch=1 c=64 v=0
44640 Par ch=1 c=64 v=127
45480 Par ch=1 c=64 v=0
47040 Par ch=1 c=64 v=127
47880 Par ch=1 c=64 v=0
48000 Par ch=1 c=64 v=127
48840 Par ch=1 c=64 v=0
48960 Par ch=1 c=64 v=127
49800 Par ch=1 c=64 v=0
49920 Par ch=1 c=64 v=127
50760 Par ch=1 c=64 v=0
50880 Par ch=1 c=64 v=127
51720 Par ch=1 c=64 v=0
51840 Par ch=1 c=64 v=127
52680 Par ch=1 c=64 v=0
52800 Par ch=1 c=64 v=127
52920 Par ch=1 c=64 v=0
53040 Par ch=1 c=64 v=127
53160 Par ch=1 c=64 v=0
53280 Par ch=1 c=64 v=127
53400 Par ch=1 c=64 v=0
53520 Par ch=1 c=64 v=127
53640 Par ch=1 c=64 v=0
53760 Par ch=1 c=64 v=127
53880 Par ch=1 c=64 v=0
54000 Par ch=1 c=64 v=127
54120 Par ch=1 c=64 v=0
54240 Par ch=1 c=64 v=127
54360 Par ch=1 c=64 v=0
54480 Par ch=1 c=64 v=127
54600 Par ch=1 c=64 v=0
54720 Par ch=1 c=64 v=127
54840 Par ch=1 c=64 v=0
54960 Par ch=1 c=64 v=127
55080 Par ch=1 c=64 v=0
55200 Par ch=1 c=64 v=127
55320 Par ch=1 c=64 v=0
55440 Par ch=1 c=64 v=127
55560 Par ch=1 c=64 v=0
55680 Par ch=1 c=64 v=127
55800 Par ch=1 c=64 v=0
55920 Par ch=1 c=64 v=127
56040 Par ch=1 c=64 v=0
56160 Par ch=1 c=64 v=127
56280 Par ch=1 c=64 v=0
56400 Par ch=1 c=64 v=127
56520 Par ch=1 c=64 v=0
56640 Par ch=1 c=64 v=127
56760 Par ch=1 c=64 v=0
56880 Par ch=1 c=64 v=127
57000 Par ch=1 c=64 v=0
57120 Par ch=1 c=64 v=127
57240 Par ch=1 c=64 v=0
57360 Par ch=1 c=64 v=127
57480 Par ch=1 c=64 v=0
57600 Par ch=1 c=64 v=127
57720 Par ch=1 c=64 v=0
57840 Par ch=1 c=64 v=127
57960 Par ch=1 c=64 v=0
58080 Par ch=1 c=64 v=127
58200 Par ch=1 c=64 v=0
58320 Par ch=1 c=64 v=127
58440 Par ch=1 c=64 v=0
58560 Par ch=1 c=64 v=127
59400 Par ch=1 c=64 v=0
59520 Par ch=1 c=64 v=127
60360 Par ch=1 c=64 v=0
60480 Par ch=1 c=64 v=127
61320 Par ch=1 c=64 v=0
61440 Par ch=1 c=64 v=127
63240 Par ch=1 c=64 v=0
63360 Par ch=1 c=64 v=127
68160 Par ch=1 c=64 v=0
68160 Meta TrkEnd
TrkEnd
MTrk
0 SeqSpec 43 00 01 00
0 Meta TrkName "Debussy, Claude"
0 Meta 0x21 00
0 Meta TrkEnd
TrkEnd
MTrk
0 SeqSpec 43 00 01 00
0 Meta TrkName "Prelude Book 1 No. 06 Des pas sur la neige"
0 Meta 0x21 00
0 Meta TrkEnd
TrkEnd
MTrk
0 SeqSpec 43 00 01 00
0 Meta TrkName "Jeruen E. Dery jawjaw@hotmail.com"
0 Meta 0x21 00
0 Meta TrkEnd
TrkEnd
