MFile 1 9 480
MTrk
0 TimeSig 5/4 24 8
0 KeySig 3 major
0 Tempo 1000000
4800 TimeSig 3/4 24 8
9360 Tempo 833333
10560 Tempo 1000000
12240 Tempo 833333
13440 Tempo 1000000
14880 Tempo 712483
15360 Tempo 672957
15840 Tempo 833333
16320 Tempo 1000000
17760 Tempo 712483
18240 Tempo 672957
18720 Tempo 833333
20640 Tempo 800000
21120 Tempo 769231
21600 Tempo 740741
22080 Tempo 714286
22560 Tempo 689655
23040 Tempo 666667
24960 Tempo 689655
25200 Tempo 714286
25440 Tempo 740741
25680 Tempo 769231
25920 Tempo 833333
26160 Tempo 712483
26400 Tempo 1000000
30720 Tempo 952381
32160 Tempo 712483
33600 Tempo 1000000
34080 Tempo 1034483
34560 Tempo 1071429
35040 TimeSig 5/4 24 8
35040 Tempo 1000000
42240 TimeSig 6/4 24 8
42240 KeySig -4 major
42240 Tempo 1200000
45120 TimeSig 5/4 24 8
45120 Tempo 712483
47520 TimeSig 3/4 24 8
47520 Tempo 1090909
48960 TimeSig 5/4 24 8
49440 Tempo 1333333
49680 Tempo 1090909
51360 Tempo 1500000
52320 Tempo 600000
53280 Tempo 1000000
53760 TimeSig 3/4 24 8
57600 Tempo 685745
60480 Tempo 1000000
60960 KeySig 3 major
63120 Tempo 833333
63840 Tempo 1000000
64560 Tempo 833333
65280 Tempo 712483
65520 Tempo 1000000
65760 Tempo 1052632
66000 Tempo 1111111
66240 Tempo 1176471
66480 Tempo 1250000
66720 Tempo 1111111
71040 TimeSig 5/4 24 8
72000 Tempo 1000000
74400 Tempo 1111111
75840 TimeSig 3/4 24 8
80160 TimeSig 5/4 24 8
80640 Tempo 1333333
80880 Tempo 1200000
81600 Tempo 1500000
82500 Tempo 652174
82560 TimeSig 3/4 24 8
82560 Tempo 1500000
84240 Tempo 2000000
85380 Tempo 652174
85440 Tempo 1500000
87120 Tempo 2400000
87120 Meta TrkEnd
TrkEnd
MTrk
0 SeqSpec 43 00 01 00
0 Meta TrkName "Right Treble"
0 Meta 0x21 00
480 On ch=1 n=e6 v=40
480 On ch=1 n=e5 v=40
480 On ch=1 n=c#6 v=40
480 On ch=1 n=a5 v=40
720 On ch=1 n=e5 v=0
720 On ch=1 n=e6 v=0
720 On ch=1 n=a6 v=40
720 On ch=1 n=a5 v=40
960 On ch=1 n=a5 v=0
960 On ch=1 n=a6 v=0
960 On ch=1 n=a5 v=0
960 On ch=1 n=c#6 v=0
960 On ch=1 n=a#6 v=40
960 On ch=1 n=e6 v=40
960 On ch=1 n=d6 v=40
960 On ch=1 n=a#5 v=40
1440 On ch=1 n=a#5 v=0
1440 On ch=1 n=d6 v=0
1440 On ch=1 n=e6 v=0
1440 On ch=1 n=a#6 v=0
1440 On ch=1 n=e5 v=40
1440 On ch=1 n=e6 v=40
1920 On ch=1 n=e6 v=0
1920 On ch=1 n=e5 v=0
2880 On ch=1 n=e5 v=40
2880 On ch=1 n=e6 v=40
2880 On ch=1 n=c#6 v=40
2880 On ch=1 n=a5 v=40
3120 On ch=1 n=e6 v=0
3120 On ch=1 n=e5 v=0
3120 On ch=1 n=a6 v=40
3120 On ch=1 n=a5 v=40
3360 On ch=1 n=a5 v=0
3360 On ch=1 n=a6 v=0
3360 On ch=1 n=a5 v=0
3360 On ch=1 n=c#6 v=0
3360 On ch=1 n=a#6 v=50
3360 On ch=1 n=a#5 v=50
3360 On ch=1 n=d6 v=50
3360 On ch=1 n=e6 v=50
3600 On ch=1 n=a#5 v=0
3600 On ch=1 n=a#6 v=0
3600 On ch=1 n=f#7 v=50
3600 On ch=1 n=f#6 v=50
3840 On ch=1 n=f#6 v=0
3840 On ch=1 n=f#7 v=0
3840 On ch=1 n=e6 v=0
3840 On ch=1 n=d6 v=0
3840 On ch=1 n=c#7 v=60
3840 On ch=1 n=c#6 v=60
4320 On ch=1 n=c#6 v=0
4320 On ch=1 n=c#7 v=0
4320 On ch=1 n=c#7 v=50
4320 On ch=1 n=c#6 v=50
4800 On ch=1 n=c#6 v=0
4800 On ch=1 n=c#7 v=0
5280 On ch=1 n=f#5 v=50
5520 On ch=1 n=f#5 v=0
5520 On ch=1 n=c#5 v=40
5760 On ch=1 n=c#5 v=0
6240 On ch=1 n=f#5 v=50
6480 On ch=1 n=f#5 v=0
6480 On ch=1 n=c#5 v=40
6720 On ch=1 n=c#5 v=0
7200 On ch=1 n=f#5 v=50
7440 On ch=1 n=f#5 v=0
7440 On ch=1 n=c#5 v=40
7680 On ch=1 n=c#5 v=0
8160 On ch=1 n=c6 v=50
8400 On ch=1 n=c6 v=0
8400 On ch=1 n=g5 v=50
8880 On ch=1 n=g5 v=0
8880 On ch=1 n=a#5 v=60
9360 On ch=1 n=a#5 v=0
9360 On ch=1 n=c#5 v=60
9360 On ch=1 n=e5 v=60
9480 On ch=1 n=e5 v=0
9480 On ch=1 n=c#5 v=0
9600 On ch=1 n=g5 v=50
9600 On ch=1 n=e5 v=50
9720 On ch=1 n=e5 v=0
9720 On ch=1 n=g5 v=0
9840 On ch=1 n=a#5 v=50
9840 On ch=1 n=g5 v=50
9960 On ch=1 n=g5 v=0
9960 On ch=1 n=a#5 v=0
10080 On ch=1 n=c#6 v=40
10080 On ch=1 n=a#5 v=40
10200 On ch=1 n=a#5 v=0
10200 On ch=1 n=c#6 v=0
10320 On ch=1 n=e6 v=40
10320 On ch=1 n=c#6 v=40
10440 On ch=1 n=c#6 v=0
10440 On ch=1 n=e6 v=0
11040 On ch=1 n=c6 v=40
11280 On ch=1 n=c6 v=0
11280 On ch=1 n=g5 v=40
11760 On ch=1 n=g5 v=0
11760 On ch=1 n=a#5 v=40
12000 On ch=1 n=a#5 v=0
12000 On ch=1 n=c#6 v=40
12240 On ch=1 n=c#6 v=0
12240 On ch=1 n=g5 v=50
12240 On ch=1 n=a#5 v=50
12360 On ch=1 n=a#5 v=0
12360 On ch=1 n=g5 v=0
12480 On ch=1 n=c#6 v=50
12480 On ch=1 n=a#5 v=50
12600 On ch=1 n=a#5 v=0
12600 On ch=1 n=c#6 v=0
12720 On ch=1 n=e6 v=50
12720 On ch=1 n=c#6 v=50
12840 On ch=1 n=c#6 v=0
12840 On ch=1 n=e6 v=0
12960 On ch=1 n=g6 v=40
12960 On ch=1 n=e6 v=40
13080 On ch=1 n=e6 v=0
13080 On ch=1 n=g6 v=0
13200 On ch=1 n=a#6 v=40
13200 On ch=1 n=g6 v=40
13320 On ch=1 n=g6 v=0
13320 On ch=1 n=a#6 v=0
13920 On ch=1 n=c#7 v=70
13920 On ch=1 n=c#6 v=70
13920 On ch=1 n=f6 v=80
14160 On ch=1 n=c#6 v=0
14160 On ch=1 n=c#7 v=0
14160 On ch=1 n=d#7 v=70
14160 On ch=1 n=d#6 v=70
14400 On ch=1 n=d#6 v=0
14400 On ch=1 n=d#7 v=0
14400 On ch=1 n=d#7 v=70
14400 On ch=1 n=d#6 v=70
14880 On ch=1 n=f6 v=0
14880 On ch=1 n=f#6 v=90
15120 On ch=1 n=d#6 v=0
15120 On ch=1 n=d#7 v=0
15120 On ch=1 n=c#7 v=80
15120 On ch=1 n=c#6 v=80
15360 On ch=1 n=c#6 v=0
15360 On ch=1 n=c#7 v=0
15360 On ch=1 n=f#6 v=0
15360 On ch=1 n=c#7 v=80
15360 On ch=1 n=c#6 v=80
15360 On ch=1 n=g6 v=90
15600 On ch=1 n=c#6 v=0
15600 On ch=1 n=c#7 v=0
15600 On ch=1 n=d#7 v=80
15600 On ch=1 n=d#6 v=80
15840 On ch=1 n=d#6 v=0
15840 On ch=1 n=d#7 v=0
15840 On ch=1 n=g6 v=0
15840 On ch=1 n=d#7 v=80
15840 On ch=1 n=d#6 v=80
15840 On ch=1 n=f#6 v=90
16080 On ch=1 n=d#6 v=0
16080 On ch=1 n=d#7 v=0
16080 On ch=1 n=c#7 v=80
16080 On ch=1 n=c#6 v=80
16320 On ch=1 n=c#6 v=0
16320 On ch=1 n=c#7 v=0
16320 On ch=1 n=f#6 v=0
16800 On ch=1 n=b6 v=70
16800 On ch=1 n=b5 v=70
16800 On ch=1 n=f6 v=80
17040 On ch=1 n=b5 v=0
17040 On ch=1 n=b6 v=0
17040 On ch=1 n=c#7 v=70
17040 On ch=1 n=c#6 v=70
17280 On ch=1 n=c#6 v=0
17280 On ch=1 n=c#7 v=0
17280 On ch=1 n=c#7 v=70
17280 On ch=1 n=c#6 v=70
17760 On ch=1 n=f6 v=0
17760 On ch=1 n=f#6 v=90
18000 On ch=1 n=c#6 v=0
18000 On ch=1 n=c#7 v=0
18000 On ch=1 n=b6 v=80
18000 On ch=1 n=b5 v=80
18240 On ch=1 n=b5 v=0
18240 On ch=1 n=b6 v=0
18240 On ch=1 n=f#6 v=0
18240 On ch=1 n=b6 v=8
18240 On ch=1 n=b5 v=80
18240 On ch=1 n=g6 v=90
18480 On ch=1 n=b5 v=0
18480 On ch=1 n=b6 v=0
18480 On ch=1 n=a6 v=80
18480 On ch=1 n=a5 v=80
18720 On ch=1 n=a5 v=0
18720 On ch=1 n=a6 v=0
18720 On ch=1 n=g6 v=0
18720 On ch=1 n=b6 v=80
18720 On ch=1 n=b5 v=80
18720 On ch=1 n=f#6 v=90
18960 On ch=1 n=b5 v=0
18960 On ch=1 n=b6 v=0
18960 On ch=1 n=c#7 v=80
18960 On ch=1 n=c#6 v=80
19200 On ch=1 n=c#6 v=0
19200 On ch=1 n=c#7 v=0
19200 On ch=1 n=f#6 v=0
19680 On ch=1 n=d#6 v=80
19680 On ch=1 n=d#5 v=80
19680 On ch=1 n=a5 v=80
19920 On ch=1 n=d#5 v=0
19920 On ch=1 n=d#6 v=0
19920 On ch=1 n=g#6 v=80
19920 On ch=1 n=g#5 v=80
20160 On ch=1 n=g#5 v=0
20160 On ch=1 n=g#6 v=0
20160 On ch=1 n=d#6 v=80
20160 On ch=1 n=d#5 v=80
20640 On ch=1 n=d#5 v=0
20640 On ch=1 n=d#6 v=0
20640 On ch=1 n=a5 v=0
20880 On ch=1 n=c#5 v=90
20880 On ch=1 n=c#6 v=90
20880 On ch=1 n=g5 v=90
21120 On ch=1 n=c#6 v=0
21120 On ch=1 n=c#5 v=0
21120 On ch=1 n=a#4 v=90
21120 On ch=1 n=a#5 v=90
21360 On ch=1 n=a#5 v=0
21360 On ch=1 n=a#4 v=0
21360 On ch=1 n=g5 v=0
21360 On ch=1 n=c#5 v=90
21360 On ch=1 n=c#6 v=90
21600 On ch=1 n=c#6 v=0
21600 On ch=1 n=c#5 v=0
21600 On ch=1 n=d#5 v=90
21600 On ch=1 n=d#6 v=90
21840 On ch=1 n=d#6 v=0
21840 On ch=1 n=d#5 v=0
21840 On ch=1 n=f#5 v=90
21840 On ch=1 n=f#6 v=90
22080 On ch=1 n=f#6 v=0
22080 On ch=1 n=f#5 v=0
22320 On ch=1 n=d#5 v=80
22320 On ch=1 n=d#6 v=80
22560 On ch=1 n=d#6 v=0
22560 On ch=1 n=d#5 v=0
22560 On ch=1 n=g#6 v=80
22560 On ch=1 n=g#5 v=80
22800 On ch=1 n=g#5 v=0
22800 On ch=1 n=g#6 v=0
22800 On ch=1 n=d#7 v=70
22800 On ch=1 n=d#6 v=70
23040 On ch=1 n=d#6 v=0
23040 On ch=1 n=d#7 v=0
23040 On ch=1 n=g#6 v=70
23040 On ch=1 n=g#7 v=70
23280 On ch=1 n=g#7 v=0
23280 On ch=1 n=g#6 v=0
23280 On ch=1 n=d#8 v=70
23280 On ch=1 n=d#7 v=70
23520 On ch=1 n=d#7 v=0
23520 On ch=1 n=d#8 v=0
23520 On ch=1 n=g#8 v=60
23520 On ch=1 n=g#7 v=60
24000 On ch=1 n=g#7 v=0
24000 On ch=1 n=g#8 v=0
24720 On ch=1 n=c#6 v=60
24960 On ch=1 n=c#6 v=0
24960 On ch=1 n=d#6 v=50
25200 On ch=1 n=d#6 v=0
25200 On ch=1 n=c#6 v=50
25440 On ch=1 n=c#6 v=0
25440 On ch=1 n=d#5 v=50
25680 On ch=1 n=d#5 v=0
25680 On ch=1 n=c#5 v=50
25920 On ch=1 n=c#5 v=0
25920 On ch=1 n=d#5 v=50
26160 On ch=1 n=d#5 v=0
26160 On ch=1 n=c#6 v=50
26400 On ch=1 n=c#6 v=0
26400 On ch=1 n=d#6 v=40
26640 On ch=1 n=d#6 v=0
26640 On ch=1 n=c#6 v=40
26880 On ch=1 n=c#6 v=0
26880 On ch=1 n=d#5 v=40
27120 On ch=1 n=d#5 v=0
27120 On ch=1 n=c#5 v=40
27360 On ch=1 n=c#5 v=0
27360 On ch=1 n=d#5 v=40
27600 On ch=1 n=d#5 v=0
27600 On ch=1 n=c#6 v=40
27840 On ch=1 n=c#6 v=0
27840 On ch=1 n=d#6 v=40
28080 On ch=1 n=d#6 v=0
28080 On ch=1 n=c#6 v=40
28320 On ch=1 n=c#6 v=0
28320 On ch=1 n=d#5 v=40
28560 On ch=1 n=d#5 v=0
28560 On ch=1 n=c#5 v=40
28800 On ch=1 n=c#5 v=0
28800 On ch=1 n=d#5 v=40
29040 On ch=1 n=d#5 v=0
29040 On ch=1 n=c#6 v=40
29280 On ch=1 n=c#6 v=0
29280 On ch=1 n=d#6 v=40
29520 On ch=1 n=d#6 v=0
29520 On ch=1 n=c#6 v=40
29760 On ch=1 n=c#6 v=0
29760 On ch=1 n=d#5 v=40
30000 On ch=1 n=d#5 v=0
30000 On ch=1 n=c#5 v=40
30240 On ch=1 n=c#5 v=0
30240 On ch=1 n=d#5 v=40
30480 On ch=1 n=d#5 v=0
30480 On ch=1 n=c#6 v=40
30720 On ch=1 n=c#6 v=0
30720 On ch=1 n=d#6 v=40
30960 On ch=1 n=d#6 v=0
30960 On ch=1 n=c#6 v=40
31200 On ch=1 n=c#6 v=0
31200 On ch=1 n=d#5 v=40
31440 On ch=1 n=d#5 v=0
31440 On ch=1 n=c#5 v=40
31680 On ch=1 n=c#5 v=0
31680 On ch=1 n=d#5 v=40
31920 On ch=1 n=d#5 v=0
31920 On ch=1 n=c#6 v=40
32160 On ch=1 n=c#6 v=0
32160 On ch=1 n=d#6 v=40
32400 On ch=1 n=d#6 v=0
32400 On ch=1 n=c#6 v=40
32640 On ch=1 n=c#6 v=0
32640 On ch=1 n=d#5 v=40
32880 On ch=1 n=d#5 v=0
32880 On ch=1 n=c#5 v=40
33120 On ch=1 n=c#5 v=0
33120 On ch=1 n=d#5 v=40
33360 On ch=1 n=d#5 v=0
33360 On ch=1 n=c#6 v=40
33600 On ch=1 n=c#6 v=0
33600 On ch=1 n=d#6 v=40
33840 On ch=1 n=d#6 v=0
33840 On ch=1 n=c#6 v=40
34080 On ch=1 n=c#6 v=0
34080 On ch=1 n=c#5 v=40
34320 On ch=1 n=c#5 v=0
34320 On ch=1 n=d#5 v=40
34560 On ch=1 n=d#5 v=0
34560 On ch=1 n=c#6 v=40
34800 On ch=1 n=c#6 v=0
34800 On ch=1 n=d#6 v=40
35520 On ch=1 n=d#6 v=0
35520 On ch=1 n=e6 v=40
35520 On ch=1 n=e5 v=40
35520 On ch=1 n=c#6 v=40
35520 On ch=1 n=a5 v=40
35760 On ch=1 n=e5 v=0
35760 On ch=1 n=e6 v=0
35760 On ch=1 n=a6 v=40
35760 On ch=1 n=a5 v=40
36000 On ch=1 n=a5 v=0
36000 On ch=1 n=a6 v=0
36000 On ch=1 n=a5 v=0
36000 On ch=1 n=c#6 v=0
36000 On ch=1 n=e6 v=40
36000 On ch=1 n=d6 v=40
36000 On ch=1 n=a#5 v=40
36000 On ch=1 n=a#6 v=40
36480 On ch=1 n=a#6 v=0
36480 On ch=1 n=a#5 v=0
36480 On ch=1 n=d6 v=0
36480 On ch=1 n=e6 v=0
36480 On ch=1 n=e5 v=40
36480 On ch=1 n=e6 v=40
36960 On ch=1 n=e6 v=0
36960 On ch=1 n=e5 v=0
37920 On ch=1 n=e6 v=40
37920 On ch=1 n=e5 v=40
37920 On ch=1 n=c#6 v=40
37920 On ch=1 n=a5 v=40
38160 On ch=1 n=e5 v=0
38160 On ch=1 n=e6 v=0
38160 On ch=1 n=a6 v=40
38160 On ch=1 n=a5 v=40
38400 On ch=1 n=a5 v=0
38400 On ch=1 n=a6 v=0
38400 On ch=1 n=a5 v=0
38400 On ch=1 n=c#6 v=0
38400 On ch=1 n=a#6 v=40
38400 On ch=1 n=a#5 v=40
38400 On ch=1 n=e6 v=40
38400 On ch=1 n=d6 v=40
38640 On ch=1 n=a#5 v=0
38640 On ch=1 n=a#6 v=0
38640 On ch=1 n=f#7 v=40
38640 On ch=1 n=f#6 v=40
38880 On ch=1 n=f#6 v=0
38880 On ch=1 n=f#7 v=0
38880 On ch=1 n=d6 v=0
38880 On ch=1 n=e6 v=0
38880 On ch=1 n=c#7 v=40
38880 On ch=1 n=c#6 v=40
39360 On ch=1 n=c#6 v=0
39360 On ch=1 n=c#7 v=0
39360 On ch=1 n=c#7 v=40
39360 On ch=1 n=c#6 v=40
39840 On ch=1 n=c#6 v=0
39840 On ch=1 n=c#7 v=0
40320 On ch=1 n=f#5 v=50
40560 On ch=1 n=f#5 v=0
40560 On ch=1 n=c#5 v=40
40800 On ch=1 n=c#5 v=0
41280 On ch=1 n=f#5 v=50
41520 On ch=1 n=f#5 v=0
41520 On ch=1 n=c#5 v=40
42240 On ch=1 n=c#5 v=0
45600 On ch=1 n=d#6 v=60
45600 On ch=1 n=d#5 v=60
45600 On ch=1 n=c6 v=60
45600 On ch=1 n=g#5 v=60
45840 On ch=1 n=d#5 v=0
45840 On ch=1 n=d#6 v=0
45840 On ch=1 n=g#6 v=60
45840 On ch=1 n=g#5 v=60
46080 On ch=1 n=g#5 v=0
46080 On ch=1 n=g#6 v=0
46080 On ch=1 n=g#5 v=0
46080 On ch=1 n=c6 v=0
46080 On ch=1 n=a6 v=70
46080 On ch=1 n=a5 v=70
46080 On ch=1 n=c#6 v=70
46080 On ch=1 n=d#6 v=70
46320 On ch=1 n=a5 v=0
46320 On ch=1 n=a6 v=0
46320 On ch=1 n=f7 v=70
46320 On ch=1 n=f6 v=70
46560 On ch=1 n=f6 v=0
46560 On ch=1 n=f7 v=0
46560 On ch=1 n=d#6 v=0
46560 On ch=1 n=c#6 v=0
46560 On ch=1 n=c7 v=80
46560 On ch=1 n=c6 v=80
47040 On ch=1 n=c6 v=0
47040 On ch=1 n=c7 v=0
47040 On ch=1 n=g7 v=80
47040 On ch=1 n=a#6 v=80
47040 On ch=1 n=g6 v=80
47280 On ch=1 n=g6 v=0
47280 On ch=1 n=a#6 v=0
47280 On ch=1 n=g7 v=0
47280 On ch=1 n=d7 v=80
47280 On ch=1 n=b6 v=80
47280 On ch=1 n=d6 v=80
47760 On ch=1 n=d6 v=0
47760 On ch=1 n=b6 v=0
47760 On ch=1 n=d7 v=0
47760 On ch=1 n=f7 v=70
47760 On ch=1 n=a#6 v=70
47760 On ch=1 n=f6 v=70
48000 On ch=1 n=f6 v=0
48000 On ch=1 n=a#6 v=0
48000 On ch=1 n=f7 v=0
48000 On ch=1 n=c7 v=60
48000 On ch=1 n=f6 v=60
48000 On ch=1 n=c6 v=60
48240 On ch=1 n=c6 v=0
48240 On ch=1 n=f6 v=0
48240 On ch=1 n=c7 v=0
48240 On ch=1 n=d#7 v=60
48240 On ch=1 n=g#6 v=60
48240 On ch=1 n=d#6 v=60
48480 On ch=1 n=d#6 v=0
48480 On ch=1 n=g#6 v=0
48480 On ch=1 n=d#7 v=0
48480 On ch=1 n=a#6 v=50
48480 On ch=1 n=e6 v=50
48480 On ch=1 n=a#5 v=50
48720 On ch=1 n=a#5 v=0
48720 On ch=1 n=e6 v=0
48720 On ch=1 n=a#6 v=0
48720 On ch=1 n=c#7 v=50
48720 On ch=1 n=f#6 v=50
48720 On ch=1 n=c#6 v=50
48960 On ch=1 n=c#6 v=0
48960 On ch=1 n=f#6 v=0
48960 On ch=1 n=c#7 v=0
49440 On ch=1 n=f6 v=40
49440 On ch=1 n=a#5 v=40
49440 On ch=1 n=f5 v=40
49680 On ch=1 n=f5 v=0
49680 On ch=1 n=a#5 v=0
49680 On ch=1 n=f6 v=0
49680 On ch=1 n=c7 v=40
49680 On ch=1 n=c6 v=40
49680 On ch=1 n=e6 v=40
50160 On ch=1 n=e6 v=0
50160 On ch=1 n=c6 v=0
50160 On ch=1 n=c7 v=0
50160 On ch=1 n=f6 v=40
50400 On ch=1 n=f6 v=0
50400 On ch=1 n=c7 v=40
50400 On ch=1 n=f#6 v=40
50400 On ch=1 n=c6 v=40
50880 On ch=1 n=c6 v=0
50880 On ch=1 n=f#6 v=0
50880 On ch=1 n=c7 v=0
50880 On ch=1 n=d#5 v=40
50880 On ch=1 n=c#6 v=40
50880 On ch=1 n=d#6 v=40
51360 On ch=1 n=d#6 v=0
51360 On ch=1 n=c#6 v=0
51360 On ch=1 n=d#5 v=0
51600 On ch=1 n=g5 v=80
51840 On ch=1 n=g5 v=0
51840 On ch=1 n=f5 v=80
52320 On ch=1 n=d#5 v=80
52380 On ch=1 n=d#5 v=0
52380 On ch=1 n=c5 v=80
52440 On ch=1 n=c5 v=0
52440 On ch=1 n=g#4 v=80
52500 On ch=1 n=g#4 v=0
52500 On ch=1 n=d#4 v=80
52560 On ch=1 n=d#4 v=0
53280 On ch=1 n=f5 v=0
53280 On ch=1 n=d#5 v=60
53280 On ch=1 n=d#6 v=60
53280 On ch=1 n=c6 v=60
53280 On ch=1 n=g#5 v=60
53520 On ch=1 n=d#6 v=0
53520 On ch=1 n=d#5 v=0
53520 On ch=1 n=g#6 v=60
53520 On ch=1 n=g#5 v=60
53760 On ch=1 n=g#5 v=0
53760 On ch=1 n=g#6 v=0
53760 On ch=1 n=g#5 v=0
53760 On ch=1 n=c6 v=0
53760 On ch=1 n=a5 v=70
53760 On ch=1 n=a6 v=70
53760 On ch=1 n=d#6 v=70
53760 On ch=1 n=c#6 v=70
54000 On ch=1 n=a6 v=0
54000 On ch=1 n=a5 v=0
54000 On ch=1 n=f7 v=70
54000 On ch=1 n=f6 v=70
54240 On ch=1 n=f6 v=0
54240 On ch=1 n=f7 v=0
54240 On ch=1 n=c#6 v=0
54240 On ch=1 n=d#6 v=0
54240 On ch=1 n=c7 v=80
54240 On ch=1 n=c6 v=80
54720 On ch=1 n=c6 v=0
54720 On ch=1 n=c7 v=0
54720 On ch=1 n=b4 v=60
54720 On ch=1 n=d5 v=60
54720 On ch=1 n=g5 v=60
55200 On ch=1 n=g5 v=0
55200 On ch=1 n=d5 v=0
55200 On ch=1 n=b4 v=0
55200 On ch=1 n=f5 v=60
55380 On ch=1 n=d#5 v=60
55440 On ch=1 n=d#5 v=0
55440 On ch=1 n=c5 v=60
55480 On ch=1 n=c5 v=0
55480 On ch=1 n=g#4 v=60
55520 On ch=1 n=g#4 v=0
55520 On ch=1 n=d#4 v=60
55560 On ch=1 n=d#4 v=0
56160 On ch=1 n=f5 v=0
56160 On ch=1 n=d#5 v=60
56160 On ch=1 n=d#6 v=60
56160 On ch=1 n=c6 v=60
56160 On ch=1 n=g#5 v=60
56400 On ch=1 n=d#6 v=0
56400 On ch=1 n=d#5 v=0
56400 On ch=1 n=g#6 v=60
56400 On ch=1 n=g#5 v=60
56640 On ch=1 n=g#5 v=0
56640 On ch=1 n=g#6 v=0
56640 On ch=1 n=g#5 v=0
56640 On ch=1 n=c6 v=0
56640 On ch=1 n=a6 v=70
56640 On ch=1 n=a5 v=70
56640 On ch=1 n=c#6 v=70
56640 On ch=1 n=d#6 v=70
56880 On ch=1 n=a5 v=0
56880 On ch=1 n=a6 v=0
56880 On ch=1 n=f7 v=70
56880 On ch=1 n=f6 v=70
57120 On ch=1 n=f6 v=0
57120 On ch=1 n=f7 v=0
57120 On ch=1 n=d#6 v=0
57120 On ch=1 n=c#6 v=0
57120 On ch=1 n=c7 v=80
57120 On ch=1 n=c6 v=80
57600 On ch=1 n=c6 v=0
57600 On ch=1 n=c7 v=0
57600 On ch=1 n=b4 v=60
57600 On ch=1 n=d5 v=60
57600 On ch=1 n=g5 v=60
57720 On ch=1 n=g5 v=0
57720 On ch=1 n=d5 v=0
57720 On ch=1 n=b4 v=0
57840 On ch=1 n=a#5 v=60
57840 On ch=1 n=f5 v=60
57840 On ch=1 n=c#5 v=60
57960 On ch=1 n=c#5 v=0
57960 On ch=1 n=f5 v=0
57960 On ch=1 n=a#5 v=0
58080 On ch=1 n=b4 v=60
58080 On ch=1 n=d5 v=60
58080 On ch=1 n=g5 v=60
58200 On ch=1 n=g5 v=0
58200 On ch=1 n=d5 v=0
58200 On ch=1 n=b4 v=0
58320 On ch=1 n=g#4 v=60
58320 On ch=1 n=b4 v=60
58320 On ch=1 n=e5 v=60
58440 On ch=1 n=e5 v=0
58440 On ch=1 n=b4 v=0
58440 On ch=1 n=g#4 v=0
58560 On ch=1 n=e4 v=60
58560 On ch=1 n=g4 v=60
58560 On ch=1 n=c5 v=60
58680 On ch=1 n=c5 v=0
58680 On ch=1 n=g4 v=0
58680 On ch=1 n=e4 v=0
58800 On ch=1 n=e5 v=60
58800 On ch=1 n=g#4 v=60
58800 On ch=1 n=b4 v=60
58920 On ch=1 n=b4 v=0
58920 On ch=1 n=g#4 v=0
58920 On ch=1 n=e5 v=0
59040 On ch=1 n=b4 v=60
59040 On ch=1 n=d5 v=60
59040 On ch=1 n=g5 v=60
59160 On ch=1 n=g5 v=0
59160 On ch=1 n=d5 v=0
59160 On ch=1 n=b4 v=0
59280 On ch=1 n=g#4 v=60
59280 On ch=1 n=b4 v=60
59280 On ch=1 n=e5 v=60
59400 On ch=1 n=e5 v=0
59400 On ch=1 n=b4 v=0
59400 On ch=1 n=g#4 v=0
59520 On ch=1 n=g4 v=60
59520 On ch=1 n=c5 v=60
59640 On ch=1 n=c5 v=0
59640 On ch=1 n=g4 v=0
59760 On ch=1 n=a4 v=60
59880 On ch=1 n=a4 v=0
60000 On ch=1 n=g4 v=60
60000 On ch=1 n=c5 v=60
60120 On ch=1 n=c5 v=0
60120 On ch=1 n=g4 v=0
60240 On ch=1 n=g#4 v=60
60240 On ch=1 n=b4 v=60
60240 On ch=1 n=e5 v=60
60360 On ch=1 n=e5 v=0
60360 On ch=1 n=b4 v=0
60360 On ch=1 n=g#4 v=0
60480 On ch=1 n=c5 v=70
60480 On ch=1 n=d#5 v=70
60480 On ch=1 n=g#5 v=70
60960 On ch=1 n=g#5 v=0
60960 On ch=1 n=d#5 v=0
60960 On ch=1 n=c5 v=0
60960 On ch=1 n=f#5 v=80
61140 On ch=1 n=e5 v=80
61200 On ch=1 n=e5 v=0
61200 On ch=1 n=c#5 v=80
61240 On ch=1 n=c#5 v=0
61240 On ch=1 n=a4 v=80
61280 On ch=1 n=a4 v=0
61920 On ch=1 n=f#5 v=0
61920 On ch=1 n=e5 v=60
61920 On ch=1 n=e6 v=60
61920 On ch=1 n=c#6 v=60
61920 On ch=1 n=a5 v=60
62160 On ch=1 n=e6 v=0
62160 On ch=1 n=e5 v=0
62160 On ch=1 n=a6 v=60
62160 On ch=1 n=a5 v=60
62400 On ch=1 n=a5 v=0
62400 On ch=1 n=a6 v=0
62400 On ch=1 n=a5 v=0
62400 On ch=1 n=c#6 v=0
62400 On ch=1 n=d6 v=70
62400 On ch=1 n=e6 v=70
62400 On ch=1 n=a#6 v=70
62400 On ch=1 n=a#5 v=70
62640 On ch=1 n=a#5 v=0
62640 On ch=1 n=a#6 v=0
62640 On ch=1 n=f#7 v=70
62640 On ch=1 n=f#6 v=70
62880 On ch=1 n=f#6 v=0
62880 On ch=1 n=f#7 v=0
62880 On ch=1 n=e6 v=0
62880 On ch=1 n=d6 v=0
62880 On ch=1 n=c#7 v=80
62880 On ch=1 n=c#6 v=80
63360 On ch=1 n=c#6 v=0
63360 On ch=1 n=c#7 v=0
63360 On ch=1 n=b5 v=80
63360 On ch=1 n=g5 v=80
63360 On ch=1 n=f5 v=80
63360 On ch=1 n=d5 v=80
63480 On ch=1 n=d5 v=0
63480 On ch=1 n=f5 v=0
63480 On ch=1 n=g5 v=0
63480 On ch=1 n=b5 v=0
63840 On ch=1 n=d6 v=80
63840 On ch=1 n=e6 v=80
63840 On ch=1 n=a#6 v=80
63840 On ch=1 n=a#5 v=80
64080 On ch=1 n=a#5 v=0
64080 On ch=1 n=a#6 v=0
64080 On ch=1 n=f#7 v=80
64080 On ch=1 n=f#6 v=80
64320 On ch=1 n=f#6 v=0
64320 On ch=1 n=f#7 v=0
64320 On ch=1 n=e6 v=0
64320 On ch=1 n=d6 v=0
64320 On ch=1 n=c#7 v=90
64320 On ch=1 n=c#6 v=90
64800 On ch=1 n=c#6 v=0
64800 On ch=1 n=c#7 v=0
64800 On ch=1 n=b5 v=100
64800 On ch=1 n=g5 v=100
64800 On ch=1 n=f5 v=100
64800 On ch=1 n=d5 v=100
64920 On ch=1 n=d5 v=0
64920 On ch=1 n=f5 v=0
64920 On ch=1 n=g5 v=0
64920 On ch=1 n=b5 v=0
66720 On ch=1 n=c#5 v=60
66840 On ch=1 n=d5 v=40
66960 On ch=1 n=d5 v=0
66960 On ch=1 n=f#5 v=40
67080 On ch=1 n=f#5 v=0
67080 On ch=1 n=g#5 v=40
67200 On ch=1 n=g#5 v=0
67200 On ch=1 n=c#5 v=0
67200 On ch=1 n=c#7 v=60
67200 On ch=1 n=c#6 v=60
67320 On ch=1 n=d6 v=40
67440 On ch=1 n=d6 v=0
67440 On ch=1 n=f#6 v=40
67560 On ch=1 n=f#6 v=0
67560 On ch=1 n=g#6 v=40
67680 On ch=1 n=g#6 v=0
67680 On ch=1 n=c#6 v=0
67680 On ch=1 n=c#7 v=0
67680 On ch=1 n=c#8 v=60
67680 On ch=1 n=c#7 v=60
67800 On ch=1 n=g#6 v=40
67920 On ch=1 n=g#6 v=0
67920 On ch=1 n=f#6 v=40
68040 On ch=1 n=f#6 v=0
68040 On ch=1 n=d6 v=40
68160 On ch=1 n=d6 v=0
68160 On ch=1 n=c#7 v=0
68160 On ch=1 n=c#8 v=0
69600 On ch=1 n=c#5 v=80
69720 On ch=1 n=d5 v=60
69840 On ch=1 n=d5 v=0
69840 On ch=1 n=f#5 v=60
69960 On ch=1 n=f#5 v=0
69960 On ch=1 n=g#5 v=60
70080 On ch=1 n=g#5 v=0
70080 On ch=1 n=c#5 v=0
70080 On ch=1 n=c#7 v=80
70080 On ch=1 n=c#6 v=80
70200 On ch=1 n=d6 v=60
70320 On ch=1 n=d6 v=0
70320 On ch=1 n=f#6 v=60
70440 On ch=1 n=f#6 v=0
70440 On ch=1 n=g#6 v=60
70560 On ch=1 n=g#6 v=0
70560 On ch=1 n=c#6 v=0
70560 On ch=1 n=c#7 v=0
70560 On ch=1 n=c#8 v=80
70560 On ch=1 n=c#7 v=80
70680 On ch=1 n=g#6 v=60
70800 On ch=1 n=g#6 v=0
70800 On ch=1 n=f#6 v=60
70920 On ch=1 n=f#6 v=0
70920 On ch=1 n=d6 v=60
71040 On ch=1 n=d6 v=0
71040 On ch=1 n=c#7 v=0
71040 On ch=1 n=c#8 v=0
71040 On ch=1 n=c#5 v=80
71520 On ch=1 n=c#5 v=0
71520 On ch=1 n=a#4 v=80
71640 On ch=1 n=d5 v=60
71760 On ch=1 n=d5 v=0
71760 On ch=1 n=f#5 v=60
71880 On ch=1 n=f#5 v=0
71880 On ch=1 n=g#5 v=60
72000 On ch=1 n=g#5 v=0
72000 On ch=1 n=a#4 v=0
72000 On ch=1 n=c#7 v=70
72000 On ch=1 n=c#6 v=70
72000 On ch=1 n=f#6 v=70
72240 On ch=1 n=c#6 v=0
72240 On ch=1 n=c#7 v=0
72240 On ch=1 n=f#7 v=70
72240 On ch=1 n=f#6 v=70
72480 On ch=1 n=f#6 v=0
72480 On ch=1 n=f#7 v=0
72480 On ch=1 n=f#6 v=0
72480 On ch=1 n=g7 v=60
72480 On ch=1 n=c#7 v=60
72480 On ch=1 n=g6 v=60
72960 On ch=1 n=g6 v=0
72960 On ch=1 n=c#7 v=0
72960 On ch=1 n=g7 v=0
72960 On ch=1 n=c#6 v=60
72960 On ch=1 n=c#7 v=60
73440 On ch=1 n=c#7 v=0
73440 On ch=1 n=c#6 v=0
73920 On ch=1 n=c#7 v=50
73920 On ch=1 n=c#6 v=50
73920 On ch=1 n=f#6 v=50
74160 On ch=1 n=c#6 v=0
74160 On ch=1 n=c#7 v=0
74160 On ch=1 n=f#7 v=50
74160 On ch=1 n=f#6 v=50
74400 On ch=1 n=f#6 v=0
74400 On ch=1 n=f#7 v=0
74400 On ch=1 n=f#6 v=0
74400 On ch=1 n=c#7 v=60
74400 On ch=1 n=g7 v=60
74400 On ch=1 n=g6 v=60
74560 On ch=1 n=d#8 v=50
74560 On ch=1 n=d#7 v=50
74720 On ch=1 n=d#7 v=0
74720 On ch=1 n=d#8 v=0
74720 On ch=1 n=a#7 v=50
74720 On ch=1 n=a#6 v=50
74880 On ch=1 n=a#6 v=0
74880 On ch=1 n=a#7 v=0
74880 On ch=1 n=g6 v=0
74880 On ch=1 n=g7 v=0
74880 On ch=1 n=c#7 v=0
74880 On ch=1 n=f7 v=50
74880 On ch=1 n=b6 v=50
74880 On ch=1 n=f6 v=50
75040 On ch=1 n=c#8 v=40
75040 On ch=1 n=c#7 v=40
75200 On ch=1 n=c#7 v=0
75200 On ch=1 n=c#8 v=0
75200 On ch=1 n=g#7 v=40
75200 On ch=1 n=g#6 v=40
75360 On ch=1 n=g#6 v=0
75360 On ch=1 n=g#7 v=0
75360 On ch=1 n=f6 v=0
75360 On ch=1 n=b6 v=0
75360 On ch=1 n=f7 v=0
75360 On ch=1 n=d7 v=50
75360 On ch=1 n=g#6 v=50
75360 On ch=1 n=d6 v=50
75520 On ch=1 n=a#7 v=40
75520 On ch=1 n=a#6 v=40
75680 On ch=1 n=a#6 v=0
75680 On ch=1 n=a#7 v=0
75680 On ch=1 n=e7 v=40
75680 On ch=1 n=e6 v=40
75840 On ch=1 n=e6 v=0
75840 On ch=1 n=e7 v=0
75840 On ch=1 n=d6 v=0
75840 On ch=1 n=g#6 v=0
75840 On ch=1 n=d7 v=0
75840 On ch=1 n=c#7 v=40
75840 On ch=1 n=g6 v=40
75840 On ch=1 n=c#6 v=40
76000 On ch=1 n=a7 v=30
76000 On ch=1 n=a6 v=30
76160 On ch=1 n=a6 v=0
76160 On ch=1 n=a7 v=0
76160 On ch=1 n=e7 v=30
76160 On ch=1 n=e6 v=30
76320 On ch=1 n=e6 v=0
76320 On ch=1 n=e7 v=0
76800 On ch=1 n=c#6 v=0
76800 On ch=1 n=g6 v=0
76800 On ch=1 n=c#7 v=0
77040 On ch=1 n=a5 v=40
77120 On ch=1 n=a5 v=0
77120 On ch=1 n=a#5 v=40
77200 On ch=1 n=a#5 v=0
77200 On ch=1 n=f#6 v=40
77280 On ch=1 n=f#6 v=0
77280 On ch=1 n=c7 v=50
77280 On ch=1 n=g6 v=50
77280 On ch=1 n=c6 v=50
77440 On ch=1 n=a7 v=40
77440 On ch=1 n=a6 v=40
77600 On ch=1 n=a6 v=0
77600 On ch=1 n=a7 v=0
77600 On ch=1 n=e7 v=40
77600 On ch=1 n=e6 v=40
77760 On ch=1 n=e6 v=0
77760 On ch=1 n=e7 v=0
78240 On ch=1 n=c6 v=0
78240 On ch=1 n=g6 v=0
78240 On ch=1 n=c7 v=0
78480 On ch=1 n=a5 v=40
78560 On ch=1 n=a5 v=0
78560 On ch=1 n=a#5 v=40
78640 On ch=1 n=a#5 v=0
78640 On ch=1 n=f#6 v=40
78720 On ch=1 n=f#6 v=0
78720 On ch=1 n=c#7 v=50
78720 On ch=1 n=g6 v=50
78720 On ch=1 n=c#6 v=50
78960 On ch=1 n=a5 v=40
79040 On ch=1 n=a5 v=0
79040 On ch=1 n=a#5 v=40
79120 On ch=1 n=a#5 v=0
79120 On ch=1 n=f#6 v=40
79200 On ch=1 n=f#6 v=0
79200 On ch=1 n=c#6 v=0
79200 On ch=1 n=g6 v=0
79200 On ch=1 n=c#7 v=0
79200 On ch=1 n=c7 v=50
79200 On ch=1 n=g6 v=50
79200 On ch=1 n=c6 v=50
79440 On ch=1 n=a5 v=40
79520 On ch=1 n=a5 v=0
79520 On ch=1 n=a#5 v=40
79600 On ch=1 n=a#5 v=0
79600 On ch=1 n=f#6 v=40
79680 On ch=1 n=f#6 v=0
79680 On ch=1 n=c6 v=0
79680 On ch=1 n=g6 v=0
79680 On ch=1 n=c7 v=0
79680 On ch=1 n=c#7 v=50
79680 On ch=1 n=g6 v=50
79680 On ch=1 n=c#6 v=50
79920 On ch=1 n=a5 v=40
80000 On ch=1 n=a5 v=0
80000 On ch=1 n=a#5 v=40
80080 On ch=1 n=a#5 v=0
80080 On ch=1 n=f#6 v=40
80160 On ch=1 n=c#6 v=0
80160 On ch=1 n=g6 v=0
80160 On ch=1 n=c#7 v=0
80640 On ch=1 n=b5 v=40
80640 On ch=1 n=f#5 v=40
80880 On ch=1 n=f#5 v=0
80880 On ch=1 n=b5 v=0
80880 On ch=1 n=f#6 v=0
80880 On ch=1 n=c#7 v=50
80880 On ch=1 n=f6 v=50
80880 On ch=1 n=c#6 v=50
81360 On ch=1 n=c#6 v=0
81360 On ch=1 n=f6 v=0
81360 On ch=1 n=c#7 v=0
81360 On ch=1 n=f#6 v=50
81600 On ch=1 n=f#6 v=0
81600 On ch=1 n=c#7 v=40
81600 On ch=1 n=g#6 v=40
81600 On ch=1 n=c#6 v=40
82080 On ch=1 n=c#6 v=0
82080 On ch=1 n=g#6 v=0
82080 On ch=1 n=c#7 v=0
82080 On ch=1 n=e5 v=40
82080 On ch=1 n=d6 v=40
82080 On ch=1 n=e6 v=40
82500 On ch=1 n=d#5 v=40
82500 On ch=1 n=f#5 v=40
82560 On ch=1 n=f#5 v=0
82560 On ch=1 n=d#5 v=0
82560 On ch=1 n=e6 v=0
82560 On ch=1 n=d6 v=0
82560 On ch=1 n=e5 v=0
82560 On ch=1 n=e5 v=40
82560 On ch=1 n=c#5 v=40
82800 On ch=1 n=c#5 v=0
82800 On ch=1 n=e5 v=0
82800 On ch=1 n=c#7 v=40
82800 On ch=1 n=a6 v=40
82800 On ch=1 n=c#6 v=40
82800 On ch=1 n=c#5 v=40
82800 On ch=1 n=e5 v=40
83520 On ch=1 n=c#6 v=0
83520 On ch=1 n=a6 v=0
83520 On ch=1 n=c#7 v=0
84000 On ch=1 n=e5 v=0
84000 On ch=1 n=c#5 v=0
84000 On ch=1 n=d#5 v=40
84000 On ch=1 n=f#5 v=40
84120 On ch=1 n=f#5 v=0
84120 On ch=1 n=d#5 v=0
84120 On ch=1 n=c#5 v=40
84120 On ch=1 n=e5 v=40
84240 On ch=1 n=e5 v=0
84240 On ch=1 n=c#5 v=0
84240 On ch=1 n=g#5 v=40
84240 On ch=1 n=e5 v=40
84300 On ch=1 n=e5 v=0
84300 On ch=1 n=g#5 v=0
84300 On ch=1 n=d#5 v=40
84300 On ch=1 n=f#5 v=40
84360 On ch=1 n=f#5 v=0
84360 On ch=1 n=d#5 v=0
84360 On ch=1 n=c#5 v=40
84360 On ch=1 n=e5 v=40
84480 On ch=1 n=e5 v=0
84480 On ch=1 n=c#5 v=0
84480 On ch=1 n=c#7 v=40
84480 On ch=1 n=a6 v=40
84480 On ch=1 n=c#6 v=40
84480 On ch=1 n=c#5 v=40
84480 On ch=1 n=e5 v=40
85200 On ch=1 n=c#6 v=0
85200 On ch=1 n=a6 v=0
85200 On ch=1 n=c#7 v=0
85380 On ch=1 n=d#5 v=40
85380 On ch=1 n=f#5 v=40
85440 On ch=1 n=f#5 v=0
85440 On ch=1 n=d#5 v=0
85440 On ch=1 n=e5 v=0
85440 On ch=1 n=c#5 v=0
85440 On ch=1 n=e5 v=40
85440 On ch=1 n=c#5 v=40
85680 On ch=1 n=c#5 v=0
85680 On ch=1 n=e5 v=0
85680 On ch=1 n=c#7 v=40
85680 On ch=1 n=a6 v=40
85680 On ch=1 n=c#6 v=40
85680 On ch=1 n=c#5 v=40
85680 On ch=1 n=e5 v=40
86400 On ch=1 n=c#6 v=0
86400 On ch=1 n=a6 v=0
86400 On ch=1 n=c#7 v=0
86880 On ch=1 n=e5 v=0
86880 On ch=1 n=c#5 v=0
86880 On ch=1 n=d#5 v=40
86880 On ch=1 n=f#5 v=40
87000 On ch=1 n=f#5 v=0
87000 On ch=1 n=d#5 v=0
87000 On ch=1 n=c#5 v=40
87000 On ch=1 n=e5 v=40
87120 On ch=1 n=e5 v=0
87120 On ch=1 n=c#5 v=0
87120 On ch=1 n=g#5 v=40
87120 On ch=1 n=e5 v=40
87180 On ch=1 n=e5 v=0
87180 On ch=1 n=g#5 v=0
87180 On ch=1 n=d#5 v=40
87180 On ch=1 n=f#5 v=40
87240 On ch=1 n=f#5 v=0
87240 On ch=1 n=d#5 v=0
87240 On ch=1 n=c#5 v=40
87240 On ch=1 n=e5 v=40
87360 On ch=1 n=e5 v=0
87360 On ch=1 n=c#5 v=0
87360 On ch=1 n=c#7 v=40
87360 On ch=1 n=a6 v=40
87360 On ch=1 n=c#6 v=40
87360 On ch=1 n=c#5 v=40
87360 On ch=1 n=e5 v=40
87840 On ch=1 n=c#6 v=0
87840 On ch=1 n=a6 v=0
87840 On ch=1 n=c#7 v=0
88320 On ch=1 n=e5 v=0
88320 On ch=1 n=c#5 v=0
88320 Meta TrkEnd
TrkEnd
MTrk
0 SeqSpec 43 00 01 00
0 Meta TrkName "Right Bass"
0 Meta 0x21 00
42720 On ch=1 n=d#4 v=40
42960 On ch=1 n=d#4 v=0
42960 On ch=1 n=g#4 v=40
43200 On ch=1 n=g#4 v=0
43200 On ch=1 n=c#4 v=40
43200 On ch=1 n=d#4 v=40
43200 On ch=1 n=f#4 v=40
43200 On ch=1 n=a4 v=40
43440 On ch=1 n=a4 v=0
43440 On ch=1 n=f5 v=40
43680 On ch=1 n=f5 v=0
43680 On ch=1 n=c5 v=40
44160 On ch=1 n=c5 v=0
44160 On ch=1 n=f#4 v=0
44160 On ch=1 n=d#4 v=0
44160 On ch=1 n=c#4 v=0
44160 On ch=1 n=c5 v=40
44640 On ch=1 n=c5 v=0
65280 On ch=1 n=f5 v=60
65280 On ch=1 n=d5 v=60
65280 On ch=1 n=b4 v=60
65280 On ch=1 n=a4 v=60
65400 On ch=1 n=a4 v=0
65400 On ch=1 n=b4 v=0
65400 On ch=1 n=d5 v=0
65400 On ch=1 n=f5 v=0
65760 On ch=1 n=c5 v=60
65760 On ch=1 n=a4 v=60
65760 On ch=1 n=f4 v=60
65760 On ch=1 n=e4 v=60
65880 On ch=1 n=e4 v=0
65880 On ch=1 n=f4 v=0
65880 On ch=1 n=a4 v=0
65880 On ch=1 n=c5 v=0
66240 On ch=1 n=f4 v=50
66240 On ch=1 n=d4 v=50
66240 On ch=1 n=b3 v=50
66240 On ch=1 n=a3 v=50
66360 On ch=1 n=a3 v=0
66360 On ch=1 n=b3 v=0
66360 On ch=1 n=d4 v=0
66360 On ch=1 n=f4 v=0
68160 On ch=1 n=c#5 v=60
68160 On ch=1 n=c#4 v=60
68280 On ch=1 n=d4 v=40
68400 On ch=1 n=d4 v=0
68400 On ch=1 n=f#4 v=40
68520 On ch=1 n=f#4 v=0
68520 On ch=1 n=g#4 v=40
68640 On ch=1 n=g#4 v=0
68640 On ch=1 n=c#4 v=0
68640 On ch=1 n=c#5 v=0
68640 On ch=1 n=a#4 v=70
68640 On ch=1 n=a#3 v=70
68760 On ch=1 n=d4 v=50
68880 On ch=1 n=d4 v=0
68880 On ch=1 n=f#4 v=50
69000 On ch=1 n=f#4 v=0
69000 On ch=1 n=g#4 v=50
69120 On ch=1 n=g#4 v=0
69120 On ch=1 n=a#3 v=0
69120 On ch=1 n=a#4 v=0
69120 On ch=1 n=e5 v=60
69120 On ch=1 n=e4 v=60
69240 On ch=1 n=g#4 v=40
69360 On ch=1 n=g#4 v=0
69360 On ch=1 n=f#4 v=40
69480 On ch=1 n=f#4 v=0
69480 On ch=1 n=d4 v=40
69600 On ch=1 n=d4 v=0
69600 On ch=1 n=e4 v=0
69600 On ch=1 n=e5 v=0
73440 On ch=1 n=c#4 v=40
73560 On ch=1 n=c#4 v=0
73560 On ch=1 n=d4 v=40
73680 On ch=1 n=d4 v=0
73680 On ch=1 n=f#4 v=40
73800 On ch=1 n=f#4 v=0
73800 On ch=1 n=g#4 v=40
73920 On ch=1 n=g#4 v=0
73920 Meta TrkEnd
TrkEnd
MTrk
0 SeqSpec 43 00 01 00
0 Meta TrkName "Left Treble"
0 Meta 0x21 00
22560 On ch=1 n=c#5 v=80
22800 On ch=1 n=c#5 v=0
22800 On ch=1 n=d#5 v=70
23040 On ch=1 n=d#5 v=0
23040 On ch=1 n=c#6 v=70
23280 On ch=1 n=c#6 v=0
23280 On ch=1 n=d#6 v=70
23760 On ch=1 n=d#6 v=0
23760 On ch=1 n=c#6 v=60
24000 On ch=1 n=c#6 v=0
24000 On ch=1 n=d#5 v=60
24240 On ch=1 n=d#5 v=0
24240 On ch=1 n=c#5 v=60
24480 On ch=1 n=c#5 v=0
24480 On ch=1 n=d#5 v=60
24720 On ch=1 n=d#5 v=0
47040 On ch=1 n=a#4 v=80
47040 On ch=1 n=c#5 v=80
47040 On ch=1 n=g5 v=80
47040 On ch=1 n=a#5 v=80
47280 On ch=1 n=a#5 v=0
47280 On ch=1 n=g5 v=0
47280 On ch=1 n=c#5 v=0
47280 On ch=1 n=a#4 v=0
47280 On ch=1 n=b5 v=80
47280 On ch=1 n=g#5 v=80
47280 On ch=1 n=d5 v=80
47280 On ch=1 n=b4 v=80
47760 On ch=1 n=b4 v=0
47760 On ch=1 n=d5 v=0
47760 On ch=1 n=g#5 v=0
47760 On ch=1 n=b5 v=0
47760 On ch=1 n=a#4 v=70
47760 On ch=1 n=c#5 v=70
47760 On ch=1 n=g5 v=70
47760 On ch=1 n=a#5 v=70
48000 On ch=1 n=a#5 v=0
48000 On ch=1 n=g5 v=0
48000 On ch=1 n=c#5 v=0
48000 On ch=1 n=a#4 v=0
48000 On ch=1 n=a5 v=60
48000 On ch=1 n=f#5 v=60
48000 On ch=1 n=a4 v=60
48000 On ch=1 n=c5 v=60
48240 On ch=1 n=c5 v=0
48240 On ch=1 n=a4 v=0
48240 On ch=1 n=f#5 v=0
48240 On ch=1 n=a5 v=0
48240 On ch=1 n=g#4 v=60
48240 On ch=1 n=b4 v=60
48240 On ch=1 n=g#5 v=60
48240 On ch=1 n=f5 v=60
48480 On ch=1 n=f5 v=0
48480 On ch=1 n=g#5 v=0
48480 On ch=1 n=b4 v=0
48480 On ch=1 n=g#4 v=0
48480 On ch=1 n=g4 v=50
48480 On ch=1 n=a#4 v=50
48480 On ch=1 n=e5 v=50
48480 On ch=1 n=g5 v=50
48720 On ch=1 n=g5 v=0
48720 On ch=1 n=e5 v=0
48720 On ch=1 n=a#4 v=0
48720 On ch=1 n=g4 v=0
48720 On ch=1 n=f#4 v=50
48720 On ch=1 n=a4 v=50
48720 On ch=1 n=d#5 v=50
48720 On ch=1 n=f#5 v=50
48960 On ch=1 n=f#5 v=0
48960 On ch=1 n=d#5 v=0
48960 On ch=1 n=a4 v=0
48960 On ch=1 n=f#4 v=0
67320 On ch=1 n=d5 v=40
67440 On ch=1 n=d5 v=0
67440 On ch=1 n=f#5 v=40
67560 On ch=1 n=f#5 v=0
67560 On ch=1 n=g#5 v=40
67680 On ch=1 n=g#5 v=0
67680 On ch=1 n=c#5 v=60
67680 On ch=1 n=c#6 v=60
67800 On ch=1 n=g#5 v=40
67920 On ch=1 n=g#5 v=0
67920 On ch=1 n=f#5 v=40
68040 On ch=1 n=f#5 v=0
68040 On ch=1 n=d5 v=40
68160 On ch=1 n=d5 v=0
68160 On ch=1 n=c#6 v=0
68160 On ch=1 n=c#5 v=0
70200 On ch=1 n=d5 v=60
70320 On ch=1 n=d5 v=0
70320 On ch=1 n=f#5 v=60
70440 On ch=1 n=f#5 v=0
70440 On ch=1 n=g#5 v=60
70560 On ch=1 n=g#5 v=0
70560 On ch=1 n=c#5 v=80
70560 On ch=1 n=c#6 v=80
70680 On ch=1 n=g#5 v=60
70800 On ch=1 n=g#5 v=0
70800 On ch=1 n=f#5 v=60
70920 On ch=1 n=f#5 v=0
70920 On ch=1 n=d5 v=60
71040 On ch=1 n=d5 v=0
71040 On ch=1 n=c#6 v=0
71040 On ch=1 n=c#5 v=0
72000 On ch=1 n=a#4 v=70
72000 On ch=1 n=c#5 v=70
72000 On ch=1 n=f#5 v=70
72000 On ch=1 n=a#5 v=70
72480 On ch=1 n=a#5 v=0
72480 On ch=1 n=f#5 v=0
72480 On ch=1 n=c#5 v=0
72480 On ch=1 n=a#4 v=0
72480 On ch=1 n=a#4 v=60
72480 On ch=1 n=c#5 v=60
72480 On ch=1 n=f5 v=60
72480 On ch=1 n=g5 v=60
72480 On ch=1 n=c#6 v=60
73440 On ch=1 n=c#6 v=0
73440 On ch=1 n=g5 v=0
73440 On ch=1 n=f5 v=0
73440 On ch=1 n=c#5 v=0
73440 On ch=1 n=a#4 v=0
73920 On ch=1 n=a#4 v=50
73920 On ch=1 n=c#5 v=50
73920 On ch=1 n=a#5 v=50
73920 On ch=1 n=f#5 v=50
74400 On ch=1 n=f#5 v=0
74400 On ch=1 n=a#5 v=0
74400 On ch=1 n=c#5 v=0
74400 On ch=1 n=a#4 v=0
74400 On ch=1 n=c#6 v=60
74400 On ch=1 n=g5 v=60
74400 On ch=1 n=a#4 v=60
74400 On ch=1 n=c#5 v=60
74400 On ch=1 n=e5 v=60
74880 On ch=1 n=e5 v=0
74880 On ch=1 n=c#5 v=0
74880 On ch=1 n=a#4 v=0
74880 On ch=1 n=g5 v=0
74880 On ch=1 n=c#6 v=0
74880 On ch=1 n=g#4 v=50
74880 On ch=1 n=b4 v=50
74880 On ch=1 n=d5 v=50
74880 On ch=1 n=f5 v=50
74880 On ch=1 n=b5 v=50
75360 On ch=1 n=b5 v=0
75360 On ch=1 n=f5 v=0
75360 On ch=1 n=d5 v=0
75360 On ch=1 n=b4 v=0
75360 On ch=1 n=g#4 v=0
75360 On ch=1 n=f4 v=50
75360 On ch=1 n=g#4 v=50
75360 On ch=1 n=b4 v=50
75360 On ch=1 n=d5 v=50
75360 On ch=1 n=g#5 v=50
75840 On ch=1 n=g#5 v=0
75840 On ch=1 n=d5 v=0
75840 On ch=1 n=b4 v=0
75840 On ch=1 n=g#4 v=0
75840 On ch=1 n=f4 v=0
75840 Meta TrkEnd
TrkEnd
MTrk
0 SeqSpec 43 00 01 00
0 Meta TrkName "Left Bass"
0 Meta 0x21 00
0 On ch=1 n=a2 v=40
480 On ch=1 n=a2 v=0
480 On ch=1 n=e4 v=40
480 On ch=1 n=c#5 v=40
480 On ch=1 n=a4 v=40
720 On ch=1 n=e4 v=0
720 On ch=1 n=a4 v=40
960 On ch=1 n=a4 v=0
960 On ch=1 n=a4 v=0
960 On ch=1 n=c#5 v=0
960 On ch=1 n=g5 v=40
960 On ch=1 n=e5 v=40
960 On ch=1 n=d5 v=40
960 On ch=1 n=a#4 v=40
1440 On ch=1 n=a#4 v=0
1440 On ch=1 n=d5 v=0
1440 On ch=1 n=e5 v=0
1440 On ch=1 n=g5 v=0
1440 On ch=1 n=e4 v=40
1920 On ch=1 n=e4 v=0
1920 On ch=1 n=e3 v=40
2400 On ch=1 n=e3 v=0
2400 On ch=1 n=a2 v=40
2880 On ch=1 n=a2 v=0
2880 On ch=1 n=e4 v=40
2880 On ch=1 n=c#5 v=40
2880 On ch=1 n=a4 v=40
3120 On ch=1 n=e4 v=0
3120 On ch=1 n=a4 v=40
3360 On ch=1 n=a4 v=0
3360 On ch=1 n=a4 v=0
3360 On ch=1 n=c#5 v=0
3360 On ch=1 n=a#4 v=50
3360 On ch=1 n=g5 v=50
3360 On ch=1 n=e5 v=50
3360 On ch=1 n=d5 v=50
3600 On ch=1 n=a#4 v=0
3600 On ch=1 n=f#5 v=50
3840 On ch=1 n=f#5 v=0
3840 On ch=1 n=d5 v=0
3840 On ch=1 n=e5 v=0
3840 On ch=1 n=g5 v=0
3840 On ch=1 n=c#5 v=60
4320 On ch=1 n=c#5 v=0
4320 On ch=1 n=c#5 v=50
4800 On ch=1 n=c#5 v=0
4800 On ch=1 n=a#4 v=40
4800 On ch=1 n=g#4 v=40
4800 On ch=1 n=f4 v=40
4800 On ch=1 n=d4 v=40
4800 On ch=1 n=a2 v=40
5280 On ch=1 n=a2 v=0
5280 On ch=1 n=d4 v=0
5280 On ch=1 n=f4 v=0
5280 On ch=1 n=g#4 v=0
5280 On ch=1 n=a#4 v=0
5280 On ch=1 n=b4 v=40
5280 On ch=1 n=a4 v=40
5280 On ch=1 n=f#4 v=40
5280 On ch=1 n=d#4 v=40
5760 On ch=1 n=d#4 v=0
5760 On ch=1 n=f#4 v=0
5760 On ch=1 n=a4 v=0
5760 On ch=1 n=b4 v=0
5760 On ch=1 n=d5 v=40
5760 On ch=1 n=a#4 v=40
5760 On ch=1 n=f4 v=40
5760 On ch=1 n=g#4 v=40
6240 On ch=1 n=g#4 v=0
6240 On ch=1 n=f4 v=0
6240 On ch=1 n=a#4 v=0
6240 On ch=1 n=d5 v=0
6240 On ch=1 n=c#5 v=40
6240 On ch=1 n=a4 v=40
6240 On ch=1 n=g4 v=40
6240 On ch=1 n=e4 v=40
6720 On ch=1 n=e4 v=0
6720 On ch=1 n=g4 v=0
6720 On ch=1 n=a4 v=0
6720 On ch=1 n=c#5 v=0
6720 On ch=1 n=a#4 v=40
6720 On ch=1 n=d4 v=40
6720 On ch=1 n=f4 v=40
6720 On ch=1 n=g#4 v=40
6720 On ch=1 n=a2 v=40
7200 On ch=1 n=a2 v=0
7200 On ch=1 n=g#4 v=0
7200 On ch=1 n=f4 v=0
7200 On ch=1 n=d4 v=0
7200 On ch=1 n=a#4 v=0
7200 On ch=1 n=b4 v=40
7200 On ch=1 n=d#4 v=40
7200 On ch=1 n=f#4 v=40
7200 On ch=1 n=a4 v=40
7680 On ch=1 n=a4 v=0
7680 On ch=1 n=f#4 v=0
7680 On ch=1 n=d#4 v=0
7680 On ch=1 n=b4 v=0
7680 On ch=1 n=d5 v=40
7680 On ch=1 n=a#4 v=40
7680 On ch=1 n=g#4 v=40
7680 On ch=1 n=f4 v=40
8160 On ch=1 n=f4 v=0
8160 On ch=1 n=g#4 v=0
8160 On ch=1 n=a#4 v=0
8160 On ch=1 n=d5 v=0
8160 On ch=1 n=e5 v=50
8160 On ch=1 n=c#5 v=50
8160 On ch=1 n=a#4 v=50
8160 On ch=1 n=g#4 v=50
8640 On ch=1 n=a2 v=60
9120 On ch=1 n=a2 v=0
9120 On ch=1 n=g#4 v=0
9120 On ch=1 n=a#4 v=0
9120 On ch=1 n=c#5 v=0
9120 On ch=1 n=e5 v=0
9600 On ch=1 n=a2 v=50
10080 On ch=1 n=a2 v=0
10560 On ch=1 n=d5 v=40
10560 On ch=1 n=a#4 v=40
10560 On ch=1 n=g#4 v=40
10560 On ch=1 n=f4 v=40
11040 On ch=1 n=f4 v=0
11040 On ch=1 n=g#4 v=0
11040 On ch=1 n=a#4 v=0
11040 On ch=1 n=d5 v=0
11040 On ch=1 n=e5 v=40
11040 On ch=1 n=c#5 v=40
11040 On ch=1 n=a#4 v=40
11040 On ch=1 n=g#4 v=40
11520 On ch=1 n=a2 v=40
12000 On ch=1 n=a2 v=0
12480 On ch=1 n=a2 v=50
12960 On ch=1 n=a2 v=0
13440 On ch=1 n=g#4 v=0
13440 On ch=1 n=a#4 v=0
13440 On ch=1 n=c#5 v=0
13440 On ch=1 n=e5 v=0
13440 On ch=1 n=f5 v=60
13440 On ch=1 n=c#5 v=60
13440 On ch=1 n=a4 v=60
13440 On ch=1 n=f4 v=60
13440 On ch=1 n=a2 v=60
13440 On ch=1 n=a3 v=60
14880 On ch=1 n=f4 v=0
14880 On ch=1 n=a4 v=0
14880 On ch=1 n=c#5 v=0
14880 On ch=1 n=f5 v=0
14880 On ch=1 n=f#5 v=80
14880 On ch=1 n=c#5 v=80
14880 On ch=1 n=a4 v=80
14880 On ch=1 n=f#4 v=80
15360 On ch=1 n=f#4 v=0
15360 On ch=1 n=a4 v=0
15360 On ch=1 n=c#5 v=0
15360 On ch=1 n=f#5 v=0
15360 On ch=1 n=g5 v=80
15360 On ch=1 n=c#5 v=80
15360 On ch=1 n=a4 v=80
15360 On ch=1 n=g4 v=80
15840 On ch=1 n=g4 v=0
15840 On ch=1 n=a4 v=0
15840 On ch=1 n=c#5 v=0
15840 On ch=1 n=g5 v=0
15840 On ch=1 n=f#5 v=80
15840 On ch=1 n=c#5 v=80
15840 On ch=1 n=a4 v=80
15840 On ch=1 n=f#4 v=80
16320 On ch=1 n=f#4 v=0
16320 On ch=1 n=a4 v=0
16320 On ch=1 n=c#5 v=0
16320 On ch=1 n=f#5 v=0
16320 On ch=1 n=a3 v=0
16320 On ch=1 n=a2 v=0
16320 On ch=1 n=f5 v=60
16320 On ch=1 n=c#5 v=60
16320 On ch=1 n=a4 v=60
16320 On ch=1 n=f4 v=60
16320 On ch=1 n=a2 v=60
16320 On ch=1 n=a3 v=60
17760 On ch=1 n=f4 v=0
17760 On ch=1 n=a4 v=0
17760 On ch=1 n=c#5 v=0
17760 On ch=1 n=f5 v=0
17760 On ch=1 n=f#5 v=80
17760 On ch=1 n=c#5 v=80
17760 On ch=1 n=a4 v=80
17760 On ch=1 n=f#4 v=80
18240 On ch=1 n=f#4 v=0
18240 On ch=1 n=a4 v=0
18240 On ch=1 n=c#5 v=0
18240 On ch=1 n=f#5 v=0
18240 On ch=1 n=g5 v=80
18240 On ch=1 n=c#5 v=80
18240 On ch=1 n=a4 v=80
18240 On ch=1 n=g4 v=80
18720 On ch=1 n=g4 v=0
18720 On ch=1 n=a4 v=0
18720 On ch=1 n=c#5 v=0
18720 On ch=1 n=g5 v=0
18720 On ch=1 n=f#5 v=80
18720 On ch=1 n=c#5 v=80
18720 On ch=1 n=a4 v=80
18720 On ch=1 n=f#4 v=80
19200 On ch=1 n=f#4 v=0
19200 On ch=1 n=a4 v=0
19200 On ch=1 n=c#5 v=0
19200 On ch=1 n=f#5 v=0
19200 On ch=1 n=a3 v=0
19200 On ch=1 n=a2 v=0
19200 On ch=1 n=f5 v=80
19200 On ch=1 n=b4 v=80
19200 On ch=1 n=f4 v=80
19680 On ch=1 n=a2 v=80
19680 On ch=1 n=a3 v=80
20400 On ch=1 n=a3 v=0
20400 On ch=1 n=a2 v=0
20640 On ch=1 n=f4 v=0
20640 On ch=1 n=b4 v=0
20640 On ch=1 n=f5 v=0
20640 On ch=1 n=e5 v=90
20640 On ch=1 n=a#4 v=90
20640 On ch=1 n=e4 v=90
21120 On ch=1 n=a2 v=90
21120 On ch=1 n=a3 v=90
21840 On ch=1 n=a3 v=0
21840 On ch=1 n=a2 v=0
22080 On ch=1 n=e4 v=0
22080 On ch=1 n=a#4 v=0
22080 On ch=1 n=e5 v=0
22080 On ch=1 n=f5 v=80
22080 On ch=1 n=b4 v=80
22080 On ch=1 n=f4 v=80
23520 On ch=1 n=f4 v=0
23520 On ch=1 n=b4 v=0
23520 On ch=1 n=f5 v=0
26400 On ch=1 n=f5 v=60
26400 On ch=1 n=b4 v=60
26400 On ch=1 n=g#4 v=60
26880 On ch=1 n=g#4 v=0
26880 On ch=1 n=b4 v=0
26880 On ch=1 n=f5 v=0
26880 On ch=1 n=f4 v=60
26880 On ch=1 n=c#5 v=60
26880 On ch=1 n=b4 v=60
27360 On ch=1 n=b4 v=0
27360 On ch=1 n=c#5 v=0
27360 On ch=1 n=f4 v=0
27360 On ch=1 n=f5 v=60
27360 On ch=1 n=b4 v=60
27360 On ch=1 n=g#4 v=60
27840 On ch=1 n=g#4 v=0
27840 On ch=1 n=b4 v=0
27840 On ch=1 n=f5 v=0
27840 On ch=1 n=e5 v=60
27840 On ch=1 n=a#4 v=60
27840 On ch=1 n=g4 v=60
28800 On ch=1 n=g4 v=0
28800 On ch=1 n=a#4 v=0
28800 On ch=1 n=e5 v=0
28800 On ch=1 n=c5 v=60
28800 On ch=1 n=a#4 v=60
28800 On ch=1 n=e4 v=60
29040 On ch=1 n=e4 v=0
29040 On ch=1 n=a#4 v=0
29040 On ch=1 n=c5 v=0
29040 On ch=1 n=e5 v=60
29040 On ch=1 n=a#4 v=60
29040 On ch=1 n=g4 v=60
29280 On ch=1 n=g4 v=0
29280 On ch=1 n=a#4 v=0
29280 On ch=1 n=e5 v=0
29280 On ch=1 n=f5 v=60
29280 On ch=1 n=b4 v=60
29280 On ch=1 n=g#4 v=60
29760 On ch=1 n=g#4 v=0
29760 On ch=1 n=b4 v=0
29760 On ch=1 n=f5 v=0
29760 On ch=1 n=c#5 v=60
29760 On ch=1 n=b4 v=60
29760 On ch=1 n=f4 v=60
30240 On ch=1 n=f4 v=0
30240 On ch=1 n=b4 v=0
30240 On ch=1 n=c#5 v=0
30240 On ch=1 n=f5 v=60
30240 On ch=1 n=b4 v=60
30240 On ch=1 n=g#4 v=60
30720 On ch=1 n=g#4 v=0
30720 On ch=1 n=b4 v=0
30720 On ch=1 n=f5 v=0
30720 On ch=1 n=e5 v=60
30720 On ch=1 n=a#4 v=60
30720 On ch=1 n=g4 v=60
31680 On ch=1 n=g4 v=0
31680 On ch=1 n=a#4 v=0
31680 On ch=1 n=e5 v=0
31680 On ch=1 n=g5 v=70
31680 On ch=1 n=c5 v=70
31680 On ch=1 n=a#4 v=70
31920 On ch=1 n=a#4 v=0
31920 On ch=1 n=c5 v=0
31920 On ch=1 n=g5 v=0
31920 On ch=1 n=e5 v=70
31920 On ch=1 n=a#4 v=70
31920 On ch=1 n=g4 v=70
32160 On ch=1 n=g4 v=0
32160 On ch=1 n=a#4 v=0
32160 On ch=1 n=e5 v=0
32160 On ch=1 n=e4 v=80
32160 On ch=1 n=c5 v=80
32160 On ch=1 n=a#4 v=80
32400 On ch=1 n=a#4 v=0
32400 On ch=1 n=c5 v=0
32400 On ch=1 n=e4 v=0
32400 On ch=1 n=e5 v=80
32400 On ch=1 n=a#4 v=80
32400 On ch=1 n=g4 v=80
33120 On ch=1 n=g4 v=0
33120 On ch=1 n=a#4 v=0
33120 On ch=1 n=e5 v=0
33120 On ch=1 n=g5 v=80
33120 On ch=1 n=c5 v=60
33120 On ch=1 n=a#4 v=60
33360 On ch=1 n=a#4 v=0
33360 On ch=1 n=c5 v=0
33360 On ch=1 n=g5 v=0
33360 On ch=1 n=e5 v=60
33360 On ch=1 n=a#4 v=60
33360 On ch=1 n=g4 v=60
33600 On ch=1 n=g4 v=0
33600 On ch=1 n=a#4 v=0
33600 On ch=1 n=e5 v=0
33600 On ch=1 n=c5 v=70
33600 On ch=1 n=a#4 v=70
33600 On ch=1 n=e4 v=70
33840 On ch=1 n=e4 v=0
33840 On ch=1 n=a#4 v=0
33840 On ch=1 n=c5 v=0
33840 On ch=1 n=e5 v=80
33840 On ch=1 n=a#4 v=80
33840 On ch=1 n=g4 v=80
34560 On ch=1 n=g4 v=0
34560 On ch=1 n=a#4 v=0
34560 On ch=1 n=e5 v=0
34560 On ch=1 n=g5 v=60
35040 On ch=1 n=g5 v=0
35040 On ch=1 n=a2 v=40
35520 On ch=1 n=a2 v=0
35520 On ch=1 n=e4 v=40
35520 On ch=1 n=c#5 v=40
35520 On ch=1 n=a4 v=40
35760 On ch=1 n=e4 v=0
35760 On ch=1 n=a4 v=40
36000 On ch=1 n=a4 v=0
36000 On ch=1 n=a4 v=0
36000 On ch=1 n=c#5 v=0
36000 On ch=1 n=g5 v=40
36000 On ch=1 n=e5 v=40
36000 On ch=1 n=d5 v=40
36000 On ch=1 n=a#4 v=40
36480 On ch=1 n=a#4 v=0
36480 On ch=1 n=d5 v=0
36480 On ch=1 n=e5 v=0
36480 On ch=1 n=g5 v=0
36480 On ch=1 n=e4 v=40
36960 On ch=1 n=e4 v=0
36960 On ch=1 n=e3 v=40
37440 On ch=1 n=e3 v=0
37440 On ch=1 n=a2 v=40
37920 On ch=1 n=a2 v=0
37920 On ch=1 n=e4 v=40
37920 On ch=1 n=c#5 v=40
37920 On ch=1 n=a4 v=40
38160 On ch=1 n=e4 v=0
38160 On ch=1 n=a4 v=40
38400 On ch=1 n=a4 v=0
38400 On ch=1 n=a4 v=0
38400 On ch=1 n=c#5 v=0
38400 On ch=1 n=a#4 v=40
38400 On ch=1 n=g5 v=40
38400 On ch=1 n=e5 v=40
38400 On ch=1 n=d5 v=40
38640 On ch=1 n=a#4 v=0
38640 On ch=1 n=f#5 v=40
38880 On ch=1 n=f#5 v=0
38880 On ch=1 n=d5 v=0
38880 On ch=1 n=e5 v=0
38880 On ch=1 n=g5 v=0
38880 On ch=1 n=c#5 v=40
39360 On ch=1 n=c#5 v=0
39360 On ch=1 n=c#5 v=40
39840 On ch=1 n=c#5 v=0
39840 On ch=1 n=a#4 v=40
39840 On ch=1 n=g#4 v=40
39840 On ch=1 n=f4 v=40
39840 On ch=1 n=d4 v=40
39840 On ch=1 n=a2 v=40
40320 On ch=1 n=a2 v=0
40320 On ch=1 n=d4 v=0
40320 On ch=1 n=f4 v=0
40320 On ch=1 n=g#4 v=0
40320 On ch=1 n=a#4 v=0
40320 On ch=1 n=b4 v=40
40320 On ch=1 n=a4 v=40
40320 On ch=1 n=f#4 v=40
40320 On ch=1 n=d#4 v=40
40800 On ch=1 n=d#4 v=0
40800 On ch=1 n=f#4 v=0
40800 On ch=1 n=a4 v=0
40800 On ch=1 n=b4 v=0
40800 On ch=1 n=d5 v=40
40800 On ch=1 n=a#4 v=40
40800 On ch=1 n=g#4 v=40
40800 On ch=1 n=f4 v=40
41280 On ch=1 n=f4 v=0
41280 On ch=1 n=g#4 v=0
41280 On ch=1 n=a#4 v=0
41280 On ch=1 n=d5 v=0
41280 On ch=1 n=c#5 v=40
41280 On ch=1 n=a4 v=40
41280 On ch=1 n=g4 v=40
41280 On ch=1 n=e4 v=40
42240 On ch=1 n=e4 v=0
42240 On ch=1 n=g4 v=0
42240 On ch=1 n=a4 v=0
42240 On ch=1 n=c#5 v=0
42240 On ch=1 n=f#3 v=40
42480 On ch=1 n=f#3 v=0
42480 On ch=1 n=c#3 v=40
43200 On ch=1 n=g#3 v=40
44640 On ch=1 n=g#3 v=0
44640 On ch=1 n=c#3 v=0
45600 On ch=1 n=d#4 v=60
45600 On ch=1 n=c5 v=60
45600 On ch=1 n=g#4 v=60
45840 On ch=1 n=d#4 v=0
45840 On ch=1 n=g#4 v=60
46080 On ch=1 n=g#4 v=0
46080 On ch=1 n=g#4 v=0
46080 On ch=1 n=c5 v=0
46080 On ch=1 n=a4 v=70
46080 On ch=1 n=f#5 v=70
46080 On ch=1 n=d#5 v=70
46080 On ch=1 n=c#5 v=70
46320 On ch=1 n=a4 v=0
46320 On ch=1 n=f5 v=70
46560 On ch=1 n=f5 v=0
46560 On ch=1 n=c#5 v=0
46560 On ch=1 n=d#5 v=0
46560 On ch=1 n=f#5 v=0
46560 On ch=1 n=c5 v=80
47040 On ch=1 n=c5 v=0
48960 On ch=1 n=d#2 v=40
49440 On ch=1 n=c#4 v=40
49440 On ch=1 n=f4 v=40
49440 On ch=1 n=c#5 v=40
49440 On ch=1 n=a#4 v=40
49680 On ch=1 n=a#4 v=0
49680 On ch=1 n=c#5 v=0
49680 On ch=1 n=f4 v=0
49680 On ch=1 n=c#4 v=0
49680 On ch=1 n=e4 v=40
49680 On ch=1 n=g#4 v=40
49680 On ch=1 n=c#5 v=40
49680 On ch=1 n=e5 v=40
50160 On ch=1 n=e5 v=0
50160 On ch=1 n=c#5 v=0
50160 On ch=1 n=g#4 v=0
50160 On ch=1 n=e4 v=0
50160 On ch=1 n=f5 v=40
50160 On ch=1 n=f4 v=40
50400 On ch=1 n=f4 v=0
50400 On ch=1 n=f5 v=0
50400 On ch=1 n=d#2 v=0
50400 On ch=1 n=f#5 v=40
50400 On ch=1 n=d5 v=40
50400 On ch=1 n=a4 v=40
50400 On ch=1 n=f#4 v=40
50880 On ch=1 n=f#4 v=0
50880 On ch=1 n=a4 v=0
50880 On ch=1 n=d5 v=0
50880 On ch=1 n=f#5 v=0
50880 On ch=1 n=g5 v=40
50880 On ch=1 n=c#5 v=40
50880 On ch=1 n=a#4 v=40
50880 On ch=1 n=g4 v=40
51360 On ch=1 n=g4 v=0
51360 On ch=1 n=a#4 v=0
51360 On ch=1 n=c#5 v=0
51360 On ch=1 n=g5 v=0
52560 On ch=1 n=c4 v=80
52620 On ch=1 n=c4 v=0
52620 On ch=1 n=g#3 v=80
52680 On ch=1 n=g#3 v=0
52680 On ch=1 n=d#3 v=80
52740 On ch=1 n=d#3 v=0
52740 On ch=1 n=g#2 v=80
53280 On ch=1 n=g#2 v=0
53280 On ch=1 n=d#4 v=60
53280 On ch=1 n=c5 v=60
53280 On ch=1 n=g#4 v=60
53520 On ch=1 n=d#4 v=0
53520 On ch=1 n=g#4 v=60
53760 On ch=1 n=g#4 v=0
53760 On ch=1 n=g#4 v=0
53760 On ch=1 n=c5 v=0
53760 On ch=1 n=a4 v=70
53760 On ch=1 n=g5 v=70
53760 On ch=1 n=d#5 v=70
53760 On ch=1 n=c#5 v=70
54000 On ch=1 n=a4 v=0
54000 On ch=1 n=f5 v=70
54240 On ch=1 n=f5 v=0
54240 On ch=1 n=c#5 v=0
54240 On ch=1 n=d#5 v=0
54240 On ch=1 n=g5 v=0
54240 On ch=1 n=c5 v=80
54720 On ch=1 n=c5 v=0
54720 On ch=1 n=g4 v=60
55200 On ch=1 n=g4 v=0
55560 On ch=1 n=c4 v=60
55600 On ch=1 n=c4 v=0
55600 On ch=1 n=g#3 v=60
55640 On ch=1 n=g#3 v=0
55640 On ch=1 n=d#3 v=60
55680 On ch=1 n=d#3 v=0
55680 On ch=1 n=g#2 v=60
56160 On ch=1 n=g#2 v=0
56160 On ch=1 n=d#4 v=60
56160 On ch=1 n=c5 v=60
56160 On ch=1 n=g#4 v=60
56400 On ch=1 n=d#4 v=0
56400 On ch=1 n=g#4 v=60
56640 On ch=1 n=g#4 v=0
56640 On ch=1 n=g#4 v=0
56640 On ch=1 n=c5 v=0
56640 On ch=1 n=a4 v=70
56640 On ch=1 n=f#5 v=70
56640 On ch=1 n=d#5 v=70
56640 On ch=1 n=c#5 v=70
56880 On ch=1 n=a4 v=0
56880 On ch=1 n=f5 v=70
57120 On ch=1 n=f5 v=0
57120 On ch=1 n=c#5 v=0
57120 On ch=1 n=d#5 v=0
57120 On ch=1 n=f#5 v=0
57120 On ch=1 n=c5 v=80
57600 On ch=1 n=c5 v=0
57600 On ch=1 n=g4 v=60
57840 On ch=1 n=g4 v=0
57840 On ch=1 n=a#4 v=60
58080 On ch=1 n=a#4 v=0
58080 On ch=1 n=g4 v=60
58320 On ch=1 n=g4 v=0
58320 On ch=1 n=e4 v=60
58560 On ch=1 n=e4 v=0
58560 On ch=1 n=c4 v=60
58800 On ch=1 n=c4 v=0
58800 On ch=1 n=e4 v=60
59040 On ch=1 n=e4 v=0
59040 On ch=1 n=g4 v=60
59280 On ch=1 n=g4 v=0
59280 On ch=1 n=e4 v=60
59520 On ch=1 n=e4 v=0
59520 On ch=1 n=e4 v=60
59520 On ch=1 n=c4 v=60
59640 On ch=1 n=e4 v=0
59760 On ch=1 n=c4 v=0
59760 On ch=1 n=c#4 v=60
59760 On ch=1 n=e4 v=60
59760 On ch=1 n=a3 v=60
59880 On ch=1 n=e4 v=0
59880 On ch=1 n=c#4 v=0
60000 On ch=1 n=a3 v=0
60000 On ch=1 n=e4 v=60
60000 On ch=1 n=c4 v=60
60120 On ch=1 n=e4 v=0
60240 On ch=1 n=c4 v=0
60240 On ch=1 n=e4 v=60
60480 On ch=1 n=e4 v=0
60480 On ch=1 n=g#4 v=70
60960 On ch=1 n=g#4 v=0
61280 On ch=1 n=e4 v=80
61320 On ch=1 n=e4 v=0
61320 On ch=1 n=c#4 v=80
61360 On ch=1 n=c#4 v=0
61360 On ch=1 n=a3 v=80
61400 On ch=1 n=a3 v=0
61400 On ch=1 n=e3 v=80
61440 On ch=1 n=e3 v=0
61440 On ch=1 n=a2 v=80
61920 On ch=1 n=a2 v=0
61920 On ch=1 n=e4 v=60
61920 On ch=1 n=c#5 v=60
61920 On ch=1 n=a4 v=60
62160 On ch=1 n=e4 v=0
62160 On ch=1 n=a4 v=60
62400 On ch=1 n=a4 v=0
62400 On ch=1 n=a4 v=0
62400 On ch=1 n=c#5 v=0
62400 On ch=1 n=g5 v=70
62400 On ch=1 n=e5 v=70
62400 On ch=1 n=d5 v=70
62400 On ch=1 n=a#4 v=70
62640 On ch=1 n=a#4 v=0
62640 On ch=1 n=f#5 v=70
62880 On ch=1 n=f#5 v=0
62880 On ch=1 n=c#5 v=80
63120 On ch=1 n=d5 v=0
63120 On ch=1 n=e5 v=0
63120 On ch=1 n=g5 v=0
63120 On ch=1 n=g#5 v=80
63120 On ch=1 n=f5 v=80
63120 On ch=1 n=d#5 v=80
63120 On ch=1 n=b4 v=80
63240 On ch=1 n=b4 v=0
63240 On ch=1 n=d#5 v=0
63240 On ch=1 n=f5 v=0
63240 On ch=1 n=g#5 v=0
63360 On ch=1 n=c#5 v=0
63600 On ch=1 n=g#5 v=80
63600 On ch=1 n=f5 v=80
63600 On ch=1 n=d#5 v=80
63600 On ch=1 n=b4 v=80
63720 On ch=1 n=b4 v=0
63720 On ch=1 n=d#5 v=0
63720 On ch=1 n=f5 v=0
63720 On ch=1 n=g#5 v=0
63840 On ch=1 n=g5 v=80
63840 On ch=1 n=e5 v=80
63840 On ch=1 n=d5 v=80
63840 On ch=1 n=a#4 v=80
64080 On ch=1 n=a#4 v=0
64080 On ch=1 n=f#5 v=80
64320 On ch=1 n=f#5 v=0
64320 On ch=1 n=c#5 v=90
64560 On ch=1 n=d5 v=0
64560 On ch=1 n=e5 v=0
64560 On ch=1 n=g5 v=0
64560 On ch=1 n=g#5 v=90
64560 On ch=1 n=f5 v=90
64560 On ch=1 n=d#5 v=90
64560 On ch=1 n=b4 v=90
64680 On ch=1 n=b4 v=0
64680 On ch=1 n=d#5 v=0
64680 On ch=1 n=f5 v=0
64680 On ch=1 n=g#5 v=0
64800 On ch=1 n=c#5 v=0
65040 On ch=1 n=g#5 v=100
65040 On ch=1 n=f5 v=100
65040 On ch=1 n=d#5 v=100
65040 On ch=1 n=b4 v=100
65160 On ch=1 n=b4 v=0
65160 On ch=1 n=d#5 v=0
65160 On ch=1 n=f5 v=0
65160 On ch=1 n=g#5 v=0
65520 On ch=1 n=d5 v=60
65520 On ch=1 n=b4 v=60
65520 On ch=1 n=a4 v=60
65520 On ch=1 n=f4 v=60
65640 On ch=1 n=f4 v=0
65640 On ch=1 n=a4 v=0
65640 On ch=1 n=b4 v=0
65640 On ch=1 n=d5 v=0
66000 On ch=1 n=c4 v=50
66000 On ch=1 n=e4 v=50
66000 On ch=1 n=f4 v=50
66000 On ch=1 n=a4 v=50
66120 On ch=1 n=a4 v=0
66120 On ch=1 n=f4 v=0
66120 On ch=1 n=e4 v=0
66120 On ch=1 n=c4 v=0
66480 On ch=1 n=d4 v=50
66480 On ch=1 n=b3 v=50
66480 On ch=1 n=a3 v=50
66480 On ch=1 n=f3 v=50
66600 On ch=1 n=f3 v=0
66600 On ch=1 n=a3 v=0
66600 On ch=1 n=b3 v=0
66600 On ch=1 n=d4 v=0
66720 On ch=1 n=c#2 v=60
66720 On ch=1 n=c#3 v=60
66840 On ch=1 n=d4 v=40
66960 On ch=1 n=d4 v=0
66960 On ch=1 n=f#4 v=40
67080 On ch=1 n=f#4 v=0
67080 On ch=1 n=g#4 v=40
67200 On ch=1 n=g#4 v=0
67200 On ch=1 n=c#3 v=0
67200 On ch=1 n=c#2 v=0
67200 On ch=1 n=c#5 v=60
67200 On ch=1 n=c#4 v=60
67680 On ch=1 n=c#4 v=0
67680 On ch=1 n=c#5 v=0
68160 On ch=1 n=c#2 v=60
68160 On ch=1 n=c#3 v=60
68400 On ch=1 n=g#3 v=40
68520 On ch=1 n=g#3 v=0
68640 On ch=1 n=c#3 v=0
68640 On ch=1 n=c#2 v=0
68640 On ch=1 n=a#1 v=70
68640 On ch=1 n=a#2 v=70
68880 On ch=1 n=g#3 v=50
69000 On ch=1 n=g#3 v=0
69120 On ch=1 n=a#2 v=0
69120 On ch=1 n=a#1 v=0
69120 On ch=1 n=e2 v=60
69120 On ch=1 n=e3 v=60
69360 On ch=1 n=g#3 v=40
69480 On ch=1 n=g#3 v=0
69600 On ch=1 n=e3 v=0
69600 On ch=1 n=e2 v=0
69600 On ch=1 n=c#2 v=80
69600 On ch=1 n=c#3 v=80
69720 On ch=1 n=d4 v=60
69840 On ch=1 n=d4 v=0
69840 On ch=1 n=f#4 v=60
69960 On ch=1 n=f#4 v=0
69960 On ch=1 n=g#4 v=60
70080 On ch=1 n=g#4 v=0
70080 On ch=1 n=c#3 v=0
70080 On ch=1 n=c#2 v=0
70080 On ch=1 n=c#5 v=80
70080 On ch=1 n=c#4 v=80
70560 On ch=1 n=c#4 v=0
70560 On ch=1 n=c#5 v=0
71040 On ch=1 n=c#2 v=80
71040 On ch=1 n=c#3 v=80
71040 On ch=1 n=c#4 v=80
71160 On ch=1 n=d4 v=60
71280 On ch=1 n=d4 v=0
71280 On ch=1 n=f#4 v=60
71280 On ch=1 n=g#3 v=60
71400 On ch=1 n=f#4 v=0
71400 On ch=1 n=g#4 v=60
71520 On ch=1 n=g#4 v=0
71520 On ch=1 n=g#3 v=0
71520 On ch=1 n=c#4 v=0
71520 On ch=1 n=c#3 v=0
71520 On ch=1 n=c#2 v=0
71520 On ch=1 n=a#1 v=80
71520 On ch=1 n=a#2 v=80
71520 On ch=1 n=a#3 v=80
71640 On ch=1 n=d4 v=60
71760 On ch=1 n=d4 v=0
71760 On ch=1 n=f#4 v=60
71880 On ch=1 n=f#4 v=0
71880 On ch=1 n=g#4 v=60
72000 On ch=1 n=g#4 v=0
72000 On ch=1 n=a#3 v=0
72000 On ch=1 n=a#2 v=0
72000 On ch=1 n=a#1 v=0
73440 On ch=1 n=a#2 v=40
73440 On ch=1 n=a#3 v=40
73920 On ch=1 n=a#3 v=0
73920 On ch=1 n=a#2 v=0
75840 On ch=1 n=g5 v=40
75840 On ch=1 n=c#5 v=40
75840 On ch=1 n=a#4 v=40
75840 On ch=1 n=g4 v=40
75840 On ch=1 n=e4 v=40
76320 On ch=1 n=a2 v=40
76560 On ch=1 n=a2 v=0
76880 On ch=1 n=c#5 v=40
76960 On ch=1 n=c#5 v=0
76960 On ch=1 n=e5 v=40
77040 On ch=1 n=e5 v=0
77280 On ch=1 n=c#5 v=0
77280 On ch=1 n=e4 v=0
77280 On ch=1 n=g4 v=0
77280 On ch=1 n=a#4 v=0
77280 On ch=1 n=g5 v=0
77280 On ch=1 n=g5 v=50
77280 On ch=1 n=c5 v=50
77280 On ch=1 n=a#4 v=50
77280 On ch=1 n=g4 v=50
77280 On ch=1 n=e4 v=50
77760 On ch=1 n=a2 v=40
78000 On ch=1 n=a2 v=0
78320 On ch=1 n=c5 v=40
78400 On ch=1 n=c5 v=0
78400 On ch=1 n=e5 v=40
78480 On ch=1 n=e5 v=0
78720 On ch=1 n=c5 v=0
78720 On ch=1 n=e4 v=0
78720 On ch=1 n=g4 v=0
78720 On ch=1 n=a#4 v=0
78720 On ch=1 n=g5 v=0
78720 On ch=1 n=g5 v=50
78720 On ch=1 n=c#5 v=50
78720 On ch=1 n=a#4 v=50
78720 On ch=1 n=g4 v=50
78720 On ch=1 n=e4 v=50
78800 On ch=1 n=c#5 v=40
78880 On ch=1 n=c#5 v=0
78880 On ch=1 n=e5 v=40
78960 On ch=1 n=e5 v=0
79200 On ch=1 n=c#5 v=0
79200 On ch=1 n=e4 v=0
79200 On ch=1 n=g4 v=0
79200 On ch=1 n=a#4 v=0
79200 On ch=1 n=g5 v=0
79200 On ch=1 n=g5 v=50
79200 On ch=1 n=c5 v=50
79200 On ch=1 n=a#4 v=50
79200 On ch=1 n=g4 v=50
79200 On ch=1 n=e4 v=50
79280 On ch=1 n=c#5 v=40
79360 On ch=1 n=c#5 v=0
79360 On ch=1 n=e5 v=40
79440 On ch=1 n=e5 v=0
79680 On ch=1 n=e4 v=0
79680 On ch=1 n=g4 v=0
79680 On ch=1 n=a#4 v=0
79680 On ch=1 n=c5 v=0
79680 On ch=1 n=g5 v=0
79680 On ch=1 n=g5 v=50
79680 On ch=1 n=c#5 v=50
79680 On ch=1 n=a#4 v=50
79680 On ch=1 n=g4 v=50
79680 On ch=1 n=e4 v=50
79760 On ch=1 n=c#5 v=40
79840 On ch=1 n=c#5 v=0
79840 On ch=1 n=e5 v=40
79920 On ch=1 n=e5 v=0
80160 On ch=1 n=c#5 v=0
80160 On ch=1 n=e4 v=0
80160 On ch=1 n=g4 v=0
80160 On ch=1 n=a#4 v=0
80160 On ch=1 n=g5 v=0
80160 On ch=1 n=a2 v=40
80640 On ch=1 n=a2 v=0
80640 On ch=1 n=d5 v=40
80640 On ch=1 n=b4 v=40
80640 On ch=1 n=f#4 v=40
80640 On ch=1 n=d4 v=40
80880 On ch=1 n=d4 v=0
80880 On ch=1 n=f#4 v=0
80880 On ch=1 n=b4 v=0
80880 On ch=1 n=d5 v=0
80880 On ch=1 n=f5 v=50
80880 On ch=1 n=d5 v=50
80880 On ch=1 n=a4 v=50
80880 On ch=1 n=f4 v=50
81360 On ch=1 n=f4 v=0
81360 On ch=1 n=a4 v=0
81360 On ch=1 n=d5 v=0
81360 On ch=1 n=f5 v=0
81360 On ch=1 n=f#5 v=50
81360 On ch=1 n=f#4 v=50
81600 On ch=1 n=f#4 v=0
81600 On ch=1 n=f#5 v=0
81600 On ch=1 n=g5 v=40
81600 On ch=1 n=d#5 v=40
81600 On ch=1 n=a#4 v=40
81600 On ch=1 n=g4 v=40
82080 On ch=1 n=g4 v=0
82080 On ch=1 n=a#4 v=0
82080 On ch=1 n=d#5 v=0
82080 On ch=1 n=g5 v=0
82080 On ch=1 n=g#5 v=40
82080 On ch=1 n=d5 v=40
82080 On ch=1 n=b4 v=40
82080 On ch=1 n=g#4 v=40
82500 On ch=1 n=f#4 v=40
82500 On ch=1 n=b4 v=40
82560 On ch=1 n=b4 v=0
82560 On ch=1 n=f#4 v=0
82560 On ch=1 n=g#4 v=0
82560 On ch=1 n=b4 v=0
82560 On ch=1 n=d5 v=0
82560 On ch=1 n=g#5 v=0
82560 On ch=1 n=e4 v=40
82560 On ch=1 n=a4 v=40
82800 On ch=1 n=a4 v=0
82800 On ch=1 n=e4 v=0
82800 On ch=1 n=e4 v=40
82800 On ch=1 n=a4 v=40
83040 On ch=1 n=a1 v=40
83520 On ch=1 n=a1 v=0
84000 On ch=1 n=a4 v=0
84000 On ch=1 n=e4 v=0
84000 On ch=1 n=f#4 v=40
84000 On ch=1 n=b4 v=40
84120 On ch=1 n=b4 v=0
84120 On ch=1 n=f#4 v=0
84120 On ch=1 n=e4 v=40
84120 On ch=1 n=a4 v=40
84240 On ch=1 n=a4 v=0
84240 On ch=1 n=e4 v=0
84240 On ch=1 n=g#4 v=40
84240 On ch=1 n=c#5 v=40
84300 On ch=1 n=c#5 v=0
84300 On ch=1 n=g#4 v=0
84300 On ch=1 n=f#4 v=40
84300 On ch=1 n=b4 v=40
84360 On ch=1 n=b4 v=0
84360 On ch=1 n=f#4 v=0
84360 On ch=1 n=e4 v=40
84360 On ch=1 n=a4 v=40
84480 On ch=1 n=a4 v=0
84480 On ch=1 n=e4 v=0
84480 On ch=1 n=e4 v=40
84480 On ch=1 n=a4 v=40
84960 On ch=1 n=a1 v=40
85380 On ch=1 n=f#4 v=40
85380 On ch=1 n=b4 v=40
85440 On ch=1 n=b4 v=0
85440 On ch=1 n=f#4 v=0
85440 On ch=1 n=a1 v=0
85440 On ch=1 n=a4 v=0
85440 On ch=1 n=e4 v=0
85440 On ch=1 n=e4 v=40
85440 On ch=1 n=a4 v=40
85680 On ch=1 n=a4 v=0
85680 On ch=1 n=e4 v=0
85680 On ch=1 n=e4 v=40
85680 On ch=1 n=a4 v=40
85920 On ch=1 n=a1 v=40
86400 On ch=1 n=a1 v=0
86880 On ch=1 n=a4 v=0
86880 On ch=1 n=e4 v=0
86880 On ch=1 n=f#4 v=40
86880 On ch=1 n=b4 v=40
87000 On ch=1 n=b4 v=0
87000 On ch=1 n=f#4 v=0
87000 On ch=1 n=e4 v=40
87000 On ch=1 n=a4 v=40
87120 On ch=1 n=a4 v=0
87120 On ch=1 n=e4 v=0
87120 On ch=1 n=g#4 v=40
87120 On ch=1 n=c#5 v=40
87180 On ch=1 n=c#5 v=0
87180 On ch=1 n=g#4 v=0
87180 On ch=1 n=f#4 v=40
87180 On ch=1 n=b4 v=40
87240 On ch=1 n=b4 v=0
87240 On ch=1 n=f#4 v=0
87240 On ch=1 n=e4 v=40
87240 On ch=1 n=a4 v=40
87360 On ch=1 n=a4 v=0
87360 On ch=1 n=e4 v=0
87360 On ch=1 n=e4 v=40
87360 On ch=1 n=a4 v=40
87840 On ch=1 n=a1 v=40
88320 On ch=1 n=a1 v=0
88320 On ch=1 n=a4 v=0
88320 On ch=1 n=e4 v=0
88320 Meta TrkEnd
TrkEnd
MTrk
0 SeqSpec 43 00 01 00
0 Meta TrkName "Pedal"
0 Meta 0x21 00
0 Par ch=1 c=64 v=127
840 Par ch=1 c=64 v=0
960 Par ch=1 c=64 v=127
1320 Par ch=1 c=64 v=0
1440 Par ch=1 c=64 v=127
2280 Par ch=1 c=64 v=0
2400 Par ch=1 c=64 v=127
3240 Par ch=1 c=64 v=0
3360 Par ch=1 c=64 v=127
3720 Par ch=1 c=64 v=0
3840 Par ch=1 c=64 v=127
4680 Par ch=1 c=64 v=0
4800 Par ch=1 c=64 v=127
5160 Par ch=1 c=64 v=0
5280 Par ch=1 c=64 v=127
5640 Par ch=1 c=64 v=0
5760 Par ch=1 c=64 v=127
6120 Par ch=1 c=64 v=0
6240 Par ch=1 c=64 v=127
6600 Par ch=1 c=64 v=0
6720 Par ch=1 c=64 v=127
7080 Par ch=1 c=64 v=0
7200 Par ch=1 c=64 v=127
7560 Par ch=1 c=64 v=0
7680 Par ch=1 c=64 v=127
8040 Par ch=1 c=64 v=0
8160 Par ch=1 c=64 v=127
9120 Par ch=1 c=64 v=0
9360 Par ch=1 c=64 v=127
10440 Par ch=1 c=64 v=0
10560 Par ch=1 c=64 v=127
10920 Par ch=1 c=64 v=0
11040 Par ch=1 c=64 v=127
12000 Par ch=1 c=64 v=0
12240 Par ch=1 c=64 v=127
13320 Par ch=1 c=64 v=0
13440 Par ch=1 c=64 v=127
14760 Par ch=1 c=64 v=0
14880 Par ch=1 c=64 v=127
15240 Par ch=1 c=64 v=0
15360 Par ch=1 c=64 v=127
15720 Par ch=1 c=64 v=0
15840 Par ch=1 c=64 v=127
16200 Par ch=1 c=64 v=0
16320 Par ch=1 c=64 v=127
17640 Par ch=1 c=64 v=0
17760 Par ch=1 c=64 v=127
18120 Par ch=1 c=64 v=0
18240 Par ch=1 c=64 v=127
18600 Par ch=1 c=64 v=0
18720 Par ch=1 c=64 v=127
19080 Par ch=1 c=64 v=0
19200 Par ch=1 c=64 v=127
19560 Par ch=1 c=64 v=0
19680 Par ch=1 c=64 v=127
20520 Par ch=1 c=64 v=0
20640 Par ch=1 c=64 v=127
21960 Par ch=1 c=64 v=0
22080 Par ch=1 c=64 v=127
23520 Par ch=1 c=64 v=0
26400 Par ch=1 c=64 v=127
26760 Par ch=1 c=64 v=0
26880 Par ch=1 c=64 v=127
27240 Par ch=1 c=64 v=0
27360 Par ch=1 c=64 v=127
27720 Par ch=1 c=64 v=0
27840 Par ch=1 c=64 v=127
28200 Par ch=1 c=64 v=0
28320 Par ch=1 c=64 v=127
28680 Par ch=1 c=64 v=0
28800 Par ch=1 c=64 v=127
29160 Par ch=1 c=64 v=0
29280 Par ch=1 c=64 v=127
29640 Par ch=1 c=64 v=0
29760 Par ch=1 c=64 v=127
30120 Par ch=1 c=64 v=0
30240 Par ch=1 c=64 v=127
30600 Par ch=1 c=64 v=0
30720 Par ch=1 c=64 v=127
31080 Par ch=1 c=64 v=0
31200 Par ch=1 c=64 v=127
31560 Par ch=1 c=64 v=0
31680 Par ch=1 c=64 v=127
32040 Par ch=1 c=64 v=0
32160 Par ch=1 c=64 v=127
32520 Par ch=1 c=64 v=0
32640 Par ch=1 c=64 v=127
33000 Par ch=1 c=64 v=0
33120 Par ch=1 c=64 v=127
33480 Par ch=1 c=64 v=0
33600 Par ch=1 c=64 v=127
33960 Par ch=1 c=64 v=0
34080 Par ch=1 c=64 v=127
34440 Par ch=1 c=64 v=0
34560 Par ch=1 c=64 v=127
34920 Par ch=1 c=64 v=0
35040 Par ch=1 c=64 v=127
35880 Par ch=1 c=64 v=0
36000 Par ch=1 c=64 v=127
36360 Par ch=1 c=64 v=0
36480 Par ch=1 c=64 v=127
37320 Par ch=1 c=64 v=0
37440 Par ch=1 c=64 v=127
38280 Par ch=1 c=64 v=0
38400 Par ch=1 c=64 v=127
38760 Par ch=1 c=64 v=0
38880 Par ch=1 c=64 v=127
39720 Par ch=1 c=64 v=0
39840 Par ch=1 c=64 v=127
40200 Par ch=1 c=64 v=0
40320 Par ch=1 c=64 v=127
40680 Par ch=1 c=64 v=0
40800 Par ch=1 c=64 v=127
41160 Par ch=1 c=64 v=0
41280 Par ch=1 c=64 v=127
42120 Par ch=1 c=64 v=0
42240 Par ch=1 c=64 v=127
43080 Par ch=1 c=64 v=0
43200 Par ch=1 c=64 v=127
45000 Par ch=1 c=64 v=0
45120 Par ch=1 c=64 v=127
45960 Par ch=1 c=64 v=0
46080 Par ch=1 c=64 v=127
46440 Par ch=1 c=64 v=0
46560 Par ch=1 c=64 v=127
47400 Par ch=1 c=64 v=0
47520 Par ch=1 c=64 v=127
47640 Par ch=1 c=64 v=0
47760 Par ch=1 c=64 v=127
47880 Par ch=1 c=64 v=0
48000 Par ch=1 c=64 v=127
48120 Par ch=1 c=64 v=0
48240 Par ch=1 c=64 v=127
48360 Par ch=1 c=64 v=0
48480 Par ch=1 c=64 v=127
48600 Par ch=1 c=64 v=0
48720 Par ch=1 c=64 v=127
48840 Par ch=1 c=64 v=0
48960 Par ch=1 c=64 v=127
50280 Par ch=1 c=64 v=0
50400 Par ch=1 c=64 v=127
50760 Par ch=1 c=64 v=0
50880 Par ch=1 c=64 v=127
51240 Par ch=1 c=64 v=0
51360 Par ch=1 c=64 v=127
53160 Par ch=1 c=64 v=0
53280 Par ch=1 c=64 v=127
53640 Par ch=1 c=64 v=0
53760 Par ch=1 c=64 v=127
54120 Par ch=1 c=64 v=0
54240 Par ch=1 c=64 v=127
54600 Par ch=1 c=64 v=0
54720 Par ch=1 c=64 v=127
55080 Par ch=1 c=64 v=0
55200 Par ch=1 c=64 v=127
56040 Par ch=1 c=64 v=0
56160 Par ch=1 c=64 v=127
56520 Par ch=1 c=64 v=0
56640 Par ch=1 c=64 v=127
57000 Par ch=1 c=64 v=0
57120 Par ch=1 c=64 v=127
57480 Par ch=1 c=64 v=0
57600 Par ch=1 c=64 v=127
57720 Par ch=1 c=64 v=0
57840 Par ch=1 c=64 v=127
57960 Par ch=1 c=64 v=0
58080 Par ch=1 c=64 v=127
58200 Par ch=1 c=64 v=0
58320 Par ch=1 c=64 v=127
58440 Par ch=1 c=64 v=0
58560 Par ch=1 c=64 v=127
58680 Par ch=1 c=64 v=0
58800 Par ch=1 c=64 v=127
58920 Par ch=1 c=64 v=0
59040 Par ch=1 c=64 v=127
59160 Par ch=1 c=64 v=0
59280 Par ch=1 c=64 v=127
59400 Par ch=1 c=64 v=0
59520 Par ch=1 c=64 v=127
59640 Par ch=1 c=64 v=0
59760 Par ch=1 c=64 v=127
59880 Par ch=1 c=64 v=0
60000 Par ch=1 c=64 v=127
60120 Par ch=1 c=64 v=0
60240 Par ch=1 c=64 v=127
60360 Par ch=1 c=64 v=0
60480 Par ch=1 c=64 v=127
60840 Par ch=1 c=64 v=0
60960 Par ch=1 c=64 v=127
61800 Par ch=1 c=64 v=0
61920 Par ch=1 c=64 v=127
62280 Par ch=1 c=64 v=0
62400 Par ch=1 c=64 v=127
63000 Par ch=1 c=64 v=0
63120 Par ch=1 c=64 v=127
63240 Par ch=1 c=64 v=0
63360 Par ch=1 c=64 v=127
63480 Par ch=1 c=64 v=0
63600 Par ch=1 c=64 v=127
63720 Par ch=1 c=64 v=0
63840 Par ch=1 c=64 v=127
64440 Par ch=1 c=64 v=0
64560 Par ch=1 c=64 v=127
64680 Par ch=1 c=64 v=0
64800 Par ch=1 c=64 v=127
64920 Par ch=1 c=64 v=0
65040 Par ch=1 c=64 v=127
65160 Par ch=1 c=64 v=0
65280 Par ch=1 c=64 v=127
65640 Par ch=1 c=64 v=0
65760 Par ch=1 c=64 v=127
66120 Par ch=1 c=64 v=0
66240 Par ch=1 c=64 v=127
66600 Par ch=1 c=64 v=0
66720 Par ch=1 c=64 v=127
67080 Par ch=1 c=64 v=0
67200 Par ch=1 c=64 v=127
67560 Par ch=1 c=64 v=0
67680 Par ch=1 c=64 v=127
68040 Par ch=1 c=64 v=0
68160 Par ch=1 c=64 v=127
68520 Par ch=1 c=64 v=0
68640 Par ch=1 c=64 v=127
69000 Par ch=1 c=64 v=0
69120 Par ch=1 c=64 v=127
69480 Par ch=1 c=64 v=0
69600 Par ch=1 c=64 v=127
69960 Par ch=1 c=64 v=0
70080 Par ch=1 c=64 v=127
70440 Par ch=1 c=64 v=0
70560 Par ch=1 c=64 v=127
70920 Par ch=1 c=64 v=0
71040 Par ch=1 c=64 v=127
71400 Par ch=1 c=64 v=0
71520 Par ch=1 c=64 v=127
71880 Par ch=1 c=64 v=0
72000 Par ch=1 c=64 v=127
72360 Par ch=1 c=64 v=0
72480 Par ch=1 c=64 v=127
72840 Par ch=1 c=64 v=0
72960 Par ch=1 c=64 v=127
73320 Par ch=1 c=64 v=0
73440 Par ch=1 c=64 v=127
73800 Par ch=1 c=64 v=0
73920 Par ch=1 c=64 v=127
74280 Par ch=1 c=64 v=0
74400 Par ch=1 c=64 v=127
74760 Par ch=1 c=64 v=0
74880 Par ch=1 c=64 v=127
75240 Par ch=1 c=64 v=0
75360 Par ch=1 c=64 v=127
75720 Par ch=1 c=64 v=0
75840 Par ch=1 c=64 v=127
76200 Par ch=1 c=64 v=0
76320 Par ch=1 c=64 v=127
76680 Par ch=1 c=64 v=0
76800 Par ch=1 c=64 v=127
77160 Par ch=1 c=64 v=0
77280 Par ch=1 c=64 v=127
77640 Par ch=1 c=64 v=0
77760 Par ch=1 c=64 v=127
78120 Par ch=1 c=64 v=0
78240 Par ch=1 c=64 v=127
78600 Par ch=1 c=64 v=0
78720 Par ch=1 c=64 v=127
79080 Par ch=1 c=64 v=0
79200 Par ch=1 c=64 v=127
79560 Par ch=1 c=64 v=0
79680 Par ch=1 c=64 v=127
80040 Par ch=1 c=64 v=0
80160 Par ch=1 c=64 v=127
81480 Par ch=1 c=64 v=0
81600 Par ch=1 c=64 v=127
81960 Par ch=1 c=64 v=0
82080 Par ch=1 c=64 v=127
82440 Par ch=1 c=64 v=0
82560 Par ch=1 c=64 v=127
83880 Par ch=1 c=64 v=0
84000 Par ch=1 c=64 v=127
85320 Par ch=1 c=64 v=0
85440 Par ch=1 c=64 v=127
86760 Par ch=1 c=64 v=0
86880 Par ch=1 c=64 v=127
88320 Par ch=1 c=64 v=0
88320 Meta TrkEnd
TrkEnd
MTrk
0 SeqSpec 43 00 01 00
0 Meta TrkName "Debussy, Claude"
0 Meta 0x21 00
0 Meta TrkEnd
TrkEnd
MTrk
0 SeqSpec 43 00 01 00
0 Meta TrkName "Prelude Book 1 No. 04 Les sons et les parfums tourment dans l'air du soir"
0 Meta 0x21 00
0 Meta TrkEnd
TrkEnd
MTrk
0 SeqSpec 43 00 01 00
0 Meta TrkName "Jeruen E. Dery jawjaw@hotmail.com"
0 Meta 0x21 00
0 Meta TrkEnd
TrkEnd
