MFile 1 8 480
MTrk
0 TimeSig 3/4 24 8
0 KeySig -6 major
0 Tempo 712483
2400 Tempo 1666667
2880 Tempo 1304348
5760 Tempo 712483
7680 Tempo 1071429
10080 Tempo 712483
12480 Tempo 1666667
12960 Tempo 1304348
15840 Tempo 712483
25920 Tempo 789474
29760 Tempo 712483
32160 Tempo 1071429
33120 Tempo 712483
37920 Tempo 1071429
38400 Tempo 1304348
38880 Tempo 1071429
40320 Tempo 712483
46080 Tempo 952381
46560 Tempo 1000000
47040 Tempo 1052632
47520 Tempo 1111111
48000 Tempo 1176471
48480 Tempo 1250000
48960 Tempo 1333333
50400 Tempo 712483
50880 Tempo 1333333
50880 Meta TrkEnd
TrkEnd
MTrk
0 SeqSpec 43 00 01 00
0 Meta TrkName "Right Treble"
0 Meta 0x21 00
0 On ch=1 n=c#6 v=70
720 On ch=1 n=c#6 v=0
720 On ch=1 n=a#5 v=70
840 On ch=1 n=a#5 v=0
840 On ch=1 n=f#5 v=70
960 On ch=1 n=f#5 v=0
960 On ch=1 n=d#5 v=70
1200 On ch=1 n=d#5 v=0
1200 On ch=1 n=f#5 v=70
1320 On ch=1 n=f#5 v=0
1320 On ch=1 n=a#5 v=70
1440 On ch=1 n=a#5 v=0
1440 On ch=1 n=c#6 v=70
1680 On ch=1 n=c#6 v=0
1680 On ch=1 n=a#5 v=70
1800 On ch=1 n=a#5 v=0
1800 On ch=1 n=f#5 v=70
1920 On ch=1 n=f#5 v=0
1920 On ch=1 n=d#5 v=70
2160 On ch=1 n=d#5 v=0
2160 On ch=1 n=f#5 v=70
2280 On ch=1 n=f#5 v=0
2280 On ch=1 n=a#5 v=70
2400 On ch=1 n=a#5 v=0
2400 On ch=1 n=f#5 v=70
2640 On ch=1 n=f#5 v=0
2640 On ch=1 n=f#5 v=70
2640 On ch=1 n=f#4 v=60
2640 On ch=1 n=b4 v=60
2760 On ch=1 n=f#5 v=0
2760 On ch=1 n=d#5 v=70
2880 On ch=1 n=d#5 v=0
2880 On ch=1 n=b4 v=0
2880 On ch=1 n=f#4 v=0
2880 On ch=1 n=f#5 v=60
2880 On ch=1 n=f#4 v=50
2880 On ch=1 n=a#4 v=50
3120 On ch=1 n=f#5 v=0
3120 On ch=1 n=f5 v=60
3240 On ch=1 n=f5 v=0
3240 On ch=1 n=d#5 v=60
3360 On ch=1 n=d#5 v=0
3360 On ch=1 n=c#5 v=60
5280 On ch=1 n=c#5 v=0
5280 On ch=1 n=a#4 v=0
5280 On ch=1 n=f#4 v=0
5280 On ch=1 n=d#5 v=60
5520 On ch=1 n=d#5 v=0
5520 On ch=1 n=f#5 v=60
5760 On ch=1 n=f#5 v=0
5760 On ch=1 n=c#5 v=50
5760 On ch=1 n=f5 v=50
5760 On ch=1 n=g#5 v=60
6480 On ch=1 n=g#5 v=0
6480 On ch=1 n=f5 v=0
6480 On ch=1 n=c#5 v=0
6480 On ch=1 n=c#5 v=50
6480 On ch=1 n=f5 v=50
6480 On ch=1 n=c#6 v=60
6720 On ch=1 n=c#6 v=0
6720 On ch=1 n=f5 v=0
6720 On ch=1 n=c#5 v=0
6720 On ch=1 n=d#5 v=50
6720 On ch=1 n=f#5 v=50
6720 On ch=1 n=a#5 v=60
6960 On ch=1 n=a#5 v=0
6960 On ch=1 n=f#5 v=0
6960 On ch=1 n=d#5 v=0
6960 On ch=1 n=c#5 v=50
6960 On ch=1 n=f#5 v=60
7080 On ch=1 n=f#5 v=0
7080 On ch=1 n=c#5 v=0
7080 On ch=1 n=a#5 v=60
7200 On ch=1 n=a#5 v=0
7200 On ch=1 n=g#5 v=70
7200 On ch=1 n=c#5 v=60
7200 On ch=1 n=f5 v=60
7440 On ch=1 n=g#5 v=0
7440 On ch=1 n=c#6 v=70
7680 On ch=1 n=c#6 v=0
7680 On ch=1 n=f5 v=0
7680 On ch=1 n=c#5 v=0
7680 On ch=1 n=d5 v=60
7680 On ch=1 n=f5 v=60
7680 On ch=1 n=a#5 v=70
8160 On ch=1 n=a#5 v=0
8160 On ch=1 n=f5 v=0
8160 On ch=1 n=d5 v=0
8160 On ch=1 n=d#5 v=60
8160 On ch=1 n=a#5 v=60
8160 On ch=1 n=d#6 v=70
9120 On ch=1 n=d#6 v=0
9120 On ch=1 n=a#5 v=0
9120 On ch=1 n=d#5 v=0
9120 On ch=1 n=a#5 v=70
9840 On ch=1 n=a#5 v=0
9840 On ch=1 n=b5 v=70
10080 On ch=1 n=b5 v=0
10080 On ch=1 n=c#6 v=70
10080 On ch=1 n=c#5 v=60
10800 On ch=1 n=c#6 v=0
10800 On ch=1 n=a#5 v=70
10920 On ch=1 n=a#5 v=0
10920 On ch=1 n=f#5 v=70
11040 On ch=1 n=f#5 v=0
11040 On ch=1 n=c#5 v=0
11040 On ch=1 n=d#5 v=60
11280 On ch=1 n=f#5 v=70
11400 On ch=1 n=f#5 v=0
11400 On ch=1 n=a#5 v=70
11520 On ch=1 n=a#5 v=0
11520 On ch=1 n=d#5 v=0
11520 On ch=1 n=c#6 v=70
11520 On ch=1 n=c#5 v=60
11760 On ch=1 n=c#6 v=0
11760 On ch=1 n=a#5 v=70
11880 On ch=1 n=a#5 v=0
11880 On ch=1 n=f#5 v=70
12000 On ch=1 n=f#5 v=0
12000 On ch=1 n=c#5 v=0
12000 On ch=1 n=d#5 v=70
12240 On ch=1 n=f#5 v=70
12360 On ch=1 n=f#5 v=0
12360 On ch=1 n=a#5 v=70
12480 On ch=1 n=a#5 v=0
12480 On ch=1 n=d#5 v=0
12480 On ch=1 n=f#5 v=70
12480 On ch=1 n=a#4 v=60
12480 On ch=1 n=c#5 v=60
12720 On ch=1 n=c#5 v=0
12720 On ch=1 n=a#4 v=0
12720 On ch=1 n=f#5 v=0
12720 On ch=1 n=f#5 v=70
12720 On ch=1 n=g#4 v=60
12720 On ch=1 n=b4 v=60
12840 On ch=1 n=f#5 v=0
12840 On ch=1 n=d#5 v=70
12960 On ch=1 n=d#5 v=0
12960 On ch=1 n=b4 v=0
12960 On ch=1 n=g#4 v=0
12960 On ch=1 n=f#5 v=60
12960 On ch=1 n=f#4 v=50
12960 On ch=1 n=a#4 v=50
13200 On ch=1 n=f#5 v=0
13200 On ch=1 n=f5 v=60
13320 On ch=1 n=f5 v=0
13320 On ch=1 n=d#5 v=60
13440 On ch=1 n=d#5 v=0
13440 On ch=1 n=c#5 v=60
14040 On ch=1 n=b4 v=50
14160 On ch=1 n=b4 v=0
14160 On ch=1 n=a#4 v=50
14280 On ch=1 n=g#4 v=50
14400 On ch=1 n=g#4 v=0
14400 On ch=1 n=a#4 v=0
14400 On ch=1 n=f#4 v=0
14400 On ch=1 n=f#4 v=50
14640 On ch=1 n=f#4 v=0
15360 On ch=1 n=a#4 v=0
15360 On ch=1 n=c#5 v=0
15600 On ch=1 n=a#4 v=60
15720 On ch=1 n=a#4 v=0
15720 On ch=1 n=c#5 v=60
15840 On ch=1 n=c#5 v=0
15840 On ch=1 n=d#5 v=70
15920 On ch=1 n=b4 v=60
15960 On ch=1 n=c#5 v=60
16080 On ch=1 n=d#5 v=0
16080 On ch=1 n=f#5 v=70
16200 On ch=1 n=f#5 v=0
16200 On ch=1 n=g#5 v=70
16320 On ch=1 n=g#5 v=0
16320 On ch=1 n=b5 v=70
16560 On ch=1 n=b5 v=0
16560 On ch=1 n=c#6 v=70
16800 On ch=1 n=c#6 v=0
16800 On ch=1 n=d#6 v=70
17040 On ch=1 n=d#6 v=0
17040 On ch=1 n=f#6 v=70
17280 On ch=1 n=c#5 v=0
17280 On ch=1 n=b4 v=0
17280 On ch=1 n=f#5 v=60
17280 On ch=1 n=a#5 v=60
17520 On ch=1 n=f#6 v=0
17520 On ch=1 n=f6 v=70
17640 On ch=1 n=f6 v=0
17640 On ch=1 n=d#6 v=70
17760 On ch=1 n=d#6 v=0
17760 On ch=1 n=c#6 v=70
18240 On ch=1 n=a#5 v=0
18240 On ch=1 n=f#5 v=0
18360 On ch=1 n=c#6 v=0
18360 On ch=1 n=b5 v=70
18480 On ch=1 n=b5 v=0
18480 On ch=1 n=a#5 v=70
18600 On ch=1 n=a#5 v=0
18600 On ch=1 n=g#5 v=70
18720 On ch=1 n=g#5 v=0
18720 On ch=1 n=f#5 v=60
18720 On ch=1 n=d#5 v=50
18840 On ch=1 n=f#5 v=0
18840 On ch=1 n=g#5 v=60
18960 On ch=1 n=g#5 v=0
18960 On ch=1 n=a#5 v=60
19080 On ch=1 n=d#5 v=0
19080 On ch=1 n=f5 v=50
19200 On ch=1 n=f5 v=0
19200 On ch=1 n=d#5 v=50
19320 On ch=1 n=a#5 v=0
19320 On ch=1 n=g#5 v=60
19440 On ch=1 n=g#5 v=0
19440 On ch=1 n=f#5 v=60
19560 On ch=1 n=d#5 v=0
19560 On ch=1 n=c#5 v=50
19680 On ch=1 n=c#5 v=0
19680 On ch=1 n=b4 v=50
19800 On ch=1 n=f#5 v=0
19800 On ch=1 n=f5 v=60
19920 On ch=1 n=f5 v=0
19920 On ch=1 n=d#5 v=60
20040 On ch=1 n=b4 v=0
20040 On ch=1 n=a#4 v=50
20160 On ch=1 n=a#4 v=0
20160 On ch=1 n=g#4 v=50
20280 On ch=1 n=d#5 v=0
20280 On ch=1 n=c#5 v=60
20400 On ch=1 n=c#5 v=0
20400 On ch=1 n=b4 v=60
20760 On ch=1 n=b4 v=0
20760 On ch=1 n=c#5 v=60
20880 On ch=1 n=c#5 v=0
20880 On ch=1 n=e5 v=60
21000 On ch=1 n=e5 v=0
21000 On ch=1 n=g#5 v=60
21120 On ch=1 n=g#5 v=0
21120 On ch=1 n=b5 v=60
21240 On ch=1 n=b5 v=0
21240 On ch=1 n=c#6 v=60
21360 On ch=1 n=c#6 v=0
21360 On ch=1 n=e6 v=60
21480 On ch=1 n=e6 v=0
21480 On ch=1 n=g#6 v=60
21600 On ch=1 n=g#6 v=0
21600 On ch=1 n=g#4 v=0
21600 On ch=1 n=b6 v=70
21600 On ch=1 n=d#6 v=60
21600 On ch=1 n=b5 v=60
21840 On ch=1 n=b6 v=0
21840 On ch=1 n=a#6 v=70
21960 On ch=1 n=a#6 v=0
21960 On ch=1 n=g#6 v=70
22080 On ch=1 n=g#6 v=0
22080 On ch=1 n=f#6 v=70
23040 On ch=1 n=f#6 v=0
23040 On ch=1 n=b5 v=0
23040 On ch=1 n=d#6 v=0
23040 On ch=1 n=a#6 v=65
23040 On ch=1 n=b5 v=55
23280 On ch=1 n=a#6 v=0
23280 On ch=1 n=g#6 v=65
23400 On ch=1 n=g#6 v=0
23400 On ch=1 n=f#6 v=65
23520 On ch=1 n=f#6 v=0
23520 On ch=1 n=b5 v=0
23520 On ch=1 n=d#6 v=65
23520 On ch=1 n=f5 v=55
24240 On ch=1 n=d#6 v=0
24240 On ch=1 n=c#6 v=65
24360 On ch=1 n=c#6 v=0
24360 On ch=1 n=b5 v=65
24480 On ch=1 n=b5 v=0
24480 On ch=1 n=f5 v=0
24480 On ch=1 n=a#5 v=60
24480 On ch=1 n=b4 v=50
24720 On ch=1 n=a#5 v=0
24720 On ch=1 n=g#5 v=60
24840 On ch=1 n=g#5 v=0
24840 On ch=1 n=f#5 v=60
24960 On ch=1 n=f#5 v=0
24960 On ch=1 n=b4 v=0
24960 On ch=1 n=d#5 v=60
25680 On ch=1 n=d#5 v=0
25680 On ch=1 n=d#5 v=60
25800 On ch=1 n=d#5 v=0
25800 On ch=1 n=c5 v=60
25920 On ch=1 n=c5 v=0
25920 On ch=1 n=g4 v=60
25920 On ch=1 n=a#4 v=60
25920 On ch=1 n=d#5 v=70
26520 On ch=1 n=f4 v=60
26640 On ch=1 n=f4 v=0
26640 On ch=1 n=g4 v=60
26760 On ch=1 n=g4 v=0
26760 On ch=1 n=a#4 v=60
26880 On ch=1 n=g4 v=0
26880 On ch=1 n=d#5 v=0
26880 On ch=1 n=a#4 v=0
26880 On ch=1 n=c5 v=70
26880 On ch=1 n=f4 v=60
26880 On ch=1 n=g#4 v=60
27120 On ch=1 n=c5 v=0
27120 On ch=1 n=d#5 v=70
27240 On ch=1 n=d#5 v=0
27240 On ch=1 n=c5 v=70
27360 On ch=1 n=c5 v=0
27360 On ch=1 n=g#4 v=0
27360 On ch=1 n=f4 v=0
27360 On ch=1 n=a#4 v=0
27360 On ch=1 n=g4 v=60
27360 On ch=1 n=a#4 v=60
27360 On ch=1 n=d#5 v=70
27600 On ch=1 n=a#4 v=60
27720 On ch=1 n=a#4 v=0
27720 On ch=1 n=c5 v=60
27840 On ch=1 n=c5 v=0
27840 On ch=1 n=d#5 v=60
27960 On ch=1 n=d#5 v=0
27960 On ch=1 n=f5 v=60
28080 On ch=1 n=f5 v=0
28080 On ch=1 n=g5 v=60
28200 On ch=1 n=g5 v=0
28200 On ch=1 n=a#5 v=60
28320 On ch=1 n=d#5 v=0
28320 On ch=1 n=a#4 v=0
28320 On ch=1 n=g4 v=0
28320 On ch=1 n=c6 v=80
28320 On ch=1 n=d#5 v=70
28320 On ch=1 n=g#5 v=70
28560 On ch=1 n=c6 v=0
28560 On ch=1 n=d#6 v=80
28680 On ch=1 n=d#6 v=0
28680 On ch=1 n=c6 v=80
28800 On ch=1 n=c6 v=0
28800 On ch=1 n=g#5 v=0
28800 On ch=1 n=d#5 v=0
28800 On ch=1 n=a#5 v=0
28800 On ch=1 n=g5 v=70
28800 On ch=1 n=a#5 v=70
28800 On ch=1 n=d#6 v=80
29040 On ch=1 n=d#6 v=0
29040 On ch=1 n=a#5 v=70
29160 On ch=1 n=a#5 v=0
29160 On ch=1 n=c6 v=70
29280 On ch=1 n=c6 v=0
29280 On ch=1 n=d#6 v=70
29400 On ch=1 n=d#6 v=0
29400 On ch=1 n=f6 v=70
29520 On ch=1 n=f6 v=0
29520 On ch=1 n=g6 v=70
29640 On ch=1 n=g6 v=0
29640 On ch=1 n=a#6 v=70
29760 On ch=1 n=a#6 v=0
29760 On ch=1 n=a#5 v=0
29760 On ch=1 n=g5 v=0
29760 On ch=1 n=d#7 v=90
29760 On ch=1 n=b6 v=80
29760 On ch=1 n=f#6 v=80
29760 On ch=1 n=d#6 v=80
30480 On ch=1 n=d#6 v=0
30480 On ch=1 n=f#6 v=0
30480 On ch=1 n=b6 v=0
30480 On ch=1 n=d#7 v=0
30480 On ch=1 n=c#7 v=90
30480 On ch=1 n=g#6 v=80
30480 On ch=1 n=f6 v=80
30560 On ch=1 n=c#7 v=0
30560 On ch=1 n=d#7 v=90
30640 On ch=1 n=d#7 v=0
30640 On ch=1 n=c#7 v=90
30720 On ch=1 n=c#7 v=0
30720 On ch=1 n=f6 v=0
30720 On ch=1 n=g#6 v=0
30720 On ch=1 n=a#6 v=90
30720 On ch=1 n=f#6 v=80
30720 On ch=1 n=d#6 v=80
30960 On ch=1 n=d#6 v=0
30960 On ch=1 n=f#6 v=0
30960 On ch=1 n=a#6 v=0
30960 On ch=1 n=g#6 v=90
30960 On ch=1 n=d#6 v=80
30960 On ch=1 n=c6 v=80
30960 On ch=1 n=g#5 v=80
31320 On ch=1 n=g#6 v=0
31320 On ch=1 n=f#6 v=90
31440 On ch=1 n=f#6 v=0
31440 On ch=1 n=f6 v=90
31560 On ch=1 n=f6 v=0
31560 On ch=1 n=d#6 v=90
31680 On ch=1 n=d#6 v=0
31680 On ch=1 n=g#5 v=0
31680 On ch=1 n=c6 v=0
31680 On ch=1 n=d#6 v=0
31680 On ch=1 n=d#5 v=60
31680 On ch=1 n=f#5 v=60
31680 On ch=1 n=b5 v=60
31680 On ch=1 n=d#6 v=70
31920 On ch=1 n=d#6 v=0
31920 On ch=1 n=b5 v=0
31920 On ch=1 n=f#5 v=0
31920 On ch=1 n=d#5 v=0
31920 On ch=1 n=c#6 v=70
31920 On ch=1 n=g#5 v=60
31920 On ch=1 n=f5 v=60
32000 On ch=1 n=c#6 v=0
32000 On ch=1 n=d#6 v=70
32080 On ch=1 n=d#6 v=0
32080 On ch=1 n=c#6 v=70
32160 On ch=1 n=c#6 v=0
32160 On ch=1 n=f5 v=0
32160 On ch=1 n=g#5 v=0
32160 On ch=1 n=d#5 v=60
32160 On ch=1 n=f#5 v=60
32160 On ch=1 n=a#5 v=70
32400 On ch=1 n=a#5 v=0
32400 On ch=1 n=f#5 v=0
32400 On ch=1 n=d#5 v=0
32400 On ch=1 n=d#5 v=60
32400 On ch=1 n=g#5 v=70
32880 On ch=1 n=g#5 v=0
32880 On ch=1 n=d#5 v=0
32880 On ch=1 n=f#5 v=70
32880 On ch=1 n=b4 v=60
33000 On ch=1 n=f#5 v=0
33000 On ch=1 n=f5 v=60
33000 On ch=1 n=g#5 v=70
33120 On ch=1 n=g#5 v=0
33120 On ch=1 n=f5 v=0
33120 On ch=1 n=b4 v=0
33120 On ch=1 n=a#5 v=50
33120 On ch=1 n=d#5 v=40
33480 On ch=1 n=d#5 v=0
33480 On ch=1 n=a#5 v=0
33480 On ch=1 n=c#5 v=40
33480 On ch=1 n=f#5 v=50
33600 On ch=1 n=f#5 v=0
33600 On ch=1 n=c#5 v=0
33600 On ch=1 n=a#4 v=40
33600 On ch=1 n=d#5 v=50
33840 On ch=1 n=d#5 v=0
33840 On ch=1 n=a#4 v=0
33840 On ch=1 n=f#5 v=50
33840 On ch=1 n=c#5 v=40
34080 On ch=1 n=c#5 v=0
34080 On ch=1 n=f#5 v=0
34080 On ch=1 n=d#5 v=40
34080 On ch=1 n=a#5 v=50
34320 On ch=1 n=a#5 v=0
34320 On ch=1 n=d#5 v=0
34320 On ch=1 n=c#6 v=50
34320 On ch=1 n=f#5 v=40
34560 On ch=1 n=f#5 v=0
34560 On ch=1 n=c#6 v=0
34560 On ch=1 n=d#5 v=40
34560 On ch=1 n=a#5 v=50
34800 On ch=1 n=a#5 v=0
34800 On ch=1 n=d#5 v=0
34800 On ch=1 n=c#5 v=40
34800 On ch=1 n=f#5 v=50
35040 On ch=1 n=f#5 v=0
35040 On ch=1 n=c#5 v=0
35040 On ch=1 n=d#5 v=50
35520 On ch=1 n=d#5 v=0
35520 On ch=1 n=f#5 v=50
36000 On ch=1 n=f#5 v=0
36000 On ch=1 n=d#5 v=60
36000 On ch=1 n=a#5 v=70
36360 On ch=1 n=a#5 v=0
36360 On ch=1 n=d#5 v=0
36360 On ch=1 n=c#5 v=60
36360 On ch=1 n=f#5 v=70
36480 On ch=1 n=f#5 v=0
36480 On ch=1 n=c#5 v=0
36480 On ch=1 n=d#5 v=60
36480 On ch=1 n=a#5 v=70
36720 On ch=1 n=a#5 v=0
36720 On ch=1 n=d#5 v=0
36720 On ch=1 n=c#6 v=70
36720 On ch=1 n=f#5 v=60
36720 On ch=1 n=c#5 v=60
36960 On ch=1 n=c#5 v=0
36960 On ch=1 n=f#5 v=0
36960 On ch=1 n=c#6 v=0
36960 On ch=1 n=d#5 v=60
36960 On ch=1 n=a#5 v=60
36960 On ch=1 n=d#6 v=70
37200 On ch=1 n=d#6 v=0
37200 On ch=1 n=a#5 v=0
37200 On ch=1 n=d#5 v=0
37200 On ch=1 n=f#6 v=70
37200 On ch=1 n=c#6 v=60
37200 On ch=1 n=f#5 v=60
37440 On ch=1 n=f#5 v=0
37440 On ch=1 n=c#6 v=0
37440 On ch=1 n=f#6 v=0
37440 On ch=1 n=a#5 v=60
37440 On ch=1 n=d#6 v=60
37440 On ch=1 n=a#6 v=70
37680 On ch=1 n=a#6 v=0
37680 On ch=1 n=d#6 v=0
37680 On ch=1 n=a#5 v=0
37680 On ch=1 n=f#5 v=60
37680 On ch=1 n=c#6 v=60
37680 On ch=1 n=f#6 v=70
37920 On ch=1 n=f#6 v=0
37920 On ch=1 n=c#6 v=0
37920 On ch=1 n=f#5 v=0
37920 On ch=1 n=b4 v=60
37920 On ch=1 n=a#5 v=70
38400 On ch=1 n=a#5 v=0
38400 On ch=1 n=b4 v=0
38400 On ch=1 n=g#4 v=60
38400 On ch=1 n=c#5 v=70
38880 On ch=1 n=c#5 v=0
38880 On ch=1 n=g#4 v=0
38880 On ch=1 n=a#4 v=40
38880 On ch=1 n=d#5 v=40
38880 On ch=1 n=f#5 v=40
38880 On ch=1 n=a#5 v=40
39840 On ch=1 n=c#7 v=50
41040 On ch=1 n=c#7 v=0
41040 On ch=1 n=a#6 v=50
41160 On ch=1 n=a#6 v=0
41160 On ch=1 n=f#6 v=50
41280 On ch=1 n=f#6 v=0
41280 On ch=1 n=d#6 v=50
41520 On ch=1 n=d#6 v=0
41520 On ch=1 n=f#6 v=50
41640 On ch=1 n=f#6 v=0
41640 On ch=1 n=a#6 v=50
41760 On ch=1 n=a#6 v=0
41760 On ch=1 n=a#5 v=0
41760 On ch=1 n=f#5 v=0
41760 On ch=1 n=d#5 v=0
41760 On ch=1 n=a#4 v=0
41760 On ch=1 n=c#7 v=60
42000 On ch=1 n=c#7 v=0
42000 On ch=1 n=a#6 v=60
42120 On ch=1 n=a#6 v=0
42120 On ch=1 n=f#6 v=60
42240 On ch=1 n=f#6 v=0
42240 On ch=1 n=d#6 v=60
42480 On ch=1 n=d#6 v=0
42480 On ch=1 n=f#6 v=60
42600 On ch=1 n=f#6 v=0
42600 On ch=1 n=a#6 v=60
42720 On ch=1 n=a#6 v=0
42720 On ch=1 n=f#6 v=60
42960 On ch=1 n=f#6 v=0
42960 On ch=1 n=f#6 v=60
43080 On ch=1 n=f#6 v=0
43080 On ch=1 n=d#6 v=60
43200 On ch=1 n=d#6 v=0
43200 On ch=1 n=a#5 v=50
43200 On ch=1 n=f#5 v=50
43200 On ch=1 n=f#6 v=60
43680 On ch=1 n=f#6 v=0
43680 On ch=1 n=f6 v=60
44160 On ch=1 n=f6 v=0
44160 On ch=1 n=d#6 v=60
44640 On ch=1 n=d#6 v=0
44640 On ch=1 n=f#5 v=0
44640 On ch=1 n=a#5 v=0
44640 On ch=1 n=c#6 v=60
44640 On ch=1 n=f#5 v=50
44640 On ch=1 n=c#5 v=50
45360 On ch=1 n=c#6 v=0
45360 On ch=1 n=b5 v=60
45600 On ch=1 n=b5 v=0
45600 On ch=1 n=a#5 v=60
45840 On ch=1 n=a#5 v=0
45840 On ch=1 n=g#5 v=60
46080 On ch=1 n=g#5 v=0
46080 On ch=1 n=c#5 v=0
46080 On ch=1 n=f#5 v=0
46080 On ch=1 n=f#5 v=50
46080 On ch=1 n=d#5 v=40
46200 On ch=1 n=f#5 v=0
46200 On ch=1 n=g#5 v=50
46320 On ch=1 n=g#5 v=0
46320 On ch=1 n=a#5 v=50
46440 On ch=1 n=d#5 v=0
46440 On ch=1 n=f5 v=40
46560 On ch=1 n=f5 v=0
46560 On ch=1 n=d#5 v=40
46680 On ch=1 n=a#5 v=0
46680 On ch=1 n=g#5 v=50
46800 On ch=1 n=g#5 v=0
46800 On ch=1 n=f#5 v=50
46920 On ch=1 n=d#5 v=0
46920 On ch=1 n=c#5 v=40
47040 On ch=1 n=c#5 v=0
47040 On ch=1 n=b4 v=40
47160 On ch=1 n=f#5 v=0
47160 On ch=1 n=f5 v=50
47280 On ch=1 n=f5 v=0
47280 On ch=1 n=d#5 v=50
47400 On ch=1 n=b4 v=0
47400 On ch=1 n=a#4 v=40
47520 On ch=1 n=a#4 v=0
47520 On ch=1 n=g#4 v=40
47640 On ch=1 n=d#5 v=0
47640 On ch=1 n=c#5 v=50
47760 On ch=1 n=c#5 v=0
47760 On ch=1 n=d#5 v=50
47880 On ch=1 n=g#4 v=0
47880 On ch=1 n=a#4 v=40
48000 On ch=1 n=a#4 v=0
48000 On ch=1 n=b4 v=40
48120 On ch=1 n=d#5 v=0
48120 On ch=1 n=c#5 v=50
48240 On ch=1 n=c#5 v=0
48240 On ch=1 n=d#5 v=50
48360 On ch=1 n=b4 v=0
48360 On ch=1 n=a#4 v=40
48480 On ch=1 n=a#4 v=0
48480 On ch=1 n=g#4 v=40
48600 On ch=1 n=d#5 v=0
48600 On ch=1 n=c#5 v=50
48720 On ch=1 n=c#5 v=0
48720 On ch=1 n=d#5 v=50
48840 On ch=1 n=g#4 v=0
48840 On ch=1 n=a#4 v=40
48960 On ch=1 n=a#4 v=0
48960 On ch=1 n=b4 v=40
49080 On ch=1 n=d#5 v=0
49080 On ch=1 n=f#5 v=40
49080 On ch=1 n=c#5 v=40
49140 On ch=1 n=c#5 v=0
49140 On ch=1 n=f#5 v=0
49200 On ch=1 n=g#5 v=40
49200 On ch=1 n=d#5 v=40
49260 On ch=1 n=d#5 v=0
49260 On ch=1 n=g#5 v=0
49320 On ch=1 n=b5 v=40
49320 On ch=1 n=f#5 v=40
49380 On ch=1 n=f#5 v=0
49380 On ch=1 n=b5 v=0
49440 On ch=1 n=c#6 v=40
49440 On ch=1 n=g#5 v=40
49500 On ch=1 n=g#5 v=0
49500 On ch=1 n=c#6 v=0
49560 On ch=1 n=d#6 v=40
49560 On ch=1 n=b5 v=40
49620 On ch=1 n=b5 v=0
49620 On ch=1 n=d#6 v=0
49680 On ch=1 n=f#6 v=40
49680 On ch=1 n=c#6 v=40
49740 On ch=1 n=c#6 v=0
49740 On ch=1 n=f#6 v=0
49800 On ch=1 n=g#6 v=40
49800 On ch=1 n=d#6 v=40
49860 On ch=1 n=d#6 v=0
49860 On ch=1 n=g#6 v=0
49920 On ch=1 n=b6 v=40
49920 On ch=1 n=f#6 v=40
50000 On ch=1 n=f#6 v=0
50000 On ch=1 n=b6 v=0
50080 On ch=1 n=c#7 v=40
50080 On ch=1 n=g#6 v=40
50160 On ch=1 n=g#6 v=0
50160 On ch=1 n=c#7 v=0
50240 On ch=1 n=d#7 v=40
50240 On ch=1 n=b6 v=40
50320 On ch=1 n=b6 v=0
50320 On ch=1 n=d#7 v=0
50400 On ch=1 n=b4 v=0
50400 On ch=1 n=f#7 v=30
50400 On ch=1 n=c#7 v=30
50400 On ch=1 n=a#6 v=30
50400 On ch=1 n=f#6 v=30
53280 On ch=1 n=f#6 v=30
53340 On ch=1 n=f#7 v=30
53760 On ch=1 n=f#6 v=0
53760 On ch=1 n=f#7 v=0
55200 On ch=1 n=f#7 v=0
55200 On ch=1 n=f#6 v=0
55200 On ch=1 n=a#6 v=0
55200 On ch=1 n=c#7 v=0
55200 Meta TrkEnd
TrkEnd
MTrk
0 SeqSpec 43 00 01 00
0 Meta TrkName "Left Treble"
0 Meta 0x21 00
29280 On ch=1 n=d#5 v=70
29400 On ch=1 n=d#5 v=0
29400 On ch=1 n=f5 v=70
29520 On ch=1 n=f5 v=0
29520 On ch=1 n=g5 v=70
29640 On ch=1 n=g5 v=0
29640 On ch=1 n=a#5 v=70
29760 On ch=1 n=a#5 v=0
29760 On ch=1 n=b4 v=80
29760 On ch=1 n=d#5 v=80
29760 On ch=1 n=f#5 v=80
29760 On ch=1 n=b5 v=80
30480 On ch=1 n=b5 v=0
30480 On ch=1 n=f#5 v=0
30480 On ch=1 n=d#5 v=0
30480 On ch=1 n=b4 v=0
30480 On ch=1 n=c#6 v=80
30480 On ch=1 n=g#5 v=80
30480 On ch=1 n=f5 v=80
30480 On ch=1 n=c#5 v=80
30720 On ch=1 n=c#5 v=0
30720 On ch=1 n=f5 v=0
30720 On ch=1 n=g#5 v=0
30720 On ch=1 n=c#6 v=0
30720 On ch=1 n=d#5 v=80
30720 On ch=1 n=f#5 v=80
30720 On ch=1 n=a#5 v=80
30960 On ch=1 n=a#5 v=0
30960 On ch=1 n=f#5 v=0
30960 On ch=1 n=d#5 v=0
50400 On ch=1 n=f#4 v=30
50460 On ch=1 n=c#5 v=30
50520 On ch=1 n=f#5 v=30
50580 On ch=1 n=a#5 v=30
50640 On ch=1 n=c#6 v=30
51840 On ch=1 n=c#5 v=30
51900 On ch=1 n=c#6 v=30
52320 On ch=1 n=c#6 v=0
52320 On ch=1 n=c#5 v=0
55200 On ch=1 n=c#6 v=0
55200 On ch=1 n=c#5 v=0
55200 On ch=1 n=a#5 v=0
55200 On ch=1 n=f#5 v=0
55200 On ch=1 n=f#4 v=0
55200 Meta TrkEnd
TrkEnd
MTrk
0 SeqSpec 43 00 01 00
0 Meta TrkName "Left Bass"
0 Meta 0x21 00
2640 On ch=1 n=b3 v=60
2640 On ch=1 n=d#4 v=60
2880 On ch=1 n=d#4 v=0
2880 On ch=1 n=b3 v=0
2880 On ch=1 n=f#3 v=50
2880 On ch=1 n=c#4 v=50
5280 On ch=1 n=c#4 v=0
5280 On ch=1 n=f#3 v=0
5760 On ch=1 n=c#4 v=50
5760 On ch=1 n=g#4 v=50
6480 On ch=1 n=g#4 v=0
6480 On ch=1 n=c#4 v=0
6480 On ch=1 n=a#3 v=50
6480 On ch=1 n=f4 v=50
6480 On ch=1 n=a#4 v=50
6720 On ch=1 n=a#4 v=0
6720 On ch=1 n=f4 v=0
6720 On ch=1 n=a#3 v=0
6720 On ch=1 n=d#4 v=50
6720 On ch=1 n=a#4 v=50
6960 On ch=1 n=a#4 v=0
6960 On ch=1 n=d#4 v=0
6960 On ch=1 n=a#4 v=50
6960 On ch=1 n=f#4 v=50
7200 On ch=1 n=f#4 v=0
7200 On ch=1 n=a#4 v=0
7200 On ch=1 n=c#4 v=60
7200 On ch=1 n=g#4 v=60
7680 On ch=1 n=g#4 v=0
7680 On ch=1 n=c#4 v=0
7680 On ch=1 n=a#3 v=60
7680 On ch=1 n=f4 v=60
7680 On ch=1 n=a#4 v=60
8160 On ch=1 n=a#4 v=0
8160 On ch=1 n=f4 v=0
8160 On ch=1 n=a#3 v=0
8160 On ch=1 n=a#4 v=60
8160 On ch=1 n=g4 v=60
8160 On ch=1 n=a#3 v=60
8160 On ch=1 n=d#3 v=60
9120 On ch=1 n=d#3 v=0
9120 On ch=1 n=a#3 v=0
9120 On ch=1 n=g4 v=0
9120 On ch=1 n=a#4 v=0
10080 On ch=1 n=e4 v=60
10080 On ch=1 n=f#4 v=60
10080 On ch=1 n=a#4 v=60
11040 On ch=1 n=a#4 v=0
11040 On ch=1 n=f#4 v=0
11040 On ch=1 n=e4 v=0
11040 On ch=1 n=f#4 v=60
11040 On ch=1 n=g#4 v=60
11040 On ch=1 n=c5 v=60
11520 On ch=1 n=c5 v=0
11520 On ch=1 n=g#4 v=0
11520 On ch=1 n=f#4 v=0
11520 On ch=1 n=e4 v=60
11520 On ch=1 n=f#4 v=60
11520 On ch=1 n=a#4 v=60
12000 On ch=1 n=a#4 v=0
12000 On ch=1 n=f#4 v=0
12000 On ch=1 n=e4 v=0
12000 On ch=1 n=f#4 v=60
12000 On ch=1 n=g#4 v=60
12000 On ch=1 n=c5 v=60
12480 On ch=1 n=c5 v=0
12480 On ch=1 n=g#4 v=0
12480 On ch=1 n=f#4 v=0
12480 On ch=1 n=d#4 v=60
12720 On ch=1 n=c#3 v=60
12960 On ch=1 n=c#3 v=0
12960 On ch=1 n=d#4 v=0
12960 On ch=1 n=f#3 v=50
12960 On ch=1 n=c#4 v=50
14640 On ch=1 n=f4 v=50
14760 On ch=1 n=f4 v=0
14760 On ch=1 n=d#4 v=50
14880 On ch=1 n=d#4 v=0
14880 On ch=1 n=c#4 v=50
15480 On ch=1 n=c#4 v=0
15480 On ch=1 n=b3 v=50
15600 On ch=1 n=b3 v=0
15600 On ch=1 n=a#3 v=50
15720 On ch=1 n=a#3 v=0
15720 On ch=1 n=g#3 v=50
15840 On ch=1 n=g#3 v=0
15840 On ch=1 n=c#4 v=0
15840 On ch=1 n=f#3 v=0
15840 On ch=1 n=c#4 v=60
15840 On ch=1 n=f#2 v=60
15840 On ch=1 n=c#3 v=60
15840 On ch=1 n=f#3 v=60
15880 On ch=1 n=g#4 v=60
17280 On ch=1 n=g#4 v=0
17280 On ch=1 n=f#3 v=0
17280 On ch=1 n=c#3 v=0
17280 On ch=1 n=c#4 v=0
17280 On ch=1 n=c#5 v=60
17280 On ch=1 n=a#4 v=60
17280 On ch=1 n=f#4 v=60
17280 On ch=1 n=c#4 v=60
18240 On ch=1 n=f#2 v=0
18240 On ch=1 n=f#2 v=60
18720 On ch=1 n=f#2 v=0
18720 On ch=1 n=c#4 v=0
18720 On ch=1 n=f#4 v=0
18720 On ch=1 n=a#4 v=0
18720 On ch=1 n=c#5 v=0
18720 On ch=1 n=f#4 v=50
18720 On ch=1 n=b4 v=50
19080 On ch=1 n=b4 v=0
19080 On ch=1 n=f#4 v=0
19080 On ch=1 n=g#4 v=50
19080 On ch=1 n=c#5 v=50
19200 On ch=1 n=c#5 v=0
19200 On ch=1 n=g#4 v=0
19200 On ch=1 n=f#4 v=50
19200 On ch=1 n=b4 v=50
19560 On ch=1 n=b4 v=0
19560 On ch=1 n=f#4 v=0
19560 On ch=1 n=f4 v=50
19560 On ch=1 n=a#4 v=50
19680 On ch=1 n=a#4 v=0
19680 On ch=1 n=f4 v=0
19680 On ch=1 n=d#4 v=50
19680 On ch=1 n=g#4 v=50
20040 On ch=1 n=g#4 v=0
20040 On ch=1 n=d#4 v=0
20040 On ch=1 n=c#4 v=50
20040 On ch=1 n=f#4 v=50
20160 On ch=1 n=f#4 v=0
20160 On ch=1 n=c#4 v=0
20160 On ch=1 n=b3 v=50
20160 On ch=1 n=e4 v=50
20640 On ch=1 n=f#2 v=50
21540 On ch=1 n=b2 v=60
21600 On ch=1 n=f#2 v=0
21600 On ch=1 n=e4 v=0
21600 On ch=1 n=b3 v=0
21600 On ch=1 n=f#5 v=60
21600 On ch=1 n=d#5 v=60
21600 On ch=1 n=b4 v=60
21600 On ch=1 n=f#4 v=60
23040 On ch=1 n=f#4 v=0
23040 On ch=1 n=b4 v=0
23040 On ch=1 n=d#5 v=0
23040 On ch=1 n=f#5 v=0
23040 On ch=1 n=b2 v=0
23040 On ch=1 n=f#5 v=55
23040 On ch=1 n=d#5 v=55
23040 On ch=1 n=g#4 v=55
23520 On ch=1 n=g#4 v=0
23520 On ch=1 n=d#5 v=0
23520 On ch=1 n=f#5 v=0
23520 On ch=1 n=c#4 v=55
23520 On ch=1 n=g#4 v=55
23520 On ch=1 n=b4 v=55
24480 On ch=1 n=b4 v=0
24480 On ch=1 n=g#4 v=0
24480 On ch=1 n=c#4 v=0
24480 On ch=1 n=g#3 v=50
24480 On ch=1 n=d#4 v=50
24480 On ch=1 n=f#4 v=50
24960 On ch=1 n=f#4 v=0
24960 On ch=1 n=d#4 v=0
24960 On ch=1 n=g#3 v=0
24960 On ch=1 n=a#3 v=50
24960 On ch=1 n=a#4 v=50
24960 On ch=1 n=f4 v=50
24960 On ch=1 n=g#4 v=50
24960 On ch=1 n=a#2 v=50
25200 On ch=1 n=a#3 v=0
25440 On ch=1 n=a#3 v=50
25920 On ch=1 n=a#2 v=0
25920 On ch=1 n=g#4 v=0
25920 On ch=1 n=f4 v=0
25920 On ch=1 n=a#4 v=0
25920 On ch=1 n=d#3 v=60
26160 On ch=1 n=a#3 v=0
26160 On ch=1 n=a#3 v=60
26280 On ch=1 n=c4 v=60
26400 On ch=1 n=c4 v=0
26400 On ch=1 n=d#4 v=60
26520 On ch=1 n=d#4 v=0
27360 On ch=1 n=d#3 v=0
27360 On ch=1 n=d#3 v=60
27600 On ch=1 n=a#3 v=0
27600 On ch=1 n=a#3 v=60
27720 On ch=1 n=a#3 v=0
27720 On ch=1 n=c4 v=60
27840 On ch=1 n=c4 v=0
27840 On ch=1 n=d#4 v=60
27960 On ch=1 n=d#4 v=0
27960 On ch=1 n=f4 v=60
28080 On ch=1 n=f4 v=0
28080 On ch=1 n=g4 v=60
28200 On ch=1 n=g4 v=0
28200 On ch=1 n=a#4 v=60
28320 On ch=1 n=d#3 v=0
28320 On ch=1 n=d#4 v=70
28560 On ch=1 n=d#5 v=70
28680 On ch=1 n=d#5 v=0
28680 On ch=1 n=c5 v=70
28800 On ch=1 n=c5 v=0
28800 On ch=1 n=d#4 v=0
28800 On ch=1 n=a#4 v=0
28800 On ch=1 n=d#4 v=70
28800 On ch=1 n=a#4 v=70
28800 On ch=1 n=d#5 v=70
29040 On ch=1 n=d#5 v=0
29040 On ch=1 n=a#4 v=0
29040 On ch=1 n=d#4 v=0
29040 On ch=1 n=a#4 v=70
29160 On ch=1 n=a#4 v=0
29160 On ch=1 n=c5 v=70
29280 On ch=1 n=c5 v=0
30960 On ch=1 n=d#5 v=80
30960 On ch=1 n=c5 v=80
30960 On ch=1 n=g#4 v=80
30960 On ch=1 n=d#4 v=80
31200 On ch=1 n=g#3 v=80
31680 On ch=1 n=g#3 v=0
31680 On ch=1 n=d#4 v=0
31680 On ch=1 n=g#4 v=0
31680 On ch=1 n=c5 v=0
31680 On ch=1 n=d#5 v=0
31680 On ch=1 n=b3 v=60
31680 On ch=1 n=f#4 v=60
31680 On ch=1 n=b4 v=60
31920 On ch=1 n=b4 v=0
31920 On ch=1 n=f#4 v=0
31920 On ch=1 n=b3 v=0
31920 On ch=1 n=c#5 v=60
31920 On ch=1 n=g#4 v=60
31920 On ch=1 n=c#4 v=60
32160 On ch=1 n=c#4 v=0
32160 On ch=1 n=g#4 v=0
32160 On ch=1 n=c#5 v=0
32160 On ch=1 n=d#4 v=60
32160 On ch=1 n=a#4 v=60
32400 On ch=1 n=a#4 v=0
32400 On ch=1 n=d#4 v=0
32400 On ch=1 n=c5 v=60
32400 On ch=1 n=g#4 v=60
32880 On ch=1 n=g#4 v=0
32880 On ch=1 n=c5 v=0
32880 On ch=1 n=c#4 v=60
33120 On ch=1 n=a#4 v=40
33120 On ch=1 n=f#3 v=40
33480 On ch=1 n=f#3 v=0
33480 On ch=1 n=a#4 v=0
33480 On ch=1 n=c#4 v=0
33480 On ch=1 n=f#3 v=40
33480 On ch=1 n=c#4 v=40
33480 On ch=1 n=f#4 v=40
33600 On ch=1 n=f#4 v=0
33600 On ch=1 n=c#4 v=0
33600 On ch=1 n=f#3 v=0
33600 On ch=1 n=d#4 v=40
33600 On ch=1 n=c#3 v=40
33600 On ch=1 n=f#3 v=40
33840 On ch=1 n=f#3 v=0
33840 On ch=1 n=c#3 v=0
33840 On ch=1 n=d#4 v=0
33840 On ch=1 n=f#4 v=40
33840 On ch=1 n=d#3 v=40
33840 On ch=1 n=a#3 v=40
34080 On ch=1 n=a#3 v=0
34080 On ch=1 n=d#3 v=0
34080 On ch=1 n=f#4 v=0
34080 On ch=1 n=a#4 v=40
34080 On ch=1 n=f#3 v=40
34080 On ch=1 n=c#4 v=40
34320 On ch=1 n=c#4 v=0
34320 On ch=1 n=f#3 v=0
34320 On ch=1 n=a#4 v=0
34320 On ch=1 n=c#5 v=40
34320 On ch=1 n=a#3 v=40
34320 On ch=1 n=d#4 v=40
34560 On ch=1 n=d#4 v=0
34560 On ch=1 n=a#3 v=0
34560 On ch=1 n=c#5 v=0
34560 On ch=1 n=f#3 v=40
34560 On ch=1 n=c#4 v=40
34560 On ch=1 n=a#4 v=40
34800 On ch=1 n=a#4 v=0
34800 On ch=1 n=c#4 v=0
34800 On ch=1 n=f#3 v=0
34800 On ch=1 n=d#3 v=40
34800 On ch=1 n=a#3 v=40
34800 On ch=1 n=f#4 v=40
35040 On ch=1 n=f#4 v=0
35040 On ch=1 n=a#3 v=0
35040 On ch=1 n=d#3 v=0
35040 On ch=1 n=b2 v=40
35040 On ch=1 n=f#3 v=40
35040 On ch=1 n=d#4 v=40
35040 On ch=1 n=a#4 v=40
35520 On ch=1 n=a#4 v=0
35520 On ch=1 n=d#4 v=0
35520 On ch=1 n=f#3 v=0
35520 On ch=1 n=b2 v=0
35520 On ch=1 n=c#3 v=40
35520 On ch=1 n=g#3 v=40
35520 On ch=1 n=f#4 v=40
35520 On ch=1 n=b4 v=40
36000 On ch=1 n=b4 v=0
36000 On ch=1 n=f#4 v=0
36000 On ch=1 n=g#3 v=0
36000 On ch=1 n=c#3 v=0
36000 On ch=1 n=f#3 v=60
36000 On ch=1 n=c#4 v=60
36000 On ch=1 n=a#4 v=60
36360 On ch=1 n=a#4 v=0
36360 On ch=1 n=c#4 v=0
36360 On ch=1 n=f#3 v=0
36360 On ch=1 n=a#3 v=60
36360 On ch=1 n=d#4 v=60
36360 On ch=1 n=f#4 v=60
36480 On ch=1 n=f#4 v=0
36480 On ch=1 n=d#4 v=0
36480 On ch=1 n=a#3 v=0
36480 On ch=1 n=c#4 v=60
36480 On ch=1 n=f#4 v=60
36480 On ch=1 n=a#4 v=60
36720 On ch=1 n=a#4 v=0
36720 On ch=1 n=f#4 v=0
36720 On ch=1 n=c#4 v=0
36720 On ch=1 n=c#4 v=60
36720 On ch=1 n=a#4 v=60
36960 On ch=1 n=a#4 v=0
36960 On ch=1 n=c#4 v=0
36960 On ch=1 n=c#5 v=60
36960 On ch=1 n=f#4 v=60
37200 On ch=1 n=f#4 v=0
37200 On ch=1 n=c#5 v=0
37200 On ch=1 n=d#5 v=60
37200 On ch=1 n=a#4 v=60
37440 On ch=1 n=a#4 v=0
37440 On ch=1 n=d#5 v=0
37440 On ch=1 n=f#5 v=60
37440 On ch=1 n=c#5 v=60
37680 On ch=1 n=c#5 v=0
37680 On ch=1 n=f#5 v=0
37680 On ch=1 n=a#4 v=60
37680 On ch=1 n=d#5 v=60
37920 On ch=1 n=d#5 v=0
37920 On ch=1 n=a#4 v=0
37920 On ch=1 n=g#3 v=60
37920 On ch=1 n=d#4 v=60
37920 On ch=1 n=f#4 v=60
38400 On ch=1 n=f#4 v=0
38400 On ch=1 n=d#4 v=0
38400 On ch=1 n=g#3 v=0
38400 On ch=1 n=f4 v=60
38400 On ch=1 n=c#4 v=60
38880 On ch=1 n=c#4 v=0
38880 On ch=1 n=f4 v=0
38880 On ch=1 n=b2 v=40
38880 On ch=1 n=f#3 v=40
38880 On ch=1 n=b3 v=40
41760 On ch=1 n=b3 v=0
41760 On ch=1 n=f#3 v=0
41760 On ch=1 n=f#5 v=50
41760 On ch=1 n=d#5 v=50
41760 On ch=1 n=b4 v=50
41760 On ch=1 n=f#4 v=50
42720 On ch=1 n=g#5 v=50
43200 On ch=1 n=g#5 v=0
43200 On ch=1 n=f#4 v=0
43200 On ch=1 n=b4 v=0
43200 On ch=1 n=d#5 v=0
43200 On ch=1 n=f#5 v=0
43200 On ch=1 n=b2 v=0
43200 On ch=1 n=d#3 v=50
43200 On ch=1 n=a#3 v=50
43200 On ch=1 n=f#4 v=50
43200 On ch=1 n=a#4 v=50
43200 On ch=1 n=d#5 v=50
44640 On ch=1 n=d#5 v=0
44640 On ch=1 n=a#4 v=0
44640 On ch=1 n=f#4 v=0
44640 On ch=1 n=a#3 v=0
44640 On ch=1 n=d#3 v=0
44640 On ch=1 n=a#4 v=50
44640 On ch=1 n=c#4 v=50
44640 On ch=1 n=f#3 v=50
46080 On ch=1 n=f#3 v=0
46080 On ch=1 n=c#4 v=0
46080 On ch=1 n=a#4 v=0
46080 On ch=1 n=f#4 v=40
46080 On ch=1 n=b4 v=40
46440 On ch=1 n=b4 v=0
46440 On ch=1 n=f#4 v=0
46440 On ch=1 n=g#4 v=40
46440 On ch=1 n=c#5 v=40
46560 On ch=1 n=c#5 v=0
46560 On ch=1 n=g#4 v=0
46560 On ch=1 n=b4 v=40
46560 On ch=1 n=f#4 v=40
46920 On ch=1 n=f#4 v=0
46920 On ch=1 n=b4 v=0
46920 On ch=1 n=f4 v=40
46920 On ch=1 n=a#4 v=40
47040 On ch=1 n=a#4 v=0
47040 On ch=1 n=f4 v=0
47040 On ch=1 n=d#4 v=40
47040 On ch=1 n=g#4 v=40
47400 On ch=1 n=g#4 v=0
47400 On ch=1 n=d#4 v=0
47400 On ch=1 n=c#4 v=40
47400 On ch=1 n=f#4 v=40
47520 On ch=1 n=f#4 v=0
47520 On ch=1 n=c#4 v=0
47520 On ch=1 n=b3 v=40
47520 On ch=1 n=f4 v=40
47880 On ch=1 n=f4 v=0
47880 On ch=1 n=b3 v=0
47880 On ch=1 n=c#4 v=40
47880 On ch=1 n=f#4 v=40
48000 On ch=1 n=f#4 v=0
48000 On ch=1 n=c#4 v=0
48000 On ch=1 n=g#4 v=40
48000 On ch=1 n=d#4 v=40
48360 On ch=1 n=d#4 v=0
48360 On ch=1 n=g#4 v=0
48360 On ch=1 n=c#4 v=40
48360 On ch=1 n=f#4 v=40
48480 On ch=1 n=f#4 v=0
48480 On ch=1 n=c#4 v=0
48480 On ch=1 n=b3 v=40
48480 On ch=1 n=f4 v=40
48840 On ch=1 n=f4 v=0
48840 On ch=1 n=b3 v=0
48840 On ch=1 n=c#4 v=40
48840 On ch=1 n=f#4 v=40
48960 On ch=1 n=f#4 v=0
48960 On ch=1 n=c#4 v=0
48960 On ch=1 n=d#4 v=40
48960 On ch=1 n=g#4 v=40
50400 On ch=1 n=g#4 v=0
50400 On ch=1 n=d#4 v=0
50400 Meta TrkEnd
TrkEnd
MTrk
0 SeqSpec 43 00 01 00
0 Meta TrkName "Pedal"
0 Meta 0x21 00
2880 Par ch=1 c=64 v=127
5280 Par ch=1 c=64 v=0
5760 Par ch=1 c=64 v=127
6120 Par ch=1 c=64 v=0
6240 Par ch=1 c=64 v=127
6600 Par ch=1 c=64 v=0
6720 Par ch=1 c=64 v=127
7080 Par ch=1 c=64 v=0
7200 Par ch=1 c=64 v=127
7560 Par ch=1 c=64 v=0
7680 Par ch=1 c=64 v=127
8040 Par ch=1 c=64 v=0
8160 Par ch=1 c=64 v=127
9120 Par ch=1 c=64 v=0
10080 Par ch=1 c=64 v=127
10440 Par ch=1 c=64 v=0
10560 Par ch=1 c=64 v=127
10920 Par ch=1 c=64 v=0
11040 Par ch=1 c=64 v=127
11400 Par ch=1 c=64 v=0
11520 Par ch=1 c=64 v=127
11880 Par ch=1 c=64 v=0
12000 Par ch=1 c=64 v=127
12360 Par ch=1 c=64 v=0
12480 Par ch=1 c=64 v=127
12840 Par ch=1 c=64 v=0
12960 Par ch=1 c=64 v=127
14280 Par ch=1 c=64 v=0
14400 Par ch=1 c=64 v=127
15720 Par ch=1 c=64 v=0
15840 Par ch=1 c=64 v=127
16200 Par ch=1 c=64 v=0
16320 Par ch=1 c=64 v=127
16680 Par ch=1 c=64 v=0
16800 Par ch=1 c=64 v=127
17160 Par ch=1 c=64 v=0
17280 Par ch=1 c=64 v=127
17640 Par ch=1 c=64 v=0
17760 Par ch=1 c=64 v=127
18120 Par ch=1 c=64 v=0
18240 Par ch=1 c=64 v=127
18600 Par ch=1 c=64 v=0
18720 Par ch=1 c=64 v=127
19080 Par ch=1 c=64 v=0
19200 Par ch=1 c=64 v=127
19560 Par ch=1 c=64 v=0
19680 Par ch=1 c=64 v=127
20040 Par ch=1 c=64 v=0
20160 Par ch=1 c=64 v=127
21480 Par ch=1 c=64 v=0
21600 Par ch=1 c=64 v=127
22920 Par ch=1 c=64 v=0
23040 Par ch=1 c=64 v=127
23400 Par ch=1 c=64 v=0
23520 Par ch=1 c=64 v=127
24360 Par ch=1 c=64 v=0
24480 Par ch=1 c=64 v=127
24840 Par ch=1 c=64 v=0
24960 Par ch=1 c=64 v=127
25800 Par ch=1 c=64 v=0
25920 Par ch=1 c=64 v=127
26280 Par ch=1 c=64 v=0
26400 Par ch=1 c=64 v=127
26760 Par ch=1 c=64 v=0
26880 Par ch=1 c=64 v=127
27240 Par ch=1 c=64 v=0
27360 Par ch=1 c=64 v=127
27720 Par ch=1 c=64 v=0
27840 Par ch=1 c=64 v=127
28200 Par ch=1 c=64 v=0
28320 Par ch=1 c=64 v=127
28680 Par ch=1 c=64 v=0
28800 Par ch=1 c=64 v=127
29160 Par ch=1 c=64 v=0
29280 Par ch=1 c=64 v=127
29640 Par ch=1 c=64 v=0
29760 Par ch=1 c=64 v=127
30120 Par ch=1 c=64 v=0
30240 Par ch=1 c=64 v=127
30600 Par ch=1 c=64 v=0
30720 Par ch=1 c=64 v=127
31080 Par ch=1 c=64 v=0
31200 Par ch=1 c=64 v=127
31560 Par ch=1 c=64 v=0
31680 Par ch=1 c=64 v=127
32040 Par ch=1 c=64 v=0
32160 Par ch=1 c=64 v=127
32520 Par ch=1 c=64 v=0
32640 Par ch=1 c=64 v=127
33000 Par ch=1 c=64 v=0
33120 Par ch=1 c=64 v=127
33480 Par ch=1 c=64 v=0
33600 Par ch=1 c=64 v=127
33960 Par ch=1 c=64 v=0
34080 Par ch=1 c=64 v=127
34440 Par ch=1 c=64 v=0
34560 Par ch=1 c=64 v=127
34920 Par ch=1 c=64 v=0
35040 Par ch=1 c=64 v=127
35400 Par ch=1 c=64 v=0
35520 Par ch=1 c=64 v=127
35880 Par ch=1 c=64 v=0
36000 Par ch=1 c=64 v=127
36360 Par ch=1 c=64 v=0
36480 Par ch=1 c=64 v=127
36840 Par ch=1 c=64 v=0
36960 Par ch=1 c=64 v=127
37320 Par ch=1 c=64 v=0
37440 Par ch=1 c=64 v=127
37800 Par ch=1 c=64 v=0
37920 Par ch=1 c=64 v=127
38280 Par ch=1 c=64 v=0
38400 Par ch=1 c=64 v=127
38760 Par ch=1 c=64 v=0
38880 Par ch=1 c=64 v=127
41640 Par ch=1 c=64 v=0
41760 Par ch=1 c=64 v=127
42600 Par ch=1 c=64 v=0
42720 Par ch=1 c=64 v=127
43080 Par ch=1 c=64 v=0
43200 Par ch=1 c=64 v=127
43560 Par ch=1 c=64 v=0
43680 Par ch=1 c=64 v=127
44040 Par ch=1 c=64 v=0
44160 Par ch=1 c=64 v=127
44520 Par ch=1 c=64 v=0
44640 Par ch=1 c=64 v=127
45960 Par ch=1 c=64 v=0
46080 Par ch=1 c=64 v=127
46440 Par ch=1 c=64 v=0
46560 Par ch=1 c=64 v=127
46920 Par ch=1 c=64 v=0
47040 Par ch=1 c=64 v=127
47400 Par ch=1 c=64 v=0
47520 Par ch=1 c=64 v=127
47880 Par ch=1 c=64 v=0
48000 Par ch=1 c=64 v=127
48360 Par ch=1 c=64 v=0
48480 Par ch=1 c=64 v=127
48840 Par ch=1 c=64 v=0
48960 Par ch=1 c=64 v=127
49320 Par ch=1 c=64 v=0
49440 Par ch=1 c=64 v=127
49800 Par ch=1 c=64 v=0
49920 Par ch=1 c=64 v=127
50280 Par ch=1 c=64 v=0
50400 Par ch=1 c=64 v=127
55200 Par ch=1 c=64 v=0
55200 Meta TrkEnd
TrkEnd
MTrk
0 SeqSpec 43 00 01 00
0 Meta TrkName "Debussy, Claude"
0 Meta 0x21 00
0 Meta TrkEnd
TrkEnd
MTrk
0 SeqSpec 43 00 01 00
0 Meta TrkName "Prelude Book 1 No. 08 La fille aux cheveux de lin"
0 Meta 0x21 00
0 Meta TrkEnd
TrkEnd
MTrk
0 SeqSpec 43 00 01 00
0 Meta TrkName "Jeruen E. Dery jawjaw@hotmail.com"
0 Meta 0x21 00
0 Meta TrkEnd
TrkEnd
