MFile 1 9 480
MTrk
0 TimeSig 2/4 24 8
0 KeySig 5 major
0 Tempo 1500000
1920 Tempo 652174
3840 Tempo 1500000
5760 Tempo 681818
6720 Tempo 666667
7680 Tempo 652174
15360 TimeSig 1/4 24 8
15840 TimeSig 2/4 24 8
28680 Tempo 685745
29280 Tempo 652174
30240 Tempo 789474
30720 Tempo 672957
31200 Tempo 652174
34080 Tempo 789474
34560 Tempo 672957
35040 Tempo 652174
40080 Tempo 1111111
40320 Tempo 652174
41760 Tempo 714286
42720 Tempo 750000
43680 Tempo 789474
44640 Tempo 833333
45600 Tempo 685745
51360 Tempo 952381
59040 Tempo 1200000
60000 Tempo 1333333
60960 Tempo 1500000
61760 Tempo 3333333
61920 Tempo 652174
65760 TimeSig 1/4 24 8
66240 TimeSig 2/4 24 8
75360 Tempo 685745
75840 Tempo 652174
78960 Tempo 1111111
79200 Tempo 652174
79680 Tempo 789474
80160 Tempo 672957
80640 Tempo 652174
88320 Tempo 714286
89280 TimeSig 3/4 24 8
89760 Tempo 1111111
90720 TimeSig 2/4 24 8
90720 Meta TrkEnd
TrkEnd
MTrk
0 SeqSpec 43 00 01 00
0 Meta TrkName "Right Treble"
0 Meta 0x21 00
160 On ch=1 n=f#5 v=40
240 On ch=1 n=f#5 v=0
480 On ch=1 n=e5 v=40
560 On ch=1 n=e5 v=0
800 On ch=1 n=b5 v=40
880 On ch=1 n=b5 v=0
2080 On ch=1 n=f#7 v=40
2120 On ch=1 n=f#7 v=0
2160 On ch=1 n=b6 v=40
2160 On ch=1 n=g#6 v=40
2160 On ch=1 n=f#7 v=40
2200 On ch=1 n=f#7 v=0
2240 On ch=1 n=e7 v=40
2280 On ch=1 n=e7 v=0
2320 On ch=1 n=d#7 v=40
2360 On ch=1 n=d#7 v=0
2400 On ch=1 n=g#6 v=0
2400 On ch=1 n=b6 v=0
2400 On ch=1 n=c#7 v=40
2400 On ch=1 n=e6 v=40
2400 On ch=1 n=g#6 v=40
2440 On ch=1 n=c#7 v=0
2560 On ch=1 n=b6 v=40
2640 On ch=1 n=b6 v=0
2640 On ch=1 n=g#6 v=40
2880 On ch=1 n=g#6 v=0
2880 On ch=1 n=e6 v=0
3000 On ch=1 n=b6 v=40
3040 On ch=1 n=c#7 v=40
3080 On ch=1 n=e7 v=40
3120 On ch=1 n=g#6 v=0
3120 On ch=1 n=a#7 v=40
3240 On ch=1 n=b6 v=0
3280 On ch=1 n=c#7 v=0
3320 On ch=1 n=e7 v=0
3360 On ch=1 n=a#7 v=0
4000 On ch=1 n=f#5 v=40
4080 On ch=1 n=f#5 v=0
4320 On ch=1 n=e5 v=40
4400 On ch=1 n=e5 v=0
4640 On ch=1 n=b5 v=40
4720 On ch=1 n=b5 v=0
4960 On ch=1 n=f#5 v=40
5040 On ch=1 n=f#5 v=0
5120 On ch=1 n=c#5 v=40
5200 On ch=1 n=c#5 v=0
5280 On ch=1 n=e5 v=40
5360 On ch=1 n=e5 v=0
5440 On ch=1 n=g#5 v=40
5520 On ch=1 n=g#5 v=0
5600 On ch=1 n=b5 v=40
5680 On ch=1 n=b5 v=0
6360 On ch=1 n=b6 v=60
6400 On ch=1 n=c#7 v=60
6440 On ch=1 n=e7 v=60
6480 On ch=1 n=b6 v=0
6480 On ch=1 n=a#7 v=60
6520 On ch=1 n=c#7 v=0
6560 On ch=1 n=e7 v=0
6600 On ch=1 n=a#7 v=0
6840 On ch=1 n=b6 v=60
6880 On ch=1 n=c#7 v=60
6920 On ch=1 n=e7 v=60
6960 On ch=1 n=b6 v=0
6960 On ch=1 n=a#7 v=60
7000 On ch=1 n=c#7 v=0
7040 On ch=1 n=e7 v=0
7080 On ch=1 n=a#7 v=0
7320 On ch=1 n=b6 v=70
7360 On ch=1 n=c#7 v=70
7400 On ch=1 n=e7 v=70
7440 On ch=1 n=b6 v=0
7440 On ch=1 n=a#7 v=70
7480 On ch=1 n=c#7 v=0
7520 On ch=1 n=e7 v=0
7560 On ch=1 n=a#7 v=0
7800 On ch=1 n=b6 v=80
7840 On ch=1 n=d7 v=80
7880 On ch=1 n=f7 v=80
7920 On ch=1 n=a#7 v=80
8040 On ch=1 n=b6 v=0
8080 On ch=1 n=d7 v=0
8120 On ch=1 n=f7 v=0
8160 On ch=1 n=a#7 v=0
8280 On ch=1 n=b6 v=90
8320 On ch=1 n=d7 v=90
8360 On ch=1 n=f7 v=90
8400 On ch=1 n=a#7 v=90
8520 On ch=1 n=b6 v=0
8560 On ch=1 n=d7 v=0
8600 On ch=1 n=f7 v=0
8640 On ch=1 n=a#7 v=0
8800 On ch=1 n=c#7 v=100
8880 On ch=1 n=c#7 v=0
8880 On ch=1 n=d#6 v=100
8880 On ch=1 n=f#6 v=100
8880 On ch=1 n=c#7 v=100
8960 On ch=1 n=c#7 v=0
8960 On ch=1 n=b6 v=100
9040 On ch=1 n=b6 v=0
9040 On ch=1 n=a#6 v=100
9120 On ch=1 n=a#6 v=0
9120 On ch=1 n=f#6 v=0
9120 On ch=1 n=d#6 v=0
9120 On ch=1 n=c#6 v=110
9120 On ch=1 n=d#6 v=110
9120 On ch=1 n=g#6 v=110
9160 On ch=1 n=g#6 v=0
9280 On ch=1 n=f#6 v=110
9360 On ch=1 n=f#6 v=0
9360 On ch=1 n=d#6 v=0
9360 On ch=1 n=c#6 v=0
9360 On ch=1 n=b5 v=110
9360 On ch=1 n=d#6 v=110
9680 On ch=1 n=d#6 v=0
9680 On ch=1 n=b5 v=0
9760 On ch=1 n=c#7 v=90
9760 On ch=1 n=f#6 v=90
9800 On ch=1 n=f#6 v=0
9800 On ch=1 n=c#7 v=0
9840 On ch=1 n=d#6 v=60
9840 On ch=1 n=g#6 v=60
9880 On ch=1 n=g#6 v=0
9880 On ch=1 n=d#6 v=0
10000 On ch=1 n=f#5 v=60
10000 On ch=1 n=c#6 v=60
10040 On ch=1 n=c#6 v=0
10040 On ch=1 n=f#5 v=0
10080 On ch=1 n=d#5 v=60
10080 On ch=1 n=g#5 v=60
10120 On ch=1 n=g#5 v=0
10120 On ch=1 n=d#5 v=0
10560 On ch=1 n=d#5 v=80
10680 On ch=1 n=d#5 v=0
12640 On ch=1 n=g#6 v=60
12680 On ch=1 n=g#6 v=0
12720 On ch=1 n=g#6 v=60
12760 On ch=1 n=g#6 v=0
12800 On ch=1 n=a#6 v=60
12840 On ch=1 n=a#6 v=0
12880 On ch=1 n=g#6 v=60
12920 On ch=1 n=g#6 v=0
12960 On ch=1 n=a#6 v=60
13000 On ch=1 n=a#6 v=0
13120 On ch=1 n=b6 v=60
13200 On ch=1 n=b6 v=0
13200 On ch=1 n=c#7 v=60
13600 On ch=1 n=c#7 v=0
13600 On ch=1 n=b6 v=60
13640 On ch=1 n=b6 v=0
13680 On ch=1 n=c#7 v=60
13720 On ch=1 n=c#7 v=0
13760 On ch=1 n=b6 v=60
13800 On ch=1 n=b6 v=0
13840 On ch=1 n=a#6 v=60
13880 On ch=1 n=a#6 v=0
13920 On ch=1 n=a#6 v=60
13960 On ch=1 n=a#6 v=0
14080 On ch=1 n=g#6 v=60
14160 On ch=1 n=g#6 v=0
14160 On ch=1 n=a#6 v=60
14560 On ch=1 n=a#6 v=0
14560 On ch=1 n=g#6 v=60
14640 On ch=1 n=g#6 v=0
14640 On ch=1 n=a#6 v=60
14800 On ch=1 n=a#6 v=0
14800 On ch=1 n=g#6 v=60
14880 On ch=1 n=g#6 v=0
14880 On ch=1 n=f#6 v=60
15040 On ch=1 n=f#6 v=0
15040 On ch=1 n=g#6 v=60
15120 On ch=1 n=g#6 v=0
15120 On ch=1 n=f#6 v=60
15280 On ch=1 n=f#6 v=0
15280 On ch=1 n=d#6 v=60
15360 On ch=1 n=d#6 v=0
15360 On ch=1 n=c#6 v=60
15520 On ch=1 n=c#6 v=0
15520 On ch=1 n=d#6 v=60
15600 On ch=1 n=d#6 v=0
15600 On ch=1 n=c#6 v=60
15760 On ch=1 n=c#6 v=0
15760 On ch=1 n=a#5 v=60
15840 On ch=1 n=a#5 v=0
15840 On ch=1 n=g#5 v=70
16080 On ch=1 n=g#5 v=0
16080 On ch=1 n=a#5 v=70
16120 On ch=1 n=a#5 v=0
16240 On ch=1 n=c#6 v=70
16320 On ch=1 n=c#6 v=0
16320 On ch=1 n=d#6 v=60
16560 On ch=1 n=d#6 v=0
16560 On ch=1 n=c#6 v=60
16600 On ch=1 n=c#6 v=0
16720 On ch=1 n=a#5 v=60
16800 On ch=1 n=a#5 v=0
16800 On ch=1 n=g#5 v=70
17040 On ch=1 n=g#5 v=0
17040 On ch=1 n=a#5 v=70
17120 On ch=1 n=a#5 v=0
17120 On ch=1 n=c#6 v=70
17200 On ch=1 n=c#6 v=0
17200 On ch=1 n=d#6 v=70
17280 On ch=1 n=d#6 v=0
17280 On ch=1 n=f#6 v=60
17340 On ch=1 n=f#6 v=0
17400 On ch=1 n=d#6 v=60
17460 On ch=1 n=d#6 v=0
17520 On ch=1 n=c#6 v=60
17580 On ch=1 n=c#6 v=0
17640 On ch=1 n=a#5 v=60
17700 On ch=1 n=a#5 v=0
17760 On ch=1 n=g#5 v=50
18000 On ch=1 n=g#5 v=0
18000 On ch=1 n=a#5 v=50
18160 On ch=1 n=a#5 v=0
18160 On ch=1 n=c#6 v=50
18240 On ch=1 n=c#6 v=0
18240 On ch=1 n=g#5 v=50
18480 On ch=1 n=g#5 v=0
18480 On ch=1 n=a#5 v=50
18640 On ch=1 n=a#5 v=0
18640 On ch=1 n=g#5 v=50
18720 On ch=1 n=g#5 v=0
18720 On ch=1 n=f#4 v=40
18800 On ch=1 n=f#4 v=0
18800 On ch=1 n=f#5 v=40
18880 On ch=1 n=f#5 v=0
18960 On ch=1 n=f#5 v=40
19040 On ch=1 n=f#5 v=0
19040 On ch=1 n=f#4 v=40
19120 On ch=1 n=f#4 v=0
19120 On ch=1 n=f#5 v=40
19200 On ch=1 n=f#5 v=0
19200 On ch=1 n=f#4 v=40
19280 On ch=1 n=f#4 v=0
19280 On ch=1 n=f#5 v=40
19360 On ch=1 n=f#5 v=0
19360 On ch=1 n=f#4 v=40
19440 On ch=1 n=f#4 v=0
19440 On ch=1 n=f#5 v=40
19520 On ch=1 n=f#5 v=0
19520 On ch=1 n=f#4 v=40
19600 On ch=1 n=f#4 v=0
19600 On ch=1 n=f#5 v=40
19680 On ch=1 n=f#5 v=0
19680 On ch=1 n=f#4 v=40
19760 On ch=1 n=f#4 v=0
19760 On ch=1 n=f#5 v=40
19840 On ch=1 n=f#5 v=0
19840 On ch=1 n=f#4 v=40
19920 On ch=1 n=f#4 v=0
19920 On ch=1 n=f#5 v=40
20000 On ch=1 n=f#5 v=0
20000 On ch=1 n=f#4 v=40
20080 On ch=1 n=f#4 v=0
20080 On ch=1 n=f#5 v=40
20160 On ch=1 n=f#5 v=0
20160 On ch=1 n=f#4 v=40
20240 On ch=1 n=f#4 v=0
20240 On ch=1 n=f#5 v=40
20320 On ch=1 n=f#5 v=0
20320 On ch=1 n=f#4 v=40
20400 On ch=1 n=f#4 v=0
20400 On ch=1 n=f#5 v=40
20480 On ch=1 n=f#5 v=0
20480 On ch=1 n=f#4 v=40
20560 On ch=1 n=f#4 v=0
20560 On ch=1 n=f#5 v=40
20640 On ch=1 n=f#5 v=0
20640 On ch=1 n=f#4 v=40
20720 On ch=1 n=f#4 v=0
20720 On ch=1 n=f#5 v=40
20800 On ch=1 n=f#5 v=0
20880 On ch=1 n=f#5 v=40
20960 On ch=1 n=f#5 v=0
20960 On ch=1 n=f#4 v=40
21040 On ch=1 n=f#4 v=0
21040 On ch=1 n=f#5 v=40
21120 On ch=1 n=f#5 v=0
21120 On ch=1 n=f#4 v=40
21200 On ch=1 n=f#4 v=0
21200 On ch=1 n=f#5 v=40
21280 On ch=1 n=f#5 v=0
21280 On ch=1 n=f#4 v=40
21360 On ch=1 n=f#4 v=0
21360 On ch=1 n=f#5 v=40
21440 On ch=1 n=f#5 v=0
21440 On ch=1 n=f#4 v=40
21520 On ch=1 n=f#4 v=0
21520 On ch=1 n=f#5 v=40
21600 On ch=1 n=f#5 v=0
21600 On ch=1 n=f#4 v=40
21680 On ch=1 n=f#4 v=0
21680 On ch=1 n=f#5 v=40
21760 On ch=1 n=f#5 v=0
21760 On ch=1 n=f#4 v=40
21840 On ch=1 n=f#4 v=0
21840 On ch=1 n=f#5 v=40
21920 On ch=1 n=f#5 v=0
21920 On ch=1 n=f#4 v=40
22000 On ch=1 n=f#4 v=0
22000 On ch=1 n=f#5 v=40
22080 On ch=1 n=f#5 v=0
22080 On ch=1 n=f#4 v=40
22160 On ch=1 n=f#4 v=0
22160 On ch=1 n=f#5 v=40
22240 On ch=1 n=f#5 v=0
22240 On ch=1 n=f#4 v=40
22320 On ch=1 n=f#4 v=0
22320 On ch=1 n=f#5 v=40
22400 On ch=1 n=f#5 v=0
22400 On ch=1 n=f#4 v=40
22480 On ch=1 n=f#4 v=0
22480 On ch=1 n=f#5 v=40
22560 On ch=1 n=f#5 v=0
22560 On ch=1 n=f#4 v=40
22640 On ch=1 n=f#4 v=0
22640 On ch=1 n=f#5 v=40
22720 On ch=1 n=f#5 v=0
22720 On ch=1 n=f#4 v=40
22800 On ch=1 n=f#4 v=0
22800 On ch=1 n=f#5 v=40
22880 On ch=1 n=f#5 v=0
22880 On ch=1 n=f#4 v=40
22960 On ch=1 n=f#4 v=0
22960 On ch=1 n=f#5 v=40
23040 On ch=1 n=f#5 v=0
23040 On ch=1 n=f#4 v=40
23120 On ch=1 n=f#4 v=0
23120 On ch=1 n=f#5 v=40
23200 On ch=1 n=f#5 v=0
23200 On ch=1 n=f#4 v=40
23280 On ch=1 n=f#4 v=0
23280 On ch=1 n=f#5 v=40
23360 On ch=1 n=f#5 v=0
23360 On ch=1 n=f#4 v=40
23440 On ch=1 n=f#4 v=0
23440 On ch=1 n=f#5 v=40
23520 On ch=1 n=f#5 v=0
23520 On ch=1 n=f#4 v=40
23600 On ch=1 n=f#4 v=0
23600 On ch=1 n=f#5 v=40
23680 On ch=1 n=f#5 v=0
23680 On ch=1 n=f#4 v=40
23760 On ch=1 n=f#4 v=0
23760 On ch=1 n=f#5 v=40
23840 On ch=1 n=f#5 v=0
23840 On ch=1 n=f#4 v=40
23920 On ch=1 n=f#4 v=0
23920 On ch=1 n=f#5 v=40
24000 On ch=1 n=f#5 v=0
24000 On ch=1 n=f#4 v=40
24080 On ch=1 n=f#4 v=0
24080 On ch=1 n=f#5 v=40
24160 On ch=1 n=f#5 v=0
24160 On ch=1 n=f#4 v=40
24240 On ch=1 n=f#4 v=0
24240 On ch=1 n=f#5 v=40
24320 On ch=1 n=f#5 v=0
24320 On ch=1 n=f#4 v=40
24400 On ch=1 n=f#4 v=0
24400 On ch=1 n=f#5 v=40
24480 On ch=1 n=f#5 v=0
24480 On ch=1 n=f#4 v=40
24560 On ch=1 n=f#4 v=0
24560 On ch=1 n=f#5 v=40
24640 On ch=1 n=f#5 v=0
24640 On ch=1 n=f#4 v=40
24720 On ch=1 n=f#4 v=0
24720 On ch=1 n=f#5 v=40
24800 On ch=1 n=f#5 v=0
24800 On ch=1 n=f#4 v=40
24880 On ch=1 n=f#4 v=0
24880 On ch=1 n=f#5 v=40
24960 On ch=1 n=f#5 v=0
24960 On ch=1 n=f#4 v=40
25040 On ch=1 n=f#4 v=0
25040 On ch=1 n=f#5 v=40
25120 On ch=1 n=f#5 v=0
25120 On ch=1 n=f#4 v=40
25200 On ch=1 n=f#4 v=0
25200 On ch=1 n=f#5 v=40
25280 On ch=1 n=f#5 v=0
25280 On ch=1 n=f#4 v=40
25360 On ch=1 n=f#4 v=0
25360 On ch=1 n=f#5 v=40
25440 On ch=1 n=f#5 v=0
25520 On ch=1 n=f#4 v=60
25600 On ch=1 n=f#4 v=0
25600 On ch=1 n=f#5 v=60
25680 On ch=1 n=f#5 v=0
25680 On ch=1 n=f#5 v=60
25760 On ch=1 n=f#5 v=0
25760 On ch=1 n=f#6 v=60
25840 On ch=1 n=f#6 v=0
25840 On ch=1 n=f#6 v=60
25920 On ch=1 n=f#6 v=0
25920 On ch=1 n=f#7 v=40
25960 On ch=1 n=f#7 v=0
26240 On ch=1 n=f#4 v=40
26320 On ch=1 n=f#4 v=0
26320 On ch=1 n=f#5 v=40
26400 On ch=1 n=f#5 v=0
26400 On ch=1 n=f#4 v=40
26480 On ch=1 n=f#4 v=0
26480 On ch=1 n=f#5 v=40
26560 On ch=1 n=f#5 v=0
26560 On ch=1 n=f#4 v=40
26640 On ch=1 n=f#4 v=0
26640 On ch=1 n=f#5 v=40
26720 On ch=1 n=f#5 v=0
26720 On ch=1 n=f#4 v=40
26800 On ch=1 n=f#4 v=0
26800 On ch=1 n=f#5 v=40
26880 On ch=1 n=f#5 v=0
26880 On ch=1 n=f#4 v=40
26960 On ch=1 n=f#4 v=0
26960 On ch=1 n=f#5 v=40
27040 On ch=1 n=f#5 v=0
27040 On ch=1 n=f#4 v=40
27120 On ch=1 n=f#4 v=0
27120 On ch=1 n=f#5 v=40
27200 On ch=1 n=f#5 v=0
27200 On ch=1 n=f#4 v=40
27280 On ch=1 n=f#4 v=0
27280 On ch=1 n=f#5 v=40
27360 On ch=1 n=f#5 v=0
27440 On ch=1 n=d#5 v=70
27520 On ch=1 n=d#5 v=0
27520 On ch=1 n=d#6 v=70
27600 On ch=1 n=d#6 v=0
27600 On ch=1 n=d#6 v=70
27680 On ch=1 n=d#6 v=0
27680 On ch=1 n=d#7 v=70
27760 On ch=1 n=d#7 v=0
27760 On ch=1 n=d#6 v=70
27840 On ch=1 n=d#6 v=0
27920 On ch=1 n=d#5 v=80
28000 On ch=1 n=d#5 v=0
28000 On ch=1 n=d#6 v=80
28080 On ch=1 n=d#6 v=0
28080 On ch=1 n=d#6 v=80
28160 On ch=1 n=d#6 v=0
28160 On ch=1 n=d#7 v=80
28240 On ch=1 n=d#7 v=0
28240 On ch=1 n=d#6 v=80
28320 On ch=1 n=d#6 v=0
28400 On ch=1 n=d#5 v=100
28480 On ch=1 n=d#5 v=0
28480 On ch=1 n=d#6 v=100
28560 On ch=1 n=d#6 v=0
28560 On ch=1 n=d#6 v=100
28640 On ch=1 n=d#6 v=0
28640 On ch=1 n=d#7 v=100
28720 On ch=1 n=d#7 v=0
28720 On ch=1 n=d#6 v=100
28800 On ch=1 n=d#6 v=0
28880 On ch=1 n=d#6 v=60
28960 On ch=1 n=d#6 v=0
28960 On ch=1 n=d#5 v=60
29040 On ch=1 n=d#5 v=0
29120 On ch=1 n=d#5 v=50
29120 On ch=1 n=f#5 v=50
29200 On ch=1 n=f#5 v=0
29200 On ch=1 n=d#5 v=0
29200 On ch=1 n=f#4 v=50
29280 On ch=1 n=f#4 v=0
29280 On ch=1 n=f#5 v=40
29280 On ch=1 n=e5 v=40
29360 On ch=1 n=e5 v=0
29360 On ch=1 n=f#5 v=0
29360 On ch=1 n=f#4 v=40
29440 On ch=1 n=f#4 v=0
29440 On ch=1 n=f#5 v=40
29440 On ch=1 n=e5 v=40
29520 On ch=1 n=e5 v=0
29520 On ch=1 n=f#5 v=0
29520 On ch=1 n=f#4 v=40
29600 On ch=1 n=f#4 v=0
29600 On ch=1 n=f#5 v=40
29600 On ch=1 n=e5 v=40
29680 On ch=1 n=e5 v=0
29680 On ch=1 n=f#5 v=0
29680 On ch=1 n=f#4 v=40
29760 On ch=1 n=f#4 v=0
29760 On ch=1 n=f#5 v=40
29760 On ch=1 n=e5 v=40
29840 On ch=1 n=e5 v=0
29840 On ch=1 n=f#5 v=0
29840 On ch=1 n=f#4 v=40
29920 On ch=1 n=f#4 v=0
29920 On ch=1 n=f#5 v=40
29920 On ch=1 n=e5 v=40
30000 On ch=1 n=e5 v=0
30000 On ch=1 n=f#5 v=0
30000 On ch=1 n=f#4 v=40
30080 On ch=1 n=f#4 v=0
30080 On ch=1 n=f#5 v=40
30080 On ch=1 n=e5 v=40
30160 On ch=1 n=e5 v=0
30160 On ch=1 n=f#5 v=0
30160 On ch=1 n=f#4 v=40
30240 On ch=1 n=f#4 v=0
30320 On ch=1 n=f#4 v=40
30400 On ch=1 n=f#4 v=0
30400 On ch=1 n=f#5 v=40
30400 On ch=1 n=d#5 v=40
30480 On ch=1 n=d#5 v=0
30480 On ch=1 n=f#5 v=0
30480 On ch=1 n=f#4 v=40
30560 On ch=1 n=f#4 v=0
30560 On ch=1 n=d#5 v=40
30560 On ch=1 n=f#5 v=40
30640 On ch=1 n=f#5 v=0
30640 On ch=1 n=d#5 v=0
30640 On ch=1 n=f#4 v=40
30720 On ch=1 n=f#4 v=0
30720 On ch=1 n=d#5 v=40
30720 On ch=1 n=f#5 v=40
30800 On ch=1 n=f#5 v=0
30800 On ch=1 n=d#5 v=0
30800 On ch=1 n=f#4 v=40
30880 On ch=1 n=f#4 v=0
30880 On ch=1 n=d#5 v=40
30880 On ch=1 n=f#5 v=40
30960 On ch=1 n=f#5 v=0
30960 On ch=1 n=d#5 v=0
30960 On ch=1 n=f#4 v=40
31040 On ch=1 n=f#4 v=0
31040 On ch=1 n=f#5 v=40
31040 On ch=1 n=d#5 v=40
31120 On ch=1 n=d#5 v=0
31120 On ch=1 n=f#5 v=0
31120 On ch=1 n=f#4 v=40
31200 On ch=1 n=f#4 v=0
31200 On ch=1 n=f#5 v=40
31200 On ch=1 n=e5 v=40
31280 On ch=1 n=e5 v=0
31280 On ch=1 n=f#5 v=0
31280 On ch=1 n=f#4 v=40
31360 On ch=1 n=f#4 v=0
31360 On ch=1 n=f#5 v=40
31360 On ch=1 n=e5 v=40
31440 On ch=1 n=e5 v=0
31440 On ch=1 n=f#5 v=0
31440 On ch=1 n=f#4 v=40
31520 On ch=1 n=f#4 v=0
31520 On ch=1 n=f#5 v=40
31520 On ch=1 n=e5 v=40
31600 On ch=1 n=e5 v=0
31600 On ch=1 n=f#5 v=0
31600 On ch=1 n=f#4 v=40
31680 On ch=1 n=f#4 v=0
31680 On ch=1 n=f#5 v=40
31680 On ch=1 n=e5 v=40
31760 On ch=1 n=e5 v=0
31760 On ch=1 n=f#5 v=0
31760 On ch=1 n=f#4 v=40
31840 On ch=1 n=f#4 v=0
31840 On ch=1 n=f#5 v=40
31840 On ch=1 n=e5 v=40
31920 On ch=1 n=e5 v=0
31920 On ch=1 n=f#5 v=0
31920 On ch=1 n=f#4 v=40
32000 On ch=1 n=f#4 v=0
32000 On ch=1 n=f#5 v=40
32000 On ch=1 n=e5 v=40
32080 On ch=1 n=e5 v=0
32080 On ch=1 n=f#5 v=0
32080 On ch=1 n=f#4 v=40
32160 On ch=1 n=f#4 v=0
32160 On ch=1 n=d#5 v=40
32160 On ch=1 n=f#5 v=40
32240 On ch=1 n=f#5 v=0
32240 On ch=1 n=d#5 v=0
32240 On ch=1 n=f#4 v=40
32320 On ch=1 n=f#4 v=0
32320 On ch=1 n=d#5 v=40
32320 On ch=1 n=f#5 v=40
32400 On ch=1 n=f#5 v=0
32400 On ch=1 n=d#5 v=0
32400 On ch=1 n=f#4 v=40
32480 On ch=1 n=f#4 v=0
32480 On ch=1 n=f#5 v=40
32480 On ch=1 n=d#5 v=40
32560 On ch=1 n=d#5 v=0
32560 On ch=1 n=f#5 v=0
32560 On ch=1 n=f#4 v=40
32640 On ch=1 n=f#4 v=0
32640 On ch=1 n=d#5 v=40
32640 On ch=1 n=f#5 v=40
32720 On ch=1 n=f#5 v=0
32720 On ch=1 n=d#5 v=0
32720 On ch=1 n=f#4 v=40
32800 On ch=1 n=f#4 v=0
32800 On ch=1 n=d#5 v=40
32800 On ch=1 n=f#5 v=40
32880 On ch=1 n=f#5 v=0
32880 On ch=1 n=d#5 v=0
32880 On ch=1 n=f#4 v=40
32960 On ch=1 n=f#4 v=0
32960 On ch=1 n=f#5 v=40
32960 On ch=1 n=d#5 v=40
33040 On ch=1 n=d#5 v=0
33040 On ch=1 n=f#5 v=0
33040 On ch=1 n=f#4 v=40
33120 On ch=1 n=f#4 v=0
33200 On ch=1 n=f#4 v=40
33280 On ch=1 n=f#4 v=0
33280 On ch=1 n=f#5 v=40
33280 On ch=1 n=e5 v=40
33360 On ch=1 n=e5 v=0
33360 On ch=1 n=f#5 v=0
33360 On ch=1 n=f#4 v=40
33440 On ch=1 n=f#4 v=0
33440 On ch=1 n=f#5 v=40
33440 On ch=1 n=e5 v=40
33520 On ch=1 n=e5 v=0
33520 On ch=1 n=f#5 v=0
33520 On ch=1 n=f#4 v=40
33600 On ch=1 n=f#4 v=0
33600 On ch=1 n=f#5 v=40
33600 On ch=1 n=e5 v=40
33680 On ch=1 n=e5 v=0
33680 On ch=1 n=f#5 v=0
33680 On ch=1 n=f#4 v=40
33760 On ch=1 n=f#4 v=0
33760 On ch=1 n=f#5 v=40
33760 On ch=1 n=e5 v=40
33840 On ch=1 n=e5 v=0
33840 On ch=1 n=f#5 v=0
33840 On ch=1 n=f#4 v=40
33920 On ch=1 n=f#4 v=0
33920 On ch=1 n=f#5 v=40
33920 On ch=1 n=e5 v=40
34000 On ch=1 n=e5 v=0
34000 On ch=1 n=f#5 v=0
34000 On ch=1 n=f#4 v=40
34080 On ch=1 n=f#4 v=0
34160 On ch=1 n=f#4 v=40
34240 On ch=1 n=f#4 v=0
34240 On ch=1 n=d#5 v=40
34240 On ch=1 n=f#5 v=40
34320 On ch=1 n=f#5 v=0
34320 On ch=1 n=d#5 v=0
34320 On ch=1 n=f#4 v=40
34400 On ch=1 n=f#4 v=0
34400 On ch=1 n=f#5 v=40
34400 On ch=1 n=d#5 v=40
34480 On ch=1 n=d#5 v=0
34480 On ch=1 n=f#5 v=0
34480 On ch=1 n=f#4 v=40
34560 On ch=1 n=f#4 v=0
34560 On ch=1 n=d#5 v=40
34560 On ch=1 n=f#5 v=40
34640 On ch=1 n=f#5 v=0
34640 On ch=1 n=d#5 v=0
34640 On ch=1 n=f#4 v=40
34720 On ch=1 n=f#4 v=0
34720 On ch=1 n=d#5 v=40
34720 On ch=1 n=f#5 v=40
34800 On ch=1 n=f#5 v=0
34800 On ch=1 n=d#5 v=0
34800 On ch=1 n=f#4 v=40
34880 On ch=1 n=f#4 v=0
34880 On ch=1 n=f#5 v=40
34880 On ch=1 n=d#5 v=40
34960 On ch=1 n=d#5 v=0
34960 On ch=1 n=f#5 v=0
34960 On ch=1 n=f#4 v=40
35040 On ch=1 n=f#4 v=0
35040 On ch=1 n=f#5 v=40
35040 On ch=1 n=e5 v=40
35120 On ch=1 n=e5 v=0
35120 On ch=1 n=f#5 v=0
35120 On ch=1 n=f#4 v=40
35200 On ch=1 n=f#4 v=0
35200 On ch=1 n=f#5 v=40
35200 On ch=1 n=e5 v=40
35280 On ch=1 n=e5 v=0
35280 On ch=1 n=f#5 v=0
35280 On ch=1 n=f#4 v=40
35360 On ch=1 n=f#4 v=0
35360 On ch=1 n=f#5 v=40
35360 On ch=1 n=e5 v=40
35440 On ch=1 n=e5 v=0
35440 On ch=1 n=f#5 v=0
35440 On ch=1 n=f#4 v=40
35520 On ch=1 n=f#4 v=0
35520 On ch=1 n=f#5 v=40
35520 On ch=1 n=e5 v=40
35600 On ch=1 n=e5 v=0
35600 On ch=1 n=f#5 v=0
35600 On ch=1 n=f#4 v=40
35680 On ch=1 n=f#4 v=0
35680 On ch=1 n=f#5 v=40
35680 On ch=1 n=e5 v=40
35760 On ch=1 n=e5 v=0
35760 On ch=1 n=f#5 v=0
35760 On ch=1 n=f#4 v=40
35840 On ch=1 n=f#4 v=0
35840 On ch=1 n=f#5 v=40
35840 On ch=1 n=e5 v=40
35920 On ch=1 n=e5 v=0
35920 On ch=1 n=f#5 v=0
35920 On ch=1 n=f#4 v=40
36000 On ch=1 n=f#4 v=0
36080 On ch=1 n=f#4 v=40
36160 On ch=1 n=f#4 v=0
36160 On ch=1 n=f#5 v=40
36160 On ch=1 n=d#5 v=40
36240 On ch=1 n=d#5 v=0
36240 On ch=1 n=f#5 v=0
36240 On ch=1 n=f#5 v=40
36320 On ch=1 n=f#5 v=0
36320 On ch=1 n=f#6 v=40
36320 On ch=1 n=d#6 v=40
36400 On ch=1 n=d#6 v=0
36400 On ch=1 n=f#6 v=0
36400 On ch=1 n=f#5 v=40
36480 On ch=1 n=f#5 v=0
36560 On ch=1 n=f#5 v=60
36640 On ch=1 n=f#5 v=0
36640 On ch=1 n=f#6 v=60
36720 On ch=1 n=f#6 v=0
36720 On ch=1 n=d#7 v=80
36720 On ch=1 n=d#6 v=80
36800 On ch=1 n=f#6 v=80
36880 On ch=1 n=f#6 v=0
36880 On ch=1 n=d#6 v=80
36960 On ch=1 n=d#6 v=0
36960 On ch=1 n=d#6 v=0
36960 On ch=1 n=d#7 v=0
36960 On ch=1 n=c#7 v=110
36960 On ch=1 n=c#6 v=110
37040 On ch=1 n=f#6 v=100
37120 On ch=1 n=f#6 v=0
37120 On ch=1 n=e6 v=100
37200 On ch=1 n=e6 v=0
37200 On ch=1 n=c#6 v=0
37200 On ch=1 n=c#7 v=0
37200 On ch=1 n=f#5 v=110
37200 On ch=1 n=f#6 v=110
37280 On ch=1 n=e6 v=100
37360 On ch=1 n=e6 v=0
37360 On ch=1 n=c#6 v=100
37440 On ch=1 n=c#6 v=0
37440 On ch=1 n=f#6 v=0
37440 On ch=1 n=f#5 v=0
37440 On ch=1 n=g#6 v=110
37440 On ch=1 n=g#5 v=110
37520 On ch=1 n=e6 v=100
37600 On ch=1 n=e6 v=0
37600 On ch=1 n=c#6 v=100
37680 On ch=1 n=c#6 v=0
37680 On ch=1 n=g#5 v=0
37680 On ch=1 n=g#6 v=0
37680 On ch=1 n=d#7 v=110
37680 On ch=1 n=d#6 v=110
37760 On ch=1 n=g#6 v=100
37840 On ch=1 n=g#6 v=0
37840 On ch=1 n=e6 v=100
37920 On ch=1 n=e6 v=0
37920 On ch=1 n=d#6 v=0
37920 On ch=1 n=d#7 v=0
37920 On ch=1 n=b5 v=110
37920 On ch=1 n=b6 v=110
38000 On ch=1 n=f#6 v=100
38080 On ch=1 n=f#6 v=0
38080 On ch=1 n=d#6 v=100
38160 On ch=1 n=d#6 v=0
38160 On ch=1 n=b6 v=0
38160 On ch=1 n=b5 v=0
38160 On ch=1 n=f#5 v=110
38160 On ch=1 n=f#6 v=110
38240 On ch=1 n=d#6 v=100
38320 On ch=1 n=d#6 v=0
38320 On ch=1 n=b5 v=100
38400 On ch=1 n=b5 v=0
38400 On ch=1 n=f#6 v=0
38400 On ch=1 n=f#5 v=0
38400 On ch=1 n=g#5 v=110
38400 On ch=1 n=g#6 v=110
38480 On ch=1 n=d#6 v=100
38560 On ch=1 n=d#6 v=0
38560 On ch=1 n=b5 v=100
38720 On ch=1 n=b5 v=0
38720 On ch=1 n=d#6 v=100
38800 On ch=1 n=d#6 v=0
38800 On ch=1 n=b5 v=100
38880 On ch=1 n=b5 v=0
38880 On ch=1 n=g#6 v=0
38880 On ch=1 n=g#5 v=0
38880 On ch=1 n=b5 v=100
38960 On ch=1 n=b5 v=0
38960 On ch=1 n=f#6 v=100
39040 On ch=1 n=f#6 v=0
39040 On ch=1 n=c#6 v=100
39120 On ch=1 n=c#6 v=0
39120 On ch=1 n=e6 v=100
39200 On ch=1 n=e6 v=0
39200 On ch=1 n=g#6 v=100
39280 On ch=1 n=g#6 v=0
39280 On ch=1 n=b6 v=100
39360 On ch=1 n=b6 v=0
39360 On ch=1 n=a#5 v=110
39360 On ch=1 n=a#6 v=110
39440 On ch=1 n=g#6 v=100
39520 On ch=1 n=g#6 v=0
39520 On ch=1 n=e6 v=100
39600 On ch=1 n=e6 v=0
39600 On ch=1 n=a#6 v=0
39600 On ch=1 n=a#5 v=0
39600 On ch=1 n=d#7 v=110
39600 On ch=1 n=d#6 v=110
39680 On ch=1 n=g#6 v=100
39760 On ch=1 n=g#6 v=0
39760 On ch=1 n=e6 v=100
39840 On ch=1 n=e6 v=0
39840 On ch=1 n=d#6 v=0
39840 On ch=1 n=d#7 v=0
39840 On ch=1 n=b6 v=110
39840 On ch=1 n=f#6 v=110
39840 On ch=1 n=d#6 v=110
39840 On ch=1 n=b5 v=110
40020 On ch=1 n=g#6 v=110
40040 On ch=1 n=b6 v=110
40060 On ch=1 n=d#7 v=110
40080 On ch=1 n=b5 v=0
40080 On ch=1 n=d#6 v=0
40080 On ch=1 n=f#6 v=0
40080 On ch=1 n=b6 v=0
40080 On ch=1 n=g#7 v=110
40260 On ch=1 n=g#6 v=0
40280 On ch=1 n=b6 v=0
40300 On ch=1 n=d#7 v=0
40320 On ch=1 n=g#7 v=0
40320 On ch=1 n=b4 v=110
40360 On ch=1 n=b4 v=0
40400 On ch=1 n=f#5 v=100
40480 On ch=1 n=f#5 v=0
40480 On ch=1 n=c#5 v=100
40560 On ch=1 n=c#5 v=0
40560 On ch=1 n=e5 v=100
40560 On ch=1 n=d#5 v=110
40640 On ch=1 n=e5 v=0
40640 On ch=1 n=g#5 v=100
40720 On ch=1 n=g#5 v=0
40720 On ch=1 n=b5 v=100
40800 On ch=1 n=b5 v=0
40800 On ch=1 n=d#5 v=0
40800 On ch=1 n=c#5 v=110
40880 On ch=1 n=f#5 v=100
40960 On ch=1 n=f#5 v=0
40960 On ch=1 n=e5 v=100
41040 On ch=1 n=e5 v=0
41040 On ch=1 n=c#5 v=0
41040 On ch=1 n=f#4 v=110
41120 On ch=1 n=f#5 v=100
41200 On ch=1 n=f#5 v=0
41200 On ch=1 n=e5 v=100
41280 On ch=1 n=e5 v=0
41280 On ch=1 n=f#4 v=0
41280 On ch=1 n=g#4 v=110
41360 On ch=1 n=f#5 v=100
41440 On ch=1 n=f#5 v=0
41440 On ch=1 n=e5 v=100
41520 On ch=1 n=e5 v=0
41520 On ch=1 n=g#4 v=0
41520 On ch=1 n=d#5 v=110
41600 On ch=1 n=f#5 v=100
41680 On ch=1 n=f#5 v=0
41680 On ch=1 n=e5 v=100
41760 On ch=1 n=e5 v=0
41760 On ch=1 n=d#5 v=0
41760 On ch=1 n=b4 v=110
41840 On ch=1 n=f#5 v=100
41920 On ch=1 n=f#5 v=0
41920 On ch=1 n=d#5 v=100
42000 On ch=1 n=d#5 v=0
42000 On ch=1 n=b4 v=0
42000 On ch=1 n=a#4 v=110
42080 On ch=1 n=f#5 v=100
42160 On ch=1 n=f#5 v=0
42160 On ch=1 n=a#4 v=0
42160 On ch=1 n=d#5 v=100
42160 On ch=1 n=b4 v=110
42240 On ch=1 n=b4 v=0
42240 On ch=1 n=d#5 v=0
42240 On ch=1 n=a#4 v=110
42320 On ch=1 n=f#5 v=100
42400 On ch=1 n=f#5 v=0
42400 On ch=1 n=d#5 v=100
42480 On ch=1 n=d#5 v=0
42480 On ch=1 n=a#4 v=0
42480 On ch=1 n=c#5 v=110
42560 On ch=1 n=f#5 v=100
42640 On ch=1 n=f#5 v=0
42640 On ch=1 n=c#5 v=0
42640 On ch=1 n=d#5 v=100
42640 On ch=1 n=a#4 v=110
42720 On ch=1 n=a#4 v=0
42720 On ch=1 n=d#5 v=0
42720 On ch=1 n=a4 v=110
42800 On ch=1 n=f#5 v=100
42880 On ch=1 n=f#5 v=0
42880 On ch=1 n=d#5 v=100
43040 On ch=1 n=d#5 v=0
43040 On ch=1 n=f#5 v=100
43120 On ch=1 n=f#5 v=0
43120 On ch=1 n=d#5 v=100
43280 On ch=1 n=d#5 v=0
43280 On ch=1 n=f#5 v=100
43360 On ch=1 n=f#5 v=0
43360 On ch=1 n=d#5 v=100
43440 On ch=1 n=d#5 v=0
43440 On ch=1 n=a4 v=0
43440 On ch=1 n=g#4 v=110
43520 On ch=1 n=f#5 v=100
43600 On ch=1 n=f#5 v=0
43600 On ch=1 n=g#4 v=0
43600 On ch=1 n=d#5 v=100
43600 On ch=1 n=a4 v=110
43680 On ch=1 n=a4 v=0
43680 On ch=1 n=d#5 v=0
43680 On ch=1 n=a#4 v=90
43760 On ch=1 n=f#5 v=90
43840 On ch=1 n=f#5 v=0
43840 On ch=1 n=e5 v=90
44000 On ch=1 n=e5 v=0
44000 On ch=1 n=f#5 v=90
44080 On ch=1 n=f#5 v=0
44080 On ch=1 n=e5 v=90
44160 On ch=1 n=a#4 v=0
44160 On ch=1 n=a#5 v=80
44240 On ch=1 n=e5 v=0
44240 On ch=1 n=f#5 v=80
44320 On ch=1 n=f#5 v=0
44320 On ch=1 n=e5 v=80
44480 On ch=1 n=e5 v=0
44480 On ch=1 n=f#5 v=80
44560 On ch=1 n=f#5 v=0
44560 On ch=1 n=e5 v=80
44720 On ch=1 n=e5 v=0
44720 On ch=1 n=f#5 v=70
44800 On ch=1 n=f#5 v=0
44800 On ch=1 n=e5 v=70
44960 On ch=1 n=e5 v=0
44960 On ch=1 n=f#5 v=70
45040 On ch=1 n=f#5 v=0
45040 On ch=1 n=e5 v=70
45120 On ch=1 n=e5 v=0
45120 On ch=1 n=a#5 v=0
45120 On ch=1 n=a#4 v=60
45200 On ch=1 n=f#5 v=60
45280 On ch=1 n=f#5 v=0
45280 On ch=1 n=e5 v=60
45440 On ch=1 n=e5 v=0
45440 On ch=1 n=f#5 v=60
45520 On ch=1 n=f#5 v=0
45520 On ch=1 n=e5 v=60
45600 On ch=1 n=e5 v=0
45600 On ch=1 n=a#4 v=0
45600 On ch=1 n=d#5 v=80
45600 On ch=1 n=f#5 v=60
45680 On ch=1 n=d#5 v=0
45760 On ch=1 n=d#5 v=80
45840 On ch=1 n=d#5 v=0
45920 On ch=1 n=d#5 v=80
46000 On ch=1 n=d#5 v=0
46080 On ch=1 n=f#5 v=0
46080 On ch=1 n=d#5 v=80
46080 On ch=1 n=f#5 v=60
46160 On ch=1 n=d#5 v=0
46240 On ch=1 n=d#5 v=80
46320 On ch=1 n=d#5 v=0
46400 On ch=1 n=d#5 v=80
46480 On ch=1 n=d#5 v=0
46500 On ch=1 n=d#5 v=60
46560 On ch=1 n=d#5 v=0
46560 On ch=1 n=f#5 v=0
46560 On ch=1 n=e5 v=80
46560 On ch=1 n=f#5 v=60
46640 On ch=1 n=e5 v=0
46720 On ch=1 n=e5 v=80
46800 On ch=1 n=e5 v=0
46880 On ch=1 n=e5 v=80
46960 On ch=1 n=e5 v=0
47040 On ch=1 n=f#5 v=0
47040 On ch=1 n=e5 v=80
47040 On ch=1 n=f#5 v=60
47120 On ch=1 n=e5 v=0
47200 On ch=1 n=d#5 v=80
47280 On ch=1 n=d#5 v=0
47360 On ch=1 n=c#5 v=80
47440 On ch=1 n=c#5 v=0
47460 On ch=1 n=d5 v=60
47520 On ch=1 n=d5 v=0
47520 On ch=1 n=f#5 v=0
47520 On ch=1 n=d#5 v=80
47520 On ch=1 n=f#5 v=60
47600 On ch=1 n=d#5 v=0
47680 On ch=1 n=d#5 v=80
47760 On ch=1 n=d#5 v=0
47840 On ch=1 n=d#5 v=80
47920 On ch=1 n=d#5 v=0
48000 On ch=1 n=d#5 v=80
48160 On ch=1 n=d#5 v=0
48160 On ch=1 n=g#5 v=80
48320 On ch=1 n=g#5 v=0
48320 On ch=1 n=d#5 v=80
48420 On ch=1 n=d#5 v=60
48480 On ch=1 n=d#5 v=0
48480 On ch=1 n=d#5 v=0
48480 On ch=1 n=f#5 v=0
48480 On ch=1 n=e5 v=80
48480 On ch=1 n=f#5 v=60
48640 On ch=1 n=e5 v=0
48640 On ch=1 n=e5 v=80
48800 On ch=1 n=e5 v=0
48800 On ch=1 n=e5 v=80
48960 On ch=1 n=e5 v=0
48960 On ch=1 n=f#5 v=0
48960 On ch=1 n=e5 v=80
48960 On ch=1 n=f#5 v=60
49120 On ch=1 n=e5 v=0
49120 On ch=1 n=d#5 v=80
49280 On ch=1 n=d#5 v=0
49280 On ch=1 n=c#5 v=80
49440 On ch=1 n=c#5 v=0
49440 On ch=1 n=f#5 v=0
49440 On ch=1 n=c#5 v=80
49440 On ch=1 n=d#5 v=60
49440 On ch=1 n=f#5 v=60
49600 On ch=1 n=f#5 v=0
49600 On ch=1 n=d#5 v=0
49600 On ch=1 n=c#5 v=0
49600 On ch=1 n=b4 v=80
49600 On ch=1 n=d#5 v=60
49600 On ch=1 n=f#5 v=60
49760 On ch=1 n=f#5 v=0
49760 On ch=1 n=d#5 v=0
49760 On ch=1 n=b4 v=0
49760 On ch=1 n=a#4 v=80
49760 On ch=1 n=d#5 v=60
49760 On ch=1 n=f#5 v=60
49920 On ch=1 n=f#5 v=0
49920 On ch=1 n=d#5 v=0
49920 On ch=1 n=a#4 v=0
49920 On ch=1 n=g#4 v=80
49920 On ch=1 n=d#5 v=60
49920 On ch=1 n=f#5 v=60
50160 On ch=1 n=f#5 v=0
50160 On ch=1 n=d#5 v=0
50160 On ch=1 n=g#4 v=0
50160 On ch=1 n=b4 v=80
50160 On ch=1 n=d#5 v=60
50160 On ch=1 n=f#5 v=60
50400 On ch=1 n=f#5 v=0
50400 On ch=1 n=d#5 v=0
50400 On ch=1 n=b4 v=0
50400 On ch=1 n=a#4 v=60
50400 On ch=1 n=d#5 v=60
50400 On ch=1 n=f#5 v=60
51360 On ch=1 n=f#5 v=0
51360 On ch=1 n=d#5 v=0
51360 On ch=1 n=a#4 v=0
51360 On ch=1 n=b4 v=40
51360 On ch=1 n=c#5 v=40
51360 On ch=1 n=f#5 v=40
51520 On ch=1 n=f#5 v=0
51520 On ch=1 n=c#5 v=0
51520 On ch=1 n=b4 v=0
51520 On ch=1 n=b4 v=40
51520 On ch=1 n=c#5 v=40
51520 On ch=1 n=f#5 v=40
51680 On ch=1 n=f#5 v=0
51680 On ch=1 n=c#5 v=0
51680 On ch=1 n=b4 v=0
51680 On ch=1 n=b4 v=40
51680 On ch=1 n=c#5 v=40
51680 On ch=1 n=f#5 v=40
51840 On ch=1 n=f#5 v=0
51840 On ch=1 n=c#5 v=0
51840 On ch=1 n=b4 v=0
51840 On ch=1 n=b4 v=40
51840 On ch=1 n=c#5 v=40
51840 On ch=1 n=f#5 v=40
52080 On ch=1 n=f#5 v=0
52080 On ch=1 n=c#5 v=0
52080 On ch=1 n=b4 v=0
52080 On ch=1 n=b4 v=40
52080 On ch=1 n=c#5 v=40
52080 On ch=1 n=f#5 v=40
52320 On ch=1 n=f#5 v=0
52320 On ch=1 n=c#5 v=0
52320 On ch=1 n=b4 v=0
52320 On ch=1 n=b4 v=40
52320 On ch=1 n=d#5 v=40
52320 On ch=1 n=f#5 v=40
52480 On ch=1 n=f#5 v=0
52480 On ch=1 n=d#5 v=0
52480 On ch=1 n=b4 v=0
52480 On ch=1 n=b4 v=40
52480 On ch=1 n=d#5 v=40
52480 On ch=1 n=f#5 v=40
52640 On ch=1 n=f#5 v=0
52640 On ch=1 n=d#5 v=0
52640 On ch=1 n=b4 v=0
52640 On ch=1 n=b4 v=40
52640 On ch=1 n=d#5 v=40
52640 On ch=1 n=f#5 v=40
52800 On ch=1 n=f#5 v=0
52800 On ch=1 n=d#5 v=0
52800 On ch=1 n=b4 v=0
52800 On ch=1 n=b4 v=40
52800 On ch=1 n=d#5 v=40
52800 On ch=1 n=f#5 v=40
52960 On ch=1 n=f#5 v=0
52960 On ch=1 n=d#5 v=0
52960 On ch=1 n=b4 v=0
52960 On ch=1 n=b4 v=40
52960 On ch=1 n=d#5 v=40
52960 On ch=1 n=f#5 v=40
53120 On ch=1 n=f#5 v=0
53120 On ch=1 n=d#5 v=0
53120 On ch=1 n=b4 v=0
53120 On ch=1 n=b4 v=40
53120 On ch=1 n=d#5 v=40
53120 On ch=1 n=f#5 v=40
53280 On ch=1 n=f#5 v=0
53280 On ch=1 n=d#5 v=0
53280 On ch=1 n=b4 v=0
53280 On ch=1 n=f#5 v=40
53440 On ch=1 n=f#5 v=0
53440 On ch=1 n=f#5 v=40
53600 On ch=1 n=f#5 v=0
53600 On ch=1 n=f#5 v=40
53760 On ch=1 n=f#5 v=0
53760 On ch=1 n=f#5 v=40
54000 On ch=1 n=f#5 v=0
54000 On ch=1 n=f#5 v=40
54240 On ch=1 n=f#5 v=0
54240 On ch=1 n=f#5 v=50
55200 On ch=1 n=f#5 v=0
55200 On ch=1 n=b4 v=40
55200 On ch=1 n=c#5 v=40
55200 On ch=1 n=f#5 v=40
55360 On ch=1 n=f#5 v=0
55360 On ch=1 n=c#5 v=0
55360 On ch=1 n=b4 v=0
55360 On ch=1 n=b4 v=40
55360 On ch=1 n=c#5 v=40
55360 On ch=1 n=f#5 v=40
55520 On ch=1 n=f#5 v=0
55520 On ch=1 n=c#5 v=0
55520 On ch=1 n=b4 v=0
55520 On ch=1 n=b4 v=40
55520 On ch=1 n=c#5 v=40
55520 On ch=1 n=f#5 v=40
55680 On ch=1 n=f#5 v=0
55680 On ch=1 n=c#5 v=0
55680 On ch=1 n=b4 v=0
55680 On ch=1 n=b4 v=40
55680 On ch=1 n=c#5 v=40
55680 On ch=1 n=f#5 v=40
55920 On ch=1 n=f#5 v=0
55920 On ch=1 n=c#5 v=0
55920 On ch=1 n=b4 v=0
55920 On ch=1 n=b4 v=40
55920 On ch=1 n=c#5 v=40
55920 On ch=1 n=f#5 v=40
56160 On ch=1 n=f#5 v=0
56160 On ch=1 n=c#5 v=0
56160 On ch=1 n=b4 v=0
56160 On ch=1 n=b4 v=40
56160 On ch=1 n=d#5 v=40
56160 On ch=1 n=f#5 v=40
56320 On ch=1 n=f#5 v=0
56320 On ch=1 n=d#5 v=0
56320 On ch=1 n=b4 v=0
56320 On ch=1 n=b4 v=40
56320 On ch=1 n=d#5 v=40
56320 On ch=1 n=f#5 v=40
56480 On ch=1 n=f#5 v=0
56480 On ch=1 n=d#5 v=0
56480 On ch=1 n=b4 v=0
56480 On ch=1 n=b4 v=40
56480 On ch=1 n=d#5 v=40
56480 On ch=1 n=f#5 v=40
56640 On ch=1 n=f#5 v=0
56640 On ch=1 n=d#5 v=0
56640 On ch=1 n=b4 v=0
56640 On ch=1 n=b4 v=40
56640 On ch=1 n=d#5 v=40
56640 On ch=1 n=f#5 v=40
56800 On ch=1 n=f#5 v=0
56800 On ch=1 n=d#5 v=0
56800 On ch=1 n=b4 v=0
56800 On ch=1 n=b4 v=40
56800 On ch=1 n=d#5 v=40
56800 On ch=1 n=f#5 v=40
56960 On ch=1 n=f#5 v=0
56960 On ch=1 n=d#5 v=0
56960 On ch=1 n=b4 v=0
56960 On ch=1 n=b4 v=40
56960 On ch=1 n=d#5 v=40
56960 On ch=1 n=f#5 v=40
57120 On ch=1 n=f#5 v=0
57120 On ch=1 n=d#5 v=0
57120 On ch=1 n=b4 v=0
57120 On ch=1 n=f#5 v=40
57280 On ch=1 n=f#5 v=0
57280 On ch=1 n=f#5 v=40
57440 On ch=1 n=f#5 v=0
57440 On ch=1 n=f#5 v=40
57600 On ch=1 n=f#5 v=0
57600 On ch=1 n=f#5 v=40
57840 On ch=1 n=f#5 v=0
57840 On ch=1 n=f#5 v=40
58080 On ch=1 n=f#5 v=0
58080 On ch=1 n=f#5 v=40
59040 On ch=1 n=f#5 v=0
59040 On ch=1 n=b4 v=40
59200 On ch=1 n=b4 v=0
59200 On ch=1 n=f#5 v=40
59360 On ch=1 n=f#5 v=0
59360 On ch=1 n=c#5 v=40
59520 On ch=1 n=c#5 v=0
59520 On ch=1 n=e5 v=40
59680 On ch=1 n=e5 v=0
59680 On ch=1 n=g#5 v=40
59840 On ch=1 n=g#5 v=0
59840 On ch=1 n=b5 v=40
60000 On ch=1 n=b5 v=0
60000 On ch=1 n=b4 v=40
60960 On ch=1 n=b4 v=0
60960 On ch=1 n=b4 v=40
61120 On ch=1 n=b4 v=0
61120 On ch=1 n=f#5 v=40
61280 On ch=1 n=f#5 v=0
61280 On ch=1 n=c#5 v=40
61440 On ch=1 n=c#5 v=0
61440 On ch=1 n=e5 v=40
61600 On ch=1 n=e5 v=0
61600 On ch=1 n=g#5 v=40
61760 On ch=1 n=g#5 v=0
61760 On ch=1 n=b5 v=40
62000 On ch=1 n=b5 v=0
62000 On ch=1 n=f#6 v=60
62080 On ch=1 n=f#6 v=0
62080 On ch=1 n=c#6 v=60
62160 On ch=1 n=c#6 v=0
62160 On ch=1 n=e6 v=60
62240 On ch=1 n=e6 v=0
62240 On ch=1 n=g#6 v=60
62320 On ch=1 n=g#6 v=0
62320 On ch=1 n=b6 v=60
62400 On ch=1 n=b6 v=0
62400 On ch=1 n=b5 v=70
62480 On ch=1 n=b5 v=0
62480 On ch=1 n=f#6 v=70
62560 On ch=1 n=f#6 v=0
62560 On ch=1 n=c#6 v=70
62640 On ch=1 n=c#6 v=0
62640 On ch=1 n=e6 v=70
62720 On ch=1 n=e6 v=0
62720 On ch=1 n=g#6 v=70
62800 On ch=1 n=g#6 v=0
62800 On ch=1 n=b6 v=70
62880 On ch=1 n=b6 v=0
62880 On ch=1 n=b5 v=80
62960 On ch=1 n=b5 v=0
62960 On ch=1 n=f#6 v=80
63040 On ch=1 n=f#6 v=0
63040 On ch=1 n=c#6 v=80
63120 On ch=1 n=c#6 v=0
63120 On ch=1 n=e6 v=80
63200 On ch=1 n=e6 v=0
63200 On ch=1 n=g#6 v=80
63280 On ch=1 n=g#6 v=0
63280 On ch=1 n=b6 v=80
63360 On ch=1 n=b6 v=0
63360 On ch=1 n=b5 v=90
63440 On ch=1 n=b5 v=0
63440 On ch=1 n=f#6 v=90
63520 On ch=1 n=f#6 v=0
63520 On ch=1 n=c#6 v=90
63600 On ch=1 n=c#6 v=0
63600 On ch=1 n=e6 v=90
63680 On ch=1 n=e6 v=0
63680 On ch=1 n=g#6 v=90
63760 On ch=1 n=g#6 v=0
63760 On ch=1 n=b6 v=90
63840 On ch=1 n=b6 v=0
63840 On ch=1 n=d#6 v=100
63860 On ch=1 n=f#6 v=100
63880 On ch=1 n=b6 v=100
63900 On ch=1 n=d#7 v=100
64000 On ch=1 n=g#7 v=100
64040 On ch=1 n=g#7 v=0
64080 On ch=1 n=g#7 v=100
64120 On ch=1 n=g#7 v=0
64160 On ch=1 n=a#7 v=100
64200 On ch=1 n=a#7 v=0
64240 On ch=1 n=g#7 v=100
64280 On ch=1 n=g#7 v=0
64320 On ch=1 n=a#7 v=100
64360 On ch=1 n=a#7 v=0
64480 On ch=1 n=b7 v=100
64560 On ch=1 n=b7 v=0
64560 On ch=1 n=c#8 v=100
64800 On ch=1 n=d#7 v=0
64800 On ch=1 n=b6 v=0
64800 On ch=1 n=f#6 v=0
64800 On ch=1 n=d#6 v=0
64960 On ch=1 n=c#8 v=0
64960 On ch=1 n=b7 v=100
65000 On ch=1 n=b7 v=0
65040 On ch=1 n=c#8 v=100
65080 On ch=1 n=c#8 v=0
65120 On ch=1 n=b7 v=100
65160 On ch=1 n=b7 v=0
65200 On ch=1 n=a#7 v=100
65240 On ch=1 n=a#7 v=0
65280 On ch=1 n=a#7 v=100
65320 On ch=1 n=a#7 v=0
65440 On ch=1 n=g#7 v=100
65520 On ch=1 n=g#7 v=0
65520 On ch=1 n=a#7 v=100
65920 On ch=1 n=a#7 v=0
65920 On ch=1 n=g#7 v=100
66000 On ch=1 n=g#7 v=0
66000 On ch=1 n=a#7 v=100
66160 On ch=1 n=a#7 v=0
66160 On ch=1 n=g#7 v=100
66240 On ch=1 n=g#7 v=0
66240 On ch=1 n=f#7 v=100
66400 On ch=1 n=f#7 v=0
66400 On ch=1 n=g#7 v=100
66480 On ch=1 n=g#7 v=0
66480 On ch=1 n=f#7 v=100
66640 On ch=1 n=f#7 v=0
66640 On ch=1 n=d#7 v=100
66720 On ch=1 n=d#7 v=0
66720 On ch=1 n=d#6 v=90
66720 On ch=1 n=g#6 v=90
66720 On ch=1 n=c#7 v=90
66880 On ch=1 n=c#7 v=0
66880 On ch=1 n=d#7 v=90
66960 On ch=1 n=d#7 v=0
66960 On ch=1 n=c#7 v=90
67120 On ch=1 n=c#7 v=0
67120 On ch=1 n=a#6 v=90
67200 On ch=1 n=a#6 v=0
67200 On ch=1 n=g#6 v=0
67200 On ch=1 n=d#6 v=0
67200 On ch=1 n=d#6 v=80
67200 On ch=1 n=g#6 v=80
67360 On ch=1 n=g#6 v=0
67360 On ch=1 n=g#6 v=80
67440 On ch=1 n=g#6 v=0
67440 On ch=1 n=f#6 v=80
67600 On ch=1 n=f#6 v=0
67600 On ch=1 n=d#6 v=80
67680 On ch=1 n=d#6 v=0
67680 On ch=1 n=d#6 v=0
67680 On ch=1 n=d#5 v=70
67680 On ch=1 n=g#5 v=70
67680 On ch=1 n=c#6 v=70
67840 On ch=1 n=c#6 v=0
67840 On ch=1 n=d#6 v=70
67920 On ch=1 n=d#6 v=0
67920 On ch=1 n=c#6 v=70
68080 On ch=1 n=c#6 v=0
68080 On ch=1 n=a#5 v=70
68160 On ch=1 n=a#5 v=0
68160 On ch=1 n=g#5 v=0
68160 On ch=1 n=d#5 v=0
68160 On ch=1 n=b4 v=100
68240 On ch=1 n=b4 v=0
68240 On ch=1 n=f#5 v=100
68320 On ch=1 n=f#5 v=0
68320 On ch=1 n=c#5 v=100
68400 On ch=1 n=c#5 v=0
68400 On ch=1 n=e5 v=100
68480 On ch=1 n=e5 v=0
68480 On ch=1 n=g#5 v=100
68560 On ch=1 n=g#5 v=0
68560 On ch=1 n=b5 v=100
68640 On ch=1 n=b5 v=0
68640 On ch=1 n=b4 v=100
68720 On ch=1 n=b4 v=0
68720 On ch=1 n=f#5 v=100
68800 On ch=1 n=f#5 v=0
68800 On ch=1 n=c#5 v=100
68880 On ch=1 n=c#5 v=0
68880 On ch=1 n=e5 v=100
68960 On ch=1 n=e5 v=0
68960 On ch=1 n=g#5 v=100
69040 On ch=1 n=g#5 v=0
69040 On ch=1 n=b5 v=100
69120 On ch=1 n=b5 v=0
69120 On ch=1 n=b4 v=100
69200 On ch=1 n=b4 v=0
69200 On ch=1 n=f#5 v=100
69280 On ch=1 n=f#5 v=0
69280 On ch=1 n=c#5 v=100
69360 On ch=1 n=c#5 v=0
69360 On ch=1 n=e5 v=100
69440 On ch=1 n=e5 v=0
69440 On ch=1 n=g#5 v=100
69520 On ch=1 n=g#5 v=0
69520 On ch=1 n=b5 v=100
69600 On ch=1 n=b5 v=0
69760 On ch=1 n=g#6 v=60
69800 On ch=1 n=g#6 v=0
69840 On ch=1 n=g#6 v=60
69880 On ch=1 n=g#6 v=0
69920 On ch=1 n=a#6 v=60
69960 On ch=1 n=a#6 v=0
70000 On ch=1 n=g#6 v=60
70040 On ch=1 n=g#6 v=0
70080 On ch=1 n=a#6 v=60
70120 On ch=1 n=a#6 v=0
70240 On ch=1 n=b6 v=60
70320 On ch=1 n=b6 v=0
70320 On ch=1 n=c#7 v=60
70720 On ch=1 n=c#7 v=0
70720 On ch=1 n=b6 v=60
70760 On ch=1 n=b6 v=0
70800 On ch=1 n=c#7 v=60
70840 On ch=1 n=c#7 v=0
70880 On ch=1 n=b6 v=60
70920 On ch=1 n=b6 v=0
70960 On ch=1 n=a#6 v=60
71000 On ch=1 n=a#6 v=0
71040 On ch=1 n=a#6 v=60
71080 On ch=1 n=a#6 v=0
71200 On ch=1 n=g#6 v=60
71280 On ch=1 n=g#6 v=0
71280 On ch=1 n=a#6 v=60
71680 On ch=1 n=a#6 v=0
71680 On ch=1 n=g#6 v=60
71760 On ch=1 n=g#6 v=0
71760 On ch=1 n=a#6 v=60
71920 On ch=1 n=a#6 v=0
71920 On ch=1 n=g#6 v=60
72000 On ch=1 n=g#6 v=0
72000 On ch=1 n=f#6 v=60
72160 On ch=1 n=f#6 v=0
72160 On ch=1 n=g#6 v=60
72240 On ch=1 n=g#6 v=0
72240 On ch=1 n=f#6 v=60
72400 On ch=1 n=f#6 v=0
72400 On ch=1 n=d#6 v=60
72480 On ch=1 n=d#6 v=0
72480 On ch=1 n=c#6 v=60
72640 On ch=1 n=c#6 v=0
72640 On ch=1 n=d#6 v=60
72720 On ch=1 n=d#6 v=0
72720 On ch=1 n=c#6 v=60
72880 On ch=1 n=c#6 v=0
72880 On ch=1 n=a#5 v=60
72960 On ch=1 n=a#5 v=0
72960 On ch=1 n=g#5 v=60
73200 On ch=1 n=g#5 v=0
73200 On ch=1 n=a#5 v=60
73240 On ch=1 n=a#5 v=0
73360 On ch=1 n=c#6 v=60
73440 On ch=1 n=c#6 v=0
73440 On ch=1 n=d#6 v=60
73680 On ch=1 n=d#6 v=0
73680 On ch=1 n=c#6 v=60
73720 On ch=1 n=c#6 v=0
73840 On ch=1 n=a#5 v=60
73920 On ch=1 n=a#5 v=0
73920 On ch=1 n=g#5 v=60
74160 On ch=1 n=g#5 v=0
74160 On ch=1 n=a#5 v=60
74240 On ch=1 n=a#5 v=0
74240 On ch=1 n=c#6 v=60
74320 On ch=1 n=c#6 v=0
74320 On ch=1 n=d#6 v=60
74400 On ch=1 n=d#6 v=0
74400 On ch=1 n=f#6 v=60
74460 On ch=1 n=f#6 v=0
74520 On ch=1 n=d#6 v=60
74580 On ch=1 n=d#6 v=0
74640 On ch=1 n=c#6 v=60
74700 On ch=1 n=c#6 v=0
74760 On ch=1 n=a#5 v=60
74820 On ch=1 n=a#5 v=0
74880 On ch=1 n=g#5 v=60
75120 On ch=1 n=g#5 v=0
75120 On ch=1 n=a#5 v=60
75280 On ch=1 n=a#5 v=0
75280 On ch=1 n=c#6 v=60
75360 On ch=1 n=c#6 v=0
75360 On ch=1 n=d#7 v=80
75360 On ch=1 n=d#6 v=80
75600 On ch=1 n=d#6 v=0
75600 On ch=1 n=c#6 v=80
75760 On ch=1 n=c#6 v=0
75760 On ch=1 n=a#5 v=80
75840 On ch=1 n=a#5 v=0
75840 On ch=1 n=d#7 v=0
75840 On ch=1 n=c#7 v=110
75840 On ch=1 n=c#6 v=110
75920 On ch=1 n=f#6 v=100
76000 On ch=1 n=f#6 v=0
76000 On ch=1 n=e6 v=100
76080 On ch=1 n=e6 v=0
76080 On ch=1 n=c#6 v=0
76080 On ch=1 n=c#7 v=0
76080 On ch=1 n=f#5 v=110
76080 On ch=1 n=f#6 v=110
76160 On ch=1 n=e6 v=100
76240 On ch=1 n=e6 v=0
76240 On ch=1 n=c#6 v=100
76320 On ch=1 n=c#6 v=0
76320 On ch=1 n=f#6 v=0
76320 On ch=1 n=f#5 v=0
76320 On ch=1 n=g#5 v=110
76320 On ch=1 n=g#6 v=110
76400 On ch=1 n=e6 v=100
76480 On ch=1 n=e6 v=0
76480 On ch=1 n=c#6 v=100
76560 On ch=1 n=c#6 v=0
76560 On ch=1 n=g#6 v=0
76560 On ch=1 n=g#5 v=0
76560 On ch=1 n=d#6 v=110
76560 On ch=1 n=d#7 v=110
76640 On ch=1 n=a#6 v=100
76720 On ch=1 n=a#6 v=0
76720 On ch=1 n=f#6 v=100
76800 On ch=1 n=f#6 v=0
76800 On ch=1 n=d#7 v=0
76800 On ch=1 n=d#6 v=0
76800 On ch=1 n=b5 v=110
76800 On ch=1 n=b6 v=110
76880 On ch=1 n=f#6 v=100
76960 On ch=1 n=f#6 v=0
76960 On ch=1 n=d#6 v=100
77040 On ch=1 n=d#6 v=0
77040 On ch=1 n=b6 v=0
77040 On ch=1 n=b5 v=0
77040 On ch=1 n=f#5 v=110
77040 On ch=1 n=f#6 v=110
77120 On ch=1 n=d#6 v=100
77200 On ch=1 n=d#6 v=0
77200 On ch=1 n=b5 v=100
77280 On ch=1 n=b5 v=0
77280 On ch=1 n=f#6 v=0
77280 On ch=1 n=f#5 v=0
77280 On ch=1 n=g#6 v=110
77280 On ch=1 n=g#5 v=110
77360 On ch=1 n=d#6 v=100
77440 On ch=1 n=d#6 v=0
77440 On ch=1 n=b5 v=100
77600 On ch=1 n=b5 v=0
77600 On ch=1 n=d#6 v=100
77680 On ch=1 n=d#6 v=0
77680 On ch=1 n=b5 v=100
77760 On ch=1 n=b5 v=0
77760 On ch=1 n=b4 v=100
77840 On ch=1 n=b4 v=0
77840 On ch=1 n=f#5 v=100
77920 On ch=1 n=f#5 v=0
77920 On ch=1 n=c#5 v=100
78000 On ch=1 n=c#5 v=0
78000 On ch=1 n=e5 v=100
78080 On ch=1 n=e5 v=0
78080 On ch=1 n=g#5 v=100
78160 On ch=1 n=g#5 v=0
78160 On ch=1 n=b5 v=100
78240 On ch=1 n=b5 v=0
78240 On ch=1 n=g#5 v=0
78240 On ch=1 n=g#6 v=0
78240 On ch=1 n=a#5 v=100
78240 On ch=1 n=a#6 v=100
78240 On ch=1 n=g#6 v=100
78240 On ch=1 n=e6 v=100
78480 On ch=1 n=a#6 v=0
78480 On ch=1 n=a#5 v=0
78480 On ch=1 n=d#7 v=100
78480 On ch=1 n=d#6 v=100
78720 On ch=1 n=d#6 v=0
78720 On ch=1 n=d#7 v=0
78720 On ch=1 n=e6 v=0
78720 On ch=1 n=g#6 v=0
78720 On ch=1 n=b6 v=110
78720 On ch=1 n=f#6 v=110
78720 On ch=1 n=d#6 v=110
78720 On ch=1 n=b5 v=110
78900 On ch=1 n=g#6 v=110
78920 On ch=1 n=b6 v=110
78940 On ch=1 n=d#7 v=110
78960 On ch=1 n=b5 v=0
78960 On ch=1 n=d#6 v=0
78960 On ch=1 n=f#6 v=0
78960 On ch=1 n=b6 v=0
78960 On ch=1 n=g#7 v=110
79140 On ch=1 n=g#6 v=0
79160 On ch=1 n=b6 v=0
79180 On ch=1 n=d#7 v=0
79200 On ch=1 n=g#7 v=0
79200 On ch=1 n=b4 v=110
79240 On ch=1 n=b4 v=0
79280 On ch=1 n=f#5 v=100
79360 On ch=1 n=f#5 v=0
79360 On ch=1 n=c#5 v=100
79440 On ch=1 n=c#5 v=0
79440 On ch=1 n=d#5 v=100
79440 On ch=1 n=e5 v=110
79520 On ch=1 n=e5 v=0
79520 On ch=1 n=g#5 v=100
79600 On ch=1 n=g#5 v=0
79600 On ch=1 n=b5 v=100
79680 On ch=1 n=b5 v=0
79680 On ch=1 n=d#5 v=0
79680 On ch=1 n=c#5 v=110
79760 On ch=1 n=f#5 v=100
79840 On ch=1 n=f#5 v=0
79840 On ch=1 n=e5 v=100
79920 On ch=1 n=e5 v=0
79920 On ch=1 n=c#5 v=0
79920 On ch=1 n=f#4 v=110
80000 On ch=1 n=f#5 v=100
80080 On ch=1 n=f#5 v=0
80080 On ch=1 n=e5 v=100
80160 On ch=1 n=e5 v=0
80160 On ch=1 n=f#4 v=0
80160 On ch=1 n=g#4 v=110
80240 On ch=1 n=f#5 v=100
80320 On ch=1 n=f#5 v=0
80320 On ch=1 n=e5 v=100
80400 On ch=1 n=e5 v=0
80400 On ch=1 n=g#4 v=0
80400 On ch=1 n=d#5 v=110
80480 On ch=1 n=f#5 v=100
80560 On ch=1 n=f#5 v=0
80560 On ch=1 n=e5 v=100
80640 On ch=1 n=e5 v=0
80640 On ch=1 n=d#5 v=0
81200 On ch=1 n=f#5 v=70
81280 On ch=1 n=f#5 v=0
81280 On ch=1 n=c#5 v=70
81360 On ch=1 n=c#5 v=0
81360 On ch=1 n=e5 v=70
81440 On ch=1 n=e5 v=0
81440 On ch=1 n=g#5 v=70
81520 On ch=1 n=g#5 v=0
81520 On ch=1 n=b5 v=70
81600 On ch=1 n=b5 v=0
81760 On ch=1 n=f#5 v=80
81800 On ch=1 n=f#5 v=0
81840 On ch=1 n=f#5 v=80
81920 On ch=1 n=f#5 v=0
81920 On ch=1 n=e5 v=80
82000 On ch=1 n=e5 v=0
82000 On ch=1 n=d#5 v=80
82080 On ch=1 n=d#5 v=0
82080 On ch=1 n=c#5 v=90
82240 On ch=1 n=c#5 v=0
82240 On ch=1 n=b4 v=90
82320 On ch=1 n=b4 v=0
82320 On ch=1 n=g#4 v=90
82400 On ch=1 n=g#4 v=0
83120 On ch=1 n=f#5 v=70
83200 On ch=1 n=f#5 v=0
83200 On ch=1 n=c#5 v=70
83280 On ch=1 n=c#5 v=0
83280 On ch=1 n=e5 v=70
83360 On ch=1 n=e5 v=0
83360 On ch=1 n=g#5 v=70
83440 On ch=1 n=g#5 v=0
83440 On ch=1 n=b5 v=70
83520 On ch=1 n=b5 v=0
83680 On ch=1 n=f#5 v=80
83720 On ch=1 n=f#5 v=0
83760 On ch=1 n=f#5 v=80
83840 On ch=1 n=f#5 v=0
83840 On ch=1 n=e5 v=80
83920 On ch=1 n=e5 v=0
83920 On ch=1 n=d#5 v=80
84000 On ch=1 n=d#5 v=0
84000 On ch=1 n=c#5 v=90
84160 On ch=1 n=c#5 v=0
84160 On ch=1 n=b4 v=90
84240 On ch=1 n=b4 v=0
84240 On ch=1 n=g#4 v=90
84320 On ch=1 n=g#4 v=0
85040 On ch=1 n=f#5 v=70
85120 On ch=1 n=f#5 v=0
85120 On ch=1 n=c#5 v=70
85200 On ch=1 n=c#5 v=0
85200 On ch=1 n=e5 v=70
85280 On ch=1 n=e5 v=0
85280 On ch=1 n=g#5 v=70
85360 On ch=1 n=g#5 v=0
85360 On ch=1 n=b5 v=70
85440 On ch=1 n=b5 v=0
85520 On ch=1 n=f#6 v=80
85600 On ch=1 n=f#6 v=0
85600 On ch=1 n=c#6 v=80
85680 On ch=1 n=c#6 v=0
85680 On ch=1 n=e6 v=80
85760 On ch=1 n=e6 v=0
85760 On ch=1 n=g#6 v=80
85840 On ch=1 n=g#6 v=0
85840 On ch=1 n=b6 v=80
85920 On ch=1 n=b6 v=0
86000 On ch=1 n=f#7 v=90
86080 On ch=1 n=f#7 v=0
86080 On ch=1 n=c#7 v=90
86160 On ch=1 n=c#7 v=0
86160 On ch=1 n=e7 v=90
86240 On ch=1 n=e7 v=0
86240 On ch=1 n=g#7 v=90
86320 On ch=1 n=g#7 v=0
86320 On ch=1 n=b7 v=90
86400 On ch=1 n=b7 v=0
86480 On ch=1 n=f#7 v=100
86560 On ch=1 n=f#7 v=0
86560 On ch=1 n=c#7 v=100
86640 On ch=1 n=c#7 v=0
86640 On ch=1 n=e7 v=100
86720 On ch=1 n=e7 v=0
86720 On ch=1 n=g#7 v=100
86800 On ch=1 n=g#7 v=0
86800 On ch=1 n=b7 v=100
86880 On ch=1 n=b7 v=0
86960 On ch=1 n=f#7 v=100
87040 On ch=1 n=f#7 v=0
87040 On ch=1 n=c#7 v=100
87120 On ch=1 n=c#7 v=0
87120 On ch=1 n=e7 v=100
87200 On ch=1 n=e7 v=0
87200 On ch=1 n=g#7 v=100
87280 On ch=1 n=g#7 v=0
87280 On ch=1 n=b7 v=100
87360 On ch=1 n=b7 v=0
87440 On ch=1 n=f#7 v=100
87520 On ch=1 n=f#7 v=0
87520 On ch=1 n=c#7 v=100
87600 On ch=1 n=c#7 v=0
87600 On ch=1 n=e7 v=100
87680 On ch=1 n=e7 v=0
87680 On ch=1 n=g#7 v=100
87760 On ch=1 n=g#7 v=0
87760 On ch=1 n=b7 v=100
87840 On ch=1 n=b7 v=0
87920 On ch=1 n=f#7 v=100
88000 On ch=1 n=f#7 v=0
88000 On ch=1 n=c#7 v=100
88080 On ch=1 n=c#7 v=0
88080 On ch=1 n=e7 v=100
88160 On ch=1 n=e7 v=0
88160 On ch=1 n=g#7 v=100
88240 On ch=1 n=g#7 v=0
88240 On ch=1 n=b7 v=100
88320 On ch=1 n=b7 v=0
88512 On ch=1 n=b6 v=110
88560 On ch=1 n=b6 v=0
88560 On ch=1 n=d#7 v=110
88608 On ch=1 n=d#7 v=0
88608 On ch=1 n=f#7 v=110
88656 On ch=1 n=f#7 v=0
88656 On ch=1 n=g#7 v=110
88704 On ch=1 n=g#7 v=0
88704 On ch=1 n=b7 v=110
88752 On ch=1 n=b7 v=0
89472 On ch=1 n=b6 v=120
89520 On ch=1 n=b6 v=0
89520 On ch=1 n=d#7 v=120
89568 On ch=1 n=d#7 v=0
89568 On ch=1 n=f#7 v=120
89616 On ch=1 n=f#7 v=0
89616 On ch=1 n=g#7 v=120
89664 On ch=1 n=g#7 v=0
89664 On ch=1 n=b7 v=120
89760 On ch=1 n=b7 v=0
89760 Meta TrkEnd
TrkEnd
MTrk
0 SeqSpec 43 00 01 00
0 Meta TrkName "Right Bass"
0 Meta 0x21 00
80720 On ch=1 n=f#4 v=60
80800 On ch=1 n=f#4 v=0
80800 On ch=1 n=c#4 v=60
80880 On ch=1 n=c#4 v=0
80880 On ch=1 n=e4 v=60
80960 On ch=1 n=e4 v=0
80960 On ch=1 n=g#4 v=60
81040 On ch=1 n=g#4 v=0
81040 On ch=1 n=b4 v=60
81120 On ch=1 n=b4 v=0
82480 On ch=1 n=c#4 v=100
82480 On ch=1 n=f#4 v=100
82560 On ch=1 n=f#4 v=0
82560 On ch=1 n=c#4 v=0
82640 On ch=1 n=f#4 v=60
82720 On ch=1 n=f#4 v=0
82720 On ch=1 n=c#4 v=60
82800 On ch=1 n=c#4 v=0
82800 On ch=1 n=e4 v=60
82880 On ch=1 n=e4 v=0
82880 On ch=1 n=g#4 v=60
82960 On ch=1 n=g#4 v=0
82960 On ch=1 n=b4 v=60
83040 On ch=1 n=b4 v=0
84400 On ch=1 n=c#4 v=100
84400 On ch=1 n=f#4 v=100
84480 On ch=1 n=f#4 v=0
84480 On ch=1 n=c#4 v=0
84560 On ch=1 n=f#4 v=60
84640 On ch=1 n=f#4 v=0
84640 On ch=1 n=c#4 v=60
84720 On ch=1 n=c#4 v=0
84720 On ch=1 n=e4 v=60
84800 On ch=1 n=e4 v=0
84800 On ch=1 n=g#4 v=60
84880 On ch=1 n=g#4 v=0
84880 On ch=1 n=b4 v=60
84960 On ch=1 n=b4 v=0
84960 Meta TrkEnd
TrkEnd
MTrk
0 SeqSpec 43 00 01 00
0 Meta TrkName "Left Treble"
0 Meta 0x21 00
0 On ch=1 n=b4 v=40
80 On ch=1 n=b4 v=0
320 On ch=1 n=c#5 v=40
400 On ch=1 n=c#5 v=0
640 On ch=1 n=g#5 v=40
720 On ch=1 n=g#5 v=0
2080 On ch=1 n=f#6 v=40
2120 On ch=1 n=f#6 v=0
2160 On ch=1 n=f#6 v=40
2200 On ch=1 n=f#6 v=0
2240 On ch=1 n=e6 v=40
2280 On ch=1 n=e6 v=0
2320 On ch=1 n=d#6 v=40
2360 On ch=1 n=d#6 v=0
2400 On ch=1 n=c#6 v=40
2440 On ch=1 n=c#6 v=0
2560 On ch=1 n=b5 v=40
2640 On ch=1 n=b5 v=0
2640 On ch=1 n=g#5 v=40
3000 On ch=1 n=g#5 v=40
3040 On ch=1 n=c#6 v=40
3080 On ch=1 n=e6 v=40
3120 On ch=1 n=g#5 v=0
3120 On ch=1 n=g#6 v=40
3240 On ch=1 n=g#5 v=0
3280 On ch=1 n=c#6 v=0
3320 On ch=1 n=e6 v=0
3360 On ch=1 n=g#6 v=0
3840 On ch=1 n=b4 v=40
3920 On ch=1 n=b4 v=0
4160 On ch=1 n=c#5 v=40
4240 On ch=1 n=c#5 v=0
4480 On ch=1 n=g#5 v=40
4560 On ch=1 n=g#5 v=0
4800 On ch=1 n=b4 v=40
4880 On ch=1 n=b4 v=0
4960 On ch=1 n=f#4 v=40
5040 On ch=1 n=f#4 v=0
5120 On ch=1 n=g#4 v=40
5200 On ch=1 n=g#4 v=0
5280 On ch=1 n=b4 v=40
5360 On ch=1 n=b4 v=0
5440 On ch=1 n=c#5 v=40
5520 On ch=1 n=c#5 v=0
5600 On ch=1 n=e5 v=40
5680 On ch=1 n=e5 v=0
6360 On ch=1 n=g#5 v=60
6400 On ch=1 n=c#6 v=60
6440 On ch=1 n=e6 v=60
6480 On ch=1 n=g#5 v=0
6480 On ch=1 n=g#6 v=60
6520 On ch=1 n=c#6 v=0
6560 On ch=1 n=e6 v=0
6600 On ch=1 n=g#6 v=0
6600 On ch=1 n=b4 v=60
6640 On ch=1 n=c#5 v=60
6680 On ch=1 n=e5 v=60
6720 On ch=1 n=f#5 v=60
6840 On ch=1 n=g#5 v=60
6880 On ch=1 n=c#6 v=60
6920 On ch=1 n=e6 v=60
6960 On ch=1 n=g#5 v=0
6960 On ch=1 n=g#6 v=60
7000 On ch=1 n=c#6 v=0
7040 On ch=1 n=e6 v=0
7080 On ch=1 n=g#6 v=0
7080 On ch=1 n=b4 v=0
7080 On ch=1 n=b4 v=70
7120 On ch=1 n=c#5 v=0
7120 On ch=1 n=c#5 v=70
7160 On ch=1 n=e5 v=0
7160 On ch=1 n=e5 v=70
7200 On ch=1 n=f#5 v=0
7200 On ch=1 n=f#5 v=70
7320 On ch=1 n=g#5 v=70
7360 On ch=1 n=c#6 v=70
7400 On ch=1 n=e6 v=70
7440 On ch=1 n=g#5 v=0
7440 On ch=1 n=g#6 v=70
7480 On ch=1 n=c#6 v=0
7520 On ch=1 n=e6 v=0
7560 On ch=1 n=g#6 v=0
7560 On ch=1 n=b4 v=0
7560 On ch=1 n=b4 v=80
7600 On ch=1 n=c#5 v=0
7600 On ch=1 n=d5 v=80
7640 On ch=1 n=e5 v=0
7640 On ch=1 n=f5 v=80
7680 On ch=1 n=f#5 v=0
7680 On ch=1 n=f#5 v=80
7800 On ch=1 n=g#5 v=80
7840 On ch=1 n=d6 v=80
7880 On ch=1 n=f6 v=80
7920 On ch=1 n=g#6 v=80
8040 On ch=1 n=g#5 v=0
8040 On ch=1 n=b4 v=0
8040 On ch=1 n=b4 v=90
8080 On ch=1 n=d6 v=0
8080 On ch=1 n=d5 v=0
8080 On ch=1 n=d5 v=90
8120 On ch=1 n=f6 v=0
8120 On ch=1 n=f5 v=0
8120 On ch=1 n=f5 v=90
8160 On ch=1 n=g#6 v=0
8160 On ch=1 n=f#5 v=0
8160 On ch=1 n=f#5 v=90
8280 On ch=1 n=g#5 v=90
8320 On ch=1 n=d6 v=90
8360 On ch=1 n=f6 v=90
8400 On ch=1 n=g#6 v=90
8520 On ch=1 n=g#5 v=0
8520 On ch=1 n=b4 v=0
8560 On ch=1 n=d6 v=0
8560 On ch=1 n=d5 v=0
8600 On ch=1 n=f6 v=0
8600 On ch=1 n=f5 v=0
8640 On ch=1 n=g#6 v=0
8640 On ch=1 n=f#5 v=0
9120 On ch=1 n=d#5 v=110
9120 On ch=1 n=f#5 v=110
9120 On ch=1 n=c#6 v=110
9360 On ch=1 n=c#6 v=0
9360 On ch=1 n=f#5 v=0
9360 On ch=1 n=d#5 v=0
9360 On ch=1 n=d#6 v=110
9360 On ch=1 n=f#6 v=110
9360 On ch=1 n=c#7 v=110
9680 On ch=1 n=c#7 v=0
9680 On ch=1 n=f#6 v=0
9680 On ch=1 n=d#6 v=0
10160 On ch=1 n=f#5 v=60
10240 On ch=1 n=f#5 v=0
10240 On ch=1 n=d#5 v=60
10320 On ch=1 n=d#5 v=0
10320 On ch=1 n=f#5 v=60
10400 On ch=1 n=f#5 v=0
10400 On ch=1 n=d#5 v=60
10480 On ch=1 n=d#5 v=0
10480 On ch=1 n=f#5 v=60
10560 On ch=1 n=f#5 v=0
10640 On ch=1 n=f#5 v=60
10720 On ch=1 n=f#5 v=0
10720 On ch=1 n=d#5 v=60
10800 On ch=1 n=d#5 v=0
10800 On ch=1 n=f#5 v=60
10880 On ch=1 n=f#5 v=0
10880 On ch=1 n=d#5 v=60
10960 On ch=1 n=d#5 v=0
10960 On ch=1 n=f#5 v=60
11040 On ch=1 n=f#5 v=0
11040 On ch=1 n=d#5 v=60
11120 On ch=1 n=d#5 v=0
11120 On ch=1 n=f#5 v=60
11200 On ch=1 n=f#5 v=0
11200 On ch=1 n=d#5 v=60
11280 On ch=1 n=d#5 v=0
11280 On ch=1 n=f#5 v=60
11360 On ch=1 n=f#5 v=0
11360 On ch=1 n=d#5 v=60
11440 On ch=1 n=d#5 v=0
11440 On ch=1 n=f#5 v=60
11520 On ch=1 n=f#5 v=0
11520 On ch=1 n=d#5 v=50
11600 On ch=1 n=d#5 v=0
11600 On ch=1 n=f#5 v=50
11680 On ch=1 n=f#5 v=0
11680 On ch=1 n=d#5 v=50
11760 On ch=1 n=d#5 v=0
11760 On ch=1 n=f#5 v=50
11840 On ch=1 n=f#5 v=0
11840 On ch=1 n=d#5 v=50
11920 On ch=1 n=d#5 v=0
11920 On ch=1 n=f#5 v=50
12000 On ch=1 n=f#5 v=0
12000 On ch=1 n=d#5 v=50
12080 On ch=1 n=d#5 v=0
12080 On ch=1 n=f#5 v=50
12160 On ch=1 n=f#5 v=0
12160 On ch=1 n=d#5 v=50
12240 On ch=1 n=d#5 v=0
12240 On ch=1 n=f#5 v=50
12320 On ch=1 n=f#5 v=0
12320 On ch=1 n=d#5 v=50
12400 On ch=1 n=d#5 v=0
12400 On ch=1 n=f#5 v=50
12480 On ch=1 n=f#5 v=0
12480 On ch=1 n=d#5 v=40
12560 On ch=1 n=d#5 v=0
12560 On ch=1 n=f#5 v=40
12640 On ch=1 n=f#5 v=0
12640 On ch=1 n=d#5 v=40
12720 On ch=1 n=d#5 v=0
12720 On ch=1 n=f#5 v=40
12800 On ch=1 n=f#5 v=0
12800 On ch=1 n=d#5 v=40
12880 On ch=1 n=d#5 v=0
12880 On ch=1 n=f#5 v=40
12960 On ch=1 n=f#5 v=0
12960 On ch=1 n=d#5 v=40
13040 On ch=1 n=d#5 v=0
13040 On ch=1 n=f#5 v=40
13120 On ch=1 n=f#5 v=0
13120 On ch=1 n=d#5 v=40
13200 On ch=1 n=d#5 v=0
13200 On ch=1 n=f#5 v=40
13280 On ch=1 n=f#5 v=0
13280 On ch=1 n=d#5 v=40
13360 On ch=1 n=d#5 v=0
13360 On ch=1 n=f#5 v=40
13440 On ch=1 n=f#5 v=0
13440 On ch=1 n=d#5 v=40
13520 On ch=1 n=d#5 v=0
13520 On ch=1 n=f#5 v=40
13600 On ch=1 n=f#5 v=0
13600 On ch=1 n=d#5 v=40
13680 On ch=1 n=d#5 v=0
13680 On ch=1 n=f#5 v=40
13760 On ch=1 n=f#5 v=0
13760 On ch=1 n=d#5 v=40
13840 On ch=1 n=d#5 v=0
13840 On ch=1 n=f#5 v=40
13920 On ch=1 n=f#5 v=0
13920 On ch=1 n=d#5 v=40
14000 On ch=1 n=d#5 v=0
14000 On ch=1 n=f#5 v=40
14080 On ch=1 n=f#5 v=0
14080 On ch=1 n=d#5 v=40
14160 On ch=1 n=d#5 v=0
14160 On ch=1 n=f#5 v=40
14240 On ch=1 n=f#5 v=0
14240 On ch=1 n=d#5 v=40
14320 On ch=1 n=d#5 v=0
14320 On ch=1 n=f#5 v=40
14400 On ch=1 n=f#5 v=0
14400 On ch=1 n=d#5 v=40
14480 On ch=1 n=d#5 v=0
14480 On ch=1 n=f#5 v=40
14560 On ch=1 n=f#5 v=0
14560 On ch=1 n=d#5 v=40
14640 On ch=1 n=d#5 v=0
14640 On ch=1 n=f#5 v=40
14720 On ch=1 n=f#5 v=0
14720 On ch=1 n=d#5 v=40
14800 On ch=1 n=d#5 v=0
14800 On ch=1 n=f#5 v=40
14880 On ch=1 n=f#5 v=0
14880 On ch=1 n=d#5 v=40
14960 On ch=1 n=d#5 v=0
14960 On ch=1 n=f#5 v=40
15040 On ch=1 n=f#5 v=0
15040 On ch=1 n=d#5 v=40
15120 On ch=1 n=d#5 v=0
15120 On ch=1 n=f#5 v=40
15200 On ch=1 n=f#5 v=0
15200 On ch=1 n=d#5 v=40
15280 On ch=1 n=d#5 v=0
15280 On ch=1 n=f#5 v=40
15360 On ch=1 n=f#5 v=0
15360 On ch=1 n=d#5 v=40
15440 On ch=1 n=d#5 v=0
15440 On ch=1 n=f#5 v=40
15520 On ch=1 n=f#5 v=0
15520 On ch=1 n=d#5 v=40
15600 On ch=1 n=d#5 v=0
15600 On ch=1 n=f#5 v=40
15680 On ch=1 n=f#5 v=0
15680 On ch=1 n=d#5 v=40
15760 On ch=1 n=d#5 v=0
15760 On ch=1 n=f#5 v=40
15840 On ch=1 n=f#5 v=0
15840 On ch=1 n=c#5 v=40
15920 On ch=1 n=c#5 v=0
15920 On ch=1 n=e5 v=40
16000 On ch=1 n=e5 v=0
16000 On ch=1 n=c#5 v=40
16080 On ch=1 n=c#5 v=0
16080 On ch=1 n=d#5 v=40
16160 On ch=1 n=d#5 v=0
16160 On ch=1 n=f#5 v=40
16240 On ch=1 n=f#5 v=0
16240 On ch=1 n=d#5 v=40
16320 On ch=1 n=d#5 v=0
16320 On ch=1 n=e5 v=40
16400 On ch=1 n=e5 v=0
16400 On ch=1 n=g#5 v=40
16480 On ch=1 n=g#5 v=0
16480 On ch=1 n=e5 v=40
16560 On ch=1 n=e5 v=0
16560 On ch=1 n=d#5 v=40
16640 On ch=1 n=d#5 v=0
16640 On ch=1 n=f#5 v=40
16720 On ch=1 n=f#5 v=0
16720 On ch=1 n=d#5 v=40
16800 On ch=1 n=d#5 v=0
16800 On ch=1 n=c#5 v=40
16880 On ch=1 n=c#5 v=0
16880 On ch=1 n=e5 v=40
16960 On ch=1 n=e5 v=0
16960 On ch=1 n=c#5 v=40
17040 On ch=1 n=c#5 v=0
17040 On ch=1 n=d#5 v=40
17120 On ch=1 n=d#5 v=0
17120 On ch=1 n=f#5 v=40
17200 On ch=1 n=f#5 v=0
17200 On ch=1 n=d#5 v=40
17280 On ch=1 n=d#5 v=0
17280 On ch=1 n=e5 v=40
17360 On ch=1 n=e5 v=0
17360 On ch=1 n=g#5 v=40
17440 On ch=1 n=g#5 v=0
17440 On ch=1 n=e5 v=40
17520 On ch=1 n=e5 v=0
17520 On ch=1 n=d#5 v=40
17600 On ch=1 n=d#5 v=0
17600 On ch=1 n=f#5 v=40
17680 On ch=1 n=f#5 v=0
17680 On ch=1 n=d#5 v=40
17760 On ch=1 n=d#5 v=0
17760 On ch=1 n=c#5 v=40
17840 On ch=1 n=c#5 v=0
17840 On ch=1 n=e5 v=40
17920 On ch=1 n=e5 v=0
17920 On ch=1 n=c#5 v=40
18000 On ch=1 n=c#5 v=0
18000 On ch=1 n=d#5 v=40
18080 On ch=1 n=d#5 v=0
18080 On ch=1 n=f#5 v=40
18160 On ch=1 n=f#5 v=0
18160 On ch=1 n=d#5 v=40
18240 On ch=1 n=d#5 v=0
18240 On ch=1 n=c#5 v=40
18320 On ch=1 n=c#5 v=0
18320 On ch=1 n=e5 v=40
18400 On ch=1 n=e5 v=0
18400 On ch=1 n=c#5 v=40
18480 On ch=1 n=c#5 v=0
18480 On ch=1 n=b4 v=40
18560 On ch=1 n=b4 v=0
18560 On ch=1 n=d#5 v=40
18640 On ch=1 n=d#5 v=0
18640 On ch=1 n=b4 v=40
18720 On ch=1 n=b4 v=0
20160 On ch=1 n=g#5 v=50
20160 On ch=1 n=c#6 v=50
20220 On ch=1 n=c#6 v=0
20220 On ch=1 n=g#5 v=0
40020 On ch=1 n=f#5 v=110
40040 On ch=1 n=b5 v=110
40060 On ch=1 n=d#6 v=110
40080 On ch=1 n=f#6 v=110
40260 On ch=1 n=f#5 v=0
40280 On ch=1 n=b5 v=0
40300 On ch=1 n=d#6 v=0
40320 On ch=1 n=f#6 v=0
63360 On ch=1 n=d#6 v=90
63360 On ch=1 n=g#5 v=90
63420 On ch=1 n=g#5 v=0
63420 On ch=1 n=d#6 v=0
63600 On ch=1 n=g#6 v=90
63600 On ch=1 n=c#6 v=90
63660 On ch=1 n=c#6 v=0
63660 On ch=1 n=g#6 v=0
63840 On ch=1 n=g#4 v=100
63860 On ch=1 n=b4 v=100
63880 On ch=1 n=d#5 v=100
63900 On ch=1 n=f#5 v=100
63920 On ch=1 n=b5 v=100
64800 On ch=1 n=b5 v=0
64800 On ch=1 n=f#5 v=0
64800 On ch=1 n=d#5 v=0
64800 On ch=1 n=b4 v=0
64800 On ch=1 n=g#4 v=0
66720 On ch=1 n=g#4 v=90
66740 On ch=1 n=b4 v=90
66760 On ch=1 n=d#5 v=90
66780 On ch=1 n=f5 v=90
66800 On ch=1 n=b5 v=90
67200 On ch=1 n=b5 v=0
67200 On ch=1 n=f5 v=0
67200 On ch=1 n=d#5 v=0
67200 On ch=1 n=b4 v=0
67200 On ch=1 n=g#4 v=0
67200 On ch=1 n=g#4 v=80
67220 On ch=1 n=b4 v=80
67240 On ch=1 n=d#5 v=80
67260 On ch=1 n=f#5 v=80
67280 On ch=1 n=b5 v=80
67680 On ch=1 n=b5 v=0
67680 On ch=1 n=f#5 v=0
67680 On ch=1 n=d#5 v=0
67680 On ch=1 n=b4 v=0
67680 On ch=1 n=g#4 v=0
67680 On ch=1 n=g#4 v=70
67700 On ch=1 n=b4 v=70
67720 On ch=1 n=e5 v=70
68160 On ch=1 n=e5 v=0
68160 On ch=1 n=b4 v=0
68160 On ch=1 n=g#4 v=0
69600 On ch=1 n=b4 v=40
69680 On ch=1 n=b4 v=0
69680 On ch=1 n=f#5 v=40
69760 On ch=1 n=f#5 v=0
69760 On ch=1 n=c#5 v=40
69840 On ch=1 n=c#5 v=0
69840 On ch=1 n=e5 v=40
69920 On ch=1 n=e5 v=0
69920 On ch=1 n=g#5 v=40
70000 On ch=1 n=g#5 v=0
70000 On ch=1 n=b5 v=40
70080 On ch=1 n=b5 v=0
70080 On ch=1 n=d5 v=40
70160 On ch=1 n=d5 v=0
70160 On ch=1 n=e5 v=40
70240 On ch=1 n=e5 v=0
70240 On ch=1 n=d5 v=40
70320 On ch=1 n=d5 v=0
70320 On ch=1 n=e5 v=40
70400 On ch=1 n=e5 v=0
70400 On ch=1 n=d5 v=40
70480 On ch=1 n=d5 v=0
70480 On ch=1 n=e5 v=40
70560 On ch=1 n=e5 v=0
70560 On ch=1 n=b4 v=40
70640 On ch=1 n=b4 v=0
70640 On ch=1 n=f#5 v=40
70720 On ch=1 n=f#5 v=0
70720 On ch=1 n=c#5 v=40
70800 On ch=1 n=c#5 v=0
70800 On ch=1 n=e5 v=40
70880 On ch=1 n=e5 v=0
70880 On ch=1 n=g#5 v=40
70960 On ch=1 n=g#5 v=0
70960 On ch=1 n=b5 v=40
71040 On ch=1 n=b5 v=0
71040 On ch=1 n=d5 v=40
71120 On ch=1 n=d5 v=0
71120 On ch=1 n=e5 v=40
71200 On ch=1 n=e5 v=0
71200 On ch=1 n=d5 v=40
71280 On ch=1 n=d5 v=0
71280 On ch=1 n=e5 v=40
71360 On ch=1 n=e5 v=0
71360 On ch=1 n=d5 v=40
71440 On ch=1 n=d5 v=0
71440 On ch=1 n=e5 v=40
71520 On ch=1 n=e5 v=0
71520 On ch=1 n=b4 v=40
71600 On ch=1 n=b4 v=0
71600 On ch=1 n=f#5 v=40
71680 On ch=1 n=f#5 v=0
71680 On ch=1 n=c#5 v=40
71760 On ch=1 n=c#5 v=0
71760 On ch=1 n=e5 v=40
71840 On ch=1 n=e5 v=0
71840 On ch=1 n=g#5 v=40
71920 On ch=1 n=g#5 v=0
71920 On ch=1 n=b5 v=40
72000 On ch=1 n=b5 v=0
72000 On ch=1 n=d5 v=40
72080 On ch=1 n=d5 v=0
72080 On ch=1 n=c#5 v=40
72160 On ch=1 n=c#5 v=0
72160 On ch=1 n=d5 v=40
72240 On ch=1 n=d5 v=0
72240 On ch=1 n=d#5 v=40
72320 On ch=1 n=d#5 v=0
72320 On ch=1 n=d5 v=40
72400 On ch=1 n=d5 v=0
72400 On ch=1 n=d#5 v=40
72480 On ch=1 n=d#5 v=0
72480 On ch=1 n=e5 v=40
72560 On ch=1 n=e5 v=0
72560 On ch=1 n=d#5 v=40
72640 On ch=1 n=d#5 v=0
72640 On ch=1 n=e5 v=40
72720 On ch=1 n=e5 v=0
72720 On ch=1 n=f5 v=40
72800 On ch=1 n=f5 v=0
72800 On ch=1 n=e5 v=40
72880 On ch=1 n=e5 v=0
72880 On ch=1 n=f5 v=40
72960 On ch=1 n=f5 v=0
72960 On ch=1 n=f#5 v=40
73040 On ch=1 n=e5 v=40
73120 On ch=1 n=e5 v=0
73120 On ch=1 n=f#5 v=40
73200 On ch=1 n=f#5 v=0
73200 On ch=1 n=e5 v=40
73280 On ch=1 n=e5 v=0
73280 On ch=1 n=f#5 v=40
73360 On ch=1 n=f#5 v=0
73360 On ch=1 n=e5 v=40
73440 On ch=1 n=e5 v=0
73440 On ch=1 n=f#5 v=0
73440 On ch=1 n=g5 v=40
73520 On ch=1 n=e5 v=40
73600 On ch=1 n=e5 v=0
73600 On ch=1 n=g5 v=40
73680 On ch=1 n=g5 v=0
73680 On ch=1 n=e5 v=40
73760 On ch=1 n=e5 v=0
73760 On ch=1 n=g5 v=40
73840 On ch=1 n=g5 v=0
73840 On ch=1 n=e5 v=40
73920 On ch=1 n=e5 v=0
73920 On ch=1 n=g5 v=0
73920 On ch=1 n=f#5 v=40
74000 On ch=1 n=e5 v=40
74080 On ch=1 n=e5 v=0
74080 On ch=1 n=f#5 v=40
74160 On ch=1 n=f#5 v=0
74160 On ch=1 n=e5 v=40
74240 On ch=1 n=e5 v=0
74240 On ch=1 n=f#5 v=40
74320 On ch=1 n=f#5 v=0
74320 On ch=1 n=e5 v=40
74400 On ch=1 n=e5 v=0
74400 On ch=1 n=f#5 v=0
74400 On ch=1 n=g5 v=40
74480 On ch=1 n=e5 v=40
74560 On ch=1 n=e5 v=0
74560 On ch=1 n=g5 v=40
74640 On ch=1 n=g5 v=0
74640 On ch=1 n=e5 v=40
74720 On ch=1 n=e5 v=0
74720 On ch=1 n=g5 v=40
74800 On ch=1 n=g5 v=0
74800 On ch=1 n=e5 v=40
74880 On ch=1 n=e5 v=0
74880 On ch=1 n=g5 v=0
74880 On ch=1 n=f#5 v=40
74960 On ch=1 n=e5 v=40
75040 On ch=1 n=e5 v=0
75040 On ch=1 n=f#5 v=40
75120 On ch=1 n=f#5 v=0
75120 On ch=1 n=e5 v=40
75200 On ch=1 n=e5 v=0
75200 On ch=1 n=f#5 v=40
75280 On ch=1 n=f#5 v=0
75280 On ch=1 n=e5 v=40
75360 On ch=1 n=e5 v=0
75360 On ch=1 n=f#5 v=0
75360 On ch=1 n=g5 v=60
75440 On ch=1 n=e5 v=60
75520 On ch=1 n=e5 v=0
75520 On ch=1 n=g5 v=60
75600 On ch=1 n=g5 v=0
75600 On ch=1 n=e5 v=60
75680 On ch=1 n=e5 v=0
75680 On ch=1 n=g5 v=60
75760 On ch=1 n=g5 v=0
75760 On ch=1 n=e5 v=60
75840 On ch=1 n=e5 v=0
75840 On ch=1 n=g5 v=0
75840 On ch=1 n=b4 v=100
75840 On ch=1 n=b5 v=100
75840 On ch=1 n=c#5 v=100
75840 On ch=1 n=e5 v=100
75840 On ch=1 n=f#5 v=100
76080 On ch=1 n=b5 v=0
76080 On ch=1 n=b4 v=0
76080 On ch=1 n=a#4 v=100
76080 On ch=1 n=a#5 v=100
76320 On ch=1 n=a#5 v=0
76320 On ch=1 n=a#4 v=0
76320 On ch=1 n=f#5 v=0
76320 On ch=1 n=e5 v=0
76320 On ch=1 n=c#5 v=0
76320 On ch=1 n=g#4 v=100
76320 On ch=1 n=g#5 v=100
76320 On ch=1 n=a#4 v=100
76320 On ch=1 n=e5 v=100
76560 On ch=1 n=g#5 v=0
76560 On ch=1 n=g#4 v=0
76560 On ch=1 n=f#4 v=100
76560 On ch=1 n=f#5 v=100
76800 On ch=1 n=f#5 v=0
76800 On ch=1 n=f#4 v=0
76800 On ch=1 n=e5 v=0
76800 On ch=1 n=a#4 v=0
78900 On ch=1 n=f#5 v=110
78920 On ch=1 n=b5 v=110
78940 On ch=1 n=d#6 v=110
78960 On ch=1 n=f#6 v=110
79140 On ch=1 n=f#5 v=0
79160 On ch=1 n=b5 v=0
79180 On ch=1 n=d#6 v=0
79200 On ch=1 n=f#6 v=0
81600 On ch=1 n=b5 v=80
81600 On ch=1 n=a5 v=80
82080 On ch=1 n=a5 v=0
82080 On ch=1 n=b5 v=0
83520 On ch=1 n=b5 v=80
83520 On ch=1 n=a5 v=80
84000 On ch=1 n=a5 v=0
84000 On ch=1 n=b5 v=0
85440 On ch=1 n=b5 v=80
85440 On ch=1 n=a5 v=80
85920 On ch=1 n=a5 v=0
85920 On ch=1 n=b5 v=0
85920 On ch=1 n=b6 v=90
85920 On ch=1 n=a6 v=90
86400 On ch=1 n=a6 v=0
86400 On ch=1 n=b6 v=0
86400 On ch=1 n=b6 v=100
86520 On ch=1 n=b6 v=0
86520 On ch=1 n=f#6 v=100
86640 On ch=1 n=f#6 v=0
86640 On ch=1 n=g#6 v=100
86760 On ch=1 n=g#6 v=0
86760 On ch=1 n=c#7 v=100
86880 On ch=1 n=c#7 v=0
86880 On ch=1 n=b6 v=100
87000 On ch=1 n=b6 v=0
87000 On ch=1 n=f#6 v=100
87120 On ch=1 n=f#6 v=0
87120 On ch=1 n=g#6 v=100
87240 On ch=1 n=g#6 v=0
87240 On ch=1 n=c#7 v=100
87360 On ch=1 n=c#7 v=0
87360 On ch=1 n=b6 v=100
87480 On ch=1 n=b6 v=0
87480 On ch=1 n=f#6 v=100
87600 On ch=1 n=f#6 v=0
87600 On ch=1 n=g#6 v=100
87720 On ch=1 n=g#6 v=0
87720 On ch=1 n=c#7 v=100
87840 On ch=1 n=c#7 v=0
87840 On ch=1 n=b6 v=100
87960 On ch=1 n=b6 v=0
87960 On ch=1 n=f#6 v=100
88080 On ch=1 n=f#6 v=0
88080 On ch=1 n=g#6 v=100
88200 On ch=1 n=g#6 v=0
88200 On ch=1 n=c#7 v=100
88320 On ch=1 n=c#7 v=0
88320 On ch=1 n=b5 v=110
88368 On ch=1 n=d#6 v=110
88416 On ch=1 n=d#6 v=0
88416 On ch=1 n=f#6 v=110
88464 On ch=1 n=f#6 v=0
88464 On ch=1 n=g#6 v=110
88512 On ch=1 n=g#6 v=0
88752 On ch=1 n=b8 v=110
88752 On ch=1 n=a#8 v=110
88800 On ch=1 n=a#8 v=0
88800 On ch=1 n=b8 v=0
89280 On ch=1 n=b5 v=0
89280 On ch=1 n=b5 v=120
89328 On ch=1 n=d#6 v=120
89376 On ch=1 n=d#6 v=0
89376 On ch=1 n=f#6 v=120
89424 On ch=1 n=f#6 v=0
89424 On ch=1 n=g#6 v=120
89472 On ch=1 n=g#6 v=0
89760 On ch=1 n=f#8 v=120
89880 On ch=1 n=f#8 v=0
89880 On ch=1 n=g#8 v=120
90000 On ch=1 n=g#8 v=0
90000 On ch=1 n=a#8 v=120
90120 On ch=1 n=a#8 v=0
90120 On ch=1 n=g#8 v=120
90240 On ch=1 n=g#8 v=0
90240 On ch=1 n=f#8 v=120
91680 On ch=1 n=f#8 v=0
91680 On ch=1 n=b5 v=0
91680 Meta TrkEnd
TrkEnd
MTrk
0 SeqSpec 43 00 01 00
0 Meta TrkName "Left Bass"
0 Meta 0x21 00
8640 On ch=1 n=b2 v=100
8640 On ch=1 n=f#3 v=100
8880 On ch=1 n=d#4 v=100
8880 On ch=1 n=f#4 v=100
8880 On ch=1 n=c#5 v=100
9120 On ch=1 n=c#5 v=0
9120 On ch=1 n=f#4 v=0
9120 On ch=1 n=d#4 v=0
9600 On ch=1 n=f#3 v=0
9600 On ch=1 n=b2 v=0
18880 On ch=1 n=f#4 v=50
18920 On ch=1 n=f#4 v=0
18960 On ch=1 n=f#4 v=50
19000 On ch=1 n=f#4 v=0
19040 On ch=1 n=e4 v=50
19080 On ch=1 n=e4 v=0
19120 On ch=1 n=d#4 v=50
19160 On ch=1 n=d#4 v=0
19200 On ch=1 n=c#4 v=50
19360 On ch=1 n=c#4 v=0
19360 On ch=1 n=b3 v=50
19440 On ch=1 n=b3 v=0
19440 On ch=1 n=g#3 v=50
19480 On ch=1 n=g#3 v=0
19600 On ch=1 n=c#3 v=50
19680 On ch=1 n=c#3 v=0
19680 On ch=1 n=f#2 v=50
19740 On ch=1 n=f#2 v=0
20800 On ch=1 n=f#4 v=50
20840 On ch=1 n=f#4 v=0
20880 On ch=1 n=f#4 v=50
20920 On ch=1 n=f#4 v=0
20960 On ch=1 n=e4 v=50
21000 On ch=1 n=e4 v=0
21040 On ch=1 n=d#4 v=50
21080 On ch=1 n=d#4 v=0
21120 On ch=1 n=c#4 v=50
21280 On ch=1 n=c#4 v=0
21280 On ch=1 n=b3 v=50
21360 On ch=1 n=b3 v=0
21360 On ch=1 n=g#3 v=50
21400 On ch=1 n=g#3 v=0
21520 On ch=1 n=c#3 v=50
21600 On ch=1 n=c#3 v=0
21600 On ch=1 n=f#2 v=50
21660 On ch=1 n=f#2 v=0
22320 On ch=1 n=a4 v=60
22480 On ch=1 n=a4 v=0
22480 On ch=1 n=a#4 v=60
22560 On ch=1 n=a#4 v=0
22560 On ch=1 n=c5 v=60
22620 On ch=1 n=c5 v=0
22800 On ch=1 n=a4 v=60
22860 On ch=1 n=a4 v=0
23040 On ch=1 n=c5 v=60
23100 On ch=1 n=c5 v=0
23280 On ch=1 n=d#5 v=60
23340 On ch=1 n=d#5 v=0
23520 On ch=1 n=c#5 v=60
23580 On ch=1 n=c#5 v=0
23760 On ch=1 n=c5 v=60
23820 On ch=1 n=c5 v=0
24240 On ch=1 n=c#5 v=60
24400 On ch=1 n=c#5 v=0
24400 On ch=1 n=c5 v=60
24480 On ch=1 n=c5 v=0
24480 On ch=1 n=b4 v=60
24520 On ch=1 n=b4 v=0
24720 On ch=1 n=c5 v=60
24880 On ch=1 n=c5 v=0
24880 On ch=1 n=b4 v=60
24960 On ch=1 n=b4 v=0
24960 On ch=1 n=a#4 v=60
25000 On ch=1 n=a#4 v=0
25200 On ch=1 n=b4 v=60
25360 On ch=1 n=b4 v=0
25360 On ch=1 n=a#4 v=60
25440 On ch=1 n=a#4 v=0
25440 On ch=1 n=a4 v=60
25680 On ch=1 n=d5 v=60
25680 On ch=1 n=c5 v=60
26160 On ch=1 n=c5 v=0
26160 On ch=1 n=d5 v=0
26160 On ch=1 n=a4 v=0
26160 On ch=1 n=a4 v=60
26320 On ch=1 n=a4 v=0
26320 On ch=1 n=a#4 v=60
26400 On ch=1 n=a#4 v=0
26400 On ch=1 n=c5 v=60
26460 On ch=1 n=c5 v=0
26640 On ch=1 n=a4 v=60
26700 On ch=1 n=a4 v=0
26880 On ch=1 n=c5 v=60
26940 On ch=1 n=c5 v=0
27120 On ch=1 n=d#5 v=60
27180 On ch=1 n=d#5 v=0
27360 On ch=1 n=d#5 v=70
27440 On ch=1 n=d#5 v=0
27840 On ch=1 n=d#5 v=80
27920 On ch=1 n=d#5 v=0
28320 On ch=1 n=d#5 v=100
28400 On ch=1 n=d#5 v=0
28800 On ch=1 n=d#5 v=60
28840 On ch=1 n=d#5 v=0
29040 On ch=1 n=d#3 v=50
29040 On ch=1 n=d#4 v=50
29280 On ch=1 n=d#4 v=0
29280 On ch=1 n=d#3 v=0
29280 On ch=1 n=c#3 v=60
29280 On ch=1 n=c#4 v=60
29340 On ch=1 n=c#4 v=0
29340 On ch=1 n=c#3 v=0
29520 On ch=1 n=f#2 v=60
29520 On ch=1 n=f#3 v=60
29580 On ch=1 n=f#3 v=0
29580 On ch=1 n=f#2 v=0
29760 On ch=1 n=g#2 v=60
29760 On ch=1 n=g#3 v=60
29820 On ch=1 n=g#3 v=0
29820 On ch=1 n=g#2 v=0
30000 On ch=1 n=d#3 v=60
30000 On ch=1 n=d#4 v=60
30060 On ch=1 n=d#4 v=0
30060 On ch=1 n=d#3 v=0
30240 On ch=1 n=b2 v=60
30240 On ch=1 n=b3 v=60
30300 On ch=1 n=b3 v=0
30300 On ch=1 n=b2 v=0
30480 On ch=1 n=f#2 v=60
30480 On ch=1 n=f#3 v=60
30720 On ch=1 n=f#3 v=0
30720 On ch=1 n=f#2 v=0
30720 On ch=1 n=g#2 v=60
30720 On ch=1 n=g#3 v=60
31680 On ch=1 n=g#3 v=0
31680 On ch=1 n=g#2 v=0
31680 On ch=1 n=a#2 v=70
31680 On ch=1 n=a#3 v=70
31920 On ch=1 n=a#3 v=0
31920 On ch=1 n=a#2 v=0
31920 On ch=1 n=d#3 v=70
31920 On ch=1 n=d#4 v=70
32160 On ch=1 n=d#4 v=0
32160 On ch=1 n=d#3 v=0
32160 On ch=1 n=b2 v=60
32160 On ch=1 n=b3 v=60
32400 On ch=1 n=b3 v=0
32400 On ch=1 n=b2 v=0
32400 On ch=1 n=g#3 v=60
32400 On ch=1 n=g#4 v=60
32880 On ch=1 n=g#4 v=0
32880 On ch=1 n=g#3 v=0
32880 On ch=1 n=d#3 v=60
32880 On ch=1 n=d#4 v=60
32940 On ch=1 n=d#4 v=0
32940 On ch=1 n=d#3 v=0
33120 On ch=1 n=c#3 v=60
33120 On ch=1 n=c#4 v=60
33360 On ch=1 n=c#4 v=0
33360 On ch=1 n=c#3 v=0
33360 On ch=1 n=f#2 v=60
33360 On ch=1 n=f#3 v=60
33600 On ch=1 n=f#3 v=0
33600 On ch=1 n=f#2 v=0
33600 On ch=1 n=g#2 v=60
33600 On ch=1 n=g#3 v=60
33840 On ch=1 n=g#3 v=0
33840 On ch=1 n=g#2 v=0
33840 On ch=1 n=d#3 v=60
33840 On ch=1 n=d#4 v=60
34080 On ch=1 n=d#4 v=0
34080 On ch=1 n=d#3 v=0
34080 On ch=1 n=b2 v=60
34080 On ch=1 n=b3 v=60
34320 On ch=1 n=b3 v=0
34320 On ch=1 n=b2 v=0
34320 On ch=1 n=f#2 v=60
34320 On ch=1 n=f#3 v=60
34560 On ch=1 n=f#3 v=0
34560 On ch=1 n=f#2 v=0
34560 On ch=1 n=g#2 v=60
34560 On ch=1 n=g#3 v=60
35520 On ch=1 n=g#3 v=0
35520 On ch=1 n=g#2 v=0
35520 On ch=1 n=a#2 v=60
35520 On ch=1 n=a#3 v=60
35760 On ch=1 n=a#3 v=0
35760 On ch=1 n=a#2 v=0
35760 On ch=1 n=d#3 v=60
35760 On ch=1 n=d#4 v=60
36000 On ch=1 n=d#4 v=0
36000 On ch=1 n=d#3 v=0
36000 On ch=1 n=b2 v=60
36000 On ch=1 n=b3 v=60
36060 On ch=1 n=b3 v=0
36060 On ch=1 n=b2 v=0
36480 On ch=1 n=f#4 v=60
36560 On ch=1 n=f#4 v=0
36960 On ch=1 n=b2 v=100
37440 On ch=1 n=f#4 v=100
37440 On ch=1 n=e5 v=100
37440 On ch=1 n=c#5 v=100
37680 On ch=1 n=f#4 v=0
37680 On ch=1 n=g#4 v=100
37920 On ch=1 n=g#4 v=0
37920 On ch=1 n=c#5 v=0
37920 On ch=1 n=e5 v=0
37920 On ch=1 n=b2 v=0
37920 On ch=1 n=a#4 v=100
37920 On ch=1 n=f#5 v=100
37920 On ch=1 n=d#5 v=100
38160 On ch=1 n=d#5 v=0
38160 On ch=1 n=f#5 v=0
38160 On ch=1 n=a#4 v=0
38160 On ch=1 n=b4 v=100
38400 On ch=1 n=b4 v=0
38400 On ch=1 n=c#5 v=100
38640 On ch=1 n=c#5 v=0
38640 On ch=1 n=d#5 v=100
38880 On ch=1 n=d#5 v=0
38880 On ch=1 n=f#2 v=100
38880 On ch=1 n=f#3 v=100
39360 On ch=1 n=f#3 v=0
39360 On ch=1 n=f#2 v=0
39360 On ch=1 n=g#5 v=100
39360 On ch=1 n=e5 v=100
39360 On ch=1 n=c#5 v=100
39360 On ch=1 n=f#4 v=100
39600 On ch=1 n=e5 v=0
39600 On ch=1 n=g#5 v=0
39600 On ch=1 n=a#5 v=100
39840 On ch=1 n=a#5 v=0
39840 On ch=1 n=f#4 v=0
39840 On ch=1 n=c#5 v=0
39840 On ch=1 n=f#5 v=110
39840 On ch=1 n=d#5 v=110
39840 On ch=1 n=b4 v=110
39840 On ch=1 n=f#4 v=110
40080 On ch=1 n=f#4 v=0
40080 On ch=1 n=b4 v=0
40080 On ch=1 n=d#5 v=0
40080 On ch=1 n=f#5 v=0
41280 On ch=1 n=f#3 v=100
41760 On ch=1 n=b2 v=100
42000 On ch=1 n=f#3 v=0
42000 On ch=1 n=f#3 v=100
42060 On ch=1 n=f#3 v=0
42480 On ch=1 n=f#3 v=100
42720 On ch=1 n=b2 v=0
42720 On ch=1 n=b2 v=100
42960 On ch=1 n=f#3 v=0
42960 On ch=1 n=f#3 v=100
43020 On ch=1 n=f#3 v=0
43440 On ch=1 n=f#3 v=100
43680 On ch=1 n=b2 v=0
43680 On ch=1 n=b2 v=90
43920 On ch=1 n=f#3 v=0
43920 On ch=1 n=f#3 v=90
43980 On ch=1 n=f#3 v=0
44400 On ch=1 n=f#3 v=80
44640 On ch=1 n=b2 v=0
44640 On ch=1 n=b2 v=70
44880 On ch=1 n=f#3 v=0
44880 On ch=1 n=f#3 v=70
44940 On ch=1 n=f#3 v=0
45360 On ch=1 n=f#3 v=60
45600 On ch=1 n=f#3 v=0
45600 On ch=1 n=b2 v=0
45600 On ch=1 n=f#3 v=60
45600 On ch=1 n=b2 v=60
45600 On ch=1 n=f#4 v=60
45760 On ch=1 n=f#3 v=0
45920 On ch=1 n=f#3 v=60
46080 On ch=1 n=f#3 v=0
46080 On ch=1 n=f#4 v=0
46080 On ch=1 n=g#4 v=60
46240 On ch=1 n=f#3 v=60
46400 On ch=1 n=f#3 v=0
46560 On ch=1 n=g#4 v=0
46560 On ch=1 n=b2 v=0
46560 On ch=1 n=f#3 v=60
46560 On ch=1 n=c#3 v=60
46560 On ch=1 n=a#4 v=60
46720 On ch=1 n=f#3 v=0
46880 On ch=1 n=f#3 v=60
47040 On ch=1 n=f#3 v=0
47040 On ch=1 n=a#4 v=0
47040 On ch=1 n=c#3 v=0
47040 On ch=1 n=f#2 v=60
47040 On ch=1 n=g#4 v=60
47200 On ch=1 n=f#3 v=60
47360 On ch=1 n=f#3 v=0
47520 On ch=1 n=g#4 v=0
47520 On ch=1 n=f#2 v=0
47520 On ch=1 n=b2 v=60
47520 On ch=1 n=f#3 v=60
47520 On ch=1 n=f#4 v=60
48000 On ch=1 n=f#4 v=0
48000 On ch=1 n=b2 v=0
48000 On ch=1 n=c3 v=60
48000 On ch=1 n=g#4 v=60
48240 On ch=1 n=g#4 v=0
48240 On ch=1 n=a4 v=60
48480 On ch=1 n=a4 v=0
48480 On ch=1 n=c3 v=0
48480 On ch=1 n=f#3 v=0
48480 On ch=1 n=c#3 v=60
48480 On ch=1 n=f#3 v=60
48480 On ch=1 n=a#4 v=60
48960 On ch=1 n=a#4 v=0
48960 On ch=1 n=c#3 v=0
48960 On ch=1 n=f#2 v=60
48960 On ch=1 n=g#4 v=60
49440 On ch=1 n=g#4 v=0
49440 On ch=1 n=f#2 v=0
49440 On ch=1 n=f#3 v=0
49440 On ch=1 n=b2 v=60
49440 On ch=1 n=f#3 v=60
49440 On ch=1 n=f#4 v=60
49600 On ch=1 n=f#4 v=0
49600 On ch=1 n=f#4 v=60
49760 On ch=1 n=f#4 v=0
49760 On ch=1 n=f#3 v=0
49760 On ch=1 n=f#3 v=60
49760 On ch=1 n=f#4 v=60
49920 On ch=1 n=f#4 v=0
49920 On ch=1 n=f#4 v=60
50160 On ch=1 n=f#4 v=0
50160 On ch=1 n=f#3 v=0
50160 On ch=1 n=b2 v=0
50160 On ch=1 n=f#4 v=60
50160 On ch=1 n=c#3 v=60
50160 On ch=1 n=f#3 v=60
50400 On ch=1 n=c#3 v=0
50400 On ch=1 n=f#4 v=0
50400 On ch=1 n=d#3 v=60
50400 On ch=1 n=f#4 v=60
50560 On ch=1 n=f#3 v=0
50560 On ch=1 n=f#3 v=60
50640 On ch=1 n=f#3 v=0
50720 On ch=1 n=f#3 v=60
50800 On ch=1 n=f#3 v=0
50880 On ch=1 n=f#3 v=60
50960 On ch=1 n=f#3 v=0
51040 On ch=1 n=g#3 v=60
51120 On ch=1 n=g#3 v=0
51200 On ch=1 n=a#3 v=60
51280 On ch=1 n=a#3 v=0
51300 On ch=1 n=a#3 v=60
51360 On ch=1 n=a#3 v=0
51360 On ch=1 n=f#4 v=0
51360 On ch=1 n=d#3 v=0
51360 On ch=1 n=c#3 v=40
51360 On ch=1 n=f#3 v=40
51360 On ch=1 n=e4 v=60
51520 On ch=1 n=e4 v=0
51520 On ch=1 n=f#4 v=60
51680 On ch=1 n=f#4 v=0
51680 On ch=1 n=f#3 v=0
51680 On ch=1 n=f#3 v=40
51680 On ch=1 n=g#4 v=60
51840 On ch=1 n=g#4 v=0
51840 On ch=1 n=c#3 v=0
51840 On ch=1 n=a#4 v=60
51840 On ch=1 n=f#2 v=40
52080 On ch=1 n=a#4 v=0
52080 On ch=1 n=f#3 v=0
52080 On ch=1 n=g#4 v=60
52080 On ch=1 n=f#3 v=40
52320 On ch=1 n=g#4 v=0
52320 On ch=1 n=f#2 v=0
52320 On ch=1 n=f#4 v=60
52320 On ch=1 n=b2 v=40
52480 On ch=1 n=f#4 v=0
52480 On ch=1 n=f#4 v=60
52640 On ch=1 n=f#4 v=0
52640 On ch=1 n=f#3 v=0
52640 On ch=1 n=g#4 v=60
52640 On ch=1 n=f#3 v=40
52800 On ch=1 n=g#4 v=0
52800 On ch=1 n=f#4 v=60
52960 On ch=1 n=f#4 v=0
52960 On ch=1 n=f#3 v=0
52960 On ch=1 n=e4 v=60
52960 On ch=1 n=f#3 v=40
53120 On ch=1 n=e4 v=0
53120 On ch=1 n=d#4 v=60
53280 On ch=1 n=d#4 v=0
53280 On ch=1 n=f#3 v=0
53280 On ch=1 n=b2 v=0
53280 On ch=1 n=c#3 v=40
53280 On ch=1 n=f#3 v=40
53280 On ch=1 n=c#4 v=60
53280 On ch=1 n=f#4 v=40
53280 On ch=1 n=a#4 v=40
53440 On ch=1 n=a#4 v=0
53440 On ch=1 n=f#4 v=0
53440 On ch=1 n=c#4 v=0
53440 On ch=1 n=f#3 v=0
53440 On ch=1 n=c#3 v=0
53440 On ch=1 n=d#3 v=40
53440 On ch=1 n=f#3 v=40
53440 On ch=1 n=d#4 v=60
53440 On ch=1 n=f#4 v=40
53440 On ch=1 n=a#4 v=40
53600 On ch=1 n=a#4 v=0
53600 On ch=1 n=f#4 v=0
53600 On ch=1 n=d#4 v=0
53600 On ch=1 n=f#3 v=0
53600 On ch=1 n=d#3 v=0
53600 On ch=1 n=e3 v=40
53600 On ch=1 n=f#3 v=40
53600 On ch=1 n=e4 v=60
53600 On ch=1 n=f#4 v=40
53600 On ch=1 n=a#4 v=40
53760 On ch=1 n=a#4 v=0
53760 On ch=1 n=f#4 v=0
53760 On ch=1 n=e4 v=0
53760 On ch=1 n=f#3 v=0
53760 On ch=1 n=e3 v=0
53760 On ch=1 n=d#3 v=40
53760 On ch=1 n=f#3 v=40
53760 On ch=1 n=d#4 v=60
53760 On ch=1 n=f#4 v=40
53760 On ch=1 n=a#4 v=40
54000 On ch=1 n=a#4 v=0
54000 On ch=1 n=f#4 v=0
54000 On ch=1 n=d#4 v=0
54000 On ch=1 n=f#3 v=0
54000 On ch=1 n=d#3 v=0
54000 On ch=1 n=c#3 v=40
54000 On ch=1 n=f#3 v=40
54000 On ch=1 n=c#4 v=60
54000 On ch=1 n=f#4 v=40
54000 On ch=1 n=a#4 v=40
54240 On ch=1 n=a#4 v=0
54240 On ch=1 n=f#4 v=0
54240 On ch=1 n=c#4 v=0
54240 On ch=1 n=c#3 v=0
54240 On ch=1 n=b2 v=50
54240 On ch=1 n=d#4 v=50
54240 On ch=1 n=f#4 v=50
54240 On ch=1 n=b4 v=50
54400 On ch=1 n=f#3 v=0
54400 On ch=1 n=f#3 v=50
54480 On ch=1 n=f#3 v=0
54560 On ch=1 n=f#3 v=50
54640 On ch=1 n=f#3 v=0
54720 On ch=1 n=f#3 v=50
54800 On ch=1 n=f#3 v=0
54880 On ch=1 n=g#3 v=50
54960 On ch=1 n=g#3 v=0
55040 On ch=1 n=a#3 v=50
55120 On ch=1 n=a#3 v=0
55140 On ch=1 n=a#3 v=50
55200 On ch=1 n=a#3 v=0
55200 On ch=1 n=b4 v=0
55200 On ch=1 n=f#4 v=0
55200 On ch=1 n=d#4 v=0
55200 On ch=1 n=b2 v=0
55200 On ch=1 n=c#3 v=40
55200 On ch=1 n=f#3 v=40
55200 On ch=1 n=e4 v=60
55360 On ch=1 n=e4 v=0
55360 On ch=1 n=f#4 v=60
55520 On ch=1 n=f#4 v=0
55520 On ch=1 n=f#3 v=0
55520 On ch=1 n=f#3 v=40
55520 On ch=1 n=g#4 v=60
55680 On ch=1 n=g#4 v=0
55680 On ch=1 n=c#3 v=0
55680 On ch=1 n=a#4 v=60
55680 On ch=1 n=f#2 v=40
55920 On ch=1 n=a#4 v=0
55920 On ch=1 n=f#3 v=0
55920 On ch=1 n=g#4 v=60
55920 On ch=1 n=f#3 v=40
56160 On ch=1 n=g#4 v=0
56160 On ch=1 n=f#2 v=0
56160 On ch=1 n=f#4 v=60
56160 On ch=1 n=b2 v=40
56320 On ch=1 n=f#4 v=0
56320 On ch=1 n=f#4 v=60
56480 On ch=1 n=f#4 v=0
56480 On ch=1 n=f#3 v=0
56480 On ch=1 n=g#4 v=60
56480 On ch=1 n=f#3 v=40
56640 On ch=1 n=g#4 v=0
56640 On ch=1 n=f#4 v=60
56800 On ch=1 n=f#4 v=0
56800 On ch=1 n=f#3 v=0
56800 On ch=1 n=e4 v=60
56800 On ch=1 n=f#3 v=40
56960 On ch=1 n=e4 v=0
56960 On ch=1 n=d#4 v=60
57120 On ch=1 n=d#4 v=0
57120 On ch=1 n=f#3 v=0
57120 On ch=1 n=b2 v=0
57120 On ch=1 n=c#3 v=40
57120 On ch=1 n=f#3 v=40
57120 On ch=1 n=c#4 v=60
57120 On ch=1 n=f#4 v=40
57120 On ch=1 n=a#4 v=40
57280 On ch=1 n=a#4 v=0
57280 On ch=1 n=f#4 v=0
57280 On ch=1 n=c#4 v=0
57280 On ch=1 n=f#3 v=0
57280 On ch=1 n=c#3 v=0
57280 On ch=1 n=d#3 v=40
57280 On ch=1 n=f#3 v=40
57280 On ch=1 n=d#4 v=60
57280 On ch=1 n=f#4 v=40
57280 On ch=1 n=a#4 v=40
57440 On ch=1 n=a#4 v=0
57440 On ch=1 n=f#4 v=0
57440 On ch=1 n=d#4 v=0
57440 On ch=1 n=f#3 v=0
57440 On ch=1 n=d#3 v=0
57440 On ch=1 n=e3 v=40
57440 On ch=1 n=f#3 v=40
57440 On ch=1 n=e4 v=60
57440 On ch=1 n=f#4 v=40
57440 On ch=1 n=a#4 v=40
57600 On ch=1 n=a#4 v=0
57600 On ch=1 n=f#4 v=0
57600 On ch=1 n=e4 v=0
57600 On ch=1 n=f#3 v=0
57600 On ch=1 n=e3 v=0
57600 On ch=1 n=d#3 v=40
57600 On ch=1 n=f#3 v=40
57600 On ch=1 n=d#4 v=60
57600 On ch=1 n=f#4 v=40
57600 On ch=1 n=a#4 v=40
57840 On ch=1 n=a#4 v=0
57840 On ch=1 n=f#4 v=0
57840 On ch=1 n=d#4 v=0
57840 On ch=1 n=f#3 v=0
57840 On ch=1 n=d#3 v=0
57840 On ch=1 n=c#3 v=40
57840 On ch=1 n=f#3 v=40
57840 On ch=1 n=c#4 v=60
57840 On ch=1 n=f#4 v=40
57840 On ch=1 n=a#4 v=40
58080 On ch=1 n=a#4 v=0
58080 On ch=1 n=f#4 v=0
58080 On ch=1 n=c#4 v=0
58080 On ch=1 n=f#3 v=0
58080 On ch=1 n=c#3 v=0
58080 On ch=1 n=f#3 v=40
58080 On ch=1 n=b2 v=40
58080 On ch=1 n=b3 v=40
58080 On ch=1 n=d#4 v=40
58080 On ch=1 n=f#4 v=40
58080 On ch=1 n=b4 v=40
58400 On ch=1 n=f#3 v=0
58400 On ch=1 n=f#3 v=40
58720 On ch=1 n=f#3 v=0
58720 On ch=1 n=f#3 v=40
59040 On ch=1 n=f#3 v=0
59040 On ch=1 n=b4 v=0
59040 On ch=1 n=f#4 v=0
59040 On ch=1 n=d#4 v=0
59040 On ch=1 n=b3 v=0
59040 On ch=1 n=b2 v=0
59040 On ch=1 n=a2 v=40
59040 On ch=1 n=e3 v=40
59040 On ch=1 n=a3 v=40
59040 On ch=1 n=c#4 v=40
59040 On ch=1 n=e4 v=40
59040 On ch=1 n=a4 v=40
60000 On ch=1 n=a4 v=0
60000 On ch=1 n=e4 v=0
60000 On ch=1 n=c#4 v=0
60000 On ch=1 n=a3 v=0
60000 On ch=1 n=e3 v=0
60000 On ch=1 n=a2 v=0
60000 On ch=1 n=f#3 v=40
60000 On ch=1 n=b2 v=40
60000 On ch=1 n=b3 v=40
60000 On ch=1 n=d#4 v=40
60000 On ch=1 n=f#4 v=40
60320 On ch=1 n=f#3 v=0
60320 On ch=1 n=f#3 v=40
60640 On ch=1 n=f#3 v=0
60640 On ch=1 n=f#3 v=40
60960 On ch=1 n=f#3 v=0
60960 On ch=1 n=f#4 v=0
60960 On ch=1 n=d#4 v=0
60960 On ch=1 n=b3 v=0
60960 On ch=1 n=b2 v=0
60960 On ch=1 n=a2 v=40
60960 On ch=1 n=e3 v=40
60960 On ch=1 n=a3 v=40
60960 On ch=1 n=c#4 v=40
60960 On ch=1 n=e4 v=40
60960 On ch=1 n=a4 v=40
61920 On ch=1 n=a4 v=0
61920 On ch=1 n=e4 v=0
61920 On ch=1 n=c#4 v=0
61920 On ch=1 n=a3 v=0
61920 On ch=1 n=e3 v=0
61920 On ch=1 n=a2 v=0
61920 On ch=1 n=g#2 v=60
62400 On ch=1 n=g#3 v=70
62400 On ch=1 n=d#4 v=70
62460 On ch=1 n=d#4 v=0
62460 On ch=1 n=g#3 v=0
62640 On ch=1 n=c#4 v=70
62640 On ch=1 n=g#4 v=70
62700 On ch=1 n=g#4 v=0
62700 On ch=1 n=c#4 v=0
62880 On ch=1 n=g#2 v=0
62880 On ch=1 n=d#5 v=80
62880 On ch=1 n=g#4 v=80
62940 On ch=1 n=g#4 v=0
62940 On ch=1 n=d#5 v=0
63120 On ch=1 n=g#5 v=80
63120 On ch=1 n=c#5 v=80
63180 On ch=1 n=c#5 v=0
63180 On ch=1 n=g#5 v=0
68160 On ch=1 n=d5 v=100
68220 On ch=1 n=d5 v=0
68400 On ch=1 n=d4 v=100
68400 On ch=1 n=e4 v=100
68460 On ch=1 n=e4 v=0
68460 On ch=1 n=d4 v=0
68640 On ch=1 n=e2 v=100
69360 On ch=1 n=e2 v=0
76800 On ch=1 n=e4 v=100
76800 On ch=1 n=e5 v=100
76800 On ch=1 n=b4 v=100
76800 On ch=1 n=f#4 v=100
77040 On ch=1 n=e5 v=0
77040 On ch=1 n=e4 v=0
77040 On ch=1 n=d#4 v=100
77040 On ch=1 n=d#5 v=100
77280 On ch=1 n=d#5 v=0
77280 On ch=1 n=d#4 v=0
77280 On ch=1 n=f#4 v=0
77280 On ch=1 n=b4 v=0
77280 On ch=1 n=c#4 v=100
77280 On ch=1 n=c#5 v=100
77280 On ch=1 n=d#4 v=100
77280 On ch=1 n=f#4 v=100
77520 On ch=1 n=c#5 v=0
77520 On ch=1 n=c#4 v=0
77520 On ch=1 n=b3 v=100
77520 On ch=1 n=b4 v=100
77760 On ch=1 n=b4 v=0
77760 On ch=1 n=b3 v=0
77760 On ch=1 n=f#4 v=0
77760 On ch=1 n=d#4 v=0
77760 On ch=1 n=f#2 v=100
77760 On ch=1 n=f#3 v=100
78240 On ch=1 n=f#3 v=0
78240 On ch=1 n=f#2 v=0
78240 On ch=1 n=g#5 v=100
78240 On ch=1 n=e5 v=100
78240 On ch=1 n=c#5 v=100
78240 On ch=1 n=f#4 v=100
78480 On ch=1 n=g#5 v=0
78480 On ch=1 n=a#5 v=100
78720 On ch=1 n=a#5 v=0
78720 On ch=1 n=f#4 v=0
78720 On ch=1 n=c#5 v=0
78720 On ch=1 n=e5 v=0
79680 On ch=1 n=b2 v=100
79680 On ch=1 n=f#3 v=100
79920 On ch=1 n=f#3 v=0
79920 On ch=1 n=f#3 v=100
80400 On ch=1 n=f#3 v=0
80400 On ch=1 n=f#3 v=100
80460 On ch=1 n=f#3 v=0
80640 On ch=1 n=b2 v=0
80640 On ch=1 n=a2 v=60
80640 On ch=1 n=b3 v=60
80640 On ch=1 n=a3 v=60
81120 On ch=1 n=a3 v=0
81120 On ch=1 n=b3 v=0
81120 On ch=1 n=a2 v=0
81120 On ch=1 n=b4 v=70
81120 On ch=1 n=a4 v=70
81600 On ch=1 n=a4 v=0
81600 On ch=1 n=b4 v=0
82080 On ch=1 n=b4 v=90
82080 On ch=1 n=a4 v=90
82560 On ch=1 n=a4 v=0
82560 On ch=1 n=b4 v=0
82560 On ch=1 n=a2 v=60
82560 On ch=1 n=b3 v=60
82560 On ch=1 n=a3 v=60
83040 On ch=1 n=a3 v=0
83040 On ch=1 n=b3 v=0
83040 On ch=1 n=a2 v=0
83040 On ch=1 n=b4 v=70
83040 On ch=1 n=a4 v=70
83520 On ch=1 n=a4 v=0
83520 On ch=1 n=b4 v=0
84000 On ch=1 n=b4 v=90
84000 On ch=1 n=a4 v=90
84480 On ch=1 n=a4 v=0
84480 On ch=1 n=b4 v=0
84480 On ch=1 n=a2 v=60
84480 On ch=1 n=b3 v=60
84480 On ch=1 n=a3 v=60
84960 On ch=1 n=a3 v=0
84960 On ch=1 n=b3 v=0
84960 On ch=1 n=a2 v=0
84960 On ch=1 n=b4 v=70
84960 On ch=1 n=a4 v=70
85440 On ch=1 n=a4 v=0
85440 On ch=1 n=b4 v=0
85440 Meta TrkEnd
TrkEnd
MTrk
0 SeqSpec 43 00 01 00
0 Meta TrkName "Pedal"
0 Meta 0x21 00
0 Par ch=1 c=64 v=127
1920 Par ch=1 c=64 v=0
3840 Par ch=1 c=64 v=127
5760 Par ch=1 c=64 v=0
29040 Par ch=1 c=64 v=127
29220 Par ch=1 c=64 v=0
29280 Par ch=1 c=64 v=127
29460 Par ch=1 c=64 v=0
29520 Par ch=1 c=64 v=127
29700 Par ch=1 c=64 v=0
29760 Par ch=1 c=64 v=127
29940 Par ch=1 c=64 v=0
30000 Par ch=1 c=64 v=127
30180 Par ch=1 c=64 v=0
30240 Par ch=1 c=64 v=127
30420 Par ch=1 c=64 v=0
30480 Par ch=1 c=64 v=127
30660 Par ch=1 c=64 v=0
30720 Par ch=1 c=64 v=127
30900 Par ch=1 c=64 v=0
30960 Par ch=1 c=64 v=127
31140 Par ch=1 c=64 v=0
31200 Par ch=1 c=64 v=127
31380 Par ch=1 c=64 v=0
31440 Par ch=1 c=64 v=127
31620 Par ch=1 c=64 v=0
31680 Par ch=1 c=64 v=127
31860 Par ch=1 c=64 v=0
31920 Par ch=1 c=64 v=127
32100 Par ch=1 c=64 v=0
32160 Par ch=1 c=64 v=127
32340 Par ch=1 c=64 v=0
32400 Par ch=1 c=64 v=127
32580 Par ch=1 c=64 v=0
32640 Par ch=1 c=64 v=127
32820 Par ch=1 c=64 v=0
32880 Par ch=1 c=64 v=127
33060 Par ch=1 c=64 v=0
33120 Par ch=1 c=64 v=127
33300 Par ch=1 c=64 v=0
33360 Par ch=1 c=64 v=127
33540 Par ch=1 c=64 v=0
33600 Par ch=1 c=64 v=127
33780 Par ch=1 c=64 v=0
33840 Par ch=1 c=64 v=127
34020 Par ch=1 c=64 v=0
34080 Par ch=1 c=64 v=127
34260 Par ch=1 c=64 v=0
34320 Par ch=1 c=64 v=127
34500 Par ch=1 c=64 v=0
34560 Par ch=1 c=64 v=127
34740 Par ch=1 c=64 v=0
34800 Par ch=1 c=64 v=127
34980 Par ch=1 c=64 v=0
35040 Par ch=1 c=64 v=127
35220 Par ch=1 c=64 v=0
35280 Par ch=1 c=64 v=127
35460 Par ch=1 c=64 v=0
35520 Par ch=1 c=64 v=127
35700 Par ch=1 c=64 v=0
35760 Par ch=1 c=64 v=127
35940 Par ch=1 c=64 v=0
36000 Par ch=1 c=64 v=127
36180 Par ch=1 c=64 v=0
36240 Par ch=1 c=64 v=127
36420 Par ch=1 c=64 v=0
36480 Par ch=1 c=64 v=127
36660 Par ch=1 c=64 v=0
36720 Par ch=1 c=64 v=127
36900 Par ch=1 c=64 v=0
36960 Par ch=1 c=64 v=127
37140 Par ch=1 c=64 v=0
37200 Par ch=1 c=64 v=127
37380 Par ch=1 c=64 v=0
37440 Par ch=1 c=64 v=127
37620 Par ch=1 c=64 v=0
37680 Par ch=1 c=64 v=127
37860 Par ch=1 c=64 v=0
37920 Par ch=1 c=64 v=127
38100 Par ch=1 c=64 v=0
38160 Par ch=1 c=64 v=127
38340 Par ch=1 c=64 v=0
38400 Par ch=1 c=64 v=127
38580 Par ch=1 c=64 v=0
38640 Par ch=1 c=64 v=127
38820 Par ch=1 c=64 v=0
38880 Par ch=1 c=64 v=127
39060 Par ch=1 c=64 v=0
39120 Par ch=1 c=64 v=127
39300 Par ch=1 c=64 v=0
39360 Par ch=1 c=64 v=127
39540 Par ch=1 c=64 v=0
39600 Par ch=1 c=64 v=127
39780 Par ch=1 c=64 v=0
40800 Par ch=1 c=64 v=127
40980 Par ch=1 c=64 v=0
41040 Par ch=1 c=64 v=127
41220 Par ch=1 c=64 v=0
41280 Par ch=1 c=64 v=127
41460 Par ch=1 c=64 v=0
41520 Par ch=1 c=64 v=127
41700 Par ch=1 c=64 v=0
41760 Par ch=1 c=64 v=127
41940 Par ch=1 c=64 v=0
42000 Par ch=1 c=64 v=127
42180 Par ch=1 c=64 v=0
42240 Par ch=1 c=64 v=127
42420 Par ch=1 c=64 v=0
42480 Par ch=1 c=64 v=127
42660 Par ch=1 c=64 v=0
42720 Par ch=1 c=64 v=127
42900 Par ch=1 c=64 v=0
42960 Par ch=1 c=64 v=127
43140 Par ch=1 c=64 v=0
43200 Par ch=1 c=64 v=127
43380 Par ch=1 c=64 v=0
43440 Par ch=1 c=64 v=127
43620 Par ch=1 c=64 v=0
43680 Par ch=1 c=64 v=127
43860 Par ch=1 c=64 v=0
43920 Par ch=1 c=64 v=127
44100 Par ch=1 c=64 v=0
44160 Par ch=1 c=64 v=127
44340 Par ch=1 c=64 v=0
44400 Par ch=1 c=64 v=127
44580 Par ch=1 c=64 v=0
44640 Par ch=1 c=64 v=127
44820 Par ch=1 c=64 v=0
44880 Par ch=1 c=64 v=127
45060 Par ch=1 c=64 v=0
45120 Par ch=1 c=64 v=127
45300 Par ch=1 c=64 v=0
45360 Par ch=1 c=64 v=127
45540 Par ch=1 c=64 v=0
45600 Par ch=1 c=64 v=127
46020 Par ch=1 c=64 v=0
46080 Par ch=1 c=64 v=127
46500 Par ch=1 c=64 v=0
46560 Par ch=1 c=64 v=127
46980 Par ch=1 c=64 v=0
47040 Par ch=1 c=64 v=127
47460 Par ch=1 c=64 v=0
47520 Par ch=1 c=64 v=127
47940 Par ch=1 c=64 v=0
48000 Par ch=1 c=64 v=127
48420 Par ch=1 c=64 v=0
48480 Par ch=1 c=64 v=127
48900 Par ch=1 c=64 v=0
48960 Par ch=1 c=64 v=127
49380 Par ch=1 c=64 v=0
49440 Par ch=1 c=64 v=127
49860 Par ch=1 c=64 v=0
49920 Par ch=1 c=64 v=127
50340 Par ch=1 c=64 v=0
50400 Par ch=1 c=64 v=127
50820 Par ch=1 c=64 v=0
50880 Par ch=1 c=64 v=127
51300 Par ch=1 c=64 v=0
51360 Par ch=1 c=64 v=127
51780 Par ch=1 c=64 v=0
51840 Par ch=1 c=64 v=127
52260 Par ch=1 c=64 v=0
52320 Par ch=1 c=64 v=127
52740 Par ch=1 c=64 v=0
52800 Par ch=1 c=64 v=127
53220 Par ch=1 c=64 v=0
53280 Par ch=1 c=64 v=127
53700 Par ch=1 c=64 v=0
53760 Par ch=1 c=64 v=127
54180 Par ch=1 c=64 v=0
54240 Par ch=1 c=64 v=127
54660 Par ch=1 c=64 v=0
54720 Par ch=1 c=64 v=127
55140 Par ch=1 c=64 v=0
55200 Par ch=1 c=64 v=127
55620 Par ch=1 c=64 v=0
55680 Par ch=1 c=64 v=127
56100 Par ch=1 c=64 v=0
56160 Par ch=1 c=64 v=127
56580 Par ch=1 c=64 v=0
56640 Par ch=1 c=64 v=127
57060 Par ch=1 c=64 v=0
57120 Par ch=1 c=64 v=127
57540 Par ch=1 c=64 v=0
57600 Par ch=1 c=64 v=127
58020 Par ch=1 c=64 v=0
58080 Par ch=1 c=64 v=127
58500 Par ch=1 c=64 v=0
58560 Par ch=1 c=64 v=127
58980 Par ch=1 c=64 v=0
59040 Par ch=1 c=64 v=127
59940 Par ch=1 c=64 v=0
60000 Par ch=1 c=64 v=127
60420 Par ch=1 c=64 v=0
60480 Par ch=1 c=64 v=127
60900 Par ch=1 c=64 v=0
60960 Par ch=1 c=64 v=127
61860 Par ch=1 c=64 v=0
61920 Par ch=1 c=64 v=127
62100 Par ch=1 c=64 v=0
62160 Par ch=1 c=64 v=127
62340 Par ch=1 c=64 v=0
62400 Par ch=1 c=64 v=127
62580 Par ch=1 c=64 v=0
62640 Par ch=1 c=64 v=127
62820 Par ch=1 c=64 v=0
62880 Par ch=1 c=64 v=127
63060 Par ch=1 c=64 v=0
63120 Par ch=1 c=64 v=127
63300 Par ch=1 c=64 v=0
63360 Par ch=1 c=64 v=127
63540 Par ch=1 c=64 v=0
63600 Par ch=1 c=64 v=127
63780 Par ch=1 c=64 v=0
63840 Par ch=1 c=64 v=127
66660 Par ch=1 c=64 v=0
66720 Par ch=1 c=64 v=127
67140 Par ch=1 c=64 v=0
67200 Par ch=1 c=64 v=127
67620 Par ch=1 c=64 v=0
67680 Par ch=1 c=64 v=127
68100 Par ch=1 c=64 v=0
68160 Par ch=1 c=64 v=127
68580 Par ch=1 c=64 v=0
68640 Par ch=1 c=64 v=127
69060 Par ch=1 c=64 v=0
75840 Par ch=1 c=64 v=127
76020 Par ch=1 c=64 v=0
76080 Par ch=1 c=64 v=127
76260 Par ch=1 c=64 v=0
76320 Par ch=1 c=64 v=127
76500 Par ch=1 c=64 v=0
76560 Par ch=1 c=64 v=127
76740 Par ch=1 c=64 v=0
76800 Par ch=1 c=64 v=127
76980 Par ch=1 c=64 v=0
77040 Par ch=1 c=64 v=127
77220 Par ch=1 c=64 v=0
77280 Par ch=1 c=64 v=127
77460 Par ch=1 c=64 v=0
77520 Par ch=1 c=64 v=127
77700 Par ch=1 c=64 v=0
77760 Par ch=1 c=64 v=127
77940 Par ch=1 c=64 v=0
78000 Par ch=1 c=64 v=127
78180 Par ch=1 c=64 v=0
78240 Par ch=1 c=64 v=127
78420 Par ch=1 c=64 v=0
78480 Par ch=1 c=64 v=127
78660 Par ch=1 c=64 v=0
79680 Par ch=1 c=64 v=127
79860 Par ch=1 c=64 v=0
79920 Par ch=1 c=64 v=127
80100 Par ch=1 c=64 v=0
80160 Par ch=1 c=64 v=127
80340 Par ch=1 c=64 v=0
80400 Par ch=1 c=64 v=127
80580 Par ch=1 c=64 v=0
80640 Par ch=1 c=64 v=127
81060 Par ch=1 c=64 v=0
81120 Par ch=1 c=64 v=127
81540 Par ch=1 c=64 v=0
81600 Par ch=1 c=64 v=127
82020 Par ch=1 c=64 v=0
82080 Par ch=1 c=64 v=127
82500 Par ch=1 c=64 v=0
82560 Par ch=1 c=64 v=127
82980 Par ch=1 c=64 v=0
83040 Par ch=1 c=64 v=127
83460 Par ch=1 c=64 v=0
83520 Par ch=1 c=64 v=127
83940 Par ch=1 c=64 v=0
84000 Par ch=1 c=64 v=127
84420 Par ch=1 c=64 v=0
84480 Par ch=1 c=64 v=127
84900 Par ch=1 c=64 v=0
84960 Par ch=1 c=64 v=127
85380 Par ch=1 c=64 v=0
85440 Par ch=1 c=64 v=127
85860 Par ch=1 c=64 v=0
85920 Par ch=1 c=64 v=127
86340 Par ch=1 c=64 v=0
86400 Par ch=1 c=64 v=127
86820 Par ch=1 c=64 v=0
86880 Par ch=1 c=64 v=127
87300 Par ch=1 c=64 v=0
87360 Par ch=1 c=64 v=127
87780 Par ch=1 c=64 v=0
87840 Par ch=1 c=64 v=127
88260 Par ch=1 c=64 v=0
88320 Par ch=1 c=64 v=127
89220 Par ch=1 c=64 v=0
89280 Par ch=1 c=64 v=127
91680 Par ch=1 c=64 v=0
91680 Meta TrkEnd
TrkEnd
MTrk
0 SeqSpec 43 00 01 00
0 Meta TrkName "Debussy, Claude"
0 Meta 0x21 00
0 Meta TrkEnd
TrkEnd
MTrk
0 SeqSpec 43 00 01 00
0 Meta TrkName "Prelude Book 1 No. 05 Les collines d'Anacapri"
0 Meta 0x21 00
0 Meta TrkEnd
TrkEnd
MTrk
0 SeqSpec 43 00 01 00
0 Meta TrkName "Jeruen E. Dery jawjaw@hotmail.com"
0 Meta 0x21 00
0 Meta TrkEnd
TrkEnd
